<?xml version="1.0" encoding="utf-8"?>
<!-- Generator: Fusion 360, Shaper Origin Export Add-In, Version 1.6.10  -->
<svg xmlns="http://www.w3.org/2000/svg" xmlns:xlink="http://www.w3.org/1999/xlink" xmlns:shaper="http://www.shapertools.com/namespaces/shaper" shaper:fusionaddin="version:1.6.10" width="2.3008cm" height="0.9008cm" version="1.1" x="0cm" y="0cm" viewBox="0 0 2.3008 0.9008" enable-background="new 0 0 2.3008 0.9008" xml:space="preserve"><path d="M-1.1504,0.4504 L1.1504,0.4504 1.1504,-0.4504 -1.1504,-0.4504 -1.1504,0.4504z" transform="matrix(1,0,0,-1,1.1504,0.4504)" fill="rgb(0,0,0)" shaper:cutDepth="0.000127" stroke-linecap="round" stroke-linejoin="round" /><path d="M0.4650223,0.2128693 L0.4316409,0.2112065 0.4316409,0.2112065 0.4216642,0.2102154 0.4118312,0.208261 0.4022331,0.2053655 0.3930028,0.201454 0.3842942,0.1964881 0.3762001,0.1905733 0.368765,0.1838481 0.3620361,0.1764161 0.3561074,0.1683325 0.3510156,0.159695 0.3467565,0.1506203 0.3433577,0.1411871 0.3407865,0.131498 0.3389819,0.1216338 0.3378695,0.1116718 0.3374319,0.1016545 0.3374319,0.1016545 0.3381791,0.0885127 0.3400651,0.0754857 0.3433722,0.0627457 0.3478916,0.0503822 0.3536097,0.0385271 0.3606136,0.027383 0.3691048,0.0173265 0.3789065,0.0085443 0.3789065,0.0085443 0.388223,0.0025976 0.3982024,-0.0021585 0.4086342,-0.0058135 0.4192727,-0.0088214 0.4754948,-0.0230202 0.4754948,-0.0230202 0.4823568,-0.0248642 0.4889455,-0.0274957 0.4951124,-0.0310371 0.5003746,-0.0357938 0.5003746,-0.0357938 0.5053445,-0.0416473 0.509482,-0.0481206 0.5129513,-0.0549714 0.5157266,-0.0621334 0.5194597,-0.0770242 0.5206963,-0.092325 0.5206963,-0.092325 0.5203811,-0.1001903 0.5193079,-0.1079858 0.517612,-0.1156734 0.515224,-0.1231719 0.5121346,-0.1304119 0.5083261,-0.1372982 0.5037655,-0.1437139 0.4984348,-0.1495027 0.4984348,-0.1495027 0.4909437,-0.1550854 0.4822983,-0.1586646 0.4731319,-0.1604788 0.4637956,-0.1610491 0.4322954,-0.1611272 0.4322954,-0.1611272 0.4264131,-0.1612273 0.4205601,-0.1606763 0.4148732,-0.1591613 0.4094759,-0.1568313 0.4045699,-0.153589 0.4001192,-0.1497407 0.3961666,-0.1453851 0.3927352,-0.1406025 0.387296,-0.130162 0.3837163,-0.1189545 0.3819748,-0.107317 0.3814929,-0.095558 0.3814929,-0.095558 0.3806935,-0.0839533 0.3792325,-0.0783207 0.3768684,-0.0729969 0.373317,-0.0683981 0.3685375,-0.0650861 0.362992,-0.063332 0.3571993,-0.0627662 0.3571993,-0.0627662 0.3507457,-0.0635949 0.3446019,-0.0657283 0.3392312,-0.069389 0.3350775,-0.0743924 0.3322542,-0.0802502 0.3304598,-0.0865109 0.3294688,-0.0929368 0.3291185,-0.0994376 0.3291185,-0.0994376 0.3296325,-0.1101534 0.3307887,-0.1208193 0.3328092,-0.1313533 0.3355569,-0.141728 0.3393136,-0.1517704 0.3440398,-0.1614053 0.3496903,-0.1705211 0.3562753,-0.1789909 0.3636926,-0.1867404 0.371898,-0.1936503 0.3808599,-0.1995449 0.3904626,-0.2043252 0.4005473,-0.2079815 0.4109649,-0.210542 0.421581,-0.2120796 0.4322971,-0.2125922 0.4656768,-0.212038 0.4656768,-0.212038 0.4768909,-0.211257 0.4880011,-0.2095476 0.4988789,-0.2067149 0.5094104,-0.2027874 0.5193612,-0.1975574 0.5287206,-0.191335 0.5372737,-0.1840419 0.5449543,-0.1758338 0.5518052,-0.1669212 0.5576729,-0.1573362 0.5625214,-0.1471918 0.5664304,-0.1366542 0.56931,-0.1257878 0.5713263,-0.1147272 0.5725614,-0.1035557 0.5730707,-0.092325 0.5730707,-0.092325 0.5726955,-0.082267 0.5717079,-0.072253 0.5701278,-0.0623113 0.5678232,-0.052517 0.5648286,-0.0429062 0.5610619,-0.0335763 0.5565821,-0.024562 0.5513191,-0.0159855 0.5452804,-0.0079349 0.5385994,-0.0004069 0.5312081,0.0064204 0.5232371,0.0125657 0.5146613,0.0178308 0.5056634,0.0223387 0.4963148,0.026065 0.4867037,0.0290507 0.4303318,0.0431427 0.4303318,0.0431427 0.4226277,0.0454195 0.4152357,0.0485273 0.408385,0.0527464 0.402923,0.0586095 0.402923,0.0586095 0.3971182,0.0682681 0.3929397,0.0787347 0.3906547,0.0897694 0.3898063,0.1010079 0.3898063,0.1010079 0.3909182,0.1147095 0.392238,0.1214577 0.3942072,0.1280435 0.396753,0.1344334 0.4000605,0.1404557 0.4040156,0.1460832 0.4087424,0.151073 0.4087424,0.151073 0.4145444,0.1547335 0.4209228,0.157294 0.4275346,0.1591367 0.4343292,0.1601254 0.4604405,0.1606943 0.4630586,0.1606943 0.4630586,0.1606943 0.4724764,0.1599252 0.481528,0.157217 0.485773,0.1551285 0.4897148,0.1525199 0.4964215,0.1458722 0.5015858,0.1379575 0.5055404,0.1293739 0.5085246,0.1204075 0.5109049,0.1112611 0.5109049,0.1112611 0.5147845,0.0971283 0.5147845,0.0971283 0.5188464,0.0918656 0.5243358,0.0881125 0.5306966,0.0861834 0.5373231,0.0855819 0.5373231,0.0855819 0.5425731,0.0862179 0.5476824,0.0875838 0.5523645,0.0900354 0.55637,0.0934819 0.5593512,0.0978495 0.561346,0.1027437 0.5623868,0.1079298 0.5628175,0.1132009 0.5628175,0.1132009 0.5616254,0.1254327 0.5587034,0.1373825 0.5545789,0.1489617 0.5494237,0.1601254 0.5494237,0.1601254 0.542839,0.1709956 0.5350333,0.1810179 0.5260665,0.1900265 0.5160301,0.197817 0.5050659,0.2042407 0.4933579,0.2091739 0.4810036,0.2121471 0.4683218,0.2128694 0.4650223,0.2128693z" transform="matrix(1,0,0,-1,1.1504,0.4504)" fill="rgb(160,160,160)" fill-rule="nonzero" shaper:cutDepth="0.0000762" stroke-linecap="round" stroke-linejoin="round" /><path d="M0.1882524,0.053252 L0.1882524,0.053252 0.1941631,0.0531059 0.2000115,0.0522906 0.205674,0.0505834 0.2108566,0.0477579 0.215087,0.0436363 0.2177837,0.0383858 0.2191674,0.0326447 0.2194739,0.0267415 0.2194739,0.0267415 0.2192211,0.0206478 0.2176694,0.0147541 0.2145037,0.0095505 0.2098652,0.0056076 0.2043235,0.0030584 0.198408,0.0015762 0.1862461,0.0007851 0.0764276,0.0007851 0.0764276,-0.1595712 0.2335143,-0.1595712 0.2335143,-0.1595712 0.2396129,-0.1596408 0.2456647,-0.1603379 0.2515662,-0.1618848 0.2570227,-0.1645956 0.2614534,-0.1687682 0.2644562,-0.1740673 0.2658891,-0.1799893 0.2661213,-0.1860817 0.2661213,-0.1860817 0.2658413,-0.1923834 0.2640492,-0.1984256 0.2604977,-0.203631 0.2555061,-0.2074663 0.2496761,-0.2098849 0.2435256,-0.2112876 0.2309396,-0.212038 0.0567159,-0.212038 0.0567159,-0.212038 0.0495442,-0.2118933 0.0424267,-0.2110185 0.0355871,-0.2088686 0.0324561,-0.2070941 0.0297489,-0.2047377 0.0276632,-0.2018174 0.026135,-0.1985574 0.024422,-0.1916014 0.0240723,-0.1772689 0.0241089,0.1787844 0.0241089,0.1787844 0.0241073,0.1858733 0.024799,0.1929306 0.0267823,0.1997289 0.0284048,0.2028961 0.0305467,0.2057236 0.0332694,0.2079973 0.036389,0.209705 0.0431582,0.2118078 0.0501836,0.2127258 0.0572732,0.2128693 0.2328677,0.2128694 0.2328677,0.2128694 0.2387627,0.2127971 0.24461,0.2121088 0.2503022,0.2105555 0.2555092,0.2078215 0.2598252,0.2038081 0.2626162,0.1986304 0.2639514,0.1928947 0.2641815,0.1870054 0.2641815,0.1870054 0.2639406,0.180836 0.2624598,0.1748463 0.2593627,0.1695137 0.2547696,0.1654054 0.2492207,0.1626942 0.2432552,0.1611115 0.2309396,0.1604024 0.0764276,0.1604024 0.0764276,0.053252 0.1882524,0.053252z" transform="matrix(1,0,0,-1,1.1504,0.4504)" fill="rgb(160,160,160)" fill-rule="nonzero" shaper:cutDepth="0.0000762" stroke-linecap="round" stroke-linejoin="round" /><path d="M-0.1421592,0.2128694 L-0.142235,0.2128693 -0.142235,0.2128693 -0.1540382,0.2120705 -0.1656707,0.2099116 -0.1769843,0.2064543 -0.1878293,0.2017292 -0.1980887,0.1958346 -0.2077751,0.1890422 -0.2167799,0.1813685 -0.2252009,0.1730574 -0.2252009,0.1730574 -0.2392539,0.1549105 -0.2454296,0.1452311 -0.2510251,0.1351984 -0.2607194,0.1143927 -0.2686312,0.09284 -0.2748996,0.0707575 -0.2794478,0.0482533 -0.2822955,0.0254758 -0.2833024,0.0025402 -0.2833024,0.0025402 -0.2825215,-0.019167 -0.2801702,-0.0407593 -0.276395,-0.0621506 -0.2711264,-0.0832221 -0.2643517,-0.1038601 -0.2559638,-0.1238946 -0.2458948,-0.1431414 -0.2341609,-0.1614186 -0.2341609,-0.1614186 -0.2257322,-0.1720407 -0.2163499,-0.1818296 -0.2058904,-0.190457 -0.1945895,-0.1979518 -0.1824478,-0.2039855 -0.1696175,-0.2083665 -0.156329,-0.2110632 -0.1428058,-0.212038 -0.1428058,-0.212038 -0.1307304,-0.2110563 -0.1188649,-0.2086024 -0.107375,-0.2047608 -0.0964013,-0.1996236 -0.0860401,-0.1933428 -0.07639,-0.1860163 -0.0676598,-0.1776153 -0.0598565,-0.1683465 -0.0598565,-0.1683465 -0.0477844,-0.1508558 -0.0423415,-0.1417323 -0.0409055,-0.136617 -0.0406433,-0.1313056 -0.0406433,-0.1313056 -0.0422364,-0.1212722 -0.0442111,-0.116588 -0.0471492,-0.1124357 -0.0510737,-0.109205 -0.0556002,-0.1068911 -0.0605262,-0.1056205 -0.0655835,-0.1050722 -0.0655835,-0.1050722 -0.0718254,-0.1056324 -0.0778159,-0.1074052 -0.0832258,-0.1105787 -0.0872908,-0.1153254 -0.0872908,-0.1153254 -0.0973508,-0.1310712 -0.1030053,-0.1385162 -0.1092765,-0.1454415 -0.1164539,-0.1514275 -0.1245905,-0.1559987 -0.1335006,-0.1588295 -0.1428058,-0.1595712 -0.1428058,-0.1595712 -0.1549541,-0.1573734 -0.1607605,-0.155232 -0.1662982,-0.1524826 -0.1764554,-0.1454538 -0.1853343,-0.1368574 -0.1931524,-0.127287 -0.1999598,-0.116971 -0.205993,-0.106181 -0.2113518,-0.0950447 -0.2159414,-0.0835668 -0.2199106,-0.0718612 -0.2232512,-0.0599605 -0.2258863,-0.0478844 -0.229432,-0.0234238 -0.2309279,0.001247 -0.2309279,0.001247 -0.229431,0.0258564 -0.2258579,0.050251 -0.2231213,0.0622731 -0.2196869,0.0741153 -0.2157023,0.0857844 -0.2109591,0.0971642 -0.2054828,0.1082126 -0.1992651,0.118859 -0.1922914,0.1290269 -0.1844102,0.1385095 -0.1753201,0.1468314 -0.1650488,0.1536341 -0.1536482,0.1583372 -0.1476434,0.159683 -0.1415126,0.1604025 -0.1415126,0.1604025 -0.1333502,0.1597205 -0.1255174,0.1573086 -0.1182662,0.1534886 -0.1117592,0.1485129 -0.1059463,0.1427274 -0.1007165,0.1364184 -0.0917246,0.1227151 -0.0917246,0.1227151 -0.0874674,0.1160606 -0.0818413,0.1105435 -0.0784354,0.1084841 -0.0747354,0.107103 -0.0668767,0.1064578 -0.0668767,0.1064578 -0.061595,0.1069693 -0.0564715,0.1083474 -0.0518059,0.1108723 -0.0477658,0.11431 -0.0445616,0.1185389 -0.0423222,0.1233485 -0.0411032,0.1285124 -0.0406433,0.1337996 -0.0406433,0.1337996 -0.0413684,0.1412377 -0.0443084,0.1481099 -0.0528363,0.1604025 -0.0528363,0.1604025 -0.0611881,0.1710096 -0.0702573,0.1810017 -0.0801248,0.1902208 -0.0909524,0.1982711 -0.1027725,0.2047935 -0.1154549,0.2093956 -0.1286864,0.212067 -0.1421592,0.2128694z" transform="matrix(1,0,0,-1,1.1504,0.4504)" fill="rgb(160,160,160)" fill-rule="nonzero" shaper:cutDepth="0.0000762" stroke-linecap="round" stroke-linejoin="round" /><path d="M-0.4291564,0.053252 L-0.4291564,0.053252 -0.4229391,0.053188 -0.4167663,0.0525121 -0.4107307,0.0510058 -0.4051092,0.0483709 -0.4004187,0.0442999 -0.3972764,0.038951 -0.3956816,0.0329479 -0.3953486,0.0267415 -0.3953486,0.0267415 -0.3957731,0.0204321 -0.3974501,0.0143396 -0.4007853,0.0089787 -0.4057979,0.0051639 -0.4116865,0.002829 -0.4178662,0.0015311 -0.4304919,0.0007851 -0.5383949,0.0007851 -0.5383392,-0.1775836 -0.5383392,-0.1775836 -0.5391235,-0.1900182 -0.540437,-0.1961091 -0.5427984,-0.2018805 -0.5466877,-0.2067253 -0.5519864,-0.2099893 -0.5579819,-0.2116773 -0.5642031,-0.212038 -0.5642031,-0.212038 -0.5704621,-0.2115919 -0.5765336,-0.210023 -0.5818674,-0.2067285 -0.5859031,-0.2019423 -0.5884762,-0.1962173 -0.589941,-0.1901149 -0.5908061,-0.1776013 -0.590806,0.1773065 -0.590806,0.1773065 -0.5905852,0.1846689 -0.5894203,0.1919334 -0.5869479,0.1988725 -0.5827651,0.2049197 -0.5769295,0.2093942 -0.5700641,0.212043 -0.5627673,0.2130119 -0.5554048,0.2128693 -0.382509,0.2128694 -0.382509,0.2128694 -0.3710071,0.2115531 -0.3654549,0.2098537 -0.3604287,0.2069937 -0.3562373,0.2029848 -0.3533463,0.197969 -0.3517091,0.1924107 -0.3511952,0.1866359 -0.3511952,0.1866359 -0.3516017,0.1808004 -0.3531428,0.1751622 -0.3559783,0.1700543 -0.3601921,0.1660054 -0.3653334,0.1632275 -0.370926,0.161501 -0.3767024,0.1606186 -0.3825501,0.1604024 -0.5383392,0.1604024 -0.5383392,0.053252 -0.4291564,0.053252z" transform="matrix(1,0,0,-1,1.1504,0.4504)" fill="rgb(160,160,160)" fill-rule="nonzero" shaper:cutDepth="0.0000762" stroke-linecap="round" stroke-linejoin="round" /></svg>