<?xml version="1.0" encoding="utf-8"?>
<!-- Generator: Fusion 360, Shaper Origin Export Add-In, Version 1.6.10  -->
<svg xmlns="http://www.w3.org/2000/svg" xmlns:xlink="http://www.w3.org/1999/xlink" xmlns:shaper="http://www.shapertools.com/namespaces/shaper" shaper:fusionaddin="version:1.6.10" width="2.3008cm" height="0.9008cm" version="1.1" x="0cm" y="0cm" viewBox="0 0 2.3008 0.9008" enable-background="new 0 0 2.3008 0.9008" xml:space="preserve"><path d="M-1.1504,0.4504 L1.1504,0.4504 1.1504,-0.4504 -1.1504,-0.4504 -1.1504,0.4504z" transform="matrix(1,0,0,-1,1.1504,0.4504)" fill="rgb(0,0,0)" shaper:cutDepth="0.000127" stroke-linecap="round" stroke-linejoin="round" /><path d="M0.8520317,0.2187811 L0.8520317,0.2187811 0.8616465,0.2181544 0.8711381,0.2164851 0.8804149,0.2138843 0.8893983,0.2103934 0.8980566,0.2061663 0.906287,0.201152 0.9140898,0.1954986 0.9214024,0.1892223 0.9214024,0.1892223 0.9298193,0.1800405 0.9373951,0.170146 0.9440531,0.1596217 0.9498937,0.1486154 0.9548686,0.1371937 0.9591591,0.1254975 0.9627642,0.1135717 0.9657516,0.1014761 0.970335,0.0769876 0.9731487,0.0522323 0.9746578,0.0273619 0.97507,0.0024478 0.97507,0.0024478 0.9746792,-0.0213402 0.9732442,-0.0450858 0.9706542,-0.0687345 0.9664455,-0.0921469 0.960312,-0.1151306 0.9563911,-0.1263645 0.9518347,-0.1373555 0.9465942,-0.148044 0.9405994,-0.1583279 0.9337701,-0.168059 0.9263904,-0.1773988 0.9263904,-0.1773988 0.9190567,-0.1847489 0.9110956,-0.1914141 0.9024488,-0.1971616 0.8933275,-0.2021224 0.8837876,-0.2062235 0.8738613,-0.2092604 0.8636802,-0.211308 0.8533248,-0.212038 0.8533248,-0.212038 0.841807,-0.2111644 0.8305144,-0.2087065 0.8195451,-0.2050878 0.8090197,-0.2003195 0.7989645,-0.1946279 0.789427,-0.1881069 0.7806033,-0.1806476 0.7724077,-0.1725032 0.7724077,-0.1725032 0.765018,-0.1631129 0.7585698,-0.1530535 0.7530735,-0.1424429 0.7482988,-0.1314883 0.7442658,-0.1202382 0.7408326,-0.1087921 0.7355342,-0.0854871 0.7317494,-0.0618856 0.7292658,-0.0381123 0.7279831,-0.0142453 0.7275153,0.0096528 0.7275153,0.0096528 0.7280269,0.0318023 0.7294904,0.053906 0.7321704,0.0759007 0.7362566,0.0976722 0.7419334,0.1190895 0.7495222,0.1398969 0.7541562,0.1499667 0.7594126,0.1597236 0.7718535,0.1780454 0.7718535,0.1780454 0.7796946,0.1865356 0.7883532,0.1941887 0.7977415,0.200929 0.8077173,0.2067635 0.818206,0.2116168 0.8291343,0.2153723 0.8404303,0.2178165 0.8519448,0.218781 0.8520317,0.2187811z M0.9226032,0.0043876 L0.9226032,0.0043876 0.921527,0.0370714 0.9200906,0.0533587 0.9179578,0.0695727 0.9149547,0.0856442 0.9108841,0.101481 0.9055898,0.1169525 0.8986791,0.1317675 0.8986791,0.1317675 0.890036,0.1441516 0.8849694,0.1497572 0.8793666,0.1548327 0.8732561,0.1592774 0.8666283,0.1629151 0.8594895,0.1654053 0.8519928,0.166311 0.8519928,0.166311 0.8451172,0.1654416 0.8384833,0.1634238 0.8322032,0.16049 0.8262682,0.1568978 0.8206708,0.1527938 0.8155004,0.1481842 0.806585,0.1375869 0.806585,0.1375869 0.7986605,0.1226376 0.7928299,0.1067362 0.7884324,0.090391 0.7851517,0.0737793 0.7827432,0.0570211 0.781145,0.0401651 0.7799821,0.0063274 0.7799821,0.0063274 0.7811982,-0.0298791 0.7828261,-0.0479205 0.7853461,-0.0658601 0.7889181,-0.0836189 0.7938448,-0.1010488 0.8005597,-0.1178755 0.8049055,-0.1258147 0.809818,-0.1334302 0.809818,-0.1334302 0.8180731,-0.1430816 0.8276887,-0.1513706 0.8331194,-0.1546647 0.838954,-0.1571724 0.845071,-0.158895 0.8513851,-0.1595712 0.8513851,-0.1595712 0.8584448,-0.1587216 0.8652289,-0.1565806 0.8716147,-0.1534444 0.8776289,-0.1496447 0.8831837,-0.1452008 0.888251,-0.1402045 0.8927984,-0.1347358 0.8967393,-0.1288116 0.8967393,-0.1288116 0.9045475,-0.1135507 0.9104208,-0.0974286 0.9148284,-0.0808603 0.9180054,-0.0640012 0.9202035,-0.0469939 0.9216009,-0.0298961 0.9226032,0.0043876z" transform="matrix(1,0,0,-1,1.1504,0.4504)" fill="rgb(160,160,160)" fill-rule="nonzero" shaper:cutDepth="0.0000762" stroke-linecap="round" stroke-linejoin="round" /><path d="M0.6368068,-0.1654829 L0.6368068,-0.1654829 0.6445604,-0.1657171 0.6484189,-0.1661605 0.6521404,-0.167238 0.6521404,-0.167238 0.658061,-0.1706671 0.6624116,-0.1759863 0.6651627,-0.1822549 0.6661809,-0.1890376 0.6661809,-0.1890376 0.6648689,-0.1966609 0.6633375,-0.2002204 0.6611619,-0.2034452 0.6554701,-0.2086527 0.6482609,-0.2113914 0.6482609,-0.2113914 0.6409274,-0.2120113 0.633552,-0.212038 0.451695,-0.212038 0.451695,-0.212038 0.4452321,-0.2116535 0.4388571,-0.210551 0.4327496,-0.2084052 0.4273809,-0.2048037 0.423564,-0.1995918 0.4214213,-0.1934864 0.420591,-0.1870704 0.4206582,-0.1805961 0.4206583,0.184419 0.4206583,0.184419 0.4220022,0.195289 0.4237993,0.2004656 0.4265961,0.2051845 0.4306228,0.2088896 0.4355146,0.2113592 0.4408638,0.2125541 0.4463375,0.2128694 0.4463375,0.2128694 0.4518472,0.2125569 0.4572494,0.2114247 0.462169,0.2089331 0.466248,0.2052278 0.4691378,0.2005257 0.4709261,0.1953058 0.4717753,0.1898526 0.4720167,0.1843377 0.4720167,-0.1654829 0.6368068,-0.1654829z" transform="matrix(1,0,0,-1,1.1504,0.4504)" fill="rgb(160,160,160)" fill-rule="nonzero" shaper:cutDepth="0.0000762" stroke-linecap="round" stroke-linejoin="round" /><path d="M0.1520429,-0.1654829 L0.1520429,-0.1654829 0.1597965,-0.1657171 0.163655,-0.1661605 0.1673766,-0.167238 0.1673766,-0.167238 0.1732971,-0.1706671 0.1776477,-0.1759863 0.1803988,-0.1822549 0.181417,-0.1890376 0.181417,-0.1890376 0.180105,-0.1966609 0.1785736,-0.2002204 0.176398,-0.2034452 0.1707062,-0.2086527 0.163497,-0.2113914 0.163497,-0.2113914 0.1561635,-0.2120113 0.1487881,-0.212038 -0.0330689,-0.212038 -0.0330689,-0.212038 -0.0395318,-0.2116535 -0.0459068,-0.210551 -0.0520143,-0.2084052 -0.057383,-0.2048037 -0.0611999,-0.1995918 -0.0633426,-0.1934864 -0.0641729,-0.1870704 -0.0641057,-0.1805961 -0.0641056,0.184419 -0.0641056,0.184419 -0.0627617,0.195289 -0.0609646,0.2004656 -0.0581678,0.2051845 -0.0541411,0.2088896 -0.0492493,0.2113592 -0.0439001,0.2125541 -0.0384264,0.2128694 -0.0384264,0.2128694 -0.0329167,0.2125569 -0.0275144,0.2114247 -0.0225949,0.2089331 -0.0185159,0.2052278 -0.0156261,0.2005257 -0.0138378,0.1953058 -0.0129886,0.1898526 -0.0127472,0.1843377 -0.0127472,-0.1654829 0.1520429,-0.1654829z" transform="matrix(1,0,0,-1,1.1504,0.4504)" fill="rgb(160,160,160)" fill-rule="nonzero" shaper:cutDepth="0.0000762" stroke-linecap="round" stroke-linejoin="round" /><path d="M-0.2078351,0.053252 L-0.2078351,0.053252 -0.2019244,0.0531059 -0.1960761,0.0522906 -0.1904135,0.0505834 -0.185231,0.0477579 -0.1810006,0.0436363 -0.1783039,0.0383858 -0.1769202,0.0326447 -0.1766137,0.0267415 -0.1766137,0.0267415 -0.1768665,0.0206478 -0.1784182,0.0147541 -0.1815838,0.0095505 -0.1862224,0.0056076 -0.1917641,0.0030584 -0.1976796,0.0015762 -0.2098415,0.0007851 -0.31966,0.0007851 -0.31966,-0.1595712 -0.1625733,-0.1595712 -0.1625733,-0.1595712 -0.1564746,-0.1596408 -0.1504228,-0.1603379 -0.1445214,-0.1618848 -0.1390649,-0.1645956 -0.1346342,-0.1687682 -0.1316313,-0.1740673 -0.1301984,-0.1799893 -0.1299662,-0.1860817 -0.1299662,-0.1860817 -0.1302462,-0.1923834 -0.1320384,-0.1984256 -0.1355899,-0.203631 -0.1405815,-0.2074663 -0.1464114,-0.2098849 -0.1525619,-0.2112876 -0.1651479,-0.212038 -0.3393717,-0.212038 -0.3393717,-0.212038 -0.3465434,-0.2118933 -0.3536609,-0.2110185 -0.3605005,-0.2088686 -0.3636314,-0.2070941 -0.3663386,-0.2047377 -0.3684244,-0.2018174 -0.3699525,-0.1985574 -0.3716656,-0.1916014 -0.3720153,-0.1772689 -0.3719787,0.1787844 -0.3719787,0.1787844 -0.3719803,0.1858733 -0.3712886,0.1929306 -0.3693052,0.1997289 -0.3676828,0.2028961 -0.3655408,0.2057236 -0.3628181,0.2079973 -0.3596985,0.209705 -0.3529294,0.2118078 -0.3459039,0.2127258 -0.3388144,0.2128693 -0.1632199,0.2128694 -0.1632199,0.2128694 -0.1573248,0.2127971 -0.1514776,0.2121088 -0.1457853,0.2105555 -0.1405784,0.2078215 -0.1362624,0.2038081 -0.1334714,0.1986304 -0.1321362,0.1928947 -0.131906,0.1870054 -0.131906,0.1870054 -0.1321469,0.180836 -0.1336278,0.1748463 -0.1367248,0.1695137 -0.1413179,0.1654054 -0.1468669,0.1626942 -0.1528324,0.1611115 -0.1651479,0.1604024 -0.31966,0.1604024 -0.31966,0.053252 -0.2078351,0.053252z" transform="matrix(1,0,0,-1,1.1504,0.4504)" fill="rgb(160,160,160)" fill-rule="nonzero" shaper:cutDepth="0.0000762" stroke-linecap="round" stroke-linejoin="round" /><path d="M-0.6329272,-0.0547299 L-0.632983,0.1812135 -0.632983,0.1812135 -0.6337441,0.1929747 -0.6352424,0.1986856 -0.6378488,0.203974 -0.6417959,0.20835 -0.6468839,0.2113227 -0.6526161,0.2127067 -0.6585141,0.2128694 -0.6585141,0.2128694 -0.6643439,0.2126397 -0.6700555,0.2114569 -0.6752521,0.2088147 -0.6794497,0.2047759 -0.6823743,0.1997259 -0.6841596,0.1941763 -0.6853017,0.1825716 -0.6853383,-0.0560498 -0.6853383,-0.0560498 -0.6850731,-0.0723258 -0.6839772,-0.0885632 -0.6813016,-0.1046185 -0.6769883,-0.1203134 -0.6769883,-0.1203134 -0.6695384,-0.1384999 -0.6599006,-0.1556252 -0.6542651,-0.1636759 -0.6481135,-0.1713451 -0.6413761,-0.1784992 -0.6340879,-0.1850955 -0.6263393,-0.1911439 -0.6180855,-0.1964788 -0.6094188,-0.2011159 -0.6004038,-0.2050345 -0.5910332,-0.2079956 -0.581451,-0.2101878 -0.5717068,-0.2114741 -0.5618938,-0.212038 -0.5618938,-0.212038 -0.5481618,-0.2110865 -0.5346104,-0.2086715 -0.5214484,-0.2046501 -0.508892,-0.1990096 -0.4971311,-0.1918638 -0.4863594,-0.1832928 -0.4766923,-0.1734974 -0.4681248,-0.1627214 -0.4606464,-0.1511663 -0.4543089,-0.138946 -0.4491056,-0.1262032 -0.4449512,-0.113077 -0.4418707,-0.0996641 -0.4397242,-0.0860623 -0.4383801,-0.0723661 -0.4378393,-0.0586095 -0.4378952,0.1779985 -0.4378952,0.1779985 -0.4385173,0.1907063 -0.4397672,0.1969545 -0.4420453,0.2029005 -0.4438103,0.2055526 -0.4460579,0.2078105 -0.4515219,0.2110694 -0.4577158,0.2125235 -0.4640727,0.2128694 -0.4640727,0.2128694 -0.4703961,0.2125306 -0.4765301,0.210974 -0.4819398,0.2077025 -0.4858866,0.2027716 -0.4882152,0.1968845 -0.4895058,0.1906806 -0.4902138,0.1780454 -0.4902505,-0.0528349 -0.4902505,-0.0528349 -0.4908415,-0.0757495 -0.4920115,-0.0871495 -0.4940934,-0.0984215 -0.4940934,-0.0984215 -0.4980888,-0.1100198 -0.5032489,-0.1211442 -0.5098384,-0.1314914 -0.5178521,-0.1407747 -0.5272836,-0.1486157 -0.5380085,-0.1545538 -0.5437625,-0.1567139 -0.5497035,-0.1582479 -0.5618938,-0.1595712 -0.5618938,-0.1595712 -0.5726988,-0.1585541 -0.5831342,-0.1555685 -0.5928121,-0.1506602 -0.6014675,-0.1441135 -0.6090006,-0.1362949 -0.6154256,-0.1275483 -0.6206578,-0.118036 -0.6250757,-0.1081205 -0.6250757,-0.1081205 -0.6294996,-0.0952657 -0.6309993,-0.0886291 -0.6318899,-0.0818897 -0.6327861,-0.0683266 -0.6329272,-0.0547299z" transform="matrix(1,0,0,-1,1.1504,0.4504)" fill="rgb(160,160,160)" fill-rule="nonzero" shaper:cutDepth="0.0000762" stroke-linecap="round" stroke-linejoin="round" /><path d="M-0.8311558,0.053252 L-0.8311558,0.053252 -0.8249384,0.053188 -0.8187656,0.0525121 -0.81273,0.0510058 -0.8071085,0.0483709 -0.802418,0.0442999 -0.7992757,0.038951 -0.7976809,0.0329479 -0.7973479,0.0267415 -0.7973479,0.0267415 -0.7977724,0.0204321 -0.7994495,0.0143396 -0.8027846,0.0089787 -0.8077972,0.0051639 -0.8136858,0.002829 -0.8198655,0.0015311 -0.8324912,0.0007851 -0.9403942,0.0007851 -0.9403385,-0.1775836 -0.9403385,-0.1775836 -0.9411228,-0.1900182 -0.9424363,-0.1961091 -0.9447977,-0.2018805 -0.948687,-0.2067253 -0.9539857,-0.2099893 -0.9599812,-0.2116773 -0.9662024,-0.212038 -0.9662024,-0.212038 -0.9724614,-0.2115919 -0.9785329,-0.210023 -0.9838667,-0.2067285 -0.9879025,-0.2019423 -0.9904755,-0.1962173 -0.9919404,-0.1901149 -0.9928054,-0.1776013 -0.9928053,0.1773065 -0.9928053,0.1773065 -0.9925845,0.1846689 -0.9914196,0.1919334 -0.9889473,0.1988725 -0.9847645,0.2049197 -0.9789288,0.2093942 -0.9720634,0.212043 -0.9647666,0.2130119 -0.9574042,0.2128693 -0.7845083,0.2128694 -0.7845083,0.2128694 -0.7730064,0.2115531 -0.7674542,0.2098537 -0.762428,0.2069937 -0.7582367,0.2029848 -0.7553456,0.197969 -0.7537085,0.1924107 -0.7531945,0.1866359 -0.7531945,0.1866359 -0.753601,0.1808004 -0.7551421,0.1751622 -0.7579776,0.1700543 -0.7621914,0.1660054 -0.7673328,0.1632275 -0.7729253,0.161501 -0.7787018,0.1606186 -0.7845495,0.1604024 -0.9403385,0.1604024 -0.9403385,0.053252 -0.8311558,0.053252z" transform="matrix(1,0,0,-1,1.1504,0.4504)" fill="rgb(160,160,160)" fill-rule="nonzero" shaper:cutDepth="0.0000762" stroke-linecap="round" stroke-linejoin="round" /></svg>