<?xml version="1.0" encoding="utf-8"?>
<!-- Generator: Fusion 360, Shaper Origin Export Add-In, Version 1.6.10  -->
<svg xmlns="http://www.w3.org/2000/svg" xmlns:xlink="http://www.w3.org/1999/xlink" xmlns:shaper="http://www.shapertools.com/namespaces/shaper" shaper:fusionaddin="version:1.6.10" width="2.3008cm" height="0.9008cm" version="1.1" x="0cm" y="0cm" viewBox="0 0 2.3008 0.9008" enable-background="new 0 0 2.3008 0.9008" xml:space="preserve"><path d="M-1.1504,0.4504 L1.1504,0.4504 1.1504,-0.4504 -1.1504,-0.4504 -1.1504,0.4504z" transform="matrix(1,0,0,-1,1.1504,0.4504)" fill="rgb(0,0,0)" shaper:cutDepth="0.000127" stroke-linecap="round" stroke-linejoin="round" /><path d="M0.8001191,0.053252 L0.8001191,0.053252 0.8060297,0.0531059 0.8118781,0.0522906 0.8175406,0.0505834 0.8227232,0.0477579 0.8269536,0.0436363 0.8296503,0.0383858 0.831034,0.0326447 0.8313405,0.0267415 0.8313405,0.0267415 0.8310877,0.0206478 0.829536,0.0147541 0.8263703,0.0095505 0.8217318,0.0056076 0.8161901,0.0030584 0.8102746,0.0015762 0.7981127,0.0007851 0.6882942,0.0007851 0.6882942,-0.1595712 0.8453809,-0.1595712 0.8453809,-0.1595712 0.8514796,-0.1596408 0.8575314,-0.1603379 0.8634328,-0.1618848 0.8688893,-0.1645956 0.87332,-0.1687682 0.8763229,-0.1740673 0.8777558,-0.1799893 0.8779879,-0.1860817 0.8779879,-0.1860817 0.877708,-0.1923834 0.8759158,-0.1984256 0.8723643,-0.203631 0.8673727,-0.2074663 0.8615427,-0.2098849 0.8553922,-0.2112876 0.8428063,-0.212038 0.6685825,-0.212038 0.6685825,-0.212038 0.6614108,-0.2118933 0.6542933,-0.2110185 0.6474537,-0.2088686 0.6443227,-0.2070941 0.6416155,-0.2047377 0.6395298,-0.2018174 0.6380017,-0.1985574 0.6362886,-0.1916014 0.6359389,-0.1772689 0.6359755,0.1787844 0.6359755,0.1787844 0.6359739,0.1858733 0.6366656,0.1929306 0.6386489,0.1997289 0.6402714,0.2028961 0.6424133,0.2057236 0.645136,0.2079973 0.6482556,0.209705 0.6550248,0.2118078 0.6620502,0.2127258 0.6691398,0.2128693 0.8447343,0.2128694 0.8447343,0.2128694 0.8506294,0.2127971 0.8564766,0.2121088 0.8621689,0.2105555 0.8673758,0.2078215 0.8716918,0.2038081 0.8744828,0.1986304 0.875818,0.1928947 0.8760482,0.1870054 0.8760482,0.1870054 0.8758073,0.180836 0.8743264,0.1748463 0.8712293,0.1695137 0.8666363,0.1654054 0.8610873,0.1626942 0.8551218,0.1611115 0.8428063,0.1604024 0.6882942,0.1604024 0.6882942,0.053252 0.8001191,0.053252z" transform="matrix(1,0,0,-1,1.1504,0.4504)" fill="rgb(160,160,160)" fill-rule="nonzero" shaper:cutDepth="0.0000762" stroke-linecap="round" stroke-linejoin="round" /><path d="M0.5695606,-0.1828487 L0.5695606,-0.1828487 0.5694113,-0.1884393 0.5685909,-0.193961 0.5669631,-0.1993157 0.5642544,-0.2041937 0.5602961,-0.2081356 0.5552908,-0.2106067 0.5498363,-0.21181 0.5442509,-0.212038 0.5442509,-0.212038 0.5381876,-0.2115182 0.5323115,-0.2099409 0.526963,-0.2070398 0.5222666,-0.2031704 0.5222666,-0.2031704 0.5195155,-0.1986943 0.5185622,-0.1934843 0.5182022,-0.1829119 0.5182023,0.1824792 0.5182023,0.1824792 0.5183479,0.1882924 0.5191359,0.1940424 0.5207239,0.1996443 0.5235068,0.2047292 0.5275982,0.2088565 0.532762,0.2115036 0.5384406,0.2127238 0.5442509,0.2128694 0.5442509,0.2128694 0.5497591,0.2126494 0.5551433,0.2114878 0.5601074,0.209103 0.5641142,0.2053268 0.5668856,0.2005706 0.5685709,0.1953176 0.5694103,0.1898764 0.5695606,0.1843636 0.5695606,-0.1828487z" transform="matrix(1,0,0,-1,1.1504,0.4504)" fill="rgb(160,160,160)" fill-rule="nonzero" shaper:cutDepth="0.0000762" stroke-linecap="round" stroke-linejoin="round" /><path d="M0.3513799,-0.1796157 L0.3513799,-0.1796157 0.3513187,-0.1856456 0.3506538,-0.1916295 0.3491687,-0.1974791 0.3465513,-0.2028963 0.3425923,-0.2074405 0.3373961,-0.2104681 0.3315413,-0.2118822 0.325516,-0.212038 0.325516,-0.212038 0.3195585,-0.211477 0.3137859,-0.2099152 0.3085141,-0.2070867 0.3039935,-0.2031704 0.3039935,-0.2031704 0.3019553,-0.2003412 0.3005148,-0.1972017 0.2992735,-0.1903622 0.298913,-0.1764753 0.298913,0.1604024 0.2350846,0.1604025 0.2350846,0.1604025 0.2291074,0.160709 0.2231998,0.1616275 0.2174874,0.1634291 0.2123347,0.1664479 0.2080823,0.1706569 0.2052199,0.1759032 0.2037067,0.1816884 0.2032166,0.187652 0.2032166,0.187652 0.2036917,0.1937396 0.2055025,0.1995627 0.2090314,0.2045473 0.213867,0.2082441 0.2195179,0.2105765 0.2254482,0.2120378 0.237619,0.2128693 0.4159474,0.2128694 0.4159474,0.2128694 0.4218436,0.2125573 0.4276667,0.2116101 0.4332758,0.209762 0.4383492,0.2067559 0.4424501,0.2025172 0.4452232,0.1973109 0.4466902,0.1915963 0.4471688,0.1857122 0.4471688,0.1857122 0.4466255,0.1798646 0.4449236,0.1742487 0.4417028,0.1693393 0.4372572,0.1655214 0.4319477,0.1630039 0.4262772,0.1614746 0.4145894,0.1604024 0.3513799,0.1604024 0.3513799,-0.1796157z" transform="matrix(1,0,0,-1,1.1504,0.4504)" fill="rgb(160,160,160)" fill-rule="nonzero" shaper:cutDepth="0.0000762" stroke-linecap="round" stroke-linejoin="round" /><path d="M-0.0911703,0.1788768 L-0.0912071,-0.0787168 -0.2305817,0.1966373 -0.2305817,0.1966373 -0.2347668,0.2035425 -0.2374518,0.2065486 -0.2406164,0.2090835 -0.2441732,0.2110513 -0.248005,0.2123126 -0.2560529,0.2128694 -0.2560529,0.2128694 -0.2610117,0.2125337 -0.2657982,0.2112069 -0.2701943,0.2088913 -0.2739729,0.2056644 -0.2739729,0.2056644 -0.2764111,0.2032258 -0.2783079,0.2003772 -0.2794043,0.1971056 -0.2798796,0.1937052 -0.2803465,0.1799852 -0.2803831,-0.1777928 -0.2803831,-0.1777928 -0.2795955,-0.1901647 -0.2783542,-0.1962341 -0.2760478,-0.2019935 -0.2722119,-0.2068386 -0.266923,-0.2100519 -0.2609494,-0.2116952 -0.2547597,-0.212038 -0.2547597,-0.212038 -0.2489962,-0.2116358 -0.2433876,-0.2102574 -0.2383049,-0.2075193 -0.234123,-0.2035416 -0.2311514,-0.1985915 -0.2293247,-0.1931088 -0.227972,-0.1816479 -0.2280278,0.0801908 -0.0892916,-0.1970934 -0.0892916,-0.1970934 -0.0849035,-0.2033837 -0.0822226,-0.2061359 -0.0791356,-0.2084313 -0.0756914,-0.2101496 -0.0720119,-0.211255 -0.0643827,-0.212038 -0.0643827,-0.212038 -0.0587838,-0.2117128 -0.053358,-0.2103065 -0.0484474,-0.2076079 -0.0444823,-0.2036519 -0.041738,-0.1987653 -0.0400164,-0.193425 -0.0391008,-0.1878962 -0.0387959,-0.1822945 -0.0388517,0.1811969 -0.0388517,0.1811969 -0.0396588,0.1931098 -0.0411098,0.1989106 -0.0437564,0.2042621 -0.0479217,0.2085296 -0.0532345,0.2112492 -0.059061,0.2125613 -0.0650293,0.2128694 -0.0650293,0.2128694 -0.0712852,0.2126309 -0.0773567,0.2111232 -0.0828119,0.2080874 -0.0868115,0.2032837 -0.0891779,0.197498 -0.0904616,0.1913638 -0.0911703,0.1788768z" transform="matrix(1,0,0,-1,1.1504,0.4504)" fill="rgb(160,160,160)" fill-rule="nonzero" shaper:cutDepth="0.0000762" stroke-linecap="round" stroke-linejoin="round" /><path d="M-0.4236142,0.053252 L-0.4236142,0.053252 -0.4177035,0.0531059 -0.4118551,0.0522906 -0.4061926,0.0505834 -0.40101,0.0477579 -0.3967796,0.0436363 -0.3940829,0.0383858 -0.3926992,0.0326447 -0.3923927,0.0267415 -0.3923927,0.0267415 -0.3926455,0.0206478 -0.3941972,0.0147541 -0.3973629,0.0095505 -0.4020014,0.0056076 -0.4075431,0.0030584 -0.4134587,0.0015762 -0.4256205,0.0007851 -0.535439,0.0007851 -0.535439,-0.1595712 -0.3783523,-0.1595712 -0.3783523,-0.1595712 -0.3722537,-0.1596408 -0.3662019,-0.1603379 -0.3603004,-0.1618848 -0.3548439,-0.1645956 -0.3504133,-0.1687682 -0.3474104,-0.1740673 -0.3459775,-0.1799893 -0.3457453,-0.1860817 -0.3457453,-0.1860817 -0.3460253,-0.1923834 -0.3478174,-0.1984256 -0.3513689,-0.203631 -0.3563605,-0.2074663 -0.3621905,-0.2098849 -0.368341,-0.2112876 -0.380927,-0.212038 -0.5551507,-0.212038 -0.5551507,-0.212038 -0.5623225,-0.2118933 -0.5694399,-0.2110185 -0.5762795,-0.2088686 -0.5794105,-0.2070941 -0.5821177,-0.2047377 -0.5842034,-0.2018174 -0.5857316,-0.1985574 -0.5874447,-0.1916014 -0.5877944,-0.1772689 -0.5877577,0.1787844 -0.5877577,0.1787844 -0.5877593,0.1858733 -0.5870676,0.1929306 -0.5850843,0.1997289 -0.5834619,0.2028961 -0.5813199,0.2057236 -0.5785972,0.2079973 -0.5754776,0.209705 -0.5687084,0.2118078 -0.561683,0.2127258 -0.5545934,0.2128693 -0.3789989,0.2128694 -0.3789989,0.2128694 -0.3731039,0.2127971 -0.3672566,0.2121088 -0.3615644,0.2105555 -0.3563574,0.2078215 -0.3520414,0.2038081 -0.3492504,0.1986304 -0.3479152,0.1928947 -0.3476851,0.1870054 -0.3476851,0.1870054 -0.347926,0.180836 -0.3494069,0.1748463 -0.3525039,0.1695137 -0.357097,0.1654054 -0.3626459,0.1626942 -0.3686114,0.1611115 -0.380927,0.1604024 -0.535439,0.1604024 -0.535439,0.053252 -0.4236142,0.053252z" transform="matrix(1,0,0,-1,1.1504,0.4504)" fill="rgb(160,160,160)" fill-rule="nonzero" shaper:cutDepth="0.0000762" stroke-linecap="round" stroke-linejoin="round" /><path d="M-0.7377685,-0.0228619 L-0.7060295,-0.022862 -0.7060295,-0.0892788 -0.7060295,-0.0892788 -0.7065609,-0.1013589 -0.7079931,-0.1133576 -0.7107833,-0.1251282 -0.7153635,-0.1363071 -0.7185028,-0.1414828 -0.7222569,-0.1462399 -0.7266647,-0.1503768 -0.7316924,-0.1537483 -0.7371717,-0.1563496 -0.7429512,-0.1581372 -0.7549496,-0.1595712 -0.7549496,-0.1595712 -0.7649843,-0.1583954 -0.7746242,-0.1553754 -0.7834698,-0.1504974 -0.7912514,-0.1440528 -0.7912514,-0.1440528 -0.8037422,-0.1287817 -0.8093415,-0.1206543 -0.814407,-0.112183 -0.8230937,-0.094467 -0.830192,-0.0760579 -0.8357231,-0.057118 -0.8396765,-0.0377864 -0.8419709,-0.0181902 -0.8427945,0.0015241 -0.8427945,0.0015241 -0.8413333,0.0259435 -0.8376524,0.05013 -0.8349357,0.0620599 -0.8316074,0.0738335 -0.8276434,0.0854086 -0.8229958,0.0967265 -0.8176768,0.1077451 -0.8116656,0.1184012 -0.8048917,0.1285903 -0.7971461,0.1380591 -0.788296,0.1465022 -0.7834294,0.1502192 -0.7782289,0.1534349 -0.7669701,0.1582332 -0.7610268,0.1596307 -0.7549496,0.1604025 -0.7549496,0.1604025 -0.746056,0.1596029 -0.7376091,0.1566759 -0.7300378,0.1519399 -0.7234566,0.1458894 -0.7123372,0.1318962 -0.7027598,0.1168033 -0.7027598,0.1168033 -0.6987071,0.1105819 -0.6937122,0.105093 -0.6906423,0.1029826 -0.6872112,0.1015269 -0.6798518,0.100546 -0.6798518,0.100546 -0.6743141,0.1011743 -0.6689935,0.1028274 -0.6642341,0.1057258 -0.6601903,0.1095575 -0.6570206,0.1141425 -0.6547321,0.1192238 -0.6534296,0.1246413 -0.6529718,0.1301972 -0.6529718,0.1301972 -0.6534247,0.1353629 -0.6546186,0.1403749 -0.6590546,0.1497291 -0.6647249,0.1583809 -0.6708918,0.1666838 -0.6708918,0.1666838 -0.6791324,0.1760926 -0.6879233,0.1849902 -0.6975058,0.1930255 -0.7078568,0.2000494 -0.7190095,0.2057023 -0.7308315,0.20978 -0.7431111,0.2121497 -0.7555962,0.2128694 -0.7555962,0.2128694 -0.7644977,0.2123964 -0.7733276,0.2111729 -0.7820033,0.209125 -0.7904673,0.2063277 -0.7987127,0.2029391 -0.8066247,0.1988336 -0.8141577,0.1940665 -0.8211797,0.1885757 -0.8211797,0.1885757 -0.8304073,0.1793974 -0.8389851,0.1696086 -0.8468721,0.1592549 -0.8541197,0.1484451 -0.8607089,0.1372198 -0.8666356,0.1256335 -0.8767714,0.1016624 -0.8846808,0.0768587 -0.8904837,0.0514824 -0.8925188,0.0386201 -0.8939125,0.0256786 -0.895169,-0.0003233 -0.895169,-0.0003233 -0.8944556,-0.0201408 -0.8925084,-0.039875 -0.8892106,-0.0594294 -0.8846148,-0.0787194 -0.8788158,-0.0976835 -0.8716467,-0.1161715 -0.8630348,-0.1340345 -0.8530477,-0.1511654 -0.8530477,-0.1511654 -0.8444851,-0.1633417 -0.835051,-0.1748512 -0.8245225,-0.1853762 -0.8128508,-0.1946071 -0.8000612,-0.2022245 -0.7932706,-0.2052683 -0.7862498,-0.2077501 -0.7790564,-0.2097047 -0.7717378,-0.2110647 -0.7568893,-0.212038 -0.7568893,-0.212038 -0.7434003,-0.2110652 -0.7301768,-0.2082216 -0.7174267,-0.2037138 -0.7053449,-0.1976333 -0.6941379,-0.1900625 -0.6839572,-0.1811566 -0.6749007,-0.1711134 -0.6670122,-0.1601254 -0.6670122,-0.1601254 -0.6603421,-0.1476384 -0.6578337,-0.1410108 -0.6560169,-0.1341621 -0.654075,-0.1201467 -0.6536184,-0.1059959 -0.6536742,-0.0059981 -0.6536742,-0.0059981 -0.6536148,0.0012733 -0.654305,0.0085046 -0.6560882,0.0155524 -0.6575891,0.018874 -0.6596664,0.0218634 -0.6623702,0.0242926 -0.6655076,0.0261581 -0.6723924,0.0284623 -0.6796079,0.0293699 -0.686872,0.029605 -0.7359343,0.029605 -0.7359343,0.029605 -0.7469429,0.0293084 -0.7524048,0.0285248 -0.7575359,0.0265567 -0.7575359,0.0265567 -0.7632106,0.0222754 -0.7673637,0.0164812 -0.7699956,0.0098763 -0.7709298,0.0028173 -0.7709298,0.0028173 -0.7698986,-0.0040871 -0.767364,-0.0105791 -0.7631546,-0.0161446 -0.7575359,-0.0202755 -0.7575359,-0.0202755 -0.7527452,-0.0217541 -0.7477922,-0.0225488 -0.7377685,-0.0228619z" transform="matrix(1,0,0,-1,1.1504,0.4504)" fill="rgb(160,160,160)" fill-rule="nonzero" shaper:cutDepth="0.0000762" stroke-linecap="round" stroke-linejoin="round" /></svg>