<?xml version="1.0" encoding="utf-8"?>
<!-- Generator: Fusion 360, Shaper Origin Export Add-In, Version 1.6.10  -->
<svg xmlns="http://www.w3.org/2000/svg" xmlns:xlink="http://www.w3.org/1999/xlink" xmlns:shaper="http://www.shapertools.com/namespaces/shaper" shaper:fusionaddin="version:1.6.10" width="2.3008cm" height="0.9008cm" version="1.1" x="0cm" y="0cm" viewBox="0 0 2.3008 0.9008" enable-background="new 0 0 2.3008 0.9008" xml:space="preserve"><path d="M-1.1504,0.4504 L1.1504,0.4504 1.1504,-0.4504 -1.1504,-0.4504 -1.1504,0.4504z" transform="matrix(1,0,0,-1,1.1504,0.4504)" fill="rgb(0,0,0)" shaper:cutDepth="0.000127" stroke-linecap="round" stroke-linejoin="round" /><path d="M0.8893496,-0.1796157 L0.8893496,-0.1796157 0.8892884,-0.1856456 0.8886235,-0.1916295 0.8871384,-0.1974791 0.8845209,-0.2028963 0.880562,-0.2074405 0.8753658,-0.2104681 0.869511,-0.2118822 0.8634857,-0.212038 0.8634857,-0.212038 0.8575282,-0.211477 0.8517556,-0.2099152 0.8464838,-0.2070867 0.8419632,-0.2031704 0.8419632,-0.2031704 0.839925,-0.2003412 0.8384845,-0.1972017 0.8372432,-0.1903622 0.8368827,-0.1764753 0.8368827,0.1604024 0.7730543,0.1604025 0.7730543,0.1604025 0.7670771,0.160709 0.7611694,0.1616275 0.7554571,0.1634291 0.7503044,0.1664479 0.746052,0.1706569 0.7431896,0.1759032 0.7416764,0.1816884 0.7411862,0.187652 0.7411862,0.187652 0.7416614,0.1937396 0.7434721,0.1995627 0.7470011,0.2045473 0.7518367,0.2082441 0.7574876,0.2105765 0.7634179,0.2120378 0.7755886,0.2128693 0.953917,0.2128694 0.953917,0.2128694 0.9598133,0.2125573 0.9656363,0.2116101 0.9712455,0.209762 0.9763189,0.2067559 0.9804198,0.2025172 0.9831929,0.1973109 0.9846599,0.1915963 0.9851385,0.1857122 0.9851385,0.1857122 0.9845952,0.1798646 0.9828933,0.1742487 0.9796725,0.1693393 0.9752268,0.1655214 0.9699173,0.1630039 0.9642469,0.1614746 0.9525591,0.1604024 0.8893496,0.1604024 0.8893496,-0.1796157z" transform="matrix(1,0,0,-1,1.1504,0.4504)" fill="rgb(160,160,160)" fill-rule="nonzero" shaper:cutDepth="0.0000762" stroke-linecap="round" stroke-linejoin="round" /><path d="M0.4620642,-0.141097 L0.4455061,-0.1958731 0.4455061,-0.1958731 0.4418694,-0.2029971 0.4392059,-0.2059818 0.4359793,-0.2083974 0.4323738,-0.2101751 0.4285353,-0.2112899 0.4205659,-0.212038 0.4205659,-0.212038 0.4109002,-0.2105106 0.4064042,-0.2085613 0.402314,-0.2058619 0.3987418,-0.2025017 0.3960595,-0.1984056 0.394347,-0.1938128 0.3937783,-0.1889452 0.3937783,-0.1889452 0.3943773,-0.1833206 0.3957495,-0.1778228 0.3988547,-0.1669286 0.5074872,0.1946722 0.5074872,0.1946722 0.508893,0.1987171 0.5108727,0.2025112 0.5134745,0.2059116 0.5166796,0.2087475 0.5203822,0.2108912 0.5244709,0.2121675 0.5286991,0.212818 0.5329816,0.2128694 0.5329816,0.2128694 0.5380084,0.2127074 0.542947,0.2117642 0.5475473,0.2097428 0.5514972,0.2066331 0.5545446,0.2026455 0.5569202,0.1982018 0.5603901,0.1887769 0.6702452,-0.1713023 0.6702452,-0.1713023 0.6724787,-0.1793648 0.6734782,-0.187652 0.6734782,-0.187652 0.6729661,-0.192697 0.6714477,-0.197532 0.6688852,-0.2019043 0.6653884,-0.2055763 0.6612484,-0.2084968 0.6565877,-0.2104999 0.6516561,-0.2116614 0.6465982,-0.212038 0.6465982,-0.212038 0.6379097,-0.2112094 0.6338054,-0.2097053 0.6300944,-0.2073953 0.6269166,-0.204398 0.6244232,-0.2008021 0.6224494,-0.1969053 0.6210456,-0.1927623 0.6050836,-0.141097 0.4620642,-0.141097z M0.5884832,-0.0886301 L0.5335739,0.0952251 0.4786647,-0.0886301 0.5884832,-0.0886301z" transform="matrix(1,0,0,-1,1.1504,0.4504)" fill="rgb(160,160,160)" fill-rule="nonzero" shaper:cutDepth="0.0000762" stroke-linecap="round" stroke-linejoin="round" /><path d="M0.2503259,0.053252 L0.2503259,0.053252 0.2562365,0.0531059 0.2620849,0.0522906 0.2677475,0.0505834 0.27293,0.0477579 0.2771604,0.0436363 0.2798571,0.0383858 0.2812408,0.0326447 0.2815473,0.0267415 0.2815473,0.0267415 0.2812945,0.0206478 0.2797428,0.0147541 0.2765772,0.0095505 0.2719386,0.0056076 0.2663969,0.0030584 0.2604814,0.0015762 0.2483195,0.0007851 0.138501,0.0007851 0.138501,-0.1595712 0.2955877,-0.1595712 0.2955877,-0.1595712 0.3016864,-0.1596408 0.3077382,-0.1603379 0.3136396,-0.1618848 0.3190961,-0.1645956 0.3235268,-0.1687682 0.3265297,-0.1740673 0.3279626,-0.1799893 0.3281948,-0.1860817 0.3281948,-0.1860817 0.3279148,-0.1923834 0.3261226,-0.1984256 0.3225711,-0.203631 0.3175795,-0.2074663 0.3117496,-0.2098849 0.3055991,-0.2112876 0.2930131,-0.212038 0.1187893,-0.212038 0.1187893,-0.212038 0.1116176,-0.2118933 0.1045001,-0.2110185 0.0976605,-0.2088686 0.0945296,-0.2070941 0.0918223,-0.2047377 0.0897366,-0.2018174 0.0882085,-0.1985574 0.0864954,-0.1916014 0.0861457,-0.1772689 0.0861823,0.1787844 0.0861823,0.1787844 0.0861807,0.1858733 0.0868724,0.1929306 0.0888558,0.1997289 0.0904782,0.2028961 0.0926202,0.2057236 0.0953428,0.2079973 0.0984625,0.209705 0.1052316,0.2118078 0.1122571,0.2127258 0.1193466,0.2128693 0.2949411,0.2128694 0.2949411,0.2128694 0.3008362,0.2127971 0.3066834,0.2121088 0.3123757,0.2105555 0.3175826,0.2078215 0.3218986,0.2038081 0.3246896,0.1986304 0.3260248,0.1928947 0.326255,0.1870054 0.326255,0.1870054 0.3260141,0.180836 0.3245332,0.1748463 0.3214361,0.1695137 0.3168431,0.1654054 0.3112941,0.1626942 0.3053286,0.1611115 0.2930131,0.1604024 0.138501,0.1604024 0.138501,0.053252 0.2503259,0.053252z" transform="matrix(1,0,0,-1,1.1504,0.4504)" fill="rgb(160,160,160)" fill-rule="nonzero" shaper:cutDepth="0.0000762" stroke-linecap="round" stroke-linejoin="round" /><path d="M-0.0877268,0.2128693 L-0.1211082,0.2112065 -0.1211082,0.2112065 -0.1310849,0.2102154 -0.1409179,0.208261 -0.1505159,0.2053655 -0.1597463,0.201454 -0.1684549,0.1964881 -0.176549,0.1905733 -0.1839841,0.1838481 -0.190713,0.1764161 -0.1966417,0.1683325 -0.2017334,0.159695 -0.2059925,0.1506203 -0.2093914,0.1411871 -0.2119626,0.131498 -0.2137672,0.1216338 -0.2148796,0.1116718 -0.2153172,0.1016545 -0.2153172,0.1016545 -0.21457,0.0885127 -0.2126839,0.0754857 -0.2093769,0.0627457 -0.2048574,0.0503822 -0.1991394,0.0385271 -0.1921355,0.027383 -0.1836443,0.0173265 -0.1738425,0.0085443 -0.1738425,0.0085443 -0.1645261,0.0025976 -0.1545467,-0.0021585 -0.1441149,-0.0058135 -0.1334763,-0.0088214 -0.0772542,-0.0230202 -0.0772542,-0.0230202 -0.0703923,-0.0248642 -0.0638036,-0.0274957 -0.0576367,-0.0310371 -0.0523745,-0.0357938 -0.0523745,-0.0357938 -0.0474045,-0.0416473 -0.043267,-0.0481206 -0.0397978,-0.0549714 -0.0370225,-0.0621334 -0.0332893,-0.0770242 -0.0320528,-0.092325 -0.0320528,-0.092325 -0.032368,-0.1001903 -0.0334411,-0.1079858 -0.035137,-0.1156734 -0.037525,-0.1231719 -0.0406145,-0.1304119 -0.044423,-0.1372982 -0.0489836,-0.1437139 -0.0543142,-0.1495027 -0.0543142,-0.1495027 -0.0618053,-0.1550854 -0.0704507,-0.1586646 -0.0796172,-0.1604788 -0.0889534,-0.1610491 -0.1204536,-0.1611272 -0.1204536,-0.1611272 -0.1263359,-0.1612273 -0.132189,-0.1606763 -0.1378758,-0.1591613 -0.1432731,-0.1568313 -0.1481791,-0.153589 -0.1526299,-0.1497407 -0.1565825,-0.1453851 -0.1600139,-0.1406025 -0.1654531,-0.130162 -0.1690327,-0.1189545 -0.1707742,-0.107317 -0.1712561,-0.095558 -0.1712561,-0.095558 -0.1720556,-0.0839533 -0.1735166,-0.0783207 -0.1758806,-0.0729969 -0.1794321,-0.0683981 -0.1842116,-0.0650861 -0.1897571,-0.063332 -0.1955498,-0.0627662 -0.1955498,-0.0627662 -0.2020034,-0.0635949 -0.2081472,-0.0657283 -0.2135179,-0.069389 -0.2176715,-0.0743924 -0.2204948,-0.0802502 -0.2222892,-0.0865109 -0.2232803,-0.0929368 -0.2236306,-0.0994376 -0.2236306,-0.0994376 -0.2231166,-0.1101534 -0.2219603,-0.1208193 -0.2199398,-0.1313533 -0.2171921,-0.141728 -0.2134355,-0.1517704 -0.2087092,-0.1614053 -0.2030588,-0.1705211 -0.1964738,-0.1789909 -0.1890565,-0.1867404 -0.1808511,-0.1936503 -0.1718892,-0.1995449 -0.1622865,-0.2043252 -0.1522017,-0.2079815 -0.1417842,-0.210542 -0.131168,-0.2120796 -0.120452,-0.2125922 -0.0870723,-0.212038 -0.0870723,-0.212038 -0.0758581,-0.211257 -0.064748,-0.2095476 -0.0538701,-0.2067149 -0.0433387,-0.2027874 -0.0333879,-0.1975574 -0.0240285,-0.191335 -0.0154753,-0.1840419 -0.0077947,-0.1758338 -0.0009439,-0.1669212 0.0049238,-0.1573362 0.0097723,-0.1471918 0.0136814,-0.1366542 0.0165609,-0.1257878 0.0185772,-0.1147272 0.0198123,-0.1035557 0.0203217,-0.092325 0.0203217,-0.092325 0.0199465,-0.082267 0.0189589,-0.072253 0.0173787,-0.0623113 0.0150742,-0.052517 0.0120795,-0.0429062 0.0083128,-0.0335763 0.0038331,-0.024562 -0.00143,-0.0159855 -0.0074687,-0.0079349 -0.0141496,-0.0004069 -0.021541,0.0064204 -0.029512,0.0125657 -0.0380878,0.0178308 -0.0470857,0.0223387 -0.0564343,0.026065 -0.0660454,0.0290507 -0.1224172,0.0431427 -0.1224172,0.0431427 -0.1301214,0.0454195 -0.1375133,0.0485273 -0.144364,0.0527464 -0.149826,0.0586095 -0.149826,0.0586095 -0.1556308,0.0682681 -0.1598094,0.0787347 -0.1620943,0.0897694 -0.1629427,0.1010079 -0.1629427,0.1010079 -0.1618309,0.1147095 -0.1605111,0.1214577 -0.1585419,0.1280435 -0.155996,0.1344334 -0.1526886,0.1404557 -0.1487335,0.1460832 -0.1440067,0.151073 -0.1440067,0.151073 -0.1382047,0.1547335 -0.1318262,0.157294 -0.1252145,0.1591367 -0.1184198,0.1601254 -0.0923086,0.1606943 -0.0896904,0.1606943 -0.0896904,0.1606943 -0.0802726,0.1599252 -0.0712211,0.157217 -0.066976,0.1551285 -0.0630342,0.1525199 -0.0563276,0.1458722 -0.0511632,0.1379575 -0.0472087,0.1293739 -0.0442245,0.1204075 -0.0418441,0.1112611 -0.0418441,0.1112611 -0.0379645,0.0971283 -0.0379645,0.0971283 -0.0339026,0.0918656 -0.0284133,0.0881125 -0.0220525,0.0861834 -0.015426,0.0855819 -0.015426,0.0855819 -0.010176,0.0862179 -0.0050666,0.0875838 -0.0003846,0.0900354 0.0036209,0.0934819 0.0066022,0.0978495 0.008597,0.1027437 0.0096377,0.1079298 0.0100685,0.1132009 0.0100685,0.1132009 0.0088764,0.1254327 0.0059544,0.1373825 0.0018298,0.1489617 -0.0033254,0.1601254 -0.0033254,0.1601254 -0.00991,0.1709956 -0.0177157,0.1810179 -0.0266826,0.1900265 -0.036719,0.197817 -0.0476831,0.2042407 -0.0593912,0.2091739 -0.0717454,0.2121471 -0.0844272,0.2128694 -0.0877268,0.2128693z" transform="matrix(1,0,0,-1,1.1504,0.4504)" fill="rgb(160,160,160)" fill-rule="nonzero" shaper:cutDepth="0.0000762" stroke-linecap="round" stroke-linejoin="round" /><path d="M-0.5411103,0.2040017 L-0.6477624,0.0692538 -0.6477624,0.1805535 -0.6477624,0.1805535 -0.6478547,0.1866254 -0.6486085,0.1926411 -0.6502384,0.1984958 -0.6530604,0.203857 -0.6572303,0.2082644 -0.6625367,0.2111909 -0.6684292,0.2126305 -0.6744943,0.2128694 -0.6744943,0.2128694 -0.6797232,0.212396 -0.6848079,0.2111085 -0.689563,0.208881 -0.6937075,0.2056644 -0.6937075,0.2056644 -0.6962715,0.2030169 -0.6981902,0.1999023 -0.6992217,0.1963618 -0.6996591,0.1927178 -0.7000811,0.1780454 -0.7001177,-0.1822963 -0.7001177,-0.1822963 -0.6989013,-0.1935627 -0.6971085,-0.1989412 -0.6941994,-0.2038058 -0.6901376,-0.2077567 -0.6851029,-0.2103573 -0.6796041,-0.2117287 -0.67394,-0.212038 -0.67394,-0.212038 -0.6683178,-0.2117236 -0.6628106,-0.2105498 -0.6577997,-0.2079876 -0.6536537,-0.2041906 -0.6507616,-0.1993583 -0.6489524,-0.194026 -0.6480247,-0.1884725 -0.6477066,-0.1828487 -0.6477624,-0.0163118 -0.6094536,0.0319395 -0.518151,-0.19452 -0.518151,-0.19452 -0.5141718,-0.2016339 -0.5116319,-0.2048287 -0.5085977,-0.2075704 -0.5050967,-0.2096968 -0.5012622,-0.2110999 -0.4931697,-0.212038 -0.4931697,-0.212038 -0.4882173,-0.2116687 -0.483361,-0.2106391 -0.4787693,-0.2087506 -0.4746104,-0.2060388 -0.4711046,-0.2025246 -0.4684763,-0.1983145 -0.4669077,-0.1936058 -0.466382,-0.1886681 -0.466382,-0.1886681 -0.4668546,-0.1830002 -0.4682179,-0.1774714 -0.472109,-0.1667761 -0.5724218,0.0801908 -0.5085738,0.1606096 -0.5053814,0.1651131 -0.5053814,0.1651131 -0.4971774,0.1749341 -0.4954548,0.1776303 -0.494328,0.1806333 -0.4938163,0.1870054 -0.4938163,0.1870054 -0.4943371,0.1920912 -0.4955897,0.1970436 -0.4976898,0.2017027 -0.5007163,0.205818 -0.5047251,0.2089835 -0.5093439,0.2111628 -0.5143217,0.2123252 -0.5194031,0.2128694 -0.5194031,0.2128694 -0.5254639,0.2125158 -0.5313511,0.2110623 -0.5366573,0.2081263 -0.5411103,0.2040017z" transform="matrix(1,0,0,-1,1.1504,0.4504)" fill="rgb(160,160,160)" fill-rule="nonzero" shaper:cutDepth="0.0000762" stroke-linecap="round" stroke-linejoin="round" /><path d="M-0.8663492,0.2128694 L-0.866425,0.2128693 -0.866425,0.2128693 -0.8782281,0.2120705 -0.8898607,0.2099116 -0.9011742,0.2064543 -0.9120192,0.2017292 -0.9222786,0.1958346 -0.931965,0.1890422 -0.9409698,0.1813685 -0.9493909,0.1730574 -0.9493909,0.1730574 -0.9634438,0.1549105 -0.9696196,0.1452311 -0.975215,0.1351984 -0.9849094,0.1143927 -0.9928212,0.09284 -0.9990896,0.0707575 -1.0036378,0.0482533 -1.0064855,0.0254758 -1.0074923,0.0025402 -1.0074923,0.0025402 -1.0067115,-0.019167 -1.0043601,-0.0407593 -1.000585,-0.0621506 -0.9953163,-0.0832221 -0.9885416,-0.1038601 -0.9801537,-0.1238946 -0.9700847,-0.1431414 -0.9583509,-0.1614186 -0.9583509,-0.1614186 -0.9499222,-0.1720407 -0.9405398,-0.1818296 -0.9300804,-0.190457 -0.9187795,-0.1979518 -0.9066378,-0.2039855 -0.8938075,-0.2083665 -0.880519,-0.2110632 -0.8669958,-0.212038 -0.8669958,-0.212038 -0.8549204,-0.2110563 -0.8430549,-0.2086024 -0.8315649,-0.2047608 -0.8205912,-0.1996236 -0.8102301,-0.1933428 -0.80058,-0.1860163 -0.7918498,-0.1776153 -0.7840465,-0.1683465 -0.7840465,-0.1683465 -0.7719743,-0.1508558 -0.7665314,-0.1417323 -0.7650954,-0.136617 -0.7648333,-0.1313056 -0.7648333,-0.1313056 -0.7664263,-0.1212722 -0.7684011,-0.116588 -0.7713391,-0.1124357 -0.7752637,-0.109205 -0.7797901,-0.1068911 -0.7847161,-0.1056205 -0.7897735,-0.1050722 -0.7897735,-0.1050722 -0.7960154,-0.1056324 -0.8020058,-0.1074052 -0.8074157,-0.1105787 -0.8114807,-0.1153254 -0.8114807,-0.1153254 -0.8215408,-0.1310712 -0.8271953,-0.1385162 -0.8334664,-0.1454415 -0.8406438,-0.1514275 -0.8487805,-0.1559987 -0.8576906,-0.1588295 -0.8669958,-0.1595712 -0.8669958,-0.1595712 -0.8791441,-0.1573734 -0.8849504,-0.155232 -0.8904882,-0.1524826 -0.9006454,-0.1454538 -0.9095243,-0.1368574 -0.9173424,-0.127287 -0.9241498,-0.116971 -0.9301829,-0.106181 -0.9355417,-0.0950447 -0.9401314,-0.0835668 -0.9441005,-0.0718612 -0.9474411,-0.0599605 -0.9500762,-0.0478844 -0.953622,-0.0234238 -0.9551179,0.001247 -0.9551179,0.001247 -0.9536209,0.0258564 -0.9500479,0.050251 -0.9473112,0.0622731 -0.9438769,0.0741153 -0.9398923,0.0857844 -0.935149,0.0971642 -0.9296727,0.1082126 -0.923455,0.118859 -0.9164813,0.1290269 -0.9086001,0.1385095 -0.89951,0.1468314 -0.8892388,0.1536341 -0.8778382,0.1583372 -0.8718334,0.159683 -0.8657026,0.1604025 -0.8657026,0.1604025 -0.8575401,0.1597205 -0.8497073,0.1573086 -0.8424562,0.1534886 -0.8359492,0.1485129 -0.8301362,0.1427274 -0.8249064,0.1364184 -0.8159145,0.1227151 -0.8159145,0.1227151 -0.8116574,0.1160606 -0.8060313,0.1105435 -0.8026254,0.1084841 -0.7989254,0.107103 -0.7910667,0.1064578 -0.7910667,0.1064578 -0.7857849,0.1069693 -0.7806614,0.1083474 -0.7759958,0.1108723 -0.7719558,0.11431 -0.7687516,0.1185389 -0.7665122,0.1233485 -0.7652932,0.1285124 -0.7648333,0.1337996 -0.7648333,0.1337996 -0.7655584,0.1412377 -0.7684984,0.1481099 -0.7770263,0.1604025 -0.7770263,0.1604025 -0.7853781,0.1710096 -0.7944472,0.1810017 -0.8043147,0.1902208 -0.8151423,0.1982711 -0.8269625,0.2047935 -0.8396449,0.2093956 -0.8528763,0.212067 -0.8663492,0.2128694z" transform="matrix(1,0,0,-1,1.1504,0.4504)" fill="rgb(160,160,160)" fill-rule="nonzero" shaper:cutDepth="0.0000762" stroke-linecap="round" stroke-linejoin="round" /></svg>