<?xml version="1.0" encoding="utf-8"?>
<!-- Generator: Fusion 360, Shaper Origin Export Add-In, Version 1.6.10  -->
<svg xmlns="http://www.w3.org/2000/svg" xmlns:xlink="http://www.w3.org/1999/xlink" xmlns:shaper="http://www.shapertools.com/namespaces/shaper" shaper:fusionaddin="version:1.6.10" width="2.3008cm" height="0.9008cm" version="1.1" x="0cm" y="0cm" viewBox="0 0 2.3008 0.9008" enable-background="new 0 0 2.3008 0.9008" xml:space="preserve"><path d="M-1.1504,0.4504 L1.1504,0.4504 1.1504,-0.4504 -1.1504,-0.4504 -1.1504,0.4504z" transform="matrix(1,0,0,-1,1.1504,0.4504)" fill="rgb(0,0,0)" shaper:cutDepth="0.000127" stroke-linecap="round" stroke-linejoin="round" /><path d="M0.8745702,-0.1796157 L0.8745702,-0.1796157 0.874509,-0.1856456 0.8738441,-0.1916295 0.872359,-0.1974791 0.8697415,-0.2028963 0.8657826,-0.2074405 0.8605864,-0.2104681 0.8547316,-0.2118822 0.8487063,-0.212038 0.8487063,-0.212038 0.8427488,-0.211477 0.8369762,-0.2099152 0.8317044,-0.2070867 0.8271838,-0.2031704 0.8271838,-0.2031704 0.8251456,-0.2003412 0.8237051,-0.1972017 0.8224638,-0.1903622 0.8221033,-0.1764753 0.8221033,0.1604024 0.7582749,0.1604025 0.7582749,0.1604025 0.7522977,0.160709 0.7463901,0.1616275 0.7406777,0.1634291 0.735525,0.1664479 0.7312726,0.1706569 0.7284102,0.1759032 0.726897,0.1816884 0.7264069,0.187652 0.7264069,0.187652 0.726882,0.1937396 0.7286928,0.1995627 0.7322217,0.2045473 0.7370573,0.2082441 0.7427082,0.2105765 0.7486385,0.2120378 0.7608093,0.2128693 0.9391377,0.2128694 0.9391377,0.2128694 0.9450339,0.2125573 0.950857,0.2116101 0.9564661,0.209762 0.9615395,0.2067559 0.9656404,0.2025172 0.9684135,0.1973109 0.9698805,0.1915963 0.9703591,0.1857122 0.9703591,0.1857122 0.9698158,0.1798646 0.9681139,0.1742487 0.9648931,0.1693393 0.9604474,0.1655214 0.955138,0.1630039 0.9494675,0.1614746 0.9377797,0.1604024 0.8745702,0.1604024 0.8745702,-0.1796157z" transform="matrix(1,0,0,-1,1.1504,0.4504)" fill="rgb(160,160,160)" fill-rule="nonzero" shaper:cutDepth="0.0000762" stroke-linecap="round" stroke-linejoin="round" /><path d="M0.5387086,0.2187811 L0.5387086,0.2187811 0.5483235,0.2181544 0.5578151,0.2164851 0.5670919,0.2138843 0.5760753,0.2103934 0.5847336,0.2061663 0.592964,0.201152 0.6007668,0.1954986 0.6080794,0.1892223 0.6080794,0.1892223 0.6164963,0.1800405 0.6240721,0.170146 0.6307301,0.1596217 0.6365707,0.1486154 0.6415456,0.1371937 0.6458361,0.1254975 0.6494412,0.1135717 0.6524286,0.1014761 0.6570119,0.0769876 0.6598257,0.0522323 0.6613348,0.0273619 0.661747,0.0024478 0.661747,0.0024478 0.6613562,-0.0213402 0.6599212,-0.0450858 0.6573312,-0.0687345 0.6531225,-0.0921469 0.646989,-0.1151306 0.6430681,-0.1263645 0.6385117,-0.1373555 0.6332712,-0.148044 0.6272764,-0.1583279 0.6204471,-0.168059 0.6130674,-0.1773988 0.6130674,-0.1773988 0.6057337,-0.1847489 0.5977726,-0.1914141 0.5891258,-0.1971616 0.5800045,-0.2021224 0.5704646,-0.2062235 0.5605383,-0.2092604 0.5503572,-0.211308 0.5400018,-0.212038 0.5400018,-0.212038 0.528484,-0.2111644 0.5171914,-0.2087065 0.5062221,-0.2050878 0.4956967,-0.2003195 0.4856415,-0.1946279 0.476104,-0.1881069 0.4672803,-0.1806476 0.4590847,-0.1725032 0.4590847,-0.1725032 0.451695,-0.1631129 0.4452468,-0.1530535 0.4397505,-0.1424429 0.4349758,-0.1314883 0.4309428,-0.1202382 0.4275096,-0.1087921 0.4222112,-0.0854871 0.4184264,-0.0618856 0.4159428,-0.0381123 0.4146601,-0.0142453 0.4141923,0.0096528 0.4141923,0.0096528 0.4147039,0.0318023 0.4161674,0.053906 0.4188474,0.0759007 0.4229336,0.0976722 0.4286104,0.1190895 0.4361992,0.1398969 0.4408332,0.1499667 0.4460896,0.1597236 0.4585305,0.1780454 0.4585305,0.1780454 0.4663716,0.1865356 0.4750302,0.1941887 0.4844185,0.200929 0.4943943,0.2067635 0.504883,0.2116168 0.5158113,0.2153723 0.5271073,0.2178165 0.5386218,0.218781 0.5387086,0.2187811z M0.6092802,0.0043876 L0.6092802,0.0043876 0.608204,0.0370714 0.6067676,0.0533587 0.6046348,0.0695727 0.6016317,0.0856442 0.5975611,0.101481 0.5922668,0.1169525 0.5853561,0.1317675 0.5853561,0.1317675 0.576713,0.1441516 0.5716464,0.1497572 0.5660436,0.1548327 0.5599331,0.1592774 0.5533053,0.1629151 0.5461665,0.1654053 0.5386698,0.166311 0.5386698,0.166311 0.5317942,0.1654416 0.5251603,0.1634238 0.5188802,0.16049 0.5129452,0.1568978 0.5073478,0.1527938 0.5021774,0.1481842 0.493262,0.1375869 0.493262,0.1375869 0.4853375,0.1226376 0.4795069,0.1067362 0.4751094,0.090391 0.4718287,0.0737793 0.4694202,0.0570211 0.467822,0.0401651 0.4666591,0.0063274 0.4666591,0.0063274 0.4678752,-0.0298791 0.4695031,-0.0479205 0.4720231,-0.0658601 0.4755951,-0.0836189 0.4805218,-0.1010488 0.4872367,-0.1178755 0.4915825,-0.1258147 0.496495,-0.1334302 0.496495,-0.1334302 0.5047501,-0.1430816 0.5143657,-0.1513706 0.5197964,-0.1546647 0.525631,-0.1571724 0.531748,-0.158895 0.5380621,-0.1595712 0.5380621,-0.1595712 0.5451218,-0.1587216 0.5519059,-0.1565806 0.5582917,-0.1534444 0.5643059,-0.1496447 0.5698607,-0.1452008 0.574928,-0.1402045 0.5794754,-0.1347358 0.5834163,-0.1288116 0.5834163,-0.1288116 0.5912245,-0.1135507 0.5970978,-0.0974286 0.6015054,-0.0808603 0.6046824,-0.0640012 0.6068805,-0.0469939 0.6082779,-0.0298961 0.6092802,0.0043876z" transform="matrix(1,0,0,-1,1.1504,0.4504)" fill="rgb(160,160,160)" fill-rule="nonzero" shaper:cutDepth="0.0000762" stroke-linecap="round" stroke-linejoin="round" /><path d="M0.3024231,0.0473401 L0.3024231,0.1847038 0.3024232,0.1860817 0.3024232,0.1860817 0.3023878,0.1914586 0.3031792,0.1967783 0.3053137,0.201709 0.3086192,0.2059472 0.3129336,0.2091519 0.3178713,0.2112831 0.3231055,0.2124991 0.3284719,0.2128694 0.3284719,0.2128694 0.3341372,0.2126482 0.3396885,0.2115043 0.344767,0.208996 0.3488657,0.2050962 0.3515063,0.2000873 0.3529649,0.1946027 0.3537816,0.1833081 0.3537816,-0.1809089 0.3537816,-0.1809089 0.3530533,-0.1927405 0.3516546,-0.1985018 0.3490811,-0.2038476 0.3448931,-0.2080161 0.3395699,-0.2106161 0.3337483,-0.2117464 0.3278253,-0.212038 0.3278253,-0.212038 0.321883,-0.2118241 0.3160932,-0.2104996 0.3108054,-0.2078074 0.306795,-0.2034355 0.3044231,-0.1979969 0.3031489,-0.1921815 0.3024231,-0.1803287 0.3024231,0.0007851 0.1586937,0.0007851 0.1586937,-0.1828487 0.1586937,-0.1828487 0.1579312,-0.1942229 0.1563099,-0.1996969 0.1534241,-0.2046142 0.1492252,-0.2084698 0.1440555,-0.2108753 0.1384435,-0.2119045 0.1327374,-0.212038 0.1327374,-0.212038 0.127101,-0.2118955 0.1215652,-0.2108365 0.1164962,-0.208382 0.1124313,-0.2044833 0.1097057,-0.1995586 0.1081545,-0.1941301 0.1074145,-0.1885475 0.1073352,-0.1829068 0.1073353,0.1820174 0.1073353,0.1820174 0.1081888,0.1936052 0.1095725,0.1992586 0.1120969,0.2044869 0.1160876,0.2087059 0.1212677,0.211326 0.1269248,0.2126506 0.1327374,0.2128694 0.1327374,0.2128694 0.1384192,0.2127275 0.1439716,0.2115289 0.1490205,0.2089309 0.1530848,0.204971 0.1558608,0.2000152 0.1575939,0.1945996 0.1584761,0.18899 0.1586937,0.1833081 0.1586937,0.0473401 0.3024231,0.0473401z" transform="matrix(1,0,0,-1,1.1504,0.4504)" fill="rgb(160,160,160)" fill-rule="nonzero" shaper:cutDepth="0.0000762" stroke-linecap="round" stroke-linejoin="round" /><path d="M-0.2443883,0.2128693 L-0.2777697,0.2112065 -0.2777697,0.2112065 -0.2877464,0.2102154 -0.2975794,0.208261 -0.3071774,0.2053655 -0.3164078,0.201454 -0.3251164,0.1964881 -0.3332105,0.1905733 -0.3406456,0.1838481 -0.3473745,0.1764161 -0.3533032,0.1683325 -0.3583949,0.159695 -0.362654,0.1506203 -0.3660529,0.1411871 -0.3686241,0.131498 -0.3704287,0.1216338 -0.3715411,0.1116718 -0.3719787,0.1016545 -0.3719787,0.1016545 -0.3712315,0.0885127 -0.3693454,0.0754857 -0.3660384,0.0627457 -0.3615189,0.0503822 -0.3558009,0.0385271 -0.348797,0.027383 -0.3403058,0.0173265 -0.330504,0.0085443 -0.330504,0.0085443 -0.3211876,0.0025976 -0.3112082,-0.0021585 -0.3007764,-0.0058135 -0.2901378,-0.0088214 -0.2339157,-0.0230202 -0.2339157,-0.0230202 -0.2270538,-0.0248642 -0.2204651,-0.0274957 -0.2142982,-0.0310371 -0.209036,-0.0357938 -0.209036,-0.0357938 -0.204066,-0.0416473 -0.1999285,-0.0481206 -0.1964593,-0.0549714 -0.193684,-0.0621334 -0.1899508,-0.0770242 -0.1887143,-0.092325 -0.1887143,-0.092325 -0.1890295,-0.1001903 -0.1901026,-0.1079858 -0.1917985,-0.1156734 -0.1941865,-0.1231719 -0.197276,-0.1304119 -0.2010845,-0.1372982 -0.2056451,-0.1437139 -0.2109757,-0.1495027 -0.2109757,-0.1495027 -0.2184668,-0.1550854 -0.2271122,-0.1586646 -0.2362787,-0.1604788 -0.2456149,-0.1610491 -0.2771151,-0.1611272 -0.2771151,-0.1611272 -0.2829974,-0.1612273 -0.2888505,-0.1606763 -0.2945373,-0.1591613 -0.2999346,-0.1568313 -0.3048406,-0.153589 -0.3092914,-0.1497407 -0.313244,-0.1453851 -0.3166754,-0.1406025 -0.3221146,-0.130162 -0.3256942,-0.1189545 -0.3274357,-0.107317 -0.3279176,-0.095558 -0.3279176,-0.095558 -0.3287171,-0.0839533 -0.3301781,-0.0783207 -0.3325421,-0.0729969 -0.3360936,-0.0683981 -0.3408731,-0.0650861 -0.3464186,-0.063332 -0.3522113,-0.0627662 -0.3522113,-0.0627662 -0.3586649,-0.0635949 -0.3648087,-0.0657283 -0.3701794,-0.069389 -0.374333,-0.0743924 -0.3771563,-0.0802502 -0.3789507,-0.0865109 -0.3799418,-0.0929368 -0.3802921,-0.0994376 -0.3802921,-0.0994376 -0.3797781,-0.1101534 -0.3786218,-0.1208193 -0.3766013,-0.1313533 -0.3738536,-0.141728 -0.370097,-0.1517704 -0.3653707,-0.1614053 -0.3597203,-0.1705211 -0.3531353,-0.1789909 -0.345718,-0.1867404 -0.3375126,-0.1936503 -0.3285507,-0.1995449 -0.318948,-0.2043252 -0.3088632,-0.2079815 -0.2984457,-0.210542 -0.2878295,-0.2120796 -0.2771135,-0.2125922 -0.2437338,-0.212038 -0.2437338,-0.212038 -0.2325196,-0.211257 -0.2214095,-0.2095476 -0.2105316,-0.2067149 -0.2000002,-0.2027874 -0.1900494,-0.1975574 -0.18069,-0.191335 -0.1721368,-0.1840419 -0.1644562,-0.1758338 -0.1576054,-0.1669212 -0.1517377,-0.1573362 -0.1468892,-0.1471918 -0.1429801,-0.1366542 -0.1401006,-0.1257878 -0.1380843,-0.1147272 -0.1368492,-0.1035557 -0.1363398,-0.092325 -0.1363398,-0.092325 -0.136715,-0.082267 -0.1377026,-0.072253 -0.1392828,-0.0623113 -0.1415873,-0.052517 -0.144582,-0.0429062 -0.1483487,-0.0335763 -0.1528284,-0.024562 -0.1580915,-0.0159855 -0.1641302,-0.0079349 -0.1708111,-0.0004069 -0.1782025,0.0064204 -0.1861735,0.0125657 -0.1947493,0.0178308 -0.2037472,0.0223387 -0.2130958,0.026065 -0.2227069,0.0290507 -0.2790787,0.0431427 -0.2790787,0.0431427 -0.2867829,0.0454195 -0.2941748,0.0485273 -0.3010255,0.0527464 -0.3064875,0.0586095 -0.3064875,0.0586095 -0.3122923,0.0682681 -0.3164709,0.0787347 -0.3187558,0.0897694 -0.3196042,0.1010079 -0.3196042,0.1010079 -0.3184924,0.1147095 -0.3171726,0.1214577 -0.3152034,0.1280435 -0.3126575,0.1344334 -0.3093501,0.1404557 -0.305395,0.1460832 -0.3006682,0.151073 -0.3006682,0.151073 -0.2948662,0.1547335 -0.2884877,0.157294 -0.281876,0.1591367 -0.2750813,0.1601254 -0.2489701,0.1606943 -0.2463519,0.1606943 -0.2463519,0.1606943 -0.2369341,0.1599252 -0.2278826,0.157217 -0.2236375,0.1551285 -0.2196957,0.1525199 -0.2129891,0.1458722 -0.2078247,0.1379575 -0.2038702,0.1293739 -0.200886,0.1204075 -0.1985056,0.1112611 -0.1985056,0.1112611 -0.1946261,0.0971283 -0.1946261,0.0971283 -0.1905641,0.0918656 -0.1850748,0.0881125 -0.178714,0.0861834 -0.1720875,0.0855819 -0.1720875,0.0855819 -0.1668375,0.0862179 -0.1617281,0.0875838 -0.1570461,0.0900354 -0.1530406,0.0934819 -0.1500593,0.0978495 -0.1480645,0.1027437 -0.1470238,0.1079298 -0.146593,0.1132009 -0.146593,0.1132009 -0.1477851,0.1254327 -0.1507071,0.1373825 -0.1548317,0.1489617 -0.1599869,0.1601254 -0.1599869,0.1601254 -0.1665715,0.1709956 -0.1743772,0.1810179 -0.1833441,0.1900265 -0.1933805,0.197817 -0.2043446,0.2042407 -0.2160527,0.2091739 -0.2284069,0.2121471 -0.2410887,0.2128694 -0.2443883,0.2128693z" transform="matrix(1,0,0,-1,1.1504,0.4504)" fill="rgb(160,160,160)" fill-rule="nonzero" shaper:cutDepth="0.0000762" stroke-linecap="round" stroke-linejoin="round" /><path d="M-0.5441585,0.2128694 L-0.5442343,0.2128693 -0.5442343,0.2128693 -0.5560375,0.2120705 -0.5676701,0.2099116 -0.5789836,0.2064543 -0.5898286,0.2017292 -0.600088,0.1958346 -0.6097744,0.1890422 -0.6187792,0.1813685 -0.6272002,0.1730574 -0.6272002,0.1730574 -0.6412532,0.1549105 -0.6474289,0.1452311 -0.6530244,0.1351984 -0.6627187,0.1143927 -0.6706306,0.09284 -0.6768989,0.0707575 -0.6814471,0.0482533 -0.6842948,0.0254758 -0.6853017,0.0025402 -0.6853017,0.0025402 -0.6845209,-0.019167 -0.6821695,-0.0407593 -0.6783943,-0.0621506 -0.6731257,-0.0832221 -0.666351,-0.1038601 -0.6579631,-0.1238946 -0.6478941,-0.1431414 -0.6361602,-0.1614186 -0.6361602,-0.1614186 -0.6277316,-0.1720407 -0.6183492,-0.1818296 -0.6078897,-0.190457 -0.5965888,-0.1979518 -0.5844471,-0.2039855 -0.5716168,-0.2083665 -0.5583284,-0.2110632 -0.5448051,-0.212038 -0.5448051,-0.212038 -0.5327298,-0.2110563 -0.5208642,-0.2086024 -0.5093743,-0.2047608 -0.4984006,-0.1996236 -0.4880395,-0.1933428 -0.4783893,-0.1860163 -0.4696592,-0.1776153 -0.4618558,-0.1683465 -0.4618558,-0.1683465 -0.4497837,-0.1508558 -0.4443408,-0.1417323 -0.4429048,-0.136617 -0.4426426,-0.1313056 -0.4426426,-0.1313056 -0.4442357,-0.1212722 -0.4462104,-0.116588 -0.4491485,-0.1124357 -0.4530731,-0.109205 -0.4575995,-0.1068911 -0.4625255,-0.1056205 -0.4675829,-0.1050722 -0.4675829,-0.1050722 -0.4738247,-0.1056324 -0.4798152,-0.1074052 -0.4852251,-0.1105787 -0.4892901,-0.1153254 -0.4892901,-0.1153254 -0.4993501,-0.1310712 -0.5050047,-0.1385162 -0.5112758,-0.1454415 -0.5184532,-0.1514275 -0.5265898,-0.1559987 -0.5354999,-0.1588295 -0.5448051,-0.1595712 -0.5448051,-0.1595712 -0.5569535,-0.1573734 -0.5627598,-0.155232 -0.5682975,-0.1524826 -0.5784547,-0.1454538 -0.5873336,-0.1368574 -0.5951518,-0.127287 -0.6019591,-0.116971 -0.6079923,-0.106181 -0.6133511,-0.0950447 -0.6179408,-0.0835668 -0.6219099,-0.0718612 -0.6252505,-0.0599605 -0.6278856,-0.0478844 -0.6314313,-0.0234238 -0.6329272,0.001247 -0.6329272,0.001247 -0.6314303,0.0258564 -0.6278572,0.050251 -0.6251206,0.0622731 -0.6216862,0.0741153 -0.6177016,0.0857844 -0.6129584,0.0971642 -0.6074821,0.1082126 -0.6012644,0.118859 -0.5942907,0.1290269 -0.5864095,0.1385095 -0.5773194,0.1468314 -0.5670481,0.1536341 -0.5556476,0.1583372 -0.5496428,0.159683 -0.543512,0.1604025 -0.543512,0.1604025 -0.5353495,0.1597205 -0.5275167,0.1573086 -0.5202656,0.1534886 -0.5137586,0.1485129 -0.5079456,0.1427274 -0.5027158,0.1364184 -0.4937239,0.1227151 -0.4937239,0.1227151 -0.4894667,0.1160606 -0.4838406,0.1105435 -0.4804347,0.1084841 -0.4767348,0.107103 -0.468876,0.1064578 -0.468876,0.1064578 -0.4635943,0.1069693 -0.4584708,0.1083474 -0.4538052,0.1108723 -0.4497652,0.11431 -0.4465609,0.1185389 -0.4443216,0.1233485 -0.4431025,0.1285124 -0.4426426,0.1337996 -0.4426426,0.1337996 -0.4433677,0.1412377 -0.4463078,0.1481099 -0.4548356,0.1604025 -0.4548356,0.1604025 -0.4631874,0.1710096 -0.4722566,0.1810017 -0.4821241,0.1902208 -0.4929517,0.1982711 -0.5047719,0.2047935 -0.5174543,0.2093956 -0.5306857,0.212067 -0.5441585,0.2128694z" transform="matrix(1,0,0,-1,1.1504,0.4504)" fill="rgb(160,160,160)" fill-rule="nonzero" shaper:cutDepth="0.0000762" stroke-linecap="round" stroke-linejoin="round" /><path d="M-0.8311558,0.053252 L-0.8311558,0.053252 -0.8249384,0.053188 -0.8187656,0.0525121 -0.81273,0.0510058 -0.8071085,0.0483709 -0.802418,0.0442999 -0.7992757,0.038951 -0.7976809,0.0329479 -0.7973479,0.0267415 -0.7973479,0.0267415 -0.7977724,0.0204321 -0.7994495,0.0143396 -0.8027846,0.0089787 -0.8077972,0.0051639 -0.8136858,0.002829 -0.8198655,0.0015311 -0.8324912,0.0007851 -0.9403942,0.0007851 -0.9403385,-0.1775836 -0.9403385,-0.1775836 -0.9411228,-0.1900182 -0.9424363,-0.1961091 -0.9447977,-0.2018805 -0.948687,-0.2067253 -0.9539857,-0.2099893 -0.9599812,-0.2116773 -0.9662024,-0.212038 -0.9662024,-0.212038 -0.9724614,-0.2115919 -0.9785329,-0.210023 -0.9838667,-0.2067285 -0.9879025,-0.2019423 -0.9904755,-0.1962173 -0.9919404,-0.1901149 -0.9928054,-0.1776013 -0.9928053,0.1773065 -0.9928053,0.1773065 -0.9925845,0.1846689 -0.9914196,0.1919334 -0.9889473,0.1988725 -0.9847645,0.2049197 -0.9789288,0.2093942 -0.9720634,0.212043 -0.9647666,0.2130119 -0.9574042,0.2128693 -0.7845083,0.2128694 -0.7845083,0.2128694 -0.7730064,0.2115531 -0.7674542,0.2098537 -0.762428,0.2069937 -0.7582367,0.2029848 -0.7553456,0.197969 -0.7537085,0.1924107 -0.7531945,0.1866359 -0.7531945,0.1866359 -0.753601,0.1808004 -0.7551421,0.1751622 -0.7579776,0.1700543 -0.7621914,0.1660054 -0.7673328,0.1632275 -0.7729253,0.161501 -0.7787018,0.1606186 -0.7845495,0.1604024 -0.9403385,0.1604024 -0.9403385,0.053252 -0.8311558,0.053252z" transform="matrix(1,0,0,-1,1.1504,0.4504)" fill="rgb(160,160,160)" fill-rule="nonzero" shaper:cutDepth="0.0000762" stroke-linecap="round" stroke-linejoin="round" /></svg>