<?xml version="1.0" encoding="utf-8"?>
<!-- Generator: Fusion 360, Shaper Origin Export Add-In, Version 1.6.10  -->
<svg xmlns="http://www.w3.org/2000/svg" xmlns:xlink="http://www.w3.org/1999/xlink" xmlns:shaper="http://www.shapertools.com/namespaces/shaper" shaper:fusionaddin="version:1.6.10" width="2.3008cm" height="0.9008cm" version="1.1" x="0cm" y="0cm" viewBox="0 0 2.3008 0.9008" enable-background="new 0 0 2.3008 0.9008" xml:space="preserve"><path d="M-1.2242969,0.473262 L1.0765031,0.473262 1.0765031,-0.427538 -1.2242969,-0.427538 -1.2242969,0.473262z" transform="matrix(1,0,0,-1,1.2242969,0.473262)" fill="rgb(0,0,0)" shaper:cutDepth="0.000127" stroke-linecap="round" stroke-linejoin="round" /><path d="M0.5295639,0.2017387 L0.5295272,-0.0558549 0.3901526,0.2194992 0.3901526,0.2194992 0.3859675,0.2264044 0.3832825,0.2294105 0.3801179,0.2319454 0.3765611,0.2339133 0.3727293,0.2351746 0.3646814,0.2357313 0.3646814,0.2357313 0.3597226,0.2353956 0.3549361,0.2340689 0.35054,0.2317533 0.3467614,0.2285264 0.3467614,0.2285264 0.3443232,0.2260877 0.3424264,0.2232391 0.34133,0.2199676 0.3408547,0.2165672 0.3403878,0.2028472 0.3403512,-0.1549309 0.3403512,-0.1549309 0.3411388,-0.1673027 0.3423801,-0.1733721 0.3446864,-0.1791316 0.3485224,-0.1839766 0.3538113,-0.1871899 0.3597848,-0.1888332 0.3659746,-0.1891761 0.3659746,-0.1891761 0.3717381,-0.1887739 0.3773467,-0.1873955 0.3824294,-0.1846573 0.3866113,-0.1806797 0.3895829,-0.1757296 0.3914096,-0.1702468 0.3927622,-0.1587859 0.3927065,0.1030528 0.5314427,-0.1742314 0.5314427,-0.1742314 0.5358308,-0.1805217 0.5385117,-0.183274 0.5415986,-0.1855694 0.5450429,-0.1872877 0.5487224,-0.188393 0.5563516,-0.1891761 0.5563516,-0.1891761 0.5619505,-0.1888508 0.5673763,-0.1874446 0.5722869,-0.1847459 0.576252,-0.18079 0.5789963,-0.1759033 0.5807179,-0.170563 0.5816335,-0.1650342 0.5819384,-0.1594325 0.5818826,0.2040588 0.5818826,0.2040588 0.5810754,0.2159718 0.5796245,0.2217725 0.5769779,0.2271241 0.5728126,0.2313916 0.5674998,0.2341112 0.5616733,0.2354233 0.555705,0.2357313 0.555705,0.2357313 0.5494491,0.2354929 0.5433776,0.2339851 0.5379224,0.2309494 0.5339228,0.2261456 0.5315564,0.22036 0.5302727,0.2142258 0.5295639,0.2017387z" transform="matrix(1,0,0,-1,1.2242969,0.473262)" fill="rgb(160,160,160)" fill-rule="nonzero" shaper:cutDepth="0.0000762" stroke-linecap="round" stroke-linejoin="round" /><path d="M0.1971201,0.0761139 L0.1971201,0.0761139 0.2030308,0.0759679 0.2088792,0.0751526 0.2145417,0.0734453 0.2197242,0.0706198 0.2239547,0.0664982 0.2266514,0.0612478 0.2280351,0.0555067 0.2283416,0.0496034 0.2283416,0.0496034 0.2280888,0.0435098 0.2265371,0.037616 0.2233714,0.0324125 0.2187329,0.0284696 0.2131912,0.0259204 0.2072756,0.0244382 0.1951138,0.023647 0.0852953,0.023647 0.0852953,-0.1367092 0.242382,-0.1367092 0.242382,-0.1367092 0.2484806,-0.1367789 0.2545324,-0.137476 0.2604339,-0.1390229 0.2658904,-0.1417337 0.270321,-0.1459062 0.2733239,-0.1512053 0.2747568,-0.1571274 0.274989,-0.1632198 0.274989,-0.1632198 0.274709,-0.1695214 0.2729169,-0.1755636 0.2693654,-0.180769 0.2643738,-0.1846044 0.2585438,-0.1870229 0.2523933,-0.1884256 0.2398073,-0.1891761 0.0655836,-0.1891761 0.0655836,-0.1891761 0.0584118,-0.1890314 0.0512944,-0.1881565 0.0444548,-0.1860067 0.0413238,-0.1842321 0.0386166,-0.1818758 0.0365309,-0.1789554 0.0350027,-0.1756955 0.0332896,-0.1687395 0.0329399,-0.154407 0.0329766,0.2016463 0.0329766,0.2016463 0.032975,0.2087352 0.0336667,0.2157926 0.03565,0.2225909 0.0372724,0.2257581 0.0394144,0.2285856 0.0421371,0.2308592 0.0452567,0.232567 0.0520259,0.2346697 0.0590513,0.2355878 0.0661409,0.2357312 0.2417354,0.2357313 0.2417354,0.2357313 0.2476304,0.235659 0.2534777,0.2349708 0.2591699,0.2334175 0.2643769,0.2306834 0.2686928,0.2266701 0.2714839,0.2214924 0.2728191,0.2157566 0.2730492,0.2098674 0.2730492,0.2098674 0.2728083,0.2036979 0.2713274,0.1977082 0.2682304,0.1923756 0.2636373,0.1882674 0.2580884,0.1855562 0.2521229,0.1839735 0.2398073,0.1832643 0.0852953,0.1832643 0.0852953,0.0761139 0.1971201,0.0761139z" transform="matrix(1,0,0,-1,1.2242969,0.473262)" fill="rgb(160,160,160)" fill-rule="nonzero" shaper:cutDepth="0.0000762" stroke-linecap="round" stroke-linejoin="round" /><path d="M-0.1170342,0.0000001 L-0.0852953,0 -0.0852953,-0.0664169 -0.0852953,-0.0664169 -0.0858266,-0.078497 -0.0872588,-0.0904957 -0.0900491,-0.1022662 -0.0946292,-0.1134451 -0.0977685,-0.1186209 -0.1015226,-0.1233779 -0.1059304,-0.1275148 -0.1109582,-0.1308864 -0.1164374,-0.1334877 -0.1222169,-0.1352752 -0.1342153,-0.1367092 -0.1342153,-0.1367092 -0.14425,-0.1355334 -0.1538899,-0.1325134 -0.1627355,-0.1276354 -0.1705171,-0.1211909 -0.1705171,-0.1211909 -0.1830079,-0.1059198 -0.1886072,-0.0977924 -0.1936727,-0.089321 -0.2023594,-0.0716051 -0.2094577,-0.053196 -0.2149888,-0.034256 -0.2189422,-0.0149245 -0.2212367,0.0046718 -0.2220602,0.0243861 -0.2220602,0.0243861 -0.2205991,0.0488054 -0.2169181,0.0729919 -0.2142014,0.0849218 -0.2108731,0.0966954 -0.2069091,0.1082706 -0.2022615,0.1195884 -0.1969425,0.130607 -0.1909313,0.1412631 -0.1841575,0.1514522 -0.1764118,0.160921 -0.1675617,0.1693641 -0.1626951,0.1730812 -0.1574946,0.1762968 -0.1462358,0.1810952 -0.1402925,0.1824927 -0.1342153,0.1832645 -0.1342153,0.1832645 -0.1253217,0.1824649 -0.1168748,0.1795379 -0.1093035,0.1748019 -0.1027223,0.1687514 -0.0916029,0.1547581 -0.0820256,0.1396653 -0.0820256,0.1396653 -0.0779728,0.1334438 -0.0729779,0.1279549 -0.069908,0.1258446 -0.066477,0.1243889 -0.0591175,0.123408 -0.0591175,0.123408 -0.0535798,0.1240363 -0.0482593,0.1256893 -0.0434998,0.1285877 -0.039456,0.1324195 -0.0362863,0.1370045 -0.0339978,0.1420858 -0.0326953,0.1475032 -0.0322375,0.1530591 -0.0322375,0.1530591 -0.0326904,0.1582249 -0.0338843,0.1632369 -0.0383203,0.1725911 -0.0439906,0.1812429 -0.0501575,0.1895457 -0.0501575,0.1895457 -0.0583981,0.1989545 -0.067189,0.2078521 -0.0767715,0.2158875 -0.0871225,0.2229114 -0.0982752,0.2285643 -0.1100973,0.2326419 -0.1223768,0.2350117 -0.1348619,0.2357313 -0.1348619,0.2357313 -0.1437634,0.2352584 -0.1525933,0.2340349 -0.161269,0.231987 -0.169733,0.2291896 -0.1779784,0.2258011 -0.1858904,0.2216955 -0.1934234,0.2169285 -0.2004454,0.2114377 -0.2004454,0.2114377 -0.209673,0.2022593 -0.2182508,0.1924706 -0.2261378,0.1821169 -0.2333854,0.171307 -0.2399746,0.1600818 -0.2459014,0.1484954 -0.2560372,0.1245243 -0.2639465,0.0997207 -0.2697495,0.0743443 -0.2717845,0.0614821 -0.2731782,0.0485405 -0.2744347,0.0225387 -0.2744347,0.0225387 -0.2737213,0.0027212 -0.2717741,-0.0170131 -0.2684763,-0.0365674 -0.2638805,-0.0558575 -0.2580816,-0.0748215 -0.2509124,-0.0933096 -0.2423006,-0.1111726 -0.2323134,-0.1283035 -0.2323134,-0.1283035 -0.2237508,-0.1404798 -0.2143167,-0.1519892 -0.2037882,-0.1625143 -0.1921165,-0.1717452 -0.1793269,-0.1793625 -0.1725363,-0.1824064 -0.1655155,-0.1848882 -0.1583221,-0.1868427 -0.1510035,-0.1882028 -0.1361551,-0.1891761 -0.1361551,-0.1891761 -0.122666,-0.1882032 -0.1094425,-0.1853596 -0.0966924,-0.1808518 -0.0846106,-0.1747714 -0.0734036,-0.1672006 -0.0632229,-0.1582946 -0.0541664,-0.1482515 -0.0462779,-0.1372635 -0.0462779,-0.1372635 -0.0396078,-0.1247765 -0.0370994,-0.1181489 -0.0352826,-0.1113001 -0.0333407,-0.0972847 -0.0328841,-0.083134 -0.0329399,0.0168639 -0.0329399,0.0168639 -0.0328805,0.0241353 -0.0335708,0.0313665 -0.0353539,0.0384144 -0.0368548,0.041736 -0.0389321,0.0447253 -0.0416359,0.0471546 -0.0447733,0.04902 -0.0516581,0.0513242 -0.0588736,0.0522319 -0.0661377,0.0524669 -0.1152,0.0524669 -0.1152,0.0524669 -0.1262086,0.0521703 -0.1316705,0.0513867 -0.1368017,0.0494187 -0.1368017,0.0494187 -0.1424763,0.0451373 -0.1466294,0.0393432 -0.1492613,0.0327382 -0.1501955,0.0256793 -0.1501955,0.0256793 -0.1491643,0.0187749 -0.1466297,0.0122829 -0.1424203,0.0067174 -0.1368017,0.0025865 -0.1368017,0.0025865 -0.1320109,0.0011079 -0.1270579,0.0003131 -0.1170342,0.0000001z" transform="matrix(1,0,0,-1,1.2242969,0.473262)" fill="rgb(160,160,160)" fill-rule="nonzero" shaper:cutDepth="0.0000762" stroke-linecap="round" stroke-linejoin="round" /><path d="M-0.5266425,-0.1388973 L-0.5246682,-0.1419744 -0.5246682,-0.1419744 -0.5188702,-0.1512093 -0.516761,-0.1562204 -0.5163548,-0.1616495 -0.5163548,-0.1616495 -0.5168292,-0.166809 -0.5181933,-0.1718061 -0.5206709,-0.1763532 -0.5240706,-0.1802605 -0.5282983,-0.1832524 -0.5330342,-0.1853517 -0.5380679,-0.186567 -0.5432348,-0.1869592 -0.5432348,-0.1869592 -0.5500359,-0.1864503 -0.5564985,-0.1843016 -0.5592894,-0.1823312 -0.5616881,-0.1798923 -0.5655898,-0.1742985 -0.6599797,-0.0118235 -0.6950564,-0.0118235 -0.6950006,-0.1546292 -0.6950006,-0.1546292 -0.695712,-0.1672127 -0.6970115,-0.1733884 -0.6993857,-0.1792284 -0.7034031,-0.1840691 -0.7088375,-0.1872483 -0.7149358,-0.1888424 -0.721234,-0.1891761 -0.721234,-0.1891761 -0.7273246,-0.1886257 -0.733208,-0.1869808 -0.7385486,-0.1840017 -0.7429413,-0.1797542 -0.7429413,-0.1797542 -0.7449186,-0.1767754 -0.7462936,-0.1735002 -0.747185,-0.1664285 -0.7474117,-0.1521727 -0.7473751,0.1989676 -0.7473751,0.1989676 -0.7474575,0.2065618 -0.7464757,0.2140819 -0.7440397,0.2212732 -0.7420656,0.2245193 -0.7395548,0.2273789 -0.7365891,0.2297612 -0.7332801,0.2316236 -0.726083,0.2340566 -0.7185996,0.2352954 -0.7110184,0.2357312 -0.6267383,0.2357313 -0.6267383,0.2357313 -0.6152579,0.2350178 -0.6038898,0.2332681 -0.592741,0.2304411 -0.582007,0.2263079 -0.5718285,0.2209558 -0.5623635,0.2144181 -0.5536778,0.2068821 -0.5458766,0.1984262 -0.5390096,0.1892034 -0.5331182,0.1793198 -0.5282453,0.1689061 -0.5244238,0.1580525 -0.5214932,0.1469332 -0.5194263,0.135614 -0.5181411,0.1241865 -0.517648,0.1126929 -0.517648,0.1126929 -0.5189776,0.0934355 -0.5204762,0.0838992 -0.5225889,0.0744789 -0.5253061,0.0652157 -0.5286723,0.0561674 -0.5327304,0.0474093 -0.5373955,0.0389564 -0.5426247,0.0308422 -0.548504,0.0231865 -0.5550144,0.0160562 -0.5621897,0.0096045 -0.5699229,0.0038196 -0.5782447,-0.0010619 -0.5870388,-0.0050487 -0.5962039,-0.008076 -0.6013059,-0.0093252 -0.5266425,-0.1388973z M-0.624903,0.1832643 L-0.6950564,0.1832643 -0.6950564,0.0406434 -0.6286781,0.0406434 -0.6286781,0.0406434 -0.6181302,0.0410919 -0.6077441,0.0429217 -0.6028055,0.0448288 -0.5982176,0.047462 -0.5904365,0.0545915 -0.5904365,0.0545915 -0.5854018,0.0605544 -0.5810819,0.067055 -0.5775494,0.0740139 -0.5747884,0.0813139 -0.5711628,0.0964853 -0.5700224,0.1120463 -0.5700224,0.1120463 -0.5704833,0.1211697 -0.5716131,0.1302349 -0.5736805,0.1391322 -0.5765836,0.1477935 -0.5803653,0.1561119 -0.5852515,0.1638217 -0.5911098,0.1708383 -0.5981033,0.1767061 -0.5981033,0.1767061 -0.6041424,0.1803052 -0.6108744,0.1823472 -0.624903,0.1832643z" transform="matrix(1,0,0,-1,1.2242969,0.473262)" fill="rgb(160,160,160)" fill-rule="nonzero" shaper:cutDepth="0.0000762" stroke-linecap="round" stroke-linejoin="round" /></svg>