<?xml version="1.0" encoding="utf-8"?>
<!-- Generator: Fusion 360, Shaper Origin Export Add-In, Version 1.6.10  -->
<svg xmlns="http://www.w3.org/2000/svg" xmlns:xlink="http://www.w3.org/1999/xlink" xmlns:shaper="http://www.shapertools.com/namespaces/shaper" shaper:fusionaddin="version:1.6.10" width="2.3008cm" height="0.9008cm" version="1.1" x="0cm" y="0cm" viewBox="0 0 2.3008 0.9008" enable-background="new 0 0 2.3008 0.9008" xml:space="preserve"><path d="M-1.4285526,0.4504 L0.8722474,0.4504 0.8722474,-0.4504 -1.4285526,-0.4504 -1.4285526,0.4504z" transform="matrix(1,0,0,-1,1.4285526,0.4504)" fill="rgb(0,0,0)" shaper:cutDepth="0.000127" stroke-linecap="round" stroke-linejoin="round" /><path d="M0.5709232,0.1909774 L0.5127714,-0.0668728 0.4540312,0.1891576 0.4540312,0.1891576 0.4512557,0.1980771 0.4489482,0.2021534 0.4458837,0.2056872 0.442108,0.208451 0.4378267,0.2103403 0.4332547,0.2113371 0.4285792,0.2115762 0.4285792,0.2115762 0.4234481,0.211062 0.4184903,0.2096487 0.4139239,0.2072556 0.4099226,0.2040041 0.4066702,0.2000036 0.4043069,0.1954212 0.4028587,0.1904742 0.4023458,0.1853427 0.4023458,0.1853427 0.4032055,0.1782494 0.4049322,0.1713023 0.4853167,-0.1817991 0.4853167,-0.1817991 0.488152,-0.1939901 0.489857,-0.2000131 0.4913581,-0.2027604 0.4937009,-0.2048331 0.4937009,-0.2048331 0.4978271,-0.2080401 0.502546,-0.2102934 0.5076135,-0.2115671 0.5128217,-0.212038 0.5128217,-0.212038 0.5180488,-0.2117762 0.5231508,-0.210623 0.5278409,-0.2082991 0.5317311,-0.2048263 0.5346255,-0.2004556 0.536801,-0.1957002 0.5396093,-0.1856199 0.5964122,0.064654 0.6538753,-0.1862684 0.6538753,-0.1862684 0.6567163,-0.1962838 0.6588057,-0.2010669 0.6617289,-0.205363 0.6656722,-0.2087713 0.670441,-0.2108474 0.6755432,-0.2118887 0.6807525,-0.212038 0.6807525,-0.212038 0.6856995,-0.2118383 0.6905234,-0.210739 0.694893,-0.2084128 0.698612,-0.2051498 0.7015597,-0.2011739 0.7038652,-0.1967874 0.7068935,-0.1873749 0.7885945,0.1747634 0.7885945,0.1747634 0.7905029,0.1814229 0.7912284,0.1882986 0.7912284,0.1882986 0.790703,0.1932732 0.7893871,0.1980923 0.7872617,0.2026193 0.7841638,0.2065382 0.7801069,0.2094549 0.7755026,0.2114049 0.7706309,0.2125138 0.7656416,0.2128694 0.7656416,0.2128694 0.7610082,0.2126402 0.756449,0.2117896 0.7521338,0.2100909 0.7482651,0.2075353 0.7450625,0.2041829 0.7425849,0.2002604 0.7395005,0.1915316 0.680053,-0.0658498 0.6213129,0.1934205 0.6213129,0.1934205 0.620322,0.1977255 0.6187133,0.201837 0.6163328,0.2055565 0.6131871,0.2086531 0.6094072,0.2109321 0.6052091,0.2123055 0.6008352,0.2129023 0.5964176,0.2128694 0.5964176,0.2128694 0.5917525,0.2127248 0.5871594,0.2119191 0.5827725,0.2103382 0.5790284,0.2075589 0.5760967,0.2039352 0.5739052,0.1998136 0.5709232,0.1909774z" transform="matrix(1,0,0,-1,1.4285526,0.4504)" fill="rgb(160,160,160)" fill-rule="nonzero" shaper:cutDepth="0.0000762" stroke-linecap="round" stroke-linejoin="round" /><path d="M0.2282519,0.2128693 L0.1948706,0.2112065 0.1948706,0.2112065 0.1848938,0.2102154 0.1750609,0.208261 0.1654628,0.2053655 0.1562324,0.201454 0.1475239,0.1964881 0.1394297,0.1905733 0.1319947,0.1838481 0.1252657,0.1764161 0.119337,0.1683325 0.1142453,0.159695 0.1099862,0.1506203 0.1065874,0.1411871 0.1040162,0.131498 0.1022115,0.1216338 0.1010992,0.1116718 0.1006615,0.1016545 0.1006615,0.1016545 0.1014087,0.0885127 0.1032948,0.0754857 0.1066018,0.0627457 0.1111213,0.0503822 0.1168394,0.0385271 0.1238433,0.027383 0.1323344,0.0173265 0.1421362,0.0085443 0.1421362,0.0085443 0.1514527,0.0025976 0.161432,-0.0021585 0.1718638,-0.0058135 0.1825024,-0.0088214 0.2387245,-0.0230202 0.2387245,-0.0230202 0.2455865,-0.0248642 0.2521751,-0.0274957 0.2583421,-0.0310371 0.2636043,-0.0357938 0.2636043,-0.0357938 0.2685742,-0.0416473 0.2727117,-0.0481206 0.2761809,-0.0549714 0.2789562,-0.0621334 0.2826894,-0.0770242 0.2839259,-0.092325 0.2839259,-0.092325 0.2836107,-0.1001903 0.2825376,-0.1079858 0.2808417,-0.1156734 0.2784537,-0.1231719 0.2753642,-0.1304119 0.2715558,-0.1372982 0.2669951,-0.1437139 0.2616645,-0.1495027 0.2616645,-0.1495027 0.2541734,-0.1550854 0.245528,-0.1586646 0.2363616,-0.1604788 0.2270253,-0.1610491 0.1955251,-0.1611272 0.1955251,-0.1611272 0.1896428,-0.1612273 0.1837897,-0.1606763 0.1781029,-0.1591613 0.1727056,-0.1568313 0.1677996,-0.153589 0.1633488,-0.1497407 0.1593962,-0.1453851 0.1559648,-0.1406025 0.1505257,-0.130162 0.146946,-0.1189545 0.1452045,-0.107317 0.1447226,-0.095558 0.1447226,-0.095558 0.1439232,-0.0839533 0.1424622,-0.0783207 0.1400981,-0.0729969 0.1365466,-0.0683981 0.1317671,-0.0650861 0.1262217,-0.063332 0.120429,-0.0627662 0.120429,-0.0627662 0.1139754,-0.0635949 0.1078315,-0.0657283 0.1024609,-0.069389 0.0983072,-0.0743924 0.0954839,-0.0802502 0.0936895,-0.0865109 0.0926984,-0.0929368 0.0923481,-0.0994376 0.0923481,-0.0994376 0.0928621,-0.1101534 0.0940184,-0.1208193 0.0960389,-0.1313533 0.0987866,-0.141728 0.1025433,-0.1517704 0.1072695,-0.1614053 0.11292,-0.1705211 0.119505,-0.1789909 0.1269222,-0.1867404 0.1351277,-0.1936503 0.1440895,-0.1995449 0.1536923,-0.2043252 0.163777,-0.2079815 0.1741946,-0.210542 0.1848107,-0.2120796 0.1955267,-0.2125922 0.2289065,-0.212038 0.2289065,-0.212038 0.2401206,-0.211257 0.2512307,-0.2095476 0.2621086,-0.2067149 0.27264,-0.2027874 0.2825909,-0.1975574 0.2919502,-0.191335 0.3005034,-0.1840419 0.308184,-0.1758338 0.3150349,-0.1669212 0.3209026,-0.1573362 0.325751,-0.1471918 0.3296601,-0.1366542 0.3325396,-0.1257878 0.334556,-0.1147272 0.3357911,-0.1035557 0.3363004,-0.092325 0.3363004,-0.092325 0.3359252,-0.082267 0.3349376,-0.072253 0.3333574,-0.0623113 0.3310529,-0.052517 0.3280583,-0.0429062 0.3242916,-0.0335763 0.3198118,-0.024562 0.3145488,-0.0159855 0.3085101,-0.0079349 0.3018291,-0.0004069 0.2944377,0.0064204 0.2864668,0.0125657 0.277891,0.0178308 0.268893,0.0223387 0.2595444,0.026065 0.2499333,0.0290507 0.1935615,0.0431427 0.1935615,0.0431427 0.1858574,0.0454195 0.1784654,0.0485273 0.1716147,0.0527464 0.1661527,0.0586095 0.1661527,0.0586095 0.1603479,0.0682681 0.1561693,0.0787347 0.1538844,0.0897694 0.153036,0.1010079 0.153036,0.1010079 0.1541478,0.1147095 0.1554676,0.1214577 0.1574368,0.1280435 0.1599827,0.1344334 0.1632901,0.1404557 0.1672452,0.1460832 0.1719721,0.151073 0.1719721,0.151073 0.177774,0.1547335 0.1841525,0.157294 0.1907642,0.1591367 0.1975589,0.1601254 0.2236702,0.1606943 0.2262883,0.1606943 0.2262883,0.1606943 0.2357061,0.1599252 0.2447576,0.157217 0.2490027,0.1551285 0.2529445,0.1525199 0.2596511,0.1458722 0.2648155,0.1379575 0.26877,0.1293739 0.2717543,0.1204075 0.2741346,0.1112611 0.2741346,0.1112611 0.2780142,0.0971283 0.2780142,0.0971283 0.2820761,0.0918656 0.2875655,0.0881125 0.2939262,0.0861834 0.3005527,0.0855819 0.3005527,0.0855819 0.3058028,0.0862179 0.3109121,0.0875838 0.3155942,0.0900354 0.3195996,0.0934819 0.3225809,0.0978495 0.3245757,0.1027437 0.3256164,0.1079298 0.3260472,0.1132009 0.3260472,0.1132009 0.3248551,0.1254327 0.3219331,0.1373825 0.3178085,0.1489617 0.3126534,0.1601254 0.3126534,0.1601254 0.3060687,0.1709956 0.298263,0.1810179 0.2892961,0.1900265 0.2792598,0.197817 0.2682956,0.2042407 0.2565876,0.2091739 0.2442333,0.2121471 0.2315515,0.2128694 0.2282519,0.2128693z" transform="matrix(1,0,0,-1,1.4285526,0.4504)" fill="rgb(160,160,160)" fill-rule="nonzero" shaper:cutDepth="0.0000762" stroke-linecap="round" stroke-linejoin="round" /><path d="M-0.2489633,-0.1796157 L-0.2489633,-0.1796157 -0.2490246,-0.1856456 -0.2496895,-0.1916295 -0.2511746,-0.1974791 -0.253792,-0.2028963 -0.257751,-0.2074405 -0.2629472,-0.2104681 -0.2688019,-0.2118822 -0.2748273,-0.212038 -0.2748273,-0.212038 -0.2807848,-0.211477 -0.2865574,-0.2099152 -0.2918291,-0.2070867 -0.2963497,-0.2031704 -0.2963497,-0.2031704 -0.2983879,-0.2003412 -0.2998285,-0.1972017 -0.3010698,-0.1903622 -0.3014302,-0.1764753 -0.3014302,0.1604024 -0.3652586,0.1604025 -0.3652586,0.1604025 -0.3712358,0.160709 -0.3771435,0.1616275 -0.3828558,0.1634291 -0.3880085,0.1664479 -0.3922609,0.1706569 -0.3951233,0.1759032 -0.3966366,0.1816884 -0.3971267,0.187652 -0.3971267,0.187652 -0.3966515,0.1937396 -0.3948408,0.1995627 -0.3913119,0.2045473 -0.3864762,0.2082441 -0.3808253,0.2105765 -0.374895,0.2120378 -0.3627243,0.2128693 -0.1843959,0.2128694 -0.1843959,0.2128694 -0.1784996,0.2125573 -0.1726766,0.2116101 -0.1670674,0.209762 -0.1619941,0.2067559 -0.1578932,0.2025172 -0.15512,0.1973109 -0.1536531,0.1915963 -0.1531744,0.1857122 -0.1531744,0.1857122 -0.1537178,0.1798646 -0.1554197,0.1742487 -0.1586404,0.1693393 -0.1630861,0.1655214 -0.1683956,0.1630039 -0.174066,0.1614746 -0.1857538,0.1604024 -0.2489633,0.1604024 -0.2489633,-0.1796157z" transform="matrix(1,0,0,-1,1.4285526,0.4504)" fill="rgb(160,160,160)" fill-rule="nonzero" shaper:cutDepth="0.0000762" stroke-linecap="round" stroke-linejoin="round" /><path d="M-0.5622863,-0.1796157 L-0.5622863,-0.1796157 -0.5623476,-0.1856456 -0.5630125,-0.1916295 -0.5644976,-0.1974791 -0.567115,-0.2028963 -0.571074,-0.2074405 -0.5762702,-0.2104681 -0.5821249,-0.2118822 -0.5881503,-0.212038 -0.5881503,-0.212038 -0.5941078,-0.211477 -0.5998804,-0.2099152 -0.6051521,-0.2070867 -0.6096727,-0.2031704 -0.6096727,-0.2031704 -0.6117109,-0.2003412 -0.6131515,-0.1972017 -0.6143928,-0.1903622 -0.6147532,-0.1764753 -0.6147532,0.1604024 -0.6785816,0.1604025 -0.6785816,0.1604025 -0.6845588,0.160709 -0.6904665,0.1616275 -0.6961788,0.1634291 -0.7013315,0.1664479 -0.7055839,0.1706569 -0.7084463,0.1759032 -0.7099596,0.1816884 -0.7104497,0.187652 -0.7104497,0.187652 -0.7099745,0.1937396 -0.7081638,0.1995627 -0.7046349,0.2045473 -0.6997992,0.2082441 -0.6941483,0.2105765 -0.688218,0.2120378 -0.6760473,0.2128693 -0.4977189,0.2128694 -0.4977189,0.2128694 -0.4918226,0.2125573 -0.4859996,0.2116101 -0.4803904,0.209762 -0.4753171,0.2067559 -0.4712162,0.2025172 -0.468443,0.1973109 -0.4669761,0.1915963 -0.4664974,0.1857122 -0.4664974,0.1857122 -0.4670408,0.1798646 -0.4687427,0.1742487 -0.4719634,0.1693393 -0.4764091,0.1655214 -0.4817186,0.1630039 -0.487389,0.1614746 -0.4990768,0.1604024 -0.5622863,0.1604024 -0.5622863,-0.1796157z" transform="matrix(1,0,0,-1,1.4285526,0.4504)" fill="rgb(160,160,160)" fill-rule="nonzero" shaper:cutDepth="0.0000762" stroke-linecap="round" stroke-linejoin="round" /><path d="M-0.9895717,-0.141097 L-1.0061298,-0.1958731 -1.0061298,-0.1958731 -1.0097665,-0.2029971 -1.01243,-0.2059818 -1.0156567,-0.2083974 -1.0192621,-0.2101751 -1.0231007,-0.2112899 -1.03107,-0.212038 -1.03107,-0.212038 -1.0407358,-0.2105106 -1.0452318,-0.2085613 -1.049322,-0.2058619 -1.0528942,-0.2025017 -1.0555764,-0.1984056 -1.057289,-0.1938128 -1.0578576,-0.1889452 -1.0578576,-0.1889452 -1.0572586,-0.1833206 -1.0558864,-0.1778228 -1.0527812,-0.1669286 -0.9441487,0.1946722 -0.9441487,0.1946722 -0.9427429,0.1987171 -0.9407632,0.2025112 -0.9381615,0.2059116 -0.9349563,0.2087475 -0.9312538,0.2108912 -0.927165,0.2121675 -0.9229369,0.212818 -0.9186543,0.2128694 -0.9186543,0.2128694 -0.9136276,0.2127074 -0.9086889,0.2117642 -0.9040887,0.2097428 -0.9001388,0.2066331 -0.8970913,0.2026455 -0.8947157,0.1982018 -0.8912459,0.1887769 -0.7813907,-0.1713023 -0.7813907,-0.1713023 -0.7791572,-0.1793648 -0.7781577,-0.187652 -0.7781577,-0.187652 -0.7786699,-0.192697 -0.7801882,-0.197532 -0.7827507,-0.2019043 -0.7862475,-0.2055763 -0.7903875,-0.2084968 -0.7950482,-0.2104999 -0.7999798,-0.2116614 -0.8050378,-0.212038 -0.8050378,-0.212038 -0.8137262,-0.2112094 -0.8178305,-0.2097053 -0.8215415,-0.2073953 -0.8247194,-0.204398 -0.8272127,-0.2008021 -0.8291865,-0.1969053 -0.8305903,-0.1927623 -0.8465523,-0.141097 -0.9895717,-0.141097z M-0.8631528,-0.0886301 L-0.918062,0.0952251 -0.9729712,-0.0886301 -0.8631528,-0.0886301z" transform="matrix(1,0,0,-1,1.4285526,0.4504)" fill="rgb(160,160,160)" fill-rule="nonzero" shaper:cutDepth="0.0000762" stroke-linecap="round" stroke-linejoin="round" /><path d="M-1.1622371,0.0183357 L-1.1622371,0.0183357 -1.1536695,0.0076805 -1.1458931,-0.0035621 -1.1390331,-0.0153889 -1.1332709,-0.0277857 -1.12891,-0.0407418 -1.1259936,-0.0540979 -1.1243383,-0.067668 -1.123903,-0.0813328 -1.123903,-0.0813328 -1.1246697,-0.0966274 -1.1265721,-0.1118216 -1.1299595,-0.1267556 -1.1347654,-0.1412952 -1.1410292,-0.1552692 -1.1488557,-0.1684267 -1.15825,-0.1805225 -1.1692573,-0.1911621 -1.1692573,-0.1911621 -1.1765191,-0.1962823 -1.1841546,-0.2008255 -1.1921856,-0.2046259 -1.2005577,-0.207599 -1.209176,-0.2097616 -1.2179479,-0.2111693 -1.2356928,-0.212038 -1.3301678,-0.212038 -1.3301678,-0.212038 -1.3369755,-0.211807 -1.3437018,-0.2107653 -1.3501249,-0.2085065 -1.3530553,-0.2067547 -1.3556107,-0.2044995 -1.3576417,-0.2017588 -1.359148,-0.1986971 -1.3609226,-0.1921209 -1.3615574,-0.1853446 -1.3614733,-0.1785333 -1.3613893,0.1806318 -1.3613893,0.1806318 -1.3612374,0.1871809 -1.3602876,0.1936534 -1.3582643,0.1998849 -1.3546284,0.2053134 -1.3493371,0.2091471 -1.3431736,0.2113644 -1.3367262,0.2124841 -1.3301878,0.2128693 -1.2196919,0.2128694 -1.2196919,0.2128694 -1.2096425,0.2121423 -1.199697,0.21053 -1.1900052,0.2077753 -1.1806604,0.204013 -1.171863,0.1991005 -1.1636671,0.1932418 -1.1561399,0.1865444 -1.1493396,0.1791099 -1.1432864,0.1710548 -1.1380409,0.1624529 -1.1336948,0.1533627 -1.130221,0.1439049 -1.1275044,0.1342012 -1.1255492,0.1243177 -1.123903,0.1042409 -1.123903,0.1042409 -1.1242362,0.0923649 -1.1257444,0.0805823 -1.1284003,0.0690024 -1.1323537,0.0578004 -1.1374446,0.0470671 -1.1436761,0.0369525 -1.1509368,0.0275507 -1.1590752,0.0188956 -1.1597137,0.0188956 -1.1622371,0.0183357z M-1.3123104,-0.1595712 L-1.2394594,-0.1595712 -1.2394594,-0.1595712 -1.2275461,-0.1590716 -1.2158379,-0.1568566 -1.210315,-0.1546227 -1.2052396,-0.1514936 -1.2006711,-0.1476617 -1.1966915,-0.1432215 -1.1966915,-0.1432215 -1.1918068,-0.1366899 -1.1875236,-0.1297486 -1.1839438,-0.1224203 -1.1810889,-0.1147798 -1.1789555,-0.106908 -1.1774937,-0.0988827 -1.1762775,-0.082626 -1.1762775,-0.082626 -1.1767567,-0.0730696 -1.1780069,-0.0635832 -1.1802268,-0.0542773 -1.1832427,-0.0451943 -1.1872295,-0.0364987 -1.1921752,-0.0283086 -1.1980837,-0.0207817 -1.2050049,-0.014179 -1.2050049,-0.014179 -1.2116384,-0.0096521 -1.2191048,-0.0066964 -1.2270235,-0.0053746 -1.2350543,-0.0051267 -1.3123104,-0.0051267 -1.3123104,-0.1595712z M-1.309118,0.0473402 L-1.2234791,0.0473402 -1.2234791,0.0473402 -1.2151036,0.0476288 -1.2068434,0.0490218 -1.2028829,0.0504164 -1.1991948,0.05243 -1.1929043,0.0579629 -1.1929043,0.0579629 -1.1853608,0.0680233 -1.1824277,0.0735879 -1.180116,0.0794596 -1.1783739,0.0855154 -1.1772226,0.0916946 -1.1762775,0.1042409 -1.1762775,0.1042409 -1.1774099,0.1169569 -1.1804087,0.1293592 -1.1827924,0.135301 -1.1858179,0.140923 -1.1935509,0.151073 -1.1935509,0.151073 -1.2000216,0.1562092 -1.2037661,0.1579894 -1.2077455,0.1591227 -1.2159329,0.1602203 -1.2242002,0.1604024 -1.309118,0.1604024 -1.309118,0.0473402z" transform="matrix(1,0,0,-1,1.4285526,0.4504)" fill="rgb(160,160,160)" fill-rule="nonzero" shaper:cutDepth="0.0000762" stroke-linecap="round" stroke-linejoin="round" /></svg>