<?xml version="1.0" encoding="utf-8"?>
<!-- Generator: Fusion 360, Shaper Origin Export Add-In, Version 1.6.10  -->
<svg xmlns="http://www.w3.org/2000/svg" xmlns:xlink="http://www.w3.org/1999/xlink" xmlns:shaper="http://www.shapertools.com/namespaces/shaper" shaper:fusionaddin="version:1.6.10" width="2.3008cm" height="0.9008cm" version="1.1" x="0cm" y="0cm" viewBox="0 0 2.3008 0.9008" enable-background="new 0 0 2.3008 0.9008" xml:space="preserve"><path d="M-0.5724567,0.473262 L1.7283433,0.473262 1.7283433,-0.427538 -0.5724567,-0.427538 -0.5724567,0.473262z" transform="matrix(1,0,0,-1,0.5724567,0.473262)" fill="rgb(0,0,0)" shaper:cutDepth="0.000127" stroke-linecap="round" stroke-linejoin="round" /><path d="M1.1873159,0.2017387 L1.1872792,-0.0558549 1.0479045,0.2194992 1.0479045,0.2194992 1.0437195,0.2264044 1.0410345,0.2294105 1.0378698,0.2319454 1.0343131,0.2339133 1.0304812,0.2351746 1.0224334,0.2357313 1.0224334,0.2357313 1.0174745,0.2353956 1.0126881,0.2340689 1.0082919,0.2317533 1.0045134,0.2285264 1.0045134,0.2285264 1.0020751,0.2260877 1.0001783,0.2232391 0.999082,0.2199676 0.9986066,0.2165672 0.9981397,0.2028472 0.9981031,-0.1549309 0.9981031,-0.1549309 0.9988908,-0.1673027 1.000132,-0.1733721 1.0024384,-0.1791316 1.0062744,-0.1839766 1.0115632,-0.1871899 1.0175368,-0.1888332 1.0237266,-0.1891761 1.0237266,-0.1891761 1.0294901,-0.1887739 1.0350986,-0.1873955 1.0401814,-0.1846573 1.0443633,-0.1806797 1.0473349,-0.1757296 1.0491615,-0.1702468 1.0505142,-0.1587859 1.0504585,0.1030528 1.1891946,-0.1742314 1.1891946,-0.1742314 1.1935828,-0.1805217 1.1962636,-0.183274 1.1993506,-0.1855694 1.2027949,-0.1872877 1.2064744,-0.188393 1.2141035,-0.1891761 1.2141035,-0.1891761 1.2197025,-0.1888508 1.2251282,-0.1874446 1.2300389,-0.1847459 1.2340039,-0.18079 1.2367483,-0.1759033 1.2384698,-0.170563 1.2393854,-0.1650342 1.2396904,-0.1594325 1.2396345,0.2040588 1.2396345,0.2040588 1.2388274,0.2159718 1.2373765,0.2217725 1.2347299,0.2271241 1.2305646,0.2313916 1.2252518,0.2341112 1.2194252,0.2354233 1.2134569,0.2357313 1.2134569,0.2357313 1.207201,0.2354929 1.2011296,0.2339851 1.1956743,0.2309494 1.1916747,0.2261456 1.1893084,0.22036 1.1880247,0.2142258 1.1873159,0.2017387z" transform="matrix(1,0,0,-1,0.5724567,0.473262)" fill="rgb(160,160,160)" fill-rule="nonzero" shaper:cutDepth="0.0000762" stroke-linecap="round" stroke-linejoin="round" /><path d="M0.8548721,0.0761139 L0.8548721,0.0761139 0.8607827,0.0759679 0.8666311,0.0751526 0.8722937,0.0734453 0.8774762,0.0706198 0.8817066,0.0664982 0.8844033,0.0612478 0.885787,0.0555067 0.8860935,0.0496034 0.8860935,0.0496034 0.8858407,0.0435098 0.884289,0.037616 0.8811234,0.0324125 0.8764848,0.0284696 0.8709431,0.0259204 0.8650276,0.0244382 0.8528657,0.023647 0.7430472,0.023647 0.7430472,-0.1367092 0.9001339,-0.1367092 0.9001339,-0.1367092 0.9062326,-0.1367789 0.9122844,-0.137476 0.9181858,-0.1390229 0.9236423,-0.1417337 0.928073,-0.1459062 0.9310759,-0.1512053 0.9325088,-0.1571274 0.932741,-0.1632198 0.932741,-0.1632198 0.932461,-0.1695214 0.9306688,-0.1755636 0.9271173,-0.180769 0.9221257,-0.1846044 0.9162958,-0.1870229 0.9101453,-0.1884256 0.8975593,-0.1891761 0.7233355,-0.1891761 0.7233355,-0.1891761 0.7161638,-0.1890314 0.7090463,-0.1881565 0.7022067,-0.1860067 0.6990758,-0.1842321 0.6963685,-0.1818758 0.6942828,-0.1789554 0.6927547,-0.1756955 0.6910416,-0.1687395 0.6906919,-0.154407 0.6907285,0.2016463 0.6907285,0.2016463 0.6907269,0.2087352 0.6914186,0.2157926 0.693402,0.2225909 0.6950244,0.2257581 0.6971664,0.2285856 0.699889,0.2308592 0.7030087,0.232567 0.7097778,0.2346697 0.7168033,0.2355878 0.7238928,0.2357312 0.8994873,0.2357313 0.8994873,0.2357313 0.9053824,0.235659 0.9112296,0.2349708 0.9169219,0.2334175 0.9221288,0.2306834 0.9264448,0.2266701 0.9292358,0.2214924 0.930571,0.2157566 0.9308012,0.2098674 0.9308012,0.2098674 0.9305603,0.2036979 0.9290794,0.1977082 0.9259824,0.1923756 0.9213893,0.1882674 0.9158403,0.1855562 0.9098748,0.1839735 0.8975593,0.1832643 0.7430472,0.1832643 0.7430472,0.0761139 0.8548721,0.0761139z" transform="matrix(1,0,0,-1,0.5724567,0.473262)" fill="rgb(160,160,160)" fill-rule="nonzero" shaper:cutDepth="0.0000762" stroke-linecap="round" stroke-linejoin="round" /><path d="M0.5407177,0.0000001 L0.5724567,0 0.5724567,-0.0664169 0.5724567,-0.0664169 0.5719253,-0.078497 0.5704931,-0.0904957 0.5677029,-0.1022662 0.5631227,-0.1134451 0.5599834,-0.1186209 0.5562294,-0.1233779 0.5518215,-0.1275148 0.5467938,-0.1308864 0.5413145,-0.1334877 0.535535,-0.1352752 0.5235367,-0.1367092 0.5235367,-0.1367092 0.5135019,-0.1355334 0.5038621,-0.1325134 0.4950164,-0.1276354 0.4872348,-0.1211909 0.4872348,-0.1211909 0.474744,-0.1059198 0.4691447,-0.0977924 0.4640793,-0.089321 0.4553925,-0.0716051 0.4482942,-0.053196 0.4427632,-0.034256 0.4388097,-0.0149245 0.4365153,0.0046718 0.4356917,0.0243861 0.4356917,0.0243861 0.4371529,0.0488054 0.4408338,0.0729919 0.4435505,0.0849218 0.4468789,0.0966954 0.4508429,0.1082706 0.4554905,0.1195884 0.4608094,0.130607 0.4668206,0.1412631 0.4735945,0.1514522 0.4813401,0.160921 0.4901902,0.1693641 0.4950569,0.1730812 0.5002573,0.1762968 0.5115161,0.1810952 0.5174595,0.1824927 0.5235367,0.1832645 0.5235367,0.1832645 0.5324303,0.1824649 0.5408771,0.1795379 0.5484485,0.1748019 0.5550297,0.1687514 0.5661491,0.1547581 0.5757264,0.1396653 0.5757264,0.1396653 0.5797791,0.1334438 0.5847741,0.1279549 0.587844,0.1258446 0.591275,0.1243889 0.5986344,0.123408 0.5986344,0.123408 0.6041721,0.1240363 0.6094927,0.1256893 0.6142521,0.1285877 0.6182959,0.1324195 0.6214656,0.1370045 0.6237541,0.1420858 0.6250566,0.1475032 0.6255145,0.1530591 0.6255145,0.1530591 0.6250616,0.1582249 0.6238676,0.1632369 0.6194316,0.1725911 0.6137614,0.1812429 0.6075945,0.1895457 0.6075945,0.1895457 0.5993538,0.1989545 0.590563,0.2078521 0.5809804,0.2158875 0.5706295,0.2229114 0.5594767,0.2285643 0.5476547,0.2326419 0.5353751,0.2350117 0.5228901,0.2357313 0.5228901,0.2357313 0.5139885,0.2352584 0.5051586,0.2340349 0.496483,0.231987 0.4880189,0.2291896 0.4797735,0.2258011 0.4718615,0.2216955 0.4643285,0.2169285 0.4573066,0.2114377 0.4573066,0.2114377 0.448079,0.2022593 0.4395012,0.1924706 0.4316142,0.1821169 0.4243665,0.171307 0.4177773,0.1600818 0.4118506,0.1484954 0.4017148,0.1245243 0.3938054,0.0997207 0.3880025,0.0743443 0.3859675,0.0614821 0.3845737,0.0485405 0.3833173,0.0225387 0.3833173,0.0225387 0.3840306,0.0027212 0.3859778,-0.0170131 0.3892757,-0.0365674 0.3938715,-0.0558575 0.3996704,-0.0748215 0.4068395,-0.0933096 0.4154514,-0.1111726 0.4254385,-0.1283035 0.4254385,-0.1283035 0.4340011,-0.1404798 0.4434352,-0.1519892 0.4539637,-0.1625143 0.4656354,-0.1717452 0.4784251,-0.1793625 0.4852157,-0.1824064 0.4922364,-0.1848882 0.4994298,-0.1868427 0.5067484,-0.1882028 0.5215969,-0.1891761 0.5215969,-0.1891761 0.535086,-0.1882032 0.5483095,-0.1853596 0.5610596,-0.1808518 0.5731414,-0.1747714 0.5843483,-0.1672006 0.5945291,-0.1582946 0.6035856,-0.1482515 0.611474,-0.1372635 0.611474,-0.1372635 0.6181441,-0.1247765 0.6206525,-0.1181489 0.6224694,-0.1113001 0.6244112,-0.0972847 0.6248679,-0.083134 0.624812,0.0168639 0.624812,0.0168639 0.6248715,0.0241353 0.6241812,0.0313665 0.6223981,0.0384144 0.6208971,0.041736 0.6188198,0.0447253 0.6161161,0.0471546 0.6129787,0.04902 0.6060938,0.0513242 0.5988783,0.0522319 0.5916142,0.0524669 0.542552,0.0524669 0.542552,0.0524669 0.5315434,0.0521703 0.5260814,0.0513867 0.5209503,0.0494187 0.5209503,0.0494187 0.5152757,0.0451373 0.5111225,0.0393432 0.5084906,0.0327382 0.5075565,0.0256793 0.5075565,0.0256793 0.5085876,0.0187749 0.5111222,0.0122829 0.5153316,0.0067174 0.5209503,0.0025865 0.5209503,0.0025865 0.5257411,0.0011079 0.530694,0.0003131 0.5407177,0.0000001z" transform="matrix(1,0,0,-1,0.5724567,0.473262)" fill="rgb(160,160,160)" fill-rule="nonzero" shaper:cutDepth="0.0000762" stroke-linecap="round" stroke-linejoin="round" /><path d="M0.1151638,-0.142621 L0.1151638,-0.142621 0.1229173,-0.1428552 0.1267758,-0.1432985 0.1304974,-0.144376 0.1304974,-0.144376 0.1364179,-0.1478051 0.1407685,-0.1531244 0.1435196,-0.1593929 0.1445378,-0.1661756 0.1445378,-0.1661756 0.1432259,-0.1737989 0.1416945,-0.1773585 0.1395188,-0.1805833 0.133827,-0.1857907 0.1266178,-0.1885295 0.1266178,-0.1885295 0.1192843,-0.1891494 0.1119089,-0.1891761 -0.0699481,-0.1891761 -0.0699481,-0.1891761 -0.076411,-0.1887916 -0.082786,-0.1876891 -0.0888935,-0.1855433 -0.0942622,-0.1819418 -0.0980791,-0.1767298 -0.1002218,-0.1706244 -0.1010521,-0.1642084 -0.1009849,-0.1577341 -0.1009848,0.207281 -0.1009848,0.207281 -0.0996409,0.2181509 -0.0978438,0.2233276 -0.095047,0.2280465 -0.0910203,0.2317516 -0.0861285,0.2342211 -0.0807793,0.2354161 -0.0753056,0.2357313 -0.0753056,0.2357313 -0.0697958,0.2354188 -0.0643936,0.2342867 -0.059474,0.2317951 -0.055395,0.2280898 -0.0525053,0.2233876 -0.050717,0.2181678 -0.0498678,0.2127145 -0.0496264,0.2071996 -0.0496264,-0.142621 0.1151638,-0.142621z" transform="matrix(1,0,0,-1,0.5724567,0.473262)" fill="rgb(160,160,160)" fill-rule="nonzero" shaper:cutDepth="0.0000762" stroke-linecap="round" stroke-linejoin="round" /></svg>