<?xml version="1.0" encoding="utf-8"?>
<!-- Generator: Fusion 360, Shaper Origin Export Add-In, Version 1.6.10  -->
<svg xmlns="http://www.w3.org/2000/svg" xmlns:xlink="http://www.w3.org/1999/xlink" xmlns:shaper="http://www.shapertools.com/namespaces/shaper" shaper:fusionaddin="version:1.6.10" width="2.3008cm" height="0.9008cm" version="1.1" x="0cm" y="0cm" viewBox="0 0 2.3008 0.9008" enable-background="new 0 0 2.3008 0.9008" xml:space="preserve"><path d="M-1.1504,0.4504 L1.1504,0.4504 1.1504,-0.4504 -1.1504,-0.4504 -1.1504,0.4504z" transform="matrix(1,0,0,-1,1.1504,0.4504)" fill="rgb(0,0,0)" shaper:cutDepth="0.000127" stroke-linecap="round" stroke-linejoin="round" /><path d="M0.9071772,0.2128694 L0.9071015,0.2128693 0.9071015,0.2128693 0.8952983,0.2120705 0.8836657,0.2099116 0.8723522,0.2064543 0.8615072,0.2017292 0.8512478,0.1958346 0.8415614,0.1890422 0.8325566,0.1813685 0.8241356,0.1730574 0.8241356,0.1730574 0.8100826,0.1549105 0.8039069,0.1452311 0.7983114,0.1351984 0.7886171,0.1143927 0.7807052,0.09284 0.7744369,0.0707575 0.7698887,0.0482533 0.767041,0.0254758 0.7660341,0.0025402 0.7660341,0.0025402 0.7668149,-0.019167 0.7691663,-0.0407593 0.7729415,-0.0621506 0.7782101,-0.0832221 0.7849848,-0.1038601 0.7933727,-0.1238946 0.8034417,-0.1431414 0.8151756,-0.1614186 0.8151756,-0.1614186 0.8236042,-0.1720407 0.8329866,-0.1818296 0.8434461,-0.190457 0.854747,-0.1979518 0.8668886,-0.2039855 0.8797189,-0.2083665 0.8930074,-0.2110632 0.9065306,-0.212038 0.9065306,-0.212038 0.918606,-0.2110563 0.9304716,-0.2086024 0.9419615,-0.2047608 0.9529352,-0.1996236 0.9632963,-0.1933428 0.9729464,-0.1860163 0.9816766,-0.1776153 0.9894799,-0.1683465 0.9894799,-0.1683465 1.0015521,-0.1508558 1.006995,-0.1417323 1.008431,-0.136617 1.0086932,-0.1313056 1.0086932,-0.1313056 1.0071001,-0.1212722 1.0051253,-0.116588 1.0021873,-0.1124357 0.9982627,-0.109205 0.9937363,-0.1068911 0.9888103,-0.1056205 0.9837529,-0.1050722 0.9837529,-0.1050722 0.977511,-0.1056324 0.9715206,-0.1074052 0.9661107,-0.1105787 0.9620457,-0.1153254 0.9620457,-0.1153254 0.9519857,-0.1310712 0.9463311,-0.1385162 0.94006,-0.1454415 0.9328826,-0.1514275 0.9247459,-0.1559987 0.9158359,-0.1588295 0.9065306,-0.1595712 0.9065306,-0.1595712 0.8943823,-0.1573734 0.888576,-0.155232 0.8830382,-0.1524826 0.872881,-0.1454538 0.8640021,-0.1368574 0.856184,-0.127287 0.8493767,-0.116971 0.8433435,-0.106181 0.8379847,-0.0950447 0.833395,-0.0835668 0.8294259,-0.0718612 0.8260853,-0.0599605 0.8234502,-0.0478844 0.8199045,-0.0234238 0.8184085,0.001247 0.8184085,0.001247 0.8199055,0.0258564 0.8234786,0.050251 0.8262152,0.0622731 0.8296495,0.0741153 0.8336342,0.0857844 0.8383774,0.0971642 0.8438537,0.1082126 0.8500714,0.118859 0.8570451,0.1290269 0.8649263,0.1385095 0.8740164,0.1468314 0.8842877,0.1536341 0.8956882,0.1583372 0.901693,0.159683 0.9078238,0.1604025 0.9078238,0.1604025 0.9159863,0.1597205 0.9238191,0.1573086 0.9310702,0.1534886 0.9375772,0.1485129 0.9433902,0.1427274 0.94862,0.1364184 0.9576119,0.1227151 0.9576119,0.1227151 0.961869,0.1160606 0.9674952,0.1105435 0.970901,0.1084841 0.974601,0.107103 0.9824597,0.1064578 0.9824597,0.1064578 0.9877415,0.1069693 0.992865,0.1083474 0.9975306,0.1108723 1.0015706,0.11431 1.0047748,0.1185389 1.0070142,0.1233485 1.0082333,0.1285124 1.0086932,0.1337996 1.0086932,0.1337996 1.0079681,0.1412377 1.005028,0.1481099 0.9965002,0.1604025 0.9965002,0.1604025 0.9881484,0.1710096 0.9790792,0.1810017 0.9692117,0.1902208 0.9583841,0.1982711 0.9465639,0.2047935 0.9338815,0.2093956 0.9206501,0.212067 0.9071772,0.2128694z" transform="matrix(1,0,0,-1,1.1504,0.4504)" fill="rgb(160,160,160)" fill-rule="nonzero" shaper:cutDepth="0.0000762" stroke-linecap="round" stroke-linejoin="round" /><path d="M0.599766,0.2128694 L0.5996902,0.2128693 0.5996902,0.2128693 0.587887,0.2120705 0.5762545,0.2099116 0.5649409,0.2064543 0.5540959,0.2017292 0.5438365,0.1958346 0.5341502,0.1890422 0.5251453,0.1813685 0.5167243,0.1730574 0.5167243,0.1730574 0.5026713,0.1549105 0.4964956,0.1452311 0.4909002,0.1351984 0.4812058,0.1143927 0.473294,0.09284 0.4670256,0.0707575 0.4624774,0.0482533 0.4596297,0.0254758 0.4586228,0.0025402 0.4586228,0.0025402 0.4594037,-0.019167 0.461755,-0.0407593 0.4655302,-0.0621506 0.4707989,-0.0832221 0.4775736,-0.1038601 0.4859615,-0.1238946 0.4960304,-0.1431414 0.5077643,-0.1614186 0.5077643,-0.1614186 0.516193,-0.1720407 0.5255754,-0.1818296 0.5360348,-0.190457 0.5473357,-0.1979518 0.5594774,-0.2039855 0.5723077,-0.2083665 0.5855962,-0.2110632 0.5991194,-0.212038 0.5991194,-0.212038 0.6111948,-0.2110563 0.6230603,-0.2086024 0.6345502,-0.2047608 0.6455239,-0.1996236 0.6558851,-0.1933428 0.6655352,-0.1860163 0.6742654,-0.1776153 0.6820687,-0.1683465 0.6820687,-0.1683465 0.6941409,-0.1508558 0.6995838,-0.1417323 0.7010197,-0.136617 0.7012819,-0.1313056 0.7012819,-0.1313056 0.6996888,-0.1212722 0.6977141,-0.116588 0.694776,-0.1124357 0.6908515,-0.109205 0.6863251,-0.1068911 0.681399,-0.1056205 0.6763417,-0.1050722 0.6763417,-0.1050722 0.6700998,-0.1056324 0.6641093,-0.1074052 0.6586994,-0.1105787 0.6546345,-0.1153254 0.6546345,-0.1153254 0.6445744,-0.1310712 0.6389199,-0.1385162 0.6326488,-0.1454415 0.6254713,-0.1514275 0.6173347,-0.1559987 0.6084246,-0.1588295 0.5991194,-0.1595712 0.5991194,-0.1595712 0.5869711,-0.1573734 0.5811647,-0.155232 0.575627,-0.1524826 0.5654698,-0.1454538 0.5565909,-0.1368574 0.5487728,-0.127287 0.5419654,-0.116971 0.5359323,-0.106181 0.5305734,-0.0950447 0.5259838,-0.0835668 0.5220146,-0.0718612 0.5186741,-0.0599605 0.516039,-0.0478844 0.5124932,-0.0234238 0.5109973,0.001247 0.5109973,0.001247 0.5124942,0.0258564 0.5160673,0.050251 0.5188039,0.0622731 0.5222383,0.0741153 0.5262229,0.0857844 0.5309661,0.0971642 0.5364425,0.1082126 0.5426602,0.118859 0.5496339,0.1290269 0.557515,0.1385095 0.5666051,0.1468314 0.5768764,0.1536341 0.588277,0.1583372 0.5942818,0.159683 0.6004126,0.1604025 0.6004126,0.1604025 0.608575,0.1597205 0.6164079,0.1573086 0.623659,0.1534886 0.630166,0.1485129 0.6359789,0.1427274 0.6412087,0.1364184 0.6502006,0.1227151 0.6502006,0.1227151 0.6544578,0.1160606 0.6600839,0.1105435 0.6634898,0.1084841 0.6671898,0.107103 0.6750485,0.1064578 0.6750485,0.1064578 0.6803302,0.1069693 0.6854537,0.1083474 0.6901193,0.1108723 0.6941594,0.11431 0.6973636,0.1185389 0.699603,0.1233485 0.700822,0.1285124 0.7012819,0.1337996 0.7012819,0.1337996 0.7005568,0.1412377 0.6976168,0.1481099 0.6890889,0.1604025 0.6890889,0.1604025 0.6807371,0.1710096 0.6716679,0.1810017 0.6618004,0.1902208 0.6509729,0.1982711 0.6391527,0.2047935 0.6264703,0.2093956 0.6132388,0.212067 0.599766,0.2128694z" transform="matrix(1,0,0,-1,1.1504,0.4504)" fill="rgb(160,160,160)" fill-rule="nonzero" shaper:cutDepth="0.0000762" stroke-linecap="round" stroke-linejoin="round" /><path d="M0.1783,-0.141097 L0.1617419,-0.1958731 0.1617419,-0.1958731 0.1581052,-0.2029971 0.1554417,-0.2059818 0.1522151,-0.2083974 0.1486096,-0.2101751 0.1447711,-0.2112899 0.1368017,-0.212038 0.1368017,-0.212038 0.1271359,-0.2105106 0.1226399,-0.2085613 0.1185497,-0.2058619 0.1149776,-0.2025017 0.1122953,-0.1984056 0.1105827,-0.1938128 0.1100141,-0.1889452 0.1100141,-0.1889452 0.1106131,-0.1833206 0.1119853,-0.1778228 0.1150905,-0.1669286 0.223723,0.1946722 0.223723,0.1946722 0.2251288,0.1987171 0.2271085,0.2025112 0.2297102,0.2059116 0.2329154,0.2087475 0.236618,0.2108912 0.2407067,0.2121675 0.2449348,0.212818 0.2492174,0.2128694 0.2492174,0.2128694 0.2542442,0.2127074 0.2591828,0.2117642 0.263783,0.2097428 0.2677329,0.2066331 0.2707804,0.2026455 0.273156,0.1982018 0.2766258,0.1887769 0.386481,-0.1713023 0.386481,-0.1713023 0.3887145,-0.1793648 0.389714,-0.187652 0.389714,-0.187652 0.3892018,-0.192697 0.3876835,-0.197532 0.385121,-0.2019043 0.3816242,-0.2055763 0.3774842,-0.2084968 0.3728235,-0.2104999 0.3678919,-0.2116614 0.3628339,-0.212038 0.3628339,-0.212038 0.3541455,-0.2112094 0.3500412,-0.2097053 0.3463302,-0.2073953 0.3431523,-0.204398 0.340659,-0.2008021 0.3386852,-0.1969053 0.3372814,-0.1927623 0.3213194,-0.141097 0.1783,-0.141097z M0.304719,-0.0886301 L0.2498097,0.0952251 0.1949005,-0.0886301 0.304719,-0.0886301z" transform="matrix(1,0,0,-1,1.1504,0.4504)" fill="rgb(160,160,160)" fill-rule="nonzero" shaper:cutDepth="0.0000762" stroke-linecap="round" stroke-linejoin="round" /><path d="M-0.3284719,-0.0547299 L-0.3285276,0.1812135 -0.3285276,0.1812135 -0.3292887,0.1929747 -0.330787,0.1986856 -0.3333934,0.203974 -0.3373405,0.20835 -0.3424285,0.2113227 -0.3481607,0.2127067 -0.3540587,0.2128694 -0.3540587,0.2128694 -0.3598885,0.2126397 -0.3656002,0.2114569 -0.3707967,0.2088147 -0.3749943,0.2047759 -0.3779189,0.1997259 -0.3797042,0.1941763 -0.3808463,0.1825716 -0.3808829,-0.0560498 -0.3808829,-0.0560498 -0.3806178,-0.0723258 -0.3795218,-0.0885632 -0.3768462,-0.1046185 -0.3725329,-0.1203134 -0.3725329,-0.1203134 -0.365083,-0.1384999 -0.3554452,-0.1556252 -0.3498097,-0.1636759 -0.3436581,-0.1713451 -0.3369208,-0.1784992 -0.3296326,-0.1850955 -0.321884,-0.1911439 -0.3136301,-0.1964788 -0.3049634,-0.2011159 -0.2959484,-0.2050345 -0.2865778,-0.2079956 -0.2769956,-0.2101878 -0.2672515,-0.2114741 -0.2574384,-0.212038 -0.2574384,-0.212038 -0.2437065,-0.2110865 -0.230155,-0.2086715 -0.216993,-0.2046501 -0.2044367,-0.1990096 -0.1926757,-0.1918638 -0.181904,-0.1832928 -0.1722369,-0.1734974 -0.1636695,-0.1627214 -0.156191,-0.1511663 -0.1498535,-0.138946 -0.1446502,-0.1262032 -0.1404959,-0.113077 -0.1374153,-0.0996641 -0.1352688,-0.0860623 -0.1339248,-0.0723661 -0.133384,-0.0586095 -0.1334398,0.1779985 -0.1334398,0.1779985 -0.1340619,0.1907063 -0.1353118,0.1969545 -0.1375899,0.2029005 -0.139355,0.2055526 -0.1416025,0.2078105 -0.1470666,0.2110694 -0.1532604,0.2125235 -0.1596174,0.2128694 -0.1596174,0.2128694 -0.1659408,0.2125306 -0.1720747,0.210974 -0.1774845,0.2077025 -0.1814312,0.2027716 -0.1837599,0.1968845 -0.1850505,0.1906806 -0.1857584,0.1780454 -0.1857951,-0.0528349 -0.1857951,-0.0528349 -0.1863862,-0.0757495 -0.1875561,-0.0871495 -0.189638,-0.0984215 -0.189638,-0.0984215 -0.1936334,-0.1100198 -0.1987935,-0.1211442 -0.205383,-0.1314914 -0.2133968,-0.1407747 -0.2228282,-0.1486157 -0.2335532,-0.1545538 -0.2393072,-0.1567139 -0.2452481,-0.1582479 -0.2574384,-0.1595712 -0.2574384,-0.1595712 -0.2682434,-0.1585541 -0.2786788,-0.1555685 -0.2883567,-0.1506602 -0.2970121,-0.1441135 -0.3045452,-0.1362949 -0.3109702,-0.1275483 -0.3162024,-0.118036 -0.3206203,-0.1081205 -0.3206203,-0.1081205 -0.3250442,-0.0952657 -0.326544,-0.0886291 -0.3274345,-0.0818897 -0.3283308,-0.0683266 -0.3284719,-0.0547299z" transform="matrix(1,0,0,-1,1.1504,0.4504)" fill="rgb(160,160,160)" fill-rule="nonzero" shaper:cutDepth="0.0000762" stroke-linecap="round" stroke-linejoin="round" /><path d="M-0.6240596,-0.1787844 L-0.6240596,-0.1787844 -0.6248199,-0.1909592 -0.6260732,-0.1969268 -0.6284126,-0.2025667 -0.6323482,-0.2071968 -0.6376429,-0.2102135 -0.6435546,-0.2117063 -0.6496464,-0.212038 -0.6496464,-0.212038 -0.6553945,-0.211829 -0.6610235,-0.2106557 -0.6661953,-0.208149 -0.6705342,-0.2043844 -0.6735822,-0.199514 -0.6753855,-0.194049 -0.6762712,-0.1883705 -0.6764707,-0.1826207 -0.6764341,0.1743506 -0.6764341,0.1743506 -0.6765173,0.182561 -0.6757402,0.1907309 -0.6734617,0.1986161 -0.6714729,0.2022198 -0.6687979,0.2053397 -0.665492,0.2077859 -0.6617944,0.2095866 -0.6538822,0.2117902 -0.6457352,0.2127512 -0.6375234,0.2128693 -0.5548736,0.2128694 -0.5548736,0.2128694 -0.5434187,0.212259 -0.532083,0.2105105 -0.5209629,0.2076989 -0.5102539,0.2035897 -0.500073,0.1983087 -0.4906041,0.1918368 -0.4819814,0.1842735 -0.4742197,0.1758268 -0.4674189,0.1665935 -0.4616215,0.1566915 -0.4569009,0.1462437 -0.453162,0.1353931 -0.4503026,0.1242903 -0.4483835,0.1129761 -0.4471993,0.1015696 -0.446707,0.0901081 -0.446707,0.0901081 -0.4475095,0.074907 -0.4496322,0.0598353 -0.4533679,0.0450782 -0.4586947,0.0308205 -0.4655129,0.0172099 -0.4738955,0.0045087 -0.4838105,-0.0070424 -0.4952018,-0.0171349 -0.4952018,-0.0171349 -0.5019961,-0.0218099 -0.5092152,-0.0257985 -0.5168113,-0.029008 -0.5247025,-0.031408 -0.5327842,-0.0330431 -0.5409746,-0.0340334 -0.5574508,-0.0346855 -0.6241154,-0.0346855 -0.6240596,-0.1787844z M-0.6241154,0.0177814 L-0.5535804,0.0177814 -0.5535804,0.0177814 -0.5472946,0.0181726 -0.5411022,0.0193251 -0.5351023,0.0212322 -0.5294269,0.0239642 -0.5241346,0.0273763 -0.5193167,0.0314331 -0.515092,0.036101 -0.5114232,0.0412281 -0.5082737,0.0466911 -0.5056673,0.0524285 -0.5019085,0.0644597 -0.4998583,0.0768841 -0.4990814,0.0894615 -0.4990814,0.0894615 -0.4997797,0.1023834 -0.5018581,0.1151489 -0.5058545,0.1274556 -0.5086628,0.133292 -0.5120754,0.1388001 -0.5161235,0.1438467 -0.5207758,0.1483384 -0.525957,0.1522111 -0.5316434,0.1552874 -0.5376629,0.157655 -0.5439359,0.159229 -0.5568098,0.1604024 -0.6241154,0.1604024 -0.6241154,0.0177814z" transform="matrix(1,0,0,-1,1.1504,0.4504)" fill="rgb(160,160,160)" fill-rule="nonzero" shaper:cutDepth="0.0000762" stroke-linecap="round" stroke-linejoin="round" /><path d="M-0.9567569,-0.141097 L-0.973315,-0.1958731 -0.973315,-0.1958731 -0.9769517,-0.2029971 -0.9796152,-0.2059818 -0.9828419,-0.2083974 -0.9864473,-0.2101751 -0.9902859,-0.2112899 -0.9982552,-0.212038 -0.9982552,-0.212038 -1.007921,-0.2105106 -1.012417,-0.2085613 -1.0165072,-0.2058619 -1.0200794,-0.2025017 -1.0227616,-0.1984056 -1.0244742,-0.1938128 -1.0250428,-0.1889452 -1.0250428,-0.1889452 -1.0244438,-0.1833206 -1.0230716,-0.1778228 -1.0199664,-0.1669286 -0.9113339,0.1946722 -0.9113339,0.1946722 -0.9099281,0.1987171 -0.9079484,0.2025112 -0.9053467,0.2059116 -0.9021415,0.2087475 -0.898439,0.2108912 -0.8943502,0.2121675 -0.8901221,0.212818 -0.8858395,0.2128694 -0.8858395,0.2128694 -0.8808128,0.2127074 -0.8758741,0.2117642 -0.8712739,0.2097428 -0.867324,0.2066331 -0.8642765,0.2026455 -0.8619009,0.1982018 -0.8584311,0.1887769 -0.7485759,-0.1713023 -0.7485759,-0.1713023 -0.7463424,-0.1793648 -0.745343,-0.187652 -0.745343,-0.187652 -0.7458551,-0.192697 -0.7473734,-0.197532 -0.7499359,-0.2019043 -0.7534327,-0.2055763 -0.7575727,-0.2084968 -0.7622334,-0.2104999 -0.767165,-0.2116614 -0.772223,-0.212038 -0.772223,-0.212038 -0.7809114,-0.2112094 -0.7850157,-0.2097053 -0.7887267,-0.2073953 -0.7919046,-0.204398 -0.7943979,-0.2008021 -0.7963717,-0.1969053 -0.7977755,-0.1927623 -0.8137375,-0.141097 -0.9567569,-0.141097z M-0.830338,-0.0886301 L-0.8852472,0.0952251 -0.9401565,-0.0886301 -0.830338,-0.0886301z" transform="matrix(1,0,0,-1,1.1504,0.4504)" fill="rgb(160,160,160)" fill-rule="nonzero" shaper:cutDepth="0.0000762" stroke-linecap="round" stroke-linejoin="round" /></svg>