%TF.GenerationSoftware,KiCad,Pcbnew,(5.1.9)-1*%
%TF.CreationDate,2021-11-07T13:18:06-07:00*%
%TF.ProjectId,dual_needle_gauge,6475616c-5f6e-4656-9564-6c655f676175,rev?*%
%TF.SameCoordinates,Original*%
%TF.FileFunction,Copper,L3,Inr*%
%TF.FilePolarity,Positive*%
%FSLAX46Y46*%
G04 Gerber Fmt 4.6, Leading zero omitted, Abs format (unit mm)*
G04 Created by KiCad (PCBNEW (5.1.9)-1) date 2021-11-07 13:18:06*
%MOMM*%
%LPD*%
G01*
G04 APERTURE LIST*
%TA.AperFunction,ComponentPad*%
%ADD10C,1.600000*%
%TD*%
%TA.AperFunction,ComponentPad*%
%ADD11O,2.700000X3.300000*%
%TD*%
%TA.AperFunction,ComponentPad*%
%ADD12O,1.700000X1.700000*%
%TD*%
%TA.AperFunction,ComponentPad*%
%ADD13R,1.700000X1.700000*%
%TD*%
%TA.AperFunction,ViaPad*%
%ADD14C,0.800000*%
%TD*%
%TA.AperFunction,Conductor*%
%ADD15C,0.254000*%
%TD*%
%TA.AperFunction,Conductor*%
%ADD16C,0.100000*%
%TD*%
G04 APERTURE END LIST*
D10*
%TO.N,/COIL8*%
%TO.C,M1*%
X193630417Y-128559283D03*
%TO.N,/COIL7*%
X193630417Y-120939283D03*
%TO.N,/COIL6*%
X170770417Y-128559283D03*
%TO.N,/COIL5*%
X170770417Y-120939283D03*
%TO.N,/COIL4*%
X196170417Y-131099283D03*
%TO.N,/COIL3*%
X196170417Y-118399283D03*
%TO.N,/COIL2*%
X168230417Y-131099283D03*
%TO.N,/COIL1*%
X168221841Y-118392866D03*
%TD*%
D11*
%TO.N,/DOUT*%
%TO.C,J3*%
X202121841Y-135709831D03*
%TO.N,/LEDGND*%
X206321841Y-135709831D03*
%TO.N,/LED+5V*%
X202121841Y-130209831D03*
%TA.AperFunction,ComponentPad*%
G36*
G01*
X207671841Y-128809832D02*
X207671841Y-131609830D01*
G75*
G02*
X207421840Y-131859831I-250001J0D01*
G01*
X205221842Y-131859831D01*
G75*
G02*
X204971841Y-131609830I0J250001D01*
G01*
X204971841Y-128809832D01*
G75*
G02*
X205221842Y-128559831I250001J0D01*
G01*
X207421840Y-128559831D01*
G75*
G02*
X207671841Y-128809832I0J-250001D01*
G01*
G37*
%TD.AperFunction*%
%TD*%
%TO.N,/DIN*%
%TO.C,J1*%
X157989341Y-135863176D03*
%TO.N,/LEDGND*%
X162189341Y-135863176D03*
%TO.N,/LED+5V*%
X157989341Y-130363176D03*
%TA.AperFunction,ComponentPad*%
G36*
G01*
X163539341Y-128963177D02*
X163539341Y-131763175D01*
G75*
G02*
X163289340Y-132013176I-250001J0D01*
G01*
X161089342Y-132013176D01*
G75*
G02*
X160839341Y-131763175I0J250001D01*
G01*
X160839341Y-128963177D01*
G75*
G02*
X161089342Y-128713176I250001J0D01*
G01*
X163289340Y-128713176D01*
G75*
G02*
X163539341Y-128963177I0J-250001D01*
G01*
G37*
%TD.AperFunction*%
%TD*%
D12*
%TO.N,/COIL7*%
%TO.C,J2*%
X186001841Y-104773176D03*
%TO.N,/COIL3*%
X186001841Y-102233176D03*
%TO.N,/COIL8*%
X183461841Y-104773176D03*
%TO.N,/COIL4*%
X183461841Y-102233176D03*
%TO.N,/COIL6*%
X180921841Y-104773176D03*
%TO.N,/COIL2*%
X180921841Y-102233176D03*
%TO.N,/COIL5*%
X178381841Y-104773176D03*
D13*
%TO.N,/COIL1*%
X178381841Y-102233176D03*
%TD*%
D14*
%TO.N,/LED+5V*%
X179296841Y-113954676D03*
X186593596Y-112665021D03*
X187601436Y-112303671D03*
X193218386Y-112091321D03*
X192564336Y-112745371D03*
X172019141Y-122426176D03*
X174883946Y-122964971D03*
X179157496Y-122793521D03*
X181460452Y-123348065D03*
X184461736Y-122435471D03*
X186760296Y-122848821D03*
X189236085Y-122714020D03*
X190867251Y-124202866D03*
X195023133Y-122244084D03*
X182364246Y-106315271D03*
X186212346Y-106353371D03*
X183861536Y-106303171D03*
X176600436Y-122359271D03*
X178511698Y-112314119D03*
X179159398Y-112961819D03*
X166431141Y-118920976D03*
X167764641Y-109992876D03*
X175575141Y-102474476D03*
X176305036Y-111954671D03*
X167317031Y-113790176D03*
X184284231Y-112141472D03*
X193520534Y-113742774D03*
X193037641Y-104506476D03*
X179626441Y-105725676D03*
X172590641Y-105471676D03*
X184490186Y-130439521D03*
X182327996Y-130164021D03*
X179883386Y-130506321D03*
X176756841Y-130413876D03*
X178078351Y-131822866D03*
X186976796Y-130442821D03*
X188781865Y-130159200D03*
X171909992Y-111485264D03*
%TO.N,/LEDGND*%
X182318841Y-115174476D03*
X185951041Y-118273276D03*
X188122741Y-118171676D03*
X190434141Y-118806676D03*
X192783641Y-117993876D03*
X170088741Y-118273276D03*
X168933041Y-122400776D03*
X188706941Y-114348976D03*
X196885741Y-116114276D03*
X196936541Y-114336276D03*
X196834941Y-112774176D03*
X189583241Y-108506976D03*
X175714841Y-108595876D03*
X174698841Y-107287776D03*
X188160841Y-106767076D03*
X163459341Y-118743176D03*
X163459341Y-120013176D03*
X163459341Y-121283176D03*
X163459341Y-122553176D03*
X163459341Y-123823176D03*
X162189341Y-123823176D03*
X162189341Y-122553176D03*
X162189341Y-121283176D03*
X162189341Y-120013176D03*
X162189341Y-118743176D03*
X160919341Y-123823176D03*
X159649341Y-123823176D03*
X159649341Y-122553176D03*
X160919341Y-122553176D03*
X202829341Y-122553176D03*
X204099341Y-122553176D03*
X205369341Y-122553176D03*
X206639341Y-122553176D03*
X206639341Y-123823176D03*
X205369341Y-123823176D03*
X204099341Y-123823176D03*
X202829341Y-123823176D03*
X174355941Y-118933676D03*
X176108541Y-117346176D03*
X166532741Y-117168376D03*
X202829341Y-125093176D03*
X204099341Y-125093176D03*
X205369341Y-125093176D03*
X206639341Y-125093176D03*
X172034856Y-113683149D03*
%TD*%
D15*
%TO.N,/LEDGND*%
X187736703Y-101209735D02*
X189302983Y-101784441D01*
X190810727Y-102498736D01*
X192247539Y-103346749D01*
X192570901Y-103579530D01*
X192547385Y-103589271D01*
X192377867Y-103702539D01*
X192233704Y-103846702D01*
X192120436Y-104016220D01*
X192042415Y-104204578D01*
X192002641Y-104404537D01*
X192002641Y-104608415D01*
X192042415Y-104808374D01*
X192120436Y-104996732D01*
X192233704Y-105166250D01*
X192377867Y-105310413D01*
X192547385Y-105423681D01*
X192735743Y-105501702D01*
X192935702Y-105541476D01*
X193139580Y-105541476D01*
X193339539Y-105501702D01*
X193527897Y-105423681D01*
X193697415Y-105310413D01*
X193841578Y-105166250D01*
X193954846Y-104996732D01*
X194032867Y-104808374D01*
X194051974Y-104712317D01*
X194861686Y-105414932D01*
X196017514Y-106618085D01*
X197059543Y-107921046D01*
X197979190Y-109313083D01*
X198774231Y-110792682D01*
X198947451Y-111164047D01*
X198949719Y-111168385D01*
X198950683Y-111170874D01*
X199075461Y-111430583D01*
X199092246Y-111459466D01*
X199107390Y-111489237D01*
X199627460Y-112339179D01*
X199673379Y-112402469D01*
X199688279Y-112423006D01*
X200334906Y-113181127D01*
X200399650Y-113245957D01*
X200408089Y-113254407D01*
X201165351Y-113902040D01*
X201249098Y-113962971D01*
X202098348Y-114484167D01*
X202127643Y-114499118D01*
X202190596Y-114531247D01*
X203110925Y-114913175D01*
X203158218Y-114928576D01*
X203209400Y-114945244D01*
X204178144Y-115178499D01*
X204275842Y-115194039D01*
X204280425Y-115194768D01*
X205267518Y-115273113D01*
X205293517Y-115275674D01*
X205337040Y-115275675D01*
X206042234Y-115344820D01*
X206689498Y-115540240D01*
X207286474Y-115857658D01*
X207810429Y-116284985D01*
X208241404Y-116805944D01*
X208562981Y-117400688D01*
X208762916Y-118046574D01*
X208836840Y-118749907D01*
X208836841Y-133800428D01*
X208764403Y-134612080D01*
X208557168Y-135369605D01*
X208219061Y-136078458D01*
X207760768Y-136716241D01*
X207196785Y-137262777D01*
X206544925Y-137700809D01*
X205825803Y-138016482D01*
X205057072Y-138201037D01*
X204392632Y-138249831D01*
X159996234Y-138249831D01*
X159184593Y-138177394D01*
X158660296Y-138033963D01*
X158752642Y-138005950D01*
X159097484Y-137821629D01*
X159399739Y-137573574D01*
X159647794Y-137271319D01*
X159832115Y-136926478D01*
X159945619Y-136552304D01*
X159974341Y-136260686D01*
X159974341Y-135465667D01*
X159957295Y-135292587D01*
X180056841Y-135292587D01*
X180056841Y-135713145D01*
X180138888Y-136125622D01*
X180299829Y-136514168D01*
X180533478Y-136863849D01*
X180830858Y-137161229D01*
X181180539Y-137394878D01*
X181569085Y-137555819D01*
X181981562Y-137637866D01*
X182402120Y-137637866D01*
X182814597Y-137555819D01*
X183203143Y-137394878D01*
X183552824Y-137161229D01*
X183850204Y-136863849D01*
X184083853Y-136514168D01*
X184244794Y-136125622D01*
X184326841Y-135713145D01*
X184326841Y-135312321D01*
X200136841Y-135312321D01*
X200136841Y-136107340D01*
X200165563Y-136398958D01*
X200279067Y-136773132D01*
X200463388Y-137117974D01*
X200711443Y-137420229D01*
X201013698Y-137668284D01*
X201358539Y-137852605D01*
X201732713Y-137966109D01*
X202121841Y-138004435D01*
X202510968Y-137966109D01*
X202885142Y-137852605D01*
X203229984Y-137668284D01*
X203532239Y-137420229D01*
X203780294Y-137117974D01*
X203964615Y-136773133D01*
X204078119Y-136398959D01*
X204106841Y-136107341D01*
X204106841Y-135312322D01*
X204078119Y-135020704D01*
X203964615Y-134646529D01*
X203780294Y-134301688D01*
X203532239Y-133999433D01*
X203229984Y-133751378D01*
X202885143Y-133567057D01*
X202510969Y-133453553D01*
X202121841Y-133415227D01*
X201732714Y-133453553D01*
X201358540Y-133567057D01*
X201013699Y-133751378D01*
X200711444Y-133999433D01*
X200463388Y-134301688D01*
X200279067Y-134646529D01*
X200165563Y-135020703D01*
X200136841Y-135312321D01*
X184326841Y-135312321D01*
X184326841Y-135292587D01*
X184244794Y-134880110D01*
X184083853Y-134491564D01*
X183850204Y-134141883D01*
X183552824Y-133844503D01*
X183203143Y-133610854D01*
X182814597Y-133449913D01*
X182402120Y-133367866D01*
X181981562Y-133367866D01*
X181569085Y-133449913D01*
X181180539Y-133610854D01*
X180830858Y-133844503D01*
X180533478Y-134141883D01*
X180299829Y-134491564D01*
X180138888Y-134880110D01*
X180056841Y-135292587D01*
X159957295Y-135292587D01*
X159945619Y-135174049D01*
X159832115Y-134799874D01*
X159647794Y-134455033D01*
X159399739Y-134152778D01*
X159097484Y-133904723D01*
X158752643Y-133720402D01*
X158378469Y-133606898D01*
X157989341Y-133568572D01*
X157600214Y-133606898D01*
X157226040Y-133720402D01*
X156881199Y-133904723D01*
X156578944Y-134152778D01*
X156330888Y-134455033D01*
X156146567Y-134799874D01*
X156033063Y-135174048D01*
X156004341Y-135465666D01*
X156004341Y-135749422D01*
X155780191Y-135238794D01*
X155595636Y-134470063D01*
X155546842Y-133805623D01*
X155546842Y-129965666D01*
X156004341Y-129965666D01*
X156004341Y-130760685D01*
X156033063Y-131052303D01*
X156146567Y-131426477D01*
X156330888Y-131771319D01*
X156578943Y-132073574D01*
X156881198Y-132321629D01*
X157226039Y-132505950D01*
X157600213Y-132619454D01*
X157989341Y-132657780D01*
X158378468Y-132619454D01*
X158752642Y-132505950D01*
X159097484Y-132321629D01*
X159399739Y-132073574D01*
X159647794Y-131771319D01*
X159832115Y-131426478D01*
X159945619Y-131052304D01*
X159974341Y-130760686D01*
X159974341Y-129965667D01*
X159945619Y-129674049D01*
X159832115Y-129299874D01*
X159652148Y-128963177D01*
X160201269Y-128963177D01*
X160201269Y-131763175D01*
X160218333Y-131936429D01*
X160268870Y-132103026D01*
X160350936Y-132256562D01*
X160461380Y-132391137D01*
X160595955Y-132501581D01*
X160749491Y-132583647D01*
X160916088Y-132634184D01*
X161089342Y-132651248D01*
X163289340Y-132651248D01*
X163462594Y-132634184D01*
X163629191Y-132583647D01*
X163782727Y-132501581D01*
X163917302Y-132391137D01*
X164027746Y-132256562D01*
X164109812Y-132103026D01*
X164160349Y-131936429D01*
X164177413Y-131763175D01*
X164177413Y-130957948D01*
X166795417Y-130957948D01*
X166795417Y-131240618D01*
X166850564Y-131517857D01*
X166958737Y-131779010D01*
X167115780Y-132014042D01*
X167315658Y-132213920D01*
X167550690Y-132370963D01*
X167811843Y-132479136D01*
X168089082Y-132534283D01*
X168371752Y-132534283D01*
X168648991Y-132479136D01*
X168910144Y-132370963D01*
X169145176Y-132213920D01*
X169345054Y-132014042D01*
X169502097Y-131779010D01*
X169610270Y-131517857D01*
X169665417Y-131240618D01*
X169665417Y-130957948D01*
X169610270Y-130680709D01*
X169502097Y-130419556D01*
X169430189Y-130311937D01*
X175721841Y-130311937D01*
X175721841Y-130515815D01*
X175761615Y-130715774D01*
X175839636Y-130904132D01*
X175952904Y-131073650D01*
X176097067Y-131217813D01*
X176266585Y-131331081D01*
X176454943Y-131409102D01*
X176654902Y-131448876D01*
X176858780Y-131448876D01*
X177058739Y-131409102D01*
X177144109Y-131373740D01*
X177083125Y-131520968D01*
X177043351Y-131720927D01*
X177043351Y-131924805D01*
X177083125Y-132124764D01*
X177161146Y-132313122D01*
X177274414Y-132482640D01*
X177418577Y-132626803D01*
X177588095Y-132740071D01*
X177776453Y-132818092D01*
X177976412Y-132857866D01*
X178180290Y-132857866D01*
X178380249Y-132818092D01*
X178568607Y-132740071D01*
X178738125Y-132626803D01*
X178882288Y-132482640D01*
X178995556Y-132313122D01*
X179073577Y-132124764D01*
X179113351Y-131924805D01*
X179113351Y-131720927D01*
X179073577Y-131520968D01*
X178995556Y-131332610D01*
X178882288Y-131163092D01*
X178738125Y-131018929D01*
X178568607Y-130905661D01*
X178380249Y-130827640D01*
X178180290Y-130787866D01*
X177976412Y-130787866D01*
X177776453Y-130827640D01*
X177691083Y-130863002D01*
X177752067Y-130715774D01*
X177791841Y-130515815D01*
X177791841Y-130404382D01*
X178848386Y-130404382D01*
X178848386Y-130608260D01*
X178888160Y-130808219D01*
X178966181Y-130996577D01*
X179079449Y-131166095D01*
X179223612Y-131310258D01*
X179393130Y-131423526D01*
X179581488Y-131501547D01*
X179781447Y-131541321D01*
X179985325Y-131541321D01*
X180185284Y-131501547D01*
X180373642Y-131423526D01*
X180543160Y-131310258D01*
X180687323Y-131166095D01*
X180800591Y-130996577D01*
X180878612Y-130808219D01*
X180918386Y-130608260D01*
X180918386Y-130404382D01*
X180878612Y-130204423D01*
X180819653Y-130062082D01*
X181292996Y-130062082D01*
X181292996Y-130265960D01*
X181332770Y-130465919D01*
X181410791Y-130654277D01*
X181524059Y-130823795D01*
X181668222Y-130967958D01*
X181837740Y-131081226D01*
X182026098Y-131159247D01*
X182226057Y-131199021D01*
X182429935Y-131199021D01*
X182629894Y-131159247D01*
X182818252Y-131081226D01*
X182987770Y-130967958D01*
X183131933Y-130823795D01*
X183245201Y-130654277D01*
X183323222Y-130465919D01*
X183348749Y-130337582D01*
X183455186Y-130337582D01*
X183455186Y-130541460D01*
X183494960Y-130741419D01*
X183572981Y-130929777D01*
X183686249Y-131099295D01*
X183830412Y-131243458D01*
X183999930Y-131356726D01*
X184188288Y-131434747D01*
X184388247Y-131474521D01*
X184592125Y-131474521D01*
X184792084Y-131434747D01*
X184980442Y-131356726D01*
X185149960Y-131243458D01*
X185294123Y-131099295D01*
X185407391Y-130929777D01*
X185485412Y-130741419D01*
X185525186Y-130541460D01*
X185525186Y-130340882D01*
X185941796Y-130340882D01*
X185941796Y-130544760D01*
X185981570Y-130744719D01*
X186059591Y-130933077D01*
X186172859Y-131102595D01*
X186317022Y-131246758D01*
X186486540Y-131360026D01*
X186674898Y-131438047D01*
X186874857Y-131477821D01*
X187078735Y-131477821D01*
X187278694Y-131438047D01*
X187467052Y-131360026D01*
X187636570Y-131246758D01*
X187780733Y-131102595D01*
X187894001Y-130933077D01*
X187955295Y-130785101D01*
X187977928Y-130818974D01*
X188122091Y-130963137D01*
X188291609Y-131076405D01*
X188479967Y-131154426D01*
X188679926Y-131194200D01*
X188883804Y-131194200D01*
X189083763Y-131154426D01*
X189272121Y-131076405D01*
X189441639Y-130963137D01*
X189446828Y-130957948D01*
X194735417Y-130957948D01*
X194735417Y-131240618D01*
X194790564Y-131517857D01*
X194898737Y-131779010D01*
X195055780Y-132014042D01*
X195255658Y-132213920D01*
X195490690Y-132370963D01*
X195751843Y-132479136D01*
X196029082Y-132534283D01*
X196311752Y-132534283D01*
X196588991Y-132479136D01*
X196850144Y-132370963D01*
X197085176Y-132213920D01*
X197285054Y-132014042D01*
X197442097Y-131779010D01*
X197550270Y-131517857D01*
X197605417Y-131240618D01*
X197605417Y-130957948D01*
X197550270Y-130680709D01*
X197442097Y-130419556D01*
X197285054Y-130184524D01*
X197085176Y-129984646D01*
X196850144Y-129827603D01*
X196813250Y-129812321D01*
X200136841Y-129812321D01*
X200136841Y-130607340D01*
X200165563Y-130898958D01*
X200279067Y-131273132D01*
X200463388Y-131617974D01*
X200711443Y-131920229D01*
X201013698Y-132168284D01*
X201358539Y-132352605D01*
X201732713Y-132466109D01*
X202121841Y-132504435D01*
X202510968Y-132466109D01*
X202885142Y-132352605D01*
X203229984Y-132168284D01*
X203532239Y-131920229D01*
X203780294Y-131617974D01*
X203964615Y-131273133D01*
X204078119Y-130898959D01*
X204106841Y-130607341D01*
X204106841Y-129812322D01*
X204078119Y-129520704D01*
X203964615Y-129146529D01*
X203784648Y-128809832D01*
X204333769Y-128809832D01*
X204333769Y-131609830D01*
X204350833Y-131783084D01*
X204401370Y-131949681D01*
X204483436Y-132103217D01*
X204593880Y-132237792D01*
X204728455Y-132348236D01*
X204881991Y-132430302D01*
X205048588Y-132480839D01*
X205221842Y-132497903D01*
X207421840Y-132497903D01*
X207595094Y-132480839D01*
X207761691Y-132430302D01*
X207915227Y-132348236D01*
X208049802Y-132237792D01*
X208160246Y-132103217D01*
X208242312Y-131949681D01*
X208292849Y-131783084D01*
X208309913Y-131609830D01*
X208309913Y-128809832D01*
X208292849Y-128636578D01*
X208242312Y-128469981D01*
X208160246Y-128316445D01*
X208049802Y-128181870D01*
X207915227Y-128071426D01*
X207761691Y-127989360D01*
X207595094Y-127938823D01*
X207421840Y-127921759D01*
X205221842Y-127921759D01*
X205048588Y-127938823D01*
X204881991Y-127989360D01*
X204728455Y-128071426D01*
X204593880Y-128181870D01*
X204483436Y-128316445D01*
X204401370Y-128469981D01*
X204350833Y-128636578D01*
X204333769Y-128809832D01*
X203784648Y-128809832D01*
X203780294Y-128801688D01*
X203532239Y-128499433D01*
X203229984Y-128251378D01*
X202885143Y-128067057D01*
X202510969Y-127953553D01*
X202121841Y-127915227D01*
X201732714Y-127953553D01*
X201358540Y-128067057D01*
X201013699Y-128251378D01*
X200711444Y-128499433D01*
X200463388Y-128801688D01*
X200279067Y-129146529D01*
X200165563Y-129520703D01*
X200136841Y-129812321D01*
X196813250Y-129812321D01*
X196588991Y-129719430D01*
X196311752Y-129664283D01*
X196029082Y-129664283D01*
X195751843Y-129719430D01*
X195490690Y-129827603D01*
X195255658Y-129984646D01*
X195055780Y-130184524D01*
X194898737Y-130419556D01*
X194790564Y-130680709D01*
X194735417Y-130957948D01*
X189446828Y-130957948D01*
X189585802Y-130818974D01*
X189699070Y-130649456D01*
X189777091Y-130461098D01*
X189816865Y-130261139D01*
X189816865Y-130057261D01*
X189777091Y-129857302D01*
X189699070Y-129668944D01*
X189585802Y-129499426D01*
X189441639Y-129355263D01*
X189272121Y-129241995D01*
X189083763Y-129163974D01*
X188883804Y-129124200D01*
X188679926Y-129124200D01*
X188479967Y-129163974D01*
X188291609Y-129241995D01*
X188122091Y-129355263D01*
X187977928Y-129499426D01*
X187864660Y-129668944D01*
X187803366Y-129816920D01*
X187780733Y-129783047D01*
X187636570Y-129638884D01*
X187467052Y-129525616D01*
X187278694Y-129447595D01*
X187078735Y-129407821D01*
X186874857Y-129407821D01*
X186674898Y-129447595D01*
X186486540Y-129525616D01*
X186317022Y-129638884D01*
X186172859Y-129783047D01*
X186059591Y-129952565D01*
X185981570Y-130140923D01*
X185941796Y-130340882D01*
X185525186Y-130340882D01*
X185525186Y-130337582D01*
X185485412Y-130137623D01*
X185407391Y-129949265D01*
X185294123Y-129779747D01*
X185149960Y-129635584D01*
X184980442Y-129522316D01*
X184792084Y-129444295D01*
X184592125Y-129404521D01*
X184388247Y-129404521D01*
X184188288Y-129444295D01*
X183999930Y-129522316D01*
X183830412Y-129635584D01*
X183686249Y-129779747D01*
X183572981Y-129949265D01*
X183494960Y-130137623D01*
X183455186Y-130337582D01*
X183348749Y-130337582D01*
X183362996Y-130265960D01*
X183362996Y-130062082D01*
X183323222Y-129862123D01*
X183245201Y-129673765D01*
X183131933Y-129504247D01*
X182987770Y-129360084D01*
X182818252Y-129246816D01*
X182629894Y-129168795D01*
X182429935Y-129129021D01*
X182226057Y-129129021D01*
X182026098Y-129168795D01*
X181837740Y-129246816D01*
X181668222Y-129360084D01*
X181524059Y-129504247D01*
X181410791Y-129673765D01*
X181332770Y-129862123D01*
X181292996Y-130062082D01*
X180819653Y-130062082D01*
X180800591Y-130016065D01*
X180687323Y-129846547D01*
X180543160Y-129702384D01*
X180373642Y-129589116D01*
X180185284Y-129511095D01*
X179985325Y-129471321D01*
X179781447Y-129471321D01*
X179581488Y-129511095D01*
X179393130Y-129589116D01*
X179223612Y-129702384D01*
X179079449Y-129846547D01*
X178966181Y-130016065D01*
X178888160Y-130204423D01*
X178848386Y-130404382D01*
X177791841Y-130404382D01*
X177791841Y-130311937D01*
X177752067Y-130111978D01*
X177674046Y-129923620D01*
X177560778Y-129754102D01*
X177416615Y-129609939D01*
X177247097Y-129496671D01*
X177058739Y-129418650D01*
X176858780Y-129378876D01*
X176654902Y-129378876D01*
X176454943Y-129418650D01*
X176266585Y-129496671D01*
X176097067Y-129609939D01*
X175952904Y-129754102D01*
X175839636Y-129923620D01*
X175761615Y-130111978D01*
X175721841Y-130311937D01*
X169430189Y-130311937D01*
X169345054Y-130184524D01*
X169145176Y-129984646D01*
X168910144Y-129827603D01*
X168648991Y-129719430D01*
X168371752Y-129664283D01*
X168089082Y-129664283D01*
X167811843Y-129719430D01*
X167550690Y-129827603D01*
X167315658Y-129984646D01*
X167115780Y-130184524D01*
X166958737Y-130419556D01*
X166850564Y-130680709D01*
X166795417Y-130957948D01*
X164177413Y-130957948D01*
X164177413Y-128963177D01*
X164160349Y-128789923D01*
X164109812Y-128623326D01*
X164027746Y-128469790D01*
X163985200Y-128417948D01*
X169335417Y-128417948D01*
X169335417Y-128700618D01*
X169390564Y-128977857D01*
X169498737Y-129239010D01*
X169655780Y-129474042D01*
X169855658Y-129673920D01*
X170090690Y-129830963D01*
X170351843Y-129939136D01*
X170629082Y-129994283D01*
X170911752Y-129994283D01*
X171188991Y-129939136D01*
X171450144Y-129830963D01*
X171685176Y-129673920D01*
X171885054Y-129474042D01*
X172042097Y-129239010D01*
X172150270Y-128977857D01*
X172205417Y-128700618D01*
X172205417Y-128417948D01*
X192195417Y-128417948D01*
X192195417Y-128700618D01*
X192250564Y-128977857D01*
X192358737Y-129239010D01*
X192515780Y-129474042D01*
X192715658Y-129673920D01*
X192950690Y-129830963D01*
X193211843Y-129939136D01*
X193489082Y-129994283D01*
X193771752Y-129994283D01*
X194048991Y-129939136D01*
X194310144Y-129830963D01*
X194545176Y-129673920D01*
X194745054Y-129474042D01*
X194902097Y-129239010D01*
X195010270Y-128977857D01*
X195065417Y-128700618D01*
X195065417Y-128417948D01*
X195010270Y-128140709D01*
X194902097Y-127879556D01*
X194745054Y-127644524D01*
X194545176Y-127444646D01*
X194310144Y-127287603D01*
X194048991Y-127179430D01*
X193771752Y-127124283D01*
X193489082Y-127124283D01*
X193211843Y-127179430D01*
X192950690Y-127287603D01*
X192715658Y-127444646D01*
X192515780Y-127644524D01*
X192358737Y-127879556D01*
X192250564Y-128140709D01*
X192195417Y-128417948D01*
X172205417Y-128417948D01*
X172150270Y-128140709D01*
X172042097Y-127879556D01*
X171885054Y-127644524D01*
X171685176Y-127444646D01*
X171450144Y-127287603D01*
X171188991Y-127179430D01*
X170911752Y-127124283D01*
X170629082Y-127124283D01*
X170351843Y-127179430D01*
X170090690Y-127287603D01*
X169855658Y-127444646D01*
X169655780Y-127644524D01*
X169498737Y-127879556D01*
X169390564Y-128140709D01*
X169335417Y-128417948D01*
X163985200Y-128417948D01*
X163917302Y-128335215D01*
X163782727Y-128224771D01*
X163629191Y-128142705D01*
X163462594Y-128092168D01*
X163289340Y-128075104D01*
X161089342Y-128075104D01*
X160916088Y-128092168D01*
X160749491Y-128142705D01*
X160595955Y-128224771D01*
X160461380Y-128335215D01*
X160350936Y-128469790D01*
X160268870Y-128623326D01*
X160218333Y-128789923D01*
X160201269Y-128963177D01*
X159652148Y-128963177D01*
X159647794Y-128955033D01*
X159399739Y-128652778D01*
X159097484Y-128404723D01*
X158752643Y-128220402D01*
X158378469Y-128106898D01*
X157989341Y-128068572D01*
X157600214Y-128106898D01*
X157226040Y-128220402D01*
X156881199Y-128404723D01*
X156578944Y-128652778D01*
X156330888Y-128955033D01*
X156146567Y-129299874D01*
X156033063Y-129674048D01*
X156004341Y-129965666D01*
X155546842Y-129965666D01*
X155546842Y-124601682D01*
X167156841Y-124601682D01*
X167156841Y-124904050D01*
X167215830Y-125200609D01*
X167331542Y-125479961D01*
X167499529Y-125731371D01*
X167713336Y-125945178D01*
X167964746Y-126113165D01*
X168244098Y-126228877D01*
X168540657Y-126287866D01*
X168843025Y-126287866D01*
X169139584Y-126228877D01*
X169418936Y-126113165D01*
X169670346Y-125945178D01*
X169884153Y-125731371D01*
X170052140Y-125479961D01*
X170167852Y-125200609D01*
X170226841Y-124904050D01*
X170226841Y-124601682D01*
X170167852Y-124305123D01*
X170052140Y-124025771D01*
X169884153Y-123774361D01*
X169670346Y-123560554D01*
X169418936Y-123392567D01*
X169139584Y-123276855D01*
X168843025Y-123217866D01*
X168540657Y-123217866D01*
X168244098Y-123276855D01*
X167964746Y-123392567D01*
X167713336Y-123560554D01*
X167499529Y-123774361D01*
X167331542Y-124025771D01*
X167215830Y-124305123D01*
X167156841Y-124601682D01*
X155546842Y-124601682D01*
X155546842Y-118775445D01*
X155577867Y-118459028D01*
X156129341Y-118459028D01*
X156129341Y-119027324D01*
X156240210Y-119584699D01*
X156457687Y-120109736D01*
X156773415Y-120582256D01*
X157175261Y-120984102D01*
X157647781Y-121299830D01*
X158172818Y-121517307D01*
X158730193Y-121628176D01*
X159298489Y-121628176D01*
X159855864Y-121517307D01*
X160380901Y-121299830D01*
X160853421Y-120984102D01*
X161039575Y-120797948D01*
X169335417Y-120797948D01*
X169335417Y-121080618D01*
X169390564Y-121357857D01*
X169498737Y-121619010D01*
X169655780Y-121854042D01*
X169855658Y-122053920D01*
X170090690Y-122210963D01*
X170351843Y-122319136D01*
X170629082Y-122374283D01*
X170911752Y-122374283D01*
X170984141Y-122359884D01*
X170984141Y-122528115D01*
X171023915Y-122728074D01*
X171101936Y-122916432D01*
X171215204Y-123085950D01*
X171359367Y-123230113D01*
X171528885Y-123343381D01*
X171717243Y-123421402D01*
X171917202Y-123461176D01*
X172121080Y-123461176D01*
X172321039Y-123421402D01*
X172509397Y-123343381D01*
X172678915Y-123230113D01*
X172823078Y-123085950D01*
X172936346Y-122916432D01*
X172958465Y-122863032D01*
X173848946Y-122863032D01*
X173848946Y-123066910D01*
X173888720Y-123266869D01*
X173966741Y-123455227D01*
X174080009Y-123624745D01*
X174224172Y-123768908D01*
X174393690Y-123882176D01*
X174582048Y-123960197D01*
X174782007Y-123999971D01*
X174985885Y-123999971D01*
X175185844Y-123960197D01*
X175374202Y-123882176D01*
X175543720Y-123768908D01*
X175687883Y-123624745D01*
X175801151Y-123455227D01*
X175879172Y-123266869D01*
X175906572Y-123129118D01*
X175940662Y-123163208D01*
X176110180Y-123276476D01*
X176298538Y-123354497D01*
X176498497Y-123394271D01*
X176702375Y-123394271D01*
X176902334Y-123354497D01*
X177090692Y-123276476D01*
X177260210Y-123163208D01*
X177404373Y-123019045D01*
X177517641Y-122849527D01*
X177583064Y-122691582D01*
X178122496Y-122691582D01*
X178122496Y-122895460D01*
X178162270Y-123095419D01*
X178240291Y-123283777D01*
X178353559Y-123453295D01*
X178497722Y-123597458D01*
X178667240Y-123710726D01*
X178855598Y-123788747D01*
X179055557Y-123828521D01*
X179259435Y-123828521D01*
X179459394Y-123788747D01*
X179647752Y-123710726D01*
X179817270Y-123597458D01*
X179961433Y-123453295D01*
X180074701Y-123283777D01*
X180090296Y-123246126D01*
X180425452Y-123246126D01*
X180425452Y-123450004D01*
X180465226Y-123649963D01*
X180543247Y-123838321D01*
X180656515Y-124007839D01*
X180800678Y-124152002D01*
X180970196Y-124265270D01*
X181158554Y-124343291D01*
X181358513Y-124383065D01*
X181562391Y-124383065D01*
X181762350Y-124343291D01*
X181950708Y-124265270D01*
X182120226Y-124152002D01*
X182171301Y-124100927D01*
X189832251Y-124100927D01*
X189832251Y-124304805D01*
X189872025Y-124504764D01*
X189950046Y-124693122D01*
X190063314Y-124862640D01*
X190207477Y-125006803D01*
X190376995Y-125120071D01*
X190565353Y-125198092D01*
X190765312Y-125237866D01*
X190969190Y-125237866D01*
X191169149Y-125198092D01*
X191357507Y-125120071D01*
X191527025Y-125006803D01*
X191671188Y-124862640D01*
X191784456Y-124693122D01*
X191822331Y-124601682D01*
X194156841Y-124601682D01*
X194156841Y-124904050D01*
X194215830Y-125200609D01*
X194331542Y-125479961D01*
X194499529Y-125731371D01*
X194713336Y-125945178D01*
X194964746Y-126113165D01*
X195244098Y-126228877D01*
X195540657Y-126287866D01*
X195843025Y-126287866D01*
X196139584Y-126228877D01*
X196418936Y-126113165D01*
X196670346Y-125945178D01*
X196884153Y-125731371D01*
X197052140Y-125479961D01*
X197167852Y-125200609D01*
X197226841Y-124904050D01*
X197226841Y-124601682D01*
X197167852Y-124305123D01*
X197052140Y-124025771D01*
X196884153Y-123774361D01*
X196670346Y-123560554D01*
X196418936Y-123392567D01*
X196139584Y-123276855D01*
X195843025Y-123217866D01*
X195540657Y-123217866D01*
X195244098Y-123276855D01*
X194964746Y-123392567D01*
X194713336Y-123560554D01*
X194499529Y-123774361D01*
X194331542Y-124025771D01*
X194215830Y-124305123D01*
X194156841Y-124601682D01*
X191822331Y-124601682D01*
X191862477Y-124504764D01*
X191902251Y-124304805D01*
X191902251Y-124100927D01*
X191862477Y-123900968D01*
X191784456Y-123712610D01*
X191671188Y-123543092D01*
X191527025Y-123398929D01*
X191357507Y-123285661D01*
X191169149Y-123207640D01*
X190969190Y-123167866D01*
X190765312Y-123167866D01*
X190565353Y-123207640D01*
X190376995Y-123285661D01*
X190207477Y-123398929D01*
X190063314Y-123543092D01*
X189950046Y-123712610D01*
X189872025Y-123900968D01*
X189832251Y-124100927D01*
X182171301Y-124100927D01*
X182264389Y-124007839D01*
X182377657Y-123838321D01*
X182455678Y-123649963D01*
X182495452Y-123450004D01*
X182495452Y-123246126D01*
X182455678Y-123046167D01*
X182377657Y-122857809D01*
X182264389Y-122688291D01*
X182120226Y-122544128D01*
X181950708Y-122430860D01*
X181762350Y-122352839D01*
X181665287Y-122333532D01*
X183426736Y-122333532D01*
X183426736Y-122537410D01*
X183466510Y-122737369D01*
X183544531Y-122925727D01*
X183657799Y-123095245D01*
X183801962Y-123239408D01*
X183971480Y-123352676D01*
X184159838Y-123430697D01*
X184359797Y-123470471D01*
X184563675Y-123470471D01*
X184763634Y-123430697D01*
X184951992Y-123352676D01*
X185121510Y-123239408D01*
X185265673Y-123095245D01*
X185378941Y-122925727D01*
X185453021Y-122746882D01*
X185725296Y-122746882D01*
X185725296Y-122950760D01*
X185765070Y-123150719D01*
X185843091Y-123339077D01*
X185956359Y-123508595D01*
X186100522Y-123652758D01*
X186270040Y-123766026D01*
X186458398Y-123844047D01*
X186658357Y-123883821D01*
X186862235Y-123883821D01*
X187062194Y-123844047D01*
X187250552Y-123766026D01*
X187420070Y-123652758D01*
X187564233Y-123508595D01*
X187677501Y-123339077D01*
X187755522Y-123150719D01*
X187795296Y-122950760D01*
X187795296Y-122746882D01*
X187768483Y-122612081D01*
X188201085Y-122612081D01*
X188201085Y-122815959D01*
X188240859Y-123015918D01*
X188318880Y-123204276D01*
X188432148Y-123373794D01*
X188576311Y-123517957D01*
X188745829Y-123631225D01*
X188934187Y-123709246D01*
X189134146Y-123749020D01*
X189338024Y-123749020D01*
X189537983Y-123709246D01*
X189726341Y-123631225D01*
X189895859Y-123517957D01*
X190040022Y-123373794D01*
X190153290Y-123204276D01*
X190231311Y-123015918D01*
X190271085Y-122815959D01*
X190271085Y-122612081D01*
X190231311Y-122412122D01*
X190153290Y-122223764D01*
X190040022Y-122054246D01*
X189895859Y-121910083D01*
X189726341Y-121796815D01*
X189537983Y-121718794D01*
X189338024Y-121679020D01*
X189134146Y-121679020D01*
X188934187Y-121718794D01*
X188745829Y-121796815D01*
X188576311Y-121910083D01*
X188432148Y-122054246D01*
X188318880Y-122223764D01*
X188240859Y-122412122D01*
X188201085Y-122612081D01*
X187768483Y-122612081D01*
X187755522Y-122546923D01*
X187677501Y-122358565D01*
X187564233Y-122189047D01*
X187420070Y-122044884D01*
X187250552Y-121931616D01*
X187062194Y-121853595D01*
X186862235Y-121813821D01*
X186658357Y-121813821D01*
X186458398Y-121853595D01*
X186270040Y-121931616D01*
X186100522Y-122044884D01*
X185956359Y-122189047D01*
X185843091Y-122358565D01*
X185765070Y-122546923D01*
X185725296Y-122746882D01*
X185453021Y-122746882D01*
X185456962Y-122737369D01*
X185496736Y-122537410D01*
X185496736Y-122333532D01*
X185456962Y-122133573D01*
X185378941Y-121945215D01*
X185265673Y-121775697D01*
X185121510Y-121631534D01*
X184951992Y-121518266D01*
X184763634Y-121440245D01*
X184563675Y-121400471D01*
X184359797Y-121400471D01*
X184159838Y-121440245D01*
X183971480Y-121518266D01*
X183801962Y-121631534D01*
X183657799Y-121775697D01*
X183544531Y-121945215D01*
X183466510Y-122133573D01*
X183426736Y-122333532D01*
X181665287Y-122333532D01*
X181562391Y-122313065D01*
X181358513Y-122313065D01*
X181158554Y-122352839D01*
X180970196Y-122430860D01*
X180800678Y-122544128D01*
X180656515Y-122688291D01*
X180543247Y-122857809D01*
X180465226Y-123046167D01*
X180425452Y-123246126D01*
X180090296Y-123246126D01*
X180152722Y-123095419D01*
X180192496Y-122895460D01*
X180192496Y-122691582D01*
X180152722Y-122491623D01*
X180074701Y-122303265D01*
X179961433Y-122133747D01*
X179817270Y-121989584D01*
X179647752Y-121876316D01*
X179459394Y-121798295D01*
X179259435Y-121758521D01*
X179055557Y-121758521D01*
X178855598Y-121798295D01*
X178667240Y-121876316D01*
X178497722Y-121989584D01*
X178353559Y-122133747D01*
X178240291Y-122303265D01*
X178162270Y-122491623D01*
X178122496Y-122691582D01*
X177583064Y-122691582D01*
X177595662Y-122661169D01*
X177635436Y-122461210D01*
X177635436Y-122257332D01*
X177595662Y-122057373D01*
X177517641Y-121869015D01*
X177404373Y-121699497D01*
X177260210Y-121555334D01*
X177090692Y-121442066D01*
X176902334Y-121364045D01*
X176702375Y-121324271D01*
X176498497Y-121324271D01*
X176298538Y-121364045D01*
X176110180Y-121442066D01*
X175940662Y-121555334D01*
X175796499Y-121699497D01*
X175683231Y-121869015D01*
X175605210Y-122057373D01*
X175577810Y-122195124D01*
X175543720Y-122161034D01*
X175374202Y-122047766D01*
X175185844Y-121969745D01*
X174985885Y-121929971D01*
X174782007Y-121929971D01*
X174582048Y-121969745D01*
X174393690Y-122047766D01*
X174224172Y-122161034D01*
X174080009Y-122305197D01*
X173966741Y-122474715D01*
X173888720Y-122663073D01*
X173848946Y-122863032D01*
X172958465Y-122863032D01*
X173014367Y-122728074D01*
X173054141Y-122528115D01*
X173054141Y-122324237D01*
X173014367Y-122124278D01*
X172936346Y-121935920D01*
X172823078Y-121766402D01*
X172678915Y-121622239D01*
X172509397Y-121508971D01*
X172321039Y-121430950D01*
X172135297Y-121394004D01*
X172150270Y-121357857D01*
X172205417Y-121080618D01*
X172205417Y-120797948D01*
X172150270Y-120520709D01*
X172042097Y-120259556D01*
X171885054Y-120024524D01*
X171685176Y-119824646D01*
X171450144Y-119667603D01*
X171188991Y-119559430D01*
X170911752Y-119504283D01*
X170629082Y-119504283D01*
X170351843Y-119559430D01*
X170090690Y-119667603D01*
X169855658Y-119824646D01*
X169655780Y-120024524D01*
X169498737Y-120259556D01*
X169390564Y-120520709D01*
X169335417Y-120797948D01*
X161039575Y-120797948D01*
X161255267Y-120582256D01*
X161570995Y-120109736D01*
X161788472Y-119584699D01*
X161899341Y-119027324D01*
X161899341Y-118819037D01*
X165396141Y-118819037D01*
X165396141Y-119022915D01*
X165435915Y-119222874D01*
X165513936Y-119411232D01*
X165627204Y-119580750D01*
X165771367Y-119724913D01*
X165940885Y-119838181D01*
X166129243Y-119916202D01*
X166329202Y-119955976D01*
X166533080Y-119955976D01*
X166733039Y-119916202D01*
X166921397Y-119838181D01*
X167090915Y-119724913D01*
X167235078Y-119580750D01*
X167293257Y-119493678D01*
X167307082Y-119507503D01*
X167542114Y-119664546D01*
X167803267Y-119772719D01*
X168080506Y-119827866D01*
X168363176Y-119827866D01*
X168640415Y-119772719D01*
X168901568Y-119664546D01*
X169136600Y-119507503D01*
X169336478Y-119307625D01*
X169493521Y-119072593D01*
X169601694Y-118811440D01*
X169656841Y-118534201D01*
X169656841Y-118463794D01*
X179256841Y-118463794D01*
X179256841Y-119041938D01*
X179369632Y-119608974D01*
X179590878Y-120143110D01*
X179912078Y-120623819D01*
X180320888Y-121032629D01*
X180801597Y-121353829D01*
X181335733Y-121575075D01*
X181902769Y-121687866D01*
X182480913Y-121687866D01*
X183047949Y-121575075D01*
X183582085Y-121353829D01*
X184062794Y-121032629D01*
X184297475Y-120797948D01*
X192195417Y-120797948D01*
X192195417Y-121080618D01*
X192250564Y-121357857D01*
X192358737Y-121619010D01*
X192515780Y-121854042D01*
X192715658Y-122053920D01*
X192950690Y-122210963D01*
X193211843Y-122319136D01*
X193489082Y-122374283D01*
X193771752Y-122374283D01*
X193988133Y-122331242D01*
X193988133Y-122346023D01*
X194027907Y-122545982D01*
X194105928Y-122734340D01*
X194219196Y-122903858D01*
X194363359Y-123048021D01*
X194532877Y-123161289D01*
X194721235Y-123239310D01*
X194921194Y-123279084D01*
X195125072Y-123279084D01*
X195325031Y-123239310D01*
X195513389Y-123161289D01*
X195682907Y-123048021D01*
X195827070Y-122903858D01*
X195940338Y-122734340D01*
X196018359Y-122545982D01*
X196058133Y-122346023D01*
X196058133Y-122142145D01*
X196018359Y-121942186D01*
X195940338Y-121753828D01*
X195827070Y-121584310D01*
X195682907Y-121440147D01*
X195513389Y-121326879D01*
X195325031Y-121248858D01*
X195125072Y-121209084D01*
X195039863Y-121209084D01*
X195065417Y-121080618D01*
X195065417Y-120797948D01*
X195010270Y-120520709D01*
X194902097Y-120259556D01*
X194745054Y-120024524D01*
X194545176Y-119824646D01*
X194310144Y-119667603D01*
X194048991Y-119559430D01*
X193771752Y-119504283D01*
X193489082Y-119504283D01*
X193211843Y-119559430D01*
X192950690Y-119667603D01*
X192715658Y-119824646D01*
X192515780Y-120024524D01*
X192358737Y-120259556D01*
X192250564Y-120520709D01*
X192195417Y-120797948D01*
X184297475Y-120797948D01*
X184471604Y-120623819D01*
X184792804Y-120143110D01*
X185014050Y-119608974D01*
X185126841Y-119041938D01*
X185126841Y-118463794D01*
X185014050Y-117896758D01*
X184792804Y-117362622D01*
X184471604Y-116881913D01*
X184062794Y-116473103D01*
X183582085Y-116151903D01*
X183342315Y-116052587D01*
X188546841Y-116052587D01*
X188546841Y-116473145D01*
X188628888Y-116885622D01*
X188789829Y-117274168D01*
X189023478Y-117623849D01*
X189320858Y-117921229D01*
X189670539Y-118154878D01*
X190059085Y-118315819D01*
X190471562Y-118397866D01*
X190892120Y-118397866D01*
X191304597Y-118315819D01*
X191444309Y-118257948D01*
X194735417Y-118257948D01*
X194735417Y-118540618D01*
X194790564Y-118817857D01*
X194898737Y-119079010D01*
X195055780Y-119314042D01*
X195255658Y-119513920D01*
X195490690Y-119670963D01*
X195751843Y-119779136D01*
X196029082Y-119834283D01*
X196311752Y-119834283D01*
X196588991Y-119779136D01*
X196850144Y-119670963D01*
X197085176Y-119513920D01*
X197285054Y-119314042D01*
X197442097Y-119079010D01*
X197550270Y-118817857D01*
X197605417Y-118540618D01*
X197605417Y-118459028D01*
X202484341Y-118459028D01*
X202484341Y-119027324D01*
X202595210Y-119584699D01*
X202812687Y-120109736D01*
X203128415Y-120582256D01*
X203530261Y-120984102D01*
X204002781Y-121299830D01*
X204527818Y-121517307D01*
X205085193Y-121628176D01*
X205653489Y-121628176D01*
X206210864Y-121517307D01*
X206735901Y-121299830D01*
X207208421Y-120984102D01*
X207610267Y-120582256D01*
X207925995Y-120109736D01*
X208143472Y-119584699D01*
X208254341Y-119027324D01*
X208254341Y-118459028D01*
X208143472Y-117901653D01*
X207925995Y-117376616D01*
X207610267Y-116904096D01*
X207208421Y-116502250D01*
X206735901Y-116186522D01*
X206210864Y-115969045D01*
X205653489Y-115858176D01*
X205085193Y-115858176D01*
X204527818Y-115969045D01*
X204002781Y-116186522D01*
X203530261Y-116502250D01*
X203128415Y-116904096D01*
X202812687Y-117376616D01*
X202595210Y-117901653D01*
X202484341Y-118459028D01*
X197605417Y-118459028D01*
X197605417Y-118257948D01*
X197550270Y-117980709D01*
X197442097Y-117719556D01*
X197285054Y-117484524D01*
X197085176Y-117284646D01*
X196850144Y-117127603D01*
X196588991Y-117019430D01*
X196311752Y-116964283D01*
X196029082Y-116964283D01*
X195751843Y-117019430D01*
X195490690Y-117127603D01*
X195255658Y-117284646D01*
X195055780Y-117484524D01*
X194898737Y-117719556D01*
X194790564Y-117980709D01*
X194735417Y-118257948D01*
X191444309Y-118257948D01*
X191693143Y-118154878D01*
X192042824Y-117921229D01*
X192340204Y-117623849D01*
X192573853Y-117274168D01*
X192734794Y-116885622D01*
X192816841Y-116473145D01*
X192816841Y-116052587D01*
X192734794Y-115640110D01*
X192573853Y-115251564D01*
X192340204Y-114901883D01*
X192042824Y-114604503D01*
X191693143Y-114370854D01*
X191304597Y-114209913D01*
X190892120Y-114127866D01*
X190471562Y-114127866D01*
X190059085Y-114209913D01*
X189670539Y-114370854D01*
X189320858Y-114604503D01*
X189023478Y-114901883D01*
X188789829Y-115251564D01*
X188628888Y-115640110D01*
X188546841Y-116052587D01*
X183342315Y-116052587D01*
X183047949Y-115930657D01*
X182480913Y-115817866D01*
X181902769Y-115817866D01*
X181335733Y-115930657D01*
X180801597Y-116151903D01*
X180320888Y-116473103D01*
X179912078Y-116881913D01*
X179590878Y-117362622D01*
X179369632Y-117896758D01*
X179256841Y-118463794D01*
X169656841Y-118463794D01*
X169656841Y-118251531D01*
X169601694Y-117974292D01*
X169493521Y-117713139D01*
X169336478Y-117478107D01*
X169136600Y-117278229D01*
X168901568Y-117121186D01*
X168640415Y-117013013D01*
X168363176Y-116957866D01*
X168080506Y-116957866D01*
X167803267Y-117013013D01*
X167542114Y-117121186D01*
X167307082Y-117278229D01*
X167107204Y-117478107D01*
X166950161Y-117713139D01*
X166843195Y-117971378D01*
X166733039Y-117925750D01*
X166533080Y-117885976D01*
X166329202Y-117885976D01*
X166129243Y-117925750D01*
X165940885Y-118003771D01*
X165771367Y-118117039D01*
X165627204Y-118261202D01*
X165513936Y-118430720D01*
X165435915Y-118619078D01*
X165396141Y-118819037D01*
X161899341Y-118819037D01*
X161899341Y-118459028D01*
X161788472Y-117901653D01*
X161570995Y-117376616D01*
X161255267Y-116904096D01*
X160853421Y-116502250D01*
X160380901Y-116186522D01*
X160057553Y-116052587D01*
X171566841Y-116052587D01*
X171566841Y-116473145D01*
X171648888Y-116885622D01*
X171809829Y-117274168D01*
X172043478Y-117623849D01*
X172340858Y-117921229D01*
X172690539Y-118154878D01*
X173079085Y-118315819D01*
X173491562Y-118397866D01*
X173912120Y-118397866D01*
X174324597Y-118315819D01*
X174713143Y-118154878D01*
X175062824Y-117921229D01*
X175360204Y-117623849D01*
X175593853Y-117274168D01*
X175754794Y-116885622D01*
X175836841Y-116473145D01*
X175836841Y-116052587D01*
X175754794Y-115640110D01*
X175593853Y-115251564D01*
X175360204Y-114901883D01*
X175062824Y-114604503D01*
X174713143Y-114370854D01*
X174324597Y-114209913D01*
X173912120Y-114127866D01*
X173491562Y-114127866D01*
X173079085Y-114209913D01*
X172690539Y-114370854D01*
X172340858Y-114604503D01*
X172043478Y-114901883D01*
X171809829Y-115251564D01*
X171648888Y-115640110D01*
X171566841Y-116052587D01*
X160057553Y-116052587D01*
X159855864Y-115969045D01*
X159298489Y-115858176D01*
X158730193Y-115858176D01*
X158172818Y-115969045D01*
X157647781Y-116186522D01*
X157175261Y-116502250D01*
X156773415Y-116904096D01*
X156457687Y-117376616D01*
X156240210Y-117901653D01*
X156129341Y-118459028D01*
X155577867Y-118459028D01*
X155615984Y-118070283D01*
X155811403Y-117423021D01*
X156128824Y-116826040D01*
X156556151Y-116302087D01*
X157077108Y-115871112D01*
X157671854Y-115549535D01*
X158317739Y-115349600D01*
X159021063Y-115275677D01*
X159085937Y-115275677D01*
X159093403Y-115274942D01*
X159356547Y-115268970D01*
X159389780Y-115265594D01*
X159423150Y-115264079D01*
X160411940Y-115140919D01*
X160513391Y-115120094D01*
X161470740Y-114843769D01*
X161520206Y-114825176D01*
X161567683Y-114807331D01*
X162470020Y-114384646D01*
X162560071Y-114333490D01*
X163385176Y-113774852D01*
X163466115Y-113710239D01*
X163489626Y-113688237D01*
X166282031Y-113688237D01*
X166282031Y-113892115D01*
X166321805Y-114092074D01*
X166399826Y-114280432D01*
X166513094Y-114449950D01*
X166657257Y-114594113D01*
X166826775Y-114707381D01*
X167015133Y-114785402D01*
X167215092Y-114825176D01*
X167418970Y-114825176D01*
X167618929Y-114785402D01*
X167807287Y-114707381D01*
X167976805Y-114594113D01*
X168120968Y-114449950D01*
X168234236Y-114280432D01*
X168312257Y-114092074D01*
X168352031Y-113892115D01*
X168352031Y-113688237D01*
X168312257Y-113488278D01*
X168234236Y-113299920D01*
X168120968Y-113130402D01*
X167976805Y-112986239D01*
X167807287Y-112872971D01*
X167618929Y-112794950D01*
X167418970Y-112755176D01*
X167215092Y-112755176D01*
X167015133Y-112794950D01*
X166826775Y-112872971D01*
X166657257Y-112986239D01*
X166513094Y-113130402D01*
X166399826Y-113299920D01*
X166321805Y-113488278D01*
X166282031Y-113688237D01*
X163489626Y-113688237D01*
X164193671Y-113029404D01*
X164263506Y-112952925D01*
X164263507Y-112952923D01*
X164875598Y-112166659D01*
X164913190Y-112109647D01*
X164932610Y-112080196D01*
X165317303Y-111383325D01*
X170874992Y-111383325D01*
X170874992Y-111587203D01*
X170914766Y-111787162D01*
X170992787Y-111975520D01*
X171106055Y-112145038D01*
X171250218Y-112289201D01*
X171419736Y-112402469D01*
X171608094Y-112480490D01*
X171808053Y-112520264D01*
X172011931Y-112520264D01*
X172211890Y-112480490D01*
X172400248Y-112402469D01*
X172569766Y-112289201D01*
X172713929Y-112145038D01*
X172827197Y-111975520D01*
X172878057Y-111852732D01*
X175270036Y-111852732D01*
X175270036Y-112056610D01*
X175309810Y-112256569D01*
X175387831Y-112444927D01*
X175501099Y-112614445D01*
X175645262Y-112758608D01*
X175814780Y-112871876D01*
X176003138Y-112949897D01*
X176203097Y-112989671D01*
X176406975Y-112989671D01*
X176606934Y-112949897D01*
X176795292Y-112871876D01*
X176964810Y-112758608D01*
X177108973Y-112614445D01*
X177222241Y-112444927D01*
X177300262Y-112256569D01*
X177309091Y-112212180D01*
X177476698Y-112212180D01*
X177476698Y-112416058D01*
X177516472Y-112616017D01*
X177594493Y-112804375D01*
X177707761Y-112973893D01*
X177851924Y-113118056D01*
X178021442Y-113231324D01*
X178177536Y-113295981D01*
X178242193Y-113452075D01*
X178330195Y-113583780D01*
X178301615Y-113652778D01*
X178261841Y-113852737D01*
X178261841Y-114056615D01*
X178301615Y-114256574D01*
X178379636Y-114444932D01*
X178492904Y-114614450D01*
X178637067Y-114758613D01*
X178806585Y-114871881D01*
X178994943Y-114949902D01*
X179194902Y-114989676D01*
X179398780Y-114989676D01*
X179598739Y-114949902D01*
X179787097Y-114871881D01*
X179956615Y-114758613D01*
X180100778Y-114614450D01*
X180214046Y-114444932D01*
X180292067Y-114256574D01*
X180331841Y-114056615D01*
X180331841Y-113852737D01*
X180292067Y-113652778D01*
X180214046Y-113464420D01*
X180126044Y-113332715D01*
X180154624Y-113263717D01*
X180194398Y-113063758D01*
X180194398Y-112859880D01*
X180154624Y-112659921D01*
X180076603Y-112471563D01*
X179963335Y-112302045D01*
X179819172Y-112157882D01*
X179649654Y-112044614D01*
X179637388Y-112039533D01*
X183249231Y-112039533D01*
X183249231Y-112243411D01*
X183289005Y-112443370D01*
X183367026Y-112631728D01*
X183480294Y-112801246D01*
X183624457Y-112945409D01*
X183793975Y-113058677D01*
X183982333Y-113136698D01*
X184182292Y-113176472D01*
X184386170Y-113176472D01*
X184586129Y-113136698D01*
X184774487Y-113058677D01*
X184944005Y-112945409D01*
X185088168Y-112801246D01*
X185201436Y-112631728D01*
X185229870Y-112563082D01*
X185558596Y-112563082D01*
X185558596Y-112766960D01*
X185598370Y-112966919D01*
X185676391Y-113155277D01*
X185789659Y-113324795D01*
X185933822Y-113468958D01*
X186103340Y-113582226D01*
X186291698Y-113660247D01*
X186491657Y-113700021D01*
X186695535Y-113700021D01*
X186895494Y-113660247D01*
X187083852Y-113582226D01*
X187253370Y-113468958D01*
X187397533Y-113324795D01*
X187401311Y-113319141D01*
X187499497Y-113338671D01*
X187703375Y-113338671D01*
X187903334Y-113298897D01*
X188091692Y-113220876D01*
X188261210Y-113107608D01*
X188405373Y-112963445D01*
X188518641Y-112793927D01*
X188580978Y-112643432D01*
X191529336Y-112643432D01*
X191529336Y-112847310D01*
X191569110Y-113047269D01*
X191647131Y-113235627D01*
X191760399Y-113405145D01*
X191904562Y-113549308D01*
X192074080Y-113662576D01*
X192262438Y-113740597D01*
X192462397Y-113780371D01*
X192485534Y-113780371D01*
X192485534Y-113844713D01*
X192525308Y-114044672D01*
X192603329Y-114233030D01*
X192716597Y-114402548D01*
X192860760Y-114546711D01*
X193030278Y-114659979D01*
X193218636Y-114738000D01*
X193418595Y-114777774D01*
X193622473Y-114777774D01*
X193822432Y-114738000D01*
X194010790Y-114659979D01*
X194180308Y-114546711D01*
X194324471Y-114402548D01*
X194437739Y-114233030D01*
X194515760Y-114044672D01*
X194555534Y-113844713D01*
X194555534Y-113640835D01*
X194515760Y-113440876D01*
X194437739Y-113252518D01*
X194324471Y-113083000D01*
X194180308Y-112938837D01*
X194010790Y-112825569D01*
X193966284Y-112807134D01*
X194022323Y-112751095D01*
X194135591Y-112581577D01*
X194213612Y-112393219D01*
X194253386Y-112193260D01*
X194253386Y-111989382D01*
X194213612Y-111789423D01*
X194135591Y-111601065D01*
X194022323Y-111431547D01*
X193878160Y-111287384D01*
X193708642Y-111174116D01*
X193520284Y-111096095D01*
X193320325Y-111056321D01*
X193116447Y-111056321D01*
X192916488Y-111096095D01*
X192728130Y-111174116D01*
X192558612Y-111287384D01*
X192414449Y-111431547D01*
X192301181Y-111601065D01*
X192234664Y-111761649D01*
X192074080Y-111828166D01*
X191904562Y-111941434D01*
X191760399Y-112085597D01*
X191647131Y-112255115D01*
X191569110Y-112443473D01*
X191529336Y-112643432D01*
X188580978Y-112643432D01*
X188596662Y-112605569D01*
X188636436Y-112405610D01*
X188636436Y-112201732D01*
X188596662Y-112001773D01*
X188518641Y-111813415D01*
X188405373Y-111643897D01*
X188261210Y-111499734D01*
X188091692Y-111386466D01*
X187903334Y-111308445D01*
X187703375Y-111268671D01*
X187499497Y-111268671D01*
X187299538Y-111308445D01*
X187111180Y-111386466D01*
X186941662Y-111499734D01*
X186797499Y-111643897D01*
X186793721Y-111649551D01*
X186695535Y-111630021D01*
X186491657Y-111630021D01*
X186291698Y-111669795D01*
X186103340Y-111747816D01*
X185933822Y-111861084D01*
X185789659Y-112005247D01*
X185676391Y-112174765D01*
X185598370Y-112363123D01*
X185558596Y-112563082D01*
X185229870Y-112563082D01*
X185279457Y-112443370D01*
X185319231Y-112243411D01*
X185319231Y-112039533D01*
X185279457Y-111839574D01*
X185201436Y-111651216D01*
X185088168Y-111481698D01*
X184944005Y-111337535D01*
X184774487Y-111224267D01*
X184586129Y-111146246D01*
X184386170Y-111106472D01*
X184182292Y-111106472D01*
X183982333Y-111146246D01*
X183793975Y-111224267D01*
X183624457Y-111337535D01*
X183480294Y-111481698D01*
X183367026Y-111651216D01*
X183289005Y-111839574D01*
X183249231Y-112039533D01*
X179637388Y-112039533D01*
X179493560Y-111979957D01*
X179428903Y-111823863D01*
X179315635Y-111654345D01*
X179171472Y-111510182D01*
X179001954Y-111396914D01*
X178813596Y-111318893D01*
X178613637Y-111279119D01*
X178409759Y-111279119D01*
X178209800Y-111318893D01*
X178021442Y-111396914D01*
X177851924Y-111510182D01*
X177707761Y-111654345D01*
X177594493Y-111823863D01*
X177516472Y-112012221D01*
X177476698Y-112212180D01*
X177309091Y-112212180D01*
X177340036Y-112056610D01*
X177340036Y-111852732D01*
X177300262Y-111652773D01*
X177222241Y-111464415D01*
X177108973Y-111294897D01*
X176964810Y-111150734D01*
X176795292Y-111037466D01*
X176606934Y-110959445D01*
X176406975Y-110919671D01*
X176203097Y-110919671D01*
X176003138Y-110959445D01*
X175814780Y-111037466D01*
X175645262Y-111150734D01*
X175501099Y-111294897D01*
X175387831Y-111464415D01*
X175309810Y-111652773D01*
X175270036Y-111852732D01*
X172878057Y-111852732D01*
X172905218Y-111787162D01*
X172944992Y-111587203D01*
X172944992Y-111383325D01*
X172905218Y-111183366D01*
X172827197Y-110995008D01*
X172713929Y-110825490D01*
X172569766Y-110681327D01*
X172400248Y-110568059D01*
X172211890Y-110490038D01*
X172011931Y-110450264D01*
X171808053Y-110450264D01*
X171608094Y-110490038D01*
X171419736Y-110568059D01*
X171250218Y-110681327D01*
X171106055Y-110825490D01*
X170992787Y-110995008D01*
X170914766Y-111183366D01*
X170874992Y-111383325D01*
X165317303Y-111383325D01*
X165414167Y-111207856D01*
X165415557Y-111204791D01*
X165424691Y-111188003D01*
X166084133Y-109890937D01*
X166729641Y-109890937D01*
X166729641Y-110094815D01*
X166769415Y-110294774D01*
X166847436Y-110483132D01*
X166960704Y-110652650D01*
X167104867Y-110796813D01*
X167274385Y-110910081D01*
X167462743Y-110988102D01*
X167662702Y-111027876D01*
X167866580Y-111027876D01*
X168066539Y-110988102D01*
X168254897Y-110910081D01*
X168424415Y-110796813D01*
X168568578Y-110652650D01*
X168681846Y-110483132D01*
X168759867Y-110294774D01*
X168799641Y-110094815D01*
X168799641Y-109890937D01*
X168759867Y-109690978D01*
X168681846Y-109502620D01*
X168568578Y-109333102D01*
X168424415Y-109188939D01*
X168254897Y-109075671D01*
X168066539Y-108997650D01*
X167866580Y-108957876D01*
X167662702Y-108957876D01*
X167462743Y-108997650D01*
X167274385Y-109075671D01*
X167104867Y-109188939D01*
X166960704Y-109333102D01*
X166847436Y-109502620D01*
X166769415Y-109690978D01*
X166729641Y-109890937D01*
X166084133Y-109890937D01*
X166194391Y-109674071D01*
X167082184Y-108261510D01*
X168094353Y-106935217D01*
X169222554Y-105706127D01*
X169592881Y-105369737D01*
X171555641Y-105369737D01*
X171555641Y-105573615D01*
X171595415Y-105773574D01*
X171673436Y-105961932D01*
X171786704Y-106131450D01*
X171930867Y-106275613D01*
X172100385Y-106388881D01*
X172288743Y-106466902D01*
X172488702Y-106506676D01*
X172692580Y-106506676D01*
X172892539Y-106466902D01*
X173080897Y-106388881D01*
X173250415Y-106275613D01*
X173394578Y-106131450D01*
X173507846Y-105961932D01*
X173585867Y-105773574D01*
X173625641Y-105573615D01*
X173625641Y-105369737D01*
X173585867Y-105169778D01*
X173507846Y-104981420D01*
X173394578Y-104811902D01*
X173250415Y-104667739D01*
X173080897Y-104554471D01*
X172892539Y-104476450D01*
X172692580Y-104436676D01*
X172488702Y-104436676D01*
X172288743Y-104476450D01*
X172100385Y-104554471D01*
X171930867Y-104667739D01*
X171786704Y-104811902D01*
X171673436Y-104981420D01*
X171595415Y-105169778D01*
X171555641Y-105369737D01*
X169592881Y-105369737D01*
X170457511Y-104584343D01*
X171789064Y-103579098D01*
X173206239Y-102698676D01*
X174672119Y-101962994D01*
X174657936Y-101984220D01*
X174579915Y-102172578D01*
X174540141Y-102372537D01*
X174540141Y-102576415D01*
X174579915Y-102776374D01*
X174657936Y-102964732D01*
X174771204Y-103134250D01*
X174915367Y-103278413D01*
X175084885Y-103391681D01*
X175273243Y-103469702D01*
X175473202Y-103509476D01*
X175677080Y-103509476D01*
X175877039Y-103469702D01*
X176065397Y-103391681D01*
X176234915Y-103278413D01*
X176379078Y-103134250D01*
X176492346Y-102964732D01*
X176570367Y-102776374D01*
X176610141Y-102576415D01*
X176610141Y-102372537D01*
X176570367Y-102172578D01*
X176492346Y-101984220D01*
X176379078Y-101814702D01*
X176234915Y-101670539D01*
X176065397Y-101557271D01*
X175886405Y-101483130D01*
X176250184Y-101340195D01*
X176942690Y-101138339D01*
X176942339Y-101138996D01*
X176906029Y-101258694D01*
X176893769Y-101383176D01*
X176893769Y-103083176D01*
X176906029Y-103207658D01*
X176942339Y-103327356D01*
X177001304Y-103437670D01*
X177080656Y-103534361D01*
X177177347Y-103613713D01*
X177287661Y-103672678D01*
X177360221Y-103694689D01*
X177228366Y-103826544D01*
X177065851Y-104069765D01*
X176953909Y-104340018D01*
X176896841Y-104626916D01*
X176896841Y-104919436D01*
X176953909Y-105206334D01*
X177065851Y-105476587D01*
X177228366Y-105719808D01*
X177435209Y-105926651D01*
X177678430Y-106089166D01*
X177948683Y-106201108D01*
X178235581Y-106258176D01*
X178528101Y-106258176D01*
X178712901Y-106221417D01*
X178822504Y-106385450D01*
X178966667Y-106529613D01*
X179136185Y-106642881D01*
X179324543Y-106720902D01*
X179524502Y-106760676D01*
X179728380Y-106760676D01*
X179928339Y-106720902D01*
X180116697Y-106642881D01*
X180286215Y-106529613D01*
X180430378Y-106385450D01*
X180543646Y-106215932D01*
X180545135Y-106212337D01*
X180775581Y-106258176D01*
X181068101Y-106258176D01*
X181330717Y-106205938D01*
X181329246Y-106213332D01*
X181329246Y-106417210D01*
X181369020Y-106617169D01*
X181447041Y-106805527D01*
X181560309Y-106975045D01*
X181704472Y-107119208D01*
X181873990Y-107232476D01*
X182062348Y-107310497D01*
X182262307Y-107350271D01*
X182466185Y-107350271D01*
X182666144Y-107310497D01*
X182854502Y-107232476D01*
X183024020Y-107119208D01*
X183118941Y-107024287D01*
X183201762Y-107107108D01*
X183371280Y-107220376D01*
X183559638Y-107298397D01*
X183759597Y-107338171D01*
X183963475Y-107338171D01*
X184163434Y-107298397D01*
X184351792Y-107220376D01*
X184521310Y-107107108D01*
X184665473Y-106962945D01*
X184778741Y-106793427D01*
X184856762Y-106605069D01*
X184896536Y-106405110D01*
X184896536Y-106201232D01*
X184856762Y-106001273D01*
X184778741Y-105812915D01*
X184665923Y-105644070D01*
X184731841Y-105545416D01*
X184848366Y-105719808D01*
X185055209Y-105926651D01*
X185222517Y-106038443D01*
X185217120Y-106051473D01*
X185177346Y-106251432D01*
X185177346Y-106455310D01*
X185217120Y-106655269D01*
X185295141Y-106843627D01*
X185408409Y-107013145D01*
X185552572Y-107157308D01*
X185722090Y-107270576D01*
X185910448Y-107348597D01*
X186110407Y-107388371D01*
X186314285Y-107388371D01*
X186514244Y-107348597D01*
X186702602Y-107270576D01*
X186872120Y-107157308D01*
X187016283Y-107013145D01*
X187129551Y-106843627D01*
X187207572Y-106655269D01*
X187247346Y-106455310D01*
X187247346Y-106251432D01*
X187207572Y-106051473D01*
X187129551Y-105863115D01*
X187082470Y-105792654D01*
X187155316Y-105719808D01*
X187317831Y-105476587D01*
X187429773Y-105206334D01*
X187486841Y-104919436D01*
X187486841Y-104626916D01*
X187429773Y-104340018D01*
X187317831Y-104069765D01*
X187155316Y-103826544D01*
X186948473Y-103619701D01*
X186774081Y-103503176D01*
X186948473Y-103386651D01*
X187155316Y-103179808D01*
X187317831Y-102936587D01*
X187429773Y-102666334D01*
X187486841Y-102379436D01*
X187486841Y-102086916D01*
X187429773Y-101800018D01*
X187317831Y-101529765D01*
X187155316Y-101286544D01*
X186948473Y-101079701D01*
X186748002Y-100945751D01*
X187736703Y-101209735D01*
%TA.AperFunction,Conductor*%
D16*
G36*
X187736703Y-101209735D02*
G01*
X189302983Y-101784441D01*
X190810727Y-102498736D01*
X192247539Y-103346749D01*
X192570901Y-103579530D01*
X192547385Y-103589271D01*
X192377867Y-103702539D01*
X192233704Y-103846702D01*
X192120436Y-104016220D01*
X192042415Y-104204578D01*
X192002641Y-104404537D01*
X192002641Y-104608415D01*
X192042415Y-104808374D01*
X192120436Y-104996732D01*
X192233704Y-105166250D01*
X192377867Y-105310413D01*
X192547385Y-105423681D01*
X192735743Y-105501702D01*
X192935702Y-105541476D01*
X193139580Y-105541476D01*
X193339539Y-105501702D01*
X193527897Y-105423681D01*
X193697415Y-105310413D01*
X193841578Y-105166250D01*
X193954846Y-104996732D01*
X194032867Y-104808374D01*
X194051974Y-104712317D01*
X194861686Y-105414932D01*
X196017514Y-106618085D01*
X197059543Y-107921046D01*
X197979190Y-109313083D01*
X198774231Y-110792682D01*
X198947451Y-111164047D01*
X198949719Y-111168385D01*
X198950683Y-111170874D01*
X199075461Y-111430583D01*
X199092246Y-111459466D01*
X199107390Y-111489237D01*
X199627460Y-112339179D01*
X199673379Y-112402469D01*
X199688279Y-112423006D01*
X200334906Y-113181127D01*
X200399650Y-113245957D01*
X200408089Y-113254407D01*
X201165351Y-113902040D01*
X201249098Y-113962971D01*
X202098348Y-114484167D01*
X202127643Y-114499118D01*
X202190596Y-114531247D01*
X203110925Y-114913175D01*
X203158218Y-114928576D01*
X203209400Y-114945244D01*
X204178144Y-115178499D01*
X204275842Y-115194039D01*
X204280425Y-115194768D01*
X205267518Y-115273113D01*
X205293517Y-115275674D01*
X205337040Y-115275675D01*
X206042234Y-115344820D01*
X206689498Y-115540240D01*
X207286474Y-115857658D01*
X207810429Y-116284985D01*
X208241404Y-116805944D01*
X208562981Y-117400688D01*
X208762916Y-118046574D01*
X208836840Y-118749907D01*
X208836841Y-133800428D01*
X208764403Y-134612080D01*
X208557168Y-135369605D01*
X208219061Y-136078458D01*
X207760768Y-136716241D01*
X207196785Y-137262777D01*
X206544925Y-137700809D01*
X205825803Y-138016482D01*
X205057072Y-138201037D01*
X204392632Y-138249831D01*
X159996234Y-138249831D01*
X159184593Y-138177394D01*
X158660296Y-138033963D01*
X158752642Y-138005950D01*
X159097484Y-137821629D01*
X159399739Y-137573574D01*
X159647794Y-137271319D01*
X159832115Y-136926478D01*
X159945619Y-136552304D01*
X159974341Y-136260686D01*
X159974341Y-135465667D01*
X159957295Y-135292587D01*
X180056841Y-135292587D01*
X180056841Y-135713145D01*
X180138888Y-136125622D01*
X180299829Y-136514168D01*
X180533478Y-136863849D01*
X180830858Y-137161229D01*
X181180539Y-137394878D01*
X181569085Y-137555819D01*
X181981562Y-137637866D01*
X182402120Y-137637866D01*
X182814597Y-137555819D01*
X183203143Y-137394878D01*
X183552824Y-137161229D01*
X183850204Y-136863849D01*
X184083853Y-136514168D01*
X184244794Y-136125622D01*
X184326841Y-135713145D01*
X184326841Y-135312321D01*
X200136841Y-135312321D01*
X200136841Y-136107340D01*
X200165563Y-136398958D01*
X200279067Y-136773132D01*
X200463388Y-137117974D01*
X200711443Y-137420229D01*
X201013698Y-137668284D01*
X201358539Y-137852605D01*
X201732713Y-137966109D01*
X202121841Y-138004435D01*
X202510968Y-137966109D01*
X202885142Y-137852605D01*
X203229984Y-137668284D01*
X203532239Y-137420229D01*
X203780294Y-137117974D01*
X203964615Y-136773133D01*
X204078119Y-136398959D01*
X204106841Y-136107341D01*
X204106841Y-135312322D01*
X204078119Y-135020704D01*
X203964615Y-134646529D01*
X203780294Y-134301688D01*
X203532239Y-133999433D01*
X203229984Y-133751378D01*
X202885143Y-133567057D01*
X202510969Y-133453553D01*
X202121841Y-133415227D01*
X201732714Y-133453553D01*
X201358540Y-133567057D01*
X201013699Y-133751378D01*
X200711444Y-133999433D01*
X200463388Y-134301688D01*
X200279067Y-134646529D01*
X200165563Y-135020703D01*
X200136841Y-135312321D01*
X184326841Y-135312321D01*
X184326841Y-135292587D01*
X184244794Y-134880110D01*
X184083853Y-134491564D01*
X183850204Y-134141883D01*
X183552824Y-133844503D01*
X183203143Y-133610854D01*
X182814597Y-133449913D01*
X182402120Y-133367866D01*
X181981562Y-133367866D01*
X181569085Y-133449913D01*
X181180539Y-133610854D01*
X180830858Y-133844503D01*
X180533478Y-134141883D01*
X180299829Y-134491564D01*
X180138888Y-134880110D01*
X180056841Y-135292587D01*
X159957295Y-135292587D01*
X159945619Y-135174049D01*
X159832115Y-134799874D01*
X159647794Y-134455033D01*
X159399739Y-134152778D01*
X159097484Y-133904723D01*
X158752643Y-133720402D01*
X158378469Y-133606898D01*
X157989341Y-133568572D01*
X157600214Y-133606898D01*
X157226040Y-133720402D01*
X156881199Y-133904723D01*
X156578944Y-134152778D01*
X156330888Y-134455033D01*
X156146567Y-134799874D01*
X156033063Y-135174048D01*
X156004341Y-135465666D01*
X156004341Y-135749422D01*
X155780191Y-135238794D01*
X155595636Y-134470063D01*
X155546842Y-133805623D01*
X155546842Y-129965666D01*
X156004341Y-129965666D01*
X156004341Y-130760685D01*
X156033063Y-131052303D01*
X156146567Y-131426477D01*
X156330888Y-131771319D01*
X156578943Y-132073574D01*
X156881198Y-132321629D01*
X157226039Y-132505950D01*
X157600213Y-132619454D01*
X157989341Y-132657780D01*
X158378468Y-132619454D01*
X158752642Y-132505950D01*
X159097484Y-132321629D01*
X159399739Y-132073574D01*
X159647794Y-131771319D01*
X159832115Y-131426478D01*
X159945619Y-131052304D01*
X159974341Y-130760686D01*
X159974341Y-129965667D01*
X159945619Y-129674049D01*
X159832115Y-129299874D01*
X159652148Y-128963177D01*
X160201269Y-128963177D01*
X160201269Y-131763175D01*
X160218333Y-131936429D01*
X160268870Y-132103026D01*
X160350936Y-132256562D01*
X160461380Y-132391137D01*
X160595955Y-132501581D01*
X160749491Y-132583647D01*
X160916088Y-132634184D01*
X161089342Y-132651248D01*
X163289340Y-132651248D01*
X163462594Y-132634184D01*
X163629191Y-132583647D01*
X163782727Y-132501581D01*
X163917302Y-132391137D01*
X164027746Y-132256562D01*
X164109812Y-132103026D01*
X164160349Y-131936429D01*
X164177413Y-131763175D01*
X164177413Y-130957948D01*
X166795417Y-130957948D01*
X166795417Y-131240618D01*
X166850564Y-131517857D01*
X166958737Y-131779010D01*
X167115780Y-132014042D01*
X167315658Y-132213920D01*
X167550690Y-132370963D01*
X167811843Y-132479136D01*
X168089082Y-132534283D01*
X168371752Y-132534283D01*
X168648991Y-132479136D01*
X168910144Y-132370963D01*
X169145176Y-132213920D01*
X169345054Y-132014042D01*
X169502097Y-131779010D01*
X169610270Y-131517857D01*
X169665417Y-131240618D01*
X169665417Y-130957948D01*
X169610270Y-130680709D01*
X169502097Y-130419556D01*
X169430189Y-130311937D01*
X175721841Y-130311937D01*
X175721841Y-130515815D01*
X175761615Y-130715774D01*
X175839636Y-130904132D01*
X175952904Y-131073650D01*
X176097067Y-131217813D01*
X176266585Y-131331081D01*
X176454943Y-131409102D01*
X176654902Y-131448876D01*
X176858780Y-131448876D01*
X177058739Y-131409102D01*
X177144109Y-131373740D01*
X177083125Y-131520968D01*
X177043351Y-131720927D01*
X177043351Y-131924805D01*
X177083125Y-132124764D01*
X177161146Y-132313122D01*
X177274414Y-132482640D01*
X177418577Y-132626803D01*
X177588095Y-132740071D01*
X177776453Y-132818092D01*
X177976412Y-132857866D01*
X178180290Y-132857866D01*
X178380249Y-132818092D01*
X178568607Y-132740071D01*
X178738125Y-132626803D01*
X178882288Y-132482640D01*
X178995556Y-132313122D01*
X179073577Y-132124764D01*
X179113351Y-131924805D01*
X179113351Y-131720927D01*
X179073577Y-131520968D01*
X178995556Y-131332610D01*
X178882288Y-131163092D01*
X178738125Y-131018929D01*
X178568607Y-130905661D01*
X178380249Y-130827640D01*
X178180290Y-130787866D01*
X177976412Y-130787866D01*
X177776453Y-130827640D01*
X177691083Y-130863002D01*
X177752067Y-130715774D01*
X177791841Y-130515815D01*
X177791841Y-130404382D01*
X178848386Y-130404382D01*
X178848386Y-130608260D01*
X178888160Y-130808219D01*
X178966181Y-130996577D01*
X179079449Y-131166095D01*
X179223612Y-131310258D01*
X179393130Y-131423526D01*
X179581488Y-131501547D01*
X179781447Y-131541321D01*
X179985325Y-131541321D01*
X180185284Y-131501547D01*
X180373642Y-131423526D01*
X180543160Y-131310258D01*
X180687323Y-131166095D01*
X180800591Y-130996577D01*
X180878612Y-130808219D01*
X180918386Y-130608260D01*
X180918386Y-130404382D01*
X180878612Y-130204423D01*
X180819653Y-130062082D01*
X181292996Y-130062082D01*
X181292996Y-130265960D01*
X181332770Y-130465919D01*
X181410791Y-130654277D01*
X181524059Y-130823795D01*
X181668222Y-130967958D01*
X181837740Y-131081226D01*
X182026098Y-131159247D01*
X182226057Y-131199021D01*
X182429935Y-131199021D01*
X182629894Y-131159247D01*
X182818252Y-131081226D01*
X182987770Y-130967958D01*
X183131933Y-130823795D01*
X183245201Y-130654277D01*
X183323222Y-130465919D01*
X183348749Y-130337582D01*
X183455186Y-130337582D01*
X183455186Y-130541460D01*
X183494960Y-130741419D01*
X183572981Y-130929777D01*
X183686249Y-131099295D01*
X183830412Y-131243458D01*
X183999930Y-131356726D01*
X184188288Y-131434747D01*
X184388247Y-131474521D01*
X184592125Y-131474521D01*
X184792084Y-131434747D01*
X184980442Y-131356726D01*
X185149960Y-131243458D01*
X185294123Y-131099295D01*
X185407391Y-130929777D01*
X185485412Y-130741419D01*
X185525186Y-130541460D01*
X185525186Y-130340882D01*
X185941796Y-130340882D01*
X185941796Y-130544760D01*
X185981570Y-130744719D01*
X186059591Y-130933077D01*
X186172859Y-131102595D01*
X186317022Y-131246758D01*
X186486540Y-131360026D01*
X186674898Y-131438047D01*
X186874857Y-131477821D01*
X187078735Y-131477821D01*
X187278694Y-131438047D01*
X187467052Y-131360026D01*
X187636570Y-131246758D01*
X187780733Y-131102595D01*
X187894001Y-130933077D01*
X187955295Y-130785101D01*
X187977928Y-130818974D01*
X188122091Y-130963137D01*
X188291609Y-131076405D01*
X188479967Y-131154426D01*
X188679926Y-131194200D01*
X188883804Y-131194200D01*
X189083763Y-131154426D01*
X189272121Y-131076405D01*
X189441639Y-130963137D01*
X189446828Y-130957948D01*
X194735417Y-130957948D01*
X194735417Y-131240618D01*
X194790564Y-131517857D01*
X194898737Y-131779010D01*
X195055780Y-132014042D01*
X195255658Y-132213920D01*
X195490690Y-132370963D01*
X195751843Y-132479136D01*
X196029082Y-132534283D01*
X196311752Y-132534283D01*
X196588991Y-132479136D01*
X196850144Y-132370963D01*
X197085176Y-132213920D01*
X197285054Y-132014042D01*
X197442097Y-131779010D01*
X197550270Y-131517857D01*
X197605417Y-131240618D01*
X197605417Y-130957948D01*
X197550270Y-130680709D01*
X197442097Y-130419556D01*
X197285054Y-130184524D01*
X197085176Y-129984646D01*
X196850144Y-129827603D01*
X196813250Y-129812321D01*
X200136841Y-129812321D01*
X200136841Y-130607340D01*
X200165563Y-130898958D01*
X200279067Y-131273132D01*
X200463388Y-131617974D01*
X200711443Y-131920229D01*
X201013698Y-132168284D01*
X201358539Y-132352605D01*
X201732713Y-132466109D01*
X202121841Y-132504435D01*
X202510968Y-132466109D01*
X202885142Y-132352605D01*
X203229984Y-132168284D01*
X203532239Y-131920229D01*
X203780294Y-131617974D01*
X203964615Y-131273133D01*
X204078119Y-130898959D01*
X204106841Y-130607341D01*
X204106841Y-129812322D01*
X204078119Y-129520704D01*
X203964615Y-129146529D01*
X203784648Y-128809832D01*
X204333769Y-128809832D01*
X204333769Y-131609830D01*
X204350833Y-131783084D01*
X204401370Y-131949681D01*
X204483436Y-132103217D01*
X204593880Y-132237792D01*
X204728455Y-132348236D01*
X204881991Y-132430302D01*
X205048588Y-132480839D01*
X205221842Y-132497903D01*
X207421840Y-132497903D01*
X207595094Y-132480839D01*
X207761691Y-132430302D01*
X207915227Y-132348236D01*
X208049802Y-132237792D01*
X208160246Y-132103217D01*
X208242312Y-131949681D01*
X208292849Y-131783084D01*
X208309913Y-131609830D01*
X208309913Y-128809832D01*
X208292849Y-128636578D01*
X208242312Y-128469981D01*
X208160246Y-128316445D01*
X208049802Y-128181870D01*
X207915227Y-128071426D01*
X207761691Y-127989360D01*
X207595094Y-127938823D01*
X207421840Y-127921759D01*
X205221842Y-127921759D01*
X205048588Y-127938823D01*
X204881991Y-127989360D01*
X204728455Y-128071426D01*
X204593880Y-128181870D01*
X204483436Y-128316445D01*
X204401370Y-128469981D01*
X204350833Y-128636578D01*
X204333769Y-128809832D01*
X203784648Y-128809832D01*
X203780294Y-128801688D01*
X203532239Y-128499433D01*
X203229984Y-128251378D01*
X202885143Y-128067057D01*
X202510969Y-127953553D01*
X202121841Y-127915227D01*
X201732714Y-127953553D01*
X201358540Y-128067057D01*
X201013699Y-128251378D01*
X200711444Y-128499433D01*
X200463388Y-128801688D01*
X200279067Y-129146529D01*
X200165563Y-129520703D01*
X200136841Y-129812321D01*
X196813250Y-129812321D01*
X196588991Y-129719430D01*
X196311752Y-129664283D01*
X196029082Y-129664283D01*
X195751843Y-129719430D01*
X195490690Y-129827603D01*
X195255658Y-129984646D01*
X195055780Y-130184524D01*
X194898737Y-130419556D01*
X194790564Y-130680709D01*
X194735417Y-130957948D01*
X189446828Y-130957948D01*
X189585802Y-130818974D01*
X189699070Y-130649456D01*
X189777091Y-130461098D01*
X189816865Y-130261139D01*
X189816865Y-130057261D01*
X189777091Y-129857302D01*
X189699070Y-129668944D01*
X189585802Y-129499426D01*
X189441639Y-129355263D01*
X189272121Y-129241995D01*
X189083763Y-129163974D01*
X188883804Y-129124200D01*
X188679926Y-129124200D01*
X188479967Y-129163974D01*
X188291609Y-129241995D01*
X188122091Y-129355263D01*
X187977928Y-129499426D01*
X187864660Y-129668944D01*
X187803366Y-129816920D01*
X187780733Y-129783047D01*
X187636570Y-129638884D01*
X187467052Y-129525616D01*
X187278694Y-129447595D01*
X187078735Y-129407821D01*
X186874857Y-129407821D01*
X186674898Y-129447595D01*
X186486540Y-129525616D01*
X186317022Y-129638884D01*
X186172859Y-129783047D01*
X186059591Y-129952565D01*
X185981570Y-130140923D01*
X185941796Y-130340882D01*
X185525186Y-130340882D01*
X185525186Y-130337582D01*
X185485412Y-130137623D01*
X185407391Y-129949265D01*
X185294123Y-129779747D01*
X185149960Y-129635584D01*
X184980442Y-129522316D01*
X184792084Y-129444295D01*
X184592125Y-129404521D01*
X184388247Y-129404521D01*
X184188288Y-129444295D01*
X183999930Y-129522316D01*
X183830412Y-129635584D01*
X183686249Y-129779747D01*
X183572981Y-129949265D01*
X183494960Y-130137623D01*
X183455186Y-130337582D01*
X183348749Y-130337582D01*
X183362996Y-130265960D01*
X183362996Y-130062082D01*
X183323222Y-129862123D01*
X183245201Y-129673765D01*
X183131933Y-129504247D01*
X182987770Y-129360084D01*
X182818252Y-129246816D01*
X182629894Y-129168795D01*
X182429935Y-129129021D01*
X182226057Y-129129021D01*
X182026098Y-129168795D01*
X181837740Y-129246816D01*
X181668222Y-129360084D01*
X181524059Y-129504247D01*
X181410791Y-129673765D01*
X181332770Y-129862123D01*
X181292996Y-130062082D01*
X180819653Y-130062082D01*
X180800591Y-130016065D01*
X180687323Y-129846547D01*
X180543160Y-129702384D01*
X180373642Y-129589116D01*
X180185284Y-129511095D01*
X179985325Y-129471321D01*
X179781447Y-129471321D01*
X179581488Y-129511095D01*
X179393130Y-129589116D01*
X179223612Y-129702384D01*
X179079449Y-129846547D01*
X178966181Y-130016065D01*
X178888160Y-130204423D01*
X178848386Y-130404382D01*
X177791841Y-130404382D01*
X177791841Y-130311937D01*
X177752067Y-130111978D01*
X177674046Y-129923620D01*
X177560778Y-129754102D01*
X177416615Y-129609939D01*
X177247097Y-129496671D01*
X177058739Y-129418650D01*
X176858780Y-129378876D01*
X176654902Y-129378876D01*
X176454943Y-129418650D01*
X176266585Y-129496671D01*
X176097067Y-129609939D01*
X175952904Y-129754102D01*
X175839636Y-129923620D01*
X175761615Y-130111978D01*
X175721841Y-130311937D01*
X169430189Y-130311937D01*
X169345054Y-130184524D01*
X169145176Y-129984646D01*
X168910144Y-129827603D01*
X168648991Y-129719430D01*
X168371752Y-129664283D01*
X168089082Y-129664283D01*
X167811843Y-129719430D01*
X167550690Y-129827603D01*
X167315658Y-129984646D01*
X167115780Y-130184524D01*
X166958737Y-130419556D01*
X166850564Y-130680709D01*
X166795417Y-130957948D01*
X164177413Y-130957948D01*
X164177413Y-128963177D01*
X164160349Y-128789923D01*
X164109812Y-128623326D01*
X164027746Y-128469790D01*
X163985200Y-128417948D01*
X169335417Y-128417948D01*
X169335417Y-128700618D01*
X169390564Y-128977857D01*
X169498737Y-129239010D01*
X169655780Y-129474042D01*
X169855658Y-129673920D01*
X170090690Y-129830963D01*
X170351843Y-129939136D01*
X170629082Y-129994283D01*
X170911752Y-129994283D01*
X171188991Y-129939136D01*
X171450144Y-129830963D01*
X171685176Y-129673920D01*
X171885054Y-129474042D01*
X172042097Y-129239010D01*
X172150270Y-128977857D01*
X172205417Y-128700618D01*
X172205417Y-128417948D01*
X192195417Y-128417948D01*
X192195417Y-128700618D01*
X192250564Y-128977857D01*
X192358737Y-129239010D01*
X192515780Y-129474042D01*
X192715658Y-129673920D01*
X192950690Y-129830963D01*
X193211843Y-129939136D01*
X193489082Y-129994283D01*
X193771752Y-129994283D01*
X194048991Y-129939136D01*
X194310144Y-129830963D01*
X194545176Y-129673920D01*
X194745054Y-129474042D01*
X194902097Y-129239010D01*
X195010270Y-128977857D01*
X195065417Y-128700618D01*
X195065417Y-128417948D01*
X195010270Y-128140709D01*
X194902097Y-127879556D01*
X194745054Y-127644524D01*
X194545176Y-127444646D01*
X194310144Y-127287603D01*
X194048991Y-127179430D01*
X193771752Y-127124283D01*
X193489082Y-127124283D01*
X193211843Y-127179430D01*
X192950690Y-127287603D01*
X192715658Y-127444646D01*
X192515780Y-127644524D01*
X192358737Y-127879556D01*
X192250564Y-128140709D01*
X192195417Y-128417948D01*
X172205417Y-128417948D01*
X172150270Y-128140709D01*
X172042097Y-127879556D01*
X171885054Y-127644524D01*
X171685176Y-127444646D01*
X171450144Y-127287603D01*
X171188991Y-127179430D01*
X170911752Y-127124283D01*
X170629082Y-127124283D01*
X170351843Y-127179430D01*
X170090690Y-127287603D01*
X169855658Y-127444646D01*
X169655780Y-127644524D01*
X169498737Y-127879556D01*
X169390564Y-128140709D01*
X169335417Y-128417948D01*
X163985200Y-128417948D01*
X163917302Y-128335215D01*
X163782727Y-128224771D01*
X163629191Y-128142705D01*
X163462594Y-128092168D01*
X163289340Y-128075104D01*
X161089342Y-128075104D01*
X160916088Y-128092168D01*
X160749491Y-128142705D01*
X160595955Y-128224771D01*
X160461380Y-128335215D01*
X160350936Y-128469790D01*
X160268870Y-128623326D01*
X160218333Y-128789923D01*
X160201269Y-128963177D01*
X159652148Y-128963177D01*
X159647794Y-128955033D01*
X159399739Y-128652778D01*
X159097484Y-128404723D01*
X158752643Y-128220402D01*
X158378469Y-128106898D01*
X157989341Y-128068572D01*
X157600214Y-128106898D01*
X157226040Y-128220402D01*
X156881199Y-128404723D01*
X156578944Y-128652778D01*
X156330888Y-128955033D01*
X156146567Y-129299874D01*
X156033063Y-129674048D01*
X156004341Y-129965666D01*
X155546842Y-129965666D01*
X155546842Y-124601682D01*
X167156841Y-124601682D01*
X167156841Y-124904050D01*
X167215830Y-125200609D01*
X167331542Y-125479961D01*
X167499529Y-125731371D01*
X167713336Y-125945178D01*
X167964746Y-126113165D01*
X168244098Y-126228877D01*
X168540657Y-126287866D01*
X168843025Y-126287866D01*
X169139584Y-126228877D01*
X169418936Y-126113165D01*
X169670346Y-125945178D01*
X169884153Y-125731371D01*
X170052140Y-125479961D01*
X170167852Y-125200609D01*
X170226841Y-124904050D01*
X170226841Y-124601682D01*
X170167852Y-124305123D01*
X170052140Y-124025771D01*
X169884153Y-123774361D01*
X169670346Y-123560554D01*
X169418936Y-123392567D01*
X169139584Y-123276855D01*
X168843025Y-123217866D01*
X168540657Y-123217866D01*
X168244098Y-123276855D01*
X167964746Y-123392567D01*
X167713336Y-123560554D01*
X167499529Y-123774361D01*
X167331542Y-124025771D01*
X167215830Y-124305123D01*
X167156841Y-124601682D01*
X155546842Y-124601682D01*
X155546842Y-118775445D01*
X155577867Y-118459028D01*
X156129341Y-118459028D01*
X156129341Y-119027324D01*
X156240210Y-119584699D01*
X156457687Y-120109736D01*
X156773415Y-120582256D01*
X157175261Y-120984102D01*
X157647781Y-121299830D01*
X158172818Y-121517307D01*
X158730193Y-121628176D01*
X159298489Y-121628176D01*
X159855864Y-121517307D01*
X160380901Y-121299830D01*
X160853421Y-120984102D01*
X161039575Y-120797948D01*
X169335417Y-120797948D01*
X169335417Y-121080618D01*
X169390564Y-121357857D01*
X169498737Y-121619010D01*
X169655780Y-121854042D01*
X169855658Y-122053920D01*
X170090690Y-122210963D01*
X170351843Y-122319136D01*
X170629082Y-122374283D01*
X170911752Y-122374283D01*
X170984141Y-122359884D01*
X170984141Y-122528115D01*
X171023915Y-122728074D01*
X171101936Y-122916432D01*
X171215204Y-123085950D01*
X171359367Y-123230113D01*
X171528885Y-123343381D01*
X171717243Y-123421402D01*
X171917202Y-123461176D01*
X172121080Y-123461176D01*
X172321039Y-123421402D01*
X172509397Y-123343381D01*
X172678915Y-123230113D01*
X172823078Y-123085950D01*
X172936346Y-122916432D01*
X172958465Y-122863032D01*
X173848946Y-122863032D01*
X173848946Y-123066910D01*
X173888720Y-123266869D01*
X173966741Y-123455227D01*
X174080009Y-123624745D01*
X174224172Y-123768908D01*
X174393690Y-123882176D01*
X174582048Y-123960197D01*
X174782007Y-123999971D01*
X174985885Y-123999971D01*
X175185844Y-123960197D01*
X175374202Y-123882176D01*
X175543720Y-123768908D01*
X175687883Y-123624745D01*
X175801151Y-123455227D01*
X175879172Y-123266869D01*
X175906572Y-123129118D01*
X175940662Y-123163208D01*
X176110180Y-123276476D01*
X176298538Y-123354497D01*
X176498497Y-123394271D01*
X176702375Y-123394271D01*
X176902334Y-123354497D01*
X177090692Y-123276476D01*
X177260210Y-123163208D01*
X177404373Y-123019045D01*
X177517641Y-122849527D01*
X177583064Y-122691582D01*
X178122496Y-122691582D01*
X178122496Y-122895460D01*
X178162270Y-123095419D01*
X178240291Y-123283777D01*
X178353559Y-123453295D01*
X178497722Y-123597458D01*
X178667240Y-123710726D01*
X178855598Y-123788747D01*
X179055557Y-123828521D01*
X179259435Y-123828521D01*
X179459394Y-123788747D01*
X179647752Y-123710726D01*
X179817270Y-123597458D01*
X179961433Y-123453295D01*
X180074701Y-123283777D01*
X180090296Y-123246126D01*
X180425452Y-123246126D01*
X180425452Y-123450004D01*
X180465226Y-123649963D01*
X180543247Y-123838321D01*
X180656515Y-124007839D01*
X180800678Y-124152002D01*
X180970196Y-124265270D01*
X181158554Y-124343291D01*
X181358513Y-124383065D01*
X181562391Y-124383065D01*
X181762350Y-124343291D01*
X181950708Y-124265270D01*
X182120226Y-124152002D01*
X182171301Y-124100927D01*
X189832251Y-124100927D01*
X189832251Y-124304805D01*
X189872025Y-124504764D01*
X189950046Y-124693122D01*
X190063314Y-124862640D01*
X190207477Y-125006803D01*
X190376995Y-125120071D01*
X190565353Y-125198092D01*
X190765312Y-125237866D01*
X190969190Y-125237866D01*
X191169149Y-125198092D01*
X191357507Y-125120071D01*
X191527025Y-125006803D01*
X191671188Y-124862640D01*
X191784456Y-124693122D01*
X191822331Y-124601682D01*
X194156841Y-124601682D01*
X194156841Y-124904050D01*
X194215830Y-125200609D01*
X194331542Y-125479961D01*
X194499529Y-125731371D01*
X194713336Y-125945178D01*
X194964746Y-126113165D01*
X195244098Y-126228877D01*
X195540657Y-126287866D01*
X195843025Y-126287866D01*
X196139584Y-126228877D01*
X196418936Y-126113165D01*
X196670346Y-125945178D01*
X196884153Y-125731371D01*
X197052140Y-125479961D01*
X197167852Y-125200609D01*
X197226841Y-124904050D01*
X197226841Y-124601682D01*
X197167852Y-124305123D01*
X197052140Y-124025771D01*
X196884153Y-123774361D01*
X196670346Y-123560554D01*
X196418936Y-123392567D01*
X196139584Y-123276855D01*
X195843025Y-123217866D01*
X195540657Y-123217866D01*
X195244098Y-123276855D01*
X194964746Y-123392567D01*
X194713336Y-123560554D01*
X194499529Y-123774361D01*
X194331542Y-124025771D01*
X194215830Y-124305123D01*
X194156841Y-124601682D01*
X191822331Y-124601682D01*
X191862477Y-124504764D01*
X191902251Y-124304805D01*
X191902251Y-124100927D01*
X191862477Y-123900968D01*
X191784456Y-123712610D01*
X191671188Y-123543092D01*
X191527025Y-123398929D01*
X191357507Y-123285661D01*
X191169149Y-123207640D01*
X190969190Y-123167866D01*
X190765312Y-123167866D01*
X190565353Y-123207640D01*
X190376995Y-123285661D01*
X190207477Y-123398929D01*
X190063314Y-123543092D01*
X189950046Y-123712610D01*
X189872025Y-123900968D01*
X189832251Y-124100927D01*
X182171301Y-124100927D01*
X182264389Y-124007839D01*
X182377657Y-123838321D01*
X182455678Y-123649963D01*
X182495452Y-123450004D01*
X182495452Y-123246126D01*
X182455678Y-123046167D01*
X182377657Y-122857809D01*
X182264389Y-122688291D01*
X182120226Y-122544128D01*
X181950708Y-122430860D01*
X181762350Y-122352839D01*
X181665287Y-122333532D01*
X183426736Y-122333532D01*
X183426736Y-122537410D01*
X183466510Y-122737369D01*
X183544531Y-122925727D01*
X183657799Y-123095245D01*
X183801962Y-123239408D01*
X183971480Y-123352676D01*
X184159838Y-123430697D01*
X184359797Y-123470471D01*
X184563675Y-123470471D01*
X184763634Y-123430697D01*
X184951992Y-123352676D01*
X185121510Y-123239408D01*
X185265673Y-123095245D01*
X185378941Y-122925727D01*
X185453021Y-122746882D01*
X185725296Y-122746882D01*
X185725296Y-122950760D01*
X185765070Y-123150719D01*
X185843091Y-123339077D01*
X185956359Y-123508595D01*
X186100522Y-123652758D01*
X186270040Y-123766026D01*
X186458398Y-123844047D01*
X186658357Y-123883821D01*
X186862235Y-123883821D01*
X187062194Y-123844047D01*
X187250552Y-123766026D01*
X187420070Y-123652758D01*
X187564233Y-123508595D01*
X187677501Y-123339077D01*
X187755522Y-123150719D01*
X187795296Y-122950760D01*
X187795296Y-122746882D01*
X187768483Y-122612081D01*
X188201085Y-122612081D01*
X188201085Y-122815959D01*
X188240859Y-123015918D01*
X188318880Y-123204276D01*
X188432148Y-123373794D01*
X188576311Y-123517957D01*
X188745829Y-123631225D01*
X188934187Y-123709246D01*
X189134146Y-123749020D01*
X189338024Y-123749020D01*
X189537983Y-123709246D01*
X189726341Y-123631225D01*
X189895859Y-123517957D01*
X190040022Y-123373794D01*
X190153290Y-123204276D01*
X190231311Y-123015918D01*
X190271085Y-122815959D01*
X190271085Y-122612081D01*
X190231311Y-122412122D01*
X190153290Y-122223764D01*
X190040022Y-122054246D01*
X189895859Y-121910083D01*
X189726341Y-121796815D01*
X189537983Y-121718794D01*
X189338024Y-121679020D01*
X189134146Y-121679020D01*
X188934187Y-121718794D01*
X188745829Y-121796815D01*
X188576311Y-121910083D01*
X188432148Y-122054246D01*
X188318880Y-122223764D01*
X188240859Y-122412122D01*
X188201085Y-122612081D01*
X187768483Y-122612081D01*
X187755522Y-122546923D01*
X187677501Y-122358565D01*
X187564233Y-122189047D01*
X187420070Y-122044884D01*
X187250552Y-121931616D01*
X187062194Y-121853595D01*
X186862235Y-121813821D01*
X186658357Y-121813821D01*
X186458398Y-121853595D01*
X186270040Y-121931616D01*
X186100522Y-122044884D01*
X185956359Y-122189047D01*
X185843091Y-122358565D01*
X185765070Y-122546923D01*
X185725296Y-122746882D01*
X185453021Y-122746882D01*
X185456962Y-122737369D01*
X185496736Y-122537410D01*
X185496736Y-122333532D01*
X185456962Y-122133573D01*
X185378941Y-121945215D01*
X185265673Y-121775697D01*
X185121510Y-121631534D01*
X184951992Y-121518266D01*
X184763634Y-121440245D01*
X184563675Y-121400471D01*
X184359797Y-121400471D01*
X184159838Y-121440245D01*
X183971480Y-121518266D01*
X183801962Y-121631534D01*
X183657799Y-121775697D01*
X183544531Y-121945215D01*
X183466510Y-122133573D01*
X183426736Y-122333532D01*
X181665287Y-122333532D01*
X181562391Y-122313065D01*
X181358513Y-122313065D01*
X181158554Y-122352839D01*
X180970196Y-122430860D01*
X180800678Y-122544128D01*
X180656515Y-122688291D01*
X180543247Y-122857809D01*
X180465226Y-123046167D01*
X180425452Y-123246126D01*
X180090296Y-123246126D01*
X180152722Y-123095419D01*
X180192496Y-122895460D01*
X180192496Y-122691582D01*
X180152722Y-122491623D01*
X180074701Y-122303265D01*
X179961433Y-122133747D01*
X179817270Y-121989584D01*
X179647752Y-121876316D01*
X179459394Y-121798295D01*
X179259435Y-121758521D01*
X179055557Y-121758521D01*
X178855598Y-121798295D01*
X178667240Y-121876316D01*
X178497722Y-121989584D01*
X178353559Y-122133747D01*
X178240291Y-122303265D01*
X178162270Y-122491623D01*
X178122496Y-122691582D01*
X177583064Y-122691582D01*
X177595662Y-122661169D01*
X177635436Y-122461210D01*
X177635436Y-122257332D01*
X177595662Y-122057373D01*
X177517641Y-121869015D01*
X177404373Y-121699497D01*
X177260210Y-121555334D01*
X177090692Y-121442066D01*
X176902334Y-121364045D01*
X176702375Y-121324271D01*
X176498497Y-121324271D01*
X176298538Y-121364045D01*
X176110180Y-121442066D01*
X175940662Y-121555334D01*
X175796499Y-121699497D01*
X175683231Y-121869015D01*
X175605210Y-122057373D01*
X175577810Y-122195124D01*
X175543720Y-122161034D01*
X175374202Y-122047766D01*
X175185844Y-121969745D01*
X174985885Y-121929971D01*
X174782007Y-121929971D01*
X174582048Y-121969745D01*
X174393690Y-122047766D01*
X174224172Y-122161034D01*
X174080009Y-122305197D01*
X173966741Y-122474715D01*
X173888720Y-122663073D01*
X173848946Y-122863032D01*
X172958465Y-122863032D01*
X173014367Y-122728074D01*
X173054141Y-122528115D01*
X173054141Y-122324237D01*
X173014367Y-122124278D01*
X172936346Y-121935920D01*
X172823078Y-121766402D01*
X172678915Y-121622239D01*
X172509397Y-121508971D01*
X172321039Y-121430950D01*
X172135297Y-121394004D01*
X172150270Y-121357857D01*
X172205417Y-121080618D01*
X172205417Y-120797948D01*
X172150270Y-120520709D01*
X172042097Y-120259556D01*
X171885054Y-120024524D01*
X171685176Y-119824646D01*
X171450144Y-119667603D01*
X171188991Y-119559430D01*
X170911752Y-119504283D01*
X170629082Y-119504283D01*
X170351843Y-119559430D01*
X170090690Y-119667603D01*
X169855658Y-119824646D01*
X169655780Y-120024524D01*
X169498737Y-120259556D01*
X169390564Y-120520709D01*
X169335417Y-120797948D01*
X161039575Y-120797948D01*
X161255267Y-120582256D01*
X161570995Y-120109736D01*
X161788472Y-119584699D01*
X161899341Y-119027324D01*
X161899341Y-118819037D01*
X165396141Y-118819037D01*
X165396141Y-119022915D01*
X165435915Y-119222874D01*
X165513936Y-119411232D01*
X165627204Y-119580750D01*
X165771367Y-119724913D01*
X165940885Y-119838181D01*
X166129243Y-119916202D01*
X166329202Y-119955976D01*
X166533080Y-119955976D01*
X166733039Y-119916202D01*
X166921397Y-119838181D01*
X167090915Y-119724913D01*
X167235078Y-119580750D01*
X167293257Y-119493678D01*
X167307082Y-119507503D01*
X167542114Y-119664546D01*
X167803267Y-119772719D01*
X168080506Y-119827866D01*
X168363176Y-119827866D01*
X168640415Y-119772719D01*
X168901568Y-119664546D01*
X169136600Y-119507503D01*
X169336478Y-119307625D01*
X169493521Y-119072593D01*
X169601694Y-118811440D01*
X169656841Y-118534201D01*
X169656841Y-118463794D01*
X179256841Y-118463794D01*
X179256841Y-119041938D01*
X179369632Y-119608974D01*
X179590878Y-120143110D01*
X179912078Y-120623819D01*
X180320888Y-121032629D01*
X180801597Y-121353829D01*
X181335733Y-121575075D01*
X181902769Y-121687866D01*
X182480913Y-121687866D01*
X183047949Y-121575075D01*
X183582085Y-121353829D01*
X184062794Y-121032629D01*
X184297475Y-120797948D01*
X192195417Y-120797948D01*
X192195417Y-121080618D01*
X192250564Y-121357857D01*
X192358737Y-121619010D01*
X192515780Y-121854042D01*
X192715658Y-122053920D01*
X192950690Y-122210963D01*
X193211843Y-122319136D01*
X193489082Y-122374283D01*
X193771752Y-122374283D01*
X193988133Y-122331242D01*
X193988133Y-122346023D01*
X194027907Y-122545982D01*
X194105928Y-122734340D01*
X194219196Y-122903858D01*
X194363359Y-123048021D01*
X194532877Y-123161289D01*
X194721235Y-123239310D01*
X194921194Y-123279084D01*
X195125072Y-123279084D01*
X195325031Y-123239310D01*
X195513389Y-123161289D01*
X195682907Y-123048021D01*
X195827070Y-122903858D01*
X195940338Y-122734340D01*
X196018359Y-122545982D01*
X196058133Y-122346023D01*
X196058133Y-122142145D01*
X196018359Y-121942186D01*
X195940338Y-121753828D01*
X195827070Y-121584310D01*
X195682907Y-121440147D01*
X195513389Y-121326879D01*
X195325031Y-121248858D01*
X195125072Y-121209084D01*
X195039863Y-121209084D01*
X195065417Y-121080618D01*
X195065417Y-120797948D01*
X195010270Y-120520709D01*
X194902097Y-120259556D01*
X194745054Y-120024524D01*
X194545176Y-119824646D01*
X194310144Y-119667603D01*
X194048991Y-119559430D01*
X193771752Y-119504283D01*
X193489082Y-119504283D01*
X193211843Y-119559430D01*
X192950690Y-119667603D01*
X192715658Y-119824646D01*
X192515780Y-120024524D01*
X192358737Y-120259556D01*
X192250564Y-120520709D01*
X192195417Y-120797948D01*
X184297475Y-120797948D01*
X184471604Y-120623819D01*
X184792804Y-120143110D01*
X185014050Y-119608974D01*
X185126841Y-119041938D01*
X185126841Y-118463794D01*
X185014050Y-117896758D01*
X184792804Y-117362622D01*
X184471604Y-116881913D01*
X184062794Y-116473103D01*
X183582085Y-116151903D01*
X183342315Y-116052587D01*
X188546841Y-116052587D01*
X188546841Y-116473145D01*
X188628888Y-116885622D01*
X188789829Y-117274168D01*
X189023478Y-117623849D01*
X189320858Y-117921229D01*
X189670539Y-118154878D01*
X190059085Y-118315819D01*
X190471562Y-118397866D01*
X190892120Y-118397866D01*
X191304597Y-118315819D01*
X191444309Y-118257948D01*
X194735417Y-118257948D01*
X194735417Y-118540618D01*
X194790564Y-118817857D01*
X194898737Y-119079010D01*
X195055780Y-119314042D01*
X195255658Y-119513920D01*
X195490690Y-119670963D01*
X195751843Y-119779136D01*
X196029082Y-119834283D01*
X196311752Y-119834283D01*
X196588991Y-119779136D01*
X196850144Y-119670963D01*
X197085176Y-119513920D01*
X197285054Y-119314042D01*
X197442097Y-119079010D01*
X197550270Y-118817857D01*
X197605417Y-118540618D01*
X197605417Y-118459028D01*
X202484341Y-118459028D01*
X202484341Y-119027324D01*
X202595210Y-119584699D01*
X202812687Y-120109736D01*
X203128415Y-120582256D01*
X203530261Y-120984102D01*
X204002781Y-121299830D01*
X204527818Y-121517307D01*
X205085193Y-121628176D01*
X205653489Y-121628176D01*
X206210864Y-121517307D01*
X206735901Y-121299830D01*
X207208421Y-120984102D01*
X207610267Y-120582256D01*
X207925995Y-120109736D01*
X208143472Y-119584699D01*
X208254341Y-119027324D01*
X208254341Y-118459028D01*
X208143472Y-117901653D01*
X207925995Y-117376616D01*
X207610267Y-116904096D01*
X207208421Y-116502250D01*
X206735901Y-116186522D01*
X206210864Y-115969045D01*
X205653489Y-115858176D01*
X205085193Y-115858176D01*
X204527818Y-115969045D01*
X204002781Y-116186522D01*
X203530261Y-116502250D01*
X203128415Y-116904096D01*
X202812687Y-117376616D01*
X202595210Y-117901653D01*
X202484341Y-118459028D01*
X197605417Y-118459028D01*
X197605417Y-118257948D01*
X197550270Y-117980709D01*
X197442097Y-117719556D01*
X197285054Y-117484524D01*
X197085176Y-117284646D01*
X196850144Y-117127603D01*
X196588991Y-117019430D01*
X196311752Y-116964283D01*
X196029082Y-116964283D01*
X195751843Y-117019430D01*
X195490690Y-117127603D01*
X195255658Y-117284646D01*
X195055780Y-117484524D01*
X194898737Y-117719556D01*
X194790564Y-117980709D01*
X194735417Y-118257948D01*
X191444309Y-118257948D01*
X191693143Y-118154878D01*
X192042824Y-117921229D01*
X192340204Y-117623849D01*
X192573853Y-117274168D01*
X192734794Y-116885622D01*
X192816841Y-116473145D01*
X192816841Y-116052587D01*
X192734794Y-115640110D01*
X192573853Y-115251564D01*
X192340204Y-114901883D01*
X192042824Y-114604503D01*
X191693143Y-114370854D01*
X191304597Y-114209913D01*
X190892120Y-114127866D01*
X190471562Y-114127866D01*
X190059085Y-114209913D01*
X189670539Y-114370854D01*
X189320858Y-114604503D01*
X189023478Y-114901883D01*
X188789829Y-115251564D01*
X188628888Y-115640110D01*
X188546841Y-116052587D01*
X183342315Y-116052587D01*
X183047949Y-115930657D01*
X182480913Y-115817866D01*
X181902769Y-115817866D01*
X181335733Y-115930657D01*
X180801597Y-116151903D01*
X180320888Y-116473103D01*
X179912078Y-116881913D01*
X179590878Y-117362622D01*
X179369632Y-117896758D01*
X179256841Y-118463794D01*
X169656841Y-118463794D01*
X169656841Y-118251531D01*
X169601694Y-117974292D01*
X169493521Y-117713139D01*
X169336478Y-117478107D01*
X169136600Y-117278229D01*
X168901568Y-117121186D01*
X168640415Y-117013013D01*
X168363176Y-116957866D01*
X168080506Y-116957866D01*
X167803267Y-117013013D01*
X167542114Y-117121186D01*
X167307082Y-117278229D01*
X167107204Y-117478107D01*
X166950161Y-117713139D01*
X166843195Y-117971378D01*
X166733039Y-117925750D01*
X166533080Y-117885976D01*
X166329202Y-117885976D01*
X166129243Y-117925750D01*
X165940885Y-118003771D01*
X165771367Y-118117039D01*
X165627204Y-118261202D01*
X165513936Y-118430720D01*
X165435915Y-118619078D01*
X165396141Y-118819037D01*
X161899341Y-118819037D01*
X161899341Y-118459028D01*
X161788472Y-117901653D01*
X161570995Y-117376616D01*
X161255267Y-116904096D01*
X160853421Y-116502250D01*
X160380901Y-116186522D01*
X160057553Y-116052587D01*
X171566841Y-116052587D01*
X171566841Y-116473145D01*
X171648888Y-116885622D01*
X171809829Y-117274168D01*
X172043478Y-117623849D01*
X172340858Y-117921229D01*
X172690539Y-118154878D01*
X173079085Y-118315819D01*
X173491562Y-118397866D01*
X173912120Y-118397866D01*
X174324597Y-118315819D01*
X174713143Y-118154878D01*
X175062824Y-117921229D01*
X175360204Y-117623849D01*
X175593853Y-117274168D01*
X175754794Y-116885622D01*
X175836841Y-116473145D01*
X175836841Y-116052587D01*
X175754794Y-115640110D01*
X175593853Y-115251564D01*
X175360204Y-114901883D01*
X175062824Y-114604503D01*
X174713143Y-114370854D01*
X174324597Y-114209913D01*
X173912120Y-114127866D01*
X173491562Y-114127866D01*
X173079085Y-114209913D01*
X172690539Y-114370854D01*
X172340858Y-114604503D01*
X172043478Y-114901883D01*
X171809829Y-115251564D01*
X171648888Y-115640110D01*
X171566841Y-116052587D01*
X160057553Y-116052587D01*
X159855864Y-115969045D01*
X159298489Y-115858176D01*
X158730193Y-115858176D01*
X158172818Y-115969045D01*
X157647781Y-116186522D01*
X157175261Y-116502250D01*
X156773415Y-116904096D01*
X156457687Y-117376616D01*
X156240210Y-117901653D01*
X156129341Y-118459028D01*
X155577867Y-118459028D01*
X155615984Y-118070283D01*
X155811403Y-117423021D01*
X156128824Y-116826040D01*
X156556151Y-116302087D01*
X157077108Y-115871112D01*
X157671854Y-115549535D01*
X158317739Y-115349600D01*
X159021063Y-115275677D01*
X159085937Y-115275677D01*
X159093403Y-115274942D01*
X159356547Y-115268970D01*
X159389780Y-115265594D01*
X159423150Y-115264079D01*
X160411940Y-115140919D01*
X160513391Y-115120094D01*
X161470740Y-114843769D01*
X161520206Y-114825176D01*
X161567683Y-114807331D01*
X162470020Y-114384646D01*
X162560071Y-114333490D01*
X163385176Y-113774852D01*
X163466115Y-113710239D01*
X163489626Y-113688237D01*
X166282031Y-113688237D01*
X166282031Y-113892115D01*
X166321805Y-114092074D01*
X166399826Y-114280432D01*
X166513094Y-114449950D01*
X166657257Y-114594113D01*
X166826775Y-114707381D01*
X167015133Y-114785402D01*
X167215092Y-114825176D01*
X167418970Y-114825176D01*
X167618929Y-114785402D01*
X167807287Y-114707381D01*
X167976805Y-114594113D01*
X168120968Y-114449950D01*
X168234236Y-114280432D01*
X168312257Y-114092074D01*
X168352031Y-113892115D01*
X168352031Y-113688237D01*
X168312257Y-113488278D01*
X168234236Y-113299920D01*
X168120968Y-113130402D01*
X167976805Y-112986239D01*
X167807287Y-112872971D01*
X167618929Y-112794950D01*
X167418970Y-112755176D01*
X167215092Y-112755176D01*
X167015133Y-112794950D01*
X166826775Y-112872971D01*
X166657257Y-112986239D01*
X166513094Y-113130402D01*
X166399826Y-113299920D01*
X166321805Y-113488278D01*
X166282031Y-113688237D01*
X163489626Y-113688237D01*
X164193671Y-113029404D01*
X164263506Y-112952925D01*
X164263507Y-112952923D01*
X164875598Y-112166659D01*
X164913190Y-112109647D01*
X164932610Y-112080196D01*
X165317303Y-111383325D01*
X170874992Y-111383325D01*
X170874992Y-111587203D01*
X170914766Y-111787162D01*
X170992787Y-111975520D01*
X171106055Y-112145038D01*
X171250218Y-112289201D01*
X171419736Y-112402469D01*
X171608094Y-112480490D01*
X171808053Y-112520264D01*
X172011931Y-112520264D01*
X172211890Y-112480490D01*
X172400248Y-112402469D01*
X172569766Y-112289201D01*
X172713929Y-112145038D01*
X172827197Y-111975520D01*
X172878057Y-111852732D01*
X175270036Y-111852732D01*
X175270036Y-112056610D01*
X175309810Y-112256569D01*
X175387831Y-112444927D01*
X175501099Y-112614445D01*
X175645262Y-112758608D01*
X175814780Y-112871876D01*
X176003138Y-112949897D01*
X176203097Y-112989671D01*
X176406975Y-112989671D01*
X176606934Y-112949897D01*
X176795292Y-112871876D01*
X176964810Y-112758608D01*
X177108973Y-112614445D01*
X177222241Y-112444927D01*
X177300262Y-112256569D01*
X177309091Y-112212180D01*
X177476698Y-112212180D01*
X177476698Y-112416058D01*
X177516472Y-112616017D01*
X177594493Y-112804375D01*
X177707761Y-112973893D01*
X177851924Y-113118056D01*
X178021442Y-113231324D01*
X178177536Y-113295981D01*
X178242193Y-113452075D01*
X178330195Y-113583780D01*
X178301615Y-113652778D01*
X178261841Y-113852737D01*
X178261841Y-114056615D01*
X178301615Y-114256574D01*
X178379636Y-114444932D01*
X178492904Y-114614450D01*
X178637067Y-114758613D01*
X178806585Y-114871881D01*
X178994943Y-114949902D01*
X179194902Y-114989676D01*
X179398780Y-114989676D01*
X179598739Y-114949902D01*
X179787097Y-114871881D01*
X179956615Y-114758613D01*
X180100778Y-114614450D01*
X180214046Y-114444932D01*
X180292067Y-114256574D01*
X180331841Y-114056615D01*
X180331841Y-113852737D01*
X180292067Y-113652778D01*
X180214046Y-113464420D01*
X180126044Y-113332715D01*
X180154624Y-113263717D01*
X180194398Y-113063758D01*
X180194398Y-112859880D01*
X180154624Y-112659921D01*
X180076603Y-112471563D01*
X179963335Y-112302045D01*
X179819172Y-112157882D01*
X179649654Y-112044614D01*
X179637388Y-112039533D01*
X183249231Y-112039533D01*
X183249231Y-112243411D01*
X183289005Y-112443370D01*
X183367026Y-112631728D01*
X183480294Y-112801246D01*
X183624457Y-112945409D01*
X183793975Y-113058677D01*
X183982333Y-113136698D01*
X184182292Y-113176472D01*
X184386170Y-113176472D01*
X184586129Y-113136698D01*
X184774487Y-113058677D01*
X184944005Y-112945409D01*
X185088168Y-112801246D01*
X185201436Y-112631728D01*
X185229870Y-112563082D01*
X185558596Y-112563082D01*
X185558596Y-112766960D01*
X185598370Y-112966919D01*
X185676391Y-113155277D01*
X185789659Y-113324795D01*
X185933822Y-113468958D01*
X186103340Y-113582226D01*
X186291698Y-113660247D01*
X186491657Y-113700021D01*
X186695535Y-113700021D01*
X186895494Y-113660247D01*
X187083852Y-113582226D01*
X187253370Y-113468958D01*
X187397533Y-113324795D01*
X187401311Y-113319141D01*
X187499497Y-113338671D01*
X187703375Y-113338671D01*
X187903334Y-113298897D01*
X188091692Y-113220876D01*
X188261210Y-113107608D01*
X188405373Y-112963445D01*
X188518641Y-112793927D01*
X188580978Y-112643432D01*
X191529336Y-112643432D01*
X191529336Y-112847310D01*
X191569110Y-113047269D01*
X191647131Y-113235627D01*
X191760399Y-113405145D01*
X191904562Y-113549308D01*
X192074080Y-113662576D01*
X192262438Y-113740597D01*
X192462397Y-113780371D01*
X192485534Y-113780371D01*
X192485534Y-113844713D01*
X192525308Y-114044672D01*
X192603329Y-114233030D01*
X192716597Y-114402548D01*
X192860760Y-114546711D01*
X193030278Y-114659979D01*
X193218636Y-114738000D01*
X193418595Y-114777774D01*
X193622473Y-114777774D01*
X193822432Y-114738000D01*
X194010790Y-114659979D01*
X194180308Y-114546711D01*
X194324471Y-114402548D01*
X194437739Y-114233030D01*
X194515760Y-114044672D01*
X194555534Y-113844713D01*
X194555534Y-113640835D01*
X194515760Y-113440876D01*
X194437739Y-113252518D01*
X194324471Y-113083000D01*
X194180308Y-112938837D01*
X194010790Y-112825569D01*
X193966284Y-112807134D01*
X194022323Y-112751095D01*
X194135591Y-112581577D01*
X194213612Y-112393219D01*
X194253386Y-112193260D01*
X194253386Y-111989382D01*
X194213612Y-111789423D01*
X194135591Y-111601065D01*
X194022323Y-111431547D01*
X193878160Y-111287384D01*
X193708642Y-111174116D01*
X193520284Y-111096095D01*
X193320325Y-111056321D01*
X193116447Y-111056321D01*
X192916488Y-111096095D01*
X192728130Y-111174116D01*
X192558612Y-111287384D01*
X192414449Y-111431547D01*
X192301181Y-111601065D01*
X192234664Y-111761649D01*
X192074080Y-111828166D01*
X191904562Y-111941434D01*
X191760399Y-112085597D01*
X191647131Y-112255115D01*
X191569110Y-112443473D01*
X191529336Y-112643432D01*
X188580978Y-112643432D01*
X188596662Y-112605569D01*
X188636436Y-112405610D01*
X188636436Y-112201732D01*
X188596662Y-112001773D01*
X188518641Y-111813415D01*
X188405373Y-111643897D01*
X188261210Y-111499734D01*
X188091692Y-111386466D01*
X187903334Y-111308445D01*
X187703375Y-111268671D01*
X187499497Y-111268671D01*
X187299538Y-111308445D01*
X187111180Y-111386466D01*
X186941662Y-111499734D01*
X186797499Y-111643897D01*
X186793721Y-111649551D01*
X186695535Y-111630021D01*
X186491657Y-111630021D01*
X186291698Y-111669795D01*
X186103340Y-111747816D01*
X185933822Y-111861084D01*
X185789659Y-112005247D01*
X185676391Y-112174765D01*
X185598370Y-112363123D01*
X185558596Y-112563082D01*
X185229870Y-112563082D01*
X185279457Y-112443370D01*
X185319231Y-112243411D01*
X185319231Y-112039533D01*
X185279457Y-111839574D01*
X185201436Y-111651216D01*
X185088168Y-111481698D01*
X184944005Y-111337535D01*
X184774487Y-111224267D01*
X184586129Y-111146246D01*
X184386170Y-111106472D01*
X184182292Y-111106472D01*
X183982333Y-111146246D01*
X183793975Y-111224267D01*
X183624457Y-111337535D01*
X183480294Y-111481698D01*
X183367026Y-111651216D01*
X183289005Y-111839574D01*
X183249231Y-112039533D01*
X179637388Y-112039533D01*
X179493560Y-111979957D01*
X179428903Y-111823863D01*
X179315635Y-111654345D01*
X179171472Y-111510182D01*
X179001954Y-111396914D01*
X178813596Y-111318893D01*
X178613637Y-111279119D01*
X178409759Y-111279119D01*
X178209800Y-111318893D01*
X178021442Y-111396914D01*
X177851924Y-111510182D01*
X177707761Y-111654345D01*
X177594493Y-111823863D01*
X177516472Y-112012221D01*
X177476698Y-112212180D01*
X177309091Y-112212180D01*
X177340036Y-112056610D01*
X177340036Y-111852732D01*
X177300262Y-111652773D01*
X177222241Y-111464415D01*
X177108973Y-111294897D01*
X176964810Y-111150734D01*
X176795292Y-111037466D01*
X176606934Y-110959445D01*
X176406975Y-110919671D01*
X176203097Y-110919671D01*
X176003138Y-110959445D01*
X175814780Y-111037466D01*
X175645262Y-111150734D01*
X175501099Y-111294897D01*
X175387831Y-111464415D01*
X175309810Y-111652773D01*
X175270036Y-111852732D01*
X172878057Y-111852732D01*
X172905218Y-111787162D01*
X172944992Y-111587203D01*
X172944992Y-111383325D01*
X172905218Y-111183366D01*
X172827197Y-110995008D01*
X172713929Y-110825490D01*
X172569766Y-110681327D01*
X172400248Y-110568059D01*
X172211890Y-110490038D01*
X172011931Y-110450264D01*
X171808053Y-110450264D01*
X171608094Y-110490038D01*
X171419736Y-110568059D01*
X171250218Y-110681327D01*
X171106055Y-110825490D01*
X170992787Y-110995008D01*
X170914766Y-111183366D01*
X170874992Y-111383325D01*
X165317303Y-111383325D01*
X165414167Y-111207856D01*
X165415557Y-111204791D01*
X165424691Y-111188003D01*
X166084133Y-109890937D01*
X166729641Y-109890937D01*
X166729641Y-110094815D01*
X166769415Y-110294774D01*
X166847436Y-110483132D01*
X166960704Y-110652650D01*
X167104867Y-110796813D01*
X167274385Y-110910081D01*
X167462743Y-110988102D01*
X167662702Y-111027876D01*
X167866580Y-111027876D01*
X168066539Y-110988102D01*
X168254897Y-110910081D01*
X168424415Y-110796813D01*
X168568578Y-110652650D01*
X168681846Y-110483132D01*
X168759867Y-110294774D01*
X168799641Y-110094815D01*
X168799641Y-109890937D01*
X168759867Y-109690978D01*
X168681846Y-109502620D01*
X168568578Y-109333102D01*
X168424415Y-109188939D01*
X168254897Y-109075671D01*
X168066539Y-108997650D01*
X167866580Y-108957876D01*
X167662702Y-108957876D01*
X167462743Y-108997650D01*
X167274385Y-109075671D01*
X167104867Y-109188939D01*
X166960704Y-109333102D01*
X166847436Y-109502620D01*
X166769415Y-109690978D01*
X166729641Y-109890937D01*
X166084133Y-109890937D01*
X166194391Y-109674071D01*
X167082184Y-108261510D01*
X168094353Y-106935217D01*
X169222554Y-105706127D01*
X169592881Y-105369737D01*
X171555641Y-105369737D01*
X171555641Y-105573615D01*
X171595415Y-105773574D01*
X171673436Y-105961932D01*
X171786704Y-106131450D01*
X171930867Y-106275613D01*
X172100385Y-106388881D01*
X172288743Y-106466902D01*
X172488702Y-106506676D01*
X172692580Y-106506676D01*
X172892539Y-106466902D01*
X173080897Y-106388881D01*
X173250415Y-106275613D01*
X173394578Y-106131450D01*
X173507846Y-105961932D01*
X173585867Y-105773574D01*
X173625641Y-105573615D01*
X173625641Y-105369737D01*
X173585867Y-105169778D01*
X173507846Y-104981420D01*
X173394578Y-104811902D01*
X173250415Y-104667739D01*
X173080897Y-104554471D01*
X172892539Y-104476450D01*
X172692580Y-104436676D01*
X172488702Y-104436676D01*
X172288743Y-104476450D01*
X172100385Y-104554471D01*
X171930867Y-104667739D01*
X171786704Y-104811902D01*
X171673436Y-104981420D01*
X171595415Y-105169778D01*
X171555641Y-105369737D01*
X169592881Y-105369737D01*
X170457511Y-104584343D01*
X171789064Y-103579098D01*
X173206239Y-102698676D01*
X174672119Y-101962994D01*
X174657936Y-101984220D01*
X174579915Y-102172578D01*
X174540141Y-102372537D01*
X174540141Y-102576415D01*
X174579915Y-102776374D01*
X174657936Y-102964732D01*
X174771204Y-103134250D01*
X174915367Y-103278413D01*
X175084885Y-103391681D01*
X175273243Y-103469702D01*
X175473202Y-103509476D01*
X175677080Y-103509476D01*
X175877039Y-103469702D01*
X176065397Y-103391681D01*
X176234915Y-103278413D01*
X176379078Y-103134250D01*
X176492346Y-102964732D01*
X176570367Y-102776374D01*
X176610141Y-102576415D01*
X176610141Y-102372537D01*
X176570367Y-102172578D01*
X176492346Y-101984220D01*
X176379078Y-101814702D01*
X176234915Y-101670539D01*
X176065397Y-101557271D01*
X175886405Y-101483130D01*
X176250184Y-101340195D01*
X176942690Y-101138339D01*
X176942339Y-101138996D01*
X176906029Y-101258694D01*
X176893769Y-101383176D01*
X176893769Y-103083176D01*
X176906029Y-103207658D01*
X176942339Y-103327356D01*
X177001304Y-103437670D01*
X177080656Y-103534361D01*
X177177347Y-103613713D01*
X177287661Y-103672678D01*
X177360221Y-103694689D01*
X177228366Y-103826544D01*
X177065851Y-104069765D01*
X176953909Y-104340018D01*
X176896841Y-104626916D01*
X176896841Y-104919436D01*
X176953909Y-105206334D01*
X177065851Y-105476587D01*
X177228366Y-105719808D01*
X177435209Y-105926651D01*
X177678430Y-106089166D01*
X177948683Y-106201108D01*
X178235581Y-106258176D01*
X178528101Y-106258176D01*
X178712901Y-106221417D01*
X178822504Y-106385450D01*
X178966667Y-106529613D01*
X179136185Y-106642881D01*
X179324543Y-106720902D01*
X179524502Y-106760676D01*
X179728380Y-106760676D01*
X179928339Y-106720902D01*
X180116697Y-106642881D01*
X180286215Y-106529613D01*
X180430378Y-106385450D01*
X180543646Y-106215932D01*
X180545135Y-106212337D01*
X180775581Y-106258176D01*
X181068101Y-106258176D01*
X181330717Y-106205938D01*
X181329246Y-106213332D01*
X181329246Y-106417210D01*
X181369020Y-106617169D01*
X181447041Y-106805527D01*
X181560309Y-106975045D01*
X181704472Y-107119208D01*
X181873990Y-107232476D01*
X182062348Y-107310497D01*
X182262307Y-107350271D01*
X182466185Y-107350271D01*
X182666144Y-107310497D01*
X182854502Y-107232476D01*
X183024020Y-107119208D01*
X183118941Y-107024287D01*
X183201762Y-107107108D01*
X183371280Y-107220376D01*
X183559638Y-107298397D01*
X183759597Y-107338171D01*
X183963475Y-107338171D01*
X184163434Y-107298397D01*
X184351792Y-107220376D01*
X184521310Y-107107108D01*
X184665473Y-106962945D01*
X184778741Y-106793427D01*
X184856762Y-106605069D01*
X184896536Y-106405110D01*
X184896536Y-106201232D01*
X184856762Y-106001273D01*
X184778741Y-105812915D01*
X184665923Y-105644070D01*
X184731841Y-105545416D01*
X184848366Y-105719808D01*
X185055209Y-105926651D01*
X185222517Y-106038443D01*
X185217120Y-106051473D01*
X185177346Y-106251432D01*
X185177346Y-106455310D01*
X185217120Y-106655269D01*
X185295141Y-106843627D01*
X185408409Y-107013145D01*
X185552572Y-107157308D01*
X185722090Y-107270576D01*
X185910448Y-107348597D01*
X186110407Y-107388371D01*
X186314285Y-107388371D01*
X186514244Y-107348597D01*
X186702602Y-107270576D01*
X186872120Y-107157308D01*
X187016283Y-107013145D01*
X187129551Y-106843627D01*
X187207572Y-106655269D01*
X187247346Y-106455310D01*
X187247346Y-106251432D01*
X187207572Y-106051473D01*
X187129551Y-105863115D01*
X187082470Y-105792654D01*
X187155316Y-105719808D01*
X187317831Y-105476587D01*
X187429773Y-105206334D01*
X187486841Y-104919436D01*
X187486841Y-104626916D01*
X187429773Y-104340018D01*
X187317831Y-104069765D01*
X187155316Y-103826544D01*
X186948473Y-103619701D01*
X186774081Y-103503176D01*
X186948473Y-103386651D01*
X187155316Y-103179808D01*
X187317831Y-102936587D01*
X187429773Y-102666334D01*
X187486841Y-102379436D01*
X187486841Y-102086916D01*
X187429773Y-101800018D01*
X187317831Y-101529765D01*
X187155316Y-101286544D01*
X186948473Y-101079701D01*
X186748002Y-100945751D01*
X187736703Y-101209735D01*
G37*
%TD.AperFunction*%
%TD*%
M02*
