<?xml version="1.0" encoding="utf-8"?>
<!-- Generator: Fusion 360, Shaper Origin Export Add-In, Version 1.6.10  -->
<svg xmlns="http://www.w3.org/2000/svg" xmlns:xlink="http://www.w3.org/1999/xlink" xmlns:shaper="http://www.shapertools.com/namespaces/shaper" shaper:fusionaddin="version:1.6.10" width="27.9314337cm" height="18.2927074cm" version="1.1" x="0cm" y="0cm" viewBox="0 0 27.9314337 18.2927074" enable-background="new 0 0 27.9314337 18.2927074" xml:space="preserve"><path d="M-12.6957169,-9.2026357 L10.2528385,-9.2026357 13.9657169,-7.9949209 8.6936772,8.2129138 A1.27,1.27 18.0185272 0,1 7.3380604,9.08143 L-10.831921,6.9508874 A1.27,1.27 96.687746 0,1 -11.9540189,5.689529 L-11.9540189,5.2316782 A0.15875,0.15875 0 0,0 -12.1127689,5.0729282 L-12.6957169,5.0729282 A1.27,1.27 90 0,1 -13.9657169,3.8029282 L-13.9657169,-7.9326357 A1.27,1.27 180 0,1 -12.6957169,-9.2026357z" transform="matrix(1,0,0,-1,13.9657169,9.0900716)" fill="rgb(0,0,0)" stroke-linecap="round" stroke-linejoin="round" /><path d="M-11.5647639,-6.6626357 a0.245745,0.245745 0 1,1 0.49149,0 a0.245745,0.245745 0 1,1 -0.49149,0z" transform="matrix(1,0,0,-1,13.9657169,9.0900716)" fill="rgb(255,255,255)" stroke="rgb(0,0,0)" stroke-width="0.0010cm" stroke-linecap="round" stroke-linejoin="round" /><path d="M4.1431457,-6.6626357 a0.245745,0.245745 0 1,1 0.49149,0 a0.245745,0.245745 0 1,1 -0.49149,0z" transform="matrix(1,0,0,-1,13.9657169,9.0900716)" fill="rgb(255,255,255)" stroke="rgb(0,0,0)" stroke-width="0.0010cm" stroke-linecap="round" stroke-linejoin="round" /><path d="M-11.5647639,2.5329282 a0.245745,0.245745 0 1,1 0.49149,0 a0.245745,0.245745 0 1,1 -0.49149,0z" transform="matrix(1,0,0,-1,13.9657169,9.0900716)" fill="rgb(255,255,255)" stroke="rgb(0,0,0)" stroke-width="0.0010cm" stroke-linecap="round" stroke-linejoin="round" /><path d="M-13.0132169,3.8029282 a0.3175,0.3175 0 1,1 0.635,0 a0.3175,0.3175 0 1,1 -0.635,0z" transform="matrix(1,0,0,-1,13.9657169,9.0900716)" fill="rgb(255,255,255)" stroke="rgb(0,0,0)" stroke-width="0.0010cm" stroke-linecap="round" stroke-linejoin="round" /><path d="M-13.0132169,1.8470009 a0.3175,0.3175 0 1,1 0.635,0 a0.3175,0.3175 0 1,1 -0.635,0z" transform="matrix(1,0,0,-1,13.9657169,9.0900716)" fill="rgb(255,255,255)" stroke="rgb(0,0,0)" stroke-width="0.0010cm" stroke-linecap="round" stroke-linejoin="round" /><path d="M-13.0132169,-0.1089264 a0.3175,0.3175 0 1,1 0.635,0 a0.3175,0.3175 0 1,1 -0.635,0z" transform="matrix(1,0,0,-1,13.9657169,9.0900716)" fill="rgb(255,255,255)" stroke="rgb(0,0,0)" stroke-width="0.0010cm" stroke-linecap="round" stroke-linejoin="round" /><path d="M-13.0132169,-2.0648537 a0.3175,0.3175 0 1,1 0.635,0 a0.3175,0.3175 0 1,1 -0.635,0z" transform="matrix(1,0,0,-1,13.9657169,9.0900716)" fill="rgb(255,255,255)" stroke="rgb(0,0,0)" stroke-width="0.0010cm" stroke-linecap="round" stroke-linejoin="round" /><path d="M-13.0132169,-4.0207811 a0.3175,0.3175 0 1,1 0.635,0 a0.3175,0.3175 0 1,1 -0.635,0z" transform="matrix(1,0,0,-1,13.9657169,9.0900716)" fill="rgb(255,255,255)" stroke="rgb(0,0,0)" stroke-width="0.0010cm" stroke-linecap="round" stroke-linejoin="round" /><path d="M-13.0132169,-5.9767084 a0.3175,0.3175 0 1,1 0.635,0 a0.3175,0.3175 0 1,1 -0.635,0z" transform="matrix(1,0,0,-1,13.9657169,9.0900716)" fill="rgb(255,255,255)" stroke="rgb(0,0,0)" stroke-width="0.0010cm" stroke-linecap="round" stroke-linejoin="round" /><path d="M-13.0132169,-7.9326357 a0.3175,0.3175 0 1,1 0.635,0 a0.3175,0.3175 0 1,1 -0.635,0z" transform="matrix(1,0,0,-1,13.9657169,9.0900716)" fill="rgb(255,255,255)" stroke="rgb(0,0,0)" stroke-width="0.0010cm" stroke-linecap="round" stroke-linejoin="round" /><path d="M2.4242115,7.9970116 a0.245745,0.245745 0 1,1 0.49149,0 a0.245745,0.245745 0 1,1 -0.49149,0z" transform="matrix(1,0,0,-1,13.9657169,9.0900716)" fill="rgb(255,255,255)" stroke="rgb(0,0,0)" stroke-width="0.0010cm" stroke-linecap="round" stroke-linejoin="round" /><path d="M-9.8740328,6.5549665 a0.245745,0.245745 0 1,1 0.49149,0 a0.245745,0.245745 0 1,1 -0.49149,0z" transform="matrix(1,0,0,-1,13.9657169,9.0900716)" fill="rgb(255,255,255)" stroke="rgb(0,0,0)" stroke-width="0.0010cm" stroke-linecap="round" stroke-linejoin="round" /><path d="M-10.8118915,6.434796 a0.15875,0.15875 0 1,1 0.3175,0 a0.15875,0.15875 0 1,1 -0.3175,0z" transform="matrix(1,0,0,-1,13.9657169,9.0900716)" fill="rgb(255,255,255)" stroke="rgb(0,0,0)" stroke-width="0.0010cm" stroke-linecap="round" stroke-linejoin="round" /><path d="M-8.7621841,6.6751369 a0.15875,0.15875 0 1,1 0.3175,0 a0.15875,0.15875 0 1,1 -0.3175,0z" transform="matrix(1,0,0,-1,13.9657169,9.0900716)" fill="rgb(255,255,255)" stroke="rgb(0,0,0)" stroke-width="0.0010cm" stroke-linecap="round" stroke-linejoin="round" /><path d="M-6.7124767,6.9154778 a0.15875,0.15875 0 1,1 0.3175,0 a0.15875,0.15875 0 1,1 -0.3175,0z" transform="matrix(1,0,0,-1,13.9657169,9.0900716)" fill="rgb(255,255,255)" stroke="rgb(0,0,0)" stroke-width="0.0010cm" stroke-linecap="round" stroke-linejoin="round" /><path d="M-4.6627694,7.1558186 a0.15875,0.15875 0 1,1 0.3175,0 a0.15875,0.15875 0 1,1 -0.3175,0z" transform="matrix(1,0,0,-1,13.9657169,9.0900716)" fill="rgb(255,255,255)" stroke="rgb(0,0,0)" stroke-width="0.0010cm" stroke-linecap="round" stroke-linejoin="round" /><path d="M-2.613062,7.3961595 a0.15875,0.15875 0 1,1 0.3175,0 a0.15875,0.15875 0 1,1 -0.3175,0z" transform="matrix(1,0,0,-1,13.9657169,9.0900716)" fill="rgb(255,255,255)" stroke="rgb(0,0,0)" stroke-width="0.0010cm" stroke-linecap="round" stroke-linejoin="round" /><path d="M-0.5633546,7.6365004 a0.15875,0.15875 0 1,1 0.3175,0 a0.15875,0.15875 0 1,1 -0.3175,0z" transform="matrix(1,0,0,-1,13.9657169,9.0900716)" fill="rgb(255,255,255)" stroke="rgb(0,0,0)" stroke-width="0.0010cm" stroke-linecap="round" stroke-linejoin="round" /><path d="M1.4863528,7.8768412 a0.15875,0.15875 0 1,1 0.3175,0 a0.15875,0.15875 0 1,1 -0.3175,0z" transform="matrix(1,0,0,-1,13.9657169,9.0900716)" fill="rgb(255,255,255)" stroke="rgb(0,0,0)" stroke-width="0.0010cm" stroke-linecap="round" stroke-linejoin="round" /><path d="M3.5360601,8.1171821 a0.15875,0.15875 0 1,1 0.3175,0 a0.15875,0.15875 0 1,1 -0.3175,0z" transform="matrix(1,0,0,-1,13.9657169,9.0900716)" fill="rgb(255,255,255)" stroke="rgb(0,0,0)" stroke-width="0.0010cm" stroke-linecap="round" stroke-linejoin="round" /><path d="M11.8502391,-6.1243214 a0.245745,0.245745 0 1,1 0.49149,0 a0.245745,0.245745 0 1,1 -0.49149,0z" transform="matrix(1,0,0,-1,13.9657169,9.0900716)" fill="rgb(255,255,255)" stroke="rgb(0,0,0)" stroke-width="0.0010cm" stroke-linecap="round" stroke-linejoin="round" /><path d="M10.5621086,-2.1642211 a0.245745,0.245745 0 1,1 0.49149,0 a0.245745,0.245745 0 1,1 -0.49149,0z" transform="matrix(1,0,0,-1,13.9657169,9.0900716)" fill="rgb(255,255,255)" stroke="rgb(0,0,0)" stroke-width="0.0010cm" stroke-linecap="round" stroke-linejoin="round" /><path d="M7.0825563,-3.2960402 a0.245745,0.245745 0 1,1 0.49149,0 a0.245745,0.245745 0 1,1 -0.49149,0z" transform="matrix(1,0,0,-1,13.9657169,9.0900716)" fill="rgb(255,255,255)" stroke="rgb(0,0,0)" stroke-width="0.0010cm" stroke-linecap="round" stroke-linejoin="round" /><path d="M7.0946144,-7.6712178 a0.245745,0.245745 0 1,1 0.49149,0 a0.245745,0.245745 0 1,1 -0.49149,0z" transform="matrix(1,0,0,-1,13.9657169,9.0900716)" fill="rgb(255,255,255)" stroke="rgb(0,0,0)" stroke-width="0.0010cm" stroke-linecap="round" stroke-linejoin="round" /><path d="M9.2853717,1.760852 a0.245745,0.245745 0 1,1 0.49149,0 a0.245745,0.245745 0 1,1 -0.49149,0z" transform="matrix(1,0,0,-1,13.9657169,9.0900716)" fill="rgb(255,255,255)" stroke="rgb(0,0,0)" stroke-width="0.0010cm" stroke-linecap="round" stroke-linejoin="round" /><path d="M7.0706048,1.0404388 a0.245745,0.245745 0 1,1 0.49149,0 a0.245745,0.245745 0 1,1 -0.49149,0z" transform="matrix(1,0,0,-1,13.9657169,9.0900716)" fill="rgb(255,255,255)" stroke="rgb(0,0,0)" stroke-width="0.0010cm" stroke-linecap="round" stroke-linejoin="round" /><path d="M7.8717882,6.1066327 a0.245745,0.245745 0 1,1 0.49149,0 a0.245745,0.245745 0 1,1 -0.49149,0z" transform="matrix(1,0,0,-1,13.9657169,9.0900716)" fill="rgb(255,255,255)" stroke="rgb(0,0,0)" stroke-width="0.0010cm" stroke-linecap="round" stroke-linejoin="round" /></svg>