<?xml version="1.0" encoding="utf-8"?>
<!-- Generator: Fusion 360, Shaper Origin Export Add-In, Version 1.6.10  -->
<svg xmlns="http://www.w3.org/2000/svg" xmlns:xlink="http://www.w3.org/1999/xlink" xmlns:shaper="http://www.shapertools.com/namespaces/shaper" shaper:fusionaddin="version:1.6.10" width="7.3025cm" height="1.5875cm" version="1.1" x="0cm" y="0cm" viewBox="0 0 7.3025 1.5875" enable-background="new 0 0 7.3025 1.5875" xml:space="preserve"><path d="M-2.8575,0.79375 A0.79375,0.79375 90 0,1 -2.8575,-0.79375 L2.8575,-0.79375 A0.79375,0.79375 270 0,1 2.8575,0.79375 L-2.8575,0.79375z" transform="matrix(1,0,0,-1,3.65125,0.79375)" fill="rgb(0,0,0)" stroke-linecap="round" stroke-linejoin="round" /><path d="M-3.293999,-0 a0.436499,0.436499 0 1,1 0.872998,0 a0.436499,0.436499 0 1,1 -0.872998,0z" transform="matrix(1,0,0,-1,3.65125,0.79375)" fill="rgb(255,255,255)" stroke="rgb(0,0,0)" stroke-width="0.0010cm" stroke-linecap="round" stroke-linejoin="round" /><path d="M2.421001,-0 a0.436499,0.436499 0 1,1 0.872998,0 a0.436499,0.436499 0 1,1 -0.872998,0z" transform="matrix(1,0,0,-1,3.65125,0.79375)" fill="rgb(255,255,255)" stroke="rgb(0,0,0)" stroke-width="0.0010cm" stroke-linecap="round" stroke-linejoin="round" /></svg>