<?xml version="1.0" encoding="utf-8"?>
<!-- Generator: Fusion 360, Shaper Origin Export Add-In, Version 1.6.10  -->
<svg xmlns="http://www.w3.org/2000/svg" xmlns:xlink="http://www.w3.org/1999/xlink" xmlns:shaper="http://www.shapertools.com/namespaces/shaper" shaper:fusionaddin="version:1.6.10" width="27.136553cm" height="14.275564cm" version="1.1" x="0cm" y="0cm" viewBox="0 0 27.136553 14.275564" enable-background="new 0 0 27.136553 14.275564" xml:space="preserve"><path d="M-13.5682765,-12.688064 L13.5682765,-12.688064 13.5682765,1.5875 -13.5682765,1.5875 -13.5682765,-12.688064z" transform="matrix(1,0,0,-1,13.5682765,1.5875)" fill="rgb(0,0,0)" stroke-linecap="round" stroke-linejoin="round" /><path d="M2.1382765,-9.513064 L-2.1382765,-9.513064 A3.175,3.175 270 0,0 -5.3132765,-6.338064 L-5.3132765,-4.7625 A3.175,3.175 180 0,0 -2.1382765,-1.5875 L2.1382765,-1.5875 A3.175,3.175 90 0,0 5.3132765,-4.7625 L5.3132765,-6.338064 A3.175,3.175 0 0,0 2.1382765,-9.513064z" transform="matrix(1,0,0,-1,13.5682765,1.5875)" fill="rgb(255,255,255)" stroke="rgb(0,0,0)" stroke-width="0.0010cm" stroke-linecap="round" stroke-linejoin="round" /><path d="M-13.0920265,-9.513064 a0.15875,0.15875 0 1,1 0.3175,0 a0.15875,0.15875 0 1,1 -0.3175,0z" transform="matrix(1,0,0,-1,13.5682765,1.5875)" fill="rgb(255,255,255)" stroke="rgb(0,0,0)" stroke-width="0.0010cm" stroke-linecap="round" stroke-linejoin="round" /><path d="M-13.0920265,-1.5875 a0.15875,0.15875 0 1,1 0.3175,0 a0.15875,0.15875 0 1,1 -0.3175,0z" transform="matrix(1,0,0,-1,13.5682765,1.5875)" fill="rgb(255,255,255)" stroke="rgb(0,0,0)" stroke-width="0.0010cm" stroke-linecap="round" stroke-linejoin="round" /><path d="M-11.1870265,-12.053064 a0.15875,0.15875 0 1,1 0.3175,0 a0.15875,0.15875 0 1,1 -0.3175,0z" transform="matrix(1,0,0,-1,13.5682765,1.5875)" fill="rgb(255,255,255)" stroke="rgb(0,0,0)" stroke-width="0.0010cm" stroke-linecap="round" stroke-linejoin="round" /><path d="M-0.15875,-12.053064 a0.15875,0.15875 0 1,1 0.3175,0 a0.15875,0.15875 0 1,1 -0.3175,0z" transform="matrix(1,0,0,-1,13.5682765,1.5875)" fill="rgb(255,255,255)" stroke="rgb(0,0,0)" stroke-width="0.0010cm" stroke-linecap="round" stroke-linejoin="round" /><path d="M10.8695265,-12.053064 a0.15875,0.15875 0 1,1 0.3175,0 a0.15875,0.15875 0 1,1 -0.3175,0z" transform="matrix(1,0,0,-1,13.5682765,1.5875)" fill="rgb(255,255,255)" stroke="rgb(0,0,0)" stroke-width="0.0010cm" stroke-linecap="round" stroke-linejoin="round" /><path d="M12.7745265,-1.5875 a0.15875,0.15875 0 1,1 0.3175,0 a0.15875,0.15875 0 1,1 -0.3175,0z" transform="matrix(1,0,0,-1,13.5682765,1.5875)" fill="rgb(255,255,255)" stroke="rgb(0,0,0)" stroke-width="0.0010cm" stroke-linecap="round" stroke-linejoin="round" /><path d="M12.7745265,-9.513064 a0.15875,0.15875 0 1,1 0.3175,0 a0.15875,0.15875 0 1,1 -0.3175,0z" transform="matrix(1,0,0,-1,13.5682765,1.5875)" fill="rgb(255,255,255)" stroke="rgb(0,0,0)" stroke-width="0.0010cm" stroke-linecap="round" stroke-linejoin="round" /></svg>