<?xml version="1.0" encoding="utf-8"?>
<!-- Generator: Fusion 360, Shaper Origin Export Add-In, Version 1.6.10  -->
<svg xmlns="http://www.w3.org/2000/svg" xmlns:xlink="http://www.w3.org/1999/xlink" xmlns:shaper="http://www.shapertools.com/namespaces/shaper" shaper:fusionaddin="version:1.6.10" width="14.2628976cm" height="9.8843651cm" version="1.1" x="0cm" y="0cm" viewBox="0 0 14.2628976 9.8843651" enable-background="new 0 0 14.2628976 9.8843651" xml:space="preserve"><path d="M5.8614488,-4.9421825 L7.1314488,-3.6721825 7.1314488,3.6721825 5.8614488,4.9421825 -5.8614488,4.9421825 -7.1314488,3.6721825 -7.1314488,-3.6721825 -5.8614488,-4.9421825 5.8614488,-4.9421825z" transform="matrix(1,0,0,-1,7.1314488,4.9421825)" fill="rgb(0,0,0)" stroke-linecap="round" stroke-linejoin="round" /><path d="M-6.50875,0.40347 a0.15875,0.15875 0 1,1 0.3175,0 a0.15875,0.15875 0 1,1 -0.3175,0z" transform="matrix(1,0,0,-1,7.1314488,4.9421825)" fill="rgb(255,255,255)" stroke="rgb(0,0,0)" stroke-width="0.0010cm" stroke-linecap="round" stroke-linejoin="round" /><path d="M-0.15875,-2.1744157 a0.15875,0.15875 0 1,1 0.3175,0 a0.15875,0.15875 0 1,1 -0.3175,0z" transform="matrix(1,0,0,-1,7.1314488,4.9421825)" fill="rgb(255,255,255)" stroke="rgb(0,0,0)" stroke-width="0.0010cm" stroke-linecap="round" stroke-linejoin="round" /><path d="M-0.15875,3.9739153 a0.15875,0.15875 0 1,1 0.3175,0 a0.15875,0.15875 0 1,1 -0.3175,0z" transform="matrix(1,0,0,-1,7.1314488,4.9421825)" fill="rgb(255,255,255)" stroke="rgb(0,0,0)" stroke-width="0.0010cm" stroke-linecap="round" stroke-linejoin="round" /><path d="M6.19125,0.40347 a0.15875,0.15875 0 1,1 0.3175,0 a0.15875,0.15875 0 1,1 -0.3175,0z" transform="matrix(1,0,0,-1,7.1314488,4.9421825)" fill="rgb(255,255,255)" stroke="rgb(0,0,0)" stroke-width="0.0010cm" stroke-linecap="round" stroke-linejoin="round" /><path d="M5.4555874,-3.01283 a0.4564126,0.4564126 0 1,1 0.9128252,0 a0.4564126,0.4564126 0 1,1 -0.9128252,0z" transform="matrix(1,0,0,-1,7.1314488,4.9421825)" fill="rgb(255,255,255)" stroke="rgb(0,0,0)" stroke-width="0.0010cm" stroke-linecap="round" stroke-linejoin="round" /><path d="M-6.3684126,-3.01283 a0.4564126,0.4564126 0 1,1 0.9128252,0 a0.4564126,0.4564126 0 1,1 -0.9128252,0z" transform="matrix(1,0,0,-1,7.1314488,4.9421825)" fill="rgb(255,255,255)" stroke="rgb(0,0,0)" stroke-width="0.0010cm" stroke-linecap="round" stroke-linejoin="round" /><path d="M-6.3684126,3.81977 a0.4564126,0.4564126 0 1,1 0.9128252,0 a0.4564126,0.4564126 0 1,1 -0.9128252,0z" transform="matrix(1,0,0,-1,7.1314488,4.9421825)" fill="rgb(255,255,255)" stroke="rgb(0,0,0)" stroke-width="0.0010cm" stroke-linecap="round" stroke-linejoin="round" /><path d="M5.4555874,3.81977 a0.4564126,0.4564126 0 1,1 0.9128252,0 a0.4564126,0.4564126 0 1,1 -0.9128252,0z" transform="matrix(1,0,0,-1,7.1314488,4.9421825)" fill="rgb(255,255,255)" stroke="rgb(0,0,0)" stroke-width="0.0010cm" stroke-linecap="round" stroke-linejoin="round" /></svg>