<?xml version="1.0" encoding="UTF-8" standalone="no"?>
<!-- Created with Inkscape (http://www.inkscape.org/) -->

<svg
   width="850mm"
   height="750mm"
   viewBox="0 0 850 750"
   version="1.1"
   id="svg5"
   xml:space="preserve"
   inkscape:version="1.2.1 (9c6d41e410, 2022-07-14)"
   sodipodi:docname="MDF_.25_OH3A2A-125_NO_BEND_LINES_RIGHT SEAT BUCKET SKIN_-_V94.svg"
   xmlns:inkscape="http://www.inkscape.org/namespaces/inkscape"
   xmlns:sodipodi="http://sodipodi.sourceforge.net/DTD/sodipodi-0.dtd"
   xmlns="http://www.w3.org/2000/svg"
   xmlns:svg="http://www.w3.org/2000/svg"><sodipodi:namedview
     id="namedview7"
     pagecolor="#ffffff"
     bordercolor="#000000"
     borderopacity="0.25"
     inkscape:showpageshadow="2"
     inkscape:pageopacity="0.0"
     inkscape:pagecheckerboard="0"
     inkscape:deskcolor="#d1d1d1"
     inkscape:document-units="mm"
     showgrid="false"
     inkscape:zoom="0.64693624"
     inkscape:cx="747.36886"
     inkscape:cy="1184.0425"
     inkscape:window-width="3840"
     inkscape:window-height="2066"
     inkscape:window-x="5749"
     inkscape:window-y="-11"
     inkscape:window-maximized="1"
     inkscape:current-layer="layer1" /><defs
     id="defs2"><marker
       id="DistanceX"
       orient="auto"
       refX="0"
       refY="0"
       style="overflow:visible"><path
         d="M 3,-3 -3,3 M 0,-5 V 5"
         style="stroke:#000000;stroke-width:0.5"
         id="path1051" /></marker><pattern
       id="Hatch"
       patternUnits="userSpaceOnUse"
       width="8"
       height="8"
       x="0"
       y="0"><path
         d="M8 4 l-4,4"
         stroke="#000000"
         stroke-width="0.25"
         linecap="square"
         id="path1054" /><path
         d="M6 2 l-4,4"
         stroke="#000000"
         stroke-width="0.25"
         linecap="square"
         id="path1056" /><path
         d="M4 0 l-4,4"
         stroke="#000000"
         stroke-width="0.25"
         linecap="square"
         id="path1058" /></pattern><symbol
       id="*Model_Space" /><symbol
       id="*Paper_Space" /><symbol
       id="*Paper_Space0" /></defs><g
     inkscape:label="Layer 1"
     inkscape:groupmode="layer"
     id="layer1"><g
       id="g1811"
       transform="matrix(0.26458333,0,0,0.26458333,-16.436461,301.55564)"><g
         inkscape:label="0"
         id="g1066" /><g
         inkscape:label="Defpoints"
         id="g1068" /><g
         inkscape:label="Visible"
         id="g1530"><path
           d="m 2608.857,308.07229 a 9.0240004,9.0240004 0 0 0 13.1065,12.40762"
           style="fill:none;stroke:#000000"
           id="path1070" /><path
           d="m 2677.7854,304.53542 a 9.0240013,9.0240013 0 0 0 4.5759,-17.45828"
           style="fill:none;stroke:#000000"
           id="path1072" /><path
           style="fill:none;stroke:#000000"
           d="M 479.749,-744.259 935.714,36.7678"
           id="path1074" /><path
           style="fill:none;stroke:#000000"
           d="M 161.019,-666.263 429.665,443.458"
           id="path1076" /><path
           d="m 2391.7763,1004.1742 a 24,24 0 0 0 -11.0262,3.7252"
           style="fill:none;stroke:#000000"
           id="path1078" /><path
           d="m 2372.9056,120.75356 a 24,24 0 0 0 -2.487,-1.00007"
           style="fill:none;stroke:#000000"
           id="path1080" /><path
           style="fill:none;stroke:#000000"
           d="m 2372.91,120.754 664.28,311.275"
           id="path1082" /><path
           d="M 3108.9211,618.02297 A 144,144 0 0 0 3037.189,432.02905"
           style="fill:none;stroke:#000000"
           id="path1084" /><path
           style="fill:none;stroke:#000000"
           d="M 3108.92,618.023 3000.65,876.704"
           id="path1086" /><path
           d="m 2879.4493,964.63383 a 144,144 0 0 0 121.196,-87.92926"
           style="fill:none;stroke:#000000"
           id="path1088" /><path
           style="fill:none;stroke:#000000"
           d="m 2879.45,964.634 -487.67,39.536"
           id="path1090" /><path
           d="m 2952.2857,849.83054 a 24,24 0 0 0 -18.9,-37.81373"
           style="fill:none;stroke:#000000"
           id="path1092" /><path
           style="fill:none;stroke:#000000"
           d="m 2567.52,801.059 365.87,10.958"
           id="path1094" /><path
           style="fill:none;stroke:#000000"
           d="m 2947.12,857.155 5.17,-7.324"
           id="path1096" /><path
           d="m 2567.5201,801.05918 a 24,24 0 0 0 -24.7168,24.26841"
           style="fill:none;stroke:#000000"
           id="path1098" /><path
           d="m 2837.3794,917.98776 a 144,144 0 0 0 109.7449,-60.83258"
           style="fill:none;stroke:#000000"
           id="path1100" /><path
           style="fill:none;stroke:#000000"
           d="m 2542.8,825.328 0.98,83.839"
           id="path1102" /><path
           style="fill:none;stroke:#000000"
           d="m 2569.1,932.851 268.28,-14.863"
           id="path1104" /><path
           d="m 2543.7785,909.16688 a 24,24 0 0 0 25.326,23.68409"
           style="fill:none;stroke:#000000"
           id="path1106" /><path
           d="m 2635.4787,447.77057 a 144,144 0 0 0 101.385,-36.50529"
           style="fill:none;stroke:#000000"
           id="path1108" /><path
           style="fill:none;stroke:#000000"
           d="m 2454.56,440.915 180.92,6.856"
           id="path1110" /><path
           style="fill:none;stroke:#000000"
           d="m 2759.23,391.281 -22.37,19.984"
           id="path1112" /><path
           d="m 2454.5558,440.91539 a 24,24 0 0 0 -24.9071,24.26196"
           style="fill:none;stroke:#000000"
           id="path1114" /><path
           d="m 2785.8227,387.64736 a 24,24 0 0 0 -26.5882,3.63404"
           style="fill:none;stroke:#000000"
           id="path1116" /><path
           style="fill:none;stroke:#000000"
           d="m 2429.65,465.177 2.94,252.809"
           id="path1118" /><path
           style="fill:none;stroke:#000000"
           d="m 2785.82,387.647 281.37,138.502"
           id="path1120" /><path
           d="m 2432.5896,717.98567 a 24,24 0 0 0 23.8667,23.72047"
           style="fill:none;stroke:#000000"
           id="path1122" /><path
           d="m 3073.0215,541.39712 a 12,12 0 0 0 -5.8321,-15.24777"
           style="fill:none;stroke:#000000"
           id="path1124" /><path
           style="fill:none;stroke:#000000"
           d="m 2456.46,741.706 518.43,2.845"
           id="path1126" /><path
           style="fill:none;stroke:#000000"
           d="m 3073.02,541.397 -75.73,188.117"
           id="path1128" /><path
           d="m 2974.8934,744.5511 a 24,24 0 0 0 22.3953,-15.03671"
           style="fill:none;stroke:#000000"
           id="path1130" /><path
           d="m 2535.2303,773.71473 a 6,6 0 0 0 -12,0 6,6 0 0 0 12,0 z"
           style="fill:none;stroke:#000000"
           id="path1132" /><path
           d="m 2631.2289,774.24157 a 6,6 0 0 0 -12,0 6,6 0 0 0 12,0 z"
           style="fill:none;stroke:#000000"
           id="path1134" /><path
           d="m 2823.226,775.29517 a 6,6 0 0 0 -12,0 6,6 0 0 0 12,0 z"
           style="fill:none;stroke:#000000"
           id="path1136" /><path
           style="fill:none;stroke:#000000"
           d="m 1794.35,271.817 61.51,1.784"
           id="path1138" /><path
           d="m 1785.8524,269.99471 a 24,24 0 0 0 8.5025,1.8226"
           style="fill:none;stroke:#000000"
           id="path1140" /><path
           d="m 1792.1409,289.56263 a 9.024,9.024 0 0 0 -18.048,0 9.024,9.024 0 0 0 18.048,0 z"
           style="fill:none;stroke:#000000"
           id="path1142" /><path
           d="m 1729.0808,295.01168 a 9.024,9.024 0 0 0 -18.048,0 9.024,9.024 0 0 0 18.048,0 z"
           style="fill:none;stroke:#000000"
           id="path1144" /><path
           d="m 1957.5642,834.24746 a 24,24 0 0 0 -16.1604,-2.89138"
           style="fill:none;stroke:#000000"
           id="path1146" /><path
           style="fill:none;stroke:#000000"
           d="M 1803.71,855.279 1941.4,831.356"
           id="path1148" /><path
           d="m 1803.7078,855.27919 a 24,24 0 0 0 -7.7912,2.80336"
           style="fill:none;stroke:#000000"
           id="path1150" /><path
           style="fill:none;stroke:#000000"
           d="M 1795.92,858.083 1668.14,931.03"
           id="path1152" /><path
           d="m 1668.1445,931.02987 a 24,24 0 0 0 12.1784,44.8408"
           style="fill:none;stroke:#000000"
           id="path1154" /><path
           style="fill:none;stroke:#000000"
           d="m 2104.12,970.941 -423.8,4.93"
           id="path1156" /><path
           d="m 2104.1172,970.94078 a 24,24 0 0 0 11.773,-44.75278"
           style="fill:none;stroke:#000000"
           id="path1158" /><path
           style="fill:none;stroke:#000000"
           d="M 2115.89,926.188 1957.56,834.247"
           id="path1160" /><path
           d="m 2279.5146,976.37898 a 24,24 0 0 0 36.0101,-21.05702"
           style="fill:none;stroke:#000000"
           id="path1162" /><path
           style="fill:none;stroke:#000000"
           d="m 2309.67,451.849 5.85,503.473"
           id="path1164" /><path
           d="m 2309.6679,451.84919 a 24,24 0 0 0 -41.1651,-16.49285"
           style="fill:none;stroke:#000000"
           id="path1166" /><path
           style="fill:none;stroke:#000000"
           d="M 1991.95,718.421 2268.5,435.356"
           id="path1168" /><path
           d="m 1991.9478,718.42117 a 24,24 0 0 0 -6.8316,17.05119"
           style="fill:none;stroke:#000000"
           id="path1170" /><path
           style="fill:none;stroke:#000000"
           d="m 1985.79,793.005 -0.67,-57.533"
           id="path1172" /><path
           d="m 1985.7855,793.00468 a 24,24 0 0 0 11.9867,20.49868"
           style="fill:none;stroke:#000000"
           id="path1174" /><path
           style="fill:none;stroke:#000000"
           d="m 1997.77,813.503 281.74,162.876"
           id="path1176" /><path
           d="m 1538.9654,223.65794 a 24,24 0 0 0 9.9216,45.97615"
           style="fill:none;stroke:#000000"
           id="path1178" /><path
           style="fill:none;stroke:#000000"
           d="m 1683.27,268.071 -134.38,1.563"
           id="path1180" /><path
           d="m 1683.2736,268.07078 a 12,12 0 0 0 11.8596,-12.13877"
           style="fill:none;stroke:#000000"
           id="path1182" /><path
           style="fill:none;stroke:#000000"
           d="m 1694.18,173.79 0.95,82.142"
           id="path1184" /><path
           d="m 1694.1777,173.78951 a 12,12 0 0 0 -16.8204,-10.8493"
           style="fill:none;stroke:#000000"
           id="path1186" /><path
           style="fill:none;stroke:#000000"
           d="m 1677.36,162.94 -138.39,60.718"
           id="path1188" /><path
           d="m 582.2542,445.69112 a 24,24 0 0 0 -15.81204,33.50426"
           style="fill:none;stroke:#000000"
           id="path1190" /><path
           style="fill:none;stroke:#000000"
           d="m 566.442,479.195 26.251,55.649"
           id="path1192" /><path
           d="m 592.69288,534.84418 a 24,24 0 0 0 28.20737,12.86341"
           style="fill:none;stroke:#000000"
           id="path1194" /><path
           style="fill:none;stroke:#000000"
           d="m 620.9,547.708 58.479,-16.457"
           id="path1196" /><path
           d="M 767.94842,580.21288 A 72,72 0 0 0 679.37943,531.25127"
           style="fill:none;stroke:#000000"
           id="path1198" /><path
           style="fill:none;stroke:#000000"
           d="m 767.948,580.213 95.291,323.46"
           id="path1200" /><path
           d="m 863.23879,903.67304 a 24,24 0 0 0 46.75698,-3.2268"
           style="fill:none;stroke:#000000"
           id="path1202" /><path
           style="fill:none;stroke:#000000"
           d="M 961.254,558.25 909.996,900.446"
           id="path1204" /><path
           d="m 961.25436,558.24992 a 48,48 0 0 0 -0.95411,-18.95283"
           style="fill:none;stroke:#000000"
           id="path1206" /><path
           style="fill:none;stroke:#000000"
           d="M 926.837,407.851 960.3,539.297"
           id="path1208" /><path
           d="M 926.83676,407.85121 A 48,48 0 0 0 868.53223,373.16336"
           style="fill:none;stroke:#000000"
           id="path1210" /><path
           style="fill:none;stroke:#000000"
           d="M 582.254,445.691 868.532,373.163"
           id="path1212" /><path
           d="M 989.56359,819.46008 A 24,24 0 0 0 1004.4,844.11868"
           style="fill:none;stroke:#000000"
           id="path1214" /><path
           style="fill:none;stroke:#000000"
           d="m 1004.4,844.119 321.07,130.564"
           id="path1216" /><path
           d="m 1325.4747,974.68309 a 24,24 0 0 0 30.1084,-33.72792"
           style="fill:none;stroke:#000000"
           id="path1218" /><path
           style="fill:none;stroke:#000000"
           d="m 1186.61,631.295 168.97,309.66"
           id="path1220" /><path
           d="M 1186.6137,631.29546 A 48,48 0 0 0 1132.6363,607.7708"
           style="fill:none;stroke:#000000"
           id="path1222" /><path
           style="fill:none;stroke:#000000"
           d="m 1040.37,631.261 92.27,-23.49"
           id="path1224" /><path
           d="m 1040.3672,631.26065 a 48,48 0 0 0 -35.9119,41.66331"
           style="fill:none;stroke:#000000"
           id="path1226" /><path
           style="fill:none;stroke:#000000"
           d="M 1004.46,672.924 989.564,819.46"
           id="path1228" /><path
           d="m 1418.4528,953.29734 a 24,24 0 0 0 21.4499,12.69339"
           style="fill:none;stroke:#000000"
           id="path1230" /><path
           style="fill:none;stroke:#000000"
           d="m 1439.9,965.991 72.37,-0.842"
           id="path1232" /><path
           d="m 1512.2723,965.14881 a 24,24 0 0 0 11.4602,-3.06549"
           style="fill:none;stroke:#000000"
           id="path1234" /><path
           style="fill:none;stroke:#000000"
           d="M 1523.73,962.083 1783.06,816.649"
           id="path1236" /><path
           d="m 1783.0591,816.64944 a 48,48 0 0 0 0.6255,-83.37456"
           style="fill:none;stroke:#000000"
           id="path1238" /><path
           style="fill:none;stroke:#000000"
           d="M 1783.68,733.275 1451.95,540.638"
           id="path1240" /><path
           d="m 1451.954,540.63763 a 48,48 0 0 0 -35.9464,-5.00747"
           style="fill:none;stroke:#000000"
           id="path1242" /><path
           style="fill:none;stroke:#000000"
           d="M 1281.16,569.958 1416.01,535.63"
           id="path1244" /><path
           d="m 1281.1647,569.95841 a 48,48 0 0 0 -30.4992,69.12625"
           style="fill:none;stroke:#000000"
           id="path1246" /><path
           style="fill:none;stroke:#000000"
           d="m 1250.67,639.085 167.78,314.212"
           id="path1248" /><path
           d="m 1844.149,724.69366 a 24,24 0 0 0 14.09,3.132"
           style="fill:none;stroke:#000000"
           id="path1250" /><path
           style="fill:none;stroke:#000000"
           d="m 1928.88,721.686 -70.64,6.14"
           id="path1252" /><path
           d="m 1928.8751,721.68579 a 24,24 0 0 0 15.4087,-7.4719"
           style="fill:none;stroke:#000000"
           id="path1254" /><path
           style="fill:none;stroke:#000000"
           d="M 2237.4,402.39 1944.28,714.214"
           id="path1256" /><path
           d="M 2237.4022,402.38967 A 24,24 0 0 0 2221.1939,361.9858"
           style="fill:none;stroke:#000000"
           id="path1258" /><path
           style="fill:none;stroke:#000000"
           d="m 2221.19,361.986 -640.5,-34.173"
           id="path1260" /><path
           d="m 1580.6914,327.81307 a 48,48 0 0 0 -50.3185,43.15027"
           style="fill:none;stroke:#000000"
           id="path1262" /><path
           style="fill:none;stroke:#000000"
           d="m 1517.15,503.041 13.22,-132.078"
           id="path1264" /><path
           d="m 1517.15,503.04081 a 48,48 0 0 0 23.7379,46.33726"
           style="fill:none;stroke:#000000"
           id="path1266" /><path
           style="fill:none;stroke:#000000"
           d="m 1540.89,549.378 303.26,175.316"
           id="path1268" /><path
           d="m 1722.3962,277.14842 a 162,162 0 0 0 63.4562,-7.15368"
           style="fill:none;stroke:#000000"
           id="path1270" /><path
           d="m 1722.3962,277.1484 a 18,18 0 0 0 -3.0969,35.86654"
           style="fill:none;stroke:#000000"
           id="path1272" /><path
           d="m 1719.2992,313.01496 a 198,198 0 0 0 136.5597,-39.41354"
           style="fill:none;stroke:#000000"
           id="path1274" /><path
           style="fill:none;stroke:#000000"
           d="m 2267.93,115.721 95.63,2.773"
           id="path1276" /><path
           style="fill:none;stroke:#000000"
           d="m 2263.7,261.422 4.23,-145.701"
           id="path1278" /><path
           d="m 2239.0183,284.71606 a 24,24 0 0 0 24.6858,-23.29402"
           style="fill:none;stroke:#000000"
           id="path1280" /><path
           style="fill:none;stroke:#000000"
           d="m 1855.86,273.601 383.16,11.115"
           id="path1282" /><path
           d="m 1771.052,247.59403 a 24,24 0 0 0 14.8004,22.40068"
           style="fill:none;stroke:#000000"
           id="path1284" /><path
           style="fill:none;stroke:#000000"
           d="m 1771.05,247.594 1.28,-131.495"
           id="path1286" /><path
           d="M 1772.3306,116.09902 A 36,36 0 0 0 1723.0128,82.303636"
           style="fill:none;stroke:#000000"
           id="path1288" /><path
           style="fill:none;stroke:#000000"
           d="M 1434.61,197.159 1723.01,82.3036"
           id="path1290" /><path
           style="fill:none;stroke:#000000"
           d="m 1360.04,215.715 74.57,-18.556"
           id="path1292" /><path
           style="fill:none;stroke:#000000"
           d="M 518.655,797.332 430.526,447.015"
           id="path1294" /><path
           d="m 518.65509,797.33179 a 24,24 0 0 0 21.6693,18.091"
           style="fill:none;stroke:#000000"
           id="path1296" /><path
           style="fill:none;stroke:#000000"
           d="m 540.324,815.423 75.776,5.08"
           id="path1298" /><path
           d="M 637.76593,838.58109 A 24,24 0 0 0 616.09996,820.5033"
           style="fill:none;stroke:#000000"
           id="path1300" /><path
           style="fill:none;stroke:#000000"
           d="M 679.412,1003.73 637.766,838.581"
           id="path1302" /><path
           d="m 679.41224,1003.7302 a 24,24 0 0 0 18.06366,17.5597"
           style="fill:none;stroke:#000000"
           id="path1304" /><path
           style="fill:none;stroke:#000000"
           d="m 697.476,1021.29 169.213,37.61"
           id="path1306" /><path
           style="fill:none;stroke:#000000"
           d="M 1015.17,1087.13 866.689,1058.9"
           id="path1308" /><path
           d="m 1015.1727,1087.1316 a 24,24 0 0 0 4.4823,0.4223"
           style="fill:none;stroke:#000000"
           id="path1310" /><path
           style="fill:none;stroke:#000000"
           d="M 1019.65,1087.55 H 2321.09"
           id="path1312" /><path
           d="m 2321.0906,1087.5539 a 24,24 0 0 0 21.2595,-12.863"
           style="fill:none;stroke:#000000"
           id="path1314" /><path
           style="fill:none;stroke:#000000"
           d="m 2372.59,1016.96 -30.24,57.73"
           id="path1316" /><path
           d="m 506.33827,496.28289 a 6,6 0 0 0 -12,0 6,6 0 0 0 12,0 z"
           style="fill:none;stroke:#000000"
           id="path1318" /><path
           d="m 533.16115,607.08244 a 6,6 0 0 0 -12,0 6,6 0 0 0 12,0 z"
           style="fill:none;stroke:#000000"
           id="path1320" /><path
           d="m 559.98403,717.88189 a 6,6 0 0 0 -12,0 6,6 0 0 0 12,0 z"
           style="fill:none;stroke:#000000"
           id="path1322" /><path
           d="m 699.7993,950.69111 a 6,6 0 0 0 -12,0 6,6 0 0 0 12,0 z"
           style="fill:none;stroke:#000000"
           id="path1324" /><path
           d="m 708.68371,997.86176 a 6,6 0 0 0 -12,0 6,6 0 0 0 12,0 z"
           style="fill:none;stroke:#000000"
           id="path1326" /><path
           d="m 755.85427,988.97735 a 6,6 0 0 0 -12,0 6,6 0 0 0 12,0 z"
           style="fill:none;stroke:#000000"
           id="path1328" /><path
           d="m 746.96995,941.80679 a 6,6 0 0 0 -12,0 6,6 0 0 0 12,0 z"
           style="fill:none;stroke:#000000"
           id="path1330" /><path
           d="m 905.96218,1004.1615 a 6,6 0 0 0 -12,0 6,6 0 0 0 12,0 z"
           style="fill:none;stroke:#000000"
           id="path1332" /><path
           d="m 952.81853,1014.5772 a 6,6 0 0 0 -12,0 6,6 0 0 0 12,0 z"
           style="fill:none;stroke:#000000"
           id="path1334" /><path
           d="m 999.67478,1024.9928 a 6,6 0 0 0 -12,0 6,6 0 0 0 12,0 z"
           style="fill:none;stroke:#000000"
           id="path1336" /><path
           d="m 1046.5311,1035.4084 a 6,6 0 0 0 -12,0 6,6 0 0 0 12,0 z"
           style="fill:none;stroke:#000000"
           id="path1338" /><path
           d="m 1093.3875,1045.824 a 6,6 0 0 0 -12,0 6,6 0 0 0 12,0 z"
           style="fill:none;stroke:#000000"
           id="path1340" /><path
           d="m 1243.1475,1045.824 a 6,6 0 0 0 -12,0 6,6 0 0 0 12,0 z"
           style="fill:none;stroke:#000000"
           id="path1342" /><path
           d="m 1392.9075,1045.824 a 6,6 0 0 0 -12,0 6,6 0 0 0 12,0 z"
           style="fill:none;stroke:#000000"
           id="path1344" /><path
           d="m 1542.6675,1045.824 a 6,6 0 0 0 -12,0 6,6 0 0 0 12,0 z"
           style="fill:none;stroke:#000000"
           id="path1346" /><path
           d="m 1692.4275,1045.824 a 6,6 0 0 0 -12,0 6,6 0 0 0 12,0 z"
           style="fill:none;stroke:#000000"
           id="path1348" /><path
           d="m 2141.7075,1045.824 a 6,6 0 0 0 -12,0 6,6 0 0 0 12,0 z"
           style="fill:none;stroke:#000000"
           id="path1350" /><path
           d="m 2291.4675,1045.824 a 6,6 0 0 0 -12,0 6,6 0 0 0 12,0 z"
           style="fill:none;stroke:#000000"
           id="path1352" /><path
           d="m 1789.5666,1027.6138 a 12,12 0 0 0 -24,0 12,12 0 0 0 24,0 z"
           style="fill:none;stroke:#000000"
           id="path1354" /><path
           d="m 1828.0422,1015.0666 a 3.504,3.504 0 0 0 -7.008,0 3.504,3.504 0 0 0 7.008,0 z"
           style="fill:none;stroke:#000000"
           id="path1356" /><path
           d="m 1859.803,1032.9143 a 3.504,3.504 0 0 0 -7.008,0 3.504,3.504 0 0 0 7.008,0 z"
           style="fill:none;stroke:#000000"
           id="path1358" /><path
           d="m 2003.5415,1029.9235 a 15,15 0 0 0 -30,0 15,15 0 0 0 30,0 z"
           style="fill:none;stroke:#000000"
           id="path1360" /><path
           d="m 1012.6349,473.01085 a 7.29601,7.29601 0 0 0 -14.59202,0 7.29601,7.29601 0 0 0 14.59202,0 z"
           style="fill:none;stroke:#000000"
           id="path1362" /><path
           d="m 1246.9569,413.35722 a 7.296,7.296 0 0 0 -14.592,0 7.296,7.296 0 0 0 14.592,0 z"
           style="fill:none;stroke:#000000"
           id="path1364" /><path
           d="m 1481.2788,353.70349 a 7.296,7.296 0 0 0 -14.592,0 7.296,7.296 0 0 0 14.592,0 z"
           style="fill:none;stroke:#000000"
           id="path1366" /><path
           d="m 1468.5577,480.76967 a 7.296,7.296 0 0 0 -14.592,0 7.296,7.296 0 0 0 14.592,0 z"
           style="fill:none;stroke:#000000"
           id="path1368" /><path
           d="m 1255.3989,535.03559 a 7.296,7.296 0 0 0 -14.592,0 7.296,7.296 0 0 0 14.592,0 z"
           style="fill:none;stroke:#000000"
           id="path1370" /><path
           d="m 1042.2401,589.30151 a 7.296,7.296 0 0 0 -14.592,0 7.296,7.296 0 0 0 14.592,0 z"
           style="fill:none;stroke:#000000"
           id="path1372" /><path
           d="m 728.88307,600.55933 a 30,30 0 0 0 -60,0 30,30 0 0 0 60,0 z"
           style="fill:none;stroke:#000000"
           id="path1374" /><path
           d="m 1751.3323,115.74896 a 15,15 0 0 0 -30,0 15,15 0 0 0 30,0 z"
           style="fill:none;stroke:#000000"
           id="path1376" /><path
           d="m 2375.1878,1013.0086 a 24,24 0 0 0 -2.5932,3.9485"
           style="fill:none;stroke:#000000"
           id="path1378" /><path
           d="m 148.81786,-869.20979 a 10.608,10.608 0 0 0 -21.216,0 10.608,10.608 0 0 0 21.216,0 z"
           style="fill:none;stroke:#000000"
           id="path1380" /><path
           d="m 415.6319,-800.8022 a 10.608,10.608 0 0 0 -21.216,0 10.608,10.608 0 0 0 21.216,0 z"
           style="fill:none;stroke:#000000"
           id="path1382" /><path
           d="m 289.59062,-1016.6997 a 10.608,10.608 0 0 0 -21.216,0 10.608,10.608 0 0 0 21.216,0 z"
           style="fill:none;stroke:#000000"
           id="path1384" /><path
           d="m 129.62947,-1059.8235 a 6,6 0 0 0 -12,0 6,6 0 0 0 12,0 z"
           style="fill:none;stroke:#000000"
           id="path1386" /><path
           d="m 146.57021,-989.84483 a 6,6 0 0 0 -12,0 6,6 0 0 0 12,0 z"
           style="fill:none;stroke:#000000"
           id="path1388" /><path
           d="m 163.51104,-919.8662 a 6,6 0 0 0 -12,0 6,6 0 0 0 12,0 z"
           style="fill:none;stroke:#000000"
           id="path1390" /><path
           d="m 253.99238,-954.11699 a 6,6 0 0 0 -12,0 6,6 0 0 0 12,0 z"
           style="fill:none;stroke:#000000"
           id="path1392" /><path
           d="m 244.58083,-992.99401 a 6,6 0 0 0 -12,0 6,6 0 0 0 12,0 z"
           style="fill:none;stroke:#000000"
           id="path1394" /><path
           d="m 235.16938,-1031.871 a 6,6 0 0 0 -12,0 6,6 0 0 0 12,0 z"
           style="fill:none;stroke:#000000"
           id="path1396" /><path
           d="m 225.75782,-1070.7481 a 6,6 0 0 0 -12,0 6,6 0 0 0 12,0 z"
           style="fill:none;stroke:#000000"
           id="path1398" /><path
           d="m 184.50691,-833.13663 a 6,6 0 0 0 -12,0 6,6 0 0 0 12,0 z"
           style="fill:none;stroke:#000000"
           id="path1400" /><path
           d="m 211.32979,-722.33708 a 6,6 0 0 0 -12,0 6,6 0 0 0 12,0 z"
           style="fill:none;stroke:#000000"
           id="path1402" /><path
           d="m 2685.8398,359.64973 a 22.5,22.5 0 0 0 -45,0 22.5,22.5 0 0 0 45,0 z"
           style="fill:none;stroke:#000000"
           id="path1404" /><path
           d="m 2675.5097,313.21812 a 18,18 0 0 0 9.1274,-34.82369"
           style="fill:none;stroke:#000000"
           id="path1406" /><path
           d="m 2675.5097,313.21814 a 48,48 0 0 0 -47.0277,13.43263"
           style="fill:none;stroke:#000000"
           id="path1408" /><path
           d="m 2602.3386,301.90149 a 18.000009,18.000009 0 0 0 26.1434,24.74922"
           style="fill:none;stroke:#000000"
           id="path1410" /><path
           d="m 2684.6372,278.39445 a 84,84 0 0 0 -82.2986,23.50709"
           style="fill:none;stroke:#000000"
           id="path1412" /><path
           d="m 2730.5154,774.76832 a 9.288,9.288 0 0 0 -18.576,0 9.288,9.288 0 0 0 18.576,0 z"
           style="fill:none;stroke:#000000"
           id="path1414" /><path
           d="m 2442.5197,773.18797 a 9.288,9.288 0 0 0 -18.576,0 9.288,9.288 0 0 0 18.576,0 z"
           style="fill:none;stroke:#000000"
           id="path1416" /><path
           style="fill:none;stroke:#000000"
           d="M 475.129,-48.2355 896.566,211.812"
           id="path1418" /><path
           d="M 890.54771,255.31545 A 24,24 0 0 0 896.566,211.81182"
           style="fill:none;stroke:#000000"
           id="path1420" /><path
           style="fill:none;stroke:#000000"
           d="M 890.548,255.315 558.067,350.176"
           id="path1422" /><path
           d="m 528.20239,332.93189 a 24,24 0 0 0 29.86458,17.24404"
           style="fill:none;stroke:#000000"
           id="path1424" /><path
           style="fill:none;stroke:#000000"
           d="M 528.202,332.932 439.247,-21.9759"
           id="path1426" /><path
           d="m 475.12936,-48.23548 a 24,24 0 0 0 -35.88287,26.259594"
           style="fill:none;stroke:#000000"
           id="path1428" /><path
           style="fill:none;stroke:#000000"
           d="M 311.686,-421.281 253.611,-651.486"
           id="path1430" /><path
           d="m 270.2441,-680.42056 a 24,24 0 0 0 -16.63324,28.93458"
           style="fill:none;stroke:#000000"
           id="path1432" /><path
           style="fill:none;stroke:#000000"
           d="m 270.244,-680.421 88.627,-25.506"
           id="path1434" /><path
           d="m 389.339,-680.01588 a 24,24 0 0 0 -30.46818,-25.91101"
           style="fill:none;stroke:#000000"
           id="path1436" /><path
           style="fill:none;stroke:#000000"
           d="m 389.339,-680.016 -30.551,255.712"
           id="path1438" /><path
           d="m 311.68635,-421.28076 a 24,24 0 0 0 47.10142,-3.02356"
           style="fill:none;stroke:#000000"
           id="path1440" /><path
           style="fill:none;stroke:#000000"
           d="m 373.521,-261.621 36.9,121.845"
           id="path1442" /><path
           d="m 372.69078,-271.66951 a 24,24 0 0 0 0.8302,10.04843"
           style="fill:none;stroke:#000000"
           id="path1444" /><path
           style="fill:none;stroke:#000000"
           d="M 372.691,-271.669 418.343,-623.05"
           id="path1446" /><path
           d="m 462.91413,-631.98111 a 24,24 0 0 0 -44.57093,8.93144"
           style="fill:none;stroke:#000000"
           id="path1448" /><path
           style="fill:none;stroke:#000000"
           d="M 462.914,-631.981 894.492,113.575"
           id="path1450" /><path
           d="m 861.09678,146.01011 a 24,24 0 0 0 33.39495,-32.43526"
           style="fill:none;stroke:#000000"
           id="path1452" /><path
           style="fill:none;stroke:#000000"
           d="M 420.767,-126.321 861.097,146.01"
           id="path1454" /><path
           d="m 410.42108,-139.77605 a 24,24 0 0 0 10.34578,13.45537"
           style="fill:none;stroke:#000000"
           id="path1456" /><path
           d="m 479.53718,385.57069 a 6,6 0 0 0 -12,0 6,6 0 0 0 12,0 z"
           style="fill:none;stroke:#000000"
           id="path1458" /><path
           d="m 452.7143,274.77114 a 6,6 0 0 0 -12,0 6,6 0 0 0 12,0 z"
           style="fill:none;stroke:#000000"
           id="path1460" /><path
           d="m 425.89142,163.97168 a 6,6 0 0 0 -12,0 6,6 0 0 0 12,0 z"
           style="fill:none;stroke:#000000"
           id="path1462" /><path
           d="m 399.06854,53.172133 a 6,6 0 0 0 -12,0 6,6 0 0 0 12,0 z"
           style="fill:none;stroke:#000000"
           id="path1464" /><path
           d="m 372.24566,-57.627419 a 6,6 0 0 0 -12,0 6,6 0 0 0 12,0 z"
           style="fill:none;stroke:#000000"
           id="path1466" /><path
           d="m 345.42278,-168.42687 a 6,6 0 0 0 -12,0 6,6 0 0 0 12,0 z"
           style="fill:none;stroke:#000000"
           id="path1468" /><path
           d="m 318.5999,-279.22643 a 6,6 0 0 0 -12,0 6,6 0 0 0 12,0 z"
           style="fill:none;stroke:#000000"
           id="path1470" /><path
           d="m 291.77702,-390.02598 a 6,6 0 0 0 -12,0 6,6 0 0 0 12,0 z"
           style="fill:none;stroke:#000000"
           id="path1472" /><path
           d="m 264.95414,-500.82544 a 6,6 0 0 0 -12,0 6,6 0 0 0 12,0 z"
           style="fill:none;stroke:#000000"
           id="path1474" /><path
           d="m 238.13126,-611.62499 a 6,6 0 0 0 -12,0 6,6 0 0 0 12,0 z"
           style="fill:none;stroke:#000000"
           id="path1476" /><path
           d="m 2380.7501,1007.8994 c -2.3777,1.781 -4.2317,3.4841 -5.5623,5.1093"
           style="fill:none;stroke:#000000"
           id="path1478" /><path
           d="m 2364.7829,118.56148 c 1.9048,0.21742 3.7834,0.61477 5.6357,1.19203"
           style="fill:none;stroke:#000000"
           id="path1480" /><path
           d="m 2364.783,118.56143 a 24,24 0 0 0 -1.2268,-0.067"
           style="fill:none;stroke:#000000"
           id="path1482" /><path
           d="m 1307.2156,225.08925 c 15.6357,-1.96877 31.3554,-4.48434 46.8541,-7.97496 1.9989,-0.45019 3.991,-0.91657 5.9726,-1.3998"
           style="fill:none;stroke:#000000"
           id="path1484" /><path
           d="M 935.71397,36.767816 A 384,384 0 0 0 1307.2156,225.08924"
           style="fill:none;stroke:#000000"
           id="path1486" /><path
           d="m 477.79929,-747.54853 c 0.65007,1.0966 1.30011,2.19313 1.95018,3.28973"
           style="fill:none;stroke:#000000"
           id="path1488" /><path
           style="fill:none;stroke:#000000"
           d="m 291.527,-1066.62 186.272,319.071"
           id="path1490" /><path
           style="fill:none;stroke:#000000"
           d="m 273.42,-1122.62 18.107,56"
           id="path1492" /><path
           d="M 273.42052,-1122.6176 A 24,24 0 0 0 244.9403,-1138.561"
           style="fill:none;stroke:#000000"
           id="path1494" /><path
           style="fill:none;stroke:#000000"
           d="M 80.9828,-1098.89 244.94,-1138.56"
           id="path1496" /><path
           d="m 80.982761,-1098.8898 a 24,24 0 0 0 -17.682032,28.9738"
           style="fill:none;stroke:#000000"
           id="path1498" /><path
           style="fill:none;stroke:#000000"
           d="m 63.3008,-1069.92 96.8572,400.101"
           id="path1500" /><path
           d="m 161.01887,-666.26262 c -0.2869,-1.18544 -0.5738,-2.37088 -0.8607,-3.55633"
           style="fill:none;stroke:#000000"
           id="path1502" /><path
           d="m 430.52572,447.01456 c -0.2868,-1.18549 -0.57359,-2.37099 -0.86038,-3.55648"
           style="fill:none;stroke:#000000"
           id="path1504" /><path
           d="m 2116.4484,572.39956 a 10.608,10.608 0 0 0 -21.216,0 10.608,10.608 0 0 0 21.216,0 z"
           style="fill:none;stroke:#000000"
           id="path1506" /><path
           d="m 1542.1801,565.42026 a 10.608,10.608 0 0 0 -21.216,0 10.608,10.608 0 0 0 21.216,0 z"
           style="fill:none;stroke:#000000"
           id="path1508" /><path
           d="m 1238.233,651.65697 a 10.608,10.608 0 0 0 -21.216,0 10.608,10.608 0 0 0 21.216,0 z"
           style="fill:none;stroke:#000000"
           id="path1510" /><path
           d="m 985.53667,668.50103 a 10.608,10.608 0 0 0 -21.216,0 10.608,10.608 0 0 0 21.216,0 z"
           style="fill:none;stroke:#000000"
           id="path1512" /><path
           d="m 746.15453,654.88372 a 6.192,6.192 0 0 0 -12.384,0 6.192,6.192 0 0 0 12.384,0 z"
           style="fill:none;stroke:#000000"
           id="path1514" /><path
           d="m 761.24122,717.37194 a 6.192,6.192 0 0 0 -12.384,0 6.192,6.192 0 0 0 12.384,0 z"
           style="fill:none;stroke:#000000"
           id="path1516" /><path
           d="m 2682.3613,287.07714 a 9.0240013,9.0240013 0 0 0 -4.5759,17.45828"
           style="fill:none;stroke:#000000"
           id="path1518" /><path
           d="M 2621.9635,320.47991 A 9.0240004,9.0240004 0 1 0 2608.857,308.07229"
           style="fill:none;stroke:#000000"
           id="path1520" /><path
           d="m 760.71322,717.37194 a 5.664,5.664 0 0 0 -11.328,0 5.664,5.664 0 0 0 11.328,0 z"
           style="fill:none;stroke:#000000"
           id="path1522" /><path
           d="m 760.16122,717.37194 a 5.112,5.112 0 0 0 -10.224,0 5.112,5.112 0 0 0 10.224,0 z"
           style="fill:none;stroke:#000000"
           id="path1524" /><path
           d="m 745.62653,654.88372 a 5.664,5.664 0 0 0 -11.328,0 5.664,5.664 0 0 0 11.328,0 z"
           style="fill:none;stroke:#000000"
           id="path1526" /><path
           d="m 745.07453,654.88372 a 5.112,5.112 0 0 0 -10.224,0 5.112,5.112 0 0 0 10.224,0 z"
           style="fill:none;stroke:#000000"
           id="path1528" /></g><g
         inkscape:label="Bend Center"
         id="g1538" /></g></g></svg>
