<?xml version="1.0" encoding="utf-8"?>
<!-- Generator: Fusion 360, Shaper Origin Export Add-In, Version 1.6.10  -->
<svg xmlns="http://www.w3.org/2000/svg" xmlns:xlink="http://www.w3.org/1999/xlink" xmlns:shaper="http://www.shapertools.com/namespaces/shaper" shaper:fusionaddin="version:1.6.10" width="44.6967776cm" height="7.8460844cm" version="1.1" x="0cm" y="0cm" viewBox="0 0 44.6967776 7.8460844" enable-background="new 0 0 44.6967776 7.8460844" xml:space="preserve"><path d="M21.660124,-6.19125 L22.3483888,-3.2297797 21.3740177,-1.8183485 18.9781482,-1.3794442 18.9781482,-1.3794442 18.6559152,-1.3205864 18.3349434,-1.262305 18.0152328,-1.2046001 17.6967834,-1.1474716 17.3795952,-1.0909196 17.0636681,-1.034944 16.7490023,-0.9795449 16.4355976,-0.9247222 16.1234541,-0.8704759 15.8125718,-0.8168061 15.5029507,-0.7637128 15.1945907,-0.7111959 14.887492,-0.6592554 14.5816544,-0.6078914 14.2770781,-0.5571038 13.9737629,-0.5068927 13.6717089,-0.457258 13.3709161,-0.4081998 13.0713844,-0.359718 12.773114,-0.3118127 12.4761047,-0.2644838 12.1803566,-0.2177314 11.8858697,-0.1715554 11.592644,-0.1259559 11.3006795,-0.0809328 11.0099762,-0.0364861 10.720534,0.0073841 10.4323531,0.0506778 10.1454333,0.0933951 9.8597747,0.135536 9.5753773,0.1771004 9.2922411,0.2180883 9.0103661,0.2584998 8.7297522,0.2983349 8.4503996,0.3375935 8.1723081,0.3762757 7.8954778,0.4143814 7.6199087,0.4519107 7.3456008,0.4888635 7.0725541,0.5252399 6.8007685,0.5610399 6.5302442,0.5962633 6.260981,0.6309104 5.992979,0.664981 5.7262382,0.6984751 5.4607586,0.7313928 5.1965401,0.7637341 4.9335829,0.7954989 4.6718868,0.8266872 4.411452,0.8572991 4.1522783,0.8873346 3.8943658,0.9167936 3.6377145,0.9456762 3.3823243,0.9739823 3.1281954,1.001712 2.8753276,1.0288652 2.6237211,1.055442 2.3733757,1.0814423 2.1242915,1.1068662 1.8764685,1.1317136 1.6299066,1.1559846 1.384606,1.1796792 1.1405665,1.2027973 0.8977883,1.2253389 0.6562712,1.2473041 0.4160153,1.2686929 0.1770206,1.2895052 -0.060713,1.309741 -0.2971853,1.3294005 -0.5323965,1.3484834 -0.7663464,1.3669899 -0.9990352,1.38492 -1.2304628,1.4022736 -1.4606292,1.4190508 -1.6895344,1.4352515 -1.9171785,1.4508758 -2.1435613,1.4659237 -2.368683,1.480395 -2.5925435,1.49429 -2.8151428,1.5076085 -3.0364809,1.5203505 -3.2565578,1.5325161 -3.4753736,1.5441053 -3.6929281,1.555118 -3.9092215,1.5655542 -4.1242537,1.575414 -4.3380247,1.5846974 -4.5505345,1.5934043 -4.7617831,1.6015348 -4.9717705,1.6090888 -5.1804968,1.6160664 -5.3879619,1.6224675 -5.5941657,1.6282922 -5.7991084,1.6335404 -6.00279,1.6382122 -6.2052103,1.6423075 -6.4063694,1.6458264 -6.6062674,1.6487689 -6.8049041,1.6511349 -7.0022797,1.6529244 -7.1983941,1.6541375 -7.3932473,1.6547742 -7.5868393,1.6548344 -7.7791702,1.6543181 -7.9702398,1.6532254 -8.1600483,1.6515563 -8.3485956,1.6493107 -8.5358817,1.6464887 -8.7219066,1.6430902 -8.9066703,1.6391153 -9.0901728,1.6345639 -9.2724142,1.6294361 -9.4533944,1.6237318 -9.6331133,1.6174511 -9.8115711,1.610594 -9.9887677,1.6031604 -10.1647032,1.5951503 -10.3393774,1.5865638 -10.5127905,1.5774008 -10.6849423,1.5676614 -10.855833,1.5573456 -11.0254625,1.5464533 -11.1938308,1.5349846 -11.3609379,1.5229394 -11.5267839,1.5103178 -11.6913686,1.4971197 -11.8546922,1.4833451 -12.0167545,1.4689942 -12.1775557,1.4540667 -12.3370957,1.4385629 -12.4953746,1.4224826 -12.6523922,1.4058258 -12.8081487,1.3885926 -12.9626439,1.3707829 -13.115878,1.3523968 -13.2678509,1.3334343 -13.4185626,1.3138953 -13.5680131,1.2937798 -13.7162024,1.2730879 -13.8631306,1.2518196 -14.0087976,1.2299748 -14.1532033,1.2075536 -14.2963479,1.1845559 -14.4382313,1.1609817 -14.5788535,1.1368312 -14.7182146,1.1121041 -14.8563144,1.0868007 -14.9931531,1.0609208 -15.1287306,1.0344644 -15.2630469,1.0074316 -15.396102,0.9798223 -15.5278959,0.9516366 -15.6584286,0.9228744 -15.7877002,0.8935358 -15.9157105,0.8636208 -16.0424597,0.8331293 -16.1679477,0.8020613 -16.2921745,0.770417 -16.4151401,0.7381961 -16.5368445,0.7053988 -16.6572878,0.6720251 -16.7764698,0.6380749 -16.8943907,0.6035483 -17.0110504,0.5684452 -17.1264489,0.5327657 -17.2405862,0.4965097 -17.3534624,0.4596773 -17.4650773,0.4222684 -17.5754311,0.3842831 -17.6845236,0.3457214 -17.792355,0.3065832 -17.8989252,0.2668685 -18.0042342,0.2265774 -18.1082821,0.1857099 -18.2110687,0.1442659 -18.3125942,0.1022454 -18.4128584,0.0596485 -18.5118615,0.0164752 -18.6096034,-0.0272746 -18.7060841,-0.0716008 -18.8013037,-0.1165035 -18.895262,-0.1619826 -18.9879592,-0.2080382 -19.0793952,-0.2546702 -19.1695699,-0.3018787 -19.2584835,-0.3496636 -19.346136,-0.398025 -19.4325272,-0.4469628 -19.5176572,-0.496477 -19.6015261,-0.5465677 -19.6841338,-0.5972349 -19.7654802,-0.6484785 -19.8455655,-0.7002985 -19.9243897,-0.752695 -20.0019526,-0.805668 -20.0782543,-0.8592174 -20.1532949,-0.9133432 -20.2270742,-0.9680455 -20.2995924,-1.0233242 -20.3708494,-1.0791794 -20.4408452,-1.135611 -20.5095799,-1.1926191 -20.5770533,-1.2502036 -20.6432656,-1.3083646 -20.7082166,-1.367102 -20.7719065,-1.4264158 -20.8343352,-1.4863061 -20.8955027,-1.5467729 -20.9554091,-1.6078161 -21.0140542,-1.6694358 -21.0714382,-1.7316318 -21.1275609,-1.7944044 -21.1824225,-1.8577534 -21.2360229,-1.9216788 -21.2883621,-1.9861807 -21.3394401,-2.051259 -21.389257,-2.1169138 -21.4378126,-2.183145 -21.4851071,-2.2499527 -21.5311404,-2.3173368 -21.5759125,-2.3852974 -21.6194234,-2.4538344 -21.6616731,-2.5229479 -21.7026617,-2.5926378 -21.742389,-2.6629042 -21.7808552,-2.733747 -21.8180602,-2.8051662 -21.854004,-2.8771619 -21.8886866,-2.9497341 -21.922108,-3.0228827 -21.9542682,-3.0966077 -21.9851673,-3.1709092 -22.0148052,-3.2457871 -22.0431818,-3.3212415 -22.0702973,-3.3972723 -22.0961516,-3.4738796 -22.1207448,-3.5510633 -22.1440767,-3.6288235 -22.1661475,-3.7071601 -22.186957,-3.7860732 -22.2065054,-3.8655627 -22.2247926,-3.9456287 -22.2418186,-4.0262711 -22.2575834,-4.1074899 -22.2720871,-4.1892852 -22.2853295,-4.271657 -22.2973108,-4.3546052 -22.3080309,-4.4381298 -22.3174897,-4.5222309 -22.3256875,-4.6069085 -22.332624,-4.6921624 -22.3382993,-4.7779929 -22.3427135,-4.8643998 -22.3458664,-4.9513831 -22.3477582,-5.0389429 -22.3483888,-5.1270791 -22.3483888,-6.19125 21.660124,-6.19125z" transform="matrix(1,0,0,-1,22.3483888,1.6548344)" fill="rgb(0,0,0)" stroke-linecap="round" stroke-linejoin="round" /></svg>