<?xml version="1.0" encoding="utf-8"?>
<!-- Generator: Fusion 360, Shaper Origin Export Add-In, Version 1.6.10  -->
<svg xmlns="http://www.w3.org/2000/svg" xmlns:xlink="http://www.w3.org/1999/xlink" xmlns:shaper="http://www.shapertools.com/namespaces/shaper" shaper:fusionaddin="version:1.6.10" width="29.120011cm" height="7.3443651cm" version="1.1" x="0cm" y="0cm" viewBox="0 0 29.120011 7.3443651" enable-background="new 0 0 29.120011 7.3443651" xml:space="preserve"><path d="M14.0837555,1.5034275 A0.47625,0.47625 180 0,0 14.3695055,1.9399178 A0.3175,0.3175 293.5781785 0,1 14.5600055,2.2309114 L14.5600055,2.4021825 A1.27,1.27 0 0,1 13.2900055,3.6721825 L12,3.6721825 12,2.7196825 A0.3175,0.3175 90 1,0 11.6825,2.4021825 L-11.6825,2.4021825 A0.3175,0.3175 0 1,0 -12,2.7196825 L-12,3.6721825 -13.2900055,3.6721825 A1.27,1.27 90 0,1 -14.5600055,2.4021825 L-14.5600055,2.2309114 A0.3175,0.3175 180 0,1 -14.3695055,1.9399178 A0.47625,0.47625 66.4218215 0,0 -14.0837555,1.5034275 L-14.0837555,-0.0840725 A0.47625,0.47625 0 0,0 -14.3695055,-0.5205628 A0.3175,0.3175 113.5781785 0,1 -14.5600055,-0.8115564 L-14.5600055,-2.4021825 A1.27,1.27 180 0,1 -13.2900055,-3.6721825 L-12.2830311,-3.6721825 A0.3175,0.3175 270 0,1 -11.9836892,-3.4605159 A0.635,0.635 160.5287794 0,0 -11.3850055,-3.0371825 L-2.54,-3.0371825 A0.635,0.635 90 0,0 -1.9413163,-3.4605159 A0.3175,0.3175 199.4712206 0,1 -1.6419744,-3.6721825 L1.6419744,-3.6721825 A0.3175,0.3175 270 0,1 1.9413163,-3.4605159 A0.635,0.635 160.5287794 0,0 2.54,-3.0371825 L11.3850055,-3.0371825 A0.635,0.635 90 0,0 11.9836892,-3.4605159 A0.3175,0.3175 199.4712206 0,1 12.2830311,-3.6721825 L13.2900055,-3.6721825 A1.27,1.27 270 0,1 14.5600055,-2.4021825 L14.5600055,-0.8115564 A0.3175,0.3175 0 0,1 14.3695055,-0.5205628 A0.47625,0.47625 246.4218215 0,0 14.0837555,-0.0840725 L14.0837555,1.5034275z" transform="matrix(1,0,0,-1,14.5600055,3.6721825)" fill="rgb(0,0,0)" stroke-linecap="round" stroke-linejoin="round" /><path d="M-13.7265045,-2.4021825 a0.436499,0.436499 0 1,1 0.872998,0 a0.436499,0.436499 0 1,1 -0.872998,0z" transform="matrix(1,0,0,-1,14.5600055,3.6721825)" fill="rgb(255,255,255)" stroke="rgb(0,0,0)" stroke-width="0.0010cm" stroke-linecap="round" stroke-linejoin="round" /><path d="M-13.7265045,2.4021825 a0.436499,0.436499 0 1,1 0.872998,0 a0.436499,0.436499 0 1,1 -0.872998,0z" transform="matrix(1,0,0,-1,14.5600055,3.6721825)" fill="rgb(255,255,255)" stroke="rgb(0,0,0)" stroke-width="0.0010cm" stroke-linecap="round" stroke-linejoin="round" /><path d="M12.8535065,-2.4021825 a0.436499,0.436499 0 1,1 0.872998,0 a0.436499,0.436499 0 1,1 -0.872998,0z" transform="matrix(1,0,0,-1,14.5600055,3.6721825)" fill="rgb(255,255,255)" stroke="rgb(0,0,0)" stroke-width="0.0010cm" stroke-linecap="round" stroke-linejoin="round" /><path d="M12.8535065,2.4021825 a0.436499,0.436499 0 1,1 0.872998,0 a0.436499,0.436499 0 1,1 -0.872998,0z" transform="matrix(1,0,0,-1,14.5600055,3.6721825)" fill="rgb(255,255,255)" stroke="rgb(0,0,0)" stroke-width="0.0010cm" stroke-linecap="round" stroke-linejoin="round" /><path d="M-0.436499,-2.0846825 a0.436499,0.436499 0 1,1 0.872998,0 a0.436499,0.436499 0 1,1 -0.872998,0z" transform="matrix(1,0,0,-1,14.5600055,3.6721825)" fill="rgb(255,255,255)" stroke="rgb(0,0,0)" stroke-width="0.0010cm" stroke-linecap="round" stroke-linejoin="round" /><path d="M6.6067595,1.1321825 a0.245745,0.245745 0 1,1 0.49149,0 a0.245745,0.245745 0 1,1 -0.49149,0z" transform="matrix(1,0,0,-1,14.5600055,3.6721825)" fill="rgb(255,255,255)" stroke="rgb(0,0,0)" stroke-width="0.0010cm" stroke-linecap="round" stroke-linejoin="round" /><path d="M-9.3782505,-0.1378175 a0.245745,0.245745 0 1,1 0.49149,0 a0.245745,0.245745 0 1,1 -0.49149,0z" transform="matrix(1,0,0,-1,14.5600055,3.6721825)" fill="rgb(255,255,255)" stroke="rgb(0,0,0)" stroke-width="0.0010cm" stroke-linecap="round" stroke-linejoin="round" /><path d="M9.6717495,-0.1378175 a0.245745,0.245745 0 1,1 0.49149,0 a0.245745,0.245745 0 1,1 -0.49149,0z" transform="matrix(1,0,0,-1,14.5600055,3.6721825)" fill="rgb(255,255,255)" stroke="rgb(0,0,0)" stroke-width="0.0010cm" stroke-linecap="round" stroke-linejoin="round" /><path d="M-5.0432605,1.1321825 a0.245745,0.245745 0 1,1 0.49149,0 a0.245745,0.245745 0 1,1 -0.49149,0z" transform="matrix(1,0,0,-1,14.5600055,3.6721825)" fill="rgb(255,255,255)" stroke="rgb(0,0,0)" stroke-width="0.0010cm" stroke-linecap="round" stroke-linejoin="round" /></svg>