<?xml version="1.0" encoding="utf-8"?>
<!-- Generator: Fusion 360, Shaper Origin Export Add-In, Version 1.6.10  -->
<svg xmlns="http://www.w3.org/2000/svg" xmlns:xlink="http://www.w3.org/1999/xlink" xmlns:shaper="http://www.shapertools.com/namespaces/shaper" shaper:fusionaddin="version:1.6.10" width="24cm" height="4.4741741cm" version="1.1" x="0cm" y="0cm" viewBox="0 0 24 4.4741741" enable-background="new 0 0 24 4.4741741" xml:space="preserve"><path d="M-10.2033831,-2.2370871 L-10.2033831,-2.2370871 -10.2197349,-2.2314179 -10.2363526,-2.2250777 -10.2532686,-2.2180441 -10.2705171,-2.2102918 -9.858954,-2.2102918 -9.858954,-2.2102918 -9.8762025,-2.2180441 -9.8931185,-2.2250777 -9.9097362,-2.2314179 -9.926088,-2.2370871 12,-2.2370871 12,2.2370871 -12,2.2370871 -12,-2.2370871 -10.2033831,-2.2370871z" transform="matrix(1,0,0,-1,12,2.2370871)" fill="rgb(0,0,0)" stroke-linecap="round" stroke-linejoin="round" /><path d="M-10.25375,-1.6020871 a0.15875,0.15875 0 1,1 0.3175,0 a0.15875,0.15875 0 1,1 -0.3175,0z" transform="matrix(1,0,0,-1,12,2.2370871)" fill="rgb(255,255,255)" stroke="rgb(0,0,0)" stroke-width="0.0010cm" stroke-linecap="round" stroke-linejoin="round" /><path d="M-0.15875,-1.6020871 a0.15875,0.15875 0 1,1 0.3175,0 a0.15875,0.15875 0 1,1 -0.3175,0z" transform="matrix(1,0,0,-1,12,2.2370871)" fill="rgb(255,255,255)" stroke="rgb(0,0,0)" stroke-width="0.0010cm" stroke-linecap="round" stroke-linejoin="round" /><path d="M9.93625,-1.6020871 a0.15875,0.15875 0 1,1 0.3175,0 a0.15875,0.15875 0 1,1 -0.3175,0z" transform="matrix(1,0,0,-1,12,2.2370871)" fill="rgb(255,255,255)" stroke="rgb(0,0,0)" stroke-width="0.0010cm" stroke-linecap="round" stroke-linejoin="round" /><path d="M-8.2502645,0.1314629 a0.436499,0.436499 0 1,1 0.872998,0 a0.436499,0.436499 0 1,1 -0.872998,0z" transform="matrix(1,0,0,-1,12,2.2370871)" fill="rgb(255,255,255)" stroke="rgb(0,0,0)" stroke-width="0.0010cm" stroke-linecap="round" stroke-linejoin="round" /><path d="M9.4322555,0.1314629 a0.436499,0.436499 0 1,1 0.872998,0 a0.436499,0.436499 0 1,1 -0.872998,0z" transform="matrix(1,0,0,-1,12,2.2370871)" fill="rgb(255,255,255)" stroke="rgb(0,0,0)" stroke-width="0.0010cm" stroke-linecap="round" stroke-linejoin="round" /></svg>