<?xml version="1.0" encoding="utf-8"?>
<!-- Generator: Fusion 360, Shaper Origin Export Add-In, Version 1.6.10  -->
<svg xmlns="http://www.w3.org/2000/svg" xmlns:xlink="http://www.w3.org/1999/xlink" xmlns:shaper="http://www.shapertools.com/namespaces/shaper" shaper:fusionaddin="version:1.6.10" width="18.215cm" height="7.9793651cm" version="1.1" x="0cm" y="0cm" viewBox="0 0 18.215 7.9793651" enable-background="new 0 0 18.215 7.9793651" xml:space="preserve"><path d="M-9.1075,7.2967401 L-9.1075,-0.682625 9.1075,-0.682625 9.1075,7.2967401 -9.1075,7.2967401z" transform="matrix(1,0,0,-1,9.1075,7.2967401)" fill="rgb(0,0,0)" stroke-linecap="round" stroke-linejoin="round" /><path d="M-8.31375,3.3070575 a0.15875,0.15875 0 1,1 0.3175,0 a0.15875,0.15875 0 1,1 -0.3175,0z" transform="matrix(1,0,0,-1,9.1075,7.2967401)" fill="rgb(255,255,255)" stroke="rgb(0,0,0)" stroke-width="0.0010cm" stroke-linecap="round" stroke-linejoin="round" /><path d="M-3.07975,3.762375 a3.07975,3.07975 0 1,1 6.1595,0 a3.07975,3.07975 0 1,1 -6.1595,0z" transform="matrix(1,0,0,-1,9.1075,7.2967401)" fill="rgb(255,255,255)" stroke="rgb(0,0,0)" stroke-width="0.0010cm" stroke-linecap="round" stroke-linejoin="round" /><path d="M7.99625,3.3070575 a0.15875,0.15875 0 1,1 0.3175,0 a0.15875,0.15875 0 1,1 -0.3175,0z" transform="matrix(1,0,0,-1,9.1075,7.2967401)" fill="rgb(255,255,255)" stroke="rgb(0,0,0)" stroke-width="0.0010cm" stroke-linecap="round" stroke-linejoin="round" /></svg>