<?xml version="1.0" encoding="utf-8"?>
<!-- Generator: Fusion 360, Shaper Origin Export Add-In, Version 1.6.10  -->
<svg xmlns="http://www.w3.org/2000/svg" xmlns:xlink="http://www.w3.org/1999/xlink" xmlns:shaper="http://www.shapertools.com/namespaces/shaper" shaper:fusionaddin="version:1.6.10" width="50.2187099cm" height="14.6049306cm" version="1.1" x="0cm" y="0cm" viewBox="0 0 50.2187099 14.6049306" enable-background="new 0 0 50.2187099 14.6049306" xml:space="preserve"><path d="M-25.1093549,-5.3975347 L-13.9769187,-5.3975347 16.5019715,-7.3024653 25.1093549,-7.3024653 25.1093549,7.3024653 -25.1093549,7.3024653 -25.1093549,-5.3975347z" transform="matrix(1,0,0,-1,25.1093549,7.3024653)" fill="rgb(0,0,0)" stroke-linecap="round" stroke-linejoin="round" /><path d="M23.0456049,-6.3499653 a0.15875,0.15875 0 1,1 0.3175,0 a0.15875,0.15875 0 1,1 -0.3175,0z" transform="matrix(1,0,0,-1,25.1093549,7.3024653)" fill="rgb(255,255,255)" stroke="rgb(0,0,0)" stroke-width="0.0010cm" stroke-linecap="round" stroke-linejoin="round" /><path d="M15.5654078,6.6674653 a0.15875,0.15875 0 1,1 0.3175,0 a0.15875,0.15875 0 1,1 -0.3175,0z" transform="matrix(1,0,0,-1,25.1093549,7.3024653)" fill="rgb(255,255,255)" stroke="rgb(0,0,0)" stroke-width="0.0010cm" stroke-linecap="round" stroke-linejoin="round" /><path d="M15.5654078,-4.7625347 a0.15875,0.15875 0 1,1 0.3175,0 a0.15875,0.15875 0 1,1 -0.3175,0z" transform="matrix(1,0,0,-1,25.1093549,7.3024653)" fill="rgb(255,255,255)" stroke="rgb(0,0,0)" stroke-width="0.0010cm" stroke-linecap="round" stroke-linejoin="round" /><path d="M-3.8988486,-4.7625347 a0.15875,0.15875 0 1,1 0.3175,0 a0.15875,0.15875 0 1,1 -0.3175,0z" transform="matrix(1,0,0,-1,25.1093549,7.3024653)" fill="rgb(255,255,255)" stroke="rgb(0,0,0)" stroke-width="0.0010cm" stroke-linecap="round" stroke-linejoin="round" /><path d="M-23.9981049,-4.7625347 a0.15875,0.15875 0 1,1 0.3175,0 a0.15875,0.15875 0 1,1 -0.3175,0z" transform="matrix(1,0,0,-1,25.1093549,7.3024653)" fill="rgb(255,255,255)" stroke="rgb(0,0,0)" stroke-width="0.0010cm" stroke-linecap="round" stroke-linejoin="round" /><path d="M-12.3163879,1.6513113 a0.515874,0.515874 0 1,1 1.031748,0 a0.515874,0.515874 0 1,1 -1.031748,0z" transform="matrix(1,0,0,-1,25.1093549,7.3024653)" fill="rgb(255,255,255)" stroke="rgb(0,0,0)" stroke-width="0.0010cm" stroke-linecap="round" stroke-linejoin="round" /><path d="M10.0483121,1.6513113 a0.515874,0.515874 0 1,1 1.031748,0 a0.515874,0.515874 0 1,1 -1.031748,0z" transform="matrix(1,0,0,-1,25.1093549,7.3024653)" fill="rgb(255,255,255)" stroke="rgb(0,0,0)" stroke-width="0.0010cm" stroke-linecap="round" stroke-linejoin="round" /><path d="M6.2111191,5.0800347 a0.15875,0.15875 0 1,1 0.3175,0 a0.15875,0.15875 0 1,1 -0.3175,0z" transform="matrix(1,0,0,-1,25.1093549,7.3024653)" fill="rgb(255,255,255)" stroke="rgb(0,0,0)" stroke-width="0.0010cm" stroke-linecap="round" stroke-linejoin="round" /><path d="M-23.9981049,6.6674653 a0.15875,0.15875 0 1,1 0.3175,0 a0.15875,0.15875 0 1,1 -0.3175,0z" transform="matrix(1,0,0,-1,25.1093549,7.3024653)" fill="rgb(255,255,255)" stroke="rgb(0,0,0)" stroke-width="0.0010cm" stroke-linecap="round" stroke-linejoin="round" /><path d="M-3.8988486,6.6674653 a0.15875,0.15875 0 1,1 0.3175,0 a0.15875,0.15875 0 1,1 -0.3175,0z" transform="matrix(1,0,0,-1,25.1093549,7.3024653)" fill="rgb(255,255,255)" stroke="rgb(0,0,0)" stroke-width="0.0010cm" stroke-linecap="round" stroke-linejoin="round" /><path d="M14.628362,5.0800347 a0.15875,0.15875 0 1,1 0.3175,0 a0.15875,0.15875 0 1,1 -0.3175,0z" transform="matrix(1,0,0,-1,25.1093549,7.3024653)" fill="rgb(255,255,255)" stroke="rgb(0,0,0)" stroke-width="0.0010cm" stroke-linecap="round" stroke-linejoin="round" /><path d="M17.6143313,-6.3499653 a0.15875,0.15875 0 1,1 0.3175,0 a0.15875,0.15875 0 1,1 -0.3175,0z" transform="matrix(1,0,0,-1,25.1093549,7.3024653)" fill="rgb(255,255,255)" stroke="rgb(0,0,0)" stroke-width="0.0010cm" stroke-linecap="round" stroke-linejoin="round" /><path d="M23.0456049,5.0800347 a0.15875,0.15875 0 1,1 0.3175,0 a0.15875,0.15875 0 1,1 -0.3175,0z" transform="matrix(1,0,0,-1,25.1093549,7.3024653)" fill="rgb(255,255,255)" stroke="rgb(0,0,0)" stroke-width="0.0010cm" stroke-linecap="round" stroke-linejoin="round" /></svg>