<?xml version="1.0" encoding="utf-8"?>
<!-- Generator: Fusion 360, Shaper Origin Export Add-In, Version 1.6.10  -->
<svg xmlns="http://www.w3.org/2000/svg" xmlns:xlink="http://www.w3.org/1999/xlink" xmlns:shaper="http://www.shapertools.com/namespaces/shaper" shaper:fusionaddin="version:1.6.10" width="19.685cm" height="18.215cm" version="1.1" x="0cm" y="0cm" viewBox="0 0 19.685 18.215" enable-background="new 0 0 19.685 18.215" xml:space="preserve"><path d="M8.5725,9.1075 L-8.5725,9.1075 A1.27,1.27 90 0,1 -9.8425,7.8375 L-9.8425,-7.8375 A1.27,1.27 180 0,1 -8.5725,-9.1075 L8.5725,-9.1075 A1.27,1.27 270 0,1 9.8425,-7.8375 L9.8425,7.8375 A1.27,1.27 0 0,1 8.5725,9.1075z" transform="matrix(1,0,0,-1,9.8425,9.1075)" fill="rgb(0,0,0)" stroke-linecap="round" stroke-linejoin="round" /><path d="M8.3633075,7.8375 a0.15875,0.15875 0 1,1 0.3175,0 a0.15875,0.15875 0 1,1 -0.3175,0z" transform="matrix(1,0,0,-1,9.8425,9.1075)" fill="rgb(255,255,255)" stroke="rgb(0,0,0)" stroke-width="0.0010cm" stroke-linecap="round" stroke-linejoin="round" /><path d="M-8.7816925,-7.8375 a0.15875,0.15875 0 1,1 0.3175,0 a0.15875,0.15875 0 1,1 -0.3175,0z" transform="matrix(1,0,0,-1,9.8425,9.1075)" fill="rgb(255,255,255)" stroke="rgb(0,0,0)" stroke-width="0.0010cm" stroke-linecap="round" stroke-linejoin="round" /><path d="M-8.7816925,7.8375 a0.15875,0.15875 0 1,1 0.3175,0 a0.15875,0.15875 0 1,1 -0.3175,0z" transform="matrix(1,0,0,-1,9.8425,9.1075)" fill="rgb(255,255,255)" stroke="rgb(0,0,0)" stroke-width="0.0010cm" stroke-linecap="round" stroke-linejoin="round" /><path d="M8.3633075,-7.8375 a0.15875,0.15875 0 1,1 0.3175,0 a0.15875,0.15875 0 1,1 -0.3175,0z" transform="matrix(1,0,0,-1,9.8425,9.1075)" fill="rgb(255,255,255)" stroke="rgb(0,0,0)" stroke-width="0.0010cm" stroke-linecap="round" stroke-linejoin="round" /></svg>