<?xml version="1.0" encoding="utf-8"?>
<!-- Generator: Fusion 360, Shaper Origin Export Add-In, Version 1.6.10  -->
<svg xmlns="http://www.w3.org/2000/svg" xmlns:xlink="http://www.w3.org/1999/xlink" xmlns:shaper="http://www.shapertools.com/namespaces/shaper" shaper:fusionaddin="version:1.6.10" width="47.7948942cm" height="9.3196194cm" version="1.1" x="0cm" y="0cm" viewBox="0 0 47.7948942 9.3196194" enable-background="new 0 0 47.7948942 9.3196194" xml:space="preserve"><path d="M-23.8974471,-4.6598097 L21.9492162,-4.6598097 23.8974471,3.7230503 19.8667529,4.6598097 19.8667529,1.6901903 A0.3175,0.3175 90 1,0 19.5492529,1.3726903 L-21.4082471,1.3726903 A3.175,3.175 90 0,1 -23.8974471,0.1686059 L-23.8974471,-4.6598097z" transform="matrix(1,0,0,-1,23.8974471,4.6598097)" fill="rgb(0,0,0)" stroke-linecap="round" stroke-linejoin="round" /><path d="M12.2207332,-2.784255 a0.2976626,0.2976626 0 1,1 0.5953252,0 a0.2976626,0.2976626 0 1,1 -0.5953252,0z" transform="matrix(1,0,0,-1,23.8974471,4.6598097)" fill="rgb(255,255,255)" stroke="rgb(0,0,0)" stroke-width="0.0010cm" stroke-linecap="round" stroke-linejoin="round" /><path d="M-2.5378541,-0.2284072 a0.2976626,0.2976626 0 1,1 0.5953252,0 a0.2976626,0.2976626 0 1,1 -0.5953252,0z" transform="matrix(1,0,0,-1,23.8974471,4.6598097)" fill="rgb(255,255,255)" stroke="rgb(0,0,0)" stroke-width="0.0010cm" stroke-linecap="round" stroke-linejoin="round" /><path d="M-15.1945885,-1.6825385 a0.635,0.635 0 1,1 1.27,0 a0.635,0.635 0 1,1 -1.27,0z" transform="matrix(1,0,0,-1,23.8974471,4.6598097)" fill="rgb(255,255,255)" stroke="rgb(0,0,0)" stroke-width="0.0010cm" stroke-linecap="round" stroke-linejoin="round" /><path d="M5.5300773,-2.4163891 a0.2976626,0.2976626 0 1,1 0.5953252,0 a0.2976626,0.2976626 0 1,1 -0.5953252,0z" transform="matrix(1,0,0,-1,23.8974471,4.6598097)" fill="rgb(255,255,255)" stroke="rgb(0,0,0)" stroke-width="0.0010cm" stroke-linecap="round" stroke-linejoin="round" /></svg>