<?xml version="1.0" encoding="utf-8"?>
<!-- Generator: Fusion 360, Shaper Origin Export Add-In, Version 1.6.10  -->
<svg xmlns="http://www.w3.org/2000/svg" xmlns:xlink="http://www.w3.org/1999/xlink" xmlns:shaper="http://www.shapertools.com/namespaces/shaper" shaper:fusionaddin="version:1.6.10" width="43.7127533cm" height="15.0876cm" version="1.1" x="0cm" y="0cm" viewBox="0 0 43.7127533 15.0876" enable-background="new 0 0 43.7127533 15.0876" xml:space="preserve"><path d="M21.8563766,3.81 A3.7338,3.7338 0 0,1 18.1225766,7.5438 L-18.1225766,7.5438 A3.7338,3.7338 90 0,1 -21.8563766,3.81 L-21.8563766,-3.81 A3.7338,3.7338 180 0,1 -18.1225766,-7.5438 L18.1225766,-7.5438 A3.7338,3.7338 270 0,1 21.8563766,-3.81 L21.8563766,3.81z" transform="matrix(1,0,0,-1,21.8563766,7.5438)" fill="rgb(0,0,0)" stroke-linecap="round" stroke-linejoin="round" /><path d="M-5.3975,-0 a1.5875,1.5875 0 1,1 3.175,0 a1.5875,1.5875 0 1,1 -3.175,0z" transform="matrix(1,0,0,-1,21.8563766,7.5438)" fill="rgb(255,255,255)" stroke="rgb(0,0,0)" stroke-width="0.0010cm" stroke-linecap="round" stroke-linejoin="round" /><path d="M2.2225,-0 a1.5875,1.5875 0 1,1 3.175,0 a1.5875,1.5875 0 1,1 -3.175,0z" transform="matrix(1,0,0,-1,21.8563766,7.5438)" fill="rgb(255,255,255)" stroke="rgb(0,0,0)" stroke-width="0.0010cm" stroke-linecap="round" stroke-linejoin="round" /></svg>