<?xml version="1.0" encoding="UTF-8" standalone="no"?>
<!-- Created with Inkscape (http://www.inkscape.org/) -->

<svg
   width="850mm"
   height="750mm"
   viewBox="0 0 850 750"
   version="1.1"
   id="svg7313"
   xml:space="preserve"
   inkscape:version="1.2.1 (9c6d41e410, 2022-07-14)"
   sodipodi:docname="MDF_.25_OH3A2A-126_NO_BEND_LINES_LEFT SEAT BUCKET SKIN_-_V94.svg"
   xmlns:inkscape="http://www.inkscape.org/namespaces/inkscape"
   xmlns:sodipodi="http://sodipodi.sourceforge.net/DTD/sodipodi-0.dtd"
   xmlns="http://www.w3.org/2000/svg"
   xmlns:svg="http://www.w3.org/2000/svg"><sodipodi:namedview
     id="namedview7315"
     pagecolor="#ffffff"
     bordercolor="#000000"
     borderopacity="0.25"
     inkscape:showpageshadow="2"
     inkscape:pageopacity="0.0"
     inkscape:pagecheckerboard="0"
     inkscape:deskcolor="#d1d1d1"
     inkscape:document-units="mm"
     showgrid="false"
     inkscape:zoom="0.457453"
     inkscape:cx="1599.0714"
     inkscape:cy="1427.469"
     inkscape:window-width="3840"
     inkscape:window-height="2066"
     inkscape:window-x="5749"
     inkscape:window-y="-11"
     inkscape:window-maximized="1"
     inkscape:current-layer="layer1" /><defs
     id="defs7310"><marker
       id="DistanceX"
       orient="auto"
       refX="0"
       refY="0"
       style="overflow:visible"><path
         d="M 3,-3 -3,3 M 0,-5 V 5"
         style="stroke:#000000;stroke-width:0.5"
         id="path8162" /></marker><pattern
       id="Hatch"
       patternUnits="userSpaceOnUse"
       width="8"
       height="8"
       x="0"
       y="0"><path
         d="M8 4 l-4,4"
         stroke="#000000"
         stroke-width="0.25"
         linecap="square"
         id="path8165" /><path
         d="M6 2 l-4,4"
         stroke="#000000"
         stroke-width="0.25"
         linecap="square"
         id="path8167" /><path
         d="M4 0 l-4,4"
         stroke="#000000"
         stroke-width="0.25"
         linecap="square"
         id="path8169" /></pattern><symbol
       id="*Model_Space" /><symbol
       id="*Paper_Space" /><symbol
       id="*Paper_Space0" /></defs><g
     inkscape:label="Layer 1"
     inkscape:groupmode="layer"
     id="layer1"><g
       id="g8823"
       transform="matrix(0.26458333,0,0,0.26458333,-97.523452,472.15892)"><g
         inkscape:label="0"
         id="g8177" /><g
         inkscape:label="Defpoints"
         id="g8179" /><g
         inkscape:label="Visible"
         id="g8575"><path
           d="m 2219.4121,-360.58912 a 384,384 0 0 0 101.5099,-21.56743"
           style="fill:none;stroke:#000000"
           id="path8181" /><path
           d="m 3250.3812,-1598.9167 a 6,6 0 0 0 -12,0 6,6 0 0 0 12,0 z"
           style="fill:none;stroke:#000000"
           id="path8183" /><path
           d="m 3259.7927,-1637.7938 a 6,6 0 0 0 -12,0 6,6 0 0 0 12,0 z"
           style="fill:none;stroke:#000000"
           id="path8185" /><path
           d="m 3269.2043,-1676.6708 a 6,6 0 0 0 -12,0 6,6 0 0 0 12,0 z"
           style="fill:none;stroke:#000000"
           id="path8187" /><path
           d="m 3278.6158,-1715.5478 a 6,6 0 0 0 -12,0 6,6 0 0 0 12,0 z"
           style="fill:none;stroke:#000000"
           id="path8189" /><path
           d="m 3374.7442,-1704.6233 a 6,6 0 0 0 -12,0 6,6 0 0 0 12,0 z"
           style="fill:none;stroke:#000000"
           id="path8191" /><path
           d="m 3357.8033,-1634.6446 a 6,6 0 0 0 -12,0 6,6 0 0 0 12,0 z"
           style="fill:none;stroke:#000000"
           id="path8193" /><path
           d="m 3340.8626,-1564.6659 a 6,6 0 0 0 -12,0 6,6 0 0 0 12,0 z"
           style="fill:none;stroke:#000000"
           id="path8195" /><path
           d="m 3319.8667,-1477.9364 a 6,6 0 0 0 -12,0 6,6 0 0 0 12,0 z"
           style="fill:none;stroke:#000000"
           id="path8197" /><path
           d="m 3293.0438,-1367.1368 a 6,6 0 0 0 -12,0 6,6 0 0 0 12,0 z"
           style="fill:none;stroke:#000000"
           id="path8199" /><path
           d="m 3097.9577,-1445.6019 a 10.608,10.608 0 0 0 -21.216,0 10.608,10.608 0 0 0 21.216,0 z"
           style="fill:none;stroke:#000000"
           id="path8201" /><path
           d="m 3223.999,-1661.4994 a 10.608,10.608 0 0 0 -21.216,0 10.608,10.608 0 0 0 21.216,0 z"
           style="fill:none;stroke:#000000"
           id="path8203" /><path
           d="m 3364.7717,-1514.0095 a 10.608,10.608 0 0 0 -21.216,0 10.608,10.608 0 0 0 21.216,0 z"
           style="fill:none;stroke:#000000"
           id="path8205" /><path
           d="m 3024.8364,-259.22905 a 6,6 0 0 0 -12,0 6,6 0 0 0 12,0 z"
           style="fill:none;stroke:#000000"
           id="path8207" /><path
           d="m 3051.6593,-370.0286 a 6,6 0 0 0 -12,0 6,6 0 0 0 12,0 z"
           style="fill:none;stroke:#000000"
           id="path8209" /><path
           d="m 3078.4822,-480.82815 a 6,6 0 0 0 -12,0 6,6 0 0 0 12,0 z"
           style="fill:none;stroke:#000000"
           id="path8211" /><path
           d="m 3105.3051,-591.62761 a 6,6 0 0 0 -12,0 6,6 0 0 0 12,0 z"
           style="fill:none;stroke:#000000"
           id="path8213" /><path
           d="m 3132.128,-702.42716 a 6,6 0 0 0 -12,0 6,6 0 0 0 12,0 z"
           style="fill:none;stroke:#000000"
           id="path8215" /><path
           d="m 3158.9508,-813.22672 a 6,6 0 0 0 -12,0 6,6 0 0 0 12,0 z"
           style="fill:none;stroke:#000000"
           id="path8217" /><path
           d="m 3185.7737,-924.02617 a 6,6 0 0 0 -12,0 6,6 0 0 0 12,0 z"
           style="fill:none;stroke:#000000"
           id="path8219" /><path
           d="m 3212.5966,-1034.8257 a 6,6 0 0 0 -12,0 6,6 0 0 0 12,0 z"
           style="fill:none;stroke:#000000"
           id="path8221" /><path
           d="m 3239.4195,-1145.6253 a 6,6 0 0 0 -12,0 6,6 0 0 0 12,0 z"
           style="fill:none;stroke:#000000"
           id="path8223" /><path
           d="m 3266.2423,-1256.4247 a 6,6 0 0 0 -12,0 6,6 0 0 0 12,0 z"
           style="fill:none;stroke:#000000"
           id="path8225" /><path
           style="fill:none;stroke:#000000"
           d="m 2601.83,-389.484 332.48,94.86"
           id="path8227" /><path
           d="m 2595.8075,-432.98793 a 24,24 0 0 0 6.0183,43.50364"
           style="fill:none;stroke:#000000"
           id="path8229" /><path
           style="fill:none;stroke:#000000"
           d="m 3017.24,-693.035 -421.43,260.047"
           id="path8231" /><path
           d="m 3053.1271,-666.77563 a 24,24 0 0 0 -35.8829,-26.25959"
           style="fill:none;stroke:#000000"
           id="path8233" /><path
           style="fill:none;stroke:#000000"
           d="m 2964.17,-311.868 88.96,-354.908"
           id="path8235" /><path
           d="m 2934.3066,-294.62391 a 24,24 0 0 0 29.8645,-17.24404"
           style="fill:none;stroke:#000000"
           id="path8237" /><path
           style="fill:none;stroke:#000000"
           d="m 3103.03,-1324.82 30.56,255.72"
           id="path8239" /><path
           d="m 3133.5028,-1350.7266 a 24,24 0 0 0 -30.4682,25.911"
           style="fill:none;stroke:#000000"
           id="path8241" /><path
           style="fill:none;stroke:#000000"
           d="m 3222.13,-1325.22 -88.63,-25.51"
           id="path8243" /><path
           d="m 3238.7628,-1296.2857 a 24,24 0 0 0 -16.6333,-28.9346"
           style="fill:none;stroke:#000000"
           id="path8245" /><path
           style="fill:none;stroke:#000000"
           d="m 3180.69,-1066.08 58.07,-230.21"
           id="path8247" /><path
           d="m 3133.5858,-1069.1042 a 24,24 0 0 0 47.1014,3.0236"
           style="fill:none;stroke:#000000"
           id="path8249" /><path
           style="fill:none;stroke:#000000"
           d="m 2631.28,-498.79 440.33,-272.33"
           id="path8251" /><path
           d="m 2597.8819,-531.22489 a 24,24 0 0 0 33.395,32.43525"
           style="fill:none;stroke:#000000"
           id="path8253" /><path
           style="fill:none;stroke:#000000"
           d="m 3029.46,-1276.78 -431.58,745.555"
           id="path8255" /><path
           d="m 3074.0303,-1267.8494 a 24,24 0 0 0 -44.5709,-8.9315"
           style="fill:none;stroke:#000000"
           id="path8257" /><path
           style="fill:none;stroke:#000000"
           d="m 3119.68,-916.469 -45.65,-351.381"
           id="path8259" /><path
           d="m 3118.8526,-906.42092 a 24,24 0 0 0 0.8302,-10.04843"
           style="fill:none;stroke:#000000"
           id="path8261" /><path
           style="fill:none;stroke:#000000"
           d="m 3081.95,-784.576 36.9,-121.845"
           id="path8263" /><path
           d="m 3071.6068,-771.12052 a 24,24 0 0 0 10.3458,-13.45537"
           style="fill:none;stroke:#000000"
           id="path8265" /><path
           d="m 1068.4299,128.38823 a 9.288,9.288 0 0 0 -18.576,0 9.288,9.288 0 0 0 18.576,0 z"
           style="fill:none;stroke:#000000"
           id="path8267" /><path
           d="m 780.43421,129.96858 a 9.288,9.288 0 0 0 -18.576,0 9.288,9.288 0 0 0 18.576,0 z"
           style="fill:none;stroke:#000000"
           id="path8269" /><path
           style="fill:none;stroke:#000000"
           d="m 778.077,-137.401 91.831,-6.994"
           id="path8271" /><path
           style="fill:none;stroke:#000000"
           d="m 869.908,-144.395 -2.61,-34.271"
           id="path8273" /><path
           d="m 889.40546,-204.41919 a 24,24 0 0 0 -22.10795,25.75341"
           style="fill:none;stroke:#000000"
           id="path8275" /><path
           style="fill:none;stroke:#000000"
           d="m 889.406,-204.419 147.634,-11.245"
           id="path8277" /><path
           d="m 1062.8625,-191.4543 a 24,24 0 0 0 -25.8211,-24.20985"
           style="fill:none;stroke:#000000"
           id="path8279" /><path
           style="fill:none;stroke:#000000"
           d="m 1059.78,73.1859 3.08,-264.6399"
           id="path8281" /><path
           d="M 1035.9174,96.906396 A 24,24 0 0 0 1059.784,73.185924"
           style="fill:none;stroke:#000000"
           id="path8283" /><path
           style="fill:none;stroke:#000000"
           d="m 517.48,99.7513 518.44,-2.8449"
           id="path8285" /><path
           d="m 495.08486,84.71455 a 24,24 0 0 0 22.39525,15.03671"
           style="fill:none;stroke:#000000"
           id="path8287" /><path
           style="fill:none;stroke:#000000"
           d="M 442.84,-45.0588 495.085,84.7146"
           id="path8289" /><path
           d="M 524.6036,-176.63323 A 96,96 0 0 0 442.84031,-45.058776"
           style="fill:none;stroke:#000000"
           id="path8291" /><path
           style="fill:none;stroke:#000000"
           d="m 524.604,-176.633 225.11,-17.146"
           id="path8293" /><path
           d="m 775.46697,-171.67127 a 24,24 0 0 0 -25.75341,-22.10795"
           style="fill:none;stroke:#000000"
           id="path8295" /><path
           style="fill:none;stroke:#000000"
           d="m 775.467,-171.671 2.61,34.27"
           id="path8297" /><path
           style="fill:none;stroke:#000000"
           d="M 924.853,156.259 558.988,167.217"
           id="path8299" /><path
           d="M 949.57038,180.52784 A 24,24 0 0 0 924.85353,156.25943"
           style="fill:none;stroke:#000000"
           id="path8301" /><path
           style="fill:none;stroke:#000000"
           d="m 948.595,264.367 0.975,-83.839"
           id="path8303" /><path
           d="m 923.269,288.05122 a 24,24 0 0 0 25.32602,-23.68408"
           style="fill:none;stroke:#000000"
           id="path8305" /><path
           style="fill:none;stroke:#000000"
           d="m 654.994,273.188 268.275,14.863"
           id="path8307" /><path
           d="m 545.24937,212.35534 a 144,144 0 0 0 109.74486,60.83258"
           style="fill:none;stroke:#000000"
           id="path8309" /><path
           style="fill:none;stroke:#000000"
           d="m 540.088,205.031 5.161,7.324"
           id="path8311" /><path
           d="M 558.98783,167.21707 A 24,24 0 0 0 540.08785,205.0308"
           style="fill:none;stroke:#000000"
           id="path8313" /><path
           d="m 681.14765,130.49533 a 6,6 0 0 0 -12,0 6,6 0 0 0 12,0 z"
           style="fill:none;stroke:#000000"
           id="path8315" /><path
           d="m 873.14477,129.44183 a 6,6 0 0 0 -12,0 6,6 0 0 0 12,0 z"
           style="fill:none;stroke:#000000"
           id="path8317" /><path
           d="m 969.14333,128.91498 a 6,6 0 0 0 -12,0 6,6 0 0 0 12,0 z"
           style="fill:none;stroke:#000000"
           id="path8319" /><path
           style="fill:none;stroke:#000000"
           d="m 2973.72,152.532 88.13,-350.317"
           id="path8321" /><path
           d="m 3062.7083,-201.34169 c -0.2868,1.18549 -0.5736,2.37099 -0.8604,3.55648"
           style="fill:none;stroke:#000000"
           id="path8323" /><path
           style="fill:none;stroke:#000000"
           d="M 3331.35,-1311.06 3062.71,-201.342"
           id="path8325" /><path
           d="m 3332.2154,-1314.6187 c -0.2869,1.1854 -0.5738,2.3709 -0.8607,3.5563"
           style="fill:none;stroke:#000000"
           id="path8327" /><path
           style="fill:none;stroke:#000000"
           d="m 3429.07,-1714.72 -96.85,400.1"
           id="path8329" /><path
           d="m 3429.0728,-1714.7158 a 24,24 0 0 0 -17.682,-28.9738"
           style="fill:none;stroke:#000000"
           id="path8331" /><path
           style="fill:none;stroke:#000000"
           d="m 3411.39,-1743.69 -163.96,-39.67"
           id="path8333" /><path
           d="m 3247.4333,-1783.3608 a 24,24 0 0 0 -28.4802,15.9434"
           style="fill:none;stroke:#000000"
           id="path8335" /><path
           style="fill:none;stroke:#000000"
           d="m 3218.95,-1767.42 -17.3,53.53"
           id="path8337" /><path
           d="m 3199.5364,-1709.1718 a 24,24 0 0 0 2.1095,-4.7167"
           style="fill:none;stroke:#000000"
           id="path8339" /><path
           style="fill:none;stroke:#000000"
           d="m 3199.54,-1709.17 -184.97,316.82"
           id="path8341" /><path
           d="m 3012.6241,-1389.0586 c 0.6501,-1.0966 1.3001,-2.1931 1.9502,-3.2897"
           style="fill:none;stroke:#000000"
           id="path8343" /><path
           style="fill:none;stroke:#000000"
           d="M 3012.62,-1389.06 2522.7,-549.854"
           id="path8345" /><path
           d="m 2327.1524,-384.37671 a 384,384 0 0 0 195.5428,-165.47711"
           style="fill:none;stroke:#000000"
           id="path8347" /><path
           d="m 2320.922,-382.15654 c 2.0768,-0.74007 4.1536,-1.48014 6.2304,-2.22021"
           style="fill:none;stroke:#000000"
           id="path8349" /><path
           style="fill:none;stroke:#000000"
           d="m 1124.72,-279.639 1094.69,-80.95"
           id="path8351" /><path
           d="m 1119.0953,-279.21086 c 1.8757,-0.14265 3.7511,-0.28527 5.6267,-0.42792"
           style="fill:none;stroke:#000000"
           id="path8353" /><path
           style="fill:none;stroke:#000000"
           d="M 502.473,-233.613 1119.1,-279.211"
           id="path8355" /><path
           d="M 502.4732,-233.61275 A 144,144 0 0 0 380.25949,-34.40513"
           style="fill:none;stroke:#000000"
           id="path8357" /><path
           style="fill:none;stroke:#000000"
           d="M 380.26,-34.4052 491.728,231.905"
           id="path8359" /><path
           d="M 491.72826,231.90473 A 144,144 0 0 0 612.92421,319.834"
           style="fill:none;stroke:#000000"
           id="path8361" /><path
           style="fill:none;stroke:#000000"
           d="m 612.924,319.834 487.676,39.54"
           id="path8363" /><path
           d="m 1111.6235,363.0997 a 24,24 0 0 0 -11.0262,-3.72523"
           style="fill:none;stroke:#000000"
           id="path8365" /><path
           d="m 1117.1858,368.2089 c -2.0566,-2.28034 -3.9109,-3.98359 -5.5623,-5.10923"
           style="fill:none;stroke:#000000"
           id="path8367" /><path
           d="m 1119.7791,372.15734 a 24,24 0 0 0 -2.5933,-3.94844"
           style="fill:none;stroke:#000000"
           id="path8369" /><path
           style="fill:none;stroke:#000000"
           d="m 1119.78,372.157 30.24,57.734"
           id="path8371" /><path
           d="m 1150.0234,429.89115 a 24,24 0 0 0 21.2595,12.863"
           style="fill:none;stroke:#000000"
           id="path8373" /><path
           style="fill:none;stroke:#000000"
           d="M 2472.72,442.754 H 1171.28"
           id="path8375" /><path
           d="m 2472.7186,442.75415 a 24,24 0 0 0 4.4822,-0.42227"
           style="fill:none;stroke:#000000"
           id="path8377" /><path
           style="fill:none;stroke:#000000"
           d="m 2477.2,442.332 148.48,-28.228"
           id="path8379" /><path
           style="fill:none;stroke:#000000"
           d="m 2794.9,376.49 -169.22,37.614"
           id="path8381" /><path
           d="m 2794.8977,376.49018 a 24,24 0 0 0 18.0637,-17.55971"
           style="fill:none;stroke:#000000"
           id="path8383" /><path
           style="fill:none;stroke:#000000"
           d="m 2812.96,358.931 41.65,-165.15"
           id="path8385" /><path
           d="m 2876.2736,175.70346 a 24,24 0 0 0 -21.666,18.07779"
           style="fill:none;stroke:#000000"
           id="path8387" /><path
           style="fill:none;stroke:#000000"
           d="m 2952.05,170.623 -75.78,5.08"
           id="path8389" /><path
           d="m 2952.0492,170.62304 a 24,24 0 0 0 21.6693,-18.09099"
           style="fill:none;stroke:#000000"
           id="path8391" /><path
           d="m 1971.4094,-79.379483 a 10.608,10.608 0 0 0 -21.216,0 10.608,10.608 0 0 0 21.216,0 z"
           style="fill:none;stroke:#000000"
           id="path8393" /><path
           d="m 2275.3566,6.857221 a 10.608,10.608 0 0 0 -21.216,0 10.608,10.608 0 0 0 21.216,0 z"
           style="fill:none;stroke:#000000"
           id="path8395" /><path
           d="m 2528.053,23.701285 a 10.608,10.608 0 0 0 -21.216,0 10.608,10.608 0 0 0 21.216,0 z"
           style="fill:none;stroke:#000000"
           id="path8397" /><path
           d="m 1212.9061,401.0242 a 6,6 0 0 0 -12,0 6,6 0 0 0 12,0 z"
           style="fill:none;stroke:#000000"
           id="path8399" /><path
           d="m 1362.6661,401.0242 a 6,6 0 0 0 -12,0 6,6 0 0 0 12,0 z"
           style="fill:none;stroke:#000000"
           id="path8401" /><path
           d="m 1512.4261,401.0242 a 6,6 0 0 0 -12,0 6,6 0 0 0 12,0 z"
           style="fill:none;stroke:#000000"
           id="path8403" /><path
           d="m 1662.1861,401.0242 a 6,6 0 0 0 -12,0 6,6 0 0 0 12,0 z"
           style="fill:none;stroke:#000000"
           id="path8405" /><path
           d="m 1811.9461,401.0242 a 6,6 0 0 0 -12,0 6,6 0 0 0 12,0 z"
           style="fill:none;stroke:#000000"
           id="path8407" /><path
           d="m 1961.7061,401.0242 a 6,6 0 0 0 -12,0 6,6 0 0 0 12,0 z"
           style="fill:none;stroke:#000000"
           id="path8409" /><path
           d="m 2111.4661,401.0242 a 6,6 0 0 0 -12,0 6,6 0 0 0 12,0 z"
           style="fill:none;stroke:#000000"
           id="path8411" /><path
           d="m 2261.2261,401.0242 a 6,6 0 0 0 -12,0 6,6 0 0 0 12,0 z"
           style="fill:none;stroke:#000000"
           id="path8413" /><path
           d="m 2410.9861,401.0242 a 6,6 0 0 0 -12,0 6,6 0 0 0 12,0 z"
           style="fill:none;stroke:#000000"
           id="path8415" /><path
           d="m 2944.3895,73.082149 a 6,6 0 0 0 -12,0 6,6 0 0 0 12,0 z"
           style="fill:none;stroke:#000000"
           id="path8417" /><path
           d="m 2971.2124,-37.717307 a 6,6 0 0 0 -12,0 6,6 0 0 0 12,0 z"
           style="fill:none;stroke:#000000"
           id="path8419" /><path
           d="m 2998.0353,-148.51686 a 6,6 0 0 0 -12,0 6,6 0 0 0 12,0 z"
           style="fill:none;stroke:#000000"
           id="path8421" /><path
           d="m 2457.8425,390.60858 a 6,6 0 0 0 -12,0 6,6 0 0 0 12,0 z"
           style="fill:none;stroke:#000000"
           id="path8423" /><path
           d="m 2504.6988,380.19297 a 6,6 0 0 0 -12,0 6,6 0 0 0 12,0 z"
           style="fill:none;stroke:#000000"
           id="path8425" /><path
           d="m 2551.5551,369.77735 a 6,6 0 0 0 -12,0 6,6 0 0 0 12,0 z"
           style="fill:none;stroke:#000000"
           id="path8427" /><path
           d="m 2598.4115,359.36173 a 6,6 0 0 0 -12,0 6,6 0 0 0 12,0 z"
           style="fill:none;stroke:#000000"
           id="path8429" /><path
           d="m 2795.6899,353.06202 a 6,6 0 0 0 -12,0 6,6 0 0 0 12,0 z"
           style="fill:none;stroke:#000000"
           id="path8431" /><path
           d="m 2804.5743,305.89136 a 6,6 0 0 0 -12,0 6,6 0 0 0 12,0 z"
           style="fill:none;stroke:#000000"
           id="path8433" /><path
           d="m 2757.4037,297.00695 a 6,6 0 0 0 -12,0 6,6 0 0 0 12,0 z"
           style="fill:none;stroke:#000000"
           id="path8435" /><path
           d="m 2748.5193,344.17761 a 6,6 0 0 0 -12,0 6,6 0 0 0 12,0 z"
           style="fill:none;stroke:#000000"
           id="path8437" /><path
           d="m 1397.2812,-167.9919 a 11.232,11.232 0 0 0 -22.464,0 11.232,11.232 0 0 0 22.464,0 z"
           style="fill:none;stroke:#000000"
           id="path8439" /><path
           d="m 1193.8097,-153.31676 a 11.232,11.232 0 0 0 -22.464,0 11.232,11.232 0 0 0 22.464,0 z"
           style="fill:none;stroke:#000000"
           id="path8441" /><path
           d="m 1578.1489,-286.96278 a 11.232,11.232 0 0 0 -22.464,0 11.232,11.232 0 0 0 22.464,0 z"
           style="fill:none;stroke:#000000"
           id="path8443" /><path
           d="m 1763.7517,-300.34921 a 11.232,11.232 0 0 0 -22.464,0 11.232,11.232 0 0 0 22.464,0 z"
           style="fill:none;stroke:#000000"
           id="path8445" /><path
           style="fill:none;stroke:#000000"
           d="M 2419.98,-221.402 2178.76,230.322"
           id="path8447" /><path
           d="m 2464.9761,-213.01213 a 24,24 0 0 0 -44.993,-8.39014"
           style="fill:none;stroke:#000000"
           id="path8449" /><path
           style="fill:none;stroke:#000000"
           d="m 2464.98,-213.012 56.23,459.553"
           id="path8451" /><path
           d="m 2496.7536,273.44744 a 24,24 0 0 0 24.4538,-26.90661"
           style="fill:none;stroke:#000000"
           id="path8453" /><path
           style="fill:none;stroke:#000000"
           d="m 2199.3,265.619 297.45,7.828"
           id="path8455" /><path
           d="m 2178.7635,230.32189 a 24,24 0 0 0 20.5392,35.29675"
           style="fill:none;stroke:#000000"
           id="path8457" /><path
           style="fill:none;stroke:#000000"
           d="M 1650.98,78.3038 2227.85,-255.186"
           id="path8459" /><path
           d="m 1637.8466,81.499927 a 24,24 0 0 0 13.1285,-3.196151"
           style="fill:none;stroke:#000000"
           id="path8461" /><path
           style="fill:none;stroke:#000000"
           d="m 1637.85,81.5 -88.06,-4.1019"
           id="path8463" /><path
           d="m 1536.2443,72.421917 a 24,24 0 0 0 13.549,4.976218"
           style="fill:none;stroke:#000000"
           id="path8465" /><path
           style="fill:none;stroke:#000000"
           d="M 1536.24,72.4219 1202.83,-184.962"
           id="path8467" /><path
           d="m 1215.7722,-227.89785 a 24,24 0 0 0 -12.9393,42.93561"
           style="fill:none;stroke:#000000"
           id="path8469" /><path
           style="fill:none;stroke:#000000"
           d="m 1339.04,-236.788 -123.27,8.89"
           id="path8471" /><path
           d="m 1364.7056,-214.57717 a 24,24 0 0 0 -25.6643,-22.21133"
           style="fill:none;stroke:#000000"
           id="path8473" /><path
           style="fill:none;stroke:#000000"
           d="m 1364.71,-214.577 3.34,46.376"
           id="path8475" /><path
           d="m 1368.0504,-168.20127 a 18,18 0 1 0 35.9521,-1.08549"
           style="fill:none;stroke:#000000"
           id="path8477" /><path
           style="fill:none;stroke:#000000"
           d="m 1404,-169.287 -3.45,-47.875"
           id="path8479" /><path
           d="m 1422.7609,-242.82671 a 24,24 0 0 0 -22.2114,25.66431"
           style="fill:none;stroke:#000000"
           id="path8481" /><path
           style="fill:none;stroke:#000000"
           d="m 2214.11,-299.902 -791.35,57.075"
           id="path8483" /><path
           d="m 2227.8463,-255.18602 a 24,24 0 0 0 -13.7382,-44.71567"
           style="fill:none;stroke:#000000"
           id="path8485" /><path
           style="fill:none;stroke:#000000"
           d="m 2767.35,-126.393 104.12,29.3008"
           id="path8487" /><path
           d="m 2767.3482,-126.39347 a 24,24 0 0 0 -29.523,16.32054"
           style="fill:none;stroke:#000000"
           id="path8489" /><path
           style="fill:none;stroke:#000000"
           d="m 2629.13,258.873 108.7,-368.946"
           id="path8491" /><path
           d="m 2582.3778,255.6465 a 24,24 0 0 0 46.7569,3.22679"
           style="fill:none;stroke:#000000"
           id="path8493" /><path
           style="fill:none;stroke:#000000"
           d="m 2503.99,-267.674 78.39,523.321"
           id="path8495" /><path
           d="m 2533.6175,-294.49441 a 24,24 0 0 0 -29.6293,26.82033"
           style="fill:none;stroke:#000000"
           id="path8497" /><path
           style="fill:none;stroke:#000000"
           d="m 2910.12,-199.109 -376.5,-95.385"
           id="path8499" /><path
           d="m 2925.9315,-165.60437 a 24,24 0 0 0 -15.8121,-33.50425"
           style="fill:none;stroke:#000000"
           id="path8501" /><path
           style="fill:none;stroke:#000000"
           d="m 2899.68,-109.956 26.25,-55.648"
           id="path8503" /><path
           d="m 2871.4733,-97.092154 a 24,24 0 0 0 28.2074,-12.863416"
           style="fill:none;stroke:#000000"
           id="path8505" /><path
           style="fill:none;stroke:#000000"
           d="m 2073.92,308.498 294.71,-551.903"
           id="path8507" /><path
           d="m 2052.471,321.19099 a 24,24 0 0 0 21.4498,-12.69339"
           style="fill:none;stroke:#000000"
           id="path8509" /><path
           style="fill:none;stroke:#000000"
           d="m 1980.1,320.349 72.37,0.842"
           id="path8511" /><path
           d="m 1968.6411,317.28357 a 24,24 0 0 0 11.4603,3.0655"
           style="fill:none;stroke:#000000"
           id="path8513" /><path
           style="fill:none;stroke:#000000"
           d="m 1709.31,171.85 259.33,145.434"
           id="path8515" /><path
           d="m 1708.689,88.475134 a 48,48 0 0 0 0.6255,83.374566"
           style="fill:none;stroke:#000000"
           id="path8517" /><path
           style="fill:none;stroke:#000000"
           d="M 2335.41,-275.464 1708.69,88.4751"
           id="path8519" /><path
           d="m 2368.6327,-243.40487 a 24,24 0 0 0 -33.2229,-32.05938"
           style="fill:none;stroke:#000000"
           id="path8521" /><path
           style="fill:none;stroke:#000000"
           d="M 1824.23,286.23 1696.46,213.283"
           id="path8523" /><path
           d="m 1812.0506,331.07092 a 24,24 0 0 0 12.1785,-44.84079"
           style="fill:none;stroke:#000000"
           id="path8525" /><path
           style="fill:none;stroke:#000000"
           d="m 1388.26,326.141 423.79,4.93"
           id="path8527" /><path
           d="m 1376.4834,281.38826 a 24,24 0 0 0 11.773,44.75278"
           style="fill:none;stroke:#000000"
           id="path8529" /><path
           style="fill:none;stroke:#000000"
           d="m 1534.81,189.448 -158.33,91.94"
           id="path8531" /><path
           d="m 1550.9698,186.55634 a 24,24 0 0 0 -16.1603,2.89137"
           style="fill:none;stroke:#000000"
           id="path8533" /><path
           style="fill:none;stroke:#000000"
           d="m 1550.97,186.556 137.7,23.923"
           id="path8535" /><path
           d="m 1696.457,213.2828 a 24,24 0 0 0 -7.7911,-2.80336"
           style="fill:none;stroke:#000000"
           id="path8537" /><path
           style="fill:none;stroke:#000000"
           d="m 1219.93,323.609 -16.72,-0.194"
           id="path8539" /><path
           d="m 1179.4884,299.137 a 24,24 0 0 0 23.7192,24.27754"
           style="fill:none;stroke:#000000"
           id="path8541" /><path
           style="fill:none;stroke:#000000"
           d="m 1179.49,299.137 4.6,-395.2861"
           id="path8543" /><path
           d="m 1222.3335,-115.18266 a 24,24 0 0 0 -38.2468,19.033611"
           style="fill:none;stroke:#000000"
           id="path8545" /><path
           style="fill:none;stroke:#000000"
           d="M 1222.33,-115.183 1485.56,79.0213"
           id="path8547" /><path
           d="m 1495.3161,98.320574 a 24,24 0 0 0 -9.7516,-19.299268"
           style="fill:none;stroke:#000000"
           id="path8549" /><path
           style="fill:none;stroke:#000000"
           d="m 1495.32,98.3205 0.03,56.0905"
           id="path8551" /><path
           d="m 1483.3593,175.20262 a 24,24 0 0 0 11.9883,-20.79136"
           style="fill:none;stroke:#000000"
           id="path8553" /><path
           style="fill:none;stroke:#000000"
           d="M 1232.22,320.389 1483.36,175.203"
           id="path8555" /><path
           d="m 1219.9259,323.60904 a 24,24 0 0 0 12.2908,-3.22053"
           style="fill:none;stroke:#000000"
           id="path8557" /><path
           d="m 1518.5787,-29.839931 a 24,24 0 0 0 -48,0 24,24 0 0 0 48,0 z"
           style="fill:none;stroke:#000000"
           id="path8559" /><path
           d="m 1333.2621,18.879397 a 36,36 0 0 0 -72,0 36,36 0 0 0 72,0 z"
           style="fill:none;stroke:#000000"
           id="path8561" /><path
           d="m 1308.4941,18.879397 a 11.232,11.232 0 0 0 -22.464,0 11.232,11.232 0 0 0 22.464,0 z"
           style="fill:none;stroke:#000000"
           id="path8563" /><path
           d="m 1705.4009,-159.40643 a 36,36 0 0 0 -72,0 36,36 0 0 0 72,0 z"
           style="fill:none;stroke:#000000"
           id="path8565" /><path
           d="m 1680.6329,-159.40643 a 11.232,11.232 0 0 0 -22.464,0 11.232,11.232 0 0 0 22.464,0 z"
           style="fill:none;stroke:#000000"
           id="path8567" /><path
           d="m 1368.0504,-168.20125 c 0,0 -0.078,0.002 -0.2302,0.007 -0.076,0.002 -0.1711,0.005 -0.2853,0.009 -0.1143,0.004 -0.248,0.008 -0.3988,0.0124 -0.3016,0.009 -0.6694,0.0211 -1.1048,0.0351 -0.4354,0.0141 -0.9403,0.0307 -1.4949,0.0494 -0.5547,0.0188 -1.1577,0.0395 -1.8122,0.0626 -0.3272,0.0115 -0.6676,0.0237 -1.0142,0.0362 -0.3466,0.0125 -0.6992,0.0254 -1.06,0.0386 -0.7217,0.0266 -1.4761,0.0549 -2.2504,0.0845 -0.7744,0.0297 -1.5689,0.0607 -2.3496,0.0916"
           style="fill:none;stroke:#000000"
           id="path8569" /><path
           style="fill:none;stroke:#000000"
           d="m 778.077,-137.401 -11.054,12.877"
           id="path8571" /><path
           style="fill:none;stroke:#000000"
           d="m 869.908,-144.395 12.877,11.054"
           id="path8573" /></g></g></g></svg>
