<?xml version="1.0" encoding="utf-8"?>
<!-- Generator: Fusion 360, Shaper Origin Export Add-In, Version 1.6.10  -->
<svg xmlns="http://www.w3.org/2000/svg" xmlns:xlink="http://www.w3.org/1999/xlink" xmlns:shaper="http://www.shapertools.com/namespaces/shaper" shaper:fusionaddin="version:1.6.10" width="57.3509242cm" height="19.4230184cm" version="1.1" x="0cm" y="0cm" viewBox="0 0 57.3509242 19.4230184" enable-background="new 0 0 57.3509242 19.4230184" xml:space="preserve"><path d="M14.2591495,4.4759077 A0.3175,0.3175 345.3381729 0,0 14.0011985,4.242608 L6.473281,3.0615664 A0.3175,0.3175 278.9163514 0,0 6.1562779,3.2046626 A0.3175,0.3175 32.4945299 0,1 5.8392748,3.3477587 L-17.4523739,-0.3064265 A1.905,1.905 278.9163514 0,0 -19.5139196,0.8619273 L-23.1990323,9.9829013 -30.5973708,6.9937786 -23.957646,-9.4401171 24.6429881,-9.4401171 26.7535534,-6.9104157 25.5476858,6.4397762 14.5171006,4.7092074 A0.3175,0.3175 98.9163514 0,1 14.2591495,4.4759077z" transform="matrix(1,0,0,-1,30.5973708,9.9829013)" fill="rgb(0,0,0)" stroke-linecap="round" stroke-linejoin="round" /><path d="M-23.560771,-6.1063671 a0.15875,0.15875 0 1,1 0.3175,0 a0.15875,0.15875 0 1,1 -0.3175,0z" transform="matrix(1,0,0,-1,30.5973708,9.9829013)" fill="rgb(255,255,255)" stroke="rgb(0,0,0)" stroke-width="0.0010cm" stroke-linecap="round" stroke-linejoin="round" /><path d="M-18.957021,-6.1063671 a0.15875,0.15875 0 1,1 0.3175,0 a0.15875,0.15875 0 1,1 -0.3175,0z" transform="matrix(1,0,0,-1,30.5973708,9.9829013)" fill="rgb(255,255,255)" stroke="rgb(0,0,0)" stroke-width="0.0010cm" stroke-linecap="round" stroke-linejoin="round" /><path d="M23.108619,3.5109517 a0.15875,0.15875 0 1,1 0.3175,0 a0.15875,0.15875 0 1,1 -0.3175,0z" transform="matrix(1,0,0,-1,30.5973708,9.9829013)" fill="rgb(255,255,255)" stroke="rgb(0,0,0)" stroke-width="0.0010cm" stroke-linecap="round" stroke-linejoin="round" /><path d="M-13.2763152,-2.1974158 a0.15875,0.15875 0 1,1 0.3175,0 a0.15875,0.15875 0 1,1 -0.3175,0z" transform="matrix(1,0,0,-1,30.5973708,9.9829013)" fill="rgb(255,255,255)" stroke="rgb(0,0,0)" stroke-width="0.0010cm" stroke-linecap="round" stroke-linejoin="round" /><path d="M24.0538731,-6.9001171 a0.15875,0.15875 0 1,1 0.3175,0 a0.15875,0.15875 0 1,1 -0.3175,0z" transform="matrix(1,0,0,-1,30.5973708,9.9829013)" fill="rgb(255,255,255)" stroke="rgb(0,0,0)" stroke-width="0.0010cm" stroke-linecap="round" stroke-linejoin="round" /><path d="M-12.7761269,-6.9001171 a0.15875,0.15875 0 1,1 0.3175,0 a0.15875,0.15875 0 1,1 -0.3175,0z" transform="matrix(1,0,0,-1,30.5973708,9.9829013)" fill="rgb(255,255,255)" stroke="rgb(0,0,0)" stroke-width="0.0010cm" stroke-linecap="round" stroke-linejoin="round" /><path d="M-24.1725668,6.9142288 a0.15875,0.15875 0 1,1 0.3175,0 a0.15875,0.15875 0 1,1 -0.3175,0z" transform="matrix(1,0,0,-1,30.5973708,9.9829013)" fill="rgb(255,255,255)" stroke="rgb(0,0,0)" stroke-width="0.0010cm" stroke-linecap="round" stroke-linejoin="round" /><path d="M-28.0383348,5.3523571 a0.15875,0.15875 0 1,1 0.3175,0 a0.15875,0.15875 0 1,1 -0.3175,0z" transform="matrix(1,0,0,-1,30.5973708,9.9829013)" fill="rgb(255,255,255)" stroke="rgb(0,0,0)" stroke-width="0.0010cm" stroke-linecap="round" stroke-linejoin="round" /></svg>