<?xml version="1.0" encoding="utf-8"?>
<!-- Generator: Fusion 360, Shaper Origin Export Add-In, Version 1.6.10  -->
<svg xmlns="http://www.w3.org/2000/svg" xmlns:xlink="http://www.w3.org/1999/xlink" xmlns:shaper="http://www.shapertools.com/namespaces/shaper" shaper:fusionaddin="version:1.6.10" width="36.6008245cm" height="21.1147971cm" version="1.1" x="0cm" y="0cm" viewBox="0 0 36.6008245 21.1147971" enable-background="new 0 0 36.6008245 21.1147971" xml:space="preserve"><path d="M11.5445878,-3.6921518 L12.6228446,-14.6477662 13.9708017,-15.4873295 18.3004122,-14.4811 13.6270511,5.6274676 -18.3004122,5.6274676 -18.3004122,-0.4050324 11.2270878,-0.4050324 A0.3175,0.3175 180 1,0 11.5445878,-0.7225324 L11.5445878,-3.6921518z" transform="matrix(1,0,0,-1,18.3004122,5.6274676)" fill="rgb(0,0,0)" stroke-linecap="round" stroke-linejoin="round" /><path d="M-0.2029122,0.3887176 L-5.2829122,0.3887176 A1.27,1.27 270 0,0 -6.5529122,1.6587176 L-6.5529122,2.2937176 A1.27,1.27 180 0,0 -5.2829122,3.5637176 L-0.2029122,3.5637176 A1.27,1.27 90 0,0 1.0670878,2.2937176 L1.0670878,1.6587176 A1.27,1.27 0 0,0 -0.2029122,0.3887176z" transform="matrix(1,0,0,-1,18.3004122,5.6274676)" fill="rgb(255,255,255)" stroke="rgb(0,0,0)" stroke-width="0.0010cm" stroke-linecap="round" stroke-linejoin="round" /></svg>