<?xml version="1.0" encoding="utf-8"?>
<!-- Generator: Fusion 360, Shaper Origin Export Add-In, Version 1.6.10  -->
<svg xmlns="http://www.w3.org/2000/svg" xmlns:xlink="http://www.w3.org/1999/xlink" xmlns:shaper="http://www.shapertools.com/namespaces/shaper" shaper:fusionaddin="version:1.6.10" width="47.7948942cm" height="9.3196194cm" version="1.1" x="0cm" y="0cm" viewBox="0 0 47.7948942 9.3196194" enable-background="new 0 0 47.7948942 9.3196194" xml:space="preserve"><path d="M21.9492162,4.6598097 L-23.8974471,4.6598097 -23.8974471,-0.1686059 A3.175,3.175 218.3717151 0,1 -21.4082471,-1.3726903 L19.5492529,-1.3726903 A0.3175,0.3175 180 1,0 19.8667529,-1.6901903 L19.8667529,-4.6598097 23.8974471,-3.7230503 21.9492162,4.6598097z" transform="matrix(1,0,0,-1,23.8974471,4.6598097)" fill="rgb(0,0,0)" stroke-linecap="round" stroke-linejoin="round" /><path d="M19.1656974,0.9017972 a0.635,0.635 0 1,1 1.27,0 a0.635,0.635 0 1,1 -1.27,0z" transform="matrix(1,0,0,-1,23.8974471,4.6598097)" fill="rgb(255,255,255)" stroke="rgb(0,0,0)" stroke-width="0.0010cm" stroke-linecap="round" stroke-linejoin="round" /><path d="M5.5300773,2.4163891 a0.2976626,0.2976626 0 1,1 0.5953252,0 a0.2976626,0.2976626 0 1,1 -0.5953252,0z" transform="matrix(1,0,0,-1,23.8974471,4.6598097)" fill="rgb(255,255,255)" stroke="rgb(0,0,0)" stroke-width="0.0010cm" stroke-linecap="round" stroke-linejoin="round" /><path d="M-2.5378541,0.2284072 a0.2976626,0.2976626 0 1,1 0.5953252,0 a0.2976626,0.2976626 0 1,1 -0.5953252,0z" transform="matrix(1,0,0,-1,23.8974471,4.6598097)" fill="rgb(255,255,255)" stroke="rgb(0,0,0)" stroke-width="0.0010cm" stroke-linecap="round" stroke-linejoin="round" /><path d="M-17.7288593,0.5897918 a0.2976626,0.2976626 0 1,1 0.5953252,0 a0.2976626,0.2976626 0 1,1 -0.5953252,0z" transform="matrix(1,0,0,-1,23.8974471,4.6598097)" fill="rgb(255,255,255)" stroke="rgb(0,0,0)" stroke-width="0.0010cm" stroke-linecap="round" stroke-linejoin="round" /><path d="M12.2207332,2.784255 a0.2976626,0.2976626 0 1,1 0.5953252,0 a0.2976626,0.2976626 0 1,1 -0.5953252,0z" transform="matrix(1,0,0,-1,23.8974471,4.6598097)" fill="rgb(255,255,255)" stroke="rgb(0,0,0)" stroke-width="0.0010cm" stroke-linecap="round" stroke-linejoin="round" /><path d="M18.5578758,2.3516743 a0.17272,0.17272 0 1,1 0.34544,0 a0.17272,0.17272 0 1,1 -0.34544,0z" transform="matrix(1,0,0,-1,23.8974471,4.6598097)" fill="rgb(255,255,255)" stroke="rgb(0,0,0)" stroke-width="0.0010cm" stroke-linecap="round" stroke-linejoin="round" /><path d="M18.2237688,4.0200351 a0.17272,0.17272 0 1,1 0.34544,0 a0.17272,0.17272 0 1,1 -0.34544,0z" transform="matrix(1,0,0,-1,23.8974471,4.6598097)" fill="rgb(255,255,255)" stroke="rgb(0,0,0)" stroke-width="0.0010cm" stroke-linecap="round" stroke-linejoin="round" /><path d="M18.5670766,3.2422576 a0.635,0.635 0 1,1 1.27,0 a0.635,0.635 0 1,1 -1.27,0z" transform="matrix(1,0,0,-1,23.8974471,4.6598097)" fill="rgb(255,255,255)" stroke="rgb(0,0,0)" stroke-width="0.0010cm" stroke-linecap="round" stroke-linejoin="round" /></svg>