<?xml version="1.0" encoding="utf-8"?>
<!-- Generator: Fusion 360, Shaper Origin Export Add-In, Version 1.6.10  -->
<svg xmlns="http://www.w3.org/2000/svg" xmlns:xlink="http://www.w3.org/1999/xlink" xmlns:shaper="http://www.shapertools.com/namespaces/shaper" shaper:fusionaddin="version:1.6.10" width="73.025cm" height="18.915202cm" version="1.1" x="0cm" y="0cm" viewBox="0 0 73.025 18.915202" enable-background="new 0 0 73.025 18.915202" xml:space="preserve"><path d="M-36.6065325,1.5995275 L-35.9715325,1.5995275 A0.436499,0.436499 90 1,0 -35.9715325,0.7265295 L-36.6065325,0.7265295 -36.6065325,-3.2048376 -35.9715325,-3.2048376 A0.436499,0.436499 90 1,0 -35.9715325,-4.0778356 L-36.6065325,-4.0778356 -36.6065325,-4.9113366 14.9126949,-4.9113366 14.9126949,-3.7162882 A0.635,0.635 0 0,1 14.7010283,-3.2429872 A0.3175,0.3175 228.1896851 1,0 15.1493455,-2.79467 A0.635,0.635 221.8103149 0,1 15.6226465,-3.0063366 L36.4184675,-3.0063366 36.4184675,4.9730285 11.3340373,4.9730285 A1.27,1.27 270 0,0 10.0640373,6.2430285 L10.0640373,10.7084909 A0.635,0.635 0 0,1 9.5718812,11.3272159 L6.0568053,12.1387351 A0.635,0.635 77 0,1 5.8146255,12.1471922 L-2.1417947,10.8870191 A0.3175,0.3175 279 0,0 -2.5089627,11.2006101 L-2.5089627,13.3688654 A0.635,0.635 0 0,1 -3.1439627,14.0038654 L-7.9715325,14.0038654 A0.635,0.635 90 0,1 -8.6065325,13.3688654 L-8.6065325,3.14298 A0.635,0.635 180 0,1 -8.3948658,2.669679 A0.3175,0.3175 48.1896851 1,0 -8.843183,2.2213618 A0.635,0.635 41.8103149 0,1 -9.3164841,2.4330285 L-36.6065325,2.4330285 -36.6065325,1.5995275z" transform="matrix(1,0,0,-1,36.6065325,14.0038654)" fill="rgb(0,0,0)" stroke-linecap="round" stroke-linejoin="round" /><path d="M-22.300499,-3.1108835 A0.436499,0.436499 29.2004302 1,0 -22.6696959,-2.887498 A0.635,0.635 218.960305 1,0 -22.300499,-3.1108835z" transform="matrix(1,0,0,-1,36.6065325,14.0038654)" fill="rgb(255,255,255)" stroke="rgb(0,0,0)" stroke-width="0.0010cm" stroke-linecap="round" stroke-linejoin="round" /><path d="M-9.8280205,-3.6413366 a0.436499,0.436499 0 1,1 0.872998,0 a0.436499,0.436499 0 1,1 -0.872998,0z" transform="matrix(1,0,0,-1,36.6065325,14.0038654)" fill="rgb(255,255,255)" stroke="rgb(0,0,0)" stroke-width="0.0010cm" stroke-linecap="round" stroke-linejoin="round" /><path d="M-9.8280205,1.1630285 a0.436499,0.436499 0 1,1 0.872998,0 a0.436499,0.436499 0 1,1 -0.872998,0z" transform="matrix(1,0,0,-1,36.6065325,14.0038654)" fill="rgb(255,255,255)" stroke="rgb(0,0,0)" stroke-width="0.0010cm" stroke-linecap="round" stroke-linejoin="round" /><path d="M15.7064449,-1.7363366 a0.15875,0.15875 0 1,1 0.3175,0 a0.15875,0.15875 0 1,1 -0.3175,0z" transform="matrix(1,0,0,-1,36.6065325,14.0038654)" fill="rgb(255,255,255)" stroke="rgb(0,0,0)" stroke-width="0.0010cm" stroke-linecap="round" stroke-linejoin="round" /><path d="M15.7064449,3.7030285 a0.15875,0.15875 0 1,1 0.3175,0 a0.15875,0.15875 0 1,1 -0.3175,0z" transform="matrix(1,0,0,-1,36.6065325,14.0038654)" fill="rgb(255,255,255)" stroke="rgb(0,0,0)" stroke-width="0.0010cm" stroke-linecap="round" stroke-linejoin="round" /><path d="M34.3547175,-1.7363366 a0.15875,0.15875 0 1,1 0.3175,0 a0.15875,0.15875 0 1,1 -0.3175,0z" transform="matrix(1,0,0,-1,36.6065325,14.0038654)" fill="rgb(255,255,255)" stroke="rgb(0,0,0)" stroke-width="0.0010cm" stroke-linecap="round" stroke-linejoin="round" /><path d="M34.3547175,3.0680285 a0.15875,0.15875 0 1,1 0.3175,0 a0.15875,0.15875 0 1,1 -0.3175,0z" transform="matrix(1,0,0,-1,36.6065325,14.0038654)" fill="rgb(255,255,255)" stroke="rgb(0,0,0)" stroke-width="0.0010cm" stroke-linecap="round" stroke-linejoin="round" /><path d="M-34.8602825,0.5280285 a0.15875,0.15875 0 1,1 0.3175,0 a0.15875,0.15875 0 1,1 -0.3175,0z" transform="matrix(1,0,0,-1,36.6065325,14.0038654)" fill="rgb(255,255,255)" stroke="rgb(0,0,0)" stroke-width="0.0010cm" stroke-linecap="round" stroke-linejoin="round" /><path d="M-34.8602825,-3.0063366 a0.15875,0.15875 0 1,1 0.3175,0 a0.15875,0.15875 0 1,1 -0.3175,0z" transform="matrix(1,0,0,-1,36.6065325,14.0038654)" fill="rgb(255,255,255)" stroke="rgb(0,0,0)" stroke-width="0.0010cm" stroke-linecap="round" stroke-linejoin="round" /><path d="M-15.8259315,-2.4882215 a0.635,0.635 0 1,1 1.27,0 a0.635,0.635 0 1,1 -1.27,0z" transform="matrix(1,0,0,-1,36.6065325,14.0038654)" fill="rgb(255,255,255)" stroke="rgb(0,0,0)" stroke-width="0.0010cm" stroke-linecap="round" stroke-linejoin="round" /><path d="M-4.0964627,12.7338654 a0.635,0.635 0 1,1 1.27,0 a0.635,0.635 0 1,1 -1.27,0z" transform="matrix(1,0,0,-1,36.6065325,14.0038654)" fill="rgb(255,255,255)" stroke="rgb(0,0,0)" stroke-width="0.0010cm" stroke-linecap="round" stroke-linejoin="round" /><path d="M-7.6540325,12.7338654 a0.635,0.635 0 1,1 1.27,0 a0.635,0.635 0 1,1 -1.27,0z" transform="matrix(1,0,0,-1,36.6065325,14.0038654)" fill="rgb(255,255,255)" stroke="rgb(0,0,0)" stroke-width="0.0010cm" stroke-linecap="round" stroke-linejoin="round" /><path d="M-7.6540325,9.8763654 a0.635,0.635 0 1,1 1.27,0 a0.635,0.635 0 1,1 -1.27,0z" transform="matrix(1,0,0,-1,36.6065325,14.0038654)" fill="rgb(255,255,255)" stroke="rgb(0,0,0)" stroke-width="0.0010cm" stroke-linecap="round" stroke-linejoin="round" /><path d="M-4.0964627,9.8763654 a0.635,0.635 0 1,1 1.27,0 a0.635,0.635 0 1,1 -1.27,0z" transform="matrix(1,0,0,-1,36.6065325,14.0038654)" fill="rgb(255,255,255)" stroke="rgb(0,0,0)" stroke-width="0.0010cm" stroke-linecap="round" stroke-linejoin="round" /><path d="M-1.9448361,9.5027388 a0.635,0.635 0 1,1 1.27,0 a0.635,0.635 0 1,1 -1.27,0z" transform="matrix(1,0,0,-1,36.6065325,14.0038654)" fill="rgb(255,255,255)" stroke="rgb(0,0,0)" stroke-width="0.0010cm" stroke-linecap="round" stroke-linejoin="round" /><path d="M-1.9448361,3.264992 a0.635,0.635 0 1,1 1.27,0 a0.635,0.635 0 1,1 -1.27,0z" transform="matrix(1,0,0,-1,36.6065325,14.0038654)" fill="rgb(255,255,255)" stroke="rgb(0,0,0)" stroke-width="0.0010cm" stroke-linecap="round" stroke-linejoin="round" /><path d="M4.2929107,3.264992 a0.635,0.635 0 1,1 1.27,0 a0.635,0.635 0 1,1 -1.27,0z" transform="matrix(1,0,0,-1,36.6065325,14.0038654)" fill="rgb(255,255,255)" stroke="rgb(0,0,0)" stroke-width="0.0010cm" stroke-linecap="round" stroke-linejoin="round" /><path d="M4.2929107,9.5027388 a0.635,0.635 0 1,1 1.27,0 a0.635,0.635 0 1,1 -1.27,0z" transform="matrix(1,0,0,-1,36.6065325,14.0038654)" fill="rgb(255,255,255)" stroke="rgb(0,0,0)" stroke-width="0.0010cm" stroke-linecap="round" stroke-linejoin="round" /><path d="M6.2540373,7.4040012 a0.635,0.635 0 1,1 1.27,0 a0.635,0.635 0 1,1 -1.27,0z" transform="matrix(1,0,0,-1,36.6065325,14.0038654)" fill="rgb(255,255,255)" stroke="rgb(0,0,0)" stroke-width="0.0010cm" stroke-linecap="round" stroke-linejoin="round" /><path d="M6.2540373,10.9690446 a0.635,0.635 0 1,1 1.27,0 a0.635,0.635 0 1,1 -1.27,0z" transform="matrix(1,0,0,-1,36.6065325,14.0038654)" fill="rgb(255,255,255)" stroke="rgb(0,0,0)" stroke-width="0.0010cm" stroke-linecap="round" stroke-linejoin="round" /><path d="M8.4765373,10.45594 a0.635,0.635 0 1,1 1.27,0 a0.635,0.635 0 1,1 -1.27,0z" transform="matrix(1,0,0,-1,36.6065325,14.0038654)" fill="rgb(255,255,255)" stroke="rgb(0,0,0)" stroke-width="0.0010cm" stroke-linecap="round" stroke-linejoin="round" /><path d="M8.4765373,7.4040012 a0.635,0.635 0 1,1 1.27,0 a0.635,0.635 0 1,1 -1.27,0z" transform="matrix(1,0,0,-1,36.6065325,14.0038654)" fill="rgb(255,255,255)" stroke="rgb(0,0,0)" stroke-width="0.0010cm" stroke-linecap="round" stroke-linejoin="round" /><path d="M-0.3989567,6.9241642 A0.15875,0.15875 107.3816656 1,0 -0.3850884,6.6175004 A0.15875,0.15875 287.3816656 1,0 -0.3989567,6.9241642z" transform="matrix(1,0,0,-1,36.6065325,14.0038654)" fill="rgb(255,255,255)" stroke="rgb(0,0,0)" stroke-width="0.0010cm" stroke-linecap="round" stroke-linejoin="round" /><path d="M-0.3920226,-2.2178371 A0.15875,0.15875 104.7768854 1,0 -0.3920226,-2.5248362 A0.15875,0.15875 284.7768854 1,0 -0.3920226,-2.2178371z" transform="matrix(1,0,0,-1,36.6065325,14.0038654)" fill="rgb(255,255,255)" stroke="rgb(0,0,0)" stroke-width="0.0010cm" stroke-linecap="round" stroke-linejoin="round" /><path d="M-32.9050125,0.698574 a0.15875,0.15875 0 1,1 0.3175,0 a0.15875,0.15875 0 1,1 -0.3175,0z" transform="matrix(1,0,0,-1,36.6065325,14.0038654)" fill="rgb(255,255,255)" stroke="rgb(0,0,0)" stroke-width="0.0010cm" stroke-linecap="round" stroke-linejoin="round" /><path d="M-32.9552825,-3.0063366 a0.15875,0.15875 0 1,1 0.3175,0 a0.15875,0.15875 0 1,1 -0.3175,0z" transform="matrix(1,0,0,-1,36.6065325,14.0038654)" fill="rgb(255,255,255)" stroke="rgb(0,0,0)" stroke-width="0.0010cm" stroke-linecap="round" stroke-linejoin="round" /></svg>