<?xml version="1.0" encoding="utf-8"?>
<!-- Generator: Fusion 360, Shaper Origin Export Add-In, Version 1.6.10  -->
<svg xmlns="http://www.w3.org/2000/svg" xmlns:xlink="http://www.w3.org/1999/xlink" xmlns:shaper="http://www.shapertools.com/namespaces/shaper" shaper:fusionaddin="version:1.6.10" width="74.086118cm" height="51.849257cm" version="1.1" x="0cm" y="0cm" viewBox="0 0 74.086118 51.849257" enable-background="new 0 0 74.086118 51.849257" xml:space="preserve"><path d="M18.8045398,-28.4279639 A0.3175,0.3175 193.0836486 0,1 19.0559677,-28.6682793 A0.3175,0.3175 79.5054701 0,0 19.3073956,-28.9085947 L21.0323605,-36.3307842 A0.3175,0.3175 13.0836486 0,0 20.9126789,-36.6573478 A0.3175,0.3175 126.6618271 0,1 20.7929974,-36.9839115 L23.3205718,-47.8595745 36.1503802,-43.9765655 37.7052468,-41.0720407 19.4991288,3.9896825 -33.8408712,3.9896825 -36.3808712,1.4496825 -36.3808712,-3.9896825 11.6118888,-3.9896825 A1.905,1.905 90 0,0 13.4674362,-5.4634413 L18.8045398,-28.4279639z" transform="matrix(1,0,0,-1,36.3808712,3.9896825)" fill="rgb(0,0,0)" stroke-linecap="round" stroke-linejoin="round" /><path d="M-21.7013486,-2.0846825 a0.15875,0.15875 0 1,1 0.3175,0 a0.15875,0.15875 0 1,1 -0.3175,0z" transform="matrix(1,0,0,-1,36.3808712,3.9896825)" fill="rgb(255,255,255)" stroke="rgb(0,0,0)" stroke-width="0.0010cm" stroke-linecap="round" stroke-linejoin="round" /><path d="M0.6633514,-2.0846825 a0.15875,0.15875 0 1,1 0.3175,0 a0.15875,0.15875 0 1,1 -0.3175,0z" transform="matrix(1,0,0,-1,36.3808712,3.9896825)" fill="rgb(255,255,255)" stroke="rgb(0,0,0)" stroke-width="0.0010cm" stroke-linecap="round" stroke-linejoin="round" /><path d="M4.1558514,-2.0846825 a0.15875,0.15875 0 1,1 0.3175,0 a0.15875,0.15875 0 1,1 -0.3175,0z" transform="matrix(1,0,0,-1,36.3808712,3.9896825)" fill="rgb(255,255,255)" stroke="rgb(0,0,0)" stroke-width="0.0010cm" stroke-linecap="round" stroke-linejoin="round" /><path d="M21.2334714,-7.4763326 a0.15875,0.15875 0 1,1 0.3175,0 a0.15875,0.15875 0 1,1 -0.3175,0z" transform="matrix(1,0,0,-1,36.3808712,3.9896825)" fill="rgb(255,255,255)" stroke="rgb(0,0,0)" stroke-width="0.0010cm" stroke-linecap="round" stroke-linejoin="round" /><path d="M25.0231589,-44.6481446 a0.15875,0.15875 0 1,1 0.3175,0 a0.15875,0.15875 0 1,1 -0.3175,0z" transform="matrix(1,0,0,-1,36.3808712,3.9896825)" fill="rgb(255,255,255)" stroke="rgb(0,0,0)" stroke-width="0.0010cm" stroke-linecap="round" stroke-linejoin="round" /><path d="M18.1821155,-2.0428514 a0.15875,0.15875 0 1,1 0.3175,0 a0.15875,0.15875 0 1,1 -0.3175,0z" transform="matrix(1,0,0,-1,36.3808712,3.9896825)" fill="rgb(255,255,255)" stroke="rgb(0,0,0)" stroke-width="0.0010cm" stroke-linecap="round" stroke-linejoin="round" /><path d="M16.4575204,2.2256713 a0.15875,0.15875 0 1,1 0.3175,0 a0.15875,0.15875 0 1,1 -0.3175,0z" transform="matrix(1,0,0,-1,36.3808712,3.9896825)" fill="rgb(255,255,255)" stroke="rgb(0,0,0)" stroke-width="0.0010cm" stroke-linecap="round" stroke-linejoin="round" /><path d="M-3.3497373,1.2490675 L-11.2872373,1.2490675 A0.47625,0.47625 270 0,0 -11.2872373,2.2015675 L-3.3497373,2.2015675 A0.47625,0.47625 90 1,0 -3.3497373,1.2490675z" transform="matrix(1,0,0,-1,36.3808712,3.9896825)" fill="rgb(255,255,255)" stroke="rgb(0,0,0)" stroke-width="0.0010cm" stroke-linecap="round" stroke-linejoin="round" /><path d="M-25.7144373,1.2490675 L-33.6519373,1.2490675 A0.47625,0.47625 270 1,0 -33.6519373,2.2015675 L-25.7144373,2.2015675 A0.47625,0.47625 90 0,0 -25.7144373,1.2490675z" transform="matrix(1,0,0,-1,36.3808712,3.9896825)" fill="rgb(255,255,255)" stroke="rgb(0,0,0)" stroke-width="0.0010cm" stroke-linecap="round" stroke-linejoin="round" /><path d="M35.0302322,-41.624514 a0.15875,0.15875 0 1,1 0.3175,0 a0.15875,0.15875 0 1,1 -0.3175,0z" transform="matrix(1,0,0,-1,36.3808712,3.9896825)" fill="rgb(255,255,255)" stroke="rgb(0,0,0)" stroke-width="0.0010cm" stroke-linecap="round" stroke-linejoin="round" /><path d="M16.6858288,-8.7742289 a0.15875,0.15875 0 1,1 0.3175,0 a0.15875,0.15875 0 1,1 -0.3175,0z" transform="matrix(1,0,0,-1,36.3808712,3.9896825)" fill="rgb(255,255,255)" stroke="rgb(0,0,0)" stroke-width="0.0010cm" stroke-linecap="round" stroke-linejoin="round" /><path d="M4.1558514,2.0846825 a0.15875,0.15875 0 1,1 0.3175,0 a0.15875,0.15875 0 1,1 -0.3175,0z" transform="matrix(1,0,0,-1,36.3808712,3.9896825)" fill="rgb(255,255,255)" stroke="rgb(0,0,0)" stroke-width="0.0010cm" stroke-linecap="round" stroke-linejoin="round" /><path d="M0.6633514,2.0846825 a0.15875,0.15875 0 1,1 0.3175,0 a0.15875,0.15875 0 1,1 -0.3175,0z" transform="matrix(1,0,0,-1,36.3808712,3.9896825)" fill="rgb(255,255,255)" stroke="rgb(0,0,0)" stroke-width="0.0010cm" stroke-linecap="round" stroke-linejoin="round" /><path d="M-21.7013486,2.0846825 a0.15875,0.15875 0 1,1 0.3175,0 a0.15875,0.15875 0 1,1 -0.3175,0z" transform="matrix(1,0,0,-1,36.3808712,3.9896825)" fill="rgb(255,255,255)" stroke="rgb(0,0,0)" stroke-width="0.0010cm" stroke-linecap="round" stroke-linejoin="round" /></svg>