<?xml version="1.0" encoding="utf-8"?>
<!-- Generator: Fusion 360, Shaper Origin Export Add-In, Version 1.6.10  -->
<svg xmlns="http://www.w3.org/2000/svg" xmlns:xlink="http://www.w3.org/1999/xlink" xmlns:shaper="http://www.shapertools.com/namespaces/shaper" shaper:fusionaddin="version:1.6.10" width="51.4904726cm" height="36.905cm" version="1.1" x="0cm" y="0cm" viewBox="0 0 51.4904726 36.905" enable-background="new 0 0 51.4904726 36.905" xml:space="preserve"><path d="M23.0932726,-9.1075 L23.0932726,-5.2975 4.1275,-5.2975 A2.54,2.54 270 0,0 1.5875,-2.7575 L1.5875,2.7575 A2.54,2.54 180 0,0 4.1275,5.2975 L23.0932726,5.2975 23.0932726,9.1075 17.1114447,11.2847073 A6.35,6.35 250 0,0 12.9564232,16.7100205 A1.905,1.905 4.8940004 0,1 11.0583684,18.4525 L-26.4922,18.4525 A1.905,1.905 90 0,1 -28.3972,16.5475 L-28.3972,15.4832575 A1.905,1.905 180 0,1 -27.8174174,14.1147459 A12.7,12.7 45.9207902 0,0 -23.9522,4.9913356 L-23.9522,-4.9913356 A12.7,12.7 0 0,0 -27.8174174,-14.1147459 A1.905,1.905 134.0792098 0,1 -28.3972,-15.4832575 L-28.3972,-16.5475 A1.905,1.905 180 0,1 -26.4922,-18.4525 L11.0583684,-18.4525 A1.905,1.905 270 0,1 12.9564232,-16.7100205 A6.35,6.35 175.1059996 0,0 17.1114447,-11.2847073 L23.0932726,-9.1075z" transform="matrix(1,0,0,-1,28.3972,18.4525)" fill="rgb(0,0,0)" stroke-linecap="round" stroke-linejoin="round" /><path d="M4.60375,-8.155 a0.15875,0.15875 0 1,1 0.3175,0 a0.15875,0.15875 0 1,1 -0.3175,0z" transform="matrix(1,0,0,-1,28.3972,18.4525)" fill="rgb(255,255,255)" stroke="rgb(0,0,0)" stroke-width="0.0010cm" stroke-linecap="round" stroke-linejoin="round" /><path d="M-1.5657055,-17.5 a0.15875,0.15875 0 1,1 0.3175,0 a0.15875,0.15875 0 1,1 -0.3175,0z" transform="matrix(1,0,0,-1,28.3972,18.4525)" fill="rgb(255,255,255)" stroke="rgb(0,0,0)" stroke-width="0.0010cm" stroke-linecap="round" stroke-linejoin="round" /><path d="M-14.1083277,-17.5 a0.15875,0.15875 0 1,1 0.3175,0 a0.15875,0.15875 0 1,1 -0.3175,0z" transform="matrix(1,0,0,-1,28.3972,18.4525)" fill="rgb(255,255,255)" stroke="rgb(0,0,0)" stroke-width="0.0010cm" stroke-linecap="round" stroke-linejoin="round" /><path d="M-21.88845,-12.7375 a0.15875,0.15875 0 1,1 0.3175,0 a0.15875,0.15875 0 1,1 -0.3175,0z" transform="matrix(1,0,0,-1,28.3972,18.4525)" fill="rgb(255,255,255)" stroke="rgb(0,0,0)" stroke-width="0.0010cm" stroke-linecap="round" stroke-linejoin="round" /><path d="M-21.88845,3.81 a0.15875,0.15875 0 1,1 0.3175,0 a0.15875,0.15875 0 1,1 -0.3175,0z" transform="matrix(1,0,0,-1,28.3972,18.4525)" fill="rgb(255,255,255)" stroke="rgb(0,0,0)" stroke-width="0.0010cm" stroke-linecap="round" stroke-linejoin="round" /><path d="M-26.65095,17.5 a0.15875,0.15875 0 1,1 0.3175,0 a0.15875,0.15875 0 1,1 -0.3175,0z" transform="matrix(1,0,0,-1,28.3972,18.4525)" fill="rgb(255,255,255)" stroke="rgb(0,0,0)" stroke-width="0.0010cm" stroke-linecap="round" stroke-linejoin="round" /><path d="M-7.8370166,17.5 a0.15875,0.15875 0 1,1 0.3175,0 a0.15875,0.15875 0 1,1 -0.3175,0z" transform="matrix(1,0,0,-1,28.3972,18.4525)" fill="rgb(255,255,255)" stroke="rgb(0,0,0)" stroke-width="0.0010cm" stroke-linecap="round" stroke-linejoin="round" /><path d="M0.47625,-3.81 a0.15875,0.15875 0 1,1 0.3175,0 a0.15875,0.15875 0 1,1 -0.3175,0z" transform="matrix(1,0,0,-1,28.3972,18.4525)" fill="rgb(255,255,255)" stroke="rgb(0,0,0)" stroke-width="0.0010cm" stroke-linecap="round" stroke-linejoin="round" /><path d="M0.47625,12.7375 a0.15875,0.15875 0 1,1 0.3175,0 a0.15875,0.15875 0 1,1 -0.3175,0z" transform="matrix(1,0,0,-1,28.3972,18.4525)" fill="rgb(255,255,255)" stroke="rgb(0,0,0)" stroke-width="0.0010cm" stroke-linecap="round" stroke-linejoin="round" /><path d="M10.9769168,17.5 a0.15875,0.15875 0 1,1 0.3175,0 a0.15875,0.15875 0 1,1 -0.3175,0z" transform="matrix(1,0,0,-1,28.3972,18.4525)" fill="rgb(255,255,255)" stroke="rgb(0,0,0)" stroke-width="0.0010cm" stroke-linecap="round" stroke-linejoin="round" /><path d="M19.7595226,-8.155 a0.15875,0.15875 0 1,1 0.3175,0 a0.15875,0.15875 0 1,1 -0.3175,0z" transform="matrix(1,0,0,-1,28.3972,18.4525)" fill="rgb(255,255,255)" stroke="rgb(0,0,0)" stroke-width="0.0010cm" stroke-linecap="round" stroke-linejoin="round" /><path d="M19.7595226,8.155 a0.15875,0.15875 0 1,1 0.3175,0 a0.15875,0.15875 0 1,1 -0.3175,0z" transform="matrix(1,0,0,-1,28.3972,18.4525)" fill="rgb(255,255,255)" stroke="rgb(0,0,0)" stroke-width="0.0010cm" stroke-linecap="round" stroke-linejoin="round" /><path d="M-19.6495513,-13.8551 a2.032,2.032 0 1,1 4.064,0 a2.032,2.032 0 1,1 -4.064,0z" transform="matrix(1,0,0,-1,28.3972,18.4525)" fill="rgb(255,255,255)" stroke="rgb(0,0,0)" stroke-width="0.0010cm" stroke-linecap="round" stroke-linejoin="round" /><path d="M2.7151487,13.8551 a2.032,2.032 0 1,1 4.064,0 a2.032,2.032 0 1,1 -4.064,0z" transform="matrix(1,0,0,-1,28.3972,18.4525)" fill="rgb(255,255,255)" stroke="rgb(0,0,0)" stroke-width="0.0010cm" stroke-linecap="round" stroke-linejoin="round" /><path d="M-10.4366878,12.7375 L-7.9375,12.7375 A6.35,6.35 90 0,0 -1.5875,6.3875 L-1.5875,-6.3875 A6.35,6.35 0 0,0 -7.9375,-12.7375 L-10.4366878,-12.7375 A12.7,12.7 270 0,0 -19.4169439,-9.0177561 L-20.4052256,-8.0294744 A1.27,1.27 225 0,0 -20.7772,-7.1314488 L-20.7772,7.1314488 A1.27,1.27 180 0,0 -20.4052256,8.0294744 L-19.4169439,9.0177561 A12.7,12.7 135 0,0 -10.4366878,12.7375z" transform="matrix(1,0,0,-1,28.3972,18.4525)" fill="rgb(255,255,255)" stroke="rgb(0,0,0)" stroke-width="0.0010cm" stroke-linecap="round" stroke-linejoin="round" /><path d="M2.7151487,-13.8551 a2.032,2.032 0 1,1 4.064,0 a2.032,2.032 0 1,1 -4.064,0z" transform="matrix(1,0,0,-1,28.3972,18.4525)" fill="rgb(255,255,255)" stroke="rgb(0,0,0)" stroke-width="0.0010cm" stroke-linecap="round" stroke-linejoin="round" /><path d="M-19.6495513,13.8551 a2.032,2.032 0 1,1 4.064,0 a2.032,2.032 0 1,1 -4.064,0z" transform="matrix(1,0,0,-1,28.3972,18.4525)" fill="rgb(255,255,255)" stroke="rgb(0,0,0)" stroke-width="0.0010cm" stroke-linecap="round" stroke-linejoin="round" /><path d="M12.1816363,8.155 a0.15875,0.15875 0 1,1 0.3175,0 a0.15875,0.15875 0 1,1 -0.3175,0z" transform="matrix(1,0,0,-1,28.3972,18.4525)" fill="rgb(255,255,255)" stroke="rgb(0,0,0)" stroke-width="0.0010cm" stroke-linecap="round" stroke-linejoin="round" /><path d="M12.1816363,-8.155 a0.15875,0.15875 0 1,1 0.3175,0 a0.15875,0.15875 0 1,1 -0.3175,0z" transform="matrix(1,0,0,-1,28.3972,18.4525)" fill="rgb(255,255,255)" stroke="rgb(0,0,0)" stroke-width="0.0010cm" stroke-linecap="round" stroke-linejoin="round" /><path d="M4.60375,8.155 a0.15875,0.15875 0 1,1 0.3175,0 a0.15875,0.15875 0 1,1 -0.3175,0z" transform="matrix(1,0,0,-1,28.3972,18.4525)" fill="rgb(255,255,255)" stroke="rgb(0,0,0)" stroke-width="0.0010cm" stroke-linecap="round" stroke-linejoin="round" /><path d="M0.47625,3.81 a0.15875,0.15875 0 1,1 0.3175,0 a0.15875,0.15875 0 1,1 -0.3175,0z" transform="matrix(1,0,0,-1,28.3972,18.4525)" fill="rgb(255,255,255)" stroke="rgb(0,0,0)" stroke-width="0.0010cm" stroke-linecap="round" stroke-linejoin="round" /><path d="M-1.5657055,17.5 a0.15875,0.15875 0 1,1 0.3175,0 a0.15875,0.15875 0 1,1 -0.3175,0z" transform="matrix(1,0,0,-1,28.3972,18.4525)" fill="rgb(255,255,255)" stroke="rgb(0,0,0)" stroke-width="0.0010cm" stroke-linecap="round" stroke-linejoin="round" /><path d="M-14.1083277,17.5 a0.15875,0.15875 0 1,1 0.3175,0 a0.15875,0.15875 0 1,1 -0.3175,0z" transform="matrix(1,0,0,-1,28.3972,18.4525)" fill="rgb(255,255,255)" stroke="rgb(0,0,0)" stroke-width="0.0010cm" stroke-linecap="round" stroke-linejoin="round" /><path d="M-21.88845,12.7375 a0.15875,0.15875 0 1,1 0.3175,0 a0.15875,0.15875 0 1,1 -0.3175,0z" transform="matrix(1,0,0,-1,28.3972,18.4525)" fill="rgb(255,255,255)" stroke="rgb(0,0,0)" stroke-width="0.0010cm" stroke-linecap="round" stroke-linejoin="round" /><path d="M-21.88845,-3.81 a0.15875,0.15875 0 1,1 0.3175,0 a0.15875,0.15875 0 1,1 -0.3175,0z" transform="matrix(1,0,0,-1,28.3972,18.4525)" fill="rgb(255,255,255)" stroke="rgb(0,0,0)" stroke-width="0.0010cm" stroke-linecap="round" stroke-linejoin="round" /><path d="M-26.65095,-17.5 a0.15875,0.15875 0 1,1 0.3175,0 a0.15875,0.15875 0 1,1 -0.3175,0z" transform="matrix(1,0,0,-1,28.3972,18.4525)" fill="rgb(255,255,255)" stroke="rgb(0,0,0)" stroke-width="0.0010cm" stroke-linecap="round" stroke-linejoin="round" /><path d="M-7.8370166,-17.5 a0.15875,0.15875 0 1,1 0.3175,0 a0.15875,0.15875 0 1,1 -0.3175,0z" transform="matrix(1,0,0,-1,28.3972,18.4525)" fill="rgb(255,255,255)" stroke="rgb(0,0,0)" stroke-width="0.0010cm" stroke-linecap="round" stroke-linejoin="round" /><path d="M0.47625,-12.7375 a0.15875,0.15875 0 1,1 0.3175,0 a0.15875,0.15875 0 1,1 -0.3175,0z" transform="matrix(1,0,0,-1,28.3972,18.4525)" fill="rgb(255,255,255)" stroke="rgb(0,0,0)" stroke-width="0.0010cm" stroke-linecap="round" stroke-linejoin="round" /><path d="M10.9769168,-17.5 a0.15875,0.15875 0 1,1 0.3175,0 a0.15875,0.15875 0 1,1 -0.3175,0z" transform="matrix(1,0,0,-1,28.3972,18.4525)" fill="rgb(255,255,255)" stroke="rgb(0,0,0)" stroke-width="0.0010cm" stroke-linecap="round" stroke-linejoin="round" /></svg>