<?xml version="1.0" encoding="utf-8"?>
<!-- Generator: Fusion 360, Shaper Origin Export Add-In, Version 1.6.10  -->
<svg xmlns="http://www.w3.org/2000/svg" xmlns:xlink="http://www.w3.org/1999/xlink" xmlns:shaper="http://www.shapertools.com/namespaces/shaper" shaper:fusionaddin="version:1.6.10" width="73.025cm" height="18.915202cm" version="1.1" x="0cm" y="0cm" viewBox="0 0 73.025 18.915202" enable-background="new 0 0 73.025 18.915202" xml:space="preserve"><path d="M-8.6065325,-3.14298 L-8.6065325,-13.3688654 A0.635,0.635 180 0,1 -7.9715325,-14.0038654 L-3.1439627,-14.0038654 A0.635,0.635 270 0,1 -2.5089627,-13.3688654 L-2.5089627,-11.2006101 A0.3175,0.3175 180 0,0 -2.1417947,-10.8870191 L5.8146255,-12.1471922 A0.635,0.635 261 0,1 6.0568053,-12.1387351 L9.5718812,-11.3272159 A0.635,0.635 283 0,1 10.0640373,-10.7084909 L10.0640373,-6.2430285 A1.27,1.27 180 0,0 11.3340373,-4.9730285 L36.4184675,-4.9730285 36.4184675,3.0063366 15.6226465,3.0063366 A0.635,0.635 90 0,1 15.1493455,2.79467 A0.3175,0.3175 318.1896851 1,0 14.7010283,3.2429872 A0.635,0.635 311.8103149 0,1 14.9126949,3.7162882 L14.9126949,4.9113366 -36.6065325,4.9113366 -36.6065325,-2.4330285 -9.3164841,-2.4330285 A0.635,0.635 270 0,1 -8.843183,-2.2213618 A0.3175,0.3175 138.1896851 1,0 -8.3948658,-2.669679 A0.635,0.635 131.8103149 0,1 -8.6065325,-3.14298z" transform="matrix(1,0,0,-1,36.6065325,4.9113366)" fill="rgb(0,0,0)" stroke-linecap="round" stroke-linejoin="round" /><path d="M-13.2492715,3.2819715 a0.436499,0.436499 0 1,1 0.872998,0 a0.436499,0.436499 0 1,1 -0.872998,0z" transform="matrix(1,0,0,-1,36.6065325,4.9113366)" fill="rgb(255,255,255)" stroke="rgb(0,0,0)" stroke-width="0.0010cm" stroke-linecap="round" stroke-linejoin="round" /><path d="M-30.9317915,3.2819715 a0.436499,0.436499 0 1,1 0.872998,0 a0.436499,0.436499 0 1,1 -0.872998,0z" transform="matrix(1,0,0,-1,36.6065325,4.9113366)" fill="rgb(255,255,255)" stroke="rgb(0,0,0)" stroke-width="0.0010cm" stroke-linecap="round" stroke-linejoin="round" /><path d="M15.7064449,1.7363366 a0.15875,0.15875 0 1,1 0.3175,0 a0.15875,0.15875 0 1,1 -0.3175,0z" transform="matrix(1,0,0,-1,36.6065325,4.9113366)" fill="rgb(255,255,255)" stroke="rgb(0,0,0)" stroke-width="0.0010cm" stroke-linecap="round" stroke-linejoin="round" /><path d="M15.7064449,-3.7030285 a0.15875,0.15875 0 1,1 0.3175,0 a0.15875,0.15875 0 1,1 -0.3175,0z" transform="matrix(1,0,0,-1,36.6065325,4.9113366)" fill="rgb(255,255,255)" stroke="rgb(0,0,0)" stroke-width="0.0010cm" stroke-linecap="round" stroke-linejoin="round" /><path d="M-0.5102825,-6.7726634 a0.15875,0.15875 0 1,1 0.3175,0 a0.15875,0.15875 0 1,1 -0.3175,0z" transform="matrix(1,0,0,-1,36.6065325,4.9113366)" fill="rgb(255,255,255)" stroke="rgb(0,0,0)" stroke-width="0.0010cm" stroke-linecap="round" stroke-linejoin="round" /><path d="M-0.5102825,2.3713366 a0.15875,0.15875 0 1,1 0.3175,0 a0.15875,0.15875 0 1,1 -0.3175,0z" transform="matrix(1,0,0,-1,36.6065325,4.9113366)" fill="rgb(255,255,255)" stroke="rgb(0,0,0)" stroke-width="0.0010cm" stroke-linecap="round" stroke-linejoin="round" /><path d="M-32.9552825,-0.5280285 a0.15875,0.15875 0 1,1 0.3175,0 a0.15875,0.15875 0 1,1 -0.3175,0z" transform="matrix(1,0,0,-1,36.6065325,4.9113366)" fill="rgb(255,255,255)" stroke="rgb(0,0,0)" stroke-width="0.0010cm" stroke-linecap="round" stroke-linejoin="round" /><path d="M-32.9552825,3.0063366 a0.15875,0.15875 0 1,1 0.3175,0 a0.15875,0.15875 0 1,1 -0.3175,0z" transform="matrix(1,0,0,-1,36.6065325,4.9113366)" fill="rgb(255,255,255)" stroke="rgb(0,0,0)" stroke-width="0.0010cm" stroke-linecap="round" stroke-linejoin="round" /><path d="M34.3547175,-3.0680285 a0.15875,0.15875 0 1,1 0.3175,0 a0.15875,0.15875 0 1,1 -0.3175,0z" transform="matrix(1,0,0,-1,36.6065325,4.9113366)" fill="rgb(255,255,255)" stroke="rgb(0,0,0)" stroke-width="0.0010cm" stroke-linecap="round" stroke-linejoin="round" /><path d="M34.3547175,1.7363366 a0.15875,0.15875 0 1,1 0.3175,0 a0.15875,0.15875 0 1,1 -0.3175,0z" transform="matrix(1,0,0,-1,36.6065325,4.9113366)" fill="rgb(255,255,255)" stroke="rgb(0,0,0)" stroke-width="0.0010cm" stroke-linecap="round" stroke-linejoin="round" /><path d="M8.4765373,-7.4040012 a0.635,0.635 0 1,1 1.27,0 a0.635,0.635 0 1,1 -1.27,0z" transform="matrix(1,0,0,-1,36.6065325,4.9113366)" fill="rgb(255,255,255)" stroke="rgb(0,0,0)" stroke-width="0.0010cm" stroke-linecap="round" stroke-linejoin="round" /><path d="M6.2540373,-7.4040012 a0.635,0.635 0 1,1 1.27,0 a0.635,0.635 0 1,1 -1.27,0z" transform="matrix(1,0,0,-1,36.6065325,4.9113366)" fill="rgb(255,255,255)" stroke="rgb(0,0,0)" stroke-width="0.0010cm" stroke-linecap="round" stroke-linejoin="round" /><path d="M6.2540373,-10.9690446 a0.635,0.635 0 1,1 1.27,0 a0.635,0.635 0 1,1 -1.27,0z" transform="matrix(1,0,0,-1,36.6065325,4.9113366)" fill="rgb(255,255,255)" stroke="rgb(0,0,0)" stroke-width="0.0010cm" stroke-linecap="round" stroke-linejoin="round" /><path d="M8.4765373,-10.45594 a0.635,0.635 0 1,1 1.27,0 a0.635,0.635 0 1,1 -1.27,0z" transform="matrix(1,0,0,-1,36.6065325,4.9113366)" fill="rgb(255,255,255)" stroke="rgb(0,0,0)" stroke-width="0.0010cm" stroke-linecap="round" stroke-linejoin="round" /><path d="M4.2929107,-9.5027388 a0.635,0.635 0 1,1 1.27,0 a0.635,0.635 0 1,1 -1.27,0z" transform="matrix(1,0,0,-1,36.6065325,4.9113366)" fill="rgb(255,255,255)" stroke="rgb(0,0,0)" stroke-width="0.0010cm" stroke-linecap="round" stroke-linejoin="round" /><path d="M4.2929107,-3.264992 a0.635,0.635 0 1,1 1.27,0 a0.635,0.635 0 1,1 -1.27,0z" transform="matrix(1,0,0,-1,36.6065325,4.9113366)" fill="rgb(255,255,255)" stroke="rgb(0,0,0)" stroke-width="0.0010cm" stroke-linecap="round" stroke-linejoin="round" /><path d="M-1.9448361,-3.264992 a0.635,0.635 0 1,1 1.27,0 a0.635,0.635 0 1,1 -1.27,0z" transform="matrix(1,0,0,-1,36.6065325,4.9113366)" fill="rgb(255,255,255)" stroke="rgb(0,0,0)" stroke-width="0.0010cm" stroke-linecap="round" stroke-linejoin="round" /><path d="M-1.9448361,-9.5027388 a0.635,0.635 0 1,1 1.27,0 a0.635,0.635 0 1,1 -1.27,0z" transform="matrix(1,0,0,-1,36.6065325,4.9113366)" fill="rgb(255,255,255)" stroke="rgb(0,0,0)" stroke-width="0.0010cm" stroke-linecap="round" stroke-linejoin="round" /><path d="M-4.0964627,-9.8763654 a0.635,0.635 0 1,1 1.27,0 a0.635,0.635 0 1,1 -1.27,0z" transform="matrix(1,0,0,-1,36.6065325,4.9113366)" fill="rgb(255,255,255)" stroke="rgb(0,0,0)" stroke-width="0.0010cm" stroke-linecap="round" stroke-linejoin="round" /><path d="M-4.0964627,-12.7338654 a0.635,0.635 0 1,1 1.27,0 a0.635,0.635 0 1,1 -1.27,0z" transform="matrix(1,0,0,-1,36.6065325,4.9113366)" fill="rgb(255,255,255)" stroke="rgb(0,0,0)" stroke-width="0.0010cm" stroke-linecap="round" stroke-linejoin="round" /><path d="M-7.6540325,-12.7338654 a0.635,0.635 0 1,1 1.27,0 a0.635,0.635 0 1,1 -1.27,0z" transform="matrix(1,0,0,-1,36.6065325,4.9113366)" fill="rgb(255,255,255)" stroke="rgb(0,0,0)" stroke-width="0.0010cm" stroke-linecap="round" stroke-linejoin="round" /><path d="M-7.6540325,-9.8763654 a0.635,0.635 0 1,1 1.27,0 a0.635,0.635 0 1,1 -1.27,0z" transform="matrix(1,0,0,-1,36.6065325,4.9113366)" fill="rgb(255,255,255)" stroke="rgb(0,0,0)" stroke-width="0.0010cm" stroke-linecap="round" stroke-linejoin="round" /></svg>