<?xml version="1.0" encoding="utf-8"?>
<!-- Generator: Fusion 360, Shaper Origin Export Add-In, Version 1.6.10  -->
<svg xmlns="http://www.w3.org/2000/svg" xmlns:xlink="http://www.w3.org/1999/xlink" xmlns:shaper="http://www.shapertools.com/namespaces/shaper" shaper:fusionaddin="version:1.6.10" width="45.6177533cm" height="46.355cm" version="1.1" x="0cm" y="0cm" viewBox="0 0 45.6177533 46.355" enable-background="new 0 0 45.6177533 46.355" xml:space="preserve"><path d="M-22.8088766,-20.600375 L-13.2838766,-20.600375 A0.635,0.635 90 0,0 -12.6488766,-21.235375 L-12.6488766,-23.1775 -10.4775,-23.1775 A2.54,2.54 270 0,1 -7.9375,-20.6375 L-7.9375,-20.1295 -7.9375,-20.1295 -7.9374373,-20.0481741 -7.93725,-19.9678944 -7.9369397,-19.8886416 -7.9365076,-19.8103969 -7.9359551,-19.733142 -7.9352834,-19.656859 -7.9344939,-19.5815306 -7.9335877,-19.5071398 -7.9325659,-19.4336699 -7.9314298,-19.3611048 -7.9301803,-19.2894286 -7.9288186,-19.218626 -7.9273457,-19.1486817 -7.9257626,-19.0795812 -7.9240702,-19.0113101 -7.9222694,-18.9438542 -7.9203611,-18.8772 -7.9183463,-18.8113339 -7.9162257,-18.7462428 -7.9140002,-18.681914 -7.9116705,-18.618335 -7.9092375,-18.5554934 -7.9067017,-18.4933774 -7.9040639,-18.4319752 -7.9013248,-18.3712755 -7.8984851,-18.3112669 -7.8955453,-18.2519385 -7.8925061,-18.1932798 -7.8893681,-18.13528 -7.8861317,-18.0779291 -7.8827976,-18.021217 -7.8793662,-17.9651338 -7.8758381,-17.90967 -7.8722136,-17.8548161 -7.8646776,-17.7469014 -7.8567616,-17.6413185 -7.8484685,-17.5379987 -7.8398011,-17.4368764 -7.8307619,-17.3378885 -7.821353,-17.2409745 -7.8115763,-17.1460763 -7.8014334,-17.0531379 -7.7909256,-16.9621056 -7.7800542,-16.8729279 -7.7688198,-16.785555 -7.7572233,-16.6999394 -7.745265,-16.6160349 -7.7329449,-16.5337974 -7.7202632,-16.4531842 -7.7072194,-16.3741544 -7.6938131,-16.2966685 -7.6800435,-16.2206885 -7.6659098,-16.1461775 -7.6514108,-16.0731003 -7.6365451,-16.0014228 -7.6213113,-15.9311122 -7.6057074,-15.8621367 -7.5897316,-15.7944657 -7.5733817,-15.7280697 -7.5566553,-15.6629203 -7.5395498,-15.59899 -7.5220625,-15.5362523 -7.5041903,-15.4746816 -7.4859301,-15.4142531 -7.4672785,-15.354943 -7.4482318,-15.2967283 -7.4287862,-15.2395868 -7.4089378,-15.1834968 -7.3886821,-15.1284378 -7.3680149,-15.0743897 -7.3469313,-15.0213332 -7.3254265,-14.9692495 -7.3034953,-14.9181207 -7.2811323,-14.8679293 -7.258332,-14.8186587 -7.2350885,-14.7702925 -7.2113956,-14.7228151 -7.1872471,-14.6762114 -7.1626363,-14.630467 -7.1375563,-14.5855677 -7.112,-14.5415 -7.08596,-14.4982509 -7.0594286,-14.4558079 -7.0323978,-14.4141588 -7.0048593,-14.373292 -6.9768044,-14.3331964 -6.9482244,-14.2938612 -6.9191099,-14.255276 -6.8894514,-14.217431 -6.8592389,-14.1803167 -6.8284622,-14.1439239 -6.7971106,-14.108244 -6.7651731,-14.0732687 -6.7326382,-14.0389899 -6.6994942,-14.0054002 -6.6657287,-13.9724923 -6.6313291,-13.9402595 -6.5962823,-13.9086952 -6.5605745,-13.8777933 -6.5241918,-13.8475481 -6.4871195,-13.8179542 -6.4493425,-13.7890065 -6.4108452,-13.7607002 -6.3716112,-13.7330312 -6.3316238,-13.7059952 -6.2908655,-13.6795886 -6.2493183,-13.6538082 -6.2069634,-13.6286509 -6.1637815,-13.6041141 -6.1197523,-13.5801956 -6.074855,-13.5568933 -6.0290678,-13.5342057 -5.9823684,-13.5121316 -5.9347334,-13.4906701 -5.8861385,-13.4698208 -5.8365586,-13.4495836 -5.7859675,-13.4299587 -5.7343381,-13.4109468 -5.6816422,-13.392549 -5.6278504,-13.3747666 -5.5729322,-13.3576017 -5.5168559,-13.3410565 -5.4595886,-13.3251337 -5.4010958,-13.3098365 -5.3413417,-13.2951687 -5.2802891,-13.2811342 -5.2178992,-13.2677379 -5.1541314,-13.2549846 -5.0889437,-13.2428803 -5.0222919,-13.231431 -4.9541301,-13.2206435 -4.8844105,-13.2105252 -4.8130828,-13.2010842 -4.7400948,-13.1923289 -4.6653917,-13.1842688 -4.5889164,-13.1769139 -4.5106089,-13.1702749 -4.4304065,-13.1643633 -4.3482437,-13.1591915 -4.2640517,-13.1547727 -4.1777583,-13.1511209 -4.0892878,-13.1482511 -4.0442116,-13.1471145 -3.998561,-13.1461795 -3.9523254,-13.1454483 -3.9054942,-13.1449231 -3.8580562,-13.1446062 -3.81,-13.1445 3.81,-13.1445 3.81,-13.1445 3.8580562,-13.1446062 3.9054942,-13.1449231 3.9523254,-13.1454483 3.998561,-13.1461795 4.0442116,-13.1471145 4.0892878,-13.1482511 4.1777583,-13.1511209 4.2640517,-13.1547727 4.3482437,-13.1591915 4.4304065,-13.1643633 4.5106089,-13.1702749 4.5889164,-13.1769139 4.6653917,-13.1842688 4.7400948,-13.1923289 4.8130828,-13.2010842 4.8844105,-13.2105252 4.9541301,-13.2206435 5.0222919,-13.231431 5.0889437,-13.2428803 5.1541314,-13.2549846 5.2178992,-13.2677379 5.2802891,-13.2811342 5.3413417,-13.2951687 5.4010958,-13.3098365 5.4595886,-13.3251337 5.5168559,-13.3410565 5.5729322,-13.3576017 5.6278504,-13.3747666 5.6816422,-13.392549 5.7343381,-13.4109468 5.7859675,-13.4299587 5.8365586,-13.4495836 5.8861385,-13.4698208 5.9347334,-13.4906701 5.9823684,-13.5121316 6.0290678,-13.5342057 6.074855,-13.5568933 6.1197523,-13.5801956 6.1637815,-13.6041141 6.2069634,-13.6286509 6.2493183,-13.6538082 6.2908655,-13.6795886 6.3316238,-13.7059952 6.3716112,-13.7330312 6.4108452,-13.7607002 6.4493425,-13.7890065 6.4871195,-13.8179542 6.5241918,-13.8475481 6.5605745,-13.8777933 6.5962823,-13.9086952 6.6313291,-13.9402595 6.6657287,-13.9724923 6.6994942,-14.0054002 6.7326382,-14.0389899 6.7651731,-14.0732687 6.7971106,-14.108244 6.8284622,-14.1439239 6.8592389,-14.1803167 6.8894514,-14.217431 6.9191099,-14.255276 6.9482244,-14.2938612 6.9768044,-14.3331964 7.0048593,-14.373292 7.0323978,-14.4141588 7.0594286,-14.4558079 7.08596,-14.4982509 7.112,-14.5415 7.1375563,-14.5855677 7.1626363,-14.630467 7.1872471,-14.6762114 7.2113956,-14.7228151 7.2350885,-14.7702925 7.258332,-14.8186587 7.2811323,-14.8679293 7.3034953,-14.9181207 7.3254265,-14.9692495 7.3469313,-15.0213332 7.3680149,-15.0743897 7.3886821,-15.1284378 7.4089378,-15.1834968 7.4287862,-15.2395868 7.4482318,-15.2967283 7.4672785,-15.354943 7.4859301,-15.4142531 7.5041903,-15.4746816 7.5220625,-15.5362523 7.5395498,-15.59899 7.5566553,-15.6629203 7.5733817,-15.7280697 7.5897316,-15.7944657 7.6057074,-15.8621367 7.6213113,-15.9311122 7.6365451,-16.0014228 7.6514108,-16.0731003 7.6659098,-16.1461775 7.6800435,-16.2206885 7.6938131,-16.2966685 7.7072194,-16.3741544 7.7202632,-16.4531842 7.7329449,-16.5337974 7.745265,-16.6160349 7.7572233,-16.6999394 7.7688198,-16.785555 7.7800542,-16.8729279 7.7909256,-16.9621056 7.8014334,-17.0531379 7.8115763,-17.1460763 7.821353,-17.2409745 7.8307619,-17.3378885 7.8398011,-17.4368764 7.8484685,-17.5379987 7.8567616,-17.6413185 7.8646776,-17.7469014 7.8722136,-17.8548161 7.8758381,-17.90967 7.8793662,-17.9651338 7.8827976,-18.021217 7.8861317,-18.0779291 7.8893681,-18.13528 7.8925061,-18.1932798 7.8955453,-18.2519385 7.8984851,-18.3112669 7.9013248,-18.3712755 7.9040639,-18.4319752 7.9067017,-18.4933774 7.9092375,-18.5554934 7.9116705,-18.618335 7.9140002,-18.681914 7.9162257,-18.7462428 7.9183463,-18.8113339 7.9203611,-18.8772 7.9222694,-18.9438542 7.9240702,-19.0113101 7.9257626,-19.0795812 7.9273457,-19.1486817 7.9288186,-19.218626 7.9301803,-19.2894286 7.9314298,-19.3611048 7.9325659,-19.4336699 7.9335877,-19.5071398 7.9344939,-19.5815306 7.9352834,-19.656859 7.9359551,-19.733142 7.9365076,-19.8103969 7.9369397,-19.8886416 7.93725,-19.9678944 7.9374373,-20.0481741 7.9375,-20.1295 7.9375,-20.6375 A2.54,2.54 180 0,1 10.4775,-23.1775 L12.6488766,-23.1775 12.6488766,-21.235375 A0.635,0.635 180 0,0 13.2838766,-20.600375 L22.8088766,-20.600375 22.8088766,23.1775 -22.8088766,23.1775 -22.8088766,-20.600375z" transform="matrix(1,0,0,-1,22.8088766,23.1775)" fill="rgb(0,0,0)" stroke-linecap="round" stroke-linejoin="round" /><path d="M-17.3313766,5.8547 a0.16,0.16 0 1,1 0.32,0 a0.16,0.16 0 1,1 -0.32,0z" transform="matrix(1,0,0,-1,22.8088766,23.1775)" fill="rgb(255,255,255)" stroke="rgb(0,0,0)" stroke-width="0.0010cm" stroke-linecap="round" stroke-linejoin="round" /><path d="M-17.3313766,10.5547 a0.16,0.16 0 1,1 0.32,0 a0.16,0.16 0 1,1 -0.32,0z" transform="matrix(1,0,0,-1,22.8088766,23.1775)" fill="rgb(255,255,255)" stroke="rgb(0,0,0)" stroke-width="0.0010cm" stroke-linecap="round" stroke-linejoin="round" /><path d="M-15.0313766,10.5547 a0.16,0.16 0 1,1 0.32,0 a0.16,0.16 0 1,1 -0.32,0z" transform="matrix(1,0,0,-1,22.8088766,23.1775)" fill="rgb(255,255,255)" stroke="rgb(0,0,0)" stroke-width="0.0010cm" stroke-linecap="round" stroke-linejoin="round" /><path d="M-15.0066316,5.8547 a0.135255,0.135255 0 1,1 0.27051,0 a0.135255,0.135255 0 1,1 -0.27051,0z" transform="matrix(1,0,0,-1,22.8088766,23.1775)" fill="rgb(255,255,255)" stroke="rgb(0,0,0)" stroke-width="0.0010cm" stroke-linecap="round" stroke-linejoin="round" /><path d="M13.621214,-16.4185422 a0.2976626,0.2976626 0 1,1 0.5953252,0 a0.2976626,0.2976626 0 1,1 -0.5953252,0z" transform="matrix(1,0,0,-1,22.8088766,23.1775)" fill="rgb(255,255,255)" stroke="rgb(0,0,0)" stroke-width="0.0010cm" stroke-linecap="round" stroke-linejoin="round" /><path d="M19.336214,-16.4185422 a0.2976626,0.2976626 0 1,1 0.5953252,0 a0.2976626,0.2976626 0 1,1 -0.5953252,0z" transform="matrix(1,0,0,-1,22.8088766,23.1775)" fill="rgb(255,255,255)" stroke="rgb(0,0,0)" stroke-width="0.0010cm" stroke-linecap="round" stroke-linejoin="round" /><path d="M-14.2165392,-16.4185422 a0.2976626,0.2976626 0 1,1 0.5953252,0 a0.2976626,0.2976626 0 1,1 -0.5953252,0z" transform="matrix(1,0,0,-1,22.8088766,23.1775)" fill="rgb(255,255,255)" stroke="rgb(0,0,0)" stroke-width="0.0010cm" stroke-linecap="round" stroke-linejoin="round" /><path d="M-19.9315392,-16.4185422 a0.2976626,0.2976626 0 1,1 0.5953252,0 a0.2976626,0.2976626 0 1,1 -0.5953252,0z" transform="matrix(1,0,0,-1,22.8088766,23.1775)" fill="rgb(255,255,255)" stroke="rgb(0,0,0)" stroke-width="0.0010cm" stroke-linecap="round" stroke-linejoin="round" /><path d="M21.6976266,20.0025 a0.15875,0.15875 0 1,1 0.3175,0 a0.15875,0.15875 0 1,1 -0.3175,0z" transform="matrix(1,0,0,-1,22.8088766,23.1775)" fill="rgb(255,255,255)" stroke="rgb(0,0,0)" stroke-width="0.0010cm" stroke-linecap="round" stroke-linejoin="round" /><path d="M21.6976266,1.2954 a0.15875,0.15875 0 1,1 0.3175,0 a0.15875,0.15875 0 1,1 -0.3175,0z" transform="matrix(1,0,0,-1,22.8088766,23.1775)" fill="rgb(255,255,255)" stroke="rgb(0,0,0)" stroke-width="0.0010cm" stroke-linecap="round" stroke-linejoin="round" /><path d="M21.6976266,-18.6817 a0.15875,0.15875 0 1,1 0.3175,0 a0.15875,0.15875 0 1,1 -0.3175,0z" transform="matrix(1,0,0,-1,22.8088766,23.1775)" fill="rgb(255,255,255)" stroke="rgb(0,0,0)" stroke-width="0.0010cm" stroke-linecap="round" stroke-linejoin="round" /><path d="M10.2676266,21.2725 a0.15875,0.15875 0 1,1 0.3175,0 a0.15875,0.15875 0 1,1 -0.3175,0z" transform="matrix(1,0,0,-1,22.8088766,23.1775)" fill="rgb(255,255,255)" stroke="rgb(0,0,0)" stroke-width="0.0010cm" stroke-linecap="round" stroke-linejoin="round" /><path d="M10.2676266,8.255 a0.15875,0.15875 0 1,1 0.3175,0 a0.15875,0.15875 0 1,1 -0.3175,0z" transform="matrix(1,0,0,-1,22.8088766,23.1775)" fill="rgb(255,255,255)" stroke="rgb(0,0,0)" stroke-width="0.0010cm" stroke-linecap="round" stroke-linejoin="round" /><path d="M10.2676266,-4.7625 a0.15875,0.15875 0 1,1 0.3175,0 a0.15875,0.15875 0 1,1 -0.3175,0z" transform="matrix(1,0,0,-1,22.8088766,23.1775)" fill="rgb(255,255,255)" stroke="rgb(0,0,0)" stroke-width="0.0010cm" stroke-linecap="round" stroke-linejoin="round" /><path d="M11.8551266,-9.8425 a0.15875,0.15875 0 1,1 0.3175,0 a0.15875,0.15875 0 1,1 -0.3175,0z" transform="matrix(1,0,0,-1,22.8088766,23.1775)" fill="rgb(255,255,255)" stroke="rgb(0,0,0)" stroke-width="0.0010cm" stroke-linecap="round" stroke-linejoin="round" /><path d="M11.8551266,-20.955 a0.15875,0.15875 0 1,1 0.3175,0 a0.15875,0.15875 0 1,1 -0.3175,0z" transform="matrix(1,0,0,-1,22.8088766,23.1775)" fill="rgb(255,255,255)" stroke="rgb(0,0,0)" stroke-width="0.0010cm" stroke-linecap="round" stroke-linejoin="round" /><path d="M-12.1726266,-20.955 a0.15875,0.15875 0 1,1 0.3175,0 a0.15875,0.15875 0 1,1 -0.3175,0z" transform="matrix(1,0,0,-1,22.8088766,23.1775)" fill="rgb(255,255,255)" stroke="rgb(0,0,0)" stroke-width="0.0010cm" stroke-linecap="round" stroke-linejoin="round" /><path d="M-12.1726266,-9.8425 a0.15875,0.15875 0 1,1 0.3175,0 a0.15875,0.15875 0 1,1 -0.3175,0z" transform="matrix(1,0,0,-1,22.8088766,23.1775)" fill="rgb(255,255,255)" stroke="rgb(0,0,0)" stroke-width="0.0010cm" stroke-linecap="round" stroke-linejoin="round" /><path d="M-10.5851266,-4.7625 a0.15875,0.15875 0 1,1 0.3175,0 a0.15875,0.15875 0 1,1 -0.3175,0z" transform="matrix(1,0,0,-1,22.8088766,23.1775)" fill="rgb(255,255,255)" stroke="rgb(0,0,0)" stroke-width="0.0010cm" stroke-linecap="round" stroke-linejoin="round" /><path d="M-10.5851266,8.255 a0.15875,0.15875 0 1,1 0.3175,0 a0.15875,0.15875 0 1,1 -0.3175,0z" transform="matrix(1,0,0,-1,22.8088766,23.1775)" fill="rgb(255,255,255)" stroke="rgb(0,0,0)" stroke-width="0.0010cm" stroke-linecap="round" stroke-linejoin="round" /><path d="M-10.5851266,21.2725 a0.15875,0.15875 0 1,1 0.3175,0 a0.15875,0.15875 0 1,1 -0.3175,0z" transform="matrix(1,0,0,-1,22.8088766,23.1775)" fill="rgb(255,255,255)" stroke="rgb(0,0,0)" stroke-width="0.0010cm" stroke-linecap="round" stroke-linejoin="round" /><path d="M-22.0151266,-18.6817 a0.15875,0.15875 0 1,1 0.3175,0 a0.15875,0.15875 0 1,1 -0.3175,0z" transform="matrix(1,0,0,-1,22.8088766,23.1775)" fill="rgb(255,255,255)" stroke="rgb(0,0,0)" stroke-width="0.0010cm" stroke-linecap="round" stroke-linejoin="round" /><path d="M-22.0151266,1.2954 a0.15875,0.15875 0 1,1 0.3175,0 a0.15875,0.15875 0 1,1 -0.3175,0z" transform="matrix(1,0,0,-1,22.8088766,23.1775)" fill="rgb(255,255,255)" stroke="rgb(0,0,0)" stroke-width="0.0010cm" stroke-linecap="round" stroke-linejoin="round" /><path d="M-22.0151266,20.0025 a0.15875,0.15875 0 1,1 0.3175,0 a0.15875,0.15875 0 1,1 -0.3175,0z" transform="matrix(1,0,0,-1,22.8088766,23.1775)" fill="rgb(255,255,255)" stroke="rgb(0,0,0)" stroke-width="0.0010cm" stroke-linecap="round" stroke-linejoin="round" /><path d="M-0.15875,-7.3025 a0.15875,0.15875 0 1,1 0.3175,0 a0.15875,0.15875 0 1,1 -0.3175,0z" transform="matrix(1,0,0,-1,22.8088766,23.1775)" fill="rgb(255,255,255)" stroke="rgb(0,0,0)" stroke-width="0.0010cm" stroke-linecap="round" stroke-linejoin="round" /><path d="M10.5851266,-7.3025 a0.15875,0.15875 0 1,1 0.3175,0 a0.15875,0.15875 0 1,1 -0.3175,0z" transform="matrix(1,0,0,-1,22.8088766,23.1775)" fill="rgb(255,255,255)" stroke="rgb(0,0,0)" stroke-width="0.0010cm" stroke-linecap="round" stroke-linejoin="round" /><path d="M-10.9026266,-7.3025 a0.15875,0.15875 0 1,1 0.3175,0 a0.15875,0.15875 0 1,1 -0.3175,0z" transform="matrix(1,0,0,-1,22.8088766,23.1775)" fill="rgb(255,255,255)" stroke="rgb(0,0,0)" stroke-width="0.0010cm" stroke-linecap="round" stroke-linejoin="round" /><path d="M7.4101266,-4.445 a0.15875,0.15875 0 1,1 0.3175,0 a0.15875,0.15875 0 1,1 -0.3175,0z" transform="matrix(1,0,0,-1,22.8088766,23.1775)" fill="rgb(255,255,255)" stroke="rgb(0,0,0)" stroke-width="0.0010cm" stroke-linecap="round" stroke-linejoin="round" /><path d="M-0.15875,-4.445 a0.15875,0.15875 0 1,1 0.3175,0 a0.15875,0.15875 0 1,1 -0.3175,0z" transform="matrix(1,0,0,-1,22.8088766,23.1775)" fill="rgb(255,255,255)" stroke="rgb(0,0,0)" stroke-width="0.0010cm" stroke-linecap="round" stroke-linejoin="round" /><path d="M-7.7276266,-4.445 a0.15875,0.15875 0 1,1 0.3175,0 a0.15875,0.15875 0 1,1 -0.3175,0z" transform="matrix(1,0,0,-1,22.8088766,23.1775)" fill="rgb(255,255,255)" stroke="rgb(0,0,0)" stroke-width="0.0010cm" stroke-linecap="round" stroke-linejoin="round" /><path d="M7.4101266,22.225 a0.15875,0.15875 0 1,1 0.3175,0 a0.15875,0.15875 0 1,1 -0.3175,0z" transform="matrix(1,0,0,-1,22.8088766,23.1775)" fill="rgb(255,255,255)" stroke="rgb(0,0,0)" stroke-width="0.0010cm" stroke-linecap="round" stroke-linejoin="round" /><path d="M-0.15875,22.225 a0.15875,0.15875 0 1,1 0.3175,0 a0.15875,0.15875 0 1,1 -0.3175,0z" transform="matrix(1,0,0,-1,22.8088766,23.1775)" fill="rgb(255,255,255)" stroke="rgb(0,0,0)" stroke-width="0.0010cm" stroke-linecap="round" stroke-linejoin="round" /><path d="M-7.7276266,22.225 a0.15875,0.15875 0 1,1 0.3175,0 a0.15875,0.15875 0 1,1 -0.3175,0z" transform="matrix(1,0,0,-1,22.8088766,23.1775)" fill="rgb(255,255,255)" stroke="rgb(0,0,0)" stroke-width="0.0010cm" stroke-linecap="round" stroke-linejoin="round" /><path d="M0.9619766,-11.08075 a0.245745,0.245745 0 1,1 0.49149,0 a0.245745,0.245745 0 1,1 -0.49149,0z" transform="matrix(1,0,0,-1,22.8088766,23.1775)" fill="rgb(255,255,255)" stroke="rgb(0,0,0)" stroke-width="0.0010cm" stroke-linecap="round" stroke-linejoin="round" /><path d="M-1.4534666,-11.08075 a0.245745,0.245745 0 1,1 0.49149,0 a0.245745,0.245745 0 1,1 -0.49149,0z" transform="matrix(1,0,0,-1,22.8088766,23.1775)" fill="rgb(255,255,255)" stroke="rgb(0,0,0)" stroke-width="0.0010cm" stroke-linecap="round" stroke-linejoin="round" /><path d="M-0.357124,-10.06475 a0.357124,0.357124 0 1,1 0.714248,0 a0.357124,0.357124 0 1,1 -0.714248,0z" transform="matrix(1,0,0,-1,22.8088766,23.1775)" fill="rgb(255,255,255)" stroke="rgb(0,0,0)" stroke-width="0.0010cm" stroke-linecap="round" stroke-linejoin="round" /><path d="M-0.357124,-12.09675 a0.357124,0.357124 0 1,1 0.714248,0 a0.357124,0.357124 0 1,1 -0.714248,0z" transform="matrix(1,0,0,-1,22.8088766,23.1775)" fill="rgb(255,255,255)" stroke="rgb(0,0,0)" stroke-width="0.0010cm" stroke-linecap="round" stroke-linejoin="round" /></svg>