<?xml version="1.0" encoding="utf-8"?>
<!-- Generator: Fusion 360, Shaper Origin Export Add-In, Version 1.6.10  -->
<svg xmlns="http://www.w3.org/2000/svg" xmlns:xlink="http://www.w3.org/1999/xlink" xmlns:shaper="http://www.shapertools.com/namespaces/shaper" shaper:fusionaddin="version:1.6.10" width="23.1775571cm" height="18.2270393cm" version="1.1" x="0cm" y="0cm" viewBox="0 0 23.1775571 18.2270393" enable-background="new 0 0 23.1775571 18.2270393" xml:space="preserve"><path d="M10.1415938,9.0675461 L-11.5915072,9.0675461 -11.5915072,-9.1474539 10.3159928,-9.1474539 A1.3763402,1.3763402 274.2716406 0,1 11.5859928,-7.8774539 L11.5859928,7.7975461 A1.27,1.27 359.4568407 0,1 10.1415938,9.0675461z" transform="matrix(1,0,0,-1,11.5915072,9.0795854)" fill="rgb(0,0,0)" stroke-linecap="round" stroke-linejoin="round" /><path d="M-7.0381998,-7.8774539 a0.15875,0.15875 0 1,1 0.3175,0 a0.15875,0.15875 0 1,1 -0.3175,0z" transform="matrix(1,0,0,-1,11.5915072,9.0795854)" fill="rgb(255,255,255)" stroke="rgb(0,0,0)" stroke-width="0.0010cm" stroke-linecap="round" stroke-linejoin="round" /><path d="M10.1068002,-7.8774539 a0.15875,0.15875 0 1,1 0.3175,0 a0.15875,0.15875 0 1,1 -0.3175,0z" transform="matrix(1,0,0,-1,11.5915072,9.0795854)" fill="rgb(255,255,255)" stroke="rgb(0,0,0)" stroke-width="0.0010cm" stroke-linecap="round" stroke-linejoin="round" /><path d="M10.1068002,7.7975461 a0.15875,0.15875 0 1,1 0.3175,0 a0.15875,0.15875 0 1,1 -0.3175,0z" transform="matrix(1,0,0,-1,11.5915072,9.0795854)" fill="rgb(255,255,255)" stroke="rgb(0,0,0)" stroke-width="0.0010cm" stroke-linecap="round" stroke-linejoin="round" /><path d="M-7.0381998,7.7975461 a0.15875,0.15875 0 1,1 0.3175,0 a0.15875,0.15875 0 1,1 -0.3175,0z" transform="matrix(1,0,0,-1,11.5915072,9.0795854)" fill="rgb(255,255,255)" stroke="rgb(0,0,0)" stroke-width="0.0010cm" stroke-linecap="round" stroke-linejoin="round" /></svg>