<?xml version="1.0" encoding="utf-8"?>
<!-- Generator: Fusion 360, Shaper Origin Export Add-In, Version 1.6.10  -->
<svg xmlns="http://www.w3.org/2000/svg" xmlns:xlink="http://www.w3.org/1999/xlink" xmlns:shaper="http://www.shapertools.com/namespaces/shaper" shaper:fusionaddin="version:1.6.10" width="45.6177533cm" height="28.575cm" version="1.1" x="0cm" y="0cm" viewBox="0 0 45.6177533 28.575" enable-background="new 0 0 45.6177533 28.575" xml:space="preserve"><path d="M22.8088766,-3.33375 L22.8088766,25.24125 -22.8088766,25.24125 -22.8088766,-3.33375 22.8088766,-3.33375z" transform="matrix(1,0,0,-1,22.8088766,25.24125)" fill="rgb(0,0,0)" stroke-linecap="round" stroke-linejoin="round" /><path d="M-22.0151266,0.79375 a0.15875,0.15875 0 1,1 0.3175,0 a0.15875,0.15875 0 1,1 -0.3175,0z" transform="matrix(1,0,0,-1,22.8088766,25.24125)" fill="rgb(255,255,255)" stroke="rgb(0,0,0)" stroke-width="0.0010cm" stroke-linecap="round" stroke-linejoin="round" /><path d="M21.6976266,23.33625 a0.15875,0.15875 0 1,1 0.3175,0 a0.15875,0.15875 0 1,1 -0.3175,0z" transform="matrix(1,0,0,-1,22.8088766,25.24125)" fill="rgb(255,255,255)" stroke="rgb(0,0,0)" stroke-width="0.0010cm" stroke-linecap="round" stroke-linejoin="round" /><path d="M-21.9325766,7.14375 L-21.9325766,14.76375 A3.81,3.81 180 0,0 -18.1225766,18.57375 L18.1225766,18.57375 A3.81,3.81 90 0,0 21.9325766,14.76375 L21.9325766,7.14375 A3.81,3.81 0 0,0 18.1225766,3.33375 L-18.1225766,3.33375 A3.81,3.81 270 0,0 -21.9325766,7.14375z" transform="matrix(1,0,0,-1,22.8088766,25.24125)" fill="rgb(255,255,255)" stroke="rgb(0,0,0)" stroke-width="0.0010cm" stroke-linecap="round" stroke-linejoin="round" /><path d="M21.6976266,0.79375 a0.15875,0.15875 0 1,1 0.3175,0 a0.15875,0.15875 0 1,1 -0.3175,0z" transform="matrix(1,0,0,-1,22.8088766,25.24125)" fill="rgb(255,255,255)" stroke="rgb(0,0,0)" stroke-width="0.0010cm" stroke-linecap="round" stroke-linejoin="round" /><path d="M-22.0151266,23.33625 a0.15875,0.15875 0 1,1 0.3175,0 a0.15875,0.15875 0 1,1 -0.3175,0z" transform="matrix(1,0,0,-1,22.8088766,25.24125)" fill="rgb(255,255,255)" stroke="rgb(0,0,0)" stroke-width="0.0010cm" stroke-linecap="round" stroke-linejoin="round" /></svg>