<?xml version="1.0" encoding="utf-8"?>
<!-- Generator: Fusion 360, Shaper Origin Export Add-In, Version 1.6.10  -->
<svg xmlns="http://www.w3.org/2000/svg" xmlns:xlink="http://www.w3.org/1999/xlink" xmlns:shaper="http://www.shapertools.com/namespaces/shaper" shaper:fusionaddin="version:1.6.10" width="24.825cm" height="15.707555cm" version="1.1" x="0cm" y="0cm" viewBox="0 0 24.825 15.707555" enable-background="new 0 0 24.825 15.707555" xml:space="preserve"><path d="M-11.7891106,-0.2160299 L8.0074942,-2.5373042 13.0358894,13.1702508 -11.7891106,13.1702508 -11.7891106,-0.2160299z" transform="matrix(1,0,0,-1,11.7891106,13.1702508)" fill="rgb(0,0,0)" stroke-linecap="round" stroke-linejoin="round" /><path d="M-6.448928,-0.0203857 a0.15875,0.15875 0 1,1 0.3175,0 a0.15875,0.15875 0 1,1 -0.3175,0z" transform="matrix(1,0,0,-1,11.7891106,13.1702508)" fill="rgb(255,255,255)" stroke="rgb(0,0,0)" stroke-width="0.0010cm" stroke-linecap="round" stroke-linejoin="round" /><path d="M7.0942279,5.0236409 L6.7371996,3.9083664 A3.81,3.81 342.2487852 0,0 2.6648901,1.2859012 L-5.2478168,2.213715 A3.81,3.81 263.312254 0,0 -8.6141106,5.9977901 L-8.6141106,6.1852508 A3.81,3.81 180 0,0 -4.8041106,9.9952508 L3.4656245,9.9952508 A3.81,3.81 90 0,0 7.0942279,5.0236409z" transform="matrix(1,0,0,-1,11.7891106,13.1702508)" fill="rgb(255,255,255)" stroke="rgb(0,0,0)" stroke-width="0.0010cm" stroke-linecap="round" stroke-linejoin="round" /><path d="M4.9978343,11.9002508 a0.2976626,0.2976626 0 1,1 0.5953252,0 a0.2976626,0.2976626 0 1,1 -0.5953252,0z" transform="matrix(1,0,0,-1,11.7891106,13.1702508)" fill="rgb(255,255,255)" stroke="rgb(0,0,0)" stroke-width="0.0010cm" stroke-linecap="round" stroke-linejoin="round" /><path d="M-10.8688253,2.7046868 a0.2976626,0.2976626 0 1,1 0.5953252,0 a0.2976626,0.2976626 0 1,1 -0.5953252,0z" transform="matrix(1,0,0,-1,11.7891106,13.1702508)" fill="rgb(255,255,255)" stroke="rgb(0,0,0)" stroke-width="0.0010cm" stroke-linecap="round" stroke-linejoin="round" /><path d="M-10.8688253,11.9002508 a0.2976626,0.2976626 0 1,1 0.5953252,0 a0.2976626,0.2976626 0 1,1 -0.5953252,0z" transform="matrix(1,0,0,-1,11.7891106,13.1702508)" fill="rgb(255,255,255)" stroke="rgb(0,0,0)" stroke-width="0.0010cm" stroke-linecap="round" stroke-linejoin="round" /><path d="M5.9767943,-1.4773785 a0.15875,0.15875 0 1,1 0.3175,0 a0.15875,0.15875 0 1,1 -0.3175,0z" transform="matrix(1,0,0,-1,11.7891106,13.1702508)" fill="rgb(255,255,255)" stroke="rgb(0,0,0)" stroke-width="0.0010cm" stroke-linecap="round" stroke-linejoin="round" /></svg>