  0
SECTION
  2
HEADER
  9
$ACADVER
  1
AC1009
  9
$EXTMIN
 10
0.0
 20
0.0
 30
0.0
  9
$EXTMAX
 10
1000.0
 20
1000.0
 30
0.0
  9
$FILLMODE
 70
 0
  9
$SPLFRAME
 70
 1
  0
ENDSEC
  0
SECTION
  2
TABLES
  0
TABLE
  2
LAYER
 70
1
  0
LAYER
  2
0
 70
     0
 62
     7
  6
CONTINUOUS
  0
ENDTAB
  0
ENDSEC
  0
SECTION
  2
ENTITIES
  0
POLYLINE
  8
0
 62
     0
 66
     1
 10
0
 20
0
 30
0.0
 70
     1
 40
0
 41
0
  0
VERTEX
  8
0
 10
7.40403
 20
0.00971137
 30
0.0
 40
0
 41
0
  0
VERTEX
  8
0
 10
0.375
 20
0.00971137
 30
0.0
 40
0
 41
0
  0
VERTEX
  8
0
 10
0.36301
 20
0.00971137
 30
0.0
 40
0
 41
0
  0
VERTEX
  8
0
 10
0.327149
 20
0.01926
 30
0.0
 40
0
 41
0
  0
VERTEX
  8
0
 10
0.292481
 20
0.0404731
 30
0.0
 40
0
 41
0
  0
VERTEX
  8
0
 10
0.286621
 20
0.0463325
 30
0.0
 40
0
 41
0
  0
VERTEX
  8
0
 10
0.280761
 20
0.0521918
 30
0.0
 40
0
 41
0
  0
VERTEX
  8
0
 10
0.259494
 20
0.086914
 30
0.0
 40
0
 41
0
  0
VERTEX
  8
0
 10
0.25
 20
0.122776
 30
0.0
 40
0
 41
0
  0
VERTEX
  8
0
 10
0.25
 20
0.134711
 30
0.0
 40
0
 41
0
  0
VERTEX
  8
0
 10
0.25
 20
0.434733
 30
0.0
 40
0
 41
0
  0
VERTEX
  8
0
 10
0.25
 20
0.44694
 30
0.0
 40
0
 41
0
  0
VERTEX
  8
0
 10
0.240126
 20
0.483399
 30
0.0
 40
0
 41
0
  0
VERTEX
  8
0
 10
0.213379
 20
0.523113
 30
0.0
 40
0
 41
0
  0
VERTEX
  8
0
 10
0.173611
 20
0.549914
 30
0.0
 40
0
 41
0
  0
VERTEX
  8
0
 10
0.137153
 20
0.559733
 30
0.0
 40
0
 41
0
  0
VERTEX
  8
0
 10
0.125
 20
0.559733
 30
0.0
 40
0
 41
0
  0
VERTEX
  8
0
 10
0
 20
0.559733
 30
0.0
 40
0
 41
0
  0
VERTEX
  8
0
 10
0
 20
15.8472
 30
0.0
 40
0
 41
0
  0
VERTEX
  8
0
 10
7.77903
 20
15.8472
 30
0.0
 40
0
 41
0
  0
VERTEX
  8
0
 10
7.77903
 20
0.559733
 30
0.0
 40
0
 41
0
  0
VERTEX
  8
0
 10
7.65403
 20
0.559733
 30
0.0
 40
0
 41
0
  0
VERTEX
  8
0
 10
7.64204
 20
0.559733
 30
0.0
 40
0
 41
0
  0
VERTEX
  8
0
 10
7.60612
 20
0.550239
 30
0.0
 40
0
 41
0
  0
VERTEX
  8
0
 10
7.57146
 20
0.528971
 30
0.0
 40
0
 41
0
  0
VERTEX
  8
0
 10
7.5656
 20
0.523113
 30
0.0
 40
0
 41
0
  0
VERTEX
  8
0
 10
7.55974
 20
0.517253
 30
0.0
 40
0
 41
0
  0
VERTEX
  8
0
 10
7.53851
 20
0.482585
 30
0.0
 40
0
 41
0
  0
VERTEX
  8
0
 10
7.52903
 20
0.446724
 30
0.0
 40
0
 41
0
  0
VERTEX
  8
0
 10
7.52903
 20
0.434733
 30
0.0
 40
0
 41
0
  0
VERTEX
  8
0
 10
7.52903
 20
0.134711
 30
0.0
 40
0
 41
0
  0
VERTEX
  8
0
 10
7.52903
 20
0.122776
 30
0.0
 40
0
 41
0
  0
VERTEX
  8
0
 10
7.51947
 20
0.086914
 30
0.0
 40
0
 41
0
  0
VERTEX
  8
0
 10
7.49826
 20
0.0521918
 30
0.0
 40
0
 41
0
  0
VERTEX
  8
0
 10
7.4924
 20
0.0463325
 30
0.0
 40
0
 41
0
  0
VERTEX
  8
0
 10
7.48654
 20
0.0404731
 30
0.0
 40
0
 41
0
  0
VERTEX
  8
0
 10
7.45182
 20
0.01926
 30
0.0
 40
0
 41
0
  0
VERTEX
  8
0
 10
7.41596
 20
0.00971137
 30
0.0
 40
0
 41
0
  0
VERTEX
  8
0
 10
7.40403
 20
0.00971137
 30
0.0
 40
0
 41
0
  0
SEQEND
 8
0
  0
POLYLINE
  8
0
 62
     0
 66
     1
 10
0
 20
0
 30
0.0
 70
     1
 40
0
 41
0
  0
VERTEX
  8
0
 10
7.0134
 20
3.47211
 30
0.0
 40
0
 41
0
  0
VERTEX
  8
0
 10
7.0134
 20
3.48583
 30
0.0
 40
0
 41
0
  0
VERTEX
  8
0
 10
7.02442
 20
3.52686
 30
0.0
 40
0
 41
0
  0
VERTEX
  8
0
 10
7.05458
 20
3.57156
 30
0.0
 40
0
 41
0
  0
VERTEX
  8
0
 10
7.09924
 20
3.60167
 30
0.0
 40
0
 41
0
  0
VERTEX
  8
0
 10
7.14031
 20
3.61268
 30
0.0
 40
0
 41
0
  0
VERTEX
  8
0
 10
7.15403
 20
3.61268
 30
0.0
 40
0
 41
0
  0
VERTEX
  8
0
 10
7.16769
 20
3.61268
 30
0.0
 40
0
 41
0
  0
VERTEX
  8
0
 10
7.20871
 20
3.60167
 30
0.0
 40
0
 41
0
  0
VERTEX
  8
0
 10
7.25342
 20
3.57156
 30
0.0
 40
0
 41
0
  0
VERTEX
  8
0
 10
7.28353
 20
3.52686
 30
0.0
 40
0
 41
0
  0
VERTEX
  8
0
 10
7.2946
 20
3.48583
 30
0.0
 40
0
 41
0
  0
VERTEX
  8
0
 10
7.2946
 20
3.47211
 30
0.0
 40
0
 41
0
  0
VERTEX
  8
0
 10
7.2946
 20
3.45844
 30
0.0
 40
0
 41
0
  0
VERTEX
  8
0
 10
7.28353
 20
3.41743
 30
0.0
 40
0
 41
0
  0
VERTEX
  8
0
 10
7.25342
 20
3.37272
 30
0.0
 40
0
 41
0
  0
VERTEX
  8
0
 10
7.20871
 20
3.34256
 30
0.0
 40
0
 41
0
  0
VERTEX
  8
0
 10
7.16769
 20
3.33149
 30
0.0
 40
0
 41
0
  0
VERTEX
  8
0
 10
7.15403
 20
3.33149
 30
0.0
 40
0
 41
0
  0
VERTEX
  8
0
 10
7.14031
 20
3.33149
 30
0.0
 40
0
 41
0
  0
VERTEX
  8
0
 10
7.09924
 20
3.34256
 30
0.0
 40
0
 41
0
  0
VERTEX
  8
0
 10
7.05458
 20
3.37272
 30
0.0
 40
0
 41
0
  0
VERTEX
  8
0
 10
7.02442
 20
3.41743
 30
0.0
 40
0
 41
0
  0
VERTEX
  8
0
 10
7.0134
 20
3.45844
 30
0.0
 40
0
 41
0
  0
VERTEX
  8
0
 10
7.0134
 20
3.47211
 30
0.0
 40
0
 41
0
  0
SEQEND
 8
0
  0
POLYLINE
  8
0
 62
     0
 66
     1
 10
0
 20
0
 30
0.0
 70
     1
 40
0
 41
0
  0
VERTEX
  8
0
 10
0.484375
 20
3.47222
 30
0.0
 40
0
 41
0
  0
VERTEX
  8
0
 10
0.484375
 20
3.48594
 30
0.0
 40
0
 41
0
  0
VERTEX
  8
0
 10
0.495389
 20
3.52696
 30
0.0
 40
0
 41
0
  0
VERTEX
  8
0
 10
0.525553
 20
3.57167
 30
0.0
 40
0
 41
0
  0
VERTEX
  8
0
 10
0.570258
 20
3.60183
 30
0.0
 40
0
 41
0
  0
VERTEX
  8
0
 10
0.611274
 20
3.61285
 30
0.0
 40
0
 41
0
  0
VERTEX
  8
0
 10
0.625
 20
3.61285
 30
0.0
 40
0
 41
0
  0
VERTEX
  8
0
 10
0.638672
 20
3.61285
 30
0.0
 40
0
 41
0
  0
VERTEX
  8
0
 10
0.679688
 20
3.60183
 30
0.0
 40
0
 41
0
  0
VERTEX
  8
0
 10
0.724393
 20
3.57167
 30
0.0
 40
0
 41
0
  0
VERTEX
  8
0
 10
0.754557
 20
3.52696
 30
0.0
 40
0
 41
0
  0
VERTEX
  8
0
 10
0.765625
 20
3.48594
 30
0.0
 40
0
 41
0
  0
VERTEX
  8
0
 10
0.765625
 20
3.47222
 30
0.0
 40
0
 41
0
  0
VERTEX
  8
0
 10
0.765625
 20
3.45856
 30
0.0
 40
0
 41
0
  0
VERTEX
  8
0
 10
0.754557
 20
3.41754
 30
0.0
 40
0
 41
0
  0
VERTEX
  8
0
 10
0.724393
 20
3.37283
 30
0.0
 40
0
 41
0
  0
VERTEX
  8
0
 10
0.679688
 20
3.34267
 30
0.0
 40
0
 41
0
  0
VERTEX
  8
0
 10
0.638672
 20
3.3316
 30
0.0
 40
0
 41
0
  0
VERTEX
  8
0
 10
0.625
 20
3.3316
 30
0.0
 40
0
 41
0
  0
VERTEX
  8
0
 10
0.611274
 20
3.3316
 30
0.0
 40
0
 41
0
  0
VERTEX
  8
0
 10
0.570258
 20
3.34267
 30
0.0
 40
0
 41
0
  0
VERTEX
  8
0
 10
0.525553
 20
3.37283
 30
0.0
 40
0
 41
0
  0
VERTEX
  8
0
 10
0.495389
 20
3.41754
 30
0.0
 40
0
 41
0
  0
VERTEX
  8
0
 10
0.484375
 20
3.45856
 30
0.0
 40
0
 41
0
  0
VERTEX
  8
0
 10
0.484375
 20
3.47222
 30
0.0
 40
0
 41
0
  0
SEQEND
 8
0
  0
POLYLINE
  8
0
 62
     0
 66
     1
 10
0
 20
0
 30
0.0
 70
     1
 40
0
 41
0
  0
VERTEX
  8
0
 10
0.484375
 20
13.8472
 30
0.0
 40
0
 41
0
  0
VERTEX
  8
0
 10
0.484375
 20
13.8609
 30
0.0
 40
0
 41
0
  0
VERTEX
  8
0
 10
0.495389
 20
13.9019
 30
0.0
 40
0
 41
0
  0
VERTEX
  8
0
 10
0.525553
 20
13.9467
 30
0.0
 40
0
 41
0
  0
VERTEX
  8
0
 10
0.570258
 20
13.9768
 30
0.0
 40
0
 41
0
  0
VERTEX
  8
0
 10
0.611274
 20
13.9879
 30
0.0
 40
0
 41
0
  0
VERTEX
  8
0
 10
0.625
 20
13.9879
 30
0.0
 40
0
 41
0
  0
VERTEX
  8
0
 10
0.638672
 20
13.9879
 30
0.0
 40
0
 41
0
  0
VERTEX
  8
0
 10
0.679688
 20
13.9768
 30
0.0
 40
0
 41
0
  0
VERTEX
  8
0
 10
0.724393
 20
13.9467
 30
0.0
 40
0
 41
0
  0
VERTEX
  8
0
 10
0.754557
 20
13.9019
 30
0.0
 40
0
 41
0
  0
VERTEX
  8
0
 10
0.765625
 20
13.8609
 30
0.0
 40
0
 41
0
  0
VERTEX
  8
0
 10
0.765625
 20
13.8472
 30
0.0
 40
0
 41
0
  0
VERTEX
  8
0
 10
0.765625
 20
13.8336
 30
0.0
 40
0
 41
0
  0
VERTEX
  8
0
 10
0.754557
 20
13.7925
 30
0.0
 40
0
 41
0
  0
VERTEX
  8
0
 10
0.724393
 20
13.7478
 30
0.0
 40
0
 41
0
  0
VERTEX
  8
0
 10
0.679688
 20
13.7177
 30
0.0
 40
0
 41
0
  0
VERTEX
  8
0
 10
0.638672
 20
13.7066
 30
0.0
 40
0
 41
0
  0
VERTEX
  8
0
 10
0.625
 20
13.7066
 30
0.0
 40
0
 41
0
  0
VERTEX
  8
0
 10
0.611274
 20
13.7066
 30
0.0
 40
0
 41
0
  0
VERTEX
  8
0
 10
0.570258
 20
13.7177
 30
0.0
 40
0
 41
0
  0
VERTEX
  8
0
 10
0.525553
 20
13.7478
 30
0.0
 40
0
 41
0
  0
VERTEX
  8
0
 10
0.495389
 20
13.7925
 30
0.0
 40
0
 41
0
  0
VERTEX
  8
0
 10
0.484375
 20
13.8336
 30
0.0
 40
0
 41
0
  0
VERTEX
  8
0
 10
0.484375
 20
13.8472
 30
0.0
 40
0
 41
0
  0
SEQEND
 8
0
  0
POLYLINE
  8
0
 62
     0
 66
     1
 10
0
 20
0
 30
0.0
 70
     1
 40
0
 41
0
  0
VERTEX
  8
0
 10
7.0134
 20
13.8471
 30
0.0
 40
0
 41
0
  0
VERTEX
  8
0
 10
7.0134
 20
13.8608
 30
0.0
 40
0
 41
0
  0
VERTEX
  8
0
 10
7.02442
 20
13.9018
 30
0.0
 40
0
 41
0
  0
VERTEX
  8
0
 10
7.05453
 20
13.9465
 30
0.0
 40
0
 41
0
  0
VERTEX
  8
0
 10
7.09924
 20
13.9767
 30
0.0
 40
0
 41
0
  0
VERTEX
  8
0
 10
7.14025
 20
13.9876
 30
0.0
 40
0
 41
0
  0
VERTEX
  8
0
 10
7.15397
 20
13.9876
 30
0.0
 40
0
 41
0
  0
VERTEX
  8
0
 10
7.16764
 20
13.9876
 30
0.0
 40
0
 41
0
  0
VERTEX
  8
0
 10
7.20871
 20
13.9767
 30
0.0
 40
0
 41
0
  0
VERTEX
  8
0
 10
7.25342
 20
13.9465
 30
0.0
 40
0
 41
0
  0
VERTEX
  8
0
 10
7.28353
 20
13.9018
 30
0.0
 40
0
 41
0
  0
VERTEX
  8
0
 10
7.2946
 20
13.8608
 30
0.0
 40
0
 41
0
  0
VERTEX
  8
0
 10
7.2946
 20
13.8471
 30
0.0
 40
0
 41
0
  0
VERTEX
  8
0
 10
7.2946
 20
13.8334
 30
0.0
 40
0
 41
0
  0
VERTEX
  8
0
 10
7.28353
 20
13.7924
 30
0.0
 40
0
 41
0
  0
VERTEX
  8
0
 10
7.25342
 20
13.7477
 30
0.0
 40
0
 41
0
  0
VERTEX
  8
0
 10
7.20871
 20
13.7176
 30
0.0
 40
0
 41
0
  0
VERTEX
  8
0
 10
7.16764
 20
13.7065
 30
0.0
 40
0
 41
0
  0
VERTEX
  8
0
 10
7.15397
 20
13.7065
 30
0.0
 40
0
 41
0
  0
VERTEX
  8
0
 10
7.14025
 20
13.7065
 30
0.0
 40
0
 41
0
  0
VERTEX
  8
0
 10
7.09924
 20
13.7176
 30
0.0
 40
0
 41
0
  0
VERTEX
  8
0
 10
7.05453
 20
13.7477
 30
0.0
 40
0
 41
0
  0
VERTEX
  8
0
 10
7.02442
 20
13.7924
 30
0.0
 40
0
 41
0
  0
VERTEX
  8
0
 10
7.0134
 20
13.8334
 30
0.0
 40
0
 41
0
  0
VERTEX
  8
0
 10
7.0134
 20
13.8471
 30
0.0
 40
0
 41
0
  0
SEQEND
 8
0
  0
ENDSEC
  0
EOF
