  0
SECTION
  2
HEADER
  9
$ACADVER
  1
AC1009
  9
$EXTMIN
 10
0.0
 20
0.0
 30
0.0
  9
$EXTMAX
 10
1000.0
 20
1000.0
 30
0.0
  9
$FILLMODE
 70
 0
  9
$SPLFRAME
 70
 1
  0
ENDSEC
  0
SECTION
  2
TABLES
  0
TABLE
  2
LAYER
 70
1
  0
LAYER
  2
0
 70
     0
 62
     7
  6
CONTINUOUS
  0
ENDTAB
  0
ENDSEC
  0
SECTION
  2
ENTITIES
  0
POLYLINE
  8
0
 62
     0
 66
     1
 10
0
 20
0
 30
0.0
 70
     1
 40
0
 41
0
  0
VERTEX
  8
0
 10
0
 20
19.6944
 30
0.0
 40
0
 41
0
  0
VERTEX
  8
0
 10
13.5
 20
19.6944
 30
0.0
 40
0
 41
0
  0
VERTEX
  8
0
 10
13.5
 20
13.8645
 30
0.0
 40
0
 41
0
  0
VERTEX
  8
0
 10
0
 20
13.8645
 30
0.0
 40
0
 41
0
  0
VERTEX
  8
0
 10
0
 20
19.6944
 30
0.0
 40
0
 41
0
  0
SEQEND
 8
0
  0
POLYLINE
  8
0
 62
     0
 66
     1
 10
0
 20
0
 30
0.0
 70
     1
 40
0
 41
0
  0
VERTEX
  8
0
 10
3.65597
 20
16.1144
 30
0.0
 40
0
 41
0
  0
VERTEX
  8
0
 10
2.28097
 20
16.1144
 30
0.0
 40
0
 41
0
  0
VERTEX
  8
0
 10
2.25663
 20
16.1144
 30
0.0
 40
0
 41
0
  0
VERTEX
  8
0
 10
2.18365
 20
16.0947
 30
0.0
 40
0
 41
0
  0
VERTEX
  8
0
 10
2.10422
 20
16.0412
 30
0.0
 40
0
 41
0
  0
VERTEX
  8
0
 10
2.05063
 20
15.9618
 30
0.0
 40
0
 41
0
  0
VERTEX
  8
0
 10
2.03097
 20
15.8887
 30
0.0
 40
0
 41
0
  0
VERTEX
  8
0
 10
2.03097
 20
15.8644
 30
0.0
 40
0
 41
0
  0
VERTEX
  8
0
 10
2.03097
 20
15.8401
 30
0.0
 40
0
 41
0
  0
VERTEX
  8
0
 10
2.05063
 20
15.7671
 30
0.0
 40
0
 41
0
  0
VERTEX
  8
0
 10
2.10422
 20
15.6876
 30
0.0
 40
0
 41
0
  0
VERTEX
  8
0
 10
2.18365
 20
15.6342
 30
0.0
 40
0
 41
0
  0
VERTEX
  8
0
 10
2.25663
 20
15.6144
 30
0.0
 40
0
 41
0
  0
VERTEX
  8
0
 10
2.28097
 20
15.6144
 30
0.0
 40
0
 41
0
  0
VERTEX
  8
0
 10
3.65597
 20
15.6144
 30
0.0
 40
0
 41
0
  0
VERTEX
  8
0
 10
3.68028
 20
15.6144
 30
0.0
 40
0
 41
0
  0
VERTEX
  8
0
 10
3.75325
 20
15.6342
 30
0.0
 40
0
 41
0
  0
VERTEX
  8
0
 10
3.83274
 20
15.6876
 30
0.0
 40
0
 41
0
  0
VERTEX
  8
0
 10
3.88629
 20
15.7671
 30
0.0
 40
0
 41
0
  0
VERTEX
  8
0
 10
3.90597
 20
15.8401
 30
0.0
 40
0
 41
0
  0
VERTEX
  8
0
 10
3.90597
 20
15.8644
 30
0.0
 40
0
 41
0
  0
VERTEX
  8
0
 10
3.90597
 20
15.8887
 30
0.0
 40
0
 41
0
  0
VERTEX
  8
0
 10
3.88629
 20
15.9618
 30
0.0
 40
0
 41
0
  0
VERTEX
  8
0
 10
3.83274
 20
16.0412
 30
0.0
 40
0
 41
0
  0
VERTEX
  8
0
 10
3.75325
 20
16.0947
 30
0.0
 40
0
 41
0
  0
VERTEX
  8
0
 10
3.68028
 20
16.1144
 30
0.0
 40
0
 41
0
  0
VERTEX
  8
0
 10
3.65597
 20
16.1144
 30
0.0
 40
0
 41
0
  0
SEQEND
 8
0
  0
POLYLINE
  8
0
 62
     0
 66
     1
 10
0
 20
0
 30
0.0
 70
     1
 40
0
 41
0
  0
VERTEX
  8
0
 10
7.83507
 20
16.7796
 30
0.0
 40
0
 41
0
  0
VERTEX
  8
0
 10
7.83507
 20
16.8317
 30
0.0
 40
0
 41
0
  0
VERTEX
  8
0
 10
7.8456
 20
16.9881
 30
0.0
 40
0
 41
0
  0
VERTEX
  8
0
 10
7.87646
 20
17.1907
 30
0.0
 40
0
 41
0
  0
VERTEX
  8
0
 10
7.92676
 20
17.3861
 30
0.0
 40
0
 41
0
  0
VERTEX
  8
0
 10
7.99533
 20
17.5736
 30
0.0
 40
0
 41
0
  0
VERTEX
  8
0
 10
8.08128
 20
17.7519
 30
0.0
 40
0
 41
0
  0
VERTEX
  8
0
 10
8.18343
 20
17.9201
 30
0.0
 40
0
 41
0
  0
VERTEX
  8
0
 10
8.30083
 20
18.0771
 30
0.0
 40
0
 41
0
  0
VERTEX
  8
0
 10
8.43251
 20
18.2219
 30
0.0
 40
0
 41
0
  0
VERTEX
  8
0
 10
8.57736
 20
18.3536
 30
0.0
 40
0
 41
0
  0
VERTEX
  8
0
 10
8.73443
 20
18.4711
 30
0.0
 40
0
 41
0
  0
VERTEX
  8
0
 10
8.90261
 20
18.5732
 30
0.0
 40
0
 41
0
  0
VERTEX
  8
0
 10
9.08094
 20
18.6592
 30
0.0
 40
0
 41
0
  0
VERTEX
  8
0
 10
9.26833
 20
18.7278
 30
0.0
 40
0
 41
0
  0
VERTEX
  8
0
 10
9.46386
 20
18.7781
 30
0.0
 40
0
 41
0
  0
VERTEX
  8
0
 10
9.66639
 20
18.8089
 30
0.0
 40
0
 41
0
  0
VERTEX
  8
0
 10
9.82281
 20
18.8194
 30
0.0
 40
0
 41
0
  0
VERTEX
  8
0
 10
9.875
 20
18.8194
 30
0.0
 40
0
 41
0
  0
VERTEX
  8
0
 10
9.92714
 20
18.8194
 30
0.0
 40
0
 41
0
  0
VERTEX
  8
0
 10
10.0836
 20
18.8089
 30
0.0
 40
0
 41
0
  0
VERTEX
  8
0
 10
10.2861
 20
18.7781
 30
0.0
 40
0
 41
0
  0
VERTEX
  8
0
 10
10.4816
 20
18.7278
 30
0.0
 40
0
 41
0
  0
VERTEX
  8
0
 10
10.669
 20
18.6592
 30
0.0
 40
0
 41
0
  0
VERTEX
  8
0
 10
10.8473
 20
18.5732
 30
0.0
 40
0
 41
0
  0
VERTEX
  8
0
 10
11.0155
 20
18.4711
 30
0.0
 40
0
 41
0
  0
VERTEX
  8
0
 10
11.1726
 20
18.3536
 30
0.0
 40
0
 41
0
  0
VERTEX
  8
0
 10
11.3174
 20
18.2219
 30
0.0
 40
0
 41
0
  0
VERTEX
  8
0
 10
11.4491
 20
18.0771
 30
0.0
 40
0
 41
0
  0
VERTEX
  8
0
 10
11.5665
 20
17.9201
 30
0.0
 40
0
 41
0
  0
VERTEX
  8
0
 10
11.6687
 20
17.7519
 30
0.0
 40
0
 41
0
  0
VERTEX
  8
0
 10
11.7546
 20
17.5736
 30
0.0
 40
0
 41
0
  0
VERTEX
  8
0
 10
11.8232
 20
17.3861
 30
0.0
 40
0
 41
0
  0
VERTEX
  8
0
 10
11.8735
 20
17.1907
 30
0.0
 40
0
 41
0
  0
VERTEX
  8
0
 10
11.9043
 20
16.9881
 30
0.0
 40
0
 41
0
  0
VERTEX
  8
0
 10
11.9149
 20
16.8317
 30
0.0
 40
0
 41
0
  0
VERTEX
  8
0
 10
11.9149
 20
16.7796
 30
0.0
 40
0
 41
0
  0
VERTEX
  8
0
 10
11.9149
 20
16.7274
 30
0.0
 40
0
 41
0
  0
VERTEX
  8
0
 10
11.9043
 20
16.571
 30
0.0
 40
0
 41
0
  0
VERTEX
  8
0
 10
11.8735
 20
16.3685
 30
0.0
 40
0
 41
0
  0
VERTEX
  8
0
 10
11.8232
 20
16.1729
 30
0.0
 40
0
 41
0
  0
VERTEX
  8
0
 10
11.7546
 20
15.9856
 30
0.0
 40
0
 41
0
  0
VERTEX
  8
0
 10
11.6687
 20
15.8072
 30
0.0
 40
0
 41
0
  0
VERTEX
  8
0
 10
11.5665
 20
15.639
 30
0.0
 40
0
 41
0
  0
VERTEX
  8
0
 10
11.4491
 20
15.4819
 30
0.0
 40
0
 41
0
  0
VERTEX
  8
0
 10
11.3174
 20
15.3371
 30
0.0
 40
0
 41
0
  0
VERTEX
  8
0
 10
11.1726
 20
15.2054
 30
0.0
 40
0
 41
0
  0
VERTEX
  8
0
 10
11.0155
 20
15.0879
 30
0.0
 40
0
 41
0
  0
VERTEX
  8
0
 10
10.8473
 20
14.9858
 30
0.0
 40
0
 41
0
  0
VERTEX
  8
0
 10
10.669
 20
14.8999
 30
0.0
 40
0
 41
0
  0
VERTEX
  8
0
 10
10.4816
 20
14.8312
 30
0.0
 40
0
 41
0
  0
VERTEX
  8
0
 10
10.2861
 20
14.781
 30
0.0
 40
0
 41
0
  0
VERTEX
  8
0
 10
10.0836
 20
14.7501
 30
0.0
 40
0
 41
0
  0
VERTEX
  8
0
 10
9.92714
 20
14.7396
 30
0.0
 40
0
 41
0
  0
VERTEX
  8
0
 10
9.875
 20
14.7396
 30
0.0
 40
0
 41
0
  0
VERTEX
  8
0
 10
9.82281
 20
14.7396
 30
0.0
 40
0
 41
0
  0
VERTEX
  8
0
 10
9.66639
 20
14.7501
 30
0.0
 40
0
 41
0
  0
VERTEX
  8
0
 10
9.46386
 20
14.781
 30
0.0
 40
0
 41
0
  0
VERTEX
  8
0
 10
9.26833
 20
14.8312
 30
0.0
 40
0
 41
0
  0
VERTEX
  8
0
 10
9.08094
 20
14.8999
 30
0.0
 40
0
 41
0
  0
VERTEX
  8
0
 10
8.90261
 20
14.9858
 30
0.0
 40
0
 41
0
  0
VERTEX
  8
0
 10
8.73443
 20
15.0879
 30
0.0
 40
0
 41
0
  0
VERTEX
  8
0
 10
8.57736
 20
15.2054
 30
0.0
 40
0
 41
0
  0
VERTEX
  8
0
 10
8.43251
 20
15.3371
 30
0.0
 40
0
 41
0
  0
VERTEX
  8
0
 10
8.30083
 20
15.4819
 30
0.0
 40
0
 41
0
  0
VERTEX
  8
0
 10
8.18343
 20
15.639
 30
0.0
 40
0
 41
0
  0
VERTEX
  8
0
 10
8.08128
 20
15.8072
 30
0.0
 40
0
 41
0
  0
VERTEX
  8
0
 10
7.99533
 20
15.9856
 30
0.0
 40
0
 41
0
  0
VERTEX
  8
0
 10
7.92676
 20
16.1729
 30
0.0
 40
0
 41
0
  0
VERTEX
  8
0
 10
7.87646
 20
16.3685
 30
0.0
 40
0
 41
0
  0
VERTEX
  8
0
 10
7.8456
 20
16.571
 30
0.0
 40
0
 41
0
  0
VERTEX
  8
0
 10
7.83507
 20
16.7274
 30
0.0
 40
0
 41
0
  0
VERTEX
  8
0
 10
7.83507
 20
16.7796
 30
0.0
 40
0
 41
0
  0
SEQEND
 8
0
  0
POLYLINE
  8
0
 62
     0
 66
     1
 10
0
 20
0
 30
0.0
 70
     1
 40
0
 41
0
  0
VERTEX
  8
0
 10
3.40326
 20
14.8321
 30
0.0
 40
0
 41
0
  0
VERTEX
  8
0
 10
3.40326
 20
14.8415
 30
0.0
 40
0
 41
0
  0
VERTEX
  8
0
 10
3.41086
 20
14.8697
 30
0.0
 40
0
 41
0
  0
VERTEX
  8
0
 10
3.43158
 20
14.9006
 30
0.0
 40
0
 41
0
  0
VERTEX
  8
0
 10
3.46229
 20
14.9212
 30
0.0
 40
0
 41
0
  0
VERTEX
  8
0
 10
3.49056
 20
14.9289
 30
0.0
 40
0
 41
0
  0
VERTEX
  8
0
 10
3.5
 20
14.9289
 30
0.0
 40
0
 41
0
  0
VERTEX
  8
0
 10
3.50939
 20
14.9289
 30
0.0
 40
0
 41
0
  0
VERTEX
  8
0
 10
3.53765
 20
14.9212
 30
0.0
 40
0
 41
0
  0
VERTEX
  8
0
 10
3.56836
 20
14.9006
 30
0.0
 40
0
 41
0
  0
VERTEX
  8
0
 10
3.58908
 20
14.8697
 30
0.0
 40
0
 41
0
  0
VERTEX
  8
0
 10
3.59674
 20
14.8415
 30
0.0
 40
0
 41
0
  0
VERTEX
  8
0
 10
3.59674
 20
14.8321
 30
0.0
 40
0
 41
0
  0
VERTEX
  8
0
 10
3.59674
 20
14.8226
 30
0.0
 40
0
 41
0
  0
VERTEX
  8
0
 10
3.58908
 20
14.7944
 30
0.0
 40
0
 41
0
  0
VERTEX
  8
0
 10
3.56836
 20
14.7636
 30
0.0
 40
0
 41
0
  0
VERTEX
  8
0
 10
3.53765
 20
14.7429
 30
0.0
 40
0
 41
0
  0
VERTEX
  8
0
 10
3.50939
 20
14.7353
 30
0.0
 40
0
 41
0
  0
VERTEX
  8
0
 10
3.5
 20
14.7353
 30
0.0
 40
0
 41
0
  0
VERTEX
  8
0
 10
3.49056
 20
14.7353
 30
0.0
 40
0
 41
0
  0
VERTEX
  8
0
 10
3.46229
 20
14.7429
 30
0.0
 40
0
 41
0
  0
VERTEX
  8
0
 10
3.43158
 20
14.7636
 30
0.0
 40
0
 41
0
  0
VERTEX
  8
0
 10
3.41086
 20
14.7944
 30
0.0
 40
0
 41
0
  0
VERTEX
  8
0
 10
3.40326
 20
14.8226
 30
0.0
 40
0
 41
0
  0
VERTEX
  8
0
 10
3.40326
 20
14.8321
 30
0.0
 40
0
 41
0
  0
SEQEND
 8
0
  0
POLYLINE
  8
0
 62
     0
 66
     1
 10
0
 20
0
 30
0.0
 70
     1
 40
0
 41
0
  0
VERTEX
  8
0
 10
1.3138
 20
14.8321
 30
0.0
 40
0
 41
0
  0
VERTEX
  8
0
 10
1.3138
 20
14.8415
 30
0.0
 40
0
 41
0
  0
VERTEX
  8
0
 10
1.3214
 20
14.8697
 30
0.0
 40
0
 41
0
  0
VERTEX
  8
0
 10
1.34212
 20
14.9006
 30
0.0
 40
0
 41
0
  0
VERTEX
  8
0
 10
1.37283
 20
14.9212
 30
0.0
 40
0
 41
0
  0
VERTEX
  8
0
 10
1.4011
 20
14.9289
 30
0.0
 40
0
 41
0
  0
VERTEX
  8
0
 10
1.41054
 20
14.9289
 30
0.0
 40
0
 41
0
  0
VERTEX
  8
0
 10
1.41992
 20
14.9289
 30
0.0
 40
0
 41
0
  0
VERTEX
  8
0
 10
1.44819
 20
14.9212
 30
0.0
 40
0
 41
0
  0
VERTEX
  8
0
 10
1.47889
 20
14.9006
 30
0.0
 40
0
 41
0
  0
VERTEX
  8
0
 10
1.49963
 20
14.8697
 30
0.0
 40
0
 41
0
  0
VERTEX
  8
0
 10
1.50726
 20
14.8415
 30
0.0
 40
0
 41
0
  0
VERTEX
  8
0
 10
1.50726
 20
14.8321
 30
0.0
 40
0
 41
0
  0
VERTEX
  8
0
 10
1.50726
 20
14.8226
 30
0.0
 40
0
 41
0
  0
VERTEX
  8
0
 10
1.49963
 20
14.7944
 30
0.0
 40
0
 41
0
  0
VERTEX
  8
0
 10
1.47889
 20
14.7636
 30
0.0
 40
0
 41
0
  0
VERTEX
  8
0
 10
1.44819
 20
14.7429
 30
0.0
 40
0
 41
0
  0
VERTEX
  8
0
 10
1.41992
 20
14.7353
 30
0.0
 40
0
 41
0
  0
VERTEX
  8
0
 10
1.41054
 20
14.7353
 30
0.0
 40
0
 41
0
  0
VERTEX
  8
0
 10
1.4011
 20
14.7353
 30
0.0
 40
0
 41
0
  0
VERTEX
  8
0
 10
1.37283
 20
14.7429
 30
0.0
 40
0
 41
0
  0
VERTEX
  8
0
 10
1.34212
 20
14.7636
 30
0.0
 40
0
 41
0
  0
VERTEX
  8
0
 10
1.3214
 20
14.7944
 30
0.0
 40
0
 41
0
  0
VERTEX
  8
0
 10
1.3138
 20
14.8226
 30
0.0
 40
0
 41
0
  0
VERTEX
  8
0
 10
1.3138
 20
14.8321
 30
0.0
 40
0
 41
0
  0
SEQEND
 8
0
  0
POLYLINE
  8
0
 62
     0
 66
     1
 10
0
 20
0
 30
0.0
 70
     1
 40
0
 41
0
  0
VERTEX
  8
0
 10
1.40326
 20
18.8021
 30
0.0
 40
0
 41
0
  0
VERTEX
  8
0
 10
1.40326
 20
18.8115
 30
0.0
 40
0
 41
0
  0
VERTEX
  8
0
 10
1.41086
 20
18.8397
 30
0.0
 40
0
 41
0
  0
VERTEX
  8
0
 10
1.43158
 20
18.8706
 30
0.0
 40
0
 41
0
  0
VERTEX
  8
0
 10
1.46229
 20
18.8913
 30
0.0
 40
0
 41
0
  0
VERTEX
  8
0
 10
1.49056
 20
18.8987
 30
0.0
 40
0
 41
0
  0
VERTEX
  8
0
 10
1.5
 20
18.8987
 30
0.0
 40
0
 41
0
  0
VERTEX
  8
0
 10
1.50939
 20
18.8987
 30
0.0
 40
0
 41
0
  0
VERTEX
  8
0
 10
1.53765
 20
18.8913
 30
0.0
 40
0
 41
0
  0
VERTEX
  8
0
 10
1.56836
 20
18.8706
 30
0.0
 40
0
 41
0
  0
VERTEX
  8
0
 10
1.58908
 20
18.8397
 30
0.0
 40
0
 41
0
  0
VERTEX
  8
0
 10
1.59674
 20
18.8115
 30
0.0
 40
0
 41
0
  0
VERTEX
  8
0
 10
1.59674
 20
18.8021
 30
0.0
 40
0
 41
0
  0
VERTEX
  8
0
 10
1.59674
 20
18.7926
 30
0.0
 40
0
 41
0
  0
VERTEX
  8
0
 10
1.58908
 20
18.7644
 30
0.0
 40
0
 41
0
  0
VERTEX
  8
0
 10
1.56836
 20
18.7336
 30
0.0
 40
0
 41
0
  0
VERTEX
  8
0
 10
1.53765
 20
18.7129
 30
0.0
 40
0
 41
0
  0
VERTEX
  8
0
 10
1.50939
 20
18.7053
 30
0.0
 40
0
 41
0
  0
VERTEX
  8
0
 10
1.5
 20
18.7053
 30
0.0
 40
0
 41
0
  0
VERTEX
  8
0
 10
1.49056
 20
18.7053
 30
0.0
 40
0
 41
0
  0
VERTEX
  8
0
 10
1.46229
 20
18.7129
 30
0.0
 40
0
 41
0
  0
VERTEX
  8
0
 10
1.43158
 20
18.7336
 30
0.0
 40
0
 41
0
  0
VERTEX
  8
0
 10
1.41086
 20
18.7644
 30
0.0
 40
0
 41
0
  0
VERTEX
  8
0
 10
1.40326
 20
18.7926
 30
0.0
 40
0
 41
0
  0
VERTEX
  8
0
 10
1.40326
 20
18.8021
 30
0.0
 40
0
 41
0
  0
SEQEND
 8
0
  0
POLYLINE
  8
0
 62
     0
 66
     1
 10
0
 20
0
 30
0.0
 70
     1
 40
0
 41
0
  0
VERTEX
  8
0
 10
0
 20
7.33556
 30
0.0
 40
0
 41
0
  0
VERTEX
  8
0
 10
8.75
 20
7.33556
 30
0.0
 40
0
 41
0
  0
VERTEX
  8
0
 10
8.80111
 20
7.33556
 30
0.0
 40
0
 41
0
  0
VERTEX
  8
0
 10
8.95449
 20
7.34592
 30
0.0
 40
0
 41
0
  0
VERTEX
  8
0
 10
9.15306
 20
7.37619
 30
0.0
 40
0
 41
0
  0
VERTEX
  8
0
 10
9.34472
 20
7.42551
 30
0.0
 40
0
 41
0
  0
VERTEX
  8
0
 10
9.52843
 20
7.49274
 30
0.0
 40
0
 41
0
  0
VERTEX
  8
0
 10
9.70329
 20
7.57699
 30
0.0
 40
0
 41
0
  0
VERTEX
  8
0
 10
9.86817
 20
7.67714
 30
0.0
 40
0
 41
0
  0
VERTEX
  8
0
 10
10.0221
 20
7.79226
 30
0.0
 40
0
 41
0
  0
VERTEX
  8
0
 10
10.1642
 20
7.92133
 30
0.0
 40
0
 41
0
  0
VERTEX
  8
0
 10
10.2932
 20
8.06337
 30
0.0
 40
0
 41
0
  0
VERTEX
  8
0
 10
10.4084
 20
8.21733
 30
0.0
 40
0
 41
0
  0
VERTEX
  8
0
 10
10.5086
 20
8.38226
 30
0.0
 40
0
 41
0
  0
VERTEX
  8
0
 10
10.5928
 20
8.55707
 30
0.0
 40
0
 41
0
  0
VERTEX
  8
0
 10
10.66
 20
8.74083
 30
0.0
 40
0
 41
0
  0
VERTEX
  8
0
 10
10.7094
 20
8.93251
 30
0.0
 40
0
 41
0
  0
VERTEX
  8
0
 10
10.7396
 20
9.13108
 30
0.0
 40
0
 41
0
  0
VERTEX
  8
0
 10
10.75
 20
9.28444
 30
0.0
 40
0
 41
0
  0
VERTEX
  8
0
 10
10.75
 20
9.33556
 30
0.0
 40
0
 41
0
  0
VERTEX
  8
0
 10
10.75
 20
10.3645
 30
0.0
 40
0
 41
0
  0
VERTEX
  8
0
 10
10.75
 20
10.4157
 30
0.0
 40
0
 41
0
  0
VERTEX
  8
0
 10
10.7396
 20
10.5691
 30
0.0
 40
0
 41
0
  0
VERTEX
  8
0
 10
10.7094
 20
10.7676
 30
0.0
 40
0
 41
0
  0
VERTEX
  8
0
 10
10.66
 20
10.9593
 30
0.0
 40
0
 41
0
  0
VERTEX
  8
0
 10
10.5928
 20
11.1431
 30
0.0
 40
0
 41
0
  0
VERTEX
  8
0
 10
10.5086
 20
11.3179
 30
0.0
 40
0
 41
0
  0
VERTEX
  8
0
 10
10.4084
 20
11.4828
 30
0.0
 40
0
 41
0
  0
VERTEX
  8
0
 10
10.2932
 20
11.6368
 30
0.0
 40
0
 41
0
  0
VERTEX
  8
0
 10
10.1642
 20
11.7788
 30
0.0
 40
0
 41
0
  0
VERTEX
  8
0
 10
10.0221
 20
11.9079
 30
0.0
 40
0
 41
0
  0
VERTEX
  8
0
 10
9.86817
 20
12.023
 30
0.0
 40
0
 41
0
  0
VERTEX
  8
0
 10
9.70329
 20
12.1232
 30
0.0
 40
0
 41
0
  0
VERTEX
  8
0
 10
9.52843
 20
12.2074
 30
0.0
 40
0
 41
0
  0
VERTEX
  8
0
 10
9.34472
 20
12.2746
 30
0.0
 40
0
 41
0
  0
VERTEX
  8
0
 10
9.15306
 20
12.3239
 30
0.0
 40
0
 41
0
  0
VERTEX
  8
0
 10
8.95449
 20
12.3542
 30
0.0
 40
0
 41
0
  0
VERTEX
  8
0
 10
8.80111
 20
12.3645
 30
0.0
 40
0
 41
0
  0
VERTEX
  8
0
 10
8.75
 20
12.3645
 30
0.0
 40
0
 41
0
  0
VERTEX
  8
0
 10
0
 20
12.3645
 30
0.0
 40
0
 41
0
  0
VERTEX
  8
0
 10
0
 20
13.3645
 30
0.0
 40
0
 41
0
  0
VERTEX
  8
0
 10
11.75
 20
13.3645
 30
0.0
 40
0
 41
0
  0
VERTEX
  8
0
 10
11.75
 20
6.33556
 30
0.0
 40
0
 41
0
  0
VERTEX
  8
0
 10
0
 20
6.33556
 30
0.0
 40
0
 41
0
  0
VERTEX
  8
0
 10
0
 20
7.33556
 30
0.0
 40
0
 41
0
  0
SEQEND
 8
0
  0
POLYLINE
  8
0
 62
     0
 66
     1
 10
0
 20
0
 30
0.0
 70
     1
 40
0
 41
0
  0
VERTEX
  8
0
 10
1.625
 20
6.64501
 30
0.0
 40
0
 41
0
  0
VERTEX
  8
0
 10
1.61556
 20
6.64501
 30
0.0
 40
0
 41
0
  0
VERTEX
  8
0
 10
1.58729
 20
6.65267
 30
0.0
 40
0
 41
0
  0
VERTEX
  8
0
 10
1.55658
 20
6.67339
 30
0.0
 40
0
 41
0
  0
VERTEX
  8
0
 10
1.53586
 20
6.70415
 30
0.0
 40
0
 41
0
  0
VERTEX
  8
0
 10
1.52826
 20
6.73242
 30
0.0
 40
0
 41
0
  0
VERTEX
  8
0
 10
1.52826
 20
6.74181
 30
0.0
 40
0
 41
0
  0
VERTEX
  8
0
 10
1.52826
 20
6.75125
 30
0.0
 40
0
 41
0
  0
VERTEX
  8
0
 10
1.53586
 20
6.77951
 30
0.0
 40
0
 41
0
  0
VERTEX
  8
0
 10
1.55658
 20
6.81022
 30
0.0
 40
0
 41
0
  0
VERTEX
  8
0
 10
1.58729
 20
6.83094
 30
0.0
 40
0
 41
0
  0
VERTEX
  8
0
 10
1.61556
 20
6.83854
 30
0.0
 40
0
 41
0
  0
VERTEX
  8
0
 10
1.625
 20
6.83854
 30
0.0
 40
0
 41
0
  0
VERTEX
  8
0
 10
1.63439
 20
6.83854
 30
0.0
 40
0
 41
0
  0
VERTEX
  8
0
 10
1.66265
 20
6.83094
 30
0.0
 40
0
 41
0
  0
VERTEX
  8
0
 10
1.69336
 20
6.81022
 30
0.0
 40
0
 41
0
  0
VERTEX
  8
0
 10
1.71408
 20
6.77951
 30
0.0
 40
0
 41
0
  0
VERTEX
  8
0
 10
1.72174
 20
6.75125
 30
0.0
 40
0
 41
0
  0
VERTEX
  8
0
 10
1.72174
 20
6.74181
 30
0.0
 40
0
 41
0
  0
VERTEX
  8
0
 10
1.72174
 20
6.73242
 30
0.0
 40
0
 41
0
  0
VERTEX
  8
0
 10
1.71408
 20
6.70415
 30
0.0
 40
0
 41
0
  0
VERTEX
  8
0
 10
1.69336
 20
6.67339
 30
0.0
 40
0
 41
0
  0
VERTEX
  8
0
 10
1.66265
 20
6.65267
 30
0.0
 40
0
 41
0
  0
VERTEX
  8
0
 10
1.63439
 20
6.64501
 30
0.0
 40
0
 41
0
  0
VERTEX
  8
0
 10
1.625
 20
6.64501
 30
0.0
 40
0
 41
0
  0
SEQEND
 8
0
  0
POLYLINE
  8
0
 62
     0
 66
     1
 10
0
 20
0
 30
0.0
 70
     1
 40
0
 41
0
  0
VERTEX
  8
0
 10
0.5
 20
6.64501
 30
0.0
 40
0
 41
0
  0
VERTEX
  8
0
 10
0.49056
 20
6.64501
 30
0.0
 40
0
 41
0
  0
VERTEX
  8
0
 10
0.462294
 20
6.65267
 30
0.0
 40
0
 41
0
  0
VERTEX
  8
0
 10
0.431586
 20
6.67339
 30
0.0
 40
0
 41
0
  0
VERTEX
  8
0
 10
0.410861
 20
6.70415
 30
0.0
 40
0
 41
0
  0
VERTEX
  8
0
 10
0.403267
 20
6.73242
 30
0.0
 40
0
 41
0
  0
VERTEX
  8
0
 10
0.403267
 20
6.74181
 30
0.0
 40
0
 41
0
  0
VERTEX
  8
0
 10
0.403267
 20
6.75125
 30
0.0
 40
0
 41
0
  0
VERTEX
  8
0
 10
0.410861
 20
6.77951
 30
0.0
 40
0
 41
0
  0
VERTEX
  8
0
 10
0.431586
 20
6.81022
 30
0.0
 40
0
 41
0
  0
VERTEX
  8
0
 10
0.462294
 20
6.83094
 30
0.0
 40
0
 41
0
  0
VERTEX
  8
0
 10
0.49056
 20
6.83854
 30
0.0
 40
0
 41
0
  0
VERTEX
  8
0
 10
0.5
 20
6.83854
 30
0.0
 40
0
 41
0
  0
VERTEX
  8
0
 10
0.509386
 20
6.83854
 30
0.0
 40
0
 41
0
  0
VERTEX
  8
0
 10
0.537651
 20
6.83094
 30
0.0
 40
0
 41
0
  0
VERTEX
  8
0
 10
0.56836
 20
6.81022
 30
0.0
 40
0
 41
0
  0
VERTEX
  8
0
 10
0.589085
 20
6.77951
 30
0.0
 40
0
 41
0
  0
VERTEX
  8
0
 10
0.596733
 20
6.75125
 30
0.0
 40
0
 41
0
  0
VERTEX
  8
0
 10
0.596733
 20
6.74181
 30
0.0
 40
0
 41
0
  0
VERTEX
  8
0
 10
0.596733
 20
6.73242
 30
0.0
 40
0
 41
0
  0
VERTEX
  8
0
 10
0.589085
 20
6.70415
 30
0.0
 40
0
 41
0
  0
VERTEX
  8
0
 10
0.56836
 20
6.67339
 30
0.0
 40
0
 41
0
  0
VERTEX
  8
0
 10
0.537651
 20
6.65267
 30
0.0
 40
0
 41
0
  0
VERTEX
  8
0
 10
0.509386
 20
6.64501
 30
0.0
 40
0
 41
0
  0
VERTEX
  8
0
 10
0.5
 20
6.64501
 30
0.0
 40
0
 41
0
  0
SEQEND
 8
0
  0
POLYLINE
  8
0
 62
     0
 66
     1
 10
0
 20
0
 30
0.0
 70
     1
 40
0
 41
0
  0
VERTEX
  8
0
 10
0.5
 20
12.8615
 30
0.0
 40
0
 41
0
  0
VERTEX
  8
0
 10
0.49056
 20
12.8615
 30
0.0
 40
0
 41
0
  0
VERTEX
  8
0
 10
0.462294
 20
12.8692
 30
0.0
 40
0
 41
0
  0
VERTEX
  8
0
 10
0.431586
 20
12.8899
 30
0.0
 40
0
 41
0
  0
VERTEX
  8
0
 10
0.410861
 20
12.9206
 30
0.0
 40
0
 41
0
  0
VERTEX
  8
0
 10
0.403267
 20
12.9489
 30
0.0
 40
0
 41
0
  0
VERTEX
  8
0
 10
0.403267
 20
12.9583
 30
0.0
 40
0
 41
0
  0
VERTEX
  8
0
 10
0.403267
 20
12.9677
 30
0.0
 40
0
 41
0
  0
VERTEX
  8
0
 10
0.410861
 20
12.996
 30
0.0
 40
0
 41
0
  0
VERTEX
  8
0
 10
0.431586
 20
13.0268
 30
0.0
 40
0
 41
0
  0
VERTEX
  8
0
 10
0.462294
 20
13.0475
 30
0.0
 40
0
 41
0
  0
VERTEX
  8
0
 10
0.49056
 20
13.0551
 30
0.0
 40
0
 41
0
  0
VERTEX
  8
0
 10
0.5
 20
13.0551
 30
0.0
 40
0
 41
0
  0
VERTEX
  8
0
 10
0.509386
 20
13.0551
 30
0.0
 40
0
 41
0
  0
VERTEX
  8
0
 10
0.537651
 20
13.0475
 30
0.0
 40
0
 41
0
  0
VERTEX
  8
0
 10
0.56836
 20
13.0268
 30
0.0
 40
0
 41
0
  0
VERTEX
  8
0
 10
0.589085
 20
12.996
 30
0.0
 40
0
 41
0
  0
VERTEX
  8
0
 10
0.596733
 20
12.9677
 30
0.0
 40
0
 41
0
  0
VERTEX
  8
0
 10
0.596733
 20
12.9583
 30
0.0
 40
0
 41
0
  0
VERTEX
  8
0
 10
0.596733
 20
12.9489
 30
0.0
 40
0
 41
0
  0
VERTEX
  8
0
 10
0.589085
 20
12.9206
 30
0.0
 40
0
 41
0
  0
VERTEX
  8
0
 10
0.56836
 20
12.8899
 30
0.0
 40
0
 41
0
  0
VERTEX
  8
0
 10
0.537651
 20
12.8692
 30
0.0
 40
0
 41
0
  0
VERTEX
  8
0
 10
0.509386
 20
12.8615
 30
0.0
 40
0
 41
0
  0
VERTEX
  8
0
 10
0.5
 20
12.8615
 30
0.0
 40
0
 41
0
  0
SEQEND
 8
0
  0
POLYLINE
  8
0
 62
     0
 66
     1
 10
0
 20
0
 30
0.0
 70
     1
 40
0
 41
0
  0
VERTEX
  8
0
 10
1.625
 20
12.8615
 30
0.0
 40
0
 41
0
  0
VERTEX
  8
0
 10
1.61556
 20
12.8615
 30
0.0
 40
0
 41
0
  0
VERTEX
  8
0
 10
1.58729
 20
12.8692
 30
0.0
 40
0
 41
0
  0
VERTEX
  8
0
 10
1.55658
 20
12.8899
 30
0.0
 40
0
 41
0
  0
VERTEX
  8
0
 10
1.53586
 20
12.9206
 30
0.0
 40
0
 41
0
  0
VERTEX
  8
0
 10
1.52826
 20
12.9489
 30
0.0
 40
0
 41
0
  0
VERTEX
  8
0
 10
1.52826
 20
12.9583
 30
0.0
 40
0
 41
0
  0
VERTEX
  8
0
 10
1.52826
 20
12.9677
 30
0.0
 40
0
 41
0
  0
VERTEX
  8
0
 10
1.53586
 20
12.996
 30
0.0
 40
0
 41
0
  0
VERTEX
  8
0
 10
1.55658
 20
13.0268
 30
0.0
 40
0
 41
0
  0
VERTEX
  8
0
 10
1.58729
 20
13.0475
 30
0.0
 40
0
 41
0
  0
VERTEX
  8
0
 10
1.61556
 20
13.0551
 30
0.0
 40
0
 41
0
  0
VERTEX
  8
0
 10
1.625
 20
13.0551
 30
0.0
 40
0
 41
0
  0
VERTEX
  8
0
 10
1.63439
 20
13.0551
 30
0.0
 40
0
 41
0
  0
VERTEX
  8
0
 10
1.66265
 20
13.0475
 30
0.0
 40
0
 41
0
  0
VERTEX
  8
0
 10
1.69336
 20
13.0268
 30
0.0
 40
0
 41
0
  0
VERTEX
  8
0
 10
1.71408
 20
12.996
 30
0.0
 40
0
 41
0
  0
VERTEX
  8
0
 10
1.72174
 20
12.9677
 30
0.0
 40
0
 41
0
  0
VERTEX
  8
0
 10
1.72174
 20
12.9583
 30
0.0
 40
0
 41
0
  0
VERTEX
  8
0
 10
1.72174
 20
12.9489
 30
0.0
 40
0
 41
0
  0
VERTEX
  8
0
 10
1.71408
 20
12.9206
 30
0.0
 40
0
 41
0
  0
VERTEX
  8
0
 10
1.69336
 20
12.8899
 30
0.0
 40
0
 41
0
  0
VERTEX
  8
0
 10
1.66265
 20
12.8692
 30
0.0
 40
0
 41
0
  0
VERTEX
  8
0
 10
1.63439
 20
12.8615
 30
0.0
 40
0
 41
0
  0
VERTEX
  8
0
 10
1.625
 20
12.8615
 30
0.0
 40
0
 41
0
  0
SEQEND
 8
0
  0
POLYLINE
  8
0
 62
     0
 66
     1
 10
0
 20
0
 30
0.0
 70
     1
 40
0
 41
0
  0
VERTEX
  8
0
 10
0
 20
5.83556
 30
0.0
 40
0
 41
0
  0
VERTEX
  8
0
 10
13.5
 20
5.83556
 30
0.0
 40
0
 41
0
  0
VERTEX
  8
0
 10
13.5
 20
0.00564236
 30
0.0
 40
0
 41
0
  0
VERTEX
  8
0
 10
0
 20
0.00564236
 30
0.0
 40
0
 41
0
  0
VERTEX
  8
0
 10
0
 20
5.83556
 30
0.0
 40
0
 41
0
  0
SEQEND
 8
0
  0
POLYLINE
  8
0
 62
     0
 66
     1
 10
0
 20
0
 30
0.0
 70
     1
 40
0
 41
0
  0
VERTEX
  8
0
 10
3.65597
 20
2.25553
 30
0.0
 40
0
 41
0
  0
VERTEX
  8
0
 10
2.28097
 20
2.25553
 30
0.0
 40
0
 41
0
  0
VERTEX
  8
0
 10
2.25663
 20
2.25553
 30
0.0
 40
0
 41
0
  0
VERTEX
  8
0
 10
2.18365
 20
2.23589
 30
0.0
 40
0
 41
0
  0
VERTEX
  8
0
 10
2.10422
 20
2.18235
 30
0.0
 40
0
 41
0
  0
VERTEX
  8
0
 10
2.05063
 20
2.10286
 30
0.0
 40
0
 41
0
  0
VERTEX
  8
0
 10
2.03097
 20
2.02989
 30
0.0
 40
0
 41
0
  0
VERTEX
  8
0
 10
2.03097
 20
2.00553
 30
0.0
 40
0
 41
0
  0
VERTEX
  8
0
 10
2.03097
 20
1.98122
 30
0.0
 40
0
 41
0
  0
VERTEX
  8
0
 10
2.05063
 20
1.90826
 30
0.0
 40
0
 41
0
  0
VERTEX
  8
0
 10
2.10422
 20
1.82878
 30
0.0
 40
0
 41
0
  0
VERTEX
  8
0
 10
2.18365
 20
1.77522
 30
0.0
 40
0
 41
0
  0
VERTEX
  8
0
 10
2.25663
 20
1.75553
 30
0.0
 40
0
 41
0
  0
VERTEX
  8
0
 10
2.28097
 20
1.75553
 30
0.0
 40
0
 41
0
  0
VERTEX
  8
0
 10
3.65597
 20
1.75553
 30
0.0
 40
0
 41
0
  0
VERTEX
  8
0
 10
3.68028
 20
1.75553
 30
0.0
 40
0
 41
0
  0
VERTEX
  8
0
 10
3.75325
 20
1.77522
 30
0.0
 40
0
 41
0
  0
VERTEX
  8
0
 10
3.83274
 20
1.82878
 30
0.0
 40
0
 41
0
  0
VERTEX
  8
0
 10
3.88629
 20
1.90826
 30
0.0
 40
0
 41
0
  0
VERTEX
  8
0
 10
3.90597
 20
1.98122
 30
0.0
 40
0
 41
0
  0
VERTEX
  8
0
 10
3.90597
 20
2.00553
 30
0.0
 40
0
 41
0
  0
VERTEX
  8
0
 10
3.90597
 20
2.02989
 30
0.0
 40
0
 41
0
  0
VERTEX
  8
0
 10
3.88629
 20
2.10286
 30
0.0
 40
0
 41
0
  0
VERTEX
  8
0
 10
3.83274
 20
2.18235
 30
0.0
 40
0
 41
0
  0
VERTEX
  8
0
 10
3.75325
 20
2.23589
 30
0.0
 40
0
 41
0
  0
VERTEX
  8
0
 10
3.68028
 20
2.25553
 30
0.0
 40
0
 41
0
  0
VERTEX
  8
0
 10
3.65597
 20
2.25553
 30
0.0
 40
0
 41
0
  0
SEQEND
 8
0
  0
POLYLINE
  8
0
 62
     0
 66
     1
 10
0
 20
0
 30
0.0
 70
     1
 40
0
 41
0
  0
VERTEX
  8
0
 10
7.83507
 20
2.92057
 30
0.0
 40
0
 41
0
  0
VERTEX
  8
0
 10
7.83507
 20
2.97276
 30
0.0
 40
0
 41
0
  0
VERTEX
  8
0
 10
7.8456
 20
3.12918
 30
0.0
 40
0
 41
0
  0
VERTEX
  8
0
 10
7.87646
 20
3.33176
 30
0.0
 40
0
 41
0
  0
VERTEX
  8
0
 10
7.92676
 20
3.52724
 30
0.0
 40
0
 41
0
  0
VERTEX
  8
0
 10
7.99533
 20
3.71468
 30
0.0
 40
0
 41
0
  0
VERTEX
  8
0
 10
8.08128
 20
3.89301
 30
0.0
 40
0
 41
0
  0
VERTEX
  8
0
 10
8.18343
 20
4.06119
 30
0.0
 40
0
 41
0
  0
VERTEX
  8
0
 10
8.30083
 20
4.21821
 30
0.0
 40
0
 41
0
  0
VERTEX
  8
0
 10
8.43251
 20
4.36312
 30
0.0
 40
0
 41
0
  0
VERTEX
  8
0
 10
8.57736
 20
4.49474
 30
0.0
 40
0
 41
0
  0
VERTEX
  8
0
 10
8.73443
 20
4.61219
 30
0.0
 40
0
 41
0
  0
VERTEX
  8
0
 10
8.90261
 20
4.71436
 30
0.0
 40
0
 41
0
  0
VERTEX
  8
0
 10
9.08094
 20
4.80029
 30
0.0
 40
0
 41
0
  0
VERTEX
  8
0
 10
9.26833
 20
4.86887
 30
0.0
 40
0
 41
0
  0
VERTEX
  8
0
 10
9.46386
 20
4.91917
 30
0.0
 40
0
 41
0
  0
VERTEX
  8
0
 10
9.66639
 20
4.95003
 30
0.0
 40
0
 41
0
  0
VERTEX
  8
0
 10
9.82281
 20
4.96056
 30
0.0
 40
0
 41
0
  0
VERTEX
  8
0
 10
9.875
 20
4.96056
 30
0.0
 40
0
 41
0
  0
VERTEX
  8
0
 10
9.92714
 20
4.96056
 30
0.0
 40
0
 41
0
  0
VERTEX
  8
0
 10
10.0836
 20
4.95003
 30
0.0
 40
0
 41
0
  0
VERTEX
  8
0
 10
10.2861
 20
4.91917
 30
0.0
 40
0
 41
0
  0
VERTEX
  8
0
 10
10.4816
 20
4.86887
 30
0.0
 40
0
 41
0
  0
VERTEX
  8
0
 10
10.669
 20
4.80029
 30
0.0
 40
0
 41
0
  0
VERTEX
  8
0
 10
10.8473
 20
4.71436
 30
0.0
 40
0
 41
0
  0
VERTEX
  8
0
 10
11.0155
 20
4.61219
 30
0.0
 40
0
 41
0
  0
VERTEX
  8
0
 10
11.1726
 20
4.49474
 30
0.0
 40
0
 41
0
  0
VERTEX
  8
0
 10
11.3174
 20
4.36312
 30
0.0
 40
0
 41
0
  0
VERTEX
  8
0
 10
11.4491
 20
4.21821
 30
0.0
 40
0
 41
0
  0
VERTEX
  8
0
 10
11.5665
 20
4.06119
 30
0.0
 40
0
 41
0
  0
VERTEX
  8
0
 10
11.6687
 20
3.89301
 30
0.0
 40
0
 41
0
  0
VERTEX
  8
0
 10
11.7546
 20
3.71468
 30
0.0
 40
0
 41
0
  0
VERTEX
  8
0
 10
11.8232
 20
3.52724
 30
0.0
 40
0
 41
0
  0
VERTEX
  8
0
 10
11.8735
 20
3.33176
 30
0.0
 40
0
 41
0
  0
VERTEX
  8
0
 10
11.9043
 20
3.12918
 30
0.0
 40
0
 41
0
  0
VERTEX
  8
0
 10
11.9149
 20
2.97276
 30
0.0
 40
0
 41
0
  0
VERTEX
  8
0
 10
11.9149
 20
2.92057
 30
0.0
 40
0
 41
0
  0
VERTEX
  8
0
 10
11.9149
 20
2.86843
 30
0.0
 40
0
 41
0
  0
VERTEX
  8
0
 10
11.9043
 20
2.71203
 30
0.0
 40
0
 41
0
  0
VERTEX
  8
0
 10
11.8735
 20
2.5095
 30
0.0
 40
0
 41
0
  0
VERTEX
  8
0
 10
11.8232
 20
2.31396
 30
0.0
 40
0
 41
0
  0
VERTEX
  8
0
 10
11.7546
 20
2.12657
 30
0.0
 40
0
 41
0
  0
VERTEX
  8
0
 10
11.6687
 20
1.94824
 30
0.0
 40
0
 41
0
  0
VERTEX
  8
0
 10
11.5665
 20
1.78006
 30
0.0
 40
0
 41
0
  0
VERTEX
  8
0
 10
11.4491
 20
1.62299
 30
0.0
 40
0
 41
0
  0
VERTEX
  8
0
 10
11.3174
 20
1.47814
 30
0.0
 40
0
 41
0
  0
VERTEX
  8
0
 10
11.1726
 20
1.34646
 30
0.0
 40
0
 41
0
  0
VERTEX
  8
0
 10
11.0155
 20
1.22906
 30
0.0
 40
0
 41
0
  0
VERTEX
  8
0
 10
10.8473
 20
1.1269
 30
0.0
 40
0
 41
0
  0
VERTEX
  8
0
 10
10.669
 20
1.04096
 30
0.0
 40
0
 41
0
  0
VERTEX
  8
0
 10
10.4816
 20
0.972385
 30
0.0
 40
0
 41
0
  0
VERTEX
  8
0
 10
10.2861
 20
0.922092
 30
0.0
 40
0
 41
0
  0
VERTEX
  8
0
 10
10.0836
 20
0.891222
 30
0.0
 40
0
 41
0
  0
VERTEX
  8
0
 10
9.92714
 20
0.880643
 30
0.0
 40
0
 41
0
  0
VERTEX
  8
0
 10
9.875
 20
0.880643
 30
0.0
 40
0
 41
0
  0
VERTEX
  8
0
 10
9.82281
 20
0.880643
 30
0.0
 40
0
 41
0
  0
VERTEX
  8
0
 10
9.66639
 20
0.891222
 30
0.0
 40
0
 41
0
  0
VERTEX
  8
0
 10
9.46386
 20
0.922092
 30
0.0
 40
0
 41
0
  0
VERTEX
  8
0
 10
9.26833
 20
0.972385
 30
0.0
 40
0
 41
0
  0
VERTEX
  8
0
 10
9.08094
 20
1.04096
 30
0.0
 40
0
 41
0
  0
VERTEX
  8
0
 10
8.90261
 20
1.1269
 30
0.0
 40
0
 41
0
  0
VERTEX
  8
0
 10
8.73443
 20
1.22906
 30
0.0
 40
0
 41
0
  0
VERTEX
  8
0
 10
8.57736
 20
1.34646
 30
0.0
 40
0
 41
0
  0
VERTEX
  8
0
 10
8.43251
 20
1.47814
 30
0.0
 40
0
 41
0
  0
VERTEX
  8
0
 10
8.30083
 20
1.62299
 30
0.0
 40
0
 41
0
  0
VERTEX
  8
0
 10
8.18343
 20
1.78006
 30
0.0
 40
0
 41
0
  0
VERTEX
  8
0
 10
8.08128
 20
1.94824
 30
0.0
 40
0
 41
0
  0
VERTEX
  8
0
 10
7.99533
 20
2.12657
 30
0.0
 40
0
 41
0
  0
VERTEX
  8
0
 10
7.92676
 20
2.31396
 30
0.0
 40
0
 41
0
  0
VERTEX
  8
0
 10
7.87646
 20
2.5095
 30
0.0
 40
0
 41
0
  0
VERTEX
  8
0
 10
7.8456
 20
2.71203
 30
0.0
 40
0
 41
0
  0
VERTEX
  8
0
 10
7.83507
 20
2.86843
 30
0.0
 40
0
 41
0
  0
VERTEX
  8
0
 10
7.83507
 20
2.92057
 30
0.0
 40
0
 41
0
  0
SEQEND
 8
0
  0
POLYLINE
  8
0
 62
     0
 66
     1
 10
0
 20
0
 30
0.0
 70
     1
 40
0
 41
0
  0
VERTEX
  8
0
 10
3.40326
 20
0.973144
 30
0.0
 40
0
 41
0
  0
VERTEX
  8
0
 10
3.40326
 20
0.982585
 30
0.0
 40
0
 41
0
  0
VERTEX
  8
0
 10
3.41086
 20
1.01085
 30
0.0
 40
0
 41
0
  0
VERTEX
  8
0
 10
3.43158
 20
1.04156
 30
0.0
 40
0
 41
0
  0
VERTEX
  8
0
 10
3.46229
 20
1.06228
 30
0.0
 40
0
 41
0
  0
VERTEX
  8
0
 10
3.49056
 20
1.06988
 30
0.0
 40
0
 41
0
  0
VERTEX
  8
0
 10
3.5
 20
1.06988
 30
0.0
 40
0
 41
0
  0
VERTEX
  8
0
 10
3.50939
 20
1.06988
 30
0.0
 40
0
 41
0
  0
VERTEX
  8
0
 10
3.53765
 20
1.06228
 30
0.0
 40
0
 41
0
  0
VERTEX
  8
0
 10
3.56836
 20
1.04156
 30
0.0
 40
0
 41
0
  0
VERTEX
  8
0
 10
3.58908
 20
1.01085
 30
0.0
 40
0
 41
0
  0
VERTEX
  8
0
 10
3.59674
 20
0.982585
 30
0.0
 40
0
 41
0
  0
VERTEX
  8
0
 10
3.59674
 20
0.973144
 30
0.0
 40
0
 41
0
  0
VERTEX
  8
0
 10
3.59674
 20
0.963758
 30
0.0
 40
0
 41
0
  0
VERTEX
  8
0
 10
3.58908
 20
0.935493
 30
0.0
 40
0
 41
0
  0
VERTEX
  8
0
 10
3.56836
 20
0.904785
 30
0.0
 40
0
 41
0
  0
VERTEX
  8
0
 10
3.53765
 20
0.88406
 30
0.0
 40
0
 41
0
  0
VERTEX
  8
0
 10
3.50939
 20
0.876411
 30
0.0
 40
0
 41
0
  0
VERTEX
  8
0
 10
3.5
 20
0.876411
 30
0.0
 40
0
 41
0
  0
VERTEX
  8
0
 10
3.49056
 20
0.876411
 30
0.0
 40
0
 41
0
  0
VERTEX
  8
0
 10
3.46229
 20
0.88406
 30
0.0
 40
0
 41
0
  0
VERTEX
  8
0
 10
3.43158
 20
0.904785
 30
0.0
 40
0
 41
0
  0
VERTEX
  8
0
 10
3.41086
 20
0.935493
 30
0.0
 40
0
 41
0
  0
VERTEX
  8
0
 10
3.40326
 20
0.963758
 30
0.0
 40
0
 41
0
  0
VERTEX
  8
0
 10
3.40326
 20
0.973144
 30
0.0
 40
0
 41
0
  0
SEQEND
 8
0
  0
POLYLINE
  8
0
 62
     0
 66
     1
 10
0
 20
0
 30
0.0
 70
     1
 40
0
 41
0
  0
VERTEX
  8
0
 10
1.3138
 20
0.973144
 30
0.0
 40
0
 41
0
  0
VERTEX
  8
0
 10
1.3138
 20
0.982585
 30
0.0
 40
0
 41
0
  0
VERTEX
  8
0
 10
1.3214
 20
1.01085
 30
0.0
 40
0
 41
0
  0
VERTEX
  8
0
 10
1.34212
 20
1.04156
 30
0.0
 40
0
 41
0
  0
VERTEX
  8
0
 10
1.37283
 20
1.06228
 30
0.0
 40
0
 41
0
  0
VERTEX
  8
0
 10
1.4011
 20
1.06988
 30
0.0
 40
0
 41
0
  0
VERTEX
  8
0
 10
1.41054
 20
1.06988
 30
0.0
 40
0
 41
0
  0
VERTEX
  8
0
 10
1.41992
 20
1.06988
 30
0.0
 40
0
 41
0
  0
VERTEX
  8
0
 10
1.44819
 20
1.06228
 30
0.0
 40
0
 41
0
  0
VERTEX
  8
0
 10
1.47889
 20
1.04156
 30
0.0
 40
0
 41
0
  0
VERTEX
  8
0
 10
1.49963
 20
1.01085
 30
0.0
 40
0
 41
0
  0
VERTEX
  8
0
 10
1.50726
 20
0.982585
 30
0.0
 40
0
 41
0
  0
VERTEX
  8
0
 10
1.50726
 20
0.973144
 30
0.0
 40
0
 41
0
  0
VERTEX
  8
0
 10
1.50726
 20
0.963758
 30
0.0
 40
0
 41
0
  0
VERTEX
  8
0
 10
1.49963
 20
0.935493
 30
0.0
 40
0
 41
0
  0
VERTEX
  8
0
 10
1.47889
 20
0.904785
 30
0.0
 40
0
 41
0
  0
VERTEX
  8
0
 10
1.44819
 20
0.88406
 30
0.0
 40
0
 41
0
  0
VERTEX
  8
0
 10
1.41992
 20
0.876411
 30
0.0
 40
0
 41
0
  0
VERTEX
  8
0
 10
1.41054
 20
0.876411
 30
0.0
 40
0
 41
0
  0
VERTEX
  8
0
 10
1.4011
 20
0.876411
 30
0.0
 40
0
 41
0
  0
VERTEX
  8
0
 10
1.37283
 20
0.88406
 30
0.0
 40
0
 41
0
  0
VERTEX
  8
0
 10
1.34212
 20
0.904785
 30
0.0
 40
0
 41
0
  0
VERTEX
  8
0
 10
1.3214
 20
0.935493
 30
0.0
 40
0
 41
0
  0
VERTEX
  8
0
 10
1.3138
 20
0.963758
 30
0.0
 40
0
 41
0
  0
VERTEX
  8
0
 10
1.3138
 20
0.973144
 30
0.0
 40
0
 41
0
  0
SEQEND
 8
0
  0
POLYLINE
  8
0
 62
     0
 66
     1
 10
0
 20
0
 30
0.0
 70
     1
 40
0
 41
0
  0
VERTEX
  8
0
 10
1.40326
 20
4.94314
 30
0.0
 40
0
 41
0
  0
VERTEX
  8
0
 10
1.40326
 20
4.95258
 30
0.0
 40
0
 41
0
  0
VERTEX
  8
0
 10
1.41086
 20
4.98085
 30
0.0
 40
0
 41
0
  0
VERTEX
  8
0
 10
1.43158
 20
5.01156
 30
0.0
 40
0
 41
0
  0
VERTEX
  8
0
 10
1.46229
 20
5.03228
 30
0.0
 40
0
 41
0
  0
VERTEX
  8
0
 10
1.49056
 20
5.03988
 30
0.0
 40
0
 41
0
  0
VERTEX
  8
0
 10
1.5
 20
5.03988
 30
0.0
 40
0
 41
0
  0
VERTEX
  8
0
 10
1.50939
 20
5.03988
 30
0.0
 40
0
 41
0
  0
VERTEX
  8
0
 10
1.53765
 20
5.03228
 30
0.0
 40
0
 41
0
  0
VERTEX
  8
0
 10
1.56836
 20
5.01156
 30
0.0
 40
0
 41
0
  0
VERTEX
  8
0
 10
1.58908
 20
4.98085
 30
0.0
 40
0
 41
0
  0
VERTEX
  8
0
 10
1.59674
 20
4.95258
 30
0.0
 40
0
 41
0
  0
VERTEX
  8
0
 10
1.59674
 20
4.94314
 30
0.0
 40
0
 41
0
  0
VERTEX
  8
0
 10
1.59674
 20
4.93375
 30
0.0
 40
0
 41
0
  0
VERTEX
  8
0
 10
1.58908
 20
4.90549
 30
0.0
 40
0
 41
0
  0
VERTEX
  8
0
 10
1.56836
 20
4.87478
 30
0.0
 40
0
 41
0
  0
VERTEX
  8
0
 10
1.53765
 20
4.85406
 30
0.0
 40
0
 41
0
  0
VERTEX
  8
0
 10
1.50939
 20
4.8464
 30
0.0
 40
0
 41
0
  0
VERTEX
  8
0
 10
1.5
 20
4.8464
 30
0.0
 40
0
 41
0
  0
VERTEX
  8
0
 10
1.49056
 20
4.8464
 30
0.0
 40
0
 41
0
  0
VERTEX
  8
0
 10
1.46229
 20
4.85406
 30
0.0
 40
0
 41
0
  0
VERTEX
  8
0
 10
1.43158
 20
4.87478
 30
0.0
 40
0
 41
0
  0
VERTEX
  8
0
 10
1.41086
 20
4.90549
 30
0.0
 40
0
 41
0
  0
VERTEX
  8
0
 10
1.40326
 20
4.93375
 30
0.0
 40
0
 41
0
  0
VERTEX
  8
0
 10
1.40326
 20
4.94314
 30
0.0
 40
0
 41
0
  0
SEQEND
 8
0
  0
ENDSEC
  0
EOF
