  0
SECTION
  2
HEADER
  9
$ACADVER
  1
AC1009
  9
$EXTMIN
 10
0.0
 20
0.0
 30
0.0
  9
$EXTMAX
 10
1000.0
 20
1000.0
 30
0.0
  9
$FILLMODE
 70
 0
  9
$SPLFRAME
 70
 1
  0
ENDSEC
  0
SECTION
  2
TABLES
  0
TABLE
  2
LAYER
 70
1
  0
LAYER
  2
0
 70
     0
 62
     7
  6
CONTINUOUS
  0
ENDTAB
  0
ENDSEC
  0
SECTION
  2
ENTITIES
  0
POLYLINE
  8
0
 62
     0
 66
     1
 10
0
 20
0
 30
0.0
 70
     1
 40
0
 41
0
  0
VERTEX
  8
0
 10
0
 20
38.3333
 30
0.0
 40
0
 41
0
  0
VERTEX
  8
0
 10
9.02501
 20
38.3333
 30
0.0
 40
0
 41
0
  0
VERTEX
  8
0
 10
9.02501
 20
13.7333
 30
0.0
 40
0
 41
0
  0
VERTEX
  8
0
 10
0
 20
13.7333
 30
0.0
 40
0
 41
0
  0
VERTEX
  8
0
 10
0
 20
38.3333
 30
0.0
 40
0
 41
0
  0
SEQEND
 8
0
  0
POLYLINE
  8
0
 62
     0
 66
     1
 10
0
 20
0
 30
0.0
 70
     1
 40
0
 41
0
  0
VERTEX
  8
0
 10
3.40001
 20
16.8024
 30
0.0
 40
0
 41
0
  0
VERTEX
  8
0
 10
3.40001
 20
20.8024
 30
0.0
 40
0
 41
0
  0
VERTEX
  8
0
 10
3.40001
 20
20.8146
 30
0.0
 40
0
 41
0
  0
VERTEX
  8
0
 10
3.39513
 20
20.8514
 30
0.0
 40
0
 41
0
  0
VERTEX
  8
0
 10
3.38097
 20
20.8981
 30
0.0
 40
0
 41
0
  0
VERTEX
  8
0
 10
3.35796
 20
20.9411
 30
0.0
 40
0
 41
0
  0
VERTEX
  8
0
 10
3.33539
 20
20.9706
 30
0.0
 40
0
 41
0
  0
VERTEX
  8
0
 10
3.32676
 20
20.9792
 30
0.0
 40
0
 41
0
  0
VERTEX
  8
0
 10
3.31808
 20
20.9878
 30
0.0
 40
0
 41
0
  0
VERTEX
  8
0
 10
3.28868
 20
21.0104
 30
0.0
 40
0
 41
0
  0
VERTEX
  8
0
 10
3.24567
 20
21.0333
 30
0.0
 40
0
 41
0
  0
VERTEX
  8
0
 10
3.199
 20
21.0475
 30
0.0
 40
0
 41
0
  0
VERTEX
  8
0
 10
3.16222
 20
21.0524
 30
0.0
 40
0
 41
0
  0
VERTEX
  8
0
 10
3.15001
 20
21.0524
 30
0.0
 40
0
 41
0
  0
VERTEX
  8
0
 10
2.40001
 20
21.0524
 30
0.0
 40
0
 41
0
  0
VERTEX
  8
0
 10
2.38775
 20
21.0524
 30
0.0
 40
0
 41
0
  0
VERTEX
  8
0
 10
2.35097
 20
21.0475
 30
0.0
 40
0
 41
0
  0
VERTEX
  8
0
 10
2.30431
 20
21.0333
 30
0.0
 40
0
 41
0
  0
VERTEX
  8
0
 10
2.26129
 20
21.0104
 30
0.0
 40
0
 41
0
  0
VERTEX
  8
0
 10
2.23182
 20
20.9878
 30
0.0
 40
0
 41
0
  0
VERTEX
  8
0
 10
2.22319
 20
20.9792
 30
0.0
 40
0
 41
0
  0
VERTEX
  8
0
 10
2.21451
 20
20.9706
 30
0.0
 40
0
 41
0
  0
VERTEX
  8
0
 10
2.19194
 20
20.9411
 30
0.0
 40
0
 41
0
  0
VERTEX
  8
0
 10
2.169
 20
20.8981
 30
0.0
 40
0
 41
0
  0
VERTEX
  8
0
 10
2.15483
 20
20.8514
 30
0.0
 40
0
 41
0
  0
VERTEX
  8
0
 10
2.15001
 20
20.8146
 30
0.0
 40
0
 41
0
  0
VERTEX
  8
0
 10
2.15001
 20
20.8024
 30
0.0
 40
0
 41
0
  0
VERTEX
  8
0
 10
2.15001
 20
16.8024
 30
0.0
 40
0
 41
0
  0
VERTEX
  8
0
 10
2.15001
 20
16.7781
 30
0.0
 40
0
 41
0
  0
VERTEX
  8
0
 10
2.16965
 20
16.7051
 30
0.0
 40
0
 41
0
  0
VERTEX
  8
0
 10
2.22319
 20
16.6256
 30
0.0
 40
0
 41
0
  0
VERTEX
  8
0
 10
2.30268
 20
16.5721
 30
0.0
 40
0
 41
0
  0
VERTEX
  8
0
 10
2.37565
 20
16.5524
 30
0.0
 40
0
 41
0
  0
VERTEX
  8
0
 10
2.40001
 20
16.5524
 30
0.0
 40
0
 41
0
  0
VERTEX
  8
0
 10
3.15001
 20
16.5524
 30
0.0
 40
0
 41
0
  0
VERTEX
  8
0
 10
3.17432
 20
16.5524
 30
0.0
 40
0
 41
0
  0
VERTEX
  8
0
 10
3.24729
 20
16.5721
 30
0.0
 40
0
 41
0
  0
VERTEX
  8
0
 10
3.32676
 20
16.6256
 30
0.0
 40
0
 41
0
  0
VERTEX
  8
0
 10
3.38032
 20
16.7051
 30
0.0
 40
0
 41
0
  0
VERTEX
  8
0
 10
3.40001
 20
16.7781
 30
0.0
 40
0
 41
0
  0
VERTEX
  8
0
 10
3.40001
 20
16.8024
 30
0.0
 40
0
 41
0
  0
SEQEND
 8
0
  0
POLYLINE
  8
0
 62
     0
 66
     1
 10
0
 20
0
 30
0.0
 70
     1
 40
0
 41
0
  0
VERTEX
  8
0
 10
2.40001
 20
31.0143
 30
0.0
 40
0
 41
0
  0
VERTEX
  8
0
 10
3.15001
 20
31.0143
 30
0.0
 40
0
 41
0
  0
VERTEX
  8
0
 10
3.17432
 20
31.0143
 30
0.0
 40
0
 41
0
  0
VERTEX
  8
0
 10
3.24729
 20
31.034
 30
0.0
 40
0
 41
0
  0
VERTEX
  8
0
 10
3.32676
 20
31.0875
 30
0.0
 40
0
 41
0
  0
VERTEX
  8
0
 10
3.38032
 20
31.1671
 30
0.0
 40
0
 41
0
  0
VERTEX
  8
0
 10
3.40001
 20
31.24
 30
0.0
 40
0
 41
0
  0
VERTEX
  8
0
 10
3.40001
 20
31.2643
 30
0.0
 40
0
 41
0
  0
VERTEX
  8
0
 10
3.40001
 20
35.2643
 30
0.0
 40
0
 41
0
  0
VERTEX
  8
0
 10
3.40001
 20
35.2765
 30
0.0
 40
0
 41
0
  0
VERTEX
  8
0
 10
3.39513
 20
35.3133
 30
0.0
 40
0
 41
0
  0
VERTEX
  8
0
 10
3.38097
 20
35.36
 30
0.0
 40
0
 41
0
  0
VERTEX
  8
0
 10
3.35796
 20
35.4031
 30
0.0
 40
0
 41
0
  0
VERTEX
  8
0
 10
3.33539
 20
35.4325
 30
0.0
 40
0
 41
0
  0
VERTEX
  8
0
 10
3.32676
 20
35.4411
 30
0.0
 40
0
 41
0
  0
VERTEX
  8
0
 10
3.31808
 20
35.4499
 30
0.0
 40
0
 41
0
  0
VERTEX
  8
0
 10
3.28868
 20
35.4724
 30
0.0
 40
0
 41
0
  0
VERTEX
  8
0
 10
3.24567
 20
35.4953
 30
0.0
 40
0
 41
0
  0
VERTEX
  8
0
 10
3.199
 20
35.5094
 30
0.0
 40
0
 41
0
  0
VERTEX
  8
0
 10
3.16222
 20
35.5143
 30
0.0
 40
0
 41
0
  0
VERTEX
  8
0
 10
3.15001
 20
35.5143
 30
0.0
 40
0
 41
0
  0
VERTEX
  8
0
 10
2.40001
 20
35.5143
 30
0.0
 40
0
 41
0
  0
VERTEX
  8
0
 10
2.37565
 20
35.5143
 30
0.0
 40
0
 41
0
  0
VERTEX
  8
0
 10
2.30268
 20
35.4947
 30
0.0
 40
0
 41
0
  0
VERTEX
  8
0
 10
2.22319
 20
35.4411
 30
0.0
 40
0
 41
0
  0
VERTEX
  8
0
 10
2.16965
 20
35.3617
 30
0.0
 40
0
 41
0
  0
VERTEX
  8
0
 10
2.15001
 20
35.2888
 30
0.0
 40
0
 41
0
  0
VERTEX
  8
0
 10
2.15001
 20
35.2643
 30
0.0
 40
0
 41
0
  0
VERTEX
  8
0
 10
2.15001
 20
31.2643
 30
0.0
 40
0
 41
0
  0
VERTEX
  8
0
 10
2.15001
 20
31.24
 30
0.0
 40
0
 41
0
  0
VERTEX
  8
0
 10
2.16965
 20
31.1671
 30
0.0
 40
0
 41
0
  0
VERTEX
  8
0
 10
2.22319
 20
31.0875
 30
0.0
 40
0
 41
0
  0
VERTEX
  8
0
 10
2.30268
 20
31.034
 30
0.0
 40
0
 41
0
  0
VERTEX
  8
0
 10
2.37565
 20
31.0143
 30
0.0
 40
0
 41
0
  0
VERTEX
  8
0
 10
2.40001
 20
31.0143
 30
0.0
 40
0
 41
0
  0
SEQEND
 8
0
  0
POLYLINE
  8
0
 62
     0
 66
     1
 10
0
 20
0
 30
0.0
 70
     1
 40
0
 41
0
  0
VERTEX
  8
0
 10
7.52501
 20
24.1583
 30
0.0
 40
0
 41
0
  0
VERTEX
  8
0
 10
7.52501
 20
27.9083
 30
0.0
 40
0
 41
0
  0
VERTEX
  8
0
 10
7.52501
 20
27.9206
 30
0.0
 40
0
 41
0
  0
VERTEX
  8
0
 10
7.52012
 20
27.9574
 30
0.0
 40
0
 41
0
  0
VERTEX
  8
0
 10
7.50597
 20
28.004
 30
0.0
 40
0
 41
0
  0
VERTEX
  8
0
 10
7.48296
 20
28.0471
 30
0.0
 40
0
 41
0
  0
VERTEX
  8
0
 10
7.46039
 20
28.0765
 30
0.0
 40
0
 41
0
  0
VERTEX
  8
0
 10
7.45176
 20
28.0851
 30
0.0
 40
0
 41
0
  0
VERTEX
  8
0
 10
7.44308
 20
28.0938
 30
0.0
 40
0
 41
0
  0
VERTEX
  8
0
 10
7.41368
 20
28.1164
 30
0.0
 40
0
 41
0
  0
VERTEX
  8
0
 10
7.37067
 20
28.1393
 30
0.0
 40
0
 41
0
  0
VERTEX
  8
0
 10
7.324
 20
28.1535
 30
0.0
 40
0
 41
0
  0
VERTEX
  8
0
 10
7.28722
 20
28.1583
 30
0.0
 40
0
 41
0
  0
VERTEX
  8
0
 10
7.27501
 20
28.1583
 30
0.0
 40
0
 41
0
  0
VERTEX
  8
0
 10
2.40001
 20
28.1583
 30
0.0
 40
0
 41
0
  0
VERTEX
  8
0
 10
2.37565
 20
28.1583
 30
0.0
 40
0
 41
0
  0
VERTEX
  8
0
 10
2.30268
 20
28.1386
 30
0.0
 40
0
 41
0
  0
VERTEX
  8
0
 10
2.22319
 20
28.0851
 30
0.0
 40
0
 41
0
  0
VERTEX
  8
0
 10
2.16965
 20
28.0057
 30
0.0
 40
0
 41
0
  0
VERTEX
  8
0
 10
2.15001
 20
27.9326
 30
0.0
 40
0
 41
0
  0
VERTEX
  8
0
 10
2.15001
 20
27.9083
 30
0.0
 40
0
 41
0
  0
VERTEX
  8
0
 10
2.15001
 20
24.1583
 30
0.0
 40
0
 41
0
  0
VERTEX
  8
0
 10
2.15001
 20
24.134
 30
0.0
 40
0
 41
0
  0
VERTEX
  8
0
 10
2.16965
 20
24.061
 30
0.0
 40
0
 41
0
  0
VERTEX
  8
0
 10
2.22319
 20
23.9815
 30
0.0
 40
0
 41
0
  0
VERTEX
  8
0
 10
2.30268
 20
23.9281
 30
0.0
 40
0
 41
0
  0
VERTEX
  8
0
 10
2.37565
 20
23.9083
 30
0.0
 40
0
 41
0
  0
VERTEX
  8
0
 10
2.40001
 20
23.9083
 30
0.0
 40
0
 41
0
  0
VERTEX
  8
0
 10
7.27501
 20
23.9083
 30
0.0
 40
0
 41
0
  0
VERTEX
  8
0
 10
7.28722
 20
23.9083
 30
0.0
 40
0
 41
0
  0
VERTEX
  8
0
 10
7.324
 20
23.9132
 30
0.0
 40
0
 41
0
  0
VERTEX
  8
0
 10
7.37067
 20
23.9274
 30
0.0
 40
0
 41
0
  0
VERTEX
  8
0
 10
7.41368
 20
23.9504
 30
0.0
 40
0
 41
0
  0
VERTEX
  8
0
 10
7.44308
 20
23.9729
 30
0.0
 40
0
 41
0
  0
VERTEX
  8
0
 10
7.45176
 20
23.9815
 30
0.0
 40
0
 41
0
  0
VERTEX
  8
0
 10
7.46039
 20
23.9903
 30
0.0
 40
0
 41
0
  0
VERTEX
  8
0
 10
7.48296
 20
24.0196
 30
0.0
 40
0
 41
0
  0
VERTEX
  8
0
 10
7.50597
 20
24.0626
 30
0.0
 40
0
 41
0
  0
VERTEX
  8
0
 10
7.52012
 20
24.1093
 30
0.0
 40
0
 41
0
  0
VERTEX
  8
0
 10
7.52501
 20
24.1461
 30
0.0
 40
0
 41
0
  0
VERTEX
  8
0
 10
7.52501
 20
24.1583
 30
0.0
 40
0
 41
0
  0
SEQEND
 8
0
  0
POLYLINE
  8
0
 62
     0
 66
     1
 10
0
 20
0
 30
0.0
 70
     1
 40
0
 41
0
  0
VERTEX
  8
0
 10
0.525011
 20
14.5828
 30
0.0
 40
0
 41
0
  0
VERTEX
  8
0
 10
0.536404
 20
14.5828
 30
0.0
 40
0
 41
0
  0
VERTEX
  8
0
 10
0.570583
 20
14.5736
 30
0.0
 40
0
 41
0
  0
VERTEX
  8
0
 10
0.607856
 20
14.5485
 30
0.0
 40
0
 41
0
  0
VERTEX
  8
0
 10
0.632975
 20
14.5113
 30
0.0
 40
0
 41
0
  0
VERTEX
  8
0
 10
0.642199
 20
14.4771
 30
0.0
 40
0
 41
0
  0
VERTEX
  8
0
 10
0.642199
 20
14.4656
 30
0.0
 40
0
 41
0
  0
VERTEX
  8
0
 10
0.642199
 20
14.4542
 30
0.0
 40
0
 41
0
  0
VERTEX
  8
0
 10
0.632975
 20
14.42
 30
0.0
 40
0
 41
0
  0
VERTEX
  8
0
 10
0.607856
 20
14.3828
 30
0.0
 40
0
 41
0
  0
VERTEX
  8
0
 10
0.570583
 20
14.3576
 30
0.0
 40
0
 41
0
  0
VERTEX
  8
0
 10
0.536404
 20
14.3485
 30
0.0
 40
0
 41
0
  0
VERTEX
  8
0
 10
0.525011
 20
14.3485
 30
0.0
 40
0
 41
0
  0
VERTEX
  8
0
 10
0.513564
 20
14.3485
 30
0.0
 40
0
 41
0
  0
VERTEX
  8
0
 10
0.479383
 20
14.3576
 30
0.0
 40
0
 41
0
  0
VERTEX
  8
0
 10
0.442111
 20
14.3828
 30
0.0
 40
0
 41
0
  0
VERTEX
  8
0
 10
0.416992
 20
14.42
 30
0.0
 40
0
 41
0
  0
VERTEX
  8
0
 10
0.407824
 20
14.4542
 30
0.0
 40
0
 41
0
  0
VERTEX
  8
0
 10
0.407824
 20
14.4656
 30
0.0
 40
0
 41
0
  0
VERTEX
  8
0
 10
0.407824
 20
14.4771
 30
0.0
 40
0
 41
0
  0
VERTEX
  8
0
 10
0.416992
 20
14.5113
 30
0.0
 40
0
 41
0
  0
VERTEX
  8
0
 10
0.442111
 20
14.5485
 30
0.0
 40
0
 41
0
  0
VERTEX
  8
0
 10
0.479383
 20
14.5736
 30
0.0
 40
0
 41
0
  0
VERTEX
  8
0
 10
0.513564
 20
14.5828
 30
0.0
 40
0
 41
0
  0
VERTEX
  8
0
 10
0.525011
 20
14.5828
 30
0.0
 40
0
 41
0
  0
SEQEND
 8
0
  0
POLYLINE
  8
0
 62
     0
 66
     1
 10
0
 20
0
 30
0.0
 70
     1
 40
0
 41
0
  0
VERTEX
  8
0
 10
0.525011
 20
37.5756
 30
0.0
 40
0
 41
0
  0
VERTEX
  8
0
 10
0.536404
 20
37.5756
 30
0.0
 40
0
 41
0
  0
VERTEX
  8
0
 10
0.570583
 20
37.5664
 30
0.0
 40
0
 41
0
  0
VERTEX
  8
0
 10
0.607856
 20
37.5412
 30
0.0
 40
0
 41
0
  0
VERTEX
  8
0
 10
0.632975
 20
37.504
 30
0.0
 40
0
 41
0
  0
VERTEX
  8
0
 10
0.642199
 20
37.4697
 30
0.0
 40
0
 41
0
  0
VERTEX
  8
0
 10
0.642199
 20
37.4583
 30
0.0
 40
0
 41
0
  0
VERTEX
  8
0
 10
0.642199
 20
37.4469
 30
0.0
 40
0
 41
0
  0
VERTEX
  8
0
 10
0.632975
 20
37.4128
 30
0.0
 40
0
 41
0
  0
VERTEX
  8
0
 10
0.607856
 20
37.3756
 30
0.0
 40
0
 41
0
  0
VERTEX
  8
0
 10
0.570583
 20
37.3504
 30
0.0
 40
0
 41
0
  0
VERTEX
  8
0
 10
0.536404
 20
37.3411
 30
0.0
 40
0
 41
0
  0
VERTEX
  8
0
 10
0.525011
 20
37.3411
 30
0.0
 40
0
 41
0
  0
VERTEX
  8
0
 10
0.513564
 20
37.3411
 30
0.0
 40
0
 41
0
  0
VERTEX
  8
0
 10
0.479383
 20
37.3504
 30
0.0
 40
0
 41
0
  0
VERTEX
  8
0
 10
0.442111
 20
37.3756
 30
0.0
 40
0
 41
0
  0
VERTEX
  8
0
 10
0.416992
 20
37.4128
 30
0.0
 40
0
 41
0
  0
VERTEX
  8
0
 10
0.407824
 20
37.4469
 30
0.0
 40
0
 41
0
  0
VERTEX
  8
0
 10
0.407824
 20
37.4583
 30
0.0
 40
0
 41
0
  0
VERTEX
  8
0
 10
0.407824
 20
37.4697
 30
0.0
 40
0
 41
0
  0
VERTEX
  8
0
 10
0.416992
 20
37.504
 30
0.0
 40
0
 41
0
  0
VERTEX
  8
0
 10
0.442111
 20
37.5412
 30
0.0
 40
0
 41
0
  0
VERTEX
  8
0
 10
0.479383
 20
37.5664
 30
0.0
 40
0
 41
0
  0
VERTEX
  8
0
 10
0.513564
 20
37.5756
 30
0.0
 40
0
 41
0
  0
VERTEX
  8
0
 10
0.525011
 20
37.5756
 30
0.0
 40
0
 41
0
  0
SEQEND
 8
0
  0
POLYLINE
  8
0
 62
     0
 66
     1
 10
0
 20
0
 30
0.0
 70
     1
 40
0
 41
0
  0
VERTEX
  8
0
 10
0.525011
 20
17.4193
 30
0.0
 40
0
 41
0
  0
VERTEX
  8
0
 10
0.536404
 20
17.4193
 30
0.0
 40
0
 41
0
  0
VERTEX
  8
0
 10
0.570583
 20
17.4101
 30
0.0
 40
0
 41
0
  0
VERTEX
  8
0
 10
0.607856
 20
17.385
 30
0.0
 40
0
 41
0
  0
VERTEX
  8
0
 10
0.632975
 20
17.3478
 30
0.0
 40
0
 41
0
  0
VERTEX
  8
0
 10
0.642199
 20
17.3135
 30
0.0
 40
0
 41
0
  0
VERTEX
  8
0
 10
0.642199
 20
17.3021
 30
0.0
 40
0
 41
0
  0
VERTEX
  8
0
 10
0.642199
 20
17.2907
 30
0.0
 40
0
 41
0
  0
VERTEX
  8
0
 10
0.632975
 20
17.2565
 30
0.0
 40
0
 41
0
  0
VERTEX
  8
0
 10
0.607856
 20
17.2193
 30
0.0
 40
0
 41
0
  0
VERTEX
  8
0
 10
0.570583
 20
17.1942
 30
0.0
 40
0
 41
0
  0
VERTEX
  8
0
 10
0.536404
 20
17.1849
 30
0.0
 40
0
 41
0
  0
VERTEX
  8
0
 10
0.525011
 20
17.1849
 30
0.0
 40
0
 41
0
  0
VERTEX
  8
0
 10
0.513564
 20
17.1849
 30
0.0
 40
0
 41
0
  0
VERTEX
  8
0
 10
0.479383
 20
17.1942
 30
0.0
 40
0
 41
0
  0
VERTEX
  8
0
 10
0.442111
 20
17.2193
 30
0.0
 40
0
 41
0
  0
VERTEX
  8
0
 10
0.416992
 20
17.2565
 30
0.0
 40
0
 41
0
  0
VERTEX
  8
0
 10
0.407824
 20
17.2907
 30
0.0
 40
0
 41
0
  0
VERTEX
  8
0
 10
0.407824
 20
17.3021
 30
0.0
 40
0
 41
0
  0
VERTEX
  8
0
 10
0.407824
 20
17.3135
 30
0.0
 40
0
 41
0
  0
VERTEX
  8
0
 10
0.416992
 20
17.3478
 30
0.0
 40
0
 41
0
  0
VERTEX
  8
0
 10
0.442111
 20
17.385
 30
0.0
 40
0
 41
0
  0
VERTEX
  8
0
 10
0.479383
 20
17.4101
 30
0.0
 40
0
 41
0
  0
VERTEX
  8
0
 10
0.513564
 20
17.4193
 30
0.0
 40
0
 41
0
  0
VERTEX
  8
0
 10
0.525011
 20
17.4193
 30
0.0
 40
0
 41
0
  0
SEQEND
 8
0
  0
POLYLINE
  8
0
 62
     0
 66
     1
 10
0
 20
0
 30
0.0
 70
     1
 40
0
 41
0
  0
VERTEX
  8
0
 10
0.525011
 20
20.4193
 30
0.0
 40
0
 41
0
  0
VERTEX
  8
0
 10
0.536404
 20
20.4193
 30
0.0
 40
0
 41
0
  0
VERTEX
  8
0
 10
0.570583
 20
20.4101
 30
0.0
 40
0
 41
0
  0
VERTEX
  8
0
 10
0.607856
 20
20.385
 30
0.0
 40
0
 41
0
  0
VERTEX
  8
0
 10
0.632975
 20
20.3478
 30
0.0
 40
0
 41
0
  0
VERTEX
  8
0
 10
0.642199
 20
20.3135
 30
0.0
 40
0
 41
0
  0
VERTEX
  8
0
 10
0.642199
 20
20.3021
 30
0.0
 40
0
 41
0
  0
VERTEX
  8
0
 10
0.642199
 20
20.2907
 30
0.0
 40
0
 41
0
  0
VERTEX
  8
0
 10
0.632975
 20
20.2565
 30
0.0
 40
0
 41
0
  0
VERTEX
  8
0
 10
0.607856
 20
20.2193
 30
0.0
 40
0
 41
0
  0
VERTEX
  8
0
 10
0.570583
 20
20.1942
 30
0.0
 40
0
 41
0
  0
VERTEX
  8
0
 10
0.536404
 20
20.1849
 30
0.0
 40
0
 41
0
  0
VERTEX
  8
0
 10
0.525011
 20
20.1849
 30
0.0
 40
0
 41
0
  0
VERTEX
  8
0
 10
0.513564
 20
20.1849
 30
0.0
 40
0
 41
0
  0
VERTEX
  8
0
 10
0.479383
 20
20.1942
 30
0.0
 40
0
 41
0
  0
VERTEX
  8
0
 10
0.442111
 20
20.2193
 30
0.0
 40
0
 41
0
  0
VERTEX
  8
0
 10
0.416992
 20
20.2565
 30
0.0
 40
0
 41
0
  0
VERTEX
  8
0
 10
0.407824
 20
20.2907
 30
0.0
 40
0
 41
0
  0
VERTEX
  8
0
 10
0.407824
 20
20.3021
 30
0.0
 40
0
 41
0
  0
VERTEX
  8
0
 10
0.407824
 20
20.3135
 30
0.0
 40
0
 41
0
  0
VERTEX
  8
0
 10
0.416992
 20
20.3478
 30
0.0
 40
0
 41
0
  0
VERTEX
  8
0
 10
0.442111
 20
20.385
 30
0.0
 40
0
 41
0
  0
VERTEX
  8
0
 10
0.479383
 20
20.4101
 30
0.0
 40
0
 41
0
  0
VERTEX
  8
0
 10
0.513564
 20
20.4193
 30
0.0
 40
0
 41
0
  0
VERTEX
  8
0
 10
0.525011
 20
20.4193
 30
0.0
 40
0
 41
0
  0
SEQEND
 8
0
  0
POLYLINE
  8
0
 62
     0
 66
     1
 10
0
 20
0
 30
0.0
 70
     1
 40
0
 41
0
  0
VERTEX
  8
0
 10
0.525011
 20
24.3506
 30
0.0
 40
0
 41
0
  0
VERTEX
  8
0
 10
0.536404
 20
24.3506
 30
0.0
 40
0
 41
0
  0
VERTEX
  8
0
 10
0.570583
 20
24.3414
 30
0.0
 40
0
 41
0
  0
VERTEX
  8
0
 10
0.607856
 20
24.3163
 30
0.0
 40
0
 41
0
  0
VERTEX
  8
0
 10
0.632975
 20
24.279
 30
0.0
 40
0
 41
0
  0
VERTEX
  8
0
 10
0.642199
 20
24.2449
 30
0.0
 40
0
 41
0
  0
VERTEX
  8
0
 10
0.642199
 20
24.2333
 30
0.0
 40
0
 41
0
  0
VERTEX
  8
0
 10
0.642199
 20
24.2219
 30
0.0
 40
0
 41
0
  0
VERTEX
  8
0
 10
0.632975
 20
24.1878
 30
0.0
 40
0
 41
0
  0
VERTEX
  8
0
 10
0.607856
 20
24.1506
 30
0.0
 40
0
 41
0
  0
VERTEX
  8
0
 10
0.570583
 20
24.1254
 30
0.0
 40
0
 41
0
  0
VERTEX
  8
0
 10
0.536404
 20
24.1161
 30
0.0
 40
0
 41
0
  0
VERTEX
  8
0
 10
0.525011
 20
24.1161
 30
0.0
 40
0
 41
0
  0
VERTEX
  8
0
 10
0.513564
 20
24.1161
 30
0.0
 40
0
 41
0
  0
VERTEX
  8
0
 10
0.479383
 20
24.1254
 30
0.0
 40
0
 41
0
  0
VERTEX
  8
0
 10
0.442111
 20
24.1506
 30
0.0
 40
0
 41
0
  0
VERTEX
  8
0
 10
0.416992
 20
24.1878
 30
0.0
 40
0
 41
0
  0
VERTEX
  8
0
 10
0.407824
 20
24.2219
 30
0.0
 40
0
 41
0
  0
VERTEX
  8
0
 10
0.407824
 20
24.2333
 30
0.0
 40
0
 41
0
  0
VERTEX
  8
0
 10
0.407824
 20
24.2449
 30
0.0
 40
0
 41
0
  0
VERTEX
  8
0
 10
0.416992
 20
24.279
 30
0.0
 40
0
 41
0
  0
VERTEX
  8
0
 10
0.442111
 20
24.3163
 30
0.0
 40
0
 41
0
  0
VERTEX
  8
0
 10
0.479383
 20
24.3414
 30
0.0
 40
0
 41
0
  0
VERTEX
  8
0
 10
0.513564
 20
24.3506
 30
0.0
 40
0
 41
0
  0
VERTEX
  8
0
 10
0.525011
 20
24.3506
 30
0.0
 40
0
 41
0
  0
SEQEND
 8
0
  0
POLYLINE
  8
0
 62
     0
 66
     1
 10
0
 20
0
 30
0.0
 70
     1
 40
0
 41
0
  0
VERTEX
  8
0
 10
0.525011
 20
26.1006
 30
0.0
 40
0
 41
0
  0
VERTEX
  8
0
 10
0.536404
 20
26.1006
 30
0.0
 40
0
 41
0
  0
VERTEX
  8
0
 10
0.570583
 20
26.0914
 30
0.0
 40
0
 41
0
  0
VERTEX
  8
0
 10
0.607856
 20
26.0663
 30
0.0
 40
0
 41
0
  0
VERTEX
  8
0
 10
0.632975
 20
26.029
 30
0.0
 40
0
 41
0
  0
VERTEX
  8
0
 10
0.642199
 20
25.9949
 30
0.0
 40
0
 41
0
  0
VERTEX
  8
0
 10
0.642199
 20
25.9833
 30
0.0
 40
0
 41
0
  0
VERTEX
  8
0
 10
0.642199
 20
25.9719
 30
0.0
 40
0
 41
0
  0
VERTEX
  8
0
 10
0.632975
 20
25.9378
 30
0.0
 40
0
 41
0
  0
VERTEX
  8
0
 10
0.607856
 20
25.9006
 30
0.0
 40
0
 41
0
  0
VERTEX
  8
0
 10
0.570583
 20
25.8754
 30
0.0
 40
0
 41
0
  0
VERTEX
  8
0
 10
0.536404
 20
25.8661
 30
0.0
 40
0
 41
0
  0
VERTEX
  8
0
 10
0.525011
 20
25.8661
 30
0.0
 40
0
 41
0
  0
VERTEX
  8
0
 10
0.513564
 20
25.8661
 30
0.0
 40
0
 41
0
  0
VERTEX
  8
0
 10
0.479383
 20
25.8754
 30
0.0
 40
0
 41
0
  0
VERTEX
  8
0
 10
0.442111
 20
25.9006
 30
0.0
 40
0
 41
0
  0
VERTEX
  8
0
 10
0.416992
 20
25.9378
 30
0.0
 40
0
 41
0
  0
VERTEX
  8
0
 10
0.407824
 20
25.9719
 30
0.0
 40
0
 41
0
  0
VERTEX
  8
0
 10
0.407824
 20
25.9833
 30
0.0
 40
0
 41
0
  0
VERTEX
  8
0
 10
0.407824
 20
25.9949
 30
0.0
 40
0
 41
0
  0
VERTEX
  8
0
 10
0.416992
 20
26.029
 30
0.0
 40
0
 41
0
  0
VERTEX
  8
0
 10
0.442111
 20
26.0663
 30
0.0
 40
0
 41
0
  0
VERTEX
  8
0
 10
0.479383
 20
26.0914
 30
0.0
 40
0
 41
0
  0
VERTEX
  8
0
 10
0.513564
 20
26.1006
 30
0.0
 40
0
 41
0
  0
VERTEX
  8
0
 10
0.525011
 20
26.1006
 30
0.0
 40
0
 41
0
  0
SEQEND
 8
0
  0
POLYLINE
  8
0
 62
     0
 66
     1
 10
0
 20
0
 30
0.0
 70
     1
 40
0
 41
0
  0
VERTEX
  8
0
 10
0.525011
 20
27.8506
 30
0.0
 40
0
 41
0
  0
VERTEX
  8
0
 10
0.536404
 20
27.8506
 30
0.0
 40
0
 41
0
  0
VERTEX
  8
0
 10
0.570583
 20
27.8414
 30
0.0
 40
0
 41
0
  0
VERTEX
  8
0
 10
0.607856
 20
27.8163
 30
0.0
 40
0
 41
0
  0
VERTEX
  8
0
 10
0.632975
 20
27.779
 30
0.0
 40
0
 41
0
  0
VERTEX
  8
0
 10
0.642199
 20
27.7449
 30
0.0
 40
0
 41
0
  0
VERTEX
  8
0
 10
0.642199
 20
27.7333
 30
0.0
 40
0
 41
0
  0
VERTEX
  8
0
 10
0.642199
 20
27.7219
 30
0.0
 40
0
 41
0
  0
VERTEX
  8
0
 10
0.632975
 20
27.6878
 30
0.0
 40
0
 41
0
  0
VERTEX
  8
0
 10
0.607856
 20
27.6506
 30
0.0
 40
0
 41
0
  0
VERTEX
  8
0
 10
0.570583
 20
27.6254
 30
0.0
 40
0
 41
0
  0
VERTEX
  8
0
 10
0.536404
 20
27.6161
 30
0.0
 40
0
 41
0
  0
VERTEX
  8
0
 10
0.525011
 20
27.6161
 30
0.0
 40
0
 41
0
  0
VERTEX
  8
0
 10
0.513564
 20
27.6161
 30
0.0
 40
0
 41
0
  0
VERTEX
  8
0
 10
0.479383
 20
27.6254
 30
0.0
 40
0
 41
0
  0
VERTEX
  8
0
 10
0.442111
 20
27.6506
 30
0.0
 40
0
 41
0
  0
VERTEX
  8
0
 10
0.416992
 20
27.6878
 30
0.0
 40
0
 41
0
  0
VERTEX
  8
0
 10
0.407824
 20
27.7219
 30
0.0
 40
0
 41
0
  0
VERTEX
  8
0
 10
0.407824
 20
27.7333
 30
0.0
 40
0
 41
0
  0
VERTEX
  8
0
 10
0.407824
 20
27.7449
 30
0.0
 40
0
 41
0
  0
VERTEX
  8
0
 10
0.416992
 20
27.779
 30
0.0
 40
0
 41
0
  0
VERTEX
  8
0
 10
0.442111
 20
27.8163
 30
0.0
 40
0
 41
0
  0
VERTEX
  8
0
 10
0.479383
 20
27.8414
 30
0.0
 40
0
 41
0
  0
VERTEX
  8
0
 10
0.513564
 20
27.8506
 30
0.0
 40
0
 41
0
  0
VERTEX
  8
0
 10
0.525011
 20
27.8506
 30
0.0
 40
0
 41
0
  0
SEQEND
 8
0
  0
POLYLINE
  8
0
 62
     0
 66
     1
 10
0
 20
0
 30
0.0
 70
     1
 40
0
 41
0
  0
VERTEX
  8
0
 10
0.525011
 20
31.7818
 30
0.0
 40
0
 41
0
  0
VERTEX
  8
0
 10
0.536404
 20
31.7818
 30
0.0
 40
0
 41
0
  0
VERTEX
  8
0
 10
0.570583
 20
31.7726
 30
0.0
 40
0
 41
0
  0
VERTEX
  8
0
 10
0.607856
 20
31.7475
 30
0.0
 40
0
 41
0
  0
VERTEX
  8
0
 10
0.632975
 20
31.7103
 30
0.0
 40
0
 41
0
  0
VERTEX
  8
0
 10
0.642199
 20
31.6761
 30
0.0
 40
0
 41
0
  0
VERTEX
  8
0
 10
0.642199
 20
31.6646
 30
0.0
 40
0
 41
0
  0
VERTEX
  8
0
 10
0.642199
 20
31.6532
 30
0.0
 40
0
 41
0
  0
VERTEX
  8
0
 10
0.632975
 20
31.619
 30
0.0
 40
0
 41
0
  0
VERTEX
  8
0
 10
0.607856
 20
31.5818
 30
0.0
 40
0
 41
0
  0
VERTEX
  8
0
 10
0.570583
 20
31.5567
 30
0.0
 40
0
 41
0
  0
VERTEX
  8
0
 10
0.536404
 20
31.5474
 30
0.0
 40
0
 41
0
  0
VERTEX
  8
0
 10
0.525011
 20
31.5474
 30
0.0
 40
0
 41
0
  0
VERTEX
  8
0
 10
0.513564
 20
31.5474
 30
0.0
 40
0
 41
0
  0
VERTEX
  8
0
 10
0.479383
 20
31.5567
 30
0.0
 40
0
 41
0
  0
VERTEX
  8
0
 10
0.442111
 20
31.5818
 30
0.0
 40
0
 41
0
  0
VERTEX
  8
0
 10
0.416992
 20
31.619
 30
0.0
 40
0
 41
0
  0
VERTEX
  8
0
 10
0.407824
 20
31.6532
 30
0.0
 40
0
 41
0
  0
VERTEX
  8
0
 10
0.407824
 20
31.6646
 30
0.0
 40
0
 41
0
  0
VERTEX
  8
0
 10
0.407824
 20
31.6761
 30
0.0
 40
0
 41
0
  0
VERTEX
  8
0
 10
0.416992
 20
31.7103
 30
0.0
 40
0
 41
0
  0
VERTEX
  8
0
 10
0.442111
 20
31.7475
 30
0.0
 40
0
 41
0
  0
VERTEX
  8
0
 10
0.479383
 20
31.7726
 30
0.0
 40
0
 41
0
  0
VERTEX
  8
0
 10
0.513564
 20
31.7818
 30
0.0
 40
0
 41
0
  0
VERTEX
  8
0
 10
0.525011
 20
31.7818
 30
0.0
 40
0
 41
0
  0
SEQEND
 8
0
  0
POLYLINE
  8
0
 62
     0
 66
     1
 10
0
 20
0
 30
0.0
 70
     1
 40
0
 41
0
  0
VERTEX
  8
0
 10
0.525011
 20
34.7818
 30
0.0
 40
0
 41
0
  0
VERTEX
  8
0
 10
0.536404
 20
34.7818
 30
0.0
 40
0
 41
0
  0
VERTEX
  8
0
 10
0.570583
 20
34.7726
 30
0.0
 40
0
 41
0
  0
VERTEX
  8
0
 10
0.607856
 20
34.7475
 30
0.0
 40
0
 41
0
  0
VERTEX
  8
0
 10
0.632975
 20
34.7103
 30
0.0
 40
0
 41
0
  0
VERTEX
  8
0
 10
0.642199
 20
34.6761
 30
0.0
 40
0
 41
0
  0
VERTEX
  8
0
 10
0.642199
 20
34.6646
 30
0.0
 40
0
 41
0
  0
VERTEX
  8
0
 10
0.642199
 20
34.6532
 30
0.0
 40
0
 41
0
  0
VERTEX
  8
0
 10
0.632975
 20
34.619
 30
0.0
 40
0
 41
0
  0
VERTEX
  8
0
 10
0.607856
 20
34.5818
 30
0.0
 40
0
 41
0
  0
VERTEX
  8
0
 10
0.570583
 20
34.5567
 30
0.0
 40
0
 41
0
  0
VERTEX
  8
0
 10
0.536404
 20
34.5474
 30
0.0
 40
0
 41
0
  0
VERTEX
  8
0
 10
0.525011
 20
34.5474
 30
0.0
 40
0
 41
0
  0
VERTEX
  8
0
 10
0.513564
 20
34.5474
 30
0.0
 40
0
 41
0
  0
VERTEX
  8
0
 10
0.479383
 20
34.5567
 30
0.0
 40
0
 41
0
  0
VERTEX
  8
0
 10
0.442111
 20
34.5818
 30
0.0
 40
0
 41
0
  0
VERTEX
  8
0
 10
0.416992
 20
34.619
 30
0.0
 40
0
 41
0
  0
VERTEX
  8
0
 10
0.407824
 20
34.6532
 30
0.0
 40
0
 41
0
  0
VERTEX
  8
0
 10
0.407824
 20
34.6646
 30
0.0
 40
0
 41
0
  0
VERTEX
  8
0
 10
0.407824
 20
34.6761
 30
0.0
 40
0
 41
0
  0
VERTEX
  8
0
 10
0.416992
 20
34.7103
 30
0.0
 40
0
 41
0
  0
VERTEX
  8
0
 10
0.442111
 20
34.7475
 30
0.0
 40
0
 41
0
  0
VERTEX
  8
0
 10
0.479383
 20
34.7726
 30
0.0
 40
0
 41
0
  0
VERTEX
  8
0
 10
0.513564
 20
34.7818
 30
0.0
 40
0
 41
0
  0
VERTEX
  8
0
 10
0.525011
 20
34.7818
 30
0.0
 40
0
 41
0
  0
SEQEND
 8
0
  0
POLYLINE
  8
0
 62
     0
 66
     1
 10
0
 20
0
 30
0.0
 70
     1
 40
0
 41
0
  0
VERTEX
  8
0
 10
7.00499
 20
34.5926
 30
0.0
 40
0
 41
0
  0
VERTEX
  8
0
 10
7.01014
 20
34.5926
 30
0.0
 40
0
 41
0
  0
VERTEX
  8
0
 10
7.02572
 20
34.5885
 30
0.0
 40
0
 41
0
  0
VERTEX
  8
0
 10
7.04264
 20
34.5771
 30
0.0
 40
0
 41
0
  0
VERTEX
  8
0
 10
7.05404
 20
34.5601
 30
0.0
 40
0
 41
0
  0
VERTEX
  8
0
 10
7.05826
 20
34.5446
 30
0.0
 40
0
 41
0
  0
VERTEX
  8
0
 10
7.05826
 20
34.5393
 30
0.0
 40
0
 41
0
  0
VERTEX
  8
0
 10
7.05826
 20
34.5342
 30
0.0
 40
0
 41
0
  0
VERTEX
  8
0
 10
7.05404
 20
34.5186
 30
0.0
 40
0
 41
0
  0
VERTEX
  8
0
 10
7.04264
 20
34.5017
 30
0.0
 40
0
 41
0
  0
VERTEX
  8
0
 10
7.02572
 20
34.4903
 30
0.0
 40
0
 41
0
  0
VERTEX
  8
0
 10
7.01014
 20
34.4861
 30
0.0
 40
0
 41
0
  0
VERTEX
  8
0
 10
7.00499
 20
34.4861
 30
0.0
 40
0
 41
0
  0
VERTEX
  8
0
 10
6.99978
 20
34.4861
 30
0.0
 40
0
 41
0
  0
VERTEX
  8
0
 10
6.98426
 20
34.4903
 30
0.0
 40
0
 41
0
  0
VERTEX
  8
0
 10
6.96733
 20
34.5017
 30
0.0
 40
0
 41
0
  0
VERTEX
  8
0
 10
6.95594
 20
34.5186
 30
0.0
 40
0
 41
0
  0
VERTEX
  8
0
 10
6.95176
 20
34.5342
 30
0.0
 40
0
 41
0
  0
VERTEX
  8
0
 10
6.95176
 20
34.5393
 30
0.0
 40
0
 41
0
  0
VERTEX
  8
0
 10
6.95176
 20
34.5446
 30
0.0
 40
0
 41
0
  0
VERTEX
  8
0
 10
6.95594
 20
34.5601
 30
0.0
 40
0
 41
0
  0
VERTEX
  8
0
 10
6.96733
 20
34.5771
 30
0.0
 40
0
 41
0
  0
VERTEX
  8
0
 10
6.98426
 20
34.5885
 30
0.0
 40
0
 41
0
  0
VERTEX
  8
0
 10
6.99978
 20
34.5926
 30
0.0
 40
0
 41
0
  0
VERTEX
  8
0
 10
7.00499
 20
34.5926
 30
0.0
 40
0
 41
0
  0
SEQEND
 8
0
  0
POLYLINE
  8
0
 62
     0
 66
     1
 10
0
 20
0
 30
0.0
 70
     1
 40
0
 41
0
  0
VERTEX
  8
0
 10
7.00499
 20
31.8425
 30
0.0
 40
0
 41
0
  0
VERTEX
  8
0
 10
7.01014
 20
31.8425
 30
0.0
 40
0
 41
0
  0
VERTEX
  8
0
 10
7.02572
 20
31.8383
 30
0.0
 40
0
 41
0
  0
VERTEX
  8
0
 10
7.04264
 20
31.8269
 30
0.0
 40
0
 41
0
  0
VERTEX
  8
0
 10
7.05404
 20
31.81
 30
0.0
 40
0
 41
0
  0
VERTEX
  8
0
 10
7.05826
 20
31.7946
 30
0.0
 40
0
 41
0
  0
VERTEX
  8
0
 10
7.05826
 20
31.7893
 30
0.0
 40
0
 41
0
  0
VERTEX
  8
0
 10
7.05826
 20
31.7842
 30
0.0
 40
0
 41
0
  0
VERTEX
  8
0
 10
7.05404
 20
31.7686
 30
0.0
 40
0
 41
0
  0
VERTEX
  8
0
 10
7.04264
 20
31.7517
 30
0.0
 40
0
 41
0
  0
VERTEX
  8
0
 10
7.02572
 20
31.7403
 30
0.0
 40
0
 41
0
  0
VERTEX
  8
0
 10
7.01014
 20
31.7361
 30
0.0
 40
0
 41
0
  0
VERTEX
  8
0
 10
7.00499
 20
31.7361
 30
0.0
 40
0
 41
0
  0
VERTEX
  8
0
 10
6.99978
 20
31.7361
 30
0.0
 40
0
 41
0
  0
VERTEX
  8
0
 10
6.98426
 20
31.7403
 30
0.0
 40
0
 41
0
  0
VERTEX
  8
0
 10
6.96733
 20
31.7517
 30
0.0
 40
0
 41
0
  0
VERTEX
  8
0
 10
6.95594
 20
31.7686
 30
0.0
 40
0
 41
0
  0
VERTEX
  8
0
 10
6.95176
 20
31.7842
 30
0.0
 40
0
 41
0
  0
VERTEX
  8
0
 10
6.95176
 20
31.7893
 30
0.0
 40
0
 41
0
  0
VERTEX
  8
0
 10
6.95176
 20
31.7946
 30
0.0
 40
0
 41
0
  0
VERTEX
  8
0
 10
6.95594
 20
31.81
 30
0.0
 40
0
 41
0
  0
VERTEX
  8
0
 10
6.96733
 20
31.8269
 30
0.0
 40
0
 41
0
  0
VERTEX
  8
0
 10
6.98426
 20
31.8383
 30
0.0
 40
0
 41
0
  0
VERTEX
  8
0
 10
6.99978
 20
31.8425
 30
0.0
 40
0
 41
0
  0
VERTEX
  8
0
 10
7.00499
 20
31.8425
 30
0.0
 40
0
 41
0
  0
SEQEND
 8
0
  0
POLYLINE
  8
0
 62
     0
 66
     1
 10
0
 20
0
 30
0.0
 70
     1
 40
0
 41
0
  0
VERTEX
  8
0
 10
3.95503
 20
31.8425
 30
0.0
 40
0
 41
0
  0
VERTEX
  8
0
 10
3.96018
 20
31.8425
 30
0.0
 40
0
 41
0
  0
VERTEX
  8
0
 10
3.97569
 20
31.8383
 30
0.0
 40
0
 41
0
  0
VERTEX
  8
0
 10
3.99262
 20
31.8269
 30
0.0
 40
0
 41
0
  0
VERTEX
  8
0
 10
4.00401
 20
31.81
 30
0.0
 40
0
 41
0
  0
VERTEX
  8
0
 10
4.00825
 20
31.7946
 30
0.0
 40
0
 41
0
  0
VERTEX
  8
0
 10
4.00825
 20
31.7893
 30
0.0
 40
0
 41
0
  0
VERTEX
  8
0
 10
4.00825
 20
31.7842
 30
0.0
 40
0
 41
0
  0
VERTEX
  8
0
 10
4.00401
 20
31.7686
 30
0.0
 40
0
 41
0
  0
VERTEX
  8
0
 10
3.99262
 20
31.7517
 30
0.0
 40
0
 41
0
  0
VERTEX
  8
0
 10
3.97569
 20
31.7403
 30
0.0
 40
0
 41
0
  0
VERTEX
  8
0
 10
3.96018
 20
31.7361
 30
0.0
 40
0
 41
0
  0
VERTEX
  8
0
 10
3.95503
 20
31.7361
 30
0.0
 40
0
 41
0
  0
VERTEX
  8
0
 10
3.94982
 20
31.7361
 30
0.0
 40
0
 41
0
  0
VERTEX
  8
0
 10
3.93425
 20
31.7403
 30
0.0
 40
0
 41
0
  0
VERTEX
  8
0
 10
3.91732
 20
31.7517
 30
0.0
 40
0
 41
0
  0
VERTEX
  8
0
 10
3.90593
 20
31.7686
 30
0.0
 40
0
 41
0
  0
VERTEX
  8
0
 10
3.90175
 20
31.7842
 30
0.0
 40
0
 41
0
  0
VERTEX
  8
0
 10
3.90175
 20
31.7893
 30
0.0
 40
0
 41
0
  0
VERTEX
  8
0
 10
3.90175
 20
31.7946
 30
0.0
 40
0
 41
0
  0
VERTEX
  8
0
 10
3.90593
 20
31.81
 30
0.0
 40
0
 41
0
  0
VERTEX
  8
0
 10
3.91732
 20
31.8269
 30
0.0
 40
0
 41
0
  0
VERTEX
  8
0
 10
3.93425
 20
31.8383
 30
0.0
 40
0
 41
0
  0
VERTEX
  8
0
 10
3.94982
 20
31.8425
 30
0.0
 40
0
 41
0
  0
VERTEX
  8
0
 10
3.95503
 20
31.8425
 30
0.0
 40
0
 41
0
  0
SEQEND
 8
0
  0
POLYLINE
  8
0
 62
     0
 66
     1
 10
0
 20
0
 30
0.0
 70
     1
 40
0
 41
0
  0
VERTEX
  8
0
 10
3.95503
 20
34.5926
 30
0.0
 40
0
 41
0
  0
VERTEX
  8
0
 10
3.96018
 20
34.5926
 30
0.0
 40
0
 41
0
  0
VERTEX
  8
0
 10
3.97569
 20
34.5885
 30
0.0
 40
0
 41
0
  0
VERTEX
  8
0
 10
3.99262
 20
34.5771
 30
0.0
 40
0
 41
0
  0
VERTEX
  8
0
 10
4.00401
 20
34.5601
 30
0.0
 40
0
 41
0
  0
VERTEX
  8
0
 10
4.00825
 20
34.5446
 30
0.0
 40
0
 41
0
  0
VERTEX
  8
0
 10
4.00825
 20
34.5393
 30
0.0
 40
0
 41
0
  0
VERTEX
  8
0
 10
4.00825
 20
34.5342
 30
0.0
 40
0
 41
0
  0
VERTEX
  8
0
 10
4.00401
 20
34.5186
 30
0.0
 40
0
 41
0
  0
VERTEX
  8
0
 10
3.99262
 20
34.5017
 30
0.0
 40
0
 41
0
  0
VERTEX
  8
0
 10
3.97569
 20
34.4903
 30
0.0
 40
0
 41
0
  0
VERTEX
  8
0
 10
3.96018
 20
34.4861
 30
0.0
 40
0
 41
0
  0
VERTEX
  8
0
 10
3.95503
 20
34.4861
 30
0.0
 40
0
 41
0
  0
VERTEX
  8
0
 10
3.94982
 20
34.4861
 30
0.0
 40
0
 41
0
  0
VERTEX
  8
0
 10
3.93425
 20
34.4903
 30
0.0
 40
0
 41
0
  0
VERTEX
  8
0
 10
3.91732
 20
34.5017
 30
0.0
 40
0
 41
0
  0
VERTEX
  8
0
 10
3.90593
 20
34.5186
 30
0.0
 40
0
 41
0
  0
VERTEX
  8
0
 10
3.90175
 20
34.5342
 30
0.0
 40
0
 41
0
  0
VERTEX
  8
0
 10
3.90175
 20
34.5393
 30
0.0
 40
0
 41
0
  0
VERTEX
  8
0
 10
3.90175
 20
34.5446
 30
0.0
 40
0
 41
0
  0
VERTEX
  8
0
 10
3.90593
 20
34.5601
 30
0.0
 40
0
 41
0
  0
VERTEX
  8
0
 10
3.91732
 20
34.5771
 30
0.0
 40
0
 41
0
  0
VERTEX
  8
0
 10
3.93425
 20
34.5885
 30
0.0
 40
0
 41
0
  0
VERTEX
  8
0
 10
3.94982
 20
34.5926
 30
0.0
 40
0
 41
0
  0
VERTEX
  8
0
 10
3.95503
 20
34.5926
 30
0.0
 40
0
 41
0
  0
SEQEND
 8
0
  0
POLYLINE
  8
0
 62
     0
 66
     1
 10
0
 20
0
 30
0.0
 70
     1
 40
0
 41
0
  0
VERTEX
  8
0
 10
7.5874
 20
14.4056
 30
0.0
 40
0
 41
0
  0
VERTEX
  8
0
 10
7.5956
 20
14.4056
 30
0.0
 40
0
 41
0
  0
VERTEX
  8
0
 10
7.62033
 20
14.399
 30
0.0
 40
0
 41
0
  0
VERTEX
  8
0
 10
7.64729
 20
14.3808
 30
0.0
 40
0
 41
0
  0
VERTEX
  8
0
 10
7.66547
 20
14.3539
 30
0.0
 40
0
 41
0
  0
VERTEX
  8
0
 10
7.67215
 20
14.3292
 30
0.0
 40
0
 41
0
  0
VERTEX
  8
0
 10
7.67215
 20
14.3208
 30
0.0
 40
0
 41
0
  0
VERTEX
  8
0
 10
7.67215
 20
14.3126
 30
0.0
 40
0
 41
0
  0
VERTEX
  8
0
 10
7.66547
 20
14.2879
 30
0.0
 40
0
 41
0
  0
VERTEX
  8
0
 10
7.64729
 20
14.261
 30
0.0
 40
0
 41
0
  0
VERTEX
  8
0
 10
7.62033
 20
14.2428
 30
0.0
 40
0
 41
0
  0
VERTEX
  8
0
 10
7.5956
 20
14.2361
 30
0.0
 40
0
 41
0
  0
VERTEX
  8
0
 10
7.5874
 20
14.2361
 30
0.0
 40
0
 41
0
  0
VERTEX
  8
0
 10
7.5791
 20
14.2361
 30
0.0
 40
0
 41
0
  0
VERTEX
  8
0
 10
7.55436
 20
14.2428
 30
0.0
 40
0
 41
0
  0
VERTEX
  8
0
 10
7.5274
 20
14.261
 30
0.0
 40
0
 41
0
  0
VERTEX
  8
0
 10
7.50922
 20
14.2879
 30
0.0
 40
0
 41
0
  0
VERTEX
  8
0
 10
7.50261
 20
14.3126
 30
0.0
 40
0
 41
0
  0
VERTEX
  8
0
 10
7.50261
 20
14.3208
 30
0.0
 40
0
 41
0
  0
VERTEX
  8
0
 10
7.50261
 20
14.3292
 30
0.0
 40
0
 41
0
  0
VERTEX
  8
0
 10
7.50922
 20
14.3539
 30
0.0
 40
0
 41
0
  0
VERTEX
  8
0
 10
7.5274
 20
14.3808
 30
0.0
 40
0
 41
0
  0
VERTEX
  8
0
 10
7.55436
 20
14.399
 30
0.0
 40
0
 41
0
  0
VERTEX
  8
0
 10
7.5791
 20
14.4056
 30
0.0
 40
0
 41
0
  0
VERTEX
  8
0
 10
7.5874
 20
14.4056
 30
0.0
 40
0
 41
0
  0
SEQEND
 8
0
  0
POLYLINE
  8
0
 62
     0
 66
     1
 10
0
 20
0
 30
0.0
 70
     1
 40
0
 41
0
  0
VERTEX
  8
0
 10
7.58751
 20
37.7306
 30
0.0
 40
0
 41
0
  0
VERTEX
  8
0
 10
7.59576
 20
37.7306
 30
0.0
 40
0
 41
0
  0
VERTEX
  8
0
 10
7.6205
 20
37.724
 30
0.0
 40
0
 41
0
  0
VERTEX
  8
0
 10
7.6474
 20
37.7058
 30
0.0
 40
0
 41
0
  0
VERTEX
  8
0
 10
7.66558
 20
37.6789
 30
0.0
 40
0
 41
0
  0
VERTEX
  8
0
 10
7.67225
 20
37.6542
 30
0.0
 40
0
 41
0
  0
VERTEX
  8
0
 10
7.67225
 20
37.6458
 30
0.0
 40
0
 41
0
  0
VERTEX
  8
0
 10
7.67225
 20
37.6376
 30
0.0
 40
0
 41
0
  0
VERTEX
  8
0
 10
7.66558
 20
37.6129
 30
0.0
 40
0
 41
0
  0
VERTEX
  8
0
 10
7.6474
 20
37.586
 30
0.0
 40
0
 41
0
  0
VERTEX
  8
0
 10
7.6205
 20
37.5678
 30
0.0
 40
0
 41
0
  0
VERTEX
  8
0
 10
7.59576
 20
37.5611
 30
0.0
 40
0
 41
0
  0
VERTEX
  8
0
 10
7.58751
 20
37.5611
 30
0.0
 40
0
 41
0
  0
VERTEX
  8
0
 10
7.57921
 20
37.5611
 30
0.0
 40
0
 41
0
  0
VERTEX
  8
0
 10
7.55447
 20
37.5678
 30
0.0
 40
0
 41
0
  0
VERTEX
  8
0
 10
7.52756
 20
37.586
 30
0.0
 40
0
 41
0
  0
VERTEX
  8
0
 10
7.50939
 20
37.6129
 30
0.0
 40
0
 41
0
  0
VERTEX
  8
0
 10
7.50276
 20
37.6376
 30
0.0
 40
0
 41
0
  0
VERTEX
  8
0
 10
7.50276
 20
37.6458
 30
0.0
 40
0
 41
0
  0
VERTEX
  8
0
 10
7.50276
 20
37.6542
 30
0.0
 40
0
 41
0
  0
VERTEX
  8
0
 10
7.50939
 20
37.6789
 30
0.0
 40
0
 41
0
  0
VERTEX
  8
0
 10
7.52756
 20
37.7058
 30
0.0
 40
0
 41
0
  0
VERTEX
  8
0
 10
7.55447
 20
37.724
 30
0.0
 40
0
 41
0
  0
VERTEX
  8
0
 10
7.57921
 20
37.7306
 30
0.0
 40
0
 41
0
  0
VERTEX
  8
0
 10
7.58751
 20
37.7306
 30
0.0
 40
0
 41
0
  0
SEQEND
 8
0
  0
POLYLINE
  8
0
 62
     0
 66
     1
 10
0
 20
0
 30
0.0
 70
     1
 40
0
 41
0
  0
VERTEX
  8
0
 10
4.20806
 20
19.1008
 30
0.0
 40
0
 41
0
  0
VERTEX
  8
0
 10
4.21322
 20
19.1008
 30
0.0
 40
0
 41
0
  0
VERTEX
  8
0
 10
4.22879
 20
19.0967
 30
0.0
 40
0
 41
0
  0
VERTEX
  8
0
 10
4.24571
 20
19.0853
 30
0.0
 40
0
 41
0
  0
VERTEX
  8
0
 10
4.25711
 20
19.0683
 30
0.0
 40
0
 41
0
  0
VERTEX
  8
0
 10
4.26133
 20
19.0528
 30
0.0
 40
0
 41
0
  0
VERTEX
  8
0
 10
4.26133
 20
19.0476
 30
0.0
 40
0
 41
0
  0
VERTEX
  8
0
 10
4.26133
 20
19.0424
 30
0.0
 40
0
 41
0
  0
VERTEX
  8
0
 10
4.25711
 20
19.0268
 30
0.0
 40
0
 41
0
  0
VERTEX
  8
0
 10
4.24571
 20
19.0099
 30
0.0
 40
0
 41
0
  0
VERTEX
  8
0
 10
4.22879
 20
18.9985
 30
0.0
 40
0
 41
0
  0
VERTEX
  8
0
 10
4.21322
 20
18.9943
 30
0.0
 40
0
 41
0
  0
VERTEX
  8
0
 10
4.20806
 20
18.9943
 30
0.0
 40
0
 41
0
  0
VERTEX
  8
0
 10
4.20285
 20
18.9943
 30
0.0
 40
0
 41
0
  0
VERTEX
  8
0
 10
4.18733
 20
18.9985
 30
0.0
 40
0
 41
0
  0
VERTEX
  8
0
 10
4.17042
 20
19.0099
 30
0.0
 40
0
 41
0
  0
VERTEX
  8
0
 10
4.15901
 20
19.0268
 30
0.0
 40
0
 41
0
  0
VERTEX
  8
0
 10
4.15483
 20
19.0424
 30
0.0
 40
0
 41
0
  0
VERTEX
  8
0
 10
4.15483
 20
19.0476
 30
0.0
 40
0
 41
0
  0
VERTEX
  8
0
 10
4.15483
 20
19.0528
 30
0.0
 40
0
 41
0
  0
VERTEX
  8
0
 10
4.15901
 20
19.0683
 30
0.0
 40
0
 41
0
  0
VERTEX
  8
0
 10
4.17042
 20
19.0853
 30
0.0
 40
0
 41
0
  0
VERTEX
  8
0
 10
4.18733
 20
19.0967
 30
0.0
 40
0
 41
0
  0
VERTEX
  8
0
 10
4.20285
 20
19.1008
 30
0.0
 40
0
 41
0
  0
VERTEX
  8
0
 10
4.20806
 20
19.1008
 30
0.0
 40
0
 41
0
  0
SEQEND
 8
0
  0
POLYLINE
  8
0
 62
     0
 66
     1
 10
0
 20
0
 30
0.0
 70
     1
 40
0
 41
0
  0
VERTEX
  8
0
 10
4.20806
 20
21.3843
 30
0.0
 40
0
 41
0
  0
VERTEX
  8
0
 10
4.21322
 20
21.3843
 30
0.0
 40
0
 41
0
  0
VERTEX
  8
0
 10
4.22879
 20
21.3801
 30
0.0
 40
0
 41
0
  0
VERTEX
  8
0
 10
4.24571
 20
21.3688
 30
0.0
 40
0
 41
0
  0
VERTEX
  8
0
 10
4.25711
 20
21.3518
 30
0.0
 40
0
 41
0
  0
VERTEX
  8
0
 10
4.26133
 20
21.3362
 30
0.0
 40
0
 41
0
  0
VERTEX
  8
0
 10
4.26133
 20
21.3311
 30
0.0
 40
0
 41
0
  0
VERTEX
  8
0
 10
4.26133
 20
21.3258
 30
0.0
 40
0
 41
0
  0
VERTEX
  8
0
 10
4.25711
 20
21.3103
 30
0.0
 40
0
 41
0
  0
VERTEX
  8
0
 10
4.24571
 20
21.2935
 30
0.0
 40
0
 41
0
  0
VERTEX
  8
0
 10
4.22879
 20
21.2819
 30
0.0
 40
0
 41
0
  0
VERTEX
  8
0
 10
4.21322
 20
21.2778
 30
0.0
 40
0
 41
0
  0
VERTEX
  8
0
 10
4.20806
 20
21.2778
 30
0.0
 40
0
 41
0
  0
VERTEX
  8
0
 10
4.20285
 20
21.2778
 30
0.0
 40
0
 41
0
  0
VERTEX
  8
0
 10
4.18733
 20
21.2819
 30
0.0
 40
0
 41
0
  0
VERTEX
  8
0
 10
4.17042
 20
21.2935
 30
0.0
 40
0
 41
0
  0
VERTEX
  8
0
 10
4.15901
 20
21.3103
 30
0.0
 40
0
 41
0
  0
VERTEX
  8
0
 10
4.15483
 20
21.3258
 30
0.0
 40
0
 41
0
  0
VERTEX
  8
0
 10
4.15483
 20
21.3311
 30
0.0
 40
0
 41
0
  0
VERTEX
  8
0
 10
4.15483
 20
21.3362
 30
0.0
 40
0
 41
0
  0
VERTEX
  8
0
 10
4.15901
 20
21.3518
 30
0.0
 40
0
 41
0
  0
VERTEX
  8
0
 10
4.17042
 20
21.3688
 30
0.0
 40
0
 41
0
  0
VERTEX
  8
0
 10
4.18733
 20
21.3801
 30
0.0
 40
0
 41
0
  0
VERTEX
  8
0
 10
4.20285
 20
21.3843
 30
0.0
 40
0
 41
0
  0
VERTEX
  8
0
 10
4.20806
 20
21.3843
 30
0.0
 40
0
 41
0
  0
SEQEND
 8
0
  0
POLYLINE
  8
0
 62
     0
 66
     1
 10
0
 20
0
 30
0.0
 70
     1
 40
0
 41
0
  0
VERTEX
  8
0
 10
6.13721
 20
21.3843
 30
0.0
 40
0
 41
0
  0
VERTEX
  8
0
 10
6.14236
 20
21.3843
 30
0.0
 40
0
 41
0
  0
VERTEX
  8
0
 10
6.15788
 20
21.3801
 30
0.0
 40
0
 41
0
  0
VERTEX
  8
0
 10
6.17481
 20
21.3688
 30
0.0
 40
0
 41
0
  0
VERTEX
  8
0
 10
6.18619
 20
21.3518
 30
0.0
 40
0
 41
0
  0
VERTEX
  8
0
 10
6.19043
 20
21.3362
 30
0.0
 40
0
 41
0
  0
VERTEX
  8
0
 10
6.19043
 20
21.3311
 30
0.0
 40
0
 41
0
  0
VERTEX
  8
0
 10
6.19043
 20
21.3258
 30
0.0
 40
0
 41
0
  0
VERTEX
  8
0
 10
6.18619
 20
21.3103
 30
0.0
 40
0
 41
0
  0
VERTEX
  8
0
 10
6.17481
 20
21.2935
 30
0.0
 40
0
 41
0
  0
VERTEX
  8
0
 10
6.15788
 20
21.2819
 30
0.0
 40
0
 41
0
  0
VERTEX
  8
0
 10
6.14236
 20
21.2778
 30
0.0
 40
0
 41
0
  0
VERTEX
  8
0
 10
6.13721
 20
21.2778
 30
0.0
 40
0
 41
0
  0
VERTEX
  8
0
 10
6.132
 20
21.2778
 30
0.0
 40
0
 41
0
  0
VERTEX
  8
0
 10
6.11643
 20
21.2819
 30
0.0
 40
0
 41
0
  0
VERTEX
  8
0
 10
6.0995
 20
21.2935
 30
0.0
 40
0
 41
0
  0
VERTEX
  8
0
 10
6.08811
 20
21.3103
 30
0.0
 40
0
 41
0
  0
VERTEX
  8
0
 10
6.08393
 20
21.3258
 30
0.0
 40
0
 41
0
  0
VERTEX
  8
0
 10
6.08393
 20
21.3311
 30
0.0
 40
0
 41
0
  0
VERTEX
  8
0
 10
6.08393
 20
21.3362
 30
0.0
 40
0
 41
0
  0
VERTEX
  8
0
 10
6.08811
 20
21.3518
 30
0.0
 40
0
 41
0
  0
VERTEX
  8
0
 10
6.0995
 20
21.3688
 30
0.0
 40
0
 41
0
  0
VERTEX
  8
0
 10
6.11643
 20
21.3801
 30
0.0
 40
0
 41
0
  0
VERTEX
  8
0
 10
6.132
 20
21.3843
 30
0.0
 40
0
 41
0
  0
VERTEX
  8
0
 10
6.13721
 20
21.3843
 30
0.0
 40
0
 41
0
  0
SEQEND
 8
0
  0
POLYLINE
  8
0
 62
     0
 66
     1
 10
0
 20
0
 30
0.0
 70
     1
 40
0
 41
0
  0
VERTEX
  8
0
 10
6.13721
 20
19.1008
 30
0.0
 40
0
 41
0
  0
VERTEX
  8
0
 10
6.14236
 20
19.1008
 30
0.0
 40
0
 41
0
  0
VERTEX
  8
0
 10
6.15788
 20
19.0967
 30
0.0
 40
0
 41
0
  0
VERTEX
  8
0
 10
6.17481
 20
19.0853
 30
0.0
 40
0
 41
0
  0
VERTEX
  8
0
 10
6.18619
 20
19.0683
 30
0.0
 40
0
 41
0
  0
VERTEX
  8
0
 10
6.19043
 20
19.0528
 30
0.0
 40
0
 41
0
  0
VERTEX
  8
0
 10
6.19043
 20
19.0476
 30
0.0
 40
0
 41
0
  0
VERTEX
  8
0
 10
6.19043
 20
19.0424
 30
0.0
 40
0
 41
0
  0
VERTEX
  8
0
 10
6.18619
 20
19.0268
 30
0.0
 40
0
 41
0
  0
VERTEX
  8
0
 10
6.17481
 20
19.0099
 30
0.0
 40
0
 41
0
  0
VERTEX
  8
0
 10
6.15788
 20
18.9985
 30
0.0
 40
0
 41
0
  0
VERTEX
  8
0
 10
6.14236
 20
18.9943
 30
0.0
 40
0
 41
0
  0
VERTEX
  8
0
 10
6.13721
 20
18.9943
 30
0.0
 40
0
 41
0
  0
VERTEX
  8
0
 10
6.132
 20
18.9943
 30
0.0
 40
0
 41
0
  0
VERTEX
  8
0
 10
6.11643
 20
18.9985
 30
0.0
 40
0
 41
0
  0
VERTEX
  8
0
 10
6.0995
 20
19.0099
 30
0.0
 40
0
 41
0
  0
VERTEX
  8
0
 10
6.08811
 20
19.0268
 30
0.0
 40
0
 41
0
  0
VERTEX
  8
0
 10
6.08393
 20
19.0424
 30
0.0
 40
0
 41
0
  0
VERTEX
  8
0
 10
6.08393
 20
19.0476
 30
0.0
 40
0
 41
0
  0
VERTEX
  8
0
 10
6.08393
 20
19.0528
 30
0.0
 40
0
 41
0
  0
VERTEX
  8
0
 10
6.08811
 20
19.0683
 30
0.0
 40
0
 41
0
  0
VERTEX
  8
0
 10
6.0995
 20
19.0853
 30
0.0
 40
0
 41
0
  0
VERTEX
  8
0
 10
6.11643
 20
19.0967
 30
0.0
 40
0
 41
0
  0
VERTEX
  8
0
 10
6.132
 20
19.1008
 30
0.0
 40
0
 41
0
  0
VERTEX
  8
0
 10
6.13721
 20
19.1008
 30
0.0
 40
0
 41
0
  0
SEQEND
 8
0
  0
POLYLINE
  8
0
 62
     0
 66
     1
 10
0
 20
0
 30
0.0
 70
     1
 40
0
 41
0
  0
VERTEX
  8
0
 10
7.13747
 20
36.3933
 30
0.0
 40
0
 41
0
  0
VERTEX
  8
0
 10
7.14356
 20
36.3933
 30
0.0
 40
0
 41
0
  0
VERTEX
  8
0
 10
7.16178
 20
36.3885
 30
0.0
 40
0
 41
0
  0
VERTEX
  8
0
 10
7.18164
 20
36.375
 30
0.0
 40
0
 41
0
  0
VERTEX
  8
0
 10
7.19504
 20
36.3551
 30
0.0
 40
0
 41
0
  0
VERTEX
  8
0
 10
7.19997
 20
36.3369
 30
0.0
 40
0
 41
0
  0
VERTEX
  8
0
 10
7.19997
 20
36.3308
 30
0.0
 40
0
 41
0
  0
VERTEX
  8
0
 10
7.19997
 20
36.3247
 30
0.0
 40
0
 41
0
  0
VERTEX
  8
0
 10
7.19504
 20
36.3065
 30
0.0
 40
0
 41
0
  0
VERTEX
  8
0
 10
7.18164
 20
36.2867
 30
0.0
 40
0
 41
0
  0
VERTEX
  8
0
 10
7.16178
 20
36.2733
 30
0.0
 40
0
 41
0
  0
VERTEX
  8
0
 10
7.14356
 20
36.2683
 30
0.0
 40
0
 41
0
  0
VERTEX
  8
0
 10
7.13747
 20
36.2683
 30
0.0
 40
0
 41
0
  0
VERTEX
  8
0
 10
7.13135
 20
36.2683
 30
0.0
 40
0
 41
0
  0
VERTEX
  8
0
 10
7.11313
 20
36.2733
 30
0.0
 40
0
 41
0
  0
VERTEX
  8
0
 10
7.09326
 20
36.2867
 30
0.0
 40
0
 41
0
  0
VERTEX
  8
0
 10
7.07986
 20
36.3065
 30
0.0
 40
0
 41
0
  0
VERTEX
  8
0
 10
7.07497
 20
36.3247
 30
0.0
 40
0
 41
0
  0
VERTEX
  8
0
 10
7.07497
 20
36.3308
 30
0.0
 40
0
 41
0
  0
VERTEX
  8
0
 10
7.07497
 20
36.3369
 30
0.0
 40
0
 41
0
  0
VERTEX
  8
0
 10
7.07986
 20
36.3551
 30
0.0
 40
0
 41
0
  0
VERTEX
  8
0
 10
7.09326
 20
36.375
 30
0.0
 40
0
 41
0
  0
VERTEX
  8
0
 10
7.11313
 20
36.3885
 30
0.0
 40
0
 41
0
  0
VERTEX
  8
0
 10
7.13135
 20
36.3933
 30
0.0
 40
0
 41
0
  0
VERTEX
  8
0
 10
7.13747
 20
36.3933
 30
0.0
 40
0
 41
0
  0
SEQEND
 8
0
  0
POLYLINE
  8
0
 62
     0
 66
     1
 10
0
 20
0
 30
0.0
 70
     1
 40
0
 41
0
  0
VERTEX
  8
0
 10
7.13747
 20
29.9353
 30
0.0
 40
0
 41
0
  0
VERTEX
  8
0
 10
7.14356
 20
29.9353
 30
0.0
 40
0
 41
0
  0
VERTEX
  8
0
 10
7.16178
 20
29.9304
 30
0.0
 40
0
 41
0
  0
VERTEX
  8
0
 10
7.18164
 20
29.9171
 30
0.0
 40
0
 41
0
  0
VERTEX
  8
0
 10
7.19504
 20
29.8972
 30
0.0
 40
0
 41
0
  0
VERTEX
  8
0
 10
7.19997
 20
29.879
 30
0.0
 40
0
 41
0
  0
VERTEX
  8
0
 10
7.19997
 20
29.8728
 30
0.0
 40
0
 41
0
  0
VERTEX
  8
0
 10
7.19997
 20
29.8668
 30
0.0
 40
0
 41
0
  0
VERTEX
  8
0
 10
7.19504
 20
29.8485
 30
0.0
 40
0
 41
0
  0
VERTEX
  8
0
 10
7.18164
 20
29.8286
 30
0.0
 40
0
 41
0
  0
VERTEX
  8
0
 10
7.16178
 20
29.8153
 30
0.0
 40
0
 41
0
  0
VERTEX
  8
0
 10
7.14356
 20
29.8103
 30
0.0
 40
0
 41
0
  0
VERTEX
  8
0
 10
7.13747
 20
29.8103
 30
0.0
 40
0
 41
0
  0
VERTEX
  8
0
 10
7.13135
 20
29.8103
 30
0.0
 40
0
 41
0
  0
VERTEX
  8
0
 10
7.11313
 20
29.8153
 30
0.0
 40
0
 41
0
  0
VERTEX
  8
0
 10
7.09326
 20
29.8286
 30
0.0
 40
0
 41
0
  0
VERTEX
  8
0
 10
7.07986
 20
29.8485
 30
0.0
 40
0
 41
0
  0
VERTEX
  8
0
 10
7.07497
 20
29.8668
 30
0.0
 40
0
 41
0
  0
VERTEX
  8
0
 10
7.07497
 20
29.8728
 30
0.0
 40
0
 41
0
  0
VERTEX
  8
0
 10
7.07497
 20
29.879
 30
0.0
 40
0
 41
0
  0
VERTEX
  8
0
 10
7.07986
 20
29.8972
 30
0.0
 40
0
 41
0
  0
VERTEX
  8
0
 10
7.09326
 20
29.9171
 30
0.0
 40
0
 41
0
  0
VERTEX
  8
0
 10
7.11313
 20
29.9304
 30
0.0
 40
0
 41
0
  0
VERTEX
  8
0
 10
7.13135
 20
29.9353
 30
0.0
 40
0
 41
0
  0
VERTEX
  8
0
 10
7.13747
 20
29.9353
 30
0.0
 40
0
 41
0
  0
SEQEND
 8
0
  0
POLYLINE
  8
0
 62
     0
 66
     1
 10
0
 20
0
 30
0.0
 70
     1
 40
0
 41
0
  0
VERTEX
  8
0
 10
4.13747
 20
36.3933
 30
0.0
 40
0
 41
0
  0
VERTEX
  8
0
 10
4.14356
 20
36.3933
 30
0.0
 40
0
 41
0
  0
VERTEX
  8
0
 10
4.16178
 20
36.3885
 30
0.0
 40
0
 41
0
  0
VERTEX
  8
0
 10
4.18164
 20
36.375
 30
0.0
 40
0
 41
0
  0
VERTEX
  8
0
 10
4.19504
 20
36.3551
 30
0.0
 40
0
 41
0
  0
VERTEX
  8
0
 10
4.19997
 20
36.3369
 30
0.0
 40
0
 41
0
  0
VERTEX
  8
0
 10
4.19997
 20
36.3308
 30
0.0
 40
0
 41
0
  0
VERTEX
  8
0
 10
4.19997
 20
36.3247
 30
0.0
 40
0
 41
0
  0
VERTEX
  8
0
 10
4.19504
 20
36.3065
 30
0.0
 40
0
 41
0
  0
VERTEX
  8
0
 10
4.18164
 20
36.2867
 30
0.0
 40
0
 41
0
  0
VERTEX
  8
0
 10
4.16178
 20
36.2733
 30
0.0
 40
0
 41
0
  0
VERTEX
  8
0
 10
4.14356
 20
36.2683
 30
0.0
 40
0
 41
0
  0
VERTEX
  8
0
 10
4.13747
 20
36.2683
 30
0.0
 40
0
 41
0
  0
VERTEX
  8
0
 10
4.13135
 20
36.2683
 30
0.0
 40
0
 41
0
  0
VERTEX
  8
0
 10
4.11312
 20
36.2733
 30
0.0
 40
0
 41
0
  0
VERTEX
  8
0
 10
4.09326
 20
36.2867
 30
0.0
 40
0
 41
0
  0
VERTEX
  8
0
 10
4.07986
 20
36.3065
 30
0.0
 40
0
 41
0
  0
VERTEX
  8
0
 10
4.07497
 20
36.3247
 30
0.0
 40
0
 41
0
  0
VERTEX
  8
0
 10
4.07497
 20
36.3308
 30
0.0
 40
0
 41
0
  0
VERTEX
  8
0
 10
4.07497
 20
36.3369
 30
0.0
 40
0
 41
0
  0
VERTEX
  8
0
 10
4.07986
 20
36.3551
 30
0.0
 40
0
 41
0
  0
VERTEX
  8
0
 10
4.09326
 20
36.375
 30
0.0
 40
0
 41
0
  0
VERTEX
  8
0
 10
4.11312
 20
36.3885
 30
0.0
 40
0
 41
0
  0
VERTEX
  8
0
 10
4.13135
 20
36.3933
 30
0.0
 40
0
 41
0
  0
VERTEX
  8
0
 10
4.13747
 20
36.3933
 30
0.0
 40
0
 41
0
  0
SEQEND
 8
0
  0
POLYLINE
  8
0
 62
     0
 66
     1
 10
0
 20
0
 30
0.0
 70
     1
 40
0
 41
0
  0
VERTEX
  8
0
 10
4.13747
 20
29.9353
 30
0.0
 40
0
 41
0
  0
VERTEX
  8
0
 10
4.14356
 20
29.9353
 30
0.0
 40
0
 41
0
  0
VERTEX
  8
0
 10
4.16178
 20
29.9304
 30
0.0
 40
0
 41
0
  0
VERTEX
  8
0
 10
4.18164
 20
29.9171
 30
0.0
 40
0
 41
0
  0
VERTEX
  8
0
 10
4.19504
 20
29.8972
 30
0.0
 40
0
 41
0
  0
VERTEX
  8
0
 10
4.19997
 20
29.879
 30
0.0
 40
0
 41
0
  0
VERTEX
  8
0
 10
4.19997
 20
29.8728
 30
0.0
 40
0
 41
0
  0
VERTEX
  8
0
 10
4.19997
 20
29.8668
 30
0.0
 40
0
 41
0
  0
VERTEX
  8
0
 10
4.19504
 20
29.8485
 30
0.0
 40
0
 41
0
  0
VERTEX
  8
0
 10
4.18164
 20
29.8286
 30
0.0
 40
0
 41
0
  0
VERTEX
  8
0
 10
4.16178
 20
29.8153
 30
0.0
 40
0
 41
0
  0
VERTEX
  8
0
 10
4.14356
 20
29.8103
 30
0.0
 40
0
 41
0
  0
VERTEX
  8
0
 10
4.13747
 20
29.8103
 30
0.0
 40
0
 41
0
  0
VERTEX
  8
0
 10
4.13135
 20
29.8103
 30
0.0
 40
0
 41
0
  0
VERTEX
  8
0
 10
4.11312
 20
29.8153
 30
0.0
 40
0
 41
0
  0
VERTEX
  8
0
 10
4.09326
 20
29.8286
 30
0.0
 40
0
 41
0
  0
VERTEX
  8
0
 10
4.07986
 20
29.8485
 30
0.0
 40
0
 41
0
  0
VERTEX
  8
0
 10
4.07497
 20
29.8668
 30
0.0
 40
0
 41
0
  0
VERTEX
  8
0
 10
4.07497
 20
29.8728
 30
0.0
 40
0
 41
0
  0
VERTEX
  8
0
 10
4.07497
 20
29.879
 30
0.0
 40
0
 41
0
  0
VERTEX
  8
0
 10
4.07986
 20
29.8972
 30
0.0
 40
0
 41
0
  0
VERTEX
  8
0
 10
4.09326
 20
29.9171
 30
0.0
 40
0
 41
0
  0
VERTEX
  8
0
 10
4.11312
 20
29.9304
 30
0.0
 40
0
 41
0
  0
VERTEX
  8
0
 10
4.13135
 20
29.9353
 30
0.0
 40
0
 41
0
  0
VERTEX
  8
0
 10
4.13747
 20
29.9353
 30
0.0
 40
0
 41
0
  0
SEQEND
 8
0
  0
POLYLINE
  8
0
 62
     0
 66
     1
 10
0
 20
0
 30
0.0
 70
     1
 40
0
 41
0
  0
VERTEX
  8
0
 10
1.13748
 20
36.3933
 30
0.0
 40
0
 41
0
  0
VERTEX
  8
0
 10
1.14355
 20
36.3933
 30
0.0
 40
0
 41
0
  0
VERTEX
  8
0
 10
1.16178
 20
36.3885
 30
0.0
 40
0
 41
0
  0
VERTEX
  8
0
 10
1.18164
 20
36.375
 30
0.0
 40
0
 41
0
  0
VERTEX
  8
0
 10
1.19504
 20
36.3551
 30
0.0
 40
0
 41
0
  0
VERTEX
  8
0
 10
1.19998
 20
36.3369
 30
0.0
 40
0
 41
0
  0
VERTEX
  8
0
 10
1.19998
 20
36.3308
 30
0.0
 40
0
 41
0
  0
VERTEX
  8
0
 10
1.19998
 20
36.3247
 30
0.0
 40
0
 41
0
  0
VERTEX
  8
0
 10
1.19504
 20
36.3065
 30
0.0
 40
0
 41
0
  0
VERTEX
  8
0
 10
1.18164
 20
36.2867
 30
0.0
 40
0
 41
0
  0
VERTEX
  8
0
 10
1.16178
 20
36.2733
 30
0.0
 40
0
 41
0
  0
VERTEX
  8
0
 10
1.14355
 20
36.2683
 30
0.0
 40
0
 41
0
  0
VERTEX
  8
0
 10
1.13748
 20
36.2683
 30
0.0
 40
0
 41
0
  0
VERTEX
  8
0
 10
1.13135
 20
36.2683
 30
0.0
 40
0
 41
0
  0
VERTEX
  8
0
 10
1.11312
 20
36.2733
 30
0.0
 40
0
 41
0
  0
VERTEX
  8
0
 10
1.09326
 20
36.2867
 30
0.0
 40
0
 41
0
  0
VERTEX
  8
0
 10
1.07986
 20
36.3065
 30
0.0
 40
0
 41
0
  0
VERTEX
  8
0
 10
1.07498
 20
36.3247
 30
0.0
 40
0
 41
0
  0
VERTEX
  8
0
 10
1.07498
 20
36.3308
 30
0.0
 40
0
 41
0
  0
VERTEX
  8
0
 10
1.07498
 20
36.3369
 30
0.0
 40
0
 41
0
  0
VERTEX
  8
0
 10
1.07986
 20
36.3551
 30
0.0
 40
0
 41
0
  0
VERTEX
  8
0
 10
1.09326
 20
36.375
 30
0.0
 40
0
 41
0
  0
VERTEX
  8
0
 10
1.11312
 20
36.3885
 30
0.0
 40
0
 41
0
  0
VERTEX
  8
0
 10
1.13135
 20
36.3933
 30
0.0
 40
0
 41
0
  0
VERTEX
  8
0
 10
1.13748
 20
36.3933
 30
0.0
 40
0
 41
0
  0
SEQEND
 8
0
  0
POLYLINE
  8
0
 62
     0
 66
     1
 10
0
 20
0
 30
0.0
 70
     1
 40
0
 41
0
  0
VERTEX
  8
0
 10
1.13748
 20
29.9353
 30
0.0
 40
0
 41
0
  0
VERTEX
  8
0
 10
1.14355
 20
29.9353
 30
0.0
 40
0
 41
0
  0
VERTEX
  8
0
 10
1.16178
 20
29.9304
 30
0.0
 40
0
 41
0
  0
VERTEX
  8
0
 10
1.18164
 20
29.9171
 30
0.0
 40
0
 41
0
  0
VERTEX
  8
0
 10
1.19504
 20
29.8972
 30
0.0
 40
0
 41
0
  0
VERTEX
  8
0
 10
1.19998
 20
29.879
 30
0.0
 40
0
 41
0
  0
VERTEX
  8
0
 10
1.19998
 20
29.8728
 30
0.0
 40
0
 41
0
  0
VERTEX
  8
0
 10
1.19998
 20
29.8668
 30
0.0
 40
0
 41
0
  0
VERTEX
  8
0
 10
1.19504
 20
29.8485
 30
0.0
 40
0
 41
0
  0
VERTEX
  8
0
 10
1.18164
 20
29.8286
 30
0.0
 40
0
 41
0
  0
VERTEX
  8
0
 10
1.16178
 20
29.8153
 30
0.0
 40
0
 41
0
  0
VERTEX
  8
0
 10
1.14355
 20
29.8103
 30
0.0
 40
0
 41
0
  0
VERTEX
  8
0
 10
1.13748
 20
29.8103
 30
0.0
 40
0
 41
0
  0
VERTEX
  8
0
 10
1.13135
 20
29.8103
 30
0.0
 40
0
 41
0
  0
VERTEX
  8
0
 10
1.11312
 20
29.8153
 30
0.0
 40
0
 41
0
  0
VERTEX
  8
0
 10
1.09326
 20
29.8286
 30
0.0
 40
0
 41
0
  0
VERTEX
  8
0
 10
1.07986
 20
29.8485
 30
0.0
 40
0
 41
0
  0
VERTEX
  8
0
 10
1.07498
 20
29.8668
 30
0.0
 40
0
 41
0
  0
VERTEX
  8
0
 10
1.07498
 20
29.8728
 30
0.0
 40
0
 41
0
  0
VERTEX
  8
0
 10
1.07498
 20
29.879
 30
0.0
 40
0
 41
0
  0
VERTEX
  8
0
 10
1.07986
 20
29.8972
 30
0.0
 40
0
 41
0
  0
VERTEX
  8
0
 10
1.09326
 20
29.9171
 30
0.0
 40
0
 41
0
  0
VERTEX
  8
0
 10
1.11312
 20
29.9304
 30
0.0
 40
0
 41
0
  0
VERTEX
  8
0
 10
1.13135
 20
29.9353
 30
0.0
 40
0
 41
0
  0
VERTEX
  8
0
 10
1.13748
 20
29.9353
 30
0.0
 40
0
 41
0
  0
SEQEND
 8
0
  0
POLYLINE
  8
0
 62
     0
 66
     1
 10
0
 20
0
 30
0.0
 70
     1
 40
0
 41
0
  0
VERTEX
  8
0
 10
8.65001
 20
36.5958
 30
0.0
 40
0
 41
0
  0
VERTEX
  8
0
 10
8.65608
 20
36.5958
 30
0.0
 40
0
 41
0
  0
VERTEX
  8
0
 10
8.67432
 20
36.591
 30
0.0
 40
0
 41
0
  0
VERTEX
  8
0
 10
8.69417
 20
36.5775
 30
0.0
 40
0
 41
0
  0
VERTEX
  8
0
 10
8.70757
 20
36.5576
 30
0.0
 40
0
 41
0
  0
VERTEX
  8
0
 10
8.71251
 20
36.5394
 30
0.0
 40
0
 41
0
  0
VERTEX
  8
0
 10
8.71251
 20
36.5333
 30
0.0
 40
0
 41
0
  0
VERTEX
  8
0
 10
8.71251
 20
36.5272
 30
0.0
 40
0
 41
0
  0
VERTEX
  8
0
 10
8.70757
 20
36.509
 30
0.0
 40
0
 41
0
  0
VERTEX
  8
0
 10
8.69417
 20
36.4892
 30
0.0
 40
0
 41
0
  0
VERTEX
  8
0
 10
8.67432
 20
36.4757
 30
0.0
 40
0
 41
0
  0
VERTEX
  8
0
 10
8.65608
 20
36.4708
 30
0.0
 40
0
 41
0
  0
VERTEX
  8
0
 10
8.65001
 20
36.4708
 30
0.0
 40
0
 41
0
  0
VERTEX
  8
0
 10
8.64388
 20
36.4708
 30
0.0
 40
0
 41
0
  0
VERTEX
  8
0
 10
8.62565
 20
36.4757
 30
0.0
 40
0
 41
0
  0
VERTEX
  8
0
 10
8.60579
 20
36.4892
 30
0.0
 40
0
 41
0
  0
VERTEX
  8
0
 10
8.59239
 20
36.509
 30
0.0
 40
0
 41
0
  0
VERTEX
  8
0
 10
8.58751
 20
36.5272
 30
0.0
 40
0
 41
0
  0
VERTEX
  8
0
 10
8.58751
 20
36.5333
 30
0.0
 40
0
 41
0
  0
VERTEX
  8
0
 10
8.58751
 20
36.5394
 30
0.0
 40
0
 41
0
  0
VERTEX
  8
0
 10
8.59239
 20
36.5576
 30
0.0
 40
0
 41
0
  0
VERTEX
  8
0
 10
8.60579
 20
36.5775
 30
0.0
 40
0
 41
0
  0
VERTEX
  8
0
 10
8.62565
 20
36.591
 30
0.0
 40
0
 41
0
  0
VERTEX
  8
0
 10
8.64388
 20
36.5958
 30
0.0
 40
0
 41
0
  0
VERTEX
  8
0
 10
8.65001
 20
36.5958
 30
0.0
 40
0
 41
0
  0
SEQEND
 8
0
  0
POLYLINE
  8
0
 62
     0
 66
     1
 10
0
 20
0
 30
0.0
 70
     1
 40
0
 41
0
  0
VERTEX
  8
0
 10
8.65001
 20
30.5958
 30
0.0
 40
0
 41
0
  0
VERTEX
  8
0
 10
8.65608
 20
30.5958
 30
0.0
 40
0
 41
0
  0
VERTEX
  8
0
 10
8.67432
 20
30.591
 30
0.0
 40
0
 41
0
  0
VERTEX
  8
0
 10
8.69417
 20
30.5775
 30
0.0
 40
0
 41
0
  0
VERTEX
  8
0
 10
8.70757
 20
30.5576
 30
0.0
 40
0
 41
0
  0
VERTEX
  8
0
 10
8.71251
 20
30.5394
 30
0.0
 40
0
 41
0
  0
VERTEX
  8
0
 10
8.71251
 20
30.5333
 30
0.0
 40
0
 41
0
  0
VERTEX
  8
0
 10
8.71251
 20
30.5272
 30
0.0
 40
0
 41
0
  0
VERTEX
  8
0
 10
8.70757
 20
30.509
 30
0.0
 40
0
 41
0
  0
VERTEX
  8
0
 10
8.69417
 20
30.4892
 30
0.0
 40
0
 41
0
  0
VERTEX
  8
0
 10
8.67432
 20
30.4757
 30
0.0
 40
0
 41
0
  0
VERTEX
  8
0
 10
8.65608
 20
30.4708
 30
0.0
 40
0
 41
0
  0
VERTEX
  8
0
 10
8.65001
 20
30.4708
 30
0.0
 40
0
 41
0
  0
VERTEX
  8
0
 10
8.64388
 20
30.4708
 30
0.0
 40
0
 41
0
  0
VERTEX
  8
0
 10
8.62565
 20
30.4757
 30
0.0
 40
0
 41
0
  0
VERTEX
  8
0
 10
8.60579
 20
30.4892
 30
0.0
 40
0
 41
0
  0
VERTEX
  8
0
 10
8.59239
 20
30.509
 30
0.0
 40
0
 41
0
  0
VERTEX
  8
0
 10
8.58751
 20
30.5272
 30
0.0
 40
0
 41
0
  0
VERTEX
  8
0
 10
8.58751
 20
30.5333
 30
0.0
 40
0
 41
0
  0
VERTEX
  8
0
 10
8.58751
 20
30.5394
 30
0.0
 40
0
 41
0
  0
VERTEX
  8
0
 10
8.59239
 20
30.5576
 30
0.0
 40
0
 41
0
  0
VERTEX
  8
0
 10
8.60579
 20
30.5775
 30
0.0
 40
0
 41
0
  0
VERTEX
  8
0
 10
8.62565
 20
30.591
 30
0.0
 40
0
 41
0
  0
VERTEX
  8
0
 10
8.64388
 20
30.5958
 30
0.0
 40
0
 41
0
  0
VERTEX
  8
0
 10
8.65001
 20
30.5958
 30
0.0
 40
0
 41
0
  0
SEQEND
 8
0
  0
POLYLINE
  8
0
 62
     0
 66
     1
 10
0
 20
0
 30
0.0
 70
     1
 40
0
 41
0
  0
VERTEX
  8
0
 10
8.65001
 20
26.0958
 30
0.0
 40
0
 41
0
  0
VERTEX
  8
0
 10
8.65608
 20
26.0958
 30
0.0
 40
0
 41
0
  0
VERTEX
  8
0
 10
8.67432
 20
26.091
 30
0.0
 40
0
 41
0
  0
VERTEX
  8
0
 10
8.69417
 20
26.0775
 30
0.0
 40
0
 41
0
  0
VERTEX
  8
0
 10
8.70757
 20
26.0576
 30
0.0
 40
0
 41
0
  0
VERTEX
  8
0
 10
8.71251
 20
26.0394
 30
0.0
 40
0
 41
0
  0
VERTEX
  8
0
 10
8.71251
 20
26.0333
 30
0.0
 40
0
 41
0
  0
VERTEX
  8
0
 10
8.71251
 20
26.0272
 30
0.0
 40
0
 41
0
  0
VERTEX
  8
0
 10
8.70757
 20
26.009
 30
0.0
 40
0
 41
0
  0
VERTEX
  8
0
 10
8.69417
 20
25.9892
 30
0.0
 40
0
 41
0
  0
VERTEX
  8
0
 10
8.67432
 20
25.9757
 30
0.0
 40
0
 41
0
  0
VERTEX
  8
0
 10
8.65608
 20
25.9708
 30
0.0
 40
0
 41
0
  0
VERTEX
  8
0
 10
8.65001
 20
25.9708
 30
0.0
 40
0
 41
0
  0
VERTEX
  8
0
 10
8.64388
 20
25.9708
 30
0.0
 40
0
 41
0
  0
VERTEX
  8
0
 10
8.62565
 20
25.9757
 30
0.0
 40
0
 41
0
  0
VERTEX
  8
0
 10
8.60579
 20
25.9892
 30
0.0
 40
0
 41
0
  0
VERTEX
  8
0
 10
8.59239
 20
26.009
 30
0.0
 40
0
 41
0
  0
VERTEX
  8
0
 10
8.58751
 20
26.0272
 30
0.0
 40
0
 41
0
  0
VERTEX
  8
0
 10
8.58751
 20
26.0333
 30
0.0
 40
0
 41
0
  0
VERTEX
  8
0
 10
8.58751
 20
26.0394
 30
0.0
 40
0
 41
0
  0
VERTEX
  8
0
 10
8.59239
 20
26.0576
 30
0.0
 40
0
 41
0
  0
VERTEX
  8
0
 10
8.60579
 20
26.0775
 30
0.0
 40
0
 41
0
  0
VERTEX
  8
0
 10
8.62565
 20
26.091
 30
0.0
 40
0
 41
0
  0
VERTEX
  8
0
 10
8.64388
 20
26.0958
 30
0.0
 40
0
 41
0
  0
VERTEX
  8
0
 10
8.65001
 20
26.0958
 30
0.0
 40
0
 41
0
  0
SEQEND
 8
0
  0
POLYLINE
  8
0
 62
     0
 66
     1
 10
0
 20
0
 30
0.0
 70
     1
 40
0
 41
0
  0
VERTEX
  8
0
 10
8.65001
 20
21.5958
 30
0.0
 40
0
 41
0
  0
VERTEX
  8
0
 10
8.65608
 20
21.5958
 30
0.0
 40
0
 41
0
  0
VERTEX
  8
0
 10
8.67432
 20
21.591
 30
0.0
 40
0
 41
0
  0
VERTEX
  8
0
 10
8.69417
 20
21.5775
 30
0.0
 40
0
 41
0
  0
VERTEX
  8
0
 10
8.70757
 20
21.5576
 30
0.0
 40
0
 41
0
  0
VERTEX
  8
0
 10
8.71251
 20
21.5394
 30
0.0
 40
0
 41
0
  0
VERTEX
  8
0
 10
8.71251
 20
21.5333
 30
0.0
 40
0
 41
0
  0
VERTEX
  8
0
 10
8.71251
 20
21.5272
 30
0.0
 40
0
 41
0
  0
VERTEX
  8
0
 10
8.70757
 20
21.509
 30
0.0
 40
0
 41
0
  0
VERTEX
  8
0
 10
8.69417
 20
21.4892
 30
0.0
 40
0
 41
0
  0
VERTEX
  8
0
 10
8.67432
 20
21.4757
 30
0.0
 40
0
 41
0
  0
VERTEX
  8
0
 10
8.65608
 20
21.4708
 30
0.0
 40
0
 41
0
  0
VERTEX
  8
0
 10
8.65001
 20
21.4708
 30
0.0
 40
0
 41
0
  0
VERTEX
  8
0
 10
8.64388
 20
21.4708
 30
0.0
 40
0
 41
0
  0
VERTEX
  8
0
 10
8.62565
 20
21.4757
 30
0.0
 40
0
 41
0
  0
VERTEX
  8
0
 10
8.60579
 20
21.4892
 30
0.0
 40
0
 41
0
  0
VERTEX
  8
0
 10
8.59239
 20
21.509
 30
0.0
 40
0
 41
0
  0
VERTEX
  8
0
 10
8.58751
 20
21.5272
 30
0.0
 40
0
 41
0
  0
VERTEX
  8
0
 10
8.58751
 20
21.5333
 30
0.0
 40
0
 41
0
  0
VERTEX
  8
0
 10
8.58751
 20
21.5394
 30
0.0
 40
0
 41
0
  0
VERTEX
  8
0
 10
8.59239
 20
21.5576
 30
0.0
 40
0
 41
0
  0
VERTEX
  8
0
 10
8.60579
 20
21.5775
 30
0.0
 40
0
 41
0
  0
VERTEX
  8
0
 10
8.62565
 20
21.591
 30
0.0
 40
0
 41
0
  0
VERTEX
  8
0
 10
8.64388
 20
21.5958
 30
0.0
 40
0
 41
0
  0
VERTEX
  8
0
 10
8.65001
 20
21.5958
 30
0.0
 40
0
 41
0
  0
SEQEND
 8
0
  0
POLYLINE
  8
0
 62
     0
 66
     1
 10
0
 20
0
 30
0.0
 70
     1
 40
0
 41
0
  0
VERTEX
  8
0
 10
8.65001
 20
15.5958
 30
0.0
 40
0
 41
0
  0
VERTEX
  8
0
 10
8.65608
 20
15.5958
 30
0.0
 40
0
 41
0
  0
VERTEX
  8
0
 10
8.67432
 20
15.591
 30
0.0
 40
0
 41
0
  0
VERTEX
  8
0
 10
8.69417
 20
15.5775
 30
0.0
 40
0
 41
0
  0
VERTEX
  8
0
 10
8.70757
 20
15.5576
 30
0.0
 40
0
 41
0
  0
VERTEX
  8
0
 10
8.71251
 20
15.5394
 30
0.0
 40
0
 41
0
  0
VERTEX
  8
0
 10
8.71251
 20
15.5333
 30
0.0
 40
0
 41
0
  0
VERTEX
  8
0
 10
8.71251
 20
15.5272
 30
0.0
 40
0
 41
0
  0
VERTEX
  8
0
 10
8.70757
 20
15.509
 30
0.0
 40
0
 41
0
  0
VERTEX
  8
0
 10
8.69417
 20
15.4892
 30
0.0
 40
0
 41
0
  0
VERTEX
  8
0
 10
8.67432
 20
15.4757
 30
0.0
 40
0
 41
0
  0
VERTEX
  8
0
 10
8.65608
 20
15.4708
 30
0.0
 40
0
 41
0
  0
VERTEX
  8
0
 10
8.65001
 20
15.4708
 30
0.0
 40
0
 41
0
  0
VERTEX
  8
0
 10
8.64388
 20
15.4708
 30
0.0
 40
0
 41
0
  0
VERTEX
  8
0
 10
8.62565
 20
15.4757
 30
0.0
 40
0
 41
0
  0
VERTEX
  8
0
 10
8.60579
 20
15.4892
 30
0.0
 40
0
 41
0
  0
VERTEX
  8
0
 10
8.59239
 20
15.509
 30
0.0
 40
0
 41
0
  0
VERTEX
  8
0
 10
8.58751
 20
15.5272
 30
0.0
 40
0
 41
0
  0
VERTEX
  8
0
 10
8.58751
 20
15.5333
 30
0.0
 40
0
 41
0
  0
VERTEX
  8
0
 10
8.58751
 20
15.5394
 30
0.0
 40
0
 41
0
  0
VERTEX
  8
0
 10
8.59239
 20
15.5576
 30
0.0
 40
0
 41
0
  0
VERTEX
  8
0
 10
8.60579
 20
15.5775
 30
0.0
 40
0
 41
0
  0
VERTEX
  8
0
 10
8.62565
 20
15.591
 30
0.0
 40
0
 41
0
  0
VERTEX
  8
0
 10
8.64388
 20
15.5958
 30
0.0
 40
0
 41
0
  0
VERTEX
  8
0
 10
8.65001
 20
15.5958
 30
0.0
 40
0
 41
0
  0
SEQEND
 8
0
  0
POLYLINE
  8
0
 62
     0
 66
     1
 10
0
 20
0
 30
0.0
 70
     1
 40
0
 41
0
  0
VERTEX
  8
0
 10
1.13748
 20
22.2564
 30
0.0
 40
0
 41
0
  0
VERTEX
  8
0
 10
1.14355
 20
22.2564
 30
0.0
 40
0
 41
0
  0
VERTEX
  8
0
 10
1.16178
 20
22.2515
 30
0.0
 40
0
 41
0
  0
VERTEX
  8
0
 10
1.18164
 20
22.2381
 30
0.0
 40
0
 41
0
  0
VERTEX
  8
0
 10
1.19504
 20
22.2182
 30
0.0
 40
0
 41
0
  0
VERTEX
  8
0
 10
1.19998
 20
22.2
 30
0.0
 40
0
 41
0
  0
VERTEX
  8
0
 10
1.19998
 20
22.1939
 30
0.0
 40
0
 41
0
  0
VERTEX
  8
0
 10
1.19998
 20
22.1878
 30
0.0
 40
0
 41
0
  0
VERTEX
  8
0
 10
1.19504
 20
22.1696
 30
0.0
 40
0
 41
0
  0
VERTEX
  8
0
 10
1.18164
 20
22.1497
 30
0.0
 40
0
 41
0
  0
VERTEX
  8
0
 10
1.16178
 20
22.1363
 30
0.0
 40
0
 41
0
  0
VERTEX
  8
0
 10
1.14355
 20
22.1314
 30
0.0
 40
0
 41
0
  0
VERTEX
  8
0
 10
1.13748
 20
22.1314
 30
0.0
 40
0
 41
0
  0
VERTEX
  8
0
 10
1.13135
 20
22.1314
 30
0.0
 40
0
 41
0
  0
VERTEX
  8
0
 10
1.11312
 20
22.1363
 30
0.0
 40
0
 41
0
  0
VERTEX
  8
0
 10
1.09326
 20
22.1497
 30
0.0
 40
0
 41
0
  0
VERTEX
  8
0
 10
1.07986
 20
22.1696
 30
0.0
 40
0
 41
0
  0
VERTEX
  8
0
 10
1.07498
 20
22.1878
 30
0.0
 40
0
 41
0
  0
VERTEX
  8
0
 10
1.07498
 20
22.1939
 30
0.0
 40
0
 41
0
  0
VERTEX
  8
0
 10
1.07498
 20
22.2
 30
0.0
 40
0
 41
0
  0
VERTEX
  8
0
 10
1.07986
 20
22.2182
 30
0.0
 40
0
 41
0
  0
VERTEX
  8
0
 10
1.09326
 20
22.2381
 30
0.0
 40
0
 41
0
  0
VERTEX
  8
0
 10
1.11312
 20
22.2515
 30
0.0
 40
0
 41
0
  0
VERTEX
  8
0
 10
1.13135
 20
22.2564
 30
0.0
 40
0
 41
0
  0
VERTEX
  8
0
 10
1.13748
 20
22.2564
 30
0.0
 40
0
 41
0
  0
SEQEND
 8
0
  0
POLYLINE
  8
0
 62
     0
 66
     1
 10
0
 20
0
 30
0.0
 70
     1
 40
0
 41
0
  0
VERTEX
  8
0
 10
1.13748
 20
15.7983
 30
0.0
 40
0
 41
0
  0
VERTEX
  8
0
 10
1.14355
 20
15.7983
 30
0.0
 40
0
 41
0
  0
VERTEX
  8
0
 10
1.16178
 20
15.7935
 30
0.0
 40
0
 41
0
  0
VERTEX
  8
0
 10
1.18164
 20
15.78
 30
0.0
 40
0
 41
0
  0
VERTEX
  8
0
 10
1.19504
 20
15.7601
 30
0.0
 40
0
 41
0
  0
VERTEX
  8
0
 10
1.19998
 20
15.7419
 30
0.0
 40
0
 41
0
  0
VERTEX
  8
0
 10
1.19998
 20
15.7358
 30
0.0
 40
0
 41
0
  0
VERTEX
  8
0
 10
1.19998
 20
15.7297
 30
0.0
 40
0
 41
0
  0
VERTEX
  8
0
 10
1.19504
 20
15.7115
 30
0.0
 40
0
 41
0
  0
VERTEX
  8
0
 10
1.18164
 20
15.6917
 30
0.0
 40
0
 41
0
  0
VERTEX
  8
0
 10
1.16178
 20
15.6783
 30
0.0
 40
0
 41
0
  0
VERTEX
  8
0
 10
1.14355
 20
15.6733
 30
0.0
 40
0
 41
0
  0
VERTEX
  8
0
 10
1.13748
 20
15.6733
 30
0.0
 40
0
 41
0
  0
VERTEX
  8
0
 10
1.13135
 20
15.6733
 30
0.0
 40
0
 41
0
  0
VERTEX
  8
0
 10
1.11312
 20
15.6783
 30
0.0
 40
0
 41
0
  0
VERTEX
  8
0
 10
1.09326
 20
15.6917
 30
0.0
 40
0
 41
0
  0
VERTEX
  8
0
 10
1.07986
 20
15.7115
 30
0.0
 40
0
 41
0
  0
VERTEX
  8
0
 10
1.07498
 20
15.7297
 30
0.0
 40
0
 41
0
  0
VERTEX
  8
0
 10
1.07498
 20
15.7358
 30
0.0
 40
0
 41
0
  0
VERTEX
  8
0
 10
1.07498
 20
15.7419
 30
0.0
 40
0
 41
0
  0
VERTEX
  8
0
 10
1.07986
 20
15.7601
 30
0.0
 40
0
 41
0
  0
VERTEX
  8
0
 10
1.09326
 20
15.78
 30
0.0
 40
0
 41
0
  0
VERTEX
  8
0
 10
1.11312
 20
15.7935
 30
0.0
 40
0
 41
0
  0
VERTEX
  8
0
 10
1.13135
 20
15.7983
 30
0.0
 40
0
 41
0
  0
VERTEX
  8
0
 10
1.13748
 20
15.7983
 30
0.0
 40
0
 41
0
  0
SEQEND
 8
0
  0
POLYLINE
  8
0
 62
     0
 66
     1
 10
0
 20
0
 30
0.0
 70
     1
 40
0
 41
0
  0
VERTEX
  8
0
 10
4.13747
 20
22.2564
 30
0.0
 40
0
 41
0
  0
VERTEX
  8
0
 10
4.14356
 20
22.2564
 30
0.0
 40
0
 41
0
  0
VERTEX
  8
0
 10
4.16178
 20
22.2515
 30
0.0
 40
0
 41
0
  0
VERTEX
  8
0
 10
4.18164
 20
22.2381
 30
0.0
 40
0
 41
0
  0
VERTEX
  8
0
 10
4.19504
 20
22.2182
 30
0.0
 40
0
 41
0
  0
VERTEX
  8
0
 10
4.19997
 20
22.2
 30
0.0
 40
0
 41
0
  0
VERTEX
  8
0
 10
4.19997
 20
22.1939
 30
0.0
 40
0
 41
0
  0
VERTEX
  8
0
 10
4.19997
 20
22.1878
 30
0.0
 40
0
 41
0
  0
VERTEX
  8
0
 10
4.19504
 20
22.1696
 30
0.0
 40
0
 41
0
  0
VERTEX
  8
0
 10
4.18164
 20
22.1497
 30
0.0
 40
0
 41
0
  0
VERTEX
  8
0
 10
4.16178
 20
22.1363
 30
0.0
 40
0
 41
0
  0
VERTEX
  8
0
 10
4.14356
 20
22.1314
 30
0.0
 40
0
 41
0
  0
VERTEX
  8
0
 10
4.13747
 20
22.1314
 30
0.0
 40
0
 41
0
  0
VERTEX
  8
0
 10
4.13135
 20
22.1314
 30
0.0
 40
0
 41
0
  0
VERTEX
  8
0
 10
4.11312
 20
22.1363
 30
0.0
 40
0
 41
0
  0
VERTEX
  8
0
 10
4.09326
 20
22.1497
 30
0.0
 40
0
 41
0
  0
VERTEX
  8
0
 10
4.07986
 20
22.1696
 30
0.0
 40
0
 41
0
  0
VERTEX
  8
0
 10
4.07497
 20
22.1878
 30
0.0
 40
0
 41
0
  0
VERTEX
  8
0
 10
4.07497
 20
22.1939
 30
0.0
 40
0
 41
0
  0
VERTEX
  8
0
 10
4.07497
 20
22.2
 30
0.0
 40
0
 41
0
  0
VERTEX
  8
0
 10
4.07986
 20
22.2182
 30
0.0
 40
0
 41
0
  0
VERTEX
  8
0
 10
4.09326
 20
22.2381
 30
0.0
 40
0
 41
0
  0
VERTEX
  8
0
 10
4.11312
 20
22.2515
 30
0.0
 40
0
 41
0
  0
VERTEX
  8
0
 10
4.13135
 20
22.2564
 30
0.0
 40
0
 41
0
  0
VERTEX
  8
0
 10
4.13747
 20
22.2564
 30
0.0
 40
0
 41
0
  0
SEQEND
 8
0
  0
POLYLINE
  8
0
 62
     0
 66
     1
 10
0
 20
0
 30
0.0
 70
     1
 40
0
 41
0
  0
VERTEX
  8
0
 10
4.13747
 20
15.7983
 30
0.0
 40
0
 41
0
  0
VERTEX
  8
0
 10
4.14356
 20
15.7983
 30
0.0
 40
0
 41
0
  0
VERTEX
  8
0
 10
4.16178
 20
15.7935
 30
0.0
 40
0
 41
0
  0
VERTEX
  8
0
 10
4.18164
 20
15.78
 30
0.0
 40
0
 41
0
  0
VERTEX
  8
0
 10
4.19504
 20
15.7601
 30
0.0
 40
0
 41
0
  0
VERTEX
  8
0
 10
4.19997
 20
15.7419
 30
0.0
 40
0
 41
0
  0
VERTEX
  8
0
 10
4.19997
 20
15.7358
 30
0.0
 40
0
 41
0
  0
VERTEX
  8
0
 10
4.19997
 20
15.7297
 30
0.0
 40
0
 41
0
  0
VERTEX
  8
0
 10
4.19504
 20
15.7115
 30
0.0
 40
0
 41
0
  0
VERTEX
  8
0
 10
4.18164
 20
15.6917
 30
0.0
 40
0
 41
0
  0
VERTEX
  8
0
 10
4.16178
 20
15.6783
 30
0.0
 40
0
 41
0
  0
VERTEX
  8
0
 10
4.14356
 20
15.6733
 30
0.0
 40
0
 41
0
  0
VERTEX
  8
0
 10
4.13747
 20
15.6733
 30
0.0
 40
0
 41
0
  0
VERTEX
  8
0
 10
4.13135
 20
15.6733
 30
0.0
 40
0
 41
0
  0
VERTEX
  8
0
 10
4.11312
 20
15.6783
 30
0.0
 40
0
 41
0
  0
VERTEX
  8
0
 10
4.09326
 20
15.6917
 30
0.0
 40
0
 41
0
  0
VERTEX
  8
0
 10
4.07986
 20
15.7115
 30
0.0
 40
0
 41
0
  0
VERTEX
  8
0
 10
4.07497
 20
15.7297
 30
0.0
 40
0
 41
0
  0
VERTEX
  8
0
 10
4.07497
 20
15.7358
 30
0.0
 40
0
 41
0
  0
VERTEX
  8
0
 10
4.07497
 20
15.7419
 30
0.0
 40
0
 41
0
  0
VERTEX
  8
0
 10
4.07986
 20
15.7601
 30
0.0
 40
0
 41
0
  0
VERTEX
  8
0
 10
4.09326
 20
15.78
 30
0.0
 40
0
 41
0
  0
VERTEX
  8
0
 10
4.11312
 20
15.7935
 30
0.0
 40
0
 41
0
  0
VERTEX
  8
0
 10
4.13135
 20
15.7983
 30
0.0
 40
0
 41
0
  0
VERTEX
  8
0
 10
4.13747
 20
15.7983
 30
0.0
 40
0
 41
0
  0
SEQEND
 8
0
  0
POLYLINE
  8
0
 62
     0
 66
     1
 10
0
 20
0
 30
0.0
 70
     1
 40
0
 41
0
  0
VERTEX
  8
0
 10
7.13747
 20
22.2564
 30
0.0
 40
0
 41
0
  0
VERTEX
  8
0
 10
7.14356
 20
22.2564
 30
0.0
 40
0
 41
0
  0
VERTEX
  8
0
 10
7.16178
 20
22.2515
 30
0.0
 40
0
 41
0
  0
VERTEX
  8
0
 10
7.18164
 20
22.2381
 30
0.0
 40
0
 41
0
  0
VERTEX
  8
0
 10
7.19504
 20
22.2182
 30
0.0
 40
0
 41
0
  0
VERTEX
  8
0
 10
7.19997
 20
22.2
 30
0.0
 40
0
 41
0
  0
VERTEX
  8
0
 10
7.19997
 20
22.1939
 30
0.0
 40
0
 41
0
  0
VERTEX
  8
0
 10
7.19997
 20
22.1878
 30
0.0
 40
0
 41
0
  0
VERTEX
  8
0
 10
7.19504
 20
22.1696
 30
0.0
 40
0
 41
0
  0
VERTEX
  8
0
 10
7.18164
 20
22.1497
 30
0.0
 40
0
 41
0
  0
VERTEX
  8
0
 10
7.16178
 20
22.1363
 30
0.0
 40
0
 41
0
  0
VERTEX
  8
0
 10
7.14356
 20
22.1314
 30
0.0
 40
0
 41
0
  0
VERTEX
  8
0
 10
7.13747
 20
22.1314
 30
0.0
 40
0
 41
0
  0
VERTEX
  8
0
 10
7.13135
 20
22.1314
 30
0.0
 40
0
 41
0
  0
VERTEX
  8
0
 10
7.11313
 20
22.1363
 30
0.0
 40
0
 41
0
  0
VERTEX
  8
0
 10
7.09326
 20
22.1497
 30
0.0
 40
0
 41
0
  0
VERTEX
  8
0
 10
7.07986
 20
22.1696
 30
0.0
 40
0
 41
0
  0
VERTEX
  8
0
 10
7.07497
 20
22.1878
 30
0.0
 40
0
 41
0
  0
VERTEX
  8
0
 10
7.07497
 20
22.1939
 30
0.0
 40
0
 41
0
  0
VERTEX
  8
0
 10
7.07497
 20
22.2
 30
0.0
 40
0
 41
0
  0
VERTEX
  8
0
 10
7.07986
 20
22.2182
 30
0.0
 40
0
 41
0
  0
VERTEX
  8
0
 10
7.09326
 20
22.2381
 30
0.0
 40
0
 41
0
  0
VERTEX
  8
0
 10
7.11313
 20
22.2515
 30
0.0
 40
0
 41
0
  0
VERTEX
  8
0
 10
7.13135
 20
22.2564
 30
0.0
 40
0
 41
0
  0
VERTEX
  8
0
 10
7.13747
 20
22.2564
 30
0.0
 40
0
 41
0
  0
SEQEND
 8
0
  0
POLYLINE
  8
0
 62
     0
 66
     1
 10
0
 20
0
 30
0.0
 70
     1
 40
0
 41
0
  0
VERTEX
  8
0
 10
7.13747
 20
15.7983
 30
0.0
 40
0
 41
0
  0
VERTEX
  8
0
 10
7.14356
 20
15.7983
 30
0.0
 40
0
 41
0
  0
VERTEX
  8
0
 10
7.16178
 20
15.7935
 30
0.0
 40
0
 41
0
  0
VERTEX
  8
0
 10
7.18164
 20
15.78
 30
0.0
 40
0
 41
0
  0
VERTEX
  8
0
 10
7.19504
 20
15.7601
 30
0.0
 40
0
 41
0
  0
VERTEX
  8
0
 10
7.19997
 20
15.7419
 30
0.0
 40
0
 41
0
  0
VERTEX
  8
0
 10
7.19997
 20
15.7358
 30
0.0
 40
0
 41
0
  0
VERTEX
  8
0
 10
7.19997
 20
15.7297
 30
0.0
 40
0
 41
0
  0
VERTEX
  8
0
 10
7.19504
 20
15.7115
 30
0.0
 40
0
 41
0
  0
VERTEX
  8
0
 10
7.18164
 20
15.6917
 30
0.0
 40
0
 41
0
  0
VERTEX
  8
0
 10
7.16178
 20
15.6783
 30
0.0
 40
0
 41
0
  0
VERTEX
  8
0
 10
7.14356
 20
15.6733
 30
0.0
 40
0
 41
0
  0
VERTEX
  8
0
 10
7.13747
 20
15.6733
 30
0.0
 40
0
 41
0
  0
VERTEX
  8
0
 10
7.13135
 20
15.6733
 30
0.0
 40
0
 41
0
  0
VERTEX
  8
0
 10
7.11313
 20
15.6783
 30
0.0
 40
0
 41
0
  0
VERTEX
  8
0
 10
7.09326
 20
15.6917
 30
0.0
 40
0
 41
0
  0
VERTEX
  8
0
 10
7.07986
 20
15.7115
 30
0.0
 40
0
 41
0
  0
VERTEX
  8
0
 10
7.07497
 20
15.7297
 30
0.0
 40
0
 41
0
  0
VERTEX
  8
0
 10
7.07497
 20
15.7358
 30
0.0
 40
0
 41
0
  0
VERTEX
  8
0
 10
7.07497
 20
15.7419
 30
0.0
 40
0
 41
0
  0
VERTEX
  8
0
 10
7.07986
 20
15.7601
 30
0.0
 40
0
 41
0
  0
VERTEX
  8
0
 10
7.09326
 20
15.78
 30
0.0
 40
0
 41
0
  0
VERTEX
  8
0
 10
7.11313
 20
15.7935
 30
0.0
 40
0
 41
0
  0
VERTEX
  8
0
 10
7.13135
 20
15.7983
 30
0.0
 40
0
 41
0
  0
VERTEX
  8
0
 10
7.13747
 20
15.7983
 30
0.0
 40
0
 41
0
  0
SEQEND
 8
0
  0
POLYLINE
  8
0
 62
     0
 66
     1
 10
0
 20
0
 30
0.0
 70
     1
 40
0
 41
0
  0
VERTEX
  8
0
 10
0
 20
12.5084
 30
0.0
 40
0
 41
0
  0
VERTEX
  8
0
 10
7.1275
 20
12.5084
 30
0.0
 40
0
 41
0
  0
VERTEX
  8
0
 10
7.15181
 20
12.5084
 30
0.0
 40
0
 41
0
  0
VERTEX
  8
0
 10
7.22478
 20
12.5281
 30
0.0
 40
0
 41
0
  0
VERTEX
  8
0
 10
7.30425
 20
12.5816
 30
0.0
 40
0
 41
0
  0
VERTEX
  8
0
 10
7.35781
 20
12.6611
 30
0.0
 40
0
 41
0
  0
VERTEX
  8
0
 10
7.3775
 20
12.7341
 30
0.0
 40
0
 41
0
  0
VERTEX
  8
0
 10
7.3775
 20
12.7584
 30
0.0
 40
0
 41
0
  0
VERTEX
  8
0
 10
7.3775
 20
13.1833
 30
0.0
 40
0
 41
0
  0
VERTEX
  8
0
 10
9.0625
 20
13.1833
 30
0.0
 40
0
 41
0
  0
VERTEX
  8
0
 10
9.0625
 20
0.00835504
 30
0.0
 40
0
 41
0
  0
VERTEX
  8
0
 10
0
 20
0.00835504
 30
0.0
 40
0
 41
0
  0
VERTEX
  8
0
 10
0
 20
12.5084
 30
0.0
 40
0
 41
0
  0
SEQEND
 8
0
  0
POLYLINE
  8
0
 62
     0
 66
     1
 10
0
 20
0
 30
0.0
 70
     1
 40
0
 41
0
  0
VERTEX
  8
0
 10
5.44997
 20
0.927083
 30
0.0
 40
0
 41
0
  0
VERTEX
  8
0
 10
5.37999
 20
0.927083
 30
0.0
 40
0
 41
0
  0
VERTEX
  8
0
 10
5.17008
 20
0.941243
 30
0.0
 40
0
 41
0
  0
VERTEX
  8
0
 10
4.89828
 20
0.982747
 30
0.0
 40
0
 41
0
  0
VERTEX
  8
0
 10
4.6359
 20
1.05018
 30
0.0
 40
0
 41
0
  0
VERTEX
  8
0
 10
4.38439
 20
1.14225
 30
0.0
 40
0
 41
0
  0
VERTEX
  8
0
 10
4.14513
 20
1.25754
 30
0.0
 40
0
 41
0
  0
VERTEX
  8
0
 10
3.91938
 20
1.39464
 30
0.0
 40
0
 41
0
  0
VERTEX
  8
0
 10
3.70865
 20
1.55225
 30
0.0
 40
0
 41
0
  0
VERTEX
  8
0
 10
3.51426
 20
1.72889
 30
0.0
 40
0
 41
0
  0
VERTEX
  8
0
 10
3.33757
 20
1.92333
 30
0.0
 40
0
 41
0
  0
VERTEX
  8
0
 10
3.18001
 20
2.13406
 30
0.0
 40
0
 41
0
  0
VERTEX
  8
0
 10
3.04286
 20
2.35975
 30
0.0
 40
0
 41
0
  0
VERTEX
  8
0
 10
2.92763
 20
2.59907
 30
0.0
 40
0
 41
0
  0
VERTEX
  8
0
 10
2.83556
 20
2.85058
 30
0.0
 40
0
 41
0
  0
VERTEX
  8
0
 10
2.76812
 20
3.11296
 30
0.0
 40
0
 41
0
  0
VERTEX
  8
0
 10
2.72661
 20
3.38471
 30
0.0
 40
0
 41
0
  0
VERTEX
  8
0
 10
2.71251
 20
3.59467
 30
0.0
 40
0
 41
0
  0
VERTEX
  8
0
 10
2.71251
 20
3.66461
 30
0.0
 40
0
 41
0
  0
VERTEX
  8
0
 10
2.71251
 20
3.7346
 30
0.0
 40
0
 41
0
  0
VERTEX
  8
0
 10
2.72661
 20
3.9445
 30
0.0
 40
0
 41
0
  0
VERTEX
  8
0
 10
2.76812
 20
4.21631
 30
0.0
 40
0
 41
0
  0
VERTEX
  8
0
 10
2.83556
 20
4.47868
 30
0.0
 40
0
 41
0
  0
VERTEX
  8
0
 10
2.92763
 20
4.73019
 30
0.0
 40
0
 41
0
  0
VERTEX
  8
0
 10
3.04286
 20
4.96946
 30
0.0
 40
0
 41
0
  0
VERTEX
  8
0
 10
3.18001
 20
5.19521
 30
0.0
 40
0
 41
0
  0
VERTEX
  8
0
 10
3.33757
 20
5.40593
 30
0.0
 40
0
 41
0
  0
VERTEX
  8
0
 10
3.51426
 20
5.60032
 30
0.0
 40
0
 41
0
  0
VERTEX
  8
0
 10
3.70865
 20
5.77701
 30
0.0
 40
0
 41
0
  0
VERTEX
  8
0
 10
3.91938
 20
5.93457
 30
0.0
 40
0
 41
0
  0
VERTEX
  8
0
 10
4.14513
 20
6.07172
 30
0.0
 40
0
 41
0
  0
VERTEX
  8
0
 10
4.38439
 20
6.18696
 30
0.0
 40
0
 41
0
  0
VERTEX
  8
0
 10
4.6359
 20
6.27903
 30
0.0
 40
0
 41
0
  0
VERTEX
  8
0
 10
4.89828
 20
6.34646
 30
0.0
 40
0
 41
0
  0
VERTEX
  8
0
 10
5.17008
 20
6.38797
 30
0.0
 40
0
 41
0
  0
VERTEX
  8
0
 10
5.37999
 20
6.40207
 30
0.0
 40
0
 41
0
  0
VERTEX
  8
0
 10
5.44997
 20
6.40207
 30
0.0
 40
0
 41
0
  0
VERTEX
  8
0
 10
5.51992
 20
6.40207
 30
0.0
 40
0
 41
0
  0
VERTEX
  8
0
 10
5.72987
 20
6.38797
 30
0.0
 40
0
 41
0
  0
VERTEX
  8
0
 10
6.00163
 20
6.34646
 30
0.0
 40
0
 41
0
  0
VERTEX
  8
0
 10
6.264
 20
6.27903
 30
0.0
 40
0
 41
0
  0
VERTEX
  8
0
 10
6.51551
 20
6.18696
 30
0.0
 40
0
 41
0
  0
VERTEX
  8
0
 10
6.75483
 20
6.07172
 30
0.0
 40
0
 41
0
  0
VERTEX
  8
0
 10
6.98053
 20
5.93457
 30
0.0
 40
0
 41
0
  0
VERTEX
  8
0
 10
7.19125
 20
5.77701
 30
0.0
 40
0
 41
0
  0
VERTEX
  8
0
 10
7.38569
 20
5.60032
 30
0.0
 40
0
 41
0
  0
VERTEX
  8
0
 10
7.56233
 20
5.40593
 30
0.0
 40
0
 41
0
  0
VERTEX
  8
0
 10
7.71994
 20
5.19521
 30
0.0
 40
0
 41
0
  0
VERTEX
  8
0
 10
7.85704
 20
4.96946
 30
0.0
 40
0
 41
0
  0
VERTEX
  8
0
 10
7.97233
 20
4.73019
 30
0.0
 40
0
 41
0
  0
VERTEX
  8
0
 10
8.0644
 20
4.47868
 30
0.0
 40
0
 41
0
  0
VERTEX
  8
0
 10
8.13183
 20
4.21631
 30
0.0
 40
0
 41
0
  0
VERTEX
  8
0
 10
8.17333
 20
3.9445
 30
0.0
 40
0
 41
0
  0
VERTEX
  8
0
 10
8.1875
 20
3.7346
 30
0.0
 40
0
 41
0
  0
VERTEX
  8
0
 10
8.1875
 20
3.66461
 30
0.0
 40
0
 41
0
  0
VERTEX
  8
0
 10
8.1875
 20
3.59467
 30
0.0
 40
0
 41
0
  0
VERTEX
  8
0
 10
8.17333
 20
3.38471
 30
0.0
 40
0
 41
0
  0
VERTEX
  8
0
 10
8.13183
 20
3.11296
 30
0.0
 40
0
 41
0
  0
VERTEX
  8
0
 10
8.0644
 20
2.85058
 30
0.0
 40
0
 41
0
  0
VERTEX
  8
0
 10
7.97233
 20
2.59907
 30
0.0
 40
0
 41
0
  0
VERTEX
  8
0
 10
7.85704
 20
2.35975
 30
0.0
 40
0
 41
0
  0
VERTEX
  8
0
 10
7.71994
 20
2.13406
 30
0.0
 40
0
 41
0
  0
VERTEX
  8
0
 10
7.56233
 20
1.92333
 30
0.0
 40
0
 41
0
  0
VERTEX
  8
0
 10
7.38569
 20
1.72889
 30
0.0
 40
0
 41
0
  0
VERTEX
  8
0
 10
7.19125
 20
1.55225
 30
0.0
 40
0
 41
0
  0
VERTEX
  8
0
 10
6.98053
 20
1.39464
 30
0.0
 40
0
 41
0
  0
VERTEX
  8
0
 10
6.75483
 20
1.25754
 30
0.0
 40
0
 41
0
  0
VERTEX
  8
0
 10
6.51551
 20
1.14225
 30
0.0
 40
0
 41
0
  0
VERTEX
  8
0
 10
6.264
 20
1.05018
 30
0.0
 40
0
 41
0
  0
VERTEX
  8
0
 10
6.00163
 20
0.982747
 30
0.0
 40
0
 41
0
  0
VERTEX
  8
0
 10
5.72987
 20
0.941243
 30
0.0
 40
0
 41
0
  0
VERTEX
  8
0
 10
5.51992
 20
0.927083
 30
0.0
 40
0
 41
0
  0
VERTEX
  8
0
 10
5.44997
 20
0.927083
 30
0.0
 40
0
 41
0
  0
SEQEND
 8
0
  0
POLYLINE
  8
0
 62
     0
 66
     1
 10
0
 20
0
 30
0.0
 70
     1
 40
0
 41
0
  0
VERTEX
  8
0
 10
4.60747
 20
8.16461
 30
0.0
 40
0
 41
0
  0
VERTEX
  8
0
 10
4.56912
 20
8.16461
 30
0.0
 40
0
 41
0
  0
VERTEX
  8
0
 10
4.4541
 20
8.17236
 30
0.0
 40
0
 41
0
  0
VERTEX
  8
0
 10
4.30518
 20
8.1951
 30
0.0
 40
0
 41
0
  0
VERTEX
  8
0
 10
4.1614
 20
8.23204
 30
0.0
 40
0
 41
0
  0
VERTEX
  8
0
 10
4.0236
 20
8.2825
 30
0.0
 40
0
 41
0
  0
VERTEX
  8
0
 10
3.89247
 20
8.34565
 30
0.0
 40
0
 41
0
  0
VERTEX
  8
0
 10
3.76878
 20
8.42079
 30
0.0
 40
0
 41
0
  0
VERTEX
  8
0
 10
3.65332
 20
8.50717
 30
0.0
 40
0
 41
0
  0
VERTEX
  8
0
 10
3.54682
 20
8.60394
 30
0.0
 40
0
 41
0
  0
VERTEX
  8
0
 10
3.44997
 20
8.7105
 30
0.0
 40
0
 41
0
  0
VERTEX
  8
0
 10
3.36361
 20
8.82596
 30
0.0
 40
0
 41
0
  0
VERTEX
  8
0
 10
3.28851
 20
8.94965
 30
0.0
 40
0
 41
0
  0
VERTEX
  8
0
 10
3.22532
 20
9.08074
 30
0.0
 40
0
 41
0
  0
VERTEX
  8
0
 10
3.17492
 20
9.21858
 30
0.0
 40
0
 41
0
  0
VERTEX
  8
0
 10
3.13792
 20
9.36231
 30
0.0
 40
0
 41
0
  0
VERTEX
  8
0
 10
3.11518
 20
9.51129
 30
0.0
 40
0
 41
0
  0
VERTEX
  8
0
 10
3.10747
 20
9.62631
 30
0.0
 40
0
 41
0
  0
VERTEX
  8
0
 10
3.10747
 20
9.66461
 30
0.0
 40
0
 41
0
  0
VERTEX
  8
0
 10
3.10747
 20
9.70296
 30
0.0
 40
0
 41
0
  0
VERTEX
  8
0
 10
3.11518
 20
9.81799
 30
0.0
 40
0
 41
0
  0
VERTEX
  8
0
 10
3.13792
 20
9.9669
 30
0.0
 40
0
 41
0
  0
VERTEX
  8
0
 10
3.17492
 20
10.1107
 30
0.0
 40
0
 41
0
  0
VERTEX
  8
0
 10
3.22532
 20
10.2485
 30
0.0
 40
0
 41
0
  0
VERTEX
  8
0
 10
3.28851
 20
10.3796
 30
0.0
 40
0
 41
0
  0
VERTEX
  8
0
 10
3.36361
 20
10.5033
 30
0.0
 40
0
 41
0
  0
VERTEX
  8
0
 10
3.44997
 20
10.6188
 30
0.0
 40
0
 41
0
  0
VERTEX
  8
0
 10
3.54682
 20
10.7253
 30
0.0
 40
0
 41
0
  0
VERTEX
  8
0
 10
3.65332
 20
10.8221
 30
0.0
 40
0
 41
0
  0
VERTEX
  8
0
 10
3.76878
 20
10.9085
 30
0.0
 40
0
 41
0
  0
VERTEX
  8
0
 10
3.89247
 20
10.9836
 30
0.0
 40
0
 41
0
  0
VERTEX
  8
0
 10
4.0236
 20
11.0468
 30
0.0
 40
0
 41
0
  0
VERTEX
  8
0
 10
4.1614
 20
11.0972
 30
0.0
 40
0
 41
0
  0
VERTEX
  8
0
 10
4.30518
 20
11.1342
 30
0.0
 40
0
 41
0
  0
VERTEX
  8
0
 10
4.4541
 20
11.1569
 30
0.0
 40
0
 41
0
  0
VERTEX
  8
0
 10
4.56912
 20
11.1646
 30
0.0
 40
0
 41
0
  0
VERTEX
  8
0
 10
4.60747
 20
11.1646
 30
0.0
 40
0
 41
0
  0
VERTEX
  8
0
 10
4.64578
 20
11.1646
 30
0.0
 40
0
 41
0
  0
VERTEX
  8
0
 10
4.76079
 20
11.1569
 30
0.0
 40
0
 41
0
  0
VERTEX
  8
0
 10
4.90978
 20
11.1342
 30
0.0
 40
0
 41
0
  0
VERTEX
  8
0
 10
5.0535
 20
11.0972
 30
0.0
 40
0
 41
0
  0
VERTEX
  8
0
 10
5.19135
 20
11.0468
 30
0.0
 40
0
 41
0
  0
VERTEX
  8
0
 10
5.32243
 20
10.9836
 30
0.0
 40
0
 41
0
  0
VERTEX
  8
0
 10
5.44613
 20
10.9085
 30
0.0
 40
0
 41
0
  0
VERTEX
  8
0
 10
5.56158
 20
10.8221
 30
0.0
 40
0
 41
0
  0
VERTEX
  8
0
 10
5.66813
 20
10.7253
 30
0.0
 40
0
 41
0
  0
VERTEX
  8
0
 10
5.76492
 20
10.6188
 30
0.0
 40
0
 41
0
  0
VERTEX
  8
0
 10
5.85129
 20
10.5033
 30
0.0
 40
0
 41
0
  0
VERTEX
  8
0
 10
5.92643
 20
10.3796
 30
0.0
 40
0
 41
0
  0
VERTEX
  8
0
 10
5.98958
 20
10.2485
 30
0.0
 40
0
 41
0
  0
VERTEX
  8
0
 10
6.04004
 20
10.1107
 30
0.0
 40
0
 41
0
  0
VERTEX
  8
0
 10
6.07699
 20
9.9669
 30
0.0
 40
0
 41
0
  0
VERTEX
  8
0
 10
6.09972
 20
9.81799
 30
0.0
 40
0
 41
0
  0
VERTEX
  8
0
 10
6.10747
 20
9.70296
 30
0.0
 40
0
 41
0
  0
VERTEX
  8
0
 10
6.10747
 20
9.66461
 30
0.0
 40
0
 41
0
  0
VERTEX
  8
0
 10
6.10747
 20
9.62631
 30
0.0
 40
0
 41
0
  0
VERTEX
  8
0
 10
6.09972
 20
9.51129
 30
0.0
 40
0
 41
0
  0
VERTEX
  8
0
 10
6.07699
 20
9.36231
 30
0.0
 40
0
 41
0
  0
VERTEX
  8
0
 10
6.04004
 20
9.21858
 30
0.0
 40
0
 41
0
  0
VERTEX
  8
0
 10
5.98958
 20
9.08074
 30
0.0
 40
0
 41
0
  0
VERTEX
  8
0
 10
5.92643
 20
8.94965
 30
0.0
 40
0
 41
0
  0
VERTEX
  8
0
 10
5.85129
 20
8.82596
 30
0.0
 40
0
 41
0
  0
VERTEX
  8
0
 10
5.76492
 20
8.7105
 30
0.0
 40
0
 41
0
  0
VERTEX
  8
0
 10
5.66813
 20
8.60394
 30
0.0
 40
0
 41
0
  0
VERTEX
  8
0
 10
5.56158
 20
8.50717
 30
0.0
 40
0
 41
0
  0
VERTEX
  8
0
 10
5.44613
 20
8.42079
 30
0.0
 40
0
 41
0
  0
VERTEX
  8
0
 10
5.32243
 20
8.34565
 30
0.0
 40
0
 41
0
  0
VERTEX
  8
0
 10
5.19135
 20
8.2825
 30
0.0
 40
0
 41
0
  0
VERTEX
  8
0
 10
5.0535
 20
8.23204
 30
0.0
 40
0
 41
0
  0
VERTEX
  8
0
 10
4.90978
 20
8.1951
 30
0.0
 40
0
 41
0
  0
VERTEX
  8
0
 10
4.76079
 20
8.17236
 30
0.0
 40
0
 41
0
  0
VERTEX
  8
0
 10
4.64578
 20
8.16461
 30
0.0
 40
0
 41
0
  0
VERTEX
  8
0
 10
4.60747
 20
8.16461
 30
0.0
 40
0
 41
0
  0
SEQEND
 8
0
  0
POLYLINE
  8
0
 62
     0
 66
     1
 10
0
 20
0
 30
0.0
 70
     1
 40
0
 41
0
  0
VERTEX
  8
0
 10
3.70042
 20
11.9373
 30
0.0
 40
0
 41
0
  0
VERTEX
  8
0
 10
3.69097
 20
11.9373
 30
0.0
 40
0
 41
0
  0
VERTEX
  8
0
 10
3.66271
 20
11.9449
 30
0.0
 40
0
 41
0
  0
VERTEX
  8
0
 10
3.632
 20
11.9657
 30
0.0
 40
0
 41
0
  0
VERTEX
  8
0
 10
3.61128
 20
11.9964
 30
0.0
 40
0
 41
0
  0
VERTEX
  8
0
 10
3.60368
 20
12.0246
 30
0.0
 40
0
 41
0
  0
VERTEX
  8
0
 10
3.60368
 20
12.034
 30
0.0
 40
0
 41
0
  0
VERTEX
  8
0
 10
3.60368
 20
12.0435
 30
0.0
 40
0
 41
0
  0
VERTEX
  8
0
 10
3.61128
 20
12.0717
 30
0.0
 40
0
 41
0
  0
VERTEX
  8
0
 10
3.632
 20
12.1024
 30
0.0
 40
0
 41
0
  0
VERTEX
  8
0
 10
3.66271
 20
12.1232
 30
0.0
 40
0
 41
0
  0
VERTEX
  8
0
 10
3.69097
 20
12.1308
 30
0.0
 40
0
 41
0
  0
VERTEX
  8
0
 10
3.70042
 20
12.1308
 30
0.0
 40
0
 41
0
  0
VERTEX
  8
0
 10
3.70979
 20
12.1308
 30
0.0
 40
0
 41
0
  0
VERTEX
  8
0
 10
3.73807
 20
12.1232
 30
0.0
 40
0
 41
0
  0
VERTEX
  8
0
 10
3.76878
 20
12.1024
 30
0.0
 40
0
 41
0
  0
VERTEX
  8
0
 10
3.7895
 20
12.0717
 30
0.0
 40
0
 41
0
  0
VERTEX
  8
0
 10
3.79715
 20
12.0435
 30
0.0
 40
0
 41
0
  0
VERTEX
  8
0
 10
3.79715
 20
12.034
 30
0.0
 40
0
 41
0
  0
VERTEX
  8
0
 10
3.79715
 20
12.0246
 30
0.0
 40
0
 41
0
  0
VERTEX
  8
0
 10
3.7895
 20
11.9964
 30
0.0
 40
0
 41
0
  0
VERTEX
  8
0
 10
3.76878
 20
11.9657
 30
0.0
 40
0
 41
0
  0
VERTEX
  8
0
 10
3.73807
 20
11.9449
 30
0.0
 40
0
 41
0
  0
VERTEX
  8
0
 10
3.70979
 20
11.9373
 30
0.0
 40
0
 41
0
  0
VERTEX
  8
0
 10
3.70042
 20
11.9373
 30
0.0
 40
0
 41
0
  0
SEQEND
 8
0
  0
POLYLINE
  8
0
 62
     0
 66
     1
 10
0
 20
0
 30
0.0
 70
     1
 40
0
 41
0
  0
VERTEX
  8
0
 10
5.82542
 20
11.9373
 30
0.0
 40
0
 41
0
  0
VERTEX
  8
0
 10
5.81597
 20
11.9373
 30
0.0
 40
0
 41
0
  0
VERTEX
  8
0
 10
5.78771
 20
11.9449
 30
0.0
 40
0
 41
0
  0
VERTEX
  8
0
 10
5.757
 20
11.9657
 30
0.0
 40
0
 41
0
  0
VERTEX
  8
0
 10
5.73628
 20
11.9964
 30
0.0
 40
0
 41
0
  0
VERTEX
  8
0
 10
5.72868
 20
12.0246
 30
0.0
 40
0
 41
0
  0
VERTEX
  8
0
 10
5.72868
 20
12.034
 30
0.0
 40
0
 41
0
  0
VERTEX
  8
0
 10
5.72868
 20
12.0435
 30
0.0
 40
0
 41
0
  0
VERTEX
  8
0
 10
5.73628
 20
12.0717
 30
0.0
 40
0
 41
0
  0
VERTEX
  8
0
 10
5.757
 20
12.1024
 30
0.0
 40
0
 41
0
  0
VERTEX
  8
0
 10
5.78771
 20
12.1232
 30
0.0
 40
0
 41
0
  0
VERTEX
  8
0
 10
5.81597
 20
12.1308
 30
0.0
 40
0
 41
0
  0
VERTEX
  8
0
 10
5.82542
 20
12.1308
 30
0.0
 40
0
 41
0
  0
VERTEX
  8
0
 10
5.83479
 20
12.1308
 30
0.0
 40
0
 41
0
  0
VERTEX
  8
0
 10
5.86307
 20
12.1232
 30
0.0
 40
0
 41
0
  0
VERTEX
  8
0
 10
5.89378
 20
12.1024
 30
0.0
 40
0
 41
0
  0
VERTEX
  8
0
 10
5.9145
 20
12.0717
 30
0.0
 40
0
 41
0
  0
VERTEX
  8
0
 10
5.92215
 20
12.0435
 30
0.0
 40
0
 41
0
  0
VERTEX
  8
0
 10
5.92215
 20
12.034
 30
0.0
 40
0
 41
0
  0
VERTEX
  8
0
 10
5.92215
 20
12.0246
 30
0.0
 40
0
 41
0
  0
VERTEX
  8
0
 10
5.9145
 20
11.9964
 30
0.0
 40
0
 41
0
  0
VERTEX
  8
0
 10
5.89378
 20
11.9657
 30
0.0
 40
0
 41
0
  0
VERTEX
  8
0
 10
5.86307
 20
11.9449
 30
0.0
 40
0
 41
0
  0
VERTEX
  8
0
 10
5.83479
 20
11.9373
 30
0.0
 40
0
 41
0
  0
VERTEX
  8
0
 10
5.82542
 20
11.9373
 30
0.0
 40
0
 41
0
  0
SEQEND
 8
0
  0
POLYLINE
  8
0
 62
     0
 66
     1
 10
0
 20
0
 30
0.0
 70
     1
 40
0
 41
0
  0
VERTEX
  8
0
 10
0.1875
 20
11.1111
 30
0.0
 40
0
 41
0
  0
VERTEX
  8
0
 10
0.179199
 20
11.1111
 30
0.0
 40
0
 41
0
  0
VERTEX
  8
0
 10
0.15446
 20
11.1177
 30
0.0
 40
0
 41
0
  0
VERTEX
  8
0
 10
0.12755
 20
11.1359
 30
0.0
 40
0
 41
0
  0
VERTEX
  8
0
 10
0.109375
 20
11.1629
 30
0.0
 40
0
 41
0
  0
VERTEX
  8
0
 10
0.102756
 20
11.1876
 30
0.0
 40
0
 41
0
  0
VERTEX
  8
0
 10
0.102756
 20
11.1959
 30
0.0
 40
0
 41
0
  0
VERTEX
  8
0
 10
0.102756
 20
11.2041
 30
0.0
 40
0
 41
0
  0
VERTEX
  8
0
 10
0.109375
 20
11.2288
 30
0.0
 40
0
 41
0
  0
VERTEX
  8
0
 10
0.12755
 20
11.2558
 30
0.0
 40
0
 41
0
  0
VERTEX
  8
0
 10
0.15446
 20
11.274
 30
0.0
 40
0
 41
0
  0
VERTEX
  8
0
 10
0.179199
 20
11.2806
 30
0.0
 40
0
 41
0
  0
VERTEX
  8
0
 10
0.1875
 20
11.2806
 30
0.0
 40
0
 41
0
  0
VERTEX
  8
0
 10
0.195747
 20
11.2806
 30
0.0
 40
0
 41
0
  0
VERTEX
  8
0
 10
0.220486
 20
11.274
 30
0.0
 40
0
 41
0
  0
VERTEX
  8
0
 10
0.247396
 20
11.2558
 30
0.0
 40
0
 41
0
  0
VERTEX
  8
0
 10
0.265571
 20
11.2288
 30
0.0
 40
0
 41
0
  0
VERTEX
  8
0
 10
0.272244
 20
11.2041
 30
0.0
 40
0
 41
0
  0
VERTEX
  8
0
 10
0.272244
 20
11.1959
 30
0.0
 40
0
 41
0
  0
VERTEX
  8
0
 10
0.272244
 20
11.1876
 30
0.0
 40
0
 41
0
  0
VERTEX
  8
0
 10
0.265571
 20
11.1629
 30
0.0
 40
0
 41
0
  0
VERTEX
  8
0
 10
0.247396
 20
11.1359
 30
0.0
 40
0
 41
0
  0
VERTEX
  8
0
 10
0.220486
 20
11.1177
 30
0.0
 40
0
 41
0
  0
VERTEX
  8
0
 10
0.195747
 20
11.1111
 30
0.0
 40
0
 41
0
  0
VERTEX
  8
0
 10
0.1875
 20
11.1111
 30
0.0
 40
0
 41
0
  0
SEQEND
 8
0
  0
POLYLINE
  8
0
 62
     0
 66
     1
 10
0
 20
0
 30
0.0
 70
     1
 40
0
 41
0
  0
VERTEX
  8
0
 10
0.6875
 20
11.1111
 30
0.0
 40
0
 41
0
  0
VERTEX
  8
0
 10
0.679199
 20
11.1111
 30
0.0
 40
0
 41
0
  0
VERTEX
  8
0
 10
0.65446
 20
11.1177
 30
0.0
 40
0
 41
0
  0
VERTEX
  8
0
 10
0.62755
 20
11.1359
 30
0.0
 40
0
 41
0
  0
VERTEX
  8
0
 10
0.609375
 20
11.1629
 30
0.0
 40
0
 41
0
  0
VERTEX
  8
0
 10
0.602756
 20
11.1876
 30
0.0
 40
0
 41
0
  0
VERTEX
  8
0
 10
0.602756
 20
11.1959
 30
0.0
 40
0
 41
0
  0
VERTEX
  8
0
 10
0.602756
 20
11.2041
 30
0.0
 40
0
 41
0
  0
VERTEX
  8
0
 10
0.609375
 20
11.2288
 30
0.0
 40
0
 41
0
  0
VERTEX
  8
0
 10
0.62755
 20
11.2558
 30
0.0
 40
0
 41
0
  0
VERTEX
  8
0
 10
0.65446
 20
11.274
 30
0.0
 40
0
 41
0
  0
VERTEX
  8
0
 10
0.679199
 20
11.2806
 30
0.0
 40
0
 41
0
  0
VERTEX
  8
0
 10
0.6875
 20
11.2806
 30
0.0
 40
0
 41
0
  0
VERTEX
  8
0
 10
0.695747
 20
11.2806
 30
0.0
 40
0
 41
0
  0
VERTEX
  8
0
 10
0.720486
 20
11.274
 30
0.0
 40
0
 41
0
  0
VERTEX
  8
0
 10
0.747396
 20
11.2558
 30
0.0
 40
0
 41
0
  0
VERTEX
  8
0
 10
0.765571
 20
11.2288
 30
0.0
 40
0
 41
0
  0
VERTEX
  8
0
 10
0.772244
 20
11.2041
 30
0.0
 40
0
 41
0
  0
VERTEX
  8
0
 10
0.772244
 20
11.1959
 30
0.0
 40
0
 41
0
  0
VERTEX
  8
0
 10
0.772244
 20
11.1876
 30
0.0
 40
0
 41
0
  0
VERTEX
  8
0
 10
0.765571
 20
11.1629
 30
0.0
 40
0
 41
0
  0
VERTEX
  8
0
 10
0.747396
 20
11.1359
 30
0.0
 40
0
 41
0
  0
VERTEX
  8
0
 10
0.720486
 20
11.1177
 30
0.0
 40
0
 41
0
  0
VERTEX
  8
0
 10
0.695747
 20
11.1111
 30
0.0
 40
0
 41
0
  0
VERTEX
  8
0
 10
0.6875
 20
11.1111
 30
0.0
 40
0
 41
0
  0
SEQEND
 8
0
  0
POLYLINE
  8
0
 62
     0
 66
     1
 10
0
 20
0
 30
0.0
 70
     1
 40
0
 41
0
  0
VERTEX
  8
0
 10
0.1875
 20
1.61106
 30
0.0
 40
0
 41
0
  0
VERTEX
  8
0
 10
0.179199
 20
1.61106
 30
0.0
 40
0
 41
0
  0
VERTEX
  8
0
 10
0.15446
 20
1.61774
 30
0.0
 40
0
 41
0
  0
VERTEX
  8
0
 10
0.12755
 20
1.6359
 30
0.0
 40
0
 41
0
  0
VERTEX
  8
0
 10
0.109375
 20
1.66287
 30
0.0
 40
0
 41
0
  0
VERTEX
  8
0
 10
0.102756
 20
1.68761
 30
0.0
 40
0
 41
0
  0
VERTEX
  8
0
 10
0.102756
 20
1.69586
 30
0.0
 40
0
 41
0
  0
VERTEX
  8
0
 10
0.102756
 20
1.7041
 30
0.0
 40
0
 41
0
  0
VERTEX
  8
0
 10
0.109375
 20
1.72885
 30
0.0
 40
0
 41
0
  0
VERTEX
  8
0
 10
0.12755
 20
1.75581
 30
0.0
 40
0
 41
0
  0
VERTEX
  8
0
 10
0.15446
 20
1.77399
 30
0.0
 40
0
 41
0
  0
VERTEX
  8
0
 10
0.179199
 20
1.7806
 30
0.0
 40
0
 41
0
  0
VERTEX
  8
0
 10
0.1875
 20
1.7806
 30
0.0
 40
0
 41
0
  0
VERTEX
  8
0
 10
0.195747
 20
1.7806
 30
0.0
 40
0
 41
0
  0
VERTEX
  8
0
 10
0.220486
 20
1.77399
 30
0.0
 40
0
 41
0
  0
VERTEX
  8
0
 10
0.247396
 20
1.75581
 30
0.0
 40
0
 41
0
  0
VERTEX
  8
0
 10
0.265571
 20
1.72885
 30
0.0
 40
0
 41
0
  0
VERTEX
  8
0
 10
0.272244
 20
1.7041
 30
0.0
 40
0
 41
0
  0
VERTEX
  8
0
 10
0.272244
 20
1.69586
 30
0.0
 40
0
 41
0
  0
VERTEX
  8
0
 10
0.272244
 20
1.68761
 30
0.0
 40
0
 41
0
  0
VERTEX
  8
0
 10
0.265571
 20
1.66287
 30
0.0
 40
0
 41
0
  0
VERTEX
  8
0
 10
0.247396
 20
1.6359
 30
0.0
 40
0
 41
0
  0
VERTEX
  8
0
 10
0.220486
 20
1.61774
 30
0.0
 40
0
 41
0
  0
VERTEX
  8
0
 10
0.195747
 20
1.61106
 30
0.0
 40
0
 41
0
  0
VERTEX
  8
0
 10
0.1875
 20
1.61106
 30
0.0
 40
0
 41
0
  0
SEQEND
 8
0
  0
POLYLINE
  8
0
 62
     0
 66
     1
 10
0
 20
0
 30
0.0
 70
     1
 40
0
 41
0
  0
VERTEX
  8
0
 10
0.6875
 20
1.61106
 30
0.0
 40
0
 41
0
  0
VERTEX
  8
0
 10
0.679199
 20
1.61106
 30
0.0
 40
0
 41
0
  0
VERTEX
  8
0
 10
0.65446
 20
1.61774
 30
0.0
 40
0
 41
0
  0
VERTEX
  8
0
 10
0.62755
 20
1.6359
 30
0.0
 40
0
 41
0
  0
VERTEX
  8
0
 10
0.609375
 20
1.66287
 30
0.0
 40
0
 41
0
  0
VERTEX
  8
0
 10
0.602756
 20
1.68761
 30
0.0
 40
0
 41
0
  0
VERTEX
  8
0
 10
0.602756
 20
1.69586
 30
0.0
 40
0
 41
0
  0
VERTEX
  8
0
 10
0.602756
 20
1.7041
 30
0.0
 40
0
 41
0
  0
VERTEX
  8
0
 10
0.609375
 20
1.72885
 30
0.0
 40
0
 41
0
  0
VERTEX
  8
0
 10
0.62755
 20
1.75581
 30
0.0
 40
0
 41
0
  0
VERTEX
  8
0
 10
0.65446
 20
1.77399
 30
0.0
 40
0
 41
0
  0
VERTEX
  8
0
 10
0.679199
 20
1.7806
 30
0.0
 40
0
 41
0
  0
VERTEX
  8
0
 10
0.6875
 20
1.7806
 30
0.0
 40
0
 41
0
  0
VERTEX
  8
0
 10
0.695747
 20
1.7806
 30
0.0
 40
0
 41
0
  0
VERTEX
  8
0
 10
0.720486
 20
1.77399
 30
0.0
 40
0
 41
0
  0
VERTEX
  8
0
 10
0.747396
 20
1.75581
 30
0.0
 40
0
 41
0
  0
VERTEX
  8
0
 10
0.765571
 20
1.72885
 30
0.0
 40
0
 41
0
  0
VERTEX
  8
0
 10
0.772244
 20
1.7041
 30
0.0
 40
0
 41
0
  0
VERTEX
  8
0
 10
0.772244
 20
1.69586
 30
0.0
 40
0
 41
0
  0
VERTEX
  8
0
 10
0.772244
 20
1.68761
 30
0.0
 40
0
 41
0
  0
VERTEX
  8
0
 10
0.765571
 20
1.66287
 30
0.0
 40
0
 41
0
  0
VERTEX
  8
0
 10
0.747396
 20
1.6359
 30
0.0
 40
0
 41
0
  0
VERTEX
  8
0
 10
0.720486
 20
1.61774
 30
0.0
 40
0
 41
0
  0
VERTEX
  8
0
 10
0.695747
 20
1.61106
 30
0.0
 40
0
 41
0
  0
VERTEX
  8
0
 10
0.6875
 20
1.61106
 30
0.0
 40
0
 41
0
  0
SEQEND
 8
0
  0
POLYLINE
  8
0
 62
     0
 66
     1
 10
0
 20
0
 30
0.0
 70
     1
 40
0
 41
0
  0
VERTEX
  8
0
 10
8.095
 20
9.91157
 30
0.0
 40
0
 41
0
  0
VERTEX
  8
0
 10
8.08556
 20
9.91157
 30
0.0
 40
0
 41
0
  0
VERTEX
  8
0
 10
8.05729
 20
9.91922
 30
0.0
 40
0
 41
0
  0
VERTEX
  8
0
 10
8.02658
 20
9.93994
 30
0.0
 40
0
 41
0
  0
VERTEX
  8
0
 10
8.00586
 20
9.97071
 30
0.0
 40
0
 41
0
  0
VERTEX
  8
0
 10
7.99826
 20
9.99897
 30
0.0
 40
0
 41
0
  0
VERTEX
  8
0
 10
7.99826
 20
10.0084
 30
0.0
 40
0
 41
0
  0
VERTEX
  8
0
 10
7.99826
 20
10.0178
 30
0.0
 40
0
 41
0
  0
VERTEX
  8
0
 10
8.00586
 20
10.046
 30
0.0
 40
0
 41
0
  0
VERTEX
  8
0
 10
8.02658
 20
10.0768
 30
0.0
 40
0
 41
0
  0
VERTEX
  8
0
 10
8.05729
 20
10.0975
 30
0.0
 40
0
 41
0
  0
VERTEX
  8
0
 10
8.08556
 20
10.1051
 30
0.0
 40
0
 41
0
  0
VERTEX
  8
0
 10
8.095
 20
10.1051
 30
0.0
 40
0
 41
0
  0
VERTEX
  8
0
 10
8.10439
 20
10.1051
 30
0.0
 40
0
 41
0
  0
VERTEX
  8
0
 10
8.13265
 20
10.0975
 30
0.0
 40
0
 41
0
  0
VERTEX
  8
0
 10
8.16336
 20
10.0768
 30
0.0
 40
0
 41
0
  0
VERTEX
  8
0
 10
8.18408
 20
10.046
 30
0.0
 40
0
 41
0
  0
VERTEX
  8
0
 10
8.19174
 20
10.0178
 30
0.0
 40
0
 41
0
  0
VERTEX
  8
0
 10
8.19174
 20
10.0084
 30
0.0
 40
0
 41
0
  0
VERTEX
  8
0
 10
8.19174
 20
9.99897
 30
0.0
 40
0
 41
0
  0
VERTEX
  8
0
 10
8.18408
 20
9.97071
 30
0.0
 40
0
 41
0
  0
VERTEX
  8
0
 10
8.16336
 20
9.93994
 30
0.0
 40
0
 41
0
  0
VERTEX
  8
0
 10
8.13265
 20
9.91922
 30
0.0
 40
0
 41
0
  0
VERTEX
  8
0
 10
8.10439
 20
9.91157
 30
0.0
 40
0
 41
0
  0
VERTEX
  8
0
 10
8.095
 20
9.91157
 30
0.0
 40
0
 41
0
  0
SEQEND
 8
0
  0
POLYLINE
  8
0
 62
     0
 66
     1
 10
0
 20
0
 30
0.0
 70
     1
 40
0
 41
0
  0
VERTEX
  8
0
 10
8.095
 20
12.001
 30
0.0
 40
0
 41
0
  0
VERTEX
  8
0
 10
8.08556
 20
12.001
 30
0.0
 40
0
 41
0
  0
VERTEX
  8
0
 10
8.05729
 20
12.0087
 30
0.0
 40
0
 41
0
  0
VERTEX
  8
0
 10
8.02658
 20
12.0294
 30
0.0
 40
0
 41
0
  0
VERTEX
  8
0
 10
8.00586
 20
12.0602
 30
0.0
 40
0
 41
0
  0
VERTEX
  8
0
 10
7.99826
 20
12.0884
 30
0.0
 40
0
 41
0
  0
VERTEX
  8
0
 10
7.99826
 20
12.0978
 30
0.0
 40
0
 41
0
  0
VERTEX
  8
0
 10
7.99826
 20
12.1073
 30
0.0
 40
0
 41
0
  0
VERTEX
  8
0
 10
8.00586
 20
12.1355
 30
0.0
 40
0
 41
0
  0
VERTEX
  8
0
 10
8.02658
 20
12.1662
 30
0.0
 40
0
 41
0
  0
VERTEX
  8
0
 10
8.05729
 20
12.187
 30
0.0
 40
0
 41
0
  0
VERTEX
  8
0
 10
8.08556
 20
12.1946
 30
0.0
 40
0
 41
0
  0
VERTEX
  8
0
 10
8.095
 20
12.1946
 30
0.0
 40
0
 41
0
  0
VERTEX
  8
0
 10
8.10439
 20
12.1946
 30
0.0
 40
0
 41
0
  0
VERTEX
  8
0
 10
8.13265
 20
12.187
 30
0.0
 40
0
 41
0
  0
VERTEX
  8
0
 10
8.16336
 20
12.1662
 30
0.0
 40
0
 41
0
  0
VERTEX
  8
0
 10
8.18408
 20
12.1355
 30
0.0
 40
0
 41
0
  0
VERTEX
  8
0
 10
8.19174
 20
12.1073
 30
0.0
 40
0
 41
0
  0
VERTEX
  8
0
 10
8.19174
 20
12.0978
 30
0.0
 40
0
 41
0
  0
VERTEX
  8
0
 10
8.19174
 20
12.0884
 30
0.0
 40
0
 41
0
  0
VERTEX
  8
0
 10
8.18408
 20
12.0602
 30
0.0
 40
0
 41
0
  0
VERTEX
  8
0
 10
8.16336
 20
12.0294
 30
0.0
 40
0
 41
0
  0
VERTEX
  8
0
 10
8.13265
 20
12.0087
 30
0.0
 40
0
 41
0
  0
VERTEX
  8
0
 10
8.10439
 20
12.001
 30
0.0
 40
0
 41
0
  0
VERTEX
  8
0
 10
8.095
 20
12.001
 30
0.0
 40
0
 41
0
  0
SEQEND
 8
0
  0
POLYLINE
  8
0
 62
     0
 66
     1
 10
0
 20
0
 30
0.0
 70
     1
 40
0
 41
0
  0
VERTEX
  8
0
 10
1.83751
 20
2.38336
 30
0.0
 40
0
 41
0
  0
VERTEX
  8
0
 10
1.83137
 20
2.38336
 30
0.0
 40
0
 41
0
  0
VERTEX
  8
0
 10
1.81315
 20
2.38829
 30
0.0
 40
0
 41
0
  0
VERTEX
  8
0
 10
1.79329
 20
2.40169
 30
0.0
 40
0
 41
0
  0
VERTEX
  8
0
 10
1.77989
 20
2.42156
 30
0.0
 40
0
 41
0
  0
VERTEX
  8
0
 10
1.77501
 20
2.43978
 30
0.0
 40
0
 41
0
  0
VERTEX
  8
0
 10
1.77501
 20
2.44586
 30
0.0
 40
0
 41
0
  0
VERTEX
  8
0
 10
1.77501
 20
2.45199
 30
0.0
 40
0
 41
0
  0
VERTEX
  8
0
 10
1.77989
 20
2.47021
 30
0.0
 40
0
 41
0
  0
VERTEX
  8
0
 10
1.79329
 20
2.49007
 30
0.0
 40
0
 41
0
  0
VERTEX
  8
0
 10
1.81315
 20
2.50347
 30
0.0
 40
0
 41
0
  0
VERTEX
  8
0
 10
1.83137
 20
2.50836
 30
0.0
 40
0
 41
0
  0
VERTEX
  8
0
 10
1.83751
 20
2.50836
 30
0.0
 40
0
 41
0
  0
VERTEX
  8
0
 10
1.84358
 20
2.50836
 30
0.0
 40
0
 41
0
  0
VERTEX
  8
0
 10
1.86182
 20
2.50347
 30
0.0
 40
0
 41
0
  0
VERTEX
  8
0
 10
1.88167
 20
2.49007
 30
0.0
 40
0
 41
0
  0
VERTEX
  8
0
 10
1.89507
 20
2.47021
 30
0.0
 40
0
 41
0
  0
VERTEX
  8
0
 10
1.90001
 20
2.45199
 30
0.0
 40
0
 41
0
  0
VERTEX
  8
0
 10
1.90001
 20
2.44586
 30
0.0
 40
0
 41
0
  0
VERTEX
  8
0
 10
1.90001
 20
2.43978
 30
0.0
 40
0
 41
0
  0
VERTEX
  8
0
 10
1.89507
 20
2.42156
 30
0.0
 40
0
 41
0
  0
VERTEX
  8
0
 10
1.88167
 20
2.40169
 30
0.0
 40
0
 41
0
  0
VERTEX
  8
0
 10
1.86182
 20
2.38829
 30
0.0
 40
0
 41
0
  0
VERTEX
  8
0
 10
1.84358
 20
2.38336
 30
0.0
 40
0
 41
0
  0
VERTEX
  8
0
 10
1.83751
 20
2.38336
 30
0.0
 40
0
 41
0
  0
SEQEND
 8
0
  0
POLYLINE
  8
0
 62
     0
 66
     1
 10
0
 20
0
 30
0.0
 70
     1
 40
0
 41
0
  0
VERTEX
  8
0
 10
1.83751
 20
6.69586
 30
0.0
 40
0
 41
0
  0
VERTEX
  8
0
 10
1.83137
 20
6.69586
 30
0.0
 40
0
 41
0
  0
VERTEX
  8
0
 10
1.81315
 20
6.70079
 30
0.0
 40
0
 41
0
  0
VERTEX
  8
0
 10
1.79329
 20
6.71419
 30
0.0
 40
0
 41
0
  0
VERTEX
  8
0
 10
1.77989
 20
6.73406
 30
0.0
 40
0
 41
0
  0
VERTEX
  8
0
 10
1.77501
 20
6.75228
 30
0.0
 40
0
 41
0
  0
VERTEX
  8
0
 10
1.77501
 20
6.75836
 30
0.0
 40
0
 41
0
  0
VERTEX
  8
0
 10
1.77501
 20
6.76449
 30
0.0
 40
0
 41
0
  0
VERTEX
  8
0
 10
1.77989
 20
6.78271
 30
0.0
 40
0
 41
0
  0
VERTEX
  8
0
 10
1.79329
 20
6.80257
 30
0.0
 40
0
 41
0
  0
VERTEX
  8
0
 10
1.81315
 20
6.81597
 30
0.0
 40
0
 41
0
  0
VERTEX
  8
0
 10
1.83137
 20
6.82086
 30
0.0
 40
0
 41
0
  0
VERTEX
  8
0
 10
1.83751
 20
6.82086
 30
0.0
 40
0
 41
0
  0
VERTEX
  8
0
 10
1.84358
 20
6.82086
 30
0.0
 40
0
 41
0
  0
VERTEX
  8
0
 10
1.86182
 20
6.81597
 30
0.0
 40
0
 41
0
  0
VERTEX
  8
0
 10
1.88167
 20
6.80257
 30
0.0
 40
0
 41
0
  0
VERTEX
  8
0
 10
1.89507
 20
6.78271
 30
0.0
 40
0
 41
0
  0
VERTEX
  8
0
 10
1.90001
 20
6.76449
 30
0.0
 40
0
 41
0
  0
VERTEX
  8
0
 10
1.90001
 20
6.75836
 30
0.0
 40
0
 41
0
  0
VERTEX
  8
0
 10
1.90001
 20
6.75228
 30
0.0
 40
0
 41
0
  0
VERTEX
  8
0
 10
1.89507
 20
6.73406
 30
0.0
 40
0
 41
0
  0
VERTEX
  8
0
 10
1.88167
 20
6.71419
 30
0.0
 40
0
 41
0
  0
VERTEX
  8
0
 10
1.86182
 20
6.70079
 30
0.0
 40
0
 41
0
  0
VERTEX
  8
0
 10
1.84358
 20
6.69586
 30
0.0
 40
0
 41
0
  0
VERTEX
  8
0
 10
1.83751
 20
6.69586
 30
0.0
 40
0
 41
0
  0
SEQEND
 8
0
  0
POLYLINE
  8
0
 62
     0
 66
     1
 10
0
 20
0
 30
0.0
 70
     1
 40
0
 41
0
  0
VERTEX
  8
0
 10
1.83751
 20
11.0084
 30
0.0
 40
0
 41
0
  0
VERTEX
  8
0
 10
1.83137
 20
11.0084
 30
0.0
 40
0
 41
0
  0
VERTEX
  8
0
 10
1.81315
 20
11.0133
 30
0.0
 40
0
 41
0
  0
VERTEX
  8
0
 10
1.79329
 20
11.0267
 30
0.0
 40
0
 41
0
  0
VERTEX
  8
0
 10
1.77989
 20
11.0466
 30
0.0
 40
0
 41
0
  0
VERTEX
  8
0
 10
1.77501
 20
11.0648
 30
0.0
 40
0
 41
0
  0
VERTEX
  8
0
 10
1.77501
 20
11.0709
 30
0.0
 40
0
 41
0
  0
VERTEX
  8
0
 10
1.77501
 20
11.077
 30
0.0
 40
0
 41
0
  0
VERTEX
  8
0
 10
1.77989
 20
11.0952
 30
0.0
 40
0
 41
0
  0
VERTEX
  8
0
 10
1.79329
 20
11.1151
 30
0.0
 40
0
 41
0
  0
VERTEX
  8
0
 10
1.81315
 20
11.1285
 30
0.0
 40
0
 41
0
  0
VERTEX
  8
0
 10
1.83137
 20
11.1334
 30
0.0
 40
0
 41
0
  0
VERTEX
  8
0
 10
1.83751
 20
11.1334
 30
0.0
 40
0
 41
0
  0
VERTEX
  8
0
 10
1.84358
 20
11.1334
 30
0.0
 40
0
 41
0
  0
VERTEX
  8
0
 10
1.86182
 20
11.1285
 30
0.0
 40
0
 41
0
  0
VERTEX
  8
0
 10
1.88167
 20
11.1151
 30
0.0
 40
0
 41
0
  0
VERTEX
  8
0
 10
1.89507
 20
11.0952
 30
0.0
 40
0
 41
0
  0
VERTEX
  8
0
 10
1.90001
 20
11.077
 30
0.0
 40
0
 41
0
  0
VERTEX
  8
0
 10
1.90001
 20
11.0709
 30
0.0
 40
0
 41
0
  0
VERTEX
  8
0
 10
1.90001
 20
11.0648
 30
0.0
 40
0
 41
0
  0
VERTEX
  8
0
 10
1.89507
 20
11.0466
 30
0.0
 40
0
 41
0
  0
VERTEX
  8
0
 10
1.88167
 20
11.0267
 30
0.0
 40
0
 41
0
  0
VERTEX
  8
0
 10
1.86182
 20
11.0133
 30
0.0
 40
0
 41
0
  0
VERTEX
  8
0
 10
1.84358
 20
11.0084
 30
0.0
 40
0
 41
0
  0
VERTEX
  8
0
 10
1.83751
 20
11.0084
 30
0.0
 40
0
 41
0
  0
SEQEND
 8
0
  0
POLYLINE
  8
0
 62
     0
 66
     1
 10
0
 20
0
 30
0.0
 70
     1
 40
0
 41
0
  0
VERTEX
  8
0
 10
0.6875
 20
11.9861
 30
0.0
 40
0
 41
0
  0
VERTEX
  8
0
 10
0.679199
 20
11.9861
 30
0.0
 40
0
 41
0
  0
VERTEX
  8
0
 10
0.65446
 20
11.9927
 30
0.0
 40
0
 41
0
  0
VERTEX
  8
0
 10
0.62755
 20
12.0109
 30
0.0
 40
0
 41
0
  0
VERTEX
  8
0
 10
0.609375
 20
12.0379
 30
0.0
 40
0
 41
0
  0
VERTEX
  8
0
 10
0.602756
 20
12.0626
 30
0.0
 40
0
 41
0
  0
VERTEX
  8
0
 10
0.602756
 20
12.0709
 30
0.0
 40
0
 41
0
  0
VERTEX
  8
0
 10
0.602756
 20
12.0791
 30
0.0
 40
0
 41
0
  0
VERTEX
  8
0
 10
0.609375
 20
12.1038
 30
0.0
 40
0
 41
0
  0
VERTEX
  8
0
 10
0.62755
 20
12.1308
 30
0.0
 40
0
 41
0
  0
VERTEX
  8
0
 10
0.65446
 20
12.149
 30
0.0
 40
0
 41
0
  0
VERTEX
  8
0
 10
0.679199
 20
12.1556
 30
0.0
 40
0
 41
0
  0
VERTEX
  8
0
 10
0.6875
 20
12.1556
 30
0.0
 40
0
 41
0
  0
VERTEX
  8
0
 10
0.695747
 20
12.1556
 30
0.0
 40
0
 41
0
  0
VERTEX
  8
0
 10
0.720486
 20
12.149
 30
0.0
 40
0
 41
0
  0
VERTEX
  8
0
 10
0.747396
 20
12.1308
 30
0.0
 40
0
 41
0
  0
VERTEX
  8
0
 10
0.765571
 20
12.1038
 30
0.0
 40
0
 41
0
  0
VERTEX
  8
0
 10
0.772244
 20
12.0791
 30
0.0
 40
0
 41
0
  0
VERTEX
  8
0
 10
0.772244
 20
12.0709
 30
0.0
 40
0
 41
0
  0
VERTEX
  8
0
 10
0.772244
 20
12.0626
 30
0.0
 40
0
 41
0
  0
VERTEX
  8
0
 10
0.765571
 20
12.0379
 30
0.0
 40
0
 41
0
  0
VERTEX
  8
0
 10
0.747396
 20
12.0109
 30
0.0
 40
0
 41
0
  0
VERTEX
  8
0
 10
0.720486
 20
11.9927
 30
0.0
 40
0
 41
0
  0
VERTEX
  8
0
 10
0.695747
 20
11.9861
 30
0.0
 40
0
 41
0
  0
VERTEX
  8
0
 10
0.6875
 20
11.9861
 30
0.0
 40
0
 41
0
  0
SEQEND
 8
0
  0
POLYLINE
  8
0
 62
     0
 66
     1
 10
0
 20
0
 30
0.0
 70
     1
 40
0
 41
0
  0
VERTEX
  8
0
 10
0.1875
 20
11.9861
 30
0.0
 40
0
 41
0
  0
VERTEX
  8
0
 10
0.179199
 20
11.9861
 30
0.0
 40
0
 41
0
  0
VERTEX
  8
0
 10
0.15446
 20
11.9927
 30
0.0
 40
0
 41
0
  0
VERTEX
  8
0
 10
0.12755
 20
12.0109
 30
0.0
 40
0
 41
0
  0
VERTEX
  8
0
 10
0.109375
 20
12.0379
 30
0.0
 40
0
 41
0
  0
VERTEX
  8
0
 10
0.102756
 20
12.0626
 30
0.0
 40
0
 41
0
  0
VERTEX
  8
0
 10
0.102756
 20
12.0709
 30
0.0
 40
0
 41
0
  0
VERTEX
  8
0
 10
0.102756
 20
12.0791
 30
0.0
 40
0
 41
0
  0
VERTEX
  8
0
 10
0.109375
 20
12.1038
 30
0.0
 40
0
 41
0
  0
VERTEX
  8
0
 10
0.12755
 20
12.1308
 30
0.0
 40
0
 41
0
  0
VERTEX
  8
0
 10
0.15446
 20
12.149
 30
0.0
 40
0
 41
0
  0
VERTEX
  8
0
 10
0.179199
 20
12.1556
 30
0.0
 40
0
 41
0
  0
VERTEX
  8
0
 10
0.1875
 20
12.1556
 30
0.0
 40
0
 41
0
  0
VERTEX
  8
0
 10
0.195747
 20
12.1556
 30
0.0
 40
0
 41
0
  0
VERTEX
  8
0
 10
0.220486
 20
12.149
 30
0.0
 40
0
 41
0
  0
VERTEX
  8
0
 10
0.247396
 20
12.1308
 30
0.0
 40
0
 41
0
  0
VERTEX
  8
0
 10
0.265571
 20
12.1038
 30
0.0
 40
0
 41
0
  0
VERTEX
  8
0
 10
0.272244
 20
12.0791
 30
0.0
 40
0
 41
0
  0
VERTEX
  8
0
 10
0.272244
 20
12.0709
 30
0.0
 40
0
 41
0
  0
VERTEX
  8
0
 10
0.272244
 20
12.0626
 30
0.0
 40
0
 41
0
  0
VERTEX
  8
0
 10
0.265571
 20
12.0379
 30
0.0
 40
0
 41
0
  0
VERTEX
  8
0
 10
0.247396
 20
12.0109
 30
0.0
 40
0
 41
0
  0
VERTEX
  8
0
 10
0.220486
 20
11.9927
 30
0.0
 40
0
 41
0
  0
VERTEX
  8
0
 10
0.195747
 20
11.9861
 30
0.0
 40
0
 41
0
  0
VERTEX
  8
0
 10
0.1875
 20
11.9861
 30
0.0
 40
0
 41
0
  0
SEQEND
 8
0
  0
POLYLINE
  8
0
 62
     0
 66
     1
 10
0
 20
0
 30
0.0
 70
     1
 40
0
 41
0
  0
VERTEX
  8
0
 10
0.6875
 20
0.486057
 30
0.0
 40
0
 41
0
  0
VERTEX
  8
0
 10
0.679199
 20
0.486057
 30
0.0
 40
0
 41
0
  0
VERTEX
  8
0
 10
0.65446
 20
0.492731
 30
0.0
 40
0
 41
0
  0
VERTEX
  8
0
 10
0.62755
 20
0.510906
 30
0.0
 40
0
 41
0
  0
VERTEX
  8
0
 10
0.609375
 20
0.537869
 30
0.0
 40
0
 41
0
  0
VERTEX
  8
0
 10
0.602756
 20
0.562608
 30
0.0
 40
0
 41
0
  0
VERTEX
  8
0
 10
0.602756
 20
0.570856
 30
0.0
 40
0
 41
0
  0
VERTEX
  8
0
 10
0.602756
 20
0.579101
 30
0.0
 40
0
 41
0
  0
VERTEX
  8
0
 10
0.609375
 20
0.603842
 30
0.0
 40
0
 41
0
  0
VERTEX
  8
0
 10
0.62755
 20
0.630806
 30
0.0
 40
0
 41
0
  0
VERTEX
  8
0
 10
0.65446
 20
0.648981
 30
0.0
 40
0
 41
0
  0
VERTEX
  8
0
 10
0.679199
 20
0.655599
 30
0.0
 40
0
 41
0
  0
VERTEX
  8
0
 10
0.6875
 20
0.655599
 30
0.0
 40
0
 41
0
  0
VERTEX
  8
0
 10
0.695747
 20
0.655599
 30
0.0
 40
0
 41
0
  0
VERTEX
  8
0
 10
0.720486
 20
0.648981
 30
0.0
 40
0
 41
0
  0
VERTEX
  8
0
 10
0.747396
 20
0.630806
 30
0.0
 40
0
 41
0
  0
VERTEX
  8
0
 10
0.765571
 20
0.603842
 30
0.0
 40
0
 41
0
  0
VERTEX
  8
0
 10
0.772244
 20
0.579101
 30
0.0
 40
0
 41
0
  0
VERTEX
  8
0
 10
0.772244
 20
0.570856
 30
0.0
 40
0
 41
0
  0
VERTEX
  8
0
 10
0.772244
 20
0.562608
 30
0.0
 40
0
 41
0
  0
VERTEX
  8
0
 10
0.765571
 20
0.537869
 30
0.0
 40
0
 41
0
  0
VERTEX
  8
0
 10
0.747396
 20
0.510906
 30
0.0
 40
0
 41
0
  0
VERTEX
  8
0
 10
0.720486
 20
0.492731
 30
0.0
 40
0
 41
0
  0
VERTEX
  8
0
 10
0.695747
 20
0.486057
 30
0.0
 40
0
 41
0
  0
VERTEX
  8
0
 10
0.6875
 20
0.486057
 30
0.0
 40
0
 41
0
  0
SEQEND
 8
0
  0
POLYLINE
  8
0
 62
     0
 66
     1
 10
0
 20
0
 30
0.0
 70
     1
 40
0
 41
0
  0
VERTEX
  8
0
 10
0.1875
 20
0.486057
 30
0.0
 40
0
 41
0
  0
VERTEX
  8
0
 10
0.179199
 20
0.486057
 30
0.0
 40
0
 41
0
  0
VERTEX
  8
0
 10
0.15446
 20
0.492731
 30
0.0
 40
0
 41
0
  0
VERTEX
  8
0
 10
0.12755
 20
0.510906
 30
0.0
 40
0
 41
0
  0
VERTEX
  8
0
 10
0.109375
 20
0.537869
 30
0.0
 40
0
 41
0
  0
VERTEX
  8
0
 10
0.102756
 20
0.562608
 30
0.0
 40
0
 41
0
  0
VERTEX
  8
0
 10
0.102756
 20
0.570856
 30
0.0
 40
0
 41
0
  0
VERTEX
  8
0
 10
0.102756
 20
0.579101
 30
0.0
 40
0
 41
0
  0
VERTEX
  8
0
 10
0.109375
 20
0.603842
 30
0.0
 40
0
 41
0
  0
VERTEX
  8
0
 10
0.12755
 20
0.630806
 30
0.0
 40
0
 41
0
  0
VERTEX
  8
0
 10
0.15446
 20
0.648981
 30
0.0
 40
0
 41
0
  0
VERTEX
  8
0
 10
0.179199
 20
0.655599
 30
0.0
 40
0
 41
0
  0
VERTEX
  8
0
 10
0.1875
 20
0.655599
 30
0.0
 40
0
 41
0
  0
VERTEX
  8
0
 10
0.195747
 20
0.655599
 30
0.0
 40
0
 41
0
  0
VERTEX
  8
0
 10
0.220486
 20
0.648981
 30
0.0
 40
0
 41
0
  0
VERTEX
  8
0
 10
0.247396
 20
0.630806
 30
0.0
 40
0
 41
0
  0
VERTEX
  8
0
 10
0.265571
 20
0.603842
 30
0.0
 40
0
 41
0
  0
VERTEX
  8
0
 10
0.272244
 20
0.579101
 30
0.0
 40
0
 41
0
  0
VERTEX
  8
0
 10
0.272244
 20
0.570856
 30
0.0
 40
0
 41
0
  0
VERTEX
  8
0
 10
0.272244
 20
0.562608
 30
0.0
 40
0
 41
0
  0
VERTEX
  8
0
 10
0.265571
 20
0.537869
 30
0.0
 40
0
 41
0
  0
VERTEX
  8
0
 10
0.247396
 20
0.510906
 30
0.0
 40
0
 41
0
  0
VERTEX
  8
0
 10
0.220486
 20
0.492731
 30
0.0
 40
0
 41
0
  0
VERTEX
  8
0
 10
0.195747
 20
0.486057
 30
0.0
 40
0
 41
0
  0
VERTEX
  8
0
 10
0.1875
 20
0.486057
 30
0.0
 40
0
 41
0
  0
SEQEND
 8
0
  0
POLYLINE
  8
0
 62
     0
 66
     1
 10
0
 20
0
 30
0.0
 70
     1
 40
0
 41
0
  0
VERTEX
  8
0
 10
15.1483
 20
13.7023
 30
0.0
 40
0
 41
0
  0
VERTEX
  8
0
 10
15.0068
 20
13.7578
 30
0.0
 40
0
 41
0
  0
VERTEX
  8
0
 10
14.5936
 20
13.9529
 30
0.0
 40
0
 41
0
  0
VERTEX
  8
0
 10
14.0686
 20
14.2576
 30
0.0
 40
0
 41
0
  0
VERTEX
  8
0
 10
13.577
 20
14.6137
 30
0.0
 40
0
 41
0
  0
VERTEX
  8
0
 10
13.2309
 20
14.9121
 30
0.0
 40
0
 41
0
  0
VERTEX
  8
0
 10
13.1228
 20
15.0187
 30
0.0
 40
0
 41
0
  0
VERTEX
  8
0
 10
13.1164
 20
15.025
 30
0.0
 40
0
 41
0
  0
VERTEX
  8
0
 10
13.0564
 20
15.091
 30
0.0
 40
0
 41
0
  0
VERTEX
  8
0
 10
13.0508
 20
15.0979
 30
0.0
 40
0
 41
0
  0
VERTEX
  8
0
 10
10.9354
 20
17.6887
 30
0.0
 40
0
 41
0
  0
VERTEX
  8
0
 10
10.8538
 20
17.7888
 30
0.0
 40
0
 41
0
  0
VERTEX
  8
0
 10
10.6262
 20
18.1026
 30
0.0
 40
0
 41
0
  0
VERTEX
  8
0
 10
10.3551
 20
18.5392
 30
0.0
 40
0
 41
0
  0
VERTEX
  8
0
 10
10.1232
 20
18.9956
 30
0.0
 40
0
 41
0
  0
VERTEX
  8
0
 10
9.93126
 20
19.4692
 30
0.0
 40
0
 41
0
  0
VERTEX
  8
0
 10
9.78039
 20
19.9575
 30
0.0
 40
0
 41
0
  0
VERTEX
  8
0
 10
9.67139
 20
20.4576
 30
0.0
 40
0
 41
0
  0
VERTEX
  8
0
 10
9.60531
 20
20.9672
 30
0.0
 40
0
 41
0
  0
VERTEX
  8
0
 10
9.58311
 20
21.3543
 30
0.0
 40
0
 41
0
  0
VERTEX
  8
0
 10
9.58311
 20
21.4833
 30
0.0
 40
0
 41
0
  0
VERTEX
  8
0
 10
9.58311
 20
22.4689
 30
0.0
 40
0
 41
0
  0
VERTEX
  8
0
 10
11.0456
 20
22.4689
 30
0.0
 40
0
 41
0
  0
VERTEX
  8
0
 10
11.0578
 20
22.4689
 30
0.0
 40
0
 41
0
  0
VERTEX
  8
0
 10
11.0943
 20
22.4786
 30
0.0
 40
0
 41
0
  0
VERTEX
  8
0
 10
11.134
 20
22.5054
 30
0.0
 40
0
 41
0
  0
VERTEX
  8
0
 10
11.1608
 20
22.5451
 30
0.0
 40
0
 41
0
  0
VERTEX
  8
0
 10
11.1706
 20
22.5817
 30
0.0
 40
0
 41
0
  0
VERTEX
  8
0
 10
11.1706
 20
22.5939
 30
0.0
 40
0
 41
0
  0
VERTEX
  8
0
 10
11.1706
 20
29.3728
 30
0.0
 40
0
 41
0
  0
VERTEX
  8
0
 10
11.1706
 20
29.385
 30
0.0
 40
0
 41
0
  0
VERTEX
  8
0
 10
11.1608
 20
29.4215
 30
0.0
 40
0
 41
0
  0
VERTEX
  8
0
 10
11.134
 20
29.4612
 30
0.0
 40
0
 41
0
  0
VERTEX
  8
0
 10
11.0943
 20
29.4881
 30
0.0
 40
0
 41
0
  0
VERTEX
  8
0
 10
11.0578
 20
29.4978
 30
0.0
 40
0
 41
0
  0
VERTEX
  8
0
 10
11.0456
 20
29.4978
 30
0.0
 40
0
 41
0
  0
VERTEX
  8
0
 10
9.58311
 20
29.4978
 30
0.0
 40
0
 41
0
  0
VERTEX
  8
0
 10
9.58311
 20
30.4833
 30
0.0
 40
0
 41
0
  0
VERTEX
  8
0
 10
9.58311
 20
30.6124
 30
0.0
 40
0
 41
0
  0
VERTEX
  8
0
 10
9.60531
 20
30.9994
 30
0.0
 40
0
 41
0
  0
VERTEX
  8
0
 10
9.67139
 20
31.509
 30
0.0
 40
0
 41
0
  0
VERTEX
  8
0
 10
9.78039
 20
32.0093
 30
0.0
 40
0
 41
0
  0
VERTEX
  8
0
 10
9.93126
 20
32.4975
 30
0.0
 40
0
 41
0
  0
VERTEX
  8
0
 10
10.1232
 20
32.9712
 30
0.0
 40
0
 41
0
  0
VERTEX
  8
0
 10
10.3551
 20
33.4276
 30
0.0
 40
0
 41
0
  0
VERTEX
  8
0
 10
10.6262
 20
33.864
 30
0.0
 40
0
 41
0
  0
VERTEX
  8
0
 10
10.8538
 20
34.1779
 30
0.0
 40
0
 41
0
  0
VERTEX
  8
0
 10
10.9354
 20
34.2779
 30
0.0
 40
0
 41
0
  0
VERTEX
  8
0
 10
13.1959
 20
37.0189
 30
0.0
 40
0
 41
0
  0
VERTEX
  8
0
 10
13.3101
 20
37.1279
 30
0.0
 40
0
 41
0
  0
VERTEX
  8
0
 10
13.6758
 20
37.4308
 30
0.0
 40
0
 41
0
  0
VERTEX
  8
0
 10
14.195
 20
37.789
 30
0.0
 40
0
 41
0
  0
VERTEX
  8
0
 10
14.7489
 20
38.0908
 30
0.0
 40
0
 41
0
  0
VERTEX
  8
0
 10
15.1843
 20
38.2806
 30
0.0
 40
0
 41
0
  0
VERTEX
  8
0
 10
15.3331
 20
38.3333
 30
0.0
 40
0
 41
0
  0
VERTEX
  8
0
 10
18.6456
 20
38.3333
 30
0.0
 40
0
 41
0
  0
VERTEX
  8
0
 10
18.6456
 20
13.6334
 30
0.0
 40
0
 41
0
  0
VERTEX
  8
0
 10
15.5133
 20
13.6334
 30
0.0
 40
0
 41
0
  0
VERTEX
  8
0
 10
15.4668
 20
13.6334
 30
0.0
 40
0
 41
0
  0
VERTEX
  8
0
 10
15.3275
 20
13.6508
 30
0.0
 40
0
 41
0
  0
VERTEX
  8
0
 10
15.1774
 20
13.6909
 30
0.0
 40
0
 41
0
  0
VERTEX
  8
0
 10
15.1483
 20
13.7023
 30
0.0
 40
0
 41
0
  0
SEQEND
 8
0
  0
POLYLINE
  8
0
 62
     0
 66
     1
 10
0
 20
0
 30
0.0
 70
     1
 40
0
 41
0
  0
VERTEX
  8
0
 10
17.6456
 20
35.3518
 30
0.0
 40
0
 41
0
  0
VERTEX
  8
0
 10
16.6456
 20
35.3518
 30
0.0
 40
0
 41
0
  0
VERTEX
  8
0
 10
16.6211
 20
35.3518
 30
0.0
 40
0
 41
0
  0
VERTEX
  8
0
 10
16.5476
 20
35.3422
 30
0.0
 40
0
 41
0
  0
VERTEX
  8
0
 10
16.4543
 20
35.3138
 30
0.0
 40
0
 41
0
  0
VERTEX
  8
0
 10
16.3682
 20
35.2679
 30
0.0
 40
0
 41
0
  0
VERTEX
  8
0
 10
16.3094
 20
35.2228
 30
0.0
 40
0
 41
0
  0
VERTEX
  8
0
 10
16.2921
 20
35.2054
 30
0.0
 40
0
 41
0
  0
VERTEX
  8
0
 10
16.2747
 20
35.1881
 30
0.0
 40
0
 41
0
  0
VERTEX
  8
0
 10
16.2296
 20
35.1292
 30
0.0
 40
0
 41
0
  0
VERTEX
  8
0
 10
16.1836
 20
35.0432
 30
0.0
 40
0
 41
0
  0
VERTEX
  8
0
 10
16.1553
 20
34.9499
 30
0.0
 40
0
 41
0
  0
VERTEX
  8
0
 10
16.1456
 20
34.8764
 30
0.0
 40
0
 41
0
  0
VERTEX
  8
0
 10
16.1456
 20
34.8518
 30
0.0
 40
0
 41
0
  0
VERTEX
  8
0
 10
16.1456
 20
31.3518
 30
0.0
 40
0
 41
0
  0
VERTEX
  8
0
 10
16.1456
 20
31.3267
 30
0.0
 40
0
 41
0
  0
VERTEX
  8
0
 10
16.1557
 20
31.2511
 30
0.0
 40
0
 41
0
  0
VERTEX
  8
0
 10
16.1849
 20
31.1572
 30
0.0
 40
0
 41
0
  0
VERTEX
  8
0
 10
16.231
 20
31.0724
 30
0.0
 40
0
 41
0
  0
VERTEX
  8
0
 10
16.2921
 20
30.9983
 30
0.0
 40
0
 41
0
  0
VERTEX
  8
0
 10
16.3661
 20
30.9372
 30
0.0
 40
0
 41
0
  0
VERTEX
  8
0
 10
16.451
 20
30.8911
 30
0.0
 40
0
 41
0
  0
VERTEX
  8
0
 10
16.5449
 20
30.8621
 30
0.0
 40
0
 41
0
  0
VERTEX
  8
0
 10
16.6204
 20
30.8518
 30
0.0
 40
0
 41
0
  0
VERTEX
  8
0
 10
16.6456
 20
30.8518
 30
0.0
 40
0
 41
0
  0
VERTEX
  8
0
 10
17.6456
 20
30.8518
 30
0.0
 40
0
 41
0
  0
VERTEX
  8
0
 10
17.6708
 20
30.8518
 30
0.0
 40
0
 41
0
  0
VERTEX
  8
0
 10
17.7464
 20
30.8621
 30
0.0
 40
0
 41
0
  0
VERTEX
  8
0
 10
17.8403
 20
30.8911
 30
0.0
 40
0
 41
0
  0
VERTEX
  8
0
 10
17.9251
 20
30.9372
 30
0.0
 40
0
 41
0
  0
VERTEX
  8
0
 10
17.9992
 20
30.9983
 30
0.0
 40
0
 41
0
  0
VERTEX
  8
0
 10
18.0603
 20
31.0724
 30
0.0
 40
0
 41
0
  0
VERTEX
  8
0
 10
18.1063
 20
31.1572
 30
0.0
 40
0
 41
0
  0
VERTEX
  8
0
 10
18.1354
 20
31.2511
 30
0.0
 40
0
 41
0
  0
VERTEX
  8
0
 10
18.1456
 20
31.3267
 30
0.0
 40
0
 41
0
  0
VERTEX
  8
0
 10
18.1456
 20
31.3518
 30
0.0
 40
0
 41
0
  0
VERTEX
  8
0
 10
18.1456
 20
34.8518
 30
0.0
 40
0
 41
0
  0
VERTEX
  8
0
 10
18.1456
 20
34.8771
 30
0.0
 40
0
 41
0
  0
VERTEX
  8
0
 10
18.1354
 20
34.9526
 30
0.0
 40
0
 41
0
  0
VERTEX
  8
0
 10
18.1063
 20
35.0465
 30
0.0
 40
0
 41
0
  0
VERTEX
  8
0
 10
18.0603
 20
35.1314
 30
0.0
 40
0
 41
0
  0
VERTEX
  8
0
 10
17.9992
 20
35.2054
 30
0.0
 40
0
 41
0
  0
VERTEX
  8
0
 10
17.9251
 20
35.2665
 30
0.0
 40
0
 41
0
  0
VERTEX
  8
0
 10
17.8403
 20
35.3125
 30
0.0
 40
0
 41
0
  0
VERTEX
  8
0
 10
17.7464
 20
35.3417
 30
0.0
 40
0
 41
0
  0
VERTEX
  8
0
 10
17.6708
 20
35.3518
 30
0.0
 40
0
 41
0
  0
VERTEX
  8
0
 10
17.6456
 20
35.3518
 30
0.0
 40
0
 41
0
  0
SEQEND
 8
0
  0
POLYLINE
  8
0
 62
     0
 66
     1
 10
0
 20
0
 30
0.0
 70
     1
 40
0
 41
0
  0
VERTEX
  8
0
 10
17.6456
 20
21.1149
 30
0.0
 40
0
 41
0
  0
VERTEX
  8
0
 10
16.6456
 20
21.1149
 30
0.0
 40
0
 41
0
  0
VERTEX
  8
0
 10
16.6204
 20
21.1149
 30
0.0
 40
0
 41
0
  0
VERTEX
  8
0
 10
16.5449
 20
21.1047
 30
0.0
 40
0
 41
0
  0
VERTEX
  8
0
 10
16.451
 20
21.0756
 30
0.0
 40
0
 41
0
  0
VERTEX
  8
0
 10
16.3661
 20
21.0294
 30
0.0
 40
0
 41
0
  0
VERTEX
  8
0
 10
16.2921
 20
20.9685
 30
0.0
 40
0
 41
0
  0
VERTEX
  8
0
 10
16.231
 20
20.8944
 30
0.0
 40
0
 41
0
  0
VERTEX
  8
0
 10
16.1849
 20
20.8094
 30
0.0
 40
0
 41
0
  0
VERTEX
  8
0
 10
16.1557
 20
20.7157
 30
0.0
 40
0
 41
0
  0
VERTEX
  8
0
 10
16.1456
 20
20.6401
 30
0.0
 40
0
 41
0
  0
VERTEX
  8
0
 10
16.1456
 20
20.6149
 30
0.0
 40
0
 41
0
  0
VERTEX
  8
0
 10
16.1456
 20
17.1149
 30
0.0
 40
0
 41
0
  0
VERTEX
  8
0
 10
16.1456
 20
17.0904
 30
0.0
 40
0
 41
0
  0
VERTEX
  8
0
 10
16.1553
 20
17.0168
 30
0.0
 40
0
 41
0
  0
VERTEX
  8
0
 10
16.1836
 20
16.9235
 30
0.0
 40
0
 41
0
  0
VERTEX
  8
0
 10
16.2296
 20
16.8375
 30
0.0
 40
0
 41
0
  0
VERTEX
  8
0
 10
16.2747
 20
16.7786
 30
0.0
 40
0
 41
0
  0
VERTEX
  8
0
 10
16.2921
 20
16.7613
 30
0.0
 40
0
 41
0
  0
VERTEX
  8
0
 10
16.3094
 20
16.744
 30
0.0
 40
0
 41
0
  0
VERTEX
  8
0
 10
16.3682
 20
16.6989
 30
0.0
 40
0
 41
0
  0
VERTEX
  8
0
 10
16.4543
 20
16.6529
 30
0.0
 40
0
 41
0
  0
VERTEX
  8
0
 10
16.5476
 20
16.6246
 30
0.0
 40
0
 41
0
  0
VERTEX
  8
0
 10
16.6211
 20
16.6149
 30
0.0
 40
0
 41
0
  0
VERTEX
  8
0
 10
16.6456
 20
16.6149
 30
0.0
 40
0
 41
0
  0
VERTEX
  8
0
 10
17.6456
 20
16.6149
 30
0.0
 40
0
 41
0
  0
VERTEX
  8
0
 10
17.6708
 20
16.6149
 30
0.0
 40
0
 41
0
  0
VERTEX
  8
0
 10
17.7464
 20
16.625
 30
0.0
 40
0
 41
0
  0
VERTEX
  8
0
 10
17.8403
 20
16.6542
 30
0.0
 40
0
 41
0
  0
VERTEX
  8
0
 10
17.9251
 20
16.7003
 30
0.0
 40
0
 41
0
  0
VERTEX
  8
0
 10
17.9992
 20
16.7614
 30
0.0
 40
0
 41
0
  0
VERTEX
  8
0
 10
18.0603
 20
16.8353
 30
0.0
 40
0
 41
0
  0
VERTEX
  8
0
 10
18.1063
 20
16.9203
 30
0.0
 40
0
 41
0
  0
VERTEX
  8
0
 10
18.1354
 20
17.0142
 30
0.0
 40
0
 41
0
  0
VERTEX
  8
0
 10
18.1456
 20
17.0897
 30
0.0
 40
0
 41
0
  0
VERTEX
  8
0
 10
18.1456
 20
17.1149
 30
0.0
 40
0
 41
0
  0
VERTEX
  8
0
 10
18.1456
 20
20.6149
 30
0.0
 40
0
 41
0
  0
VERTEX
  8
0
 10
18.1456
 20
20.6401
 30
0.0
 40
0
 41
0
  0
VERTEX
  8
0
 10
18.1354
 20
20.7157
 30
0.0
 40
0
 41
0
  0
VERTEX
  8
0
 10
18.1063
 20
20.8094
 30
0.0
 40
0
 41
0
  0
VERTEX
  8
0
 10
18.0603
 20
20.8944
 30
0.0
 40
0
 41
0
  0
VERTEX
  8
0
 10
17.9992
 20
20.9685
 30
0.0
 40
0
 41
0
  0
VERTEX
  8
0
 10
17.9251
 20
21.0294
 30
0.0
 40
0
 41
0
  0
VERTEX
  8
0
 10
17.8403
 20
21.0756
 30
0.0
 40
0
 41
0
  0
VERTEX
  8
0
 10
17.7464
 20
21.1047
 30
0.0
 40
0
 41
0
  0
VERTEX
  8
0
 10
17.6708
 20
21.1149
 30
0.0
 40
0
 41
0
  0
VERTEX
  8
0
 10
17.6456
 20
21.1149
 30
0.0
 40
0
 41
0
  0
SEQEND
 8
0
  0
POLYLINE
  8
0
 62
     0
 66
     1
 10
0
 20
0
 30
0.0
 70
     1
 40
0
 41
0
  0
VERTEX
  8
0
 10
17.1456
 20
28.1083
 30
0.0
 40
0
 41
0
  0
VERTEX
  8
0
 10
13.8956
 20
28.1083
 30
0.0
 40
0
 41
0
  0
VERTEX
  8
0
 10
13.8711
 20
28.1083
 30
0.0
 40
0
 41
0
  0
VERTEX
  8
0
 10
13.7976
 20
28.0988
 30
0.0
 40
0
 41
0
  0
VERTEX
  8
0
 10
13.7043
 20
28.0703
 30
0.0
 40
0
 41
0
  0
VERTEX
  8
0
 10
13.6182
 20
28.0243
 30
0.0
 40
0
 41
0
  0
VERTEX
  8
0
 10
13.5594
 20
27.9792
 30
0.0
 40
0
 41
0
  0
VERTEX
  8
0
 10
13.5421
 20
27.9618
 30
0.0
 40
0
 41
0
  0
VERTEX
  8
0
 10
13.5247
 20
27.9446
 30
0.0
 40
0
 41
0
  0
VERTEX
  8
0
 10
13.4796
 20
27.8857
 30
0.0
 40
0
 41
0
  0
VERTEX
  8
0
 10
13.4337
 20
27.7997
 30
0.0
 40
0
 41
0
  0
VERTEX
  8
0
 10
13.4053
 20
27.7064
 30
0.0
 40
0
 41
0
  0
VERTEX
  8
0
 10
13.3956
 20
27.6329
 30
0.0
 40
0
 41
0
  0
VERTEX
  8
0
 10
13.3956
 20
27.6083
 30
0.0
 40
0
 41
0
  0
VERTEX
  8
0
 10
13.3956
 20
24.3583
 30
0.0
 40
0
 41
0
  0
VERTEX
  8
0
 10
13.3956
 20
24.3339
 30
0.0
 40
0
 41
0
  0
VERTEX
  8
0
 10
13.4053
 20
24.2604
 30
0.0
 40
0
 41
0
  0
VERTEX
  8
0
 10
13.4337
 20
24.1669
 30
0.0
 40
0
 41
0
  0
VERTEX
  8
0
 10
13.4796
 20
24.081
 30
0.0
 40
0
 41
0
  0
VERTEX
  8
0
 10
13.5247
 20
24.0221
 30
0.0
 40
0
 41
0
  0
VERTEX
  8
0
 10
13.5421
 20
24.0047
 30
0.0
 40
0
 41
0
  0
VERTEX
  8
0
 10
13.5594
 20
23.9875
 30
0.0
 40
0
 41
0
  0
VERTEX
  8
0
 10
13.6182
 20
23.9424
 30
0.0
 40
0
 41
0
  0
VERTEX
  8
0
 10
13.7043
 20
23.8964
 30
0.0
 40
0
 41
0
  0
VERTEX
  8
0
 10
13.7976
 20
23.8681
 30
0.0
 40
0
 41
0
  0
VERTEX
  8
0
 10
13.8711
 20
23.8583
 30
0.0
 40
0
 41
0
  0
VERTEX
  8
0
 10
13.8956
 20
23.8583
 30
0.0
 40
0
 41
0
  0
VERTEX
  8
0
 10
17.1456
 20
23.8583
 30
0.0
 40
0
 41
0
  0
VERTEX
  8
0
 10
17.1701
 20
23.8583
 30
0.0
 40
0
 41
0
  0
VERTEX
  8
0
 10
17.2436
 20
23.8681
 30
0.0
 40
0
 41
0
  0
VERTEX
  8
0
 10
17.3369
 20
23.8964
 30
0.0
 40
0
 41
0
  0
VERTEX
  8
0
 10
17.4231
 20
23.9424
 30
0.0
 40
0
 41
0
  0
VERTEX
  8
0
 10
17.4818
 20
23.9875
 30
0.0
 40
0
 41
0
  0
VERTEX
  8
0
 10
17.4992
 20
24.0047
 30
0.0
 40
0
 41
0
  0
VERTEX
  8
0
 10
17.5165
 20
24.0221
 30
0.0
 40
0
 41
0
  0
VERTEX
  8
0
 10
17.5615
 20
24.081
 30
0.0
 40
0
 41
0
  0
VERTEX
  8
0
 10
17.6075
 20
24.1669
 30
0.0
 40
0
 41
0
  0
VERTEX
  8
0
 10
17.636
 20
24.2604
 30
0.0
 40
0
 41
0
  0
VERTEX
  8
0
 10
17.6456
 20
24.3339
 30
0.0
 40
0
 41
0
  0
VERTEX
  8
0
 10
17.6456
 20
24.3583
 30
0.0
 40
0
 41
0
  0
VERTEX
  8
0
 10
17.6456
 20
27.6083
 30
0.0
 40
0
 41
0
  0
VERTEX
  8
0
 10
17.6456
 20
27.6329
 30
0.0
 40
0
 41
0
  0
VERTEX
  8
0
 10
17.636
 20
27.7064
 30
0.0
 40
0
 41
0
  0
VERTEX
  8
0
 10
17.6075
 20
27.7997
 30
0.0
 40
0
 41
0
  0
VERTEX
  8
0
 10
17.5615
 20
27.8857
 30
0.0
 40
0
 41
0
  0
VERTEX
  8
0
 10
17.5165
 20
27.9446
 30
0.0
 40
0
 41
0
  0
VERTEX
  8
0
 10
17.4992
 20
27.9618
 30
0.0
 40
0
 41
0
  0
VERTEX
  8
0
 10
17.4818
 20
27.9792
 30
0.0
 40
0
 41
0
  0
VERTEX
  8
0
 10
17.4231
 20
28.0243
 30
0.0
 40
0
 41
0
  0
VERTEX
  8
0
 10
17.3369
 20
28.0703
 30
0.0
 40
0
 41
0
  0
VERTEX
  8
0
 10
17.2436
 20
28.0988
 30
0.0
 40
0
 41
0
  0
VERTEX
  8
0
 10
17.1701
 20
28.1083
 30
0.0
 40
0
 41
0
  0
VERTEX
  8
0
 10
17.1456
 20
28.1083
 30
0.0
 40
0
 41
0
  0
SEQEND
 8
0
  0
POLYLINE
  8
0
 62
     0
 66
     1
 10
0
 20
0
 30
0.0
 70
     1
 40
0
 41
0
  0
VERTEX
  8
0
 10
12.415
 20
16.0883
 30
0.0
 40
0
 41
0
  0
VERTEX
  8
0
 10
12.4067
 20
16.0883
 30
0.0
 40
0
 41
0
  0
VERTEX
  8
0
 10
12.382
 20
16.095
 30
0.0
 40
0
 41
0
  0
VERTEX
  8
0
 10
12.3551
 20
16.1131
 30
0.0
 40
0
 41
0
  0
VERTEX
  8
0
 10
12.3369
 20
16.1401
 30
0.0
 40
0
 41
0
  0
VERTEX
  8
0
 10
12.3303
 20
16.1649
 30
0.0
 40
0
 41
0
  0
VERTEX
  8
0
 10
12.3303
 20
16.1731
 30
0.0
 40
0
 41
0
  0
VERTEX
  8
0
 10
12.3303
 20
16.1813
 30
0.0
 40
0
 41
0
  0
VERTEX
  8
0
 10
12.3369
 20
16.2061
 30
0.0
 40
0
 41
0
  0
VERTEX
  8
0
 10
12.3551
 20
16.2331
 30
0.0
 40
0
 41
0
  0
VERTEX
  8
0
 10
12.382
 20
16.2512
 30
0.0
 40
0
 41
0
  0
VERTEX
  8
0
 10
12.4067
 20
16.2578
 30
0.0
 40
0
 41
0
  0
VERTEX
  8
0
 10
12.415
 20
16.2578
 30
0.0
 40
0
 41
0
  0
VERTEX
  8
0
 10
12.4233
 20
16.2578
 30
0.0
 40
0
 41
0
  0
VERTEX
  8
0
 10
12.448
 20
16.2512
 30
0.0
 40
0
 41
0
  0
VERTEX
  8
0
 10
12.4749
 20
16.2331
 30
0.0
 40
0
 41
0
  0
VERTEX
  8
0
 10
12.4931
 20
16.2061
 30
0.0
 40
0
 41
0
  0
VERTEX
  8
0
 10
12.4998
 20
16.1813
 30
0.0
 40
0
 41
0
  0
VERTEX
  8
0
 10
12.4998
 20
16.1731
 30
0.0
 40
0
 41
0
  0
VERTEX
  8
0
 10
12.4998
 20
16.1649
 30
0.0
 40
0
 41
0
  0
VERTEX
  8
0
 10
12.4931
 20
16.1401
 30
0.0
 40
0
 41
0
  0
VERTEX
  8
0
 10
12.4749
 20
16.1131
 30
0.0
 40
0
 41
0
  0
VERTEX
  8
0
 10
12.448
 20
16.095
 30
0.0
 40
0
 41
0
  0
VERTEX
  8
0
 10
12.4233
 20
16.0883
 30
0.0
 40
0
 41
0
  0
VERTEX
  8
0
 10
12.415
 20
16.0883
 30
0.0
 40
0
 41
0
  0
SEQEND
 8
0
  0
POLYLINE
  8
0
 62
     0
 66
     1
 10
0
 20
0
 30
0.0
 70
     1
 40
0
 41
0
  0
VERTEX
  8
0
 10
12.8024
 20
16.4046
 30
0.0
 40
0
 41
0
  0
VERTEX
  8
0
 10
12.7941
 20
16.4046
 30
0.0
 40
0
 41
0
  0
VERTEX
  8
0
 10
12.7693
 20
16.4112
 30
0.0
 40
0
 41
0
  0
VERTEX
  8
0
 10
12.7424
 20
16.4293
 30
0.0
 40
0
 41
0
  0
VERTEX
  8
0
 10
12.7242
 20
16.4562
 30
0.0
 40
0
 41
0
  0
VERTEX
  8
0
 10
12.7176
 20
16.481
 30
0.0
 40
0
 41
0
  0
VERTEX
  8
0
 10
12.7176
 20
16.4893
 30
0.0
 40
0
 41
0
  0
VERTEX
  8
0
 10
12.7176
 20
16.4975
 30
0.0
 40
0
 41
0
  0
VERTEX
  8
0
 10
12.7242
 20
16.5224
 30
0.0
 40
0
 41
0
  0
VERTEX
  8
0
 10
12.7424
 20
16.5492
 30
0.0
 40
0
 41
0
  0
VERTEX
  8
0
 10
12.7693
 20
16.5674
 30
0.0
 40
0
 41
0
  0
VERTEX
  8
0
 10
12.7941
 20
16.574
 30
0.0
 40
0
 41
0
  0
VERTEX
  8
0
 10
12.8024
 20
16.574
 30
0.0
 40
0
 41
0
  0
VERTEX
  8
0
 10
12.8106
 20
16.574
 30
0.0
 40
0
 41
0
  0
VERTEX
  8
0
 10
12.8353
 20
16.5674
 30
0.0
 40
0
 41
0
  0
VERTEX
  8
0
 10
12.8622
 20
16.5492
 30
0.0
 40
0
 41
0
  0
VERTEX
  8
0
 10
12.8804
 20
16.5224
 30
0.0
 40
0
 41
0
  0
VERTEX
  8
0
 10
12.8871
 20
16.4975
 30
0.0
 40
0
 41
0
  0
VERTEX
  8
0
 10
12.8871
 20
16.4893
 30
0.0
 40
0
 41
0
  0
VERTEX
  8
0
 10
12.8871
 20
16.481
 30
0.0
 40
0
 41
0
  0
VERTEX
  8
0
 10
12.8804
 20
16.4562
 30
0.0
 40
0
 41
0
  0
VERTEX
  8
0
 10
12.8622
 20
16.4293
 30
0.0
 40
0
 41
0
  0
VERTEX
  8
0
 10
12.8353
 20
16.4112
 30
0.0
 40
0
 41
0
  0
VERTEX
  8
0
 10
12.8106
 20
16.4046
 30
0.0
 40
0
 41
0
  0
VERTEX
  8
0
 10
12.8024
 20
16.4046
 30
0.0
 40
0
 41
0
  0
SEQEND
 8
0
  0
POLYLINE
  8
0
 62
     0
 66
     1
 10
0
 20
0
 30
0.0
 70
     1
 40
0
 41
0
  0
VERTEX
  8
0
 10
12.8024
 20
35.3928
 30
0.0
 40
0
 41
0
  0
VERTEX
  8
0
 10
12.7942
 20
35.3928
 30
0.0
 40
0
 41
0
  0
VERTEX
  8
0
 10
12.7694
 20
35.3994
 30
0.0
 40
0
 41
0
  0
VERTEX
  8
0
 10
12.7425
 20
35.4176
 30
0.0
 40
0
 41
0
  0
VERTEX
  8
0
 10
12.7243
 20
35.4444
 30
0.0
 40
0
 41
0
  0
VERTEX
  8
0
 10
12.7177
 20
35.4693
 30
0.0
 40
0
 41
0
  0
VERTEX
  8
0
 10
12.7177
 20
35.4775
 30
0.0
 40
0
 41
0
  0
VERTEX
  8
0
 10
12.7177
 20
35.4858
 30
0.0
 40
0
 41
0
  0
VERTEX
  8
0
 10
12.7243
 20
35.5106
 30
0.0
 40
0
 41
0
  0
VERTEX
  8
0
 10
12.7425
 20
35.5375
 30
0.0
 40
0
 41
0
  0
VERTEX
  8
0
 10
12.7694
 20
35.5556
 30
0.0
 40
0
 41
0
  0
VERTEX
  8
0
 10
12.7942
 20
35.5622
 30
0.0
 40
0
 41
0
  0
VERTEX
  8
0
 10
12.8024
 20
35.5622
 30
0.0
 40
0
 41
0
  0
VERTEX
  8
0
 10
12.8107
 20
35.5622
 30
0.0
 40
0
 41
0
  0
VERTEX
  8
0
 10
12.8354
 20
35.5556
 30
0.0
 40
0
 41
0
  0
VERTEX
  8
0
 10
12.8624
 20
35.5375
 30
0.0
 40
0
 41
0
  0
VERTEX
  8
0
 10
12.8805
 20
35.5106
 30
0.0
 40
0
 41
0
  0
VERTEX
  8
0
 10
12.8872
 20
35.4858
 30
0.0
 40
0
 41
0
  0
VERTEX
  8
0
 10
12.8872
 20
35.4775
 30
0.0
 40
0
 41
0
  0
VERTEX
  8
0
 10
12.8872
 20
35.4693
 30
0.0
 40
0
 41
0
  0
VERTEX
  8
0
 10
12.8805
 20
35.4444
 30
0.0
 40
0
 41
0
  0
VERTEX
  8
0
 10
12.8624
 20
35.4176
 30
0.0
 40
0
 41
0
  0
VERTEX
  8
0
 10
12.8354
 20
35.3994
 30
0.0
 40
0
 41
0
  0
VERTEX
  8
0
 10
12.8107
 20
35.3928
 30
0.0
 40
0
 41
0
  0
VERTEX
  8
0
 10
12.8024
 20
35.3928
 30
0.0
 40
0
 41
0
  0
SEQEND
 8
0
  0
POLYLINE
  8
0
 62
     0
 66
     1
 10
0
 20
0
 30
0.0
 70
     1
 40
0
 41
0
  0
VERTEX
  8
0
 10
12.4152
 20
35.709
 30
0.0
 40
0
 41
0
  0
VERTEX
  8
0
 10
12.4068
 20
35.709
 30
0.0
 40
0
 41
0
  0
VERTEX
  8
0
 10
12.3821
 20
35.7157
 30
0.0
 40
0
 41
0
  0
VERTEX
  8
0
 10
12.3552
 20
35.7339
 30
0.0
 40
0
 41
0
  0
VERTEX
  8
0
 10
12.337
 20
35.7607
 30
0.0
 40
0
 41
0
  0
VERTEX
  8
0
 10
12.3304
 20
35.7854
 30
0.0
 40
0
 41
0
  0
VERTEX
  8
0
 10
12.3304
 20
35.7937
 30
0.0
 40
0
 41
0
  0
VERTEX
  8
0
 10
12.3304
 20
35.8019
 30
0.0
 40
0
 41
0
  0
VERTEX
  8
0
 10
12.337
 20
35.8267
 30
0.0
 40
0
 41
0
  0
VERTEX
  8
0
 10
12.3552
 20
35.8536
 30
0.0
 40
0
 41
0
  0
VERTEX
  8
0
 10
12.3821
 20
35.8718
 30
0.0
 40
0
 41
0
  0
VERTEX
  8
0
 10
12.4068
 20
35.8785
 30
0.0
 40
0
 41
0
  0
VERTEX
  8
0
 10
12.4152
 20
35.8785
 30
0.0
 40
0
 41
0
  0
VERTEX
  8
0
 10
12.4233
 20
35.8785
 30
0.0
 40
0
 41
0
  0
VERTEX
  8
0
 10
12.4481
 20
35.8718
 30
0.0
 40
0
 41
0
  0
VERTEX
  8
0
 10
12.475
 20
35.8536
 30
0.0
 40
0
 41
0
  0
VERTEX
  8
0
 10
12.4932
 20
35.8267
 30
0.0
 40
0
 41
0
  0
VERTEX
  8
0
 10
12.4999
 20
35.8019
 30
0.0
 40
0
 41
0
  0
VERTEX
  8
0
 10
12.4999
 20
35.7937
 30
0.0
 40
0
 41
0
  0
VERTEX
  8
0
 10
12.4999
 20
35.7854
 30
0.0
 40
0
 41
0
  0
VERTEX
  8
0
 10
12.4932
 20
35.7607
 30
0.0
 40
0
 41
0
  0
VERTEX
  8
0
 10
12.475
 20
35.7339
 30
0.0
 40
0
 41
0
  0
VERTEX
  8
0
 10
12.4481
 20
35.7157
 30
0.0
 40
0
 41
0
  0
VERTEX
  8
0
 10
12.4233
 20
35.709
 30
0.0
 40
0
 41
0
  0
VERTEX
  8
0
 10
12.4152
 20
35.709
 30
0.0
 40
0
 41
0
  0
SEQEND
 8
0
  0
POLYLINE
  8
0
 62
     0
 66
     1
 10
0
 20
0
 30
0.0
 70
     1
 40
0
 41
0
  0
VERTEX
  8
0
 10
14.7757
 20
33.9796
 30
0.0
 40
0
 41
0
  0
VERTEX
  8
0
 10
14.7675
 20
33.9796
 30
0.0
 40
0
 41
0
  0
VERTEX
  8
0
 10
14.7428
 20
33.9863
 30
0.0
 40
0
 41
0
  0
VERTEX
  8
0
 10
14.7158
 20
34.0044
 30
0.0
 40
0
 41
0
  0
VERTEX
  8
0
 10
14.6976
 20
34.0314
 30
0.0
 40
0
 41
0
  0
VERTEX
  8
0
 10
14.691
 20
34.0561
 30
0.0
 40
0
 41
0
  0
VERTEX
  8
0
 10
14.691
 20
34.0643
 30
0.0
 40
0
 41
0
  0
VERTEX
  8
0
 10
14.691
 20
34.0726
 30
0.0
 40
0
 41
0
  0
VERTEX
  8
0
 10
14.6976
 20
34.0974
 30
0.0
 40
0
 41
0
  0
VERTEX
  8
0
 10
14.7158
 20
34.1243
 30
0.0
 40
0
 41
0
  0
VERTEX
  8
0
 10
14.7428
 20
34.1425
 30
0.0
 40
0
 41
0
  0
VERTEX
  8
0
 10
14.7675
 20
34.149
 30
0.0
 40
0
 41
0
  0
VERTEX
  8
0
 10
14.7757
 20
34.149
 30
0.0
 40
0
 41
0
  0
VERTEX
  8
0
 10
14.784
 20
34.149
 30
0.0
 40
0
 41
0
  0
VERTEX
  8
0
 10
14.8087
 20
34.1425
 30
0.0
 40
0
 41
0
  0
VERTEX
  8
0
 10
14.8356
 20
34.1243
 30
0.0
 40
0
 41
0
  0
VERTEX
  8
0
 10
14.8537
 20
34.0974
 30
0.0
 40
0
 41
0
  0
VERTEX
  8
0
 10
14.8604
 20
34.0726
 30
0.0
 40
0
 41
0
  0
VERTEX
  8
0
 10
14.8604
 20
34.0643
 30
0.0
 40
0
 41
0
  0
VERTEX
  8
0
 10
14.8604
 20
34.0561
 30
0.0
 40
0
 41
0
  0
VERTEX
  8
0
 10
14.8537
 20
34.0314
 30
0.0
 40
0
 41
0
  0
VERTEX
  8
0
 10
14.8356
 20
34.0044
 30
0.0
 40
0
 41
0
  0
VERTEX
  8
0
 10
14.8087
 20
33.9863
 30
0.0
 40
0
 41
0
  0
VERTEX
  8
0
 10
14.784
 20
33.9796
 30
0.0
 40
0
 41
0
  0
VERTEX
  8
0
 10
14.7757
 20
33.9796
 30
0.0
 40
0
 41
0
  0
SEQEND
 8
0
  0
POLYLINE
  8
0
 62
     0
 66
     1
 10
0
 20
0
 30
0.0
 70
     1
 40
0
 41
0
  0
VERTEX
  8
0
 10
14.7757
 20
32.1796
 30
0.0
 40
0
 41
0
  0
VERTEX
  8
0
 10
14.7675
 20
32.1796
 30
0.0
 40
0
 41
0
  0
VERTEX
  8
0
 10
14.7428
 20
32.1862
 30
0.0
 40
0
 41
0
  0
VERTEX
  8
0
 10
14.7158
 20
32.2044
 30
0.0
 40
0
 41
0
  0
VERTEX
  8
0
 10
14.6976
 20
32.2314
 30
0.0
 40
0
 41
0
  0
VERTEX
  8
0
 10
14.691
 20
32.2561
 30
0.0
 40
0
 41
0
  0
VERTEX
  8
0
 10
14.691
 20
32.2643
 30
0.0
 40
0
 41
0
  0
VERTEX
  8
0
 10
14.691
 20
32.2726
 30
0.0
 40
0
 41
0
  0
VERTEX
  8
0
 10
14.6976
 20
32.2974
 30
0.0
 40
0
 41
0
  0
VERTEX
  8
0
 10
14.7158
 20
32.3243
 30
0.0
 40
0
 41
0
  0
VERTEX
  8
0
 10
14.7428
 20
32.3425
 30
0.0
 40
0
 41
0
  0
VERTEX
  8
0
 10
14.7675
 20
32.349
 30
0.0
 40
0
 41
0
  0
VERTEX
  8
0
 10
14.7757
 20
32.349
 30
0.0
 40
0
 41
0
  0
VERTEX
  8
0
 10
14.784
 20
32.349
 30
0.0
 40
0
 41
0
  0
VERTEX
  8
0
 10
14.8087
 20
32.3425
 30
0.0
 40
0
 41
0
  0
VERTEX
  8
0
 10
14.8356
 20
32.3243
 30
0.0
 40
0
 41
0
  0
VERTEX
  8
0
 10
14.8537
 20
32.2974
 30
0.0
 40
0
 41
0
  0
VERTEX
  8
0
 10
14.8604
 20
32.2726
 30
0.0
 40
0
 41
0
  0
VERTEX
  8
0
 10
14.8604
 20
32.2643
 30
0.0
 40
0
 41
0
  0
VERTEX
  8
0
 10
14.8604
 20
32.2561
 30
0.0
 40
0
 41
0
  0
VERTEX
  8
0
 10
14.8537
 20
32.2314
 30
0.0
 40
0
 41
0
  0
VERTEX
  8
0
 10
14.8356
 20
32.2044
 30
0.0
 40
0
 41
0
  0
VERTEX
  8
0
 10
14.8087
 20
32.1862
 30
0.0
 40
0
 41
0
  0
VERTEX
  8
0
 10
14.784
 20
32.1796
 30
0.0
 40
0
 41
0
  0
VERTEX
  8
0
 10
14.7757
 20
32.1796
 30
0.0
 40
0
 41
0
  0
SEQEND
 8
0
  0
POLYLINE
  8
0
 62
     0
 66
     1
 10
0
 20
0
 30
0.0
 70
     1
 40
0
 41
0
  0
VERTEX
  8
0
 10
17.674
 20
15.5968
 30
0.0
 40
0
 41
0
  0
VERTEX
  8
0
 10
17.6671
 20
15.5968
 30
0.0
 40
0
 41
0
  0
VERTEX
  8
0
 10
17.6464
 20
15.6082
 30
0.0
 40
0
 41
0
  0
VERTEX
  8
0
 10
17.6349
 20
15.629
 30
0.0
 40
0
 41
0
  0
VERTEX
  8
0
 10
17.6349
 20
15.6358
 30
0.0
 40
0
 41
0
  0
VERTEX
  8
0
 10
17.6349
 20
15.6428
 30
0.0
 40
0
 41
0
  0
VERTEX
  8
0
 10
17.6464
 20
15.6635
 30
0.0
 40
0
 41
0
  0
VERTEX
  8
0
 10
17.6671
 20
15.6749
 30
0.0
 40
0
 41
0
  0
VERTEX
  8
0
 10
17.674
 20
15.6749
 30
0.0
 40
0
 41
0
  0
VERTEX
  8
0
 10
17.6808
 20
15.6749
 30
0.0
 40
0
 41
0
  0
VERTEX
  8
0
 10
17.7017
 20
15.6635
 30
0.0
 40
0
 41
0
  0
VERTEX
  8
0
 10
17.7131
 20
15.6428
 30
0.0
 40
0
 41
0
  0
VERTEX
  8
0
 10
17.7131
 20
15.6358
 30
0.0
 40
0
 41
0
  0
VERTEX
  8
0
 10
17.7131
 20
15.629
 30
0.0
 40
0
 41
0
  0
VERTEX
  8
0
 10
17.7017
 20
15.6082
 30
0.0
 40
0
 41
0
  0
VERTEX
  8
0
 10
17.6808
 20
15.5968
 30
0.0
 40
0
 41
0
  0
VERTEX
  8
0
 10
17.674
 20
15.5968
 30
0.0
 40
0
 41
0
  0
SEQEND
 8
0
  0
POLYLINE
  8
0
 62
     0
 66
     1
 10
0
 20
0
 30
0.0
 70
     1
 40
0
 41
0
  0
VERTEX
  8
0
 10
13.7874
 20
15.5968
 30
0.0
 40
0
 41
0
  0
VERTEX
  8
0
 10
13.7804
 20
15.5968
 30
0.0
 40
0
 41
0
  0
VERTEX
  8
0
 10
13.7597
 20
15.6082
 30
0.0
 40
0
 41
0
  0
VERTEX
  8
0
 10
13.7483
 20
15.629
 30
0.0
 40
0
 41
0
  0
VERTEX
  8
0
 10
13.7483
 20
15.6358
 30
0.0
 40
0
 41
0
  0
VERTEX
  8
0
 10
13.7483
 20
15.6428
 30
0.0
 40
0
 41
0
  0
VERTEX
  8
0
 10
13.7597
 20
15.6635
 30
0.0
 40
0
 41
0
  0
VERTEX
  8
0
 10
13.7804
 20
15.6749
 30
0.0
 40
0
 41
0
  0
VERTEX
  8
0
 10
13.7874
 20
15.6749
 30
0.0
 40
0
 41
0
  0
VERTEX
  8
0
 10
13.7943
 20
15.6749
 30
0.0
 40
0
 41
0
  0
VERTEX
  8
0
 10
13.815
 20
15.6635
 30
0.0
 40
0
 41
0
  0
VERTEX
  8
0
 10
13.8264
 20
15.6428
 30
0.0
 40
0
 41
0
  0
VERTEX
  8
0
 10
13.8264
 20
15.6358
 30
0.0
 40
0
 41
0
  0
VERTEX
  8
0
 10
13.8264
 20
15.629
 30
0.0
 40
0
 41
0
  0
VERTEX
  8
0
 10
13.815
 20
15.6082
 30
0.0
 40
0
 41
0
  0
VERTEX
  8
0
 10
13.7943
 20
15.5968
 30
0.0
 40
0
 41
0
  0
VERTEX
  8
0
 10
13.7874
 20
15.5968
 30
0.0
 40
0
 41
0
  0
SEQEND
 8
0
  0
POLYLINE
  8
0
 62
     0
 66
     1
 10
0
 20
0
 30
0.0
 70
     1
 40
0
 41
0
  0
VERTEX
  8
0
 10
11.0935
 20
22.0547
 30
0.0
 40
0
 41
0
  0
VERTEX
  8
0
 10
11.0866
 20
22.0547
 30
0.0
 40
0
 41
0
  0
VERTEX
  8
0
 10
11.0659
 20
22.0663
 30
0.0
 40
0
 41
0
  0
VERTEX
  8
0
 10
11.0545
 20
22.0869
 30
0.0
 40
0
 41
0
  0
VERTEX
  8
0
 10
11.0545
 20
22.0939
 30
0.0
 40
0
 41
0
  0
VERTEX
  8
0
 10
11.0545
 20
22.1008
 30
0.0
 40
0
 41
0
  0
VERTEX
  8
0
 10
11.0659
 20
22.1215
 30
0.0
 40
0
 41
0
  0
VERTEX
  8
0
 10
11.0866
 20
22.1329
 30
0.0
 40
0
 41
0
  0
VERTEX
  8
0
 10
11.0935
 20
22.1329
 30
0.0
 40
0
 41
0
  0
VERTEX
  8
0
 10
11.1004
 20
22.1329
 30
0.0
 40
0
 41
0
  0
VERTEX
  8
0
 10
11.1212
 20
22.1215
 30
0.0
 40
0
 41
0
  0
VERTEX
  8
0
 10
11.1326
 20
22.1008
 30
0.0
 40
0
 41
0
  0
VERTEX
  8
0
 10
11.1326
 20
22.0939
 30
0.0
 40
0
 41
0
  0
VERTEX
  8
0
 10
11.1326
 20
22.0869
 30
0.0
 40
0
 41
0
  0
VERTEX
  8
0
 10
11.1212
 20
22.0663
 30
0.0
 40
0
 41
0
  0
VERTEX
  8
0
 10
11.1004
 20
22.0547
 30
0.0
 40
0
 41
0
  0
VERTEX
  8
0
 10
11.0935
 20
22.0547
 30
0.0
 40
0
 41
0
  0
SEQEND
 8
0
  0
POLYLINE
  8
0
 62
     0
 66
     1
 10
0
 20
0
 30
0.0
 70
     1
 40
0
 41
0
  0
VERTEX
  8
0
 10
17.1351
 20
22.0547
 30
0.0
 40
0
 41
0
  0
VERTEX
  8
0
 10
17.1282
 20
22.0547
 30
0.0
 40
0
 41
0
  0
VERTEX
  8
0
 10
17.1076
 20
22.0663
 30
0.0
 40
0
 41
0
  0
VERTEX
  8
0
 10
17.0961
 20
22.0869
 30
0.0
 40
0
 41
0
  0
VERTEX
  8
0
 10
17.0961
 20
22.0939
 30
0.0
 40
0
 41
0
  0
VERTEX
  8
0
 10
17.0961
 20
22.1008
 30
0.0
 40
0
 41
0
  0
VERTEX
  8
0
 10
17.1076
 20
22.1215
 30
0.0
 40
0
 41
0
  0
VERTEX
  8
0
 10
17.1282
 20
22.1329
 30
0.0
 40
0
 41
0
  0
VERTEX
  8
0
 10
17.1351
 20
22.1329
 30
0.0
 40
0
 41
0
  0
VERTEX
  8
0
 10
17.1421
 20
22.1329
 30
0.0
 40
0
 41
0
  0
VERTEX
  8
0
 10
17.1628
 20
22.1215
 30
0.0
 40
0
 41
0
  0
VERTEX
  8
0
 10
17.1743
 20
22.1008
 30
0.0
 40
0
 41
0
  0
VERTEX
  8
0
 10
17.1743
 20
22.0939
 30
0.0
 40
0
 41
0
  0
VERTEX
  8
0
 10
17.1743
 20
22.0869
 30
0.0
 40
0
 41
0
  0
VERTEX
  8
0
 10
17.1628
 20
22.0663
 30
0.0
 40
0
 41
0
  0
VERTEX
  8
0
 10
17.1421
 20
22.0547
 30
0.0
 40
0
 41
0
  0
VERTEX
  8
0
 10
17.1351
 20
22.0547
 30
0.0
 40
0
 41
0
  0
SEQEND
 8
0
  0
POLYLINE
  8
0
 62
     0
 66
     1
 10
0
 20
0
 30
0.0
 70
     1
 40
0
 41
0
  0
VERTEX
  8
0
 10
11.4206
 20
23.8356
 30
0.0
 40
0
 41
0
  0
VERTEX
  8
0
 10
11.4137
 20
23.8356
 30
0.0
 40
0
 41
0
  0
VERTEX
  8
0
 10
11.393
 20
23.8471
 30
0.0
 40
0
 41
0
  0
VERTEX
  8
0
 10
11.3816
 20
23.8678
 30
0.0
 40
0
 41
0
  0
VERTEX
  8
0
 10
11.3816
 20
23.8746
 30
0.0
 40
0
 41
0
  0
VERTEX
  8
0
 10
11.3816
 20
23.8815
 30
0.0
 40
0
 41
0
  0
VERTEX
  8
0
 10
11.393
 20
23.9022
 30
0.0
 40
0
 41
0
  0
VERTEX
  8
0
 10
11.4137
 20
23.9138
 30
0.0
 40
0
 41
0
  0
VERTEX
  8
0
 10
11.4206
 20
23.9138
 30
0.0
 40
0
 41
0
  0
VERTEX
  8
0
 10
11.4275
 20
23.9138
 30
0.0
 40
0
 41
0
  0
VERTEX
  8
0
 10
11.4482
 20
23.9022
 30
0.0
 40
0
 41
0
  0
VERTEX
  8
0
 10
11.4597
 20
23.8815
 30
0.0
 40
0
 41
0
  0
VERTEX
  8
0
 10
11.4597
 20
23.8746
 30
0.0
 40
0
 41
0
  0
VERTEX
  8
0
 10
11.4597
 20
23.8678
 30
0.0
 40
0
 41
0
  0
VERTEX
  8
0
 10
11.4482
 20
23.8471
 30
0.0
 40
0
 41
0
  0
VERTEX
  8
0
 10
11.4275
 20
23.8356
 30
0.0
 40
0
 41
0
  0
VERTEX
  8
0
 10
11.4206
 20
23.8356
 30
0.0
 40
0
 41
0
  0
SEQEND
 8
0
  0
POLYLINE
  8
0
 62
     0
 66
     1
 10
0
 20
0
 30
0.0
 70
     1
 40
0
 41
0
  0
VERTEX
  8
0
 10
11.4206
 20
28.0529
 30
0.0
 40
0
 41
0
  0
VERTEX
  8
0
 10
11.4137
 20
28.0529
 30
0.0
 40
0
 41
0
  0
VERTEX
  8
0
 10
11.393
 20
28.0644
 30
0.0
 40
0
 41
0
  0
VERTEX
  8
0
 10
11.3816
 20
28.0851
 30
0.0
 40
0
 41
0
  0
VERTEX
  8
0
 10
11.3816
 20
28.0921
 30
0.0
 40
0
 41
0
  0
VERTEX
  8
0
 10
11.3816
 20
28.099
 30
0.0
 40
0
 41
0
  0
VERTEX
  8
0
 10
11.393
 20
28.1197
 30
0.0
 40
0
 41
0
  0
VERTEX
  8
0
 10
11.4137
 20
28.1311
 30
0.0
 40
0
 41
0
  0
VERTEX
  8
0
 10
11.4206
 20
28.1311
 30
0.0
 40
0
 41
0
  0
VERTEX
  8
0
 10
11.4275
 20
28.1311
 30
0.0
 40
0
 41
0
  0
VERTEX
  8
0
 10
11.4482
 20
28.1197
 30
0.0
 40
0
 41
0
  0
VERTEX
  8
0
 10
11.4597
 20
28.099
 30
0.0
 40
0
 41
0
  0
VERTEX
  8
0
 10
11.4597
 20
28.0921
 30
0.0
 40
0
 41
0
  0
VERTEX
  8
0
 10
11.4597
 20
28.0851
 30
0.0
 40
0
 41
0
  0
VERTEX
  8
0
 10
11.4482
 20
28.0644
 30
0.0
 40
0
 41
0
  0
VERTEX
  8
0
 10
11.4275
 20
28.0529
 30
0.0
 40
0
 41
0
  0
VERTEX
  8
0
 10
11.4206
 20
28.0529
 30
0.0
 40
0
 41
0
  0
SEQEND
 8
0
  0
POLYLINE
  8
0
 62
     0
 66
     1
 10
0
 20
0
 30
0.0
 70
     1
 40
0
 41
0
  0
VERTEX
  8
0
 10
17.1244
 20
29.8546
 30
0.0
 40
0
 41
0
  0
VERTEX
  8
0
 10
17.1175
 20
29.8546
 30
0.0
 40
0
 41
0
  0
VERTEX
  8
0
 10
17.0968
 20
29.8661
 30
0.0
 40
0
 41
0
  0
VERTEX
  8
0
 10
17.0854
 20
29.8868
 30
0.0
 40
0
 41
0
  0
VERTEX
  8
0
 10
17.0854
 20
29.8936
 30
0.0
 40
0
 41
0
  0
VERTEX
  8
0
 10
17.0854
 20
29.9006
 30
0.0
 40
0
 41
0
  0
VERTEX
  8
0
 10
17.0968
 20
29.9213
 30
0.0
 40
0
 41
0
  0
VERTEX
  8
0
 10
17.1175
 20
29.9328
 30
0.0
 40
0
 41
0
  0
VERTEX
  8
0
 10
17.1244
 20
29.9328
 30
0.0
 40
0
 41
0
  0
VERTEX
  8
0
 10
17.1314
 20
29.9328
 30
0.0
 40
0
 41
0
  0
VERTEX
  8
0
 10
17.1521
 20
29.9213
 30
0.0
 40
0
 41
0
  0
VERTEX
  8
0
 10
17.1635
 20
29.9006
 30
0.0
 40
0
 41
0
  0
VERTEX
  8
0
 10
17.1635
 20
29.8936
 30
0.0
 40
0
 41
0
  0
VERTEX
  8
0
 10
17.1635
 20
29.8868
 30
0.0
 40
0
 41
0
  0
VERTEX
  8
0
 10
17.1521
 20
29.8661
 30
0.0
 40
0
 41
0
  0
VERTEX
  8
0
 10
17.1314
 20
29.8546
 30
0.0
 40
0
 41
0
  0
VERTEX
  8
0
 10
17.1244
 20
29.8546
 30
0.0
 40
0
 41
0
  0
SEQEND
 8
0
  0
POLYLINE
  8
0
 62
     0
 66
     1
 10
0
 20
0
 30
0.0
 70
     1
 40
0
 41
0
  0
VERTEX
  8
0
 10
11.0828
 20
29.8379
 30
0.0
 40
0
 41
0
  0
VERTEX
  8
0
 10
11.0758
 20
29.8379
 30
0.0
 40
0
 41
0
  0
VERTEX
  8
0
 10
11.0552
 20
29.8494
 30
0.0
 40
0
 41
0
  0
VERTEX
  8
0
 10
11.0437
 20
29.8701
 30
0.0
 40
0
 41
0
  0
VERTEX
  8
0
 10
11.0437
 20
29.8769
 30
0.0
 40
0
 41
0
  0
VERTEX
  8
0
 10
11.0437
 20
29.8839
 30
0.0
 40
0
 41
0
  0
VERTEX
  8
0
 10
11.0552
 20
29.9046
 30
0.0
 40
0
 41
0
  0
VERTEX
  8
0
 10
11.0758
 20
29.9161
 30
0.0
 40
0
 41
0
  0
VERTEX
  8
0
 10
11.0828
 20
29.9161
 30
0.0
 40
0
 41
0
  0
VERTEX
  8
0
 10
11.0897
 20
29.9161
 30
0.0
 40
0
 41
0
  0
VERTEX
  8
0
 10
11.1104
 20
29.9046
 30
0.0
 40
0
 41
0
  0
VERTEX
  8
0
 10
11.1218
 20
29.8839
 30
0.0
 40
0
 41
0
  0
VERTEX
  8
0
 10
11.1218
 20
29.8769
 30
0.0
 40
0
 41
0
  0
VERTEX
  8
0
 10
11.1218
 20
29.8701
 30
0.0
 40
0
 41
0
  0
VERTEX
  8
0
 10
11.1104
 20
29.8494
 30
0.0
 40
0
 41
0
  0
VERTEX
  8
0
 10
11.0897
 20
29.8379
 30
0.0
 40
0
 41
0
  0
VERTEX
  8
0
 10
11.0828
 20
29.8379
 30
0.0
 40
0
 41
0
  0
SEQEND
 8
0
  0
POLYLINE
  8
0
 62
     0
 66
     1
 10
0
 20
0
 30
0.0
 70
     1
 40
0
 41
0
  0
VERTEX
  8
0
 10
13.7588
 20
36.3033
 30
0.0
 40
0
 41
0
  0
VERTEX
  8
0
 10
13.7519
 20
36.3033
 30
0.0
 40
0
 41
0
  0
VERTEX
  8
0
 10
13.7312
 20
36.3147
 30
0.0
 40
0
 41
0
  0
VERTEX
  8
0
 10
13.7198
 20
36.3356
 30
0.0
 40
0
 41
0
  0
VERTEX
  8
0
 10
13.7198
 20
36.3424
 30
0.0
 40
0
 41
0
  0
VERTEX
  8
0
 10
13.7198
 20
36.3493
 30
0.0
 40
0
 41
0
  0
VERTEX
  8
0
 10
13.7312
 20
36.37
 30
0.0
 40
0
 41
0
  0
VERTEX
  8
0
 10
13.7519
 20
36.3814
 30
0.0
 40
0
 41
0
  0
VERTEX
  8
0
 10
13.7588
 20
36.3814
 30
0.0
 40
0
 41
0
  0
VERTEX
  8
0
 10
13.7657
 20
36.3814
 30
0.0
 40
0
 41
0
  0
VERTEX
  8
0
 10
13.7864
 20
36.37
 30
0.0
 40
0
 41
0
  0
VERTEX
  8
0
 10
13.7979
 20
36.3493
 30
0.0
 40
0
 41
0
  0
VERTEX
  8
0
 10
13.7979
 20
36.3424
 30
0.0
 40
0
 41
0
  0
VERTEX
  8
0
 10
13.7979
 20
36.3356
 30
0.0
 40
0
 41
0
  0
VERTEX
  8
0
 10
13.7864
 20
36.3147
 30
0.0
 40
0
 41
0
  0
VERTEX
  8
0
 10
13.7657
 20
36.3033
 30
0.0
 40
0
 41
0
  0
VERTEX
  8
0
 10
13.7588
 20
36.3033
 30
0.0
 40
0
 41
0
  0
SEQEND
 8
0
  0
POLYLINE
  8
0
 62
     0
 66
     1
 10
0
 20
0
 30
0.0
 70
     1
 40
0
 41
0
  0
VERTEX
  8
0
 10
17.6454
 20
36.314
 30
0.0
 40
0
 41
0
  0
VERTEX
  8
0
 10
17.6385
 20
36.314
 30
0.0
 40
0
 41
0
  0
VERTEX
  8
0
 10
17.6178
 20
36.3256
 30
0.0
 40
0
 41
0
  0
VERTEX
  8
0
 10
17.6064
 20
36.3462
 30
0.0
 40
0
 41
0
  0
VERTEX
  8
0
 10
17.6064
 20
36.3532
 30
0.0
 40
0
 41
0
  0
VERTEX
  8
0
 10
17.6064
 20
36.3601
 30
0.0
 40
0
 41
0
  0
VERTEX
  8
0
 10
17.6178
 20
36.3807
 30
0.0
 40
0
 41
0
  0
VERTEX
  8
0
 10
17.6385
 20
36.3922
 30
0.0
 40
0
 41
0
  0
VERTEX
  8
0
 10
17.6454
 20
36.3922
 30
0.0
 40
0
 41
0
  0
VERTEX
  8
0
 10
17.6522
 20
36.3922
 30
0.0
 40
0
 41
0
  0
VERTEX
  8
0
 10
17.6731
 20
36.3807
 30
0.0
 40
0
 41
0
  0
VERTEX
  8
0
 10
17.6844
 20
36.3601
 30
0.0
 40
0
 41
0
  0
VERTEX
  8
0
 10
17.6844
 20
36.3532
 30
0.0
 40
0
 41
0
  0
VERTEX
  8
0
 10
17.6844
 20
36.3462
 30
0.0
 40
0
 41
0
  0
VERTEX
  8
0
 10
17.6731
 20
36.3256
 30
0.0
 40
0
 41
0
  0
VERTEX
  8
0
 10
17.6522
 20
36.314
 30
0.0
 40
0
 41
0
  0
VERTEX
  8
0
 10
17.6454
 20
36.314
 30
0.0
 40
0
 41
0
  0
SEQEND
 8
0
  0
POLYLINE
  8
0
 62
     0
 66
     1
 10
0
 20
0
 30
0.0
 70
     1
 40
0
 41
0
  0
VERTEX
  8
0
 10
11.5475
 20
13.0833
 30
0.0
 40
0
 41
0
  0
VERTEX
  8
0
 10
18.675
 20
13.0833
 30
0.0
 40
0
 41
0
  0
VERTEX
  8
0
 10
18.675
 20
0.583333
 30
0.0
 40
0
 41
0
  0
VERTEX
  8
0
 10
9.61253
 20
0.583333
 30
0.0
 40
0
 41
0
  0
VERTEX
  8
0
 10
9.61253
 20
13.7584
 30
0.0
 40
0
 41
0
  0
VERTEX
  8
0
 10
11.2975
 20
13.7584
 30
0.0
 40
0
 41
0
  0
VERTEX
  8
0
 10
11.2975
 20
13.3333
 30
0.0
 40
0
 41
0
  0
VERTEX
  8
0
 10
11.2975
 20
13.3211
 30
0.0
 40
0
 41
0
  0
VERTEX
  8
0
 10
11.3024
 20
13.2843
 30
0.0
 40
0
 41
0
  0
VERTEX
  8
0
 10
11.3165
 20
13.2377
 30
0.0
 40
0
 41
0
  0
VERTEX
  8
0
 10
11.3395
 20
13.1947
 30
0.0
 40
0
 41
0
  0
VERTEX
  8
0
 10
11.362
 20
13.1653
 30
0.0
 40
0
 41
0
  0
VERTEX
  8
0
 10
11.3707
 20
13.1566
 30
0.0
 40
0
 41
0
  0
VERTEX
  8
0
 10
11.3793
 20
13.1479
 30
0.0
 40
0
 41
0
  0
VERTEX
  8
0
 10
11.4087
 20
13.1254
 30
0.0
 40
0
 41
0
  0
VERTEX
  8
0
 10
11.4518
 20
13.1024
 30
0.0
 40
0
 41
0
  0
VERTEX
  8
0
 10
11.4985
 20
13.0882
 30
0.0
 40
0
 41
0
  0
VERTEX
  8
0
 10
11.5353
 20
13.0833
 30
0.0
 40
0
 41
0
  0
VERTEX
  8
0
 10
11.5475
 20
13.0833
 30
0.0
 40
0
 41
0
  0
SEQEND
 8
0
  0
POLYLINE
  8
0
 62
     0
 66
     1
 10
0
 20
0
 30
0.0
 70
     1
 40
0
 41
0
  0
VERTEX
  8
0
 10
13.225
 20
6.97711
 30
0.0
 40
0
 41
0
  0
VERTEX
  8
0
 10
13.2949
 20
6.97711
 30
0.0
 40
0
 41
0
  0
VERTEX
  8
0
 10
13.5049
 20
6.963
 30
0.0
 40
0
 41
0
  0
VERTEX
  8
0
 10
13.7766
 20
6.9215
 30
0.0
 40
0
 41
0
  0
VERTEX
  8
0
 10
14.039
 20
6.85406
 30
0.0
 40
0
 41
0
  0
VERTEX
  8
0
 10
14.2906
 20
6.76199
 30
0.0
 40
0
 41
0
  0
VERTEX
  8
0
 10
14.5299
 20
6.64671
 30
0.0
 40
0
 41
0
  0
VERTEX
  8
0
 10
14.7556
 20
6.5096
 30
0.0
 40
0
 41
0
  0
VERTEX
  8
0
 10
14.9662
 20
6.352
 30
0.0
 40
0
 41
0
  0
VERTEX
  8
0
 10
15.1607
 20
6.17535
 30
0.0
 40
0
 41
0
  0
VERTEX
  8
0
 10
15.3374
 20
5.9809
 30
0.0
 40
0
 41
0
  0
VERTEX
  8
0
 10
15.495
 20
5.77018
 30
0.0
 40
0
 41
0
  0
VERTEX
  8
0
 10
15.6321
 20
5.54449
 30
0.0
 40
0
 41
0
  0
VERTEX
  8
0
 10
15.7474
 20
5.30518
 30
0.0
 40
0
 41
0
  0
VERTEX
  8
0
 10
15.8394
 20
5.05365
 30
0.0
 40
0
 41
0
  0
VERTEX
  8
0
 10
15.9068
 20
4.79129
 30
0.0
 40
0
 41
0
  0
VERTEX
  8
0
 10
15.9483
 20
4.51953
 30
0.0
 40
0
 41
0
  0
VERTEX
  8
0
 10
15.9625
 20
4.30957
 30
0.0
 40
0
 41
0
  0
VERTEX
  8
0
 10
15.9625
 20
4.23958
 30
0.0
 40
0
 41
0
  0
VERTEX
  8
0
 10
15.9625
 20
4.16965
 30
0.0
 40
0
 41
0
  0
VERTEX
  8
0
 10
15.9483
 20
3.95969
 30
0.0
 40
0
 41
0
  0
VERTEX
  8
0
 10
15.9068
 20
3.68793
 30
0.0
 40
0
 41
0
  0
VERTEX
  8
0
 10
15.8394
 20
3.42557
 30
0.0
 40
0
 41
0
  0
VERTEX
  8
0
 10
15.7474
 20
3.17404
 30
0.0
 40
0
 41
0
  0
VERTEX
  8
0
 10
15.6321
 20
2.93474
 30
0.0
 40
0
 41
0
  0
VERTEX
  8
0
 10
15.495
 20
2.70904
 30
0.0
 40
0
 41
0
  0
VERTEX
  8
0
 10
15.3374
 20
2.49832
 30
0.0
 40
0
 41
0
  0
VERTEX
  8
0
 10
15.1607
 20
2.30387
 30
0.0
 40
0
 41
0
  0
VERTEX
  8
0
 10
14.9662
 20
2.12722
 30
0.0
 40
0
 41
0
  0
VERTEX
  8
0
 10
14.7556
 20
1.96963
 30
0.0
 40
0
 41
0
  0
VERTEX
  8
0
 10
14.5299
 20
1.83251
 30
0.0
 40
0
 41
0
  0
VERTEX
  8
0
 10
14.2906
 20
1.71724
 30
0.0
 40
0
 41
0
  0
VERTEX
  8
0
 10
14.039
 20
1.62517
 30
0.0
 40
0
 41
0
  0
VERTEX
  8
0
 10
13.7766
 20
1.55772
 30
0.0
 40
0
 41
0
  0
VERTEX
  8
0
 10
13.5049
 20
1.51622
 30
0.0
 40
0
 41
0
  0
VERTEX
  8
0
 10
13.2949
 20
1.50206
 30
0.0
 40
0
 41
0
  0
VERTEX
  8
0
 10
13.225
 20
1.50206
 30
0.0
 40
0
 41
0
  0
VERTEX
  8
0
 10
13.155
 20
1.50206
 30
0.0
 40
0
 41
0
  0
VERTEX
  8
0
 10
12.9451
 20
1.51622
 30
0.0
 40
0
 41
0
  0
VERTEX
  8
0
 10
12.6733
 20
1.55772
 30
0.0
 40
0
 41
0
  0
VERTEX
  8
0
 10
12.4109
 20
1.62517
 30
0.0
 40
0
 41
0
  0
VERTEX
  8
0
 10
12.1594
 20
1.71724
 30
0.0
 40
0
 41
0
  0
VERTEX
  8
0
 10
11.9201
 20
1.83251
 30
0.0
 40
0
 41
0
  0
VERTEX
  8
0
 10
11.6944
 20
1.96963
 30
0.0
 40
0
 41
0
  0
VERTEX
  8
0
 10
11.4837
 20
2.12722
 30
0.0
 40
0
 41
0
  0
VERTEX
  8
0
 10
11.2893
 20
2.30387
 30
0.0
 40
0
 41
0
  0
VERTEX
  8
0
 10
11.1126
 20
2.49832
 30
0.0
 40
0
 41
0
  0
VERTEX
  8
0
 10
10.955
 20
2.70904
 30
0.0
 40
0
 41
0
  0
VERTEX
  8
0
 10
10.8179
 20
2.93474
 30
0.0
 40
0
 41
0
  0
VERTEX
  8
0
 10
10.7026
 20
3.17404
 30
0.0
 40
0
 41
0
  0
VERTEX
  8
0
 10
10.6106
 20
3.42557
 30
0.0
 40
0
 41
0
  0
VERTEX
  8
0
 10
10.5431
 20
3.68793
 30
0.0
 40
0
 41
0
  0
VERTEX
  8
0
 10
10.5016
 20
3.95969
 30
0.0
 40
0
 41
0
  0
VERTEX
  8
0
 10
10.4875
 20
4.16965
 30
0.0
 40
0
 41
0
  0
VERTEX
  8
0
 10
10.4875
 20
4.23958
 30
0.0
 40
0
 41
0
  0
VERTEX
  8
0
 10
10.4875
 20
4.30957
 30
0.0
 40
0
 41
0
  0
VERTEX
  8
0
 10
10.5016
 20
4.51953
 30
0.0
 40
0
 41
0
  0
VERTEX
  8
0
 10
10.5431
 20
4.79129
 30
0.0
 40
0
 41
0
  0
VERTEX
  8
0
 10
10.6106
 20
5.05365
 30
0.0
 40
0
 41
0
  0
VERTEX
  8
0
 10
10.7026
 20
5.30518
 30
0.0
 40
0
 41
0
  0
VERTEX
  8
0
 10
10.8179
 20
5.54449
 30
0.0
 40
0
 41
0
  0
VERTEX
  8
0
 10
10.955
 20
5.77018
 30
0.0
 40
0
 41
0
  0
VERTEX
  8
0
 10
11.1126
 20
5.9809
 30
0.0
 40
0
 41
0
  0
VERTEX
  8
0
 10
11.2893
 20
6.17535
 30
0.0
 40
0
 41
0
  0
VERTEX
  8
0
 10
11.4837
 20
6.352
 30
0.0
 40
0
 41
0
  0
VERTEX
  8
0
 10
11.6944
 20
6.5096
 30
0.0
 40
0
 41
0
  0
VERTEX
  8
0
 10
11.9201
 20
6.64671
 30
0.0
 40
0
 41
0
  0
VERTEX
  8
0
 10
12.1594
 20
6.76199
 30
0.0
 40
0
 41
0
  0
VERTEX
  8
0
 10
12.4109
 20
6.85406
 30
0.0
 40
0
 41
0
  0
VERTEX
  8
0
 10
12.6733
 20
6.9215
 30
0.0
 40
0
 41
0
  0
VERTEX
  8
0
 10
12.9451
 20
6.963
 30
0.0
 40
0
 41
0
  0
VERTEX
  8
0
 10
13.155
 20
6.97711
 30
0.0
 40
0
 41
0
  0
VERTEX
  8
0
 10
13.225
 20
6.97711
 30
0.0
 40
0
 41
0
  0
SEQEND
 8
0
  0
POLYLINE
  8
0
 62
     0
 66
     1
 10
0
 20
0
 30
0.0
 70
     1
 40
0
 41
0
  0
VERTEX
  8
0
 10
14.0675
 20
11.7396
 30
0.0
 40
0
 41
0
  0
VERTEX
  8
0
 10
14.1058
 20
11.7396
 30
0.0
 40
0
 41
0
  0
VERTEX
  8
0
 10
14.2208
 20
11.7319
 30
0.0
 40
0
 41
0
  0
VERTEX
  8
0
 10
14.3699
 20
11.7092
 30
0.0
 40
0
 41
0
  0
VERTEX
  8
0
 10
14.5135
 20
11.6722
 30
0.0
 40
0
 41
0
  0
VERTEX
  8
0
 10
14.6514
 20
11.6217
 30
0.0
 40
0
 41
0
  0
VERTEX
  8
0
 10
14.7825
 20
11.5586
 30
0.0
 40
0
 41
0
  0
VERTEX
  8
0
 10
14.9061
 20
11.4835
 30
0.0
 40
0
 41
0
  0
VERTEX
  8
0
 10
15.0215
 20
11.3971
 30
0.0
 40
0
 41
0
  0
VERTEX
  8
0
 10
15.1282
 20
11.3003
 30
0.0
 40
0
 41
0
  0
VERTEX
  8
0
 10
15.225
 20
11.1937
 30
0.0
 40
0
 41
0
  0
VERTEX
  8
0
 10
15.3113
 20
11.0783
 30
0.0
 40
0
 41
0
  0
VERTEX
  8
0
 10
15.3864
 20
10.9546
 30
0.0
 40
0
 41
0
  0
VERTEX
  8
0
 10
15.4496
 20
10.8235
 30
0.0
 40
0
 41
0
  0
VERTEX
  8
0
 10
15.5
 20
10.6857
 30
0.0
 40
0
 41
0
  0
VERTEX
  8
0
 10
15.5369
 20
10.5419
 30
0.0
 40
0
 41
0
  0
VERTEX
  8
0
 10
15.5597
 20
10.393
 30
0.0
 40
0
 41
0
  0
VERTEX
  8
0
 10
15.5675
 20
10.2779
 30
0.0
 40
0
 41
0
  0
VERTEX
  8
0
 10
15.5675
 20
10.2396
 30
0.0
 40
0
 41
0
  0
VERTEX
  8
0
 10
15.5675
 20
10.2013
 30
0.0
 40
0
 41
0
  0
VERTEX
  8
0
 10
15.5597
 20
10.0863
 30
0.0
 40
0
 41
0
  0
VERTEX
  8
0
 10
15.5369
 20
9.93728
 30
0.0
 40
0
 41
0
  0
VERTEX
  8
0
 10
15.5
 20
9.79357
 30
0.0
 40
0
 41
0
  0
VERTEX
  8
0
 10
15.4496
 20
9.65571
 30
0.0
 40
0
 41
0
  0
VERTEX
  8
0
 10
15.3864
 20
9.52463
 30
0.0
 40
0
 41
0
  0
VERTEX
  8
0
 10
15.3113
 20
9.40093
 30
0.0
 40
0
 41
0
  0
VERTEX
  8
0
 10
15.225
 20
9.28549
 30
0.0
 40
0
 41
0
  0
VERTEX
  8
0
 10
15.1282
 20
9.17893
 30
0.0
 40
0
 41
0
  0
VERTEX
  8
0
 10
15.0215
 20
9.08214
 30
0.0
 40
0
 41
0
  0
VERTEX
  8
0
 10
14.9061
 20
8.99576
 30
0.0
 40
0
 41
0
  0
VERTEX
  8
0
 10
14.7825
 20
8.92062
 30
0.0
 40
0
 41
0
  0
VERTEX
  8
0
 10
14.6514
 20
8.85747
 30
0.0
 40
0
 41
0
  0
VERTEX
  8
0
 10
14.5135
 20
8.80701
 30
0.0
 40
0
 41
0
  0
VERTEX
  8
0
 10
14.3699
 20
8.77007
 30
0.0
 40
0
 41
0
  0
VERTEX
  8
0
 10
14.2208
 20
8.74735
 30
0.0
 40
0
 41
0
  0
VERTEX
  8
0
 10
14.1058
 20
8.73958
 30
0.0
 40
0
 41
0
  0
VERTEX
  8
0
 10
14.0675
 20
8.73958
 30
0.0
 40
0
 41
0
  0
VERTEX
  8
0
 10
14.0292
 20
8.73958
 30
0.0
 40
0
 41
0
  0
VERTEX
  8
0
 10
13.9142
 20
8.74735
 30
0.0
 40
0
 41
0
  0
VERTEX
  8
0
 10
13.7652
 20
8.77007
 30
0.0
 40
0
 41
0
  0
VERTEX
  8
0
 10
13.6214
 20
8.80701
 30
0.0
 40
0
 41
0
  0
VERTEX
  8
0
 10
13.4836
 20
8.85747
 30
0.0
 40
0
 41
0
  0
VERTEX
  8
0
 10
13.3525
 20
8.92062
 30
0.0
 40
0
 41
0
  0
VERTEX
  8
0
 10
13.2288
 20
8.99576
 30
0.0
 40
0
 41
0
  0
VERTEX
  8
0
 10
13.1133
 20
9.08214
 30
0.0
 40
0
 41
0
  0
VERTEX
  8
0
 10
13.0068
 20
9.17893
 30
0.0
 40
0
 41
0
  0
VERTEX
  8
0
 10
12.91
 20
9.28549
 30
0.0
 40
0
 41
0
  0
VERTEX
  8
0
 10
12.8236
 20
9.40093
 30
0.0
 40
0
 41
0
  0
VERTEX
  8
0
 10
12.7485
 20
9.52463
 30
0.0
 40
0
 41
0
  0
VERTEX
  8
0
 10
12.6853
 20
9.65571
 30
0.0
 40
0
 41
0
  0
VERTEX
  8
0
 10
12.6349
 20
9.79357
 30
0.0
 40
0
 41
0
  0
VERTEX
  8
0
 10
12.5979
 20
9.93728
 30
0.0
 40
0
 41
0
  0
VERTEX
  8
0
 10
12.5752
 20
10.0863
 30
0.0
 40
0
 41
0
  0
VERTEX
  8
0
 10
12.5675
 20
10.2013
 30
0.0
 40
0
 41
0
  0
VERTEX
  8
0
 10
12.5675
 20
10.2396
 30
0.0
 40
0
 41
0
  0
VERTEX
  8
0
 10
12.5675
 20
10.2779
 30
0.0
 40
0
 41
0
  0
VERTEX
  8
0
 10
12.5752
 20
10.393
 30
0.0
 40
0
 41
0
  0
VERTEX
  8
0
 10
12.5979
 20
10.5419
 30
0.0
 40
0
 41
0
  0
VERTEX
  8
0
 10
12.6349
 20
10.6857
 30
0.0
 40
0
 41
0
  0
VERTEX
  8
0
 10
12.6853
 20
10.8235
 30
0.0
 40
0
 41
0
  0
VERTEX
  8
0
 10
12.7485
 20
10.9546
 30
0.0
 40
0
 41
0
  0
VERTEX
  8
0
 10
12.8236
 20
11.0783
 30
0.0
 40
0
 41
0
  0
VERTEX
  8
0
 10
12.91
 20
11.1937
 30
0.0
 40
0
 41
0
  0
VERTEX
  8
0
 10
13.0068
 20
11.3003
 30
0.0
 40
0
 41
0
  0
VERTEX
  8
0
 10
13.1133
 20
11.3971
 30
0.0
 40
0
 41
0
  0
VERTEX
  8
0
 10
13.2288
 20
11.4835
 30
0.0
 40
0
 41
0
  0
VERTEX
  8
0
 10
13.3525
 20
11.5586
 30
0.0
 40
0
 41
0
  0
VERTEX
  8
0
 10
13.4836
 20
11.6217
 30
0.0
 40
0
 41
0
  0
VERTEX
  8
0
 10
13.6214
 20
11.6722
 30
0.0
 40
0
 41
0
  0
VERTEX
  8
0
 10
13.7652
 20
11.7092
 30
0.0
 40
0
 41
0
  0
VERTEX
  8
0
 10
13.9142
 20
11.7319
 30
0.0
 40
0
 41
0
  0
VERTEX
  8
0
 10
14.0292
 20
11.7396
 30
0.0
 40
0
 41
0
  0
VERTEX
  8
0
 10
14.0675
 20
11.7396
 30
0.0
 40
0
 41
0
  0
SEQEND
 8
0
  0
POLYLINE
  8
0
 62
     0
 66
     1
 10
0
 20
0
 30
0.0
 70
     1
 40
0
 41
0
  0
VERTEX
  8
0
 10
14.9746
 20
12.7058
 30
0.0
 40
0
 41
0
  0
VERTEX
  8
0
 10
14.984
 20
12.7058
 30
0.0
 40
0
 41
0
  0
VERTEX
  8
0
 10
15.0122
 20
12.6982
 30
0.0
 40
0
 41
0
  0
VERTEX
  8
0
 10
15.0429
 20
12.6775
 30
0.0
 40
0
 41
0
  0
VERTEX
  8
0
 10
15.0637
 20
12.6467
 30
0.0
 40
0
 41
0
  0
VERTEX
  8
0
 10
15.0714
 20
12.6184
 30
0.0
 40
0
 41
0
  0
VERTEX
  8
0
 10
15.0714
 20
12.609
 30
0.0
 40
0
 41
0
  0
VERTEX
  8
0
 10
15.0714
 20
12.5996
 30
0.0
 40
0
 41
0
  0
VERTEX
  8
0
 10
15.0637
 20
12.5714
 30
0.0
 40
0
 41
0
  0
VERTEX
  8
0
 10
15.0429
 20
12.5406
 30
0.0
 40
0
 41
0
  0
VERTEX
  8
0
 10
15.0122
 20
12.5199
 30
0.0
 40
0
 41
0
  0
VERTEX
  8
0
 10
14.984
 20
12.5123
 30
0.0
 40
0
 41
0
  0
VERTEX
  8
0
 10
14.9746
 20
12.5123
 30
0.0
 40
0
 41
0
  0
VERTEX
  8
0
 10
14.9651
 20
12.5123
 30
0.0
 40
0
 41
0
  0
VERTEX
  8
0
 10
14.9369
 20
12.5199
 30
0.0
 40
0
 41
0
  0
VERTEX
  8
0
 10
14.9061
 20
12.5406
 30
0.0
 40
0
 41
0
  0
VERTEX
  8
0
 10
14.8854
 20
12.5714
 30
0.0
 40
0
 41
0
  0
VERTEX
  8
0
 10
14.8778
 20
12.5996
 30
0.0
 40
0
 41
0
  0
VERTEX
  8
0
 10
14.8778
 20
12.609
 30
0.0
 40
0
 41
0
  0
VERTEX
  8
0
 10
14.8778
 20
12.6184
 30
0.0
 40
0
 41
0
  0
VERTEX
  8
0
 10
14.8854
 20
12.6467
 30
0.0
 40
0
 41
0
  0
VERTEX
  8
0
 10
14.9061
 20
12.6775
 30
0.0
 40
0
 41
0
  0
VERTEX
  8
0
 10
14.9369
 20
12.6982
 30
0.0
 40
0
 41
0
  0
VERTEX
  8
0
 10
14.9651
 20
12.7058
 30
0.0
 40
0
 41
0
  0
VERTEX
  8
0
 10
14.9746
 20
12.7058
 30
0.0
 40
0
 41
0
  0
SEQEND
 8
0
  0
POLYLINE
  8
0
 62
     0
 66
     1
 10
0
 20
0
 30
0.0
 70
     1
 40
0
 41
0
  0
VERTEX
  8
0
 10
12.8496
 20
12.7058
 30
0.0
 40
0
 41
0
  0
VERTEX
  8
0
 10
12.859
 20
12.7058
 30
0.0
 40
0
 41
0
  0
VERTEX
  8
0
 10
12.8872
 20
12.6982
 30
0.0
 40
0
 41
0
  0
VERTEX
  8
0
 10
12.918
 20
12.6775
 30
0.0
 40
0
 41
0
  0
VERTEX
  8
0
 10
12.9387
 20
12.6467
 30
0.0
 40
0
 41
0
  0
VERTEX
  8
0
 10
12.9463
 20
12.6184
 30
0.0
 40
0
 41
0
  0
VERTEX
  8
0
 10
12.9463
 20
12.609
 30
0.0
 40
0
 41
0
  0
VERTEX
  8
0
 10
12.9463
 20
12.5996
 30
0.0
 40
0
 41
0
  0
VERTEX
  8
0
 10
12.9387
 20
12.5714
 30
0.0
 40
0
 41
0
  0
VERTEX
  8
0
 10
12.918
 20
12.5406
 30
0.0
 40
0
 41
0
  0
VERTEX
  8
0
 10
12.8872
 20
12.5199
 30
0.0
 40
0
 41
0
  0
VERTEX
  8
0
 10
12.859
 20
12.5123
 30
0.0
 40
0
 41
0
  0
VERTEX
  8
0
 10
12.8496
 20
12.5123
 30
0.0
 40
0
 41
0
  0
VERTEX
  8
0
 10
12.8402
 20
12.5123
 30
0.0
 40
0
 41
0
  0
VERTEX
  8
0
 10
12.8119
 20
12.5199
 30
0.0
 40
0
 41
0
  0
VERTEX
  8
0
 10
12.7811
 20
12.5406
 30
0.0
 40
0
 41
0
  0
VERTEX
  8
0
 10
12.7604
 20
12.5714
 30
0.0
 40
0
 41
0
  0
VERTEX
  8
0
 10
12.7528
 20
12.5996
 30
0.0
 40
0
 41
0
  0
VERTEX
  8
0
 10
12.7528
 20
12.609
 30
0.0
 40
0
 41
0
  0
VERTEX
  8
0
 10
12.7528
 20
12.6184
 30
0.0
 40
0
 41
0
  0
VERTEX
  8
0
 10
12.7604
 20
12.6467
 30
0.0
 40
0
 41
0
  0
VERTEX
  8
0
 10
12.7811
 20
12.6775
 30
0.0
 40
0
 41
0
  0
VERTEX
  8
0
 10
12.8119
 20
12.6982
 30
0.0
 40
0
 41
0
  0
VERTEX
  8
0
 10
12.8402
 20
12.7058
 30
0.0
 40
0
 41
0
  0
VERTEX
  8
0
 10
12.8496
 20
12.7058
 30
0.0
 40
0
 41
0
  0
SEQEND
 8
0
  0
POLYLINE
  8
0
 62
     0
 66
     1
 10
0
 20
0
 30
0.0
 70
     1
 40
0
 41
0
  0
VERTEX
  8
0
 10
18.4875
 20
11.8556
 30
0.0
 40
0
 41
0
  0
VERTEX
  8
0
 10
18.4957
 20
11.8556
 30
0.0
 40
0
 41
0
  0
VERTEX
  8
0
 10
18.5204
 20
11.849
 30
0.0
 40
0
 41
0
  0
VERTEX
  8
0
 10
18.5474
 20
11.8308
 30
0.0
 40
0
 41
0
  0
VERTEX
  8
0
 10
18.5656
 20
11.8039
 30
0.0
 40
0
 41
0
  0
VERTEX
  8
0
 10
18.5722
 20
11.7791
 30
0.0
 40
0
 41
0
  0
VERTEX
  8
0
 10
18.5722
 20
11.7708
 30
0.0
 40
0
 41
0
  0
VERTEX
  8
0
 10
18.5722
 20
11.7626
 30
0.0
 40
0
 41
0
  0
VERTEX
  8
0
 10
18.5656
 20
11.7378
 30
0.0
 40
0
 41
0
  0
VERTEX
  8
0
 10
18.5474
 20
11.7109
 30
0.0
 40
0
 41
0
  0
VERTEX
  8
0
 10
18.5204
 20
11.6928
 30
0.0
 40
0
 41
0
  0
VERTEX
  8
0
 10
18.4957
 20
11.6861
 30
0.0
 40
0
 41
0
  0
VERTEX
  8
0
 10
18.4875
 20
11.6861
 30
0.0
 40
0
 41
0
  0
VERTEX
  8
0
 10
18.4792
 20
11.6861
 30
0.0
 40
0
 41
0
  0
VERTEX
  8
0
 10
18.4544
 20
11.6928
 30
0.0
 40
0
 41
0
  0
VERTEX
  8
0
 10
18.4275
 20
11.7109
 30
0.0
 40
0
 41
0
  0
VERTEX
  8
0
 10
18.4093
 20
11.7378
 30
0.0
 40
0
 41
0
  0
VERTEX
  8
0
 10
18.4028
 20
11.7626
 30
0.0
 40
0
 41
0
  0
VERTEX
  8
0
 10
18.4028
 20
11.7708
 30
0.0
 40
0
 41
0
  0
VERTEX
  8
0
 10
18.4028
 20
11.7791
 30
0.0
 40
0
 41
0
  0
VERTEX
  8
0
 10
18.4093
 20
11.8039
 30
0.0
 40
0
 41
0
  0
VERTEX
  8
0
 10
18.4275
 20
11.8308
 30
0.0
 40
0
 41
0
  0
VERTEX
  8
0
 10
18.4544
 20
11.849
 30
0.0
 40
0
 41
0
  0
VERTEX
  8
0
 10
18.4792
 20
11.8556
 30
0.0
 40
0
 41
0
  0
VERTEX
  8
0
 10
18.4875
 20
11.8556
 30
0.0
 40
0
 41
0
  0
SEQEND
 8
0
  0
POLYLINE
  8
0
 62
     0
 66
     1
 10
0
 20
0
 30
0.0
 70
     1
 40
0
 41
0
  0
VERTEX
  8
0
 10
17.9875
 20
11.8556
 30
0.0
 40
0
 41
0
  0
VERTEX
  8
0
 10
17.9957
 20
11.8556
 30
0.0
 40
0
 41
0
  0
VERTEX
  8
0
 10
18.0204
 20
11.849
 30
0.0
 40
0
 41
0
  0
VERTEX
  8
0
 10
18.0474
 20
11.8308
 30
0.0
 40
0
 41
0
  0
VERTEX
  8
0
 10
18.0656
 20
11.8039
 30
0.0
 40
0
 41
0
  0
VERTEX
  8
0
 10
18.0722
 20
11.7791
 30
0.0
 40
0
 41
0
  0
VERTEX
  8
0
 10
18.0722
 20
11.7708
 30
0.0
 40
0
 41
0
  0
VERTEX
  8
0
 10
18.0722
 20
11.7626
 30
0.0
 40
0
 41
0
  0
VERTEX
  8
0
 10
18.0656
 20
11.7378
 30
0.0
 40
0
 41
0
  0
VERTEX
  8
0
 10
18.0474
 20
11.7109
 30
0.0
 40
0
 41
0
  0
VERTEX
  8
0
 10
18.0204
 20
11.6928
 30
0.0
 40
0
 41
0
  0
VERTEX
  8
0
 10
17.9957
 20
11.6861
 30
0.0
 40
0
 41
0
  0
VERTEX
  8
0
 10
17.9875
 20
11.6861
 30
0.0
 40
0
 41
0
  0
VERTEX
  8
0
 10
17.9792
 20
11.6861
 30
0.0
 40
0
 41
0
  0
VERTEX
  8
0
 10
17.9544
 20
11.6928
 30
0.0
 40
0
 41
0
  0
VERTEX
  8
0
 10
17.9275
 20
11.7109
 30
0.0
 40
0
 41
0
  0
VERTEX
  8
0
 10
17.9093
 20
11.7378
 30
0.0
 40
0
 41
0
  0
VERTEX
  8
0
 10
17.9028
 20
11.7626
 30
0.0
 40
0
 41
0
  0
VERTEX
  8
0
 10
17.9028
 20
11.7708
 30
0.0
 40
0
 41
0
  0
VERTEX
  8
0
 10
17.9028
 20
11.7791
 30
0.0
 40
0
 41
0
  0
VERTEX
  8
0
 10
17.9093
 20
11.8039
 30
0.0
 40
0
 41
0
  0
VERTEX
  8
0
 10
17.9275
 20
11.8308
 30
0.0
 40
0
 41
0
  0
VERTEX
  8
0
 10
17.9544
 20
11.849
 30
0.0
 40
0
 41
0
  0
VERTEX
  8
0
 10
17.9792
 20
11.8556
 30
0.0
 40
0
 41
0
  0
VERTEX
  8
0
 10
17.9875
 20
11.8556
 30
0.0
 40
0
 41
0
  0
SEQEND
 8
0
  0
POLYLINE
  8
0
 62
     0
 66
     1
 10
0
 20
0
 30
0.0
 70
     1
 40
0
 41
0
  0
VERTEX
  8
0
 10
18.4875
 20
2.35558
 30
0.0
 40
0
 41
0
  0
VERTEX
  8
0
 10
18.4957
 20
2.35558
 30
0.0
 40
0
 41
0
  0
VERTEX
  8
0
 10
18.5204
 20
2.34896
 30
0.0
 40
0
 41
0
  0
VERTEX
  8
0
 10
18.5474
 20
2.33078
 30
0.0
 40
0
 41
0
  0
VERTEX
  8
0
 10
18.5656
 20
2.30387
 30
0.0
 40
0
 41
0
  0
VERTEX
  8
0
 10
18.5722
 20
2.27914
 30
0.0
 40
0
 41
0
  0
VERTEX
  8
0
 10
18.5722
 20
2.27083
 30
0.0
 40
0
 41
0
  0
VERTEX
  8
0
 10
18.5722
 20
2.26258
 30
0.0
 40
0
 41
0
  0
VERTEX
  8
0
 10
18.5656
 20
2.23785
 30
0.0
 40
0
 41
0
  0
VERTEX
  8
0
 10
18.5474
 20
2.21094
 30
0.0
 40
0
 41
0
  0
VERTEX
  8
0
 10
18.5204
 20
2.19276
 30
0.0
 40
0
 41
0
  0
VERTEX
  8
0
 10
18.4957
 20
2.18608
 30
0.0
 40
0
 41
0
  0
VERTEX
  8
0
 10
18.4875
 20
2.18608
 30
0.0
 40
0
 41
0
  0
VERTEX
  8
0
 10
18.4792
 20
2.18608
 30
0.0
 40
0
 41
0
  0
VERTEX
  8
0
 10
18.4544
 20
2.19276
 30
0.0
 40
0
 41
0
  0
VERTEX
  8
0
 10
18.4275
 20
2.21094
 30
0.0
 40
0
 41
0
  0
VERTEX
  8
0
 10
18.4093
 20
2.23785
 30
0.0
 40
0
 41
0
  0
VERTEX
  8
0
 10
18.4028
 20
2.26258
 30
0.0
 40
0
 41
0
  0
VERTEX
  8
0
 10
18.4028
 20
2.27083
 30
0.0
 40
0
 41
0
  0
VERTEX
  8
0
 10
18.4028
 20
2.27914
 30
0.0
 40
0
 41
0
  0
VERTEX
  8
0
 10
18.4093
 20
2.30387
 30
0.0
 40
0
 41
0
  0
VERTEX
  8
0
 10
18.4275
 20
2.33078
 30
0.0
 40
0
 41
0
  0
VERTEX
  8
0
 10
18.4544
 20
2.34896
 30
0.0
 40
0
 41
0
  0
VERTEX
  8
0
 10
18.4792
 20
2.35558
 30
0.0
 40
0
 41
0
  0
VERTEX
  8
0
 10
18.4875
 20
2.35558
 30
0.0
 40
0
 41
0
  0
SEQEND
 8
0
  0
POLYLINE
  8
0
 62
     0
 66
     1
 10
0
 20
0
 30
0.0
 70
     1
 40
0
 41
0
  0
VERTEX
  8
0
 10
17.9875
 20
2.35558
 30
0.0
 40
0
 41
0
  0
VERTEX
  8
0
 10
17.9957
 20
2.35558
 30
0.0
 40
0
 41
0
  0
VERTEX
  8
0
 10
18.0204
 20
2.34896
 30
0.0
 40
0
 41
0
  0
VERTEX
  8
0
 10
18.0474
 20
2.33078
 30
0.0
 40
0
 41
0
  0
VERTEX
  8
0
 10
18.0656
 20
2.30387
 30
0.0
 40
0
 41
0
  0
VERTEX
  8
0
 10
18.0722
 20
2.27914
 30
0.0
 40
0
 41
0
  0
VERTEX
  8
0
 10
18.0722
 20
2.27083
 30
0.0
 40
0
 41
0
  0
VERTEX
  8
0
 10
18.0722
 20
2.26258
 30
0.0
 40
0
 41
0
  0
VERTEX
  8
0
 10
18.0656
 20
2.23785
 30
0.0
 40
0
 41
0
  0
VERTEX
  8
0
 10
18.0474
 20
2.21094
 30
0.0
 40
0
 41
0
  0
VERTEX
  8
0
 10
18.0204
 20
2.19276
 30
0.0
 40
0
 41
0
  0
VERTEX
  8
0
 10
17.9957
 20
2.18608
 30
0.0
 40
0
 41
0
  0
VERTEX
  8
0
 10
17.9875
 20
2.18608
 30
0.0
 40
0
 41
0
  0
VERTEX
  8
0
 10
17.9792
 20
2.18608
 30
0.0
 40
0
 41
0
  0
VERTEX
  8
0
 10
17.9544
 20
2.19276
 30
0.0
 40
0
 41
0
  0
VERTEX
  8
0
 10
17.9275
 20
2.21094
 30
0.0
 40
0
 41
0
  0
VERTEX
  8
0
 10
17.9093
 20
2.23785
 30
0.0
 40
0
 41
0
  0
VERTEX
  8
0
 10
17.9028
 20
2.26258
 30
0.0
 40
0
 41
0
  0
VERTEX
  8
0
 10
17.9028
 20
2.27083
 30
0.0
 40
0
 41
0
  0
VERTEX
  8
0
 10
17.9028
 20
2.27914
 30
0.0
 40
0
 41
0
  0
VERTEX
  8
0
 10
17.9093
 20
2.30387
 30
0.0
 40
0
 41
0
  0
VERTEX
  8
0
 10
17.9275
 20
2.33078
 30
0.0
 40
0
 41
0
  0
VERTEX
  8
0
 10
17.9544
 20
2.34896
 30
0.0
 40
0
 41
0
  0
VERTEX
  8
0
 10
17.9792
 20
2.35558
 30
0.0
 40
0
 41
0
  0
VERTEX
  8
0
 10
17.9875
 20
2.35558
 30
0.0
 40
0
 41
0
  0
SEQEND
 8
0
  0
POLYLINE
  8
0
 62
     0
 66
     1
 10
0
 20
0
 30
0.0
 70
     1
 40
0
 41
0
  0
VERTEX
  8
0
 10
10.58
 20
10.6801
 30
0.0
 40
0
 41
0
  0
VERTEX
  8
0
 10
10.5894
 20
10.6801
 30
0.0
 40
0
 41
0
  0
VERTEX
  8
0
 10
10.6176
 20
10.6725
 30
0.0
 40
0
 41
0
  0
VERTEX
  8
0
 10
10.6484
 20
10.6518
 30
0.0
 40
0
 41
0
  0
VERTEX
  8
0
 10
10.6691
 20
10.621
 30
0.0
 40
0
 41
0
  0
VERTEX
  8
0
 10
10.6768
 20
10.5928
 30
0.0
 40
0
 41
0
  0
VERTEX
  8
0
 10
10.6768
 20
10.5833
 30
0.0
 40
0
 41
0
  0
VERTEX
  8
0
 10
10.6768
 20
10.5739
 30
0.0
 40
0
 41
0
  0
VERTEX
  8
0
 10
10.6691
 20
10.5457
 30
0.0
 40
0
 41
0
  0
VERTEX
  8
0
 10
10.6484
 20
10.515
 30
0.0
 40
0
 41
0
  0
VERTEX
  8
0
 10
10.6176
 20
10.4943
 30
0.0
 40
0
 41
0
  0
VERTEX
  8
0
 10
10.5894
 20
10.4866
 30
0.0
 40
0
 41
0
  0
VERTEX
  8
0
 10
10.58
 20
10.4866
 30
0.0
 40
0
 41
0
  0
VERTEX
  8
0
 10
10.5706
 20
10.4866
 30
0.0
 40
0
 41
0
  0
VERTEX
  8
0
 10
10.5423
 20
10.4943
 30
0.0
 40
0
 41
0
  0
VERTEX
  8
0
 10
10.5116
 20
10.515
 30
0.0
 40
0
 41
0
  0
VERTEX
  8
0
 10
10.4908
 20
10.5457
 30
0.0
 40
0
 41
0
  0
VERTEX
  8
0
 10
10.4832
 20
10.5739
 30
0.0
 40
0
 41
0
  0
VERTEX
  8
0
 10
10.4832
 20
10.5833
 30
0.0
 40
0
 41
0
  0
VERTEX
  8
0
 10
10.4832
 20
10.5928
 30
0.0
 40
0
 41
0
  0
VERTEX
  8
0
 10
10.4908
 20
10.621
 30
0.0
 40
0
 41
0
  0
VERTEX
  8
0
 10
10.5116
 20
10.6518
 30
0.0
 40
0
 41
0
  0
VERTEX
  8
0
 10
10.5423
 20
10.6725
 30
0.0
 40
0
 41
0
  0
VERTEX
  8
0
 10
10.5706
 20
10.6801
 30
0.0
 40
0
 41
0
  0
VERTEX
  8
0
 10
10.58
 20
10.6801
 30
0.0
 40
0
 41
0
  0
SEQEND
 8
0
  0
POLYLINE
  8
0
 62
     0
 66
     1
 10
0
 20
0
 30
0.0
 70
     1
 40
0
 41
0
  0
VERTEX
  8
0
 10
10.58
 20
12.7695
 30
0.0
 40
0
 41
0
  0
VERTEX
  8
0
 10
10.5894
 20
12.7695
 30
0.0
 40
0
 41
0
  0
VERTEX
  8
0
 10
10.6176
 20
12.7619
 30
0.0
 40
0
 41
0
  0
VERTEX
  8
0
 10
10.6484
 20
12.7412
 30
0.0
 40
0
 41
0
  0
VERTEX
  8
0
 10
10.6691
 20
12.7105
 30
0.0
 40
0
 41
0
  0
VERTEX
  8
0
 10
10.6768
 20
12.6822
 30
0.0
 40
0
 41
0
  0
VERTEX
  8
0
 10
10.6768
 20
12.6728
 30
0.0
 40
0
 41
0
  0
VERTEX
  8
0
 10
10.6768
 20
12.6634
 30
0.0
 40
0
 41
0
  0
VERTEX
  8
0
 10
10.6691
 20
12.6351
 30
0.0
 40
0
 41
0
  0
VERTEX
  8
0
 10
10.6484
 20
12.6044
 30
0.0
 40
0
 41
0
  0
VERTEX
  8
0
 10
10.6176
 20
12.5837
 30
0.0
 40
0
 41
0
  0
VERTEX
  8
0
 10
10.5894
 20
12.5761
 30
0.0
 40
0
 41
0
  0
VERTEX
  8
0
 10
10.58
 20
12.5761
 30
0.0
 40
0
 41
0
  0
VERTEX
  8
0
 10
10.5706
 20
12.5761
 30
0.0
 40
0
 41
0
  0
VERTEX
  8
0
 10
10.5423
 20
12.5837
 30
0.0
 40
0
 41
0
  0
VERTEX
  8
0
 10
10.5116
 20
12.6044
 30
0.0
 40
0
 41
0
  0
VERTEX
  8
0
 10
10.4908
 20
12.6351
 30
0.0
 40
0
 41
0
  0
VERTEX
  8
0
 10
10.4832
 20
12.6634
 30
0.0
 40
0
 41
0
  0
VERTEX
  8
0
 10
10.4832
 20
12.6728
 30
0.0
 40
0
 41
0
  0
VERTEX
  8
0
 10
10.4832
 20
12.6822
 30
0.0
 40
0
 41
0
  0
VERTEX
  8
0
 10
10.4908
 20
12.7105
 30
0.0
 40
0
 41
0
  0
VERTEX
  8
0
 10
10.5116
 20
12.7412
 30
0.0
 40
0
 41
0
  0
VERTEX
  8
0
 10
10.5423
 20
12.7619
 30
0.0
 40
0
 41
0
  0
VERTEX
  8
0
 10
10.5706
 20
12.7695
 30
0.0
 40
0
 41
0
  0
VERTEX
  8
0
 10
10.58
 20
12.7695
 30
0.0
 40
0
 41
0
  0
SEQEND
 8
0
  0
POLYLINE
  8
0
 62
     0
 66
     1
 10
0
 20
0
 30
0.0
 70
     1
 40
0
 41
0
  0
VERTEX
  8
0
 10
16.8375
 20
3.08333
 30
0.0
 40
0
 41
0
  0
VERTEX
  8
0
 10
16.8436
 20
3.08333
 30
0.0
 40
0
 41
0
  0
VERTEX
  8
0
 10
16.8618
 20
3.07844
 30
0.0
 40
0
 41
0
  0
VERTEX
  8
0
 10
16.8817
 20
3.06506
 30
0.0
 40
0
 41
0
  0
VERTEX
  8
0
 10
16.8951
 20
3.04519
 30
0.0
 40
0
 41
0
  0
VERTEX
  8
0
 10
16.9
 20
3.02696
 30
0.0
 40
0
 41
0
  0
VERTEX
  8
0
 10
16.9
 20
3.02083
 30
0.0
 40
0
 41
0
  0
VERTEX
  8
0
 10
16.9
 20
3.01476
 30
0.0
 40
0
 41
0
  0
VERTEX
  8
0
 10
16.8951
 20
2.99653
 30
0.0
 40
0
 41
0
  0
VERTEX
  8
0
 10
16.8817
 20
2.97667
 30
0.0
 40
0
 41
0
  0
VERTEX
  8
0
 10
16.8618
 20
2.96326
 30
0.0
 40
0
 41
0
  0
VERTEX
  8
0
 10
16.8436
 20
2.95833
 30
0.0
 40
0
 41
0
  0
VERTEX
  8
0
 10
16.8375
 20
2.95833
 30
0.0
 40
0
 41
0
  0
VERTEX
  8
0
 10
16.8314
 20
2.95833
 30
0.0
 40
0
 41
0
  0
VERTEX
  8
0
 10
16.8132
 20
2.96326
 30
0.0
 40
0
 41
0
  0
VERTEX
  8
0
 10
16.7933
 20
2.97667
 30
0.0
 40
0
 41
0
  0
VERTEX
  8
0
 10
16.7799
 20
2.99653
 30
0.0
 40
0
 41
0
  0
VERTEX
  8
0
 10
16.775
 20
3.01476
 30
0.0
 40
0
 41
0
  0
VERTEX
  8
0
 10
16.775
 20
3.02083
 30
0.0
 40
0
 41
0
  0
VERTEX
  8
0
 10
16.775
 20
3.02696
 30
0.0
 40
0
 41
0
  0
VERTEX
  8
0
 10
16.7799
 20
3.04519
 30
0.0
 40
0
 41
0
  0
VERTEX
  8
0
 10
16.7933
 20
3.06506
 30
0.0
 40
0
 41
0
  0
VERTEX
  8
0
 10
16.8132
 20
3.07844
 30
0.0
 40
0
 41
0
  0
VERTEX
  8
0
 10
16.8314
 20
3.08333
 30
0.0
 40
0
 41
0
  0
VERTEX
  8
0
 10
16.8375
 20
3.08333
 30
0.0
 40
0
 41
0
  0
SEQEND
 8
0
  0
POLYLINE
  8
0
 62
     0
 66
     1
 10
0
 20
0
 30
0.0
 70
     1
 40
0
 41
0
  0
VERTEX
  8
0
 10
16.8375
 20
7.39583
 30
0.0
 40
0
 41
0
  0
VERTEX
  8
0
 10
16.8436
 20
7.39583
 30
0.0
 40
0
 41
0
  0
VERTEX
  8
0
 10
16.8618
 20
7.39094
 30
0.0
 40
0
 41
0
  0
VERTEX
  8
0
 10
16.8817
 20
7.37756
 30
0.0
 40
0
 41
0
  0
VERTEX
  8
0
 10
16.8951
 20
7.35769
 30
0.0
 40
0
 41
0
  0
VERTEX
  8
0
 10
16.9
 20
7.33946
 30
0.0
 40
0
 41
0
  0
VERTEX
  8
0
 10
16.9
 20
7.33333
 30
0.0
 40
0
 41
0
  0
VERTEX
  8
0
 10
16.9
 20
7.32726
 30
0.0
 40
0
 41
0
  0
VERTEX
  8
0
 10
16.8951
 20
7.30903
 30
0.0
 40
0
 41
0
  0
VERTEX
  8
0
 10
16.8817
 20
7.28917
 30
0.0
 40
0
 41
0
  0
VERTEX
  8
0
 10
16.8618
 20
7.27576
 30
0.0
 40
0
 41
0
  0
VERTEX
  8
0
 10
16.8436
 20
7.27083
 30
0.0
 40
0
 41
0
  0
VERTEX
  8
0
 10
16.8375
 20
7.27083
 30
0.0
 40
0
 41
0
  0
VERTEX
  8
0
 10
16.8314
 20
7.27083
 30
0.0
 40
0
 41
0
  0
VERTEX
  8
0
 10
16.8132
 20
7.27576
 30
0.0
 40
0
 41
0
  0
VERTEX
  8
0
 10
16.7933
 20
7.28917
 30
0.0
 40
0
 41
0
  0
VERTEX
  8
0
 10
16.7799
 20
7.30903
 30
0.0
 40
0
 41
0
  0
VERTEX
  8
0
 10
16.775
 20
7.32726
 30
0.0
 40
0
 41
0
  0
VERTEX
  8
0
 10
16.775
 20
7.33333
 30
0.0
 40
0
 41
0
  0
VERTEX
  8
0
 10
16.775
 20
7.33946
 30
0.0
 40
0
 41
0
  0
VERTEX
  8
0
 10
16.7799
 20
7.35769
 30
0.0
 40
0
 41
0
  0
VERTEX
  8
0
 10
16.7933
 20
7.37756
 30
0.0
 40
0
 41
0
  0
VERTEX
  8
0
 10
16.8132
 20
7.39094
 30
0.0
 40
0
 41
0
  0
VERTEX
  8
0
 10
16.8314
 20
7.39583
 30
0.0
 40
0
 41
0
  0
VERTEX
  8
0
 10
16.8375
 20
7.39583
 30
0.0
 40
0
 41
0
  0
SEQEND
 8
0
  0
POLYLINE
  8
0
 62
     0
 66
     1
 10
0
 20
0
 30
0.0
 70
     1
 40
0
 41
0
  0
VERTEX
  8
0
 10
16.8375
 20
11.7083
 30
0.0
 40
0
 41
0
  0
VERTEX
  8
0
 10
16.8436
 20
11.7083
 30
0.0
 40
0
 41
0
  0
VERTEX
  8
0
 10
16.8618
 20
11.7034
 30
0.0
 40
0
 41
0
  0
VERTEX
  8
0
 10
16.8817
 20
11.6901
 30
0.0
 40
0
 41
0
  0
VERTEX
  8
0
 10
16.8951
 20
11.6702
 30
0.0
 40
0
 41
0
  0
VERTEX
  8
0
 10
16.9
 20
11.652
 30
0.0
 40
0
 41
0
  0
VERTEX
  8
0
 10
16.9
 20
11.6458
 30
0.0
 40
0
 41
0
  0
VERTEX
  8
0
 10
16.9
 20
11.6398
 30
0.0
 40
0
 41
0
  0
VERTEX
  8
0
 10
16.8951
 20
11.6215
 30
0.0
 40
0
 41
0
  0
VERTEX
  8
0
 10
16.8817
 20
11.6017
 30
0.0
 40
0
 41
0
  0
VERTEX
  8
0
 10
16.8618
 20
11.5883
 30
0.0
 40
0
 41
0
  0
VERTEX
  8
0
 10
16.8436
 20
11.5833
 30
0.0
 40
0
 41
0
  0
VERTEX
  8
0
 10
16.8375
 20
11.5833
 30
0.0
 40
0
 41
0
  0
VERTEX
  8
0
 10
16.8314
 20
11.5833
 30
0.0
 40
0
 41
0
  0
VERTEX
  8
0
 10
16.8132
 20
11.5883
 30
0.0
 40
0
 41
0
  0
VERTEX
  8
0
 10
16.7933
 20
11.6017
 30
0.0
 40
0
 41
0
  0
VERTEX
  8
0
 10
16.7799
 20
11.6215
 30
0.0
 40
0
 41
0
  0
VERTEX
  8
0
 10
16.775
 20
11.6398
 30
0.0
 40
0
 41
0
  0
VERTEX
  8
0
 10
16.775
 20
11.6458
 30
0.0
 40
0
 41
0
  0
VERTEX
  8
0
 10
16.775
 20
11.652
 30
0.0
 40
0
 41
0
  0
VERTEX
  8
0
 10
16.7799
 20
11.6702
 30
0.0
 40
0
 41
0
  0
VERTEX
  8
0
 10
16.7933
 20
11.6901
 30
0.0
 40
0
 41
0
  0
VERTEX
  8
0
 10
16.8132
 20
11.7034
 30
0.0
 40
0
 41
0
  0
VERTEX
  8
0
 10
16.8314
 20
11.7083
 30
0.0
 40
0
 41
0
  0
VERTEX
  8
0
 10
16.8375
 20
11.7083
 30
0.0
 40
0
 41
0
  0
SEQEND
 8
0
  0
POLYLINE
  8
0
 62
     0
 66
     1
 10
0
 20
0
 30
0.0
 70
     1
 40
0
 41
0
  0
VERTEX
  8
0
 10
17.9875
 20
1.23058
 30
0.0
 40
0
 41
0
  0
VERTEX
  8
0
 10
17.9957
 20
1.23058
 30
0.0
 40
0
 41
0
  0
VERTEX
  8
0
 10
18.0204
 20
1.22396
 30
0.0
 40
0
 41
0
  0
VERTEX
  8
0
 10
18.0474
 20
1.20578
 30
0.0
 40
0
 41
0
  0
VERTEX
  8
0
 10
18.0656
 20
1.17887
 30
0.0
 40
0
 41
0
  0
VERTEX
  8
0
 10
18.0722
 20
1.15413
 30
0.0
 40
0
 41
0
  0
VERTEX
  8
0
 10
18.0722
 20
1.14583
 30
0.0
 40
0
 41
0
  0
VERTEX
  8
0
 10
18.0722
 20
1.13759
 30
0.0
 40
0
 41
0
  0
VERTEX
  8
0
 10
18.0656
 20
1.11285
 30
0.0
 40
0
 41
0
  0
VERTEX
  8
0
 10
18.0474
 20
1.08594
 30
0.0
 40
0
 41
0
  0
VERTEX
  8
0
 10
18.0204
 20
1.06776
 30
0.0
 40
0
 41
0
  0
VERTEX
  8
0
 10
17.9957
 20
1.06109
 30
0.0
 40
0
 41
0
  0
VERTEX
  8
0
 10
17.9875
 20
1.06109
 30
0.0
 40
0
 41
0
  0
VERTEX
  8
0
 10
17.9792
 20
1.06109
 30
0.0
 40
0
 41
0
  0
VERTEX
  8
0
 10
17.9544
 20
1.06776
 30
0.0
 40
0
 41
0
  0
VERTEX
  8
0
 10
17.9275
 20
1.08594
 30
0.0
 40
0
 41
0
  0
VERTEX
  8
0
 10
17.9093
 20
1.11285
 30
0.0
 40
0
 41
0
  0
VERTEX
  8
0
 10
17.9028
 20
1.13759
 30
0.0
 40
0
 41
0
  0
VERTEX
  8
0
 10
17.9028
 20
1.14583
 30
0.0
 40
0
 41
0
  0
VERTEX
  8
0
 10
17.9028
 20
1.15413
 30
0.0
 40
0
 41
0
  0
VERTEX
  8
0
 10
17.9093
 20
1.17887
 30
0.0
 40
0
 41
0
  0
VERTEX
  8
0
 10
17.9275
 20
1.20578
 30
0.0
 40
0
 41
0
  0
VERTEX
  8
0
 10
17.9544
 20
1.22396
 30
0.0
 40
0
 41
0
  0
VERTEX
  8
0
 10
17.9792
 20
1.23058
 30
0.0
 40
0
 41
0
  0
VERTEX
  8
0
 10
17.9875
 20
1.23058
 30
0.0
 40
0
 41
0
  0
SEQEND
 8
0
  0
POLYLINE
  8
0
 62
     0
 66
     1
 10
0
 20
0
 30
0.0
 70
     1
 40
0
 41
0
  0
VERTEX
  8
0
 10
18.4875
 20
1.23058
 30
0.0
 40
0
 41
0
  0
VERTEX
  8
0
 10
18.4957
 20
1.23058
 30
0.0
 40
0
 41
0
  0
VERTEX
  8
0
 10
18.5204
 20
1.22396
 30
0.0
 40
0
 41
0
  0
VERTEX
  8
0
 10
18.5474
 20
1.20578
 30
0.0
 40
0
 41
0
  0
VERTEX
  8
0
 10
18.5656
 20
1.17887
 30
0.0
 40
0
 41
0
  0
VERTEX
  8
0
 10
18.5722
 20
1.15413
 30
0.0
 40
0
 41
0
  0
VERTEX
  8
0
 10
18.5722
 20
1.14583
 30
0.0
 40
0
 41
0
  0
VERTEX
  8
0
 10
18.5722
 20
1.13759
 30
0.0
 40
0
 41
0
  0
VERTEX
  8
0
 10
18.5656
 20
1.11285
 30
0.0
 40
0
 41
0
  0
VERTEX
  8
0
 10
18.5474
 20
1.08594
 30
0.0
 40
0
 41
0
  0
VERTEX
  8
0
 10
18.5204
 20
1.06776
 30
0.0
 40
0
 41
0
  0
VERTEX
  8
0
 10
18.4957
 20
1.06109
 30
0.0
 40
0
 41
0
  0
VERTEX
  8
0
 10
18.4875
 20
1.06109
 30
0.0
 40
0
 41
0
  0
VERTEX
  8
0
 10
18.4792
 20
1.06109
 30
0.0
 40
0
 41
0
  0
VERTEX
  8
0
 10
18.4544
 20
1.06776
 30
0.0
 40
0
 41
0
  0
VERTEX
  8
0
 10
18.4275
 20
1.08594
 30
0.0
 40
0
 41
0
  0
VERTEX
  8
0
 10
18.4093
 20
1.11285
 30
0.0
 40
0
 41
0
  0
VERTEX
  8
0
 10
18.4028
 20
1.13759
 30
0.0
 40
0
 41
0
  0
VERTEX
  8
0
 10
18.4028
 20
1.14583
 30
0.0
 40
0
 41
0
  0
VERTEX
  8
0
 10
18.4028
 20
1.15413
 30
0.0
 40
0
 41
0
  0
VERTEX
  8
0
 10
18.4093
 20
1.17887
 30
0.0
 40
0
 41
0
  0
VERTEX
  8
0
 10
18.4275
 20
1.20578
 30
0.0
 40
0
 41
0
  0
VERTEX
  8
0
 10
18.4544
 20
1.22396
 30
0.0
 40
0
 41
0
  0
VERTEX
  8
0
 10
18.4792
 20
1.23058
 30
0.0
 40
0
 41
0
  0
VERTEX
  8
0
 10
18.4875
 20
1.23058
 30
0.0
 40
0
 41
0
  0
SEQEND
 8
0
  0
POLYLINE
  8
0
 62
     0
 66
     1
 10
0
 20
0
 30
0.0
 70
     1
 40
0
 41
0
  0
VERTEX
  8
0
 10
17.9875
 20
12.7306
 30
0.0
 40
0
 41
0
  0
VERTEX
  8
0
 10
17.9957
 20
12.7306
 30
0.0
 40
0
 41
0
  0
VERTEX
  8
0
 10
18.0204
 20
12.724
 30
0.0
 40
0
 41
0
  0
VERTEX
  8
0
 10
18.0474
 20
12.7058
 30
0.0
 40
0
 41
0
  0
VERTEX
  8
0
 10
18.0656
 20
12.6789
 30
0.0
 40
0
 41
0
  0
VERTEX
  8
0
 10
18.0722
 20
12.6541
 30
0.0
 40
0
 41
0
  0
VERTEX
  8
0
 10
18.0722
 20
12.6458
 30
0.0
 40
0
 41
0
  0
VERTEX
  8
0
 10
18.0722
 20
12.6376
 30
0.0
 40
0
 41
0
  0
VERTEX
  8
0
 10
18.0656
 20
12.6128
 30
0.0
 40
0
 41
0
  0
VERTEX
  8
0
 10
18.0474
 20
12.5859
 30
0.0
 40
0
 41
0
  0
VERTEX
  8
0
 10
18.0204
 20
12.5678
 30
0.0
 40
0
 41
0
  0
VERTEX
  8
0
 10
17.9957
 20
12.5611
 30
0.0
 40
0
 41
0
  0
VERTEX
  8
0
 10
17.9875
 20
12.5611
 30
0.0
 40
0
 41
0
  0
VERTEX
  8
0
 10
17.9792
 20
12.5611
 30
0.0
 40
0
 41
0
  0
VERTEX
  8
0
 10
17.9544
 20
12.5678
 30
0.0
 40
0
 41
0
  0
VERTEX
  8
0
 10
17.9275
 20
12.5859
 30
0.0
 40
0
 41
0
  0
VERTEX
  8
0
 10
17.9093
 20
12.6128
 30
0.0
 40
0
 41
0
  0
VERTEX
  8
0
 10
17.9028
 20
12.6376
 30
0.0
 40
0
 41
0
  0
VERTEX
  8
0
 10
17.9028
 20
12.6458
 30
0.0
 40
0
 41
0
  0
VERTEX
  8
0
 10
17.9028
 20
12.6541
 30
0.0
 40
0
 41
0
  0
VERTEX
  8
0
 10
17.9093
 20
12.6789
 30
0.0
 40
0
 41
0
  0
VERTEX
  8
0
 10
17.9275
 20
12.7058
 30
0.0
 40
0
 41
0
  0
VERTEX
  8
0
 10
17.9544
 20
12.724
 30
0.0
 40
0
 41
0
  0
VERTEX
  8
0
 10
17.9792
 20
12.7306
 30
0.0
 40
0
 41
0
  0
VERTEX
  8
0
 10
17.9875
 20
12.7306
 30
0.0
 40
0
 41
0
  0
SEQEND
 8
0
  0
POLYLINE
  8
0
 62
     0
 66
     1
 10
0
 20
0
 30
0.0
 70
     1
 40
0
 41
0
  0
VERTEX
  8
0
 10
18.4875
 20
12.7306
 30
0.0
 40
0
 41
0
  0
VERTEX
  8
0
 10
18.4957
 20
12.7306
 30
0.0
 40
0
 41
0
  0
VERTEX
  8
0
 10
18.5204
 20
12.724
 30
0.0
 40
0
 41
0
  0
VERTEX
  8
0
 10
18.5474
 20
12.7058
 30
0.0
 40
0
 41
0
  0
VERTEX
  8
0
 10
18.5656
 20
12.6789
 30
0.0
 40
0
 41
0
  0
VERTEX
  8
0
 10
18.5722
 20
12.6541
 30
0.0
 40
0
 41
0
  0
VERTEX
  8
0
 10
18.5722
 20
12.6458
 30
0.0
 40
0
 41
0
  0
VERTEX
  8
0
 10
18.5722
 20
12.6376
 30
0.0
 40
0
 41
0
  0
VERTEX
  8
0
 10
18.5656
 20
12.6128
 30
0.0
 40
0
 41
0
  0
VERTEX
  8
0
 10
18.5474
 20
12.5859
 30
0.0
 40
0
 41
0
  0
VERTEX
  8
0
 10
18.5204
 20
12.5678
 30
0.0
 40
0
 41
0
  0
VERTEX
  8
0
 10
18.4957
 20
12.5611
 30
0.0
 40
0
 41
0
  0
VERTEX
  8
0
 10
18.4875
 20
12.5611
 30
0.0
 40
0
 41
0
  0
VERTEX
  8
0
 10
18.4792
 20
12.5611
 30
0.0
 40
0
 41
0
  0
VERTEX
  8
0
 10
18.4544
 20
12.5678
 30
0.0
 40
0
 41
0
  0
VERTEX
  8
0
 10
18.4275
 20
12.5859
 30
0.0
 40
0
 41
0
  0
VERTEX
  8
0
 10
18.4093
 20
12.6128
 30
0.0
 40
0
 41
0
  0
VERTEX
  8
0
 10
18.4028
 20
12.6376
 30
0.0
 40
0
 41
0
  0
VERTEX
  8
0
 10
18.4028
 20
12.6458
 30
0.0
 40
0
 41
0
  0
VERTEX
  8
0
 10
18.4028
 20
12.6541
 30
0.0
 40
0
 41
0
  0
VERTEX
  8
0
 10
18.4093
 20
12.6789
 30
0.0
 40
0
 41
0
  0
VERTEX
  8
0
 10
18.4275
 20
12.7058
 30
0.0
 40
0
 41
0
  0
VERTEX
  8
0
 10
18.4544
 20
12.724
 30
0.0
 40
0
 41
0
  0
VERTEX
  8
0
 10
18.4792
 20
12.7306
 30
0.0
 40
0
 41
0
  0
VERTEX
  8
0
 10
18.4875
 20
12.7306
 30
0.0
 40
0
 41
0
  0
SEQEND
 8
0
  0
ENDSEC
  0
EOF
