0
SECTION
2
HEADER
9
$INSUNITS
70
1
9
$ACADVER
1
AC1014
9
$HANDSEED
5
FFFF
0
ENDSEC
0
SECTION
2
TABLES
0
TABLE
2
VPORT
5
8
100
AcDbSymbolTable
0
ENDTAB
0
TABLE
2
LTYPE
5
5
100
AcDbSymbolTable
0
LTYPE
5
14
100
AcDbSymbolTableRecord
100
AcDbLinetypeTableRecord
2
BYBLOCK
70
0
0
LTYPE
5
15
100
AcDbSymbolTableRecord
100
AcDbLinetypeTableRecord
2
BYLAYER
70
0
0
ENDTAB
0
TABLE
2
LAYER
5
2
100
AcDbSymbolTable
70
2
0
LAYER
5
50
100
AcDbSymbolTableRecord
100
AcDbLayerTableRecord
2
0
70
0
6
CONTINUOUS
0
ENDTAB
0
TABLE
2
STYLE
5
3
100
AcDbSymbolTable
70
1
0
STYLE
5
11
100
AcDbSymbolTableRecord
100
AcDbTextStyleTableRecord
2
STANDARD
70
0
0
ENDTAB
0
TABLE
2
VIEW
5
6
100
AcDbSymbolTable
70
0
0
ENDTAB
0
TABLE
2
UCS
5
7
100
AcDbSymbolTable
70
0
0
ENDTAB
0
TABLE
2
APPID
5
9
100
AcDbSymbolTable
70
2
0
APPID
5
12
100
AcDbSymbolTableRecord
100
AcDbRegAppTableRecord
2
ACAD
70
0
0
ENDTAB
0
TABLE
2
DIMSTYLE
5
A
100
AcDbSymbolTable
70
1
0
ENDTAB
0
TABLE
2
BLOCK_RECORD
5
1
100
AcDbSymbolTable
70
1
0
BLOCK_RECORD
5
1F
100
AcDbSymbolTableRecord
100
AcDbBlockTableRecord
2
*MODEL_SPACE
0
BLOCK_RECORD
5
1B
100
AcDbSymbolTableRecord
100
AcDbBlockTableRecord
2
*PAPER_SPACE
0
ENDTAB
0
ENDSEC
0
SECTION
2
BLOCKS
0
BLOCK
5
20
100
AcDbEntity
100
AcDbBlockBegin
2
*MODEL_SPACE
0
ENDBLK
5
21
100
AcDbEntity
100
AcDbBlockEnd
0
BLOCK
5
1C
100
AcDbEntity
100
AcDbBlockBegin
2
*PAPER_SPACE
0
ENDBLK
5
1D
100
AcDbEntity
100
AcDbBlockEnd
0
ENDSEC
0
SECTION
2
ENTITIES
0
LWPOLYLINE
5
100
100
AcDbEntity
8
0
100
AcDbPolyline
90
4
70
1
43
0.0
10
19.531249999999133
20
-5.2250000000028027
10
19.531249999999154
20
-14.249999999999414
10
-5.0687500000005041
20
-14.249999999999414
10
-5.0687500000005095
20
-5.2250000000028027
0
LWPOLYLINE
5
101
100
AcDbEntity
8
0
100
AcDbPolyline
90
8
70
1
43
0.0
10
-1.9997500000004047
20
-8.6250000000000036
10
2.0002499999996228
20
-8.6250000000000036
42
0.41421356237310408
10
2.2502499999996237
20
-8.3749999999999929
10
2.2502499999996233
20
-7.6249999999999574
42
0.41421356237310036
10
2.0002499999996184
20
-7.3749999999995959
10
-1.9997500000003898
20
-7.3749999999999565
42
0.41421356237309626
10
-2.2497500000003852
20
-7.6249999999999574
10
-2.2497500000003834
20
-8.3749999999999929
42
0.41421356237306967
0
LWPOLYLINE
5
102
100
AcDbEntity
8
0
100
AcDbPolyline
90
8
70
1
43
0.0
10
12.212249999999123
20
-7.6250000000000275
10
12.212249999999129
20
-8.3749999999992237
42
0.41421356237300822
10
12.462249999999088
20
-8.6250000000000036
10
16.462249999999109
20
-8.6249999999992237
42
0.41421356237313761
10
16.712249999999155
20
-8.3749999999992237
10
16.712249999999155
20
-7.6249999999997824
42
0.414213562372864
10
16.462249999999109
20
-7.3749999999995959
10
12.462249999999127
20
-7.3750000000000266
42
0.41421356237308521
0
LWPOLYLINE
5
103
100
AcDbEntity
8
0
100
AcDbPolyline
90
8
70
1
43
0.0
10
5.3562499999993438
20
-12.749999999999376
10
9.1062499999993349
20
-12.749999999999376
42
0.41421356237310325
10
9.3562499999993562
20
-12.50000000000003
10
9.3562499999993509
20
-7.6250000000000275
42
0.41421356237308521
10
9.1062499999993598
20
-7.3749999999997353
10
5.3562499999993394
20
-7.3750000000000266
42
0.41421356237300488
10
5.1062499999993349
20
-7.6249999999999574
10
5.1062499999993278
20
-12.50000000000003
42
0.41421356237311302
0
CIRCLE
5
104
100
AcDbEntity
8
0
100
AcDbCircle
10
4.3365000000007221
20
-5.7500000000032081
30
-3.0276876609510786e-13
40
0.11718999999999992
210
-1.9428902930940224e-15
220
-3.944304526105059e-31
230
-1
0
CIRCLE
5
105
100
AcDbEntity
8
0
100
AcDbCircle
10
-18.656249999999126
20
-5.7500000000032081
30
-3.0787418218499785e-13
40
0.11718999999999938
210
-1.9428902930940224e-15
220
-3.944304526105059e-31
230
-1
0
CIRCLE
5
106
100
AcDbEntity
8
0
100
AcDbCircle
10
1.499999999988892
20
-5.7500000000032081
30
-3.0339859561698036e-13
40
0.11718999999999992
210
-1.9428902930940224e-15
220
-3.944304526105059e-31
230
-1
0
CIRCLE
5
107
100
AcDbEntity
8
0
100
AcDbCircle
10
-1.5000000000111073
20
-5.7500000000032081
30
-3.0406472943175541e-13
40
0.11718999999999992
210
-1.9428902930940224e-15
220
-3.944304526105059e-31
230
-1
0
CIRCLE
5
108
100
AcDbEntity
8
0
100
AcDbCircle
10
-5.4312499999991219
20
-5.750000000002859
30
-2.7871190154568665e-13
40
0.11719000000000047
210
-1.9428902930940224e-15
220
-3.944304526105059e-31
230
-1
0
CIRCLE
5
109
100
AcDbEntity
8
0
100
AcDbCircle
10
-7.1812499999991184
20
-5.750000000002859
30
-2.6161665244485416e-13
40
0.11719000000000047
210
-1.9428902930940224e-15
220
-3.944304526105059e-31
230
-1
0
CIRCLE
5
110
100
AcDbEntity
8
0
100
AcDbCircle
10
-8.9312499999991317
20
-5.750000000002859
30
-2.6200523050347297e-13
40
0.11719000000000047
210
-1.9428902930940224e-15
220
-3.944304526105059e-31
230
-1
0
CIRCLE
5
111
100
AcDbEntity
8
0
100
AcDbCircle
10
-12.862499999997802
20
-5.7500000000032081
30
-3.0658771125521314e-13
40
0.11718999999999938
210
-1.9428902930940224e-15
220
-3.944304526105059e-31
230
-1
0
CIRCLE
5
112
100
AcDbEntity
8
0
100
AcDbCircle
10
-15.862499999997812
20
-5.7500000000032081
30
-3.0725384506998823e-13
40
0.11718999999999938
210
-1.9428902930940224e-15
220
-3.944304526105059e-31
230
-1
0
CIRCLE
5
113
100
AcDbEntity
8
0
100
AcDbCircle
10
-15.737249999998689
20
-12.23000000000016
30
-3.1197333015268518e-13
40
0.053250000000000339
210
-1.9428902930940224e-15
220
-3.944304526105059e-31
230
-1
0
CIRCLE
5
114
100
AcDbEntity
8
0
100
AcDbCircle
10
-12.987249999998703
20
-12.23000000000016
30
-3.1136270748914139e-13
40
0.053250000000000339
210
-1.9428902930940224e-15
220
-3.944304526105059e-31
230
-1
0
CIRCLE
5
115
100
AcDbEntity
8
0
100
AcDbCircle
10
-12.987249999998706
20
-9.179999999999918
30
-1.3891726155227858e-13
40
0.053250000000000339
210
-1.9428902930940224e-15
220
-3.944304526105059e-31
230
-1
0
CIRCLE
5
116
100
AcDbEntity
8
0
100
AcDbCircle
10
-15.737249999998692
20
-9.179999999999918
30
-1.3952788421582241e-13
40
0.053250000000000339
210
-1.9428902930940224e-15
220
-3.944304526105059e-31
230
-1
0
CIRCLE
5
117
100
AcDbEntity
8
0
100
AcDbCircle
10
4.4812426978112887
20
-12.812379681821572
30
-2.8247050343742844e-13
40
0.084749999999999742
210
-1.9428902930940224e-15
220
-3.944304526105059e-31
230
-1
0
CIRCLE
5
118
100
AcDbEntity
8
0
100
AcDbCircle
10
-18.843749999999158
20
-12.812500000000123
30
-2.3519846121006189e-13
40
0.084749999999999187
210
-1.9428902930940224e-15
220
-3.944304526105059e-31
230
-1
0
CIRCLE
5
119
100
AcDbEntity
8
0
100
AcDbCircle
10
-0.24549015748036426
20
-9.4330708661419855
30
-2.1529205430662666e-13
40
0.053249999999999881
210
-1.9428902930940224e-15
220
-3.944304526105059e-31
230
-1
0
CIRCLE
5
120
100
AcDbEntity
8
0
100
AcDbCircle
10
-2.5289547244094495
20
-9.4330708661419855
30
-2.1579908529425075e-13
40
0.053249999999999791
210
-1.9428902930940224e-15
220
-3.944304526105059e-31
230
-1
0
CIRCLE
5
121
100
AcDbEntity
8
0
100
AcDbCircle
10
-2.5289547244094299
20
-11.362204724409683
30
-2.8975021048274228e-13
40
0.053249999999999791
210
-1.9428902930940224e-15
220
-3.944304526105059e-31
230
-1
0
CIRCLE
5
122
100
AcDbEntity
8
0
100
AcDbCircle
10
-0.24549015748034894
20
-11.362204724409683
30
-2.8924317949511821e-13
40
0.053249999999999881
210
-1.9428902930940224e-15
220
-3.944304526105059e-31
230
-1
0
CIRCLE
5
123
100
AcDbEntity
8
0
100
AcDbCircle
10
-17.528749999999139
20
-12.362500000001388
30
-3.3887268483426829e-13
40
0.062499999999999709
210
-1.9428902930940224e-15
220
-3.944304526105059e-31
230
-1
0
CIRCLE
5
124
100
AcDbEntity
8
0
100
AcDbCircle
10
-11.070749999998752
20
-12.362500000001388
30
-3.3743872077566237e-13
40
0.062499999999999709
210
-1.9428902930940224e-15
220
-3.944304526105059e-31
230
-1
0
CIRCLE
5
125
100
AcDbEntity
8
0
100
AcDbCircle
10
-17.528749999999174
20
-9.3625000000014929
30
-6.1628359349257157e-14
40
0.062499999999999709
210
-1.9428902930940224e-15
220
-3.944304526105059e-31
230
-1
0
CIRCLE
5
126
100
AcDbEntity
8
0
100
AcDbCircle
10
-11.070749999998778
20
-9.3625000000014929
30
-6.0194395290651198e-14
40
0.062499999999999709
210
-1.9428902930940224e-15
220
-3.944304526105059e-31
230
-1
0
CIRCLE
5
127
100
AcDbEntity
8
0
100
AcDbCircle
10
-17.528749999999146
20
-6.3625000000014902
30
-3.0889884864778423e-13
40
0.062499999999999709
210
-1.9428902930940224e-15
220
-3.944304526105059e-31
230
-1
0
CIRCLE
5
128
100
AcDbEntity
8
0
100
AcDbCircle
10
-11.070749999998789
20
-6.3625000000014902
30
-3.0746488458917831e-13
40
0.062499999999999709
210
-1.9428902930940224e-15
220
-3.944304526105059e-31
230
-1
0
CIRCLE
5
129
100
AcDbEntity
8
0
100
AcDbCircle
10
-17.731249999999349
20
-13.874999999999797
30
-1.4100215964197051e-13
40
0.062499999999999709
210
-1.9428902930940224e-15
220
-3.944304526105059e-31
230
-1
0
CIRCLE
5
130
100
AcDbEntity
8
0
100
AcDbCircle
10
-11.731249999999331
20
-13.874999999999797
30
-7.8476496954340835e-14
40
0.062499999999999709
210
-1.9428902930940224e-15
220
-3.944304526105059e-31
230
-1
0
CIRCLE
5
131
100
AcDbEntity
8
0
100
AcDbCircle
10
-7.2312499999993403
20
-13.874999999999797
30
-1.3867069129025768e-13
40
0.062499999999999709
210
-1.9428902930940224e-15
220
-3.944304526105059e-31
230
-1
0
CIRCLE
5
132
100
AcDbEntity
8
0
100
AcDbCircle
10
-2.73124999999933
20
-13.875000000000076
30
-3.1250976216260842e-13
40
0.062499999999999709
210
-1.9428902930940224e-15
220
-3.944304526105059e-31
230
-1
0
CIRCLE
5
133
100
AcDbEntity
8
0
100
AcDbCircle
10
3.2687500000007006
20
-13.875000000000076
30
-3.1117749453305823e-13
40
0.062499999999999709
210
-1.9428902930940224e-15
220
-3.944304526105059e-31
230
-1
0
CIRCLE
5
134
100
AcDbEntity
8
0
100
AcDbCircle
10
-3.3917499999998961
20
-6.3625000000014902
30
-3.0575980406795923e-13
40
0.062499999999999709
210
-1.9428902930940224e-15
220
-3.944304526105059e-31
230
-1
0
CIRCLE
5
135
100
AcDbEntity
8
0
100
AcDbCircle
10
3.0662500000005317
20
-6.3625000000014902
30
-3.0432584000935326e-13
40
0.062499999999999709
210
-1.9428902930940224e-15
220
-3.944304526105059e-31
230
-1
0
CIRCLE
5
136
100
AcDbEntity
8
0
100
AcDbCircle
10
-3.391749999999909
20
-9.3625000000014929
30
-7.5973141928883413e-14
40
0.062499999999999709
210
-1.9428902930940224e-15
220
-3.944304526105059e-31
230
-1
0
CIRCLE
5
137
100
AcDbEntity
8
0
100
AcDbCircle
10
3.0662500000005015
20
-9.3625000000015621
30
-1.2699065934863147e-13
40
0.062499999999999709
210
-1.9428902930940224e-15
220
-3.944304526105059e-31
230
-1
0
CIRCLE
5
138
100
AcDbEntity
8
0
100
AcDbCircle
10
-3.3917499999999259
20
-12.362500000001388
30
-3.0076598593554074e-13
40
0.062499999999999709
210
-1.9428902930940224e-15
220
-3.944304526105059e-31
230
-1
0
CIRCLE
5
139
100
AcDbEntity
8
0
100
AcDbCircle
10
3.0662500000005144
20
-12.362500000001388
30
-3.3429967619583731e-13
40
0.062499999999999709
210
-1.9428902930940224e-15
220
-3.944304526105059e-31
230
-1
0
ENDSEC
0
SECTION
2
OBJECTS
0
DICTIONARY
5
C
100
AcDbDictionary
3
ACAD_GROUP
350
D
3
ACAD_MLINESTYLE
350
17
0
DICTIONARY
5
D
100
AcDbDictionary
0
DICTIONARY
5
1A
330
C
100
AcDbDictionary
0
DICTIONARY
5
17
100
AcDbDictionary
0
ENDSEC
0
EOF
