0
SECTION
2
HEADER
9
$INSUNITS
70
1
9
$ACADVER
1
AC1014
9
$HANDSEED
5
FFFF
0
ENDSEC
0
SECTION
2
TABLES
0
TABLE
2
VPORT
5
8
100
AcDbSymbolTable
0
ENDTAB
0
TABLE
2
LTYPE
5
5
100
AcDbSymbolTable
0
LTYPE
5
14
100
AcDbSymbolTableRecord
100
AcDbLinetypeTableRecord
2
BYBLOCK
70
0
0
LTYPE
5
15
100
AcDbSymbolTableRecord
100
AcDbLinetypeTableRecord
2
BYLAYER
70
0
0
ENDTAB
0
TABLE
2
LAYER
5
2
100
AcDbSymbolTable
70
2
0
LAYER
5
50
100
AcDbSymbolTableRecord
100
AcDbLayerTableRecord
2
0
70
0
6
CONTINUOUS
0
ENDTAB
0
TABLE
2
STYLE
5
3
100
AcDbSymbolTable
70
1
0
STYLE
5
11
100
AcDbSymbolTableRecord
100
AcDbTextStyleTableRecord
2
STANDARD
70
0
0
ENDTAB
0
TABLE
2
VIEW
5
6
100
AcDbSymbolTable
70
0
0
ENDTAB
0
TABLE
2
UCS
5
7
100
AcDbSymbolTable
70
0
0
ENDTAB
0
TABLE
2
APPID
5
9
100
AcDbSymbolTable
70
2
0
APPID
5
12
100
AcDbSymbolTableRecord
100
AcDbRegAppTableRecord
2
ACAD
70
0
0
ENDTAB
0
TABLE
2
DIMSTYLE
5
A
100
AcDbSymbolTable
70
1
0
ENDTAB
0
TABLE
2
BLOCK_RECORD
5
1
100
AcDbSymbolTable
70
1
0
BLOCK_RECORD
5
1F
100
AcDbSymbolTableRecord
100
AcDbBlockTableRecord
2
*MODEL_SPACE
0
BLOCK_RECORD
5
1B
100
AcDbSymbolTableRecord
100
AcDbBlockTableRecord
2
*PAPER_SPACE
0
ENDTAB
0
ENDSEC
0
SECTION
2
BLOCKS
0
BLOCK
5
20
100
AcDbEntity
100
AcDbBlockBegin
2
*MODEL_SPACE
0
ENDBLK
5
21
100
AcDbEntity
100
AcDbBlockEnd
0
BLOCK
5
1C
100
AcDbEntity
100
AcDbBlockBegin
2
*PAPER_SPACE
0
ENDBLK
5
1D
100
AcDbEntity
100
AcDbBlockEnd
0
ENDSEC
0
SECTION
2
ENTITIES
0
LWPOLYLINE
5
100
100
AcDbEntity
8
0
100
AcDbPolyline
90
18
70
1
43
0.0
10
40.157249240972732
20
-3.6223790846324238
42
-0.10169447449410904
10
38.840785003041447
20
-5.6478310429504459
42
-0.026767093257981038
10
38.761647787449689
20
-5.7198347121571063
10
36.170829591840125
20
-7.8352054253881631
42
-0.17286312441917376
10
32.376249999998457
20
-9.1875000000004245
10
31.390749999998338
20
-9.1875000000005116
10
31.39074999999837
20
-7.7249999999998078
42
0.41421356237305573
10
31.265749999998388
20
-7.5999999999997678
10
24.486750000000008
20
-7.5999999999998424
42
0.41421356237304585
10
24.361750000000008
20
-7.7249999999998078
10
24.361749999999979
20
-9.1875000000003197
10
23.37624999999991
20
-9.1875000000003677
42
-0.17286312441917376
10
19.581670408158264
20
-7.8352054253881684
10
16.84074999999935
20
-5.5747266274661573
42
-0.10571474301667537
10
15.526249999999159
20
-3.4374999999998734
10
15.526249999999159
20
-0.12500000000007583
10
40.226249999999219
20
-0.12500000000007583
10
40.226249999999212
20
-3.257357971124299
42
-0.093686536614536436
0
LWPOLYLINE
5
101
100
AcDbEntity
8
0
100
AcDbPolyline
90
8
70
1
43
0.0
10
18.507749999999366
20
-1.1250000000001579
10
18.507749999999316
20
-2.1249999999998814
42
0.41421356237312124
10
19.007749999999337
20
-2.6250000000000013
10
22.507749999999337
20
-2.6249999999999707
42
0.41421356237305612
10
23.007749999999319
20
-2.1250000000000213
10
23.007749999999358
20
-1.1250000000000706
42
0.41421356237304402
10
22.507749999999366
20
-0.62500000000001199
10
19.007749999999355
20
-0.62500000000021771
42
0.41421356237305595
0
LWPOLYLINE
5
102
100
AcDbEntity
8
0
100
AcDbPolyline
90
8
70
1
43
0.0
10
32.744749999999023
20
-1.1250000000002716
10
32.744749999999044
20
-2.1250000000001004
42
0.41421356237309176
10
33.244749999999044
20
-2.6250000000001061
10
36.744749999999044
20
-2.6250000000000839
42
0.41421356237311835
10
37.244749999999065
20
-2.1250000000000653
10
37.244749999999037
20
-1.1250000000002713
42
0.41421356237307527
10
36.744749999999065
20
-0.62499999999998579
10
33.244749999999023
20
-0.62500000000027023
42
0.41421356237308848
0
LWPOLYLINE
5
103
100
AcDbEntity
8
0
100
AcDbPolyline
90
8
70
1
43
0.0
10
25.7512499999992
20
-1.6250000000000151
10
25.751249999999182
20
-4.8750000000000897
42
0.41421356237311796
10
26.251249999999214
20
-5.3750000000000959
10
29.5012499999992
20
-5.3750000000000915
42
0.4142135623731143
10
30.001249999999242
20
-4.8750000000000906
10
30.001249999999239
20
-1.6250000000000153
42
0.41421356237311796
10
29.501249999999192
20
-1.1250000000002716
10
26.251249999999224
20
-1.125000000000014
42
0.41421356237311446
0
CIRCLE
5
104
100
AcDbEntity
8
0
100
AcDbCircle
10
-37.686541615058459
20
-6.3555850962281468
30
9.5595677563554209e-14
40
0.084749999999999381
210
9.9920072216263103e-16
220
1.5777218104420236e-30
230
-1
0
CIRCLE
5
105
100
AcDbEntity
8
0
100
AcDbCircle
10
-37.370315955528447
20
-5.9682850416775324
30
9.8170982934142818e-14
40
0.084749999999999381
210
9.9920072216263103e-16
220
1.5777218104420236e-30
230
-1
0
CIRCLE
5
106
100
AcDbEntity
8
0
100
AcDbCircle
10
-18.38209546427548
20
-5.9682032900100497
30
4.0550203548436088e-13
40
0.084749999999999381
210
9.9920072216263103e-16
220
1.5777218104420236e-30
230
-1
0
CIRCLE
5
107
100
AcDbEntity
8
0
100
AcDbCircle
10
-18.06586980474545
20
-6.3555033445603506
30
8.7972084537920181e-14
40
0.084749999999999381
210
9.9920072216263103e-16
220
1.5777218104420236e-30
230
-1
0
CIRCLE
5
108
100
AcDbEntity
8
0
100
AcDbCircle
10
-19.79524999999899
20
-3.9948996615276275
30
1.050895821565653e-13
40
0.084749999999999381
210
9.9920072216263103e-16
220
1.5777218104420236e-30
230
-1
0
CIRCLE
5
109
100
AcDbEntity
8
0
100
AcDbCircle
10
-21.59524999999897
20
-3.9948996615276102
30
1.0578902266207924e-13
40
0.084749999999999381
210
9.9920072216263103e-16
220
1.5777218104420236e-30
230
-1
0
CIRCLE
5
110
100
AcDbEntity
8
0
100
AcDbCircle
10
-38.223749999999207
20
-1.0966499435869392
30
4.821181259878663e-13
40
0.039065000000000086
210
9.9920072216263103e-16
220
1.5777218104420236e-30
230
-1
0
CIRCLE
5
111
100
AcDbEntity
8
0
100
AcDbCircle
10
-38.223749999999264
20
-4.9832497179387296
30
3.1517093041715442e-13
40
0.039065000000000086
210
9.9920072216263103e-16
220
1.5777218104420236e-30
230
-1
0
CIRCLE
5
112
100
AcDbEntity
8
0
100
AcDbCircle
10
-31.765749999998366
20
-7.6770833333325017
30
-2.0814390110133408e-14
40
0.039065000000000086
210
9.9920072216263103e-16
220
1.5777218104420236e-30
230
-1
0
CIRCLE
5
113
100
AcDbEntity
8
0
100
AcDbCircle
10
-31.765749999998381
20
-1.635416666665463
30
9.1211092466458328e-14
40
0.039065000000000086
210
9.9920072216263103e-16
220
1.5777218104420236e-30
230
-1
0
CIRCLE
5
114
100
AcDbEntity
8
0
100
AcDbCircle
10
-29.984949999999113
20
-7.3499999999995982
30
1.2064292229261307e-13
40
0.039065000000000086
210
9.9920072216263103e-16
220
1.5777218104420236e-30
230
-1
0
CIRCLE
5
115
100
AcDbEntity
8
0
100
AcDbCircle
10
-25.767550000000146
20
-7.3499999999995982
30
1.1900413318819457e-13
40
0.039065000000000086
210
9.9920072216263103e-16
220
1.5777218104420236e-30
230
-1
0
CIRCLE
5
116
100
AcDbEntity
8
0
100
AcDbCircle
10
-23.965931505798618
20
-1.6461750370021919
30
2.6294357593780914e-13
40
0.039065000000000086
210
9.9920072216263103e-16
220
1.5777218104420236e-30
230
-1
0
CIRCLE
5
117
100
AcDbEntity
8
0
100
AcDbCircle
10
-23.982598140756817
20
-7.687818715207178
30
1.1595707548352781e-13
40
0.039065000000000086
210
9.9920072216263103e-16
220
1.5777218104420236e-30
230
-1
0
CIRCLE
5
118
100
AcDbEntity
8
0
100
AcDbCircle
10
-17.517191462352869
20
-5.0118104883351648
30
-1.8262131724093361e-13
40
0.039065000000000086
210
9.9920072216263103e-16
220
1.5777218104420236e-30
230
-1
0
CIRCLE
5
119
100
AcDbEntity
8
0
100
AcDbCircle
10
-17.506469828201013
20
-1.1252255024439013
30
4.0393346093880424e-13
40
0.039065000000000086
210
9.9920072216263103e-16
220
1.5777218104420236e-30
230
-1
0
ENDSEC
0
SECTION
2
OBJECTS
0
DICTIONARY
5
C
100
AcDbDictionary
3
ACAD_GROUP
350
D
3
ACAD_MLINESTYLE
350
17
0
DICTIONARY
5
D
100
AcDbDictionary
0
DICTIONARY
5
1A
330
C
100
AcDbDictionary
0
DICTIONARY
5
17
100
AcDbDictionary
0
ENDSEC
0
EOF
