<?xml version="1.0" encoding="utf-8"?>
<!-- Generator: Fusion 360, Shaper Origin Export Add-In, Version 1.6.10  -->
<svg xmlns="http://www.w3.org/2000/svg" xmlns:xlink="http://www.w3.org/1999/xlink" xmlns:shaper="http://www.shapertools.com/namespaces/shaper" shaper:fusionaddin="version:1.6.10" width="14.4526cm" height="8.255cm" version="1.1" x="0cm" y="0cm" viewBox="0 0 14.4526 8.255" enable-background="new 0 0 14.4526 8.255" xml:space="preserve"><path d="M-6.543645,3.7674015 A0.15875,0.15875 321.0724564 0,0 -6.6671431,3.7084 L-7.06755,3.7084 A0.15875,0.15875 90 0,1 -7.2263,3.54965 L-7.2263,0.2921 A0.15875,0.15875 180 0,1 -7.06755,0.13335 L-6.81355,0.13335 A0.5842,0.5842 90 1,0 -6.81355,-1.03505 L-7.06755,-1.03505 A0.15875,0.15875 90 0,1 -7.2263,-1.1938 L-7.2263,-2.48285 A0.15875,0.15875 180 0,1 -7.06755,-2.6416 L7.06755,-2.6416 A0.15875,0.15875 270 0,1 7.2263,-2.48285 L7.2263,-1.1938 A0.15875,0.15875 0 0,1 7.06755,-1.03505 L6.81355,-1.03505 A0.5842,0.5842 270 1,0 6.81355,0.13335 L7.06755,0.13335 A0.15875,0.15875 270 0,1 7.2263,0.2921 L7.2263,3.54965 A0.15875,0.15875 0 0,1 7.06755,3.7084 L6.6671431,3.7084 A0.15875,0.15875 270 0,0 6.543645,3.7674015 L5.5597518,4.9855549 A0.15875,0.15875 218.9275436 0,0 5.5245,5.0853034 L5.5245,5.45465 A0.15875,0.15875 0 0,1 5.36575,5.6134 L-5.36575,5.6134 A0.15875,0.15875 90 0,1 -5.5245,5.45465 L-5.5245,5.0853034 A0.15875,0.15875 0 0,0 -5.5597518,4.9855549 L-6.543645,3.7674015z" transform="matrix(1,0,0,-1,7.2263,5.6134)" fill="rgb(0,0,0)" shaper:cutDepth="0.0047625" stroke-linecap="round" stroke-linejoin="round" /><path d="M-1.76022,5.1054 a0.17272,0.17272 0 1,1 0.34544,0 a0.17272,0.17272 0 1,1 -0.34544,0z" transform="matrix(1,0,0,-1,7.2263,5.6134)" fill="rgb(255,255,255)" stroke="rgb(0,0,0)" stroke-width="0.0010cm" stroke-linecap="round" stroke-linejoin="round" shaper:cutDepth="0.0047625" /><path d="M1.41478,5.1054 a0.17272,0.17272 0 1,1 0.34544,0 a0.17272,0.17272 0 1,1 -0.34544,0z" transform="matrix(1,0,0,-1,7.2263,5.6134)" fill="rgb(255,255,255)" stroke="rgb(0,0,0)" stroke-width="0.0010cm" stroke-linecap="round" stroke-linejoin="round" shaper:cutDepth="0.0047625" /><path d="M-1.27,1.3716 a1.27,1.27 0 1,1 2.54,0 a1.27,1.27 0 1,1 -2.54,0z" transform="matrix(1,0,0,-1,7.2263,5.6134)" fill="rgb(255,255,255)" stroke="rgb(0,0,0)" stroke-width="0.0010cm" stroke-linecap="round" stroke-linejoin="round" shaper:cutDepth="0.0047625" /><path d="M-4.572,3.048 a0.9525,0.9525 0 1,1 1.905,0 a0.9525,0.9525 0 1,1 -1.905,0z" transform="matrix(1,0,0,-1,7.2263,5.6134)" fill="rgb(255,255,255)" stroke="rgb(0,0,0)" stroke-width="0.0010cm" stroke-linecap="round" stroke-linejoin="round" shaper:cutDepth="0.0047625" /><path d="M2.667,3.048 a0.9525,0.9525 0 1,1 1.905,0 a0.9525,0.9525 0 1,1 -1.905,0z" transform="matrix(1,0,0,-1,7.2263,5.6134)" fill="rgb(255,255,255)" stroke="rgb(0,0,0)" stroke-width="0.0010cm" stroke-linecap="round" stroke-linejoin="round" shaper:cutDepth="0.0047625" /><path d="M2.667,-0.6096 a0.9525,0.9525 0 1,1 1.905,0 a0.9525,0.9525 0 1,1 -1.905,0z" transform="matrix(1,0,0,-1,7.2263,5.6134)" fill="rgb(255,255,255)" stroke="rgb(0,0,0)" stroke-width="0.0010cm" stroke-linecap="round" stroke-linejoin="round" shaper:cutDepth="0.0047625" /><path d="M-4.572,-0.6096 a0.9525,0.9525 0 1,1 1.905,0 a0.9525,0.9525 0 1,1 -1.905,0z" transform="matrix(1,0,0,-1,7.2263,5.6134)" fill="rgb(255,255,255)" stroke="rgb(0,0,0)" stroke-width="0.0010cm" stroke-linecap="round" stroke-linejoin="round" shaper:cutDepth="0.0047625" /><path d="M-6.247765,3.2004 a0.215265,0.215265 0 1,1 0.43053,0 a0.215265,0.215265 0 1,1 -0.43053,0z" transform="matrix(1,0,0,-1,7.2263,5.6134)" fill="rgb(255,255,255)" stroke="rgb(0,0,0)" stroke-width="0.0010cm" stroke-linecap="round" stroke-linejoin="round" shaper:cutDepth="0.0047625" /><path d="M5.817235,3.2004 a0.215265,0.215265 0 1,1 0.43053,0 a0.215265,0.215265 0 1,1 -0.43053,0z" transform="matrix(1,0,0,-1,7.2263,5.6134)" fill="rgb(255,255,255)" stroke="rgb(0,0,0)" stroke-width="0.0010cm" stroke-linecap="round" stroke-linejoin="round" shaper:cutDepth="0.0047625" /><path d="M5.817235,-1.5748 a0.215265,0.215265 0 1,1 0.43053,0 a0.215265,0.215265 0 1,1 -0.43053,0z" transform="matrix(1,0,0,-1,7.2263,5.6134)" fill="rgb(255,255,255)" stroke="rgb(0,0,0)" stroke-width="0.0010cm" stroke-linecap="round" stroke-linejoin="round" shaper:cutDepth="0.0047625" /><path d="M-6.247765,-1.5748 a0.215265,0.215265 0 1,1 0.43053,0 a0.215265,0.215265 0 1,1 -0.43053,0z" transform="matrix(1,0,0,-1,7.2263,5.6134)" fill="rgb(255,255,255)" stroke="rgb(0,0,0)" stroke-width="0.0010cm" stroke-linecap="round" stroke-linejoin="round" shaper:cutDepth="0.0047625" /></svg>