<?xml version="1.0" encoding="utf-8"?>
<!-- Generator: Fusion 360, Shaper Origin Export Add-In, Version 1.6.10  -->
<svg xmlns="http://www.w3.org/2000/svg" xmlns:xlink="http://www.w3.org/1999/xlink" xmlns:shaper="http://www.shapertools.com/namespaces/shaper" shaper:fusionaddin="version:1.6.10" width="14.605cm" height="12.3825cm" version="1.1" x="0cm" y="0cm" viewBox="0 0 14.605 12.3825" enable-background="new 0 0 14.605 12.3825" xml:space="preserve"><path d="M-7.3025,-3.0551366 L-7.3025,9.3273634 7.3025,9.3273634 7.3025,-3.0551366 -7.3025,-3.0551366z" transform="matrix(1,0,0,-1,7.3025,9.3273634)" fill="rgb(0,0,0)" shaper:cutDepth="0.003175" stroke-linecap="round" stroke-linejoin="round" /><path d="M-2.5372292,7.6694657 a0.135255,0.135255 0 1,1 0.27051,0 a0.135255,0.135255 0 1,1 -0.27051,0z" transform="matrix(1,0,0,-1,7.3025,9.3273634)" fill="rgb(255,255,255)" stroke="rgb(0,0,0)" stroke-width="0.0010cm" stroke-linecap="round" stroke-linejoin="round" shaper:cutDepth="0.003175" /><path d="M-2.5422292,5.0669657 a0.135255,0.135255 0 1,1 0.27051,0 a0.135255,0.135255 0 1,1 -0.27051,0z" transform="matrix(1,0,0,-1,7.3025,9.3273634)" fill="rgb(255,255,255)" stroke="rgb(0,0,0)" stroke-width="0.0010cm" stroke-linecap="round" stroke-linejoin="round" shaper:cutDepth="0.003175" /><path d="M3.4602708,5.0669657 a0.135255,0.135255 0 1,1 0.27051,0 a0.135255,0.135255 0 1,1 -0.27051,0z" transform="matrix(1,0,0,-1,7.3025,9.3273634)" fill="rgb(255,255,255)" stroke="rgb(0,0,0)" stroke-width="0.0010cm" stroke-linecap="round" stroke-linejoin="round" shaper:cutDepth="0.003175" /><path d="M3.4627708,7.6669657 a0.135255,0.135255 0 1,1 0.27051,0 a0.135255,0.135255 0 1,1 -0.27051,0z" transform="matrix(1,0,0,-1,7.3025,9.3273634)" fill="rgb(255,255,255)" stroke="rgb(0,0,0)" stroke-width="0.0010cm" stroke-linecap="round" stroke-linejoin="round" shaper:cutDepth="0.003175" /><path d="M-3.9788356,7.706605 L-3.9788356,7.4553031 A0.15875,0.15875 180 0,1 -3.8200856,7.2965531 L-3.7867352,7.2965531 A0.15875,0.15875 270 0,1 -3.6279852,7.4553031 L-3.6279852,7.7043512 A0.15875,0.15875 180 0,0 -3.4692352,7.8631012 L-3.1108717,7.8631012 A0.15875,0.15875 90 0,0 -2.9521217,7.7043512 L-2.9521217,7.3554847 A0.15875,0.15875 0 0,0 -2.9905759,7.2518966 L-3.423558,6.7490787 A0.15875,0.15875 319.2678933 0,0 -3.5438538,6.6939167 L-4.1211701,6.6939167 A0.15875,0.15875 270 0,0 -4.1487675,6.6963339 L-4.6897069,6.7918259 A0.15875,0.15875 79.9887286 0,1 -4.7173043,6.7942431 L-6.041986,6.7942431 A0.15875,0.15875 270 0,0 -6.200736,6.9529931 L-6.200736,7.4035484 A0.15875,0.15875 180 0,0 -6.041986,7.5622984 L-5.9671767,7.5622984 A0.15875,0.15875 90 0,0 -5.8549235,7.5158016 L-5.7784931,7.4393712 A0.15875,0.15875 225 0,1 -5.6662399,7.3928744 L-5.0263651,7.3928744 A0.15875,0.15875 270 0,1 -4.8676151,7.5516244 L-4.8676151,7.706605 A0.15875,0.15875 180 0,0 -4.7088651,7.865355 L-4.1375856,7.865355 A0.15875,0.15875 90 0,0 -3.9788356,7.706605z" transform="matrix(1,0,0,-1,7.3025,9.3273634)" fill="rgb(255,255,255)" stroke="rgb(0,0,0)" stroke-width="0.0010cm" stroke-linecap="round" stroke-linejoin="round" shaper:cutDepth="0.003175" /><path d="M-2.3712253,6.4240107 A0.15875,0.15875 0 0,1 -2.5299753,6.5827607 L-4.5446498,6.5827607 A0.15875,0.15875 90 0,1 -4.7033998,6.4240107 L-4.7033998,5.9912977 A0.15875,0.15875 180 0,1 -4.5446498,5.8325477 L-2.5299753,5.8325477 A0.15875,0.15875 270 0,1 -2.3712253,5.9912977 L-2.3712253,6.4240107z" transform="matrix(1,0,0,-1,7.3025,9.3273634)" fill="rgb(255,255,255)" stroke="rgb(0,0,0)" stroke-width="0.0010cm" stroke-linecap="round" stroke-linejoin="round" shaper:cutDepth="0.003175" /><path d="M-1.4473184,6.4846401 A0.15875,0.15875 0 0,1 -1.6060684,6.6433901 L-1.9108583,6.6433901 A0.15875,0.15875 90 0,1 -2.0696083,6.4846401 L-2.0696083,5.9912977 A0.15875,0.15875 180 0,1 -1.9108583,5.8325477 L-1.6060684,5.8325477 A0.15875,0.15875 270 0,1 -1.4473184,5.9912977 L-1.4473184,6.4846401z" transform="matrix(1,0,0,-1,7.3025,9.3273634)" fill="rgb(255,255,255)" stroke="rgb(0,0,0)" stroke-width="0.0010cm" stroke-linecap="round" stroke-linejoin="round" shaper:cutDepth="0.003175" /><path d="M-1.0184687,5.9912977 A0.15875,0.15875 180 0,1 -0.8597187,5.8325477 L1.9283826,5.8325477 A0.15875,0.15875 270 0,1 2.0871326,5.9912977 L2.0871326,6.4571783 A0.15875,0.15875 0 0,1 1.9283826,6.6159283 L-0.8597187,6.6159283 A0.15875,0.15875 90 0,1 -1.0184687,6.4571783 L-1.0184687,5.9912977z" transform="matrix(1,0,0,-1,7.3025,9.3273634)" fill="rgb(255,255,255)" stroke="rgb(0,0,0)" stroke-width="0.0010cm" stroke-linecap="round" stroke-linejoin="round" shaper:cutDepth="0.003175" /><path d="M5.4680798,6.5014293 A0.15875,0.15875 0 0,1 5.3093298,6.6601793 L2.5796306,6.6601793 A0.15875,0.15875 90 0,1 2.4208806,6.5014293 L2.4208806,6.0139752 A0.15875,0.15875 180 0,1 2.5796306,5.8552252 L5.3093298,5.8552252 A0.15875,0.15875 270 0,1 5.4680798,6.0139752 L5.4680798,6.5014293z" transform="matrix(1,0,0,-1,7.3025,9.3273634)" fill="rgb(255,255,255)" stroke="rgb(0,0,0)" stroke-width="0.0010cm" stroke-linecap="round" stroke-linejoin="round" shaper:cutDepth="0.003175" /><path d="M-3.3578159,2.9237298 L-3.2393083,3.0769978 A0.15875,0.15875 322.2886144 0,1 -3.2061458,3.1741027 L-3.2061458,4.4122348 A0.15875,0.15875 180 0,0 -3.0473958,4.5709848 L-1.9935703,4.5709848 A0.15875,0.15875 90 0,0 -1.8348203,4.4122348 L-1.8348203,3.1086729 A0.15875,0.15875 0 0,0 -1.9043509,2.9773661 L-1.9066189,2.9758251 A0.15875,0.15875 124.1950291 0,1 -1.9761496,2.8445183 L-1.9761496,2.4293611 A0.15875,0.15875 0 0,0 -2.1348996,2.2706111 L-3.2322285,2.2706111 A0.15875,0.15875 270 0,0 -3.3909785,2.4293611 L-3.3909785,2.826625 A0.15875,0.15875 180 0,0 -3.3578159,2.9237298z" transform="matrix(1,0,0,-1,7.3025,9.3273634)" fill="rgb(255,255,255)" stroke="rgb(0,0,0)" stroke-width="0.0010cm" stroke-linecap="round" stroke-linejoin="round" shaper:cutDepth="0.003175" /><path d="M-2.9103966,1.6406102 A0.15875,0.15875 0 0,1 -3.0691466,1.7993602 L-4.2075893,1.7993602 A0.15875,0.15875 90 0,1 -4.3663393,1.6406102 L-4.3663393,1.3473505 A0.15875,0.15875 180 0,1 -4.2075893,1.1886005 L-3.0691466,1.1886005 A0.15875,0.15875 270 0,1 -2.9103966,1.3473505 L-2.9103966,1.6406102z" transform="matrix(1,0,0,-1,7.3025,9.3273634)" fill="rgb(255,255,255)" stroke="rgb(0,0,0)" stroke-width="0.0010cm" stroke-linecap="round" stroke-linejoin="round" shaper:cutDepth="0.003175" /><path d="M-2.7649416,0.6015704 A0.15875,0.15875 180 0,1 -2.7526953,0.5404294 L-2.6411678,0.2731911 A0.15875,0.15875 202.6524171 0,1 -2.494664,0.1755821 L-2.1949993,0.1755821 A0.15875,0.15875 270 0,1 -2.0362493,0.3343321 L-2.0362493,0.7766406 A0.15875,0.15875 0 0,1 -2.0403864,0.8126463 L-2.1680097,1.3606759 A0.15875,0.15875 13.1092082 0,1 -2.3226226,1.4834202 L-2.6061916,1.4834202 A0.15875,0.15875 90 0,1 -2.7649416,1.3246702 L-2.7649416,0.6015704z" transform="matrix(1,0,0,-1,7.3025,9.3273634)" fill="rgb(255,255,255)" stroke="rgb(0,0,0)" stroke-width="0.0010cm" stroke-linecap="round" stroke-linejoin="round" shaper:cutDepth="0.003175" /><path d="M1.1088676,8.646952 A0.15875,0.15875 0 0,1 0.9501176,8.805702 L-0.8587584,8.805702 A0.15875,0.15875 90 0,1 -1.0175084,8.646952 L-1.0175084,8.1602537 A0.15875,0.15875 180 0,1 -0.8587584,8.0015037 L0.9501176,8.0015037 A0.15875,0.15875 270 0,1 1.1088676,8.1602537 L1.1088676,8.646952z" transform="matrix(1,0,0,-1,7.3025,9.3273634)" fill="rgb(255,255,255)" stroke="rgb(0,0,0)" stroke-width="0.0010cm" stroke-linecap="round" stroke-linejoin="round" shaper:cutDepth="0.003175" /><path d="M-4.415241,1.4045987 L-4.415241,1.0211336 A0.15875,0.15875 180 0,1 -4.256491,0.8623836 L-2.9902845,0.8623836 A0.15875,0.15875 22.572518 0,0 -2.9781233,0.801447 L-2.9781233,0.4153022 A0.15875,0.15875 0 0,0 -3.1368733,0.2565522 L-5.2128811,0.2565522 A0.15875,0.15875 270 0,0 -5.3716311,0.4153022 L-5.3716311,0.6612938 A0.15875,0.15875 180 0,0 -5.3057429,0.7900503 L-5.135716,0.9126771 A0.15875,0.15875 305.7999027 0,1 -5.0698278,1.0414337 L-5.0698278,1.4045987 A0.15875,0.15875 180 0,0 -4.9110778,1.5633487 L-4.573991,1.5633487 A0.15875,0.15875 90 0,0 -4.415241,1.4045987z" transform="matrix(1,0,0,-1,7.3025,9.3273634)" fill="rgb(255,255,255)" stroke="rgb(0,0,0)" stroke-width="0.0010cm" stroke-linecap="round" stroke-linejoin="round" shaper:cutDepth="0.003175" /><path d="M4.1729942,-1.1810113 L4.1729942,-1.5502929 A0.15875,0.15875 180 0,1 4.1751244,-1.5762115 L4.3403398,-2.5745664 A0.15875,0.15875 9.3965837 0,0 4.3424699,-2.600485 L4.3424699,-2.6929383 A0.15875,0.15875 0 0,0 4.1837199,-2.8516883 L2.9048141,-2.8516883 A0.15875,0.15875 270 0,0 2.7460641,-2.6929383 L2.7460641,-1.9571088 A0.15875,0.15875 0 0,1 2.5873141,-1.7983588 L2.0660842,-1.7983588 A0.15875,0.15875 270 0,0 1.9073342,-1.6396088 L1.9073342,-1.3661855 A0.15875,0.15875 180 0,0 2.0660842,-1.2074355 L2.5428118,-1.2074355 A0.15875,0.15875 270 0,1 2.642697,-1.1720731 L2.7840756,-1.0576237 A0.15875,0.15875 128.990994 0,0 2.8839609,-1.0222613 L4.0142442,-1.0222613 A0.15875,0.15875 90 0,0 4.1429811,-1.0881222 A0.15875,0.15875 199.0696576 1,0 4.1642824,-1.1291449 A0.15875,0.15875 19.0696576 0,0 4.1729942,-1.1810113z" transform="matrix(1,0,0,-1,7.3025,9.3273634)" fill="rgb(255,255,255)" stroke="rgb(0,0,0)" stroke-width="0.0010cm" stroke-linecap="round" stroke-linejoin="round" shaper:cutDepth="0.003175" /><path d="M-2.1126995,8.1923048 A0.15875,0.15875 180 0,1 -1.9539495,8.0335548 L-1.5463716,8.0335548 A0.15875,0.15875 270 0,1 -1.3876216,8.1923048 L-1.3876216,8.4566842 A0.15875,0.15875 0 0,1 -1.5463716,8.6154342 L-1.9539495,8.6154342 A0.15875,0.15875 90 0,1 -2.1126995,8.4566842 L-2.1126995,8.1923048z" transform="matrix(1,0,0,-1,7.3025,9.3273634)" fill="rgb(255,255,255)" stroke="rgb(0,0,0)" stroke-width="0.0010cm" stroke-linecap="round" stroke-linejoin="round" shaper:cutDepth="0.003175" /><path d="M-1.5741712,7.5643915 A0.15875,0.15875 90 0,1 -1.7329212,7.4056415 L-1.7329212,7.087357 A0.15875,0.15875 180 0,1 -1.5741712,6.928607 L1.8587338,6.928607 A0.15875,0.15875 270 0,1 2.0158932,7.0649405 L2.0612918,7.3832251 A0.15875,0.15875 351.8823455 0,1 1.9041325,7.5643915 L-1.5741712,7.5643915z" transform="matrix(1,0,0,-1,7.3025,9.3273634)" fill="rgb(255,255,255)" stroke="rgb(0,0,0)" stroke-width="0.0010cm" stroke-linecap="round" stroke-linejoin="round" shaper:cutDepth="0.003175" /><path d="M5.4640455,8.646952 A0.15875,0.15875 0 0,1 5.3052955,8.805702 L4.9252016,8.805702 A0.15875,0.15875 90 0,1 4.7664516,8.646952 L4.7664516,8.187769 A0.15875,0.15875 180 0,1 4.9252016,8.029019 L5.3052955,8.029019 A0.15875,0.15875 270 0,1 5.4640455,8.187769 L5.4640455,8.646952z" transform="matrix(1,0,0,-1,7.3025,9.3273634)" fill="rgb(255,255,255)" stroke="rgb(0,0,0)" stroke-width="0.0010cm" stroke-linecap="round" stroke-linejoin="round" shaper:cutDepth="0.003175" /><path d="M2.3607017,8.805702 A0.15875,0.15875 90 0,1 2.2019517,8.646952 L2.2019517,8.187769 A0.15875,0.15875 180 0,1 2.3607017,8.029019 L4.3564333,8.029019 A0.15875,0.15875 270 0,1 4.5151833,8.187769 L4.5151833,8.646952 A0.15875,0.15875 0 0,1 4.3564333,8.805702 L2.3607017,8.805702z" transform="matrix(1,0,0,-1,7.3025,9.3273634)" fill="rgb(255,255,255)" stroke="rgb(0,0,0)" stroke-width="0.0010cm" stroke-linecap="round" stroke-linejoin="round" shaper:cutDepth="0.003175" /><path d="M2.0417899,8.646952 A0.15875,0.15875 0 0,1 1.8830399,8.805702 L1.5559536,8.805702 A0.15875,0.15875 90 0,1 1.3972036,8.646952 L1.3972036,8.187769 A0.15875,0.15875 180 0,1 1.5559536,8.029019 L1.8830399,8.029019 A0.15875,0.15875 270 0,1 2.0417899,8.187769 L2.0417899,8.646952z" transform="matrix(1,0,0,-1,7.3025,9.3273634)" fill="rgb(255,255,255)" stroke="rgb(0,0,0)" stroke-width="0.0010cm" stroke-linecap="round" stroke-linejoin="round" shaper:cutDepth="0.003175" /><path d="M-1.3891407,3.2138866 A0.15875,0.15875 180 0,1 -1.2303907,3.0551366 L0.7516195,3.0551366 A0.15875,0.15875 270 0,1 0.9103695,3.2138866 L0.9103695,4.1593563 A0.15875,0.15875 0 0,1 0.7516195,4.3181063 L-1.2303907,4.3181063 A0.15875,0.15875 90 0,1 -1.3891407,4.1593563 L-1.3891407,3.2138866z" transform="matrix(1,0,0,-1,7.3025,9.3273634)" fill="rgb(255,255,255)" stroke="rgb(0,0,0)" stroke-width="0.0010cm" stroke-linecap="round" stroke-linejoin="round" shaper:cutDepth="0.003175" /><path d="M6.0762662,1.2129711 A0.15875,0.15875 180 0,1 6.2350162,1.0542211 L6.7843842,1.0542211 A0.15875,0.15875 270 0,1 6.9431342,1.2129711 L6.9431342,1.5465653 A0.15875,0.15875 0 0,1 6.7843842,1.7053153 L6.2350162,1.7053153 A0.15875,0.15875 90 0,1 6.0762662,1.5465653 L6.0762662,1.2129711z" transform="matrix(1,0,0,-1,7.3025,9.3273634)" fill="rgb(255,255,255)" stroke="rgb(0,0,0)" stroke-width="0.0010cm" stroke-linecap="round" stroke-linejoin="round" shaper:cutDepth="0.003175" /><path d="M6.1111529,0.0766742 A0.15875,0.15875 180 0,1 6.2699029,-0.0820758 L6.7843842,-0.0820758 A0.15875,0.15875 270 0,1 6.9431342,0.0766742 L6.9431342,0.4065041 A0.15875,0.15875 0 0,1 6.7843842,0.5652541 L6.2699029,0.5652541 A0.15875,0.15875 90 0,1 6.1111529,0.4065041 L6.1111529,0.0766742z" transform="matrix(1,0,0,-1,7.3025,9.3273634)" fill="rgb(255,255,255)" stroke="rgb(0,0,0)" stroke-width="0.0010cm" stroke-linecap="round" stroke-linejoin="round" shaper:cutDepth="0.003175" /><path d="M4.8486661,2.9083283 L4.6418752,2.5325189 A0.15875,0.15875 151.1780017 0,1 4.6222096,2.4559871 L4.6222096,1.8535675 A0.15875,0.15875 0 0,0 4.5285083,1.7087565 L4.2572408,1.5869038 A0.15875,0.15875 294.1895142 0,0 4.1921921,1.5729647 L3.087498,1.5729647 A0.15875,0.15875 270 0,0 3.0355692,1.5816982 L2.513589,1.7623837 A0.15875,0.15875 250.906508 0,0 2.4067678,1.9124002 L2.4067678,2.2795612 A0.15875,0.15875 0 0,1 2.3750796,2.3747287 L2.3153533,2.4544715 A0.15875,0.15875 216.8327032 0,0 2.2836651,2.5496391 L2.2836651,3.7615997 A0.15875,0.15875 0 0,1 2.1249151,3.9203497 L1.696112,3.9203497 A0.15875,0.15875 270 0,0 1.537362,4.0790997 L1.537362,4.3261187 A0.15875,0.15875 180 0,0 1.696112,4.4848687 L3.9132063,4.4848687 A0.15875,0.15875 90 0,0 4.0278026,4.4359789 L4.8241781,3.6052712 A0.15875,0.15875 43.7912126 0,0 4.8683318,3.495411 L4.8683318,2.9848601 A0.15875,0.15875 0 0,0 4.8486661,2.9083283z" transform="matrix(1,0,0,-1,7.3025,9.3273634)" fill="rgb(255,255,255)" stroke="rgb(0,0,0)" stroke-width="0.0010cm" stroke-linecap="round" stroke-linejoin="round" shaper:cutDepth="0.003175" /><path d="M5.1825054,-1.1973238 A0.15875,0.15875 0 0,1 5.0237554,-1.0385738 L4.6354951,-1.0385738 A0.15875,0.15875 90 0,1 4.4767451,-1.1973238 L4.4767451,-1.5208696 A0.15875,0.15875 180 0,1 4.6354951,-1.6796196 L5.0237554,-1.6796196 A0.15875,0.15875 270 0,1 5.1825054,-1.5208696 L5.1825054,-1.1973238z" transform="matrix(1,0,0,-1,7.3025,9.3273634)" fill="rgb(255,255,255)" stroke="rgb(0,0,0)" stroke-width="0.0010cm" stroke-linecap="round" stroke-linejoin="round" shaper:cutDepth="0.003175" /><path d="M4.939541,-0.4059341 A0.15875,0.15875 0 0,1 4.780791,-0.2471841 L4.3587107,-0.2471841 A0.15875,0.15875 90 0,1 4.1999607,-0.4059341 L4.1999607,-0.688846 A0.15875,0.15875 180 0,1 4.3587107,-0.847596 L4.780791,-0.847596 A0.15875,0.15875 270 0,1 4.939541,-0.688846 L4.939541,-0.4059341z" transform="matrix(1,0,0,-1,7.3025,9.3273634)" fill="rgb(255,255,255)" stroke="rgb(0,0,0)" stroke-width="0.0010cm" stroke-linecap="round" stroke-linejoin="round" shaper:cutDepth="0.003175" /><path d="M1.7612552,0.1231231 A0.15875,0.15875 90 0,1 1.6025052,-0.0356269 L1.6025052,-0.5151766 A0.15875,0.15875 180 0,1 1.7612552,-0.6739266 L2.7831404,-0.6739266 A0.15875,0.15875 270 0,1 2.9418904,-0.5151766 L2.9418904,-0.0356269 A0.15875,0.15875 0 0,1 2.7831404,0.1231231 L1.7612552,0.1231231z" transform="matrix(1,0,0,-1,7.3025,9.3273634)" fill="rgb(255,255,255)" stroke="rgb(0,0,0)" stroke-width="0.0010cm" stroke-linecap="round" stroke-linejoin="round" shaper:cutDepth="0.003175" /><path d="M-0.477209,-0.225035 A0.15875,0.15875 90 0,1 -0.635959,-0.383785 L-0.635959,-0.8320777 A0.15875,0.15875 180 0,1 -0.477209,-0.9908277 L0.5558869,-0.9908277 A0.15875,0.15875 270 0,1 0.7146369,-0.8320777 L0.7146369,-0.383785 A0.15875,0.15875 0 0,1 0.5558869,-0.225035 L-0.477209,-0.225035z" transform="matrix(1,0,0,-1,7.3025,9.3273634)" fill="rgb(255,255,255)" stroke="rgb(0,0,0)" stroke-width="0.0010cm" stroke-linecap="round" stroke-linejoin="round" shaper:cutDepth="0.003175" /><path d="M-5.2459617,-1.4558581 A0.15875,0.15875 220.9027164 0,1 -5.1253243,-1.510661 L-4.7166587,-1.5089863 A0.15875,0.15875 270.2348024 0,1 -4.5585593,-1.3502376 L-4.5585593,-1.0958673 A0.15875,0.15875 0 0,1 -4.7173093,-0.9371173 L-5.265221,-0.9371173 A0.15875,0.15875 90 0,1 -5.423971,-1.0958673 L-5.423971,-1.1911776 A0.15875,0.15875 180 0,1 -5.3852078,-1.2951234 L-5.2459617,-1.4558581z" transform="matrix(1,0,0,-1,7.3025,9.3273634)" fill="rgb(255,255,255)" stroke="rgb(0,0,0)" stroke-width="0.0010cm" stroke-linecap="round" stroke-linejoin="round" shaper:cutDepth="0.003175" /><path d="M-4.4457145,-1.460909 L-4.3548683,-1.460909 A0.15875,0.15875 270 0,1 -4.1961183,-1.302159 L-4.1961183,-1.0385761 A0.15875,0.15875 180 0,0 -4.0373683,-0.8798261 L-2.1348996,-0.8798261 A0.15875,0.15875 90 0,0 -1.9761496,-1.0385761 L-1.9761496,-1.3820599 A0.15875,0.15875 0 0,0 -2.1348996,-1.5408099 L-2.6998794,-1.5408099 A0.15875,0.15875 90 0,1 -2.8586294,-1.6995599 L-2.8586294,-1.9546828 A0.15875,0.15875 0 0,0 -3.0173794,-2.1134328 L-4.3745569,-2.1134328 A0.15875,0.15875 270 0,0 -4.4509103,-2.0938651 L-4.6210032,-2.0005546 A0.15875,0.15875 241.2514559 0,0 -4.7033998,-1.8613723 L-4.7033998,-1.7185942 A0.15875,0.15875 180 0,0 -4.656903,-1.606341 L-4.5579677,-1.5074058 A0.15875,0.15875 135 0,0 -4.4457145,-1.460909z" transform="matrix(1,0,0,-1,7.3025,9.3273634)" fill="rgb(255,255,255)" stroke="rgb(0,0,0)" stroke-width="0.0010cm" stroke-linecap="round" stroke-linejoin="round" shaper:cutDepth="0.003175" /><path d="M-5.4074772,-0.2094562 L-5.0903165,-0.2094562 A0.15875,0.15875 270 0,1 -4.9863707,-0.170693 L-4.8520203,-0.0543039 A0.15875,0.15875 130.9027164 0,0 -4.7480745,-0.0155408 L-4.4437158,-0.0155408 A0.15875,0.15875 90 0,0 -4.2849658,-0.1742908 L-4.2849658,-0.5107429 A0.15875,0.15875 0 0,0 -4.4437158,-0.6694929 L-4.7072265,-0.6694929 A0.15875,0.15875 90 0,1 -4.7957661,-0.6964768 L-4.908262,-0.7720679 A0.15875,0.15875 303.8989365 0,0 -4.9968016,-0.7990518 L-5.4074772,-0.7990518 A0.15875,0.15875 270 0,0 -5.5662272,-0.6403018 L-5.5662272,-0.3682062 A0.15875,0.15875 180 0,0 -5.4074772,-0.2094562z" transform="matrix(1,0,0,-1,7.3025,9.3273634)" fill="rgb(255,255,255)" stroke="rgb(0,0,0)" stroke-width="0.0010cm" stroke-linecap="round" stroke-linejoin="round" shaper:cutDepth="0.003175" /><path d="M-1.6680672,-0.2093468 A0.15875,0.15875 0 0,1 -1.8268172,-0.0505968 L-2.8924222,-0.0505968 A0.15875,0.15875 90 0,1 -3.0511722,-0.2093468 L-3.0511722,-0.5768115 A0.15875,0.15875 180 0,1 -2.8924222,-0.7355615 L-1.8268172,-0.7355615 A0.15875,0.15875 270 0,1 -1.6680672,-0.5768115 L-1.6680672,-0.2093468z" transform="matrix(1,0,0,-1,7.3025,9.3273634)" fill="rgb(255,255,255)" stroke="rgb(0,0,0)" stroke-width="0.0010cm" stroke-linecap="round" stroke-linejoin="round" shaper:cutDepth="0.003175" /><path d="M-4.5398769,8.1923048 A0.15875,0.15875 180 0,1 -4.3811269,8.0335548 L-2.4833509,8.0335548 A0.15875,0.15875 270 0,1 -2.3246009,8.1923048 L-2.3246009,8.5232195 A0.15875,0.15875 0 0,1 -2.4833509,8.6819695 L-4.3811269,8.6819695 A0.15875,0.15875 90 0,1 -4.5398769,8.5232195 L-4.5398769,8.1923048z" transform="matrix(1,0,0,-1,7.3025,9.3273634)" fill="rgb(255,255,255)" stroke="rgb(0,0,0)" stroke-width="0.0010cm" stroke-linecap="round" stroke-linejoin="round" shaper:cutDepth="0.003175" /><path d="M-1.76022,-2.4201366 a0.17272,0.17272 0 1,1 0.34544,0 a0.17272,0.17272 0 1,1 -0.34544,0z" transform="matrix(1,0,0,-1,7.3025,9.3273634)" fill="rgb(255,255,255)" stroke="rgb(0,0,0)" stroke-width="0.0010cm" stroke-linecap="round" stroke-linejoin="round" shaper:cutDepth="0.003175" /><path d="M1.41478,-2.4201366 a0.17272,0.17272 0 1,1 0.34544,0 a0.17272,0.17272 0 1,1 -0.34544,0z" transform="matrix(1,0,0,-1,7.3025,9.3273634)" fill="rgb(255,255,255)" stroke="rgb(0,0,0)" stroke-width="0.0010cm" stroke-linecap="round" stroke-linejoin="round" shaper:cutDepth="0.003175" /><path d="M-0.83185,0.8241364 A0.9652,0.9652 210.4759522 0,1 0.83185,0.8241364 L0.83185,1.8031903 A0.9652,0.9652 30.4759522 0,1 -0.83185,1.8031903 L-0.83185,0.8241364z" transform="matrix(1,0,0,-1,7.3025,9.3273634)" fill="rgb(255,255,255)" stroke="rgb(0,0,0)" stroke-width="0.0010cm" stroke-linecap="round" stroke-linejoin="round" shaper:cutDepth="0.003175" /><path d="M-4.10972,-0.3627366 a0.49022,0.49022 0 1,1 0.98044,0 a0.49022,0.49022 0 1,1 -0.98044,0z" transform="matrix(1,0,0,-1,7.3025,9.3273634)" fill="rgb(255,255,255)" stroke="rgb(0,0,0)" stroke-width="0.0010cm" stroke-linecap="round" stroke-linejoin="round" shaper:cutDepth="0.003175" /><path d="M-3.0076613,0.1971288 a0.15875,0.15875 0 1,1 0.3175,0 a0.15875,0.15875 0 1,1 -0.3175,0z" transform="matrix(1,0,0,-1,7.3025,9.3273634)" fill="rgb(255,255,255)" stroke="rgb(0,0,0)" stroke-width="0.0010cm" stroke-linecap="round" stroke-linejoin="round" shaper:cutDepth="0.003175" /><path d="M-3.9624,3.2948634 a0.3429,0.3429 0 1,1 0.6858,0 a0.3429,0.3429 0 1,1 -0.6858,0z" transform="matrix(1,0,0,-1,7.3025,9.3273634)" fill="rgb(255,255,255)" stroke="rgb(0,0,0)" stroke-width="0.0010cm" stroke-linecap="round" stroke-linejoin="round" shaper:cutDepth="0.003175" /><path d="M3.12928,-0.3627366 a0.49022,0.49022 0 1,1 0.98044,0 a0.49022,0.49022 0 1,1 -0.98044,0z" transform="matrix(1,0,0,-1,7.3025,9.3273634)" fill="rgb(255,255,255)" stroke="rgb(0,0,0)" stroke-width="0.0010cm" stroke-linecap="round" stroke-linejoin="round" shaper:cutDepth="0.003175" /><path d="M5.817235,-2.5788866 a0.215265,0.215265 0 1,1 0.43053,0 a0.215265,0.215265 0 1,1 -0.43053,0z" transform="matrix(1,0,0,-1,7.3025,9.3273634)" fill="rgb(255,255,255)" stroke="rgb(0,0,0)" stroke-width="0.0010cm" stroke-linecap="round" stroke-linejoin="round" shaper:cutDepth="0.003175" /><path d="M-6.247765,-2.5788866 a0.215265,0.215265 0 1,1 0.43053,0 a0.215265,0.215265 0 1,1 -0.43053,0z" transform="matrix(1,0,0,-1,7.3025,9.3273634)" fill="rgb(255,255,255)" stroke="rgb(0,0,0)" stroke-width="0.0010cm" stroke-linecap="round" stroke-linejoin="round" shaper:cutDepth="0.003175" /><path d="M-7.028815,-1.6263866 a0.215265,0.215265 0 1,1 0.43053,0 a0.215265,0.215265 0 1,1 -0.43053,0z" transform="matrix(1,0,0,-1,7.3025,9.3273634)" fill="rgb(255,255,255)" stroke="rgb(0,0,0)" stroke-width="0.0010cm" stroke-linecap="round" stroke-linejoin="round" shaper:cutDepth="0.003175" /><path d="M-6.247765,-0.5151366 a0.215265,0.215265 0 1,1 0.43053,0 a0.215265,0.215265 0 1,1 -0.43053,0z" transform="matrix(1,0,0,-1,7.3025,9.3273634)" fill="rgb(255,255,255)" stroke="rgb(0,0,0)" stroke-width="0.0010cm" stroke-linecap="round" stroke-linejoin="round" shaper:cutDepth="0.003175" /><path d="M-7.028815,3.1361134 a0.215265,0.215265 0 1,1 0.43053,0 a0.215265,0.215265 0 1,1 -0.43053,0z" transform="matrix(1,0,0,-1,7.3025,9.3273634)" fill="rgb(255,255,255)" stroke="rgb(0,0,0)" stroke-width="0.0010cm" stroke-linecap="round" stroke-linejoin="round" shaper:cutDepth="0.003175" /><path d="M-6.247765,4.2600634 a0.215265,0.215265 0 1,1 0.43053,0 a0.215265,0.215265 0 1,1 -0.43053,0z" transform="matrix(1,0,0,-1,7.3025,9.3273634)" fill="rgb(255,255,255)" stroke="rgb(0,0,0)" stroke-width="0.0010cm" stroke-linecap="round" stroke-linejoin="round" shaper:cutDepth="0.003175" /><path d="M-6.247765,8.8511134 a0.215265,0.215265 0 1,1 0.43053,0 a0.215265,0.215265 0 1,1 -0.43053,0z" transform="matrix(1,0,0,-1,7.3025,9.3273634)" fill="rgb(255,255,255)" stroke="rgb(0,0,0)" stroke-width="0.0010cm" stroke-linecap="round" stroke-linejoin="round" shaper:cutDepth="0.003175" /><path d="M5.817235,8.8511134 a0.215265,0.215265 0 1,1 0.43053,0 a0.215265,0.215265 0 1,1 -0.43053,0z" transform="matrix(1,0,0,-1,7.3025,9.3273634)" fill="rgb(255,255,255)" stroke="rgb(0,0,0)" stroke-width="0.0010cm" stroke-linecap="round" stroke-linejoin="round" shaper:cutDepth="0.003175" /><path d="M5.817235,4.2600634 a0.215265,0.215265 0 1,1 0.43053,0 a0.215265,0.215265 0 1,1 -0.43053,0z" transform="matrix(1,0,0,-1,7.3025,9.3273634)" fill="rgb(255,255,255)" stroke="rgb(0,0,0)" stroke-width="0.0010cm" stroke-linecap="round" stroke-linejoin="round" shaper:cutDepth="0.003175" /><path d="M5.817235,-0.5151366 a0.215265,0.215265 0 1,1 0.43053,0 a0.215265,0.215265 0 1,1 -0.43053,0z" transform="matrix(1,0,0,-1,7.3025,9.3273634)" fill="rgb(255,255,255)" stroke="rgb(0,0,0)" stroke-width="0.0010cm" stroke-linecap="round" stroke-linejoin="round" shaper:cutDepth="0.003175" /><path d="M6.598285,-1.6263866 a0.215265,0.215265 0 1,1 0.43053,0 a0.215265,0.215265 0 1,1 -0.43053,0z" transform="matrix(1,0,0,-1,7.3025,9.3273634)" fill="rgb(255,255,255)" stroke="rgb(0,0,0)" stroke-width="0.0010cm" stroke-linecap="round" stroke-linejoin="round" shaper:cutDepth="0.003175" /><path d="M-7.028815,7.8986134 a0.215265,0.215265 0 1,1 0.43053,0 a0.215265,0.215265 0 1,1 -0.43053,0z" transform="matrix(1,0,0,-1,7.3025,9.3273634)" fill="rgb(255,255,255)" stroke="rgb(0,0,0)" stroke-width="0.0010cm" stroke-linecap="round" stroke-linejoin="round" shaper:cutDepth="0.003175" /><path d="M6.598285,7.8986134 a0.215265,0.215265 0 1,1 0.43053,0 a0.215265,0.215265 0 1,1 -0.43053,0z" transform="matrix(1,0,0,-1,7.3025,9.3273634)" fill="rgb(255,255,255)" stroke="rgb(0,0,0)" stroke-width="0.0010cm" stroke-linecap="round" stroke-linejoin="round" shaper:cutDepth="0.003175" /><path d="M6.598285,3.1361134 a0.215265,0.215265 0 1,1 0.43053,0 a0.215265,0.215265 0 1,1 -0.43053,0z" transform="matrix(1,0,0,-1,7.3025,9.3273634)" fill="rgb(255,255,255)" stroke="rgb(0,0,0)" stroke-width="0.0010cm" stroke-linecap="round" stroke-linejoin="round" shaper:cutDepth="0.003175" /></svg>