<?xml version="1.0" encoding="utf-8"?>
<!-- Generator: Fusion 360, Shaper Origin Export Add-In, Version 1.6.10  -->
<svg xmlns="http://www.w3.org/2000/svg" xmlns:xlink="http://www.w3.org/1999/xlink" xmlns:shaper="http://www.shapertools.com/namespaces/shaper" shaper:fusionaddin="version:1.6.10" width="3.937cm" height="0.7706149cm" version="1.1" x="0cm" y="0cm" viewBox="0 0 3.937 0.7706149" enable-background="new 0 0 3.937 0.7706149" xml:space="preserve"><path d="M1.9685,0.7071527 L-1.9685,0.7071527 -1.9685,-0.0634623 1.9685,-0.0634623 1.9685,0.7071527z" transform="matrix(1,0,0,-1,1.9685,0.7071527)" fill="rgb(0,0,0)" shaper:cutDepth="0.0016" stroke-linecap="round" stroke-linejoin="round" /><path d="M-0.6570669,0.4955913 L-0.6570669,0.4955913 -0.6468889,0.4950609 -0.6368092,0.4935472 -0.6269063,0.4911381 -0.6172442,0.4878921 -0.6078666,0.4838995 -0.5988365,0.4791721 -0.5902163,0.4737341 -0.5820205,0.4676747 -0.5820205,0.4676747 -0.5737539,0.4600755 -0.5662799,0.4516917 -0.5595431,0.4427076 -0.5535762,0.4331938 -0.548337,0.4232601 -0.5438191,0.4129784 -0.539938,0.4024395 -0.5366367,0.3917048 -0.5316818,0.369801 -0.5284835,0.3475725 -0.5267819,0.3251773 -0.5263515,0.3027203 -0.5263515,0.3027203 -0.5268534,0.2815123 -0.5284395,0.2603622 -0.5314119,0.2393547 -0.5360401,0.2186574 -0.5425518,0.1984656 -0.546606,0.1886643 -0.5512827,0.1791423 -0.5565842,0.1699443 -0.5625446,0.1611638 -0.5763551,0.1450735 -0.5763551,0.1450735 -0.5847018,0.1379521 -0.5937264,0.1317123 -0.6032264,0.1262222 -0.6132068,0.1216659 -0.6235193,0.1179149 -0.6341473,0.1151974 -0.6449649,0.1133545 -0.6559174,0.1127231 -0.6559174,0.1127231 -0.6696133,0.1137818 -0.6830721,0.1165449 -0.6961587,0.1207213 -0.7087393,0.126243 -0.7207261,0.1329564 -0.7319985,0.140808 -0.7424019,0.1497817 -0.751655,0.159935 -0.751655,0.159935 -0.7620304,0.1764499 -0.7702206,0.1941628 -0.7765853,0.2126008 -0.781293,0.2315365 -0.7846408,0.2507572 -0.7868545,0.2701436 -0.7880419,0.2896171 -0.7884393,0.3091247 -0.7884393,0.3091247 -0.7878941,0.3289528 -0.7863346,0.3487252 -0.7834368,0.368348 -0.7791712,0.3877185 -0.7733276,0.406674 -0.7655313,0.4249058 -0.7608549,0.4336616 -0.7556189,0.4420895 -0.7434443,0.4577397 -0.7434443,0.4577397 -0.7345077,0.4658573 -0.7248443,0.4730944 -0.7145667,0.4794294 -0.7037748,0.4848426 -0.6925311,0.4892395 -0.680945,0.4926339 -0.6690651,0.4947845 -0.6570255,0.4956734 -0.6570669,0.4955913z M-0.6115793,0.4298231 L-0.6115793,0.4298231 -0.6215767,0.4374463 -0.6327051,0.443296 -0.6385476,0.4456226 -0.6445848,0.4473658 -0.650759,0.4485551 -0.6570255,0.4490361 -0.6570669,0.4489542 -0.6570669,0.4489542 -0.6642238,0.448376 -0.6712644,0.446961 -0.6781188,0.4448188 -0.6847687,0.4421089 -0.6972863,0.4350871 -0.7029761,0.4307058 -0.70822,0.4257998 -0.70822,0.4257998 -0.7179292,0.4135359 -0.7254419,0.3998003 -0.7310931,0.3852088 -0.7352886,0.3701267 -0.7383235,0.3547714 -0.7402953,0.3392423 -0.7413218,0.3236234 -0.74172,0.3079752 -0.74172,0.3079752 -0.7406712,0.2775472 -0.7391729,0.2623946 -0.7368524,0.2473478 -0.7334799,0.2324992 -0.7287172,0.2180442 -0.7224889,0.2041457 -0.7144602,0.1912181 -0.7144602,0.1912181 -0.7091286,0.1846048 -0.7031248,0.1785971 -0.6965249,0.1732479 -0.6893853,0.1686481 -0.6818035,0.1648121 -0.6738052,0.1619638 -0.6655331,0.1600208 -0.6570669,0.1593603 -0.6570669,0.1593603 -0.6496579,0.1599268 -0.6423752,0.1614053 -0.6353225,0.1637485 -0.628499,0.1666914 -0.6219755,0.1702517 -0.6158065,0.1743958 -0.6100582,0.1791055 -0.6047643,0.184321 -0.6047643,0.184321 -0.5953837,0.1972594 -0.5880989,0.2114908 -0.5826434,0.2265177 -0.5786512,0.2419985 -0.5758958,0.2577482 -0.5741702,0.2736435 -0.5729887,0.3055941 -0.5729887,0.3055941 -0.5732822,0.3223019 -0.5744367,0.3389676 -0.5766343,0.3555343 -0.5800007,0.3718993 -0.5849176,0.3878681 -0.5916741,0.4031437 -0.5958001,0.4104172 -0.6004843,0.4173437 -0.6115793,0.4298231z" transform="matrix(1,0,0,-1,1.9685,0.7071527)" fill="rgb(104,104,104)" fill-rule="nonzero" shaper:cutDepth="0.0000762" stroke-linecap="round" stroke-linejoin="round" /><path d="M-0.8935371,0.4601208 L-0.8934552,0.2152185 -1.0628279,0.4742744 -1.0628279,0.4742744 -1.0674223,0.4803516 -1.0728443,0.4856883 -1.0760205,0.4878123 -1.0795242,0.4893419 -1.087065,0.4903364 -1.087065,0.4903364 -1.0936151,0.4894024 -1.0996077,0.4866204 -1.1046574,0.4823308 -1.1078382,0.4765423 -1.1078382,0.4765423 -1.1087032,0.4727593 -1.1088979,0.4688771 -1.1089878,0.4611061 -1.1089057,0.1431633 -1.1089057,0.1431633 -1.1087344,0.1335575 -1.1081425,0.1287918 -1.1066887,0.1242182 -1.1066887,0.1242182 -1.1028716,0.1193329 -1.0978826,0.1156529 -1.0920684,0.1135121 -1.0859155,0.1127231 -1.0859155,0.1127231 -1.0808641,0.1131695 -1.0759724,0.1144995 -1.0715402,0.1169588 -1.0678969,0.1204722 -1.0653199,0.1248445 -1.063602,0.1296111 -1.0622685,0.1396544 -1.0622685,0.3884943 -0.8934552,0.1277228 -0.8934552,0.1277228 -0.8889359,0.1218168 -0.8833496,0.1169405 -0.876674,0.1136544 -0.8693154,0.1127231 -0.8693154,0.1127231 -0.8644119,0.1131038 -0.8596734,0.1144121 -0.8553905,0.1168182 -0.8519747,0.1203528 -0.849579,0.1246423 -0.8480726,0.1293278 -0.8469,0.1390797 -0.8468179,0.4622652 -0.8468179,0.4622652 -0.8476992,0.472725 -0.8490705,0.4778026 -0.85141,0.4825037 -0.8549746,0.4863553 -0.8595345,0.4889554 -0.8646363,0.4902006 -0.8698901,0.4903364 -0.8698901,0.4903364 -0.8754546,0.4900421 -0.8808658,0.4887247 -0.8857003,0.4859763 -0.889335,0.4817628 -0.8915959,0.4766767 -0.8928091,0.4712343 -0.8935371,0.4601208z" transform="matrix(1,0,0,-1,1.9685,0.7071527)" fill="rgb(104,104,104)" fill-rule="nonzero" shaper:cutDepth="0.0000762" stroke-linecap="round" stroke-linejoin="round" /><path d="M-0.3661223,0.5802282 L-0.3661223,0.0634623 1.1960707,0.0634623 1.1960707,0.5802282 -0.3661223,0.5802282z" transform="matrix(1,0,0,-1,1.9685,0.7071527)" fill="rgb(104,104,104)" fill-rule="nonzero" shaper:cutDepth="0.0000762" stroke-linecap="round" stroke-linejoin="round" /><path d="M-1.76,0.3218452 a0.1725,0.1725 0 1,1 0.345,0 a0.1725,0.1725 0 1,1 -0.345,0z" transform="matrix(1,0,0,-1,1.9685,0.7071527)" fill="rgb(255,255,255)" stroke="rgb(0,0,0)" stroke-width="0.0010cm" stroke-linecap="round" stroke-linejoin="round" shaper:cutDepth="0.0016" /><path d="M1.415,0.3218452 a0.1725,0.1725 0 1,1 0.345,0 a0.1725,0.1725 0 1,1 -0.345,0z" transform="matrix(1,0,0,-1,1.9685,0.7071527)" fill="rgb(255,255,255)" stroke="rgb(0,0,0)" stroke-width="0.0010cm" stroke-linecap="round" stroke-linejoin="round" shaper:cutDepth="0.0016" /></svg>