  0
SECTION
  2
HEADER
  9
$ACADVER
  1
AC1024
  9
$ACADMAINTVER
 70
     6
  9
$DWGCODEPAGE
  3
UNDEFINED
  9
$INSBASE
 10
0.0
 20
0.0
 30
0.0
  9
$EXTMIN
 10
1.000000000000000E+20
 20
1.000000000000000E+20
 30
1.000000000000000E+20
  9
$EXTMAX
 10
-1.000000000000000E+20
 20
-1.000000000000000E+20
 30
-1.000000000000000E+20
  9
$LIMMIN
 10
0.0
 20
0.0
  9
$LIMMAX
 10
12.0
 20
9.0
  9
$ORTHOMODE
 70
     0
  9
$REGENMODE
 70
     1
  9
$FILLMODE
 70
     1
  9
$QTEXTMODE
 70
     0
  9
$MIRRTEXT
 70
     1
  9
$LTSCALE
 40
1.0
  9
$ATTMODE
 70
     1
  9
$TEXTSIZE
 40
0.2
  9
$TRACEWID
 40
0.05
  9
$TEXTSTYLE
  7
Standard
  9
$CLAYER
  8
0
  9
$CELTYPE
  6
ByLayer
  9
$CECOLOR
 62
   256
  9
$CELTSCALE
 40
1.0
  9
$DISPSILH
 70
     0
  9
$DIMSCALE
 40
1.0
  9
$DIMASZ
 40
0.18
  9
$DIMEXO
 40
0.0625
  9
$DIMDLI
 40
0.38
  9
$DIMRND
 40
0.0
  9
$DIMDLE
 40
0.0
  9
$DIMEXE
 40
0.18
  9
$DIMTP
 40
0.0
  9
$DIMTM
 40
0.0
  9
$DIMTXT
 40
0.18
  9
$DIMCEN
 40
0.09
  9
$DIMTSZ
 40
0.0
  9
$DIMTOL
 70
     0
  9
$DIMLIM
 70
     0
  9
$DIMTIH
 70
     1
  9
$DIMTOH
 70
     1
  9
$DIMSE1
 70
     0
  9
$DIMSE2
 70
     0
  9
$DIMTAD
 70
     0
  9
$DIMZIN
 70
     0
  9
$DIMBLK
  1

  9
$DIMASO
 70
     1
  9
$DIMSHO
 70
     1
  9
$DIMPOST
  1

  9
$DIMAPOST
  1

  9
$DIMALT
 70
     0
  9
$DIMALTD
 70
     2
  9
$DIMALTF
 40
25.4
  9
$DIMLFAC
 40
1.0
  9
$DIMTOFL
 70
     0
  9
$DIMTVP
 40
0.0
  9
$DIMTIX
 70
     0
  9
$DIMSOXD
 70
     0
  9
$DIMSAH
 70
     0
  9
$DIMBLK1
  1

  9
$DIMBLK2
  1

  9
$DIMSTYLE
  2
Standard
  9
$DIMCLRD
 70
     0
  9
$DIMCLRE
 70
     0
  9
$DIMCLRT
 70
     0
  9
$DIMTFAC
 40
1.0
  9
$DIMGAP
 40
0.09
  9
$DIMJUST
 70
     0
  9
$DIMSD1
 70
     0
  9
$DIMSD2
 70
     0
  9
$DIMTOLJ
 70
     1
  9
$DIMTZIN
 70
     0
  9
$DIMALTZ
 70
     0
  9
$DIMALTTZ
 70
     0
  9
$DIMUPT
 70
     0
  9
$DIMDEC
 70
     4
  9
$DIMTDEC
 70
     4
  9
$DIMALTU
 70
     2
  9
$DIMALTTD
 70
     2
  9
$DIMTXSTY
  7
Standard
  9
$DIMAUNIT
 70
     0
  9
$DIMADEC
 70
     0
  9
$DIMALTRND
 40
0.0
  9
$DIMAZIN
 70
     0
  9
$DIMDSEP
 70
    46
  9
$DIMATFIT
 70
     3
  9
$DIMFRAC
 70
     0
  9
$DIMLDRBLK
  1

  9
$DIMLUNIT
 70
     2
  9
$DIMLWD
 70
    -2
  9
$DIMLWE
 70
    -2
  9
$DIMTMOVE
 70
     0
  9
$DIMFXL
 40
1.0
  9
$DIMFXLON
 70
     0
  9
$DIMJOGANG
 40
0.7853981633974483
  9
$DIMTFILL
 70
     0
  9
$DIMTFILLCLR
 70
     0
  9
$DIMARCSYM
 70
     0
  9
$DIMLTYPE
  6

  9
$DIMLTEX1
  6

  9
$DIMLTEX2
  6

  9
$DIMTXTDIRECTION
 70
     0
  9
$LUNITS
 70
     2
  9
$LUPREC
 70
     4
  9
$SKETCHINC
 40
0.1
  9
$FILLETRAD
 40
0.5
  9
$AUNITS
 70
     0
  9
$AUPREC
 70
     0
  9
$MENU
  1
.
  9
$ELEVATION
 40
0.0
  9
$PELEVATION
 40
0.0
  9
$THICKNESS
 40
0.0
  9
$LIMCHECK
 70
     0
  9
$CHAMFERA
 40
0.5
  9
$CHAMFERB
 40
0.5
  9
$CHAMFERC
 40
1.0
  9
$CHAMFERD
 40
0.0
  9
$SKPOLY
 70
     0
  9
$TDCREATE
 40
2458843.939456007
  9
$TDUCREATE
 40
2458843.897789352
  9
$TDUPDATE
 40
2458843.939456007
  9
$TDUUPDATE
 40
2458843.897789352
  9
$TDINDWG
 40
0.0000000116
  9
$TDUSRTIMER
 40
0.0000000116
  9
$USRTIMER
 70
     1
  9
$ANGBASE
 50
0.0
  9
$ANGDIR
 70
     0
  9
$PDMODE
 70
     0
  9
$PDSIZE
 40
0.0
  9
$PLINEWID
 40
0.0
  9
$SPLFRAME
 70
     0
  9
$SPLINETYPE
 70
     6
  9
$SPLINESEGS
 70
     8
  9
$HANDSEED
  5
7B
  9
$SURFTAB1
 70
     6
  9
$SURFTAB2
 70
     6
  9
$SURFTYPE
 70
     6
  9
$SURFU
 70
     6
  9
$SURFV
 70
     6
  9
$UCSBASE
  2

  9
$UCSNAME
  2

  9
$UCSORG
 10
0.0
 20
0.0
 30
0.0
  9
$UCSXDIR
 10
1.0
 20
0.0
 30
0.0
  9
$UCSYDIR
 10
0.0
 20
1.0
 30
0.0
  9
$UCSORTHOREF
  2

  9
$UCSORTHOVIEW
 70
     0
  9
$UCSORGTOP
 10
0.0
 20
0.0
 30
0.0
  9
$UCSORGBOTTOM
 10
0.0
 20
0.0
 30
0.0
  9
$UCSORGLEFT
 10
0.0
 20
0.0
 30
0.0
  9
$UCSORGRIGHT
 10
0.0
 20
0.0
 30
0.0
  9
$UCSORGFRONT
 10
0.0
 20
0.0
 30
0.0
  9
$UCSORGBACK
 10
0.0
 20
0.0
 30
0.0
  9
$PUCSBASE
  2

  9
$PUCSNAME
  2

  9
$PUCSORG
 10
0.0
 20
0.0
 30
0.0
  9
$PUCSXDIR
 10
1.0
 20
0.0
 30
0.0
  9
$PUCSYDIR
 10
0.0
 20
1.0
 30
0.0
  9
$PUCSORTHOREF
  2

  9
$PUCSORTHOVIEW
 70
     0
  9
$PUCSORGTOP
 10
0.0
 20
0.0
 30
0.0
  9
$PUCSORGBOTTOM
 10
0.0
 20
0.0
 30
0.0
  9
$PUCSORGLEFT
 10
0.0
 20
0.0
 30
0.0
  9
$PUCSORGRIGHT
 10
0.0
 20
0.0
 30
0.0
  9
$PUCSORGFRONT
 10
0.0
 20
0.0
 30
0.0
  9
$PUCSORGBACK
 10
0.0
 20
0.0
 30
0.0
  9
$USERI1
 70
     0
  9
$USERI2
 70
     0
  9
$USERI3
 70
     0
  9
$USERI4
 70
     0
  9
$USERI5
 70
     0
  9
$USERR1
 40
0.0
  9
$USERR2
 40
0.0
  9
$USERR3
 40
0.0
  9
$USERR4
 40
0.0
  9
$USERR5
 40
0.0
  9
$WORLDVIEW
 70
     1
  9
$SHADEDGE
 70
     3
  9
$SHADEDIF
 70
    70
  9
$TILEMODE
 70
     1
  9
$MAXACTVP
 70
    64
  9
$PINSBASE
 10
0.0
 20
0.0
 30
0.0
  9
$PLIMCHECK
 70
     0
  9
$PEXTMIN
 10
1.000000000000000E+20
 20
1.000000000000000E+20
 30
1.000000000000000E+20
  9
$PEXTMAX
 10
-1.000000000000000E+20
 20
-1.000000000000000E+20
 30
-1.000000000000000E+20
  9
$PLIMMIN
 10
0.0
 20
0.0
  9
$PLIMMAX
 10
12.0
 20
9.0
  9
$UNITMODE
 70
     0
  9
$VISRETAIN
 70
     1
  9
$PLINEGEN
 70
     0
  9
$PSLTSCALE
 70
     1
  9
$TREEDEPTH
 70
  3020
  9
$CMLSTYLE
  2
Standard
  9
$CMLJUST
 70
     0
  9
$CMLSCALE
 40
1.0
  9
$PROXYGRAPHICS
 70
     1
  9
$MEASUREMENT
 70
     0
  9
$CELWEIGHT
370
    -1
  9
$ENDCAPS
280
     0
  9
$JOINSTYLE
280
     0
  9
$LWDISPLAY
290
     1
  9
$INSUNITS
 70
     1
  9
$HYPERLINKBASE
  1

  9
$STYLESHEET
  1

  9
$XEDIT
290
     1
  9
$CEPSNTYPE
380
     0
  9
$PSTYLEMODE
290
     1
  9
$FINGERPRINTGUID
  2
{E337E354-D558-0C51-3F45-6227BE523B14}
  9
$VERSIONGUID
  2
{FAEB1C32-E019-11D5-929B-00C0DF256EC4}
  9
$EXTNAMES
290
     1
  9
$PSVPSCALE
 40
0.0
  9
$OLESTARTUP
290
     0
  9
$SORTENTS
280
   127
  9
$INDEXCTL
280
     0
  9
$HIDETEXT
280
     1
  9
$XCLIPFRAME
280
     2
  9
$HALOGAP
280
     0
  9
$OBSCOLOR
 70
   257
  9
$OBSLTYPE
280
     0
  9
$INTERSECTIONDISPLAY
280
     0
  9
$INTERSECTIONCOLOR
 70
   257
  9
$DIMASSOC
280
     2
  9
$PROJECTNAME
  1

  9
$CAMERADISPLAY
290
     0
  9
$LENSLENGTH
 40
50.0
  9
$CAMERAHEIGHT
 40
0.0
  9
$STEPSPERSEC
 40
2.0
  9
$STEPSIZE
 40
6.0
  9
$3DDWFPREC
 40
2.0
  9
$PSOLWIDTH
 40
0.25
  9
$PSOLHEIGHT
 40
4.0
  9
$LOFTANG1
 40
1.570796326794897
  9
$LOFTANG2
 40
1.570796326794897
  9
$LOFTMAG1
 40
0.0
  9
$LOFTMAG2
 40
0.0
  9
$LOFTPARAM
 70
     7
  9
$LOFTNORMALS
280
     1
  9
$LATITUDE
 40
37.795
  9
$LONGITUDE
 40
-122.394
  9
$NORTHDIRECTION
 40
0.0
  9
$TIMEZONE
 70
 -8000
  9
$LIGHTGLYPHDISPLAY
280
     1
  9
$TILEMODELIGHTSYNCH
280
     1
  9
$CMATERIAL
347
3C
  9
$SOLIDHIST
280
     1
  9
$SHOWHIST
280
     1
  9
$DWFFRAME
280
     2
  9
$DGNFRAME
280
     2
  9
$REALWORLDSCALE
290
     1
  9
$INTERFERECOLOR
 62
   256
  9
$CSHADOW
280
     0
  9
$SHADOWPLANELOCATION
 40
0.0
  0
ENDSEC
  0
SECTION
  2
CLASSES
  0
CLASS
  1
ACDBDICTIONARYWDFLT
  2
AcDbDictionaryWithDefault
  3
ObjectDBX Classes
 90
        0
 91
        4
280
     0
281
     0
  0
CLASS
  1
VISUALSTYLE
  2
AcDbVisualStyle
  3
ObjectDBX Classes
 90
     4095
 91
        4
280
     0
281
     0
  0
CLASS
  1
MATERIAL
  2
AcDbMaterial
  3
ObjectDBX Classes
 90
     1153
 91
        4
280
     0
281
     0
  0
CLASS
  1
SUN
  2
AcDbSun
  3
SCENEOE
 90
     1024
 91
        4
280
     0
281
     0
  0
ENDSEC
  0
SECTION
  2
TABLES
  0
TABLE
  2
VPORT
  5
8
330
0
100
AcDbSymbolTable
 70
     1
  0
VPORT
  5
29
330
8
100
AcDbSymbolTableRecord
100
AcDbViewportTableRecord
  2
*Active
 70
     0
 10
0.0
 20
0.0
 11
1.0
 21
1.0
 12
0.0
 22
0.0
 13
0.0
 23
0.0
 14
0.5
 24
0.5
 15
0.5
 25
0.5
 16
0.0
 26
0.0
 36
1.0
 17
105.0007777515276
 27
148.5000416295416
 37
0.0
 40
24.99999999375009
 41
0.9999999999999869
 42
50.0
 43
0.0
 44
0.0
 50
0.0
 51
0.0
 71
     0
 72
   100
 73
     1
 74
     3
 75
     0
 76
     0
 77
     0
 78
     0
281
     0
 65
     1
110
0.0
120
0.0
130
0.0
111
1.0
121
0.0
131
0.0
112
0.0
122
1.0
132
0.0
 79
     0
146
0.0
 60
     3
 61
     5
292
     1
282
     1
141
0.0
142
0.0
 63
   250
361
3F
  0
ENDTAB
  0
TABLE
  2
LTYPE
  5
5
330
0
100
AcDbSymbolTable
 70
     1
  0
LTYPE
  5
14
330
5
100
AcDbSymbolTableRecord
100
AcDbLinetypeTableRecord
  2
ByBlock
 70
     0
  3

 72
    65
 73
     0
 40
0.0
  0
LTYPE
  5
15
330
5
100
AcDbSymbolTableRecord
100
AcDbLinetypeTableRecord
  2
ByLayer
 70
     0
  3

 72
    65
 73
     0
 40
0.0
  0
LTYPE
  5
16
330
5
100
AcDbSymbolTableRecord
100
AcDbLinetypeTableRecord
  2
Continuous
 70
     0
  3
Solid line
 72
    65
 73
     0
 40
0.0
  0
ENDTAB
  0
TABLE
  2
LAYER
  5
2
330
0
100
AcDbSymbolTable
 70
     1
  0
LAYER
  5
10
330
2
100
AcDbSymbolTableRecord
100
AcDbLayerTableRecord
  2
0
 70
     0
 62
     7
  6
Continuous
370
    -3
390
F
347
3E
  0
ENDTAB
  0
TABLE
  2
STYLE
  5
3
330
0
100
AcDbSymbolTable
 70
     1
  0
STYLE
  5
11
330
3
100
AcDbSymbolTableRecord
100
AcDbTextStyleTableRecord
  2
Standard
 70
     0
 40
0.0
 41
1.0
 50
0.0
 71
     0
 42
0.2
  3
txt
  4

  0
ENDTAB
  0
TABLE
  2
VIEW
  5
6
330
0
100
AcDbSymbolTable
 70
     0
  0
ENDTAB
  0
TABLE
  2
UCS
  5
7
330
0
100
AcDbSymbolTable
 70
     0
  0
ENDTAB
  0
TABLE
  2
APPID
  5
9
330
0
100
AcDbSymbolTable
 70
     1
  0
APPID
  5
12
330
9
100
AcDbSymbolTableRecord
100
AcDbRegAppTableRecord
  2
ACAD
 70
     0
  0
ENDTAB
  0
TABLE
  2
DIMSTYLE
  5
A
330
0
100
AcDbSymbolTable
 70
     1
100
AcDbDimStyleTable
  0
DIMSTYLE
105
27
330
A
100
AcDbSymbolTableRecord
100
AcDbDimStyleTableRecord
  2
Standard
 70
     0
178
     0
340
11
  0
ENDTAB
  0
TABLE
  2
BLOCK_RECORD
  5
1
330
0
100
AcDbSymbolTable
 70
     6
  0
BLOCK_RECORD
  5
1F
330
1
100
AcDbSymbolTableRecord
100
AcDbBlockTableRecord
  2
*Model_Space
340
22
 70
     0
280
     1
281
     0
  0
BLOCK_RECORD
  5
1B
330
1
100
AcDbSymbolTableRecord
100
AcDbBlockTableRecord
  2
*Paper_Space
340
1E
 70
     0
280
     1
281
     0
  0
BLOCK_RECORD
  5
23
330
1
100
AcDbSymbolTableRecord
100
AcDbBlockTableRecord
  2
*Paper_Space0
340
26
 70
     0
280
     1
281
     0
  0
BLOCK_RECORD
  5
40
330
1
100
AcDbSymbolTableRecord
100
AcDbBlockTableRecord
  2
block 2
340
0
102
{BLKREFS
331
41
102
}
 70
     0
280
     1
281
     0
  0
BLOCK_RECORD
  5
4C
330
1
100
AcDbSymbolTableRecord
100
AcDbBlockTableRecord
  2
block 3
340
0
102
{BLKREFS
331
4D
102
}
 70
     0
280
     1
281
     0
  0
BLOCK_RECORD
  5
51
330
1
100
AcDbSymbolTableRecord
100
AcDbBlockTableRecord
  2
block 4
340
0
102
{BLKREFS
331
52
102
}
 70
     0
280
     1
281
     0
  0
BLOCK_RECORD
  5
60
330
1
100
AcDbSymbolTableRecord
100
AcDbBlockTableRecord
  2
block 5
340
0
102
{BLKREFS
331
61
102
}
 70
     0
280
     1
281
     0
  0
BLOCK_RECORD
  5
6B
330
1
100
AcDbSymbolTableRecord
100
AcDbBlockTableRecord
  2
block 6
340
0
102
{BLKREFS
331
6C
102
}
 70
     0
280
     1
281
     0
  0
ENDTAB
  0
ENDSEC
  0
SECTION
  2
BLOCKS
  0
BLOCK
  5
20
330
1F
100
AcDbEntity
  8
0
100
AcDbBlockBegin
  2
*Model_Space
 70
     0
 10
0.0
 20
0.0
 30
0.0
  3
*Model_Space
  1

  0
ENDBLK
  5
21
330
1F
100
AcDbEntity
  8
0
100
AcDbBlockEnd
  0
BLOCK
  5
1C
330
1B
100
AcDbEntity
 67
     1
  8
0
100
AcDbBlockBegin
  2
*Paper_Space
 70
     0
 10
0.0
 20
0.0
 30
0.0
  3
*Paper_Space
  1

  0
ENDBLK
  5
1D
330
1B
100
AcDbEntity
 67
     1
  8
0
100
AcDbBlockEnd
  0
BLOCK
  5
24
330
23
100
AcDbEntity
  8
0
100
AcDbBlockBegin
  2
*Paper_Space0
 70
     0
 10
0.0
 20
0.0
 30
0.0
  3
*Paper_Space0
  1

  0
ENDBLK
  5
25
330
23
100
AcDbEntity
  8
0
100
AcDbBlockEnd
  0
BLOCK
  5
42
330
40
100
AcDbEntity
  8
0
100
AcDbBlockBegin
  2
block 2
 70
     0
 10
0.0
 20
0.0
 30
0.0
  3
block 2
  1

  0
POLYLINE
  5
44
330
40
100
AcDbEntity
  8
0
 62
     7
420
 16777215
370
     5
100
AcDb2dPolyline
 66
     1
 10
0.0
 20
0.0
 30
0.0
  0
VERTEX
  5
45
330
44
100
AcDbEntity
  8
0
 62
     7
420
 16777215
370
     5
100
AcDbVertex
100
AcDb2dVertex
 10
98.14277775131917
 20
144.7588332964725
 30
0.0
  0
VERTEX
  5
46
330
44
100
AcDbEntity
  8
0
 62
     7
420
 16777215
370
     5
100
AcDbVertex
100
AcDb2dVertex
 10
112.1127777513196
 20
144.7588332958462
 30
0.0
  0
VERTEX
  5
47
330
44
100
AcDbEntity
  8
0
 62
     7
420
 16777215
370
     5
100
AcDbVertex
100
AcDb2dVertex
 10
112.1127777516731
 20
152.6328332958456
 30
0.0
  0
VERTEX
  5
48
330
44
100
AcDbEntity
  8
0
 62
     7
420
 16777215
370
     5
100
AcDbVertex
100
AcDb2dVertex
 10
98.14277775167275
 20
152.6328332964729
 30
0.0
  0
VERTEX
  5
49
330
44
100
AcDbEntity
  8
0
 62
     7
420
 16777215
370
     5
100
AcDbVertex
100
AcDb2dVertex
 10
98.14277775131917
 20
144.7588332964725
 30
0.0
  0
SEQEND
  5
4B
330
44
100
AcDbEntity
  8
0
 62
     7
420
 16777215
370
     5
  0
HATCH
  5
4A
330
40
100
AcDbEntity
  8
0
 62
     7
420
 16777215
100
AcDbHatch
 10
0.0
 20
0.0
 30
0.0
210
0.0
220
0.0
230
1.0
  2
SOLID
 70
     1
 71
     0
 91
        1
 92
        1
 93
        4
 72
     1
 10
98.14277775131917
 20
144.7588332964725
 11
112.1127777513196
 21
144.7588332958462
 72
     1
 10
112.1127777513196
 20
144.7588332958462
 11
112.1127777516731
 21
152.6328332958456
 72
     1
 10
112.1127777516731
 20
152.6328332958456
 11
98.14277775167275
 21
152.6328332964729
 72
     1
 10
98.14277775167275
 20
152.6328332964729
 11
98.14277775131917
 21
144.7588332964725
 97
        0
 75
     2
 76
     1
 98
        0
  0
ENDBLK
  5
43
330
40
100
AcDbEntity
  8
0
100
AcDbBlockEnd
  0
BLOCK
  5
4E
330
4C
100
AcDbEntity
  8
0
100
AcDbBlockBegin
  2
block 3
 70
     0
 10
0.0
 20
0.0
 30
0.0
  3
block 3
  1

  0
SPLINE
  5
50
330
4C
100
AcDbEntity
  8
0
 62
     7
420
 16777215
370
     5
100
AcDbSpline
210
0.0
220
0.0
230
1.0
 70
    11
 71
     3
 72
   410
 73
   406
 74
     0
 42
0.0000000001
 43
0.0000000001
 12
1.0
 22
0.0
 32
0.0
 13
1.0
 23
0.0
 33
0.0
 40
0.0
 40
0.0
 40
0.0
 40
0.0
 40
1.0
 40
1.0
 40
1.0
 40
2.0
 40
2.0
 40
2.0
 40
3.0
 40
3.0
 40
3.0
 40
4.0
 40
4.0
 40
4.0
 40
5.0
 40
5.0
 40
5.0
 40
6.0
 40
6.0
 40
6.0
 40
7.0
 40
7.0
 40
7.0
 40
8.0
 40
8.0
 40
8.0
 40
9.0
 40
9.0
 40
9.0
 40
10.0
 40
10.0
 40
10.0
 40
11.0
 40
11.0
 40
11.0
 40
12.0
 40
12.0
 40
12.0
 40
13.0
 40
13.0
 40
13.0
 40
14.0
 40
14.0
 40
14.0
 40
15.0
 40
15.0
 40
15.0
 40
16.0
 40
16.0
 40
16.0
 40
17.0
 40
17.0
 40
17.0
 40
18.0
 40
18.0
 40
18.0
 40
19.0
 40
19.0
 40
19.0
 40
20.0
 40
20.0
 40
20.0
 40
21.0
 40
21.0
 40
21.0
 40
22.0
 40
22.0
 40
22.0
 40
23.0
 40
23.0
 40
23.0
 40
24.0
 40
24.0
 40
24.0
 40
25.0
 40
25.0
 40
25.0
 40
26.0
 40
26.0
 40
26.0
 40
27.0
 40
27.0
 40
27.0
 40
28.0
 40
28.0
 40
28.0
 40
29.0
 40
29.0
 40
29.0
 40
30.0
 40
30.0
 40
30.0
 40
31.0
 40
31.0
 40
31.0
 40
32.0
 40
32.0
 40
32.0
 40
33.0
 40
33.0
 40
33.0
 40
34.0
 40
34.0
 40
34.0
 40
35.0
 40
35.0
 40
35.0
 40
36.0
 40
36.0
 40
36.0
 40
37.0
 40
37.0
 40
37.0
 40
38.0
 40
38.0
 40
38.0
 40
39.0
 40
39.0
 40
39.0
 40
40.0
 40
40.0
 40
40.0
 40
41.0
 40
41.0
 40
41.0
 40
42.0
 40
42.0
 40
42.0
 40
43.0
 40
43.0
 40
43.0
 40
44.0
 40
44.0
 40
44.0
 40
45.0
 40
45.0
 40
45.0
 40
46.0
 40
46.0
 40
46.0
 40
47.0
 40
47.0
 40
47.0
 40
48.0
 40
48.0
 40
48.0
 40
49.0
 40
49.0
 40
49.0
 40
50.0
 40
50.0
 40
50.0
 40
51.0
 40
51.0
 40
51.0
 40
52.0
 40
52.0
 40
52.0
 40
53.0
 40
53.0
 40
53.0
 40
54.0
 40
54.0
 40
54.0
 40
55.0
 40
55.0
 40
55.0
 40
56.0
 40
56.0
 40
56.0
 40
57.0
 40
57.0
 40
57.0
 40
58.0
 40
58.0
 40
58.0
 40
59.0
 40
59.0
 40
59.0
 40
60.0
 40
60.0
 40
60.0
 40
61.0
 40
61.0
 40
61.0
 40
62.0
 40
62.0
 40
62.0
 40
63.0
 40
63.0
 40
63.0
 40
64.0
 40
64.0
 40
64.0
 40
65.0
 40
65.0
 40
65.0
 40
66.0
 40
66.0
 40
66.0
 40
67.0
 40
67.0
 40
67.0
 40
68.0
 40
68.0
 40
68.0
 40
69.0
 40
69.0
 40
69.0
 40
70.0
 40
70.0
 40
70.0
 40
71.0
 40
71.0
 40
71.0
 40
72.0
 40
72.0
 40
72.0
 40
73.0
 40
73.0
 40
73.0
 40
74.0
 40
74.0
 40
74.0
 40
75.0
 40
75.0
 40
75.0
 40
76.0
 40
76.0
 40
76.0
 40
77.0
 40
77.0
 40
77.0
 40
78.0
 40
78.0
 40
78.0
 40
79.0
 40
79.0
 40
79.0
 40
80.0
 40
80.0
 40
80.0
 40
81.0
 40
81.0
 40
81.0
 40
82.0
 40
82.0
 40
82.0
 40
83.0
 40
83.0
 40
83.0
 40
84.0
 40
84.0
 40
84.0
 40
85.0
 40
85.0
 40
85.0
 40
86.0
 40
86.0
 40
86.0
 40
87.0
 40
87.0
 40
87.0
 40
88.0
 40
88.0
 40
88.0
 40
89.0
 40
89.0
 40
89.0
 40
90.0
 40
90.0
 40
90.0
 40
91.0
 40
91.0
 40
91.0
 40
92.0
 40
92.0
 40
92.0
 40
93.0
 40
93.0
 40
93.0
 40
94.0
 40
94.0
 40
94.0
 40
95.0
 40
95.0
 40
95.0
 40
96.0
 40
96.0
 40
96.0
 40
97.0
 40
97.0
 40
97.0
 40
98.0
 40
98.0
 40
98.0
 40
99.0
 40
99.0
 40
99.0
 40
100.0
 40
100.0
 40
100.0
 40
101.0
 40
101.0
 40
101.0
 40
102.0
 40
102.0
 40
102.0
 40
103.0
 40
103.0
 40
103.0
 40
104.0
 40
104.0
 40
104.0
 40
105.0
 40
105.0
 40
105.0
 40
106.0
 40
106.0
 40
106.0
 40
107.0
 40
107.0
 40
107.0
 40
108.0
 40
108.0
 40
108.0
 40
109.0
 40
109.0
 40
109.0
 40
110.0
 40
110.0
 40
110.0
 40
111.0
 40
111.0
 40
111.0
 40
112.0
 40
112.0
 40
112.0
 40
113.0
 40
113.0
 40
113.0
 40
114.0
 40
114.0
 40
114.0
 40
115.0
 40
115.0
 40
115.0
 40
116.0
 40
116.0
 40
116.0
 40
117.0
 40
117.0
 40
117.0
 40
118.0
 40
118.0
 40
118.0
 40
119.0
 40
119.0
 40
119.0
 40
120.0
 40
120.0
 40
120.0
 40
121.0
 40
121.0
 40
121.0
 40
122.0
 40
122.0
 40
122.0
 40
123.0
 40
123.0
 40
123.0
 40
124.0
 40
124.0
 40
124.0
 40
125.0
 40
125.0
 40
125.0
 40
126.0
 40
126.0
 40
126.0
 40
127.0
 40
127.0
 40
127.0
 40
128.0
 40
128.0
 40
128.0
 40
129.0
 40
129.0
 40
129.0
 40
130.0
 40
130.0
 40
130.0
 40
131.0
 40
131.0
 40
131.0
 40
132.0
 40
132.0
 40
132.0
 40
133.0
 40
133.0
 40
133.0
 40
134.0
 40
134.0
 40
134.0
 40
135.0
 40
135.0
 40
135.0
 40
135.0
 10
107.6366230635447
 20
149.7858382350464
 30
0.0
 10
107.6183637125455
 20
149.7856819770473
 30
0.0
 10
107.6001043609124
 20
149.7855257191046
 30
0.0
 10
107.5819253593395
 20
149.7838612095044
 30
0.0
 10
107.5645798022607
 20
149.7822730119266
 30
0.0
 10
107.5473073965842
 20
149.7793116887565
 30
0.0
 10
107.5305226977028
 20
149.7746350907855
 30
0.0
 10
107.5144339718262
 20
149.7701524066874
 30
0.0
 10
107.4987933460098
 20
149.7640937454883
 30
0.0
 10
107.4837330940718
 20
149.7568418610287
 30
0.0
 10
107.4688052345073
 20
149.749653726777
 30
0.0
 10
107.4544475897167
 20
149.7412932559397
 30
0.0
 10
107.4408975437554
 20
149.7317995388126
 30
0.0
 10
107.4269563691435
 20
149.7220317809336
 30
0.0
 10
107.4138700897296
 20
149.7110644091168
 30
0.0
 10
107.4013570339978
 20
149.6995081224236
 30
0.0
 10
107.3886782629196
 20
149.6877987912555
 30
0.0
 10
107.3765879989157
 20
149.6754848434585
 30
0.0
 10
107.3651115674459
 20
149.6626036477403
 30
0.0
 10
107.3531463272066
 20
149.6491738109694
 30
0.0
 10
107.3418483222659
 20
149.6351273763259
 30
0.0
 10
107.331502134
 20
149.620427104039
 30
0.0
 10
107.3207677350999
 20
149.6051752467748
 30
0.0
 10
107.3110579212511
 20
149.5892195646119
 30
0.0
 10
107.301846752206
 20
149.572978493079
 30
0.0
 10
107.2823408221325
 20
149.53858576789
 30
0.0
 10
107.2650710121208
 20
149.5029132441499
 30
0.0
 10
107.2504440901009
 20
149.4662191180915
 30
0.0
 10
107.2347770812032
 20
149.4269157568903
 30
0.0
 10
107.2221421829523
 20
149.3864403402412
 30
0.0
 10
107.2109035807245
 20
149.3456205648009
 30
0.0
 10
107.1993252789553
 20
149.3035669651981
 30
0.0
 10
107.1892289581629
 20
149.2611478749174
 30
0.0
 10
107.1805891906505
 20
149.2184319270248
 30
0.0
 10
107.1721057898728
 20
149.1764890732367
 30
0.0
 10
107.1650266966505
 20
149.1342600099476
 30
0.0
 10
107.1588419101469
 20
149.0919022972374
 30
0.0
 10
107.1527659601998
 20
149.0502899728395
 30
0.0
 10
107.1475531188519
 20
149.0085534869884
 30
0.0
 10
107.1436847151057
 20
148.9666906845246
 30
0.0
 10
107.1399980591476
 20
148.9267947066795
 30
0.0
 10
107.1375324780254
 20
148.8867840027679
 30
0.0
 10
107.1357766129914
 20
148.8467511400756
 30
0.0
 10
107.1341874770806
 20
148.8105196196944
 30
0.0
 10
107.133179673495
 20
148.7742699489341
 30
0.0
 10
107.1324815705422
 20
148.7380147389948
 30
0.0
 10
107.1318979092306
 20
148.7077029300005
 30
0.0
 10
107.1315307314954
 20
148.6773872490694
 30
0.0
 10
107.1311635534939
 20
148.6470715680692
 30
0.0
 10
107.1313173904925
 20
148.6237859240692
 30
0.0
 10
107.1314712273865
 20
148.600500279861
 30
0.0
 10
107.1318225621057
 20
148.577216667698
 30
0.0
 10
107.1322137795303
 20
148.5512899536245
 30
0.0
 10
107.132849878783
 20
148.5253657591278
 30
0.0
 10
107.1337995878094
 20
148.4994536668058
 30
0.0
 10
107.1348466528767
 20
148.4708852885332
 30
0.0
 10
107.1362749204982
 20
148.4423316208347
 30
0.0
 10
107.1377536386766
 20
148.4137825631348
 30
0.0
 10
107.1393696948863
 20
148.3825819715279
 30
0.0
 10
107.1410460081747
 20
148.3513868860059
 30
0.0
 10
107.1430257066172
 20
148.3202033579882
 30
0.0
 10
107.1450786744793
 20
148.2878657153028
 30
0.0
 10
107.1474578998722
 20
148.2555405014488
 30
0.0
 10
107.1509338084086
 20
148.2233291101811
 30
0.0
 10
107.1543600671625
 20
148.1915778255486
 30
0.0
 10
107.1588519028332
 20
148.1599371350481
 30
0.0
 10
107.1641139784218
 20
148.1284318884359
 30
0.0
 10
107.1693101643318
 20
148.0973211383644
 30
0.0
 10
107.1752574216308
 20
148.0663424614647
 30
0.0
 10
107.1819072073466
 20
148.0355116911062
 30
0.0
 10
107.1885355021527
 20
148.0047805602414
 30
0.0
 10
107.1958617918231
 20
147.9741963814469
 30
0.0
 10
107.2043134958915
 20
147.9439095119588
 30
0.0
 10
107.2125129658721
 20
147.9145265289352
 30
0.0
 10
107.2217716785145
 20
147.8854233741272
 30
0.0
 10
107.2326508608572
 20
147.8569203916344
 30
0.0
 10
107.243209495461
 20
147.8292572302184
 30
0.0
 10
107.2552945144845
 20
147.8021593948139
 30
0.0
 10
107.2688963277594
 20
147.7758623474159
 30
0.0
 10
107.2818817822735
 20
147.7507569363982
 30
0.0
 10
107.2962496802116
 20
147.7263813831798
 30
0.0
 10
107.3117318794112
 20
147.70271240535
 30
0.0
 10
107.3270418867365
 20
147.6793066721419
 30
0.0
 10
107.3434415468065
 20
147.6565918847656
 30
0.0
 10
107.3618165244712
 20
147.6354935392885
 30
0.0
 10
107.3794952100205
 20
147.6151946838505
 30
0.0
 10
107.3990023461841
 20
147.5963920861226
 30
0.0
 10
107.4204682798837
 20
147.580136826714
 30
0.0
 10
107.441616546061
 20
147.564122123717
 30
0.0
 10
107.4646660635117
 20
147.550579922411
 30
0.0
 10
107.4890051629569
 20
147.5399373087091
 30
0.0
 10
107.5142959067755
 20
147.5288785751148
 30
0.0
 10
107.5409790478386
 20
147.5209506062267
 30
0.0
 10
107.5680861810079
 20
147.5162130033828
 30
0.0
 10
107.5974107646305
 20
147.5110878494252
 30
0.0
 10
107.6272315454427
 20
147.5096963750465
 30
0.0
 10
107.6570523264424
 20
147.5083049010452
 30
0.0
 10
107.6773217444425
 20
147.5092166010452
 30
0.0
 10
107.6975911623733
 20
147.5101283010285
 30
0.0
 10
107.7176811077274
 20
147.5129179605499
 30
0.0
 10
107.736482516301
 20
147.5155286957967
 30
0.0
 10
107.7551267361601
 20
147.5197842173949
 30
0.0
 10
107.7730378207972
 20
147.5260981302594
 30
0.0
 10
107.7900178622497
 20
147.532083837119
 30
0.0
 10
107.8063390062853
 20
147.53991950105
 30
0.0
 10
107.8218044488537
 20
147.5491634272987
 30
0.0
 10
107.8372225063578
 20
147.5583790307858
 30
0.0
 10
107.8517900979831
 20
147.5689942801729
 30
0.0
 10
107.8652990091173
 20
147.5807958350422
 30
0.0
 10
107.8787601692864
 20
147.5925556740683
 30
0.0
 10
107.8911701201303
 20
147.6054934467541
 30
0.0
 10
107.9028624933489
 20
147.6190183272837
 30
0.0
 10
107.9145398279796
 20
147.6325258122764
 30
0.0
 10
107.9255014296752
 20
147.6466188958213
 30
0.0
 10
107.9358129173116
 20
147.6611948699907
 30
0.0
 10
107.9463103242676
 20
147.6760336534942
 30
0.0
 10
107.9561339623
 20
147.6913728979413
 30
0.0
 10
107.9648092904848
 20
147.7073254645633
 30
0.0
 10
107.9737280367534
 20
147.7237256388261
 30
0.0
 10
107.9814331290512
 20
147.7407740361208
 30
0.0
 10
107.9885335959684
 20
147.7580691178602
 30
0.0
 10
108.0029568595809
 20
147.7932008248396
 30
0.0
 10
108.014885300761
 20
147.8293504081826
 30
0.0
 10
108.0241200543442
 20
147.8661465099391
 30
0.0
 10
108.0334772827369
 20
147.9034306155719
 30
0.0
 10
108.040068900322
 20
147.9413785020808
 30
0.0
 10
108.0452083261565
 20
147.9794959695889
 30
0.0
 10
108.0500781516034
 20
148.0156138977758
 30
0.0
 10
108.0536441453142
 20
148.0518840820902
 30
0.0
 10
108.0557524620684
 20
148.0882323708134
 30
0.0
 10
108.0575849609867
 20
148.119825441252
 30
0.0
 10
108.0583162324714
 20
148.1514775170274
 30
0.0
 10
108.0590475044727
 20
148.1831295930274
 30
0.0
 10
108.0590475044727
 20
148.1831295930274
 30
0.0
 10
107.6260789284734
 20
148.183129593047
 30
0.0
 10
107.6260789284734
 20
148.183129593047
 30
0.0
 10
107.6260789284734
 20
148.183129593047
 30
0.0
 10
107.6260789285016
 20
148.8157777410472
 30
0.0
 10
107.6260789285016
 20
148.8157777410472
 30
0.0
 10
107.6260789285016
 20
148.8157777410472
 30
0.0
 10
108.7338721955013
 20
148.8157777409974
 30
0.0
 10
108.7338721955013
 20
148.8157777409974
 30
0.0
 10
108.7338721955013
 20
148.8157777409974
 30
0.0
 10
108.7338721954891
 20
148.5508563289972
 30
0.0
 10
108.7338721954891
 20
148.5508563289972
 30
0.0
 10
108.7333317324874
 20
148.5053757919973
 30
0.0
 10
108.7327912685956
 20
148.4598952555081
 30
0.0
 10
108.7312361619835
 20
148.414441570845
 30
0.0
 10
108.7296412407669
 20
148.3678241586337
 30
0.0
 10
108.7269790569813
 20
148.3212349907962
 30
0.0
 10
108.7233280600752
 20
148.2747317723058
 30
0.0
 10
108.7195623818919
 20
148.2267678436057
 30
0.0
 10
108.7147447958618
 20
148.1788953485558
 30
0.0
 10
108.7094888819739
 20
148.1310679224697
 30
0.0
 10
108.7041189826756
 20
148.0822032592897
 30
0.0
 10
108.6982915372616
 20
148.0333856410992
 30
0.0
 10
108.6910366443982
 20
147.9847680378259
 30
0.0
 10
108.6837866798265
 20
147.9361834607719
 30
0.0
 10
108.6751112064938
 20
147.887798626986
 30
0.0
 10
108.6646763045979
 20
147.8397861704879
 30
0.0
 10
108.6545575699497
 20
147.7932284441271
 30
0.0
 10
108.6427844094338
 20
147.7470208715789
 30
0.0
 10
108.6290898463812
 20
147.7013943879878
 30
0.0
 10
108.6156680105995
 20
147.6566765559785
 30
0.0
 10
108.6004005397151
 20
147.6125168986133
 30
0.0
 10
108.5836182609786
 20
147.5689336828038
 30
0.0
 10
108.5672761570676
 20
147.5264935915228
 30
0.0
 10
108.5494976656371
 20
147.4846000999007
 30
0.0
 10
108.5295795641723
 20
147.443722068653
 30
0.0
 10
108.5099753307657
 20
147.4034881905804
 30
0.0
 10
108.4882983876843
 20
147.364238021927
 30
0.0
 10
108.4643377248291
 20
147.3264185590306
 30
0.0
 10
108.4408295311947
 20
147.2893132726557
 30
0.0
 10
108.4151230541913
 20
147.2535851678016
 30
0.0
 10
108.3872337308052
 20
147.2196591829727
 30
0.0
 10
108.3593866932989
 20
147.1857846368286
 30
0.0
 10
108.3293634236681
 20
147.1537067500922
 30
0.0
 10
108.2976085771741
 20
147.123443944517
 30
0.0
 10
108.2655346899257
 20
147.092877088714
 30
0.0
 10
108.2316942567394
 20
147.064161969509
 30
0.0
 10
108.1961212702118
 20
147.0377728412532
 30
0.0
 10
108.1779577830435
 20
147.0242986115278
 30
0.0
 10
108.1593426017697
 20
147.0114307910665
 30
0.0
 10
108.1401055480945
 20
146.999550348361
 30
0.0
 10
108.1206948747757
 20
146.9875626814269
 30
0.0
 10
108.1006510532644
 20
146.9765802953798
 30
0.0
 10
108.0801357754174
 20
146.9665999242423
 30
0.0
 10
108.0592508576367
 20
146.9564397288886
 30
0.0
 10
108.0378773412653
 20
146.9473179819227
 30
0.0
 10
108.016211953693
 20
146.9389215684249
 30
0.0
 10
107.993914906063
 20
146.9302803552897
 30
0.0
 10
107.9713087199707
 20
146.9224073867522
 30
0.0
 10
107.9483340781008
 20
146.9158562708414
 30
0.0
 10
107.9244625397946
 20
146.909049408942
 30
0.0
 10
107.9001932162317
 20
146.9036696205674
 30
0.0
 10
107.8758431459045
 20
146.8987220502249
 30
0.0
 10
107.8506970225498
 20
146.8936127338064
 30
0.0
 10
107.8254647865819
 20
146.8889643575211
 30
0.0
 10
107.8000571683122
 20
146.8855418804614
 30
0.0
 10
107.7733938812814
 20
146.8819502613194
 30
0.0
 10
107.7465374484686
 20
146.8797087057985
 30
0.0
 10
107.7196581332328
 20
146.8782927869486
 30
0.0
 10
107.6915571107135
 20
146.8768125123536
 30
0.0
 10
107.6634310784143
 20
146.8762346330455
 30
0.0
 10
107.6353050464142
 20
146.875656753047
 30
0.0
 10
107.5976894354141
 20
146.8764272760485
 30
0.0
 10
107.5600738238211
 20
146.877197798221
 30
0.0
 10
107.522614596057
 20
146.8802698124169
 30
0.0
 10
107.4872648548497
 20
146.8831688285816
 30
0.0
 10
107.4520543801475
 20
146.8881174220889
 30
0.0
 10
107.4171732369063
 20
146.8947679991587
 30
0.0
 10
107.383596233554
 20
146.9011699237455
 30
0.0
 10
107.3503243958667
 20
146.9091489431637
 30
0.0
 10
107.3176629554065
 20
146.9191513133176
 30
0.0
 10
107.2860905947841
 20
146.9288201593075
 30
0.0
 10
107.2550886032668
 20
146.9403796704186
 30
0.0
 10
107.2247427592088
 20
146.9534197549768
 30
0.0
 10
107.1951210366355
 20
146.9661486731883
 30
0.0
 10
107.1661245207709
 20
146.9802883481378
 30
0.0
 10
107.1377536386753
 20
146.9955962983088
 30
0.0
 10
107.109826556433
 20
147.010664789375
 30
0.0
 10
107.0825056877314
 20
147.0268652913596
 30
0.0
 10
107.0560365859001
 20
147.0443629263929
 30
0.0
 10
107.0296762397418
 20
147.0617886675244
 30
0.0
 10
107.0041606753917
 20
147.080500904338
 30
0.0
 10
106.9795916024131
 20
147.1003786468873
 30
0.0
 10
106.9551457961308
 20
147.1201566598447
 30
0.0
 10
106.9316370076696
 20
147.141088512842
 30
0.0
 10
106.9090776930219
 20
147.1629844540141
 30
0.0
 10
106.8864397335855
 20
147.1849567273647
 30
0.0
 10
106.8647578794889
 20
147.2078998224872
 30
0.0
 10
106.8438358532173
 20
147.2315213362249
 30
0.0
 10
106.8227163661907
 20
147.2553657883088
 30
0.0
 10
106.8023711170846
 20
147.279901525184
 30
0.0
 10
106.7832070720445
 20
147.3053302871759
 30
0.0
 10
106.7640992114484
 20
147.3306844980583
 30
0.0
 10
106.7461656390492
 20
147.3569265054564
 30
0.0
 10
106.7291683763215
 20
147.3837522970103
 30
0.0
 10
106.7117197236068
 20
147.4112904911359
 30
0.0
 10
106.695257771354
 20
147.4394438878121
 30
0.0
 10
106.6797427400081
 20
147.4681053824063
 30
0.0
 10
106.6641682546288
 20
147.4968767086462
 30
0.0
 10
106.6495479613163
 20
147.5261600343574
 30
0.0
 10
106.6355891705417
 20
147.5557535134934
 30
0.0
 10
106.6214468582336
 20
147.5857360693568
 30
0.0
 10
106.6079835568585
 20
147.6160369876673
 30
0.0
 10
106.5953896533601
 20
147.6466966841702
 30
0.0
 10
106.582708918104
 20
147.6775677714732
 30
0.0
 10
106.5709096106072
 20
147.7088026013937
 30
0.0
 10
106.5598031952326
 20
147.7402758884176
 30
0.0
 10
106.5485676031059
 20
147.7721152356745
 30
0.0
 10
106.5380411146446
 20
147.8041986191972
 30
0.0
 10
106.5281707874475
 20
147.8364911284827
 30
0.0
 10
106.5082632686323
 20
147.9016220733187
 30
0.0
 10
106.4910249537742
 20
147.967603722614
 30
0.0
 10
106.4767681254457
 20
148.0341936736645
 30
0.0
 10
106.4625298564176
 20
148.1006969390253
 30
0.0
 10
106.4512653164746
 20
148.1678069234162
 30
0.0
 10
106.4418406756817
 20
148.2351912632656
 30
0.0
 10
106.4325647728755
 20
148.3015121555779
 30
0.0
 10
106.4250711535601
 20
148.3680988120232
 30
0.0
 10
106.4207524040086
 20
148.4348708351304
 30
0.0
 10
106.4165826999435
 20
148.4993384716335
 30
0.0
 10
106.4153725094899
 20
148.5639789011014
 30
0.0
 10
106.4141623194933
 20
148.6286193301018
 30
0.0
 10
106.4148198874952
 20
148.6784986971014
 30
0.0
 10
106.4154774550967
 20
148.7283780637302
 30
0.0
 10
106.4174573616826
 20
148.7782142578746
 30
0.0
 10
106.4194672086135
 20
148.8288040799031
 30
0.0
 10
106.4228396900021
 20
148.8793494138573
 30
0.0
 10
106.4273424887716
 20
148.9297862087777
 30
0.0
 10
106.4319614345103
 20
148.9815239902882
 30
0.0
 10
106.4377697613935
 20
149.0331475611507
 30
0.0
 10
106.4444767096282
 20
149.0846532035337
 30
0.0
 10
106.4513048810199
 20
149.1370897725336
 30
0.0
 10
106.4590644511655
 20
149.1894041115885
 30
0.0
 10
106.4682010156681
 20
149.241497224829
 30
0.0
 10
106.4773127890492
 20
149.2934489887986
 30
0.0
 10
106.4877940942619
 20
149.3451807258718
 30
0.0
 10
106.5004924312225
 20
149.3963642184485
 30
0.0
 10
106.5128303257685
 20
149.4460948671029
 30
0.0
 10
106.5272611774086
 20
149.4953079533857
 30
0.0
 10
106.5433279830366
 20
149.5439821191377
 30
0.0
 10
106.5591303505346
 20
149.5918551732285
 30
0.0
 10
106.5765152639498
 20
149.6392069006235
 30
0.0
 10
106.5960486624256
 20
149.6856689448752
 30
0.0
 10
106.6152828238977
 20
149.7314192254804
 30
0.0
 10
106.6366001482769
 20
149.7763068727087
 30
0.0
 10
106.6599724854366
 20
149.8201066764474
 30
0.0
 10
106.6828987703422
 20
149.8630705774237
 30
0.0
 10
106.7078023782211
 20
149.90498776086
 30
0.0
 10
106.7350994518894
 20
149.9453182878491
 30
0.0
 10
106.761809762359
 20
149.9847818915426
 30
0.0
 10
106.7908117472262
 20
150.0227263174931
 30
0.0
 10
106.8220885739489
 20
150.0586677494423
 30
0.0
 10
106.853201627505
 20
150.0944209832019
 30
0.0
 10
106.8865657620242
 20
150.1281921443824
 30
0.0
 10
106.9215988548217
 20
150.1601550554109
 30
0.0
 10
106.956936767076
 20
150.19239607255
 30
0.0
 10
106.9939728068368
 20
150.222797235833
 30
0.0
 10
107.0329712894557
 20
150.2504392181889
 30
0.0
 10
107.0526603557994
 20
150.2643947566592
 30
0.0
 10
107.0728496315394
 20
150.2776470042178
 30
0.0
 10
107.0936000706175
 20
150.2899797276799
 30
0.0
 10
107.1145593024596
 20
150.3024365441026
 30
0.0
 10
107.1360910474048
 20
150.3139552386632
 30
0.0
 10
107.1581829013445
 20
150.3242481686997
 30
0.0
 10
107.1807770084495
 20
150.3347751061087
 30
0.0
 10
107.2039569819468
 20
150.3440199104895
 30
0.0
 10
107.2273787939709
 20
150.3525855343491
 30
0.0
 10
107.2512707272919
 20
150.3613230869303
 30
0.0
 10
107.2754143049118
 20
150.3693539204127
 30
0.0
 10
107.2998697260069
 20
150.3763098393392
 30
0.0
 10
107.3252892185053
 20
150.3835399715983
 30
0.0
 10
107.3510456258299
 20
150.3896087691512
 30
0.0
 10
107.3769737210813
 20
150.394762077571
 30
0.0
 10
107.4038310649513
 20
150.4001000777187
 30
0.0
 10
107.4308726236761
 20
150.4044557915683
 30
0.0
 10
107.4580317632535
 20
150.4079422470843
 30
0.0
 10
107.4862678785865
 20
150.4115669554362
 30
0.0
 10
107.5146310848277
 20
150.4142520989773
 30
0.0
 10
107.5430438590586
 20
150.4158503490391
 30
0.0
 10
107.5726633289564
 20
150.4175164770695
 30
0.0
 10
107.6023366665727
 20
150.4180014300479
 30
0.0
 10
107.6320100045733
 20
150.4184863830469
 30
0.0
 10
107.6639074675726
 20
150.4180305160457
 30
0.0
 10
107.6958049306483
 20
150.4175746496577
 30
0.0
 10
107.727566234776
 20
150.4151913403535
 30
0.0
 10
107.758221923468
 20
150.4128909943786
 30
0.0
 10
107.788750767647
 20
150.4087950590314
 30
0.0
 10
107.8191684149649
 20
150.4039881962376
 30
0.0
 10
107.8486046517415
 20
150.3993364245258
 30
0.0
 10
107.8779367513263
 20
150.394018860747
 30
0.0
 10
107.9068165443778
 20
150.3868539753843
 30
0.0
 10
107.9346586864628
 20
150.3799465243524
 30
0.0
 10
107.9620804408511
 20
150.3713221154393
 30
0.0
 10
107.9891926047662
 20
150.3618116530128
 30
0.0
 10
108.0160133220074
 20
150.3524034248696
 30
0.0
 10
108.0425310689901
 20
150.3421280903815
 30
0.0
 10
108.0682736235718
 20
150.3301792451869
 30
0.0
 10
108.0937567363891
 20
150.3183508243067
 30
0.0
 10
108.118480203345
 20
150.3048824550968
 30
0.0
 10
108.1427415825358
 20
150.2906387356404
 30
0.0
 10
108.1668848427149
 20
150.2764643631922
 30
0.0
 10
108.1905705036193
 20
150.2615221718626
 30
0.0
 10
108.2132554903696
 20
150.2451671504328
 30
0.0
 10
108.2361847642316
 20
150.2286360071912
 30
0.0
 10
108.2580916960412
 20
150.2106614414124
 30
0.0
 10
108.2791563389586
 20
150.1917874633398
 30
0.0
 10
108.3003402072551
 20
150.1728066590004
 30
0.0
 10
108.3206722250064
 20
150.1529162322508
 30
0.0
 10
108.3404441285839
 20
150.1324766993826
 30
0.0
 10
108.3602372693401
 20
150.1120152122288
 30
0.0
 10
108.379469092029
 20
150.0910034387238
 30
0.0
 10
108.3977778669276
 20
150.0692118845033
 30
0.0
 10
108.4160101271978
 20
150.0475113998762
 30
0.0
 10
108.4333270386177
 20
150.0250376385144
 30
0.0
 10
108.449839537457
 20
150.0019930183093
 30
0.0
 10
108.4667364413753
 20
149.9784119275706
 30
0.0
 10
108.4827910438923
 20
149.954233089836
 30
0.0
 10
108.4979471569692
 20
149.9295020849646
 30
0.0
 10
108.5131123980596
 20
149.9047561854475
 30
0.0
 10
108.5273780671252
 20
149.8794574534904
 30
0.0
 10
108.5407827087576
 20
149.8537161091133
 30
0.0
 10
108.5546257234959
 20
149.8271329434188
 30
0.0
 10
108.5675504734362
 20
149.8000777423534
 30
0.0
 10
108.5796642101101
 20
149.7726580644869
 30
0.0
 10
108.5920148456034
 20
149.7447021615495
 30
0.0
 10
108.6035224369633
 20
149.716367386845
 30
0.0
 10
108.6139326512149
 20
149.6876459703068
 30
0.0
 10
108.62458358825
 20
149.658260408035
 30
0.0
 10
108.6340858105377
 20
149.6284701160019
 30
0.0
 10
108.6435880335363
 20
149.5986798240016
 30
0.0
 10
108.6435880335363
 20
149.5986798240016
 30
0.0
 10
107.9826025195251
 20
149.343643539031
 30
0.0
 10
107.9826025195251
 20
149.343643539031
 30
0.0
 10
107.9777645175257
 20
149.3660466800316
 30
0.0
 10
107.9729265148229
 20
149.3884498214059
 30
0.0
 10
107.9681043330002
 20
149.4108624052382
 30
0.0
 10
107.9627457504392
 20
149.4357680776635
 30
0.0
 10
107.9574067042258
 20
149.4606854100671
 30
0.0
 10
107.9509701122501
 20
149.485330364279
 30
0.0
 10
107.9443867849931
 20
149.5105371506343
 30
0.0
 10
107.9366552999739
 20
149.5354589984055
 30
0.0
 10
107.9272458069417
 20
149.5597983234801
 30
0.0
 10
107.9180902819677
 20
149.5834807150597
 30
0.0
 10
107.9073461075201
 20
149.6066116048775
 30
0.0
 10
107.8942953823392
 20
149.6283352064064
 30
0.0
 10
107.8813568685738
 20
149.6498720262779
 30
0.0
 10
107.8661512974566
 20
149.6700256538298
 30
0.0
 10
107.8494828054637
 20
149.6889639868306
 30
0.0
 10
107.8327812333739
 20
149.7079399046283
 30
0.0
 10
107.8146109280531
 20
149.7256956993694
 30
0.0
 10
107.7941260923515
 20
149.7403666492768
 30
0.0
 10
107.7837059353481
 20
149.7478294185008
 30
0.0
 10
107.7726868892004
 20
149.7544939782482
 30
0.0
 10
107.7611756679338
 20
149.7601369039666
 30
0.0
 10
107.7491139009642
 20
149.766049713171
 30
0.0
 10
107.7365117546786
 20
149.7708408283303
 30
0.0
 10
107.7236121841462
 20
149.7746350904284
 30
0.0
 10
107.7100308790753
 20
149.7786298769955
 30
0.0
 10
107.6961198816505
 20
149.781519660064
 30
0.0
 10
107.6820946490859
 20
149.7832022007996
 30
0.0
 10
107.6670253711183
 20
149.7850099907183
 30
0.0
 10
107.6518242175452
 20
149.785424113046
 30
0.0
 10
107.6366230635447
 20
149.7858382350464
 30
0.0
  0
ENDBLK
  5
4F
330
4C
100
AcDbEntity
  8
0
100
AcDbBlockEnd
  0
BLOCK
  5
53
330
51
100
AcDbEntity
  8
0
100
AcDbBlockBegin
  2
block 4
 70
     0
 10
0.0
 20
0.0
 30
0.0
  3
block 4
  1

  0
POLYLINE
  5
55
330
51
100
AcDbEntity
  8
0
 62
     7
420
 16777215
370
     5
100
AcDb2dPolyline
 66
     1
 10
0.0
 20
0.0
 30
0.0
  0
VERTEX
  5
56
330
55
100
AcDbEntity
  8
0
 62
     7
420
 16777215
370
     5
100
AcDbVertex
100
AcDb2dVertex
 10
103.0439929134161
 20
146.9178332962532
 30
0.0
  0
VERTEX
  5
57
330
55
100
AcDbEntity
  8
0
 62
     7
420
 16777215
370
     5
100
AcDbVertex
100
AcDb2dVertex
 10
102.916804275443
 20
147.5083049012583
 30
0.0
  0
VERTEX
  5
58
330
55
100
AcDbEntity
  8
0
 62
     7
420
 16777215
370
     5
100
AcDbVertex
100
AcDb2dVertex
 10
102.228799414443
 20
147.5083049012891
 30
0.0
  0
VERTEX
  5
59
330
55
100
AcDbEntity
  8
0
 62
     7
420
 16777215
370
     5
100
AcDbVertex
100
AcDb2dVertex
 10
102.1055648264162
 20
146.9178332962956
 30
0.0
  0
VERTEX
  5
5A
330
55
100
AcDbEntity
  8
0
 62
     7
420
 16777215
370
     5
100
AcDbVertex
100
AcDb2dVertex
 10
101.4313991444158
 20
146.9178332963251
 30
0.0
  0
VERTEX
  5
5B
330
55
100
AcDbEntity
  8
0
 62
     7
420
 16777215
370
     5
100
AcDbVertex
100
AcDb2dVertex
 10
102.2287994145694
 20
150.3341332962892
 30
0.0
  0
VERTEX
  5
5C
330
55
100
AcDbEntity
  8
0
 62
     7
420
 16777215
370
     5
100
AcDbVertex
100
AcDb2dVertex
 10
102.9438236235696
 20
150.3341332962572
 30
0.0
  0
VERTEX
  5
5D
330
55
100
AcDbEntity
  8
0
 62
     7
420
 16777215
370
     5
100
AcDbVertex
100
AcDb2dVertex
 10
103.7682432409667
 20
146.917833296112
 30
0.0
  0
VERTEX
  5
5E
330
55
100
AcDbEntity
  8
0
 62
     7
420
 16777215
370
     5
100
AcDbVertex
100
AcDb2dVertex
 10
103.0439929134161
 20
146.9178332962532
 30
0.0
  0
SEQEND
  5
5F
330
55
100
AcDbEntity
  8
0
 62
     7
420
 16777215
370
     5
  0
ENDBLK
  5
54
330
51
100
AcDbEntity
  8
0
100
AcDbBlockEnd
  0
BLOCK
  5
62
330
60
100
AcDbEntity
  8
0
100
AcDbBlockBegin
  2
block 5
 70
     0
 10
0.0
 20
0.0
 30
0.0
  3
block 5
  1

  0
POLYLINE
  5
64
330
60
100
AcDbEntity
  8
0
 62
     7
420
 16777215
370
     5
100
AcDb2dPolyline
 66
     1
 10
0.0
 20
0.0
 30
0.0
  0
VERTEX
  5
65
330
64
100
AcDbEntity
  8
0
 62
     7
420
 16777215
370
     5
100
AcDbVertex
100
AcDb2dVertex
 10
106.2500692055814
 20
150.5871925561092
 30
0.0
  0
VERTEX
  5
66
330
64
100
AcDbEntity
  8
0
 62
     7
420
 16777215
370
     5
100
AcDbVertex
100
AcDb2dVertex
 10
104.4595431443819
 20
146.1553604761897
 30
0.0
  0
VERTEX
  5
67
330
64
100
AcDbEntity
  8
0
 62
     7
420
 16777215
370
     5
100
AcDbVertex
100
AcDb2dVertex
 10
103.9402444563819
 20
146.1553604762128
 30
0.0
  0
VERTEX
  5
68
330
64
100
AcDbEntity
  8
0
 62
     7
420
 16777215
370
     5
100
AcDbVertex
100
AcDb2dVertex
 10
105.7307705175808
 20
150.5871925561323
 30
0.0
  0
VERTEX
  5
69
330
64
100
AcDbEntity
  8
0
 62
     7
420
 16777215
370
     5
100
AcDbVertex
100
AcDb2dVertex
 10
106.2500692055814
 20
150.5871925561092
 30
0.0
  0
SEQEND
  5
6A
330
64
100
AcDbEntity
  8
0
 62
     7
420
 16777215
370
     5
  0
ENDBLK
  5
63
330
60
100
AcDbEntity
  8
0
100
AcDbBlockEnd
  0
BLOCK
  5
6D
330
6B
100
AcDbEntity
  8
0
100
AcDbBlockBegin
  2
block 6
 70
     0
 10
0.0
 20
0.0
 30
0.0
  3
block 6
  1

  0
POLYLINE
  5
6F
330
6B
100
AcDbEntity
  8
0
 62
     7
420
 16777215
370
     5
100
AcDb2dPolyline
 66
     1
 10
0.0
 20
0.0
 30
0.0
  0
VERTEX
  5
70
330
6F
100
AcDbEntity
  8
0
 62
     7
420
 16777215
370
     5
100
AcDbVertex
100
AcDb2dVertex
 10
102.4838356985074
 20
148.948897455278
 30
0.0
  0
VERTEX
  5
71
330
6F
100
AcDbEntity
  8
0
 62
     7
420
 16777215
370
     5
100
AcDbVertex
100
AcDb2dVertex
 10
102.3381948234675
 20
148.0565999632843
 30
0.0
  0
VERTEX
  5
72
330
6F
100
AcDbEntity
  8
0
 62
     7
420
 16777215
370
     5
100
AcDbVertex
100
AcDb2dVertex
 10
102.8166349854675
 20
148.0565999632637
 30
0.0
  0
VERTEX
  5
73
330
6F
100
AcDbEntity
  8
0
 62
     7
420
 16777215
370
     5
100
AcDbVertex
100
AcDb2dVertex
 10
102.6433157525072
 20
148.9488974552706
 30
0.0
  0
VERTEX
  5
74
330
6F
100
AcDbEntity
  8
0
 62
     7
420
 16777215
370
     5
100
AcDbVertex
100
AcDb2dVertex
 10
102.5655527515303
 20
149.455015974274
 30
0.0
  0
VERTEX
  5
75
330
6F
100
AcDbEntity
  8
0
 62
     7
420
 16777215
370
     5
100
AcDbVertex
100
AcDb2dVertex
 10
102.5569856415301
 20
149.4550159742743
 30
0.0
  0
VERTEX
  5
76
330
6F
100
AcDbEntity
  8
0
 62
     7
420
 16777215
370
     5
100
AcDbVertex
100
AcDb2dVertex
 10
102.4838356985074
 20
148.948897455278
 30
0.0
  0
SEQEND
  5
78
330
6F
100
AcDbEntity
  8
0
 62
     7
420
 16777215
370
     5
  0
HATCH
  5
77
330
6B
100
AcDbEntity
  8
0
 62
     7
420
 16777215
100
AcDbHatch
 10
0.0
 20
0.0
 30
0.0
210
0.0
220
0.0
230
1.0
  2
SOLID
 70
     1
 71
     0
 91
        1
 92
        1
 93
        6
 72
     1
 10
102.4838356985074
 20
148.948897455278
 11
102.3381948234675
 21
148.0565999632843
 72
     1
 10
102.3381948234675
 20
148.0565999632843
 11
102.8166349854675
 21
148.0565999632637
 72
     1
 10
102.8166349854675
 20
148.0565999632637
 11
102.6433157525072
 21
148.9488974552706
 72
     1
 10
102.6433157525072
 20
148.9488974552706
 11
102.5655527515303
 21
149.455015974274
 72
     1
 10
102.5655527515303
 20
149.455015974274
 11
102.5569856415301
 21
149.4550159742743
 72
     1
 10
102.5569856415301
 20
149.4550159742743
 11
102.4838356985074
 21
148.948897455278
 97
        0
 75
     2
 76
     1
 98
        0
  0
ENDBLK
  5
6E
330
6B
100
AcDbEntity
  8
0
100
AcDbBlockEnd
  0
ENDSEC
  0
SECTION
  2
ENTITIES
  0
INSERT
  5
41
330
1F
100
AcDbEntity
  8
0
100
AcDbBlockReference
  2
block 2
 10
0.0
 20
0.0
 30
0.0
  0
INSERT
  5
4D
330
1F
100
AcDbEntity
  8
0
100
AcDbBlockReference
  2
block 3
 10
0.0
 20
0.0
 30
0.0
  0
INSERT
  5
52
330
1F
100
AcDbEntity
  8
0
100
AcDbBlockReference
  2
block 4
 10
0.0
 20
0.0
 30
0.0
  0
INSERT
  5
61
330
1F
100
AcDbEntity
  8
0
100
AcDbBlockReference
  2
block 5
 10
0.0
 20
0.0
 30
0.0
  0
INSERT
  5
6C
330
1F
100
AcDbEntity
  8
0
100
AcDbBlockReference
  2
block 6
 10
0.0
 20
0.0
 30
0.0
  0
ENDSEC
  0
SECTION
  2
OBJECTS
  0
DICTIONARY
  5
C
330
0
100
AcDbDictionary
281
     1
  3
ACAD_GROUP
350
D
  3
ACAD_LAYOUT
350
1A
  3
ACAD_MATERIAL
350
3B
  3
ACAD_MLEADERSTYLE
350
7A
  3
ACAD_MLINESTYLE
350
17
  3
ACAD_PLOTSETTINGS
350
19
  3
ACAD_PLOTSTYLENAME
350
E
  3
ACAD_TABLESTYLE
350
79
  3
ACAD_VISUALSTYLE
350
2A
  0
SUN
  5
3F
330
29
100
AcDbSun
 90
        1
290
     0
 63
     7
421
 16777215
 40
1.0
291
     1
 91
  2455826
 92
 54000000
292
     0
 70
     2
 71
   256
280
     1
  0
DICTIONARY
  5
D
102
{ACAD_REACTORS
330
C
102
}
330
C
100
AcDbDictionary
281
     1
  0
DICTIONARY
  5
1A
102
{ACAD_REACTORS
330
C
102
}
330
C
100
AcDbDictionary
281
     1
  3
Layout1
350
1E
  3
Layout2
350
26
  3
Model
350
22
  0
DICTIONARY
  5
3B
102
{ACAD_REACTORS
330
C
102
}
330
C
100
AcDbDictionary
281
     1
  3
ByBlock
350
3D
  3
ByLayer
350
3C
  3
Global
350
3E
  0
DICTIONARY
  5
7A
102
{ACAD_REACTORS
330
C
102
}
330
C
100
AcDbDictionary
281
     1
  0
DICTIONARY
  5
17
102
{ACAD_REACTORS
330
C
102
}
330
C
100
AcDbDictionary
281
     1
  3
Standard
350
18
  0
DICTIONARY
  5
19
102
{ACAD_REACTORS
330
C
102
}
330
C
100
AcDbDictionary
281
     1
  0
ACDBDICTIONARYWDFLT
  5
E
102
{ACAD_REACTORS
330
C
102
}
330
C
100
AcDbDictionary
281
     1
  3
Normal
350
F
100
AcDbDictionaryWithDefault
340
F
  0
DICTIONARY
  5
79
102
{ACAD_REACTORS
330
C
102
}
330
C
100
AcDbDictionary
281
     1
  0
DICTIONARY
  5
2A
102
{ACAD_REACTORS
330
C
102
}
330
C
100
AcDbDictionary
281
     1
  3
2dWireframe
350
2F
  3
3D Hidden
350
31
  3
3dWireframe
350
30
  3
Basic
350
32
  3
Brighten
350
36
  3
ColorChange
350
3A
  3
Conceptual
350
34
  3
Dim
350
35
  3
Facepattern
350
39
  3
Flat
350
2B
  3
FlatWithEdges
350
2C
  3
Gouraud
350
2D
  3
GouraudWithEdges
350
2E
  3
Linepattern
350
38
  3
Realistic
350
33
  3
Thicken
350
37
  0
LAYOUT
  5
1E
102
{ACAD_REACTORS
330
1A
102
}
330
1A
100
AcDbPlotSettings
  1

  2
none_device
  4

  6

 40
0.0
 41
0.0
 42
0.0
 43
0.0
 44
0.0
 45
0.0
 46
0.0
 47
0.0
 48
0.0
 49
0.0
140
0.0
141
0.0
142
1.0
143
1.0
 70
   688
 72
     0
 73
     0
 74
     5
  7

 75
    16
 76
     0
 77
     2
 78
   300
147
1.0
148
0.0
149
0.0
100
AcDbLayout
  1
Layout1
 70
     1
 71
     1
 10
0.0
 20
0.0
 11
12.0
 21
9.0
 12
0.0
 22
0.0
 32
0.0
 14
1.000000000000000E+20
 24
1.000000000000000E+20
 34
1.000000000000000E+20
 15
-1.000000000000000E+20
 25
-1.000000000000000E+20
 35
-1.000000000000000E+20
146
0.0
 13
0.0
 23
0.0
 33
0.0
 16
1.0
 26
0.0
 36
0.0
 17
0.0
 27
1.0
 37
0.0
 76
     0
330
1B
  0
LAYOUT
  5
26
102
{ACAD_REACTORS
330
1A
102
}
330
1A
100
AcDbPlotSettings
  1

  2
none_device
  4

  6

 40
0.0
 41
0.0
 42
0.0
 43
0.0
 44
0.0
 45
0.0
 46
0.0
 47
0.0
 48
0.0
 49
0.0
140
0.0
141
0.0
142
1.0
143
1.0
 70
   688
 72
     0
 73
     0
 74
     5
  7

 75
    16
 76
     0
 77
     2
 78
   300
147
1.0
148
0.0
149
0.0
100
AcDbLayout
  1
Layout2
 70
     1
 71
     2
 10
0.0
 20
0.0
 11
0.0
 21
0.0
 12
0.0
 22
0.0
 32
0.0
 14
0.0
 24
0.0
 34
0.0
 15
0.0
 25
0.0
 35
0.0
146
0.0
 13
0.0
 23
0.0
 33
0.0
 16
1.0
 26
0.0
 36
0.0
 17
0.0
 27
1.0
 37
0.0
 76
     0
330
23
  0
LAYOUT
  5
22
102
{ACAD_REACTORS
330
1A
102
}
330
1A
100
AcDbPlotSettings
  1

  2
none_device
  4

  6

 40
0.0
 41
0.0
 42
0.0
 43
0.0
 44
0.0
 45
0.0
 46
0.0
 47
0.0
 48
0.0
 49
0.0
140
0.0
141
0.0
142
1.0
143
1.0
 70
  1712
 72
     0
 73
     0
 74
     0
  7

 75
     0
 76
     0
 77
     2
 78
   300
147
1.0
148
0.0
149
0.0
100
AcDbLayout
  1
Model
 70
     1
 71
     0
 10
0.0
 20
0.0
 11
12.0
 21
9.0
 12
0.0
 22
0.0
 32
0.0
 14
1.000000000000000E+20
 24
1.000000000000000E+20
 34
1.000000000000000E+20
 15
-1.000000000000000E+20
 25
-1.000000000000000E+20
 35
-1.000000000000000E+20
146
0.0
 13
0.0
 23
0.0
 33
0.0
 16
1.0
 26
0.0
 36
0.0
 17
0.0
 27
1.0
 37
0.0
 76
     0
330
1F
331
29
  0
MATERIAL
  5
3D
102
{ACAD_REACTORS
330
3B
102
}
330
3B
100
AcDbMaterial
  1
ByBlock
 72
     1
 94
      127
  0
MATERIAL
  5
3C
102
{ACAD_REACTORS
330
3B
102
}
330
3B
100
AcDbMaterial
  1
ByLayer
 72
     1
 94
      127
  0
MATERIAL
  5
3E
102
{ACAD_REACTORS
330
3B
102
}
330
3B
100
AcDbMaterial
  1
Global
 72
     1
 94
      127
  0
MLINESTYLE
  5
18
102
{ACAD_REACTORS
330
17
102
}
330
17
100
AcDbMlineStyle
  2
Standard
 70
     0
  3

 62
   256
 51
90.0
 52
90.0
 71
     2
 49
0.5
 62
   256
  6
BYLAYER
 49
-0.5
 62
   256
  6
BYLAYER
  0
ACDBPLACEHOLDER
  5
F
102
{ACAD_REACTORS
330
E
102
}
330
E
  0
VISUALSTYLE
  5
2F
102
{ACAD_REACTORS
330
2A
102
}
330
2A
100
AcDbVisualStyle
  2
2dWireframe
 70
     4
177
     2
291
     0
 71
     0
176
     1
 72
     2
176
     1
 73
     0
176
     1
 90
        0
176
     1
 40
-0.6
176
     1
 41
-30.0
176
     1
 62
     5
 63
     7
421
 16777215
176
     1
 74
     1
176
     1
 91
        4
176
     1
 64
     7
176
     1
 65
   257
176
     1
 75
     1
176
     1
175
     1
176
     1
 42
1.0
176
     1
 92
        0
176
     1
 66
   257
176
     1
 43
1.0
176
     1
 76
     1
176
     1
 77
     6
176
     1
 78
     2
176
     1
 67
     7
176
     1
 79
     5
176
     1
170
     0
176
     1
171
     0
176
     1
290
     0
176
     1
 93
        1
176
     1
 44
0.0
176
     1
173
     0
176
     1
  0
VISUALSTYLE
  5
31
102
{ACAD_REACTORS
330
2A
102
}
330
2A
100
AcDbVisualStyle
  2
3D Hidden
 70
     6
177
     2
291
     0
 71
     1
176
     1
 72
     2
176
     1
 73
     2
176
     1
 90
        0
176
     1
 40
-0.6
176
     1
 41
-30.0
176
     1
 62
     5
 63
     7
421
 16777215
176
     1
 74
     2
176
     1
 91
        2
176
     1
 64
     7
176
     1
 65
   257
176
     1
 75
     2
176
     1
175
     1
176
     1
 42
40.0
176
     1
 92
        0
176
     1
 66
   257
176
     1
 43
1.0
176
     1
 76
     1
176
     1
 77
     6
176
     1
 78
     2
176
     1
 67
     7
176
     1
 79
     3
176
     1
170
     0
176
     1
171
     0
176
     1
290
     0
176
     1
 93
        1
176
     1
 44
0.0
176
     1
173
     0
176
     1
  0
VISUALSTYLE
  5
30
102
{ACAD_REACTORS
330
2A
102
}
330
2A
100
AcDbVisualStyle
  2
3dWireframe
 70
     5
177
     2
291
     0
 71
     0
176
     1
 72
     2
176
     1
 73
     0
176
     1
 90
        0
176
     1
 40
-0.6
176
     1
 41
-30.0
176
     1
 62
     5
 63
     7
421
 16777215
176
     1
 74
     1
176
     1
 91
        4
176
     1
 64
     7
176
     1
 65
   257
176
     1
 75
     1
176
     1
175
     1
176
     1
 42
1.0
176
     1
 92
        0
176
     1
 66
   257
176
     1
 43
1.0
176
     1
 76
     1
176
     1
 77
     6
176
     1
 78
     2
176
     1
 67
     7
176
     1
 79
     5
176
     1
170
     0
176
     1
171
     0
176
     1
290
     0
176
     1
 93
        1
176
     1
 44
0.0
176
     1
173
     0
176
     1
  0
VISUALSTYLE
  5
32
102
{ACAD_REACTORS
330
2A
102
}
330
2A
100
AcDbVisualStyle
  2
Basic
 70
     7
177
     2
291
     1
 71
     1
176
     1
 72
     0
176
     1
 73
     1
176
     1
 90
        0
176
     1
 40
-0.6
176
     1
 41
-30.0
176
     1
 62
     5
 63
     7
421
 16777215
176
     1
 74
     0
176
     1
 91
        4
176
     1
 64
     7
176
     1
 65
   257
176
     1
 75
     1
176
     1
175
     1
176
     1
 42
1.0
176
     1
 92
        8
176
     1
 66
     7
176
     1
 43
1.0
176
     1
 76
     1
176
     1
 77
     6
176
     1
 78
     2
176
     1
 67
     7
176
     1
 79
     5
176
     1
170
     0
176
     1
171
     0
176
     1
290
     0
176
     1
 93
        1
176
     1
 44
0.0
176
     1
173
     0
176
     1
  0
VISUALSTYLE
  5
36
102
{ACAD_REACTORS
330
2A
102
}
330
2A
100
AcDbVisualStyle
  2
Brighten
 70
    12
177
     2
291
     1
 71
     2
176
     1
 72
     2
176
     1
 73
     0
176
     1
 90
        0
176
     1
 40
-0.6
176
     1
 41
-30.0
176
     1
 62
     5
 63
     7
421
 16777215
176
     1
 74
     1
176
     1
 91
        4
176
     1
 64
     7
176
     1
 65
   257
176
     1
 75
     1
176
     1
175
     1
176
     1
 42
1.0
176
     1
 92
        8
176
     1
 66
     7
176
     1
 43
1.0
176
     1
 76
     1
176
     1
 77
     6
176
     1
 78
     2
176
     1
 67
     7
176
     1
 79
     5
176
     1
170
     0
176
     1
171
     0
176
     1
290
     0
176
     1
 93
        1
176
     1
 44
50.0
176
     1
173
     0
176
     1
  0
VISUALSTYLE
  5
3A
102
{ACAD_REACTORS
330
2A
102
}
330
2A
100
AcDbVisualStyle
  2
ColorChange
 70
    16
177
     2
291
     1
 71
     2
176
     1
 72
     2
176
     1
 73
     3
176
     1
 90
        0
176
     1
 40
-0.6
176
     1
 41
-30.0
176
     1
 62
     5
 63
     8
421
  8421504
176
     1
 74
     1
176
     1
 91
        4
176
     1
 64
     7
176
     1
 65
   257
176
     1
 75
     1
176
     1
175
     1
176
     1
 42
1.0
176
     1
 92
        8
176
     1
 66
     8
424
  8421504
176
     1
 43
1.0
176
     1
 76
     1
176
     1
 77
     6
176
     1
 78
     2
176
     1
 67
     7
176
     1
 79
     5
176
     1
170
     0
176
     1
171
     0
176
     1
290
     0
176
     1
 93
        1
176
     1
 44
0.0
176
     1
173
     0
176
     1
  0
VISUALSTYLE
  5
34
102
{ACAD_REACTORS
330
2A
102
}
330
2A
100
AcDbVisualStyle
  2
Conceptual
 70
     9
177
     2
291
     0
 71
     3
176
     1
 72
     2
176
     1
 73
     0
176
     1
 90
        0
176
     1
 40
-0.6
176
     1
 41
-30.0
176
     1
 62
     5
 63
     7
421
 16777215
176
     1
 74
     2
176
     1
 91
        2
176
     1
 64
     7
176
     1
 65
   257
176
     1
 75
     1
176
     1
175
     1
176
     1
 42
40.0
176
     1
 92
        8
176
     1
 66
     7
176
     1
 43
1.0
176
     1
 76
     1
176
     1
 77
     6
176
     1
 78
     2
176
     1
 67
     7
176
     1
 79
     3
176
     1
170
     0
176
     1
171
     0
176
     1
290
     0
176
     1
 93
        1
176
     1
 44
0.0
176
     1
173
     0
176
     1
  0
VISUALSTYLE
  5
35
102
{ACAD_REACTORS
330
2A
102
}
330
2A
100
AcDbVisualStyle
  2
Dim
 70
    11
177
     2
291
     1
 71
     2
176
     1
 72
     2
176
     1
 73
     0
176
     1
 90
        0
176
     1
 40
-0.6
176
     1
 41
-30.0
176
     1
 62
     5
 63
     7
421
 16777215
176
     1
 74
     1
176
     1
 91
        4
176
     1
 64
     7
176
     1
 65
   257
176
     1
 75
     1
176
     1
175
     1
176
     1
 42
1.0
176
     1
 92
        8
176
     1
 66
     7
176
     1
 43
1.0
176
     1
 76
     1
176
     1
 77
     6
176
     1
 78
     2
176
     1
 67
     7
176
     1
 79
     5
176
     1
170
     0
176
     1
171
     0
176
     1
290
     0
176
     1
 93
        1
176
     1
 44
-50.0
176
     1
173
     0
176
     1
  0
VISUALSTYLE
  5
39
102
{ACAD_REACTORS
330
2A
102
}
330
2A
100
AcDbVisualStyle
  2
Facepattern
 70
    15
177
     2
291
     1
 71
     2
176
     1
 72
     2
176
     1
 73
     0
176
     1
 90
        0
176
     1
 40
-0.6
176
     1
 41
-30.0
176
     1
 62
     5
 63
     7
421
 16777215
176
     1
 74
     1
176
     1
 91
        4
176
     1
 64
     7
176
     1
 65
   257
176
     1
 75
     1
176
     1
175
     1
176
     1
 42
1.0
176
     1
 92
        8
176
     1
 66
     7
176
     1
 43
1.0
176
     1
 76
     1
176
     1
 77
     6
176
     1
 78
     2
176
     1
 67
     7
176
     1
 79
     5
176
     1
170
     0
176
     1
171
     0
176
     1
290
     0
176
     1
 93
        1
176
     1
 44
0.0
176
     1
173
     0
176
     1
  0
VISUALSTYLE
  5
2B
102
{ACAD_REACTORS
330
2A
102
}
330
2A
100
AcDbVisualStyle
  2
Flat
 70
     0
177
     2
291
     1
 71
     2
176
     1
 72
     1
176
     1
 73
     1
176
     1
 90
        2
176
     1
 40
-0.6
176
     1
 41
30.0
176
     1
 62
     5
 63
     7
421
 16777215
176
     1
 74
     0
176
     1
 91
        4
176
     1
 64
     7
176
     1
 65
   257
176
     1
 75
     1
176
     1
175
     1
176
     1
 42
1.0
176
     1
 92
        8
176
     1
 66
     7
176
     1
 43
1.0
176
     1
 76
     1
176
     1
 77
     6
176
     1
 78
     2
176
     1
 67
     7
176
     1
 79
     5
176
     1
170
     0
176
     1
171
     0
176
     1
290
     0
176
     1
 93
       13
176
     1
 44
0.0
176
     1
173
     0
176
     1
  0
VISUALSTYLE
  5
2C
102
{ACAD_REACTORS
330
2A
102
}
330
2A
100
AcDbVisualStyle
  2
FlatWithEdges
 70
     1
177
     2
291
     1
 71
     2
176
     1
 72
     1
176
     1
 73
     1
176
     1
 90
        2
176
     1
 40
-0.6
176
     1
 41
30.0
176
     1
 62
     5
 63
     7
421
 16777215
176
     1
 74
     1
176
     1
 91
        4
176
     1
 64
     7
176
     1
 65
   257
176
     1
 75
     1
176
     1
175
     1
176
     1
 42
1.0
176
     1
 92
        0
176
     1
 66
   257
176
     1
 43
1.0
176
     1
 76
     1
176
     1
 77
     6
176
     1
 78
     2
176
     1
 67
     7
176
     1
 79
     5
176
     1
170
     0
176
     1
171
     0
176
     1
290
     0
176
     1
 93
       13
176
     1
 44
0.0
176
     1
173
     0
176
     1
  0
VISUALSTYLE
  5
2D
102
{ACAD_REACTORS
330
2A
102
}
330
2A
100
AcDbVisualStyle
  2
Gouraud
 70
     2
177
     2
291
     1
 71
     2
176
     1
 72
     2
176
     1
 73
     1
176
     1
 90
        2
176
     1
 40
-0.6
176
     1
 41
30.0
176
     1
 62
     5
 63
     7
421
 16777215
176
     1
 74
     0
176
     1
 91
        4
176
     1
 64
     7
176
     1
 65
   257
176
     1
 75
     1
176
     1
175
     1
176
     1
 42
1.0
176
     1
 92
        0
176
     1
 66
     7
176
     1
 43
1.0
176
     1
 76
     1
176
     1
 77
     6
176
     1
 78
     2
176
     1
 67
     7
176
     1
 79
     5
176
     1
170
     0
176
     1
171
     0
176
     1
290
     0
176
     1
 93
       13
176
     1
 44
0.0
176
     1
173
     0
176
     1
  0
VISUALSTYLE
  5
2E
102
{ACAD_REACTORS
330
2A
102
}
330
2A
100
AcDbVisualStyle
  2
GouraudWithEdges
 70
     3
177
     2
291
     1
 71
     2
176
     1
 72
     2
176
     1
 73
     1
176
     1
 90
        2
176
     1
 40
-0.6
176
     1
 41
30.0
176
     1
 62
     5
 63
     7
421
 16777215
176
     1
 74
     1
176
     1
 91
        4
176
     1
 64
     7
176
     1
 65
   257
176
     1
 75
     1
176
     1
175
     1
176
     1
 42
1.0
176
     1
 92
        0
176
     1
 66
   257
176
     1
 43
1.0
176
     1
 76
     1
176
     1
 77
     6
176
     1
 78
     2
176
     1
 67
     7
176
     1
 79
     5
176
     1
170
     0
176
     1
171
     0
176
     1
290
     0
176
     1
 93
       13
176
     1
 44
0.0
176
     1
173
     0
176
     1
  0
VISUALSTYLE
  5
38
102
{ACAD_REACTORS
330
2A
102
}
330
2A
100
AcDbVisualStyle
  2
Linepattern
 70
    14
177
     2
291
     1
 71
     2
176
     1
 72
     2
176
     1
 73
     0
176
     1
 90
        0
176
     1
 40
-0.6
176
     1
 41
-30.0
176
     1
 62
     5
 63
     7
421
 16777215
176
     1
 74
     1
176
     1
 91
        4
176
     1
 64
     7
176
     1
 65
   257
176
     1
 75
     7
176
     1
175
     7
176
     1
 42
1.0
176
     1
 92
        8
176
     1
 66
     7
176
     1
 43
1.0
176
     1
 76
     1
176
     1
 77
     6
176
     1
 78
     2
176
     1
 67
     7
176
     1
 79
     5
176
     1
170
     0
176
     1
171
     0
176
     1
290
     0
176
     1
 93
        1
176
     1
 44
0.0
176
     1
173
     0
176
     1
  0
VISUALSTYLE
  5
33
102
{ACAD_REACTORS
330
2A
102
}
330
2A
100
AcDbVisualStyle
  2
Realistic
 70
     8
177
     2
291
     0
 71
     2
176
     1
 72
     2
176
     1
 73
     0
176
     1
 90
        0
176
     1
 40
-0.6
176
     1
 41
-30.0
176
     1
 62
     5
 63
     7
421
 16777215
176
     1
 74
     1
176
     1
 91
        0
176
     1
 64
     7
176
     1
 65
   257
176
     1
 75
     1
176
     1
175
     1
176
     1
 42
1.0
176
     1
 92
        8
176
     1
 66
     8
424
  7895160
176
     1
 43
1.0
176
     1
 76
     1
176
     1
 77
     6
176
     1
 78
     2
176
     1
 67
     7
176
     1
 79
     5
176
     1
170
     0
176
     1
171
     0
176
     1
290
     0
176
     1
 93
       13
176
     1
 44
0.0
176
     1
173
     0
176
     1
  0
VISUALSTYLE
  5
37
102
{ACAD_REACTORS
330
2A
102
}
330
2A
100
AcDbVisualStyle
  2
Thicken
 70
    13
177
     2
291
     1
 71
     2
176
     1
 72
     2
176
     1
 73
     0
176
     1
 90
        0
176
     1
 40
-0.6
176
     1
 41
-30.0
176
     1
 62
     5
 63
     7
421
 16777215
176
     1
 74
     1
176
     1
 91
        4
176
     1
 64
     7
176
     1
 65
   257
176
     1
 75
     1
176
     1
175
     1
176
     1
 42
1.0
176
     1
 92
       12
176
     1
 66
     7
176
     1
 43
1.0
176
     1
 76
     1
176
     1
 77
     6
176
     1
 78
     2
176
     1
 67
     7
176
     1
 79
     5
176
     1
170
     0
176
     1
171
     0
176
     1
290
     0
176
     1
 93
        1
176
     1
 44
0.0
176
     1
173
     0
176
     1
  0
ENDSEC
  0
EOF
