0
SECTION
2
HEADER
9
$INSUNITS
70
1
9
$ACADVER
1
AC1014
9
$HANDSEED
5
FFFF
0
ENDSEC
0
SECTION
2
TABLES
0
TABLE
2
VPORT
5
8
100
AcDbSymbolTable
0
ENDTAB
0
TABLE
2
LTYPE
5
5
100
AcDbSymbolTable
0
LTYPE
5
14
100
AcDbSymbolTableRecord
100
AcDbLinetypeTableRecord
2
BYBLOCK
70
0
0
LTYPE
5
15
100
AcDbSymbolTableRecord
100
AcDbLinetypeTableRecord
2
BYLAYER
70
0
0
ENDTAB
0
TABLE
2
LAYER
5
2
100
AcDbSymbolTable
70
2
0
LAYER
5
50
100
AcDbSymbolTableRecord
100
AcDbLayerTableRecord
2
0
70
0
6
CONTINUOUS
0
ENDTAB
0
TABLE
2
STYLE
5
3
100
AcDbSymbolTable
70
1
0
STYLE
5
11
100
AcDbSymbolTableRecord
100
AcDbTextStyleTableRecord
2
STANDARD
70
0
0
ENDTAB
0
TABLE
2
VIEW
5
6
100
AcDbSymbolTable
70
0
0
ENDTAB
0
TABLE
2
UCS
5
7
100
AcDbSymbolTable
70
0
0
ENDTAB
0
TABLE
2
APPID
5
9
100
AcDbSymbolTable
70
2
0
APPID
5
12
100
AcDbSymbolTableRecord
100
AcDbRegAppTableRecord
2
ACAD
70
0
0
ENDTAB
0
TABLE
2
DIMSTYLE
5
A
100
AcDbSymbolTable
70
1
0
ENDTAB
0
TABLE
2
BLOCK_RECORD
5
1
100
AcDbSymbolTable
70
1
0
BLOCK_RECORD
5
1F
100
AcDbSymbolTableRecord
100
AcDbBlockTableRecord
2
*MODEL_SPACE
0
BLOCK_RECORD
5
1B
100
AcDbSymbolTableRecord
100
AcDbBlockTableRecord
2
*PAPER_SPACE
0
ENDTAB
0
ENDSEC
0
SECTION
2
BLOCKS
0
BLOCK
5
20
100
AcDbEntity
100
AcDbBlockBegin
2
*MODEL_SPACE
0
ENDBLK
5
21
100
AcDbEntity
100
AcDbBlockEnd
0
BLOCK
5
1C
100
AcDbEntity
100
AcDbBlockBegin
2
*PAPER_SPACE
0
ENDBLK
5
1D
100
AcDbEntity
100
AcDbBlockEnd
0
ENDSEC
0
SECTION
2
ENTITIES
0
LWPOLYLINE
5
100
100
AcDbEntity
8
0
100
AcDbPolyline
90
8
70
1
43
0.0
10
-13.437183699338302
20
-16.824492980000059
10
-13.437183699338322
20
0.5000000000000191
10
-9.6064750379209958
20
0.50000000000001099
10
-9.6064750379209922
20
-5.6929133858268068
10
-0.15765614075560019
20
-5.6929133858268175
10
-0.15765614075560136
20
0.49999999999999872
10
3.6730525206617206
20
0.49999999999999278
10
3.6730525206617424
20
-16.824492980000052
0
CIRCLE
5
101
100
AcDbEntity
8
0
100
AcDbCircle
10
-9.8968293686290174
20
-9.0992912305656972
30
-9.9384051051466046e-30
40
0.50000000000000022
210
-1.5777218104420236e-30
220
1.3351571183313952e-45
230
1
0
CIRCLE
5
102
100
AcDbEntity
8
0
100
AcDbCircle
10
-6.7205695261093341
20
-8.2837031829137384
30
-9.9384051051466046e-30
40
0.084750000000000353
210
1.5777218104420236e-30
220
-9.8607613152627811e-32
230
1
0
CIRCLE
5
103
100
AcDbEntity
8
0
100
AcDbCircle
10
-8.4705695261093314
20
-10.033703182913838
30
-9.9384051051466046e-30
40
0.084750000000000353
210
1.5777218104420236e-30
220
-9.8607613152627811e-32
230
1
0
CIRCLE
5
104
100
AcDbEntity
8
0
100
AcDbCircle
10
-13.062183699338313
20
-12.700674022500083
30
-9.9384051051466046e-30
40
0.062500000000000847
210
-3.1554436208840472e-30
220
2.6703142366627908e-45
230
1
0
CIRCLE
5
105
100
AcDbEntity
8
0
100
AcDbCircle
10
-13.062183699338329
20
-8.4671160150000357
30
9.9384051051466046e-30
40
0.062500000000000847
210
-3.1554436208840472e-30
220
2.6703142366627908e-45
230
1
0
CIRCLE
5
106
100
AcDbEntity
8
0
100
AcDbCircle
10
-13.062183699338329
20
-4.9999999999999964
30
-9.9384051051466046e-30
40
0.062500000000000847
210
-3.1554436208840472e-30
220
2.6703142366627908e-45
230
1
0
CIRCLE
5
107
100
AcDbEntity
8
0
100
AcDbCircle
10
-11.660280812199218
20
0.25000000000068362
30
-9.9384051051466046e-30
40
0.062500000000000847
210
-3.1554436208840472e-30
220
2.6703142366627908e-45
230
1
0
CIRCLE
5
108
100
AcDbEntity
8
0
100
AcDbCircle
10
-10.633377925060119
20
0.25000000000068634
30
9.9384051051466046e-30
40
0.062500000000000847
210
-3.1554436208840472e-30
220
2.6703142366627908e-45
230
1
0
CIRCLE
5
109
100
AcDbEntity
8
0
100
AcDbCircle
10
-8.6064750379209869
20
-5.9429133858268095
30
-9.9384051051466046e-30
40
0.062499999999999757
210
-1.5777218104420236e-30
220
9.8607613152627811e-32
230
1
0
CIRCLE
5
110
100
AcDbEntity
8
0
100
AcDbCircle
10
-1.1576561407556234
20
-5.9429133858268051
30
-6.2115031907166279e-31
40
0.062500000000000097
210
-1.5777218104420236e-30
220
-9.860761315262514e-32
230
1
0
CIRCLE
5
111
100
AcDbEntity
8
0
100
AcDbCircle
10
0.86924674638284405
20
0.25000000000044059
30
0
40
0.062500000000000097
210
-1.5777218104420236e-30
220
-9.860761315262514e-32
230
1
0
CIRCLE
5
112
100
AcDbEntity
8
0
100
AcDbCircle
10
1.8961496335219521
20
0.25000000000043393
30
2.4846012762866511e-30
40
0.062500000000000153
210
0
220
-0
230
1
0
CIRCLE
5
113
100
AcDbEntity
8
0
100
AcDbCircle
10
3.2980525206617286
20
-5.0000000000000178
30
0
40
0.062500000000000028
210
-1.5777218104420236e-30
220
1.3351571183313952e-45
230
1
0
CIRCLE
5
114
100
AcDbEntity
8
0
100
AcDbCircle
10
3.2980525206617499
20
-8.4671160150000322
30
-4.9692025525733023e-30
40
0.062500000000000028
210
-1.5777218104420236e-30
220
1.3351571183313952e-45
230
1
0
CIRCLE
5
115
100
AcDbEntity
8
0
100
AcDbCircle
10
3.2980525206617517
20
-12.700674022500134
30
4.9692025525733023e-30
40
0.062500000000000028
210
-1.5777218104420236e-30
220
1.3351571183313952e-45
230
1
0
CIRCLE
5
116
100
AcDbEntity
8
0
100
AcDbCircle
10
1.6846995023277556
20
-11.478191371889665
30
0
40
0.062500000000000153
210
0
220
-0
230
1
0
CIRCLE
5
117
100
AcDbEntity
8
0
100
AcDbCircle
10
-3.2687125710056093
20
-11.478191371889665
30
0
40
0.062500000000000305
210
-3.1554436208840472e-30
220
2.6703142366627911e-45
230
1
0
CIRCLE
5
118
100
AcDbEntity
8
0
100
AcDbCircle
10
-6.4954186076716374
20
-11.478191371890142
30
0
40
0.062499999999999757
210
-1.5777218104420236e-30
220
9.8607613152627811e-32
230
1
0
CIRCLE
5
119
100
AcDbEntity
8
0
100
AcDbCircle
10
-11.448830681004985
20
-11.478191371890134
30
-2.9815215315439814e-29
40
0.062500000000000847
210
-3.1554436208840472e-30
220
2.6703142366627908e-45
230
1
0
CIRCLE
5
120
100
AcDbEntity
8
0
100
AcDbCircle
10
-4.8820655893382909
20
-7.1929133858268299
30
0
40
0.062500000000000305
210
-3.1554436208840472e-30
220
2.6703142366627911e-45
230
1
0
CIRCLE
5
121
100
AcDbEntity
8
0
100
AcDbCircle
10
-4.8820655893382883
20
-11.478191371890134
30
0
40
0.062500000000000305
210
-3.1554436208840472e-30
220
2.6703142366627911e-45
230
1
0
CIRCLE
5
122
100
AcDbEntity
8
0
100
AcDbCircle
10
-4.8820655893382892
20
-15.824492979999352
30
0
40
0.062499999999999757
210
-1.5777218104420236e-30
220
9.8607613152627811e-32
230
1
0
CIRCLE
5
123
100
AcDbEntity
8
0
100
AcDbCircle
10
-9.856475037920994
20
-3.7952755905511979
30
0
40
0.062500000000000847
210
-3.1554436208840472e-30
220
2.6703142366627908e-45
230
1
0
CIRCLE
5
124
100
AcDbEntity
8
0
100
AcDbCircle
10
-9.8564750379209869
20
-1.8976377952756167
30
-1.9876810210293209e-29
40
0.062500000000000847
210
-3.1554436208840472e-30
220
2.6703142366627908e-45
230
1
0
CIRCLE
5
125
100
AcDbEntity
8
0
100
AcDbCircle
10
0.092343859244355314
20
-1.8976377952756069
30
0
40
0.062500000000000097
210
-1.5777218104420236e-30
220
-9.860761315262514e-32
230
1
0
CIRCLE
5
126
100
AcDbEntity
8
0
100
AcDbCircle
10
0.092343859244374993
20
-3.7952755905511979
30
-6.2115031907166279e-31
40
0.062500000000000097
210
-1.5777218104420236e-30
220
-9.860761315262514e-32
230
1
0
CIRCLE
5
127
100
AcDbEntity
8
0
100
AcDbCircle
10
-11.771829368629632
20
-13.359594383999395
30
5.9132756033779525e-19
40
0.062500000000000847
210
-3.1554436208840472e-30
220
2.6703142366627908e-45
230
1
0
CIRCLE
5
128
100
AcDbEntity
8
0
100
AcDbCircle
10
-11.021829368629618
20
-12.493369734999444
30
-2.5131859833785252e-18
40
0.062500000000000847
210
-3.1554436208840472e-30
220
2.6703142366627908e-45
230
1
0
CIRCLE
5
129
100
AcDbEntity
8
0
100
AcDbCircle
10
1.2576981899530082
20
-12.493369734999449
30
-6.6152102810441527e-18
40
0.062500000000000153
210
0
220
-0
230
1
0
CIRCLE
5
130
100
AcDbEntity
8
0
100
AcDbCircle
10
2.0076981899529995
20
-13.359594383999337
30
5.4336366647975706e-18
40
0.062500000000000305
210
-3.1554436208840472e-30
220
2.6703142366627911e-45
230
1
0
CIRCLE
5
131
100
AcDbEntity
8
0
100
AcDbCircle
10
1.2576981899529831
20
-3.8311232449992798
30
5.0371230704718369e-18
40
0.062500000000000153
210
0
220
-0
230
1
0
CIRCLE
5
132
100
AcDbEntity
8
0
100
AcDbCircle
10
2.0076981899529813
20
-2.9648985959992857
30
1.9326095269269543e-18
40
0.062500000000000305
210
-3.1554436208840472e-30
220
2.6703142366627911e-45
230
1
0
CIRCLE
5
133
100
AcDbEntity
8
0
100
AcDbCircle
10
-11.021829368629623
20
-3.8311232449992678
30
9.1391473679660269e-18
40
0.062500000000000847
210
-3.1554436208840472e-30
220
2.6703142366627908e-45
230
1
0
CIRCLE
5
134
100
AcDbEntity
8
0
100
AcDbCircle
10
-11.77182936862963
20
-2.9648985959992702
30
-2.9096995776471131e-18
40
0.062500000000000847
210
-3.1554436208840472e-30
220
2.6703142366627908e-45
230
1
0
ENDSEC
0
SECTION
2
OBJECTS
0
DICTIONARY
5
C
100
AcDbDictionary
3
ACAD_GROUP
350
D
3
ACAD_MLINESTYLE
350
17
0
DICTIONARY
5
D
100
AcDbDictionary
0
DICTIONARY
5
1A
330
C
100
AcDbDictionary
0
DICTIONARY
5
17
100
AcDbDictionary
0
ENDSEC
0
EOF
