0
SECTION
2
HEADER
9
$ACADVER
1
AC1015
9
$HANDSEED
5
30
0
ENDSEC
0
SECTION
2
TABLES
0
TABLE
2
VPORT
5
8
0
ENDTAB
0
TABLE
2
LTYPE
330
1
100
AcDbSymbolTable 
70
13
0
LTYPE
330
e
100
AcDbSymbolTableRecord
100
AcDbLinetypeTableRecord
2
CONTINUOUS
70
0
3
Continuous ________________________________
72
65
73
2
73
0
40
0.000
0
LTYPE
330
f
100
AcDbSymbolTableRecord
100
AcDbLinetypeTableRecord
2
DASHED
70
0
3
Dashed _ _ _ _ _ _ _ _ _
72
65
73
2
73
2
40
5.000
49
2.50
74
0
49
-2.50
74
0
0
LTYPE
330
10
100
AcDbSymbolTableRecord
100
AcDbLinetypeTableRecord
2
DOT
70
0
3
Dot ...................
72
65
73
2
73
2
40
1.000
49
0.00
74
0
49
-1.00
74
0
0
LTYPE
330
11
100
AcDbSymbolTableRecord
100
AcDbLinetypeTableRecord
2
DASHDOT
70
0
3
Dashdot or center ___ _ ___ _ ___ _ ___ _ ___
72
65
73
2
73
4
40
10.000
49
6.00
74
0
49
-1.50
74
0
49
1.00
74
0
49
-1.50
74
0
0
LTYPE
330
12
100
AcDbSymbolTableRecord
100
AcDbLinetypeTableRecord
2
PHANTOM
70
0
3
Phantom ___ _ _ ___ _ _ ___ _ _ ___ _ _ ___
72
65
73
2
73
6
40
12.000
49
6.00
74
0
49
-1.44
74
0
49
0.84
74
0
49
-1.44
74
0
49
0.84
74
0
49
-1.44
74
0
0
ENDTAB
0
TABLE
2
LAYER
5
2
330
0
100
AcDbSymbolTable
70
1
0
LAYER
5
a
330
2
100
AcDbSymbolTableRecord
100
AcDbLayerTableRecord
2
0
70
0
62
7
6
Continuous
370
-3
390
F
0
ENDTAB
0
TABLE
2
STYLE
5
3
330
0
100
AcDbSymbolTable
70
1
0
ENDTAB
0
TABLE
2
VIEW
5
6
330
0
100
AcDbSymbolTable
70
0
0
ENDTAB
0
TABLE
2
UCS
5
7
330
0
100
AcDbSymbolTable
70
0
0
ENDTAB
0
TABLE
2
DIMSTYLE
5
5
330
0
100
AcDbSymbolTable
70
1
100
AcDbDimStyleTable
0
ENDTAB
0
TABLE
2
BLOCK_RECORD
5
1
330
0
100
AcDbSymbolTable
70
1
0
ENDTAB
0
ENDSEC
0
SECTION
2
ENTITIES
0
LINE
330
1
100
AcDbEntity
8
Sheet
6
CONTINUOUS
62
0
370
0
100
AcDbLine
10
0.0000000000000000
20
0.0000000000000000
30
0.0000000000000000
11
40.0000000000000000
21
0.0000000000000000
31
0.0000000000000000
0
LINE
330
1
100
AcDbEntity
8
Sheet
6
CONTINUOUS
62
0
370
0
100
AcDbLine
10
40.0000000000000000
20
0.0000000000000000
30
0.0000000000000000
11
40.0000000000000000
21
30.0000000000000000
31
0.0000000000000000
0
LINE
330
1
100
AcDbEntity
8
Sheet
6
CONTINUOUS
62
0
370
0
100
AcDbLine
10
40.0000000000000000
20
30.0000000000000000
30
0.0000000000000000
11
0.0000000000000000
21
30.0000000000000000
31
0.0000000000000000
0
LINE
330
1
100
AcDbEntity
8
Sheet
6
CONTINUOUS
62
0
370
0
100
AcDbLine
10
0.0000000000000000
20
30.0000000000000000
30
0.0000000000000000
11
0.0000000000000000
21
0.0000000000000000
31
0.0000000000000000
0
LINE
330
1
100
AcDbEntity
8
Cut
6
CONTINUOUS
62
5
370
0
100
AcDbLine
10
17.3602362200006723
20
0.2500000000000683
30
0.0000000000000038
11
0.2500000000008030
21
0.2500000000000537
31
0.0000000000000022
0
LINE
330
1
100
AcDbEntity
8
Cut
6
CONTINUOUS
62
5
370
0
100
AcDbLine
10
0.2500000000006675
20
0.2500000000000493
30
0.0000000000000011
11
0.2500000000006456
21
22.2499999999980673
31
0.0000000000000011
0
LINE
330
1
100
AcDbEntity
8
Cut
6
CONTINUOUS
62
5
370
0
100
AcDbLine
10
0.2500000000006456
20
22.2499999999994422
30
0.0000000000000011
11
17.3602362200008642
21
22.2499999999994635
31
0.0000000000000025
0
LINE
330
1
100
AcDbEntity
8
Cut
6
CONTINUOUS
62
5
370
0
100
AcDbLine
10
17.3602362200006475
20
22.2499999999994635
30
0.0000000000000030
11
17.3602362200006723
21
0.2500000000000683
31
0.0000000000000049
0
SPLINE
8
Cut
6
CONTINUOUS
62
5
370
0
100
AcDbEntity
100
AcDbSpline
70
1
71
3
72
16
73
12
74
0
40
0.0000000000000000
40
0.0000000000000000
40
0.0000000000000000
40
0.0000000000000000
40
0.1135047903499529
40
0.2270095806999051
40
0.3405143710498583
40
0.4540191613998100
40
0.5675239517497600
40
0.6810287420997132
40
0.7945335324496664
40
0.9080383227996185
40
1.0000000000000000
40
1.0000000000000000
40
1.0000000000000000
40
1.0000000000000000
10
0.6250000000012490
20
20.1300891701076345
30
0.0000000000000016
10
0.6102128660010816
20
20.1301493287632880
30
0.0000000000000016
10
0.5804372375990565
20
20.1411296143028764
30
0.0000000000000000
10
0.5576719434194639
20
20.1828695604651784
30
0.0000000000000016
10
0.5677275588722529
20
20.2293120051562987
30
0.0000000000000008
10
0.6057454488665682
20
20.2578426193358219
30
0.0000000000000005
10
0.6531619598809089
20
20.2545214164953009
30
0.0000000000000016
10
0.6868194067694886
20
20.2209775297204359
30
0.0000000000000016
10
0.6903606087865689
20
20.1735650670867628
30
0.0000000000000005
10
0.6636005707377375
20
20.1378952875449038
30
0.0000000000000005
10
0.6369805484825023
20
20.1300404295139117
30
0.0000000000000016
10
0.6250000000012490
20
20.1300891701076345
30
0.0000000000000016
41
1.0000000000000000
41
1.0000000000000000
41
1.0000000000000000
41
1.0000000000000000
41
1.0000000000000000
41
1.0000000000000000
41
1.0000000000000000
41
1.0000000000000000
41
1.0000000000000000
41
1.0000000000000000
41
1.0000000000000000
41
1.0000000000000000
0
SPLINE
8
Cut
6
CONTINUOUS
62
5
370
0
100
AcDbEntity
100
AcDbSpline
70
1
71
3
72
16
73
12
74
0
40
0.0000000000000000
40
0.0000000000000000
40
0.0000000000000000
40
0.0000000000000000
40
0.1135047903499531
40
0.2270095806999019
40
0.3405143710498594
40
0.4540191613998083
40
0.5675239517497581
40
0.6810287420997131
40
0.7945335324496658
40
0.9080383227996193
40
1.0000000000000000
40
1.0000000000000000
40
1.0000000000000000
40
1.0000000000000000
10
16.9852362199999298
20
1.8338775224098143
30
0.0000000000000027
10
16.9704490859997676
20
1.8339376810654653
30
0.0000000000000038
10
16.9406734575977360
20
1.8449179666050484
30
0.0000000000000038
10
16.9179081634181507
20
1.8866579127673468
30
0.0000000000000027
10
16.9279637788709323
20
1.9331003574584702
30
0.0000000000000005
10
16.9659816688652541
20
1.9616309716379949
30
0.0000000000000049
10
17.0133981798795944
20
1.9583097687974680
30
0.0000000000000038
10
17.0470556267681701
20
1.9247658820226028
30
0.0000000000000038
10
17.0505968287852596
20
1.8773534193889347
30
0.0000000000000071
10
17.0238367907364179
20
1.8416836398470739
30
0.0000000000000027
10
16.9972167684811843
20
1.8338287818160879
30
0.0000000000000027
10
16.9852362199999298
20
1.8338775224098143
30
0.0000000000000027
41
1.0000000000000000
41
1.0000000000000000
41
1.0000000000000000
41
1.0000000000000000
41
1.0000000000000000
41
1.0000000000000000
41
1.0000000000000000
41
1.0000000000000000
41
1.0000000000000000
41
1.0000000000000000
41
1.0000000000000000
41
1.0000000000000000
0
SPLINE
8
Cut
6
CONTINUOUS
62
5
370
0
100
AcDbEntity
100
AcDbSpline
70
1
71
3
72
16
73
12
74
0
40
0.0000000000000000
40
0.0000000000000000
40
0.0000000000000000
40
0.0000000000000000
40
0.1135047903499519
40
0.2270095806999037
40
0.3405143710498558
40
0.4540191613998072
40
0.5675239517497589
40
0.6810287420997106
40
0.7945335324496626
40
0.9080383227996145
40
1.0000000000000000
40
1.0000000000000000
40
1.0000000000000000
40
1.0000000000000000
10
4.5275590550012872
20
20.1300891701078015
30
0.0000000000000008
10
4.5127719210011197
20
20.1301493287634550
30
0.0000000000000005
10
4.4829962925990907
20
20.1411296143030434
30
0.0000000000000005
10
4.4602309984194983
20
20.1828695604653419
30
0.0000000000000005
10
4.4702866138722870
20
20.2293120051564692
30
0.0000000000000019
10
4.5083045038666025
20
20.2578426193359924
30
0.0000000000000011
10
4.5557210148809428
20
20.2545214164954679
30
0.0000000000000025
10
4.5893784617695186
20
20.2209775297206029
30
0.0000000000000000
10
4.5929196637866117
20
20.1735650670869298
30
0.0000000000000030
10
4.5661596257377717
20
20.1378952875450672
30
0.0000000000000014
10
4.5395396034825408
20
20.1300404295140787
30
0.0000000000000008
10
4.5275590550012872
20
20.1300891701078015
30
0.0000000000000008
41
1.0000000000000000
41
1.0000000000000000
41
1.0000000000000000
41
1.0000000000000000
41
1.0000000000000000
41
1.0000000000000000
41
1.0000000000000000
41
1.0000000000000000
41
1.0000000000000000
41
1.0000000000000000
41
1.0000000000000000
41
1.0000000000000000
0
SPLINE
8
Cut
6
CONTINUOUS
62
5
370
0
100
AcDbEntity
100
AcDbSpline
70
1
71
3
72
16
73
12
74
0
40
0.0000000000000000
40
0.0000000000000000
40
0.0000000000000000
40
0.0000000000000000
40
0.1135047903499536
40
0.2270095806999042
40
0.3405143710498533
40
0.4540191613998063
40
0.5675239517497598
40
0.6810287420997136
40
0.7945335324496630
40
0.9080383227996198
40
1.0000000000000000
40
1.0000000000000000
40
1.0000000000000000
40
1.0000000000000000
10
16.9852362199999334
20
4.0818358384547198
30
0.0000000000000027
10
16.9704490859997676
20
4.0818959971103732
30
0.0000000000000016
10
16.9406734575977360
20
4.0928762826499714
30
0.0000000000000016
10
16.9179081634181436
20
4.1346162288122699
30
0.0000000000000038
10
16.9279637788709394
20
4.1810586735033839
30
0.0000000000000038
10
16.9659816688652505
20
4.2095892876829071
30
0.0000000000000071
10
17.0133981798795908
20
4.2062680848423915
30
0.0000000000000049
10
17.0470556267681594
20
4.1727241980675256
30
0.0000000000000060
10
17.0505968287852596
20
4.1253117354338444
30
0.0000000000000027
10
17.0238367907364143
20
4.0896419558919996
30
0.0000000000000071
10
16.9972167684811879
20
4.0817870978609978
30
0.0000000000000027
10
16.9852362199999334
20
4.0818358384547198
30
0.0000000000000027
41
1.0000000000000000
41
1.0000000000000000
41
1.0000000000000000
41
1.0000000000000000
41
1.0000000000000000
41
1.0000000000000000
41
1.0000000000000000
41
1.0000000000000000
41
1.0000000000000000
41
1.0000000000000000
41
1.0000000000000000
41
1.0000000000000000
0
SPLINE
8
Cut
6
CONTINUOUS
62
5
370
0
100
AcDbEntity
100
AcDbSpline
70
1
71
3
72
16
73
12
74
0
40
0.0000000000000000
40
0.0000000000000000
40
0.0000000000000000
40
0.0000000000000000
40
0.1135047903499529
40
0.2270095806999049
40
0.3405143710498581
40
0.4540191613998100
40
0.5675239517497600
40
0.6810287420997132
40
0.7945335324496664
40
0.9080383227996185
40
1.0000000000000000
40
1.0000000000000000
40
1.0000000000000000
40
1.0000000000000000
10
16.9852362199998979
20
20.1300891701078015
30
0.0000000000000030
10
16.9704490859997321
20
20.1301493287634514
30
0.0000000000000025
10
16.9406734575977111
20
20.1411296143030434
30
0.0000000000000019
10
16.9179081634181152
20
20.1828695604653419
30
0.0000000000000038
10
16.9279637788709039
20
20.2293120051564657
30
0.0000000000000025
10
16.9659816688652185
20
20.2578426193359888
30
0.0000000000000022
10
17.0133981798795624
20
20.2545214164954679
30
0.0000000000000027
10
17.0470556267681346
20
20.2209775297205958
30
0.0000000000000030
10
17.0505968287852276
20
20.1735650670869262
30
0.0000000000000036
10
17.0238367907363930
20
20.1378952875450672
30
0.0000000000000027
10
16.9972167684811524
20
20.1300404295140787
30
0.0000000000000036
10
16.9852362199998979
20
20.1300891701078015
30
0.0000000000000030
41
1.0000000000000000
41
1.0000000000000000
41
1.0000000000000000
41
1.0000000000000000
41
1.0000000000000000
41
1.0000000000000000
41
1.0000000000000000
41
1.0000000000000000
41
1.0000000000000000
41
1.0000000000000000
41
1.0000000000000000
41
1.0000000000000000
0
SPLINE
8
Cut
6
CONTINUOUS
62
5
370
0
100
AcDbEntity
100
AcDbSpline
70
1
71
3
72
16
73
12
74
0
40
0.0000000000000000
40
0.0000000000000000
40
0.0000000000000000
40
0.0000000000000000
40
0.1135047903499520
40
0.2270095806999037
40
0.3405143710498557
40
0.4540191613998072
40
0.5675239517497588
40
0.6810287420997108
40
0.7945335324496627
40
0.9080383227996146
40
1.0000000000000000
40
1.0000000000000000
40
1.0000000000000000
40
1.0000000000000000
10
13.0826771649999181
20
20.1300891701077340
30
0.0000000000000025
10
13.0678900309997506
20
20.1301493287633910
30
0.0000000000000019
10
13.0381144025977260
20
20.1411296143029759
30
0.0000000000000022
10
13.0153491084181283
20
20.1828695604652815
30
0.0000000000000041
10
13.0254047238709223
20
20.2293120051564053
30
0.0000000000000030
10
13.0634226138652370
20
20.2578426193359284
30
0.0000000000000016
10
13.1108391248795773
20
20.2545214164954039
30
0.0000000000000038
10
13.1444965717681530
20
20.2209775297205354
30
0.0000000000000019
10
13.1480377737852425
20
20.1735650670868623
30
0.0000000000000027
10
13.1212777357364061
20
20.1378952875450032
30
0.0000000000000025
10
13.0946577134811708
20
20.1300404295140112
30
0.0000000000000027
10
13.0826771649999181
20
20.1300891701077340
30
0.0000000000000025
41
1.0000000000000000
41
1.0000000000000000
41
1.0000000000000000
41
1.0000000000000000
41
1.0000000000000000
41
1.0000000000000000
41
1.0000000000000000
41
1.0000000000000000
41
1.0000000000000000
41
1.0000000000000000
41
1.0000000000000000
41
1.0000000000000000
0
SPLINE
8
Cut
6
CONTINUOUS
62
5
370
0
100
AcDbEntity
100
AcDbSpline
70
1
71
3
72
16
73
12
74
0
40
0.0000000000000000
40
0.0000000000000000
40
0.0000000000000000
40
0.0000000000000000
40
0.1135047903499522
40
0.2270095806999043
40
0.3405143710498568
40
0.4540191613998084
40
0.5675239517497603
40
0.6810287420997119
40
0.7945335324496643
40
0.9080383227996173
40
1.0000000000000000
40
1.0000000000000000
40
1.0000000000000000
40
1.0000000000000000
10
5.5944881888587954
20
20.5168296959693883
30
0.0000000000000022
10
5.5797010548586323
20
20.5168898546250382
30
0.0000000000000016
10
5.5499254264566025
20
20.5278701401646266
30
0.0000000000000008
10
5.5271601322770056
20
20.5696100863269287
30
0.0000000000000022
10
5.5372157477297943
20
20.6160525310180525
30
0.0000000000000011
10
5.5752336377241098
20
20.6445831451975756
30
0.0000000000000019
10
5.6226501487384510
20
20.6412619423570547
30
0.0000000000000019
10
5.6563075956270259
20
20.6077180555821826
30
0.0000000000000008
10
5.6598487976441199
20
20.5603055929485095
30
0.0000000000000025
10
5.6330887595952834
20
20.5246358134066540
30
0.0000000000000008
10
5.6064687373400526
20
20.5167809553756655
30
0.0000000000000022
10
5.5944881888587954
20
20.5168296959693883
30
0.0000000000000022
41
1.0000000000000000
41
1.0000000000000000
41
1.0000000000000000
41
1.0000000000000000
41
1.0000000000000000
41
1.0000000000000000
41
1.0000000000000000
41
1.0000000000000000
41
1.0000000000000000
41
1.0000000000000000
41
1.0000000000000000
41
1.0000000000000000
0
SPLINE
8
Cut
6
CONTINUOUS
62
5
370
0
100
AcDbEntity
100
AcDbSpline
70
1
71
3
72
16
73
12
74
0
40
0.0000000000000000
40
0.0000000000000000
40
0.0000000000000000
40
0.0000000000000000
40
0.1135047903499530
40
0.2270095806999020
40
0.3405143710498556
40
0.4540191613998073
40
0.5675239517497573
40
0.6810287420997125
40
0.7945335324496666
40
0.9080383227996194
40
1.0000000000000000
40
1.0000000000000000
40
1.0000000000000000
40
1.0000000000000000
10
0.6250000000012796
20
1.8338775224097921
30
0.0000000000000022
10
0.6102128660011122
20
1.8339376810654431
30
0.0000000000000022
10
0.5804372375990871
20
1.8449179666050350
30
0.0000000000000000
10
0.5576719434194989
20
1.8866579127673466
30
0.0000000000000022
10
0.5677275588722834
20
1.9331003574584524
30
0.0000000000000011
10
0.6057454488665989
20
1.9616309716379816
30
0.0000000000000000
10
0.6531619598809395
20
1.9583097687974635
30
0.0000000000000022
10
0.6868194067695148
20
1.9247658820225892
30
0.0000000000000022
10
0.6903606087866039
20
1.8773534193889212
30
0.0000000000000011
10
0.6636005707377680
20
1.8416836398470566
30
0.0000000000000022
10
0.6369805484825328
20
1.8338287818160701
30
0.0000000000000022
10
0.6250000000012796
20
1.8338775224097921
30
0.0000000000000022
41
1.0000000000000000
41
1.0000000000000000
41
1.0000000000000000
41
1.0000000000000000
41
1.0000000000000000
41
1.0000000000000000
41
1.0000000000000000
41
1.0000000000000000
41
1.0000000000000000
41
1.0000000000000000
41
1.0000000000000000
41
1.0000000000000000
0
SPLINE
8
Cut
6
CONTINUOUS
62
5
370
0
100
AcDbEntity
100
AcDbSpline
70
1
71
3
72
16
73
12
74
0
40
0.0000000000000000
40
0.0000000000000000
40
0.0000000000000000
40
0.0000000000000000
40
0.1135047903499531
40
0.2270095806999022
40
0.3405143710498550
40
0.4540191613998075
40
0.5675239517497576
40
0.6810287420997130
40
0.7945335324496661
40
0.9080383227996190
40
1.0000000000000000
40
1.0000000000000000
40
1.0000000000000000
40
1.0000000000000000
10
0.6250000000012796
20
4.0818358384547215
30
0.0000000000000033
10
0.6102128660011122
20
4.0818959971103723
30
0.0000000000000022
10
0.5804372375990871
20
4.0928762826499598
30
0.0000000000000022
10
0.5576719434194901
20
4.1346162288122583
30
0.0000000000000000
10
0.5677275588722834
20
4.1810586735033839
30
0.0000000000000044
10
0.6057454488665989
20
4.2095892876829000
30
0.0000000000000011
10
0.6531619598809438
20
4.2062680848423923
30
0.0000000000000011
10
0.6868194067695148
20
4.1727241980675123
30
0.0000000000000044
10
0.6903606087866039
20
4.1253117354338480
30
0.0000000000000022
10
0.6636005707377680
20
4.0896419558919881
30
0.0000000000000044
10
0.6369805484825328
20
4.0817870978609996
30
0.0000000000000022
10
0.6250000000012796
20
4.0818358384547215
30
0.0000000000000033
41
1.0000000000000000
41
1.0000000000000000
41
1.0000000000000000
41
1.0000000000000000
41
1.0000000000000000
41
1.0000000000000000
41
1.0000000000000000
41
1.0000000000000000
41
1.0000000000000000
41
1.0000000000000000
41
1.0000000000000000
41
1.0000000000000000
0
SPLINE
8
Cut
6
CONTINUOUS
62
5
370
0
100
AcDbEntity
100
AcDbSpline
70
1
71
3
72
16
73
12
74
0
40
0.0000000000000000
40
0.0000000000000000
40
0.0000000000000000
40
0.0000000000000000
40
0.1135047903499525
40
0.2270095806999025
40
0.3405143710498560
40
0.4540191613998083
40
0.5675239517497582
40
0.6810287420997134
40
0.7945335324496663
40
0.9080383227996192
40
1.0000000000000000
40
1.0000000000000000
40
1.0000000000000000
40
1.0000000000000000
10
0.6250000000012578
20
7.7856241907563337
30
0.0000000000000022
10
0.6102128660010904
20
7.7856843494119872
30
0.0000000000000022
10
0.5804372375990653
20
7.7966646349515720
30
0.0000000000000000
10
0.5576719434194682
20
7.8384045811138678
30
0.0000000000000022
10
0.5677275588722572
20
7.8848470258049925
30
0.0000000000000022
10
0.6057454488665813
20
7.9133776399845210
30
0.0000000000000033
10
0.6531619598809133
20
7.9100564371439921
30
0.0000000000000016
10
0.6868194067694886
20
7.8765125503691333
30
0.0000000000000000
10
0.6903606087865821
20
7.8291000877354566
30
0.0000000000000049
10
0.6636005707377506
20
7.7934303081936047
30
0.0000000000000022
10
0.6369805484825110
20
7.7855754501626118
30
0.0000000000000027
10
0.6250000000012578
20
7.7856241907563337
30
0.0000000000000022
41
1.0000000000000000
41
1.0000000000000000
41
1.0000000000000000
41
1.0000000000000000
41
1.0000000000000000
41
1.0000000000000000
41
1.0000000000000000
41
1.0000000000000000
41
1.0000000000000000
41
1.0000000000000000
41
1.0000000000000000
41
1.0000000000000000
0
SPLINE
8
Cut
6
CONTINUOUS
62
5
370
0
100
AcDbEntity
100
AcDbSpline
70
1
71
3
72
16
73
12
74
0
40
0.0000000000000000
40
0.0000000000000000
40
0.0000000000000000
40
0.0000000000000000
40
0.1135047903499540
40
0.2270095806999059
40
0.3405143710498583
40
0.4540191613998102
40
0.5675239517497606
40
0.6810287420997129
40
0.7945335324496656
40
0.9080383227996183
40
1.0000000000000000
40
1.0000000000000000
40
1.0000000000000000
40
1.0000000000000000
10
0.6250000000012140
20
13.9578566804319824
30
0.0000000000000000
10
0.6102128660010466
20
13.9579168390876358
30
-0.0000000000000005
10
0.5804372375990259
20
13.9688971246272313
30
0.0000000000000022
10
0.5576719434194289
20
14.0106370707895262
30
0.0000000000000005
10
0.5677275588722223
20
14.0570795154806518
30
0.0000000000000005
10
0.6057454488665420
20
14.0856101296601768
30
0.0000000000000016
10
0.6531619598808783
20
14.0822889268196487
30
-0.0000000000000011
10
0.6868194067694492
20
14.0487450400447820
30
-0.0000000000000005
10
0.6903606087865427
20
14.0013325774111088
30
0.0000000000000022
10
0.6636005707377068
20
13.9656627978692551
30
0.0000000000000022
10
0.6369805484824673
20
13.9578079398382595
30
0.0000000000000005
10
0.6250000000012140
20
13.9578566804319824
30
0.0000000000000000
41
1.0000000000000000
41
1.0000000000000000
41
1.0000000000000000
41
1.0000000000000000
41
1.0000000000000000
41
1.0000000000000000
41
1.0000000000000000
41
1.0000000000000000
41
1.0000000000000000
41
1.0000000000000000
41
1.0000000000000000
41
1.0000000000000000
0
SPLINE
8
Cut
6
CONTINUOUS
62
5
370
0
100
AcDbEntity
100
AcDbSpline
70
1
71
3
72
16
73
12
74
0
40
0.0000000000000000
40
0.0000000000000000
40
0.0000000000000000
40
0.0000000000000000
40
0.1135047903499515
40
0.2270095806999029
40
0.3405143710498573
40
0.4540191613998085
40
0.5675239517497601
40
0.6810287420997123
40
0.7945335324496640
40
0.9080383227996144
40
1.0000000000000000
40
1.0000000000000000
40
1.0000000000000000
40
1.0000000000000000
10
4.5275590550012481
20
14.6300891701077305
30
0.0000000000000016
10
4.5127719210010850
20
14.6301493287633821
30
0.0000000000000005
10
4.4829962925990552
20
14.6411296143029723
30
0.0000000000000019
10
4.4602309984194628
20
14.6828695604652708
30
0.0000000000000016
10
4.4702866138722523
20
14.7293120051563946
30
0.0000000000000016
10
4.5083045038665670
20
14.7578426193359196
30
0.0000000000000025
10
4.5557210148809082
20
14.7545214164953968
30
0.0000000000000014
10
4.5893784617694831
20
14.7209775297205301
30
0.0000000000000008
10
4.5929196637865770
20
14.6735650670868552
30
0.0000000000000019
10
4.5661596257377406
20
14.6378952875449961
30
0.0000000000000030
10
4.5395396034825053
20
14.6300404295140076
30
0.0000000000000014
10
4.5275590550012481
20
14.6300891701077305
30
0.0000000000000016
41
1.0000000000000000
41
1.0000000000000000
41
1.0000000000000000
41
1.0000000000000000
41
1.0000000000000000
41
1.0000000000000000
41
1.0000000000000000
41
1.0000000000000000
41
1.0000000000000000
41
1.0000000000000000
41
1.0000000000000000
41
1.0000000000000000
0
SPLINE
8
Cut
6
CONTINUOUS
62
5
370
0
100
AcDbEntity
100
AcDbSpline
70
1
71
3
72
16
73
12
74
0
40
0.0000000000000000
40
0.0000000000000000
40
0.0000000000000000
40
0.0000000000000000
40
0.1135047903499524
40
0.2270095806999013
40
0.3405143710498549
40
0.4540191613998059
40
0.5675239517497571
40
0.6810287420997070
40
0.7945335324496603
40
0.9080383227996159
40
1.0000000000000000
40
1.0000000000000000
40
1.0000000000000000
40
1.0000000000000000
10
8.8051181100006009
20
1.8338775224096919
30
0.0000000000000019
10
8.7903309760004369
20
1.8339376810653429
30
0.0000000000000019
10
8.7605553475984088
20
1.8449179666049347
30
0.0000000000000052
10
8.7377900534188147
20
1.8866579127672374
30
0.0000000000000008
10
8.7478456688716051
20
1.9331003574583563
30
0.0000000000000063
10
8.7858635588659197
20
1.9616309716378901
30
0.0000000000000041
10
8.8332800698802600
20
1.9583097687973630
30
-0.0000000000000003
10
8.8669375167688358
20
1.9247658820224931
30
0.0000000000000063
10
8.8704787187859289
20
1.8773534193888208
30
0.0000000000000019
10
8.8437186807370942
20
1.8416836398469603
30
0.0000000000000074
10
8.8170986584818589
20
1.8338287818159698
30
0.0000000000000030
10
8.8051181100006009
20
1.8338775224096919
30
0.0000000000000019
41
1.0000000000000000
41
1.0000000000000000
41
1.0000000000000000
41
1.0000000000000000
41
1.0000000000000000
41
1.0000000000000000
41
1.0000000000000000
41
1.0000000000000000
41
1.0000000000000000
41
1.0000000000000000
41
1.0000000000000000
41
1.0000000000000000
0
SPLINE
8
Cut
6
CONTINUOUS
62
5
370
0
100
AcDbEntity
100
AcDbSpline
70
1
71
3
72
16
73
12
74
0
40
0.0000000000000000
40
0.0000000000000000
40
0.0000000000000000
40
0.0000000000000000
40
0.1135047903499516
40
0.2270095806999043
40
0.3405143710498567
40
0.4540191613998093
40
0.5675239517497599
40
0.6810287420997119
40
0.7945335324496643
40
0.9080383227996165
40
0.9999999999999999
40
0.9999999999999999
40
0.9999999999999999
40
0.9999999999999999
10
6.3444881888588132
20
20.0991621199617150
30
0.0000000000000008
10
6.3297010548586456
20
20.0992222786173684
30
0.0000000000000011
10
6.2999254264566202
20
20.1102025641569533
30
0.0000000000000019
10
6.2771601322770234
20
20.1519425103192518
30
0.0000000000000014
10
6.2872157477298130
20
20.1983849550103756
30
0.0000000000000005
10
6.3252336377241321
20
20.2269155691899023
30
0.0000000000000022
10
6.3726501487384732
20
20.2235943663493813
30
0.0000000000000016
10
6.4063075956270481
20
20.1900504795745164
30
0.0000000000000016
10
6.4098487976441376
20
20.1426380169408397
30
0.0000000000000016
10
6.3830887595953012
20
20.1069682373989806
30
0.0000000000000027
10
6.3564687373400659
20
20.0991133793679921
30
0.0000000000000008
10
6.3444881888588132
20
20.0991621199617150
30
0.0000000000000008
41
1.0000000000000000
41
1.0000000000000000
41
1.0000000000000000
41
1.0000000000000000
41
1.0000000000000000
41
1.0000000000000000
41
1.0000000000000000
41
1.0000000000000000
41
1.0000000000000000
41
1.0000000000000000
41
1.0000000000000000
41
1.0000000000000000
0
SPLINE
8
Cut
6
CONTINUOUS
62
5
370
0
100
AcDbEntity
100
AcDbSpline
70
1
71
3
72
16
73
12
74
0
40
0.0000000000000000
40
0.0000000000000000
40
0.0000000000000000
40
0.0000000000000000
40
0.1135047903499529
40
0.2270095806999041
40
0.3405143710498564
40
0.4540191613998091
40
0.5675239517497590
40
0.6810287420997125
40
0.7945335324496675
40
0.9080383227996186
40
1.0000000000000000
40
1.0000000000000000
40
1.0000000000000000
40
1.0000000000000000
10
1.9153543307094252
20
16.8282974563074461
30
0.0000000000000022
10
1.9005671967092579
20
16.8283576149630996
30
0.0000000000000022
10
1.8707915683072327
20
16.8393379005026915
30
0.0000000000000005
10
1.8480262741276401
20
16.8810778466649900
30
0.0000000000000027
10
1.8580818895804248
20
16.9275202913561102
30
0.0000000000000008
10
1.8960997795747445
20
16.9560509055356405
30
0.0000000000000022
10
1.9435162905890850
20
16.9527297026951125
30
0.0000000000000016
10
1.9771737374776561
20
16.9191858159202475
30
0.0000000000000022
10
1.9807149394947539
20
16.8717733532865743
30
0.0000000000000016
10
1.9539549014459092
20
16.8361035737447118
30
0.0000000000000008
10
1.9273348791906784
20
16.8282487157137268
30
0.0000000000000016
10
1.9153543307094252
20
16.8282974563074461
30
0.0000000000000022
41
1.0000000000000000
41
1.0000000000000000
41
1.0000000000000000
41
1.0000000000000000
41
1.0000000000000000
41
1.0000000000000000
41
1.0000000000000000
41
1.0000000000000000
41
1.0000000000000000
41
1.0000000000000000
41
1.0000000000000000
41
1.0000000000000000
0
SPLINE
8
Cut
6
CONTINUOUS
62
5
370
0
100
AcDbEntity
100
AcDbSpline
70
1
71
3
72
16
73
12
74
0
40
0.0000000000000000
40
0.0000000000000000
40
0.0000000000000000
40
0.0000000000000000
40
0.1135047903499540
40
0.2270095806999035
40
0.3405143710498547
40
0.4540191613998060
40
0.5675239517497570
40
0.6810287420997064
40
0.7945335324496594
40
0.9080383227996148
40
1.0000000000000000
40
1.0000000000000000
40
1.0000000000000000
40
1.0000000000000000
10
8.8051181100006044
20
4.0818358384546078
30
0.0000000000000019
10
8.7903309760004369
20
4.0818959971102631
30
0.0000000000000008
10
8.7605553475984124
20
4.0928762826498550
30
0.0000000000000008
10
8.7377900534188147
20
4.1346162288121624
30
0.0000000000000041
10
8.7478456688716051
20
4.1810586735032729
30
0.0000000000000052
10
8.7858635588659233
20
4.2095892876828014
30
0.0000000000000041
10
8.8332800698802600
20
4.2062680848422769
30
0.0000000000000041
10
8.8669375167688393
20
4.1727241980674119
30
-0.0000000000000003
10
8.8704787187859289
20
4.1253117354337441
30
0.0000000000000030
10
8.8437186807370942
20
4.0896419558918788
30
0.0000000000000041
10
8.8170986584818589
20
4.0817870978608877
30
0.0000000000000019
10
8.8051181100006044
20
4.0818358384546078
30
0.0000000000000019
41
1.0000000000000000
41
1.0000000000000000
41
1.0000000000000000
41
1.0000000000000000
41
1.0000000000000000
41
1.0000000000000000
41
1.0000000000000000
41
1.0000000000000000
41
1.0000000000000000
41
1.0000000000000000
41
1.0000000000000000
41
1.0000000000000000
0
SPLINE
8
Cut
6
CONTINUOUS
62
5
370
0
100
AcDbEntity
100
AcDbSpline
70
1
71
3
72
16
73
12
74
0
40
0.0000000000000000
40
0.0000000000000000
40
0.0000000000000000
40
0.0000000000000000
40
0.1135047903499517
40
0.2270095806999043
40
0.3405143710498549
40
0.4540191613998056
40
0.5675239517497568
40
0.6810287420997059
40
0.7945335324496636
40
0.9080383227996149
40
1.0000000000000000
40
1.0000000000000000
40
1.0000000000000000
40
1.0000000000000000
10
4.5275590550012783
20
7.7856241907563879
30
0.0000000000000036
10
4.5127719210011117
20
7.7856843494120405
30
0.0000000000000036
10
4.4829962925990863
20
7.7966646349516351
30
0.0000000000000052
10
4.4602309984194939
20
7.8384045811139309
30
0.0000000000000003
10
4.4702866138722781
20
7.8848470258050503
30
0.0000000000000030
10
4.5083045038665981
20
7.9133776399845832
30
0.0000000000000014
10
4.5557210148809340
20
7.9100564371440587
30
0.0000000000000030
10
4.5893784617695141
20
7.8765125503691911
30
0.0000000000000003
10
4.5929196637866028
20
7.8291000877355188
30
0.0000000000000046
10
4.5661596257377672
20
7.7934303081936562
30
-0.0000000000000008
10
4.5395396034825319
20
7.7855754501626651
30
0.0000000000000025
10
4.5275590550012783
20
7.7856241907563879
30
0.0000000000000036
41
1.0000000000000000
41
1.0000000000000000
41
1.0000000000000000
41
1.0000000000000000
41
1.0000000000000000
41
1.0000000000000000
41
1.0000000000000000
41
1.0000000000000000
41
1.0000000000000000
41
1.0000000000000000
41
1.0000000000000000
41
1.0000000000000000
0
SPLINE
8
Cut
6
CONTINUOUS
62
5
370
0
100
AcDbEntity
100
AcDbSpline
70
1
71
3
72
16
73
12
74
0
40
0.0000000000000000
40
0.0000000000000000
40
0.0000000000000000
40
0.0000000000000000
40
0.1135047903499524
40
0.2270095806999045
40
0.3405143710498569
40
0.4540191613998082
40
0.5675239517497602
40
0.6810287420997114
40
0.7945335324496643
40
0.9080383227996173
40
1.0000000000000000
40
1.0000000000000000
40
1.0000000000000000
40
1.0000000000000000
10
12.0157480311424631
20
20.5168296959693173
30
0.0000000000000022
10
12.0009608971422956
20
20.5168898546249672
30
0.0000000000000027
10
11.9711852687402658
20
20.5278701401645591
30
0.0000000000000030
10
11.9484199745606681
20
20.5696100863268576
30
0.0000000000000011
10
11.9584755900134585
20
20.6160525310179814
30
0.0000000000000030
10
11.9964934800077732
20
20.6445831451975046
30
0.0000000000000022
10
12.0439099910221135
20
20.6412619423569801
30
0.0000000000000011
10
12.0775674379106892
20
20.6077180555821151
30
0.0000000000000016
10
12.0811086399277823
20
20.5603055929484420
30
0.0000000000000016
10
12.0543486018789476
20
20.5246358134065794
30
0.0000000000000022
10
12.0277285796237159
20
20.5167809553755944
30
0.0000000000000019
10
12.0157480311424631
20
20.5168296959693173
30
0.0000000000000022
41
1.0000000000000000
41
1.0000000000000000
41
1.0000000000000000
41
1.0000000000000000
41
1.0000000000000000
41
1.0000000000000000
41
1.0000000000000000
41
1.0000000000000000
41
1.0000000000000000
41
1.0000000000000000
41
1.0000000000000000
41
1.0000000000000000
0
SPLINE
8
Cut
6
CONTINUOUS
62
5
370
0
100
AcDbEntity
100
AcDbSpline
70
1
71
3
72
16
73
12
74
0
40
0.0000000000000000
40
0.0000000000000000
40
0.0000000000000000
40
0.0000000000000000
40
0.1135047903499521
40
0.2270095806999047
40
0.3405143710498569
40
0.4540191613998085
40
0.5675239517497597
40
0.6810287420997120
40
0.7945335324496647
40
0.9080383227996167
40
1.0000000000000000
40
1.0000000000000000
40
1.0000000000000000
40
1.0000000000000000
10
11.2657480311424578
20
20.0991621199617079
30
0.0000000000000019
10
11.2509608971422903
20
20.0992222786173613
30
0.0000000000000019
10
11.2211852687402658
20
20.1102025641569533
30
0.0000000000000011
10
11.1984199745606734
20
20.1519425103192518
30
0.0000000000000033
10
11.2084755900134567
20
20.1983849550103756
30
0.0000000000000027
10
11.2464934800077767
20
20.2269155691898987
30
0.0000000000000027
10
11.2939099910221170
20
20.2235943663493778
30
0.0000000000000022
10
11.3275674379106928
20
20.1900504795745057
30
0.0000000000000016
10
11.3311086399277823
20
20.1426380169408326
30
0.0000000000000025
10
11.3043486018789459
20
20.1069682373989735
30
0.0000000000000022
10
11.2777285796237106
20
20.0991133793679886
30
0.0000000000000016
10
11.2657480311424578
20
20.0991621199617079
30
0.0000000000000019
41
1.0000000000000000
41
1.0000000000000000
41
1.0000000000000000
41
1.0000000000000000
41
1.0000000000000000
41
1.0000000000000000
41
1.0000000000000000
41
1.0000000000000000
41
1.0000000000000000
41
1.0000000000000000
41
1.0000000000000000
41
1.0000000000000000
0
SPLINE
8
Cut
6
CONTINUOUS
62
5
370
0
100
AcDbEntity
100
AcDbSpline
70
1
71
3
72
16
73
12
74
0
40
0.0000000000000000
40
0.0000000000000000
40
0.0000000000000000
40
0.0000000000000000
40
0.1135047903499516
40
0.2270095806999021
40
0.3405143710498552
40
0.4540191613998081
40
0.5675239517497586
40
0.6810287420997143
40
0.7945335324496625
40
0.9080383227996200
40
1.0000000000000000
40
1.0000000000000000
40
1.0000000000000000
40
1.0000000000000000
10
1.9153543307094427
20
6.1098923689228100
30
0.0000000000000025
10
1.9005671967092754
20
6.1099525275784599
30
0.0000000000000014
10
1.8707915683072458
20
6.1209328131180385
30
0.0000000000000011
10
1.8480262741276576
20
6.1626727592803476
30
0.0000000000000033
10
1.8580818895804465
20
6.2091152039714643
30
0.0000000000000022
10
1.8960997795747576
20
6.2376458181509831
30
0.0000000000000046
10
1.9435162905891070
20
6.2343246153104719
30
0.0000000000000025
10
1.9771737374776779
20
6.2007807285355998
30
0.0000000000000036
10
1.9807149394947670
20
6.1533682659019293
30
0.0000000000000014
10
1.9539549014459312
20
6.1176984863600667
30
0.0000000000000025
10
1.9273348791906959
20
6.1098436283290853
30
0.0000000000000025
10
1.9153543307094427
20
6.1098923689228100
30
0.0000000000000025
41
1.0000000000000000
41
1.0000000000000000
41
1.0000000000000000
41
1.0000000000000000
41
1.0000000000000000
41
1.0000000000000000
41
1.0000000000000000
41
1.0000000000000000
41
1.0000000000000000
41
1.0000000000000000
41
1.0000000000000000
41
1.0000000000000000
0
SPLINE
8
Cut
6
CONTINUOUS
62
5
370
0
100
AcDbEntity
100
AcDbSpline
70
1
71
3
72
16
73
12
74
0
40
0.0000000000000000
40
0.0000000000000000
40
0.0000000000000000
40
0.0000000000000000
40
0.1135047903499534
40
0.2270095806999061
40
0.3405143710498582
40
0.4540191613998101
40
0.5675239517497630
40
0.6810287420997139
40
0.7945335324496663
40
0.9080383227996187
40
1.0000000000000000
40
1.0000000000000000
40
1.0000000000000000
40
1.0000000000000000
10
1.9153543307094734
20
11.4690949126150592
30
0.0000000000000014
10
1.9005671967093059
20
11.4691550712707127
30
0.0000000000000014
10
1.8707915683072809
20
11.4801353568103011
30
0.0000000000000000
10
1.8480262741276883
20
11.5218753029726031
30
0.0000000000000027
10
1.8580818895804772
20
11.5683177476637251
30
0.0000000000000011
10
1.8960997795747925
20
11.5968483618432483
30
0.0000000000000025
10
1.9435162905891332
20
11.5935271590027185
30
0.0000000000000014
10
1.9771737374777085
20
11.5599832722278588
30
0.0000000000000014
10
1.9807149394947976
20
11.5125708095941821
30
0.0000000000000014
10
1.9539549014459618
20
11.4769010300523249
30
0.0000000000000003
10
1.9273348791907265
20
11.4690461720213364
30
0.0000000000000019
10
1.9153543307094734
20
11.4690949126150592
30
0.0000000000000014
41
1.0000000000000000
41
1.0000000000000000
41
1.0000000000000000
41
1.0000000000000000
41
1.0000000000000000
41
1.0000000000000000
41
1.0000000000000000
41
1.0000000000000000
41
1.0000000000000000
41
1.0000000000000000
41
1.0000000000000000
41
1.0000000000000000
0
SPLINE
8
Cut
6
CONTINUOUS
62
5
370
0
100
AcDbEntity
100
AcDbSpline
70
1
71
3
72
16
73
12
74
0
40
0.0000000000000000
40
0.0000000000000000
40
0.0000000000000000
40
0.0000000000000000
40
0.1135047903499531
40
0.2270095806999022
40
0.3405143710498550
40
0.4540191613998075
40
0.5675239517497576
40
0.6810287420997130
40
0.7945335324496661
40
0.9080383227996190
40
1.0000000000000000
40
1.0000000000000000
40
1.0000000000000000
40
1.0000000000000000
10
16.9852362199999156
20
7.7856241907563470
30
0.0000000000000044
10
16.9704490859997499
20
7.7856843494120005
30
0.0000000000000038
10
16.9406734575977289
20
7.7966646349515836
30
0.0000000000000038
10
16.9179081634181330
20
7.8384045811138865
30
0.0000000000000022
10
16.9279637788709181
20
7.8848470258050138
30
0.0000000000000038
10
16.9659816688652398
20
7.9133776399845326
30
0.0000000000000016
10
17.0133981798795766
20
7.9100564371440143
30
0.0000000000000027
10
17.0470556267681523
20
7.8765125503691413
30
0.0000000000000038
10
17.0505968287852419
20
7.8291000877354735
30
0.0000000000000055
10
17.0238367907364072
20
7.7934303081936136
30
0.0000000000000033
10
16.9972167684811701
20
7.7855754501626269
30
0.0000000000000049
10
16.9852362199999156
20
7.7856241907563470
30
0.0000000000000044
41
1.0000000000000000
41
1.0000000000000000
41
1.0000000000000000
41
1.0000000000000000
41
1.0000000000000000
41
1.0000000000000000
41
1.0000000000000000
41
1.0000000000000000
41
1.0000000000000000
41
1.0000000000000000
41
1.0000000000000000
41
1.0000000000000000
0
SPLINE
8
Cut
6
CONTINUOUS
62
5
370
0
100
AcDbEntity
100
AcDbSpline
70
1
71
3
72
16
73
12
74
0
40
0.0000000000000000
40
0.0000000000000000
40
0.0000000000000000
40
0.0000000000000000
40
0.1135047903499515
40
0.2270095806999044
40
0.3405143710498564
40
0.4540191613998095
40
0.5675239517497601
40
0.6810287420997124
40
0.7945335324496650
40
0.9080383227996167
40
1.0000000000000000
40
1.0000000000000000
40
1.0000000000000000
40
1.0000000000000000
10
6.3444881888588132
20
15.9224863598855535
30
0.0000000000000025
10
6.3297010548586456
20
15.9225465185412087
30
0.0000000000000025
10
6.2999254264566202
20
15.9335268040807971
30
0.0000000000000011
10
6.2771601322770278
20
15.9752667502430974
30
0.0000000000000027
10
6.2872157477298130
20
16.0217091949342176
30
0.0000000000000016
10
6.3252336377241321
20
16.0502398091137444
30
0.0000000000000019
10
6.3726501487384732
20
16.0469186062732199
30
0.0000000000000008
10
6.4063075956270481
20
16.0133747194983513
30
0.0000000000000014
10
6.4098487976441421
20
15.9659622568646817
30
0.0000000000000027
10
6.3830887595953012
20
15.9302924773228192
30
-0.0000000000000003
10
6.3564687373400659
20
15.9224376192918307
30
0.0000000000000014
10
6.3444881888588132
20
15.9224863598855535
30
0.0000000000000025
41
1.0000000000000000
41
1.0000000000000000
41
1.0000000000000000
41
1.0000000000000000
41
1.0000000000000000
41
1.0000000000000000
41
1.0000000000000000
41
1.0000000000000000
41
1.0000000000000000
41
1.0000000000000000
41
1.0000000000000000
41
1.0000000000000000
0
SPLINE
8
Cut
6
CONTINUOUS
62
5
370
0
100
AcDbEntity
100
AcDbSpline
70
1
71
3
72
16
73
12
74
0
40
0.0000000000000000
40
0.0000000000000000
40
0.0000000000000000
40
0.0000000000000000
40
0.1135047903499517
40
0.2270095806999034
40
0.3405143710498579
40
0.4540191613998090
40
0.5675239517497608
40
0.6810287420997115
40
0.7945335324496646
40
0.9080383227996170
40
1.0000000000000000
40
1.0000000000000000
40
1.0000000000000000
40
1.0000000000000000
10
5.5944881888587998
20
15.5048187838780187
30
0.0000000000000008
10
5.5797010548586323
20
15.5048789425336739
30
0.0000000000000019
10
5.5499254264566025
20
15.5158592280732570
30
0.0000000000000025
10
5.5271601322770101
20
15.5575991742355590
30
0.0000000000000014
10
5.5372157477297987
20
15.6040416189266828
30
0.0000000000000008
10
5.5752336377241187
20
15.6325722331062078
30
0.0000000000000014
10
5.6226501487384555
20
15.6292510302656833
30
0.0000000000000019
10
5.6563075956270303
20
15.5957071434908165
30
0.0000000000000011
10
5.6598487976441234
20
15.5482946808571469
30
0.0000000000000016
10
5.6330887595952834
20
15.5126249013152897
30
0.0000000000000000
10
5.6064687373400526
20
15.5047700432842959
30
0.0000000000000016
10
5.5944881888587998
20
15.5048187838780187
30
0.0000000000000008
41
1.0000000000000000
41
1.0000000000000000
41
1.0000000000000000
41
1.0000000000000000
41
1.0000000000000000
41
1.0000000000000000
41
1.0000000000000000
41
1.0000000000000000
41
1.0000000000000000
41
1.0000000000000000
41
1.0000000000000000
41
1.0000000000000000
0
SPLINE
8
Cut
6
CONTINUOUS
62
5
370
0
100
AcDbEntity
100
AcDbSpline
70
1
71
3
72
16
73
12
74
0
40
0.0000000000000000
40
0.0000000000000000
40
0.0000000000000000
40
0.0000000000000000
40
0.1135047903499527
40
0.2270095806999018
40
0.3405143710498538
40
0.4540191613998055
40
0.5675239517497577
40
0.6810287420997113
40
0.7945335324496650
40
0.9080383227996182
40
1.0000000000000000
40
1.0000000000000000
40
1.0000000000000000
40
1.0000000000000000
10
5.5477362203552296
20
4.6541543892140202
30
0.0000000000000016
10
5.5329490863550621
20
4.6542145478696773
30
0.0000000000000027
10
5.5031734579530367
20
4.6651948334092603
30
0.0000000000000038
10
5.4804081637734399
20
4.7069347795715677
30
0.0000000000000016
10
5.4904637792262330
20
4.7533772242626826
30
0.0000000000000027
10
5.5284816692205441
20
4.7819078384422031
30
0.0000000000000016
10
5.5758981802348888
20
4.7785866356016804
30
0.0000000000000005
10
5.6095556271234601
20
4.7450427488268190
30
0.0000000000000038
10
5.6130968291405576
20
4.6976302861931512
30
0.0000000000000005
10
5.5863367910917132
20
4.6619605066512779
30
0.0000000000000027
10
5.5597167688364824
20
4.6541056486203001
30
0.0000000000000016
10
5.5477362203552296
20
4.6541543892140202
30
0.0000000000000016
41
1.0000000000000000
41
1.0000000000000000
41
1.0000000000000000
41
1.0000000000000000
41
1.0000000000000000
41
1.0000000000000000
41
1.0000000000000000
41
1.0000000000000000
41
1.0000000000000000
41
1.0000000000000000
41
1.0000000000000000
41
1.0000000000000000
0
SPLINE
8
Cut
6
CONTINUOUS
62
5
370
0
100
AcDbEntity
100
AcDbSpline
70
1
71
3
72
16
73
12
74
0
40
0.0000000000000000
40
0.0000000000000000
40
0.0000000000000000
40
0.0000000000000000
40
0.1135047903499520
40
0.2270095806999039
40
0.3405143710498559
40
0.4540191613998086
40
0.5675239517497600
40
0.6810287420997124
40
0.7945335324496650
40
0.9080383227996168
40
1.0000000000000000
40
1.0000000000000000
40
1.0000000000000000
40
1.0000000000000000
10
11.2657480311424578
20
15.9224863598856370
30
0.0000000000000019
10
11.2509608971422956
20
15.9225465185412869
30
0.0000000000000014
10
11.2211852687402658
20
15.9335268040808788
30
0.0000000000000014
10
11.1984199745606734
20
15.9752667502431773
30
0.0000000000000033
10
11.2084755900134621
20
16.0217091949343029
30
0.0000000000000019
10
11.2464934800077820
20
16.0502398091138261
30
0.0000000000000027
10
11.2939099910221170
20
16.0469186062733051
30
0.0000000000000038
10
11.3275674379106928
20
16.0133747194984331
30
0.0000000000000016
10
11.3311086399277858
20
15.9659622568647617
30
0.0000000000000025
10
11.3043486018789459
20
15.9302924773229080
30
0.0000000000000030
10
11.2777285796237106
20
15.9224376192919141
30
0.0000000000000022
10
11.2657480311424578
20
15.9224863598856370
30
0.0000000000000019
41
1.0000000000000000
41
1.0000000000000000
41
1.0000000000000000
41
1.0000000000000000
41
1.0000000000000000
41
1.0000000000000000
41
1.0000000000000000
41
1.0000000000000000
41
1.0000000000000000
41
1.0000000000000000
41
1.0000000000000000
41
1.0000000000000000
0
SPLINE
8
Cut
6
CONTINUOUS
62
5
370
0
100
AcDbEntity
100
AcDbSpline
70
1
71
3
72
16
73
12
74
0
40
0.0000000000000000
40
0.0000000000000000
40
0.0000000000000000
40
0.0000000000000000
40
0.1135047903499522
40
0.2270095806999021
40
0.3405143710498576
40
0.4540191613998092
40
0.5675239517497617
40
0.6810287420997125
40
0.7945335324496660
40
0.9080383227996172
40
1.0000000000000000
40
1.0000000000000000
40
1.0000000000000000
40
1.0000000000000000
10
5.5477362203551985
20
13.4591484798478120
30
0.0000000000000011
10
5.5329490863550310
20
13.4592086385034655
30
0.0000000000000011
10
5.5031734579530109
20
13.4701889240430592
30
0.0000000000000022
10
5.4804081637734132
20
13.5119288702053542
30
0.0000000000000033
10
5.4904637792262028
20
13.5583713148964815
30
0.0000000000000016
10
5.5284816692205228
20
13.5869019290760029
30
0.0000000000000022
10
5.5758981802348631
20
13.5835807262354784
30
0.0000000000000005
10
5.6095556271234344
20
13.5500368394606117
30
0.0000000000000011
10
5.6130968291405274
20
13.5026243768269367
30
0.0000000000000000
10
5.5863367910916919
20
13.4669545972850848
30
0.0000000000000038
10
5.5597167688364522
20
13.4590997392540892
30
0.0000000000000005
10
5.5477362203551985
20
13.4591484798478120
30
0.0000000000000011
41
1.0000000000000000
41
1.0000000000000000
41
1.0000000000000000
41
1.0000000000000000
41
1.0000000000000000
41
1.0000000000000000
41
1.0000000000000000
41
1.0000000000000000
41
1.0000000000000000
41
1.0000000000000000
41
1.0000000000000000
41
1.0000000000000000
0
SPLINE
8
Cut
6
CONTINUOUS
62
5
370
0
100
AcDbEntity
100
AcDbSpline
70
1
71
3
72
16
73
12
74
0
40
0.0000000000000000
40
0.0000000000000000
40
0.0000000000000000
40
0.0000000000000000
40
0.1135047903499541
40
0.2270095806999028
40
0.3405143710498543
40
0.4540191613998058
40
0.5675239517497569
40
0.6810287420997109
40
0.7945335324496640
40
0.9080383227996156
40
1.0000000000000000
40
1.0000000000000000
40
1.0000000000000000
40
1.0000000000000000
10
8.8051181100004428
20
4.6541543892139705
30
0.0000000000000030
10
8.7903309760002752
20
4.6542145478696213
30
0.0000000000000030
10
8.7605553475982507
20
4.6651948334092070
30
0.0000000000000019
10
8.7377900534186583
20
4.7069347795715117
30
0.0000000000000041
10
8.7478456688714470
20
4.7533772242626373
30
0.0000000000000019
10
8.7858635588657616
20
4.7819078384421623
30
0.0000000000000041
10
8.8332800698801037
20
4.7785866356016395
30
0.0000000000000019
10
8.8669375167686777
20
4.7450427488267675
30
0.0000000000000041
10
8.8704787187857725
20
4.6976302861930979
30
0.0000000000000008
10
8.8437186807369308
20
4.6619605066512388
30
0.0000000000000030
10
8.8170986584816973
20
4.6541056486202486
30
0.0000000000000030
10
8.8051181100004428
20
4.6541543892139705
30
0.0000000000000030
41
1.0000000000000000
41
1.0000000000000000
41
1.0000000000000000
41
1.0000000000000000
41
1.0000000000000000
41
1.0000000000000000
41
1.0000000000000000
41
1.0000000000000000
41
1.0000000000000000
41
1.0000000000000000
41
1.0000000000000000
41
1.0000000000000000
0
SPLINE
8
Cut
6
CONTINUOUS
62
5
370
0
100
AcDbEntity
100
AcDbSpline
70
1
71
3
72
16
73
12
74
0
40
0.0000000000000000
40
0.0000000000000000
40
0.0000000000000000
40
0.0000000000000000
40
0.1135047903499540
40
0.2270095806999025
40
0.3405143710498537
40
0.4540191613998048
40
0.5675239517497565
40
0.6810287420997061
40
0.7945335324496592
40
0.9080383227996143
40
1.0000000000000000
40
1.0000000000000000
40
1.0000000000000000
40
1.0000000000000000
10
13.0826771649999056
20
7.7856241907563293
30
0.0000000000000036
10
13.0678900309997381
20
7.7856843494119854
30
0.0000000000000036
10
13.0381144025977118
20
7.7966646349515765
30
0.0000000000000036
10
13.0153491084181248
20
7.8384045811138714
30
0.0000000000000030
10
13.0254047238709134
20
7.8848470258049899
30
0.0000000000000014
10
13.0634226138652281
20
7.9133776399845210
30
0.0000000000000030
10
13.1108391248795648
20
7.9100564371440010
30
0.0000000000000041
10
13.1444965717681441
20
7.8765125503691289
30
0.0000000000000036
10
13.1480377737852336
20
7.8291000877354628
30
0.0000000000000036
10
13.1212777357363972
20
7.7934303081935985
30
0.0000000000000030
10
13.0946577134811619
20
7.7855754501626073
30
0.0000000000000030
10
13.0826771649999056
20
7.7856241907563293
30
0.0000000000000036
41
1.0000000000000000
41
1.0000000000000000
41
1.0000000000000000
41
1.0000000000000000
41
1.0000000000000000
41
1.0000000000000000
41
1.0000000000000000
41
1.0000000000000000
41
1.0000000000000000
41
1.0000000000000000
41
1.0000000000000000
41
1.0000000000000000
0
SPLINE
8
Cut
6
CONTINUOUS
62
5
370
0
100
AcDbEntity
100
AcDbSpline
70
1
71
3
72
16
73
12
74
0
40
0.0000000000000000
40
0.0000000000000000
40
0.0000000000000000
40
0.0000000000000000
40
0.1135047903499529
40
0.2270095806999019
40
0.3405143710498545
40
0.4540191613998069
40
0.5675239517497598
40
0.6810287420997129
40
0.7945335324496658
40
0.9080383227996195
40
1.0000000000000000
40
1.0000000000000000
40
1.0000000000000000
40
1.0000000000000000
10
15.6948818892917501
20
6.1098923689228117
30
0.0000000000000025
10
15.6800947552915826
20
6.1099525275784670
30
0.0000000000000014
10
15.6503191268895527
20
6.1209328131180589
30
0.0000000000000057
10
15.6275538327099603
20
6.1626727592803530
30
0.0000000000000025
10
15.6376094481627490
20
6.2091152039714812
30
0.0000000000000036
10
15.6756273381570637
20
6.2376458181510053
30
0.0000000000000025
10
15.7230438491714093
20
6.2343246153104790
30
0.0000000000000036
10
15.7567012960599797
20
6.2007807285356176
30
0.0000000000000038
10
15.7602424980770746
20
6.1533682659019382
30
0.0000000000000038
10
15.7334824600282328
20
6.1176984863600801
30
0.0000000000000038
10
15.7068624377730028
20
6.1098436283290898
30
0.0000000000000036
10
15.6948818892917501
20
6.1098923689228117
30
0.0000000000000025
41
1.0000000000000000
41
1.0000000000000000
41
1.0000000000000000
41
1.0000000000000000
41
1.0000000000000000
41
1.0000000000000000
41
1.0000000000000000
41
1.0000000000000000
41
1.0000000000000000
41
1.0000000000000000
41
1.0000000000000000
41
1.0000000000000000
0
SPLINE
8
Cut
6
CONTINUOUS
62
5
370
0
100
AcDbEntity
100
AcDbSpline
70
1
71
3
72
16
73
12
74
0
40
0.0000000000000000
40
0.0000000000000000
40
0.0000000000000000
40
0.0000000000000000
40
0.1135047903499508
40
0.2270095806999049
40
0.3405143710498570
40
0.4540191613998078
40
0.5675239517497596
40
0.6810287420997095
40
0.7945335324496641
40
0.9080383227996148
40
1.0000000000000000
40
1.0000000000000000
40
1.0000000000000000
40
1.0000000000000000
10
13.0826771649998879
20
14.6300891701078104
30
0.0000000000000016
10
13.0678900309997204
20
14.6301493287634639
30
0.0000000000000011
10
13.0381144025976905
20
14.6411296143030540
30
0.0000000000000041
10
13.0153491084180981
20
14.6828695604653561
30
0.0000000000000030
10
13.0254047238708868
20
14.7293120051564781
30
0.0000000000000033
10
13.0634226138652014
20
14.7578426193359977
30
0.0000000000000019
10
13.1108391248795435
20
14.7545214164954750
30
0.0000000000000025
10
13.1444965717681175
20
14.7209775297206154
30
0.0000000000000033
10
13.1480377737852123
20
14.6735650670869386
30
0.0000000000000036
10
13.1212777357363706
20
14.6378952875450778
30
0.0000000000000036
10
13.0946577134811406
20
14.6300404295140893
30
0.0000000000000025
10
13.0826771649998879
20
14.6300891701078104
30
0.0000000000000016
41
1.0000000000000000
41
1.0000000000000000
41
1.0000000000000000
41
1.0000000000000000
41
1.0000000000000000
41
1.0000000000000000
41
1.0000000000000000
41
1.0000000000000000
41
1.0000000000000000
41
1.0000000000000000
41
1.0000000000000000
41
1.0000000000000000
0
SPLINE
8
Cut
6
CONTINUOUS
62
5
370
0
100
AcDbEntity
100
AcDbSpline
70
1
71
3
72
16
73
12
74
0
40
0.0000000000000000
40
0.0000000000000000
40
0.0000000000000000
40
0.0000000000000000
40
0.1135047903499536
40
0.2270095806999047
40
0.3405143710498580
40
0.4540191613998095
40
0.5675239517497596
40
0.6810287420997126
40
0.7945335324496653
40
0.9080383227996187
40
1.0000000000000000
40
1.0000000000000000
40
1.0000000000000000
40
1.0000000000000000
10
16.9852362199998730
20
13.9578566804320108
30
0.0000000000000044
10
16.9704490859997073
20
13.9579168390876642
30
0.0000000000000049
10
16.9406734575976792
20
13.9688971246272544
30
0.0000000000000027
10
16.9179081634180868
20
14.0106370707895529
30
0.0000000000000016
10
16.9279637788708719
20
14.0570795154806785
30
0.0000000000000044
10
16.9659816688651972
20
14.0856101296601999
30
0.0000000000000027
10
17.0133981798795304
20
14.0822889268196754
30
0.0000000000000030
10
17.0470556267681097
20
14.0487450400448068
30
0.0000000000000033
10
17.0505968287851992
20
14.0013325774111355
30
0.0000000000000055
10
17.0238367907363610
20
13.9656627978692747
30
0.0000000000000022
10
16.9972167684811275
20
13.9578079398382879
30
0.0000000000000033
10
16.9852362199998730
20
13.9578566804320108
30
0.0000000000000044
41
1.0000000000000000
41
1.0000000000000000
41
1.0000000000000000
41
1.0000000000000000
41
1.0000000000000000
41
1.0000000000000000
41
1.0000000000000000
41
1.0000000000000000
41
1.0000000000000000
41
1.0000000000000000
41
1.0000000000000000
41
1.0000000000000000
0
SPLINE
8
Cut
6
CONTINUOUS
62
5
370
0
100
AcDbEntity
100
AcDbSpline
70
1
71
3
72
16
73
12
74
0
40
0.0000000000000000
40
0.0000000000000000
40
0.0000000000000000
40
0.0000000000000000
40
0.1135047903499507
40
0.2270095806999038
40
0.3405143710498585
40
0.4540191613998097
40
0.5675239517497608
40
0.6810287420997118
40
0.7945335324496646
40
0.9080383227996159
40
1.0000000000000000
40
1.0000000000000000
40
1.0000000000000000
40
1.0000000000000000
10
8.8051181100007412
20
13.4591484798478849
30
0.0000000000000025
10
8.7903309760005772
20
13.4592086385035348
30
0.0000000000000036
10
8.7605553475985474
20
13.4701889240431232
30
0.0000000000000041
10
8.7377900534189550
20
13.5119288702054217
30
0.0000000000000014
10
8.7478456688717436
20
13.5583713148965490
30
0.0000000000000025
10
8.7858635588660636
20
13.5869019290760686
30
0.0000000000000030
10
8.8332800698804004
20
13.5835807262355512
30
-0.0000000000000003
10
8.8669375167689761
20
13.5500368394606809
30
0.0000000000000036
10
8.8704787187860692
20
13.5026243768270113
30
0.0000000000000025
10
8.8437186807372328
20
13.4669545972851523
30
0.0000000000000014
10
8.8170986584819975
20
13.4590997392541620
30
0.0000000000000025
10
8.8051181100007412
20
13.4591484798478849
30
0.0000000000000025
41
1.0000000000000000
41
1.0000000000000000
41
1.0000000000000000
41
1.0000000000000000
41
1.0000000000000000
41
1.0000000000000000
41
1.0000000000000000
41
1.0000000000000000
41
1.0000000000000000
41
1.0000000000000000
41
1.0000000000000000
41
1.0000000000000000
0
SPLINE
8
Cut
6
CONTINUOUS
62
5
370
0
100
AcDbEntity
100
AcDbSpline
70
1
71
3
72
16
73
12
74
0
40
0.0000000000000000
40
0.0000000000000000
40
0.0000000000000000
40
0.0000000000000000
40
0.1135047903499526
40
0.2270095806999042
40
0.3405143710498561
40
0.4540191613998084
40
0.5675239517497601
40
0.6810287420997112
40
0.7945335324496634
40
0.9080383227996172
40
1.0000000000000000
40
1.0000000000000000
40
1.0000000000000000
40
1.0000000000000000
10
12.0157480311424489
20
15.5048187838780862
30
0.0000000000000027
10
12.0009608971422814
20
15.5048789425337379
30
0.0000000000000025
10
11.9711852687402533
20
15.5158592280733298
30
0.0000000000000036
10
11.9484199745606610
20
15.5575991742356230
30
0.0000000000000022
10
11.9584755900134496
20
15.6040416189267503
30
0.0000000000000025
10
11.9964934800077643
20
15.6325722331062753
30
0.0000000000000016
10
12.0439099910221099
20
15.6292510302657490
30
0.0000000000000025
10
12.0775674379106803
20
15.5957071434908823
30
0.0000000000000014
10
12.0811086399277698
20
15.5482946808572127
30
0.0000000000000041
10
12.0543486018789388
20
15.5126249013153501
30
0.0000000000000027
10
12.0277285796237035
20
15.5047700432843616
30
0.0000000000000027
10
12.0157480311424489
20
15.5048187838780862
30
0.0000000000000027
41
1.0000000000000000
41
1.0000000000000000
41
1.0000000000000000
41
1.0000000000000000
41
1.0000000000000000
41
1.0000000000000000
41
1.0000000000000000
41
1.0000000000000000
41
1.0000000000000000
41
1.0000000000000000
41
1.0000000000000000
41
1.0000000000000000
0
SPLINE
8
Cut
6
CONTINUOUS
62
5
370
0
100
AcDbEntity
100
AcDbSpline
70
1
71
3
72
16
73
12
74
0
40
0.0000000000000000
40
0.0000000000000000
40
0.0000000000000000
40
0.0000000000000000
40
0.1135047903499526
40
0.2270095806999045
40
0.3405143710498573
40
0.4540191613998092
40
0.5675239517497619
40
0.6810287420997130
40
0.7945335324496674
40
0.9080383227996185
40
1.0000000000000000
40
1.0000000000000000
40
1.0000000000000000
40
1.0000000000000000
10
15.6948818892917501
20
16.8282974563074497
30
0.0000000000000030
10
15.6800947552915826
20
16.8283576149631031
30
0.0000000000000025
10
15.6503191268895616
20
16.8393379005026915
30
0.0000000000000014
10
15.6275538327099639
20
16.8810778466649936
30
0.0000000000000027
10
15.6376094481627543
20
16.9275202913561138
30
0.0000000000000025
10
15.6756273381570725
20
16.9560509055356405
30
0.0000000000000030
10
15.7230438491714093
20
16.9527297026951160
30
0.0000000000000025
10
15.7567012960599850
20
16.9191858159202475
30
0.0000000000000030
10
15.7602424980770781
20
16.8717733532865743
30
0.0000000000000033
10
15.7334824600282381
20
16.8361035737447189
30
0.0000000000000030
10
15.7068624377730028
20
16.8282487157137268
30
0.0000000000000027
10
15.6948818892917501
20
16.8282974563074497
30
0.0000000000000030
41
1.0000000000000000
41
1.0000000000000000
41
1.0000000000000000
41
1.0000000000000000
41
1.0000000000000000
41
1.0000000000000000
41
1.0000000000000000
41
1.0000000000000000
41
1.0000000000000000
41
1.0000000000000000
41
1.0000000000000000
41
1.0000000000000000
0
SPLINE
8
Cut
6
CONTINUOUS
62
5
370
0
100
AcDbEntity
100
AcDbSpline
70
1
71
3
72
16
73
12
74
0
40
0.0000000000000000
40
0.0000000000000000
40
0.0000000000000000
40
0.0000000000000000
40
0.1135047903499529
40
0.2270095806999035
40
0.3405143710498562
40
0.4540191613998085
40
0.5675239517497617
40
0.6810287420997160
40
0.7945335324496647
40
0.9080383227996177
40
1.0000000000000000
40
1.0000000000000000
40
1.0000000000000000
40
1.0000000000000000
10
12.0624999996462776
20
4.6541543892139847
30
0.0000000000000044
10
12.0477128656461101
20
4.6542145478696400
30
0.0000000000000044
10
12.0179372372440856
20
4.6651948334092292
30
0.0000000000000044
10
11.9951719430644932
20
4.7069347795715197
30
0.0000000000000033
10
12.0052275585172818
20
4.7533772242626471
30
0.0000000000000022
10
12.0432454485115965
20
4.7819078384421765
30
0.0000000000000022
10
12.0906619595259368
20
4.7785866356016466
30
0.0000000000000055
10
12.1243194064145126
20
4.7450427488267772
30
0.0000000000000044
10
12.1278606084316056
20
4.6976302861931050
30
0.0000000000000011
10
12.1011005703827710
20
4.6619605066512504
30
0.0000000000000022
10
12.0744805481275304
20
4.6541056486202628
30
0.0000000000000044
10
12.0624999996462776
20
4.6541543892139847
30
0.0000000000000044
41
1.0000000000000000
41
1.0000000000000000
41
1.0000000000000000
41
1.0000000000000000
41
1.0000000000000000
41
1.0000000000000000
41
1.0000000000000000
41
1.0000000000000000
41
1.0000000000000000
41
1.0000000000000000
41
1.0000000000000000
41
1.0000000000000000
0
SPLINE
8
Cut
6
CONTINUOUS
62
5
370
0
100
AcDbEntity
100
AcDbSpline
70
1
71
3
72
16
73
12
74
0
40
0.0000000000000000
40
0.0000000000000000
40
0.0000000000000000
40
0.0000000000000000
40
0.1135047903499517
40
0.2270095806999044
40
0.3405143710498593
40
0.4540191613998098
40
0.5675239517497616
40
0.6810287420997134
40
0.7945335324496652
40
0.9080383227996169
40
1.0000000000000000
40
1.0000000000000000
40
1.0000000000000000
40
1.0000000000000000
10
12.0624999996462474
20
13.4591484798478849
30
0.0000000000000005
10
12.0477128656460799
20
13.4592086385035401
30
0.0000000000000016
10
12.0179372372440554
20
13.4701889240431267
30
0.0000000000000038
10
11.9951719430644612
20
13.5119288702054234
30
0.0000000000000011
10
12.0052275585172463
20
13.5583713148965526
30
0.0000000000000049
10
12.0432454485115663
20
13.5869019290760775
30
0.0000000000000022
10
12.0906619595259066
20
13.5835807262355512
30
0.0000000000000022
10
12.1243194064144824
20
13.5500368394606845
30
0.0000000000000016
10
12.1278606084315719
20
13.5026243768270078
30
0.0000000000000022
10
12.1011005703827355
20
13.4669545972851488
30
0.0000000000000011
10
12.0744805481275002
20
13.4590997392541620
30
0.0000000000000011
10
12.0624999996462474
20
13.4591484798478849
30
0.0000000000000005
41
1.0000000000000000
41
1.0000000000000000
41
1.0000000000000000
41
1.0000000000000000
41
1.0000000000000000
41
1.0000000000000000
41
1.0000000000000000
41
1.0000000000000000
41
1.0000000000000000
41
1.0000000000000000
41
1.0000000000000000
41
1.0000000000000000
0
SPLINE
8
Cut
6
CONTINUOUS
62
5
370
0
100
AcDbEntity
100
AcDbSpline
70
1
71
3
72
16
73
12
74
0
40
0.0000000000000000
40
0.0000000000000000
40
0.0000000000000000
40
0.0000000000000000
40
0.1135047903499535
40
0.2270095806999053
40
0.3405143710498585
40
0.4540191613998099
40
0.5675239517497598
40
0.6810287420997128
40
0.7945335324496653
40
0.9080383227996186
40
1.0000000000000000
40
1.0000000000000000
40
1.0000000000000000
40
1.0000000000000000
10
15.6948818892917892
20
11.4690949126150574
30
0.0000000000000019
10
15.6800947552916217
20
11.4691550712707127
30
0.0000000000000019
10
15.6503191268895971
20
11.4801353568103046
30
0.0000000000000014
10
15.6275538327100083
20
11.5218753029725960
30
0.0000000000000025
10
15.6376094481627934
20
11.5683177476637251
30
0.0000000000000057
10
15.6756273381571116
20
11.5968483618432465
30
0.0000000000000014
10
15.7230438491714537
20
11.5935271590027185
30
0.0000000000000041
10
15.7567012960600241
20
11.5599832722278606
30
0.0000000000000033
10
15.7602424980771172
20
11.5125708095941821
30
0.0000000000000060
10
15.7334824600282772
20
11.4769010300523249
30
0.0000000000000022
10
15.7068624377730419
20
11.4690461720213346
30
0.0000000000000019
10
15.6948818892917892
20
11.4690949126150574
30
0.0000000000000019
41
1.0000000000000000
41
1.0000000000000000
41
1.0000000000000000
41
1.0000000000000000
41
1.0000000000000000
41
1.0000000000000000
41
1.0000000000000000
41
1.0000000000000000
41
1.0000000000000000
41
1.0000000000000000
41
1.0000000000000000
41
1.0000000000000000
0
MTEXT
330
1 F
100
AcDbEntity
8
PartID
6
CONTINUOUS
62
30
370
0
100
AcDbMText
10
8.8051181100007376
20
11.2499999999990603
30
0.0000000000000000
40
0.7874015748031497
41
0.0
71
5
72
1
1
Aft Seat Back Support
0
MTEXT
330
1 F
100
AcDbEntity
8
PartIndex
6
CONTINUOUS
62
30
370
0
100
AcDbMText
10
8.8051181100007376
20
12.0767716535423677
30
0.0000000000000000
40
0.7874015748031497
41
0.0
71
5
72
1
1
42-1
0
LINE
330
1
100
AcDbEntity
8
Cut
6
CONTINUOUS
62
5
370
0
100
AcDbLine
10
36.6694682500012235
20
0.2500000000000905
30
0.0000000000000525
11
17.7352362199993330
21
0.2499999999999856
31
0.0000000000000507
0
LINE
330
1
100
AcDbEntity
8
Cut
6
CONTINUOUS
62
5
370
0
100
AcDbLine
10
17.7352362200008535
20
0.2499999999999856
30
0.0000000000000507
11
17.7352362200007825
21
17.3602362199997167
31
-0.0000000000000151
0
LINE
330
1
100
AcDbEntity
8
Cut
6
CONTINUOUS
62
5
370
0
100
AcDbLine
10
17.7352362200007825
20
17.3602362199999334
30
-0.0000000000000151
11
36.6694682500011524
21
17.3602362200000400
31
-0.0000000000000132
0
LINE
330
1
100
AcDbEntity
8
Cut
6
CONTINUOUS
62
5
370
0
100
AcDbLine
10
36.6694682500011524
20
17.3602362200000400
30
-0.0000000000000132
11
36.6694682500011666
21
13.0295275585827284
31
0.0000000000000034
0
LINE
330
1
100
AcDbEntity
8
Cut
6
CONTINUOUS
62
5
370
0
100
AcDbLine
10
36.6694682500011666
20
13.0295275585827284
30
0.0000000000000034
11
29.9765548641742754
21
13.0295275585826893
31
0.0000000000000027
0
LINE
330
1
100
AcDbEntity
8
Cut
6
CONTINUOUS
62
5
370
0
100
AcDbLine
10
29.9765548641742754
20
13.0295275585826911
30
0.0000000000000027
11
29.9765548641743109
21
4.5807086614174581
31
0.0000000000000352
0
LINE
330
1
100
AcDbEntity
8
Cut
6
CONTINUOUS
62
5
370
0
100
AcDbLine
10
29.9765548641743109
20
4.5807086614173489
30
0.0000000000000352
11
36.6694682500017421
21
4.5807086614173844
31
0.0000000000000359
0
LINE
330
1
100
AcDbEntity
8
Cut
6
CONTINUOUS
62
5
370
0
100
AcDbLine
10
36.6694682500012021
20
4.5807086614173835
30
0.0000000000000359
11
36.6694682500012235
21
0.2500000000001473
31
0.0000000000000525
0
SPLINE
8
Cut
6
CONTINUOUS
62
5
370
0
100
AcDbEntity
100
AcDbSpline
70
1
71
3
72
16
73
12
74
0
40
0.0000000000000000
40
0.0000000000000000
40
0.0000000000000000
40
0.0000000000000000
40
0.1135047903499530
40
0.2270095806999047
40
0.3405143710498569
40
0.4540191613998077
40
0.5675239517497609
40
0.6810287420997151
40
0.7945335324496658
40
0.9080383227996178
40
1.0000000000000000
40
1.0000000000000000
40
1.0000000000000000
40
1.0000000000000000
10
35.1373160190300808
20
4.2682086614173862
30
0.0000000000000370
10
35.1225288850299151
20
4.2682688200730405
30
0.0000000000000370
10
35.0927532566278870
20
4.2792491056126316
30
0.0000000000000370
10
35.0699879624482946
20
4.3209890517749274
30
0.0000000000000368
10
35.0800435779010726
20
4.3674314964660574
30
0.0000000000000364
10
35.1180614678953944
20
4.3959621106455797
30
0.0000000000000364
10
35.1654779789097347
20
4.3926409078050543
30
0.0000000000000365
10
35.1991354257983105
20
4.3590970210301849
30
0.0000000000000366
10
35.2026766278154071
20
4.3116845583965127
30
0.0000000000000367
10
35.1759165897665653
20
4.2760147788546545
30
0.0000000000000370
10
35.1492965675113354
20
4.2681599208236642
30
0.0000000000000370
10
35.1373160190300808
20
4.2682086614173862
30
0.0000000000000370
41
1.0000000000000000
41
1.0000000000000000
41
1.0000000000000000
41
1.0000000000000000
41
1.0000000000000000
41
1.0000000000000000
41
1.0000000000000000
41
1.0000000000000000
41
1.0000000000000000
41
1.0000000000000000
41
1.0000000000000000
41
1.0000000000000000
0
SPLINE
8
Cut
6
CONTINUOUS
62
5
370
0
100
AcDbEntity
100
AcDbSpline
70
1
71
3
72
16
73
12
74
0
40
0.0000000000000000
40
0.0000000000000000
40
0.0000000000000000
40
0.0000000000000000
40
0.1135047903499537
40
0.2270095806999034
40
0.3405143710498537
40
0.4540191613998043
40
0.5675239517497553
40
0.6810287420997055
40
0.7945335324496576
40
0.9080383227996104
40
1.0000000000000000
40
1.0000000000000000
40
1.0000000000000000
40
1.0000000000000000
10
35.6694682500012306
20
0.5625000000000703
30
0.0000000000000513
10
35.6546811160010648
20
0.5625601586557235
30
0.0000000000000513
10
35.6249054875990296
20
0.5735404441953110
30
0.0000000000000512
10
35.6021401934194373
20
0.6152803903576117
30
0.0000000000000512
10
35.6121958088722224
20
0.6617228350487395
30
0.0000000000000508
10
35.6502136988665512
20
0.6902534492282577
30
0.0000000000000509
10
35.6976302098808773
20
0.6869322463877415
30
0.0000000000000506
10
35.7312876567694673
20
0.6533883596128760
30
0.0000000000000509
10
35.7348288587865639
20
0.6059758969791992
30
0.0000000000000511
10
35.7080688207377150
20
0.5703061174373454
30
0.0000000000000510
10
35.6814487984824851
20
0.5624512594063504
30
0.0000000000000512
10
35.6694682500012306
20
0.5625000000000703
30
0.0000000000000513
41
1.0000000000000000
41
1.0000000000000000
41
1.0000000000000000
41
1.0000000000000000
41
1.0000000000000000
41
1.0000000000000000
41
1.0000000000000000
41
1.0000000000000000
41
1.0000000000000000
41
1.0000000000000000
41
1.0000000000000000
41
1.0000000000000000
0
SPLINE
8
Cut
6
CONTINUOUS
62
5
370
0
100
AcDbEntity
100
AcDbSpline
70
1
71
3
72
16
73
12
74
0
40
0.0000000000000000
40
0.0000000000000000
40
0.0000000000000000
40
0.0000000000000000
40
0.1135047903499528
40
0.2270095806999049
40
0.3405143710498573
40
0.4540191613998090
40
0.5675239517497620
40
0.6810287420997149
40
0.7945335324496654
40
0.9080383227996180
40
1.0000000000000000
40
1.0000000000000000
40
1.0000000000000000
40
1.0000000000000000
10
31.0087070951454713
20
4.2682086614173667
30
0.0000000000000366
10
30.9939199611453020
20
4.2682688200730210
30
0.0000000000000366
10
30.9641443327432739
20
4.2792491056126112
30
0.0000000000000365
10
30.9413790385636815
20
4.3209890517749088
30
0.0000000000000363
10
30.9514346540164702
20
4.3674314964660343
30
0.0000000000000360
10
30.9894525440107849
20
4.3959621106455593
30
0.0000000000000360
10
31.0368690550251287
20
4.3926409078050312
30
0.0000000000000363
10
31.0705265019137045
20
4.3590970210301654
30
0.0000000000000361
10
31.0740677039307940
20
4.3116845583964913
30
0.0000000000000363
10
31.0473076658819593
20
4.2760147788546359
30
0.0000000000000364
10
31.0206876436267223
20
4.2681599208236456
30
0.0000000000000365
10
31.0087070951454713
20
4.2682086614173667
30
0.0000000000000366
41
1.0000000000000000
41
1.0000000000000000
41
1.0000000000000000
41
1.0000000000000000
41
1.0000000000000000
41
1.0000000000000000
41
1.0000000000000000
41
1.0000000000000000
41
1.0000000000000000
41
1.0000000000000000
41
1.0000000000000000
41
1.0000000000000000
0
SPLINE
8
Cut
6
CONTINUOUS
62
5
370
0
100
AcDbEntity
100
AcDbSpline
70
1
71
3
72
16
73
12
74
0
40
0.0000000000000000
40
0.0000000000000000
40
0.0000000000000000
40
0.0000000000000000
40
0.1135047903499537
40
0.2270095806999034
40
0.3405143710498537
40
0.4540191613998043
40
0.5675239517497553
40
0.6810287420997055
40
0.7945335324496576
40
0.9080383227996104
40
1.0000000000000000
40
1.0000000000000000
40
1.0000000000000000
40
1.0000000000000000
10
18.7352362200009885
20
0.5624999999999872
30
0.0000000000000495
10
18.7204490860008192
20
0.5625601586556405
30
0.0000000000000496
10
18.6906734575987912
20
0.5735404441952280
30
0.0000000000000496
10
18.6679081634191952
20
0.6152803903575287
30
0.0000000000000495
10
18.6779637788719874
20
0.6617228350486565
30
0.0000000000000492
10
18.7159816688663021
20
0.6902534492281747
30
0.0000000000000492
10
18.7633981798806460
20
0.6869322463876585
30
0.0000000000000488
10
18.7970556267692288
20
0.6533883596127930
30
0.0000000000000492
10
18.8005968287863148
20
0.6059758969791161
30
0.0000000000000496
10
18.7738367907374837
20
0.5703061174372623
30
0.0000000000000493
10
18.7472167684822466
20
0.5624512594062674
30
0.0000000000000495
10
18.7352362200009885
20
0.5624999999999872
30
0.0000000000000495
41
1.0000000000000000
41
1.0000000000000000
41
1.0000000000000000
41
1.0000000000000000
41
1.0000000000000000
41
1.0000000000000000
41
1.0000000000000000
41
1.0000000000000000
41
1.0000000000000000
41
1.0000000000000000
41
1.0000000000000000
41
1.0000000000000000
0
SPLINE
8
Cut
6
CONTINUOUS
62
5
370
0
100
AcDbEntity
100
AcDbSpline
70
1
71
3
72
16
73
12
74
0
40
0.0000000000000000
40
0.0000000000000000
40
0.0000000000000000
40
0.0000000000000000
40
0.1135047903499524
40
0.2270095806999028
40
0.3405143710498530
40
0.4540191613998036
40
0.5675239517497560
40
0.6810287420997055
40
0.7945335324496575
40
0.9080383227996099
40
1.0000000000000000
40
1.0000000000000000
40
1.0000000000000000
40
1.0000000000000000
10
27.2023522350010545
20
0.5625000000000157
30
0.0000000000000506
10
27.1875651010008887
20
0.5625601586556689
30
0.0000000000000505
10
27.1577894725988607
20
0.5735404441952564
30
0.0000000000000504
10
27.1350241784192612
20
0.6152803903575614
30
0.0000000000000501
10
27.1450797938720498
20
0.6617228350486892
30
0.0000000000000500
10
27.1830976838663716
20
0.6902534492282074
30
0.0000000000000498
10
27.2305141948807119
20
0.6869322463876912
30
0.0000000000000499
10
27.2641716417692912
20
0.6533883596128235
30
0.0000000000000501
10
27.2677128437863843
20
0.6059758969791511
30
0.0000000000000501
10
27.2409528057375461
20
0.5703061174372842
30
0.0000000000000505
10
27.2143327834823090
20
0.5624512594062936
30
0.0000000000000506
10
27.2023522350010545
20
0.5625000000000157
30
0.0000000000000506
41
1.0000000000000000
41
1.0000000000000000
41
1.0000000000000000
41
1.0000000000000000
41
1.0000000000000000
41
1.0000000000000000
41
1.0000000000000000
41
1.0000000000000000
41
1.0000000000000000
41
1.0000000000000000
41
1.0000000000000000
41
1.0000000000000000
0
SPLINE
8
Cut
6
CONTINUOUS
62
5
370
0
100
AcDbEntity
100
AcDbSpline
70
1
71
3
72
16
73
12
74
0
40
0.0000000000000000
40
0.0000000000000000
40
0.0000000000000000
40
0.0000000000000000
40
0.1135047903499523
40
0.2270095806999027
40
0.3405143710498526
40
0.4540191613998031
40
0.5675239517497555
40
0.6810287420997055
40
0.7945335324496576
40
0.9080383227996104
40
0.9999999999999999
40
0.9999999999999999
40
0.9999999999999999
40
0.9999999999999999
10
30.6694682500011595
20
0.5625000000000396
30
0.0000000000000508
10
30.6546811160009938
20
0.5625601586556930
30
0.0000000000000508
10
30.6249054875989657
20
0.5735404441952869
30
0.0000000000000505
10
30.6021401934193698
20
0.6152803903575811
30
0.0000000000000507
10
30.6121958088721549
20
0.6617228350487111
30
0.0000000000000501
10
30.6502136988664802
20
0.6902534492282336
30
0.0000000000000503
10
30.6976302098808134
20
0.6869322463877109
30
0.0000000000000501
10
30.7312876567693962
20
0.6533883596128497
30
0.0000000000000504
10
30.7348288587864893
20
0.6059758969791686
30
0.0000000000000506
10
30.7080688207376511
20
0.5703061174373170
30
0.0000000000000505
10
30.6814487984824176
20
0.5624512594063177
30
0.0000000000000507
10
30.6694682500011595
20
0.5625000000000396
30
0.0000000000000508
41
1.0000000000000000
41
1.0000000000000000
41
1.0000000000000000
41
1.0000000000000000
41
1.0000000000000000
41
1.0000000000000000
41
1.0000000000000000
41
1.0000000000000000
41
1.0000000000000000
41
1.0000000000000000
41
1.0000000000000000
41
1.0000000000000000
0
SPLINE
8
Cut
6
CONTINUOUS
62
5
370
0
100
AcDbEntity
100
AcDbSpline
70
1
71
3
72
16
73
12
74
0
40
0.0000000000000000
40
0.0000000000000000
40
0.0000000000000000
40
0.0000000000000000
40
0.1135047903499523
40
0.2270095806999027
40
0.3405143710498526
40
0.4540191613998031
40
0.5675239517497555
40
0.6810287420997055
40
0.7945335324496576
40
0.9080383227996104
40
0.9999999999999999
40
0.9999999999999999
40
0.9999999999999999
40
0.9999999999999999
10
22.9687942275010464
20
0.5625000000000091
30
0.0000000000000502
10
22.9540070935008771
20
0.5625601586556646
30
0.0000000000000502
10
22.9242314650988526
20
0.5735404441952586
30
0.0000000000000497
10
22.9014661709192566
20
0.6152803903575506
30
0.0000000000000497
10
22.9115217863720453
20
0.6617228350486870
30
0.0000000000000496
10
22.9495396763663599
20
0.6902534492282009
30
0.0000000000000493
10
22.9969561873807073
20
0.6869322463876847
30
0.0000000000000494
10
23.0306136342692866
20
0.6533883596128169
30
0.0000000000000498
10
23.0341548362863762
20
0.6059758969791424
30
0.0000000000000499
10
23.0073947982375415
20
0.5703061174372842
30
0.0000000000000498
10
22.9807747759823044
20
0.5624512594062870
30
0.0000000000000501
10
22.9687942275010464
20
0.5625000000000091
30
0.0000000000000502
41
1.0000000000000000
41
1.0000000000000000
41
1.0000000000000000
41
1.0000000000000000
41
1.0000000000000000
41
1.0000000000000000
41
1.0000000000000000
41
1.0000000000000000
41
1.0000000000000000
41
1.0000000000000000
41
1.0000000000000000
41
1.0000000000000000
0
SPLINE
8
Cut
6
CONTINUOUS
62
5
370
0
100
AcDbEntity
100
AcDbSpline
70
1
71
3
72
16
73
12
74
0
40
0.0000000000000000
40
0.0000000000000000
40
0.0000000000000000
40
0.0000000000000000
40
0.1135047903499533
40
0.2270095806999050
40
0.3405143710498572
40
0.4540191613998085
40
0.5675239517497618
40
0.6810287420997149
40
0.7945335324496654
40
0.9080383227996174
40
1.0000000000000000
40
1.0000000000000000
40
1.0000000000000000
40
1.0000000000000000
10
28.2607650670872985
20
4.0291141732282609
30
0.0000000000000371
10
28.2459779330871328
20
4.0291743318839126
30
0.0000000000000371
10
28.2162023046851012
20
4.0401546174235019
30
0.0000000000000369
10
28.1934370105055088
20
4.0818945635858004
30
0.0000000000000370
10
28.2034926259582974
20
4.1283370082769242
30
0.0000000000000368
10
28.2415105159526192
20
4.1568676224564509
30
0.0000000000000366
10
28.2889270269669595
20
4.1535464196159273
30
0.0000000000000367
10
28.3225844738555352
20
4.1200025328410579
30
0.0000000000000367
10
28.3261256758726283
20
4.0725900702073838
30
0.0000000000000372
10
28.2993656378237866
20
4.0369202906655302
30
0.0000000000000371
10
28.2727456155685530
20
4.0290654326345381
30
0.0000000000000371
10
28.2607650670872985
20
4.0291141732282609
30
0.0000000000000371
41
1.0000000000000000
41
1.0000000000000000
41
1.0000000000000000
41
1.0000000000000000
41
1.0000000000000000
41
1.0000000000000000
41
1.0000000000000000
41
1.0000000000000000
41
1.0000000000000000
41
1.0000000000000000
41
1.0000000000000000
41
1.0000000000000000
0
SPLINE
8
Cut
6
CONTINUOUS
62
5
370
0
100
AcDbEntity
100
AcDbSpline
70
1
71
3
72
16
73
12
74
0
40
0.0000000000000000
40
0.0000000000000000
40
0.0000000000000000
40
0.0000000000000000
40
0.1135047903499535
40
0.2270095806999051
40
0.3405143710498574
40
0.4540191613998087
40
0.5675239517497618
40
0.6810287420997149
40
0.7945335324496655
40
0.9080383227996174
40
1.0000000000000000
40
1.0000000000000000
40
1.0000000000000000
40
1.0000000000000000
10
29.7265548641742718
20
5.0182086614173382
30
0.0000000000000335
10
29.7117677301741061
20
5.0182688200729917
30
0.0000000000000335
10
29.6819921017720780
20
5.0292491056125783
30
0.0000000000000335
10
29.6592268075924821
20
5.0709890517748786
30
0.0000000000000333
10
29.6692824230452743
20
5.1174314964660033
30
0.0000000000000331
10
29.7073003130395925
20
5.1459621106455256
30
0.0000000000000331
10
29.7547168240539328
20
5.1426409078050019
30
0.0000000000000331
10
29.7883742709425086
20
5.1090970210301370
30
0.0000000000000331
10
29.7919154729595981
20
5.0616845583964656
30
0.0000000000000333
10
29.7651554349107599
20
5.0260147788546012
30
0.0000000000000335
10
29.7385354126555264
20
5.0181599208236163
30
0.0000000000000335
10
29.7265548641742718
20
5.0182086614173382
30
0.0000000000000335
41
1.0000000000000000
41
1.0000000000000000
41
1.0000000000000000
41
1.0000000000000000
41
1.0000000000000000
41
1.0000000000000000
41
1.0000000000000000
41
1.0000000000000000
41
1.0000000000000000
41
1.0000000000000000
41
1.0000000000000000
41
1.0000000000000000
0
SPLINE
8
Cut
6
CONTINUOUS
62
5
370
0
100
AcDbEntity
100
AcDbSpline
70
0
71
3
72
11
73
7
74
0
40
0.0000000000000000
40
0.0000000000000000
40
0.0000000000000000
40
0.0000000000000000
40
0.3202752254469672
40
0.6405504508939335
40
0.9608256763408949
40
0.9999999999999999
40
0.9999999999999999
40
0.9999999999999999
40
0.9999999999999999
10
28.1357650670871635
20
7.8416141732282094
30
0.0000000000000225
10
28.1567347774539343
20
7.8384972185591337
30
0.0000000000000225
10
28.1986741981874722
20
7.8322633092209806
30
0.0000000000000225
10
28.2458622076999220
20
7.7860174432567542
30
0.0000000000000227
10
28.2602673240626672
20
7.7424377385152914
30
0.0000000000000234
10
28.2607161519376398
20
7.7191519557688553
30
0.0000000000000229
10
28.2607650670871635
20
7.7166141732282094
30
0.0000000000000229
41
1.0000000000000000
41
1.0000000000000000
41
1.0000000000000000
41
1.0000000000000000
41
1.0000000000000000
41
1.0000000000000000
41
1.0000000000000000
0
LINE
330
1
100
AcDbEntity
8
Cut
6
CONTINUOUS
62
5
370
0
100
AcDbLine
10
28.2607650670871635
20
7.7166141732282094
30
0.0000000000000229
11
28.2607650670871777
21
4.4666141732282103
31
0.0000000000000354
0
SPLINE
8
Cut
6
CONTINUOUS
62
5
370
0
100
AcDbEntity
100
AcDbSpline
70
0
71
3
72
11
73
7
74
0
40
0.0000000000000000
40
0.0000000000000000
40
0.0000000000000000
40
0.0000000000000000
40
0.3202752254469609
40
0.6405504508939280
40
0.9608256763408942
40
0.9999999999999999
40
0.9999999999999999
40
0.9999999999999999
40
0.9999999999999999
10
28.2607650670871813
20
4.4666141732282103
30
0.0000000000000355
10
28.2576481124181065
20
4.4456444628614387
30
0.0000000000000357
10
28.2514142030799533
20
4.4037050421278972
30
0.0000000000000360
10
28.2051683371157260
20
4.3565170326154581
30
0.0000000000000355
10
28.1615886323742650
20
4.3421119162526995
30
0.0000000000000365
10
28.1383028496278271
20
4.3416630883777376
30
0.0000000000000359
10
28.1357650670871813
20
4.3416141732282103
30
0.0000000000000359
41
1.0000000000000000
41
1.0000000000000000
41
1.0000000000000000
41
1.0000000000000000
41
1.0000000000000000
41
1.0000000000000000
41
1.0000000000000000
0
LINE
330
1
100
AcDbEntity
8
Cut
6
CONTINUOUS
62
5
370
0
100
AcDbLine
10
28.1357650670871813
20
4.3416141732282103
30
0.0000000000000359
11
24.8857650670871777
21
4.3416141732281943
31
0.0000000000000357
0
SPLINE
8
Cut
6
CONTINUOUS
62
5
370
0
100
AcDbEntity
100
AcDbSpline
70
0
71
3
72
11
73
7
74
0
40
0.0000000000000000
40
0.0000000000000000
40
0.0000000000000000
40
0.0000000000000000
40
0.3202752254469668
40
0.6405504508939330
40
0.9608256763408950
40
1.0000000000000000
40
1.0000000000000000
40
1.0000000000000000
40
1.0000000000000000
10
24.8857650670871777
20
4.3416141732281943
30
0.0000000000000357
10
24.8647953567204141
20
4.3447311278972700
30
0.0000000000000357
10
24.8228559359868690
20
4.3509650372354249
30
0.0000000000000356
10
24.7756679264744193
20
4.3972109031996451
30
0.0000000000000356
10
24.7612628101116776
20
4.4407906079411115
30
0.0000000000000351
10
24.7608139822367015
20
4.4640763906875485
30
0.0000000000000351
10
24.7607650670871777
20
4.4666141732281943
30
0.0000000000000351
41
1.0000000000000000
41
1.0000000000000000
41
1.0000000000000000
41
1.0000000000000000
41
1.0000000000000000
41
1.0000000000000000
41
1.0000000000000000
0
LINE
330
1
100
AcDbEntity
8
Cut
6
CONTINUOUS
62
5
370
0
100
AcDbLine
10
24.7607650670871777
20
4.4666141732281943
30
0.0000000000000351
11
24.7607650670871635
21
7.7166141732281925
31
0.0000000000000226
0
SPLINE
8
Cut
6
CONTINUOUS
62
5
370
0
100
AcDbEntity
100
AcDbSpline
70
0
71
3
72
11
73
7
74
0
40
0.0000000000000000
40
0.0000000000000000
40
0.0000000000000000
40
0.0000000000000000
40
0.3202752254469607
40
0.6405504508939287
40
0.9608256763408950
40
1.0000000000000000
40
1.0000000000000000
40
1.0000000000000000
40
1.0000000000000000
10
24.7607650670871600
20
7.7166141732281925
30
0.0000000000000226
10
24.7638820217562419
20
7.7375838835949624
30
0.0000000000000225
10
24.7701159310943915
20
7.7795233043285013
30
0.0000000000000225
10
24.8163617970586152
20
7.8267113138409501
30
0.0000000000000224
10
24.8599415018000833
20
7.8411164302036944
30
0.0000000000000219
10
24.8832272845465177
20
7.8415652580786670
30
0.0000000000000223
10
24.8857650670871635
20
7.8416141732281934
30
0.0000000000000222
41
1.0000000000000000
41
1.0000000000000000
41
1.0000000000000000
41
1.0000000000000000
41
1.0000000000000000
41
1.0000000000000000
41
1.0000000000000000
0
LINE
330
1
100
AcDbEntity
8
Cut
6
CONTINUOUS
62
5
370
0
100
AcDbLine
10
24.8857650670871635
20
7.8416141732281934
30
0.0000000000000222
11
28.1357650670871635
21
7.8416141732282094
31
0.0000000000000225
0
SPLINE
8
Cut
6
CONTINUOUS
62
5
370
0
100
AcDbEntity
100
AcDbSpline
70
1
71
3
72
16
73
12
74
0
40
0.0000000000000000
40
0.0000000000000000
40
0.0000000000000000
40
0.0000000000000000
40
0.1135047903499533
40
0.2270095806999049
40
0.3405143710498570
40
0.4540191613998086
40
0.5675239517497621
40
0.6810287420997149
40
0.7945335324496654
40
0.9080383227996175
40
1.0000000000000000
40
1.0000000000000000
40
1.0000000000000000
40
1.0000000000000000
10
25.3857650670872950
20
4.0291141732282467
30
0.0000000000000369
10
25.3709779330871257
20
4.0291743318838984
30
0.0000000000000369
10
25.3412023046850976
20
4.0401546174234850
30
0.0000000000000369
10
25.3184370105055052
20
4.0818945635857906
30
0.0000000000000365
10
25.3284926259582939
20
4.1283370082769126
30
0.0000000000000365
10
25.3665105159526121
20
4.1568676224564358
30
0.0000000000000364
10
25.4139270269669559
20
4.1535464196159140
30
0.0000000000000363
10
25.4475844738555281
20
4.1200025328410419
30
0.0000000000000367
10
25.4511256758726248
20
4.0725900702073732
30
0.0000000000000366
10
25.4243656378237830
20
4.0369202906655142
30
0.0000000000000369
10
25.3977456155685495
20
4.0290654326345248
30
0.0000000000000369
10
25.3857650670872950
20
4.0291141732282467
30
0.0000000000000369
41
1.0000000000000000
41
1.0000000000000000
41
1.0000000000000000
41
1.0000000000000000
41
1.0000000000000000
41
1.0000000000000000
41
1.0000000000000000
41
1.0000000000000000
41
1.0000000000000000
41
1.0000000000000000
41
1.0000000000000000
41
1.0000000000000000
0
SPLINE
8
Cut
6
CONTINUOUS
62
5
370
0
100
AcDbEntity
100
AcDbSpline
70
1
71
3
72
16
73
12
74
0
40
0.0000000000000000
40
0.0000000000000000
40
0.0000000000000000
40
0.0000000000000000
40
0.1135047903499523
40
0.2270095806999027
40
0.3405143710498526
40
0.4540191613998031
40
0.5675239517497555
40
0.6810287420997055
40
0.7945335324496576
40
0.9080383227996104
40
0.9999999999999999
40
0.9999999999999999
40
0.9999999999999999
40
0.9999999999999999
10
24.1912768781109619
20
2.1758530183334703
30
0.0000000000000439
10
24.1764897441107962
20
2.1759131769891238
30
0.0000000000000439
10
24.1467141157087717
20
2.1868934625287157
30
0.0000000000000437
10
24.1239488215291722
20
2.2286334086910164
30
0.0000000000000437
10
24.1340044369819644
20
2.2750758533821442
30
0.0000000000000434
10
24.1720223269762791
20
2.3036064675616665
30
0.0000000000000434
10
24.2194388379906229
20
2.3002852647211438
30
0.0000000000000434
10
24.2530962848791987
20
2.2667413779462828
30
0.0000000000000434
10
24.2566374868962917
20
2.2193289153126039
30
0.0000000000000438
10
24.2298774488474571
20
2.1836591357707480
30
0.0000000000000437
10
24.2032574265922165
20
2.1758042777397506
30
0.0000000000000439
10
24.1912768781109619
20
2.1758530183334703
30
0.0000000000000439
41
1.0000000000000000
41
1.0000000000000000
41
1.0000000000000000
41
1.0000000000000000
41
1.0000000000000000
41
1.0000000000000000
41
1.0000000000000000
41
1.0000000000000000
41
1.0000000000000000
41
1.0000000000000000
41
1.0000000000000000
41
1.0000000000000000
0
SPLINE
8
Cut
6
CONTINUOUS
62
5
370
0
100
AcDbEntity
100
AcDbSpline
70
1
71
3
72
16
73
12
74
0
40
0.0000000000000000
40
0.0000000000000000
40
0.0000000000000000
40
0.0000000000000000
40
0.1135047903499519
40
0.2270095806999043
40
0.3405143710498562
40
0.4540191613998078
40
0.5675239517497600
40
0.6810287420997122
40
0.7945335324496633
40
0.9080383227996156
40
1.0000000000000000
40
1.0000000000000000
40
1.0000000000000000
40
1.0000000000000000
10
35.1373160190300382
20
13.2170275585827657
30
0.0000000000000027
10
35.1225288850298725
20
13.2170877172384191
30
0.0000000000000027
10
35.0927532566278373
20
13.2280680027780058
30
0.0000000000000027
10
35.0699879624482449
20
13.2698079489403060
30
0.0000000000000023
10
35.0800435779010300
20
13.3162503936314316
30
0.0000000000000020
10
35.1180614678953518
20
13.3447810078109566
30
0.0000000000000021
10
35.1654779789096921
20
13.3414598049704320
30
0.0000000000000020
10
35.1991354257982749
20
13.3079159181955653
30
0.0000000000000023
10
35.2026766278153644
20
13.2605034555618921
30
0.0000000000000024
10
35.1759165897665227
20
13.2248336760200313
30
0.0000000000000025
10
35.1492965675112927
20
13.2169788179890428
30
0.0000000000000026
10
35.1373160190300382
20
13.2170275585827657
30
0.0000000000000027
41
1.0000000000000000
41
1.0000000000000000
41
1.0000000000000000
41
1.0000000000000000
41
1.0000000000000000
41
1.0000000000000000
41
1.0000000000000000
41
1.0000000000000000
41
1.0000000000000000
41
1.0000000000000000
41
1.0000000000000000
41
1.0000000000000000
0
SPLINE
8
Cut
6
CONTINUOUS
62
5
370
0
100
AcDbEntity
100
AcDbSpline
70
1
71
3
72
16
73
12
74
0
40
0.0000000000000000
40
0.0000000000000000
40
0.0000000000000000
40
0.0000000000000000
40
0.1135047903499535
40
0.2270095806999050
40
0.3405143710498558
40
0.4540191613998089
40
0.5675239517497619
40
0.6810287420997149
40
0.7945335324496655
40
0.9080383227996173
40
1.0000000000000000
40
1.0000000000000000
40
1.0000000000000000
40
1.0000000000000000
10
29.7265548641742612
20
8.7426181100000218
30
0.0000000000000193
10
29.7117677301740919
20
8.7426782686556752
30
0.0000000000000193
10
29.6819921017720674
20
8.7536585541952636
30
0.0000000000000191
10
29.6592268075924714
20
8.7953985003575621
30
0.0000000000000193
10
29.6692824230452601
20
8.8418409450486877
30
0.0000000000000188
10
29.7073003130395783
20
8.8703715592282126
30
0.0000000000000186
10
29.7547168240539186
20
8.8670503563876881
30
0.0000000000000188
10
29.7883742709424943
20
8.8335064696128214
30
0.0000000000000188
10
29.7919154729595874
20
8.7860940069791500
30
0.0000000000000191
10
29.7651554349107492
20
8.7504242274372857
30
0.0000000000000193
10
29.7385354126555121
20
8.7425693694062989
30
0.0000000000000193
10
29.7265548641742612
20
8.7426181100000218
30
0.0000000000000193
41
1.0000000000000000
41
1.0000000000000000
41
1.0000000000000000
41
1.0000000000000000
41
1.0000000000000000
41
1.0000000000000000
41
1.0000000000000000
41
1.0000000000000000
41
1.0000000000000000
41
1.0000000000000000
41
1.0000000000000000
41
1.0000000000000000
0
SPLINE
8
Cut
6
CONTINUOUS
62
5
370
0
100
AcDbEntity
100
AcDbSpline
70
1
71
3
72
16
73
12
74
0
40
0.0000000000000000
40
0.0000000000000000
40
0.0000000000000000
40
0.0000000000000000
40
0.1135047903499516
40
0.2270095806999033
40
0.3405143710498543
40
0.4540191613998055
40
0.5675239517497601
40
0.6810287420997109
40
0.7945335324496619
40
0.9080383227996131
40
0.9999999999999999
40
0.9999999999999999
40
0.9999999999999999
40
0.9999999999999999
10
35.6694682500011240
20
16.9227362200000577
30
-0.0000000000000114
10
35.6546811160009511
20
16.9227963786557112
30
-0.0000000000000114
10
35.6249054875989231
20
16.9337766641952960
30
-0.0000000000000117
10
35.6021401934193236
20
16.9755166103575981
30
-0.0000000000000120
10
35.6121958088721158
20
17.0219590550487219
30
-0.0000000000000120
10
35.6502136988664375
20
17.0504896692282486
30
-0.0000000000000122
10
35.6976302098807778
20
17.0471684663877241
30
-0.0000000000000120
10
35.7312876567693536
20
17.0136245796128556
30
-0.0000000000000120
10
35.7348288587864502
20
16.9662121169791860
30
-0.0000000000000117
10
35.7080688207376014
20
16.9305423374373234
30
-0.0000000000000117
10
35.6814487984823714
20
16.9226874794063349
30
-0.0000000000000114
10
35.6694682500011240
20
16.9227362200000577
30
-0.0000000000000114
41
1.0000000000000000
41
1.0000000000000000
41
1.0000000000000000
41
1.0000000000000000
41
1.0000000000000000
41
1.0000000000000000
41
1.0000000000000000
41
1.0000000000000000
41
1.0000000000000000
41
1.0000000000000000
41
1.0000000000000000
41
1.0000000000000000
0
SPLINE
8
Cut
6
CONTINUOUS
62
5
370
0
100
AcDbEntity
100
AcDbSpline
70
1
71
3
72
16
73
12
74
0
40
0.0000000000000000
40
0.0000000000000000
40
0.0000000000000000
40
0.0000000000000000
40
0.1135047903499531
40
0.2270095806999042
40
0.3405143710498553
40
0.4540191613998080
40
0.5675239517497602
40
0.6810287420997123
40
0.7945335324496633
40
0.9080383227996157
40
1.0000000000000000
40
1.0000000000000000
40
1.0000000000000000
40
1.0000000000000000
10
31.0087070951453931
20
13.2170275585827390
30
0.0000000000000022
10
30.9939199611452239
20
13.2170877172383925
30
0.0000000000000021
10
30.9641443327431993
20
13.2280680027779791
30
0.0000000000000023
10
30.9413790385636034
20
13.2698079489402812
30
0.0000000000000019
10
30.9514346540163920
20
13.3162503936314067
30
0.0000000000000016
10
30.9894525440107103
20
13.3447810078109317
30
0.0000000000000018
10
31.0368690550250506
20
13.3414598049704054
30
0.0000000000000016
10
31.0705265019136263
20
13.3079159181955404
30
0.0000000000000017
10
31.0740677039307265
20
13.2605034555618655
30
0.0000000000000021
10
31.0473076658818847
20
13.2248336760200047
30
0.0000000000000023
10
31.0206876436266441
20
13.2169788179890180
30
0.0000000000000022
10
31.0087070951453931
20
13.2170275585827390
30
0.0000000000000022
41
1.0000000000000000
41
1.0000000000000000
41
1.0000000000000000
41
1.0000000000000000
41
1.0000000000000000
41
1.0000000000000000
41
1.0000000000000000
41
1.0000000000000000
41
1.0000000000000000
41
1.0000000000000000
41
1.0000000000000000
41
1.0000000000000000
0
SPLINE
8
Cut
6
CONTINUOUS
62
5
370
0
100
AcDbEntity
100
AcDbSpline
70
1
71
3
72
16
73
12
74
0
40
0.0000000000000000
40
0.0000000000000000
40
0.0000000000000000
40
0.0000000000000000
40
0.1135047903499528
40
0.2270095806999049
40
0.3405143710498573
40
0.4540191613998090
40
0.5675239517497620
40
0.6810287420997149
40
0.7945335324496654
40
0.9080383227996180
40
1.0000000000000000
40
1.0000000000000000
40
1.0000000000000000
40
1.0000000000000000
10
24.1912768781109975
20
7.1292650916666451
30
0.0000000000000250
10
24.1764897441108317
20
7.1293252503222986
30
0.0000000000000249
10
24.1467141157088072
20
7.1403055358618870
30
0.0000000000000247
10
24.1239488215292077
20
7.1820454820241881
30
0.0000000000000247
10
24.1340044369819964
20
7.2284879267153146
30
0.0000000000000245
10
24.1720223269763181
20
7.2570185408948369
30
0.0000000000000244
10
24.2194388379906584
20
7.2536973380543115
30
0.0000000000000244
10
24.2530962848792342
20
7.2201534512794456
30
0.0000000000000246
10
24.2566374868963273
20
7.1727409886457716
30
0.0000000000000246
10
24.2298774488474855
20
7.1370712091039143
30
0.0000000000000249
10
24.2032574265922520
20
7.1292163510729250
30
0.0000000000000250
10
24.1912768781109975
20
7.1292650916666451
30
0.0000000000000250
41
1.0000000000000000
41
1.0000000000000000
41
1.0000000000000000
41
1.0000000000000000
41
1.0000000000000000
41
1.0000000000000000
41
1.0000000000000000
41
1.0000000000000000
41
1.0000000000000000
41
1.0000000000000000
41
1.0000000000000000
41
1.0000000000000000
0
SPLINE
8
Cut
6
CONTINUOUS
62
5
370
0
100
AcDbEntity
100
AcDbSpline
70
1
71
3
72
16
73
12
74
0
40
0.0000000000000000
40
0.0000000000000000
40
0.0000000000000000
40
0.0000000000000000
40
0.1135047903499506
40
0.2270095806999036
40
0.3405143710498545
40
0.4540191613998058
40
0.5675239517497604
40
0.6810287420997112
40
0.7945335324496623
40
0.9080383227996135
40
1.0000000000000000
40
1.0000000000000000
40
1.0000000000000000
40
1.0000000000000000
10
18.7352362200008429
20
8.7426181099999738
30
0.0000000000000183
10
18.7204490860006771
20
8.7426782686556272
30
0.0000000000000183
10
18.6906734575986526
20
8.7536585541952174
30
0.0000000000000178
10
18.6679081634190531
20
8.7953985003575159
30
0.0000000000000180
10
18.6779637788718418
20
8.8418409450486433
30
0.0000000000000177
10
18.7159816688661635
20
8.8703715592281664
30
0.0000000000000175
10
18.7633981798805038
20
8.8670503563876419
30
0.0000000000000176
10
18.7970556267690831
20
8.8335064696127752
30
0.0000000000000179
10
18.8005968287861691
20
8.7860940069791020
30
0.0000000000000180
10
18.7738367907373345
20
8.7504242274372412
30
0.0000000000000179
10
18.7472167684820974
20
8.7425693694062510
30
0.0000000000000183
10
18.7352362200008429
20
8.7426181099999738
30
0.0000000000000183
41
1.0000000000000000
41
1.0000000000000000
41
1.0000000000000000
41
1.0000000000000000
41
1.0000000000000000
41
1.0000000000000000
41
1.0000000000000000
41
1.0000000000000000
41
1.0000000000000000
41
1.0000000000000000
41
1.0000000000000000
41
1.0000000000000000
0
SPLINE
8
Cut
6
CONTINUOUS
62
5
370
0
100
AcDbEntity
100
AcDbSpline
70
1
71
3
72
16
73
12
74
0
40
0.0000000000000000
40
0.0000000000000000
40
0.0000000000000000
40
0.0000000000000000
40
0.1135047903499527
40
0.2270095806999044
40
0.3405143710498561
40
0.4540191613998084
40
0.5675239517497608
40
0.6810287420997130
40
0.7945335324496643
40
0.9080383227996164
40
1.0000000000000000
40
1.0000000000000000
40
1.0000000000000000
40
1.0000000000000000
10
29.7265548641742470
20
12.4670275585826911
30
0.0000000000000049
10
29.7117677301740812
20
12.4670877172383445
30
0.0000000000000049
10
29.6819921017720532
20
12.4780680027779312
30
0.0000000000000048
10
29.6592268075924572
20
12.5198079489402314
30
0.0000000000000046
10
29.6692824230452459
20
12.5662503936313552
30
0.0000000000000044
10
29.7073003130395676
20
12.5947810078108802
30
0.0000000000000046
10
29.7547168240539079
20
12.5914598049703574
30
0.0000000000000045
10
29.7883742709424837
20
12.5579159181954889
30
0.0000000000000045
10
29.7919154729595768
20
12.5105034555618175
30
0.0000000000000048
10
29.7651554349107350
20
12.4748336760199567
30
0.0000000000000048
10
29.7385354126555015
20
12.4669788179889682
30
0.0000000000000049
10
29.7265548641742470
20
12.4670275585826911
30
0.0000000000000049
41
1.0000000000000000
41
1.0000000000000000
41
1.0000000000000000
41
1.0000000000000000
41
1.0000000000000000
41
1.0000000000000000
41
1.0000000000000000
41
1.0000000000000000
41
1.0000000000000000
41
1.0000000000000000
41
1.0000000000000000
41
1.0000000000000000
0
SPLINE
8
Cut
6
CONTINUOUS
62
5
370
0
100
AcDbEntity
100
AcDbSpline
70
1
71
3
72
16
73
12
74
0
40
0.0000000000000000
40
0.0000000000000000
40
0.0000000000000000
40
0.0000000000000000
40
0.1135047903499520
40
0.2270095806999048
40
0.3405143710498556
40
0.4540191613998084
40
0.5675239517497618
40
0.6810287420997145
40
0.7945335324496651
40
0.9080383227996182
40
1.0000000000000000
40
1.0000000000000000
40
1.0000000000000000
40
1.0000000000000000
10
28.4765548641742683
20
8.7426181100000200
30
0.0000000000000191
10
28.4617677301740990
20
8.7426782686556734
30
0.0000000000000191
10
28.4319921017720709
20
8.7536585541952601
30
0.0000000000000190
10
28.4092268075924785
20
8.7953985003575639
30
0.0000000000000188
10
28.4192824230452672
20
8.8418409450486859
30
0.0000000000000188
10
28.4573003130395854
20
8.8703715592282126
30
0.0000000000000186
10
28.5047168240539257
20
8.8670503563876846
30
0.0000000000000186
10
28.5383742709425015
20
8.8335064696128196
30
0.0000000000000188
10
28.5419154729595945
20
8.7860940069791482
30
0.0000000000000187
10
28.5151554349107563
20
8.7504242274372857
30
0.0000000000000191
10
28.4885354126555193
20
8.7425693694062971
30
0.0000000000000191
10
28.4765548641742683
20
8.7426181100000200
30
0.0000000000000191
41
1.0000000000000000
41
1.0000000000000000
41
1.0000000000000000
41
1.0000000000000000
41
1.0000000000000000
41
1.0000000000000000
41
1.0000000000000000
41
1.0000000000000000
41
1.0000000000000000
41
1.0000000000000000
41
1.0000000000000000
41
1.0000000000000000
0
SPLINE
8
Cut
6
CONTINUOUS
62
5
370
0
100
AcDbEntity
100
AcDbSpline
70
1
71
3
72
16
73
12
74
0
40
0.0000000000000000
40
0.0000000000000000
40
0.0000000000000000
40
0.0000000000000000
40
0.1135047903499533
40
0.2270095806999050
40
0.3405143710498572
40
0.4540191613998085
40
0.5675239517497618
40
0.6810287420997149
40
0.7945335324496654
40
0.9080383227996174
40
1.0000000000000000
40
1.0000000000000000
40
1.0000000000000000
40
1.0000000000000000
10
28.2607650670872772
20
8.0291141732282618
30
0.0000000000000217
10
28.2459779330871115
20
8.0291743318839153
30
0.0000000000000217
10
28.2162023046850834
20
8.0401546174235037
30
0.0000000000000216
10
28.1934370105054875
20
8.0818945635858039
30
0.0000000000000216
10
28.2034926259582761
20
8.1283370082769277
30
0.0000000000000215
10
28.2415105159525979
20
8.1568676224564527
30
0.0000000000000212
10
28.2889270269669382
20
8.1535464196159282
30
0.0000000000000213
10
28.3225844738555139
20
8.1200025328410597
30
0.0000000000000214
10
28.3261256758726070
20
8.0725900702073865
30
0.0000000000000217
10
28.2993656378237652
20
8.0369202906655310
30
0.0000000000000216
10
28.2727456155685317
20
8.0290654326345408
30
0.0000000000000217
10
28.2607650670872772
20
8.0291141732282618
30
0.0000000000000217
41
1.0000000000000000
41
1.0000000000000000
41
1.0000000000000000
41
1.0000000000000000
41
1.0000000000000000
41
1.0000000000000000
41
1.0000000000000000
41
1.0000000000000000
41
1.0000000000000000
41
1.0000000000000000
41
1.0000000000000000
41
1.0000000000000000
0
SPLINE
8
Cut
6
CONTINUOUS
62
5
370
0
100
AcDbEntity
100
AcDbSpline
70
1
71
3
72
16
73
12
74
0
40
0.0000000000000000
40
0.0000000000000000
40
0.0000000000000000
40
0.0000000000000000
40
0.1135047903499533
40
0.2270095806999049
40
0.3405143710498570
40
0.4540191613998086
40
0.5675239517497621
40
0.6810287420997149
40
0.7945335324496654
40
0.9080383227996175
40
1.0000000000000000
40
1.0000000000000000
40
1.0000000000000000
40
1.0000000000000000
10
25.3857650670872736
20
8.0291141732282494
30
0.0000000000000216
10
25.3709779330871044
20
8.0291743318839011
30
0.0000000000000216
10
25.3412023046850798
20
8.0401546174234895
30
0.0000000000000216
10
25.3184370105054875
20
8.0818945635857933
30
0.0000000000000213
10
25.3284926259582761
20
8.1283370082769153
30
0.0000000000000210
10
25.3665105159525908
20
8.1568676224564385
30
0.0000000000000211
10
25.4139270269669382
20
8.1535464196159158
30
0.0000000000000210
10
25.4475844738555139
20
8.1200025328410472
30
0.0000000000000213
10
25.4511256758725999
20
8.0725900702073758
30
0.0000000000000212
10
25.4243656378237652
20
8.0369202906655168
30
0.0000000000000215
10
25.3977456155685317
20
8.0290654326345265
30
0.0000000000000216
10
25.3857650670872736
20
8.0291141732282494
30
0.0000000000000216
41
1.0000000000000000
41
1.0000000000000000
41
1.0000000000000000
41
1.0000000000000000
41
1.0000000000000000
41
1.0000000000000000
41
1.0000000000000000
41
1.0000000000000000
41
1.0000000000000000
41
1.0000000000000000
41
1.0000000000000000
41
1.0000000000000000
0
SPLINE
8
Cut
6
CONTINUOUS
62
5
370
0
100
AcDbEntity
100
AcDbSpline
70
1
71
3
72
16
73
12
74
0
40
0.0000000000000000
40
0.0000000000000000
40
0.0000000000000000
40
0.0000000000000000
40
0.1135047903499532
40
0.2270095806999038
40
0.3405143710498550
40
0.4540191613998065
40
0.5675239517497584
40
0.6810287420997105
40
0.7945335324496619
40
0.9080383227996142
40
1.0000000000000000
40
1.0000000000000000
40
1.0000000000000000
40
1.0000000000000000
10
24.1912768781109868
20
10.3559711283333407
30
0.0000000000000124
10
24.1764897441108175
20
10.3560312869889941
30
0.0000000000000125
10
24.1467141157087894
20
10.3670115725285807
30
0.0000000000000124
10
24.1239488215291971
20
10.4087515186908810
30
0.0000000000000123
10
24.1340044369819857
20
10.4551939633820066
30
0.0000000000000120
10
24.1720223269763039
20
10.4837245775615315
30
0.0000000000000121
10
24.2194388379906407
20
10.4804033747210070
30
0.0000000000000122
10
24.2530962848792200
20
10.4468594879461421
30
0.0000000000000119
10
24.2566374868963130
20
10.3994470253124671
30
0.0000000000000124
10
24.2298774488474749
20
10.3637772457706063
30
0.0000000000000124
10
24.2032574265922378
20
10.3559223877396178
30
0.0000000000000124
10
24.1912768781109868
20
10.3559711283333407
30
0.0000000000000124
41
1.0000000000000000
41
1.0000000000000000
41
1.0000000000000000
41
1.0000000000000000
41
1.0000000000000000
41
1.0000000000000000
41
1.0000000000000000
41
1.0000000000000000
41
1.0000000000000000
41
1.0000000000000000
41
1.0000000000000000
41
1.0000000000000000
0
SPLINE
8
Cut
6
CONTINUOUS
62
5
370
0
100
AcDbEntity
100
AcDbSpline
70
1
71
3
72
16
73
12
74
0
40
0.0000000000000000
40
0.0000000000000000
40
0.0000000000000000
40
0.0000000000000000
40
0.1135047903499517
40
0.2270095806999050
40
0.3405143710498558
40
0.4540191613998092
40
0.5675239517497621
40
0.6810287420997149
40
0.7945335324496654
40
0.9080383227996189
40
1.0000000000000000
40
1.0000000000000000
40
1.0000000000000000
40
1.0000000000000000
10
24.1912768781109975
20
8.7426181100000004
30
0.0000000000000187
10
24.1764897441108317
20
8.7426782686556539
30
0.0000000000000186
10
24.1467141157088072
20
8.7536585541952405
30
0.0000000000000186
10
24.1239488215292077
20
8.7953985003575426
30
0.0000000000000186
10
24.1340044369819964
20
8.8418409450486664
30
0.0000000000000181
10
24.1720223269763181
20
8.8703715592281931
30
0.0000000000000181
10
24.2194388379906584
20
8.8670503563876650
30
0.0000000000000182
10
24.2530962848792342
20
8.8335064696127983
30
0.0000000000000184
10
24.2566374868963273
20
8.7860940069791269
30
0.0000000000000186
10
24.2298774488474926
20
8.7504242274372661
30
0.0000000000000186
10
24.2032574265922520
20
8.7425693694062776
30
0.0000000000000187
10
24.1912768781109975
20
8.7426181100000004
30
0.0000000000000187
41
1.0000000000000000
41
1.0000000000000000
41
1.0000000000000000
41
1.0000000000000000
41
1.0000000000000000
41
1.0000000000000000
41
1.0000000000000000
41
1.0000000000000000
41
1.0000000000000000
41
1.0000000000000000
41
1.0000000000000000
41
1.0000000000000000
0
SPLINE
8
Cut
6
CONTINUOUS
62
5
370
0
100
AcDbEntity
100
AcDbSpline
70
1
71
3
72
16
73
12
74
0
40
0.0000000000000000
40
0.0000000000000000
40
0.0000000000000000
40
0.0000000000000000
40
0.1135047903499532
40
0.2270095806999038
40
0.3405143710498550
40
0.4540191613998065
40
0.5675239517497584
40
0.6810287420997105
40
0.7945335324496619
40
0.9080383227996142
40
1.0000000000000000
40
1.0000000000000000
40
1.0000000000000000
40
1.0000000000000000
10
30.6694682500010849
20
16.9227362200000222
30
-0.0000000000000123
10
30.6546811160009192
20
16.9227963786556757
30
-0.0000000000000123
10
30.6249054875988911
20
16.9337766641952605
30
-0.0000000000000122
10
30.6021401934192951
20
16.9755166103575661
30
-0.0000000000000122
10
30.6121958088720838
20
17.0219590550486863
30
-0.0000000000000126
10
30.6502136988664056
20
17.0504896692282131
30
-0.0000000000000127
10
30.6976302098807459
20
17.0471684663876886
30
-0.0000000000000125
10
30.7312876567693216
20
17.0136245796128200
30
-0.0000000000000126
10
30.7348288587864147
20
16.9662121169791504
30
-0.0000000000000124
10
30.7080688207375765
20
16.9305423374372879
30
-0.0000000000000120
10
30.6814487984823394
20
16.9226874794062994
30
-0.0000000000000122
10
30.6694682500010849
20
16.9227362200000222
30
-0.0000000000000123
41
1.0000000000000000
41
1.0000000000000000
41
1.0000000000000000
41
1.0000000000000000
41
1.0000000000000000
41
1.0000000000000000
41
1.0000000000000000
41
1.0000000000000000
41
1.0000000000000000
41
1.0000000000000000
41
1.0000000000000000
41
1.0000000000000000
0
SPLINE
8
Cut
6
CONTINUOUS
62
5
370
0
100
AcDbEntity
100
AcDbSpline
70
1
71
3
72
16
73
12
74
0
40
0.0000000000000000
40
0.0000000000000000
40
0.0000000000000000
40
0.0000000000000000
40
0.1135047903499532
40
0.2270095806999038
40
0.3405143710498550
40
0.4540191613998065
40
0.5675239517497584
40
0.6810287420997105
40
0.7945335324496619
40
0.9080383227996142
40
1.0000000000000000
40
1.0000000000000000
40
1.0000000000000000
40
1.0000000000000000
10
22.9687942275009789
20
16.9227362199999831
30
-0.0000000000000129
10
22.9540070935008131
20
16.9227963786556366
30
-0.0000000000000129
10
22.9242314650987851
20
16.9337766641952214
30
-0.0000000000000131
10
22.9014661709191891
20
16.9755166103575270
30
-0.0000000000000130
10
22.9115217863719813
20
17.0219590550486473
30
-0.0000000000000132
10
22.9495396763662995
20
17.0504896692281740
30
-0.0000000000000136
10
22.9969561873806363
20
17.0471684663876495
30
-0.0000000000000132
10
23.0306136342692156
20
17.0136245796127810
30
-0.0000000000000133
10
23.0341548362863087
20
16.9662121169791078
30
-0.0000000000000129
10
23.0073947982374705
20
16.9305423374372488
30
-0.0000000000000129
10
22.9807747759822334
20
16.9226874794062603
30
-0.0000000000000128
10
22.9687942275009789
20
16.9227362199999831
30
-0.0000000000000129
41
1.0000000000000000
41
1.0000000000000000
41
1.0000000000000000
41
1.0000000000000000
41
1.0000000000000000
41
1.0000000000000000
41
1.0000000000000000
41
1.0000000000000000
41
1.0000000000000000
41
1.0000000000000000
41
1.0000000000000000
41
1.0000000000000000
0
SPLINE
8
Cut
6
CONTINUOUS
62
5
370
0
100
AcDbEntity
100
AcDbSpline
70
1
71
3
72
16
73
12
74
0
40
0.0000000000000000
40
0.0000000000000000
40
0.0000000000000000
40
0.0000000000000000
40
0.1135047903499516
40
0.2270095806999033
40
0.3405143710498543
40
0.4540191613998055
40
0.5675239517497601
40
0.6810287420997109
40
0.7945335324496619
40
0.9080383227996131
40
0.9999999999999999
40
0.9999999999999999
40
0.9999999999999999
40
0.9999999999999999
10
18.7352362200008002
20
16.9227362199999583
30
-0.0000000000000132
10
18.7204490860006310
20
16.9227963786556117
30
-0.0000000000000132
10
18.6906734575986064
20
16.9337766641952001
30
-0.0000000000000133
10
18.6679081634190140
20
16.9755166103574986
30
-0.0000000000000135
10
18.6779637788718027
20
17.0219590550486259
30
-0.0000000000000137
10
18.7159816688661174
20
17.0504896692281491
30
-0.0000000000000139
10
18.7633981798804612
20
17.0471684663876282
30
-0.0000000000000136
10
18.7970556267690405
20
17.0136245796127561
30
-0.0000000000000138
10
18.8005968287861265
20
16.9662121169790865
30
-0.0000000000000132
10
18.7738367907372918
20
16.9305423374372204
30
-0.0000000000000134
10
18.7472167684820548
20
16.9226874794062354
30
-0.0000000000000132
10
18.7352362200008002
20
16.9227362199999583
30
-0.0000000000000132
41
1.0000000000000000
41
1.0000000000000000
41
1.0000000000000000
41
1.0000000000000000
41
1.0000000000000000
41
1.0000000000000000
41
1.0000000000000000
41
1.0000000000000000
41
1.0000000000000000
41
1.0000000000000000
41
1.0000000000000000
41
1.0000000000000000
0
SPLINE
8
Cut
6
CONTINUOUS
62
5
370
0
100
AcDbEntity
100
AcDbSpline
70
1
71
3
72
16
73
12
74
0
40
0.0000000000000000
40
0.0000000000000000
40
0.0000000000000000
40
0.0000000000000000
40
0.1135047903499532
40
0.2270095806999047
40
0.3405143710498554
40
0.4540191613998084
40
0.5675239517497607
40
0.6810287420997130
40
0.7945335324496644
40
0.9080383227996158
40
1.0000000000000000
40
1.0000000000000000
40
1.0000000000000000
40
1.0000000000000000
10
24.1912768781109371
20
15.3093832016667371
30
-0.0000000000000066
10
24.1764897441107713
20
15.3094433603223905
30
-0.0000000000000066
10
24.1467141157087433
20
15.3204236458619771
30
-0.0000000000000067
10
24.1239488215291473
20
15.3621635920242809
30
-0.0000000000000067
10
24.1340044369819395
20
15.4086060367154030
30
-0.0000000000000070
10
24.1720223269762577
20
15.4371366508949279
30
-0.0000000000000069
10
24.2194388379905980
20
15.4338154480544034
30
-0.0000000000000071
10
24.2530962848791773
20
15.4002715612795367
30
-0.0000000000000070
10
24.2566374868962669
20
15.3528590986458653
30
-0.0000000000000068
10
24.2298774488474287
20
15.3171893191040027
30
-0.0000000000000066
10
24.2032574265921951
20
15.3093344610730142
30
-0.0000000000000066
10
24.1912768781109371
20
15.3093832016667371
30
-0.0000000000000066
41
1.0000000000000000
41
1.0000000000000000
41
1.0000000000000000
41
1.0000000000000000
41
1.0000000000000000
41
1.0000000000000000
41
1.0000000000000000
41
1.0000000000000000
41
1.0000000000000000
41
1.0000000000000000
41
1.0000000000000000
41
1.0000000000000000
0
SPLINE
8
Cut
6
CONTINUOUS
62
5
370
0
100
AcDbEntity
100
AcDbSpline
70
1
71
3
72
16
73
12
74
0
40
0.0000000000000000
40
0.0000000000000000
40
0.0000000000000000
40
0.0000000000000000
40
0.1135047903499527
40
0.2270095806999037
40
0.3405143710498548
40
0.4540191613998067
40
0.5675239517497591
40
0.6810287420997103
40
0.7945335324496615
40
0.9080383227996137
40
1.0000000000000000
40
1.0000000000000000
40
1.0000000000000000
40
1.0000000000000000
10
27.2023522350010296
20
16.9227362200000115
30
-0.0000000000000124
10
27.1875651010008639
20
16.9227963786556650
30
-0.0000000000000124
10
27.1577894725988358
20
16.9337766641952499
30
-0.0000000000000125
10
27.1350241784192399
20
16.9755166103575519
30
-0.0000000000000129
10
27.1450797938720285
20
17.0219590550486757
30
-0.0000000000000126
10
27.1830976838663503
20
17.0504896692281989
30
-0.0000000000000130
10
27.2305141948806906
20
17.0471684663876779
30
-0.0000000000000127
10
27.2641716417692699
20
17.0136245796128094
30
-0.0000000000000129
10
27.2677128437863594
20
16.9662121169791362
30
-0.0000000000000126
10
27.2409528057375212
20
16.9305423374372772
30
-0.0000000000000124
10
27.2143327834822877
20
16.9226874794062887
30
-0.0000000000000123
10
27.2023522350010296
20
16.9227362200000115
30
-0.0000000000000124
41
1.0000000000000000
41
1.0000000000000000
41
1.0000000000000000
41
1.0000000000000000
41
1.0000000000000000
41
1.0000000000000000
41
1.0000000000000000
41
1.0000000000000000
41
1.0000000000000000
41
1.0000000000000000
41
1.0000000000000000
41
1.0000000000000000
0
MTEXT
330
1 F
100
AcDbEntity
8
PartID
6
CONTINUOUS
62
30
370
0
100
AcDbMText
10
27.2023522350002764
20
8.8051181099998512
30
0.0000000000000000
40
0.7874015748031497
41
0.0
71
5
72
1
1
Seat Pan Top
0
MTEXT
330
1 F
100
AcDbEntity
8
PartIndex
6
CONTINUOUS
62
30
370
0
100
AcDbMText
10
27.2023522350002764
20
9.6318897635431586
30
0.0000000000000000
40
0.7874015748031497
41
0.0
71
5
72
1
1
08-1
0
LINE
330
1
100
AcDbEntity
8
Cut
6
CONTINUOUS
62
5
370
0
100
AcDbLine
10
16.9332145785086290
20
28.4745483957294780
30
0.0000000000000000
11
26.6237738272586313
21
29.7460629921259923
31
0.0000000000000000
0
LINE
330
1
100
AcDbEntity
8
Cut
6
CONTINUOUS
62
5
370
0
100
AcDbLine
10
26.6237738272581126
20
29.7460629921259212
30
0.0000000000000000
11
28.0136841295323791
21
19.1531778040139642
31
0.0000000000000000
0
LINE
330
1
100
AcDbEntity
8
Cut
6
CONTINUOUS
62
5
370
0
100
AcDbLine
10
28.0136841295323791
20
19.1531778040139642
30
0.0000000000000000
11
18.3231248807831939
21
17.8816632076175637
31
0.0000000000000000
0
LINE
330
1
100
AcDbEntity
8
Cut
6
CONTINUOUS
62
5
370
0
100
AcDbLine
10
18.3231248807829132
20
17.8816632076175246
30
0.0000000000000000
11
16.9332145785086290
21
28.4745483957294780
31
0.0000000000000000
0
SPLINE
8
Cut
6
CONTINUOUS
62
5
370
0
100
AcDbEntity
100
AcDbSpline
70
1
71
3
72
16
73
12
74
0
40
0.0000000000000000
40
0.0000000000000000
40
0.0000000000000000
40
0.0000000000000000
40
0.1135047903499529
40
0.2270095806999032
40
0.3405143710498568
40
0.4540191613998080
40
0.5675239517497597
40
0.6810287420997124
40
0.7945335324496622
40
0.9080383227996142
40
1.0000000000000000
40
1.0000000000000000
40
1.0000000000000000
40
1.0000000000000000
10
19.7158839014590406
20
18.3165523432892137
30
-0.0000000000000022
10
19.7140197935965631
20
18.3312216327362130
30
-0.0000000000000022
10
19.7210330545072168
20
18.3621727052324175
30
0.0000000000000011
10
19.7594565801632740
20
18.3901747480306561
30
0.0000000000000011
10
19.8068125267635011
20
18.3862465941870568
30
-0.0000000000000033
10
19.8400466653041292
20
18.3522635404610703
30
0.0000000000000022
10
19.8429224131922517
20
18.3048179297139804
30
-0.0000000000000033
10
19.8140423228977340
20
18.2670825821522698
30
0.0000000000000022
10
19.7674935013832460
20
18.2574032774082404
30
0.0000000000000000
10
19.7286454786968655
20
18.2792953751217695
30
0.0000000000000033
10
19.7173942032268137
20
18.3046672725646680
30
0.0000000000000000
10
19.7158839014590406
20
18.3165523432892137
30
-0.0000000000000022
41
1.0000000000000000
41
1.0000000000000000
41
1.0000000000000000
41
1.0000000000000000
41
1.0000000000000000
41
1.0000000000000000
41
1.0000000000000000
41
1.0000000000000000
41
1.0000000000000000
41
1.0000000000000000
41
1.0000000000000000
41
1.0000000000000000
0
SPLINE
8
Cut
6
CONTINUOUS
62
5
370
0
100
AcDbEntity
100
AcDbSpline
70
1
71
3
72
16
73
12
74
0
40
0.0000000000000000
40
0.0000000000000000
40
0.0000000000000000
40
0.0000000000000000
40
0.1135047903499524
40
0.2270095806999040
40
0.3405143710498556
40
0.4540191613998072
40
0.5675239517497589
40
0.6810287420997108
40
0.7945335324496626
40
0.9080383227996145
40
0.9999999999999999
40
0.9999999999999999
40
0.9999999999999999
40
0.9999999999999999
10
26.4319391632811040
20
19.1977772629669801
30
0.0000000000000011
10
26.4300750554186301
20
19.2124465524139794
30
0.0000000000000011
10
26.4370883163292874
20
19.2433976249101875
30
-0.0000000000000033
10
26.4755118419853339
20
19.2713996677084225
30
0.0000000000000033
10
26.5228677885855610
20
19.2674715138648232
30
0.0000000000000000
10
26.5561019271261927
20
19.2334884601388367
30
0.0000000000000011
10
26.5589776750143187
20
19.1860428493917432
30
0.0000000000000022
10
26.5300975847197975
20
19.1483075018300362
30
0.0000000000000000
10
26.4835487632053130
20
19.1386281970860068
30
0.0000000000000000
10
26.4447007405189325
20
19.1605202947995359
30
0.0000000000000000
10
26.4334494650488736
20
19.1858921922424344
30
0.0000000000000011
10
26.4319391632811040
20
19.1977772629669801
30
0.0000000000000011
41
1.0000000000000000
41
1.0000000000000000
41
1.0000000000000000
41
1.0000000000000000
41
1.0000000000000000
41
1.0000000000000000
41
1.0000000000000000
41
1.0000000000000000
41
1.0000000000000000
41
1.0000000000000000
41
1.0000000000000000
41
1.0000000000000000
0
ARC
8
Cut
6
CONTINUOUS
62
5
370
0
100
AcDbEntity
100
AcDbCircle
10
23.8929470391448255
20
23.6553462196463187
30
-0.0000000000000011
40
1.9999996829890001
100
AcDbArc
50
277.4751630380945358
51
7.4751812014915648
0
LINE
330
1
100
AcDbEntity
8
Cut
6
CONTINUOUS
62
5
370
0
100
AcDbLine
10
24.1531398013983285
20
21.6723438347695492
30
0.0000000000000000
11
21.4030898554794540
21
21.3115051507166839
31
0.0000000000000000
0
ARC
8
Cut
6
CONTINUOUS
62
5
370
0
100
AcDbEntity
100
AcDbCircle
10
21.1428964645921837
20
23.2945074531093574
30
-0.0000000000000066
40
1.9999996829889926
100
AcDbArc
50
187.4751630380944221
51
277.4751812014917505
0
LINE
330
1
100
AcDbEntity
8
Cut
6
CONTINUOUS
62
5
370
0
100
AcDbLine
10
19.1598940797154285
20
23.0343146908558118
30
0.0000000000000000
11
19.0709493665034024
21
23.7121865892098640
31
0.0000000000000000
0
ARC
8
Cut
6
CONTINUOUS
62
5
370
0
100
AcDbEntity
100
AcDbCircle
10
21.0539516688961079
20
23.9723799800971307
30
0.0000000000000011
40
1.9999996829889912
100
AcDbArc
50
97.4751630380945784
51
187.4751812014914094
0
LINE
330
1
100
AcDbEntity
8
Cut
6
CONTINUOUS
62
5
370
0
100
AcDbLine
10
20.7937589066424735
20
25.9553823649738931
30
0.0000000000000000
11
23.5438088525614901
21
26.3162210490267761
31
0.0000000000000000
0
ARC
8
Cut
6
CONTINUOUS
62
5
370
0
100
AcDbEntity
100
AcDbCircle
10
23.8040022434487604
20
24.3332187466340919
30
-0.0000000000000033
40
1.9999996829889961
100
AcDbArc
50
7.4751630380946237
51
97.4751812014917931
0
LINE
330
1
100
AcDbEntity
8
Cut
6
CONTINUOUS
62
5
370
0
100
AcDbLine
10
25.7870046283254766
20
24.5934115088876339
30
0.0000000000000000
11
25.8759493415375026
21
23.9155396105335818
31
0.0000000000000000
0
SPLINE
8
Cut
6
CONTINUOUS
62
5
370
0
100
AcDbEntity
100
AcDbSpline
70
1
71
3
72
16
73
12
74
0
40
0.0000000000000000
40
0.0000000000000000
40
0.0000000000000000
40
0.0000000000000000
40
0.1135047903499524
40
0.2270095806999043
40
0.3405143710498562
40
0.4540191613998084
40
0.5675239517497612
40
0.6810287420997130
40
0.7945335324496650
40
0.9080383227996168
40
1.0000000000000000
40
1.0000000000000000
40
1.0000000000000000
40
1.0000000000000000
10
22.9961584979772411
20
19.8301542665401840
30
0.0000000000000000
10
22.9814892085302489
20
19.8282901586777029
30
0.0000000000000011
10
22.9505381360340408
20
19.8353034195883673
30
0.0000000000000011
10
22.9225360932358022
20
19.8737269452444103
30
0.0000000000000011
10
22.9264642470794051
20
19.9210828918446410
30
0.0000000000000000
10
22.9604473008053880
20
19.9543170303852726
30
0.0000000000000022
10
23.0078929115524815
20
19.9571927782733987
30
-0.0000000000000011
10
23.0456282591141886
20
19.9283126879788703
30
0.0000000000000022
10
23.0553075638582143
20
19.8817638664643859
30
-0.0000000000000022
10
23.0334154661446924
20
19.8429158437780053
30
0.0000000000000011
10
23.0080435687017868
20
19.8316645683079535
30
0.0000000000000000
10
22.9961584979772411
20
19.8301542665401840
30
0.0000000000000000
41
1.0000000000000000
41
1.0000000000000000
41
1.0000000000000000
41
1.0000000000000000
41
1.0000000000000000
41
1.0000000000000000
41
1.0000000000000000
41
1.0000000000000000
41
1.0000000000000000
41
1.0000000000000000
41
1.0000000000000000
41
1.0000000000000000
0
SPLINE
8
Cut
6
CONTINUOUS
62
5
370
0
100
AcDbEntity
100
AcDbSpline
70
1
71
3
72
16
73
12
74
0
40
0.0000000000000000
40
0.0000000000000000
40
0.0000000000000000
40
0.0000000000000000
40
0.1135047903499524
40
0.2270095806999044
40
0.3405143710498563
40
0.4540191613998086
40
0.5675239517497614
40
0.6810287420997122
40
0.7945335324496644
40
0.9080383227996154
40
1.0000000000000000
40
1.0000000000000000
40
1.0000000000000000
40
1.0000000000000000
10
19.1423802025782948
20
19.3244935272481797
30
0.0000000000000000
10
19.1277109131312990
20
19.3226294193857058
30
0.0000000000000000
10
19.0967598406350909
20
19.3296426802963630
30
-0.0000000000000033
10
19.0687577978368452
20
19.3680662059524096
30
-0.0000000000000011
10
19.0726859516804517
20
19.4154221525526403
30
-0.0000000000000011
10
19.1066690054064381
20
19.4486562910932683
30
0.0000000000000022
10
19.1541146161535352
20
19.4515320389813944
30
0.0000000000000000
10
19.1918499637152351
20
19.4226519486868732
30
-0.0000000000000022
10
19.2015292684592715
20
19.3761031271723887
30
-0.0000000000000022
10
19.1796371707457425
20
19.3372551044860082
30
0.0000000000000033
10
19.1542652733028369
20
19.3260038290159493
30
0.0000000000000022
10
19.1423802025782948
20
19.3244935272481797
30
0.0000000000000000
41
1.0000000000000000
41
1.0000000000000000
41
1.0000000000000000
41
1.0000000000000000
41
1.0000000000000000
41
1.0000000000000000
41
1.0000000000000000
41
1.0000000000000000
41
1.0000000000000000
41
1.0000000000000000
41
1.0000000000000000
41
1.0000000000000000
0
SPLINE
8
Cut
6
CONTINUOUS
62
5
370
0
100
AcDbEntity
100
AcDbSpline
70
1
71
3
72
16
73
12
74
0
40
0.0000000000000000
40
0.0000000000000000
40
0.0000000000000000
40
0.0000000000000000
40
0.1135047903499523
40
0.2270095806999042
40
0.3405143710498560
40
0.4540191613998084
40
0.5675239517497604
40
0.6810287420997124
40
0.7945335324496644
40
0.9080383227996165
40
1.0000000000000000
40
1.0000000000000000
40
1.0000000000000000
40
1.0000000000000000
10
26.8499367933761732
20
20.3358150058321741
30
0.0000000000000011
10
26.8352675039291739
20
20.3339508979696966
30
0.0000000000000011
10
26.8043164314329658
20
20.3409641588803574
30
0.0000000000000011
10
26.7763143886347272
20
20.3793876845364039
30
-0.0000000000000011
10
26.7802425424783301
20
20.4267436311366311
30
-0.0000000000000022
10
26.8142255962043166
20
20.4599777696772627
30
0.0000000000000011
10
26.8616712069514136
20
20.4628535175653852
30
0.0000000000000022
10
26.8994065545131136
20
20.4339734272708675
30
-0.0000000000000011
10
26.9090858592571465
20
20.3874246057563795
30
0.0000000000000011
10
26.8871937615436174
20
20.3485765830700025
30
0.0000000000000000
10
26.8618218641007189
20
20.3373253075999436
30
0.0000000000000011
10
26.8499367933761732
20
20.3358150058321741
30
0.0000000000000011
41
1.0000000000000000
41
1.0000000000000000
41
1.0000000000000000
41
1.0000000000000000
41
1.0000000000000000
41
1.0000000000000000
41
1.0000000000000000
41
1.0000000000000000
41
1.0000000000000000
41
1.0000000000000000
41
1.0000000000000000
41
1.0000000000000000
0
SPLINE
8
Cut
6
CONTINUOUS
62
5
370
0
100
AcDbEntity
100
AcDbSpline
70
1
71
3
72
16
73
12
74
0
40
0.0000000000000000
40
0.0000000000000000
40
0.0000000000000000
40
0.0000000000000000
40
0.1135047903499520
40
0.2270095806999039
40
0.3405143710498564
40
0.4540191613998081
40
0.5675239517497609
40
0.6810287420997145
40
0.7945335324496662
40
0.9080383227996188
40
1.0000000000000000
40
1.0000000000000000
40
1.0000000000000000
40
1.0000000000000000
10
25.1070771404599142
20
29.2949117865910509
30
-0.0000000000000022
10
25.1052130325974332
20
29.3095810760380502
30
-0.0000000000000022
10
25.1122262935080940
20
29.3405321485342547
30
-0.0000000000000033
10
25.1506498191641406
20
29.3685341913325004
30
0.0000000000000022
10
25.1980057657643641
20
29.3646060374888975
30
0.0000000000000011
10
25.2312399043049957
20
29.3306229837629182
30
0.0000000000000000
10
25.2341156521931218
20
29.2831773730158140
30
0.0000000000000000
10
25.2052355618986041
20
29.2454420254541070
30
-0.0000000000000011
10
25.1586867403841161
20
29.2357627207100847
30
0.0000000000000044
10
25.1198387176977356
20
29.2576548184236103
30
-0.0000000000000011
10
25.1085874422276767
20
29.2830267158665123
30
-0.0000000000000011
10
25.1070771404599142
20
29.2949117865910509
30
-0.0000000000000022
41
1.0000000000000000
41
1.0000000000000000
41
1.0000000000000000
41
1.0000000000000000
41
1.0000000000000000
41
1.0000000000000000
41
1.0000000000000000
41
1.0000000000000000
41
1.0000000000000000
41
1.0000000000000000
41
1.0000000000000000
41
1.0000000000000000
0
SPLINE
8
Cut
6
CONTINUOUS
62
5
370
0
100
AcDbEntity
100
AcDbSpline
70
1
71
3
72
16
73
12
74
0
40
0.0000000000000000
40
0.0000000000000000
40
0.0000000000000000
40
0.0000000000000000
40
0.1135047903499531
40
0.2270095806999050
40
0.3405143710498574
40
0.4540191613998095
40
0.5675239517497613
40
0.6810287420997146
40
0.7945335324496656
40
0.9080383227996177
40
1.0000000000000000
40
1.0000000000000000
40
1.0000000000000000
40
1.0000000000000000
10
21.9670022799273568
20
27.6736342670814395
30
0.0000000000000022
10
21.9523329904803610
20
27.6717701592189584
30
0.0000000000000022
10
21.9213819179841494
20
27.6787834201296228
30
0.0000000000000022
10
21.8933798751859179
20
27.7172069457856693
30
-0.0000000000000011
10
21.8973080290295137
20
27.7645628923858965
30
0.0000000000000011
10
21.9312910827554965
20
27.7977970309265245
30
0.0000000000000022
10
21.9787366935025972
20
27.8006727788146470
30
-0.0000000000000033
10
22.0164720410643042
20
27.7717926885201294
30
0.0000000000000033
10
22.0261513458083336
20
27.7252438670056449
30
0.0000000000000000
10
22.0042592480948045
20
27.6863958443192608
30
-0.0000000000000022
10
21.9788873506519025
20
27.6751445688492090
30
0.0000000000000011
10
21.9670022799273568
20
27.6736342670814395
30
0.0000000000000022
41
1.0000000000000000
41
1.0000000000000000
41
1.0000000000000000
41
1.0000000000000000
41
1.0000000000000000
41
1.0000000000000000
41
1.0000000000000000
41
1.0000000000000000
41
1.0000000000000000
41
1.0000000000000000
41
1.0000000000000000
41
1.0000000000000000
0
SPLINE
8
Cut
6
CONTINUOUS
62
5
370
0
100
AcDbEntity
100
AcDbSpline
70
1
71
3
72
16
73
12
74
0
40
0.0000000000000000
40
0.0000000000000000
40
0.0000000000000000
40
0.0000000000000000
40
0.1135047903499532
40
0.2270095806999051
40
0.3405143710498576
40
0.4540191613998086
40
0.5675239517497620
40
0.6810287420997144
40
0.7945335324496655
40
0.9080383227996177
40
0.9999999999999999
40
0.9999999999999999
40
0.9999999999999999
40
0.9999999999999999
10
18.1132239845283749
20
27.1679735277894316
30
-0.0000000000000011
10
18.0985546950813792
20
27.1661094199269506
30
-0.0000000000000011
10
18.0676036225851711
20
27.1731226808376150
30
-0.0000000000000022
10
18.0396015797869254
20
27.2115462064936615
30
0.0000000000000011
10
18.0435297336305283
20
27.2589021530938886
30
0.0000000000000022
10
18.0775127873565182
20
27.2921362916345167
30
0.0000000000000011
10
18.1249583981036153
20
27.2950120395226392
30
-0.0000000000000033
10
18.1626937456653152
20
27.2661319492281216
30
0.0000000000000011
10
18.1723730504093446
20
27.2195831277136300
30
0.0000000000000011
10
18.1504809526958191
20
27.1807351050272530
30
0.0000000000000011
10
18.1251090552529170
20
27.1694838295572012
30
-0.0000000000000011
10
18.1132239845283749
20
27.1679735277894316
30
-0.0000000000000011
41
1.0000000000000000
41
1.0000000000000000
41
1.0000000000000000
41
1.0000000000000000
41
1.0000000000000000
41
1.0000000000000000
41
1.0000000000000000
41
1.0000000000000000
41
1.0000000000000000
41
1.0000000000000000
41
1.0000000000000000
41
1.0000000000000000
0
SPLINE
8
Cut
6
CONTINUOUS
62
5
370
0
100
AcDbEntity
100
AcDbSpline
70
1
71
3
72
16
73
12
74
0
40
0.0000000000000000
40
0.0000000000000000
40
0.0000000000000000
40
0.0000000000000000
40
0.1135047903499530
40
0.2270095806999050
40
0.3405143710498577
40
0.4540191613998092
40
0.5675239517497616
40
0.6810287420997145
40
0.7945335324496656
40
0.9080383227996177
40
1.0000000000000000
40
1.0000000000000000
40
1.0000000000000000
40
1.0000000000000000
10
25.8207805753262782
20
28.1792950063733940
30
0.0000000000000000
10
25.8061112858792825
20
28.1774308985109236
30
0.0000000000000000
10
25.7751602133830744
20
28.1844441594215844
30
0.0000000000000011
10
25.7471581705848394
20
28.2228676850776239
30
-0.0000000000000033
10
25.7510863244284351
20
28.2702236316778510
30
0.0000000000000000
10
25.7850693781544216
20
28.3034577702184826
30
0.0000000000000000
10
25.8325149889015186
20
28.3063335181066087
30
0.0000000000000011
10
25.8702503364632257
20
28.2774534278120875
30
0.0000000000000022
10
25.8799296412072515
20
28.2309046062976030
30
-0.0000000000000022
10
25.8580375434937295
20
28.1920565836112154
30
0.0000000000000011
10
25.8326656460508204
20
28.1808053081411636
30
0.0000000000000000
10
25.8207805753262782
20
28.1792950063733940
30
0.0000000000000000
41
1.0000000000000000
41
1.0000000000000000
41
1.0000000000000000
41
1.0000000000000000
41
1.0000000000000000
41
1.0000000000000000
41
1.0000000000000000
41
1.0000000000000000
41
1.0000000000000000
41
1.0000000000000000
41
1.0000000000000000
41
1.0000000000000000
0
SPLINE
8
Cut
6
CONTINUOUS
62
5
370
0
100
AcDbEntity
100
AcDbSpline
70
1
71
3
72
16
73
12
74
0
40
0.0000000000000000
40
0.0000000000000000
40
0.0000000000000000
40
0.0000000000000000
40
0.1135047903499514
40
0.2270095806999051
40
0.3405143710498568
40
0.4540191613998087
40
0.5675239517497616
40
0.6810287420997152
40
0.7945335324496654
40
0.9080383227996192
40
1.0000000000000000
40
1.0000000000000000
40
1.0000000000000000
40
1.0000000000000000
10
18.3910218786378721
20
28.4136868669133129
30
-0.0000000000000011
10
18.3891577707753946
20
28.4283561563603122
30
0.0000000000000000
10
18.3961710316860518
20
28.4593072288565168
30
0.0000000000000033
10
18.4345945573420984
20
28.4873092716547589
30
0.0000000000000022
10
18.4819505039423255
20
28.4833811178111560
30
0.0000000000000011
10
18.5151846424829607
20
28.4493980640851660
30
-0.0000000000000022
10
18.5180603903710832
20
28.4019524533380689
30
0.0000000000000000
10
18.4891803000765584
20
28.3642171057763726
30
0.0000000000000011
10
18.4426314785620775
20
28.3545378010323397
30
0.0000000000000011
10
18.4037834558756899
20
28.3764298987458687
30
0.0000000000000033
10
18.3925321804056416
20
28.4018017961887672
30
0.0000000000000000
10
18.3910218786378721
20
28.4136868669133129
30
-0.0000000000000011
41
1.0000000000000000
41
1.0000000000000000
41
1.0000000000000000
41
1.0000000000000000
41
1.0000000000000000
41
1.0000000000000000
41
1.0000000000000000
41
1.0000000000000000
41
1.0000000000000000
41
1.0000000000000000
41
1.0000000000000000
41
1.0000000000000000
0
MTEXT
330
1 F
100
AcDbEntity
8
PartID
6
CONTINUOUS
62
30
370
0
100
AcDbMText
10
22.4734493540205058
20
23.8138630998717744
30
0.0000000000000000
40
0.7874015748031497
41
0.0
71
5
72
1
1
Aft Parachute Container Support
0
MTEXT
330
1 F
100
AcDbEntity
8
PartIndex
6
CONTINUOUS
62
30
370
0
100
AcDbMText
10
22.4734493540205058
20
24.6406347534150818
30
0.0000000000000000
40
0.7874015748031497
41
0.0
71
5
72
1
1
44-1
0
LINE
330
1
100
AcDbEntity
8
Cut
6
CONTINUOUS
62
5
370
0
100
AcDbLine
10
10.9336822892151577
20
29.4762325183402112
30
0.0000000000000159
11
10.9336822892151915
21
22.6249999999991296
31
0.0000000000000379
0
LINE
330
1
100
AcDbEntity
8
Cut
6
CONTINUOUS
62
5
370
0
100
AcDbLine
10
10.9336822892151897
20
22.6249999999994422
30
0.0000000000000379
11
0.2500000000000336
21
22.6249999999993854
31
0.0000000000000379
0
LINE
330
1
100
AcDbEntity
8
Cut
6
CONTINUOUS
62
5
370
0
100
AcDbLine
10
0.2500000000000336
20
22.6249999999993854
30
0.0000000000000379
11
0.2500000000000053
21
29.4762325183401579
31
0.0000000000000159
0
LINE
330
1
100
AcDbEntity
8
Cut
6
CONTINUOUS
62
5
370
0
100
AcDbLine
10
0.2500000000000053
20
29.4762325183401579
30
0.0000000000000159
11
10.9336822892151577
21
29.4762325183402112
31
0.0000000000000159
0
CIRCLE
8
Cut
6
CONTINUOUS
62
5
370
0
100
AcDbEntity
100
AcDbCircle
10
1.2500091028007443
20
28.4762343265923796
30
0.0000000000000191
40
0.1249981920792802
0
SPLINE
8
Cut
6
CONTINUOUS
62
5
370
0
100
AcDbEntity
100
AcDbSpline
70
1
71
3
72
16
73
12
74
0
40
0.0000000000000000
40
0.0000000000000000
40
0.0000000000000000
40
0.0000000000000000
40
0.1135047903499534
40
0.2270095806999050
40
0.3405143710498561
40
0.4540191613998075
40
0.5675239517497624
40
0.6810287420997154
40
0.7945335324496648
40
0.9080383227996196
40
1.0000000000000000
40
1.0000000000000000
40
1.0000000000000000
40
1.0000000000000000
10
0.4917546754040616
20
28.0308747495294242
30
0.0000000000000205
10
0.5065418094042290
20
28.0308145908737743
30
0.0000000000000205
10
0.5363174378062585
20
28.0198343053341823
30
0.0000000000000205
10
0.5590827319858489
20
27.9780943591718838
30
0.0000000000000207
10
0.5490271165330621
20
27.9316519144807565
30
0.0000000000000208
10
0.5110092265387380
20
27.9031213003012333
30
0.0000000000000209
10
0.4635927155243996
20
27.9064425031417578
30
0.0000000000000209
10
0.4299352686358243
20
27.9399863899166228
30
0.0000000000000208
10
0.4263940666187264
20
27.9873988525502959
30
0.0000000000000207
10
0.4531541046675666
20
28.0230686320921585
30
0.0000000000000205
10
0.4797741269228062
20
28.0309234901231470
30
0.0000000000000205
10
0.4917546754040616
20
28.0308747495294242
30
0.0000000000000205
41
1.0000000000000000
41
1.0000000000000000
41
1.0000000000000000
41
1.0000000000000000
41
1.0000000000000000
41
1.0000000000000000
41
1.0000000000000000
41
1.0000000000000000
41
1.0000000000000000
41
1.0000000000000000
41
1.0000000000000000
41
1.0000000000000000
0
CIRCLE
8
Cut
6
CONTINUOUS
62
5
370
0
100
AcDbEntity
100
AcDbCircle
10
4.5918502474082628
20
26.0742354079585539
30
0.0000000000000268
40
0.1249981920792846
0
CIRCLE
8
Cut
6
CONTINUOUS
62
5
370
0
100
AcDbEntity
100
AcDbCircle
10
9.9336913920157883
20
28.4762343265924365
30
0.0000000000000191
40
0.1249981920792802
0
CIRCLE
8
Cut
6
CONTINUOUS
62
5
370
0
100
AcDbEntity
100
AcDbCircle
10
6.5918502474083915
20
26.0742354079586001
30
0.0000000000000268
40
0.1249981920792802
0
SPLINE
8
Cut
6
CONTINUOUS
62
5
370
0
100
AcDbEntity
100
AcDbSpline
70
1
71
3
72
16
73
12
74
0
40
0.0000000000000000
40
0.0000000000000000
40
0.0000000000000000
40
0.0000000000000000
40
0.1135047903499518
40
0.2270095806999011
40
0.3405143710498496
40
0.4540191613998018
40
0.5675239517497537
40
0.6810287420997081
40
0.7945335324496583
40
0.9080383227996093
40
1.0000000000000000
40
1.0000000000000000
40
1.0000000000000000
40
1.0000000000000000
10
0.4976931156921709
20
24.1796468096054475
30
0.0000000000000329
10
0.5124802496923383
20
24.1795866509497976
30
0.0000000000000329
10
0.5422558780943700
20
24.1686063654102092
30
0.0000000000000329
10
0.5650211722739625
20
24.1268664192479072
30
0.0000000000000331
10
0.5549655568211737
20
24.0804239745567834
30
0.0000000000000332
10
0.5169476668268561
20
24.0518933603772531
30
0.0000000000000333
10
0.4695311558125154
20
24.0552145632177812
30
0.0000000000000333
10
0.4358737089239358
20
24.0887584499926461
30
0.0000000000000332
10
0.4323325069068401
20
24.1361709126263122
30
0.0000000000000330
10
0.4590925449556781
20
24.1718406921681783
30
0.0000000000000329
10
0.4857125672109155
20
24.1796955501991704
30
0.0000000000000329
10
0.4976931156921709
20
24.1796468096054475
30
0.0000000000000329
41
1.0000000000000000
41
1.0000000000000000
41
1.0000000000000000
41
1.0000000000000000
41
1.0000000000000000
41
1.0000000000000000
41
1.0000000000000000
41
1.0000000000000000
41
1.0000000000000000
41
1.0000000000000000
41
1.0000000000000000
41
1.0000000000000000
0
CIRCLE
8
Cut
6
CONTINUOUS
62
5
370
0
100
AcDbEntity
100
AcDbCircle
10
1.2500091028007694
20
23.4847352454199125
30
0.0000000000000351
40
0.1249981920792715
0
SPLINE
8
Cut
6
CONTINUOUS
62
5
370
0
100
AcDbEntity
100
AcDbSpline
70
1
71
3
72
16
73
12
74
0
40
0.0000000000000000
40
0.0000000000000000
40
0.0000000000000000
40
0.0000000000000000
40
0.1135047903499521
40
0.2270095806999055
40
0.3405143710498568
40
0.4540191613998095
40
0.5675239517497626
40
0.6810287420997151
40
0.7945335324496647
40
0.9080383227996183
40
1.0000000000000000
40
1.0000000000000000
40
1.0000000000000000
40
1.0000000000000000
10
10.6836822892151719
20
28.0387325183402147
30
0.0000000000000205
10
10.6984694232153394
20
28.0386723596845613
30
0.0000000000000205
10
10.7282450516173657
20
28.0276920741449764
30
0.0000000000000205
10
10.7510103457969617
20
27.9859521279826673
30
0.0000000000000207
10
10.7409547303441713
20
27.9395096832915435
30
0.0000000000000208
10
10.7029368403498530
20
27.9109790691120239
30
0.0000000000000209
10
10.6555203293355110
20
27.9143002719525484
30
0.0000000000000209
10
10.6218628824469370
20
27.9478441587274133
30
0.0000000000000208
10
10.6183216804298421
20
27.9952566213610901
30
0.0000000000000206
10
10.6450817184786839
20
28.0309264009029455
30
0.0000000000000205
10
10.6717017407339174
20
28.0387812589339376
30
0.0000000000000205
10
10.6836822892151719
20
28.0387325183402147
30
0.0000000000000205
41
1.0000000000000000
41
1.0000000000000000
41
1.0000000000000000
41
1.0000000000000000
41
1.0000000000000000
41
1.0000000000000000
41
1.0000000000000000
41
1.0000000000000000
41
1.0000000000000000
41
1.0000000000000000
41
1.0000000000000000
41
1.0000000000000000
0
CIRCLE
8
Cut
6
CONTINUOUS
62
5
370
0
100
AcDbEntity
100
AcDbCircle
10
9.9336913920158096
20
23.4847352454199587
30
0.0000000000000351
40
0.1249981920792802
0
SPLINE
8
Cut
6
CONTINUOUS
62
5
370
0
100
AcDbEntity
100
AcDbSpline
70
1
71
3
72
16
73
12
74
0
40
0.0000000000000000
40
0.0000000000000000
40
0.0000000000000000
40
0.0000000000000000
40
0.1135047903499519
40
0.2270095806999014
40
0.3405143710498503
40
0.4540191613998038
40
0.5675239517497555
40
0.6810287420997083
40
0.7945335324496591
40
0.9080383227996105
40
1.0000000000000000
40
1.0000000000000000
40
1.0000000000000000
40
1.0000000000000000
10
10.6836822892151915
20
24.1874999999995133
30
0.0000000000000329
10
10.6984694232153590
20
24.1874398413438563
30
0.0000000000000329
10
10.7282450516173853
20
24.1764595558042679
30
0.0000000000000329
10
10.7510103457969812
20
24.1347196096419765
30
0.0000000000000330
10
10.7409547303441908
20
24.0882771649508527
30
0.0000000000000332
10
10.7029368403498744
20
24.0597465507713189
30
0.0000000000000333
10
10.6555203293355305
20
24.0630677536118398
30
0.0000000000000333
10
10.6218628824469530
20
24.0966116403867083
30
0.0000000000000332
10
10.6183216804298599
20
24.1440241030203886
30
0.0000000000000330
10
10.6450817184786981
20
24.1796938825622476
30
0.0000000000000329
10
10.6717017407339352
20
24.1875487405932361
30
0.0000000000000329
10
10.6836822892151915
20
24.1874999999995133
30
0.0000000000000329
41
1.0000000000000000
41
1.0000000000000000
41
1.0000000000000000
41
1.0000000000000000
41
1.0000000000000000
41
1.0000000000000000
41
1.0000000000000000
41
1.0000000000000000
41
1.0000000000000000
41
1.0000000000000000
41
1.0000000000000000
41
1.0000000000000000
0
MTEXT
330
1 F
100
AcDbEntity
8
PartID
6
CONTINUOUS
62
30
370
0
100
AcDbMText
10
5.5918411446076126
20
26.0506162591696686
30
0.0000000000000000
40
0.7874015748031497
41
0.0
71
5
72
1
1
Top Parachute Container Base
0
MTEXT
330
1 F
100
AcDbEntity
8
PartIndex
6
CONTINUOUS
62
30
370
0
100
AcDbMText
10
5.5918411446076126
20
26.8773879127129760
30
0.0000000000000000
40
0.7874015748031497
41
0.0
71
5
72
1
1
06-1
0
LINE
330
1
100
AcDbEntity
8
Cut
6
CONTINUOUS
62
5
370
0
100
AcDbLine
10
34.0598933021740109
20
19.1116037585762442
30
0.0000000000000006
11
28.4814853928548963
21
18.4266613928932088
31
0.0000000000000122
0
LINE
330
1
100
AcDbEntity
8
Cut
6
CONTINUOUS
62
5
370
0
100
AcDbLine
10
28.4814853928548963
20
18.4266613928932088
30
0.0000000000000122
11
27.1794720471190345
21
29.0307091344122767
31
0.0000000000000220
0
LINE
330
1
100
AcDbEntity
8
Cut
6
CONTINUOUS
62
5
370
0
100
AcDbLine
10
27.1794720471190345
20
29.0307091344122767
30
0.0000000000000220
11
32.7578799564381598
21
29.7156515000953121
31
0.0000000000000104
0
LINE
330
1
100
AcDbEntity
8
Cut
6
CONTINUOUS
62
5
370
0
100
AcDbLine
10
32.7578799564381455
20
29.7156515000953085
30
0.0000000000000104
11
34.0598933021740109
21
19.1116037585762442
31
0.0000000000000006
0
SPLINE
8
Cut
6
CONTINUOUS
62
5
370
0
100
AcDbEntity
100
AcDbSpline
70
1
71
3
72
16
73
12
74
0
40
0.0000000000000000
40
0.0000000000000000
40
0.0000000000000000
40
0.0000000000000000
40
0.1135047903499521
40
0.2270095806999035
40
0.3405143710498554
40
0.4540191613998085
40
0.5675239517497614
40
0.6810287420997133
40
0.7945335324496653
40
0.9080383227996172
40
1.0000000000000000
40
1.0000000000000000
40
1.0000000000000000
40
1.0000000000000000
10
31.6096987372153357
20
29.3227951168912071
30
0.0000000000000127
10
31.6114411252846246
20
29.3081108724496708
30
0.0000000000000127
10
31.6041714214112162
20
29.2772190268774253
30
0.0000000000000127
10
31.5655169899321990
20
29.2495366019159242
30
0.0000000000000128
10
31.5181952489284427
20
29.2538573540953344
30
0.0000000000000127
10
31.4852440823293342
20
29.2881148572857128
30
0.0000000000000128
10
31.4827619103636387
20
29.3355826856267470
30
0.0000000000000131
10
31.5119539551401218
20
29.3730772264665845
30
0.0000000000000128
10
31.5585814485023199
20
29.3823701585912183
30
0.0000000000000128
10
31.5972465791830039
20
29.3601566384202428
30
0.0000000000000126
10
31.6082870529270181
20
29.3346923041649816
30
0.0000000000000127
10
31.6096987372153357
20
29.3227951168912071
30
0.0000000000000127
41
1.0000000000000000
41
1.0000000000000000
41
1.0000000000000000
41
1.0000000000000000
41
1.0000000000000000
41
1.0000000000000000
41
1.0000000000000000
41
1.0000000000000000
41
1.0000000000000000
41
1.0000000000000000
41
1.0000000000000000
41
1.0000000000000000
0
SPLINE
8
Cut
6
CONTINUOUS
62
5
370
0
100
AcDbEntity
100
AcDbSpline
70
1
71
3
72
16
73
12
74
0
40
0.0000000000000000
40
0.0000000000000000
40
0.0000000000000000
40
0.0000000000000000
40
0.1135047903499532
40
0.2270095806999045
40
0.3405143710498571
40
0.4540191613998099
40
0.5675239517497620
40
0.6810287420997154
40
0.7945335324496664
40
0.9080383227996177
40
1.0000000000000000
40
1.0000000000000000
40
1.0000000000000000
40
1.0000000000000000
10
28.5126562069995479
20
28.9425261097210367
30
0.0000000000000191
10
28.5143985950688368
20
28.9278418652795004
30
0.0000000000000190
10
28.5071288911954248
20
28.8969500197072549
30
0.0000000000000190
10
28.4684744597164077
20
28.8692675947457538
30
0.0000000000000191
10
28.4211527187126514
20
28.8735883469251640
30
0.0000000000000193
10
28.3882015521135465
20
28.9078458501155424
30
0.0000000000000191
10
28.3857193801478473
20
28.9553136784565801
30
0.0000000000000196
10
28.4149114249243269
20
28.9928082192964141
30
0.0000000000000193
10
28.4615389182865357
20
29.0021011514210478
30
0.0000000000000191
10
28.5002040489672055
20
28.9798876312500724
30
0.0000000000000193
10
28.5112445227112268
20
28.9544232969948077
30
0.0000000000000191
10
28.5126562069995479
20
28.9425261097210367
30
0.0000000000000191
41
1.0000000000000000
41
1.0000000000000000
41
1.0000000000000000
41
1.0000000000000000
41
1.0000000000000000
41
1.0000000000000000
41
1.0000000000000000
41
1.0000000000000000
41
1.0000000000000000
41
1.0000000000000000
41
1.0000000000000000
41
1.0000000000000000
0
SPLINE
8
Cut
6
CONTINUOUS
62
5
370
0
100
AcDbEntity
100
AcDbSpline
70
1
71
3
72
16
73
12
74
0
40
0.0000000000000000
40
0.0000000000000000
40
0.0000000000000000
40
0.0000000000000000
40
0.1135047903499525
40
0.2270095806999045
40
0.3405143710498571
40
0.4540191613998099
40
0.5675239517497620
40
0.6810287420997149
40
0.7945335324496660
40
0.9080383227996177
40
0.9999999999999999
40
0.9999999999999999
40
0.9999999999999999
40
0.9999999999999999
10
27.6115120629120803
20
28.0762471525848909
30
0.0000000000000203
10
27.6132544509813691
20
28.0615629081433617
30
0.0000000000000202
10
27.6059847471079465
20
28.0306710625711162
30
0.0000000000000204
10
27.5673303156289364
20
28.0029886376096115
30
0.0000000000000206
10
27.5200085746251837
20
28.0073093897890217
30
0.0000000000000205
10
27.4870574080260752
20
28.0415668929794037
30
0.0000000000000206
10
27.4845752360603761
20
28.0890347213204343
30
0.0000000000000206
10
27.5137672808368592
20
28.1265292621602718
30
0.0000000000000206
10
27.5603947741990609
20
28.1358221942849127
30
0.0000000000000206
10
27.5990599048797343
20
28.1136086741139337
30
0.0000000000000207
10
27.6101003786237627
20
28.0881443398586690
30
0.0000000000000204
10
27.6115120629120803
20
28.0762471525848909
30
0.0000000000000203
41
1.0000000000000000
41
1.0000000000000000
41
1.0000000000000000
41
1.0000000000000000
41
1.0000000000000000
41
1.0000000000000000
41
1.0000000000000000
41
1.0000000000000000
41
1.0000000000000000
41
1.0000000000000000
41
1.0000000000000000
41
1.0000000000000000
0
SPLINE
8
Cut
6
CONTINUOUS
62
5
370
0
100
AcDbEntity
100
AcDbSpline
70
1
71
3
72
16
73
12
74
0
40
0.0000000000000000
40
0.0000000000000000
40
0.0000000000000000
40
0.0000000000000000
40
0.1135047903499522
40
0.2270095806999036
40
0.3405143710498555
40
0.4540191613998086
40
0.5675239517497617
40
0.6810287420997124
40
0.7945335324496646
40
0.9080383227996156
40
1.0000000000000000
40
1.0000000000000000
40
1.0000000000000000
40
1.0000000000000000
10
32.8507774112486430
20
19.2150204511928067
30
0.0000000000000034
10
32.8525197993179319
20
19.2003362067512704
30
0.0000000000000033
10
32.8452500954445199
20
19.1694443611790248
30
0.0000000000000033
10
32.8065956639655028
20
19.1417619362175202
30
0.0000000000000033
10
32.7592739229617536
20
19.1460826883969339
30
0.0000000000000036
10
32.7263227563626415
20
19.1803401915873124
30
0.0000000000000037
10
32.7238405843969460
20
19.2278080199283501
30
0.0000000000000036
10
32.7530326291734255
20
19.2653025607681840
30
0.0000000000000036
10
32.7996601225356272
20
19.2745954928928214
30
0.0000000000000033
10
32.8383252532163041
20
19.2523819727218424
30
0.0000000000000035
10
32.8493657269603290
20
19.2269176384665776
30
0.0000000000000034
10
32.8507774112486430
20
19.2150204511928067
30
0.0000000000000034
41
1.0000000000000000
41
1.0000000000000000
41
1.0000000000000000
41
1.0000000000000000
41
1.0000000000000000
41
1.0000000000000000
41
1.0000000000000000
41
1.0000000000000000
41
1.0000000000000000
41
1.0000000000000000
41
1.0000000000000000
41
1.0000000000000000
0
SPLINE
8
Cut
6
CONTINUOUS
62
5
370
0
100
AcDbEntity
100
AcDbSpline
70
1
71
3
72
16
73
12
74
0
40
0.0000000000000000
40
0.0000000000000000
40
0.0000000000000000
40
0.0000000000000000
40
0.1135047903499525
40
0.2270095806999045
40
0.3405143710498571
40
0.4540191613998099
40
0.5675239517497620
40
0.6810287420997149
40
0.7945335324496660
40
0.9080383227996177
40
0.9999999999999999
40
0.9999999999999999
40
0.9999999999999999
40
0.9999999999999999
10
28.1406493923748648
20
23.7667694334666919
30
0.0000000000000163
10
28.1423917804441537
20
23.7520851890251556
30
0.0000000000000163
10
28.1351220765707382
20
23.7211933434529101
30
0.0000000000000165
10
28.0964676450917246
20
23.6935109184914054
30
0.0000000000000165
10
28.0491459040879718
20
23.6978316706708227
30
0.0000000000000167
10
28.0161947374888598
20
23.7320891738612012
30
0.0000000000000167
10
28.0137125655231607
20
23.7795570022022318
30
0.0000000000000168
10
28.0429046102996473
20
23.8170515430420728
30
0.0000000000000166
10
28.0895321036618490
20
23.8263444751667066
30
0.0000000000000166
10
28.1281972343425188
20
23.8041309549957276
30
0.0000000000000167
10
28.1392377080865472
20
23.7786666207404664
30
0.0000000000000163
10
28.1406493923748648
20
23.7667694334666919
30
0.0000000000000163
41
1.0000000000000000
41
1.0000000000000000
41
1.0000000000000000
41
1.0000000000000000
41
1.0000000000000000
41
1.0000000000000000
41
1.0000000000000000
41
1.0000000000000000
41
1.0000000000000000
41
1.0000000000000000
41
1.0000000000000000
41
1.0000000000000000
0
SPLINE
8
Cut
6
CONTINUOUS
62
5
370
0
100
AcDbEntity
100
AcDbSpline
70
1
71
3
72
16
73
12
74
0
40
0.0000000000000000
40
0.0000000000000000
40
0.0000000000000000
40
0.0000000000000000
40
0.1135047903499530
40
0.2270095806999047
40
0.3405143710498569
40
0.4540191613998095
40
0.5675239517497629
40
0.6810287420997151
40
0.7945335324496660
40
0.9080383227996178
40
1.0000000000000000
40
1.0000000000000000
40
1.0000000000000000
40
1.0000000000000000
10
29.7537348810328162
20
18.8347514440226327
30
0.0000000000000098
10
29.7554772691021050
20
18.8200671995810964
30
0.0000000000000098
10
29.7482075652287001
20
18.7891753540088509
30
0.0000000000000096
10
29.7095531337496830
20
18.7614929290473427
30
0.0000000000000100
10
29.6622313927459302
20
18.7658136812267600
30
0.0000000000000098
10
29.6292802261468182
20
18.8000711844171384
30
0.0000000000000101
10
29.6267980541811227
20
18.8475390127581761
30
0.0000000000000098
10
29.6559900989576057
20
18.8850335535980065
30
0.0000000000000102
10
29.7026175923198039
20
18.8943264857226474
30
0.0000000000000099
10
29.7412827230004844
20
18.8721129655516719
30
0.0000000000000096
10
29.7523231967445021
20
18.8466486312964072
30
0.0000000000000098
10
29.7537348810328162
20
18.8347514440226327
30
0.0000000000000098
41
1.0000000000000000
41
1.0000000000000000
41
1.0000000000000000
41
1.0000000000000000
41
1.0000000000000000
41
1.0000000000000000
41
1.0000000000000000
41
1.0000000000000000
41
1.0000000000000000
41
1.0000000000000000
41
1.0000000000000000
41
1.0000000000000000
0
SPLINE
8
Cut
6
CONTINUOUS
62
5
370
0
100
AcDbEntity
100
AcDbSpline
70
1
71
3
72
16
73
12
74
0
40
0.0000000000000000
40
0.0000000000000000
40
0.0000000000000000
40
0.0000000000000000
40
0.1135047903499530
40
0.2270095806999047
40
0.3405143710498569
40
0.4540191613998095
40
0.5675239517497629
40
0.6810287420997151
40
0.7945335324496660
40
0.9080383227996178
40
1.0000000000000000
40
1.0000000000000000
40
1.0000000000000000
40
1.0000000000000000
10
28.6697867218376459
20
19.4572917143484752
30
0.0000000000000124
10
28.6715291099069312
20
19.4426074699069353
30
0.0000000000000125
10
28.6642594060335227
20
19.4117156243346969
30
0.0000000000000125
10
28.6256049745545020
20
19.3840331993731887
30
0.0000000000000127
10
28.5782832335507493
20
19.3883539515526024
30
0.0000000000000127
10
28.5453320669516408
20
19.4226114547429809
30
0.0000000000000128
10
28.5428498949859488
20
19.4700792830840186
30
0.0000000000000124
10
28.5720419397624248
20
19.5075738239238525
30
0.0000000000000128
10
28.6186694331246265
20
19.5168667560484899
30
0.0000000000000127
10
28.6573345638053070
20
19.4946532358775144
30
0.0000000000000124
10
28.6683750375493247
20
19.4691889016222497
30
0.0000000000000124
10
28.6697867218376459
20
19.4572917143484752
30
0.0000000000000124
41
1.0000000000000000
41
1.0000000000000000
41
1.0000000000000000
41
1.0000000000000000
41
1.0000000000000000
41
1.0000000000000000
41
1.0000000000000000
41
1.0000000000000000
41
1.0000000000000000
41
1.0000000000000000
41
1.0000000000000000
41
1.0000000000000000
0
MTEXT
330
1 F
100
AcDbEntity
8
PartID
6
CONTINUOUS
62
30
370
0
100
AcDbMText
10
30.6196826746465227
20
24.0711564464942605
30
0.0000000000000000
40
0.7874015748031497
41
0.0
71
5
72
1
1
Lower Parachute Container Base
0
MTEXT
330
1 F
100
AcDbEntity
8
PartIndex
6
CONTINUOUS
62
30
370
0
100
AcDbMText
10
30.6196826746465227
20
24.8979281000375678
30
0.0000000000000000
40
0.7874015748031497
41
0.0
71
5
72
1
1
31-1
0
SPLINE
8
Cut
6
CONTINUOUS
62
5
370
0
100
AcDbEntity
100
AcDbSpline
70
0
71
3
72
14
73
10
74
0
40
0.0000000000000000
40
0.0000000000000000
40
0.0000000000000000
40
0.0000000000000000
40
0.0407840752165147
40
0.2006533960137621
40
0.3605227168110092
40
0.5203920376082583
40
0.6802613584055049
40
0.8401306792027525
40
1.0000000000000000
40
1.0000000000000000
40
1.0000000000000000
40
1.0000000000000000
10
30.8515548641743962
20
4.9557086614173027
30
0.0000000000000158
10
30.8409057397995738
20
4.9559217053802049
30
0.0000000000000158
10
30.7885131586502467
20
4.9569698594557696
30
0.0000000000000158
10
30.6949366033428177
20
4.9754545865583655
30
0.0000000000000158
10
30.5805400388207609
20
5.0292359729907803
30
0.0000000000000156
10
30.4829275836652336
20
5.1100284717228748
30
0.0000000000000153
10
30.4090635970959156
20
5.2124427494006733
30
0.0000000000000150
10
30.3607067280021177
20
5.3301385665904650
30
0.0000000000000146
10
30.3546054854502998
20
5.4138519631416830
30
0.0000000000000143
10
30.3515548641743997
20
5.4557086614172929
30
0.0000000000000142
41
1.0000000000000000
41
1.0000000000000000
41
1.0000000000000000
41
1.0000000000000000
41
1.0000000000000000
41
1.0000000000000000
41
1.0000000000000000
41
1.0000000000000000
41
1.0000000000000000
41
1.0000000000000000
0
LINE
330
1
100
AcDbEntity
8
Cut
6
CONTINUOUS
62
5
370
0
100
AcDbLine
10
30.3515548641744068
20
5.4557086614172929
30
0.0000000000000142
11
30.3515548641742896
21
11.6269685037008141
31
-0.0000000000000058
0
SPLINE
8
Cut
6
CONTINUOUS
62
5
370
0
100
AcDbEntity
100
AcDbSpline
70
0
71
3
72
14
73
10
74
0
40
0.0000000000000000
40
0.0000000000000000
40
0.0000000000000000
40
0.0000000000000000
40
0.0407840752165332
40
0.2006533960137787
40
0.3605227168110219
40
0.5203920376082658
40
0.6802613584055093
40
0.8401306792027555
40
0.9999999999999999
40
0.9999999999999999
40
0.9999999999999999
40
0.9999999999999999
10
30.3515548641743145
20
11.6269685037008177
30
-0.0000000000000058
10
30.3517679081372194
20
11.6376176280756471
30
-0.0000000000000058
10
30.3528160622127672
20
11.6900102092249849
30
-0.0000000000000060
10
30.3713007893153843
20
11.7835867645323997
30
-0.0000000000000063
10
30.4250821757478001
20
11.8979833290544672
30
-0.0000000000000066
10
30.5058746744798768
20
11.9955957842099838
30
-0.0000000000000069
10
30.6082889521576860
20
12.0694597707793214
30
-0.0000000000000072
10
30.7259847693474804
20
12.1178166398731069
30
-0.0000000000000073
10
30.8096981658986948
20
12.1239178824249194
30
-0.0000000000000073
10
30.8515548641743074
20
12.1269685037008248
30
-0.0000000000000073
41
1.0000000000000000
41
1.0000000000000000
41
1.0000000000000000
41
1.0000000000000000
41
1.0000000000000000
41
1.0000000000000000
41
1.0000000000000000
41
1.0000000000000000
41
1.0000000000000000
41
1.0000000000000000
0
LINE
330
1
100
AcDbEntity
8
Cut
6
CONTINUOUS
62
5
370
0
100
AcDbLine
10
30.8515548641743074
20
12.1269685037008159
30
-0.0000000000000073
11
37.6015548641741830
21
12.1269685037008479
31
-0.0000000000000070
0
SPLINE
8
Cut
6
CONTINUOUS
62
5
370
0
100
AcDbEntity
100
AcDbSpline
70
0
71
3
72
14
73
10
74
0
40
0.0000000000000000
40
0.0000000000000000
40
0.0000000000000000
40
0.0000000000000000
40
0.0407840752165147
40
0.2006533960137619
40
0.3605227168110094
40
0.5203920376082580
40
0.6802613584055049
40
0.8401306792027525
40
1.0000000000000000
40
1.0000000000000000
40
1.0000000000000000
40
1.0000000000000000
10
37.6015548641742754
20
12.1269685037008603
30
-0.0000000000000070
10
37.6122039885490977
20
12.1267554597379590
30
-0.0000000000000070
10
37.6645965696984248
20
12.1257073056623934
30
-0.0000000000000070
10
37.7581731250058539
20
12.1072225785597993
30
-0.0000000000000069
10
37.8725696895279214
20
12.0534411921273801
30
-0.0000000000000067
10
37.9701821446834344
20
11.9726486933952874
30
-0.0000000000000065
10
38.0440461312527702
20
11.8702344157174888
30
-0.0000000000000061
10
38.0924030003465575
20
11.7525385985276980
30
-0.0000000000000057
10
38.0985042428983718
20
11.6688252019764800
30
-0.0000000000000055
10
38.1015548641742825
20
11.6269685037008692
30
-0.0000000000000053
41
1.0000000000000000
41
1.0000000000000000
41
1.0000000000000000
41
1.0000000000000000
41
1.0000000000000000
41
1.0000000000000000
41
1.0000000000000000
41
1.0000000000000000
41
1.0000000000000000
41
1.0000000000000000
0
LINE
330
1
100
AcDbEntity
8
Cut
6
CONTINUOUS
62
5
370
0
100
AcDbLine
10
38.1015548641742470
20
11.6269685037008674
30
-0.0000000000000053
11
38.1015548641743607
21
5.4557086614173231
31
0.0000000000000146
0
SPLINE
8
Cut
6
CONTINUOUS
62
5
370
0
100
AcDbEntity
100
AcDbSpline
70
0
71
3
72
14
73
10
74
0
40
0.0000000000000000
40
0.0000000000000000
40
0.0000000000000000
40
0.0000000000000000
40
0.0407840752165335
40
0.2006533960137787
40
0.3605227168110227
40
0.5203920376082665
40
0.6802613584055093
40
0.8401306792027559
40
1.0000000000000000
40
1.0000000000000000
40
1.0000000000000000
40
1.0000000000000000
10
38.1015548641743749
20
5.4557086614173231
30
0.0000000000000146
10
38.1013418202114664
20
5.4450595370424919
30
0.0000000000000146
10
38.1002936661359044
20
5.3926669558931568
30
0.0000000000000148
10
38.0818089390333014
20
5.2990904005857358
30
0.0000000000000151
10
38.0280275526009035
20
5.1846938360636736
30
0.0000000000000155
10
37.9472350538687877
20
5.0870813809081543
30
0.0000000000000158
10
37.8448207761909927
20
5.0132173943388194
30
0.0000000000000160
10
37.7271249590012019
20
4.9648605252450331
30
0.0000000000000162
10
37.6434115624499839
20
4.9587592826932205
30
0.0000000000000162
10
37.6015548641743749
20
4.9557086614173134
30
0.0000000000000162
41
1.0000000000000000
41
1.0000000000000000
41
1.0000000000000000
41
1.0000000000000000
41
1.0000000000000000
41
1.0000000000000000
41
1.0000000000000000
41
1.0000000000000000
41
1.0000000000000000
41
1.0000000000000000
0
LINE
330
1
100
AcDbEntity
8
Cut
6
CONTINUOUS
62
5
370
0
100
AcDbLine
10
37.6015548641743749
20
4.9557086614173134
30
0.0000000000000162
11
30.8515548641744921
21
4.9557086614172823
31
0.0000000000000158
0
SPLINE
8
Cut
6
CONTINUOUS
62
5
370
0
100
AcDbEntity
100
AcDbSpline
70
1
71
3
72
16
73
12
74
0
40
0.0000000000000000
40
0.0000000000000000
40
0.0000000000000000
40
0.0000000000000000
40
0.1135047903499484
40
0.2270095806998996
40
0.3405143710498516
40
0.4540191613998014
40
0.5675239517497611
40
0.6810287420997134
40
0.7945335324496623
40
0.9080383227996129
40
0.9999999999999999
40
0.9999999999999999
40
0.9999999999999999
40
0.9999999999999999
10
37.6015548641743749
20
5.3932086614173125
30
0.0000000000000148
10
37.5867677301742091
20
5.3932688200729659
30
0.0000000000000148
10
37.5569921017721882
20
5.4042491056125552
30
0.0000000000000147
10
37.5342268075925958
20
5.4459890517748555
30
0.0000000000000146
10
37.5442824230453667
20
5.4924314964659784
30
0.0000000000000145
10
37.5823003130396955
20
5.5209621106455034
30
0.0000000000000144
10
37.6297168240540358
20
5.5176409078049842
30
0.0000000000000144
10
37.6633742709426116
20
5.4840970210301112
30
0.0000000000000145
10
37.6669154729597011
20
5.4366845583964407
30
0.0000000000000147
10
37.6401554349108736
20
5.4010147788545799
30
0.0000000000000148
10
37.6135354126556294
20
5.3931599208235905
30
0.0000000000000148
10
37.6015548641743749
20
5.3932086614173125
30
0.0000000000000148
41
1.0000000000000000
41
1.0000000000000000
41
1.0000000000000000
41
1.0000000000000000
41
1.0000000000000000
41
1.0000000000000000
41
1.0000000000000000
41
1.0000000000000000
41
1.0000000000000000
41
1.0000000000000000
41
1.0000000000000000
41
1.0000000000000000
0
SPLINE
8
Cut
6
CONTINUOUS
62
5
370
0
100
AcDbEntity
100
AcDbSpline
70
1
71
3
72
16
73
12
74
0
40
0.0000000000000000
40
0.0000000000000000
40
0.0000000000000000
40
0.0000000000000000
40
0.1135047903499506
40
0.2270095806999039
40
0.3405143710498577
40
0.4540191613998096
40
0.5675239517497603
40
0.6810287420997148
40
0.7945335324496657
40
0.9080383227996230
40
1.0000000000000000
40
1.0000000000000000
40
1.0000000000000000
40
1.0000000000000000
10
30.8515548641743997
20
5.3932086614173027
30
0.0000000000000144
10
30.8367677301742305
20
5.3932688200729553
30
0.0000000000000144
10
30.8069921017721988
20
5.4042491056125446
30
0.0000000000000144
10
30.7842268075926029
20
5.4459890517748439
30
0.0000000000000142
10
30.7942824230454057
20
5.4924314964659695
30
0.0000000000000141
10
30.8323003130397169
20
5.5209621106454945
30
0.0000000000000140
10
30.8797168240540572
20
5.5176409078049700
30
0.0000000000000140
10
30.9133742709426329
20
5.4840970210300997
30
0.0000000000000141
10
30.9169154729597118
20
5.4366845583964265
30
0.0000000000000143
10
30.8901554349108949
20
5.4010147788545719
30
0.0000000000000144
10
30.8635354126556578
20
5.3931599208235816
30
0.0000000000000144
10
30.8515548641743997
20
5.3932086614173027
30
0.0000000000000144
41
1.0000000000000000
41
1.0000000000000000
41
1.0000000000000000
41
1.0000000000000000
41
1.0000000000000000
41
1.0000000000000000
41
1.0000000000000000
41
1.0000000000000000
41
1.0000000000000000
41
1.0000000000000000
41
1.0000000000000000
41
1.0000000000000000
0
SPLINE
8
Cut
6
CONTINUOUS
62
5
370
0
100
AcDbEntity
100
AcDbSpline
70
1
71
3
72
16
73
12
74
0
40
0.0000000000000000
40
0.0000000000000000
40
0.0000000000000000
40
0.0000000000000000
40
0.1135047903499491
40
0.2270095806999020
40
0.3405143710498546
40
0.4540191613997977
40
0.5675239517497586
40
0.6810287420997105
40
0.7945335324496619
40
0.9080383227996127
40
1.0000000000000000
40
1.0000000000000000
40
1.0000000000000000
40
1.0000000000000000
10
37.6015548641742825
20
11.5644685037008603
30
-0.0000000000000052
10
37.5867677301741168
20
11.5645286623565138
30
-0.0000000000000052
10
37.5569921017720887
20
11.5755089478961004
30
-0.0000000000000052
10
37.5342268075924963
20
11.6172488940584007
30
-0.0000000000000053
10
37.5442824230452743
20
11.6636913387495245
30
-0.0000000000000055
10
37.5823003130396032
20
11.6922219529290512
30
-0.0000000000000056
10
37.6297168240539435
20
11.6889007500885267
30
-0.0000000000000056
10
37.6633742709425192
20
11.6553568633136617
30
-0.0000000000000054
10
37.6669154729596087
20
11.6079444006799868
30
-0.0000000000000053
10
37.6401554349107741
20
11.5722746211381260
30
-0.0000000000000052
10
37.6135354126555370
20
11.5644197631071375
30
-0.0000000000000052
10
37.6015548641742825
20
11.5644685037008603
30
-0.0000000000000052
41
1.0000000000000000
41
1.0000000000000000
41
1.0000000000000000
41
1.0000000000000000
41
1.0000000000000000
41
1.0000000000000000
41
1.0000000000000000
41
1.0000000000000000
41
1.0000000000000000
41
1.0000000000000000
41
1.0000000000000000
41
1.0000000000000000
0
SPLINE
8
Cut
6
CONTINUOUS
62
5
370
0
100
AcDbEntity
100
AcDbSpline
70
1
71
3
72
16
73
12
74
0
40
0.0000000000000000
40
0.0000000000000000
40
0.0000000000000000
40
0.0000000000000000
40
0.1135047903499491
40
0.2270095806999020
40
0.3405143710498546
40
0.4540191613997977
40
0.5675239517497586
40
0.6810287420997105
40
0.7945335324496619
40
0.9080383227996127
40
1.0000000000000000
40
1.0000000000000000
40
1.0000000000000000
40
1.0000000000000000
10
30.8515548641743145
20
11.5644685037008248
30
-0.0000000000000055
10
30.8367677301741452
20
11.5645286623564783
30
-0.0000000000000055
10
30.8069921017721171
20
11.5755089478960684
30
-0.0000000000000056
10
30.7842268075925247
20
11.6172488940583687
30
-0.0000000000000057
10
30.7942824230453134
20
11.6636913387494907
30
-0.0000000000000059
10
30.8323003130396351
20
11.6922219529290174
30
-0.0000000000000059
10
30.8797168240539790
20
11.6889007500884947
30
-0.0000000000000059
10
30.9133742709425476
20
11.6553568633136262
30
-0.0000000000000058
10
30.9169154729596478
20
11.6079444006799548
30
-0.0000000000000057
10
30.8901554349108025
20
11.5722746211380922
30
-0.0000000000000056
10
30.8635354126555654
20
11.5644197631071037
30
-0.0000000000000055
10
30.8515548641743145
20
11.5644685037008248
30
-0.0000000000000055
41
1.0000000000000000
41
1.0000000000000000
41
1.0000000000000000
41
1.0000000000000000
41
1.0000000000000000
41
1.0000000000000000
41
1.0000000000000000
41
1.0000000000000000
41
1.0000000000000000
41
1.0000000000000000
41
1.0000000000000000
41
1.0000000000000000
0
MTEXT
330
1 F
100
AcDbEntity
8
PartID
6
CONTINUOUS
62
30
370
0
100
AcDbMText
10
34.2265548641743322
20
8.5405195856832634
30
0.0000000000000000
40
0.7874015748031497
41
0.0
71
5
72
1
1
Drogue Bridle Container
0
MTEXT
330
1 F
100
AcDbEntity
8
PartIndex
6
CONTINUOUS
62
30
370
0
100
AcDbMText
10
34.2265548641743322
20
9.3672912392265708
30
0.0000000000000000
40
0.7874015748031497
41
0.0
71
5
72
1
1
40-1
0
LINE
330
1
100
AcDbEntity
8
Cut
6
CONTINUOUS
62
5
370
0
100
AcDbLine
10
39.5586466950086120
20
20.6495027644510643
30
-0.0000000000000112
11
34.3277406256292821
21
20.0072282595979729
31
-0.0000000000000283
0
LINE
330
1
100
AcDbEntity
8
Cut
6
CONTINUOUS
62
5
370
0
100
AcDbLine
10
34.3277406256292821
20
20.0072282595979729
30
-0.0000000000000283
11
33.1366357240415681
21
29.7079992101866566
31
-0.0000000000000283
0
LINE
330
1
100
AcDbEntity
8
Cut
6
CONTINUOUS
62
5
370
0
100
AcDbLine
10
33.1366357240415681
20
29.7079992101866566
30
-0.0000000000000283
11
39.5158800170943749
21
28.4967217066858467
31
-0.0000000000000083
0
LINE
330
1
100
AcDbEntity
8
Cut
6
CONTINUOUS
62
5
370
0
100
AcDbLine
10
39.5158800170943749
20
28.4967217066858503
30
-0.0000000000000083
11
39.5586466950086120
21
20.6495027644510607
31
-0.0000000000000112
0
SPLINE
8
Cut
6
CONTINUOUS
62
5
370
0
100
AcDbEntity
100
AcDbSpline
70
1
71
3
72
16
73
12
74
0
40
0.0000000000000000
40
0.0000000000000000
40
0.0000000000000000
40
0.0000000000000000
40
0.1135047903499527
40
0.2270095806999041
40
0.3405143710498561
40
0.4540191613998084
40
0.5675239517497612
40
0.6810287420997132
40
0.7945335324496652
40
0.9080383227996180
40
0.9999999999999999
40
0.9999999999999999
40
0.9999999999999999
40
0.9999999999999999
10
39.3358262138775103
20
27.0518801699388725
30
-0.0000000000000094
10
39.3375686019467992
20
27.0371959254973362
30
-0.0000000000000094
10
39.3302988980733872
20
27.0063040799250906
30
-0.0000000000000095
10
39.2916444665943700
20
26.9786216549635860
30
-0.0000000000000095
10
39.2443227255906137
20
26.9829424071430033
30
-0.0000000000000097
10
39.2113715589915088
20
27.0171999103333818
30
-0.0000000000000098
10
39.2088893870258062
20
27.0646677386744159
30
-0.0000000000000097
10
39.2380814318022928
20
27.1021622795142498
30
-0.0000000000000098
10
39.2847089251644945
20
27.1114552116388907
30
-0.0000000000000095
10
39.3233740558451714
20
27.0892416914679082
30
-0.0000000000000096
10
39.3344145295891963
20
27.0637773572126470
30
-0.0000000000000094
10
39.3358262138775103
20
27.0518801699388725
30
-0.0000000000000094
41
1.0000000000000000
41
1.0000000000000000
41
1.0000000000000000
41
1.0000000000000000
41
1.0000000000000000
41
1.0000000000000000
41
1.0000000000000000
41
1.0000000000000000
41
1.0000000000000000
41
1.0000000000000000
41
1.0000000000000000
41
1.0000000000000000
0
SPLINE
8
Cut
6
CONTINUOUS
62
5
370
0
100
AcDbEntity
100
AcDbSpline
70
1
71
3
72
16
73
12
74
0
40
0.0000000000000000
40
0.0000000000000000
40
0.0000000000000000
40
0.0000000000000000
40
0.1135047903499527
40
0.2270095806999041
40
0.3405143710498562
40
0.4540191613998085
40
0.5675239517497600
40
0.6810287420997128
40
0.7945335324496648
40
0.9080383227996167
40
1.0000000000000000
40
1.0000000000000000
40
1.0000000000000000
40
1.0000000000000000
10
39.3626695473677444
20
22.1264212540088003
30
-0.0000000000000113
10
39.3644119354370332
20
22.1117370095672641
30
-0.0000000000000113
10
39.3571422315636212
20
22.0808451639950185
30
-0.0000000000000113
10
39.3184878000846041
20
22.0531627390335139
30
-0.0000000000000114
10
39.2711660590808478
20
22.0574834912129312
30
-0.0000000000000115
10
39.2382148924817429
20
22.0917409944033096
30
-0.0000000000000115
10
39.2357327205160473
20
22.1392088227443438
30
-0.0000000000000118
10
39.2649247652925268
20
22.1767033635841813
30
-0.0000000000000114
10
39.3115522586547286
20
22.1859962957088150
30
-0.0000000000000115
10
39.3502173893354055
20
22.1637827755378396
30
-0.0000000000000111
10
39.3612578630794232
20
22.1383184412825749
30
-0.0000000000000113
10
39.3626695473677444
20
22.1264212540088003
30
-0.0000000000000113
41
1.0000000000000000
41
1.0000000000000000
41
1.0000000000000000
41
1.0000000000000000
41
1.0000000000000000
41
1.0000000000000000
41
1.0000000000000000
41
1.0000000000000000
41
1.0000000000000000
41
1.0000000000000000
41
1.0000000000000000
41
1.0000000000000000
0
MTEXT
330
1 F
100
AcDbEntity
8
PartID
6
CONTINUOUS
62
30
370
0
100
AcDbMText
10
36.3476412095250865
20
24.8576137348923147
30
0.0000000000000000
40
0.7874015748031497
41
0.0
71
5
72
1
1
Side Parachute Container Support
0
MTEXT
330
1 F
100
AcDbEntity
8
PartIndex
6
CONTINUOUS
62
30
370
0
100
AcDbMText
10
36.3476412095250865
20
25.6843853884356221
30
0.0000000000000000
40
0.7874015748031497
41
0.0
71
5
72
1
1
07-1
0
LINE
330
1
100
AcDbEntity
8
Cut
6
CONTINUOUS
62
5
370
0
100
AcDbLine
10
13.5377119807631701
20
28.8180873500332630
30
0.0000000000000011
11
13.5253995452888542
21
22.6251862036978117
31
0.0000000000000011
0
LINE
330
1
100
AcDbEntity
8
Cut
6
CONTINUOUS
62
5
370
0
100
AcDbLine
10
13.5253995452888542
20
22.6251862036973144
30
0.0000000000000011
11
11.3088684929125076
21
22.6295930067309428
31
0.0000000000000011
0
LINE
330
1
100
AcDbEntity
8
Cut
6
CONTINUOUS
62
5
370
0
100
AcDbLine
10
11.3088684929129464
20
22.6295930067309392
30
0.0000000000000011
11
11.3211809283872658
21
28.8224941530687495
31
0.0000000000000011
0
LINE
330
1
100
AcDbEntity
8
Cut
6
CONTINUOUS
62
5
370
0
100
AcDbLine
10
11.3211809283872622
20
28.8224941530668843
30
0.0000000000000011
11
13.5377119807631701
21
28.8180873500332630
31
0.0000000000000011
0
CIRCLE
8
Cut
6
CONTINUOUS
62
5
370
0
100
AcDbEntity
100
AcDbCircle
10
12.1779467304286939
20
28.0707874809641353
30
0.0000000000000033
40
0.1249981920792816
0
CIRCLE
8
Cut
6
CONTINUOUS
62
5
370
0
100
AcDbEntity
100
AcDbCircle
10
12.1683680000334888
20
23.2528836171188900
30
0.0000000000000000
40
0.1249981920792816
0
MTEXT
330
1 F
100
AcDbEntity
8
PartID
6
CONTINUOUS
62
30
370
0
100
AcDbMText
10
12.4232902368378380
20
25.7238401783832806
30
0.0000000000000000
40
0.7874015748031497
41
0.0
71
5
72
1
1
Seat Pan Support B
0
MTEXT
330
1 F
100
AcDbEntity
8
PartIndex
6
CONTINUOUS
62
30
370
0
100
AcDbMText
10
12.4232902368378380
20
26.5506118319265880
30
0.0000000000000000
40
0.7874015748031497
41
0.0
71
5
72
1
1
09-1
0
LINE
330
1
100
AcDbEntity
8
Cut
6
CONTINUOUS
62
5
370
0
100
AcDbLine
10
16.1292724108645018
20
28.8280841586227794
30
0.0000000000000011
11
16.1169599753901842
21
22.6351830122873281
31
0.0000000000000011
0
LINE
330
1
100
AcDbEntity
8
Cut
6
CONTINUOUS
62
5
370
0
100
AcDbLine
10
16.1169599753901842
20
22.6351830122868307
30
0.0000000000000011
11
13.9004289230138358
21
22.6395898153204591
31
0.0000000000000011
0
LINE
330
1
100
AcDbEntity
8
Cut
6
CONTINUOUS
62
5
370
0
100
AcDbLine
10
13.9004289230142764
20
22.6395898153204556
30
0.0000000000000011
11
13.9127413584885957
21
28.8324909616582659
31
0.0000000000000011
0
LINE
330
1
100
AcDbEntity
8
Cut
6
CONTINUOUS
62
5
370
0
100
AcDbLine
10
13.9127413584885939
20
28.8324909616564007
30
0.0000000000000011
11
16.1292724108645018
21
28.8280841586227794
31
0.0000000000000011
0
CIRCLE
8
Cut
6
CONTINUOUS
62
5
370
0
100
AcDbEntity
100
AcDbCircle
10
14.7695071605300239
20
28.0807842895536481
30
0.0000000000000033
40
0.1249981920792816
0
CIRCLE
8
Cut
6
CONTINUOUS
62
5
370
0
100
AcDbEntity
100
AcDbCircle
10
14.7599284301348188
20
23.2628804257084063
30
0.0000000000000000
40
0.1249981920792816
0
MTEXT
330
1 F
100
AcDbEntity
8
PartID
6
CONTINUOUS
62
30
370
0
100
AcDbMText
10
15.0148506669391697
20
25.7338369869727970
30
0.0000000000000000
40
0.7874015748031497
41
0.0
71
5
72
1
1
Seat Pan Support B
0
MTEXT
330
1 F
100
AcDbEntity
8
PartIndex
6
CONTINUOUS
62
30
370
0
100
AcDbMText
10
15.0148506669391697
20
26.5606086405161044
30
0.0000000000000000
40
0.7874015748031497
41
0.0
71
5
72
1
1
09-2
0
SPLINE
8
Cut
6
CONTINUOUS
62
5
370
0
100
AcDbEntity
100
AcDbSpline
70
0
71
3
72
10
73
6
74
0
40
0.0000000000000000
40
0.0000000000000000
40
0.0000000000000000
40
0.0000000000000000
40
0.0930447129916373
40
0.5465223564958195
40
1.0000000000000000
40
1.0000000000000000
40
1.0000000000000000
40
1.0000000000000000
10
20.6576882573639544
20
21.7539545039740183
30
0.0000000000000102
10
20.6547698019322112
20
21.7533615889407415
30
0.0000000000000100
10
20.6376274938031479
20
21.7498789480601324
30
0.0000000000000105
10
20.6018172723375805
20
21.7586565675414505
30
0.0000000000000099
10
20.5885555281103443
20
21.7858707681080084
30
0.0000000000000100
10
20.5819246559967226
20
21.7994778683912855
30
0.0000000000000100
41
1.0000000000000000
41
1.0000000000000000
41
1.0000000000000000
41
1.0000000000000000
41
1.0000000000000000
41
1.0000000000000000
0
LINE
330
1
100
AcDbEntity
8
Cut
6
CONTINUOUS
62
5
370
0
100
AcDbLine
10
20.5819246559966977
20
21.7994778683912820
30
0.0000000000000100
11
19.7956784952977607
21
24.9529389787882678
31
0.0000000000000000
0
SPLINE
8
Cut
6
CONTINUOUS
62
5
370
0
100
AcDbEntity
100
AcDbSpline
70
0
71
3
72
10
73
6
74
0
40
0.0000000000000000
40
0.0000000000000000
40
0.0000000000000000
40
0.0000000000000000
40
0.0930447129916359
40
0.5465223564958142
40
1.0000000000000000
40
1.0000000000000000
40
1.0000000000000000
40
1.0000000000000000
10
19.7956784952977678
20
24.9529389787882607
30
0.0000000000000000
10
19.7950855802644909
20
24.9558574342200039
30
0.0000000000000001
10
19.7916029393838855
20
24.9729997423490673
30
0.0000000000000000
10
19.8003805588652071
20
25.0088099638146346
30
-0.0000000000000001
10
19.8275947594317614
20
25.0220717080418709
30
-0.0000000000000002
10
19.8412018597150386
20
25.0287025801554890
30
-0.0000000000000001
41
1.0000000000000000
41
1.0000000000000000
41
1.0000000000000000
41
1.0000000000000000
41
1.0000000000000000
41
1.0000000000000000
0
LINE
330
1
100
AcDbEntity
8
Cut
6
CONTINUOUS
62
5
370
0
100
AcDbLine
10
19.8412018597150386
20
25.0287025801554890
30
-0.0000000000000001
11
22.9946629701121736
21
25.8149487408544687
31
-0.0000000000000003
0
SPLINE
8
Cut
6
CONTINUOUS
62
5
370
0
100
AcDbEntity
100
AcDbSpline
70
0
71
3
72
10
73
6
74
0
40
0.0000000000000000
40
0.0000000000000000
40
0.0000000000000000
40
0.0000000000000000
40
0.0930447129916356
40
0.5465223564958188
40
0.9999999999999999
40
0.9999999999999999
40
0.9999999999999999
40
0.9999999999999999
10
22.9946629701120493
20
25.8149487408544367
30
-0.0000000000000003
10
22.9975814255437925
20
25.8155416558877135
30
-0.0000000000000004
10
23.0147237336728594
20
25.8190242967683119
30
-0.0000000000000003
10
23.0505339551384232
20
25.8102466772870045
30
-0.0000000000000005
10
23.0637956993656630
20
25.7830324767204431
30
-0.0000000000000003
10
23.0704265714792811
20
25.7694253764371624
30
-0.0000000000000002
41
1.0000000000000000
41
1.0000000000000000
41
1.0000000000000000
41
1.0000000000000000
41
1.0000000000000000
41
1.0000000000000000
0
LINE
330
1
100
AcDbEntity
8
Cut
6
CONTINUOUS
62
5
370
0
100
AcDbLine
10
23.0704265714792705
20
25.7694253764371624
30
-0.0000000000000002
11
23.8566727321782004
21
22.6159642660401801
31
0.0000000000000098
0
SPLINE
8
Cut
6
CONTINUOUS
62
5
370
0
100
AcDbEntity
100
AcDbSpline
70
0
71
3
72
10
73
6
74
0
40
0.0000000000000000
40
0.0000000000000000
40
0.0000000000000000
40
0.0000000000000000
40
0.0930447129916259
40
0.5465223564958168
40
1.0000000000000000
40
1.0000000000000000
40
1.0000000000000000
40
1.0000000000000000
10
23.8566727321782075
20
22.6159642660401765
30
0.0000000000000098
10
23.8572656472114843
20
22.6130458106084369
30
0.0000000000000098
10
23.8607482880920863
20
22.5959035024793735
30
0.0000000000000099
10
23.8519706686107682
20
22.5600932810138026
30
0.0000000000000102
10
23.8247564680442139
20
22.5468315367865664
30
0.0000000000000100
10
23.8111493677609332
20
22.5402006646729518
30
0.0000000000000100
41
1.0000000000000000
41
1.0000000000000000
41
1.0000000000000000
41
1.0000000000000000
41
1.0000000000000000
41
1.0000000000000000
0
LINE
330
1
100
AcDbEntity
8
Cut
6
CONTINUOUS
62
5
370
0
100
AcDbLine
10
23.8111493677609332
20
22.5402006646729447
30
0.0000000000000100
11
20.6576882573638336
21
21.7539545039739828
31
0.0000000000000102
0
CIRCLE
8
Cut
6
CONTINUOUS
62
5
370
0
100
AcDbEntity
100
AcDbCircle
10
22.6448589839647347
20
23.9885712657986367
30
0.0000000000000048
40
0.4999989848198096
0
CIRCLE
8
Cut
6
CONTINUOUS
62
5
370
0
100
AcDbEntity
100
AcDbCircle
10
21.0074849458739550
20
23.5803280669741788
30
0.0000000000000050
40
0.4999989848198043
0
MTEXT
330
1 F
100
AcDbEntity
8
PartID
6
CONTINUOUS
62
30
370
0
100
AcDbMText
10
21.8261756137379841
20
23.7836446801227801
30
0.0000000000000000
40
0.7874015748031497
41
0.0
71
5
72
1
1
Seat Pan Access Panel Plug
0
MTEXT
330
1 F
100
AcDbEntity
8
PartIndex
6
CONTINUOUS
62
30
370
0
100
AcDbMText
10
21.8261756137379841
20
24.6104163336660875
30
0.0000000000000000
40
0.7874015748031497
41
0.0
71
5
72
1
1
17-1
0
LINE
330
1
100
AcDbEntity
8
Cut
6
CONTINUOUS
62
5
370
0
100
AcDbLine
10
39.5388828937434482
20
15.8961059095913981
30
0.0000000000000570
11
37.3496366899832566
21
15.5493633748762203
31
0.0000000000000043
0
LINE
330
1
100
AcDbEntity
8
Cut
6
CONTINUOUS
62
5
370
0
100
AcDbLine
10
37.3496366899832566
20
15.5493633748762257
30
0.0000000000000043
11
36.6721645972893739
21
19.8267538262722987
31
0.0000000000000007
0
LINE
330
1
100
AcDbEntity
8
Cut
6
CONTINUOUS
62
5
370
0
100
AcDbLine
10
36.6721645972893739
20
19.8267538262722596
30
0.0000000000000007
11
38.8614108010501411
21
20.1734963609875280
31
0.0000000000000533
0
LINE
330
1
100
AcDbEntity
8
Cut
6
CONTINUOUS
62
5
370
0
100
AcDbLine
10
38.8614108010495656
20
20.1734963609874356
30
0.0000000000000533
11
39.5388828937434482
21
15.8961059095913928
31
0.0000000000000570
0
SPLINE
8
Cut
6
CONTINUOUS
62
5
370
0
100
AcDbEntity
100
AcDbSpline
70
1
71
3
72
16
73
12
74
0
40
0.0000000000000000
40
0.0000000000000000
40
0.0000000000000000
40
0.0000000000000000
40
0.1135047903499529
40
0.2270095806999030
40
0.3405143710498524
40
0.4540191613998033
40
0.5675239517497565
40
0.6810287420997059
40
0.7945335324496572
40
0.9080383227996096
40
1.0000000000000000
40
1.0000000000000000
40
1.0000000000000000
40
1.0000000000000000
10
37.8352277776245742
20
19.5680114446196036
30
0.0000000000000275
10
37.8206132868946767
20
19.5657576452255881
30
0.0000000000000272
10
37.7894865507937254
20
19.5719448107291321
30
0.0000000000000264
10
37.7604719690136150
20
19.6096095922742357
30
0.0000000000000257
10
37.7631385841634213
20
19.6570532982284050
30
0.0000000000000260
10
37.7962252394783960
20
19.6911799614867569
30
0.0000000000000268
10
37.8435775251486106
20
19.6953172246990214
30
0.0000000000000279
10
37.8820680129976566
20
19.6674515035318791
30
0.0000000000000290
10
37.8929825601699690
20
19.6211767330328399
30
0.0000000000000288
10
37.8721319654759867
20
19.5817599154311175
30
0.0000000000000284
10
37.8470684503821460
20
19.5698374747960244
30
0.0000000000000277
10
37.8352277776245742
20
19.5680114446196036
30
0.0000000000000275
41
1.0000000000000000
41
1.0000000000000000
41
1.0000000000000000
41
1.0000000000000000
41
1.0000000000000000
41
1.0000000000000000
41
1.0000000000000000
41
1.0000000000000000
41
1.0000000000000000
41
1.0000000000000000
41
1.0000000000000000
41
1.0000000000000000
0
SPLINE
8
Cut
6
CONTINUOUS
62
5
370
0
100
AcDbEntity
100
AcDbSpline
70
1
71
3
72
16
73
12
74
0
40
0.0000000000000000
40
0.0000000000000000
40
0.0000000000000000
40
0.0000000000000000
40
0.1135047903499541
40
0.2270095806999053
40
0.3405143710498571
40
0.4540191613998082
40
0.5675239517497620
40
0.6810287420997153
40
0.7945335324496653
40
0.9080383227996172
40
1.0000000000000000
40
1.0000000000000000
40
1.0000000000000000
40
1.0000000000000000
10
38.4149283296683350
20
15.9079262060953948
30
0.0000000000000306
10
38.4003138389384375
20
15.9056724067013722
30
0.0000000000000303
10
38.3691871028374862
20
15.9118595722049214
30
0.0000000000000294
10
38.3401725210573758
20
15.9495243537500233
30
0.0000000000000288
10
38.3428391362071892
20
15.9969680597041908
30
0.0000000000000291
10
38.3759257915221639
20
16.0310947229625427
30
0.0000000000000300
10
38.4232780771923714
20
16.0352319861748072
30
0.0000000000000310
10
38.4617685650414174
20
16.0073662650076614
30
0.0000000000000319
10
38.4726831122137298
20
15.9610914945086293
30
0.0000000000000319
10
38.4518325175197404
20
15.9216746769069015
30
0.0000000000000312
10
38.4267690024259068
20
15.9097522362718120
30
0.0000000000000307
10
38.4149283296683350
20
15.9079262060953948
30
0.0000000000000306
41
1.0000000000000000
41
1.0000000000000000
41
1.0000000000000000
41
1.0000000000000000
41
1.0000000000000000
41
1.0000000000000000
41
1.0000000000000000
41
1.0000000000000000
41
1.0000000000000000
41
1.0000000000000000
41
1.0000000000000000
41
1.0000000000000000
0
MTEXT
330
1 F
100
AcDbEntity
8
PartID
6
CONTINUOUS
62
30
370
0
100
AcDbMText
10
38.1055237455164075
20
17.8614298679318750
30
0.0000000000000000
40
0.7874015748031497
41
0.0
71
5
72
1
1
Seat Pan Front E
0
MTEXT
330
1 F
100
AcDbEntity
8
PartIndex
6
CONTINUOUS
62
30
370
0
100
AcDbMText
10
38.1055237455164075
20
18.6882015214751824
30
0.0000000000000000
40
0.7874015748031497
41
0.0
71
5
72
1
1
10-1
0
LINE
330
1
100
AcDbEntity
8
Cut
6
CONTINUOUS
62
5
370
0
100
AcDbLine
10
38.3810824232295715
20
0.2500000000000031
30
-0.0000000000000080
11
37.0444682500012377
21
0.2500000000000107
31
-0.0000000000000099
0
LINE
330
1
100
AcDbEntity
8
Cut
6
CONTINUOUS
62
5
370
0
100
AcDbLine
10
37.0444682500012377
20
0.2500000000000107
30
-0.0000000000000099
11
37.0444682500012519
21
4.0807086614173471
31
-0.0000000000000126
0
LINE
330
1
100
AcDbEntity
8
Cut
6
CONTINUOUS
62
5
370
0
100
AcDbLine
10
37.0444682500012519
20
4.0807086614173471
30
-0.0000000000000126
11
38.3810824232295786
21
4.0807086614173427
31
-0.0000000000000107
0
LINE
330
1
100
AcDbEntity
8
Cut
6
CONTINUOUS
62
5
370
0
100
AcDbLine
10
38.3810824232295786
20
4.0807086614173427
30
-0.0000000000000107
11
38.3810824232295715
21
0.2499999999999572
31
-0.0000000000000080
0
SPLINE
8
Cut
6
CONTINUOUS
62
5
370
0
100
AcDbEntity
100
AcDbSpline
70
1
71
3
72
16
73
12
74
0
40
0.0000000000000000
40
0.0000000000000000
40
0.0000000000000000
40
0.0000000000000000
40
0.1135047903499492
40
0.2270095806999032
40
0.3405143710498506
40
0.4540191613998016
40
0.5675239517497538
40
0.6810287420997035
40
0.7945335324496535
40
0.9080383227996019
40
1.0000000000000000
40
1.0000000000000000
40
1.0000000000000000
40
1.0000000000000000
10
37.7127753366154153
20
3.6432086614173564
30
-0.0000000000000114
10
37.6979882026152495
20
3.6432688200730099
30
-0.0000000000000114
10
37.6682125742132285
20
3.6542491056125974
30
-0.0000000000000114
10
37.6454472800336291
20
3.6959890517748937
30
-0.0000000000000115
10
37.6555028954864213
20
3.7424314964660281
30
-0.0000000000000115
10
37.6935207854807359
20
3.7709621106455438
30
-0.0000000000000115
10
37.7409372964950762
20
3.7676409078050299
30
-0.0000000000000114
10
37.7745947433836591
20
3.7340970210301623
30
-0.0000000000000113
10
37.7781359454007486
20
3.6866845583964833
30
-0.0000000000000113
10
37.7513759073519140
20
3.6510147788546252
30
-0.0000000000000113
10
37.7247558850966769
20
3.6431599208236345
30
-0.0000000000000114
10
37.7127753366154153
20
3.6432086614173564
30
-0.0000000000000114
41
1.0000000000000000
41
1.0000000000000000
41
1.0000000000000000
41
1.0000000000000000
41
1.0000000000000000
41
1.0000000000000000
41
1.0000000000000000
41
1.0000000000000000
41
1.0000000000000000
41
1.0000000000000000
41
1.0000000000000000
41
1.0000000000000000
0
SPLINE
8
Cut
6
CONTINUOUS
62
5
370
0
100
AcDbEntity
100
AcDbSpline
70
1
71
3
72
16
73
12
74
0
40
0.0000000000000000
40
0.0000000000000000
40
0.0000000000000000
40
0.0000000000000000
40
0.1135047903499523
40
0.2270095806999023
40
0.3405143710498519
40
0.4540191613998051
40
0.5675239517497579
40
0.6810287420997069
40
0.7945335324496582
40
0.9080383227996103
40
1.0000000000000000
40
1.0000000000000000
40
1.0000000000000000
40
1.0000000000000000
10
37.7127753366154010
20
0.4375000000000174
30
-0.0000000000000091
10
37.6979882026152353
20
0.4375601586556707
30
-0.0000000000000091
10
37.6682125742132072
20
0.4485404441952592
30
-0.0000000000000091
10
37.6454472800336148
20
0.4902803903575610
30
-0.0000000000000092
10
37.6555028954864000
20
0.5367228350486800
30
-0.0000000000000092
10
37.6935207854807217
20
0.5652534492282157
30
-0.0000000000000092
10
37.7409372964950620
20
0.5619322463876842
30
-0.0000000000000091
10
37.7745947433836378
20
0.5283883596128187
30
-0.0000000000000090
10
37.7781359454007344
20
0.4809758969791442
30
-0.0000000000000090
10
37.7513759073518926
20
0.4453061174372881
30
-0.0000000000000090
10
37.7247558850966556
20
0.4374512594062954
30
-0.0000000000000090
10
37.7127753366154010
20
0.4375000000000174
30
-0.0000000000000091
41
1.0000000000000000
41
1.0000000000000000
41
1.0000000000000000
41
1.0000000000000000
41
1.0000000000000000
41
1.0000000000000000
41
1.0000000000000000
41
1.0000000000000000
41
1.0000000000000000
41
1.0000000000000000
41
1.0000000000000000
41
1.0000000000000000
0
MTEXT
330
1 F
100
AcDbEntity
8
PartID
6
CONTINUOUS
62
30
370
0
100
AcDbMText
10
37.7127753366154010
20
2.1653543307086789
30
0.0000000000000000
40
0.7874015748031497
41
0.0
71
5
72
1
1
Seat Pan Front D
0
MTEXT
330
1 F
100
AcDbEntity
8
PartIndex
6
CONTINUOUS
62
30
370
0
100
AcDbMText
10
37.7127753366154010
20
2.9921259842519863
30
0.0000000000000000
40
0.7874015748031497
41
0.0
71
5
72
1
1
11-1
0
ENDSEC
0
EOF
