0
SECTION
2
HEADER
9
$INSUNITS
70
1
9
$ACADVER
1
AC1014
9
$HANDSEED
5
FFFF
0
ENDSEC
0
SECTION
2
TABLES
0
TABLE
2
VPORT
5
8
100
AcDbSymbolTable
0
ENDTAB
0
TABLE
2
LTYPE
5
5
100
AcDbSymbolTable
0
LTYPE
5
14
100
AcDbSymbolTableRecord
100
AcDbLinetypeTableRecord
2
BYBLOCK
70
0
0
LTYPE
5
15
100
AcDbSymbolTableRecord
100
AcDbLinetypeTableRecord
2
BYLAYER
70
0
0
ENDTAB
0
TABLE
2
LAYER
5
2
100
AcDbSymbolTable
70
2
0
LAYER
5
50
100
AcDbSymbolTableRecord
100
AcDbLayerTableRecord
2
0
70
0
6
CONTINUOUS
0
ENDTAB
0
TABLE
2
STYLE
5
3
100
AcDbSymbolTable
70
1
0
STYLE
5
11
100
AcDbSymbolTableRecord
100
AcDbTextStyleTableRecord
2
STANDARD
70
0
0
ENDTAB
0
TABLE
2
VIEW
5
6
100
AcDbSymbolTable
70
0
0
ENDTAB
0
TABLE
2
UCS
5
7
100
AcDbSymbolTable
70
0
0
ENDTAB
0
TABLE
2
APPID
5
9
100
AcDbSymbolTable
70
2
0
APPID
5
12
100
AcDbSymbolTableRecord
100
AcDbRegAppTableRecord
2
ACAD
70
0
0
ENDTAB
0
TABLE
2
DIMSTYLE
5
A
100
AcDbSymbolTable
70
1
0
ENDTAB
0
TABLE
2
BLOCK_RECORD
5
1
100
AcDbSymbolTable
70
1
0
BLOCK_RECORD
5
1F
100
AcDbSymbolTableRecord
100
AcDbBlockTableRecord
2
*MODEL_SPACE
0
BLOCK_RECORD
5
1B
100
AcDbSymbolTableRecord
100
AcDbBlockTableRecord
2
*PAPER_SPACE
0
ENDTAB
0
ENDSEC
0
SECTION
2
BLOCKS
0
BLOCK
5
20
100
AcDbEntity
100
AcDbBlockBegin
2
*MODEL_SPACE
0
ENDBLK
5
21
100
AcDbEntity
100
AcDbBlockEnd
0
BLOCK
5
1C
100
AcDbEntity
100
AcDbBlockBegin
2
*PAPER_SPACE
0
ENDBLK
5
1D
100
AcDbEntity
100
AcDbBlockEnd
0
ENDSEC
0
SECTION
2
ENTITIES
0
LWPOLYLINE
5
100
100
AcDbEntity
8
0
100
AcDbPolyline
90
4
70
1
43
0.0
10
-8.5551181099999685
20
0.16118703090356795
10
8.555118110000052
20
0.1611870309037727
10
8.5551181100000466
20
-21.838812969095859
10
-8.5551181099999543
20
-21.838812969095834
0
CIRCLE
5
101
100
AcDbEntity
8
0
100
AcDbCircle
10
-6.8897637792911786
20
-5.1980155127884426
30
0
40
0.06249999999999889
210
3.8518598887744717e-34
220
4.1620702026757358e-35
230
1
0
CIRCLE
5
102
100
AcDbEntity
8
0
100
AcDbCircle
10
-6.8897637792911368
20
-10.557218056480831
30
-6.9935308637805131e-16
40
0.06249999999999889
210
3.8518598887744717e-34
220
4.1620702026757358e-35
230
1
0
CIRCLE
5
103
100
AcDbEntity
8
0
100
AcDbCircle
10
-6.8897637792911741
20
-15.916420600173087
30
6.9935308637805131e-16
40
0.06249999999999889
210
3.8518598887744717e-34
220
4.1620702026757358e-35
230
1
0
CIRCLE
5
104
100
AcDbEntity
8
0
100
AcDbCircle
10
-3.2106299211418037
20
-1.5094832731265058
30
0
40
0.062499999999999174
210
6.6444583081359651e-33
220
4.1620702026757882e-35
230
1
0
CIRCLE
5
105
100
AcDbEntity
8
0
100
AcDbCircle
10
-3.2106299211418059
20
-6.5214941852178763
30
3.4967654318902565e-16
40
0.062499999999999174
210
6.6444583081359651e-33
220
4.1620702026757882e-35
230
1
0
CIRCLE
5
106
100
AcDbEntity
8
0
100
AcDbCircle
10
-2.4606299211417899
20
-6.1038266092103415
30
0
40
0.062499999999999174
210
6.6444583081359651e-33
220
4.1620702026757882e-35
230
1
0
CIRCLE
5
107
100
AcDbEntity
8
0
100
AcDbCircle
10
-2.4606299211417872
20
-1.9271508491341809
30
0
40
0.062499999999999174
210
6.6444583081359651e-33
220
4.1620702026757882e-35
230
1
0
CIRCLE
5
108
100
AcDbEntity
8
0
100
AcDbCircle
10
2.4606299211418579
20
-1.92715084913419
30
-3.4967654318902565e-16
40
0.062499999999999174
210
6.6444583081359651e-33
220
4.1620702026757882e-35
230
1
0
CIRCLE
5
109
100
AcDbEntity
8
0
100
AcDbCircle
10
2.4606299211418556
20
-6.1038266092102642
30
0
40
0.062499999999999174
210
6.6444583081359651e-33
220
4.1620702026757882e-35
230
1
0
CIRCLE
5
110
100
AcDbEntity
8
0
100
AcDbCircle
10
3.2106299211418436
20
-6.5214941852178185
30
-3.4967654318902565e-16
40
0.062499999999999174
210
6.6444583081359651e-33
220
4.1620702026757882e-35
230
1
0
CIRCLE
5
111
100
AcDbEntity
8
0
100
AcDbCircle
10
3.2106299211418583
20
-1.5094832731265881
30
0
40
0.062499999999999174
210
6.6444583081359651e-33
220
4.1620702026757882e-35
230
1
0
CIRCLE
5
112
100
AcDbEntity
8
0
100
AcDbCircle
10
6.8897637792911279
20
-15.916420600173092
30
1.3987061727561026e-15
40
0.06249999999999889
210
3.8518598887744717e-34
220
4.1620702026757358e-35
230
1
0
CIRCLE
5
113
100
AcDbEntity
8
0
100
AcDbCircle
10
6.8897637792911786
20
-10.557218056480847
30
6.9935308637805131e-16
40
0.06249999999999889
210
3.8518598887744717e-34
220
4.1620702026757358e-35
230
1
0
CIRCLE
5
114
100
AcDbEntity
8
0
100
AcDbCircle
10
6.8897637792911448
20
-5.1980155127884586
30
6.9935308637805131e-16
40
0.06249999999999889
210
3.8518598887744717e-34
220
4.1620702026757358e-35
230
1
0
CIRCLE
5
115
100
AcDbEntity
8
0
100
AcDbCircle
10
3.257381889645639
20
-8.5671644892480163
30
-6.9935308637805131e-16
40
0.062499999999999174
210
6.6444583081359651e-33
220
4.1620702026757882e-35
230
1
0
CIRCLE
5
116
100
AcDbEntity
8
0
100
AcDbCircle
10
1.3550253861480703e-13
20
-8.5671644892480163
30
0
40
0.062499999999999244
210
6.5481618109166019e-33
220
4.1620702026757876e-35
230
1
0
CIRCLE
5
117
100
AcDbEntity
8
0
100
AcDbCircle
10
-3.2573818896454054
20
-8.5671644892480785
30
-3.4967654318902565e-16
40
0.062499999999999174
210
6.6444583081359651e-33
220
4.1620702026757882e-35
230
1
0
CIRCLE
5
118
100
AcDbEntity
8
0
100
AcDbCircle
10
-1.7319451977391036e-13
20
-17.372158579881926
30
6.9935308637805131e-16
40
0.062499999999999244
210
6.5481618109166019e-33
220
4.1620702026757876e-35
230
1
0
CIRCLE
5
119
100
AcDbEntity
8
0
100
AcDbCircle
10
3.2573818896456612
20
-17.372158579881919
30
0
40
0.062499999999999174
210
6.6444583081359651e-33
220
4.1620702026757882e-35
230
1
0
CIRCLE
5
120
100
AcDbEntity
8
0
100
AcDbCircle
10
-3.257381889645389
20
-17.372158579881873
30
-1.3987061727561026e-15
40
0.062499999999999174
210
6.6444583081359651e-33
220
4.1620702026757882e-35
230
1
0
CIRCLE
5
121
100
AcDbEntity
8
0
100
AcDbCircle
10
-8.1801181099993396
20
-20.19243544668609
30
0
40
0.06249999999999889
210
1.8874113454994911e-32
220
-4.0998656919651081e-35
230
1
0
CIRCLE
5
122
100
AcDbEntity
8
0
100
AcDbCircle
10
-8.1801181099993414
20
-17.944477130641168
30
2.0980592591341539e-15
40
0.06249999999999889
210
1.8874113454994911e-32
220
-4.0998656919651081e-35
230
1
0
CIRCLE
5
123
100
AcDbEntity
8
0
100
AcDbCircle
10
-8.1801181099993574
20
-14.240688778339555
30
6.9935308637805131e-16
40
0.06249999999999889
210
1.8874113454994911e-32
220
-4.0998656919651081e-35
230
1
0
CIRCLE
5
124
100
AcDbEntity
8
0
100
AcDbCircle
10
-4.2775590549993359
20
-14.240688778339505
30
6.9935308637805131e-16
40
0.062499999999999452
210
6.6444583081359651e-33
220
-4.0998656919650071e-35
230
1
0
CIRCLE
5
125
100
AcDbEntity
8
0
100
AcDbCircle
10
-8.1801181099993876
20
-8.0684562886639029
30
-6.9935308637805131e-16
40
0.06249999999999889
210
1.8874113454994911e-32
220
-4.0998656919651081e-35
230
1
0
CIRCLE
5
126
100
AcDbEntity
8
0
100
AcDbCircle
10
-4.2775590549993572
20
-7.3962237989881627
30
0
40
0.062499999999999452
210
6.6444583081359651e-33
220
-4.0998656919650071e-35
230
1
0
CIRCLE
5
127
100
AcDbEntity
8
0
100
AcDbCircle
10
-8.1801181099993503
20
-1.8962237989882489
30
-3.4967654318902565e-16
40
0.06249999999999889
210
1.8874113454994911e-32
220
-4.0998656919651081e-35
230
1
0
CIRCLE
5
128
100
AcDbEntity
8
0
100
AcDbCircle
10
-4.2775590549993154
20
-1.8962237989880901
30
0
40
0.062499999999999452
210
6.6444583081359651e-33
220
-4.0998656919650071e-35
230
1
0
CIRCLE
5
129
100
AcDbEntity
8
0
100
AcDbCircle
10
-1.8025360543849e-14
20
-17.944477130641282
30
-6.9935308637805131e-16
40
0.06249999999999932
210
6.5481618109166019e-33
220
-4.099865691965006e-35
230
1
0
CIRCLE
5
130
100
AcDbEntity
8
0
100
AcDbCircle
10
-1.9083501054928356e-14
20
-20.192435446686201
30
-1.3987061727561026e-15
40
0.06249999999999932
210
6.5481618109166019e-33
220
-4.099865691965006e-35
230
1
0
CIRCLE
5
131
100
AcDbEntity
8
0
100
AcDbCircle
10
8.1801181099993112
20
-20.192435446686098
30
0
40
0.06249999999999889
210
1.8874113454994911e-32
220
-4.0998656919651081e-35
230
1
0
CIRCLE
5
132
100
AcDbEntity
8
0
100
AcDbCircle
10
8.1801181099993077
20
-17.944477130641186
30
6.9935308637805131e-16
40
0.06249999999999889
210
1.8874113454994911e-32
220
-4.0998656919651081e-35
230
1
0
CIRCLE
5
133
100
AcDbEntity
8
0
100
AcDbCircle
10
4.2775590549992923
20
-14.240688778339569
30
6.9935308637805131e-16
40
0.062499999999999452
210
6.6444583081359651e-33
220
-4.0998656919650071e-35
230
1
0
CIRCLE
5
134
100
AcDbEntity
8
0
100
AcDbCircle
10
8.1801181099993023
20
-14.240688778339564
30
6.9935308637805131e-16
40
0.06249999999999889
210
1.8874113454994911e-32
220
-4.0998656919651081e-35
230
1
0
CIRCLE
5
135
100
AcDbEntity
8
0
100
AcDbCircle
10
8.180118109999265
20
-8.0684562886638993
30
3.4967654318902565e-16
40
0.06249999999999889
210
1.8874113454994911e-32
220
-4.0998656919651081e-35
230
1
0
CIRCLE
5
136
100
AcDbEntity
8
0
100
AcDbCircle
10
4.2775590549992764
20
-7.3962237989880926
30
-3.4967654318902565e-16
40
0.062499999999999452
210
6.6444583081359651e-33
220
-4.0998656919650071e-35
230
1
0
CIRCLE
5
137
100
AcDbEntity
8
0
100
AcDbCircle
10
8.1801181099993006
20
-1.8962237989881063
30
0
40
0.06249999999999889
210
1.8874113454994911e-32
220
-4.0998656919651081e-35
230
1
0
CIRCLE
5
138
100
AcDbEntity
8
0
100
AcDbCircle
10
4.2775590549993172
20
-1.8962237989881656
30
0
40
0.062499999999999452
210
6.6444583081359651e-33
220
-4.0998656919650071e-35
230
1
0
ENDSEC
0
SECTION
2
OBJECTS
0
DICTIONARY
5
C
100
AcDbDictionary
3
ACAD_GROUP
350
D
3
ACAD_MLINESTYLE
350
17
0
DICTIONARY
5
D
100
AcDbDictionary
0
DICTIONARY
5
1A
330
C
100
AcDbDictionary
0
DICTIONARY
5
17
100
AcDbDictionary
0
ENDSEC
0
EOF
