0
SECTION
2
HEADER
9
$INSUNITS
70
1
9
$ACADVER
1
AC1014
9
$HANDSEED
5
FFFF
0
ENDSEC
0
SECTION
2
TABLES
0
TABLE
2
VPORT
5
8
100
AcDbSymbolTable
0
ENDTAB
0
TABLE
2
LTYPE
5
5
100
AcDbSymbolTable
0
LTYPE
5
14
100
AcDbSymbolTableRecord
100
AcDbLinetypeTableRecord
2
BYBLOCK
70
0
0
LTYPE
5
15
100
AcDbSymbolTableRecord
100
AcDbLinetypeTableRecord
2
BYLAYER
70
0
0
ENDTAB
0
TABLE
2
LAYER
5
2
100
AcDbSymbolTable
70
2
0
LAYER
5
50
100
AcDbSymbolTableRecord
100
AcDbLayerTableRecord
2
0
70
0
6
CONTINUOUS
0
ENDTAB
0
TABLE
2
STYLE
5
3
100
AcDbSymbolTable
70
1
0
STYLE
5
11
100
AcDbSymbolTableRecord
100
AcDbTextStyleTableRecord
2
STANDARD
70
0
0
ENDTAB
0
TABLE
2
VIEW
5
6
100
AcDbSymbolTable
70
0
0
ENDTAB
0
TABLE
2
UCS
5
7
100
AcDbSymbolTable
70
0
0
ENDTAB
0
TABLE
2
APPID
5
9
100
AcDbSymbolTable
70
2
0
APPID
5
12
100
AcDbSymbolTableRecord
100
AcDbRegAppTableRecord
2
ACAD
70
0
0
ENDTAB
0
TABLE
2
DIMSTYLE
5
A
100
AcDbSymbolTable
70
1
0
ENDTAB
0
TABLE
2
BLOCK_RECORD
5
1
100
AcDbSymbolTable
70
1
0
BLOCK_RECORD
5
1F
100
AcDbSymbolTableRecord
100
AcDbBlockTableRecord
2
*MODEL_SPACE
0
BLOCK_RECORD
5
1B
100
AcDbSymbolTableRecord
100
AcDbBlockTableRecord
2
*PAPER_SPACE
0
ENDTAB
0
ENDSEC
0
SECTION
2
BLOCKS
0
BLOCK
5
20
100
AcDbEntity
100
AcDbBlockBegin
2
*MODEL_SPACE
0
ENDBLK
5
21
100
AcDbEntity
100
AcDbBlockEnd
0
BLOCK
5
1C
100
AcDbEntity
100
AcDbBlockBegin
2
*PAPER_SPACE
0
ENDBLK
5
1D
100
AcDbEntity
100
AcDbBlockEnd
0
ENDSEC
0
SECTION
2
ENTITIES
0
LWPOLYLINE
5
100
100
AcDbEntity
8
0
100
AcDbPolyline
90
10
70
1
43
0.0
10
1.4145546234171451
20
1.6595980597948217
42
-0.23006935220710298
10
4.134905462931175
20
6.1429137010940966
10
15.693861829768151
20
13.60321198515609
10
16.650985806575278
20
13.892890588130118
10
15.870041618144219
20
16.47319993656717
10
-5.4479889077862538
20
10.021185933631335
10
-5.4479889077862884
20
-12.419424644238411
42
0.29147341958608852
10
-4.6540890176797323
20
-13.665597851413814
10
-1.8912665016760017
20
-14.953923148749411
42
0.52056705055174868
10
0.059601318093618572
20
-13.827589087852051
0
LWPOLYLINE
5
101
100
AcDbEntity
8
0
100
AcDbPolyline
90
6
70
1
43
0.0
10
-4.842519685038539
20
-1.1281450588101698
42
-0.76010158177198806
10
-4.3308157285461233
20
-0.98601620272318313
10
-3.4051795917083063
20
-2.5237412387580527
42
-0.28417691972889941
10
-3.4086294520519895
20
-2.8135786820815514
10
-4.3342655888898074
20
-4.2715967227119354
42
-0.75075439423887524
10
-4.8425196850385559
20
-4.1238881354754335
0
LWPOLYLINE
5
102
100
AcDbEntity
8
0
100
AcDbPolyline
90
14
70
1
43
0.0
10
-0.18734599567681298
20
-9.8612085114594628
42
-0.41421356237291829
10
-0.35795236431287714
20
-10.004364252458636
10
-0.39717262801765391
20
-10.000932924003912
42
0.99999999999999989
10
-0.45207388329167919
20
-10.628457143274261
10
-0.41285361958732775
20
-10.631888471729001
42
-0.41421356237314372
10
-0.26969787858827704
20
-10.802494840365142
10
-0.33651929820518584
20
-11.566267161531536
42
-0.25901693414288218
10
-0.4724039592171479
20
-11.767399525962153
10
-2.6705278591209298
20
-12.883257555573328
42
-0.55953534830737861
10
-3.0708661417314675
20
-12.63751753969572
10
-3.0708661417314573
20
-8.0232038277984898
42
-0.41421356237311063
10
-2.7952755905503368
20
-7.7476132766173897
10
-0.30318468466418419
20
-7.7476132766173818
42
-0.4400105308918193
10
-0.028642838733405764
20
-8.047223126980926
0
LWPOLYLINE
5
103
100
AcDbEntity
8
0
100
AcDbPolyline
90
6
70
1
43
0.0
10
0.43029643408410334
20
5.7480120840081419
42
-0.74135471939717812
10
0.53335944351287123
20
5.2307942032135859
10
-4.0431408549772874
20
2.7803646584844985
42
-0.56673085034188786
10
-4.448818897636956
20
3.0233202026919166
10
-4.4488188976369525
20
5.9246959170873623
42
-0.44328247546277322
10
-4.1462038644060195
20
6.1989582536744967
0
LWPOLYLINE
5
104
100
AcDbEntity
8
0
100
AcDbPolyline
90
6
70
1
43
0.0
10
11.34337021894471
20
13.914201135382532
42
-0.41421356237305179
10
11.687077613468222
20
13.7304471401865
10
11.960443246498357
20
12.828998235031492
42
-0.53974956604196955
10
11.665219760273164
20
12.475236298380025
10
9.3118909606609268
20
12.745933483210143
42
-0.81389771400343003
10
9.2634070523626448
20
13.283449415057525
0
LWPOLYLINE
5
105
100
AcDbEntity
8
0
100
AcDbPolyline
90
8
70
1
43
0.0
10
6.109049198736086
20
12.045983699150627
10
3.7094313619983659
20
7.6337486412859716
42
0.77714674969937003
10
4.1011062265502858
20
7.2706103530913442
10
11.17518242732524
20
11.841783107824664
42
0.70390913000710587
10
11.057102649357496
20
12.347037993801804
10
8.0612393517357841
20
12.691644221769408
42
0.1025980045952508
10
7.9601205991592785
20
12.682523315696265
10
6.2561202747039006
20
12.165782849637342
42
0.19705420207307728
0
CIRCLE
5
106
100
AcDbEntity
8
0
100
AcDbCircle
10
-1.250000000000083
20
-7.2554872923660829
30
-2.4846012762866511e-30
40
0.062500000000000513
210
2.4651903288156619e-32
220
2.7369110631343889e-47
230
1
0
CIRCLE
5
107
100
AcDbEntity
8
0
100
AcDbCircle
10
-3.5531496062993426
20
-7.2554872923660882
30
0
40
0.062500000000000666
210
7.3955709864469857e-32
220
8.2107331894031667e-47
230
1
0
CIRCLE
5
108
100
AcDbEntity
8
0
100
AcDbCircle
10
-4.092256322558331
20
8.0820182115467283
30
-3.4163267548941452e-30
40
0.062500000000000666
210
7.3955709864469857e-32
220
8.2107331894031667e-47
230
1
0
CIRCLE
5
109
100
AcDbEntity
8
0
100
AcDbCircle
10
-2.3643852108476064
20
8.6629723555668967
30
-2.7951764358224827e-30
40
0.062500000000000513
210
2.4651903288156619e-32
220
2.7369110631343889e-47
230
1
0
CIRCLE
5
110
100
AcDbEntity
8
0
100
AcDbCircle
10
1.5719571253641738
20
9.307962960984316
30
-3.1057515953583139e-31
40
0.062500000000000513
210
2.4651903288156619e-32
220
2.7369110631343889e-47
230
1
0
CIRCLE
5
111
100
AcDbEntity
8
0
100
AcDbCircle
10
7.9008603003931777
20
9.1496330508283137
30
-3.1057515953583139e-31
40
0.062500000000000111
210
-2.4651903288156619e-32
220
-2.7369110631343889e-47
230
1
0
CIRCLE
5
112
100
AcDbEntity
8
0
100
AcDbCircle
10
15.219516439250333
20
14.307466094565896
30
0
40
0.062500000000001207
210
2.4651903288156619e-32
220
2.7369110631343889e-47
230
1
0
CIRCLE
5
113
100
AcDbEntity
8
0
100
AcDbCircle
10
12.541603412588614
20
13.496981639838641
30
-3.1057515953583139e-31
40
0.062500000000001207
210
2.4651903288156619e-32
220
2.7369110631343889e-47
230
1
0
CIRCLE
5
114
100
AcDbEntity
8
0
100
AcDbCircle
10
5.1527944878358669
20
12.184772025560079
30
-3.1057515953583139e-30
40
0.062500000000000111
210
-2.4651903288156619e-32
220
-2.7369110631343889e-47
230
1
0
CIRCLE
5
115
100
AcDbEntity
8
0
100
AcDbCircle
10
-0.11138738460349949
20
10.591539709204
30
-3.1057515953583139e-31
40
0.062500000000000486
210
4.9303806576313238e-32
220
5.4738221262687788e-47
230
1
0
CIRCLE
5
116
100
AcDbEntity
8
0
100
AcDbCircle
10
13.049067296494799
20
14.574620500094261
30
0
40
0.062500000000001207
210
2.4651903288156619e-32
220
2.7369110631343889e-47
230
1
0
CIRCLE
5
117
100
AcDbEntity
8
0
100
AcDbCircle
10
-2.4664872127510917
20
-1.2065768750670167
30
-3.7269019144299767e-30
40
0.096750000000000669
210
2.4651903288156619e-32
220
2.7369110631343889e-47
230
1
0
CIRCLE
5
118
100
AcDbEntity
8
0
100
AcDbCircle
10
-1.154227152294983
20
-2.29427962314311
30
-3.1057515953583139e-31
40
0.096750000000000669
210
2.4651903288156619e-32
220
2.7369110631343889e-47
230
1
0
CIRCLE
5
119
100
AcDbEntity
8
0
100
AcDbCircle
10
-0.98528573119895546
20
-0.36327034391224267
30
-3.1057515953583139e-31
40
0.096750000000000669
210
2.4651903288156619e-32
220
2.7369110631343889e-47
230
1
0
LWPOLYLINE
5
120
100
AcDbEntity
8
0
100
AcDbPolyline
90
12
70
1
43
0.0
10
-2.6687734650940134
20
-1.3534791286679717
42
-0.67956506647892478
10
-2.4196113950794458
20
-0.96101088043910021
42
0.30762735307451777
10
-2.1616765044729092
20
-0.84943767566136896
10
1.0915583325666562
20
4.2749031900862509
42
0.771328197498938
10
0.72880729612044226
20
4.6655673215301237
10
-4.7105276237369509
20
1.7531438271641957
42
0.27654344686169691
10
-4.8425196850385372
20
1.5327484406331926
10
-4.8425196850385479
20
0.69689094035664922
42
0.13629805274448606
10
-4.8067082741423812
20
0.56795976376342761
10
-3.3113035740590253
20
-1.916300686760962
42
0.55741780534585894
10
-2.842526623780059
20
-1.9218804179104783
10
-2.6600006445021123
20
-1.6343741721191765
42
0.30762735307448086
0
LWPOLYLINE
5
121
100
AcDbEntity
8
0
100
AcDbPolyline
90
6
70
1
43
0.0
10
1.7601132363947576
20
10.514378728017325
42
-0.41421356237298207
10
1.9438672315908732
20
10.858086122540676
10
5.2464913162894495
20
11.85961146514299
42
-0.67076812105623151
10
5.568570311171948
20
11.464212131078149
10
3.2532466327027483
20
7.2069707703727577
42
-0.66559533499999612
10
2.7474136426243057
20
7.2586627099141658
0
LWPOLYLINE
5
122
100
AcDbEntity
8
0
100
AcDbPolyline
90
10
70
1
43
0.0
10
-1.9136245450447913
20
7.9243178218656825
10
-4.3010552372532107
20
7.1099077284241554
42
0.80644287737014086
10
-4.2656543007206427
20
6.8041394598804938
10
1.3607121834729383
20
6.2497445620972787
42
0.51297899157991522
10
1.6562638487313277
20
6.5860012837398161
10
0.7731824013331331
20
10.411047268173217
42
0.44174155364522161
10
0.57020675357737494
20
10.525109951099878
10
-1.9446003493405297
20
9.69185083904617
42
0.38721117869119459
10
-2.0485129109659703
20
9.5069374303420275
10
-1.7507460814533684
20
8.217167592146339
42
-0.38468656752395086
0
LWPOLYLINE
5
123
100
AcDbEntity
8
0
100
AcDbPolyline
90
18
70
1
43
0.0
10
-1.8486143192034927
20
-1.5573159306216524
10
-1.0202343624447434
20
-2.0832205502081527
42
-0.99999999999999989
10
-1.2882199421452225
20
-2.5053386960780673
10
-2.1165998989039787
20
-1.9794340764914813
42
0.41421356237313867
10
-2.4616517616891547
20
-2.0565003595761802
10
-2.7436319868766934
20
-2.5006622057514418
42
0.31633441419986752
10
-2.7287099349292347
20
-2.8173050823363783
10
-0.32207404335043838
20
-5.9192478211931769
42
0.68211522983404116
10
0.17020929560054174
20
-5.7743328310271966
10
0.8696340794733336
20
2.2201290304860737
42
0.78544119179146576
10
0.3624286885748943
20
2.3918569169050143
10
-1.0033943788882616
20
0.24047734839184431
42
0.41421356237306661
10
-0.92632809580360709
20
-0.10457451439331478
10
-0.85129294134871258
20
-0.15221127097730061
42
-0.99999999999999989
10
-1.1192785210491982
20
-0.57432941684718475
10
-1.1943136755041048
20
-0.52669266026316419
42
0.41421356237308021
10
-1.5393655382892601
20
-0.60375894334783042
10
-1.9256806022881794
20
-1.2122640678364844
42
0.41421356237307888
0
LWPOLYLINE
5
124
100
AcDbEntity
8
0
100
AcDbPolyline
90
8
70
1
43
0.0
10
-4.8425196850385523
20
-9.2830463474835749
42
-0.41421356237310841
10
-4.5669291338574416
20
-9.0074557963024695
10
-3.9370078740149079
20
-9.007455796302466
42
-0.4142135623730876
10
-3.6614173228338154
20
-9.2830463474835678
10
-3.6614173228338189
20
-12.78789172883948
42
-0.54861878662667385
10
-4.0534774737072379
20
-13.037661591408634
10
-4.3878883950705889
20
-12.881723217806243
42
-0.29147341958609468
10
-4.8425196850385674
20
-12.168095039037201
0
LWPOLYLINE
5
125
100
AcDbEntity
8
0
100
AcDbPolyline
90
4
70
1
43
0.0
10
-0.88956768356319782
20
-13.082980016967532
10
-1.8314485888640741
20
-13.561117473715738
42
0.46975894580246225
10
-1.9164552735304643
20
-13.936447350966835
42
0.82949621268776808
10
-0.53640999103835296
20
-13.235879648771665
42
0.46975894580245675
0
LWPOLYLINE
5
126
100
AcDbEntity
8
0
100
AcDbPolyline
90
8
70
1
43
0.0
10
-4.8425196850385763
20
-5.879385225406474
10
-4.842519685038563
20
-6.4877707569323331
42
0.41421356237306461
10
-4.5669291338574673
20
-6.7633613081134429
10
-0.72809381269768381
20
-6.7633613081134225
42
0.62369311897687063
10
-0.510352319677567
20
-6.3188364675838935
10
-2.8314238546550361
20
-3.3271786852479006
42
0.51937074532510374
10
-3.2818288926428112
20
-3.3484043873598397
10
-4.8035787579734928
20
-5.7453924355562354
42
0.14236468951972442
0
ENDSEC
0
SECTION
2
OBJECTS
0
DICTIONARY
5
C
100
AcDbDictionary
3
ACAD_GROUP
350
D
3
ACAD_MLINESTYLE
350
17
0
DICTIONARY
5
D
100
AcDbDictionary
0
DICTIONARY
5
1A
330
C
100
AcDbDictionary
0
DICTIONARY
5
17
100
AcDbDictionary
0
ENDSEC
0
EOF
