0
SECTION
2
HEADER
9
$INSUNITS
70
1
9
$ACADVER
1
AC1014
9
$HANDSEED
5
FFFF
0
ENDSEC
0
SECTION
2
TABLES
0
TABLE
2
VPORT
5
8
100
AcDbSymbolTable
0
ENDTAB
0
TABLE
2
LTYPE
5
5
100
AcDbSymbolTable
0
LTYPE
5
14
100
AcDbSymbolTableRecord
100
AcDbLinetypeTableRecord
2
BYBLOCK
70
0
0
LTYPE
5
15
100
AcDbSymbolTableRecord
100
AcDbLinetypeTableRecord
2
BYLAYER
70
0
0
ENDTAB
0
TABLE
2
LAYER
5
2
100
AcDbSymbolTable
70
2
0
LAYER
5
50
100
AcDbSymbolTableRecord
100
AcDbLayerTableRecord
2
0
70
0
6
CONTINUOUS
0
ENDTAB
0
TABLE
2
STYLE
5
3
100
AcDbSymbolTable
70
1
0
STYLE
5
11
100
AcDbSymbolTableRecord
100
AcDbTextStyleTableRecord
2
STANDARD
70
0
0
ENDTAB
0
TABLE
2
VIEW
5
6
100
AcDbSymbolTable
70
0
0
ENDTAB
0
TABLE
2
UCS
5
7
100
AcDbSymbolTable
70
0
0
ENDTAB
0
TABLE
2
APPID
5
9
100
AcDbSymbolTable
70
2
0
APPID
5
12
100
AcDbSymbolTableRecord
100
AcDbRegAppTableRecord
2
ACAD
70
0
0
ENDTAB
0
TABLE
2
DIMSTYLE
5
A
100
AcDbSymbolTable
70
1
0
ENDTAB
0
TABLE
2
BLOCK_RECORD
5
1
100
AcDbSymbolTable
70
1
0
BLOCK_RECORD
5
1F
100
AcDbSymbolTableRecord
100
AcDbBlockTableRecord
2
*MODEL_SPACE
0
BLOCK_RECORD
5
1B
100
AcDbSymbolTableRecord
100
AcDbBlockTableRecord
2
*PAPER_SPACE
0
ENDTAB
0
ENDSEC
0
SECTION
2
BLOCKS
0
BLOCK
5
20
100
AcDbEntity
100
AcDbBlockBegin
2
*MODEL_SPACE
0
ENDBLK
5
21
100
AcDbEntity
100
AcDbBlockEnd
0
BLOCK
5
1C
100
AcDbEntity
100
AcDbBlockBegin
2
*PAPER_SPACE
0
ENDBLK
5
1D
100
AcDbEntity
100
AcDbBlockEnd
0
ENDSEC
0
SECTION
2
ENTITIES
0
LWPOLYLINE
5
100
100
AcDbEntity
8
0
100
AcDbPolyline
90
16
70
1
43
0.0
10
10.106475037920983
20
0.49999999999988298
10
10.106475037920969
20
-5.6929133858269623
10
13.437183699338293
20
-5.6929133858270644
10
13.437183699338313
20
-6.889763779527792
10
8.2098214946138874
20
-6.8897637795277875
42
-0.41421356237308682
10
7.3348214946138839
20
-6.0147637795277991
10
7.334821494613891
20
-3.0610236220473594
42
0.41421356237308393
10
6.084821494613891
20
-1.8110236220474099
10
3.6793096840627775
20
-1.8110236220474096
42
0.41421356237308982
10
2.4293096840627699
20
-3.0610236220473821
10
2.4293096840627912
20
-6.0147637795278186
42
-0.41421356237308732
10
1.5543096840627724
20
-6.8897637795278088
10
-3.6730525206617184
20
-6.8897637795278133
10
-3.6730525206617148
20
-5.6929133858270466
10
-0.34234385924439004
20
-5.6929133858269889
10
-0.34234385924439142
20
0.49999999999984657
0
CIRCLE
5
101
100
AcDbEntity
8
0
100
AcDbCircle
10
8.5439750379209674
20
-6.1929133858269276
30
-3.4163267548941452e-30
40
0.12499999999999716
210
4.9303806576313238e-32
220
2.7369110631344077e-48
230
1
0
CIRCLE
5
102
100
AcDbEntity
8
0
100
AcDbCircle
10
8.5439750379209904
20
-0.50000000000010325
30
3.1057515953583139e-31
40
0.12499999999999716
210
4.9303806576313238e-32
220
2.7369110631344077e-48
230
1
0
CIRCLE
5
103
100
AcDbEntity
8
0
100
AcDbCircle
10
1.2201561407557113
20
-0.5000000000000957
30
7.7643789883957848e-32
40
0.12499999999999742
210
4.9303806576313238e-32
220
2.7369110631344071e-48
230
1
0
CIRCLE
5
104
100
AcDbEntity
8
0
100
AcDbCircle
10
1.2201561407557311
20
-6.1929133858269854
30
6.2115031907166279e-31
40
0.12499999999999742
210
4.9303806576313238e-32
220
2.7369110631344071e-48
230
1
0
CIRCLE
5
105
100
AcDbEntity
8
0
100
AcDbCircle
10
11.271829368629637
20
-6.4429133858269481
30
-3.1057515953583139e-31
40
0.062500000000000763
210
0
220
0
230
1
0
CIRCLE
5
106
100
AcDbEntity
8
0
100
AcDbCircle
10
9.3564750379209833
20
-4.1286089238847161
30
3.1057515953583139e-31
40
0.062499999999999667
210
0
220
0
230
1
0
CIRCLE
5
107
100
AcDbEntity
8
0
100
AcDbCircle
10
9.3564750379209762
20
-2.0643044619423989
30
-2.7951764358224827e-30
40
0.062499999999999667
210
0
220
0
230
1
0
CIRCLE
5
108
100
AcDbEntity
8
0
100
AcDbCircle
10
-1.5076981899530508
20
-6.4429133858269791
30
-1.1646568482593677e-30
40
0.062500000000000083
210
-4.9303806576313238e-32
220
-2.7369110631344071e-48
230
1
0
CIRCLE
5
109
100
AcDbEntity
8
0
100
AcDbCircle
10
0.4076561407556929
20
-4.1286089238847099
30
3.1057515953583139e-31
40
0.0625
210
4.9303806576313238e-32
220
2.7369110631344068e-48
230
1
0
CIRCLE
5
110
100
AcDbEntity
8
0
100
AcDbCircle
10
0.40765614075569495
20
-2.0643044619424362
30
0
40
0.0625
210
4.9303806576313238e-32
220
2.7369110631344068e-48
230
1
0
CIRCLE
5
111
100
AcDbEntity
8
0
100
AcDbCircle
10
2.3682860617793406
20
0.24999999999985881
30
3.1057515953583139e-31
40
0.062500000000000083
210
-4.9303806576313238e-32
220
-2.7369110631344071e-48
230
1
0
CIRCLE
5
112
100
AcDbEntity
8
0
100
AcDbCircle
10
4.8820655893383691
20
0.24999999999999867
30
0
40
0.062500000000000208
210
4.9303806576313238e-32
220
2.7369110631344077e-48
230
1
0
CIRCLE
5
113
100
AcDbEntity
8
0
100
AcDbCircle
10
7.3958451168973145
20
0.24999999999993419
30
-3.1057515953583139e-31
40
0.062499999999999667
210
0
220
0
230
1
0
CIRCLE
5
114
100
AcDbEntity
8
0
100
AcDbCircle
10
4.4065846421767061
20
-0.9680118110240814
30
3.1057515953583139e-31
40
0.096749999999999989
210
4.9303806576313238e-32
220
2.7369110631344071e-48
230
1
0
CIRCLE
5
115
100
AcDbEntity
8
0
100
AcDbCircle
10
5.3575465364999504
20
-0.96801181102409783
30
0
40
0.096749999999999989
210
4.9303806576313238e-32
220
2.7369110631344071e-48
230
1
0
CIRCLE
5
116
100
AcDbEntity
8
0
100
AcDbCircle
10
4.8820655893383575
20
-1.3680118110243711
30
6.2115031907166279e-31
40
0.15624999999999972
210
-4.9303806576313238e-32
220
-2.7369110631344074e-48
230
1
0
CIRCLE
5
117
100
AcDbEntity
8
0
100
AcDbCircle
10
4.8820655893383575
20
-0.56801181102442
30
3.1057515953583139e-31
40
0.15624999999999972
210
-4.9303806576313238e-32
220
-2.7369110631344074e-48
230
1
0
CIRCLE
5
118
100
AcDbEntity
8
0
100
AcDbCircle
10
-1.8961496335226067
20
-5.9429133858269019
30
7.6452495883568584e-18
40
0.062500000000000208
210
4.9303806576313238e-32
220
2.7369110631344077e-48
230
1
0
CIRCLE
5
119
100
AcDbEntity
8
0
100
AcDbCircle
10
-0.86924674638349642
20
-5.9429133858268921
30
-6.5603599786979565e-18
40
0.062500000000000083
210
-4.9303806576313238e-32
220
-2.7369110631344071e-48
230
1
0
CIRCLE
5
120
100
AcDbEntity
8
0
100
AcDbCircle
10
-0.092343859244378323
20
-4.7440944881891705
30
8.3555300667033502e-18
40
0.062500000000000083
210
-4.9303806576313238e-32
220
-2.7369110631344071e-48
230
1
0
CIRCLE
5
121
100
AcDbEntity
8
0
100
AcDbCircle
10
-0.092343859244366305
20
-0.94881889763788196
30
4.4216689558258083e-18
40
0.062500000000000083
210
-4.9303806576313238e-32
220
-2.7369110631344071e-48
230
1
0
CIRCLE
5
122
100
AcDbEntity
8
0
100
AcDbCircle
10
-0.092343859244370677
20
0.24999999999990141
30
-6.0139903799705459e-18
40
0.062500000000000083
210
-4.9303806576313238e-32
220
-2.7369110631344071e-48
230
1
0
CIRCLE
5
123
100
AcDbEntity
8
0
100
AcDbCircle
10
9.8564750379209745
20
0.24999999999989922
30
2.2908276781258453e-18
40
0.062499999999999667
210
0
220
0
230
1
0
CIRCLE
5
124
100
AcDbEntity
8
0
100
AcDbCircle
10
9.8564750379209745
20
-0.9488188976378884
30
-9.1282969353909477e-18
40
0.062499999999999667
210
0
220
0
230
1
0
CIRCLE
5
125
100
AcDbEntity
8
0
100
AcDbCircle
10
9.8564750379209727
20
-4.7440944881891349
30
-5.194435824514881e-18
40
0.062499999999999667
210
0
220
0
230
1
0
CIRCLE
5
126
100
AcDbEntity
8
0
100
AcDbCircle
10
10.63337792506008
20
-5.9429133858269543
30
8.7379889431719904e-18
40
0.062500000000000763
210
0
220
0
230
1
0
CIRCLE
5
127
100
AcDbEntity
8
0
100
AcDbCircle
10
11.660280812199195
20
-5.9429133858269658
30
-5.4676206238854068e-18
40
0.062500000000000763
210
0
220
0
230
1
0
ENDSEC
0
SECTION
2
OBJECTS
0
DICTIONARY
5
C
100
AcDbDictionary
3
ACAD_GROUP
350
D
3
ACAD_MLINESTYLE
350
17
0
DICTIONARY
5
D
100
AcDbDictionary
0
DICTIONARY
5
1A
330
C
100
AcDbDictionary
0
DICTIONARY
5
17
100
AcDbDictionary
0
ENDSEC
0
EOF
