%TF.GenerationSoftware,KiCad,Pcbnew,(6.0.9)*%
%TF.CreationDate,2023-01-27T21:22:42-09:00*%
%TF.ProjectId,RWR CONTROL PANEL,52575220-434f-44e5-9452-4f4c2050414e,-*%
%TF.SameCoordinates,Original*%
%TF.FileFunction,Soldermask,Top*%
%TF.FilePolarity,Negative*%
%FSLAX46Y46*%
G04 Gerber Fmt 4.6, Leading zero omitted, Abs format (unit mm)*
G04 Created by KiCad (PCBNEW (6.0.9)) date 2023-01-27 21:22:42*
%MOMM*%
%LPD*%
G01*
G04 APERTURE LIST*
G04 Aperture macros list*
%AMRoundRect*
0 Rectangle with rounded corners*
0 $1 Rounding radius*
0 $2 $3 $4 $5 $6 $7 $8 $9 X,Y pos of 4 corners*
0 Add a 4 corners polygon primitive as box body*
4,1,4,$2,$3,$4,$5,$6,$7,$8,$9,$2,$3,0*
0 Add four circle primitives for the rounded corners*
1,1,$1+$1,$2,$3*
1,1,$1+$1,$4,$5*
1,1,$1+$1,$6,$7*
1,1,$1+$1,$8,$9*
0 Add four rect primitives between the rounded corners*
20,1,$1+$1,$2,$3,$4,$5,0*
20,1,$1+$1,$4,$5,$6,$7,0*
20,1,$1+$1,$6,$7,$8,$9,0*
20,1,$1+$1,$8,$9,$2,$3,0*%
G04 Aperture macros list end*
%ADD10RoundRect,0.200000X-0.275000X0.200000X-0.275000X-0.200000X0.275000X-0.200000X0.275000X0.200000X0*%
%ADD11R,1.800000X1.800000*%
%ADD12C,1.800000*%
%ADD13RoundRect,0.250001X1.099999X1.399999X-1.099999X1.399999X-1.099999X-1.399999X1.099999X-1.399999X0*%
%ADD14O,2.700000X3.300000*%
%ADD15R,0.700000X0.700000*%
%ADD16C,1.700000*%
%ADD17C,1.524000*%
%ADD18O,1.700000X1.700000*%
%ADD19R,1.700000X1.700000*%
%ADD20C,2.500000*%
G04 APERTURE END LIST*
D10*
%TO.C,R1*%
X75395858Y-21957811D03*
X75395858Y-23607811D03*
%TD*%
D11*
%TO.C,D1*%
X77935858Y-24052811D03*
D12*
X77935858Y-21512811D03*
%TD*%
D13*
%TO.C,J2*%
X70315858Y-30402811D03*
D14*
X66115858Y-30402811D03*
X70315858Y-35902811D03*
X66115858Y-35902811D03*
%TD*%
D13*
%TO.C,J1*%
X58885858Y-30402811D03*
D14*
X54685858Y-30402811D03*
X58885858Y-35902811D03*
X54685858Y-35902811D03*
%TD*%
D15*
%TO.C,D34*%
X120835858Y-21651334D03*
X120835858Y-22751334D03*
X122665858Y-22751334D03*
X122665858Y-21651334D03*
%TD*%
%TO.C,D33*%
X124645858Y-21651334D03*
X124645858Y-22751334D03*
X126475858Y-22751334D03*
X126475858Y-21651334D03*
%TD*%
%TO.C,D32*%
X128318880Y-21651334D03*
X128318880Y-22751334D03*
X130148880Y-22751334D03*
X130148880Y-21651334D03*
%TD*%
%TO.C,D31*%
X130148880Y-2304334D03*
X130148880Y-1204334D03*
X128318880Y-1204334D03*
X128318880Y-2304334D03*
%TD*%
%TO.C,D30*%
X126475858Y-2304334D03*
X126475858Y-1204334D03*
X124645858Y-1204334D03*
X124645858Y-2304334D03*
%TD*%
%TO.C,D29*%
X122665858Y-2304334D03*
X122665858Y-1204334D03*
X120835858Y-1204334D03*
X120835858Y-2304334D03*
%TD*%
%TO.C,D28*%
X111665880Y-14099334D03*
X112765880Y-14099334D03*
X112765880Y-12269334D03*
X111665880Y-12269334D03*
%TD*%
%TO.C,D27*%
X111665880Y-8130334D03*
X112765880Y-8130334D03*
X112765880Y-6300334D03*
X111665880Y-6300334D03*
%TD*%
%TO.C,D26*%
X103621880Y-6300334D03*
X102521880Y-6300334D03*
X102521880Y-8130334D03*
X103621880Y-8130334D03*
%TD*%
%TO.C,D25*%
X103621880Y-12269334D03*
X102521880Y-12269334D03*
X102521880Y-14099334D03*
X103621880Y-14099334D03*
%TD*%
%TO.C,D24*%
X94139880Y-14099334D03*
X95239880Y-14099334D03*
X95239880Y-12269334D03*
X94139880Y-12269334D03*
%TD*%
%TO.C,D23*%
X94139880Y-8130334D03*
X95239880Y-8130334D03*
X95239880Y-6300334D03*
X94139880Y-6300334D03*
%TD*%
%TO.C,D22*%
X86095880Y-6300334D03*
X84995880Y-6300334D03*
X84995880Y-8130334D03*
X86095880Y-8130334D03*
%TD*%
%TO.C,D21*%
X86095880Y-12269334D03*
X84995880Y-12269334D03*
X84995880Y-14099334D03*
X86095880Y-14099334D03*
%TD*%
%TO.C,D20*%
X76740880Y-14099334D03*
X77840880Y-14099334D03*
X77840880Y-12269334D03*
X76740880Y-12269334D03*
%TD*%
%TO.C,D19*%
X76740880Y-8130334D03*
X77840880Y-8130334D03*
X77840880Y-6300334D03*
X76740880Y-6300334D03*
%TD*%
%TO.C,D18*%
X68696880Y-6300334D03*
X67596880Y-6300334D03*
X67596880Y-8130334D03*
X68696880Y-8130334D03*
%TD*%
%TO.C,D17*%
X68696880Y-12269334D03*
X67596880Y-12269334D03*
X67596880Y-14099334D03*
X68696880Y-14099334D03*
%TD*%
%TO.C,D16*%
X59214880Y-14099334D03*
X60314880Y-14099334D03*
X60314880Y-12269334D03*
X59214880Y-12269334D03*
%TD*%
%TO.C,D15*%
X59214880Y-8130334D03*
X60314880Y-8130334D03*
X60314880Y-6300334D03*
X59214880Y-6300334D03*
%TD*%
%TO.C,D14*%
X51170880Y-6300334D03*
X50070880Y-6300334D03*
X50070880Y-8130334D03*
X51170880Y-8130334D03*
%TD*%
%TO.C,D13*%
X51170880Y-12269334D03*
X50070880Y-12269334D03*
X50070880Y-14099334D03*
X51170880Y-14099334D03*
%TD*%
%TO.C,D12*%
X41815880Y-14099334D03*
X42915880Y-14099334D03*
X42915880Y-12269334D03*
X41815880Y-12269334D03*
%TD*%
%TO.C,D11*%
X41815880Y-8130334D03*
X42915880Y-8130334D03*
X42915880Y-6300334D03*
X41815880Y-6300334D03*
%TD*%
%TO.C,D10*%
X33771880Y-6300334D03*
X32671880Y-6300334D03*
X32671880Y-8130334D03*
X33771880Y-8130334D03*
%TD*%
%TO.C,D9*%
X33771880Y-12269334D03*
X32671880Y-12269334D03*
X32671880Y-14099334D03*
X33771880Y-14099334D03*
%TD*%
%TO.C,D8*%
X40486880Y-23513334D03*
X40486880Y-22413334D03*
X38656880Y-22413334D03*
X38656880Y-23513334D03*
%TD*%
%TO.C,D7*%
X37184880Y-21735334D03*
X37184880Y-20635334D03*
X35354880Y-20635334D03*
X35354880Y-21735334D03*
%TD*%
%TO.C,D6*%
X34136880Y-23259334D03*
X34136880Y-22159334D03*
X32306880Y-22159334D03*
X32306880Y-23259334D03*
%TD*%
%TO.C,D5*%
X31215880Y-21481334D03*
X31215880Y-20381334D03*
X29385880Y-20381334D03*
X29385880Y-21481334D03*
%TD*%
%TO.C,D4*%
X27226880Y-25334334D03*
X27226880Y-26434334D03*
X29056880Y-26434334D03*
X29056880Y-25334334D03*
%TD*%
%TO.C,D3*%
X27802880Y-30557334D03*
X26702880Y-30557334D03*
X26702880Y-32387334D03*
X27802880Y-32387334D03*
%TD*%
%TO.C,D2*%
X27226880Y-35621334D03*
X27226880Y-36721334D03*
X29056880Y-36721334D03*
X29056880Y-35621334D03*
%TD*%
D16*
%TO.C,SW5*%
X105351530Y-13482785D03*
X105351530Y-6982785D03*
X109851530Y-13482785D03*
X109851530Y-6982785D03*
%TD*%
%TO.C,SW4*%
X87914431Y-13482785D03*
X87914431Y-6982785D03*
X92414431Y-13482785D03*
X92414431Y-6982785D03*
%TD*%
%TO.C,SW3*%
X74947732Y-6980385D03*
X74947732Y-13480385D03*
X70447732Y-6980385D03*
X70447732Y-13480385D03*
%TD*%
%TO.C,SW2*%
X57459831Y-6980385D03*
X57459831Y-13480385D03*
X52959831Y-6980385D03*
X52959831Y-13480385D03*
%TD*%
%TO.C,SW1*%
X39984631Y-6993085D03*
X39984631Y-13493085D03*
X35484631Y-6993085D03*
X35484631Y-13493085D03*
%TD*%
D17*
%TO.C,RV2*%
X128821131Y-28646585D03*
X126281131Y-33726585D03*
X123741131Y-28646585D03*
%TD*%
%TO.C,RV1*%
X128821131Y-8326585D03*
X126281131Y-13406585D03*
X123741131Y-8326585D03*
%TD*%
D18*
%TO.C,J3*%
X99525858Y-30402811D03*
X99525858Y-32942811D03*
X102065858Y-30402811D03*
X102065858Y-32942811D03*
X104605858Y-30402811D03*
X104605858Y-32942811D03*
X107145858Y-30402811D03*
X107145858Y-32942811D03*
X109685858Y-30402811D03*
D19*
X109685858Y-32942811D03*
%TD*%
D20*
%TO.C,H4*%
X117549881Y-10231585D03*
%TD*%
%TO.C,H3*%
X47763382Y-38965334D03*
%TD*%
%TO.C,H2*%
X117295880Y-38965334D03*
%TD*%
%TO.C,H1*%
X66663382Y-22137835D03*
%TD*%
M02*
