M48
; DRILL file {KiCad (5.1.9)-1} date 09/17/21 08:36:43
; FORMAT={-:-/ absolute / inch / decimal}
; #@! TF.CreationDate,2021-09-17T08:36:43-06:00
; #@! TF.GenerationSoftware,Kicad,Pcbnew,(5.1.9)-1
FMAT,2
INCH
T1C0.0157
T2C0.0354
T3C0.0394
T4C0.0469
T5C0.0551
T6C0.0984
%
G90
G05
T1
X4.0375Y-3.2501
X4.0375Y-3.9751
X4.0375Y-4.6751
X4.1625Y-2.7501
X4.1625Y-3.4501
X4.1625Y-4.1751
X4.3375Y-4.6751
X4.3625Y-3.2251
X4.3625Y-3.9751
X4.5125Y-2.7501
X4.5125Y-3.4501
X4.5125Y-4.1751
X4.6875Y-3.2251
X4.7125Y-3.9751
X4.8375Y-2.7501
X4.8375Y-3.4501
X4.8375Y-4.1751
X4.9125Y-4.3751
X5.0375Y-3.2251
X5.0375Y-3.9751
X5.1875Y-2.7501
X5.1875Y-3.4501
X5.1875Y-4.1751
X5.6125Y-3.6001
X5.7115Y-2.7511
X5.7115Y-2.8011
X5.7115Y-2.8511
X5.9625Y-3.1251
X5.9625Y-3.4001
X6.5125Y-3.3001
X6.5625Y-3.6001
X6.8625Y-3.1251
X6.9125Y-3.4001
T2
X5.4295Y-3.3635
X5.5295Y-3.3635
T3
X5.6828Y-3.2313
X5.6828Y-3.4872
X5.86Y-3.2313
X5.86Y-3.4872
X6.623Y-3.2324
X6.623Y-3.4883
X6.8001Y-3.2324
X6.8001Y-3.4883
T4
X6.1595Y-3.5285
X6.2595Y-3.5285
X6.3595Y-3.5285
T5
X5.3095Y-2.8679
X5.3095Y-3.0844
X5.4749Y-2.8679
X5.4749Y-3.0844
X6.1895Y-2.8679
X6.1895Y-3.0844
X6.3549Y-2.8679
X6.3549Y-3.0844
T6
X4.0695Y-2.3426
X4.0895Y-5.2635
X7.6945Y-3.6722
T0
M30
