M48
; DRILL file {KiCad (5.1.6)-1} date 11/25/20 14:24:21
; FORMAT={-:-/ absolute / inch / decimal}
; #@! TF.CreationDate,2020-11-25T14:24:21+11:00
; #@! TF.GenerationSoftware,Kicad,Pcbnew,(5.1.6)-1
FMAT,2
INCH
T1C0.0157
T2C0.0295
T3C0.0300
T4C0.0354
T5C0.0394
T6C0.0400
T7C0.0469
T8C0.0400
%
G90
G05
T1
X2.6063Y-0.4185
X2.863Y-1.4134
X3.0525Y-5.3456
X3.2085Y-1.7957
T2
X2.093Y-2.168
X2.181Y-1.431
X2.185Y-1.733
X2.198Y-1.141
X2.4325Y-2.9388
X2.4805Y-0.6465
X2.486Y-2.242
X2.4869Y-0.9729
X2.501Y-1.339
X2.579Y-1.593
X2.586Y-1.953
X2.63Y-3.44
X2.696Y-5.051
X2.698Y-5.338
X2.7Y-4.225
X2.7706Y-1.7702
X2.789Y-1.357
X2.83Y-3.755
X2.839Y-0.7276
X2.847Y-1.076
X2.915Y-2.448
X2.919Y-1.13
X2.947Y-2.228
X2.954Y-3.436
X3.125Y-5.445
X3.18Y-0.762
X3.19Y-1.09
X3.2Y-5.93
X3.211Y-4.484
X3.26Y-6.615
X3.27Y-3.45
X3.301Y-2.259
X3.348Y-1.354
X3.37Y-3.74
X3.375Y-6.185
X3.42Y-5.47
X3.4875Y-4.1626
X3.5115Y-7.0085
X3.5117Y-0.7182
X3.5199Y-1.0861
X3.585Y-3.465
X3.622Y-2.277
X3.725Y-5.475
X3.792Y-1.564
X3.864Y-0.652
X3.873Y-0.975
X3.887Y-1.814
X3.91Y-6.12
X3.915Y-6.93
X3.919Y-1.191
X3.928Y-2.178
X4.02Y-5.855
X4.025Y-6.6
X4.033Y-5.477
X4.28Y-2.604
X4.2865Y-3.9574
X4.335Y-5.48
X4.3961Y-3.543
X4.4085Y-3.19
X4.4245Y-2.843
X4.575Y-4.098
X4.65Y-5.495
X4.8189Y-3.2152
X4.8459Y-3.521
X4.9377Y-4.0872
X4.94Y-5.5
X4.995Y-2.8226
X5.0386Y-3.2495
X5.17Y-3.442
X5.25Y-5.475
X5.267Y-4.1496
X5.3703Y-3.6659
X5.404Y-2.9208
X5.595Y-5.43
X5.63Y-4.1747
X5.631Y-2.398
X5.642Y-2.6861
X5.945Y-5.435
X5.992Y-4.188
T3
X3.014Y-1.452
X3.0156Y-1.68
T4
X2.825Y-2.559
X2.925Y-2.559
T5
X2.889Y-1.477
X2.889Y-1.652
X3.139Y-1.477
X3.139Y-1.652
T6
X3.589Y-2.7159
X3.589Y-2.834
X3.7071Y-2.7159
X3.7071Y-2.834
X3.186Y-2.7159
X3.186Y-2.834
X3.3041Y-2.7159
X3.3041Y-2.834
T7
X2.826Y-2.79
X2.926Y-2.79
T8
X3.7575Y-2.6773
X3.3545Y-2.6773
T0
M30
