  0
SECTION
  2
HEADER
  9
$ACADVER
  1
AC1015
  9
$ACADMAINTVER
 70
     6
  9
$DWGCODEPAGE
  3
ANSI_1252
  9
$INSBASE
 10
0.0
 20
0.0
 30
0.0
  9
$EXTMIN
 10
-2.41625
 20
0.0625
 30
0.0
  9
$EXTMAX
 10
2.41625
 20
1.7308572216
 30
0.0
  9
$LIMMIN
 10
0.0
 20
0.0
  9
$LIMMAX
 10
12.0
 20
9.0
  9
$ORTHOMODE
 70
     0
  9
$REGENMODE
 70
     1
  9
$FILLMODE
 70
     1
  9
$QTEXTMODE
 70
     0
  9
$MIRRTEXT
 70
     1
  9
$LTSCALE
 40
1.0
  9
$ATTMODE
 70
     1
  9
$TEXTSIZE
 40
0.1377952756
  9
$TRACEWID
 40
0.05
  9
$TEXTSTYLE
  7
Standard
  9
$CLAYER
  8
0
  9
$CELTYPE
  6
ByLayer
  9
$CECOLOR
 62
   256
  9
$CELTSCALE
 40
1.0
  9
$DISPSILH
 70
     0
  9
$DIMSCALE
 40
1.0
  9
$DIMASZ
 40
0.14
  9
$DIMEXO
 40
0.0
  9
$DIMDLI
 40
0.38
  9
$DIMRND
 40
0.0
  9
$DIMDLE
 40
0.0
  9
$DIMEXE
 40
0.0393700787
  9
$DIMTP
 40
0.0
  9
$DIMTM
 40
0.0
  9
$DIMTXT
 40
0.1377952756
  9
$DIMCEN
 40
0.09
  9
$DIMTSZ
 40
0.0
  9
$DIMTOL
 70
     0
  9
$DIMLIM
 70
     0
  9
$DIMTIH
 70
     1
  9
$DIMTOH
 70
     1
  9
$DIMSE1
 70
     0
  9
$DIMSE2
 70
     0
  9
$DIMTAD
 70
     1
  9
$DIMZIN
 70
     1
  9
$DIMBLK
  1

  9
$DIMASO
 70
     1
  9
$DIMSHO
 70
     1
  9
$DIMPOST
  1

  9
$DIMAPOST
  1

  9
$DIMALT
 70
     0
  9
$DIMALTD
 70
     2
  9
$DIMALTF
 40
25.4
  9
$DIMLFAC
 40
1.0
  9
$DIMTOFL
 70
     0
  9
$DIMTVP
 40
0.0
  9
$DIMTIX
 70
     0
  9
$DIMSOXD
 70
     0
  9
$DIMSAH
 70
     0
  9
$DIMBLK1
  1

  9
$DIMBLK2
  1

  9
$DIMSTYLE
  2
Standard
  9
$DIMCLRD
 70
     0
  9
$DIMCLRE
 70
     0
  9
$DIMCLRT
 70
     0
  9
$DIMTFAC
 40
1.0
  9
$DIMGAP
 40
0.06
  9
$DIMJUST
 70
     0
  9
$DIMSD1
 70
     0
  9
$DIMSD2
 70
     0
  9
$DIMTOLJ
 70
     1
  9
$DIMTZIN
 70
     1
  9
$DIMALTZ
 70
     0
  9
$DIMALTTZ
 70
     0
  9
$DIMUPT
 70
     0
  9
$DIMDEC
 70
     2
  9
$DIMTDEC
 70
     2
  9
$DIMALTU
 70
     2
  9
$DIMALTTD
 70
     2
  9
$DIMTXSTY
  7
Standard
  9
$DIMAUNIT
 70
     0
  9
$DIMADEC
 70
     2
  9
$DIMALTRND
 40
0.0
  9
$DIMAZIN
 70
     0
  9
$DIMDSEP
 70
    46
  9
$DIMATFIT
 70
     3
  9
$DIMFRAC
 70
     0
  9
$DIMLDRBLK
  1

  9
$DIMLUNIT
 70
     2
  9
$DIMLWD
 70
    -2
  9
$DIMLWE
 70
    -2
  9
$DIMTMOVE
 70
     0
  9
$LUNITS
 70
     2
  9
$LUPREC
 70
     4
  9
$SKETCHINC
 40
0.1
  9
$FILLETRAD
 40
0.5
  9
$AUNITS
 70
     0
  9
$AUPREC
 70
     2
  9
$MENU
  1
.
  9
$ELEVATION
 40
0.0
  9
$PELEVATION
 40
0.0
  9
$THICKNESS
 40
0.0
  9
$LIMCHECK
 70
     0
  9
$CHAMFERA
 40
0.0
  9
$CHAMFERB
 40
0.0
  9
$CHAMFERC
 40
0.0
  9
$CHAMFERD
 40
0.0
  9
$SKPOLY
 70
     0
  9
$TDCREATE
 40
2459475.771022581
  9
$TDUCREATE
 40
2459476.021022581
  9
$TDUPDATE
 40
2459475.771050498
  9
$TDUUPDATE
 40
2459476.021050498
  9
$TDINDWG
 40
0.0000000116
  9
$TDUSRTIMER
 40
0.0000000116
  9
$USRTIMER
 70
     1
  9
$ANGBASE
 50
0.0
  9
$ANGDIR
 70
     0
  9
$PDMODE
 70
     0
  9
$PDSIZE
 40
-1.0
  9
$PLINEWID
 40
0.0
  9
$SPLFRAME
 70
     0
  9
$SPLINETYPE
 70
     6
  9
$SPLINESEGS
 70
     8
  9
$HANDSEED
  5
2AE
  9
$SURFTAB1
 70
     6
  9
$SURFTAB2
 70
     6
  9
$SURFTYPE
 70
     6
  9
$SURFU
 70
     6
  9
$SURFV
 70
     6
  9
$UCSBASE
  2

  9
$UCSNAME
  2

  9
$UCSORG
 10
0.0
 20
0.0
 30
0.0
  9
$UCSXDIR
 10
1.0
 20
0.0
 30
0.0
  9
$UCSYDIR
 10
0.0
 20
1.0
 30
0.0
  9
$UCSORTHOREF
  2

  9
$UCSORTHOVIEW
 70
     0
  9
$UCSORGTOP
 10
0.0
 20
0.0
 30
0.0
  9
$UCSORGBOTTOM
 10
0.0
 20
0.0
 30
0.0
  9
$UCSORGLEFT
 10
0.0
 20
0.0
 30
0.0
  9
$UCSORGRIGHT
 10
0.0
 20
0.0
 30
0.0
  9
$UCSORGFRONT
 10
0.0
 20
0.0
 30
0.0
  9
$UCSORGBACK
 10
0.0
 20
0.0
 30
0.0
  9
$PUCSBASE
  2

  9
$PUCSNAME
  2

  9
$PUCSORG
 10
0.0
 20
0.0
 30
0.0
  9
$PUCSXDIR
 10
1.0
 20
0.0
 30
0.0
  9
$PUCSYDIR
 10
0.0
 20
1.0
 30
0.0
  9
$PUCSORTHOREF
  2

  9
$PUCSORTHOVIEW
 70
     0
  9
$PUCSORGTOP
 10
0.0
 20
0.0
 30
0.0
  9
$PUCSORGBOTTOM
 10
0.0
 20
0.0
 30
0.0
  9
$PUCSORGLEFT
 10
0.0
 20
0.0
 30
0.0
  9
$PUCSORGRIGHT
 10
0.0
 20
0.0
 30
0.0
  9
$PUCSORGFRONT
 10
0.0
 20
0.0
 30
0.0
  9
$PUCSORGBACK
 10
0.0
 20
0.0
 30
0.0
  9
$USERI1
 70
     0
  9
$USERI2
 70
     0
  9
$USERI3
 70
     0
  9
$USERI4
 70
     0
  9
$USERI5
 70
     0
  9
$USERR1
 40
0.0
  9
$USERR2
 40
0.0
  9
$USERR3
 40
0.0
  9
$USERR4
 40
0.0
  9
$USERR5
 40
0.0
  9
$WORLDVIEW
 70
     1
  9
$SHADEDGE
 70
     3
  9
$SHADEDIF
 70
    70
  9
$TILEMODE
 70
     1
  9
$MAXACTVP
 70
    64
  9
$PINSBASE
 10
0.0
 20
0.0
 30
0.0
  9
$PLIMCHECK
 70
     0
  9
$PEXTMIN
 10
1.0000000000E+20
 20
1.0000000000E+20
 30
1.0000000000E+20
  9
$PEXTMAX
 10
-1.0000000000E+20
 20
-1.0000000000E+20
 30
-1.0000000000E+20
  9
$PLIMMIN
 10
0.0
 20
0.0
  9
$PLIMMAX
 10
12.0
 20
9.0
  9
$UNITMODE
 70
     0
  9
$VISRETAIN
 70
     1
  9
$PLINEGEN
 70
     0
  9
$PSLTSCALE
 70
     1
  9
$TREEDEPTH
 70
  3020
  9
$CMLSTYLE
  2
Standard
  9
$CMLJUST
 70
     0
  9
$CMLSCALE
 40
1.0
  9
$PROXYGRAPHICS
 70
     1
  9
$MEASUREMENT
 70
     0
  9
$CELWEIGHT
370
    -1
  9
$ENDCAPS
280
     0
  9
$JOINSTYLE
280
     0
  9
$LWDISPLAY
290
     1
  9
$INSUNITS
 70
     1
  9
$HYPERLINKBASE
  1

  9
$STYLESHEET
  1

  9
$XEDIT
290
     1
  9
$CEPSNTYPE
380
     0
  9
$PSTYLEMODE
290
     1
  9
$FINGERPRINTGUID
  2
{84a5bb22-3b94-46a3-9471-2bf42fb04c82}
  9
$VERSIONGUID
  2
{FAEB1C32-E019-11D5-929B-00C0DF256EC4}
  9
$EXTNAMES
290
     1
  9
$PSVPSCALE
 40
0.0
  9
$OLESTARTUP
290
     0
  0
ENDSEC
  0
SECTION
  2
CLASSES
  0
CLASS
  1
ACDBDICTIONARYWDFLT
  2
AcDbDictionaryWithDefault
  3
ObjectDBX Classes
 90
        0
280
     0
281
     0
  0
CLASS
  1
VISUALSTYLE
  2
AcDbVisualStyle
  3
ObjectDBX Classes
 90
     4095
280
     0
281
     0
  0
CLASS
  1
MATERIAL
  2
AcDbMaterial
  3
ObjectDBX Classes
 90
     1153
280
     0
281
     0
  0
CLASS
  1
SCALE
  2
AcDbScale
  3
ObjectDBX Classes
 90
     1153
280
     0
281
     0
  0
CLASS
  1
TABLESTYLE
  2
AcDbTableStyle
  3
ObjectDBX Classes
 90
     4095
280
     0
281
     0
  0
CLASS
  1
MLEADERSTYLE
  2
AcDbMLeaderStyle
  3
ACDB_MLEADERSTYLE_CLASS
 90
     4095
280
     0
281
     0
  0
CLASS
  1
SUN
  2
AcDbSun
  3
SCENEOE
 90
     1153
280
     0
281
     0
  0
CLASS
  1
ACDBPLACEHOLDER
  2
AcDbPlaceHolder
  3
ObjectDBX Classes
 90
        0
280
     0
281
     0
  0
CLASS
  1
LAYOUT
  2
AcDbLayout
  3
ObjectDBX Classes
 90
        0
280
     0
281
     0
  0
ENDSEC
  0
SECTION
  2
TABLES
  0
TABLE
  2
VPORT
  5
8
330
0
100
AcDbSymbolTable
 70
     1
  0
VPORT
  5
29
330
8
100
AcDbSymbolTableRecord
100
AcDbViewportTableRecord
  2
*Active
 70
     0
 10
0.0
 20
0.0
 11
1.0
 21
1.0
 12
0.0
 22
0.8966786108
 13
0.0
 23
0.0
 14
0.5
 24
0.5
 15
0.5
 25
0.5
 16
0.0
 26
0.0
 36
1.0
 17
0.0
 27
0.0
 37
0.0
 40
1.7017243661
 41
2.8965619217
 42
50.0
 43
0.0
 44
0.0
 50
0.0
 51
0.0
 71
     0
 72
   100
 73
     1
 74
     3
 75
     0
 76
     0
 77
     0
 78
     0
281
     0
 65
     1
110
0.0
120
0.0
130
0.0
111
1.0
121
0.0
131
0.0
112
0.0
122
1.0
132
0.0
 79
     0
146
0.0
  0
ENDTAB
  0
TABLE
  2
LTYPE
  5
5
330
0
100
AcDbSymbolTable
 70
     6
  0
LTYPE
  5
14
330
5
100
AcDbSymbolTableRecord
100
AcDbLinetypeTableRecord
  2
ByBlock
 70
     0
  3

 72
    65
 73
     0
 40
0.0
  0
LTYPE
  5
15
330
5
100
AcDbSymbolTableRecord
100
AcDbLinetypeTableRecord
  2
ByLayer
 70
     0
  3

 72
    65
 73
     0
 40
0.0
  0
LTYPE
  5
16
330
5
100
AcDbSymbolTableRecord
100
AcDbLinetypeTableRecord
  2
Continuous
 70
     0
  3
Solid line
 72
    65
 73
     0
 40
0.0
  0
LTYPE
  5
6E
330
5
100
AcDbSymbolTableRecord
100
AcDbLinetypeTableRecord
  2
HIDDEN
 70
     0
  3
Hidden __ __ __ __ __ __ __ __ __ __ __ __ __ __
 72
    65
 73
     2
 40
0.075
 49
0.05
 74
     0
 49
-0.025
 74
     0
  0
LTYPE
  5
6F
330
5
100
AcDbSymbolTableRecord
100
AcDbLinetypeTableRecord
  2
PHANTOM
 70
     0
  3
Phantom ______  __  __  ______  __  __  ______
 72
    65
 73
     6
 40
0.5
 49
0.25
 74
     0
 49
-0.05
 74
     0
 49
0.05
 74
     0
 49
-0.05
 74
     0
 49
0.05
 74
     0
 49
-0.05
 74
     0
  0
LTYPE
  5
70
330
5
100
AcDbSymbolTableRecord
100
AcDbLinetypeTableRecord
  2
CENTER
 70
     0
  3
Center ____ _ ____ _ ____ _ ____ _ ____ _ ____
 72
    65
 73
     4
 40
0.4
 49
0.25
 74
     0
 49
-0.05
 74
     0
 49
0.05
 74
     0
 49
-0.05
 74
     0
  0
LTYPE
  5
71
330
5
100
AcDbSymbolTableRecord
100
AcDbLinetypeTableRecord
  2
CENTERX2
 70
     0
  3
Center (2x) ________  __  ________  __  _____
 72
    65
 73
     4
 40
0.8
 49
0.5
 74
     0
 49
-0.1
 74
     0
 49
0.1
 74
     0
 49
-0.1
 74
     0
  0
LTYPE
  5
72
330
5
100
AcDbSymbolTableRecord
100
AcDbLinetypeTableRecord
  2
DOT2
 70
     0
  3
Dot (.5x) ........................................
 72
    65
 73
     2
 40
0.025
 49
0.0
 74
     0
 49
-0.025
 74
     0
  0
ENDTAB
  0
TABLE
  2
LAYER
  5
2
330
0
100
AcDbSymbolTable
 70
     1
  0
LAYER
  5
10
330
2
100
AcDbSymbolTableRecord
100
AcDbLayerTableRecord
  2
0
 70
     0
 62
     7
  6
Continuous
370
    -3
390
F
  0
ENDTAB
  0
TABLE
  2
STYLE
  5
3
330
0
100
AcDbSymbolTable
 70
     1
  0
STYLE
  5
11
330
3
100
AcDbSymbolTableRecord
100
AcDbTextStyleTableRecord
  2
Standard
 70
     0
 40
0.0
 41
1.0
 50
0.0
 71
     0
 42
0.1377952756
  3
txt
  4

  0
ENDTAB
  0
TABLE
  2
VIEW
  5
6
330
0
100
AcDbSymbolTable
 70
     0
  0
ENDTAB
  0
TABLE
  2
UCS
  5
7
330
0
100
AcDbSymbolTable
 70
     0
  0
ENDTAB
  0
TABLE
  2
APPID
  5
9
330
0
100
AcDbSymbolTable
 70
     1
  0
APPID
  5
12
330
9
100
AcDbSymbolTableRecord
100
AcDbRegAppTableRecord
  2
ACAD
 70
     0
  0
ENDTAB
  0
TABLE
  2
DIMSTYLE
  5
A
330
0
100
AcDbSymbolTable
 70
     1
100
AcDbDimStyleTable
  0
DIMSTYLE
105
27
330
A
100
AcDbSymbolTableRecord
100
AcDbDimStyleTableRecord
  2
Standard
 70
     0
178
     0
340
11
  0
ENDTAB
  0
TABLE
  2
BLOCK_RECORD
  5
1
330
0
100
AcDbSymbolTable
 70
     1
  0
BLOCK_RECORD
  5
1F
330
1
100
AcDbSymbolTableRecord
100
AcDbBlockTableRecord
  2
*Model_Space
340
22
  0
BLOCK_RECORD
  5
1B
330
1
100
AcDbSymbolTableRecord
100
AcDbBlockTableRecord
  2
*Paper_Space
340
1E
  0
BLOCK_RECORD
  5
23
330
1
100
AcDbSymbolTableRecord
100
AcDbBlockTableRecord
  2
*Paper_Space0
340
26
  0
ENDTAB
  0
ENDSEC
  0
SECTION
  2
BLOCKS
  0
BLOCK
  5
20
330
1F
100
AcDbEntity
  8
0
100
AcDbBlockBegin
  2
*Model_Space
 70
     0
 10
0.0
 20
0.0
 30
0.0
  3
*Model_Space
  1

  0
ENDBLK
  5
21
330
1F
100
AcDbEntity
  8
0
100
AcDbBlockEnd
  0
BLOCK
  5
1C
330
1B
100
AcDbEntity
 67
     1
  8
0
100
AcDbBlockBegin
  2
*Paper_Space
 70
     0
 10
0.0
 20
0.0
 30
0.0
  3
*Paper_Space
  1

  0
ENDBLK
  5
1D
330
1B
100
AcDbEntity
 67
     1
  8
0
100
AcDbBlockEnd
  0
BLOCK
  5
24
330
23
100
AcDbEntity
  8
0
100
AcDbBlockBegin
  2
*Paper_Space0
 70
     0
 10
0.0
 20
0.0
 30
0.0
  3
*Paper_Space0
  1

  0
ENDBLK
  5
25
330
23
100
AcDbEntity
  8
0
100
AcDbBlockEnd
  0
ENDSEC
  0
SECTION
  2
ENTITIES
  0
CIRCLE
  5
73
330
1F
100
AcDbEntity
  8
0
  6
Continuous
 62
     7
100
AcDbCircle
 10
2.3315
 20
0.305
 30
0.0
 40
0.0847500000000001
  0
CIRCLE
  5
74
330
1F
100
AcDbEntity
  8
0
  6
Continuous
 62
     7
100
AcDbCircle
 10
2.3315
 20
1.505
 30
0.0
 40
0.0847500000000001
  0
CIRCLE
  5
75
330
1F
100
AcDbEntity
  8
0
  6
Continuous
 62
     7
100
AcDbCircle
 10
-2.3315
 20
1.505
 30
0.0
 40
0.0847500000000001
  0
CIRCLE
  5
76
330
1F
100
AcDbEntity
  8
0
  6
Continuous
 62
     7
100
AcDbCircle
 10
-2.3315
 20
0.305
 30
0.0
 40
0.0847500000000001
  0
CIRCLE
  5
77
330
1F
100
AcDbEntity
  8
0
  6
Continuous
 62
     7
100
AcDbCircle
 10
-1.28125
 20
0.19375
 30
0.0
 40
0.0429999999996149
  0
CIRCLE
  5
78
330
1F
100
AcDbEntity
  8
0
  6
Continuous
 62
     7
100
AcDbCircle
 10
-0.5371555118
 20
0.85625
 30
0.0
 40
0.042999999999615
  0
CIRCLE
  5
79
330
1F
100
AcDbEntity
  8
0
  6
Continuous
 62
     7
100
AcDbCircle
 10
1.46625
 20
1.325
 30
0.0
 40
0.0429999999996146
  0
CIRCLE
  5
7A
330
1F
100
AcDbEntity
  8
0
  6
Continuous
 62
     7
100
AcDbCircle
 10
1.45625
 20
0.19375
 30
0.0
 40
0.0429999999996149
  0
CIRCLE
  5
7B
330
1F
100
AcDbEntity
  8
0
  6
Continuous
 62
     7
100
AcDbCircle
 10
1.71
 20
0.6
 30
0.0
 40
0.0099999999999999
  0
CIRCLE
  5
7C
330
1F
100
AcDbEntity
  8
0
  6
Continuous
 62
     7
100
AcDbCircle
 10
1.81
 20
0.4
 30
0.0
 40
0.0100000000000001
  0
CIRCLE
  5
7D
330
1F
100
AcDbEntity
  8
0
  6
Continuous
 62
     7
100
AcDbCircle
 10
1.91
 20
0.6
 30
0.0
 40
0.0100000000000001
  0
CIRCLE
  5
7E
330
1F
100
AcDbEntity
  8
0
  6
Continuous
 62
     7
100
AcDbCircle
 10
1.91
 20
1.4
 30
0.0
 40
0.0100000000000001
  0
CIRCLE
  5
7F
330
1F
100
AcDbEntity
  8
0
  6
Continuous
 62
     7
100
AcDbCircle
 10
1.71
 20
1.4
 30
0.0
 40
0.0099999999999999
  0
CIRCLE
  5
80
330
1F
100
AcDbEntity
  8
0
  6
Continuous
 62
     7
100
AcDbCircle
 10
1.81
 20
1.2
 30
0.0
 40
0.0099999999999999
  0
CIRCLE
  5
81
330
1F
100
AcDbEntity
  8
0
  6
Continuous
 62
     7
100
AcDbCircle
 10
1.075
 20
1.325
 30
0.0
 40
0.0625
  0
CIRCLE
  5
82
330
1F
100
AcDbEntity
  8
0
  6
Continuous
 62
     7
100
AcDbCircle
 10
-1.675
 20
1.325
 30
0.0
 40
0.0625
  0
CIRCLE
  5
83
330
1F
100
AcDbEntity
  8
0
  6
Continuous
 62
     7
100
AcDbCircle
 10
-0.9875
 20
1.325
 30
0.0
 40
0.0624999999999999
  0
CIRCLE
  5
84
330
1F
100
AcDbEntity
  8
0
  6
Continuous
 62
     7
100
AcDbCircle
 10
-0.3
 20
1.325
 30
0.0
 40
0.0625
  0
CIRCLE
  5
85
330
1F
100
AcDbEntity
  8
0
  6
Continuous
 62
     7
100
AcDbCircle
 10
0.3875
 20
1.325
 30
0.0
 40
0.0625
  0
ARC
  5
86
330
1F
100
AcDbEntity
  8
0
  6
Continuous
 62
     7
100
AcDbCircle
 10
-1.75
 20
0.5
 30
0.0
 40
0.2499999999999998
100
AcDbArc
 50
270.0
 51
256.1134596374
  0
CIRCLE
  5
87
330
1F
100
AcDbEntity
  8
0
  6
Continuous
 62
     7
100
AcDbCircle
 10
-1.75
 20
0.5
 30
0.0
 40
0.2893700787401748
  0
ARC
  5
88
330
1F
100
AcDbEntity
  8
0
  6
Continuous
 62
     7
100
AcDbCircle
 10
1.81
 20
1.525
 30
0.0
 40
0.0250000000000002
100
AcDbArc
 50
356.8152614633
 51
183.1847385367
  0
ARC
  5
89
330
1F
100
AcDbEntity
  8
0
  6
Continuous
 62
     7
100
AcDbCircle
 10
1.81
 20
1.3
 30
0.0
 40
0.225000000000001
100
AcDbArc
 50
81.3694770734
 51
83.6305229266
  0
ARC
  5
8A
330
1F
100
AcDbEntity
  8
0
  6
Continuous
 62
     7
100
AcDbCircle
 10
1.8682342851
 20
1.5173333109
 30
0.0
 40
0.0249999999999999
100
AcDbArc
 50
341.8152614633
 51
168.1847385367
  0
ARC
  5
8B
330
1F
100
AcDbEntity
  8
0
  6
Continuous
 62
     7
100
AcDbCircle
 10
1.81
 20
1.3
 30
0.0
 40
0.2250000000000027
100
AcDbArc
 50
66.3694770734
 51
68.6305229266
  0
ARC
  5
8C
330
1F
100
AcDbEntity
  8
0
  6
Continuous
 62
     7
100
AcDbCircle
 10
1.9225
 20
1.4948557159
 30
0.0
 40
0.0250000000000004
100
AcDbArc
 50
326.8152614633
 51
153.1847385367
  0
ARC
  5
8D
330
1F
100
AcDbEntity
  8
0
  6
Continuous
 62
     7
100
AcDbCircle
 10
1.81
 20
1.3
 30
0.0
 40
0.2250000000000014
100
AcDbArc
 50
51.3694770734
 51
53.6305229266
  0
ARC
  5
8E
330
1F
100
AcDbEntity
  8
0
  6
Continuous
 62
     7
100
AcDbCircle
 10
1.9690990258
 20
1.4590990258
 30
0.0
 40
0.025
100
AcDbArc
 50
311.8152614633
 51
138.1847385367
  0
ARC
  5
8F
330
1F
100
AcDbEntity
  8
0
  6
Continuous
 62
     7
100
AcDbCircle
 10
1.81
 20
1.3
 30
0.0
 40
0.2250000000000013
100
AcDbArc
 50
36.3694770734
 51
38.6305229266
  0
ARC
  5
90
330
1F
100
AcDbEntity
  8
0
  6
Continuous
 62
     7
100
AcDbCircle
 10
2.0048557159
 20
1.4125
 30
0.0
 40
0.0250000000000006
100
AcDbArc
 50
296.8152614633
 51
123.1847385367
  0
ARC
  5
91
330
1F
100
AcDbEntity
  8
0
  6
Continuous
 62
     7
100
AcDbCircle
 10
1.81
 20
1.3
 30
0.0
 40
0.2250000000000006
100
AcDbArc
 50
21.3694770734
 51
23.6305229266
  0
ARC
  5
92
330
1F
100
AcDbEntity
  8
0
  6
Continuous
 62
     7
100
AcDbCircle
 10
2.0273333109
 20
1.3582342851
 30
0.0
 40
0.0250000000000002
100
AcDbArc
 50
281.8152614633
 51
108.1847385367
  0
ARC
  5
93
330
1F
100
AcDbEntity
  8
0
  6
Continuous
 62
     7
100
AcDbCircle
 10
1.81
 20
1.3
 30
0.0
 40
0.2250000000000011
100
AcDbArc
 50
6.3694770734
 51
8.6305229266
  0
ARC
  5
94
330
1F
100
AcDbEntity
  8
0
  6
Continuous
 62
     7
100
AcDbCircle
 10
2.035
 20
1.3
 30
0.0
 40
0.0250000000000002
100
AcDbArc
 50
266.8152614633
 51
93.1847385367
  0
ARC
  5
95
330
1F
100
AcDbEntity
  8
0
  6
Continuous
 62
     7
100
AcDbCircle
 10
1.81
 20
1.3
 30
0.0
 40
0.2249999999999994
100
AcDbArc
 50
351.3694770734
 51
353.6305229266
  0
ARC
  5
96
330
1F
100
AcDbEntity
  8
0
  6
Continuous
 62
     7
100
AcDbCircle
 10
2.0273333109
 20
1.2417657149
 30
0.0
 40
0.0250000000000009
100
AcDbArc
 50
251.8152614633
 51
78.1847385367
  0
ARC
  5
97
330
1F
100
AcDbEntity
  8
0
  6
Continuous
 62
     7
100
AcDbCircle
 10
1.81
 20
1.3
 30
0.0
 40
0.2249999999999999
100
AcDbArc
 50
336.3694770734
 51
338.6305229266
  0
ARC
  5
98
330
1F
100
AcDbEntity
  8
0
  6
Continuous
 62
     7
100
AcDbCircle
 10
2.0048557159
 20
1.1875
 30
0.0
 40
0.025
100
AcDbArc
 50
236.8152614633
 51
63.1847385367
  0
ARC
  5
99
330
1F
100
AcDbEntity
  8
0
  6
Continuous
 62
     7
100
AcDbCircle
 10
1.81
 20
1.3
 30
0.0
 40
0.2249999999999998
100
AcDbArc
 50
321.3694770734
 51
323.6305229266
  0
ARC
  5
9A
330
1F
100
AcDbEntity
  8
0
  6
Continuous
 62
     7
100
AcDbCircle
 10
1.9690990258
 20
1.1409009742
 30
0.0
 40
0.0250000000000001
100
AcDbArc
 50
221.8152614633
 51
48.1847385367
  0
ARC
  5
9B
330
1F
100
AcDbEntity
  8
0
  6
Continuous
 62
     7
100
AcDbCircle
 10
1.81
 20
1.3
 30
0.0
 40
0.2249999999999997
100
AcDbArc
 50
306.3694770734
 51
308.6305229266
  0
ARC
  5
9C
330
1F
100
AcDbEntity
  8
0
  6
Continuous
 62
     7
100
AcDbCircle
 10
1.9225
 20
1.1051442841
 30
0.0
 40
0.0250000000000003
100
AcDbArc
 50
206.8152614633
 51
33.1847385367
  0
ARC
  5
9D
330
1F
100
AcDbEntity
  8
0
  6
Continuous
 62
     7
100
AcDbCircle
 10
1.81
 20
1.3
 30
0.0
 40
0.2250000000000001
100
AcDbArc
 50
291.3694770734
 51
293.6305229266
  0
ARC
  5
9E
330
1F
100
AcDbEntity
  8
0
  6
Continuous
 62
     7
100
AcDbCircle
 10
1.8682342851
 20
1.0826666891
 30
0.0
 40
0.0250000000000003
100
AcDbArc
 50
191.8152614633
 51
18.1847385367
  0
ARC
  5
9F
330
1F
100
AcDbEntity
  8
0
  6
Continuous
 62
     7
100
AcDbCircle
 10
1.81
 20
1.3
 30
0.0
 40
0.2250000000000006
100
AcDbArc
 50
276.3694770734
 51
278.6305229266
  0
ARC
  5
A0
330
1F
100
AcDbEntity
  8
0
  6
Continuous
 62
     7
100
AcDbCircle
 10
1.81
 20
1.075
 30
0.0
 40
0.0250000000000002
100
AcDbArc
 50
176.8152614633
 51
3.1847385367
  0
ARC
  5
A1
330
1F
100
AcDbEntity
  8
0
  6
Continuous
 62
     7
100
AcDbCircle
 10
1.81
 20
1.3
 30
0.0
 40
0.2249999999999997
100
AcDbArc
 50
261.3694770734
 51
263.6305229266
  0
ARC
  5
A2
330
1F
100
AcDbEntity
  8
0
  6
Continuous
 62
     7
100
AcDbCircle
 10
1.7517657149
 20
1.0826666891
 30
0.0
 40
0.0250000000000003
100
AcDbArc
 50
161.8152614633
 51
348.1847385367
  0
ARC
  5
A3
330
1F
100
AcDbEntity
  8
0
  6
Continuous
 62
     7
100
AcDbCircle
 10
1.81
 20
1.3
 30
0.0
 40
0.2249999999999995
100
AcDbArc
 50
246.3694770734
 51
248.6305229266
  0
ARC
  5
A4
330
1F
100
AcDbEntity
  8
0
  6
Continuous
 62
     7
100
AcDbCircle
 10
1.6975
 20
1.1051442841
 30
0.0
 40
0.0250000000000018
100
AcDbArc
 50
146.8152614633
 51
333.1847385367
  0
ARC
  5
A5
330
1F
100
AcDbEntity
  8
0
  6
Continuous
 62
     7
100
AcDbCircle
 10
1.81
 20
1.3
 30
0.0
 40
0.2249999999999996
100
AcDbArc
 50
231.3694770734
 51
233.6305229266
  0
ARC
  5
A6
330
1F
100
AcDbEntity
  8
0
  6
Continuous
 62
     7
100
AcDbCircle
 10
1.6509009742
 20
1.1409009742
 30
0.0
 40
0.0250000000000003
100
AcDbArc
 50
131.8152614633
 51
318.1847385367
  0
ARC
  5
A7
330
1F
100
AcDbEntity
  8
0
  6
Continuous
 62
     7
100
AcDbCircle
 10
1.81
 20
1.3
 30
0.0
 40
0.2249999999999998
100
AcDbArc
 50
216.3694770734
 51
218.6305229266
  0
ARC
  5
A8
330
1F
100
AcDbEntity
  8
0
  6
Continuous
 62
     7
100
AcDbCircle
 10
1.6151442841
 20
1.1875
 30
0.0
 40
0.0250000000000004
100
AcDbArc
 50
116.8152614633
 51
303.1847385367
  0
ARC
  5
A9
330
1F
100
AcDbEntity
  8
0
  6
Continuous
 62
     7
100
AcDbCircle
 10
1.81
 20
1.3
 30
0.0
 40
0.2249999999999999
100
AcDbArc
 50
201.3694770734
 51
203.6305229266
  0
ARC
  5
AA
330
1F
100
AcDbEntity
  8
0
  6
Continuous
 62
     7
100
AcDbCircle
 10
1.5926666891
 20
1.2417657149
 30
0.0
 40
0.0249999999999999
100
AcDbArc
 50
101.8152614633
 51
288.1847385367
  0
ARC
  5
AB
330
1F
100
AcDbEntity
  8
0
  6
Continuous
 62
     7
100
AcDbCircle
 10
1.81
 20
1.3
 30
0.0
 40
0.2250000000000001
100
AcDbArc
 50
186.3694770734
 51
188.6305229266
  0
ARC
  5
AC
330
1F
100
AcDbEntity
  8
0
  6
Continuous
 62
     7
100
AcDbCircle
 10
1.585
 20
1.3
 30
0.0
 40
0.0250000000000006
100
AcDbArc
 50
86.8152614633
 51
273.1847385367
  0
ARC
  5
AD
330
1F
100
AcDbEntity
  8
0
  6
Continuous
 62
     7
100
AcDbCircle
 10
1.81
 20
1.3
 30
0.0
 40
0.2250000000000002
100
AcDbArc
 50
171.3694770734
 51
173.6305229266
  0
ARC
  5
AE
330
1F
100
AcDbEntity
  8
0
  6
Continuous
 62
     7
100
AcDbCircle
 10
1.5926666891
 20
1.3582342851
 30
0.0
 40
0.0250000000000003
100
AcDbArc
 50
71.8152614633
 51
258.1847385367
  0
ARC
  5
AF
330
1F
100
AcDbEntity
  8
0
  6
Continuous
 62
     7
100
AcDbCircle
 10
1.81
 20
1.3
 30
0.0
 40
0.2250000000000003
100
AcDbArc
 50
156.3694770734
 51
158.6305229266
  0
ARC
  5
B0
330
1F
100
AcDbEntity
  8
0
  6
Continuous
 62
     7
100
AcDbCircle
 10
1.6151442841
 20
1.4125
 30
0.0
 40
0.0249999999999998
100
AcDbArc
 50
56.8152614633
 51
243.1847385367
  0
ARC
  5
B1
330
1F
100
AcDbEntity
  8
0
  6
Continuous
 62
     7
100
AcDbCircle
 10
1.81
 20
1.3
 30
0.0
 40
0.2249999999999999
100
AcDbArc
 50
141.3694770734
 51
143.6305229266
  0
ARC
  5
B2
330
1F
100
AcDbEntity
  8
0
  6
Continuous
 62
     7
100
AcDbCircle
 10
1.6509009742
 20
1.4590990258
 30
0.0
 40
0.0250000000000004
100
AcDbArc
 50
41.8152614633
 51
228.1847385367
  0
ARC
  5
B3
330
1F
100
AcDbEntity
  8
0
  6
Continuous
 62
     7
100
AcDbCircle
 10
1.81
 20
1.3
 30
0.0
 40
0.2250000000000003
100
AcDbArc
 50
126.3694770734
 51
128.6305229266
  0
ARC
  5
B4
330
1F
100
AcDbEntity
  8
0
  6
Continuous
 62
     7
100
AcDbCircle
 10
1.6975
 20
1.4948557159
 30
0.0
 40
0.0250000000000004
100
AcDbArc
 50
26.8152614633
 51
213.1847385367
  0
ARC
  5
B5
330
1F
100
AcDbEntity
  8
0
  6
Continuous
 62
     7
100
AcDbCircle
 10
1.81
 20
1.3
 30
0.0
 40
0.2250000000000001
100
AcDbArc
 50
111.3694770734
 51
113.6305229266
  0
ARC
  5
B6
330
1F
100
AcDbEntity
  8
0
  6
Continuous
 62
     7
100
AcDbCircle
 10
1.7517657149
 20
1.5173333109
 30
0.0
 40
0.0250000000000003
100
AcDbArc
 50
11.8152614633
 51
198.1847385367
  0
ARC
  5
B7
330
1F
100
AcDbEntity
  8
0
  6
Continuous
 62
     7
100
AcDbCircle
 10
1.81
 20
1.3
 30
0.0
 40
0.225000000000001
100
AcDbArc
 50
96.3694770734
 51
98.6305229266
  0
ARC
  5
B8
330
1F
100
AcDbEntity
  8
0
  6
Continuous
 62
     7
100
AcDbCircle
 10
1.81
 20
0.725
 30
0.0
 40
0.0250000000000002
100
AcDbArc
 50
356.8152614633
 51
183.1847385367
  0
ARC
  5
B9
330
1F
100
AcDbEntity
  8
0
  6
Continuous
 62
     7
100
AcDbCircle
 10
1.81
 20
0.5
 30
0.0
 40
0.2250000000000011
100
AcDbArc
 50
81.3694770734
 51
83.6305229266
  0
ARC
  5
BA
330
1F
100
AcDbEntity
  8
0
  6
Continuous
 62
     7
100
AcDbCircle
 10
1.8682342851
 20
0.7173333109
 30
0.0
 40
0.0249999999999999
100
AcDbArc
 50
341.8152614633
 51
168.1847385367
  0
ARC
  5
BB
330
1F
100
AcDbEntity
  8
0
  6
Continuous
 62
     7
100
AcDbCircle
 10
1.81
 20
0.5
 30
0.0
 40
0.2250000000000026
100
AcDbArc
 50
66.3694770734
 51
68.6305229266
  0
ARC
  5
BC
330
1F
100
AcDbEntity
  8
0
  6
Continuous
 62
     7
100
AcDbCircle
 10
1.9225
 20
0.6948557159
 30
0.0
 40
0.0250000000000006
100
AcDbArc
 50
326.8152614633
 51
153.1847385367
  0
ARC
  5
BD
330
1F
100
AcDbEntity
  8
0
  6
Continuous
 62
     7
100
AcDbCircle
 10
1.81
 20
0.5
 30
0.0
 40
0.2250000000000012
100
AcDbArc
 50
51.3694770734
 51
53.6305229266
  0
ARC
  5
BE
330
1F
100
AcDbEntity
  8
0
  6
Continuous
 62
     7
100
AcDbCircle
 10
1.9690990258
 20
0.6590990258
 30
0.0
 40
0.0249999999999999
100
AcDbArc
 50
311.8152614633
 51
138.1847385367
  0
ARC
  5
BF
330
1F
100
AcDbEntity
  8
0
  6
Continuous
 62
     7
100
AcDbCircle
 10
1.81
 20
0.5
 30
0.0
 40
0.2250000000000014
100
AcDbArc
 50
36.3694770734
 51
38.6305229266
  0
ARC
  5
C0
330
1F
100
AcDbEntity
  8
0
  6
Continuous
 62
     7
100
AcDbCircle
 10
2.0048557159
 20
0.6125
 30
0.0
 40
0.0250000000000006
100
AcDbArc
 50
296.8152614633
 51
123.1847385367
  0
ARC
  5
C1
330
1F
100
AcDbEntity
  8
0
  6
Continuous
 62
     7
100
AcDbCircle
 10
1.81
 20
0.5
 30
0.0
 40
0.2250000000000007
100
AcDbArc
 50
21.3694770734
 51
23.6305229266
  0
ARC
  5
C2
330
1F
100
AcDbEntity
  8
0
  6
Continuous
 62
     7
100
AcDbCircle
 10
2.0273333109
 20
0.5582342851
 30
0.0
 40
0.0250000000000001
100
AcDbArc
 50
281.8152614633
 51
108.1847385367
  0
ARC
  5
C3
330
1F
100
AcDbEntity
  8
0
  6
Continuous
 62
     7
100
AcDbCircle
 10
1.81
 20
0.5
 30
0.0
 40
0.2250000000000013
100
AcDbArc
 50
6.3694770734
 51
8.6305229266
  0
ARC
  5
C4
330
1F
100
AcDbEntity
  8
0
  6
Continuous
 62
     7
100
AcDbCircle
 10
2.035
 20
0.5
 30
0.0
 40
0.0250000000000003
100
AcDbArc
 50
266.8152614633
 51
93.1847385367
  0
ARC
  5
C5
330
1F
100
AcDbEntity
  8
0
  6
Continuous
 62
     7
100
AcDbCircle
 10
1.81
 20
0.5
 30
0.0
 40
0.2249999999999995
100
AcDbArc
 50
351.3694770734
 51
353.6305229266
  0
ARC
  5
C6
330
1F
100
AcDbEntity
  8
0
  6
Continuous
 62
     7
100
AcDbCircle
 10
2.0273333109
 20
0.4417657149
 30
0.0
 40
0.0250000000000008
100
AcDbArc
 50
251.8152614633
 51
78.1847385367
  0
ARC
  5
C7
330
1F
100
AcDbEntity
  8
0
  6
Continuous
 62
     7
100
AcDbCircle
 10
1.81
 20
0.5
 30
0.0
 40
0.2250000000000001
100
AcDbArc
 50
336.3694770734
 51
338.6305229266
  0
ARC
  5
C8
330
1F
100
AcDbEntity
  8
0
  6
Continuous
 62
     7
100
AcDbCircle
 10
2.0048557159
 20
0.3875
 30
0.0
 40
0.025
100
AcDbArc
 50
236.8152614633
 51
63.1847385367
  0
ARC
  5
C9
330
1F
100
AcDbEntity
  8
0
  6
Continuous
 62
     7
100
AcDbCircle
 10
1.81
 20
0.5
 30
0.0
 40
0.225
100
AcDbArc
 50
321.3694770734
 51
323.6305229266
  0
ARC
  5
CA
330
1F
100
AcDbEntity
  8
0
  6
Continuous
 62
     7
100
AcDbCircle
 10
1.9690990258
 20
0.3409009742
 30
0.0
 40
0.0250000000000002
100
AcDbArc
 50
221.8152614633
 51
48.1847385367
  0
ARC
  5
CB
330
1F
100
AcDbEntity
  8
0
  6
Continuous
 62
     7
100
AcDbCircle
 10
1.81
 20
0.5
 30
0.0
 40
0.225
100
AcDbArc
 50
306.3694770734
 51
308.6305229266
  0
ARC
  5
CC
330
1F
100
AcDbEntity
  8
0
  6
Continuous
 62
     7
100
AcDbCircle
 10
1.9225
 20
0.3051442841
 30
0.0
 40
0.0250000000000003
100
AcDbArc
 50
206.8152614633
 51
33.1847385367
  0
ARC
  5
CD
330
1F
100
AcDbEntity
  8
0
  6
Continuous
 62
     7
100
AcDbCircle
 10
1.81
 20
0.5
 30
0.0
 40
0.2250000000000003
100
AcDbArc
 50
291.3694770734
 51
293.6305229266
  0
ARC
  5
CE
330
1F
100
AcDbEntity
  8
0
  6
Continuous
 62
     7
100
AcDbCircle
 10
1.8682342851
 20
0.2826666891
 30
0.0
 40
0.0250000000000003
100
AcDbArc
 50
191.8152614633
 51
18.1847385367
  0
ARC
  5
CF
330
1F
100
AcDbEntity
  8
0
  6
Continuous
 62
     7
100
AcDbCircle
 10
1.81
 20
0.5
 30
0.0
 40
0.2250000000000008
100
AcDbArc
 50
276.3694770734
 51
278.6305229266
  0
ARC
  5
D0
330
1F
100
AcDbEntity
  8
0
  6
Continuous
 62
     7
100
AcDbCircle
 10
1.81
 20
0.275
 30
0.0
 40
0.0250000000000002
100
AcDbArc
 50
176.8152614633
 51
3.1847385367
  0
ARC
  5
D1
330
1F
100
AcDbEntity
  8
0
  6
Continuous
 62
     7
100
AcDbCircle
 10
1.81
 20
0.5
 30
0.0
 40
0.2249999999999998
100
AcDbArc
 50
261.3694770734
 51
263.6305229266
  0
ARC
  5
D2
330
1F
100
AcDbEntity
  8
0
  6
Continuous
 62
     7
100
AcDbCircle
 10
1.7517657149
 20
0.2826666891
 30
0.0
 40
0.0250000000000003
100
AcDbArc
 50
161.8152614633
 51
348.1847385367
  0
ARC
  5
D3
330
1F
100
AcDbEntity
  8
0
  6
Continuous
 62
     7
100
AcDbCircle
 10
1.81
 20
0.5
 30
0.0
 40
0.2249999999999995
100
AcDbArc
 50
246.3694770734
 51
248.6305229266
  0
ARC
  5
D4
330
1F
100
AcDbEntity
  8
0
  6
Continuous
 62
     7
100
AcDbCircle
 10
1.6975
 20
0.3051442841
 30
0.0
 40
0.0250000000000015
100
AcDbArc
 50
146.8152614633
 51
333.1847385367
  0
ARC
  5
D5
330
1F
100
AcDbEntity
  8
0
  6
Continuous
 62
     7
100
AcDbCircle
 10
1.81
 20
0.5
 30
0.0
 40
0.2249999999999995
100
AcDbArc
 50
231.3694770734
 51
233.6305229266
  0
ARC
  5
D6
330
1F
100
AcDbEntity
  8
0
  6
Continuous
 62
     7
100
AcDbCircle
 10
1.6509009742
 20
0.3409009742
 30
0.0
 40
0.0250000000000005
100
AcDbArc
 50
131.8152614633
 51
318.1847385367
  0
ARC
  5
D7
330
1F
100
AcDbEntity
  8
0
  6
Continuous
 62
     7
100
AcDbCircle
 10
1.81
 20
0.5
 30
0.0
 40
0.2249999999999996
100
AcDbArc
 50
216.3694770734
 51
218.6305229266
  0
ARC
  5
D8
330
1F
100
AcDbEntity
  8
0
  6
Continuous
 62
     7
100
AcDbCircle
 10
1.6151442841
 20
0.3875
 30
0.0
 40
0.0250000000000002
100
AcDbArc
 50
116.8152614633
 51
303.1847385367
  0
ARC
  5
D9
330
1F
100
AcDbEntity
  8
0
  6
Continuous
 62
     7
100
AcDbCircle
 10
1.81
 20
0.5
 30
0.0
 40
0.2249999999999998
100
AcDbArc
 50
201.3694770734
 51
203.6305229266
  0
ARC
  5
DA
330
1F
100
AcDbEntity
  8
0
  6
Continuous
 62
     7
100
AcDbCircle
 10
1.5926666891
 20
0.4417657149
 30
0.0
 40
0.025
100
AcDbArc
 50
101.8152614633
 51
288.1847385367
  0
ARC
  5
DB
330
1F
100
AcDbEntity
  8
0
  6
Continuous
 62
     7
100
AcDbCircle
 10
1.81
 20
0.5
 30
0.0
 40
0.2249999999999998
100
AcDbArc
 50
186.3694770734
 51
188.6305229266
  0
ARC
  5
DC
330
1F
100
AcDbEntity
  8
0
  6
Continuous
 62
     7
100
AcDbCircle
 10
1.585
 20
0.5
 30
0.0
 40
0.0250000000000003
100
AcDbArc
 50
86.8152614633
 51
273.1847385367
  0
ARC
  5
DD
330
1F
100
AcDbEntity
  8
0
  6
Continuous
 62
     7
100
AcDbCircle
 10
1.81
 20
0.5
 30
0.0
 40
0.2250000000000001
100
AcDbArc
 50
171.3694770734
 51
173.6305229266
  0
ARC
  5
DE
330
1F
100
AcDbEntity
  8
0
  6
Continuous
 62
     7
100
AcDbCircle
 10
1.5926666891
 20
0.5582342851
 30
0.0
 40
0.0250000000000002
100
AcDbArc
 50
71.8152614633
 51
258.1847385367
  0
ARC
  5
DF
330
1F
100
AcDbEntity
  8
0
  6
Continuous
 62
     7
100
AcDbCircle
 10
1.81
 20
0.5
 30
0.0
 40
0.2250000000000004
100
AcDbArc
 50
156.3694770734
 51
158.6305229266
  0
ARC
  5
E0
330
1F
100
AcDbEntity
  8
0
  6
Continuous
 62
     7
100
AcDbCircle
 10
1.6151442841
 20
0.6125
 30
0.0
 40
0.0249999999999998
100
AcDbArc
 50
56.8152614633
 51
243.1847385367
  0
ARC
  5
E1
330
1F
100
AcDbEntity
  8
0
  6
Continuous
 62
     7
100
AcDbCircle
 10
1.81
 20
0.5
 30
0.0
 40
0.225
100
AcDbArc
 50
141.3694770734
 51
143.6305229266
  0
ARC
  5
E2
330
1F
100
AcDbEntity
  8
0
  6
Continuous
 62
     7
100
AcDbCircle
 10
1.6509009742
 20
0.6590990258
 30
0.0
 40
0.0250000000000005
100
AcDbArc
 50
41.8152614633
 51
228.1847385367
  0
ARC
  5
E3
330
1F
100
AcDbEntity
  8
0
  6
Continuous
 62
     7
100
AcDbCircle
 10
1.81
 20
0.5
 30
0.0
 40
0.2250000000000002
100
AcDbArc
 50
126.3694770734
 51
128.6305229266
  0
ARC
  5
E4
330
1F
100
AcDbEntity
  8
0
  6
Continuous
 62
     7
100
AcDbCircle
 10
1.6975
 20
0.6948557159
 30
0.0
 40
0.0250000000000004
100
AcDbArc
 50
26.8152614633
 51
213.1847385367
  0
ARC
  5
E5
330
1F
100
AcDbEntity
  8
0
  6
Continuous
 62
     7
100
AcDbCircle
 10
1.81
 20
0.5
 30
0.0
 40
0.225
100
AcDbArc
 50
111.3694770734
 51
113.6305229266
  0
ARC
  5
E6
330
1F
100
AcDbEntity
  8
0
  6
Continuous
 62
     7
100
AcDbCircle
 10
1.7517657149
 20
0.7173333109
 30
0.0
 40
0.0250000000000003
100
AcDbArc
 50
11.8152614633
 51
198.1847385367
  0
ARC
  5
E7
330
1F
100
AcDbEntity
  8
0
  6
Continuous
 62
     7
100
AcDbCircle
 10
1.81
 20
0.5
 30
0.0
 40
0.2250000000000011
100
AcDbArc
 50
96.3694770734
 51
98.6305229266
  0
ARC
  5
E8
330
1F
100
AcDbEntity
  8
0
  6
Continuous
 62
     7
100
AcDbCircle
 10
-1.8195288237
 20
0.2860122838
 30
0.0
 40
0.0250000000000003
100
AcDbArc
 50
158.8152614633
 51
345.1847385367
  0
ARC
  5
E9
330
1F
100
AcDbEntity
  8
0
  6
Continuous
 62
     7
100
AcDbCircle
 10
-1.75
 20
0.5
 30
0.0
 40
0.2250000000000003
100
AcDbArc
 50
243.3694770734
 51
245.6305229266
  0
ARC
  5
EA
330
1F
100
AcDbEntity
  8
0
  6
Continuous
 62
     7
100
AcDbCircle
 10
-1.8725437829
 20
0.3112991222
 30
0.0
 40
0.025
100
AcDbArc
 50
143.8152614633
 51
330.1847385367
  0
ARC
  5
EB
330
1F
100
AcDbEntity
  8
0
  6
Continuous
 62
     7
100
AcDbCircle
 10
-1.75
 20
0.5
 30
0.0
 40
0.2250000000000001
100
AcDbArc
 50
228.3694770734
 51
230.6305229266
  0
ARC
  5
EC
330
1F
100
AcDbEntity
  8
0
  6
Continuous
 62
     7
100
AcDbCircle
 10
-1.9172075857
 20
0.3494456136
 30
0.0
 40
0.0250000000000007
100
AcDbArc
 50
128.8152614633
 51
315.1847385367
  0
ARC
  5
ED
330
1F
100
AcDbEntity
  8
0
  6
Continuous
 62
     7
100
AcDbCircle
 10
-1.75
 20
0.5
 30
0.0
 40
0.225
100
AcDbArc
 50
213.3694770734
 51
215.6305229266
  0
ARC
  5
EE
330
1F
100
AcDbEntity
  8
0
  6
Continuous
 62
     7
100
AcDbCircle
 10
-1.9504764679
 20
0.3978521376
 30
0.0
 40
0.0250000000000004
100
AcDbArc
 50
113.8152614633
 51
300.1847385367
  0
ARC
  5
EF
330
1F
100
AcDbEntity
  8
0
  6
Continuous
 62
     7
100
AcDbCircle
 10
-1.75
 20
0.5
 30
0.0
 40
0.225
100
AcDbArc
 50
198.3694770734
 51
200.6305229266
  0
ARC
  5
F0
330
1F
100
AcDbEntity
  8
0
  6
Continuous
 62
     7
100
AcDbCircle
 10
-1.9700832102
 20
0.4532198696
 30
0.0
 40
0.0250000000000003
100
AcDbArc
 50
98.8152614633
 51
285.1847385367
  0
ARC
  5
F1
330
1F
100
AcDbEntity
  8
0
  6
Continuous
 62
     7
100
AcDbCircle
 10
-1.75
 20
0.5
 30
0.0
 40
0.2250000000000001
100
AcDbArc
 50
183.3694770734
 51
185.6305229266
  0
ARC
  5
F2
330
1F
100
AcDbEntity
  8
0
  6
Continuous
 62
     7
100
AcDbCircle
 10
-1.9746916453
 20
0.5117755902
 30
0.0
 40
0.0250000000000001
100
AcDbArc
 50
83.8152614633
 51
270.1847385367
  0
ARC
  5
F3
330
1F
100
AcDbEntity
  8
0
  6
Continuous
 62
     7
100
AcDbCircle
 10
-1.75
 20
0.5
 30
0.0
 40
0.2250000000000009
100
AcDbArc
 50
168.3694770734
 51
170.6305229266
  0
ARC
  5
F4
330
1F
100
AcDbEntity
  8
0
  6
Continuous
 62
     7
100
AcDbCircle
 10
-1.9639877162
 20
0.5695288237
 30
0.0
 40
0.0250000000000003
100
AcDbArc
 50
68.8152614633
 51
255.1847385367
  0
ARC
  5
F5
330
1F
100
AcDbEntity
  8
0
  6
Continuous
 62
     7
100
AcDbCircle
 10
-1.75
 20
0.5
 30
0.0
 40
0.2249999999999998
100
AcDbArc
 50
153.3694770734
 51
155.6305229266
  0
ARC
  5
F6
330
1F
100
AcDbEntity
  8
0
  6
Continuous
 62
     7
100
AcDbCircle
 10
-1.9387008778
 20
0.6225437829
 30
0.0
 40
0.025
100
AcDbArc
 50
53.8152614633
 51
240.1847385367
  0
ARC
  5
F7
330
1F
100
AcDbEntity
  8
0
  6
Continuous
 62
     7
100
AcDbCircle
 10
-1.75
 20
0.5
 30
0.0
 40
0.2250000000000001
100
AcDbArc
 50
138.3694770734
 51
140.6305229266
  0
ARC
  5
F8
330
1F
100
AcDbEntity
  8
0
  6
Continuous
 62
     7
100
AcDbCircle
 10
-1.9005543864
 20
0.6672075857
 30
0.0
 40
0.025
100
AcDbArc
 50
38.8152614633
 51
225.1847385367
  0
ARC
  5
F9
330
1F
100
AcDbEntity
  8
0
  6
Continuous
 62
     7
100
AcDbCircle
 10
-1.75
 20
0.5
 30
0.0
 40
0.2250000000000001
100
AcDbArc
 50
123.3694770734
 51
125.6305229266
  0
ARC
  5
FA
330
1F
100
AcDbEntity
  8
0
  6
Continuous
 62
     7
100
AcDbCircle
 10
-1.8521478624
 20
0.7004764679
 30
0.0
 40
0.0249999999999997
100
AcDbArc
 50
23.8152614633
 51
210.1847385367
  0
ARC
  5
FB
330
1F
100
AcDbEntity
  8
0
  6
Continuous
 62
     7
100
AcDbCircle
 10
-1.75
 20
0.5
 30
0.0
 40
0.2250000000000002
100
AcDbArc
 50
108.3694770734
 51
110.6305229266
  0
ARC
  5
FC
330
1F
100
AcDbEntity
  8
0
  6
Continuous
 62
     7
100
AcDbCircle
 10
-1.7967801304
 20
0.7200832102
 30
0.0
 40
0.0250000000000002
100
AcDbArc
 50
8.8152614633
 51
195.1847385367
  0
ARC
  5
FD
330
1F
100
AcDbEntity
  8
0
  6
Continuous
 62
     7
100
AcDbCircle
 10
-1.75
 20
0.5
 30
0.0
 40
0.2249999999999999
100
AcDbArc
 50
93.3694770734
 51
95.6305229266
  0
ARC
  5
FE
330
1F
100
AcDbEntity
  8
0
  6
Continuous
 62
     7
100
AcDbCircle
 10
-1.7382244098
 20
0.7246916453
 30
0.0
 40
0.025
100
AcDbArc
 50
353.8152614633
 51
180.1847385367
  0
ARC
  5
FF
330
1F
100
AcDbEntity
  8
0
  6
Continuous
 62
     7
100
AcDbCircle
 10
-1.75
 20
0.5
 30
0.0
 40
0.2250000000000007
100
AcDbArc
 50
78.3694770734
 51
80.6305229266
  0
ARC
  5
100
330
1F
100
AcDbEntity
  8
0
  6
Continuous
 62
     7
100
AcDbCircle
 10
-1.6804711763
 20
0.7139877162
 30
0.0
 40
0.0250000000000004
100
AcDbArc
 50
338.8152614633
 51
165.1847385367
  0
ARC
  5
101
330
1F
100
AcDbEntity
  8
0
  6
Continuous
 62
     7
100
AcDbCircle
 10
-1.75
 20
0.5
 30
0.0
 40
0.225
100
AcDbArc
 50
63.3694770734
 51
65.6305229266
  0
ARC
  5
102
330
1F
100
AcDbEntity
  8
0
  6
Continuous
 62
     7
100
AcDbCircle
 10
-1.6274562171
 20
0.6887008778
 30
0.0
 40
0.0250000000000001
100
AcDbArc
 50
323.8152614633
 51
150.1847385367
  0
ARC
  5
103
330
1F
100
AcDbEntity
  8
0
  6
Continuous
 62
     7
100
AcDbCircle
 10
-1.75
 20
0.5
 30
0.0
 40
0.2249999999999999
100
AcDbArc
 50
48.3694770734
 51
50.6305229266
  0
ARC
  5
104
330
1F
100
AcDbEntity
  8
0
  6
Continuous
 62
     7
100
AcDbCircle
 10
-1.5827924143
 20
0.6505543864
 30
0.0
 40
0.0250000000000002
100
AcDbArc
 50
308.8152614633
 51
135.1847385367
  0
ARC
  5
105
330
1F
100
AcDbEntity
  8
0
  6
Continuous
 62
     7
100
AcDbCircle
 10
-1.75
 20
0.5
 30
0.0
 40
0.2250000000000005
100
AcDbArc
 50
33.3694770734
 51
35.6305229266
  0
ARC
  5
106
330
1F
100
AcDbEntity
  8
0
  6
Continuous
 62
     7
100
AcDbCircle
 10
-1.5495235321
 20
0.6021478624
 30
0.0
 40
0.0250000000000008
100
AcDbArc
 50
293.8152614633
 51
120.1847385367
  0
ARC
  5
107
330
1F
100
AcDbEntity
  8
0
  6
Continuous
 62
     7
100
AcDbCircle
 10
-1.75
 20
0.5
 30
0.0
 40
0.225
100
AcDbArc
 50
18.3694770734
 51
20.6305229266
  0
ARC
  5
108
330
1F
100
AcDbEntity
  8
0
  6
Continuous
 62
     7
100
AcDbCircle
 10
-1.5299167898
 20
0.5467801304
 30
0.0
 40
0.0250000000000004
100
AcDbArc
 50
278.8152614633
 51
105.1847385367
  0
ARC
  5
109
330
1F
100
AcDbEntity
  8
0
  6
Continuous
 62
     7
100
AcDbCircle
 10
-1.75
 20
0.5
 30
0.0
 40
0.2250000000000015
100
AcDbArc
 50
3.3694770734
 51
5.6305229266
  0
ARC
  5
10A
330
1F
100
AcDbEntity
  8
0
  6
Continuous
 62
     7
100
AcDbCircle
 10
-1.5253083547
 20
0.4882244098
 30
0.0
 40
0.0250000000000005
100
AcDbArc
 50
263.8152614633
 51
90.1847385367
  0
ARC
  5
10B
330
1F
100
AcDbEntity
  8
0
  6
Continuous
 62
     7
100
AcDbCircle
 10
-1.75
 20
0.5
 30
0.0
 40
0.2250000000000008
100
AcDbArc
 50
348.3694770734
 51
350.6305229266
  0
ARC
  5
10C
330
1F
100
AcDbEntity
  8
0
  6
Continuous
 62
     7
100
AcDbCircle
 10
-1.5360122838
 20
0.4304711763
 30
0.0
 40
0.0250000000000003
100
AcDbArc
 50
248.8152614633
 51
75.1847385367
  0
ARC
  5
10D
330
1F
100
AcDbEntity
  8
0
  6
Continuous
 62
     7
100
AcDbCircle
 10
-1.75
 20
0.5
 30
0.0
 40
0.2250000000000014
100
AcDbArc
 50
333.3694770734
 51
335.6305229266
  0
ARC
  5
10E
330
1F
100
AcDbEntity
  8
0
  6
Continuous
 62
     7
100
AcDbCircle
 10
-1.5612991222
 20
0.3774562171
 30
0.0
 40
0.0250000000000004
100
AcDbArc
 50
233.8152614633
 51
60.1847385367
  0
ARC
  5
10F
330
1F
100
AcDbEntity
  8
0
  6
Continuous
 62
     7
100
AcDbCircle
 10
-1.75
 20
0.5
 30
0.0
 40
0.2250000000000003
100
AcDbArc
 50
318.3694770734
 51
320.6305229266
  0
ARC
  5
110
330
1F
100
AcDbEntity
  8
0
  6
Continuous
 62
     7
100
AcDbCircle
 10
-1.5994456136
 20
0.3327924143
 30
0.0
 40
0.025
100
AcDbArc
 50
218.8152614633
 51
45.1847385367
  0
ARC
  5
111
330
1F
100
AcDbEntity
  8
0
  6
Continuous
 62
     7
100
AcDbCircle
 10
-1.75
 20
0.5
 30
0.0
 40
0.225
100
AcDbArc
 50
303.3694770734
 51
305.6305229266
  0
ARC
  5
112
330
1F
100
AcDbEntity
  8
0
  6
Continuous
 62
     7
100
AcDbCircle
 10
-1.6478521376
 20
0.2995235321
 30
0.0
 40
0.0250000000000013
100
AcDbArc
 50
203.8152614633
 51
30.1847385367
  0
ARC
  5
113
330
1F
100
AcDbEntity
  8
0
  6
Continuous
 62
     7
100
AcDbCircle
 10
-1.75
 20
0.5
 30
0.0
 40
0.2250000000000009
100
AcDbArc
 50
288.3694770734
 51
290.6305229266
  0
ARC
  5
114
330
1F
100
AcDbEntity
  8
0
  6
Continuous
 62
     7
100
AcDbCircle
 10
-1.7032198696
 20
0.2799167898
 30
0.0
 40
0.0250000000000004
100
AcDbArc
 50
188.8152614633
 51
15.1847385367
  0
ARC
  5
115
330
1F
100
AcDbEntity
  8
0
  6
Continuous
 62
     7
100
AcDbCircle
 10
-1.75
 20
0.5
 30
0.0
 40
0.2250000000000006
100
AcDbArc
 50
273.3694770734
 51
275.6305229266
  0
ARC
  5
116
330
1F
100
AcDbEntity
  8
0
  6
Continuous
 62
     7
100
AcDbCircle
 10
-1.7617755902
 20
0.2753083547
 30
0.0
 40
0.0250000000000004
100
AcDbArc
 50
173.8152614633
 51
0.1847385367
  0
ARC
  5
117
330
1F
100
AcDbEntity
  8
0
  6
Continuous
 62
     7
100
AcDbCircle
 10
-1.75
 20
0.5
 30
0.0
 40
0.2250000000000004
100
AcDbArc
 50
258.3694770734
 51
260.6305229266
  0
LINE
  5
118
330
1F
100
AcDbEntity
  8
0
  6
Continuous
 62
     7
100
AcDbLine
 10
-1.9025
 20
1.315
 30
0.0
 11
-1.9025
 21
1.0975
 31
0.0
  0
LINE
  5
119
330
1F
100
AcDbEntity
  8
0
  6
Continuous
 62
     7
100
AcDbLine
 10
-1.7776481772
 20
1.315
 30
0.0
 11
-1.9025
 21
1.315
 31
0.0
  0
LINE
  5
11A
330
1F
100
AcDbEntity
  8
0
  6
Continuous
 62
     7
100
AcDbLine
 10
-1.5723518228
 20
1.315
 30
0.0
 11
-1.7776481772
 21
1.315
 31
0.0
  0
LINE
  5
11B
330
1F
100
AcDbEntity
  8
0
  6
Continuous
 62
     7
100
AcDbLine
 10
-1.4475
 20
1.315
 30
0.0
 11
-1.5723518228
 21
1.315
 31
0.0
  0
LINE
  5
11C
330
1F
100
AcDbEntity
  8
0
  6
Continuous
 62
     7
100
AcDbLine
 10
-1.4475
 20
1.0975
 30
0.0
 11
-1.4475
 21
1.315
 31
0.0
  0
LINE
  5
11D
330
1F
100
AcDbEntity
  8
0
  6
Continuous
 62
     7
100
AcDbLine
 10
-1.9025
 20
1.0975
 30
0.0
 11
-1.4475
 21
1.0975
 31
0.0
  0
LINE
  5
11E
330
1F
100
AcDbEntity
  8
0
  6
Continuous
 62
     7
100
AcDbLine
 10
-1.5723518228
 20
1.335
 30
0.0
 11
-1.4475
 21
1.335
 31
0.0
  0
LINE
  5
11F
330
1F
100
AcDbEntity
  8
0
  6
Continuous
 62
     7
100
AcDbLine
 10
-1.7776481772
 20
1.335
 30
0.0
 11
-1.5723518228
 21
1.335
 31
0.0
  0
LINE
  5
120
330
1F
100
AcDbEntity
  8
0
  6
Continuous
 62
     7
100
AcDbLine
 10
-1.9025
 20
1.335
 30
0.0
 11
-1.7776481772
 21
1.335
 31
0.0
  0
LINE
  5
121
330
1F
100
AcDbEntity
  8
0
  6
Continuous
 62
     7
100
AcDbLine
 10
-1.9025
 20
1.5525
 30
0.0
 11
-1.9025
 21
1.335
 31
0.0
  0
LINE
  5
122
330
1F
100
AcDbEntity
  8
0
  6
Continuous
 62
     7
100
AcDbLine
 10
-1.4475
 20
1.5525
 30
0.0
 11
-1.9025
 21
1.5525
 31
0.0
  0
LINE
  5
123
330
1F
100
AcDbEntity
  8
0
  6
Continuous
 62
     7
100
AcDbLine
 10
-1.4475
 20
1.335
 30
0.0
 11
-1.4475
 21
1.5525
 31
0.0
  0
LINE
  5
124
330
1F
100
AcDbEntity
  8
0
  6
Continuous
 62
     7
100
AcDbLine
 10
-0.8848518228
 20
1.335
 30
0.0
 11
-0.76
 21
1.335
 31
0.0
  0
LINE
  5
125
330
1F
100
AcDbEntity
  8
0
  6
Continuous
 62
     7
100
AcDbLine
 10
-1.0901481772
 20
1.335
 30
0.0
 11
-0.8848518228
 21
1.335
 31
0.0
  0
LINE
  5
126
330
1F
100
AcDbEntity
  8
0
  6
Continuous
 62
     7
100
AcDbLine
 10
-1.215
 20
1.335
 30
0.0
 11
-1.0901481772
 21
1.335
 31
0.0
  0
LINE
  5
127
330
1F
100
AcDbEntity
  8
0
  6
Continuous
 62
     7
100
AcDbLine
 10
-1.215
 20
1.5525
 30
0.0
 11
-1.215
 21
1.335
 31
0.0
  0
LINE
  5
128
330
1F
100
AcDbEntity
  8
0
  6
Continuous
 62
     7
100
AcDbLine
 10
-0.76
 20
1.5525
 30
0.0
 11
-1.215
 21
1.5525
 31
0.0
  0
LINE
  5
129
330
1F
100
AcDbEntity
  8
0
  6
Continuous
 62
     7
100
AcDbLine
 10
-0.76
 20
1.335
 30
0.0
 11
-0.76
 21
1.5525
 31
0.0
  0
LINE
  5
12A
330
1F
100
AcDbEntity
  8
0
  6
Continuous
 62
     7
100
AcDbLine
 10
-1.215
 20
1.315
 30
0.0
 11
-1.215
 21
1.0975
 31
0.0
  0
LINE
  5
12B
330
1F
100
AcDbEntity
  8
0
  6
Continuous
 62
     7
100
AcDbLine
 10
-1.0901481772
 20
1.315
 30
0.0
 11
-1.215
 21
1.315
 31
0.0
  0
LINE
  5
12C
330
1F
100
AcDbEntity
  8
0
  6
Continuous
 62
     7
100
AcDbLine
 10
-0.8848518228
 20
1.315
 30
0.0
 11
-1.0901481772
 21
1.315
 31
0.0
  0
LINE
  5
12D
330
1F
100
AcDbEntity
  8
0
  6
Continuous
 62
     7
100
AcDbLine
 10
-0.76
 20
1.315
 30
0.0
 11
-0.8848518228
 21
1.315
 31
0.0
  0
LINE
  5
12E
330
1F
100
AcDbEntity
  8
0
  6
Continuous
 62
     7
100
AcDbLine
 10
-0.76
 20
1.0975
 30
0.0
 11
-0.76
 21
1.315
 31
0.0
  0
LINE
  5
12F
330
1F
100
AcDbEntity
  8
0
  6
Continuous
 62
     7
100
AcDbLine
 10
-1.215
 20
1.0975
 30
0.0
 11
-0.76
 21
1.0975
 31
0.0
  0
LINE
  5
130
330
1F
100
AcDbEntity
  8
0
  6
Continuous
 62
     7
100
AcDbLine
 10
-0.5275
 20
1.315
 30
0.0
 11
-0.5275
 21
1.0975
 31
0.0
  0
LINE
  5
131
330
1F
100
AcDbEntity
  8
0
  6
Continuous
 62
     7
100
AcDbLine
 10
-0.4026481772
 20
1.315
 30
0.0
 11
-0.5275
 21
1.315
 31
0.0
  0
LINE
  5
132
330
1F
100
AcDbEntity
  8
0
  6
Continuous
 62
     7
100
AcDbLine
 10
-0.1973518228
 20
1.315
 30
0.0
 11
-0.4026481772
 21
1.315
 31
0.0
  0
LINE
  5
133
330
1F
100
AcDbEntity
  8
0
  6
Continuous
 62
     7
100
AcDbLine
 10
-0.0725
 20
1.315
 30
0.0
 11
-0.1973518228
 21
1.315
 31
0.0
  0
LINE
  5
134
330
1F
100
AcDbEntity
  8
0
  6
Continuous
 62
     7
100
AcDbLine
 10
-0.0725
 20
1.0975
 30
0.0
 11
-0.0725
 21
1.315
 31
0.0
  0
LINE
  5
135
330
1F
100
AcDbEntity
  8
0
  6
Continuous
 62
     7
100
AcDbLine
 10
-0.5275
 20
1.0975
 30
0.0
 11
-0.0725
 21
1.0975
 31
0.0
  0
LINE
  5
136
330
1F
100
AcDbEntity
  8
0
  6
Continuous
 62
     7
100
AcDbLine
 10
-0.1973518228
 20
1.335
 30
0.0
 11
-0.0725
 21
1.335
 31
0.0
  0
LINE
  5
137
330
1F
100
AcDbEntity
  8
0
  6
Continuous
 62
     7
100
AcDbLine
 10
-0.4026481772
 20
1.335
 30
0.0
 11
-0.1973518228
 21
1.335
 31
0.0
  0
LINE
  5
138
330
1F
100
AcDbEntity
  8
0
  6
Continuous
 62
     7
100
AcDbLine
 10
-0.5275
 20
1.335
 30
0.0
 11
-0.4026481772
 21
1.335
 31
0.0
  0
LINE
  5
139
330
1F
100
AcDbEntity
  8
0
  6
Continuous
 62
     7
100
AcDbLine
 10
-0.5275
 20
1.5525
 30
0.0
 11
-0.5275
 21
1.335
 31
0.0
  0
LINE
  5
13A
330
1F
100
AcDbEntity
  8
0
  6
Continuous
 62
     7
100
AcDbLine
 10
-0.0725
 20
1.5525
 30
0.0
 11
-0.5275
 21
1.5525
 31
0.0
  0
LINE
  5
13B
330
1F
100
AcDbEntity
  8
0
  6
Continuous
 62
     7
100
AcDbLine
 10
-0.0725
 20
1.335
 30
0.0
 11
-0.0725
 21
1.5525
 31
0.0
  0
LINE
  5
13C
330
1F
100
AcDbEntity
  8
0
  6
Continuous
 62
     7
100
AcDbLine
 10
0.4901481772
 20
1.335
 30
0.0
 11
0.615
 21
1.335
 31
0.0
  0
LINE
  5
13D
330
1F
100
AcDbEntity
  8
0
  6
Continuous
 62
     7
100
AcDbLine
 10
0.2848518228
 20
1.335
 30
0.0
 11
0.4901481772
 21
1.335
 31
0.0
  0
LINE
  5
13E
330
1F
100
AcDbEntity
  8
0
  6
Continuous
 62
     7
100
AcDbLine
 10
0.16
 20
1.335
 30
0.0
 11
0.2848518228
 21
1.335
 31
0.0
  0
LINE
  5
13F
330
1F
100
AcDbEntity
  8
0
  6
Continuous
 62
     7
100
AcDbLine
 10
0.16
 20
1.5525
 30
0.0
 11
0.16
 21
1.335
 31
0.0
  0
LINE
  5
140
330
1F
100
AcDbEntity
  8
0
  6
Continuous
 62
     7
100
AcDbLine
 10
0.615
 20
1.5525
 30
0.0
 11
0.16
 21
1.5525
 31
0.0
  0
LINE
  5
141
330
1F
100
AcDbEntity
  8
0
  6
Continuous
 62
     7
100
AcDbLine
 10
0.615
 20
1.335
 30
0.0
 11
0.615
 21
1.5525
 31
0.0
  0
LINE
  5
142
330
1F
100
AcDbEntity
  8
0
  6
Continuous
 62
     7
100
AcDbLine
 10
0.16
 20
1.315
 30
0.0
 11
0.16
 21
1.0975
 31
0.0
  0
LINE
  5
143
330
1F
100
AcDbEntity
  8
0
  6
Continuous
 62
     7
100
AcDbLine
 10
0.2848518228
 20
1.315
 30
0.0
 11
0.16
 21
1.315
 31
0.0
  0
LINE
  5
144
330
1F
100
AcDbEntity
  8
0
  6
Continuous
 62
     7
100
AcDbLine
 10
0.4901481772
 20
1.315
 30
0.0
 11
0.2848518228
 21
1.315
 31
0.0
  0
LINE
  5
145
330
1F
100
AcDbEntity
  8
0
  6
Continuous
 62
     7
100
AcDbLine
 10
0.615
 20
1.315
 30
0.0
 11
0.4901481772
 21
1.315
 31
0.0
  0
LINE
  5
146
330
1F
100
AcDbEntity
  8
0
  6
Continuous
 62
     7
100
AcDbLine
 10
0.615
 20
1.0975
 30
0.0
 11
0.615
 21
1.315
 31
0.0
  0
LINE
  5
147
330
1F
100
AcDbEntity
  8
0
  6
Continuous
 62
     7
100
AcDbLine
 10
0.16
 20
1.0975
 30
0.0
 11
0.615
 21
1.0975
 31
0.0
  0
LINE
  5
148
330
1F
100
AcDbEntity
  8
0
  6
Continuous
 62
     7
100
AcDbLine
 10
0.8475
 20
1.315
 30
0.0
 11
0.8475
 21
1.0975
 31
0.0
  0
LINE
  5
149
330
1F
100
AcDbEntity
  8
0
  6
Continuous
 62
     7
100
AcDbLine
 10
0.9723518228
 20
1.315
 30
0.0
 11
0.8475
 21
1.315
 31
0.0
  0
LINE
  5
14A
330
1F
100
AcDbEntity
  8
0
  6
Continuous
 62
     7
100
AcDbLine
 10
1.1776481772
 20
1.315
 30
0.0
 11
0.9723518228
 21
1.315
 31
0.0
  0
LINE
  5
14B
330
1F
100
AcDbEntity
  8
0
  6
Continuous
 62
     7
100
AcDbLine
 10
1.3025
 20
1.315
 30
0.0
 11
1.1776481772
 21
1.315
 31
0.0
  0
LINE
  5
14C
330
1F
100
AcDbEntity
  8
0
  6
Continuous
 62
     7
100
AcDbLine
 10
1.3025
 20
1.0975
 30
0.0
 11
1.3025
 21
1.315
 31
0.0
  0
LINE
  5
14D
330
1F
100
AcDbEntity
  8
0
  6
Continuous
 62
     7
100
AcDbLine
 10
0.8475
 20
1.0975
 30
0.0
 11
1.3025
 21
1.0975
 31
0.0
  0
LINE
  5
14E
330
1F
100
AcDbEntity
  8
0
  6
Continuous
 62
     7
100
AcDbLine
 10
1.1776481772
 20
1.335
 30
0.0
 11
1.3025
 21
1.335
 31
0.0
  0
LINE
  5
14F
330
1F
100
AcDbEntity
  8
0
  6
Continuous
 62
     7
100
AcDbLine
 10
0.9723518228
 20
1.335
 30
0.0
 11
1.1776481772
 21
1.335
 31
0.0
  0
LINE
  5
150
330
1F
100
AcDbEntity
  8
0
  6
Continuous
 62
     7
100
AcDbLine
 10
0.8475
 20
1.335
 30
0.0
 11
0.9723518228
 21
1.335
 31
0.0
  0
LINE
  5
151
330
1F
100
AcDbEntity
  8
0
  6
Continuous
 62
     7
100
AcDbLine
 10
0.8475
 20
1.5525
 30
0.0
 11
0.8475
 21
1.335
 31
0.0
  0
LINE
  5
152
330
1F
100
AcDbEntity
  8
0
  6
Continuous
 62
     7
100
AcDbLine
 10
1.3025
 20
1.5525
 30
0.0
 11
0.8475
 21
1.5525
 31
0.0
  0
LINE
  5
153
330
1F
100
AcDbEntity
  8
0
  6
Continuous
 62
     7
100
AcDbLine
 10
1.3025
 20
1.335
 30
0.0
 11
1.3025
 21
1.5525
 31
0.0
  0
LINE
  5
154
330
1F
100
AcDbEntity
  8
0
  6
Continuous
 62
     7
100
AcDbLine
 10
-2.0518846269
 20
0.5504362933
 30
0.0
 11
-2.0486251637
 21
0.5612189729
 31
0.0
  0
LINE
  5
155
330
1F
100
AcDbEntity
  8
0
  6
Continuous
 62
     7
100
AcDbLine
 10
-2.0486251637
 20
0.5612189729
 30
0.0
 11
-2.0204717319
 21
0.5612189729
 31
0.0
  0
LINE
  5
156
330
1F
100
AcDbEntity
  8
0
  6
Continuous
 62
     7
100
AcDbLine
 10
-2.0204717319
 20
0.5612189729
 30
0.0
 11
-2.0173296078
 21
0.5510486479
 31
0.0
  0
LINE
  5
157
330
1F
100
AcDbEntity
  8
0
  6
Continuous
 62
     7
100
AcDbLine
 10
-2.0076446563
 20
0.5552730513
 30
0.0
 11
-2.0292696794
 21
0.6261547893
 31
0.0
  0
LINE
  5
158
330
1F
100
AcDbEntity
  8
0
  6
Continuous
 62
     7
100
AcDbLine
 10
-2.0396836321
 20
0.6273152888
 30
0.0
 11
-2.0610679751
 21
0.5561340235
 31
0.0
  0
LINE
  5
159
330
1F
100
AcDbEntity
  8
0
  6
Continuous
 62
     7
100
AcDbLine
 10
-2.0292100509
 20
0.3859356147
 30
0.0
 11
-2.0292100509
 21
0.4582215155
 31
0.0
  0
LINE
  5
15A
330
1F
100
AcDbEntity
  8
0
  6
Continuous
 62
     7
100
AcDbLine
 10
-2.0393199661
 20
0.457850569
 30
0.0
 11
-2.0393199839
 21
0.3859231847
 31
0.0
  0
LINE
  5
15B
330
1F
100
AcDbEntity
  8
0
  6
Continuous
 62
     7
100
AcDbLine
 10
-1.9281570104
 20
0.3065770962
 30
0.0
 11
-1.9281642375
 21
0.2558696948
 31
0.0
  0
LINE
  5
15C
330
1F
100
AcDbEntity
  8
0
  6
Continuous
 62
     7
100
AcDbLine
 10
-1.9281642375
 20
0.2558696948
 30
0.0
 11
-1.9556001925
 21
0.3100732619
 31
0.0
  0
LINE
  5
15D
330
1F
100
AcDbEntity
  8
0
  6
Continuous
 62
     7
100
AcDbLine
 10
-1.9653964102
 20
0.3067952958
 30
0.0
 11
-1.9654036196
 21
0.2363665422
 31
0.0
  0
LINE
  5
15E
330
1F
100
AcDbEntity
  8
0
  6
Continuous
 62
     7
100
AcDbLine
 10
-1.9550864787
 20
0.2356076735
 30
0.0
 11
-1.9550974526
 21
0.2871507254
 31
0.0
  0
LINE
  5
15F
330
1F
100
AcDbEntity
  8
0
  6
Continuous
 62
     7
100
AcDbLine
 10
-1.9550974526
 20
0.2871507254
 30
0.0
 11
-1.9277871826
 21
0.2325672267
 31
0.0
  0
LINE
  5
160
330
1F
100
AcDbEntity
  8
0
  6
Continuous
 62
     7
100
AcDbLine
 10
-1.9178470789
 20
0.2354803904
 30
0.0
 11
-1.9178580705
 21
0.3070338096
 31
0.0
  0
LINE
  5
161
330
1F
100
AcDbEntity
  8
0
  6
Continuous
 62
     7
100
AcDbLine
 10
-2.0345484478
 20
0.6077390833
 30
0.0
 11
-2.0453573547
 21
0.5715471055
 31
0.0
  0
LINE
  5
162
330
1F
100
AcDbEntity
  8
0
  6
Continuous
 62
     7
100
AcDbLine
 10
-2.0453573547
 20
0.5715471055
 30
0.0
 11
-2.023739541
 21
0.5715471055
 31
0.0
  0
LINE
  5
163
330
1F
100
AcDbEntity
  8
0
  6
Continuous
 62
     7
100
AcDbLine
 10
-2.023739541
 20
0.5715471055
 30
0.0
 11
-2.0345484478
 21
0.6077390833
 31
0.0
  0
LINE
  5
164
330
1F
100
AcDbEntity
  8
0
  6
Continuous
 62
     7
100
AcDbLine
 10
-1.743708578
 20
0.8072951729
 30
0.0
 11
-1.7652012394
 21
0.8072951729
 31
0.0
  0
LINE
  5
165
330
1F
100
AcDbEntity
  8
0
  6
Continuous
 62
     7
100
AcDbLine
 10
-1.7652012394
 20
0.8072951729
 30
0.0
 11
-1.7652012394
 21
0.8283877662
 31
0.0
  0
LINE
  5
166
330
1F
100
AcDbEntity
  8
0
  6
Continuous
 62
     7
100
AcDbLine
 10
-1.7652012394
 20
0.8283877662
 30
0.0
 11
-1.7345341083
 21
0.8283877662
 31
0.0
  0
LINE
  5
167
330
1F
100
AcDbEntity
  8
0
  6
Continuous
 62
     7
100
AcDbLine
 10
-1.7345260111
 20
0.8387159165
 30
0.0
 11
-1.768560622
 21
0.8387158987
 31
0.0
  0
LINE
  5
168
330
1F
100
AcDbEntity
  8
0
  6
Continuous
 62
     7
100
AcDbLine
 10
-1.7755293542
 20
0.8317153457
 30
0.0
 11
-1.775529372
 21
0.761851624
 31
0.0
  0
LINE
  5
169
330
1F
100
AcDbEntity
  8
0
  6
Continuous
 62
     7
100
AcDbLine
 10
-1.7652012394
 20
0.7618551044
 30
0.0
 11
-1.7652122133
 21
0.7969670403
 31
0.0
  0
LINE
  5
16A
330
1F
100
AcDbEntity
  8
0
  6
Continuous
 62
     7
100
AcDbLine
 10
-1.7652122133
 20
0.7969670403
 30
0.0
 11
-1.7439714545
 21
0.7969670403
 31
0.0
  0
LINE
  5
16B
330
1F
100
AcDbEntity
  8
0
  6
Continuous
 62
     7
100
AcDbLine
 10
-1.9556683444
 20
0.7373382279
 30
0.0
 11
-1.9556793183
 21
0.7837837761
 31
0.0
  0
LINE
  5
16C
330
1F
100
AcDbEntity
  8
0
  6
Continuous
 62
     7
100
AcDbLine
 10
-1.9659782759
 20
0.7840511274
 30
0.0
 11
-1.9659854853
 21
0.7370784056
 31
0.0
  0
LINE
  5
16D
330
1F
100
AcDbEntity
  8
0
  6
Continuous
 62
     7
100
AcDbLine
 10
-1.9172652132
 20
0.7365745293
 30
0.0
 11
-1.9172762049
 21
0.783150912
 31
0.0
  0
LINE
  5
16E
330
1F
100
AcDbEntity
  8
0
  6
Continuous
 62
     7
100
AcDbLine
 10
-1.9275751447
 20
0.7831601457
 30
0.0
 11
-1.9275823719
 21
0.7377112697
 31
0.0
  0
LINE
  5
16F
330
1F
100
AcDbEntity
  8
0
  6
Continuous
 62
     7
100
AcDbLine
 10
-1.5372917482
 20
0.9079067963
 30
0.0
 11
-1.5662031963
 21
0.9079067963
 31
0.0
  0
LINE
  5
170
330
1F
100
AcDbEntity
  8
0
  6
Continuous
 62
     7
100
AcDbLine
 10
-1.5662031963
 20
0.9079067963
 30
0.0
 11
-1.5662031963
 21
0.9289993896
 31
0.0
  0
LINE
  5
171
330
1F
100
AcDbEntity
  8
0
  6
Continuous
 62
     7
100
AcDbLine
 10
-1.5662031963
 20
0.9289993896
 30
0.0
 11
-1.5267381179
 21
0.9289993896
 31
0.0
  0
LINE
  5
172
330
1F
100
AcDbEntity
  8
0
  6
Continuous
 62
     7
100
AcDbLine
 10
-1.5262181181
 20
0.93932754
 30
0.0
 11
-1.5696870209
 21
0.9393275222
 31
0.0
  0
LINE
  5
173
330
1F
100
AcDbEntity
  8
0
  6
Continuous
 62
     7
100
AcDbLine
 10
-1.5765313112
 20
0.932617902
 30
0.0
 11
-1.5765313289
 21
0.8625286647
 31
0.0
  0
LINE
  5
174
330
1F
100
AcDbEntity
  8
0
  6
Continuous
 62
     7
100
AcDbLine
 10
-1.569930773
 20
0.8556843567
 30
0.0
 11
-1.5267381179
 21
0.8556843567
 31
0.0
  0
LINE
  5
175
330
1F
100
AcDbEntity
  8
0
  6
Continuous
 62
     7
100
AcDbLine
 10
-1.5261090183
 20
0.8660124715
 30
0.0
 11
-1.5662031963
 21
0.8660124715
 31
0.0
  0
LINE
  5
176
330
1F
100
AcDbEntity
  8
0
  6
Continuous
 62
     7
100
AcDbLine
 10
-1.5662031963
 20
0.8660124715
 30
0.0
 11
-1.5662031963
 21
0.8975786638
 31
0.0
  0
LINE
  5
177
330
1F
100
AcDbEntity
  8
0
  6
Continuous
 62
     7
100
AcDbLine
 10
-1.5662031963
 20
0.8975786638
 30
0.0
 11
-1.5377983946
 21
0.8975786638
 31
0.0
  0
LINE
  5
178
330
1F
100
AcDbEntity
  8
0
  6
Continuous
 62
     7
100
AcDbLine
 10
-1.6336996086
 20
0.9009244089
 30
0.0
 11
-1.6148253425
 21
0.9009244089
 31
0.0
  0
LINE
  5
179
330
1F
100
AcDbEntity
  8
0
  6
Continuous
 62
     7
100
AcDbLine
 10
-1.6156052356
 20
0.9289993896
 30
0.0
 11
-1.6336996086
 21
0.9289993896
 31
0.0
  0
LINE
  5
17A
330
1F
100
AcDbEntity
  8
0
  6
Continuous
 62
     7
100
AcDbLine
 10
-1.6336996086
 20
0.9289993896
 30
0.0
 11
-1.6336996086
 21
0.9009244089
 31
0.0
  0
LINE
  5
17B
330
1F
100
AcDbEntity
  8
0
  6
Continuous
 62
     7
100
AcDbLine
 10
-1.6336996086
 20
0.8622303449
 30
0.0
 11
-1.6336996086
 21
0.8905962763
 31
0.0
  0
LINE
  5
17C
330
1F
100
AcDbEntity
  8
0
  6
Continuous
 62
     7
100
AcDbLine
 10
-1.6336996086
 20
0.8905962763
 30
0.0
 11
-1.6158600859
 21
0.8905962763
 31
0.0
  0
LINE
  5
17D
330
1F
100
AcDbEntity
  8
0
  6
Continuous
 62
     7
100
AcDbLine
 10
-1.6152071918
 20
0.93932754
 30
0.0
 11
-1.6356901296
 21
0.9393275222
 31
0.0
  0
LINE
  5
17E
330
1F
100
AcDbEntity
  8
0
  6
Continuous
 62
     7
100
AcDbLine
 10
-1.6440277234
 20
0.9317451036
 30
0.0
 11
-1.6440277412
 21
0.8614751697
 31
0.0
  0
LINE
  5
17F
330
1F
100
AcDbEntity
  8
0
  6
Continuous
 62
     7
100
AcDbLine
 10
-1.6684660796
 20
0.935763613
 30
0.0
 11
-1.6866386017
 21
0.9014990296
 31
0.0
  0
LINE
  5
180
330
1F
100
AcDbEntity
  8
0
  6
Continuous
 62
     7
100
AcDbLine
 10
-1.6866386017
 20
0.9014990296
 30
0.0
 11
-1.7045605885
 21
0.9352382506
 31
0.0
  0
LINE
  5
181
330
1F
100
AcDbEntity
  8
0
  6
Continuous
 62
     7
100
AcDbLine
 10
-1.7143607306
 20
0.9311814212
 30
0.0
 11
-1.7141126457
 21
0.9306720402
 31
0.0
  0
LINE
  5
182
330
1F
100
AcDbEntity
  8
0
  6
Continuous
 62
     7
100
AcDbLine
 10
-1.7141126457
 20
0.9306720402
 30
0.0
 11
-1.6917407223
 21
0.8888151119
 31
0.0
  0
LINE
  5
183
330
1F
100
AcDbEntity
  8
0
  6
Continuous
 62
     7
100
AcDbLine
 10
-1.6917407223
 20
0.8888151119
 30
0.0
 11
-1.6917407223
 21
0.8615446889
 31
0.0
  0
LINE
  5
184
330
1F
100
AcDbEntity
  8
0
  6
Continuous
 62
     7
100
AcDbLine
 10
-1.6814125897
 20
0.8619394121
 30
0.0
 11
-1.6814125897
 21
0.8888151119
 31
0.0
  0
LINE
  5
185
330
1F
100
AcDbEntity
  8
0
  6
Continuous
 62
     7
100
AcDbLine
 10
-1.6814125897
 20
0.8888151119
 30
0.0
 11
-1.659669091
 21
0.9301646835
 31
0.0
  0
LINE
  5
186
330
1F
100
AcDbEntity
  8
0
  6
Continuous
 62
     7
100
AcDbLine
 10
-1.659669091
 20
0.9301646835
 30
0.0
 11
-1.6594177211
 21
0.9305452011
 31
0.0
  0
LINE
  5
187
330
1F
100
AcDbEntity
  8
0
  6
Continuous
 62
     7
100
AcDbLine
 10
-1.7524001957
 20
0.8620666952
 30
0.0
 11
-1.7524001957
 21
0.9289993896
 31
0.0
  0
LINE
  5
188
330
1F
100
AcDbEntity
  8
0
  6
Continuous
 62
     7
100
AcDbLine
 10
-1.7524001957
 20
0.9289993896
 30
0.0
 11
-1.7355584106
 21
0.9289993896
 31
0.0
  0
LINE
  5
189
330
1F
100
AcDbEntity
  8
0
  6
Continuous
 62
     7
100
AcDbLine
 10
-1.7351806099
 20
0.93932754
 30
0.0
 11
-1.7790673735
 21
0.9393275222
 31
0.0
  0
LINE
  5
18A
330
1F
100
AcDbEntity
  8
0
  6
Continuous
 62
     7
100
AcDbLine
 10
-1.7796933301
 20
0.9289994252
 30
0.0
 11
-1.7627283283
 21
0.9289993896
 31
0.0
  0
LINE
  5
18B
330
1F
100
AcDbEntity
  8
0
  6
Continuous
 62
     7
100
AcDbLine
 10
-1.7627283283
 20
0.9289993896
 30
0.0
 11
-1.7627283283
 21
0.8626848919
 31
0.0
  0
LINE
  5
18C
330
1F
100
AcDbEntity
  8
0
  6
Continuous
 62
     7
100
AcDbLine
 10
-1.9735091324
 20
0.9289993896
 30
0.0
 11
-1.9735091324
 21
0.8660124715
 31
0.0
  0
LINE
  5
18D
330
1F
100
AcDbEntity
  8
0
  6
Continuous
 62
     7
100
AcDbLine
 10
-1.9735091324
 20
0.8660124715
 30
0.0
 11
-1.9596170907
 21
0.8660124715
 31
0.0
  0
LINE
  5
18E
330
1F
100
AcDbEntity
  8
0
  6
Continuous
 62
     7
100
AcDbLine
 10
-1.9595009413
 20
0.9289993896
 30
0.0
 11
-1.9735091324
 21
0.9289993896
 31
0.0
  0
LINE
  5
18F
330
1F
100
AcDbEntity
  8
0
  6
Continuous
 62
     7
100
AcDbLine
 10
-1.8579724397
 20
0.93932754
 30
0.0
 11
-1.8587276859
 21
0.9393275222
 31
0.0
  0
LINE
  5
190
330
1F
100
AcDbEntity
  8
0
  6
Continuous
 62
     7
100
AcDbLine
 10
-1.8587276859
 20
0.9393275222
 30
0.0
 11
-1.8668274585
 21
0.9389331541
 31
0.0
  0
LINE
  5
191
330
1F
100
AcDbEntity
  8
0
  6
Continuous
 62
     7
100
AcDbLine
 10
-1.8697006686
 20
0.8957058015
 30
0.0
 11
-1.8561970641
 21
0.8928067726
 31
0.0
  0
LINE
  5
192
330
1F
100
AcDbEntity
  8
0
  6
Continuous
 62
     7
100
AcDbLine
 10
-1.8591907208
 20
0.8657942719
 30
0.0
 11
-1.866702395
 21
0.8657845054
 31
0.0
  0
LINE
  5
193
330
1F
100
AcDbEntity
  8
0
  6
Continuous
 62
     7
100
AcDbLine
 10
-1.8802833496
 20
0.878740782
 30
0.0
 11
-1.880284859
 21
0.8797355364
 31
0.0
  0
LINE
  5
194
330
1F
100
AcDbEntity
  8
0
  6
Continuous
 62
     7
100
AcDbLine
 10
-1.8668095238
 20
0.8556843567
 30
0.0
 11
-1.8586517742
 21
0.8556843567
 31
0.0
  0
LINE
  5
195
330
1F
100
AcDbEntity
  8
0
  6
Continuous
 62
     7
100
AcDbLine
 10
-1.8536084475
 20
0.9031427715
 30
0.0
 11
-1.8672043891
 21
0.9059167903
 31
0.0
  0
LINE
  5
196
330
1F
100
AcDbEntity
  8
0
  6
Continuous
 62
     7
100
AcDbLine
 10
-1.8661367417
 20
0.9289448753
 30
0.0
 11
-1.8598588506
 21
0.9290568695
 31
0.0
  0
LINE
  5
197
330
1F
100
AcDbEntity
  8
0
  6
Continuous
 62
     7
100
AcDbLine
 10
-1.8598588506
 20
0.9290568695
 30
0.0
 11
-1.8592304258
 21
0.9290568695
 31
0.0
  0
LINE
  5
198
330
1F
100
AcDbEntity
  8
0
  6
Continuous
 62
     7
100
AcDbLine
 10
-1.9048489889
 20
0.8614302797
 30
0.0
 11
-1.9048489889
 21
0.9337161805
 31
0.0
  0
LINE
  5
199
330
1F
100
AcDbEntity
  8
0
  6
Continuous
 62
     7
100
AcDbLine
 10
-1.9140133725
 20
0.933345234
 30
0.0
 11
-1.9140133902
 21
0.8614178497
 31
0.0
  0
LINE
  5
19A
330
1F
100
AcDbEntity
  8
0
  6
Continuous
 62
     7
100
AcDbLine
 10
-1.9598716569
 20
0.93932754
 30
0.0
 11
-1.9771173989
 21
0.9393275222
 31
0.0
  0
LINE
  5
19B
330
1F
100
AcDbEntity
  8
0
  6
Continuous
 62
     7
100
AcDbLine
 10
-1.9838372472
 20
0.9328179183
 30
0.0
 11
-1.983837265
 21
0.8632753165
 31
0.0
  0
LINE
  5
19C
330
1F
100
AcDbEntity
  8
0
  6
Continuous
 62
     7
100
AcDbLine
 10
-1.9773639922
 20
0.8556843567
 30
0.0
 11
-1.9596271412
 21
0.8556843567
 31
0.0
  0
LINE
  5
19D
330
1F
100
AcDbEntity
  8
0
  6
Continuous
 62
     7
100
AcDbLine
 10
1.8820543596
 20
0.8978503549
 30
0.0
 11
1.8820543596
 21
0.8604170472
 31
0.0
  0
LINE
  5
19E
330
1F
100
AcDbEntity
  8
0
  6
Continuous
 62
     7
100
AcDbLine
 10
1.8820543596
 20
0.8604170472
 30
0.0
 11
1.9061048054
 21
0.8604170472
 31
0.0
  0
LINE
  5
19F
330
1F
100
AcDbEntity
  8
0
  6
Continuous
 62
     7
100
AcDbLine
 10
1.9072942016
 20
0.8978503549
 30
0.0
 11
1.8820543596
 21
0.8978503549
 31
0.0
  0
LINE
  5
1A0
330
1F
100
AcDbEntity
  8
0
  6
Continuous
 62
     7
100
AcDbLine
 10
1.9390529463
 20
0.8126313329
 30
0.0
 11
1.913945241
 21
0.8471380052
 31
0.0
  0
LINE
  5
1A1
330
1F
100
AcDbEntity
  8
0
  6
Continuous
 62
     7
100
AcDbLine
 10
1.9067836486
 20
0.911621222
 30
0.0
 11
1.878404796
 21
0.9116211983
 31
0.0
  0
LINE
  5
1A2
330
1F
100
AcDbEntity
  8
0
  6
Continuous
 62
     7
100
AcDbLine
 10
1.8682835399
 20
0.9019719504
 30
0.0
 11
1.8682835162
 21
0.8098091331
 31
0.0
  0
LINE
  5
1A3
330
1F
100
AcDbEntity
  8
0
  6
Continuous
 62
     7
100
AcDbLine
 10
1.8820543596
 20
0.8091643836
 30
0.0
 11
1.8820543596
 21
0.8466462038
 31
0.0
  0
LINE
  5
1A4
330
1F
100
AcDbEntity
  8
0
  6
Continuous
 62
     7
100
AcDbLine
 10
1.8820543596
 20
0.8466462038
 30
0.0
 11
1.8968912938
 21
0.8466462038
 31
0.0
  0
LINE
  5
1A5
330
1F
100
AcDbEntity
  8
0
  6
Continuous
 62
     7
100
AcDbLine
 10
1.8968912938
 20
0.8466462038
 30
0.0
 11
1.9280655685
 21
0.8044996093
 31
0.0
  0
LINE
  5
1A6
330
1F
100
AcDbEntity
  8
0
  6
Continuous
 62
     7
100
AcDbLine
 10
1.8379295499
 20
0.907208741
 30
0.0
 11
1.8092230427
 21
0.8589780094
 31
0.0
  0
LINE
  5
1A7
330
1F
100
AcDbEntity
  8
0
  6
Continuous
 62
     7
100
AcDbLine
 10
1.8092230427
 20
0.8589780094
 30
0.0
 11
1.7805415139
 21
0.9065707155
 31
0.0
  0
LINE
  5
1A8
330
1F
100
AcDbEntity
  8
0
  6
Continuous
 62
     7
100
AcDbLine
 10
1.7674268319
 20
0.902553816
 30
0.0
 11
1.7674268082
 21
0.8092067639
 31
0.0
  0
LINE
  5
1A9
330
1F
100
AcDbEntity
  8
0
  6
Continuous
 62
     7
100
AcDbLine
 10
1.7811976517
 20
0.8088734508
 30
0.0
 11
1.7811976517
 21
0.8784172837
 31
0.0
  0
LINE
  5
1AA
330
1F
100
AcDbEntity
  8
0
  6
Continuous
 62
     7
100
AcDbLine
 10
1.7811976517
 20
0.8784172837
 30
0.0
 11
1.8020069241
 21
0.8435606539
 31
0.0
  0
LINE
  5
1AB
330
1F
100
AcDbEntity
  8
0
  6
Continuous
 62
     7
100
AcDbLine
 10
1.8167884323
 20
0.8444157426
 30
0.0
 11
1.8372506593
 21
0.8784172837
 31
0.0
  0
LINE
  5
1AC
330
1F
100
AcDbEntity
  8
0
  6
Continuous
 62
     7
100
AcDbLine
 10
1.8372506593
 20
0.8784172837
 30
0.0
 11
1.8372506593
 21
0.8085364441
 31
0.0
  0
LINE
  5
1AD
330
1F
100
AcDbEntity
  8
0
  6
Continuous
 62
     7
100
AcDbLine
 10
1.8510215264
 20
0.8077339639
 30
0.0
 11
1.8510215027
 21
0.9043337197
 31
0.0
  0
LINE
  5
1AE
330
1F
100
AcDbEntity
  8
0
  6
Continuous
 62
     7
100
AcDbLine
 10
1.688099152
 20
0.8978503549
 30
0.0
 11
1.688099152
 21
0.8138677973
 31
0.0
  0
LINE
  5
1AF
330
1F
100
AcDbEntity
  8
0
  6
Continuous
 62
     7
100
AcDbLine
 10
1.688099152
 20
0.8138677973
 30
0.0
 11
1.7066218743
 21
0.8138677973
 31
0.0
  0
LINE
  5
1B0
330
1F
100
AcDbEntity
  8
0
  6
Continuous
 62
     7
100
AcDbLine
 10
1.7067767402
 20
0.8978503549
 30
0.0
 11
1.688099152
 21
0.8978503549
 31
0.0
  0
LINE
  5
1B1
330
1F
100
AcDbEntity
  8
0
  6
Continuous
 62
     7
100
AcDbLine
 10
1.7062824527
 20
0.911621222
 30
0.0
 11
1.68328813
 21
0.9116211983
 31
0.0
  0
LINE
  5
1B2
330
1F
100
AcDbEntity
  8
0
  6
Continuous
 62
     7
100
AcDbLine
 10
1.6743283322
 20
0.9029417265
 30
0.0
 11
1.6743283086
 21
0.8102182574
 31
0.0
  0
LINE
  5
1B3
330
1F
100
AcDbEntity
  8
0
  6
Continuous
 62
     7
100
AcDbLine
 10
1.682959339
 20
0.8000969776
 30
0.0
 11
1.7066084736
 21
0.8000969776
 31
0.0
  0
LINE
  5
1B4
330
1F
100
AcDbEntity
  8
0
  6
Continuous
 62
     7
100
AcDbLine
 10
1.6505292801
 20
1.6848358468
 30
0.0
 11
1.6307548459
 21
1.6324874973
 31
0.0
  0
LINE
  5
1B5
330
1F
100
AcDbEntity
  8
0
  6
Continuous
 62
     7
100
AcDbLine
 10
1.6307548459
 20
1.6324874973
 30
0.0
 11
1.6703037143
 21
1.6324874973
 31
0.0
  0
LINE
  5
1B6
330
1F
100
AcDbEntity
  8
0
  6
Continuous
 62
     7
100
AcDbLine
 10
1.6703037143
 20
1.6324874973
 30
0.0
 11
1.6505292801
 21
1.6848358468
 31
0.0
  0
LINE
  5
1B7
330
1F
100
AcDbEntity
  8
0
  6
Continuous
 62
     7
100
AcDbLine
 10
1.6202148293
 20
1.6048488802
 30
0.0
 11
1.6255598674
 21
1.6187166539
 31
0.0
  0
LINE
  5
1B8
330
1F
100
AcDbEntity
  8
0
  6
Continuous
 62
     7
100
AcDbLine
 10
1.6255598674
 20
1.6187166539
 30
0.0
 11
1.6758338527
 21
1.6187166539
 31
0.0
  0
LINE
  5
1B9
330
1F
100
AcDbEntity
  8
0
  6
Continuous
 62
     7
100
AcDbLine
 10
1.6758338527
 20
1.6187166539
 30
0.0
 11
1.6806936713
 21
1.6056523548
 31
0.0
  0
LINE
  5
1BA
330
1F
100
AcDbEntity
  8
0
  6
Continuous
 62
     7
100
AcDbLine
 10
1.6942814742
 20
1.6103038704
 30
0.0
 11
1.6580703779
 21
1.704786195
 31
0.0
  0
LINE
  5
1BB
330
1F
100
AcDbEntity
  8
0
  6
Continuous
 62
     7
100
AcDbLine
 10
1.6433439878
 20
1.7063359426
 30
0.0
 11
1.6074612327
 21
1.6114405871
 31
0.0
  0
LINE
  5
1BC
330
1F
100
AcDbEntity
  8
0
  6
Continuous
 62
     7
100
AcDbLine
 10
1.7253385519
 20
1.6413851924
 30
0.0
 11
1.7253385519
 21
1.70331259
 31
0.0
  0
LINE
  5
1BD
330
1F
100
AcDbEntity
  8
0
  6
Continuous
 62
     7
100
AcDbLine
 10
1.7115677321
 20
1.7036690585
 30
0.0
 11
1.7115677084
 21
1.6410387627
 31
0.0
  0
LINE
  5
1BE
330
1F
100
AcDbEntity
  8
0
  6
Continuous
 62
     7
100
AcDbLine
 10
1.78895586
 20
1.6403669276
 30
0.0
 11
1.7889558363
 21
1.7024687712
 31
0.0
  0
LINE
  5
1BF
330
1F
100
AcDbEntity
  8
0
  6
Continuous
 62
     7
100
AcDbLine
 10
1.7751850402
 20
1.7024810828
 30
0.0
 11
1.7751849929
 21
1.6418825815
 31
0.0
  0
LINE
  5
1C0
330
1F
100
AcDbEntity
  8
0
  6
Continuous
 62
     7
100
AcDbLine
 10
1.8199886932
 20
1.6978503549
 30
0.0
 11
1.8199886932
 21
1.6138677973
 31
0.0
  0
LINE
  5
1C1
330
1F
100
AcDbEntity
  8
0
  6
Continuous
 62
     7
100
AcDbLine
 10
1.8199886932
 20
1.6138677973
 30
0.0
 11
1.8385114155
 21
1.6138677973
 31
0.0
  0
LINE
  5
1C2
330
1F
100
AcDbEntity
  8
0
  6
Continuous
 62
     7
100
AcDbLine
 10
1.8386662814
 20
1.6978503549
 30
0.0
 11
1.8199886932
 21
1.6978503549
 31
0.0
  0
LINE
  5
1C3
330
1F
100
AcDbEntity
  8
0
  6
Continuous
 62
     7
100
AcDbLine
 10
1.8381719939
 20
1.711621222
 30
0.0
 11
1.8151776712
 21
1.7116211983
 31
0.0
  0
LINE
  5
1C4
330
1F
100
AcDbEntity
  8
0
  6
Continuous
 62
     7
100
AcDbLine
 10
1.8062178735
 20
1.7029417265
 30
0.0
 11
1.8062178498
 21
1.6102182574
 31
0.0
  0
LINE
  5
1C5
330
1F
100
AcDbEntity
  8
0
  6
Continuous
 62
     7
100
AcDbLine
 10
1.8148488802
 20
1.6000969776
 30
0.0
 11
1.8384980148
 21
1.6000969776
 31
0.0
  0
LINE
  5
1C6
330
1F
100
AcDbEntity
  8
0
  6
Continuous
 62
     7
100
AcDbLine
 10
1.9115355512
 20
1.6077582083
 30
0.0
 11
1.9115355512
 21
1.7041394093
 31
0.0
  0
LINE
  5
1C7
330
1F
100
AcDbEntity
  8
0
  6
Continuous
 62
     7
100
AcDbLine
 10
1.8993163731
 20
1.7036448141
 30
0.0
 11
1.8993163494
 21
1.607741635
 31
0.0
  0
LINE
  5
1C8
330
1F
100
AcDbEntity
  8
0
  6
Continuous
 62
     7
100
AcDbLine
 10
1.9691402479
 20
1.7131728637
 30
0.0
 11
1.9691282441
 21
1.71317284
 31
0.0
  0
LINE
  5
1C9
330
1F
100
AcDbEntity
  8
0
  6
CENTERX2
 62
     7
100
AcDbLine
 10
1.075
 20
1.335
 30
0.0
 11
1.075
 21
1.315
 31
0.0
  0
LINE
  5
1CA
330
1F
100
AcDbEntity
  8
0
  6
CENTERX2
 62
     7
100
AcDbLine
 10
0.3875
 20
1.335
 30
0.0
 11
0.3875
 21
1.315
 31
0.0
  0
LINE
  5
1CB
330
1F
100
AcDbEntity
  8
0
  6
CENTERX2
 62
     7
100
AcDbLine
 10
-0.3
 20
1.335
 30
0.0
 11
-0.3
 21
1.315
 31
0.0
  0
LINE
  5
1CC
330
1F
100
AcDbEntity
  8
0
  6
CENTERX2
 62
     7
100
AcDbLine
 10
-0.9875
 20
1.335
 30
0.0
 11
-0.9875
 21
1.315
 31
0.0
  0
LINE
  5
1CD
330
1F
100
AcDbEntity
  8
0
  6
CENTERX2
 62
     7
100
AcDbLine
 10
-1.675
 20
1.335
 30
0.0
 11
-1.675
 21
1.315
 31
0.0
  0
LINE
  5
1CE
330
1F
100
AcDbEntity
  8
0
  6
Continuous
 62
     7
100
AcDbLine
 10
-2.1433572216
 20
0.9191427784
 30
0.0
 11
-2.1433572216
 21
0.0625
 31
0.0
  0
LINE
  5
1CF
330
1F
100
AcDbEntity
  8
0
  6
Continuous
 62
     7
100
AcDbLine
 10
-2.1433572216
 20
0.0625
 30
0.0
 11
1.9975
 21
0.0625
 31
0.0
  0
LINE
  5
1D0
330
1F
100
AcDbEntity
  8
0
  6
Continuous
 62
     7
100
AcDbLine
 10
1.9975
 20
0.0625
 30
0.0
 11
1.9975
 21
1.7308572216
 31
0.0
  0
LINE
  5
1D1
330
1F
100
AcDbEntity
  8
0
  6
Continuous
 62
     7
100
AcDbLine
 10
1.9975
 20
1.7308572216
 30
0.0
 11
1.5808572216
 21
1.7308572216
 31
0.0
  0
LINE
  5
1D2
330
1F
100
AcDbEntity
  8
0
  6
Continuous
 62
     7
100
AcDbLine
 10
1.5808572216
 20
1.7308572216
 30
0.0
 11
-2.1433572216
 21
1.7308572216
 31
0.0
  0
LINE
  5
1D3
330
1F
100
AcDbEntity
  8
0
  6
Continuous
 62
     7
100
AcDbLine
 10
-2.1433572216
 20
1.7308572216
 30
0.0
 11
-2.1433572216
 21
0.9191427784
 31
0.0
  0
LINE
  5
1D4
330
1F
100
AcDbEntity
  8
0
  6
Continuous
 62
     7
100
AcDbLine
 10
-2.1433572216
 20
0.9191427784
 30
0.0
 11
-0.6617627334
 21
0.9191427784
 31
0.0
  0
LINE
  5
1D5
330
1F
100
AcDbEntity
  8
0
  6
Continuous
 62
     7
100
AcDbLine
 10
-0.6617627334
 20
0.9191427784
 30
0.0
 11
-0.6617627334
 21
0.7316427784
 31
0.0
  0
LINE
  5
1D6
330
1F
100
AcDbEntity
  8
0
  6
Continuous
 62
     7
100
AcDbLine
 10
-0.6617627334
 20
0.7316427784
 30
0.0
 11
-0.4125482902
 21
0.7316427784
 31
0.0
  0
LINE
  5
1D7
330
1F
100
AcDbEntity
  8
0
  6
Continuous
 62
     7
100
AcDbLine
 10
-0.4125482902
 20
0.7316427784
 30
0.0
 11
-0.4125482902
 21
0.9191427784
 31
0.0
  0
LINE
  5
1D8
330
1F
100
AcDbEntity
  8
0
  6
Continuous
 62
     7
100
AcDbLine
 10
-0.4125482902
 20
0.9191427784
 30
0.0
 11
1.5808572216
 21
0.9191427784
 31
0.0
  0
LINE
  5
1D9
330
1F
100
AcDbEntity
  8
0
  6
Continuous
 62
     7
100
AcDbLine
 10
1.5808572216
 20
0.9191427784
 30
0.0
 11
1.5808572216
 21
1.7308572216
 31
0.0
  0
LWPOLYLINE
  5
1DA
330
1F
100
AcDbEntity
  8
0
  6
Continuous
 62
     7
100
AcDbPolyline
 90
        3
 70
   128
 43
0.0
 10
-2.017328589
 20
0.5510486479
 10
-2.0152085625
 20
0.5479319783
 10
-2.0122995813
 20
0.5472542157
  0
LWPOLYLINE
  5
1DB
330
1F
100
AcDbEntity
  8
0
  6
Continuous
 62
     7
100
AcDbPolyline
 90
        3
 70
   128
 43
0.0
 10
-2.0122985671
 20
0.5472542157
 10
-2.0082514852
 20
0.5488559785
 10
-2.0070082407
 20
0.5520546071
  0
LWPOLYLINE
  5
1DC
330
1F
100
AcDbEntity
  8
0
  6
Continuous
 62
     7
100
AcDbPolyline
 90
        3
 70
   128
 43
0.0
 10
-2.0070080682
 20
0.5520546071
 10
-2.0072553728
 20
0.5538770761
 10
-2.0076446563
 20
0.5552730513
  0
LWPOLYLINE
  5
1DD
330
1F
100
AcDbEntity
  8
0
  6
Continuous
 62
     7
100
AcDbPolyline
 90
        3
 70
   128
 43
0.0
 10
-2.0292694644
 20
0.6261547893
 10
-2.0313746013
 20
0.6299879997
 10
-2.0346650411
 20
0.630897399
  0
LWPOLYLINE
  5
1DE
330
1F
100
AcDbEntity
  8
0
  6
Continuous
 62
     7
100
AcDbPolyline
 90
        3
 70
   128
 43
0.0
 10
-2.0346643887
 20
0.630897399
 10
-2.0381907007
 20
0.6298330688
 10
-2.0396836321
 20
0.6273152888
  0
LWPOLYLINE
  5
1DF
330
1F
100
AcDbEntity
  8
0
  6
Continuous
 62
     7
100
AcDbPolyline
 90
        3
 70
   128
 43
0.0
 10
-2.0610676037
 20
0.5561340235
 10
-2.0617436986
 20
0.5537297525
 10
-2.0620672753
 20
0.5518000409
  0
LWPOLYLINE
  5
1E0
330
1F
100
AcDbEntity
  8
0
  6
Continuous
 62
     7
100
AcDbPolyline
 90
        3
 70
   128
 43
0.0
 10
-2.0620672722
 20
0.5518000409
 10
-2.0600112678
 20
0.5481987846
 10
-2.0567941181
 20
0.5472542157
  0
LWPOLYLINE
  5
1E1
330
1F
100
AcDbEntity
  8
0
  6
Continuous
 62
     7
100
AcDbPolyline
 90
        3
 70
   128
 43
0.0
 10
-2.0567931997
 20
0.5472542157
 10
-2.0534437399
 20
0.548184101
 10
-2.0518846269
 20
0.5504362933
  0
LWPOLYLINE
  5
1E2
330
1F
100
AcDbEntity
  8
0
  6
Continuous
 62
     7
100
AcDbPolyline
 90
        3
 70
   128
 43
0.0
 10
-2.0341915408
 20
0.3801896917
 10
-2.02996679
 20
0.3821775459
 10
-2.0292100509
 20
0.3859356147
  0
LWPOLYLINE
  5
1E3
330
1F
100
AcDbEntity
  8
0
  6
Continuous
 62
     7
100
AcDbPolyline
 90
        3
 70
   128
 43
0.0
 10
-2.0292096251
 20
0.4582215155
 10
-2.030632159
 20
0.4627355563
 10
-2.0341922753
 20
0.463832875
  0
LWPOLYLINE
  5
1E4
330
1F
100
AcDbEntity
  8
0
  6
Continuous
 62
     7
100
AcDbPolyline
 90
        3
 70
   128
 43
0.0
 10
-2.0341915408
 20
0.463832875
 10
-2.0385749909
 20
0.4617692137
 10
-2.0393199661
 20
0.457850569
  0
LWPOLYLINE
  5
1E5
330
1F
100
AcDbEntity
  8
0
  6
Continuous
 62
     7
100
AcDbPolyline
 90
        3
 70
   128
 43
0.0
 10
-2.0393189483
 20
0.3859231847
 10
-2.0392205095
 20
0.3835938879
 10
-2.0385199009
 20
0.3819352885
  0
LWPOLYLINE
  5
1E6
330
1F
100
AcDbEntity
  8
0
  6
Continuous
 62
     7
100
AcDbPolyline
 90
        3
 70
   128
 43
0.0
 10
-2.0385187442
 20
0.3819352885
 10
-2.0362717237
 20
0.380503983
 10
-2.0341922753
 20
0.3801896917
  0
LWPOLYLINE
  5
1E7
330
1F
100
AcDbEntity
  8
0
  6
Continuous
 62
     7
100
AcDbPolyline
 90
        4
 70
   128
 43
0.0
 10
-1.9230101052
 20
0.3132685509
 10
-1.9254377823
 20
0.3129248123
 10
-1.9272989772
 20
0.3113816017
 10
-1.9281570104
 20
0.3065770962
  0
LWPOLYLINE
  5
1E8
330
1F
100
AcDbEntity
  8
0
  6
Continuous
 62
     7
100
AcDbPolyline
 90
        3
 70
   128
 43
0.0
 10
-1.9555990621
 20
0.3100732619
 10
-1.957903238
 20
0.3127246378
 10
-1.9606142022
 20
0.3132685509
  0
LWPOLYLINE
  5
1E9
330
1F
100
AcDbEntity
  8
0
  6
Continuous
 62
     7
100
AcDbPolyline
 90
        3
 70
   128
 43
0.0
 10
-1.9606138308
 20
0.3132685509
 10
-1.9627499254
 20
0.3128494286
 10
-1.9641417625
 20
0.3118502534
  0
LWPOLYLINE
  5
1EA
330
1F
100
AcDbEntity
  8
0
  6
Continuous
 62
     7
100
AcDbPolyline
 90
        3
 70
   128
 43
0.0
 10
-1.9641408301
 20
0.3118502534
 10
-1.9653368762
 20
0.3091731859
 10
-1.9653964102
 20
0.3067952958
  0
LWPOLYLINE
  5
1EB
330
1F
100
AcDbEntity
  8
0
  6
Continuous
 62
     7
100
AcDbPolyline
 90
        4
 70
   128
 43
0.0
 10
-1.9654033222
 20
0.2363665422
 10
-1.9645502196
 20
0.231602631
 10
-1.9627539971
 20
0.2300163369
 10
-1.9603596359
 20
0.2296253676
  0
LWPOLYLINE
  5
1EC
330
1F
100
AcDbEntity
  8
0
  6
Continuous
 62
     7
100
AcDbPolyline
 90
        3
 70
   128
 43
0.0
 10
-1.9603592204
 20
0.2296253676
 10
-1.9559854974
 20
0.2317471351
 10
-1.9550864787
 20
0.2356076735
  0
LWPOLYLINE
  5
1ED
330
1F
100
AcDbEntity
  8
0
  6
Continuous
 62
     7
100
AcDbPolyline
 90
        3
 70
   128
 43
0.0
 10
-1.92778669
 20
0.2325672267
 10
-1.9254700912
 20
0.230158071
 10
-1.9228838532
 20
0.2296253676
  0
LWPOLYLINE
  5
1EE
330
1F
100
AcDbEntity
  8
0
  6
Continuous
 62
     7
100
AcDbPolyline
 90
        3
 70
   128
 43
0.0
 10
-1.9228833867
 20
0.2296253676
 10
-1.9186778733
 20
0.2317216741
 10
-1.9178470789
 20
0.2354803904
  0
LWPOLYLINE
  5
1EF
330
1F
100
AcDbEntity
  8
0
  6
Continuous
 62
     7
100
AcDbPolyline
 90
        3
 70
   128
 43
0.0
 10
-1.9178580581
 20
0.3070338096
 10
-1.91918073
 20
0.3120125518
 10
-1.9230111363
 20
0.3132685509
  0
LWPOLYLINE
  5
1F0
330
1F
100
AcDbEntity
  8
0
  6
Continuous
 62
     7
100
AcDbPolyline
 90
        3
 70
   128
 43
0.0
 10
-1.7345338825
 20
0.8283877662
 10
-1.7297052064
 20
0.8298424611
 10
-1.7283618721
 20
0.8335518591
  0
LWPOLYLINE
  5
1F1
330
1F
100
AcDbEntity
  8
0
  6
Continuous
 62
     7
100
AcDbPolyline
 90
        3
 70
   128
 43
0.0
 10
-1.7283610472
 20
0.8335518591
 10
-1.73063597
 20
0.8378630729
 10
-1.7345260111
 20
0.8387159165
  0
LWPOLYLINE
  5
1F2
330
1F
100
AcDbEntity
  8
0
  6
Continuous
 62
     7
100
AcDbPolyline
 90
        3
 70
   128
 43
0.0
 10
-1.7685601561
 20
0.8387158987
 10
-1.7743872518
 20
0.8366107612
 10
-1.7755293542
 20
0.8317153457
  0
LWPOLYLINE
  5
1F3
330
1F
100
AcDbEntity
  8
0
  6
Continuous
 62
     7
100
AcDbPolyline
 90
        3
 70
   128
 43
0.0
 10
-1.7755285023
 20
0.761851624
 10
-1.7742216001
 20
0.7565756292
 10
-1.7702925636
 20
0.7550727332
  0
LWPOLYLINE
  5
1F4
330
1F
100
AcDbEntity
  8
0
  6
Continuous
 62
     7
100
AcDbPolyline
 90
        4
 70
   128
 43
0.0
 10
-1.7702919761
 20
0.7550727332
 10
-1.7678876938
 20
0.7554760185
 10
-1.7660790438
 20
0.7570722367
 10
-1.7652012394
 20
0.7618551044
  0
LWPOLYLINE
  5
1F5
330
1F
100
AcDbEntity
  8
0
  6
Continuous
 62
     7
100
AcDbPolyline
 90
        4
 70
   128
 43
0.0
 10
-1.7439708935
 20
0.7969670403
 10
-1.7391104326
 20
0.7978290132
 10
-1.7374671809
 20
0.7996352474
 10
-1.7370534899
 20
0.8020765656
  0
LWPOLYLINE
  5
1F6
330
1F
100
AcDbEntity
  8
0
  6
Continuous
 62
     7
100
AcDbPolyline
 90
        3
 70
   128
 43
0.0
 10
-1.7370530001
 20
0.8020765656
 10
-1.7394904538
 20
0.8066172399
 10
-1.743708578
 20
0.8072951729
  0
LWPOLYLINE
  5
1F7
330
1F
100
AcDbEntity
  8
0
  6
Continuous
 62
     7
100
AcDbPolyline
 90
        3
 70
   128
 43
0.0
 10
-1.9541218525
 20
0.7268282801
 10
-1.9555229762
 20
0.7326316251
 10
-1.9556683444
 20
0.7373382279
  0
LWPOLYLINE
  5
1F8
330
1F
100
AcDbEntity
  8
0
  6
Continuous
 62
     7
100
AcDbPolyline
 90
        3
 70
   128
 43
0.0
 10
-1.9556788478
 20
0.7837837761
 10
-1.9569774731
 20
0.7887068725
 10
-1.9607051187
 20
0.7900152501
  0
LWPOLYLINE
  5
1F9
330
1F
100
AcDbEntity
  8
0
  6
Continuous
 62
     7
100
AcDbPolyline
 90
        3
 70
   128
 43
0.0
 10
-1.9607041764
 20
0.7900152501
 10
-1.9651315048
 20
0.7879619029
 10
-1.9659782759
 20
0.7840511274
  0
LWPOLYLINE
  5
1FA
330
1F
100
AcDbEntity
  8
0
  6
Continuous
 62
     7
100
AcDbPolyline
 90
        3
 70
   128
 43
0.0
 10
-1.9659852888
 20
0.7370784056
 10
-1.965622282
 20
0.729914853
 10
-1.9643417788
 20
0.7244280844
  0
LWPOLYLINE
  5
1FB
330
1F
100
AcDbEntity
  8
0
  6
Continuous
 62
     7
100
AcDbPolyline
 90
        3
 70
   128
 43
0.0
 10
-1.9643414678
 20
0.7244280844
 10
-1.9544343708
 20
0.7105302682
 10
-1.9416853861
 20
0.7063720668
  0
LWPOLYLINE
  5
1FC
330
1F
100
AcDbEntity
  8
0
  6
Continuous
 62
     7
100
AcDbPolyline
 90
        3
 70
   128
 43
0.0
 10
-1.9416846628
 20
0.7063720668
 10
-1.9218093557
 20
0.7182609755
 10
-1.9172652132
 20
0.7365745293
  0
LWPOLYLINE
  5
1FD
330
1F
100
AcDbEntity
  8
0
  6
Continuous
 62
     7
100
AcDbPolyline
 90
        4
 70
   128
 43
0.0
 10
-1.9172760915
 20
0.783150912
 10
-1.9180931557
 20
0.7880528735
 10
-1.9199586412
 20
0.7896609371
 10
-1.9224292706
 20
0.7900152501
  0
LWPOLYLINE
  5
1FE
330
1F
100
AcDbEntity
  8
0
  6
Continuous
 62
     7
100
AcDbPolyline
 90
        4
 70
   128
 43
0.0
 10
-1.9224281386
 20
0.7900152501
 10
-1.9248815007
 20
0.7896421406
 10
-1.9267233282
 20
0.7880275
 10
-1.9275751447
 20
0.7831601457
  0
LWPOLYLINE
  5
1FF
330
1F
100
AcDbEntity
  8
0
  6
Continuous
 62
     7
100
AcDbPolyline
 90
        3
 70
   128
 43
0.0
 10
-1.9275813591
 20
0.7377112697
 10
-1.9277338584
 20
0.7326600858
 10
-1.9283388434
 20
0.7287375267
  0
LWPOLYLINE
  5
200
330
1F
100
AcDbEntity
  8
0
  6
Continuous
 62
     7
100
AcDbPolyline
 90
        3
 70
   128
 43
0.0
 10
-1.9283381503
 20
0.7287375267
 10
-1.9338728888
 20
0.7196185119
 10
-1.9416853861
 20
0.7167001816
  0
LWPOLYLINE
  5
201
330
1F
100
AcDbEntity
  8
0
  6
Continuous
 62
     7
100
AcDbPolyline
 90
        3
 70
   128
 43
0.0
 10
-1.9416846628
 20
0.7167001816
 10
-1.9502131833
 20
0.7204564725
 10
-1.9541227638
 20
0.7268282801
  0
LWPOLYLINE
  5
202
330
1F
100
AcDbEntity
  8
0
  6
Continuous
 62
     7
100
AcDbPolyline
 90
        4
 70
   128
 43
0.0
 10
-1.5267377763
 20
0.9289993896
 10
-1.5219039039
 20
0.9299761061
 10
-1.5202485653
 20
0.9317974638
 10
-1.5198175962
 20
0.9342362158
  0
LWPOLYLINE
  5
203
330
1F
100
AcDbEntity
  8
0
  6
Continuous
 62
     7
100
AcDbPolyline
 90
        3
 70
   128
 43
0.0
 10
-1.5198175363
 20
0.9342362158
 10
-1.5221842419
 20
0.9385936497
 10
-1.5262181181
 20
0.93932754
  0
LWPOLYLINE
  5
204
330
1F
100
AcDbEntity
  8
0
  6
Continuous
 62
     7
100
AcDbPolyline
 90
        3
 70
   128
 43
0.0
 10
-1.5696859735
 20
0.9393275222
 10
-1.575529848
 20
0.9374537619
 10
-1.5765313112
 20
0.932617902
  0
LWPOLYLINE
  5
205
330
1F
100
AcDbEntity
  8
0
  6
Continuous
 62
     7
100
AcDbPolyline
 90
        3
 70
   128
 43
0.0
 10
-1.5765311211
 20
0.8625286647
 10
-1.574749958
 20
0.8566880545
 10
-1.569930773
 20
0.8556843567
  0
LWPOLYLINE
  5
206
330
1F
100
AcDbEntity
  8
0
  6
Continuous
 62
     7
100
AcDbPolyline
 90
        4
 70
   128
 43
0.0
 10
-1.5267377763
 20
0.8556843567
 10
-1.5216578381
 20
0.8565266142
 10
-1.5197872404
 20
0.8582710171
 10
-1.5193084638
 20
0.8607938642
  0
LWPOLYLINE
  5
207
330
1F
100
AcDbEntity
  8
0
  6
Continuous
 62
     7
100
AcDbPolyline
 90
        3
 70
   128
 43
0.0
 10
-1.5193083155
 20
0.8607938642
 10
-1.520446377
 20
0.864085834
 10
-1.522708741
 20
0.8656488055
  0
LWPOLYLINE
  5
208
330
1F
100
AcDbEntity
  8
0
  6
Continuous
 62
     7
100
AcDbPolyline
 90
        3
 70
   128
 43
0.0
 10
-1.5227085962
 20
0.8656488055
 10
-1.5245914389
 20
0.8660099024
 10
-1.5261090183
 20
0.8660124715
  0
LWPOLYLINE
  5
209
330
1F
100
AcDbEntity
  8
0
  6
Continuous
 62
     7
100
AcDbPolyline
 90
        4
 70
   128
 43
0.0
 10
-1.5377974886
 20
0.8975786638
 10
-1.5329625808
 20
0.8984786648
 10
-1.5312809292
 20
0.9002583357
 10
-1.5308730431
 20
0.902688189
  0
LWPOLYLINE
  5
20A
330
1F
100
AcDbEntity
  8
0
  6
Continuous
 62
     7
100
AcDbPolyline
 90
        3
 70
   128
 43
0.0
 10
-1.5308725552
 20
0.902688189
 10
-1.5332086445
 20
0.9071476658
 10
-1.5372917482
 20
0.9079067963
  0
LWPOLYLINE
  5
20B
330
1F
100
AcDbEntity
  8
0
  6
Continuous
 62
     7
100
AcDbPolyline
 90
        3
 70
   128
 43
0.0
 10
-1.6148247587
 20
0.9009244089
 10
-1.6031370292
 20
0.9057209245
 10
-1.5998059361
 20
0.9151619333
  0
LWPOLYLINE
  5
20C
330
1F
100
AcDbEntity
  8
0
  6
Continuous
 62
     7
100
AcDbPolyline
 90
        3
 70
   128
 43
0.0
 10
-1.5998050922
 20
0.9151619333
 10
-1.6056303479
 20
0.9264513084
 10
-1.6156052356
 20
0.9289993896
  0
LWPOLYLINE
  5
20D
330
1F
100
AcDbEntity
  8
0
  6
Continuous
 62
     7
100
AcDbPolyline
 90
        4
 70
   128
 43
0.0
 10
-1.6387898152
 20
0.8556843567
 10
-1.6364170104
 20
0.8560337227
 10
-1.6345876313
 20
0.8575401145
 10
-1.6336996086
 20
0.8622303449
  0
LWPOLYLINE
  5
20E
330
1F
100
AcDbEntity
  8
0
  6
Continuous
 62
     7
100
AcDbPolyline
 90
        3
 70
   128
 43
0.0
 10
-1.6158596268
 20
0.8905962763
 10
-1.6114111941
 20
0.8907181932
 10
-1.6079520548
 20
0.8912145263
  0
LWPOLYLINE
  5
20F
330
1F
100
AcDbEntity
  8
0
  6
Continuous
 62
     7
100
AcDbPolyline
 90
        3
 70
   128
 43
0.0
 10
-1.6079514515
 20
0.8912145263
 10
-1.5934226792
 20
0.9015471601
 10
-1.5894778213
 20
0.9151619333
  0
LWPOLYLINE
  5
210
330
1F
100
AcDbEntity
  8
0
  6
Continuous
 62
     7
100
AcDbPolyline
 90
        3
 70
   128
 43
0.0
 10
-1.5894775316
 20
0.9151619333
 10
-1.5946638267
 20
0.93042629
 10
-1.6050245434
 20
0.9378365093
  0
LWPOLYLINE
  5
211
330
1F
100
AcDbEntity
  8
0
  6
Continuous
 62
     7
100
AcDbPolyline
 90
        3
 70
   128
 43
0.0
 10
-1.6050240186
 20
0.9378365093
 10
-1.6106582338
 20
0.9391425175
 10
-1.6152071918
 20
0.93932754
  0
LWPOLYLINE
  5
212
330
1F
100
AcDbEntity
  8
0
  6
Continuous
 62
     7
100
AcDbPolyline
 90
        3
 70
   128
 43
0.0
 10
-1.6356899044
 20
0.9393275222
 10
-1.6427498111
 20
0.9374263191
 10
-1.6440277234
 20
0.9317451036
  0
LWPOLYLINE
  5
213
330
1F
100
AcDbEntity
  8
0
  6
Continuous
 62
     7
100
AcDbPolyline
 90
        3
 70
   128
 43
0.0
 10
-1.6440275147
 20
0.8614751697
 10
-1.6424379313
 20
0.8568689011
 10
-1.6387909328
 20
0.8556843567
  0
LWPOLYLINE
  5
214
330
1F
100
AcDbEntity
  8
0
  6
Continuous
 62
     7
100
AcDbPolyline
 90
        3
 70
   128
 43
0.0
 10
-1.6633016387
 20
0.93932754
 10
-1.6667357263
 20
0.9381182471
 10
-1.6684660796
 20
0.935763613
  0
LWPOLYLINE
  5
215
330
1F
100
AcDbEntity
  8
0
  6
Continuous
 62
     7
100
AcDbPolyline
 90
        3
 70
   128
 43
0.0
 10
-1.7045602554
 20
0.9352382506
 10
-1.7070788283
 20
0.938412023
 10
-1.7100876549
 20
0.93932754
  0
LWPOLYLINE
  5
216
330
1F
100
AcDbEntity
  8
0
  6
Continuous
 62
     7
100
AcDbPolyline
 90
        3
 70
   128
 43
0.0
 10
-1.7100865916
 20
0.93932754
 10
-1.7141638585
 20
0.9375985027
 10
-1.7154880952
 20
0.9343634989
  0
LWPOLYLINE
  5
217
330
1F
100
AcDbEntity
  8
0
  6
Continuous
 62
     7
100
AcDbPolyline
 90
        3
 70
   128
 43
0.0
 10
-1.7154873825
 20
0.9343634989
 10
-1.7150476669
 20
0.9325225465
 10
-1.7143607306
 20
0.9311814212
  0
LWPOLYLINE
  5
218
330
1F
100
AcDbEntity
  8
0
  6
Continuous
 62
     7
100
AcDbPolyline
 90
        3
 70
   128
 43
0.0
 10
-1.6917405635
 20
0.8615446889
 10
-1.6902060501
 20
0.8568533335
 10
-1.6865039139
 20
0.8556843567
  0
LWPOLYLINE
  5
219
330
1F
100
AcDbEntity
  8
0
  6
Continuous
 62
     7
100
AcDbPolyline
 90
        3
 70
   128
 43
0.0
 10
-1.686502864
 20
0.8556843567
 10
-1.6836026195
 20
0.8562884974
 10
-1.6819035388
 20
0.8578663528
  0
LWPOLYLINE
  5
21A
330
1F
100
AcDbEntity
  8
0
  6
Continuous
 62
     7
100
AcDbPolyline
 90
        3
 70
   128
 43
0.0
 10
-1.6819034505
 20
0.8578663528
 10
-1.6814408449
 20
0.8601212222
 10
-1.6814125897
 20
0.8619394121
  0
LWPOLYLINE
  5
21B
330
1F
100
AcDbEntity
  8
0
  6
Continuous
 62
     7
100
AcDbPolyline
 90
        3
 70
   128
 43
0.0
 10
-1.6594167769
 20
0.9305452011
 10
-1.6590298052
 20
0.9311717086
 10
-1.6587743803
 20
0.9316905537
  0
LWPOLYLINE
  5
21C
330
1F
100
AcDbEntity
  8
0
  6
Continuous
 62
     7
100
AcDbPolyline
 90
        3
 70
   128
 43
0.0
 10
-1.6587737977
 20
0.9316905537
 10
-1.6580820369
 20
0.933197528
 10
-1.6579015819
 20
0.934490782
  0
LWPOLYLINE
  5
21D
330
1F
100
AcDbEntity
  8
0
  6
Continuous
 62
     7
100
AcDbPolyline
 90
        3
 70
   128
 43
0.0
 10
-1.6579008478
 20
0.934490782
 10
-1.6599519153
 20
0.9383186024
 10
-1.6633020222
 20
0.93932754
  0
LWPOLYLINE
  5
21E
330
1F
100
AcDbEntity
  8
0
  6
Continuous
 62
     7
100
AcDbPolyline
 90
        3
 70
   128
 43
0.0
 10
-1.7528904705
 20
0.8583754852
 10
-1.7524267405
 20
0.8604140822
 10
-1.7524001957
 20
0.8620666952
  0
LWPOLYLINE
  5
21F
330
1F
100
AcDbEntity
  8
0
  6
Continuous
 62
     7
100
AcDbPolyline
 90
        4
 70
   128
 43
0.0
 10
-1.7355581907
 20
0.9289993896
 10
-1.7308259588
 20
0.9299126977
 10
-1.7291330947
 20
0.931619049
 10
-1.7286346217
 20
0.9339816496
  0
LWPOLYLINE
  5
220
330
1F
100
AcDbEntity
  8
0
  6
Continuous
 62
     7
100
AcDbPolyline
 90
        3
 70
   128
 43
0.0
 10
-1.7286344307
 20
0.9339816496
 10
-1.7310715347
 20
0.9384810914
 10
-1.7351806099
 20
0.93932754
  0
LWPOLYLINE
  5
221
330
1F
100
AcDbEntity
  8
0
  6
Continuous
 62
     7
100
AcDbPolyline
 90
        4
 70
   128
 43
0.0
 10
-1.7790672347
 20
0.9393275222
 10
-1.7839863093
 20
0.938471036
 10
-1.7858254345
 20
0.9368005217
 10
-1.7863484181
 20
0.9343634989
  0
LWPOLYLINE
  5
222
330
1F
100
AcDbEntity
  8
0
  6
Continuous
 62
     7
100
AcDbPolyline
 90
        3
 70
   128
 43
0.0
 10
-1.786347684
 20
0.9343634989
 10
-1.7838615195
 20
0.9298296974
 10
-1.7796933301
 20
0.9289994252
  0
LWPOLYLINE
  5
223
330
1F
100
AcDbEntity
  8
0
  6
Continuous
 62
     7
100
AcDbPolyline
 90
        3
 70
   128
 43
0.0
 10
-1.7627275835
 20
0.8626848919
 10
-1.7627190701
 20
0.8607674526
 10
-1.7626010274
 20
0.8592664669
  0
LWPOLYLINE
  5
224
330
1F
100
AcDbEntity
  8
0
  6
Continuous
 62
     7
100
AcDbPolyline
 90
        3
 70
   128
 43
0.0
 10
-1.762600865
 20
0.8592664669
 10
-1.7603431928
 20
0.8564483842
 10
-1.7575642531
 20
0.8556843567
  0
LWPOLYLINE
  5
225
330
1F
100
AcDbEntity
  8
0
  6
Continuous
 62
     7
100
AcDbPolyline
 90
        3
 70
   128
 43
0.0
 10
-1.7575638031
 20
0.8556843567
 10
-1.7545397424
 20
0.8565308659
 10
-1.7528911448
 20
0.8583754852
  0
LWPOLYLINE
  5
226
330
1F
100
AcDbEntity
  8
0
  6
Continuous
 62
     7
100
AcDbPolyline
 90
        3
 70
   128
 43
0.0
 10
-1.959616509
 20
0.8660124715
 10
-1.9523909237
 20
0.8669725358
 10
-1.9475070124
 20
0.8699400644
  0
LWPOLYLINE
  5
227
330
1F
100
AcDbEntity
  8
0
  6
Continuous
 62
     7
100
AcDbPolyline
 90
        3
 70
   128
 43
0.0
 10
-1.9475066756
 20
0.8699400644
 10
-1.9409365712
 20
0.8784064683
 10
-1.9380335127
 20
0.8863414017
  0
LWPOLYLINE
  5
228
330
1F
100
AcDbEntity
  8
0
  6
Continuous
 62
     7
100
AcDbPolyline
 90
        3
 70
   128
 43
0.0
 10
-1.9380332917
 20
0.8863414017
 10
-1.9372991596
 20
0.8914743264
 10
-1.9372879974
 20
0.8955603351
  0
ARC
  5
229
330
1F
100
AcDbEntity
  8
0
  6
Continuous
 62
     7
100
AcDbCircle
 10
-1.9781902229
 20
0.8998395625
 30
0.0
 40
0.0411263966198959
100
AcDbArc
 50
354.027528069
 51
19.0080980133
  0
LWPOLYLINE
  5
22A
330
1F
100
AcDbEntity
  8
0
  6
Continuous
 62
     7
100
AcDbPolyline
 90
        3
 70
   128
 43
0.0
 10
-1.9393063436
 20
0.9132345034
 10
-1.9447994822
 20
0.9222976685
 10
-1.9512891389
 20
0.9274902112
  0
LWPOLYLINE
  5
22B
330
1F
100
AcDbEntity
  8
0
  6
Continuous
 62
     7
100
AcDbPolyline
 90
        3
 70
   128
 43
0.0
 10
-1.9512882852
 20
0.9274902112
 10
-1.9557882384
 20
0.9288584348
 10
-1.9595009413
 20
0.9289993896
  0
LWPOLYLINE
  5
22C
330
1F
100
AcDbEntity
  8
0
  6
Continuous
 62
     7
100
AcDbPolyline
 90
        3
 70
   128
 43
0.0
 10
-1.8668268609
 20
0.9389331541
 10
-1.8834997806
 20
0.9309955811
 10
-1.8884112851
 20
0.917198463
  0
LWPOLYLINE
  5
22D
330
1F
100
AcDbEntity
  8
0
  6
Continuous
 62
     7
100
AcDbPolyline
 90
        3
 70
   128
 43
0.0
 10
-1.8884112516
 20
0.917198463
 10
-1.885376574
 20
0.9060332746
 10
-1.8791923516
 20
0.8993424617
  0
LWPOLYLINE
  5
22E
330
1F
100
AcDbEntity
  8
0
  6
Continuous
 62
     7
100
AcDbPolyline
 90
        3
 70
   128
 43
0.0
 10
-1.8791913048
 20
0.8993424617
 10
-1.8740620319
 20
0.8968214138
 10
-1.8697006686
 20
0.8957058015
  0
LWPOLYLINE
  5
22F
330
1F
100
AcDbEntity
  8
0
  6
Continuous
 62
     7
100
AcDbPolyline
 90
        3
 70
   128
 43
0.0
 10
-1.8561965837
 20
0.8928067726
 10
-1.8534943662
 20
0.8921743727
 10
-1.8514446347
 20
0.8914327259
  0
LWPOLYLINE
  5
230
330
1F
100
AcDbEntity
  8
0
  6
Continuous
 62
     7
100
AcDbPolyline
 90
        3
 70
   128
 43
0.0
 10
-1.8514434653
 20
0.8914327259
 10
-1.8457313186
 20
0.8856203319
 10
-1.8441894977
 20
0.8793590142
  0
LWPOLYLINE
  5
231
330
1F
100
AcDbEntity
  8
0
  6
Continuous
 62
     7
100
AcDbPolyline
 90
        3
 70
   128
 43
0.0
 10
-1.8441888291
 20
0.8793590142
 10
-1.8475139567
 20
0.870332871
 10
-1.8539357469
 20
0.8663034043
  0
LWPOLYLINE
  5
232
330
1F
100
AcDbEntity
  8
0
  6
Continuous
 62
     7
100
AcDbPolyline
 90
        3
 70
   128
 43
0.0
 10
-1.8539355965
 20
0.8663034043
 10
-1.8568698652
 20
0.8659229738
 10
-1.8591907208
 20
0.8657942719
  0
LWPOLYLINE
  5
233
330
1F
100
AcDbEntity
  8
0
  6
Continuous
 62
     7
100
AcDbPolyline
 90
        3
 70
   128
 43
0.0
 10
-1.8667013157
 20
0.8657845054
 10
-1.8695933169
 20
0.8658983486
 10
-1.8718281148
 20
0.8663034043
  0
LWPOLYLINE
  5
234
330
1F
100
AcDbEntity
  8
0
  6
Continuous
 62
     7
100
AcDbPolyline
 90
        3
 70
   128
 43
0.0
 10
-1.8718275498
 20
0.8663034043
 10
-1.8783691853
 20
0.8713902636
 10
-1.8804106327
 20
0.8776134173
  0
LWPOLYLINE
  5
235
330
1F
100
AcDbEntity
  8
0
  6
Continuous
 62
     7
100
AcDbPolyline
 90
        3
 70
   128
 43
0.0
 10
-1.880410384
 20
0.8776134173
 10
-1.8803630245
 20
0.8782470192
 10
-1.8802833496
 20
0.878740782
  0
LWPOLYLINE
  5
236
330
1F
100
AcDbEntity
  8
0
  6
Continuous
 62
     7
100
AcDbPolyline
 90
        3
 70
   128
 43
0.0
 10
-1.8802848388
 20
0.8797355364
 10
-1.8819340165
 20
0.8837709355
 10
-1.8851382909
 20
0.885032204
  0
LWPOLYLINE
  5
237
330
1F
100
AcDbEntity
  8
0
  6
Continuous
 62
     7
100
AcDbPolyline
 90
        3
 70
   128
 43
0.0
 10
-1.8851376894
 20
0.885032204
 10
-1.8897476266
 20
0.8821871889
 10
-1.8907387476
 20
0.8778679835
  0
LWPOLYLINE
  5
238
330
1F
100
AcDbEntity
  8
0
  6
Continuous
 62
     7
100
AcDbPolyline
 90
        3
 70
   128
 43
0.0
 10
-1.8907379447
 20
0.8778679835
 10
-1.8861409293
 20
0.8643179477
 10
-1.8772649217
 20
0.8573208537
  0
LWPOLYLINE
  5
239
330
1F
100
AcDbEntity
  8
0
  6
Continuous
 62
     7
100
AcDbPolyline
 90
        3
 70
   128
 43
0.0
 10
-1.8772647137
 20
0.8573208537
 10
-1.8714690544
 20
0.8560152993
 10
-1.8668095238
 20
0.8556843567
  0
LWPOLYLINE
  5
23A
330
1F
100
AcDbEntity
  8
0
  6
Continuous
 62
     7
100
AcDbPolyline
 90
        3
 70
   128
 43
0.0
 10
-1.8586511687
 20
0.8556843567
 10
-1.8394584549
 20
0.8637466391
 10
-1.8338613829
 20
0.8792499144
  0
LWPOLYLINE
  5
23B
330
1F
100
AcDbEntity
  8
0
  6
Continuous
 62
     7
100
AcDbPolyline
 90
        3
 70
   128
 43
0.0
 10
-1.8338612684
 20
0.8792499144
 10
-1.8407050371
 20
0.896295419
 10
-1.8536084475
 20
0.9031427715
  0
LWPOLYLINE
  5
23C
330
1F
100
AcDbEntity
  8
0
  6
Continuous
 62
     7
100
AcDbPolyline
 90
        3
 70
   128
 43
0.0
 10
-1.8672034966
 20
0.9059167903
 10
-1.8696850919
 20
0.9064753524
 10
-1.8715917319
 20
0.9070703645
  0
LWPOLYLINE
  5
23D
330
1F
100
AcDbEntity
  8
0
  6
Continuous
 62
     7
100
AcDbPolyline
 90
        3
 70
   128
 43
0.0
 10
-1.8715917125
 20
0.9070703645
 10
-1.8767386324
 20
0.9119623353
 10
-1.8780831703
 20
0.9174348459
  0
LWPOLYLINE
  5
23E
330
1F
100
AcDbEntity
  8
0
  6
Continuous
 62
     7
100
AcDbPolyline
 90
        3
 70
   128
 43
0.0
 10
-1.8780825176
 20
0.9174348459
 10
-1.8737385642
 20
0.9264213789
 10
-1.8661367417
 20
0.9289448753
  0
LWPOLYLINE
  5
23F
330
1F
100
AcDbEntity
  8
0
  6
Continuous
 62
     7
100
AcDbPolyline
 90
        3
 70
   128
 43
0.0
 10
-1.8592296154
 20
0.9290568695
 10
-1.8499362138
 20
0.9256308968
 10
-1.8464078604
 20
0.9185622105
  0
LWPOLYLINE
  5
240
330
1F
100
AcDbEntity
  8
0
  6
Continuous
 62
     7
100
AcDbPolyline
 90
        3
 70
   128
 43
0.0
 10
-1.8464075768
 20
0.9185622105
 10
-1.8443683129
 20
0.9151288682
 10
-1.8413710861
 20
0.9142709516
  0
LWPOLYLINE
  5
241
330
1F
100
AcDbEntity
  8
0
  6
Continuous
 62
     7
100
AcDbPolyline
 90
        3
 70
   128
 43
0.0
 10
-1.841370515
 20
0.9142709516
 10
-1.8372902232
 20
0.9162353464
 10
-1.836225212
 20
0.9197077585
  0
LWPOLYLINE
  5
242
330
1F
100
AcDbEntity
  8
0
  6
Continuous
 62
     7
100
AcDbPolyline
 90
        3
 70
   128
 43
0.0
 10
-1.8362243344
 20
0.9197077585
 10
-1.8373205087
 20
0.9247705467
 10
-1.8391163568
 20
0.9284357428
  0
LWPOLYLINE
  5
243
330
1F
100
AcDbEntity
  8
0
  6
Continuous
 62
     7
100
AcDbPolyline
 90
        3
 70
   128
 43
0.0
 10
-1.8391153944
 20
0.9284357428
 10
-1.8482897323
 20
0.9370585201
 10
-1.8579724397
 20
0.93932754
  0
LWPOLYLINE
  5
244
330
1F
100
AcDbEntity
  8
0
  6
Continuous
 62
     7
100
AcDbPolyline
 90
        3
 70
   128
 43
0.0
 10
-1.9053211362
 20
0.857757253
 10
-1.9048808865
 20
0.8597893442
 10
-1.9048489889
 20
0.8614302797
  0
LWPOLYLINE
  5
245
330
1F
100
AcDbEntity
  8
0
  6
Continuous
 62
     7
100
AcDbPolyline
 90
        3
 70
   128
 43
0.0
 10
-1.9048482884
 20
0.9337161805
 10
-1.9060743675
 20
0.9380768151
 10
-1.9093584475
 20
0.93932754
  0
LWPOLYLINE
  5
246
330
1F
100
AcDbEntity
  8
0
  6
Continuous
 62
     7
100
AcDbPolyline
 90
        3
 70
   128
 43
0.0
 10
-1.9093573563
 20
0.93932754
 10
-1.9118783546
 20
0.9386347688
 10
-1.9134133235
 20
0.9372546437
  0
LWPOLYLINE
  5
247
330
1F
100
AcDbEntity
  8
0
  6
Continuous
 62
     7
100
AcDbPolyline
 90
        3
 70
   128
 43
0.0
 10
-1.9134123494
 20
0.9372546437
 10
-1.9139670382
 20
0.9351054817
 10
-1.9140133725
 20
0.933345234
  0
LWPOLYLINE
  5
248
330
1F
100
AcDbEntity
  8
0
  6
Continuous
 62
     7
100
AcDbPolyline
 90
        3
 70
   128
 43
0.0
 10
-1.9140130892
 20
0.8614178497
 10
-1.9139826713
 20
0.8596157553
 10
-1.9136497065
 20
0.8582482021
  0
LWPOLYLINE
  5
249
330
1F
100
AcDbEntity
  8
0
  6
Continuous
 62
     7
100
AcDbPolyline
 90
        3
 70
   128
 43
0.0
 10
-1.91364936
 20
0.8582482021
 10
-1.9115854326
 20
0.8562261616
 10
-1.9093584475
 20
0.8556843567
  0
LWPOLYLINE
  5
24A
330
1F
100
AcDbEntity
  8
0
  6
Continuous
 62
     7
100
AcDbPolyline
 90
        3
 70
   128
 43
0.0
 10
-1.9093573563
 20
0.8556843567
 10
-1.9068417241
 20
0.8563828737
 10
-1.9053217547
 20
0.857757253
  0
LWPOLYLINE
  5
24B
330
1F
100
AcDbEntity
  8
0
  6
Continuous
 62
     7
100
AcDbPolyline
 90
        3
 70
   128
 43
0.0
 10
-1.9387971229
 20
0.9308541218
 10
-1.9497515047
 20
0.9377931039
 10
-1.9598716569
 20
0.93932754
  0
LWPOLYLINE
  5
24C
330
1F
100
AcDbEntity
  8
0
  6
Continuous
 62
     7
100
AcDbPolyline
 90
        3
 70
   128
 43
0.0
 10
-1.9771165735
 20
0.9393275222
 10
-1.9826673792
 20
0.9373632249
 10
-1.9838372472
 20
0.9328179183
  0
LWPOLYLINE
  5
24D
330
1F
100
AcDbEntity
  8
0
  6
Continuous
 62
     7
100
AcDbPolyline
 90
        3
 70
   128
 43
0.0
 10
-1.9838361759
 20
0.8632753165
 10
-1.9823318077
 20
0.8569770361
 10
-1.9773639922
 20
0.8556843567
  0
LWPOLYLINE
  5
24E
330
1F
100
AcDbEntity
  8
0
  6
Continuous
 62
     7
100
AcDbPolyline
 90
        3
 70
   128
 43
0.0
 10
-1.9596270689
 20
0.8556843567
 10
-1.9418232123
 20
0.8613518464
 10
-1.9325421559
 20
0.8729584924
  0
LWPOLYLINE
  5
24F
330
1F
100
AcDbEntity
  8
0
  6
Continuous
 62
     7
100
AcDbPolyline
 90
        3
 70
   128
 43
0.0
 10
-1.9325421551
 20
0.8729584924
 10
-1.9277265592
 20
0.8865868024
 10
-1.9269598826
 20
0.8979605308
  0
LWPOLYLINE
  5
250
330
1F
100
AcDbEntity
  8
0
  6
Continuous
 62
     7
100
AcDbPolyline
 90
        3
 70
   128
 43
0.0
 10
-1.9269594996
 20
0.8979605308
 10
-1.9301781394
 20
0.9177163116
 10
-1.9387972114
 20
0.9308541218
  0
LWPOLYLINE
  5
251
330
1F
100
AcDbEntity
  8
0
  6
Continuous
 62
     7
100
AcDbPolyline
 90
        3
 70
   128
 43
0.0
 10
1.9061037405
 20
0.8604170472
 10
1.9122658462
 20
0.860778416
 10
1.916845075
 20
0.8623323549
  0
LWPOLYLINE
  5
252
330
1F
100
AcDbEntity
  8
0
  6
Continuous
 62
     7
100
AcDbPolyline
 90
        3
 70
   128
 43
0.0
 10
1.9168443098
 20
0.8623323549
 10
1.9250936271
 20
0.8704337587
 10
1.927245923
 20
0.8793276799
  0
LWPOLYLINE
  5
253
330
1F
100
AcDbEntity
  8
0
  6
Continuous
 62
     7
100
AcDbPolyline
 90
        3
 70
   128
 43
0.0
 10
1.9272457896
 20
0.8793276799
 10
1.923535292
 20
0.8904564616
 10
1.9163359426
 20
0.8962987606
  0
LWPOLYLINE
  5
254
330
1F
100
AcDbEntity
  8
0
  6
Continuous
 62
     7
100
AcDbPolyline
 90
        3
 70
   128
 43
0.0
 10
1.916335089
 20
0.8962987606
 10
1.9113652999
 20
0.8976914162
 10
1.9072942016
 20
0.8978503549
  0
LWPOLYLINE
  5
255
330
1F
100
AcDbEntity
  8
0
  6
Continuous
 62
     7
100
AcDbPolyline
 90
        3
 70
   128
 43
0.0
 10
1.9397064457
 20
0.8118070233
 10
1.9392959109
 20
0.8122344254
 10
1.9390529463
 20
0.8126313329
  0
LWPOLYLINE
  5
256
330
1F
100
AcDbEntity
  8
0
  6
Continuous
 62
     7
100
AcDbPolyline
 90
        3
 70
   128
 43
0.0
 10
1.9139450366
 20
0.8471380052
 10
1.9352975663
 20
0.8603721266
 10
1.9410167428
 20
0.8794973907
  0
LWPOLYLINE
  5
257
330
1F
100
AcDbEntity
  8
0
  6
Continuous
 62
     7
100
AcDbPolyline
 90
        3
 70
   128
 43
0.0
 10
1.9410158706
 20
0.8794973907
 10
1.9285651861
 20
0.904989875
 10
1.9067836486
 20
0.911621222
  0
LWPOLYLINE
  5
258
330
1F
100
AcDbEntity
  8
0
  6
Continuous
 62
     7
100
AcDbPolyline
 90
        3
 70
   128
 43
0.0
 10
1.8784040072
 20
0.9116211983
 10
1.8699522228
 20
0.9088556708
 10
1.8682835399
 20
0.9019719504
  0
LWPOLYLINE
  5
259
330
1F
100
AcDbEntity
  8
0
  6
Continuous
 62
     7
100
AcDbPolyline
 90
        3
 70
   128
 43
0.0
 10
1.8682829508
 20
0.8098091331
 10
1.8682924242
 20
0.8072028995
 10
1.8684532507
 20
0.8051640574
  0
LWPOLYLINE
  5
25A
330
1F
100
AcDbEntity
  8
0
  6
Continuous
 62
     7
100
AcDbPolyline
 90
        3
 70
   128
 43
0.0
 10
1.8684530821
 20
0.8051640574
 10
1.8713922376
 20
0.8011196197
 10
1.8752659274
 20
0.8000969776
  0
LWPOLYLINE
  5
25B
330
1F
100
AcDbEntity
  8
0
  6
Continuous
 62
     7
100
AcDbPolyline
 90
        4
 70
   128
 43
0.0
 10
1.8752653768
 20
0.8000969776
 10
1.8784547817
 20
0.800639354
 10
1.8808079362
 20
0.8028284573
 10
1.8820543596
 20
0.8091643836
  0
LWPOLYLINE
  5
25C
330
1F
100
AcDbEntity
  8
0
  6
Continuous
 62
     7
100
AcDbPolyline
 90
        3
 70
   128
 43
0.0
 10
1.9280647668
 20
0.8044996093
 10
1.9311368931
 20
0.8014088811
 10
1.9344707545
 20
0.8006788432
  0
LWPOLYLINE
  5
25D
330
1F
100
AcDbEntity
  8
0
  6
Continuous
 62
     7
100
AcDbPolyline
 90
        3
 70
   128
 43
0.0
 10
1.9344699195
 20
0.8006788432
 10
1.9398713508
 20
0.8029824399
 10
1.9415258752
 20
0.8073218091
  0
LWPOLYLINE
  5
25E
330
1F
100
AcDbEntity
  8
0
  6
Continuous
 62
     7
100
AcDbPolyline
 90
        3
 70
   128
 43
0.0
 10
1.9415250913
 20
0.8073218091
 10
1.9409230742
 20
0.8100051655
 10
1.9397075451
 20
0.8118070233
  0
LWPOLYLINE
  5
25F
330
1F
100
AcDbEntity
  8
0
  6
Continuous
 62
     7
100
AcDbPolyline
 90
        3
 70
   128
 43
0.0
 10
1.8445725047
 20
0.911621222
 10
1.8402009141
 20
0.9101387128
 10
1.8379295499
 20
0.907208741
  0
LWPOLYLINE
  5
260
330
1F
100
AcDbEntity
  8
0
  6
Continuous
 62
     7
100
AcDbPolyline
 90
        3
 70
   128
 43
0.0
 10
1.7805409244
 20
0.9065707155
 10
1.7778353984
 20
0.9102124678
 10
1.7744819526
 20
0.9112818004
  0
LWPOLYLINE
  5
261
330
1F
100
AcDbEntity
  8
0
  6
Continuous
 62
     7
100
AcDbPolyline
 90
        3
 70
   128
 43
0.0
 10
1.774481901
 20
0.9112818004
 10
1.7684228133
 20
0.9081089732
 10
1.7674268319
 20
0.902553816
  0
LWPOLYLINE
  5
262
330
1F
100
AcDbEntity
  8
0
  6
Continuous
 62
     7
100
AcDbPolyline
 90
        4
 70
   128
 43
0.0
 10
1.7674267292
 20
0.8092067639
 10
1.7686660415
 20
0.8028734181
 10
1.7709813429
 20
0.8006483493
 10
1.7741667754
 20
0.8000969776
  0
LWPOLYLINE
  5
263
330
1F
100
AcDbEntity
  8
0
  6
Continuous
 62
     7
100
AcDbPolyline
 90
        3
 70
   128
 43
0.0
 10
1.774166278
 20
0.8000969776
 10
1.778313123
 20
0.8013169114
 10
1.7805430528
 20
0.8038548598
  0
LWPOLYLINE
  5
264
330
1F
100
AcDbEntity
  8
0
  6
Continuous
 62
     7
100
AcDbPolyline
 90
        3
 70
   128
 43
0.0
 10
1.7805420977
 20
0.8038548598
 10
1.7811551813
 20
0.8066306519
 10
1.7811976517
 20
0.8088734508
  0
LWPOLYLINE
  5
265
330
1F
100
AcDbEntity
  8
0
  6
Continuous
 62
     7
100
AcDbPolyline
 90
        3
 70
   128
 43
0.0
 10
1.8020068097
 20
0.8435606539
 10
1.805213123
 20
0.8395534701
 10
1.8090787128
 20
0.8385485975
  0
LWPOLYLINE
  5
266
330
1F
100
AcDbEntity
  8
0
  6
Continuous
 62
     7
100
AcDbPolyline
 90
        3
 70
   128
 43
0.0
 10
1.809078408
 20
0.8385485975
 10
1.8142119219
 20
0.8406670029
 10
1.8167884323
 20
0.8444157426
  0
LWPOLYLINE
  5
267
330
1F
100
AcDbEntity
  8
0
  6
Continuous
 62
     7
100
AcDbPolyline
 90
        3
 70
   128
 43
0.0
 10
1.8372498159
 20
0.8085364441
 10
1.8373511455
 20
0.8057027515
 10
1.8377598391
 20
0.8035154381
  0
LWPOLYLINE
  5
268
330
1F
100
AcDbEntity
  8
0
  6
Continuous
 62
     7
100
AcDbPolyline
 90
        3
 70
   128
 43
0.0
 10
1.8377590367
 20
0.8035154381
 10
1.8409410888
 20
0.8007552475
 10
1.8442330942
 20
0.8000969776
  0
LWPOLYLINE
  5
269
330
1F
100
AcDbEntity
  8
0
  6
Continuous
 62
     7
100
AcDbPolyline
 90
        3
 70
   128
 43
0.0
 10
1.8442322419
 20
0.8000969776
 10
1.8497834036
 20
0.8028500131
 10
1.8510215264
 20
0.8077339639
  0
LWPOLYLINE
  5
26A
330
1F
100
AcDbEntity
  8
0
  6
Continuous
 62
     7
100
AcDbPolyline
 90
        3
 70
   128
 43
0.0
 10
1.8510210702
 20
0.9043337197
 10
1.8492470628
 20
0.9102530808
 10
1.8445725158
 20
0.911621222
  0
LWPOLYLINE
  5
26B
330
1F
100
AcDbEntity
  8
0
  6
Continuous
 62
     7
100
AcDbPolyline
 90
        3
 70
   128
 43
0.0
 10
1.7066217783
 20
0.8138677973
 10
1.7162567636
 20
0.8151478831
 10
1.7227686454
 20
0.819104588
  0
LWPOLYLINE
  5
26C
330
1F
100
AcDbEntity
  8
0
  6
Continuous
 62
     7
100
AcDbPolyline
 90
        3
 70
   128
 43
0.0
 10
1.7227678318
 20
0.819104588
 10
1.7315292336
 20
0.8303931265
 10
1.7353999783
 20
0.8409730376
  0
LWPOLYLINE
  5
26D
330
1F
100
AcDbEntity
  8
0
  6
Continuous
 62
     7
100
AcDbPolyline
 90
        3
 70
   128
 43
0.0
 10
1.7353997925
 20
0.8409730376
 10
1.7363791157
 20
0.8478169373
 10
1.7363939987
 20
0.8532649489
  0
ARC
  5
26E
330
1F
100
AcDbEntity
  8
0
  6
Continuous
 62
     7
100
AcDbCircle
 10
1.6818982796
 20
0.8589790463
 30
0.0
 40
0.0547940711720935
100
AcDbArc
 50
354.0141336064
 51
19.0135541922
  0
LWPOLYLINE
  5
26F
330
1F
100
AcDbEntity
  8
0
  6
Continuous
 62
     7
100
AcDbPolyline
 90
        3
 70
   128
 43
0.0
 10
1.7337019988
 20
0.8768305066
 10
1.7263786856
 20
0.8889147267
 10
1.71772581
 20
0.895838117
  0
LWPOLYLINE
  5
270
330
1F
100
AcDbEntity
  8
0
  6
Continuous
 62
     7
100
AcDbPolyline
 90
        3
 70
   128
 43
0.0
 10
1.7177249034
 20
0.895838117
 10
1.7117270106
 20
0.8976624151
 10
1.7067767402
 20
0.8978503549
  0
LWPOLYLINE
  5
271
330
1F
100
AcDbEntity
  8
0
  6
Continuous
 62
     7
100
AcDbPolyline
 90
        3
 70
   128
 43
0.0
 10
1.7343813509
 20
0.9003233312
 10
1.7197759889
 20
0.9095753072
 10
1.7062824527
 20
0.911621222
  0
LWPOLYLINE
  5
272
330
1F
100
AcDbEntity
  8
0
  6
Continuous
 62
     7
100
AcDbPolyline
 90
        3
 70
   128
 43
0.0
 10
1.6832879678
 20
0.9116211983
 10
1.6758881563
 20
0.9090021353
 10
1.6743283322
 20
0.9029417265
  0
LWPOLYLINE
  5
273
330
1F
100
AcDbEntity
  8
0
  6
Continuous
 62
     7
100
AcDbPolyline
 90
        3
 70
   128
 43
0.0
 10
1.6743273247
 20
0.8102182574
 10
1.6763355849
 20
0.8018205501
 10
1.682959339
 20
0.8000969776
  0
LWPOLYLINE
  5
274
330
1F
100
AcDbEntity
  8
0
  6
Continuous
 62
     7
100
AcDbPolyline
 90
        3
 70
   128
 43
0.0
 10
1.7066076985
 20
0.8000969776
 10
1.7303470455
 20
0.8076536306
 10
1.7427217873
 20
0.8231291585
  0
LWPOLYLINE
  5
275
330
1F
100
AcDbEntity
  8
0
  6
Continuous
 62
     7
100
AcDbPolyline
 90
        3
 70
   128
 43
0.0
 10
1.7427213079
 20
0.8231291585
 10
1.749142583
 20
0.8413002386
 10
1.7501648184
 20
0.8564652098
  0
LWPOLYLINE
  5
276
330
1F
100
AcDbEntity
  8
0
  6
Continuous
 62
     7
100
AcDbPolyline
 90
        3
 70
   128
 43
0.0
 10
1.7501636753
 20
0.8564652098
 10
1.7458738094
 20
0.8828062509
 10
1.7343817134
 20
0.9003233312
  0
LWPOLYLINE
  5
277
330
1F
100
AcDbEntity
  8
0
  6
Continuous
 62
     7
100
AcDbPolyline
 90
        3
 70
   128
 43
0.0
 10
1.6806925845
 20
1.6056523548
 10
1.683720029
 20
1.6012360435
 10
1.687735486
 20
1.6000969776
  0
LWPOLYLINE
  5
278
330
1F
100
AcDbEntity
  8
0
  6
Continuous
 62
     7
100
AcDbPolyline
 90
        3
 70
   128
 43
0.0
 10
1.6877348498
 20
1.6000969776
 10
1.6931599213
 20
1.6022735803
 10
1.6949603175
 20
1.6064974995
  0
LWPOLYLINE
  5
279
330
1F
100
AcDbEntity
  8
0
  6
Continuous
 62
     7
100
AcDbPolyline
 90
        3
 70
   128
 43
0.0
 10
1.694960153
 20
1.6064974995
 10
1.6946944421
 20
1.6086501708
 10
1.6942814742
 20
1.6103038704
  0
LWPOLYLINE
  5
27A
330
1F
100
AcDbEntity
  8
0
  6
Continuous
 62
     7
100
AcDbPolyline
 90
        3
 70
   128
 43
0.0
 10
1.6580698058
 20
1.704786195
 10
1.6548940787
 20
1.71023784
 10
1.6502051533
 20
1.711621222
  0
LWPOLYLINE
  5
27B
330
1F
100
AcDbEntity
  8
0
  6
Continuous
 62
     7
100
AcDbPolyline
 90
        3
 70
   128
 43
0.0
 10
1.6502050434
 20
1.711621222
 10
1.6454483842
 20
1.7098524124
 10
1.6433439878
 20
1.7063359426
  0
LWPOLYLINE
  5
27C
330
1F
100
AcDbEntity
  8
0
  6
Continuous
 62
     7
100
AcDbPolyline
 90
        3
 70
   128
 43
0.0
 10
1.6074610038
 20
1.6114405871
 10
1.6065073814
 20
1.6087203999
 10
1.6061288324
 20
1.6064974995
  0
LWPOLYLINE
  5
27D
330
1F
100
AcDbEntity
  8
0
  6
Continuous
 62
     7
100
AcDbPolyline
 90
        3
 70
   128
 43
0.0
 10
1.6061281125
 20
1.6064974995
 10
1.6088826573
 20
1.6014313862
 10
1.6133294194
 20
1.6000969776
  0
LWPOLYLINE
  5
27E
330
1F
100
AcDbEntity
  8
0
  6
Continuous
 62
     7
100
AcDbPolyline
 90
        3
 70
   128
 43
0.0
 10
1.613328776
 20
1.6000969776
 10
1.6179805062
 20
1.6016448702
 10
1.6202148293
 20
1.6048488802
  0
LWPOLYLINE
  5
27F
330
1F
100
AcDbEntity
  8
0
  6
Continuous
 62
     7
100
AcDbPolyline
 90
        3
 70
   128
 43
0.0
 10
1.7283927268
 20
1.6267173299
 10
1.7256313276
 20
1.6347050808
 10
1.7253385519
 20
1.6413851924
  0
LWPOLYLINE
  5
280
330
1F
100
AcDbEntity
  8
0
  6
Continuous
 62
     7
100
AcDbPolyline
 90
        3
 70
   128
 43
0.0
 10
1.7253374021
 20
1.70331259
 10
1.7235234141
 20
1.7098548156
 10
1.7185501196
 20
1.711621222
  0
LWPOLYLINE
  5
281
330
1F
100
AcDbEntity
  8
0
  6
Continuous
 62
     7
100
AcDbPolyline
 90
        3
 70
   128
 43
0.0
 10
1.7185497472
 20
1.711621222
 10
1.7127548634
 20
1.7087954347
 10
1.7115677321
 20
1.7036690585
  0
LWPOLYLINE
  5
282
330
1F
100
AcDbEntity
  8
0
  6
Continuous
 62
     7
100
AcDbPolyline
 90
        3
 70
   128
 43
0.0
 10
1.7115673212
 20
1.6410387627
 10
1.7120966835
 20
1.631729982
 10
1.7140649054
 20
1.6246808002
  0
LWPOLYLINE
  5
283
330
1F
100
AcDbEntity
  8
0
  6
Continuous
 62
     7
100
AcDbPolyline
 90
        3
 70
   128
 43
0.0
 10
1.7140641457
 20
1.6246808002
 10
1.7305972485
 20
1.6052070861
 10
1.7501890628
 20
1.6000969776
  0
LWPOLYLINE
  5
284
330
1F
100
AcDbEntity
  8
0
  6
Continuous
 62
     7
100
AcDbPolyline
 90
        3
 70
   128
 43
0.0
 10
1.750188315
 20
1.6000969776
 10
1.7807242671
 20
1.6145982943
 10
1.78895586
 20
1.6403669276
  0
LWPOLYLINE
  5
285
330
1F
100
AcDbEntity
  8
0
  6
Continuous
 62
     7
100
AcDbPolyline
 90
        4
 70
   128
 43
0.0
 10
1.7889548005
 20
1.7024687712
 10
1.7878233022
 20
1.7089206356
 10
1.7854116582
 20
1.7111011831
 10
1.7821674277
 20
1.711621222
  0
LWPOLYLINE
  5
286
330
1F
100
AcDbEntity
  8
0
  6
Continuous
 62
     7
100
AcDbPolyline
 90
        4
 70
   128
 43
0.0
 10
1.7821671456
 20
1.711621222
 10
1.7789115984
 20
1.7110828212
 10
1.776446628
 20
1.7089308951
 10
1.7751850402
 20
1.7024810828
  0
LWPOLYLINE
  5
287
330
1F
100
AcDbEntity
  8
0
  6
Continuous
 62
     7
100
AcDbPolyline
 90
        3
 70
   128
 43
0.0
 10
1.7751847196
 20
1.6418825815
 10
1.7749108338
 20
1.6347927609
 10
1.7735121766
 20
1.6294084584
  0
LWPOLYLINE
  5
288
330
1F
100
AcDbEntity
  8
0
  6
Continuous
 62
     7
100
AcDbPolyline
 90
        3
 70
   128
 43
0.0
 10
1.7735115656
 20
1.6294084584
 10
1.7627885629
 20
1.6170342645
 10
1.7501890628
 20
1.6138677973
  0
LWPOLYLINE
  5
289
330
1F
100
AcDbEntity
  8
0
  6
Continuous
 62
     7
100
AcDbPolyline
 90
        3
 70
   128
 43
0.0
 10
1.750188315
 20
1.6138677973
 10
1.7361195034
 20
1.6180644584
 10
1.7283933464
 20
1.6267173299
  0
LWPOLYLINE
  5
28A
330
1F
100
AcDbEntity
  8
0
  6
Continuous
 62
     7
100
AcDbPolyline
 90
        3
 70
   128
 43
0.0
 10
1.8385111347
 20
1.6138677973
 10
1.8481463048
 20
1.6151478831
 10
1.8546581866
 20
1.619104588
  0
LWPOLYLINE
  5
28B
330
1F
100
AcDbEntity
  8
0
  6
Continuous
 62
     7
100
AcDbPolyline
 90
        3
 70
   128
 43
0.0
 10
1.8546571882
 20
1.619104588
 10
1.8634187748
 20
1.6303931265
 10
1.8672895195
 20
1.6409730376
  0
LWPOLYLINE
  5
28C
330
1F
100
AcDbEntity
  8
0
  6
Continuous
 62
     7
100
AcDbPolyline
 90
        3
 70
   128
 43
0.0
 10
1.8672891489
 20
1.6409730376
 10
1.8682686569
 20
1.6478169373
 10
1.8682835399
 20
1.6532649489
  0
ARC
  5
28D
330
1F
100
AcDbEntity
  8
0
  6
Continuous
 62
     7
100
AcDbCircle
 10
1.8137923508
 20
1.6589799909
 30
0.0
 40
0.0547894806206287
100
AcDbArc
 50
354.0126370697
 51
19.014163663
  0
LWPOLYLINE
  5
28E
330
1F
100
AcDbEntity
  8
0
  6
Continuous
 62
     7
100
AcDbPolyline
 90
        3
 70
   128
 43
0.0
 10
1.8655913552
 20
1.6768305066
 10
1.8582682268
 20
1.6889147267
 10
1.8496153512
 20
1.695838117
  0
LWPOLYLINE
  5
28F
330
1F
100
AcDbEntity
  8
0
  6
Continuous
 62
     7
100
AcDbPolyline
 90
        3
 70
   128
 43
0.0
 10
1.8496142598
 20
1.695838117
 10
1.8436165518
 20
1.6976624151
 10
1.8386662814
 20
1.6978503549
  0
LWPOLYLINE
  5
290
330
1F
100
AcDbEntity
  8
0
  6
Continuous
 62
     7
100
AcDbPolyline
 90
        3
 70
   128
 43
0.0
 10
1.8662707073
 20
1.7003233312
 10
1.8516655301
 20
1.7095753072
 10
1.8381719939
 20
1.711621222
  0
LWPOLYLINE
  5
291
330
1F
100
AcDbEntity
  8
0
  6
Continuous
 62
     7
100
AcDbPolyline
 90
        3
 70
   128
 43
0.0
 10
1.8151773242
 20
1.7116211983
 10
1.8077776975
 20
1.7090021353
 10
1.8062178735
 20
1.7029417265
  0
LWPOLYLINE
  5
292
330
1F
100
AcDbEntity
  8
0
  6
Continuous
 62
     7
100
AcDbPolyline
 90
        3
 70
   128
 43
0.0
 10
1.8062166811
 20
1.6102182574
 10
1.8082251261
 20
1.6018205501
 10
1.8148488802
 20
1.6000969776
  0
LWPOLYLINE
  5
293
330
1F
100
AcDbEntity
  8
0
  6
Continuous
 62
     7
100
AcDbPolyline
 90
        3
 70
   128
 43
0.0
 10
1.8384970549
 20
1.6000969776
 10
1.8622365867
 20
1.6076536306
 10
1.8746113285
 20
1.6231291585
  0
LWPOLYLINE
  5
294
330
1F
100
AcDbEntity
  8
0
  6
Continuous
 62
     7
100
AcDbPolyline
 90
        3
 70
   128
 43
0.0
 10
1.8746106643
 20
1.6231291585
 10
1.8810321242
 20
1.6413002386
 10
1.8820543596
 20
1.6564652098
  0
LWPOLYLINE
  5
295
330
1F
100
AcDbEntity
  8
0
  6
Continuous
 62
     7
100
AcDbPolyline
 90
        3
 70
   128
 43
0.0
 10
1.882054205
 20
1.6564652098
 10
1.8777633506
 20
1.6828062509
 10
1.8662712546
 20
1.7003233312
  0
LWPOLYLINE
  5
296
330
1F
100
AcDbEntity
  8
0
  6
Continuous
 62
     7
100
AcDbPolyline
 90
        3
 70
   128
 43
0.0
 10
1.9109049651
 20
1.6028608393
 10
1.9114930211
 20
1.6055702943
 10
1.9115355512
 20
1.6077582083
  0
LWPOLYLINE
  5
297
330
1F
100
AcDbEntity
  8
0
  6
Continuous
 62
     7
100
AcDbPolyline
 90
        3
 70
   128
 43
0.0
 10
1.9115350378
 20
1.7041394093
 10
1.9099017131
 20
1.7099535889
 10
1.9055229398
 20
1.711621222
  0
LWPOLYLINE
  5
298
330
1F
100
AcDbEntity
  8
0
  6
Continuous
 62
     7
100
AcDbPolyline
 90
        3
 70
   128
 43
0.0
 10
1.9055217739
 20
1.711621222
 10
1.9021630637
 20
1.7106975271
 10
1.9001164384
 20
1.7088573603
  0
LWPOLYLINE
  5
299
330
1F
100
AcDbEntity
  8
0
  6
Continuous
 62
     7
100
AcDbPolyline
 90
        3
 70
   128
 43
0.0
 10
1.9001162897
 20
1.7088573603
 10
1.8993781521
 20
1.705991811
 10
1.8993163731
 20
1.7036448141
  0
LWPOLYLINE
  5
29A
330
1F
100
AcDbEntity
  8
0
  6
Continuous
 62
     7
100
AcDbPolyline
 90
        3
 70
   128
 43
0.0
 10
1.8993160856
 20
1.607741635
 10
1.899357308
 20
1.6053388424
 10
1.8998012611
 20
1.6035154381
  0
LWPOLYLINE
  5
29B
330
1F
100
AcDbEntity
  8
0
  6
Continuous
 62
     7
100
AcDbPolyline
 90
        3
 70
   128
 43
0.0
 10
1.8998006667
 20
1.6035154381
 10
1.9025536262
 20
1.6008193841
 10
1.9055229398
 20
1.6000969776
  0
LWPOLYLINE
  5
29C
330
1F
100
AcDbEntity
  8
0
  6
Continuous
 62
     7
100
AcDbPolyline
 90
        3
 70
   128
 43
0.0
 10
1.9055217739
 20
1.6000969776
 10
1.9088785709
 20
1.6010283336
 10
1.9109051968
 20
1.6028608393
  0
LWPOLYLINE
  5
29D
330
1F
100
AcDbEntity
  8
0
  6
Continuous
 62
     7
100
AcDbPolyline
 90
        3
 70
   128
 43
0.0
 10
1.9825713372
 20
1.6937530985
 10
1.9755005115
 20
1.6980700653
 10
1.9691339235
 20
1.6994016967
  0
LWPOLYLINE
  5
29E
330
1F
100
AcDbEntity
  8
0
  6
Continuous
 62
     7
100
AcDbPolyline
 90
        3
 70
   128
 43
0.0
 10
1.9691333057
 20
1.6994016967
 10
1.9600427974
 20
1.6969368352
 10
1.9540359861
 20
1.6925651229
  0
LWPOLYLINE
  5
29F
330
1F
100
AcDbEntity
  8
0
  6
Continuous
 62
     7
100
AcDbPolyline
 90
        3
 70
   128
 43
0.0
 10
1.9540350268
 20
1.6925651229
 10
1.9455695525
 20
1.6739436804
 10
1.9441200261
 20
1.6577501631
  0
LWPOLYLINE
  5
2A0
330
1F
100
AcDbEntity
  8
0
  6
Continuous
 62
     7
100
AcDbPolyline
 90
        3
 70
   128
 43
0.0
 10
1.9441193014
 20
1.6577501631
 10
1.946017476
 20
1.6377480641
 10
1.9521934116
 20
1.6232988693
  0
LWPOLYLINE
  5
2A1
330
1F
100
AcDbEntity
  8
0
  6
Continuous
 62
     7
100
AcDbPolyline
 90
        3
 70
   128
 43
0.0
 10
1.9521929148
 20
1.6232988693
 10
1.9606596997
 20
1.6160606345
 10
1.9691402479
 20
1.6138677973
  0
LWPOLYLINE
  5
2A2
330
1F
100
AcDbEntity
  8
0
  6
Continuous
 62
     7
100
AcDbPolyline
 90
        3
 70
   128
 43
0.0
 10
1.9691391723
 20
1.6138677973
 10
1.9785092468
 20
1.6165382592
 10
1.9845839313
 20
1.6212623396
  0
LWPOLYLINE
  5
2A3
330
1F
100
AcDbEntity
  8
0
  6
Continuous
 62
     7
100
AcDbPolyline
 90
        3
 70
   128
 43
0.0
 10
1.9845835806
 20
1.6212623396
 10
1.9927259695
 20
1.6405193434
 10
1.9939665145
 20
1.6570713199
  0
LWPOLYLINE
  5
2A4
330
1F
100
AcDbEntity
  8
0
  6
Continuous
 62
     7
100
AcDbPolyline
 90
        3
 70
   128
 43
0.0
 10
1.9939654455
 20
1.6570713199
 10
1.9912408538
 20
1.678925155
 10
1.982571646
 20
1.6937530985
  0
LWPOLYLINE
  5
2A5
330
1F
100
AcDbEntity
  8
0
  6
Continuous
 62
     7
100
AcDbPolyline
 90
        3
 70
   128
 43
0.0
 10
1.9912984897
 20
1.7049297673
 10
1.9795390774
 20
1.711388418
 10
1.9691402479
 20
1.7131728637
  0
LWPOLYLINE
  5
2A6
330
1F
100
AcDbEntity
  8
0
  6
Continuous
 62
     7
100
AcDbPolyline
 90
        3
 70
   128
 43
0.0
 10
1.9691274391
 20
1.71317284
 10
1.9537912459
 20
1.709261265
 10
1.9436351381
 20
1.7019961948
  0
LWPOLYLINE
  5
2A7
330
1F
100
AcDbEntity
  8
0
  6
Continuous
 62
     7
100
AcDbPolyline
 90
        3
 70
   128
 43
0.0
 10
1.9436347203
 20
1.7019961948
 10
1.9324292017
 20
1.6785867119
 10
1.9303492063
 20
1.6581138291
  0
LWPOLYLINE
  5
2A8
330
1F
100
AcDbEntity
  8
0
  6
Continuous
 62
     7
100
AcDbPolyline
 90
        3
 70
   128
 43
0.0
 10
1.9303480471
 20
1.6581138291
 10
1.9330489645
 20
1.6325009554
 10
1.941210698
 20
1.6140617526
  0
LWPOLYLINE
  5
2A9
330
1F
100
AcDbEntity
  8
0
  6
Continuous
 62
     7
100
AcDbPolyline
 90
        3
 70
   128
 43
0.0
 10
1.9412106416
 20
1.6140617526
 10
1.9556474847
 20
1.6032810595
 10
1.9694796695
 20
1.6000969776
  0
LWPOLYLINE
  5
2AA
330
1F
100
AcDbEntity
  8
0
  6
Continuous
 62
     7
100
AcDbPolyline
 90
        3
 70
   128
 43
0.0
 10
1.9694794351
 20
1.6000969776
 10
1.9835197981
 20
1.6033746086
 10
1.992972494
 20
1.609673516
  0
LWPOLYLINE
  5
2AB
330
1F
100
AcDbEntity
  8
0
  6
Continuous
 62
     7
100
AcDbPolyline
 90
        3
 70
   128
 43
0.0
 10
1.9929716437
 20
1.609673516
 10
2.0056016644
 20
1.6343191624
 10
2.0077373342
 20
1.6562227658
  0
ARC
  5
2AC
330
1F
100
AcDbEntity
  8
0
  6
Continuous
 62
     7
100
AcDbCircle
 10
1.9470551504
 20
1.6628716617
 30
0.0
 40
0.061044723361201
100
AcDbArc
 50
353.747027963
 51
43.5487893316
  0
ENDSEC
  0
SECTION
  2
OBJECTS
  0
DICTIONARY
  5
C
330
0
100
AcDbDictionary
281
     1
  3
ACAD_GROUP
350
D
  3
ACAD_LAYOUT
350
1A
  3
ACAD_MLINESTYLE
350
17
  3
ACAD_PLOTSETTINGS
350
19
  3
ACAD_PLOTSTYLENAME
350
E
  3
ACAD_SCALELIST
350
47
  3
DWGPROPS
350
2AD
  0
DICTIONARY
  5
D
102
{ACAD_REACTORS
330
C
102
}
330
C
100
AcDbDictionary
281
     1
  0
DICTIONARY
  5
1A
102
{ACAD_REACTORS
330
C
102
}
330
C
100
AcDbDictionary
281
     1
  3
Layout1
350
1E
  3
Layout2
350
26
  3
Model
350
22
  0
DICTIONARY
  5
17
102
{ACAD_REACTORS
330
C
102
}
330
C
100
AcDbDictionary
281
     1
  3
Standard
350
18
  0
DICTIONARY
  5
19
102
{ACAD_REACTORS
330
C
102
}
330
C
100
AcDbDictionary
281
     1
  0
ACDBDICTIONARYWDFLT
  5
E
102
{ACAD_REACTORS
330
C
102
}
330
C
100
AcDbDictionary
281
     1
  3
Normal
350
F
100
AcDbDictionaryWithDefault
340
F
  0
DICTIONARY
  5
47
102
{ACAD_REACTORS
330
C
102
}
330
C
100
AcDbDictionary
281
     1
  3
A0
350
48
  3
A1
350
49
  3
A2
350
4A
  3
A3
350
4B
  3
A4
350
4C
  3
A5
350
4D
  3
A6
350
4E
  3
A7
350
4F
  3
A8
350
50
  3
A9
350
51
  3
B0
350
52
  3
B1
350
53
  3
B2
350
54
  3
B3
350
55
  3
B4
350
56
  3
B5
350
57
  3
B6
350
58
  3
B7
350
59
  3
B8
350
5A
  3
B9
350
5B
  3
C0
350
5C
  3
C1
350
5D
  3
C2
350
5E
  3
C3
350
5F
  3
C4
350
60
  3
C5
350
61
  3
C6
350
62
  3
C7
350
63
  3
C8
350
64
  3
C9
350
65
  3
D0
350
66
  3
D1
350
67
  3
D2
350
68
  0
XRECORD
  5
2AD
102
{ACAD_REACTORS
330
C
102
}
330
C
100
AcDbXrecord
280
     1
  1
DWGPROPS COOKIE
  2

  3

  4

  6

  7

  8
johns
  9

300
=
301
=
302
=
303
=
304
=
305
=
306
=
307
=
308
=
309
=
 40
0.0
 41
2459476.021022581
 42
2459476.021050498
  1

 90
        0
  0
LAYOUT
  5
1E
102
{ACAD_REACTORS
330
1A
102
}
330
1A
100
AcDbPlotSettings
  1

  2
none_device
  4

  6

 40
0.0
 41
0.0
 42
0.0
 43
0.0
 44
0.0
 45
0.0
 46
0.0
 47
0.0
 48
0.0
 49
0.0
140
0.0
141
0.0
142
1.0
143
1.0
 70
   688
 72
     0
 73
     0
 74
     5
  7

 75
    16
147
1.0
148
0.0
149
0.0
100
AcDbLayout
  1
Layout1
 70
     1
 71
     1
 10
0.0
 20
0.0
 11
12.0
 21
9.0
 12
0.0
 22
0.0
 32
0.0
 14
1.0000000000E+20
 24
1.0000000000E+20
 34
1.0000000000E+20
 15
-1.0000000000E+20
 25
-1.0000000000E+20
 35
-1.0000000000E+20
146
0.0
 13
0.0
 23
0.0
 33
0.0
 16
1.0
 26
0.0
 36
0.0
 17
0.0
 27
1.0
 37
0.0
 76
     0
330
1B
  0
LAYOUT
  5
26
102
{ACAD_REACTORS
330
1A
102
}
330
1A
100
AcDbPlotSettings
  1

  2
none_device
  4

  6

 40
0.0
 41
0.0
 42
0.0
 43
0.0
 44
0.0
 45
0.0
 46
0.0
 47
0.0
 48
0.0
 49
0.0
140
0.0
141
0.0
142
1.0
143
1.0
 70
   688
 72
     0
 73
     0
 74
     5
  7

 75
    16
147
1.0
148
0.0
149
0.0
100
AcDbLayout
  1
Layout2
 70
     1
 71
     2
 10
0.0
 20
0.0
 11
0.0
 21
0.0
 12
0.0
 22
0.0
 32
0.0
 14
0.0
 24
0.0
 34
0.0
 15
0.0
 25
0.0
 35
0.0
146
0.0
 13
0.0
 23
0.0
 33
0.0
 16
1.0
 26
0.0
 36
0.0
 17
0.0
 27
1.0
 37
0.0
 76
     0
330
23
  0
LAYOUT
  5
22
102
{ACAD_REACTORS
330
1A
102
}
330
1A
100
AcDbPlotSettings
  1

  2
none_device
  4
ANSI_A_(11.00_x_8.50_Inches)
  6

 40
6.35
 41
19.05
 42
6.35000508
 43
19.05000254
 44
279.4
 45
215.9
 46
133.34999746
 47
37.5752840229
 48
0.0
 49
0.0
140
0.0
141
0.0
142
2.2534919814
143
1.0
 70
  1696
 72
     0
 73
     0
 74
     0
  7

 75
     0
147
0.5913241897
148
-39.4088153714
149
0.0
100
AcDbLayout
  1
Model
 70
     1
 71
     0
 10
0.0
 20
0.0
 11
12.0
 21
9.0
 12
0.0
 22
0.0
 32
0.0
 14
-2.41625
 24
0.0625
 34
0.0
 15
2.41625
 25
1.7308572216
 35
0.0
146
0.0
 13
0.0
 23
0.0
 33
0.0
 16
1.0
 26
0.0
 36
0.0
 17
0.0
 27
1.0
 37
0.0
 76
     0
330
1F
331
29
  0
MLINESTYLE
  5
18
102
{ACAD_REACTORS
330
17
102
}
330
17
100
AcDbMlineStyle
  2
Standard
 70
     0
  3

 62
   256
 51
90.0
 52
90.0
 71
     2
 49
0.5
 62
   256
  6
BYLAYER
 49
-0.5
 62
   256
  6
BYLAYER
  0
ACDBPLACEHOLDER
  5
F
102
{ACAD_REACTORS
330
E
102
}
330
E
  0
SCALE
  5
48
102
{ACAD_REACTORS
330
47
102
}
330
47
100
AcDbScale
 70
     0
300
1:1
140
1.0
141
1.0
290
     1
  0
SCALE
  5
49
102
{ACAD_REACTORS
330
47
102
}
330
47
100
AcDbScale
 70
     0
300
1:2
140
1.0
141
2.0
290
     0
  0
SCALE
  5
4A
102
{ACAD_REACTORS
330
47
102
}
330
47
100
AcDbScale
 70
     0
300
1:4
140
1.0
141
4.0
290
     0
  0
SCALE
  5
4B
102
{ACAD_REACTORS
330
47
102
}
330
47
100
AcDbScale
 70
     0
300
1:5
140
1.0
141
5.0
290
     0
  0
SCALE
  5
4C
102
{ACAD_REACTORS
330
47
102
}
330
47
100
AcDbScale
 70
     0
300
1:8
140
1.0
141
8.0
290
     0
  0
SCALE
  5
4D
102
{ACAD_REACTORS
330
47
102
}
330
47
100
AcDbScale
 70
     0
300
1:10
140
1.0
141
10.0
290
     0
  0
SCALE
  5
4E
102
{ACAD_REACTORS
330
47
102
}
330
47
100
AcDbScale
 70
     0
300
1:16
140
1.0
141
16.0
290
     0
  0
SCALE
  5
4F
102
{ACAD_REACTORS
330
47
102
}
330
47
100
AcDbScale
 70
     0
300
1:20
140
1.0
141
20.0
290
     0
  0
SCALE
  5
50
102
{ACAD_REACTORS
330
47
102
}
330
47
100
AcDbScale
 70
     0
300
1:30
140
1.0
141
30.0
290
     0
  0
SCALE
  5
51
102
{ACAD_REACTORS
330
47
102
}
330
47
100
AcDbScale
 70
     0
300
1:40
140
1.0
141
40.0
290
     0
  0
SCALE
  5
52
102
{ACAD_REACTORS
330
47
102
}
330
47
100
AcDbScale
 70
     0
300
1:50
140
1.0
141
50.0
290
     0
  0
SCALE
  5
53
102
{ACAD_REACTORS
330
47
102
}
330
47
100
AcDbScale
 70
     0
300
1:100
140
1.0
141
100.0
290
     0
  0
SCALE
  5
54
102
{ACAD_REACTORS
330
47
102
}
330
47
100
AcDbScale
 70
     0
300
2:1
140
2.0
141
1.0
290
     0
  0
SCALE
  5
55
102
{ACAD_REACTORS
330
47
102
}
330
47
100
AcDbScale
 70
     0
300
4:1
140
4.0
141
1.0
290
     0
  0
SCALE
  5
56
102
{ACAD_REACTORS
330
47
102
}
330
47
100
AcDbScale
 70
     0
300
8:1
140
8.0
141
1.0
290
     0
  0
SCALE
  5
57
102
{ACAD_REACTORS
330
47
102
}
330
47
100
AcDbScale
 70
     0
300
10:1
140
10.0
141
1.0
290
     0
  0
SCALE
  5
58
102
{ACAD_REACTORS
330
47
102
}
330
47
100
AcDbScale
 70
     0
300
100:1
140
100.0
141
1.0
290
     0
  0
SCALE
  5
59
102
{ACAD_REACTORS
330
47
102
}
330
47
100
AcDbScale
 70
     0
300
1/128" = 1'-0"
140
0.0078125
141
12.0
290
     0
  0
SCALE
  5
5A
102
{ACAD_REACTORS
330
47
102
}
330
47
100
AcDbScale
 70
     0
300
1/64" = 1'-0"
140
0.015625
141
12.0
290
     0
  0
SCALE
  5
5B
102
{ACAD_REACTORS
330
47
102
}
330
47
100
AcDbScale
 70
     0
300
1/32" = 1'-0"
140
0.03125
141
12.0
290
     0
  0
SCALE
  5
5C
102
{ACAD_REACTORS
330
47
102
}
330
47
100
AcDbScale
 70
     0
300
1/16" = 1'-0"
140
0.0625
141
12.0
290
     0
  0
SCALE
  5
5D
102
{ACAD_REACTORS
330
47
102
}
330
47
100
AcDbScale
 70
     0
300
3/32" = 1'-0"
140
0.09375
141
12.0
290
     0
  0
SCALE
  5
5E
102
{ACAD_REACTORS
330
47
102
}
330
47
100
AcDbScale
 70
     0
300
1/8" = 1'-0"
140
0.125
141
12.0
290
     0
  0
SCALE
  5
5F
102
{ACAD_REACTORS
330
47
102
}
330
47
100
AcDbScale
 70
     0
300
3/16" = 1'-0"
140
0.1875
141
12.0
290
     0
  0
SCALE
  5
60
102
{ACAD_REACTORS
330
47
102
}
330
47
100
AcDbScale
 70
     0
300
1/4" = 1'-0"
140
0.25
141
12.0
290
     0
  0
SCALE
  5
61
102
{ACAD_REACTORS
330
47
102
}
330
47
100
AcDbScale
 70
     0
300
3/8" = 1'-0"
140
0.375
141
12.0
290
     0
  0
SCALE
  5
62
102
{ACAD_REACTORS
330
47
102
}
330
47
100
AcDbScale
 70
     0
300
1/2" = 1'-0"
140
0.5
141
12.0
290
     0
  0
SCALE
  5
63
102
{ACAD_REACTORS
330
47
102
}
330
47
100
AcDbScale
 70
     0
300
3/4" = 1'-0"
140
0.75
141
12.0
290
     0
  0
SCALE
  5
64
102
{ACAD_REACTORS
330
47
102
}
330
47
100
AcDbScale
 70
     0
300
1" = 1'-0"
140
1.0
141
12.0
290
     0
  0
SCALE
  5
65
102
{ACAD_REACTORS
330
47
102
}
330
47
100
AcDbScale
 70
     0
300
1-1/2" = 1'-0"
140
1.5
141
12.0
290
     0
  0
SCALE
  5
66
102
{ACAD_REACTORS
330
47
102
}
330
47
100
AcDbScale
 70
     0
300
3" = 1'-0"
140
3.0
141
12.0
290
     0
  0
SCALE
  5
67
102
{ACAD_REACTORS
330
47
102
}
330
47
100
AcDbScale
 70
     0
300
6" = 1'-0"
140
6.0
141
12.0
290
     0
  0
SCALE
  5
68
102
{ACAD_REACTORS
330
47
102
}
330
47
100
AcDbScale
 70
     0
300
1'-0" = 1'-0"
140
12.0
141
12.0
290
     0
  0
ENDSEC
  0
EOF
