M48
; DRILL file {KiCad (5.1.4)-1} date 11/21/2020 1:07:23 PM
; FORMAT={-:-/ absolute / inch / decimal}
; #@! TF.CreationDate,2020-11-21T13:07:23-08:00
; #@! TF.GenerationSoftware,Kicad,Pcbnew,(5.1.4)-1
FMAT,2
INCH
T1C0.0197
%
G90
G05
T1
X7.2141Y-3.2694
X5.9739Y-3.2694
X6.0133Y-3.2694
X6.0527Y-3.2694
X6.092Y-3.2694
X6.1314Y-3.2694
X6.0133Y-3.6631
X6.0527Y-3.6631
X6.092Y-3.6631
X6.1314Y-3.6631
X6.1708Y-3.6631
X7.2534Y-3.2694
X7.2928Y-3.2694
X7.3322Y-3.2694
X7.3716Y-3.2694
X7.2141Y-3.6631
X7.2534Y-3.6631
X7.2928Y-3.6631
X7.3322Y-3.6631
X7.3716Y-3.6631
T0
M30
