G04 #@! TF.GenerationSoftware,KiCad,Pcbnew,(5.1.4)-1*
G04 #@! TF.CreationDate,2020-12-07T07:56:07-07:00*
G04 #@! TF.ProjectId,ufc_v4_opt_layer2,7566635f-7634-45f6-9f70-745f6c617965,rev?*
G04 #@! TF.SameCoordinates,Original*
G04 #@! TF.FileFunction,Legend,Bot*
G04 #@! TF.FilePolarity,Positive*
%FSLAX46Y46*%
G04 Gerber Fmt 4.6, Leading zero omitted, Abs format (unit mm)*
G04 Created by KiCad (PCBNEW (5.1.4)-1) date 2020-12-07 07:56:07*
%MOMM*%
%LPD*%
G04 APERTURE LIST*
%ADD10C,0.150000*%
G04 APERTURE END LIST*
D10*
X102593428Y-84239142D02*
X102593428Y-84582000D01*
X103193428Y-84410571D02*
X102593428Y-84410571D01*
X103193428Y-84782000D02*
X102593428Y-84782000D01*
X102879142Y-84782000D02*
X102879142Y-85124857D01*
X103193428Y-85124857D02*
X102593428Y-85124857D01*
X103193428Y-85410571D02*
X102593428Y-85410571D01*
X103164857Y-85667714D02*
X103193428Y-85753428D01*
X103193428Y-85896285D01*
X103164857Y-85953428D01*
X103136285Y-85982000D01*
X103079142Y-86010571D01*
X103022000Y-86010571D01*
X102964857Y-85982000D01*
X102936285Y-85953428D01*
X102907714Y-85896285D01*
X102879142Y-85782000D01*
X102850571Y-85724857D01*
X102822000Y-85696285D01*
X102764857Y-85667714D01*
X102707714Y-85667714D01*
X102650571Y-85696285D01*
X102622000Y-85724857D01*
X102593428Y-85782000D01*
X102593428Y-85924857D01*
X102622000Y-86010571D01*
X103164857Y-86696285D02*
X103193428Y-86782000D01*
X103193428Y-86924857D01*
X103164857Y-86982000D01*
X103136285Y-87010571D01*
X103079142Y-87039142D01*
X103022000Y-87039142D01*
X102964857Y-87010571D01*
X102936285Y-86982000D01*
X102907714Y-86924857D01*
X102879142Y-86810571D01*
X102850571Y-86753428D01*
X102822000Y-86724857D01*
X102764857Y-86696285D01*
X102707714Y-86696285D01*
X102650571Y-86724857D01*
X102622000Y-86753428D01*
X102593428Y-86810571D01*
X102593428Y-86953428D01*
X102622000Y-87039142D01*
X103193428Y-87296285D02*
X102593428Y-87296285D01*
X103193428Y-87582000D02*
X102593428Y-87582000D01*
X102593428Y-87724857D01*
X102622000Y-87810571D01*
X102679142Y-87867714D01*
X102736285Y-87896285D01*
X102850571Y-87924857D01*
X102936285Y-87924857D01*
X103050571Y-87896285D01*
X103107714Y-87867714D01*
X103164857Y-87810571D01*
X103193428Y-87724857D01*
X103193428Y-87582000D01*
X102879142Y-88182000D02*
X102879142Y-88382000D01*
X103193428Y-88467714D02*
X103193428Y-88182000D01*
X102593428Y-88182000D01*
X102593428Y-88467714D01*
X103193428Y-89182000D02*
X102593428Y-89182000D01*
X102593428Y-89324857D01*
X102622000Y-89410571D01*
X102679142Y-89467714D01*
X102736285Y-89496285D01*
X102850571Y-89524857D01*
X102936285Y-89524857D01*
X103050571Y-89496285D01*
X103107714Y-89467714D01*
X103164857Y-89410571D01*
X103193428Y-89324857D01*
X103193428Y-89182000D01*
X102593428Y-89896285D02*
X102593428Y-90010571D01*
X102622000Y-90067714D01*
X102679142Y-90124857D01*
X102793428Y-90153428D01*
X102993428Y-90153428D01*
X103107714Y-90124857D01*
X103164857Y-90067714D01*
X103193428Y-90010571D01*
X103193428Y-89896285D01*
X103164857Y-89839142D01*
X103107714Y-89782000D01*
X102993428Y-89753428D01*
X102793428Y-89753428D01*
X102679142Y-89782000D01*
X102622000Y-89839142D01*
X102593428Y-89896285D01*
X102593428Y-90353428D02*
X103193428Y-90496285D01*
X102764857Y-90610571D01*
X103193428Y-90724857D01*
X102593428Y-90867714D01*
X103193428Y-91096285D02*
X102593428Y-91096285D01*
X103193428Y-91439142D01*
X102593428Y-91439142D01*
X127648857Y-92371928D02*
X127934571Y-92371928D01*
X127934571Y-91771928D01*
X127477428Y-92200500D02*
X127191714Y-92200500D01*
X127534571Y-92371928D02*
X127334571Y-91771928D01*
X127134571Y-92371928D01*
X126820285Y-92086214D02*
X126820285Y-92371928D01*
X127020285Y-91771928D02*
X126820285Y-92086214D01*
X126620285Y-91771928D01*
X126420285Y-92057642D02*
X126220285Y-92057642D01*
X126134571Y-92371928D02*
X126420285Y-92371928D01*
X126420285Y-91771928D01*
X126134571Y-91771928D01*
X125534571Y-92371928D02*
X125734571Y-92086214D01*
X125877428Y-92371928D02*
X125877428Y-91771928D01*
X125648857Y-91771928D01*
X125591714Y-91800500D01*
X125563142Y-91829071D01*
X125534571Y-91886214D01*
X125534571Y-91971928D01*
X125563142Y-92029071D01*
X125591714Y-92057642D01*
X125648857Y-92086214D01*
X125877428Y-92086214D01*
X124848857Y-91829071D02*
X124820285Y-91800500D01*
X124763142Y-91771928D01*
X124620285Y-91771928D01*
X124563142Y-91800500D01*
X124534571Y-91829071D01*
X124506000Y-91886214D01*
X124506000Y-91943357D01*
X124534571Y-92029071D01*
X124877428Y-92371928D01*
X124506000Y-92371928D01*
X123363142Y-91743357D02*
X123877428Y-92514785D01*
X122420285Y-92371928D02*
X122706000Y-92371928D01*
X122706000Y-91771928D01*
X122220285Y-92057642D02*
X122020285Y-92057642D01*
X121934571Y-92371928D02*
X122220285Y-92371928D01*
X122220285Y-91771928D01*
X121934571Y-91771928D01*
X121677428Y-92371928D02*
X121677428Y-91771928D01*
X121534571Y-91771928D01*
X121448857Y-91800500D01*
X121391714Y-91857642D01*
X121363142Y-91914785D01*
X121334571Y-92029071D01*
X121334571Y-92114785D01*
X121363142Y-92229071D01*
X121391714Y-92286214D01*
X121448857Y-92343357D01*
X121534571Y-92371928D01*
X121677428Y-92371928D01*
X120648857Y-92343357D02*
X120563142Y-92371928D01*
X120420285Y-92371928D01*
X120363142Y-92343357D01*
X120334571Y-92314785D01*
X120306000Y-92257642D01*
X120306000Y-92200500D01*
X120334571Y-92143357D01*
X120363142Y-92114785D01*
X120420285Y-92086214D01*
X120534571Y-92057642D01*
X120591714Y-92029071D01*
X120620285Y-92000500D01*
X120648857Y-91943357D01*
X120648857Y-91886214D01*
X120620285Y-91829071D01*
X120591714Y-91800500D01*
X120534571Y-91771928D01*
X120391714Y-91771928D01*
X120306000Y-91800500D01*
X120048857Y-92371928D02*
X120048857Y-91771928D01*
X119820285Y-91771928D01*
X119763142Y-91800500D01*
X119734571Y-91829071D01*
X119706000Y-91886214D01*
X119706000Y-91971928D01*
X119734571Y-92029071D01*
X119763142Y-92057642D01*
X119820285Y-92086214D01*
X120048857Y-92086214D01*
X119477428Y-92200500D02*
X119191714Y-92200500D01*
X119534571Y-92371928D02*
X119334571Y-91771928D01*
X119134571Y-92371928D01*
X118591714Y-92314785D02*
X118620285Y-92343357D01*
X118706000Y-92371928D01*
X118763142Y-92371928D01*
X118848857Y-92343357D01*
X118906000Y-92286214D01*
X118934571Y-92229071D01*
X118963142Y-92114785D01*
X118963142Y-92029071D01*
X118934571Y-91914785D01*
X118906000Y-91857642D01*
X118848857Y-91800500D01*
X118763142Y-91771928D01*
X118706000Y-91771928D01*
X118620285Y-91800500D01*
X118591714Y-91829071D01*
X118334571Y-92057642D02*
X118134571Y-92057642D01*
X118048857Y-92371928D02*
X118334571Y-92371928D01*
X118334571Y-91771928D01*
X118048857Y-91771928D01*
X117448857Y-92371928D02*
X117648857Y-92086214D01*
X117791714Y-92371928D02*
X117791714Y-91771928D01*
X117563142Y-91771928D01*
X117506000Y-91800500D01*
X117477428Y-91829071D01*
X117448857Y-91886214D01*
X117448857Y-91971928D01*
X117477428Y-92029071D01*
X117506000Y-92057642D01*
X117563142Y-92086214D01*
X117791714Y-92086214D01*
X125506000Y-93364785D02*
X125534571Y-93393357D01*
X125620285Y-93421928D01*
X125677428Y-93421928D01*
X125763142Y-93393357D01*
X125820285Y-93336214D01*
X125848857Y-93279071D01*
X125877428Y-93164785D01*
X125877428Y-93079071D01*
X125848857Y-92964785D01*
X125820285Y-92907642D01*
X125763142Y-92850500D01*
X125677428Y-92821928D01*
X125620285Y-92821928D01*
X125534571Y-92850500D01*
X125506000Y-92879071D01*
X124906000Y-93364785D02*
X124934571Y-93393357D01*
X125020285Y-93421928D01*
X125077428Y-93421928D01*
X125163142Y-93393357D01*
X125220285Y-93336214D01*
X125248857Y-93279071D01*
X125277428Y-93164785D01*
X125277428Y-93079071D01*
X125248857Y-92964785D01*
X125220285Y-92907642D01*
X125163142Y-92850500D01*
X125077428Y-92821928D01*
X125020285Y-92821928D01*
X124934571Y-92850500D01*
X124906000Y-92879071D01*
X123991714Y-93107642D02*
X123906000Y-93136214D01*
X123877428Y-93164785D01*
X123848857Y-93221928D01*
X123848857Y-93307642D01*
X123877428Y-93364785D01*
X123906000Y-93393357D01*
X123963142Y-93421928D01*
X124191714Y-93421928D01*
X124191714Y-92821928D01*
X123991714Y-92821928D01*
X123934571Y-92850500D01*
X123906000Y-92879071D01*
X123877428Y-92936214D01*
X123877428Y-92993357D01*
X123906000Y-93050500D01*
X123934571Y-93079071D01*
X123991714Y-93107642D01*
X124191714Y-93107642D01*
X123477428Y-93136214D02*
X123477428Y-93421928D01*
X123677428Y-92821928D02*
X123477428Y-93136214D01*
X123277428Y-92821928D01*
X123077428Y-93193357D02*
X122620285Y-93193357D01*
X122334571Y-93421928D02*
X122334571Y-92821928D01*
X121991714Y-93421928D01*
X121991714Y-92821928D01*
X121363142Y-93364785D02*
X121391714Y-93393357D01*
X121477428Y-93421928D01*
X121534571Y-93421928D01*
X121620285Y-93393357D01*
X121677428Y-93336214D01*
X121706000Y-93279071D01*
X121734571Y-93164785D01*
X121734571Y-93079071D01*
X121706000Y-92964785D01*
X121677428Y-92907642D01*
X121620285Y-92850500D01*
X121534571Y-92821928D01*
X121477428Y-92821928D01*
X121391714Y-92850500D01*
X121363142Y-92879071D01*
X121106000Y-93193357D02*
X120648857Y-93193357D01*
X120391714Y-93393357D02*
X120306000Y-93421928D01*
X120163142Y-93421928D01*
X120106000Y-93393357D01*
X120077428Y-93364785D01*
X120048857Y-93307642D01*
X120048857Y-93250500D01*
X120077428Y-93193357D01*
X120106000Y-93164785D01*
X120163142Y-93136214D01*
X120277428Y-93107642D01*
X120334571Y-93079071D01*
X120363142Y-93050500D01*
X120391714Y-92993357D01*
X120391714Y-92936214D01*
X120363142Y-92879071D01*
X120334571Y-92850500D01*
X120277428Y-92821928D01*
X120134571Y-92821928D01*
X120048857Y-92850500D01*
X119820285Y-93250500D02*
X119534571Y-93250500D01*
X119877428Y-93421928D02*
X119677428Y-92821928D01*
X119477428Y-93421928D01*
X129848857Y-82304071D02*
X129848857Y-83518357D01*
X129777428Y-83661214D01*
X129706000Y-83732642D01*
X129563142Y-83804071D01*
X129277428Y-83804071D01*
X129134571Y-83732642D01*
X129063142Y-83661214D01*
X128991714Y-83518357D01*
X128991714Y-82304071D01*
X127777428Y-83018357D02*
X128277428Y-83018357D01*
X128277428Y-83804071D02*
X128277428Y-82304071D01*
X127563142Y-82304071D01*
X126134571Y-83661214D02*
X126206000Y-83732642D01*
X126420285Y-83804071D01*
X126563142Y-83804071D01*
X126777428Y-83732642D01*
X126920285Y-83589785D01*
X126991714Y-83446928D01*
X127063142Y-83161214D01*
X127063142Y-82946928D01*
X126991714Y-82661214D01*
X126920285Y-82518357D01*
X126777428Y-82375500D01*
X126563142Y-82304071D01*
X126420285Y-82304071D01*
X126206000Y-82375500D01*
X126134571Y-82446928D01*
X124063142Y-82304071D02*
X123777428Y-82304071D01*
X123634571Y-82375500D01*
X123491714Y-82518357D01*
X123420285Y-82804071D01*
X123420285Y-83304071D01*
X123491714Y-83589785D01*
X123634571Y-83732642D01*
X123777428Y-83804071D01*
X124063142Y-83804071D01*
X124206000Y-83732642D01*
X124348857Y-83589785D01*
X124420285Y-83304071D01*
X124420285Y-82804071D01*
X124348857Y-82518357D01*
X124206000Y-82375500D01*
X124063142Y-82304071D01*
X122777428Y-83804071D02*
X122777428Y-82304071D01*
X122206000Y-82304071D01*
X122063142Y-82375500D01*
X121991714Y-82446928D01*
X121920285Y-82589785D01*
X121920285Y-82804071D01*
X121991714Y-82946928D01*
X122063142Y-83018357D01*
X122206000Y-83089785D01*
X122777428Y-83089785D01*
X121491714Y-82304071D02*
X120634571Y-82304071D01*
X121063142Y-83804071D02*
X121063142Y-82304071D01*
X118991714Y-83804071D02*
X118991714Y-82304071D01*
X118634571Y-82304071D01*
X118420285Y-82375500D01*
X118277428Y-82518357D01*
X118206000Y-82661214D01*
X118134571Y-82946928D01*
X118134571Y-83161214D01*
X118206000Y-83446928D01*
X118277428Y-83589785D01*
X118420285Y-83732642D01*
X118634571Y-83804071D01*
X118991714Y-83804071D01*
X117491714Y-83804071D02*
X117491714Y-82304071D01*
X116848857Y-83732642D02*
X116634571Y-83804071D01*
X116277428Y-83804071D01*
X116134571Y-83732642D01*
X116063142Y-83661214D01*
X115991714Y-83518357D01*
X115991714Y-83375500D01*
X116063142Y-83232642D01*
X116134571Y-83161214D01*
X116277428Y-83089785D01*
X116563142Y-83018357D01*
X116706000Y-82946928D01*
X116777428Y-82875500D01*
X116848857Y-82732642D01*
X116848857Y-82589785D01*
X116777428Y-82446928D01*
X116706000Y-82375500D01*
X116563142Y-82304071D01*
X116206000Y-82304071D01*
X115991714Y-82375500D01*
X115348857Y-83804071D02*
X115348857Y-82304071D01*
X114777428Y-82304071D01*
X114634571Y-82375500D01*
X114563142Y-82446928D01*
X114491714Y-82589785D01*
X114491714Y-82804071D01*
X114563142Y-82946928D01*
X114634571Y-83018357D01*
X114777428Y-83089785D01*
X115348857Y-83089785D01*
M02*
