G04 #@! TF.GenerationSoftware,KiCad,Pcbnew,(5.1.4-0-10_14)*
G04 #@! TF.CreationDate,2019-11-05T08:19:09+01:00*
G04 #@! TF.ProjectId,AP,41502e6b-6963-4616-945f-706362585858,rev?*
G04 #@! TF.SameCoordinates,Original*
G04 #@! TF.FileFunction,Soldermask,Top*
G04 #@! TF.FilePolarity,Negative*
%FSLAX46Y46*%
G04 Gerber Fmt 4.6, Leading zero omitted, Abs format (unit mm)*
G04 Created by KiCad (PCBNEW (5.1.4-0-10_14)) date 2019-11-05 08:19:09*
%MOMM*%
%LPD*%
G04 APERTURE LIST*
%ADD10C,0.640000*%
%ADD11C,0.100000*%
%ADD12C,0.500000*%
G04 APERTURE END LIST*
D10*
X91570000Y-100815000D03*
D11*
G36*
X93047323Y-99647400D02*
G01*
X93035013Y-99772392D01*
X93032133Y-99791809D01*
X93007630Y-99914992D01*
X93002861Y-99934030D01*
X92966402Y-100054218D01*
X92959790Y-100072697D01*
X92911727Y-100188733D01*
X92903335Y-100206477D01*
X92844129Y-100317243D01*
X92834039Y-100334077D01*
X92764261Y-100438507D01*
X92752569Y-100454271D01*
X92672892Y-100551358D01*
X92659711Y-100565901D01*
X92570901Y-100654711D01*
X92556358Y-100667892D01*
X92459271Y-100747569D01*
X92443507Y-100759261D01*
X92339077Y-100829039D01*
X92322243Y-100839129D01*
X92211477Y-100898335D01*
X92193733Y-100906727D01*
X92099000Y-100945966D01*
X92099000Y-101978000D01*
X92098996Y-101979217D01*
X92098993Y-101979710D01*
X92098771Y-101979709D01*
X92098770Y-101979773D01*
X92098992Y-101979774D01*
X92098989Y-101980266D01*
X92098598Y-101991609D01*
X92098429Y-101994294D01*
X92098278Y-101996997D01*
X92098089Y-101998797D01*
X92098146Y-101998801D01*
X92098129Y-101999068D01*
X92097150Y-102007762D01*
X92096254Y-102016310D01*
X92096215Y-102016563D01*
X92096160Y-102016554D01*
X92095956Y-102018362D01*
X92095521Y-102021043D01*
X92095251Y-102022793D01*
X92094536Y-102022682D01*
X92094428Y-102023221D01*
X92095167Y-102023335D01*
X92095120Y-102023639D01*
X92094747Y-102025461D01*
X92094804Y-102025470D01*
X92094762Y-102025728D01*
X92092945Y-102034261D01*
X92091224Y-102042664D01*
X92091159Y-102042918D01*
X92091104Y-102042904D01*
X92090727Y-102044675D01*
X92090067Y-102047172D01*
X92089362Y-102049919D01*
X92088883Y-102051467D01*
X92088930Y-102051479D01*
X92088864Y-102051729D01*
X92088836Y-102051817D01*
X92086157Y-102079018D01*
X92074776Y-102116537D01*
X92056294Y-102151114D01*
X92031421Y-102181421D01*
X92001114Y-102206294D01*
X91966537Y-102224776D01*
X91929018Y-102236157D01*
X91914526Y-102237584D01*
X91912740Y-102238220D01*
X91911116Y-102238711D01*
X91911133Y-102238760D01*
X91910880Y-102238848D01*
X91902693Y-102241256D01*
X91894184Y-102243828D01*
X91893936Y-102243890D01*
X91893923Y-102243836D01*
X91892221Y-102244337D01*
X91889594Y-102244973D01*
X91887049Y-102245607D01*
X91887049Y-102245606D01*
X91885374Y-102245938D01*
X91885387Y-102245991D01*
X91885131Y-102246053D01*
X91876007Y-102247794D01*
X91867711Y-102249437D01*
X91867453Y-102249475D01*
X91867446Y-102249427D01*
X91865851Y-102249731D01*
X91863156Y-102250109D01*
X91860537Y-102250496D01*
X91858897Y-102250657D01*
X91858904Y-102250706D01*
X91858648Y-102250742D01*
X91849988Y-102251531D01*
X91841082Y-102252404D01*
X91840816Y-102252417D01*
X91840814Y-102252366D01*
X91839177Y-102252515D01*
X91836530Y-102252626D01*
X91833770Y-102252761D01*
X91824000Y-102253000D01*
X91316000Y-102253000D01*
X91314783Y-102252996D01*
X91314290Y-102252993D01*
X91314291Y-102252771D01*
X91314227Y-102252770D01*
X91314226Y-102252992D01*
X91313734Y-102252989D01*
X91302391Y-102252598D01*
X91299706Y-102252429D01*
X91297003Y-102252278D01*
X91295203Y-102252089D01*
X91295199Y-102252146D01*
X91294932Y-102252129D01*
X91286238Y-102251150D01*
X91277690Y-102250254D01*
X91277437Y-102250215D01*
X91277446Y-102250160D01*
X91275638Y-102249956D01*
X91272957Y-102249521D01*
X91271207Y-102249251D01*
X91271318Y-102248536D01*
X91270779Y-102248428D01*
X91270665Y-102249167D01*
X91270361Y-102249120D01*
X91268539Y-102248747D01*
X91268530Y-102248804D01*
X91268272Y-102248762D01*
X91259739Y-102246945D01*
X91251336Y-102245224D01*
X91251082Y-102245159D01*
X91251096Y-102245104D01*
X91249325Y-102244727D01*
X91246828Y-102244067D01*
X91244081Y-102243362D01*
X91242533Y-102242883D01*
X91242521Y-102242930D01*
X91242271Y-102242864D01*
X91234042Y-102240254D01*
X91225413Y-102237583D01*
X91225395Y-102237577D01*
X91210982Y-102236157D01*
X91173463Y-102224776D01*
X91138886Y-102206294D01*
X91108579Y-102181421D01*
X91083706Y-102151114D01*
X91065224Y-102116537D01*
X91053843Y-102079018D01*
X91051113Y-102051296D01*
X91050172Y-102048184D01*
X91050110Y-102047936D01*
X91050164Y-102047923D01*
X91049663Y-102046221D01*
X91049027Y-102043594D01*
X91048410Y-102041119D01*
X91048399Y-102041075D01*
X91048397Y-102041066D01*
X91048393Y-102041049D01*
X91048394Y-102041049D01*
X91048062Y-102039374D01*
X91048009Y-102039387D01*
X91047947Y-102039131D01*
X91046206Y-102030007D01*
X91044563Y-102021711D01*
X91044525Y-102021453D01*
X91044573Y-102021446D01*
X91044269Y-102019851D01*
X91043891Y-102017156D01*
X91043504Y-102014537D01*
X91043343Y-102012897D01*
X91043294Y-102012904D01*
X91043258Y-102012648D01*
X91042469Y-102003988D01*
X91041596Y-101995082D01*
X91041583Y-101994816D01*
X91041634Y-101994814D01*
X91041485Y-101993177D01*
X91041374Y-101990530D01*
X91041239Y-101987770D01*
X91041000Y-101978000D01*
X91041000Y-100945966D01*
X90946267Y-100906727D01*
X90928523Y-100898335D01*
X90817757Y-100839129D01*
X90800923Y-100829039D01*
X90696493Y-100759261D01*
X90680729Y-100747569D01*
X90583642Y-100667892D01*
X90569099Y-100654711D01*
X90480289Y-100565901D01*
X90467108Y-100551358D01*
X90387431Y-100454271D01*
X90375739Y-100438507D01*
X90305961Y-100334077D01*
X90295871Y-100317243D01*
X90236665Y-100206477D01*
X90228273Y-100188733D01*
X90180210Y-100072697D01*
X90173598Y-100054218D01*
X90137139Y-99934030D01*
X90132370Y-99914992D01*
X90107867Y-99791809D01*
X90104987Y-99772392D01*
X90092677Y-99647400D01*
X90091714Y-99627798D01*
X90091714Y-99502202D01*
X90092677Y-99482600D01*
X90104987Y-99357608D01*
X90107867Y-99338191D01*
X90132370Y-99215008D01*
X90137139Y-99195970D01*
X90173598Y-99075782D01*
X90180210Y-99057303D01*
X90228273Y-98941267D01*
X90236665Y-98923523D01*
X90295871Y-98812757D01*
X90305961Y-98795923D01*
X90375739Y-98691493D01*
X90387431Y-98675729D01*
X90467108Y-98578642D01*
X90480289Y-98564099D01*
X90569099Y-98475289D01*
X90583642Y-98462108D01*
X90680729Y-98382431D01*
X90696493Y-98370739D01*
X90800923Y-98300961D01*
X90817757Y-98290871D01*
X90928523Y-98231665D01*
X90946267Y-98223273D01*
X91062303Y-98175210D01*
X91080782Y-98168598D01*
X91200970Y-98132139D01*
X91220008Y-98127370D01*
X91343191Y-98102867D01*
X91362608Y-98099987D01*
X91487600Y-98087677D01*
X91507202Y-98086714D01*
X91632798Y-98086714D01*
X91652400Y-98087677D01*
X91777392Y-98099987D01*
X91796809Y-98102867D01*
X91919992Y-98127370D01*
X91939030Y-98132139D01*
X92059218Y-98168598D01*
X92077697Y-98175210D01*
X92193733Y-98223273D01*
X92211477Y-98231665D01*
X92322243Y-98290871D01*
X92339077Y-98300961D01*
X92443507Y-98370739D01*
X92459271Y-98382431D01*
X92556358Y-98462108D01*
X92570901Y-98475289D01*
X92659711Y-98564099D01*
X92672892Y-98578642D01*
X92752569Y-98675729D01*
X92764261Y-98691493D01*
X92834039Y-98795923D01*
X92844129Y-98812757D01*
X92903335Y-98923523D01*
X92911727Y-98941267D01*
X92959790Y-99057303D01*
X92966402Y-99075782D01*
X93002861Y-99195970D01*
X93007630Y-99215008D01*
X93032133Y-99338191D01*
X93035013Y-99357608D01*
X93047323Y-99482600D01*
X93048286Y-99502202D01*
X93048286Y-99627798D01*
X93047323Y-99647400D01*
X93047323Y-99647400D01*
G37*
D12*
X93170000Y-101965000D03*
D11*
G36*
X94739637Y-101870602D02*
G01*
X94738196Y-101885234D01*
X94730546Y-101923692D01*
X94726278Y-101937761D01*
X94711275Y-101973980D01*
X94704344Y-101986947D01*
X94682562Y-102019547D01*
X94673235Y-102030912D01*
X94641715Y-102061675D01*
X94627269Y-102072954D01*
X94607086Y-102086811D01*
X93591086Y-102696411D01*
X93573779Y-102705672D01*
X93560491Y-102711964D01*
X93523585Y-102725188D01*
X93509325Y-102728767D01*
X93475401Y-102734237D01*
X93464362Y-102735054D01*
X93449600Y-102735600D01*
X92941600Y-102735600D01*
X92921998Y-102734637D01*
X92907366Y-102733196D01*
X92868908Y-102725546D01*
X92854839Y-102721278D01*
X92818620Y-102706275D01*
X92805653Y-102699344D01*
X92773053Y-102677562D01*
X92761688Y-102668235D01*
X92733965Y-102640512D01*
X92724638Y-102629147D01*
X92702856Y-102596547D01*
X92695925Y-102583580D01*
X92680922Y-102547361D01*
X92676654Y-102533292D01*
X92669004Y-102494834D01*
X92667563Y-102480202D01*
X92666600Y-102460600D01*
X92666600Y-101495400D01*
X92667563Y-101475798D01*
X92669004Y-101461166D01*
X92676654Y-101422708D01*
X92680922Y-101408639D01*
X92695925Y-101372420D01*
X92702856Y-101359453D01*
X92724638Y-101326853D01*
X92733965Y-101315488D01*
X92761688Y-101287765D01*
X92773053Y-101278438D01*
X92805653Y-101256656D01*
X92818620Y-101249725D01*
X92854839Y-101234722D01*
X92868908Y-101230454D01*
X92907366Y-101222804D01*
X92921998Y-101221363D01*
X92941600Y-101220400D01*
X93225400Y-101220400D01*
X93225400Y-97909600D01*
X89914600Y-97909600D01*
X89914600Y-101220400D01*
X90198400Y-101220400D01*
X90218002Y-101221363D01*
X90232634Y-101222804D01*
X90271092Y-101230454D01*
X90285161Y-101234722D01*
X90321380Y-101249725D01*
X90334347Y-101256656D01*
X90366947Y-101278438D01*
X90378312Y-101287765D01*
X90406035Y-101315488D01*
X90415362Y-101326853D01*
X90437144Y-101359453D01*
X90444075Y-101372420D01*
X90459078Y-101408639D01*
X90463346Y-101422708D01*
X90470996Y-101461166D01*
X90472437Y-101475798D01*
X90473400Y-101495400D01*
X90473400Y-102460600D01*
X90472437Y-102480202D01*
X90470996Y-102494834D01*
X90463346Y-102533292D01*
X90459078Y-102547361D01*
X90444075Y-102583580D01*
X90437144Y-102596547D01*
X90415362Y-102629147D01*
X90406035Y-102640512D01*
X90378312Y-102668235D01*
X90366947Y-102677562D01*
X90334347Y-102699344D01*
X90321380Y-102706275D01*
X90285161Y-102721278D01*
X90271092Y-102725546D01*
X90232634Y-102733196D01*
X90218002Y-102734637D01*
X90198400Y-102735600D01*
X89690400Y-102735600D01*
X89670798Y-102734637D01*
X89656166Y-102733196D01*
X89617708Y-102725546D01*
X89603639Y-102721278D01*
X89571736Y-102708515D01*
X89561850Y-102703536D01*
X89548914Y-102696411D01*
X88532914Y-102086811D01*
X88516596Y-102075896D01*
X88504791Y-102067132D01*
X88475761Y-102040797D01*
X88465892Y-102029899D01*
X88442548Y-101998395D01*
X88434995Y-101985781D01*
X88418246Y-101950327D01*
X88413299Y-101936481D01*
X88403137Y-101893624D01*
X88400898Y-101875434D01*
X88399400Y-101851000D01*
X88399400Y-97279000D01*
X88400363Y-97259398D01*
X88401804Y-97244766D01*
X88409454Y-97206308D01*
X88413722Y-97192239D01*
X88428725Y-97156020D01*
X88435656Y-97143053D01*
X88457438Y-97110453D01*
X88466765Y-97099088D01*
X88498285Y-97068325D01*
X88512731Y-97057046D01*
X88532914Y-97043189D01*
X89548914Y-96433589D01*
X89566221Y-96424328D01*
X89579509Y-96418036D01*
X89616415Y-96404812D01*
X89630675Y-96401233D01*
X89664599Y-96395763D01*
X89675638Y-96394946D01*
X89690400Y-96394400D01*
X93500400Y-96394400D01*
X93520002Y-96395363D01*
X93534634Y-96396804D01*
X93573092Y-96404454D01*
X93587161Y-96408722D01*
X93617662Y-96420785D01*
X93626539Y-96425169D01*
X93638185Y-96431408D01*
X94603385Y-96990208D01*
X94619870Y-97000865D01*
X94631810Y-97009443D01*
X94661253Y-97035326D01*
X94671291Y-97046069D01*
X94695124Y-97077205D01*
X94702873Y-97089700D01*
X94720167Y-97124875D01*
X94725330Y-97138641D01*
X94736373Y-97182893D01*
X94738905Y-97202218D01*
X94740600Y-97228200D01*
X94740600Y-101851000D01*
X94739637Y-101870602D01*
X94739637Y-101870602D01*
G37*
D10*
X108500000Y-100815000D03*
D11*
G36*
X109977323Y-99647400D02*
G01*
X109965013Y-99772392D01*
X109962133Y-99791809D01*
X109937630Y-99914992D01*
X109932861Y-99934030D01*
X109896402Y-100054218D01*
X109889790Y-100072697D01*
X109841727Y-100188733D01*
X109833335Y-100206477D01*
X109774129Y-100317243D01*
X109764039Y-100334077D01*
X109694261Y-100438507D01*
X109682569Y-100454271D01*
X109602892Y-100551358D01*
X109589711Y-100565901D01*
X109500901Y-100654711D01*
X109486358Y-100667892D01*
X109389271Y-100747569D01*
X109373507Y-100759261D01*
X109269077Y-100829039D01*
X109252243Y-100839129D01*
X109141477Y-100898335D01*
X109123733Y-100906727D01*
X109029000Y-100945966D01*
X109029000Y-101978000D01*
X109028996Y-101979217D01*
X109028993Y-101979710D01*
X109028771Y-101979709D01*
X109028770Y-101979773D01*
X109028992Y-101979774D01*
X109028989Y-101980266D01*
X109028598Y-101991609D01*
X109028429Y-101994294D01*
X109028278Y-101996997D01*
X109028089Y-101998797D01*
X109028146Y-101998801D01*
X109028129Y-101999068D01*
X109027150Y-102007762D01*
X109026254Y-102016310D01*
X109026215Y-102016563D01*
X109026160Y-102016554D01*
X109025956Y-102018362D01*
X109025521Y-102021043D01*
X109025251Y-102022793D01*
X109024536Y-102022682D01*
X109024428Y-102023221D01*
X109025167Y-102023335D01*
X109025120Y-102023639D01*
X109024747Y-102025461D01*
X109024804Y-102025470D01*
X109024762Y-102025728D01*
X109022945Y-102034261D01*
X109021224Y-102042664D01*
X109021159Y-102042918D01*
X109021104Y-102042904D01*
X109020727Y-102044675D01*
X109020067Y-102047172D01*
X109019362Y-102049919D01*
X109018883Y-102051467D01*
X109018930Y-102051479D01*
X109018864Y-102051729D01*
X109018836Y-102051817D01*
X109016157Y-102079018D01*
X109004776Y-102116537D01*
X108986294Y-102151114D01*
X108961421Y-102181421D01*
X108931114Y-102206294D01*
X108896537Y-102224776D01*
X108859018Y-102236157D01*
X108844526Y-102237584D01*
X108842740Y-102238220D01*
X108841116Y-102238711D01*
X108841133Y-102238760D01*
X108840880Y-102238848D01*
X108832693Y-102241256D01*
X108824184Y-102243828D01*
X108823936Y-102243890D01*
X108823923Y-102243836D01*
X108822221Y-102244337D01*
X108819594Y-102244973D01*
X108817049Y-102245607D01*
X108817049Y-102245606D01*
X108815374Y-102245938D01*
X108815387Y-102245991D01*
X108815131Y-102246053D01*
X108806007Y-102247794D01*
X108797711Y-102249437D01*
X108797453Y-102249475D01*
X108797446Y-102249427D01*
X108795851Y-102249731D01*
X108793156Y-102250109D01*
X108790537Y-102250496D01*
X108788897Y-102250657D01*
X108788904Y-102250706D01*
X108788648Y-102250742D01*
X108779988Y-102251531D01*
X108771082Y-102252404D01*
X108770816Y-102252417D01*
X108770814Y-102252366D01*
X108769177Y-102252515D01*
X108766530Y-102252626D01*
X108763770Y-102252761D01*
X108754000Y-102253000D01*
X108246000Y-102253000D01*
X108244783Y-102252996D01*
X108244290Y-102252993D01*
X108244291Y-102252771D01*
X108244227Y-102252770D01*
X108244226Y-102252992D01*
X108243734Y-102252989D01*
X108232391Y-102252598D01*
X108229706Y-102252429D01*
X108227003Y-102252278D01*
X108225203Y-102252089D01*
X108225199Y-102252146D01*
X108224932Y-102252129D01*
X108216238Y-102251150D01*
X108207690Y-102250254D01*
X108207437Y-102250215D01*
X108207446Y-102250160D01*
X108205638Y-102249956D01*
X108202957Y-102249521D01*
X108201207Y-102249251D01*
X108201318Y-102248536D01*
X108200779Y-102248428D01*
X108200665Y-102249167D01*
X108200361Y-102249120D01*
X108198539Y-102248747D01*
X108198530Y-102248804D01*
X108198272Y-102248762D01*
X108189739Y-102246945D01*
X108181336Y-102245224D01*
X108181082Y-102245159D01*
X108181096Y-102245104D01*
X108179325Y-102244727D01*
X108176828Y-102244067D01*
X108174081Y-102243362D01*
X108172533Y-102242883D01*
X108172521Y-102242930D01*
X108172271Y-102242864D01*
X108164042Y-102240254D01*
X108155413Y-102237583D01*
X108155395Y-102237577D01*
X108140982Y-102236157D01*
X108103463Y-102224776D01*
X108068886Y-102206294D01*
X108038579Y-102181421D01*
X108013706Y-102151114D01*
X107995224Y-102116537D01*
X107983843Y-102079018D01*
X107981113Y-102051296D01*
X107980172Y-102048184D01*
X107980110Y-102047936D01*
X107980164Y-102047923D01*
X107979663Y-102046221D01*
X107979027Y-102043594D01*
X107978410Y-102041119D01*
X107978399Y-102041075D01*
X107978397Y-102041066D01*
X107978393Y-102041049D01*
X107978394Y-102041049D01*
X107978062Y-102039374D01*
X107978009Y-102039387D01*
X107977947Y-102039131D01*
X107976206Y-102030007D01*
X107974563Y-102021711D01*
X107974525Y-102021453D01*
X107974573Y-102021446D01*
X107974269Y-102019851D01*
X107973891Y-102017156D01*
X107973504Y-102014537D01*
X107973343Y-102012897D01*
X107973294Y-102012904D01*
X107973258Y-102012648D01*
X107972469Y-102003988D01*
X107971596Y-101995082D01*
X107971583Y-101994816D01*
X107971634Y-101994814D01*
X107971485Y-101993177D01*
X107971374Y-101990530D01*
X107971239Y-101987770D01*
X107971000Y-101978000D01*
X107971000Y-100945966D01*
X107876267Y-100906727D01*
X107858523Y-100898335D01*
X107747757Y-100839129D01*
X107730923Y-100829039D01*
X107626493Y-100759261D01*
X107610729Y-100747569D01*
X107513642Y-100667892D01*
X107499099Y-100654711D01*
X107410289Y-100565901D01*
X107397108Y-100551358D01*
X107317431Y-100454271D01*
X107305739Y-100438507D01*
X107235961Y-100334077D01*
X107225871Y-100317243D01*
X107166665Y-100206477D01*
X107158273Y-100188733D01*
X107110210Y-100072697D01*
X107103598Y-100054218D01*
X107067139Y-99934030D01*
X107062370Y-99914992D01*
X107037867Y-99791809D01*
X107034987Y-99772392D01*
X107022677Y-99647400D01*
X107021714Y-99627798D01*
X107021714Y-99502202D01*
X107022677Y-99482600D01*
X107034987Y-99357608D01*
X107037867Y-99338191D01*
X107062370Y-99215008D01*
X107067139Y-99195970D01*
X107103598Y-99075782D01*
X107110210Y-99057303D01*
X107158273Y-98941267D01*
X107166665Y-98923523D01*
X107225871Y-98812757D01*
X107235961Y-98795923D01*
X107305739Y-98691493D01*
X107317431Y-98675729D01*
X107397108Y-98578642D01*
X107410289Y-98564099D01*
X107499099Y-98475289D01*
X107513642Y-98462108D01*
X107610729Y-98382431D01*
X107626493Y-98370739D01*
X107730923Y-98300961D01*
X107747757Y-98290871D01*
X107858523Y-98231665D01*
X107876267Y-98223273D01*
X107992303Y-98175210D01*
X108010782Y-98168598D01*
X108130970Y-98132139D01*
X108150008Y-98127370D01*
X108273191Y-98102867D01*
X108292608Y-98099987D01*
X108417600Y-98087677D01*
X108437202Y-98086714D01*
X108562798Y-98086714D01*
X108582400Y-98087677D01*
X108707392Y-98099987D01*
X108726809Y-98102867D01*
X108849992Y-98127370D01*
X108869030Y-98132139D01*
X108989218Y-98168598D01*
X109007697Y-98175210D01*
X109123733Y-98223273D01*
X109141477Y-98231665D01*
X109252243Y-98290871D01*
X109269077Y-98300961D01*
X109373507Y-98370739D01*
X109389271Y-98382431D01*
X109486358Y-98462108D01*
X109500901Y-98475289D01*
X109589711Y-98564099D01*
X109602892Y-98578642D01*
X109682569Y-98675729D01*
X109694261Y-98691493D01*
X109764039Y-98795923D01*
X109774129Y-98812757D01*
X109833335Y-98923523D01*
X109841727Y-98941267D01*
X109889790Y-99057303D01*
X109896402Y-99075782D01*
X109932861Y-99195970D01*
X109937630Y-99215008D01*
X109962133Y-99338191D01*
X109965013Y-99357608D01*
X109977323Y-99482600D01*
X109978286Y-99502202D01*
X109978286Y-99627798D01*
X109977323Y-99647400D01*
X109977323Y-99647400D01*
G37*
D12*
X110100000Y-101965000D03*
D11*
G36*
X111669637Y-101870602D02*
G01*
X111668196Y-101885234D01*
X111660546Y-101923692D01*
X111656278Y-101937761D01*
X111641275Y-101973980D01*
X111634344Y-101986947D01*
X111612562Y-102019547D01*
X111603235Y-102030912D01*
X111571715Y-102061675D01*
X111557269Y-102072954D01*
X111537086Y-102086811D01*
X110521086Y-102696411D01*
X110503779Y-102705672D01*
X110490491Y-102711964D01*
X110453585Y-102725188D01*
X110439325Y-102728767D01*
X110405401Y-102734237D01*
X110394362Y-102735054D01*
X110379600Y-102735600D01*
X109871600Y-102735600D01*
X109851998Y-102734637D01*
X109837366Y-102733196D01*
X109798908Y-102725546D01*
X109784839Y-102721278D01*
X109748620Y-102706275D01*
X109735653Y-102699344D01*
X109703053Y-102677562D01*
X109691688Y-102668235D01*
X109663965Y-102640512D01*
X109654638Y-102629147D01*
X109632856Y-102596547D01*
X109625925Y-102583580D01*
X109610922Y-102547361D01*
X109606654Y-102533292D01*
X109599004Y-102494834D01*
X109597563Y-102480202D01*
X109596600Y-102460600D01*
X109596600Y-101495400D01*
X109597563Y-101475798D01*
X109599004Y-101461166D01*
X109606654Y-101422708D01*
X109610922Y-101408639D01*
X109625925Y-101372420D01*
X109632856Y-101359453D01*
X109654638Y-101326853D01*
X109663965Y-101315488D01*
X109691688Y-101287765D01*
X109703053Y-101278438D01*
X109735653Y-101256656D01*
X109748620Y-101249725D01*
X109784839Y-101234722D01*
X109798908Y-101230454D01*
X109837366Y-101222804D01*
X109851998Y-101221363D01*
X109871600Y-101220400D01*
X110155400Y-101220400D01*
X110155400Y-97909600D01*
X106844600Y-97909600D01*
X106844600Y-101220400D01*
X107128400Y-101220400D01*
X107148002Y-101221363D01*
X107162634Y-101222804D01*
X107201092Y-101230454D01*
X107215161Y-101234722D01*
X107251380Y-101249725D01*
X107264347Y-101256656D01*
X107296947Y-101278438D01*
X107308312Y-101287765D01*
X107336035Y-101315488D01*
X107345362Y-101326853D01*
X107367144Y-101359453D01*
X107374075Y-101372420D01*
X107389078Y-101408639D01*
X107393346Y-101422708D01*
X107400996Y-101461166D01*
X107402437Y-101475798D01*
X107403400Y-101495400D01*
X107403400Y-102460600D01*
X107402437Y-102480202D01*
X107400996Y-102494834D01*
X107393346Y-102533292D01*
X107389078Y-102547361D01*
X107374075Y-102583580D01*
X107367144Y-102596547D01*
X107345362Y-102629147D01*
X107336035Y-102640512D01*
X107308312Y-102668235D01*
X107296947Y-102677562D01*
X107264347Y-102699344D01*
X107251380Y-102706275D01*
X107215161Y-102721278D01*
X107201092Y-102725546D01*
X107162634Y-102733196D01*
X107148002Y-102734637D01*
X107128400Y-102735600D01*
X106620400Y-102735600D01*
X106600798Y-102734637D01*
X106586166Y-102733196D01*
X106547708Y-102725546D01*
X106533639Y-102721278D01*
X106501736Y-102708515D01*
X106491850Y-102703536D01*
X106478914Y-102696411D01*
X105462914Y-102086811D01*
X105446596Y-102075896D01*
X105434791Y-102067132D01*
X105405761Y-102040797D01*
X105395892Y-102029899D01*
X105372548Y-101998395D01*
X105364995Y-101985781D01*
X105348246Y-101950327D01*
X105343299Y-101936481D01*
X105333137Y-101893624D01*
X105330898Y-101875434D01*
X105329400Y-101851000D01*
X105329400Y-97279000D01*
X105330363Y-97259398D01*
X105331804Y-97244766D01*
X105339454Y-97206308D01*
X105343722Y-97192239D01*
X105358725Y-97156020D01*
X105365656Y-97143053D01*
X105387438Y-97110453D01*
X105396765Y-97099088D01*
X105428285Y-97068325D01*
X105442731Y-97057046D01*
X105462914Y-97043189D01*
X106478914Y-96433589D01*
X106496221Y-96424328D01*
X106509509Y-96418036D01*
X106546415Y-96404812D01*
X106560675Y-96401233D01*
X106594599Y-96395763D01*
X106605638Y-96394946D01*
X106620400Y-96394400D01*
X110430400Y-96394400D01*
X110450002Y-96395363D01*
X110464634Y-96396804D01*
X110503092Y-96404454D01*
X110517161Y-96408722D01*
X110547662Y-96420785D01*
X110556539Y-96425169D01*
X110568185Y-96431408D01*
X111533385Y-96990208D01*
X111549870Y-97000865D01*
X111561810Y-97009443D01*
X111591253Y-97035326D01*
X111601291Y-97046069D01*
X111625124Y-97077205D01*
X111632873Y-97089700D01*
X111650167Y-97124875D01*
X111655330Y-97138641D01*
X111666373Y-97182893D01*
X111668905Y-97202218D01*
X111670600Y-97228200D01*
X111670600Y-101851000D01*
X111669637Y-101870602D01*
X111669637Y-101870602D01*
G37*
D10*
X125430000Y-100815000D03*
D11*
G36*
X126907323Y-99647400D02*
G01*
X126895013Y-99772392D01*
X126892133Y-99791809D01*
X126867630Y-99914992D01*
X126862861Y-99934030D01*
X126826402Y-100054218D01*
X126819790Y-100072697D01*
X126771727Y-100188733D01*
X126763335Y-100206477D01*
X126704129Y-100317243D01*
X126694039Y-100334077D01*
X126624261Y-100438507D01*
X126612569Y-100454271D01*
X126532892Y-100551358D01*
X126519711Y-100565901D01*
X126430901Y-100654711D01*
X126416358Y-100667892D01*
X126319271Y-100747569D01*
X126303507Y-100759261D01*
X126199077Y-100829039D01*
X126182243Y-100839129D01*
X126071477Y-100898335D01*
X126053733Y-100906727D01*
X125959000Y-100945966D01*
X125959000Y-101978000D01*
X125958996Y-101979217D01*
X125958993Y-101979710D01*
X125958771Y-101979709D01*
X125958770Y-101979773D01*
X125958992Y-101979774D01*
X125958989Y-101980266D01*
X125958598Y-101991609D01*
X125958429Y-101994294D01*
X125958278Y-101996997D01*
X125958089Y-101998797D01*
X125958146Y-101998801D01*
X125958129Y-101999068D01*
X125957150Y-102007762D01*
X125956254Y-102016310D01*
X125956215Y-102016563D01*
X125956160Y-102016554D01*
X125955956Y-102018362D01*
X125955521Y-102021043D01*
X125955251Y-102022793D01*
X125954536Y-102022682D01*
X125954428Y-102023221D01*
X125955167Y-102023335D01*
X125955120Y-102023639D01*
X125954747Y-102025461D01*
X125954804Y-102025470D01*
X125954762Y-102025728D01*
X125952945Y-102034261D01*
X125951224Y-102042664D01*
X125951159Y-102042918D01*
X125951104Y-102042904D01*
X125950727Y-102044675D01*
X125950067Y-102047172D01*
X125949362Y-102049919D01*
X125948883Y-102051467D01*
X125948930Y-102051479D01*
X125948864Y-102051729D01*
X125948836Y-102051817D01*
X125946157Y-102079018D01*
X125934776Y-102116537D01*
X125916294Y-102151114D01*
X125891421Y-102181421D01*
X125861114Y-102206294D01*
X125826537Y-102224776D01*
X125789018Y-102236157D01*
X125774526Y-102237584D01*
X125772740Y-102238220D01*
X125771116Y-102238711D01*
X125771133Y-102238760D01*
X125770880Y-102238848D01*
X125762693Y-102241256D01*
X125754184Y-102243828D01*
X125753936Y-102243890D01*
X125753923Y-102243836D01*
X125752221Y-102244337D01*
X125749594Y-102244973D01*
X125747049Y-102245607D01*
X125747049Y-102245606D01*
X125745374Y-102245938D01*
X125745387Y-102245991D01*
X125745131Y-102246053D01*
X125736007Y-102247794D01*
X125727711Y-102249437D01*
X125727453Y-102249475D01*
X125727446Y-102249427D01*
X125725851Y-102249731D01*
X125723156Y-102250109D01*
X125720537Y-102250496D01*
X125718897Y-102250657D01*
X125718904Y-102250706D01*
X125718648Y-102250742D01*
X125709988Y-102251531D01*
X125701082Y-102252404D01*
X125700816Y-102252417D01*
X125700814Y-102252366D01*
X125699177Y-102252515D01*
X125696530Y-102252626D01*
X125693770Y-102252761D01*
X125684000Y-102253000D01*
X125176000Y-102253000D01*
X125174783Y-102252996D01*
X125174290Y-102252993D01*
X125174291Y-102252771D01*
X125174227Y-102252770D01*
X125174226Y-102252992D01*
X125173734Y-102252989D01*
X125162391Y-102252598D01*
X125159706Y-102252429D01*
X125157003Y-102252278D01*
X125155203Y-102252089D01*
X125155199Y-102252146D01*
X125154932Y-102252129D01*
X125146238Y-102251150D01*
X125137690Y-102250254D01*
X125137437Y-102250215D01*
X125137446Y-102250160D01*
X125135638Y-102249956D01*
X125132957Y-102249521D01*
X125131207Y-102249251D01*
X125131318Y-102248536D01*
X125130779Y-102248428D01*
X125130665Y-102249167D01*
X125130361Y-102249120D01*
X125128539Y-102248747D01*
X125128530Y-102248804D01*
X125128272Y-102248762D01*
X125119739Y-102246945D01*
X125111336Y-102245224D01*
X125111082Y-102245159D01*
X125111096Y-102245104D01*
X125109325Y-102244727D01*
X125106828Y-102244067D01*
X125104081Y-102243362D01*
X125102533Y-102242883D01*
X125102521Y-102242930D01*
X125102271Y-102242864D01*
X125094042Y-102240254D01*
X125085413Y-102237583D01*
X125085395Y-102237577D01*
X125070982Y-102236157D01*
X125033463Y-102224776D01*
X124998886Y-102206294D01*
X124968579Y-102181421D01*
X124943706Y-102151114D01*
X124925224Y-102116537D01*
X124913843Y-102079018D01*
X124911113Y-102051296D01*
X124910172Y-102048184D01*
X124910110Y-102047936D01*
X124910164Y-102047923D01*
X124909663Y-102046221D01*
X124909027Y-102043594D01*
X124908410Y-102041119D01*
X124908399Y-102041075D01*
X124908397Y-102041066D01*
X124908393Y-102041049D01*
X124908394Y-102041049D01*
X124908062Y-102039374D01*
X124908009Y-102039387D01*
X124907947Y-102039131D01*
X124906206Y-102030007D01*
X124904563Y-102021711D01*
X124904525Y-102021453D01*
X124904573Y-102021446D01*
X124904269Y-102019851D01*
X124903891Y-102017156D01*
X124903504Y-102014537D01*
X124903343Y-102012897D01*
X124903294Y-102012904D01*
X124903258Y-102012648D01*
X124902469Y-102003988D01*
X124901596Y-101995082D01*
X124901583Y-101994816D01*
X124901634Y-101994814D01*
X124901485Y-101993177D01*
X124901374Y-101990530D01*
X124901239Y-101987770D01*
X124901000Y-101978000D01*
X124901000Y-100945966D01*
X124806267Y-100906727D01*
X124788523Y-100898335D01*
X124677757Y-100839129D01*
X124660923Y-100829039D01*
X124556493Y-100759261D01*
X124540729Y-100747569D01*
X124443642Y-100667892D01*
X124429099Y-100654711D01*
X124340289Y-100565901D01*
X124327108Y-100551358D01*
X124247431Y-100454271D01*
X124235739Y-100438507D01*
X124165961Y-100334077D01*
X124155871Y-100317243D01*
X124096665Y-100206477D01*
X124088273Y-100188733D01*
X124040210Y-100072697D01*
X124033598Y-100054218D01*
X123997139Y-99934030D01*
X123992370Y-99914992D01*
X123967867Y-99791809D01*
X123964987Y-99772392D01*
X123952677Y-99647400D01*
X123951714Y-99627798D01*
X123951714Y-99502202D01*
X123952677Y-99482600D01*
X123964987Y-99357608D01*
X123967867Y-99338191D01*
X123992370Y-99215008D01*
X123997139Y-99195970D01*
X124033598Y-99075782D01*
X124040210Y-99057303D01*
X124088273Y-98941267D01*
X124096665Y-98923523D01*
X124155871Y-98812757D01*
X124165961Y-98795923D01*
X124235739Y-98691493D01*
X124247431Y-98675729D01*
X124327108Y-98578642D01*
X124340289Y-98564099D01*
X124429099Y-98475289D01*
X124443642Y-98462108D01*
X124540729Y-98382431D01*
X124556493Y-98370739D01*
X124660923Y-98300961D01*
X124677757Y-98290871D01*
X124788523Y-98231665D01*
X124806267Y-98223273D01*
X124922303Y-98175210D01*
X124940782Y-98168598D01*
X125060970Y-98132139D01*
X125080008Y-98127370D01*
X125203191Y-98102867D01*
X125222608Y-98099987D01*
X125347600Y-98087677D01*
X125367202Y-98086714D01*
X125492798Y-98086714D01*
X125512400Y-98087677D01*
X125637392Y-98099987D01*
X125656809Y-98102867D01*
X125779992Y-98127370D01*
X125799030Y-98132139D01*
X125919218Y-98168598D01*
X125937697Y-98175210D01*
X126053733Y-98223273D01*
X126071477Y-98231665D01*
X126182243Y-98290871D01*
X126199077Y-98300961D01*
X126303507Y-98370739D01*
X126319271Y-98382431D01*
X126416358Y-98462108D01*
X126430901Y-98475289D01*
X126519711Y-98564099D01*
X126532892Y-98578642D01*
X126612569Y-98675729D01*
X126624261Y-98691493D01*
X126694039Y-98795923D01*
X126704129Y-98812757D01*
X126763335Y-98923523D01*
X126771727Y-98941267D01*
X126819790Y-99057303D01*
X126826402Y-99075782D01*
X126862861Y-99195970D01*
X126867630Y-99215008D01*
X126892133Y-99338191D01*
X126895013Y-99357608D01*
X126907323Y-99482600D01*
X126908286Y-99502202D01*
X126908286Y-99627798D01*
X126907323Y-99647400D01*
X126907323Y-99647400D01*
G37*
D12*
X127030000Y-101965000D03*
D11*
G36*
X128599637Y-101870602D02*
G01*
X128598196Y-101885234D01*
X128590546Y-101923692D01*
X128586278Y-101937761D01*
X128571275Y-101973980D01*
X128564344Y-101986947D01*
X128542562Y-102019547D01*
X128533235Y-102030912D01*
X128501715Y-102061675D01*
X128487269Y-102072954D01*
X128467086Y-102086811D01*
X127451086Y-102696411D01*
X127433779Y-102705672D01*
X127420491Y-102711964D01*
X127383585Y-102725188D01*
X127369325Y-102728767D01*
X127335401Y-102734237D01*
X127324362Y-102735054D01*
X127309600Y-102735600D01*
X126801600Y-102735600D01*
X126781998Y-102734637D01*
X126767366Y-102733196D01*
X126728908Y-102725546D01*
X126714839Y-102721278D01*
X126678620Y-102706275D01*
X126665653Y-102699344D01*
X126633053Y-102677562D01*
X126621688Y-102668235D01*
X126593965Y-102640512D01*
X126584638Y-102629147D01*
X126562856Y-102596547D01*
X126555925Y-102583580D01*
X126540922Y-102547361D01*
X126536654Y-102533292D01*
X126529004Y-102494834D01*
X126527563Y-102480202D01*
X126526600Y-102460600D01*
X126526600Y-101495400D01*
X126527563Y-101475798D01*
X126529004Y-101461166D01*
X126536654Y-101422708D01*
X126540922Y-101408639D01*
X126555925Y-101372420D01*
X126562856Y-101359453D01*
X126584638Y-101326853D01*
X126593965Y-101315488D01*
X126621688Y-101287765D01*
X126633053Y-101278438D01*
X126665653Y-101256656D01*
X126678620Y-101249725D01*
X126714839Y-101234722D01*
X126728908Y-101230454D01*
X126767366Y-101222804D01*
X126781998Y-101221363D01*
X126801600Y-101220400D01*
X127085400Y-101220400D01*
X127085400Y-97909600D01*
X123774600Y-97909600D01*
X123774600Y-101220400D01*
X124058400Y-101220400D01*
X124078002Y-101221363D01*
X124092634Y-101222804D01*
X124131092Y-101230454D01*
X124145161Y-101234722D01*
X124181380Y-101249725D01*
X124194347Y-101256656D01*
X124226947Y-101278438D01*
X124238312Y-101287765D01*
X124266035Y-101315488D01*
X124275362Y-101326853D01*
X124297144Y-101359453D01*
X124304075Y-101372420D01*
X124319078Y-101408639D01*
X124323346Y-101422708D01*
X124330996Y-101461166D01*
X124332437Y-101475798D01*
X124333400Y-101495400D01*
X124333400Y-102460600D01*
X124332437Y-102480202D01*
X124330996Y-102494834D01*
X124323346Y-102533292D01*
X124319078Y-102547361D01*
X124304075Y-102583580D01*
X124297144Y-102596547D01*
X124275362Y-102629147D01*
X124266035Y-102640512D01*
X124238312Y-102668235D01*
X124226947Y-102677562D01*
X124194347Y-102699344D01*
X124181380Y-102706275D01*
X124145161Y-102721278D01*
X124131092Y-102725546D01*
X124092634Y-102733196D01*
X124078002Y-102734637D01*
X124058400Y-102735600D01*
X123550400Y-102735600D01*
X123530798Y-102734637D01*
X123516166Y-102733196D01*
X123477708Y-102725546D01*
X123463639Y-102721278D01*
X123431736Y-102708515D01*
X123421850Y-102703536D01*
X123408914Y-102696411D01*
X122392914Y-102086811D01*
X122376596Y-102075896D01*
X122364791Y-102067132D01*
X122335761Y-102040797D01*
X122325892Y-102029899D01*
X122302548Y-101998395D01*
X122294995Y-101985781D01*
X122278246Y-101950327D01*
X122273299Y-101936481D01*
X122263137Y-101893624D01*
X122260898Y-101875434D01*
X122259400Y-101851000D01*
X122259400Y-97279000D01*
X122260363Y-97259398D01*
X122261804Y-97244766D01*
X122269454Y-97206308D01*
X122273722Y-97192239D01*
X122288725Y-97156020D01*
X122295656Y-97143053D01*
X122317438Y-97110453D01*
X122326765Y-97099088D01*
X122358285Y-97068325D01*
X122372731Y-97057046D01*
X122392914Y-97043189D01*
X123408914Y-96433589D01*
X123426221Y-96424328D01*
X123439509Y-96418036D01*
X123476415Y-96404812D01*
X123490675Y-96401233D01*
X123524599Y-96395763D01*
X123535638Y-96394946D01*
X123550400Y-96394400D01*
X127360400Y-96394400D01*
X127380002Y-96395363D01*
X127394634Y-96396804D01*
X127433092Y-96404454D01*
X127447161Y-96408722D01*
X127477662Y-96420785D01*
X127486539Y-96425169D01*
X127498185Y-96431408D01*
X128463385Y-96990208D01*
X128479870Y-97000865D01*
X128491810Y-97009443D01*
X128521253Y-97035326D01*
X128531291Y-97046069D01*
X128555124Y-97077205D01*
X128562873Y-97089700D01*
X128580167Y-97124875D01*
X128585330Y-97138641D01*
X128596373Y-97182893D01*
X128598905Y-97202218D01*
X128600600Y-97228200D01*
X128600600Y-101851000D01*
X128599637Y-101870602D01*
X128599637Y-101870602D01*
G37*
D10*
X142370000Y-100815000D03*
D11*
G36*
X143847323Y-99647400D02*
G01*
X143835013Y-99772392D01*
X143832133Y-99791809D01*
X143807630Y-99914992D01*
X143802861Y-99934030D01*
X143766402Y-100054218D01*
X143759790Y-100072697D01*
X143711727Y-100188733D01*
X143703335Y-100206477D01*
X143644129Y-100317243D01*
X143634039Y-100334077D01*
X143564261Y-100438507D01*
X143552569Y-100454271D01*
X143472892Y-100551358D01*
X143459711Y-100565901D01*
X143370901Y-100654711D01*
X143356358Y-100667892D01*
X143259271Y-100747569D01*
X143243507Y-100759261D01*
X143139077Y-100829039D01*
X143122243Y-100839129D01*
X143011477Y-100898335D01*
X142993733Y-100906727D01*
X142899000Y-100945966D01*
X142899000Y-101978000D01*
X142898996Y-101979217D01*
X142898993Y-101979710D01*
X142898771Y-101979709D01*
X142898770Y-101979773D01*
X142898992Y-101979774D01*
X142898989Y-101980266D01*
X142898598Y-101991609D01*
X142898429Y-101994294D01*
X142898278Y-101996997D01*
X142898089Y-101998797D01*
X142898146Y-101998801D01*
X142898129Y-101999068D01*
X142897150Y-102007762D01*
X142896254Y-102016310D01*
X142896215Y-102016563D01*
X142896160Y-102016554D01*
X142895956Y-102018362D01*
X142895521Y-102021043D01*
X142895251Y-102022793D01*
X142894536Y-102022682D01*
X142894428Y-102023221D01*
X142895167Y-102023335D01*
X142895120Y-102023639D01*
X142894747Y-102025461D01*
X142894804Y-102025470D01*
X142894762Y-102025728D01*
X142892945Y-102034261D01*
X142891224Y-102042664D01*
X142891159Y-102042918D01*
X142891104Y-102042904D01*
X142890727Y-102044675D01*
X142890067Y-102047172D01*
X142889362Y-102049919D01*
X142888883Y-102051467D01*
X142888930Y-102051479D01*
X142888864Y-102051729D01*
X142888836Y-102051817D01*
X142886157Y-102079018D01*
X142874776Y-102116537D01*
X142856294Y-102151114D01*
X142831421Y-102181421D01*
X142801114Y-102206294D01*
X142766537Y-102224776D01*
X142729018Y-102236157D01*
X142714526Y-102237584D01*
X142712740Y-102238220D01*
X142711116Y-102238711D01*
X142711133Y-102238760D01*
X142710880Y-102238848D01*
X142702693Y-102241256D01*
X142694184Y-102243828D01*
X142693936Y-102243890D01*
X142693923Y-102243836D01*
X142692221Y-102244337D01*
X142689594Y-102244973D01*
X142687049Y-102245607D01*
X142687049Y-102245606D01*
X142685374Y-102245938D01*
X142685387Y-102245991D01*
X142685131Y-102246053D01*
X142676007Y-102247794D01*
X142667711Y-102249437D01*
X142667453Y-102249475D01*
X142667446Y-102249427D01*
X142665851Y-102249731D01*
X142663156Y-102250109D01*
X142660537Y-102250496D01*
X142658897Y-102250657D01*
X142658904Y-102250706D01*
X142658648Y-102250742D01*
X142649988Y-102251531D01*
X142641082Y-102252404D01*
X142640816Y-102252417D01*
X142640814Y-102252366D01*
X142639177Y-102252515D01*
X142636530Y-102252626D01*
X142633770Y-102252761D01*
X142624000Y-102253000D01*
X142116000Y-102253000D01*
X142114783Y-102252996D01*
X142114290Y-102252993D01*
X142114291Y-102252771D01*
X142114227Y-102252770D01*
X142114226Y-102252992D01*
X142113734Y-102252989D01*
X142102391Y-102252598D01*
X142099706Y-102252429D01*
X142097003Y-102252278D01*
X142095203Y-102252089D01*
X142095199Y-102252146D01*
X142094932Y-102252129D01*
X142086238Y-102251150D01*
X142077690Y-102250254D01*
X142077437Y-102250215D01*
X142077446Y-102250160D01*
X142075638Y-102249956D01*
X142072957Y-102249521D01*
X142071207Y-102249251D01*
X142071318Y-102248536D01*
X142070779Y-102248428D01*
X142070665Y-102249167D01*
X142070361Y-102249120D01*
X142068539Y-102248747D01*
X142068530Y-102248804D01*
X142068272Y-102248762D01*
X142059739Y-102246945D01*
X142051336Y-102245224D01*
X142051082Y-102245159D01*
X142051096Y-102245104D01*
X142049325Y-102244727D01*
X142046828Y-102244067D01*
X142044081Y-102243362D01*
X142042533Y-102242883D01*
X142042521Y-102242930D01*
X142042271Y-102242864D01*
X142034042Y-102240254D01*
X142025413Y-102237583D01*
X142025395Y-102237577D01*
X142010982Y-102236157D01*
X141973463Y-102224776D01*
X141938886Y-102206294D01*
X141908579Y-102181421D01*
X141883706Y-102151114D01*
X141865224Y-102116537D01*
X141853843Y-102079018D01*
X141851113Y-102051296D01*
X141850172Y-102048184D01*
X141850110Y-102047936D01*
X141850164Y-102047923D01*
X141849663Y-102046221D01*
X141849027Y-102043594D01*
X141848410Y-102041119D01*
X141848399Y-102041075D01*
X141848397Y-102041066D01*
X141848393Y-102041049D01*
X141848394Y-102041049D01*
X141848062Y-102039374D01*
X141848009Y-102039387D01*
X141847947Y-102039131D01*
X141846206Y-102030007D01*
X141844563Y-102021711D01*
X141844525Y-102021453D01*
X141844573Y-102021446D01*
X141844269Y-102019851D01*
X141843891Y-102017156D01*
X141843504Y-102014537D01*
X141843343Y-102012897D01*
X141843294Y-102012904D01*
X141843258Y-102012648D01*
X141842469Y-102003988D01*
X141841596Y-101995082D01*
X141841583Y-101994816D01*
X141841634Y-101994814D01*
X141841485Y-101993177D01*
X141841374Y-101990530D01*
X141841239Y-101987770D01*
X141841000Y-101978000D01*
X141841000Y-100945966D01*
X141746267Y-100906727D01*
X141728523Y-100898335D01*
X141617757Y-100839129D01*
X141600923Y-100829039D01*
X141496493Y-100759261D01*
X141480729Y-100747569D01*
X141383642Y-100667892D01*
X141369099Y-100654711D01*
X141280289Y-100565901D01*
X141267108Y-100551358D01*
X141187431Y-100454271D01*
X141175739Y-100438507D01*
X141105961Y-100334077D01*
X141095871Y-100317243D01*
X141036665Y-100206477D01*
X141028273Y-100188733D01*
X140980210Y-100072697D01*
X140973598Y-100054218D01*
X140937139Y-99934030D01*
X140932370Y-99914992D01*
X140907867Y-99791809D01*
X140904987Y-99772392D01*
X140892677Y-99647400D01*
X140891714Y-99627798D01*
X140891714Y-99502202D01*
X140892677Y-99482600D01*
X140904987Y-99357608D01*
X140907867Y-99338191D01*
X140932370Y-99215008D01*
X140937139Y-99195970D01*
X140973598Y-99075782D01*
X140980210Y-99057303D01*
X141028273Y-98941267D01*
X141036665Y-98923523D01*
X141095871Y-98812757D01*
X141105961Y-98795923D01*
X141175739Y-98691493D01*
X141187431Y-98675729D01*
X141267108Y-98578642D01*
X141280289Y-98564099D01*
X141369099Y-98475289D01*
X141383642Y-98462108D01*
X141480729Y-98382431D01*
X141496493Y-98370739D01*
X141600923Y-98300961D01*
X141617757Y-98290871D01*
X141728523Y-98231665D01*
X141746267Y-98223273D01*
X141862303Y-98175210D01*
X141880782Y-98168598D01*
X142000970Y-98132139D01*
X142020008Y-98127370D01*
X142143191Y-98102867D01*
X142162608Y-98099987D01*
X142287600Y-98087677D01*
X142307202Y-98086714D01*
X142432798Y-98086714D01*
X142452400Y-98087677D01*
X142577392Y-98099987D01*
X142596809Y-98102867D01*
X142719992Y-98127370D01*
X142739030Y-98132139D01*
X142859218Y-98168598D01*
X142877697Y-98175210D01*
X142993733Y-98223273D01*
X143011477Y-98231665D01*
X143122243Y-98290871D01*
X143139077Y-98300961D01*
X143243507Y-98370739D01*
X143259271Y-98382431D01*
X143356358Y-98462108D01*
X143370901Y-98475289D01*
X143459711Y-98564099D01*
X143472892Y-98578642D01*
X143552569Y-98675729D01*
X143564261Y-98691493D01*
X143634039Y-98795923D01*
X143644129Y-98812757D01*
X143703335Y-98923523D01*
X143711727Y-98941267D01*
X143759790Y-99057303D01*
X143766402Y-99075782D01*
X143802861Y-99195970D01*
X143807630Y-99215008D01*
X143832133Y-99338191D01*
X143835013Y-99357608D01*
X143847323Y-99482600D01*
X143848286Y-99502202D01*
X143848286Y-99627798D01*
X143847323Y-99647400D01*
X143847323Y-99647400D01*
G37*
D12*
X143970000Y-101965000D03*
D11*
G36*
X145539637Y-101870602D02*
G01*
X145538196Y-101885234D01*
X145530546Y-101923692D01*
X145526278Y-101937761D01*
X145511275Y-101973980D01*
X145504344Y-101986947D01*
X145482562Y-102019547D01*
X145473235Y-102030912D01*
X145441715Y-102061675D01*
X145427269Y-102072954D01*
X145407086Y-102086811D01*
X144391086Y-102696411D01*
X144373779Y-102705672D01*
X144360491Y-102711964D01*
X144323585Y-102725188D01*
X144309325Y-102728767D01*
X144275401Y-102734237D01*
X144264362Y-102735054D01*
X144249600Y-102735600D01*
X143741600Y-102735600D01*
X143721998Y-102734637D01*
X143707366Y-102733196D01*
X143668908Y-102725546D01*
X143654839Y-102721278D01*
X143618620Y-102706275D01*
X143605653Y-102699344D01*
X143573053Y-102677562D01*
X143561688Y-102668235D01*
X143533965Y-102640512D01*
X143524638Y-102629147D01*
X143502856Y-102596547D01*
X143495925Y-102583580D01*
X143480922Y-102547361D01*
X143476654Y-102533292D01*
X143469004Y-102494834D01*
X143467563Y-102480202D01*
X143466600Y-102460600D01*
X143466600Y-101495400D01*
X143467563Y-101475798D01*
X143469004Y-101461166D01*
X143476654Y-101422708D01*
X143480922Y-101408639D01*
X143495925Y-101372420D01*
X143502856Y-101359453D01*
X143524638Y-101326853D01*
X143533965Y-101315488D01*
X143561688Y-101287765D01*
X143573053Y-101278438D01*
X143605653Y-101256656D01*
X143618620Y-101249725D01*
X143654839Y-101234722D01*
X143668908Y-101230454D01*
X143707366Y-101222804D01*
X143721998Y-101221363D01*
X143741600Y-101220400D01*
X144025400Y-101220400D01*
X144025400Y-97909600D01*
X140714600Y-97909600D01*
X140714600Y-101220400D01*
X140998400Y-101220400D01*
X141018002Y-101221363D01*
X141032634Y-101222804D01*
X141071092Y-101230454D01*
X141085161Y-101234722D01*
X141121380Y-101249725D01*
X141134347Y-101256656D01*
X141166947Y-101278438D01*
X141178312Y-101287765D01*
X141206035Y-101315488D01*
X141215362Y-101326853D01*
X141237144Y-101359453D01*
X141244075Y-101372420D01*
X141259078Y-101408639D01*
X141263346Y-101422708D01*
X141270996Y-101461166D01*
X141272437Y-101475798D01*
X141273400Y-101495400D01*
X141273400Y-102460600D01*
X141272437Y-102480202D01*
X141270996Y-102494834D01*
X141263346Y-102533292D01*
X141259078Y-102547361D01*
X141244075Y-102583580D01*
X141237144Y-102596547D01*
X141215362Y-102629147D01*
X141206035Y-102640512D01*
X141178312Y-102668235D01*
X141166947Y-102677562D01*
X141134347Y-102699344D01*
X141121380Y-102706275D01*
X141085161Y-102721278D01*
X141071092Y-102725546D01*
X141032634Y-102733196D01*
X141018002Y-102734637D01*
X140998400Y-102735600D01*
X140490400Y-102735600D01*
X140470798Y-102734637D01*
X140456166Y-102733196D01*
X140417708Y-102725546D01*
X140403639Y-102721278D01*
X140371736Y-102708515D01*
X140361850Y-102703536D01*
X140348914Y-102696411D01*
X139332914Y-102086811D01*
X139316596Y-102075896D01*
X139304791Y-102067132D01*
X139275761Y-102040797D01*
X139265892Y-102029899D01*
X139242548Y-101998395D01*
X139234995Y-101985781D01*
X139218246Y-101950327D01*
X139213299Y-101936481D01*
X139203137Y-101893624D01*
X139200898Y-101875434D01*
X139199400Y-101851000D01*
X139199400Y-97279000D01*
X139200363Y-97259398D01*
X139201804Y-97244766D01*
X139209454Y-97206308D01*
X139213722Y-97192239D01*
X139228725Y-97156020D01*
X139235656Y-97143053D01*
X139257438Y-97110453D01*
X139266765Y-97099088D01*
X139298285Y-97068325D01*
X139312731Y-97057046D01*
X139332914Y-97043189D01*
X140348914Y-96433589D01*
X140366221Y-96424328D01*
X140379509Y-96418036D01*
X140416415Y-96404812D01*
X140430675Y-96401233D01*
X140464599Y-96395763D01*
X140475638Y-96394946D01*
X140490400Y-96394400D01*
X144300400Y-96394400D01*
X144320002Y-96395363D01*
X144334634Y-96396804D01*
X144373092Y-96404454D01*
X144387161Y-96408722D01*
X144417662Y-96420785D01*
X144426539Y-96425169D01*
X144438185Y-96431408D01*
X145403385Y-96990208D01*
X145419870Y-97000865D01*
X145431810Y-97009443D01*
X145461253Y-97035326D01*
X145471291Y-97046069D01*
X145495124Y-97077205D01*
X145502873Y-97089700D01*
X145520167Y-97124875D01*
X145525330Y-97138641D01*
X145536373Y-97182893D01*
X145538905Y-97202218D01*
X145540600Y-97228200D01*
X145540600Y-101851000D01*
X145539637Y-101870602D01*
X145539637Y-101870602D01*
G37*
D10*
X159300000Y-100815000D03*
D11*
G36*
X160777323Y-99647400D02*
G01*
X160765013Y-99772392D01*
X160762133Y-99791809D01*
X160737630Y-99914992D01*
X160732861Y-99934030D01*
X160696402Y-100054218D01*
X160689790Y-100072697D01*
X160641727Y-100188733D01*
X160633335Y-100206477D01*
X160574129Y-100317243D01*
X160564039Y-100334077D01*
X160494261Y-100438507D01*
X160482569Y-100454271D01*
X160402892Y-100551358D01*
X160389711Y-100565901D01*
X160300901Y-100654711D01*
X160286358Y-100667892D01*
X160189271Y-100747569D01*
X160173507Y-100759261D01*
X160069077Y-100829039D01*
X160052243Y-100839129D01*
X159941477Y-100898335D01*
X159923733Y-100906727D01*
X159829000Y-100945966D01*
X159829000Y-101978000D01*
X159828996Y-101979217D01*
X159828993Y-101979710D01*
X159828771Y-101979709D01*
X159828770Y-101979773D01*
X159828992Y-101979774D01*
X159828989Y-101980266D01*
X159828598Y-101991609D01*
X159828429Y-101994294D01*
X159828278Y-101996997D01*
X159828089Y-101998797D01*
X159828146Y-101998801D01*
X159828129Y-101999068D01*
X159827150Y-102007762D01*
X159826254Y-102016310D01*
X159826215Y-102016563D01*
X159826160Y-102016554D01*
X159825956Y-102018362D01*
X159825521Y-102021043D01*
X159825251Y-102022793D01*
X159824536Y-102022682D01*
X159824428Y-102023221D01*
X159825167Y-102023335D01*
X159825120Y-102023639D01*
X159824747Y-102025461D01*
X159824804Y-102025470D01*
X159824762Y-102025728D01*
X159822945Y-102034261D01*
X159821224Y-102042664D01*
X159821159Y-102042918D01*
X159821104Y-102042904D01*
X159820727Y-102044675D01*
X159820067Y-102047172D01*
X159819362Y-102049919D01*
X159818883Y-102051467D01*
X159818930Y-102051479D01*
X159818864Y-102051729D01*
X159818836Y-102051817D01*
X159816157Y-102079018D01*
X159804776Y-102116537D01*
X159786294Y-102151114D01*
X159761421Y-102181421D01*
X159731114Y-102206294D01*
X159696537Y-102224776D01*
X159659018Y-102236157D01*
X159644526Y-102237584D01*
X159642740Y-102238220D01*
X159641116Y-102238711D01*
X159641133Y-102238760D01*
X159640880Y-102238848D01*
X159632693Y-102241256D01*
X159624184Y-102243828D01*
X159623936Y-102243890D01*
X159623923Y-102243836D01*
X159622221Y-102244337D01*
X159619594Y-102244973D01*
X159617049Y-102245607D01*
X159617049Y-102245606D01*
X159615374Y-102245938D01*
X159615387Y-102245991D01*
X159615131Y-102246053D01*
X159606007Y-102247794D01*
X159597711Y-102249437D01*
X159597453Y-102249475D01*
X159597446Y-102249427D01*
X159595851Y-102249731D01*
X159593156Y-102250109D01*
X159590537Y-102250496D01*
X159588897Y-102250657D01*
X159588904Y-102250706D01*
X159588648Y-102250742D01*
X159579988Y-102251531D01*
X159571082Y-102252404D01*
X159570816Y-102252417D01*
X159570814Y-102252366D01*
X159569177Y-102252515D01*
X159566530Y-102252626D01*
X159563770Y-102252761D01*
X159554000Y-102253000D01*
X159046000Y-102253000D01*
X159044783Y-102252996D01*
X159044290Y-102252993D01*
X159044291Y-102252771D01*
X159044227Y-102252770D01*
X159044226Y-102252992D01*
X159043734Y-102252989D01*
X159032391Y-102252598D01*
X159029706Y-102252429D01*
X159027003Y-102252278D01*
X159025203Y-102252089D01*
X159025199Y-102252146D01*
X159024932Y-102252129D01*
X159016238Y-102251150D01*
X159007690Y-102250254D01*
X159007437Y-102250215D01*
X159007446Y-102250160D01*
X159005638Y-102249956D01*
X159002957Y-102249521D01*
X159001207Y-102249251D01*
X159001318Y-102248536D01*
X159000779Y-102248428D01*
X159000665Y-102249167D01*
X159000361Y-102249120D01*
X158998539Y-102248747D01*
X158998530Y-102248804D01*
X158998272Y-102248762D01*
X158989739Y-102246945D01*
X158981336Y-102245224D01*
X158981082Y-102245159D01*
X158981096Y-102245104D01*
X158979325Y-102244727D01*
X158976828Y-102244067D01*
X158974081Y-102243362D01*
X158972533Y-102242883D01*
X158972521Y-102242930D01*
X158972271Y-102242864D01*
X158964042Y-102240254D01*
X158955413Y-102237583D01*
X158955395Y-102237577D01*
X158940982Y-102236157D01*
X158903463Y-102224776D01*
X158868886Y-102206294D01*
X158838579Y-102181421D01*
X158813706Y-102151114D01*
X158795224Y-102116537D01*
X158783843Y-102079018D01*
X158781113Y-102051296D01*
X158780172Y-102048184D01*
X158780110Y-102047936D01*
X158780164Y-102047923D01*
X158779663Y-102046221D01*
X158779027Y-102043594D01*
X158778410Y-102041119D01*
X158778399Y-102041075D01*
X158778397Y-102041066D01*
X158778393Y-102041049D01*
X158778394Y-102041049D01*
X158778062Y-102039374D01*
X158778009Y-102039387D01*
X158777947Y-102039131D01*
X158776206Y-102030007D01*
X158774563Y-102021711D01*
X158774525Y-102021453D01*
X158774573Y-102021446D01*
X158774269Y-102019851D01*
X158773891Y-102017156D01*
X158773504Y-102014537D01*
X158773343Y-102012897D01*
X158773294Y-102012904D01*
X158773258Y-102012648D01*
X158772469Y-102003988D01*
X158771596Y-101995082D01*
X158771583Y-101994816D01*
X158771634Y-101994814D01*
X158771485Y-101993177D01*
X158771374Y-101990530D01*
X158771239Y-101987770D01*
X158771000Y-101978000D01*
X158771000Y-100945966D01*
X158676267Y-100906727D01*
X158658523Y-100898335D01*
X158547757Y-100839129D01*
X158530923Y-100829039D01*
X158426493Y-100759261D01*
X158410729Y-100747569D01*
X158313642Y-100667892D01*
X158299099Y-100654711D01*
X158210289Y-100565901D01*
X158197108Y-100551358D01*
X158117431Y-100454271D01*
X158105739Y-100438507D01*
X158035961Y-100334077D01*
X158025871Y-100317243D01*
X157966665Y-100206477D01*
X157958273Y-100188733D01*
X157910210Y-100072697D01*
X157903598Y-100054218D01*
X157867139Y-99934030D01*
X157862370Y-99914992D01*
X157837867Y-99791809D01*
X157834987Y-99772392D01*
X157822677Y-99647400D01*
X157821714Y-99627798D01*
X157821714Y-99502202D01*
X157822677Y-99482600D01*
X157834987Y-99357608D01*
X157837867Y-99338191D01*
X157862370Y-99215008D01*
X157867139Y-99195970D01*
X157903598Y-99075782D01*
X157910210Y-99057303D01*
X157958273Y-98941267D01*
X157966665Y-98923523D01*
X158025871Y-98812757D01*
X158035961Y-98795923D01*
X158105739Y-98691493D01*
X158117431Y-98675729D01*
X158197108Y-98578642D01*
X158210289Y-98564099D01*
X158299099Y-98475289D01*
X158313642Y-98462108D01*
X158410729Y-98382431D01*
X158426493Y-98370739D01*
X158530923Y-98300961D01*
X158547757Y-98290871D01*
X158658523Y-98231665D01*
X158676267Y-98223273D01*
X158792303Y-98175210D01*
X158810782Y-98168598D01*
X158930970Y-98132139D01*
X158950008Y-98127370D01*
X159073191Y-98102867D01*
X159092608Y-98099987D01*
X159217600Y-98087677D01*
X159237202Y-98086714D01*
X159362798Y-98086714D01*
X159382400Y-98087677D01*
X159507392Y-98099987D01*
X159526809Y-98102867D01*
X159649992Y-98127370D01*
X159669030Y-98132139D01*
X159789218Y-98168598D01*
X159807697Y-98175210D01*
X159923733Y-98223273D01*
X159941477Y-98231665D01*
X160052243Y-98290871D01*
X160069077Y-98300961D01*
X160173507Y-98370739D01*
X160189271Y-98382431D01*
X160286358Y-98462108D01*
X160300901Y-98475289D01*
X160389711Y-98564099D01*
X160402892Y-98578642D01*
X160482569Y-98675729D01*
X160494261Y-98691493D01*
X160564039Y-98795923D01*
X160574129Y-98812757D01*
X160633335Y-98923523D01*
X160641727Y-98941267D01*
X160689790Y-99057303D01*
X160696402Y-99075782D01*
X160732861Y-99195970D01*
X160737630Y-99215008D01*
X160762133Y-99338191D01*
X160765013Y-99357608D01*
X160777323Y-99482600D01*
X160778286Y-99502202D01*
X160778286Y-99627798D01*
X160777323Y-99647400D01*
X160777323Y-99647400D01*
G37*
D12*
X160900000Y-101965000D03*
D11*
G36*
X162469637Y-101870602D02*
G01*
X162468196Y-101885234D01*
X162460546Y-101923692D01*
X162456278Y-101937761D01*
X162441275Y-101973980D01*
X162434344Y-101986947D01*
X162412562Y-102019547D01*
X162403235Y-102030912D01*
X162371715Y-102061675D01*
X162357269Y-102072954D01*
X162337086Y-102086811D01*
X161321086Y-102696411D01*
X161303779Y-102705672D01*
X161290491Y-102711964D01*
X161253585Y-102725188D01*
X161239325Y-102728767D01*
X161205401Y-102734237D01*
X161194362Y-102735054D01*
X161179600Y-102735600D01*
X160671600Y-102735600D01*
X160651998Y-102734637D01*
X160637366Y-102733196D01*
X160598908Y-102725546D01*
X160584839Y-102721278D01*
X160548620Y-102706275D01*
X160535653Y-102699344D01*
X160503053Y-102677562D01*
X160491688Y-102668235D01*
X160463965Y-102640512D01*
X160454638Y-102629147D01*
X160432856Y-102596547D01*
X160425925Y-102583580D01*
X160410922Y-102547361D01*
X160406654Y-102533292D01*
X160399004Y-102494834D01*
X160397563Y-102480202D01*
X160396600Y-102460600D01*
X160396600Y-101495400D01*
X160397563Y-101475798D01*
X160399004Y-101461166D01*
X160406654Y-101422708D01*
X160410922Y-101408639D01*
X160425925Y-101372420D01*
X160432856Y-101359453D01*
X160454638Y-101326853D01*
X160463965Y-101315488D01*
X160491688Y-101287765D01*
X160503053Y-101278438D01*
X160535653Y-101256656D01*
X160548620Y-101249725D01*
X160584839Y-101234722D01*
X160598908Y-101230454D01*
X160637366Y-101222804D01*
X160651998Y-101221363D01*
X160671600Y-101220400D01*
X160955400Y-101220400D01*
X160955400Y-97909600D01*
X157644600Y-97909600D01*
X157644600Y-101220400D01*
X157928400Y-101220400D01*
X157948002Y-101221363D01*
X157962634Y-101222804D01*
X158001092Y-101230454D01*
X158015161Y-101234722D01*
X158051380Y-101249725D01*
X158064347Y-101256656D01*
X158096947Y-101278438D01*
X158108312Y-101287765D01*
X158136035Y-101315488D01*
X158145362Y-101326853D01*
X158167144Y-101359453D01*
X158174075Y-101372420D01*
X158189078Y-101408639D01*
X158193346Y-101422708D01*
X158200996Y-101461166D01*
X158202437Y-101475798D01*
X158203400Y-101495400D01*
X158203400Y-102460600D01*
X158202437Y-102480202D01*
X158200996Y-102494834D01*
X158193346Y-102533292D01*
X158189078Y-102547361D01*
X158174075Y-102583580D01*
X158167144Y-102596547D01*
X158145362Y-102629147D01*
X158136035Y-102640512D01*
X158108312Y-102668235D01*
X158096947Y-102677562D01*
X158064347Y-102699344D01*
X158051380Y-102706275D01*
X158015161Y-102721278D01*
X158001092Y-102725546D01*
X157962634Y-102733196D01*
X157948002Y-102734637D01*
X157928400Y-102735600D01*
X157420400Y-102735600D01*
X157400798Y-102734637D01*
X157386166Y-102733196D01*
X157347708Y-102725546D01*
X157333639Y-102721278D01*
X157301736Y-102708515D01*
X157291850Y-102703536D01*
X157278914Y-102696411D01*
X156262914Y-102086811D01*
X156246596Y-102075896D01*
X156234791Y-102067132D01*
X156205761Y-102040797D01*
X156195892Y-102029899D01*
X156172548Y-101998395D01*
X156164995Y-101985781D01*
X156148246Y-101950327D01*
X156143299Y-101936481D01*
X156133137Y-101893624D01*
X156130898Y-101875434D01*
X156129400Y-101851000D01*
X156129400Y-97279000D01*
X156130363Y-97259398D01*
X156131804Y-97244766D01*
X156139454Y-97206308D01*
X156143722Y-97192239D01*
X156158725Y-97156020D01*
X156165656Y-97143053D01*
X156187438Y-97110453D01*
X156196765Y-97099088D01*
X156228285Y-97068325D01*
X156242731Y-97057046D01*
X156262914Y-97043189D01*
X157278914Y-96433589D01*
X157296221Y-96424328D01*
X157309509Y-96418036D01*
X157346415Y-96404812D01*
X157360675Y-96401233D01*
X157394599Y-96395763D01*
X157405638Y-96394946D01*
X157420400Y-96394400D01*
X161230400Y-96394400D01*
X161250002Y-96395363D01*
X161264634Y-96396804D01*
X161303092Y-96404454D01*
X161317161Y-96408722D01*
X161347662Y-96420785D01*
X161356539Y-96425169D01*
X161368185Y-96431408D01*
X162333385Y-96990208D01*
X162349870Y-97000865D01*
X162361810Y-97009443D01*
X162391253Y-97035326D01*
X162401291Y-97046069D01*
X162425124Y-97077205D01*
X162432873Y-97089700D01*
X162450167Y-97124875D01*
X162455330Y-97138641D01*
X162466373Y-97182893D01*
X162468905Y-97202218D01*
X162470600Y-97228200D01*
X162470600Y-101851000D01*
X162469637Y-101870602D01*
X162469637Y-101870602D01*
G37*
D10*
X176230000Y-100815000D03*
D11*
G36*
X177707323Y-99647400D02*
G01*
X177695013Y-99772392D01*
X177692133Y-99791809D01*
X177667630Y-99914992D01*
X177662861Y-99934030D01*
X177626402Y-100054218D01*
X177619790Y-100072697D01*
X177571727Y-100188733D01*
X177563335Y-100206477D01*
X177504129Y-100317243D01*
X177494039Y-100334077D01*
X177424261Y-100438507D01*
X177412569Y-100454271D01*
X177332892Y-100551358D01*
X177319711Y-100565901D01*
X177230901Y-100654711D01*
X177216358Y-100667892D01*
X177119271Y-100747569D01*
X177103507Y-100759261D01*
X176999077Y-100829039D01*
X176982243Y-100839129D01*
X176871477Y-100898335D01*
X176853733Y-100906727D01*
X176759000Y-100945966D01*
X176759000Y-101978000D01*
X176758996Y-101979217D01*
X176758993Y-101979710D01*
X176758771Y-101979709D01*
X176758770Y-101979773D01*
X176758992Y-101979774D01*
X176758989Y-101980266D01*
X176758598Y-101991609D01*
X176758429Y-101994294D01*
X176758278Y-101996997D01*
X176758089Y-101998797D01*
X176758146Y-101998801D01*
X176758129Y-101999068D01*
X176757150Y-102007762D01*
X176756254Y-102016310D01*
X176756215Y-102016563D01*
X176756160Y-102016554D01*
X176755956Y-102018362D01*
X176755521Y-102021043D01*
X176755251Y-102022793D01*
X176754536Y-102022682D01*
X176754428Y-102023221D01*
X176755167Y-102023335D01*
X176755120Y-102023639D01*
X176754747Y-102025461D01*
X176754804Y-102025470D01*
X176754762Y-102025728D01*
X176752945Y-102034261D01*
X176751224Y-102042664D01*
X176751159Y-102042918D01*
X176751104Y-102042904D01*
X176750727Y-102044675D01*
X176750067Y-102047172D01*
X176749362Y-102049919D01*
X176748883Y-102051467D01*
X176748930Y-102051479D01*
X176748864Y-102051729D01*
X176748836Y-102051817D01*
X176746157Y-102079018D01*
X176734776Y-102116537D01*
X176716294Y-102151114D01*
X176691421Y-102181421D01*
X176661114Y-102206294D01*
X176626537Y-102224776D01*
X176589018Y-102236157D01*
X176574526Y-102237584D01*
X176572740Y-102238220D01*
X176571116Y-102238711D01*
X176571133Y-102238760D01*
X176570880Y-102238848D01*
X176562693Y-102241256D01*
X176554184Y-102243828D01*
X176553936Y-102243890D01*
X176553923Y-102243836D01*
X176552221Y-102244337D01*
X176549594Y-102244973D01*
X176547049Y-102245607D01*
X176547049Y-102245606D01*
X176545374Y-102245938D01*
X176545387Y-102245991D01*
X176545131Y-102246053D01*
X176536007Y-102247794D01*
X176527711Y-102249437D01*
X176527453Y-102249475D01*
X176527446Y-102249427D01*
X176525851Y-102249731D01*
X176523156Y-102250109D01*
X176520537Y-102250496D01*
X176518897Y-102250657D01*
X176518904Y-102250706D01*
X176518648Y-102250742D01*
X176509988Y-102251531D01*
X176501082Y-102252404D01*
X176500816Y-102252417D01*
X176500814Y-102252366D01*
X176499177Y-102252515D01*
X176496530Y-102252626D01*
X176493770Y-102252761D01*
X176484000Y-102253000D01*
X175976000Y-102253000D01*
X175974783Y-102252996D01*
X175974290Y-102252993D01*
X175974291Y-102252771D01*
X175974227Y-102252770D01*
X175974226Y-102252992D01*
X175973734Y-102252989D01*
X175962391Y-102252598D01*
X175959706Y-102252429D01*
X175957003Y-102252278D01*
X175955203Y-102252089D01*
X175955199Y-102252146D01*
X175954932Y-102252129D01*
X175946238Y-102251150D01*
X175937690Y-102250254D01*
X175937437Y-102250215D01*
X175937446Y-102250160D01*
X175935638Y-102249956D01*
X175932957Y-102249521D01*
X175931207Y-102249251D01*
X175931318Y-102248536D01*
X175930779Y-102248428D01*
X175930665Y-102249167D01*
X175930361Y-102249120D01*
X175928539Y-102248747D01*
X175928530Y-102248804D01*
X175928272Y-102248762D01*
X175919739Y-102246945D01*
X175911336Y-102245224D01*
X175911082Y-102245159D01*
X175911096Y-102245104D01*
X175909325Y-102244727D01*
X175906828Y-102244067D01*
X175904081Y-102243362D01*
X175902533Y-102242883D01*
X175902521Y-102242930D01*
X175902271Y-102242864D01*
X175894042Y-102240254D01*
X175885413Y-102237583D01*
X175885395Y-102237577D01*
X175870982Y-102236157D01*
X175833463Y-102224776D01*
X175798886Y-102206294D01*
X175768579Y-102181421D01*
X175743706Y-102151114D01*
X175725224Y-102116537D01*
X175713843Y-102079018D01*
X175711113Y-102051296D01*
X175710172Y-102048184D01*
X175710110Y-102047936D01*
X175710164Y-102047923D01*
X175709663Y-102046221D01*
X175709027Y-102043594D01*
X175708410Y-102041119D01*
X175708399Y-102041075D01*
X175708397Y-102041066D01*
X175708393Y-102041049D01*
X175708394Y-102041049D01*
X175708062Y-102039374D01*
X175708009Y-102039387D01*
X175707947Y-102039131D01*
X175706206Y-102030007D01*
X175704563Y-102021711D01*
X175704525Y-102021453D01*
X175704573Y-102021446D01*
X175704269Y-102019851D01*
X175703891Y-102017156D01*
X175703504Y-102014537D01*
X175703343Y-102012897D01*
X175703294Y-102012904D01*
X175703258Y-102012648D01*
X175702469Y-102003988D01*
X175701596Y-101995082D01*
X175701583Y-101994816D01*
X175701634Y-101994814D01*
X175701485Y-101993177D01*
X175701374Y-101990530D01*
X175701239Y-101987770D01*
X175701000Y-101978000D01*
X175701000Y-100945966D01*
X175606267Y-100906727D01*
X175588523Y-100898335D01*
X175477757Y-100839129D01*
X175460923Y-100829039D01*
X175356493Y-100759261D01*
X175340729Y-100747569D01*
X175243642Y-100667892D01*
X175229099Y-100654711D01*
X175140289Y-100565901D01*
X175127108Y-100551358D01*
X175047431Y-100454271D01*
X175035739Y-100438507D01*
X174965961Y-100334077D01*
X174955871Y-100317243D01*
X174896665Y-100206477D01*
X174888273Y-100188733D01*
X174840210Y-100072697D01*
X174833598Y-100054218D01*
X174797139Y-99934030D01*
X174792370Y-99914992D01*
X174767867Y-99791809D01*
X174764987Y-99772392D01*
X174752677Y-99647400D01*
X174751714Y-99627798D01*
X174751714Y-99502202D01*
X174752677Y-99482600D01*
X174764987Y-99357608D01*
X174767867Y-99338191D01*
X174792370Y-99215008D01*
X174797139Y-99195970D01*
X174833598Y-99075782D01*
X174840210Y-99057303D01*
X174888273Y-98941267D01*
X174896665Y-98923523D01*
X174955871Y-98812757D01*
X174965961Y-98795923D01*
X175035739Y-98691493D01*
X175047431Y-98675729D01*
X175127108Y-98578642D01*
X175140289Y-98564099D01*
X175229099Y-98475289D01*
X175243642Y-98462108D01*
X175340729Y-98382431D01*
X175356493Y-98370739D01*
X175460923Y-98300961D01*
X175477757Y-98290871D01*
X175588523Y-98231665D01*
X175606267Y-98223273D01*
X175722303Y-98175210D01*
X175740782Y-98168598D01*
X175860970Y-98132139D01*
X175880008Y-98127370D01*
X176003191Y-98102867D01*
X176022608Y-98099987D01*
X176147600Y-98087677D01*
X176167202Y-98086714D01*
X176292798Y-98086714D01*
X176312400Y-98087677D01*
X176437392Y-98099987D01*
X176456809Y-98102867D01*
X176579992Y-98127370D01*
X176599030Y-98132139D01*
X176719218Y-98168598D01*
X176737697Y-98175210D01*
X176853733Y-98223273D01*
X176871477Y-98231665D01*
X176982243Y-98290871D01*
X176999077Y-98300961D01*
X177103507Y-98370739D01*
X177119271Y-98382431D01*
X177216358Y-98462108D01*
X177230901Y-98475289D01*
X177319711Y-98564099D01*
X177332892Y-98578642D01*
X177412569Y-98675729D01*
X177424261Y-98691493D01*
X177494039Y-98795923D01*
X177504129Y-98812757D01*
X177563335Y-98923523D01*
X177571727Y-98941267D01*
X177619790Y-99057303D01*
X177626402Y-99075782D01*
X177662861Y-99195970D01*
X177667630Y-99215008D01*
X177692133Y-99338191D01*
X177695013Y-99357608D01*
X177707323Y-99482600D01*
X177708286Y-99502202D01*
X177708286Y-99627798D01*
X177707323Y-99647400D01*
X177707323Y-99647400D01*
G37*
D12*
X177830000Y-101965000D03*
D11*
G36*
X179399637Y-101870602D02*
G01*
X179398196Y-101885234D01*
X179390546Y-101923692D01*
X179386278Y-101937761D01*
X179371275Y-101973980D01*
X179364344Y-101986947D01*
X179342562Y-102019547D01*
X179333235Y-102030912D01*
X179301715Y-102061675D01*
X179287269Y-102072954D01*
X179267086Y-102086811D01*
X178251086Y-102696411D01*
X178233779Y-102705672D01*
X178220491Y-102711964D01*
X178183585Y-102725188D01*
X178169325Y-102728767D01*
X178135401Y-102734237D01*
X178124362Y-102735054D01*
X178109600Y-102735600D01*
X177601600Y-102735600D01*
X177581998Y-102734637D01*
X177567366Y-102733196D01*
X177528908Y-102725546D01*
X177514839Y-102721278D01*
X177478620Y-102706275D01*
X177465653Y-102699344D01*
X177433053Y-102677562D01*
X177421688Y-102668235D01*
X177393965Y-102640512D01*
X177384638Y-102629147D01*
X177362856Y-102596547D01*
X177355925Y-102583580D01*
X177340922Y-102547361D01*
X177336654Y-102533292D01*
X177329004Y-102494834D01*
X177327563Y-102480202D01*
X177326600Y-102460600D01*
X177326600Y-101495400D01*
X177327563Y-101475798D01*
X177329004Y-101461166D01*
X177336654Y-101422708D01*
X177340922Y-101408639D01*
X177355925Y-101372420D01*
X177362856Y-101359453D01*
X177384638Y-101326853D01*
X177393965Y-101315488D01*
X177421688Y-101287765D01*
X177433053Y-101278438D01*
X177465653Y-101256656D01*
X177478620Y-101249725D01*
X177514839Y-101234722D01*
X177528908Y-101230454D01*
X177567366Y-101222804D01*
X177581998Y-101221363D01*
X177601600Y-101220400D01*
X177885400Y-101220400D01*
X177885400Y-97909600D01*
X174574600Y-97909600D01*
X174574600Y-101220400D01*
X174858400Y-101220400D01*
X174878002Y-101221363D01*
X174892634Y-101222804D01*
X174931092Y-101230454D01*
X174945161Y-101234722D01*
X174981380Y-101249725D01*
X174994347Y-101256656D01*
X175026947Y-101278438D01*
X175038312Y-101287765D01*
X175066035Y-101315488D01*
X175075362Y-101326853D01*
X175097144Y-101359453D01*
X175104075Y-101372420D01*
X175119078Y-101408639D01*
X175123346Y-101422708D01*
X175130996Y-101461166D01*
X175132437Y-101475798D01*
X175133400Y-101495400D01*
X175133400Y-102460600D01*
X175132437Y-102480202D01*
X175130996Y-102494834D01*
X175123346Y-102533292D01*
X175119078Y-102547361D01*
X175104075Y-102583580D01*
X175097144Y-102596547D01*
X175075362Y-102629147D01*
X175066035Y-102640512D01*
X175038312Y-102668235D01*
X175026947Y-102677562D01*
X174994347Y-102699344D01*
X174981380Y-102706275D01*
X174945161Y-102721278D01*
X174931092Y-102725546D01*
X174892634Y-102733196D01*
X174878002Y-102734637D01*
X174858400Y-102735600D01*
X174350400Y-102735600D01*
X174330798Y-102734637D01*
X174316166Y-102733196D01*
X174277708Y-102725546D01*
X174263639Y-102721278D01*
X174231736Y-102708515D01*
X174221850Y-102703536D01*
X174208914Y-102696411D01*
X173192914Y-102086811D01*
X173176596Y-102075896D01*
X173164791Y-102067132D01*
X173135761Y-102040797D01*
X173125892Y-102029899D01*
X173102548Y-101998395D01*
X173094995Y-101985781D01*
X173078246Y-101950327D01*
X173073299Y-101936481D01*
X173063137Y-101893624D01*
X173060898Y-101875434D01*
X173059400Y-101851000D01*
X173059400Y-97279000D01*
X173060363Y-97259398D01*
X173061804Y-97244766D01*
X173069454Y-97206308D01*
X173073722Y-97192239D01*
X173088725Y-97156020D01*
X173095656Y-97143053D01*
X173117438Y-97110453D01*
X173126765Y-97099088D01*
X173158285Y-97068325D01*
X173172731Y-97057046D01*
X173192914Y-97043189D01*
X174208914Y-96433589D01*
X174226221Y-96424328D01*
X174239509Y-96418036D01*
X174276415Y-96404812D01*
X174290675Y-96401233D01*
X174324599Y-96395763D01*
X174335638Y-96394946D01*
X174350400Y-96394400D01*
X178160400Y-96394400D01*
X178180002Y-96395363D01*
X178194634Y-96396804D01*
X178233092Y-96404454D01*
X178247161Y-96408722D01*
X178277662Y-96420785D01*
X178286539Y-96425169D01*
X178298185Y-96431408D01*
X179263385Y-96990208D01*
X179279870Y-97000865D01*
X179291810Y-97009443D01*
X179321253Y-97035326D01*
X179331291Y-97046069D01*
X179355124Y-97077205D01*
X179362873Y-97089700D01*
X179380167Y-97124875D01*
X179385330Y-97138641D01*
X179396373Y-97182893D01*
X179398905Y-97202218D01*
X179400600Y-97228200D01*
X179400600Y-101851000D01*
X179399637Y-101870602D01*
X179399637Y-101870602D01*
G37*
D10*
X193170000Y-100815000D03*
D11*
G36*
X194647323Y-99647400D02*
G01*
X194635013Y-99772392D01*
X194632133Y-99791809D01*
X194607630Y-99914992D01*
X194602861Y-99934030D01*
X194566402Y-100054218D01*
X194559790Y-100072697D01*
X194511727Y-100188733D01*
X194503335Y-100206477D01*
X194444129Y-100317243D01*
X194434039Y-100334077D01*
X194364261Y-100438507D01*
X194352569Y-100454271D01*
X194272892Y-100551358D01*
X194259711Y-100565901D01*
X194170901Y-100654711D01*
X194156358Y-100667892D01*
X194059271Y-100747569D01*
X194043507Y-100759261D01*
X193939077Y-100829039D01*
X193922243Y-100839129D01*
X193811477Y-100898335D01*
X193793733Y-100906727D01*
X193699000Y-100945966D01*
X193699000Y-101978000D01*
X193698996Y-101979217D01*
X193698993Y-101979710D01*
X193698771Y-101979709D01*
X193698770Y-101979773D01*
X193698992Y-101979774D01*
X193698989Y-101980266D01*
X193698598Y-101991609D01*
X193698429Y-101994294D01*
X193698278Y-101996997D01*
X193698089Y-101998797D01*
X193698146Y-101998801D01*
X193698129Y-101999068D01*
X193697150Y-102007762D01*
X193696254Y-102016310D01*
X193696215Y-102016563D01*
X193696160Y-102016554D01*
X193695956Y-102018362D01*
X193695521Y-102021043D01*
X193695251Y-102022793D01*
X193694536Y-102022682D01*
X193694428Y-102023221D01*
X193695167Y-102023335D01*
X193695120Y-102023639D01*
X193694747Y-102025461D01*
X193694804Y-102025470D01*
X193694762Y-102025728D01*
X193692945Y-102034261D01*
X193691224Y-102042664D01*
X193691159Y-102042918D01*
X193691104Y-102042904D01*
X193690727Y-102044675D01*
X193690067Y-102047172D01*
X193689362Y-102049919D01*
X193688883Y-102051467D01*
X193688930Y-102051479D01*
X193688864Y-102051729D01*
X193688836Y-102051817D01*
X193686157Y-102079018D01*
X193674776Y-102116537D01*
X193656294Y-102151114D01*
X193631421Y-102181421D01*
X193601114Y-102206294D01*
X193566537Y-102224776D01*
X193529018Y-102236157D01*
X193514526Y-102237584D01*
X193512740Y-102238220D01*
X193511116Y-102238711D01*
X193511133Y-102238760D01*
X193510880Y-102238848D01*
X193502693Y-102241256D01*
X193494184Y-102243828D01*
X193493936Y-102243890D01*
X193493923Y-102243836D01*
X193492221Y-102244337D01*
X193489594Y-102244973D01*
X193487049Y-102245607D01*
X193487049Y-102245606D01*
X193485374Y-102245938D01*
X193485387Y-102245991D01*
X193485131Y-102246053D01*
X193476007Y-102247794D01*
X193467711Y-102249437D01*
X193467453Y-102249475D01*
X193467446Y-102249427D01*
X193465851Y-102249731D01*
X193463156Y-102250109D01*
X193460537Y-102250496D01*
X193458897Y-102250657D01*
X193458904Y-102250706D01*
X193458648Y-102250742D01*
X193449988Y-102251531D01*
X193441082Y-102252404D01*
X193440816Y-102252417D01*
X193440814Y-102252366D01*
X193439177Y-102252515D01*
X193436530Y-102252626D01*
X193433770Y-102252761D01*
X193424000Y-102253000D01*
X192916000Y-102253000D01*
X192914783Y-102252996D01*
X192914290Y-102252993D01*
X192914291Y-102252771D01*
X192914227Y-102252770D01*
X192914226Y-102252992D01*
X192913734Y-102252989D01*
X192902391Y-102252598D01*
X192899706Y-102252429D01*
X192897003Y-102252278D01*
X192895203Y-102252089D01*
X192895199Y-102252146D01*
X192894932Y-102252129D01*
X192886238Y-102251150D01*
X192877690Y-102250254D01*
X192877437Y-102250215D01*
X192877446Y-102250160D01*
X192875638Y-102249956D01*
X192872957Y-102249521D01*
X192871207Y-102249251D01*
X192871318Y-102248536D01*
X192870779Y-102248428D01*
X192870665Y-102249167D01*
X192870361Y-102249120D01*
X192868539Y-102248747D01*
X192868530Y-102248804D01*
X192868272Y-102248762D01*
X192859739Y-102246945D01*
X192851336Y-102245224D01*
X192851082Y-102245159D01*
X192851096Y-102245104D01*
X192849325Y-102244727D01*
X192846828Y-102244067D01*
X192844081Y-102243362D01*
X192842533Y-102242883D01*
X192842521Y-102242930D01*
X192842271Y-102242864D01*
X192834042Y-102240254D01*
X192825413Y-102237583D01*
X192825395Y-102237577D01*
X192810982Y-102236157D01*
X192773463Y-102224776D01*
X192738886Y-102206294D01*
X192708579Y-102181421D01*
X192683706Y-102151114D01*
X192665224Y-102116537D01*
X192653843Y-102079018D01*
X192651113Y-102051296D01*
X192650172Y-102048184D01*
X192650110Y-102047936D01*
X192650164Y-102047923D01*
X192649663Y-102046221D01*
X192649027Y-102043594D01*
X192648410Y-102041119D01*
X192648399Y-102041075D01*
X192648397Y-102041066D01*
X192648393Y-102041049D01*
X192648394Y-102041049D01*
X192648062Y-102039374D01*
X192648009Y-102039387D01*
X192647947Y-102039131D01*
X192646206Y-102030007D01*
X192644563Y-102021711D01*
X192644525Y-102021453D01*
X192644573Y-102021446D01*
X192644269Y-102019851D01*
X192643891Y-102017156D01*
X192643504Y-102014537D01*
X192643343Y-102012897D01*
X192643294Y-102012904D01*
X192643258Y-102012648D01*
X192642469Y-102003988D01*
X192641596Y-101995082D01*
X192641583Y-101994816D01*
X192641634Y-101994814D01*
X192641485Y-101993177D01*
X192641374Y-101990530D01*
X192641239Y-101987770D01*
X192641000Y-101978000D01*
X192641000Y-100945966D01*
X192546267Y-100906727D01*
X192528523Y-100898335D01*
X192417757Y-100839129D01*
X192400923Y-100829039D01*
X192296493Y-100759261D01*
X192280729Y-100747569D01*
X192183642Y-100667892D01*
X192169099Y-100654711D01*
X192080289Y-100565901D01*
X192067108Y-100551358D01*
X191987431Y-100454271D01*
X191975739Y-100438507D01*
X191905961Y-100334077D01*
X191895871Y-100317243D01*
X191836665Y-100206477D01*
X191828273Y-100188733D01*
X191780210Y-100072697D01*
X191773598Y-100054218D01*
X191737139Y-99934030D01*
X191732370Y-99914992D01*
X191707867Y-99791809D01*
X191704987Y-99772392D01*
X191692677Y-99647400D01*
X191691714Y-99627798D01*
X191691714Y-99502202D01*
X191692677Y-99482600D01*
X191704987Y-99357608D01*
X191707867Y-99338191D01*
X191732370Y-99215008D01*
X191737139Y-99195970D01*
X191773598Y-99075782D01*
X191780210Y-99057303D01*
X191828273Y-98941267D01*
X191836665Y-98923523D01*
X191895871Y-98812757D01*
X191905961Y-98795923D01*
X191975739Y-98691493D01*
X191987431Y-98675729D01*
X192067108Y-98578642D01*
X192080289Y-98564099D01*
X192169099Y-98475289D01*
X192183642Y-98462108D01*
X192280729Y-98382431D01*
X192296493Y-98370739D01*
X192400923Y-98300961D01*
X192417757Y-98290871D01*
X192528523Y-98231665D01*
X192546267Y-98223273D01*
X192662303Y-98175210D01*
X192680782Y-98168598D01*
X192800970Y-98132139D01*
X192820008Y-98127370D01*
X192943191Y-98102867D01*
X192962608Y-98099987D01*
X193087600Y-98087677D01*
X193107202Y-98086714D01*
X193232798Y-98086714D01*
X193252400Y-98087677D01*
X193377392Y-98099987D01*
X193396809Y-98102867D01*
X193519992Y-98127370D01*
X193539030Y-98132139D01*
X193659218Y-98168598D01*
X193677697Y-98175210D01*
X193793733Y-98223273D01*
X193811477Y-98231665D01*
X193922243Y-98290871D01*
X193939077Y-98300961D01*
X194043507Y-98370739D01*
X194059271Y-98382431D01*
X194156358Y-98462108D01*
X194170901Y-98475289D01*
X194259711Y-98564099D01*
X194272892Y-98578642D01*
X194352569Y-98675729D01*
X194364261Y-98691493D01*
X194434039Y-98795923D01*
X194444129Y-98812757D01*
X194503335Y-98923523D01*
X194511727Y-98941267D01*
X194559790Y-99057303D01*
X194566402Y-99075782D01*
X194602861Y-99195970D01*
X194607630Y-99215008D01*
X194632133Y-99338191D01*
X194635013Y-99357608D01*
X194647323Y-99482600D01*
X194648286Y-99502202D01*
X194648286Y-99627798D01*
X194647323Y-99647400D01*
X194647323Y-99647400D01*
G37*
D12*
X194770000Y-101965000D03*
D11*
G36*
X196339637Y-101870602D02*
G01*
X196338196Y-101885234D01*
X196330546Y-101923692D01*
X196326278Y-101937761D01*
X196311275Y-101973980D01*
X196304344Y-101986947D01*
X196282562Y-102019547D01*
X196273235Y-102030912D01*
X196241715Y-102061675D01*
X196227269Y-102072954D01*
X196207086Y-102086811D01*
X195191086Y-102696411D01*
X195173779Y-102705672D01*
X195160491Y-102711964D01*
X195123585Y-102725188D01*
X195109325Y-102728767D01*
X195075401Y-102734237D01*
X195064362Y-102735054D01*
X195049600Y-102735600D01*
X194541600Y-102735600D01*
X194521998Y-102734637D01*
X194507366Y-102733196D01*
X194468908Y-102725546D01*
X194454839Y-102721278D01*
X194418620Y-102706275D01*
X194405653Y-102699344D01*
X194373053Y-102677562D01*
X194361688Y-102668235D01*
X194333965Y-102640512D01*
X194324638Y-102629147D01*
X194302856Y-102596547D01*
X194295925Y-102583580D01*
X194280922Y-102547361D01*
X194276654Y-102533292D01*
X194269004Y-102494834D01*
X194267563Y-102480202D01*
X194266600Y-102460600D01*
X194266600Y-101495400D01*
X194267563Y-101475798D01*
X194269004Y-101461166D01*
X194276654Y-101422708D01*
X194280922Y-101408639D01*
X194295925Y-101372420D01*
X194302856Y-101359453D01*
X194324638Y-101326853D01*
X194333965Y-101315488D01*
X194361688Y-101287765D01*
X194373053Y-101278438D01*
X194405653Y-101256656D01*
X194418620Y-101249725D01*
X194454839Y-101234722D01*
X194468908Y-101230454D01*
X194507366Y-101222804D01*
X194521998Y-101221363D01*
X194541600Y-101220400D01*
X194825400Y-101220400D01*
X194825400Y-97909600D01*
X191514600Y-97909600D01*
X191514600Y-101220400D01*
X191798400Y-101220400D01*
X191818002Y-101221363D01*
X191832634Y-101222804D01*
X191871092Y-101230454D01*
X191885161Y-101234722D01*
X191921380Y-101249725D01*
X191934347Y-101256656D01*
X191966947Y-101278438D01*
X191978312Y-101287765D01*
X192006035Y-101315488D01*
X192015362Y-101326853D01*
X192037144Y-101359453D01*
X192044075Y-101372420D01*
X192059078Y-101408639D01*
X192063346Y-101422708D01*
X192070996Y-101461166D01*
X192072437Y-101475798D01*
X192073400Y-101495400D01*
X192073400Y-102460600D01*
X192072437Y-102480202D01*
X192070996Y-102494834D01*
X192063346Y-102533292D01*
X192059078Y-102547361D01*
X192044075Y-102583580D01*
X192037144Y-102596547D01*
X192015362Y-102629147D01*
X192006035Y-102640512D01*
X191978312Y-102668235D01*
X191966947Y-102677562D01*
X191934347Y-102699344D01*
X191921380Y-102706275D01*
X191885161Y-102721278D01*
X191871092Y-102725546D01*
X191832634Y-102733196D01*
X191818002Y-102734637D01*
X191798400Y-102735600D01*
X191290400Y-102735600D01*
X191270798Y-102734637D01*
X191256166Y-102733196D01*
X191217708Y-102725546D01*
X191203639Y-102721278D01*
X191171736Y-102708515D01*
X191161850Y-102703536D01*
X191148914Y-102696411D01*
X190132914Y-102086811D01*
X190116596Y-102075896D01*
X190104791Y-102067132D01*
X190075761Y-102040797D01*
X190065892Y-102029899D01*
X190042548Y-101998395D01*
X190034995Y-101985781D01*
X190018246Y-101950327D01*
X190013299Y-101936481D01*
X190003137Y-101893624D01*
X190000898Y-101875434D01*
X189999400Y-101851000D01*
X189999400Y-97279000D01*
X190000363Y-97259398D01*
X190001804Y-97244766D01*
X190009454Y-97206308D01*
X190013722Y-97192239D01*
X190028725Y-97156020D01*
X190035656Y-97143053D01*
X190057438Y-97110453D01*
X190066765Y-97099088D01*
X190098285Y-97068325D01*
X190112731Y-97057046D01*
X190132914Y-97043189D01*
X191148914Y-96433589D01*
X191166221Y-96424328D01*
X191179509Y-96418036D01*
X191216415Y-96404812D01*
X191230675Y-96401233D01*
X191264599Y-96395763D01*
X191275638Y-96394946D01*
X191290400Y-96394400D01*
X195100400Y-96394400D01*
X195120002Y-96395363D01*
X195134634Y-96396804D01*
X195173092Y-96404454D01*
X195187161Y-96408722D01*
X195217662Y-96420785D01*
X195226539Y-96425169D01*
X195238185Y-96431408D01*
X196203385Y-96990208D01*
X196219870Y-97000865D01*
X196231810Y-97009443D01*
X196261253Y-97035326D01*
X196271291Y-97046069D01*
X196295124Y-97077205D01*
X196302873Y-97089700D01*
X196320167Y-97124875D01*
X196325330Y-97138641D01*
X196336373Y-97182893D01*
X196338905Y-97202218D01*
X196340600Y-97228200D01*
X196340600Y-101851000D01*
X196339637Y-101870602D01*
X196339637Y-101870602D01*
G37*
M02*
