G04 #@! TF.GenerationSoftware,KiCad,Pcbnew,(5.1.4)-1*
G04 #@! TF.CreationDate,2020-12-27T20:28:09-07:00*
G04 #@! TF.ProjectId,ufc_v4_controller,7566635f-7634-45f6-936f-6e74726f6c6c,rev?*
G04 #@! TF.SameCoordinates,Original*
G04 #@! TF.FileFunction,Soldermask,Bot*
G04 #@! TF.FilePolarity,Negative*
%FSLAX46Y46*%
G04 Gerber Fmt 4.6, Leading zero omitted, Abs format (unit mm)*
G04 Created by KiCad (PCBNEW (5.1.4)-1) date 2020-12-27 20:28:09*
%MOMM*%
%LPD*%
G04 APERTURE LIST*
%ADD10C,4.300000*%
%ADD11O,3.300000X2.700000*%
%ADD12C,0.100000*%
%ADD13C,2.700000*%
%ADD14O,1.700000X1.700000*%
%ADD15R,1.700000X1.700000*%
%ADD16C,4.064000*%
%ADD17O,3.700000X2.700000*%
%ADD18C,3.000000*%
G04 APERTURE END LIST*
D10*
X108378000Y-61636000D03*
X197378000Y-61636000D03*
X197378000Y-135716000D03*
D11*
X131738000Y-130946000D03*
X131738000Y-126746000D03*
X126238000Y-130946000D03*
D12*
G36*
X127662503Y-125397204D02*
G01*
X127686772Y-125400804D01*
X127710570Y-125406765D01*
X127733670Y-125415030D01*
X127755849Y-125425520D01*
X127776892Y-125438133D01*
X127796598Y-125452748D01*
X127814776Y-125469224D01*
X127831252Y-125487402D01*
X127845867Y-125507108D01*
X127858480Y-125528151D01*
X127868970Y-125550330D01*
X127877235Y-125573430D01*
X127883196Y-125597228D01*
X127886796Y-125621497D01*
X127888000Y-125646001D01*
X127888000Y-127845999D01*
X127886796Y-127870503D01*
X127883196Y-127894772D01*
X127877235Y-127918570D01*
X127868970Y-127941670D01*
X127858480Y-127963849D01*
X127845867Y-127984892D01*
X127831252Y-128004598D01*
X127814776Y-128022776D01*
X127796598Y-128039252D01*
X127776892Y-128053867D01*
X127755849Y-128066480D01*
X127733670Y-128076970D01*
X127710570Y-128085235D01*
X127686772Y-128091196D01*
X127662503Y-128094796D01*
X127637999Y-128096000D01*
X124838001Y-128096000D01*
X124813497Y-128094796D01*
X124789228Y-128091196D01*
X124765430Y-128085235D01*
X124742330Y-128076970D01*
X124720151Y-128066480D01*
X124699108Y-128053867D01*
X124679402Y-128039252D01*
X124661224Y-128022776D01*
X124644748Y-128004598D01*
X124630133Y-127984892D01*
X124617520Y-127963849D01*
X124607030Y-127941670D01*
X124598765Y-127918570D01*
X124592804Y-127894772D01*
X124589204Y-127870503D01*
X124588000Y-127845999D01*
X124588000Y-125646001D01*
X124589204Y-125621497D01*
X124592804Y-125597228D01*
X124598765Y-125573430D01*
X124607030Y-125550330D01*
X124617520Y-125528151D01*
X124630133Y-125507108D01*
X124644748Y-125487402D01*
X124661224Y-125469224D01*
X124679402Y-125452748D01*
X124699108Y-125438133D01*
X124720151Y-125425520D01*
X124742330Y-125415030D01*
X124765430Y-125406765D01*
X124789228Y-125400804D01*
X124813497Y-125397204D01*
X124838001Y-125396000D01*
X127637999Y-125396000D01*
X127662503Y-125397204D01*
X127662503Y-125397204D01*
G37*
D13*
X126238000Y-126746000D03*
D14*
X156718000Y-129286000D03*
X156718000Y-126746000D03*
X154178000Y-129286000D03*
X154178000Y-126746000D03*
X151638000Y-129286000D03*
X151638000Y-126746000D03*
X149098000Y-129286000D03*
X149098000Y-126746000D03*
X146558000Y-129286000D03*
X146558000Y-126746000D03*
X144018000Y-129286000D03*
X144018000Y-126746000D03*
X141478000Y-129286000D03*
X141478000Y-126746000D03*
X138938000Y-129286000D03*
D15*
X138938000Y-126746000D03*
X122174000Y-70866000D03*
D14*
X124714000Y-70866000D03*
X127254000Y-70866000D03*
X129794000Y-70866000D03*
X132334000Y-70866000D03*
X134874000Y-70866000D03*
X137414000Y-70866000D03*
X139954000Y-70866000D03*
X142494000Y-70866000D03*
X145034000Y-70866000D03*
X166878000Y-70866000D03*
X164338000Y-70866000D03*
X161798000Y-70866000D03*
X159258000Y-70866000D03*
X156718000Y-70866000D03*
X154178000Y-70866000D03*
X151638000Y-70866000D03*
D15*
X149098000Y-70866000D03*
X197358000Y-114046000D03*
D14*
X199898000Y-114046000D03*
X197358000Y-111506000D03*
X199898000Y-111506000D03*
X197358000Y-108966000D03*
X199898000Y-108966000D03*
X197358000Y-106426000D03*
X199898000Y-106426000D03*
X197358000Y-103886000D03*
X199898000Y-103886000D03*
X197358000Y-101346000D03*
X199898000Y-101346000D03*
X197358000Y-98806000D03*
X199898000Y-98806000D03*
X197358000Y-96266000D03*
X199898000Y-96266000D03*
X197358000Y-93726000D03*
X199898000Y-93726000D03*
X197358000Y-91186000D03*
X199898000Y-91186000D03*
X197358000Y-88646000D03*
X199898000Y-88646000D03*
X197358000Y-86106000D03*
X199898000Y-86106000D03*
X197358000Y-83566000D03*
X199898000Y-83566000D03*
X197358000Y-81026000D03*
X199898000Y-81026000D03*
X197358000Y-78486000D03*
X199898000Y-78486000D03*
X197358000Y-75946000D03*
X199898000Y-75946000D03*
X197358000Y-73406000D03*
X199898000Y-73406000D03*
X197358000Y-70866000D03*
X199898000Y-70866000D03*
D16*
X199898000Y-119126000D03*
X118618000Y-70866000D03*
D15*
X131318000Y-119126000D03*
D14*
X133858000Y-119126000D03*
X136398000Y-119126000D03*
X138938000Y-119126000D03*
X141478000Y-119126000D03*
X144018000Y-119126000D03*
X146558000Y-119126000D03*
X149098000Y-119126000D03*
D15*
X154178000Y-119126000D03*
D14*
X156718000Y-119126000D03*
X159258000Y-119126000D03*
X161798000Y-119126000D03*
X164338000Y-119126000D03*
X166878000Y-119126000D03*
X169418000Y-119126000D03*
X171958000Y-119126000D03*
D15*
X177038000Y-119126000D03*
D14*
X179578000Y-119126000D03*
X182118000Y-119126000D03*
X184658000Y-119126000D03*
X187198000Y-119126000D03*
X189738000Y-119126000D03*
X192278000Y-119126000D03*
X194818000Y-119126000D03*
D12*
G36*
X115162503Y-122857204D02*
G01*
X115186772Y-122860804D01*
X115210570Y-122866765D01*
X115233670Y-122875030D01*
X115255849Y-122885520D01*
X115276892Y-122898133D01*
X115296598Y-122912748D01*
X115314776Y-122929224D01*
X115331252Y-122947402D01*
X115345867Y-122967108D01*
X115358480Y-122988151D01*
X115368970Y-123010330D01*
X115377235Y-123033430D01*
X115383196Y-123057228D01*
X115386796Y-123081497D01*
X115388000Y-123106001D01*
X115388000Y-125305999D01*
X115386796Y-125330503D01*
X115383196Y-125354772D01*
X115377235Y-125378570D01*
X115368970Y-125401670D01*
X115358480Y-125423849D01*
X115345867Y-125444892D01*
X115331252Y-125464598D01*
X115314776Y-125482776D01*
X115296598Y-125499252D01*
X115276892Y-125513867D01*
X115255849Y-125526480D01*
X115233670Y-125536970D01*
X115210570Y-125545235D01*
X115186772Y-125551196D01*
X115162503Y-125554796D01*
X115137999Y-125556000D01*
X111938001Y-125556000D01*
X111913497Y-125554796D01*
X111889228Y-125551196D01*
X111865430Y-125545235D01*
X111842330Y-125536970D01*
X111820151Y-125526480D01*
X111799108Y-125513867D01*
X111779402Y-125499252D01*
X111761224Y-125482776D01*
X111744748Y-125464598D01*
X111730133Y-125444892D01*
X111717520Y-125423849D01*
X111707030Y-125401670D01*
X111698765Y-125378570D01*
X111692804Y-125354772D01*
X111689204Y-125330503D01*
X111688000Y-125305999D01*
X111688000Y-123106001D01*
X111689204Y-123081497D01*
X111692804Y-123057228D01*
X111698765Y-123033430D01*
X111707030Y-123010330D01*
X111717520Y-122988151D01*
X111730133Y-122967108D01*
X111744748Y-122947402D01*
X111761224Y-122929224D01*
X111779402Y-122912748D01*
X111799108Y-122898133D01*
X111820151Y-122885520D01*
X111842330Y-122875030D01*
X111865430Y-122866765D01*
X111889228Y-122860804D01*
X111913497Y-122857204D01*
X111938001Y-122856000D01*
X115137999Y-122856000D01*
X115162503Y-122857204D01*
X115162503Y-122857204D01*
G37*
D13*
X113538000Y-124206000D03*
D17*
X113538000Y-128406000D03*
X113538000Y-132606000D03*
X113538000Y-136806000D03*
X119038000Y-124206000D03*
X119038000Y-128406000D03*
X119038000Y-132606000D03*
X119038000Y-136806000D03*
D18*
X106238000Y-124206000D03*
X106238000Y-136806000D03*
D14*
X161798000Y-63246000D03*
X161798000Y-60706000D03*
X159258000Y-63246000D03*
X159258000Y-60706000D03*
X156718000Y-63246000D03*
X156718000Y-60706000D03*
X154178000Y-63246000D03*
X154178000Y-60706000D03*
X151638000Y-63246000D03*
X151638000Y-60706000D03*
X149098000Y-63246000D03*
X149098000Y-60706000D03*
X146558000Y-63246000D03*
D15*
X146558000Y-60706000D03*
X169418000Y-126746000D03*
D14*
X169418000Y-129286000D03*
X171958000Y-126746000D03*
X171958000Y-129286000D03*
X174498000Y-126746000D03*
X174498000Y-129286000D03*
X177038000Y-126746000D03*
X177038000Y-129286000D03*
X179578000Y-126746000D03*
X179578000Y-129286000D03*
X182118000Y-126746000D03*
X182118000Y-129286000D03*
X184658000Y-126746000D03*
X184658000Y-129286000D03*
D15*
X126238000Y-77216000D03*
D14*
X126238000Y-79756000D03*
X126238000Y-82296000D03*
X126238000Y-84836000D03*
D15*
X187198000Y-63246000D03*
D14*
X187198000Y-60706000D03*
X184658000Y-63246000D03*
X184658000Y-60706000D03*
X182118000Y-63246000D03*
X182118000Y-60706000D03*
X179578000Y-63246000D03*
X179578000Y-60706000D03*
X177038000Y-63246000D03*
X177038000Y-60706000D03*
X174498000Y-63246000D03*
X174498000Y-60706000D03*
X171958000Y-63246000D03*
X171958000Y-60706000D03*
X169418000Y-63246000D03*
X169418000Y-60706000D03*
M02*
