<?xml version="1.0" encoding="utf-8"?>
<!-- Generator: Fusion 360, Shaper Origin Export Add-In, Version 1.6.10  -->
<svg xmlns="http://www.w3.org/2000/svg" xmlns:xlink="http://www.w3.org/1999/xlink" xmlns:shaper="http://www.shapertools.com/namespaces/shaper" shaper:fusionaddin="version:1.6.10" width="1.7680391cm" height="0.8255cm" version="1.1" x="0cm" y="0cm" viewBox="0 0 1.7680391 0.8255" enable-background="new 0 0 1.7680391 0.8255" xml:space="preserve"><path d="M-0.0334285,-0.1552786 L0.3361958,-0.2476847 0.4132009,0.0603355 0.0435766,0.1527416 A0.41275,0.41275 8.5836215 1,1 -0.0334285,-0.1552786z" transform="matrix(1,0,0,-1,0.7773002,0.5038876)" fill="rgb(0,0,0)" stroke-linecap="round" stroke-linejoin="round" /><path d="M0.4132009,0.0603355 L0.3361958,-0.2476847 0.9907388,-0.2476847 0.4132009,0.0603355z" transform="matrix(1,0,0,-1,0.7773002,0.5038876)" fill="rgb(0,0,0)" stroke-linecap="round" stroke-linejoin="round" /><path d="M0.0597417,-0.0413701 L0.0597417,-0.0413701 0.0555411,-0.0397103 0.0555411,-0.0397103 0.0518985,-0.037605 0.0486658,-0.0349151 0.0460192,-0.0316474 0.0441716,-0.0278704 0.0432022,-0.023778 0.04297,-0.0195769 0.044148,-0.0112585 0.044148,-0.0112585 0.0463417,-0.0054471 0.0501207,-0.0005359 0.0551898,0.0030353 0.0610429,0.0051139 0.0610429,0.0051139 0.0660248,0.005546 0.0710221,0.0051446 0.3110132,-0.0548532 0.3110132,-0.0548532 0.3177519,-0.0577861 0.3207498,-0.0599052 0.3231644,-0.0626808 0.3231644,-0.0626808 0.3256818,-0.0669525 0.3271911,-0.0716764 0.3276602,-0.0766111 0.3271228,-0.0815427 0.3258046,-0.0863238 0.3235741,-0.0907521 0.3204117,-0.0945713 0.316515,-0.0976385 0.316515,-0.0976385 0.3125431,-0.0998053 0.3082712,-0.101266 0.2992411,-0.1012449 0.0597417,-0.0413701z" transform="matrix(1,0,0,-1,0.7773002,0.5038876)" fill="rgb(255,255,255)" stroke="rgb(0,0,0)" stroke-width="0.0010cm" stroke-linecap="round" stroke-linejoin="round" /><path d="M-0.6947502,0.0911376 a0.3302,0.3302 0 1,1 0.6604,0 a0.3302,0.3302 0 1,1 -0.6604,0z" transform="matrix(1,0,0,-1,0.7773002,0.5038876)" fill="rgb(255,255,255)" stroke="rgb(0,0,0)" stroke-width="0.0010cm" stroke-linecap="round" stroke-linejoin="round" /></svg>