<?xml version="1.0" encoding="utf-8"?>
<!-- Generator: Fusion 360, Shaper Origin Export Add-In, Version 1.6.10  -->
<svg xmlns="http://www.w3.org/2000/svg" xmlns:xlink="http://www.w3.org/1999/xlink" xmlns:shaper="http://www.shapertools.com/namespaces/shaper" shaper:fusionaddin="version:1.6.10" width="1.7680391cm" height="0.8255cm" version="1.1" x="0cm" y="0cm" viewBox="0 0 1.7680391 0.8255" enable-background="new 0 0 1.7680391 0.8255" xml:space="preserve"><path d="M0.1617106,-0.2040634 L0.5313349,-0.2964695 0.60834,0.0115508 0.2387157,0.1039568 A0.41275,0.41275 8.5836215 1,1 0.1617106,-0.2040634z" transform="matrix(1,0,0,-1,0.5821611,0.4551028)" fill="rgb(0,0,0)" stroke-linecap="round" stroke-linejoin="round" /><path d="M0.60834,0.0115508 L0.5313349,-0.2964695 1.1858779,-0.2964695 0.60834,0.0115508z" transform="matrix(1,0,0,-1,0.5821611,0.4551028)" fill="rgb(0,0,0)" stroke-linecap="round" stroke-linejoin="round" /><path d="M0.2301378,0.0090522 L0.2301378,0.0090522 0.2316049,0.013247 0.2338404,0.0170864 0.2368104,0.0203911 0.2403811,0.0230362 0.2443899,0.0249534 0.2487038,0.0260173 0.2531445,0.0261482 0.2575343,0.0254553 0.2575343,0.0254553 0.2754333,0.0176277 0.2754333,0.0176277 0.2913232,0.0089322 0.3062504,-0.0013267 0.3201272,-0.0129682 0.3328813,-0.0258315 0.3444286,-0.0397885 0.3546587,-0.0547372 0.3633257,-0.0706434 0.3703273,-0.0873479 0.3703273,-0.0873479 0.3747494,-0.0983734 0.3799464,-0.1090554 0.3921093,-0.129457 0.3921093,-0.129457 0.396748,-0.1351618 0.4024319,-0.1398223 0.4089795,-0.1431577 0.416096,-0.1449977 0.423438,-0.1453217 0.4306394,-0.1438784 0.4372574,-0.1406799 0.4430398,-0.1361371 0.4430398,-0.1361371 0.4488849,-0.1295484 0.451102,-0.1257346 0.4526439,-0.1216025 0.4534306,-0.1172618 0.4535494,-0.1128536 0.4518319,-0.1042166 0.4481054,-0.096239 0.4454396,-0.0927242 0.442258,-0.0896694 0.4347381,-0.0850912 0.4263293,-0.0824506 0.4263293,-0.0824506 0.424188,-0.0821329 0.424188,-0.0821329 0.4204691,-0.0812379 0.4170579,-0.0795023 0.4113811,-0.0743907 0.4091904,-0.071253 0.4076076,-0.0677649 0.4061866,-0.0602588 0.4061866,-0.0602588 0.4064804,-0.0552621 0.4076384,-0.0503949 0.4097883,-0.0458757 0.4127949,-0.0418758 0.4165409,-0.038556 0.4209496,-0.0361944 0.4258137,-0.0350226 0.4308169,-0.035065 0.4308169,-0.035065 0.4417889,-0.0377353 0.4525066,-0.0413148 0.4525066,-0.0413148 0.4600599,-0.0451728 0.467188,-0.049768 0.4737493,-0.0551419 0.4796384,-0.0612446 0.4847334,-0.0680244 0.489025,-0.0753396 0.4925049,-0.0830736 0.4951369,-0.0911368 0.4970258,-0.0994051 0.4980831,-0.1078202 0.4981882,-0.1163008 0.497364,-0.1247415 0.4955772,-0.1330325 0.4929163,-0.1410854 0.4893918,-0.1487995 0.4851899,-0.1561671 0.4851899,-0.1561671 0.4794079,-0.1641371 0.4728609,-0.1714883 0.4655006,-0.1780239 0.4573284,-0.1835112 0.4484697,-0.1877962 0.4390662,-0.1907008 0.4293518,-0.1922861 0.4195158,-0.192653 0.409692,-0.1919452 0.4000191,-0.1900986 0.3906428,-0.1870866 0.3817514,-0.1828536 0.3735419,-0.1774148 0.3660882,-0.1709781 0.3594731,-0.163683 0.3536681,-0.1557265 0.3536681,-0.1557265 0.3448131,-0.1416063 0.3369679,-0.1269059 0.3369679,-0.1269059 0.3317154,-0.1150645 0.327272,-0.1028934 0.3222327,-0.0909662 0.3156982,-0.0797867 0.3156982,-0.0797867 0.3066312,-0.0675375 0.2966554,-0.0560123 0.2856529,-0.0454706 0.2735583,-0.0362023 0.2735583,-0.0362023 0.2664017,-0.0315618 0.2427705,-0.1260862 0.2427705,-0.1260862 0.2390005,-0.1347623 0.2362566,-0.1386287 0.2327759,-0.1418347 0.2286129,-0.1440923 0.2239981,-0.1451464 0.2192624,-0.1450662 0.2146089,-0.1441785 0.2101195,-0.1426635 0.2059537,-0.1404091 0.202393,-0.1372885 0.1997671,-0.1333514 0.1983169,-0.1288447 0.1978991,-0.124125 0.1991861,-0.1147547 0.2301378,0.0090522z" transform="matrix(1,0,0,-1,0.5821611,0.4551028)" fill="rgb(255,255,255)" stroke="rgb(0,0,0)" stroke-width="0.0010cm" stroke-linecap="round" stroke-linejoin="round" /><path d="M-0.3345111,0.0423528 a0.1651,0.1651 0 1,1 0.3302,0 a0.1651,0.1651 0 1,1 -0.3302,0z" transform="matrix(1,0,0,-1,0.5821611,0.4551028)" fill="rgb(255,255,255)" stroke="rgb(0,0,0)" stroke-width="0.0010cm" stroke-linecap="round" stroke-linejoin="round" /></svg>