<?xml version="1.0" encoding="utf-8"?>
<!-- Generator: Fusion 360, Shaper Origin Export Add-In, Version 1.6.10  -->
<svg xmlns="http://www.w3.org/2000/svg" xmlns:xlink="http://www.w3.org/1999/xlink" xmlns:shaper="http://www.shapertools.com/namespaces/shaper" shaper:fusionaddin="version:1.6.10" width="3.28422cm" height="3.28422cm" version="1.1" x="0cm" y="0cm" viewBox="0 0 3.28422 3.28422" enable-background="new 0 0 3.28422 3.28422" xml:space="preserve"><path d="M-1.3545583,0.5895684 a1.64211,1.64211 0 1,1 3.28422,0 a1.64211,1.64211 0 1,1 -3.28422,0z" transform="matrix(1,0,0,-1,1.3545583,2.2316784)" fill="rgb(0,0,0)" shaper:cutDepth="0.0015875" stroke-linecap="round" stroke-linejoin="round" /><path d="M-0.2914455,1.8346305 L-0.3371042,1.8123612 -0.1979214,1.5269941 -0.1522626,1.5492633 -0.2914455,1.8346305z" transform="matrix(1,0,0,-1,1.3545583,2.2316784)" fill="rgb(104,104,104)" fill-rule="nonzero" shaper:cutDepth="0.0000762" stroke-linecap="round" stroke-linejoin="round" /><path d="M0.6443246,1.9155135 L0.5950335,1.9278032 0.5182233,1.6197343 0.5675144,1.6074446 0.6443246,1.9155135z" transform="matrix(1,0,0,-1,1.3545583,2.2316784)" fill="rgb(104,104,104)" fill-rule="nonzero" shaper:cutDepth="0.0000762" stroke-linecap="round" stroke-linejoin="round" /><path d="M1.6357022,0.8501592 L1.6251403,0.8998491 1.3145784,0.8338372 1.3251403,0.7841473 1.6357022,0.8501592z" transform="matrix(1,0,0,-1,1.3545583,2.2316784)" fill="rgb(104,104,104)" fill-rule="nonzero" shaper:cutDepth="0.0000762" stroke-linecap="round" stroke-linejoin="round" /><path d="M1.1127594,-0.5079057 L1.1527904,-0.4766301 0.9573179,-0.2264367 0.9172869,-0.2577123 1.1127594,-0.5079057z" transform="matrix(1,0,0,-1,1.3545583,2.2316784)" fill="rgb(104,104,104)" fill-rule="nonzero" shaper:cutDepth="0.0000762" stroke-linecap="round" stroke-linejoin="round" /><path d="M-0.1979214,-0.3478572 L-0.1522626,-0.3701265 -0.2467957,-0.563948 A1.27127,1.27127 245.144847 0,1 -0.0150938,-0.6451514 L-0.0035081,-0.5957553 0.0212208,-0.6015555 0.0096351,-0.6509515 A1.27127,1.27127 257.3723949 0,1 0.2659774,-0.6815185 L0.2663316,-0.6307831 0.291731,-0.6309605 0.2906671,-0.7833568 0.2652677,-0.7831794 0.2652681,-0.7831207 A1.37287,1.37287 269.0699667 0,0 -0.0135664,-0.7498717 L-0.0135799,-0.7499289 -0.0383088,-0.7441288 -0.0382954,-0.7440716 A1.37287,1.37287 256.2699667 0,0 -0.2913425,-0.6552824 L-0.2914455,-0.6554936 -0.3371042,-0.6332243 -0.3370012,-0.6330131 A1.37287,1.37287 242.9398881 0,0 -0.5627594,-0.4882734 L-0.5627962,-0.4883191 -0.5825914,-0.4724034 -0.5825546,-0.4723576 A1.37287,1.37287 230.6699667 0,0 -0.6865966,-0.3778027 L-0.6145042,-0.3062119 A1.27127,1.27127 224.8 0,1 -0.5188887,-0.3931732 L-0.487097,-0.3536323 -0.4673018,-0.369548 -0.4990935,-0.409089 A1.27127,1.27127 231.7723949 0,1 -0.2924545,-0.5416787 L-0.1979214,-0.3478572z" transform="matrix(1,0,0,-1,1.3545583,2.2316784)" fill="rgb(104,104,104)" fill-rule="nonzero" shaper:cutDepth="0.0000762" stroke-linecap="round" stroke-linejoin="round" /><path d="M-1.0853183,0.6149684 L-1.0853183,0.5641684 -0.7678183,0.5641684 -0.7678183,0.6149684 -1.0853183,0.6149684z" transform="matrix(1,0,0,-1,1.3545583,2.2316784)" fill="rgb(104,104,104)" fill-rule="nonzero" shaper:cutDepth="0.0000762" stroke-linecap="round" stroke-linejoin="round" /><path d="M0.9178838,1.8092466 L0.8952122,1.8206989 0.8264984,1.6846688 0.8491701,1.6732165 0.9178838,1.8092466z" transform="matrix(1,0,0,-1,1.3545583,2.2316784)" fill="rgb(104,104,104)" fill-rule="nonzero" shaper:cutDepth="0.0000762" stroke-linecap="round" stroke-linejoin="round" /><path d="M1.1724375,1.6392877 L1.1528665,1.6554782 1.0557231,1.538052 1.0752941,1.5218615 1.1724375,1.6392877z" transform="matrix(1,0,0,-1,1.3545583,2.2316784)" fill="rgb(104,104,104)" fill-rule="nonzero" shaper:cutDepth="0.0000762" stroke-linecap="round" stroke-linejoin="round" /><path d="M1.3830113,1.4171564 L1.3675136,1.4372805 1.2467686,1.3442944 1.2622663,1.3241702 1.3830113,1.4171564z" transform="matrix(1,0,0,-1,1.3545583,2.2316784)" fill="rgb(104,104,104)" fill-rule="nonzero" shaper:cutDepth="0.0000762" stroke-linecap="round" stroke-linejoin="round" /><path d="M1.5391393,1.1538929 L1.5284852,1.1769504 1.3901399,1.1130259 1.400794,1.0899684 1.5391393,1.1538929z" transform="matrix(1,0,0,-1,1.3545583,2.2316784)" fill="rgb(104,104,104)" fill-rule="nonzero" shaper:cutDepth="0.0000762" stroke-linecap="round" stroke-linejoin="round" /><path d="M1.6601106,0.5577014 L1.6604652,0.583099 1.5080801,0.5852268 1.5077255,0.5598293 1.6601106,0.5577014z" transform="matrix(1,0,0,-1,1.3545583,2.2316784)" fill="rgb(104,104,104)" fill-rule="nonzero" shaper:cutDepth="0.0000762" stroke-linecap="round" stroke-linejoin="round" /><path d="M1.6189415,0.254405 L1.6249141,0.2790928 1.4767873,0.3149285 1.4708147,0.2902406 1.6189415,0.254405z" transform="matrix(1,0,0,-1,1.3545583,2.2316784)" fill="rgb(104,104,104)" fill-rule="nonzero" shaper:cutDepth="0.0000762" stroke-linecap="round" stroke-linejoin="round" /><path d="M1.5116007,-0.0322334 L1.5228944,-0.0094823 1.3863879,0.0582801 1.3750942,0.035529 1.5116007,-0.0322334z" transform="matrix(1,0,0,-1,1.3545583,2.2316784)" fill="rgb(104,104,104)" fill-rule="nonzero" shaper:cutDepth="0.0000762" stroke-linecap="round" stroke-linejoin="round" /><path d="M1.343423,-0.2879674 L1.3594766,-0.2682838 1.241375,-0.1719626 1.2253215,-0.1916461 1.343423,-0.2879674z" transform="matrix(1,0,0,-1,1.3545583,2.2316784)" fill="rgb(104,104,104)" fill-rule="nonzero" shaper:cutDepth="0.0000762" stroke-linecap="round" stroke-linejoin="round" /><path d="M0.8606001,-0.6580489 L0.8835827,-0.6472341 0.8186939,-0.5093384 0.7957113,-0.5201532 0.8606001,-0.6580489z" transform="matrix(1,0,0,-1,1.3545583,2.2316784)" fill="rgb(104,104,104)" fill-rule="nonzero" shaper:cutDepth="0.0000762" stroke-linecap="round" stroke-linejoin="round" /><path d="M0.5699517,-0.7540028 L0.5947592,-0.7485485 0.5620335,-0.5997036 0.537226,-0.6051579 0.5699517,-0.7540028z" transform="matrix(1,0,0,-1,1.3545583,2.2316784)" fill="rgb(104,104,104)" fill-rule="nonzero" shaper:cutDepth="0.0000762" stroke-linecap="round" stroke-linejoin="round" /><path d="M-0.7962461,-0.2532338 L-0.7804689,-0.2731396 -0.661034,-0.1784767 -0.6768112,-0.1585709 -0.7962461,-0.2532338z" transform="matrix(1,0,0,-1,1.3545583,2.2316784)" fill="rgb(104,104,104)" fill-rule="nonzero" shaper:cutDepth="0.0000762" stroke-linecap="round" stroke-linejoin="round" /><path d="M-0.9560346,0.0078242 L-0.9450596,-0.0150824 -0.8076203,0.0507675 -0.8185953,0.073674 -0.9560346,0.0078242z" transform="matrix(1,0,0,-1,1.3545583,2.2316784)" fill="rgb(104,104,104)" fill-rule="nonzero" shaper:cutDepth="0.0000762" stroke-linecap="round" stroke-linejoin="round" /><path d="M-1.0540152,0.2977956 L-1.0483879,0.2730268 -0.8997751,0.3067908 -0.9054025,0.3315596 -1.0540152,0.2977956z" transform="matrix(1,0,0,-1,1.3545583,2.2316784)" fill="rgb(104,104,104)" fill-rule="nonzero" shaper:cutDepth="0.0000762" stroke-linecap="round" stroke-linejoin="round" /><path d="M-1.0483879,0.9061101 L-1.0540152,0.8813413 -0.9054025,0.8475773 -0.8997751,0.8723461 -1.0483879,0.9061101z" transform="matrix(1,0,0,-1,1.3545583,2.2316784)" fill="rgb(104,104,104)" fill-rule="nonzero" shaper:cutDepth="0.0000762" stroke-linecap="round" stroke-linejoin="round" /><path d="M-0.9450596,1.1942193 L-0.9560346,1.1713127 -0.8185953,1.1054629 -0.8076203,1.1283694 -0.9450596,1.1942193z" transform="matrix(1,0,0,-1,1.3545583,2.2316784)" fill="rgb(104,104,104)" fill-rule="nonzero" shaper:cutDepth="0.0000762" stroke-linecap="round" stroke-linejoin="round" /><path d="M-0.7804689,1.4522765 L-0.7962461,1.4323707 -0.6768112,1.3377078 -0.661034,1.3576136 -0.7804689,1.4522765z" transform="matrix(1,0,0,-1,1.3545583,2.2316784)" fill="rgb(104,104,104)" fill-rule="nonzero" shaper:cutDepth="0.0000762" stroke-linecap="round" stroke-linejoin="round" /><path d="M-0.5627962,1.667456 L-0.5825914,1.6515403 -0.487097,1.5327692 -0.4673018,1.5486849 -0.5627962,1.667456z" transform="matrix(1,0,0,-1,1.3545583,2.2316784)" fill="rgb(104,104,104)" fill-rule="nonzero" shaper:cutDepth="0.0000762" stroke-linecap="round" stroke-linejoin="round" /><path d="M0.4273421,1.5317843 L0.4273421,1.5317843 0.4322805,1.5404467 0.4381975,1.5484737 0.4449133,1.5558439 0.4523711,1.5624639 0.4603845,1.5683988 0.4689213,1.5735522 0.4779801,1.5777203 0.4874203,1.5809317 0.4874203,1.5809317 0.5020301,1.5828367 0.5167687,1.5829465 0.5314363,1.5815428 0.5459184,1.5788125 0.5601601,1.5750199 0.5741335,1.5703372 0.5877963,1.5648126 0.6012188,1.5587267 0.6012188,1.5587267 0.6151185,1.5515168 0.6286469,1.543636 0.6416198,1.5348659 0.6538711,1.5251166 0.6651567,1.5142632 0.67516,1.5022225 0.6835044,1.4889732 0.6898488,1.4746641 0.6898488,1.4746641 0.6919791,1.4661347 0.6933208,1.4574461 0.6938514,1.4486705 0.6936884,1.4398802 0.6928181,1.4311317 0.6912112,1.4224882 0.6887339,1.4140529 0.6854319,1.4059055 0.6854319,1.4059055 0.6807223,1.3977925 0.6750892,1.3902884 0.6687847,1.3833419 0.6618474,1.3770245 0.6544241,1.3712865 0.6465171,1.3662381 0.6381922,1.3619097 0.6294398,1.3585334 0.6294398,1.3585334 0.6143497,1.3557219 0.5990028,1.3550859 0.5836877,1.3561477 0.5685543,1.3587569 0.5536947,1.3626306 0.5391277,1.3674951 0.5248906,1.3732472 0.5109423,1.379673 0.5109423,1.379673 0.499379,1.3856982 0.4881316,1.3922906 0.4772155,1.3994237 0.4667244,1.4071625 0.4567114,1.4155166 0.4473442,1.4245811 0.4387339,1.4343755 0.4311998,1.4450128 0.4311998,1.4450128 0.4261159,1.4550792 0.4223733,1.4657177 0.4199343,1.4767281 0.418831,1.4879519 0.4189466,1.4992293 0.4203516,1.5104186 0.4231666,1.5213392 0.4272972,1.5318326 0.4273421,1.5317843z M0.5882101,1.526155 L0.5882101,1.526155 0.5718863,1.5334482 0.5550598,1.5394899 0.53777,1.5440319 0.5289585,1.5455406 0.5200635,1.5464549 0.5111265,1.5466411 0.5022094,1.5459885 0.4934157,1.5443824 0.4849304,1.5415756 0.4770014,1.5374537 0.4699518,1.5319659 0.4640542,1.5252508 0.4593094,1.5176766 0.4593469,1.5176133 0.4593469,1.5176133 0.4571235,1.5122768 0.4555787,1.5067042 0.4545936,1.5010078 0.4542426,1.495236 0.4551041,1.4837145 0.4581387,1.4725717 0.4581387,1.4725717 0.4632647,1.4622246 0.4699187,1.4527797 0.4776687,1.4442142 0.4862129,1.4364397 0.4953399,1.4293554 0.5049139,1.4228899 0.5251403,1.4117332 0.5251403,1.4117332 0.5479832,1.4017213 0.5597817,1.3976706 0.5718192,1.3944006 0.5840869,1.3921454 0.5965205,1.3911973 0.6089821,1.3918127 0.6211532,1.394503 0.6211532,1.394503 0.6311195,1.3987489 0.6401385,1.4047565 0.6479619,1.4122481 0.6512385,1.4165693 0.6539939,1.4212388 0.6539939,1.4212388 0.6561825,1.4267405 0.6575669,1.4325011 0.6583392,1.4383718 0.6584634,1.4442936 0.6571506,1.4560574 0.6538414,1.4674237 0.6538414,1.4674237 0.6488716,1.4775119 0.6423668,1.486701 0.6348316,1.4950518 0.6264243,1.5025341 0.6174178,1.5092802 0.6079857,1.5154204 0.5882101,1.526155z" transform="matrix(1,0,0,-1,1.3545583,2.2316784)" fill="rgb(104,104,104)" fill-rule="nonzero" shaper:cutDepth="0.0000762" stroke-linecap="round" stroke-linejoin="round" /><path d="M1.4545994,0.6534661 L1.2345118,0.76081 1.2345118,0.76081 1.227989,0.763288 1.2245456,0.7638909 1.2210565,0.7638364 1.2176861,0.7629171 1.2147799,0.7609929 1.2124494,0.7583925 1.2107649,0.7553319 1.2107649,0.7553319 1.2094633,0.7515621 1.2090796,0.7475933 1.2096621,0.7436499 1.2110547,0.7399118 1.2110547,0.7399118 1.2132817,0.7373673 1.2160663,0.7354359 1.2220637,0.7322813 1.4409763,0.625579 1.4409763,0.625579 1.4459085,0.6231895 1.4484784,0.6222426 1.4511927,0.621898 1.4511927,0.621898 1.4555691,0.6225573 1.4595349,0.6245467 1.4628192,0.6275166 1.4653123,0.6311809 1.4653123,0.6311809 1.4666139,0.6349495 1.4669984,0.6389158 1.4665618,0.6428843 1.4649956,0.6465457 1.4649956,0.6465457 1.4601632,0.6505394 1.4545994,0.6534661z" transform="matrix(1,0,0,-1,1.3545583,2.2316784)" fill="rgb(104,104,104)" fill-rule="nonzero" shaper:cutDepth="0.0000762" stroke-linecap="round" stroke-linejoin="round" /><path d="M1.0873298,-0.0640077 L1.0873298,-0.0640077 1.091314,-0.0577482 1.0938701,-0.0550409 1.0969222,-0.0529299 1.1004277,-0.0516965 1.1041338,-0.0514478 1.1077924,-0.0520981 1.1112687,-0.0534161 1.1112687,-0.0534161 1.1158488,-0.0566563 1.1193484,-0.0610408 1.1213715,-0.0662558 1.1215305,-0.0718501 1.1215305,-0.0718501 1.1169601,-0.083047 1.0681786,-0.183064 1.0681786,-0.183064 1.0640208,-0.1908376 1.0585102,-0.1977045 1.0547923,-0.2000664 1.0504587,-0.2007641 1.0461186,-0.1999894 1.0420544,-0.1982764 1.0420544,-0.1982764 1.0357036,-0.1945682 1.029728,-0.1902719 1.0184656,-0.1808062 1.0078758,-0.1705924 0.9979664,-0.159713 0.9979664,-0.159713 0.988265,-0.1472368 0.9795342,-0.1340637 0.9719509,-0.1201982 0.9655312,-0.1057575 0.9604409,-0.090796 0.9565825,-0.07547 0.953878,-0.0598996 0.9521554,-0.0441893 0.9521554,-0.0441893 0.9502454,-0.0312044 0.9483536,-0.0249151 0.945652,-0.0189286 0.941947,-0.0135106 0.9373992,-0.0087736 0.9320856,-0.0049153 0.9263437,-0.0017276 0.9263437,-0.0017276 0.9182084,0.0013153 0.9096728,0.0028975 0.9009881,0.0028355 0.8924969,0.0010229 0.8844936,-0.0023473 0.8773056,-0.0072171 0.8713529,-0.0135374 0.8667133,-0.0208784 0.8667133,-0.0208784 0.8645974,-0.0260758 0.8632116,-0.0315138 0.862559,-0.0370869 0.8626231,-0.0426988 0.8633862,-0.0482574 0.8649167,-0.0536577 0.8669795,-0.0588751 0.8696978,-0.0637855 0.8696978,-0.0637855 0.8731306,-0.0686102 0.8772091,-0.0728944 0.8817896,-0.0766573 0.8869561,-0.0795341 0.8869561,-0.0795341 0.8898602,-0.0804633 0.8921818,-0.0816032 0.8921818,-0.0816032 0.8982569,-0.085729 0.9007413,-0.0884361 0.9026602,-0.0915741 0.9037185,-0.0950906 0.903903,-0.0987608 0.9019499,-0.1058256 0.9019499,-0.1058256 0.8988688,-0.1101043 0.8947331,-0.1133683 0.8898666,-0.1154126 0.8846148,-0.1158012 0.8846148,-0.1158012 0.8779814,-0.1137668 0.8716498,-0.1109166 0.8716498,-0.1109166 0.8649307,-0.1070782 0.8585848,-0.1026522 0.8526484,-0.0976881 0.847243,-0.0921522 0.8424119,-0.0861081 0.8382108,-0.0796103 0.8347413,-0.0726943 0.8319203,-0.065489 0.8297854,-0.0580518 0.8283116,-0.0504556 0.8276287,-0.0427484 0.8276988,-0.0350112 0.8285812,-0.027324 0.8301645,-0.0197504 0.8354374,-0.005213 0.8354374,-0.005213 0.8393116,0.0015459 0.8437006,0.0079822 0.848732,0.0139296 0.8543328,0.0193443 0.8604763,0.024134 0.8670987,0.0282366 0.8740987,0.0316549 0.8814044,0.03436 0.8889331,0.0363622 0.8966174,0.037642 0.9043918,0.0381408 0.9121759,0.0378376 0.9198898,0.0367464 0.9274711,0.0349533 0.9420644,0.0295214 0.9420644,0.0295214 0.9494079,0.0254923 0.9563109,0.0207493 0.9626751,0.0153038 0.9684528,0.0092398 0.9735344,0.0025818 0.9778612,-0.0045895 0.9813861,-0.0121873 0.9840311,-0.0201345 0.9840311,-0.0201345 0.9866029,-0.0313318 0.9878621,-0.042763 0.9878621,-0.042763 0.9896588,-0.0587166 0.9929353,-0.0744312 0.9976779,-0.089769 1.0039441,-0.1045484 1.0117049,-0.118601 1.0209418,-0.1317312 1.0313529,-0.1439501 1.0428986,-0.1551051 1.0873298,-0.0640077z" transform="matrix(1,0,0,-1,1.3545583,2.2316784)" fill="rgb(104,104,104)" fill-rule="nonzero" shaper:cutDepth="0.0000762" stroke-linecap="round" stroke-linejoin="round" /><path d="M-0.1653109,-0.19814 L-0.187584,-0.1332935 -0.187584,-0.1332935 -0.1920963,-0.1235425 -0.1953327,-0.119215 -0.1997198,-0.1161315 -0.1997198,-0.1161315 -0.2050468,-0.114499 -0.2106193,-0.1145648 -0.215912,-0.1163162 -0.2203127,-0.1197222 -0.2203127,-0.1197222 -0.2246492,-0.1263036 -0.2281927,-0.1333501 -0.2734018,-0.225902 -0.2734018,-0.225902 -0.276553,-0.2334635 -0.2774689,-0.2374533 -0.2777013,-0.2415506 -0.2768741,-0.2455499 -0.2748564,-0.2491149 -0.2718502,-0.2518922 -0.2683149,-0.2539627 -0.2683149,-0.2539627 -0.2641661,-0.2556383 -0.259748,-0.2563323 -0.2553474,-0.2556038 -0.2514829,-0.2533587 -0.2483294,-0.250186 -0.2456767,-0.2465784 -0.2413645,-0.2387421 -0.2105826,-0.1755584 -0.1855364,-0.2483928 -0.1855364,-0.2483928 -0.1816929,-0.2576093 -0.1788335,-0.2617131 -0.1747632,-0.2645798 -0.1747632,-0.2645798 -0.1714478,-0.2656312 -0.1679678,-0.265609 -0.1646278,-0.264654 -0.161615,-0.2629078 -0.161615,-0.2629078 -0.157861,-0.2593542 -0.1550858,-0.254962 -0.150355,-0.2457213 -0.150355,-0.2457213 -0.1402913,-0.2264 -0.1343253,-0.2172834 -0.126863,-0.2093557 -0.126863,-0.2093557 -0.1193091,-0.2036876 -0.110951,-0.1992896 -0.1020295,-0.196195 -0.0927368,-0.1945039 -0.0833017,-0.1940956 -0.0739033,-0.1950316 -0.0647427,-0.1973256 -0.0559737,-0.2008349 -0.0559737,-0.2008349 -0.0453062,-0.2074961 -0.0404137,-0.211458 -0.0359934,-0.2159368 -0.0320041,-0.2208063 -0.0286297,-0.2261187 -0.0257245,-0.2317024 -0.0234321,-0.2375643 -0.0205446,-0.2498044 -0.0200306,-0.2560774 -0.0201875,-0.2623695 -0.0210006,-0.2686106 -0.0224167,-0.2747441 -0.0267334,-0.2865573 -0.0267334,-0.2865573 -0.0320362,-0.2956378 -0.0386991,-0.3037711 -0.0466912,-0.3105995 -0.0558362,-0.3157853 -0.0657506,-0.3192882 -0.0760793,-0.3212592 -0.0865803,-0.3218068 -0.097088,-0.3213746 -0.097088,-0.3213746 -0.1022682,-0.3213174 -0.1072757,-0.3226169 -0.1114022,-0.3257354 -0.1142153,-0.3300813 -0.1142153,-0.3300813 -0.1161448,-0.3368128 -0.1162097,-0.3403268 -0.1155951,-0.3437839 -0.1143968,-0.3470887 -0.1124796,-0.3500294 -0.1099825,-0.3525001 -0.107035,-0.3544119 -0.107035,-0.3544119 -0.0991404,-0.3568498 -0.0908924,-0.3575576 -0.0908924,-0.3575576 -0.0762691,-0.3573554 -0.0618087,-0.3551843 -0.0478152,-0.3509517 -0.0346331,-0.3446302 -0.0225537,-0.336392 -0.0119001,-0.3263828 -0.002825,-0.3149236 0.0045156,-0.3022781 0.0045156,-0.3022781 0.0082476,-0.2932348 0.0112775,-0.2839334 0.0134398,-0.2743926 0.0147241,-0.2646945 0.0149957,-0.2549158 0.0142097,-0.2451652 0.0124722,-0.2355382 0.0097538,-0.2261408 0.006118,-0.2170589 0.001644,-0.2083596 -0.0037336,-0.2001876 -0.0098942,-0.1925891 -0.0168252,-0.1856854 -0.0244058,-0.1795014 -0.0325192,-0.1740364 -0.0410278,-0.169208 -0.0410278,-0.169208 -0.048982,-0.1658369 -0.057162,-0.1630586 -0.0655542,-0.1610095 -0.074081,-0.159621 -0.0826958,-0.1589812 -0.0913342,-0.1590788 -0.0999317,-0.1599231 -0.1084278,-0.1614874 -0.1167743,-0.1637166 -0.1249027,-0.1666415 -0.1327393,-0.1702772 -0.1401851,-0.1746573 -0.1472165,-0.1796761 -0.1537855,-0.1852865 -0.159804,-0.1914837 -0.1653109,-0.19814z" transform="matrix(1,0,0,-1,1.3545583,2.2316784)" fill="rgb(104,104,104)" fill-rule="nonzero" shaper:cutDepth="0.0000762" stroke-linecap="round" stroke-linejoin="round" /><path d="M-0.603562,0.718216 L-0.6605902,0.7464995 -0.6627011,0.7469916 -0.6627011,0.7469916 -0.666054,0.7486075 -0.6690334,0.7508339 -0.6714729,0.7536434 -0.6731789,0.7569496 -0.6741511,0.7605404 -0.6742763,0.764259 -0.6735885,0.7679148 -0.6723059,0.7714085 -0.6723059,0.7714085 -0.6703551,0.7745345 -0.6679218,0.7773006 -0.664928,0.7794464 -0.661517,0.7808377 -0.6578788,0.781415 -0.6542014,0.7812141 -0.6473745,0.7785014 -0.6454417,0.7775586 -0.5882287,0.749654 -0.5759188,0.7748929 -0.5759188,0.7748929 -0.5731437,0.7803036 -0.5714545,0.7828361 -0.569159,0.7848193 -0.569159,0.7848193 -0.5649434,0.787634 -0.5600217,0.7888949 -0.5549497,0.7888634 -0.5500982,0.7873758 -0.5500982,0.7873758 -0.5461933,0.7846625 -0.5430145,0.7811313 -0.5410299,0.7768136 -0.5401984,0.772133 -0.5401984,0.772133 -0.5408274,0.768424 -0.5420423,0.764864 -0.5452219,0.7580403 -0.5567907,0.7343207 -0.5328249,0.7226318 -0.5328249,0.7226318 -0.5253574,0.7185248 -0.5188458,0.7130481 -0.5165954,0.7094225 -0.5157942,0.7052604 -0.5163358,0.7010278 -0.5179486,0.6970826 -0.5179486,0.6970826 -0.520932,0.6925639 -0.5249044,0.6888964 -0.5298287,0.6866364 -0.5352202,0.6862539 -0.5352202,0.6862539 -0.5385459,0.6868272 -0.5416935,0.6880728 -0.547784,0.6910113 -0.572124,0.7028827 -0.6161249,0.6125271 -0.6161249,0.6125271 -0.6200959,0.6045574 -0.6223983,0.6007435 -0.6257018,0.5978084 -0.6257018,0.5978084 -0.6297468,0.5955897 -0.6342571,0.5946298 -0.6388538,0.5949626 -0.6432318,0.5964237 -0.6432318,0.5964237 -0.6479065,0.5997062 -0.6518019,0.6039317 -0.6542724,0.6065574 -0.7920865,0.7467055 -0.7932577,0.7481828 -0.7932577,0.7481828 -0.7970341,0.7525471 -0.799459,0.7577635 -0.7997676,0.7635072 -0.7979796,0.7689848 -0.7979796,0.7689848 -0.7938927,0.7745795 -0.7912081,0.7767874 -0.7881471,0.7784318 -0.7848475,0.7795232 -0.781402,0.779972 -0.7779512,0.7795653 -0.7746629,0.778441 -0.7746629,0.778441 -0.7706118,0.7753664 -0.7669081,0.7718382 -0.7653484,0.7701303 -0.640321,0.6428489 -0.603562,0.718216z" transform="matrix(1,0,0,-1,1.3545583,2.2316784)" fill="rgb(104,104,104)" fill-rule="nonzero" shaper:cutDepth="0.0000762" stroke-linecap="round" stroke-linejoin="round" /><path d="M-0.3689924,1.4274291 L-0.4211859,1.4528855 -0.3865133,1.5239748 -0.3865133,1.5239748 -0.3832455,1.5309027 -0.3819857,1.5345201 -0.3813777,1.5382975 -0.3813777,1.5382975 -0.3820525,1.5429069 -0.3839811,1.5471435 -0.3870907,1.5506064 -0.3909711,1.5531853 -0.3909711,1.5531853 -0.3949077,1.5547659 -0.3990889,1.5554632 -0.4032969,1.5549421 -0.4071767,1.5532464 -0.4104534,1.5505528 -0.4132119,1.5473254 -0.4175287,1.5400341 -0.4584654,1.4562419 -0.4584654,1.4562419 -0.4621181,1.4479685 -0.4629544,1.4435206 -0.4623809,1.439042 -0.4601034,1.4351401 -0.4567994,1.4320478 -0.4489997,1.4274662 -0.3654069,1.3867638 -0.3654069,1.3867638 -0.3591094,1.3838337 -0.3558181,1.3827308 -0.3523803,1.3822602 -0.3523803,1.3822602 -0.3468948,1.3829018 -0.3418538,1.3851529 -0.3378323,1.3889339 -0.3348104,1.3935601 -0.3348104,1.3935601 -0.3334044,1.3968468 -0.3329369,1.4003822 -0.333846,1.4074779 -0.333846,1.4074779 -0.3347256,1.4167815 -0.334275,1.4261111 -0.3324292,1.4352727 -0.3290005,1.4439626 -0.3290005,1.4439626 -0.3225914,1.4543355 -0.3144705,1.4634253 -0.3098121,1.4673643 -0.3047549,1.4707762 -0.2937212,1.475955 -0.2878832,1.4777254 -0.2818993,1.478912 -0.2758294,1.4795215 -0.2697293,1.4794483 -0.2636674,1.4787661 -0.2577083,1.4774582 -0.2462533,1.4732837 -0.2462533,1.4732837 -0.2359363,1.4668468 -0.231258,1.4629559 -0.2270002,1.4586095 -0.2231959,1.4538609 -0.2199456,1.4487174 -0.2172373,1.4432689 -0.2150842,1.437578 -0.2124818,1.4257031 -0.2120612,1.419633 -0.2123094,1.413554 -0.2145239,1.4015971 -0.2188018,1.390215 -0.2188018,1.390215 -0.2217546,1.3846663 -0.2252681,1.3794556 -0.2293636,1.3746877 -0.2339922,1.3704365 -0.2390561,1.3667142 -0.2445563,1.3636726 -0.2503725,1.3612915 -0.2563954,1.359494 -0.2563954,1.359494 -0.2603956,1.3580917 -0.2641509,1.3561318 -0.2672467,1.3532442 -0.269435,1.3496158 -0.269435,1.3496158 -0.2713066,1.3429958 -0.2712451,1.3395462 -0.2705169,1.3361733 -0.2690968,1.3330284 -0.2670901,1.330222 -0.2645148,1.3279252 -0.2615744,1.3261182 -0.2615744,1.3261182 -0.256674,1.3244159 -0.2514639,1.3243498 -0.2463814,1.3254001 -0.2415079,1.3272249 -0.2415079,1.3272249 -0.2328762,1.3307495 -0.2245366,1.3349148 -0.2166006,1.3398085 -0.2092178,1.3455 -0.2025367,1.3520012 -0.1966543,1.3592334 -0.1915681,1.3670461 -0.1871749,1.3752692 -0.1871749,1.3752692 -0.1835066,1.3840363 -0.180578,1.393076 -0.1784639,1.4023416 -0.1772179,1.4117622 -0.1769298,1.4212607 -0.1776086,1.430739 -0.1792323,1.4401023 -0.1818376,1.4492408 -0.1852768,1.4580998 -0.1896308,1.4665463 -0.1947879,1.4745278 -0.2007595,1.4819202 -0.2074445,1.488673 -0.21479,1.4947038 -0.2226365,1.5000629 -0.23092,1.5047216 -0.23092,1.5047216 -0.2396196,1.5083483 -0.2485977,1.5112112 -0.2577848,1.5133184 -0.2671352,1.5144924 -0.2765569,1.5147195 -0.2859531,1.5139904 -0.2952192,1.5122708 -0.3042904,1.509714 -0.3130718,1.5062923 -0.321502,1.502079 -0.3294166,1.4969627 -0.3367675,1.491065 -0.3434833,1.4844536 -0.3494884,1.4771892 -0.3548142,1.4694144 -0.3594936,1.461233 -0.3594936,1.461233 -0.3630788,1.453166 -0.3658496,1.4447839 -0.3678185,1.4361795 -0.3689924,1.4274291z" transform="matrix(1,0,0,-1,1.3545583,2.2316784)" fill="rgb(104,104,104)" fill-rule="nonzero" shaper:cutDepth="0.0000762" stroke-linecap="round" stroke-linejoin="round" /><path d="M-0.6877412,0.1534543 L-0.6885384,0.1537747 -0.6885384,0.1537747 -0.6944219,0.1571172 -0.6967112,0.1596255 -0.698375,0.1625857 -0.6993014,0.1658525 -0.6994542,0.1692446 -0.6988587,0.1725872 -0.6976787,0.1757725 -0.6976787,0.1757725 -0.6959506,0.178912 -0.6935626,0.1815814 -0.6905339,0.1834887 -0.687065,0.1843596 -0.6834804,0.1842712 -0.679971,0.1835484 -0.6732993,0.1809421 -0.4550335,0.0744183 -0.4550335,0.0744183 -0.4484451,0.0707413 -0.4454876,0.0684055 -0.4429973,0.0655646 -0.4414024,0.0621599 -0.4410821,0.0584055 -0.4418777,0.0547199 -0.4433202,0.051234 -0.4433202,0.051234 -0.4459942,0.0472469 -0.4496529,0.044161 -0.4541722,0.0425644 -0.4589626,0.0427623 -0.4589626,0.0427623 -0.4641271,0.0443931 -0.4690152,0.0467744 -0.5775378,0.0997045 -0.6364954,-0.0211764 -0.5264074,-0.0748699 -0.5264074,-0.0748699 -0.5202343,-0.0784469 -0.5175309,-0.080779 -0.5153166,-0.0835797 -0.5138995,-0.086851 -0.5135386,-0.0903983 -0.5142337,-0.0938975 -0.5156944,-0.0971552 -0.5156944,-0.0971552 -0.5173753,-0.1003589 -0.5197045,-0.103124 -0.5227023,-0.1051386 -0.5261741,-0.1061533 -0.5297832,-0.106167 -0.5333391,-0.1054587 -0.5400335,-0.1027555 -0.7586663,0.0038103 -0.7586663,0.0038103 -0.7634276,0.0062147 -0.7678083,0.0092284 -0.7678083,0.0092284 -0.7706191,0.0129867 -0.7720567,0.0174514 -0.7718602,0.0221345 -0.7704309,0.0266085 -0.7704309,0.0266085 -0.7686441,0.0297264 -0.7662466,0.0324005 -0.7631996,0.0342983 -0.7597344,0.0352384 -0.756143,0.0352663 -0.7526019,0.034639 -0.7458625,0.0321655 -0.664391,-0.0075708 -0.6054334,0.1133101 -0.6877412,0.1534543z" transform="matrix(1,0,0,-1,1.3545583,2.2316784)" fill="rgb(104,104,104)" fill-rule="nonzero" shaper:cutDepth="0.0000762" stroke-linecap="round" stroke-linejoin="round" /><path d="M-0.5918072,0.365308 L-0.5145162,0.2592049 -0.6438229,0.2547417 -0.6438229,0.2547417 -0.6499596,0.2540889 -0.6558656,0.2523275 -0.6610395,0.2490062 -0.6630067,0.2466347 -0.6644476,0.2439065 -0.6644476,0.2439065 -0.6663129,0.2373127 -0.6663744,0.2338752 -0.6657583,0.2304932 -0.664511,0.2272904 -0.662704,0.2243663 -0.6602355,0.2219745 -0.657355,0.2200983 -0.657355,0.2200983 -0.6546741,0.2190071 -0.6517923,0.2187434 -0.6459953,0.2188057 -0.6441049,0.218887 -0.4834822,0.2248437 -0.4004733,0.1843576 -0.4004733,0.1843576 -0.3933083,0.1816583 -0.3895116,0.181163 -0.3856879,0.1814553 -0.382116,0.1828246 -0.3790868,0.1851682 -0.3767015,0.1881658 -0.3748873,0.1915423 -0.3748873,0.1915423 -0.3731693,0.1957327 -0.3723876,0.2001819 -0.3727685,0.2047061 -0.3746993,0.2087849 -0.3746993,0.2087849 -0.3800979,0.2131499 -0.3862861,0.2163546 -0.4681488,0.2562817 -0.5617327,0.3838553 -0.5625178,0.3851854 -0.5625178,0.3851854 -0.5650207,0.3887618 -0.5650207,0.3887618 -0.5681524,0.3926925 -0.5722485,0.3955757 -0.5722485,0.3955757 -0.5754606,0.3967428 -0.5788507,0.397167 -0.5822521,0.3968739 -0.5854894,0.3957711 -0.5884717,0.3941092 -0.5910696,0.3918851 -0.5949888,0.386318 -0.5949888,0.386318 -0.596936,0.3810369 -0.5967045,0.3753939 -0.5947926,0.3701006 -0.5918072,0.365308z" transform="matrix(1,0,0,-1,1.3545583,2.2316784)" fill="rgb(104,104,104)" fill-rule="nonzero" shaper:cutDepth="0.0000762" stroke-linecap="round" stroke-linejoin="round" /><path d="M-0.5307941,0.5179366 L-0.5307941,0.5179366 -0.5261649,0.526679 -0.5207892,0.5349824 -0.5146104,0.5427072 -0.5077169,0.5498018 -0.5000472,0.5560482 -0.4917414,0.5614203 -0.4829379,0.5659305 -0.4737143,0.5695056 -0.4737143,0.5695056 -0.459063,0.5736067 -0.444031,0.5759685 -0.4288328,0.5766257 -0.4136615,0.575458 -0.3987144,0.5726245 -0.3841024,0.5683714 -0.3698702,0.5629954 -0.3560151,0.5567031 -0.3560151,0.5567031 -0.3365869,0.5464779 -0.3272494,0.5407013 -0.3182854,0.5343621 -0.3098524,0.5273319 -0.3020438,0.5196149 -0.2947881,0.5113744 -0.2881985,0.5025927 -0.2881985,0.5025927 -0.2802867,0.4905782 -0.2736019,0.477843 -0.2685382,0.4643824 -0.2654653,0.4503379 -0.2647857,0.4359766 -0.2653141,0.4288019 -0.2664535,0.4216985 -0.2702379,0.4078252 -0.2758567,0.3945851 -0.3022161,0.3405403 -0.3022161,0.3405403 -0.3045694,0.3360752 -0.3074662,0.3319445 -0.3111906,0.3285459 -0.3158327,0.3266207 -0.3208762,0.3266728 -0.3257742,0.3278895 -0.3349057,0.3321612 -0.5465591,0.435323 -0.5465591,0.435323 -0.5506519,0.4374554 -0.554394,0.4401511 -0.5574788,0.4435799 -0.559479,0.4477314 -0.5601294,0.4522955 -0.5596151,0.4568793 -0.5564258,0.4655243 -0.5307941,0.5179366z M-0.4988341,0.503814 L-0.5196309,0.4611742 -0.327904,0.3676628 -0.3073067,0.4098937 -0.3073067,0.4098937 -0.3028687,0.4200254 -0.2998512,0.4306627 -0.2991932,0.4361553 -0.2992611,0.4416864 -0.3012277,0.4525597 -0.3012277,0.4525597 -0.3036798,0.4603298 -0.3068496,0.4678373 -0.3105979,0.475071 -0.3149823,0.4819405 -0.3198355,0.4884853 -0.3251662,0.4946488 -0.3370875,0.5057459 -0.3370875,0.5057459 -0.3432203,0.5106632 -0.3499542,0.5147177 -0.3640424,0.5217018 -0.3640424,0.5217018 -0.3914767,0.5347846 -0.3984998,0.5376857 -0.4057843,0.5398444 -0.4132645,0.5411653 -0.4208375,0.5417975 -0.4208375,0.5417975 -0.4369207,0.5417991 -0.4449209,0.5409356 -0.4528321,0.5394678 -0.460593,0.5373437 -0.4681361,0.534547 -0.4753547,0.530989 -0.4820206,0.5264871 -0.4820206,0.5264871 -0.4874759,0.5218847 -0.4919224,0.5163004 -0.4988341,0.503814z" transform="matrix(1,0,0,-1,1.3545583,2.2316784)" fill="rgb(104,104,104)" fill-rule="nonzero" shaper:cutDepth="0.0000762" stroke-linecap="round" stroke-linejoin="round" /><path d="M-0.1608436,0.6808278 L-0.1608436,0.6808278 -0.1537534,0.6767875 -0.1505837,0.6742254 -0.1479289,0.6711191 -0.1462983,0.6673937 -0.1460983,0.6633242 -0.1469582,0.659338 -0.1485592,0.6555836 -0.1485592,0.6555836 -0.1504029,0.6522829 -0.1527693,0.6493363 -0.1557899,0.647068 -0.1593176,0.6457137 -0.1630692,0.6452954 -0.1668243,0.6457581 -0.1739336,0.6482957 -0.387801,0.7525373 -0.387801,0.7525373 -0.3929195,0.7550855 -0.3976856,0.7582418 -0.4016691,0.7623353 -0.4041135,0.7674796 -0.4043083,0.7731887 -0.403062,0.7787674 -0.3985315,0.7892556 -0.3680939,0.8515216 -0.3680939,0.8515216 -0.3596483,0.8668684 -0.3544029,0.8738857 -0.3484379,0.8803031 -0.3484379,0.8803031 -0.3388853,0.8882173 -0.3282584,0.8946151 -0.316742,0.8992208 -0.3046264,0.9018908 -0.2922476,0.9026884 -0.2798967,0.9015505 -0.2678548,0.8985744 -0.2563375,0.893963 -0.2563375,0.893963 -0.2444804,0.8868832 -0.2337862,0.8781451 -0.2290184,0.8731441 -0.2247151,0.867738 -0.2175219,0.85595 -0.2146446,0.8496679 -0.2123354,0.8431556 -0.2094268,0.829658 -0.2088976,0.8227688 -0.2090042,0.81586 -0.2108708,0.8021762 -0.2108708,0.8021762 -0.2126989,0.7957169 -0.2151,0.7894457 -0.2207576,0.7772693 -0.2472425,0.7229673 -0.1608436,0.6808278z M-0.3372751,0.835059 L-0.3641383,0.7799812 -0.2786805,0.7383006 -0.2506864,0.795697 -0.2506864,0.795697 -0.247056,0.8048334 -0.2449382,0.8144325 -0.2445635,0.8242518 -0.246324,0.8339111 -0.2479525,0.8385534 -0.2501581,0.8429487 -0.2559178,0.8509032 -0.2632572,0.8574375 -0.2716708,0.8625251 -0.2716708,0.8625251 -0.2810447,0.866077 -0.290923,0.8677428 -0.2959378,0.8676811 -0.300907,0.8670202 -0.3104044,0.8638497 -0.3189646,0.8586476 -0.3262247,0.8517412 -0.3322668,0.8437462 -0.3372751,0.835059z" transform="matrix(1,0,0,-1,1.3545583,2.2316784)" fill="rgb(104,104,104)" fill-rule="nonzero" shaper:cutDepth="0.0000762" stroke-linecap="round" stroke-linejoin="round" /><path d="M-0.0058882,1.0205883 L-0.0058882,1.0205883 -0.0032775,1.0211648 -0.0032775,1.0211648 0.0029445,1.021918 0.0060469,1.0214255 0.0089866,1.0203218 0.0089866,1.0203218 0.0118922,1.018517 0.0143607,1.0161515 0.0162941,1.0133313 0.0175885,1.0101658 0.0182298,1.0068071 0.0181775,1.0033879 0.0162411,0.9968458 0.0162411,0.9968458 0.0136875,0.9925832 0.0098821,0.9894117 0.0052726,0.9875623 0.0004136,0.9865327 -0.1305158,0.9622925 -0.1470362,0.9284207 -0.0614122,0.8866591 -0.0614122,0.8866591 -0.0542389,0.882523 -0.0510401,0.8798906 -0.0483871,0.8767129 -0.0465433,0.873003 -0.0459746,0.8689119 -0.0467066,0.8648374 -0.0483529,0.861037 -0.0483529,0.861037 -0.0516228,0.8562158 -0.0561529,0.8525669 -0.0616561,0.850708 -0.0645743,0.850601 -0.067451,0.8510991 -0.067451,0.8510991 -0.0782728,0.8559661 -0.2886463,0.9585036 -0.2886463,0.9585036 -0.2933419,0.9608081 -0.2976542,0.9637649 -0.3011684,0.9676339 -0.3033885,0.9723612 -0.3040037,0.9775493 -0.3032821,0.9827298 -0.3016413,0.9876935 -0.2994336,0.9924362 -0.2678065,1.057141 -0.2678065,1.057141 -0.2592802,1.0714861 -0.254289,1.0781817 -0.2487079,1.0843888 -0.242551,1.0900289 -0.2358756,1.0950424 -0.2287106,1.0993281 -0.2211257,1.1028156 -0.2132274,1.105522 -0.2050826,1.1073536 -0.1967813,1.108239 -0.1884334,1.1081319 -0.1801418,1.1071598 -0.1719958,1.1053287 -0.1640621,1.1027297 -0.1563526,1.0995244 -0.1563526,1.0995244 -0.1437662,1.0921091 -0.1324947,1.0828187 -0.1275331,1.0774546 -0.1230643,1.0716711 -0.1192174,1.0654581 -0.1159125,1.0589399 -0.1131935,1.0521565 -0.1111709,1.0451341 -0.1098231,1.0379511 -0.1090985,1.0306798 -0.1097471,1.0160894 -0.1126496,1.0017732 -0.0058882,1.0205883z M-0.2358284,1.0430556 L-0.263932,0.9854346 -0.1784741,0.943754 -0.1517219,0.9986043 -0.1517219,0.9986043 -0.1461485,1.0114466 -0.1444341,1.0182375 -0.1440802,1.0252293 -0.1440802,1.0252293 -0.1445802,1.0318706 -0.1460674,1.0383621 -0.1483785,1.0446075 -0.1515738,1.0504512 -0.1555572,1.0557884 -0.160238,1.0605261 -0.1655285,1.0645705 -0.1712985,1.0678975 -0.1712985,1.0678975 -0.1775874,1.0703716 -0.1841424,1.0720152 -0.1908743,1.0726052 -0.1976257,1.072303 -0.2042652,1.0710436 -0.2106722,1.0688943 -0.2166796,1.0657995 -0.2221902,1.0618873 -0.2221902,1.0618873 -0.2265077,1.0579192 -0.2301258,1.0533041 -0.2358284,1.0430556z" transform="matrix(1,0,0,-1,1.3545583,2.2316784)" fill="rgb(104,104,104)" fill-rule="nonzero" shaper:cutDepth="0.0000762" stroke-linecap="round" stroke-linejoin="round" /><path d="M-0.0566262,1.2475223 L-0.0995216,1.1595736 -0.1637257,1.190888 -0.1051352,1.3110164 -0.1051352,1.3110164 -0.1019024,1.3187899 -0.1010276,1.3229195 -0.1009136,1.3271285 -0.1018506,1.3312388 -0.1039996,1.3348547 -0.1070953,1.3377134 -0.110773,1.3397742 -0.110773,1.3397742 -0.1144451,1.3413162 -0.1183613,1.3420262 -0.1223221,1.3416892 -0.125998,1.3401587 -0.1291386,1.3377207 -0.1317563,1.3347121 -0.1357728,1.3278503 -0.2003358,1.1956169 -0.2003358,1.1956169 -0.2039786,1.1866801 -0.2047607,1.1819165 -0.2042076,1.1771256 -0.2018795,1.1729076 -0.1983923,1.1695644 -0.1900451,1.1647399 0.0232723,1.0607665 0.0232723,1.0607665 0.032059,1.0568749 0.0367943,1.0559787 0.0415678,1.0565044 0.0457784,1.0588179 0.0491129,1.0622887 0.0538781,1.0706415 0.1180296,1.2021717 0.1180296,1.2021717 0.1214978,1.2102174 0.1225993,1.2144656 0.1230118,1.2188271 0.1224034,1.2231694 0.1204957,1.2271035 0.117376,1.2301785 0.1135352,1.2322902 0.1135352,1.2322902 0.1084205,1.2338149 0.1030926,1.2339511 0.0980331,1.2322734 0.0937091,1.2291478 0.0937091,1.2291478 0.0916742,1.2270591 0.0901394,1.2245741 0.0874987,1.2193645 0.0280012,1.0973766 -0.0680837,1.1442403 -0.0259134,1.2307021 -0.0259134,1.2307021 -0.0226397,1.2384245 -0.0216945,1.2425151 -0.0214467,1.2467073 -0.0222931,1.2508097 -0.0243757,1.254449 -0.027469,1.2572807 -0.0311565,1.2592857 -0.0311565,1.2592857 -0.0348759,1.2608599 -0.038836,1.2616381 -0.0428607,1.2613747 -0.0466181,1.2599065 -0.0498459,1.2574833 -0.052547,1.2544789 -0.0566262,1.2475223z" transform="matrix(1,0,0,-1,1.3545583,2.2316784)" fill="rgb(104,104,104)" fill-rule="nonzero" shaper:cutDepth="0.0000762" stroke-linecap="round" stroke-linejoin="round" /><path d="M-0.0593111,1.4847604 L-0.0701357,1.4595199 -0.0701357,1.4595199 -0.0746255,1.4458718 -0.0760939,1.4388348 -0.0769446,1.4316975 -0.0770804,1.4245105 -0.0764599,1.4173501 -0.0751933,1.410274 -0.073214,1.4033646 -0.0705937,1.3966709 -0.0672985,1.390283 -0.0633641,1.3842677 -0.0588482,1.3786758 -0.053747,1.3736114 -0.0482123,1.3690257 -0.0359925,1.3614705 -0.0359925,1.3614705 -0.027805,1.3581406 -0.019304,1.3557216 -0.0105724,1.35435 -0.0017424,1.3539557 0.007073,1.3545989 0.015746,1.356298 0.0241344,1.3590842 0.0320462,1.3630229 0.0320462,1.3630229 0.0392909,1.3677733 0.0458508,1.3734375 0.0572074,1.3865157 0.0860512,1.4233979 0.0860512,1.4233979 0.0913202,1.4299073 0.0973175,1.4357416 0.0973175,1.4357416 0.1025961,1.4391026 0.1082743,1.4417315 0.1142984,1.4434276 0.1204845,1.444368 0.1267425,1.4444464 0.1329633,1.4437681 0.1390246,1.4422126 0.14484,1.4399008 0.14484,1.4399008 0.1512068,1.4361053 0.1569184,1.4313853 0.1618477,1.4258492 0.1658144,1.4195902 0.1687798,1.4127966 0.1705584,1.4056041 0.1710125,1.3982068 0.1701107,1.3908515 0.1701107,1.3908515 0.1672859,1.3823631 0.1638589,1.3740999 0.1527083,1.3513029 0.1527083,1.3513029 0.1486512,1.3435191 0.1435474,1.3363886 0.1435474,1.3363886 0.1387819,1.3321504 0.133402,1.3287255 0.1275355,1.3262237 0.1213821,1.3245462 0.1150597,1.323705 0.1086829,1.3238024 0.102413,1.3249697 0.0964059,1.3271106 0.0964059,1.3271106 0.0931363,1.3291163 0.0900778,1.3306709 0.0900778,1.3306709 0.0835987,1.3325695 0.0802199,1.3326602 0.0768901,1.3320701 0.0737484,1.3308231 0.0709064,1.3289922 0.0685793,1.3265401 0.066778,1.3236787 0.066778,1.3236787 0.0653905,1.3196059 0.0649914,1.3153208 0.065698,1.3110811 0.0674653,1.3071564 0.0699755,1.30366 0.0730299,1.3006278 0.0802708,1.2959952 0.0802708,1.2959952 0.0905054,1.2919999 0.1012,1.2894884 0.1121411,1.2884906 0.1231124,1.2890642 0.1339026,1.2911336 0.144257,1.2948034 0.1539573,1.2999606 0.1627626,1.3065308 0.1627626,1.3065308 0.1687618,1.3132327 0.1741835,1.3204118 0.1790173,1.3279975 0.1832662,1.3359266 0.1954044,1.3608134 0.1954044,1.3608134 0.2011687,1.3759384 0.2032302,1.3837701 0.204569,1.3917555 0.2051232,1.3998334 0.2049331,1.4079291 0.2038744,1.4159558 0.201961,1.4238238 0.1992503,1.4314536 0.1957357,1.4387478 0.1914032,1.4455879 0.1862994,1.4518738 0.1805714,1.4575961 0.1742937,1.4627116 0.1675814,1.467239 0.1605054,1.4711768 0.1605054,1.4711768 0.1472303,1.4763237 0.1333142,1.4793312 0.1190861,1.4797718 0.1120067,1.4789791 0.105022,1.4775814 0.0915548,1.472972 0.0851994,1.4697532 0.0791494,1.4659935 0.0680764,1.4570442 0.0584607,1.4465401 0.0298037,1.4093559 0.0298037,1.4093559 0.0250438,1.4032882 0.0198072,1.3976315 0.0198072,1.3976315 0.0153609,1.3944529 0.0104954,1.3919626 0.005293,1.3902873 -0.0000965,1.3893756 -0.0055607,1.3892543 -0.0109874,1.3899148 -0.0162809,1.3912722 -0.0213518,1.3933147 -0.0213518,1.3933147 -0.0280146,1.3973976 -0.0337974,1.4026483 -0.0383747,1.4089769 -0.0413653,1.416196 -0.0428664,1.4238593 -0.0427668,1.4316748 -0.0412823,1.4393422 -0.0386784,1.4467113 -0.0297274,1.4660693 -0.0287945,1.4679821 -0.0287945,1.4679821 -0.0250036,1.4746739 -0.0202865,1.4807431 -0.0146041,1.485923 -0.0079814,1.4898234 -0.0006598,1.4921681 0.0069692,1.4931165 0.0146475,1.4927175 0.0222153,1.4913501 0.0222153,1.4913501 0.0283199,1.4908232 0.0343394,1.4918839 0.0370858,1.4932422 0.0394785,1.4951586 0.0427553,1.5003107 0.0427553,1.5003107 0.0439969,1.5036334 0.0446095,1.5071256 0.0444572,1.5106681 0.0435291,1.5140909 0.0418983,1.5172384 0.0396143,1.5199531 0.0338457,1.5240459 0.0338457,1.5240459 0.0264413,1.5266765 0.0186891,1.5280306 0.0108447,1.5285144 0.0029862,1.5282032 0.0029862,1.5282032 -0.0065701,1.5268706 -0.0158894,1.524377 -0.0247893,1.5206511 -0.03312,1.515785 -0.0407534,1.5098847 -0.0475705,1.5030581 -0.0533851,1.4953596 -0.0581615,1.486977 -0.0593111,1.4847604z" transform="matrix(1,0,0,-1,1.3545583,2.2316784)" fill="rgb(104,104,104)" fill-rule="nonzero" shaper:cutDepth="0.0000762" stroke-linecap="round" stroke-linejoin="round" /><path d="M0.0443506,1.6972984 L0.033526,1.6720579 0.033526,1.6720579 0.0290362,1.6584098 0.0275678,1.6513728 0.0267171,1.6442355 0.0265813,1.6370485 0.0272018,1.6298881 0.0284684,1.622812 0.0304477,1.6159026 0.033068,1.6092089 0.0363632,1.602821 0.0402976,1.5968057 0.0448135,1.5912138 0.0499147,1.5861494 0.0554494,1.5815637 0.0676692,1.5740085 0.0676692,1.5740085 0.0758567,1.5706786 0.0843577,1.5682596 0.0930893,1.566888 0.1019193,1.5664937 0.1107347,1.5671369 0.1194077,1.568836 0.1277961,1.5716222 0.1357079,1.5755609 0.1357079,1.5755609 0.1429526,1.5803113 0.1495125,1.5859755 0.1608691,1.5990537 0.1897129,1.6359359 0.1897129,1.6359359 0.1949819,1.6424453 0.2009792,1.6482796 0.2009792,1.6482796 0.2062578,1.6516406 0.211936,1.6542695 0.2179601,1.6559656 0.2241462,1.656906 0.2304042,1.6569844 0.236625,1.6563061 0.2426863,1.6547506 0.2485017,1.6524388 0.2485017,1.6524388 0.2548685,1.6486433 0.2605801,1.6439233 0.2655094,1.6383872 0.2694762,1.6321282 0.2724415,1.6253346 0.2742201,1.6181421 0.2746742,1.6107448 0.2737724,1.6033895 0.2737724,1.6033895 0.2709477,1.5949011 0.2675206,1.5866379 0.25637,1.5638409 0.25637,1.5638409 0.2523129,1.5560571 0.2472091,1.5489266 0.2472091,1.5489266 0.2424436,1.5446884 0.2370637,1.5412635 0.2311972,1.5387617 0.2250438,1.5370842 0.2187214,1.536243 0.2123446,1.5363404 0.2060748,1.5375077 0.2000676,1.5396486 0.2000676,1.5396486 0.196798,1.5416543 0.1937395,1.5432089 0.1937395,1.5432089 0.1872604,1.5451075 0.1838817,1.5451982 0.1805518,1.5446081 0.1774101,1.5433611 0.1745681,1.5415302 0.1722411,1.5390781 0.1704397,1.5362167 0.1704397,1.5362167 0.1690523,1.5321439 0.1686531,1.5278588 0.1693597,1.5236191 0.171127,1.5196944 0.1736372,1.516198 0.1766916,1.5131658 0.1839325,1.5085332 0.1839325,1.5085332 0.1941671,1.5045379 0.2048618,1.5020264 0.2158028,1.5010286 0.2267741,1.5016022 0.2375643,1.5036716 0.2479187,1.5073414 0.257619,1.5124986 0.2664243,1.5190688 0.2664243,1.5190688 0.2724235,1.5257707 0.2778452,1.5329498 0.282679,1.5405355 0.2869279,1.5484646 0.2990661,1.5733514 0.2990661,1.5733514 0.3048304,1.5884764 0.3068919,1.5963081 0.3082307,1.6042935 0.3087849,1.6123714 0.3085948,1.6204671 0.3075361,1.6284938 0.3056227,1.6363618 0.302912,1.6439916 0.2993974,1.6512858 0.2950649,1.6581259 0.2899611,1.6644118 0.2842331,1.6701341 0.2779554,1.6752496 0.2712431,1.679777 0.2641671,1.6837148 0.2641671,1.6837148 0.250892,1.6888617 0.236976,1.6918692 0.2227478,1.6923098 0.2156684,1.6915171 0.2086837,1.6901194 0.1952165,1.68551 0.1888611,1.6822912 0.1828111,1.6785315 0.1717381,1.6695822 0.1621224,1.6590781 0.1334654,1.6218939 0.1334654,1.6218939 0.1287055,1.6158262 0.1234689,1.6101695 0.1234689,1.6101695 0.1190226,1.6069909 0.1141571,1.6045006 0.1089547,1.6028253 0.1035652,1.6019136 0.098101,1.6017923 0.0926743,1.6024528 0.0873808,1.6038102 0.0823099,1.6058527 0.0823099,1.6058527 0.0756471,1.6099356 0.0698643,1.6151863 0.065287,1.6215149 0.0622964,1.628734 0.0607953,1.6363973 0.0608949,1.6442128 0.0623794,1.6518802 0.0649833,1.6592493 0.0739343,1.6786073 0.0748672,1.6805201 0.0748672,1.6805201 0.0786581,1.6872119 0.0833752,1.693281 0.0890576,1.698461 0.0956803,1.7023613 0.1030019,1.7047061 0.1106309,1.7056545 0.1183092,1.7052555 0.1258771,1.7038881 0.1258771,1.7038881 0.1319816,1.7033612 0.1380011,1.7044219 0.1407475,1.7057802 0.1431402,1.7076966 0.146417,1.7128487 0.146417,1.7128487 0.1476586,1.7161714 0.1482712,1.7196636 0.1481189,1.7232061 0.1471908,1.7266288 0.1455601,1.7297764 0.143276,1.7324911 0.1375074,1.7365839 0.1375074,1.7365839 0.130103,1.7392145 0.1223508,1.7405686 0.1145064,1.7410524 0.1066479,1.7407412 0.1066479,1.7407412 0.0970916,1.7394086 0.0877723,1.736915 0.0788724,1.7331891 0.0705417,1.728323 0.0629083,1.7224227 0.0560912,1.7155961 0.0502766,1.7078976 0.0455002,1.699515 0.0443506,1.6972984z" transform="matrix(1,0,0,-1,1.3545583,2.2316784)" fill="rgb(104,104,104)" fill-rule="nonzero" shaper:cutDepth="0.0000762" stroke-linecap="round" stroke-linejoin="round" /><path d="M0.5981765,-0.2783251 L0.5981765,-0.2783251 0.6029033,-0.2810186 0.6067863,-0.2847975 0.6078734,-0.2872811 0.6080067,-0.2899941 0.6063661,-0.2951545 0.6063661,-0.2951545 0.6035594,-0.2993194 0.6015456,-0.3008316 0.5991938,-0.3017345 0.5941894,-0.3017048 0.5894498,-0.3000132 0.4468716,-0.2305187 0.4468716,-0.2305187 0.4402818,-0.2267157 0.4376262,-0.2239867 0.4359966,-0.2205572 0.4358667,-0.2167512 0.4366975,-0.213032 0.4397179,-0.2060399 0.4600097,-0.1645292 0.4600097,-0.1645292 0.4656401,-0.154298 0.469137,-0.1496198 0.4731136,-0.1453415 0.4731136,-0.1453415 0.479482,-0.1400654 0.4865667,-0.1358002 0.4942442,-0.1327297 0.5023213,-0.1309498 0.5105738,-0.130418 0.5188077,-0.1311766 0.5268357,-0.1331607 0.5345139,-0.136235 0.5345139,-0.136235 0.5424187,-0.1409548 0.5495481,-0.1467802 0.5555955,-0.1537183 0.560391,-0.1615769 0.5638486,-0.1701065 0.5657877,-0.1791049 0.5660695,-0.1883036 0.564825,-0.1974261 0.564825,-0.1974261 0.5620055,-0.2059131 0.5582338,-0.2140307 0.5405772,-0.2502321 0.5981765,-0.2783251z M0.4805555,-0.1755043 L0.4626467,-0.2122228 0.5196186,-0.2400098 0.5382813,-0.2017456 0.5382813,-0.2017456 0.5407016,-0.1956547 0.5421134,-0.1892553 0.5423632,-0.182709 0.5411896,-0.1762695 0.5386335,-0.1702445 0.5347937,-0.1649415 0.5299007,-0.1605853 0.5242917,-0.1571936 0.5242917,-0.1571936 0.5180424,-0.1548256 0.5114569,-0.1537151 0.5048009,-0.1541968 0.4984693,-0.1563105 0.4927625,-0.1597786 0.4879224,-0.1643828 0.4838944,-0.1697128 0.4805555,-0.1755043z" transform="matrix(1,0,0,-1,1.3545583,2.2316784)" fill="rgb(104,104,104)" fill-rule="nonzero" shaper:cutDepth="0.0000762" stroke-linecap="round" stroke-linejoin="round" /><path d="M0.5299528,-0.0210309 L0.5227364,-0.0378579 0.5227364,-0.0378579 0.5197432,-0.0469567 0.5181972,-0.0564062 0.5185202,-0.0659711 0.5206842,-0.0752948 0.5246279,-0.0840159 0.5302614,-0.091754 0.537352,-0.0981874 0.5454985,-0.1032242 0.5454985,-0.1032242 0.5509569,-0.1054441 0.5566242,-0.1070568 0.5624453,-0.1079712 0.568332,-0.1082341 0.5742089,-0.1078052 0.5799909,-0.1066725 0.5855831,-0.1048151 0.5908577,-0.1021893 0.5908577,-0.1021893 0.5956875,-0.0990224 0.6000608,-0.0952462 0.6076318,-0.0865274 0.626861,-0.0619392 0.626861,-0.0619392 0.6303737,-0.0575997 0.6343719,-0.0537101 0.6343719,-0.0537101 0.6416764,-0.0497169 0.6498165,-0.0479592 0.6581357,-0.0483591 0.6660535,-0.0509373 0.6660535,-0.0509373 0.6702981,-0.0534677 0.6741058,-0.0566143 0.677392,-0.0603051 0.6800365,-0.0644777 0.6820134,-0.0690068 0.6831991,-0.0738018 0.6835019,-0.0787334 0.6829007,-0.0836369 0.6829007,-0.0836369 0.6787328,-0.0948046 0.6712991,-0.1100026 0.6712991,-0.1100026 0.6685943,-0.1151918 0.6651918,-0.1199454 0.6651918,-0.1199454 0.6620148,-0.1227709 0.6584282,-0.1250542 0.6504149,-0.1278404 0.6462,-0.1284012 0.6419488,-0.1283362 0.6377689,-0.1275581 0.6337642,-0.1261308 0.6337642,-0.1261308 0.6315844,-0.1247936 0.6295454,-0.1237572 0.6295454,-0.1237572 0.625226,-0.1224916 0.6207536,-0.1228245 0.6167645,-0.1248764 0.6140122,-0.1284188 0.6140122,-0.1284188 0.6130872,-0.1311339 0.6128211,-0.1339907 0.6132922,-0.1368171 0.6144704,-0.1394336 0.6181801,-0.143786 0.6230074,-0.1468744 0.6230074,-0.1468744 0.6298305,-0.149538 0.6369602,-0.1512123 0.6442543,-0.1518774 0.6515685,-0.1514951 0.6587619,-0.1501155 0.6656649,-0.1476689 0.6721318,-0.1442308 0.678002,-0.1398507 0.678002,-0.1398507 0.6856159,-0.1305967 0.691671,-0.1202535 0.6997631,-0.1036622 0.6997631,-0.1036622 0.703606,-0.0935789 0.7058729,-0.0830342 0.7061156,-0.0722518 0.7041342,-0.0616554 0.699984,-0.051706 0.6970957,-0.0471459 0.6936932,-0.0429553 0.6856894,-0.0357301 0.6764971,-0.0300867 0.6764971,-0.0300867 0.6676471,-0.0266554 0.6583697,-0.0246504 0.6488843,-0.0243567 0.6395082,-0.0258169 0.63053,-0.0288898 0.6222598,-0.0335422 0.6148778,-0.0395084 0.6084673,-0.0465111 0.5893627,-0.0713006 0.5893627,-0.0713006 0.5826983,-0.0791169 0.5826983,-0.0791169 0.5764905,-0.0828961 0.5694292,-0.0846208 0.5621686,-0.0842614 0.555259,-0.0819947 0.555259,-0.0819947 0.5508171,-0.0792728 0.5469619,-0.0757723 0.5439104,-0.0715533 0.5419167,-0.0667405 0.5409159,-0.0616317 0.5409823,-0.0564213 0.541972,-0.0513097 0.5437079,-0.046397 0.5496753,-0.0334917 0.5502972,-0.0322164 0.5502972,-0.0322164 0.5528245,-0.0277553 0.5559692,-0.0237092 0.5597575,-0.0202559 0.5641726,-0.0176556 0.5690537,-0.0160925 0.5741397,-0.0154602 0.5792586,-0.0157262 0.5843038,-0.0166378 0.5843038,-0.0166378 0.5883734,-0.0169891 0.5923865,-0.0162819 0.5958125,-0.0140988 0.597997,-0.0106641 0.597997,-0.0106641 0.5992332,-0.0061208 0.5985129,-0.0014773 0.595903,0.0024308 0.5920574,0.0051594 0.5920574,0.0051594 0.5871211,0.0069131 0.581953,0.0078159 0.5714844,0.0079309 0.5714844,0.0079309 0.5651135,0.0070425 0.5589006,0.0053801 0.5529674,0.0028962 0.5474135,-0.0003479 0.5423246,-0.0042814 0.5377799,-0.0088324 0.5339035,-0.0139648 0.5307192,-0.0195532 0.5299528,-0.0210309z" transform="matrix(1,0,0,-1,1.3545583,2.2316784)" fill="rgb(104,104,104)" fill-rule="nonzero" shaper:cutDepth="0.0000762" stroke-linecap="round" stroke-linejoin="round" /><path d="M0.7345602,-0.0028175 L0.5878352,0.068745 0.5878352,0.068745 0.5834866,0.0703971 0.578865,0.0707626 0.576618,0.0701498 0.5746806,0.068867 0.5720039,0.065093 0.5720039,0.065093 0.5711362,0.0625798 0.5708804,0.0599339 0.5721971,0.0548129 0.5721971,0.0548129 0.5755382,0.051829 0.5795365,0.0497259 0.7254781,-0.021409 0.7254781,-0.021409 0.7287663,-0.023002 0.7322891,-0.023863 0.7322891,-0.023863 0.7352067,-0.0234234 0.7378506,-0.0220972 0.7400401,-0.0201172 0.7417022,-0.0176744 0.7417022,-0.0176744 0.7425699,-0.015162 0.7428262,-0.0125178 0.7425352,-0.0098721 0.741491,-0.0074312 0.741491,-0.0074312 0.7382694,-0.0047687 0.7345602,-0.0028175z" transform="matrix(1,0,0,-1,1.3545583,2.2316784)" fill="rgb(104,104,104)" fill-rule="nonzero" shaper:cutDepth="0.0000762" stroke-linecap="round" stroke-linejoin="round" /><path d="M0.6487881,0.1786954 L0.7246645,0.1843145 0.7774157,0.1039662 0.7774157,0.1039662 0.7806692,0.0994035 0.7825386,0.09732 0.7849237,0.095854 0.7849237,0.095854 0.7892085,0.0947591 0.7935566,0.0955206 0.7972583,0.0979484 0.7998499,0.1015462 0.7998499,0.1015462 0.8011609,0.1053595 0.800904,0.1094083 0.799617,0.1132341 0.7976982,0.1168011 0.7517091,0.1862786 0.8348826,0.192439 0.8348826,0.192439 0.838717,0.1930562 0.8423802,0.1943154 0.8455797,0.1965236 0.8477395,0.1997343 0.8477395,0.1997343 0.8490824,0.204099 0.8487523,0.2086437 0.8465487,0.2126288 0.8428852,0.2153481 0.8428852,0.2153481 0.8385562,0.2164599 0.8340638,0.2161791 0.7366065,0.2087993 0.6948214,0.2705388 0.6948214,0.2705388 0.6917232,0.2745146 0.6878563,0.2777145 0.6878563,0.2777145 0.6833746,0.2788625 0.6788687,0.2778819 0.675154,0.2751329 0.6725701,0.2712844 0.6725701,0.2712844 0.6713717,0.268017 0.6715201,0.264547 0.6745526,0.2583045 0.7089235,0.2068308 0.6496027,0.2026127 0.6496027,0.2026127 0.6415449,0.2012855 0.6380581,0.1991562 0.6357486,0.1957891 0.6357486,0.1957891 0.6343856,0.1914328 0.6345924,0.1868864 0.6366013,0.1828061 0.6402007,0.1800061 0.6402007,0.1800061 0.644392,0.1787474 0.6487881,0.1786954z" transform="matrix(1,0,0,-1,1.3545583,2.2316784)" fill="rgb(104,104,104)" fill-rule="nonzero" shaper:cutDepth="0.0000762" stroke-linecap="round" stroke-linejoin="round" /><path d="M0.9246067,0.3868355 L0.7778817,0.458398 0.7778817,0.458398 0.7735331,0.4600501 0.7689114,0.4604156 0.7666645,0.4598028 0.764727,0.45852 0.7620504,0.454746 0.7620504,0.454746 0.7611826,0.4522328 0.7609268,0.4495869 0.7622435,0.4444659 0.7622435,0.4444659 0.7655847,0.441482 0.7695829,0.4393789 0.9155246,0.368244 0.9155246,0.368244 0.9188128,0.366651 0.9223356,0.36579 0.9223356,0.36579 0.9252532,0.3662296 0.9278971,0.3675558 0.9300866,0.3695358 0.9317487,0.3719786 0.9317487,0.3719786 0.9326164,0.374491 0.9328727,0.3771352 0.9325817,0.3797809 0.9315375,0.3822218 0.9315375,0.3822218 0.9283159,0.3848843 0.9246067,0.3868355z" transform="matrix(1,0,0,-1,1.3545583,2.2316784)" fill="rgb(104,104,104)" fill-rule="nonzero" shaper:cutDepth="0.0000762" stroke-linecap="round" stroke-linejoin="round" /><path d="M0.8327019,0.6055969 L0.8327019,0.6055969 0.8359942,0.6113718 0.8399389,0.6167232 0.8444161,0.6216366 0.849388,0.62605 0.8547302,0.6300065 0.8604214,0.6334422 0.8664606,0.6362209 0.8727541,0.6383619 0.8727541,0.6383619 0.8824939,0.6396318 0.8923197,0.639705 0.9020981,0.6387692 0.9117528,0.6369491 0.9212473,0.6344206 0.9305629,0.6312988 0.9486197,0.6235585 0.9486197,0.6235585 0.9669052,0.613498 0.9755538,0.6076513 0.9837213,0.6011518 0.991245,0.5939161 0.9979139,0.585889 1.0034768,0.5770561 1.0077064,0.5675168 1.0077064,0.5675168 1.0100211,0.5560381 1.0102661,0.5443275 1.0086147,0.5327329 1.0047618,0.5216777 1.0047618,0.5216777 1.0016221,0.516269 0.9978667,0.5112663 0.9890388,0.5024237 0.9788186,0.4952328 0.9732687,0.4923472 0.9674337,0.4900963 0.9674337,0.4900963 0.9573737,0.4882219 0.9471424,0.487798 0.9369323,0.4885058 0.9268434,0.4902453 0.916937,0.4928278 0.9072257,0.4960707 0.8884354,0.5041894 0.8884354,0.5041894 0.8732283,0.5126011 0.8589568,0.5225157 0.8522814,0.5280851 0.8460366,0.5341281 0.8402965,0.5406577 0.8352738,0.5477492 0.8352738,0.5477492 0.8318845,0.5544601 0.8293894,0.5615525 0.8277634,0.5688928 0.8270279,0.5763753 0.827105,0.5838936 0.8280416,0.5913531 0.8299183,0.5986335 0.832672,0.6056291 0.8327019,0.6055969z M0.9399473,0.6018441 L0.9399473,0.6018441 0.9290647,0.6067062 0.9178471,0.610734 0.9063206,0.613762 0.8945162,0.6153773 0.8826135,0.6150664 0.876751,0.6139957 0.8710942,0.6121245 0.8658081,0.6093765 0.8611084,0.6057179 0.8571767,0.6012412 0.8540135,0.5961917 0.8540385,0.5961496 0.8540385,0.5961496 0.8515263,0.5888768 0.8506356,0.5812314 0.8512099,0.5735503 0.853233,0.5661218 0.853233,0.5661218 0.8566503,0.5592238 0.8610863,0.5529272 0.866253,0.5472168 0.8719492,0.5420339 0.8844165,0.5330006 0.8979007,0.5255628 0.8979007,0.5255628 0.9131293,0.5188882 0.92902,0.5140078 0.9371985,0.5125043 0.9454875,0.5118722 0.9537953,0.5122825 0.9619094,0.514076 0.9619094,0.514076 0.9685535,0.5169066 0.9745662,0.5209117 0.9797818,0.5259061 0.9838032,0.5318999 0.9838032,0.5318999 0.9861851,0.5394081 0.9867828,0.5472698 0.9859076,0.5551123 0.9837015,0.5626898 0.9837015,0.5626898 0.9803883,0.5694153 0.9760518,0.5755414 0.9710283,0.5811086 0.9654234,0.5860967 0.953131,0.5946877 0.9399473,0.6018441z" transform="matrix(1,0,0,-1,1.3545583,2.2316784)" fill="rgb(104,104,104)" fill-rule="nonzero" shaper:cutDepth="0.0000762" stroke-linecap="round" stroke-linejoin="round" /><path d="M0.9064169,0.756735 L0.9064169,0.756735 0.9097092,0.7625099 0.9136539,0.7678613 0.9181311,0.7727747 0.923103,0.7771881 0.9284452,0.7811447 0.9341364,0.7845803 0.9401756,0.787359 0.946469,0.7895 0.946469,0.7895 0.9562089,0.79077 0.9660347,0.7908431 0.9758131,0.7899074 0.9854678,0.7880872 0.9949623,0.7855587 1.0042779,0.7824369 1.0223347,0.7746967 1.0223347,0.7746967 1.0406202,0.7646361 1.0492687,0.7587894 1.0574362,0.7522899 1.06496,0.7450543 1.0716289,0.7370272 1.0771918,0.7281943 1.0814214,0.7186549 1.0814214,0.7186549 1.0837361,0.7071762 1.0839811,0.6954656 1.0823296,0.683871 1.0784768,0.6728158 1.0784768,0.6728158 1.0753371,0.6674072 1.0715817,0.6624044 1.0627538,0.6535619 1.0525336,0.6463709 1.0469837,0.6434853 1.0411487,0.6412344 1.0411487,0.6412344 1.0310887,0.6393601 1.0208574,0.6389361 1.0106473,0.639644 1.0005584,0.6413834 0.990652,0.6439659 0.9809407,0.6472089 0.9621504,0.6553275 0.9621504,0.6553275 0.9469433,0.6637392 0.9326718,0.6736538 0.9259964,0.6792232 0.9197516,0.6852662 0.9140114,0.6917958 0.9089888,0.6988873 0.9089888,0.6988873 0.9055995,0.7055983 0.9031044,0.7126906 0.9014784,0.7200309 0.9007428,0.7275134 0.90082,0.7350317 0.9017566,0.7424913 0.9036333,0.7497716 0.906387,0.7567673 0.9064169,0.756735z M1.0136623,0.7529822 L1.0136623,0.7529822 1.0027797,0.7578443 0.9915621,0.7618721 0.9800355,0.7649001 0.9682312,0.7665154 0.9563285,0.7662045 0.950466,0.7651338 0.9448092,0.7632626 0.9395231,0.7605147 0.9348234,0.7568561 0.9308917,0.7523794 0.9277285,0.7473299 0.9277535,0.7472877 0.9277535,0.7472877 0.9252413,0.740015 0.9243506,0.7323695 0.9249249,0.7246885 0.926948,0.71726 0.926948,0.71726 0.9303653,0.7103619 0.9348013,0.7040653 0.939968,0.698355 0.9456642,0.693172 0.9581315,0.6841388 0.9716157,0.676701 0.9716157,0.676701 0.9868443,0.6700264 1.002735,0.6651459 1.0109135,0.6636425 1.0192025,0.6630103 1.0275103,0.6634206 1.0356244,0.6652141 1.0356244,0.6652141 1.0422685,0.6680447 1.0482812,0.6720498 1.0534968,0.6770442 1.0575182,0.683038 1.0575182,0.683038 1.0599001,0.6905463 1.0604978,0.6984079 1.0596226,0.7062504 1.0574165,0.713828 1.0574165,0.713828 1.0541033,0.7205534 1.0497668,0.7266795 1.0447433,0.7322467 1.0391384,0.7372349 1.026846,0.7458258 1.0136623,0.7529822z" transform="matrix(1,0,0,-1,1.3545583,2.2316784)" fill="rgb(104,104,104)" fill-rule="nonzero" shaper:cutDepth="0.0000762" stroke-linecap="round" stroke-linejoin="round" /><path d="M0.9801319,0.9078731 L0.9801319,0.9078731 0.9834242,0.9136481 0.9873689,0.9189994 0.9918461,0.9239129 0.996818,0.9283262 1.0021602,0.9322828 1.0078514,0.9357184 1.0138906,0.9384972 1.020184,0.9406381 1.020184,0.9406381 1.0299239,0.9419081 1.0397496,0.9419813 1.0495281,0.9410455 1.0591828,0.9392253 1.0686772,0.9366969 1.0779929,0.9335751 1.0960497,0.9258348 1.0960497,0.9258348 1.1143352,0.9157743 1.1229837,0.9099276 1.1311512,0.903428 1.138675,0.8961924 1.1453439,0.8881653 1.1509068,0.8793324 1.1551364,0.869793 1.1551364,0.869793 1.1574511,0.8583143 1.1576961,0.8466038 1.1560446,0.8350091 1.1521918,0.823954 1.1521918,0.823954 1.1490521,0.8185453 1.1452967,0.8135425 1.1364688,0.8047 1.1262486,0.797509 1.1206987,0.7946234 1.1148637,0.7923726 1.1148637,0.7923726 1.1048037,0.7904982 1.0945724,0.7900743 1.0843623,0.7907821 1.0742734,0.7925216 1.064367,0.795104 1.0546557,0.798347 1.0358654,0.8064657 1.0358654,0.8064657 1.0206583,0.8148774 1.0063868,0.8247919 0.9997114,0.8303614 0.9934666,0.8364044 0.9877264,0.8429339 0.9827038,0.8500255 0.9827038,0.8500255 0.9793145,0.8567364 0.9768194,0.8638288 0.9751934,0.871169 0.9744578,0.8786516 0.974535,0.8861699 0.9754716,0.8936294 0.9773483,0.9009097 0.980102,0.9079054 0.9801319,0.9078731z M1.0873773,0.9041203 L1.0873773,0.9041203 1.0764947,0.9089825 1.0652771,0.9130103 1.0537505,0.9160382 1.0419462,0.9176535 1.0300435,0.9173426 1.024181,0.9162719 1.0185242,0.9144007 1.0132381,0.9116528 1.0085384,0.9079942 1.0046066,0.9035175 1.0014435,0.898468 1.0014685,0.8984258 1.0014685,0.8984258 0.9989563,0.8911531 0.9980656,0.8835077 0.9986399,0.8758266 1.000663,0.8683981 1.000663,0.8683981 1.0040803,0.8615001 1.0085163,0.8552034 1.013683,0.8494931 1.0193792,0.8443101 1.0318465,0.8352769 1.0453307,0.8278391 1.0453307,0.8278391 1.0605593,0.8211645 1.07645,0.816284 1.0846285,0.8147806 1.0929175,0.8141485 1.1012253,0.8145588 1.1093393,0.8163523 1.1093393,0.8163523 1.1159835,0.8191829 1.1219962,0.8231879 1.1272118,0.8281824 1.1312332,0.8341761 1.1312332,0.8341761 1.1336151,0.8416844 1.1342128,0.849546 1.1333376,0.8573885 1.1311315,0.8649661 1.1311315,0.8649661 1.1278183,0.8716915 1.1234818,0.8778176 1.1184583,0.8833849 1.1128534,0.888373 1.100561,0.8969639 1.0873773,0.9041203z" transform="matrix(1,0,0,-1,1.3545583,2.2316784)" fill="rgb(104,104,104)" fill-rule="nonzero" shaper:cutDepth="0.0000762" stroke-linecap="round" stroke-linejoin="round" /><path d="M-0.0426483,0.5895684 a0.3302,0.3302 0 1,1 0.6604,0 a0.3302,0.3302 0 1,1 -0.6604,0z" transform="matrix(1,0,0,-1,1.3545583,2.2316784)" fill="rgb(255,255,255)" stroke="rgb(0,0,0)" stroke-width="0.0010cm" stroke-linecap="round" stroke-linejoin="round" shaper:cutDepth="0.0015875" /></svg>