%TF.GenerationSoftware,KiCad,Pcbnew,(6.0.9)*%
%TF.CreationDate,2023-01-10T02:11:57-09:00*%
%TF.ProjectId,ABSIS_Pit Management System,41425349-535f-4506-9974-204d616e6167,1*%
%TF.SameCoordinates,Original*%
%TF.FileFunction,Copper,L1,Top*%
%TF.FilePolarity,Positive*%
%FSLAX46Y46*%
G04 Gerber Fmt 4.6, Leading zero omitted, Abs format (unit mm)*
G04 Created by KiCad (PCBNEW (6.0.9)) date 2023-01-10 02:11:57*
%MOMM*%
%LPD*%
G01*
G04 APERTURE LIST*
G04 Aperture macros list*
%AMRoundRect*
0 Rectangle with rounded corners*
0 $1 Rounding radius*
0 $2 $3 $4 $5 $6 $7 $8 $9 X,Y pos of 4 corners*
0 Add a 4 corners polygon primitive as box body*
4,1,4,$2,$3,$4,$5,$6,$7,$8,$9,$2,$3,0*
0 Add four circle primitives for the rounded corners*
1,1,$1+$1,$2,$3*
1,1,$1+$1,$4,$5*
1,1,$1+$1,$6,$7*
1,1,$1+$1,$8,$9*
0 Add four rect primitives between the rounded corners*
20,1,$1+$1,$2,$3,$4,$5,0*
20,1,$1+$1,$4,$5,$6,$7,0*
20,1,$1+$1,$6,$7,$8,$9,0*
20,1,$1+$1,$8,$9,$2,$3,0*%
%AMFreePoly0*
4,1,22,0.500000,-0.750000,0.000000,-0.750000,0.000000,-0.745033,-0.079941,-0.743568,-0.215256,-0.701293,-0.333266,-0.622738,-0.424486,-0.514219,-0.481581,-0.384460,-0.499164,-0.250000,-0.500000,-0.250000,-0.500000,0.250000,-0.499164,0.250000,-0.499963,0.256109,-0.478152,0.396186,-0.417904,0.524511,-0.324060,0.630769,-0.204165,0.706417,-0.067858,0.745374,0.000000,0.744959,0.000000,0.750000,
0.500000,0.750000,0.500000,-0.750000,0.500000,-0.750000,$1*%
%AMFreePoly1*
4,1,20,0.000000,0.744959,0.073905,0.744508,0.209726,0.703889,0.328688,0.626782,0.421226,0.519385,0.479903,0.390333,0.500000,0.250000,0.500000,-0.250000,0.499851,-0.262216,0.476331,-0.402017,0.414519,-0.529596,0.319384,-0.634700,0.198574,-0.708877,0.061801,-0.746166,0.000000,-0.745033,0.000000,-0.750000,-0.500000,-0.750000,-0.500000,0.750000,0.000000,0.750000,0.000000,0.744959,
0.000000,0.744959,$1*%
G04 Aperture macros list end*
%TA.AperFunction,ComponentPad*%
%ADD10R,1.600000X1.600000*%
%TD*%
%TA.AperFunction,ComponentPad*%
%ADD11O,1.600000X1.600000*%
%TD*%
%TA.AperFunction,ComponentPad*%
%ADD12R,1.700000X1.700000*%
%TD*%
%TA.AperFunction,ComponentPad*%
%ADD13O,1.700000X1.700000*%
%TD*%
%TA.AperFunction,ComponentPad*%
%ADD14RoundRect,0.250001X-1.399999X1.099999X-1.399999X-1.099999X1.399999X-1.099999X1.399999X1.099999X0*%
%TD*%
%TA.AperFunction,ComponentPad*%
%ADD15O,3.300000X2.700000*%
%TD*%
%TA.AperFunction,SMDPad,CuDef*%
%ADD16FreePoly0,180.000000*%
%TD*%
%TA.AperFunction,SMDPad,CuDef*%
%ADD17FreePoly1,180.000000*%
%TD*%
%TA.AperFunction,Conductor*%
%ADD18C,0.635000*%
%TD*%
%TA.AperFunction,Conductor*%
%ADD19C,0.914400*%
%TD*%
G04 APERTURE END LIST*
D10*
%TO.P,XU1,1*%
%TO.N,/TX0_D1*%
X35517600Y43486800D03*
D11*
%TO.P,XU1,2*%
%TO.N,/RX1_D0*%
X35517600Y40946800D03*
%TO.P,XU1,3*%
%TO.N,GND*%
X35517600Y38406800D03*
%TO.P,XU1,4*%
X35517600Y35866800D03*
%TO.P,XU1,5*%
%TO.N,/SDA_D2*%
X35517600Y33326800D03*
%TO.P,XU1,6*%
%TO.N,/~{SCL_D3}*%
X35517600Y30786800D03*
%TO.P,XU1,7*%
%TO.N,/D4_A6*%
X35517600Y28246800D03*
%TO.P,XU1,8*%
%TO.N,/~{D5}*%
X35517600Y25706800D03*
%TO.P,XU1,9*%
%TO.N,/~{D6_A7}*%
X35517600Y23166800D03*
%TO.P,XU1,10*%
%TO.N,/D7*%
X35517600Y20626800D03*
%TO.P,XU1,11*%
%TO.N,/D8_A8*%
X35517600Y18086800D03*
%TO.P,XU1,12*%
%TO.N,/PWR_OK*%
X35517600Y15546800D03*
%TO.P,XU1,13*%
%TO.N,/~{D10_A10}*%
X50757600Y15546800D03*
%TO.P,XU1,14*%
%TO.N,/D16_MOSI*%
X50757600Y18086800D03*
%TO.P,XU1,15*%
%TO.N,/D14_MISO*%
X50757600Y20626800D03*
%TO.P,XU1,16*%
%TO.N,/D15_SCK*%
X50757600Y23166800D03*
%TO.P,XU1,17*%
%TO.N,/A0*%
X50757600Y25706800D03*
%TO.P,XU1,18*%
%TO.N,/A1*%
X50757600Y28246800D03*
%TO.P,XU1,19*%
%TO.N,/A2*%
X50757600Y30786800D03*
%TO.P,XU1,20*%
%TO.N,/A3*%
X50757600Y33326800D03*
%TO.P,XU1,21*%
%TO.N,+5V*%
X50757600Y35866800D03*
%TO.P,XU1,22*%
%TO.N,/RST*%
X50757600Y38406800D03*
%TO.P,XU1,23*%
%TO.N,GND*%
X50757600Y40946800D03*
%TO.P,XU1,24*%
%TO.N,/+5VSB*%
X50757600Y43486800D03*
%TD*%
D12*
%TO.P,J1,1*%
%TO.N,/D8_A8*%
X22860000Y12900000D03*
D13*
%TO.P,J1,2*%
%TO.N,/+5VSB*%
X25400000Y12900000D03*
%TO.P,J1,3*%
%TO.N,/PWR_OK*%
X27940000Y12900000D03*
%TO.P,J1,4*%
%TO.N,GND*%
X30480000Y12900000D03*
%TD*%
D14*
%TO.P,J3,1*%
%TO.N,/EXT_ACC1-*%
X13335000Y41910000D03*
D15*
%TO.P,J3,2*%
%TO.N,/EXT_ACC1+*%
X13335000Y37710000D03*
%TO.P,J3,3*%
%TO.N,/EXT_ACC2-*%
X13335000Y33510000D03*
%TO.P,J3,4*%
%TO.N,/EXT_ACC2+*%
X13335000Y29310000D03*
%TO.P,J3,5*%
%TO.N,/EXT_ACC3-*%
X7835000Y41910000D03*
%TO.P,J3,6*%
%TO.N,/EXT_ACC3+*%
X7835000Y37710000D03*
%TO.P,J3,7*%
%TO.N,/EXT_ACC4-*%
X7835000Y33510000D03*
%TO.P,J3,8*%
%TO.N,/EXT_ACC4+*%
X7835000Y29310000D03*
%TD*%
D16*
%TO.P,RST1,1*%
%TO.N,GND*%
X47005000Y47625000D03*
D17*
%TO.P,RST1,2*%
%TO.N,/RST*%
X45705000Y47625000D03*
%TD*%
D10*
%TO.P,U1,1*%
%TO.N,/D4_A6*%
X31750000Y40259000D03*
D11*
%TO.P,U1,2*%
%TO.N,GND*%
X31750000Y42799000D03*
%TO.P,U1,3*%
%TO.N,/EXT_ACC1-*%
X24130000Y42799000D03*
%TO.P,U1,4*%
%TO.N,/EXT_ACC1+*%
X24130000Y40259000D03*
%TD*%
D10*
%TO.P,U2,1*%
%TO.N,/~{D5}*%
X31750000Y33274000D03*
D11*
%TO.P,U2,2*%
%TO.N,GND*%
X31750000Y35814000D03*
%TO.P,U2,3*%
%TO.N,/EXT_ACC2-*%
X24130000Y35814000D03*
%TO.P,U2,4*%
%TO.N,/EXT_ACC2+*%
X24130000Y33274000D03*
%TD*%
D10*
%TO.P,U4,1*%
%TO.N,/D7*%
X31750000Y19304000D03*
D11*
%TO.P,U4,2*%
%TO.N,GND*%
X31750000Y21844000D03*
%TO.P,U4,3*%
%TO.N,/EXT_ACC4-*%
X24130000Y21844000D03*
%TO.P,U4,4*%
%TO.N,/EXT_ACC4+*%
X24130000Y19304000D03*
%TD*%
D12*
%TO.P,J2,1*%
%TO.N,/A3*%
X38100000Y5280000D03*
D13*
%TO.P,J2,2*%
%TO.N,/A2*%
X38100000Y7820000D03*
%TO.P,J2,3*%
%TO.N,/A1*%
X40640000Y5280000D03*
%TO.P,J2,4*%
%TO.N,/A0*%
X40640000Y7820000D03*
%TO.P,J2,5*%
%TO.N,/D15_SCK*%
X43180000Y5280000D03*
%TO.P,J2,6*%
%TO.N,/D14_MISO*%
X43180000Y7820000D03*
%TO.P,J2,7*%
%TO.N,GND*%
X45720000Y5280000D03*
%TO.P,J2,8*%
%TO.N,Net-(J2-Pad8)*%
X45720000Y7820000D03*
%TD*%
D10*
%TO.P,U3,1*%
%TO.N,/~{D6_A7}*%
X31750000Y26289000D03*
D11*
%TO.P,U3,2*%
%TO.N,GND*%
X31750000Y28829000D03*
%TO.P,U3,3*%
%TO.N,/EXT_ACC3-*%
X24130000Y28829000D03*
%TO.P,U3,4*%
%TO.N,/EXT_ACC3+*%
X24130000Y26289000D03*
%TD*%
D18*
%TO.N,GND*%
X50757600Y40946800D02*
X52075101Y42264301D01*
X52075101Y42264301D02*
X52075101Y44119201D01*
X52075101Y44119201D02*
X48569302Y47625000D01*
X48569302Y47625000D02*
X47005000Y47625000D01*
%TO.N,/A3*%
X45310085Y11692531D02*
X46736001Y13118447D01*
X37443599Y9187501D02*
X38286619Y9187501D01*
X46736000Y29305200D02*
X50757600Y33326800D01*
X41617357Y10857521D02*
X42674875Y10857521D01*
X46736001Y13118447D02*
X46736000Y29305200D01*
X38100000Y5280000D02*
X36732499Y6647501D01*
X43509885Y11692531D02*
X45310085Y11692531D01*
X42674875Y10857521D02*
X43509885Y11692531D01*
X39121629Y10022511D02*
X40782347Y10022511D01*
X40782347Y10022511D02*
X41617357Y10857521D01*
X38286619Y9187501D02*
X39121629Y10022511D01*
X36732499Y6647501D02*
X36732499Y8476401D01*
X36732499Y8476401D02*
X37443599Y9187501D01*
%TO.N,/A2*%
X41963229Y10022511D02*
X43020747Y10022511D01*
X47571011Y27600211D02*
X50757600Y30786800D01*
X43020747Y10022511D02*
X43855757Y10857521D01*
X47571011Y12772575D02*
X47571011Y27600211D01*
X43855757Y10857521D02*
X45655957Y10857521D01*
X45655957Y10857521D02*
X47571011Y12772575D01*
X39467501Y9187501D02*
X41128219Y9187501D01*
X38100000Y7820000D02*
X39467501Y9187501D01*
X41128219Y9187501D02*
X41963229Y10022511D01*
%TO.N,/A1*%
X42846600Y3073400D02*
X46718185Y3073400D01*
X52910112Y9265327D02*
X52910112Y26094288D01*
X52910112Y26094288D02*
X50757600Y28246800D01*
X46718185Y3073400D02*
X52910112Y9265327D01*
X40640000Y5280000D02*
X42846600Y3073400D01*
%TO.N,/A0*%
X46001829Y10022511D02*
X48406022Y12426704D01*
X44201629Y10022511D02*
X46001829Y10022511D01*
X48406022Y12426704D02*
X48406022Y23355222D01*
X43366619Y9187501D02*
X44201629Y10022511D01*
X42309101Y9187501D02*
X43366619Y9187501D01*
X40941600Y7820000D02*
X42309101Y9187501D01*
X48406022Y23355222D02*
X50757600Y25706800D01*
X40640000Y7820000D02*
X40941600Y7820000D01*
%TO.N,/D4_A6*%
X31750000Y40259000D02*
X34036000Y37973000D01*
X34036000Y37973000D02*
X34036000Y29728400D01*
X34036000Y29728400D02*
X35517600Y28246800D01*
%TO.N,/D8_A8*%
X22860000Y12900000D02*
X24892000Y14932000D01*
X25908000Y14932000D02*
X27686000Y16710000D01*
X27686000Y16710000D02*
X34140800Y16710000D01*
X34140800Y16710000D02*
X35517600Y18086800D01*
X24892000Y14932000D02*
X25908000Y14932000D01*
%TO.N,/D7*%
X34194800Y19304000D02*
X35517600Y20626800D01*
X31750000Y19304000D02*
X34194800Y19304000D01*
%TO.N,/D14_MISO*%
X44547501Y9187501D02*
X46347701Y9187501D01*
X46347701Y9187501D02*
X49241033Y12080833D01*
X49241033Y12080833D02*
X49241033Y19110233D01*
X49241033Y19110233D02*
X50757600Y20626800D01*
X43180000Y7820000D02*
X44547501Y9187501D01*
%TO.N,/~{D6_A7}*%
X32395400Y26289000D02*
X35517600Y23166800D01*
X31750000Y26289000D02*
X32395400Y26289000D01*
%TO.N,/D15_SCK*%
X52075101Y9611199D02*
X52075101Y21849299D01*
X52075101Y21849299D02*
X50757600Y23166800D01*
X43696097Y5280000D02*
X45063598Y3912499D01*
X45063598Y3912499D02*
X46376401Y3912499D01*
X46376401Y3912499D02*
X52075101Y9611199D01*
X43180000Y5280000D02*
X43696097Y5280000D01*
%TO.N,/~{D5}*%
X31750000Y33274000D02*
X33067501Y31956499D01*
X33067501Y31956499D02*
X33067501Y28156899D01*
X33067501Y28156899D02*
X35517600Y25706800D01*
%TO.N,/RST*%
X50757600Y38406800D02*
X53086000Y40735200D01*
X47752000Y49730000D02*
X47128128Y49730000D01*
X47128128Y49730000D02*
X45705000Y48306872D01*
X53086000Y40735200D02*
X53086000Y44396000D01*
X53086000Y44396000D02*
X47752000Y49730000D01*
X45705000Y48306872D02*
X45705000Y47625000D01*
%TO.N,/PWR_OK*%
X30586800Y15546800D02*
X35517600Y15546800D01*
X27940000Y12900000D02*
X30586800Y15546800D01*
D19*
%TO.N,/+5VSB*%
X50757600Y43486800D02*
X48566800Y43486800D01*
D18*
%TO.N,/EXT_ACC4-*%
X10153501Y17986499D02*
X5334000Y22806000D01*
X5334000Y31009000D02*
X7835000Y33510000D01*
X24762401Y17986499D02*
X10153501Y17986499D01*
X25447501Y18671599D02*
X24762401Y17986499D01*
X24130000Y21844000D02*
X25447501Y20526499D01*
X25447501Y20526499D02*
X25447501Y18671599D01*
X5334000Y22806000D02*
X5334000Y31009000D01*
%TO.N,/EXT_ACC4+*%
X24130000Y19304000D02*
X10615098Y19304000D01*
X10615098Y19304000D02*
X6277499Y23641599D01*
X6277499Y27752499D02*
X7835000Y29310000D01*
X6277499Y23641599D02*
X6277499Y27752499D01*
%TO.N,/EXT_ACC3-*%
X24130000Y28829000D02*
X27178000Y25781000D01*
X3556001Y37631001D02*
X7835000Y41910000D01*
X9398000Y16202000D02*
X3556001Y22043999D01*
X3556001Y22043999D02*
X3556001Y37631001D01*
X27178000Y25781000D02*
X27178000Y18040332D01*
X25339668Y16202000D02*
X9398000Y16202000D01*
X27178000Y18040332D02*
X25339668Y16202000D01*
%TO.N,/EXT_ACC3+*%
X4391011Y22389871D02*
X4391011Y34266011D01*
X26282512Y18325727D02*
X24993796Y17037011D01*
X26282512Y24136488D02*
X26282512Y18325727D01*
X24130000Y26289000D02*
X26282512Y24136488D01*
X24993796Y17037011D02*
X9743871Y17037011D01*
X4391011Y34266011D02*
X7835000Y37710000D01*
X9743871Y17037011D02*
X4391011Y22389871D01*
%TO.N,/EXT_ACC2-*%
X15639000Y35814000D02*
X13335000Y33510000D01*
X24130000Y35814000D02*
X15639000Y35814000D01*
%TO.N,/EXT_ACC2+*%
X17299000Y33274000D02*
X13335000Y29310000D01*
X24130000Y33274000D02*
X17299000Y33274000D01*
%TO.N,/EXT_ACC1-*%
X14224000Y42799000D02*
X13335000Y41910000D01*
X24130000Y42799000D02*
X14224000Y42799000D01*
%TO.N,/EXT_ACC1+*%
X24130000Y40259000D02*
X15884000Y40259000D01*
X15884000Y40259000D02*
X13335000Y37710000D01*
%TD*%
%TA.AperFunction,Conductor*%
%TO.N,/+5VSB*%
G36*
X12078181Y50471498D02*
G01*
X12124674Y50417842D01*
X12134778Y50347568D01*
X12107564Y50285694D01*
X12060002Y50227586D01*
X12059997Y50227579D01*
X12057287Y50224268D01*
X11907073Y49979142D01*
X11791517Y49715898D01*
X11712756Y49439406D01*
X11672249Y49154784D01*
X11672227Y49150495D01*
X11672226Y49150488D01*
X11670780Y48874437D01*
X11670743Y48867297D01*
X11671302Y48863053D01*
X11671302Y48863049D01*
X11677418Y48816595D01*
X11708268Y48582266D01*
X11784129Y48304964D01*
X11785813Y48301016D01*
X11888128Y48061144D01*
X11896923Y48040524D01*
X12044561Y47793839D01*
X12224313Y47569472D01*
X12241397Y47553260D01*
X12420068Y47383708D01*
X12432851Y47371577D01*
X12621165Y47236259D01*
X12632797Y47227901D01*
X12666317Y47203814D01*
X12670112Y47201805D01*
X12670113Y47201804D01*
X12691869Y47190285D01*
X12920392Y47069288D01*
X13190373Y46970489D01*
X13471264Y46909245D01*
X13499841Y46906996D01*
X13694282Y46891693D01*
X13694291Y46891693D01*
X13696739Y46891500D01*
X13852271Y46891500D01*
X13854407Y46891646D01*
X13854418Y46891646D01*
X14062548Y46905835D01*
X14062554Y46905836D01*
X14066825Y46906127D01*
X14071020Y46906996D01*
X14071022Y46906996D01*
X14304037Y46955251D01*
X14348342Y46964426D01*
X14619343Y47060393D01*
X14707362Y47105823D01*
X14871005Y47190285D01*
X14871006Y47190285D01*
X14874812Y47192250D01*
X14878313Y47194711D01*
X14878317Y47194713D01*
X15031214Y47302171D01*
X15110023Y47357559D01*
X15320622Y47553260D01*
X15502713Y47775732D01*
X15652927Y48020858D01*
X15710652Y48152358D01*
X15766757Y48280170D01*
X15768483Y48284102D01*
X15777987Y48317464D01*
X15842918Y48545409D01*
X15847244Y48560594D01*
X15887751Y48845216D01*
X15887845Y48863049D01*
X15889235Y49128417D01*
X15889235Y49128424D01*
X15889257Y49132703D01*
X15851732Y49417734D01*
X15775871Y49695036D01*
X15663077Y49959476D01*
X15515439Y50206161D01*
X15512758Y50209508D01*
X15512752Y50209516D01*
X15450900Y50286720D01*
X15423918Y50352389D01*
X15436723Y50422221D01*
X15485250Y50474045D01*
X15549234Y50491500D01*
X46414576Y50491500D01*
X46482697Y50471498D01*
X46529190Y50417842D01*
X46539294Y50347568D01*
X46509800Y50282988D01*
X46501159Y50273961D01*
X46495388Y50268504D01*
X46491549Y50262855D01*
X46487421Y50258005D01*
X46480563Y50250575D01*
X45149245Y48919257D01*
X45141478Y48912114D01*
X45103307Y48879857D01*
X45099164Y48874438D01*
X45099163Y48874437D01*
X45055869Y48817810D01*
X45053971Y48815390D01*
X45005031Y48754522D01*
X45001998Y48748412D01*
X45000696Y48746376D01*
X45000377Y48745920D01*
X44999967Y48745262D01*
X44999698Y48744772D01*
X44998447Y48742706D01*
X44994303Y48737286D01*
X44967226Y48679218D01*
X44961305Y48666521D01*
X44959971Y48663750D01*
X44925233Y48593770D01*
X44923581Y48587145D01*
X44922747Y48584878D01*
X44922528Y48584353D01*
X44922279Y48583649D01*
X44922117Y48583099D01*
X44921340Y48580815D01*
X44918457Y48574633D01*
X44916968Y48567973D01*
X44916967Y48567969D01*
X44905940Y48518640D01*
X44887434Y48475670D01*
X44826405Y48385190D01*
X44826398Y48385178D01*
X44823893Y48381464D01*
X44761446Y48252572D01*
X44717162Y48113812D01*
X44693400Y47972574D01*
X44686318Y47893627D01*
X44686167Y47881285D01*
X44686325Y47878863D01*
X44691005Y47806964D01*
X44691271Y47798779D01*
X44691271Y47454481D01*
X44690767Y47443223D01*
X44686318Y47393627D01*
X44686167Y47381285D01*
X44691317Y47302171D01*
X44691662Y47299762D01*
X44705691Y47201804D01*
X44711621Y47160394D01*
X44712880Y47156089D01*
X44712881Y47156084D01*
X44738694Y47067813D01*
X44752503Y47020590D01*
X44811783Y46890211D01*
X44814195Y46886440D01*
X44814199Y46886432D01*
X44887843Y46771279D01*
X44890258Y46767503D01*
X44983748Y46659002D01*
X45093511Y46563250D01*
X45097272Y46560812D01*
X45097275Y46560810D01*
X45104943Y46555840D01*
X45213696Y46485350D01*
X45217757Y46483474D01*
X45217758Y46483473D01*
X45226543Y46479414D01*
X45345924Y46424252D01*
X45413848Y46403939D01*
X45478844Y46384501D01*
X45478849Y46384500D01*
X45483142Y46383216D01*
X45487574Y46382554D01*
X45487577Y46382553D01*
X45622765Y46362350D01*
X45622768Y46362350D01*
X45627196Y46361688D01*
X45701855Y46361232D01*
X45765945Y46360840D01*
X45765950Y46360840D01*
X45770417Y46360813D01*
X45772861Y46361148D01*
X45776656Y46361271D01*
X46205000Y46361271D01*
X46236986Y46363559D01*
X46271373Y46366018D01*
X46271374Y46366018D01*
X46278111Y46366500D01*
X46314440Y46377167D01*
X46367868Y46380988D01*
X46505000Y46361271D01*
X46995008Y46361271D01*
X46995778Y46361269D01*
X47065931Y46360840D01*
X47065937Y46360840D01*
X47070417Y46360813D01*
X47154507Y46372331D01*
X47210276Y46379970D01*
X47210280Y46379971D01*
X47214727Y46380580D01*
X47352436Y46419937D01*
X47485398Y46479414D01*
X47489180Y46481800D01*
X47489187Y46481804D01*
X47602736Y46553449D01*
X47606526Y46555840D01*
X47717452Y46650246D01*
X47811209Y46756407D01*
X47871295Y46794226D01*
X47905651Y46799000D01*
X48174971Y46799000D01*
X48243092Y46778998D01*
X48264066Y46762095D01*
X50179255Y44846906D01*
X50213281Y44784594D01*
X50208216Y44713779D01*
X50165669Y44656943D01*
X50143409Y44643616D01*
X50106093Y44626216D01*
X50096593Y44620731D01*
X49918133Y44495772D01*
X49909725Y44488716D01*
X49755684Y44334675D01*
X49748628Y44326267D01*
X49623669Y44147807D01*
X49618186Y44138311D01*
X49526110Y43940853D01*
X49522364Y43930561D01*
X49476206Y43758297D01*
X49476542Y43744201D01*
X49484484Y43740800D01*
X50885600Y43740800D01*
X50953721Y43720798D01*
X51000214Y43667142D01*
X51011600Y43614800D01*
X51011600Y43358800D01*
X50991598Y43290679D01*
X50937942Y43244186D01*
X50885600Y43232800D01*
X49489633Y43232800D01*
X49476102Y43228827D01*
X49474873Y43220278D01*
X49522364Y43043039D01*
X49526110Y43032747D01*
X49618186Y42835289D01*
X49623669Y42825793D01*
X49748628Y42647333D01*
X49755684Y42638925D01*
X49909725Y42484884D01*
X49918133Y42477828D01*
X50096593Y42352869D01*
X50106089Y42347386D01*
X50140649Y42331271D01*
X50193934Y42284354D01*
X50213395Y42216077D01*
X50192853Y42148117D01*
X50140649Y42102881D01*
X50105838Y42086649D01*
X50105833Y42086646D01*
X50100851Y42084323D01*
X49995989Y42010898D01*
X49917811Y41956157D01*
X49917808Y41956155D01*
X49913300Y41952998D01*
X49751402Y41791100D01*
X49748245Y41786592D01*
X49748243Y41786589D01*
X49700546Y41718471D01*
X49620077Y41603549D01*
X49617754Y41598567D01*
X49617751Y41598562D01*
X49532065Y41414805D01*
X49523316Y41396043D01*
X49464057Y41174887D01*
X49444102Y40946800D01*
X49464057Y40718713D01*
X49465481Y40713400D01*
X49465481Y40713398D01*
X49517943Y40517611D01*
X49523316Y40497557D01*
X49525639Y40492576D01*
X49525639Y40492575D01*
X49617751Y40295038D01*
X49617754Y40295033D01*
X49620077Y40290051D01*
X49672022Y40215866D01*
X49742243Y40115581D01*
X49751402Y40102500D01*
X49913300Y39940602D01*
X49917808Y39937445D01*
X49917811Y39937443D01*
X49960477Y39907568D01*
X50100851Y39809277D01*
X50105833Y39806954D01*
X50105838Y39806951D01*
X50140057Y39790995D01*
X50193342Y39744078D01*
X50212803Y39675801D01*
X50192261Y39607841D01*
X50140057Y39562605D01*
X50105838Y39546649D01*
X50105833Y39546646D01*
X50100851Y39544323D01*
X50031562Y39495806D01*
X49917811Y39416157D01*
X49917808Y39416155D01*
X49913300Y39412998D01*
X49751402Y39251100D01*
X49748245Y39246592D01*
X49748243Y39246589D01*
X49693502Y39168411D01*
X49620077Y39063549D01*
X49617754Y39058567D01*
X49617751Y39058562D01*
X49551302Y38916060D01*
X49523316Y38856043D01*
X49464057Y38634887D01*
X49444102Y38406800D01*
X49464057Y38178713D01*
X49465481Y38173400D01*
X49465481Y38173398D01*
X49505189Y38025209D01*
X49523316Y37957557D01*
X49525639Y37952576D01*
X49525639Y37952575D01*
X49617751Y37755038D01*
X49617754Y37755033D01*
X49620077Y37750051D01*
X49677724Y37667723D01*
X49740080Y37578670D01*
X49751402Y37562500D01*
X49913300Y37400602D01*
X49917808Y37397445D01*
X49917811Y37397443D01*
X49995989Y37342702D01*
X50100851Y37269277D01*
X50105833Y37266954D01*
X50105838Y37266951D01*
X50140057Y37250995D01*
X50193342Y37204078D01*
X50212803Y37135801D01*
X50192261Y37067841D01*
X50140057Y37022605D01*
X50105838Y37006649D01*
X50105833Y37006646D01*
X50100851Y37004323D01*
X49995989Y36930898D01*
X49917811Y36876157D01*
X49917808Y36876155D01*
X49913300Y36872998D01*
X49751402Y36711100D01*
X49748245Y36706592D01*
X49748243Y36706589D01*
X49714545Y36658463D01*
X49620077Y36523549D01*
X49617754Y36518567D01*
X49617751Y36518562D01*
X49592002Y36463342D01*
X49523316Y36316043D01*
X49521894Y36310735D01*
X49521893Y36310733D01*
X49465481Y36100202D01*
X49464057Y36094887D01*
X49444102Y35866800D01*
X49464057Y35638713D01*
X49523316Y35417557D01*
X49525639Y35412576D01*
X49525639Y35412575D01*
X49617751Y35215038D01*
X49617754Y35215033D01*
X49620077Y35210051D01*
X49751402Y35022500D01*
X49913300Y34860602D01*
X49917808Y34857445D01*
X49917811Y34857443D01*
X49995989Y34802702D01*
X50100851Y34729277D01*
X50105833Y34726954D01*
X50105838Y34726951D01*
X50140057Y34710995D01*
X50193342Y34664078D01*
X50212803Y34595801D01*
X50192261Y34527841D01*
X50140057Y34482605D01*
X50105838Y34466649D01*
X50105833Y34466646D01*
X50100851Y34464323D01*
X49995989Y34390898D01*
X49917811Y34336157D01*
X49917808Y34336155D01*
X49913300Y34332998D01*
X49751402Y34171100D01*
X49748245Y34166592D01*
X49748243Y34166589D01*
X49714723Y34118717D01*
X49620077Y33983549D01*
X49617754Y33978567D01*
X49617751Y33978562D01*
X49525639Y33781025D01*
X49523316Y33776043D01*
X49464057Y33554887D01*
X49444102Y33326800D01*
X49444581Y33321325D01*
X49444581Y33321324D01*
X49450675Y33251666D01*
X49436685Y33182061D01*
X49414249Y33151590D01*
X46180245Y29917585D01*
X46172478Y29910442D01*
X46134307Y29878185D01*
X46130164Y29872766D01*
X46130163Y29872765D01*
X46086869Y29816138D01*
X46084971Y29813718D01*
X46036031Y29752850D01*
X46032998Y29746740D01*
X46031696Y29744704D01*
X46031377Y29744248D01*
X46030967Y29743590D01*
X46030698Y29743100D01*
X46029447Y29741034D01*
X46025303Y29735614D01*
X45998063Y29677197D01*
X45992305Y29664849D01*
X45990971Y29662078D01*
X45956233Y29592098D01*
X45954581Y29585473D01*
X45953747Y29583206D01*
X45953528Y29582681D01*
X45953279Y29581977D01*
X45953117Y29581427D01*
X45952339Y29579143D01*
X45949457Y29572961D01*
X45947969Y29566303D01*
X45947966Y29566295D01*
X45932419Y29496742D01*
X45931711Y29493746D01*
X45928554Y29481084D01*
X45912816Y29417962D01*
X45912625Y29411141D01*
X45912297Y29408744D01*
X45912096Y29407630D01*
X45911434Y29402856D01*
X45910307Y29397816D01*
X45910000Y29392325D01*
X45910000Y29318912D01*
X45909951Y29315394D01*
X45907805Y29238565D01*
X45909084Y29231858D01*
X45909594Y29225523D01*
X45910000Y29215416D01*
X45910001Y13512777D01*
X45889999Y13444656D01*
X45873096Y13423682D01*
X45004850Y12555436D01*
X44942538Y12521410D01*
X44915755Y12518531D01*
X43549907Y12518531D01*
X43539364Y12518973D01*
X43489585Y12523153D01*
X43482825Y12522251D01*
X43482821Y12522251D01*
X43412210Y12512830D01*
X43409156Y12512460D01*
X43338251Y12504757D01*
X43338250Y12504757D01*
X43331468Y12504020D01*
X43325001Y12501843D01*
X43322653Y12501327D01*
X43322099Y12501229D01*
X43321343Y12501053D01*
X43320799Y12500895D01*
X43318459Y12500320D01*
X43311695Y12499418D01*
X43305286Y12497085D01*
X43305281Y12497084D01*
X43238344Y12472720D01*
X43235437Y12471702D01*
X43167844Y12448955D01*
X43167839Y12448953D01*
X43161374Y12446777D01*
X43155521Y12443260D01*
X43153338Y12442251D01*
X43152831Y12442042D01*
X43152111Y12441698D01*
X43151613Y12441427D01*
X43149468Y12440372D01*
X43143050Y12438036D01*
X43077096Y12396180D01*
X43074528Y12394595D01*
X43007541Y12354345D01*
X43002584Y12349657D01*
X43000648Y12348188D01*
X42999725Y12347547D01*
X42995880Y12344639D01*
X42991521Y12341873D01*
X42987421Y12338208D01*
X42935499Y12286286D01*
X42932977Y12283833D01*
X42887300Y12240638D01*
X42877145Y12231035D01*
X42873311Y12225393D01*
X42869188Y12220549D01*
X42862332Y12213119D01*
X42608634Y11959420D01*
X42369640Y11720426D01*
X42307327Y11686401D01*
X42280544Y11683521D01*
X41657379Y11683521D01*
X41646836Y11683963D01*
X41597057Y11688143D01*
X41590297Y11687241D01*
X41590293Y11687241D01*
X41519682Y11677820D01*
X41516628Y11677450D01*
X41445723Y11669747D01*
X41445722Y11669747D01*
X41438940Y11669010D01*
X41432473Y11666833D01*
X41430125Y11666317D01*
X41429571Y11666219D01*
X41428815Y11666043D01*
X41428271Y11665885D01*
X41425931Y11665310D01*
X41419167Y11664408D01*
X41412758Y11662075D01*
X41412753Y11662074D01*
X41345816Y11637710D01*
X41342909Y11636692D01*
X41275316Y11613945D01*
X41275311Y11613943D01*
X41268846Y11611767D01*
X41262993Y11608250D01*
X41260810Y11607241D01*
X41260303Y11607032D01*
X41259583Y11606688D01*
X41259085Y11606417D01*
X41256940Y11605362D01*
X41250522Y11603026D01*
X41184568Y11561170D01*
X41182000Y11559585D01*
X41147580Y11538903D01*
X41115013Y11519335D01*
X41110056Y11514647D01*
X41108120Y11513178D01*
X41107197Y11512537D01*
X41103352Y11509629D01*
X41098993Y11506863D01*
X41094893Y11503198D01*
X41042971Y11451276D01*
X41040450Y11448823D01*
X40984617Y11396025D01*
X40980783Y11390383D01*
X40976660Y11385539D01*
X40969804Y11378109D01*
X40477112Y10885416D01*
X40414799Y10851391D01*
X40388016Y10848511D01*
X39161651Y10848511D01*
X39151108Y10848953D01*
X39101329Y10853133D01*
X39094569Y10852231D01*
X39094565Y10852231D01*
X39023954Y10842810D01*
X39020900Y10842440D01*
X38949995Y10834737D01*
X38949994Y10834737D01*
X38943212Y10834000D01*
X38936745Y10831823D01*
X38934397Y10831307D01*
X38933843Y10831209D01*
X38933087Y10831033D01*
X38932543Y10830875D01*
X38930203Y10830300D01*
X38923439Y10829398D01*
X38917030Y10827065D01*
X38917025Y10827064D01*
X38850088Y10802700D01*
X38847181Y10801682D01*
X38779588Y10778935D01*
X38779583Y10778933D01*
X38773118Y10776757D01*
X38767265Y10773240D01*
X38765082Y10772231D01*
X38764575Y10772022D01*
X38763855Y10771678D01*
X38763357Y10771407D01*
X38761212Y10770352D01*
X38754794Y10768016D01*
X38688840Y10726160D01*
X38686272Y10724575D01*
X38619285Y10684325D01*
X38614328Y10679637D01*
X38612392Y10678168D01*
X38611469Y10677527D01*
X38607624Y10674619D01*
X38603265Y10671853D01*
X38599165Y10668188D01*
X38547243Y10616266D01*
X38544722Y10613813D01*
X38488889Y10561015D01*
X38485055Y10555373D01*
X38480932Y10550529D01*
X38474076Y10543099D01*
X37981384Y10050406D01*
X37919071Y10016381D01*
X37892288Y10013501D01*
X37483632Y10013501D01*
X37473088Y10013943D01*
X37463599Y10014740D01*
X37423299Y10018124D01*
X37345856Y10007790D01*
X37342856Y10007428D01*
X37301101Y10002892D01*
X37271965Y9999727D01*
X37271963Y9999727D01*
X37265182Y9998990D01*
X37258716Y9996814D01*
X37256366Y9996297D01*
X37255817Y9996200D01*
X37255058Y9996023D01*
X37254513Y9995865D01*
X37252174Y9995290D01*
X37245409Y9994388D01*
X37172003Y9967670D01*
X37169168Y9966677D01*
X37095088Y9941747D01*
X37089238Y9938232D01*
X37087026Y9937210D01*
X37086521Y9937002D01*
X37085838Y9936676D01*
X37085322Y9936395D01*
X37083181Y9935341D01*
X37076765Y9933006D01*
X37071000Y9929348D01*
X37071001Y9929348D01*
X37010840Y9891170D01*
X37008222Y9889553D01*
X36941255Y9849315D01*
X36936298Y9844627D01*
X36934362Y9843158D01*
X36933439Y9842517D01*
X36929594Y9839609D01*
X36925235Y9836843D01*
X36921135Y9833178D01*
X36869213Y9781256D01*
X36866692Y9778803D01*
X36810859Y9726005D01*
X36807025Y9720363D01*
X36802902Y9715519D01*
X36796046Y9708089D01*
X36176738Y9088780D01*
X36168970Y9081637D01*
X36130806Y9049386D01*
X36126663Y9043967D01*
X36126662Y9043966D01*
X36083368Y8987339D01*
X36081470Y8984919D01*
X36032530Y8924051D01*
X36029497Y8917941D01*
X36028195Y8915905D01*
X36027876Y8915449D01*
X36027466Y8914791D01*
X36027197Y8914301D01*
X36025946Y8912235D01*
X36021802Y8906815D01*
X35988804Y8836050D01*
X35987470Y8833279D01*
X35952732Y8763299D01*
X35951080Y8756674D01*
X35950246Y8754407D01*
X35950027Y8753882D01*
X35949778Y8753178D01*
X35949616Y8752628D01*
X35948838Y8750344D01*
X35945956Y8744162D01*
X35944468Y8737504D01*
X35944465Y8737496D01*
X35928918Y8667943D01*
X35928210Y8664947D01*
X35910966Y8595786D01*
X35909315Y8589163D01*
X35909124Y8582342D01*
X35908796Y8579945D01*
X35908595Y8578831D01*
X35907933Y8574057D01*
X35906806Y8569017D01*
X35906499Y8563526D01*
X35906499Y8490112D01*
X35906450Y8486594D01*
X35904304Y8409766D01*
X35905583Y8403059D01*
X35906093Y8396724D01*
X35906499Y8386617D01*
X35906499Y6687534D01*
X35906057Y6676990D01*
X35901876Y6627201D01*
X35912068Y6550826D01*
X35912205Y6549797D01*
X35912572Y6546758D01*
X35921010Y6469084D01*
X35923186Y6462618D01*
X35923703Y6460268D01*
X35923800Y6459718D01*
X35923979Y6458951D01*
X35924134Y6458416D01*
X35924710Y6456069D01*
X35925612Y6449311D01*
X35937046Y6417896D01*
X35952309Y6375961D01*
X35953325Y6373058D01*
X35976074Y6305462D01*
X35976077Y6305455D01*
X35978253Y6298990D01*
X35981768Y6293141D01*
X35982781Y6290948D01*
X35982993Y6290433D01*
X35983326Y6289735D01*
X35983599Y6289234D01*
X35984659Y6287080D01*
X35986993Y6280667D01*
X36028841Y6214726D01*
X36030455Y6212111D01*
X36070685Y6145157D01*
X36075366Y6140206D01*
X36076836Y6138270D01*
X36077484Y6137339D01*
X36080384Y6133505D01*
X36083156Y6129137D01*
X36086822Y6125037D01*
X36138745Y6073114D01*
X36141197Y6070593D01*
X36193995Y6014761D01*
X36199636Y6010927D01*
X36204488Y6006798D01*
X36211918Y5999941D01*
X36704595Y5507264D01*
X36738621Y5444952D01*
X36741500Y5418169D01*
X36741500Y4381866D01*
X36748255Y4319684D01*
X36799385Y4183295D01*
X36886739Y4066739D01*
X37003295Y3979385D01*
X37139684Y3928255D01*
X37201866Y3921500D01*
X38998134Y3921500D01*
X39060316Y3928255D01*
X39196705Y3979385D01*
X39313261Y4066739D01*
X39400615Y4183295D01*
X39405346Y4195914D01*
X39444598Y4300618D01*
X39487240Y4357382D01*
X39553802Y4382082D01*
X39623150Y4366874D01*
X39657817Y4338886D01*
X39686250Y4306062D01*
X39858126Y4163368D01*
X40051000Y4050662D01*
X40259692Y3970970D01*
X40264760Y3969939D01*
X40264763Y3969938D01*
X40372379Y3948043D01*
X40478597Y3926433D01*
X40483772Y3926243D01*
X40483774Y3926243D01*
X40696673Y3918436D01*
X40696677Y3918436D01*
X40701837Y3918247D01*
X40706956Y3918903D01*
X40706961Y3918903D01*
X40757289Y3925350D01*
X40827399Y3914165D01*
X40862393Y3889466D01*
X42234215Y2517645D01*
X42241358Y2509878D01*
X42273615Y2471707D01*
X42279039Y2467560D01*
X42279040Y2467559D01*
X42335659Y2424270D01*
X42338062Y2422387D01*
X42398951Y2373431D01*
X42405069Y2370394D01*
X42407085Y2369105D01*
X42407554Y2368777D01*
X42408207Y2368370D01*
X42408702Y2368098D01*
X42410761Y2366851D01*
X42416186Y2362703D01*
X42422373Y2359818D01*
X42486959Y2329701D01*
X42489730Y2328367D01*
X42559702Y2293633D01*
X42566327Y2291981D01*
X42568594Y2291147D01*
X42569119Y2290928D01*
X42569823Y2290679D01*
X42570373Y2290517D01*
X42572657Y2289739D01*
X42578839Y2286857D01*
X42585497Y2285369D01*
X42585505Y2285366D01*
X42655058Y2269819D01*
X42658054Y2269111D01*
X42727215Y2251867D01*
X42727218Y2251867D01*
X42733838Y2250216D01*
X42740659Y2250025D01*
X42743056Y2249697D01*
X42744170Y2249496D01*
X42748944Y2248834D01*
X42753984Y2247707D01*
X42759475Y2247400D01*
X42832889Y2247400D01*
X42836407Y2247351D01*
X42913235Y2245205D01*
X42919942Y2246484D01*
X42926277Y2246994D01*
X42936384Y2247400D01*
X46678152Y2247400D01*
X46688697Y2246958D01*
X46738485Y2242777D01*
X46815928Y2253111D01*
X46818928Y2253473D01*
X46860683Y2258009D01*
X46889819Y2261174D01*
X46889821Y2261174D01*
X46896602Y2261911D01*
X46903068Y2264087D01*
X46905418Y2264604D01*
X46905968Y2264701D01*
X46906735Y2264880D01*
X46907270Y2265035D01*
X46909617Y2265611D01*
X46916375Y2266513D01*
X46989727Y2293211D01*
X46992628Y2294226D01*
X47060224Y2316975D01*
X47060231Y2316978D01*
X47066696Y2319154D01*
X47072545Y2322669D01*
X47074738Y2323682D01*
X47075253Y2323894D01*
X47075951Y2324227D01*
X47076452Y2324500D01*
X47078606Y2325560D01*
X47085019Y2327894D01*
X47150987Y2369759D01*
X47153579Y2371359D01*
X47220529Y2411586D01*
X47225480Y2416267D01*
X47227416Y2417737D01*
X47228347Y2418385D01*
X47232181Y2421285D01*
X47236549Y2424057D01*
X47240649Y2427723D01*
X47292572Y2479646D01*
X47295094Y2482099D01*
X47345967Y2530207D01*
X47345969Y2530209D01*
X47350925Y2534896D01*
X47354759Y2540537D01*
X47358888Y2545389D01*
X47365745Y2552819D01*
X49420813Y4607887D01*
X53056405Y8243480D01*
X53118717Y8277506D01*
X53189532Y8272441D01*
X53246368Y8229894D01*
X53271179Y8163374D01*
X53271500Y8154385D01*
X53271500Y3770392D01*
X53251498Y3702271D01*
X53197842Y3655778D01*
X53127568Y3645674D01*
X53071977Y3668069D01*
X52893683Y3796186D01*
X52871843Y3807750D01*
X52848654Y3820028D01*
X52639608Y3930712D01*
X52369627Y4029511D01*
X52088736Y4090755D01*
X52057685Y4093199D01*
X51865718Y4108307D01*
X51865709Y4108307D01*
X51863261Y4108500D01*
X51707729Y4108500D01*
X51705593Y4108354D01*
X51705582Y4108354D01*
X51497452Y4094165D01*
X51497446Y4094164D01*
X51493175Y4093873D01*
X51488980Y4093004D01*
X51488978Y4093004D01*
X51396820Y4073919D01*
X51211658Y4035574D01*
X50940657Y3939607D01*
X50685188Y3807750D01*
X50681687Y3805289D01*
X50681683Y3805287D01*
X50671594Y3798196D01*
X50449977Y3642441D01*
X50239378Y3446740D01*
X50057287Y3224268D01*
X49907073Y2979142D01*
X49791517Y2715898D01*
X49712756Y2439406D01*
X49672249Y2154784D01*
X49672227Y2150495D01*
X49672226Y2150488D01*
X49670765Y1871583D01*
X49670743Y1867297D01*
X49708268Y1582266D01*
X49784129Y1304964D01*
X49896923Y1040524D01*
X50044561Y793839D01*
X50047242Y790492D01*
X50047248Y790484D01*
X50109100Y713280D01*
X50136082Y647611D01*
X50123277Y577779D01*
X50074750Y525955D01*
X50010766Y508500D01*
X15549940Y508500D01*
X15481819Y528502D01*
X15435326Y582158D01*
X15425222Y652432D01*
X15452436Y714306D01*
X15499998Y772414D01*
X15500003Y772421D01*
X15502713Y775732D01*
X15652927Y1020858D01*
X15768483Y1284102D01*
X15847244Y1560594D01*
X15887751Y1845216D01*
X15887845Y1863049D01*
X15889235Y2128417D01*
X15889235Y2128424D01*
X15889257Y2132703D01*
X15874766Y2242777D01*
X15863560Y2327894D01*
X15851732Y2417734D01*
X15850464Y2422371D01*
X15777003Y2690897D01*
X15775871Y2695036D01*
X15663077Y2959476D01*
X15515439Y3206161D01*
X15335687Y3430528D01*
X15127149Y3628423D01*
X14893683Y3796186D01*
X14871843Y3807750D01*
X14848654Y3820028D01*
X14639608Y3930712D01*
X14369627Y4029511D01*
X14088736Y4090755D01*
X14057685Y4093199D01*
X13865718Y4108307D01*
X13865709Y4108307D01*
X13863261Y4108500D01*
X13707729Y4108500D01*
X13705593Y4108354D01*
X13705582Y4108354D01*
X13497452Y4094165D01*
X13497446Y4094164D01*
X13493175Y4093873D01*
X13488980Y4093004D01*
X13488978Y4093004D01*
X13396820Y4073919D01*
X13211658Y4035574D01*
X12940657Y3939607D01*
X12685188Y3807750D01*
X12681687Y3805289D01*
X12681683Y3805287D01*
X12671594Y3798196D01*
X12449977Y3642441D01*
X12239378Y3446740D01*
X12057287Y3224268D01*
X11907073Y2979142D01*
X11791517Y2715898D01*
X11712756Y2439406D01*
X11672249Y2154784D01*
X11672227Y2150495D01*
X11672226Y2150488D01*
X11670765Y1871583D01*
X11670743Y1867297D01*
X11708268Y1582266D01*
X11784129Y1304964D01*
X11896923Y1040524D01*
X12044561Y793839D01*
X12047242Y790492D01*
X12047248Y790484D01*
X12109100Y713280D01*
X12136082Y647611D01*
X12123277Y577779D01*
X12074750Y525955D01*
X12010766Y508500D01*
X634500Y508500D01*
X566379Y528502D01*
X519886Y582158D01*
X508500Y634500D01*
X508500Y22023699D01*
X2725378Y22023699D01*
X2733110Y21965759D01*
X2735707Y21946295D01*
X2736074Y21943256D01*
X2744512Y21865582D01*
X2746688Y21859116D01*
X2747205Y21856766D01*
X2747302Y21856216D01*
X2747481Y21855449D01*
X2747636Y21854914D01*
X2748212Y21852567D01*
X2749114Y21845809D01*
X2755042Y21829522D01*
X2775811Y21772459D01*
X2776827Y21769556D01*
X2799576Y21701960D01*
X2799579Y21701953D01*
X2801755Y21695488D01*
X2805270Y21689639D01*
X2806283Y21687446D01*
X2806495Y21686931D01*
X2806828Y21686233D01*
X2807101Y21685732D01*
X2808161Y21683578D01*
X2810495Y21677165D01*
X2849367Y21615913D01*
X2852343Y21611224D01*
X2853957Y21608609D01*
X2894187Y21541655D01*
X2898868Y21536704D01*
X2900338Y21534768D01*
X2900986Y21533837D01*
X2903886Y21530003D01*
X2906658Y21525635D01*
X2910324Y21521535D01*
X2962247Y21469612D01*
X2964699Y21467091D01*
X3017497Y21411259D01*
X3023138Y21407425D01*
X3027990Y21403296D01*
X3035420Y21396439D01*
X8785615Y15646245D01*
X8792758Y15638478D01*
X8825015Y15600307D01*
X8830434Y15596164D01*
X8830435Y15596163D01*
X8887062Y15552869D01*
X8889482Y15550971D01*
X8950350Y15502031D01*
X8956460Y15498998D01*
X8958496Y15497696D01*
X8958952Y15497377D01*
X8959610Y15496967D01*
X8960100Y15496698D01*
X8962166Y15495447D01*
X8967586Y15491303D01*
X9038351Y15458305D01*
X9041122Y15456971D01*
X9111102Y15422233D01*
X9117727Y15420581D01*
X9119994Y15419747D01*
X9120519Y15419528D01*
X9121223Y15419279D01*
X9121773Y15419117D01*
X9124057Y15418339D01*
X9130239Y15415457D01*
X9136897Y15413969D01*
X9136905Y15413966D01*
X9206458Y15398419D01*
X9209454Y15397711D01*
X9278615Y15380467D01*
X9278618Y15380467D01*
X9285238Y15378816D01*
X9292059Y15378625D01*
X9294463Y15378296D01*
X9295559Y15378099D01*
X9300328Y15377437D01*
X9305384Y15376307D01*
X9310875Y15376000D01*
X9384311Y15376000D01*
X9387828Y15375951D01*
X9457814Y15373996D01*
X9457819Y15373996D01*
X9464635Y15373806D01*
X9471339Y15375085D01*
X9477665Y15375594D01*
X9487772Y15376000D01*
X23863670Y15376000D01*
X23931791Y15355998D01*
X23978284Y15302342D01*
X23988388Y15232068D01*
X23958894Y15167488D01*
X23952765Y15160905D01*
X23087265Y14295405D01*
X23024953Y14261379D01*
X22998170Y14258500D01*
X21961866Y14258500D01*
X21899684Y14251745D01*
X21763295Y14200615D01*
X21646739Y14113261D01*
X21559385Y13996705D01*
X21508255Y13860316D01*
X21501500Y13798134D01*
X21501500Y12001866D01*
X21508255Y11939684D01*
X21559385Y11803295D01*
X21646739Y11686739D01*
X21763295Y11599385D01*
X21899684Y11548255D01*
X21961866Y11541500D01*
X23758134Y11541500D01*
X23820316Y11548255D01*
X23956705Y11599385D01*
X24073261Y11686739D01*
X24160615Y11803295D01*
X24204798Y11921152D01*
X24247440Y11977916D01*
X24314001Y12002616D01*
X24383350Y11987408D01*
X24418017Y11959420D01*
X24443218Y11930327D01*
X24450580Y11923117D01*
X24614434Y11787084D01*
X24622881Y11781169D01*
X24806756Y11673721D01*
X24816042Y11669271D01*
X25015001Y11593297D01*
X25024899Y11590421D01*
X25128250Y11569394D01*
X25142299Y11570590D01*
X25146000Y11580935D01*
X25146000Y13028000D01*
X25166002Y13096121D01*
X25219658Y13142614D01*
X25272000Y13154000D01*
X25528000Y13154000D01*
X25596121Y13133998D01*
X25642614Y13080342D01*
X25654000Y13028000D01*
X25654000Y11581483D01*
X25658064Y11567641D01*
X25671478Y11565607D01*
X25678184Y11566466D01*
X25688262Y11568608D01*
X25892255Y11629809D01*
X25901842Y11633567D01*
X26093095Y11727261D01*
X26101945Y11732536D01*
X26275328Y11856208D01*
X26283200Y11862861D01*
X26434052Y12013188D01*
X26440730Y12021035D01*
X26568022Y12198181D01*
X26569279Y12197278D01*
X26616373Y12240638D01*
X26686311Y12252855D01*
X26751751Y12225322D01*
X26779579Y12193489D01*
X26839987Y12094912D01*
X26986250Y11926062D01*
X27158126Y11783368D01*
X27351000Y11670662D01*
X27355825Y11668820D01*
X27355826Y11668819D01*
X27387817Y11656603D01*
X27559692Y11590970D01*
X27564760Y11589939D01*
X27564763Y11589938D01*
X27651364Y11572319D01*
X27778597Y11546433D01*
X27783772Y11546243D01*
X27783774Y11546243D01*
X27996673Y11538436D01*
X27996677Y11538436D01*
X28001837Y11538247D01*
X28006957Y11538903D01*
X28006959Y11538903D01*
X28218288Y11565975D01*
X28218289Y11565975D01*
X28223416Y11566632D01*
X28228366Y11568117D01*
X28432429Y11629339D01*
X28432434Y11629341D01*
X28437384Y11630826D01*
X28637994Y11729104D01*
X28819860Y11858827D01*
X28978096Y12016511D01*
X29108453Y12197923D01*
X29109776Y12196972D01*
X29156645Y12240143D01*
X29226580Y12252375D01*
X29292026Y12224856D01*
X29319875Y12193006D01*
X29379987Y12094912D01*
X29526250Y11926062D01*
X29698126Y11783368D01*
X29891000Y11670662D01*
X29895825Y11668820D01*
X29895826Y11668819D01*
X29927817Y11656603D01*
X30099692Y11590970D01*
X30104760Y11589939D01*
X30104763Y11589938D01*
X30191364Y11572319D01*
X30318597Y11546433D01*
X30323772Y11546243D01*
X30323774Y11546243D01*
X30536673Y11538436D01*
X30536677Y11538436D01*
X30541837Y11538247D01*
X30546957Y11538903D01*
X30546959Y11538903D01*
X30758288Y11565975D01*
X30758289Y11565975D01*
X30763416Y11566632D01*
X30768366Y11568117D01*
X30972429Y11629339D01*
X30972434Y11629341D01*
X30977384Y11630826D01*
X31177994Y11729104D01*
X31359860Y11858827D01*
X31518096Y12016511D01*
X31648453Y12197923D01*
X31655964Y12213119D01*
X31745136Y12393547D01*
X31745137Y12393549D01*
X31747430Y12398189D01*
X31785397Y12523153D01*
X31810865Y12606977D01*
X31810865Y12606979D01*
X31812370Y12611931D01*
X31841529Y12833410D01*
X31843156Y12900000D01*
X31824852Y13122639D01*
X31770431Y13339298D01*
X31681354Y13544160D01*
X31560014Y13731723D01*
X31409670Y13896949D01*
X31405619Y13900148D01*
X31405615Y13900152D01*
X31238414Y14032200D01*
X31238410Y14032202D01*
X31234359Y14035402D01*
X31038789Y14143362D01*
X31033920Y14145086D01*
X31033916Y14145088D01*
X30833087Y14216205D01*
X30833083Y14216206D01*
X30828212Y14217931D01*
X30760687Y14229959D01*
X30724658Y14236377D01*
X30661101Y14268015D01*
X30624738Y14328993D01*
X30627115Y14399950D01*
X30657660Y14449519D01*
X30892036Y14683895D01*
X30954348Y14717921D01*
X30981131Y14720800D01*
X34440912Y14720800D01*
X34509033Y14700798D01*
X34530007Y14683895D01*
X34673300Y14540602D01*
X34677808Y14537445D01*
X34677811Y14537443D01*
X34755989Y14482702D01*
X34860851Y14409277D01*
X34865833Y14406954D01*
X34865838Y14406951D01*
X35063371Y14314841D01*
X35068357Y14312516D01*
X35073665Y14311094D01*
X35073667Y14311093D01*
X35284198Y14254681D01*
X35284200Y14254681D01*
X35289513Y14253257D01*
X35517600Y14233302D01*
X35745687Y14253257D01*
X35751000Y14254681D01*
X35751002Y14254681D01*
X35961533Y14311093D01*
X35961535Y14311094D01*
X35966843Y14312516D01*
X35971829Y14314841D01*
X36169362Y14406951D01*
X36169367Y14406954D01*
X36174349Y14409277D01*
X36279211Y14482702D01*
X36357389Y14537443D01*
X36357392Y14537445D01*
X36361900Y14540602D01*
X36523798Y14702500D01*
X36655123Y14890051D01*
X36657446Y14895033D01*
X36657449Y14895038D01*
X36749561Y15092575D01*
X36749561Y15092576D01*
X36751884Y15097557D01*
X36787927Y15232068D01*
X36809719Y15313398D01*
X36809719Y15313400D01*
X36811143Y15318713D01*
X36831098Y15546800D01*
X36811143Y15774887D01*
X36751884Y15996043D01*
X36749561Y16001025D01*
X36657449Y16198562D01*
X36657446Y16198567D01*
X36655123Y16203549D01*
X36523798Y16391100D01*
X36361900Y16552998D01*
X36357392Y16556155D01*
X36357389Y16556157D01*
X36208167Y16660643D01*
X36174349Y16684323D01*
X36169367Y16686646D01*
X36169362Y16686649D01*
X36135143Y16702605D01*
X36081858Y16749522D01*
X36062397Y16817799D01*
X36082939Y16885759D01*
X36135143Y16930995D01*
X36169362Y16946951D01*
X36169367Y16946954D01*
X36174349Y16949277D01*
X36279211Y17022702D01*
X36357389Y17077443D01*
X36357392Y17077445D01*
X36361900Y17080602D01*
X36523798Y17242500D01*
X36655123Y17430051D01*
X36657446Y17435033D01*
X36657449Y17435038D01*
X36749561Y17632575D01*
X36749561Y17632576D01*
X36751884Y17637557D01*
X36763239Y17679932D01*
X36809719Y17853398D01*
X36809719Y17853400D01*
X36811143Y17858713D01*
X36831098Y18086800D01*
X36811143Y18314887D01*
X36809719Y18320202D01*
X36753307Y18530733D01*
X36753306Y18530735D01*
X36751884Y18536043D01*
X36749561Y18541025D01*
X36657449Y18738562D01*
X36657446Y18738567D01*
X36655123Y18743549D01*
X36523798Y18931100D01*
X36361900Y19092998D01*
X36357392Y19096155D01*
X36357389Y19096157D01*
X36279211Y19150898D01*
X36174349Y19224323D01*
X36169367Y19226646D01*
X36169362Y19226649D01*
X36135143Y19242605D01*
X36081858Y19289522D01*
X36062397Y19357799D01*
X36082939Y19425759D01*
X36135143Y19470995D01*
X36169362Y19486951D01*
X36169367Y19486954D01*
X36174349Y19489277D01*
X36279211Y19562702D01*
X36357389Y19617443D01*
X36357392Y19617445D01*
X36361900Y19620602D01*
X36523798Y19782500D01*
X36655123Y19970051D01*
X36657446Y19975033D01*
X36657449Y19975038D01*
X36749561Y20172575D01*
X36749561Y20172576D01*
X36751884Y20177557D01*
X36761762Y20214420D01*
X36809719Y20393398D01*
X36809719Y20393400D01*
X36811143Y20398713D01*
X36831098Y20626800D01*
X36811143Y20854887D01*
X36786733Y20945986D01*
X36753307Y21070733D01*
X36753306Y21070735D01*
X36751884Y21076043D01*
X36749561Y21081025D01*
X36657449Y21278562D01*
X36657446Y21278567D01*
X36655123Y21283549D01*
X36523798Y21471100D01*
X36361900Y21632998D01*
X36357392Y21636155D01*
X36357389Y21636157D01*
X36251450Y21710336D01*
X36174349Y21764323D01*
X36169367Y21766646D01*
X36169362Y21766649D01*
X36135143Y21782605D01*
X36081858Y21829522D01*
X36062397Y21897799D01*
X36082939Y21965759D01*
X36135143Y22010995D01*
X36169362Y22026951D01*
X36169367Y22026954D01*
X36174349Y22029277D01*
X36279211Y22102702D01*
X36357389Y22157443D01*
X36357392Y22157445D01*
X36361900Y22160602D01*
X36523798Y22322500D01*
X36655123Y22510051D01*
X36657446Y22515033D01*
X36657449Y22515038D01*
X36749561Y22712575D01*
X36749561Y22712576D01*
X36751884Y22717557D01*
X36765710Y22769154D01*
X36809719Y22933398D01*
X36809719Y22933400D01*
X36811143Y22938713D01*
X36831098Y23166800D01*
X36811143Y23394887D01*
X36788162Y23480653D01*
X36753307Y23610733D01*
X36753306Y23610735D01*
X36751884Y23616043D01*
X36668740Y23794348D01*
X36657449Y23818562D01*
X36657446Y23818567D01*
X36655123Y23823549D01*
X36523798Y24011100D01*
X36361900Y24172998D01*
X36357392Y24176155D01*
X36357389Y24176157D01*
X36243208Y24256107D01*
X36174349Y24304323D01*
X36169367Y24306646D01*
X36169362Y24306649D01*
X36135143Y24322605D01*
X36081858Y24369522D01*
X36062397Y24437799D01*
X36082939Y24505759D01*
X36135143Y24550995D01*
X36169362Y24566951D01*
X36169367Y24566954D01*
X36174349Y24569277D01*
X36279211Y24642702D01*
X36357389Y24697443D01*
X36357392Y24697445D01*
X36361900Y24700602D01*
X36523798Y24862500D01*
X36580582Y24943595D01*
X36606681Y24980869D01*
X36655123Y25050051D01*
X36657446Y25055033D01*
X36657449Y25055038D01*
X36749561Y25252575D01*
X36749561Y25252576D01*
X36751884Y25257557D01*
X36758649Y25282802D01*
X36809719Y25473398D01*
X36809719Y25473400D01*
X36811143Y25478713D01*
X36831098Y25706800D01*
X36811143Y25934887D01*
X36799272Y25979190D01*
X36753307Y26150733D01*
X36753306Y26150735D01*
X36751884Y26156043D01*
X36749561Y26161025D01*
X36657449Y26358562D01*
X36657446Y26358567D01*
X36655123Y26363549D01*
X36557342Y26503194D01*
X36526957Y26546589D01*
X36526955Y26546592D01*
X36523798Y26551100D01*
X36361900Y26712998D01*
X36357392Y26716155D01*
X36357389Y26716157D01*
X36246160Y26794040D01*
X36174349Y26844323D01*
X36169367Y26846646D01*
X36169362Y26846649D01*
X36135143Y26862605D01*
X36081858Y26909522D01*
X36062397Y26977799D01*
X36082939Y27045759D01*
X36135143Y27090995D01*
X36169362Y27106951D01*
X36169367Y27106954D01*
X36174349Y27109277D01*
X36312312Y27205880D01*
X36357389Y27237443D01*
X36357392Y27237445D01*
X36361900Y27240602D01*
X36523798Y27402500D01*
X36529301Y27410358D01*
X36593386Y27501882D01*
X36655123Y27590051D01*
X36657446Y27595033D01*
X36657449Y27595038D01*
X36749561Y27792575D01*
X36749561Y27792576D01*
X36751884Y27797557D01*
X36758649Y27822802D01*
X36809719Y28013398D01*
X36809719Y28013400D01*
X36811143Y28018713D01*
X36831098Y28246800D01*
X36811143Y28474887D01*
X36806692Y28491497D01*
X36753307Y28690733D01*
X36753306Y28690735D01*
X36751884Y28696043D01*
X36730600Y28741688D01*
X36657449Y28898562D01*
X36657446Y28898567D01*
X36655123Y28903549D01*
X36581698Y29008411D01*
X36526957Y29086589D01*
X36526955Y29086592D01*
X36523798Y29091100D01*
X36361900Y29252998D01*
X36357392Y29256155D01*
X36357389Y29256157D01*
X36279211Y29310898D01*
X36174349Y29384323D01*
X36169367Y29386646D01*
X36169362Y29386649D01*
X36135143Y29402605D01*
X36081858Y29449522D01*
X36062397Y29517799D01*
X36082939Y29585759D01*
X36135143Y29630995D01*
X36169362Y29646951D01*
X36169367Y29646954D01*
X36174349Y29649277D01*
X36309981Y29744248D01*
X36357389Y29777443D01*
X36357392Y29777445D01*
X36361900Y29780602D01*
X36523798Y29942500D01*
X36655123Y30130051D01*
X36657446Y30135033D01*
X36657449Y30135038D01*
X36749561Y30332575D01*
X36749561Y30332576D01*
X36751884Y30337557D01*
X36758310Y30361537D01*
X36809719Y30553398D01*
X36809719Y30553400D01*
X36811143Y30558713D01*
X36831098Y30786800D01*
X36811143Y31014887D01*
X36805614Y31035523D01*
X36753307Y31230733D01*
X36753306Y31230735D01*
X36751884Y31236043D01*
X36741558Y31258187D01*
X36657449Y31438562D01*
X36657446Y31438567D01*
X36655123Y31443549D01*
X36572064Y31562169D01*
X36526957Y31626589D01*
X36526955Y31626592D01*
X36523798Y31631100D01*
X36361900Y31792998D01*
X36357392Y31796155D01*
X36357389Y31796157D01*
X36279211Y31850898D01*
X36174349Y31924323D01*
X36169367Y31926646D01*
X36169362Y31926649D01*
X36135143Y31942605D01*
X36081858Y31989522D01*
X36062397Y32057799D01*
X36082939Y32125759D01*
X36135143Y32170995D01*
X36169362Y32186951D01*
X36169367Y32186954D01*
X36174349Y32189277D01*
X36279211Y32262702D01*
X36357389Y32317443D01*
X36357392Y32317445D01*
X36361900Y32320602D01*
X36523798Y32482500D01*
X36551167Y32521586D01*
X36651966Y32665543D01*
X36655123Y32670051D01*
X36657446Y32675033D01*
X36657449Y32675038D01*
X36749561Y32872575D01*
X36749561Y32872576D01*
X36751884Y32877557D01*
X36811143Y33098713D01*
X36831098Y33326800D01*
X36811143Y33554887D01*
X36751884Y33776043D01*
X36749561Y33781025D01*
X36657449Y33978562D01*
X36657446Y33978567D01*
X36655123Y33983549D01*
X36560477Y34118717D01*
X36526957Y34166589D01*
X36526955Y34166592D01*
X36523798Y34171100D01*
X36361900Y34332998D01*
X36357392Y34336155D01*
X36357389Y34336157D01*
X36279211Y34390898D01*
X36174349Y34464323D01*
X36169367Y34466646D01*
X36169362Y34466649D01*
X36135143Y34482605D01*
X36081858Y34529522D01*
X36062397Y34597799D01*
X36082939Y34665759D01*
X36135143Y34710995D01*
X36169362Y34726951D01*
X36169367Y34726954D01*
X36174349Y34729277D01*
X36279211Y34802702D01*
X36357389Y34857443D01*
X36357392Y34857445D01*
X36361900Y34860602D01*
X36523798Y35022500D01*
X36655123Y35210051D01*
X36657446Y35215033D01*
X36657449Y35215038D01*
X36749561Y35412575D01*
X36749561Y35412576D01*
X36751884Y35417557D01*
X36811143Y35638713D01*
X36831098Y35866800D01*
X36811143Y36094887D01*
X36809719Y36100202D01*
X36753307Y36310733D01*
X36753306Y36310735D01*
X36751884Y36316043D01*
X36683198Y36463342D01*
X36657449Y36518562D01*
X36657446Y36518567D01*
X36655123Y36523549D01*
X36560655Y36658463D01*
X36526957Y36706589D01*
X36526955Y36706592D01*
X36523798Y36711100D01*
X36361900Y36872998D01*
X36357392Y36876155D01*
X36357389Y36876157D01*
X36279211Y36930898D01*
X36174349Y37004323D01*
X36169367Y37006646D01*
X36169362Y37006649D01*
X36135143Y37022605D01*
X36081858Y37069522D01*
X36062397Y37137799D01*
X36082939Y37205759D01*
X36135143Y37250995D01*
X36169362Y37266951D01*
X36169367Y37266954D01*
X36174349Y37269277D01*
X36279211Y37342702D01*
X36357389Y37397443D01*
X36357392Y37397445D01*
X36361900Y37400602D01*
X36523798Y37562500D01*
X36535121Y37578670D01*
X36597476Y37667723D01*
X36655123Y37750051D01*
X36657446Y37755033D01*
X36657449Y37755038D01*
X36749561Y37952575D01*
X36749561Y37952576D01*
X36751884Y37957557D01*
X36770012Y38025209D01*
X36809719Y38173398D01*
X36809719Y38173400D01*
X36811143Y38178713D01*
X36831098Y38406800D01*
X36811143Y38634887D01*
X36751884Y38856043D01*
X36723898Y38916060D01*
X36657449Y39058562D01*
X36657446Y39058567D01*
X36655123Y39063549D01*
X36581698Y39168411D01*
X36526957Y39246589D01*
X36526955Y39246592D01*
X36523798Y39251100D01*
X36361900Y39412998D01*
X36357392Y39416155D01*
X36357389Y39416157D01*
X36243638Y39495806D01*
X36174349Y39544323D01*
X36169367Y39546646D01*
X36169362Y39546649D01*
X36135143Y39562605D01*
X36081858Y39609522D01*
X36062397Y39677799D01*
X36082939Y39745759D01*
X36135143Y39790995D01*
X36169362Y39806951D01*
X36169367Y39806954D01*
X36174349Y39809277D01*
X36314723Y39907568D01*
X36357389Y39937443D01*
X36357392Y39937445D01*
X36361900Y39940602D01*
X36523798Y40102500D01*
X36532958Y40115581D01*
X36603178Y40215866D01*
X36655123Y40290051D01*
X36657446Y40295033D01*
X36657449Y40295038D01*
X36749561Y40492575D01*
X36749561Y40492576D01*
X36751884Y40497557D01*
X36757258Y40517611D01*
X36809719Y40713398D01*
X36809719Y40713400D01*
X36811143Y40718713D01*
X36831098Y40946800D01*
X36811143Y41174887D01*
X36751884Y41396043D01*
X36743135Y41414805D01*
X36657449Y41598562D01*
X36657446Y41598567D01*
X36655123Y41603549D01*
X36574654Y41718471D01*
X36526957Y41786589D01*
X36526955Y41786592D01*
X36523798Y41791100D01*
X36361900Y41952998D01*
X36357389Y41956157D01*
X36353176Y41959692D01*
X36354127Y41960826D01*
X36314129Y42010871D01*
X36306824Y42081490D01*
X36338858Y42144849D01*
X36400062Y42180830D01*
X36417117Y42183882D01*
X36427916Y42185055D01*
X36564305Y42236185D01*
X36680861Y42323539D01*
X36768215Y42440095D01*
X36819345Y42576484D01*
X36826100Y42638666D01*
X36826100Y44334934D01*
X36819345Y44397116D01*
X36768215Y44533505D01*
X36680861Y44650061D01*
X36564305Y44737415D01*
X36427916Y44788545D01*
X36365734Y44795300D01*
X34669466Y44795300D01*
X34607284Y44788545D01*
X34470895Y44737415D01*
X34354339Y44650061D01*
X34266985Y44533505D01*
X34215855Y44397116D01*
X34209100Y44334934D01*
X34209100Y42638666D01*
X34215855Y42576484D01*
X34266985Y42440095D01*
X34354339Y42323539D01*
X34470895Y42236185D01*
X34607284Y42185055D01*
X34618074Y42183883D01*
X34620206Y42182997D01*
X34622822Y42182375D01*
X34622721Y42181952D01*
X34683635Y42156645D01*
X34724063Y42098283D01*
X34726522Y42027329D01*
X34690229Y41966310D01*
X34681569Y41959311D01*
X34677807Y41956154D01*
X34673300Y41952998D01*
X34511402Y41791100D01*
X34508245Y41786592D01*
X34508243Y41786589D01*
X34460546Y41718471D01*
X34380077Y41603549D01*
X34377754Y41598567D01*
X34377751Y41598562D01*
X34292065Y41414805D01*
X34283316Y41396043D01*
X34224057Y41174887D01*
X34204102Y40946800D01*
X34224057Y40718713D01*
X34225481Y40713400D01*
X34225481Y40713398D01*
X34277943Y40517611D01*
X34283316Y40497557D01*
X34285639Y40492576D01*
X34285639Y40492575D01*
X34377751Y40295038D01*
X34377754Y40295033D01*
X34380077Y40290051D01*
X34432022Y40215866D01*
X34502243Y40115581D01*
X34511402Y40102500D01*
X34673300Y39940602D01*
X34677808Y39937445D01*
X34677811Y39937443D01*
X34720477Y39907568D01*
X34860851Y39809277D01*
X34865833Y39806954D01*
X34865838Y39806951D01*
X34900057Y39790995D01*
X34953342Y39744078D01*
X34972803Y39675801D01*
X34952261Y39607841D01*
X34900057Y39562605D01*
X34865838Y39546649D01*
X34865833Y39546646D01*
X34860851Y39544323D01*
X34791562Y39495806D01*
X34677811Y39416157D01*
X34677808Y39416155D01*
X34673300Y39412998D01*
X34511402Y39251100D01*
X34508245Y39246592D01*
X34508243Y39246589D01*
X34453502Y39168411D01*
X34380077Y39063549D01*
X34377753Y39058565D01*
X34377750Y39058560D01*
X34371378Y39044895D01*
X34324460Y38991611D01*
X34256182Y38972151D01*
X34188222Y38992694D01*
X34168089Y39009052D01*
X33095405Y40081735D01*
X33061380Y40144047D01*
X33058500Y40170830D01*
X33058500Y41107134D01*
X33051745Y41169316D01*
X33000615Y41305705D01*
X32913261Y41422261D01*
X32796705Y41509615D01*
X32660316Y41560745D01*
X32649526Y41561917D01*
X32647394Y41562803D01*
X32644778Y41563425D01*
X32644879Y41563848D01*
X32583965Y41589155D01*
X32543537Y41647517D01*
X32541078Y41718471D01*
X32577371Y41779490D01*
X32586031Y41786489D01*
X32589793Y41789646D01*
X32594300Y41792802D01*
X32756198Y41954700D01*
X32759694Y41959692D01*
X32844751Y42081166D01*
X32887523Y42142251D01*
X32889846Y42147233D01*
X32889849Y42147238D01*
X32981961Y42344775D01*
X32981961Y42344776D01*
X32984284Y42349757D01*
X33018731Y42478312D01*
X33042119Y42565598D01*
X33042119Y42565600D01*
X33043543Y42570913D01*
X33063498Y42799000D01*
X33043543Y43027087D01*
X33042119Y43032402D01*
X32985707Y43242933D01*
X32985706Y43242935D01*
X32984284Y43248243D01*
X32964496Y43290679D01*
X32889849Y43450762D01*
X32889846Y43450767D01*
X32887523Y43455749D01*
X32814098Y43560611D01*
X32759357Y43638789D01*
X32759355Y43638792D01*
X32756198Y43643300D01*
X32594300Y43805198D01*
X32589792Y43808355D01*
X32589789Y43808357D01*
X32511611Y43863098D01*
X32406749Y43936523D01*
X32401767Y43938846D01*
X32401762Y43938849D01*
X32204225Y44030961D01*
X32204224Y44030961D01*
X32199243Y44033284D01*
X32193935Y44034706D01*
X32193933Y44034707D01*
X31983402Y44091119D01*
X31983400Y44091119D01*
X31978087Y44092543D01*
X31750000Y44112498D01*
X31521913Y44092543D01*
X31516600Y44091119D01*
X31516598Y44091119D01*
X31306067Y44034707D01*
X31306065Y44034706D01*
X31300757Y44033284D01*
X31295776Y44030961D01*
X31295775Y44030961D01*
X31098238Y43938849D01*
X31098233Y43938846D01*
X31093251Y43936523D01*
X30988389Y43863098D01*
X30910211Y43808357D01*
X30910208Y43808355D01*
X30905700Y43805198D01*
X30743802Y43643300D01*
X30740645Y43638792D01*
X30740643Y43638789D01*
X30685902Y43560611D01*
X30612477Y43455749D01*
X30610154Y43450767D01*
X30610151Y43450762D01*
X30535504Y43290679D01*
X30515716Y43248243D01*
X30514294Y43242935D01*
X30514293Y43242933D01*
X30457881Y43032402D01*
X30456457Y43027087D01*
X30436502Y42799000D01*
X30456457Y42570913D01*
X30457881Y42565600D01*
X30457881Y42565598D01*
X30481270Y42478312D01*
X30515716Y42349757D01*
X30518039Y42344776D01*
X30518039Y42344775D01*
X30610151Y42147238D01*
X30610154Y42147233D01*
X30612477Y42142251D01*
X30655249Y42081166D01*
X30740307Y41959692D01*
X30743802Y41954700D01*
X30905700Y41792802D01*
X30910211Y41789643D01*
X30914424Y41786108D01*
X30913473Y41784974D01*
X30953471Y41734929D01*
X30960776Y41664310D01*
X30928742Y41600951D01*
X30867538Y41564970D01*
X30850483Y41561918D01*
X30839684Y41560745D01*
X30703295Y41509615D01*
X30586739Y41422261D01*
X30499385Y41305705D01*
X30448255Y41169316D01*
X30441500Y41107134D01*
X30441500Y39410866D01*
X30448255Y39348684D01*
X30499385Y39212295D01*
X30586739Y39095739D01*
X30703295Y39008385D01*
X30839684Y38957255D01*
X30901866Y38950500D01*
X31838169Y38950500D01*
X31906290Y38930498D01*
X31927264Y38913595D01*
X33173095Y37667765D01*
X33207120Y37605453D01*
X33210000Y37578670D01*
X33210000Y36347544D01*
X33189998Y36279423D01*
X33136342Y36232930D01*
X33066068Y36222826D01*
X33001488Y36252320D01*
X32969805Y36294294D01*
X32889849Y36465762D01*
X32889846Y36465767D01*
X32887523Y36470749D01*
X32778657Y36626226D01*
X32759357Y36653789D01*
X32759355Y36653792D01*
X32756198Y36658300D01*
X32594300Y36820198D01*
X32589792Y36823355D01*
X32589789Y36823357D01*
X32469747Y36907411D01*
X32406749Y36951523D01*
X32401767Y36953846D01*
X32401762Y36953849D01*
X32204225Y37045961D01*
X32204224Y37045961D01*
X32199243Y37048284D01*
X32193935Y37049706D01*
X32193933Y37049707D01*
X31983402Y37106119D01*
X31983400Y37106119D01*
X31978087Y37107543D01*
X31750000Y37127498D01*
X31521913Y37107543D01*
X31516600Y37106119D01*
X31516598Y37106119D01*
X31306067Y37049707D01*
X31306065Y37049706D01*
X31300757Y37048284D01*
X31295776Y37045961D01*
X31295775Y37045961D01*
X31098238Y36953849D01*
X31098233Y36953846D01*
X31093251Y36951523D01*
X31030253Y36907411D01*
X30910211Y36823357D01*
X30910208Y36823355D01*
X30905700Y36820198D01*
X30743802Y36658300D01*
X30740645Y36653792D01*
X30740643Y36653789D01*
X30721343Y36626226D01*
X30612477Y36470749D01*
X30610154Y36465767D01*
X30610151Y36465762D01*
X30537861Y36310733D01*
X30515716Y36263243D01*
X30514294Y36257935D01*
X30514293Y36257933D01*
X30473591Y36106032D01*
X30456457Y36042087D01*
X30436502Y35814000D01*
X30456457Y35585913D01*
X30515716Y35364757D01*
X30518039Y35359776D01*
X30518039Y35359775D01*
X30610151Y35162238D01*
X30610154Y35162233D01*
X30612477Y35157251D01*
X30615634Y35152743D01*
X30709560Y35018603D01*
X30743802Y34969700D01*
X30905700Y34807802D01*
X30910211Y34804643D01*
X30914424Y34801108D01*
X30913473Y34799974D01*
X30953471Y34749929D01*
X30960776Y34679310D01*
X30928742Y34615951D01*
X30867538Y34579970D01*
X30850483Y34576918D01*
X30839684Y34575745D01*
X30703295Y34524615D01*
X30586739Y34437261D01*
X30499385Y34320705D01*
X30448255Y34184316D01*
X30441500Y34122134D01*
X30441500Y32425866D01*
X30448255Y32363684D01*
X30499385Y32227295D01*
X30586739Y32110739D01*
X30703295Y32023385D01*
X30839684Y31972255D01*
X30901866Y31965500D01*
X31838170Y31965500D01*
X31906291Y31945498D01*
X31927265Y31928595D01*
X32204596Y31651264D01*
X32238622Y31588952D01*
X32241501Y31562169D01*
X32241501Y30216168D01*
X32221499Y30148047D01*
X32167843Y30101554D01*
X32097569Y30091450D01*
X32082890Y30094461D01*
X31983402Y30121119D01*
X31983400Y30121119D01*
X31978087Y30122543D01*
X31750000Y30142498D01*
X31521913Y30122543D01*
X31516600Y30121119D01*
X31516598Y30121119D01*
X31306067Y30064707D01*
X31306065Y30064706D01*
X31300757Y30063284D01*
X31295776Y30060961D01*
X31295775Y30060961D01*
X31098238Y29968849D01*
X31098233Y29968846D01*
X31093251Y29966523D01*
X31018019Y29913845D01*
X30910211Y29838357D01*
X30910208Y29838355D01*
X30905700Y29835198D01*
X30743802Y29673300D01*
X30740645Y29668792D01*
X30740643Y29668789D01*
X30710128Y29625209D01*
X30612477Y29485749D01*
X30610154Y29480767D01*
X30610151Y29480762D01*
X30518039Y29283225D01*
X30515716Y29278243D01*
X30514294Y29272935D01*
X30514293Y29272933D01*
X30462175Y29078428D01*
X30456457Y29057087D01*
X30436502Y28829000D01*
X30456457Y28600913D01*
X30457881Y28595600D01*
X30457881Y28595598D01*
X30488802Y28480202D01*
X30515716Y28379757D01*
X30518039Y28374776D01*
X30518039Y28374775D01*
X30610151Y28177238D01*
X30610154Y28177233D01*
X30612477Y28172251D01*
X30685902Y28067389D01*
X30716149Y28024193D01*
X30743802Y27984700D01*
X30905700Y27822802D01*
X30910211Y27819643D01*
X30914424Y27816108D01*
X30913473Y27814974D01*
X30953471Y27764929D01*
X30960776Y27694310D01*
X30928742Y27630951D01*
X30867538Y27594970D01*
X30850483Y27591918D01*
X30839684Y27590745D01*
X30703295Y27539615D01*
X30586739Y27452261D01*
X30499385Y27335705D01*
X30448255Y27199316D01*
X30441500Y27137134D01*
X30441500Y25440866D01*
X30448255Y25378684D01*
X30499385Y25242295D01*
X30586739Y25125739D01*
X30703295Y25038385D01*
X30839684Y24987255D01*
X30901866Y24980500D01*
X32483569Y24980500D01*
X32551690Y24960498D01*
X32572664Y24943595D01*
X34174249Y23342011D01*
X34208274Y23279699D01*
X34210675Y23241935D01*
X34204102Y23166800D01*
X34224057Y22938713D01*
X34225481Y22933400D01*
X34225481Y22933398D01*
X34269491Y22769154D01*
X34283316Y22717557D01*
X34285639Y22712576D01*
X34285639Y22712575D01*
X34377751Y22515038D01*
X34377754Y22515033D01*
X34380077Y22510051D01*
X34511402Y22322500D01*
X34673300Y22160602D01*
X34677808Y22157445D01*
X34677811Y22157443D01*
X34755989Y22102702D01*
X34860851Y22029277D01*
X34865833Y22026954D01*
X34865838Y22026951D01*
X34900057Y22010995D01*
X34953342Y21964078D01*
X34972803Y21895801D01*
X34952261Y21827841D01*
X34900057Y21782605D01*
X34865838Y21766649D01*
X34865833Y21766646D01*
X34860851Y21764323D01*
X34783750Y21710336D01*
X34677811Y21636157D01*
X34677808Y21636155D01*
X34673300Y21632998D01*
X34511402Y21471100D01*
X34380077Y21283549D01*
X34377754Y21278567D01*
X34377751Y21278562D01*
X34285639Y21081025D01*
X34283316Y21076043D01*
X34281894Y21070735D01*
X34281893Y21070733D01*
X34248467Y20945986D01*
X34224057Y20854887D01*
X34204102Y20626800D01*
X34204581Y20621325D01*
X34204581Y20621324D01*
X34210675Y20551665D01*
X34196685Y20482060D01*
X34174249Y20451589D01*
X33889565Y20166905D01*
X33827253Y20132879D01*
X33800470Y20130000D01*
X33170332Y20130000D01*
X33102211Y20150002D01*
X33055718Y20203658D01*
X33052022Y20214420D01*
X33051745Y20214316D01*
X33003767Y20342297D01*
X33000615Y20350705D01*
X32913261Y20467261D01*
X32796705Y20554615D01*
X32660316Y20605745D01*
X32649526Y20606917D01*
X32647394Y20607803D01*
X32644778Y20608425D01*
X32644879Y20608848D01*
X32583965Y20634155D01*
X32543537Y20692517D01*
X32541078Y20763471D01*
X32577371Y20824490D01*
X32586031Y20831489D01*
X32589793Y20834646D01*
X32594300Y20837802D01*
X32756198Y20999700D01*
X32887523Y21187251D01*
X32889846Y21192233D01*
X32889849Y21192238D01*
X32981961Y21389775D01*
X32981961Y21389776D01*
X32984284Y21394757D01*
X33003532Y21466589D01*
X33042119Y21610598D01*
X33042119Y21610600D01*
X33043543Y21615913D01*
X33063498Y21844000D01*
X33043543Y22072087D01*
X33042119Y22077402D01*
X32985707Y22287933D01*
X32985706Y22287935D01*
X32984284Y22293243D01*
X32972459Y22318603D01*
X32889849Y22495762D01*
X32889846Y22495767D01*
X32887523Y22500749D01*
X32785693Y22646177D01*
X32759357Y22683789D01*
X32759355Y22683792D01*
X32756198Y22688300D01*
X32594300Y22850198D01*
X32589792Y22853355D01*
X32589789Y22853357D01*
X32467888Y22938713D01*
X32406749Y22981523D01*
X32401767Y22983846D01*
X32401762Y22983849D01*
X32204225Y23075961D01*
X32204224Y23075961D01*
X32199243Y23078284D01*
X32193935Y23079706D01*
X32193933Y23079707D01*
X31983402Y23136119D01*
X31983400Y23136119D01*
X31978087Y23137543D01*
X31750000Y23157498D01*
X31521913Y23137543D01*
X31516600Y23136119D01*
X31516598Y23136119D01*
X31306067Y23079707D01*
X31306065Y23079706D01*
X31300757Y23078284D01*
X31295776Y23075961D01*
X31295775Y23075961D01*
X31098238Y22983849D01*
X31098233Y22983846D01*
X31093251Y22981523D01*
X31032112Y22938713D01*
X30910211Y22853357D01*
X30910208Y22853355D01*
X30905700Y22850198D01*
X30743802Y22688300D01*
X30740645Y22683792D01*
X30740643Y22683789D01*
X30714307Y22646177D01*
X30612477Y22500749D01*
X30610154Y22495767D01*
X30610151Y22495762D01*
X30527541Y22318603D01*
X30515716Y22293243D01*
X30514294Y22287935D01*
X30514293Y22287933D01*
X30457881Y22077402D01*
X30456457Y22072087D01*
X30436502Y21844000D01*
X30456457Y21615913D01*
X30457881Y21610600D01*
X30457881Y21610598D01*
X30496469Y21466589D01*
X30515716Y21394757D01*
X30518039Y21389776D01*
X30518039Y21389775D01*
X30610151Y21192238D01*
X30610154Y21192233D01*
X30612477Y21187251D01*
X30743802Y20999700D01*
X30905700Y20837802D01*
X30910211Y20834643D01*
X30914424Y20831108D01*
X30913473Y20829974D01*
X30953471Y20779929D01*
X30960776Y20709310D01*
X30928742Y20645951D01*
X30867538Y20609970D01*
X30850483Y20606918D01*
X30839684Y20605745D01*
X30703295Y20554615D01*
X30586739Y20467261D01*
X30499385Y20350705D01*
X30448255Y20214316D01*
X30441500Y20152134D01*
X30441500Y18455866D01*
X30448255Y18393684D01*
X30499385Y18257295D01*
X30586739Y18140739D01*
X30703295Y18053385D01*
X30839684Y18002255D01*
X30901866Y17995500D01*
X32598134Y17995500D01*
X32660316Y18002255D01*
X32796705Y18053385D01*
X32913261Y18140739D01*
X33000615Y18257295D01*
X33051745Y18393684D01*
X33054356Y18392705D01*
X33082955Y18442781D01*
X33145905Y18475610D01*
X33170332Y18478000D01*
X34103556Y18478000D01*
X34171677Y18457998D01*
X34218170Y18404342D01*
X34228274Y18334068D01*
X34225794Y18321976D01*
X34225481Y18320203D01*
X34224057Y18314887D01*
X34204102Y18086800D01*
X34204581Y18081325D01*
X34204581Y18081324D01*
X34210675Y18011665D01*
X34196685Y17942060D01*
X34174249Y17911589D01*
X33835565Y17572905D01*
X33773253Y17538879D01*
X33746470Y17536000D01*
X28053049Y17536000D01*
X27984928Y17556002D01*
X27938435Y17609658D01*
X27928331Y17679932D01*
X27940190Y17718025D01*
X27954731Y17747317D01*
X27954732Y17747321D01*
X27957767Y17753434D01*
X27959419Y17760059D01*
X27960253Y17762326D01*
X27960472Y17762851D01*
X27960721Y17763555D01*
X27960883Y17764105D01*
X27961661Y17766389D01*
X27964543Y17772571D01*
X27966031Y17779229D01*
X27966034Y17779237D01*
X27981581Y17848790D01*
X27982289Y17851786D01*
X27999533Y17920947D01*
X27999533Y17920950D01*
X28001184Y17927570D01*
X28001375Y17934391D01*
X28001703Y17936788D01*
X28001904Y17937902D01*
X28002566Y17942676D01*
X28003693Y17947716D01*
X28004000Y17953207D01*
X28004000Y18026621D01*
X28004049Y18030139D01*
X28004849Y18058771D01*
X28006195Y18106967D01*
X28004916Y18113674D01*
X28004406Y18120009D01*
X28004000Y18130116D01*
X28004000Y25740967D01*
X28004442Y25751511D01*
X28008052Y25794502D01*
X28008623Y25801300D01*
X27998289Y25878743D01*
X27997924Y25881764D01*
X27990226Y25952634D01*
X27990226Y25952636D01*
X27989489Y25959417D01*
X27987313Y25965883D01*
X27986796Y25968233D01*
X27986699Y25968783D01*
X27986520Y25969550D01*
X27986365Y25970085D01*
X27985789Y25972432D01*
X27984887Y25979190D01*
X27958189Y26052542D01*
X27957174Y26055443D01*
X27934425Y26123039D01*
X27934422Y26123046D01*
X27932246Y26129511D01*
X27928731Y26135360D01*
X27927718Y26137553D01*
X27927506Y26138068D01*
X27927173Y26138766D01*
X27926900Y26139267D01*
X27925840Y26141421D01*
X27923506Y26147834D01*
X27881641Y26213802D01*
X27880041Y26216394D01*
X27843324Y26277502D01*
X27839814Y26283344D01*
X27835133Y26288295D01*
X27833663Y26290231D01*
X27833016Y26291162D01*
X27830113Y26295000D01*
X27827343Y26299364D01*
X27823677Y26303463D01*
X27771772Y26355368D01*
X27769319Y26357890D01*
X27721198Y26408777D01*
X27721194Y26408780D01*
X27716504Y26413740D01*
X27710857Y26417578D01*
X27706005Y26421707D01*
X27698575Y26428565D01*
X25473351Y28653789D01*
X25439325Y28716101D01*
X25436925Y28753865D01*
X25443019Y28823524D01*
X25443019Y28823525D01*
X25443498Y28829000D01*
X25423543Y29057087D01*
X25417825Y29078428D01*
X25365707Y29272933D01*
X25365706Y29272935D01*
X25364284Y29278243D01*
X25361961Y29283225D01*
X25269849Y29480762D01*
X25269846Y29480767D01*
X25267523Y29485749D01*
X25169872Y29625209D01*
X25139357Y29668789D01*
X25139355Y29668792D01*
X25136198Y29673300D01*
X24974300Y29835198D01*
X24969792Y29838355D01*
X24969789Y29838357D01*
X24861981Y29913845D01*
X24786749Y29966523D01*
X24781767Y29968846D01*
X24781762Y29968849D01*
X24584225Y30060961D01*
X24584224Y30060961D01*
X24579243Y30063284D01*
X24573935Y30064706D01*
X24573933Y30064707D01*
X24363402Y30121119D01*
X24363400Y30121119D01*
X24358087Y30122543D01*
X24130000Y30142498D01*
X23901913Y30122543D01*
X23896600Y30121119D01*
X23896598Y30121119D01*
X23686067Y30064707D01*
X23686065Y30064706D01*
X23680757Y30063284D01*
X23675776Y30060961D01*
X23675775Y30060961D01*
X23478238Y29968849D01*
X23478233Y29968846D01*
X23473251Y29966523D01*
X23398019Y29913845D01*
X23290211Y29838357D01*
X23290208Y29838355D01*
X23285700Y29835198D01*
X23123802Y29673300D01*
X23120645Y29668792D01*
X23120643Y29668789D01*
X23090128Y29625209D01*
X22992477Y29485749D01*
X22990154Y29480767D01*
X22990151Y29480762D01*
X22898039Y29283225D01*
X22895716Y29278243D01*
X22894294Y29272935D01*
X22894293Y29272933D01*
X22842175Y29078428D01*
X22836457Y29057087D01*
X22816502Y28829000D01*
X22836457Y28600913D01*
X22837881Y28595600D01*
X22837881Y28595598D01*
X22868802Y28480202D01*
X22895716Y28379757D01*
X22898039Y28374776D01*
X22898039Y28374775D01*
X22990151Y28177238D01*
X22990154Y28177233D01*
X22992477Y28172251D01*
X23065902Y28067389D01*
X23096149Y28024193D01*
X23123802Y27984700D01*
X23285700Y27822802D01*
X23290208Y27819645D01*
X23290211Y27819643D01*
X23368351Y27764929D01*
X23473251Y27691477D01*
X23478233Y27689154D01*
X23478238Y27689151D01*
X23512457Y27673195D01*
X23565742Y27626278D01*
X23585203Y27558001D01*
X23564661Y27490041D01*
X23512457Y27444805D01*
X23478238Y27428849D01*
X23478233Y27428846D01*
X23473251Y27426523D01*
X23368389Y27353098D01*
X23290211Y27298357D01*
X23290208Y27298355D01*
X23285700Y27295198D01*
X23123802Y27133300D01*
X23120645Y27128792D01*
X23120643Y27128789D01*
X23093914Y27090616D01*
X22992477Y26945749D01*
X22990154Y26940767D01*
X22990151Y26940762D01*
X22943709Y26841166D01*
X22895716Y26738243D01*
X22894294Y26732935D01*
X22894293Y26732933D01*
X22844046Y26545409D01*
X22836457Y26517087D01*
X22816502Y26289000D01*
X22836457Y26060913D01*
X22837881Y26055600D01*
X22837881Y26055598D01*
X22868802Y25940202D01*
X22895716Y25839757D01*
X22898039Y25834776D01*
X22898039Y25834775D01*
X22990151Y25637238D01*
X22990154Y25637233D01*
X22992477Y25632251D01*
X23065902Y25527389D01*
X23096149Y25484193D01*
X23123802Y25444700D01*
X23285700Y25282802D01*
X23290208Y25279645D01*
X23290211Y25279643D01*
X23331542Y25250703D01*
X23473251Y25151477D01*
X23478233Y25149154D01*
X23478238Y25149151D01*
X23589891Y25097087D01*
X23680757Y25054716D01*
X23686065Y25053294D01*
X23686067Y25053293D01*
X23896598Y24996881D01*
X23896600Y24996881D01*
X23901913Y24995457D01*
X24130000Y24975502D01*
X24135475Y24975981D01*
X24135476Y24975981D01*
X24205134Y24982075D01*
X24274739Y24968085D01*
X24305210Y24945649D01*
X25419607Y23831253D01*
X25453632Y23768941D01*
X25456512Y23742158D01*
X25456512Y22630466D01*
X25436510Y22562345D01*
X25382854Y22515852D01*
X25312580Y22505748D01*
X25248000Y22535242D01*
X25227299Y22558195D01*
X25139357Y22683789D01*
X25139355Y22683792D01*
X25136198Y22688300D01*
X24974300Y22850198D01*
X24969792Y22853355D01*
X24969789Y22853357D01*
X24847888Y22938713D01*
X24786749Y22981523D01*
X24781767Y22983846D01*
X24781762Y22983849D01*
X24584225Y23075961D01*
X24584224Y23075961D01*
X24579243Y23078284D01*
X24573935Y23079706D01*
X24573933Y23079707D01*
X24363402Y23136119D01*
X24363400Y23136119D01*
X24358087Y23137543D01*
X24130000Y23157498D01*
X23901913Y23137543D01*
X23896600Y23136119D01*
X23896598Y23136119D01*
X23686067Y23079707D01*
X23686065Y23079706D01*
X23680757Y23078284D01*
X23675776Y23075961D01*
X23675775Y23075961D01*
X23478238Y22983849D01*
X23478233Y22983846D01*
X23473251Y22981523D01*
X23412112Y22938713D01*
X23290211Y22853357D01*
X23290208Y22853355D01*
X23285700Y22850198D01*
X23123802Y22688300D01*
X23120645Y22683792D01*
X23120643Y22683789D01*
X23094307Y22646177D01*
X22992477Y22500749D01*
X22990154Y22495767D01*
X22990151Y22495762D01*
X22907541Y22318603D01*
X22895716Y22293243D01*
X22894294Y22287935D01*
X22894293Y22287933D01*
X22837881Y22077402D01*
X22836457Y22072087D01*
X22816502Y21844000D01*
X22836457Y21615913D01*
X22837881Y21610600D01*
X22837881Y21610598D01*
X22876469Y21466589D01*
X22895716Y21394757D01*
X22898039Y21389776D01*
X22898039Y21389775D01*
X22990151Y21192238D01*
X22990154Y21192233D01*
X22992477Y21187251D01*
X23123802Y20999700D01*
X23285700Y20837802D01*
X23290208Y20834645D01*
X23290211Y20834643D01*
X23368351Y20779929D01*
X23473251Y20706477D01*
X23478233Y20704154D01*
X23478238Y20704151D01*
X23512457Y20688195D01*
X23565742Y20641278D01*
X23585203Y20573001D01*
X23564661Y20505041D01*
X23512457Y20459805D01*
X23478238Y20443849D01*
X23478233Y20443846D01*
X23473251Y20441523D01*
X23412112Y20398713D01*
X23290211Y20313357D01*
X23290208Y20313355D01*
X23285700Y20310198D01*
X23142407Y20166905D01*
X23080095Y20132879D01*
X23053312Y20130000D01*
X11009429Y20130000D01*
X10941308Y20150002D01*
X10920334Y20166905D01*
X8653402Y22433836D01*
X8619377Y22496148D01*
X8624441Y22566963D01*
X8666988Y22623799D01*
X8716300Y22646177D01*
X8845660Y22673674D01*
X8845672Y22673677D01*
X8849970Y22674591D01*
X8854099Y22676094D01*
X8854103Y22676095D01*
X9109781Y22769154D01*
X9109785Y22769156D01*
X9113926Y22770663D01*
X9361942Y22902536D01*
X9411736Y22938713D01*
X9585629Y23065053D01*
X9585632Y23065056D01*
X9589192Y23067642D01*
X9791252Y23262769D01*
X9964188Y23484118D01*
X9966384Y23487922D01*
X9966389Y23487929D01*
X10102435Y23723569D01*
X10104636Y23727381D01*
X10209862Y23987824D01*
X10214541Y24006589D01*
X10276753Y24256107D01*
X10276754Y24256112D01*
X10277817Y24260376D01*
X10282681Y24306649D01*
X10306719Y24535364D01*
X10306719Y24535367D01*
X10307178Y24539733D01*
X10306228Y24566951D01*
X10297529Y24816061D01*
X10297528Y24816067D01*
X10297375Y24820458D01*
X10289167Y24867011D01*
X10257916Y25044242D01*
X10248598Y25097087D01*
X10161797Y25364235D01*
X10158359Y25371285D01*
X10103289Y25484193D01*
X10038660Y25616702D01*
X10036205Y25620341D01*
X10036202Y25620347D01*
X9934749Y25770757D01*
X9881585Y25849576D01*
X9693629Y26058322D01*
X9478450Y26238879D01*
X9240236Y26387731D01*
X8983625Y26501982D01*
X8713610Y26579407D01*
X8709260Y26580018D01*
X8709257Y26580019D01*
X8606310Y26594487D01*
X8435448Y26618500D01*
X8224854Y26618500D01*
X8222668Y26618347D01*
X8222664Y26618347D01*
X8019173Y26604118D01*
X8019168Y26604117D01*
X8014788Y26603811D01*
X7740030Y26545409D01*
X7735901Y26543906D01*
X7735897Y26543905D01*
X7480219Y26450846D01*
X7480215Y26450844D01*
X7476074Y26449337D01*
X7301700Y26356620D01*
X7288653Y26349683D01*
X7219115Y26335363D01*
X7152875Y26360911D01*
X7110962Y26418215D01*
X7103499Y26460934D01*
X7103499Y27348766D01*
X7123501Y27416887D01*
X7177157Y27463380D01*
X7251054Y27472909D01*
X7346140Y27456399D01*
X7346148Y27456398D01*
X7349921Y27455743D01*
X7353758Y27455552D01*
X7433578Y27451578D01*
X7433586Y27451578D01*
X7435149Y27451500D01*
X8203512Y27451500D01*
X8205780Y27451665D01*
X8205792Y27451665D01*
X8336884Y27461177D01*
X8404004Y27466047D01*
X8408459Y27467031D01*
X8408462Y27467031D01*
X8662912Y27523209D01*
X8662916Y27523210D01*
X8667372Y27524194D01*
X8793480Y27571972D01*
X8915318Y27618132D01*
X8915321Y27618133D01*
X8919588Y27619750D01*
X9155368Y27750714D01*
X9369773Y27914343D01*
X9558312Y28107208D01*
X9717034Y28325270D01*
X9795751Y28474887D01*
X9840490Y28559921D01*
X9840493Y28559927D01*
X9842615Y28563961D01*
X9853788Y28595598D01*
X9930902Y28813967D01*
X9930902Y28813968D01*
X9932425Y28818280D01*
X9968987Y29003783D01*
X9983700Y29078428D01*
X9983701Y29078434D01*
X9984581Y29082900D01*
X9991681Y29225523D01*
X9993782Y29267723D01*
X11172009Y29267723D01*
X11197625Y28999231D01*
X11198710Y28994797D01*
X11198711Y28994791D01*
X11256326Y28759340D01*
X11261731Y28737250D01*
X11362985Y28487267D01*
X11499265Y28254518D01*
X11568661Y28167743D01*
X11619686Y28103940D01*
X11667716Y28043881D01*
X11864809Y27859766D01*
X12086416Y27706032D01*
X12090499Y27704001D01*
X12090502Y27703999D01*
X12120348Y27689151D01*
X12327894Y27585899D01*
X12332228Y27584478D01*
X12332231Y27584477D01*
X12579853Y27503302D01*
X12579859Y27503301D01*
X12584186Y27501882D01*
X12588677Y27501102D01*
X12588678Y27501102D01*
X12846140Y27456399D01*
X12846148Y27456398D01*
X12849921Y27455743D01*
X12853758Y27455552D01*
X12933578Y27451578D01*
X12933586Y27451578D01*
X12935149Y27451500D01*
X13703512Y27451500D01*
X13705780Y27451665D01*
X13705792Y27451665D01*
X13836884Y27461177D01*
X13904004Y27466047D01*
X13908459Y27467031D01*
X13908462Y27467031D01*
X14162912Y27523209D01*
X14162916Y27523210D01*
X14167372Y27524194D01*
X14293480Y27571972D01*
X14415318Y27618132D01*
X14415321Y27618133D01*
X14419588Y27619750D01*
X14655368Y27750714D01*
X14869773Y27914343D01*
X15058312Y28107208D01*
X15217034Y28325270D01*
X15295751Y28474887D01*
X15340490Y28559921D01*
X15340493Y28559927D01*
X15342615Y28563961D01*
X15353788Y28595598D01*
X15430902Y28813967D01*
X15430902Y28813968D01*
X15432425Y28818280D01*
X15468987Y29003783D01*
X15483700Y29078428D01*
X15483701Y29078434D01*
X15484581Y29082900D01*
X15491681Y29225523D01*
X15497764Y29347708D01*
X15497764Y29347714D01*
X15497991Y29352277D01*
X15472375Y29620769D01*
X15465969Y29646951D01*
X15409354Y29878316D01*
X15408269Y29882750D01*
X15406556Y29886981D01*
X15343790Y30041941D01*
X15336756Y30112588D01*
X15371479Y30178338D01*
X17604235Y32411095D01*
X17666547Y32445120D01*
X17693330Y32448000D01*
X23053312Y32448000D01*
X23121433Y32427998D01*
X23142407Y32411095D01*
X23285700Y32267802D01*
X23290208Y32264645D01*
X23290211Y32264643D01*
X23323663Y32241220D01*
X23473251Y32136477D01*
X23478233Y32134154D01*
X23478238Y32134151D01*
X23644120Y32056800D01*
X23680757Y32039716D01*
X23686065Y32038294D01*
X23686067Y32038293D01*
X23896598Y31981881D01*
X23896600Y31981881D01*
X23901913Y31980457D01*
X24130000Y31960502D01*
X24358087Y31980457D01*
X24363400Y31981881D01*
X24363402Y31981881D01*
X24573933Y32038293D01*
X24573935Y32038294D01*
X24579243Y32039716D01*
X24615880Y32056800D01*
X24781762Y32134151D01*
X24781767Y32134154D01*
X24786749Y32136477D01*
X24936337Y32241220D01*
X24969789Y32264643D01*
X24969792Y32264645D01*
X24974300Y32267802D01*
X25136198Y32429700D01*
X25146996Y32445120D01*
X25264366Y32612743D01*
X25267523Y32617251D01*
X25269846Y32622233D01*
X25269849Y32622238D01*
X25361961Y32819775D01*
X25361961Y32819776D01*
X25364284Y32824757D01*
X25423543Y33045913D01*
X25443498Y33274000D01*
X25423543Y33502087D01*
X25364284Y33723243D01*
X25359947Y33732544D01*
X25269849Y33925762D01*
X25269846Y33925767D01*
X25267523Y33930749D01*
X25161128Y34082697D01*
X25139357Y34113789D01*
X25139355Y34113792D01*
X25136198Y34118300D01*
X24974300Y34280198D01*
X24969792Y34283355D01*
X24969789Y34283357D01*
X24872585Y34351420D01*
X24786749Y34411523D01*
X24781767Y34413846D01*
X24781762Y34413849D01*
X24747543Y34429805D01*
X24694258Y34476722D01*
X24674797Y34544999D01*
X24695339Y34612959D01*
X24747543Y34658195D01*
X24781762Y34674151D01*
X24781767Y34674154D01*
X24786749Y34676477D01*
X24891649Y34749929D01*
X24969789Y34804643D01*
X24969792Y34804645D01*
X24974300Y34807802D01*
X25136198Y34969700D01*
X25170441Y35018603D01*
X25264366Y35152743D01*
X25267523Y35157251D01*
X25269846Y35162233D01*
X25269849Y35162238D01*
X25361961Y35359775D01*
X25361961Y35359776D01*
X25364284Y35364757D01*
X25423543Y35585913D01*
X25443498Y35814000D01*
X25423543Y36042087D01*
X25406409Y36106032D01*
X25365707Y36257933D01*
X25365706Y36257935D01*
X25364284Y36263243D01*
X25342139Y36310733D01*
X25269849Y36465762D01*
X25269846Y36465767D01*
X25267523Y36470749D01*
X25158657Y36626226D01*
X25139357Y36653789D01*
X25139355Y36653792D01*
X25136198Y36658300D01*
X24974300Y36820198D01*
X24969792Y36823355D01*
X24969789Y36823357D01*
X24849747Y36907411D01*
X24786749Y36951523D01*
X24781767Y36953846D01*
X24781762Y36953849D01*
X24584225Y37045961D01*
X24584224Y37045961D01*
X24579243Y37048284D01*
X24573935Y37049706D01*
X24573933Y37049707D01*
X24363402Y37106119D01*
X24363400Y37106119D01*
X24358087Y37107543D01*
X24130000Y37127498D01*
X23901913Y37107543D01*
X23896600Y37106119D01*
X23896598Y37106119D01*
X23686067Y37049707D01*
X23686065Y37049706D01*
X23680757Y37048284D01*
X23675776Y37045961D01*
X23675775Y37045961D01*
X23478238Y36953849D01*
X23478233Y36953846D01*
X23473251Y36951523D01*
X23410253Y36907411D01*
X23290211Y36823357D01*
X23290208Y36823355D01*
X23285700Y36820198D01*
X23142407Y36676905D01*
X23080095Y36642879D01*
X23053312Y36640000D01*
X15679033Y36640000D01*
X15668489Y36640442D01*
X15659000Y36641239D01*
X15618700Y36644623D01*
X15541257Y36634289D01*
X15538257Y36633927D01*
X15496502Y36629391D01*
X15467366Y36626226D01*
X15467364Y36626226D01*
X15460583Y36625489D01*
X15454117Y36623313D01*
X15451767Y36622796D01*
X15451218Y36622699D01*
X15450459Y36622522D01*
X15449914Y36622364D01*
X15447575Y36621789D01*
X15440810Y36620887D01*
X15402552Y36606962D01*
X15331701Y36602458D01*
X15269660Y36636976D01*
X15236129Y36699556D01*
X15241755Y36770329D01*
X15247949Y36784030D01*
X15340490Y36959921D01*
X15340493Y36959927D01*
X15342615Y36963961D01*
X15347594Y36978058D01*
X15430902Y37213967D01*
X15430902Y37213968D01*
X15432425Y37218280D01*
X15468987Y37403783D01*
X15483700Y37478428D01*
X15483701Y37478434D01*
X15484581Y37482900D01*
X15487484Y37541217D01*
X15497764Y37747708D01*
X15497764Y37747714D01*
X15497991Y37752277D01*
X15472375Y38020769D01*
X15463943Y38055231D01*
X15409354Y38278316D01*
X15408269Y38282750D01*
X15406556Y38286981D01*
X15343790Y38441941D01*
X15336756Y38512588D01*
X15371479Y38578338D01*
X16189236Y39396095D01*
X16251548Y39430121D01*
X16278331Y39433000D01*
X23053312Y39433000D01*
X23121433Y39412998D01*
X23142407Y39396095D01*
X23285700Y39252802D01*
X23290208Y39249645D01*
X23290211Y39249643D01*
X23294573Y39246589D01*
X23473251Y39121477D01*
X23478233Y39119154D01*
X23478238Y39119151D01*
X23675775Y39027039D01*
X23680757Y39024716D01*
X23686065Y39023294D01*
X23686067Y39023293D01*
X23896598Y38966881D01*
X23896600Y38966881D01*
X23901913Y38965457D01*
X24130000Y38945502D01*
X24358087Y38965457D01*
X24363400Y38966881D01*
X24363402Y38966881D01*
X24573933Y39023293D01*
X24573935Y39023294D01*
X24579243Y39024716D01*
X24584225Y39027039D01*
X24781762Y39119151D01*
X24781767Y39119154D01*
X24786749Y39121477D01*
X24965427Y39246589D01*
X24969789Y39249643D01*
X24969792Y39249645D01*
X24974300Y39252802D01*
X25136198Y39414700D01*
X25150779Y39435523D01*
X25212646Y39523879D01*
X25267523Y39602251D01*
X25269846Y39607233D01*
X25269849Y39607238D01*
X25361961Y39804775D01*
X25361961Y39804776D01*
X25364284Y39809757D01*
X25371425Y39836405D01*
X25422119Y40025598D01*
X25422119Y40025600D01*
X25423543Y40030913D01*
X25443498Y40259000D01*
X25423543Y40487087D01*
X25422119Y40492402D01*
X25365707Y40702933D01*
X25365706Y40702935D01*
X25364284Y40708243D01*
X25359402Y40718713D01*
X25269849Y40910762D01*
X25269846Y40910767D01*
X25267523Y40915749D01*
X25179358Y41041662D01*
X25139357Y41098789D01*
X25139355Y41098792D01*
X25136198Y41103300D01*
X24974300Y41265198D01*
X24969792Y41268355D01*
X24969789Y41268357D01*
X24865067Y41341684D01*
X24786749Y41396523D01*
X24781767Y41398846D01*
X24781762Y41398849D01*
X24747543Y41414805D01*
X24694258Y41461722D01*
X24674797Y41529999D01*
X24695339Y41597959D01*
X24747543Y41643195D01*
X24781762Y41659151D01*
X24781767Y41659154D01*
X24786749Y41661477D01*
X24955289Y41779490D01*
X24969789Y41789643D01*
X24969792Y41789645D01*
X24974300Y41792802D01*
X25136198Y41954700D01*
X25139694Y41959692D01*
X25224751Y42081166D01*
X25267523Y42142251D01*
X25269846Y42147233D01*
X25269849Y42147238D01*
X25361961Y42344775D01*
X25361961Y42344776D01*
X25364284Y42349757D01*
X25398731Y42478312D01*
X25422119Y42565598D01*
X25422119Y42565600D01*
X25423543Y42570913D01*
X25443498Y42799000D01*
X25423543Y43027087D01*
X25422119Y43032402D01*
X25365707Y43242933D01*
X25365706Y43242935D01*
X25364284Y43248243D01*
X25344496Y43290679D01*
X25269849Y43450762D01*
X25269846Y43450767D01*
X25267523Y43455749D01*
X25194098Y43560611D01*
X25139357Y43638789D01*
X25139355Y43638792D01*
X25136198Y43643300D01*
X24974300Y43805198D01*
X24969792Y43808355D01*
X24969789Y43808357D01*
X24891611Y43863098D01*
X24786749Y43936523D01*
X24781767Y43938846D01*
X24781762Y43938849D01*
X24584225Y44030961D01*
X24584224Y44030961D01*
X24579243Y44033284D01*
X24573935Y44034706D01*
X24573933Y44034707D01*
X24363402Y44091119D01*
X24363400Y44091119D01*
X24358087Y44092543D01*
X24130000Y44112498D01*
X23901913Y44092543D01*
X23896600Y44091119D01*
X23896598Y44091119D01*
X23686067Y44034707D01*
X23686065Y44034706D01*
X23680757Y44033284D01*
X23675776Y44030961D01*
X23675775Y44030961D01*
X23478238Y43938849D01*
X23478233Y43938846D01*
X23473251Y43936523D01*
X23368389Y43863098D01*
X23290211Y43808357D01*
X23290208Y43808355D01*
X23285700Y43805198D01*
X23142407Y43661905D01*
X23080095Y43627879D01*
X23053312Y43625000D01*
X15218555Y43625000D01*
X15152439Y43643740D01*
X15063968Y43698275D01*
X15063966Y43698276D01*
X15057738Y43702115D01*
X14930852Y43744201D01*
X14896389Y43755632D01*
X14896387Y43755632D01*
X14889861Y43757797D01*
X14883025Y43758497D01*
X14883022Y43758498D01*
X14833214Y43763601D01*
X14785400Y43768500D01*
X11884600Y43768500D01*
X11881354Y43768163D01*
X11881350Y43768163D01*
X11785693Y43758238D01*
X11785689Y43758237D01*
X11778835Y43757526D01*
X11772299Y43755345D01*
X11772297Y43755345D01*
X11738895Y43744201D01*
X11611055Y43701550D01*
X11460652Y43608478D01*
X11455479Y43603296D01*
X11452438Y43600250D01*
X11335695Y43483303D01*
X11242885Y43332738D01*
X11187203Y43164861D01*
X11176500Y43060400D01*
X11176500Y40759600D01*
X11176837Y40756354D01*
X11176837Y40756350D01*
X11182380Y40702933D01*
X11187474Y40653835D01*
X11243450Y40486055D01*
X11336522Y40335652D01*
X11461697Y40210695D01*
X11467927Y40206855D01*
X11467928Y40206854D01*
X11569820Y40144047D01*
X11612262Y40117885D01*
X11658647Y40102500D01*
X11773611Y40064368D01*
X11773613Y40064368D01*
X11780139Y40062203D01*
X11786975Y40061503D01*
X11786978Y40061502D01*
X11830031Y40057091D01*
X11884600Y40051500D01*
X14204168Y40051500D01*
X14272289Y40031498D01*
X14318782Y39977842D01*
X14328886Y39907568D01*
X14299392Y39842988D01*
X14293264Y39836405D01*
X14037608Y39580748D01*
X13975295Y39546723D01*
X13926957Y39545700D01*
X13823860Y39563601D01*
X13823852Y39563602D01*
X13820079Y39564257D01*
X13808817Y39564818D01*
X13736422Y39568422D01*
X13736414Y39568422D01*
X13734851Y39568500D01*
X12966488Y39568500D01*
X12964220Y39568335D01*
X12964208Y39568335D01*
X12833116Y39558823D01*
X12765996Y39553953D01*
X12761541Y39552969D01*
X12761538Y39552969D01*
X12507088Y39496791D01*
X12507084Y39496790D01*
X12502628Y39495806D01*
X12401149Y39457359D01*
X12254682Y39401868D01*
X12254679Y39401867D01*
X12250412Y39400250D01*
X12014632Y39269286D01*
X11800227Y39105657D01*
X11797034Y39102391D01*
X11797032Y39102389D01*
X11719710Y39023293D01*
X11611688Y38912792D01*
X11452966Y38694730D01*
X11450844Y38690696D01*
X11329510Y38460079D01*
X11329507Y38460073D01*
X11327385Y38456039D01*
X11325865Y38451734D01*
X11325863Y38451730D01*
X11252289Y38243386D01*
X11237575Y38201720D01*
X11225553Y38140724D01*
X11190498Y37962867D01*
X11185419Y37937100D01*
X11185192Y37932547D01*
X11185192Y37932544D01*
X11175287Y37733567D01*
X11172009Y37667723D01*
X11197625Y37399231D01*
X11198710Y37394797D01*
X11198711Y37394791D01*
X11260645Y37141688D01*
X11261731Y37137250D01*
X11362985Y36887267D01*
X11499265Y36654518D01*
X11568259Y36568246D01*
X11655084Y36459677D01*
X11667716Y36443881D01*
X11864809Y36259766D01*
X12086416Y36106032D01*
X12090499Y36104001D01*
X12090502Y36103999D01*
X12206013Y36046534D01*
X12327894Y35985899D01*
X12332228Y35984478D01*
X12332231Y35984477D01*
X12579853Y35903302D01*
X12579859Y35903301D01*
X12584186Y35901882D01*
X12588677Y35901102D01*
X12588678Y35901102D01*
X12846140Y35856399D01*
X12846148Y35856398D01*
X12849921Y35855743D01*
X12853758Y35855552D01*
X12933578Y35851578D01*
X12933586Y35851578D01*
X12935149Y35851500D01*
X13703512Y35851500D01*
X13705780Y35851665D01*
X13705792Y35851665D01*
X13838924Y35861325D01*
X13904004Y35866047D01*
X13908459Y35867031D01*
X13908462Y35867031D01*
X14162912Y35923209D01*
X14162916Y35923210D01*
X14167372Y35924194D01*
X14171639Y35925811D01*
X14171647Y35925813D01*
X14284938Y35968735D01*
X14355726Y35974165D01*
X14418213Y35940461D01*
X14452559Y35878325D01*
X14447859Y35807485D01*
X14418673Y35761813D01*
X14037608Y35380748D01*
X13975296Y35346722D01*
X13926959Y35345700D01*
X13823863Y35363600D01*
X13820079Y35364257D01*
X13808817Y35364818D01*
X13736422Y35368422D01*
X13736414Y35368422D01*
X13734851Y35368500D01*
X12966488Y35368500D01*
X12964220Y35368335D01*
X12964208Y35368335D01*
X12833116Y35358823D01*
X12765996Y35353953D01*
X12761541Y35352969D01*
X12761538Y35352969D01*
X12507088Y35296791D01*
X12507084Y35296790D01*
X12502628Y35295806D01*
X12459692Y35279539D01*
X12254682Y35201868D01*
X12254679Y35201867D01*
X12250412Y35200250D01*
X12014632Y35069286D01*
X11800227Y34905657D01*
X11797034Y34902391D01*
X11797032Y34902389D01*
X11753094Y34857443D01*
X11611688Y34712792D01*
X11452966Y34494730D01*
X11413407Y34419541D01*
X11329510Y34260079D01*
X11329507Y34260073D01*
X11327385Y34256039D01*
X11325865Y34251734D01*
X11325863Y34251730D01*
X11256100Y34054179D01*
X11237575Y34001720D01*
X11229505Y33960775D01*
X11193095Y33776043D01*
X11185419Y33737100D01*
X11185192Y33732547D01*
X11185192Y33732544D01*
X11173447Y33496607D01*
X11172009Y33467723D01*
X11197625Y33199231D01*
X11198710Y33194797D01*
X11198711Y33194791D01*
X11260645Y32941688D01*
X11261731Y32937250D01*
X11362985Y32687267D01*
X11499265Y32454518D01*
X11565624Y32371540D01*
X11619686Y32303940D01*
X11667716Y32243881D01*
X11864809Y32059766D01*
X12086416Y31906032D01*
X12090499Y31904001D01*
X12090502Y31903999D01*
X12206013Y31846534D01*
X12327894Y31785899D01*
X12332228Y31784478D01*
X12332231Y31784477D01*
X12579853Y31703302D01*
X12579859Y31703301D01*
X12584186Y31701882D01*
X12588677Y31701102D01*
X12588678Y31701102D01*
X12846140Y31656399D01*
X12846148Y31656398D01*
X12849921Y31655743D01*
X12853758Y31655552D01*
X12933578Y31651578D01*
X12933586Y31651578D01*
X12935149Y31651500D01*
X13703512Y31651500D01*
X13705780Y31651665D01*
X13705792Y31651665D01*
X13836884Y31661177D01*
X13904004Y31666047D01*
X13908459Y31667031D01*
X13908462Y31667031D01*
X14162912Y31723209D01*
X14162916Y31723210D01*
X14167372Y31724194D01*
X14284939Y31768736D01*
X14355727Y31774166D01*
X14418214Y31740463D01*
X14452560Y31678327D01*
X14447860Y31607486D01*
X14418674Y31561814D01*
X14037608Y31180748D01*
X13975296Y31146722D01*
X13926959Y31145700D01*
X13823863Y31163600D01*
X13820079Y31164257D01*
X13808817Y31164818D01*
X13736422Y31168422D01*
X13736414Y31168422D01*
X13734851Y31168500D01*
X12966488Y31168500D01*
X12964220Y31168335D01*
X12964208Y31168335D01*
X12833116Y31158823D01*
X12765996Y31153953D01*
X12761541Y31152969D01*
X12761538Y31152969D01*
X12507088Y31096791D01*
X12507084Y31096790D01*
X12502628Y31095806D01*
X12498355Y31094187D01*
X12254682Y31001868D01*
X12254679Y31001867D01*
X12250412Y31000250D01*
X12014632Y30869286D01*
X11800227Y30705657D01*
X11611688Y30512792D01*
X11452966Y30294730D01*
X11450844Y30290696D01*
X11329510Y30060079D01*
X11329507Y30060073D01*
X11327385Y30056039D01*
X11325865Y30051734D01*
X11325863Y30051730D01*
X11239098Y29806033D01*
X11237575Y29801720D01*
X11226142Y29743714D01*
X11194156Y29581427D01*
X11185419Y29537100D01*
X11185192Y29532547D01*
X11185192Y29532544D01*
X11172533Y29278243D01*
X11172009Y29267723D01*
X9993782Y29267723D01*
X9997764Y29347708D01*
X9997764Y29347714D01*
X9997991Y29352277D01*
X9972375Y29620769D01*
X9965969Y29646951D01*
X9909355Y29878312D01*
X9909354Y29878316D01*
X9908269Y29882750D01*
X9807015Y30132733D01*
X9670735Y30365482D01*
X9552928Y30512792D01*
X9505136Y30572553D01*
X9505135Y30572555D01*
X9502284Y30576119D01*
X9305191Y30760234D01*
X9083584Y30913968D01*
X9079501Y30915999D01*
X9079498Y30916001D01*
X8914606Y30998033D01*
X8842106Y31034101D01*
X8837772Y31035522D01*
X8837769Y31035523D01*
X8590147Y31116698D01*
X8590141Y31116699D01*
X8585814Y31118118D01*
X8581322Y31118898D01*
X8323860Y31163601D01*
X8323852Y31163602D01*
X8320079Y31164257D01*
X8308817Y31164818D01*
X8236422Y31168422D01*
X8236414Y31168422D01*
X8234851Y31168500D01*
X7466488Y31168500D01*
X7464220Y31168335D01*
X7464208Y31168335D01*
X7333116Y31158823D01*
X7265996Y31153953D01*
X7261541Y31152969D01*
X7261538Y31152969D01*
X7007088Y31096791D01*
X7007084Y31096790D01*
X7002628Y31095806D01*
X6998361Y31094189D01*
X6998353Y31094187D01*
X6885062Y31051265D01*
X6814274Y31045835D01*
X6751787Y31079539D01*
X6717441Y31141675D01*
X6722141Y31212515D01*
X6751327Y31258187D01*
X7132392Y31639252D01*
X7194704Y31673278D01*
X7243041Y31674300D01*
X7346137Y31656400D01*
X7349921Y31655743D01*
X7353758Y31655552D01*
X7433578Y31651578D01*
X7433586Y31651578D01*
X7435149Y31651500D01*
X8203512Y31651500D01*
X8205780Y31651665D01*
X8205792Y31651665D01*
X8336884Y31661177D01*
X8404004Y31666047D01*
X8408459Y31667031D01*
X8408462Y31667031D01*
X8662912Y31723209D01*
X8662916Y31723210D01*
X8667372Y31724194D01*
X8799271Y31774166D01*
X8915318Y31818132D01*
X8915321Y31818133D01*
X8919588Y31819750D01*
X9081453Y31909658D01*
X9151375Y31948496D01*
X9151376Y31948497D01*
X9155368Y31950714D01*
X9369773Y32114343D01*
X9558312Y32307208D01*
X9717034Y32525270D01*
X9793207Y32670051D01*
X9840490Y32759921D01*
X9840493Y32759927D01*
X9842615Y32763961D01*
X9847594Y32778058D01*
X9930902Y33013967D01*
X9930902Y33013968D01*
X9932425Y33018280D01*
X9984581Y33282900D01*
X9986494Y33321325D01*
X9997764Y33547708D01*
X9997764Y33547714D01*
X9997991Y33552277D01*
X9972375Y33820769D01*
X9959918Y33871680D01*
X9909355Y34078312D01*
X9908269Y34082750D01*
X9807015Y34332733D01*
X9670735Y34565482D01*
X9552928Y34712792D01*
X9505136Y34772553D01*
X9505135Y34772555D01*
X9502284Y34776119D01*
X9305191Y34960234D01*
X9083584Y35113968D01*
X9079501Y35115999D01*
X9079498Y35116001D01*
X8914606Y35198033D01*
X8842106Y35234101D01*
X8837772Y35235522D01*
X8837769Y35235523D01*
X8590147Y35316698D01*
X8590141Y35316699D01*
X8585814Y35318118D01*
X8581322Y35318898D01*
X8323860Y35363601D01*
X8323852Y35363602D01*
X8320079Y35364257D01*
X8308817Y35364818D01*
X8236422Y35368422D01*
X8236414Y35368422D01*
X8234851Y35368500D01*
X7466488Y35368500D01*
X7464220Y35368335D01*
X7464208Y35368335D01*
X7333116Y35358823D01*
X7265996Y35353953D01*
X7261541Y35352969D01*
X7261538Y35352969D01*
X7007088Y35296791D01*
X7007084Y35296790D01*
X7002628Y35295806D01*
X6998361Y35294189D01*
X6998353Y35294187D01*
X6885062Y35251265D01*
X6814274Y35245835D01*
X6751787Y35279539D01*
X6717441Y35341675D01*
X6722141Y35412515D01*
X6751327Y35458187D01*
X7132392Y35839252D01*
X7194704Y35873278D01*
X7243041Y35874300D01*
X7346137Y35856400D01*
X7349921Y35855743D01*
X7353758Y35855552D01*
X7433578Y35851578D01*
X7433586Y35851578D01*
X7435149Y35851500D01*
X8203512Y35851500D01*
X8205780Y35851665D01*
X8205792Y35851665D01*
X8338924Y35861325D01*
X8404004Y35866047D01*
X8408459Y35867031D01*
X8408462Y35867031D01*
X8662912Y35923209D01*
X8662916Y35923210D01*
X8667372Y35924194D01*
X8799268Y35974165D01*
X8915318Y36018132D01*
X8915321Y36018133D01*
X8919588Y36019750D01*
X9155368Y36150714D01*
X9369773Y36314343D01*
X9558312Y36507208D01*
X9717034Y36725270D01*
X9800190Y36883324D01*
X9840490Y36959921D01*
X9840493Y36959927D01*
X9842615Y36963961D01*
X9847594Y36978058D01*
X9930902Y37213967D01*
X9930902Y37213968D01*
X9932425Y37218280D01*
X9968987Y37403783D01*
X9983700Y37478428D01*
X9983701Y37478434D01*
X9984581Y37482900D01*
X9987484Y37541217D01*
X9997764Y37747708D01*
X9997764Y37747714D01*
X9997991Y37752277D01*
X9972375Y38020769D01*
X9963943Y38055231D01*
X9909355Y38278312D01*
X9909354Y38278316D01*
X9908269Y38282750D01*
X9807015Y38532733D01*
X9670735Y38765482D01*
X9552286Y38913595D01*
X9505136Y38972553D01*
X9505135Y38972555D01*
X9502284Y38976119D01*
X9305191Y39160234D01*
X9083584Y39313968D01*
X9079501Y39315999D01*
X9079498Y39316001D01*
X8914606Y39398033D01*
X8842106Y39434101D01*
X8837772Y39435522D01*
X8837769Y39435523D01*
X8590147Y39516698D01*
X8590141Y39516699D01*
X8585814Y39518118D01*
X8552634Y39523879D01*
X8323860Y39563601D01*
X8323852Y39563602D01*
X8320079Y39564257D01*
X8308817Y39564818D01*
X8236422Y39568422D01*
X8236414Y39568422D01*
X8234851Y39568500D01*
X7466488Y39568500D01*
X7464220Y39568335D01*
X7464208Y39568335D01*
X7333116Y39558823D01*
X7265996Y39553953D01*
X7261541Y39552969D01*
X7261538Y39552969D01*
X7007088Y39496791D01*
X7007084Y39496790D01*
X7002628Y39495806D01*
X6901149Y39457359D01*
X6885064Y39451265D01*
X6814275Y39445835D01*
X6751788Y39479538D01*
X6717442Y39541674D01*
X6722142Y39612515D01*
X6751328Y39658187D01*
X7132393Y40039252D01*
X7194705Y40073278D01*
X7243043Y40074300D01*
X7346140Y40056399D01*
X7346148Y40056398D01*
X7349921Y40055743D01*
X7353758Y40055552D01*
X7433578Y40051578D01*
X7433586Y40051578D01*
X7435149Y40051500D01*
X8203512Y40051500D01*
X8205780Y40051665D01*
X8205792Y40051665D01*
X8341363Y40061502D01*
X8404004Y40066047D01*
X8408459Y40067031D01*
X8408462Y40067031D01*
X8662912Y40123209D01*
X8662916Y40123210D01*
X8667372Y40124194D01*
X8895688Y40210695D01*
X8915318Y40218132D01*
X8915321Y40218133D01*
X8919588Y40219750D01*
X9155368Y40350714D01*
X9334059Y40487087D01*
X9366141Y40511571D01*
X9366142Y40511572D01*
X9369773Y40514343D01*
X9558312Y40707208D01*
X9717034Y40925270D01*
X9801072Y41085000D01*
X9840490Y41159921D01*
X9840493Y41159927D01*
X9842615Y41163961D01*
X9844539Y41169407D01*
X9930902Y41413967D01*
X9930902Y41413968D01*
X9932425Y41418280D01*
X9960505Y41560745D01*
X9983700Y41678428D01*
X9983701Y41678434D01*
X9984581Y41682900D01*
X9987171Y41734929D01*
X9997764Y41947708D01*
X9997764Y41947714D01*
X9997991Y41952277D01*
X9972375Y42220769D01*
X9967586Y42240343D01*
X9909355Y42478312D01*
X9908269Y42482750D01*
X9807015Y42732733D01*
X9670735Y42965482D01*
X9552928Y43112792D01*
X9505136Y43172553D01*
X9505135Y43172555D01*
X9502284Y43176119D01*
X9305191Y43360234D01*
X9083584Y43513968D01*
X9079501Y43515999D01*
X9079498Y43516001D01*
X8914606Y43598033D01*
X8842106Y43634101D01*
X8837772Y43635522D01*
X8837769Y43635523D01*
X8590147Y43716698D01*
X8590141Y43716699D01*
X8585814Y43718118D01*
X8570379Y43720798D01*
X8323860Y43763601D01*
X8323852Y43763602D01*
X8320079Y43764257D01*
X8308817Y43764818D01*
X8236422Y43768422D01*
X8236414Y43768422D01*
X8234851Y43768500D01*
X7466488Y43768500D01*
X7464220Y43768335D01*
X7464208Y43768335D01*
X7333116Y43758823D01*
X7265996Y43753953D01*
X7261541Y43752969D01*
X7261538Y43752969D01*
X7007088Y43696791D01*
X7007084Y43696790D01*
X7002628Y43695806D01*
X6926971Y43667142D01*
X6754682Y43601868D01*
X6754679Y43601867D01*
X6750412Y43600250D01*
X6514632Y43469286D01*
X6511000Y43466514D01*
X6335712Y43332738D01*
X6300227Y43305657D01*
X6111688Y43112792D01*
X5952966Y42894730D01*
X5950844Y42890696D01*
X5829510Y42660079D01*
X5829507Y42660073D01*
X5827385Y42656039D01*
X5825865Y42651734D01*
X5825863Y42651730D01*
X5764452Y42477828D01*
X5737575Y42401720D01*
X5736692Y42397238D01*
X5694343Y42182375D01*
X5685419Y42137100D01*
X5685192Y42132547D01*
X5685192Y42132544D01*
X5674369Y41915121D01*
X5672009Y41867723D01*
X5697625Y41599231D01*
X5698710Y41594797D01*
X5698711Y41594791D01*
X5748644Y41390733D01*
X5761731Y41337250D01*
X5763443Y41333024D01*
X5763444Y41333020D01*
X5826210Y41178059D01*
X5833244Y41107412D01*
X5798521Y41041662D01*
X3000246Y38243386D01*
X2992479Y38236243D01*
X2954308Y38203986D01*
X2950165Y38198567D01*
X2950164Y38198566D01*
X2906870Y38141939D01*
X2904972Y38139519D01*
X2856032Y38078651D01*
X2852999Y38072541D01*
X2851697Y38070505D01*
X2851378Y38070049D01*
X2850968Y38069391D01*
X2850699Y38068901D01*
X2849448Y38066835D01*
X2845304Y38061415D01*
X2828421Y38025209D01*
X2812306Y37990650D01*
X2810972Y37987879D01*
X2776234Y37917899D01*
X2774582Y37911274D01*
X2773748Y37909007D01*
X2773529Y37908482D01*
X2773280Y37907778D01*
X2773118Y37907228D01*
X2772340Y37904944D01*
X2769458Y37898762D01*
X2767970Y37892104D01*
X2767967Y37892096D01*
X2752420Y37822543D01*
X2751712Y37819547D01*
X2734468Y37750386D01*
X2732817Y37743763D01*
X2732626Y37736942D01*
X2732298Y37734545D01*
X2732097Y37733431D01*
X2731435Y37728657D01*
X2730308Y37723617D01*
X2730001Y37718126D01*
X2730001Y37644712D01*
X2729952Y37641194D01*
X2727806Y37564366D01*
X2729085Y37557659D01*
X2729595Y37551324D01*
X2730001Y37541217D01*
X2730001Y22084032D01*
X2729559Y22073488D01*
X2725378Y22023699D01*
X508500Y22023699D01*
X508500Y46680267D01*
X6282822Y46680267D01*
X6282975Y46675879D01*
X6282975Y46675873D01*
X6291956Y46418703D01*
X6292625Y46399542D01*
X6293387Y46395219D01*
X6293388Y46395212D01*
X6317164Y46260376D01*
X6341402Y46122913D01*
X6428203Y45855765D01*
X6551340Y45603298D01*
X6553795Y45599659D01*
X6553798Y45599653D01*
X6626890Y45491290D01*
X6708415Y45370424D01*
X6896371Y45161678D01*
X7111550Y44981121D01*
X7349764Y44832269D01*
X7606375Y44718018D01*
X7876390Y44640593D01*
X7880740Y44639982D01*
X7880743Y44639981D01*
X7978688Y44626216D01*
X8154552Y44601500D01*
X8365146Y44601500D01*
X8367332Y44601653D01*
X8367336Y44601653D01*
X8570827Y44615882D01*
X8570832Y44615883D01*
X8575212Y44616189D01*
X8849970Y44674591D01*
X8854099Y44676094D01*
X8854103Y44676095D01*
X9109781Y44769154D01*
X9109785Y44769156D01*
X9113926Y44770663D01*
X9361942Y44902536D01*
X9466896Y44978789D01*
X9585629Y45065053D01*
X9585632Y45065056D01*
X9589192Y45067642D01*
X9791252Y45262769D01*
X9964188Y45484118D01*
X9966384Y45487922D01*
X9966389Y45487929D01*
X10102435Y45723569D01*
X10104636Y45727381D01*
X10209862Y45987824D01*
X10243544Y46122913D01*
X10276753Y46256107D01*
X10276754Y46256112D01*
X10277817Y46260376D01*
X10288394Y46361005D01*
X10306719Y46535364D01*
X10306719Y46535367D01*
X10307178Y46539733D01*
X10306616Y46555840D01*
X10297529Y46816061D01*
X10297528Y46816067D01*
X10297375Y46820458D01*
X10284849Y46891500D01*
X10249360Y47092764D01*
X10248598Y47097087D01*
X10161797Y47364235D01*
X10156778Y47374527D01*
X10097320Y47496431D01*
X10038660Y47616702D01*
X10036205Y47620341D01*
X10036202Y47620347D01*
X9931393Y47775732D01*
X9881585Y47849576D01*
X9693629Y48058322D01*
X9478450Y48238879D01*
X9240236Y48387731D01*
X8998602Y48495314D01*
X8987639Y48500195D01*
X8987637Y48500196D01*
X8983625Y48501982D01*
X8730259Y48574633D01*
X8717837Y48578195D01*
X8717836Y48578195D01*
X8713610Y48579407D01*
X8709260Y48580018D01*
X8709257Y48580019D01*
X8567915Y48599883D01*
X8435448Y48618500D01*
X8224854Y48618500D01*
X8222668Y48618347D01*
X8222664Y48618347D01*
X8019173Y48604118D01*
X8019168Y48604117D01*
X8014788Y48603811D01*
X7740030Y48545409D01*
X7735901Y48543906D01*
X7735897Y48543905D01*
X7480219Y48450846D01*
X7480215Y48450844D01*
X7476074Y48449337D01*
X7228058Y48317464D01*
X7224499Y48314878D01*
X7224497Y48314877D01*
X7119895Y48238879D01*
X7000808Y48152358D01*
X6798748Y47957231D01*
X6625812Y47735882D01*
X6623616Y47732078D01*
X6623611Y47732071D01*
X6529735Y47569472D01*
X6485364Y47492619D01*
X6380138Y47232176D01*
X6379073Y47227903D01*
X6379072Y47227901D01*
X6313737Y46965856D01*
X6312183Y46959624D01*
X6311724Y46955256D01*
X6311723Y46955251D01*
X6290824Y46756407D01*
X6282822Y46680267D01*
X508500Y46680267D01*
X508500Y50365500D01*
X528502Y50433621D01*
X582158Y50480114D01*
X634500Y50491500D01*
X12010060Y50491500D01*
X12078181Y50471498D01*
G37*
%TD.AperFunction*%
%TD*%
M02*
