<?xml version="1.0" encoding="utf-8"?>
<!-- Generator: Fusion 360, Shaper Origin Export Add-In, Version 1.6.10  -->
<svg xmlns="http://www.w3.org/2000/svg" xmlns:xlink="http://www.w3.org/1999/xlink" xmlns:shaper="http://www.shapertools.com/namespaces/shaper" shaper:fusionaddin="version:1.6.10" width="15.367cm" height="3.81cm" version="1.1" x="0cm" y="0cm" viewBox="0 0 15.367 3.81" enable-background="new 0 0 15.367 3.81" xml:space="preserve"><path d="M3.2385,-1.27 A0.3175,0.3175 0 0,1 2.921,-0.9525 L-4.191,-0.9525 A0.3175,0.3175 90 0,1 -4.5085,-1.27 L-4.5085,-2.8575 -7.6835,-2.8575 -7.6835,0.9525 7.6835,0.9525 7.6835,-2.8575 3.2385,-2.8575 3.2385,-1.27z" transform="matrix(1,0,0,-1,7.6835,0.9525)" fill="rgb(0,0,0)" shaper:cutDepth="0.0047625" stroke-linecap="round" stroke-linejoin="round" /><path d="M6.515735,0 a0.215265,0.215265 0 1,1 0.43053,0 a0.215265,0.215265 0 1,1 -0.43053,0z" transform="matrix(1,0,0,-1,7.6835,0.9525)" fill="rgb(255,255,255)" stroke="rgb(0,0,0)" stroke-width="0.0010cm" stroke-linecap="round" stroke-linejoin="round" shaper:cutDepth="0.0047625" /><path d="M5.08,-1.4605 a0.9525,0.9525 0 1,1 1.905,0 a0.9525,0.9525 0 1,1 -1.905,0z" transform="matrix(1,0,0,-1,7.6835,0.9525)" fill="rgb(255,255,255)" stroke="rgb(0,0,0)" stroke-width="0.0010cm" stroke-linecap="round" stroke-linejoin="round" shaper:cutDepth="0.0047625" /><path d="M-7.136765,-0.9525 a0.215265,0.215265 0 1,1 0.43053,0 a0.215265,0.215265 0 1,1 -0.43053,0z" transform="matrix(1,0,0,-1,7.6835,0.9525)" fill="rgb(255,255,255)" stroke="rgb(0,0,0)" stroke-width="0.0010cm" stroke-linecap="round" stroke-linejoin="round" shaper:cutDepth="0.0047625" /></svg>