<?xml version="1.0" encoding="utf-8"?>
<!-- Generator: Fusion 360, Shaper Origin Export Add-In, Version 1.6.10  -->
<svg xmlns="http://www.w3.org/2000/svg" xmlns:xlink="http://www.w3.org/1999/xlink" xmlns:shaper="http://www.shapertools.com/namespaces/shaper" shaper:fusionaddin="version:1.6.10" width="15.367cm" height="3.81cm" version="1.1" x="0cm" y="0cm" viewBox="0 0 15.367 3.81" enable-background="new 0 0 15.367 3.81" xml:space="preserve"><path d="M7.6835,0.9525 L7.6835,-2.8575 3.2385,-2.8575 3.2385,-1.27 A0.3175,0.3175 0 0,1 2.921,-0.9525 L-4.191,-0.9525 A0.3175,0.3175 90 0,1 -4.5085,-1.27 L-4.5085,-2.8575 -7.6835,-2.8575 -7.6835,0.9525 7.6835,0.9525z" transform="matrix(1,0,0,-1,7.6835,0.9525)" fill="rgb(0,0,0)" shaper:cutDepth="0.003175" stroke-linecap="round" stroke-linejoin="round" /><path d="M-7.136765,-0.9525 a0.215265,0.215265 0 1,1 0.43053,0 a0.215265,0.215265 0 1,1 -0.43053,0z" transform="matrix(1,0,0,-1,7.6835,0.9525)" fill="rgb(255,255,255)" stroke="rgb(0,0,0)" stroke-width="0.0010cm" stroke-linecap="round" stroke-linejoin="round" shaper:cutDepth="0.003175" /><path d="M6.515735,0 a0.215265,0.215265 0 1,1 0.43053,0 a0.215265,0.215265 0 1,1 -0.43053,0z" transform="matrix(1,0,0,-1,7.6835,0.9525)" fill="rgb(255,255,255)" stroke="rgb(0,0,0)" stroke-width="0.0010cm" stroke-linecap="round" stroke-linejoin="round" shaper:cutDepth="0.003175" /><path d="M5.3975,-1.4605 a0.635,0.635 0 1,1 1.27,0 a0.635,0.635 0 1,1 -1.27,0z" transform="matrix(1,0,0,-1,7.6835,0.9525)" fill="rgb(255,255,255)" stroke="rgb(0,0,0)" stroke-width="0.0010cm" stroke-linecap="round" stroke-linejoin="round" shaper:cutDepth="0.003175" /><path d="M5.726274,-0.530184 A0.15875,0.15875 30.5977842 0,1 5.508823,-0.4743431 L5.3808371,-0.550027 A0.15875,0.15875 120.5977842 0,1 5.3249962,-0.767478 L5.3985478,-0.8918579 A0.15875,0.15875 210.5977842 0,1 5.6159988,-0.9476988 L5.7439847,-0.8720149 A0.15875,0.15875 300.5977842 0,1 5.7998256,-0.6545639 L5.726274,-0.530184z" transform="matrix(1,0,0,-1,7.6835,0.9525)" fill="rgb(255,255,255)" stroke="rgb(0,0,0)" stroke-width="0.0010cm" stroke-linecap="round" stroke-linejoin="round" shaper:cutDepth="0.003175" /><path d="M6.5666887,-2.4982615 A0.15875,0.15875 0 0,1 6.4079387,-2.3395115 L5.5836259,-2.3395115 A0.15875,0.15875 90 0,1 5.4248759,-2.4982615 L5.4248759,-2.6461117 A0.15875,0.15875 180 0,1 5.5836259,-2.8048617 L6.4079387,-2.8048617 A0.15875,0.15875 270 0,1 6.5666887,-2.6461117 L6.5666887,-2.4982615z" transform="matrix(1,0,0,-1,7.6835,0.9525)" fill="rgb(255,255,255)" stroke="rgb(0,0,0)" stroke-width="0.0010cm" stroke-linecap="round" stroke-linejoin="round" shaper:cutDepth="0.003175" /><path d="M6.9165668,-1.8111068 A0.15875,0.15875 180 0,1 7.0753168,-1.9698568 L7.1761074,-1.9698568 A0.15875,0.15875 270 0,1 7.3348574,-1.8111068 L7.3348574,-1.1282694 A0.15875,0.15875 0 0,1 7.1761074,-0.9695194 L7.0753168,-0.9695194 A0.15875,0.15875 90 0,1 6.9165668,-1.1282694 L6.9165668,-1.8111068z" transform="matrix(1,0,0,-1,7.6835,0.9525)" fill="rgb(255,255,255)" stroke="rgb(0,0,0)" stroke-width="0.0010cm" stroke-linecap="round" stroke-linejoin="round" shaper:cutDepth="0.003175" /><path d="M6.9162712,-2.2631667 A0.15875,0.15875 315 0,1 6.9098174,-2.0325578 L6.7991668,-1.9336461 A0.15875,0.15875 48.2061355 0,1 6.5811142,-1.9397486 L6.490968,-2.0298948 A0.15875,0.15875 135 0,1 6.490968,-2.2544012 L6.5957491,-2.3591824 A0.15875,0.15875 225 0,1 6.8202555,-2.3591824 L6.9162712,-2.2631667z" transform="matrix(1,0,0,-1,7.6835,0.9525)" fill="rgb(255,255,255)" stroke="rgb(0,0,0)" stroke-width="0.0010cm" stroke-linecap="round" stroke-linejoin="round" shaper:cutDepth="0.003175" /><path d="M6.6681705,-0.7135843 A0.15875,0.15875 329.7818835 0,1 6.6108899,-0.4965082 L6.4987473,-0.4311921 A0.15875,0.15875 59.7818835 0,1 6.2816711,-0.4884727 L6.2050359,-0.6200495 A0.15875,0.15875 149.7818835 0,1 6.2623165,-0.8371257 L6.3744591,-0.9024417 A0.15875,0.15875 239.7818835 0,1 6.5915352,-0.8451611 L6.6681705,-0.7135843z" transform="matrix(1,0,0,-1,7.6835,0.9525)" fill="rgb(255,255,255)" stroke="rgb(0,0,0)" stroke-width="0.0010cm" stroke-linecap="round" stroke-linejoin="round" shaper:cutDepth="0.003175" /><path d="M4.7599815,-2.0593782 A0.15875,0.15875 180 0,1 4.9187315,-2.2181282 L5.0237403,-2.2181282 A0.15875,0.15875 270 0,1 5.1824903,-2.0593782 L5.1824903,-0.5078683 A0.15875,0.15875 0 0,1 5.0237403,-0.3491183 L4.9187315,-0.3491183 A0.15875,0.15875 90 0,1 4.7599815,-0.5078683 L4.7599815,-2.0593782z" transform="matrix(1,0,0,-1,7.6835,0.9525)" fill="rgb(255,255,255)" stroke="rgb(0,0,0)" stroke-width="0.0010cm" stroke-linecap="round" stroke-linejoin="round" shaper:cutDepth="0.003175" /><path d="M3.3807764,-1.6887271 L3.7626139,-1.1523364 A0.15875,0.15875 324.5542897 0,1 3.7920358,-1.0602723 L3.7920358,0.6052683 A0.15875,0.15875 180 0,0 3.9507858,0.7640183 L4.5355744,0.7640183 A0.15875,0.15875 90 0,0 4.6943244,0.6052683 L4.6943244,-2.5815406 A0.15875,0.15875 0 0,0 4.5355744,-2.7402906 L3.5101045,-2.7402906 A0.15875,0.15875 270 0,0 3.3513545,-2.5815406 L3.3513545,-1.7807912 A0.15875,0.15875 180 0,0 3.3807764,-1.6887271z" transform="matrix(1,0,0,-1,7.6835,0.9525)" fill="rgb(255,255,255)" stroke="rgb(0,0,0)" stroke-width="0.0010cm" stroke-linecap="round" stroke-linejoin="round" shaper:cutDepth="0.003175" /><path d="M0.1253576,-0.8541297 A0.15875,0.15875 270 0,1 0.2841076,-0.6953797 L0.2841076,-0.5333063 A0.15875,0.15875 0 0,1 0.1253576,-0.3745563 L-1.2534188,-0.3745563 A0.15875,0.15875 90 0,1 -1.4121688,-0.5333063 L-1.4121688,-0.6953797 A0.15875,0.15875 180 0,1 -1.2534188,-0.8541297 L0.1253576,-0.8541297z" transform="matrix(1,0,0,-1,7.6835,0.9525)" fill="rgb(255,255,255)" stroke="rgb(0,0,0)" stroke-width="0.0010cm" stroke-linecap="round" stroke-linejoin="round" shaper:cutDepth="0.003175" /><path d="M-4.6121059,-1.7159417 A0.15875,0.15875 0 0,1 -4.7708559,-1.5571917 L-4.9289374,-1.5571917 A0.15875,0.15875 90 0,1 -5.0876874,-1.7159417 L-5.0876874,-2.4901404 A0.15875,0.15875 180 0,1 -4.9289374,-2.6488904 L-4.7708559,-2.6488904 A0.15875,0.15875 270 0,1 -4.6121059,-2.4901404 L-4.6121059,-1.7159417z" transform="matrix(1,0,0,-1,7.6835,0.9525)" fill="rgb(255,255,255)" stroke="rgb(0,0,0)" stroke-width="0.0010cm" stroke-linecap="round" stroke-linejoin="round" shaper:cutDepth="0.003175" /><path d="M-6.6079529,0.6756047 A0.15875,0.15875 90 0,1 -6.7667029,0.5168547 L-6.7667029,-0.243252 A0.15875,0.15875 180 0,1 -6.6079529,-0.402002 L-5.7464244,-0.402002 A0.15875,0.15875 270 0,1 -5.5876744,-0.243252 L-5.5876744,0.5168547 A0.15875,0.15875 0 0,1 -5.7464244,0.6756047 L-6.6079529,0.6756047z" transform="matrix(1,0,0,-1,7.6835,0.9525)" fill="rgb(255,255,255)" stroke="rgb(0,0,0)" stroke-width="0.0010cm" stroke-linecap="round" stroke-linejoin="round" shaper:cutDepth="0.003175" /><path d="M-5.9296946,-1.1523364 L-5.4986519,-1.1523364 A0.15875,0.15875 270 0,1 -5.3399019,-0.9935864 L-5.3399019,-0.8541297 A0.15875,0.15875 0 0,1 -5.4986519,-0.6953797 L-5.9296946,-0.6953797 A0.15875,0.15875 90 0,1 -6.0884446,-0.8541297 L-6.0884446,-0.9935864 A0.15875,0.15875 180 0,1 -5.9296946,-1.1523364z" transform="matrix(1,0,0,-1,7.6835,0.9525)" fill="rgb(255,255,255)" stroke="rgb(0,0,0)" stroke-width="0.0010cm" stroke-linecap="round" stroke-linejoin="round" shaper:cutDepth="0.003175" /><path d="M-6.6142918,-1.3972035 A0.15875,0.15875 90 0,1 -6.7730418,-1.5559535 L-6.7730418,-2.3667711 A0.15875,0.15875 180 0,1 -6.6142918,-2.5255211 L-5.7844576,-2.5255211 A0.15875,0.15875 270 0,1 -5.6257076,-2.3667711 L-5.6257076,-1.5559535 A0.15875,0.15875 0 0,1 -5.7844576,-1.3972035 L-6.6142918,-1.3972035z" transform="matrix(1,0,0,-1,7.6835,0.9525)" fill="rgb(255,255,255)" stroke="rgb(0,0,0)" stroke-width="0.0010cm" stroke-linecap="round" stroke-linejoin="round" shaper:cutDepth="0.003175" /></svg>