<?xml version="1.0" encoding="utf-8"?>
<!-- Generator: Fusion 360, Shaper Origin Export Add-In, Version 1.6.10  -->
<svg xmlns="http://www.w3.org/2000/svg" xmlns:xlink="http://www.w3.org/1999/xlink" xmlns:shaper="http://www.shapertools.com/namespaces/shaper" shaper:fusionaddin="version:1.6.10" width="15.367cm" height="3.81cm" version="1.1" x="0cm" y="0cm" viewBox="0 0 15.367 3.81" enable-background="new 0 0 15.367 3.81" xml:space="preserve"><path d="M-3.2385,2.8575 L-7.6835,2.8575 -7.6835,-0.9525 7.6835,-0.9525 7.6835,2.8575 4.5085,2.8575 4.5085,1.27 A0.3175,0.3175 0 0,0 4.191,0.9525 L-2.921,0.9525 A0.3175,0.3175 270 0,0 -3.2385,1.27 L-3.2385,2.8575z" transform="matrix(1,0,0,-1,7.6835,2.8575)" fill="rgb(0,0,0)" shaper:cutDepth="0.0015875" stroke-linecap="round" stroke-linejoin="round" /><path d="M5.0202378,2.5094078 L5.0213805,2.5094897 5.0213805,2.5094897 5.0259093,2.509602 5.0303849,2.508923 5.0345945,2.5072551 5.0383186,2.5046801 5.0413382,2.5013067 5.043504,2.4973309 5.0447441,2.4929771 5.0451918,2.4884702 5.0451918,2.4884702 5.0449558,2.4836978 5.0436543,2.4791031 5.0411396,2.4750471 5.0374915,2.4719758 5.033144,2.4699866 5.028516,2.4688017 5.0189972,2.4680254 4.6951666,2.4681075 4.6951666,2.4681075 4.6851219,2.4686631 4.6802124,2.4697336 4.6755676,2.4716825 4.6716662,2.4748305 4.669088,2.4791426 4.6678872,2.4840243 4.6675784,2.4890449 4.6675784,2.4890449 4.6684525,2.495386 4.6710333,2.5012226 4.6730573,2.5037373 4.6755161,2.5057775 4.6813725,2.5083402 4.6813725,2.5083402 4.6885148,2.5094045 4.6957645,2.5094078 4.8567545,2.5094078 4.8567545,2.6887309 4.6934424,2.6887309 4.6934424,2.6887309 4.6839539,2.6894093 4.679351,2.690624 4.6750604,2.6926862 4.6714501,2.6957781 4.6689443,2.6998182 4.667732,2.704418 4.6675784,2.7091757 4.6675784,2.7091757 4.6677202,2.7139975 4.6688953,2.7186725 4.6713103,2.7228391 4.6748778,2.7260844 4.6791949,2.7282102 4.6838702,2.7294398 4.6934728,2.7301132 5.0177678,2.7301953 5.0177678,2.7301953 5.024879,2.7300969 5.0318903,2.7290457 5.0318903,2.7290457 5.0374555,2.7261848 5.0417879,2.7216746 5.0442896,2.7159475 5.0451918,2.7097504 5.0451918,2.7097504 5.0448729,2.7049696 5.0435628,2.7003637 5.0410205,2.6963084 5.0374173,2.6931564 5.0331298,2.6910239 5.0285194,2.6897058 5.0189972,2.6887309 4.8981368,2.6887309 4.8981368,2.5094078 5.0202378,2.5094078z" transform="matrix(1,0,0,-1,7.6835,2.8575)" fill="rgb(104,104,104)" fill-rule="nonzero" shaper:cutDepth="0.0000762" stroke-linecap="round" stroke-linejoin="round" /><path d="M4.6934424,2.3681824 L5.0199355,2.3681824 5.0199355,2.3681824 5.0292008,2.3690253 5.0336797,2.3703154 5.0378292,2.3724202 5.0413309,2.3754918 5.043689,2.3794964 5.0449619,2.3839749 5.0451918,2.3886272 5.0451918,2.3886272 5.0445481,2.3939058 5.0426882,2.3988862 5.0396852,2.4032715 5.0358315,2.4069372 5.0358315,2.4069372 5.0316754,2.4086848 5.0272094,2.4093718 5.0181783,2.4096468 4.6934683,2.4095647 4.6934683,2.4095647 4.6861609,2.4095454 4.6825277,2.4091782 4.6790735,2.4080046 4.6790735,2.4080046 4.6742143,2.4046565 4.6706244,2.3999544 4.6684244,2.3944756 4.6675784,2.3886272 4.6675784,2.3886272 4.6682214,2.3833501 4.6700789,2.3783723 4.6729217,2.3738715 4.6769387,2.3703993 4.6769387,2.3703993 4.6809247,2.3691072 4.6850641,2.3684377 4.6934424,2.3681824z" transform="matrix(1,0,0,-1,7.6835,2.8575)" fill="rgb(104,104,104)" fill-rule="nonzero" shaper:cutDepth="0.0000762" stroke-linecap="round" stroke-linejoin="round" /><path d="M4.8356529,2.1354891 L4.8357349,2.0942712 4.7766977,2.0942712 4.7766977,2.0942712 4.7596684,2.0953787 4.7513427,2.0972748 4.7434459,2.1005113 4.7434459,2.1005113 4.7367558,2.1047034 4.7307554,2.1098344 4.7256469,2.1158528 4.7214637,2.1225501 4.7181961,2.1297352 4.7159653,2.1373116 4.7146386,2.1450926 4.7142156,2.1529781 4.7142156,2.1529781 4.7145565,2.1622351 4.716037,2.171379 4.7186992,2.1802516 4.7223327,2.1887715 4.7270277,2.1967564 4.7325973,2.2041605 4.738832,2.2110097 4.7456629,2.2172684 4.7456629,2.2172684 4.7576878,2.2263345 4.7704514,2.234328 4.7838715,2.2411618 4.7978037,2.2468804 4.8121542,2.2514487 4.8268059,2.2549316 4.8417146,2.2570604 4.8567546,2.2578296 4.8567546,2.2578296 4.8686316,2.2573556 4.8804491,2.2560781 4.8921238,2.2538444 4.9035913,2.2507169 4.9148017,2.2467643 4.9256455,2.2418978 4.9360845,2.2362126 4.9460057,2.2296667 4.9460057,2.2296667 4.9561978,2.2230969 4.9658905,2.2158159 4.9748516,2.2076455 4.9828518,2.1985354 4.9895116,2.188406 4.9945159,2.1773666 4.9975717,2.165634 4.9985546,2.1535528 4.9985546,2.1535528 4.9979512,2.1444789 4.9959695,2.1355995 4.9926295,2.1271454 4.9879653,2.1193349 4.9823648,2.1121689 4.9761223,2.1055488 4.962263,2.0937784 4.962263,2.0937784 4.9509147,2.0839953 4.9485599,2.081077 4.9466952,2.0777977 4.9456771,2.0742164 4.9453488,2.0704598 4.9453488,2.0704598 4.9460503,2.0656752 4.9477874,2.0611612 4.9504984,2.0571586 4.9539234,2.0537397 4.9578436,2.05091 4.9622251,2.0488553 4.966886,2.0475727 4.9717054,2.0471413 4.9717054,2.0471413 4.9761555,2.0474727 4.9804749,2.0484309 4.9884772,2.0523275 4.9957155,2.057485 5.0024958,2.0632344 5.0024958,2.0632344 5.0115597,2.0726063 5.0198786,2.0826435 5.0272512,2.0933955 5.033615,2.1047755 5.0386009,2.1168191 5.0422545,2.1293333 5.0444879,2.1421777 5.0451918,2.155195 5.0451918,2.155195 5.0447723,2.1647545 5.0436029,2.1742515 5.0416377,2.1836163 5.0390004,2.1928145 5.0357288,2.2018066 5.0318087,2.2105355 5.0271561,2.2188969 5.0218732,2.226875 5.0218732,2.226875 5.0142484,2.2359357 5.0060563,2.2444876 4.9973456,2.2525097 4.9881494,2.2599709 4.978513,2.2668539 4.9684867,2.2731559 4.9581332,2.2789041 4.9474852,2.2840871 4.9365812,2.2887069 4.9254565,2.292767 4.9141539,2.2963008 4.9026694,2.2991901 4.8793202,2.3031212 4.8675229,2.3041515 4.8556872,2.3045489 4.8556872,2.3045489 4.8378634,2.3037207 4.8201623,2.3014742 4.8026916,2.2978483 4.7855745,2.29281 4.768922,2.2864011 4.7527952,2.2787655 4.7373961,2.2697522 4.7227548,2.2595539 4.7227548,2.2595539 4.7111334,2.2497859 4.7004301,2.2390271 4.6908306,2.2272636 4.6826398,2.2144887 4.6760059,2.2008332 4.6712998,2.1864066 4.6684422,2.171498 4.6675784,2.1563445 4.6675784,2.1563445 4.6684292,2.1425352 4.6707927,2.1289046 4.6746727,2.1156241 4.6800065,2.1028592 4.6866717,2.0907346 4.6946961,2.0794665 4.7040879,2.0693072 4.7147083,2.0604427 4.7147083,2.0604427 4.7254844,2.0543221 4.73716,2.0501711 4.7493728,2.0481245 4.761756,2.047716 4.850725,2.047634 4.850725,2.047634 4.863718,2.0484971 4.8699665,2.0503413 4.8754746,2.0538041 4.8776598,2.0562315 4.8793447,2.0590254 4.8814125,2.0652102 4.8823135,2.0716578 4.8823722,2.078178 4.8823722,2.1331836 4.8823722,2.1331836 4.8821832,2.1426515 4.8815951,2.1473541 4.8800732,2.1518286 4.8800732,2.1518286 4.8767321,2.1577606 4.8718069,2.1624538 4.8656894,2.1654389 4.8589715,2.1665259 4.8589715,2.1665259 4.8533465,2.1657717 4.8480274,2.1638071 4.8433511,2.1605958 4.8395941,2.1563445 4.8395941,2.1563445 4.8370061,2.1516157 4.8360268,2.146296 4.8356529,2.1354891z" transform="matrix(1,0,0,-1,7.6835,2.8575)" fill="rgb(104,104,104)" fill-rule="nonzero" shaper:cutDepth="0.0000762" stroke-linecap="round" stroke-linejoin="round" /><path d="M5.0202378,1.763213 L5.0213805,1.7632949 5.0213805,1.7632949 5.0259093,1.7634072 5.0303849,1.7627282 5.0345945,1.7610603 5.0383186,1.7584853 5.0413382,1.7551118 5.043504,1.7511361 5.0447441,1.7467823 5.0451918,1.7422754 5.0451918,1.7422754 5.0449558,1.737503 5.0436543,1.7329082 5.0411396,1.7288523 5.0374915,1.725781 5.033144,1.7237918 5.028516,1.7226068 5.0189972,1.7218306 4.6951666,1.7219126 4.6951666,1.7219126 4.6851219,1.7224682 4.6802124,1.7235387 4.6755676,1.7254877 4.6716662,1.7286357 4.669088,1.7329477 4.6678872,1.7378295 4.6675784,1.7428501 4.6675784,1.7428501 4.6684525,1.7491912 4.6710333,1.7550278 4.6730573,1.7575424 4.6755161,1.7595827 4.6813725,1.7621454 4.6813725,1.7621454 4.6885148,1.7632097 4.6957645,1.763213 4.8567545,1.763213 4.8567545,1.942536 4.6934424,1.942536 4.6934424,1.942536 4.6839539,1.9432145 4.679351,1.9444292 4.6750604,1.9464913 4.6714501,1.9495833 4.6689443,1.9536234 4.667732,1.9582232 4.6675784,1.9629809 4.6675784,1.9629809 4.6677202,1.9678027 4.6688953,1.9724777 4.6713103,1.9766443 4.6748778,1.9798895 4.6791949,1.9820154 4.6838702,1.983245 4.6934728,1.9839184 5.0177678,1.9840004 5.0177678,1.9840004 5.024879,1.9839021 5.0318903,1.9828509 5.0318903,1.9828509 5.0374555,1.9799899 5.0417879,1.9754798 5.0442896,1.9697527 5.0451918,1.9635556 5.0451918,1.9635556 5.0448729,1.9587748 5.0435628,1.9541689 5.0410205,1.9501136 5.0374173,1.9469616 5.0331298,1.9448291 5.0285194,1.9435109 5.0189972,1.942536 4.8981368,1.942536 4.8981368,1.763213 5.0202378,1.763213z" transform="matrix(1,0,0,-1,7.6835,2.8575)" fill="rgb(104,104,104)" fill-rule="nonzero" shaper:cutDepth="0.0000762" stroke-linecap="round" stroke-linejoin="round" /><path d="M-3.7619393,2.5255007 L-3.7619393,2.5255007 -3.7619975,2.5189174 -3.7630888,2.5124456 -3.7630888,2.5124456 -3.7658943,2.5067231 -3.7704453,2.5022505 -3.7760954,2.4992978 -3.7823841,2.498241 -3.7823841,2.498241 -3.7888534,2.4994445 -3.7947051,2.5024321 -3.7992766,2.5071534 -3.8022542,2.5130204 -3.8022542,2.5130204 -3.8032263,2.5170169 -3.803325,2.5211502 -3.8033216,2.5294206 -3.8033216,2.7304416 -3.8033216,2.7304416 -3.8030235,2.7359946 -3.8019393,2.7414436 -3.799786,2.7465691 -3.7963167,2.7509036 -3.7917011,2.7539902 -3.7864394,2.7557908 -3.7809341,2.7565229 -3.7753732,2.7563877 -3.4509974,2.7564697 -3.4509974,2.7564697 -3.4418265,2.7553326 -3.4374156,2.7539309 -3.4333075,2.7517941 -3.4299445,2.7486333 -3.4274628,2.7447271 -3.4261068,2.7403063 -3.4257082,2.7356965 -3.4257082,2.7356965 -3.4260978,2.7310645 -3.4273669,2.7265956 -3.4297558,2.7226086 -3.4331542,2.7194582 -3.4373131,2.7173678 -3.4417553,2.7160049 -3.4509876,2.7150053 -3.7619393,2.7150053 -3.7619393,2.5255007z" transform="matrix(1,0,0,-1,7.6835,2.8575)" fill="rgb(104,104,104)" fill-rule="nonzero" shaper:cutDepth="0.0000762" stroke-linecap="round" stroke-linejoin="round" /><path d="M-3.4204533,2.3098038 L-3.4204533,2.3098038 -3.4209838,2.2996258 -3.4224975,2.2895461 -3.4249065,2.2796432 -3.4281526,2.2699811 -3.4321452,2.2606034 -3.4368725,2.2515734 -3.4423106,2.2429532 -3.44837,2.2347574 -3.44837,2.2347574 -3.4559692,2.2264908 -3.464353,2.2190167 -3.4733371,2.2122799 -3.4828508,2.206313 -3.4927846,2.2010739 -3.5030663,2.1965559 -3.5136052,2.1926749 -3.5243399,2.1893736 -3.5462437,2.1844186 -3.5684721,2.1812204 -3.5908674,2.1795187 -3.6133243,2.1790883 -3.6133243,2.1790883 -3.6345324,2.1795903 -3.6556825,2.1811763 -3.67669,2.1841487 -3.6973873,2.188777 -3.7175791,2.1952887 -3.7273804,2.1993428 -3.7369023,2.2040196 -3.7461004,2.2093211 -3.7548809,2.2152815 -3.7709711,2.2290919 -3.7709711,2.2290919 -3.7780926,2.2374387 -3.7843323,2.2464633 -3.7898225,2.2559632 -3.7943788,2.2659437 -3.7981298,2.2762561 -3.8008473,2.2868841 -3.8026901,2.2977018 -3.8033216,2.3086543 -3.8033216,2.3086543 -3.8022628,2.3223502 -3.7994998,2.3358089 -3.7953234,2.3488956 -3.7898017,2.3614762 -3.7830883,2.3734629 -3.7752366,2.3847354 -3.7662629,2.3951388 -3.7561096,2.4043919 -3.7561096,2.4043919 -3.7395947,2.4147672 -3.7218818,2.4229575 -3.7034438,2.4293222 -3.6845082,2.4340298 -3.6652875,2.4373776 -3.6459011,2.4395913 -3.6264275,2.4407787 -3.6069199,2.4411761 -3.6069199,2.4411761 -3.5870919,2.4406309 -3.5673195,2.4390714 -3.5476966,2.4361737 -3.5283262,2.431908 -3.5093707,2.4260644 -3.4911389,2.4182682 -3.482383,2.4135918 -3.4739552,2.4083557 -3.458305,2.3961811 -3.458305,2.3961811 -3.4501874,2.3872446 -3.4429502,2.3775812 -3.4366152,2.3673036 -3.4312021,2.3565117 -3.4268051,2.3452679 -3.4234108,2.3336818 -3.4212602,2.321802 -3.4203713,2.3097623 -3.4204533,2.3098038z M-3.4862216,2.2643161 L-3.4862216,2.2643161 -3.4785984,2.2743135 -3.4727487,2.2854419 -3.4704221,2.2912845 -3.4686788,2.2973216 -3.4674896,2.3034959 -3.4670086,2.3097623 -3.4670905,2.3098038 -3.4670905,2.3098038 -3.4676687,2.3169607 -3.4690836,2.3240013 -3.4712259,2.3308557 -3.4739357,2.3375056 -3.4809576,2.3500232 -3.4853389,2.355713 -3.4902449,2.3609569 -3.4902449,2.3609569 -3.5025088,2.370666 -3.5162444,2.3781788 -3.5308359,2.38383 -3.545918,2.3880255 -3.5612732,2.3910604 -3.5768023,2.3930321 -3.5924212,2.3940586 -3.6080694,2.3944568 -3.6080694,2.3944568 -3.6384975,2.393408 -3.65365,2.3919097 -3.6686969,2.3895893 -3.6835455,2.3862167 -3.6980004,2.3814541 -3.711899,2.3752258 -3.7248266,2.3671971 -3.7248266,2.3671971 -3.7314399,2.3618655 -3.7374476,2.3558617 -3.7427968,2.3492617 -3.7473966,2.3421222 -3.7512326,2.3345404 -3.7540809,2.326542 -3.7560238,2.3182699 -3.7566844,2.3098038 -3.7566844,2.3098038 -3.7561179,2.3023948 -3.7546394,2.2951121 -3.7522962,2.2880594 -3.7493532,2.2812358 -3.745793,2.2747123 -3.7416489,2.2685434 -3.7369392,2.262795 -3.7317237,2.2575012 -3.7317237,2.2575012 -3.7187853,2.2481205 -3.7045538,2.2408358 -3.689527,2.2353803 -3.6740462,2.231388 -3.6582964,2.2286327 -3.6424011,2.2269071 -3.6104506,2.2257255 -3.6104506,2.2257255 -3.5937427,2.226019 -3.5770771,2.2271735 -3.5605104,2.2293711 -3.5441454,2.2327376 -3.5281766,2.2376544 -3.512901,2.2444109 -3.5056275,2.248537 -3.498701,2.2532211 -3.4862216,2.2643161z" transform="matrix(1,0,0,-1,7.6835,2.8575)" fill="rgb(104,104,104)" fill-rule="nonzero" shaper:cutDepth="0.0000762" stroke-linecap="round" stroke-linejoin="round" /><path d="M-3.446892,1.927264 L-3.6930145,1.997592 -3.4478383,2.0679666 -3.4478383,2.0679666 -3.4397863,2.0709196 -3.436058,2.0730396 -3.4326805,2.0756935 -3.4299933,2.0790289 -3.4280719,2.0828664 -3.4270342,2.0870283 -3.4268577,2.0913152 -3.4268577,2.0913152 -3.4274083,2.0959456 -3.4287089,2.1004235 -3.4309891,2.1044903 -3.4339478,2.108094 -3.4375614,2.1110413 -3.4416358,2.1133068 -3.4461189,2.1145902 -3.4507511,2.1151264 -3.4507511,2.1151264 -3.4559161,2.1147199 -3.4609324,2.1134022 -3.7747399,2.0231312 -3.7747399,2.0231312 -3.7918265,2.0180751 -3.7918265,2.0180751 -3.7966498,2.0143197 -3.8002584,2.0093836 -3.8024631,2.0036877 -3.8033216,1.9976303 -3.8033216,1.9976303 -3.8030329,1.9927345 -3.8017497,1.9879993 -3.7993679,1.9837218 -3.7959247,1.9802301 -3.7918642,1.9774768 -3.787467,1.9752998 -3.7781966,1.9720948 -3.5386443,1.9039483 -3.7792802,1.8347087 -3.7792802,1.8347087 -3.788434,1.831741 -3.792791,1.8297048 -3.796849,1.8271077 -3.8001632,1.8236422 -3.8022108,1.8192926 -3.8031608,1.8145771 -3.8033216,1.8097679 -3.8033216,1.8097679 -3.8031046,1.8052641 -3.8018689,1.8009304 -3.7995642,1.7970541 -3.7964366,1.7938129 -3.7927822,1.7911605 -3.7888125,1.7890273 -3.7803314,1.7859566 -3.4583544,1.6939595 -3.4583544,1.6939595 -3.4469741,1.6922718 -3.4469741,1.6922718 -3.4425952,1.6927378 -3.4383962,1.6940591 -3.4345785,1.6962499 -3.4313827,1.6992788 -3.4288697,1.7028934 -3.4270842,1.7069185 -3.4260633,1.7112007 -3.4257082,1.7155903 -3.4257082,1.7155903 -3.4258764,1.7198962 -3.426822,1.7240987 -3.4286838,1.7279847 -3.4313274,1.7313825 -3.4346427,1.734137 -3.4383568,1.736323 -3.4463994,1.7394016 -3.6922481,1.8103046 -3.4440577,1.8812468 -3.4440577,1.8812468 -3.436772,1.8839698 -3.4334553,1.8859958 -3.4305166,1.8885505 -3.4281668,1.8916447 -3.4265221,1.8951705 -3.4257861,1.8989885 -3.4257082,1.902878 -3.4257082,1.902878 -3.4258526,1.9073373 -3.4266297,1.9117294 -3.4283213,1.915854 -3.4310457,1.9193803 -3.4345852,1.9220891 -3.4385214,1.9241995 -3.446892,1.927264z" transform="matrix(1,0,0,-1,7.6835,2.8575)" fill="rgb(104,104,104)" fill-rule="nonzero" shaper:cutDepth="0.0000762" stroke-linecap="round" stroke-linejoin="round" /><path d="M1.4399261,0.5644573 L1.1950239,0.5643754 1.4540798,0.7337481 1.4540798,0.7337481 1.460157,0.7383424 1.4654937,0.7437645 1.4676176,0.7469407 1.4691473,0.7504443 1.4701418,0.7579852 1.4701418,0.7579852 1.4692078,0.7645353 1.4664257,0.7705279 1.4621362,0.7755776 1.4563477,0.7787584 1.4563477,0.7787584 1.4525647,0.7796234 1.4486824,0.779818 1.4409114,0.7799079 1.1229686,0.7798259 1.1229686,0.7798259 1.1133629,0.7796546 1.1085971,0.7790627 1.1040235,0.7776089 1.1040235,0.7776089 1.0991383,0.7737918 1.0954583,0.7688027 1.0933175,0.7629886 1.0925284,0.7568357 1.0925284,0.7568357 1.0929748,0.7517842 1.0943048,0.7468925 1.0967642,0.7424603 1.1002775,0.7388171 1.1046498,0.7362401 1.1094164,0.7345222 1.1194598,0.7331886 1.3682997,0.7331886 1.1075282,0.5643754 1.1075282,0.5643754 1.1016222,0.5598561 1.0967458,0.5542697 1.0934597,0.5475942 1.0925284,0.5402355 1.0925284,0.5402355 1.0929091,0.535332 1.0942175,0.5305935 1.0966236,0.5263106 1.1001582,0.5228949 1.1044476,0.5204992 1.1091331,0.5189928 1.118885,0.5178201 1.4420706,0.5177381 1.4420706,0.5177381 1.4525303,0.5186194 1.4576079,0.5199907 1.462309,0.5223301 1.4661606,0.5258948 1.4687607,0.5304547 1.4700059,0.5355565 1.4701418,0.5408103 1.4701418,0.5408103 1.4698474,0.5463748 1.4685301,0.551786 1.4657817,0.5566205 1.4615681,0.5602552 1.456482,0.562516 1.4510396,0.5637293 1.4399261,0.5644573z" transform="matrix(1,0,0,-1,7.6835,2.8575)" fill="rgb(104,104,104)" fill-rule="nonzero" shaper:cutDepth="0.0000762" stroke-linecap="round" stroke-linejoin="round" /><path d="M1.0181967,0.651163 L1.0181967,0.651163 1.0176662,0.640985 1.0161525,0.6309053 1.0137435,0.6210024 1.0104974,0.6113403 1.0065048,0.6019627 1.0017775,0.5929326 0.9963394,0.5843124 0.99028,0.5761166 0.99028,0.5761166 0.9826808,0.56785 0.974297,0.560376 0.9653129,0.5536392 0.9557992,0.5476723 0.9458654,0.5424331 0.9355837,0.5379152 0.9250448,0.5340341 0.9143101,0.5307328 0.8924063,0.5257779 0.8701779,0.5225796 0.8477826,0.520878 0.8253257,0.5204476 0.8253257,0.5204476 0.8041176,0.5209495 0.7829675,0.5225356 0.76196,0.525508 0.7412627,0.5301362 0.7210709,0.5366479 0.7112696,0.5407021 0.7017477,0.5453788 0.6925496,0.5506803 0.6837691,0.5566407 0.6676789,0.5704512 0.6676789,0.5704512 0.6605574,0.5787979 0.6543177,0.5878225 0.6488275,0.5973225 0.6442712,0.6073029 0.6405202,0.6176154 0.6378027,0.6282434 0.6359599,0.639061 0.6353284,0.6500135 0.6353284,0.6500135 0.6363872,0.6637094 0.6391502,0.6771682 0.6433266,0.6902548 0.6488483,0.7028354 0.6555617,0.7148222 0.6634134,0.7260946 0.6723871,0.736498 0.6825404,0.7457511 0.6825404,0.7457511 0.6990553,0.7561265 0.7167682,0.7643167 0.7352062,0.7706814 0.7541418,0.7753891 0.7733625,0.7787369 0.7927489,0.7809506 0.8122225,0.782138 0.8317301,0.7825354 0.8317301,0.7825354 0.8515581,0.7819902 0.8713305,0.7804307 0.8909534,0.7775329 0.9103238,0.7732673 0.9292793,0.7674237 0.9475111,0.7596274 0.956267,0.754951 0.9646948,0.749715 0.980345,0.7375404 0.980345,0.7375404 0.9884626,0.7286038 0.9956998,0.7189404 1.0020348,0.7086628 1.0074479,0.6978709 1.0118449,0.6866272 1.0152392,0.675041 1.0173898,0.6631612 1.0182787,0.6511216 1.0181967,0.651163z M0.9524284,0.6056754 L0.9524284,0.6056754 0.9600516,0.6156728 0.9659013,0.6268012 0.9682279,0.6326437 0.9699712,0.6386809 0.9711604,0.6448551 0.9716414,0.6511216 0.9715595,0.651163 0.9715595,0.651163 0.9709813,0.6583199 0.9695664,0.6653605 0.9674241,0.6722149 0.9647143,0.6788648 0.9576924,0.6913824 0.9533111,0.6970722 0.9484051,0.7023161 0.9484051,0.7023161 0.9361412,0.7120253 0.9224056,0.719538 0.9078141,0.7251892 0.892732,0.7293847 0.8773768,0.7324196 0.8618477,0.7343914 0.8462288,0.7354179 0.8305806,0.7358161 0.8305806,0.7358161 0.8001525,0.7347673 0.785,0.733269 0.7699531,0.7309485 0.7551045,0.727576 0.7406496,0.7228133 0.726751,0.716585 0.7138234,0.7085563 0.7138234,0.7085563 0.7072101,0.7032247 0.7012024,0.6972209 0.6958532,0.690621 0.6912534,0.6834814 0.6874174,0.6758996 0.6845691,0.6679013 0.6826262,0.6596292 0.6819656,0.651163 0.6819656,0.651163 0.6825321,0.643754 0.6840106,0.6364713 0.6863538,0.6294186 0.6892968,0.6225951 0.692857,0.6160716 0.6970011,0.6099026 0.7017108,0.6041543 0.7069263,0.5988604 0.7069263,0.5988604 0.7198647,0.5894798 0.7340962,0.582195 0.749123,0.5767395 0.7646038,0.5727473 0.7803536,0.5699919 0.7962489,0.5682663 0.8281994,0.5670848 0.8281994,0.5670848 0.8449073,0.5673783 0.8615729,0.5685328 0.8781396,0.5707304 0.8945046,0.5740968 0.9104734,0.5790137 0.925749,0.5857702 0.9330225,0.5898962 0.939949,0.5945804 0.9524284,0.6056754z" transform="matrix(1,0,0,-1,7.6835,2.8575)" fill="rgb(104,104,104)" fill-rule="nonzero" shaper:cutDepth="0.0000762" stroke-linecap="round" stroke-linejoin="round" /><path d="M0.220496,0.5323532 L0.220496,0.5323532 0.2177043,0.5301363 0.2177043,0.5301363 0.2106881,0.525597 0.2066824,0.5243739 0.2025144,0.5239782 0.2025144,0.5239782 0.1979775,0.5244428 0.1936366,0.5258347 0.1896713,0.5280844 0.1862699,0.5311213 0.1835381,0.5347716 0.1816023,0.5388997 0.1805315,0.5433317 0.180099,0.5478716 0.180099,0.5478716 0.1806678,0.5544723 0.1817035,0.5576351 0.1833745,0.5604972 0.1878174,0.5654078 0.1930387,0.5694817 0.3357751,0.6750586 0.3357751,0.7253063 0.2087546,0.7253063 0.2087546,0.7253063 0.1977407,0.7260702 0.1923686,0.7273552 0.1873319,0.7296127 0.1829539,0.7329809 0.1798812,0.7375513 0.1783769,0.7428619 0.1781284,0.7483786 0.1781284,0.7483786 0.1792291,0.7560676 0.1805678,0.7597253 0.1825252,0.7630881 0.1850009,0.7660953 0.1880337,0.7685324 0.1914682,0.7703663 0.1952068,0.7714508 0.1952068,0.7714508 0.2030987,0.7720158 0.2110203,0.7719436 0.5230629,0.7720256 0.5230629,0.7720256 0.530037,0.7720084 0.5369331,0.7709856 0.5434059,0.768403 0.5488295,0.7640355 0.5525992,0.7581777 0.5547625,0.7515476 0.5556973,0.7446401 0.5558238,0.7376662 0.5557418,0.6416386 0.5557418,0.6416386 0.5552015,0.6305186 0.5539085,0.6194639 0.5518406,0.6085226 0.5487802,0.597822 0.5446985,0.5874643 0.5396291,0.5775544 0.5335476,0.5682305 0.5264964,0.5596178 0.518613,0.5517579 0.5099229,0.5448024 0.5004921,0.5388892 0.4904255,0.5341383 0.4799207,0.5304569 0.4690884,0.5278899 0.4580616,0.5263674 0.4469491,0.5257025 0.4469491,0.5257025 0.4372143,0.5261381 0.4275315,0.5272322 0.4179793,0.5291538 0.4085935,0.5317776 0.3995124,0.5353059 0.3907766,0.5396248 0.382535,0.5448219 0.3747646,0.5507016 0.3675413,0.5572415 0.3610128,0.5644749 0.3551993,0.5722951 0.3500809,0.5805855 0.3458441,0.5893612 0.3423301,0.5984496 0.3395545,0.60779 0.3374407,0.6173025 0.220496,0.5323532z M0.5091865,0.6398274 L0.5091865,0.7253063 0.3824124,0.7253063 0.3824124,0.6439376 0.3824124,0.6439376 0.3825071,0.6345993 0.3832396,0.6252899 0.3851543,0.6161497 0.3888168,0.6075639 0.3888168,0.6075639 0.3932978,0.5998973 0.3988743,0.5929872 0.4052944,0.5868535 0.4125392,0.5817182 0.4204323,0.5776504 0.4288111,0.5747087 0.437515,0.5729542 0.4463743,0.5723396 0.4463743,0.5723396 0.4553571,0.5730505 0.4641732,0.5749122 0.4725855,0.5781399 0.4804997,0.5824482 0.4877203,0.5878382 0.4941421,0.5941588 0.4995325,0.6013789 0.5038497,0.6092881 0.5038497,0.6092881 0.5067044,0.616567 0.5083427,0.6242125 0.5091865,0.6398274z" transform="matrix(1,0,0,-1,7.6835,2.8575)" fill="rgb(104,104,104)" fill-rule="nonzero" shaper:cutDepth="0.0000762" stroke-linecap="round" stroke-linejoin="round" /><path d="M0.0835982,0.5516485 L-0.0796611,0.6487858 0.0815195,0.7459205 0.0815195,0.7459205 0.0873293,0.749617 0.0926858,0.7539333 0.0948328,0.7566384 0.09639,0.7597262 0.0973923,0.7665244 0.0973923,0.7665244 0.0971023,0.771996 0.0957127,0.7772922 0.0929773,0.7820296 0.0889262,0.7857133 0.0840372,0.788171 0.0787441,0.7896073 0.0678335,0.7904177 -0.2482198,0.7903357 -0.2482198,0.7903357 -0.2592362,0.78968 -0.2646097,0.7884178 -0.2696951,0.7862597 -0.2740887,0.7829314 -0.2772009,0.778383 -0.2788113,0.7731057 -0.2790716,0.7675918 -0.2790716,0.7675918 -0.2781962,0.7610637 -0.2758194,0.7549351 -0.2719056,0.7496239 -0.266427,0.7459974 -0.266427,0.7459974 -0.2623146,0.7446866 -0.2580596,0.7439619 -0.2494307,0.7436984 -0.0138268,0.7436984 -0.1318746,0.6732244 -0.1318746,0.6732244 -0.1384635,0.6690466 -0.1443389,0.663918 -0.1466108,0.6607401 -0.1480947,0.657111 -0.1489309,0.6493567 -0.1489309,0.6493567 -0.1488165,0.6449771 -0.1479698,0.6406782 -0.1461845,0.6366841 -0.1433569,0.6333433 -0.1364601,0.627939 -0.1290608,0.6232464 -0.0138268,0.5538656 -0.2504899,0.5538656 -0.2504899,0.5538656 -0.2591028,0.5536681 -0.2675765,0.5522233 -0.2675765,0.5522233 -0.2726793,0.5482597 -0.2762452,0.542853 -0.2782961,0.5367295 -0.2790716,0.5303005 -0.2790716,0.5303005 -0.2787056,0.5254209 -0.2774607,0.5206909 -0.2751258,0.5163936 -0.2717585,0.512854 -0.2675633,0.5103313 -0.2629727,0.5086469 -0.2532897,0.5073103 0.0739435,0.5072283 0.0739435,0.5072283 0.0835165,0.5079475 0.0881136,0.5093245 0.0922672,0.5117375 0.0954884,0.5152883 0.0975285,0.5196321 0.0984278,0.5243488 0.0985418,0.529151 0.0985418,0.529151 0.0978505,0.5362648 0.0965575,0.5396097 0.0946402,0.5426453 0.0894692,0.5475716 0.0835982,0.5516485z" transform="matrix(1,0,0,-1,7.6835,2.8575)" fill="rgb(104,104,104)" fill-rule="nonzero" shaper:cutDepth="0.0000762" stroke-linecap="round" stroke-linejoin="round" /><path d="M-4.2314067,2.5957817 L-4.5390598,2.6836917 -4.2325896,2.77166 -4.2325896,2.77166 -4.2225245,2.7753512 -4.2178641,2.7780012 -4.2136422,2.7813186 -4.2102833,2.7854878 -4.2078816,2.7902847 -4.2065843,2.7954871 -4.2063638,2.8008457 -4.2063638,2.8008457 -4.207052,2.8066337 -4.2086778,2.8122311 -4.211528,2.8173145 -4.2152264,2.8218191 -4.2197434,2.8255034 -4.2248364,2.8283352 -4.2304403,2.8299394 -4.2362305,2.8306097 -4.2362305,2.8306097 -4.2426867,2.8301016 -4.2489572,2.8284544 -4.6412165,2.7156156 -4.6412165,2.7156156 -4.6625747,2.7092956 -4.6625747,2.7092956 -4.6686039,2.7046013 -4.6731146,2.6984312 -4.6758705,2.6913113 -4.6769436,2.6837396 -4.6769436,2.6837396 -4.6765828,2.6776198 -4.6749788,2.6717008 -4.6720015,2.6663539 -4.6676975,2.6619893 -4.6626219,2.6585477 -4.6571254,2.6558265 -4.6455374,2.6518202 -4.3460971,2.5666371 -4.6468919,2.4800876 -4.6468919,2.4800876 -4.6583341,2.476378 -4.6637804,2.4738327 -4.6688529,2.4705864 -4.6729956,2.4662545 -4.6755551,2.4608174 -4.6767426,2.454923 -4.6769436,2.4489115 -4.6769436,2.4489115 -4.6766724,2.4432818 -4.6751278,2.4378646 -4.6722469,2.4330193 -4.6683374,2.4289678 -4.6637694,2.4256523 -4.6588073,2.4229859 -4.6482059,2.4191475 -4.2457346,2.304151 -4.2457346,2.304151 -4.2315093,2.3020414 -4.2315093,2.3020414 -4.2260356,2.302624 -4.2207869,2.3042756 -4.2160148,2.3070141 -4.21202,2.3108002 -4.2088788,2.3153184 -4.2066469,2.3203498 -4.2053707,2.3257025 -4.2049269,2.3311896 -4.2049269,2.3311896 -4.2051372,2.336572 -4.2063191,2.341825 -4.2086464,2.3466825 -4.2119509,2.3509298 -4.2160951,2.3543729 -4.2207376,2.3571054 -4.2307909,2.3609537 -4.5381018,2.4495825 -4.2278638,2.5382602 -4.2278638,2.5382602 -4.2187567,2.5416639 -4.2146108,2.5441965 -4.2109374,2.5473898 -4.2080002,2.5512575 -4.2059443,2.5556648 -4.2050242,2.5604373 -4.2049269,2.5652992 -4.2049269,2.5652992 -4.2051074,2.5708733 -4.2060787,2.5763634 -4.2081932,2.5815192 -4.2115987,2.585927 -4.2160231,2.589313 -4.2209434,2.5919511 -4.2314067,2.5957817z" transform="matrix(1,0,0,-1,7.6835,2.8575)" fill="rgb(104,104,104)" fill-rule="nonzero" shaper:cutDepth="0.0000762" stroke-linecap="round" stroke-linejoin="round" /><path d="M-4.6446137,2.1747744 L-4.2364973,2.1747744 -4.2364973,2.1747744 -4.2249156,2.175828 -4.2193169,2.1774408 -4.2141302,2.1800717 -4.209753,2.1839112 -4.2068054,2.188917 -4.2052142,2.1945151 -4.2049269,2.2003305 -4.2049269,2.2003305 -4.2057315,2.2069287 -4.2080564,2.2131542 -4.2118102,2.2186358 -4.2166273,2.223218 -4.2166273,2.223218 -4.2218224,2.2254024 -4.2274049,2.2262612 -4.2386937,2.2266049 -4.6445812,2.2265024 -4.6445812,2.2265024 -4.6537155,2.2264783 -4.658257,2.2260192 -4.6625747,2.2245522 -4.6625747,2.2245522 -4.6686488,2.2203671 -4.6731361,2.2144895 -4.6758861,2.207641 -4.6769436,2.2003305 -4.6769436,2.2003305 -4.6761399,2.1937341 -4.673818,2.1875118 -4.6702645,2.1818858 -4.6652432,2.1775456 -4.6652432,2.1775456 -4.6602608,2.1759304 -4.6550865,2.1750936 -4.6446137,2.1747744z" transform="matrix(1,0,0,-1,7.6835,2.8575)" fill="rgb(104,104,104)" fill-rule="nonzero" shaper:cutDepth="0.0000762" stroke-linecap="round" stroke-linejoin="round" /><path d="M-4.2426965,1.8259193 L-4.5488243,1.8258169 -4.2250044,2.0375328 -4.2250044,2.0375328 -4.2174079,2.0432758 -4.210737,2.0500533 -4.2080821,2.0540236 -4.2061701,2.0584031 -4.2052321,2.0630507 -4.2049269,2.0678292 -4.2049269,2.0678292 -4.2060944,2.0760168 -4.2075411,2.0798673 -4.209572,2.0835075 -4.2120196,2.0869046 -4.2149339,2.0898196 -4.2221695,2.0937957 -4.2221695,2.0937957 -4.2268983,2.094877 -4.2317511,2.0951202 -4.2414649,2.0952326 -4.6388934,2.0951301 -4.6388934,2.0951301 -4.6509005,2.0949159 -4.6568577,2.094176 -4.6625747,2.0923588 -4.6625747,2.0923588 -4.6686813,2.0875874 -4.6732813,2.0813511 -4.6759573,2.0740834 -4.6769436,2.0663923 -4.6769436,2.0663923 -4.6763856,2.060078 -4.6747232,2.0539634 -4.6716489,2.0484231 -4.6672572,2.043869 -4.6617919,2.0406478 -4.6558336,2.0385004 -4.6495965,2.0373584 -4.6432794,2.0368335 -4.3322295,2.0368335 -4.6581939,1.8258169 -4.6581939,1.8258169 -4.6655764,1.8201678 -4.6716718,1.8131848 -4.6740503,1.8091539 -4.6757795,1.8048404 -4.6769436,1.7956421 -4.6769436,1.7956421 -4.6764677,1.7895127 -4.6748323,1.7835896 -4.6718247,1.778236 -4.6674064,1.7739663 -4.6620446,1.7709717 -4.6561877,1.7690887 -4.6501325,1.7680497 -4.6439979,1.7676229 -4.2400159,1.7675203 -4.2400159,1.7675203 -4.233449,1.7677622 -4.2269413,1.768622 -4.2205942,1.770336 -4.2147178,1.7732604 -4.2099034,1.7777162 -4.2066532,1.7834161 -4.2050967,1.7897933 -4.2049269,1.7963606 -4.2049269,1.7963606 -4.2052948,1.8033162 -4.2069415,1.8100802 -4.2103771,1.8161233 -4.215644,1.8206667 -4.2220016,1.8234927 -4.2288046,1.8250093 -4.2426965,1.8259193z" transform="matrix(1,0,0,-1,7.6835,2.8575)" fill="rgb(104,104,104)" fill-rule="nonzero" shaper:cutDepth="0.0000762" stroke-linecap="round" stroke-linejoin="round" /><path d="M-4.2049269,1.5592746 L-4.2049269,1.5592746 -4.205474,1.5427962 -4.2074603,1.5264302 -4.2110721,1.5103442 -4.216215,1.4946801 -4.2231404,1.4797195 -4.2316576,1.4656037 -4.2415499,1.4524154 -4.2527547,1.440321 -4.2527547,1.440321 -4.2717059,1.4234731 -4.2818773,1.4159018 -4.2924981,1.4089526 -4.3034663,1.4025793 -4.3147846,1.3968639 -4.3264385,1.3918564 -4.3383642,1.3875288 -4.3505067,1.3838619 -4.3628251,1.3808526 -4.3878211,1.3765479 -4.4130686,1.3742029 -4.4384207,1.3735059 -4.4384207,1.3735059 -4.4567192,1.3737139 -4.4749946,1.3746286 -4.4932027,1.3764597 -4.5112621,1.3794065 -4.5290311,1.3837763 -4.5463664,1.3896312 -4.563256,1.3966742 -4.5795433,1.4050147 -4.5795433,1.4050147 -4.6001732,1.4172317 -4.6100398,1.4240478 -4.6194915,1.4314249 -4.6284688,1.4393751 -4.6369113,1.4478891 -4.6447249,1.4569844 -4.6517758,1.4666825 -4.6579396,1.4769664 -4.6632863,1.4876991 -4.6677368,1.4988327 -4.6712199,1.510306 -4.6738573,1.5220029 -4.6756869,1.5338531 -4.6766588,1.5458043 -4.6769436,1.5577918 -4.6769436,1.6580091 -4.6769436,1.6580091 -4.6766807,1.666417 -4.6753592,1.6747213 -4.6722632,1.6825335 -4.6698215,1.6859775 -4.666716,1.688809 -4.6630588,1.6909103 -4.6591228,1.6924158 -4.6508967,1.6941719 -4.6425064,1.6947068 -4.6340968,1.6944445 -4.2416701,1.694547 -4.2416701,1.694547 -4.2339813,1.694343 -4.2264062,1.6930389 -4.21928,1.6901564 -4.2132506,1.6853989 -4.2089416,1.6790371 -4.2063631,1.6717949 -4.2051818,1.6641966 -4.2048244,1.6565146 -4.2049269,1.5592746z M-4.263121,1.5570794 L-4.263121,1.6361479 -4.6186471,1.6361479 -4.6186471,1.5578377 -4.6186471,1.5578377 -4.6178927,1.5394179 -4.6166347,1.5302817 -4.6146411,1.5212787 -4.6116138,1.5125701 -4.6074709,1.5043342 -4.6024199,1.4966193 -4.5965807,1.489483 -4.5965807,1.489483 -4.5872305,1.4796351 -4.5769971,1.4707047 -4.5660971,1.4626074 -4.5545104,1.4555202 -4.5424586,1.449262 -4.5299701,1.4439238 -4.5171252,1.4395156 -4.5040042,1.4360104 -4.5040042,1.4360104 -4.4912247,1.4331251 -4.4781752,1.4319714 -4.4519685,1.4318023 -4.4519685,1.4318023 -4.4013136,1.4322484 -4.3886734,1.4330338 -4.3761842,1.4351224 -4.3640139,1.4386088 -4.3522076,1.4431948 -4.3522076,1.4431948 -4.3399639,1.4486665 -4.3281139,1.454943 -4.3167606,1.4620816 -4.3059822,1.4700604 -4.2959082,1.4789126 -4.2866521,1.4886132 -4.2784383,1.499217 -4.2717421,1.510831 -4.2717421,1.510831 -4.2669327,1.5217112 -4.2643518,1.5333252 -4.2633704,1.5451823 -4.263121,1.5570794z" transform="matrix(1,0,0,-1,7.6835,2.8575)" fill="rgb(104,104,104)" fill-rule="nonzero" shaper:cutDepth="0.0000762" stroke-linecap="round" stroke-linejoin="round" /><path d="M-4.2048244,1.1196427 L-4.2070504,1.1653614 -4.2070504,1.1653614 -4.2082677,1.1772802 -4.2102962,1.1890865 -4.213238,1.2007008 -4.2171784,1.2120138 -4.2222258,1.222879 -4.2283868,1.2331519 -4.2354542,1.2428264 -4.2434673,1.2517306 -4.252283,1.2598433 -4.2618863,1.2670047 -4.2721749,1.2731411 -4.2830251,1.2782183 -4.2943669,1.2820776 -4.3060082,1.2849031 -4.3178771,1.2865338 -4.3298333,1.2872928 -4.3298333,1.2872928 -4.344531,1.2862989 -4.3590328,1.2837117 -4.3731148,1.2793868 -4.3866301,1.2735261 -4.3993656,1.2661219 -4.4111163,1.2572401 -4.4216463,1.2469376 -4.4306205,1.235257 -4.4306205,1.235257 -4.4380022,1.2228479 -4.4436905,1.2095701 -4.4478869,1.1957522 -4.4511474,1.1816817 -4.4674082,1.1053588 -4.4674082,1.1053588 -4.4705453,1.0917582 -4.4726179,1.0850928 -4.4752665,1.0786366 -4.4752665,1.0786366 -4.4807182,1.0697454 -4.4873034,1.0616587 -4.4950882,1.0547165 -4.5036678,1.0487882 -4.512985,1.0440986 -4.5227992,1.0405696 -4.5330155,1.0384712 -4.5434159,1.0376854 -4.5434159,1.0376854 -4.5557265,1.0387193 -4.5677309,1.0416168 -4.5791597,1.0463085 -4.5896748,1.0527861 -4.5990804,1.0607964 -4.6069997,1.0702711 -4.6103111,1.0755009 -4.6130845,1.0810206 -4.6171076,1.0926975 -4.6171076,1.0926975 -4.6190779,1.1074769 -4.6199814,1.1223589 -4.6199339,1.1646555 -4.6199339,1.1646555 -4.6195434,1.1792797 -4.6187075,1.1865524 -4.6171076,1.19369 -4.6171076,1.19369 -4.6130655,1.2035206 -4.6075087,1.2125817 -4.6005486,1.2206155 -4.5925564,1.2276242 -4.5837001,1.2335036 -4.5740767,1.2380166 -4.5638316,1.240849 -4.5532689,1.2420309 -4.5532689,1.2420309 -4.5469055,1.2414151 -4.541188,1.241321 -4.541188,1.241321 -4.5355866,1.2419378 -4.5300954,1.2432107 -4.5249677,1.2455433 -4.5204108,1.2488603 -4.5166157,1.2530235 -4.513696,1.2578426 -4.5120017,1.2632161 -4.5113939,1.2688186 -4.5113939,1.2688186 -4.5122911,1.2759332 -4.5148239,1.2826439 -4.51898,1.2884786 -4.5244949,1.2930665 -4.5308097,1.2964701 -4.5376006,1.2987809 -4.5446704,1.2999921 -4.551832,1.30043 -4.551832,1.30043 -4.5700824,1.2989374 -4.5790807,1.2972584 -4.5879379,1.2948859 -4.5966138,1.2919308 -4.6050564,1.2883867 -4.6132165,1.2842311 -4.6210722,1.2795118 -4.6285987,1.2742813 -4.6357239,1.2685283 -4.6423767,1.262238 -4.6485535,1.2554658 -4.6542432,1.2482724 -4.6593166,1.2406532 -4.6677065,1.2243778 -4.6677065,1.2243778 -4.6717966,1.2099553 -4.6746731,1.1952398 -4.6763718,1.1803448 -4.6769436,1.1653628 -4.6769436,1.1192142 -4.6769436,1.1192142 -4.6761638,1.1057404 -4.6745279,1.0923456 -4.671894,1.0791076 -4.6680653,1.0661675 -4.6629936,1.0536619 -4.6567939,1.0416736 -4.6493436,1.0304231 -4.6407289,1.020035 -4.6310938,1.010586 -4.6204997,1.0022272 -4.6090121,0.9951463 -4.5967741,0.9894589 -4.5840128,0.985072 -4.5708714,0.9819956 -4.5575085,0.9801179 -4.5440317,0.9793889 -4.5440317,0.9793889 -4.5321721,0.9799526 -4.5203853,0.9813778 -4.508757,0.983772 -4.4973419,0.9870399 -4.4863292,0.9914729 -4.4757065,0.9967754 -4.4656807,1.003135 -4.4562389,1.010332 -4.4474826,1.0183508 -4.4394328,1.0270762 -4.4322642,1.0365413 -4.4259483,1.0465936 -4.4205173,1.0571521 -4.4158997,1.0680897 -4.4121827,1.0793658 -4.4091698,1.0908501 -4.3934094,1.167489 -4.3934094,1.167489 -4.3907123,1.1800561 -4.3870008,1.1923558 -4.3870008,1.1923558 -4.3826626,1.2003658 -4.3771937,1.207651 -4.3706245,1.2139616 -4.3632172,1.2192649 -4.3551205,1.223439 -4.3465088,1.2264144 -4.3375874,1.2282484 -4.328499,1.2288937 -4.328499,1.2288937 -4.3155351,1.2276455 -4.3091989,1.2261602 -4.3030363,1.2240051 -4.2971156,1.2212563 -4.2915558,1.2178692 -4.2864539,1.2138198 -4.2818014,1.20924 -4.2776051,1.2042472 -4.2739539,1.1988573 -4.2708982,1.1931028 -4.2683929,1.1870769 -4.2650147,1.1745066 -4.2635313,1.1615654 -4.2627965,1.1260275 -4.2627965,1.1224804 -4.2627965,1.1224804 -4.2635861,1.1096865 -4.266218,1.0971486 -4.2709456,1.0852374 -4.2741797,1.0796962 -4.2780167,1.0745561 -4.2824175,1.0698922 -4.2872713,1.0656943 -4.2980065,1.0586998 -4.3098001,1.0536875 -4.3221357,1.0502068 -4.3221357,1.0502068 -4.3316651,1.0465359 -4.3360323,1.0438818 -4.3399073,1.040549 -4.343029,1.0365077 -4.3452131,1.0318889 -4.3462476,1.026886 -4.3463574,1.021777 -4.3463574,1.021777 -4.3457898,1.0158925 -4.3441559,1.0102136 -4.3413396,1.0050183 -4.3374486,1.0005691 -4.3327061,0.9970455 -4.3273012,0.9946478 -4.3215588,0.9932568 -4.3156697,0.9927314 -4.3156697,0.9927314 -4.302656,0.9942006 -4.2900539,0.997836 -4.2779495,1.0028425 -4.2664051,1.0090503 -4.2664051,1.0090503 -4.2530634,1.0180285 -4.2409251,1.0285728 -4.2303154,1.0406566 -4.2213912,1.0540325 -4.2142674,1.0684482 -4.209043,1.083655 -4.2059575,1.0994356 -4.2049269,1.1154824 -4.2048244,1.1196427z" transform="matrix(1,0,0,-1,7.6835,2.8575)" fill="rgb(104,104,104)" fill-rule="nonzero" shaper:cutDepth="0.0000762" stroke-linecap="round" stroke-linejoin="round" /><path d="M-4.2361193,0.6303287 L-4.234691,0.6304311 -4.234691,0.6304311 -4.22903,0.6305715 -4.2234355,0.6297227 -4.2181735,0.6276378 -4.2135184,0.6244191 -4.2097439,0.6202023 -4.2070366,0.6152326 -4.2054865,0.6097904 -4.2049269,0.6041567 -4.2049269,0.6041567 -4.2052219,0.5981912 -4.2068487,0.5924478 -4.2099921,0.5873779 -4.2145523,0.5835388 -4.2199866,0.5810523 -4.2257717,0.579571 -4.2376701,0.5786008 -4.6424584,0.5787033 -4.6424584,0.5787033 -4.6550142,0.5793978 -4.6611511,0.5807359 -4.6669571,0.5831721 -4.6718338,0.5871071 -4.6750566,0.5924972 -4.6765576,0.5985993 -4.6769436,0.6048751 -4.6769436,0.6048751 -4.675851,0.6128015 -4.6745612,0.6165757 -4.672625,0.6200972 -4.670095,0.6232405 -4.6670215,0.6257908 -4.659701,0.6289943 -4.659701,0.6289943 -4.6552926,0.6300271 -4.6507731,0.6303247 -4.641711,0.6303287 -4.4404735,0.6303287 -4.4404735,0.8544825 -4.6446137,0.8544825 -4.6446137,0.8544825 -4.6564743,0.8553306 -4.6622278,0.856849 -4.6675912,0.8594267 -4.672104,0.8632916 -4.6752363,0.8683417 -4.6767516,0.8740915 -4.6769436,0.8800386 -4.6769436,0.8800386 -4.6767663,0.8860659 -4.6752975,0.8919096 -4.6722787,0.8971179 -4.6678194,0.9011744 -4.662423,0.9038318 -4.6565789,0.9053687 -4.6506101,0.9061413 -4.6445756,0.9062105 -4.2392069,0.906313 -4.2392069,0.906313 -4.2303178,0.9061901 -4.2258868,0.9058583 -4.2215537,0.9048762 -4.2215537,0.9048762 -4.2145973,0.9012999 -4.2116335,0.8987437 -4.2091818,0.8956622 -4.2073115,0.8922058 -4.2060546,0.8885034 -4.2049269,0.880757 -4.2049269,0.880757 -4.2053255,0.874781 -4.2069631,0.8690236 -4.210141,0.8639545 -4.214645,0.8600145 -4.2200044,0.8573488 -4.2257674,0.8557012 -4.2376701,0.8544825 -4.3887456,0.8544825 -4.3887456,0.6303287 -4.2361193,0.6303287z" transform="matrix(1,0,0,-1,7.6835,2.8575)" fill="rgb(104,104,104)" fill-rule="nonzero" shaper:cutDepth="0.0000762" stroke-linecap="round" stroke-linejoin="round" /><path d="M-4.6446137,0.4537969 L-4.2364973,0.4537969 -4.2364973,0.4537969 -4.2249156,0.4548506 -4.2193169,0.4564633 -4.2141302,0.4590942 -4.209753,0.4629338 -4.2068054,0.4679395 -4.2052142,0.4735376 -4.2049269,0.479353 -4.2049269,0.479353 -4.2057315,0.4859512 -4.2080564,0.4921767 -4.2118102,0.4976583 -4.2166273,0.5022405 -4.2166273,0.5022405 -4.2218224,0.5044249 -4.2274049,0.5052838 -4.2386937,0.5056274 -4.6445812,0.5055249 -4.6445812,0.5055249 -4.6537155,0.5055008 -4.658257,0.5050417 -4.6625747,0.5035747 -4.6625747,0.5035747 -4.6686488,0.4993896 -4.6731361,0.493512 -4.6758861,0.4866635 -4.6769436,0.479353 -4.6769436,0.479353 -4.6761399,0.4727566 -4.673818,0.4665343 -4.6702645,0.4609084 -4.6652432,0.4565681 -4.6652432,0.4565681 -4.6602608,0.4549529 -4.6550865,0.4541161 -4.6446137,0.4537969z" transform="matrix(1,0,0,-1,7.6835,2.8575)" fill="rgb(104,104,104)" fill-rule="nonzero" shaper:cutDepth="0.0000762" stroke-linecap="round" stroke-linejoin="round" /><path d="M-4.3821769,0.1527696 L-4.3821769,0.315856 -4.263121,0.315856 -4.263121,0.0930976 -4.263121,0.0930976 -4.2630617,0.0860671 -4.2622842,0.079091 -4.2605775,0.0722659 -4.2576731,0.0658774 -4.2532664,0.0604048 -4.2474053,0.0565584 -4.2406794,0.0545378 -4.2336646,0.0541377 -4.2336646,0.0541377 -4.2270372,0.0545107 -4.2206521,0.0563085 -4.214965,0.0597071 -4.2105768,0.0646855 -4.2076534,0.0706321 -4.2059303,0.0770515 -4.2050764,0.0836255 -4.2049269,0.0902651 -4.2048244,0.3355203 -4.2048244,0.3355203 -4.2049915,0.3435689 -4.2058969,0.3515689 -4.2082057,0.3592762 -4.2100805,0.3628515 -4.2125346,0.3660487 -4.2155978,0.3686684 -4.2191038,0.3706664 -4.2267702,0.3731266 -4.2347464,0.374174 -4.2427991,0.3742551 -4.6383113,0.3741526 -4.6383113,0.3741526 -4.6463391,0.3743397 -4.654317,0.3735624 -4.6620652,0.3714453 -4.6656493,0.3696299 -4.6688318,0.3671701 -4.67144,0.3641131 -4.6734489,0.3606281 -4.6759081,0.3529927 -4.6768505,0.3450239 -4.6769436,0.3369987 -4.6769436,0.0930976 -4.6769436,0.0930976 -4.6762606,0.0785112 -4.6748068,0.0713426 -4.672238,0.0645078 -4.6681542,0.0584476 -4.665491,0.0559439 -4.6624221,0.0539481 -4.6555021,0.0516212 -4.6482059,0.0512639 -4.6482059,0.0512639 -4.6394301,0.0527169 -4.6352449,0.0542214 -4.6313495,0.0564055 -4.6278864,0.059233 -4.6249962,0.0626154 -4.6208024,0.0704566 -4.6208024,0.0704566 -4.6192803,0.0750721 -4.6187967,0.079916 -4.6186471,0.0896493 -4.6186471,0.315856 -4.4404735,0.315856 -4.4404735,0.1555267 -4.4404735,0.1555267 -4.4404071,0.1485286 -4.4397353,0.1415668 -4.4381626,0.1347485 -4.4354709,0.1282876 -4.4312057,0.1227606 -4.425427,0.1188306 -4.4187244,0.1168488 -4.4117357,0.1165396 -4.4117357,0.1165396 -4.4050139,0.1168989 -4.3985132,0.1186263 -4.3926767,0.1219614 -4.3881208,0.1269061 -4.385056,0.1328942 -4.3832049,0.1393683 -4.382336,0.1460384 -4.3821769,0.1527696z" transform="matrix(1,0,0,-1,7.6835,2.8575)" fill="rgb(104,104,104)" fill-rule="nonzero" shaper:cutDepth="0.0000762" stroke-linecap="round" stroke-linejoin="round" /><path d="M-4.6252157,-0.3151417 L-4.6252157,-0.3151417 -4.6252886,-0.3233709 -4.6256513,-0.3274731 -4.6266526,-0.3314606 -4.6266526,-0.3314606 -4.6301595,-0.3386138 -4.632753,-0.3416265 -4.6358483,-0.3442045 -4.6392523,-0.3463479 -4.6429109,-0.3478954 -4.6507718,-0.3492164 -4.6507718,-0.3492164 -4.6588584,-0.3477121 -4.6626602,-0.3461593 -4.666173,-0.3439776 -4.6692937,-0.3412613 -4.6718874,-0.3380759 -4.6756093,-0.3307422 -4.6756093,-0.3307422 -4.6768245,-0.3257465 -4.6769479,-0.3205799 -4.6769436,-0.3102419 -4.6769436,-0.0589657 -4.6769436,-0.0589657 -4.676571,-0.0520243 -4.6752157,-0.0452131 -4.6725242,-0.0388063 -4.6681875,-0.0333881 -4.662418,-0.0295299 -4.6558409,-0.0272791 -4.6489592,-0.026364 -4.6420081,-0.026533 -4.2365384,-0.0264305 -4.2365384,-0.0264305 -4.2307662,-0.0268411 -4.2250748,-0.0278518 -4.2195611,-0.029604 -4.214426,-0.0322751 -4.2102223,-0.0362261 -4.2071202,-0.0411087 -4.2054251,-0.0466347 -4.2049269,-0.0523971 -4.2049269,-0.0523971 -4.2054139,-0.058187 -4.2070002,-0.0637731 -4.2099864,-0.0687568 -4.2142344,-0.0726949 -4.219433,-0.0753078 -4.2249858,-0.0770115 -4.2365262,-0.078261 -4.6252157,-0.078261 -4.6252157,-0.3151417z" transform="matrix(1,0,0,-1,7.6835,2.8575)" fill="rgb(104,104,104)" fill-rule="nonzero" shaper:cutDepth="0.0000762" stroke-linecap="round" stroke-linejoin="round" /><path d="M-4.2049269,-0.5558199 L-4.2049269,-0.5558199 -4.205474,-0.5722982 -4.2074603,-0.5886643 -4.2110721,-0.6047502 -4.216215,-0.6204144 -4.2231404,-0.635375 -4.2316576,-0.6494908 -4.2415499,-0.6626791 -4.2527547,-0.6747735 -4.2527547,-0.6747735 -4.2717059,-0.6916214 -4.2818773,-0.6991927 -4.2924981,-0.7061419 -4.3034663,-0.7125151 -4.3147846,-0.7182305 -4.3264385,-0.723238 -4.3383642,-0.7275657 -4.3505067,-0.7312325 -4.3628251,-0.7342418 -4.3878211,-0.7385465 -4.4130686,-0.7408916 -4.4384207,-0.7415886 -4.4384207,-0.7415886 -4.4567192,-0.7413806 -4.4749946,-0.7404659 -4.4932027,-0.7386348 -4.5112621,-0.735688 -4.5290311,-0.7313182 -4.5463664,-0.7254633 -4.563256,-0.7184203 -4.5795433,-0.7100798 -4.5795433,-0.7100798 -4.6001732,-0.6978628 -4.6100398,-0.6910467 -4.6194915,-0.6836696 -4.6284688,-0.6757194 -4.6369113,-0.6672054 -4.6447249,-0.6581101 -4.6517758,-0.6484119 -4.6579396,-0.638128 -4.6632863,-0.6273954 -4.6677368,-0.6162618 -4.6712199,-0.6047885 -4.6738573,-0.5930916 -4.6756869,-0.5812414 -4.6766588,-0.5692902 -4.6769436,-0.5573027 -4.6769436,-0.4570854 -4.6769436,-0.4570854 -4.6766807,-0.4486775 -4.6753592,-0.4403731 -4.6722632,-0.4325609 -4.6698215,-0.4291169 -4.666716,-0.4262854 -4.6630588,-0.4241842 -4.6591228,-0.4226787 -4.6508967,-0.4209226 -4.6425064,-0.4203877 -4.6340968,-0.42065 -4.2416701,-0.4205475 -4.2416701,-0.4205475 -4.2339813,-0.4207515 -4.2264062,-0.4220555 -4.21928,-0.424938 -4.2132506,-0.4296955 -4.2089416,-0.4360574 -4.2063631,-0.4432995 -4.2051818,-0.4508978 -4.2048244,-0.4585799 -4.2049269,-0.5558199z M-4.263121,-0.558015 L-4.263121,-0.4789466 -4.6186471,-0.4789466 -4.6186471,-0.5572568 -4.6186471,-0.5572568 -4.6178927,-0.5756765 -4.6166347,-0.5848128 -4.6146411,-0.5938158 -4.6116138,-0.6025244 -4.6074709,-0.6107603 -4.6024199,-0.6184752 -4.5965807,-0.6256115 -4.5965807,-0.6256115 -4.5872305,-0.6354594 -4.5769971,-0.6443898 -4.5660971,-0.6524871 -4.5545104,-0.6595743 -4.5424586,-0.6658324 -4.5299701,-0.6711707 -4.5171252,-0.6755788 -4.5040042,-0.6790841 -4.5040042,-0.6790841 -4.4912247,-0.6819694 -4.4781752,-0.6831231 -4.4519685,-0.6832921 -4.4519685,-0.6832921 -4.4013136,-0.682846 -4.3886734,-0.6820606 -4.3761842,-0.6799721 -4.3640139,-0.6764857 -4.3522076,-0.6718997 -4.3522076,-0.6718997 -4.3399639,-0.666428 -4.3281139,-0.6601515 -4.3167606,-0.6530128 -4.3059822,-0.6450341 -4.2959082,-0.6361819 -4.2866521,-0.6264813 -4.2784383,-0.6158775 -4.2717421,-0.6042635 -4.2717421,-0.6042635 -4.2669327,-0.5933832 -4.2643518,-0.5817693 -4.2633704,-0.5699121 -4.263121,-0.558015z" transform="matrix(1,0,0,-1,7.6835,2.8575)" fill="rgb(104,104,104)" fill-rule="nonzero" shaper:cutDepth="0.0000762" stroke-linecap="round" stroke-linejoin="round" /><path d="M-5.0852305,2.1617596 L-5.1322781,2.1799436 -5.1322781,2.1799436 -5.1388686,2.1836293 -5.1417649,2.1860652 -5.1442307,2.1889329 -5.1460996,2.1922211 -5.1474042,2.1957718 -5.1482891,2.2032621 -5.1482891,2.2032621 -5.1479296,2.2077749 -5.1468553,2.2121691 -5.1450914,2.2163385 -5.1425299,2.2200685 -5.1392865,2.2232242 -5.1354834,2.225676 -5.1311867,2.2270949 -5.1266948,2.2276481 -5.1266948,2.2276481 -5.1223306,2.2272639 -5.1181161,2.2260431 -5.1098721,2.2230536 -4.7885752,2.1016128 -4.7885752,2.1016128 -4.7814351,2.0981643 -4.7782026,2.0958661 -4.7753561,2.0931009 -4.7730771,2.0898573 -4.7714759,2.0862288 -4.7706846,2.0823429 -4.7706758,2.0783763 -4.7706758,2.0783763 -4.7708535,2.0735725 -4.7718474,2.0688675 -4.7738286,2.064501 -4.7769593,2.0608509 -4.7807768,2.0579351 -4.7849475,2.0555361 -4.7937416,2.0516573 -5.1138039,1.9291045 -5.1138039,1.9291045 -5.1201794,1.927564 -5.1266948,1.9268055 -5.1266948,1.9268055 -5.1311806,1.9273737 -5.1354431,1.9288782 -5.1392443,1.9313249 -5.1424616,1.934502 -5.1450009,1.938242 -5.1468162,1.9423851 -5.1479316,1.9467647 -5.1482891,1.9512736 -5.1482891,1.9512736 -5.1481935,1.9553689 -5.1473768,1.9593812 -5.1456409,1.9630895 -5.1432172,1.966395 -5.1402512,1.969212 -5.1368635,1.9715264 -5.1294749,1.9750398 -5.0852305,1.9914984 -5.0852305,2.1617596z M-5.0385932,2.0102271 L-4.8613068,2.0771965 -5.0385932,2.1441659 -5.0385932,2.0102271z" transform="matrix(1,0,0,-1,7.6835,2.8575)" fill="rgb(104,104,104)" fill-rule="nonzero" shaper:cutDepth="0.0000762" stroke-linecap="round" stroke-linejoin="round" /><path d="M-4.8008914,1.6551111 L-5.0457937,1.6550292 -4.7867378,1.8244019 -4.7867378,1.8244019 -4.7806606,1.8289962 -4.7753239,1.8344183 -4.7731999,1.8375945 -4.7716703,1.8410981 -4.7706758,1.848639 -4.7706758,1.848639 -4.7716098,1.8551891 -4.7743918,1.8611817 -4.7786814,1.8662314 -4.7844699,1.8694122 -4.7844699,1.8694122 -4.7882529,1.8702772 -4.7921351,1.8704718 -4.7999061,1.8705617 -5.117849,1.8704797 -5.117849,1.8704797 -5.1274547,1.8703084 -5.1322204,1.8697165 -5.136794,1.8682627 -5.136794,1.8682627 -5.1416793,1.8644456 -5.1453593,1.8594565 -5.1475001,1.8536424 -5.1482891,1.8474895 -5.1482891,1.8474895 -5.1478427,1.842438 -5.1465128,1.8375463 -5.1440534,1.8331141 -5.14054,1.8294709 -5.1361677,1.8268939 -5.1314011,1.825176 -5.1213578,1.8238424 -4.8725179,1.8238424 -5.1332894,1.6550292 -5.1332894,1.6550292 -5.1391954,1.6505099 -5.1440717,1.6449235 -5.1473578,1.638248 -5.1482891,1.6308893 -5.1482891,1.6308893 -5.1479084,1.6259858 -5.1466001,1.6212473 -5.144194,1.6169644 -5.1406594,1.6135487 -5.1363699,1.611153 -5.1316844,1.6096466 -5.1219325,1.6084739 -4.798747,1.6083919 -4.798747,1.6083919 -4.7882872,1.6092732 -4.7832096,1.6106445 -4.7785085,1.6129839 -4.7746569,1.6165486 -4.7720568,1.6211085 -4.7708116,1.6262103 -4.7706758,1.6314641 -4.7706758,1.6314641 -4.7709701,1.6370286 -4.7722875,1.6424398 -4.7750359,1.6472743 -4.7792495,1.650909 -4.7843355,1.6531698 -4.7897779,1.6543831 -4.8008914,1.6551111z" transform="matrix(1,0,0,-1,7.6835,2.8575)" fill="rgb(104,104,104)" fill-rule="nonzero" shaper:cutDepth="0.0000762" stroke-linecap="round" stroke-linejoin="round" /><path d="M-5.1195514,1.3981961 L-4.817231,1.3981961 -4.817231,1.3221461 -4.817231,1.3221461 -4.8165407,1.3112064 -4.8153075,1.3058553 -4.8131724,1.3008082 -4.8098954,1.2964066 -4.8054634,1.2931981 -4.8002828,1.2913982 -4.7948154,1.2909634 -4.7948154,1.2909634 -4.7893988,1.2914118 -4.7841988,1.2929789 -4.7795089,1.2957059 -4.7758465,1.2997222 -4.7732912,1.3045082 -4.7717402,1.3097219 -4.7706758,1.3205222 -4.7705937,1.5186132 -4.7705937,1.5186132 -4.7713549,1.5299617 -4.7725561,1.5355279 -4.774525,1.5408687 -4.7776602,1.545608 -4.7820682,1.5492012 -4.7874203,1.5511045 -4.7930912,1.5515733 -4.7930912,1.5515733 -4.7985683,1.5511146 -4.803822,1.5495099 -4.8085323,1.5467064 -4.812172,1.5425783 -4.814744,1.5377378 -4.816262,1.532447 -4.8173129,1.5215219 -4.817231,1.4448334 -5.1166778,1.4448334 -5.1166778,1.4448334 -5.1244492,1.4448984 -5.132196,1.4443406 -5.132196,1.4443406 -5.1356953,1.4430468 -5.1388799,1.4410994 -5.1416681,1.4386241 -5.1439508,1.4356683 -5.1471463,1.4289505 -5.1482891,1.4215968 -5.1482891,1.4215968 -5.1475882,1.4152381 -5.145343,1.4092594 -5.1414185,1.4042142 -5.1362193,1.4004951 -5.1362193,1.4004951 -5.1322144,1.3991051 -5.1280309,1.3984142 -5.1195514,1.3981961z" transform="matrix(1,0,0,-1,7.6835,2.8575)" fill="rgb(104,104,104)" fill-rule="nonzero" shaper:cutDepth="0.0000762" stroke-linecap="round" stroke-linejoin="round" /><path d="M-5.1224252,1.1880004 L-4.7959321,1.1880004 -4.7959321,1.1880004 -4.7866667,1.1888433 -4.7821878,1.1901334 -4.7780384,1.1922382 -4.7745366,1.1953098 -4.7721786,1.1993144 -4.7709056,1.2037929 -4.7706758,1.2084452 -4.7706758,1.2084452 -4.7713194,1.2137238 -4.7731794,1.2187042 -4.7761824,1.2230895 -4.780036,1.2267552 -4.780036,1.2267552 -4.7841922,1.2285028 -4.7886581,1.2291898 -4.7976892,1.2294648 -5.1223992,1.2293827 -5.1223992,1.2293827 -5.1297066,1.2293634 -5.1333398,1.2289962 -5.136794,1.2278226 -5.136794,1.2278226 -5.1416533,1.2244745 -5.1452431,1.2197724 -5.1474431,1.2142936 -5.1482891,1.2084452 -5.1482891,1.2084452 -5.1476461,1.2031681 -5.1457886,1.1981903 -5.1429459,1.1936895 -5.1389288,1.1902173 -5.1389288,1.1902173 -5.1349429,1.1889252 -5.1308034,1.1882557 -5.1224252,1.1880004z" transform="matrix(1,0,0,-1,7.6835,2.8575)" fill="rgb(104,104,104)" fill-rule="nonzero" shaper:cutDepth="0.0000762" stroke-linecap="round" stroke-linejoin="round" /><path d="M-5.1224252,0.9252557 L-4.7959321,0.9252557 -4.7959321,0.9252557 -4.7866667,0.9260986 -4.7821878,0.9273888 -4.7780384,0.9294935 -4.7745366,0.9325652 -4.7721786,0.9365698 -4.7709056,0.9410482 -4.7706758,0.9457005 -4.7706758,0.9457005 -4.7713194,0.9509791 -4.7731794,0.9559595 -4.7761824,0.9603448 -4.780036,0.9640106 -4.780036,0.9640106 -4.7841922,0.9657581 -4.7886581,0.9664452 -4.7976892,0.9667201 -5.1223992,0.9666381 -5.1223992,0.9666381 -5.1297066,0.9666188 -5.1333398,0.9662515 -5.136794,0.965078 -5.136794,0.965078 -5.1416533,0.9617298 -5.1452431,0.9570278 -5.1474431,0.951549 -5.1482891,0.9457005 -5.1482891,0.9457005 -5.1476461,0.9404235 -5.1457886,0.9354456 -5.1429459,0.9309449 -5.1389288,0.9274726 -5.1389288,0.9274726 -5.1349429,0.9261805 -5.1308034,0.9255111 -5.1224252,0.9252557z" transform="matrix(1,0,0,-1,7.6835,2.8575)" fill="rgb(104,104,104)" fill-rule="nonzero" shaper:cutDepth="0.0000762" stroke-linecap="round" stroke-linejoin="round" /><path d="M-4.7706758,0.7088198 L-4.7705937,0.7087735 -4.7705937,0.7087735 -4.7715591,0.7239846 -4.774076,0.7390164 -4.778455,0.7536149 -4.7845491,0.7675838 -4.7923872,0.7806551 -4.8016761,0.7927403 -4.8121644,0.8037972 -4.8236352,0.8138356 -4.8236352,0.8138356 -4.8382084,0.8243416 -4.8535146,0.8337467 -4.8695374,0.8418722 -4.8861494,0.8487118 -4.9032487,0.8542222 -4.9207492,0.8582791 -4.9385411,0.8607691 -4.9564855,0.8616223 -4.9564855,0.8616223 -4.9746073,0.8608327 -4.9926283,0.8587686 -5.0104191,0.8552329 -5.027902,0.8503976 -5.0449275,0.8441414 -5.061403,0.836554 -5.0771551,0.82756 -5.0920453,0.817202 -5.0920453,0.817202 -5.1039491,0.8072247 -5.1149754,0.7962897 -5.1248142,0.7842704 -5.1331835,0.7711904 -5.1398829,0.7571781 -5.1446193,0.7423905 -5.1474423,0.7271184 -5.1482891,0.7116115 -5.1482891,0.7116115 -5.1476497,0.6987441 -5.1456833,0.6860123 -5.142318,0.6735768 -5.1376979,0.6615513 -5.1317234,0.6501377 -5.1245329,0.6394476 -5.1163291,0.6295151 -5.1073174,0.6203077 -5.1073174,0.6203077 -5.0936412,0.6086169 -5.0859352,0.6039374 -5.081671,0.6025805 -5.0771838,0.6020798 -5.0771838,0.6020798 -5.0725889,0.6024842 -5.0681024,0.6035519 -5.0639319,0.6055186 -5.0602419,0.6082842 -5.0571971,0.6117468 -5.054982,0.6157903 -5.0537537,0.6202349 -5.0532905,0.6248236 -5.0532905,0.6248236 -5.0538182,0.6310691 -5.0559676,0.6369474 -5.0598829,0.6418363 -5.0647035,0.6458432 -5.0647035,0.6458432 -5.0790295,0.6582746 -5.0853635,0.6653377 -5.091,0.6729721 -5.095673,0.6812285 -5.0990565,0.6900879 -5.101126,0.6993498 -5.1016519,0.7088198 -5.1016519,0.7088198 -5.1013149,0.7181112 -5.0998383,0.7272911 -5.0972899,0.736231 -5.093581,0.7447581 -5.0889326,0.7528082 -5.0834016,0.7602844 -5.0771885,0.7671991 -5.0703689,0.7735207 -5.0703689,0.7735207 -5.0583904,0.7828276 -5.0456001,0.7909839 -5.0321497,0.7979974 -5.0181532,0.803847 -5.0037171,0.8085071 -4.9889463,0.8119609 -4.9739347,0.8141453 -4.9587845,0.814903 -4.9587845,0.814903 -4.9467299,0.814257 -4.9347342,0.8129317 -4.9228322,0.8109024 -4.9110985,0.8080774 -4.8996076,0.8043756 -4.8884303,0.7998194 -4.8776446,0.7943991 -4.8673064,0.7881673 -4.8574882,0.781146 -4.848283,0.7733361 -4.8398516,0.7647014 -4.8324291,0.7551805 -4.826295,0.7447917 -4.8216608,0.7336469 -4.8186258,0.7219656 -4.8173129,0.7099693 -4.8173129,0.7099693 -4.817846,0.7014093 -4.8194679,0.692986 -4.822154,0.6848425 -4.825923,0.6771371 -4.8305467,0.6699126 -4.8359105,0.6632197 -4.8419602,0.6571385 -4.8484318,0.6515086 -4.8484318,0.6515086 -4.8546408,0.6464618 -4.8603435,0.6408468 -4.8626524,0.6375701 -4.864292,0.6339016 -4.8652638,0.6259731 -4.8652638,0.6259731 -4.8647139,0.6213384 -4.8633382,0.6168792 -4.8610152,0.6128325 -4.857956,0.609308 -4.8542862,0.606426 -4.8500944,0.6043727 -4.8456073,0.6030972 -4.84096,0.6026546 -4.84096,0.6026546 -4.8349317,0.6033211 -4.8293261,0.6056472 -4.819612,0.612918 -4.819612,0.612918 -4.8093778,0.6223406 -4.7999388,0.6325543 -4.7914433,0.643571 -4.7841125,0.6553907 -4.7782643,0.6680108 -4.774051,0.6812643 -4.7714799,0.6949348 -4.7706758,0.7088198z" transform="matrix(1,0,0,-1,7.6835,2.8575)" fill="rgb(104,104,104)" fill-rule="nonzero" shaper:cutDepth="0.0000762" stroke-linecap="round" stroke-linejoin="round" /><path d="M-4.9124758,0.3638853 L-4.9124758,0.4943545 -4.817231,0.4943545 -4.817231,0.3161477 -4.817231,0.3161477 -4.8165616,0.3049425 -4.8151962,0.2994824 -4.8128727,0.2943716 -4.8093473,0.2899935 -4.8046585,0.2869164 -4.7992777,0.2853 -4.7936659,0.2849798 -4.7936659,0.2849798 -4.788364,0.2852783 -4.7832559,0.2867165 -4.7787062,0.2894354 -4.7751957,0.2934181 -4.772857,0.2981754 -4.7714785,0.3033109 -4.7706758,0.3138818 -4.7705937,0.5100859 -4.7705937,0.5100859 -4.7714518,0.5229248 -4.7732988,0.5290907 -4.7767619,0.5345087 -4.7792125,0.5366044 -4.7820173,0.5382028 -4.7881504,0.540171 -4.7945313,0.5410089 -4.8009735,0.5410738 -5.1173832,0.5409917 -5.1173832,0.5409917 -5.1238055,0.5411415 -5.1301879,0.5405196 -5.1363864,0.5388259 -5.1392537,0.5373736 -5.1417997,0.5354058 -5.1454934,0.5301722 -5.1474607,0.5240639 -5.1482146,0.5176888 -5.1482891,0.5112687 -5.1482891,0.3161477 -5.1482891,0.3161477 -5.1477427,0.3044786 -5.1465797,0.2987438 -5.1445247,0.2932759 -5.1412576,0.2884278 -5.1366719,0.2848282 -5.1311359,0.2829667 -5.1252989,0.2826808 -5.1252989,0.2826808 -5.1182783,0.2838432 -5.1118138,0.2867941 -5.1090433,0.2890561 -5.1067312,0.291762 -5.1033762,0.298035 -5.1033762,0.298035 -5.1021585,0.3017274 -5.1017716,0.3056025 -5.1016519,0.3133891 -5.1016519,0.4943545 -4.959113,0.4943545 -4.959113,0.366091 -4.959113,0.366091 -4.9585225,0.3549232 -4.9572643,0.3494685 -4.955111,0.3442997 -4.9516988,0.3398782 -4.9470758,0.3367341 -4.9417137,0.3351487 -4.9361228,0.3349013 -4.9361228,0.3349013 -4.9307453,0.3351888 -4.9255448,0.3365708 -4.9208756,0.3392388 -4.9172309,0.3431946 -4.914779,0.3479851 -4.9132982,0.3531643 -4.9124758,0.3638853z" transform="matrix(1,0,0,-1,7.6835,2.8575)" fill="rgb(104,104,104)" fill-rule="nonzero" shaper:cutDepth="0.0000762" stroke-linecap="round" stroke-linejoin="round" /><path d="M-5.4461033,2.6655772 L-5.4461033,2.6655772 -5.4466338,2.6553992 -5.4481475,2.6453195 -5.4505565,2.6354166 -5.4538026,2.6257545 -5.4577952,2.6163768 -5.4625225,2.6073468 -5.4679606,2.5987266 -5.47402,2.5905308 -5.47402,2.5905308 -5.4816192,2.5822642 -5.490003,2.5747901 -5.4989871,2.5680533 -5.5085008,2.5620864 -5.5184346,2.5568473 -5.5287163,2.5523293 -5.5392552,2.5484483 -5.5499899,2.545147 -5.5718937,2.540192 -5.5941221,2.5369938 -5.6165174,2.5352921 -5.6389743,2.5348617 -5.6389743,2.5348617 -5.6601824,2.5353637 -5.6813325,2.5369498 -5.70234,2.5399222 -5.7230373,2.5445504 -5.7432291,2.5510621 -5.7530304,2.5551162 -5.7625523,2.559793 -5.7717504,2.5650945 -5.7805309,2.5710549 -5.7966211,2.5848653 -5.7966211,2.5848653 -5.8037426,2.5932121 -5.8099823,2.6022367 -5.8154725,2.6117366 -5.8200288,2.6217171 -5.8237798,2.6320295 -5.8264973,2.6426575 -5.8283401,2.6534752 -5.8289716,2.6644277 -5.8289716,2.6644277 -5.8279128,2.6781236 -5.8251498,2.6915823 -5.8209734,2.704669 -5.8154517,2.7172496 -5.8087383,2.7292364 -5.8008866,2.7405088 -5.7919129,2.7509122 -5.7817596,2.7601653 -5.7817596,2.7601653 -5.7652447,2.7705406 -5.7475318,2.7787309 -5.7290938,2.7850956 -5.7101582,2.7898032 -5.6909375,2.793151 -5.6715511,2.7953647 -5.6520775,2.7965521 -5.6325699,2.7969495 -5.6325699,2.7969495 -5.6127419,2.7964043 -5.5929695,2.7948448 -5.5733466,2.7919471 -5.5539762,2.7876814 -5.5350207,2.7818378 -5.5167889,2.7740416 -5.508033,2.7693652 -5.4996052,2.7641291 -5.483955,2.7519545 -5.483955,2.7519545 -5.4758374,2.743018 -5.4686002,2.7333546 -5.4622652,2.723077 -5.4568521,2.7122851 -5.4524551,2.7010413 -5.4490608,2.6894552 -5.4469102,2.6775754 -5.4460213,2.6655358 -5.4461033,2.6655772z M-5.5118716,2.6200895 L-5.5118716,2.6200895 -5.5042484,2.6300869 -5.4983987,2.6412153 -5.4960721,2.6470579 -5.4943288,2.6530951 -5.4931396,2.6592693 -5.4926586,2.6655358 -5.4927405,2.6655772 -5.4927405,2.6655772 -5.4933187,2.6727341 -5.4947336,2.6797747 -5.4968759,2.6866291 -5.4995857,2.693279 -5.5066076,2.7057966 -5.5109889,2.7114864 -5.5158949,2.7167303 -5.5158949,2.7167303 -5.5281588,2.7264394 -5.5418944,2.7339522 -5.5564859,2.7396034 -5.571568,2.7437989 -5.5869232,2.7468338 -5.6024523,2.7488055 -5.6180712,2.749832 -5.6337194,2.7502303 -5.6337194,2.7502303 -5.6641475,2.7491814 -5.6793,2.7476831 -5.6943469,2.7453627 -5.7091955,2.7419902 -5.7236504,2.7372275 -5.737549,2.7309992 -5.7504766,2.7229705 -5.7504766,2.7229705 -5.7570899,2.7176389 -5.7630976,2.7116351 -5.7684468,2.7050351 -5.7730466,2.6978956 -5.7768826,2.6903138 -5.7797309,2.6823155 -5.7816738,2.6740433 -5.7823344,2.6655772 -5.7823344,2.6655772 -5.7817679,2.6581682 -5.7802894,2.6508855 -5.7779462,2.6438328 -5.7750032,2.6370092 -5.771443,2.6304857 -5.7672989,2.6243168 -5.7625892,2.6185684 -5.7573737,2.6132746 -5.7573737,2.6132746 -5.7444353,2.6038939 -5.7302038,2.5966092 -5.715177,2.5911537 -5.6996962,2.5871614 -5.6839464,2.5844061 -5.6680511,2.5826805 -5.6361006,2.5814989 -5.6361006,2.5814989 -5.6193927,2.5817924 -5.6027271,2.5829469 -5.5861604,2.5851445 -5.5697954,2.588511 -5.5538266,2.5934278 -5.538551,2.6001844 -5.5312775,2.6043104 -5.524351,2.6089945 -5.5118716,2.6200895z" transform="matrix(1,0,0,-1,7.6835,2.8575)" fill="rgb(104,104,104)" fill-rule="nonzero" shaper:cutDepth="0.0000762" stroke-linecap="round" stroke-linejoin="round" /><path d="M-5.9995582,2.6172979 L-5.9995582,2.7449754 -5.9043135,2.7449754 -5.9043135,2.5656335 -5.9043135,2.5656335 -5.9041953,2.5602171 -5.9034594,2.5548595 -5.9020054,2.549638 -5.8996784,2.5447547 -5.8961934,2.5406139 -5.8916216,2.5377332 -5.8864705,2.5360733 -5.8810768,2.5356007 -5.8810768,2.5356007 -5.8757281,2.5361777 -5.8706211,2.5378604 -5.8661551,2.540854 -5.8626617,2.5449373 -5.8603054,2.5497723 -5.8588643,2.5549583 -5.8577582,2.5656521 -5.8576762,2.7583013 -5.8576762,2.7583013 -5.8575427,2.7650344 -5.85836,2.7717126 -5.8605159,2.7780901 -5.864407,2.7835722 -5.8697851,2.7876114 -5.8760243,2.7901365 -5.8826447,2.7913504 -5.8893697,2.7916946 -6.2047611,2.7916126 -6.2047611,2.7916126 -6.2135124,2.791579 -6.2178703,2.7911821 -6.2220701,2.7899704 -6.2220701,2.7899704 -6.2276353,2.7862913 -6.2318602,2.7811297 -6.2344432,2.7749878 -6.2353716,2.7683761 -6.2353716,2.7683761 -6.2343795,2.7613612 -6.2332377,2.7579944 -6.2315432,2.7548694 -6.2267427,2.749688 -6.2203459,2.7466996 -6.2203459,2.7466996 -6.2166073,2.7454917 -6.2126942,2.7450941 -6.2048275,2.7449754 -6.0461955,2.7449754 -6.0461955,2.618982 -6.0461955,2.618982 -6.0459976,2.6095781 -6.0445533,2.6003016 -6.0445533,2.6003016 -6.0413413,2.5941642 -6.0390953,2.591523 -6.0363896,2.5893281 -6.0300616,2.5865293 -6.0232053,2.5855222 -6.0232053,2.5855222 -6.0175254,2.5858529 -6.0120911,2.5875235 -6.0074012,2.5907332 -6.0038816,2.5951944 -6.0016283,2.6004171 -6.0003012,2.6059548 -5.9995582,2.6172979z" transform="matrix(1,0,0,-1,7.6835,2.8575)" fill="rgb(104,104,104)" fill-rule="nonzero" shaper:cutDepth="0.0000762" stroke-linecap="round" stroke-linejoin="round" /><path d="M-6.4059582,2.6172979 L-6.4059582,2.7449754 -6.3107135,2.7449754 -6.3107135,2.5656335 -6.3107135,2.5656335 -6.3105953,2.5602171 -6.3098594,2.5548595 -6.3084054,2.549638 -6.3060784,2.5447547 -6.3025934,2.5406139 -6.2980216,2.5377332 -6.2928705,2.5360733 -6.2874768,2.5356007 -6.2874768,2.5356007 -6.2821281,2.5361777 -6.2770211,2.5378604 -6.2725551,2.540854 -6.2690617,2.5449373 -6.2667054,2.5497723 -6.2652643,2.5549583 -6.2641582,2.5656521 -6.2640762,2.7583013 -6.2640762,2.7583013 -6.2639427,2.7650344 -6.26476,2.7717126 -6.2669159,2.7780901 -6.270807,2.7835722 -6.2761851,2.7876114 -6.2824243,2.7901365 -6.2890447,2.7913504 -6.2957697,2.7916946 -6.6111611,2.7916126 -6.6111611,2.7916126 -6.6199124,2.791579 -6.6242703,2.7911821 -6.6284701,2.7899704 -6.6284701,2.7899704 -6.6340353,2.7862913 -6.6382602,2.7811297 -6.6408432,2.7749878 -6.6417716,2.7683761 -6.6417716,2.7683761 -6.6407795,2.7613612 -6.6396377,2.7579944 -6.6379432,2.7548694 -6.6331427,2.749688 -6.6267459,2.7466996 -6.6267459,2.7466996 -6.6230073,2.7454917 -6.6190942,2.7450941 -6.6112275,2.7449754 -6.4525955,2.7449754 -6.4525955,2.618982 -6.4525955,2.618982 -6.4523976,2.6095781 -6.4509533,2.6003016 -6.4509533,2.6003016 -6.4477413,2.5941642 -6.4454953,2.591523 -6.4427896,2.5893281 -6.4364616,2.5865293 -6.4296053,2.5855222 -6.4296053,2.5855222 -6.4239254,2.5858529 -6.4184911,2.5875235 -6.4138012,2.5907332 -6.4102816,2.5951944 -6.4080283,2.6004171 -6.4067012,2.6059548 -6.4059582,2.6172979z" transform="matrix(1,0,0,-1,7.6835,2.8575)" fill="rgb(104,104,104)" fill-rule="nonzero" shaper:cutDepth="0.0000762" stroke-linecap="round" stroke-linejoin="round" /><path d="M-7.303628,1.7434431 L-7.303628,1.7434431 -7.3064197,1.7412262 -7.3064197,1.7412262 -7.3134359,1.736687 -7.3174416,1.7354638 -7.3216096,1.7350682 -7.3216096,1.7350682 -7.3261466,1.7355328 -7.3304875,1.7369247 -7.3344528,1.7391744 -7.3378542,1.7422113 -7.3405859,1.7458615 -7.3425218,1.7499897 -7.3435925,1.7544217 -7.344025,1.7589615 -7.344025,1.7589615 -7.3434563,1.7655623 -7.3424206,1.7687251 -7.3407496,1.7715872 -7.3363066,1.7764977 -7.3310854,1.7805716 -7.1883489,1.8861485 -7.1883489,1.9363963 -7.3153694,1.9363963 -7.3153694,1.9363963 -7.3263834,1.9371602 -7.3317555,1.9384452 -7.3367921,1.9407026 -7.3411701,1.9440709 -7.3442429,1.9486412 -7.3457472,1.9539518 -7.3459956,1.9594685 -7.3459956,1.9594685 -7.3448949,1.9671575 -7.3435562,1.9708152 -7.3415988,1.974178 -7.3391231,1.9771853 -7.3360904,1.9796223 -7.3326558,1.9814562 -7.3289172,1.9825408 -7.3289172,1.9825408 -7.3210253,1.9831058 -7.3131038,1.9830335 -7.0010612,1.9831155 -7.0010612,1.9831155 -6.9940871,1.9830984 -6.9871909,1.9820755 -6.9807181,1.979493 -6.9752946,1.9751255 -6.9715248,1.9692677 -6.9693616,1.9626376 -6.9684267,1.9557301 -6.9683003,1.9487561 -6.9683823,1.8527285 -6.9683823,1.8527285 -6.9689226,1.8416085 -6.9702156,1.8305539 -6.9722834,1.8196126 -6.9753438,1.808912 -6.9794256,1.7985542 -6.984495,1.7886443 -6.9905764,1.7793205 -6.9976277,1.7707078 -7.0055111,1.7628479 -7.0142011,1.7558923 -7.0236319,1.7499792 -7.0336986,1.7452282 -7.0442033,1.7415469 -7.0550357,1.7389799 -7.0660624,1.7374574 -7.077175,1.7367924 -7.077175,1.7367924 -7.0869097,1.737228 -7.0965926,1.7383221 -7.1061448,1.7402437 -7.1155305,1.7428676 -7.1246117,1.7463958 -7.1333475,1.7507148 -7.141589,1.7559118 -7.1493595,1.7617916 -7.1565828,1.7683314 -7.1631113,1.7755648 -7.1689248,1.783385 -7.1740432,1.7916754 -7.1782799,1.8004511 -7.1817939,1.8095396 -7.1845696,1.8188799 -7.1866833,1.8283925 -7.303628,1.7434431z M-7.0149375,1.8509173 L-7.0149375,1.9363963 -7.1417117,1.9363963 -7.1417117,1.8550275 -7.1417117,1.8550275 -7.1416169,1.8456893 -7.1408845,1.8363798 -7.1389697,1.8272396 -7.1353072,1.8186538 -7.1353072,1.8186538 -7.1308263,1.8109872 -7.1252498,1.8040771 -7.1188297,1.7979435 -7.1115848,1.7928081 -7.1036917,1.7887404 -7.095313,1.7857986 -7.086609,1.7840441 -7.0777497,1.7834296 -7.0777497,1.7834296 -7.068767,1.7841405 -7.0599509,1.7860022 -7.0515385,1.7892299 -7.0436244,1.7935382 -7.0364037,1.7989282 -7.029982,1.8052488 -7.0245916,1.8124689 -7.0202744,1.8203781 -7.0202744,1.8203781 -7.0174197,1.8276569 -7.0157813,1.8353024 -7.0149375,1.8509173z" transform="matrix(1,0,0,-1,7.6835,2.8575)" fill="rgb(104,104,104)" fill-rule="nonzero" shaper:cutDepth="0.0000762" stroke-linecap="round" stroke-linejoin="round" /><path d="M-7.282937,1.6121969 L-7.3299846,1.6303808 -7.3299846,1.6303808 -7.3365752,1.6340666 -7.3394715,1.6365025 -7.3419372,1.6393702 -7.3438061,1.6426584 -7.3451107,1.6462091 -7.3459956,1.6536994 -7.3459956,1.6536994 -7.3456361,1.6582122 -7.3445618,1.6626064 -7.342798,1.6667758 -7.3402364,1.6705058 -7.336993,1.6736615 -7.33319,1.6761133 -7.3288932,1.6775322 -7.3244013,1.6780854 -7.3244013,1.6780854 -7.3200371,1.6777012 -7.3158227,1.6764804 -7.3075786,1.6734909 -6.9862818,1.5520501 -6.9862818,1.5520501 -6.9791416,1.5486016 -6.9759091,1.5463033 -6.9730627,1.5435382 -6.9707836,1.5402946 -6.9691824,1.5366661 -6.9683911,1.5327802 -6.9683823,1.5288136 -6.9683823,1.5288136 -6.96856,1.5240098 -6.9695539,1.5193048 -6.9715351,1.5149383 -6.9746658,1.5112882 -6.9784833,1.5083724 -6.982654,1.5059734 -6.9914481,1.5020946 -7.3115104,1.3795418 -7.3115104,1.3795418 -7.3178859,1.3780013 -7.3244013,1.3772428 -7.3244013,1.3772428 -7.3288871,1.377811 -7.3331496,1.3793155 -7.3369509,1.3817622 -7.3401681,1.3849392 -7.3427074,1.3886793 -7.3445227,1.3928224 -7.3456381,1.397202 -7.3459956,1.4017109 -7.3459956,1.4017109 -7.3459,1.4058062 -7.3450833,1.4098185 -7.3433474,1.4135268 -7.3409237,1.4168322 -7.3379577,1.4196493 -7.33457,1.4219636 -7.3271814,1.4254771 -7.282937,1.4419356 -7.282937,1.6121969z M-7.2362997,1.4606644 L-7.0590133,1.5276338 -7.2362997,1.5946032 -7.2362997,1.4606644z" transform="matrix(1,0,0,-1,7.6835,2.8575)" fill="rgb(104,104,104)" fill-rule="nonzero" shaper:cutDepth="0.0000762" stroke-linecap="round" stroke-linejoin="round" /><path d="M-7.3201317,1.2795346 L-6.9936386,1.2795346 -6.9936386,1.2795346 -6.9843733,1.2803775 -6.9798943,1.2816677 -6.9757449,1.2837724 -6.9722431,1.2868441 -6.9698851,1.2908486 -6.9686121,1.2953271 -6.9683823,1.2999794 -6.9683823,1.2999794 -6.969026,1.305258 -6.9708859,1.3102384 -6.9738889,1.3146237 -6.9777426,1.3182895 -6.9777426,1.3182895 -6.9818987,1.320037 -6.9863647,1.3207241 -6.9953957,1.320999 -7.3201057,1.320917 -7.3201057,1.320917 -7.3274132,1.3208977 -7.3310463,1.3205304 -7.3345005,1.3193569 -7.3345005,1.3193569 -7.3393598,1.3160087 -7.3429497,1.3113067 -7.3451496,1.3058279 -7.3459956,1.2999794 -7.3459956,1.2999794 -7.3453527,1.2947024 -7.3434952,1.2897245 -7.3406524,1.2852237 -7.3366353,1.2817515 -7.3366353,1.2817515 -7.3326494,1.2804594 -7.3285099,1.27979 -7.3201317,1.2795346z" transform="matrix(1,0,0,-1,7.6835,2.8575)" fill="rgb(104,104,104)" fill-rule="nonzero" shaper:cutDepth="0.0000762" stroke-linecap="round" stroke-linejoin="round" /><path d="M-6.9985979,1.0004505 L-7.2435002,1.0003686 -6.9844443,1.1697413 -6.9844443,1.1697413 -6.9783671,1.1743357 -6.9730304,1.1797577 -6.9709065,1.1829339 -6.9693768,1.1864376 -6.9683823,1.1939784 -6.9683823,1.1939784 -6.9693163,1.2005285 -6.9720984,1.2065211 -6.9763879,1.2115708 -6.9821764,1.2147516 -6.9821764,1.2147516 -6.9859594,1.2156166 -6.9898416,1.2158113 -6.9976126,1.2159011 -7.3155555,1.2158191 -7.3155555,1.2158191 -7.3251612,1.2156478 -7.3299269,1.2150559 -7.3345005,1.2136021 -7.3345005,1.2136021 -7.3393858,1.209785 -7.3430658,1.204796 -7.3452066,1.1989818 -7.3459956,1.1928289 -7.3459956,1.1928289 -7.3455493,1.1877775 -7.3442193,1.1828858 -7.3417599,1.1784536 -7.3382465,1.1748103 -7.3338742,1.1722333 -7.3291076,1.1705154 -7.3190643,1.1691819 -7.0702244,1.1691819 -7.3309959,1.0003686 -7.3309959,1.0003686 -7.3369019,0.9958493 -7.3417782,0.9902629 -7.3450643,0.9835874 -7.3459956,0.9762288 -7.3459956,0.9762288 -7.3456149,0.9713253 -7.3443066,0.9665867 -7.3419005,0.9623039 -7.3383659,0.9588881 -7.3340764,0.9564924 -7.3293909,0.954986 -7.319639,0.9538134 -6.9964535,0.9537313 -6.9964535,0.9537313 -6.9859938,0.9546126 -6.9809161,0.9559839 -6.976215,0.9583234 -6.9723635,0.961888 -6.9697633,0.9664479 -6.9685181,0.9715497 -6.9683823,0.9768035 -6.9683823,0.9768035 -6.9686766,0.982368 -6.969994,0.9877792 -6.9727424,0.9926137 -6.976956,0.9962484 -6.982042,0.9985093 -6.9874844,0.9997225 -6.9985979,1.0004505z" transform="matrix(1,0,0,-1,7.6835,2.8575)" fill="rgb(104,104,104)" fill-rule="nonzero" shaper:cutDepth="0.0000762" stroke-linecap="round" stroke-linejoin="round" /><path d="M-3.9634252,-0.79375 L-4.0396252,-0.79375 -4.0396252,2.69875 -3.9634252,2.69875 -3.9634252,-0.79375z" transform="matrix(1,0,0,-1,7.6835,2.8575)" fill="rgb(104,104,104)" fill-rule="nonzero" shaper:cutDepth="0.0000762" stroke-linecap="round" stroke-linejoin="round" /><path d="M-6.8199,1.4605 a0.7874,0.7874 0 1,0 1.5748,0 a0.7874,0.7874 0 1,0 -1.5748,0z M-6.7437,1.4605 a0.7112,0.7112 0 1,1 1.4224,0 a0.7112,0.7112 0 1,1 -1.4224,0z" transform="matrix(1,0,0,-1,7.6835,2.8575)" fill="rgb(104,104,104)" fill-rule="nonzero" shaper:cutDepth="0.0000762" stroke-linecap="round" stroke-linejoin="round" /><path d="M-6.946265,-0 a0.215265,0.215265 0 1,1 0.43053,0 a0.215265,0.215265 0 1,1 -0.43053,0z" transform="matrix(1,0,0,-1,7.6835,2.8575)" fill="rgb(255,255,255)" stroke="rgb(0,0,0)" stroke-width="0.0010cm" stroke-linecap="round" stroke-linejoin="round" shaper:cutDepth="0.0015875" /><path d="M6.706235,0.9525 a0.215265,0.215265 0 1,1 0.43053,0 a0.215265,0.215265 0 1,1 -0.43053,0z" transform="matrix(1,0,0,-1,7.6835,2.8575)" fill="rgb(255,255,255)" stroke="rgb(0,0,0)" stroke-width="0.0010cm" stroke-linecap="round" stroke-linejoin="round" shaper:cutDepth="0.0015875" /><path d="M-6.6675,1.4605 a0.635,0.635 0 1,1 1.27,0 a0.635,0.635 0 1,1 -1.27,0z" transform="matrix(1,0,0,-1,7.6835,2.8575)" fill="rgb(255,255,255)" stroke="rgb(0,0,0)" stroke-width="0.0010cm" stroke-linecap="round" stroke-linejoin="round" shaper:cutDepth="0.0015875" /></svg>