  0
SECTION
  2
HEADER
  9
$ACADVER
  1
AC1015
  9
$ACADMAINTVER
 70
     6
  9
$DWGCODEPAGE
  3
ANSI_1252
  9
$INSBASE
 10
0.0
 20
0.0
 30
0.0
  9
$EXTMIN
 10
0.0
 20
0.0
 30
0.0
  9
$EXTMAX
 10
0.3937007874
 20
0.5905511811
 30
0.0
  9
$LIMMIN
 10
0.0
 20
0.0
  9
$LIMMAX
 10
0.3937007874
 20
0.5905511811
  9
$ORTHOMODE
 70
     0
  9
$REGENMODE
 70
     1
  9
$FILLMODE
 70
     1
  9
$QTEXTMODE
 70
     0
  9
$MIRRTEXT
 70
     1
  9
$LTSCALE
 40
1.0
  9
$ATTMODE
 70
     1
  9
$TEXTSIZE
 40
0.1377952756
  9
$TRACEWID
 40
0.05
  9
$TEXTSTYLE
  7
Standard
  9
$CLAYER
  8
0
  9
$CELTYPE
  6
ByLayer
  9
$CECOLOR
 62
   256
  9
$CELTSCALE
 40
1.0
  9
$DISPSILH
 70
     0
  9
$DIMSCALE
 40
1.0
  9
$DIMASZ
 40
0.13
  9
$DIMEXO
 40
0.0393700787
  9
$DIMDLI
 40
0.38
  9
$DIMRND
 40
0.0
  9
$DIMDLE
 40
0.0
  9
$DIMEXE
 40
0.0393700787
  9
$DIMTP
 40
0.0
  9
$DIMTM
 40
0.0
  9
$DIMTXT
 40
0.1377952756
  9
$DIMCEN
 40
0.09
  9
$DIMTSZ
 40
0.0
  9
$DIMTOL
 70
     0
  9
$DIMLIM
 70
     0
  9
$DIMTIH
 70
     1
  9
$DIMTOH
 70
     1
  9
$DIMSE1
 70
     0
  9
$DIMSE2
 70
     0
  9
$DIMTAD
 70
     1
  9
$DIMZIN
 70
     1
  9
$DIMBLK
  1

  9
$DIMASO
 70
     1
  9
$DIMSHO
 70
     1
  9
$DIMPOST
  1

  9
$DIMAPOST
  1

  9
$DIMALT
 70
     0
  9
$DIMALTD
 70
     2
  9
$DIMALTF
 40
25.4
  9
$DIMLFAC
 40
0.5
  9
$DIMTOFL
 70
     0
  9
$DIMTVP
 40
0.0
  9
$DIMTIX
 70
     0
  9
$DIMSOXD
 70
     0
  9
$DIMSAH
 70
     0
  9
$DIMBLK1
  1

  9
$DIMBLK2
  1

  9
$DIMSTYLE
  2
Standard
  9
$DIMCLRD
 70
     0
  9
$DIMCLRE
 70
     0
  9
$DIMCLRT
 70
     0
  9
$DIMTFAC
 40
1.0
  9
$DIMGAP
 40
0.06
  9
$DIMJUST
 70
     0
  9
$DIMSD1
 70
     0
  9
$DIMSD2
 70
     0
  9
$DIMTOLJ
 70
     1
  9
$DIMTZIN
 70
     1
  9
$DIMALTZ
 70
     0
  9
$DIMALTTZ
 70
     0
  9
$DIMUPT
 70
     0
  9
$DIMDEC
 70
     2
  9
$DIMTDEC
 70
     2
  9
$DIMALTU
 70
     2
  9
$DIMALTTD
 70
     2
  9
$DIMTXSTY
  7
Standard
  9
$DIMAUNIT
 70
     0
  9
$DIMADEC
 70
     2
  9
$DIMALTRND
 40
0.0
  9
$DIMAZIN
 70
     0
  9
$DIMDSEP
 70
    46
  9
$DIMATFIT
 70
     3
  9
$DIMFRAC
 70
     0
  9
$DIMLDRBLK
  1

  9
$DIMLUNIT
 70
     2
  9
$DIMLWD
 70
    -2
  9
$DIMLWE
 70
    -2
  9
$DIMTMOVE
 70
     0
  9
$LUNITS
 70
     2
  9
$LUPREC
 70
     2
  9
$SKETCHINC
 40
0.1
  9
$FILLETRAD
 40
0.5
  9
$AUNITS
 70
     0
  9
$AUPREC
 70
     2
  9
$MENU
  1
.
  9
$ELEVATION
 40
0.0
  9
$PELEVATION
 40
0.0
  9
$THICKNESS
 40
0.0
  9
$LIMCHECK
 70
     0
  9
$CHAMFERA
 40
0.0
  9
$CHAMFERB
 40
0.0
  9
$CHAMFERC
 40
0.0
  9
$CHAMFERD
 40
0.0
  9
$SKPOLY
 70
     0
  9
$TDCREATE
 40
2459146.282425069
  9
$TDUCREATE
 40
2459145.824091736
  9
$TDUPDATE
 40
2459146.282426273
  9
$TDUUPDATE
 40
2459145.82409294
  9
$TDINDWG
 40
0.0000000116
  9
$TDUSRTIMER
 40
0.0000000116
  9
$USRTIMER
 70
     1
  9
$ANGBASE
 50
0.0
  9
$ANGDIR
 70
     0
  9
$PDMODE
 70
     0
  9
$PDSIZE
 40
-1.0
  9
$PLINEWID
 40
0.0
  9
$SPLFRAME
 70
     0
  9
$SPLINETYPE
 70
     6
  9
$SPLINESEGS
 70
     8
  9
$HANDSEED
  5
123
  9
$SURFTAB1
 70
     6
  9
$SURFTAB2
 70
     6
  9
$SURFTYPE
 70
     6
  9
$SURFU
 70
     6
  9
$SURFV
 70
     6
  9
$UCSBASE
  2

  9
$UCSNAME
  2

  9
$UCSORG
 10
0.0
 20
0.0
 30
0.0
  9
$UCSXDIR
 10
1.0
 20
0.0
 30
0.0
  9
$UCSYDIR
 10
0.0
 20
1.0
 30
0.0
  9
$UCSORTHOREF
  2

  9
$UCSORTHOVIEW
 70
     0
  9
$UCSORGTOP
 10
0.0
 20
0.0
 30
0.0
  9
$UCSORGBOTTOM
 10
0.0
 20
0.0
 30
0.0
  9
$UCSORGLEFT
 10
0.0
 20
0.0
 30
0.0
  9
$UCSORGRIGHT
 10
0.0
 20
0.0
 30
0.0
  9
$UCSORGFRONT
 10
0.0
 20
0.0
 30
0.0
  9
$UCSORGBACK
 10
0.0
 20
0.0
 30
0.0
  9
$PUCSBASE
  2

  9
$PUCSNAME
  2

  9
$PUCSORG
 10
0.0
 20
0.0
 30
0.0
  9
$PUCSXDIR
 10
1.0
 20
0.0
 30
0.0
  9
$PUCSYDIR
 10
0.0
 20
1.0
 30
0.0
  9
$PUCSORTHOREF
  2

  9
$PUCSORTHOVIEW
 70
     0
  9
$PUCSORGTOP
 10
0.0
 20
0.0
 30
0.0
  9
$PUCSORGBOTTOM
 10
0.0
 20
0.0
 30
0.0
  9
$PUCSORGLEFT
 10
0.0
 20
0.0
 30
0.0
  9
$PUCSORGRIGHT
 10
0.0
 20
0.0
 30
0.0
  9
$PUCSORGFRONT
 10
0.0
 20
0.0
 30
0.0
  9
$PUCSORGBACK
 10
0.0
 20
0.0
 30
0.0
  9
$USERI1
 70
     0
  9
$USERI2
 70
     0
  9
$USERI3
 70
     0
  9
$USERI4
 70
     0
  9
$USERI5
 70
     0
  9
$USERR1
 40
0.0
  9
$USERR2
 40
0.0
  9
$USERR3
 40
0.0
  9
$USERR4
 40
0.0
  9
$USERR5
 40
0.0
  9
$WORLDVIEW
 70
     1
  9
$SHADEDGE
 70
     3
  9
$SHADEDIF
 70
    70
  9
$TILEMODE
 70
     1
  9
$MAXACTVP
 70
    64
  9
$PINSBASE
 10
0.0
 20
0.0
 30
0.0
  9
$PLIMCHECK
 70
     0
  9
$PEXTMIN
 10
1.0000000000E+20
 20
1.0000000000E+20
 30
1.0000000000E+20
  9
$PEXTMAX
 10
-1.0000000000E+20
 20
-1.0000000000E+20
 30
-1.0000000000E+20
  9
$PLIMMIN
 10
0.0
 20
0.0
  9
$PLIMMAX
 10
12.0
 20
9.0
  9
$UNITMODE
 70
     0
  9
$VISRETAIN
 70
     1
  9
$PLINEGEN
 70
     0
  9
$PSLTSCALE
 70
     1
  9
$TREEDEPTH
 70
  3020
  9
$CMLSTYLE
  2
Standard
  9
$CMLJUST
 70
     0
  9
$CMLSCALE
 40
1.0
  9
$PROXYGRAPHICS
 70
     1
  9
$MEASUREMENT
 70
     0
  9
$CELWEIGHT
370
    -1
  9
$ENDCAPS
280
     0
  9
$JOINSTYLE
280
     0
  9
$LWDISPLAY
290
     1
  9
$INSUNITS
 70
     1
  9
$HYPERLINKBASE
  1

  9
$STYLESHEET
  1

  9
$XEDIT
290
     1
  9
$CEPSNTYPE
380
     0
  9
$PSTYLEMODE
290
     1
  9
$FINGERPRINTGUID
  2
{317a0983-02e9-4c9b-bfe8-f824e78a0ed9}
  9
$VERSIONGUID
  2
{FAEB1C32-E019-11D5-929B-00C0DF256EC4}
  9
$EXTNAMES
290
     1
  9
$PSVPSCALE
 40
0.0
  9
$OLESTARTUP
290
     0
  0
ENDSEC
  0
SECTION
  2
CLASSES
  0
CLASS
  1
ACDBDICTIONARYWDFLT
  2
AcDbDictionaryWithDefault
  3
ObjectDBX Classes
 90
        0
280
     0
281
     0
  0
CLASS
  1
VISUALSTYLE
  2
AcDbVisualStyle
  3
ObjectDBX Classes
 90
     4095
280
     0
281
     0
  0
CLASS
  1
MATERIAL
  2
AcDbMaterial
  3
ObjectDBX Classes
 90
     1153
280
     0
281
     0
  0
CLASS
  1
SCALE
  2
AcDbScale
  3
ObjectDBX Classes
 90
     1153
280
     0
281
     0
  0
CLASS
  1
TABLESTYLE
  2
AcDbTableStyle
  3
ObjectDBX Classes
 90
     4095
280
     0
281
     0
  0
CLASS
  1
MLEADERSTYLE
  2
AcDbMLeaderStyle
  3
ACDB_MLEADERSTYLE_CLASS
 90
     4095
280
     0
281
     0
  0
CLASS
  1
SUN
  2
AcDbSun
  3
SCENEOE
 90
     1153
280
     0
281
     0
  0
CLASS
  1
ACDBPLACEHOLDER
  2
AcDbPlaceHolder
  3
ObjectDBX Classes
 90
        0
280
     0
281
     0
  0
CLASS
  1
LAYOUT
  2
AcDbLayout
  3
ObjectDBX Classes
 90
        0
280
     0
281
     0
  0
ENDSEC
  0
SECTION
  2
TABLES
  0
TABLE
  2
VPORT
  5
8
330
0
100
AcDbSymbolTable
 70
     1
  0
VPORT
  5
29
330
8
100
AcDbSymbolTableRecord
100
AcDbViewportTableRecord
  2
*Active
 70
     0
 10
0.0
 20
0.0
 11
1.0
 21
1.0
 12
0.1968503937
 22
0.2952755906
 13
0.0
 23
0.0
 14
0.5
 24
0.5
 15
0.5
 25
0.5
 16
0.0
 26
0.0
 36
1.0
 17
0.0
 27
0.0
 37
0.0
 40
0.5905511811
 41
0.6666666667
 42
50.0
 43
0.0
 44
0.0
 50
0.0
 51
0.0
 71
     0
 72
  2000
 73
     1
 74
     3
 75
     0
 76
     0
 77
     0
 78
     0
281
     0
 65
     1
110
0.0
120
0.0
130
0.0
111
1.0
121
0.0
131
0.0
112
0.0
122
1.0
132
0.0
 79
     0
146
0.0
  0
ENDTAB
  0
TABLE
  2
LTYPE
  5
5
330
0
100
AcDbSymbolTable
 70
     6
  0
LTYPE
  5
14
330
5
100
AcDbSymbolTableRecord
100
AcDbLinetypeTableRecord
  2
ByBlock
 70
     0
  3

 72
    65
 73
     0
 40
0.0
  0
LTYPE
  5
15
330
5
100
AcDbSymbolTableRecord
100
AcDbLinetypeTableRecord
  2
ByLayer
 70
     0
  3

 72
    65
 73
     0
 40
0.0
  0
LTYPE
  5
16
330
5
100
AcDbSymbolTableRecord
100
AcDbLinetypeTableRecord
  2
Continuous
 70
     0
  3
Solid line
 72
    65
 73
     0
 40
0.0
  0
LTYPE
  5
6E
330
5
100
AcDbSymbolTableRecord
100
AcDbLinetypeTableRecord
  2
HIDDEN
 70
     0
  3
Hidden __ __ __ __ __ __ __ __ __ __ __ __ __ __
 72
    65
 73
     2
 40
0.075
 49
0.05
 74
     0
 49
-0.025
 74
     0
  0
LTYPE
  5
6F
330
5
100
AcDbSymbolTableRecord
100
AcDbLinetypeTableRecord
  2
PHANTOM
 70
     0
  3
Phantom ______  __  __  ______  __  __  ______
 72
    65
 73
     6
 40
0.5
 49
0.25
 74
     0
 49
-0.05
 74
     0
 49
0.05
 74
     0
 49
-0.05
 74
     0
 49
0.05
 74
     0
 49
-0.05
 74
     0
  0
LTYPE
  5
70
330
5
100
AcDbSymbolTableRecord
100
AcDbLinetypeTableRecord
  2
CENTER
 70
     0
  3
Center ____ _ ____ _ ____ _ ____ _ ____ _ ____
 72
    65
 73
     4
 40
0.4
 49
0.25
 74
     0
 49
-0.05
 74
     0
 49
0.05
 74
     0
 49
-0.05
 74
     0
  0
LTYPE
  5
71
330
5
100
AcDbSymbolTableRecord
100
AcDbLinetypeTableRecord
  2
CENTERX2
 70
     0
  3
Center (2x) ________  __  ________  __  _____
 72
    65
 73
     4
 40
0.8
 49
0.5
 74
     0
 49
-0.1
 74
     0
 49
0.1
 74
     0
 49
-0.1
 74
     0
  0
LTYPE
  5
72
330
5
100
AcDbSymbolTableRecord
100
AcDbLinetypeTableRecord
  2
DOT2
 70
     0
  3
Dot (.5x) ........................................
 72
    65
 73
     2
 40
0.025
 49
0.0
 74
     0
 49
-0.025
 74
     0
  0
ENDTAB
  0
TABLE
  2
LAYER
  5
2
330
0
100
AcDbSymbolTable
 70
     2
  0
LAYER
  5
10
330
2
100
AcDbSymbolTableRecord
100
AcDbLayerTableRecord
  2
0
 70
     0
 62
     7
  6
Continuous
370
    -3
390
F
  0
LAYER
  5
73
330
2
100
AcDbSymbolTableRecord
100
AcDbLayerTableRecord
  2
FORMAT
 70
     0
 62
     7
  6
Continuous
370
    -3
390
F
  0
ENDTAB
  0
TABLE
  2
STYLE
  5
3
330
0
100
AcDbSymbolTable
 70
     1
  0
STYLE
  5
11
330
3
100
AcDbSymbolTableRecord
100
AcDbTextStyleTableRecord
  2
Standard
 70
     0
 40
0.0
 41
1.0
 50
0.0
 71
     0
 42
0.1377952756
  3
txt
  4

  0
ENDTAB
  0
TABLE
  2
VIEW
  5
6
330
0
100
AcDbSymbolTable
 70
     0
  0
ENDTAB
  0
TABLE
  2
UCS
  5
7
330
0
100
AcDbSymbolTable
 70
     0
  0
ENDTAB
  0
TABLE
  2
APPID
  5
9
330
0
100
AcDbSymbolTable
 70
     1
  0
APPID
  5
12
330
9
100
AcDbSymbolTableRecord
100
AcDbRegAppTableRecord
  2
ACAD
 70
     0
  0
ENDTAB
  0
TABLE
  2
DIMSTYLE
  5
A
330
0
100
AcDbSymbolTable
 70
     1
100
AcDbDimStyleTable
  0
DIMSTYLE
105
27
330
A
100
AcDbSymbolTableRecord
100
AcDbDimStyleTableRecord
  2
Standard
 70
     0
178
     0
340
11
  0
ENDTAB
  0
TABLE
  2
BLOCK_RECORD
  5
1
330
0
100
AcDbSymbolTable
 70
     1
  0
BLOCK_RECORD
  5
1F
330
1
100
AcDbSymbolTableRecord
100
AcDbBlockTableRecord
  2
*Model_Space
340
22
  0
BLOCK_RECORD
  5
1B
330
1
100
AcDbSymbolTableRecord
100
AcDbBlockTableRecord
  2
*Paper_Space
340
1E
  0
BLOCK_RECORD
  5
23
330
1
100
AcDbSymbolTableRecord
100
AcDbBlockTableRecord
  2
*Paper_Space0
340
26
  0
ENDTAB
  0
ENDSEC
  0
SECTION
  2
BLOCKS
  0
BLOCK
  5
20
330
1F
100
AcDbEntity
  8
0
100
AcDbBlockBegin
  2
*Model_Space
 70
     0
 10
0.0
 20
0.0
 30
0.0
  3
*Model_Space
  1

  0
ENDBLK
  5
21
330
1F
100
AcDbEntity
  8
0
100
AcDbBlockEnd
  0
BLOCK
  5
1C
330
1B
100
AcDbEntity
 67
     1
  8
0
100
AcDbBlockBegin
  2
*Paper_Space
 70
     0
 10
0.0
 20
0.0
 30
0.0
  3
*Paper_Space
  1

  0
ENDBLK
  5
1D
330
1B
100
AcDbEntity
 67
     1
  8
0
100
AcDbBlockEnd
  0
BLOCK
  5
24
330
23
100
AcDbEntity
  8
0
100
AcDbBlockBegin
  2
*Paper_Space0
 70
     0
 10
0.0
 20
0.0
 30
0.0
  3
*Paper_Space0
  1

  0
ENDBLK
  5
25
330
23
100
AcDbEntity
  8
0
100
AcDbBlockEnd
  0
ENDSEC
  0
SECTION
  2
ENTITIES
  0
LINE
  5
74
330
1F
100
AcDbEntity
  8
0
  6
Continuous
 62
     7
100
AcDbLine
 10
0.0270910987
 20
0.2251169916
 30
0.0
 11
0.0270910987
 21
0.2887652856
 31
0.0
  0
LINE
  5
75
330
1F
100
AcDbEntity
  8
0
  6
Continuous
 62
     7
100
AcDbLine
 10
0.0270910987
 20
0.2251169916
 30
0.0
 11
0.1760412299
 21
0.2251169916
 31
0.0
  0
LINE
  5
76
330
1F
100
AcDbEntity
  8
0
  6
Continuous
 62
     7
100
AcDbLine
 10
0.1760412299
 20
0.2251169916
 30
0.0
 11
0.1760412299
 21
0.2887652856
 31
0.0
  0
LINE
  5
77
330
1F
100
AcDbEntity
  8
0
  6
Continuous
 62
     7
100
AcDbLine
 10
0.0270910987
 20
0.2887652856
 30
0.0
 11
0.1760412299
 21
0.2887652856
 31
0.0
  0
LINE
  5
78
330
1F
100
AcDbEntity
  8
0
  6
Continuous
 62
     7
370
    25
100
AcDbLine
 10
0.0763036971
 20
0.3045133171
 30
0.0
 11
0.0763036971
 21
0.3051694851
 31
0.0
  0
LINE
  5
79
330
1F
100
AcDbEntity
  8
0
  6
Continuous
 62
     7
370
    25
100
AcDbLine
 10
0.0526816499
 20
0.3051694851
 30
0.0
 11
0.0526816499
 21
0.3045133171
 31
0.0
  0
ARC
  5
7A
330
1F
100
AcDbEntity
  8
0
  6
Continuous
 62
     7
370
    25
100
AcDbCircle
 10
0.0730228572
 20
0.3051694851
 30
0.0
 40
0.0032808398950132
100
AcDbArc
 50
0.0
 51
90.0
  0
ARC
  5
7B
330
1F
100
AcDbEntity
  8
0
  6
Continuous
 62
     7
370
    25
100
AcDbCircle
 10
0.0559624898
 20
0.3051694851
 30
0.0
 40
0.0032808398950132
100
AcDbArc
 50
90.0
 51
180.0
  0
LINE
  5
7C
330
1F
100
AcDbEntity
  8
0
  6
Continuous
 62
     7
370
    25
100
AcDbLine
 10
0.0756475292
 20
0.214618304
 30
0.0
 11
0.0756475292
 21
0.2198676478
 31
0.0
  0
LINE
  5
7D
330
1F
100
AcDbEntity
  8
0
  6
Continuous
 62
     7
370
    25
100
AcDbLine
 10
0.0533378179
 20
0.2198676478
 30
0.0
 11
0.0533378179
 21
0.214618304
 31
0.0
  0
SPLINE
  5
7E
330
1F
100
AcDbEntity
  8
0
  6
Continuous
 62
     7
370
    25
100
AcDbSpline
210
0.0
220
0.0
230
1.0
 70
     8
 71
     3
 72
     9
 73
     5
 74
     0
 42
0.00000001
 43
0.00000001
 40
0.0
 40
0.0
 40
0.0
 40
0.0
 40
0.5202442164447223
 40
1.0
 40
1.0
 40
1.0
 40
1.0
 10
0.1582536891247511
 20
0.3566006313750898
 30
0.0
 10
0.1572961085054737
 20
0.357154482724517
 30
0.0
 10
0.1554554717640961
 20
0.3582190814877901
 30
0.0
 10
0.1536149467246684
 20
0.3592840210670082
 30
0.0
 10
0.1527319441922246
 20
0.359794931989275
 30
0.0
  0
SPLINE
  5
7F
330
1F
100
AcDbEntity
  8
0
  6
Continuous
 62
     7
370
    25
100
AcDbSpline
210
0.0
220
0.0
230
1.0
 70
     8
 71
     3
 72
     9
 73
     5
 74
     0
 42
0.00000001
 43
0.00000001
 40
0.0
 40
0.0
 40
0.0
 40
0.0
 40
0.5215690697964869
 40
0.9999999999999999
 40
0.9999999999999999
 40
0.9999999999999999
 40
0.9999999999999999
 10
0.1582373725044474
 20
0.3664518422673132
 30
0.0
 10
0.1572799106562575
 20
0.3670056207065142
 30
0.0
 10
0.155444177090685
 20
0.3680673754601408
 30
0.0
 10
0.1536087185038785
 20
0.3691294497909655
 30
0.0
 10
0.1527305783448426
 20
0.3696375790010072
 30
0.0
  0
SPLINE
  5
80
330
1F
100
AcDbEntity
  8
0
  6
Continuous
 62
     7
370
    25
100
AcDbSpline
210
0.0
220
0.0
230
1.0
 70
     8
 71
     3
 72
     9
 73
     5
 74
     0
 42
0.00000001
 43
0.00000001
 40
0.0
 40
0.0
 40
0.0
 40
0.0
 40
0.4999512255176028
 40
1.0
 40
1.0
 40
1.0
 40
1.0
 10
0.0722860609133063
 20
0.374692419502949
 30
0.0
 10
0.0713289681357361
 20
0.3741385524574909
 30
0.0
 10
0.0694145958355596
 20
0.3730307102977188
 30
0.0
 10
0.0675000184875017
 20
0.3719231922970679
 30
0.0
 10
0.0665426364309536
 20
0.3713693792781251
 30
0.0
  0
SPLINE
  5
81
330
1F
100
AcDbEntity
  8
0
  6
Continuous
 62
     7
370
    25
100
AcDbSpline
210
0.0
220
0.0
230
1.0
 70
     8
 71
     3
 72
     9
 73
     5
 74
     0
 42
0.00000001
 43
0.00000001
 40
0.0
 40
0.0
 40
0.0
 40
0.0
 40
0.4999540128152433
 40
1.0
 40
1.0
 40
1.0
 40
1.0
 10
0.0722767862606313
 20
0.364843924920859
 30
0.0
 10
0.0713198088732226
 20
0.3642901295422181
 30
0.0
 10
0.0694056780474293
 20
0.3631824369056044
 30
0.0
 10
0.0674913928026825
 20
0.3620750498648256
 30
0.0
 10
0.0665341621477199
 20
0.3615213054188238
 30
0.0
  0
SPLINE
  5
82
330
1F
100
AcDbEntity
  8
0
  6
Continuous
 62
     7
370
    25
100
AcDbSpline
210
0.0
220
0.0
230
1.0
 70
     8
 71
     3
 72
     9
 73
     5
 74
     0
 42
0.00000001
 43
0.00000001
 40
0.0
 40
0.0
 40
0.0
 40
0.0
 40
0.5191340162954668
 40
1.0
 40
1.0
 40
1.0
 40
1.0
 10
0.15825052823546
 20
0.3172329398266937
 30
0.0
 10
0.1572954806913866
 20
0.3177853584913025
 30
0.0
 10
0.1554557870591167
 20
0.3188494742056815
 30
0.0
 10
0.1536162543491379
 20
0.3199138872475032
 30
0.0
 10
0.1527316856429973
 20
0.3204257272719268
 30
0.0
  0
SPLINE
  5
83
330
1F
100
AcDbEntity
  8
0
  6
Continuous
 62
     7
370
    25
100
AcDbSpline
210
0.0
220
0.0
230
1.0
 70
     8
 71
     3
 72
     9
 73
     5
 74
     0
 42
0.00000001
 43
0.00000001
 40
0.0
 40
0.0
 40
0.0
 40
0.0
 40
0.5187986737742059
 40
1.0
 40
1.0
 40
1.0
 40
1.0
 10
0.1582521190857799
 20
0.3270737594168144
 30
0.0
 10
0.157297367943256
 20
0.3276260073016312
 30
0.0
 10
0.1554570564876038
 20
0.3286904816588981
 30
0.0
 10
0.1536169567212522
 20
0.3297552106997534
 30
0.0
 10
0.152731498273296
 20
0.3302675597262841
 30
0.0
  0
SPLINE
  5
84
330
1F
100
AcDbEntity
  8
0
  6
Continuous
 62
     7
370
    25
100
AcDbSpline
210
0.0
220
0.0
230
1.0
 70
     8
 71
     3
 72
     9
 73
     5
 74
     0
 42
0.00000001
 43
0.00000001
 40
0.0
 40
0.0
 40
0.0
 40
0.0
 40
0.5197738100057271
 40
1.0
 40
1.0
 40
1.0
 40
1.0
 10
0.1582442655745002
 20
0.3369211405404631
 30
0.0
 10
0.1572892059003181
 20
0.337473545053384
 30
0.0
 10
0.1554517534242659
 20
0.3385363237126526
 30
0.0
 10
0.1536145175695636
 20
0.3395994039472061
 30
0.0
 10
0.152732228794939
 20
0.3401099229179039
 30
0.0
  0
SPLINE
  5
85
330
1F
100
AcDbEntity
  8
0
  6
Continuous
 62
     7
370
    25
100
AcDbSpline
210
0.0
220
0.0
230
1.0
 70
     8
 71
     3
 72
     9
 73
     5
 74
     0
 42
0.00000001
 43
0.00000001
 40
0.0
 40
0.0
 40
0.0
 40
0.0
 40
0.5196112069987019
 40
1.0
 40
1.0
 40
1.0
 40
1.0
 10
0.1582477386740692
 20
0.3467625151463996
 30
0.0
 10
0.1572924292271634
 20
0.3473150447485316
 30
0.0
 10
0.1554539210617532
 20
0.3483783967214875
 30
0.0
 10
0.1536155538243137
 20
0.3494420860749697
 30
0.0
 10
0.152732422806027
 20
0.3499530705196173
 30
0.0
  0
SPLINE
  5
86
330
1F
100
AcDbEntity
  8
0
  6
Continuous
 62
     7
370
    25
100
AcDbSpline
210
0.0
220
0.0
230
1.0
 70
     8
 71
     3
 72
     9
 73
     5
 74
     0
 42
0.00000001
 43
0.00000001
 40
0.0
 40
0.0
 40
0.0
 40
0.0
 40
0.4999545704111115
 40
1.0
 40
1.0
 40
1.0
 40
1.0
 10
0.0723345590983674
 20
0.3550314386165492
 30
0.0
 10
0.0713802380679677
 20
0.3544790082619593
 30
0.0
 10
0.069471422573762
 20
0.353374047156922
 30
0.0
 10
0.067561902055891
 20
0.3522693871984143
 30
0.0
 10
0.0666070550482234
 20
0.3517170070349127
 30
0.0
  0
SPLINE
  5
87
330
1F
100
AcDbEntity
  8
0
  6
Continuous
 62
     7
370
    25
100
AcDbSpline
210
0.0
220
0.0
230
1.0
 70
     8
 71
     3
 72
     9
 73
     5
 74
     0
 42
0.00000001
 43
0.00000001
 40
0.0
 40
0.0
 40
0.0
 40
0.0
 40
0.4999558902448353
 40
1.0
 40
1.0
 40
1.0
 40
1.0
 10
0.0722493721881436
 20
0.3451439568495265
 30
0.0
 10
0.0712946728219126
 20
0.3445915471328855
 30
0.0
 10
0.0693851056283677
 20
0.343486630224375
 30
0.0
 10
0.0674754833936034
 20
0.3423820057028606
 30
0.0
 10
0.066520588043252
 20
0.3418296447173862
 30
0.0
  0
SPLINE
  5
88
330
1F
100
AcDbEntity
  8
0
  6
Continuous
 62
     7
370
    25
100
AcDbSpline
210
0.0
220
0.0
230
1.0
 70
     8
 71
     3
 72
     9
 73
     5
 74
     0
 42
0.00000001
 43
0.00000001
 40
0.0
 40
0.0
 40
0.0
 40
0.0
 40
0.499950168614085
 40
1.0
 40
1.0
 40
1.0
 40
1.0
 10
0.0722639523661383
 20
0.3353113588529996
 30
0.0
 10
0.0713090009767921
 20
0.334758811932217
 30
0.0
 10
0.0693989078329225
 20
0.3336536079429589
 30
0.0
 10
0.0674886909482692
 20
0.3325487343473902
 30
0.0
 10
0.0665334873171879
 20
0.3319962424922233
 30
0.0
  0
SPLINE
  5
89
330
1F
100
AcDbEntity
  8
0
  6
Continuous
 62
     7
370
    25
100
AcDbSpline
210
0.0
220
0.0
230
1.0
 70
     8
 71
     3
 72
     9
 73
     5
 74
     0
 42
0.00000001
 43
0.00000001
 40
0.0
 40
0.0
 40
0.0
 40
0.0
 40
0.499951916767929
 40
1.0
 40
1.0
 40
1.0
 40
1.0
 10
0.0722760311619558
 20
0.325475327094344
 30
0.0
 10
0.0713212172687521
 20
0.3249228499098316
 30
0.0
 10
0.0694114058225308
 20
0.3238177892710324
 30
0.0
 10
0.0675013286606053
 20
0.3227130473955763
 30
0.0
 10
0.0665461982369592
 20
0.3221606233382882
 30
0.0
  0
SPLINE
  5
8A
330
1F
100
AcDbEntity
  8
0
  6
Continuous
 62
     7
370
    25
100
AcDbSpline
210
0.0
220
0.0
230
1.0
 70
     8
 71
     3
 72
     9
 73
     5
 74
     0
 42
0.00000001
 43
0.00000001
 40
0.0
 40
0.0
 40
0.0
 40
0.0
 40
0.4999521480562834
 40
1.0
 40
1.0
 40
1.0
 40
1.0
 10
0.1525104540929391
 20
0.3202977195247785
 30
0.0
 10
0.1534652548655132
 20
0.3208502191431168
 30
0.0
 10
0.1553750391844449
 20
0.3219553241426378
 30
0.0
 10
0.1572850676170533
 20
0.3230601118991671
 30
0.0
 10
0.1582401732319306
 20
0.3236125586436732
 30
0.0
  0
SPLINE
  5
8B
330
1F
100
AcDbEntity
  8
0
  6
Continuous
 62
     7
370
    25
100
AcDbSpline
210
0.0
220
0.0
230
1.0
 70
     8
 71
     3
 72
     9
 73
     5
 74
     0
 42
0.00000001
 43
0.00000001
 40
0.0
 40
0.0
 40
0.0
 40
0.0
 40
0.4375088169720754
 40
1.0
 40
1.0
 40
1.0
 40
1.0
 10
0.1525149982604747
 20
0.3301422889885794
 30
0.0
 10
0.1533501806348624
 20
0.3306255680160237
 30
0.0
 10
0.1552591304479605
 20
0.3317301835316354
 30
0.0
 10
0.1571683460550212
 20
0.3328345182372499
 30
0.0
 10
0.158242263000492
 20
0.3334556967722697
 30
0.0
  0
SPLINE
  5
8C
330
1F
100
AcDbEntity
  8
0
  6
Continuous
 62
     7
370
    25
100
AcDbSpline
210
0.0
220
0.0
230
1.0
 70
     8
 71
     3
 72
     9
 73
     5
 74
     0
 42
0.00000001
 43
0.00000001
 40
0.0
 40
0.0
 40
0.0
 40
0.0
 40
0.4999531655809822
 40
1.0
 40
1.0
 40
1.0
 40
1.0
 10
0.1525218226797287
 20
0.339988187140768
 30
0.0
 10
0.153476686767146
 20
0.3405406815869976
 30
0.0
 10
0.1553865938407568
 20
0.3416457739921784
 30
0.0
 10
0.1572966631211923
 20
0.3427505559028182
 30
0.0
 10
0.1582517872183951
 20
0.3433029985999571
 30
0.0
  0
SPLINE
  5
8D
330
1F
100
AcDbEntity
  8
0
  6
Continuous
 62
     7
370
    25
100
AcDbSpline
210
0.0
220
0.0
230
1.0
 70
     8
 71
     3
 72
     9
 73
     5
 74
     0
 42
0.00000001
 43
0.00000001
 40
0.0
 40
0.0
 40
0.0
 40
0.0
 40
0.4999506903592023
 40
1.0
 40
1.0
 40
1.0
 40
1.0
 10
0.1525088984449817
 20
0.3498237434537883
 30
0.0
 10
0.153463789970039
 20
0.3503762657126504
 30
0.0
 10
0.1553737613801617
 20
0.3514814192198195
 30
0.0
 10
0.1572839905512709
 20
0.3525862458070383
 30
0.0
 10
0.1582391993295398
 20
0.3531387135792499
 30
0.0
  0
SPLINE
  5
8E
330
1F
100
AcDbEntity
  8
0
  6
Continuous
 62
     7
370
    25
100
AcDbSpline
210
0.0
220
0.0
230
1.0
 70
     8
 71
     3
 72
     9
 73
     5
 74
     0
 42
0.00000001
 43
0.00000001
 40
0.0
 40
0.0
 40
0.0
 40
0.0
 40
0.5187770952470344
 40
1.0
 40
1.0
 40
1.0
 40
1.0
 10
0.0665355040137832
 20
0.3580665642931547
 30
0.0
 10
0.06749057262501
 20
0.3575141337898149
 30
0.0
 10
0.0693315725842931
 20
0.3564492631384291
 30
0.0
 10
0.0711724079532309
 20
0.3553840964123668
 30
0.0
 10
0.0720582600966431
 20
0.354871513786405
 30
0.0
  0
SPLINE
  5
8F
330
1F
100
AcDbEntity
  8
0
  6
Continuous
 62
     7
370
    25
100
AcDbSpline
210
0.0
220
0.0
230
1.0
 70
     8
 71
     3
 72
     9
 73
     5
 74
     0
 42
0.00000001
 43
0.00000001
 40
0.0
 40
0.0
 40
0.0
 40
0.0
 40
0.5199622518915089
 40
1.0
 40
1.0
 40
1.0
 40
1.0
 10
0.0665471328245958
 20
0.3482180140030102
 30
0.0
 10
0.0675018452311828
 20
0.3476657871668699
 30
0.0
 10
0.0693379639169413
 20
0.3466037353849732
 30
0.0
 10
0.0711737561502476
 20
0.3455414397219709
 30
0.0
 10
0.0720550057199189
 20
0.3450314977040779
 30
0.0
  0
SPLINE
  5
90
330
1F
100
AcDbEntity
  8
0
  6
Continuous
 62
     7
370
    25
100
AcDbSpline
210
0.0
220
0.0
230
1.0
 70
     8
 71
     3
 72
     9
 73
     5
 74
     0
 42
0.00000001
 43
0.00000001
 40
0.0
 40
0.0
 40
0.0
 40
0.0
 40
0.5202658229242161
 40
0.9999999999999999
 40
0.9999999999999999
 40
0.9999999999999999
 40
0.9999999999999999
 10
0.066546326768832
 20
0.3383757851605752
 30
0.0
 10
0.0675014843654864
 20
0.3378233281895636
 30
0.0
 10
0.0693373873876875
 20
0.3367614537656269
 30
0.0
 10
0.0711730508890385
 20
0.3356992677384645
 30
0.0
 10
0.0720536814082472
 20
0.3351897007988223
 30
0.0
  0
SPLINE
  5
91
330
1F
100
AcDbEntity
  8
0
  6
Continuous
 62
     7
370
    25
100
AcDbSpline
210
0.0
220
0.0
230
1.0
 70
     8
 71
     3
 72
     9
 73
     5
 74
     0
 42
0.00000001
 43
0.00000001
 40
0.0
 40
0.0
 40
0.0
 40
0.0
 40
0.5192192486018457
 40
0.9999999999999999
 40
0.9999999999999999
 40
0.9999999999999999
 40
0.9999999999999999
 10
0.0665348243738986
 20
0.3285390281500749
 30
0.0
 10
0.0674899921621173
 20
0.3279865757370188
 30
0.0
 10
0.0693296153863925
 20
0.3269225697038379
 30
0.0
 10
0.0711690809667999
 20
0.3258582542410303
 30
0.0
 10
0.0720534606107192
 20
0.325346551853097
 30
0.0
  0
LINE
  5
92
330
1F
100
AcDbEntity
  8
0
  6
Continuous
 62
     7
370
    25
100
AcDbLine
 10
0.1583246945
 20
0.3734109549
 30
0.0
 11
0.1530753507
 21
0.3786602987
 31
0.0
  0
LINE
  5
93
330
1F
100
AcDbEntity
  8
0
  6
Continuous
 62
     7
370
    25
100
AcDbLine
 10
0.0717105213
 20
0.3786602987
 30
0.0
 11
0.0692694638
 21
0.3762192412
 31
0.0
  0
LINE
  5
94
330
1F
100
AcDbEntity
  8
0
  6
Continuous
 62
     7
370
    25
100
AcDbLine
 10
0.0664611775
 20
0.322065444
 30
0.0
 11
0.0664611775
 21
0.3150120047
 31
0.0
  0
LINE
  5
95
330
1F
100
AcDbEntity
  8
0
  6
Continuous
 62
     7
370
    25
100
AcDbLine
 10
0.0664611775
 20
0.3319079659
 30
0.0
 11
0.0664611775
 21
0.3286278546
 31
0.0
  0
LINE
  5
96
330
1F
100
AcDbEntity
  8
0
  6
Continuous
 62
     7
370
    25
100
AcDbLine
 10
0.0664611775
 20
0.34175048
 30
0.0
 11
0.0664611775
 21
0.338470379
 31
0.0
  0
LINE
  5
97
330
1F
100
AcDbEntity
  8
0
  6
Continuous
 62
     7
370
    25
100
AcDbLine
 10
0.0664611775
 20
0.3515932475
 30
0.0
 11
0.0664611775
 21
0.3483129011
 31
0.0
  0
LINE
  5
98
330
1F
100
AcDbEntity
  8
0
  6
Continuous
 62
     7
370
    25
100
AcDbLine
 10
0.0664611775
 20
0.3614347462
 30
0.0
 11
0.0664611775
 21
0.3581559781
 31
0.0
  0
LINE
  5
99
330
1F
100
AcDbEntity
  8
0
  6
Continuous
 62
     7
370
    25
100
AcDbLine
 10
0.0664611775
 20
0.3712773424
 30
0.0
 11
0.0664611775
 21
0.3680001547
 31
0.0
  0
LINE
  5
9A
330
1F
100
AcDbEntity
  8
0
  6
Continuous
 62
     7
370
    25
100
AcDbLine
 10
0.1583246945
 20
0.3729214752
 30
0.0
 11
0.1583246945
 21
0.3734109549
 31
0.0
  0
LINE
  5
9B
330
1F
100
AcDbEntity
  8
0
  6
Continuous
 62
     7
370
    25
100
AcDbLine
 10
0.1583246945
 20
0.3630769011
 30
0.0
 11
0.1583246945
 21
0.3663565484
 31
0.0
  0
LINE
  5
9C
330
1F
100
AcDbEntity
  8
0
  6
Continuous
 62
     7
370
    25
100
AcDbLine
 10
0.1583246945
 20
0.3532341547
 30
0.0
 11
0.1583246945
 21
0.3565140828
 31
0.0
  0
LINE
  5
9D
330
1F
100
AcDbEntity
  8
0
  6
Continuous
 62
     7
370
    25
100
AcDbLine
 10
0.1583246945
 20
0.3433916332
 30
0.0
 11
0.1583246945
 21
0.3466717443
 31
0.0
  0
LINE
  5
9E
330
1F
100
AcDbEntity
  8
0
  6
Continuous
 62
     7
370
    25
100
AcDbLine
 10
0.1583246945
 20
0.3335491186
 30
0.0
 11
0.1583246945
 21
0.3368292201
 31
0.0
  0
LINE
  5
9F
330
1F
100
AcDbEntity
  8
0
  6
Continuous
 62
     7
370
    25
100
AcDbLine
 10
0.1583246945
 20
0.3237063586
 30
0.0
 11
0.1583246945
 21
0.326986698
 31
0.0
  0
LINE
  5
A0
330
1F
100
AcDbEntity
  8
0
  6
Continuous
 62
     7
370
    25
100
AcDbLine
 10
0.1583246945
 20
0.3150120047
 30
0.0
 11
0.1583246945
 21
0.3171436978
 31
0.0
  0
SPLINE
  5
A1
330
1F
100
AcDbEntity
  8
0
  6
Continuous
 62
     7
370
    25
100
AcDbSpline
210
0.0
220
0.0
230
1.0
 70
     8
 71
     3
 72
     9
 73
     5
 74
     0
 42
0.00000001
 43
0.00000001
 40
0.0
 40
0.0
 40
0.0
 40
0.0
 40
0.4999506423388329
 40
1.0
 40
1.0
 40
1.0
 40
1.0
 10
0.1525018267189846
 20
0.3596617907241474
 30
0.0
 10
0.1534644100394738
 20
0.3602187625463319
 30
0.0
 10
0.1553897667426597
 20
0.3613328161648628
 30
0.0
 10
0.1573153995452997
 20
0.3624465399097522
 30
0.0
 10
0.1582783109913512
 20
0.3630034567529961
 30
0.0
  0
SPLINE
  5
A2
330
1F
100
AcDbEntity
  8
0
  6
Continuous
 62
     7
370
    25
100
AcDbSpline
210
0.0
220
0.0
230
1.0
 70
     8
 71
     3
 72
     9
 73
     5
 74
     0
 42
0.00000001
 43
0.00000001
 40
0.0
 40
0.0
 40
0.0
 40
0.0
 40
0.4999538109843287
 40
1.0
 40
1.0
 40
1.0
 40
1.0
 10
0.1525180690450405
 20
0.3695146159612125
 30
0.0
 10
0.1534805079929136
 20
0.3700715389464232
 30
0.0
 10
0.1554055637215183
 20
0.3711854878212487
 30
0.0
 10
0.1573307590022597
 20
0.3722991280256441
 30
0.0
 10
0.1582934455655054
 20
0.3728559995657866
 30
0.0
  0
SPLINE
  5
A3
330
1F
100
AcDbEntity
  8
0
  6
Continuous
 62
     7
370
    25
100
AcDbSpline
210
0.0
220
0.0
230
1.0
 70
     8
 71
     3
 72
     9
 73
     5
 74
     0
 42
0.00000001
 43
0.00000001
 40
0.0
 40
0.0
 40
0.0
 40
0.0
 40
0.0325357784090066
 40
0.9999999999999999
 40
0.9999999999999999
 40
0.9999999999999999
 40
0.9999999999999999
 10
0.0692932282317977
 20
0.3761576436180108
 30
0.0
 10
0.0693231912214236
 20
0.3761403119646351
 30
0.0
 10
0.0702441155420033
 20
0.375607616752679
 30
0.0
 10
0.0711649812573742
 20
0.3750747531613075
 30
0.0
 10
0.0720558858898854
 20
0.3745592267016671
 30
0.0
  0
SPLINE
  5
A4
330
1F
100
AcDbEntity
  8
0
  6
Continuous
 62
     7
370
    25
100
AcDbSpline
210
0.0
220
0.0
230
1.0
 70
     8
 71
     3
 72
     9
 73
     5
 74
     0
 42
0.00000001
 43
0.00000001
 40
0.0
 40
0.0
 40
0.0
 40
0.0
 40
0.5203540583834291
 40
1.0
 40
1.0
 40
1.0
 40
1.0
 10
0.0665081733635269
 20
0.3679277938726192
 30
0.0
 10
0.0674707959597235
 20
0.3673709697872212
 30
0.0
 10
0.0693207336717251
 20
0.3663008828407911
 30
0.0
 10
0.0711704088726
 20
0.3652304964478026
 30
0.0
 10
0.0720575980760085
 20
0.3647170899584442
 30
0.0
  0
LINE
  5
A5
330
1F
100
AcDbEntity
  8
0
  6
Continuous
 62
     7
370
    25
100
AcDbLine
 10
0.0730228572
 20
0.5709175165
 30
0.0
 11
0.0730228572
 21
0.3806288026
 31
0.0
  0
LINE
  5
A6
330
1F
100
AcDbEntity
  8
0
  6
Continuous
 62
     7
370
    25
100
AcDbLine
 10
0.1517630147
 20
0.3806288026
 30
0.0
 11
0.1517630147
 21
0.4199988814
 31
0.0
  0
LINE
  5
A7
330
1F
100
AcDbEntity
  8
0
  6
Continuous
 62
     7
370
    25
100
AcDbLine
 10
0.079584537
 20
0.5774791963
 30
0.0
 11
0.0730228572
 21
0.5709175165
 31
0.0
  0
LINE
  5
A8
330
1F
100
AcDbEntity
  8
0
  6
Continuous
 62
     7
370
    25
100
AcDbLine
 10
0.0119992352
 20
0.1398151543
 30
0.0
 11
0.0159362431
 21
0.1398151543
 31
0.0
  0
LINE
  5
A9
330
1F
100
AcDbEntity
  8
0
  6
Continuous
 62
     7
370
    25
100
AcDbLine
 10
0.0789283691
 20
0.3806288026
 30
0.0
 11
0.0789283691
 21
0.3786602987
 31
0.0
  0
LINE
  5
AA
330
1F
100
AcDbEntity
  8
0
  6
Continuous
 62
     7
370
    25
100
AcDbLine
 10
0.1458575029
 20
0.3786602987
 30
0.0
 11
0.1458575029
 21
0.3806288026
 31
0.0
  0
LINE
  5
AB
330
1F
100
AcDbEntity
  8
0
  6
Continuous
 62
     7
370
    25
100
AcDbLine
 10
0.0119827786
 20
0.1398151543
 30
0.0
 11
0.0119992352
 21
0.1398151543
 31
0.0
  0
LINE
  5
AC
330
1F
100
AcDbEntity
  8
0
  6
Continuous
 62
     7
370
    25
100
AcDbLine
 10
0.0159362431
 20
0.1398151543
 30
0.0
 11
0.0159526997
 21
0.1398151543
 31
0.0
  0
SPLINE
  5
AD
330
1F
100
AcDbEntity
  8
0
  6
Continuous
 62
     7
370
    25
100
AcDbSpline
210
0.0
220
0.0
230
1.0
 70
    24
 71
     3
 72
    10
 73
     6
 74
     0
 42
0.00000001
 43
0.00000001
 40
0.0
 40
0.0
 40
0.0
 40
0.0
 40
0.5
 40
0.5
 40
1.0
 40
1.0
 40
1.0
 40
1.0
 10
0.1058312561947584
 20
0.1669828544215604
 30
0.0
 10
0.1058312561947584
 20
0.1661438916592412
 30
0.0
 10
0.1058312561947584
 20
0.1650945933400949
 30
0.0
 10
0.1058312561947585
 20
0.162949760647943
 30
0.0
 10
0.1058312561947585
 20
0.1618592169557302
 30
0.0
 10
0.1058312561947585
 20
0.1609451225144987
 30
0.0
  0
SPLINE
  5
AE
330
1F
100
AcDbEntity
  8
0
  6
Continuous
 62
     7
370
    25
100
AcDbSpline
210
0.0
220
0.0
230
1.0
 70
    24
 71
     3
 72
    10
 73
     6
 74
     0
 42
0.00000001
 43
0.00000001
 40
0.0
 40
0.0
 40
0.0
 40
0.0
 40
0.5
 40
0.5
 40
1.0
 40
1.0
 40
1.0
 40
1.0
 10
0.1189546157748085
 20
0.1609451225144989
 30
0.0
 10
0.1189546157748085
 20
0.1618592169557303
 30
0.0
 10
0.1189546157748085
 20
0.162949760647943
 30
0.0
 10
0.1189546157748085
 20
0.1650945933400951
 30
0.0
 10
0.1189546157748085
 20
0.1661438916592413
 30
0.0
 10
0.1189546157748084
 20
0.1669828544215606
 30
0.0
  0
SPLINE
  5
AF
330
1F
100
AcDbEntity
  8
0
  6
Continuous
 62
     7
370
    25
100
AcDbSpline
210
0.0
220
0.0
230
1.0
 70
     8
 71
     3
 72
    16
 73
    12
 74
     0
 42
0.00000001
 43
0.00000001
 40
0.0
 40
0.0
 40
0.0
 40
0.0
 40
0.0795967564407339
 40
0.1592228021818887
 40
0.240129070527454
 40
0.3686016048457008
 40
0.5000688888697686
 40
0.6285427552727628
 40
0.7600114017983205
 40
0.8792821052686293
 40
1.0
 40
1.0
 40
1.0
 40
1.0
 10
0.1123929359847821
 20
0.1417836582808909
 30
0.0
 10
0.1126662376620028
 20
0.1417919748717494
 30
0.0
 10
0.1132129415835436
 20
0.1418086111137307
 30
0.0
 10
0.114024255342561
 20
0.1419459607743674
 30
0.0
 10
0.1149702066608473
 20
0.142203743327863
 30
0.0
 10
0.1160175877700092
 20
0.1426637900012575
 30
0.0
 10
0.1170566239966211
 20
0.1433857860655788
 30
0.0
 10
0.1179159639896632
 20
0.1442748374351319
 30
0.0
 10
0.1185132371672853
 20
0.1452655421276867
 30
0.0
 10
0.1188906112596106
 20
0.1463112304688352
 30
0.0
 10
0.1189331953388604
 20
0.1470132139812587
 30
0.0
 10
0.1189546157748087
 20
0.1473663223055327
 30
0.0
  0
SPLINE
  5
B0
330
1F
100
AcDbEntity
  8
0
  6
Continuous
 62
     7
370
    25
100
AcDbSpline
210
0.0
220
0.0
230
1.0
 70
     8
 71
     3
 72
    16
 73
    12
 74
     0
 42
0.00000001
 43
0.00000001
 40
0.0
 40
0.0
 40
0.0
 40
0.0
 40
0.0795967564401447
 40
0.1592228021812885
 40
0.2401290705274541
 40
0.3686016048456729
 40
0.5000688888697249
 40
0.6285427552726814
 40
0.7600114017982736
 40
0.8792821052678921
 40
0.9999999999999999
 40
0.9999999999999999
 40
0.9999999999999999
 40
0.9999999999999999
 10
0.1058312561947588
 20
0.1473663223055326
 30
0.0
 10
0.1058410312422841
 20
0.1471337977858801
 30
0.0
 10
0.1058605849342693
 20
0.1466686631842866
 30
0.0
 10
0.1060220212106433
 20
0.1459783990628852
 30
0.0
 10
0.1063250103506035
 20
0.1451735855756877
 30
0.0
 10
0.1068657340885842
 20
0.1442824758255414
 30
0.0
 10
0.1077143445302706
 20
0.1433984658847597
 30
0.0
 10
0.1087593062865458
 20
0.1426673411396331
 30
0.0
 10
0.1099237480172855
 20
0.1421591823162406
 30
0.0
 10
0.111152815721248
 20
0.1418381131942411
 30
0.0
 10
0.1119779040672504
 20
0.1418018827448977
 30
0.0
 10
0.1123929359847821
 20
0.1417836582808909
 30
0.0
  0
LINE
  5
B1
330
1F
100
AcDbEntity
  8
0
  6
Continuous
 62
     7
370
    25
100
AcDbLine
 10
0.1058312562
 20
0.1609451225
 30
0.0
 11
0.1058312562
 21
0.1473663223
 31
0.0
  0
LINE
  5
B2
330
1F
100
AcDbEntity
  8
0
  6
Continuous
 62
     7
370
    25
100
AcDbLine
 10
0.1189546158
 20
0.1473663223
 30
0.0
 11
0.1189546158
 21
0.1609451225
 31
0.0
  0
LINE
  5
B3
330
1F
100
AcDbEntity
  8
0
  6
Continuous
 62
     7
370
    25
100
AcDbLine
 10
0.1058312562
 20
0.1772167291
 30
0.0
 11
0.1058312562
 21
0.1669828544
 31
0.0
  0
LINE
  5
B4
330
1F
100
AcDbEntity
  8
0
  6
Continuous
 62
     7
370
    25
100
AcDbLine
 10
0.1189546158
 20
0.1669828544
 30
0.0
 11
0.1189546158
 21
0.1772167291
 31
0.0
  0
LINE
  5
B5
330
1F
100
AcDbEntity
  8
0
  6
Continuous
 62
     7
370
    25
100
AcDbLine
 10
0.0933640646
 20
0.1877154168
 30
0.0
 11
0.1018942483
 21
0.1877154168
 31
0.0
  0
LINE
  5
B6
330
1F
100
AcDbEntity
  8
0
  6
Continuous
 62
     7
370
    25
100
AcDbLine
 10
0.0933640646
 20
0.2198676478
 30
0.0
 11
0.0933640646
 21
0.1877154168
 31
0.0
  0
LINE
  5
B7
330
1F
100
AcDbEntity
  8
0
  6
Continuous
 62
     7
370
    25
100
AcDbLine
 10
0.1314218074
 20
0.1877154168
 30
0.0
 11
0.1314218074
 21
0.2198676478
 31
0.0
  0
LINE
  5
B8
330
1F
100
AcDbEntity
  8
0
  6
Continuous
 62
     7
370
    25
100
AcDbLine
 10
0.1228916236
 20
0.1877154168
 30
0.0
 11
0.1314218074
 21
0.1877154168
 31
0.0
  0
LINE
  5
B9
330
1F
100
AcDbEntity
  8
0
  6
Continuous
 62
     7
370
    25
100
AcDbLine
 10
0.1228916236
 20
0.1883715848
 30
0.0
 11
0.1228916236
 21
0.1877154168
 31
0.0
  0
SPLINE
  5
BA
330
1F
100
AcDbEntity
  8
0
  6
Continuous
 62
     7
370
    25
100
AcDbSpline
210
0.0
220
0.0
230
1.0
 70
     8
 71
     3
 72
    16
 73
    12
 74
     0
 42
0.00000001
 43
0.00000001
 40
0.0
 40
0.0
 40
0.0
 40
0.0
 40
0.0837940722535477
 40
0.1653238990834641
 40
0.2505321499157378
 40
0.3739473273106932
 40
0.5003272590728101
 40
0.6237184785997058
 40
0.7500829724065206
 40
0.874249693291471
 40
1.0
 40
1.0
 40
1.0
 40
1.0
 10
0.1189546157748118
 20
0.1883715847900679
 30
0.0
 10
0.1189662028754167
 20
0.1885443019317669
 30
0.0
 10
0.1189890639752484
 20
0.1888850691308814
 30
0.0
 10
0.1191965524696366
 20
0.1893661586129242
 30
0.0
 10
0.1195632006267997
 20
0.1898406222941359
 30
0.0
 10
0.1201430068499195
 20
0.1902477080658209
 30
0.0
 10
0.1209166230807097
 20
0.1903858455696894
 30
0.0
 10
0.1216981238910553
 20
0.1902494223224822
 30
0.0
 10
0.1223404797766184
 20
0.1897989792388095
 30
0.0
 10
0.1228145408433378
 20
0.1891520266119403
 30
0.0
 10
0.1228658210688643
 20
0.1886328286872807
 30
0.0
 10
0.1228916236488251
 20
0.1883715847900679
 30
0.0
  0
LINE
  5
BB
330
1F
100
AcDbEntity
  8
0
  6
Continuous
 62
     7
370
    25
100
AcDbLine
 10
0.1018942483
 20
0.1877154168
 30
0.0
 11
0.1018942483
 21
0.1883715848
 31
0.0
  0
SPLINE
  5
BC
330
1F
100
AcDbEntity
  8
0
  6
Continuous
 62
     7
370
    25
100
AcDbSpline
210
0.0
220
0.0
230
1.0
 70
     8
 71
     3
 72
    16
 73
    12
 74
     0
 42
0.00000001
 43
0.00000001
 40
0.0
 40
0.0
 40
0.0
 40
0.0
 40
0.0837940722537375
 40
0.1653238990837975
 40
0.2505321499162328
 40
0.3739473273113844
 40
0.5003272590737768
 40
0.6237184786008513
 40
0.7500829724077477
 40
0.8742496932916898
 40
0.9999999999999999
 40
0.9999999999999999
 40
0.9999999999999999
 40
0.9999999999999999
 10
0.1018942483207418
 20
0.1883715847900676
 30
0.0
 10
0.1019058354213468
 20
0.1885443019317672
 30
0.0
 10
0.1019286965211785
 20
0.1888850691308827
 30
0.0
 10
0.1021361850155679
 20
0.1893661586129267
 30
0.0
 10
0.1025028331727329
 20
0.1898406222941387
 30
0.0
 10
0.1030826393958553
 20
0.1902477080658235
 30
0.0
 10
0.1038562556266481
 20
0.1903858455696891
 30
0.0
 10
0.1046377564369947
 20
0.1902494223224794
 30
0.0
 10
0.1052801123225569
 20
0.189798979238807
 30
0.0
 10
0.1057541733892729
 20
0.1891520266119379
 30
0.0
 10
0.1058054536147982
 20
0.1886328286872804
 30
0.0
 10
0.1058312561947584
 20
0.1883715847900677
 30
0.0
  0
LINE
  5
BD
330
1F
100
AcDbEntity
  8
0
  6
Continuous
 62
     7
370
    25
100
AcDbLine
 10
0.1058312562
 20
0.1883715848
 30
0.0
 11
0.1058312562
 21
0.1772167291
 31
0.0
  0
LINE
  5
BE
330
1F
100
AcDbEntity
  8
0
  6
Continuous
 62
     7
370
    25
100
AcDbLine
 10
0.1189546158
 20
0.1772167291
 30
0.0
 11
0.1189546158
 21
0.1883715848
 31
0.0
  0
SPLINE
  5
BF
330
1F
100
AcDbEntity
  8
0
  6
Continuous
 62
     7
370
    25
100
AcDbSpline
210
0.0
220
0.0
230
1.0
 70
    24
 71
     3
 72
    10
 73
     6
 74
     0
 42
0.00000001
 43
0.00000001
 40
0.0
 40
0.0
 40
0.0
 40
0.0
 40
0.5
 40
0.5
 40
1.0
 40
1.0
 40
1.0
 40
1.0
 10
0.0933640645937077
 20
0.2251169916142223
 30
0.0
 10
0.0933640645937077
 20
0.2251169916142223
 30
0.0
 10
0.0933640645937077
 20
0.2245512535754479
 30
0.0
 10
0.0933640645937077
 20
0.2226077352298533
 30
0.0
 10
0.0933640645937077
 20
0.2212419227838835
 30
0.0
 10
0.0933640645937077
 20
0.2198676477823357
 30
0.0
  0
LINE
  5
C0
330
1F
100
AcDbEntity
  8
0
  6
Continuous
 62
     7
370
    25
100
AcDbLine
 10
0.0933640646
 20
0.2251169916
 30
0.0
 11
0.1314218074
 21
0.2251169916
 31
0.0
  0
SPLINE
  5
C1
330
1F
100
AcDbEntity
  8
0
  6
Continuous
 62
     7
370
    25
100
AcDbSpline
210
0.0
220
0.0
230
1.0
 70
    24
 71
     3
 72
    10
 73
     6
 74
     0
 42
0.00000001
 43
0.00000001
 40
0.0
 40
0.0
 40
0.0
 40
0.0
 40
0.5
 40
0.5
 40
1.0
 40
1.0
 40
1.0
 40
1.0
 10
0.1314218073758578
 20
0.2198676477823361
 30
0.0
 10
0.1314218073758578
 20
0.2212419227838839
 30
0.0
 10
0.1314218073758578
 20
0.2226077352298537
 30
0.0
 10
0.1314218073758578
 20
0.2245512535754483
 30
0.0
 10
0.1314218073758578
 20
0.2251169916142227
 30
0.0
 10
0.1314218073758578
 20
0.2251169916142227
 30
0.0
  0
LINE
  5
C2
330
1F
100
AcDbEntity
  8
0
  6
Continuous
 62
     7
370
    25
100
AcDbLine
 10
0.1314218074
 20
0.2251169916
 30
0.0
 11
0.1389677391
 21
0.2251169916
 31
0.0
  0
LINE
  5
C3
330
1F
100
AcDbEntity
  8
0
  6
Continuous
 62
     7
370
    25
100
AcDbLine
 10
0.0858181328
 20
0.2251169916
 30
0.0
 11
0.0933640646
 21
0.2251169916
 31
0.0
  0
LINE
  5
C4
330
1F
100
AcDbEntity
  8
0
  6
Continuous
 62
     7
370
    25
100
AcDbLine
 10
0.0297157706
 20
0.2251169916
 30
0.0
 11
0.0539939859
 21
0.2251169916
 31
0.0
  0
LINE
  5
C5
330
1F
100
AcDbEntity
  8
0
  6
Continuous
 62
     7
370
    25
100
AcDbLine
 10
0.0349651145
 20
0.2329910074
 30
0.0
 11
0.0297157706
 21
0.2329910074
 31
0.0
  0
LINE
  5
C6
330
1F
100
AcDbEntity
  8
0
  6
Continuous
 62
     7
370
    25
100
AcDbLine
 10
0.0297157706
 20
0.2677679102
 30
0.0
 11
0.0349651145
 21
0.2677679102
 31
0.0
  0
LINE
  5
C7
330
1F
100
AcDbEntity
  8
0
  6
Continuous
 62
     7
370
    25
100
AcDbLine
 10
0.0297157706
 20
0.275641926
 30
0.0
 11
0.0402144583
 21
0.275641926
 31
0.0
  0
LINE
  5
C8
330
1F
100
AcDbEntity
  8
0
  6
Continuous
 62
     7
370
    25
100
AcDbLine
 10
0.0402144583
 20
0.2822036058
 30
0.0
 11
0.0402144583
 21
0.275641926
 31
0.0
  0
LINE
  5
C9
330
1F
100
AcDbEntity
  8
0
  6
Continuous
 62
     7
370
    25
100
AcDbLine
 10
0.0402144583
 20
0.2822036058
 30
0.0
 11
0.0467761381
 21
0.2822036058
 31
0.0
  0
LINE
  5
CA
330
1F
100
AcDbEntity
  8
0
  6
Continuous
 62
     7
370
    25
100
AcDbLine
 10
0.0467761381
 20
0.2887652856
 30
0.0
 11
0.0467761381
 21
0.2822036058
 31
0.0
  0
SPLINE
  5
CB
330
1F
100
AcDbEntity
  8
0
  6
Continuous
 62
     7
370
    25
100
AcDbSpline
210
0.0
220
0.0
230
1.0
 70
    24
 71
     3
 72
    10
 73
     6
 74
     0
 42
0.00000001
 43
0.00000001
 40
0.0
 40
0.0
 40
0.0
 40
0.0
 40
0.5
 40
0.5
 40
1.0
 40
1.0
 40
1.0
 40
1.0
 10
0.0270910987144373
 20
0.2251169916141999
 30
0.0
 10
0.0270910987144547
 20
0.2251169916141999
 30
0.0
 10
0.0273739677338545
 20
0.2251169916141999
 30
0.0
 10
0.0283457269066626
 20
0.2251169916141999
 30
0.0
 10
0.0290286331296458
 20
0.2251169916141999
 30
0.0
 10
0.0297157706304143
 20
0.2251169916141999
 30
0.0
  0
LINE
  5
CC
330
1F
100
AcDbEntity
  8
0
  6
Continuous
 62
     7
370
    25
100
AcDbLine
 10
0.0270910987
 20
0.2329910074
 30
0.0
 11
0.0270910987
 21
0.2251169916
 31
0.0
  0
SPLINE
  5
CD
330
1F
100
AcDbEntity
  8
0
  6
Continuous
 62
     7
370
    25
100
AcDbSpline
210
0.0
220
0.0
230
1.0
 70
    24
 71
     3
 72
    10
 73
     6
 74
     0
 42
0.00000001
 43
0.00000001
 40
0.0
 40
0.0
 40
0.0
 40
0.0
 40
0.5
 40
0.5
 40
1.0
 40
1.0
 40
1.0
 40
1.0
 10
0.0297157706304142
 20
0.2329910073622332
 30
0.0
 10
0.0290286331296457
 20
0.2329910073622332
 30
0.0
 10
0.0283457269066625
 20
0.2329910073622332
 30
0.0
 10
0.0273739677338545
 20
0.2329910073622332
 30
0.0
 10
0.0270910987144546
 20
0.2329910073622332
 30
0.0
 10
0.0270910987144372
 20
0.2329910073622332
 30
0.0
  0
LINE
  5
CE
330
1F
100
AcDbEntity
  8
0
  6
Continuous
 62
     7
370
    25
100
AcDbLine
 10
0.0270910987
 20
0.275641926
 30
0.0
 11
0.0270910987
 21
0.2677679102
 31
0.0
  0
SPLINE
  5
CF
330
1F
100
AcDbEntity
  8
0
  6
Continuous
 62
     7
370
    25
100
AcDbSpline
210
0.0
220
0.0
230
1.0
 70
    24
 71
     3
 72
    13
 73
     9
 74
     0
 42
0.00000001
 43
0.00000001
 40
0.0
 40
0.0
 40
0.0
 40
0.0
 40
0.1272000725170851
 40
0.2497464190517527
 40
0.3727002593319299
 40
0.501074625232214
 40
0.7497428094471882
 40
0.9999999999999999
 40
0.9999999999999999
 40
0.9999999999999999
 40
0.9999999999999999
 10
0.027091098714447
 20
0.2756419259974001
 30
0.0
 10
0.0270998489274566
 20
0.2756419259974001
 30
0.0
 10
0.0271170292192744
 20
0.2756419259974001
 30
0.0
 10
0.0272680579420972
 20
0.2756419259974001
 30
0.0
 10
0.0275136434794272
 20
0.2756419259974001
 30
0.0
 10
0.0279537662997191
 20
0.2756419259974001
 30
0.0
 10
0.028677738653838
 20
0.2756419259974001
 30
0.0
 10
0.0293690260875122
 20
0.2756419259974001
 30
0.0
 10
0.0297157706304137
 20
0.2756419259974001
 30
0.0
  0
SPLINE
  5
D0
330
1F
100
AcDbEntity
  8
0
  6
Continuous
 62
     7
370
    25
100
AcDbSpline
210
0.0
220
0.0
230
1.0
 70
    24
 71
     3
 72
    13
 73
     9
 74
     0
 42
0.00000001
 43
0.00000001
 40
0.0
 40
0.0
 40
0.0
 40
0.0
 40
0.1272000725179092
 40
0.2497464190532379
 40
0.3727002593338398
 40
0.5010746252342655
 40
0.7497428094486854
 40
1.0
 40
1.0
 40
1.0
 40
1.0
 10
0.0297157706304143
 20
0.2677679102493676
 30
0.0
 10
0.0295410422306129
 20
0.2677679102493677
 30
0.0
 10
0.0291979780224446
 20
0.2677679102493676
 30
0.0
 10
0.02870462841909
 20
0.2677679102493676
 30
0.0
 10
0.0282505635925588
 20
0.2677679102493676
 30
0.0
 10
0.027724055131073
 20
0.2677679102493676
 30
0.0
 10
0.0271943801045034
 20
0.2677679102493676
 30
0.0
 10
0.0271255988639548
 20
0.2677679102493676
 30
0.0
 10
0.0270910987144476
 20
0.2677679102493676
 30
0.0
  0
SPLINE
  5
D1
330
1F
100
AcDbEntity
  8
0
  6
Continuous
 62
     7
370
    25
100
AcDbSpline
210
0.0
220
0.0
230
1.0
 70
     8
 71
     3
 72
    16
 73
    12
 74
     0
 42
0.00000001
 43
0.00000001
 40
0.0
 40
0.0
 40
0.0
 40
0.0
 40
0.1026736631936128
 40
0.1907359478226179
 40
0.2641903385429175
 40
0.3230463803148905
 40
0.4602336758660391
 40
0.589572769414703
 40
0.7388269686661826
 40
0.8737894951120123
 40
1.0
 40
1.0
 40
1.0
 40
1.0
 10
0.0874585527826728
 20
0.3150120047375676
 30
0.0
 10
0.0872166116833673
 20
0.3150024240388042
 30
0.0
 10
0.0867671598623462
 20
0.3149846260602126
 30
0.0
 10
0.0861502636611411
 20
0.3148556976098716
 30
0.0
 10
0.0856409297993663
 20
0.3146951116571629
 30
0.0
 10
0.0850281163103933
 20
0.3144382854985541
 30
0.0
 10
0.0843236061983085
 20
0.3140125382862196
 30
0.0
 10
0.0834895964942383
 20
0.3132631003569751
 30
0.0
 10
0.0827884289921295
 20
0.3122818321423354
 30
0.0
 10
0.0823026032251454
 20
0.3110600092008363
 30
0.0
 10
0.08223963703403
 20
0.3101853401576421
 30
0.0
 10
0.0822092089506595
 20
0.3097626609055476
 30
0.0
  0
LINE
  5
D2
330
1F
100
AcDbEntity
  8
0
  6
Continuous
 62
     7
370
    25
100
AcDbLine
 10
0.0874585528
 20
0.3150120047
 30
0.0
 11
0.1681672142
 21
0.3150120047
 31
0.0
  0
LINE
  5
D3
330
1F
100
AcDbEntity
  8
0
  6
Continuous
 62
     7
370
    25
100
AcDbLine
 10
0.0467761381
 20
0.3045133171
 30
0.0
 11
0.0467761381
 21
0.3097626609
 31
0.0
  0
LINE
  5
D4
330
1F
100
AcDbEntity
  8
0
  6
Continuous
 62
     7
370
    25
100
AcDbLine
 10
0.082209209
 20
0.3045133171
 30
0.0
 11
0.0467761381
 21
0.3045133171
 31
0.0
  0
LINE
  5
D5
330
1F
100
AcDbEntity
  8
0
  6
Continuous
 62
     7
370
    25
100
AcDbLine
 10
0.0356212824
 20
0.2887652856
 30
0.0
 11
0.0467761381
 21
0.2887652856
 31
0.0
  0
LINE
  5
D6
330
1F
100
AcDbEntity
  8
0
  6
Continuous
 62
     7
370
    25
100
AcDbLine
 10
0.082209209
 20
0.3097626609
 30
0.0
 11
0.082209209
 21
0.3045133171
 31
0.0
  0
LINE
  5
D7
330
1F
100
AcDbEntity
  8
0
  6
Continuous
 62
     7
370
    25
100
AcDbLine
 10
0.0356212824
 20
0.3150120047
 30
0.0
 11
0.0415267943
 21
0.3150120047
 31
0.0
  0
SPLINE
  5
D8
330
1F
100
AcDbEntity
  8
0
  6
Continuous
 62
     7
370
    25
100
AcDbSpline
210
0.0
220
0.0
230
1.0
 70
     8
 71
     3
 72
    16
 73
    12
 74
     0
 42
0.00000001
 43
0.00000001
 40
0.0
 40
0.0
 40
0.0
 40
0.0
 40
0.1026736624526347
 40
0.1907359465099864
 40
0.2641903368279876
 40
0.3230463783669357
 40
0.4602336741208839
 40
0.5895727664857908
 40
0.7388269671098969
 40
0.873789494511543
 40
0.9999999999999999
 40
0.9999999999999999
 40
0.9999999999999999
 40
0.9999999999999999
 10
0.04152679425268
 20
0.3150120047375677
 30
0.0
 10
0.0417694646096104
 20
0.3150024240389358
 30
0.0
 10
0.0422202711661641
 20
0.3149846260605825
 30
0.0
 10
0.0428388607455907
 20
0.3148556976119702
 30
0.0
 10
0.0433448271009534
 20
0.3146951116612032
 30
0.0
 10
0.043951220701015
 20
0.3144382855045316
 30
0.0
 10
0.0446664256906151
 20
0.3140125382961225
 30
0.0
 10
0.0454962161489381
 20
0.3132631003702763
 30
0.0
 10
0.0461885641926028
 20
0.3122818321563308
 30
0.0
 10
0.0466829750388179
 20
0.3110600092079784
 30
0.0
 10
0.0467457853360756
 20
0.3101853401596268
 30
0.0
 10
0.0467761380845162
 20
0.3097626609055478
 30
0.0
  0
SPLINE
  5
D9
330
1F
100
AcDbEntity
  8
0
  6
Continuous
 62
     7
370
    25
100
AcDbSpline
210
0.0
220
0.0
230
1.0
 70
    24
 71
     3
 72
    10
 73
     6
 74
     0
 42
0.00000001
 43
0.00000001
 40
0.0
 40
0.0
 40
0.0
 40
0.0
 40
0.5
 40
0.5
 40
1.0
 40
1.0
 40
1.0
 40
1.0
 10
0.0303719386094602
 20
0.2887652855774631
 30
0.0
 10
0.030371938609242
 20
0.2887652855774631
 30
0.0
 10
0.030937676647938
 20
0.2887652855774631
 30
0.0
 10
0.0328811949936309
 20
0.2887652855774631
 30
0.0
 10
0.0342470074397712
 20
0.2887652855774631
 30
0.0
 10
0.0356212824414802
 20
0.2887652855774631
 30
0.0
  0
LINE
  5
DA
330
1F
100
AcDbEntity
  8
0
  6
Continuous
 62
     7
370
    25
100
AcDbLine
 10
0.0303719386
 20
0.2887652856
 30
0.0
 11
0.0303719386
 21
0.3097626609
 31
0.0
  0
SPLINE
  5
DB
330
1F
100
AcDbEntity
  8
0
  6
Continuous
 62
     7
370
    25
100
AcDbSpline
210
0.0
220
0.0
230
1.0
 70
    24
 71
     3
 72
    13
 73
     9
 74
     0
 42
0.00000001
 43
0.00000001
 40
0.0
 40
0.0
 40
0.0
 40
0.0
 40
0.1272000725270692
 40
0.2497464190661896
 40
0.3727002593446337
 40
0.5010746252370699
 40
0.7497428094428449
 40
1.0
 40
1.0
 40
1.0
 40
1.0
 10
0.1681672141998798
 20
0.3150120047375682
 30
0.0
 10
0.1683419425997036
 20
0.3150120047375682
 30
0.0
 10
0.1686850068079086
 20
0.3150120047375682
 30
0.0
 10
0.1691783564113111
 20
0.3150120047375682
 30
0.0
 10
0.1696324212378723
 20
0.3150120047375682
 30
0.0
 10
0.1701589296993841
 20
0.3150120047375682
 30
0.0
 10
0.1706886047259658
 20
0.3150120047375682
 30
0.0
 10
0.1707573859665082
 20
0.3150120047375682
 30
0.0
 10
0.1707918861160132
 20
0.3150120047375682
 30
0.0
  0
ARC
  5
DC
330
1F
100
AcDbEntity
  8
0
  6
Continuous
 62
     7
370
    25
100
AcDbCircle
 10
0.1707918861
 20
0.3097626609
 30
0.0
 40
0.0052493438320204
100
AcDbArc
 50
359.9999999996
 51
90.0
  0
LINE
  5
DD
330
1F
100
AcDbEntity
  8
0
  6
Continuous
 62
     7
370
    25
100
AcDbLine
 10
0.1760412299
 20
0.3097626609
 30
0.0
 11
0.1760412299
 21
0.2887652856
 31
0.0
  0
LINE
  5
DE
330
1F
100
AcDbEntity
  8
0
  6
Continuous
 62
     7
370
    25
100
AcDbLine
 10
0.1760412299
 20
0.2887652856
 30
0.0
 11
0.1760412299
 21
0.2251169916
 31
0.0
  0
SPLINE
  5
DF
330
1F
100
AcDbEntity
  8
0
  6
Continuous
 62
     7
370
    25
100
AcDbSpline
210
0.0
220
0.0
230
1.0
 70
    24
 71
     3
 72
    10
 73
     6
 74
     0
 42
0.00000001
 43
0.00000001
 40
0.0
 40
0.0
 40
0.0
 40
0.0
 40
0.5
 40
0.5
 40
1.0
 40
1.0
 40
1.0
 40
1.0
 10
0.170791886116016
 20
0.2251169916142016
 30
0.0
 10
0.1723149303004342
 20
0.2251169916142017
 30
0.0
 10
0.1736636508596761
 20
0.2251169916142016
 30
0.0
 10
0.1755289914133955
 20
0.2251169916142017
 30
0.0
 10
0.1760412299481057
 20
0.2251169916142017
 30
0.0
 10
0.1760412299480441
 20
0.2251169916142017
 30
0.0
  0
LINE
  5
E0
330
1F
100
AcDbEntity
  8
0
  6
Continuous
 62
     7
370
    25
100
AcDbLine
 10
0.1707918861
 20
0.2198676478
 30
0.0
 11
0.1707918861
 21
0.2251169916
 31
0.0
  0
LINE
  5
E1
330
1F
100
AcDbEntity
  8
0
  6
Continuous
 62
     7
370
    25
100
AcDbLine
 10
0.1389677391
 20
0.2251169916
 30
0.0
 11
0.1389677391
 21
0.2198676478
 31
0.0
  0
LINE
  5
E2
330
1F
100
AcDbEntity
  8
0
  6
Continuous
 62
     7
370
    25
100
AcDbLine
 10
0.1707918861
 20
0.2251169916
 30
0.0
 11
0.1681672142
 21
0.2251169916
 31
0.0
  0
LINE
  5
E3
330
1F
100
AcDbEntity
  8
0
  6
Continuous
 62
     7
370
    25
100
AcDbLine
 10
0.1389677391
 20
0.2198676478
 30
0.0
 11
0.1707918861
 21
0.2198676478
 31
0.0
  0
LINE
  5
E4
330
1F
100
AcDbEntity
  8
0
  6
Continuous
 62
     7
370
    25
100
AcDbLine
 10
0.0297157706
 20
0.2677679102
 30
0.0
 11
0.0297157706
 21
0.2329910074
 31
0.0
  0
ARC
  5
E5
330
1F
100
AcDbEntity
  8
0
  6
Continuous
 62
     7
370
    25
100
AcDbCircle
 10
0.0356212824
 20
0.3097626609
 30
0.0
 40
0.0052493438320202
100
AcDbArc
 50
90.0
 51
180.0
  0
LINE
  5
E6
330
1F
100
AcDbEntity
  8
0
  6
Continuous
 62
     7
370
    25
100
AcDbLine
 10
0.0858181328
 20
0.2198676478
 30
0.0
 11
0.0858181328
 21
0.2251169916
 31
0.0
  0
LINE
  5
E7
330
1F
100
AcDbEntity
  8
0
  6
Continuous
 62
     7
370
    25
100
AcDbLine
 10
0.0539939859
 20
0.2198676478
 30
0.0
 11
0.0539939859
 21
0.2251169916
 31
0.0
  0
LINE
  5
E8
330
1F
100
AcDbEntity
  8
0
  6
Continuous
 62
     7
370
    25
100
AcDbLine
 10
0.0539939859
 20
0.2198676478
 30
0.0
 11
0.0858181328
 21
0.2198676478
 31
0.0
  0
SPLINE
  5
E9
330
1F
100
AcDbEntity
  8
0
  6
Continuous
 62
     7
370
    25
100
AcDbSpline
210
0.0
220
0.0
230
1.0
 70
    24
 71
     3
 72
    14
 73
    10
 74
     0
 42
0.00000001
 43
0.00000001
 40
0.0
 40
0.0
 40
0.0
 40
0.0
 40
0.25
 40
0.25
 40
0.5
 40
0.5
 40
0.75
 40
0.75
 40
1.0
 40
1.0
 40
1.0
 40
1.0
 10
0.0730228572446136
 20
0.3084503249475408
 30
0.0
 10
0.0730228572446136
 20
0.3084503249475408
 30
0.0
 10
0.0721240987660435
 20
0.3084503249475408
 30
0.0
 10
0.0689247497854218
 20
0.3084503249475408
 30
0.0
 10
0.0667549548771601
 20
0.3084503249475407
 30
0.0
 10
0.0622303921580004
 20
0.3084503249475407
 30
0.0
 10
0.0600605972497387
 20
0.3084503249475406
 30
0.0
 10
0.0568612482691171
 20
0.3084503249475405
 30
0.0
 10
0.0559624897905471
 20
0.3084503249475405
 30
0.0
 10
0.0559624897905471
 20
0.3084503249475405
 30
0.0
  0
SPLINE
  5
EA
330
1F
100
AcDbEntity
  8
0
  6
Continuous
 62
     7
370
    25
100
AcDbSpline
210
0.0
220
0.0
230
1.0
 70
    24
 71
     3
 72
     8
 73
     4
 74
     0
 42
0.00000001
 43
0.00000001
 40
0.0
 40
0.0
 40
0.0
 40
0.0
 40
1.0
 40
1.0
 40
1.0
 40
1.0
 10
0.0539939858535414
 20
0.2198676477822011
 30
0.0
 10
0.0535608805338362
 20
0.2198676477822011
 30
0.0
 10
0.0533378178745377
 20
0.2198676477822011
 30
0.0
 10
0.0533378178745377
 20
0.2198676477822011
 30
0.0
  0
SPLINE
  5
EB
330
1F
100
AcDbEntity
  8
0
  6
Continuous
 62
     7
370
    25
100
AcDbSpline
210
0.0
220
0.0
230
1.0
 70
    24
 71
     3
 72
    14
 73
    10
 74
     0
 42
0.00000001
 43
0.00000001
 40
0.0
 40
0.0
 40
0.0
 40
0.0
 40
0.2499999999999998
 40
0.2499999999999998
 40
0.4999999999999996
 40
0.4999999999999996
 40
0.7499999999999998
 40
0.7499999999999998
 40
1.0
 40
1.0
 40
1.0
 40
1.0
 10
0.0533378178745378
 20
0.2146183039501678
 30
0.0
 10
0.0533378178745378
 20
0.2146183039501678
 30
0.0
 10
0.0545400112069741
 20
0.2146183039501678
 30
0.0
 10
0.0586699876914821
 20
0.2146183039501678
 30
0.0
 10
0.0615723391392445
 20
0.2146183039501679
 30
0.0
 10
0.0674130078959177
 20
0.214618303950168
 30
0.0
 10
0.0703153593436801
 20
0.214618303950168
 30
0.0
 10
0.0744453358281881
 20
0.2146183039501681
 30
0.0
 10
0.0756475291606244
 20
0.2146183039501681
 30
0.0
 10
0.0756475291606244
 20
0.214618303950168
 30
0.0
  0
LINE
  5
EC
330
1F
100
AcDbEntity
  8
0
  6
Continuous
 62
     7
370
    25
100
AcDbLine
 10
0.0858181328
 20
0.2198676478
 30
0.0
 11
0.0933640646
 21
0.2198676478
 31
0.0
  0
LINE
  5
ED
330
1F
100
AcDbEntity
  8
0
  6
Continuous
 62
     7
370
    25
100
AcDbLine
 10
0.1314218074
 20
0.2198676478
 30
0.0
 11
0.1389677391
 21
0.2198676478
 31
0.0
  0
LINE
  5
EE
330
1F
100
AcDbEntity
  8
0
  6
Continuous
 62
     7
370
    25
100
AcDbLine
 10
0.1583246945
 20
0.3663565485
 30
0.0
 11
0.1581373425
 21
0.3664543041
 31
0.0
  0
LINE
  5
EF
330
1F
100
AcDbEntity
  8
0
  6
Continuous
 62
     7
370
    25
100
AcDbLine
 10
0.1583246945
 20
0.3565140829
 30
0.0
 11
0.1581539677
 21
0.3566031615
 31
0.0
  0
SPLINE
  5
F0
330
1F
100
AcDbEntity
  8
0
  6
Continuous
 62
     7
370
    25
100
AcDbSpline
210
0.0
220
0.0
230
1.0
 70
    24
 71
     3
 72
     8
 73
     4
 74
     0
 42
0.00000001
 43
0.00000001
 40
0.0
 40
0.0
 40
0.0
 40
0.0
 40
1.0
 40
1.0
 40
1.0
 40
1.0
 10
0.1504074817358317
 20
0.3786602987008345
 30
0.0
 10
0.1495055505991389
 20
0.3786602987008345
 30
0.0
 10
0.1484548857838422
 20
0.3786602987008345
 30
0.0
 10
0.1472500702368268
 20
0.3786602987008344
 30
0.0
  0
LINE
  5
F1
330
1F
100
AcDbEntity
  8
0
  6
Continuous
 62
     7
370
    25
100
AcDbLine
 10
0.1583246945
 20
0.3466717443
 30
0.0
 11
0.1581490851
 21
0.3467633862
 31
0.0
  0
LINE
  5
F2
330
1F
100
AcDbEntity
  8
0
  6
Continuous
 62
     7
370
    25
100
AcDbLine
 10
0.1583246945
 20
0.3368292202
 30
0.0
 11
0.1581469153
 21
0.3369219898
 31
0.0
  0
LINE
  5
F3
330
1F
100
AcDbEntity
  8
0
  6
Continuous
 62
     7
370
    25
100
AcDbLine
 10
0.1583246945
 20
0.3269866984
 30
0.0
 11
0.1581562304
 21
0.327074607
 31
0.0
  0
LINE
  5
F4
330
1F
100
AcDbEntity
  8
0
  6
Continuous
 62
     7
370
    25
100
AcDbLine
 10
0.1583246945
 20
0.3171436981
 30
0.0
 11
0.1581529332
 21
0.317233336
 31
0.0
  0
SPLINE
  5
F5
330
1F
100
AcDbEntity
  8
0
  6
Continuous
 62
     7
370
    25
100
AcDbSpline
210
0.0
220
0.0
230
1.0
 70
     8
 71
     3
 72
     8
 73
     4
 74
     0
 42
0.00000001
 43
0.00000001
 40
0.0
 40
0.0
 40
0.0
 40
0.0
 40
1.0
 40
1.0
 40
1.0
 40
1.0
 10
0.1521691575146235
 20
0.3163237728483362
 30
0.0
 10
0.1561754320935632
 20
0.3165970293599659
 30
0.0
 10
0.1583218423385495
 20
0.3168702858716076
 30
0.0
 10
0.1583243274775306
 20
0.3171435423832477
 30
0.0
  0
LINE
  5
F6
330
1F
100
AcDbEntity
  8
0
  6
Continuous
 62
     7
370
    25
100
AcDbLine
 10
0.0664611775
 20
0.3286278547
 30
0.0
 11
0.0666330238
 21
0.3285381766
 31
0.0
  0
LINE
  5
F7
330
1F
100
AcDbEntity
  8
0
  6
Continuous
 62
     7
370
    25
100
AcDbLine
 10
0.0664611775
 20
0.3384703789
 30
0.0
 11
0.0666440568
 21
0.338374948
 31
0.0
  0
LINE
  5
F8
330
1F
100
AcDbEntity
  8
0
  6
Continuous
 62
     7
370
    25
100
AcDbLine
 10
0.0664611775
 20
0.3483129007
 30
0.0
 11
0.0666446018
 21
0.3482171855
 31
0.0
  0
LINE
  5
F9
330
1F
100
AcDbEntity
  8
0
  6
Continuous
 62
     7
370
    25
100
AcDbLine
 10
0.0666330945
 20
0.3580662572
 30
0.0
 11
0.0664611775
 21
0.358155978
 31
0.0
  0
SPLINE
  5
FA
330
1F
100
AcDbEntity
  8
0
  6
Continuous
 62
     7
370
    25
100
AcDbSpline
210
0.0
220
0.0
230
1.0
 70
    24
 71
     3
 72
     8
 73
     4
 74
     0
 42
0.00000001
 43
0.00000001
 40
0.0
 40
0.0
 40
0.0
 40
0.0
 40
1.0
 40
1.0
 40
1.0
 40
1.0
 10
0.1530753506831737
 20
0.378660298700511
 30
0.0
 10
0.1530753506832901
 20
0.378660298700511
 30
0.0
 10
0.152167915949563
 20
0.3786602987005111
 30
0.0
 10
0.1504119448984149
 20
0.378660298700511
 30
0.0
  0
LINE
  5
FB
330
1F
100
AcDbEntity
  8
0
  6
Continuous
 62
     7
370
    25
100
AcDbLine
 10
0.0717105213
 20
0.3786602987
 30
0.0
 11
0.1439423296
 21
0.3786602987
 31
0.0
  0
SPLINE
  5
FC
330
1F
100
AcDbEntity
  8
0
  6
Continuous
 62
     7
370
    25
100
AcDbSpline
210
0.0
220
0.0
230
1.0
 70
     8
 71
     3
 72
    15
 73
    11
 74
     0
 42
0.00000001
 43
0.00000001
 40
0.0
 40
0.0
 40
0.0
 40
0.0
 40
0.0618652025860829
 40
0.132017952135221
 40
0.2614728471673038
 40
0.4999855563612361
 40
0.7385068124494095
 40
0.8679707608448374
 40
0.9381160927760066
 40
1.0
 40
1.0
 40
1.0
 40
1.0
 10
0.0749015378800831
 20
0.3150120047375671
 30
0.0
 10
0.0750977391760093
 20
0.3150051841317134
 30
0.0
 10
0.0755164251612111
 20
0.314990629222338
 30
0.0
 10
0.0763764879097769
 20
0.314863999510055
 30
0.0
 10
0.0778703096583673
 20
0.3145463202126379
 30
0.0
 10
0.0801206824544265
 20
0.3141843706402781
 30
0.0
 10
0.0825672775271599
 20
0.3145462787313125
 30
0.0
 10
0.0844176354654099
 20
0.314863958668619
 30
0.0
 10
0.0855580920408009
 20
0.3149906410226113
 30
0.0
 10
0.0861479394958088
 20
0.3150051868906137
 30
0.0
 10
0.0864244090522161
 20
0.3150120047375673
 30
0.0
  0
SPLINE
  5
FD
330
1F
100
AcDbEntity
  8
0
  6
Continuous
 62
     7
370
    25
100
AcDbSpline
210
0.0
220
0.0
230
1.0
 70
    24
 71
     3
 72
    32
 73
    28
 74
     0
 42
0.00000001
 43
0.00000001
 40
0.0000000000000001
 40
0.0000000000000001
 40
0.0000000000000001
 40
0.0000000000000001
 40
0.0000031040714083
 40
0.0000031040714083
 40
0.0000031040714083
 40
0.0000056204884105
 40
0.0000056204884105
 40
0.0000056204884105
 40
0.0000081505960588
 40
0.0000081505960588
 40
0.0000081505960588
 40
0.0000117027521082
 40
0.0000117027521082
 40
0.0000117027521082
 40
0.0000248563679371
 40
0.0000248563679371
 40
0.0000248563679371
 40
0.0000475875207806
 40
0.0000475875207806
 40
0.0000475875207806
 40
0.000092745659892
 40
0.000092745659892
 40
0.000092745659892
 40
0.000273220774739
 40
0.000273220774739
 40
0.000273220774739
 40
0.0004802800408995
 40
0.0004802800408995
 40
0.0004802800408995
 40
0.0004802800408995
 10
0.1472490712076127
 20
0.3786602987008344
 30
0.0
 10
0.1472545846261559
 20
0.3786602987008344
 30
0.0
 10
0.1472589733891121
 20
0.3786602987008355
 30
0.0
 10
0.1472610700785642
 20
0.3786602987008355
 30
0.0
 10
0.1472627664335769
 20
0.3786602987008355
 30
0.0
 10
0.1472629084871295
 20
0.3786602987048597
 30
0.0
 10
0.1472610007199013
 20
0.3786602987048597
 30
0.0
 10
0.1472590853350096
 20
0.3786602987048597
 30
0.0
 10
0.1472550230878705
 20
0.3786602987008898
 30
0.0
 10
0.147249497445982
 20
0.3786602987008898
 30
0.0
 10
0.1472417395296844
 20
0.3786602987008898
 30
0.0
 10
0.1472311025443737
 20
0.3786602987008344
 30
0.0
 10
0.147219773220083
 20
0.3786602987008344
 30
0.0
 10
0.147177532796737
 20
0.3786602987008344
 30
0.0
 10
0.1471269587187829
 20
0.3786602987008184
 30
0.0
 10
0.1470989049709436
 20
0.3786602987008184
 30
0.0
 10
0.1470490257722691
 20
0.3786602987008184
 30
0.0
 10
0.1470273399728224
 20
0.3786602987008344
 30
0.0
 10
0.146982232177047
 20
0.3786602987008344
 30
0.0
 10
0.1468925376180592
 20
0.3786602987008344
 30
0.0
 10
0.1467817928528044
 20
0.3786602987008344
 30
0.0
 10
0.1466856302886559
 20
0.3786602987008344
 30
0.0
 10
0.1463013727010627
 20
0.3786602987008344
 30
0.0
 10
0.1459067293648204
 20
0.3786602987008348
 30
0.0
 10
0.1454836515565944
 20
0.3786602987008348
 30
0.0
 10
0.1449983232967056
 20
0.3786602987008348
 30
0.0
 10
0.144482933971826
 20
0.3786602987008359
 30
0.0
 10
0.1439421160842272
 20
0.3786602987008358
 30
0.0
  0
LINE
  5
FE
330
1F
100
AcDbEntity
  8
0
  6
Continuous
 62
     7
370
    25
100
AcDbLine
 10
0.0159362431
 20
0.1936209286
 30
0.0
 11
0.0159362431
 21
0.2474267029
 31
0.0
  0
LINE
  5
FF
330
1F
100
AcDbEntity
  8
0
  6
Continuous
 62
     7
370
    25
100
AcDbLine
 10
0.0119992352
 20
0.1936209286
 30
0.0
 11
0.0119992352
 21
0.2474267029
 31
0.0
  0
SPLINE
  5
100
330
1F
100
AcDbEntity
  8
0
  6
Continuous
 62
     7
370
    25
100
AcDbSpline
210
0.0
220
0.0
230
1.0
 70
     8
 71
     3
 72
    10
 73
     6
 74
     0
 42
0.00000001
 43
0.00000001
 40
0.0
 40
0.0
 40
0.0
 40
0.0
 40
0.5
 40
0.5
 40
1.0
 40
1.0
 40
1.0
 40
1.0
 10
0.0119992351973642
 20
0.2474267029004
 30
0.0
 10
0.0119992351973903
 20
0.2484574091515613
 30
0.0
 10
0.0124235387264974
 20
0.2494817684860391
 30
0.0
 10
0.0138811774857309
 20
0.2509394072452357
 30
0.0
 10
0.0149055368202195
 20
0.2513637107743167
 30
0.0
 10
0.0159362430713808
 20
0.2513637107743167
 30
0.0
  0
LINE
  5
101
330
1F
100
AcDbEntity
  8
0
  6
Continuous
 62
     7
370
    25
100
AcDbLine
 10
0.0159362431
 20
0.2513637108
 30
0.0
 11
0.0297157706
 21
0.2513637108
 31
0.0
  0
LINE
  5
102
330
1F
100
AcDbEntity
  8
0
  6
Continuous
 62
     7
370
    25
100
AcDbLine
 10
0.0297157706
 20
0.2474267029
 30
0.0
 11
0.0159362431
 21
0.2474267029
 31
0.0
  0
SPLINE
  5
103
330
1F
100
AcDbEntity
  8
0
  6
Continuous
 62
     7
370
    25
100
AcDbSpline
210
0.0
220
0.0
230
1.0
 70
    24
 71
     3
 72
     8
 73
     4
 74
     0
 42
0.00000001
 43
0.00000001
 40
0.0
 40
0.0
 40
0.0
 40
0.0
 40
1.0
 40
1.0
 40
1.0
 40
1.0
 10
0.0749015378800804
 20
0.3150120047375679
 30
0.0
 10
0.0730264568168258
 20
0.3150120047375679
 30
0.0
 10
0.071062575066741
 20
0.3150120047375677
 30
0.0
 10
0.0690858493726469
 20
0.3150120047375677
 30
0.0
  0
SPLINE
  5
104
330
1F
100
AcDbEntity
  8
0
  6
Continuous
 62
     7
370
    25
100
AcDbSpline
210
0.0
220
0.0
230
1.0
 70
    24
 71
     3
 72
    19
 73
    15
 74
     0
 42
0.00000001
 43
0.00000001
 40
0.0
 40
0.0
 40
0.0
 40
0.0
 40
0.0482748406754782
 40
0.0961552326852936
 40
0.1439161912417179
 40
0.1918347879645731
 40
0.2401853845275007
 40
0.369994710816527
 40
0.5000478981027415
 40
0.6298573341027582
 40
0.7599106313016033
 40
0.8401018170177819
 40
0.9197034146146219
 40
1.0
 40
1.0
 40
1.0
 40
1.0
 10
0.0415267942525133
 20
0.3150120047375668
 30
0.0
 10
0.0415366172577242
 20
0.3150120047375668
 30
0.0
 10
0.0415561830053995
 20
0.3150120047375668
 30
0.0
 10
0.0417168761323635
 20
0.3150120047375668
 30
0.0
 10
0.0419740837176994
 20
0.3150120047375668
 30
0.0
 10
0.0423371626382587
 20
0.3150120047375668
 30
0.0
 10
0.0430616390002594
 20
0.3150120047375668
 30
0.0
 10
0.044429159087109
 20
0.3150120047375669
 30
0.0
 10
0.0468185734293083
 20
0.3150120047375669
 30
0.0
 10
0.0497364583614006
 20
0.3150120047375669
 30
0.0
 10
0.0526634656906321
 20
0.315012004737567
 30
0.0
 10
0.0553166561478737
 20
0.315012004737567
 30
0.0
 10
0.0575896129199874
 20
0.315012004737567
 30
0.0
 10
0.0591273082495327
 20
0.315012004737567
 30
0.0
 10
0.0598994976642133
 20
0.315012004737567
 30
0.0
  0
LINE
  5
105
330
1F
100
AcDbEntity
  8
0
  6
Continuous
 62
     7
370
    25
100
AcDbLine
 10
0.1123929362
 20
0.5709175165
 30
0.0
 11
0.0730228572
 21
0.5709175165
 31
0.0
  0
LINE
  5
106
330
1F
100
AcDbEntity
  8
0
  6
Continuous
 62
     7
370
    25
100
AcDbLine
 10
0.1123929362
 20
0.4199988814
 30
0.0
 11
0.1123929362
 21
0.5709175165
 31
0.0
  0
LINE
  5
107
330
1F
100
AcDbEntity
  8
0
  6
Continuous
 62
     7
370
    25
100
AcDbLine
 10
0.1517630147
 20
0.4199988814
 30
0.0
 11
0.1123929362
 21
0.4199988814
 31
0.0
  0
LINE
  5
108
330
1F
100
AcDbEntity
  8
0
  6
Continuous
 62
     7
370
    25
100
AcDbLine
 10
0.1464884242
 20
0.5709175165
 30
0.0
 11
0.1464884242
 21
0.4199988814
 31
0.0
  0
LINE
  5
109
330
1F
100
AcDbEntity
  8
0
  6
Continuous
 62
     7
370
    25
100
AcDbLine
 10
0.112392936
 20
0.3806288026
 30
0.0
 11
0.1517630147
 21
0.3806288026
 31
0.0
  0
LINE
  5
10A
330
1F
100
AcDbEntity
  8
0
  6
Continuous
 62
     7
370
    25
100
AcDbLine
 10
0.0730228572
 20
0.3806288026
 30
0.0
 11
0.112392936
 21
0.3806288026
 31
0.0
  0
SPLINE
  5
10B
330
1F
100
AcDbEntity
  8
0
  6
Continuous
 62
     7
370
    25
100
AcDbSpline
210
0.0
220
0.0
230
1.0
 70
     8
 71
     3
 72
     8
 73
     4
 74
     0
 42
0.00000001
 43
0.00000001
 40
0.0
 40
0.0
 40
0.0
 40
0.0
 40
1.0
 40
1.0
 40
1.0
 40
1.0
 10
0.1425640403646103
 20
0.577479195293284
 30
0.0
 10
0.1438957690946094
 20
0.5753484292710083
 30
0.0
 10
0.1451993338794951
 20
0.5731502865583616
 30
0.0
 10
0.1464884242358516
 20
0.5709175165485043
 30
0.0
  0
LINE
  5
10C
330
1F
100
AcDbEntity
  8
0
  6
Continuous
 62
     7
370
    25
100
AcDbLine
 10
0.1163173202
 20
0.5774791954
 30
0.0
 11
0.079584537
 21
0.5774791963
 31
0.0
  0
SPLINE
  5
10D
330
1F
100
AcDbEntity
  8
0
  6
Continuous
 62
     7
370
    25
100
AcDbSpline
210
0.0
220
0.0
230
1.0
 70
     8
 71
     3
 72
     8
 73
     4
 74
     0
 42
0.00000001
 43
0.00000001
 40
0.0
 40
0.0
 40
0.0
 40
0.0
 40
1.0
 40
1.0
 40
1.0
 40
1.0
 10
0.1123929361585096
 20
0.5709175165485069
 30
0.0
 10
0.1136820264961668
 20
0.5731502865259761
 30
0.0
 10
0.114985591288873
 20
0.5753484291945807
 30
0.0
 10
0.1163173199984713
 20
0.5774791951882821
 30
0.0
  0
LINE
  5
10E
330
1F
100
AcDbEntity
  8
0
  6
Continuous
 62
     7
370
    25
100
AcDbLine
 10
0.1163173202
 20
0.5774791954
 30
0.0
 11
0.1425640397
 21
0.5774791963
 31
0.0
  0
SPLINE
  5
10F
330
1F
100
AcDbEntity
  8
0
  6
Continuous
 62
     7
370
    25
100
AcDbSpline
210
0.0
220
0.0
230
1.0
 70
    24
 71
     3
 72
    10
 73
     6
 74
     0
 42
0.00000001
 43
0.00000001
 40
0.0
 40
0.0
 40
0.0
 40
0.0
 40
0.5
 40
0.5
 40
1.0
 40
1.0
 40
1.0
 40
1.0
 10
0.0159362430713818
 20
0.1398151543438808
 30
0.0
 10
0.0159362430713818
 20
0.1398151543438939
 30
0.0
 10
0.0159362430713818
 20
0.1403808923827075
 30
0.0
 10
0.0159362430713818
 20
0.1423244107283979
 30
0.0
 10
0.0159362430713818
 20
0.1436902231744224
 30
0.0
 10
0.0159362430713818
 20
0.1450644981760008
 30
0.0
  0
SPLINE
  5
110
330
1F
100
AcDbEntity
  8
0
  6
Continuous
 62
     7
370
    25
100
AcDbSpline
210
0.0
220
0.0
230
1.0
 70
    24
 71
     3
 72
    10
 73
     6
 74
     0
 42
0.00000001
 43
0.00000001
 40
0.0
 40
0.0
 40
0.0
 40
0.0
 40
0.5
 40
0.5
 40
1.0
 40
1.0
 40
1.0
 40
1.0
 10
0.0119992351973818
 20
0.1450644981759341
 30
0.0
 10
0.0119992351973818
 20
0.1436902231743612
 30
0.0
 10
0.0119992351973818
 20
0.1423244107283492
 30
0.0
 10
0.0119992351973819
 20
0.1403808923826853
 30
0.0
 10
0.0119992351973818
 20
0.139815154343885
 30
0.0
 10
0.0119992351973818
 20
0.1398151543438807
 30
0.0
  0
LINE
  5
111
330
1F
100
AcDbEntity
  8
0
  6
Continuous
 62
     7
370
    25
100
AcDbLine
 10
0.0159362431
 20
0.1450644982
 30
0.0
 11
0.0159362431
 21
0.1936209286
 31
0.0
  0
LINE
  5
112
330
1F
100
AcDbEntity
  8
0
  6
Continuous
 62
     7
370
    25
100
AcDbLine
 10
0.0119992352
 20
0.1936209286
 30
0.0
 11
0.0119992352
 21
0.1450644982
 31
0.0
  0
LINE
  5
113
330
1F
100
AcDbEntity
  8
0
  6
Continuous
 62
     7
370
    25
100
AcDbLine
 10
0.0598994977
 20
0.3150120047
 30
0.0
 11
0.0690858494
 21
0.3150120047
 31
0.0
  0
LINE
  5
114
330
1F
100
AcDbEntity
  8
0
  6
Continuous
 62
     7
370
    25
100
AcDbLine
 10
0.0592433297
 20
0.1864030809
 30
0.0
 11
0.0592433297
 21
0.214618304
 31
0.0
  0
LINE
  5
115
330
1F
100
AcDbEntity
  8
0
  6
Continuous
 62
     7
370
    25
100
AcDbLine
 10
0.0539939859
 20
0.1864030809
 30
0.0
 11
0.0592433297
 21
0.1864030809
 31
0.0
  0
LINE
  5
116
330
1F
100
AcDbEntity
  8
0
  6
Continuous
 62
     7
370
    25
100
AcDbLine
 10
0.0539939859
 20
0.214618304
 30
0.0
 11
0.0539939859
 21
0.1864030809
 31
0.0
  0
LINE
  5
117
330
1F
100
AcDbEntity
  8
0
  6
Continuous
 62
     7
370
    25
100
AcDbLine
 10
0.1707918861
 20
0.1864030809
 30
0.0
 11
0.1655425423
 21
0.1864030809
 31
0.0
  0
LINE
  5
118
330
1F
100
AcDbEntity
  8
0
  6
Continuous
 62
     7
370
    25
100
AcDbLine
 10
0.1655425423
 20
0.2198676478
 30
0.0
 11
0.1655425423
 21
0.1864030809
 31
0.0
  0
LINE
  5
119
330
1F
100
AcDbEntity
  8
0
  6
Continuous
 62
     7
370
    25
100
AcDbLine
 10
0.1707918861
 20
0.2198676478
 30
0.0
 11
0.1707918861
 21
0.1864030809
 31
0.0
  0
SPLINE
  5
11A
330
1F
100
AcDbEntity
  8
0
  6
Continuous
 62
     7
370
    25
100
AcDbSpline
210
0.0
220
0.0
230
1.0
 70
    24
 71
     3
 72
    10
 73
     6
 74
     0
 42
0.00000001
 43
0.00000001
 40
0.0
 40
0.0
 40
0.0
 40
0.0
 40
0.5
 40
0.5
 40
1.0
 40
1.0
 40
1.0
 40
1.0
 10
0.0284034346724364
 20
0.30582565303153
 30
0.0
 10
0.0284034346715613
 20
0.30582565303153
 30
0.0
 10
0.0286000250300451
 20
0.30582565303153
 30
0.0
 10
0.029306217461775
 20
0.30582565303153
 30
0.0
 10
0.0298136444712396
 20
0.30582565303153
 30
0.0
 10
0.0303719386094462
 20
0.30582565303153
 30
0.0
  0
LINE
  5
11B
330
1F
100
AcDbEntity
  8
0
  6
Continuous
 62
     7
370
    25
100
AcDbLine
 10
0.0284034347
 20
0.3228860205
 30
0.0
 11
0.0284034347
 21
0.305825653
 31
0.0
  0
LINE
  5
11C
330
1F
100
AcDbEntity
  8
0
  6
Continuous
 62
     7
370
    25
100
AcDbLine
 10
0.0389021223
 20
0.3150120047
 30
0.0
 11
0.0389021223
 21
0.3228860205
 31
0.0
  0
LINE
  5
11D
330
1F
100
AcDbEntity
  8
0
  6
Continuous
 62
     7
370
    25
100
AcDbLine
 10
0.0310281066
 20
0.3255106924
 30
0.0
 11
0.0362774504
 21
0.3255106924
 31
0.0
  0
ARC
  5
11E
330
1F
100
AcDbEntity
  8
0
  6
Continuous
 62
     7
370
    25
100
AcDbCircle
 10
0.0362774504
 20
0.3228860205
 30
0.0
 40
0.0026246719160108
100
AcDbArc
 50
0.0000000001
 51
90.0
  0
ARC
  5
11F
330
1F
100
AcDbEntity
  8
0
  6
Continuous
 62
     7
370
    25
100
AcDbCircle
 10
0.0310281066
 20
0.3228860205
 30
0.0
 40
0.0026246719160104
100
AcDbArc
 50
90.0000000022
 51
180.0
  0
SPLINE
  5
120
330
1F
100
AcDbEntity
  8
0
  6
Continuous
 62
     7
370
    25
100
AcDbSpline
210
0.0
220
0.0
230
1.0
 70
    24
 71
     3
 72
     8
 73
     4
 74
     0
 42
0.00000001
 43
0.00000001
 40
0.0
 40
0.0
 40
0.0
 40
0.0
 40
1.0
 40
1.0
 40
1.0
 40
1.0
 10
0.1714480540950241
 20
0.2198676477822009
 30
0.0
 10
0.1714480540950241
 20
0.2198676477822009
 30
0.0
 10
0.1712249914357256
 20
0.2198676477822009
 30
0.0
 10
0.1707918861160204
 20
0.2198676477822009
 30
0.0
  0
LINE
  5
121
330
1F
100
AcDbEntity
  8
0
  6
Continuous
 62
     8
370
    25
100
AcDbLine
 10
0.0467761381
 20
0.2887652856
 30
0.0
 11
0.1681672142
 21
0.2887652856
 31
0.0
  0
ENDSEC
  0
SECTION
  2
OBJECTS
  0
DICTIONARY
  5
C
330
0
100
AcDbDictionary
281
     1
  3
ACAD_GROUP
350
D
  3
ACAD_LAYOUT
350
1A
  3
ACAD_MLINESTYLE
350
17
  3
ACAD_PLOTSETTINGS
350
19
  3
ACAD_PLOTSTYLENAME
350
E
  3
ACAD_SCALELIST
350
47
  3
DWGPROPS
350
122
  0
DICTIONARY
  5
D
102
{ACAD_REACTORS
330
C
102
}
330
C
100
AcDbDictionary
281
     1
  0
DICTIONARY
  5
1A
102
{ACAD_REACTORS
330
C
102
}
330
C
100
AcDbDictionary
281
     1
  3
Layout1
350
1E
  3
Layout2
350
26
  3
Model
350
22
  0
DICTIONARY
  5
17
102
{ACAD_REACTORS
330
C
102
}
330
C
100
AcDbDictionary
281
     1
  3
Standard
350
18
  0
DICTIONARY
  5
19
102
{ACAD_REACTORS
330
C
102
}
330
C
100
AcDbDictionary
281
     1
  0
ACDBDICTIONARYWDFLT
  5
E
102
{ACAD_REACTORS
330
C
102
}
330
C
100
AcDbDictionary
281
     1
  3
Normal
350
F
100
AcDbDictionaryWithDefault
340
F
  0
DICTIONARY
  5
47
102
{ACAD_REACTORS
330
C
102
}
330
C
100
AcDbDictionary
281
     1
  3
A0
350
48
  3
A1
350
49
  3
A2
350
4A
  3
A3
350
4B
  3
A4
350
4C
  3
A5
350
4D
  3
A6
350
4E
  3
A7
350
4F
  3
A8
350
50
  3
A9
350
51
  3
B0
350
52
  3
B1
350
53
  3
B2
350
54
  3
B3
350
55
  3
B4
350
56
  3
B5
350
57
  3
B6
350
58
  3
B7
350
59
  3
B8
350
5A
  3
B9
350
5B
  3
C0
350
5C
  3
C1
350
5D
  3
C2
350
5E
  3
C3
350
5F
  3
C4
350
60
  3
C5
350
61
  3
C6
350
62
  3
C7
350
63
  3
C8
350
64
  3
C9
350
65
  3
D0
350
66
  3
D1
350
67
  3
D2
350
68
  0
XRECORD
  5
122
102
{ACAD_REACTORS
330
C
102
}
330
C
100
AcDbXrecord
280
     1
  1
DWGPROPS COOKIE
  2

  3

  4

  6

  7

  8
lukew
  9

300
=
301
=
302
=
303
=
304
=
305
=
306
=
307
=
308
=
309
=
 40
0.0
 41
2459145.824091736
 42
2459145.82409294
  1

 90
        0
  0
LAYOUT
  5
1E
102
{ACAD_REACTORS
330
1A
102
}
330
1A
100
AcDbPlotSettings
  1

  2
none_device
  4

  6

 40
0.0
 41
0.0
 42
0.0
 43
0.0
 44
0.0
 45
0.0
 46
0.0
 47
0.0
 48
0.0
 49
0.0
140
0.0
141
0.0
142
1.0
143
1.0
 70
   688
 72
     0
 73
     0
 74
     5
  7

 75
    16
147
1.0
148
0.0
149
0.0
100
AcDbLayout
  1
Layout1
 70
     1
 71
     1
 10
0.0
 20
0.0
 11
12.0
 21
9.0
 12
0.0
 22
0.0
 32
0.0
 14
1.0000000000E+20
 24
1.0000000000E+20
 34
1.0000000000E+20
 15
-1.0000000000E+20
 25
-1.0000000000E+20
 35
-1.0000000000E+20
146
0.0
 13
0.0
 23
0.0
 33
0.0
 16
1.0
 26
0.0
 36
0.0
 17
0.0
 27
1.0
 37
0.0
 76
     0
330
1B
  0
LAYOUT
  5
26
102
{ACAD_REACTORS
330
1A
102
}
330
1A
100
AcDbPlotSettings
  1

  2
none_device
  4

  6

 40
0.0
 41
0.0
 42
0.0
 43
0.0
 44
0.0
 45
0.0
 46
0.0
 47
0.0
 48
0.0
 49
0.0
140
0.0
141
0.0
142
1.0
143
1.0
 70
   688
 72
     0
 73
     0
 74
     5
  7

 75
    16
147
1.0
148
0.0
149
0.0
100
AcDbLayout
  1
Layout2
 70
     1
 71
     2
 10
0.0
 20
0.0
 11
0.0
 21
0.0
 12
0.0
 22
0.0
 32
0.0
 14
0.0
 24
0.0
 34
0.0
 15
0.0
 25
0.0
 35
0.0
146
0.0
 13
0.0
 23
0.0
 33
0.0
 16
1.0
 26
0.0
 36
0.0
 17
0.0
 27
1.0
 37
0.0
 76
     0
330
23
  0
LAYOUT
  5
22
102
{ACAD_REACTORS
330
1A
102
}
330
1A
100
AcDbPlotSettings
  1

  2
none_device
  4
Letter_(8.50_x_11.00_Inches)
  6

 40
6.35
 41
6.35
 42
6.35000508
 43
6.35000508
 44
215.9
 45
279.4
 46
0.0
 47
0.0
 48
0.0
 49
0.0
140
0.0
141
0.0
142
1.0
143
1.0
 70
  1712
 72
     0
 73
     0
 74
     0
  7

 75
     0
147
1.0
148
0.0
149
0.0
100
AcDbLayout
  1
Model
 70
     1
 71
     0
 10
0.0
 20
0.0
 11
0.3937007874
 21
0.5905511811
 12
0.0
 22
0.0
 32
0.0
 14
0.0
 24
0.0
 34
0.0
 15
0.3937007874
 25
0.5905511811
 35
0.0
146
0.0
 13
0.0
 23
0.0
 33
0.0
 16
1.0
 26
0.0
 36
0.0
 17
0.0
 27
1.0
 37
0.0
 76
     0
330
1F
331
29
  0
MLINESTYLE
  5
18
102
{ACAD_REACTORS
330
17
102
}
330
17
100
AcDbMlineStyle
  2
Standard
 70
     0
  3

 62
   256
 51
90.0
 52
90.0
 71
     2
 49
0.5
 62
   256
  6
BYLAYER
 49
-0.5
 62
   256
  6
BYLAYER
  0
ACDBPLACEHOLDER
  5
F
102
{ACAD_REACTORS
330
E
102
}
330
E
  0
SCALE
  5
48
102
{ACAD_REACTORS
330
47
102
}
330
47
100
AcDbScale
 70
     0
300
1:1
140
1.0
141
1.0
290
     1
  0
SCALE
  5
49
102
{ACAD_REACTORS
330
47
102
}
330
47
100
AcDbScale
 70
     0
300
1:2
140
1.0
141
2.0
290
     0
  0
SCALE
  5
4A
102
{ACAD_REACTORS
330
47
102
}
330
47
100
AcDbScale
 70
     0
300
1:4
140
1.0
141
4.0
290
     0
  0
SCALE
  5
4B
102
{ACAD_REACTORS
330
47
102
}
330
47
100
AcDbScale
 70
     0
300
1:5
140
1.0
141
5.0
290
     0
  0
SCALE
  5
4C
102
{ACAD_REACTORS
330
47
102
}
330
47
100
AcDbScale
 70
     0
300
1:8
140
1.0
141
8.0
290
     0
  0
SCALE
  5
4D
102
{ACAD_REACTORS
330
47
102
}
330
47
100
AcDbScale
 70
     0
300
1:10
140
1.0
141
10.0
290
     0
  0
SCALE
  5
4E
102
{ACAD_REACTORS
330
47
102
}
330
47
100
AcDbScale
 70
     0
300
1:16
140
1.0
141
16.0
290
     0
  0
SCALE
  5
4F
102
{ACAD_REACTORS
330
47
102
}
330
47
100
AcDbScale
 70
     0
300
1:20
140
1.0
141
20.0
290
     0
  0
SCALE
  5
50
102
{ACAD_REACTORS
330
47
102
}
330
47
100
AcDbScale
 70
     0
300
1:30
140
1.0
141
30.0
290
     0
  0
SCALE
  5
51
102
{ACAD_REACTORS
330
47
102
}
330
47
100
AcDbScale
 70
     0
300
1:40
140
1.0
141
40.0
290
     0
  0
SCALE
  5
52
102
{ACAD_REACTORS
330
47
102
}
330
47
100
AcDbScale
 70
     0
300
1:50
140
1.0
141
50.0
290
     0
  0
SCALE
  5
53
102
{ACAD_REACTORS
330
47
102
}
330
47
100
AcDbScale
 70
     0
300
1:100
140
1.0
141
100.0
290
     0
  0
SCALE
  5
54
102
{ACAD_REACTORS
330
47
102
}
330
47
100
AcDbScale
 70
     0
300
2:1
140
2.0
141
1.0
290
     0
  0
SCALE
  5
55
102
{ACAD_REACTORS
330
47
102
}
330
47
100
AcDbScale
 70
     0
300
4:1
140
4.0
141
1.0
290
     0
  0
SCALE
  5
56
102
{ACAD_REACTORS
330
47
102
}
330
47
100
AcDbScale
 70
     0
300
8:1
140
8.0
141
1.0
290
     0
  0
SCALE
  5
57
102
{ACAD_REACTORS
330
47
102
}
330
47
100
AcDbScale
 70
     0
300
10:1
140
10.0
141
1.0
290
     0
  0
SCALE
  5
58
102
{ACAD_REACTORS
330
47
102
}
330
47
100
AcDbScale
 70
     0
300
100:1
140
100.0
141
1.0
290
     0
  0
SCALE
  5
59
102
{ACAD_REACTORS
330
47
102
}
330
47
100
AcDbScale
 70
     0
300
1/128" = 1'-0"
140
0.0078125
141
12.0
290
     0
  0
SCALE
  5
5A
102
{ACAD_REACTORS
330
47
102
}
330
47
100
AcDbScale
 70
     0
300
1/64" = 1'-0"
140
0.015625
141
12.0
290
     0
  0
SCALE
  5
5B
102
{ACAD_REACTORS
330
47
102
}
330
47
100
AcDbScale
 70
     0
300
1/32" = 1'-0"
140
0.03125
141
12.0
290
     0
  0
SCALE
  5
5C
102
{ACAD_REACTORS
330
47
102
}
330
47
100
AcDbScale
 70
     0
300
1/16" = 1'-0"
140
0.0625
141
12.0
290
     0
  0
SCALE
  5
5D
102
{ACAD_REACTORS
330
47
102
}
330
47
100
AcDbScale
 70
     0
300
3/32" = 1'-0"
140
0.09375
141
12.0
290
     0
  0
SCALE
  5
5E
102
{ACAD_REACTORS
330
47
102
}
330
47
100
AcDbScale
 70
     0
300
1/8" = 1'-0"
140
0.125
141
12.0
290
     0
  0
SCALE
  5
5F
102
{ACAD_REACTORS
330
47
102
}
330
47
100
AcDbScale
 70
     0
300
3/16" = 1'-0"
140
0.1875
141
12.0
290
     0
  0
SCALE
  5
60
102
{ACAD_REACTORS
330
47
102
}
330
47
100
AcDbScale
 70
     0
300
1/4" = 1'-0"
140
0.25
141
12.0
290
     0
  0
SCALE
  5
61
102
{ACAD_REACTORS
330
47
102
}
330
47
100
AcDbScale
 70
     0
300
3/8" = 1'-0"
140
0.375
141
12.0
290
     0
  0
SCALE
  5
62
102
{ACAD_REACTORS
330
47
102
}
330
47
100
AcDbScale
 70
     0
300
1/2" = 1'-0"
140
0.5
141
12.0
290
     0
  0
SCALE
  5
63
102
{ACAD_REACTORS
330
47
102
}
330
47
100
AcDbScale
 70
     0
300
3/4" = 1'-0"
140
0.75
141
12.0
290
     0
  0
SCALE
  5
64
102
{ACAD_REACTORS
330
47
102
}
330
47
100
AcDbScale
 70
     0
300
1" = 1'-0"
140
1.0
141
12.0
290
     0
  0
SCALE
  5
65
102
{ACAD_REACTORS
330
47
102
}
330
47
100
AcDbScale
 70
     0
300
1-1/2" = 1'-0"
140
1.5
141
12.0
290
     0
  0
SCALE
  5
66
102
{ACAD_REACTORS
330
47
102
}
330
47
100
AcDbScale
 70
     0
300
3" = 1'-0"
140
3.0
141
12.0
290
     0
  0
SCALE
  5
67
102
{ACAD_REACTORS
330
47
102
}
330
47
100
AcDbScale
 70
     0
300
6" = 1'-0"
140
6.0
141
12.0
290
     0
  0
SCALE
  5
68
102
{ACAD_REACTORS
330
47
102
}
330
47
100
AcDbScale
 70
     0
300
1'-0" = 1'-0"
140
12.0
141
12.0
290
     0
  0
ENDSEC
  0
EOF
