  0
SECTION
  2
HEADER
  9
$ANGBASE
  50
0.0
  9
$ANGDIR
  70
  1
  9
$MEASUREMENT
  70
0
  0
ENDSEC
  0
SECTION
  2
TABLES
  0
TABLE
  2
LTYPE
  70
4
  0
LTYPE
  5
40F
  2
CONTINUOUS
  70
0
  3
Solid line
  72
65
  73
0
  40
0.0
  0
LTYPE
  5
410
  2
DASHDOT
 70
0
  3
Dash Dot ____ _ ____ _
 72
65
 73
4
 40
2.0
 49
1.25
 49
-0.25
 49
0.25
 49
-0.25
  0
LTYPE
  5
411
  2
DASHED
 70
0
  3
Dashed __ __ __ __ __
 72
65
 73
2
 40
0.75
 49
0.5
 49
-0.25
  0
LTYPE
  5
43B
  2
DOTTED
 70
0
  3
Dotted .  .  .  .
 72
65
 73
2
 40
0.2
 49
0.0
 49
-0.2
  0
ENDTAB
  0
TABLE
  2
STYLE
  70
4
  0
STYLE
  2
KICAD
  70
0
  40
0
  41
1
  42
1
  50
0
  71
0
  3
isocp.shx
  0
STYLE
  2
KICADB
  70
0
  40
0
  41
1
  42
1
  50
0
  71
0
  3
isocp.shx
  0
STYLE
  2
KICADI
  70
0
  40
0
  41
1
  42
1
  50
15
  71
0
  3
isocp.shx
  0
STYLE
  2
KICADBI
  70
0
  40
0
  41
1
  42
1
  50
15
  71
0
  3
isocp.shx
  0
ENDTAB
  0
TABLE
  2
LAYER
  70
30
  0
LAYER
  2
BLACK
  70
0
  62
7
  6
CONTINUOUS
  0
LAYER
  2
GRAY1
  70
0
  62
251
  6
CONTINUOUS
  0
LAYER
  2
GRAY2
  70
0
  62
8
  6
CONTINUOUS
  0
LAYER
  2
GRAY3
  70
0
  62
9
  6
CONTINUOUS
  0
LAYER
  2
WHITE
  70
0
  62
7
  6
CONTINUOUS
  0
LAYER
  2
LYELLOW
  70
0
  62
51
  6
CONTINUOUS
  0
LAYER
  2
BLUE1
  70
0
  62
178
  6
CONTINUOUS
  0
LAYER
  2
GREEN1
  70
0
  62
98
  6
CONTINUOUS
  0
LAYER
  2
CYAN1
  70
0
  62
138
  6
CONTINUOUS
  0
LAYER
  2
RED1
  70
0
  62
18
  6
CONTINUOUS
  0
LAYER
  2
MAGENTA1
  70
0
  62
228
  6
CONTINUOUS
  0
LAYER
  2
BROWN1
  70
0
  62
58
  6
CONTINUOUS
  0
LAYER
  2
BLUE2
  70
0
  62
5
  6
CONTINUOUS
  0
LAYER
  2
GREEN2
  70
0
  62
3
  6
CONTINUOUS
  0
LAYER
  2
CYAN2
  70
0
  62
4
  6
CONTINUOUS
  0
LAYER
  2
RED2
  70
0
  62
1
  6
CONTINUOUS
  0
LAYER
  2
MAGENTA2
  70
0
  62
6
  6
CONTINUOUS
  0
LAYER
  2
BROWN2
  70
0
  62
54
  6
CONTINUOUS
  0
LAYER
  2
BLUE3
  70
0
  62
171
  6
CONTINUOUS
  0
LAYER
  2
GREEN3
  70
0
  62
91
  6
CONTINUOUS
  0
LAYER
  2
CYAN3
  70
0
  62
131
  6
CONTINUOUS
  0
LAYER
  2
RED3
  70
0
  62
11
  6
CONTINUOUS
  0
LAYER
  2
MAGENTA3
  70
0
  62
221
  6
CONTINUOUS
  0
LAYER
  2
YELLOW3
  70
0
  62
2
  6
CONTINUOUS
  0
LAYER
  2
BLUE4
  70
0
  62
5
  6
CONTINUOUS
  0
LAYER
  2
GREEN4
  70
0
  62
3
  6
CONTINUOUS
  0
LAYER
  2
CYAN4
  70
0
  62
4
  6
CONTINUOUS
  0
LAYER
  2
RED4
  70
0
  62
1
  6
CONTINUOUS
  0
LAYER
  2
MAGENTA4
  70
0
  62
6
  6
CONTINUOUS
  0
LAYER
  2
YELLOW4
  70
0
  62
2
  6
CONTINUOUS
  0
ENDTAB
  0
ENDSEC
  0
SECTION
  2
ENTITIES
0
LINE
8
BLACK
6
CONTINUOUS
10
186.429
20
-106.148
11
186.81
21
-106.368
0
LINE
8
BLACK
6
CONTINUOUS
10
186.81
20
-106.368
11
187.094
21
-106.706
0
LINE
8
BLACK
6
CONTINUOUS
10
187.094
20
-106.706
11
187.245
21
-107.12
0
LINE
8
BLACK
6
CONTINUOUS
10
187.245
20
-107.12
11
187.245
21
-107.561
0
LINE
8
BLACK
6
CONTINUOUS
10
187.245
20
-107.561
11
187.094
21
-107.975
0
LINE
8
BLACK
6
CONTINUOUS
10
187.094
20
-107.975
11
186.81
21
-108.313
0
LINE
8
BLACK
6
CONTINUOUS
10
186.81
20
-108.313
11
186.429
21
-108.533
0
LINE
8
BLACK
6
CONTINUOUS
10
186.429
20
-108.533
11
185.995
21
-108.61
0
LINE
8
BLACK
6
CONTINUOUS
10
185.995
20
-108.61
11
185.56
21
-108.533
0
LINE
8
BLACK
6
CONTINUOUS
10
185.56
20
-108.533
11
185.179
21
-108.313
0
LINE
8
BLACK
6
CONTINUOUS
10
185.179
20
-108.313
11
184.895
21
-107.975
0
LINE
8
BLACK
6
CONTINUOUS
10
184.895
20
-107.975
11
184.745
21
-107.561
0
LINE
8
BLACK
6
CONTINUOUS
10
184.745
20
-107.561
11
184.745
21
-107.12
0
LINE
8
BLACK
6
CONTINUOUS
10
184.745
20
-107.12
11
184.895
21
-106.706
0
LINE
8
BLACK
6
CONTINUOUS
10
184.895
20
-106.706
11
185.179
21
-106.368
0
LINE
8
BLACK
6
CONTINUOUS
10
185.179
20
-106.368
11
185.56
21
-106.148
0
LINE
8
BLACK
6
CONTINUOUS
10
185.56
20
-106.148
11
185.995
21
-106.071
0
LINE
8
BLACK
6
CONTINUOUS
10
185.995
20
-106.071
11
186.429
21
-106.148
0
LINE
8
BLACK
6
CONTINUOUS
10
109.629
20
-106.148
11
110.01
21
-106.368
0
LINE
8
BLACK
6
CONTINUOUS
10
110.01
20
-106.368
11
110.294
21
-106.706
0
LINE
8
BLACK
6
CONTINUOUS
10
110.294
20
-106.706
11
110.445
21
-107.12
0
LINE
8
BLACK
6
CONTINUOUS
10
110.445
20
-107.12
11
110.445
21
-107.561
0
LINE
8
BLACK
6
CONTINUOUS
10
110.445
20
-107.561
11
110.294
21
-107.975
0
LINE
8
BLACK
6
CONTINUOUS
10
110.294
20
-107.975
11
110.01
21
-108.313
0
LINE
8
BLACK
6
CONTINUOUS
10
110.01
20
-108.313
11
109.629
21
-108.533
0
LINE
8
BLACK
6
CONTINUOUS
10
109.629
20
-108.533
11
109.195
21
-108.61
0
LINE
8
BLACK
6
CONTINUOUS
10
109.195
20
-108.61
11
108.76
21
-108.533
0
LINE
8
BLACK
6
CONTINUOUS
10
108.76
20
-108.533
11
108.379
21
-108.313
0
LINE
8
BLACK
6
CONTINUOUS
10
108.379
20
-108.313
11
108.095
21
-107.975
0
LINE
8
BLACK
6
CONTINUOUS
10
108.095
20
-107.975
11
107.945
21
-107.561
0
LINE
8
BLACK
6
CONTINUOUS
10
107.945
20
-107.561
11
107.945
21
-107.12
0
LINE
8
BLACK
6
CONTINUOUS
10
107.945
20
-107.12
11
108.095
21
-106.706
0
LINE
8
BLACK
6
CONTINUOUS
10
108.095
20
-106.706
11
108.379
21
-106.368
0
LINE
8
BLACK
6
CONTINUOUS
10
108.379
20
-106.368
11
108.76
21
-106.148
0
LINE
8
BLACK
6
CONTINUOUS
10
108.76
20
-106.148
11
109.195
21
-106.071
0
LINE
8
BLACK
6
CONTINUOUS
10
109.195
20
-106.071
11
109.629
21
-106.148
0
LINE
8
BLACK
6
CONTINUOUS
10
110.594
20
-83.5337
11
110.686
21
-83.5866
0
LINE
8
BLACK
6
CONTINUOUS
10
110.686
20
-83.5866
11
110.754
21
-83.6677
0
LINE
8
BLACK
6
CONTINUOUS
10
110.754
20
-83.6677
11
110.79
21
-83.7671
0
LINE
8
BLACK
6
CONTINUOUS
10
110.79
20
-83.7671
11
110.79
21
-83.8729
0
LINE
8
BLACK
6
CONTINUOUS
10
110.79
20
-83.8729
11
110.754
21
-83.9723
0
LINE
8
BLACK
6
CONTINUOUS
10
110.754
20
-83.9723
11
110.686
21
-84.0534
0
LINE
8
BLACK
6
CONTINUOUS
10
110.686
20
-84.0534
11
110.604
21
-84.1004
0
LINE
8
BLACK
6
CONTINUOUS
10
110.604
20
-84.1004
11
110.604
21
-99.98
0
LINE
8
BLACK
6
CONTINUOUS
10
110.604
20
-99.98
11
117.678
21
-107.054
0
LINE
8
BLACK
6
CONTINUOUS
10
117.678
20
-107.054
11
137.895
21
-107.054
0
LINE
8
BLACK
6
CONTINUOUS
10
137.895
20
-107.054
11
138.153
21
-106.796
0
LINE
8
BLACK
6
CONTINUOUS
10
138.153
20
-106.796
11
138.13
21
-106.733
0
LINE
8
BLACK
6
CONTINUOUS
10
138.13
20
-106.733
11
138.13
21
-106.627
0
LINE
8
BLACK
6
CONTINUOUS
10
138.13
20
-106.627
11
138.166
21
-106.528
0
LINE
8
BLACK
6
CONTINUOUS
10
138.166
20
-106.528
11
138.234
21
-106.447
0
LINE
8
BLACK
6
CONTINUOUS
10
138.234
20
-106.447
11
138.326
21
-106.394
0
LINE
8
BLACK
6
CONTINUOUS
10
138.326
20
-106.394
11
138.43
21
-106.375
0
LINE
8
BLACK
6
CONTINUOUS
10
138.43
20
-106.375
11
138.534
21
-106.394
0
LINE
8
BLACK
6
CONTINUOUS
10
138.534
20
-106.394
11
138.626
21
-106.447
0
LINE
8
BLACK
6
CONTINUOUS
10
138.626
20
-106.447
11
138.694
21
-106.528
0
LINE
8
BLACK
6
CONTINUOUS
10
138.694
20
-106.528
11
138.73
21
-106.627
0
LINE
8
BLACK
6
CONTINUOUS
10
138.73
20
-106.627
11
138.73
21
-106.733
0
LINE
8
BLACK
6
CONTINUOUS
10
138.73
20
-106.733
11
138.707
21
-106.796
0
LINE
8
BLACK
6
CONTINUOUS
10
138.707
20
-106.796
11
138.818
21
-106.906
0
LINE
8
BLACK
6
CONTINUOUS
10
138.818
20
-106.906
11
138.818
21
-106.906
0
LINE
8
BLACK
6
CONTINUOUS
10
138.818
20
-106.906
11
138.965
21
-107.054
0
LINE
8
BLACK
6
CONTINUOUS
10
138.965
20
-107.054
11
177.511
21
-107.054
0
LINE
8
BLACK
6
CONTINUOUS
10
177.511
20
-107.054
11
177.914
21
-106.651
0
LINE
8
BLACK
6
CONTINUOUS
10
177.914
20
-106.651
11
177.914
21
-100.899
0
LINE
8
BLACK
6
CONTINUOUS
10
177.914
20
-100.899
11
177.913
21
-100.884
0
LINE
8
BLACK
6
CONTINUOUS
10
177.913
20
-100.884
11
177.917
21
-100.869
0
LINE
8
BLACK
6
CONTINUOUS
10
177.917
20
-100.869
11
177.919
21
-100.854
0
LINE
8
BLACK
6
CONTINUOUS
10
177.919
20
-100.854
11
177.922
21
-100.85
0
LINE
8
BLACK
6
CONTINUOUS
10
177.922
20
-100.85
11
177.923
21
-100.845
0
LINE
8
BLACK
6
CONTINUOUS
10
177.923
20
-100.845
11
177.932
21
-100.832
0
LINE
8
BLACK
6
CONTINUOUS
10
177.932
20
-100.832
11
177.94
21
-100.819
0
LINE
8
BLACK
6
CONTINUOUS
10
177.94
20
-100.819
11
177.951
21
-100.809
0
LINE
8
BLACK
6
CONTINUOUS
10
177.951
20
-100.809
11
183.105
21
-95.656
0
LINE
8
BLACK
6
CONTINUOUS
10
183.105
20
-95.656
11
183.009
21
-95.5418
0
LINE
8
BLACK
6
CONTINUOUS
10
183.009
20
-95.5418
11
182.888
21
-95.2104
0
LINE
8
BLACK
6
CONTINUOUS
10
182.888
20
-95.2104
11
182.888
21
-94.8578
0
LINE
8
BLACK
6
CONTINUOUS
10
182.888
20
-94.8578
11
183.009
21
-94.5264
0
LINE
8
BLACK
6
CONTINUOUS
10
183.009
20
-94.5264
11
183.235
21
-94.2562
0
LINE
8
BLACK
6
CONTINUOUS
10
183.235
20
-94.2562
11
183.541
21
-94.0799
0
LINE
8
BLACK
6
CONTINUOUS
10
183.541
20
-94.0799
11
183.801
21
-94.0341
0
LINE
8
BLACK
6
CONTINUOUS
10
183.801
20
-94.0341
11
184.576
21
-94.0341
0
LINE
8
BLACK
6
CONTINUOUS
10
184.576
20
-94.0341
11
184.835
21
-94.0799
0
LINE
8
BLACK
6
CONTINUOUS
10
184.835
20
-94.0799
11
185.141
21
-94.2562
0
LINE
8
BLACK
6
CONTINUOUS
10
185.141
20
-94.2562
11
185.367
21
-94.5264
0
LINE
8
BLACK
6
CONTINUOUS
10
185.367
20
-94.5264
11
185.488
21
-94.8578
0
LINE
8
BLACK
6
CONTINUOUS
10
185.488
20
-94.8578
11
185.488
21
-95.2104
0
LINE
8
BLACK
6
CONTINUOUS
10
185.488
20
-95.2104
11
185.367
21
-95.5418
0
LINE
8
BLACK
6
CONTINUOUS
10
185.367
20
-95.5418
11
185.141
21
-95.812
0
LINE
8
BLACK
6
CONTINUOUS
10
185.141
20
-95.812
11
184.835
21
-95.9883
0
LINE
8
BLACK
6
CONTINUOUS
10
184.835
20
-95.9883
11
184.576
21
-96.0341
0
LINE
8
BLACK
6
CONTINUOUS
10
184.576
20
-96.0341
11
183.801
21
-96.0341
0
LINE
8
BLACK
6
CONTINUOUS
10
183.801
20
-96.0341
11
183.541
21
-95.9883
0
LINE
8
BLACK
6
CONTINUOUS
10
183.541
20
-95.9883
11
183.259
21
-95.8253
0
LINE
8
BLACK
6
CONTINUOUS
10
183.259
20
-95.8253
11
178.143
21
-100.941
0
LINE
8
BLACK
6
CONTINUOUS
10
178.143
20
-100.941
11
178.143
21
-106.693
0
LINE
8
BLACK
6
CONTINUOUS
10
178.143
20
-106.693
11
178.144
21
-106.708
0
LINE
8
BLACK
6
CONTINUOUS
10
178.144
20
-106.708
11
178.14
21
-106.723
0
LINE
8
BLACK
6
CONTINUOUS
10
178.14
20
-106.723
11
178.138
21
-106.738
0
LINE
8
BLACK
6
CONTINUOUS
10
178.138
20
-106.738
11
178.135
21
-106.742
0
LINE
8
BLACK
6
CONTINUOUS
10
178.135
20
-106.742
11
178.134
21
-106.747
0
LINE
8
BLACK
6
CONTINUOUS
10
178.134
20
-106.747
11
178.125
21
-106.759
0
LINE
8
BLACK
6
CONTINUOUS
10
178.125
20
-106.759
11
178.117
21
-106.773
0
LINE
8
BLACK
6
CONTINUOUS
10
178.117
20
-106.773
11
178.106
21
-106.782
0
LINE
8
BLACK
6
CONTINUOUS
10
178.106
20
-106.782
11
177.643
21
-107.245
0
LINE
8
BLACK
6
CONTINUOUS
10
177.643
20
-107.245
11
177.633
21
-107.257
0
LINE
8
BLACK
6
CONTINUOUS
10
177.633
20
-107.257
11
177.62
21
-107.264
0
LINE
8
BLACK
6
CONTINUOUS
10
177.62
20
-107.264
11
177.608
21
-107.273
0
LINE
8
BLACK
6
CONTINUOUS
10
177.608
20
-107.273
11
177.603
21
-107.274
0
LINE
8
BLACK
6
CONTINUOUS
10
177.603
20
-107.274
11
177.598
21
-107.277
0
LINE
8
BLACK
6
CONTINUOUS
10
177.598
20
-107.277
11
177.583
21
-107.28
0
LINE
8
BLACK
6
CONTINUOUS
10
177.583
20
-107.28
11
177.569
21
-107.284
0
LINE
8
BLACK
6
CONTINUOUS
10
177.569
20
-107.284
11
177.554
21
-107.282
0
LINE
8
BLACK
6
CONTINUOUS
10
177.554
20
-107.282
11
138.923
21
-107.282
0
LINE
8
BLACK
6
CONTINUOUS
10
138.923
20
-107.282
11
138.908
21
-107.284
0
LINE
8
BLACK
6
CONTINUOUS
10
138.908
20
-107.284
11
138.893
21
-107.28
0
LINE
8
BLACK
6
CONTINUOUS
10
138.893
20
-107.28
11
138.878
21
-107.277
0
LINE
8
BLACK
6
CONTINUOUS
10
138.878
20
-107.277
11
138.874
21
-107.274
0
LINE
8
BLACK
6
CONTINUOUS
10
138.874
20
-107.274
11
138.869
21
-107.273
0
LINE
8
BLACK
6
CONTINUOUS
10
138.869
20
-107.273
11
138.856
21
-107.264
0
LINE
8
BLACK
6
CONTINUOUS
10
138.856
20
-107.264
11
138.843
21
-107.257
0
LINE
8
BLACK
6
CONTINUOUS
10
138.843
20
-107.257
11
138.834
21
-107.245
0
LINE
8
BLACK
6
CONTINUOUS
10
138.834
20
-107.245
11
138.656
21
-107.068
0
LINE
8
BLACK
6
CONTINUOUS
10
138.656
20
-107.068
11
138.656
21
-107.068
0
LINE
8
BLACK
6
CONTINUOUS
10
138.656
20
-107.068
11
138.547
21
-106.959
0
LINE
8
BLACK
6
CONTINUOUS
10
138.547
20
-106.959
11
138.534
21
-106.966
0
LINE
8
BLACK
6
CONTINUOUS
10
138.534
20
-106.966
11
138.43
21
-106.985
0
LINE
8
BLACK
6
CONTINUOUS
10
138.43
20
-106.985
11
138.326
21
-106.966
0
LINE
8
BLACK
6
CONTINUOUS
10
138.326
20
-106.966
11
138.313
21
-106.959
0
LINE
8
BLACK
6
CONTINUOUS
10
138.313
20
-106.959
11
138.026
21
-107.245
0
LINE
8
BLACK
6
CONTINUOUS
10
138.026
20
-107.245
11
138.017
21
-107.257
0
LINE
8
BLACK
6
CONTINUOUS
10
138.017
20
-107.257
11
138.004
21
-107.264
0
LINE
8
BLACK
6
CONTINUOUS
10
138.004
20
-107.264
11
137.991
21
-107.273
0
LINE
8
BLACK
6
CONTINUOUS
10
137.991
20
-107.273
11
137.986
21
-107.274
0
LINE
8
BLACK
6
CONTINUOUS
10
137.986
20
-107.274
11
137.982
21
-107.277
0
LINE
8
BLACK
6
CONTINUOUS
10
137.982
20
-107.277
11
137.967
21
-107.28
0
LINE
8
BLACK
6
CONTINUOUS
10
137.967
20
-107.28
11
137.952
21
-107.284
0
LINE
8
BLACK
6
CONTINUOUS
10
137.952
20
-107.284
11
137.937
21
-107.282
0
LINE
8
BLACK
6
CONTINUOUS
10
137.937
20
-107.282
11
117.636
21
-107.282
0
LINE
8
BLACK
6
CONTINUOUS
10
117.636
20
-107.282
11
117.62
21
-107.284
0
LINE
8
BLACK
6
CONTINUOUS
10
117.62
20
-107.284
11
117.606
21
-107.28
0
LINE
8
BLACK
6
CONTINUOUS
10
117.606
20
-107.28
11
117.591
21
-107.277
0
LINE
8
BLACK
6
CONTINUOUS
10
117.591
20
-107.277
11
117.586
21
-107.274
0
LINE
8
BLACK
6
CONTINUOUS
10
117.586
20
-107.274
11
117.582
21
-107.273
0
LINE
8
BLACK
6
CONTINUOUS
10
117.582
20
-107.273
11
117.569
21
-107.264
0
LINE
8
BLACK
6
CONTINUOUS
10
117.569
20
-107.264
11
117.556
21
-107.257
0
LINE
8
BLACK
6
CONTINUOUS
10
117.556
20
-107.257
11
117.546
21
-107.245
0
LINE
8
BLACK
6
CONTINUOUS
10
117.546
20
-107.245
11
110.413
21
-100.112
0
LINE
8
BLACK
6
CONTINUOUS
10
110.413
20
-100.112
11
110.401
21
-100.102
0
LINE
8
BLACK
6
CONTINUOUS
10
110.401
20
-100.102
11
110.394
21
-100.089
0
LINE
8
BLACK
6
CONTINUOUS
10
110.394
20
-100.089
11
110.385
21
-100.076
0
LINE
8
BLACK
6
CONTINUOUS
10
110.385
20
-100.076
11
110.383
21
-100.071
0
LINE
8
BLACK
6
CONTINUOUS
10
110.383
20
-100.071
11
110.381
21
-100.067
0
LINE
8
BLACK
6
CONTINUOUS
10
110.381
20
-100.067
11
110.378
21
-100.052
0
LINE
8
BLACK
6
CONTINUOUS
10
110.378
20
-100.052
11
110.374
21
-100.037
0
LINE
8
BLACK
6
CONTINUOUS
10
110.374
20
-100.037
11
110.376
21
-100.022
0
LINE
8
BLACK
6
CONTINUOUS
10
110.376
20
-100.022
11
110.376
21
-84.1004
0
LINE
8
BLACK
6
CONTINUOUS
10
110.376
20
-84.1004
11
110.294
21
-84.0534
0
LINE
8
BLACK
6
CONTINUOUS
10
110.294
20
-84.0534
11
110.226
21
-83.9723
0
LINE
8
BLACK
6
CONTINUOUS
10
110.226
20
-83.9723
11
110.19
21
-83.8729
0
LINE
8
BLACK
6
CONTINUOUS
10
110.19
20
-83.8729
11
110.19
21
-83.7671
0
LINE
8
BLACK
6
CONTINUOUS
10
110.19
20
-83.7671
11
110.226
21
-83.6677
0
LINE
8
BLACK
6
CONTINUOUS
10
110.226
20
-83.6677
11
110.294
21
-83.5866
0
LINE
8
BLACK
6
CONTINUOUS
10
110.294
20
-83.5866
11
110.386
21
-83.5337
0
LINE
8
BLACK
6
CONTINUOUS
10
110.386
20
-83.5337
11
110.49
21
-83.5154
0
LINE
8
BLACK
6
CONTINUOUS
10
110.49
20
-83.5154
11
110.594
21
-83.5337
0
LINE
8
BLACK
6
CONTINUOUS
10
154.015
20
-104.359
11
154.107
21
-104.412
0
LINE
8
BLACK
6
CONTINUOUS
10
154.107
20
-104.412
11
154.175
21
-104.493
0
LINE
8
BLACK
6
CONTINUOUS
10
154.175
20
-104.493
11
154.211
21
-104.593
0
LINE
8
BLACK
6
CONTINUOUS
10
154.211
20
-104.593
11
154.211
21
-104.698
0
LINE
8
BLACK
6
CONTINUOUS
10
154.211
20
-104.698
11
154.175
21
-104.798
0
LINE
8
BLACK
6
CONTINUOUS
10
154.175
20
-104.798
11
154.107
21
-104.879
0
LINE
8
BLACK
6
CONTINUOUS
10
154.107
20
-104.879
11
154.026
21
-104.926
0
LINE
8
BLACK
6
CONTINUOUS
10
154.026
20
-104.926
11
154.026
21
-105.767
0
LINE
8
BLACK
6
CONTINUOUS
10
154.026
20
-105.767
11
154.027
21
-105.782
0
LINE
8
BLACK
6
CONTINUOUS
10
154.027
20
-105.782
11
154.023
21
-105.797
0
LINE
8
BLACK
6
CONTINUOUS
10
154.023
20
-105.797
11
154.02
21
-105.812
0
LINE
8
BLACK
6
CONTINUOUS
10
154.02
20
-105.812
11
154.018
21
-105.816
0
LINE
8
BLACK
6
CONTINUOUS
10
154.018
20
-105.816
11
154.016
21
-105.821
0
LINE
8
BLACK
6
CONTINUOUS
10
154.016
20
-105.821
11
154.008
21
-105.834
0
LINE
8
BLACK
6
CONTINUOUS
10
154.008
20
-105.834
11
154
21
-105.847
0
LINE
8
BLACK
6
CONTINUOUS
10
154
20
-105.847
11
153.989
21
-105.857
0
LINE
8
BLACK
6
CONTINUOUS
10
153.989
20
-105.857
11
153.518
21
-106.328
0
LINE
8
BLACK
6
CONTINUOUS
10
153.518
20
-106.328
11
153.508
21
-106.339
0
LINE
8
BLACK
6
CONTINUOUS
10
153.508
20
-106.339
11
153.495
21
-106.347
0
LINE
8
BLACK
6
CONTINUOUS
10
153.495
20
-106.347
11
153.482
21
-106.356
0
LINE
8
BLACK
6
CONTINUOUS
10
153.482
20
-106.356
11
153.477
21
-106.357
0
LINE
8
BLACK
6
CONTINUOUS
10
153.477
20
-106.357
11
153.473
21
-106.359
0
LINE
8
BLACK
6
CONTINUOUS
10
153.473
20
-106.359
11
153.458
21
-106.362
0
LINE
8
BLACK
6
CONTINUOUS
10
153.458
20
-106.362
11
153.443
21
-106.366
0
LINE
8
BLACK
6
CONTINUOUS
10
153.443
20
-106.366
11
153.428
21
-106.365
0
LINE
8
BLACK
6
CONTINUOUS
10
153.428
20
-106.365
11
153.205
21
-106.365
0
LINE
8
BLACK
6
CONTINUOUS
10
153.205
20
-106.365
11
153.205
21
-106.85
0
LINE
8
BLACK
6
CONTINUOUS
10
153.205
20
-106.85
11
152.305
21
-106.85
0
LINE
8
BLACK
6
CONTINUOUS
10
152.305
20
-106.85
11
152.305
21
-105.65
0
LINE
8
BLACK
6
CONTINUOUS
10
152.305
20
-105.65
11
153.205
21
-105.65
0
LINE
8
BLACK
6
CONTINUOUS
10
153.205
20
-105.65
11
153.205
21
-106.136
0
LINE
8
BLACK
6
CONTINUOUS
10
153.205
20
-106.136
11
153.386
21
-106.136
0
LINE
8
BLACK
6
CONTINUOUS
10
153.386
20
-106.136
11
153.797
21
-105.725
0
LINE
8
BLACK
6
CONTINUOUS
10
153.797
20
-105.725
11
153.797
21
-104.926
0
LINE
8
BLACK
6
CONTINUOUS
10
153.797
20
-104.926
11
153.715
21
-104.879
0
LINE
8
BLACK
6
CONTINUOUS
10
153.715
20
-104.879
11
153.647
21
-104.798
0
LINE
8
BLACK
6
CONTINUOUS
10
153.647
20
-104.798
11
153.611
21
-104.698
0
LINE
8
BLACK
6
CONTINUOUS
10
153.611
20
-104.698
11
153.611
21
-104.593
0
LINE
8
BLACK
6
CONTINUOUS
10
153.611
20
-104.593
11
153.647
21
-104.493
0
LINE
8
BLACK
6
CONTINUOUS
10
153.647
20
-104.493
11
153.715
21
-104.412
0
LINE
8
BLACK
6
CONTINUOUS
10
153.715
20
-104.412
11
153.807
21
-104.359
0
LINE
8
BLACK
6
CONTINUOUS
10
153.807
20
-104.359
11
153.911
21
-104.341
0
LINE
8
BLACK
6
CONTINUOUS
10
153.911
20
-104.341
11
154.015
21
-104.359
0
LINE
8
BLACK
6
CONTINUOUS
10
142.895
20
-106.136
11
143.118
21
-106.136
0
LINE
8
BLACK
6
CONTINUOUS
10
143.118
20
-106.136
11
143.133
21
-106.135
0
LINE
8
BLACK
6
CONTINUOUS
10
143.133
20
-106.135
11
143.148
21
-106.139
0
LINE
8
BLACK
6
CONTINUOUS
10
143.148
20
-106.139
11
143.163
21
-106.141
0
LINE
8
BLACK
6
CONTINUOUS
10
143.163
20
-106.141
11
143.167
21
-106.144
0
LINE
8
BLACK
6
CONTINUOUS
10
143.167
20
-106.144
11
143.172
21
-106.145
0
LINE
8
BLACK
6
CONTINUOUS
10
143.172
20
-106.145
11
143.185
21
-106.154
0
LINE
8
BLACK
6
CONTINUOUS
10
143.185
20
-106.154
11
143.194
21
-106.159
0
LINE
8
BLACK
6
CONTINUOUS
10
143.194
20
-106.159
11
143.232
21
-106.159
0
LINE
8
BLACK
6
CONTINUOUS
10
143.232
20
-106.159
11
143.246
21
-106.121
0
LINE
8
BLACK
6
CONTINUOUS
10
143.246
20
-106.121
11
143.314
21
-106.04
0
LINE
8
BLACK
6
CONTINUOUS
10
143.314
20
-106.04
11
143.406
21
-105.987
0
LINE
8
BLACK
6
CONTINUOUS
10
143.406
20
-105.987
11
143.51
21
-105.969
0
LINE
8
BLACK
6
CONTINUOUS
10
143.51
20
-105.969
11
143.614
21
-105.987
0
LINE
8
BLACK
6
CONTINUOUS
10
143.614
20
-105.987
11
143.706
21
-106.04
0
LINE
8
BLACK
6
CONTINUOUS
10
143.706
20
-106.04
11
143.774
21
-106.121
0
LINE
8
BLACK
6
CONTINUOUS
10
143.774
20
-106.121
11
143.81
21
-106.221
0
LINE
8
BLACK
6
CONTINUOUS
10
143.81
20
-106.221
11
143.81
21
-106.326
0
LINE
8
BLACK
6
CONTINUOUS
10
143.81
20
-106.326
11
143.774
21
-106.426
0
LINE
8
BLACK
6
CONTINUOUS
10
143.774
20
-106.426
11
143.706
21
-106.507
0
LINE
8
BLACK
6
CONTINUOUS
10
143.706
20
-106.507
11
143.614
21
-106.56
0
LINE
8
BLACK
6
CONTINUOUS
10
143.614
20
-106.56
11
143.51
21
-106.578
0
LINE
8
BLACK
6
CONTINUOUS
10
143.51
20
-106.578
11
143.406
21
-106.56
0
LINE
8
BLACK
6
CONTINUOUS
10
143.406
20
-106.56
11
143.314
21
-106.507
0
LINE
8
BLACK
6
CONTINUOUS
10
143.314
20
-106.507
11
143.246
21
-106.426
0
LINE
8
BLACK
6
CONTINUOUS
10
143.246
20
-106.426
11
143.232
21
-106.388
0
LINE
8
BLACK
6
CONTINUOUS
10
143.232
20
-106.388
11
143.151
21
-106.388
0
LINE
8
BLACK
6
CONTINUOUS
10
143.151
20
-106.388
11
143.136
21
-106.389
0
LINE
8
BLACK
6
CONTINUOUS
10
143.136
20
-106.389
11
143.122
21
-106.385
0
LINE
8
BLACK
6
CONTINUOUS
10
143.122
20
-106.385
11
143.107
21
-106.383
0
LINE
8
BLACK
6
CONTINUOUS
10
143.107
20
-106.383
11
143.102
21
-106.38
0
LINE
8
BLACK
6
CONTINUOUS
10
143.102
20
-106.38
11
143.097
21
-106.379
0
LINE
8
BLACK
6
CONTINUOUS
10
143.097
20
-106.379
11
143.085
21
-106.37
0
LINE
8
BLACK
6
CONTINUOUS
10
143.085
20
-106.37
11
143.076
21
-106.365
0
LINE
8
BLACK
6
CONTINUOUS
10
143.076
20
-106.365
11
142.895
21
-106.365
0
LINE
8
BLACK
6
CONTINUOUS
10
142.895
20
-106.365
11
142.895
21
-106.85
0
LINE
8
BLACK
6
CONTINUOUS
10
142.895
20
-106.85
11
141.995
21
-106.85
0
LINE
8
BLACK
6
CONTINUOUS
10
141.995
20
-106.85
11
141.995
21
-105.65
0
LINE
8
BLACK
6
CONTINUOUS
10
141.995
20
-105.65
11
142.895
21
-105.65
0
LINE
8
BLACK
6
CONTINUOUS
10
142.895
20
-105.65
11
142.895
21
-106.136
0
LINE
8
BLACK
6
CONTINUOUS
10
166.995
20
-106.136
11
167.342
21
-106.136
0
LINE
8
BLACK
6
CONTINUOUS
10
167.342
20
-106.136
11
167.358
21
-106.091
0
LINE
8
BLACK
6
CONTINUOUS
10
167.358
20
-106.091
11
167.426
21
-106.01
0
LINE
8
BLACK
6
CONTINUOUS
10
167.426
20
-106.01
11
167.518
21
-105.957
0
LINE
8
BLACK
6
CONTINUOUS
10
167.518
20
-105.957
11
167.622
21
-105.938
0
LINE
8
BLACK
6
CONTINUOUS
10
167.622
20
-105.938
11
167.726
21
-105.957
0
LINE
8
BLACK
6
CONTINUOUS
10
167.726
20
-105.957
11
167.818
21
-106.01
0
LINE
8
BLACK
6
CONTINUOUS
10
167.818
20
-106.01
11
167.886
21
-106.091
0
LINE
8
BLACK
6
CONTINUOUS
10
167.886
20
-106.091
11
167.922
21
-106.19
0
LINE
8
BLACK
6
CONTINUOUS
10
167.922
20
-106.19
11
167.922
21
-106.296
0
LINE
8
BLACK
6
CONTINUOUS
10
167.922
20
-106.296
11
167.886
21
-106.395
0
LINE
8
BLACK
6
CONTINUOUS
10
167.886
20
-106.395
11
167.818
21
-106.476
0
LINE
8
BLACK
6
CONTINUOUS
10
167.818
20
-106.476
11
167.726
21
-106.529
0
LINE
8
BLACK
6
CONTINUOUS
10
167.726
20
-106.529
11
167.622
21
-106.548
0
LINE
8
BLACK
6
CONTINUOUS
10
167.622
20
-106.548
11
167.518
21
-106.529
0
LINE
8
BLACK
6
CONTINUOUS
10
167.518
20
-106.529
11
167.426
21
-106.476
0
LINE
8
BLACK
6
CONTINUOUS
10
167.426
20
-106.476
11
167.358
21
-106.395
0
LINE
8
BLACK
6
CONTINUOUS
10
167.358
20
-106.395
11
167.347
21
-106.365
0
LINE
8
BLACK
6
CONTINUOUS
10
167.347
20
-106.365
11
166.995
21
-106.365
0
LINE
8
BLACK
6
CONTINUOUS
10
166.995
20
-106.365
11
166.995
21
-106.85
0
LINE
8
BLACK
6
CONTINUOUS
10
166.995
20
-106.85
11
166.095
21
-106.85
0
LINE
8
BLACK
6
CONTINUOUS
10
166.095
20
-106.85
11
166.095
21
-105.65
0
LINE
8
BLACK
6
CONTINUOUS
10
166.095
20
-105.65
11
166.995
21
-105.65
0
LINE
8
BLACK
6
CONTINUOUS
10
166.995
20
-105.65
11
166.995
21
-106.136
0
LINE
8
BLACK
6
CONTINUOUS
10
129.095
20
-106.136
11
129.363
21
-106.136
0
LINE
8
BLACK
6
CONTINUOUS
10
129.363
20
-106.136
11
129.378
21
-106.096
0
LINE
8
BLACK
6
CONTINUOUS
10
129.378
20
-106.096
11
129.446
21
-106.015
0
LINE
8
BLACK
6
CONTINUOUS
10
129.446
20
-106.015
11
129.537
21
-105.962
0
LINE
8
BLACK
6
CONTINUOUS
10
129.537
20
-105.962
11
129.642
21
-105.944
0
LINE
8
BLACK
6
CONTINUOUS
10
129.642
20
-105.944
11
129.746
21
-105.962
0
LINE
8
BLACK
6
CONTINUOUS
10
129.746
20
-105.962
11
129.837
21
-106.015
0
LINE
8
BLACK
6
CONTINUOUS
10
129.837
20
-106.015
11
129.905
21
-106.096
0
LINE
8
BLACK
6
CONTINUOUS
10
129.905
20
-106.096
11
129.942
21
-106.195
0
LINE
8
BLACK
6
CONTINUOUS
10
129.942
20
-106.195
11
129.942
21
-106.301
0
LINE
8
BLACK
6
CONTINUOUS
10
129.942
20
-106.301
11
129.905
21
-106.401
0
LINE
8
BLACK
6
CONTINUOUS
10
129.905
20
-106.401
11
129.837
21
-106.482
0
LINE
8
BLACK
6
CONTINUOUS
10
129.837
20
-106.482
11
129.746
21
-106.534
0
LINE
8
BLACK
6
CONTINUOUS
10
129.746
20
-106.534
11
129.642
21
-106.553
0
LINE
8
BLACK
6
CONTINUOUS
10
129.642
20
-106.553
11
129.537
21
-106.534
0
LINE
8
BLACK
6
CONTINUOUS
10
129.537
20
-106.534
11
129.446
21
-106.482
0
LINE
8
BLACK
6
CONTINUOUS
10
129.446
20
-106.482
11
129.378
21
-106.401
0
LINE
8
BLACK
6
CONTINUOUS
10
129.378
20
-106.401
11
129.365
21
-106.365
0
LINE
8
BLACK
6
CONTINUOUS
10
129.365
20
-106.365
11
129.095
21
-106.365
0
LINE
8
BLACK
6
CONTINUOUS
10
129.095
20
-106.365
11
129.095
21
-106.85
0
LINE
8
BLACK
6
CONTINUOUS
10
129.095
20
-106.85
11
128.195
21
-106.85
0
LINE
8
BLACK
6
CONTINUOUS
10
128.195
20
-106.85
11
128.195
21
-105.65
0
LINE
8
BLACK
6
CONTINUOUS
10
128.195
20
-105.65
11
129.095
21
-105.65
0
LINE
8
BLACK
6
CONTINUOUS
10
129.095
20
-105.65
11
129.095
21
-106.136
0
LINE
8
BLACK
6
CONTINUOUS
10
118.785
20
-76.5304
11
118.046
21
-76.5304
0
LINE
8
BLACK
6
CONTINUOUS
10
118.046
20
-76.5304
11
116.958
21
-77.6191
0
LINE
8
BLACK
6
CONTINUOUS
10
116.958
20
-77.6191
11
116.958
21
-84.3417
0
LINE
8
BLACK
6
CONTINUOUS
10
116.958
20
-84.3417
11
118.046
21
-85.4304
0
LINE
8
BLACK
6
CONTINUOUS
10
118.046
20
-85.4304
11
118.785
21
-85.4304
0
LINE
8
BLACK
6
CONTINUOUS
10
118.785
20
-85.4304
11
118.785
21
-86.6304
0
LINE
8
BLACK
6
CONTINUOUS
10
118.785
20
-86.6304
11
118.046
21
-86.6304
0
LINE
8
BLACK
6
CONTINUOUS
10
118.046
20
-86.6304
11
116.967
21
-87.7097
0
LINE
8
BLACK
6
CONTINUOUS
10
116.967
20
-87.7097
11
116.967
21
-94.4611
0
LINE
8
BLACK
6
CONTINUOUS
10
116.967
20
-94.4611
11
118.046
21
-95.5404
0
LINE
8
BLACK
6
CONTINUOUS
10
118.046
20
-95.5404
11
118.785
21
-95.5404
0
LINE
8
BLACK
6
CONTINUOUS
10
118.785
20
-95.5404
11
118.785
21
-96.7404
0
LINE
8
BLACK
6
CONTINUOUS
10
118.785
20
-96.7404
11
118.449
21
-96.7404
0
LINE
8
BLACK
6
CONTINUOUS
10
118.449
20
-96.7404
11
118.449
21
-96.964
0
LINE
8
BLACK
6
CONTINUOUS
10
118.449
20
-96.964
11
118.45
21
-96.9791
0
LINE
8
BLACK
6
CONTINUOUS
10
118.45
20
-96.9791
11
118.446
21
-96.9938
0
LINE
8
BLACK
6
CONTINUOUS
10
118.446
20
-96.9938
11
118.444
21
-97.0087
0
LINE
8
BLACK
6
CONTINUOUS
10
118.444
20
-97.0087
11
118.441
21
-97.0131
0
LINE
8
BLACK
6
CONTINUOUS
10
118.441
20
-97.0131
11
118.44
21
-97.0181
0
LINE
8
BLACK
6
CONTINUOUS
10
118.44
20
-97.0181
11
118.431
21
-97.0305
0
LINE
8
BLACK
6
CONTINUOUS
10
118.431
20
-97.0305
11
118.424
21
-97.0436
0
LINE
8
BLACK
6
CONTINUOUS
10
118.424
20
-97.0436
11
118.412
21
-97.0534
0
LINE
8
BLACK
6
CONTINUOUS
10
118.412
20
-97.0534
11
116.973
21
-98.4919
0
LINE
8
BLACK
6
CONTINUOUS
10
116.973
20
-98.4919
11
116.973
21
-105.406
0
LINE
8
BLACK
6
CONTINUOUS
10
116.973
20
-105.406
11
117.703
21
-106.136
0
LINE
8
BLACK
6
CONTINUOUS
10
117.703
20
-106.136
11
117.885
21
-106.136
0
LINE
8
BLACK
6
CONTINUOUS
10
117.885
20
-106.136
11
117.885
21
-105.65
0
LINE
8
BLACK
6
CONTINUOUS
10
117.885
20
-105.65
11
118.785
21
-105.65
0
LINE
8
BLACK
6
CONTINUOUS
10
118.785
20
-105.65
11
118.785
21
-106.85
0
LINE
8
BLACK
6
CONTINUOUS
10
118.785
20
-106.85
11
117.885
21
-106.85
0
LINE
8
BLACK
6
CONTINUOUS
10
117.885
20
-106.85
11
117.885
21
-106.365
0
LINE
8
BLACK
6
CONTINUOUS
10
117.885
20
-106.365
11
117.661
21
-106.365
0
LINE
8
BLACK
6
CONTINUOUS
10
117.661
20
-106.365
11
117.646
21
-106.366
0
LINE
8
BLACK
6
CONTINUOUS
10
117.646
20
-106.366
11
117.631
21
-106.362
0
LINE
8
BLACK
6
CONTINUOUS
10
117.631
20
-106.362
11
117.616
21
-106.359
0
LINE
8
BLACK
6
CONTINUOUS
10
117.616
20
-106.359
11
117.612
21
-106.357
0
LINE
8
BLACK
6
CONTINUOUS
10
117.612
20
-106.357
11
117.607
21
-106.356
0
LINE
8
BLACK
6
CONTINUOUS
10
117.607
20
-106.356
11
117.595
21
-106.347
0
LINE
8
BLACK
6
CONTINUOUS
10
117.595
20
-106.347
11
117.581
21
-106.339
0
LINE
8
BLACK
6
CONTINUOUS
10
117.581
20
-106.339
11
117.572
21
-106.328
0
LINE
8
BLACK
6
CONTINUOUS
10
117.572
20
-106.328
11
116.782
21
-105.538
0
LINE
8
BLACK
6
CONTINUOUS
10
116.782
20
-105.538
11
116.77
21
-105.528
0
LINE
8
BLACK
6
CONTINUOUS
10
116.77
20
-105.528
11
116.763
21
-105.515
0
LINE
8
BLACK
6
CONTINUOUS
10
116.763
20
-105.515
11
116.754
21
-105.502
0
LINE
8
BLACK
6
CONTINUOUS
10
116.754
20
-105.502
11
116.753
21
-105.498
0
LINE
8
BLACK
6
CONTINUOUS
10
116.753
20
-105.498
11
116.75
21
-105.493
0
LINE
8
BLACK
6
CONTINUOUS
10
116.75
20
-105.493
11
116.747
21
-105.478
0
LINE
8
BLACK
6
CONTINUOUS
10
116.747
20
-105.478
11
116.743
21
-105.464
0
LINE
8
BLACK
6
CONTINUOUS
10
116.743
20
-105.464
11
116.745
21
-105.448
0
LINE
8
BLACK
6
CONTINUOUS
10
116.745
20
-105.448
11
116.745
21
-98.4496
0
LINE
8
BLACK
6
CONTINUOUS
10
116.745
20
-98.4496
11
116.743
21
-98.4345
0
LINE
8
BLACK
6
CONTINUOUS
10
116.743
20
-98.4345
11
116.747
21
-98.4198
0
LINE
8
BLACK
6
CONTINUOUS
10
116.747
20
-98.4198
11
116.75
21
-98.4049
0
LINE
8
BLACK
6
CONTINUOUS
10
116.75
20
-98.4049
11
116.753
21
-98.4005
0
LINE
8
BLACK
6
CONTINUOUS
10
116.753
20
-98.4005
11
116.754
21
-98.3955
0
LINE
8
BLACK
6
CONTINUOUS
10
116.754
20
-98.3955
11
116.763
21
-98.3831
0
LINE
8
BLACK
6
CONTINUOUS
10
116.763
20
-98.3831
11
116.77
21
-98.37
0
LINE
8
BLACK
6
CONTINUOUS
10
116.77
20
-98.37
11
116.782
21
-98.3602
0
LINE
8
BLACK
6
CONTINUOUS
10
116.782
20
-98.3602
11
118.22
21
-96.9217
0
LINE
8
BLACK
6
CONTINUOUS
10
118.22
20
-96.9217
11
118.22
21
-96.7404
0
LINE
8
BLACK
6
CONTINUOUS
10
118.22
20
-96.7404
11
117.885
21
-96.7404
0
LINE
8
BLACK
6
CONTINUOUS
10
117.885
20
-96.7404
11
117.885
21
-95.702
0
LINE
8
BLACK
6
CONTINUOUS
10
117.885
20
-95.702
11
116.775
21
-94.5928
0
LINE
8
BLACK
6
CONTINUOUS
10
116.775
20
-94.5928
11
116.764
21
-94.5831
0
LINE
8
BLACK
6
CONTINUOUS
10
116.764
20
-94.5831
11
116.756
21
-94.5699
0
LINE
8
BLACK
6
CONTINUOUS
10
116.756
20
-94.5699
11
116.747
21
-94.5575
0
LINE
8
BLACK
6
CONTINUOUS
10
116.747
20
-94.5575
11
116.746
21
-94.5526
0
LINE
8
BLACK
6
CONTINUOUS
10
116.746
20
-94.5526
11
116.744
21
-94.5482
0
LINE
8
BLACK
6
CONTINUOUS
10
116.744
20
-94.5482
11
116.741
21
-94.5332
0
LINE
8
BLACK
6
CONTINUOUS
10
116.741
20
-94.5332
11
116.737
21
-94.5186
0
LINE
8
BLACK
6
CONTINUOUS
10
116.737
20
-94.5186
11
116.738
21
-94.5035
0
LINE
8
BLACK
6
CONTINUOUS
10
116.738
20
-94.5035
11
116.738
21
-87.6673
0
LINE
8
BLACK
6
CONTINUOUS
10
116.738
20
-87.6673
11
116.737
21
-87.6522
0
LINE
8
BLACK
6
CONTINUOUS
10
116.737
20
-87.6522
11
116.741
21
-87.6376
0
LINE
8
BLACK
6
CONTINUOUS
10
116.741
20
-87.6376
11
116.744
21
-87.6226
0
LINE
8
BLACK
6
CONTINUOUS
10
116.744
20
-87.6226
11
116.746
21
-87.6182
0
LINE
8
BLACK
6
CONTINUOUS
10
116.746
20
-87.6182
11
116.747
21
-87.6133
0
LINE
8
BLACK
6
CONTINUOUS
10
116.747
20
-87.6133
11
116.756
21
-87.6009
0
LINE
8
BLACK
6
CONTINUOUS
10
116.756
20
-87.6009
11
116.764
21
-87.5877
0
LINE
8
BLACK
6
CONTINUOUS
10
116.764
20
-87.5877
11
116.775
21
-87.578
0
LINE
8
BLACK
6
CONTINUOUS
10
116.775
20
-87.578
11
117.885
21
-86.4688
0
LINE
8
BLACK
6
CONTINUOUS
10
117.885
20
-86.4688
11
117.885
21
-85.592
0
LINE
8
BLACK
6
CONTINUOUS
10
117.885
20
-85.592
11
116.766
21
-84.4734
0
LINE
8
BLACK
6
CONTINUOUS
10
116.766
20
-84.4734
11
116.754
21
-84.4636
0
LINE
8
BLACK
6
CONTINUOUS
10
116.754
20
-84.4636
11
116.747
21
-84.4505
0
LINE
8
BLACK
6
CONTINUOUS
10
116.747
20
-84.4505
11
116.738
21
-84.4381
0
LINE
8
BLACK
6
CONTINUOUS
10
116.738
20
-84.4381
11
116.737
21
-84.4331
0
LINE
8
BLACK
6
CONTINUOUS
10
116.737
20
-84.4331
11
116.734
21
-84.4287
0
LINE
8
BLACK
6
CONTINUOUS
10
116.734
20
-84.4287
11
116.732
21
-84.4138
0
LINE
8
BLACK
6
CONTINUOUS
10
116.732
20
-84.4138
11
116.728
21
-84.3991
0
LINE
8
BLACK
6
CONTINUOUS
10
116.728
20
-84.3991
11
116.729
21
-84.384
0
LINE
8
BLACK
6
CONTINUOUS
10
116.729
20
-84.384
11
116.729
21
-77.5767
0
LINE
8
BLACK
6
CONTINUOUS
10
116.729
20
-77.5767
11
116.728
21
-77.5617
0
LINE
8
BLACK
6
CONTINUOUS
10
116.728
20
-77.5617
11
116.732
21
-77.547
0
LINE
8
BLACK
6
CONTINUOUS
10
116.732
20
-77.547
11
116.734
21
-77.5321
0
LINE
8
BLACK
6
CONTINUOUS
10
116.734
20
-77.5321
11
116.737
21
-77.5276
0
LINE
8
BLACK
6
CONTINUOUS
10
116.737
20
-77.5276
11
116.738
21
-77.5227
0
LINE
8
BLACK
6
CONTINUOUS
10
116.738
20
-77.5227
11
116.747
21
-77.5103
0
LINE
8
BLACK
6
CONTINUOUS
10
116.747
20
-77.5103
11
116.754
21
-77.4972
0
LINE
8
BLACK
6
CONTINUOUS
10
116.754
20
-77.4972
11
116.766
21
-77.4874
0
LINE
8
BLACK
6
CONTINUOUS
10
116.766
20
-77.4874
11
117.885
21
-76.3688
0
LINE
8
BLACK
6
CONTINUOUS
10
117.885
20
-76.3688
11
117.885
21
-76.1873
0
LINE
8
BLACK
6
CONTINUOUS
10
117.885
20
-76.1873
11
117.626
21
-76.1873
0
LINE
8
BLACK
6
CONTINUOUS
10
117.626
20
-76.1873
11
117.612
21
-76.2253
0
LINE
8
BLACK
6
CONTINUOUS
10
117.612
20
-76.2253
11
117.544
21
-76.3064
0
LINE
8
BLACK
6
CONTINUOUS
10
117.544
20
-76.3064
11
117.452
21
-76.3593
0
LINE
8
BLACK
6
CONTINUOUS
10
117.452
20
-76.3593
11
117.348
21
-76.3776
0
LINE
8
BLACK
6
CONTINUOUS
10
117.348
20
-76.3776
11
117.244
21
-76.3593
0
LINE
8
BLACK
6
CONTINUOUS
10
117.244
20
-76.3593
11
117.152
21
-76.3064
0
LINE
8
BLACK
6
CONTINUOUS
10
117.152
20
-76.3064
11
117.084
21
-76.2253
0
LINE
8
BLACK
6
CONTINUOUS
10
117.084
20
-76.2253
11
117.048
21
-76.1259
0
LINE
8
BLACK
6
CONTINUOUS
10
117.048
20
-76.1259
11
117.048
21
-76.0201
0
LINE
8
BLACK
6
CONTINUOUS
10
117.048
20
-76.0201
11
117.084
21
-75.9207
0
LINE
8
BLACK
6
CONTINUOUS
10
117.084
20
-75.9207
11
117.152
21
-75.8396
0
LINE
8
BLACK
6
CONTINUOUS
10
117.152
20
-75.8396
11
117.244
21
-75.7867
0
LINE
8
BLACK
6
CONTINUOUS
10
117.244
20
-75.7867
11
117.348
21
-75.7684
0
LINE
8
BLACK
6
CONTINUOUS
10
117.348
20
-75.7684
11
117.452
21
-75.7867
0
LINE
8
BLACK
6
CONTINUOUS
10
117.452
20
-75.7867
11
117.544
21
-75.8396
0
LINE
8
BLACK
6
CONTINUOUS
10
117.544
20
-75.8396
11
117.612
21
-75.9207
0
LINE
8
BLACK
6
CONTINUOUS
10
117.612
20
-75.9207
11
117.626
21
-75.9587
0
LINE
8
BLACK
6
CONTINUOUS
10
117.626
20
-75.9587
11
117.885
21
-75.9587
0
LINE
8
BLACK
6
CONTINUOUS
10
117.885
20
-75.9587
11
117.885
21
-75.3304
0
LINE
8
BLACK
6
CONTINUOUS
10
117.885
20
-75.3304
11
118.785
21
-75.3304
0
LINE
8
BLACK
6
CONTINUOUS
10
118.785
20
-75.3304
11
118.785
21
-76.5304
0
LINE
8
BLACK
6
CONTINUOUS
10
177.482
20
-103.273
11
176.468
21
-103.273
0
LINE
8
BLACK
6
CONTINUOUS
10
176.468
20
-103.273
11
176.458
21
-103.269
0
LINE
8
BLACK
6
CONTINUOUS
10
176.458
20
-103.269
11
176.448
21
-103.267
0
LINE
8
BLACK
6
CONTINUOUS
10
176.448
20
-103.267
11
176.44
21
-103.262
0
LINE
8
BLACK
6
CONTINUOUS
10
176.44
20
-103.262
11
176.43
21
-103.259
0
LINE
8
BLACK
6
CONTINUOUS
10
176.43
20
-103.259
11
176.422
21
-103.252
0
LINE
8
BLACK
6
CONTINUOUS
10
176.422
20
-103.252
11
176.414
21
-103.247
0
LINE
8
BLACK
6
CONTINUOUS
10
176.414
20
-103.247
11
176.407
21
-103.239
0
LINE
8
BLACK
6
CONTINUOUS
10
176.407
20
-103.239
11
176.399
21
-103.233
0
LINE
8
BLACK
6
CONTINUOUS
10
176.399
20
-103.233
11
176.394
21
-103.224
0
LINE
8
BLACK
6
CONTINUOUS
10
176.394
20
-103.224
11
176.388
21
-103.216
0
LINE
8
BLACK
6
CONTINUOUS
10
176.388
20
-103.216
11
176.384
21
-103.207
0
LINE
8
BLACK
6
CONTINUOUS
10
176.384
20
-103.207
11
176.379
21
-103.198
0
LINE
8
BLACK
6
CONTINUOUS
10
176.379
20
-103.198
11
176.377
21
-103.188
0
LINE
8
BLACK
6
CONTINUOUS
10
176.377
20
-103.188
11
176.374
21
-103.178
0
LINE
8
BLACK
6
CONTINUOUS
10
176.374
20
-103.178
11
176.374
21
-103.138
0
LINE
8
BLACK
6
CONTINUOUS
10
176.374
20
-103.138
11
176.374
21
-96.5118
0
LINE
8
BLACK
6
CONTINUOUS
10
176.374
20
-96.5118
11
176.373
21
-96.4967
0
LINE
8
BLACK
6
CONTINUOUS
10
176.373
20
-96.4967
11
176.376
21
-96.482
0
LINE
8
BLACK
6
CONTINUOUS
10
176.376
20
-96.482
11
176.379
21
-96.4671
0
LINE
8
BLACK
6
CONTINUOUS
10
176.379
20
-96.4671
11
176.382
21
-96.4627
0
LINE
8
BLACK
6
CONTINUOUS
10
176.382
20
-96.4627
11
176.383
21
-96.4578
0
LINE
8
BLACK
6
CONTINUOUS
10
176.383
20
-96.4578
11
176.392
21
-96.4453
0
LINE
8
BLACK
6
CONTINUOUS
10
176.392
20
-96.4453
11
176.399
21
-96.4322
0
LINE
8
BLACK
6
CONTINUOUS
10
176.399
20
-96.4322
11
176.405
21
-96.4277
0
LINE
8
BLACK
6
CONTINUOUS
10
176.405
20
-96.4277
11
176.405
21
-95.5404
0
LINE
8
BLACK
6
CONTINUOUS
10
176.405
20
-95.5404
11
177.143
21
-95.5404
0
LINE
8
BLACK
6
CONTINUOUS
10
177.143
20
-95.5404
11
178.978
21
-93.7057
0
LINE
8
BLACK
6
CONTINUOUS
10
178.978
20
-93.7057
11
178.978
21
-88.4651
0
LINE
8
BLACK
6
CONTINUOUS
10
178.978
20
-88.4651
11
177.143
21
-86.6304
0
LINE
8
BLACK
6
CONTINUOUS
10
177.143
20
-86.6304
11
176.405
21
-86.6304
0
LINE
8
BLACK
6
CONTINUOUS
10
176.405
20
-86.6304
11
176.405
21
-85.4304
0
LINE
8
BLACK
6
CONTINUOUS
10
176.405
20
-85.4304
11
177.143
21
-85.4304
0
LINE
8
BLACK
6
CONTINUOUS
10
177.143
20
-85.4304
11
178.951
21
-83.6221
0
LINE
8
BLACK
6
CONTINUOUS
10
178.951
20
-83.6221
11
178.951
21
-78.3387
0
LINE
8
BLACK
6
CONTINUOUS
10
178.951
20
-78.3387
11
177.143
21
-76.5304
0
LINE
8
BLACK
6
CONTINUOUS
10
177.143
20
-76.5304
11
176.405
21
-76.5304
0
LINE
8
BLACK
6
CONTINUOUS
10
176.405
20
-76.5304
11
176.405
21
-75.3304
0
LINE
8
BLACK
6
CONTINUOUS
10
176.405
20
-75.3304
11
177.143
21
-75.3304
0
LINE
8
BLACK
6
CONTINUOUS
10
177.143
20
-75.3304
11
177.624
21
-74.8497
0
LINE
8
BLACK
6
CONTINUOUS
10
177.624
20
-74.8497
11
177.624
21
-72.6958
0
LINE
8
BLACK
6
CONTINUOUS
10
177.624
20
-72.6958
11
176.64
21
-71.712
0
LINE
8
BLACK
6
CONTINUOUS
10
176.64
20
-71.712
11
127.012
21
-71.712
0
LINE
8
BLACK
6
CONTINUOUS
10
127.012
20
-71.712
11
126.388
21
-72.3354
0
LINE
8
BLACK
6
CONTINUOUS
10
126.388
20
-72.3354
11
126.411
21
-72.3981
0
LINE
8
BLACK
6
CONTINUOUS
10
126.411
20
-72.3981
11
126.411
21
-72.5039
0
LINE
8
BLACK
6
CONTINUOUS
10
126.411
20
-72.5039
11
126.375
21
-72.6033
0
LINE
8
BLACK
6
CONTINUOUS
10
126.375
20
-72.6033
11
126.307
21
-72.6843
0
LINE
8
BLACK
6
CONTINUOUS
10
126.307
20
-72.6843
11
126.215
21
-72.7372
0
LINE
8
BLACK
6
CONTINUOUS
10
126.215
20
-72.7372
11
126.111
21
-72.7556
0
LINE
8
BLACK
6
CONTINUOUS
10
126.111
20
-72.7556
11
126.007
21
-72.7372
0
LINE
8
BLACK
6
CONTINUOUS
10
126.007
20
-72.7372
11
125.915
21
-72.6843
0
LINE
8
BLACK
6
CONTINUOUS
10
125.915
20
-72.6843
11
125.847
21
-72.6033
0
LINE
8
BLACK
6
CONTINUOUS
10
125.847
20
-72.6033
11
125.811
21
-72.5039
0
LINE
8
BLACK
6
CONTINUOUS
10
125.811
20
-72.5039
11
125.811
21
-72.3981
0
LINE
8
BLACK
6
CONTINUOUS
10
125.811
20
-72.3981
11
125.847
21
-72.2986
0
LINE
8
BLACK
6
CONTINUOUS
10
125.847
20
-72.2986
11
125.915
21
-72.2176
0
LINE
8
BLACK
6
CONTINUOUS
10
125.915
20
-72.2176
11
126.007
21
-72.1647
0
LINE
8
BLACK
6
CONTINUOUS
10
126.007
20
-72.1647
11
126.111
21
-72.1463
0
LINE
8
BLACK
6
CONTINUOUS
10
126.111
20
-72.1463
11
126.215
21
-72.1647
0
LINE
8
BLACK
6
CONTINUOUS
10
126.215
20
-72.1647
11
126.228
21
-72.1722
0
LINE
8
BLACK
6
CONTINUOUS
10
126.228
20
-72.1722
11
126.88
21
-71.5204
0
LINE
8
BLACK
6
CONTINUOUS
10
126.88
20
-71.5204
11
126.89
21
-71.5088
0
LINE
8
BLACK
6
CONTINUOUS
10
126.89
20
-71.5088
11
126.903
21
-71.5012
0
LINE
8
BLACK
6
CONTINUOUS
10
126.903
20
-71.5012
11
126.915
21
-71.4925
0
LINE
8
BLACK
6
CONTINUOUS
10
126.915
20
-71.4925
11
126.92
21
-71.4912
0
LINE
8
BLACK
6
CONTINUOUS
10
126.92
20
-71.4912
11
126.925
21
-71.4886
0
LINE
8
BLACK
6
CONTINUOUS
10
126.925
20
-71.4886
11
126.94
21
-71.486
0
LINE
8
BLACK
6
CONTINUOUS
10
126.94
20
-71.486
11
126.954
21
-71.482
0
LINE
8
BLACK
6
CONTINUOUS
10
126.954
20
-71.482
11
126.969
21
-71.4834
0
LINE
8
BLACK
6
CONTINUOUS
10
126.969
20
-71.4834
11
176.682
21
-71.4834
0
LINE
8
BLACK
6
CONTINUOUS
10
176.682
20
-71.4834
11
176.697
21
-71.482
0
LINE
8
BLACK
6
CONTINUOUS
10
176.697
20
-71.482
11
176.712
21
-71.486
0
LINE
8
BLACK
6
CONTINUOUS
10
176.712
20
-71.486
11
176.727
21
-71.4886
0
LINE
8
BLACK
6
CONTINUOUS
10
176.727
20
-71.4886
11
176.731
21
-71.4912
0
LINE
8
BLACK
6
CONTINUOUS
10
176.731
20
-71.4912
11
176.736
21
-71.4925
0
LINE
8
BLACK
6
CONTINUOUS
10
176.736
20
-71.4925
11
176.749
21
-71.5012
0
LINE
8
BLACK
6
CONTINUOUS
10
176.749
20
-71.5012
11
176.762
21
-71.5088
0
LINE
8
BLACK
6
CONTINUOUS
10
176.762
20
-71.5088
11
176.772
21
-71.5204
0
LINE
8
BLACK
6
CONTINUOUS
10
176.772
20
-71.5204
11
177.815
21
-72.5641
0
LINE
8
BLACK
6
CONTINUOUS
10
177.815
20
-72.5641
11
177.827
21
-72.5738
0
LINE
8
BLACK
6
CONTINUOUS
10
177.827
20
-72.5738
11
177.834
21
-72.587
0
LINE
8
BLACK
6
CONTINUOUS
10
177.834
20
-72.587
11
177.843
21
-72.5994
0
LINE
8
BLACK
6
CONTINUOUS
10
177.843
20
-72.5994
11
177.844
21
-72.6043
0
LINE
8
BLACK
6
CONTINUOUS
10
177.844
20
-72.6043
11
177.847
21
-72.6087
0
LINE
8
BLACK
6
CONTINUOUS
10
177.847
20
-72.6087
11
177.85
21
-72.6237
0
LINE
8
BLACK
6
CONTINUOUS
10
177.85
20
-72.6237
11
177.854
21
-72.6383
0
LINE
8
BLACK
6
CONTINUOUS
10
177.854
20
-72.6383
11
177.852
21
-72.6534
0
LINE
8
BLACK
6
CONTINUOUS
10
177.852
20
-72.6534
11
177.852
21
-74.8921
0
LINE
8
BLACK
6
CONTINUOUS
10
177.852
20
-74.8921
11
177.854
21
-74.9072
0
LINE
8
BLACK
6
CONTINUOUS
10
177.854
20
-74.9072
11
177.85
21
-74.9218
0
LINE
8
BLACK
6
CONTINUOUS
10
177.85
20
-74.9218
11
177.847
21
-74.9367
0
LINE
8
BLACK
6
CONTINUOUS
10
177.847
20
-74.9367
11
177.844
21
-74.9412
0
LINE
8
BLACK
6
CONTINUOUS
10
177.844
20
-74.9412
11
177.843
21
-74.9461
0
LINE
8
BLACK
6
CONTINUOUS
10
177.843
20
-74.9461
11
177.834
21
-74.9585
0
LINE
8
BLACK
6
CONTINUOUS
10
177.834
20
-74.9585
11
177.827
21
-74.9717
0
LINE
8
BLACK
6
CONTINUOUS
10
177.827
20
-74.9717
11
177.815
21
-74.9814
0
LINE
8
BLACK
6
CONTINUOUS
10
177.815
20
-74.9814
11
177.305
21
-75.492
0
LINE
8
BLACK
6
CONTINUOUS
10
177.305
20
-75.492
11
177.305
21
-76.3688
0
LINE
8
BLACK
6
CONTINUOUS
10
177.305
20
-76.3688
11
179.143
21
-78.207
0
LINE
8
BLACK
6
CONTINUOUS
10
179.143
20
-78.207
11
179.155
21
-78.2168
0
LINE
8
BLACK
6
CONTINUOUS
10
179.155
20
-78.2168
11
179.162
21
-78.2299
0
LINE
8
BLACK
6
CONTINUOUS
10
179.162
20
-78.2299
11
179.171
21
-78.2423
0
LINE
8
BLACK
6
CONTINUOUS
10
179.171
20
-78.2423
11
179.172
21
-78.2473
0
LINE
8
BLACK
6
CONTINUOUS
10
179.172
20
-78.2473
11
179.175
21
-78.2517
0
LINE
8
BLACK
6
CONTINUOUS
10
179.175
20
-78.2517
11
179.177
21
-78.2666
0
LINE
8
BLACK
6
CONTINUOUS
10
179.177
20
-78.2666
11
179.181
21
-78.2813
0
LINE
8
BLACK
6
CONTINUOUS
10
179.181
20
-78.2813
11
179.18
21
-78.2964
0
LINE
8
BLACK
6
CONTINUOUS
10
179.18
20
-78.2964
11
179.18
21
-83.6644
0
LINE
8
BLACK
6
CONTINUOUS
10
179.18
20
-83.6644
11
179.181
21
-83.6795
0
LINE
8
BLACK
6
CONTINUOUS
10
179.181
20
-83.6795
11
179.177
21
-83.6942
0
LINE
8
BLACK
6
CONTINUOUS
10
179.177
20
-83.6942
11
179.175
21
-83.7091
0
LINE
8
BLACK
6
CONTINUOUS
10
179.175
20
-83.7091
11
179.172
21
-83.7135
0
LINE
8
BLACK
6
CONTINUOUS
10
179.172
20
-83.7135
11
179.171
21
-83.7185
0
LINE
8
BLACK
6
CONTINUOUS
10
179.171
20
-83.7185
11
179.162
21
-83.7309
0
LINE
8
BLACK
6
CONTINUOUS
10
179.162
20
-83.7309
11
179.155
21
-83.744
0
LINE
8
BLACK
6
CONTINUOUS
10
179.155
20
-83.744
11
179.143
21
-83.7538
0
LINE
8
BLACK
6
CONTINUOUS
10
179.143
20
-83.7538
11
177.305
21
-85.592
0
LINE
8
BLACK
6
CONTINUOUS
10
177.305
20
-85.592
11
177.305
21
-86.4688
0
LINE
8
BLACK
6
CONTINUOUS
10
177.305
20
-86.4688
11
179.169
21
-88.3334
0
LINE
8
BLACK
6
CONTINUOUS
10
179.169
20
-88.3334
11
179.181
21
-88.3431
0
LINE
8
BLACK
6
CONTINUOUS
10
179.181
20
-88.3431
11
179.188
21
-88.3563
0
LINE
8
BLACK
6
CONTINUOUS
10
179.188
20
-88.3563
11
179.197
21
-88.3687
0
LINE
8
BLACK
6
CONTINUOUS
10
179.197
20
-88.3687
11
179.198
21
-88.3736
0
LINE
8
BLACK
6
CONTINUOUS
10
179.198
20
-88.3736
11
179.201
21
-88.3781
0
LINE
8
BLACK
6
CONTINUOUS
10
179.201
20
-88.3781
11
179.204
21
-88.393
0
LINE
8
BLACK
6
CONTINUOUS
10
179.204
20
-88.393
11
179.208
21
-88.4076
0
LINE
8
BLACK
6
CONTINUOUS
10
179.208
20
-88.4076
11
179.206
21
-88.4227
0
LINE
8
BLACK
6
CONTINUOUS
10
179.206
20
-88.4227
11
179.206
21
-93.7481
0
LINE
8
BLACK
6
CONTINUOUS
10
179.206
20
-93.7481
11
179.208
21
-93.7632
0
LINE
8
BLACK
6
CONTINUOUS
10
179.208
20
-93.7632
11
179.204
21
-93.7778
0
LINE
8
BLACK
6
CONTINUOUS
10
179.204
20
-93.7778
11
179.201
21
-93.7927
0
LINE
8
BLACK
6
CONTINUOUS
10
179.201
20
-93.7927
11
179.198
21
-93.7972
0
LINE
8
BLACK
6
CONTINUOUS
10
179.198
20
-93.7972
11
179.197
21
-93.8021
0
LINE
8
BLACK
6
CONTINUOUS
10
179.197
20
-93.8021
11
179.188
21
-93.8145
0
LINE
8
BLACK
6
CONTINUOUS
10
179.188
20
-93.8145
11
179.181
21
-93.8277
0
LINE
8
BLACK
6
CONTINUOUS
10
179.181
20
-93.8277
11
179.169
21
-93.8374
0
LINE
8
BLACK
6
CONTINUOUS
10
179.169
20
-93.8374
11
177.305
21
-95.702
0
LINE
8
BLACK
6
CONTINUOUS
10
177.305
20
-95.702
11
177.305
21
-96.7404
0
LINE
8
BLACK
6
CONTINUOUS
10
177.305
20
-96.7404
11
176.602
21
-96.7404
0
LINE
8
BLACK
6
CONTINUOUS
10
176.602
20
-96.7404
11
176.602
21
-103.044
0
LINE
8
BLACK
6
CONTINUOUS
10
176.602
20
-103.044
11
177.533
21
-103.044
0
LINE
8
BLACK
6
CONTINUOUS
10
177.533
20
-103.044
11
177.548
21
-103.043
0
LINE
8
BLACK
6
CONTINUOUS
10
177.548
20
-103.043
11
177.563
21
-103.047
0
LINE
8
BLACK
6
CONTINUOUS
10
177.563
20
-103.047
11
177.578
21
-103.049
0
LINE
8
BLACK
6
CONTINUOUS
10
177.578
20
-103.049
11
177.582
21
-103.052
0
LINE
8
BLACK
6
CONTINUOUS
10
177.582
20
-103.052
11
177.587
21
-103.053
0
LINE
8
BLACK
6
CONTINUOUS
10
177.587
20
-103.053
11
177.6
21
-103.062
0
LINE
8
BLACK
6
CONTINUOUS
10
177.6
20
-103.062
11
177.613
21
-103.069
0
LINE
8
BLACK
6
CONTINUOUS
10
177.613
20
-103.069
11
177.623
21
-103.081
0
LINE
8
BLACK
6
CONTINUOUS
10
177.623
20
-103.081
11
177.674
21
-103.132
0
LINE
8
BLACK
6
CONTINUOUS
10
177.674
20
-103.132
11
177.686
21
-103.142
0
LINE
8
BLACK
6
CONTINUOUS
10
177.686
20
-103.142
11
177.693
21
-103.155
0
LINE
8
BLACK
6
CONTINUOUS
10
177.693
20
-103.155
11
177.702
21
-103.168
0
LINE
8
BLACK
6
CONTINUOUS
10
177.702
20
-103.168
11
177.703
21
-103.173
0
LINE
8
BLACK
6
CONTINUOUS
10
177.703
20
-103.173
11
177.706
21
-103.177
0
LINE
8
BLACK
6
CONTINUOUS
10
177.706
20
-103.177
11
177.708
21
-103.192
0
LINE
8
BLACK
6
CONTINUOUS
10
177.708
20
-103.192
11
177.712
21
-103.207
0
LINE
8
BLACK
6
CONTINUOUS
10
177.712
20
-103.207
11
177.711
21
-103.222
0
LINE
8
BLACK
6
CONTINUOUS
10
177.711
20
-103.222
11
177.711
21
-104.879
0
LINE
8
BLACK
6
CONTINUOUS
10
177.711
20
-104.879
11
177.712
21
-104.894
0
LINE
8
BLACK
6
CONTINUOUS
10
177.712
20
-104.894
11
177.708
21
-104.909
0
LINE
8
BLACK
6
CONTINUOUS
10
177.708
20
-104.909
11
177.706
21
-104.924
0
LINE
8
BLACK
6
CONTINUOUS
10
177.706
20
-104.924
11
177.703
21
-104.928
0
LINE
8
BLACK
6
CONTINUOUS
10
177.703
20
-104.928
11
177.702
21
-104.933
0
LINE
8
BLACK
6
CONTINUOUS
10
177.702
20
-104.933
11
177.693
21
-104.946
0
LINE
8
BLACK
6
CONTINUOUS
10
177.693
20
-104.946
11
177.686
21
-104.959
0
LINE
8
BLACK
6
CONTINUOUS
10
177.686
20
-104.959
11
177.674
21
-104.968
0
LINE
8
BLACK
6
CONTINUOUS
10
177.674
20
-104.968
11
177.623
21
-105.02
0
LINE
8
BLACK
6
CONTINUOUS
10
177.623
20
-105.02
11
177.613
21
-105.031
0
LINE
8
BLACK
6
CONTINUOUS
10
177.613
20
-105.031
11
177.6
21
-105.039
0
LINE
8
BLACK
6
CONTINUOUS
10
177.6
20
-105.039
11
177.587
21
-105.048
0
LINE
8
BLACK
6
CONTINUOUS
10
177.587
20
-105.048
11
177.582
21
-105.049
0
LINE
8
BLACK
6
CONTINUOUS
10
177.582
20
-105.049
11
177.578
21
-105.052
0
LINE
8
BLACK
6
CONTINUOUS
10
177.578
20
-105.052
11
177.563
21
-105.054
0
LINE
8
BLACK
6
CONTINUOUS
10
177.563
20
-105.054
11
177.548
21
-105.058
0
LINE
8
BLACK
6
CONTINUOUS
10
177.548
20
-105.058
11
177.533
21
-105.057
0
LINE
8
BLACK
6
CONTINUOUS
10
177.533
20
-105.057
11
176.602
21
-105.057
0
LINE
8
BLACK
6
CONTINUOUS
10
176.602
20
-105.057
11
176.602
21
-105.65
0
LINE
8
BLACK
6
CONTINUOUS
10
176.602
20
-105.65
11
177.305
21
-105.65
0
LINE
8
BLACK
6
CONTINUOUS
10
177.305
20
-105.65
11
177.305
21
-106.85
0
LINE
8
BLACK
6
CONTINUOUS
10
177.305
20
-106.85
11
176.405
21
-106.85
0
LINE
8
BLACK
6
CONTINUOUS
10
176.405
20
-106.85
11
176.405
21
-105.963
0
LINE
8
BLACK
6
CONTINUOUS
10
176.405
20
-105.963
11
176.399
21
-105.959
0
LINE
8
BLACK
6
CONTINUOUS
10
176.399
20
-105.959
11
176.392
21
-105.945
0
LINE
8
BLACK
6
CONTINUOUS
10
176.392
20
-105.945
11
176.383
21
-105.933
0
LINE
8
BLACK
6
CONTINUOUS
10
176.383
20
-105.933
11
176.382
21
-105.928
0
LINE
8
BLACK
6
CONTINUOUS
10
176.382
20
-105.928
11
176.379
21
-105.924
0
LINE
8
BLACK
6
CONTINUOUS
10
176.379
20
-105.924
11
176.376
21
-105.909
0
LINE
8
BLACK
6
CONTINUOUS
10
176.376
20
-105.909
11
176.373
21
-105.894
0
LINE
8
BLACK
6
CONTINUOUS
10
176.373
20
-105.894
11
176.374
21
-105.879
0
LINE
8
BLACK
6
CONTINUOUS
10
176.374
20
-105.879
11
176.374
21
-104.963
0
LINE
8
BLACK
6
CONTINUOUS
10
176.374
20
-104.963
11
176.374
21
-104.963
0
LINE
8
BLACK
6
CONTINUOUS
10
176.374
20
-104.963
11
176.374
21
-104.922
0
LINE
8
BLACK
6
CONTINUOUS
10
176.374
20
-104.922
11
176.377
21
-104.913
0
LINE
8
BLACK
6
CONTINUOUS
10
176.377
20
-104.913
11
176.379
21
-104.903
0
LINE
8
BLACK
6
CONTINUOUS
10
176.379
20
-104.903
11
176.384
21
-104.894
0
LINE
8
BLACK
6
CONTINUOUS
10
176.384
20
-104.894
11
176.388
21
-104.884
0
LINE
8
BLACK
6
CONTINUOUS
10
176.388
20
-104.884
11
176.394
21
-104.877
0
LINE
8
BLACK
6
CONTINUOUS
10
176.394
20
-104.877
11
176.399
21
-104.868
0
LINE
8
BLACK
6
CONTINUOUS
10
176.399
20
-104.868
11
176.407
21
-104.861
0
LINE
8
BLACK
6
CONTINUOUS
10
176.407
20
-104.861
11
176.414
21
-104.854
0
LINE
8
BLACK
6
CONTINUOUS
10
176.414
20
-104.854
11
176.422
21
-104.849
0
LINE
8
BLACK
6
CONTINUOUS
10
176.422
20
-104.849
11
176.43
21
-104.842
0
LINE
8
BLACK
6
CONTINUOUS
10
176.43
20
-104.842
11
176.44
21
-104.839
0
LINE
8
BLACK
6
CONTINUOUS
10
176.44
20
-104.839
11
176.448
21
-104.833
0
LINE
8
BLACK
6
CONTINUOUS
10
176.448
20
-104.833
11
176.458
21
-104.832
0
LINE
8
BLACK
6
CONTINUOUS
10
176.458
20
-104.832
11
176.468
21
-104.828
0
LINE
8
BLACK
6
CONTINUOUS
10
176.468
20
-104.828
11
177.482
21
-104.828
0
LINE
8
BLACK
6
CONTINUOUS
10
177.482
20
-104.828
11
177.482
21
-103.273
0
LINE
8
BLACK
6
CONTINUOUS
10
141.995
20
-103.45
11
142.895
21
-103.45
0
LINE
8
BLACK
6
CONTINUOUS
10
142.895
20
-103.45
11
142.895
21
-103.936
0
LINE
8
BLACK
6
CONTINUOUS
10
142.895
20
-103.936
11
152.305
21
-103.936
0
LINE
8
BLACK
6
CONTINUOUS
10
152.305
20
-103.936
11
152.305
21
-103.45
0
LINE
8
BLACK
6
CONTINUOUS
10
152.305
20
-103.45
11
153.205
21
-103.45
0
LINE
8
BLACK
6
CONTINUOUS
10
153.205
20
-103.45
11
153.205
21
-103.936
0
LINE
8
BLACK
6
CONTINUOUS
10
153.205
20
-103.936
11
166.095
21
-103.936
0
LINE
8
BLACK
6
CONTINUOUS
10
166.095
20
-103.936
11
166.095
21
-103.45
0
LINE
8
BLACK
6
CONTINUOUS
10
166.095
20
-103.45
11
166.995
21
-103.45
0
LINE
8
BLACK
6
CONTINUOUS
10
166.995
20
-103.45
11
166.995
21
-103.936
0
LINE
8
BLACK
6
CONTINUOUS
10
166.995
20
-103.936
11
176.405
21
-103.936
0
LINE
8
BLACK
6
CONTINUOUS
10
176.405
20
-103.936
11
176.405
21
-103.45
0
LINE
8
BLACK
6
CONTINUOUS
10
176.405
20
-103.45
11
177.305
21
-103.45
0
LINE
8
BLACK
6
CONTINUOUS
10
177.305
20
-103.45
11
177.305
21
-104.65
0
LINE
8
BLACK
6
CONTINUOUS
10
177.305
20
-104.65
11
176.405
21
-104.65
0
LINE
8
BLACK
6
CONTINUOUS
10
176.405
20
-104.65
11
176.405
21
-104.165
0
LINE
8
BLACK
6
CONTINUOUS
10
176.405
20
-104.165
11
166.995
21
-104.165
0
LINE
8
BLACK
6
CONTINUOUS
10
166.995
20
-104.165
11
166.995
21
-104.65
0
LINE
8
BLACK
6
CONTINUOUS
10
166.995
20
-104.65
11
166.095
21
-104.65
0
LINE
8
BLACK
6
CONTINUOUS
10
166.095
20
-104.65
11
166.095
21
-104.165
0
LINE
8
BLACK
6
CONTINUOUS
10
166.095
20
-104.165
11
153.205
21
-104.165
0
LINE
8
BLACK
6
CONTINUOUS
10
153.205
20
-104.165
11
153.205
21
-104.65
0
LINE
8
BLACK
6
CONTINUOUS
10
153.205
20
-104.65
11
152.305
21
-104.65
0
LINE
8
BLACK
6
CONTINUOUS
10
152.305
20
-104.65
11
152.305
21
-104.165
0
LINE
8
BLACK
6
CONTINUOUS
10
152.305
20
-104.165
11
142.895
21
-104.165
0
LINE
8
BLACK
6
CONTINUOUS
10
142.895
20
-104.165
11
142.895
21
-104.65
0
LINE
8
BLACK
6
CONTINUOUS
10
142.895
20
-104.65
11
141.995
21
-104.65
0
LINE
8
BLACK
6
CONTINUOUS
10
141.995
20
-104.65
11
141.995
21
-104.165
0
LINE
8
BLACK
6
CONTINUOUS
10
141.995
20
-104.165
11
129.095
21
-104.165
0
LINE
8
BLACK
6
CONTINUOUS
10
129.095
20
-104.165
11
129.095
21
-104.65
0
LINE
8
BLACK
6
CONTINUOUS
10
129.095
20
-104.65
11
128.195
21
-104.65
0
LINE
8
BLACK
6
CONTINUOUS
10
128.195
20
-104.65
11
128.195
21
-104.165
0
LINE
8
BLACK
6
CONTINUOUS
10
128.195
20
-104.165
11
118.785
21
-104.165
0
LINE
8
BLACK
6
CONTINUOUS
10
118.785
20
-104.165
11
118.785
21
-104.65
0
LINE
8
BLACK
6
CONTINUOUS
10
118.785
20
-104.65
11
117.885
21
-104.65
0
LINE
8
BLACK
6
CONTINUOUS
10
117.885
20
-104.65
11
117.885
21
-103.45
0
LINE
8
BLACK
6
CONTINUOUS
10
117.885
20
-103.45
11
118.773
21
-103.45
0
LINE
8
BLACK
6
CONTINUOUS
10
118.773
20
-103.45
11
119.155
21
-103.068
0
LINE
8
BLACK
6
CONTINUOUS
10
119.155
20
-103.068
11
119.116
21
-103.022
0
LINE
8
BLACK
6
CONTINUOUS
10
119.116
20
-103.022
11
119.08
21
-102.923
0
LINE
8
BLACK
6
CONTINUOUS
10
119.08
20
-102.923
11
119.08
21
-102.817
0
LINE
8
BLACK
6
CONTINUOUS
10
119.08
20
-102.817
11
119.116
21
-102.718
0
LINE
8
BLACK
6
CONTINUOUS
10
119.116
20
-102.718
11
119.184
21
-102.637
0
LINE
8
BLACK
6
CONTINUOUS
10
119.184
20
-102.637
11
119.276
21
-102.584
0
LINE
8
BLACK
6
CONTINUOUS
10
119.276
20
-102.584
11
119.38
21
-102.565
0
LINE
8
BLACK
6
CONTINUOUS
10
119.38
20
-102.565
11
119.484
21
-102.584
0
LINE
8
BLACK
6
CONTINUOUS
10
119.484
20
-102.584
11
119.576
21
-102.637
0
LINE
8
BLACK
6
CONTINUOUS
10
119.576
20
-102.637
11
119.644
21
-102.718
0
LINE
8
BLACK
6
CONTINUOUS
10
119.644
20
-102.718
11
119.68
21
-102.817
0
LINE
8
BLACK
6
CONTINUOUS
10
119.68
20
-102.817
11
119.68
21
-102.923
0
LINE
8
BLACK
6
CONTINUOUS
10
119.68
20
-102.923
11
119.644
21
-103.022
0
LINE
8
BLACK
6
CONTINUOUS
10
119.644
20
-103.022
11
119.576
21
-103.103
0
LINE
8
BLACK
6
CONTINUOUS
10
119.576
20
-103.103
11
119.484
21
-103.156
0
LINE
8
BLACK
6
CONTINUOUS
10
119.484
20
-103.156
11
119.38
21
-103.175
0
LINE
8
BLACK
6
CONTINUOUS
10
119.38
20
-103.175
11
119.373
21
-103.173
0
LINE
8
BLACK
6
CONTINUOUS
10
119.373
20
-103.173
11
118.785
21
-103.762
0
LINE
8
BLACK
6
CONTINUOUS
10
118.785
20
-103.762
11
118.785
21
-103.936
0
LINE
8
BLACK
6
CONTINUOUS
10
118.785
20
-103.936
11
128.195
21
-103.936
0
LINE
8
BLACK
6
CONTINUOUS
10
128.195
20
-103.936
11
128.195
21
-103.45
0
LINE
8
BLACK
6
CONTINUOUS
10
128.195
20
-103.45
11
129.095
21
-103.45
0
LINE
8
BLACK
6
CONTINUOUS
10
129.095
20
-103.45
11
129.095
21
-103.936
0
LINE
8
BLACK
6
CONTINUOUS
10
129.095
20
-103.936
11
141.995
21
-103.936
0
LINE
8
BLACK
6
CONTINUOUS
10
141.995
20
-103.936
11
141.995
21
-103.45
0
LINE
8
BLACK
6
CONTINUOUS
10
185.488
20
-101.114
11
182.888
21
-101.114
0
LINE
8
BLACK
6
CONTINUOUS
10
182.888
20
-101.114
11
182.888
21
-99.1141
0
LINE
8
BLACK
6
CONTINUOUS
10
182.888
20
-99.1141
11
185.488
21
-99.1141
0
LINE
8
BLACK
6
CONTINUOUS
10
185.488
20
-99.1141
11
185.488
21
-101.114
0
LINE
8
BLACK
6
CONTINUOUS
10
147.294
20
-98.2637
11
147.386
21
-98.3166
0
LINE
8
BLACK
6
CONTINUOUS
10
147.386
20
-98.3166
11
147.454
21
-98.3977
0
LINE
8
BLACK
6
CONTINUOUS
10
147.454
20
-98.3977
11
147.49
21
-98.4971
0
LINE
8
BLACK
6
CONTINUOUS
10
147.49
20
-98.4971
11
147.49
21
-98.6029
0
LINE
8
BLACK
6
CONTINUOUS
10
147.49
20
-98.6029
11
147.454
21
-98.7023
0
LINE
8
BLACK
6
CONTINUOUS
10
147.454
20
-98.7023
11
147.386
21
-98.7834
0
LINE
8
BLACK
6
CONTINUOUS
10
147.386
20
-98.7834
11
147.294
21
-98.8363
0
LINE
8
BLACK
6
CONTINUOUS
10
147.294
20
-98.8363
11
147.19
21
-98.8546
0
LINE
8
BLACK
6
CONTINUOUS
10
147.19
20
-98.8546
11
147.086
21
-98.8363
0
LINE
8
BLACK
6
CONTINUOUS
10
147.086
20
-98.8363
11
146.994
21
-98.7834
0
LINE
8
BLACK
6
CONTINUOUS
10
146.994
20
-98.7834
11
146.926
21
-98.7023
0
LINE
8
BLACK
6
CONTINUOUS
10
146.926
20
-98.7023
11
146.898
21
-98.6262
0
LINE
8
BLACK
6
CONTINUOUS
10
146.898
20
-98.6262
11
118.25
21
-98.6262
0
LINE
8
BLACK
6
CONTINUOUS
10
118.25
20
-98.6262
11
118.25
21
-98.6629
0
LINE
8
BLACK
6
CONTINUOUS
10
118.25
20
-98.6629
11
118.214
21
-98.7623
0
LINE
8
BLACK
6
CONTINUOUS
10
118.214
20
-98.7623
11
118.146
21
-98.8434
0
LINE
8
BLACK
6
CONTINUOUS
10
118.146
20
-98.8434
11
118.054
21
-98.8963
0
LINE
8
BLACK
6
CONTINUOUS
10
118.054
20
-98.8963
11
117.95
21
-98.9146
0
LINE
8
BLACK
6
CONTINUOUS
10
117.95
20
-98.9146
11
117.846
21
-98.8963
0
LINE
8
BLACK
6
CONTINUOUS
10
117.846
20
-98.8963
11
117.754
21
-98.8434
0
LINE
8
BLACK
6
CONTINUOUS
10
117.754
20
-98.8434
11
117.686
21
-98.7623
0
LINE
8
BLACK
6
CONTINUOUS
10
117.686
20
-98.7623
11
117.65
21
-98.6629
0
LINE
8
BLACK
6
CONTINUOUS
10
117.65
20
-98.6629
11
117.65
21
-98.5571
0
LINE
8
BLACK
6
CONTINUOUS
10
117.65
20
-98.5571
11
117.686
21
-98.4577
0
LINE
8
BLACK
6
CONTINUOUS
10
117.686
20
-98.4577
11
117.754
21
-98.3766
0
LINE
8
BLACK
6
CONTINUOUS
10
117.754
20
-98.3766
11
117.846
21
-98.3237
0
LINE
8
BLACK
6
CONTINUOUS
10
117.846
20
-98.3237
11
117.95
21
-98.3054
0
LINE
8
BLACK
6
CONTINUOUS
10
117.95
20
-98.3054
11
118.054
21
-98.3237
0
LINE
8
BLACK
6
CONTINUOUS
10
118.054
20
-98.3237
11
118.146
21
-98.3766
0
LINE
8
BLACK
6
CONTINUOUS
10
118.146
20
-98.3766
11
118.214
21
-98.4577
0
LINE
8
BLACK
6
CONTINUOUS
10
118.214
20
-98.4577
11
118.22
21
-98.4738
0
LINE
8
BLACK
6
CONTINUOUS
10
118.22
20
-98.4738
11
146.898
21
-98.4738
0
LINE
8
BLACK
6
CONTINUOUS
10
146.898
20
-98.4738
11
146.926
21
-98.3977
0
LINE
8
BLACK
6
CONTINUOUS
10
146.926
20
-98.3977
11
146.994
21
-98.3166
0
LINE
8
BLACK
6
CONTINUOUS
10
146.994
20
-98.3166
11
147.086
21
-98.2637
0
LINE
8
BLACK
6
CONTINUOUS
10
147.086
20
-98.2637
11
147.19
21
-98.2454
0
LINE
8
BLACK
6
CONTINUOUS
10
147.19
20
-98.2454
11
147.294
21
-98.2637
0
LINE
8
BLACK
6
CONTINUOUS
10
184.835
20
-96.6199
11
185.141
21
-96.7962
0
LINE
8
BLACK
6
CONTINUOUS
10
185.141
20
-96.7962
11
185.367
21
-97.0664
0
LINE
8
BLACK
6
CONTINUOUS
10
185.367
20
-97.0664
11
185.488
21
-97.3978
0
LINE
8
BLACK
6
CONTINUOUS
10
185.488
20
-97.3978
11
185.488
21
-97.7504
0
LINE
8
BLACK
6
CONTINUOUS
10
185.488
20
-97.7504
11
185.367
21
-98.0818
0
LINE
8
BLACK
6
CONTINUOUS
10
185.367
20
-98.0818
11
185.141
21
-98.352
0
LINE
8
BLACK
6
CONTINUOUS
10
185.141
20
-98.352
11
184.835
21
-98.5283
0
LINE
8
BLACK
6
CONTINUOUS
10
184.835
20
-98.5283
11
184.576
21
-98.5741
0
LINE
8
BLACK
6
CONTINUOUS
10
184.576
20
-98.5741
11
183.801
21
-98.5741
0
LINE
8
BLACK
6
CONTINUOUS
10
183.801
20
-98.5741
11
183.541
21
-98.5283
0
LINE
8
BLACK
6
CONTINUOUS
10
183.541
20
-98.5283
11
183.235
21
-98.352
0
LINE
8
BLACK
6
CONTINUOUS
10
183.235
20
-98.352
11
183.009
21
-98.0818
0
LINE
8
BLACK
6
CONTINUOUS
10
183.009
20
-98.0818
11
182.888
21
-97.7504
0
LINE
8
BLACK
6
CONTINUOUS
10
182.888
20
-97.7504
11
182.888
21
-97.3978
0
LINE
8
BLACK
6
CONTINUOUS
10
182.888
20
-97.3978
11
183.009
21
-97.0664
0
LINE
8
BLACK
6
CONTINUOUS
10
183.009
20
-97.0664
11
183.235
21
-96.7962
0
LINE
8
BLACK
6
CONTINUOUS
10
183.235
20
-96.7962
11
183.541
21
-96.6199
0
LINE
8
BLACK
6
CONTINUOUS
10
183.541
20
-96.6199
11
183.801
21
-96.5741
0
LINE
8
BLACK
6
CONTINUOUS
10
183.801
20
-96.5741
11
184.576
21
-96.5741
0
LINE
8
BLACK
6
CONTINUOUS
10
184.576
20
-96.5741
11
184.835
21
-96.6199
0
LINE
8
BLACK
6
CONTINUOUS
10
125.144
20
-96.7137
11
125.236
21
-96.7666
0
LINE
8
BLACK
6
CONTINUOUS
10
125.236
20
-96.7666
11
125.304
21
-96.8477
0
LINE
8
BLACK
6
CONTINUOUS
10
125.304
20
-96.8477
11
125.34
21
-96.9471
0
LINE
8
BLACK
6
CONTINUOUS
10
125.34
20
-96.9471
11
125.34
21
-97.0529
0
LINE
8
BLACK
6
CONTINUOUS
10
125.34
20
-97.0529
11
125.304
21
-97.1523
0
LINE
8
BLACK
6
CONTINUOUS
10
125.304
20
-97.1523
11
125.302
21
-97.1543
0
LINE
8
BLACK
6
CONTINUOUS
10
125.302
20
-97.1543
11
125.902
21
-97.7538
0
LINE
8
BLACK
6
CONTINUOUS
10
125.902
20
-97.7538
11
146.168
21
-97.7538
0
LINE
8
BLACK
6
CONTINUOUS
10
146.168
20
-97.7538
11
146.196
21
-97.6777
0
LINE
8
BLACK
6
CONTINUOUS
10
146.196
20
-97.6777
11
146.264
21
-97.5966
0
LINE
8
BLACK
6
CONTINUOUS
10
146.264
20
-97.5966
11
146.356
21
-97.5437
0
LINE
8
BLACK
6
CONTINUOUS
10
146.356
20
-97.5437
11
146.46
21
-97.5254
0
LINE
8
BLACK
6
CONTINUOUS
10
146.46
20
-97.5254
11
146.564
21
-97.5437
0
LINE
8
BLACK
6
CONTINUOUS
10
146.564
20
-97.5437
11
146.656
21
-97.5966
0
LINE
8
BLACK
6
CONTINUOUS
10
146.656
20
-97.5966
11
146.724
21
-97.6777
0
LINE
8
BLACK
6
CONTINUOUS
10
146.724
20
-97.6777
11
146.76
21
-97.7771
0
LINE
8
BLACK
6
CONTINUOUS
10
146.76
20
-97.7771
11
146.76
21
-97.8829
0
LINE
8
BLACK
6
CONTINUOUS
10
146.76
20
-97.8829
11
146.724
21
-97.9823
0
LINE
8
BLACK
6
CONTINUOUS
10
146.724
20
-97.9823
11
146.656
21
-98.0634
0
LINE
8
BLACK
6
CONTINUOUS
10
146.656
20
-98.0634
11
146.564
21
-98.1163
0
LINE
8
BLACK
6
CONTINUOUS
10
146.564
20
-98.1163
11
146.46
21
-98.1346
0
LINE
8
BLACK
6
CONTINUOUS
10
146.46
20
-98.1346
11
146.356
21
-98.1163
0
LINE
8
BLACK
6
CONTINUOUS
10
146.356
20
-98.1163
11
146.264
21
-98.0634
0
LINE
8
BLACK
6
CONTINUOUS
10
146.264
20
-98.0634
11
146.196
21
-97.9823
0
LINE
8
BLACK
6
CONTINUOUS
10
146.196
20
-97.9823
11
146.168
21
-97.9062
0
LINE
8
BLACK
6
CONTINUOUS
10
146.168
20
-97.9062
11
125.873
21
-97.9062
0
LINE
8
BLACK
6
CONTINUOUS
10
125.873
20
-97.9062
11
125.863
21
-97.9071
0
LINE
8
BLACK
6
CONTINUOUS
10
125.863
20
-97.9071
11
125.853
21
-97.9045
0
LINE
8
BLACK
6
CONTINUOUS
10
125.853
20
-97.9045
11
125.844
21
-97.9027
0
LINE
8
BLACK
6
CONTINUOUS
10
125.844
20
-97.9027
11
125.841
21
-97.901
0
LINE
8
BLACK
6
CONTINUOUS
10
125.841
20
-97.901
11
125.837
21
-97.9001
0
LINE
8
BLACK
6
CONTINUOUS
10
125.837
20
-97.9001
11
125.829
21
-97.8943
0
LINE
8
BLACK
6
CONTINUOUS
10
125.829
20
-97.8943
11
125.82
21
-97.8893
0
LINE
8
BLACK
6
CONTINUOUS
10
125.82
20
-97.8893
11
125.814
21
-97.8815
0
LINE
8
BLACK
6
CONTINUOUS
10
125.814
20
-97.8815
11
125.191
21
-97.2591
0
LINE
8
BLACK
6
CONTINUOUS
10
125.191
20
-97.2591
11
125.144
21
-97.2863
0
LINE
8
BLACK
6
CONTINUOUS
10
125.144
20
-97.2863
11
125.04
21
-97.3046
0
LINE
8
BLACK
6
CONTINUOUS
10
125.04
20
-97.3046
11
124.936
21
-97.2863
0
LINE
8
BLACK
6
CONTINUOUS
10
124.936
20
-97.2863
11
124.844
21
-97.2334
0
LINE
8
BLACK
6
CONTINUOUS
10
124.844
20
-97.2334
11
124.776
21
-97.1523
0
LINE
8
BLACK
6
CONTINUOUS
10
124.776
20
-97.1523
11
124.74
21
-97.0529
0
LINE
8
BLACK
6
CONTINUOUS
10
124.74
20
-97.0529
11
124.74
21
-96.9471
0
LINE
8
BLACK
6
CONTINUOUS
10
124.74
20
-96.9471
11
124.776
21
-96.8477
0
LINE
8
BLACK
6
CONTINUOUS
10
124.776
20
-96.8477
11
124.844
21
-96.7666
0
LINE
8
BLACK
6
CONTINUOUS
10
124.844
20
-96.7666
11
124.936
21
-96.7137
0
LINE
8
BLACK
6
CONTINUOUS
10
124.936
20
-96.7137
11
125.04
21
-96.6954
0
LINE
8
BLACK
6
CONTINUOUS
10
125.04
20
-96.6954
11
125.144
21
-96.7137
0
LINE
8
BLACK
6
CONTINUOUS
10
166.995
20
-96.0261
11
167.342
21
-96.0261
0
LINE
8
BLACK
6
CONTINUOUS
10
167.342
20
-96.0261
11
167.358
21
-95.9816
0
LINE
8
BLACK
6
CONTINUOUS
10
167.358
20
-95.9816
11
167.426
21
-95.9006
0
LINE
8
BLACK
6
CONTINUOUS
10
167.426
20
-95.9006
11
167.518
21
-95.8477
0
LINE
8
BLACK
6
CONTINUOUS
10
167.518
20
-95.8477
11
167.622
21
-95.8293
0
LINE
8
BLACK
6
CONTINUOUS
10
167.622
20
-95.8293
11
167.726
21
-95.8477
0
LINE
8
BLACK
6
CONTINUOUS
10
167.726
20
-95.8477
11
167.818
21
-95.9006
0
LINE
8
BLACK
6
CONTINUOUS
10
167.818
20
-95.9006
11
167.886
21
-95.9816
0
LINE
8
BLACK
6
CONTINUOUS
10
167.886
20
-95.9816
11
167.922
21
-96.081
0
LINE
8
BLACK
6
CONTINUOUS
10
167.922
20
-96.081
11
167.922
21
-96.1868
0
LINE
8
BLACK
6
CONTINUOUS
10
167.922
20
-96.1868
11
167.886
21
-96.2862
0
LINE
8
BLACK
6
CONTINUOUS
10
167.886
20
-96.2862
11
167.818
21
-96.3673
0
LINE
8
BLACK
6
CONTINUOUS
10
167.818
20
-96.3673
11
167.726
21
-96.4202
0
LINE
8
BLACK
6
CONTINUOUS
10
167.726
20
-96.4202
11
167.622
21
-96.4385
0
LINE
8
BLACK
6
CONTINUOUS
10
167.622
20
-96.4385
11
167.518
21
-96.4202
0
LINE
8
BLACK
6
CONTINUOUS
10
167.518
20
-96.4202
11
167.426
21
-96.3673
0
LINE
8
BLACK
6
CONTINUOUS
10
167.426
20
-96.3673
11
167.358
21
-96.2862
0
LINE
8
BLACK
6
CONTINUOUS
10
167.358
20
-96.2862
11
167.347
21
-96.2547
0
LINE
8
BLACK
6
CONTINUOUS
10
167.347
20
-96.2547
11
166.995
21
-96.2547
0
LINE
8
BLACK
6
CONTINUOUS
10
166.995
20
-96.2547
11
166.995
21
-96.7404
0
LINE
8
BLACK
6
CONTINUOUS
10
166.995
20
-96.7404
11
166.095
21
-96.7404
0
LINE
8
BLACK
6
CONTINUOUS
10
166.095
20
-96.7404
11
166.095
21
-95.5404
0
LINE
8
BLACK
6
CONTINUOUS
10
166.095
20
-95.5404
11
166.995
21
-95.5404
0
LINE
8
BLACK
6
CONTINUOUS
10
166.995
20
-95.5404
11
166.995
21
-96.0261
0
LINE
8
BLACK
6
CONTINUOUS
10
143.246
20
-95.9867
11
143.314
21
-95.9056
0
LINE
8
BLACK
6
CONTINUOUS
10
143.314
20
-95.9056
11
143.406
21
-95.8527
0
LINE
8
BLACK
6
CONTINUOUS
10
143.406
20
-95.8527
11
143.51
21
-95.8344
0
LINE
8
BLACK
6
CONTINUOUS
10
143.51
20
-95.8344
11
143.614
21
-95.8527
0
LINE
8
BLACK
6
CONTINUOUS
10
143.614
20
-95.8527
11
143.706
21
-95.9056
0
LINE
8
BLACK
6
CONTINUOUS
10
143.706
20
-95.9056
11
143.774
21
-95.9867
0
LINE
8
BLACK
6
CONTINUOUS
10
143.774
20
-95.9867
11
143.81
21
-96.0861
0
LINE
8
BLACK
6
CONTINUOUS
10
143.81
20
-96.0861
11
143.81
21
-96.1919
0
LINE
8
BLACK
6
CONTINUOUS
10
143.81
20
-96.1919
11
143.774
21
-96.2913
0
LINE
8
BLACK
6
CONTINUOUS
10
143.774
20
-96.2913
11
143.706
21
-96.3724
0
LINE
8
BLACK
6
CONTINUOUS
10
143.706
20
-96.3724
11
143.614
21
-96.4253
0
LINE
8
BLACK
6
CONTINUOUS
10
143.614
20
-96.4253
11
143.51
21
-96.4436
0
LINE
8
BLACK
6
CONTINUOUS
10
143.51
20
-96.4436
11
143.406
21
-96.4253
0
LINE
8
BLACK
6
CONTINUOUS
10
143.406
20
-96.4253
11
143.314
21
-96.3724
0
LINE
8
BLACK
6
CONTINUOUS
10
143.314
20
-96.3724
11
143.246
21
-96.2913
0
LINE
8
BLACK
6
CONTINUOUS
10
143.246
20
-96.2913
11
143.233
21
-96.2547
0
LINE
8
BLACK
6
CONTINUOUS
10
143.233
20
-96.2547
11
142.895
21
-96.2547
0
LINE
8
BLACK
6
CONTINUOUS
10
142.895
20
-96.2547
11
142.895
21
-96.7404
0
LINE
8
BLACK
6
CONTINUOUS
10
142.895
20
-96.7404
11
141.995
21
-96.7404
0
LINE
8
BLACK
6
CONTINUOUS
10
141.995
20
-96.7404
11
141.995
21
-95.5404
0
LINE
8
BLACK
6
CONTINUOUS
10
141.995
20
-95.5404
11
142.895
21
-95.5404
0
LINE
8
BLACK
6
CONTINUOUS
10
142.895
20
-95.5404
11
142.895
21
-96.0261
0
LINE
8
BLACK
6
CONTINUOUS
10
142.895
20
-96.0261
11
143.232
21
-96.0261
0
LINE
8
BLACK
6
CONTINUOUS
10
143.232
20
-96.0261
11
143.246
21
-95.9867
0
LINE
8
BLACK
6
CONTINUOUS
10
129.095
20
-96.0261
11
129.363
21
-96.0261
0
LINE
8
BLACK
6
CONTINUOUS
10
129.363
20
-96.0261
11
129.378
21
-95.9867
0
LINE
8
BLACK
6
CONTINUOUS
10
129.378
20
-95.9867
11
129.446
21
-95.9056
0
LINE
8
BLACK
6
CONTINUOUS
10
129.446
20
-95.9056
11
129.537
21
-95.8527
0
LINE
8
BLACK
6
CONTINUOUS
10
129.537
20
-95.8527
11
129.642
21
-95.8344
0
LINE
8
BLACK
6
CONTINUOUS
10
129.642
20
-95.8344
11
129.746
21
-95.8527
0
LINE
8
BLACK
6
CONTINUOUS
10
129.746
20
-95.8527
11
129.837
21
-95.9056
0
LINE
8
BLACK
6
CONTINUOUS
10
129.837
20
-95.9056
11
129.905
21
-95.9867
0
LINE
8
BLACK
6
CONTINUOUS
10
129.905
20
-95.9867
11
129.942
21
-96.0861
0
LINE
8
BLACK
6
CONTINUOUS
10
129.942
20
-96.0861
11
129.942
21
-96.1919
0
LINE
8
BLACK
6
CONTINUOUS
10
129.942
20
-96.1919
11
129.905
21
-96.2913
0
LINE
8
BLACK
6
CONTINUOUS
10
129.905
20
-96.2913
11
129.837
21
-96.3724
0
LINE
8
BLACK
6
CONTINUOUS
10
129.837
20
-96.3724
11
129.746
21
-96.4253
0
LINE
8
BLACK
6
CONTINUOUS
10
129.746
20
-96.4253
11
129.642
21
-96.4436
0
LINE
8
BLACK
6
CONTINUOUS
10
129.642
20
-96.4436
11
129.537
21
-96.4253
0
LINE
8
BLACK
6
CONTINUOUS
10
129.537
20
-96.4253
11
129.446
21
-96.3724
0
LINE
8
BLACK
6
CONTINUOUS
10
129.446
20
-96.3724
11
129.378
21
-96.2913
0
LINE
8
BLACK
6
CONTINUOUS
10
129.378
20
-96.2913
11
129.364
21
-96.2547
0
LINE
8
BLACK
6
CONTINUOUS
10
129.364
20
-96.2547
11
129.095
21
-96.2547
0
LINE
8
BLACK
6
CONTINUOUS
10
129.095
20
-96.2547
11
129.095
21
-96.7404
0
LINE
8
BLACK
6
CONTINUOUS
10
129.095
20
-96.7404
11
128.195
21
-96.7404
0
LINE
8
BLACK
6
CONTINUOUS
10
128.195
20
-96.7404
11
128.195
21
-95.5404
0
LINE
8
BLACK
6
CONTINUOUS
10
128.195
20
-95.5404
11
129.095
21
-95.5404
0
LINE
8
BLACK
6
CONTINUOUS
10
129.095
20
-95.5404
11
129.095
21
-96.0261
0
LINE
8
BLACK
6
CONTINUOUS
10
153.205
20
-96.0261
11
153.482
21
-96.0261
0
LINE
8
BLACK
6
CONTINUOUS
10
153.482
20
-96.0261
11
153.496
21
-95.9881
0
LINE
8
BLACK
6
CONTINUOUS
10
153.496
20
-95.9881
11
153.564
21
-95.907
0
LINE
8
BLACK
6
CONTINUOUS
10
153.564
20
-95.907
11
153.656
21
-95.8541
0
LINE
8
BLACK
6
CONTINUOUS
10
153.656
20
-95.8541
11
153.76
21
-95.8358
0
LINE
8
BLACK
6
CONTINUOUS
10
153.76
20
-95.8358
11
153.864
21
-95.8541
0
LINE
8
BLACK
6
CONTINUOUS
10
153.864
20
-95.8541
11
153.956
21
-95.907
0
LINE
8
BLACK
6
CONTINUOUS
10
153.956
20
-95.907
11
154.024
21
-95.9881
0
LINE
8
BLACK
6
CONTINUOUS
10
154.024
20
-95.9881
11
154.06
21
-96.0875
0
LINE
8
BLACK
6
CONTINUOUS
10
154.06
20
-96.0875
11
154.06
21
-96.1933
0
LINE
8
BLACK
6
CONTINUOUS
10
154.06
20
-96.1933
11
154.024
21
-96.2927
0
LINE
8
BLACK
6
CONTINUOUS
10
154.024
20
-96.2927
11
153.956
21
-96.3738
0
LINE
8
BLACK
6
CONTINUOUS
10
153.956
20
-96.3738
11
153.864
21
-96.4267
0
LINE
8
BLACK
6
CONTINUOUS
10
153.864
20
-96.4267
11
153.76
21
-96.445
0
LINE
8
BLACK
6
CONTINUOUS
10
153.76
20
-96.445
11
153.656
21
-96.4267
0
LINE
8
BLACK
6
CONTINUOUS
10
153.656
20
-96.4267
11
153.564
21
-96.3738
0
LINE
8
BLACK
6
CONTINUOUS
10
153.564
20
-96.3738
11
153.496
21
-96.2927
0
LINE
8
BLACK
6
CONTINUOUS
10
153.496
20
-96.2927
11
153.482
21
-96.2547
0
LINE
8
BLACK
6
CONTINUOUS
10
153.482
20
-96.2547
11
153.205
21
-96.2547
0
LINE
8
BLACK
6
CONTINUOUS
10
153.205
20
-96.2547
11
153.205
21
-96.7404
0
LINE
8
BLACK
6
CONTINUOUS
10
153.205
20
-96.7404
11
152.305
21
-96.7404
0
LINE
8
BLACK
6
CONTINUOUS
10
152.305
20
-96.7404
11
152.305
21
-95.5404
0
LINE
8
BLACK
6
CONTINUOUS
10
152.305
20
-95.5404
11
153.205
21
-95.5404
0
LINE
8
BLACK
6
CONTINUOUS
10
153.205
20
-95.5404
11
153.205
21
-96.0261
0
LINE
8
BLACK
6
CONTINUOUS
10
120.754
20
-89.8837
11
120.846
21
-89.9366
0
LINE
8
BLACK
6
CONTINUOUS
10
120.846
20
-89.9366
11
120.914
21
-90.0177
0
LINE
8
BLACK
6
CONTINUOUS
10
120.914
20
-90.0177
11
120.95
21
-90.1171
0
LINE
8
BLACK
6
CONTINUOUS
10
120.95
20
-90.1171
11
120.95
21
-90.2229
0
LINE
8
BLACK
6
CONTINUOUS
10
120.95
20
-90.2229
11
120.914
21
-90.3223
0
LINE
8
BLACK
6
CONTINUOUS
10
120.914
20
-90.3223
11
120.846
21
-90.4034
0
LINE
8
BLACK
6
CONTINUOUS
10
120.846
20
-90.4034
11
120.764
21
-90.4504
0
LINE
8
BLACK
6
CONTINUOUS
10
120.764
20
-90.4504
11
120.764
21
-92.2986
0
LINE
8
BLACK
6
CONTINUOUS
10
120.764
20
-92.2986
11
120.766
21
-92.3137
0
LINE
8
BLACK
6
CONTINUOUS
10
120.766
20
-92.3137
11
120.762
21
-92.3284
0
LINE
8
BLACK
6
CONTINUOUS
10
120.762
20
-92.3284
11
120.759
21
-92.3433
0
LINE
8
BLACK
6
CONTINUOUS
10
120.759
20
-92.3433
11
120.757
21
-92.3477
0
LINE
8
BLACK
6
CONTINUOUS
10
120.757
20
-92.3477
11
120.755
21
-92.3527
0
LINE
8
BLACK
6
CONTINUOUS
10
120.755
20
-92.3527
11
120.746
21
-92.3651
0
LINE
8
BLACK
6
CONTINUOUS
10
120.746
20
-92.3651
11
120.739
21
-92.3782
0
LINE
8
BLACK
6
CONTINUOUS
10
120.739
20
-92.3782
11
120.727
21
-92.388
0
LINE
8
BLACK
6
CONTINUOUS
10
120.727
20
-92.388
11
119.289
21
-93.8261
0
LINE
8
BLACK
6
CONTINUOUS
10
119.289
20
-93.8261
11
128.195
21
-93.8261
0
LINE
8
BLACK
6
CONTINUOUS
10
128.195
20
-93.8261
11
128.195
21
-93.3404
0
LINE
8
BLACK
6
CONTINUOUS
10
128.195
20
-93.3404
11
129.095
21
-93.3404
0
LINE
8
BLACK
6
CONTINUOUS
10
129.095
20
-93.3404
11
129.095
21
-93.8261
0
LINE
8
BLACK
6
CONTINUOUS
10
129.095
20
-93.8261
11
141.995
21
-93.8261
0
LINE
8
BLACK
6
CONTINUOUS
10
141.995
20
-93.8261
11
141.995
21
-93.3404
0
LINE
8
BLACK
6
CONTINUOUS
10
141.995
20
-93.3404
11
142.895
21
-93.3404
0
LINE
8
BLACK
6
CONTINUOUS
10
142.895
20
-93.3404
11
142.895
21
-93.8261
0
LINE
8
BLACK
6
CONTINUOUS
10
142.895
20
-93.8261
11
152.305
21
-93.8261
0
LINE
8
BLACK
6
CONTINUOUS
10
152.305
20
-93.8261
11
152.305
21
-93.3404
0
LINE
8
BLACK
6
CONTINUOUS
10
152.305
20
-93.3404
11
153.205
21
-93.3404
0
LINE
8
BLACK
6
CONTINUOUS
10
153.205
20
-93.3404
11
153.205
21
-93.8261
0
LINE
8
BLACK
6
CONTINUOUS
10
153.205
20
-93.8261
11
166.095
21
-93.8261
0
LINE
8
BLACK
6
CONTINUOUS
10
166.095
20
-93.8261
11
166.095
21
-93.3404
0
LINE
8
BLACK
6
CONTINUOUS
10
166.095
20
-93.3404
11
166.995
21
-93.3404
0
LINE
8
BLACK
6
CONTINUOUS
10
166.995
20
-93.3404
11
166.995
21
-93.8261
0
LINE
8
BLACK
6
CONTINUOUS
10
166.995
20
-93.8261
11
176.405
21
-93.8261
0
LINE
8
BLACK
6
CONTINUOUS
10
176.405
20
-93.8261
11
176.405
21
-93.3404
0
LINE
8
BLACK
6
CONTINUOUS
10
176.405
20
-93.3404
11
177.305
21
-93.3404
0
LINE
8
BLACK
6
CONTINUOUS
10
177.305
20
-93.3404
11
177.305
21
-94.5404
0
LINE
8
BLACK
6
CONTINUOUS
10
177.305
20
-94.5404
11
176.405
21
-94.5404
0
LINE
8
BLACK
6
CONTINUOUS
10
176.405
20
-94.5404
11
176.405
21
-94.0547
0
LINE
8
BLACK
6
CONTINUOUS
10
176.405
20
-94.0547
11
166.995
21
-94.0547
0
LINE
8
BLACK
6
CONTINUOUS
10
166.995
20
-94.0547
11
166.995
21
-94.5404
0
LINE
8
BLACK
6
CONTINUOUS
10
166.995
20
-94.5404
11
166.095
21
-94.5404
0
LINE
8
BLACK
6
CONTINUOUS
10
166.095
20
-94.5404
11
166.095
21
-94.0547
0
LINE
8
BLACK
6
CONTINUOUS
10
166.095
20
-94.0547
11
153.205
21
-94.0547
0
LINE
8
BLACK
6
CONTINUOUS
10
153.205
20
-94.0547
11
153.205
21
-94.5404
0
LINE
8
BLACK
6
CONTINUOUS
10
153.205
20
-94.5404
11
152.305
21
-94.5404
0
LINE
8
BLACK
6
CONTINUOUS
10
152.305
20
-94.5404
11
152.305
21
-94.0547
0
LINE
8
BLACK
6
CONTINUOUS
10
152.305
20
-94.0547
11
142.895
21
-94.0547
0
LINE
8
BLACK
6
CONTINUOUS
10
142.895
20
-94.0547
11
142.895
21
-94.5404
0
LINE
8
BLACK
6
CONTINUOUS
10
142.895
20
-94.5404
11
141.995
21
-94.5404
0
LINE
8
BLACK
6
CONTINUOUS
10
141.995
20
-94.5404
11
141.995
21
-94.0547
0
LINE
8
BLACK
6
CONTINUOUS
10
141.995
20
-94.0547
11
129.095
21
-94.0547
0
LINE
8
BLACK
6
CONTINUOUS
10
129.095
20
-94.0547
11
129.095
21
-94.5404
0
LINE
8
BLACK
6
CONTINUOUS
10
129.095
20
-94.5404
11
128.195
21
-94.5404
0
LINE
8
BLACK
6
CONTINUOUS
10
128.195
20
-94.5404
11
128.195
21
-94.0547
0
LINE
8
BLACK
6
CONTINUOUS
10
128.195
20
-94.0547
11
119.028
21
-94.0547
0
LINE
8
BLACK
6
CONTINUOUS
10
119.028
20
-94.0547
11
119.023
21
-94.056
0
LINE
8
BLACK
6
CONTINUOUS
10
119.023
20
-94.056
11
119.008
21
-94.0547
0
LINE
8
BLACK
6
CONTINUOUS
10
119.008
20
-94.0547
11
118.785
21
-94.0547
0
LINE
8
BLACK
6
CONTINUOUS
10
118.785
20
-94.0547
11
118.785
21
-94.5404
0
LINE
8
BLACK
6
CONTINUOUS
10
118.785
20
-94.5404
11
117.885
21
-94.5404
0
LINE
8
BLACK
6
CONTINUOUS
10
117.885
20
-94.5404
11
117.885
21
-93.3404
0
LINE
8
BLACK
6
CONTINUOUS
10
117.885
20
-93.3404
11
118.785
21
-93.3404
0
LINE
8
BLACK
6
CONTINUOUS
10
118.785
20
-93.3404
11
118.785
21
-93.8261
0
LINE
8
BLACK
6
CONTINUOUS
10
118.785
20
-93.8261
11
118.966
21
-93.8261
0
LINE
8
BLACK
6
CONTINUOUS
10
118.966
20
-93.8261
11
120.536
21
-92.2563
0
LINE
8
BLACK
6
CONTINUOUS
10
120.536
20
-92.2563
11
120.536
21
-90.4504
0
LINE
8
BLACK
6
CONTINUOUS
10
120.536
20
-90.4504
11
120.454
21
-90.4034
0
LINE
8
BLACK
6
CONTINUOUS
10
120.454
20
-90.4034
11
120.386
21
-90.3223
0
LINE
8
BLACK
6
CONTINUOUS
10
120.386
20
-90.3223
11
120.35
21
-90.2229
0
LINE
8
BLACK
6
CONTINUOUS
10
120.35
20
-90.2229
11
120.35
21
-90.1171
0
LINE
8
BLACK
6
CONTINUOUS
10
120.35
20
-90.1171
11
120.386
21
-90.0177
0
LINE
8
BLACK
6
CONTINUOUS
10
120.386
20
-90.0177
11
120.454
21
-89.9366
0
LINE
8
BLACK
6
CONTINUOUS
10
120.454
20
-89.9366
11
120.546
21
-89.8837
0
LINE
8
BLACK
6
CONTINUOUS
10
120.546
20
-89.8837
11
120.65
21
-89.8654
0
LINE
8
BLACK
6
CONTINUOUS
10
120.65
20
-89.8654
11
120.754
21
-89.8837
0
LINE
8
BLACK
6
CONTINUOUS
10
184.835
20
-91.5399
11
185.141
21
-91.7162
0
LINE
8
BLACK
6
CONTINUOUS
10
185.141
20
-91.7162
11
185.367
21
-91.9864
0
LINE
8
BLACK
6
CONTINUOUS
10
185.367
20
-91.9864
11
185.488
21
-92.3178
0
LINE
8
BLACK
6
CONTINUOUS
10
185.488
20
-92.3178
11
185.488
21
-92.6704
0
LINE
8
BLACK
6
CONTINUOUS
10
185.488
20
-92.6704
11
185.367
21
-93.0018
0
LINE
8
BLACK
6
CONTINUOUS
10
185.367
20
-93.0018
11
185.141
21
-93.272
0
LINE
8
BLACK
6
CONTINUOUS
10
185.141
20
-93.272
11
184.835
21
-93.4483
0
LINE
8
BLACK
6
CONTINUOUS
10
184.835
20
-93.4483
11
184.576
21
-93.4941
0
LINE
8
BLACK
6
CONTINUOUS
10
184.576
20
-93.4941
11
183.801
21
-93.4941
0
LINE
8
BLACK
6
CONTINUOUS
10
183.801
20
-93.4941
11
183.541
21
-93.4483
0
LINE
8
BLACK
6
CONTINUOUS
10
183.541
20
-93.4483
11
183.235
21
-93.272
0
LINE
8
BLACK
6
CONTINUOUS
10
183.235
20
-93.272
11
183.009
21
-93.0018
0
LINE
8
BLACK
6
CONTINUOUS
10
183.009
20
-93.0018
11
182.888
21
-92.6704
0
LINE
8
BLACK
6
CONTINUOUS
10
182.888
20
-92.6704
11
182.888
21
-92.3178
0
LINE
8
BLACK
6
CONTINUOUS
10
182.888
20
-92.3178
11
183.009
21
-91.9864
0
LINE
8
BLACK
6
CONTINUOUS
10
183.009
20
-91.9864
11
183.235
21
-91.7162
0
LINE
8
BLACK
6
CONTINUOUS
10
183.235
20
-91.7162
11
183.541
21
-91.5399
0
LINE
8
BLACK
6
CONTINUOUS
10
183.541
20
-91.5399
11
183.801
21
-91.4941
0
LINE
8
BLACK
6
CONTINUOUS
10
183.801
20
-91.4941
11
184.576
21
-91.4941
0
LINE
8
BLACK
6
CONTINUOUS
10
184.576
20
-91.4941
11
184.835
21
-91.5399
0
LINE
8
BLACK
6
CONTINUOUS
10
119.021
20
-74.905
11
119.036
21
-74.9076
0
LINE
8
BLACK
6
CONTINUOUS
10
119.036
20
-74.9076
11
119.041
21
-74.9102
0
LINE
8
BLACK
6
CONTINUOUS
10
119.041
20
-74.9102
11
119.046
21
-74.9115
0
LINE
8
BLACK
6
CONTINUOUS
10
119.046
20
-74.9115
11
119.058
21
-74.9202
0
LINE
8
BLACK
6
CONTINUOUS
10
119.058
20
-74.9202
11
119.071
21
-74.9278
0
LINE
8
BLACK
6
CONTINUOUS
10
119.071
20
-74.9278
11
119.081
21
-74.9394
0
LINE
8
BLACK
6
CONTINUOUS
10
119.081
20
-74.9394
11
120.047
21
-75.9057
0
LINE
8
BLACK
6
CONTINUOUS
10
120.047
20
-75.9057
11
121.283
21
-75.9057
0
LINE
8
BLACK
6
CONTINUOUS
10
121.283
20
-75.9057
11
122.227
21
-74.961
0
LINE
8
BLACK
6
CONTINUOUS
10
122.227
20
-74.961
11
122.237
21
-74.9494
0
LINE
8
BLACK
6
CONTINUOUS
10
122.237
20
-74.9494
11
122.25
21
-74.9418
0
LINE
8
BLACK
6
CONTINUOUS
10
122.25
20
-74.9418
11
122.263
21
-74.9331
0
LINE
8
BLACK
6
CONTINUOUS
10
122.263
20
-74.9331
11
122.268
21
-74.9318
0
LINE
8
BLACK
6
CONTINUOUS
10
122.268
20
-74.9318
11
122.272
21
-74.9292
0
LINE
8
BLACK
6
CONTINUOUS
10
122.272
20
-74.9292
11
122.287
21
-74.9266
0
LINE
8
BLACK
6
CONTINUOUS
10
122.287
20
-74.9266
11
122.302
21
-74.9227
0
LINE
8
BLACK
6
CONTINUOUS
10
122.302
20
-74.9227
11
122.317
21
-74.924
0
LINE
8
BLACK
6
CONTINUOUS
10
122.317
20
-74.924
11
140.869
21
-74.924
0
LINE
8
BLACK
6
CONTINUOUS
10
140.869
20
-74.924
11
140.884
21
-74.9227
0
LINE
8
BLACK
6
CONTINUOUS
10
140.884
20
-74.9227
11
140.899
21
-74.9266
0
LINE
8
BLACK
6
CONTINUOUS
10
140.899
20
-74.9266
11
140.914
21
-74.9292
0
LINE
8
BLACK
6
CONTINUOUS
10
140.914
20
-74.9292
11
140.918
21
-74.9318
0
LINE
8
BLACK
6
CONTINUOUS
10
140.918
20
-74.9318
11
140.923
21
-74.9331
0
LINE
8
BLACK
6
CONTINUOUS
10
140.923
20
-74.9331
11
140.935
21
-74.9418
0
LINE
8
BLACK
6
CONTINUOUS
10
140.935
20
-74.9418
11
140.949
21
-74.9494
0
LINE
8
BLACK
6
CONTINUOUS
10
140.949
20
-74.9494
11
140.958
21
-74.961
0
LINE
8
BLACK
6
CONTINUOUS
10
140.958
20
-74.961
11
141.813
21
-75.8161
0
LINE
8
BLACK
6
CONTINUOUS
10
141.813
20
-75.8161
11
141.995
21
-75.8161
0
LINE
8
BLACK
6
CONTINUOUS
10
141.995
20
-75.8161
11
141.995
21
-75.3304
0
LINE
8
BLACK
6
CONTINUOUS
10
141.995
20
-75.3304
11
142.895
21
-75.3304
0
LINE
8
BLACK
6
CONTINUOUS
10
142.895
20
-75.3304
11
142.895
21
-75.8161
0
LINE
8
BLACK
6
CONTINUOUS
10
142.895
20
-75.8161
11
143.028
21
-75.8161
0
LINE
8
BLACK
6
CONTINUOUS
10
143.028
20
-75.8161
11
143.042
21
-75.7781
0
LINE
8
BLACK
6
CONTINUOUS
10
143.042
20
-75.7781
11
143.11
21
-75.697
0
LINE
8
BLACK
6
CONTINUOUS
10
143.11
20
-75.697
11
143.202
21
-75.6441
0
LINE
8
BLACK
6
CONTINUOUS
10
143.202
20
-75.6441
11
143.306
21
-75.6258
0
LINE
8
BLACK
6
CONTINUOUS
10
143.306
20
-75.6258
11
143.41
21
-75.6441
0
LINE
8
BLACK
6
CONTINUOUS
10
143.41
20
-75.6441
11
143.502
21
-75.697
0
LINE
8
BLACK
6
CONTINUOUS
10
143.502
20
-75.697
11
143.57
21
-75.7781
0
LINE
8
BLACK
6
CONTINUOUS
10
143.57
20
-75.7781
11
143.606
21
-75.8775
0
LINE
8
BLACK
6
CONTINUOUS
10
143.606
20
-75.8775
11
143.606
21
-75.9833
0
LINE
8
BLACK
6
CONTINUOUS
10
143.606
20
-75.9833
11
143.57
21
-76.0827
0
LINE
8
BLACK
6
CONTINUOUS
10
143.57
20
-76.0827
11
143.502
21
-76.1638
0
LINE
8
BLACK
6
CONTINUOUS
10
143.502
20
-76.1638
11
143.41
21
-76.2167
0
LINE
8
BLACK
6
CONTINUOUS
10
143.41
20
-76.2167
11
143.306
21
-76.235
0
LINE
8
BLACK
6
CONTINUOUS
10
143.306
20
-76.235
11
143.202
21
-76.2167
0
LINE
8
BLACK
6
CONTINUOUS
10
143.202
20
-76.2167
11
143.11
21
-76.1638
0
LINE
8
BLACK
6
CONTINUOUS
10
143.11
20
-76.1638
11
143.042
21
-76.0827
0
LINE
8
BLACK
6
CONTINUOUS
10
143.042
20
-76.0827
11
143.028
21
-76.0447
0
LINE
8
BLACK
6
CONTINUOUS
10
143.028
20
-76.0447
11
142.895
21
-76.0447
0
LINE
8
BLACK
6
CONTINUOUS
10
142.895
20
-76.0447
11
142.895
21
-76.5304
0
LINE
8
BLACK
6
CONTINUOUS
10
142.895
20
-76.5304
11
141.995
21
-76.5304
0
LINE
8
BLACK
6
CONTINUOUS
10
141.995
20
-76.5304
11
141.995
21
-76.0447
0
LINE
8
BLACK
6
CONTINUOUS
10
141.995
20
-76.0447
11
141.771
21
-76.0447
0
LINE
8
BLACK
6
CONTINUOUS
10
141.771
20
-76.0447
11
141.756
21
-76.046
0
LINE
8
BLACK
6
CONTINUOUS
10
141.756
20
-76.046
11
141.741
21
-76.0421
0
LINE
8
BLACK
6
CONTINUOUS
10
141.741
20
-76.0421
11
141.726
21
-76.0395
0
LINE
8
BLACK
6
CONTINUOUS
10
141.726
20
-76.0395
11
141.722
21
-76.0369
0
LINE
8
BLACK
6
CONTINUOUS
10
141.722
20
-76.0369
11
141.717
21
-76.0356
0
LINE
8
BLACK
6
CONTINUOUS
10
141.717
20
-76.0356
11
141.705
21
-76.0269
0
LINE
8
BLACK
6
CONTINUOUS
10
141.705
20
-76.0269
11
141.691
21
-76.0193
0
LINE
8
BLACK
6
CONTINUOUS
10
141.691
20
-76.0193
11
141.682
21
-76.0077
0
LINE
8
BLACK
6
CONTINUOUS
10
141.682
20
-76.0077
11
140.827
21
-75.1526
0
LINE
8
BLACK
6
CONTINUOUS
10
140.827
20
-75.1526
11
122.359
21
-75.1526
0
LINE
8
BLACK
6
CONTINUOUS
10
122.359
20
-75.1526
11
121.414
21
-76.0973
0
LINE
8
BLACK
6
CONTINUOUS
10
121.414
20
-76.0973
11
121.405
21
-76.1089
0
LINE
8
BLACK
6
CONTINUOUS
10
121.405
20
-76.1089
11
121.391
21
-76.1165
0
LINE
8
BLACK
6
CONTINUOUS
10
121.391
20
-76.1165
11
121.379
21
-76.1252
0
LINE
8
BLACK
6
CONTINUOUS
10
121.379
20
-76.1252
11
121.374
21
-76.1265
0
LINE
8
BLACK
6
CONTINUOUS
10
121.374
20
-76.1265
11
121.37
21
-76.1291
0
LINE
8
BLACK
6
CONTINUOUS
10
121.37
20
-76.1291
11
121.355
21
-76.1317
0
LINE
8
BLACK
6
CONTINUOUS
10
121.355
20
-76.1317
11
121.34
21
-76.1356
0
LINE
8
BLACK
6
CONTINUOUS
10
121.34
20
-76.1356
11
121.325
21
-76.1343
0
LINE
8
BLACK
6
CONTINUOUS
10
121.325
20
-76.1343
11
120.005
21
-76.1343
0
LINE
8
BLACK
6
CONTINUOUS
10
120.005
20
-76.1343
11
119.99
21
-76.1356
0
LINE
8
BLACK
6
CONTINUOUS
10
119.99
20
-76.1356
11
119.975
21
-76.1317
0
LINE
8
BLACK
6
CONTINUOUS
10
119.975
20
-76.1317
11
119.96
21
-76.1291
0
LINE
8
BLACK
6
CONTINUOUS
10
119.96
20
-76.1291
11
119.956
21
-76.1265
0
LINE
8
BLACK
6
CONTINUOUS
10
119.956
20
-76.1265
11
119.951
21
-76.1252
0
LINE
8
BLACK
6
CONTINUOUS
10
119.951
20
-76.1252
11
119.939
21
-76.1165
0
LINE
8
BLACK
6
CONTINUOUS
10
119.939
20
-76.1165
11
119.925
21
-76.1089
0
LINE
8
BLACK
6
CONTINUOUS
10
119.925
20
-76.1089
11
119.916
21
-76.0973
0
LINE
8
BLACK
6
CONTINUOUS
10
119.916
20
-76.0973
11
118.949
21
-75.131
0
LINE
8
BLACK
6
CONTINUOUS
10
118.949
20
-75.131
11
115.167
21
-75.131
0
LINE
8
BLACK
6
CONTINUOUS
10
115.167
20
-75.131
11
114.803
21
-75.4953
0
LINE
8
BLACK
6
CONTINUOUS
10
114.803
20
-75.4953
11
114.803
21
-91.9613
0
LINE
8
BLACK
6
CONTINUOUS
10
114.803
20
-91.9613
11
114.943
21
-92.1012
0
LINE
8
BLACK
6
CONTINUOUS
10
114.943
20
-92.1012
11
114.956
21
-92.0937
0
LINE
8
BLACK
6
CONTINUOUS
10
114.956
20
-92.0937
11
115.06
21
-92.0754
0
LINE
8
BLACK
6
CONTINUOUS
10
115.06
20
-92.0754
11
115.164
21
-92.0937
0
LINE
8
BLACK
6
CONTINUOUS
10
115.164
20
-92.0937
11
115.256
21
-92.1466
0
LINE
8
BLACK
6
CONTINUOUS
10
115.256
20
-92.1466
11
115.324
21
-92.2277
0
LINE
8
BLACK
6
CONTINUOUS
10
115.324
20
-92.2277
11
115.36
21
-92.3271
0
LINE
8
BLACK
6
CONTINUOUS
10
115.36
20
-92.3271
11
115.36
21
-92.4329
0
LINE
8
BLACK
6
CONTINUOUS
10
115.36
20
-92.4329
11
115.324
21
-92.5323
0
LINE
8
BLACK
6
CONTINUOUS
10
115.324
20
-92.5323
11
115.256
21
-92.6134
0
LINE
8
BLACK
6
CONTINUOUS
10
115.256
20
-92.6134
11
115.164
21
-92.6663
0
LINE
8
BLACK
6
CONTINUOUS
10
115.164
20
-92.6663
11
115.06
21
-92.6846
0
LINE
8
BLACK
6
CONTINUOUS
10
115.06
20
-92.6846
11
114.956
21
-92.6663
0
LINE
8
BLACK
6
CONTINUOUS
10
114.956
20
-92.6663
11
114.864
21
-92.6134
0
LINE
8
BLACK
6
CONTINUOUS
10
114.864
20
-92.6134
11
114.796
21
-92.5323
0
LINE
8
BLACK
6
CONTINUOUS
10
114.796
20
-92.5323
11
114.76
21
-92.4329
0
LINE
8
BLACK
6
CONTINUOUS
10
114.76
20
-92.4329
11
114.76
21
-92.3271
0
LINE
8
BLACK
6
CONTINUOUS
10
114.76
20
-92.3271
11
114.783
21
-92.2644
0
LINE
8
BLACK
6
CONTINUOUS
10
114.783
20
-92.2644
11
114.611
21
-92.093
0
LINE
8
BLACK
6
CONTINUOUS
10
114.611
20
-92.093
11
114.6
21
-92.0833
0
LINE
8
BLACK
6
CONTINUOUS
10
114.6
20
-92.0833
11
114.592
21
-92.0701
0
LINE
8
BLACK
6
CONTINUOUS
10
114.592
20
-92.0701
11
114.583
21
-92.0577
0
LINE
8
BLACK
6
CONTINUOUS
10
114.583
20
-92.0577
11
114.582
21
-92.0528
0
LINE
8
BLACK
6
CONTINUOUS
10
114.582
20
-92.0528
11
114.58
21
-92.0484
0
LINE
8
BLACK
6
CONTINUOUS
10
114.58
20
-92.0484
11
114.577
21
-92.0334
0
LINE
8
BLACK
6
CONTINUOUS
10
114.577
20
-92.0334
11
114.573
21
-92.0188
0
LINE
8
BLACK
6
CONTINUOUS
10
114.573
20
-92.0188
11
114.574
21
-92.0037
0
LINE
8
BLACK
6
CONTINUOUS
10
114.574
20
-92.0037
11
114.574
21
-75.4529
0
LINE
8
BLACK
6
CONTINUOUS
10
114.574
20
-75.4529
11
114.573
21
-75.4378
0
LINE
8
BLACK
6
CONTINUOUS
10
114.573
20
-75.4378
11
114.577
21
-75.4232
0
LINE
8
BLACK
6
CONTINUOUS
10
114.577
20
-75.4232
11
114.58
21
-75.4082
0
LINE
8
BLACK
6
CONTINUOUS
10
114.58
20
-75.4082
11
114.582
21
-75.4038
0
LINE
8
BLACK
6
CONTINUOUS
10
114.582
20
-75.4038
11
114.583
21
-75.3989
0
LINE
8
BLACK
6
CONTINUOUS
10
114.583
20
-75.3989
11
114.592
21
-75.3865
0
LINE
8
BLACK
6
CONTINUOUS
10
114.592
20
-75.3865
11
114.6
21
-75.3733
0
LINE
8
BLACK
6
CONTINUOUS
10
114.6
20
-75.3733
11
114.611
21
-75.3636
0
LINE
8
BLACK
6
CONTINUOUS
10
114.611
20
-75.3636
11
115.036
21
-74.9394
0
LINE
8
BLACK
6
CONTINUOUS
10
115.036
20
-74.9394
11
115.045
21
-74.9278
0
LINE
8
BLACK
6
CONTINUOUS
10
115.045
20
-74.9278
11
115.058
21
-74.9202
0
LINE
8
BLACK
6
CONTINUOUS
10
115.058
20
-74.9202
11
115.071
21
-74.9115
0
LINE
8
BLACK
6
CONTINUOUS
10
115.071
20
-74.9115
11
115.076
21
-74.9102
0
LINE
8
BLACK
6
CONTINUOUS
10
115.076
20
-74.9102
11
115.08
21
-74.9076
0
LINE
8
BLACK
6
CONTINUOUS
10
115.08
20
-74.9076
11
115.095
21
-74.905
0
LINE
8
BLACK
6
CONTINUOUS
10
115.095
20
-74.905
11
115.11
21
-74.9011
0
LINE
8
BLACK
6
CONTINUOUS
10
115.11
20
-74.9011
11
115.125
21
-74.9024
0
LINE
8
BLACK
6
CONTINUOUS
10
115.125
20
-74.9024
11
118.992
21
-74.9024
0
LINE
8
BLACK
6
CONTINUOUS
10
118.992
20
-74.9024
11
119.007
21
-74.9011
0
LINE
8
BLACK
6
CONTINUOUS
10
119.007
20
-74.9011
11
119.021
21
-74.905
0
LINE
8
BLACK
6
CONTINUOUS
10
125.454
20
-84.1237
11
125.546
21
-84.1766
0
LINE
8
BLACK
6
CONTINUOUS
10
125.546
20
-84.1766
11
125.614
21
-84.2577
0
LINE
8
BLACK
6
CONTINUOUS
10
125.614
20
-84.2577
11
125.65
21
-84.3571
0
LINE
8
BLACK
6
CONTINUOUS
10
125.65
20
-84.3571
11
125.65
21
-84.4629
0
LINE
8
BLACK
6
CONTINUOUS
10
125.65
20
-84.4629
11
125.614
21
-84.5623
0
LINE
8
BLACK
6
CONTINUOUS
10
125.614
20
-84.5623
11
125.612
21
-84.5643
0
LINE
8
BLACK
6
CONTINUOUS
10
125.612
20
-84.5643
11
132.312
21
-91.2638
0
LINE
8
BLACK
6
CONTINUOUS
10
132.312
20
-91.2638
11
142.268
21
-91.2638
0
LINE
8
BLACK
6
CONTINUOUS
10
142.268
20
-91.2638
11
142.296
21
-91.1877
0
LINE
8
BLACK
6
CONTINUOUS
10
142.296
20
-91.1877
11
142.364
21
-91.1066
0
LINE
8
BLACK
6
CONTINUOUS
10
142.364
20
-91.1066
11
142.456
21
-91.0537
0
LINE
8
BLACK
6
CONTINUOUS
10
142.456
20
-91.0537
11
142.56
21
-91.0354
0
LINE
8
BLACK
6
CONTINUOUS
10
142.56
20
-91.0354
11
142.664
21
-91.0537
0
LINE
8
BLACK
6
CONTINUOUS
10
142.664
20
-91.0537
11
142.756
21
-91.1066
0
LINE
8
BLACK
6
CONTINUOUS
10
142.756
20
-91.1066
11
142.824
21
-91.1877
0
LINE
8
BLACK
6
CONTINUOUS
10
142.824
20
-91.1877
11
142.86
21
-91.2871
0
LINE
8
BLACK
6
CONTINUOUS
10
142.86
20
-91.2871
11
142.86
21
-91.3929
0
LINE
8
BLACK
6
CONTINUOUS
10
142.86
20
-91.3929
11
142.824
21
-91.4923
0
LINE
8
BLACK
6
CONTINUOUS
10
142.824
20
-91.4923
11
142.756
21
-91.5734
0
LINE
8
BLACK
6
CONTINUOUS
10
142.756
20
-91.5734
11
142.664
21
-91.6263
0
LINE
8
BLACK
6
CONTINUOUS
10
142.664
20
-91.6263
11
142.56
21
-91.6446
0
LINE
8
BLACK
6
CONTINUOUS
10
142.56
20
-91.6446
11
142.456
21
-91.6263
0
LINE
8
BLACK
6
CONTINUOUS
10
142.456
20
-91.6263
11
142.364
21
-91.5734
0
LINE
8
BLACK
6
CONTINUOUS
10
142.364
20
-91.5734
11
142.296
21
-91.4923
0
LINE
8
BLACK
6
CONTINUOUS
10
142.296
20
-91.4923
11
142.268
21
-91.4162
0
LINE
8
BLACK
6
CONTINUOUS
10
142.268
20
-91.4162
11
132.283
21
-91.4162
0
LINE
8
BLACK
6
CONTINUOUS
10
132.283
20
-91.4162
11
132.273
21
-91.4171
0
LINE
8
BLACK
6
CONTINUOUS
10
132.273
20
-91.4171
11
132.263
21
-91.4145
0
LINE
8
BLACK
6
CONTINUOUS
10
132.263
20
-91.4145
11
132.254
21
-91.4127
0
LINE
8
BLACK
6
CONTINUOUS
10
132.254
20
-91.4127
11
132.251
21
-91.411
0
LINE
8
BLACK
6
CONTINUOUS
10
132.251
20
-91.411
11
132.247
21
-91.4101
0
LINE
8
BLACK
6
CONTINUOUS
10
132.247
20
-91.4101
11
132.239
21
-91.4043
0
LINE
8
BLACK
6
CONTINUOUS
10
132.239
20
-91.4043
11
132.23
21
-91.3993
0
LINE
8
BLACK
6
CONTINUOUS
10
132.23
20
-91.3993
11
132.224
21
-91.3915
0
LINE
8
BLACK
6
CONTINUOUS
10
132.224
20
-91.3915
11
125.501
21
-84.6691
0
LINE
8
BLACK
6
CONTINUOUS
10
125.501
20
-84.6691
11
125.454
21
-84.6963
0
LINE
8
BLACK
6
CONTINUOUS
10
125.454
20
-84.6963
11
125.35
21
-84.7146
0
LINE
8
BLACK
6
CONTINUOUS
10
125.35
20
-84.7146
11
125.246
21
-84.6963
0
LINE
8
BLACK
6
CONTINUOUS
10
125.246
20
-84.6963
11
125.154
21
-84.6434
0
LINE
8
BLACK
6
CONTINUOUS
10
125.154
20
-84.6434
11
125.086
21
-84.5623
0
LINE
8
BLACK
6
CONTINUOUS
10
125.086
20
-84.5623
11
125.05
21
-84.4629
0
LINE
8
BLACK
6
CONTINUOUS
10
125.05
20
-84.4629
11
125.05
21
-84.3571
0
LINE
8
BLACK
6
CONTINUOUS
10
125.05
20
-84.3571
11
125.086
21
-84.2577
0
LINE
8
BLACK
6
CONTINUOUS
10
125.086
20
-84.2577
11
125.154
21
-84.1766
0
LINE
8
BLACK
6
CONTINUOUS
10
125.154
20
-84.1766
11
125.246
21
-84.1237
0
LINE
8
BLACK
6
CONTINUOUS
10
125.246
20
-84.1237
11
125.35
21
-84.1054
0
LINE
8
BLACK
6
CONTINUOUS
10
125.35
20
-84.1054
11
125.454
21
-84.1237
0
LINE
8
BLACK
6
CONTINUOUS
10
145.074
20
-86.2837
11
145.166
21
-86.3366
0
LINE
8
BLACK
6
CONTINUOUS
10
145.166
20
-86.3366
11
145.234
21
-86.4177
0
LINE
8
BLACK
6
CONTINUOUS
10
145.234
20
-86.4177
11
145.27
21
-86.5171
0
LINE
8
BLACK
6
CONTINUOUS
10
145.27
20
-86.5171
11
145.27
21
-86.6229
0
LINE
8
BLACK
6
CONTINUOUS
10
145.27
20
-86.6229
11
145.234
21
-86.7223
0
LINE
8
BLACK
6
CONTINUOUS
10
145.234
20
-86.7223
11
145.166
21
-86.8034
0
LINE
8
BLACK
6
CONTINUOUS
10
145.166
20
-86.8034
11
145.074
21
-86.8563
0
LINE
8
BLACK
6
CONTINUOUS
10
145.074
20
-86.8563
11
144.97
21
-86.8746
0
LINE
8
BLACK
6
CONTINUOUS
10
144.97
20
-86.8746
11
144.866
21
-86.8563
0
LINE
8
BLACK
6
CONTINUOUS
10
144.866
20
-86.8563
11
144.819
21
-86.8291
0
LINE
8
BLACK
6
CONTINUOUS
10
144.819
20
-86.8291
11
143.926
21
-87.7215
0
LINE
8
BLACK
6
CONTINUOUS
10
143.926
20
-87.7215
11
143.92
21
-87.7293
0
LINE
8
BLACK
6
CONTINUOUS
10
143.92
20
-87.7293
11
143.911
21
-87.7343
0
LINE
8
BLACK
6
CONTINUOUS
10
143.911
20
-87.7343
11
143.903
21
-87.7401
0
LINE
8
BLACK
6
CONTINUOUS
10
143.903
20
-87.7401
11
143.899
21
-87.741
0
LINE
8
BLACK
6
CONTINUOUS
10
143.899
20
-87.741
11
143.896
21
-87.7427
0
LINE
8
BLACK
6
CONTINUOUS
10
143.896
20
-87.7427
11
143.887
21
-87.7445
0
LINE
8
BLACK
6
CONTINUOUS
10
143.887
20
-87.7445
11
143.877
21
-87.7471
0
LINE
8
BLACK
6
CONTINUOUS
10
143.877
20
-87.7471
11
143.867
21
-87.7462
0
LINE
8
BLACK
6
CONTINUOUS
10
143.867
20
-87.7462
11
143.572
21
-87.7462
0
LINE
8
BLACK
6
CONTINUOUS
10
143.572
20
-87.7462
11
143.544
21
-87.8223
0
LINE
8
BLACK
6
CONTINUOUS
10
143.544
20
-87.8223
11
143.476
21
-87.9034
0
LINE
8
BLACK
6
CONTINUOUS
10
143.476
20
-87.9034
11
143.384
21
-87.9563
0
LINE
8
BLACK
6
CONTINUOUS
10
143.384
20
-87.9563
11
143.28
21
-87.9746
0
LINE
8
BLACK
6
CONTINUOUS
10
143.28
20
-87.9746
11
143.176
21
-87.9563
0
LINE
8
BLACK
6
CONTINUOUS
10
143.176
20
-87.9563
11
143.084
21
-87.9034
0
LINE
8
BLACK
6
CONTINUOUS
10
143.084
20
-87.9034
11
143.016
21
-87.8223
0
LINE
8
BLACK
6
CONTINUOUS
10
143.016
20
-87.8223
11
142.98
21
-87.7229
0
LINE
8
BLACK
6
CONTINUOUS
10
142.98
20
-87.7229
11
142.98
21
-87.6171
0
LINE
8
BLACK
6
CONTINUOUS
10
142.98
20
-87.6171
11
143.016
21
-87.5177
0
LINE
8
BLACK
6
CONTINUOUS
10
143.016
20
-87.5177
11
143.084
21
-87.4366
0
LINE
8
BLACK
6
CONTINUOUS
10
143.084
20
-87.4366
11
143.176
21
-87.3837
0
LINE
8
BLACK
6
CONTINUOUS
10
143.176
20
-87.3837
11
143.28
21
-87.3654
0
LINE
8
BLACK
6
CONTINUOUS
10
143.28
20
-87.3654
11
143.384
21
-87.3837
0
LINE
8
BLACK
6
CONTINUOUS
10
143.384
20
-87.3837
11
143.476
21
-87.4366
0
LINE
8
BLACK
6
CONTINUOUS
10
143.476
20
-87.4366
11
143.544
21
-87.5177
0
LINE
8
BLACK
6
CONTINUOUS
10
143.544
20
-87.5177
11
143.572
21
-87.5938
0
LINE
8
BLACK
6
CONTINUOUS
10
143.572
20
-87.5938
11
143.838
21
-87.5938
0
LINE
8
BLACK
6
CONTINUOUS
10
143.838
20
-87.5938
11
144.708
21
-86.7243
0
LINE
8
BLACK
6
CONTINUOUS
10
144.708
20
-86.7243
11
144.706
21
-86.7223
0
LINE
8
BLACK
6
CONTINUOUS
10
144.706
20
-86.7223
11
144.67
21
-86.6229
0
LINE
8
BLACK
6
CONTINUOUS
10
144.67
20
-86.6229
11
144.67
21
-86.5171
0
LINE
8
BLACK
6
CONTINUOUS
10
144.67
20
-86.5171
11
144.706
21
-86.4177
0
LINE
8
BLACK
6
CONTINUOUS
10
144.706
20
-86.4177
11
144.774
21
-86.3366
0
LINE
8
BLACK
6
CONTINUOUS
10
144.774
20
-86.3366
11
144.866
21
-86.2837
0
LINE
8
BLACK
6
CONTINUOUS
10
144.866
20
-86.2837
11
144.97
21
-86.2654
0
LINE
8
BLACK
6
CONTINUOUS
10
144.97
20
-86.2654
11
145.074
21
-86.2837
0
LINE
8
BLACK
6
CONTINUOUS
10
118.785
20
-83.5496
11
128.195
21
-83.5496
0
LINE
8
BLACK
6
CONTINUOUS
10
128.195
20
-83.5496
11
128.195
21
-83.2304
0
LINE
8
BLACK
6
CONTINUOUS
10
128.195
20
-83.2304
11
129.095
21
-83.2304
0
LINE
8
BLACK
6
CONTINUOUS
10
129.095
20
-83.2304
11
129.095
21
-83.7161
0
LINE
8
BLACK
6
CONTINUOUS
10
129.095
20
-83.7161
11
141.995
21
-83.7161
0
LINE
8
BLACK
6
CONTINUOUS
10
141.995
20
-83.7161
11
141.995
21
-83.2304
0
LINE
8
BLACK
6
CONTINUOUS
10
141.995
20
-83.2304
11
142.895
21
-83.2304
0
LINE
8
BLACK
6
CONTINUOUS
10
142.895
20
-83.2304
11
142.895
21
-83.7161
0
LINE
8
BLACK
6
CONTINUOUS
10
142.895
20
-83.7161
11
152.305
21
-83.7161
0
LINE
8
BLACK
6
CONTINUOUS
10
152.305
20
-83.7161
11
152.305
21
-83.2304
0
LINE
8
BLACK
6
CONTINUOUS
10
152.305
20
-83.2304
11
153.205
21
-83.2304
0
LINE
8
BLACK
6
CONTINUOUS
10
153.205
20
-83.2304
11
153.205
21
-83.7161
0
LINE
8
BLACK
6
CONTINUOUS
10
153.205
20
-83.7161
11
166.095
21
-83.7161
0
LINE
8
BLACK
6
CONTINUOUS
10
166.095
20
-83.7161
11
166.095
21
-83.2304
0
LINE
8
BLACK
6
CONTINUOUS
10
166.095
20
-83.2304
11
166.995
21
-83.2304
0
LINE
8
BLACK
6
CONTINUOUS
10
166.995
20
-83.2304
11
166.995
21
-83.7161
0
LINE
8
BLACK
6
CONTINUOUS
10
166.995
20
-83.7161
11
176.405
21
-83.7161
0
LINE
8
BLACK
6
CONTINUOUS
10
176.405
20
-83.7161
11
176.405
21
-83.2304
0
LINE
8
BLACK
6
CONTINUOUS
10
176.405
20
-83.2304
11
177.305
21
-83.2304
0
LINE
8
BLACK
6
CONTINUOUS
10
177.305
20
-83.2304
11
177.305
21
-84.4304
0
LINE
8
BLACK
6
CONTINUOUS
10
177.305
20
-84.4304
11
176.405
21
-84.4304
0
LINE
8
BLACK
6
CONTINUOUS
10
176.405
20
-84.4304
11
176.405
21
-83.9447
0
LINE
8
BLACK
6
CONTINUOUS
10
176.405
20
-83.9447
11
166.995
21
-83.9447
0
LINE
8
BLACK
6
CONTINUOUS
10
166.995
20
-83.9447
11
166.995
21
-84.4304
0
LINE
8
BLACK
6
CONTINUOUS
10
166.995
20
-84.4304
11
166.095
21
-84.4304
0
LINE
8
BLACK
6
CONTINUOUS
10
166.095
20
-84.4304
11
166.095
21
-83.9447
0
LINE
8
BLACK
6
CONTINUOUS
10
166.095
20
-83.9447
11
153.205
21
-83.9447
0
LINE
8
BLACK
6
CONTINUOUS
10
153.205
20
-83.9447
11
153.205
21
-84.4304
0
LINE
8
BLACK
6
CONTINUOUS
10
153.205
20
-84.4304
11
152.305
21
-84.4304
0
LINE
8
BLACK
6
CONTINUOUS
10
152.305
20
-84.4304
11
152.305
21
-83.9447
0
LINE
8
BLACK
6
CONTINUOUS
10
152.305
20
-83.9447
11
142.895
21
-83.9447
0
LINE
8
BLACK
6
CONTINUOUS
10
142.895
20
-83.9447
11
142.895
21
-84.4304
0
LINE
8
BLACK
6
CONTINUOUS
10
142.895
20
-84.4304
11
141.995
21
-84.4304
0
LINE
8
BLACK
6
CONTINUOUS
10
141.995
20
-84.4304
11
141.995
21
-83.9447
0
LINE
8
BLACK
6
CONTINUOUS
10
141.995
20
-83.9447
11
129.095
21
-83.9447
0
LINE
8
BLACK
6
CONTINUOUS
10
129.095
20
-83.9447
11
129.095
21
-84.4304
0
LINE
8
BLACK
6
CONTINUOUS
10
129.095
20
-84.4304
11
128.195
21
-84.4304
0
LINE
8
BLACK
6
CONTINUOUS
10
128.195
20
-84.4304
11
128.195
21
-83.7782
0
LINE
8
BLACK
6
CONTINUOUS
10
128.195
20
-83.7782
11
119.123
21
-83.7782
0
LINE
8
BLACK
6
CONTINUOUS
10
119.123
20
-83.7782
11
120.727
21
-85.3828
0
LINE
8
BLACK
6
CONTINUOUS
10
120.727
20
-85.3828
11
120.739
21
-85.3926
0
LINE
8
BLACK
6
CONTINUOUS
10
120.739
20
-85.3926
11
120.746
21
-85.4057
0
LINE
8
BLACK
6
CONTINUOUS
10
120.746
20
-85.4057
11
120.755
21
-85.4181
0
LINE
8
BLACK
6
CONTINUOUS
10
120.755
20
-85.4181
11
120.757
21
-85.4231
0
LINE
8
BLACK
6
CONTINUOUS
10
120.757
20
-85.4231
11
120.759
21
-85.4275
0
LINE
8
BLACK
6
CONTINUOUS
10
120.759
20
-85.4275
11
120.762
21
-85.4424
0
LINE
8
BLACK
6
CONTINUOUS
10
120.762
20
-85.4424
11
120.766
21
-85.4571
0
LINE
8
BLACK
6
CONTINUOUS
10
120.766
20
-85.4571
11
120.764
21
-85.4722
0
LINE
8
BLACK
6
CONTINUOUS
10
120.764
20
-85.4722
11
120.764
21
-87.3496
0
LINE
8
BLACK
6
CONTINUOUS
10
120.764
20
-87.3496
11
120.846
21
-87.3966
0
LINE
8
BLACK
6
CONTINUOUS
10
120.846
20
-87.3966
11
120.914
21
-87.4777
0
LINE
8
BLACK
6
CONTINUOUS
10
120.914
20
-87.4777
11
120.95
21
-87.5771
0
LINE
8
BLACK
6
CONTINUOUS
10
120.95
20
-87.5771
11
120.95
21
-87.6829
0
LINE
8
BLACK
6
CONTINUOUS
10
120.95
20
-87.6829
11
120.914
21
-87.7823
0
LINE
8
BLACK
6
CONTINUOUS
10
120.914
20
-87.7823
11
120.846
21
-87.8634
0
LINE
8
BLACK
6
CONTINUOUS
10
120.846
20
-87.8634
11
120.754
21
-87.9163
0
LINE
8
BLACK
6
CONTINUOUS
10
120.754
20
-87.9163
11
120.65
21
-87.9346
0
LINE
8
BLACK
6
CONTINUOUS
10
120.65
20
-87.9346
11
120.546
21
-87.9163
0
LINE
8
BLACK
6
CONTINUOUS
10
120.546
20
-87.9163
11
120.454
21
-87.8634
0
LINE
8
BLACK
6
CONTINUOUS
10
120.454
20
-87.8634
11
120.386
21
-87.7823
0
LINE
8
BLACK
6
CONTINUOUS
10
120.386
20
-87.7823
11
120.35
21
-87.6829
0
LINE
8
BLACK
6
CONTINUOUS
10
120.35
20
-87.6829
11
120.35
21
-87.5771
0
LINE
8
BLACK
6
CONTINUOUS
10
120.35
20
-87.5771
11
120.386
21
-87.4777
0
LINE
8
BLACK
6
CONTINUOUS
10
120.386
20
-87.4777
11
120.454
21
-87.3966
0
LINE
8
BLACK
6
CONTINUOUS
10
120.454
20
-87.3966
11
120.536
21
-87.3496
0
LINE
8
BLACK
6
CONTINUOUS
10
120.536
20
-87.3496
11
120.536
21
-85.5145
0
LINE
8
BLACK
6
CONTINUOUS
10
120.536
20
-85.5145
11
118.966
21
-83.9447
0
LINE
8
BLACK
6
CONTINUOUS
10
118.966
20
-83.9447
11
118.785
21
-83.9447
0
LINE
8
BLACK
6
CONTINUOUS
10
118.785
20
-83.9447
11
118.785
21
-84.4304
0
LINE
8
BLACK
6
CONTINUOUS
10
118.785
20
-84.4304
11
117.885
21
-84.4304
0
LINE
8
BLACK
6
CONTINUOUS
10
117.885
20
-84.4304
11
117.885
21
-83.2304
0
LINE
8
BLACK
6
CONTINUOUS
10
117.885
20
-83.2304
11
118.785
21
-83.2304
0
LINE
8
BLACK
6
CONTINUOUS
10
118.785
20
-83.2304
11
118.785
21
-83.5496
0
LINE
8
BLACK
6
CONTINUOUS
10
166.995
20
-85.9161
11
167.333
21
-85.9161
0
LINE
8
BLACK
6
CONTINUOUS
10
167.333
20
-85.9161
11
167.356
21
-85.8546
0
LINE
8
BLACK
6
CONTINUOUS
10
167.356
20
-85.8546
11
167.424
21
-85.7736
0
LINE
8
BLACK
6
CONTINUOUS
10
167.424
20
-85.7736
11
167.515
21
-85.7207
0
LINE
8
BLACK
6
CONTINUOUS
10
167.515
20
-85.7207
11
167.62
21
-85.7023
0
LINE
8
BLACK
6
CONTINUOUS
10
167.62
20
-85.7023
11
167.724
21
-85.7207
0
LINE
8
BLACK
6
CONTINUOUS
10
167.724
20
-85.7207
11
167.815
21
-85.7736
0
LINE
8
BLACK
6
CONTINUOUS
10
167.815
20
-85.7736
11
167.883
21
-85.8546
0
LINE
8
BLACK
6
CONTINUOUS
10
167.883
20
-85.8546
11
167.92
21
-85.954
0
LINE
8
BLACK
6
CONTINUOUS
10
167.92
20
-85.954
11
167.92
21
-86.0598
0
LINE
8
BLACK
6
CONTINUOUS
10
167.92
20
-86.0598
11
167.883
21
-86.1593
0
LINE
8
BLACK
6
CONTINUOUS
10
167.883
20
-86.1593
11
167.815
21
-86.2403
0
LINE
8
BLACK
6
CONTINUOUS
10
167.815
20
-86.2403
11
167.724
21
-86.2932
0
LINE
8
BLACK
6
CONTINUOUS
10
167.724
20
-86.2932
11
167.62
21
-86.3116
0
LINE
8
BLACK
6
CONTINUOUS
10
167.62
20
-86.3116
11
167.515
21
-86.2932
0
LINE
8
BLACK
6
CONTINUOUS
10
167.515
20
-86.2932
11
167.424
21
-86.2403
0
LINE
8
BLACK
6
CONTINUOUS
10
167.424
20
-86.2403
11
167.356
21
-86.1593
0
LINE
8
BLACK
6
CONTINUOUS
10
167.356
20
-86.1593
11
167.351
21
-86.1447
0
LINE
8
BLACK
6
CONTINUOUS
10
167.351
20
-86.1447
11
166.995
21
-86.1447
0
LINE
8
BLACK
6
CONTINUOUS
10
166.995
20
-86.1447
11
166.995
21
-86.6304
0
LINE
8
BLACK
6
CONTINUOUS
10
166.995
20
-86.6304
11
166.095
21
-86.6304
0
LINE
8
BLACK
6
CONTINUOUS
10
166.095
20
-86.6304
11
166.095
21
-85.4304
0
LINE
8
BLACK
6
CONTINUOUS
10
166.095
20
-85.4304
11
166.995
21
-85.4304
0
LINE
8
BLACK
6
CONTINUOUS
10
166.995
20
-85.4304
11
166.995
21
-85.9161
0
LINE
8
BLACK
6
CONTINUOUS
10
129.095
20
-86.6304
11
128.195
21
-86.6304
0
LINE
8
BLACK
6
CONTINUOUS
10
128.195
20
-86.6304
11
128.195
21
-85.4304
0
LINE
8
BLACK
6
CONTINUOUS
10
128.195
20
-85.4304
11
129.095
21
-85.4304
0
LINE
8
BLACK
6
CONTINUOUS
10
129.095
20
-85.4304
11
129.095
21
-85.9161
0
LINE
8
BLACK
6
CONTINUOUS
10
129.095
20
-85.9161
11
129.307
21
-85.9161
0
LINE
8
BLACK
6
CONTINUOUS
10
129.307
20
-85.9161
11
129.314
21
-85.9142
0
LINE
8
BLACK
6
CONTINUOUS
10
129.314
20
-85.9142
11
129.336
21
-85.9161
0
LINE
8
BLACK
6
CONTINUOUS
10
129.336
20
-85.9161
11
129.364
21
-85.9161
0
LINE
8
BLACK
6
CONTINUOUS
10
129.364
20
-85.9161
11
129.378
21
-85.8775
0
LINE
8
BLACK
6
CONTINUOUS
10
129.378
20
-85.8775
11
129.446
21
-85.7964
0
LINE
8
BLACK
6
CONTINUOUS
10
129.446
20
-85.7964
11
129.537
21
-85.7435
0
LINE
8
BLACK
6
CONTINUOUS
10
129.537
20
-85.7435
11
129.642
21
-85.7252
0
LINE
8
BLACK
6
CONTINUOUS
10
129.642
20
-85.7252
11
129.746
21
-85.7435
0
LINE
8
BLACK
6
CONTINUOUS
10
129.746
20
-85.7435
11
129.837
21
-85.7964
0
LINE
8
BLACK
6
CONTINUOUS
10
129.837
20
-85.7964
11
129.905
21
-85.8775
0
LINE
8
BLACK
6
CONTINUOUS
10
129.905
20
-85.8775
11
129.942
21
-85.9769
0
LINE
8
BLACK
6
CONTINUOUS
10
129.942
20
-85.9769
11
129.942
21
-86.0827
0
LINE
8
BLACK
6
CONTINUOUS
10
129.942
20
-86.0827
11
129.905
21
-86.1821
0
LINE
8
BLACK
6
CONTINUOUS
10
129.905
20
-86.1821
11
129.837
21
-86.2632
0
LINE
8
BLACK
6
CONTINUOUS
10
129.837
20
-86.2632
11
129.746
21
-86.3161
0
LINE
8
BLACK
6
CONTINUOUS
10
129.746
20
-86.3161
11
129.642
21
-86.3344
0
LINE
8
BLACK
6
CONTINUOUS
10
129.642
20
-86.3344
11
129.537
21
-86.3161
0
LINE
8
BLACK
6
CONTINUOUS
10
129.537
20
-86.3161
11
129.446
21
-86.2632
0
LINE
8
BLACK
6
CONTINUOUS
10
129.446
20
-86.2632
11
129.378
21
-86.1821
0
LINE
8
BLACK
6
CONTINUOUS
10
129.378
20
-86.1821
11
129.364
21
-86.1447
0
LINE
8
BLACK
6
CONTINUOUS
10
129.364
20
-86.1447
11
129.338
21
-86.1447
0
LINE
8
BLACK
6
CONTINUOUS
10
129.338
20
-86.1447
11
129.333
21
-86.146
0
LINE
8
BLACK
6
CONTINUOUS
10
129.333
20
-86.146
11
129.318
21
-86.1447
0
LINE
8
BLACK
6
CONTINUOUS
10
129.318
20
-86.1447
11
129.095
21
-86.1447
0
LINE
8
BLACK
6
CONTINUOUS
10
129.095
20
-86.1447
11
129.095
21
-86.6304
0
LINE
8
BLACK
6
CONTINUOUS
10
142.895
20
-85.9161
11
143.232
21
-85.9161
0
LINE
8
BLACK
6
CONTINUOUS
10
143.232
20
-85.9161
11
143.246
21
-85.8781
0
LINE
8
BLACK
6
CONTINUOUS
10
143.246
20
-85.8781
11
143.314
21
-85.797
0
LINE
8
BLACK
6
CONTINUOUS
10
143.314
20
-85.797
11
143.405
21
-85.7441
0
LINE
8
BLACK
6
CONTINUOUS
10
143.405
20
-85.7441
11
143.509
21
-85.7258
0
LINE
8
BLACK
6
CONTINUOUS
10
143.509
20
-85.7258
11
143.614
21
-85.7441
0
LINE
8
BLACK
6
CONTINUOUS
10
143.614
20
-85.7441
11
143.705
21
-85.797
0
LINE
8
BLACK
6
CONTINUOUS
10
143.705
20
-85.797
11
143.773
21
-85.8781
0
LINE
8
BLACK
6
CONTINUOUS
10
143.773
20
-85.8781
11
143.809
21
-85.9775
0
LINE
8
BLACK
6
CONTINUOUS
10
143.809
20
-85.9775
11
143.809
21
-86.0833
0
LINE
8
BLACK
6
CONTINUOUS
10
143.809
20
-86.0833
11
143.773
21
-86.1827
0
LINE
8
BLACK
6
CONTINUOUS
10
143.773
20
-86.1827
11
143.705
21
-86.2638
0
LINE
8
BLACK
6
CONTINUOUS
10
143.705
20
-86.2638
11
143.614
21
-86.3167
0
LINE
8
BLACK
6
CONTINUOUS
10
143.614
20
-86.3167
11
143.509
21
-86.335
0
LINE
8
BLACK
6
CONTINUOUS
10
143.509
20
-86.335
11
143.405
21
-86.3167
0
LINE
8
BLACK
6
CONTINUOUS
10
143.405
20
-86.3167
11
143.314
21
-86.2638
0
LINE
8
BLACK
6
CONTINUOUS
10
143.314
20
-86.2638
11
143.246
21
-86.1827
0
LINE
8
BLACK
6
CONTINUOUS
10
143.246
20
-86.1827
11
143.232
21
-86.1447
0
LINE
8
BLACK
6
CONTINUOUS
10
143.232
20
-86.1447
11
142.895
21
-86.1447
0
LINE
8
BLACK
6
CONTINUOUS
10
142.895
20
-86.1447
11
142.895
21
-86.6304
0
LINE
8
BLACK
6
CONTINUOUS
10
142.895
20
-86.6304
11
141.995
21
-86.6304
0
LINE
8
BLACK
6
CONTINUOUS
10
141.995
20
-86.6304
11
141.995
21
-85.4304
0
LINE
8
BLACK
6
CONTINUOUS
10
141.995
20
-85.4304
11
142.895
21
-85.4304
0
LINE
8
BLACK
6
CONTINUOUS
10
142.895
20
-85.4304
11
142.895
21
-85.9161
0
LINE
8
BLACK
6
CONTINUOUS
10
153.205
20
-85.9161
11
153.476
21
-85.9161
0
LINE
8
BLACK
6
CONTINUOUS
10
153.476
20
-85.9161
11
153.49
21
-85.8775
0
LINE
8
BLACK
6
CONTINUOUS
10
153.49
20
-85.8775
11
153.558
21
-85.7964
0
LINE
8
BLACK
6
CONTINUOUS
10
153.558
20
-85.7964
11
153.65
21
-85.7435
0
LINE
8
BLACK
6
CONTINUOUS
10
153.65
20
-85.7435
11
153.754
21
-85.7252
0
LINE
8
BLACK
6
CONTINUOUS
10
153.754
20
-85.7252
11
153.858
21
-85.7435
0
LINE
8
BLACK
6
CONTINUOUS
10
153.858
20
-85.7435
11
153.95
21
-85.7964
0
LINE
8
BLACK
6
CONTINUOUS
10
153.95
20
-85.7964
11
154.018
21
-85.8775
0
LINE
8
BLACK
6
CONTINUOUS
10
154.018
20
-85.8775
11
154.054
21
-85.9769
0
LINE
8
BLACK
6
CONTINUOUS
10
154.054
20
-85.9769
11
154.054
21
-86.0827
0
LINE
8
BLACK
6
CONTINUOUS
10
154.054
20
-86.0827
11
154.018
21
-86.1821
0
LINE
8
BLACK
6
CONTINUOUS
10
154.018
20
-86.1821
11
153.95
21
-86.2632
0
LINE
8
BLACK
6
CONTINUOUS
10
153.95
20
-86.2632
11
153.858
21
-86.3161
0
LINE
8
BLACK
6
CONTINUOUS
10
153.858
20
-86.3161
11
153.754
21
-86.3344
0
LINE
8
BLACK
6
CONTINUOUS
10
153.754
20
-86.3344
11
153.65
21
-86.3161
0
LINE
8
BLACK
6
CONTINUOUS
10
153.65
20
-86.3161
11
153.558
21
-86.2632
0
LINE
8
BLACK
6
CONTINUOUS
10
153.558
20
-86.2632
11
153.49
21
-86.1821
0
LINE
8
BLACK
6
CONTINUOUS
10
153.49
20
-86.1821
11
153.476
21
-86.1447
0
LINE
8
BLACK
6
CONTINUOUS
10
153.476
20
-86.1447
11
153.205
21
-86.1447
0
LINE
8
BLACK
6
CONTINUOUS
10
153.205
20
-86.1447
11
153.205
21
-86.6304
0
LINE
8
BLACK
6
CONTINUOUS
10
153.205
20
-86.6304
11
152.305
21
-86.6304
0
LINE
8
BLACK
6
CONTINUOUS
10
152.305
20
-86.6304
11
152.305
21
-85.4304
0
LINE
8
BLACK
6
CONTINUOUS
10
152.305
20
-85.4304
11
153.205
21
-85.4304
0
LINE
8
BLACK
6
CONTINUOUS
10
153.205
20
-85.4304
11
153.205
21
-85.9161
0
LINE
8
BLACK
6
CONTINUOUS
10
145.654
20
-82.0937
11
145.746
21
-82.1466
0
LINE
8
BLACK
6
CONTINUOUS
10
145.746
20
-82.1466
11
145.814
21
-82.2277
0
LINE
8
BLACK
6
CONTINUOUS
10
145.814
20
-82.2277
11
145.85
21
-82.3271
0
LINE
8
BLACK
6
CONTINUOUS
10
145.85
20
-82.3271
11
145.85
21
-82.4329
0
LINE
8
BLACK
6
CONTINUOUS
10
145.85
20
-82.4329
11
145.814
21
-82.5323
0
LINE
8
BLACK
6
CONTINUOUS
10
145.814
20
-82.5323
11
145.746
21
-82.6134
0
LINE
8
BLACK
6
CONTINUOUS
10
145.746
20
-82.6134
11
145.654
21
-82.6663
0
LINE
8
BLACK
6
CONTINUOUS
10
145.654
20
-82.6663
11
145.55
21
-82.6846
0
LINE
8
BLACK
6
CONTINUOUS
10
145.55
20
-82.6846
11
145.446
21
-82.6663
0
LINE
8
BLACK
6
CONTINUOUS
10
145.446
20
-82.6663
11
145.354
21
-82.6134
0
LINE
8
BLACK
6
CONTINUOUS
10
145.354
20
-82.6134
11
145.286
21
-82.5323
0
LINE
8
BLACK
6
CONTINUOUS
10
145.286
20
-82.5323
11
145.258
21
-82.4562
0
LINE
8
BLACK
6
CONTINUOUS
10
145.258
20
-82.4562
11
134.972
21
-82.4562
0
LINE
8
BLACK
6
CONTINUOUS
10
134.972
20
-82.4562
11
134.532
21
-82.8957
0
LINE
8
BLACK
6
CONTINUOUS
10
134.532
20
-82.8957
11
134.534
21
-82.8977
0
LINE
8
BLACK
6
CONTINUOUS
10
134.534
20
-82.8977
11
134.57
21
-82.9971
0
LINE
8
BLACK
6
CONTINUOUS
10
134.57
20
-82.9971
11
134.57
21
-83.1029
0
LINE
8
BLACK
6
CONTINUOUS
10
134.57
20
-83.1029
11
134.534
21
-83.2023
0
LINE
8
BLACK
6
CONTINUOUS
10
134.534
20
-83.2023
11
134.466
21
-83.2834
0
LINE
8
BLACK
6
CONTINUOUS
10
134.466
20
-83.2834
11
134.374
21
-83.3363
0
LINE
8
BLACK
6
CONTINUOUS
10
134.374
20
-83.3363
11
134.27
21
-83.3546
0
LINE
8
BLACK
6
CONTINUOUS
10
134.27
20
-83.3546
11
134.166
21
-83.3363
0
LINE
8
BLACK
6
CONTINUOUS
10
134.166
20
-83.3363
11
134.074
21
-83.2834
0
LINE
8
BLACK
6
CONTINUOUS
10
134.074
20
-83.2834
11
134.006
21
-83.2023
0
LINE
8
BLACK
6
CONTINUOUS
10
134.006
20
-83.2023
11
133.97
21
-83.1029
0
LINE
8
BLACK
6
CONTINUOUS
10
133.97
20
-83.1029
11
133.97
21
-82.9971
0
LINE
8
BLACK
6
CONTINUOUS
10
133.97
20
-82.9971
11
134.006
21
-82.8977
0
LINE
8
BLACK
6
CONTINUOUS
10
134.006
20
-82.8977
11
134.074
21
-82.8166
0
LINE
8
BLACK
6
CONTINUOUS
10
134.074
20
-82.8166
11
134.166
21
-82.7637
0
LINE
8
BLACK
6
CONTINUOUS
10
134.166
20
-82.7637
11
134.27
21
-82.7454
0
LINE
8
BLACK
6
CONTINUOUS
10
134.27
20
-82.7454
11
134.374
21
-82.7637
0
LINE
8
BLACK
6
CONTINUOUS
10
134.374
20
-82.7637
11
134.421
21
-82.7909
0
LINE
8
BLACK
6
CONTINUOUS
10
134.421
20
-82.7909
11
134.884
21
-82.3285
0
LINE
8
BLACK
6
CONTINUOUS
10
134.884
20
-82.3285
11
134.89
21
-82.3207
0
LINE
8
BLACK
6
CONTINUOUS
10
134.89
20
-82.3207
11
134.899
21
-82.3157
0
LINE
8
BLACK
6
CONTINUOUS
10
134.899
20
-82.3157
11
134.907
21
-82.3099
0
LINE
8
BLACK
6
CONTINUOUS
10
134.907
20
-82.3099
11
134.911
21
-82.309
0
LINE
8
BLACK
6
CONTINUOUS
10
134.911
20
-82.309
11
134.914
21
-82.3073
0
LINE
8
BLACK
6
CONTINUOUS
10
134.914
20
-82.3073
11
134.923
21
-82.3055
0
LINE
8
BLACK
6
CONTINUOUS
10
134.923
20
-82.3055
11
134.933
21
-82.3029
0
LINE
8
BLACK
6
CONTINUOUS
10
134.933
20
-82.3029
11
134.943
21
-82.3038
0
LINE
8
BLACK
6
CONTINUOUS
10
134.943
20
-82.3038
11
145.258
21
-82.3038
0
LINE
8
BLACK
6
CONTINUOUS
10
145.258
20
-82.3038
11
145.286
21
-82.2277
0
LINE
8
BLACK
6
CONTINUOUS
10
145.286
20
-82.2277
11
145.354
21
-82.1466
0
LINE
8
BLACK
6
CONTINUOUS
10
145.354
20
-82.1466
11
145.446
21
-82.0937
0
LINE
8
BLACK
6
CONTINUOUS
10
145.446
20
-82.0937
11
145.55
21
-82.0754
0
LINE
8
BLACK
6
CONTINUOUS
10
145.55
20
-82.0754
11
145.654
21
-82.0937
0
LINE
8
BLACK
6
CONTINUOUS
10
153.205
20
-76.5304
11
152.869
21
-76.5304
0
LINE
8
BLACK
6
CONTINUOUS
10
152.869
20
-76.5304
11
152.869
21
-81.3094
0
LINE
8
BLACK
6
CONTINUOUS
10
152.869
20
-81.3094
11
153.532
21
-81.9729
0
LINE
8
BLACK
6
CONTINUOUS
10
153.532
20
-81.9729
11
153.532
21
-81.9729
0
LINE
8
BLACK
6
CONTINUOUS
10
153.532
20
-81.9729
11
153.627
21
-82.0678
0
LINE
8
BLACK
6
CONTINUOUS
10
153.627
20
-82.0678
11
153.64
21
-82.0604
0
LINE
8
BLACK
6
CONTINUOUS
10
153.64
20
-82.0604
11
153.744
21
-82.042
0
LINE
8
BLACK
6
CONTINUOUS
10
153.744
20
-82.042
11
153.849
21
-82.0604
0
LINE
8
BLACK
6
CONTINUOUS
10
153.849
20
-82.0604
11
153.94
21
-82.1133
0
LINE
8
BLACK
6
CONTINUOUS
10
153.94
20
-82.1133
11
154.008
21
-82.1943
0
LINE
8
BLACK
6
CONTINUOUS
10
154.008
20
-82.1943
11
154.044
21
-82.2937
0
LINE
8
BLACK
6
CONTINUOUS
10
154.044
20
-82.2937
11
154.044
21
-82.3995
0
LINE
8
BLACK
6
CONTINUOUS
10
154.044
20
-82.3995
11
154.008
21
-82.4989
0
LINE
8
BLACK
6
CONTINUOUS
10
154.008
20
-82.4989
11
153.94
21
-82.58
0
LINE
8
BLACK
6
CONTINUOUS
10
153.94
20
-82.58
11
153.849
21
-82.6329
0
LINE
8
BLACK
6
CONTINUOUS
10
153.849
20
-82.6329
11
153.744
21
-82.6512
0
LINE
8
BLACK
6
CONTINUOUS
10
153.744
20
-82.6512
11
153.64
21
-82.6329
0
LINE
8
BLACK
6
CONTINUOUS
10
153.64
20
-82.6329
11
153.549
21
-82.58
0
LINE
8
BLACK
6
CONTINUOUS
10
153.549
20
-82.58
11
153.481
21
-82.4989
0
LINE
8
BLACK
6
CONTINUOUS
10
153.481
20
-82.4989
11
153.444
21
-82.3995
0
LINE
8
BLACK
6
CONTINUOUS
10
153.444
20
-82.3995
11
153.444
21
-82.2937
0
LINE
8
BLACK
6
CONTINUOUS
10
153.444
20
-82.2937
11
153.467
21
-82.2311
0
LINE
8
BLACK
6
CONTINUOUS
10
153.467
20
-82.2311
11
153.371
21
-82.1345
0
LINE
8
BLACK
6
CONTINUOUS
10
153.371
20
-82.1345
11
153.371
21
-82.1345
0
LINE
8
BLACK
6
CONTINUOUS
10
153.371
20
-82.1345
11
152.677
21
-81.4411
0
LINE
8
BLACK
6
CONTINUOUS
10
152.677
20
-81.4411
11
152.666
21
-81.4314
0
LINE
8
BLACK
6
CONTINUOUS
10
152.666
20
-81.4314
11
152.658
21
-81.4183
0
LINE
8
BLACK
6
CONTINUOUS
10
152.658
20
-81.4183
11
152.649
21
-81.4058
0
LINE
8
BLACK
6
CONTINUOUS
10
152.649
20
-81.4058
11
152.648
21
-81.4009
0
LINE
8
BLACK
6
CONTINUOUS
10
152.648
20
-81.4009
11
152.646
21
-81.3965
0
LINE
8
BLACK
6
CONTINUOUS
10
152.646
20
-81.3965
11
152.643
21
-81.3816
0
LINE
8
BLACK
6
CONTINUOUS
10
152.643
20
-81.3816
11
152.639
21
-81.3669
0
LINE
8
BLACK
6
CONTINUOUS
10
152.639
20
-81.3669
11
152.64
21
-81.3518
0
LINE
8
BLACK
6
CONTINUOUS
10
152.64
20
-81.3518
11
152.64
21
-76.5304
0
LINE
8
BLACK
6
CONTINUOUS
10
152.64
20
-76.5304
11
152.466
21
-76.5304
0
LINE
8
BLACK
6
CONTINUOUS
10
152.466
20
-76.5304
11
147.784
21
-81.2125
0
LINE
8
BLACK
6
CONTINUOUS
10
147.784
20
-81.2125
11
147.774
21
-81.2241
0
LINE
8
BLACK
6
CONTINUOUS
10
147.774
20
-81.2241
11
147.761
21
-81.2317
0
LINE
8
BLACK
6
CONTINUOUS
10
147.761
20
-81.2317
11
147.749
21
-81.2404
0
LINE
8
BLACK
6
CONTINUOUS
10
147.749
20
-81.2404
11
147.744
21
-81.2417
0
LINE
8
BLACK
6
CONTINUOUS
10
147.744
20
-81.2417
11
147.739
21
-81.2443
0
LINE
8
BLACK
6
CONTINUOUS
10
147.739
20
-81.2443
11
147.725
21
-81.2469
0
LINE
8
BLACK
6
CONTINUOUS
10
147.725
20
-81.2469
11
147.71
21
-81.2508
0
LINE
8
BLACK
6
CONTINUOUS
10
147.71
20
-81.2508
11
147.695
21
-81.2495
0
LINE
8
BLACK
6
CONTINUOUS
10
147.695
20
-81.2495
11
126.069
21
-81.2495
0
LINE
8
BLACK
6
CONTINUOUS
10
126.069
20
-81.2495
11
126.055
21
-81.2875
0
LINE
8
BLACK
6
CONTINUOUS
10
126.055
20
-81.2875
11
125.987
21
-81.3686
0
LINE
8
BLACK
6
CONTINUOUS
10
125.987
20
-81.3686
11
125.895
21
-81.4215
0
LINE
8
BLACK
6
CONTINUOUS
10
125.895
20
-81.4215
11
125.791
21
-81.4398
0
LINE
8
BLACK
6
CONTINUOUS
10
125.791
20
-81.4398
11
125.687
21
-81.4215
0
LINE
8
BLACK
6
CONTINUOUS
10
125.687
20
-81.4215
11
125.595
21
-81.3686
0
LINE
8
BLACK
6
CONTINUOUS
10
125.595
20
-81.3686
11
125.527
21
-81.2875
0
LINE
8
BLACK
6
CONTINUOUS
10
125.527
20
-81.2875
11
125.491
21
-81.1881
0
LINE
8
BLACK
6
CONTINUOUS
10
125.491
20
-81.1881
11
125.491
21
-81.0823
0
LINE
8
BLACK
6
CONTINUOUS
10
125.491
20
-81.0823
11
125.527
21
-80.9829
0
LINE
8
BLACK
6
CONTINUOUS
10
125.527
20
-80.9829
11
125.595
21
-80.9019
0
LINE
8
BLACK
6
CONTINUOUS
10
125.595
20
-80.9019
11
125.687
21
-80.849
0
LINE
8
BLACK
6
CONTINUOUS
10
125.687
20
-80.849
11
125.791
21
-80.8306
0
LINE
8
BLACK
6
CONTINUOUS
10
125.791
20
-80.8306
11
125.895
21
-80.849
0
LINE
8
BLACK
6
CONTINUOUS
10
125.895
20
-80.849
11
125.987
21
-80.9019
0
LINE
8
BLACK
6
CONTINUOUS
10
125.987
20
-80.9019
11
126.055
21
-80.9829
0
LINE
8
BLACK
6
CONTINUOUS
10
126.055
20
-80.9829
11
126.069
21
-81.0209
0
LINE
8
BLACK
6
CONTINUOUS
10
126.069
20
-81.0209
11
147.652
21
-81.0209
0
LINE
8
BLACK
6
CONTINUOUS
10
147.652
20
-81.0209
11
152.305
21
-76.3688
0
LINE
8
BLACK
6
CONTINUOUS
10
152.305
20
-76.3688
11
152.305
21
-75.3304
0
LINE
8
BLACK
6
CONTINUOUS
10
152.305
20
-75.3304
11
153.205
21
-75.3304
0
LINE
8
BLACK
6
CONTINUOUS
10
153.205
20
-75.3304
11
153.205
21
-76.5304
0
LINE
8
BLACK
6
CONTINUOUS
10
170.926
20
-80.8096
11
168.926
21
-80.8096
0
LINE
8
BLACK
6
CONTINUOUS
10
168.926
20
-80.8096
11
168.926
21
-79.6239
0
LINE
8
BLACK
6
CONTINUOUS
10
168.926
20
-79.6239
11
168.745
21
-79.6239
0
LINE
8
BLACK
6
CONTINUOUS
10
168.745
20
-79.6239
11
166.822
21
-81.5463
0
LINE
8
BLACK
6
CONTINUOUS
10
166.822
20
-81.5463
11
166.813
21
-81.5579
0
LINE
8
BLACK
6
CONTINUOUS
10
166.813
20
-81.5579
11
166.8
21
-81.5655
0
LINE
8
BLACK
6
CONTINUOUS
10
166.8
20
-81.5655
11
166.787
21
-81.5742
0
LINE
8
BLACK
6
CONTINUOUS
10
166.787
20
-81.5742
11
166.782
21
-81.5755
0
LINE
8
BLACK
6
CONTINUOUS
10
166.782
20
-81.5755
11
166.778
21
-81.578
0
LINE
8
BLACK
6
CONTINUOUS
10
166.778
20
-81.578
11
166.763
21
-81.5807
0
LINE
8
BLACK
6
CONTINUOUS
10
166.763
20
-81.5807
11
166.748
21
-81.5846
0
LINE
8
BLACK
6
CONTINUOUS
10
166.748
20
-81.5846
11
166.733
21
-81.5833
0
LINE
8
BLACK
6
CONTINUOUS
10
166.733
20
-81.5833
11
159.368
21
-81.5833
0
LINE
8
BLACK
6
CONTINUOUS
10
159.368
20
-81.5833
11
159.353
21
-81.5846
0
LINE
8
BLACK
6
CONTINUOUS
10
159.353
20
-81.5846
11
159.338
21
-81.5807
0
LINE
8
BLACK
6
CONTINUOUS
10
159.338
20
-81.5807
11
159.323
21
-81.578
0
LINE
8
BLACK
6
CONTINUOUS
10
159.323
20
-81.578
11
159.319
21
-81.5755
0
LINE
8
BLACK
6
CONTINUOUS
10
159.319
20
-81.5755
11
159.314
21
-81.5742
0
LINE
8
BLACK
6
CONTINUOUS
10
159.314
20
-81.5742
11
159.301
21
-81.5655
0
LINE
8
BLACK
6
CONTINUOUS
10
159.301
20
-81.5655
11
159.288
21
-81.5579
0
LINE
8
BLACK
6
CONTINUOUS
10
159.288
20
-81.5579
11
159.279
21
-81.5463
0
LINE
8
BLACK
6
CONTINUOUS
10
159.279
20
-81.5463
11
158.547
21
-80.8147
0
LINE
8
BLACK
6
CONTINUOUS
10
158.547
20
-80.8147
11
156.709
21
-80.8147
0
LINE
8
BLACK
6
CONTINUOUS
10
156.709
20
-80.8147
11
156.709
21
-78.2147
0
LINE
8
BLACK
6
CONTINUOUS
10
156.709
20
-78.2147
11
158.709
21
-78.2147
0
LINE
8
BLACK
6
CONTINUOUS
10
158.709
20
-78.2147
11
158.709
21
-80.6531
0
LINE
8
BLACK
6
CONTINUOUS
10
158.709
20
-80.6531
11
159.41
21
-81.3547
0
LINE
8
BLACK
6
CONTINUOUS
10
159.41
20
-81.3547
11
166.691
21
-81.3547
0
LINE
8
BLACK
6
CONTINUOUS
10
166.691
20
-81.3547
11
168.613
21
-79.4323
0
LINE
8
BLACK
6
CONTINUOUS
10
168.613
20
-79.4323
11
168.623
21
-79.4207
0
LINE
8
BLACK
6
CONTINUOUS
10
168.623
20
-79.4207
11
168.636
21
-79.4131
0
LINE
8
BLACK
6
CONTINUOUS
10
168.636
20
-79.4131
11
168.648
21
-79.4044
0
LINE
8
BLACK
6
CONTINUOUS
10
168.648
20
-79.4044
11
168.653
21
-79.4031
0
LINE
8
BLACK
6
CONTINUOUS
10
168.653
20
-79.4031
11
168.658
21
-79.4006
0
LINE
8
BLACK
6
CONTINUOUS
10
168.658
20
-79.4006
11
168.673
21
-79.3979
0
LINE
8
BLACK
6
CONTINUOUS
10
168.673
20
-79.3979
11
168.687
21
-79.394
0
LINE
8
BLACK
6
CONTINUOUS
10
168.687
20
-79.394
11
168.702
21
-79.3953
0
LINE
8
BLACK
6
CONTINUOUS
10
168.702
20
-79.3953
11
168.926
21
-79.3953
0
LINE
8
BLACK
6
CONTINUOUS
10
168.926
20
-79.3953
11
168.926
21
-78.2096
0
LINE
8
BLACK
6
CONTINUOUS
10
168.926
20
-78.2096
11
170.926
21
-78.2096
0
LINE
8
BLACK
6
CONTINUOUS
10
170.926
20
-78.2096
11
170.926
21
-80.8096
0
LINE
8
BLACK
6
CONTINUOUS
10
160.756
20
-78.3353
11
161.026
21
-78.562
0
LINE
8
BLACK
6
CONTINUOUS
10
161.026
20
-78.562
11
161.203
21
-78.8674
0
LINE
8
BLACK
6
CONTINUOUS
10
161.203
20
-78.8674
11
161.249
21
-79.1272
0
LINE
8
BLACK
6
CONTINUOUS
10
161.249
20
-79.1272
11
161.249
21
-79.9022
0
LINE
8
BLACK
6
CONTINUOUS
10
161.249
20
-79.9022
11
161.203
21
-80.162
0
LINE
8
BLACK
6
CONTINUOUS
10
161.203
20
-80.162
11
161.026
21
-80.4674
0
LINE
8
BLACK
6
CONTINUOUS
10
161.026
20
-80.4674
11
160.756
21
-80.6941
0
LINE
8
BLACK
6
CONTINUOUS
10
160.756
20
-80.6941
11
160.425
21
-80.8147
0
LINE
8
BLACK
6
CONTINUOUS
10
160.425
20
-80.8147
11
160.072
21
-80.8147
0
LINE
8
BLACK
6
CONTINUOUS
10
160.072
20
-80.8147
11
159.741
21
-80.6941
0
LINE
8
BLACK
6
CONTINUOUS
10
159.741
20
-80.6941
11
159.471
21
-80.4674
0
LINE
8
BLACK
6
CONTINUOUS
10
159.471
20
-80.4674
11
159.294
21
-80.162
0
LINE
8
BLACK
6
CONTINUOUS
10
159.294
20
-80.162
11
159.249
21
-79.9022
0
LINE
8
BLACK
6
CONTINUOUS
10
159.249
20
-79.9022
11
159.249
21
-79.1272
0
LINE
8
BLACK
6
CONTINUOUS
10
159.249
20
-79.1272
11
159.294
21
-78.8674
0
LINE
8
BLACK
6
CONTINUOUS
10
159.294
20
-78.8674
11
159.471
21
-78.562
0
LINE
8
BLACK
6
CONTINUOUS
10
159.471
20
-78.562
11
159.741
21
-78.3353
0
LINE
8
BLACK
6
CONTINUOUS
10
159.741
20
-78.3353
11
160.072
21
-78.2147
0
LINE
8
BLACK
6
CONTINUOUS
10
160.072
20
-78.2147
11
160.425
21
-78.2147
0
LINE
8
BLACK
6
CONTINUOUS
10
160.425
20
-78.2147
11
160.756
21
-78.3353
0
LINE
8
BLACK
6
CONTINUOUS
10
173.428
20
-77.4954
11
173.443
21
-77.498
0
LINE
8
BLACK
6
CONTINUOUS
10
173.443
20
-77.498
11
173.448
21
-77.5006
0
LINE
8
BLACK
6
CONTINUOUS
10
173.448
20
-77.5006
11
173.452
21
-77.5019
0
LINE
8
BLACK
6
CONTINUOUS
10
173.452
20
-77.5019
11
173.465
21
-77.5106
0
LINE
8
BLACK
6
CONTINUOUS
10
173.465
20
-77.5106
11
173.478
21
-77.5182
0
LINE
8
BLACK
6
CONTINUOUS
10
173.478
20
-77.5182
11
173.488
21
-77.5298
0
LINE
8
BLACK
6
CONTINUOUS
10
173.488
20
-77.5298
11
174.384
21
-78.4261
0
LINE
8
BLACK
6
CONTINUOUS
10
174.384
20
-78.4261
11
174.498
21
-78.3302
0
LINE
8
BLACK
6
CONTINUOUS
10
174.498
20
-78.3302
11
174.83
21
-78.2096
0
LINE
8
BLACK
6
CONTINUOUS
10
174.83
20
-78.2096
11
175.182
21
-78.2096
0
LINE
8
BLACK
6
CONTINUOUS
10
175.182
20
-78.2096
11
175.514
21
-78.3302
0
LINE
8
BLACK
6
CONTINUOUS
10
175.514
20
-78.3302
11
175.784
21
-78.5569
0
LINE
8
BLACK
6
CONTINUOUS
10
175.784
20
-78.5569
11
175.96
21
-78.8623
0
LINE
8
BLACK
6
CONTINUOUS
10
175.96
20
-78.8623
11
176.006
21
-79.1221
0
LINE
8
BLACK
6
CONTINUOUS
10
176.006
20
-79.1221
11
176.006
21
-79.8971
0
LINE
8
BLACK
6
CONTINUOUS
10
176.006
20
-79.8971
11
175.96
21
-80.1569
0
LINE
8
BLACK
6
CONTINUOUS
10
175.96
20
-80.1569
11
175.784
21
-80.4623
0
LINE
8
BLACK
6
CONTINUOUS
10
175.784
20
-80.4623
11
175.514
21
-80.689
0
LINE
8
BLACK
6
CONTINUOUS
10
175.514
20
-80.689
11
175.182
21
-80.8096
0
LINE
8
BLACK
6
CONTINUOUS
10
175.182
20
-80.8096
11
174.83
21
-80.8096
0
LINE
8
BLACK
6
CONTINUOUS
10
174.83
20
-80.8096
11
174.498
21
-80.689
0
LINE
8
BLACK
6
CONTINUOUS
10
174.498
20
-80.689
11
174.228
21
-80.4623
0
LINE
8
BLACK
6
CONTINUOUS
10
174.228
20
-80.4623
11
174.052
21
-80.1569
0
LINE
8
BLACK
6
CONTINUOUS
10
174.052
20
-80.1569
11
174.006
21
-79.8971
0
LINE
8
BLACK
6
CONTINUOUS
10
174.006
20
-79.8971
11
174.006
21
-79.1221
0
LINE
8
BLACK
6
CONTINUOUS
10
174.006
20
-79.1221
11
174.052
21
-78.8623
0
LINE
8
BLACK
6
CONTINUOUS
10
174.052
20
-78.8623
11
174.215
21
-78.58
0
LINE
8
BLACK
6
CONTINUOUS
10
174.215
20
-78.58
11
173.356
21
-77.7214
0
LINE
8
BLACK
6
CONTINUOUS
10
173.356
20
-77.7214
11
165.972
21
-77.7214
0
LINE
8
BLACK
6
CONTINUOUS
10
165.972
20
-77.7214
11
164.102
21
-79.592
0
LINE
8
BLACK
6
CONTINUOUS
10
164.102
20
-79.592
11
164.092
21
-79.6036
0
LINE
8
BLACK
6
CONTINUOUS
10
164.092
20
-79.6036
11
164.079
21
-79.6112
0
LINE
8
BLACK
6
CONTINUOUS
10
164.079
20
-79.6112
11
164.066
21
-79.6199
0
LINE
8
BLACK
6
CONTINUOUS
10
164.066
20
-79.6199
11
164.061
21
-79.6212
0
LINE
8
BLACK
6
CONTINUOUS
10
164.061
20
-79.6212
11
164.057
21
-79.6238
0
LINE
8
BLACK
6
CONTINUOUS
10
164.057
20
-79.6238
11
164.042
21
-79.6264
0
LINE
8
BLACK
6
CONTINUOUS
10
164.042
20
-79.6264
11
164.027
21
-79.6303
0
LINE
8
BLACK
6
CONTINUOUS
10
164.027
20
-79.6303
11
164.012
21
-79.629
0
LINE
8
BLACK
6
CONTINUOUS
10
164.012
20
-79.629
11
163.789
21
-79.629
0
LINE
8
BLACK
6
CONTINUOUS
10
163.789
20
-79.629
11
163.789
21
-79.9022
0
LINE
8
BLACK
6
CONTINUOUS
10
163.789
20
-79.9022
11
163.743
21
-80.162
0
LINE
8
BLACK
6
CONTINUOUS
10
163.743
20
-80.162
11
163.566
21
-80.4674
0
LINE
8
BLACK
6
CONTINUOUS
10
163.566
20
-80.4674
11
163.296
21
-80.6941
0
LINE
8
BLACK
6
CONTINUOUS
10
163.296
20
-80.6941
11
162.965
21
-80.8147
0
LINE
8
BLACK
6
CONTINUOUS
10
162.965
20
-80.8147
11
162.612
21
-80.8147
0
LINE
8
BLACK
6
CONTINUOUS
10
162.612
20
-80.8147
11
162.281
21
-80.6941
0
LINE
8
BLACK
6
CONTINUOUS
10
162.281
20
-80.6941
11
162.011
21
-80.4674
0
LINE
8
BLACK
6
CONTINUOUS
10
162.011
20
-80.4674
11
161.834
21
-80.162
0
LINE
8
BLACK
6
CONTINUOUS
10
161.834
20
-80.162
11
161.789
21
-79.9022
0
LINE
8
BLACK
6
CONTINUOUS
10
161.789
20
-79.9022
11
161.789
21
-79.1272
0
LINE
8
BLACK
6
CONTINUOUS
10
161.789
20
-79.1272
11
161.834
21
-78.8674
0
LINE
8
BLACK
6
CONTINUOUS
10
161.834
20
-78.8674
11
162.011
21
-78.562
0
LINE
8
BLACK
6
CONTINUOUS
10
162.011
20
-78.562
11
162.281
21
-78.3353
0
LINE
8
BLACK
6
CONTINUOUS
10
162.281
20
-78.3353
11
162.612
21
-78.2147
0
LINE
8
BLACK
6
CONTINUOUS
10
162.612
20
-78.2147
11
162.965
21
-78.2147
0
LINE
8
BLACK
6
CONTINUOUS
10
162.965
20
-78.2147
11
163.296
21
-78.3353
0
LINE
8
BLACK
6
CONTINUOUS
10
163.296
20
-78.3353
11
163.566
21
-78.562
0
LINE
8
BLACK
6
CONTINUOUS
10
163.566
20
-78.562
11
163.743
21
-78.8674
0
LINE
8
BLACK
6
CONTINUOUS
10
163.743
20
-78.8674
11
163.789
21
-79.1272
0
LINE
8
BLACK
6
CONTINUOUS
10
163.789
20
-79.1272
11
163.789
21
-79.4004
0
LINE
8
BLACK
6
CONTINUOUS
10
163.789
20
-79.4004
11
163.97
21
-79.4004
0
LINE
8
BLACK
6
CONTINUOUS
10
163.97
20
-79.4004
11
165.84
21
-77.5298
0
LINE
8
BLACK
6
CONTINUOUS
10
165.84
20
-77.5298
11
165.85
21
-77.5182
0
LINE
8
BLACK
6
CONTINUOUS
10
165.85
20
-77.5182
11
165.863
21
-77.5106
0
LINE
8
BLACK
6
CONTINUOUS
10
165.863
20
-77.5106
11
165.876
21
-77.5019
0
LINE
8
BLACK
6
CONTINUOUS
10
165.876
20
-77.5019
11
165.881
21
-77.5006
0
LINE
8
BLACK
6
CONTINUOUS
10
165.881
20
-77.5006
11
165.885
21
-77.498
0
LINE
8
BLACK
6
CONTINUOUS
10
165.885
20
-77.498
11
165.9
21
-77.4954
0
LINE
8
BLACK
6
CONTINUOUS
10
165.9
20
-77.4954
11
165.915
21
-77.4914
0
LINE
8
BLACK
6
CONTINUOUS
10
165.915
20
-77.4914
11
165.93
21
-77.4928
0
LINE
8
BLACK
6
CONTINUOUS
10
165.93
20
-77.4928
11
173.398
21
-77.4928
0
LINE
8
BLACK
6
CONTINUOUS
10
173.398
20
-77.4928
11
173.414
21
-77.4914
0
LINE
8
BLACK
6
CONTINUOUS
10
173.414
20
-77.4914
11
173.428
21
-77.4954
0
LINE
8
BLACK
6
CONTINUOUS
10
172.974
20
-78.3302
11
173.244
21
-78.5569
0
LINE
8
BLACK
6
CONTINUOUS
10
173.244
20
-78.5569
11
173.42
21
-78.8623
0
LINE
8
BLACK
6
CONTINUOUS
10
173.42
20
-78.8623
11
173.466
21
-79.1221
0
LINE
8
BLACK
6
CONTINUOUS
10
173.466
20
-79.1221
11
173.466
21
-79.8971
0
LINE
8
BLACK
6
CONTINUOUS
10
173.466
20
-79.8971
11
173.42
21
-80.1569
0
LINE
8
BLACK
6
CONTINUOUS
10
173.42
20
-80.1569
11
173.244
21
-80.4623
0
LINE
8
BLACK
6
CONTINUOUS
10
173.244
20
-80.4623
11
172.974
21
-80.689
0
LINE
8
BLACK
6
CONTINUOUS
10
172.974
20
-80.689
11
172.642
21
-80.8096
0
LINE
8
BLACK
6
CONTINUOUS
10
172.642
20
-80.8096
11
172.29
21
-80.8096
0
LINE
8
BLACK
6
CONTINUOUS
10
172.29
20
-80.8096
11
171.958
21
-80.689
0
LINE
8
BLACK
6
CONTINUOUS
10
171.958
20
-80.689
11
171.688
21
-80.4623
0
LINE
8
BLACK
6
CONTINUOUS
10
171.688
20
-80.4623
11
171.512
21
-80.1569
0
LINE
8
BLACK
6
CONTINUOUS
10
171.512
20
-80.1569
11
171.466
21
-79.8971
0
LINE
8
BLACK
6
CONTINUOUS
10
171.466
20
-79.8971
11
171.466
21
-79.1221
0
LINE
8
BLACK
6
CONTINUOUS
10
171.466
20
-79.1221
11
171.512
21
-78.8623
0
LINE
8
BLACK
6
CONTINUOUS
10
171.512
20
-78.8623
11
171.688
21
-78.5569
0
LINE
8
BLACK
6
CONTINUOUS
10
171.688
20
-78.5569
11
171.958
21
-78.3302
0
LINE
8
BLACK
6
CONTINUOUS
10
171.958
20
-78.3302
11
172.29
21
-78.2096
0
LINE
8
BLACK
6
CONTINUOUS
10
172.29
20
-78.2096
11
172.642
21
-78.2096
0
LINE
8
BLACK
6
CONTINUOUS
10
172.642
20
-78.2096
11
172.974
21
-78.3302
0
LINE
8
BLACK
6
CONTINUOUS
10
134.941
20
-78.2007
11
135.2
21
-78.3506
0
LINE
8
BLACK
6
CONTINUOUS
10
135.2
20
-78.3506
11
135.393
21
-78.5802
0
LINE
8
BLACK
6
CONTINUOUS
10
135.393
20
-78.5802
11
135.495
21
-78.8619
0
LINE
8
BLACK
6
CONTINUOUS
10
135.495
20
-78.8619
11
135.495
21
-79.1617
0
LINE
8
BLACK
6
CONTINUOUS
10
135.495
20
-79.1617
11
135.393
21
-79.4433
0
LINE
8
BLACK
6
CONTINUOUS
10
135.393
20
-79.4433
11
135.2
21
-79.673
0
LINE
8
BLACK
6
CONTINUOUS
10
135.2
20
-79.673
11
134.941
21
-79.8228
0
LINE
8
BLACK
6
CONTINUOUS
10
134.941
20
-79.8228
11
134.72
21
-79.8618
0
LINE
8
BLACK
6
CONTINUOUS
10
134.72
20
-79.8618
11
134.571
21
-79.8618
0
LINE
8
BLACK
6
CONTINUOUS
10
134.571
20
-79.8618
11
134.35
21
-79.8228
0
LINE
8
BLACK
6
CONTINUOUS
10
134.35
20
-79.8228
11
134.091
21
-79.673
0
LINE
8
BLACK
6
CONTINUOUS
10
134.091
20
-79.673
11
133.898
21
-79.4433
0
LINE
8
BLACK
6
CONTINUOUS
10
133.898
20
-79.4433
11
133.795
21
-79.1617
0
LINE
8
BLACK
6
CONTINUOUS
10
133.795
20
-79.1617
11
133.795
21
-78.8619
0
LINE
8
BLACK
6
CONTINUOUS
10
133.795
20
-78.8619
11
133.898
21
-78.5802
0
LINE
8
BLACK
6
CONTINUOUS
10
133.898
20
-78.5802
11
134.091
21
-78.3506
0
LINE
8
BLACK
6
CONTINUOUS
10
134.091
20
-78.3506
11
134.35
21
-78.2007
0
LINE
8
BLACK
6
CONTINUOUS
10
134.35
20
-78.2007
11
134.571
21
-78.1618
0
LINE
8
BLACK
6
CONTINUOUS
10
134.571
20
-78.1618
11
134.72
21
-78.1618
0
LINE
8
BLACK
6
CONTINUOUS
10
134.72
20
-78.1618
11
134.941
21
-78.2007
0
LINE
8
BLACK
6
CONTINUOUS
10
144.486
20
-77.6026
11
144.554
21
-77.5215
0
LINE
8
BLACK
6
CONTINUOUS
10
144.554
20
-77.5215
11
144.645
21
-77.4686
0
LINE
8
BLACK
6
CONTINUOUS
10
144.645
20
-77.4686
11
144.75
21
-77.4503
0
LINE
8
BLACK
6
CONTINUOUS
10
144.75
20
-77.4503
11
144.854
21
-77.4686
0
LINE
8
BLACK
6
CONTINUOUS
10
144.854
20
-77.4686
11
144.945
21
-77.5215
0
LINE
8
BLACK
6
CONTINUOUS
10
144.945
20
-77.5215
11
145.013
21
-77.6026
0
LINE
8
BLACK
6
CONTINUOUS
10
145.013
20
-77.6026
11
145.05
21
-77.702
0
LINE
8
BLACK
6
CONTINUOUS
10
145.05
20
-77.702
11
145.05
21
-77.8078
0
LINE
8
BLACK
6
CONTINUOUS
10
145.05
20
-77.8078
11
145.013
21
-77.9072
0
LINE
8
BLACK
6
CONTINUOUS
10
145.013
20
-77.9072
11
144.945
21
-77.9882
0
LINE
8
BLACK
6
CONTINUOUS
10
144.945
20
-77.9882
11
144.854
21
-78.0411
0
LINE
8
BLACK
6
CONTINUOUS
10
144.854
20
-78.0411
11
144.75
21
-78.0595
0
LINE
8
BLACK
6
CONTINUOUS
10
144.75
20
-78.0595
11
144.645
21
-78.0411
0
LINE
8
BLACK
6
CONTINUOUS
10
144.645
20
-78.0411
11
144.554
21
-77.9882
0
LINE
8
BLACK
6
CONTINUOUS
10
144.554
20
-77.9882
11
144.486
21
-77.9072
0
LINE
8
BLACK
6
CONTINUOUS
10
144.486
20
-77.9072
11
144.458
21
-77.8311
0
LINE
8
BLACK
6
CONTINUOUS
10
144.458
20
-77.8311
11
136.934
21
-77.8311
0
LINE
8
BLACK
6
CONTINUOUS
10
136.934
20
-77.8311
11
136.924
21
-77.832
0
LINE
8
BLACK
6
CONTINUOUS
10
136.924
20
-77.832
11
136.914
21
-77.8294
0
LINE
8
BLACK
6
CONTINUOUS
10
136.914
20
-77.8294
11
136.904
21
-77.8276
0
LINE
8
BLACK
6
CONTINUOUS
10
136.904
20
-77.8276
11
136.901
21
-77.8259
0
LINE
8
BLACK
6
CONTINUOUS
10
136.901
20
-77.8259
11
136.898
21
-77.825
0
LINE
8
BLACK
6
CONTINUOUS
10
136.898
20
-77.825
11
136.89
21
-77.8192
0
LINE
8
BLACK
6
CONTINUOUS
10
136.89
20
-77.8192
11
136.881
21
-77.8142
0
LINE
8
BLACK
6
CONTINUOUS
10
136.881
20
-77.8142
11
136.875
21
-77.8064
0
LINE
8
BLACK
6
CONTINUOUS
10
136.875
20
-77.8064
11
135.616
21
-76.548
0
LINE
8
BLACK
6
CONTINUOUS
10
135.616
20
-76.548
11
135.495
21
-76.548
0
LINE
8
BLACK
6
CONTINUOUS
10
135.495
20
-76.548
11
135.495
21
-77.3218
0
LINE
8
BLACK
6
CONTINUOUS
10
135.495
20
-77.3218
11
133.795
21
-77.3218
0
LINE
8
BLACK
6
CONTINUOUS
10
133.795
20
-77.3218
11
133.795
21
-75.6218
0
LINE
8
BLACK
6
CONTINUOUS
10
133.795
20
-75.6218
11
135.495
21
-75.6218
0
LINE
8
BLACK
6
CONTINUOUS
10
135.495
20
-75.6218
11
135.495
21
-76.3956
0
LINE
8
BLACK
6
CONTINUOUS
10
135.495
20
-76.3956
11
135.644
21
-76.3956
0
LINE
8
BLACK
6
CONTINUOUS
10
135.644
20
-76.3956
11
135.655
21
-76.3947
0
LINE
8
BLACK
6
CONTINUOUS
10
135.655
20
-76.3947
11
135.664
21
-76.3973
0
LINE
8
BLACK
6
CONTINUOUS
10
135.664
20
-76.3973
11
135.674
21
-76.3991
0
LINE
8
BLACK
6
CONTINUOUS
10
135.674
20
-76.3991
11
135.677
21
-76.4008
0
LINE
8
BLACK
6
CONTINUOUS
10
135.677
20
-76.4008
11
135.68
21
-76.4017
0
LINE
8
BLACK
6
CONTINUOUS
10
135.68
20
-76.4017
11
135.689
21
-76.4074
0
LINE
8
BLACK
6
CONTINUOUS
10
135.689
20
-76.4074
11
135.698
21
-76.4125
0
LINE
8
BLACK
6
CONTINUOUS
10
135.698
20
-76.4125
11
135.704
21
-76.4203
0
LINE
8
BLACK
6
CONTINUOUS
10
135.704
20
-76.4203
11
136.962
21
-77.6787
0
LINE
8
BLACK
6
CONTINUOUS
10
136.962
20
-77.6787
11
144.458
21
-77.6787
0
LINE
8
BLACK
6
CONTINUOUS
10
144.458
20
-77.6787
11
144.486
21
-77.6026
0
LINE
8
BLACK
6
CONTINUOUS
10
166.995
20
-75.8161
11
167.335
21
-75.8161
0
LINE
8
BLACK
6
CONTINUOUS
10
167.335
20
-75.8161
11
167.341
21
-75.8013
0
LINE
8
BLACK
6
CONTINUOUS
10
167.341
20
-75.8013
11
167.409
21
-75.7203
0
LINE
8
BLACK
6
CONTINUOUS
10
167.409
20
-75.7203
11
167.5
21
-75.6674
0
LINE
8
BLACK
6
CONTINUOUS
10
167.5
20
-75.6674
11
167.604
21
-75.649
0
LINE
8
BLACK
6
CONTINUOUS
10
167.604
20
-75.649
11
167.709
21
-75.6674
0
LINE
8
BLACK
6
CONTINUOUS
10
167.709
20
-75.6674
11
167.8
21
-75.7203
0
LINE
8
BLACK
6
CONTINUOUS
10
167.8
20
-75.7203
11
167.868
21
-75.8013
0
LINE
8
BLACK
6
CONTINUOUS
10
167.868
20
-75.8013
11
167.904
21
-75.9007
0
LINE
8
BLACK
6
CONTINUOUS
10
167.904
20
-75.9007
11
167.904
21
-76.0065
0
LINE
8
BLACK
6
CONTINUOUS
10
167.904
20
-76.0065
11
167.868
21
-76.1059
0
LINE
8
BLACK
6
CONTINUOUS
10
167.868
20
-76.1059
11
167.8
21
-76.187
0
LINE
8
BLACK
6
CONTINUOUS
10
167.8
20
-76.187
11
167.709
21
-76.2399
0
LINE
8
BLACK
6
CONTINUOUS
10
167.709
20
-76.2399
11
167.604
21
-76.2582
0
LINE
8
BLACK
6
CONTINUOUS
10
167.604
20
-76.2582
11
167.5
21
-76.2399
0
LINE
8
BLACK
6
CONTINUOUS
10
167.5
20
-76.2399
11
167.409
21
-76.187
0
LINE
8
BLACK
6
CONTINUOUS
10
167.409
20
-76.187
11
167.341
21
-76.1059
0
LINE
8
BLACK
6
CONTINUOUS
10
167.341
20
-76.1059
11
167.318
21
-76.0447
0
LINE
8
BLACK
6
CONTINUOUS
10
167.318
20
-76.0447
11
166.995
21
-76.0447
0
LINE
8
BLACK
6
CONTINUOUS
10
166.995
20
-76.0447
11
166.995
21
-76.5304
0
LINE
8
BLACK
6
CONTINUOUS
10
166.995
20
-76.5304
11
166.095
21
-76.5304
0
LINE
8
BLACK
6
CONTINUOUS
10
166.095
20
-76.5304
11
166.095
21
-75.3304
0
LINE
8
BLACK
6
CONTINUOUS
10
166.095
20
-75.3304
11
166.995
21
-75.3304
0
LINE
8
BLACK
6
CONTINUOUS
10
166.995
20
-75.3304
11
166.995
21
-75.8161
0
LINE
8
BLACK
6
CONTINUOUS
10
129.095
20
-75.8161
11
129.374
21
-75.8161
0
LINE
8
BLACK
6
CONTINUOUS
10
129.374
20
-75.8161
11
129.388
21
-75.7781
0
LINE
8
BLACK
6
CONTINUOUS
10
129.388
20
-75.7781
11
129.456
21
-75.697
0
LINE
8
BLACK
6
CONTINUOUS
10
129.456
20
-75.697
11
129.547
21
-75.6441
0
LINE
8
BLACK
6
CONTINUOUS
10
129.547
20
-75.6441
11
129.651
21
-75.6258
0
LINE
8
BLACK
6
CONTINUOUS
10
129.651
20
-75.6258
11
129.756
21
-75.6441
0
LINE
8
BLACK
6
CONTINUOUS
10
129.756
20
-75.6441
11
129.847
21
-75.697
0
LINE
8
BLACK
6
CONTINUOUS
10
129.847
20
-75.697
11
129.915
21
-75.7781
0
LINE
8
BLACK
6
CONTINUOUS
10
129.915
20
-75.7781
11
129.951
21
-75.8775
0
LINE
8
BLACK
6
CONTINUOUS
10
129.951
20
-75.8775
11
129.951
21
-75.9833
0
LINE
8
BLACK
6
CONTINUOUS
10
129.951
20
-75.9833
11
129.915
21
-76.0827
0
LINE
8
BLACK
6
CONTINUOUS
10
129.915
20
-76.0827
11
129.847
21
-76.1638
0
LINE
8
BLACK
6
CONTINUOUS
10
129.847
20
-76.1638
11
129.756
21
-76.2167
0
LINE
8
BLACK
6
CONTINUOUS
10
129.756
20
-76.2167
11
129.651
21
-76.235
0
LINE
8
BLACK
6
CONTINUOUS
10
129.651
20
-76.235
11
129.547
21
-76.2167
0
LINE
8
BLACK
6
CONTINUOUS
10
129.547
20
-76.2167
11
129.456
21
-76.1638
0
LINE
8
BLACK
6
CONTINUOUS
10
129.456
20
-76.1638
11
129.388
21
-76.0827
0
LINE
8
BLACK
6
CONTINUOUS
10
129.388
20
-76.0827
11
129.374
21
-76.0447
0
LINE
8
BLACK
6
CONTINUOUS
10
129.374
20
-76.0447
11
129.095
21
-76.0447
0
LINE
8
BLACK
6
CONTINUOUS
10
129.095
20
-76.0447
11
129.095
21
-76.5304
0
LINE
8
BLACK
6
CONTINUOUS
10
129.095
20
-76.5304
11
128.195
21
-76.5304
0
LINE
8
BLACK
6
CONTINUOUS
10
128.195
20
-76.5304
11
128.195
21
-75.3304
0
LINE
8
BLACK
6
CONTINUOUS
10
128.195
20
-75.3304
11
129.095
21
-75.3304
0
LINE
8
BLACK
6
CONTINUOUS
10
129.095
20
-75.3304
11
129.095
21
-75.8161
0
LINE
8
BLACK
6
CONTINUOUS
10
148.455
20
-74.5757
11
148.679
21
-74.5757
0
LINE
8
BLACK
6
CONTINUOUS
10
148.679
20
-74.5757
11
148.694
21
-74.5744
0
LINE
8
BLACK
6
CONTINUOUS
10
148.694
20
-74.5744
11
148.708
21
-74.5783
0
LINE
8
BLACK
6
CONTINUOUS
10
148.708
20
-74.5783
11
148.723
21
-74.5809
0
LINE
8
BLACK
6
CONTINUOUS
10
148.723
20
-74.5809
11
148.728
21
-74.5835
0
LINE
8
BLACK
6
CONTINUOUS
10
148.728
20
-74.5835
11
148.733
21
-74.5848
0
LINE
8
BLACK
6
CONTINUOUS
10
148.733
20
-74.5848
11
148.745
21
-74.5935
0
LINE
8
BLACK
6
CONTINUOUS
10
148.745
20
-74.5935
11
148.758
21
-74.6011
0
LINE
8
BLACK
6
CONTINUOUS
10
148.758
20
-74.6011
11
148.768
21
-74.6127
0
LINE
8
BLACK
6
CONTINUOUS
10
148.768
20
-74.6127
11
149.317
21
-75.1621
0
LINE
8
BLACK
6
CONTINUOUS
10
149.317
20
-75.1621
11
149.329
21
-75.1718
0
LINE
8
BLACK
6
CONTINUOUS
10
149.329
20
-75.1718
11
149.336
21
-75.1849
0
LINE
8
BLACK
6
CONTINUOUS
10
149.336
20
-75.1849
11
149.345
21
-75.1973
0
LINE
8
BLACK
6
CONTINUOUS
10
149.345
20
-75.1973
11
149.347
21
-75.2023
0
LINE
8
BLACK
6
CONTINUOUS
10
149.347
20
-75.2023
11
149.349
21
-75.2067
0
LINE
8
BLACK
6
CONTINUOUS
10
149.349
20
-75.2067
11
149.352
21
-75.2217
0
LINE
8
BLACK
6
CONTINUOUS
10
149.352
20
-75.2217
11
149.356
21
-75.2363
0
LINE
8
BLACK
6
CONTINUOUS
10
149.356
20
-75.2363
11
149.354
21
-75.2514
0
LINE
8
BLACK
6
CONTINUOUS
10
149.354
20
-75.2514
11
149.354
21
-75.3696
0
LINE
8
BLACK
6
CONTINUOUS
10
149.354
20
-75.3696
11
149.436
21
-75.4166
0
LINE
8
BLACK
6
CONTINUOUS
10
149.436
20
-75.4166
11
149.504
21
-75.4977
0
LINE
8
BLACK
6
CONTINUOUS
10
149.504
20
-75.4977
11
149.54
21
-75.5971
0
LINE
8
BLACK
6
CONTINUOUS
10
149.54
20
-75.5971
11
149.54
21
-75.7029
0
LINE
8
BLACK
6
CONTINUOUS
10
149.54
20
-75.7029
11
149.504
21
-75.8023
0
LINE
8
BLACK
6
CONTINUOUS
10
149.504
20
-75.8023
11
149.436
21
-75.8834
0
LINE
8
BLACK
6
CONTINUOUS
10
149.436
20
-75.8834
11
149.344
21
-75.9363
0
LINE
8
BLACK
6
CONTINUOUS
10
149.344
20
-75.9363
11
149.24
21
-75.9546
0
LINE
8
BLACK
6
CONTINUOUS
10
149.24
20
-75.9546
11
149.136
21
-75.9363
0
LINE
8
BLACK
6
CONTINUOUS
10
149.136
20
-75.9363
11
149.044
21
-75.8834
0
LINE
8
BLACK
6
CONTINUOUS
10
149.044
20
-75.8834
11
148.976
21
-75.8023
0
LINE
8
BLACK
6
CONTINUOUS
10
148.976
20
-75.8023
11
148.94
21
-75.7029
0
LINE
8
BLACK
6
CONTINUOUS
10
148.94
20
-75.7029
11
148.94
21
-75.5971
0
LINE
8
BLACK
6
CONTINUOUS
10
148.94
20
-75.5971
11
148.976
21
-75.4977
0
LINE
8
BLACK
6
CONTINUOUS
10
148.976
20
-75.4977
11
149.044
21
-75.4166
0
LINE
8
BLACK
6
CONTINUOUS
10
149.044
20
-75.4166
11
149.126
21
-75.3696
0
LINE
8
BLACK
6
CONTINUOUS
10
149.126
20
-75.3696
11
149.126
21
-75.2937
0
LINE
8
BLACK
6
CONTINUOUS
10
149.126
20
-75.2937
11
148.636
21
-74.8043
0
LINE
8
BLACK
6
CONTINUOUS
10
148.636
20
-74.8043
11
148.455
21
-74.8043
0
LINE
8
BLACK
6
CONTINUOUS
10
148.455
20
-74.8043
11
148.455
21
-75.29
0
LINE
8
BLACK
6
CONTINUOUS
10
148.455
20
-75.29
11
147.705
21
-75.29
0
LINE
8
BLACK
6
CONTINUOUS
10
147.705
20
-75.29
11
147.705
21
-74.09
0
LINE
8
BLACK
6
CONTINUOUS
10
147.705
20
-74.09
11
148.455
21
-74.09
0
LINE
8
BLACK
6
CONTINUOUS
10
148.455
20
-74.09
11
148.455
21
-74.5757
0
LINE
8
BLACK
6
CONTINUOUS
10
140.919
20
-74.1345
11
141.011
21
-74.1874
0
LINE
8
BLACK
6
CONTINUOUS
10
141.011
20
-74.1874
11
141.079
21
-74.2685
0
LINE
8
BLACK
6
CONTINUOUS
10
141.079
20
-74.2685
11
141.093
21
-74.3065
0
LINE
8
BLACK
6
CONTINUOUS
10
141.093
20
-74.3065
11
141.234
21
-74.3065
0
LINE
8
BLACK
6
CONTINUOUS
10
141.234
20
-74.3065
11
141.25
21
-74.3052
0
LINE
8
BLACK
6
CONTINUOUS
10
141.25
20
-74.3052
11
141.264
21
-74.3091
0
LINE
8
BLACK
6
CONTINUOUS
10
141.264
20
-74.3091
11
141.279
21
-74.3117
0
LINE
8
BLACK
6
CONTINUOUS
10
141.279
20
-74.3117
11
141.284
21
-74.3143
0
LINE
8
BLACK
6
CONTINUOUS
10
141.284
20
-74.3143
11
141.288
21
-74.3156
0
LINE
8
BLACK
6
CONTINUOUS
10
141.288
20
-74.3156
11
141.301
21
-74.3243
0
LINE
8
BLACK
6
CONTINUOUS
10
141.301
20
-74.3243
11
141.314
21
-74.3319
0
LINE
8
BLACK
6
CONTINUOUS
10
141.314
20
-74.3319
11
141.324
21
-74.3435
0
LINE
8
BLACK
6
CONTINUOUS
10
141.324
20
-74.3435
11
141.518
21
-74.5382
0
LINE
8
BLACK
6
CONTINUOUS
10
141.518
20
-74.5382
11
146.158
21
-74.5382
0
LINE
8
BLACK
6
CONTINUOUS
10
146.158
20
-74.5382
11
146.173
21
-74.5369
0
LINE
8
BLACK
6
CONTINUOUS
10
146.173
20
-74.5369
11
146.187
21
-74.5408
0
LINE
8
BLACK
6
CONTINUOUS
10
146.187
20
-74.5408
11
146.202
21
-74.5434
0
LINE
8
BLACK
6
CONTINUOUS
10
146.202
20
-74.5434
11
146.207
21
-74.546
0
LINE
8
BLACK
6
CONTINUOUS
10
146.207
20
-74.546
11
146.212
21
-74.5473
0
LINE
8
BLACK
6
CONTINUOUS
10
146.212
20
-74.5473
11
146.224
21
-74.556
0
LINE
8
BLACK
6
CONTINUOUS
10
146.224
20
-74.556
11
146.237
21
-74.5636
0
LINE
8
BLACK
6
CONTINUOUS
10
146.237
20
-74.5636
11
146.247
21
-74.5752
0
LINE
8
BLACK
6
CONTINUOUS
10
146.247
20
-74.5752
11
146.753
21
-75.0812
0
LINE
8
BLACK
6
CONTINUOUS
10
146.753
20
-75.0812
11
146.766
21
-75.0737
0
LINE
8
BLACK
6
CONTINUOUS
10
146.766
20
-75.0737
11
146.87
21
-75.0554
0
LINE
8
BLACK
6
CONTINUOUS
10
146.87
20
-75.0554
11
146.974
21
-75.0737
0
LINE
8
BLACK
6
CONTINUOUS
10
146.974
20
-75.0737
11
147.066
21
-75.1266
0
LINE
8
BLACK
6
CONTINUOUS
10
147.066
20
-75.1266
11
147.134
21
-75.2077
0
LINE
8
BLACK
6
CONTINUOUS
10
147.134
20
-75.2077
11
147.17
21
-75.3071
0
LINE
8
BLACK
6
CONTINUOUS
10
147.17
20
-75.3071
11
147.17
21
-75.4129
0
LINE
8
BLACK
6
CONTINUOUS
10
147.17
20
-75.4129
11
147.134
21
-75.5123
0
LINE
8
BLACK
6
CONTINUOUS
10
147.134
20
-75.5123
11
147.066
21
-75.5934
0
LINE
8
BLACK
6
CONTINUOUS
10
147.066
20
-75.5934
11
146.974
21
-75.6463
0
LINE
8
BLACK
6
CONTINUOUS
10
146.974
20
-75.6463
11
146.87
21
-75.6646
0
LINE
8
BLACK
6
CONTINUOUS
10
146.87
20
-75.6646
11
146.766
21
-75.6463
0
LINE
8
BLACK
6
CONTINUOUS
10
146.766
20
-75.6463
11
146.674
21
-75.5934
0
LINE
8
BLACK
6
CONTINUOUS
10
146.674
20
-75.5934
11
146.606
21
-75.5123
0
LINE
8
BLACK
6
CONTINUOUS
10
146.606
20
-75.5123
11
146.57
21
-75.4129
0
LINE
8
BLACK
6
CONTINUOUS
10
146.57
20
-75.4129
11
146.57
21
-75.3071
0
LINE
8
BLACK
6
CONTINUOUS
10
146.57
20
-75.3071
11
146.593
21
-75.2444
0
LINE
8
BLACK
6
CONTINUOUS
10
146.593
20
-75.2444
11
146.115
21
-74.7668
0
LINE
8
BLACK
6
CONTINUOUS
10
146.115
20
-74.7668
11
141.476
21
-74.7668
0
LINE
8
BLACK
6
CONTINUOUS
10
141.476
20
-74.7668
11
141.461
21
-74.7681
0
LINE
8
BLACK
6
CONTINUOUS
10
141.461
20
-74.7681
11
141.446
21
-74.7642
0
LINE
8
BLACK
6
CONTINUOUS
10
141.446
20
-74.7642
11
141.431
21
-74.7616
0
LINE
8
BLACK
6
CONTINUOUS
10
141.431
20
-74.7616
11
141.427
21
-74.759
0
LINE
8
BLACK
6
CONTINUOUS
10
141.427
20
-74.759
11
141.422
21
-74.7577
0
LINE
8
BLACK
6
CONTINUOUS
10
141.422
20
-74.7577
11
141.41
21
-74.749
0
LINE
8
BLACK
6
CONTINUOUS
10
141.41
20
-74.749
11
141.397
21
-74.7414
0
LINE
8
BLACK
6
CONTINUOUS
10
141.397
20
-74.7414
11
141.387
21
-74.7298
0
LINE
8
BLACK
6
CONTINUOUS
10
141.387
20
-74.7298
11
141.192
21
-74.5351
0
LINE
8
BLACK
6
CONTINUOUS
10
141.192
20
-74.5351
11
141.093
21
-74.5351
0
LINE
8
BLACK
6
CONTINUOUS
10
141.093
20
-74.5351
11
141.079
21
-74.5731
0
LINE
8
BLACK
6
CONTINUOUS
10
141.079
20
-74.5731
11
141.011
21
-74.6541
0
LINE
8
BLACK
6
CONTINUOUS
10
141.011
20
-74.6541
11
140.919
21
-74.707
0
LINE
8
BLACK
6
CONTINUOUS
10
140.919
20
-74.707
11
140.815
21
-74.7254
0
LINE
8
BLACK
6
CONTINUOUS
10
140.815
20
-74.7254
11
140.711
21
-74.707
0
LINE
8
BLACK
6
CONTINUOUS
10
140.711
20
-74.707
11
140.619
21
-74.6541
0
LINE
8
BLACK
6
CONTINUOUS
10
140.619
20
-74.6541
11
140.551
21
-74.5731
0
LINE
8
BLACK
6
CONTINUOUS
10
140.551
20
-74.5731
11
140.515
21
-74.4737
0
LINE
8
BLACK
6
CONTINUOUS
10
140.515
20
-74.4737
11
140.515
21
-74.3679
0
LINE
8
BLACK
6
CONTINUOUS
10
140.515
20
-74.3679
11
140.551
21
-74.2685
0
LINE
8
BLACK
6
CONTINUOUS
10
140.551
20
-74.2685
11
140.619
21
-74.1874
0
LINE
8
BLACK
6
CONTINUOUS
10
140.619
20
-74.1874
11
140.711
21
-74.1345
0
LINE
8
BLACK
6
CONTINUOUS
10
140.711
20
-74.1345
11
140.815
21
-74.1162
0
LINE
8
BLACK
6
CONTINUOUS
10
140.815
20
-74.1162
11
140.919
21
-74.1345
0
LINE
8
BLACK
6
CONTINUOUS
10
140.962
20
-72.7901
11
140.977
21
-72.7927
0
LINE
8
BLACK
6
CONTINUOUS
10
140.977
20
-72.7927
11
140.982
21
-72.7953
0
LINE
8
BLACK
6
CONTINUOUS
10
140.982
20
-72.7953
11
140.986
21
-72.7966
0
LINE
8
BLACK
6
CONTINUOUS
10
140.986
20
-72.7966
11
140.999
21
-72.8053
0
LINE
8
BLACK
6
CONTINUOUS
10
140.999
20
-72.8053
11
141.012
21
-72.8129
0
LINE
8
BLACK
6
CONTINUOUS
10
141.012
20
-72.8129
11
141.022
21
-72.8245
0
LINE
8
BLACK
6
CONTINUOUS
10
141.022
20
-72.8245
11
141.813
21
-73.6161
0
LINE
8
BLACK
6
CONTINUOUS
10
141.813
20
-73.6161
11
141.995
21
-73.6161
0
LINE
8
BLACK
6
CONTINUOUS
10
141.995
20
-73.6161
11
141.995
21
-73.1304
0
LINE
8
BLACK
6
CONTINUOUS
10
141.995
20
-73.1304
11
142.895
21
-73.1304
0
LINE
8
BLACK
6
CONTINUOUS
10
142.895
20
-73.1304
11
142.895
21
-73.6161
0
LINE
8
BLACK
6
CONTINUOUS
10
142.895
20
-73.6161
11
152.305
21
-73.6161
0
LINE
8
BLACK
6
CONTINUOUS
10
152.305
20
-73.6161
11
152.305
21
-73.1304
0
LINE
8
BLACK
6
CONTINUOUS
10
152.305
20
-73.1304
11
153.205
21
-73.1304
0
LINE
8
BLACK
6
CONTINUOUS
10
153.205
20
-73.1304
11
153.205
21
-73.6161
0
LINE
8
BLACK
6
CONTINUOUS
10
153.205
20
-73.6161
11
166.095
21
-73.6161
0
LINE
8
BLACK
6
CONTINUOUS
10
166.095
20
-73.6161
11
166.095
21
-73.1304
0
LINE
8
BLACK
6
CONTINUOUS
10
166.095
20
-73.1304
11
166.995
21
-73.1304
0
LINE
8
BLACK
6
CONTINUOUS
10
166.995
20
-73.1304
11
166.995
21
-73.6161
0
LINE
8
BLACK
6
CONTINUOUS
10
166.995
20
-73.6161
11
176.405
21
-73.6161
0
LINE
8
BLACK
6
CONTINUOUS
10
176.405
20
-73.6161
11
176.405
21
-73.1304
0
LINE
8
BLACK
6
CONTINUOUS
10
176.405
20
-73.1304
11
177.305
21
-73.1304
0
LINE
8
BLACK
6
CONTINUOUS
10
177.305
20
-73.1304
11
177.305
21
-74.3304
0
LINE
8
BLACK
6
CONTINUOUS
10
177.305
20
-74.3304
11
176.405
21
-74.3304
0
LINE
8
BLACK
6
CONTINUOUS
10
176.405
20
-74.3304
11
176.405
21
-73.8447
0
LINE
8
BLACK
6
CONTINUOUS
10
176.405
20
-73.8447
11
166.995
21
-73.8447
0
LINE
8
BLACK
6
CONTINUOUS
10
166.995
20
-73.8447
11
166.995
21
-74.3304
0
LINE
8
BLACK
6
CONTINUOUS
10
166.995
20
-74.3304
11
166.095
21
-74.3304
0
LINE
8
BLACK
6
CONTINUOUS
10
166.095
20
-74.3304
11
166.095
21
-73.8447
0
LINE
8
BLACK
6
CONTINUOUS
10
166.095
20
-73.8447
11
153.205
21
-73.8447
0
LINE
8
BLACK
6
CONTINUOUS
10
153.205
20
-73.8447
11
153.205
21
-74.3304
0
LINE
8
BLACK
6
CONTINUOUS
10
153.205
20
-74.3304
11
152.305
21
-74.3304
0
LINE
8
BLACK
6
CONTINUOUS
10
152.305
20
-74.3304
11
152.305
21
-73.8447
0
LINE
8
BLACK
6
CONTINUOUS
10
152.305
20
-73.8447
11
142.895
21
-73.8447
0
LINE
8
BLACK
6
CONTINUOUS
10
142.895
20
-73.8447
11
142.895
21
-74.3304
0
LINE
8
BLACK
6
CONTINUOUS
10
142.895
20
-74.3304
11
141.995
21
-74.3304
0
LINE
8
BLACK
6
CONTINUOUS
10
141.995
20
-74.3304
11
141.995
21
-73.8447
0
LINE
8
BLACK
6
CONTINUOUS
10
141.995
20
-73.8447
11
141.771
21
-73.8447
0
LINE
8
BLACK
6
CONTINUOUS
10
141.771
20
-73.8447
11
141.756
21
-73.846
0
LINE
8
BLACK
6
CONTINUOUS
10
141.756
20
-73.846
11
141.741
21
-73.8421
0
LINE
8
BLACK
6
CONTINUOUS
10
141.741
20
-73.8421
11
141.726
21
-73.8395
0
LINE
8
BLACK
6
CONTINUOUS
10
141.726
20
-73.8395
11
141.722
21
-73.8369
0
LINE
8
BLACK
6
CONTINUOUS
10
141.722
20
-73.8369
11
141.717
21
-73.8356
0
LINE
8
BLACK
6
CONTINUOUS
10
141.717
20
-73.8356
11
141.705
21
-73.8269
0
LINE
8
BLACK
6
CONTINUOUS
10
141.705
20
-73.8269
11
141.691
21
-73.8193
0
LINE
8
BLACK
6
CONTINUOUS
10
141.691
20
-73.8193
11
141.682
21
-73.8077
0
LINE
8
BLACK
6
CONTINUOUS
10
141.682
20
-73.8077
11
140.89
21
-73.0161
0
LINE
8
BLACK
6
CONTINUOUS
10
140.89
20
-73.0161
11
130.199
21
-73.0161
0
LINE
8
BLACK
6
CONTINUOUS
10
130.199
20
-73.0161
11
129.408
21
-73.8077
0
LINE
8
BLACK
6
CONTINUOUS
10
129.408
20
-73.8077
11
129.398
21
-73.8193
0
LINE
8
BLACK
6
CONTINUOUS
10
129.398
20
-73.8193
11
129.385
21
-73.8269
0
LINE
8
BLACK
6
CONTINUOUS
10
129.385
20
-73.8269
11
129.372
21
-73.8356
0
LINE
8
BLACK
6
CONTINUOUS
10
129.372
20
-73.8356
11
129.367
21
-73.8369
0
LINE
8
BLACK
6
CONTINUOUS
10
129.367
20
-73.8369
11
129.363
21
-73.8395
0
LINE
8
BLACK
6
CONTINUOUS
10
129.363
20
-73.8395
11
129.348
21
-73.8421
0
LINE
8
BLACK
6
CONTINUOUS
10
129.348
20
-73.8421
11
129.333
21
-73.846
0
LINE
8
BLACK
6
CONTINUOUS
10
129.333
20
-73.846
11
129.318
21
-73.8447
0
LINE
8
BLACK
6
CONTINUOUS
10
129.318
20
-73.8447
11
129.095
21
-73.8447
0
LINE
8
BLACK
6
CONTINUOUS
10
129.095
20
-73.8447
11
129.095
21
-74.3304
0
LINE
8
BLACK
6
CONTINUOUS
10
129.095
20
-74.3304
11
128.195
21
-74.3304
0
LINE
8
BLACK
6
CONTINUOUS
10
128.195
20
-74.3304
11
128.195
21
-73.8447
0
LINE
8
BLACK
6
CONTINUOUS
10
128.195
20
-73.8447
11
118.785
21
-73.8447
0
LINE
8
BLACK
6
CONTINUOUS
10
118.785
20
-73.8447
11
118.785
21
-74.1688
0
LINE
8
BLACK
6
CONTINUOUS
10
118.785
20
-74.1688
11
119.061
21
-74.4447
0
LINE
8
BLACK
6
CONTINUOUS
10
119.061
20
-74.4447
11
119.158
21
-74.4447
0
LINE
8
BLACK
6
CONTINUOUS
10
119.158
20
-74.4447
11
119.173
21
-74.4434
0
LINE
8
BLACK
6
CONTINUOUS
10
119.173
20
-74.4434
11
119.188
21
-74.4473
0
LINE
8
BLACK
6
CONTINUOUS
10
119.188
20
-74.4473
11
119.203
21
-74.4499
0
LINE
8
BLACK
6
CONTINUOUS
10
119.203
20
-74.4499
11
119.207
21
-74.4525
0
LINE
8
BLACK
6
CONTINUOUS
10
119.207
20
-74.4525
11
119.212
21
-74.4538
0
LINE
8
BLACK
6
CONTINUOUS
10
119.212
20
-74.4538
11
119.225
21
-74.4625
0
LINE
8
BLACK
6
CONTINUOUS
10
119.225
20
-74.4625
11
119.238
21
-74.4701
0
LINE
8
BLACK
6
CONTINUOUS
10
119.238
20
-74.4701
11
119.248
21
-74.4817
0
LINE
8
BLACK
6
CONTINUOUS
10
119.248
20
-74.4817
11
119.582
21
-74.8157
0
LINE
8
BLACK
6
CONTINUOUS
10
119.582
20
-74.8157
11
120.372
21
-74.8157
0
LINE
8
BLACK
6
CONTINUOUS
10
120.372
20
-74.8157
11
120.386
21
-74.7777
0
LINE
8
BLACK
6
CONTINUOUS
10
120.386
20
-74.7777
11
120.454
21
-74.6966
0
LINE
8
BLACK
6
CONTINUOUS
10
120.454
20
-74.6966
11
120.546
21
-74.6437
0
LINE
8
BLACK
6
CONTINUOUS
10
120.546
20
-74.6437
11
120.65
21
-74.6254
0
LINE
8
BLACK
6
CONTINUOUS
10
120.65
20
-74.6254
11
120.754
21
-74.6437
0
LINE
8
BLACK
6
CONTINUOUS
10
120.754
20
-74.6437
11
120.846
21
-74.6966
0
LINE
8
BLACK
6
CONTINUOUS
10
120.846
20
-74.6966
11
120.914
21
-74.7777
0
LINE
8
BLACK
6
CONTINUOUS
10
120.914
20
-74.7777
11
120.95
21
-74.8771
0
LINE
8
BLACK
6
CONTINUOUS
10
120.95
20
-74.8771
11
120.95
21
-74.9829
0
LINE
8
BLACK
6
CONTINUOUS
10
120.95
20
-74.9829
11
120.914
21
-75.0823
0
LINE
8
BLACK
6
CONTINUOUS
10
120.914
20
-75.0823
11
120.846
21
-75.1634
0
LINE
8
BLACK
6
CONTINUOUS
10
120.846
20
-75.1634
11
120.754
21
-75.2163
0
LINE
8
BLACK
6
CONTINUOUS
10
120.754
20
-75.2163
11
120.65
21
-75.2346
0
LINE
8
BLACK
6
CONTINUOUS
10
120.65
20
-75.2346
11
120.546
21
-75.2163
0
LINE
8
BLACK
6
CONTINUOUS
10
120.546
20
-75.2163
11
120.454
21
-75.1634
0
LINE
8
BLACK
6
CONTINUOUS
10
120.454
20
-75.1634
11
120.386
21
-75.0823
0
LINE
8
BLACK
6
CONTINUOUS
10
120.386
20
-75.0823
11
120.372
21
-75.0443
0
LINE
8
BLACK
6
CONTINUOUS
10
120.372
20
-75.0443
11
119.539
21
-75.0443
0
LINE
8
BLACK
6
CONTINUOUS
10
119.539
20
-75.0443
11
119.524
21
-75.0456
0
LINE
8
BLACK
6
CONTINUOUS
10
119.524
20
-75.0456
11
119.509
21
-75.0417
0
LINE
8
BLACK
6
CONTINUOUS
10
119.509
20
-75.0417
11
119.495
21
-75.0391
0
LINE
8
BLACK
6
CONTINUOUS
10
119.495
20
-75.0391
11
119.49
21
-75.0365
0
LINE
8
BLACK
6
CONTINUOUS
10
119.49
20
-75.0365
11
119.485
21
-75.0352
0
LINE
8
BLACK
6
CONTINUOUS
10
119.485
20
-75.0352
11
119.473
21
-75.0265
0
LINE
8
BLACK
6
CONTINUOUS
10
119.473
20
-75.0265
11
119.46
21
-75.0189
0
LINE
8
BLACK
6
CONTINUOUS
10
119.46
20
-75.0189
11
119.45
21
-75.0073
0
LINE
8
BLACK
6
CONTINUOUS
10
119.45
20
-75.0073
11
119.116
21
-74.6733
0
LINE
8
BLACK
6
CONTINUOUS
10
119.116
20
-74.6733
11
119.018
21
-74.6733
0
LINE
8
BLACK
6
CONTINUOUS
10
119.018
20
-74.6733
11
119.003
21
-74.6746
0
LINE
8
BLACK
6
CONTINUOUS
10
119.003
20
-74.6746
11
118.988
21
-74.6707
0
LINE
8
BLACK
6
CONTINUOUS
10
118.988
20
-74.6707
11
118.974
21
-74.6681
0
LINE
8
BLACK
6
CONTINUOUS
10
118.974
20
-74.6681
11
118.969
21
-74.6655
0
LINE
8
BLACK
6
CONTINUOUS
10
118.969
20
-74.6655
11
118.964
21
-74.6642
0
LINE
8
BLACK
6
CONTINUOUS
10
118.964
20
-74.6642
11
118.952
21
-74.6555
0
LINE
8
BLACK
6
CONTINUOUS
10
118.952
20
-74.6555
11
118.939
21
-74.6479
0
LINE
8
BLACK
6
CONTINUOUS
10
118.939
20
-74.6479
11
118.929
21
-74.6363
0
LINE
8
BLACK
6
CONTINUOUS
10
118.929
20
-74.6363
11
118.623
21
-74.3304
0
LINE
8
BLACK
6
CONTINUOUS
10
118.623
20
-74.3304
11
117.885
21
-74.3304
0
LINE
8
BLACK
6
CONTINUOUS
10
117.885
20
-74.3304
11
117.885
21
-73.1304
0
LINE
8
BLACK
6
CONTINUOUS
10
117.885
20
-73.1304
11
118.785
21
-73.1304
0
LINE
8
BLACK
6
CONTINUOUS
10
118.785
20
-73.1304
11
118.785
21
-73.6161
0
LINE
8
BLACK
6
CONTINUOUS
10
118.785
20
-73.6161
11
128.195
21
-73.6161
0
LINE
8
BLACK
6
CONTINUOUS
10
128.195
20
-73.6161
11
128.195
21
-73.1304
0
LINE
8
BLACK
6
CONTINUOUS
10
128.195
20
-73.1304
11
129.095
21
-73.1304
0
LINE
8
BLACK
6
CONTINUOUS
10
129.095
20
-73.1304
11
129.095
21
-73.6161
0
LINE
8
BLACK
6
CONTINUOUS
10
129.095
20
-73.6161
11
129.276
21
-73.6161
0
LINE
8
BLACK
6
CONTINUOUS
10
129.276
20
-73.6161
11
130.067
21
-72.8245
0
LINE
8
BLACK
6
CONTINUOUS
10
130.067
20
-72.8245
11
130.077
21
-72.8129
0
LINE
8
BLACK
6
CONTINUOUS
10
130.077
20
-72.8129
11
130.09
21
-72.8053
0
LINE
8
BLACK
6
CONTINUOUS
10
130.09
20
-72.8053
11
130.103
21
-72.7966
0
LINE
8
BLACK
6
CONTINUOUS
10
130.103
20
-72.7966
11
130.108
21
-72.7953
0
LINE
8
BLACK
6
CONTINUOUS
10
130.108
20
-72.7953
11
130.112
21
-72.7927
0
LINE
8
BLACK
6
CONTINUOUS
10
130.112
20
-72.7927
11
130.127
21
-72.7901
0
LINE
8
BLACK
6
CONTINUOUS
10
130.127
20
-72.7901
11
130.142
21
-72.7862
0
LINE
8
BLACK
6
CONTINUOUS
10
130.142
20
-72.7862
11
130.157
21
-72.7875
0
LINE
8
BLACK
6
CONTINUOUS
10
130.157
20
-72.7875
11
140.932
21
-72.7875
0
LINE
8
BLACK
6
CONTINUOUS
10
140.932
20
-72.7875
11
140.948
21
-72.7862
0
LINE
8
BLACK
6
CONTINUOUS
10
140.948
20
-72.7862
11
140.962
21
-72.7901
0
LINE
8
BLACK
6
CONTINUOUS
10
109.629
20
-71.4077
11
110.01
21
-71.6281
0
LINE
8
BLACK
6
CONTINUOUS
10
110.01
20
-71.6281
11
110.294
21
-71.9658
0
LINE
8
BLACK
6
CONTINUOUS
10
110.294
20
-71.9658
11
110.445
21
-72.38
0
LINE
8
BLACK
6
CONTINUOUS
10
110.445
20
-72.38
11
110.445
21
-72.8208
0
LINE
8
BLACK
6
CONTINUOUS
10
110.445
20
-72.8208
11
110.294
21
-73.235
0
LINE
8
BLACK
6
CONTINUOUS
10
110.294
20
-73.235
11
110.01
21
-73.5727
0
LINE
8
BLACK
6
CONTINUOUS
10
110.01
20
-73.5727
11
109.629
21
-73.7931
0
LINE
8
BLACK
6
CONTINUOUS
10
109.629
20
-73.7931
11
109.195
21
-73.8697
0
LINE
8
BLACK
6
CONTINUOUS
10
109.195
20
-73.8697
11
108.76
21
-73.7931
0
LINE
8
BLACK
6
CONTINUOUS
10
108.76
20
-73.7931
11
108.379
21
-73.5727
0
LINE
8
BLACK
6
CONTINUOUS
10
108.379
20
-73.5727
11
108.095
21
-73.235
0
LINE
8
BLACK
6
CONTINUOUS
10
108.095
20
-73.235
11
107.945
21
-72.8208
0
LINE
8
BLACK
6
CONTINUOUS
10
107.945
20
-72.8208
11
107.945
21
-72.38
0
LINE
8
BLACK
6
CONTINUOUS
10
107.945
20
-72.38
11
108.095
21
-71.9658
0
LINE
8
BLACK
6
CONTINUOUS
10
108.095
20
-71.9658
11
108.379
21
-71.6281
0
LINE
8
BLACK
6
CONTINUOUS
10
108.379
20
-71.6281
11
108.76
21
-71.4077
0
LINE
8
BLACK
6
CONTINUOUS
10
108.76
20
-71.4077
11
109.195
21
-71.3311
0
LINE
8
BLACK
6
CONTINUOUS
10
109.195
20
-71.3311
11
109.629
21
-71.4077
0
LINE
8
BLACK
6
CONTINUOUS
10
186.429
20
-71.4077
11
186.81
21
-71.6281
0
LINE
8
BLACK
6
CONTINUOUS
10
186.81
20
-71.6281
11
187.094
21
-71.9658
0
LINE
8
BLACK
6
CONTINUOUS
10
187.094
20
-71.9658
11
187.245
21
-72.38
0
LINE
8
BLACK
6
CONTINUOUS
10
187.245
20
-72.38
11
187.245
21
-72.8208
0
LINE
8
BLACK
6
CONTINUOUS
10
187.245
20
-72.8208
11
187.094
21
-73.235
0
LINE
8
BLACK
6
CONTINUOUS
10
187.094
20
-73.235
11
186.81
21
-73.5727
0
LINE
8
BLACK
6
CONTINUOUS
10
186.81
20
-73.5727
11
186.429
21
-73.7931
0
LINE
8
BLACK
6
CONTINUOUS
10
186.429
20
-73.7931
11
185.995
21
-73.8697
0
LINE
8
BLACK
6
CONTINUOUS
10
185.995
20
-73.8697
11
185.56
21
-73.7931
0
LINE
8
BLACK
6
CONTINUOUS
10
185.56
20
-73.7931
11
185.179
21
-73.5727
0
LINE
8
BLACK
6
CONTINUOUS
10
185.179
20
-73.5727
11
184.895
21
-73.235
0
LINE
8
BLACK
6
CONTINUOUS
10
184.895
20
-73.235
11
184.745
21
-72.8208
0
LINE
8
BLACK
6
CONTINUOUS
10
184.745
20
-72.8208
11
184.745
21
-72.38
0
LINE
8
BLACK
6
CONTINUOUS
10
184.745
20
-72.38
11
184.895
21
-71.9658
0
LINE
8
BLACK
6
CONTINUOUS
10
184.895
20
-71.9658
11
185.179
21
-71.6281
0
LINE
8
BLACK
6
CONTINUOUS
10
185.179
20
-71.6281
11
185.56
21
-71.4077
0
LINE
8
BLACK
6
CONTINUOUS
10
185.56
20
-71.4077
11
185.995
21
-71.3311
0
LINE
8
BLACK
6
CONTINUOUS
10
185.995
20
-71.3311
11
186.429
21
-71.4077
0
LINE
8
BLACK
6
CONTINUOUS
10
148.455
20
-72.6757
11
148.932
21
-72.6757
0
LINE
8
BLACK
6
CONTINUOUS
10
148.932
20
-72.6757
11
148.946
21
-72.6377
0
LINE
8
BLACK
6
CONTINUOUS
10
148.946
20
-72.6377
11
149.014
21
-72.5566
0
LINE
8
BLACK
6
CONTINUOUS
10
149.014
20
-72.5566
11
149.106
21
-72.5037
0
LINE
8
BLACK
6
CONTINUOUS
10
149.106
20
-72.5037
11
149.21
21
-72.4854
0
LINE
8
BLACK
6
CONTINUOUS
10
149.21
20
-72.4854
11
149.314
21
-72.5037
0
LINE
8
BLACK
6
CONTINUOUS
10
149.314
20
-72.5037
11
149.406
21
-72.5566
0
LINE
8
BLACK
6
CONTINUOUS
10
149.406
20
-72.5566
11
149.474
21
-72.6377
0
LINE
8
BLACK
6
CONTINUOUS
10
149.474
20
-72.6377
11
149.51
21
-72.7371
0
LINE
8
BLACK
6
CONTINUOUS
10
149.51
20
-72.7371
11
149.51
21
-72.8429
0
LINE
8
BLACK
6
CONTINUOUS
10
149.51
20
-72.8429
11
149.474
21
-72.9423
0
LINE
8
BLACK
6
CONTINUOUS
10
149.474
20
-72.9423
11
149.406
21
-73.0234
0
LINE
8
BLACK
6
CONTINUOUS
10
149.406
20
-73.0234
11
149.314
21
-73.0763
0
LINE
8
BLACK
6
CONTINUOUS
10
149.314
20
-73.0763
11
149.21
21
-73.0946
0
LINE
8
BLACK
6
CONTINUOUS
10
149.21
20
-73.0946
11
149.106
21
-73.0763
0
LINE
8
BLACK
6
CONTINUOUS
10
149.106
20
-73.0763
11
149.014
21
-73.0234
0
LINE
8
BLACK
6
CONTINUOUS
10
149.014
20
-73.0234
11
148.946
21
-72.9423
0
LINE
8
BLACK
6
CONTINUOUS
10
148.946
20
-72.9423
11
148.932
21
-72.9043
0
LINE
8
BLACK
6
CONTINUOUS
10
148.932
20
-72.9043
11
148.455
21
-72.9043
0
LINE
8
BLACK
6
CONTINUOUS
10
148.455
20
-72.9043
11
148.455
21
-73.39
0
LINE
8
BLACK
6
CONTINUOUS
10
148.455
20
-73.39
11
147.705
21
-73.39
0
LINE
8
BLACK
6
CONTINUOUS
10
147.705
20
-73.39
11
147.705
21
-72.19
0
LINE
8
BLACK
6
CONTINUOUS
10
147.705
20
-72.19
11
148.455
21
-72.19
0
LINE
8
BLACK
6
CONTINUOUS
10
148.455
20
-72.19
11
148.455
21
-72.6757
0
CIRCLE
8
BLACK
10
184.188
20
-100.114
40
0.6
0
CIRCLE
8
BLACK
10
184.188
20
-97.5741
40
0.6
0
CIRCLE
8
BLACK
10
184.188
20
-95.0341
40
0.6
0
CIRCLE
8
BLACK
10
184.188
20
-92.4941
40
0.6
0
CIRCLE
8
BLACK
10
157.709
20
-79.5147
40
0.6
0
CIRCLE
8
BLACK
10
160.249
20
-79.5147
40
0.6
0
CIRCLE
8
BLACK
10
162.789
20
-79.5147
40
0.6
0
CIRCLE
8
BLACK
10
169.926
20
-79.5096
40
0.6
0
CIRCLE
8
BLACK
10
172.466
20
-79.5096
40
0.6
0
CIRCLE
8
BLACK
10
175.006
20
-79.5096
40
0.6
0
CIRCLE
8
BLACK
10
134.645
20
-76.4718
40
0.5
0
CIRCLE
8
BLACK
10
134.645
20
-79.0118
40
0.5
0
CIRCLE
8
BLACK
10
109.195
20
-72.6004
40
1.25
0
CIRCLE
8
BLACK
10
185.995
20
-72.6004
40
1.25
0
CIRCLE
8
BLACK
10
109.195
20
-107.34
40
1.25
0
CIRCLE
8
BLACK
10
185.995
20
-107.34
40
1.25
0
CIRCLE
8
BLACK
10
149.24
20
-75.65
40
0.2
0
CIRCLE
8
BLACK
10
138.43
20
-106.68
40
0.2
0
CIRCLE
8
BLACK
10
140.815
20
-74.4208
40
0.2
0
CIRCLE
8
BLACK
10
146.87
20
-75.36
40
0.2
0
CIRCLE
8
BLACK
10
110.49
20
-83.82
40
0.2
0
CIRCLE
8
BLACK
10
149.21
20
-72.79
40
0.2
0
CIRCLE
8
BLACK
10
120.65
20
-74.93
40
0.2
0
CIRCLE
8
BLACK
10
117.348
20
-76.073
40
0.2
0
CIRCLE
8
BLACK
10
120.65
20
-87.63
40
0.2
0
CIRCLE
8
BLACK
10
120.65
20
-90.17
40
0.2
0
CIRCLE
8
BLACK
10
119.38
20
-102.87
40
0.2
0
CIRCLE
8
BLACK
10
129.642
20
-106.248
40
0.2
0
CIRCLE
8
BLACK
10
129.642
20
-96.139
40
0.2
0
CIRCLE
8
BLACK
10
129.642
20
-86.0298
40
0.2
0
CIRCLE
8
BLACK
10
129.651
20
-75.9304
40
0.2
0
CIRCLE
8
BLACK
10
115.06
20
-92.38
40
0.2
0
CIRCLE
8
BLACK
10
143.306
20
-75.9304
40
0.2
0
CIRCLE
8
BLACK
10
143.51
20
-106.274
40
0.2
0
CIRCLE
8
BLACK
10
143.51
20
-96.139
40
0.2
0
CIRCLE
8
BLACK
10
143.509
20
-86.0304
40
0.2
0
CIRCLE
8
BLACK
10
153.911
20
-104.645
40
0.2
0
CIRCLE
8
BLACK
10
125.791
20
-81.1352
40
0.2
0
CIRCLE
8
BLACK
10
153.744
20
-82.3466
40
0.2
0
CIRCLE
8
BLACK
10
153.76
20
-96.1404
40
0.2
0
CIRCLE
8
BLACK
10
153.754
20
-86.0298
40
0.2
0
CIRCLE
8
BLACK
10
167.604
20
-75.9536
40
0.2
0
CIRCLE
8
BLACK
10
167.62
20
-86.0069
40
0.2
0
CIRCLE
8
BLACK
10
167.622
20
-96.1339
40
0.2
0
CIRCLE
8
BLACK
10
167.622
20
-106.243
40
0.2
0
CIRCLE
8
BLACK
10
126.111
20
-72.451
40
0.2
0
CIRCLE
8
BLACK
10
125.35
20
-84.41
40
0.2
0
CIRCLE
8
BLACK
10
142.56
20
-91.34
40
0.2
0
CIRCLE
8
BLACK
10
125.04
20
-97
40
0.2
0
CIRCLE
8
BLACK
10
146.46
20
-97.83
40
0.2
0
CIRCLE
8
BLACK
10
117.95
20
-98.61
40
0.2
0
CIRCLE
8
BLACK
10
147.19
20
-98.55
40
0.2
0
CIRCLE
8
BLACK
10
144.75
20
-77.7549
40
0.2
0
CIRCLE
8
BLACK
10
134.27
20
-83.05
40
0.2
0
CIRCLE
8
BLACK
10
145.55
20
-82.38
40
0.2
0
CIRCLE
8
BLACK
10
143.28
20
-87.67
40
0.2
0
CIRCLE
8
BLACK
10
144.97
20
-86.57
40
0.2
  0
ENDSEC
  0
EOF
