  0
SECTION
  2
HEADER
  9
$ANGBASE
  50
0.0
  9
$ANGDIR
  70
  1
  9
$MEASUREMENT
  70
0
  0
ENDSEC
  0
SECTION
  2
TABLES
  0
TABLE
  2
LTYPE
  70
4
  0
LTYPE
  5
40F
  2
CONTINUOUS
  70
0
  3
Solid line
  72
65
  73
0
  40
0.0
  0
LTYPE
  5
410
  2
DASHDOT
 70
0
  3
Dash Dot ____ _ ____ _
 72
65
 73
4
 40
2.0
 49
1.25
 49
-0.25
 49
0.25
 49
-0.25
  0
LTYPE
  5
411
  2
DASHED
 70
0
  3
Dashed __ __ __ __ __
 72
65
 73
2
 40
0.75
 49
0.5
 49
-0.25
  0
LTYPE
  5
43B
  2
DOTTED
 70
0
  3
Dotted .  .  .  .
 72
65
 73
2
 40
0.2
 49
0.0
 49
-0.2
  0
ENDTAB
  0
TABLE
  2
STYLE
  70
4
  0
STYLE
  2
KICAD
  70
0
  40
0
  41
1
  42
1
  50
0
  71
0
  3
isocp.shx
  0
STYLE
  2
KICADB
  70
0
  40
0
  41
1
  42
1
  50
0
  71
0
  3
isocp.shx
  0
STYLE
  2
KICADI
  70
0
  40
0
  41
1
  42
1
  50
15
  71
0
  3
isocp.shx
  0
STYLE
  2
KICADBI
  70
0
  40
0
  41
1
  42
1
  50
15
  71
0
  3
isocp.shx
  0
ENDTAB
  0
TABLE
  2
LAYER
  70
30
  0
LAYER
  2
BLACK
  70
0
  62
7
  6
CONTINUOUS
  0
LAYER
  2
GRAY1
  70
0
  62
251
  6
CONTINUOUS
  0
LAYER
  2
GRAY2
  70
0
  62
8
  6
CONTINUOUS
  0
LAYER
  2
GRAY3
  70
0
  62
9
  6
CONTINUOUS
  0
LAYER
  2
WHITE
  70
0
  62
7
  6
CONTINUOUS
  0
LAYER
  2
LYELLOW
  70
0
  62
51
  6
CONTINUOUS
  0
LAYER
  2
BLUE1
  70
0
  62
178
  6
CONTINUOUS
  0
LAYER
  2
GREEN1
  70
0
  62
98
  6
CONTINUOUS
  0
LAYER
  2
CYAN1
  70
0
  62
138
  6
CONTINUOUS
  0
LAYER
  2
RED1
  70
0
  62
18
  6
CONTINUOUS
  0
LAYER
  2
MAGENTA1
  70
0
  62
228
  6
CONTINUOUS
  0
LAYER
  2
BROWN1
  70
0
  62
58
  6
CONTINUOUS
  0
LAYER
  2
BLUE2
  70
0
  62
5
  6
CONTINUOUS
  0
LAYER
  2
GREEN2
  70
0
  62
3
  6
CONTINUOUS
  0
LAYER
  2
CYAN2
  70
0
  62
4
  6
CONTINUOUS
  0
LAYER
  2
RED2
  70
0
  62
1
  6
CONTINUOUS
  0
LAYER
  2
MAGENTA2
  70
0
  62
6
  6
CONTINUOUS
  0
LAYER
  2
BROWN2
  70
0
  62
54
  6
CONTINUOUS
  0
LAYER
  2
BLUE3
  70
0
  62
171
  6
CONTINUOUS
  0
LAYER
  2
GREEN3
  70
0
  62
91
  6
CONTINUOUS
  0
LAYER
  2
CYAN3
  70
0
  62
131
  6
CONTINUOUS
  0
LAYER
  2
RED3
  70
0
  62
11
  6
CONTINUOUS
  0
LAYER
  2
MAGENTA3
  70
0
  62
221
  6
CONTINUOUS
  0
LAYER
  2
YELLOW3
  70
0
  62
2
  6
CONTINUOUS
  0
LAYER
  2
BLUE4
  70
0
  62
5
  6
CONTINUOUS
  0
LAYER
  2
GREEN4
  70
0
  62
3
  6
CONTINUOUS
  0
LAYER
  2
CYAN4
  70
0
  62
4
  6
CONTINUOUS
  0
LAYER
  2
RED4
  70
0
  62
1
  6
CONTINUOUS
  0
LAYER
  2
MAGENTA4
  70
0
  62
6
  6
CONTINUOUS
  0
LAYER
  2
YELLOW4
  70
0
  62
2
  6
CONTINUOUS
  0
ENDTAB
  0
ENDSEC
  0
SECTION
  2
ENTITIES
0
LINE
8
BLACK
6
CONTINUOUS
10
134.127
20
-108.455
11
168.297
21
-108.455
0
LINE
8
BLACK
6
CONTINUOUS
10
168.297
20
-108.455
11
169.619
21
-107.132
0
LINE
8
BLACK
6
CONTINUOUS
10
169.619
20
-107.132
11
169.619
21
-105.435
0
LINE
8
BLACK
6
CONTINUOUS
10
169.619
20
-105.435
11
169.615
21
-105.384
0
LINE
8
BLACK
6
CONTINUOUS
10
169.615
20
-105.384
11
169.628
21
-105.335
0
LINE
8
BLACK
6
CONTINUOUS
10
169.628
20
-105.335
11
169.636
21
-105.286
0
LINE
8
BLACK
6
CONTINUOUS
10
169.636
20
-105.286
11
169.645
21
-105.271
0
LINE
8
BLACK
6
CONTINUOUS
10
169.645
20
-105.271
11
169.649
21
-105.254
0
LINE
8
BLACK
6
CONTINUOUS
10
169.649
20
-105.254
11
169.678
21
-105.213
0
LINE
8
BLACK
6
CONTINUOUS
10
169.678
20
-105.213
11
169.704
21
-105.169
0
LINE
8
BLACK
6
CONTINUOUS
10
169.704
20
-105.169
11
169.742
21
-105.137
0
LINE
8
BLACK
6
CONTINUOUS
10
169.742
20
-105.137
11
182.643
21
-92.2365
0
LINE
8
BLACK
6
CONTINUOUS
10
182.643
20
-92.2365
11
182.675
21
-92.1977
0
LINE
8
BLACK
6
CONTINUOUS
10
182.675
20
-92.1977
11
182.719
21
-92.1725
0
LINE
8
BLACK
6
CONTINUOUS
10
182.719
20
-92.1725
11
182.76
21
-92.1435
0
LINE
8
BLACK
6
CONTINUOUS
10
182.76
20
-92.1435
11
182.777
21
-92.1391
0
LINE
8
BLACK
6
CONTINUOUS
10
182.777
20
-92.1391
11
182.792
21
-92.1306
0
LINE
8
BLACK
6
CONTINUOUS
10
182.792
20
-92.1306
11
182.841
21
-92.1218
0
LINE
8
BLACK
6
CONTINUOUS
10
182.841
20
-92.1218
11
182.89
21
-92.1087
0
LINE
8
BLACK
6
CONTINUOUS
10
182.89
20
-92.1087
11
182.94
21
-92.1131
0
LINE
8
BLACK
6
CONTINUOUS
10
182.94
20
-92.1131
11
182.963
21
-92.1131
0
LINE
8
BLACK
6
CONTINUOUS
10
182.963
20
-92.1131
11
183.009
21
-91.9864
0
LINE
8
BLACK
6
CONTINUOUS
10
183.009
20
-91.9864
11
183.235
21
-91.7162
0
LINE
8
BLACK
6
CONTINUOUS
10
183.235
20
-91.7162
11
183.541
21
-91.5399
0
LINE
8
BLACK
6
CONTINUOUS
10
183.541
20
-91.5399
11
183.801
21
-91.4941
0
LINE
8
BLACK
6
CONTINUOUS
10
183.801
20
-91.4941
11
184.576
21
-91.4941
0
LINE
8
BLACK
6
CONTINUOUS
10
184.576
20
-91.4941
11
184.835
21
-91.5399
0
LINE
8
BLACK
6
CONTINUOUS
10
184.835
20
-91.5399
11
185.141
21
-91.7162
0
LINE
8
BLACK
6
CONTINUOUS
10
185.141
20
-91.7162
11
185.367
21
-91.9864
0
LINE
8
BLACK
6
CONTINUOUS
10
185.367
20
-91.9864
11
185.488
21
-92.3178
0
LINE
8
BLACK
6
CONTINUOUS
10
185.488
20
-92.3178
11
185.488
21
-92.6704
0
LINE
8
BLACK
6
CONTINUOUS
10
185.488
20
-92.6704
11
185.367
21
-93.0018
0
LINE
8
BLACK
6
CONTINUOUS
10
185.367
20
-93.0018
11
185.141
21
-93.272
0
LINE
8
BLACK
6
CONTINUOUS
10
185.141
20
-93.272
11
184.835
21
-93.4483
0
LINE
8
BLACK
6
CONTINUOUS
10
184.835
20
-93.4483
11
184.576
21
-93.4941
0
LINE
8
BLACK
6
CONTINUOUS
10
184.576
20
-93.4941
11
183.801
21
-93.4941
0
LINE
8
BLACK
6
CONTINUOUS
10
183.801
20
-93.4941
11
183.541
21
-93.4483
0
LINE
8
BLACK
6
CONTINUOUS
10
183.541
20
-93.4483
11
183.235
21
-93.272
0
LINE
8
BLACK
6
CONTINUOUS
10
183.235
20
-93.272
11
183.009
21
-93.0018
0
LINE
8
BLACK
6
CONTINUOUS
10
183.009
20
-93.0018
11
182.994
21
-92.9624
0
LINE
8
BLACK
6
CONTINUOUS
10
182.994
20
-92.9624
11
170.381
21
-105.576
0
LINE
8
BLACK
6
CONTINUOUS
10
170.381
20
-105.576
11
170.381
21
-107.273
0
LINE
8
BLACK
6
CONTINUOUS
10
170.381
20
-107.273
11
170.385
21
-107.324
0
LINE
8
BLACK
6
CONTINUOUS
10
170.385
20
-107.324
11
170.372
21
-107.373
0
LINE
8
BLACK
6
CONTINUOUS
10
170.372
20
-107.373
11
170.364
21
-107.422
0
LINE
8
BLACK
6
CONTINUOUS
10
170.364
20
-107.422
11
170.355
21
-107.437
0
LINE
8
BLACK
6
CONTINUOUS
10
170.355
20
-107.437
11
170.351
21
-107.454
0
LINE
8
BLACK
6
CONTINUOUS
10
170.351
20
-107.454
11
170.322
21
-107.495
0
LINE
8
BLACK
6
CONTINUOUS
10
170.322
20
-107.495
11
170.296
21
-107.539
0
LINE
8
BLACK
6
CONTINUOUS
10
170.296
20
-107.539
11
170.258
21
-107.571
0
LINE
8
BLACK
6
CONTINUOUS
10
170.258
20
-107.571
11
168.736
21
-109.093
0
LINE
8
BLACK
6
CONTINUOUS
10
168.736
20
-109.093
11
168.703
21
-109.132
0
LINE
8
BLACK
6
CONTINUOUS
10
168.703
20
-109.132
11
168.659
21
-109.157
0
LINE
8
BLACK
6
CONTINUOUS
10
168.659
20
-109.157
11
168.618
21
-109.186
0
LINE
8
BLACK
6
CONTINUOUS
10
168.618
20
-109.186
11
168.601
21
-109.191
0
LINE
8
BLACK
6
CONTINUOUS
10
168.601
20
-109.191
11
168.587
21
-109.199
0
LINE
8
BLACK
6
CONTINUOUS
10
168.587
20
-109.199
11
168.537
21
-109.208
0
LINE
8
BLACK
6
CONTINUOUS
10
168.537
20
-109.208
11
168.488
21
-109.221
0
LINE
8
BLACK
6
CONTINUOUS
10
168.488
20
-109.221
11
168.438
21
-109.217
0
LINE
8
BLACK
6
CONTINUOUS
10
168.438
20
-109.217
11
133.986
21
-109.217
0
LINE
8
BLACK
6
CONTINUOUS
10
133.986
20
-109.217
11
133.935
21
-109.221
0
LINE
8
BLACK
6
CONTINUOUS
10
133.935
20
-109.221
11
133.887
21
-109.208
0
LINE
8
BLACK
6
CONTINUOUS
10
133.887
20
-109.208
11
133.837
21
-109.199
0
LINE
8
BLACK
6
CONTINUOUS
10
133.837
20
-109.199
11
133.822
21
-109.191
0
LINE
8
BLACK
6
CONTINUOUS
10
133.822
20
-109.191
11
133.806
21
-109.186
0
LINE
8
BLACK
6
CONTINUOUS
10
133.806
20
-109.186
11
133.764
21
-109.157
0
LINE
8
BLACK
6
CONTINUOUS
10
133.764
20
-109.157
11
133.72
21
-109.132
0
LINE
8
BLACK
6
CONTINUOUS
10
133.72
20
-109.132
11
133.688
21
-109.093
0
LINE
8
BLACK
6
CONTINUOUS
10
133.688
20
-109.093
11
131.822
21
-107.228
0
LINE
8
BLACK
6
CONTINUOUS
10
131.822
20
-107.228
11
131.784
21
-107.195
0
LINE
8
BLACK
6
CONTINUOUS
10
131.784
20
-107.195
11
131.758
21
-107.151
0
LINE
8
BLACK
6
CONTINUOUS
10
131.758
20
-107.151
11
131.729
21
-107.11
0
LINE
8
BLACK
6
CONTINUOUS
10
131.729
20
-107.11
11
131.725
21
-107.094
0
LINE
8
BLACK
6
CONTINUOUS
10
131.725
20
-107.094
11
131.716
21
-107.079
0
LINE
8
BLACK
6
CONTINUOUS
10
131.716
20
-107.079
11
131.708
21
-107.029
0
LINE
8
BLACK
6
CONTINUOUS
10
131.708
20
-107.029
11
131.695
21
-106.98
0
LINE
8
BLACK
6
CONTINUOUS
10
131.695
20
-106.98
11
131.699
21
-106.93
0
LINE
8
BLACK
6
CONTINUOUS
10
131.699
20
-106.93
11
131.699
21
-105.42
0
LINE
8
BLACK
6
CONTINUOUS
10
131.699
20
-105.42
11
131.699
21
-105.42
0
LINE
8
BLACK
6
CONTINUOUS
10
131.699
20
-105.42
11
131.699
21
-104.625
0
LINE
8
BLACK
6
CONTINUOUS
10
131.699
20
-104.625
11
131.58
21
-104.625
0
LINE
8
BLACK
6
CONTINUOUS
10
131.58
20
-104.625
11
131.58
21
-102.115
0
LINE
8
BLACK
6
CONTINUOUS
10
131.58
20
-102.115
11
132.58
21
-102.115
0
LINE
8
BLACK
6
CONTINUOUS
10
132.58
20
-102.115
11
132.58
21
-104.625
0
LINE
8
BLACK
6
CONTINUOUS
10
132.58
20
-104.625
11
132.461
21
-104.625
0
LINE
8
BLACK
6
CONTINUOUS
10
132.461
20
-104.625
11
132.461
21
-106.789
0
LINE
8
BLACK
6
CONTINUOUS
10
132.461
20
-106.789
11
134.127
21
-108.455
0
LINE
8
BLACK
6
CONTINUOUS
10
109.629
20
-106.148
11
110.01
21
-106.368
0
LINE
8
BLACK
6
CONTINUOUS
10
110.01
20
-106.368
11
110.294
21
-106.706
0
LINE
8
BLACK
6
CONTINUOUS
10
110.294
20
-106.706
11
110.445
21
-107.12
0
LINE
8
BLACK
6
CONTINUOUS
10
110.445
20
-107.12
11
110.445
21
-107.561
0
LINE
8
BLACK
6
CONTINUOUS
10
110.445
20
-107.561
11
110.294
21
-107.975
0
LINE
8
BLACK
6
CONTINUOUS
10
110.294
20
-107.975
11
110.01
21
-108.313
0
LINE
8
BLACK
6
CONTINUOUS
10
110.01
20
-108.313
11
109.629
21
-108.533
0
LINE
8
BLACK
6
CONTINUOUS
10
109.629
20
-108.533
11
109.195
21
-108.61
0
LINE
8
BLACK
6
CONTINUOUS
10
109.195
20
-108.61
11
108.76
21
-108.533
0
LINE
8
BLACK
6
CONTINUOUS
10
108.76
20
-108.533
11
108.379
21
-108.313
0
LINE
8
BLACK
6
CONTINUOUS
10
108.379
20
-108.313
11
108.095
21
-107.975
0
LINE
8
BLACK
6
CONTINUOUS
10
108.095
20
-107.975
11
107.945
21
-107.561
0
LINE
8
BLACK
6
CONTINUOUS
10
107.945
20
-107.561
11
107.945
21
-107.12
0
LINE
8
BLACK
6
CONTINUOUS
10
107.945
20
-107.12
11
108.095
21
-106.706
0
LINE
8
BLACK
6
CONTINUOUS
10
108.095
20
-106.706
11
108.379
21
-106.368
0
LINE
8
BLACK
6
CONTINUOUS
10
108.379
20
-106.368
11
108.76
21
-106.148
0
LINE
8
BLACK
6
CONTINUOUS
10
108.76
20
-106.148
11
109.195
21
-106.071
0
LINE
8
BLACK
6
CONTINUOUS
10
109.195
20
-106.071
11
109.629
21
-106.148
0
LINE
8
BLACK
6
CONTINUOUS
10
186.429
20
-106.148
11
186.81
21
-106.368
0
LINE
8
BLACK
6
CONTINUOUS
10
186.81
20
-106.368
11
187.094
21
-106.706
0
LINE
8
BLACK
6
CONTINUOUS
10
187.094
20
-106.706
11
187.245
21
-107.12
0
LINE
8
BLACK
6
CONTINUOUS
10
187.245
20
-107.12
11
187.245
21
-107.561
0
LINE
8
BLACK
6
CONTINUOUS
10
187.245
20
-107.561
11
187.094
21
-107.975
0
LINE
8
BLACK
6
CONTINUOUS
10
187.094
20
-107.975
11
186.81
21
-108.313
0
LINE
8
BLACK
6
CONTINUOUS
10
186.81
20
-108.313
11
186.429
21
-108.533
0
LINE
8
BLACK
6
CONTINUOUS
10
186.429
20
-108.533
11
185.995
21
-108.61
0
LINE
8
BLACK
6
CONTINUOUS
10
185.995
20
-108.61
11
185.56
21
-108.533
0
LINE
8
BLACK
6
CONTINUOUS
10
185.56
20
-108.533
11
185.179
21
-108.313
0
LINE
8
BLACK
6
CONTINUOUS
10
185.179
20
-108.313
11
184.895
21
-107.975
0
LINE
8
BLACK
6
CONTINUOUS
10
184.895
20
-107.975
11
184.745
21
-107.561
0
LINE
8
BLACK
6
CONTINUOUS
10
184.745
20
-107.561
11
184.745
21
-107.12
0
LINE
8
BLACK
6
CONTINUOUS
10
184.745
20
-107.12
11
184.895
21
-106.706
0
LINE
8
BLACK
6
CONTINUOUS
10
184.895
20
-106.706
11
185.179
21
-106.368
0
LINE
8
BLACK
6
CONTINUOUS
10
185.179
20
-106.368
11
185.56
21
-106.148
0
LINE
8
BLACK
6
CONTINUOUS
10
185.56
20
-106.148
11
185.995
21
-106.071
0
LINE
8
BLACK
6
CONTINUOUS
10
185.995
20
-106.071
11
186.429
21
-106.148
0
LINE
8
BLACK
6
CONTINUOUS
10
140.931
20
-104.091
11
140.927
21
-104.106
0
LINE
8
BLACK
6
CONTINUOUS
10
140.927
20
-104.106
11
140.924
21
-104.121
0
LINE
8
BLACK
6
CONTINUOUS
10
140.924
20
-104.121
11
140.922
21
-104.125
0
LINE
8
BLACK
6
CONTINUOUS
10
140.922
20
-104.125
11
140.92
21
-104.13
0
LINE
8
BLACK
6
CONTINUOUS
10
140.92
20
-104.13
11
140.912
21
-104.143
0
LINE
8
BLACK
6
CONTINUOUS
10
140.912
20
-104.143
11
140.904
21
-104.156
0
LINE
8
BLACK
6
CONTINUOUS
10
140.904
20
-104.156
11
140.892
21
-104.166
0
LINE
8
BLACK
6
CONTINUOUS
10
140.892
20
-104.166
11
139.814
21
-105.244
0
LINE
8
BLACK
6
CONTINUOUS
10
139.814
20
-105.244
11
139.814
21
-105.425
0
LINE
8
BLACK
6
CONTINUOUS
10
139.814
20
-105.425
11
140.2
21
-105.425
0
LINE
8
BLACK
6
CONTINUOUS
10
140.2
20
-105.425
11
140.2
21
-107.935
0
LINE
8
BLACK
6
CONTINUOUS
10
140.2
20
-107.935
11
139.2
21
-107.935
0
LINE
8
BLACK
6
CONTINUOUS
10
139.2
20
-107.935
11
139.2
21
-106.794
0
LINE
8
BLACK
6
CONTINUOUS
10
139.2
20
-106.794
11
138.708
21
-106.794
0
LINE
8
BLACK
6
CONTINUOUS
10
138.708
20
-106.794
11
138.694
21
-106.832
0
LINE
8
BLACK
6
CONTINUOUS
10
138.694
20
-106.832
11
138.626
21
-106.913
0
LINE
8
BLACK
6
CONTINUOUS
10
138.626
20
-106.913
11
138.534
21
-106.966
0
LINE
8
BLACK
6
CONTINUOUS
10
138.534
20
-106.966
11
138.43
21
-106.985
0
LINE
8
BLACK
6
CONTINUOUS
10
138.43
20
-106.985
11
138.326
21
-106.966
0
LINE
8
BLACK
6
CONTINUOUS
10
138.326
20
-106.966
11
138.234
21
-106.913
0
LINE
8
BLACK
6
CONTINUOUS
10
138.234
20
-106.913
11
138.166
21
-106.832
0
LINE
8
BLACK
6
CONTINUOUS
10
138.166
20
-106.832
11
138.13
21
-106.733
0
LINE
8
BLACK
6
CONTINUOUS
10
138.13
20
-106.733
11
138.13
21
-106.627
0
LINE
8
BLACK
6
CONTINUOUS
10
138.13
20
-106.627
11
138.166
21
-106.528
0
LINE
8
BLACK
6
CONTINUOUS
10
138.166
20
-106.528
11
138.234
21
-106.447
0
LINE
8
BLACK
6
CONTINUOUS
10
138.234
20
-106.447
11
138.326
21
-106.394
0
LINE
8
BLACK
6
CONTINUOUS
10
138.326
20
-106.394
11
138.43
21
-106.375
0
LINE
8
BLACK
6
CONTINUOUS
10
138.43
20
-106.375
11
138.534
21
-106.394
0
LINE
8
BLACK
6
CONTINUOUS
10
138.534
20
-106.394
11
138.626
21
-106.447
0
LINE
8
BLACK
6
CONTINUOUS
10
138.626
20
-106.447
11
138.694
21
-106.528
0
LINE
8
BLACK
6
CONTINUOUS
10
138.694
20
-106.528
11
138.708
21
-106.566
0
LINE
8
BLACK
6
CONTINUOUS
10
138.708
20
-106.566
11
139.2
21
-106.566
0
LINE
8
BLACK
6
CONTINUOUS
10
139.2
20
-106.566
11
139.2
21
-105.425
0
LINE
8
BLACK
6
CONTINUOUS
10
139.2
20
-105.425
11
139.586
21
-105.425
0
LINE
8
BLACK
6
CONTINUOUS
10
139.586
20
-105.425
11
139.586
21
-105.201
0
LINE
8
BLACK
6
CONTINUOUS
10
139.586
20
-105.201
11
139.584
21
-105.186
0
LINE
8
BLACK
6
CONTINUOUS
10
139.584
20
-105.186
11
139.588
21
-105.172
0
LINE
8
BLACK
6
CONTINUOUS
10
139.588
20
-105.172
11
139.591
21
-105.157
0
LINE
8
BLACK
6
CONTINUOUS
10
139.591
20
-105.157
11
139.593
21
-105.152
0
LINE
8
BLACK
6
CONTINUOUS
10
139.593
20
-105.152
11
139.595
21
-105.147
0
LINE
8
BLACK
6
CONTINUOUS
10
139.595
20
-105.147
11
139.604
21
-105.135
0
LINE
8
BLACK
6
CONTINUOUS
10
139.604
20
-105.135
11
139.611
21
-105.122
0
LINE
8
BLACK
6
CONTINUOUS
10
139.611
20
-105.122
11
139.623
21
-105.112
0
LINE
8
BLACK
6
CONTINUOUS
10
139.623
20
-105.112
11
140.701
21
-104.034
0
LINE
8
BLACK
6
CONTINUOUS
10
140.701
20
-104.034
11
140.701
21
-74.8551
0
LINE
8
BLACK
6
CONTINUOUS
10
140.701
20
-74.8551
11
140.701
21
-74.8551
0
LINE
8
BLACK
6
CONTINUOUS
10
140.701
20
-74.8551
11
140.701
21
-74.7012
0
LINE
8
BLACK
6
CONTINUOUS
10
140.701
20
-74.7012
11
140.619
21
-74.6541
0
LINE
8
BLACK
6
CONTINUOUS
10
140.619
20
-74.6541
11
140.551
21
-74.5731
0
LINE
8
BLACK
6
CONTINUOUS
10
140.551
20
-74.5731
11
140.515
21
-74.4737
0
LINE
8
BLACK
6
CONTINUOUS
10
140.515
20
-74.4737
11
140.515
21
-74.3679
0
LINE
8
BLACK
6
CONTINUOUS
10
140.515
20
-74.3679
11
140.551
21
-74.2685
0
LINE
8
BLACK
6
CONTINUOUS
10
140.551
20
-74.2685
11
140.619
21
-74.1874
0
LINE
8
BLACK
6
CONTINUOUS
10
140.619
20
-74.1874
11
140.711
21
-74.1345
0
LINE
8
BLACK
6
CONTINUOUS
10
140.711
20
-74.1345
11
140.815
21
-74.1162
0
LINE
8
BLACK
6
CONTINUOUS
10
140.815
20
-74.1162
11
140.919
21
-74.1345
0
LINE
8
BLACK
6
CONTINUOUS
10
140.919
20
-74.1345
11
141.011
21
-74.1874
0
LINE
8
BLACK
6
CONTINUOUS
10
141.011
20
-74.1874
11
141.079
21
-74.2685
0
LINE
8
BLACK
6
CONTINUOUS
10
141.079
20
-74.2685
11
141.115
21
-74.3679
0
LINE
8
BLACK
6
CONTINUOUS
10
141.115
20
-74.3679
11
141.115
21
-74.4737
0
LINE
8
BLACK
6
CONTINUOUS
10
141.115
20
-74.4737
11
141.079
21
-74.5731
0
LINE
8
BLACK
6
CONTINUOUS
10
141.079
20
-74.5731
11
141.011
21
-74.6541
0
LINE
8
BLACK
6
CONTINUOUS
10
141.011
20
-74.6541
11
140.929
21
-74.7012
0
LINE
8
BLACK
6
CONTINUOUS
10
140.929
20
-74.7012
11
140.929
21
-104.076
0
LINE
8
BLACK
6
CONTINUOUS
10
140.929
20
-104.076
11
140.931
21
-104.091
0
LINE
8
BLACK
6
CONTINUOUS
10
145.28
20
-107.935
11
144.28
21
-107.935
0
LINE
8
BLACK
6
CONTINUOUS
10
144.28
20
-107.935
11
144.28
21
-105.425
0
LINE
8
BLACK
6
CONTINUOUS
10
144.28
20
-105.425
11
145.28
21
-105.425
0
LINE
8
BLACK
6
CONTINUOUS
10
145.28
20
-105.425
11
145.28
21
-107.935
0
LINE
8
BLACK
6
CONTINUOUS
10
150.36
20
-107.935
11
149.36
21
-107.935
0
LINE
8
BLACK
6
CONTINUOUS
10
149.36
20
-107.935
11
149.36
21
-105.425
0
LINE
8
BLACK
6
CONTINUOUS
10
149.36
20
-105.425
11
150.36
21
-105.425
0
LINE
8
BLACK
6
CONTINUOUS
10
150.36
20
-105.425
11
150.36
21
-107.935
0
LINE
8
BLACK
6
CONTINUOUS
10
135.12
20
-107.935
11
134.12
21
-107.935
0
LINE
8
BLACK
6
CONTINUOUS
10
134.12
20
-107.935
11
134.12
21
-105.425
0
LINE
8
BLACK
6
CONTINUOUS
10
134.12
20
-105.425
11
135.12
21
-105.425
0
LINE
8
BLACK
6
CONTINUOUS
10
135.12
20
-105.425
11
135.12
21
-107.935
0
LINE
8
BLACK
6
CONTINUOUS
10
155.44
20
-107.935
11
154.44
21
-107.935
0
LINE
8
BLACK
6
CONTINUOUS
10
154.44
20
-107.935
11
154.44
21
-105.425
0
LINE
8
BLACK
6
CONTINUOUS
10
154.44
20
-105.425
11
155.44
21
-105.425
0
LINE
8
BLACK
6
CONTINUOUS
10
155.44
20
-105.425
11
155.44
21
-107.935
0
LINE
8
BLACK
6
CONTINUOUS
10
160.52
20
-107.935
11
159.52
21
-107.935
0
LINE
8
BLACK
6
CONTINUOUS
10
159.52
20
-107.935
11
159.52
21
-105.425
0
LINE
8
BLACK
6
CONTINUOUS
10
159.52
20
-105.425
11
160.52
21
-105.425
0
LINE
8
BLACK
6
CONTINUOUS
10
160.52
20
-105.425
11
160.52
21
-107.935
0
LINE
8
BLACK
6
CONTINUOUS
10
165.6
20
-107.935
11
164.6
21
-107.935
0
LINE
8
BLACK
6
CONTINUOUS
10
164.6
20
-107.935
11
164.6
21
-105.425
0
LINE
8
BLACK
6
CONTINUOUS
10
164.6
20
-105.425
11
165.6
21
-105.425
0
LINE
8
BLACK
6
CONTINUOUS
10
165.6
20
-105.425
11
165.6
21
-107.935
0
LINE
8
BLACK
6
CONTINUOUS
10
143.706
20
-106.04
11
143.774
21
-106.121
0
LINE
8
BLACK
6
CONTINUOUS
10
143.774
20
-106.121
11
143.81
21
-106.221
0
LINE
8
BLACK
6
CONTINUOUS
10
143.81
20
-106.221
11
143.81
21
-106.326
0
LINE
8
BLACK
6
CONTINUOUS
10
143.81
20
-106.326
11
143.774
21
-106.426
0
LINE
8
BLACK
6
CONTINUOUS
10
143.774
20
-106.426
11
143.706
21
-106.507
0
LINE
8
BLACK
6
CONTINUOUS
10
143.706
20
-106.507
11
143.614
21
-106.56
0
LINE
8
BLACK
6
CONTINUOUS
10
143.614
20
-106.56
11
143.51
21
-106.578
0
LINE
8
BLACK
6
CONTINUOUS
10
143.51
20
-106.578
11
143.406
21
-106.56
0
LINE
8
BLACK
6
CONTINUOUS
10
143.406
20
-106.56
11
143.314
21
-106.507
0
LINE
8
BLACK
6
CONTINUOUS
10
143.314
20
-106.507
11
143.246
21
-106.426
0
LINE
8
BLACK
6
CONTINUOUS
10
143.246
20
-106.426
11
143.21
21
-106.326
0
LINE
8
BLACK
6
CONTINUOUS
10
143.21
20
-106.326
11
143.21
21
-106.221
0
LINE
8
BLACK
6
CONTINUOUS
10
143.21
20
-106.221
11
143.246
21
-106.121
0
LINE
8
BLACK
6
CONTINUOUS
10
143.246
20
-106.121
11
143.314
21
-106.04
0
LINE
8
BLACK
6
CONTINUOUS
10
143.314
20
-106.04
11
143.396
21
-105.993
0
LINE
8
BLACK
6
CONTINUOUS
10
143.396
20
-105.993
11
143.396
21
-96.5533
0
LINE
8
BLACK
6
CONTINUOUS
10
143.396
20
-96.5533
11
143.396
21
-96.5533
0
LINE
8
BLACK
6
CONTINUOUS
10
143.396
20
-96.5533
11
143.396
21
-96.4194
0
LINE
8
BLACK
6
CONTINUOUS
10
143.396
20
-96.4194
11
143.314
21
-96.3724
0
LINE
8
BLACK
6
CONTINUOUS
10
143.314
20
-96.3724
11
143.246
21
-96.2913
0
LINE
8
BLACK
6
CONTINUOUS
10
143.246
20
-96.2913
11
143.21
21
-96.1919
0
LINE
8
BLACK
6
CONTINUOUS
10
143.21
20
-96.1919
11
143.21
21
-96.0861
0
LINE
8
BLACK
6
CONTINUOUS
10
143.21
20
-96.0861
11
143.246
21
-95.9867
0
LINE
8
BLACK
6
CONTINUOUS
10
143.246
20
-95.9867
11
143.314
21
-95.9056
0
LINE
8
BLACK
6
CONTINUOUS
10
143.314
20
-95.9056
11
143.406
21
-95.8527
0
LINE
8
BLACK
6
CONTINUOUS
10
143.406
20
-95.8527
11
143.51
21
-95.8344
0
LINE
8
BLACK
6
CONTINUOUS
10
143.51
20
-95.8344
11
143.614
21
-95.8527
0
LINE
8
BLACK
6
CONTINUOUS
10
143.614
20
-95.8527
11
143.627
21
-95.8602
0
LINE
8
BLACK
6
CONTINUOUS
10
143.627
20
-95.8602
11
143.736
21
-95.7511
0
LINE
8
BLACK
6
CONTINUOUS
10
143.736
20
-95.7511
11
143.736
21
-95.7511
0
LINE
8
BLACK
6
CONTINUOUS
10
143.736
20
-95.7511
11
145.776
21
-93.7117
0
LINE
8
BLACK
6
CONTINUOUS
10
145.776
20
-93.7117
11
145.776
21
-88.9383
0
LINE
8
BLACK
6
CONTINUOUS
10
145.776
20
-88.9383
11
143.432
21
-86.5948
0
LINE
8
BLACK
6
CONTINUOUS
10
143.432
20
-86.5948
11
143.42
21
-86.585
0
LINE
8
BLACK
6
CONTINUOUS
10
143.42
20
-86.585
11
143.413
21
-86.5719
0
LINE
8
BLACK
6
CONTINUOUS
10
143.413
20
-86.5719
11
143.404
21
-86.5595
0
LINE
8
BLACK
6
CONTINUOUS
10
143.404
20
-86.5595
11
143.403
21
-86.5545
0
LINE
8
BLACK
6
CONTINUOUS
10
143.403
20
-86.5545
11
143.4
21
-86.5501
0
LINE
8
BLACK
6
CONTINUOUS
10
143.4
20
-86.5501
11
143.398
21
-86.5352
0
LINE
8
BLACK
6
CONTINUOUS
10
143.398
20
-86.5352
11
143.394
21
-86.5205
0
LINE
8
BLACK
6
CONTINUOUS
10
143.394
20
-86.5205
11
143.395
21
-86.5054
0
LINE
8
BLACK
6
CONTINUOUS
10
143.395
20
-86.5054
11
143.395
21
-86.3108
0
LINE
8
BLACK
6
CONTINUOUS
10
143.395
20
-86.3108
11
143.314
21
-86.2638
0
LINE
8
BLACK
6
CONTINUOUS
10
143.314
20
-86.2638
11
143.246
21
-86.1827
0
LINE
8
BLACK
6
CONTINUOUS
10
143.246
20
-86.1827
11
143.209
21
-86.0833
0
LINE
8
BLACK
6
CONTINUOUS
10
143.209
20
-86.0833
11
143.209
21
-85.9775
0
LINE
8
BLACK
6
CONTINUOUS
10
143.209
20
-85.9775
11
143.246
21
-85.8781
0
LINE
8
BLACK
6
CONTINUOUS
10
143.246
20
-85.8781
11
143.314
21
-85.797
0
LINE
8
BLACK
6
CONTINUOUS
10
143.314
20
-85.797
11
143.395
21
-85.75
0
LINE
8
BLACK
6
CONTINUOUS
10
143.395
20
-85.75
11
143.395
21
-85.6535
0
LINE
8
BLACK
6
CONTINUOUS
10
143.395
20
-85.6535
11
143.229
21
-85.4871
0
LINE
8
BLACK
6
CONTINUOUS
10
143.229
20
-85.4871
11
143.217
21
-85.4773
0
LINE
8
BLACK
6
CONTINUOUS
10
143.217
20
-85.4773
11
143.209
21
-85.4642
0
LINE
8
BLACK
6
CONTINUOUS
10
143.209
20
-85.4642
11
143.201
21
-85.4518
0
LINE
8
BLACK
6
CONTINUOUS
10
143.201
20
-85.4518
11
143.199
21
-85.4468
0
LINE
8
BLACK
6
CONTINUOUS
10
143.199
20
-85.4468
11
143.197
21
-85.4424
0
LINE
8
BLACK
6
CONTINUOUS
10
143.197
20
-85.4424
11
143.194
21
-85.4275
0
LINE
8
BLACK
6
CONTINUOUS
10
143.194
20
-85.4275
11
143.19
21
-85.4128
0
LINE
8
BLACK
6
CONTINUOUS
10
143.19
20
-85.4128
11
143.192
21
-85.3977
0
LINE
8
BLACK
6
CONTINUOUS
10
143.192
20
-85.3977
11
143.192
21
-76.2108
0
LINE
8
BLACK
6
CONTINUOUS
10
143.192
20
-76.2108
11
143.11
21
-76.1638
0
LINE
8
BLACK
6
CONTINUOUS
10
143.11
20
-76.1638
11
143.042
21
-76.0827
0
LINE
8
BLACK
6
CONTINUOUS
10
143.042
20
-76.0827
11
143.006
21
-75.9833
0
LINE
8
BLACK
6
CONTINUOUS
10
143.006
20
-75.9833
11
143.006
21
-75.8775
0
LINE
8
BLACK
6
CONTINUOUS
10
143.006
20
-75.8775
11
143.042
21
-75.7781
0
LINE
8
BLACK
6
CONTINUOUS
10
143.042
20
-75.7781
11
143.11
21
-75.697
0
LINE
8
BLACK
6
CONTINUOUS
10
143.11
20
-75.697
11
143.202
21
-75.6441
0
LINE
8
BLACK
6
CONTINUOUS
10
143.202
20
-75.6441
11
143.306
21
-75.6258
0
LINE
8
BLACK
6
CONTINUOUS
10
143.306
20
-75.6258
11
143.41
21
-75.6441
0
LINE
8
BLACK
6
CONTINUOUS
10
143.41
20
-75.6441
11
143.502
21
-75.697
0
LINE
8
BLACK
6
CONTINUOUS
10
143.502
20
-75.697
11
143.57
21
-75.7781
0
LINE
8
BLACK
6
CONTINUOUS
10
143.57
20
-75.7781
11
143.606
21
-75.8775
0
LINE
8
BLACK
6
CONTINUOUS
10
143.606
20
-75.8775
11
143.606
21
-75.9833
0
LINE
8
BLACK
6
CONTINUOUS
10
143.606
20
-75.9833
11
143.57
21
-76.0827
0
LINE
8
BLACK
6
CONTINUOUS
10
143.57
20
-76.0827
11
143.502
21
-76.1638
0
LINE
8
BLACK
6
CONTINUOUS
10
143.502
20
-76.1638
11
143.42
21
-76.2108
0
LINE
8
BLACK
6
CONTINUOUS
10
143.42
20
-76.2108
11
143.42
21
-85.3554
0
LINE
8
BLACK
6
CONTINUOUS
10
143.42
20
-85.3554
11
143.587
21
-85.5218
0
LINE
8
BLACK
6
CONTINUOUS
10
143.587
20
-85.5218
11
143.598
21
-85.5315
0
LINE
8
BLACK
6
CONTINUOUS
10
143.598
20
-85.5315
11
143.606
21
-85.5447
0
LINE
8
BLACK
6
CONTINUOUS
10
143.606
20
-85.5447
11
143.615
21
-85.5571
0
LINE
8
BLACK
6
CONTINUOUS
10
143.615
20
-85.5571
11
143.616
21
-85.562
0
LINE
8
BLACK
6
CONTINUOUS
10
143.616
20
-85.562
11
143.618
21
-85.5664
0
LINE
8
BLACK
6
CONTINUOUS
10
143.618
20
-85.5664
11
143.621
21
-85.5814
0
LINE
8
BLACK
6
CONTINUOUS
10
143.621
20
-85.5814
11
143.625
21
-85.596
0
LINE
8
BLACK
6
CONTINUOUS
10
143.625
20
-85.596
11
143.624
21
-85.6111
0
LINE
8
BLACK
6
CONTINUOUS
10
143.624
20
-85.6111
11
143.624
21
-85.75
0
LINE
8
BLACK
6
CONTINUOUS
10
143.624
20
-85.75
11
143.705
21
-85.797
0
LINE
8
BLACK
6
CONTINUOUS
10
143.705
20
-85.797
11
143.773
21
-85.8781
0
LINE
8
BLACK
6
CONTINUOUS
10
143.773
20
-85.8781
11
143.809
21
-85.9775
0
LINE
8
BLACK
6
CONTINUOUS
10
143.809
20
-85.9775
11
143.809
21
-86.0833
0
LINE
8
BLACK
6
CONTINUOUS
10
143.809
20
-86.0833
11
143.773
21
-86.1827
0
LINE
8
BLACK
6
CONTINUOUS
10
143.773
20
-86.1827
11
143.705
21
-86.2638
0
LINE
8
BLACK
6
CONTINUOUS
10
143.705
20
-86.2638
11
143.624
21
-86.3108
0
LINE
8
BLACK
6
CONTINUOUS
10
143.624
20
-86.3108
11
143.624
21
-86.4631
0
LINE
8
BLACK
6
CONTINUOUS
10
143.624
20
-86.4631
11
145.967
21
-88.8067
0
LINE
8
BLACK
6
CONTINUOUS
10
145.967
20
-88.8067
11
145.979
21
-88.8164
0
LINE
8
BLACK
6
CONTINUOUS
10
145.979
20
-88.8164
11
145.986
21
-88.8295
0
LINE
8
BLACK
6
CONTINUOUS
10
145.986
20
-88.8295
11
145.995
21
-88.842
0
LINE
8
BLACK
6
CONTINUOUS
10
145.995
20
-88.842
11
145.996
21
-88.8469
0
LINE
8
BLACK
6
CONTINUOUS
10
145.996
20
-88.8469
11
145.999
21
-88.8513
0
LINE
8
BLACK
6
CONTINUOUS
10
145.999
20
-88.8513
11
146.002
21
-88.8662
0
LINE
8
BLACK
6
CONTINUOUS
10
146.002
20
-88.8662
11
146.006
21
-88.8809
0
LINE
8
BLACK
6
CONTINUOUS
10
146.006
20
-88.8809
11
146.004
21
-88.896
0
LINE
8
BLACK
6
CONTINUOUS
10
146.004
20
-88.896
11
146.004
21
-93.754
0
LINE
8
BLACK
6
CONTINUOUS
10
146.004
20
-93.754
11
146.006
21
-93.7691
0
LINE
8
BLACK
6
CONTINUOUS
10
146.006
20
-93.7691
11
146.002
21
-93.7838
0
LINE
8
BLACK
6
CONTINUOUS
10
146.002
20
-93.7838
11
145.999
21
-93.7987
0
LINE
8
BLACK
6
CONTINUOUS
10
145.999
20
-93.7987
11
145.996
21
-93.8031
0
LINE
8
BLACK
6
CONTINUOUS
10
145.996
20
-93.8031
11
145.995
21
-93.8081
0
LINE
8
BLACK
6
CONTINUOUS
10
145.995
20
-93.8081
11
145.986
21
-93.8205
0
LINE
8
BLACK
6
CONTINUOUS
10
145.986
20
-93.8205
11
145.979
21
-93.8336
0
LINE
8
BLACK
6
CONTINUOUS
10
145.979
20
-93.8336
11
145.967
21
-93.8434
0
LINE
8
BLACK
6
CONTINUOUS
10
145.967
20
-93.8434
11
143.898
21
-95.9128
0
LINE
8
BLACK
6
CONTINUOUS
10
143.898
20
-95.9128
11
143.898
21
-95.9128
0
LINE
8
BLACK
6
CONTINUOUS
10
143.898
20
-95.9128
11
143.787
21
-96.0234
0
LINE
8
BLACK
6
CONTINUOUS
10
143.787
20
-96.0234
11
143.81
21
-96.0861
0
LINE
8
BLACK
6
CONTINUOUS
10
143.81
20
-96.0861
11
143.81
21
-96.1919
0
LINE
8
BLACK
6
CONTINUOUS
10
143.81
20
-96.1919
11
143.774
21
-96.2913
0
LINE
8
BLACK
6
CONTINUOUS
10
143.774
20
-96.2913
11
143.706
21
-96.3724
0
LINE
8
BLACK
6
CONTINUOUS
10
143.706
20
-96.3724
11
143.624
21
-96.4194
0
LINE
8
BLACK
6
CONTINUOUS
10
143.624
20
-96.4194
11
143.624
21
-105.993
0
LINE
8
BLACK
6
CONTINUOUS
10
143.624
20
-105.993
11
143.706
21
-106.04
0
LINE
8
BLACK
6
CONTINUOUS
10
129.767
20
-81.5698
11
129.763
21
-81.5844
0
LINE
8
BLACK
6
CONTINUOUS
10
129.763
20
-81.5844
11
129.76
21
-81.5994
0
LINE
8
BLACK
6
CONTINUOUS
10
129.76
20
-81.5994
11
129.758
21
-81.6038
0
LINE
8
BLACK
6
CONTINUOUS
10
129.758
20
-81.6038
11
129.757
21
-81.6087
0
LINE
8
BLACK
6
CONTINUOUS
10
129.757
20
-81.6087
11
129.748
21
-81.6211
0
LINE
8
BLACK
6
CONTINUOUS
10
129.748
20
-81.6211
11
129.74
21
-81.6343
0
LINE
8
BLACK
6
CONTINUOUS
10
129.74
20
-81.6343
11
129.729
21
-81.644
0
LINE
8
BLACK
6
CONTINUOUS
10
129.729
20
-81.644
11
125.045
21
-86.3278
0
LINE
8
BLACK
6
CONTINUOUS
10
125.045
20
-86.3278
11
125.035
21
-86.3394
0
LINE
8
BLACK
6
CONTINUOUS
10
125.035
20
-86.3394
11
125.022
21
-86.347
0
LINE
8
BLACK
6
CONTINUOUS
10
125.022
20
-86.347
11
125.01
21
-86.3557
0
LINE
8
BLACK
6
CONTINUOUS
10
125.01
20
-86.3557
11
125.005
21
-86.357
0
LINE
8
BLACK
6
CONTINUOUS
10
125.005
20
-86.357
11
125
21
-86.3596
0
LINE
8
BLACK
6
CONTINUOUS
10
125
20
-86.3596
11
124.985
21
-86.3622
0
LINE
8
BLACK
6
CONTINUOUS
10
124.985
20
-86.3622
11
124.971
21
-86.3661
0
LINE
8
BLACK
6
CONTINUOUS
10
124.971
20
-86.3661
11
124.956
21
-86.3648
0
LINE
8
BLACK
6
CONTINUOUS
10
124.956
20
-86.3648
11
121.201
21
-86.3648
0
LINE
8
BLACK
6
CONTINUOUS
10
121.201
20
-86.3648
11
119.766
21
-87.7995
0
LINE
8
BLACK
6
CONTINUOUS
10
119.766
20
-87.7995
11
119.766
21
-90.1363
0
LINE
8
BLACK
6
CONTINUOUS
10
119.766
20
-90.1363
11
119.767
21
-90.1514
0
LINE
8
BLACK
6
CONTINUOUS
10
119.767
20
-90.1514
11
119.763
21
-90.1661
0
LINE
8
BLACK
6
CONTINUOUS
10
119.763
20
-90.1661
11
119.761
21
-90.181
0
LINE
8
BLACK
6
CONTINUOUS
10
119.761
20
-90.181
11
119.758
21
-90.1854
0
LINE
8
BLACK
6
CONTINUOUS
10
119.758
20
-90.1854
11
119.757
21
-90.1904
0
LINE
8
BLACK
6
CONTINUOUS
10
119.757
20
-90.1904
11
119.748
21
-90.2028
0
LINE
8
BLACK
6
CONTINUOUS
10
119.748
20
-90.2028
11
119.74
21
-90.2159
0
LINE
8
BLACK
6
CONTINUOUS
10
119.74
20
-90.2159
11
119.729
21
-90.2257
0
LINE
8
BLACK
6
CONTINUOUS
10
119.729
20
-90.2257
11
114.36
21
-95.5942
0
LINE
8
BLACK
6
CONTINUOUS
10
114.36
20
-95.5942
11
114.36
21
-96.0326
0
LINE
8
BLACK
6
CONTINUOUS
10
114.36
20
-96.0326
11
112.36
21
-96.0326
0
LINE
8
BLACK
6
CONTINUOUS
10
112.36
20
-96.0326
11
112.36
21
-95.4326
0
LINE
8
BLACK
6
CONTINUOUS
10
112.36
20
-95.4326
11
114.199
21
-95.4326
0
LINE
8
BLACK
6
CONTINUOUS
10
114.199
20
-95.4326
11
119.537
21
-90.094
0
LINE
8
BLACK
6
CONTINUOUS
10
119.537
20
-90.094
11
119.537
21
-87.7572
0
LINE
8
BLACK
6
CONTINUOUS
10
119.537
20
-87.7572
11
119.536
21
-87.7421
0
LINE
8
BLACK
6
CONTINUOUS
10
119.536
20
-87.7421
11
119.54
21
-87.7274
0
LINE
8
BLACK
6
CONTINUOUS
10
119.54
20
-87.7274
11
119.542
21
-87.7125
0
LINE
8
BLACK
6
CONTINUOUS
10
119.542
20
-87.7125
11
119.545
21
-87.7081
0
LINE
8
BLACK
6
CONTINUOUS
10
119.545
20
-87.7081
11
119.546
21
-87.7032
0
LINE
8
BLACK
6
CONTINUOUS
10
119.546
20
-87.7032
11
119.555
21
-87.6907
0
LINE
8
BLACK
6
CONTINUOUS
10
119.555
20
-87.6907
11
119.563
21
-87.6776
0
LINE
8
BLACK
6
CONTINUOUS
10
119.563
20
-87.6776
11
119.574
21
-87.6679
0
LINE
8
BLACK
6
CONTINUOUS
10
119.574
20
-87.6679
11
121.069
21
-86.1732
0
LINE
8
BLACK
6
CONTINUOUS
10
121.069
20
-86.1732
11
121.079
21
-86.1616
0
LINE
8
BLACK
6
CONTINUOUS
10
121.079
20
-86.1616
11
121.092
21
-86.154
0
LINE
8
BLACK
6
CONTINUOUS
10
121.092
20
-86.154
11
121.104
21
-86.1453
0
LINE
8
BLACK
6
CONTINUOUS
10
121.104
20
-86.1453
11
121.109
21
-86.144
0
LINE
8
BLACK
6
CONTINUOUS
10
121.109
20
-86.144
11
121.113
21
-86.1414
0
LINE
8
BLACK
6
CONTINUOUS
10
121.113
20
-86.1414
11
121.128
21
-86.1388
0
LINE
8
BLACK
6
CONTINUOUS
10
121.128
20
-86.1388
11
121.143
21
-86.1349
0
LINE
8
BLACK
6
CONTINUOUS
10
121.143
20
-86.1349
11
121.158
21
-86.1362
0
LINE
8
BLACK
6
CONTINUOUS
10
121.158
20
-86.1362
11
124.913
21
-86.1362
0
LINE
8
BLACK
6
CONTINUOUS
10
124.913
20
-86.1362
11
129.537
21
-81.5123
0
LINE
8
BLACK
6
CONTINUOUS
10
129.537
20
-81.5123
11
129.537
21
-76.3647
0
LINE
8
BLACK
6
CONTINUOUS
10
129.537
20
-76.3647
11
129.537
21
-76.3647
0
LINE
8
BLACK
6
CONTINUOUS
10
129.537
20
-76.3647
11
129.537
21
-76.2108
0
LINE
8
BLACK
6
CONTINUOUS
10
129.537
20
-76.2108
11
129.456
21
-76.1638
0
LINE
8
BLACK
6
CONTINUOUS
10
129.456
20
-76.1638
11
129.388
21
-76.0827
0
LINE
8
BLACK
6
CONTINUOUS
10
129.388
20
-76.0827
11
129.351
21
-75.9833
0
LINE
8
BLACK
6
CONTINUOUS
10
129.351
20
-75.9833
11
129.351
21
-75.8775
0
LINE
8
BLACK
6
CONTINUOUS
10
129.351
20
-75.8775
11
129.388
21
-75.7781
0
LINE
8
BLACK
6
CONTINUOUS
10
129.388
20
-75.7781
11
129.456
21
-75.697
0
LINE
8
BLACK
6
CONTINUOUS
10
129.456
20
-75.697
11
129.547
21
-75.6441
0
LINE
8
BLACK
6
CONTINUOUS
10
129.547
20
-75.6441
11
129.651
21
-75.6258
0
LINE
8
BLACK
6
CONTINUOUS
10
129.651
20
-75.6258
11
129.756
21
-75.6441
0
LINE
8
BLACK
6
CONTINUOUS
10
129.756
20
-75.6441
11
129.847
21
-75.697
0
LINE
8
BLACK
6
CONTINUOUS
10
129.847
20
-75.697
11
129.915
21
-75.7781
0
LINE
8
BLACK
6
CONTINUOUS
10
129.915
20
-75.7781
11
129.951
21
-75.8775
0
LINE
8
BLACK
6
CONTINUOUS
10
129.951
20
-75.8775
11
129.951
21
-75.9833
0
LINE
8
BLACK
6
CONTINUOUS
10
129.951
20
-75.9833
11
129.929
21
-76.046
0
LINE
8
BLACK
6
CONTINUOUS
10
129.929
20
-76.046
11
130.242
21
-76.3592
0
LINE
8
BLACK
6
CONTINUOUS
10
130.242
20
-76.3592
11
130.253
21
-76.3689
0
LINE
8
BLACK
6
CONTINUOUS
10
130.253
20
-76.3689
11
130.261
21
-76.3821
0
LINE
8
BLACK
6
CONTINUOUS
10
130.261
20
-76.3821
11
130.27
21
-76.3945
0
LINE
8
BLACK
6
CONTINUOUS
10
130.27
20
-76.3945
11
130.271
21
-76.3994
0
LINE
8
BLACK
6
CONTINUOUS
10
130.271
20
-76.3994
11
130.274
21
-76.4038
0
LINE
8
BLACK
6
CONTINUOUS
10
130.274
20
-76.4038
11
130.276
21
-76.4188
0
LINE
8
BLACK
6
CONTINUOUS
10
130.276
20
-76.4188
11
130.28
21
-76.4334
0
LINE
8
BLACK
6
CONTINUOUS
10
130.28
20
-76.4334
11
130.279
21
-76.4485
0
LINE
8
BLACK
6
CONTINUOUS
10
130.279
20
-76.4485
11
130.279
21
-85.5019
0
LINE
8
BLACK
6
CONTINUOUS
10
130.279
20
-85.5019
11
130.28
21
-85.517
0
LINE
8
BLACK
6
CONTINUOUS
10
130.28
20
-85.517
11
130.276
21
-85.5316
0
LINE
8
BLACK
6
CONTINUOUS
10
130.276
20
-85.5316
11
130.274
21
-85.5466
0
LINE
8
BLACK
6
CONTINUOUS
10
130.274
20
-85.5466
11
130.271
21
-85.551
0
LINE
8
BLACK
6
CONTINUOUS
10
130.271
20
-85.551
11
130.27
21
-85.5559
0
LINE
8
BLACK
6
CONTINUOUS
10
130.27
20
-85.5559
11
130.261
21
-85.5683
0
LINE
8
BLACK
6
CONTINUOUS
10
130.261
20
-85.5683
11
130.253
21
-85.5815
0
LINE
8
BLACK
6
CONTINUOUS
10
130.253
20
-85.5815
11
130.242
21
-85.5912
0
LINE
8
BLACK
6
CONTINUOUS
10
130.242
20
-85.5912
11
129.919
21
-85.9142
0
LINE
8
BLACK
6
CONTINUOUS
10
129.919
20
-85.9142
11
129.942
21
-85.9769
0
LINE
8
BLACK
6
CONTINUOUS
10
129.942
20
-85.9769
11
129.942
21
-86.0827
0
LINE
8
BLACK
6
CONTINUOUS
10
129.942
20
-86.0827
11
129.919
21
-86.1454
0
LINE
8
BLACK
6
CONTINUOUS
10
129.919
20
-86.1454
11
130.019
21
-86.2454
0
LINE
8
BLACK
6
CONTINUOUS
10
130.019
20
-86.2454
11
130.031
21
-86.2552
0
LINE
8
BLACK
6
CONTINUOUS
10
130.031
20
-86.2552
11
130.038
21
-86.2683
0
LINE
8
BLACK
6
CONTINUOUS
10
130.038
20
-86.2683
11
130.047
21
-86.2807
0
LINE
8
BLACK
6
CONTINUOUS
10
130.047
20
-86.2807
11
130.048
21
-86.2857
0
LINE
8
BLACK
6
CONTINUOUS
10
130.048
20
-86.2857
11
130.051
21
-86.2901
0
LINE
8
BLACK
6
CONTINUOUS
10
130.051
20
-86.2901
11
130.053
21
-86.305
0
LINE
8
BLACK
6
CONTINUOUS
10
130.053
20
-86.305
11
130.057
21
-86.3197
0
LINE
8
BLACK
6
CONTINUOUS
10
130.057
20
-86.3197
11
130.056
21
-86.3348
0
LINE
8
BLACK
6
CONTINUOUS
10
130.056
20
-86.3348
11
130.056
21
-95.834
0
LINE
8
BLACK
6
CONTINUOUS
10
130.056
20
-95.834
11
130.057
21
-95.8491
0
LINE
8
BLACK
6
CONTINUOUS
10
130.057
20
-95.8491
11
130.053
21
-95.8638
0
LINE
8
BLACK
6
CONTINUOUS
10
130.053
20
-95.8638
11
130.051
21
-95.8787
0
LINE
8
BLACK
6
CONTINUOUS
10
130.051
20
-95.8787
11
130.048
21
-95.8831
0
LINE
8
BLACK
6
CONTINUOUS
10
130.048
20
-95.8831
11
130.047
21
-95.8881
0
LINE
8
BLACK
6
CONTINUOUS
10
130.047
20
-95.8881
11
130.038
21
-95.9005
0
LINE
8
BLACK
6
CONTINUOUS
10
130.038
20
-95.9005
11
130.031
21
-95.9136
0
LINE
8
BLACK
6
CONTINUOUS
10
130.031
20
-95.9136
11
130.019
21
-95.9234
0
LINE
8
BLACK
6
CONTINUOUS
10
130.019
20
-95.9234
11
129.919
21
-96.0234
0
LINE
8
BLACK
6
CONTINUOUS
10
129.919
20
-96.0234
11
129.942
21
-96.0861
0
LINE
8
BLACK
6
CONTINUOUS
10
129.942
20
-96.0861
11
129.942
21
-96.1919
0
LINE
8
BLACK
6
CONTINUOUS
10
129.942
20
-96.1919
11
129.919
21
-96.2546
0
LINE
8
BLACK
6
CONTINUOUS
10
129.919
20
-96.2546
11
130.019
21
-96.3546
0
LINE
8
BLACK
6
CONTINUOUS
10
130.019
20
-96.3546
11
130.031
21
-96.3644
0
LINE
8
BLACK
6
CONTINUOUS
10
130.031
20
-96.3644
11
130.038
21
-96.3775
0
LINE
8
BLACK
6
CONTINUOUS
10
130.038
20
-96.3775
11
130.047
21
-96.3899
0
LINE
8
BLACK
6
CONTINUOUS
10
130.047
20
-96.3899
11
130.048
21
-96.3949
0
LINE
8
BLACK
6
CONTINUOUS
10
130.048
20
-96.3949
11
130.051
21
-96.3993
0
LINE
8
BLACK
6
CONTINUOUS
10
130.051
20
-96.3993
11
130.053
21
-96.4142
0
LINE
8
BLACK
6
CONTINUOUS
10
130.053
20
-96.4142
11
130.057
21
-96.4289
0
LINE
8
BLACK
6
CONTINUOUS
10
130.057
20
-96.4289
11
130.056
21
-96.444
0
LINE
8
BLACK
6
CONTINUOUS
10
130.056
20
-96.444
11
130.056
21
-105.943
0
LINE
8
BLACK
6
CONTINUOUS
10
130.056
20
-105.943
11
130.057
21
-105.958
0
LINE
8
BLACK
6
CONTINUOUS
10
130.057
20
-105.958
11
130.053
21
-105.973
0
LINE
8
BLACK
6
CONTINUOUS
10
130.053
20
-105.973
11
130.051
21
-105.988
0
LINE
8
BLACK
6
CONTINUOUS
10
130.051
20
-105.988
11
130.048
21
-105.992
0
LINE
8
BLACK
6
CONTINUOUS
10
130.048
20
-105.992
11
130.047
21
-105.997
0
LINE
8
BLACK
6
CONTINUOUS
10
130.047
20
-105.997
11
130.038
21
-106.01
0
LINE
8
BLACK
6
CONTINUOUS
10
130.038
20
-106.01
11
130.031
21
-106.023
0
LINE
8
BLACK
6
CONTINUOUS
10
130.031
20
-106.023
11
130.019
21
-106.033
0
LINE
8
BLACK
6
CONTINUOUS
10
130.019
20
-106.033
11
129.919
21
-106.133
0
LINE
8
BLACK
6
CONTINUOUS
10
129.919
20
-106.133
11
129.942
21
-106.195
0
LINE
8
BLACK
6
CONTINUOUS
10
129.942
20
-106.195
11
129.942
21
-106.301
0
LINE
8
BLACK
6
CONTINUOUS
10
129.942
20
-106.301
11
129.905
21
-106.401
0
LINE
8
BLACK
6
CONTINUOUS
10
129.905
20
-106.401
11
129.837
21
-106.482
0
LINE
8
BLACK
6
CONTINUOUS
10
129.837
20
-106.482
11
129.746
21
-106.534
0
LINE
8
BLACK
6
CONTINUOUS
10
129.746
20
-106.534
11
129.642
21
-106.553
0
LINE
8
BLACK
6
CONTINUOUS
10
129.642
20
-106.553
11
129.537
21
-106.534
0
LINE
8
BLACK
6
CONTINUOUS
10
129.537
20
-106.534
11
129.446
21
-106.482
0
LINE
8
BLACK
6
CONTINUOUS
10
129.446
20
-106.482
11
129.378
21
-106.401
0
LINE
8
BLACK
6
CONTINUOUS
10
129.378
20
-106.401
11
129.342
21
-106.301
0
LINE
8
BLACK
6
CONTINUOUS
10
129.342
20
-106.301
11
129.342
21
-106.195
0
LINE
8
BLACK
6
CONTINUOUS
10
129.342
20
-106.195
11
129.378
21
-106.096
0
LINE
8
BLACK
6
CONTINUOUS
10
129.378
20
-106.096
11
129.446
21
-106.015
0
LINE
8
BLACK
6
CONTINUOUS
10
129.446
20
-106.015
11
129.537
21
-105.962
0
LINE
8
BLACK
6
CONTINUOUS
10
129.537
20
-105.962
11
129.642
21
-105.944
0
LINE
8
BLACK
6
CONTINUOUS
10
129.642
20
-105.944
11
129.746
21
-105.962
0
LINE
8
BLACK
6
CONTINUOUS
10
129.746
20
-105.962
11
129.759
21
-105.969
0
LINE
8
BLACK
6
CONTINUOUS
10
129.759
20
-105.969
11
129.827
21
-105.901
0
LINE
8
BLACK
6
CONTINUOUS
10
129.827
20
-105.901
11
129.827
21
-96.4863
0
LINE
8
BLACK
6
CONTINUOUS
10
129.827
20
-96.4863
11
129.759
21
-96.4178
0
LINE
8
BLACK
6
CONTINUOUS
10
129.759
20
-96.4178
11
129.746
21
-96.4253
0
LINE
8
BLACK
6
CONTINUOUS
10
129.746
20
-96.4253
11
129.642
21
-96.4436
0
LINE
8
BLACK
6
CONTINUOUS
10
129.642
20
-96.4436
11
129.537
21
-96.4253
0
LINE
8
BLACK
6
CONTINUOUS
10
129.537
20
-96.4253
11
129.446
21
-96.3724
0
LINE
8
BLACK
6
CONTINUOUS
10
129.446
20
-96.3724
11
129.378
21
-96.2913
0
LINE
8
BLACK
6
CONTINUOUS
10
129.378
20
-96.2913
11
129.342
21
-96.1919
0
LINE
8
BLACK
6
CONTINUOUS
10
129.342
20
-96.1919
11
129.342
21
-96.0861
0
LINE
8
BLACK
6
CONTINUOUS
10
129.342
20
-96.0861
11
129.378
21
-95.9867
0
LINE
8
BLACK
6
CONTINUOUS
10
129.378
20
-95.9867
11
129.446
21
-95.9056
0
LINE
8
BLACK
6
CONTINUOUS
10
129.446
20
-95.9056
11
129.537
21
-95.8527
0
LINE
8
BLACK
6
CONTINUOUS
10
129.537
20
-95.8527
11
129.642
21
-95.8344
0
LINE
8
BLACK
6
CONTINUOUS
10
129.642
20
-95.8344
11
129.746
21
-95.8527
0
LINE
8
BLACK
6
CONTINUOUS
10
129.746
20
-95.8527
11
129.759
21
-95.8602
0
LINE
8
BLACK
6
CONTINUOUS
10
129.759
20
-95.8602
11
129.827
21
-95.7917
0
LINE
8
BLACK
6
CONTINUOUS
10
129.827
20
-95.7917
11
129.827
21
-86.3771
0
LINE
8
BLACK
6
CONTINUOUS
10
129.827
20
-86.3771
11
129.759
21
-86.3086
0
LINE
8
BLACK
6
CONTINUOUS
10
129.759
20
-86.3086
11
129.746
21
-86.3161
0
LINE
8
BLACK
6
CONTINUOUS
10
129.746
20
-86.3161
11
129.642
21
-86.3344
0
LINE
8
BLACK
6
CONTINUOUS
10
129.642
20
-86.3344
11
129.537
21
-86.3161
0
LINE
8
BLACK
6
CONTINUOUS
10
129.537
20
-86.3161
11
129.446
21
-86.2632
0
LINE
8
BLACK
6
CONTINUOUS
10
129.446
20
-86.2632
11
129.378
21
-86.1821
0
LINE
8
BLACK
6
CONTINUOUS
10
129.378
20
-86.1821
11
129.342
21
-86.0827
0
LINE
8
BLACK
6
CONTINUOUS
10
129.342
20
-86.0827
11
129.342
21
-85.9769
0
LINE
8
BLACK
6
CONTINUOUS
10
129.342
20
-85.9769
11
129.378
21
-85.8775
0
LINE
8
BLACK
6
CONTINUOUS
10
129.378
20
-85.8775
11
129.446
21
-85.7964
0
LINE
8
BLACK
6
CONTINUOUS
10
129.446
20
-85.7964
11
129.537
21
-85.7435
0
LINE
8
BLACK
6
CONTINUOUS
10
129.537
20
-85.7435
11
129.642
21
-85.7252
0
LINE
8
BLACK
6
CONTINUOUS
10
129.642
20
-85.7252
11
129.746
21
-85.7435
0
LINE
8
BLACK
6
CONTINUOUS
10
129.746
20
-85.7435
11
129.759
21
-85.751
0
LINE
8
BLACK
6
CONTINUOUS
10
129.759
20
-85.751
11
130.05
21
-85.4595
0
LINE
8
BLACK
6
CONTINUOUS
10
130.05
20
-85.4595
11
130.05
21
-76.4909
0
LINE
8
BLACK
6
CONTINUOUS
10
130.05
20
-76.4909
11
129.769
21
-76.2092
0
LINE
8
BLACK
6
CONTINUOUS
10
129.769
20
-76.2092
11
129.766
21
-76.2108
0
LINE
8
BLACK
6
CONTINUOUS
10
129.766
20
-76.2108
11
129.766
21
-81.5547
0
LINE
8
BLACK
6
CONTINUOUS
10
129.766
20
-81.5547
11
129.767
21
-81.5698
0
LINE
8
BLACK
6
CONTINUOUS
10
163.265
20
-71.4775
11
163.28
21
-71.4801
0
LINE
8
BLACK
6
CONTINUOUS
10
163.28
20
-71.4801
11
163.284
21
-71.4827
0
LINE
8
BLACK
6
CONTINUOUS
10
163.284
20
-71.4827
11
163.289
21
-71.484
0
LINE
8
BLACK
6
CONTINUOUS
10
163.289
20
-71.484
11
163.301
21
-71.4927
0
LINE
8
BLACK
6
CONTINUOUS
10
163.301
20
-71.4927
11
163.315
21
-71.5003
0
LINE
8
BLACK
6
CONTINUOUS
10
163.315
20
-71.5003
11
163.324
21
-71.5119
0
LINE
8
BLACK
6
CONTINUOUS
10
163.324
20
-71.5119
11
167.392
21
-75.5799
0
LINE
8
BLACK
6
CONTINUOUS
10
167.392
20
-75.5799
11
167.392
21
-75.5799
0
LINE
8
BLACK
6
CONTINUOUS
10
167.392
20
-75.5799
11
167.487
21
-75.6748
0
LINE
8
BLACK
6
CONTINUOUS
10
167.487
20
-75.6748
11
167.5
21
-75.6674
0
LINE
8
BLACK
6
CONTINUOUS
10
167.5
20
-75.6674
11
167.604
21
-75.649
0
LINE
8
BLACK
6
CONTINUOUS
10
167.604
20
-75.649
11
167.709
21
-75.6674
0
LINE
8
BLACK
6
CONTINUOUS
10
167.709
20
-75.6674
11
167.8
21
-75.7203
0
LINE
8
BLACK
6
CONTINUOUS
10
167.8
20
-75.7203
11
167.868
21
-75.8013
0
LINE
8
BLACK
6
CONTINUOUS
10
167.868
20
-75.8013
11
167.904
21
-75.9007
0
LINE
8
BLACK
6
CONTINUOUS
10
167.904
20
-75.9007
11
167.904
21
-76.0065
0
LINE
8
BLACK
6
CONTINUOUS
10
167.904
20
-76.0065
11
167.868
21
-76.1059
0
LINE
8
BLACK
6
CONTINUOUS
10
167.868
20
-76.1059
11
167.8
21
-76.187
0
LINE
8
BLACK
6
CONTINUOUS
10
167.8
20
-76.187
11
167.719
21
-76.234
0
LINE
8
BLACK
6
CONTINUOUS
10
167.719
20
-76.234
11
167.719
21
-85.7198
0
LINE
8
BLACK
6
CONTINUOUS
10
167.719
20
-85.7198
11
167.724
21
-85.7207
0
LINE
8
BLACK
6
CONTINUOUS
10
167.724
20
-85.7207
11
167.815
21
-85.7736
0
LINE
8
BLACK
6
CONTINUOUS
10
167.815
20
-85.7736
11
167.883
21
-85.8546
0
LINE
8
BLACK
6
CONTINUOUS
10
167.883
20
-85.8546
11
167.92
21
-85.954
0
LINE
8
BLACK
6
CONTINUOUS
10
167.92
20
-85.954
11
167.92
21
-86.0598
0
LINE
8
BLACK
6
CONTINUOUS
10
167.92
20
-86.0598
11
167.897
21
-86.1225
0
LINE
8
BLACK
6
CONTINUOUS
10
167.897
20
-86.1225
11
167.967
21
-86.1926
0
LINE
8
BLACK
6
CONTINUOUS
10
167.967
20
-86.1926
11
168.093
21
-86.1926
0
LINE
8
BLACK
6
CONTINUOUS
10
168.093
20
-86.1926
11
168.108
21
-86.1913
0
LINE
8
BLACK
6
CONTINUOUS
10
168.108
20
-86.1913
11
168.122
21
-86.1952
0
LINE
8
BLACK
6
CONTINUOUS
10
168.122
20
-86.1952
11
168.137
21
-86.1979
0
LINE
8
BLACK
6
CONTINUOUS
10
168.137
20
-86.1979
11
168.142
21
-86.2004
0
LINE
8
BLACK
6
CONTINUOUS
10
168.142
20
-86.2004
11
168.147
21
-86.2017
0
LINE
8
BLACK
6
CONTINUOUS
10
168.147
20
-86.2017
11
168.159
21
-86.2104
0
LINE
8
BLACK
6
CONTINUOUS
10
168.159
20
-86.2104
11
168.172
21
-86.218
0
LINE
8
BLACK
6
CONTINUOUS
10
168.172
20
-86.218
11
168.182
21
-86.2297
0
LINE
8
BLACK
6
CONTINUOUS
10
168.182
20
-86.2297
11
168.919
21
-86.9667
0
LINE
8
BLACK
6
CONTINUOUS
10
168.919
20
-86.9667
11
168.931
21
-86.9764
0
LINE
8
BLACK
6
CONTINUOUS
10
168.931
20
-86.9764
11
168.938
21
-86.9895
0
LINE
8
BLACK
6
CONTINUOUS
10
168.938
20
-86.9895
11
168.947
21
-87.002
0
LINE
8
BLACK
6
CONTINUOUS
10
168.947
20
-87.002
11
168.948
21
-87.0069
0
LINE
8
BLACK
6
CONTINUOUS
10
168.948
20
-87.0069
11
168.951
21
-87.0113
0
LINE
8
BLACK
6
CONTINUOUS
10
168.951
20
-87.0113
11
168.954
21
-87.0263
0
LINE
8
BLACK
6
CONTINUOUS
10
168.954
20
-87.0263
11
168.957
21
-87.0409
0
LINE
8
BLACK
6
CONTINUOUS
10
168.957
20
-87.0409
11
168.956
21
-87.056
0
LINE
8
BLACK
6
CONTINUOUS
10
168.956
20
-87.056
11
168.956
21
-94.9094
0
LINE
8
BLACK
6
CONTINUOUS
10
168.956
20
-94.9094
11
168.957
21
-94.9245
0
LINE
8
BLACK
6
CONTINUOUS
10
168.957
20
-94.9245
11
168.954
21
-94.9391
0
LINE
8
BLACK
6
CONTINUOUS
10
168.954
20
-94.9391
11
168.951
21
-94.954
0
LINE
8
BLACK
6
CONTINUOUS
10
168.951
20
-94.954
11
168.948
21
-94.9585
0
LINE
8
BLACK
6
CONTINUOUS
10
168.948
20
-94.9585
11
168.947
21
-94.9634
0
LINE
8
BLACK
6
CONTINUOUS
10
168.947
20
-94.9634
11
168.938
21
-94.9758
0
LINE
8
BLACK
6
CONTINUOUS
10
168.938
20
-94.9758
11
168.931
21
-94.9889
0
LINE
8
BLACK
6
CONTINUOUS
10
168.931
20
-94.9889
11
168.919
21
-94.9987
0
LINE
8
BLACK
6
CONTINUOUS
10
168.919
20
-94.9987
11
168.01
21
-95.9077
0
LINE
8
BLACK
6
CONTINUOUS
10
168.01
20
-95.9077
11
168.01
21
-95.9077
0
LINE
8
BLACK
6
CONTINUOUS
10
168.01
20
-95.9077
11
167.899
21
-96.0184
0
LINE
8
BLACK
6
CONTINUOUS
10
167.899
20
-96.0184
11
167.922
21
-96.081
0
LINE
8
BLACK
6
CONTINUOUS
10
167.922
20
-96.081
11
167.922
21
-96.1868
0
LINE
8
BLACK
6
CONTINUOUS
10
167.922
20
-96.1868
11
167.899
21
-96.2495
0
LINE
8
BLACK
6
CONTINUOUS
10
167.899
20
-96.2495
11
168.919
21
-97.2692
0
LINE
8
BLACK
6
CONTINUOUS
10
168.919
20
-97.2692
11
168.931
21
-97.2789
0
LINE
8
BLACK
6
CONTINUOUS
10
168.931
20
-97.2789
11
168.938
21
-97.292
0
LINE
8
BLACK
6
CONTINUOUS
10
168.938
20
-97.292
11
168.947
21
-97.3045
0
LINE
8
BLACK
6
CONTINUOUS
10
168.947
20
-97.3045
11
168.948
21
-97.3094
0
LINE
8
BLACK
6
CONTINUOUS
10
168.948
20
-97.3094
11
168.951
21
-97.3138
0
LINE
8
BLACK
6
CONTINUOUS
10
168.951
20
-97.3138
11
168.954
21
-97.3287
0
LINE
8
BLACK
6
CONTINUOUS
10
168.954
20
-97.3287
11
168.957
21
-97.3434
0
LINE
8
BLACK
6
CONTINUOUS
10
168.957
20
-97.3434
11
168.956
21
-97.3585
0
LINE
8
BLACK
6
CONTINUOUS
10
168.956
20
-97.3585
11
168.956
21
-105.019
0
LINE
8
BLACK
6
CONTINUOUS
10
168.956
20
-105.019
11
168.957
21
-105.034
0
LINE
8
BLACK
6
CONTINUOUS
10
168.957
20
-105.034
11
168.954
21
-105.048
0
LINE
8
BLACK
6
CONTINUOUS
10
168.954
20
-105.048
11
168.951
21
-105.063
0
LINE
8
BLACK
6
CONTINUOUS
10
168.951
20
-105.063
11
168.948
21
-105.068
0
LINE
8
BLACK
6
CONTINUOUS
10
168.948
20
-105.068
11
168.947
21
-105.073
0
LINE
8
BLACK
6
CONTINUOUS
10
168.947
20
-105.073
11
168.938
21
-105.085
0
LINE
8
BLACK
6
CONTINUOUS
10
168.938
20
-105.085
11
168.931
21
-105.098
0
LINE
8
BLACK
6
CONTINUOUS
10
168.931
20
-105.098
11
168.919
21
-105.108
0
LINE
8
BLACK
6
CONTINUOUS
10
168.919
20
-105.108
11
168.01
21
-106.017
0
LINE
8
BLACK
6
CONTINUOUS
10
168.01
20
-106.017
11
168.01
21
-106.017
0
LINE
8
BLACK
6
CONTINUOUS
10
168.01
20
-106.017
11
167.899
21
-106.128
0
LINE
8
BLACK
6
CONTINUOUS
10
167.899
20
-106.128
11
167.922
21
-106.19
0
LINE
8
BLACK
6
CONTINUOUS
10
167.922
20
-106.19
11
167.922
21
-106.296
0
LINE
8
BLACK
6
CONTINUOUS
10
167.922
20
-106.296
11
167.886
21
-106.395
0
LINE
8
BLACK
6
CONTINUOUS
10
167.886
20
-106.395
11
167.818
21
-106.476
0
LINE
8
BLACK
6
CONTINUOUS
10
167.818
20
-106.476
11
167.726
21
-106.529
0
LINE
8
BLACK
6
CONTINUOUS
10
167.726
20
-106.529
11
167.622
21
-106.548
0
LINE
8
BLACK
6
CONTINUOUS
10
167.622
20
-106.548
11
167.518
21
-106.529
0
LINE
8
BLACK
6
CONTINUOUS
10
167.518
20
-106.529
11
167.426
21
-106.476
0
LINE
8
BLACK
6
CONTINUOUS
10
167.426
20
-106.476
11
167.358
21
-106.395
0
LINE
8
BLACK
6
CONTINUOUS
10
167.358
20
-106.395
11
167.322
21
-106.296
0
LINE
8
BLACK
6
CONTINUOUS
10
167.322
20
-106.296
11
167.322
21
-106.19
0
LINE
8
BLACK
6
CONTINUOUS
10
167.322
20
-106.19
11
167.358
21
-106.091
0
LINE
8
BLACK
6
CONTINUOUS
10
167.358
20
-106.091
11
167.426
21
-106.01
0
LINE
8
BLACK
6
CONTINUOUS
10
167.426
20
-106.01
11
167.518
21
-105.957
0
LINE
8
BLACK
6
CONTINUOUS
10
167.518
20
-105.957
11
167.622
21
-105.938
0
LINE
8
BLACK
6
CONTINUOUS
10
167.622
20
-105.938
11
167.726
21
-105.957
0
LINE
8
BLACK
6
CONTINUOUS
10
167.726
20
-105.957
11
167.739
21
-105.964
0
LINE
8
BLACK
6
CONTINUOUS
10
167.739
20
-105.964
11
167.848
21
-105.855
0
LINE
8
BLACK
6
CONTINUOUS
10
167.848
20
-105.855
11
167.848
21
-105.855
0
LINE
8
BLACK
6
CONTINUOUS
10
167.848
20
-105.855
11
168.728
21
-104.976
0
LINE
8
BLACK
6
CONTINUOUS
10
168.728
20
-104.976
11
168.728
21
-97.4008
0
LINE
8
BLACK
6
CONTINUOUS
10
168.728
20
-97.4008
11
167.739
21
-96.4127
0
LINE
8
BLACK
6
CONTINUOUS
10
167.739
20
-96.4127
11
167.726
21
-96.4202
0
LINE
8
BLACK
6
CONTINUOUS
10
167.726
20
-96.4202
11
167.622
21
-96.4385
0
LINE
8
BLACK
6
CONTINUOUS
10
167.622
20
-96.4385
11
167.518
21
-96.4202
0
LINE
8
BLACK
6
CONTINUOUS
10
167.518
20
-96.4202
11
167.426
21
-96.3673
0
LINE
8
BLACK
6
CONTINUOUS
10
167.426
20
-96.3673
11
167.358
21
-96.2862
0
LINE
8
BLACK
6
CONTINUOUS
10
167.358
20
-96.2862
11
167.322
21
-96.1868
0
LINE
8
BLACK
6
CONTINUOUS
10
167.322
20
-96.1868
11
167.322
21
-96.081
0
LINE
8
BLACK
6
CONTINUOUS
10
167.322
20
-96.081
11
167.358
21
-95.9816
0
LINE
8
BLACK
6
CONTINUOUS
10
167.358
20
-95.9816
11
167.426
21
-95.9006
0
LINE
8
BLACK
6
CONTINUOUS
10
167.426
20
-95.9006
11
167.518
21
-95.8477
0
LINE
8
BLACK
6
CONTINUOUS
10
167.518
20
-95.8477
11
167.622
21
-95.8293
0
LINE
8
BLACK
6
CONTINUOUS
10
167.622
20
-95.8293
11
167.726
21
-95.8477
0
LINE
8
BLACK
6
CONTINUOUS
10
167.726
20
-95.8477
11
167.739
21
-95.8551
0
LINE
8
BLACK
6
CONTINUOUS
10
167.739
20
-95.8551
11
167.848
21
-95.746
0
LINE
8
BLACK
6
CONTINUOUS
10
167.848
20
-95.746
11
167.848
21
-95.746
0
LINE
8
BLACK
6
CONTINUOUS
10
167.848
20
-95.746
11
168.728
21
-94.867
0
LINE
8
BLACK
6
CONTINUOUS
10
168.728
20
-94.867
11
168.728
21
-87.0984
0
LINE
8
BLACK
6
CONTINUOUS
10
168.728
20
-87.0984
11
168.05
21
-86.4212
0
LINE
8
BLACK
6
CONTINUOUS
10
168.05
20
-86.4212
11
167.925
21
-86.4212
0
LINE
8
BLACK
6
CONTINUOUS
10
167.925
20
-86.4212
11
167.91
21
-86.4226
0
LINE
8
BLACK
6
CONTINUOUS
10
167.91
20
-86.4226
11
167.895
21
-86.4186
0
LINE
8
BLACK
6
CONTINUOUS
10
167.895
20
-86.4186
11
167.88
21
-86.416
0
LINE
8
BLACK
6
CONTINUOUS
10
167.88
20
-86.416
11
167.876
21
-86.4134
0
LINE
8
BLACK
6
CONTINUOUS
10
167.876
20
-86.4134
11
167.871
21
-86.4121
0
LINE
8
BLACK
6
CONTINUOUS
10
167.871
20
-86.4121
11
167.858
21
-86.4034
0
LINE
8
BLACK
6
CONTINUOUS
10
167.858
20
-86.4034
11
167.845
21
-86.3958
0
LINE
8
BLACK
6
CONTINUOUS
10
167.845
20
-86.3958
11
167.835
21
-86.3842
0
LINE
8
BLACK
6
CONTINUOUS
10
167.835
20
-86.3842
11
167.737
21
-86.2857
0
LINE
8
BLACK
6
CONTINUOUS
10
167.737
20
-86.2857
11
167.724
21
-86.2932
0
LINE
8
BLACK
6
CONTINUOUS
10
167.724
20
-86.2932
11
167.62
21
-86.3116
0
LINE
8
BLACK
6
CONTINUOUS
10
167.62
20
-86.3116
11
167.515
21
-86.2932
0
LINE
8
BLACK
6
CONTINUOUS
10
167.515
20
-86.2932
11
167.424
21
-86.2403
0
LINE
8
BLACK
6
CONTINUOUS
10
167.424
20
-86.2403
11
167.356
21
-86.1593
0
LINE
8
BLACK
6
CONTINUOUS
10
167.356
20
-86.1593
11
167.32
21
-86.0598
0
LINE
8
BLACK
6
CONTINUOUS
10
167.32
20
-86.0598
11
167.32
21
-85.954
0
LINE
8
BLACK
6
CONTINUOUS
10
167.32
20
-85.954
11
167.356
21
-85.8546
0
LINE
8
BLACK
6
CONTINUOUS
10
167.356
20
-85.8546
11
167.424
21
-85.7736
0
LINE
8
BLACK
6
CONTINUOUS
10
167.424
20
-85.7736
11
167.49
21
-85.7353
0
LINE
8
BLACK
6
CONTINUOUS
10
167.49
20
-85.7353
11
167.49
21
-76.234
0
LINE
8
BLACK
6
CONTINUOUS
10
167.49
20
-76.234
11
167.409
21
-76.187
0
LINE
8
BLACK
6
CONTINUOUS
10
167.409
20
-76.187
11
167.341
21
-76.1059
0
LINE
8
BLACK
6
CONTINUOUS
10
167.341
20
-76.1059
11
167.304
21
-76.0065
0
LINE
8
BLACK
6
CONTINUOUS
10
167.304
20
-76.0065
11
167.304
21
-75.9007
0
LINE
8
BLACK
6
CONTINUOUS
10
167.304
20
-75.9007
11
167.327
21
-75.8381
0
LINE
8
BLACK
6
CONTINUOUS
10
167.327
20
-75.8381
11
167.231
21
-75.7415
0
LINE
8
BLACK
6
CONTINUOUS
10
167.231
20
-75.7415
11
167.231
21
-75.7415
0
LINE
8
BLACK
6
CONTINUOUS
10
167.231
20
-75.7415
11
163.193
21
-71.7035
0
LINE
8
BLACK
6
CONTINUOUS
10
163.193
20
-71.7035
11
119.497
21
-71.7035
0
LINE
8
BLACK
6
CONTINUOUS
10
119.497
20
-71.7035
11
116.421
21
-74.7792
0
LINE
8
BLACK
6
CONTINUOUS
10
116.421
20
-74.7792
11
116.421
21
-82.0512
0
LINE
8
BLACK
6
CONTINUOUS
10
116.421
20
-82.0512
11
116.422
21
-82.0663
0
LINE
8
BLACK
6
CONTINUOUS
10
116.422
20
-82.0663
11
116.418
21
-82.0809
0
LINE
8
BLACK
6
CONTINUOUS
10
116.418
20
-82.0809
11
116.416
21
-82.0959
0
LINE
8
BLACK
6
CONTINUOUS
10
116.416
20
-82.0959
11
116.413
21
-82.1003
0
LINE
8
BLACK
6
CONTINUOUS
10
116.413
20
-82.1003
11
116.412
21
-82.1053
0
LINE
8
BLACK
6
CONTINUOUS
10
116.412
20
-82.1053
11
116.403
21
-82.1177
0
LINE
8
BLACK
6
CONTINUOUS
10
116.403
20
-82.1177
11
116.396
21
-82.1308
0
LINE
8
BLACK
6
CONTINUOUS
10
116.396
20
-82.1308
11
116.384
21
-82.1405
0
LINE
8
BLACK
6
CONTINUOUS
10
116.384
20
-82.1405
11
114.36
21
-84.1642
0
LINE
8
BLACK
6
CONTINUOUS
10
114.36
20
-84.1642
11
114.36
21
-84.6026
0
LINE
8
BLACK
6
CONTINUOUS
10
114.36
20
-84.6026
11
112.36
21
-84.6026
0
LINE
8
BLACK
6
CONTINUOUS
10
112.36
20
-84.6026
11
112.36
21
-84.0026
0
LINE
8
BLACK
6
CONTINUOUS
10
112.36
20
-84.0026
11
114.199
21
-84.0026
0
LINE
8
BLACK
6
CONTINUOUS
10
114.199
20
-84.0026
11
116.192
21
-82.0089
0
LINE
8
BLACK
6
CONTINUOUS
10
116.192
20
-82.0089
11
116.192
21
-74.7369
0
LINE
8
BLACK
6
CONTINUOUS
10
116.192
20
-74.7369
11
116.191
21
-74.7218
0
LINE
8
BLACK
6
CONTINUOUS
10
116.191
20
-74.7218
11
116.195
21
-74.7071
0
LINE
8
BLACK
6
CONTINUOUS
10
116.195
20
-74.7071
11
116.198
21
-74.6922
0
LINE
8
BLACK
6
CONTINUOUS
10
116.198
20
-74.6922
11
116.2
21
-74.6878
0
LINE
8
BLACK
6
CONTINUOUS
10
116.2
20
-74.6878
11
116.201
21
-74.6828
0
LINE
8
BLACK
6
CONTINUOUS
10
116.201
20
-74.6828
11
116.21
21
-74.6704
0
LINE
8
BLACK
6
CONTINUOUS
10
116.21
20
-74.6704
11
116.218
21
-74.6573
0
LINE
8
BLACK
6
CONTINUOUS
10
116.218
20
-74.6573
11
116.229
21
-74.6475
0
LINE
8
BLACK
6
CONTINUOUS
10
116.229
20
-74.6475
11
119.365
21
-71.5119
0
LINE
8
BLACK
6
CONTINUOUS
10
119.365
20
-71.5119
11
119.375
21
-71.5003
0
LINE
8
BLACK
6
CONTINUOUS
10
119.375
20
-71.5003
11
119.388
21
-71.4927
0
LINE
8
BLACK
6
CONTINUOUS
10
119.388
20
-71.4927
11
119.4
21
-71.484
0
LINE
8
BLACK
6
CONTINUOUS
10
119.4
20
-71.484
11
119.405
21
-71.4827
0
LINE
8
BLACK
6
CONTINUOUS
10
119.405
20
-71.4827
11
119.41
21
-71.4801
0
LINE
8
BLACK
6
CONTINUOUS
10
119.41
20
-71.4801
11
119.425
21
-71.4775
0
LINE
8
BLACK
6
CONTINUOUS
10
119.425
20
-71.4775
11
119.439
21
-71.4736
0
LINE
8
BLACK
6
CONTINUOUS
10
119.439
20
-71.4736
11
119.454
21
-71.4749
0
LINE
8
BLACK
6
CONTINUOUS
10
119.454
20
-71.4749
11
163.235
21
-71.4749
0
LINE
8
BLACK
6
CONTINUOUS
10
163.235
20
-71.4749
11
163.25
21
-71.4736
0
LINE
8
BLACK
6
CONTINUOUS
10
163.25
20
-71.4736
11
163.265
21
-71.4775
0
LINE
8
BLACK
6
CONTINUOUS
10
153.849
20
-82.0604
11
153.94
21
-82.1133
0
LINE
8
BLACK
6
CONTINUOUS
10
153.94
20
-82.1133
11
154.008
21
-82.1943
0
LINE
8
BLACK
6
CONTINUOUS
10
154.008
20
-82.1943
11
154.044
21
-82.2937
0
LINE
8
BLACK
6
CONTINUOUS
10
154.044
20
-82.2937
11
154.044
21
-82.3995
0
LINE
8
BLACK
6
CONTINUOUS
10
154.044
20
-82.3995
11
154.008
21
-82.4989
0
LINE
8
BLACK
6
CONTINUOUS
10
154.008
20
-82.4989
11
153.94
21
-82.58
0
LINE
8
BLACK
6
CONTINUOUS
10
153.94
20
-82.58
11
153.868
21
-82.6216
0
LINE
8
BLACK
6
CONTINUOUS
10
153.868
20
-82.6216
11
153.868
21
-85.7494
0
LINE
8
BLACK
6
CONTINUOUS
10
153.868
20
-85.7494
11
153.95
21
-85.7964
0
LINE
8
BLACK
6
CONTINUOUS
10
153.95
20
-85.7964
11
154.018
21
-85.8775
0
LINE
8
BLACK
6
CONTINUOUS
10
154.018
20
-85.8775
11
154.054
21
-85.9769
0
LINE
8
BLACK
6
CONTINUOUS
10
154.054
20
-85.9769
11
154.054
21
-86.0827
0
LINE
8
BLACK
6
CONTINUOUS
10
154.054
20
-86.0827
11
154.031
21
-86.1454
0
LINE
8
BLACK
6
CONTINUOUS
10
154.031
20
-86.1454
11
154.137
21
-86.2517
0
LINE
8
BLACK
6
CONTINUOUS
10
154.137
20
-86.2517
11
154.149
21
-86.2614
0
LINE
8
BLACK
6
CONTINUOUS
10
154.149
20
-86.2614
11
154.157
21
-86.2746
0
LINE
8
BLACK
6
CONTINUOUS
10
154.157
20
-86.2746
11
154.165
21
-86.287
0
LINE
8
BLACK
6
CONTINUOUS
10
154.165
20
-86.287
11
154.167
21
-86.2919
0
LINE
8
BLACK
6
CONTINUOUS
10
154.167
20
-86.2919
11
154.169
21
-86.2963
0
LINE
8
BLACK
6
CONTINUOUS
10
154.169
20
-86.2963
11
154.172
21
-86.3113
0
LINE
8
BLACK
6
CONTINUOUS
10
154.172
20
-86.3113
11
154.176
21
-86.3259
0
LINE
8
BLACK
6
CONTINUOUS
10
154.176
20
-86.3259
11
154.174
21
-86.341
0
LINE
8
BLACK
6
CONTINUOUS
10
154.174
20
-86.341
11
154.174
21
-95.8354
0
LINE
8
BLACK
6
CONTINUOUS
10
154.174
20
-95.8354
11
154.176
21
-95.8505
0
LINE
8
BLACK
6
CONTINUOUS
10
154.176
20
-95.8505
11
154.172
21
-95.8652
0
LINE
8
BLACK
6
CONTINUOUS
10
154.172
20
-95.8652
11
154.169
21
-95.8801
0
LINE
8
BLACK
6
CONTINUOUS
10
154.169
20
-95.8801
11
154.167
21
-95.8845
0
LINE
8
BLACK
6
CONTINUOUS
10
154.167
20
-95.8845
11
154.165
21
-95.8895
0
LINE
8
BLACK
6
CONTINUOUS
10
154.165
20
-95.8895
11
154.157
21
-95.9019
0
LINE
8
BLACK
6
CONTINUOUS
10
154.157
20
-95.9019
11
154.149
21
-95.915
0
LINE
8
BLACK
6
CONTINUOUS
10
154.149
20
-95.915
11
154.137
21
-95.9248
0
LINE
8
BLACK
6
CONTINUOUS
10
154.137
20
-95.9248
11
154.037
21
-96.0248
0
LINE
8
BLACK
6
CONTINUOUS
10
154.037
20
-96.0248
11
154.06
21
-96.0875
0
LINE
8
BLACK
6
CONTINUOUS
10
154.06
20
-96.0875
11
154.06
21
-96.1933
0
LINE
8
BLACK
6
CONTINUOUS
10
154.06
20
-96.1933
11
154.027
21
-96.2852
0
LINE
8
BLACK
6
CONTINUOUS
10
154.027
20
-96.2852
11
154.026
21
-96.2966
0
LINE
8
BLACK
6
CONTINUOUS
10
154.026
20
-96.2966
11
154.026
21
-104.365
0
LINE
8
BLACK
6
CONTINUOUS
10
154.026
20
-104.365
11
154.107
21
-104.412
0
LINE
8
BLACK
6
CONTINUOUS
10
154.107
20
-104.412
11
154.175
21
-104.493
0
LINE
8
BLACK
6
CONTINUOUS
10
154.175
20
-104.493
11
154.211
21
-104.593
0
LINE
8
BLACK
6
CONTINUOUS
10
154.211
20
-104.593
11
154.211
21
-104.698
0
LINE
8
BLACK
6
CONTINUOUS
10
154.211
20
-104.698
11
154.175
21
-104.798
0
LINE
8
BLACK
6
CONTINUOUS
10
154.175
20
-104.798
11
154.107
21
-104.879
0
LINE
8
BLACK
6
CONTINUOUS
10
154.107
20
-104.879
11
154.015
21
-104.932
0
LINE
8
BLACK
6
CONTINUOUS
10
154.015
20
-104.932
11
153.911
21
-104.95
0
LINE
8
BLACK
6
CONTINUOUS
10
153.911
20
-104.95
11
153.807
21
-104.932
0
LINE
8
BLACK
6
CONTINUOUS
10
153.807
20
-104.932
11
153.715
21
-104.879
0
LINE
8
BLACK
6
CONTINUOUS
10
153.715
20
-104.879
11
153.647
21
-104.798
0
LINE
8
BLACK
6
CONTINUOUS
10
153.647
20
-104.798
11
153.611
21
-104.698
0
LINE
8
BLACK
6
CONTINUOUS
10
153.611
20
-104.698
11
153.611
21
-104.593
0
LINE
8
BLACK
6
CONTINUOUS
10
153.611
20
-104.593
11
153.647
21
-104.493
0
LINE
8
BLACK
6
CONTINUOUS
10
153.647
20
-104.493
11
153.715
21
-104.412
0
LINE
8
BLACK
6
CONTINUOUS
10
153.715
20
-104.412
11
153.797
21
-104.365
0
LINE
8
BLACK
6
CONTINUOUS
10
153.797
20
-104.365
11
153.797
21
-96.4385
0
LINE
8
BLACK
6
CONTINUOUS
10
153.797
20
-96.4385
11
153.76
21
-96.445
0
LINE
8
BLACK
6
CONTINUOUS
10
153.76
20
-96.445
11
153.656
21
-96.4267
0
LINE
8
BLACK
6
CONTINUOUS
10
153.656
20
-96.4267
11
153.564
21
-96.3738
0
LINE
8
BLACK
6
CONTINUOUS
10
153.564
20
-96.3738
11
153.496
21
-96.2927
0
LINE
8
BLACK
6
CONTINUOUS
10
153.496
20
-96.2927
11
153.46
21
-96.1933
0
LINE
8
BLACK
6
CONTINUOUS
10
153.46
20
-96.1933
11
153.46
21
-96.0875
0
LINE
8
BLACK
6
CONTINUOUS
10
153.46
20
-96.0875
11
153.496
21
-95.9881
0
LINE
8
BLACK
6
CONTINUOUS
10
153.496
20
-95.9881
11
153.564
21
-95.907
0
LINE
8
BLACK
6
CONTINUOUS
10
153.564
20
-95.907
11
153.656
21
-95.8541
0
LINE
8
BLACK
6
CONTINUOUS
10
153.656
20
-95.8541
11
153.76
21
-95.8358
0
LINE
8
BLACK
6
CONTINUOUS
10
153.76
20
-95.8358
11
153.864
21
-95.8541
0
LINE
8
BLACK
6
CONTINUOUS
10
153.864
20
-95.8541
11
153.877
21
-95.8616
0
LINE
8
BLACK
6
CONTINUOUS
10
153.877
20
-95.8616
11
153.946
21
-95.7931
0
LINE
8
BLACK
6
CONTINUOUS
10
153.946
20
-95.7931
11
153.946
21
-86.3834
0
LINE
8
BLACK
6
CONTINUOUS
10
153.946
20
-86.3834
11
153.871
21
-86.3086
0
LINE
8
BLACK
6
CONTINUOUS
10
153.871
20
-86.3086
11
153.858
21
-86.3161
0
LINE
8
BLACK
6
CONTINUOUS
10
153.858
20
-86.3161
11
153.754
21
-86.3344
0
LINE
8
BLACK
6
CONTINUOUS
10
153.754
20
-86.3344
11
153.65
21
-86.3161
0
LINE
8
BLACK
6
CONTINUOUS
10
153.65
20
-86.3161
11
153.558
21
-86.2632
0
LINE
8
BLACK
6
CONTINUOUS
10
153.558
20
-86.2632
11
153.49
21
-86.1821
0
LINE
8
BLACK
6
CONTINUOUS
10
153.49
20
-86.1821
11
153.454
21
-86.0827
0
LINE
8
BLACK
6
CONTINUOUS
10
153.454
20
-86.0827
11
153.454
21
-85.9769
0
LINE
8
BLACK
6
CONTINUOUS
10
153.454
20
-85.9769
11
153.49
21
-85.8775
0
LINE
8
BLACK
6
CONTINUOUS
10
153.49
20
-85.8775
11
153.558
21
-85.7964
0
LINE
8
BLACK
6
CONTINUOUS
10
153.558
20
-85.7964
11
153.64
21
-85.7494
0
LINE
8
BLACK
6
CONTINUOUS
10
153.64
20
-85.7494
11
153.64
21
-82.6325
0
LINE
8
BLACK
6
CONTINUOUS
10
153.64
20
-82.6325
11
153.549
21
-82.58
0
LINE
8
BLACK
6
CONTINUOUS
10
153.549
20
-82.58
11
153.481
21
-82.4989
0
LINE
8
BLACK
6
CONTINUOUS
10
153.481
20
-82.4989
11
153.444
21
-82.3995
0
LINE
8
BLACK
6
CONTINUOUS
10
153.444
20
-82.3995
11
153.444
21
-82.2937
0
LINE
8
BLACK
6
CONTINUOUS
10
153.444
20
-82.2937
11
153.481
21
-82.1943
0
LINE
8
BLACK
6
CONTINUOUS
10
153.481
20
-82.1943
11
153.549
21
-82.1133
0
LINE
8
BLACK
6
CONTINUOUS
10
153.549
20
-82.1133
11
153.64
21
-82.0604
0
LINE
8
BLACK
6
CONTINUOUS
10
153.64
20
-82.0604
11
153.744
21
-82.042
0
LINE
8
BLACK
6
CONTINUOUS
10
153.744
20
-82.042
11
153.849
21
-82.0604
0
LINE
8
BLACK
6
CONTINUOUS
10
147.82
20
-104.625
11
146.82
21
-104.625
0
LINE
8
BLACK
6
CONTINUOUS
10
146.82
20
-104.625
11
146.82
21
-102.115
0
LINE
8
BLACK
6
CONTINUOUS
10
146.82
20
-102.115
11
147.82
21
-102.115
0
LINE
8
BLACK
6
CONTINUOUS
10
147.82
20
-102.115
11
147.82
21
-104.625
0
LINE
8
BLACK
6
CONTINUOUS
10
142.74
20
-104.625
11
141.74
21
-104.625
0
LINE
8
BLACK
6
CONTINUOUS
10
141.74
20
-104.625
11
141.74
21
-102.115
0
LINE
8
BLACK
6
CONTINUOUS
10
141.74
20
-102.115
11
142.74
21
-102.115
0
LINE
8
BLACK
6
CONTINUOUS
10
142.74
20
-102.115
11
142.74
21
-104.625
0
LINE
8
BLACK
6
CONTINUOUS
10
152.9
20
-104.625
11
151.9
21
-104.625
0
LINE
8
BLACK
6
CONTINUOUS
10
151.9
20
-104.625
11
151.9
21
-102.115
0
LINE
8
BLACK
6
CONTINUOUS
10
151.9
20
-102.115
11
152.9
21
-102.115
0
LINE
8
BLACK
6
CONTINUOUS
10
152.9
20
-102.115
11
152.9
21
-104.625
0
LINE
8
BLACK
6
CONTINUOUS
10
137.66
20
-104.625
11
136.66
21
-104.625
0
LINE
8
BLACK
6
CONTINUOUS
10
136.66
20
-104.625
11
136.66
21
-102.115
0
LINE
8
BLACK
6
CONTINUOUS
10
136.66
20
-102.115
11
137.66
21
-102.115
0
LINE
8
BLACK
6
CONTINUOUS
10
137.66
20
-102.115
11
137.66
21
-104.625
0
LINE
8
BLACK
6
CONTINUOUS
10
157.98
20
-104.625
11
156.98
21
-104.625
0
LINE
8
BLACK
6
CONTINUOUS
10
156.98
20
-104.625
11
156.98
21
-102.115
0
LINE
8
BLACK
6
CONTINUOUS
10
156.98
20
-102.115
11
157.98
21
-102.115
0
LINE
8
BLACK
6
CONTINUOUS
10
157.98
20
-102.115
11
157.98
21
-104.625
0
LINE
8
BLACK
6
CONTINUOUS
10
163.06
20
-104.625
11
162.06
21
-104.625
0
LINE
8
BLACK
6
CONTINUOUS
10
162.06
20
-104.625
11
162.06
21
-102.115
0
LINE
8
BLACK
6
CONTINUOUS
10
162.06
20
-102.115
11
163.06
21
-102.115
0
LINE
8
BLACK
6
CONTINUOUS
10
163.06
20
-102.115
11
163.06
21
-104.625
0
LINE
8
BLACK
6
CONTINUOUS
10
168.14
20
-104.625
11
167.14
21
-104.625
0
LINE
8
BLACK
6
CONTINUOUS
10
167.14
20
-104.625
11
167.14
21
-102.115
0
LINE
8
BLACK
6
CONTINUOUS
10
167.14
20
-102.115
11
168.14
21
-102.115
0
LINE
8
BLACK
6
CONTINUOUS
10
168.14
20
-102.115
11
168.14
21
-104.625
0
LINE
8
BLACK
6
CONTINUOUS
10
123.76
20
-90.9526
11
121.922
21
-90.9526
0
LINE
8
BLACK
6
CONTINUOUS
10
121.922
20
-90.9526
11
119.494
21
-93.3801
0
LINE
8
BLACK
6
CONTINUOUS
10
119.494
20
-93.3801
11
119.494
21
-102.59
0
LINE
8
BLACK
6
CONTINUOUS
10
119.494
20
-102.59
11
119.576
21
-102.637
0
LINE
8
BLACK
6
CONTINUOUS
10
119.576
20
-102.637
11
119.644
21
-102.718
0
LINE
8
BLACK
6
CONTINUOUS
10
119.644
20
-102.718
11
119.68
21
-102.817
0
LINE
8
BLACK
6
CONTINUOUS
10
119.68
20
-102.817
11
119.68
21
-102.923
0
LINE
8
BLACK
6
CONTINUOUS
10
119.68
20
-102.923
11
119.644
21
-103.022
0
LINE
8
BLACK
6
CONTINUOUS
10
119.644
20
-103.022
11
119.576
21
-103.103
0
LINE
8
BLACK
6
CONTINUOUS
10
119.576
20
-103.103
11
119.484
21
-103.156
0
LINE
8
BLACK
6
CONTINUOUS
10
119.484
20
-103.156
11
119.38
21
-103.175
0
LINE
8
BLACK
6
CONTINUOUS
10
119.38
20
-103.175
11
119.276
21
-103.156
0
LINE
8
BLACK
6
CONTINUOUS
10
119.276
20
-103.156
11
119.184
21
-103.103
0
LINE
8
BLACK
6
CONTINUOUS
10
119.184
20
-103.103
11
119.116
21
-103.022
0
LINE
8
BLACK
6
CONTINUOUS
10
119.116
20
-103.022
11
119.08
21
-102.923
0
LINE
8
BLACK
6
CONTINUOUS
10
119.08
20
-102.923
11
119.08
21
-102.817
0
LINE
8
BLACK
6
CONTINUOUS
10
119.08
20
-102.817
11
119.116
21
-102.718
0
LINE
8
BLACK
6
CONTINUOUS
10
119.116
20
-102.718
11
119.184
21
-102.637
0
LINE
8
BLACK
6
CONTINUOUS
10
119.184
20
-102.637
11
119.266
21
-102.59
0
LINE
8
BLACK
6
CONTINUOUS
10
119.266
20
-102.59
11
119.266
21
-93.3378
0
LINE
8
BLACK
6
CONTINUOUS
10
119.266
20
-93.3378
11
119.264
21
-93.3227
0
LINE
8
BLACK
6
CONTINUOUS
10
119.264
20
-93.3227
11
119.268
21
-93.308
0
LINE
8
BLACK
6
CONTINUOUS
10
119.268
20
-93.308
11
119.271
21
-93.2931
0
LINE
8
BLACK
6
CONTINUOUS
10
119.271
20
-93.2931
11
119.273
21
-93.2887
0
LINE
8
BLACK
6
CONTINUOUS
10
119.273
20
-93.2887
11
119.275
21
-93.2837
0
LINE
8
BLACK
6
CONTINUOUS
10
119.275
20
-93.2837
11
119.284
21
-93.2713
0
LINE
8
BLACK
6
CONTINUOUS
10
119.284
20
-93.2713
11
119.291
21
-93.2582
0
LINE
8
BLACK
6
CONTINUOUS
10
119.291
20
-93.2582
11
119.303
21
-93.2484
0
LINE
8
BLACK
6
CONTINUOUS
10
119.303
20
-93.2484
11
121.76
21
-90.791
0
LINE
8
BLACK
6
CONTINUOUS
10
121.76
20
-90.791
11
121.76
21
-90.3526
0
LINE
8
BLACK
6
CONTINUOUS
10
121.76
20
-90.3526
11
123.76
21
-90.3526
0
LINE
8
BLACK
6
CONTINUOUS
10
123.76
20
-90.3526
11
123.76
21
-90.9526
0
LINE
8
BLACK
6
CONTINUOUS
10
185.488
20
-101.114
11
182.888
21
-101.114
0
LINE
8
BLACK
6
CONTINUOUS
10
182.888
20
-101.114
11
182.888
21
-99.1141
0
LINE
8
BLACK
6
CONTINUOUS
10
182.888
20
-99.1141
11
185.488
21
-99.1141
0
LINE
8
BLACK
6
CONTINUOUS
10
185.488
20
-99.1141
11
185.488
21
-101.114
0
LINE
8
BLACK
6
CONTINUOUS
10
114.36
20
-96.9264
11
116.339
21
-96.9264
0
LINE
8
BLACK
6
CONTINUOUS
10
116.339
20
-96.9264
11
116.349
21
-96.9255
0
LINE
8
BLACK
6
CONTINUOUS
10
116.349
20
-96.9255
11
116.359
21
-96.9281
0
LINE
8
BLACK
6
CONTINUOUS
10
116.359
20
-96.9281
11
116.369
21
-96.9299
0
LINE
8
BLACK
6
CONTINUOUS
10
116.369
20
-96.9299
11
116.372
21
-96.9316
0
LINE
8
BLACK
6
CONTINUOUS
10
116.372
20
-96.9316
11
116.375
21
-96.9325
0
LINE
8
BLACK
6
CONTINUOUS
10
116.375
20
-96.9325
11
116.384
21
-96.9383
0
LINE
8
BLACK
6
CONTINUOUS
10
116.384
20
-96.9383
11
116.392
21
-96.9433
0
LINE
8
BLACK
6
CONTINUOUS
10
116.392
20
-96.9433
11
116.399
21
-96.9511
0
LINE
8
BLACK
6
CONTINUOUS
10
116.399
20
-96.9511
11
117.799
21
-98.3509
0
LINE
8
BLACK
6
CONTINUOUS
10
117.799
20
-98.3509
11
117.846
21
-98.3237
0
LINE
8
BLACK
6
CONTINUOUS
10
117.846
20
-98.3237
11
117.95
21
-98.3054
0
LINE
8
BLACK
6
CONTINUOUS
10
117.95
20
-98.3054
11
118.054
21
-98.3237
0
LINE
8
BLACK
6
CONTINUOUS
10
118.054
20
-98.3237
11
118.146
21
-98.3766
0
LINE
8
BLACK
6
CONTINUOUS
10
118.146
20
-98.3766
11
118.214
21
-98.4577
0
LINE
8
BLACK
6
CONTINUOUS
10
118.214
20
-98.4577
11
118.25
21
-98.5571
0
LINE
8
BLACK
6
CONTINUOUS
10
118.25
20
-98.5571
11
118.25
21
-98.6629
0
LINE
8
BLACK
6
CONTINUOUS
10
118.25
20
-98.6629
11
118.214
21
-98.7623
0
LINE
8
BLACK
6
CONTINUOUS
10
118.214
20
-98.7623
11
118.146
21
-98.8434
0
LINE
8
BLACK
6
CONTINUOUS
10
118.146
20
-98.8434
11
118.054
21
-98.8963
0
LINE
8
BLACK
6
CONTINUOUS
10
118.054
20
-98.8963
11
117.95
21
-98.9146
0
LINE
8
BLACK
6
CONTINUOUS
10
117.95
20
-98.9146
11
117.846
21
-98.8963
0
LINE
8
BLACK
6
CONTINUOUS
10
117.846
20
-98.8963
11
117.754
21
-98.8434
0
LINE
8
BLACK
6
CONTINUOUS
10
117.754
20
-98.8434
11
117.686
21
-98.7623
0
LINE
8
BLACK
6
CONTINUOUS
10
117.686
20
-98.7623
11
117.65
21
-98.6629
0
LINE
8
BLACK
6
CONTINUOUS
10
117.65
20
-98.6629
11
117.65
21
-98.5571
0
LINE
8
BLACK
6
CONTINUOUS
10
117.65
20
-98.5571
11
117.686
21
-98.4577
0
LINE
8
BLACK
6
CONTINUOUS
10
117.686
20
-98.4577
11
117.688
21
-98.4557
0
LINE
8
BLACK
6
CONTINUOUS
10
117.688
20
-98.4557
11
116.311
21
-97.0788
0
LINE
8
BLACK
6
CONTINUOUS
10
116.311
20
-97.0788
11
114.36
21
-97.0788
0
LINE
8
BLACK
6
CONTINUOUS
10
114.36
20
-97.0788
11
114.36
21
-97.3026
0
LINE
8
BLACK
6
CONTINUOUS
10
114.36
20
-97.3026
11
112.36
21
-97.3026
0
LINE
8
BLACK
6
CONTINUOUS
10
112.36
20
-97.3026
11
112.36
21
-96.7026
0
LINE
8
BLACK
6
CONTINUOUS
10
112.36
20
-96.7026
11
114.36
21
-96.7026
0
LINE
8
BLACK
6
CONTINUOUS
10
114.36
20
-96.7026
11
114.36
21
-96.9264
0
LINE
8
BLACK
6
CONTINUOUS
10
150.36
20
-92.695
11
149.936
21
-92.695
0
LINE
8
BLACK
6
CONTINUOUS
10
149.936
20
-92.695
11
149.936
21
-92.8441
0
LINE
8
BLACK
6
CONTINUOUS
10
149.936
20
-92.8441
11
149.937
21
-92.8541
0
LINE
8
BLACK
6
CONTINUOUS
10
149.937
20
-92.8541
11
149.934
21
-92.8639
0
LINE
8
BLACK
6
CONTINUOUS
10
149.934
20
-92.8639
11
149.933
21
-92.8739
0
LINE
8
BLACK
6
CONTINUOUS
10
149.933
20
-92.8739
11
149.931
21
-92.8768
0
LINE
8
BLACK
6
CONTINUOUS
10
149.931
20
-92.8768
11
149.93
21
-92.8801
0
LINE
8
BLACK
6
CONTINUOUS
10
149.93
20
-92.8801
11
149.924
21
-92.8884
0
LINE
8
BLACK
6
CONTINUOUS
10
149.924
20
-92.8884
11
149.919
21
-92.8971
0
LINE
8
BLACK
6
CONTINUOUS
10
149.919
20
-92.8971
11
149.912
21
-92.9036
0
LINE
8
BLACK
6
CONTINUOUS
10
149.912
20
-92.9036
11
147.266
21
-95.549
0
LINE
8
BLACK
6
CONTINUOUS
10
147.266
20
-95.549
11
147.266
21
-98.2588
0
LINE
8
BLACK
6
CONTINUOUS
10
147.266
20
-98.2588
11
147.294
21
-98.2637
0
LINE
8
BLACK
6
CONTINUOUS
10
147.294
20
-98.2637
11
147.386
21
-98.3166
0
LINE
8
BLACK
6
CONTINUOUS
10
147.386
20
-98.3166
11
147.454
21
-98.3977
0
LINE
8
BLACK
6
CONTINUOUS
10
147.454
20
-98.3977
11
147.49
21
-98.4971
0
LINE
8
BLACK
6
CONTINUOUS
10
147.49
20
-98.4971
11
147.49
21
-98.6029
0
LINE
8
BLACK
6
CONTINUOUS
10
147.49
20
-98.6029
11
147.454
21
-98.7023
0
LINE
8
BLACK
6
CONTINUOUS
10
147.454
20
-98.7023
11
147.386
21
-98.7834
0
LINE
8
BLACK
6
CONTINUOUS
10
147.386
20
-98.7834
11
147.294
21
-98.8363
0
LINE
8
BLACK
6
CONTINUOUS
10
147.294
20
-98.8363
11
147.19
21
-98.8546
0
LINE
8
BLACK
6
CONTINUOUS
10
147.19
20
-98.8546
11
147.086
21
-98.8363
0
LINE
8
BLACK
6
CONTINUOUS
10
147.086
20
-98.8363
11
146.994
21
-98.7834
0
LINE
8
BLACK
6
CONTINUOUS
10
146.994
20
-98.7834
11
146.926
21
-98.7023
0
LINE
8
BLACK
6
CONTINUOUS
10
146.926
20
-98.7023
11
146.89
21
-98.6029
0
LINE
8
BLACK
6
CONTINUOUS
10
146.89
20
-98.6029
11
146.89
21
-98.4971
0
LINE
8
BLACK
6
CONTINUOUS
10
146.89
20
-98.4971
11
146.926
21
-98.3977
0
LINE
8
BLACK
6
CONTINUOUS
10
146.926
20
-98.3977
11
146.994
21
-98.3166
0
LINE
8
BLACK
6
CONTINUOUS
10
146.994
20
-98.3166
11
147.086
21
-98.2637
0
LINE
8
BLACK
6
CONTINUOUS
10
147.086
20
-98.2637
11
147.114
21
-98.2588
0
LINE
8
BLACK
6
CONTINUOUS
10
147.114
20
-98.2588
11
147.114
21
-95.5207
0
LINE
8
BLACK
6
CONTINUOUS
10
147.114
20
-95.5207
11
147.113
21
-95.5107
0
LINE
8
BLACK
6
CONTINUOUS
10
147.113
20
-95.5107
11
147.116
21
-95.5009
0
LINE
8
BLACK
6
CONTINUOUS
10
147.116
20
-95.5009
11
147.117
21
-95.4909
0
LINE
8
BLACK
6
CONTINUOUS
10
147.117
20
-95.4909
11
147.119
21
-95.488
0
LINE
8
BLACK
6
CONTINUOUS
10
147.119
20
-95.488
11
147.12
21
-95.4847
0
LINE
8
BLACK
6
CONTINUOUS
10
147.12
20
-95.4847
11
147.126
21
-95.4764
0
LINE
8
BLACK
6
CONTINUOUS
10
147.126
20
-95.4764
11
147.131
21
-95.4677
0
LINE
8
BLACK
6
CONTINUOUS
10
147.131
20
-95.4677
11
147.138
21
-95.4612
0
LINE
8
BLACK
6
CONTINUOUS
10
147.138
20
-95.4612
11
149.784
21
-92.8158
0
LINE
8
BLACK
6
CONTINUOUS
10
149.784
20
-92.8158
11
149.784
21
-92.695
0
LINE
8
BLACK
6
CONTINUOUS
10
149.784
20
-92.695
11
149.36
21
-92.695
0
LINE
8
BLACK
6
CONTINUOUS
10
149.36
20
-92.695
11
149.36
21
-90.185
0
LINE
8
BLACK
6
CONTINUOUS
10
149.36
20
-90.185
11
150.36
21
-90.185
0
LINE
8
BLACK
6
CONTINUOUS
10
150.36
20
-90.185
11
150.36
21
-92.695
0
LINE
8
BLACK
6
CONTINUOUS
10
184.835
20
-96.6199
11
185.141
21
-96.7962
0
LINE
8
BLACK
6
CONTINUOUS
10
185.141
20
-96.7962
11
185.367
21
-97.0664
0
LINE
8
BLACK
6
CONTINUOUS
10
185.367
20
-97.0664
11
185.488
21
-97.3978
0
LINE
8
BLACK
6
CONTINUOUS
10
185.488
20
-97.3978
11
185.488
21
-97.7504
0
LINE
8
BLACK
6
CONTINUOUS
10
185.488
20
-97.7504
11
185.367
21
-98.0818
0
LINE
8
BLACK
6
CONTINUOUS
10
185.367
20
-98.0818
11
185.141
21
-98.352
0
LINE
8
BLACK
6
CONTINUOUS
10
185.141
20
-98.352
11
184.835
21
-98.5283
0
LINE
8
BLACK
6
CONTINUOUS
10
184.835
20
-98.5283
11
184.576
21
-98.5741
0
LINE
8
BLACK
6
CONTINUOUS
10
184.576
20
-98.5741
11
183.801
21
-98.5741
0
LINE
8
BLACK
6
CONTINUOUS
10
183.801
20
-98.5741
11
183.541
21
-98.5283
0
LINE
8
BLACK
6
CONTINUOUS
10
183.541
20
-98.5283
11
183.235
21
-98.352
0
LINE
8
BLACK
6
CONTINUOUS
10
183.235
20
-98.352
11
183.009
21
-98.0818
0
LINE
8
BLACK
6
CONTINUOUS
10
183.009
20
-98.0818
11
182.888
21
-97.7504
0
LINE
8
BLACK
6
CONTINUOUS
10
182.888
20
-97.7504
11
182.888
21
-97.3978
0
LINE
8
BLACK
6
CONTINUOUS
10
182.888
20
-97.3978
11
183.009
21
-97.0664
0
LINE
8
BLACK
6
CONTINUOUS
10
183.009
20
-97.0664
11
183.235
21
-96.7962
0
LINE
8
BLACK
6
CONTINUOUS
10
183.235
20
-96.7962
11
183.541
21
-96.6199
0
LINE
8
BLACK
6
CONTINUOUS
10
183.541
20
-96.6199
11
183.801
21
-96.5741
0
LINE
8
BLACK
6
CONTINUOUS
10
183.801
20
-96.5741
11
184.576
21
-96.5741
0
LINE
8
BLACK
6
CONTINUOUS
10
184.576
20
-96.5741
11
184.835
21
-96.6199
0
LINE
8
BLACK
6
CONTINUOUS
10
152.9
20
-89.385
11
151.9
21
-89.385
0
LINE
8
BLACK
6
CONTINUOUS
10
151.9
20
-89.385
11
151.9
21
-88.2062
0
LINE
8
BLACK
6
CONTINUOUS
10
151.9
20
-88.2062
11
150.989
21
-88.2062
0
LINE
8
BLACK
6
CONTINUOUS
10
150.989
20
-88.2062
11
146.536
21
-92.6594
0
LINE
8
BLACK
6
CONTINUOUS
10
146.536
20
-92.6594
11
146.536
21
-97.5388
0
LINE
8
BLACK
6
CONTINUOUS
10
146.536
20
-97.5388
11
146.564
21
-97.5437
0
LINE
8
BLACK
6
CONTINUOUS
10
146.564
20
-97.5437
11
146.656
21
-97.5966
0
LINE
8
BLACK
6
CONTINUOUS
10
146.656
20
-97.5966
11
146.724
21
-97.6777
0
LINE
8
BLACK
6
CONTINUOUS
10
146.724
20
-97.6777
11
146.76
21
-97.7771
0
LINE
8
BLACK
6
CONTINUOUS
10
146.76
20
-97.7771
11
146.76
21
-97.8829
0
LINE
8
BLACK
6
CONTINUOUS
10
146.76
20
-97.8829
11
146.724
21
-97.9823
0
LINE
8
BLACK
6
CONTINUOUS
10
146.724
20
-97.9823
11
146.656
21
-98.0634
0
LINE
8
BLACK
6
CONTINUOUS
10
146.656
20
-98.0634
11
146.564
21
-98.1163
0
LINE
8
BLACK
6
CONTINUOUS
10
146.564
20
-98.1163
11
146.46
21
-98.1346
0
LINE
8
BLACK
6
CONTINUOUS
10
146.46
20
-98.1346
11
146.356
21
-98.1163
0
LINE
8
BLACK
6
CONTINUOUS
10
146.356
20
-98.1163
11
146.264
21
-98.0634
0
LINE
8
BLACK
6
CONTINUOUS
10
146.264
20
-98.0634
11
146.196
21
-97.9823
0
LINE
8
BLACK
6
CONTINUOUS
10
146.196
20
-97.9823
11
146.16
21
-97.8829
0
LINE
8
BLACK
6
CONTINUOUS
10
146.16
20
-97.8829
11
146.16
21
-97.7771
0
LINE
8
BLACK
6
CONTINUOUS
10
146.16
20
-97.7771
11
146.196
21
-97.6777
0
LINE
8
BLACK
6
CONTINUOUS
10
146.196
20
-97.6777
11
146.264
21
-97.5966
0
LINE
8
BLACK
6
CONTINUOUS
10
146.264
20
-97.5966
11
146.356
21
-97.5437
0
LINE
8
BLACK
6
CONTINUOUS
10
146.356
20
-97.5437
11
146.384
21
-97.5388
0
LINE
8
BLACK
6
CONTINUOUS
10
146.384
20
-97.5388
11
146.384
21
-92.6311
0
LINE
8
BLACK
6
CONTINUOUS
10
146.384
20
-92.6311
11
146.383
21
-92.6211
0
LINE
8
BLACK
6
CONTINUOUS
10
146.383
20
-92.6211
11
146.386
21
-92.6113
0
LINE
8
BLACK
6
CONTINUOUS
10
146.386
20
-92.6113
11
146.387
21
-92.6013
0
LINE
8
BLACK
6
CONTINUOUS
10
146.387
20
-92.6013
11
146.389
21
-92.5984
0
LINE
8
BLACK
6
CONTINUOUS
10
146.389
20
-92.5984
11
146.39
21
-92.5951
0
LINE
8
BLACK
6
CONTINUOUS
10
146.39
20
-92.5951
11
146.396
21
-92.5868
0
LINE
8
BLACK
6
CONTINUOUS
10
146.396
20
-92.5868
11
146.401
21
-92.5781
0
LINE
8
BLACK
6
CONTINUOUS
10
146.401
20
-92.5781
11
146.408
21
-92.5716
0
LINE
8
BLACK
6
CONTINUOUS
10
146.408
20
-92.5716
11
150.902
21
-88.0785
0
LINE
8
BLACK
6
CONTINUOUS
10
150.902
20
-88.0785
11
150.908
21
-88.0707
0
LINE
8
BLACK
6
CONTINUOUS
10
150.908
20
-88.0707
11
150.917
21
-88.0657
0
LINE
8
BLACK
6
CONTINUOUS
10
150.917
20
-88.0657
11
150.925
21
-88.0599
0
LINE
8
BLACK
6
CONTINUOUS
10
150.925
20
-88.0599
11
150.928
21
-88.059
0
LINE
8
BLACK
6
CONTINUOUS
10
150.928
20
-88.059
11
150.931
21
-88.0573
0
LINE
8
BLACK
6
CONTINUOUS
10
150.931
20
-88.0573
11
150.941
21
-88.0555
0
LINE
8
BLACK
6
CONTINUOUS
10
150.941
20
-88.0555
11
150.951
21
-88.0529
0
LINE
8
BLACK
6
CONTINUOUS
10
150.951
20
-88.0529
11
150.961
21
-88.0538
0
LINE
8
BLACK
6
CONTINUOUS
10
150.961
20
-88.0538
11
151.9
21
-88.0538
0
LINE
8
BLACK
6
CONTINUOUS
10
151.9
20
-88.0538
11
151.9
21
-86.875
0
LINE
8
BLACK
6
CONTINUOUS
10
151.9
20
-86.875
11
152.9
21
-86.875
0
LINE
8
BLACK
6
CONTINUOUS
10
152.9
20
-86.875
11
152.9
21
-89.385
0
LINE
8
BLACK
6
CONTINUOUS
10
125.144
20
-96.7137
11
125.236
21
-96.7666
0
LINE
8
BLACK
6
CONTINUOUS
10
125.236
20
-96.7666
11
125.304
21
-96.8477
0
LINE
8
BLACK
6
CONTINUOUS
10
125.304
20
-96.8477
11
125.34
21
-96.9471
0
LINE
8
BLACK
6
CONTINUOUS
10
125.34
20
-96.9471
11
125.34
21
-97.0529
0
LINE
8
BLACK
6
CONTINUOUS
10
125.34
20
-97.0529
11
125.304
21
-97.1523
0
LINE
8
BLACK
6
CONTINUOUS
10
125.304
20
-97.1523
11
125.236
21
-97.2334
0
LINE
8
BLACK
6
CONTINUOUS
10
125.236
20
-97.2334
11
125.144
21
-97.2863
0
LINE
8
BLACK
6
CONTINUOUS
10
125.144
20
-97.2863
11
125.04
21
-97.3046
0
LINE
8
BLACK
6
CONTINUOUS
10
125.04
20
-97.3046
11
124.936
21
-97.2863
0
LINE
8
BLACK
6
CONTINUOUS
10
124.936
20
-97.2863
11
124.844
21
-97.2334
0
LINE
8
BLACK
6
CONTINUOUS
10
124.844
20
-97.2334
11
124.776
21
-97.1523
0
LINE
8
BLACK
6
CONTINUOUS
10
124.776
20
-97.1523
11
124.748
21
-97.0762
0
LINE
8
BLACK
6
CONTINUOUS
10
124.748
20
-97.0762
11
123.76
21
-97.0762
0
LINE
8
BLACK
6
CONTINUOUS
10
123.76
20
-97.0762
11
123.76
21
-97.3026
0
LINE
8
BLACK
6
CONTINUOUS
10
123.76
20
-97.3026
11
121.76
21
-97.3026
0
LINE
8
BLACK
6
CONTINUOUS
10
121.76
20
-97.3026
11
121.76
21
-96.7026
0
LINE
8
BLACK
6
CONTINUOUS
10
121.76
20
-96.7026
11
123.76
21
-96.7026
0
LINE
8
BLACK
6
CONTINUOUS
10
123.76
20
-96.7026
11
123.76
21
-96.9238
0
LINE
8
BLACK
6
CONTINUOUS
10
123.76
20
-96.9238
11
124.748
21
-96.9238
0
LINE
8
BLACK
6
CONTINUOUS
10
124.748
20
-96.9238
11
124.776
21
-96.8477
0
LINE
8
BLACK
6
CONTINUOUS
10
124.776
20
-96.8477
11
124.844
21
-96.7666
0
LINE
8
BLACK
6
CONTINUOUS
10
124.844
20
-96.7666
11
124.936
21
-96.7137
0
LINE
8
BLACK
6
CONTINUOUS
10
124.936
20
-96.7137
11
125.04
21
-96.6954
0
LINE
8
BLACK
6
CONTINUOUS
10
125.04
20
-96.6954
11
125.144
21
-96.7137
0
LINE
8
BLACK
6
CONTINUOUS
10
184.835
20
-94.0799
11
185.141
21
-94.2562
0
LINE
8
BLACK
6
CONTINUOUS
10
185.141
20
-94.2562
11
185.367
21
-94.5264
0
LINE
8
BLACK
6
CONTINUOUS
10
185.367
20
-94.5264
11
185.488
21
-94.8578
0
LINE
8
BLACK
6
CONTINUOUS
10
185.488
20
-94.8578
11
185.488
21
-95.2104
0
LINE
8
BLACK
6
CONTINUOUS
10
185.488
20
-95.2104
11
185.367
21
-95.5418
0
LINE
8
BLACK
6
CONTINUOUS
10
185.367
20
-95.5418
11
185.141
21
-95.812
0
LINE
8
BLACK
6
CONTINUOUS
10
185.141
20
-95.812
11
184.835
21
-95.9883
0
LINE
8
BLACK
6
CONTINUOUS
10
184.835
20
-95.9883
11
184.576
21
-96.0341
0
LINE
8
BLACK
6
CONTINUOUS
10
184.576
20
-96.0341
11
183.801
21
-96.0341
0
LINE
8
BLACK
6
CONTINUOUS
10
183.801
20
-96.0341
11
183.541
21
-95.9883
0
LINE
8
BLACK
6
CONTINUOUS
10
183.541
20
-95.9883
11
183.235
21
-95.812
0
LINE
8
BLACK
6
CONTINUOUS
10
183.235
20
-95.812
11
183.009
21
-95.5418
0
LINE
8
BLACK
6
CONTINUOUS
10
183.009
20
-95.5418
11
182.888
21
-95.2104
0
LINE
8
BLACK
6
CONTINUOUS
10
182.888
20
-95.2104
11
182.888
21
-94.8578
0
LINE
8
BLACK
6
CONTINUOUS
10
182.888
20
-94.8578
11
183.009
21
-94.5264
0
LINE
8
BLACK
6
CONTINUOUS
10
183.009
20
-94.5264
11
183.235
21
-94.2562
0
LINE
8
BLACK
6
CONTINUOUS
10
183.235
20
-94.2562
11
183.541
21
-94.0799
0
LINE
8
BLACK
6
CONTINUOUS
10
183.541
20
-94.0799
11
183.801
21
-94.0341
0
LINE
8
BLACK
6
CONTINUOUS
10
183.801
20
-94.0341
11
184.576
21
-94.0341
0
LINE
8
BLACK
6
CONTINUOUS
10
184.576
20
-94.0341
11
184.835
21
-94.0799
0
LINE
8
BLACK
6
CONTINUOUS
10
120.754
20
-87.3437
11
120.846
21
-87.3966
0
LINE
8
BLACK
6
CONTINUOUS
10
120.846
20
-87.3966
11
120.914
21
-87.4777
0
LINE
8
BLACK
6
CONTINUOUS
10
120.914
20
-87.4777
11
120.95
21
-87.5771
0
LINE
8
BLACK
6
CONTINUOUS
10
120.95
20
-87.5771
11
120.95
21
-87.6829
0
LINE
8
BLACK
6
CONTINUOUS
10
120.95
20
-87.6829
11
120.914
21
-87.7823
0
LINE
8
BLACK
6
CONTINUOUS
10
120.914
20
-87.7823
11
120.846
21
-87.8634
0
LINE
8
BLACK
6
CONTINUOUS
10
120.846
20
-87.8634
11
120.754
21
-87.9163
0
LINE
8
BLACK
6
CONTINUOUS
10
120.754
20
-87.9163
11
120.65
21
-87.9346
0
LINE
8
BLACK
6
CONTINUOUS
10
120.65
20
-87.9346
11
120.546
21
-87.9163
0
LINE
8
BLACK
6
CONTINUOUS
10
120.546
20
-87.9163
11
120.533
21
-87.9088
0
LINE
8
BLACK
6
CONTINUOUS
10
120.533
20
-87.9088
11
120.438
21
-88.0037
0
LINE
8
BLACK
6
CONTINUOUS
10
120.438
20
-88.0037
11
120.438
21
-88.0038
0
LINE
8
BLACK
6
CONTINUOUS
10
120.438
20
-88.0038
11
120.172
21
-88.2694
0
LINE
8
BLACK
6
CONTINUOUS
10
120.172
20
-88.2694
11
120.172
21
-90.4069
0
LINE
8
BLACK
6
CONTINUOUS
10
120.172
20
-90.4069
11
120.413
21
-90.6478
0
LINE
8
BLACK
6
CONTINUOUS
10
120.413
20
-90.6478
11
120.887
21
-90.6478
0
LINE
8
BLACK
6
CONTINUOUS
10
120.887
20
-90.6478
11
121.637
21
-89.8974
0
LINE
8
BLACK
6
CONTINUOUS
10
121.637
20
-89.8974
11
121.647
21
-89.8858
0
LINE
8
BLACK
6
CONTINUOUS
10
121.647
20
-89.8858
11
121.66
21
-89.8782
0
LINE
8
BLACK
6
CONTINUOUS
10
121.66
20
-89.8782
11
121.673
21
-89.8695
0
LINE
8
BLACK
6
CONTINUOUS
10
121.673
20
-89.8695
11
121.677
21
-89.8682
0
LINE
8
BLACK
6
CONTINUOUS
10
121.677
20
-89.8682
11
121.682
21
-89.8656
0
LINE
8
BLACK
6
CONTINUOUS
10
121.682
20
-89.8656
11
121.697
21
-89.863
0
LINE
8
BLACK
6
CONTINUOUS
10
121.697
20
-89.863
11
121.711
21
-89.8591
0
LINE
8
BLACK
6
CONTINUOUS
10
121.711
20
-89.8591
11
121.727
21
-89.8604
0
LINE
8
BLACK
6
CONTINUOUS
10
121.727
20
-89.8604
11
123.903
21
-89.8604
0
LINE
8
BLACK
6
CONTINUOUS
10
123.903
20
-89.8604
11
123.918
21
-89.8591
0
LINE
8
BLACK
6
CONTINUOUS
10
123.918
20
-89.8591
11
123.933
21
-89.863
0
LINE
8
BLACK
6
CONTINUOUS
10
123.933
20
-89.863
11
123.948
21
-89.8656
0
LINE
8
BLACK
6
CONTINUOUS
10
123.948
20
-89.8656
11
123.952
21
-89.8682
0
LINE
8
BLACK
6
CONTINUOUS
10
123.952
20
-89.8682
11
123.957
21
-89.8695
0
LINE
8
BLACK
6
CONTINUOUS
10
123.957
20
-89.8695
11
123.97
21
-89.8782
0
LINE
8
BLACK
6
CONTINUOUS
10
123.97
20
-89.8782
11
123.983
21
-89.8858
0
LINE
8
BLACK
6
CONTINUOUS
10
123.983
20
-89.8858
11
123.992
21
-89.8974
0
LINE
8
BLACK
6
CONTINUOUS
10
123.992
20
-89.8974
11
124.13
21
-90.0346
0
LINE
8
BLACK
6
CONTINUOUS
10
124.13
20
-90.0346
11
124.141
21
-90.0443
0
LINE
8
BLACK
6
CONTINUOUS
10
124.141
20
-90.0443
11
124.149
21
-90.0574
0
LINE
8
BLACK
6
CONTINUOUS
10
124.149
20
-90.0574
11
124.157
21
-90.0699
0
LINE
8
BLACK
6
CONTINUOUS
10
124.157
20
-90.0699
11
124.159
21
-90.0748
0
LINE
8
BLACK
6
CONTINUOUS
10
124.159
20
-90.0748
11
124.161
21
-90.0792
0
LINE
8
BLACK
6
CONTINUOUS
10
124.161
20
-90.0792
11
124.164
21
-90.0942
0
LINE
8
BLACK
6
CONTINUOUS
10
124.164
20
-90.0942
11
124.168
21
-90.1088
0
LINE
8
BLACK
6
CONTINUOUS
10
124.168
20
-90.1088
11
124.167
21
-90.1239
0
LINE
8
BLACK
6
CONTINUOUS
10
124.167
20
-90.1239
11
124.167
21
-95.1355
0
LINE
8
BLACK
6
CONTINUOUS
10
124.167
20
-95.1355
11
124.168
21
-95.1506
0
LINE
8
BLACK
6
CONTINUOUS
10
124.168
20
-95.1506
11
124.164
21
-95.1653
0
LINE
8
BLACK
6
CONTINUOUS
10
124.164
20
-95.1653
11
124.161
21
-95.1802
0
LINE
8
BLACK
6
CONTINUOUS
10
124.161
20
-95.1802
11
124.159
21
-95.1846
0
LINE
8
BLACK
6
CONTINUOUS
10
124.159
20
-95.1846
11
124.157
21
-95.1895
0
LINE
8
BLACK
6
CONTINUOUS
10
124.157
20
-95.1895
11
124.149
21
-95.202
0
LINE
8
BLACK
6
CONTINUOUS
10
124.149
20
-95.202
11
124.141
21
-95.2151
0
LINE
8
BLACK
6
CONTINUOUS
10
124.141
20
-95.2151
11
124.13
21
-95.2248
0
LINE
8
BLACK
6
CONTINUOUS
10
124.13
20
-95.2248
11
123.76
21
-95.5942
0
LINE
8
BLACK
6
CONTINUOUS
10
123.76
20
-95.5942
11
123.76
21
-96.0326
0
LINE
8
BLACK
6
CONTINUOUS
10
123.76
20
-96.0326
11
121.76
21
-96.0326
0
LINE
8
BLACK
6
CONTINUOUS
10
121.76
20
-96.0326
11
121.76
21
-95.4326
0
LINE
8
BLACK
6
CONTINUOUS
10
121.76
20
-95.4326
11
123.599
21
-95.4326
0
LINE
8
BLACK
6
CONTINUOUS
10
123.599
20
-95.4326
11
123.938
21
-95.0932
0
LINE
8
BLACK
6
CONTINUOUS
10
123.938
20
-95.0932
11
123.938
21
-90.1663
0
LINE
8
BLACK
6
CONTINUOUS
10
123.938
20
-90.1663
11
123.861
21
-90.089
0
LINE
8
BLACK
6
CONTINUOUS
10
123.861
20
-90.089
11
121.769
21
-90.089
0
LINE
8
BLACK
6
CONTINUOUS
10
121.769
20
-90.089
11
121.019
21
-90.8394
0
LINE
8
BLACK
6
CONTINUOUS
10
121.019
20
-90.8394
11
121.009
21
-90.851
0
LINE
8
BLACK
6
CONTINUOUS
10
121.009
20
-90.851
11
120.996
21
-90.8586
0
LINE
8
BLACK
6
CONTINUOUS
10
120.996
20
-90.8586
11
120.983
21
-90.8673
0
LINE
8
BLACK
6
CONTINUOUS
10
120.983
20
-90.8673
11
120.978
21
-90.8686
0
LINE
8
BLACK
6
CONTINUOUS
10
120.978
20
-90.8686
11
120.974
21
-90.8712
0
LINE
8
BLACK
6
CONTINUOUS
10
120.974
20
-90.8712
11
120.959
21
-90.8738
0
LINE
8
BLACK
6
CONTINUOUS
10
120.959
20
-90.8738
11
120.944
21
-90.8777
0
LINE
8
BLACK
6
CONTINUOUS
10
120.944
20
-90.8777
11
120.929
21
-90.8764
0
LINE
8
BLACK
6
CONTINUOUS
10
120.929
20
-90.8764
11
120.371
21
-90.8764
0
LINE
8
BLACK
6
CONTINUOUS
10
120.371
20
-90.8764
11
120.356
21
-90.8777
0
LINE
8
BLACK
6
CONTINUOUS
10
120.356
20
-90.8777
11
120.341
21
-90.8738
0
LINE
8
BLACK
6
CONTINUOUS
10
120.341
20
-90.8738
11
120.326
21
-90.8712
0
LINE
8
BLACK
6
CONTINUOUS
10
120.326
20
-90.8712
11
120.322
21
-90.8686
0
LINE
8
BLACK
6
CONTINUOUS
10
120.322
20
-90.8686
11
120.317
21
-90.8673
0
LINE
8
BLACK
6
CONTINUOUS
10
120.317
20
-90.8673
11
120.304
21
-90.8586
0
LINE
8
BLACK
6
CONTINUOUS
10
120.304
20
-90.8586
11
120.291
21
-90.851
0
LINE
8
BLACK
6
CONTINUOUS
10
120.291
20
-90.851
11
120.281
21
-90.8394
0
LINE
8
BLACK
6
CONTINUOUS
10
120.281
20
-90.8394
11
119.981
21
-90.5386
0
LINE
8
BLACK
6
CONTINUOUS
10
119.981
20
-90.5386
11
119.969
21
-90.5288
0
LINE
8
BLACK
6
CONTINUOUS
10
119.969
20
-90.5288
11
119.961
21
-90.5157
0
LINE
8
BLACK
6
CONTINUOUS
10
119.961
20
-90.5157
11
119.953
21
-90.5033
0
LINE
8
BLACK
6
CONTINUOUS
10
119.953
20
-90.5033
11
119.951
21
-90.4983
0
LINE
8
BLACK
6
CONTINUOUS
10
119.951
20
-90.4983
11
119.949
21
-90.4939
0
LINE
8
BLACK
6
CONTINUOUS
10
119.949
20
-90.4939
11
119.946
21
-90.479
0
LINE
8
BLACK
6
CONTINUOUS
10
119.946
20
-90.479
11
119.942
21
-90.4643
0
LINE
8
BLACK
6
CONTINUOUS
10
119.942
20
-90.4643
11
119.944
21
-90.4492
0
LINE
8
BLACK
6
CONTINUOUS
10
119.944
20
-90.4492
11
119.944
21
-88.2271
0
LINE
8
BLACK
6
CONTINUOUS
10
119.944
20
-88.2271
11
119.942
21
-88.212
0
LINE
8
BLACK
6
CONTINUOUS
10
119.942
20
-88.212
11
119.946
21
-88.1973
0
LINE
8
BLACK
6
CONTINUOUS
10
119.946
20
-88.1973
11
119.949
21
-88.1824
0
LINE
8
BLACK
6
CONTINUOUS
10
119.949
20
-88.1824
11
119.951
21
-88.178
0
LINE
8
BLACK
6
CONTINUOUS
10
119.951
20
-88.178
11
119.953
21
-88.1731
0
LINE
8
BLACK
6
CONTINUOUS
10
119.953
20
-88.1731
11
119.961
21
-88.1606
0
LINE
8
BLACK
6
CONTINUOUS
10
119.961
20
-88.1606
11
119.969
21
-88.1475
0
LINE
8
BLACK
6
CONTINUOUS
10
119.969
20
-88.1475
11
119.981
21
-88.1378
0
LINE
8
BLACK
6
CONTINUOUS
10
119.981
20
-88.1378
11
120.276
21
-87.8421
0
LINE
8
BLACK
6
CONTINUOUS
10
120.276
20
-87.8421
11
120.276
21
-87.8421
0
LINE
8
BLACK
6
CONTINUOUS
10
120.276
20
-87.8421
11
120.373
21
-87.7456
0
LINE
8
BLACK
6
CONTINUOUS
10
120.373
20
-87.7456
11
120.35
21
-87.6829
0
LINE
8
BLACK
6
CONTINUOUS
10
120.35
20
-87.6829
11
120.35
21
-87.5771
0
LINE
8
BLACK
6
CONTINUOUS
10
120.35
20
-87.5771
11
120.386
21
-87.4777
0
LINE
8
BLACK
6
CONTINUOUS
10
120.386
20
-87.4777
11
120.454
21
-87.3966
0
LINE
8
BLACK
6
CONTINUOUS
10
120.454
20
-87.3966
11
120.546
21
-87.3437
0
LINE
8
BLACK
6
CONTINUOUS
10
120.546
20
-87.3437
11
120.65
21
-87.3254
0
LINE
8
BLACK
6
CONTINUOUS
10
120.65
20
-87.3254
11
120.754
21
-87.3437
0
LINE
8
BLACK
6
CONTINUOUS
10
114.36
20
-94.7626
11
112.36
21
-94.7626
0
LINE
8
BLACK
6
CONTINUOUS
10
112.36
20
-94.7626
11
112.36
21
-94.1626
0
LINE
8
BLACK
6
CONTINUOUS
10
112.36
20
-94.1626
11
114.36
21
-94.1626
0
LINE
8
BLACK
6
CONTINUOUS
10
114.36
20
-94.1626
11
114.36
21
-94.7626
0
LINE
8
BLACK
6
CONTINUOUS
10
123.76
20
-94.7626
11
121.76
21
-94.7626
0
LINE
8
BLACK
6
CONTINUOUS
10
121.76
20
-94.7626
11
121.76
21
-94.1626
0
LINE
8
BLACK
6
CONTINUOUS
10
121.76
20
-94.1626
11
123.76
21
-94.1626
0
LINE
8
BLACK
6
CONTINUOUS
10
123.76
20
-94.1626
11
123.76
21
-94.7626
0
LINE
8
BLACK
6
CONTINUOUS
10
123.76
20
-93.4926
11
121.76
21
-93.4926
0
LINE
8
BLACK
6
CONTINUOUS
10
121.76
20
-93.4926
11
121.76
21
-92.8926
0
LINE
8
BLACK
6
CONTINUOUS
10
121.76
20
-92.8926
11
123.76
21
-92.8926
0
LINE
8
BLACK
6
CONTINUOUS
10
123.76
20
-92.8926
11
123.76
21
-93.4926
0
LINE
8
BLACK
6
CONTINUOUS
10
115.164
20
-92.0937
11
115.256
21
-92.1466
0
LINE
8
BLACK
6
CONTINUOUS
10
115.256
20
-92.1466
11
115.324
21
-92.2277
0
LINE
8
BLACK
6
CONTINUOUS
10
115.324
20
-92.2277
11
115.36
21
-92.3271
0
LINE
8
BLACK
6
CONTINUOUS
10
115.36
20
-92.3271
11
115.36
21
-92.4329
0
LINE
8
BLACK
6
CONTINUOUS
10
115.36
20
-92.4329
11
115.324
21
-92.5323
0
LINE
8
BLACK
6
CONTINUOUS
10
115.324
20
-92.5323
11
115.256
21
-92.6134
0
LINE
8
BLACK
6
CONTINUOUS
10
115.256
20
-92.6134
11
115.164
21
-92.6663
0
LINE
8
BLACK
6
CONTINUOUS
10
115.164
20
-92.6663
11
115.06
21
-92.6846
0
LINE
8
BLACK
6
CONTINUOUS
10
115.06
20
-92.6846
11
114.956
21
-92.6663
0
LINE
8
BLACK
6
CONTINUOUS
10
114.956
20
-92.6663
11
114.943
21
-92.6588
0
LINE
8
BLACK
6
CONTINUOUS
10
114.943
20
-92.6588
11
114.36
21
-93.2414
0
LINE
8
BLACK
6
CONTINUOUS
10
114.36
20
-93.2414
11
114.36
21
-93.4926
0
LINE
8
BLACK
6
CONTINUOUS
10
114.36
20
-93.4926
11
112.36
21
-93.4926
0
LINE
8
BLACK
6
CONTINUOUS
10
112.36
20
-93.4926
11
112.36
21
-92.8926
0
LINE
8
BLACK
6
CONTINUOUS
10
112.36
20
-92.8926
11
114.36
21
-92.8926
0
LINE
8
BLACK
6
CONTINUOUS
10
114.36
20
-92.8926
11
114.36
21
-92.9182
0
LINE
8
BLACK
6
CONTINUOUS
10
114.36
20
-92.9182
11
114.783
21
-92.4956
0
LINE
8
BLACK
6
CONTINUOUS
10
114.783
20
-92.4956
11
114.76
21
-92.4329
0
LINE
8
BLACK
6
CONTINUOUS
10
114.76
20
-92.4329
11
114.76
21
-92.3271
0
LINE
8
BLACK
6
CONTINUOUS
10
114.76
20
-92.3271
11
114.796
21
-92.2277
0
LINE
8
BLACK
6
CONTINUOUS
10
114.796
20
-92.2277
11
114.864
21
-92.1466
0
LINE
8
BLACK
6
CONTINUOUS
10
114.864
20
-92.1466
11
114.956
21
-92.0937
0
LINE
8
BLACK
6
CONTINUOUS
10
114.956
20
-92.0937
11
115.06
21
-92.0754
0
LINE
8
BLACK
6
CONTINUOUS
10
115.06
20
-92.0754
11
115.164
21
-92.0937
0
LINE
8
BLACK
6
CONTINUOUS
10
165.6
20
-92.695
11
164.6
21
-92.695
0
LINE
8
BLACK
6
CONTINUOUS
10
164.6
20
-92.695
11
164.6
21
-90.185
0
LINE
8
BLACK
6
CONTINUOUS
10
164.6
20
-90.185
11
165.6
21
-90.185
0
LINE
8
BLACK
6
CONTINUOUS
10
165.6
20
-90.185
11
165.6
21
-92.695
0
LINE
8
BLACK
6
CONTINUOUS
10
160.52
20
-92.695
11
159.52
21
-92.695
0
LINE
8
BLACK
6
CONTINUOUS
10
159.52
20
-92.695
11
159.52
21
-90.185
0
LINE
8
BLACK
6
CONTINUOUS
10
159.52
20
-90.185
11
160.52
21
-90.185
0
LINE
8
BLACK
6
CONTINUOUS
10
160.52
20
-90.185
11
160.52
21
-92.695
0
LINE
8
BLACK
6
CONTINUOUS
10
155.44
20
-92.695
11
154.44
21
-92.695
0
LINE
8
BLACK
6
CONTINUOUS
10
154.44
20
-92.695
11
154.44
21
-90.185
0
LINE
8
BLACK
6
CONTINUOUS
10
154.44
20
-90.185
11
155.44
21
-90.185
0
LINE
8
BLACK
6
CONTINUOUS
10
155.44
20
-90.185
11
155.44
21
-92.695
0
LINE
8
BLACK
6
CONTINUOUS
10
145.28
20
-92.695
11
144.28
21
-92.695
0
LINE
8
BLACK
6
CONTINUOUS
10
144.28
20
-92.695
11
144.28
21
-91.5162
0
LINE
8
BLACK
6
CONTINUOUS
10
144.28
20
-91.5162
11
142.804
21
-91.5162
0
LINE
8
BLACK
6
CONTINUOUS
10
142.804
20
-91.5162
11
142.756
21
-91.5734
0
LINE
8
BLACK
6
CONTINUOUS
10
142.756
20
-91.5734
11
142.664
21
-91.6263
0
LINE
8
BLACK
6
CONTINUOUS
10
142.664
20
-91.6263
11
142.56
21
-91.6446
0
LINE
8
BLACK
6
CONTINUOUS
10
142.56
20
-91.6446
11
142.456
21
-91.6263
0
LINE
8
BLACK
6
CONTINUOUS
10
142.456
20
-91.6263
11
142.364
21
-91.5734
0
LINE
8
BLACK
6
CONTINUOUS
10
142.364
20
-91.5734
11
142.296
21
-91.4923
0
LINE
8
BLACK
6
CONTINUOUS
10
142.296
20
-91.4923
11
142.26
21
-91.3929
0
LINE
8
BLACK
6
CONTINUOUS
10
142.26
20
-91.3929
11
142.26
21
-91.2871
0
LINE
8
BLACK
6
CONTINUOUS
10
142.26
20
-91.2871
11
142.296
21
-91.1877
0
LINE
8
BLACK
6
CONTINUOUS
10
142.296
20
-91.1877
11
142.364
21
-91.1066
0
LINE
8
BLACK
6
CONTINUOUS
10
142.364
20
-91.1066
11
142.456
21
-91.0537
0
LINE
8
BLACK
6
CONTINUOUS
10
142.456
20
-91.0537
11
142.56
21
-91.0354
0
LINE
8
BLACK
6
CONTINUOUS
10
142.56
20
-91.0354
11
142.664
21
-91.0537
0
LINE
8
BLACK
6
CONTINUOUS
10
142.664
20
-91.0537
11
142.756
21
-91.1066
0
LINE
8
BLACK
6
CONTINUOUS
10
142.756
20
-91.1066
11
142.824
21
-91.1877
0
LINE
8
BLACK
6
CONTINUOUS
10
142.824
20
-91.1877
11
142.86
21
-91.2871
0
LINE
8
BLACK
6
CONTINUOUS
10
142.86
20
-91.2871
11
142.86
21
-91.3638
0
LINE
8
BLACK
6
CONTINUOUS
10
142.86
20
-91.3638
11
144.28
21
-91.3638
0
LINE
8
BLACK
6
CONTINUOUS
10
144.28
20
-91.3638
11
144.28
21
-90.185
0
LINE
8
BLACK
6
CONTINUOUS
10
144.28
20
-90.185
11
145.28
21
-90.185
0
LINE
8
BLACK
6
CONTINUOUS
10
145.28
20
-90.185
11
145.28
21
-92.695
0
LINE
8
BLACK
6
CONTINUOUS
10
140.2
20
-92.695
11
139.2
21
-92.695
0
LINE
8
BLACK
6
CONTINUOUS
10
139.2
20
-92.695
11
139.2
21
-90.185
0
LINE
8
BLACK
6
CONTINUOUS
10
139.2
20
-90.185
11
140.2
21
-90.185
0
LINE
8
BLACK
6
CONTINUOUS
10
140.2
20
-90.185
11
140.2
21
-92.695
0
LINE
8
BLACK
6
CONTINUOUS
10
134.941
20
-78.2007
11
135.2
21
-78.3506
0
LINE
8
BLACK
6
CONTINUOUS
10
135.2
20
-78.3506
11
135.393
21
-78.5802
0
LINE
8
BLACK
6
CONTINUOUS
10
135.393
20
-78.5802
11
135.495
21
-78.8619
0
LINE
8
BLACK
6
CONTINUOUS
10
135.495
20
-78.8619
11
135.495
21
-79.1617
0
LINE
8
BLACK
6
CONTINUOUS
10
135.495
20
-79.1617
11
135.393
21
-79.4433
0
LINE
8
BLACK
6
CONTINUOUS
10
135.393
20
-79.4433
11
135.298
21
-79.5565
0
LINE
8
BLACK
6
CONTINUOUS
10
135.298
20
-79.5565
11
135.547
21
-79.8055
0
LINE
8
BLACK
6
CONTINUOUS
10
135.547
20
-79.8055
11
135.555
21
-79.812
0
LINE
8
BLACK
6
CONTINUOUS
10
135.555
20
-79.812
11
135.56
21
-79.8208
0
LINE
8
BLACK
6
CONTINUOUS
10
135.56
20
-79.8208
11
135.566
21
-79.8291
0
LINE
8
BLACK
6
CONTINUOUS
10
135.566
20
-79.8291
11
135.566
21
-79.8324
0
LINE
8
BLACK
6
CONTINUOUS
10
135.566
20
-79.8324
11
135.568
21
-79.8353
0
LINE
8
BLACK
6
CONTINUOUS
10
135.568
20
-79.8353
11
135.57
21
-79.8453
0
LINE
8
BLACK
6
CONTINUOUS
10
135.57
20
-79.8453
11
135.572
21
-79.855
0
LINE
8
BLACK
6
CONTINUOUS
10
135.572
20
-79.855
11
135.572
21
-79.8651
0
LINE
8
BLACK
6
CONTINUOUS
10
135.572
20
-79.8651
11
135.572
21
-91.2137
0
LINE
8
BLACK
6
CONTINUOUS
10
135.572
20
-91.2137
11
135.572
21
-91.2237
0
LINE
8
BLACK
6
CONTINUOUS
10
135.572
20
-91.2237
11
135.57
21
-91.2335
0
LINE
8
BLACK
6
CONTINUOUS
10
135.57
20
-91.2335
11
135.568
21
-91.2435
0
LINE
8
BLACK
6
CONTINUOUS
10
135.568
20
-91.2435
11
135.566
21
-91.2464
0
LINE
8
BLACK
6
CONTINUOUS
10
135.566
20
-91.2464
11
135.566
21
-91.2497
0
LINE
8
BLACK
6
CONTINUOUS
10
135.566
20
-91.2497
11
135.56
21
-91.258
0
LINE
8
BLACK
6
CONTINUOUS
10
135.56
20
-91.258
11
135.555
21
-91.2667
0
LINE
8
BLACK
6
CONTINUOUS
10
135.555
20
-91.2667
11
135.547
21
-91.2732
0
LINE
8
BLACK
6
CONTINUOUS
10
135.547
20
-91.2732
11
135.329
21
-91.4915
0
LINE
8
BLACK
6
CONTINUOUS
10
135.329
20
-91.4915
11
135.322
21
-91.4993
0
LINE
8
BLACK
6
CONTINUOUS
10
135.322
20
-91.4993
11
135.313
21
-91.5043
0
LINE
8
BLACK
6
CONTINUOUS
10
135.313
20
-91.5043
11
135.305
21
-91.5101
0
LINE
8
BLACK
6
CONTINUOUS
10
135.305
20
-91.5101
11
135.302
21
-91.511
0
LINE
8
BLACK
6
CONTINUOUS
10
135.302
20
-91.511
11
135.299
21
-91.5127
0
LINE
8
BLACK
6
CONTINUOUS
10
135.299
20
-91.5127
11
135.289
21
-91.5145
0
LINE
8
BLACK
6
CONTINUOUS
10
135.289
20
-91.5145
11
135.279
21
-91.5171
0
LINE
8
BLACK
6
CONTINUOUS
10
135.279
20
-91.5171
11
135.269
21
-91.5162
0
LINE
8
BLACK
6
CONTINUOUS
10
135.269
20
-91.5162
11
135.12
21
-91.5162
0
LINE
8
BLACK
6
CONTINUOUS
10
135.12
20
-91.5162
11
135.12
21
-92.695
0
LINE
8
BLACK
6
CONTINUOUS
10
135.12
20
-92.695
11
134.12
21
-92.695
0
LINE
8
BLACK
6
CONTINUOUS
10
134.12
20
-92.695
11
134.12
21
-90.185
0
LINE
8
BLACK
6
CONTINUOUS
10
134.12
20
-90.185
11
135.12
21
-90.185
0
LINE
8
BLACK
6
CONTINUOUS
10
135.12
20
-90.185
11
135.12
21
-91.3638
0
LINE
8
BLACK
6
CONTINUOUS
10
135.12
20
-91.3638
11
135.241
21
-91.3638
0
LINE
8
BLACK
6
CONTINUOUS
10
135.241
20
-91.3638
11
135.419
21
-91.1854
0
LINE
8
BLACK
6
CONTINUOUS
10
135.419
20
-91.1854
11
135.419
21
-79.8933
0
LINE
8
BLACK
6
CONTINUOUS
10
135.419
20
-79.8933
11
135.199
21
-79.6735
0
LINE
8
BLACK
6
CONTINUOUS
10
135.199
20
-79.6735
11
134.941
21
-79.8228
0
LINE
8
BLACK
6
CONTINUOUS
10
134.941
20
-79.8228
11
134.72
21
-79.8618
0
LINE
8
BLACK
6
CONTINUOUS
10
134.72
20
-79.8618
11
134.571
21
-79.8618
0
LINE
8
BLACK
6
CONTINUOUS
10
134.571
20
-79.8618
11
134.35
21
-79.8228
0
LINE
8
BLACK
6
CONTINUOUS
10
134.35
20
-79.8228
11
134.091
21
-79.673
0
LINE
8
BLACK
6
CONTINUOUS
10
134.091
20
-79.673
11
133.898
21
-79.4433
0
LINE
8
BLACK
6
CONTINUOUS
10
133.898
20
-79.4433
11
133.795
21
-79.1617
0
LINE
8
BLACK
6
CONTINUOUS
10
133.795
20
-79.1617
11
133.795
21
-78.8619
0
LINE
8
BLACK
6
CONTINUOUS
10
133.795
20
-78.8619
11
133.898
21
-78.5802
0
LINE
8
BLACK
6
CONTINUOUS
10
133.898
20
-78.5802
11
134.091
21
-78.3506
0
LINE
8
BLACK
6
CONTINUOUS
10
134.091
20
-78.3506
11
134.35
21
-78.2007
0
LINE
8
BLACK
6
CONTINUOUS
10
134.35
20
-78.2007
11
134.571
21
-78.1618
0
LINE
8
BLACK
6
CONTINUOUS
10
134.571
20
-78.1618
11
134.72
21
-78.1618
0
LINE
8
BLACK
6
CONTINUOUS
10
134.72
20
-78.1618
11
134.941
21
-78.2007
0
LINE
8
BLACK
6
CONTINUOUS
10
114.36
20
-92.2226
11
112.36
21
-92.2226
0
LINE
8
BLACK
6
CONTINUOUS
10
112.36
20
-92.2226
11
112.36
21
-91.6226
0
LINE
8
BLACK
6
CONTINUOUS
10
112.36
20
-91.6226
11
114.36
21
-91.6226
0
LINE
8
BLACK
6
CONTINUOUS
10
114.36
20
-91.6226
11
114.36
21
-92.2226
0
LINE
8
BLACK
6
CONTINUOUS
10
123.76
20
-92.2226
11
121.76
21
-92.2226
0
LINE
8
BLACK
6
CONTINUOUS
10
121.76
20
-92.2226
11
121.76
21
-91.6226
0
LINE
8
BLACK
6
CONTINUOUS
10
121.76
20
-91.6226
11
123.76
21
-91.6226
0
LINE
8
BLACK
6
CONTINUOUS
10
123.76
20
-91.6226
11
123.76
21
-92.2226
0
LINE
8
BLACK
6
CONTINUOUS
10
111.09
20
-90.0557
11
112.873
21
-90.0557
0
LINE
8
BLACK
6
CONTINUOUS
10
112.873
20
-90.0557
11
112.888
21
-90.0544
0
LINE
8
BLACK
6
CONTINUOUS
10
112.888
20
-90.0544
11
112.902
21
-90.0583
0
LINE
8
BLACK
6
CONTINUOUS
10
112.902
20
-90.0583
11
112.917
21
-90.0609
0
LINE
8
BLACK
6
CONTINUOUS
10
112.917
20
-90.0609
11
112.922
21
-90.0635
0
LINE
8
BLACK
6
CONTINUOUS
10
112.922
20
-90.0635
11
112.927
21
-90.0648
0
LINE
8
BLACK
6
CONTINUOUS
10
112.927
20
-90.0648
11
112.939
21
-90.0735
0
LINE
8
BLACK
6
CONTINUOUS
10
112.939
20
-90.0735
11
112.952
21
-90.0811
0
LINE
8
BLACK
6
CONTINUOUS
10
112.952
20
-90.0811
11
112.962
21
-90.0927
0
LINE
8
BLACK
6
CONTINUOUS
10
112.962
20
-90.0927
11
113.222
21
-90.3526
0
LINE
8
BLACK
6
CONTINUOUS
10
113.222
20
-90.3526
11
114.36
21
-90.3526
0
LINE
8
BLACK
6
CONTINUOUS
10
114.36
20
-90.3526
11
114.36
21
-90.9526
0
LINE
8
BLACK
6
CONTINUOUS
10
114.36
20
-90.9526
11
112.36
21
-90.9526
0
LINE
8
BLACK
6
CONTINUOUS
10
112.36
20
-90.9526
11
112.36
21
-90.3526
0
LINE
8
BLACK
6
CONTINUOUS
10
112.36
20
-90.3526
11
112.899
21
-90.3526
0
LINE
8
BLACK
6
CONTINUOUS
10
112.899
20
-90.3526
11
112.83
21
-90.2843
0
LINE
8
BLACK
6
CONTINUOUS
10
112.83
20
-90.2843
11
111.09
21
-90.2843
0
LINE
8
BLACK
6
CONTINUOUS
10
111.09
20
-90.2843
11
111.09
21
-90.62
0
LINE
8
BLACK
6
CONTINUOUS
10
111.09
20
-90.62
11
109.89
21
-90.62
0
LINE
8
BLACK
6
CONTINUOUS
10
109.89
20
-90.62
11
109.89
21
-89.72
0
LINE
8
BLACK
6
CONTINUOUS
10
109.89
20
-89.72
11
111.09
21
-89.72
0
LINE
8
BLACK
6
CONTINUOUS
10
111.09
20
-89.72
11
111.09
21
-90.0557
0
LINE
8
BLACK
6
CONTINUOUS
10
112.36
20
-89.0826
11
114.36
21
-89.0826
0
LINE
8
BLACK
6
CONTINUOUS
10
114.36
20
-89.0826
11
114.36
21
-89.6826
0
LINE
8
BLACK
6
CONTINUOUS
10
114.36
20
-89.6826
11
112.36
21
-89.6826
0
LINE
8
BLACK
6
CONTINUOUS
10
112.36
20
-89.6826
11
112.36
21
-89.4969
0
LINE
8
BLACK
6
CONTINUOUS
10
112.36
20
-89.4969
11
111.324
21
-89.4969
0
LINE
8
BLACK
6
CONTINUOUS
10
111.324
20
-89.4969
11
111.309
21
-89.4982
0
LINE
8
BLACK
6
CONTINUOUS
10
111.309
20
-89.4982
11
111.304
21
-89.4969
0
LINE
8
BLACK
6
CONTINUOUS
10
111.304
20
-89.4969
11
109.275
21
-89.4969
0
LINE
8
BLACK
6
CONTINUOUS
10
109.275
20
-89.4969
11
108.89
21
-89.8816
0
LINE
8
BLACK
6
CONTINUOUS
10
108.89
20
-89.8816
11
108.89
21
-90.62
0
LINE
8
BLACK
6
CONTINUOUS
10
108.89
20
-90.62
11
107.69
21
-90.62
0
LINE
8
BLACK
6
CONTINUOUS
10
107.69
20
-90.62
11
107.69
21
-89.72
0
LINE
8
BLACK
6
CONTINUOUS
10
107.69
20
-89.72
11
108.728
21
-89.72
0
LINE
8
BLACK
6
CONTINUOUS
10
108.728
20
-89.72
11
109.143
21
-89.3053
0
LINE
8
BLACK
6
CONTINUOUS
10
109.143
20
-89.3053
11
109.153
21
-89.2937
0
LINE
8
BLACK
6
CONTINUOUS
10
109.153
20
-89.2937
11
109.166
21
-89.2861
0
LINE
8
BLACK
6
CONTINUOUS
10
109.166
20
-89.2861
11
109.178
21
-89.2774
0
LINE
8
BLACK
6
CONTINUOUS
10
109.178
20
-89.2774
11
109.183
21
-89.2761
0
LINE
8
BLACK
6
CONTINUOUS
10
109.183
20
-89.2761
11
109.188
21
-89.2735
0
LINE
8
BLACK
6
CONTINUOUS
10
109.188
20
-89.2735
11
109.203
21
-89.2709
0
LINE
8
BLACK
6
CONTINUOUS
10
109.203
20
-89.2709
11
109.217
21
-89.267
0
LINE
8
BLACK
6
CONTINUOUS
10
109.217
20
-89.267
11
109.232
21
-89.2683
0
LINE
8
BLACK
6
CONTINUOUS
10
109.232
20
-89.2683
11
111.043
21
-89.2683
0
LINE
8
BLACK
6
CONTINUOUS
10
111.043
20
-89.2683
11
110.093
21
-88.318
0
LINE
8
BLACK
6
CONTINUOUS
10
110.093
20
-88.318
11
110.081
21
-88.3082
0
LINE
8
BLACK
6
CONTINUOUS
10
110.081
20
-88.3082
11
110.074
21
-88.2951
0
LINE
8
BLACK
6
CONTINUOUS
10
110.074
20
-88.2951
11
110.065
21
-88.2826
0
LINE
8
BLACK
6
CONTINUOUS
10
110.065
20
-88.2826
11
110.063
21
-88.2777
0
LINE
8
BLACK
6
CONTINUOUS
10
110.063
20
-88.2777
11
110.061
21
-88.2733
0
LINE
8
BLACK
6
CONTINUOUS
10
110.061
20
-88.2733
11
110.058
21
-88.2584
0
LINE
8
BLACK
6
CONTINUOUS
10
110.058
20
-88.2584
11
110.054
21
-88.2437
0
LINE
8
BLACK
6
CONTINUOUS
10
110.054
20
-88.2437
11
110.056
21
-88.2286
0
LINE
8
BLACK
6
CONTINUOUS
10
110.056
20
-88.2286
11
110.056
21
-88.005
0
LINE
8
BLACK
6
CONTINUOUS
10
110.056
20
-88.005
11
109.57
21
-88.005
0
LINE
8
BLACK
6
CONTINUOUS
10
109.57
20
-88.005
11
109.57
21
-87.255
0
LINE
8
BLACK
6
CONTINUOUS
10
109.57
20
-87.255
11
110.056
21
-87.255
0
LINE
8
BLACK
6
CONTINUOUS
10
110.056
20
-87.255
11
110.056
21
-85.465
0
LINE
8
BLACK
6
CONTINUOUS
10
110.056
20
-85.465
11
109.57
21
-85.465
0
LINE
8
BLACK
6
CONTINUOUS
10
109.57
20
-85.465
11
109.57
21
-84.715
0
LINE
8
BLACK
6
CONTINUOUS
10
109.57
20
-84.715
11
110.056
21
-84.715
0
LINE
8
BLACK
6
CONTINUOUS
10
110.056
20
-84.715
11
110.056
21
-84.145
0
LINE
8
BLACK
6
CONTINUOUS
10
110.056
20
-84.145
11
110.054
21
-84.1299
0
LINE
8
BLACK
6
CONTINUOUS
10
110.054
20
-84.1299
11
110.058
21
-84.1152
0
LINE
8
BLACK
6
CONTINUOUS
10
110.058
20
-84.1152
11
110.061
21
-84.1003
0
LINE
8
BLACK
6
CONTINUOUS
10
110.061
20
-84.1003
11
110.063
21
-84.0959
0
LINE
8
BLACK
6
CONTINUOUS
10
110.063
20
-84.0959
11
110.065
21
-84.0909
0
LINE
8
BLACK
6
CONTINUOUS
10
110.065
20
-84.0909
11
110.074
21
-84.0785
0
LINE
8
BLACK
6
CONTINUOUS
10
110.074
20
-84.0785
11
110.081
21
-84.0654
0
LINE
8
BLACK
6
CONTINUOUS
10
110.081
20
-84.0654
11
110.093
21
-84.0556
0
LINE
8
BLACK
6
CONTINUOUS
10
110.093
20
-84.0556
11
110.213
21
-83.9356
0
LINE
8
BLACK
6
CONTINUOUS
10
110.213
20
-83.9356
11
110.19
21
-83.8729
0
LINE
8
BLACK
6
CONTINUOUS
10
110.19
20
-83.8729
11
110.19
21
-83.7671
0
LINE
8
BLACK
6
CONTINUOUS
10
110.19
20
-83.7671
11
110.226
21
-83.6677
0
LINE
8
BLACK
6
CONTINUOUS
10
110.226
20
-83.6677
11
110.294
21
-83.5866
0
LINE
8
BLACK
6
CONTINUOUS
10
110.294
20
-83.5866
11
110.386
21
-83.5337
0
LINE
8
BLACK
6
CONTINUOUS
10
110.386
20
-83.5337
11
110.49
21
-83.5154
0
LINE
8
BLACK
6
CONTINUOUS
10
110.49
20
-83.5154
11
110.594
21
-83.5337
0
LINE
8
BLACK
6
CONTINUOUS
10
110.594
20
-83.5337
11
110.686
21
-83.5866
0
LINE
8
BLACK
6
CONTINUOUS
10
110.686
20
-83.5866
11
110.754
21
-83.6677
0
LINE
8
BLACK
6
CONTINUOUS
10
110.754
20
-83.6677
11
110.79
21
-83.7671
0
LINE
8
BLACK
6
CONTINUOUS
10
110.79
20
-83.7671
11
110.79
21
-83.8729
0
LINE
8
BLACK
6
CONTINUOUS
10
110.79
20
-83.8729
11
110.754
21
-83.9723
0
LINE
8
BLACK
6
CONTINUOUS
10
110.754
20
-83.9723
11
110.686
21
-84.0534
0
LINE
8
BLACK
6
CONTINUOUS
10
110.686
20
-84.0534
11
110.594
21
-84.1063
0
LINE
8
BLACK
6
CONTINUOUS
10
110.594
20
-84.1063
11
110.49
21
-84.1246
0
LINE
8
BLACK
6
CONTINUOUS
10
110.49
20
-84.1246
11
110.386
21
-84.1063
0
LINE
8
BLACK
6
CONTINUOUS
10
110.386
20
-84.1063
11
110.373
21
-84.0988
0
LINE
8
BLACK
6
CONTINUOUS
10
110.373
20
-84.0988
11
110.284
21
-84.1873
0
LINE
8
BLACK
6
CONTINUOUS
10
110.284
20
-84.1873
11
110.284
21
-84.715
0
LINE
8
BLACK
6
CONTINUOUS
10
110.284
20
-84.715
11
110.77
21
-84.715
0
LINE
8
BLACK
6
CONTINUOUS
10
110.77
20
-84.715
11
110.77
21
-85.465
0
LINE
8
BLACK
6
CONTINUOUS
10
110.77
20
-85.465
11
110.284
21
-85.465
0
LINE
8
BLACK
6
CONTINUOUS
10
110.284
20
-85.465
11
110.284
21
-87.255
0
LINE
8
BLACK
6
CONTINUOUS
10
110.284
20
-87.255
11
110.77
21
-87.255
0
LINE
8
BLACK
6
CONTINUOUS
10
110.77
20
-87.255
11
110.77
21
-88.005
0
LINE
8
BLACK
6
CONTINUOUS
10
110.77
20
-88.005
11
110.284
21
-88.005
0
LINE
8
BLACK
6
CONTINUOUS
10
110.284
20
-88.005
11
110.284
21
-88.1863
0
LINE
8
BLACK
6
CONTINUOUS
10
110.284
20
-88.1863
11
111.366
21
-89.2683
0
LINE
8
BLACK
6
CONTINUOUS
10
111.366
20
-89.2683
11
112.36
21
-89.2683
0
LINE
8
BLACK
6
CONTINUOUS
10
112.36
20
-89.2683
11
112.36
21
-89.0826
0
LINE
8
BLACK
6
CONTINUOUS
10
123.76
20
-89.6826
11
121.76
21
-89.6826
0
LINE
8
BLACK
6
CONTINUOUS
10
121.76
20
-89.6826
11
121.76
21
-89.4969
0
LINE
8
BLACK
6
CONTINUOUS
10
121.76
20
-89.4969
11
121.485
21
-89.4969
0
LINE
8
BLACK
6
CONTINUOUS
10
121.485
20
-89.4969
11
120.927
21
-90.0544
0
LINE
8
BLACK
6
CONTINUOUS
10
120.927
20
-90.0544
11
120.95
21
-90.1171
0
LINE
8
BLACK
6
CONTINUOUS
10
120.95
20
-90.1171
11
120.95
21
-90.2229
0
LINE
8
BLACK
6
CONTINUOUS
10
120.95
20
-90.2229
11
120.914
21
-90.3223
0
LINE
8
BLACK
6
CONTINUOUS
10
120.914
20
-90.3223
11
120.846
21
-90.4034
0
LINE
8
BLACK
6
CONTINUOUS
10
120.846
20
-90.4034
11
120.754
21
-90.4563
0
LINE
8
BLACK
6
CONTINUOUS
10
120.754
20
-90.4563
11
120.65
21
-90.4746
0
LINE
8
BLACK
6
CONTINUOUS
10
120.65
20
-90.4746
11
120.546
21
-90.4563
0
LINE
8
BLACK
6
CONTINUOUS
10
120.546
20
-90.4563
11
120.454
21
-90.4034
0
LINE
8
BLACK
6
CONTINUOUS
10
120.454
20
-90.4034
11
120.386
21
-90.3223
0
LINE
8
BLACK
6
CONTINUOUS
10
120.386
20
-90.3223
11
120.35
21
-90.2229
0
LINE
8
BLACK
6
CONTINUOUS
10
120.35
20
-90.2229
11
120.35
21
-90.1171
0
LINE
8
BLACK
6
CONTINUOUS
10
120.35
20
-90.1171
11
120.386
21
-90.0177
0
LINE
8
BLACK
6
CONTINUOUS
10
120.386
20
-90.0177
11
120.454
21
-89.9366
0
LINE
8
BLACK
6
CONTINUOUS
10
120.454
20
-89.9366
11
120.546
21
-89.8837
0
LINE
8
BLACK
6
CONTINUOUS
10
120.546
20
-89.8837
11
120.65
21
-89.8654
0
LINE
8
BLACK
6
CONTINUOUS
10
120.65
20
-89.8654
11
120.754
21
-89.8837
0
LINE
8
BLACK
6
CONTINUOUS
10
120.754
20
-89.8837
11
120.767
21
-89.8912
0
LINE
8
BLACK
6
CONTINUOUS
10
120.767
20
-89.8912
11
121.353
21
-89.3053
0
LINE
8
BLACK
6
CONTINUOUS
10
121.353
20
-89.3053
11
121.363
21
-89.2937
0
LINE
8
BLACK
6
CONTINUOUS
10
121.363
20
-89.2937
11
121.376
21
-89.2861
0
LINE
8
BLACK
6
CONTINUOUS
10
121.376
20
-89.2861
11
121.388
21
-89.2774
0
LINE
8
BLACK
6
CONTINUOUS
10
121.388
20
-89.2774
11
121.393
21
-89.2761
0
LINE
8
BLACK
6
CONTINUOUS
10
121.393
20
-89.2761
11
121.398
21
-89.2735
0
LINE
8
BLACK
6
CONTINUOUS
10
121.398
20
-89.2735
11
121.413
21
-89.2709
0
LINE
8
BLACK
6
CONTINUOUS
10
121.413
20
-89.2709
11
121.427
21
-89.267
0
LINE
8
BLACK
6
CONTINUOUS
10
121.427
20
-89.267
11
121.442
21
-89.2683
0
LINE
8
BLACK
6
CONTINUOUS
10
121.442
20
-89.2683
11
121.76
21
-89.2683
0
LINE
8
BLACK
6
CONTINUOUS
10
121.76
20
-89.2683
11
121.76
21
-89.0826
0
LINE
8
BLACK
6
CONTINUOUS
10
121.76
20
-89.0826
11
123.76
21
-89.0826
0
LINE
8
BLACK
6
CONTINUOUS
10
123.76
20
-89.0826
11
123.76
21
-89.6826
0
LINE
8
BLACK
6
CONTINUOUS
10
163.06
20
-89.385
11
162.06
21
-89.385
0
LINE
8
BLACK
6
CONTINUOUS
10
162.06
20
-89.385
11
162.06
21
-86.875
0
LINE
8
BLACK
6
CONTINUOUS
10
162.06
20
-86.875
11
163.06
21
-86.875
0
LINE
8
BLACK
6
CONTINUOUS
10
163.06
20
-86.875
11
163.06
21
-89.385
0
LINE
8
BLACK
6
CONTINUOUS
10
157.98
20
-89.385
11
156.98
21
-89.385
0
LINE
8
BLACK
6
CONTINUOUS
10
156.98
20
-89.385
11
156.98
21
-86.875
0
LINE
8
BLACK
6
CONTINUOUS
10
156.98
20
-86.875
11
157.98
21
-86.875
0
LINE
8
BLACK
6
CONTINUOUS
10
157.98
20
-86.875
11
157.98
21
-89.385
0
LINE
8
BLACK
6
CONTINUOUS
10
134.374
20
-82.7637
11
134.466
21
-82.8166
0
LINE
8
BLACK
6
CONTINUOUS
10
134.466
20
-82.8166
11
134.534
21
-82.8977
0
LINE
8
BLACK
6
CONTINUOUS
10
134.534
20
-82.8977
11
134.57
21
-82.9971
0
LINE
8
BLACK
6
CONTINUOUS
10
134.57
20
-82.9971
11
134.57
21
-83.1029
0
LINE
8
BLACK
6
CONTINUOUS
10
134.57
20
-83.1029
11
134.534
21
-83.2023
0
LINE
8
BLACK
6
CONTINUOUS
10
134.534
20
-83.2023
11
134.466
21
-83.2834
0
LINE
8
BLACK
6
CONTINUOUS
10
134.466
20
-83.2834
11
134.374
21
-83.3363
0
LINE
8
BLACK
6
CONTINUOUS
10
134.374
20
-83.3363
11
134.27
21
-83.3546
0
LINE
8
BLACK
6
CONTINUOUS
10
134.27
20
-83.3546
11
134.166
21
-83.3363
0
LINE
8
BLACK
6
CONTINUOUS
10
134.166
20
-83.3363
11
134.119
21
-83.3091
0
LINE
8
BLACK
6
CONTINUOUS
10
134.119
20
-83.3091
11
132.156
21
-85.2716
0
LINE
8
BLACK
6
CONTINUOUS
10
132.156
20
-85.2716
11
132.156
21
-86.875
0
LINE
8
BLACK
6
CONTINUOUS
10
132.156
20
-86.875
11
132.58
21
-86.875
0
LINE
8
BLACK
6
CONTINUOUS
10
132.58
20
-86.875
11
132.58
21
-89.385
0
LINE
8
BLACK
6
CONTINUOUS
10
132.58
20
-89.385
11
131.58
21
-89.385
0
LINE
8
BLACK
6
CONTINUOUS
10
131.58
20
-89.385
11
131.58
21
-86.875
0
LINE
8
BLACK
6
CONTINUOUS
10
131.58
20
-86.875
11
132.004
21
-86.875
0
LINE
8
BLACK
6
CONTINUOUS
10
132.004
20
-86.875
11
132.004
21
-85.2433
0
LINE
8
BLACK
6
CONTINUOUS
10
132.004
20
-85.2433
11
132.003
21
-85.2333
0
LINE
8
BLACK
6
CONTINUOUS
10
132.003
20
-85.2333
11
132.006
21
-85.2235
0
LINE
8
BLACK
6
CONTINUOUS
10
132.006
20
-85.2235
11
132.007
21
-85.2135
0
LINE
8
BLACK
6
CONTINUOUS
10
132.007
20
-85.2135
11
132.009
21
-85.2106
0
LINE
8
BLACK
6
CONTINUOUS
10
132.009
20
-85.2106
11
132.01
21
-85.2073
0
LINE
8
BLACK
6
CONTINUOUS
10
132.01
20
-85.2073
11
132.016
21
-85.199
0
LINE
8
BLACK
6
CONTINUOUS
10
132.016
20
-85.199
11
132.021
21
-85.1903
0
LINE
8
BLACK
6
CONTINUOUS
10
132.021
20
-85.1903
11
132.028
21
-85.1838
0
LINE
8
BLACK
6
CONTINUOUS
10
132.028
20
-85.1838
11
134.008
21
-83.2043
0
LINE
8
BLACK
6
CONTINUOUS
10
134.008
20
-83.2043
11
134.006
21
-83.2023
0
LINE
8
BLACK
6
CONTINUOUS
10
134.006
20
-83.2023
11
133.97
21
-83.1029
0
LINE
8
BLACK
6
CONTINUOUS
10
133.97
20
-83.1029
11
133.97
21
-82.9971
0
LINE
8
BLACK
6
CONTINUOUS
10
133.97
20
-82.9971
11
134.006
21
-82.8977
0
LINE
8
BLACK
6
CONTINUOUS
10
134.006
20
-82.8977
11
134.074
21
-82.8166
0
LINE
8
BLACK
6
CONTINUOUS
10
134.074
20
-82.8166
11
134.166
21
-82.7637
0
LINE
8
BLACK
6
CONTINUOUS
10
134.166
20
-82.7637
11
134.27
21
-82.7454
0
LINE
8
BLACK
6
CONTINUOUS
10
134.27
20
-82.7454
11
134.374
21
-82.7637
0
LINE
8
BLACK
6
CONTINUOUS
10
168.14
20
-89.385
11
167.14
21
-89.385
0
LINE
8
BLACK
6
CONTINUOUS
10
167.14
20
-89.385
11
167.14
21
-86.875
0
LINE
8
BLACK
6
CONTINUOUS
10
167.14
20
-86.875
11
168.14
21
-86.875
0
LINE
8
BLACK
6
CONTINUOUS
10
168.14
20
-86.875
11
168.14
21
-89.385
0
LINE
8
BLACK
6
CONTINUOUS
10
147.82
20
-89.385
11
146.82
21
-89.385
0
LINE
8
BLACK
6
CONTINUOUS
10
146.82
20
-89.385
11
146.82
21
-86.875
0
LINE
8
BLACK
6
CONTINUOUS
10
146.82
20
-86.875
11
147.82
21
-86.875
0
LINE
8
BLACK
6
CONTINUOUS
10
147.82
20
-86.875
11
147.82
21
-89.385
0
LINE
8
BLACK
6
CONTINUOUS
10
142.74
20
-87.5938
11
142.988
21
-87.5938
0
LINE
8
BLACK
6
CONTINUOUS
10
142.988
20
-87.5938
11
143.016
21
-87.5177
0
LINE
8
BLACK
6
CONTINUOUS
10
143.016
20
-87.5177
11
143.084
21
-87.4366
0
LINE
8
BLACK
6
CONTINUOUS
10
143.084
20
-87.4366
11
143.176
21
-87.3837
0
LINE
8
BLACK
6
CONTINUOUS
10
143.176
20
-87.3837
11
143.28
21
-87.3654
0
LINE
8
BLACK
6
CONTINUOUS
10
143.28
20
-87.3654
11
143.384
21
-87.3837
0
LINE
8
BLACK
6
CONTINUOUS
10
143.384
20
-87.3837
11
143.476
21
-87.4366
0
LINE
8
BLACK
6
CONTINUOUS
10
143.476
20
-87.4366
11
143.544
21
-87.5177
0
LINE
8
BLACK
6
CONTINUOUS
10
143.544
20
-87.5177
11
143.58
21
-87.6171
0
LINE
8
BLACK
6
CONTINUOUS
10
143.58
20
-87.6171
11
143.58
21
-87.7229
0
LINE
8
BLACK
6
CONTINUOUS
10
143.58
20
-87.7229
11
143.544
21
-87.8223
0
LINE
8
BLACK
6
CONTINUOUS
10
143.544
20
-87.8223
11
143.476
21
-87.9034
0
LINE
8
BLACK
6
CONTINUOUS
10
143.476
20
-87.9034
11
143.384
21
-87.9563
0
LINE
8
BLACK
6
CONTINUOUS
10
143.384
20
-87.9563
11
143.28
21
-87.9746
0
LINE
8
BLACK
6
CONTINUOUS
10
143.28
20
-87.9746
11
143.176
21
-87.9563
0
LINE
8
BLACK
6
CONTINUOUS
10
143.176
20
-87.9563
11
143.084
21
-87.9034
0
LINE
8
BLACK
6
CONTINUOUS
10
143.084
20
-87.9034
11
143.016
21
-87.8223
0
LINE
8
BLACK
6
CONTINUOUS
10
143.016
20
-87.8223
11
142.988
21
-87.7462
0
LINE
8
BLACK
6
CONTINUOUS
10
142.988
20
-87.7462
11
142.74
21
-87.7462
0
LINE
8
BLACK
6
CONTINUOUS
10
142.74
20
-87.7462
11
142.74
21
-89.385
0
LINE
8
BLACK
6
CONTINUOUS
10
142.74
20
-89.385
11
141.74
21
-89.385
0
LINE
8
BLACK
6
CONTINUOUS
10
141.74
20
-89.385
11
141.74
21
-86.875
0
LINE
8
BLACK
6
CONTINUOUS
10
141.74
20
-86.875
11
142.74
21
-86.875
0
LINE
8
BLACK
6
CONTINUOUS
10
142.74
20
-86.875
11
142.74
21
-87.5938
0
LINE
8
BLACK
6
CONTINUOUS
10
137.66
20
-89.385
11
136.66
21
-89.385
0
LINE
8
BLACK
6
CONTINUOUS
10
136.66
20
-89.385
11
136.66
21
-86.875
0
LINE
8
BLACK
6
CONTINUOUS
10
136.66
20
-86.875
11
137.66
21
-86.875
0
LINE
8
BLACK
6
CONTINUOUS
10
137.66
20
-86.875
11
137.66
21
-89.385
0
LINE
8
BLACK
6
CONTINUOUS
10
123.76
20
-88.4126
11
121.76
21
-88.4126
0
LINE
8
BLACK
6
CONTINUOUS
10
121.76
20
-88.4126
11
121.76
21
-87.8126
0
LINE
8
BLACK
6
CONTINUOUS
10
121.76
20
-87.8126
11
123.76
21
-87.8126
0
LINE
8
BLACK
6
CONTINUOUS
10
123.76
20
-87.8126
11
123.76
21
-88.4126
0
LINE
8
BLACK
6
CONTINUOUS
10
125.895
20
-80.849
11
125.987
21
-80.9019
0
LINE
8
BLACK
6
CONTINUOUS
10
125.987
20
-80.9019
11
126.055
21
-80.9829
0
LINE
8
BLACK
6
CONTINUOUS
10
126.055
20
-80.9829
11
126.091
21
-81.0823
0
LINE
8
BLACK
6
CONTINUOUS
10
126.091
20
-81.0823
11
126.091
21
-81.1881
0
LINE
8
BLACK
6
CONTINUOUS
10
126.091
20
-81.1881
11
126.068
21
-81.2508
0
LINE
8
BLACK
6
CONTINUOUS
10
126.068
20
-81.2508
11
126.168
21
-81.3509
0
LINE
8
BLACK
6
CONTINUOUS
10
126.168
20
-81.3509
11
126.18
21
-81.3606
0
LINE
8
BLACK
6
CONTINUOUS
10
126.18
20
-81.3606
11
126.187
21
-81.3737
0
LINE
8
BLACK
6
CONTINUOUS
10
126.187
20
-81.3737
11
126.196
21
-81.3862
0
LINE
8
BLACK
6
CONTINUOUS
10
126.196
20
-81.3862
11
126.197
21
-81.3911
0
LINE
8
BLACK
6
CONTINUOUS
10
126.197
20
-81.3911
11
126.2
21
-81.3955
0
LINE
8
BLACK
6
CONTINUOUS
10
126.2
20
-81.3955
11
126.203
21
-81.4105
0
LINE
8
BLACK
6
CONTINUOUS
10
126.203
20
-81.4105
11
126.207
21
-81.4251
0
LINE
8
BLACK
6
CONTINUOUS
10
126.207
20
-81.4251
11
126.205
21
-81.4402
0
LINE
8
BLACK
6
CONTINUOUS
10
126.205
20
-81.4402
11
126.205
21
-84.5404
0
LINE
8
BLACK
6
CONTINUOUS
10
126.205
20
-84.5404
11
126.207
21
-84.5555
0
LINE
8
BLACK
6
CONTINUOUS
10
126.207
20
-84.5555
11
126.203
21
-84.5701
0
LINE
8
BLACK
6
CONTINUOUS
10
126.203
20
-84.5701
11
126.2
21
-84.585
0
LINE
8
BLACK
6
CONTINUOUS
10
126.2
20
-84.585
11
126.197
21
-84.5895
0
LINE
8
BLACK
6
CONTINUOUS
10
126.197
20
-84.5895
11
126.196
21
-84.5944
0
LINE
8
BLACK
6
CONTINUOUS
10
126.196
20
-84.5944
11
126.187
21
-84.6068
0
LINE
8
BLACK
6
CONTINUOUS
10
126.187
20
-84.6068
11
126.18
21
-84.62
0
LINE
8
BLACK
6
CONTINUOUS
10
126.18
20
-84.62
11
126.168
21
-84.6297
0
LINE
8
BLACK
6
CONTINUOUS
10
126.168
20
-84.6297
11
125.719
21
-85.0794
0
LINE
8
BLACK
6
CONTINUOUS
10
125.719
20
-85.0794
11
125.709
21
-85.091
0
LINE
8
BLACK
6
CONTINUOUS
10
125.709
20
-85.091
11
125.696
21
-85.0986
0
LINE
8
BLACK
6
CONTINUOUS
10
125.696
20
-85.0986
11
125.683
21
-85.1073
0
LINE
8
BLACK
6
CONTINUOUS
10
125.683
20
-85.1073
11
125.678
21
-85.1086
0
LINE
8
BLACK
6
CONTINUOUS
10
125.678
20
-85.1086
11
125.674
21
-85.1112
0
LINE
8
BLACK
6
CONTINUOUS
10
125.674
20
-85.1112
11
125.659
21
-85.1138
0
LINE
8
BLACK
6
CONTINUOUS
10
125.659
20
-85.1138
11
125.644
21
-85.1177
0
LINE
8
BLACK
6
CONTINUOUS
10
125.644
20
-85.1177
11
125.629
21
-85.1164
0
LINE
8
BLACK
6
CONTINUOUS
10
125.629
20
-85.1164
11
125.071
21
-85.1164
0
LINE
8
BLACK
6
CONTINUOUS
10
125.071
20
-85.1164
11
125.056
21
-85.1177
0
LINE
8
BLACK
6
CONTINUOUS
10
125.056
20
-85.1177
11
125.041
21
-85.1138
0
LINE
8
BLACK
6
CONTINUOUS
10
125.041
20
-85.1138
11
125.026
21
-85.1112
0
LINE
8
BLACK
6
CONTINUOUS
10
125.026
20
-85.1112
11
125.022
21
-85.1086
0
LINE
8
BLACK
6
CONTINUOUS
10
125.022
20
-85.1086
11
125.017
21
-85.1073
0
LINE
8
BLACK
6
CONTINUOUS
10
125.017
20
-85.1073
11
125.004
21
-85.0986
0
LINE
8
BLACK
6
CONTINUOUS
10
125.004
20
-85.0986
11
124.991
21
-85.091
0
LINE
8
BLACK
6
CONTINUOUS
10
124.991
20
-85.091
11
124.981
21
-85.0794
0
LINE
8
BLACK
6
CONTINUOUS
10
124.981
20
-85.0794
11
124.911
21
-85.009
0
LINE
8
BLACK
6
CONTINUOUS
10
124.911
20
-85.009
11
121.66
21
-85.009
0
LINE
8
BLACK
6
CONTINUOUS
10
121.66
20
-85.009
11
118.479
21
-88.1899
0
LINE
8
BLACK
6
CONTINUOUS
10
118.479
20
-88.1899
11
118.469
21
-88.2015
0
LINE
8
BLACK
6
CONTINUOUS
10
118.469
20
-88.2015
11
118.456
21
-88.2091
0
LINE
8
BLACK
6
CONTINUOUS
10
118.456
20
-88.2091
11
118.443
21
-88.2178
0
LINE
8
BLACK
6
CONTINUOUS
10
118.443
20
-88.2178
11
118.439
21
-88.2191
0
LINE
8
BLACK
6
CONTINUOUS
10
118.439
20
-88.2191
11
118.434
21
-88.2217
0
LINE
8
BLACK
6
CONTINUOUS
10
118.434
20
-88.2217
11
118.419
21
-88.2243
0
LINE
8
BLACK
6
CONTINUOUS
10
118.419
20
-88.2243
11
118.405
21
-88.2282
0
LINE
8
BLACK
6
CONTINUOUS
10
118.405
20
-88.2282
11
118.389
21
-88.2269
0
LINE
8
BLACK
6
CONTINUOUS
10
118.389
20
-88.2269
11
114.36
21
-88.2269
0
LINE
8
BLACK
6
CONTINUOUS
10
114.36
20
-88.2269
11
114.36
21
-88.4126
0
LINE
8
BLACK
6
CONTINUOUS
10
114.36
20
-88.4126
11
112.36
21
-88.4126
0
LINE
8
BLACK
6
CONTINUOUS
10
112.36
20
-88.4126
11
112.36
21
-87.8126
0
LINE
8
BLACK
6
CONTINUOUS
10
112.36
20
-87.8126
11
114.36
21
-87.8126
0
LINE
8
BLACK
6
CONTINUOUS
10
114.36
20
-87.8126
11
114.36
21
-87.9983
0
LINE
8
BLACK
6
CONTINUOUS
10
114.36
20
-87.9983
11
118.347
21
-87.9983
0
LINE
8
BLACK
6
CONTINUOUS
10
118.347
20
-87.9983
11
121.528
21
-84.8174
0
LINE
8
BLACK
6
CONTINUOUS
10
121.528
20
-84.8174
11
121.538
21
-84.8058
0
LINE
8
BLACK
6
CONTINUOUS
10
121.538
20
-84.8058
11
121.551
21
-84.7982
0
LINE
8
BLACK
6
CONTINUOUS
10
121.551
20
-84.7982
11
121.563
21
-84.7895
0
LINE
8
BLACK
6
CONTINUOUS
10
121.563
20
-84.7895
11
121.568
21
-84.7882
0
LINE
8
BLACK
6
CONTINUOUS
10
121.568
20
-84.7882
11
121.573
21
-84.7856
0
LINE
8
BLACK
6
CONTINUOUS
10
121.573
20
-84.7856
11
121.588
21
-84.783
0
LINE
8
BLACK
6
CONTINUOUS
10
121.588
20
-84.783
11
121.602
21
-84.7791
0
LINE
8
BLACK
6
CONTINUOUS
10
121.602
20
-84.7791
11
121.617
21
-84.7804
0
LINE
8
BLACK
6
CONTINUOUS
10
121.617
20
-84.7804
11
124.953
21
-84.7804
0
LINE
8
BLACK
6
CONTINUOUS
10
124.953
20
-84.7804
11
124.969
21
-84.7791
0
LINE
8
BLACK
6
CONTINUOUS
10
124.969
20
-84.7791
11
124.983
21
-84.783
0
LINE
8
BLACK
6
CONTINUOUS
10
124.983
20
-84.783
11
124.998
21
-84.7856
0
LINE
8
BLACK
6
CONTINUOUS
10
124.998
20
-84.7856
11
125.003
21
-84.7882
0
LINE
8
BLACK
6
CONTINUOUS
10
125.003
20
-84.7882
11
125.007
21
-84.7895
0
LINE
8
BLACK
6
CONTINUOUS
10
125.007
20
-84.7895
11
125.02
21
-84.7982
0
LINE
8
BLACK
6
CONTINUOUS
10
125.02
20
-84.7982
11
125.033
21
-84.8058
0
LINE
8
BLACK
6
CONTINUOUS
10
125.033
20
-84.8058
11
125.043
21
-84.8174
0
LINE
8
BLACK
6
CONTINUOUS
10
125.043
20
-84.8174
11
125.113
21
-84.8878
0
LINE
8
BLACK
6
CONTINUOUS
10
125.113
20
-84.8878
11
125.587
21
-84.8878
0
LINE
8
BLACK
6
CONTINUOUS
10
125.587
20
-84.8878
11
125.977
21
-84.498
0
LINE
8
BLACK
6
CONTINUOUS
10
125.977
20
-84.498
11
125.977
21
-81.4826
0
LINE
8
BLACK
6
CONTINUOUS
10
125.977
20
-81.4826
11
125.908
21
-81.414
0
LINE
8
BLACK
6
CONTINUOUS
10
125.908
20
-81.414
11
125.895
21
-81.4215
0
LINE
8
BLACK
6
CONTINUOUS
10
125.895
20
-81.4215
11
125.791
21
-81.4398
0
LINE
8
BLACK
6
CONTINUOUS
10
125.791
20
-81.4398
11
125.687
21
-81.4215
0
LINE
8
BLACK
6
CONTINUOUS
10
125.687
20
-81.4215
11
125.595
21
-81.3686
0
LINE
8
BLACK
6
CONTINUOUS
10
125.595
20
-81.3686
11
125.527
21
-81.2875
0
LINE
8
BLACK
6
CONTINUOUS
10
125.527
20
-81.2875
11
125.491
21
-81.1881
0
LINE
8
BLACK
6
CONTINUOUS
10
125.491
20
-81.1881
11
125.491
21
-81.0823
0
LINE
8
BLACK
6
CONTINUOUS
10
125.491
20
-81.0823
11
125.527
21
-80.9829
0
LINE
8
BLACK
6
CONTINUOUS
10
125.527
20
-80.9829
11
125.595
21
-80.9019
0
LINE
8
BLACK
6
CONTINUOUS
10
125.595
20
-80.9019
11
125.687
21
-80.849
0
LINE
8
BLACK
6
CONTINUOUS
10
125.687
20
-80.849
11
125.791
21
-80.8306
0
LINE
8
BLACK
6
CONTINUOUS
10
125.791
20
-80.8306
11
125.895
21
-80.849
0
LINE
8
BLACK
6
CONTINUOUS
10
108.87
20
-88.005
11
107.67
21
-88.005
0
LINE
8
BLACK
6
CONTINUOUS
10
107.67
20
-88.005
11
107.67
21
-87.255
0
LINE
8
BLACK
6
CONTINUOUS
10
107.67
20
-87.255
11
108.87
21
-87.255
0
LINE
8
BLACK
6
CONTINUOUS
10
108.87
20
-87.255
11
108.87
21
-88.005
0
LINE
8
BLACK
6
CONTINUOUS
10
123.76
20
-86.7283
11
123.984
21
-86.7283
0
LINE
8
BLACK
6
CONTINUOUS
10
123.984
20
-86.7283
11
123.999
21
-86.727
0
LINE
8
BLACK
6
CONTINUOUS
10
123.999
20
-86.727
11
124.014
21
-86.7309
0
LINE
8
BLACK
6
CONTINUOUS
10
124.014
20
-86.7309
11
124.028
21
-86.7335
0
LINE
8
BLACK
6
CONTINUOUS
10
124.028
20
-86.7335
11
124.033
21
-86.7361
0
LINE
8
BLACK
6
CONTINUOUS
10
124.033
20
-86.7361
11
124.038
21
-86.7374
0
LINE
8
BLACK
6
CONTINUOUS
10
124.038
20
-86.7374
11
124.05
21
-86.7461
0
LINE
8
BLACK
6
CONTINUOUS
10
124.05
20
-86.7461
11
124.063
21
-86.7537
0
LINE
8
BLACK
6
CONTINUOUS
10
124.063
20
-86.7537
11
124.073
21
-86.7653
0
LINE
8
BLACK
6
CONTINUOUS
10
124.073
20
-86.7653
11
124.524
21
-87.2162
0
LINE
8
BLACK
6
CONTINUOUS
10
124.524
20
-87.2162
11
124.541
21
-87.2409
0
LINE
8
BLACK
6
CONTINUOUS
10
124.541
20
-87.2409
11
124.552
21
-87.2799
0
LINE
8
BLACK
6
CONTINUOUS
10
124.552
20
-87.2799
11
124.548
21
-87.32
0
LINE
8
BLACK
6
CONTINUOUS
10
124.548
20
-87.32
11
124.531
21
-87.3566
0
LINE
8
BLACK
6
CONTINUOUS
10
124.531
20
-87.3566
11
124.503
21
-87.3851
0
LINE
8
BLACK
6
CONTINUOUS
10
124.503
20
-87.3851
11
124.466
21
-87.4021
0
LINE
8
BLACK
6
CONTINUOUS
10
124.466
20
-87.4021
11
124.426
21
-87.4056
0
LINE
8
BLACK
6
CONTINUOUS
10
124.426
20
-87.4056
11
124.387
21
-87.3952
0
LINE
8
BLACK
6
CONTINUOUS
10
124.387
20
-87.3952
11
124.362
21
-87.3779
0
LINE
8
BLACK
6
CONTINUOUS
10
124.362
20
-87.3779
11
123.941
21
-86.9569
0
LINE
8
BLACK
6
CONTINUOUS
10
123.941
20
-86.9569
11
123.76
21
-86.9569
0
LINE
8
BLACK
6
CONTINUOUS
10
123.76
20
-86.9569
11
123.76
21
-87.1426
0
LINE
8
BLACK
6
CONTINUOUS
10
123.76
20
-87.1426
11
121.76
21
-87.1426
0
LINE
8
BLACK
6
CONTINUOUS
10
121.76
20
-87.1426
11
121.76
21
-86.5426
0
LINE
8
BLACK
6
CONTINUOUS
10
121.76
20
-86.5426
11
123.76
21
-86.5426
0
LINE
8
BLACK
6
CONTINUOUS
10
123.76
20
-86.5426
11
123.76
21
-86.7283
0
LINE
8
BLACK
6
CONTINUOUS
10
120.172
20
-74.6931
11
120.172
21
-80.8399
0
LINE
8
BLACK
6
CONTINUOUS
10
120.172
20
-80.8399
11
120.174
21
-80.855
0
LINE
8
BLACK
6
CONTINUOUS
10
120.174
20
-80.855
11
120.17
21
-80.8697
0
LINE
8
BLACK
6
CONTINUOUS
10
120.17
20
-80.8697
11
120.167
21
-80.8846
0
LINE
8
BLACK
6
CONTINUOUS
10
120.167
20
-80.8846
11
120.164
21
-80.889
0
LINE
8
BLACK
6
CONTINUOUS
10
120.164
20
-80.889
11
120.163
21
-80.894
0
LINE
8
BLACK
6
CONTINUOUS
10
120.163
20
-80.894
11
120.154
21
-80.9064
0
LINE
8
BLACK
6
CONTINUOUS
10
120.154
20
-80.9064
11
120.147
21
-80.9195
0
LINE
8
BLACK
6
CONTINUOUS
10
120.147
20
-80.9195
11
120.135
21
-80.9292
0
LINE
8
BLACK
6
CONTINUOUS
10
120.135
20
-80.9292
11
114.36
21
-86.7042
0
LINE
8
BLACK
6
CONTINUOUS
10
114.36
20
-86.7042
11
114.36
21
-87.1426
0
LINE
8
BLACK
6
CONTINUOUS
10
114.36
20
-87.1426
11
112.36
21
-87.1426
0
LINE
8
BLACK
6
CONTINUOUS
10
112.36
20
-87.1426
11
112.36
21
-86.5426
0
LINE
8
BLACK
6
CONTINUOUS
10
112.36
20
-86.5426
11
114.199
21
-86.5426
0
LINE
8
BLACK
6
CONTINUOUS
10
114.199
20
-86.5426
11
119.944
21
-80.7976
0
LINE
8
BLACK
6
CONTINUOUS
10
119.944
20
-80.7976
11
119.944
21
-74.6508
0
LINE
8
BLACK
6
CONTINUOUS
10
119.944
20
-74.6508
11
119.942
21
-74.6357
0
LINE
8
BLACK
6
CONTINUOUS
10
119.942
20
-74.6357
11
119.946
21
-74.621
0
LINE
8
BLACK
6
CONTINUOUS
10
119.946
20
-74.621
11
119.949
21
-74.6061
0
LINE
8
BLACK
6
CONTINUOUS
10
119.949
20
-74.6061
11
119.951
21
-74.6017
0
LINE
8
BLACK
6
CONTINUOUS
10
119.951
20
-74.6017
11
119.953
21
-74.5967
0
LINE
8
BLACK
6
CONTINUOUS
10
119.953
20
-74.5967
11
119.961
21
-74.5843
0
LINE
8
BLACK
6
CONTINUOUS
10
119.961
20
-74.5843
11
119.969
21
-74.5712
0
LINE
8
BLACK
6
CONTINUOUS
10
119.969
20
-74.5712
11
119.981
21
-74.5614
0
LINE
8
BLACK
6
CONTINUOUS
10
119.981
20
-74.5614
11
122.168
21
-72.3737
0
LINE
8
BLACK
6
CONTINUOUS
10
122.168
20
-72.3737
11
122.178
21
-72.3621
0
LINE
8
BLACK
6
CONTINUOUS
10
122.178
20
-72.3621
11
122.191
21
-72.3545
0
LINE
8
BLACK
6
CONTINUOUS
10
122.191
20
-72.3545
11
122.204
21
-72.3458
0
LINE
8
BLACK
6
CONTINUOUS
10
122.204
20
-72.3458
11
122.209
21
-72.3444
0
LINE
8
BLACK
6
CONTINUOUS
10
122.209
20
-72.3444
11
122.213
21
-72.3419
0
LINE
8
BLACK
6
CONTINUOUS
10
122.213
20
-72.3419
11
122.228
21
-72.3393
0
LINE
8
BLACK
6
CONTINUOUS
10
122.228
20
-72.3393
11
122.243
21
-72.3353
0
LINE
8
BLACK
6
CONTINUOUS
10
122.243
20
-72.3353
11
122.258
21
-72.3367
0
LINE
8
BLACK
6
CONTINUOUS
10
122.258
20
-72.3367
11
125.833
21
-72.3367
0
LINE
8
BLACK
6
CONTINUOUS
10
125.833
20
-72.3367
11
125.847
21
-72.2986
0
LINE
8
BLACK
6
CONTINUOUS
10
125.847
20
-72.2986
11
125.915
21
-72.2176
0
LINE
8
BLACK
6
CONTINUOUS
10
125.915
20
-72.2176
11
126.007
21
-72.1647
0
LINE
8
BLACK
6
CONTINUOUS
10
126.007
20
-72.1647
11
126.111
21
-72.1463
0
LINE
8
BLACK
6
CONTINUOUS
10
126.111
20
-72.1463
11
126.215
21
-72.1647
0
LINE
8
BLACK
6
CONTINUOUS
10
126.215
20
-72.1647
11
126.307
21
-72.2176
0
LINE
8
BLACK
6
CONTINUOUS
10
126.307
20
-72.2176
11
126.375
21
-72.2986
0
LINE
8
BLACK
6
CONTINUOUS
10
126.375
20
-72.2986
11
126.411
21
-72.3981
0
LINE
8
BLACK
6
CONTINUOUS
10
126.411
20
-72.3981
11
126.411
21
-72.5039
0
LINE
8
BLACK
6
CONTINUOUS
10
126.411
20
-72.5039
11
126.375
21
-72.6033
0
LINE
8
BLACK
6
CONTINUOUS
10
126.375
20
-72.6033
11
126.307
21
-72.6843
0
LINE
8
BLACK
6
CONTINUOUS
10
126.307
20
-72.6843
11
126.215
21
-72.7372
0
LINE
8
BLACK
6
CONTINUOUS
10
126.215
20
-72.7372
11
126.111
21
-72.7556
0
LINE
8
BLACK
6
CONTINUOUS
10
126.111
20
-72.7556
11
126.007
21
-72.7372
0
LINE
8
BLACK
6
CONTINUOUS
10
126.007
20
-72.7372
11
125.915
21
-72.6843
0
LINE
8
BLACK
6
CONTINUOUS
10
125.915
20
-72.6843
11
125.847
21
-72.6033
0
LINE
8
BLACK
6
CONTINUOUS
10
125.847
20
-72.6033
11
125.833
21
-72.5653
0
LINE
8
BLACK
6
CONTINUOUS
10
125.833
20
-72.5653
11
122.3
21
-72.5653
0
LINE
8
BLACK
6
CONTINUOUS
10
122.3
20
-72.5653
11
120.172
21
-74.6931
0
LINE
8
BLACK
6
CONTINUOUS
10
146
20
-74.1962
11
145.301
21
-74.1962
0
LINE
8
BLACK
6
CONTINUOUS
10
145.301
20
-74.1962
11
145.301
21
-74.8662
0
LINE
8
BLACK
6
CONTINUOUS
10
145.301
20
-74.8662
11
146
21
-74.8662
0
LINE
8
BLACK
6
CONTINUOUS
10
146
20
-74.8662
11
146
21
-75.4662
0
LINE
8
BLACK
6
CONTINUOUS
10
146
20
-75.4662
11
144.45
21
-75.4662
0
LINE
8
BLACK
6
CONTINUOUS
10
144.45
20
-75.4662
11
144.45
21
-75.2424
0
LINE
8
BLACK
6
CONTINUOUS
10
144.45
20
-75.2424
11
144.329
21
-75.2424
0
LINE
8
BLACK
6
CONTINUOUS
10
144.329
20
-75.2424
11
144.272
21
-75.2994
0
LINE
8
BLACK
6
CONTINUOUS
10
144.272
20
-75.2994
11
144.272
21
-85.764
0
LINE
8
BLACK
6
CONTINUOUS
10
144.272
20
-85.764
11
144.819
21
-86.3109
0
LINE
8
BLACK
6
CONTINUOUS
10
144.819
20
-86.3109
11
144.866
21
-86.2837
0
LINE
8
BLACK
6
CONTINUOUS
10
144.866
20
-86.2837
11
144.97
21
-86.2654
0
LINE
8
BLACK
6
CONTINUOUS
10
144.97
20
-86.2654
11
145.074
21
-86.2837
0
LINE
8
BLACK
6
CONTINUOUS
10
145.074
20
-86.2837
11
145.166
21
-86.3366
0
LINE
8
BLACK
6
CONTINUOUS
10
145.166
20
-86.3366
11
145.234
21
-86.4177
0
LINE
8
BLACK
6
CONTINUOUS
10
145.234
20
-86.4177
11
145.27
21
-86.5171
0
LINE
8
BLACK
6
CONTINUOUS
10
145.27
20
-86.5171
11
145.27
21
-86.6229
0
LINE
8
BLACK
6
CONTINUOUS
10
145.27
20
-86.6229
11
145.234
21
-86.7223
0
LINE
8
BLACK
6
CONTINUOUS
10
145.234
20
-86.7223
11
145.166
21
-86.8034
0
LINE
8
BLACK
6
CONTINUOUS
10
145.166
20
-86.8034
11
145.074
21
-86.8563
0
LINE
8
BLACK
6
CONTINUOUS
10
145.074
20
-86.8563
11
144.97
21
-86.8746
0
LINE
8
BLACK
6
CONTINUOUS
10
144.97
20
-86.8746
11
144.866
21
-86.8563
0
LINE
8
BLACK
6
CONTINUOUS
10
144.866
20
-86.8563
11
144.774
21
-86.8034
0
LINE
8
BLACK
6
CONTINUOUS
10
144.774
20
-86.8034
11
144.706
21
-86.7223
0
LINE
8
BLACK
6
CONTINUOUS
10
144.706
20
-86.7223
11
144.67
21
-86.6229
0
LINE
8
BLACK
6
CONTINUOUS
10
144.67
20
-86.6229
11
144.67
21
-86.5171
0
LINE
8
BLACK
6
CONTINUOUS
10
144.67
20
-86.5171
11
144.706
21
-86.4177
0
LINE
8
BLACK
6
CONTINUOUS
10
144.706
20
-86.4177
11
144.708
21
-86.4157
0
LINE
8
BLACK
6
CONTINUOUS
10
144.708
20
-86.4157
11
144.144
21
-85.8518
0
LINE
8
BLACK
6
CONTINUOUS
10
144.144
20
-85.8518
11
144.136
21
-85.8453
0
LINE
8
BLACK
6
CONTINUOUS
10
144.136
20
-85.8453
11
144.131
21
-85.8365
0
LINE
8
BLACK
6
CONTINUOUS
10
144.131
20
-85.8365
11
144.125
21
-85.8282
0
LINE
8
BLACK
6
CONTINUOUS
10
144.125
20
-85.8282
11
144.125
21
-85.825
0
LINE
8
BLACK
6
CONTINUOUS
10
144.125
20
-85.825
11
144.123
21
-85.822
0
LINE
8
BLACK
6
CONTINUOUS
10
144.123
20
-85.822
11
144.121
21
-85.8121
0
LINE
8
BLACK
6
CONTINUOUS
10
144.121
20
-85.8121
11
144.118
21
-85.8023
0
LINE
8
BLACK
6
CONTINUOUS
10
144.118
20
-85.8023
11
144.119
21
-85.7922
0
LINE
8
BLACK
6
CONTINUOUS
10
144.119
20
-85.7922
11
144.119
21
-75.2711
0
LINE
8
BLACK
6
CONTINUOUS
10
144.119
20
-75.2711
11
144.118
21
-75.2611
0
LINE
8
BLACK
6
CONTINUOUS
10
144.118
20
-75.2611
11
144.121
21
-75.2513
0
LINE
8
BLACK
6
CONTINUOUS
10
144.121
20
-75.2513
11
144.123
21
-75.2414
0
LINE
8
BLACK
6
CONTINUOUS
10
144.123
20
-75.2414
11
144.125
21
-75.2384
0
LINE
8
BLACK
6
CONTINUOUS
10
144.125
20
-75.2384
11
144.125
21
-75.2351
0
LINE
8
BLACK
6
CONTINUOUS
10
144.125
20
-75.2351
11
144.131
21
-75.2268
0
LINE
8
BLACK
6
CONTINUOUS
10
144.131
20
-75.2268
11
144.136
21
-75.2181
0
LINE
8
BLACK
6
CONTINUOUS
10
144.136
20
-75.2181
11
144.144
21
-75.2116
0
LINE
8
BLACK
6
CONTINUOUS
10
144.144
20
-75.2116
11
144.241
21
-75.1147
0
LINE
8
BLACK
6
CONTINUOUS
10
144.241
20
-75.1147
11
144.247
21
-75.1069
0
LINE
8
BLACK
6
CONTINUOUS
10
144.247
20
-75.1069
11
144.256
21
-75.1019
0
LINE
8
BLACK
6
CONTINUOUS
10
144.256
20
-75.1019
11
144.264
21
-75.0961
0
LINE
8
BLACK
6
CONTINUOUS
10
144.264
20
-75.0961
11
144.268
21
-75.0952
0
LINE
8
BLACK
6
CONTINUOUS
10
144.268
20
-75.0952
11
144.271
21
-75.0935
0
LINE
8
BLACK
6
CONTINUOUS
10
144.271
20
-75.0935
11
144.281
21
-75.0918
0
LINE
8
BLACK
6
CONTINUOUS
10
144.281
20
-75.0918
11
144.29
21
-75.0891
0
LINE
8
BLACK
6
CONTINUOUS
10
144.29
20
-75.0891
11
144.3
21
-75.09
0
LINE
8
BLACK
6
CONTINUOUS
10
144.3
20
-75.09
11
144.45
21
-75.09
0
LINE
8
BLACK
6
CONTINUOUS
10
144.45
20
-75.09
11
144.45
21
-74.8662
0
LINE
8
BLACK
6
CONTINUOUS
10
144.45
20
-74.8662
11
145.148
21
-74.8662
0
LINE
8
BLACK
6
CONTINUOUS
10
145.148
20
-74.8662
11
145.148
21
-74.1962
0
LINE
8
BLACK
6
CONTINUOUS
10
145.148
20
-74.1962
11
144.45
21
-74.1962
0
LINE
8
BLACK
6
CONTINUOUS
10
144.45
20
-74.1962
11
144.45
21
-73.5962
0
LINE
8
BLACK
6
CONTINUOUS
10
144.45
20
-73.5962
11
146
21
-73.5962
0
LINE
8
BLACK
6
CONTINUOUS
10
146
20
-73.5962
11
146
21
-74.1962
0
LINE
8
BLACK
6
CONTINUOUS
10
123.76
20
-85.8726
11
121.76
21
-85.8726
0
LINE
8
BLACK
6
CONTINUOUS
10
121.76
20
-85.8726
11
121.76
21
-85.2726
0
LINE
8
BLACK
6
CONTINUOUS
10
121.76
20
-85.2726
11
123.76
21
-85.2726
0
LINE
8
BLACK
6
CONTINUOUS
10
123.76
20
-85.2726
11
123.76
21
-85.8726
0
LINE
8
BLACK
6
CONTINUOUS
10
116.956
20
-82.8029
11
116.952
21
-82.8176
0
LINE
8
BLACK
6
CONTINUOUS
10
116.952
20
-82.8176
11
116.949
21
-82.8325
0
LINE
8
BLACK
6
CONTINUOUS
10
116.949
20
-82.8325
11
116.947
21
-82.8369
0
LINE
8
BLACK
6
CONTINUOUS
10
116.947
20
-82.8369
11
116.945
21
-82.8419
0
LINE
8
BLACK
6
CONTINUOUS
10
116.945
20
-82.8419
11
116.936
21
-82.8543
0
LINE
8
BLACK
6
CONTINUOUS
10
116.936
20
-82.8543
11
116.929
21
-82.8674
0
LINE
8
BLACK
6
CONTINUOUS
10
116.929
20
-82.8674
11
116.917
21
-82.8772
0
LINE
8
BLACK
6
CONTINUOUS
10
116.917
20
-82.8772
11
114.36
21
-85.4342
0
LINE
8
BLACK
6
CONTINUOUS
10
114.36
20
-85.4342
11
114.36
21
-85.8726
0
LINE
8
BLACK
6
CONTINUOUS
10
114.36
20
-85.8726
11
112.36
21
-85.8726
0
LINE
8
BLACK
6
CONTINUOUS
10
112.36
20
-85.8726
11
112.36
21
-85.2726
0
LINE
8
BLACK
6
CONTINUOUS
10
112.36
20
-85.2726
11
114.199
21
-85.2726
0
LINE
8
BLACK
6
CONTINUOUS
10
114.199
20
-85.2726
11
116.726
21
-82.7455
0
LINE
8
BLACK
6
CONTINUOUS
10
116.726
20
-82.7455
11
116.726
21
-77.48
0
LINE
8
BLACK
6
CONTINUOUS
10
116.726
20
-77.48
11
116.726
21
-77.48
0
LINE
8
BLACK
6
CONTINUOUS
10
116.726
20
-77.48
11
116.726
21
-76.586
0
LINE
8
BLACK
6
CONTINUOUS
10
116.726
20
-76.586
11
116.724
21
-76.5709
0
LINE
8
BLACK
6
CONTINUOUS
10
116.724
20
-76.5709
11
116.728
21
-76.5562
0
LINE
8
BLACK
6
CONTINUOUS
10
116.728
20
-76.5562
11
116.731
21
-76.5413
0
LINE
8
BLACK
6
CONTINUOUS
10
116.731
20
-76.5413
11
116.733
21
-76.5369
0
LINE
8
BLACK
6
CONTINUOUS
10
116.733
20
-76.5369
11
116.735
21
-76.5319
0
LINE
8
BLACK
6
CONTINUOUS
10
116.735
20
-76.5319
11
116.744
21
-76.5195
0
LINE
8
BLACK
6
CONTINUOUS
10
116.744
20
-76.5195
11
116.751
21
-76.5064
0
LINE
8
BLACK
6
CONTINUOUS
10
116.751
20
-76.5064
11
116.763
21
-76.4966
0
LINE
8
BLACK
6
CONTINUOUS
10
116.763
20
-76.4966
11
117.071
21
-76.1886
0
LINE
8
BLACK
6
CONTINUOUS
10
117.071
20
-76.1886
11
117.048
21
-76.1259
0
LINE
8
BLACK
6
CONTINUOUS
10
117.048
20
-76.1259
11
117.048
21
-76.0201
0
LINE
8
BLACK
6
CONTINUOUS
10
117.048
20
-76.0201
11
117.084
21
-75.9207
0
LINE
8
BLACK
6
CONTINUOUS
10
117.084
20
-75.9207
11
117.152
21
-75.8396
0
LINE
8
BLACK
6
CONTINUOUS
10
117.152
20
-75.8396
11
117.244
21
-75.7867
0
LINE
8
BLACK
6
CONTINUOUS
10
117.244
20
-75.7867
11
117.348
21
-75.7684
0
LINE
8
BLACK
6
CONTINUOUS
10
117.348
20
-75.7684
11
117.452
21
-75.7867
0
LINE
8
BLACK
6
CONTINUOUS
10
117.452
20
-75.7867
11
117.544
21
-75.8396
0
LINE
8
BLACK
6
CONTINUOUS
10
117.544
20
-75.8396
11
117.612
21
-75.9207
0
LINE
8
BLACK
6
CONTINUOUS
10
117.612
20
-75.9207
11
117.648
21
-76.0201
0
LINE
8
BLACK
6
CONTINUOUS
10
117.648
20
-76.0201
11
117.648
21
-76.1259
0
LINE
8
BLACK
6
CONTINUOUS
10
117.648
20
-76.1259
11
117.612
21
-76.2253
0
LINE
8
BLACK
6
CONTINUOUS
10
117.612
20
-76.2253
11
117.544
21
-76.3064
0
LINE
8
BLACK
6
CONTINUOUS
10
117.544
20
-76.3064
11
117.452
21
-76.3593
0
LINE
8
BLACK
6
CONTINUOUS
10
117.452
20
-76.3593
11
117.348
21
-76.3776
0
LINE
8
BLACK
6
CONTINUOUS
10
117.348
20
-76.3776
11
117.244
21
-76.3593
0
LINE
8
BLACK
6
CONTINUOUS
10
117.244
20
-76.3593
11
117.231
21
-76.3518
0
LINE
8
BLACK
6
CONTINUOUS
10
117.231
20
-76.3518
11
116.954
21
-76.6283
0
LINE
8
BLACK
6
CONTINUOUS
10
116.954
20
-76.6283
11
116.954
21
-82.7878
0
LINE
8
BLACK
6
CONTINUOUS
10
116.954
20
-82.7878
11
116.956
21
-82.8029
0
LINE
8
BLACK
6
CONTINUOUS
10
108.87
20
-85.465
11
107.67
21
-85.465
0
LINE
8
BLACK
6
CONTINUOUS
10
107.67
20
-85.465
11
107.67
21
-84.715
0
LINE
8
BLACK
6
CONTINUOUS
10
107.67
20
-84.715
11
108.87
21
-84.715
0
LINE
8
BLACK
6
CONTINUOUS
10
108.87
20
-84.715
11
108.87
21
-85.465
0
LINE
8
BLACK
6
CONTINUOUS
10
123.76
20
-82.9564
11
123.969
21
-82.9564
0
LINE
8
BLACK
6
CONTINUOUS
10
123.969
20
-82.9564
11
123.979
21
-82.9555
0
LINE
8
BLACK
6
CONTINUOUS
10
123.979
20
-82.9555
11
123.989
21
-82.9581
0
LINE
8
BLACK
6
CONTINUOUS
10
123.989
20
-82.9581
11
123.999
21
-82.9599
0
LINE
8
BLACK
6
CONTINUOUS
10
123.999
20
-82.9599
11
124.002
21
-82.9616
0
LINE
8
BLACK
6
CONTINUOUS
10
124.002
20
-82.9616
11
124.005
21
-82.9625
0
LINE
8
BLACK
6
CONTINUOUS
10
124.005
20
-82.9625
11
124.014
21
-82.9683
0
LINE
8
BLACK
6
CONTINUOUS
10
124.014
20
-82.9683
11
124.022
21
-82.9733
0
LINE
8
BLACK
6
CONTINUOUS
10
124.022
20
-82.9733
11
124.029
21
-82.9811
0
LINE
8
BLACK
6
CONTINUOUS
10
124.029
20
-82.9811
11
125.199
21
-84.1509
0
LINE
8
BLACK
6
CONTINUOUS
10
125.199
20
-84.1509
11
125.246
21
-84.1237
0
LINE
8
BLACK
6
CONTINUOUS
10
125.246
20
-84.1237
11
125.35
21
-84.1054
0
LINE
8
BLACK
6
CONTINUOUS
10
125.35
20
-84.1054
11
125.454
21
-84.1237
0
LINE
8
BLACK
6
CONTINUOUS
10
125.454
20
-84.1237
11
125.546
21
-84.1766
0
LINE
8
BLACK
6
CONTINUOUS
10
125.546
20
-84.1766
11
125.614
21
-84.2577
0
LINE
8
BLACK
6
CONTINUOUS
10
125.614
20
-84.2577
11
125.65
21
-84.3571
0
LINE
8
BLACK
6
CONTINUOUS
10
125.65
20
-84.3571
11
125.65
21
-84.4629
0
LINE
8
BLACK
6
CONTINUOUS
10
125.65
20
-84.4629
11
125.614
21
-84.5623
0
LINE
8
BLACK
6
CONTINUOUS
10
125.614
20
-84.5623
11
125.546
21
-84.6434
0
LINE
8
BLACK
6
CONTINUOUS
10
125.546
20
-84.6434
11
125.454
21
-84.6963
0
LINE
8
BLACK
6
CONTINUOUS
10
125.454
20
-84.6963
11
125.35
21
-84.7146
0
LINE
8
BLACK
6
CONTINUOUS
10
125.35
20
-84.7146
11
125.246
21
-84.6963
0
LINE
8
BLACK
6
CONTINUOUS
10
125.246
20
-84.6963
11
125.154
21
-84.6434
0
LINE
8
BLACK
6
CONTINUOUS
10
125.154
20
-84.6434
11
125.086
21
-84.5623
0
LINE
8
BLACK
6
CONTINUOUS
10
125.086
20
-84.5623
11
125.05
21
-84.4629
0
LINE
8
BLACK
6
CONTINUOUS
10
125.05
20
-84.4629
11
125.05
21
-84.3571
0
LINE
8
BLACK
6
CONTINUOUS
10
125.05
20
-84.3571
11
125.086
21
-84.2577
0
LINE
8
BLACK
6
CONTINUOUS
10
125.086
20
-84.2577
11
125.088
21
-84.2557
0
LINE
8
BLACK
6
CONTINUOUS
10
125.088
20
-84.2557
11
123.941
21
-83.1088
0
LINE
8
BLACK
6
CONTINUOUS
10
123.941
20
-83.1088
11
123.76
21
-83.1088
0
LINE
8
BLACK
6
CONTINUOUS
10
123.76
20
-83.1088
11
123.76
21
-83.3326
0
LINE
8
BLACK
6
CONTINUOUS
10
123.76
20
-83.3326
11
121.76
21
-83.3326
0
LINE
8
BLACK
6
CONTINUOUS
10
121.76
20
-83.3326
11
121.76
21
-82.7326
0
LINE
8
BLACK
6
CONTINUOUS
10
121.76
20
-82.7326
11
123.76
21
-82.7326
0
LINE
8
BLACK
6
CONTINUOUS
10
123.76
20
-82.7326
11
123.76
21
-82.9564
0
LINE
8
BLACK
6
CONTINUOUS
10
120.754
20
-74.6437
11
120.846
21
-74.6966
0
LINE
8
BLACK
6
CONTINUOUS
10
120.846
20
-74.6966
11
120.914
21
-74.7777
0
LINE
8
BLACK
6
CONTINUOUS
10
120.914
20
-74.7777
11
120.95
21
-74.8771
0
LINE
8
BLACK
6
CONTINUOUS
10
120.95
20
-74.8771
11
120.95
21
-74.9829
0
LINE
8
BLACK
6
CONTINUOUS
10
120.95
20
-74.9829
11
120.914
21
-75.0823
0
LINE
8
BLACK
6
CONTINUOUS
10
120.914
20
-75.0823
11
120.846
21
-75.1634
0
LINE
8
BLACK
6
CONTINUOUS
10
120.846
20
-75.1634
11
120.764
21
-75.2104
0
LINE
8
BLACK
6
CONTINUOUS
10
120.764
20
-75.2104
11
120.764
21
-82.8451
0
LINE
8
BLACK
6
CONTINUOUS
10
120.764
20
-82.8451
11
121.922
21
-84.0026
0
LINE
8
BLACK
6
CONTINUOUS
10
121.922
20
-84.0026
11
123.76
21
-84.0026
0
LINE
8
BLACK
6
CONTINUOUS
10
123.76
20
-84.0026
11
123.76
21
-84.6026
0
LINE
8
BLACK
6
CONTINUOUS
10
123.76
20
-84.6026
11
121.76
21
-84.6026
0
LINE
8
BLACK
6
CONTINUOUS
10
121.76
20
-84.6026
11
121.76
21
-84.1642
0
LINE
8
BLACK
6
CONTINUOUS
10
121.76
20
-84.1642
11
120.573
21
-82.9768
0
LINE
8
BLACK
6
CONTINUOUS
10
120.573
20
-82.9768
11
120.561
21
-82.967
0
LINE
8
BLACK
6
CONTINUOUS
10
120.561
20
-82.967
11
120.554
21
-82.9539
0
LINE
8
BLACK
6
CONTINUOUS
10
120.554
20
-82.9539
11
120.545
21
-82.9415
0
LINE
8
BLACK
6
CONTINUOUS
10
120.545
20
-82.9415
11
120.543
21
-82.9365
0
LINE
8
BLACK
6
CONTINUOUS
10
120.543
20
-82.9365
11
120.541
21
-82.9321
0
LINE
8
BLACK
6
CONTINUOUS
10
120.541
20
-82.9321
11
120.538
21
-82.9172
0
LINE
8
BLACK
6
CONTINUOUS
10
120.538
20
-82.9172
11
120.534
21
-82.9025
0
LINE
8
BLACK
6
CONTINUOUS
10
120.534
20
-82.9025
11
120.536
21
-82.8874
0
LINE
8
BLACK
6
CONTINUOUS
10
120.536
20
-82.8874
11
120.536
21
-75.2104
0
LINE
8
BLACK
6
CONTINUOUS
10
120.536
20
-75.2104
11
120.454
21
-75.1634
0
LINE
8
BLACK
6
CONTINUOUS
10
120.454
20
-75.1634
11
120.386
21
-75.0823
0
LINE
8
BLACK
6
CONTINUOUS
10
120.386
20
-75.0823
11
120.35
21
-74.9829
0
LINE
8
BLACK
6
CONTINUOUS
10
120.35
20
-74.9829
11
120.35
21
-74.8771
0
LINE
8
BLACK
6
CONTINUOUS
10
120.35
20
-74.8771
11
120.386
21
-74.7777
0
LINE
8
BLACK
6
CONTINUOUS
10
120.386
20
-74.7777
11
120.454
21
-74.6966
0
LINE
8
BLACK
6
CONTINUOUS
10
120.454
20
-74.6966
11
120.546
21
-74.6437
0
LINE
8
BLACK
6
CONTINUOUS
10
120.546
20
-74.6437
11
120.65
21
-74.6254
0
LINE
8
BLACK
6
CONTINUOUS
10
120.65
20
-74.6254
11
120.754
21
-74.6437
0
LINE
8
BLACK
6
CONTINUOUS
10
114.36
20
-83.3326
11
112.36
21
-83.3326
0
LINE
8
BLACK
6
CONTINUOUS
10
112.36
20
-83.3326
11
112.36
21
-82.7326
0
LINE
8
BLACK
6
CONTINUOUS
10
112.36
20
-82.7326
11
114.36
21
-82.7326
0
LINE
8
BLACK
6
CONTINUOUS
10
114.36
20
-82.7326
11
114.36
21
-83.3326
0
LINE
8
BLACK
6
CONTINUOUS
10
146
20
-72.8185
11
146.305
21
-73.124
0
LINE
8
BLACK
6
CONTINUOUS
10
146.305
20
-73.124
11
146.313
21
-73.1305
0
LINE
8
BLACK
6
CONTINUOUS
10
146.313
20
-73.1305
11
146.318
21
-73.1392
0
LINE
8
BLACK
6
CONTINUOUS
10
146.318
20
-73.1392
11
146.324
21
-73.1475
0
LINE
8
BLACK
6
CONTINUOUS
10
146.324
20
-73.1475
11
146.325
21
-73.1508
0
LINE
8
BLACK
6
CONTINUOUS
10
146.325
20
-73.1508
11
146.326
21
-73.1538
0
LINE
8
BLACK
6
CONTINUOUS
10
146.326
20
-73.1538
11
146.328
21
-73.1637
0
LINE
8
BLACK
6
CONTINUOUS
10
146.328
20
-73.1637
11
146.331
21
-73.1735
0
LINE
8
BLACK
6
CONTINUOUS
10
146.331
20
-73.1735
11
146.33
21
-73.1835
0
LINE
8
BLACK
6
CONTINUOUS
10
146.33
20
-73.1835
11
146.33
21
-81.6731
0
LINE
8
BLACK
6
CONTINUOUS
10
146.33
20
-81.6731
11
146.331
21
-81.6832
0
LINE
8
BLACK
6
CONTINUOUS
10
146.331
20
-81.6832
11
146.328
21
-81.693
0
LINE
8
BLACK
6
CONTINUOUS
10
146.328
20
-81.693
11
146.326
21
-81.7029
0
LINE
8
BLACK
6
CONTINUOUS
10
146.326
20
-81.7029
11
146.325
21
-81.7059
0
LINE
8
BLACK
6
CONTINUOUS
10
146.325
20
-81.7059
11
146.324
21
-81.7092
0
LINE
8
BLACK
6
CONTINUOUS
10
146.324
20
-81.7092
11
146.318
21
-81.7174
0
LINE
8
BLACK
6
CONTINUOUS
10
146.318
20
-81.7174
11
146.313
21
-81.7262
0
LINE
8
BLACK
6
CONTINUOUS
10
146.313
20
-81.7262
11
146.305
21
-81.7327
0
LINE
8
BLACK
6
CONTINUOUS
10
146.305
20
-81.7327
11
145.812
21
-82.2257
0
LINE
8
BLACK
6
CONTINUOUS
10
145.812
20
-82.2257
11
145.814
21
-82.2277
0
LINE
8
BLACK
6
CONTINUOUS
10
145.814
20
-82.2277
11
145.85
21
-82.3271
0
LINE
8
BLACK
6
CONTINUOUS
10
145.85
20
-82.3271
11
145.85
21
-82.4329
0
LINE
8
BLACK
6
CONTINUOUS
10
145.85
20
-82.4329
11
145.814
21
-82.5323
0
LINE
8
BLACK
6
CONTINUOUS
10
145.814
20
-82.5323
11
145.746
21
-82.6134
0
LINE
8
BLACK
6
CONTINUOUS
10
145.746
20
-82.6134
11
145.654
21
-82.6663
0
LINE
8
BLACK
6
CONTINUOUS
10
145.654
20
-82.6663
11
145.55
21
-82.6846
0
LINE
8
BLACK
6
CONTINUOUS
10
145.55
20
-82.6846
11
145.446
21
-82.6663
0
LINE
8
BLACK
6
CONTINUOUS
10
145.446
20
-82.6663
11
145.354
21
-82.6134
0
LINE
8
BLACK
6
CONTINUOUS
10
145.354
20
-82.6134
11
145.286
21
-82.5323
0
LINE
8
BLACK
6
CONTINUOUS
10
145.286
20
-82.5323
11
145.25
21
-82.4329
0
LINE
8
BLACK
6
CONTINUOUS
10
145.25
20
-82.4329
11
145.25
21
-82.3271
0
LINE
8
BLACK
6
CONTINUOUS
10
145.25
20
-82.3271
11
145.286
21
-82.2277
0
LINE
8
BLACK
6
CONTINUOUS
10
145.286
20
-82.2277
11
145.354
21
-82.1466
0
LINE
8
BLACK
6
CONTINUOUS
10
145.354
20
-82.1466
11
145.446
21
-82.0937
0
LINE
8
BLACK
6
CONTINUOUS
10
145.446
20
-82.0937
11
145.55
21
-82.0754
0
LINE
8
BLACK
6
CONTINUOUS
10
145.55
20
-82.0754
11
145.654
21
-82.0937
0
LINE
8
BLACK
6
CONTINUOUS
10
145.654
20
-82.0937
11
145.701
21
-82.1209
0
LINE
8
BLACK
6
CONTINUOUS
10
145.701
20
-82.1209
11
146.177
21
-81.6449
0
LINE
8
BLACK
6
CONTINUOUS
10
146.177
20
-81.6449
11
146.177
21
-73.2118
0
LINE
8
BLACK
6
CONTINUOUS
10
146.177
20
-73.2118
11
145.892
21
-72.9262
0
LINE
8
BLACK
6
CONTINUOUS
10
145.892
20
-72.9262
11
144.45
21
-72.9262
0
LINE
8
BLACK
6
CONTINUOUS
10
144.45
20
-72.9262
11
144.45
21
-72.3262
0
LINE
8
BLACK
6
CONTINUOUS
10
144.45
20
-72.3262
11
146
21
-72.3262
0
LINE
8
BLACK
6
CONTINUOUS
10
146
20
-72.3262
11
146
21
-72.8185
0
LINE
8
BLACK
6
CONTINUOUS
10
151.4
20
-75.0519
11
152.006
21
-75.0519
0
LINE
8
BLACK
6
CONTINUOUS
10
152.006
20
-75.0519
11
152.021
21
-75.0506
0
LINE
8
BLACK
6
CONTINUOUS
10
152.021
20
-75.0506
11
152.036
21
-75.0545
0
LINE
8
BLACK
6
CONTINUOUS
10
152.036
20
-75.0545
11
152.051
21
-75.0572
0
LINE
8
BLACK
6
CONTINUOUS
10
152.051
20
-75.0572
11
152.055
21
-75.0597
0
LINE
8
BLACK
6
CONTINUOUS
10
152.055
20
-75.0597
11
152.06
21
-75.061
0
LINE
8
BLACK
6
CONTINUOUS
10
152.06
20
-75.061
11
152.073
21
-75.0697
0
LINE
8
BLACK
6
CONTINUOUS
10
152.073
20
-75.0697
11
152.086
21
-75.0773
0
LINE
8
BLACK
6
CONTINUOUS
10
152.086
20
-75.0773
11
152.096
21
-75.0889
0
LINE
8
BLACK
6
CONTINUOUS
10
152.096
20
-75.0889
11
152.325
21
-75.3181
0
LINE
8
BLACK
6
CONTINUOUS
10
152.325
20
-75.3181
11
153.213
21
-75.3181
0
LINE
8
BLACK
6
CONTINUOUS
10
153.213
20
-75.3181
11
153.213
21
-76.5181
0
LINE
8
BLACK
6
CONTINUOUS
10
153.213
20
-76.5181
11
152.878
21
-76.5181
0
LINE
8
BLACK
6
CONTINUOUS
10
152.878
20
-76.5181
11
152.878
21
-77.97
0
LINE
8
BLACK
6
CONTINUOUS
10
152.878
20
-77.97
11
156.261
21
-81.3538
0
LINE
8
BLACK
6
CONTINUOUS
10
156.261
20
-81.3538
11
161.088
21
-81.3538
0
LINE
8
BLACK
6
CONTINUOUS
10
161.088
20
-81.3538
11
161.997
21
-80.4443
0
LINE
8
BLACK
6
CONTINUOUS
10
161.997
20
-80.4443
11
161.834
21
-80.162
0
LINE
8
BLACK
6
CONTINUOUS
10
161.834
20
-80.162
11
161.789
21
-79.9022
0
LINE
8
BLACK
6
CONTINUOUS
10
161.789
20
-79.9022
11
161.789
21
-79.1272
0
LINE
8
BLACK
6
CONTINUOUS
10
161.789
20
-79.1272
11
161.834
21
-78.8674
0
LINE
8
BLACK
6
CONTINUOUS
10
161.834
20
-78.8674
11
162.011
21
-78.562
0
LINE
8
BLACK
6
CONTINUOUS
10
162.011
20
-78.562
11
162.281
21
-78.3353
0
LINE
8
BLACK
6
CONTINUOUS
10
162.281
20
-78.3353
11
162.612
21
-78.2147
0
LINE
8
BLACK
6
CONTINUOUS
10
162.612
20
-78.2147
11
162.965
21
-78.2147
0
LINE
8
BLACK
6
CONTINUOUS
10
162.965
20
-78.2147
11
163.296
21
-78.3353
0
LINE
8
BLACK
6
CONTINUOUS
10
163.296
20
-78.3353
11
163.566
21
-78.562
0
LINE
8
BLACK
6
CONTINUOUS
10
163.566
20
-78.562
11
163.743
21
-78.8674
0
LINE
8
BLACK
6
CONTINUOUS
10
163.743
20
-78.8674
11
163.789
21
-79.1272
0
LINE
8
BLACK
6
CONTINUOUS
10
163.789
20
-79.1272
11
163.789
21
-79.9022
0
LINE
8
BLACK
6
CONTINUOUS
10
163.789
20
-79.9022
11
163.743
21
-80.162
0
LINE
8
BLACK
6
CONTINUOUS
10
163.743
20
-80.162
11
163.566
21
-80.4674
0
LINE
8
BLACK
6
CONTINUOUS
10
163.566
20
-80.4674
11
163.296
21
-80.6941
0
LINE
8
BLACK
6
CONTINUOUS
10
163.296
20
-80.6941
11
162.965
21
-80.8147
0
LINE
8
BLACK
6
CONTINUOUS
10
162.965
20
-80.8147
11
162.612
21
-80.8147
0
LINE
8
BLACK
6
CONTINUOUS
10
162.612
20
-80.8147
11
162.281
21
-80.6941
0
LINE
8
BLACK
6
CONTINUOUS
10
162.281
20
-80.6941
11
162.167
21
-80.5983
0
LINE
8
BLACK
6
CONTINUOUS
10
162.167
20
-80.5983
11
161.22
21
-81.5454
0
LINE
8
BLACK
6
CONTINUOUS
10
161.22
20
-81.5454
11
161.21
21
-81.557
0
LINE
8
BLACK
6
CONTINUOUS
10
161.21
20
-81.557
11
161.197
21
-81.5646
0
LINE
8
BLACK
6
CONTINUOUS
10
161.197
20
-81.5646
11
161.184
21
-81.5733
0
LINE
8
BLACK
6
CONTINUOUS
10
161.184
20
-81.5733
11
161.179
21
-81.5746
0
LINE
8
BLACK
6
CONTINUOUS
10
161.179
20
-81.5746
11
161.175
21
-81.5772
0
LINE
8
BLACK
6
CONTINUOUS
10
161.175
20
-81.5772
11
161.16
21
-81.5798
0
LINE
8
BLACK
6
CONTINUOUS
10
161.16
20
-81.5798
11
161.145
21
-81.5837
0
LINE
8
BLACK
6
CONTINUOUS
10
161.145
20
-81.5837
11
161.13
21
-81.5824
0
LINE
8
BLACK
6
CONTINUOUS
10
161.13
20
-81.5824
11
156.219
21
-81.5824
0
LINE
8
BLACK
6
CONTINUOUS
10
156.219
20
-81.5824
11
156.204
21
-81.5837
0
LINE
8
BLACK
6
CONTINUOUS
10
156.204
20
-81.5837
11
156.189
21
-81.5798
0
LINE
8
BLACK
6
CONTINUOUS
10
156.189
20
-81.5798
11
156.174
21
-81.5772
0
LINE
8
BLACK
6
CONTINUOUS
10
156.174
20
-81.5772
11
156.17
21
-81.5746
0
LINE
8
BLACK
6
CONTINUOUS
10
156.17
20
-81.5746
11
156.165
21
-81.5733
0
LINE
8
BLACK
6
CONTINUOUS
10
156.165
20
-81.5733
11
156.153
21
-81.5646
0
LINE
8
BLACK
6
CONTINUOUS
10
156.153
20
-81.5646
11
156.139
21
-81.557
0
LINE
8
BLACK
6
CONTINUOUS
10
156.139
20
-81.557
11
156.13
21
-81.5454
0
LINE
8
BLACK
6
CONTINUOUS
10
156.13
20
-81.5454
11
152.686
21
-78.1017
0
LINE
8
BLACK
6
CONTINUOUS
10
152.686
20
-78.1017
11
152.674
21
-78.0919
0
LINE
8
BLACK
6
CONTINUOUS
10
152.674
20
-78.0919
11
152.667
21
-78.0788
0
LINE
8
BLACK
6
CONTINUOUS
10
152.667
20
-78.0788
11
152.658
21
-78.0664
0
LINE
8
BLACK
6
CONTINUOUS
10
152.658
20
-78.0664
11
152.657
21
-78.0615
0
LINE
8
BLACK
6
CONTINUOUS
10
152.657
20
-78.0615
11
152.654
21
-78.057
0
LINE
8
BLACK
6
CONTINUOUS
10
152.654
20
-78.057
11
152.652
21
-78.0421
0
LINE
8
BLACK
6
CONTINUOUS
10
152.652
20
-78.0421
11
152.648
21
-78.0275
0
LINE
8
BLACK
6
CONTINUOUS
10
152.648
20
-78.0275
11
152.649
21
-78.0123
0
LINE
8
BLACK
6
CONTINUOUS
10
152.649
20
-78.0123
11
152.649
21
-76.5181
0
LINE
8
BLACK
6
CONTINUOUS
10
152.649
20
-76.5181
11
152.313
21
-76.5181
0
LINE
8
BLACK
6
CONTINUOUS
10
152.313
20
-76.5181
11
152.313
21
-75.6297
0
LINE
8
BLACK
6
CONTINUOUS
10
152.313
20
-75.6297
11
151.964
21
-75.2805
0
LINE
8
BLACK
6
CONTINUOUS
10
151.964
20
-75.2805
11
151.4
21
-75.2805
0
LINE
8
BLACK
6
CONTINUOUS
10
151.4
20
-75.2805
11
151.4
21
-75.4662
0
LINE
8
BLACK
6
CONTINUOUS
10
151.4
20
-75.4662
11
149.85
21
-75.4662
0
LINE
8
BLACK
6
CONTINUOUS
10
149.85
20
-75.4662
11
149.85
21
-74.8662
0
LINE
8
BLACK
6
CONTINUOUS
10
149.85
20
-74.8662
11
151.4
21
-74.8662
0
LINE
8
BLACK
6
CONTINUOUS
10
151.4
20
-74.8662
11
151.4
21
-75.0519
0
LINE
8
BLACK
6
CONTINUOUS
10
153.213
20
-73.6038
11
153.437
21
-73.6038
0
LINE
8
BLACK
6
CONTINUOUS
10
153.437
20
-73.6038
11
153.452
21
-73.6024
0
LINE
8
BLACK
6
CONTINUOUS
10
153.452
20
-73.6024
11
153.467
21
-73.6064
0
LINE
8
BLACK
6
CONTINUOUS
10
153.467
20
-73.6064
11
153.482
21
-73.609
0
LINE
8
BLACK
6
CONTINUOUS
10
153.482
20
-73.609
11
153.486
21
-73.6115
0
LINE
8
BLACK
6
CONTINUOUS
10
153.486
20
-73.6115
11
153.491
21
-73.6129
0
LINE
8
BLACK
6
CONTINUOUS
10
153.491
20
-73.6129
11
153.503
21
-73.6216
0
LINE
8
BLACK
6
CONTINUOUS
10
153.503
20
-73.6216
11
153.516
21
-73.6292
0
LINE
8
BLACK
6
CONTINUOUS
10
153.516
20
-73.6292
11
153.526
21
-73.6408
0
LINE
8
BLACK
6
CONTINUOUS
10
153.526
20
-73.6408
11
157.786
21
-77.9005
0
LINE
8
BLACK
6
CONTINUOUS
10
157.786
20
-77.9005
11
157.798
21
-77.9102
0
LINE
8
BLACK
6
CONTINUOUS
10
157.798
20
-77.9102
11
157.805
21
-77.9234
0
LINE
8
BLACK
6
CONTINUOUS
10
157.805
20
-77.9234
11
157.814
21
-77.9358
0
LINE
8
BLACK
6
CONTINUOUS
10
157.814
20
-77.9358
11
157.815
21
-77.9407
0
LINE
8
BLACK
6
CONTINUOUS
10
157.815
20
-77.9407
11
157.818
21
-77.9451
0
LINE
8
BLACK
6
CONTINUOUS
10
157.818
20
-77.9451
11
157.82
21
-77.9601
0
LINE
8
BLACK
6
CONTINUOUS
10
157.82
20
-77.9601
11
157.824
21
-77.9747
0
LINE
8
BLACK
6
CONTINUOUS
10
157.824
20
-77.9747
11
157.823
21
-77.9898
0
LINE
8
BLACK
6
CONTINUOUS
10
157.823
20
-77.9898
11
157.823
21
-78.2147
0
LINE
8
BLACK
6
CONTINUOUS
10
157.823
20
-78.2147
11
158.709
21
-78.2147
0
LINE
8
BLACK
6
CONTINUOUS
10
158.709
20
-78.2147
11
158.709
21
-80.8147
0
LINE
8
BLACK
6
CONTINUOUS
10
158.709
20
-80.8147
11
156.709
21
-80.8147
0
LINE
8
BLACK
6
CONTINUOUS
10
156.709
20
-80.8147
11
156.709
21
-78.2147
0
LINE
8
BLACK
6
CONTINUOUS
10
156.709
20
-78.2147
11
157.594
21
-78.2147
0
LINE
8
BLACK
6
CONTINUOUS
10
157.594
20
-78.2147
11
157.594
21
-78.0322
0
LINE
8
BLACK
6
CONTINUOUS
10
157.594
20
-78.0322
11
153.394
21
-73.8324
0
LINE
8
BLACK
6
CONTINUOUS
10
153.394
20
-73.8324
11
153.213
21
-73.8324
0
LINE
8
BLACK
6
CONTINUOUS
10
153.213
20
-73.8324
11
153.213
21
-74.3181
0
LINE
8
BLACK
6
CONTINUOUS
10
153.213
20
-74.3181
11
152.313
21
-74.3181
0
LINE
8
BLACK
6
CONTINUOUS
10
152.313
20
-74.3181
11
152.313
21
-74.0105
0
LINE
8
BLACK
6
CONTINUOUS
10
152.313
20
-74.0105
11
151.4
21
-74.0105
0
LINE
8
BLACK
6
CONTINUOUS
10
151.4
20
-74.0105
11
151.4
21
-74.1962
0
LINE
8
BLACK
6
CONTINUOUS
10
151.4
20
-74.1962
11
149.85
21
-74.1962
0
LINE
8
BLACK
6
CONTINUOUS
10
149.85
20
-74.1962
11
149.85
21
-73.5962
0
LINE
8
BLACK
6
CONTINUOUS
10
149.85
20
-73.5962
11
151.4
21
-73.5962
0
LINE
8
BLACK
6
CONTINUOUS
10
151.4
20
-73.5962
11
151.4
21
-73.7819
0
LINE
8
BLACK
6
CONTINUOUS
10
151.4
20
-73.7819
11
152.313
21
-73.7819
0
LINE
8
BLACK
6
CONTINUOUS
10
152.313
20
-73.7819
11
152.313
21
-73.1181
0
LINE
8
BLACK
6
CONTINUOUS
10
152.313
20
-73.1181
11
153.213
21
-73.1181
0
LINE
8
BLACK
6
CONTINUOUS
10
153.213
20
-73.1181
11
153.213
21
-73.6038
0
LINE
8
BLACK
6
CONTINUOUS
10
160.756
20
-78.3353
11
161.026
21
-78.562
0
LINE
8
BLACK
6
CONTINUOUS
10
161.026
20
-78.562
11
161.203
21
-78.8674
0
LINE
8
BLACK
6
CONTINUOUS
10
161.203
20
-78.8674
11
161.249
21
-79.1272
0
LINE
8
BLACK
6
CONTINUOUS
10
161.249
20
-79.1272
11
161.249
21
-79.9022
0
LINE
8
BLACK
6
CONTINUOUS
10
161.249
20
-79.9022
11
161.203
21
-80.162
0
LINE
8
BLACK
6
CONTINUOUS
10
161.203
20
-80.162
11
161.026
21
-80.4674
0
LINE
8
BLACK
6
CONTINUOUS
10
161.026
20
-80.4674
11
160.756
21
-80.6941
0
LINE
8
BLACK
6
CONTINUOUS
10
160.756
20
-80.6941
11
160.425
21
-80.8147
0
LINE
8
BLACK
6
CONTINUOUS
10
160.425
20
-80.8147
11
160.072
21
-80.8147
0
LINE
8
BLACK
6
CONTINUOUS
10
160.072
20
-80.8147
11
159.741
21
-80.6941
0
LINE
8
BLACK
6
CONTINUOUS
10
159.741
20
-80.6941
11
159.471
21
-80.4674
0
LINE
8
BLACK
6
CONTINUOUS
10
159.471
20
-80.4674
11
159.294
21
-80.162
0
LINE
8
BLACK
6
CONTINUOUS
10
159.294
20
-80.162
11
159.249
21
-79.9022
0
LINE
8
BLACK
6
CONTINUOUS
10
159.249
20
-79.9022
11
159.249
21
-79.1272
0
LINE
8
BLACK
6
CONTINUOUS
10
159.249
20
-79.1272
11
159.294
21
-78.8674
0
LINE
8
BLACK
6
CONTINUOUS
10
159.294
20
-78.8674
11
159.471
21
-78.562
0
LINE
8
BLACK
6
CONTINUOUS
10
159.471
20
-78.562
11
159.741
21
-78.3353
0
LINE
8
BLACK
6
CONTINUOUS
10
159.741
20
-78.3353
11
160.072
21
-78.2147
0
LINE
8
BLACK
6
CONTINUOUS
10
160.072
20
-78.2147
11
160.425
21
-78.2147
0
LINE
8
BLACK
6
CONTINUOUS
10
160.425
20
-78.2147
11
160.756
21
-78.3353
0
LINE
8
BLACK
6
CONTINUOUS
10
170.926
20
-80.8096
11
168.926
21
-80.8096
0
LINE
8
BLACK
6
CONTINUOUS
10
168.926
20
-80.8096
11
168.926
21
-78.2096
0
LINE
8
BLACK
6
CONTINUOUS
10
168.926
20
-78.2096
11
170.926
21
-78.2096
0
LINE
8
BLACK
6
CONTINUOUS
10
170.926
20
-78.2096
11
170.926
21
-80.8096
0
LINE
8
BLACK
6
CONTINUOUS
10
172.974
20
-78.3302
11
173.244
21
-78.5569
0
LINE
8
BLACK
6
CONTINUOUS
10
173.244
20
-78.5569
11
173.42
21
-78.8623
0
LINE
8
BLACK
6
CONTINUOUS
10
173.42
20
-78.8623
11
173.466
21
-79.1221
0
LINE
8
BLACK
6
CONTINUOUS
10
173.466
20
-79.1221
11
173.466
21
-79.8971
0
LINE
8
BLACK
6
CONTINUOUS
10
173.466
20
-79.8971
11
173.42
21
-80.1569
0
LINE
8
BLACK
6
CONTINUOUS
10
173.42
20
-80.1569
11
173.244
21
-80.4623
0
LINE
8
BLACK
6
CONTINUOUS
10
173.244
20
-80.4623
11
172.974
21
-80.689
0
LINE
8
BLACK
6
CONTINUOUS
10
172.974
20
-80.689
11
172.642
21
-80.8096
0
LINE
8
BLACK
6
CONTINUOUS
10
172.642
20
-80.8096
11
172.29
21
-80.8096
0
LINE
8
BLACK
6
CONTINUOUS
10
172.29
20
-80.8096
11
171.958
21
-80.689
0
LINE
8
BLACK
6
CONTINUOUS
10
171.958
20
-80.689
11
171.688
21
-80.4623
0
LINE
8
BLACK
6
CONTINUOUS
10
171.688
20
-80.4623
11
171.512
21
-80.1569
0
LINE
8
BLACK
6
CONTINUOUS
10
171.512
20
-80.1569
11
171.466
21
-79.8971
0
LINE
8
BLACK
6
CONTINUOUS
10
171.466
20
-79.8971
11
171.466
21
-79.1221
0
LINE
8
BLACK
6
CONTINUOUS
10
171.466
20
-79.1221
11
171.512
21
-78.8623
0
LINE
8
BLACK
6
CONTINUOUS
10
171.512
20
-78.8623
11
171.688
21
-78.5569
0
LINE
8
BLACK
6
CONTINUOUS
10
171.688
20
-78.5569
11
171.958
21
-78.3302
0
LINE
8
BLACK
6
CONTINUOUS
10
171.958
20
-78.3302
11
172.29
21
-78.2096
0
LINE
8
BLACK
6
CONTINUOUS
10
172.29
20
-78.2096
11
172.642
21
-78.2096
0
LINE
8
BLACK
6
CONTINUOUS
10
172.642
20
-78.2096
11
172.974
21
-78.3302
0
LINE
8
BLACK
6
CONTINUOUS
10
175.514
20
-78.3302
11
175.784
21
-78.5569
0
LINE
8
BLACK
6
CONTINUOUS
10
175.784
20
-78.5569
11
175.96
21
-78.8623
0
LINE
8
BLACK
6
CONTINUOUS
10
175.96
20
-78.8623
11
176.006
21
-79.1221
0
LINE
8
BLACK
6
CONTINUOUS
10
176.006
20
-79.1221
11
176.006
21
-79.8971
0
LINE
8
BLACK
6
CONTINUOUS
10
176.006
20
-79.8971
11
175.96
21
-80.1569
0
LINE
8
BLACK
6
CONTINUOUS
10
175.96
20
-80.1569
11
175.784
21
-80.4623
0
LINE
8
BLACK
6
CONTINUOUS
10
175.784
20
-80.4623
11
175.514
21
-80.689
0
LINE
8
BLACK
6
CONTINUOUS
10
175.514
20
-80.689
11
175.182
21
-80.8096
0
LINE
8
BLACK
6
CONTINUOUS
10
175.182
20
-80.8096
11
174.83
21
-80.8096
0
LINE
8
BLACK
6
CONTINUOUS
10
174.83
20
-80.8096
11
174.498
21
-80.689
0
LINE
8
BLACK
6
CONTINUOUS
10
174.498
20
-80.689
11
174.228
21
-80.4623
0
LINE
8
BLACK
6
CONTINUOUS
10
174.228
20
-80.4623
11
174.052
21
-80.1569
0
LINE
8
BLACK
6
CONTINUOUS
10
174.052
20
-80.1569
11
174.006
21
-79.8971
0
LINE
8
BLACK
6
CONTINUOUS
10
174.006
20
-79.8971
11
174.006
21
-79.1221
0
LINE
8
BLACK
6
CONTINUOUS
10
174.006
20
-79.1221
11
174.052
21
-78.8623
0
LINE
8
BLACK
6
CONTINUOUS
10
174.052
20
-78.8623
11
174.228
21
-78.5569
0
LINE
8
BLACK
6
CONTINUOUS
10
174.228
20
-78.5569
11
174.498
21
-78.3302
0
LINE
8
BLACK
6
CONTINUOUS
10
174.498
20
-78.3302
11
174.83
21
-78.2096
0
LINE
8
BLACK
6
CONTINUOUS
10
174.83
20
-78.2096
11
175.182
21
-78.2096
0
LINE
8
BLACK
6
CONTINUOUS
10
175.182
20
-78.2096
11
175.514
21
-78.3302
0
LINE
8
BLACK
6
CONTINUOUS
10
146
20
-76.7362
11
145.301
21
-76.7362
0
LINE
8
BLACK
6
CONTINUOUS
10
145.301
20
-76.7362
11
145.301
21
-77.2766
0
LINE
8
BLACK
6
CONTINUOUS
10
145.301
20
-77.2766
11
145.302
21
-77.2866
0
LINE
8
BLACK
6
CONTINUOUS
10
145.302
20
-77.2866
11
145.299
21
-77.2964
0
LINE
8
BLACK
6
CONTINUOUS
10
145.299
20
-77.2964
11
145.297
21
-77.3064
0
LINE
8
BLACK
6
CONTINUOUS
10
145.297
20
-77.3064
11
145.296
21
-77.3093
0
LINE
8
BLACK
6
CONTINUOUS
10
145.296
20
-77.3093
11
145.295
21
-77.3126
0
LINE
8
BLACK
6
CONTINUOUS
10
145.295
20
-77.3126
11
145.289
21
-77.3209
0
LINE
8
BLACK
6
CONTINUOUS
10
145.289
20
-77.3209
11
145.284
21
-77.3296
0
LINE
8
BLACK
6
CONTINUOUS
10
145.284
20
-77.3296
11
145.276
21
-77.3361
0
LINE
8
BLACK
6
CONTINUOUS
10
145.276
20
-77.3361
11
145.108
21
-77.5041
0
LINE
8
BLACK
6
CONTINUOUS
10
145.108
20
-77.5041
11
145.108
21
-77.5041
0
LINE
8
BLACK
6
CONTINUOUS
10
145.108
20
-77.5041
11
145.012
21
-77.6005
0
LINE
8
BLACK
6
CONTINUOUS
10
145.012
20
-77.6005
11
145.013
21
-77.6026
0
LINE
8
BLACK
6
CONTINUOUS
10
145.013
20
-77.6026
11
145.05
21
-77.702
0
LINE
8
BLACK
6
CONTINUOUS
10
145.05
20
-77.702
11
145.05
21
-77.8078
0
LINE
8
BLACK
6
CONTINUOUS
10
145.05
20
-77.8078
11
145.013
21
-77.9072
0
LINE
8
BLACK
6
CONTINUOUS
10
145.013
20
-77.9072
11
144.945
21
-77.9882
0
LINE
8
BLACK
6
CONTINUOUS
10
144.945
20
-77.9882
11
144.854
21
-78.0411
0
LINE
8
BLACK
6
CONTINUOUS
10
144.854
20
-78.0411
11
144.75
21
-78.0595
0
LINE
8
BLACK
6
CONTINUOUS
10
144.75
20
-78.0595
11
144.645
21
-78.0411
0
LINE
8
BLACK
6
CONTINUOUS
10
144.645
20
-78.0411
11
144.554
21
-77.9882
0
LINE
8
BLACK
6
CONTINUOUS
10
144.554
20
-77.9882
11
144.486
21
-77.9072
0
LINE
8
BLACK
6
CONTINUOUS
10
144.486
20
-77.9072
11
144.45
21
-77.8078
0
LINE
8
BLACK
6
CONTINUOUS
10
144.45
20
-77.8078
11
144.45
21
-77.702
0
LINE
8
BLACK
6
CONTINUOUS
10
144.45
20
-77.702
11
144.486
21
-77.6026
0
LINE
8
BLACK
6
CONTINUOUS
10
144.486
20
-77.6026
11
144.554
21
-77.5215
0
LINE
8
BLACK
6
CONTINUOUS
10
144.554
20
-77.5215
11
144.645
21
-77.4686
0
LINE
8
BLACK
6
CONTINUOUS
10
144.645
20
-77.4686
11
144.75
21
-77.4503
0
LINE
8
BLACK
6
CONTINUOUS
10
144.75
20
-77.4503
11
144.854
21
-77.4686
0
LINE
8
BLACK
6
CONTINUOUS
10
144.854
20
-77.4686
11
144.901
21
-77.4958
0
LINE
8
BLACK
6
CONTINUOUS
10
144.901
20
-77.4958
11
145
21
-77.3963
0
LINE
8
BLACK
6
CONTINUOUS
10
145
20
-77.3963
11
145
21
-77.3963
0
LINE
8
BLACK
6
CONTINUOUS
10
145
20
-77.3963
11
145.148
21
-77.2483
0
LINE
8
BLACK
6
CONTINUOUS
10
145.148
20
-77.2483
11
145.148
21
-76.7362
0
LINE
8
BLACK
6
CONTINUOUS
10
145.148
20
-76.7362
11
144.45
21
-76.7362
0
LINE
8
BLACK
6
CONTINUOUS
10
144.45
20
-76.7362
11
144.45
21
-76.1362
0
LINE
8
BLACK
6
CONTINUOUS
10
144.45
20
-76.1362
11
146
21
-76.1362
0
LINE
8
BLACK
6
CONTINUOUS
10
146
20
-76.1362
11
146
21
-76.7362
0
LINE
8
BLACK
6
CONTINUOUS
10
135.495
20
-77.3218
11
133.795
21
-77.3218
0
LINE
8
BLACK
6
CONTINUOUS
10
133.795
20
-77.3218
11
133.795
21
-75.6218
0
LINE
8
BLACK
6
CONTINUOUS
10
133.795
20
-75.6218
11
135.495
21
-75.6218
0
LINE
8
BLACK
6
CONTINUOUS
10
135.495
20
-75.6218
11
135.495
21
-77.3218
0
LINE
8
BLACK
6
CONTINUOUS
10
149.344
20
-75.3637
11
149.436
21
-75.4166
0
LINE
8
BLACK
6
CONTINUOUS
10
149.436
20
-75.4166
11
149.504
21
-75.4977
0
LINE
8
BLACK
6
CONTINUOUS
10
149.504
20
-75.4977
11
149.54
21
-75.5971
0
LINE
8
BLACK
6
CONTINUOUS
10
149.54
20
-75.5971
11
149.54
21
-75.7029
0
LINE
8
BLACK
6
CONTINUOUS
10
149.54
20
-75.7029
11
149.517
21
-75.7656
0
LINE
8
BLACK
6
CONTINUOUS
10
149.517
20
-75.7656
11
149.888
21
-76.1362
0
LINE
8
BLACK
6
CONTINUOUS
10
149.888
20
-76.1362
11
151.4
21
-76.1362
0
LINE
8
BLACK
6
CONTINUOUS
10
151.4
20
-76.1362
11
151.4
21
-76.7362
0
LINE
8
BLACK
6
CONTINUOUS
10
151.4
20
-76.7362
11
149.85
21
-76.7362
0
LINE
8
BLACK
6
CONTINUOUS
10
149.85
20
-76.7362
11
149.85
21
-76.4212
0
LINE
8
BLACK
6
CONTINUOUS
10
149.85
20
-76.4212
11
149.357
21
-75.9288
0
LINE
8
BLACK
6
CONTINUOUS
10
149.357
20
-75.9288
11
149.344
21
-75.9363
0
LINE
8
BLACK
6
CONTINUOUS
10
149.344
20
-75.9363
11
149.24
21
-75.9546
0
LINE
8
BLACK
6
CONTINUOUS
10
149.24
20
-75.9546
11
149.136
21
-75.9363
0
LINE
8
BLACK
6
CONTINUOUS
10
149.136
20
-75.9363
11
149.044
21
-75.8834
0
LINE
8
BLACK
6
CONTINUOUS
10
149.044
20
-75.8834
11
148.976
21
-75.8023
0
LINE
8
BLACK
6
CONTINUOUS
10
148.976
20
-75.8023
11
148.94
21
-75.7029
0
LINE
8
BLACK
6
CONTINUOUS
10
148.94
20
-75.7029
11
148.94
21
-75.5971
0
LINE
8
BLACK
6
CONTINUOUS
10
148.94
20
-75.5971
11
148.976
21
-75.4977
0
LINE
8
BLACK
6
CONTINUOUS
10
148.976
20
-75.4977
11
149.044
21
-75.4166
0
LINE
8
BLACK
6
CONTINUOUS
10
149.044
20
-75.4166
11
149.136
21
-75.3637
0
LINE
8
BLACK
6
CONTINUOUS
10
149.136
20
-75.3637
11
149.24
21
-75.3454
0
LINE
8
BLACK
6
CONTINUOUS
10
149.24
20
-75.3454
11
149.344
21
-75.3637
0
LINE
8
BLACK
6
CONTINUOUS
10
146.974
20
-75.0737
11
147.066
21
-75.1266
0
LINE
8
BLACK
6
CONTINUOUS
10
147.066
20
-75.1266
11
147.134
21
-75.2077
0
LINE
8
BLACK
6
CONTINUOUS
10
147.134
20
-75.2077
11
147.17
21
-75.3071
0
LINE
8
BLACK
6
CONTINUOUS
10
147.17
20
-75.3071
11
147.17
21
-75.4129
0
LINE
8
BLACK
6
CONTINUOUS
10
147.17
20
-75.4129
11
147.134
21
-75.5123
0
LINE
8
BLACK
6
CONTINUOUS
10
147.134
20
-75.5123
11
147.066
21
-75.5934
0
LINE
8
BLACK
6
CONTINUOUS
10
147.066
20
-75.5934
11
146.974
21
-75.6463
0
LINE
8
BLACK
6
CONTINUOUS
10
146.974
20
-75.6463
11
146.87
21
-75.6646
0
LINE
8
BLACK
6
CONTINUOUS
10
146.87
20
-75.6646
11
146.766
21
-75.6463
0
LINE
8
BLACK
6
CONTINUOUS
10
146.766
20
-75.6463
11
146.674
21
-75.5934
0
LINE
8
BLACK
6
CONTINUOUS
10
146.674
20
-75.5934
11
146.606
21
-75.5123
0
LINE
8
BLACK
6
CONTINUOUS
10
146.606
20
-75.5123
11
146.57
21
-75.4129
0
LINE
8
BLACK
6
CONTINUOUS
10
146.57
20
-75.4129
11
146.57
21
-75.3071
0
LINE
8
BLACK
6
CONTINUOUS
10
146.57
20
-75.3071
11
146.606
21
-75.2077
0
LINE
8
BLACK
6
CONTINUOUS
10
146.606
20
-75.2077
11
146.674
21
-75.1266
0
LINE
8
BLACK
6
CONTINUOUS
10
146.674
20
-75.1266
11
146.766
21
-75.0737
0
LINE
8
BLACK
6
CONTINUOUS
10
146.766
20
-75.0737
11
146.87
21
-75.0554
0
LINE
8
BLACK
6
CONTINUOUS
10
146.87
20
-75.0554
11
146.974
21
-75.0737
0
LINE
8
BLACK
6
CONTINUOUS
10
186.429
20
-71.4077
11
186.81
21
-71.6281
0
LINE
8
BLACK
6
CONTINUOUS
10
186.81
20
-71.6281
11
187.094
21
-71.9658
0
LINE
8
BLACK
6
CONTINUOUS
10
187.094
20
-71.9658
11
187.245
21
-72.38
0
LINE
8
BLACK
6
CONTINUOUS
10
187.245
20
-72.38
11
187.245
21
-72.8208
0
LINE
8
BLACK
6
CONTINUOUS
10
187.245
20
-72.8208
11
187.094
21
-73.235
0
LINE
8
BLACK
6
CONTINUOUS
10
187.094
20
-73.235
11
186.81
21
-73.5727
0
LINE
8
BLACK
6
CONTINUOUS
10
186.81
20
-73.5727
11
186.429
21
-73.7931
0
LINE
8
BLACK
6
CONTINUOUS
10
186.429
20
-73.7931
11
185.995
21
-73.8697
0
LINE
8
BLACK
6
CONTINUOUS
10
185.995
20
-73.8697
11
185.56
21
-73.7931
0
LINE
8
BLACK
6
CONTINUOUS
10
185.56
20
-73.7931
11
185.179
21
-73.5727
0
LINE
8
BLACK
6
CONTINUOUS
10
185.179
20
-73.5727
11
184.895
21
-73.235
0
LINE
8
BLACK
6
CONTINUOUS
10
184.895
20
-73.235
11
184.745
21
-72.8208
0
LINE
8
BLACK
6
CONTINUOUS
10
184.745
20
-72.8208
11
184.745
21
-72.38
0
LINE
8
BLACK
6
CONTINUOUS
10
184.745
20
-72.38
11
184.895
21
-71.9658
0
LINE
8
BLACK
6
CONTINUOUS
10
184.895
20
-71.9658
11
185.179
21
-71.6281
0
LINE
8
BLACK
6
CONTINUOUS
10
185.179
20
-71.6281
11
185.56
21
-71.4077
0
LINE
8
BLACK
6
CONTINUOUS
10
185.56
20
-71.4077
11
185.995
21
-71.3311
0
LINE
8
BLACK
6
CONTINUOUS
10
185.995
20
-71.3311
11
186.429
21
-71.4077
0
LINE
8
BLACK
6
CONTINUOUS
10
109.629
20
-71.4077
11
110.01
21
-71.6281
0
LINE
8
BLACK
6
CONTINUOUS
10
110.01
20
-71.6281
11
110.294
21
-71.9658
0
LINE
8
BLACK
6
CONTINUOUS
10
110.294
20
-71.9658
11
110.445
21
-72.38
0
LINE
8
BLACK
6
CONTINUOUS
10
110.445
20
-72.38
11
110.445
21
-72.8208
0
LINE
8
BLACK
6
CONTINUOUS
10
110.445
20
-72.8208
11
110.294
21
-73.235
0
LINE
8
BLACK
6
CONTINUOUS
10
110.294
20
-73.235
11
110.01
21
-73.5727
0
LINE
8
BLACK
6
CONTINUOUS
10
110.01
20
-73.5727
11
109.629
21
-73.7931
0
LINE
8
BLACK
6
CONTINUOUS
10
109.629
20
-73.7931
11
109.195
21
-73.8697
0
LINE
8
BLACK
6
CONTINUOUS
10
109.195
20
-73.8697
11
108.76
21
-73.7931
0
LINE
8
BLACK
6
CONTINUOUS
10
108.76
20
-73.7931
11
108.379
21
-73.5727
0
LINE
8
BLACK
6
CONTINUOUS
10
108.379
20
-73.5727
11
108.095
21
-73.235
0
LINE
8
BLACK
6
CONTINUOUS
10
108.095
20
-73.235
11
107.945
21
-72.8208
0
LINE
8
BLACK
6
CONTINUOUS
10
107.945
20
-72.8208
11
107.945
21
-72.38
0
LINE
8
BLACK
6
CONTINUOUS
10
107.945
20
-72.38
11
108.095
21
-71.9658
0
LINE
8
BLACK
6
CONTINUOUS
10
108.095
20
-71.9658
11
108.379
21
-71.6281
0
LINE
8
BLACK
6
CONTINUOUS
10
108.379
20
-71.6281
11
108.76
21
-71.4077
0
LINE
8
BLACK
6
CONTINUOUS
10
108.76
20
-71.4077
11
109.195
21
-71.3311
0
LINE
8
BLACK
6
CONTINUOUS
10
109.195
20
-71.3311
11
109.629
21
-71.4077
0
LINE
8
BLACK
6
CONTINUOUS
10
151.4
20
-72.9262
11
149.85
21
-72.9262
0
LINE
8
BLACK
6
CONTINUOUS
10
149.85
20
-72.9262
11
149.85
21
-72.7405
0
LINE
8
BLACK
6
CONTINUOUS
10
149.85
20
-72.7405
11
149.668
21
-72.7405
0
LINE
8
BLACK
6
CONTINUOUS
10
149.668
20
-72.7405
11
149.572
21
-72.8373
0
LINE
8
BLACK
6
CONTINUOUS
10
149.572
20
-72.8373
11
149.562
21
-72.8489
0
LINE
8
BLACK
6
CONTINUOUS
10
149.562
20
-72.8489
11
149.549
21
-72.8565
0
LINE
8
BLACK
6
CONTINUOUS
10
149.549
20
-72.8565
11
149.536
21
-72.8652
0
LINE
8
BLACK
6
CONTINUOUS
10
149.536
20
-72.8652
11
149.531
21
-72.8665
0
LINE
8
BLACK
6
CONTINUOUS
10
149.531
20
-72.8665
11
149.527
21
-72.8691
0
LINE
8
BLACK
6
CONTINUOUS
10
149.527
20
-72.8691
11
149.512
21
-72.8717
0
LINE
8
BLACK
6
CONTINUOUS
10
149.512
20
-72.8717
11
149.498
21
-72.8754
0
LINE
8
BLACK
6
CONTINUOUS
10
149.498
20
-72.8754
11
149.474
21
-72.9423
0
LINE
8
BLACK
6
CONTINUOUS
10
149.474
20
-72.9423
11
149.406
21
-73.0234
0
LINE
8
BLACK
6
CONTINUOUS
10
149.406
20
-73.0234
11
149.314
21
-73.0763
0
LINE
8
BLACK
6
CONTINUOUS
10
149.314
20
-73.0763
11
149.21
21
-73.0946
0
LINE
8
BLACK
6
CONTINUOUS
10
149.21
20
-73.0946
11
149.106
21
-73.0763
0
LINE
8
BLACK
6
CONTINUOUS
10
149.106
20
-73.0763
11
149.014
21
-73.0234
0
LINE
8
BLACK
6
CONTINUOUS
10
149.014
20
-73.0234
11
148.946
21
-72.9423
0
LINE
8
BLACK
6
CONTINUOUS
10
148.946
20
-72.9423
11
148.91
21
-72.8429
0
LINE
8
BLACK
6
CONTINUOUS
10
148.91
20
-72.8429
11
148.91
21
-72.7371
0
LINE
8
BLACK
6
CONTINUOUS
10
148.91
20
-72.7371
11
148.946
21
-72.6377
0
LINE
8
BLACK
6
CONTINUOUS
10
148.946
20
-72.6377
11
149.014
21
-72.5566
0
LINE
8
BLACK
6
CONTINUOUS
10
149.014
20
-72.5566
11
149.106
21
-72.5037
0
LINE
8
BLACK
6
CONTINUOUS
10
149.106
20
-72.5037
11
149.21
21
-72.4854
0
LINE
8
BLACK
6
CONTINUOUS
10
149.21
20
-72.4854
11
149.314
21
-72.5037
0
LINE
8
BLACK
6
CONTINUOUS
10
149.314
20
-72.5037
11
149.406
21
-72.5566
0
LINE
8
BLACK
6
CONTINUOUS
10
149.406
20
-72.5566
11
149.462
21
-72.6236
0
LINE
8
BLACK
6
CONTINUOUS
10
149.462
20
-72.6236
11
149.537
21
-72.5489
0
LINE
8
BLACK
6
CONTINUOUS
10
149.537
20
-72.5489
11
149.546
21
-72.5373
0
LINE
8
BLACK
6
CONTINUOUS
10
149.546
20
-72.5373
11
149.559
21
-72.5297
0
LINE
8
BLACK
6
CONTINUOUS
10
149.559
20
-72.5297
11
149.572
21
-72.521
0
LINE
8
BLACK
6
CONTINUOUS
10
149.572
20
-72.521
11
149.577
21
-72.5197
0
LINE
8
BLACK
6
CONTINUOUS
10
149.577
20
-72.5197
11
149.581
21
-72.5172
0
LINE
8
BLACK
6
CONTINUOUS
10
149.581
20
-72.5172
11
149.596
21
-72.5145
0
LINE
8
BLACK
6
CONTINUOUS
10
149.596
20
-72.5145
11
149.611
21
-72.5106
0
LINE
8
BLACK
6
CONTINUOUS
10
149.611
20
-72.5106
11
149.626
21
-72.5119
0
LINE
8
BLACK
6
CONTINUOUS
10
149.626
20
-72.5119
11
149.85
21
-72.5119
0
LINE
8
BLACK
6
CONTINUOUS
10
149.85
20
-72.5119
11
149.85
21
-72.3262
0
LINE
8
BLACK
6
CONTINUOUS
10
149.85
20
-72.3262
11
151.4
21
-72.3262
0
LINE
8
BLACK
6
CONTINUOUS
10
151.4
20
-72.3262
11
151.4
21
-72.9262
0
CIRCLE
8
BLACK
10
184.188
20
-100.114
40
0.6
0
CIRCLE
8
BLACK
10
184.188
20
-97.5741
40
0.6
0
CIRCLE
8
BLACK
10
184.188
20
-95.0341
40
0.6
0
CIRCLE
8
BLACK
10
184.188
20
-92.4941
40
0.6
0
CIRCLE
8
BLACK
10
157.709
20
-79.5147
40
0.6
0
CIRCLE
8
BLACK
10
160.249
20
-79.5147
40
0.6
0
CIRCLE
8
BLACK
10
162.789
20
-79.5147
40
0.6
0
CIRCLE
8
BLACK
10
169.926
20
-79.5096
40
0.6
0
CIRCLE
8
BLACK
10
172.466
20
-79.5096
40
0.6
0
CIRCLE
8
BLACK
10
175.006
20
-79.5096
40
0.6
0
CIRCLE
8
BLACK
10
134.645
20
-76.4718
40
0.5
0
CIRCLE
8
BLACK
10
134.645
20
-79.0118
40
0.5
0
CIRCLE
8
BLACK
10
109.195
20
-72.6004
40
1.25
0
CIRCLE
8
BLACK
10
185.995
20
-72.6004
40
1.25
0
CIRCLE
8
BLACK
10
109.195
20
-107.34
40
1.25
0
CIRCLE
8
BLACK
10
185.995
20
-107.34
40
1.25
0
CIRCLE
8
BLACK
10
149.24
20
-75.65
40
0.2
0
CIRCLE
8
BLACK
10
138.43
20
-106.68
40
0.2
0
CIRCLE
8
BLACK
10
140.815
20
-74.4208
40
0.2
0
CIRCLE
8
BLACK
10
146.87
20
-75.36
40
0.2
0
CIRCLE
8
BLACK
10
110.49
20
-83.82
40
0.2
0
CIRCLE
8
BLACK
10
149.21
20
-72.79
40
0.2
0
CIRCLE
8
BLACK
10
120.65
20
-74.93
40
0.2
0
CIRCLE
8
BLACK
10
117.348
20
-76.073
40
0.2
0
CIRCLE
8
BLACK
10
120.65
20
-87.63
40
0.2
0
CIRCLE
8
BLACK
10
120.65
20
-90.17
40
0.2
0
CIRCLE
8
BLACK
10
119.38
20
-102.87
40
0.2
0
CIRCLE
8
BLACK
10
129.642
20
-106.248
40
0.2
0
CIRCLE
8
BLACK
10
129.642
20
-96.139
40
0.2
0
CIRCLE
8
BLACK
10
129.642
20
-86.0298
40
0.2
0
CIRCLE
8
BLACK
10
129.651
20
-75.9304
40
0.2
0
CIRCLE
8
BLACK
10
115.06
20
-92.38
40
0.2
0
CIRCLE
8
BLACK
10
143.306
20
-75.9304
40
0.2
0
CIRCLE
8
BLACK
10
143.51
20
-106.274
40
0.2
0
CIRCLE
8
BLACK
10
143.51
20
-96.139
40
0.2
0
CIRCLE
8
BLACK
10
143.509
20
-86.0304
40
0.2
0
CIRCLE
8
BLACK
10
153.911
20
-104.645
40
0.2
0
CIRCLE
8
BLACK
10
125.791
20
-81.1352
40
0.2
0
CIRCLE
8
BLACK
10
153.744
20
-82.3466
40
0.2
0
CIRCLE
8
BLACK
10
153.76
20
-96.1404
40
0.2
0
CIRCLE
8
BLACK
10
153.754
20
-86.0298
40
0.2
0
CIRCLE
8
BLACK
10
167.604
20
-75.9536
40
0.2
0
CIRCLE
8
BLACK
10
167.62
20
-86.0069
40
0.2
0
CIRCLE
8
BLACK
10
167.622
20
-96.1339
40
0.2
0
CIRCLE
8
BLACK
10
167.622
20
-106.243
40
0.2
0
CIRCLE
8
BLACK
10
126.111
20
-72.451
40
0.2
0
CIRCLE
8
BLACK
10
125.35
20
-84.41
40
0.2
0
CIRCLE
8
BLACK
10
142.56
20
-91.34
40
0.2
0
CIRCLE
8
BLACK
10
125.04
20
-97
40
0.2
0
CIRCLE
8
BLACK
10
146.46
20
-97.83
40
0.2
0
CIRCLE
8
BLACK
10
117.95
20
-98.61
40
0.2
0
CIRCLE
8
BLACK
10
147.19
20
-98.55
40
0.2
0
CIRCLE
8
BLACK
10
144.75
20
-77.7549
40
0.2
0
CIRCLE
8
BLACK
10
134.27
20
-83.05
40
0.2
0
CIRCLE
8
BLACK
10
145.55
20
-82.38
40
0.2
0
CIRCLE
8
BLACK
10
143.28
20
-87.67
40
0.2
0
CIRCLE
8
BLACK
10
144.97
20
-86.57
40
0.2
  0
ENDSEC
  0
EOF
