  0
SECTION
  2
HEADER
  9
$ANGBASE
  50
0.0
  9
$ANGDIR
  70
  1
  9
$MEASUREMENT
  70
0
  0
ENDSEC
  0
SECTION
  2
TABLES
  0
TABLE
  2
LTYPE
  70
4
  0
LTYPE
  5
40F
  2
CONTINUOUS
  70
0
  3
Solid line
  72
65
  73
0
  40
0.0
  0
LTYPE
  5
410
  2
DASHDOT
 70
0
  3
Dash Dot ____ _ ____ _
 72
65
 73
4
 40
2.0
 49
1.25
 49
-0.25
 49
0.25
 49
-0.25
  0
LTYPE
  5
411
  2
DASHED
 70
0
  3
Dashed __ __ __ __ __
 72
65
 73
2
 40
0.75
 49
0.5
 49
-0.25
  0
LTYPE
  5
43B
  2
DOTTED
 70
0
  3
Dotted .  .  .  .
 72
65
 73
2
 40
0.2
 49
0.0
 49
-0.2
  0
ENDTAB
  0
TABLE
  2
STYLE
  70
4
  0
STYLE
  2
KICAD
  70
0
  40
0
  41
1
  42
1
  50
0
  71
0
  3
isocp.shx
  0
STYLE
  2
KICADB
  70
0
  40
0
  41
1
  42
1
  50
0
  71
0
  3
isocp.shx
  0
STYLE
  2
KICADI
  70
0
  40
0
  41
1
  42
1
  50
15
  71
0
  3
isocp.shx
  0
STYLE
  2
KICADBI
  70
0
  40
0
  41
1
  42
1
  50
15
  71
0
  3
isocp.shx
  0
ENDTAB
  0
TABLE
  2
LAYER
  70
30
  0
LAYER
  2
BLACK
  70
0
  62
7
  6
CONTINUOUS
  0
LAYER
  2
GRAY1
  70
0
  62
251
  6
CONTINUOUS
  0
LAYER
  2
GRAY2
  70
0
  62
8
  6
CONTINUOUS
  0
LAYER
  2
GRAY3
  70
0
  62
9
  6
CONTINUOUS
  0
LAYER
  2
WHITE
  70
0
  62
7
  6
CONTINUOUS
  0
LAYER
  2
LYELLOW
  70
0
  62
51
  6
CONTINUOUS
  0
LAYER
  2
BLUE1
  70
0
  62
178
  6
CONTINUOUS
  0
LAYER
  2
GREEN1
  70
0
  62
98
  6
CONTINUOUS
  0
LAYER
  2
CYAN1
  70
0
  62
138
  6
CONTINUOUS
  0
LAYER
  2
RED1
  70
0
  62
18
  6
CONTINUOUS
  0
LAYER
  2
MAGENTA1
  70
0
  62
228
  6
CONTINUOUS
  0
LAYER
  2
BROWN1
  70
0
  62
58
  6
CONTINUOUS
  0
LAYER
  2
BLUE2
  70
0
  62
5
  6
CONTINUOUS
  0
LAYER
  2
GREEN2
  70
0
  62
3
  6
CONTINUOUS
  0
LAYER
  2
CYAN2
  70
0
  62
4
  6
CONTINUOUS
  0
LAYER
  2
RED2
  70
0
  62
1
  6
CONTINUOUS
  0
LAYER
  2
MAGENTA2
  70
0
  62
6
  6
CONTINUOUS
  0
LAYER
  2
BROWN2
  70
0
  62
54
  6
CONTINUOUS
  0
LAYER
  2
BLUE3
  70
0
  62
171
  6
CONTINUOUS
  0
LAYER
  2
GREEN3
  70
0
  62
91
  6
CONTINUOUS
  0
LAYER
  2
CYAN3
  70
0
  62
131
  6
CONTINUOUS
  0
LAYER
  2
RED3
  70
0
  62
11
  6
CONTINUOUS
  0
LAYER
  2
MAGENTA3
  70
0
  62
221
  6
CONTINUOUS
  0
LAYER
  2
YELLOW3
  70
0
  62
2
  6
CONTINUOUS
  0
LAYER
  2
BLUE4
  70
0
  62
5
  6
CONTINUOUS
  0
LAYER
  2
GREEN4
  70
0
  62
3
  6
CONTINUOUS
  0
LAYER
  2
CYAN4
  70
0
  62
4
  6
CONTINUOUS
  0
LAYER
  2
RED4
  70
0
  62
1
  6
CONTINUOUS
  0
LAYER
  2
MAGENTA4
  70
0
  62
6
  6
CONTINUOUS
  0
LAYER
  2
YELLOW4
  70
0
  62
2
  6
CONTINUOUS
  0
ENDTAB
  0
ENDSEC
  0
SECTION
  2
ENTITIES
0
LINE
8
BLACK
6
CONTINUOUS
10
188.573
20
-109.898
11
188.572
21
-109.902
0
LINE
8
BLACK
6
CONTINUOUS
10
188.572
20
-109.902
11
188.57
21
-109.906
0
LINE
8
BLACK
6
CONTINUOUS
10
188.57
20
-109.906
11
188.569
21
-109.91
0
LINE
8
BLACK
6
CONTINUOUS
10
188.569
20
-109.91
11
188.566
21
-109.913
0
LINE
8
BLACK
6
CONTINUOUS
10
188.566
20
-109.913
11
188.563
21
-109.917
0
LINE
8
BLACK
6
CONTINUOUS
10
188.563
20
-109.917
11
188.56
21
-109.92
0
LINE
8
BLACK
6
CONTINUOUS
10
188.56
20
-109.92
11
188.557
21
-109.923
0
LINE
8
BLACK
6
CONTINUOUS
10
188.557
20
-109.923
11
188.553
21
-109.926
0
LINE
8
BLACK
6
CONTINUOUS
10
188.553
20
-109.926
11
188.55
21
-109.929
0
LINE
8
BLACK
6
CONTINUOUS
10
188.55
20
-109.929
11
188.546
21
-109.93
0
LINE
8
BLACK
6
CONTINUOUS
10
188.546
20
-109.93
11
188.542
21
-109.932
0
LINE
8
BLACK
6
CONTINUOUS
10
188.542
20
-109.932
11
188.538
21
-109.933
0
LINE
8
BLACK
6
CONTINUOUS
10
188.538
20
-109.933
11
188.533
21
-109.935
0
LINE
8
BLACK
6
CONTINUOUS
10
188.533
20
-109.935
11
106.64
21
-109.935
0
LINE
8
BLACK
6
CONTINUOUS
10
106.64
20
-109.935
11
106.636
21
-109.933
0
LINE
8
BLACK
6
CONTINUOUS
10
106.636
20
-109.933
11
106.631
21
-109.932
0
LINE
8
BLACK
6
CONTINUOUS
10
106.631
20
-109.932
11
106.627
21
-109.93
0
LINE
8
BLACK
6
CONTINUOUS
10
106.627
20
-109.93
11
106.623
21
-109.929
0
LINE
8
BLACK
6
CONTINUOUS
10
106.623
20
-109.929
11
106.62
21
-109.926
0
LINE
8
BLACK
6
CONTINUOUS
10
106.62
20
-109.926
11
106.616
21
-109.923
0
LINE
8
BLACK
6
CONTINUOUS
10
106.616
20
-109.923
11
106.613
21
-109.92
0
LINE
8
BLACK
6
CONTINUOUS
10
106.613
20
-109.92
11
106.61
21
-109.917
0
LINE
8
BLACK
6
CONTINUOUS
10
106.61
20
-109.917
11
106.607
21
-109.913
0
LINE
8
BLACK
6
CONTINUOUS
10
106.607
20
-109.913
11
106.605
21
-109.91
0
LINE
8
BLACK
6
CONTINUOUS
10
106.605
20
-109.91
11
106.603
21
-109.906
0
LINE
8
BLACK
6
CONTINUOUS
10
106.603
20
-109.906
11
106.601
21
-109.902
0
LINE
8
BLACK
6
CONTINUOUS
10
106.601
20
-109.902
11
106.6
21
-109.898
0
LINE
8
BLACK
6
CONTINUOUS
10
106.6
20
-109.898
11
106.599
21
-109.893
0
LINE
8
BLACK
6
CONTINUOUS
10
106.599
20
-109.893
11
106.599
21
-109.876
0
LINE
8
BLACK
6
CONTINUOUS
10
106.599
20
-109.876
11
106.599
21
-109.876
0
LINE
8
BLACK
6
CONTINUOUS
10
106.599
20
-109.876
11
106.599
21
-70.0642
0
LINE
8
BLACK
6
CONTINUOUS
10
106.599
20
-70.0642
11
106.599
21
-70.0598
0
LINE
8
BLACK
6
CONTINUOUS
10
106.599
20
-70.0598
11
106.6
21
-70.0556
0
LINE
8
BLACK
6
CONTINUOUS
10
106.6
20
-70.0556
11
106.601
21
-70.0512
0
LINE
8
BLACK
6
CONTINUOUS
10
106.601
20
-70.0512
11
106.603
21
-70.0474
0
LINE
8
BLACK
6
CONTINUOUS
10
106.603
20
-70.0474
11
106.605
21
-70.0432
0
LINE
8
BLACK
6
CONTINUOUS
10
106.605
20
-70.0432
11
106.607
21
-70.0398
0
LINE
8
BLACK
6
CONTINUOUS
10
106.607
20
-70.0398
11
106.61
21
-70.036
0
LINE
8
BLACK
6
CONTINUOUS
10
106.61
20
-70.036
11
106.613
21
-70.0331
0
LINE
8
BLACK
6
CONTINUOUS
10
106.613
20
-70.0331
11
106.616
21
-70.0297
0
LINE
8
BLACK
6
CONTINUOUS
10
106.616
20
-70.0297
11
106.62
21
-70.0275
0
LINE
8
BLACK
6
CONTINUOUS
10
106.62
20
-70.0275
11
106.623
21
-70.0246
0
LINE
8
BLACK
6
CONTINUOUS
10
106.623
20
-70.0246
11
106.627
21
-70.0231
0
LINE
8
BLACK
6
CONTINUOUS
10
106.627
20
-70.0231
11
106.631
21
-70.0209
0
LINE
8
BLACK
6
CONTINUOUS
10
106.631
20
-70.0209
11
106.636
21
-70.0201
0
LINE
8
BLACK
6
CONTINUOUS
10
106.636
20
-70.0201
11
106.64
21
-70.0186
0
LINE
8
BLACK
6
CONTINUOUS
10
106.64
20
-70.0186
11
188.533
21
-70.0186
0
LINE
8
BLACK
6
CONTINUOUS
10
188.533
20
-70.0186
11
188.538
21
-70.0201
0
LINE
8
BLACK
6
CONTINUOUS
10
188.538
20
-70.0201
11
188.542
21
-70.0209
0
LINE
8
BLACK
6
CONTINUOUS
10
188.542
20
-70.0209
11
188.546
21
-70.0231
0
LINE
8
BLACK
6
CONTINUOUS
10
188.546
20
-70.0231
11
188.55
21
-70.0246
0
LINE
8
BLACK
6
CONTINUOUS
10
188.55
20
-70.0246
11
188.553
21
-70.0275
0
LINE
8
BLACK
6
CONTINUOUS
10
188.553
20
-70.0275
11
188.557
21
-70.0297
0
LINE
8
BLACK
6
CONTINUOUS
10
188.557
20
-70.0297
11
188.56
21
-70.0331
0
LINE
8
BLACK
6
CONTINUOUS
10
188.56
20
-70.0331
11
188.563
21
-70.036
0
LINE
8
BLACK
6
CONTINUOUS
10
188.563
20
-70.036
11
188.566
21
-70.0398
0
LINE
8
BLACK
6
CONTINUOUS
10
188.566
20
-70.0398
11
188.569
21
-70.0432
0
LINE
8
BLACK
6
CONTINUOUS
10
188.569
20
-70.0432
11
188.57
21
-70.0474
0
LINE
8
BLACK
6
CONTINUOUS
10
188.57
20
-70.0474
11
188.572
21
-70.0512
0
LINE
8
BLACK
6
CONTINUOUS
10
188.572
20
-70.0512
11
188.573
21
-70.0556
0
LINE
8
BLACK
6
CONTINUOUS
10
188.573
20
-70.0556
11
188.575
21
-70.0598
0
LINE
8
BLACK
6
CONTINUOUS
10
188.575
20
-70.0598
11
188.575
21
-109.893
0
LINE
8
BLACK
6
CONTINUOUS
10
188.575
20
-109.893
11
188.573
21
-109.898
0
LINE
8
BLACK
6
CONTINUOUS
10
106.699
20
-70.1186
11
106.699
21
-109.835
0
LINE
8
BLACK
6
CONTINUOUS
10
106.699
20
-109.835
11
188.475
21
-109.835
0
LINE
8
BLACK
6
CONTINUOUS
10
188.475
20
-109.835
11
188.475
21
-70.1186
0
LINE
8
BLACK
6
CONTINUOUS
10
188.475
20
-70.1186
11
106.699
21
-70.1186
  0
ENDSEC
  0
EOF
