G04 #@! TF.GenerationSoftware,KiCad,Pcbnew,(5.1.9)-1*
G04 #@! TF.CreationDate,2021-10-30T20:33:53-06:00*
G04 #@! TF.ProjectId,ralt_controller,72616c74-5f63-46f6-9e74-726f6c6c6572,1*
G04 #@! TF.SameCoordinates,Original*
G04 #@! TF.FileFunction,Copper,L1,Top*
G04 #@! TF.FilePolarity,Positive*
%FSLAX46Y46*%
G04 Gerber Fmt 4.6, Leading zero omitted, Abs format (unit mm)*
G04 Created by KiCad (PCBNEW (5.1.9)-1) date 2021-10-30 20:33:53*
%MOMM*%
%LPD*%
G01*
G04 APERTURE LIST*
G04 #@! TA.AperFunction,ComponentPad*
%ADD10O,1.700000X1.700000*%
G04 #@! TD*
G04 #@! TA.AperFunction,ComponentPad*
%ADD11R,1.700000X1.700000*%
G04 #@! TD*
G04 #@! TA.AperFunction,ComponentPad*
%ADD12O,2.700000X3.300000*%
G04 #@! TD*
G04 #@! TA.AperFunction,ComponentPad*
%ADD13O,1.600000X1.600000*%
G04 #@! TD*
G04 #@! TA.AperFunction,ComponentPad*
%ADD14R,1.600000X1.600000*%
G04 #@! TD*
G04 #@! TA.AperFunction,ViaPad*
%ADD15C,0.600000*%
G04 #@! TD*
G04 #@! TA.AperFunction,Conductor*
%ADD16C,0.457200*%
G04 #@! TD*
G04 #@! TA.AperFunction,Conductor*
%ADD17C,0.914400*%
G04 #@! TD*
G04 #@! TA.AperFunction,Conductor*
%ADD18C,1.625600*%
G04 #@! TD*
G04 #@! TA.AperFunction,Conductor*
%ADD19C,0.254000*%
G04 #@! TD*
G04 #@! TA.AperFunction,Conductor*
%ADD20C,0.100000*%
G04 #@! TD*
G04 APERTURE END LIST*
G04 #@! TA.AperFunction,SMDPad,CuDef*
G36*
G01*
X50548001Y-91687500D02*
X49647999Y-91687500D01*
G75*
G02*
X49398000Y-91437501I0J249999D01*
G01*
X49398000Y-90912499D01*
G75*
G02*
X49647999Y-90662500I249999J0D01*
G01*
X50548001Y-90662500D01*
G75*
G02*
X50798000Y-90912499I0J-249999D01*
G01*
X50798000Y-91437501D01*
G75*
G02*
X50548001Y-91687500I-249999J0D01*
G01*
G37*
G04 #@! TD.AperFunction*
G04 #@! TA.AperFunction,SMDPad,CuDef*
G36*
G01*
X50548001Y-93512500D02*
X49647999Y-93512500D01*
G75*
G02*
X49398000Y-93262501I0J249999D01*
G01*
X49398000Y-92737499D01*
G75*
G02*
X49647999Y-92487500I249999J0D01*
G01*
X50548001Y-92487500D01*
G75*
G02*
X50798000Y-92737499I0J-249999D01*
G01*
X50798000Y-93262501D01*
G75*
G02*
X50548001Y-93512500I-249999J0D01*
G01*
G37*
G04 #@! TD.AperFunction*
G04 #@! TA.AperFunction,SMDPad,CuDef*
G36*
G01*
X47488999Y-92464000D02*
X48389001Y-92464000D01*
G75*
G02*
X48639000Y-92713999I0J-249999D01*
G01*
X48639000Y-93239001D01*
G75*
G02*
X48389001Y-93489000I-249999J0D01*
G01*
X47488999Y-93489000D01*
G75*
G02*
X47239000Y-93239001I0J249999D01*
G01*
X47239000Y-92713999D01*
G75*
G02*
X47488999Y-92464000I249999J0D01*
G01*
G37*
G04 #@! TD.AperFunction*
G04 #@! TA.AperFunction,SMDPad,CuDef*
G36*
G01*
X47488999Y-90639000D02*
X48389001Y-90639000D01*
G75*
G02*
X48639000Y-90888999I0J-249999D01*
G01*
X48639000Y-91414001D01*
G75*
G02*
X48389001Y-91664000I-249999J0D01*
G01*
X47488999Y-91664000D01*
G75*
G02*
X47239000Y-91414001I0J249999D01*
G01*
X47239000Y-90888999D01*
G75*
G02*
X47488999Y-90639000I249999J0D01*
G01*
G37*
G04 #@! TD.AperFunction*
D10*
X67890000Y-81810000D03*
X65350000Y-81810000D03*
D11*
X62810000Y-81810000D03*
G04 #@! TA.AperFunction,SMDPad,CuDef*
G36*
G01*
X41429000Y-51355000D02*
X40479000Y-51355000D01*
G75*
G02*
X40229000Y-51105000I0J250000D01*
G01*
X40229000Y-50605000D01*
G75*
G02*
X40479000Y-50355000I250000J0D01*
G01*
X41429000Y-50355000D01*
G75*
G02*
X41679000Y-50605000I0J-250000D01*
G01*
X41679000Y-51105000D01*
G75*
G02*
X41429000Y-51355000I-250000J0D01*
G01*
G37*
G04 #@! TD.AperFunction*
G04 #@! TA.AperFunction,SMDPad,CuDef*
G36*
G01*
X41429000Y-53255000D02*
X40479000Y-53255000D01*
G75*
G02*
X40229000Y-53005000I0J250000D01*
G01*
X40229000Y-52505000D01*
G75*
G02*
X40479000Y-52255000I250000J0D01*
G01*
X41429000Y-52255000D01*
G75*
G02*
X41679000Y-52505000I0J-250000D01*
G01*
X41679000Y-53005000D01*
G75*
G02*
X41429000Y-53255000I-250000J0D01*
G01*
G37*
G04 #@! TD.AperFunction*
D12*
X34410000Y-77310000D03*
X38610000Y-77310000D03*
X42810000Y-77310000D03*
X34410000Y-71810000D03*
X38610000Y-71810000D03*
G04 #@! TA.AperFunction,ComponentPad*
G36*
G01*
X44160000Y-70410001D02*
X44160000Y-73209999D01*
G75*
G02*
X43909999Y-73460000I-250001J0D01*
G01*
X41710001Y-73460000D01*
G75*
G02*
X41460000Y-73209999I0J250001D01*
G01*
X41460000Y-70410001D01*
G75*
G02*
X41710001Y-70160000I250001J0D01*
G01*
X43909999Y-70160000D01*
G75*
G02*
X44160000Y-70410001I0J-250001D01*
G01*
G37*
G04 #@! TD.AperFunction*
X34410000Y-63310000D03*
X38610000Y-63310000D03*
X42810000Y-63310000D03*
X34410000Y-57810000D03*
X38610000Y-57810000D03*
G04 #@! TA.AperFunction,ComponentPad*
G36*
G01*
X44160000Y-56410001D02*
X44160000Y-59209999D01*
G75*
G02*
X43909999Y-59460000I-250001J0D01*
G01*
X41710001Y-59460000D01*
G75*
G02*
X41460000Y-59209999I0J250001D01*
G01*
X41460000Y-56410001D01*
G75*
G02*
X41710001Y-56160000I250001J0D01*
G01*
X43909999Y-56160000D01*
G75*
G02*
X44160000Y-56410001I0J-250001D01*
G01*
G37*
G04 #@! TD.AperFunction*
G04 #@! TA.AperFunction,SMDPad,CuDef*
G36*
G01*
X44310000Y-53565000D02*
X44310000Y-53865000D01*
G75*
G02*
X44160000Y-54015000I-150000J0D01*
G01*
X42510000Y-54015000D01*
G75*
G02*
X42360000Y-53865000I0J150000D01*
G01*
X42360000Y-53565000D01*
G75*
G02*
X42510000Y-53415000I150000J0D01*
G01*
X44160000Y-53415000D01*
G75*
G02*
X44310000Y-53565000I0J-150000D01*
G01*
G37*
G04 #@! TD.AperFunction*
G04 #@! TA.AperFunction,SMDPad,CuDef*
G36*
G01*
X44310000Y-52295000D02*
X44310000Y-52595000D01*
G75*
G02*
X44160000Y-52745000I-150000J0D01*
G01*
X42510000Y-52745000D01*
G75*
G02*
X42360000Y-52595000I0J150000D01*
G01*
X42360000Y-52295000D01*
G75*
G02*
X42510000Y-52145000I150000J0D01*
G01*
X44160000Y-52145000D01*
G75*
G02*
X44310000Y-52295000I0J-150000D01*
G01*
G37*
G04 #@! TD.AperFunction*
G04 #@! TA.AperFunction,SMDPad,CuDef*
G36*
G01*
X44310000Y-51025000D02*
X44310000Y-51325000D01*
G75*
G02*
X44160000Y-51475000I-150000J0D01*
G01*
X42510000Y-51475000D01*
G75*
G02*
X42360000Y-51325000I0J150000D01*
G01*
X42360000Y-51025000D01*
G75*
G02*
X42510000Y-50875000I150000J0D01*
G01*
X44160000Y-50875000D01*
G75*
G02*
X44310000Y-51025000I0J-150000D01*
G01*
G37*
G04 #@! TD.AperFunction*
G04 #@! TA.AperFunction,SMDPad,CuDef*
G36*
G01*
X44310000Y-49755000D02*
X44310000Y-50055000D01*
G75*
G02*
X44160000Y-50205000I-150000J0D01*
G01*
X42510000Y-50205000D01*
G75*
G02*
X42360000Y-50055000I0J150000D01*
G01*
X42360000Y-49755000D01*
G75*
G02*
X42510000Y-49605000I150000J0D01*
G01*
X44160000Y-49605000D01*
G75*
G02*
X44310000Y-49755000I0J-150000D01*
G01*
G37*
G04 #@! TD.AperFunction*
G04 #@! TA.AperFunction,SMDPad,CuDef*
G36*
G01*
X49260000Y-49755000D02*
X49260000Y-50055000D01*
G75*
G02*
X49110000Y-50205000I-150000J0D01*
G01*
X47460000Y-50205000D01*
G75*
G02*
X47310000Y-50055000I0J150000D01*
G01*
X47310000Y-49755000D01*
G75*
G02*
X47460000Y-49605000I150000J0D01*
G01*
X49110000Y-49605000D01*
G75*
G02*
X49260000Y-49755000I0J-150000D01*
G01*
G37*
G04 #@! TD.AperFunction*
G04 #@! TA.AperFunction,SMDPad,CuDef*
G36*
G01*
X49260000Y-51025000D02*
X49260000Y-51325000D01*
G75*
G02*
X49110000Y-51475000I-150000J0D01*
G01*
X47460000Y-51475000D01*
G75*
G02*
X47310000Y-51325000I0J150000D01*
G01*
X47310000Y-51025000D01*
G75*
G02*
X47460000Y-50875000I150000J0D01*
G01*
X49110000Y-50875000D01*
G75*
G02*
X49260000Y-51025000I0J-150000D01*
G01*
G37*
G04 #@! TD.AperFunction*
G04 #@! TA.AperFunction,SMDPad,CuDef*
G36*
G01*
X49260000Y-52295000D02*
X49260000Y-52595000D01*
G75*
G02*
X49110000Y-52745000I-150000J0D01*
G01*
X47460000Y-52745000D01*
G75*
G02*
X47310000Y-52595000I0J150000D01*
G01*
X47310000Y-52295000D01*
G75*
G02*
X47460000Y-52145000I150000J0D01*
G01*
X49110000Y-52145000D01*
G75*
G02*
X49260000Y-52295000I0J-150000D01*
G01*
G37*
G04 #@! TD.AperFunction*
G04 #@! TA.AperFunction,SMDPad,CuDef*
G36*
G01*
X49260000Y-53565000D02*
X49260000Y-53865000D01*
G75*
G02*
X49110000Y-54015000I-150000J0D01*
G01*
X47460000Y-54015000D01*
G75*
G02*
X47310000Y-53865000I0J150000D01*
G01*
X47310000Y-53565000D01*
G75*
G02*
X47460000Y-53415000I150000J0D01*
G01*
X49110000Y-53415000D01*
G75*
G02*
X49260000Y-53565000I0J-150000D01*
G01*
G37*
G04 #@! TD.AperFunction*
D13*
X67050000Y-49810000D03*
X51810000Y-77750000D03*
X67050000Y-52350000D03*
X51810000Y-75210000D03*
X67050000Y-54890000D03*
X51810000Y-72670000D03*
X67050000Y-57430000D03*
X51810000Y-70130000D03*
X67050000Y-59970000D03*
X51810000Y-67590000D03*
X67050000Y-62510000D03*
X51810000Y-65050000D03*
X67050000Y-65050000D03*
X51810000Y-62510000D03*
X67050000Y-67590000D03*
X51810000Y-59970000D03*
X67050000Y-70130000D03*
X51810000Y-57430000D03*
X67050000Y-72670000D03*
X51810000Y-54890000D03*
X67050000Y-75210000D03*
X51810000Y-52350000D03*
X67050000Y-77750000D03*
D14*
X51810000Y-49810000D03*
D10*
X62810000Y-73890000D03*
X62810000Y-71350000D03*
D11*
X62810000Y-68810000D03*
D10*
X56810000Y-73890000D03*
X56810000Y-71350000D03*
D11*
X56810000Y-68810000D03*
D10*
X47810000Y-59350000D03*
D11*
X47810000Y-56810000D03*
D10*
X37810000Y-90890000D03*
X37810000Y-88350000D03*
D11*
X37810000Y-85810000D03*
D10*
X45810000Y-88350000D03*
D11*
X45810000Y-85810000D03*
D10*
X41810000Y-88350000D03*
D11*
X41810000Y-85810000D03*
D10*
X71270000Y-67650000D03*
X73810000Y-67650000D03*
X71270000Y-70190000D03*
X73810000Y-70190000D03*
X71270000Y-72730000D03*
X73810000Y-72730000D03*
X71270000Y-75270000D03*
X73810000Y-75270000D03*
X71270000Y-77810000D03*
D11*
X73810000Y-77810000D03*
D12*
X68610000Y-91310000D03*
X72810000Y-91310000D03*
X68610000Y-85810000D03*
G04 #@! TA.AperFunction,ComponentPad*
G36*
G01*
X74160000Y-84410001D02*
X74160000Y-87209999D01*
G75*
G02*
X73909999Y-87460000I-250001J0D01*
G01*
X71710001Y-87460000D01*
G75*
G02*
X71460000Y-87209999I0J250001D01*
G01*
X71460000Y-84410001D01*
G75*
G02*
X71710001Y-84160000I250001J0D01*
G01*
X73909999Y-84160000D01*
G75*
G02*
X74160000Y-84410001I0J-250001D01*
G01*
G37*
G04 #@! TD.AperFunction*
X57610000Y-91310000D03*
X61810000Y-91310000D03*
X57610000Y-85810000D03*
G04 #@! TA.AperFunction,ComponentPad*
G36*
G01*
X63160000Y-84410001D02*
X63160000Y-87209999D01*
G75*
G02*
X62909999Y-87460000I-250001J0D01*
G01*
X60710001Y-87460000D01*
G75*
G02*
X60460000Y-87209999I0J250001D01*
G01*
X60460000Y-84410001D01*
G75*
G02*
X60710001Y-84160000I250001J0D01*
G01*
X62909999Y-84160000D01*
G75*
G02*
X63160000Y-84410001I0J-250001D01*
G01*
G37*
G04 #@! TD.AperFunction*
D15*
X63810000Y-76810000D03*
X63810000Y-77810000D03*
X63810000Y-78810000D03*
X37810000Y-53810000D03*
X34810000Y-53810000D03*
X40810000Y-53810000D03*
X60105600Y-73179100D03*
X60105600Y-77484400D03*
D16*
X41904000Y-49905000D02*
X40954000Y-50855000D01*
X43335000Y-49905000D02*
X41904000Y-49905000D01*
D17*
X62810000Y-73890000D02*
X62810000Y-75810000D01*
X71270000Y-72730000D02*
X75730000Y-72730000D01*
X71270000Y-72730000D02*
X69890000Y-72730000D01*
X40765000Y-50855000D02*
X37810000Y-53810000D01*
X40954000Y-50855000D02*
X40765000Y-50855000D01*
D16*
X49787500Y-93000000D02*
X47939000Y-91151500D01*
X50098000Y-93000000D02*
X49787500Y-93000000D01*
X47939000Y-91151500D02*
X47939000Y-90413000D01*
X47939000Y-90413000D02*
X47431000Y-89905000D01*
X41914000Y-53715000D02*
X40954000Y-52755000D01*
X43335000Y-53715000D02*
X41914000Y-53715000D01*
D17*
X40954000Y-53666000D02*
X40810000Y-53810000D01*
X40954000Y-52755000D02*
X40954000Y-53666000D01*
X60105600Y-73179100D02*
X60105600Y-77484400D01*
X65350000Y-69290000D02*
X67050000Y-67590000D01*
X65350000Y-81810000D02*
X65350000Y-69290000D01*
X39924410Y-54924410D02*
X37348396Y-54924410D01*
X37348396Y-54924410D02*
X36695590Y-54271604D01*
X36695590Y-54271604D02*
X36695590Y-53105420D01*
X36695590Y-53105420D02*
X41448211Y-48352799D01*
X42810000Y-57810000D02*
X39924410Y-54924410D01*
X41448211Y-48352799D02*
X65592799Y-48352799D01*
X65592799Y-48352799D02*
X67050000Y-49810000D01*
D18*
X27197199Y-64597199D02*
X34410000Y-71810000D01*
X27197199Y-61643855D02*
X27197199Y-64597199D01*
X31031054Y-57810000D02*
X27197199Y-61643855D01*
X34410000Y-57810000D02*
X31031054Y-57810000D01*
D16*
X44617200Y-65117200D02*
X44617200Y-73853364D01*
X42810000Y-63310000D02*
X44617200Y-65117200D01*
X44617200Y-73853364D02*
X42810000Y-75660564D01*
X42810000Y-75660564D02*
X42810000Y-77310000D01*
X45399000Y-60721000D02*
X42810000Y-63310000D01*
X45399000Y-52264000D02*
X45399000Y-60721000D01*
X43335000Y-51175000D02*
X44310000Y-51175000D01*
X44310000Y-51175000D02*
X45399000Y-52264000D01*
X40388610Y-75531390D02*
X38610000Y-77310000D01*
X40388610Y-65088610D02*
X40388610Y-75531390D01*
X38610000Y-63310000D02*
X40388610Y-65088610D01*
X43335000Y-52445000D02*
X44310000Y-52445000D01*
X44741789Y-60082211D02*
X44002000Y-60822000D01*
X44310000Y-52445000D02*
X44741789Y-52876789D01*
X44741789Y-52876789D02*
X44741789Y-60082211D01*
X44002000Y-60822000D02*
X41098000Y-60822000D01*
X41098000Y-60822000D02*
X38610000Y-63310000D01*
X59219789Y-71219789D02*
X59219789Y-77851314D01*
X59388610Y-78020135D02*
X59388610Y-89531390D01*
X56810000Y-68810000D02*
X59219789Y-71219789D01*
X59388610Y-89531390D02*
X57610000Y-91310000D01*
X59219789Y-77851314D02*
X59388610Y-78020135D01*
X60991411Y-70628589D02*
X60991411Y-82462893D01*
X62548301Y-83088601D02*
X68610000Y-89150300D01*
X62810000Y-68810000D02*
X60991411Y-70628589D01*
X61617119Y-83088601D02*
X62548301Y-83088601D01*
X60991411Y-82462893D02*
X61617119Y-83088601D01*
X68610000Y-89150300D02*
X68610000Y-91310000D01*
D17*
X72302799Y-79317201D02*
X73810000Y-77810000D01*
X68617201Y-79317201D02*
X72302799Y-79317201D01*
X67050000Y-77750000D02*
X68617201Y-79317201D01*
X68507201Y-71212799D02*
X68507201Y-70412799D01*
X68507201Y-70412799D02*
X71270000Y-67650000D01*
X67050000Y-72670000D02*
X68507201Y-71212799D01*
X69650000Y-77810000D02*
X67050000Y-75210000D01*
X71270000Y-77810000D02*
X69650000Y-77810000D01*
X70546543Y-66142799D02*
X72302799Y-66142799D01*
X68507201Y-68182141D02*
X70546543Y-66142799D01*
X68507201Y-68672799D02*
X68507201Y-68182141D01*
X72302799Y-66142799D02*
X73810000Y-67650000D01*
X67050000Y-70130000D02*
X68507201Y-68672799D01*
D16*
X45810000Y-85810000D02*
X45421211Y-85421211D01*
X45421211Y-85421211D02*
X45421211Y-75387419D01*
X45421211Y-75387419D02*
X50678630Y-70130000D01*
X50678630Y-70130000D02*
X51810000Y-70130000D01*
X44764000Y-74636000D02*
X51810000Y-67590000D01*
X44764000Y-79237000D02*
X44764000Y-74636000D01*
X39088601Y-84912399D02*
X44764000Y-79237000D01*
X39088601Y-89611399D02*
X39088601Y-84912399D01*
X37810000Y-90890000D02*
X39088601Y-89611399D01*
X50970000Y-59970000D02*
X47810000Y-56810000D01*
X51810000Y-59970000D02*
X50970000Y-59970000D01*
X48285000Y-51175000D02*
X49585000Y-51175000D01*
X49585000Y-51175000D02*
X49834000Y-51424000D01*
X48285000Y-52445000D02*
X49585000Y-52445000D01*
X49585000Y-52445000D02*
X49844000Y-52186000D01*
X49834000Y-52176000D02*
X49834000Y-51424000D01*
X49844000Y-52186000D02*
X49834000Y-52176000D01*
X48435729Y-60921399D02*
X51810000Y-64295670D01*
X47489069Y-60921399D02*
X48435729Y-60921399D01*
X51810000Y-64295670D02*
X51810000Y-65050000D01*
X46531399Y-59963729D02*
X47489069Y-60921399D01*
X47310000Y-52445000D02*
X46531399Y-53223601D01*
X46531399Y-53223601D02*
X46531399Y-59963729D01*
X48285000Y-52445000D02*
X47310000Y-52445000D01*
X50445000Y-53715000D02*
X51810000Y-52350000D01*
X48285000Y-53715000D02*
X50445000Y-53715000D01*
X51715000Y-49905000D02*
X51810000Y-49810000D01*
X48285000Y-49905000D02*
X51715000Y-49905000D01*
X41810000Y-88350000D02*
X45547500Y-92087500D01*
X47050000Y-92087500D02*
X47939000Y-92976500D01*
X45547500Y-92087500D02*
X47050000Y-92087500D01*
X47273000Y-88350000D02*
X50098000Y-91175000D01*
X45810000Y-88350000D02*
X47273000Y-88350000D01*
D19*
X36333349Y-51923058D02*
X36480466Y-51702882D01*
X36622561Y-51359834D01*
X36695000Y-50995656D01*
X36695000Y-50624344D01*
X36622561Y-50260166D01*
X36480466Y-49917118D01*
X36274175Y-49608382D01*
X36011618Y-49345825D01*
X35702882Y-49139534D01*
X35359834Y-48997439D01*
X34995656Y-48925000D01*
X34624344Y-48925000D01*
X34260166Y-48997439D01*
X33917118Y-49139534D01*
X33608382Y-49345825D01*
X33345825Y-49608382D01*
X33139534Y-49917118D01*
X32997439Y-50260166D01*
X32925000Y-50624344D01*
X32925000Y-50995656D01*
X32997439Y-51359834D01*
X33139534Y-51702882D01*
X33345825Y-52011618D01*
X33608382Y-52274175D01*
X33917118Y-52480466D01*
X34260166Y-52622561D01*
X34624344Y-52695000D01*
X34995656Y-52695000D01*
X35359834Y-52622561D01*
X35702882Y-52480466D01*
X35908089Y-52343351D01*
X35885356Y-52371051D01*
X35885353Y-52371054D01*
X35847100Y-52417666D01*
X35783066Y-52495691D01*
X35758906Y-52540891D01*
X35681647Y-52685432D01*
X35627510Y-52863896D01*
X35619194Y-52891311D01*
X35603390Y-53051771D01*
X35603390Y-53051779D01*
X35598107Y-53105420D01*
X35603390Y-53159061D01*
X35603390Y-54217963D01*
X35598107Y-54271604D01*
X35603390Y-54325245D01*
X35603390Y-54325252D01*
X35617093Y-54464380D01*
X35619194Y-54485713D01*
X35665568Y-54638586D01*
X35681647Y-54691592D01*
X35783065Y-54881333D01*
X35919552Y-55047642D01*
X35961227Y-55081844D01*
X36538156Y-55658773D01*
X36572358Y-55700448D01*
X36738667Y-55836935D01*
X36928407Y-55938353D01*
X37086369Y-55986270D01*
X37134286Y-56000806D01*
X37155619Y-56002907D01*
X37294747Y-56016610D01*
X37294754Y-56016610D01*
X37300089Y-56017135D01*
X37199603Y-56099602D01*
X36951547Y-56401857D01*
X36767226Y-56746698D01*
X36653722Y-57120872D01*
X36625000Y-57412490D01*
X36625000Y-58207509D01*
X36653722Y-58499127D01*
X36767226Y-58873301D01*
X36951547Y-59218143D01*
X37199602Y-59520398D01*
X37501857Y-59768453D01*
X37846698Y-59952774D01*
X38220872Y-60066278D01*
X38610000Y-60104604D01*
X38999127Y-60066278D01*
X39373301Y-59952774D01*
X39718143Y-59768453D01*
X40020398Y-59520398D01*
X40268453Y-59218143D01*
X40452774Y-58873302D01*
X40566278Y-58499128D01*
X40595000Y-58207510D01*
X40595000Y-57412491D01*
X40566278Y-57120873D01*
X40561927Y-57106531D01*
X40821928Y-57366532D01*
X40821928Y-59209999D01*
X40838992Y-59383253D01*
X40889529Y-59549850D01*
X40971595Y-59703386D01*
X41082039Y-59837961D01*
X41216614Y-59948405D01*
X41235313Y-59958400D01*
X41140417Y-59958400D01*
X41097999Y-59954222D01*
X41055581Y-59958400D01*
X41055580Y-59958400D01*
X40928705Y-59970896D01*
X40765916Y-60020278D01*
X40615888Y-60100469D01*
X40484388Y-60208388D01*
X40457346Y-60241339D01*
X39476369Y-61222317D01*
X39373302Y-61167226D01*
X38999128Y-61053722D01*
X38610000Y-61015396D01*
X38220873Y-61053722D01*
X37846699Y-61167226D01*
X37501858Y-61351547D01*
X37199603Y-61599602D01*
X36951547Y-61901857D01*
X36767226Y-62246698D01*
X36653722Y-62620872D01*
X36625000Y-62912490D01*
X36625000Y-63707509D01*
X36653722Y-63999127D01*
X36767226Y-64373301D01*
X36951547Y-64718143D01*
X37199602Y-65020398D01*
X37501857Y-65268453D01*
X37846698Y-65452774D01*
X38220872Y-65566278D01*
X38610000Y-65604604D01*
X38999127Y-65566278D01*
X39373301Y-65452774D01*
X39476369Y-65397683D01*
X39525010Y-65446325D01*
X39525010Y-69748316D01*
X39373302Y-69667226D01*
X38999128Y-69553722D01*
X38610000Y-69515396D01*
X38220873Y-69553722D01*
X37846699Y-69667226D01*
X37501858Y-69851547D01*
X37199603Y-70099602D01*
X36951547Y-70401857D01*
X36767226Y-70746698D01*
X36653722Y-71120872D01*
X36625000Y-71412490D01*
X36625000Y-72207509D01*
X36653722Y-72499127D01*
X36767226Y-72873301D01*
X36951547Y-73218143D01*
X37199602Y-73520398D01*
X37501857Y-73768453D01*
X37846698Y-73952774D01*
X38220872Y-74066278D01*
X38610000Y-74104604D01*
X38999127Y-74066278D01*
X39373301Y-73952774D01*
X39525011Y-73871684D01*
X39525011Y-75173674D01*
X39476369Y-75222316D01*
X39373302Y-75167226D01*
X38999128Y-75053722D01*
X38610000Y-75015396D01*
X38220873Y-75053722D01*
X37846699Y-75167226D01*
X37501858Y-75351547D01*
X37199603Y-75599602D01*
X36951547Y-75901857D01*
X36767226Y-76246698D01*
X36653722Y-76620872D01*
X36625000Y-76912490D01*
X36625000Y-77707509D01*
X36653722Y-77999127D01*
X36767226Y-78373301D01*
X36951547Y-78718143D01*
X37199602Y-79020398D01*
X37501857Y-79268453D01*
X37846698Y-79452774D01*
X38220872Y-79566278D01*
X38610000Y-79604604D01*
X38999127Y-79566278D01*
X39373301Y-79452774D01*
X39718143Y-79268453D01*
X40020398Y-79020398D01*
X40268453Y-78718143D01*
X40452774Y-78373302D01*
X40566278Y-77999128D01*
X40595000Y-77707510D01*
X40595000Y-76912491D01*
X40566278Y-76620873D01*
X40555610Y-76585705D01*
X40969270Y-76172045D01*
X41002222Y-76145002D01*
X41057748Y-76077344D01*
X40967226Y-76246698D01*
X40853722Y-76620872D01*
X40825000Y-76912490D01*
X40825000Y-77707509D01*
X40853722Y-77999127D01*
X40967226Y-78373301D01*
X41151547Y-78718143D01*
X41399602Y-79020398D01*
X41701857Y-79268453D01*
X42046698Y-79452774D01*
X42420872Y-79566278D01*
X42810000Y-79604604D01*
X43199127Y-79566278D01*
X43219625Y-79560060D01*
X38507947Y-84271740D01*
X38474990Y-84298787D01*
X38455083Y-84323044D01*
X38095750Y-84325000D01*
X37937000Y-84483750D01*
X37937000Y-85683000D01*
X37957000Y-85683000D01*
X37957000Y-85937000D01*
X37937000Y-85937000D01*
X37937000Y-85957000D01*
X37683000Y-85957000D01*
X37683000Y-85937000D01*
X36483750Y-85937000D01*
X36325000Y-86095750D01*
X36321928Y-86660000D01*
X36334188Y-86784482D01*
X36370498Y-86904180D01*
X36429463Y-87014494D01*
X36508815Y-87111185D01*
X36605506Y-87190537D01*
X36715820Y-87249502D01*
X36788380Y-87271513D01*
X36656525Y-87403368D01*
X36494010Y-87646589D01*
X36382068Y-87916842D01*
X36325000Y-88203740D01*
X36325000Y-88496260D01*
X36382068Y-88783158D01*
X36494010Y-89053411D01*
X36656525Y-89296632D01*
X36863368Y-89503475D01*
X37037760Y-89620000D01*
X36863368Y-89736525D01*
X36656525Y-89943368D01*
X36494010Y-90186589D01*
X36382068Y-90456842D01*
X36325000Y-90743740D01*
X36325000Y-91036260D01*
X36382068Y-91323158D01*
X36494010Y-91593411D01*
X36656525Y-91836632D01*
X36863368Y-92043475D01*
X37106589Y-92205990D01*
X37376842Y-92317932D01*
X37663740Y-92375000D01*
X37956260Y-92375000D01*
X38243158Y-92317932D01*
X38513411Y-92205990D01*
X38756632Y-92043475D01*
X38963475Y-91836632D01*
X39125990Y-91593411D01*
X39237932Y-91323158D01*
X39295000Y-91036260D01*
X39295000Y-90743740D01*
X39275518Y-90645796D01*
X39669257Y-90252057D01*
X39702213Y-90225011D01*
X39810132Y-90093511D01*
X39890323Y-89943483D01*
X39939705Y-89780694D01*
X39952201Y-89653819D01*
X39952201Y-89653818D01*
X39956379Y-89611399D01*
X39952201Y-89568979D01*
X39952201Y-85270112D01*
X40328441Y-84893872D01*
X40321928Y-84960000D01*
X40321928Y-86660000D01*
X40334188Y-86784482D01*
X40370498Y-86904180D01*
X40429463Y-87014494D01*
X40508815Y-87111185D01*
X40605506Y-87190537D01*
X40715820Y-87249502D01*
X40788380Y-87271513D01*
X40656525Y-87403368D01*
X40494010Y-87646589D01*
X40382068Y-87916842D01*
X40325000Y-88203740D01*
X40325000Y-88496260D01*
X40382068Y-88783158D01*
X40494010Y-89053411D01*
X40656525Y-89296632D01*
X40863368Y-89503475D01*
X41106589Y-89665990D01*
X41376842Y-89777932D01*
X41663740Y-89835000D01*
X41956260Y-89835000D01*
X42054204Y-89815518D01*
X44906845Y-92668160D01*
X44933888Y-92701112D01*
X45065388Y-92809031D01*
X45215416Y-92889222D01*
X45378205Y-92938604D01*
X45505080Y-92951100D01*
X45505082Y-92951100D01*
X45547499Y-92955278D01*
X45589917Y-92951100D01*
X46600928Y-92951100D01*
X46600928Y-93239001D01*
X46617992Y-93412255D01*
X46668528Y-93578851D01*
X46750595Y-93732387D01*
X46861038Y-93866962D01*
X46995613Y-93977405D01*
X47149149Y-94059472D01*
X47315745Y-94110008D01*
X47488999Y-94127072D01*
X48389001Y-94127072D01*
X48562255Y-94110008D01*
X48728851Y-94059472D01*
X48882387Y-93977405D01*
X48927614Y-93940288D01*
X48946815Y-93963685D01*
X49043506Y-94043037D01*
X49153820Y-94102002D01*
X49273518Y-94138312D01*
X49398000Y-94150572D01*
X49812250Y-94147500D01*
X49971000Y-93988750D01*
X49971000Y-93127000D01*
X50225000Y-93127000D01*
X50225000Y-93988750D01*
X50383750Y-94147500D01*
X50798000Y-94150572D01*
X50922482Y-94138312D01*
X51042180Y-94102002D01*
X51152494Y-94043037D01*
X51249185Y-93963685D01*
X51328537Y-93866994D01*
X51387502Y-93756680D01*
X51423812Y-93636982D01*
X51436072Y-93512500D01*
X51433000Y-93285750D01*
X51274250Y-93127000D01*
X50225000Y-93127000D01*
X49971000Y-93127000D01*
X49951000Y-93127000D01*
X49951000Y-92873000D01*
X49971000Y-92873000D01*
X49971000Y-92853000D01*
X50225000Y-92853000D01*
X50225000Y-92873000D01*
X51274250Y-92873000D01*
X51433000Y-92714250D01*
X51436072Y-92487500D01*
X51423812Y-92363018D01*
X51387502Y-92243320D01*
X51328537Y-92133006D01*
X51249185Y-92036315D01*
X51219724Y-92012137D01*
X51286405Y-91930887D01*
X51368472Y-91777351D01*
X51419008Y-91610755D01*
X51436072Y-91437501D01*
X51436072Y-90912499D01*
X51419008Y-90739245D01*
X51368472Y-90572649D01*
X51286405Y-90419113D01*
X51175962Y-90284538D01*
X51041387Y-90174095D01*
X50887851Y-90092028D01*
X50721255Y-90041492D01*
X50548001Y-90024428D01*
X50168743Y-90024428D01*
X47913664Y-87769351D01*
X47886612Y-87736388D01*
X47755112Y-87628469D01*
X47605084Y-87548278D01*
X47442295Y-87498896D01*
X47315420Y-87486400D01*
X47273000Y-87482222D01*
X47230580Y-87486400D01*
X47018955Y-87486400D01*
X46963475Y-87403368D01*
X46831620Y-87271513D01*
X46904180Y-87249502D01*
X47014494Y-87190537D01*
X47111185Y-87111185D01*
X47190537Y-87014494D01*
X47249502Y-86904180D01*
X47285812Y-86784482D01*
X47298072Y-86660000D01*
X47298072Y-84960000D01*
X47285812Y-84835518D01*
X47249502Y-84715820D01*
X47190537Y-84605506D01*
X47111185Y-84508815D01*
X47014494Y-84429463D01*
X46904180Y-84370498D01*
X46784482Y-84334188D01*
X46660000Y-84321928D01*
X46284811Y-84321928D01*
X46284811Y-78599098D01*
X46498698Y-78742012D01*
X46887244Y-78902953D01*
X47299721Y-78985000D01*
X47720279Y-78985000D01*
X48132756Y-78902953D01*
X48521302Y-78742012D01*
X48870983Y-78508363D01*
X49168363Y-78210983D01*
X49402012Y-77861302D01*
X49562953Y-77472756D01*
X49645000Y-77060279D01*
X49645000Y-76639721D01*
X49562953Y-76227244D01*
X49402012Y-75838698D01*
X49168363Y-75489017D01*
X48870983Y-75191637D01*
X48521302Y-74957988D01*
X48132756Y-74797047D01*
X47720279Y-74715000D01*
X47314943Y-74715000D01*
X50840274Y-71189670D01*
X50895241Y-71244637D01*
X51127759Y-71400000D01*
X50895241Y-71555363D01*
X50695363Y-71755241D01*
X50538320Y-71990273D01*
X50430147Y-72251426D01*
X50375000Y-72528665D01*
X50375000Y-72811335D01*
X50430147Y-73088574D01*
X50538320Y-73349727D01*
X50695363Y-73584759D01*
X50895241Y-73784637D01*
X51127759Y-73940000D01*
X50895241Y-74095363D01*
X50695363Y-74295241D01*
X50538320Y-74530273D01*
X50430147Y-74791426D01*
X50375000Y-75068665D01*
X50375000Y-75351335D01*
X50430147Y-75628574D01*
X50538320Y-75889727D01*
X50695363Y-76124759D01*
X50895241Y-76324637D01*
X51127759Y-76480000D01*
X50895241Y-76635363D01*
X50695363Y-76835241D01*
X50538320Y-77070273D01*
X50430147Y-77331426D01*
X50375000Y-77608665D01*
X50375000Y-77891335D01*
X50430147Y-78168574D01*
X50538320Y-78429727D01*
X50695363Y-78664759D01*
X50895241Y-78864637D01*
X51130273Y-79021680D01*
X51391426Y-79129853D01*
X51668665Y-79185000D01*
X51951335Y-79185000D01*
X52228574Y-79129853D01*
X52489727Y-79021680D01*
X52724759Y-78864637D01*
X52924637Y-78664759D01*
X53081680Y-78429727D01*
X53189853Y-78168574D01*
X53245000Y-77891335D01*
X53245000Y-77608665D01*
X53189853Y-77331426D01*
X53081680Y-77070273D01*
X52924637Y-76835241D01*
X52724759Y-76635363D01*
X52492241Y-76480000D01*
X52724759Y-76324637D01*
X52924637Y-76124759D01*
X53081680Y-75889727D01*
X53189853Y-75628574D01*
X53245000Y-75351335D01*
X53245000Y-75068665D01*
X53189853Y-74791426D01*
X53081680Y-74530273D01*
X52924637Y-74295241D01*
X52724759Y-74095363D01*
X52492241Y-73940000D01*
X52724759Y-73784637D01*
X52924637Y-73584759D01*
X53081680Y-73349727D01*
X53189853Y-73088574D01*
X53245000Y-72811335D01*
X53245000Y-72528665D01*
X53189853Y-72251426D01*
X53081680Y-71990273D01*
X52924637Y-71755241D01*
X52724759Y-71555363D01*
X52492241Y-71400000D01*
X52724759Y-71244637D01*
X52924637Y-71044759D01*
X53081680Y-70809727D01*
X53189853Y-70548574D01*
X53245000Y-70271335D01*
X53245000Y-69988665D01*
X53189853Y-69711426D01*
X53081680Y-69450273D01*
X52924637Y-69215241D01*
X52724759Y-69015363D01*
X52492241Y-68860000D01*
X52724759Y-68704637D01*
X52924637Y-68504759D01*
X53081680Y-68269727D01*
X53189853Y-68008574D01*
X53199515Y-67960000D01*
X55321928Y-67960000D01*
X55321928Y-69660000D01*
X55334188Y-69784482D01*
X55370498Y-69904180D01*
X55429463Y-70014494D01*
X55508815Y-70111185D01*
X55605506Y-70190537D01*
X55715820Y-70249502D01*
X55788380Y-70271513D01*
X55656525Y-70403368D01*
X55494010Y-70646589D01*
X55382068Y-70916842D01*
X55325000Y-71203740D01*
X55325000Y-71496260D01*
X55382068Y-71783158D01*
X55494010Y-72053411D01*
X55656525Y-72296632D01*
X55863368Y-72503475D01*
X56037760Y-72620000D01*
X55863368Y-72736525D01*
X55656525Y-72943368D01*
X55494010Y-73186589D01*
X55382068Y-73456842D01*
X55325000Y-73743740D01*
X55325000Y-74036260D01*
X55382068Y-74323158D01*
X55494010Y-74593411D01*
X55656525Y-74836632D01*
X55863368Y-75043475D01*
X56106589Y-75205990D01*
X56376842Y-75317932D01*
X56663740Y-75375000D01*
X56956260Y-75375000D01*
X57243158Y-75317932D01*
X57513411Y-75205990D01*
X57756632Y-75043475D01*
X57963475Y-74836632D01*
X58125990Y-74593411D01*
X58237932Y-74323158D01*
X58295000Y-74036260D01*
X58295000Y-73743740D01*
X58237932Y-73456842D01*
X58125990Y-73186589D01*
X57963475Y-72943368D01*
X57756632Y-72736525D01*
X57582240Y-72620000D01*
X57756632Y-72503475D01*
X57963475Y-72296632D01*
X58125990Y-72053411D01*
X58237932Y-71783158D01*
X58291673Y-71512987D01*
X58356189Y-71577504D01*
X58356190Y-77808884D01*
X58352011Y-77851314D01*
X58368685Y-78020608D01*
X58418068Y-78183398D01*
X58487334Y-78312986D01*
X58498259Y-78333426D01*
X58525010Y-78366022D01*
X58525010Y-83748316D01*
X58373302Y-83667226D01*
X57999128Y-83553722D01*
X57610000Y-83515396D01*
X57220873Y-83553722D01*
X56846699Y-83667226D01*
X56501858Y-83851547D01*
X56199603Y-84099602D01*
X55951547Y-84401857D01*
X55767226Y-84746698D01*
X55653722Y-85120872D01*
X55625000Y-85412490D01*
X55625000Y-86207509D01*
X55653722Y-86499127D01*
X55767226Y-86873301D01*
X55951547Y-87218143D01*
X56199602Y-87520398D01*
X56501857Y-87768453D01*
X56846698Y-87952774D01*
X57220872Y-88066278D01*
X57610000Y-88104604D01*
X57999127Y-88066278D01*
X58373301Y-87952774D01*
X58525011Y-87871684D01*
X58525011Y-89173674D01*
X58476369Y-89222316D01*
X58373302Y-89167226D01*
X57999128Y-89053722D01*
X57610000Y-89015396D01*
X57220873Y-89053722D01*
X56846699Y-89167226D01*
X56501858Y-89351547D01*
X56199603Y-89599602D01*
X55951547Y-89901857D01*
X55767226Y-90246698D01*
X55653722Y-90620872D01*
X55625000Y-90912490D01*
X55625000Y-91707509D01*
X55653722Y-91999127D01*
X55767226Y-92373301D01*
X55951547Y-92718143D01*
X56199602Y-93020398D01*
X56501857Y-93268453D01*
X56846698Y-93452774D01*
X57220872Y-93566278D01*
X57610000Y-93604604D01*
X57999127Y-93566278D01*
X58373301Y-93452774D01*
X58718143Y-93268453D01*
X59020398Y-93020398D01*
X59268453Y-92718143D01*
X59452774Y-92373302D01*
X59566278Y-91999128D01*
X59595000Y-91707510D01*
X59595000Y-90912491D01*
X59566278Y-90620873D01*
X59555610Y-90585705D01*
X59969270Y-90172045D01*
X60002222Y-90145002D01*
X60057748Y-90077344D01*
X59967226Y-90246698D01*
X59853722Y-90620872D01*
X59825000Y-90912490D01*
X59825000Y-91707509D01*
X59853722Y-91999127D01*
X59967226Y-92373301D01*
X60151547Y-92718143D01*
X60399602Y-93020398D01*
X60701857Y-93268453D01*
X61046698Y-93452774D01*
X61420872Y-93566278D01*
X61810000Y-93604604D01*
X62199127Y-93566278D01*
X62573301Y-93452774D01*
X62918143Y-93268453D01*
X63220398Y-93020398D01*
X63468453Y-92718143D01*
X63652774Y-92373302D01*
X63766278Y-91999128D01*
X63795000Y-91707510D01*
X63795000Y-90912491D01*
X63766278Y-90620873D01*
X63652774Y-90246698D01*
X63468453Y-89901857D01*
X63220398Y-89599602D01*
X62918143Y-89351547D01*
X62573302Y-89167226D01*
X62199128Y-89053722D01*
X61810000Y-89015396D01*
X61420873Y-89053722D01*
X61046699Y-89167226D01*
X60701858Y-89351547D01*
X60399603Y-89599602D01*
X60194604Y-89849393D01*
X60239714Y-89700685D01*
X60252210Y-89573810D01*
X60252210Y-89573809D01*
X60256388Y-89531391D01*
X60252210Y-89488973D01*
X60252210Y-87967431D01*
X60370150Y-88030471D01*
X60536747Y-88081008D01*
X60710001Y-88098072D01*
X62909999Y-88098072D01*
X63083253Y-88081008D01*
X63249850Y-88030471D01*
X63403386Y-87948405D01*
X63537961Y-87837961D01*
X63648405Y-87703386D01*
X63730471Y-87549850D01*
X63781008Y-87383253D01*
X63798072Y-87209999D01*
X63798072Y-85559685D01*
X67559254Y-89320868D01*
X67501858Y-89351547D01*
X67199603Y-89599602D01*
X66951547Y-89901857D01*
X66767226Y-90246698D01*
X66653722Y-90620872D01*
X66625000Y-90912490D01*
X66625000Y-91707509D01*
X66653722Y-91999127D01*
X66767226Y-92373301D01*
X66951547Y-92718143D01*
X67199602Y-93020398D01*
X67501857Y-93268453D01*
X67846698Y-93452774D01*
X68220872Y-93566278D01*
X68610000Y-93604604D01*
X68999127Y-93566278D01*
X69373301Y-93452774D01*
X69718143Y-93268453D01*
X70020398Y-93020398D01*
X70268453Y-92718143D01*
X70452774Y-92373302D01*
X70566278Y-91999128D01*
X70595000Y-91707510D01*
X70595000Y-90912491D01*
X70595000Y-90912490D01*
X70825000Y-90912490D01*
X70825000Y-91707509D01*
X70853722Y-91999127D01*
X70967226Y-92373301D01*
X71151547Y-92718143D01*
X71399602Y-93020398D01*
X71701857Y-93268453D01*
X72046698Y-93452774D01*
X72420872Y-93566278D01*
X72810000Y-93604604D01*
X73199127Y-93566278D01*
X73573301Y-93452774D01*
X73918143Y-93268453D01*
X74220398Y-93020398D01*
X74468453Y-92718143D01*
X74652774Y-92373302D01*
X74766278Y-91999128D01*
X74795000Y-91707510D01*
X74795000Y-90912491D01*
X74766278Y-90620873D01*
X74652774Y-90246698D01*
X74468453Y-89901857D01*
X74220398Y-89599602D01*
X73918143Y-89351547D01*
X73573302Y-89167226D01*
X73199128Y-89053722D01*
X72810000Y-89015396D01*
X72420873Y-89053722D01*
X72046699Y-89167226D01*
X71701858Y-89351547D01*
X71399603Y-89599602D01*
X71151547Y-89901857D01*
X70967226Y-90246698D01*
X70853722Y-90620872D01*
X70825000Y-90912490D01*
X70595000Y-90912490D01*
X70566278Y-90620873D01*
X70452774Y-90246698D01*
X70268453Y-89901857D01*
X70020398Y-89599602D01*
X69718143Y-89351547D01*
X69473600Y-89220836D01*
X69473600Y-89192720D01*
X69477778Y-89150300D01*
X69461104Y-88981005D01*
X69441924Y-88917779D01*
X69411722Y-88818216D01*
X69331531Y-88668188D01*
X69223612Y-88536688D01*
X69190656Y-88509642D01*
X68769872Y-88088858D01*
X68999127Y-88066278D01*
X69373301Y-87952774D01*
X69718143Y-87768453D01*
X70020398Y-87520398D01*
X70268453Y-87218143D01*
X70452774Y-86873302D01*
X70566278Y-86499128D01*
X70595000Y-86207510D01*
X70595000Y-85412491D01*
X70566278Y-85120873D01*
X70452774Y-84746698D01*
X70272807Y-84410001D01*
X70821928Y-84410001D01*
X70821928Y-87209999D01*
X70838992Y-87383253D01*
X70889529Y-87549850D01*
X70971595Y-87703386D01*
X71082039Y-87837961D01*
X71216614Y-87948405D01*
X71370150Y-88030471D01*
X71536747Y-88081008D01*
X71710001Y-88098072D01*
X73909999Y-88098072D01*
X74083253Y-88081008D01*
X74249850Y-88030471D01*
X74403386Y-87948405D01*
X74537961Y-87837961D01*
X74648405Y-87703386D01*
X74730471Y-87549850D01*
X74781008Y-87383253D01*
X74798072Y-87209999D01*
X74798072Y-84410001D01*
X74781008Y-84236747D01*
X74730471Y-84070150D01*
X74648405Y-83916614D01*
X74537961Y-83782039D01*
X74403386Y-83671595D01*
X74249850Y-83589529D01*
X74083253Y-83538992D01*
X73909999Y-83521928D01*
X71710001Y-83521928D01*
X71536747Y-83538992D01*
X71370150Y-83589529D01*
X71216614Y-83671595D01*
X71082039Y-83782039D01*
X70971595Y-83916614D01*
X70889529Y-84070150D01*
X70838992Y-84236747D01*
X70821928Y-84410001D01*
X70272807Y-84410001D01*
X70268453Y-84401857D01*
X70020398Y-84099602D01*
X69718143Y-83851547D01*
X69373302Y-83667226D01*
X68999128Y-83553722D01*
X68610000Y-83515396D01*
X68220873Y-83553722D01*
X67846699Y-83667226D01*
X67501858Y-83851547D01*
X67199603Y-84099602D01*
X66951547Y-84401857D01*
X66767226Y-84746698D01*
X66653722Y-85120872D01*
X66625000Y-85412490D01*
X66625000Y-85943986D01*
X63921342Y-83240329D01*
X64014494Y-83190537D01*
X64111185Y-83111185D01*
X64190537Y-83014494D01*
X64249502Y-82904180D01*
X64271513Y-82831620D01*
X64403368Y-82963475D01*
X64646589Y-83125990D01*
X64916842Y-83237932D01*
X65203740Y-83295000D01*
X65496260Y-83295000D01*
X65783158Y-83237932D01*
X66053411Y-83125990D01*
X66296632Y-82963475D01*
X66503475Y-82756632D01*
X66625195Y-82574466D01*
X66694822Y-82691355D01*
X66889731Y-82907588D01*
X67123080Y-83081641D01*
X67385901Y-83206825D01*
X67533110Y-83251476D01*
X67763000Y-83130155D01*
X67763000Y-81937000D01*
X68017000Y-81937000D01*
X68017000Y-83130155D01*
X68246890Y-83251476D01*
X68394099Y-83206825D01*
X68656920Y-83081641D01*
X68890269Y-82907588D01*
X69085178Y-82691355D01*
X69234157Y-82441252D01*
X69331481Y-82166891D01*
X69210814Y-81937000D01*
X68017000Y-81937000D01*
X67763000Y-81937000D01*
X67743000Y-81937000D01*
X67743000Y-81683000D01*
X67763000Y-81683000D01*
X67763000Y-80489845D01*
X68017000Y-80489845D01*
X68017000Y-81683000D01*
X69210814Y-81683000D01*
X69331481Y-81453109D01*
X69234157Y-81178748D01*
X69085178Y-80928645D01*
X68890269Y-80712412D01*
X68656920Y-80538359D01*
X68394099Y-80413175D01*
X68246890Y-80368524D01*
X68017000Y-80489845D01*
X67763000Y-80489845D01*
X67533110Y-80368524D01*
X67385901Y-80413175D01*
X67123080Y-80538359D01*
X66889731Y-80712412D01*
X66694822Y-80928645D01*
X66625195Y-81045534D01*
X66503475Y-80863368D01*
X66442200Y-80802093D01*
X66442200Y-79051473D01*
X66631426Y-79129853D01*
X66908665Y-79185000D01*
X66940397Y-79185000D01*
X67806966Y-80051569D01*
X67841163Y-80093239D01*
X68007472Y-80229726D01*
X68179970Y-80321928D01*
X68197212Y-80331144D01*
X68403091Y-80393597D01*
X68422491Y-80395508D01*
X68563552Y-80409401D01*
X68563559Y-80409401D01*
X68617201Y-80414684D01*
X68670842Y-80409401D01*
X72249158Y-80409401D01*
X72302799Y-80414684D01*
X72356440Y-80409401D01*
X72356448Y-80409401D01*
X72516908Y-80393597D01*
X72722788Y-80331144D01*
X72912528Y-80229726D01*
X73078837Y-80093239D01*
X73113039Y-80051564D01*
X73866532Y-79298072D01*
X74660000Y-79298072D01*
X74784482Y-79285812D01*
X74904180Y-79249502D01*
X75014494Y-79190537D01*
X75111185Y-79111185D01*
X75190537Y-79014494D01*
X75249502Y-78904180D01*
X75285812Y-78784482D01*
X75298072Y-78660000D01*
X75298072Y-76960000D01*
X75285812Y-76835518D01*
X75249502Y-76715820D01*
X75190537Y-76605506D01*
X75111185Y-76508815D01*
X75014494Y-76429463D01*
X74904180Y-76370498D01*
X74831620Y-76348487D01*
X74963475Y-76216632D01*
X75125990Y-75973411D01*
X75237932Y-75703158D01*
X75295000Y-75416260D01*
X75295000Y-75123740D01*
X75237932Y-74836842D01*
X75125990Y-74566589D01*
X74963475Y-74323368D01*
X74756632Y-74116525D01*
X74574466Y-73994805D01*
X74691355Y-73925178D01*
X74907588Y-73730269D01*
X75081641Y-73496920D01*
X75206825Y-73234099D01*
X75251476Y-73086890D01*
X75130155Y-72857000D01*
X73937000Y-72857000D01*
X73937000Y-72877000D01*
X73683000Y-72877000D01*
X73683000Y-72857000D01*
X71397000Y-72857000D01*
X71397000Y-72877000D01*
X71143000Y-72877000D01*
X71143000Y-72857000D01*
X69949845Y-72857000D01*
X69828524Y-73086890D01*
X69873175Y-73234099D01*
X69998359Y-73496920D01*
X70172412Y-73730269D01*
X70388645Y-73925178D01*
X70505534Y-73994805D01*
X70323368Y-74116525D01*
X70116525Y-74323368D01*
X69954010Y-74566589D01*
X69842068Y-74836842D01*
X69785000Y-75123740D01*
X69785000Y-75416260D01*
X69842068Y-75703158D01*
X69954010Y-75973411D01*
X70116525Y-76216632D01*
X70323368Y-76423475D01*
X70497760Y-76540000D01*
X70323368Y-76656525D01*
X70262093Y-76717800D01*
X70102404Y-76717800D01*
X68485000Y-75100397D01*
X68485000Y-75068665D01*
X68429853Y-74791426D01*
X68321680Y-74530273D01*
X68164637Y-74295241D01*
X67964759Y-74095363D01*
X67732241Y-73940000D01*
X67964759Y-73784637D01*
X68164637Y-73584759D01*
X68321680Y-73349727D01*
X68429853Y-73088574D01*
X68485000Y-72811335D01*
X68485000Y-72779603D01*
X69241569Y-72023034D01*
X69283239Y-71988837D01*
X69322237Y-71941319D01*
X69388611Y-71860441D01*
X69419726Y-71822528D01*
X69521144Y-71632788D01*
X69583597Y-71426908D01*
X69599401Y-71266448D01*
X69599401Y-71266439D01*
X69604684Y-71212800D01*
X69599401Y-71159161D01*
X69599401Y-70865202D01*
X69841965Y-70622639D01*
X69842068Y-70623158D01*
X69954010Y-70893411D01*
X70116525Y-71136632D01*
X70323368Y-71343475D01*
X70505534Y-71465195D01*
X70388645Y-71534822D01*
X70172412Y-71729731D01*
X69998359Y-71963080D01*
X69873175Y-72225901D01*
X69828524Y-72373110D01*
X69949845Y-72603000D01*
X71143000Y-72603000D01*
X71143000Y-72583000D01*
X71397000Y-72583000D01*
X71397000Y-72603000D01*
X73683000Y-72603000D01*
X73683000Y-72583000D01*
X73937000Y-72583000D01*
X73937000Y-72603000D01*
X75130155Y-72603000D01*
X75251476Y-72373110D01*
X75206825Y-72225901D01*
X75081641Y-71963080D01*
X74907588Y-71729731D01*
X74691355Y-71534822D01*
X74574466Y-71465195D01*
X74756632Y-71343475D01*
X74963475Y-71136632D01*
X75125990Y-70893411D01*
X75237932Y-70623158D01*
X75295000Y-70336260D01*
X75295000Y-70043740D01*
X75237932Y-69756842D01*
X75125990Y-69486589D01*
X74963475Y-69243368D01*
X74756632Y-69036525D01*
X74582240Y-68920000D01*
X74756632Y-68803475D01*
X74963475Y-68596632D01*
X75125990Y-68353411D01*
X75237932Y-68083158D01*
X75295000Y-67796260D01*
X75295000Y-67503740D01*
X75237932Y-67216842D01*
X75125990Y-66946589D01*
X74963475Y-66703368D01*
X74756632Y-66496525D01*
X74513411Y-66334010D01*
X74243158Y-66222068D01*
X73956260Y-66165000D01*
X73869604Y-66165000D01*
X73113039Y-65408436D01*
X73078837Y-65366761D01*
X72912528Y-65230274D01*
X72722788Y-65128856D01*
X72516908Y-65066403D01*
X72356448Y-65050599D01*
X72356440Y-65050599D01*
X72302799Y-65045316D01*
X72249158Y-65050599D01*
X70600184Y-65050599D01*
X70546542Y-65045316D01*
X70492901Y-65050599D01*
X70492894Y-65050599D01*
X70353766Y-65064302D01*
X70332433Y-65066403D01*
X70304815Y-65074781D01*
X70126554Y-65128856D01*
X69936814Y-65230274D01*
X69770505Y-65366761D01*
X69736308Y-65408430D01*
X68286747Y-66857992D01*
X68164637Y-66675241D01*
X67964759Y-66475363D01*
X67732241Y-66320000D01*
X67964759Y-66164637D01*
X68164637Y-65964759D01*
X68321680Y-65729727D01*
X68429853Y-65468574D01*
X68485000Y-65191335D01*
X68485000Y-64908665D01*
X68429853Y-64631426D01*
X68321680Y-64370273D01*
X68164637Y-64135241D01*
X67964759Y-63935363D01*
X67732241Y-63780000D01*
X67964759Y-63624637D01*
X68164637Y-63424759D01*
X68321680Y-63189727D01*
X68429853Y-62928574D01*
X68485000Y-62651335D01*
X68485000Y-62368665D01*
X68429853Y-62091426D01*
X68321680Y-61830273D01*
X68164637Y-61595241D01*
X67964759Y-61395363D01*
X67732241Y-61240000D01*
X67964759Y-61084637D01*
X68164637Y-60884759D01*
X68321680Y-60649727D01*
X68429853Y-60388574D01*
X68485000Y-60111335D01*
X68485000Y-59828665D01*
X68429853Y-59551426D01*
X68321680Y-59290273D01*
X68164637Y-59055241D01*
X67964759Y-58855363D01*
X67732241Y-58700000D01*
X67964759Y-58544637D01*
X68164637Y-58344759D01*
X68321680Y-58109727D01*
X68429853Y-57848574D01*
X68485000Y-57571335D01*
X68485000Y-57288665D01*
X68429853Y-57011426D01*
X68321680Y-56750273D01*
X68164637Y-56515241D01*
X67964759Y-56315363D01*
X67732241Y-56160000D01*
X67964759Y-56004637D01*
X68164637Y-55804759D01*
X68321680Y-55569727D01*
X68429853Y-55308574D01*
X68485000Y-55031335D01*
X68485000Y-54748665D01*
X68460271Y-54624344D01*
X69925000Y-54624344D01*
X69925000Y-54995656D01*
X69997439Y-55359834D01*
X70139534Y-55702882D01*
X70345825Y-56011618D01*
X70608382Y-56274175D01*
X70917118Y-56480466D01*
X71260166Y-56622561D01*
X71624344Y-56695000D01*
X71995656Y-56695000D01*
X72359834Y-56622561D01*
X72702882Y-56480466D01*
X73011618Y-56274175D01*
X73274175Y-56011618D01*
X73480466Y-55702882D01*
X73622561Y-55359834D01*
X73695000Y-54995656D01*
X73695000Y-54624344D01*
X73622561Y-54260166D01*
X73480466Y-53917118D01*
X73274175Y-53608382D01*
X73011618Y-53345825D01*
X72702882Y-53139534D01*
X72359834Y-52997439D01*
X71995656Y-52925000D01*
X71624344Y-52925000D01*
X71260166Y-52997439D01*
X70917118Y-53139534D01*
X70608382Y-53345825D01*
X70345825Y-53608382D01*
X70139534Y-53917118D01*
X69997439Y-54260166D01*
X69925000Y-54624344D01*
X68460271Y-54624344D01*
X68429853Y-54471426D01*
X68321680Y-54210273D01*
X68164637Y-53975241D01*
X67964759Y-53775363D01*
X67729727Y-53618320D01*
X67719135Y-53613933D01*
X67905131Y-53502385D01*
X68113519Y-53313414D01*
X68281037Y-53087420D01*
X68401246Y-52833087D01*
X68441904Y-52699039D01*
X68319915Y-52477000D01*
X67177000Y-52477000D01*
X67177000Y-52497000D01*
X66923000Y-52497000D01*
X66923000Y-52477000D01*
X65780085Y-52477000D01*
X65658096Y-52699039D01*
X65698754Y-52833087D01*
X65818963Y-53087420D01*
X65986481Y-53313414D01*
X66194869Y-53502385D01*
X66380865Y-53613933D01*
X66370273Y-53618320D01*
X66135241Y-53775363D01*
X65935363Y-53975241D01*
X65778320Y-54210273D01*
X65670147Y-54471426D01*
X65615000Y-54748665D01*
X65615000Y-55031335D01*
X65670147Y-55308574D01*
X65778320Y-55569727D01*
X65935363Y-55804759D01*
X66135241Y-56004637D01*
X66367759Y-56160000D01*
X66135241Y-56315363D01*
X65935363Y-56515241D01*
X65778320Y-56750273D01*
X65670147Y-57011426D01*
X65615000Y-57288665D01*
X65615000Y-57571335D01*
X65670147Y-57848574D01*
X65778320Y-58109727D01*
X65935363Y-58344759D01*
X66135241Y-58544637D01*
X66367759Y-58700000D01*
X66135241Y-58855363D01*
X65935363Y-59055241D01*
X65778320Y-59290273D01*
X65670147Y-59551426D01*
X65615000Y-59828665D01*
X65615000Y-60111335D01*
X65670147Y-60388574D01*
X65778320Y-60649727D01*
X65935363Y-60884759D01*
X66135241Y-61084637D01*
X66367759Y-61240000D01*
X66135241Y-61395363D01*
X65935363Y-61595241D01*
X65778320Y-61830273D01*
X65670147Y-62091426D01*
X65615000Y-62368665D01*
X65615000Y-62651335D01*
X65670147Y-62928574D01*
X65778320Y-63189727D01*
X65935363Y-63424759D01*
X66135241Y-63624637D01*
X66367759Y-63780000D01*
X66135241Y-63935363D01*
X65935363Y-64135241D01*
X65778320Y-64370273D01*
X65670147Y-64631426D01*
X65615000Y-64908665D01*
X65615000Y-65191335D01*
X65670147Y-65468574D01*
X65778320Y-65729727D01*
X65935363Y-65964759D01*
X66135241Y-66164637D01*
X66367759Y-66320000D01*
X66135241Y-66475363D01*
X65935363Y-66675241D01*
X65778320Y-66910273D01*
X65670147Y-67171426D01*
X65615000Y-67448665D01*
X65615000Y-67480396D01*
X64615632Y-68479765D01*
X64573963Y-68513962D01*
X64437476Y-68680271D01*
X64400127Y-68750147D01*
X64336057Y-68870012D01*
X64298072Y-68995231D01*
X64298072Y-67960000D01*
X64285812Y-67835518D01*
X64249502Y-67715820D01*
X64190537Y-67605506D01*
X64111185Y-67508815D01*
X64014494Y-67429463D01*
X63904180Y-67370498D01*
X63784482Y-67334188D01*
X63660000Y-67321928D01*
X61960000Y-67321928D01*
X61835518Y-67334188D01*
X61715820Y-67370498D01*
X61605506Y-67429463D01*
X61508815Y-67508815D01*
X61429463Y-67605506D01*
X61370498Y-67715820D01*
X61334188Y-67835518D01*
X61321928Y-67960000D01*
X61321928Y-69076758D01*
X60410761Y-69987925D01*
X60377799Y-70014977D01*
X60269880Y-70146478D01*
X60189689Y-70296506D01*
X60154412Y-70412799D01*
X60140307Y-70459295D01*
X60123633Y-70628589D01*
X60127811Y-70671009D01*
X60127811Y-72083804D01*
X60105600Y-72081616D01*
X60083389Y-72083804D01*
X60083389Y-71262206D01*
X60087567Y-71219788D01*
X60080097Y-71143943D01*
X60070893Y-71050494D01*
X60021511Y-70887705D01*
X59941320Y-70737677D01*
X59833401Y-70606177D01*
X59800450Y-70579135D01*
X58298072Y-69076758D01*
X58298072Y-67960000D01*
X58285812Y-67835518D01*
X58249502Y-67715820D01*
X58190537Y-67605506D01*
X58111185Y-67508815D01*
X58014494Y-67429463D01*
X57904180Y-67370498D01*
X57784482Y-67334188D01*
X57660000Y-67321928D01*
X55960000Y-67321928D01*
X55835518Y-67334188D01*
X55715820Y-67370498D01*
X55605506Y-67429463D01*
X55508815Y-67508815D01*
X55429463Y-67605506D01*
X55370498Y-67715820D01*
X55334188Y-67835518D01*
X55321928Y-67960000D01*
X53199515Y-67960000D01*
X53245000Y-67731335D01*
X53245000Y-67448665D01*
X53189853Y-67171426D01*
X53081680Y-66910273D01*
X52924637Y-66675241D01*
X52724759Y-66475363D01*
X52492241Y-66320000D01*
X52724759Y-66164637D01*
X52924637Y-65964759D01*
X53081680Y-65729727D01*
X53189853Y-65468574D01*
X53245000Y-65191335D01*
X53245000Y-64908665D01*
X53189853Y-64631426D01*
X53081680Y-64370273D01*
X52924637Y-64135241D01*
X52724759Y-63935363D01*
X52518256Y-63797382D01*
X52502612Y-63778320D01*
X52499830Y-63774930D01*
X52724759Y-63624637D01*
X52924637Y-63424759D01*
X53081680Y-63189727D01*
X53189853Y-62928574D01*
X53245000Y-62651335D01*
X53245000Y-62368665D01*
X53189853Y-62091426D01*
X53081680Y-61830273D01*
X52924637Y-61595241D01*
X52724759Y-61395363D01*
X52492241Y-61240000D01*
X52724759Y-61084637D01*
X52924637Y-60884759D01*
X53081680Y-60649727D01*
X53189853Y-60388574D01*
X53245000Y-60111335D01*
X53245000Y-59828665D01*
X53189853Y-59551426D01*
X53081680Y-59290273D01*
X52924637Y-59055241D01*
X52724759Y-58855363D01*
X52489727Y-58698320D01*
X52479135Y-58693933D01*
X52665131Y-58582385D01*
X52873519Y-58393414D01*
X53041037Y-58167420D01*
X53161246Y-57913087D01*
X53201904Y-57779039D01*
X53079915Y-57557000D01*
X51937000Y-57557000D01*
X51937000Y-57577000D01*
X51683000Y-57577000D01*
X51683000Y-57557000D01*
X50540085Y-57557000D01*
X50418096Y-57779039D01*
X50458754Y-57913087D01*
X50578963Y-58167420D01*
X50746481Y-58393414D01*
X50954869Y-58582385D01*
X51140865Y-58693933D01*
X51130273Y-58698320D01*
X51004004Y-58782690D01*
X49298072Y-57076759D01*
X49298072Y-55960000D01*
X49285812Y-55835518D01*
X49249502Y-55715820D01*
X49190537Y-55605506D01*
X49111185Y-55508815D01*
X49014494Y-55429463D01*
X48904180Y-55370498D01*
X48784482Y-55334188D01*
X48660000Y-55321928D01*
X47394999Y-55321928D01*
X47394999Y-55239039D01*
X50418096Y-55239039D01*
X50458754Y-55373087D01*
X50578963Y-55627420D01*
X50746481Y-55853414D01*
X50954869Y-56042385D01*
X51150982Y-56160000D01*
X50954869Y-56277615D01*
X50746481Y-56466586D01*
X50578963Y-56692580D01*
X50458754Y-56946913D01*
X50418096Y-57080961D01*
X50540085Y-57303000D01*
X51683000Y-57303000D01*
X51683000Y-55017000D01*
X51937000Y-55017000D01*
X51937000Y-57303000D01*
X53079915Y-57303000D01*
X53201904Y-57080961D01*
X53161246Y-56946913D01*
X53041037Y-56692580D01*
X52873519Y-56466586D01*
X52665131Y-56277615D01*
X52469018Y-56160000D01*
X52665131Y-56042385D01*
X52873519Y-55853414D01*
X53041037Y-55627420D01*
X53161246Y-55373087D01*
X53201904Y-55239039D01*
X53079915Y-55017000D01*
X51937000Y-55017000D01*
X51683000Y-55017000D01*
X50540085Y-55017000D01*
X50418096Y-55239039D01*
X47394999Y-55239039D01*
X47394999Y-54646670D01*
X47460000Y-54653072D01*
X49110000Y-54653072D01*
X49263745Y-54637929D01*
X49411582Y-54593084D01*
X49438679Y-54578600D01*
X50402580Y-54578600D01*
X50440846Y-54582369D01*
X50540085Y-54763000D01*
X51683000Y-54763000D01*
X51683000Y-54743000D01*
X51937000Y-54743000D01*
X51937000Y-54763000D01*
X53079915Y-54763000D01*
X53201904Y-54540961D01*
X53161246Y-54406913D01*
X53041037Y-54152580D01*
X52873519Y-53926586D01*
X52665131Y-53737615D01*
X52479135Y-53626067D01*
X52489727Y-53621680D01*
X52724759Y-53464637D01*
X52924637Y-53264759D01*
X53081680Y-53029727D01*
X53189853Y-52768574D01*
X53245000Y-52491335D01*
X53245000Y-52208665D01*
X53189853Y-51931426D01*
X53081680Y-51670273D01*
X52924637Y-51435241D01*
X52726039Y-51236643D01*
X52734482Y-51235812D01*
X52854180Y-51199502D01*
X52964494Y-51140537D01*
X53061185Y-51061185D01*
X53140537Y-50964494D01*
X53199502Y-50854180D01*
X53235812Y-50734482D01*
X53248072Y-50610000D01*
X53248072Y-49444999D01*
X65140396Y-49444999D01*
X65615000Y-49919604D01*
X65615000Y-49951335D01*
X65670147Y-50228574D01*
X65778320Y-50489727D01*
X65935363Y-50724759D01*
X66135241Y-50924637D01*
X66370273Y-51081680D01*
X66380865Y-51086067D01*
X66194869Y-51197615D01*
X65986481Y-51386586D01*
X65818963Y-51612580D01*
X65698754Y-51866913D01*
X65658096Y-52000961D01*
X65780085Y-52223000D01*
X66923000Y-52223000D01*
X66923000Y-52203000D01*
X67177000Y-52203000D01*
X67177000Y-52223000D01*
X68319915Y-52223000D01*
X68441904Y-52000961D01*
X68401246Y-51866913D01*
X68281037Y-51612580D01*
X68113519Y-51386586D01*
X67905131Y-51197615D01*
X67719135Y-51086067D01*
X67729727Y-51081680D01*
X67964759Y-50924637D01*
X68164637Y-50724759D01*
X68321680Y-50489727D01*
X68429853Y-50228574D01*
X68485000Y-49951335D01*
X68485000Y-49668665D01*
X68429853Y-49391426D01*
X68321680Y-49130273D01*
X68164637Y-48895241D01*
X67964759Y-48695363D01*
X67729727Y-48538320D01*
X67468574Y-48430147D01*
X67191335Y-48375000D01*
X67159604Y-48375000D01*
X67031610Y-48247007D01*
X68834811Y-48247007D01*
X75793241Y-55205438D01*
X75793240Y-75597068D01*
X75730293Y-75648728D01*
X75647816Y-75749226D01*
X75586531Y-75863883D01*
X75548791Y-75988293D01*
X75539241Y-76085257D01*
X75539240Y-96336607D01*
X32650756Y-96336607D01*
X27938493Y-91624344D01*
X29925000Y-91624344D01*
X29925000Y-91995656D01*
X29997439Y-92359834D01*
X30139534Y-92702882D01*
X30345825Y-93011618D01*
X30608382Y-93274175D01*
X30917118Y-93480466D01*
X31260166Y-93622561D01*
X31624344Y-93695000D01*
X31995656Y-93695000D01*
X32359834Y-93622561D01*
X32702882Y-93480466D01*
X33011618Y-93274175D01*
X33274175Y-93011618D01*
X33480466Y-92702882D01*
X33622561Y-92359834D01*
X33695000Y-91995656D01*
X33695000Y-91624344D01*
X33622561Y-91260166D01*
X33480466Y-90917118D01*
X33274175Y-90608382D01*
X33011618Y-90345825D01*
X32702882Y-90139534D01*
X32359834Y-89997439D01*
X31995656Y-89925000D01*
X31624344Y-89925000D01*
X31260166Y-89997439D01*
X30917118Y-90139534D01*
X30608382Y-90345825D01*
X30345825Y-90608382D01*
X30139534Y-90917118D01*
X29997439Y-91260166D01*
X29925000Y-91624344D01*
X27938493Y-91624344D01*
X26708326Y-90394178D01*
X26708326Y-84960000D01*
X36321928Y-84960000D01*
X36325000Y-85524250D01*
X36483750Y-85683000D01*
X37683000Y-85683000D01*
X37683000Y-84483750D01*
X37524250Y-84325000D01*
X36960000Y-84321928D01*
X36835518Y-84334188D01*
X36715820Y-84370498D01*
X36605506Y-84429463D01*
X36508815Y-84508815D01*
X36429463Y-84605506D01*
X36370498Y-84715820D01*
X36334188Y-84835518D01*
X36321928Y-84960000D01*
X26708326Y-84960000D01*
X26708326Y-76639721D01*
X27575000Y-76639721D01*
X27575000Y-77060279D01*
X27657047Y-77472756D01*
X27817988Y-77861302D01*
X28051637Y-78210983D01*
X28349017Y-78508363D01*
X28698698Y-78742012D01*
X29087244Y-78902953D01*
X29499721Y-78985000D01*
X29920279Y-78985000D01*
X30332756Y-78902953D01*
X30721302Y-78742012D01*
X31070983Y-78508363D01*
X31368363Y-78210983D01*
X31602012Y-77861302D01*
X31762953Y-77472756D01*
X31770065Y-77437000D01*
X32425000Y-77437000D01*
X32425000Y-77737000D01*
X32487918Y-78121814D01*
X32624700Y-78486959D01*
X32830090Y-78818403D01*
X33096195Y-79103409D01*
X33412789Y-79331024D01*
X33767705Y-79492501D01*
X33974677Y-79546677D01*
X34283000Y-79431829D01*
X34283000Y-77437000D01*
X34537000Y-77437000D01*
X34537000Y-79431829D01*
X34845323Y-79546677D01*
X35052295Y-79492501D01*
X35407211Y-79331024D01*
X35723805Y-79103409D01*
X35989910Y-78818403D01*
X36195300Y-78486959D01*
X36332082Y-78121814D01*
X36395000Y-77737000D01*
X36395000Y-77437000D01*
X34537000Y-77437000D01*
X34283000Y-77437000D01*
X32425000Y-77437000D01*
X31770065Y-77437000D01*
X31845000Y-77060279D01*
X31845000Y-76883000D01*
X32425000Y-76883000D01*
X32425000Y-77183000D01*
X34283000Y-77183000D01*
X34283000Y-75188171D01*
X34537000Y-75188171D01*
X34537000Y-77183000D01*
X36395000Y-77183000D01*
X36395000Y-76883000D01*
X36332082Y-76498186D01*
X36195300Y-76133041D01*
X35989910Y-75801597D01*
X35723805Y-75516591D01*
X35407211Y-75288976D01*
X35052295Y-75127499D01*
X34845323Y-75073323D01*
X34537000Y-75188171D01*
X34283000Y-75188171D01*
X33974677Y-75073323D01*
X33767705Y-75127499D01*
X33412789Y-75288976D01*
X33096195Y-75516591D01*
X32830090Y-75801597D01*
X32624700Y-76133041D01*
X32487918Y-76498186D01*
X32425000Y-76883000D01*
X31845000Y-76883000D01*
X31845000Y-76639721D01*
X31762953Y-76227244D01*
X31602012Y-75838698D01*
X31368363Y-75489017D01*
X31070983Y-75191637D01*
X30721302Y-74957988D01*
X30332756Y-74797047D01*
X29920279Y-74715000D01*
X29499721Y-74715000D01*
X29087244Y-74797047D01*
X28698698Y-74957988D01*
X28349017Y-75191637D01*
X28051637Y-75489017D01*
X27817988Y-75838698D01*
X27657047Y-76227244D01*
X27575000Y-76639721D01*
X26708326Y-76639721D01*
X26708326Y-66155824D01*
X32425000Y-71872499D01*
X32425000Y-72207509D01*
X32453722Y-72499127D01*
X32567226Y-72873301D01*
X32751547Y-73218143D01*
X32999602Y-73520398D01*
X33301857Y-73768453D01*
X33646698Y-73952774D01*
X34020872Y-74066278D01*
X34410000Y-74104604D01*
X34799127Y-74066278D01*
X35173301Y-73952774D01*
X35518143Y-73768453D01*
X35820398Y-73520398D01*
X36068453Y-73218143D01*
X36252774Y-72873302D01*
X36366278Y-72499128D01*
X36395000Y-72207510D01*
X36395000Y-71412491D01*
X36366278Y-71120873D01*
X36252774Y-70746698D01*
X36068453Y-70401857D01*
X35820398Y-70099602D01*
X35518143Y-69851547D01*
X35173302Y-69667226D01*
X34799128Y-69553722D01*
X34410000Y-69515396D01*
X34185051Y-69537552D01*
X29632498Y-64985000D01*
X29920279Y-64985000D01*
X30332756Y-64902953D01*
X30721302Y-64742012D01*
X31070983Y-64508363D01*
X31368363Y-64210983D01*
X31602012Y-63861302D01*
X31762953Y-63472756D01*
X31770065Y-63437000D01*
X32425000Y-63437000D01*
X32425000Y-63737000D01*
X32487918Y-64121814D01*
X32624700Y-64486959D01*
X32830090Y-64818403D01*
X33096195Y-65103409D01*
X33412789Y-65331024D01*
X33767705Y-65492501D01*
X33974677Y-65546677D01*
X34283000Y-65431829D01*
X34283000Y-63437000D01*
X34537000Y-63437000D01*
X34537000Y-65431829D01*
X34845323Y-65546677D01*
X35052295Y-65492501D01*
X35407211Y-65331024D01*
X35723805Y-65103409D01*
X35989910Y-64818403D01*
X36195300Y-64486959D01*
X36332082Y-64121814D01*
X36395000Y-63737000D01*
X36395000Y-63437000D01*
X34537000Y-63437000D01*
X34283000Y-63437000D01*
X32425000Y-63437000D01*
X31770065Y-63437000D01*
X31845000Y-63060279D01*
X31845000Y-62883000D01*
X32425000Y-62883000D01*
X32425000Y-63183000D01*
X34283000Y-63183000D01*
X34283000Y-61188171D01*
X34537000Y-61188171D01*
X34537000Y-63183000D01*
X36395000Y-63183000D01*
X36395000Y-62883000D01*
X36332082Y-62498186D01*
X36195300Y-62133041D01*
X35989910Y-61801597D01*
X35723805Y-61516591D01*
X35407211Y-61288976D01*
X35052295Y-61127499D01*
X34845323Y-61073323D01*
X34537000Y-61188171D01*
X34283000Y-61188171D01*
X33974677Y-61073323D01*
X33767705Y-61127499D01*
X33412789Y-61288976D01*
X33096195Y-61516591D01*
X32830090Y-61801597D01*
X32624700Y-62133041D01*
X32487918Y-62498186D01*
X32425000Y-62883000D01*
X31845000Y-62883000D01*
X31845000Y-62639721D01*
X31762953Y-62227244D01*
X31602012Y-61838698D01*
X31368363Y-61489017D01*
X31070983Y-61191637D01*
X30721302Y-60957988D01*
X30332756Y-60797047D01*
X30131532Y-60757021D01*
X31630753Y-59257800D01*
X32784093Y-59257800D01*
X32999602Y-59520398D01*
X33301857Y-59768453D01*
X33646698Y-59952774D01*
X34020872Y-60066278D01*
X34410000Y-60104604D01*
X34799127Y-60066278D01*
X35173301Y-59952774D01*
X35518143Y-59768453D01*
X35820398Y-59520398D01*
X36068453Y-59218143D01*
X36252774Y-58873302D01*
X36366278Y-58499128D01*
X36395000Y-58207510D01*
X36395000Y-57412491D01*
X36366278Y-57120873D01*
X36252774Y-56746698D01*
X36068453Y-56401857D01*
X35820398Y-56099602D01*
X35518143Y-55851547D01*
X35173302Y-55667226D01*
X34799128Y-55553722D01*
X34410000Y-55515396D01*
X34020873Y-55553722D01*
X33646699Y-55667226D01*
X33301858Y-55851547D01*
X32999603Y-56099602D01*
X32784093Y-56362200D01*
X31102168Y-56362200D01*
X31031054Y-56355196D01*
X30959939Y-56362200D01*
X30959932Y-56362200D01*
X30772759Y-56380635D01*
X30747235Y-56383149D01*
X30474324Y-56465935D01*
X30222808Y-56600374D01*
X30222806Y-56600375D01*
X30222807Y-56600375D01*
X30057595Y-56735960D01*
X30057589Y-56735966D01*
X30002352Y-56781298D01*
X29957020Y-56836535D01*
X26708326Y-60085230D01*
X26708326Y-55205436D01*
X33666756Y-48247007D01*
X40009399Y-48247007D01*
X36333349Y-51923058D01*
G04 #@! TA.AperFunction,Conductor*
D20*
G36*
X36333349Y-51923058D02*
G01*
X36480466Y-51702882D01*
X36622561Y-51359834D01*
X36695000Y-50995656D01*
X36695000Y-50624344D01*
X36622561Y-50260166D01*
X36480466Y-49917118D01*
X36274175Y-49608382D01*
X36011618Y-49345825D01*
X35702882Y-49139534D01*
X35359834Y-48997439D01*
X34995656Y-48925000D01*
X34624344Y-48925000D01*
X34260166Y-48997439D01*
X33917118Y-49139534D01*
X33608382Y-49345825D01*
X33345825Y-49608382D01*
X33139534Y-49917118D01*
X32997439Y-50260166D01*
X32925000Y-50624344D01*
X32925000Y-50995656D01*
X32997439Y-51359834D01*
X33139534Y-51702882D01*
X33345825Y-52011618D01*
X33608382Y-52274175D01*
X33917118Y-52480466D01*
X34260166Y-52622561D01*
X34624344Y-52695000D01*
X34995656Y-52695000D01*
X35359834Y-52622561D01*
X35702882Y-52480466D01*
X35908089Y-52343351D01*
X35885356Y-52371051D01*
X35885353Y-52371054D01*
X35847100Y-52417666D01*
X35783066Y-52495691D01*
X35758906Y-52540891D01*
X35681647Y-52685432D01*
X35627510Y-52863896D01*
X35619194Y-52891311D01*
X35603390Y-53051771D01*
X35603390Y-53051779D01*
X35598107Y-53105420D01*
X35603390Y-53159061D01*
X35603390Y-54217963D01*
X35598107Y-54271604D01*
X35603390Y-54325245D01*
X35603390Y-54325252D01*
X35617093Y-54464380D01*
X35619194Y-54485713D01*
X35665568Y-54638586D01*
X35681647Y-54691592D01*
X35783065Y-54881333D01*
X35919552Y-55047642D01*
X35961227Y-55081844D01*
X36538156Y-55658773D01*
X36572358Y-55700448D01*
X36738667Y-55836935D01*
X36928407Y-55938353D01*
X37086369Y-55986270D01*
X37134286Y-56000806D01*
X37155619Y-56002907D01*
X37294747Y-56016610D01*
X37294754Y-56016610D01*
X37300089Y-56017135D01*
X37199603Y-56099602D01*
X36951547Y-56401857D01*
X36767226Y-56746698D01*
X36653722Y-57120872D01*
X36625000Y-57412490D01*
X36625000Y-58207509D01*
X36653722Y-58499127D01*
X36767226Y-58873301D01*
X36951547Y-59218143D01*
X37199602Y-59520398D01*
X37501857Y-59768453D01*
X37846698Y-59952774D01*
X38220872Y-60066278D01*
X38610000Y-60104604D01*
X38999127Y-60066278D01*
X39373301Y-59952774D01*
X39718143Y-59768453D01*
X40020398Y-59520398D01*
X40268453Y-59218143D01*
X40452774Y-58873302D01*
X40566278Y-58499128D01*
X40595000Y-58207510D01*
X40595000Y-57412491D01*
X40566278Y-57120873D01*
X40561927Y-57106531D01*
X40821928Y-57366532D01*
X40821928Y-59209999D01*
X40838992Y-59383253D01*
X40889529Y-59549850D01*
X40971595Y-59703386D01*
X41082039Y-59837961D01*
X41216614Y-59948405D01*
X41235313Y-59958400D01*
X41140417Y-59958400D01*
X41097999Y-59954222D01*
X41055581Y-59958400D01*
X41055580Y-59958400D01*
X40928705Y-59970896D01*
X40765916Y-60020278D01*
X40615888Y-60100469D01*
X40484388Y-60208388D01*
X40457346Y-60241339D01*
X39476369Y-61222317D01*
X39373302Y-61167226D01*
X38999128Y-61053722D01*
X38610000Y-61015396D01*
X38220873Y-61053722D01*
X37846699Y-61167226D01*
X37501858Y-61351547D01*
X37199603Y-61599602D01*
X36951547Y-61901857D01*
X36767226Y-62246698D01*
X36653722Y-62620872D01*
X36625000Y-62912490D01*
X36625000Y-63707509D01*
X36653722Y-63999127D01*
X36767226Y-64373301D01*
X36951547Y-64718143D01*
X37199602Y-65020398D01*
X37501857Y-65268453D01*
X37846698Y-65452774D01*
X38220872Y-65566278D01*
X38610000Y-65604604D01*
X38999127Y-65566278D01*
X39373301Y-65452774D01*
X39476369Y-65397683D01*
X39525010Y-65446325D01*
X39525010Y-69748316D01*
X39373302Y-69667226D01*
X38999128Y-69553722D01*
X38610000Y-69515396D01*
X38220873Y-69553722D01*
X37846699Y-69667226D01*
X37501858Y-69851547D01*
X37199603Y-70099602D01*
X36951547Y-70401857D01*
X36767226Y-70746698D01*
X36653722Y-71120872D01*
X36625000Y-71412490D01*
X36625000Y-72207509D01*
X36653722Y-72499127D01*
X36767226Y-72873301D01*
X36951547Y-73218143D01*
X37199602Y-73520398D01*
X37501857Y-73768453D01*
X37846698Y-73952774D01*
X38220872Y-74066278D01*
X38610000Y-74104604D01*
X38999127Y-74066278D01*
X39373301Y-73952774D01*
X39525011Y-73871684D01*
X39525011Y-75173674D01*
X39476369Y-75222316D01*
X39373302Y-75167226D01*
X38999128Y-75053722D01*
X38610000Y-75015396D01*
X38220873Y-75053722D01*
X37846699Y-75167226D01*
X37501858Y-75351547D01*
X37199603Y-75599602D01*
X36951547Y-75901857D01*
X36767226Y-76246698D01*
X36653722Y-76620872D01*
X36625000Y-76912490D01*
X36625000Y-77707509D01*
X36653722Y-77999127D01*
X36767226Y-78373301D01*
X36951547Y-78718143D01*
X37199602Y-79020398D01*
X37501857Y-79268453D01*
X37846698Y-79452774D01*
X38220872Y-79566278D01*
X38610000Y-79604604D01*
X38999127Y-79566278D01*
X39373301Y-79452774D01*
X39718143Y-79268453D01*
X40020398Y-79020398D01*
X40268453Y-78718143D01*
X40452774Y-78373302D01*
X40566278Y-77999128D01*
X40595000Y-77707510D01*
X40595000Y-76912491D01*
X40566278Y-76620873D01*
X40555610Y-76585705D01*
X40969270Y-76172045D01*
X41002222Y-76145002D01*
X41057748Y-76077344D01*
X40967226Y-76246698D01*
X40853722Y-76620872D01*
X40825000Y-76912490D01*
X40825000Y-77707509D01*
X40853722Y-77999127D01*
X40967226Y-78373301D01*
X41151547Y-78718143D01*
X41399602Y-79020398D01*
X41701857Y-79268453D01*
X42046698Y-79452774D01*
X42420872Y-79566278D01*
X42810000Y-79604604D01*
X43199127Y-79566278D01*
X43219625Y-79560060D01*
X38507947Y-84271740D01*
X38474990Y-84298787D01*
X38455083Y-84323044D01*
X38095750Y-84325000D01*
X37937000Y-84483750D01*
X37937000Y-85683000D01*
X37957000Y-85683000D01*
X37957000Y-85937000D01*
X37937000Y-85937000D01*
X37937000Y-85957000D01*
X37683000Y-85957000D01*
X37683000Y-85937000D01*
X36483750Y-85937000D01*
X36325000Y-86095750D01*
X36321928Y-86660000D01*
X36334188Y-86784482D01*
X36370498Y-86904180D01*
X36429463Y-87014494D01*
X36508815Y-87111185D01*
X36605506Y-87190537D01*
X36715820Y-87249502D01*
X36788380Y-87271513D01*
X36656525Y-87403368D01*
X36494010Y-87646589D01*
X36382068Y-87916842D01*
X36325000Y-88203740D01*
X36325000Y-88496260D01*
X36382068Y-88783158D01*
X36494010Y-89053411D01*
X36656525Y-89296632D01*
X36863368Y-89503475D01*
X37037760Y-89620000D01*
X36863368Y-89736525D01*
X36656525Y-89943368D01*
X36494010Y-90186589D01*
X36382068Y-90456842D01*
X36325000Y-90743740D01*
X36325000Y-91036260D01*
X36382068Y-91323158D01*
X36494010Y-91593411D01*
X36656525Y-91836632D01*
X36863368Y-92043475D01*
X37106589Y-92205990D01*
X37376842Y-92317932D01*
X37663740Y-92375000D01*
X37956260Y-92375000D01*
X38243158Y-92317932D01*
X38513411Y-92205990D01*
X38756632Y-92043475D01*
X38963475Y-91836632D01*
X39125990Y-91593411D01*
X39237932Y-91323158D01*
X39295000Y-91036260D01*
X39295000Y-90743740D01*
X39275518Y-90645796D01*
X39669257Y-90252057D01*
X39702213Y-90225011D01*
X39810132Y-90093511D01*
X39890323Y-89943483D01*
X39939705Y-89780694D01*
X39952201Y-89653819D01*
X39952201Y-89653818D01*
X39956379Y-89611399D01*
X39952201Y-89568979D01*
X39952201Y-85270112D01*
X40328441Y-84893872D01*
X40321928Y-84960000D01*
X40321928Y-86660000D01*
X40334188Y-86784482D01*
X40370498Y-86904180D01*
X40429463Y-87014494D01*
X40508815Y-87111185D01*
X40605506Y-87190537D01*
X40715820Y-87249502D01*
X40788380Y-87271513D01*
X40656525Y-87403368D01*
X40494010Y-87646589D01*
X40382068Y-87916842D01*
X40325000Y-88203740D01*
X40325000Y-88496260D01*
X40382068Y-88783158D01*
X40494010Y-89053411D01*
X40656525Y-89296632D01*
X40863368Y-89503475D01*
X41106589Y-89665990D01*
X41376842Y-89777932D01*
X41663740Y-89835000D01*
X41956260Y-89835000D01*
X42054204Y-89815518D01*
X44906845Y-92668160D01*
X44933888Y-92701112D01*
X45065388Y-92809031D01*
X45215416Y-92889222D01*
X45378205Y-92938604D01*
X45505080Y-92951100D01*
X45505082Y-92951100D01*
X45547499Y-92955278D01*
X45589917Y-92951100D01*
X46600928Y-92951100D01*
X46600928Y-93239001D01*
X46617992Y-93412255D01*
X46668528Y-93578851D01*
X46750595Y-93732387D01*
X46861038Y-93866962D01*
X46995613Y-93977405D01*
X47149149Y-94059472D01*
X47315745Y-94110008D01*
X47488999Y-94127072D01*
X48389001Y-94127072D01*
X48562255Y-94110008D01*
X48728851Y-94059472D01*
X48882387Y-93977405D01*
X48927614Y-93940288D01*
X48946815Y-93963685D01*
X49043506Y-94043037D01*
X49153820Y-94102002D01*
X49273518Y-94138312D01*
X49398000Y-94150572D01*
X49812250Y-94147500D01*
X49971000Y-93988750D01*
X49971000Y-93127000D01*
X50225000Y-93127000D01*
X50225000Y-93988750D01*
X50383750Y-94147500D01*
X50798000Y-94150572D01*
X50922482Y-94138312D01*
X51042180Y-94102002D01*
X51152494Y-94043037D01*
X51249185Y-93963685D01*
X51328537Y-93866994D01*
X51387502Y-93756680D01*
X51423812Y-93636982D01*
X51436072Y-93512500D01*
X51433000Y-93285750D01*
X51274250Y-93127000D01*
X50225000Y-93127000D01*
X49971000Y-93127000D01*
X49951000Y-93127000D01*
X49951000Y-92873000D01*
X49971000Y-92873000D01*
X49971000Y-92853000D01*
X50225000Y-92853000D01*
X50225000Y-92873000D01*
X51274250Y-92873000D01*
X51433000Y-92714250D01*
X51436072Y-92487500D01*
X51423812Y-92363018D01*
X51387502Y-92243320D01*
X51328537Y-92133006D01*
X51249185Y-92036315D01*
X51219724Y-92012137D01*
X51286405Y-91930887D01*
X51368472Y-91777351D01*
X51419008Y-91610755D01*
X51436072Y-91437501D01*
X51436072Y-90912499D01*
X51419008Y-90739245D01*
X51368472Y-90572649D01*
X51286405Y-90419113D01*
X51175962Y-90284538D01*
X51041387Y-90174095D01*
X50887851Y-90092028D01*
X50721255Y-90041492D01*
X50548001Y-90024428D01*
X50168743Y-90024428D01*
X47913664Y-87769351D01*
X47886612Y-87736388D01*
X47755112Y-87628469D01*
X47605084Y-87548278D01*
X47442295Y-87498896D01*
X47315420Y-87486400D01*
X47273000Y-87482222D01*
X47230580Y-87486400D01*
X47018955Y-87486400D01*
X46963475Y-87403368D01*
X46831620Y-87271513D01*
X46904180Y-87249502D01*
X47014494Y-87190537D01*
X47111185Y-87111185D01*
X47190537Y-87014494D01*
X47249502Y-86904180D01*
X47285812Y-86784482D01*
X47298072Y-86660000D01*
X47298072Y-84960000D01*
X47285812Y-84835518D01*
X47249502Y-84715820D01*
X47190537Y-84605506D01*
X47111185Y-84508815D01*
X47014494Y-84429463D01*
X46904180Y-84370498D01*
X46784482Y-84334188D01*
X46660000Y-84321928D01*
X46284811Y-84321928D01*
X46284811Y-78599098D01*
X46498698Y-78742012D01*
X46887244Y-78902953D01*
X47299721Y-78985000D01*
X47720279Y-78985000D01*
X48132756Y-78902953D01*
X48521302Y-78742012D01*
X48870983Y-78508363D01*
X49168363Y-78210983D01*
X49402012Y-77861302D01*
X49562953Y-77472756D01*
X49645000Y-77060279D01*
X49645000Y-76639721D01*
X49562953Y-76227244D01*
X49402012Y-75838698D01*
X49168363Y-75489017D01*
X48870983Y-75191637D01*
X48521302Y-74957988D01*
X48132756Y-74797047D01*
X47720279Y-74715000D01*
X47314943Y-74715000D01*
X50840274Y-71189670D01*
X50895241Y-71244637D01*
X51127759Y-71400000D01*
X50895241Y-71555363D01*
X50695363Y-71755241D01*
X50538320Y-71990273D01*
X50430147Y-72251426D01*
X50375000Y-72528665D01*
X50375000Y-72811335D01*
X50430147Y-73088574D01*
X50538320Y-73349727D01*
X50695363Y-73584759D01*
X50895241Y-73784637D01*
X51127759Y-73940000D01*
X50895241Y-74095363D01*
X50695363Y-74295241D01*
X50538320Y-74530273D01*
X50430147Y-74791426D01*
X50375000Y-75068665D01*
X50375000Y-75351335D01*
X50430147Y-75628574D01*
X50538320Y-75889727D01*
X50695363Y-76124759D01*
X50895241Y-76324637D01*
X51127759Y-76480000D01*
X50895241Y-76635363D01*
X50695363Y-76835241D01*
X50538320Y-77070273D01*
X50430147Y-77331426D01*
X50375000Y-77608665D01*
X50375000Y-77891335D01*
X50430147Y-78168574D01*
X50538320Y-78429727D01*
X50695363Y-78664759D01*
X50895241Y-78864637D01*
X51130273Y-79021680D01*
X51391426Y-79129853D01*
X51668665Y-79185000D01*
X51951335Y-79185000D01*
X52228574Y-79129853D01*
X52489727Y-79021680D01*
X52724759Y-78864637D01*
X52924637Y-78664759D01*
X53081680Y-78429727D01*
X53189853Y-78168574D01*
X53245000Y-77891335D01*
X53245000Y-77608665D01*
X53189853Y-77331426D01*
X53081680Y-77070273D01*
X52924637Y-76835241D01*
X52724759Y-76635363D01*
X52492241Y-76480000D01*
X52724759Y-76324637D01*
X52924637Y-76124759D01*
X53081680Y-75889727D01*
X53189853Y-75628574D01*
X53245000Y-75351335D01*
X53245000Y-75068665D01*
X53189853Y-74791426D01*
X53081680Y-74530273D01*
X52924637Y-74295241D01*
X52724759Y-74095363D01*
X52492241Y-73940000D01*
X52724759Y-73784637D01*
X52924637Y-73584759D01*
X53081680Y-73349727D01*
X53189853Y-73088574D01*
X53245000Y-72811335D01*
X53245000Y-72528665D01*
X53189853Y-72251426D01*
X53081680Y-71990273D01*
X52924637Y-71755241D01*
X52724759Y-71555363D01*
X52492241Y-71400000D01*
X52724759Y-71244637D01*
X52924637Y-71044759D01*
X53081680Y-70809727D01*
X53189853Y-70548574D01*
X53245000Y-70271335D01*
X53245000Y-69988665D01*
X53189853Y-69711426D01*
X53081680Y-69450273D01*
X52924637Y-69215241D01*
X52724759Y-69015363D01*
X52492241Y-68860000D01*
X52724759Y-68704637D01*
X52924637Y-68504759D01*
X53081680Y-68269727D01*
X53189853Y-68008574D01*
X53199515Y-67960000D01*
X55321928Y-67960000D01*
X55321928Y-69660000D01*
X55334188Y-69784482D01*
X55370498Y-69904180D01*
X55429463Y-70014494D01*
X55508815Y-70111185D01*
X55605506Y-70190537D01*
X55715820Y-70249502D01*
X55788380Y-70271513D01*
X55656525Y-70403368D01*
X55494010Y-70646589D01*
X55382068Y-70916842D01*
X55325000Y-71203740D01*
X55325000Y-71496260D01*
X55382068Y-71783158D01*
X55494010Y-72053411D01*
X55656525Y-72296632D01*
X55863368Y-72503475D01*
X56037760Y-72620000D01*
X55863368Y-72736525D01*
X55656525Y-72943368D01*
X55494010Y-73186589D01*
X55382068Y-73456842D01*
X55325000Y-73743740D01*
X55325000Y-74036260D01*
X55382068Y-74323158D01*
X55494010Y-74593411D01*
X55656525Y-74836632D01*
X55863368Y-75043475D01*
X56106589Y-75205990D01*
X56376842Y-75317932D01*
X56663740Y-75375000D01*
X56956260Y-75375000D01*
X57243158Y-75317932D01*
X57513411Y-75205990D01*
X57756632Y-75043475D01*
X57963475Y-74836632D01*
X58125990Y-74593411D01*
X58237932Y-74323158D01*
X58295000Y-74036260D01*
X58295000Y-73743740D01*
X58237932Y-73456842D01*
X58125990Y-73186589D01*
X57963475Y-72943368D01*
X57756632Y-72736525D01*
X57582240Y-72620000D01*
X57756632Y-72503475D01*
X57963475Y-72296632D01*
X58125990Y-72053411D01*
X58237932Y-71783158D01*
X58291673Y-71512987D01*
X58356189Y-71577504D01*
X58356190Y-77808884D01*
X58352011Y-77851314D01*
X58368685Y-78020608D01*
X58418068Y-78183398D01*
X58487334Y-78312986D01*
X58498259Y-78333426D01*
X58525010Y-78366022D01*
X58525010Y-83748316D01*
X58373302Y-83667226D01*
X57999128Y-83553722D01*
X57610000Y-83515396D01*
X57220873Y-83553722D01*
X56846699Y-83667226D01*
X56501858Y-83851547D01*
X56199603Y-84099602D01*
X55951547Y-84401857D01*
X55767226Y-84746698D01*
X55653722Y-85120872D01*
X55625000Y-85412490D01*
X55625000Y-86207509D01*
X55653722Y-86499127D01*
X55767226Y-86873301D01*
X55951547Y-87218143D01*
X56199602Y-87520398D01*
X56501857Y-87768453D01*
X56846698Y-87952774D01*
X57220872Y-88066278D01*
X57610000Y-88104604D01*
X57999127Y-88066278D01*
X58373301Y-87952774D01*
X58525011Y-87871684D01*
X58525011Y-89173674D01*
X58476369Y-89222316D01*
X58373302Y-89167226D01*
X57999128Y-89053722D01*
X57610000Y-89015396D01*
X57220873Y-89053722D01*
X56846699Y-89167226D01*
X56501858Y-89351547D01*
X56199603Y-89599602D01*
X55951547Y-89901857D01*
X55767226Y-90246698D01*
X55653722Y-90620872D01*
X55625000Y-90912490D01*
X55625000Y-91707509D01*
X55653722Y-91999127D01*
X55767226Y-92373301D01*
X55951547Y-92718143D01*
X56199602Y-93020398D01*
X56501857Y-93268453D01*
X56846698Y-93452774D01*
X57220872Y-93566278D01*
X57610000Y-93604604D01*
X57999127Y-93566278D01*
X58373301Y-93452774D01*
X58718143Y-93268453D01*
X59020398Y-93020398D01*
X59268453Y-92718143D01*
X59452774Y-92373302D01*
X59566278Y-91999128D01*
X59595000Y-91707510D01*
X59595000Y-90912491D01*
X59566278Y-90620873D01*
X59555610Y-90585705D01*
X59969270Y-90172045D01*
X60002222Y-90145002D01*
X60057748Y-90077344D01*
X59967226Y-90246698D01*
X59853722Y-90620872D01*
X59825000Y-90912490D01*
X59825000Y-91707509D01*
X59853722Y-91999127D01*
X59967226Y-92373301D01*
X60151547Y-92718143D01*
X60399602Y-93020398D01*
X60701857Y-93268453D01*
X61046698Y-93452774D01*
X61420872Y-93566278D01*
X61810000Y-93604604D01*
X62199127Y-93566278D01*
X62573301Y-93452774D01*
X62918143Y-93268453D01*
X63220398Y-93020398D01*
X63468453Y-92718143D01*
X63652774Y-92373302D01*
X63766278Y-91999128D01*
X63795000Y-91707510D01*
X63795000Y-90912491D01*
X63766278Y-90620873D01*
X63652774Y-90246698D01*
X63468453Y-89901857D01*
X63220398Y-89599602D01*
X62918143Y-89351547D01*
X62573302Y-89167226D01*
X62199128Y-89053722D01*
X61810000Y-89015396D01*
X61420873Y-89053722D01*
X61046699Y-89167226D01*
X60701858Y-89351547D01*
X60399603Y-89599602D01*
X60194604Y-89849393D01*
X60239714Y-89700685D01*
X60252210Y-89573810D01*
X60252210Y-89573809D01*
X60256388Y-89531391D01*
X60252210Y-89488973D01*
X60252210Y-87967431D01*
X60370150Y-88030471D01*
X60536747Y-88081008D01*
X60710001Y-88098072D01*
X62909999Y-88098072D01*
X63083253Y-88081008D01*
X63249850Y-88030471D01*
X63403386Y-87948405D01*
X63537961Y-87837961D01*
X63648405Y-87703386D01*
X63730471Y-87549850D01*
X63781008Y-87383253D01*
X63798072Y-87209999D01*
X63798072Y-85559685D01*
X67559254Y-89320868D01*
X67501858Y-89351547D01*
X67199603Y-89599602D01*
X66951547Y-89901857D01*
X66767226Y-90246698D01*
X66653722Y-90620872D01*
X66625000Y-90912490D01*
X66625000Y-91707509D01*
X66653722Y-91999127D01*
X66767226Y-92373301D01*
X66951547Y-92718143D01*
X67199602Y-93020398D01*
X67501857Y-93268453D01*
X67846698Y-93452774D01*
X68220872Y-93566278D01*
X68610000Y-93604604D01*
X68999127Y-93566278D01*
X69373301Y-93452774D01*
X69718143Y-93268453D01*
X70020398Y-93020398D01*
X70268453Y-92718143D01*
X70452774Y-92373302D01*
X70566278Y-91999128D01*
X70595000Y-91707510D01*
X70595000Y-90912491D01*
X70595000Y-90912490D01*
X70825000Y-90912490D01*
X70825000Y-91707509D01*
X70853722Y-91999127D01*
X70967226Y-92373301D01*
X71151547Y-92718143D01*
X71399602Y-93020398D01*
X71701857Y-93268453D01*
X72046698Y-93452774D01*
X72420872Y-93566278D01*
X72810000Y-93604604D01*
X73199127Y-93566278D01*
X73573301Y-93452774D01*
X73918143Y-93268453D01*
X74220398Y-93020398D01*
X74468453Y-92718143D01*
X74652774Y-92373302D01*
X74766278Y-91999128D01*
X74795000Y-91707510D01*
X74795000Y-90912491D01*
X74766278Y-90620873D01*
X74652774Y-90246698D01*
X74468453Y-89901857D01*
X74220398Y-89599602D01*
X73918143Y-89351547D01*
X73573302Y-89167226D01*
X73199128Y-89053722D01*
X72810000Y-89015396D01*
X72420873Y-89053722D01*
X72046699Y-89167226D01*
X71701858Y-89351547D01*
X71399603Y-89599602D01*
X71151547Y-89901857D01*
X70967226Y-90246698D01*
X70853722Y-90620872D01*
X70825000Y-90912490D01*
X70595000Y-90912490D01*
X70566278Y-90620873D01*
X70452774Y-90246698D01*
X70268453Y-89901857D01*
X70020398Y-89599602D01*
X69718143Y-89351547D01*
X69473600Y-89220836D01*
X69473600Y-89192720D01*
X69477778Y-89150300D01*
X69461104Y-88981005D01*
X69441924Y-88917779D01*
X69411722Y-88818216D01*
X69331531Y-88668188D01*
X69223612Y-88536688D01*
X69190656Y-88509642D01*
X68769872Y-88088858D01*
X68999127Y-88066278D01*
X69373301Y-87952774D01*
X69718143Y-87768453D01*
X70020398Y-87520398D01*
X70268453Y-87218143D01*
X70452774Y-86873302D01*
X70566278Y-86499128D01*
X70595000Y-86207510D01*
X70595000Y-85412491D01*
X70566278Y-85120873D01*
X70452774Y-84746698D01*
X70272807Y-84410001D01*
X70821928Y-84410001D01*
X70821928Y-87209999D01*
X70838992Y-87383253D01*
X70889529Y-87549850D01*
X70971595Y-87703386D01*
X71082039Y-87837961D01*
X71216614Y-87948405D01*
X71370150Y-88030471D01*
X71536747Y-88081008D01*
X71710001Y-88098072D01*
X73909999Y-88098072D01*
X74083253Y-88081008D01*
X74249850Y-88030471D01*
X74403386Y-87948405D01*
X74537961Y-87837961D01*
X74648405Y-87703386D01*
X74730471Y-87549850D01*
X74781008Y-87383253D01*
X74798072Y-87209999D01*
X74798072Y-84410001D01*
X74781008Y-84236747D01*
X74730471Y-84070150D01*
X74648405Y-83916614D01*
X74537961Y-83782039D01*
X74403386Y-83671595D01*
X74249850Y-83589529D01*
X74083253Y-83538992D01*
X73909999Y-83521928D01*
X71710001Y-83521928D01*
X71536747Y-83538992D01*
X71370150Y-83589529D01*
X71216614Y-83671595D01*
X71082039Y-83782039D01*
X70971595Y-83916614D01*
X70889529Y-84070150D01*
X70838992Y-84236747D01*
X70821928Y-84410001D01*
X70272807Y-84410001D01*
X70268453Y-84401857D01*
X70020398Y-84099602D01*
X69718143Y-83851547D01*
X69373302Y-83667226D01*
X68999128Y-83553722D01*
X68610000Y-83515396D01*
X68220873Y-83553722D01*
X67846699Y-83667226D01*
X67501858Y-83851547D01*
X67199603Y-84099602D01*
X66951547Y-84401857D01*
X66767226Y-84746698D01*
X66653722Y-85120872D01*
X66625000Y-85412490D01*
X66625000Y-85943986D01*
X63921342Y-83240329D01*
X64014494Y-83190537D01*
X64111185Y-83111185D01*
X64190537Y-83014494D01*
X64249502Y-82904180D01*
X64271513Y-82831620D01*
X64403368Y-82963475D01*
X64646589Y-83125990D01*
X64916842Y-83237932D01*
X65203740Y-83295000D01*
X65496260Y-83295000D01*
X65783158Y-83237932D01*
X66053411Y-83125990D01*
X66296632Y-82963475D01*
X66503475Y-82756632D01*
X66625195Y-82574466D01*
X66694822Y-82691355D01*
X66889731Y-82907588D01*
X67123080Y-83081641D01*
X67385901Y-83206825D01*
X67533110Y-83251476D01*
X67763000Y-83130155D01*
X67763000Y-81937000D01*
X68017000Y-81937000D01*
X68017000Y-83130155D01*
X68246890Y-83251476D01*
X68394099Y-83206825D01*
X68656920Y-83081641D01*
X68890269Y-82907588D01*
X69085178Y-82691355D01*
X69234157Y-82441252D01*
X69331481Y-82166891D01*
X69210814Y-81937000D01*
X68017000Y-81937000D01*
X67763000Y-81937000D01*
X67743000Y-81937000D01*
X67743000Y-81683000D01*
X67763000Y-81683000D01*
X67763000Y-80489845D01*
X68017000Y-80489845D01*
X68017000Y-81683000D01*
X69210814Y-81683000D01*
X69331481Y-81453109D01*
X69234157Y-81178748D01*
X69085178Y-80928645D01*
X68890269Y-80712412D01*
X68656920Y-80538359D01*
X68394099Y-80413175D01*
X68246890Y-80368524D01*
X68017000Y-80489845D01*
X67763000Y-80489845D01*
X67533110Y-80368524D01*
X67385901Y-80413175D01*
X67123080Y-80538359D01*
X66889731Y-80712412D01*
X66694822Y-80928645D01*
X66625195Y-81045534D01*
X66503475Y-80863368D01*
X66442200Y-80802093D01*
X66442200Y-79051473D01*
X66631426Y-79129853D01*
X66908665Y-79185000D01*
X66940397Y-79185000D01*
X67806966Y-80051569D01*
X67841163Y-80093239D01*
X68007472Y-80229726D01*
X68179970Y-80321928D01*
X68197212Y-80331144D01*
X68403091Y-80393597D01*
X68422491Y-80395508D01*
X68563552Y-80409401D01*
X68563559Y-80409401D01*
X68617201Y-80414684D01*
X68670842Y-80409401D01*
X72249158Y-80409401D01*
X72302799Y-80414684D01*
X72356440Y-80409401D01*
X72356448Y-80409401D01*
X72516908Y-80393597D01*
X72722788Y-80331144D01*
X72912528Y-80229726D01*
X73078837Y-80093239D01*
X73113039Y-80051564D01*
X73866532Y-79298072D01*
X74660000Y-79298072D01*
X74784482Y-79285812D01*
X74904180Y-79249502D01*
X75014494Y-79190537D01*
X75111185Y-79111185D01*
X75190537Y-79014494D01*
X75249502Y-78904180D01*
X75285812Y-78784482D01*
X75298072Y-78660000D01*
X75298072Y-76960000D01*
X75285812Y-76835518D01*
X75249502Y-76715820D01*
X75190537Y-76605506D01*
X75111185Y-76508815D01*
X75014494Y-76429463D01*
X74904180Y-76370498D01*
X74831620Y-76348487D01*
X74963475Y-76216632D01*
X75125990Y-75973411D01*
X75237932Y-75703158D01*
X75295000Y-75416260D01*
X75295000Y-75123740D01*
X75237932Y-74836842D01*
X75125990Y-74566589D01*
X74963475Y-74323368D01*
X74756632Y-74116525D01*
X74574466Y-73994805D01*
X74691355Y-73925178D01*
X74907588Y-73730269D01*
X75081641Y-73496920D01*
X75206825Y-73234099D01*
X75251476Y-73086890D01*
X75130155Y-72857000D01*
X73937000Y-72857000D01*
X73937000Y-72877000D01*
X73683000Y-72877000D01*
X73683000Y-72857000D01*
X71397000Y-72857000D01*
X71397000Y-72877000D01*
X71143000Y-72877000D01*
X71143000Y-72857000D01*
X69949845Y-72857000D01*
X69828524Y-73086890D01*
X69873175Y-73234099D01*
X69998359Y-73496920D01*
X70172412Y-73730269D01*
X70388645Y-73925178D01*
X70505534Y-73994805D01*
X70323368Y-74116525D01*
X70116525Y-74323368D01*
X69954010Y-74566589D01*
X69842068Y-74836842D01*
X69785000Y-75123740D01*
X69785000Y-75416260D01*
X69842068Y-75703158D01*
X69954010Y-75973411D01*
X70116525Y-76216632D01*
X70323368Y-76423475D01*
X70497760Y-76540000D01*
X70323368Y-76656525D01*
X70262093Y-76717800D01*
X70102404Y-76717800D01*
X68485000Y-75100397D01*
X68485000Y-75068665D01*
X68429853Y-74791426D01*
X68321680Y-74530273D01*
X68164637Y-74295241D01*
X67964759Y-74095363D01*
X67732241Y-73940000D01*
X67964759Y-73784637D01*
X68164637Y-73584759D01*
X68321680Y-73349727D01*
X68429853Y-73088574D01*
X68485000Y-72811335D01*
X68485000Y-72779603D01*
X69241569Y-72023034D01*
X69283239Y-71988837D01*
X69322237Y-71941319D01*
X69388611Y-71860441D01*
X69419726Y-71822528D01*
X69521144Y-71632788D01*
X69583597Y-71426908D01*
X69599401Y-71266448D01*
X69599401Y-71266439D01*
X69604684Y-71212800D01*
X69599401Y-71159161D01*
X69599401Y-70865202D01*
X69841965Y-70622639D01*
X69842068Y-70623158D01*
X69954010Y-70893411D01*
X70116525Y-71136632D01*
X70323368Y-71343475D01*
X70505534Y-71465195D01*
X70388645Y-71534822D01*
X70172412Y-71729731D01*
X69998359Y-71963080D01*
X69873175Y-72225901D01*
X69828524Y-72373110D01*
X69949845Y-72603000D01*
X71143000Y-72603000D01*
X71143000Y-72583000D01*
X71397000Y-72583000D01*
X71397000Y-72603000D01*
X73683000Y-72603000D01*
X73683000Y-72583000D01*
X73937000Y-72583000D01*
X73937000Y-72603000D01*
X75130155Y-72603000D01*
X75251476Y-72373110D01*
X75206825Y-72225901D01*
X75081641Y-71963080D01*
X74907588Y-71729731D01*
X74691355Y-71534822D01*
X74574466Y-71465195D01*
X74756632Y-71343475D01*
X74963475Y-71136632D01*
X75125990Y-70893411D01*
X75237932Y-70623158D01*
X75295000Y-70336260D01*
X75295000Y-70043740D01*
X75237932Y-69756842D01*
X75125990Y-69486589D01*
X74963475Y-69243368D01*
X74756632Y-69036525D01*
X74582240Y-68920000D01*
X74756632Y-68803475D01*
X74963475Y-68596632D01*
X75125990Y-68353411D01*
X75237932Y-68083158D01*
X75295000Y-67796260D01*
X75295000Y-67503740D01*
X75237932Y-67216842D01*
X75125990Y-66946589D01*
X74963475Y-66703368D01*
X74756632Y-66496525D01*
X74513411Y-66334010D01*
X74243158Y-66222068D01*
X73956260Y-66165000D01*
X73869604Y-66165000D01*
X73113039Y-65408436D01*
X73078837Y-65366761D01*
X72912528Y-65230274D01*
X72722788Y-65128856D01*
X72516908Y-65066403D01*
X72356448Y-65050599D01*
X72356440Y-65050599D01*
X72302799Y-65045316D01*
X72249158Y-65050599D01*
X70600184Y-65050599D01*
X70546542Y-65045316D01*
X70492901Y-65050599D01*
X70492894Y-65050599D01*
X70353766Y-65064302D01*
X70332433Y-65066403D01*
X70304815Y-65074781D01*
X70126554Y-65128856D01*
X69936814Y-65230274D01*
X69770505Y-65366761D01*
X69736308Y-65408430D01*
X68286747Y-66857992D01*
X68164637Y-66675241D01*
X67964759Y-66475363D01*
X67732241Y-66320000D01*
X67964759Y-66164637D01*
X68164637Y-65964759D01*
X68321680Y-65729727D01*
X68429853Y-65468574D01*
X68485000Y-65191335D01*
X68485000Y-64908665D01*
X68429853Y-64631426D01*
X68321680Y-64370273D01*
X68164637Y-64135241D01*
X67964759Y-63935363D01*
X67732241Y-63780000D01*
X67964759Y-63624637D01*
X68164637Y-63424759D01*
X68321680Y-63189727D01*
X68429853Y-62928574D01*
X68485000Y-62651335D01*
X68485000Y-62368665D01*
X68429853Y-62091426D01*
X68321680Y-61830273D01*
X68164637Y-61595241D01*
X67964759Y-61395363D01*
X67732241Y-61240000D01*
X67964759Y-61084637D01*
X68164637Y-60884759D01*
X68321680Y-60649727D01*
X68429853Y-60388574D01*
X68485000Y-60111335D01*
X68485000Y-59828665D01*
X68429853Y-59551426D01*
X68321680Y-59290273D01*
X68164637Y-59055241D01*
X67964759Y-58855363D01*
X67732241Y-58700000D01*
X67964759Y-58544637D01*
X68164637Y-58344759D01*
X68321680Y-58109727D01*
X68429853Y-57848574D01*
X68485000Y-57571335D01*
X68485000Y-57288665D01*
X68429853Y-57011426D01*
X68321680Y-56750273D01*
X68164637Y-56515241D01*
X67964759Y-56315363D01*
X67732241Y-56160000D01*
X67964759Y-56004637D01*
X68164637Y-55804759D01*
X68321680Y-55569727D01*
X68429853Y-55308574D01*
X68485000Y-55031335D01*
X68485000Y-54748665D01*
X68460271Y-54624344D01*
X69925000Y-54624344D01*
X69925000Y-54995656D01*
X69997439Y-55359834D01*
X70139534Y-55702882D01*
X70345825Y-56011618D01*
X70608382Y-56274175D01*
X70917118Y-56480466D01*
X71260166Y-56622561D01*
X71624344Y-56695000D01*
X71995656Y-56695000D01*
X72359834Y-56622561D01*
X72702882Y-56480466D01*
X73011618Y-56274175D01*
X73274175Y-56011618D01*
X73480466Y-55702882D01*
X73622561Y-55359834D01*
X73695000Y-54995656D01*
X73695000Y-54624344D01*
X73622561Y-54260166D01*
X73480466Y-53917118D01*
X73274175Y-53608382D01*
X73011618Y-53345825D01*
X72702882Y-53139534D01*
X72359834Y-52997439D01*
X71995656Y-52925000D01*
X71624344Y-52925000D01*
X71260166Y-52997439D01*
X70917118Y-53139534D01*
X70608382Y-53345825D01*
X70345825Y-53608382D01*
X70139534Y-53917118D01*
X69997439Y-54260166D01*
X69925000Y-54624344D01*
X68460271Y-54624344D01*
X68429853Y-54471426D01*
X68321680Y-54210273D01*
X68164637Y-53975241D01*
X67964759Y-53775363D01*
X67729727Y-53618320D01*
X67719135Y-53613933D01*
X67905131Y-53502385D01*
X68113519Y-53313414D01*
X68281037Y-53087420D01*
X68401246Y-52833087D01*
X68441904Y-52699039D01*
X68319915Y-52477000D01*
X67177000Y-52477000D01*
X67177000Y-52497000D01*
X66923000Y-52497000D01*
X66923000Y-52477000D01*
X65780085Y-52477000D01*
X65658096Y-52699039D01*
X65698754Y-52833087D01*
X65818963Y-53087420D01*
X65986481Y-53313414D01*
X66194869Y-53502385D01*
X66380865Y-53613933D01*
X66370273Y-53618320D01*
X66135241Y-53775363D01*
X65935363Y-53975241D01*
X65778320Y-54210273D01*
X65670147Y-54471426D01*
X65615000Y-54748665D01*
X65615000Y-55031335D01*
X65670147Y-55308574D01*
X65778320Y-55569727D01*
X65935363Y-55804759D01*
X66135241Y-56004637D01*
X66367759Y-56160000D01*
X66135241Y-56315363D01*
X65935363Y-56515241D01*
X65778320Y-56750273D01*
X65670147Y-57011426D01*
X65615000Y-57288665D01*
X65615000Y-57571335D01*
X65670147Y-57848574D01*
X65778320Y-58109727D01*
X65935363Y-58344759D01*
X66135241Y-58544637D01*
X66367759Y-58700000D01*
X66135241Y-58855363D01*
X65935363Y-59055241D01*
X65778320Y-59290273D01*
X65670147Y-59551426D01*
X65615000Y-59828665D01*
X65615000Y-60111335D01*
X65670147Y-60388574D01*
X65778320Y-60649727D01*
X65935363Y-60884759D01*
X66135241Y-61084637D01*
X66367759Y-61240000D01*
X66135241Y-61395363D01*
X65935363Y-61595241D01*
X65778320Y-61830273D01*
X65670147Y-62091426D01*
X65615000Y-62368665D01*
X65615000Y-62651335D01*
X65670147Y-62928574D01*
X65778320Y-63189727D01*
X65935363Y-63424759D01*
X66135241Y-63624637D01*
X66367759Y-63780000D01*
X66135241Y-63935363D01*
X65935363Y-64135241D01*
X65778320Y-64370273D01*
X65670147Y-64631426D01*
X65615000Y-64908665D01*
X65615000Y-65191335D01*
X65670147Y-65468574D01*
X65778320Y-65729727D01*
X65935363Y-65964759D01*
X66135241Y-66164637D01*
X66367759Y-66320000D01*
X66135241Y-66475363D01*
X65935363Y-66675241D01*
X65778320Y-66910273D01*
X65670147Y-67171426D01*
X65615000Y-67448665D01*
X65615000Y-67480396D01*
X64615632Y-68479765D01*
X64573963Y-68513962D01*
X64437476Y-68680271D01*
X64400127Y-68750147D01*
X64336057Y-68870012D01*
X64298072Y-68995231D01*
X64298072Y-67960000D01*
X64285812Y-67835518D01*
X64249502Y-67715820D01*
X64190537Y-67605506D01*
X64111185Y-67508815D01*
X64014494Y-67429463D01*
X63904180Y-67370498D01*
X63784482Y-67334188D01*
X63660000Y-67321928D01*
X61960000Y-67321928D01*
X61835518Y-67334188D01*
X61715820Y-67370498D01*
X61605506Y-67429463D01*
X61508815Y-67508815D01*
X61429463Y-67605506D01*
X61370498Y-67715820D01*
X61334188Y-67835518D01*
X61321928Y-67960000D01*
X61321928Y-69076758D01*
X60410761Y-69987925D01*
X60377799Y-70014977D01*
X60269880Y-70146478D01*
X60189689Y-70296506D01*
X60154412Y-70412799D01*
X60140307Y-70459295D01*
X60123633Y-70628589D01*
X60127811Y-70671009D01*
X60127811Y-72083804D01*
X60105600Y-72081616D01*
X60083389Y-72083804D01*
X60083389Y-71262206D01*
X60087567Y-71219788D01*
X60080097Y-71143943D01*
X60070893Y-71050494D01*
X60021511Y-70887705D01*
X59941320Y-70737677D01*
X59833401Y-70606177D01*
X59800450Y-70579135D01*
X58298072Y-69076758D01*
X58298072Y-67960000D01*
X58285812Y-67835518D01*
X58249502Y-67715820D01*
X58190537Y-67605506D01*
X58111185Y-67508815D01*
X58014494Y-67429463D01*
X57904180Y-67370498D01*
X57784482Y-67334188D01*
X57660000Y-67321928D01*
X55960000Y-67321928D01*
X55835518Y-67334188D01*
X55715820Y-67370498D01*
X55605506Y-67429463D01*
X55508815Y-67508815D01*
X55429463Y-67605506D01*
X55370498Y-67715820D01*
X55334188Y-67835518D01*
X55321928Y-67960000D01*
X53199515Y-67960000D01*
X53245000Y-67731335D01*
X53245000Y-67448665D01*
X53189853Y-67171426D01*
X53081680Y-66910273D01*
X52924637Y-66675241D01*
X52724759Y-66475363D01*
X52492241Y-66320000D01*
X52724759Y-66164637D01*
X52924637Y-65964759D01*
X53081680Y-65729727D01*
X53189853Y-65468574D01*
X53245000Y-65191335D01*
X53245000Y-64908665D01*
X53189853Y-64631426D01*
X53081680Y-64370273D01*
X52924637Y-64135241D01*
X52724759Y-63935363D01*
X52518256Y-63797382D01*
X52502612Y-63778320D01*
X52499830Y-63774930D01*
X52724759Y-63624637D01*
X52924637Y-63424759D01*
X53081680Y-63189727D01*
X53189853Y-62928574D01*
X53245000Y-62651335D01*
X53245000Y-62368665D01*
X53189853Y-62091426D01*
X53081680Y-61830273D01*
X52924637Y-61595241D01*
X52724759Y-61395363D01*
X52492241Y-61240000D01*
X52724759Y-61084637D01*
X52924637Y-60884759D01*
X53081680Y-60649727D01*
X53189853Y-60388574D01*
X53245000Y-60111335D01*
X53245000Y-59828665D01*
X53189853Y-59551426D01*
X53081680Y-59290273D01*
X52924637Y-59055241D01*
X52724759Y-58855363D01*
X52489727Y-58698320D01*
X52479135Y-58693933D01*
X52665131Y-58582385D01*
X52873519Y-58393414D01*
X53041037Y-58167420D01*
X53161246Y-57913087D01*
X53201904Y-57779039D01*
X53079915Y-57557000D01*
X51937000Y-57557000D01*
X51937000Y-57577000D01*
X51683000Y-57577000D01*
X51683000Y-57557000D01*
X50540085Y-57557000D01*
X50418096Y-57779039D01*
X50458754Y-57913087D01*
X50578963Y-58167420D01*
X50746481Y-58393414D01*
X50954869Y-58582385D01*
X51140865Y-58693933D01*
X51130273Y-58698320D01*
X51004004Y-58782690D01*
X49298072Y-57076759D01*
X49298072Y-55960000D01*
X49285812Y-55835518D01*
X49249502Y-55715820D01*
X49190537Y-55605506D01*
X49111185Y-55508815D01*
X49014494Y-55429463D01*
X48904180Y-55370498D01*
X48784482Y-55334188D01*
X48660000Y-55321928D01*
X47394999Y-55321928D01*
X47394999Y-55239039D01*
X50418096Y-55239039D01*
X50458754Y-55373087D01*
X50578963Y-55627420D01*
X50746481Y-55853414D01*
X50954869Y-56042385D01*
X51150982Y-56160000D01*
X50954869Y-56277615D01*
X50746481Y-56466586D01*
X50578963Y-56692580D01*
X50458754Y-56946913D01*
X50418096Y-57080961D01*
X50540085Y-57303000D01*
X51683000Y-57303000D01*
X51683000Y-55017000D01*
X51937000Y-55017000D01*
X51937000Y-57303000D01*
X53079915Y-57303000D01*
X53201904Y-57080961D01*
X53161246Y-56946913D01*
X53041037Y-56692580D01*
X52873519Y-56466586D01*
X52665131Y-56277615D01*
X52469018Y-56160000D01*
X52665131Y-56042385D01*
X52873519Y-55853414D01*
X53041037Y-55627420D01*
X53161246Y-55373087D01*
X53201904Y-55239039D01*
X53079915Y-55017000D01*
X51937000Y-55017000D01*
X51683000Y-55017000D01*
X50540085Y-55017000D01*
X50418096Y-55239039D01*
X47394999Y-55239039D01*
X47394999Y-54646670D01*
X47460000Y-54653072D01*
X49110000Y-54653072D01*
X49263745Y-54637929D01*
X49411582Y-54593084D01*
X49438679Y-54578600D01*
X50402580Y-54578600D01*
X50440846Y-54582369D01*
X50540085Y-54763000D01*
X51683000Y-54763000D01*
X51683000Y-54743000D01*
X51937000Y-54743000D01*
X51937000Y-54763000D01*
X53079915Y-54763000D01*
X53201904Y-54540961D01*
X53161246Y-54406913D01*
X53041037Y-54152580D01*
X52873519Y-53926586D01*
X52665131Y-53737615D01*
X52479135Y-53626067D01*
X52489727Y-53621680D01*
X52724759Y-53464637D01*
X52924637Y-53264759D01*
X53081680Y-53029727D01*
X53189853Y-52768574D01*
X53245000Y-52491335D01*
X53245000Y-52208665D01*
X53189853Y-51931426D01*
X53081680Y-51670273D01*
X52924637Y-51435241D01*
X52726039Y-51236643D01*
X52734482Y-51235812D01*
X52854180Y-51199502D01*
X52964494Y-51140537D01*
X53061185Y-51061185D01*
X53140537Y-50964494D01*
X53199502Y-50854180D01*
X53235812Y-50734482D01*
X53248072Y-50610000D01*
X53248072Y-49444999D01*
X65140396Y-49444999D01*
X65615000Y-49919604D01*
X65615000Y-49951335D01*
X65670147Y-50228574D01*
X65778320Y-50489727D01*
X65935363Y-50724759D01*
X66135241Y-50924637D01*
X66370273Y-51081680D01*
X66380865Y-51086067D01*
X66194869Y-51197615D01*
X65986481Y-51386586D01*
X65818963Y-51612580D01*
X65698754Y-51866913D01*
X65658096Y-52000961D01*
X65780085Y-52223000D01*
X66923000Y-52223000D01*
X66923000Y-52203000D01*
X67177000Y-52203000D01*
X67177000Y-52223000D01*
X68319915Y-52223000D01*
X68441904Y-52000961D01*
X68401246Y-51866913D01*
X68281037Y-51612580D01*
X68113519Y-51386586D01*
X67905131Y-51197615D01*
X67719135Y-51086067D01*
X67729727Y-51081680D01*
X67964759Y-50924637D01*
X68164637Y-50724759D01*
X68321680Y-50489727D01*
X68429853Y-50228574D01*
X68485000Y-49951335D01*
X68485000Y-49668665D01*
X68429853Y-49391426D01*
X68321680Y-49130273D01*
X68164637Y-48895241D01*
X67964759Y-48695363D01*
X67729727Y-48538320D01*
X67468574Y-48430147D01*
X67191335Y-48375000D01*
X67159604Y-48375000D01*
X67031610Y-48247007D01*
X68834811Y-48247007D01*
X75793241Y-55205438D01*
X75793240Y-75597068D01*
X75730293Y-75648728D01*
X75647816Y-75749226D01*
X75586531Y-75863883D01*
X75548791Y-75988293D01*
X75539241Y-76085257D01*
X75539240Y-96336607D01*
X32650756Y-96336607D01*
X27938493Y-91624344D01*
X29925000Y-91624344D01*
X29925000Y-91995656D01*
X29997439Y-92359834D01*
X30139534Y-92702882D01*
X30345825Y-93011618D01*
X30608382Y-93274175D01*
X30917118Y-93480466D01*
X31260166Y-93622561D01*
X31624344Y-93695000D01*
X31995656Y-93695000D01*
X32359834Y-93622561D01*
X32702882Y-93480466D01*
X33011618Y-93274175D01*
X33274175Y-93011618D01*
X33480466Y-92702882D01*
X33622561Y-92359834D01*
X33695000Y-91995656D01*
X33695000Y-91624344D01*
X33622561Y-91260166D01*
X33480466Y-90917118D01*
X33274175Y-90608382D01*
X33011618Y-90345825D01*
X32702882Y-90139534D01*
X32359834Y-89997439D01*
X31995656Y-89925000D01*
X31624344Y-89925000D01*
X31260166Y-89997439D01*
X30917118Y-90139534D01*
X30608382Y-90345825D01*
X30345825Y-90608382D01*
X30139534Y-90917118D01*
X29997439Y-91260166D01*
X29925000Y-91624344D01*
X27938493Y-91624344D01*
X26708326Y-90394178D01*
X26708326Y-84960000D01*
X36321928Y-84960000D01*
X36325000Y-85524250D01*
X36483750Y-85683000D01*
X37683000Y-85683000D01*
X37683000Y-84483750D01*
X37524250Y-84325000D01*
X36960000Y-84321928D01*
X36835518Y-84334188D01*
X36715820Y-84370498D01*
X36605506Y-84429463D01*
X36508815Y-84508815D01*
X36429463Y-84605506D01*
X36370498Y-84715820D01*
X36334188Y-84835518D01*
X36321928Y-84960000D01*
X26708326Y-84960000D01*
X26708326Y-76639721D01*
X27575000Y-76639721D01*
X27575000Y-77060279D01*
X27657047Y-77472756D01*
X27817988Y-77861302D01*
X28051637Y-78210983D01*
X28349017Y-78508363D01*
X28698698Y-78742012D01*
X29087244Y-78902953D01*
X29499721Y-78985000D01*
X29920279Y-78985000D01*
X30332756Y-78902953D01*
X30721302Y-78742012D01*
X31070983Y-78508363D01*
X31368363Y-78210983D01*
X31602012Y-77861302D01*
X31762953Y-77472756D01*
X31770065Y-77437000D01*
X32425000Y-77437000D01*
X32425000Y-77737000D01*
X32487918Y-78121814D01*
X32624700Y-78486959D01*
X32830090Y-78818403D01*
X33096195Y-79103409D01*
X33412789Y-79331024D01*
X33767705Y-79492501D01*
X33974677Y-79546677D01*
X34283000Y-79431829D01*
X34283000Y-77437000D01*
X34537000Y-77437000D01*
X34537000Y-79431829D01*
X34845323Y-79546677D01*
X35052295Y-79492501D01*
X35407211Y-79331024D01*
X35723805Y-79103409D01*
X35989910Y-78818403D01*
X36195300Y-78486959D01*
X36332082Y-78121814D01*
X36395000Y-77737000D01*
X36395000Y-77437000D01*
X34537000Y-77437000D01*
X34283000Y-77437000D01*
X32425000Y-77437000D01*
X31770065Y-77437000D01*
X31845000Y-77060279D01*
X31845000Y-76883000D01*
X32425000Y-76883000D01*
X32425000Y-77183000D01*
X34283000Y-77183000D01*
X34283000Y-75188171D01*
X34537000Y-75188171D01*
X34537000Y-77183000D01*
X36395000Y-77183000D01*
X36395000Y-76883000D01*
X36332082Y-76498186D01*
X36195300Y-76133041D01*
X35989910Y-75801597D01*
X35723805Y-75516591D01*
X35407211Y-75288976D01*
X35052295Y-75127499D01*
X34845323Y-75073323D01*
X34537000Y-75188171D01*
X34283000Y-75188171D01*
X33974677Y-75073323D01*
X33767705Y-75127499D01*
X33412789Y-75288976D01*
X33096195Y-75516591D01*
X32830090Y-75801597D01*
X32624700Y-76133041D01*
X32487918Y-76498186D01*
X32425000Y-76883000D01*
X31845000Y-76883000D01*
X31845000Y-76639721D01*
X31762953Y-76227244D01*
X31602012Y-75838698D01*
X31368363Y-75489017D01*
X31070983Y-75191637D01*
X30721302Y-74957988D01*
X30332756Y-74797047D01*
X29920279Y-74715000D01*
X29499721Y-74715000D01*
X29087244Y-74797047D01*
X28698698Y-74957988D01*
X28349017Y-75191637D01*
X28051637Y-75489017D01*
X27817988Y-75838698D01*
X27657047Y-76227244D01*
X27575000Y-76639721D01*
X26708326Y-76639721D01*
X26708326Y-66155824D01*
X32425000Y-71872499D01*
X32425000Y-72207509D01*
X32453722Y-72499127D01*
X32567226Y-72873301D01*
X32751547Y-73218143D01*
X32999602Y-73520398D01*
X33301857Y-73768453D01*
X33646698Y-73952774D01*
X34020872Y-74066278D01*
X34410000Y-74104604D01*
X34799127Y-74066278D01*
X35173301Y-73952774D01*
X35518143Y-73768453D01*
X35820398Y-73520398D01*
X36068453Y-73218143D01*
X36252774Y-72873302D01*
X36366278Y-72499128D01*
X36395000Y-72207510D01*
X36395000Y-71412491D01*
X36366278Y-71120873D01*
X36252774Y-70746698D01*
X36068453Y-70401857D01*
X35820398Y-70099602D01*
X35518143Y-69851547D01*
X35173302Y-69667226D01*
X34799128Y-69553722D01*
X34410000Y-69515396D01*
X34185051Y-69537552D01*
X29632498Y-64985000D01*
X29920279Y-64985000D01*
X30332756Y-64902953D01*
X30721302Y-64742012D01*
X31070983Y-64508363D01*
X31368363Y-64210983D01*
X31602012Y-63861302D01*
X31762953Y-63472756D01*
X31770065Y-63437000D01*
X32425000Y-63437000D01*
X32425000Y-63737000D01*
X32487918Y-64121814D01*
X32624700Y-64486959D01*
X32830090Y-64818403D01*
X33096195Y-65103409D01*
X33412789Y-65331024D01*
X33767705Y-65492501D01*
X33974677Y-65546677D01*
X34283000Y-65431829D01*
X34283000Y-63437000D01*
X34537000Y-63437000D01*
X34537000Y-65431829D01*
X34845323Y-65546677D01*
X35052295Y-65492501D01*
X35407211Y-65331024D01*
X35723805Y-65103409D01*
X35989910Y-64818403D01*
X36195300Y-64486959D01*
X36332082Y-64121814D01*
X36395000Y-63737000D01*
X36395000Y-63437000D01*
X34537000Y-63437000D01*
X34283000Y-63437000D01*
X32425000Y-63437000D01*
X31770065Y-63437000D01*
X31845000Y-63060279D01*
X31845000Y-62883000D01*
X32425000Y-62883000D01*
X32425000Y-63183000D01*
X34283000Y-63183000D01*
X34283000Y-61188171D01*
X34537000Y-61188171D01*
X34537000Y-63183000D01*
X36395000Y-63183000D01*
X36395000Y-62883000D01*
X36332082Y-62498186D01*
X36195300Y-62133041D01*
X35989910Y-61801597D01*
X35723805Y-61516591D01*
X35407211Y-61288976D01*
X35052295Y-61127499D01*
X34845323Y-61073323D01*
X34537000Y-61188171D01*
X34283000Y-61188171D01*
X33974677Y-61073323D01*
X33767705Y-61127499D01*
X33412789Y-61288976D01*
X33096195Y-61516591D01*
X32830090Y-61801597D01*
X32624700Y-62133041D01*
X32487918Y-62498186D01*
X32425000Y-62883000D01*
X31845000Y-62883000D01*
X31845000Y-62639721D01*
X31762953Y-62227244D01*
X31602012Y-61838698D01*
X31368363Y-61489017D01*
X31070983Y-61191637D01*
X30721302Y-60957988D01*
X30332756Y-60797047D01*
X30131532Y-60757021D01*
X31630753Y-59257800D01*
X32784093Y-59257800D01*
X32999602Y-59520398D01*
X33301857Y-59768453D01*
X33646698Y-59952774D01*
X34020872Y-60066278D01*
X34410000Y-60104604D01*
X34799127Y-60066278D01*
X35173301Y-59952774D01*
X35518143Y-59768453D01*
X35820398Y-59520398D01*
X36068453Y-59218143D01*
X36252774Y-58873302D01*
X36366278Y-58499128D01*
X36395000Y-58207510D01*
X36395000Y-57412491D01*
X36366278Y-57120873D01*
X36252774Y-56746698D01*
X36068453Y-56401857D01*
X35820398Y-56099602D01*
X35518143Y-55851547D01*
X35173302Y-55667226D01*
X34799128Y-55553722D01*
X34410000Y-55515396D01*
X34020873Y-55553722D01*
X33646699Y-55667226D01*
X33301858Y-55851547D01*
X32999603Y-56099602D01*
X32784093Y-56362200D01*
X31102168Y-56362200D01*
X31031054Y-56355196D01*
X30959939Y-56362200D01*
X30959932Y-56362200D01*
X30772759Y-56380635D01*
X30747235Y-56383149D01*
X30474324Y-56465935D01*
X30222808Y-56600374D01*
X30222806Y-56600375D01*
X30222807Y-56600375D01*
X30057595Y-56735960D01*
X30057589Y-56735966D01*
X30002352Y-56781298D01*
X29957020Y-56836535D01*
X26708326Y-60085230D01*
X26708326Y-55205436D01*
X33666756Y-48247007D01*
X40009399Y-48247007D01*
X36333349Y-51923058D01*
G37*
G04 #@! TD.AperFunction*
D19*
X62937000Y-73763000D02*
X62957000Y-73763000D01*
X62957000Y-74017000D01*
X62937000Y-74017000D01*
X62937000Y-75210814D01*
X63166891Y-75331481D01*
X63441252Y-75234157D01*
X63691355Y-75085178D01*
X63907588Y-74890269D01*
X64081641Y-74656920D01*
X64206825Y-74394099D01*
X64251476Y-74246890D01*
X64130156Y-74017002D01*
X64257801Y-74017002D01*
X64257800Y-80743175D01*
X64249502Y-80715820D01*
X64190537Y-80605506D01*
X64111185Y-80508815D01*
X64014494Y-80429463D01*
X63904180Y-80370498D01*
X63784482Y-80334188D01*
X63660000Y-80321928D01*
X61960000Y-80321928D01*
X61855011Y-80332268D01*
X61855011Y-75018805D01*
X61928645Y-75085178D01*
X62178748Y-75234157D01*
X62453109Y-75331481D01*
X62683000Y-75210814D01*
X62683000Y-74017000D01*
X62663000Y-74017000D01*
X62663000Y-73763000D01*
X62683000Y-73763000D01*
X62683000Y-73743000D01*
X62937000Y-73743000D01*
X62937000Y-73763000D01*
G04 #@! TA.AperFunction,Conductor*
D20*
G36*
X62937000Y-73763000D02*
G01*
X62957000Y-73763000D01*
X62957000Y-74017000D01*
X62937000Y-74017000D01*
X62937000Y-75210814D01*
X63166891Y-75331481D01*
X63441252Y-75234157D01*
X63691355Y-75085178D01*
X63907588Y-74890269D01*
X64081641Y-74656920D01*
X64206825Y-74394099D01*
X64251476Y-74246890D01*
X64130156Y-74017002D01*
X64257801Y-74017002D01*
X64257800Y-80743175D01*
X64249502Y-80715820D01*
X64190537Y-80605506D01*
X64111185Y-80508815D01*
X64014494Y-80429463D01*
X63904180Y-80370498D01*
X63784482Y-80334188D01*
X63660000Y-80321928D01*
X61960000Y-80321928D01*
X61855011Y-80332268D01*
X61855011Y-75018805D01*
X61928645Y-75085178D01*
X62178748Y-75234157D01*
X62453109Y-75331481D01*
X62683000Y-75210814D01*
X62683000Y-74017000D01*
X62663000Y-74017000D01*
X62663000Y-73763000D01*
X62683000Y-73763000D01*
X62683000Y-73743000D01*
X62937000Y-73743000D01*
X62937000Y-73763000D01*
G37*
G04 #@! TD.AperFunction*
D19*
X44557611Y-84468769D02*
X44508815Y-84508815D01*
X44429463Y-84605506D01*
X44370498Y-84715820D01*
X44334188Y-84835518D01*
X44321928Y-84960000D01*
X44321928Y-86660000D01*
X44334188Y-86784482D01*
X44370498Y-86904180D01*
X44429463Y-87014494D01*
X44508815Y-87111185D01*
X44605506Y-87190537D01*
X44715820Y-87249502D01*
X44788380Y-87271513D01*
X44656525Y-87403368D01*
X44494010Y-87646589D01*
X44382068Y-87916842D01*
X44325000Y-88203740D01*
X44325000Y-88496260D01*
X44382068Y-88783158D01*
X44494010Y-89053411D01*
X44656525Y-89296632D01*
X44863368Y-89503475D01*
X45106589Y-89665990D01*
X45376842Y-89777932D01*
X45663740Y-89835000D01*
X45956260Y-89835000D01*
X46243158Y-89777932D01*
X46513411Y-89665990D01*
X46756632Y-89503475D01*
X46963475Y-89296632D01*
X46977431Y-89275745D01*
X47811998Y-90110312D01*
X47811998Y-90162748D01*
X47653250Y-90004000D01*
X47239000Y-90000928D01*
X47114518Y-90013188D01*
X46994820Y-90049498D01*
X46884506Y-90108463D01*
X46787815Y-90187815D01*
X46708463Y-90284506D01*
X46649498Y-90394820D01*
X46613188Y-90514518D01*
X46600928Y-90639000D01*
X46604000Y-90865750D01*
X46762750Y-91024500D01*
X47812000Y-91024500D01*
X47812000Y-91004500D01*
X48066000Y-91004500D01*
X48066000Y-91024500D01*
X48086000Y-91024500D01*
X48086000Y-91278500D01*
X48066000Y-91278500D01*
X48066000Y-91298500D01*
X47812000Y-91298500D01*
X47812000Y-91278500D01*
X47358092Y-91278500D01*
X47219295Y-91236396D01*
X47092420Y-91223900D01*
X47050000Y-91219722D01*
X47007580Y-91223900D01*
X45905215Y-91223900D01*
X43275518Y-88594204D01*
X43295000Y-88496260D01*
X43295000Y-88203740D01*
X43237932Y-87916842D01*
X43125990Y-87646589D01*
X42963475Y-87403368D01*
X42831620Y-87271513D01*
X42904180Y-87249502D01*
X43014494Y-87190537D01*
X43111185Y-87111185D01*
X43190537Y-87014494D01*
X43249502Y-86904180D01*
X43285812Y-86784482D01*
X43298072Y-86660000D01*
X43298072Y-84960000D01*
X43285812Y-84835518D01*
X43249502Y-84715820D01*
X43190537Y-84605506D01*
X43111185Y-84508815D01*
X43014494Y-84429463D01*
X42904180Y-84370498D01*
X42784482Y-84334188D01*
X42660000Y-84321928D01*
X40960000Y-84321928D01*
X40893873Y-84328441D01*
X44557611Y-80664703D01*
X44557611Y-84468769D01*
G04 #@! TA.AperFunction,Conductor*
D20*
G36*
X44557611Y-84468769D02*
G01*
X44508815Y-84508815D01*
X44429463Y-84605506D01*
X44370498Y-84715820D01*
X44334188Y-84835518D01*
X44321928Y-84960000D01*
X44321928Y-86660000D01*
X44334188Y-86784482D01*
X44370498Y-86904180D01*
X44429463Y-87014494D01*
X44508815Y-87111185D01*
X44605506Y-87190537D01*
X44715820Y-87249502D01*
X44788380Y-87271513D01*
X44656525Y-87403368D01*
X44494010Y-87646589D01*
X44382068Y-87916842D01*
X44325000Y-88203740D01*
X44325000Y-88496260D01*
X44382068Y-88783158D01*
X44494010Y-89053411D01*
X44656525Y-89296632D01*
X44863368Y-89503475D01*
X45106589Y-89665990D01*
X45376842Y-89777932D01*
X45663740Y-89835000D01*
X45956260Y-89835000D01*
X46243158Y-89777932D01*
X46513411Y-89665990D01*
X46756632Y-89503475D01*
X46963475Y-89296632D01*
X46977431Y-89275745D01*
X47811998Y-90110312D01*
X47811998Y-90162748D01*
X47653250Y-90004000D01*
X47239000Y-90000928D01*
X47114518Y-90013188D01*
X46994820Y-90049498D01*
X46884506Y-90108463D01*
X46787815Y-90187815D01*
X46708463Y-90284506D01*
X46649498Y-90394820D01*
X46613188Y-90514518D01*
X46600928Y-90639000D01*
X46604000Y-90865750D01*
X46762750Y-91024500D01*
X47812000Y-91024500D01*
X47812000Y-91004500D01*
X48066000Y-91004500D01*
X48066000Y-91024500D01*
X48086000Y-91024500D01*
X48086000Y-91278500D01*
X48066000Y-91278500D01*
X48066000Y-91298500D01*
X47812000Y-91298500D01*
X47812000Y-91278500D01*
X47358092Y-91278500D01*
X47219295Y-91236396D01*
X47092420Y-91223900D01*
X47050000Y-91219722D01*
X47007580Y-91223900D01*
X45905215Y-91223900D01*
X43275518Y-88594204D01*
X43295000Y-88496260D01*
X43295000Y-88203740D01*
X43237932Y-87916842D01*
X43125990Y-87646589D01*
X42963475Y-87403368D01*
X42831620Y-87271513D01*
X42904180Y-87249502D01*
X43014494Y-87190537D01*
X43111185Y-87111185D01*
X43190537Y-87014494D01*
X43249502Y-86904180D01*
X43285812Y-86784482D01*
X43298072Y-86660000D01*
X43298072Y-84960000D01*
X43285812Y-84835518D01*
X43249502Y-84715820D01*
X43190537Y-84605506D01*
X43111185Y-84508815D01*
X43014494Y-84429463D01*
X42904180Y-84370498D01*
X42784482Y-84334188D01*
X42660000Y-84321928D01*
X40960000Y-84321928D01*
X40893873Y-84328441D01*
X44557611Y-80664703D01*
X44557611Y-84468769D01*
G37*
G04 #@! TD.AperFunction*
D19*
X47937000Y-59223000D02*
X47957000Y-59223000D01*
X47957000Y-59477000D01*
X47937000Y-59477000D01*
X47937000Y-59497000D01*
X47683000Y-59497000D01*
X47683000Y-59477000D01*
X47663000Y-59477000D01*
X47663000Y-59223000D01*
X47683000Y-59223000D01*
X47683000Y-59203000D01*
X47937000Y-59203000D01*
X47937000Y-59223000D01*
G04 #@! TA.AperFunction,Conductor*
D20*
G36*
X47937000Y-59223000D02*
G01*
X47957000Y-59223000D01*
X47957000Y-59477000D01*
X47937000Y-59477000D01*
X47937000Y-59497000D01*
X47683000Y-59497000D01*
X47683000Y-59477000D01*
X47663000Y-59477000D01*
X47663000Y-59223000D01*
X47683000Y-59223000D01*
X47683000Y-59203000D01*
X47937000Y-59203000D01*
X47937000Y-59223000D01*
G37*
G04 #@! TD.AperFunction*
D19*
X39698463Y-51709494D02*
X39777815Y-51806185D01*
X39857594Y-51871658D01*
X39851038Y-51877038D01*
X39740595Y-52011614D01*
X39658528Y-52165150D01*
X39607992Y-52331746D01*
X39590928Y-52505000D01*
X39590928Y-53005000D01*
X39607992Y-53178254D01*
X39658528Y-53344850D01*
X39740595Y-53498386D01*
X39757086Y-53518481D01*
X39733604Y-53595891D01*
X39712517Y-53810000D01*
X39714704Y-53832210D01*
X37800799Y-53832210D01*
X37787790Y-53819201D01*
X37787790Y-53557823D01*
X39676747Y-51668867D01*
X39698463Y-51709494D01*
G04 #@! TA.AperFunction,Conductor*
D20*
G36*
X39698463Y-51709494D02*
G01*
X39777815Y-51806185D01*
X39857594Y-51871658D01*
X39851038Y-51877038D01*
X39740595Y-52011614D01*
X39658528Y-52165150D01*
X39607992Y-52331746D01*
X39590928Y-52505000D01*
X39590928Y-53005000D01*
X39607992Y-53178254D01*
X39658528Y-53344850D01*
X39740595Y-53498386D01*
X39757086Y-53518481D01*
X39733604Y-53595891D01*
X39712517Y-53810000D01*
X39714704Y-53832210D01*
X37800799Y-53832210D01*
X37787790Y-53819201D01*
X37787790Y-53557823D01*
X39676747Y-51668867D01*
X39698463Y-51709494D01*
G37*
G04 #@! TD.AperFunction*
D19*
X46731916Y-49453418D02*
X46687071Y-49601255D01*
X46671928Y-49755000D01*
X46671928Y-50055000D01*
X46687071Y-50208745D01*
X46731916Y-50356582D01*
X46804742Y-50492829D01*
X46843454Y-50540000D01*
X46804742Y-50587171D01*
X46731916Y-50723418D01*
X46687071Y-50871255D01*
X46671928Y-51025000D01*
X46671928Y-51325000D01*
X46687071Y-51478745D01*
X46731916Y-51626582D01*
X46797176Y-51748674D01*
X46696388Y-51831388D01*
X46669346Y-51864339D01*
X46266460Y-52267226D01*
X46266778Y-52264000D01*
X46250104Y-52094705D01*
X46200722Y-51931916D01*
X46120531Y-51781888D01*
X46056519Y-51703889D01*
X46012612Y-51650388D01*
X45979661Y-51623346D01*
X44950663Y-50594350D01*
X44923612Y-50561388D01*
X44865164Y-50513421D01*
X44899502Y-50449180D01*
X44935812Y-50329482D01*
X44948072Y-50205000D01*
X44945000Y-50190750D01*
X44786250Y-50032000D01*
X43462000Y-50032000D01*
X43462000Y-50052000D01*
X43208000Y-50052000D01*
X43208000Y-50032000D01*
X43188000Y-50032000D01*
X43188000Y-49778000D01*
X43208000Y-49778000D01*
X43208000Y-49758000D01*
X43462000Y-49758000D01*
X43462000Y-49778000D01*
X44786250Y-49778000D01*
X44945000Y-49619250D01*
X44948072Y-49605000D01*
X44935812Y-49480518D01*
X44925037Y-49444999D01*
X46736416Y-49444999D01*
X46731916Y-49453418D01*
G04 #@! TA.AperFunction,Conductor*
D20*
G36*
X46731916Y-49453418D02*
G01*
X46687071Y-49601255D01*
X46671928Y-49755000D01*
X46671928Y-50055000D01*
X46687071Y-50208745D01*
X46731916Y-50356582D01*
X46804742Y-50492829D01*
X46843454Y-50540000D01*
X46804742Y-50587171D01*
X46731916Y-50723418D01*
X46687071Y-50871255D01*
X46671928Y-51025000D01*
X46671928Y-51325000D01*
X46687071Y-51478745D01*
X46731916Y-51626582D01*
X46797176Y-51748674D01*
X46696388Y-51831388D01*
X46669346Y-51864339D01*
X46266460Y-52267226D01*
X46266778Y-52264000D01*
X46250104Y-52094705D01*
X46200722Y-51931916D01*
X46120531Y-51781888D01*
X46056519Y-51703889D01*
X46012612Y-51650388D01*
X45979661Y-51623346D01*
X44950663Y-50594350D01*
X44923612Y-50561388D01*
X44865164Y-50513421D01*
X44899502Y-50449180D01*
X44935812Y-50329482D01*
X44948072Y-50205000D01*
X44945000Y-50190750D01*
X44786250Y-50032000D01*
X43462000Y-50032000D01*
X43462000Y-50052000D01*
X43208000Y-50052000D01*
X43208000Y-50032000D01*
X43188000Y-50032000D01*
X43188000Y-49778000D01*
X43208000Y-49778000D01*
X43208000Y-49758000D01*
X43462000Y-49758000D01*
X43462000Y-49778000D01*
X44786250Y-49778000D01*
X44945000Y-49619250D01*
X44948072Y-49605000D01*
X44935812Y-49480518D01*
X44925037Y-49444999D01*
X46736416Y-49444999D01*
X46731916Y-49453418D01*
G37*
G04 #@! TD.AperFunction*
D19*
X41081000Y-50728000D02*
X41101000Y-50728000D01*
X41101000Y-50982000D01*
X41081000Y-50982000D01*
X41081000Y-51002000D01*
X40827000Y-51002000D01*
X40827000Y-50982000D01*
X40807000Y-50982000D01*
X40807000Y-50728000D01*
X40827000Y-50728000D01*
X40827000Y-50708000D01*
X41081000Y-50708000D01*
X41081000Y-50728000D01*
G04 #@! TA.AperFunction,Conductor*
D20*
G36*
X41081000Y-50728000D02*
G01*
X41101000Y-50728000D01*
X41101000Y-50982000D01*
X41081000Y-50982000D01*
X41081000Y-51002000D01*
X40827000Y-51002000D01*
X40827000Y-50982000D01*
X40807000Y-50982000D01*
X40807000Y-50728000D01*
X40827000Y-50728000D01*
X40827000Y-50708000D01*
X41081000Y-50708000D01*
X41081000Y-50728000D01*
G37*
G04 #@! TD.AperFunction*
M02*
