G04 #@! TF.GenerationSoftware,KiCad,Pcbnew,(5.1.9)-1*
G04 #@! TF.CreationDate,2021-10-30T20:33:53-06:00*
G04 #@! TF.ProjectId,ralt_controller,72616c74-5f63-46f6-9e74-726f6c6c6572,1*
G04 #@! TF.SameCoordinates,Original*
G04 #@! TF.FileFunction,Other,User*
%FSLAX46Y46*%
G04 Gerber Fmt 4.6, Leading zero omitted, Abs format (unit mm)*
G04 Created by KiCad (PCBNEW (5.1.9)-1) date 2021-10-30 20:33:53*
%MOMM*%
%LPD*%
G01*
G04 APERTURE LIST*
%ADD10C,0.050000*%
G04 APERTURE END LIST*
D10*
X46010000Y-69060000D02*
X46010000Y-74850000D01*
X46010000Y-74850000D02*
X49510000Y-74850000D01*
X49510000Y-74850000D02*
X49510000Y-81060000D01*
X49510000Y-81060000D02*
X27710000Y-81060000D01*
X27710000Y-81060000D02*
X27710000Y-74850000D01*
X27710000Y-74850000D02*
X31210000Y-74850000D01*
X31210000Y-74850000D02*
X31210000Y-69060000D01*
X31210000Y-69060000D02*
X46010000Y-69060000D01*
X46010000Y-55060000D02*
X46010000Y-60850000D01*
X46010000Y-60850000D02*
X49510000Y-60850000D01*
X49510000Y-60850000D02*
X49510000Y-67060000D01*
X49510000Y-67060000D02*
X27710000Y-67060000D01*
X27710000Y-67060000D02*
X27710000Y-60850000D01*
X27710000Y-60850000D02*
X31210000Y-60850000D01*
X31210000Y-60850000D02*
X31210000Y-55060000D01*
X31210000Y-55060000D02*
X46010000Y-55060000D01*
X64610000Y-67010000D02*
X64610000Y-75660000D01*
X64610000Y-75660000D02*
X61010000Y-75660000D01*
X61010000Y-75660000D02*
X61010000Y-67010000D01*
X61010000Y-67010000D02*
X64610000Y-67010000D01*
X58610000Y-67010000D02*
X58610000Y-75660000D01*
X58610000Y-75660000D02*
X55010000Y-75660000D01*
X55010000Y-75660000D02*
X55010000Y-67010000D01*
X55010000Y-67010000D02*
X58610000Y-67010000D01*
X76010000Y-83060000D02*
X76010000Y-95060000D01*
X76010000Y-95060000D02*
X65410000Y-95060000D01*
X65410000Y-95060000D02*
X65410000Y-83060000D01*
X65410000Y-83060000D02*
X76010000Y-83060000D01*
X65010000Y-83060000D02*
X65010000Y-95060000D01*
X65010000Y-95060000D02*
X54410000Y-95060000D01*
X54410000Y-95060000D02*
X54410000Y-83060000D01*
X54410000Y-83060000D02*
X65010000Y-83060000D01*
M02*
