<?xml version="1.0" encoding="utf-8"?>
<!-- Generator: Fusion 360, Shaper Origin Export Add-In, Version 1.6.10  -->
<svg xmlns="http://www.w3.org/2000/svg" xmlns:xlink="http://www.w3.org/1999/xlink" xmlns:shaper="http://www.shapertools.com/namespaces/shaper" shaper:fusionaddin="version:1.6.10" width="54.6434427cm" height="13.3839358cm" version="1.1" x="0cm" y="0cm" viewBox="0 0 54.6434427 13.3839358" enable-background="new 0 0 54.6434427 13.3839358" xml:space="preserve"><path d="M-27.3217214,6.7596414 L27.3217214,6.7596414 27.3217214,-0.0966134 27.3217214,-0.0966134 26.9629566,-0.236739 26.6036027,-0.3753545 26.2436397,-0.5124597 25.8830478,-0.6480542 25.5218072,-0.7821377 25.1598981,-0.9147097 24.7973005,-1.0457701 24.4339947,-1.1753184 24.0699608,-1.3033543 23.705179,-1.4298775 23.3396295,-1.5548877 22.9732924,-1.6783844 22.6061478,-1.8003675 22.2381761,-1.9208364 21.8693572,-2.039791 21.4996715,-2.1572308 21.1290989,-2.2731555 20.7576198,-2.3875648 20.3852143,-2.5004584 20.0118625,-2.6118359 19.6375446,-2.7216969 19.2622408,-2.8300412 18.8859312,-2.9368684 18.508596,-3.0421781 18.1302153,-3.1459701 17.7507694,-3.248244 17.3702384,-3.3489994 16.9886024,-3.448236 16.6058417,-3.5459535 16.2219363,-3.6421516 15.8368665,-3.7368298 15.4506124,-3.829988 15.0631541,-3.9216256 14.674472,-4.0117425 14.284546,-4.1003382 13.8933564,-4.1874124 13.5008833,-4.2729649 13.1071069,-4.3569951 12.7120074,-4.4395029 12.3155649,-4.5204879 11.9177596,-4.5999496 11.5185717,-4.6778879 11.1179813,-4.7543024 10.7159686,-4.8291927 10.3125137,-4.9025584 9.9075968,-4.9743994 9.5011981,-5.0447151 9.0932978,-5.1135053 8.683876,-5.1807697 8.2729128,-5.2465078 7.8603885,-5.3107195 7.4462832,-5.3734043 7.030577,-5.4345618 6.6132502,-5.4941918 6.1942829,-5.552294 5.7736552,-5.6088679 5.3513474,-5.6639133 4.9273396,-5.7174298 4.5016119,-5.769417 4.0741445,-5.8198747 3.6449176,-5.8688025 3.2139114,-5.9162001 2.7811059,-5.9620671 2.3464815,-6.0064032 2.1284809,-6.027997 1.9100181,-6.049208 1.6910907,-6.0700361 1.4716961,-6.0904813 1.2518319,-6.1105434 1.0314956,-6.1302226 0.8106847,-6.1495187 0.5893967,-6.1684317 0.3676291,-6.1869615 0.1453796,-6.2051081 -0.0773545,-6.2228715 -0.3005756,-6.2402517 -0.5242861,-6.2572485 -0.7484886,-6.273862 -0.9731855,-6.290092 -1.1983793,-6.3059386 -1.4240725,-6.3214018 -1.6502676,-6.3364814 -1.876967,-6.3511774 -2.1041733,-6.3654898 -2.3318888,-6.3794186 -2.5601161,-6.3929637 -2.7888577,-6.406125 -3.018116,-6.4189026 -3.2478936,-6.4312963 -3.4781928,-6.4433062 -3.7090163,-6.4549321 -3.9403664,-6.4661741 -4.1722456,-6.4770321 -4.4046565,-6.4875061 -4.6376014,-6.4975961 -4.8710829,-6.5073018 -5.1051035,-6.5166235 -5.3396656,-6.5255609 -5.5747718,-6.5341141 -5.8104244,-6.542283 -6.046626,-6.5500676 -6.2833791,-6.5574678 -6.5206861,-6.5644836 -6.7585495,-6.571115 -7.2351737,-6.5831927 -7.7123497,-6.593679 -8.1900067,-6.6025939 -8.6680746,-6.6099572 -9.146483,-6.615789 -9.6251618,-6.6201092 -10.1040408,-6.6229377 -10.5830498,-6.6242944 -11.0621186,-6.6241993 -11.541177,-6.6226724 -12.0201548,-6.6197335 -12.4989818,-6.6154027 -12.9775877,-6.6096998 -13.4559024,-6.6026448 -13.9338557,-6.5942577 -14.4113774,-6.5845583 -14.8883973,-6.5735667 -15.3648451,-6.5613027 -15.8406507,-6.5477864 -16.3157438,-6.5330376 -16.7900543,-6.5170762 -17.263512,-6.4999224 -17.7360466,-6.4815958 -18.207588,-6.4621166 -18.6780659,-6.4415047 -19.1474102,-6.4197799 -19.6155506,-6.3969623 -20.0824169,-6.3730718 -20.547939,-6.3481282 -21.0120467,-6.3221517 -21.4746696,-6.295162 -21.9357377,-6.2671792 -22.3951807,-6.2382231 -22.8529285,-6.2083138 -23.3089108,-6.1774712 -23.7630574,-6.1457151 -24.2152981,-6.1130656 -24.6655627,-6.0795426 -25.1137811,-6.0451661 -25.5598829,-6.0099559 -26.0037981,-5.973932 -26.2249137,-5.9556211 -26.4454563,-5.9371143 -26.6654172,-5.9184141 -26.8847875,-5.8995229 -27.1035585,-5.8804432 -27.3217214,-5.8611776 -27.3217214,6.7596414z" transform="matrix(1,0,0,-1,27.3217214,6.7596414)" fill="rgb(0,0,0)" shaper:cutDepth="0.01905" stroke-linecap="round" stroke-linejoin="round" /><path d="M26.1234763,1.6187733 a0.245745,0.245745 0 1,1 0.49149,0 a0.245745,0.245745 0 1,1 -0.49149,0z" transform="matrix(1,0,0,-1,27.3217214,6.7596414)" fill="rgb(255,255,255)" stroke="rgb(0,0,0)" stroke-width="0.0010cm" stroke-linecap="round" stroke-linejoin="round" shaper:cutDepth="0.01905" /><path d="M26.1234763,5.4287835 a0.245745,0.245745 0 1,1 0.49149,0 a0.245745,0.245745 0 1,1 -0.49149,0z" transform="matrix(1,0,0,-1,27.3217214,6.7596414)" fill="rgb(255,255,255)" stroke="rgb(0,0,0)" stroke-width="0.0010cm" stroke-linecap="round" stroke-linejoin="round" shaper:cutDepth="0.01905" /><path d="M-13.3517214,0.4096414 a3.81,3.81 0 1,1 7.62,0 a3.81,3.81 0 1,1 -7.62,0z" transform="matrix(1,0,0,-1,27.3217214,6.7596414)" fill="rgb(255,255,255)" stroke="rgb(0,0,0)" stroke-width="0.0010cm" stroke-linecap="round" stroke-linejoin="round" shaper:cutDepth="0.01905" /><path d="M2.5232786,0.9176414 a3.175,3.175 0 1,1 6.35,0 a3.175,3.175 0 1,1 -6.35,0z" transform="matrix(1,0,0,-1,27.3217214,6.7596414)" fill="rgb(255,255,255)" stroke="rgb(0,0,0)" stroke-width="0.0010cm" stroke-linecap="round" stroke-linejoin="round" shaper:cutDepth="0.01905" /><path d="M15.8582786,2.6321414 a2.54,2.54 0 1,1 5.08,0 a2.54,2.54 0 1,1 -5.08,0z" transform="matrix(1,0,0,-1,27.3217214,6.7596414)" fill="rgb(255,255,255)" stroke="rgb(0,0,0)" stroke-width="0.0010cm" stroke-linecap="round" stroke-linejoin="round" shaper:cutDepth="0.01905" /></svg>