<?xml version="1.0" encoding="utf-8"?>
<!-- Generator: Fusion 360, Shaper Origin Export Add-In, Version 1.6.10  -->
<svg xmlns="http://www.w3.org/2000/svg" xmlns:xlink="http://www.w3.org/1999/xlink" xmlns:shaper="http://www.shapertools.com/namespaces/shaper" shaper:fusionaddin="version:1.6.10" width="57.31184cm" height="14.6618461cm" version="1.1" x="0cm" y="0cm" viewBox="0 0 57.31184 14.6618461" enable-background="new 0 0 57.31184 14.6618461" xml:space="preserve"><path d="M-28.65592,7.4032349 L28.65592,7.4032349 28.65592,-0.4397054 28.65592,-0.4397054 28.2797136,-0.5870066 27.9028878,-0.7327103 27.5254214,-0.8768162 27.1472931,-1.0193239 26.768482,-1.1602331 26.3889667,-1.2995434 26.0087261,-1.4372544 25.6277391,-1.5733657 25.2459845,-1.7078771 24.8634411,-1.8407881 24.4800877,-1.9720985 24.0959033,-2.1018077 23.7108666,-2.2299156 23.3249564,-2.3564216 22.9381517,-2.4813255 22.5504312,-2.6046269 22.1617737,-2.7263254 21.7721582,-2.8464207 21.3815634,-2.9649124 20.9899682,-3.0818002 20.5973514,-3.1970836 20.2036919,-3.3107624 19.8089684,-3.4228361 19.4131599,-3.5333044 19.0162451,-3.642167 18.6182029,-3.7494235 18.2190121,-3.8550735 17.8186516,-3.9591167 17.4171001,-4.0615527 17.0143366,-4.1623811 16.6103399,-4.2616016 16.2050888,-4.3592139 15.7985621,-4.4552175 15.3907386,-4.5496121 14.9815973,-4.6423974 14.5711169,-4.7335729 14.1592763,-4.8231384 13.7460543,-4.9110934 13.3314298,-4.9974376 12.9153815,-5.0821707 12.4978884,-5.1652923 12.0789292,-5.246802 11.6584828,-5.3266994 11.236528,-5.4049843 10.8130437,-5.4816562 10.3880086,-5.5567148 9.9614017,-5.6301597 9.5332018,-5.7019905 9.1033876,-5.772207 8.6719381,-5.8408087 8.2388321,-5.9077953 7.8040484,-5.9731664 7.3675658,-6.0369216 6.9293631,-6.0990607 6.4894193,-6.1595832 6.0477132,-6.2184888 5.8261926,-6.2473351 5.6042235,-6.2757771 5.3818032,-6.3038147 5.1589291,-6.3314478 4.9355985,-6.3586764 4.7118089,-6.3855004 4.4875575,-6.4119199 4.2628416,-6.4379347 4.0376588,-6.4635449 3.8120062,-6.4887503 3.5858813,-6.513551 3.3592815,-6.5379468 3.132204,-6.5619378 2.9046462,-6.5855238 2.6766055,-6.608705 2.4480793,-6.6314811 2.2190648,-6.6538522 1.9895595,-6.6758182 1.7595607,-6.697379 1.5290657,-6.7185347 1.298072,-6.7392852 1.0665768,-6.7596304 0.8345775,-6.7795703 0.6020715,-6.7991048 0.3690561,-6.818234 0.1355287,-6.8369577 -0.0985134,-6.8552759 -0.3330727,-6.8731885 -0.5681521,-6.8906956 -0.803754,-6.9077971 -1.0398812,-6.9244929 -1.2765362,-6.9407829 -1.5137219,-6.9566672 -1.7514407,-6.9721457 -1.9896953,-6.9872184 -2.2284884,-7.0018851 -2.4678226,-7.0161459 -2.7077006,-7.0300008 -2.948125,-7.0434496 -3.1890985,-7.0564923 -3.4306237,-7.0691289 -3.6727032,-7.0813593 -3.9153397,-7.0931835 -4.1585358,-7.1046015 -4.4022943,-7.1156131 -4.6466176,-7.1262184 -4.8915086,-7.1364173 -5.1369698,-7.1462098 -5.3830038,-7.1555958 -5.6296134,-7.1645753 -5.8768011,-7.1731482 -6.1245696,-7.1813145 -6.3729216,-7.1890741 -6.6218596,-7.196427 -7.1212987,-7.2099037 -7.6215781,-7.2216972 -8.1224014,-7.2318181 -8.6236938,-7.2402877 -9.1253802,-7.2471273 -9.6273857,-7.2523582 -10.1296355,-7.2560016 -10.6320546,-7.2580789 -11.1345681,-7.2586112 -11.6371011,-7.25762 -12.1395787,-7.2551264 -12.6419258,-7.2511517 -13.1440678,-7.2457173 -13.6459295,-7.2388444 -14.1474361,-7.2305543 -14.6485128,-7.2208682 -15.1490844,-7.2098074 -15.6490762,-7.1973933 -16.1484133,-7.1836471 -16.6470206,-7.16859 -17.1448233,-7.1522434 -17.6417466,-7.1346286 -18.1377153,-7.1157667 -18.6326547,-7.0956792 -19.1264898,-7.0743872 -19.6191457,-7.051912 -20.1105475,-7.028275 -20.6006203,-7.0034974 -21.0892891,-6.9776005 -21.576479,-6.9506056 -22.0621152,-6.9225338 -22.5461227,-6.8934067 -23.0284265,-6.8632453 -23.5089518,-6.832071 -23.9876236,-6.799905 -24.4643671,-6.7667687 -24.9391072,-6.7326833 -25.4117692,-6.6976701 -25.882278,-6.6617504 -26.1167016,-6.6434572 -26.3505588,-6.6249454 -26.5838403,-6.6062176 -26.8165366,-6.5872765 -27.0486385,-6.5681247 -27.2801366,-6.5487649 -27.5110214,-6.5291997 -27.7412837,-6.5094318 -27.9709141,-6.4894639 -28.1999032,-6.4692987 -28.4282416,-6.4489387 -28.65592,-6.4283867 -28.65592,7.4032349z" transform="matrix(1,0,0,-1,28.65592,7.4032349)" fill="rgb(0,0,0)" shaper:cutDepth="0.01905" stroke-linecap="round" stroke-linejoin="round" /><path d="M-15.566665,6.7682349 a0.245745,0.245745 0 1,1 0.49149,0 a0.245745,0.245745 0 1,1 -0.49149,0z" transform="matrix(1,0,0,-1,28.65592,7.4032349)" fill="rgb(255,255,255)" stroke="rgb(0,0,0)" stroke-width="0.0010cm" stroke-linecap="round" stroke-linejoin="round" shaper:cutDepth="0.01905" /><path d="M-15.566665,-6.5667651 a0.245745,0.245745 0 1,1 0.49149,0 a0.245745,0.245745 0 1,1 -0.49149,0z" transform="matrix(1,0,0,-1,28.65592,7.4032349)" fill="rgb(255,255,255)" stroke="rgb(0,0,0)" stroke-width="0.0010cm" stroke-linecap="round" stroke-linejoin="round" shaper:cutDepth="0.01905" /><path d="M-6.676665,-6.5667651 a0.245745,0.245745 0 1,1 0.49149,0 a0.245745,0.245745 0 1,1 -0.49149,0z" transform="matrix(1,0,0,-1,28.65592,7.4032349)" fill="rgb(255,255,255)" stroke="rgb(0,0,0)" stroke-width="0.0010cm" stroke-linecap="round" stroke-linejoin="round" shaper:cutDepth="0.01905" /><path d="M-6.676665,6.7682349 a0.245745,0.245745 0 1,1 0.49149,0 a0.245745,0.245745 0 1,1 -0.49149,0z" transform="matrix(1,0,0,-1,28.65592,7.4032349)" fill="rgb(255,255,255)" stroke="rgb(0,0,0)" stroke-width="0.0010cm" stroke-linecap="round" stroke-linejoin="round" shaper:cutDepth="0.01905" /><path d="M-14.63342,4.0407349 A1.27,1.27 90 0,1 -15.90342,2.7707349 L-15.90342,-2.5692651 A1.27,1.27 180 0,1 -14.63342,-3.8392651 L-7.06592,-3.8392651 A1.27,1.27 270 0,1 -5.79592,-2.5692651 L-5.79592,2.7707349 A1.27,1.27 0 0,1 -7.06592,4.0407349 L-14.63342,4.0407349z" transform="matrix(1,0,0,-1,28.65592,7.4032349)" fill="rgb(255,255,255)" stroke="rgb(0,0,0)" stroke-width="0.0010cm" stroke-linecap="round" stroke-linejoin="round" shaper:cutDepth="0.01905" /><path d="M22.2075696,0.8732369 a0.2413,0.2413 0 1,1 0.4826,0 a0.2413,0.2413 0 1,1 -0.4826,0z" transform="matrix(1,0,0,-1,28.65592,7.4032349)" fill="rgb(255,255,255)" stroke="rgb(0,0,0)" stroke-width="0.0010cm" stroke-linecap="round" stroke-linejoin="round" shaper:cutDepth="0.01905" /><path d="M26.9700698,5.4982349 a0.2413,0.2413 0 1,1 0.4826,0 a0.2413,0.2413 0 1,1 -0.4826,0z" transform="matrix(1,0,0,-1,28.65592,7.4032349)" fill="rgb(255,255,255)" stroke="rgb(0,0,0)" stroke-width="0.0010cm" stroke-linecap="round" stroke-linejoin="round" shaper:cutDepth="0.01905" /><path d="M22.2075696,5.4982349 a0.2413,0.2413 0 1,1 0.4826,0 a0.2413,0.2413 0 1,1 -0.4826,0z" transform="matrix(1,0,0,-1,28.65592,7.4032349)" fill="rgb(255,255,255)" stroke="rgb(0,0,0)" stroke-width="0.0010cm" stroke-linecap="round" stroke-linejoin="round" shaper:cutDepth="0.01905" /><path d="M26.9700698,0.8732369 a0.2413,0.2413 0 1,1 0.4826,0 a0.2413,0.2413 0 1,1 -0.4826,0z" transform="matrix(1,0,0,-1,28.65592,7.4032349)" fill="rgb(255,255,255)" stroke="rgb(0,0,0)" stroke-width="0.0010cm" stroke-linecap="round" stroke-linejoin="round" shaper:cutDepth="0.01905" /><path d="M1.18908,1.5612349 a3.175,3.175 0 1,1 6.35,0 a3.175,3.175 0 1,1 -6.35,0z" transform="matrix(1,0,0,-1,28.65592,7.4032349)" fill="rgb(255,255,255)" stroke="rgb(0,0,0)" stroke-width="0.0010cm" stroke-linecap="round" stroke-linejoin="round" shaper:cutDepth="0.01905" /><path d="M14.52408,3.2757349 a2.54,2.54 0 1,1 5.08,0 a2.54,2.54 0 1,1 -5.08,0z" transform="matrix(1,0,0,-1,28.65592,7.4032349)" fill="rgb(255,255,255)" stroke="rgb(0,0,0)" stroke-width="0.0010cm" stroke-linecap="round" stroke-linejoin="round" shaper:cutDepth="0.01905" /></svg>