<?xml version="1.0" encoding="utf-8"?>
<!-- Generator: Fusion 360, Shaper Origin Export Add-In, Version 1.6.10  -->
<svg xmlns="http://www.w3.org/2000/svg" xmlns:xlink="http://www.w3.org/1999/xlink" xmlns:shaper="http://www.shapertools.com/namespaces/shaper" shaper:fusionaddin="version:1.6.10" width="53.3092441cm" height="12.7451345cm" version="1.1" x="0cm" y="0cm" viewBox="0 0 53.3092441 12.7451345" enable-background="new 0 0 53.3092441 12.7451345" xml:space="preserve"><path d="M-26.6546221,-5.5773511 L-26.6546221,6.437763 26.6546221,6.437763 26.6546221,0.0748797 26.6546221,0.0748797 26.304587,-0.0616569 25.9539778,-0.1967272 25.6027753,-0.3303309 25.2509603,-0.4624676 24.8985136,-0.5931371 24.5454161,-0.722339 24.1916486,-0.8500729 23.8371918,-0.9763387 23.4820267,-1.1011358 23.1261341,-1.224464 22.7694947,-1.3463231 22.4120895,-1.4667125 22.0538991,-1.5856321 21.6949046,-1.7030815 21.3350866,-1.8190604 20.9744261,-1.9335684 20.6129037,-2.0466052 20.2505005,-2.1581705 19.8871972,-2.2682639 19.5229745,-2.3768853 19.1578134,-2.4840341 18.7916947,-2.5897101 18.4245992,-2.6939129 18.0565077,-2.7966423 17.6874011,-2.8978979 17.3172601,-2.9976794 16.9460656,-3.0959864 16.5737985,-3.1928187 16.2004395,-3.2881759 15.8259695,-3.3820576 15.4503693,-3.4744636 15.0736198,-3.5653935 14.6957017,-3.654847 14.3165959,-3.7428238 13.9362832,-3.8293235 13.5547444,-3.9143458 13.1719604,-3.9978904 12.787912,-4.079957 12.40258,-4.1605452 12.0159453,-4.2396548 11.6279886,-4.3172853 11.2386908,-4.3934365 10.8480327,-4.468108 10.4559952,-4.5412995 10.0625591,-4.6130107 9.6677051,-4.6832412 9.2714142,-4.7519908 8.8736672,-4.8192591 8.4744448,-4.8850457 8.0737279,-4.9493504 7.6714973,-5.0121729 7.2677339,-5.0735127 6.8624185,-5.1333696 6.4555319,-5.1917432 6.047055,-5.2486333 5.6369684,-5.3040394 5.2252532,-5.3579613 4.8118901,-5.4103986 4.3968599,-5.4613511 3.9801435,-5.5108183 3.5617217,-5.5588 3.1415753,-5.6052958 2.7196852,-5.6503055 2.2960321,-5.6938286 1.8705969,-5.7358649 1.4433605,-5.776414 1.0143035,-5.8154756 0.583407,-5.8530493 0.1506517,-5.8891349 -0.066429,-5.9066196 -0.2839816,-5.9237321 -0.5020085,-5.9404724 -0.7205121,-5.9568404 -0.9394947,-5.9728362 -1.1589589,-5.9884596 -1.3789069,-6.0037107 -1.5993411,-6.0185894 -1.8202641,-6.0330956 -2.0416781,-6.0472293 -2.2635855,-6.0609905 -2.4859889,-6.0743792 -2.7088904,-6.0873952 -2.9322926,-6.1000386 -3.1561979,-6.1123093 -3.3806086,-6.1242073 -3.6055272,-6.1357325 -3.830956,-6.1468848 -4.0568974,-6.1576644 -4.2833539,-6.168071 -4.5103278,-6.1781047 -4.7378215,-6.1877654 -4.9658374,-6.1970531 -5.194378,-6.2059678 -5.4234455,-6.2145093 -5.6530425,-6.2226777 -5.8831713,-6.2304729 -6.1138343,-6.2378949 -6.3450339,-6.2449437 -6.5767725,-6.2516191 -7.0415028,-6.2638344 -7.5068657,-6.2745023 -7.9727161,-6.2836387 -8.4389859,-6.2912626 -8.9056075,-6.2973935 -9.3725129,-6.3020505 -9.8396343,-6.305253 -10.3069037,-6.3070202 -10.7742533,-6.3073715 -11.2416152,-6.306326 -11.7089215,-6.3039031 -12.1761044,-6.300122 -12.643096,-6.295002 -13.1098285,-6.2885624 -13.5762338,-6.2808224 -14.0422442,-6.2718014 -14.5077919,-6.2615186 -14.9728088,-6.2499932 -15.4372272,-6.2372446 -15.9009791,-6.2232921 -16.3639968,-6.2081548 -16.8262122,-6.1918521 -17.2875576,-6.1744032 -17.7479651,-6.1558275 -18.2073667,-6.1361442 -18.6656947,-6.1153725 -19.1228812,-6.0935318 -19.5788582,-6.0706413 -20.0335579,-6.0467203 -20.4869124,-6.0217881 -20.9388538,-5.9958639 -21.3893144,-5.968967 -21.8382261,-5.9411167 -22.2855212,-5.9123323 -22.7311317,-5.882633 -23.1749897,-5.8520382 -23.6170275,-5.820567 -24.0571771,-5.7882388 -24.4953707,-5.7550728 -24.9315403,-5.7210884 -25.3656181,-5.6863047 -25.7975363,-5.6507411 -26.2272269,-5.6144168 -26.4412156,-5.5959754 -26.6546221,-5.5773511z" transform="matrix(1,0,0,-1,26.6546221,6.437763)" fill="rgb(0,0,0)" shaper:cutDepth="0.01905" stroke-linecap="round" stroke-linejoin="round" /><path d="M25.456377,1.2968949 a0.245745,0.245745 0 1,1 0.49149,0 a0.245745,0.245745 0 1,1 -0.49149,0z" transform="matrix(1,0,0,-1,26.6546221,6.437763)" fill="rgb(255,255,255)" stroke="rgb(0,0,0)" stroke-width="0.0010cm" stroke-linecap="round" stroke-linejoin="round" shaper:cutDepth="0.01905" /><path d="M25.456377,5.1069051 a0.245745,0.245745 0 1,1 0.49149,0 a0.245745,0.245745 0 1,1 -0.49149,0z" transform="matrix(1,0,0,-1,26.6546221,6.437763)" fill="rgb(255,255,255)" stroke="rgb(0,0,0)" stroke-width="0.0010cm" stroke-linecap="round" stroke-linejoin="round" shaper:cutDepth="0.01905" /></svg>