%TF.GenerationSoftware,KiCad,Pcbnew,9.0.2*%
%TF.CreationDate,2026-05-26T05:17:10+03:00*%
%TF.ProjectId,ABSIS_Mega,41425349-535f-44d6-9567-612e6b696361,2*%
%TF.SameCoordinates,Original*%
%TF.FileFunction,Soldermask,Top*%
%TF.FilePolarity,Negative*%
%FSLAX46Y46*%
G04 Gerber Fmt 4.6, Leading zero omitted, Abs format (unit mm)*
G04 Created by KiCad (PCBNEW 9.0.2) date 2026-05-26 05:17:10*
%MOMM*%
%LPD*%
G01*
G04 APERTURE LIST*
G04 Aperture macros list*
%AMRoundRect*
0 Rectangle with rounded corners*
0 $1 Rounding radius*
0 $2 $3 $4 $5 $6 $7 $8 $9 X,Y pos of 4 corners*
0 Add a 4 corners polygon primitive as box body*
4,1,4,$2,$3,$4,$5,$6,$7,$8,$9,$2,$3,0*
0 Add four circle primitives for the rounded corners*
1,1,$1+$1,$2,$3*
1,1,$1+$1,$4,$5*
1,1,$1+$1,$6,$7*
1,1,$1+$1,$8,$9*
0 Add four rect primitives between the rounded corners*
20,1,$1+$1,$2,$3,$4,$5,0*
20,1,$1+$1,$4,$5,$6,$7,0*
20,1,$1+$1,$6,$7,$8,$9,0*
20,1,$1+$1,$8,$9,$2,$3,0*%
G04 Aperture macros list end*
%ADD10RoundRect,0.250000X0.262500X0.450000X-0.262500X0.450000X-0.262500X-0.450000X0.262500X-0.450000X0*%
%ADD11R,1.700000X1.700000*%
%ADD12O,1.700000X1.700000*%
%ADD13C,3.200000*%
%ADD14RoundRect,0.250001X1.599999X-1.099999X1.599999X1.099999X-1.599999X1.099999X-1.599999X-1.099999X0*%
%ADD15O,3.700000X2.700000*%
%ADD16C,1.500000*%
%ADD17RoundRect,0.250000X-0.262500X-0.450000X0.262500X-0.450000X0.262500X0.450000X-0.262500X0.450000X0*%
%ADD18R,1.250000X0.600000*%
%ADD19R,1.528000X0.650000*%
%ADD20R,2.200000X3.150000*%
%ADD21RoundRect,0.250000X0.250000X0.475000X-0.250000X0.475000X-0.250000X-0.475000X0.250000X-0.475000X0*%
G04 APERTURE END LIST*
D10*
%TO.C,R1*%
X118510500Y-99980000D03*
X116685500Y-99980000D03*
%TD*%
D11*
%TO.C,J5*%
X191135000Y-103949500D03*
D12*
X191135000Y-106489500D03*
X188595000Y-103949500D03*
X188595000Y-106489500D03*
X186055000Y-103949500D03*
X186055000Y-106489500D03*
X183515000Y-103949500D03*
X183515000Y-106489500D03*
X180975000Y-103949500D03*
X180975000Y-106489500D03*
X178435000Y-103949500D03*
X178435000Y-106489500D03*
X175895000Y-103949500D03*
X175895000Y-106489500D03*
X173355000Y-103949500D03*
X173355000Y-106489500D03*
X170815000Y-103949500D03*
X170815000Y-106489500D03*
X168275000Y-103949500D03*
X168275000Y-106489500D03*
%TD*%
D11*
%TO.C,J6*%
X191897000Y-81153000D03*
D12*
X191897000Y-83693000D03*
X189357000Y-81153000D03*
X189357000Y-83693000D03*
X186817000Y-81153000D03*
X186817000Y-83693000D03*
X184277000Y-81153000D03*
X184277000Y-83693000D03*
X181737000Y-81153000D03*
X181737000Y-83693000D03*
X179197000Y-81153000D03*
X179197000Y-83693000D03*
X176657000Y-81153000D03*
X176657000Y-83693000D03*
X174117000Y-81153000D03*
X174117000Y-83693000D03*
X171577000Y-81153000D03*
X171577000Y-83693000D03*
X169037000Y-81153000D03*
X169037000Y-83693000D03*
%TD*%
D11*
%TO.C,J7*%
X127628000Y-109530000D03*
D12*
X130168000Y-109530000D03*
X127628000Y-112070000D03*
X130168000Y-112070000D03*
%TD*%
D13*
%TO.C,J1*%
X111878000Y-90606000D03*
X111878000Y-73206000D03*
D14*
X116078000Y-86106000D03*
D15*
X116078000Y-81906000D03*
X116078000Y-77706000D03*
X121578000Y-86106000D03*
X121578000Y-81906000D03*
X121578000Y-77706000D03*
%TD*%
D13*
%TO.C,J2*%
X111878000Y-116641000D03*
X111878000Y-99241000D03*
D14*
X116078000Y-112141000D03*
D15*
X116078000Y-107941000D03*
X116078000Y-103741000D03*
X121578000Y-112141000D03*
X121578000Y-107941000D03*
X121578000Y-103741000D03*
%TD*%
D11*
%TO.C,J3*%
X133858000Y-83566000D03*
D12*
X133858000Y-81026000D03*
X136398000Y-83566000D03*
X136398000Y-81026000D03*
X138938000Y-83566000D03*
X138938000Y-81026000D03*
X141478000Y-83566000D03*
X141478000Y-81026000D03*
X144018000Y-83566000D03*
X144018000Y-81026000D03*
X146558000Y-83566000D03*
X146558000Y-81026000D03*
X149098000Y-83566000D03*
X149098000Y-81026000D03*
X151638000Y-83566000D03*
X151638000Y-81026000D03*
X154178000Y-83566000D03*
X154178000Y-81026000D03*
X156718000Y-83566000D03*
X156718000Y-81026000D03*
X159258000Y-83566000D03*
X159258000Y-81026000D03*
%TD*%
D11*
%TO.C,J4*%
X136398000Y-106426000D03*
D12*
X136398000Y-103886000D03*
X138938000Y-106426000D03*
X138938000Y-103886000D03*
X141478000Y-106426000D03*
X141478000Y-103886000D03*
X144018000Y-106426000D03*
X144018000Y-103886000D03*
X146558000Y-106426000D03*
X146558000Y-103886000D03*
X149098000Y-106426000D03*
X149098000Y-103886000D03*
X151638000Y-106426000D03*
X151638000Y-103886000D03*
X154178000Y-106426000D03*
X154178000Y-103886000D03*
X156718000Y-106426000D03*
X156718000Y-103886000D03*
X159258000Y-106426000D03*
X159258000Y-103886000D03*
%TD*%
D16*
%TO.C,TP2*%
X127178000Y-117820000D03*
%TD*%
%TO.C,TP3*%
X123258000Y-117840000D03*
%TD*%
%TO.C,TP4*%
X125625166Y-98392926D03*
%TD*%
%TO.C,TP5*%
X129778000Y-81300000D03*
%TD*%
%TO.C,TP6*%
X125555166Y-91902926D03*
%TD*%
D11*
%TO.C,JP1*%
X132334000Y-99822000D03*
D12*
X129794000Y-99822000D03*
%TD*%
D16*
%TO.C,TP1*%
X127838000Y-74560000D03*
%TD*%
D10*
%TO.C,R7*%
X118097666Y-91382926D03*
X116272666Y-91382926D03*
%TD*%
D17*
%TO.C,R5*%
X123762666Y-96132926D03*
X125587666Y-96132926D03*
%TD*%
D18*
%TO.C,D1*%
X129315166Y-96142926D03*
X129315166Y-94242926D03*
X127315166Y-95192926D03*
%TD*%
D17*
%TO.C,R4*%
X123762666Y-94182926D03*
X125587666Y-94182926D03*
%TD*%
D19*
%TO.C,IC2*%
X116504166Y-93257926D03*
X116504166Y-94527926D03*
X116504166Y-95797926D03*
X116504166Y-97067926D03*
X121926166Y-97067926D03*
X121926166Y-95797926D03*
X121926166Y-94527926D03*
X121926166Y-93257926D03*
%TD*%
D20*
%TO.C,D2*%
X135918000Y-114260000D03*
X142918000Y-114260000D03*
%TD*%
D21*
%TO.C,C2*%
X122708000Y-91350000D03*
X120808000Y-91350000D03*
%TD*%
D11*
%TO.C,J14*%
X197358000Y-114046000D03*
D12*
X199898000Y-114046000D03*
X197358000Y-111506000D03*
X199898000Y-111506000D03*
X197358000Y-108966000D03*
X199898000Y-108966000D03*
X197358000Y-106426000D03*
X199898000Y-106426000D03*
X197358000Y-103886000D03*
X199898000Y-103886000D03*
X197358000Y-101346000D03*
X199898000Y-101346000D03*
X197358000Y-98806000D03*
X199898000Y-98806000D03*
X197358000Y-96266000D03*
X199898000Y-96266000D03*
X197358000Y-93726000D03*
X199898000Y-93726000D03*
X197358000Y-91186000D03*
X199898000Y-91186000D03*
X197358000Y-88646000D03*
X199898000Y-88646000D03*
X197358000Y-86106000D03*
X199898000Y-86106000D03*
X197358000Y-83566000D03*
X199898000Y-83566000D03*
X197358000Y-81026000D03*
X199898000Y-81026000D03*
X197358000Y-78486000D03*
X199898000Y-78486000D03*
X197358000Y-75946000D03*
X199898000Y-75946000D03*
X197358000Y-73406000D03*
X199898000Y-73406000D03*
X197358000Y-70866000D03*
X199898000Y-70866000D03*
%TD*%
D11*
%TO.C,J8*%
X131318000Y-119126000D03*
D12*
X133858000Y-119126000D03*
X136398000Y-119126000D03*
X138938000Y-119126000D03*
X141478000Y-119126000D03*
X144018000Y-119126000D03*
X146558000Y-119126000D03*
X149098000Y-119126000D03*
%TD*%
D11*
%TO.C,J10*%
X154178000Y-119126000D03*
D12*
X156718000Y-119126000D03*
X159258000Y-119126000D03*
X161798000Y-119126000D03*
X164338000Y-119126000D03*
X166878000Y-119126000D03*
X169418000Y-119126000D03*
X171958000Y-119126000D03*
%TD*%
D11*
%TO.C,J12*%
X177038000Y-119126000D03*
D12*
X179578000Y-119126000D03*
X182118000Y-119126000D03*
X184658000Y-119126000D03*
X187198000Y-119126000D03*
X189738000Y-119126000D03*
X192278000Y-119126000D03*
X194818000Y-119126000D03*
%TD*%
D11*
%TO.C,J9*%
X122174000Y-70866000D03*
D12*
X124714000Y-70866000D03*
X127254000Y-70866000D03*
X129794000Y-70866000D03*
X132334000Y-70866000D03*
X134874000Y-70866000D03*
X137414000Y-70866000D03*
X139954000Y-70866000D03*
X142494000Y-70866000D03*
X145034000Y-70866000D03*
%TD*%
D11*
%TO.C,J11*%
X149098000Y-70866000D03*
D12*
X151638000Y-70866000D03*
X154178000Y-70866000D03*
X156718000Y-70866000D03*
X159258000Y-70866000D03*
X161798000Y-70866000D03*
X164338000Y-70866000D03*
X166878000Y-70866000D03*
%TD*%
D11*
%TO.C,J13*%
X171958000Y-70866000D03*
D12*
X174498000Y-70866000D03*
X177038000Y-70866000D03*
X179578000Y-70866000D03*
X182118000Y-70866000D03*
X184658000Y-70866000D03*
X187198000Y-70866000D03*
X189738000Y-70866000D03*
%TD*%
D13*
%TO.C,MH4*%
X199898000Y-119126000D03*
%TD*%
%TO.C,MH1*%
X118618000Y-70866000D03*
%TD*%
%TO.C,MH3*%
X117348000Y-119126000D03*
%TD*%
%TO.C,MH2*%
X193548000Y-70866000D03*
%TD*%
M02*
