<?xml version="1.0" encoding="utf-8"?>
<!-- Generator: Fusion 360, Shaper Origin Export Add-In, Version 1.6.10  -->
<svg xmlns="http://www.w3.org/2000/svg" xmlns:xlink="http://www.w3.org/1999/xlink" xmlns:shaper="http://www.shapertools.com/namespaces/shaper" shaper:fusionaddin="version:1.6.10" width="0.8255cm" height="0.8255cm" version="1.1" x="0cm" y="0cm" viewBox="0 0 0.8255 0.8255" enable-background="new 0 0 0.8255 0.8255" xml:space="preserve"><path d="M-0.4127502,0.0000007 a0.41275,0.41275 0 1,1 0.8255,0 a0.41275,0.41275 0 1,1 -0.8255,0z" transform="matrix(1,0,0,-1,0.4127502,0.4127507)" fill="rgb(0,0,0)" shaper:cutDepth="0.0015875" stroke-linecap="round" stroke-linejoin="round" /><path d="M-0.3619502,0.0000007 a0.36195,0.36195 0 1,0 0.7239,0 a0.36195,0.36195 0 1,0 -0.7239,0z M-0.31115,0 a0.31115,0.31115 0 1,1 0.6223,0 a0.31115,0.31115 0 1,1 -0.6223,0z" transform="matrix(1,0,0,-1,0.4127502,0.4127507)" fill="rgb(104,104,104)" fill-rule="nonzero" shaper:cutDepth="0.0000762" stroke-linecap="round" stroke-linejoin="round" /></svg>