<?xml version="1.0" encoding="utf-8"?>
<!-- Generator: Fusion 360, Shaper Origin Export Add-In, Version 1.6.10  -->
<svg xmlns="http://www.w3.org/2000/svg" xmlns:xlink="http://www.w3.org/1999/xlink" xmlns:shaper="http://www.shapertools.com/namespaces/shaper" shaper:fusionaddin="version:1.6.10" width="0.8922cm" height="0.8922cm" version="1.1" x="0cm" y="0cm" viewBox="0 0 0.8922 0.8922" enable-background="new 0 0 0.8922 0.8922" xml:space="preserve"><path d="M-0.5495456,0.4706748 L-0.5495456,-0.3707252 A0.0254,0.0254 180 0,1 -0.5241456,-0.3961252 L0.3172544,-0.3961252 A0.0254,0.0254 270 0,1 0.3426544,-0.3707252 L0.3426544,0.4706748 A0.0254,0.0254 0 0,1 0.3172544,0.4960748 L-0.5241456,0.4960748 A0.0254,0.0254 90 0,1 -0.5495456,0.4706748z" transform="matrix(1,0,0,-1,0.5495456,0.4960748)" fill="rgb(0,0,0)" shaper:cutDepth="0.0015875" stroke-linecap="round" stroke-linejoin="round" /><path d="M-0.423152,-0.0517381 L-0.4378703,-0.1004279 -0.4378703,-0.1004279 -0.4411029,-0.1067604 -0.4434705,-0.1094134 -0.4463386,-0.1115606 -0.4495434,-0.1131408 -0.4529555,-0.1141317 -0.4600394,-0.1147967 -0.4600394,-0.1147967 -0.4686312,-0.113439 -0.4726276,-0.1117064 -0.4762633,-0.1093069 -0.4794386,-0.10632 -0.4818228,-0.1026791 -0.4833451,-0.0985966 -0.4838506,-0.0942698 -0.4838506,-0.0942698 -0.4833181,-0.0892702 -0.4820984,-0.0843832 -0.4793382,-0.0746995 -0.382776,0.2467235 -0.382776,0.2467235 -0.3797666,0.2536915 -0.377454,0.256714 -0.374605,0.2592348 -0.3713138,0.2611403 -0.3676794,0.2622749 -0.3601143,0.2628987 -0.3601143,0.2628987 -0.3556461,0.2627547 -0.3512562,0.2619163 -0.3471671,0.2601196 -0.343656,0.2573554 -0.3409472,0.2538108 -0.3388355,0.2498609 -0.3357512,0.2414832 -0.2381022,-0.0785872 -0.2381022,-0.0785872 -0.2361169,-0.0857539 -0.2352285,-0.0931203 -0.2352285,-0.0931203 -0.2356837,-0.0976047 -0.2370334,-0.1019025 -0.2393111,-0.105789 -0.2424194,-0.1090529 -0.2460994,-0.111649 -0.2502422,-0.1134295 -0.2546259,-0.1144619 -0.2591218,-0.1147967 -0.2591218,-0.1147967 -0.2668449,-0.1140602 -0.2704932,-0.1127232 -0.2737918,-0.1106699 -0.2766166,-0.1080057 -0.2788329,-0.1048093 -0.2818352,-0.0976628 -0.2960236,-0.0517381 -0.423152,-0.0517381z M-0.408396,-0.0051008 L-0.3107796,-0.0051008 -0.3595878,0.158326 -0.408396,-0.0051008z" transform="matrix(1,0,0,-1,0.5495456,0.4960748)" fill="rgb(104,104,104)" fill-rule="nonzero" shaper:cutDepth="0.0000762" stroke-linecap="round" stroke-linejoin="round" /><path d="M-0.1447458,-0.1009205 L0.0215194,0.2435242 0.0215194,0.2435242 0.026611,0.2549031 0.0288142,0.2607426 0.0300615,0.2668399 0.0300615,0.2668399 0.0296086,0.271385 0.0283304,0.2757673 0.0262453,0.2798304 0.0233287,0.2833435 0.0198156,0.2862601 0.0157524,0.2883452 0.0113702,0.2896235 0.006825,0.2900764 0.006825,0.2900764 0.0003833,0.2894861 -0.0055631,0.2869629 -0.0103033,0.2825749 -0.0136198,0.2770212 -0.182794,-0.0731617 -0.1839291,-0.0759994 -0.1839291,-0.0759994 -0.1882067,-0.0837348 -0.1894591,-0.0879609 -0.1895766,-0.0923813 -0.1895766,-0.0923813 -0.1891603,-0.0969089 -0.188049,-0.1013171 -0.185967,-0.1053563 -0.1830063,-0.1088044 -0.1793339,-0.1114831 -0.1752183,-0.1134097 -0.1707906,-0.1144422 -0.166258,-0.1147967 -0.166258,-0.1147967 -0.1594108,-0.1142331 -0.1560923,-0.1132921 -0.1530387,-0.1117071 -0.1504283,-0.109479 -0.1482509,-0.1068224 -0.1447458,-0.1009205z" transform="matrix(1,0,0,-1,0.5495456,0.4960748)" fill="rgb(104,104,104)" fill-rule="nonzero" shaper:cutDepth="0.0000762" stroke-linecap="round" stroke-linejoin="round" /><path d="M0.1195589,-0.085238 L0.1195589,-0.085238 0.1188831,-0.09606 0.1177691,-0.1013646 0.1156896,-0.1063778 0.1121913,-0.1104935 0.1074848,-0.113175 0.1022301,-0.1145019 0.0968151,-0.1147967 0.0968151,-0.1147967 0.0917057,-0.114611 0.0867022,-0.113568 0.082105,-0.1113398 0.0782482,-0.1079935 0.0755388,-0.1036643 0.0739359,-0.0988065 0.0731486,-0.093759 0.0729713,-0.088648 0.0730039,0.2286598 0.0730039,0.2286598 0.0729299,0.235958 0.0736207,0.24322 0.075646,0.2502291 0.0774138,0.2534324 0.0797915,0.2562056 0.0827302,0.2583801 0.0860169,0.2599807 0.09305,0.2619395 0.1002917,0.2627937 0.1075911,0.2628986 0.1810576,0.2628987 0.1810576,0.2628987 0.1912397,0.2623562 0.2013159,0.260802 0.2112004,0.2583028 0.2207196,0.2546501 0.2297692,0.2499559 0.238186,0.2442031 0.2458507,0.2374802 0.25275,0.229972 0.2587951,0.2217646 0.2639484,0.2129629 0.2681445,0.2036759 0.2714679,0.194031 0.2740096,0.1841618 0.2757155,0.1741047 0.2767681,0.1639656 0.2772057,0.1537776 0.2772057,0.1537776 0.2764924,0.1402655 0.2746055,0.1268684 0.2712849,0.113751 0.2665499,0.1010775 0.2604894,0.0889792 0.2530381,0.0776892 0.2442248,0.0674216 0.2340992,0.0584505 0.2340992,0.0584505 0.2280598,0.0542949 0.2216428,0.0507495 0.2148908,0.0478966 0.2078763,0.0457633 0.1934122,0.0434296 0.1787668,0.04285 0.1195094,0.04285 0.1195589,-0.085238z M0.1195094,0.2162614 L0.1195094,0.0894872 0.1822071,0.0894872 0.1822071,0.0894872 0.1877945,0.0898349 0.1932989,0.0908594 0.1986321,0.0925545 0.2036769,0.094983 0.2083811,0.098016 0.2126637,0.101622 0.216419,0.1057713 0.2196802,0.1103287 0.2247966,0.1202846 0.2281377,0.130979 0.2299601,0.1420229 0.2306506,0.1532028 0.2306506,0.1532028 0.23003,0.164689 0.2281824,0.176036 0.2246301,0.1869754 0.2221339,0.1921633 0.2191004,0.1970593 0.2155021,0.2015453 0.2113667,0.2055378 0.2067612,0.2089802 0.2017066,0.2117148 0.196356,0.2138192 0.19078,0.2152184 0.1793365,0.2162614 0.1195094,0.2162614z" transform="matrix(1,0,0,-1,0.5495456,0.4960748)" fill="rgb(104,104,104)" fill-rule="nonzero" shaper:cutDepth="0.0000762" stroke-linecap="round" stroke-linejoin="round" /></svg>