<?xml version="1.0" encoding="utf-8"?>
<!-- Generator: Fusion 360, Shaper Origin Export Add-In, Version 1.6.10  -->
<svg xmlns="http://www.w3.org/2000/svg" xmlns:xlink="http://www.w3.org/1999/xlink" xmlns:shaper="http://www.shapertools.com/namespaces/shaper" shaper:fusionaddin="version:1.6.10" width="0.8922cm" height="0.8922cm" version="1.1" x="0cm" y="0cm" viewBox="0 0 0.8922 0.8922" enable-background="new 0 0 0.8922 0.8922" xml:space="preserve"><path d="M-0.4461,0.4207 L-0.4461,-0.4207 A0.0254,0.0254 180 0,1 -0.4207,-0.4461 L0.4207,-0.4461 A0.0254,0.0254 270 0,1 0.4461,-0.4207 L0.4461,0.4207 A0.0254,0.0254 0 0,1 0.4207,0.4461 L-0.4207,0.4461 A0.0254,0.0254 90 0,1 -0.4461,0.4207z" transform="matrix(1,0,0,-1,0.4461,0.4461)" fill="rgb(0,0,0)" shaper:cutDepth="0.0015875" stroke-linecap="round" stroke-linejoin="round" /><path d="M-0.0081287,-0.0002667 L-0.0081287,-0.0002667 0.0051376,-0.0011308 0.0182166,-0.0035216 0.0309666,-0.0072871 0.0432688,-0.0123298 0.0550643,-0.0184642 0.0662293,-0.0256824 0.0765187,-0.0341019 0.0858847,-0.0435375 0.0858847,-0.0435375 0.0967069,-0.0599324 0.1054531,-0.0775308 0.1123441,-0.0959289 0.1175369,-0.1148798 0.121316,-0.1341638 0.1238716,-0.1536464 0.1252369,-0.173249 0.125789,-0.1928914 0.125789,-0.1928914 0.1252739,-0.2137622 0.1237327,-0.2345788 0.1208207,-0.2552549 0.1162344,-0.2756161 0.1098402,-0.2954933 0.105877,-0.3051494 0.101298,-0.3145321 0.0961111,-0.3236016 0.090291,-0.3322729 0.0768528,-0.3482392 0.0768528,-0.3482392 0.0678751,-0.355779 0.0582597,-0.3624873 0.0480386,-0.3682305 0.0374071,-0.3731732 0.0264126,-0.3772455 0.0151121,-0.3803664 0.0035666,-0.3824088 -0.0081287,-0.3832171 -0.0081287,-0.3832171 -0.0206017,-0.3822353 -0.0329033,-0.3799472 -0.0448938,-0.3763712 -0.056523,-0.3717528 -0.0677389,-0.3662058 -0.0784748,-0.3597788 -0.0884647,-0.3522447 -0.0976261,-0.3437233 -0.0976261,-0.3437233 -0.1098159,-0.3272826 -0.1149632,-0.3184268 -0.1195462,-0.3092618 -0.1272375,-0.2902913 -0.1329602,-0.2706328 -0.1369852,-0.250556 -0.1396743,-0.2302568 -0.1411014,-0.2098323 -0.1415537,-0.1893608 -0.1415537,-0.1893608 -0.1410855,-0.1719818 -0.1398323,-0.1546427 -0.1376193,-0.1373984 -0.1344502,-0.1203057 -0.1302987,-0.1034217 -0.124909,-0.0868977 -0.1182044,-0.0708539 -0.1098601,-0.0556073 -0.1098601,-0.0556073 -0.1007761,-0.0436404 -0.0902204,-0.0329486 -0.0784669,-0.0235901 -0.0656743,-0.0157103 -0.0521064,-0.0092539 -0.0378648,-0.0044725 -0.0231613,-0.0013786 -0.008179,-0.0002668 -0.0081287,-0.0002667z M-0.0610881,-0.0717826 L-0.0610881,-0.0717826 -0.0704924,-0.0839748 -0.0779247,-0.0974706 -0.0836487,-0.1117688 -0.0880263,-0.1265416 -0.0911804,-0.1416172 -0.0932888,-0.1568818 -0.0945185,-0.1722347 -0.0949165,-0.1876365 -0.0949165,-0.1876365 -0.0945408,-0.2042659 -0.0934639,-0.220861 -0.0914907,-0.2373797 -0.0883727,-0.2537141 -0.0838465,-0.2697217 -0.0777259,-0.2851796 -0.0739767,-0.2926119 -0.0697022,-0.2997544 -0.0593639,-0.3127687 -0.0593639,-0.3127687 -0.0541288,-0.3177595 -0.0484874,-0.3222864 -0.0359748,-0.3295273 -0.0293207,-0.3323634 -0.0224182,-0.3345205 -0.0153368,-0.3360012 -0.0081287,-0.3365799 -0.0081287,-0.3365799 -0.0002596,-0.3359095 0.0074669,-0.3342739 0.0149298,-0.3316856 0.0221056,-0.3283873 0.0289321,-0.3244129 0.0354101,-0.3198938 0.041478,-0.314838 0.0471298,-0.3093201 0.0471298,-0.3093201 0.0563135,-0.2974682 0.0635293,-0.2843044 0.0690967,-0.2703825 0.0731478,-0.255931 0.0760096,-0.2412057 0.0778438,-0.2263112 0.0788267,-0.2113414 0.0791518,-0.1963399 0.0791518,-0.1963399 0.0783497,-0.1725083 0.0757544,-0.1488055 0.0710825,-0.1254251 0.0677451,-0.1139793 0.0636368,-0.102783 0.0586329,-0.0919624 0.052635,-0.0816555 0.0455629,-0.0720589 0.0372372,-0.0635268 0.0276142,-0.0564918 0.0224136,-0.0535708 0.0169456,-0.0511978 0.0054407,-0.0480661 -0.0064212,-0.0469047 -0.0064212,-0.0469047 -0.0141074,-0.0474394 -0.0216961,-0.0487694 -0.0290741,-0.0509931 -0.0362211,-0.0538695 -0.0430294,-0.0574784 -0.0495153,-0.0616377 -0.0555614,-0.0664138 -0.0610881,-0.0717826z" transform="matrix(1,0,0,-1,0.4461,0.4461)" fill="rgb(104,104,104)" fill-rule="nonzero" shaper:cutDepth="0.0000762" stroke-linecap="round" stroke-linejoin="round" /></svg>