<?xml version="1.0" encoding="utf-8"?>
<!-- Generator: Fusion 360, Shaper Origin Export Add-In, Version 1.6.10  -->
<svg xmlns="http://www.w3.org/2000/svg" xmlns:xlink="http://www.w3.org/1999/xlink" xmlns:shaper="http://www.shapertools.com/namespaces/shaper" shaper:fusionaddin="version:1.6.10" width="0.8922cm" height="0.8922cm" version="1.1" x="0cm" y="0cm" viewBox="0 0 0.8922 0.8922" enable-background="new 0 0 0.8922 0.8922" xml:space="preserve"><path d="M-0.4461001,0.6434646 L-0.4461001,-0.1979354 A0.0254,0.0254 180 0,1 -0.4207001,-0.2233354 L0.4206999,-0.2233354 A0.0254,0.0254 270 0,1 0.4460999,-0.1979354 L0.4460999,0.6434646 A0.0254,0.0254 0 0,1 0.4206999,0.6688646 L-0.4207001,0.6688646 A0.0254,0.0254 90 0,1 -0.4461001,0.6434646z" transform="matrix(1,0,0,-1,0.4461001,0.6688646)" fill="rgb(0,0,0)" shaper:cutDepth="0.0015875" stroke-linecap="round" stroke-linejoin="round" /><path d="M-0.1258712,0.6089335 L-0.1258712,0.6089335 -0.118393,0.608446 -0.1110107,0.6071477 -0.1037954,0.6051249 -0.0968083,0.6024097 -0.090074,0.5991219 -0.0836726,0.595222 -0.0776038,0.5908249 -0.0719162,0.5859433 -0.0719162,0.5859433 -0.0653697,0.5788019 -0.0594775,0.5711062 -0.054299,0.5629206 -0.0497563,0.5543602 -0.0425499,0.5363796 -0.0374223,0.5176963 -0.0338575,0.4986496 -0.0316691,0.4793956 -0.0304953,0.4600518 -0.0301747,0.4406743 -0.0301747,0.4406743 -0.0304787,0.4221725 -0.0315948,0.4037037 -0.0336093,0.3853103 -0.0368827,0.3671006 -0.0416532,0.3492244 -0.0482466,0.3319383 -0.0523226,0.323625 -0.0569852,0.3156265 -0.0680366,0.3007935 -0.0680366,0.3007935 -0.0737406,0.2950769 -0.0799326,0.2898928 -0.0866579,0.2854225 -0.0937522,0.2815641 -0.1011721,0.2783743 -0.1088926,0.2760124 -0.1168112,0.2744198 -0.1248654,0.2738519 -0.1248654,0.2738519 -0.1338238,0.2745314 -0.1426069,0.2764431 -0.1511385,0.2792577 -0.1593249,0.2829664 -0.1671457,0.2873931 -0.1745638,0.292465 -0.1814266,0.2982667 -0.187801,0.3046013 -0.187801,0.3046013 -0.1935485,0.3119048 -0.1985638,0.3197288 -0.2028387,0.3279815 -0.2065523,0.3365018 -0.2123593,0.3541543 -0.2164804,0.3722804 -0.2194241,0.3906372 -0.2213558,0.4091275 -0.2223534,0.4276907 -0.2227173,0.4462781 -0.2227173,0.4462781 -0.2223194,0.4635055 -0.2211811,0.4806973 -0.2190967,0.4978043 -0.2159185,0.5147377 -0.2115032,0.5313956 -0.2056008,0.5475791 -0.1979083,0.5629999 -0.188232,0.5772502 -0.188232,0.5772502 -0.1821334,0.5838536 -0.1753989,0.5898061 -0.1680969,0.5950485 -0.160338,0.5995865 -0.1521801,0.6033612 -0.1436803,0.6062822 -0.1348945,0.6081833 -0.1259388,0.6089334 -0.1258712,0.6089335z M-0.0709822,0.442183 L-0.0709822,0.442183 -0.0718193,0.4676037 -0.0745953,0.4928825 -0.0769311,0.5053826 -0.0800971,0.5177001 -0.0842149,0.5297335 -0.0895899,0.5412562 -0.0895899,0.5412562 -0.0963123,0.5508883 -0.1046107,0.5591958 -0.1093633,0.5626528 -0.1145183,0.5654821 -0.1200707,0.567419 -0.1259014,0.5681234 -0.1259014,0.5681234 -0.1312417,0.5673567 -0.1364088,0.5658778 -0.1412961,0.5636288 -0.1459094,0.5608021 -0.1542844,0.5540248 -0.1612186,0.5457824 -0.1612186,0.5457824 -0.1673821,0.5341552 -0.171917,0.5217874 -0.1753373,0.5090745 -0.177889,0.4961543 -0.1797623,0.4831202 -0.1810053,0.4700099 -0.1819097,0.4436917 -0.1819097,0.4436917 -0.1809639,0.4155311 -0.1796978,0.4014989 -0.1777378,0.3875459 -0.1749596,0.3737335 -0.1711276,0.3601769 -0.165905,0.3470894 -0.158704,0.3349914 -0.158704,0.3349914 -0.1522834,0.3274847 -0.1448047,0.3210377 -0.1405808,0.3184756 -0.1360427,0.3165252 -0.1312851,0.3151854 -0.1263741,0.3146595 -0.1263741,0.3146595 -0.1208832,0.3153202 -0.1156067,0.3169855 -0.1059623,0.3223801 -0.0977006,0.3297225 -0.0910986,0.3385836 -0.0910986,0.3385836 -0.0850255,0.3504532 -0.0804574,0.3629926 -0.0770293,0.3758791 -0.0745583,0.3889917 -0.0728486,0.4022196 -0.0717618,0.4155179 -0.0709822,0.442183z" transform="matrix(1,0,0,-1,0.4461001,0.6688646)" fill="rgb(104,104,104)" fill-rule="nonzero" shaper:cutDepth="0.0000762" stroke-linecap="round" stroke-linejoin="round" /><path d="M0.1681873,0.5778968 L0.1681587,0.3775462 0.0597562,0.5917105 0.0597562,0.5917105 0.0565011,0.5970812 0.0519514,0.6013909 0.0462047,0.6039024 0.0399453,0.6043355 0.0399453,0.6043355 0.0360884,0.6040744 0.0323656,0.6030425 0.0289464,0.6012414 0.0260075,0.5987316 0.0260075,0.5987316 0.0226358,0.5946193 0.0214134,0.58943 0.0210502,0.5787589 0.0210218,0.3004871 0.0210218,0.3004871 0.0216344,0.2908645 0.0225998,0.2861439 0.0243936,0.2816643 0.0273772,0.277896 0.0314907,0.2753967 0.0361368,0.2741186 0.0409511,0.2738519 0.0409511,0.2738519 0.0454338,0.2741648 0.049796,0.2752369 0.0537493,0.2773665 0.0570019,0.2804602 0.0593131,0.2843103 0.0607338,0.2885747 0.0617859,0.2974887 0.0617426,0.501141 0.1696485,0.2854756 0.1696485,0.2854756 0.1730615,0.2805831 0.1775476,0.2766572 0.1830883,0.274461 0.1890221,0.2738519 0.1890221,0.2738519 0.1933768,0.2741049 0.1975968,0.2751987 0.2014162,0.2772976 0.2045002,0.2803744 0.2066347,0.2841752 0.2079736,0.2883288 0.2089229,0.2969858 0.2088795,0.5797013 0.2088795,0.5797013 0.2082517,0.5889669 0.2071233,0.5934786 0.2050648,0.597641 0.2018251,0.6009601 0.1976929,0.6030754 0.1931612,0.6040959 0.1885192,0.6043355 0.1885192,0.6043355 0.1836535,0.60415 0.1789312,0.6029773 0.1746882,0.6006162 0.1715774,0.5968799 0.169737,0.59238 0.1687385,0.5876089 0.1681873,0.5778968z" transform="matrix(1,0,0,-1,0.4461001,0.6688646)" fill="rgb(104,104,104)" fill-rule="nonzero" shaper:cutDepth="0.0000762" stroke-linecap="round" stroke-linejoin="round" /><path d="M-0.24542,0.2279335 L-0.24542,0.2279335 -0.2379418,0.227446 -0.2305595,0.2261477 -0.2233442,0.2241249 -0.2163571,0.2214097 -0.2096229,0.2181219 -0.2032214,0.214222 -0.1971526,0.2098249 -0.191465,0.2049433 -0.191465,0.2049433 -0.1849185,0.1978019 -0.1790263,0.1901062 -0.1738478,0.1819206 -0.1693051,0.1733602 -0.1620987,0.1553796 -0.1569712,0.1366963 -0.1534064,0.1176496 -0.1512179,0.0983956 -0.1500442,0.0790518 -0.1497235,0.0596743 -0.1497235,0.0596743 -0.1500275,0.0411725 -0.1511436,0.0227037 -0.1531581,0.0043103 -0.1564315,-0.0138994 -0.161202,-0.0317756 -0.1677954,-0.0490617 -0.1718714,-0.057375 -0.176534,-0.0653735 -0.1875854,-0.0802065 -0.1875854,-0.0802065 -0.1932894,-0.0859231 -0.1994814,-0.0911072 -0.2062067,-0.0955775 -0.2133011,-0.0994359 -0.2207209,-0.1026257 -0.2284414,-0.1049876 -0.2363601,-0.1065802 -0.2444142,-0.1071481 -0.2444142,-0.1071481 -0.2533726,-0.1064686 -0.2621557,-0.1045569 -0.2706873,-0.1017423 -0.2788738,-0.0980336 -0.2866945,-0.0936069 -0.2941126,-0.088535 -0.3009754,-0.0827333 -0.3073498,-0.0763987 -0.3073498,-0.0763987 -0.3130974,-0.0690952 -0.3181126,-0.0612712 -0.3223875,-0.0530185 -0.3261011,-0.0444982 -0.3319082,-0.0268457 -0.3360292,-0.0087196 -0.3389729,0.0096372 -0.3409046,0.0281275 -0.3419023,0.0466907 -0.3422661,0.0652781 -0.3422661,0.0652781 -0.3418682,0.0825055 -0.3407299,0.0996973 -0.3386455,0.1168043 -0.3354673,0.1337377 -0.331052,0.1503956 -0.3251497,0.1665791 -0.3174571,0.1819999 -0.3077808,0.1962502 -0.3077808,0.1962502 -0.3016822,0.2028536 -0.2949477,0.2088061 -0.2876458,0.2140485 -0.2798868,0.2185865 -0.2717289,0.2223612 -0.2632291,0.2252822 -0.2544433,0.2271833 -0.2454876,0.2279334 -0.24542,0.2279335z M-0.190531,0.061183 L-0.190531,0.061183 -0.1913681,0.0866037 -0.1941442,0.1118825 -0.1964799,0.1243826 -0.1996459,0.1367001 -0.2037637,0.1487335 -0.2091387,0.1602562 -0.2091387,0.1602562 -0.2158611,0.1698883 -0.2241595,0.1781958 -0.2289121,0.1816528 -0.2340671,0.1844821 -0.2396195,0.186419 -0.2454503,0.1871234 -0.2454503,0.1871234 -0.2507905,0.1863567 -0.2559577,0.1848778 -0.2608449,0.1826288 -0.2654582,0.1798021 -0.2738332,0.1730248 -0.2807674,0.1647824 -0.2807674,0.1647824 -0.2869309,0.1531552 -0.2914659,0.1407874 -0.2948861,0.1280745 -0.2974378,0.1151543 -0.2993111,0.1021202 -0.3005541,0.0890099 -0.3014586,0.0626917 -0.3014586,0.0626917 -0.3005127,0.0345311 -0.2992466,0.0204989 -0.2972866,0.0065459 -0.2945084,-0.0072665 -0.2906765,-0.0208231 -0.2854538,-0.0339106 -0.2782529,-0.0460086 -0.2782529,-0.0460086 -0.2718322,-0.0535153 -0.2643535,-0.0599623 -0.2601296,-0.0625244 -0.2555916,-0.0644748 -0.2508339,-0.0658146 -0.245923,-0.0663405 -0.245923,-0.0663405 -0.2404321,-0.0656798 -0.2351555,-0.0640145 -0.2255111,-0.0586199 -0.2172494,-0.0512775 -0.2106474,-0.0424164 -0.2106474,-0.0424164 -0.2045744,-0.0305468 -0.2000062,-0.0180074 -0.1965781,-0.0051209 -0.1941071,0.0079917 -0.1923975,0.0212196 -0.1913106,0.0345179 -0.190531,0.061183z" transform="matrix(1,0,0,-1,0.4461001,0.6688646)" fill="rgb(104,104,104)" fill-rule="nonzero" shaper:cutDepth="0.0000762" stroke-linecap="round" stroke-linejoin="round" /><path d="M-0.0577629,0.0991886 L0.027157,0.0991886 0.027157,0.0991886 0.0367938,0.0986132 0.0414882,0.0974416 0.0458604,0.0953922 0.0495086,0.0922259 0.0519526,0.0880656 0.053193,0.0833965 0.053452,0.0785693 0.053452,0.0785693 0.0531218,0.073662 0.0518175,0.0689234 0.0492234,0.0647538 0.0453248,0.0617868 0.0407447,0.0599707 0.0359383,0.0589613 0.0261184,0.058381 -0.0578062,0.058381 -0.0577629,-0.0803501 -0.0577629,-0.0803501 -0.0583729,-0.0900215 -0.0593945,-0.0947589 -0.0612312,-0.0992478 -0.0642562,-0.1030159 -0.0683774,-0.1055546 -0.0730405,-0.1068675 -0.0778793,-0.1071481 -0.0778793,-0.1071481 -0.0827474,-0.106801 -0.0874697,-0.1055808 -0.0916182,-0.1030184 -0.0947571,-0.0992958 -0.0967584,-0.0948431 -0.0978977,-0.0900967 -0.0985705,-0.0803639 -0.0985704,0.1956754 -0.0985704,0.1956754 -0.0983987,0.2014018 -0.0974926,0.207052 -0.0955697,0.212449 -0.0923164,0.2171524 -0.0877776,0.2206326 -0.0824378,0.2226927 -0.0767625,0.2234464 -0.0710362,0.2233354 0.0634383,0.2233355 0.0634383,0.2233355 0.0723843,0.2223117 0.0767027,0.2209899 0.0806119,0.2187655 0.0838719,0.2156474 0.0861205,0.2117463 0.0873938,0.2074232 0.0877935,0.2029317 0.0877935,0.2029317 0.0874774,0.1983929 0.0862787,0.1940077 0.0840733,0.1900349 0.0807959,0.1868857 0.0767971,0.1847251 0.0724474,0.1833823 0.0634064,0.1825278 -0.0577629,0.1825278 -0.0577629,0.0991886z" transform="matrix(1,0,0,-1,0.4461001,0.6688646)" fill="rgb(104,104,104)" fill-rule="nonzero" shaper:cutDepth="0.0000762" stroke-linecap="round" stroke-linejoin="round" /><path d="M0.1813347,0.0991886 L0.2662546,0.0991886 0.2662546,0.0991886 0.2758914,0.0986132 0.2805858,0.0974416 0.2849581,0.0953922 0.2886062,0.0922259 0.2910503,0.0880656 0.2922907,0.0833965 0.2925496,0.0785693 0.2925496,0.0785693 0.2922195,0.073662 0.2909151,0.0689234 0.2883211,0.0647538 0.2844224,0.0617868 0.2798424,0.0599707 0.275036,0.0589613 0.265216,0.058381 0.1812914,0.058381 0.1813347,-0.0803501 0.1813347,-0.0803501 0.1807247,-0.0900215 0.1797031,-0.0947589 0.1778664,-0.0992478 0.1748414,-0.1030159 0.1707203,-0.1055546 0.1660571,-0.1068675 0.1612184,-0.1071481 0.1612184,-0.1071481 0.1563502,-0.106801 0.151628,-0.1055808 0.1474795,-0.1030184 0.1443406,-0.0992958 0.1423393,-0.0948431 0.1412,-0.0900967 0.1405271,-0.0803639 0.1405272,0.1956754 0.1405272,0.1956754 0.1406989,0.2014018 0.141605,0.207052 0.1435279,0.212449 0.1467812,0.2171524 0.1513201,0.2206326 0.1566598,0.2226927 0.1623351,0.2234464 0.1680615,0.2233354 0.302536,0.2233355 0.302536,0.2233355 0.3114819,0.2223117 0.3158003,0.2209899 0.3197096,0.2187655 0.3229695,0.2156474 0.3252181,0.2117463 0.3264914,0.2074232 0.3268912,0.2029317 0.3268912,0.2029317 0.326575,0.1983929 0.3253764,0.1940077 0.323171,0.1900349 0.3198936,0.1868857 0.3158948,0.1847251 0.311545,0.1833823 0.302504,0.1825278 0.1813347,0.1825278 0.1813347,0.0991886z" transform="matrix(1,0,0,-1,0.4461001,0.6688646)" fill="rgb(104,104,104)" fill-rule="nonzero" shaper:cutDepth="0.0000762" stroke-linecap="round" stroke-linejoin="round" /></svg>