<?xml version="1.0" encoding="utf-8"?>
<!-- Generator: Fusion 360, Shaper Origin Export Add-In, Version 1.6.10  -->
<svg xmlns="http://www.w3.org/2000/svg" xmlns:xlink="http://www.w3.org/1999/xlink" xmlns:shaper="http://www.shapertools.com/namespaces/shaper" shaper:fusionaddin="version:1.6.10" width="0.8922cm" height="0.8922cm" version="1.1" x="0cm" y="0cm" viewBox="0 0 0.8922 0.8922" enable-background="new 0 0 0.8922 0.8922" xml:space="preserve"><path d="M-0.6627874,0.3122828 L-0.6627874,-0.5291172 A0.0254,0.0254 180 0,1 -0.6373874,-0.5545172 L0.2040126,-0.5545172 A0.0254,0.0254 270 0,1 0.2294126,-0.5291172 L0.2294126,0.3122828 A0.0254,0.0254 0 0,1 0.2040126,0.3376828 L-0.6373874,0.3376828 A0.0254,0.0254 90 0,1 -0.6627874,0.3122828z" transform="matrix(1,0,0,-1,0.6627874,0.3376828)" fill="rgb(0,0,0)" shaper:cutDepth="0.0015875" stroke-linecap="round" stroke-linejoin="round" /><path d="M0.0385033,-0.2731888 L0.0385033,-0.2731888 0.0438592,-0.2730503 0.0490634,-0.2717933 0.0536823,-0.2691022 0.0572013,-0.2650628 0.0595279,-0.2602475 0.060848,-0.2550479 0.0614935,-0.244369 0.0614935,0.0578693 0.1176797,0.0578693 0.1176797,0.0578693 0.1280689,0.0588224 0.1331093,0.0601818 0.1378288,0.0624196 0.1417805,0.0658132 0.1446434,0.0701772 0.1461562,0.0751691 0.1466392,0.080367 0.1466392,0.080367 0.1462137,0.0855972 0.1449098,0.0906769 0.1424447,0.0953047 0.1387995,0.0990725 0.1342898,0.1017445 0.1293039,0.1033873 0.1188868,0.1045066 -0.0396274,0.1045066 -0.0396274,0.1045066 -0.0504458,0.1037674 -0.0557172,0.1024686 -0.0607402,0.1003953 -0.0650386,0.0971093 -0.0681754,0.0926785 -0.0697849,0.0875024 -0.0702073,0.0820912 -0.0702073,0.0820912 -0.0697716,0.0767903 -0.0684265,0.0716478 -0.0658821,0.0669844 -0.0621022,0.0632431 -0.0575221,0.0605598 -0.0524444,0.0589583 -0.0418801,0.0578695 0.0148562,0.0578693 0.0148562,-0.2415775 0.0148562,-0.2415775 0.0151766,-0.2539214 0.01628,-0.260001 0.0193722,-0.2653065 0.0193722,-0.2653065 0.0233906,-0.2687877 0.0280766,-0.2713018 0.0332078,-0.2726901 0.0385033,-0.2731888z" transform="matrix(1,0,0,-1,0.6627874,0.3376828)" fill="rgb(104,104,104)" fill-rule="nonzero" shaper:cutDepth="0.0000762" stroke-linecap="round" stroke-linejoin="round" /><path d="M-0.1352366,0.1045066 L-0.1352366,0.1045066 -0.1407974,0.1042947 -0.1461942,0.1029545 -0.1510434,0.100256 -0.1545986,0.095986 -0.156702,0.0908432 -0.157843,0.0853906 -0.1584731,0.074291 -0.1585057,-0.1546811 -0.2823943,0.0900781 -0.2823943,0.0900781 -0.2861143,0.0962161 -0.291314,0.1011414 -0.2944756,0.1028906 -0.2978816,0.1040118 -0.3050353,0.1045066 -0.3050353,0.1045066 -0.3094432,0.1042082 -0.3136978,0.1030289 -0.3176055,0.1009706 -0.3209642,0.0981022 -0.3209642,0.0981022 -0.3231315,0.0959345 -0.3248176,0.0934025 -0.3262146,0.0874719 -0.3266296,0.0752763 -0.3266622,-0.2427487 -0.3266622,-0.2427487 -0.3259621,-0.2537458 -0.3248587,-0.2591409 -0.3228086,-0.2642604 -0.3193989,-0.2685671 -0.3146977,-0.2714234 -0.3093878,-0.2728841 -0.3038858,-0.2731888 -0.3038858,-0.2731888 -0.2987627,-0.2728313 -0.2937773,-0.271606 -0.2892593,-0.2691721 -0.2855421,-0.2656365 -0.2829006,-0.2612364 -0.281277,-0.2563628 -0.2800746,-0.2461754 -0.2801241,-0.0134299 -0.1568031,-0.2599047 -0.1568031,-0.2599047 -0.1529025,-0.2654961 -0.1477755,-0.2699828 -0.1414433,-0.2724928 -0.1346618,-0.2731888 -0.1346618,-0.2731888 -0.129685,-0.2728997 -0.1248621,-0.2716497 -0.1204971,-0.2692509 -0.1169726,-0.2657345 -0.1145332,-0.2613908 -0.1130029,-0.2566439 -0.111918,-0.2467501 -0.1119676,0.0763533 -0.1119676,0.0763533 -0.1126851,0.0869426 -0.1139748,0.0920988 -0.1163273,0.0968558 -0.1200298,0.1006491 -0.1247523,0.1030665 -0.1299314,0.1042328 -0.1352366,0.1045066z" transform="matrix(1,0,0,-1,0.6627874,0.3376828)" fill="rgb(104,104,104)" fill-rule="nonzero" shaper:cutDepth="0.0000762" stroke-linecap="round" stroke-linejoin="round" /><path d="M-0.438214,-0.0373755 L-0.5376139,-0.0373755 -0.5376139,0.0578693 -0.4002698,0.0578693 -0.4002698,0.0578693 -0.3893227,0.0584997 -0.38402,0.0599065 -0.3790876,0.0623165 -0.3750049,0.0659682 -0.3722519,0.0707083 -0.3709356,0.0760325 -0.3707215,0.0815165 -0.3707215,0.0815165 -0.370926,0.0867514 -0.3721129,0.0918498 -0.3745938,0.0964522 -0.3784302,0.1000196 -0.3830586,0.1024499 -0.3881184,0.1038306 -0.398556,0.1045066 -0.55464,0.1045066 -0.55464,0.1045066 -0.5609418,0.1043791 -0.5671867,0.103563 -0.5732037,0.1016939 -0.5759767,0.1001759 -0.5783969,0.0981549 -0.581743,0.0928263 -0.583506,0.0867833 -0.5841208,0.0805101 -0.5841194,0.0742089 -0.5841519,-0.2422829 -0.5841519,-0.2422829 -0.5838411,-0.2550229 -0.5823183,-0.2612061 -0.579106,-0.2666997 -0.5766996,-0.2687942 -0.5739165,-0.2703716 -0.5678369,-0.2722825 -0.5615103,-0.2730602 -0.5551354,-0.2731888 -0.4002698,-0.2731888 -0.4002698,-0.2731888 -0.3890823,-0.2725217 -0.3836152,-0.2712749 -0.378433,-0.2691251 -0.373996,-0.2657159 -0.3708391,-0.2610889 -0.3692461,-0.255718 -0.3689972,-0.2501165 -0.3689972,-0.2501165 -0.3692036,-0.2447011 -0.3704773,-0.239437 -0.3731465,-0.2347267 -0.3770849,-0.2310178 -0.3819351,-0.2286082 -0.3871808,-0.2272332 -0.3979812,-0.2265516 -0.5376139,-0.2265516 -0.5376139,-0.0840127 -0.4399974,-0.0840127 -0.4399974,-0.0840127 -0.4291869,-0.0833095 -0.4239286,-0.081992 -0.4190027,-0.079726 -0.4148795,-0.0762212 -0.4120656,-0.0715958 -0.4106863,-0.066357 -0.4104616,-0.0609404 -0.4104616,-0.0609404 -0.410734,-0.055693 -0.411964,-0.0505898 -0.4143611,-0.0459228 -0.4181214,-0.0422591 -0.4227281,-0.0397475 -0.4277615,-0.03823 -0.438214,-0.0373755z" transform="matrix(1,0,0,-1,0.6627874,0.3376828)" fill="rgb(104,104,104)" fill-rule="nonzero" shaper:cutDepth="0.0000762" stroke-linecap="round" stroke-linejoin="round" /></svg>