<?xml version="1.0" encoding="utf-8"?>
<!-- Generator: Fusion 360, Shaper Origin Export Add-In, Version 1.6.10  -->
<svg xmlns="http://www.w3.org/2000/svg" xmlns:xlink="http://www.w3.org/1999/xlink" xmlns:shaper="http://www.shapertools.com/namespaces/shaper" shaper:fusionaddin="version:1.6.10" width="14.44625cm" height="5.55625cm" version="1.1" x="0cm" y="0cm" viewBox="0 0 14.44625 5.55625" enable-background="new 0 0 14.44625 5.55625" xml:space="preserve"><path d="M3.4528125,-1.4605 A0.15875,0.15875 270 0,0 3.2940625,-1.30175 L3.2940625,2.778125 -2.0907375,2.778125 A0.15875,0.15875 90 0,1 -2.2494875,2.619375 L-2.2494875,1.42875 A0.635,0.635 0 0,0 -2.8844875,0.79375 L-3.1353125,0.79375 A0.15875,0.15875 90 0,1 -3.2940625,0.635 L-3.2940625,-0.635 A0.15875,0.15875 180 0,1 -3.1353125,-0.79375 L-2.8844875,-0.79375 A0.635,0.635 90 0,0 -2.2494875,-1.42875 L-2.2494875,-2.619375 A0.15875,0.15875 180 0,1 -2.0907375,-2.778125 L9.9488625,-2.778125 A0.15875,0.15875 270 0,1 10.1076125,-2.619375 L10.1076125,-1.42875 A0.635,0.635 180 0,0 10.7426125,-0.79375 L10.9934375,-0.79375 A0.15875,0.15875 270 0,1 11.1521875,-0.635 L11.1521875,0.635 A0.15875,0.15875 0 0,1 10.9934375,0.79375 L10.7426125,0.79375 A0.635,0.635 270 0,0 10.1076125,1.42875 L10.1076125,2.619375 A0.15875,0.15875 0 0,1 9.9488625,2.778125 L5.1990625,2.778125 5.1990625,-1.30175 A0.15875,0.15875 0 0,0 5.0403125,-1.4605 L3.4528125,-1.4605z" transform="matrix(1,0,0,-1,3.2940625,2.778125)" fill="rgb(0,0,0)" shaper:cutDepth="0.0047625" stroke-linecap="round" stroke-linejoin="round" /><path d="M-1.6837025,-1.9177 a0.215265,0.215265 0 1,1 0.43053,0 a0.215265,0.215265 0 1,1 -0.43053,0z" transform="matrix(1,0,0,-1,3.2940625,2.778125)" fill="rgb(255,255,255)" stroke="rgb(0,0,0)" stroke-width="0.0010cm" stroke-linecap="round" stroke-linejoin="round" shaper:cutDepth="0.0047625" /><path d="M-1.6837025,1.9177 a0.215265,0.215265 0 1,1 0.43053,0 a0.215265,0.215265 0 1,1 -0.43053,0z" transform="matrix(1,0,0,-1,3.2940625,2.778125)" fill="rgb(255,255,255)" stroke="rgb(0,0,0)" stroke-width="0.0010cm" stroke-linecap="round" stroke-linejoin="round" shaper:cutDepth="0.0047625" /><path d="M9.1112975,1.9177 a0.215265,0.215265 0 1,1 0.43053,0 a0.215265,0.215265 0 1,1 -0.43053,0z" transform="matrix(1,0,0,-1,3.2940625,2.778125)" fill="rgb(255,255,255)" stroke="rgb(0,0,0)" stroke-width="0.0010cm" stroke-linecap="round" stroke-linejoin="round" shaper:cutDepth="0.0047625" /><path d="M9.1112975,-1.9177 a0.215265,0.215265 0 1,1 0.43053,0 a0.215265,0.215265 0 1,1 -0.43053,0z" transform="matrix(1,0,0,-1,3.2940625,2.778125)" fill="rgb(255,255,255)" stroke="rgb(0,0,0)" stroke-width="0.0010cm" stroke-linecap="round" stroke-linejoin="round" shaper:cutDepth="0.0047625" /><path d="M7.7390625,0 a0.9525,0.9525 0 1,1 1.905,0 a0.9525,0.9525 0 1,1 -1.905,0z" transform="matrix(1,0,0,-1,3.2940625,2.778125)" fill="rgb(255,255,255)" stroke="rgb(0,0,0)" stroke-width="0.0010cm" stroke-linecap="round" stroke-linejoin="round" shaper:cutDepth="0.0047625" /><path d="M-0.6746875,-0.4445 a0.47625,0.47625 0 1,1 0.9525,0 a0.47625,0.47625 0 1,1 -0.9525,0z" transform="matrix(1,0,0,-1,3.2940625,2.778125)" fill="rgb(255,255,255)" stroke="rgb(0,0,0)" stroke-width="0.0010cm" stroke-linecap="round" stroke-linejoin="round" shaper:cutDepth="0.0047625" /></svg>