<?xml version="1.0" encoding="utf-8"?>
<!-- Generator: Fusion 360, Shaper Origin Export Add-In, Version 1.6.10  -->
<svg xmlns="http://www.w3.org/2000/svg" xmlns:xlink="http://www.w3.org/1999/xlink" xmlns:shaper="http://www.shapertools.com/namespaces/shaper" shaper:fusionaddin="version:1.6.10" width="14.605cm" height="5.715cm" version="1.1" x="0cm" y="0cm" viewBox="0 0 14.605 5.715" enable-background="new 0 0 14.605 5.715" xml:space="preserve"><path d="M-11.1125,-2.8575 L-11.1125,2.8575 3.4925,2.8575 3.4925,-2.8575 -11.1125,-2.8575z" transform="matrix(1,0,0,-1,11.1125,2.8575)" fill="rgb(0,0,0)" shaper:cutDepth="0.003175" stroke-linecap="round" stroke-linejoin="round" /><path d="M-9.8722889,0.4677018 L-10.0064636,0.4677018 A0.15875,0.15875 90 0,1 -10.1652136,0.3089518 L-10.1652136,-0.4667228 A0.15875,0.15875 0 0,0 -10.3239636,-0.6254728 L-10.6742873,-0.6254728 A0.15875,0.15875 270 0,0 -10.8330373,-0.4667228 L-10.8330373,0.5101068 A0.15875,0.15875 180 0,0 -10.6742873,0.6688568 L-10.1854062,0.6688568 A0.15875,0.15875 270 0,1 -10.0633726,0.7260717 L-10.0359677,0.7590092 A0.15875,0.15875 140.2386846 0,0 -9.9139341,0.8162242 L-9.8722889,0.8162242 A0.15875,0.15875 90 0,0 -9.7135389,0.6574742 L-9.7135389,0.6264518 A0.15875,0.15875 0 0,0 -9.8722889,0.4677018z" transform="matrix(1,0,0,-1,11.1125,2.8575)" fill="rgb(255,255,255)" stroke="rgb(0,0,0)" stroke-width="0.0010cm" stroke-linecap="round" stroke-linejoin="round" shaper:cutDepth="0.003175" /><path d="M-7.3331192,1.3194808 A0.15875,0.15875 90 0,1 -7.4918692,1.1607308 L-7.4918692,0.5302679 A0.15875,0.15875 180 0,1 -7.3331192,0.3715179 L-5.7046428,0.3715179 A0.2465804,0.2465804 270 0,1 -5.4580624,0.6180983 L-5.4580624,1.1607308 A0.15875,0.15875 0 0,1 -5.6168124,1.3194808 L-7.3331192,1.3194808z" transform="matrix(1,0,0,-1,11.1125,2.8575)" fill="rgb(255,255,255)" stroke="rgb(0,0,0)" stroke-width="0.0010cm" stroke-linecap="round" stroke-linejoin="round" shaper:cutDepth="0.003175" /><path d="M-8.1988946,2.3601105 A0.15875,0.15875 90 0,1 -8.3576446,2.2013605 L-8.3576446,1.5693767 A0.15875,0.15875 180 0,1 -8.1988946,1.4106267 L-6.5719391,1.4106267 A0.2481013,0.2481013 270 0,1 -6.3238378,1.658728 L-6.3238378,2.2013605 A0.15875,0.15875 0 0,1 -6.4825878,2.3601105 L-8.1988946,2.3601105z" transform="matrix(1,0,0,-1,11.1125,2.8575)" fill="rgb(255,255,255)" stroke="rgb(0,0,0)" stroke-width="0.0010cm" stroke-linecap="round" stroke-linejoin="round" shaper:cutDepth="0.003175" /><path d="M2.0618948,0.9164819 A0.15875,0.15875 0 0,1 1.9031448,1.0752319 L1.5791045,1.0752319 A0.15875,0.15875 90 0,1 1.4203545,0.9164819 L1.4203545,0.503143 A0.15875,0.15875 180 0,1 1.5791045,0.344393 L1.9031448,0.344393 A0.15875,0.15875 270 0,1 2.0618948,0.503143 L2.0618948,0.9164819z" transform="matrix(1,0,0,-1,11.1125,2.8575)" fill="rgb(255,255,255)" stroke="rgb(0,0,0)" stroke-width="0.0010cm" stroke-linecap="round" stroke-linejoin="round" shaper:cutDepth="0.003175" /><path d="M-0.8244356,0.1670859 A0.15875,0.15875 270 0,1 -0.6656856,0.3258359 L-0.6656856,0.8815886 A0.15875,0.15875 0 0,1 -0.8244356,1.0403386 L-1.1674602,1.0403386 A0.15875,0.15875 90 0,1 -1.3262102,0.8815886 L-1.3262102,0.3258359 A0.15875,0.15875 180 0,1 -1.1674602,0.1670859 L-0.8244356,0.1670859z" transform="matrix(1,0,0,-1,11.1125,2.8575)" fill="rgb(255,255,255)" stroke="rgb(0,0,0)" stroke-width="0.0010cm" stroke-linecap="round" stroke-linejoin="round" shaper:cutDepth="0.003175" /><path d="M-6.9203792,-2.2726907 A0.15875,0.15875 259.6315446 0,1 -6.8918078,-2.275283 L-5.5996012,-2.275283 A0.15875,0.15875 270 0,1 -5.4408512,-2.116533 L-5.4408512,-1.5921737 A0.15875,0.15875 0 0,1 -5.5996012,-1.4334237 L-6.2702094,-1.4334237 A0.15875,0.15875 90 0,1 -6.3207297,-1.441677 L-7.1125715,-1.7074905 A0.15875,0.15875 108.5563942 0,1 -7.2208012,-1.8579872 L-7.2208012,-2.0853843 A0.15875,0.15875 180 0,1 -7.0906227,-2.2415421 L-6.9203792,-2.2726907z" transform="matrix(1,0,0,-1,11.1125,2.8575)" fill="rgb(255,255,255)" stroke="rgb(0,0,0)" stroke-width="0.0010cm" stroke-linecap="round" stroke-linejoin="round" shaper:cutDepth="0.003175" /><path d="M-5.6508259,-1.1149963 A0.15875,0.15875 270 0,1 -5.4921085,-0.9594613 L-5.4817602,-0.4485879 A0.15875,0.15875 358.8395683 0,1 -5.6372626,-0.2866555 L-6.6568251,-0.2660031 A0.15875,0.15875 88.8395683 0,1 -6.8187576,-0.4215055 L-6.8295242,-0.9530313 A0.15875,0.15875 178.8395683 0,1 -6.6708068,-1.1149963 L-5.6508259,-1.1149963z" transform="matrix(1,0,0,-1,11.1125,2.8575)" fill="rgb(255,255,255)" stroke="rgb(0,0,0)" stroke-width="0.0010cm" stroke-linecap="round" stroke-linejoin="round" shaper:cutDepth="0.003175" /><path d="M-9.4043012,-0.6481978 L-9.2390524,-0.8346277 A0.15875,0.15875 221.5533266 0,1 -9.1202536,-0.8880762 L-7.6235618,-0.8880762 A0.15875,0.15875 90 0,0 -7.4648118,-1.0468262 L-7.4648118,-1.3283103 A0.15875,0.15875 0 0,0 -7.6235618,-1.4870603 L-9.5231,-1.4870603 A0.15875,0.15875 270 0,0 -9.68185,-1.3283103 L-9.68185,-0.7534994 A0.15875,0.15875 180 0,0 -9.4043012,-0.6481978z" transform="matrix(1,0,0,-1,11.1125,2.8575)" fill="rgb(255,255,255)" stroke="rgb(0,0,0)" stroke-width="0.0010cm" stroke-linecap="round" stroke-linejoin="round" shaper:cutDepth="0.003175" /><path d="M0.4731546,1.5087333 L0.4731546,1.7647596 A0.15875,0.15875 0 0,1 0.3144046,1.9235096 L0.0050731,1.9235096 A0.15875,0.15875 270 0,0 -0.1536769,2.0822596 L-0.1536769,2.3874717 A0.15875,0.15875 180 0,0 0.0050731,2.5462217 L0.9486166,2.5462217 A0.15875,0.15875 90 0,0 1.1073666,2.3874717 L1.1073666,1.8368751 A0.15875,0.15875 180 0,1 1.2661166,1.6781251 L1.3149567,1.6781251 A0.15875,0.15875 90 0,0 1.4737067,1.5193751 L1.4737067,1.3044543 A0.15875,0.15875 0 0,0 1.3149567,1.1457043 L0.9050754,1.1457043 A0.15875,0.15875 270 0,0 0.810004,1.1773206 L0.5368332,1.3815995 A0.15875,0.15875 233.2106165 0,0 0.4731546,1.5087333z" transform="matrix(1,0,0,-1,11.1125,2.8575)" fill="rgb(255,255,255)" stroke="rgb(0,0,0)" stroke-width="0.0010cm" stroke-linecap="round" stroke-linejoin="round" shaper:cutDepth="0.003175" /><path d="M-0.6571675,2.126918 L-0.6571675,1.8143283 A0.15875,0.15875 180 0,1 -0.4984175,1.6555783 L-0.3146023,1.6555783 A0.15875,0.15875 90 0,0 -0.1558523,1.4968283 L-0.1558523,1.2924011 A0.15875,0.15875 0 0,0 -0.3146023,1.1336511 L-0.7580437,1.1336511 A0.15875,0.15875 270 0,0 -0.8710603,1.1809165 L-1.5344838,1.8534569 A0.15875,0.15875 224.6090041 0,0 -1.5800031,1.9731832 L-1.5715825,2.1351597 A0.15875,0.15875 177.0240803 0,0 -1.4130466,2.285668 L-0.8159175,2.285668 A0.15875,0.15875 90 0,0 -0.6571675,2.126918z" transform="matrix(1,0,0,-1,11.1125,2.8575)" fill="rgb(255,255,255)" stroke="rgb(0,0,0)" stroke-width="0.0010cm" stroke-linecap="round" stroke-linejoin="round" shaper:cutDepth="0.003175" /><path d="M-1.1674602,-1.4334237 L-1.1674602,-0.8880762 A0.15875,0.15875 0 0,1 -1.2042251,-0.7864829 L-1.4142386,-0.5343155 A0.15875,0.15875 219.7886785 0,0 -1.2922536,-0.2739722 L-0.6347485,-0.2739722 A0.15875,0.15875 90 0,0 -0.4759985,-0.4327222 L-0.4759985,-0.6925152 A0.15875,0.15875 180 0,1 -0.3172485,-0.8512652 L0.9705053,-0.8512652 A0.15875,0.15875 270 0,1 1.1292553,-0.6925152 L1.1292553,-0.287149 A0.15875,0.15875 180 0,0 1.2566885,-0.1315186 L1.3189914,-0.1189817 A0.15875,0.15875 101.3774536 0,0 1.4453381,-0.1474472 L1.7792286,-0.3969624 A0.15875,0.15875 53.2293696 0,0 1.8336132,-0.5777639 L1.507195,-1.4870603 A0.15875,0.15875 340.2529368 0,0 1.3577806,-1.5921737 L-1.0087102,-1.5921737 A0.15875,0.15875 270 0,0 -1.1674602,-1.4334237z" transform="matrix(1,0,0,-1,11.1125,2.8575)" fill="rgb(255,255,255)" stroke="rgb(0,0,0)" stroke-width="0.0010cm" stroke-linecap="round" stroke-linejoin="round" shaper:cutDepth="0.003175" /><path d="M-3.072765,1.9685 a0.215265,0.215265 0 1,1 0.43053,0 a0.215265,0.215265 0 1,1 -0.43053,0z" transform="matrix(1,0,0,-1,11.1125,2.8575)" fill="rgb(255,255,255)" stroke="rgb(0,0,0)" stroke-width="0.0010cm" stroke-linecap="round" stroke-linejoin="round" shaper:cutDepth="0.003175" /><path d="M-2.2335638,-1.7918287 a0.215265,0.215265 0 1,1 0.43053,0 a0.215265,0.215265 0 1,1 -0.43053,0z" transform="matrix(1,0,0,-1,11.1125,2.8575)" fill="rgb(255,255,255)" stroke="rgb(0,0,0)" stroke-width="0.0010cm" stroke-linecap="round" stroke-linejoin="round" shaper:cutDepth="0.003175" /><path d="M1.689735,-0.0005 a0.215265,0.215265 0 1,1 0.43053,0 a0.215265,0.215265 0 1,1 -0.43053,0z" transform="matrix(1,0,0,-1,11.1125,2.8575)" fill="rgb(255,255,255)" stroke="rgb(0,0,0)" stroke-width="0.0010cm" stroke-linecap="round" stroke-linejoin="round" shaper:cutDepth="0.003175" /><path d="M-0.617765,1.9685 a0.215265,0.215265 0 1,1 0.43053,0 a0.215265,0.215265 0 1,1 -0.43053,0z" transform="matrix(1,0,0,-1,11.1125,2.8575)" fill="rgb(255,255,255)" stroke="rgb(0,0,0)" stroke-width="0.0010cm" stroke-linecap="round" stroke-linejoin="round" shaper:cutDepth="0.003175" /><path d="M-4.28625,0.9525 a0.15875,0.15875 0 1,1 0.3175,0 a0.15875,0.15875 0 1,1 -0.3175,0z" transform="matrix(1,0,0,-1,11.1125,2.8575)" fill="rgb(255,255,255)" stroke="rgb(0,0,0)" stroke-width="0.0010cm" stroke-linecap="round" stroke-linejoin="round" shaper:cutDepth="0.003175" /><path d="M-0.15875,0.4445 a0.47625,0.47625 0 1,1 0.9525,0 a0.47625,0.47625 0 1,1 -0.9525,0z" transform="matrix(1,0,0,-1,11.1125,2.8575)" fill="rgb(255,255,255)" stroke="rgb(0,0,0)" stroke-width="0.0010cm" stroke-linecap="round" stroke-linejoin="round" shaper:cutDepth="0.003175" /><path d="M-4.7625,-0 a0.635,0.635 0 1,1 1.27,0 a0.635,0.635 0 1,1 -1.27,0z" transform="matrix(1,0,0,-1,11.1125,2.8575)" fill="rgb(255,255,255)" stroke="rgb(0,0,0)" stroke-width="0.0010cm" stroke-linecap="round" stroke-linejoin="round" shaper:cutDepth="0.003175" /><path d="M-9.2075,-0 a0.635,0.635 0 1,1 1.27,0 a0.635,0.635 0 1,1 -1.27,0z" transform="matrix(1,0,0,-1,11.1125,2.8575)" fill="rgb(255,255,255)" stroke="rgb(0,0,0)" stroke-width="0.0010cm" stroke-linecap="round" stroke-linejoin="round" shaper:cutDepth="0.003175" /><path d="M2.788285,-1.42875 a0.215265,0.215265 0 1,1 0.43053,0 a0.215265,0.215265 0 1,1 -0.43053,0z" transform="matrix(1,0,0,-1,11.1125,2.8575)" fill="rgb(255,255,255)" stroke="rgb(0,0,0)" stroke-width="0.0010cm" stroke-linecap="round" stroke-linejoin="round" shaper:cutDepth="0.003175" /><path d="M-10.838815,-1.42875 a0.215265,0.215265 0 1,1 0.43053,0 a0.215265,0.215265 0 1,1 -0.43053,0z" transform="matrix(1,0,0,-1,11.1125,2.8575)" fill="rgb(255,255,255)" stroke="rgb(0,0,0)" stroke-width="0.0010cm" stroke-linecap="round" stroke-linejoin="round" shaper:cutDepth="0.003175" /><path d="M-10.838815,1.42875 a0.215265,0.215265 0 1,1 0.43053,0 a0.215265,0.215265 0 1,1 -0.43053,0z" transform="matrix(1,0,0,-1,11.1125,2.8575)" fill="rgb(255,255,255)" stroke="rgb(0,0,0)" stroke-width="0.0010cm" stroke-linecap="round" stroke-linejoin="round" shaper:cutDepth="0.003175" /><path d="M2.788285,1.42875 a0.215265,0.215265 0 1,1 0.43053,0 a0.215265,0.215265 0 1,1 -0.43053,0z" transform="matrix(1,0,0,-1,11.1125,2.8575)" fill="rgb(255,255,255)" stroke="rgb(0,0,0)" stroke-width="0.0010cm" stroke-linecap="round" stroke-linejoin="round" shaper:cutDepth="0.003175" /><path d="M1.372235,-1.9177 a0.215265,0.215265 0 1,1 0.43053,0 a0.215265,0.215265 0 1,1 -0.43053,0z" transform="matrix(1,0,0,-1,11.1125,2.8575)" fill="rgb(255,255,255)" stroke="rgb(0,0,0)" stroke-width="0.0010cm" stroke-linecap="round" stroke-linejoin="round" shaper:cutDepth="0.003175" /><path d="M1.372235,1.9177 a0.215265,0.215265 0 1,1 0.43053,0 a0.215265,0.215265 0 1,1 -0.43053,0z" transform="matrix(1,0,0,-1,11.1125,2.8575)" fill="rgb(255,255,255)" stroke="rgb(0,0,0)" stroke-width="0.0010cm" stroke-linecap="round" stroke-linejoin="round" shaper:cutDepth="0.003175" /><path d="M-9.422765,1.9177 a0.215265,0.215265 0 1,1 0.43053,0 a0.215265,0.215265 0 1,1 -0.43053,0z" transform="matrix(1,0,0,-1,11.1125,2.8575)" fill="rgb(255,255,255)" stroke="rgb(0,0,0)" stroke-width="0.0010cm" stroke-linecap="round" stroke-linejoin="round" shaper:cutDepth="0.003175" /><path d="M-9.422765,-1.9177 a0.215265,0.215265 0 1,1 0.43053,0 a0.215265,0.215265 0 1,1 -0.43053,0z" transform="matrix(1,0,0,-1,11.1125,2.8575)" fill="rgb(255,255,255)" stroke="rgb(0,0,0)" stroke-width="0.0010cm" stroke-linecap="round" stroke-linejoin="round" shaper:cutDepth="0.003175" /></svg>