<?xml version="1.0" encoding="utf-8"?>
<!-- Generator: Fusion 360, Shaper Origin Export Add-In, Version 1.6.10  -->
<svg xmlns="http://www.w3.org/2000/svg" xmlns:xlink="http://www.w3.org/1999/xlink" xmlns:shaper="http://www.shapertools.com/namespaces/shaper" shaper:fusionaddin="version:1.6.10" width="3.81cm" height="3.81cm" version="1.1" x="0cm" y="0cm" viewBox="0 0 3.81 3.81" enable-background="new 0 0 3.81 3.81" xml:space="preserve"><path d="M1.905,-1.8288 L1.905,1.8288 A0.0762,0.0762 0 0,1 1.8288,1.905 L-1.8288,1.905 A0.0762,0.0762 90 0,1 -1.905,1.8288 L-1.905,-1.8288 A0.0762,0.0762 180 0,1 -1.8288,-1.905 L1.8288,-1.905 A0.0762,0.0762 270 0,1 1.905,-1.8288z" transform="matrix(1,0,0,-1,1.905,1.905)" fill="rgb(0,0,0)" shaper:cutDepth="0.0015875" stroke-linecap="round" stroke-linejoin="round" /><path d="M-0.4059885,-0.3083246 L-0.406706,-0.744688 -0.4924309,-0.7445471 -0.6705452,-0.4528484 -0.6710243,-0.7442534 -0.7528798,-0.7441188 -0.7521623,-0.3077554 -0.6637585,-0.3079007 -0.4883118,-0.592749 -0.4878439,-0.30819 -0.4059885,-0.3083246z" transform="matrix(1,0,0,-1,1.905,1.905)" fill="rgb(104,104,104)" fill-rule="nonzero" shaper:cutDepth="0.0000762" stroke-linecap="round" stroke-linejoin="round" /><path d="M0.8610019,-0.932828 L0.7115018,-1.1602895 0.8462945,-1.3691685 0.7433057,-1.3689991 0.6560253,-1.2286593 0.5700699,-1.3687143 0.4679739,-1.3685464 0.6040535,-1.1568386 0.455297,-0.9321609 0.5615601,-0.9323356 0.6580501,-1.0834062 0.7553341,-0.9326542 0.8610019,-0.932828z" transform="matrix(1,0,0,-1,1.905,1.905)" fill="rgb(104,104,104)" fill-rule="nonzero" shaper:cutDepth="0.0000762" stroke-linecap="round" stroke-linejoin="round" /><path d="M-0.4707104,-0.9306383 L-0.4714279,-1.3670018 -0.6568674,-1.3666969 -0.6568674,-1.3666969 -0.6826294,-1.3664004 -0.7082184,-1.364794 -0.7208942,-1.3630918 -0.7334803,-1.3607097 -0.7584977,-1.3547723 -0.7584977,-1.3547723 -0.7735991,-1.3472506 -0.7807312,-1.342981 -0.7873609,-1.3381009 -0.7933855,-1.3324855 -0.7989215,-1.3262763 -0.8091791,-1.3128682 -0.8091791,-1.3128682 -0.8173567,-1.2966306 -0.8208488,-1.2883454 -0.8236249,-1.2798607 -0.8255468,-1.2711379 -0.8267838,-1.2622241 -0.8281162,-1.2440784 -0.8281162,-1.2440784 -0.8261361,-1.221885 -0.8242701,-1.2111087 -0.8213529,-1.2007166 -0.8171101,-1.1908092 -0.8117378,-1.1813149 -0.7991101,-1.1630146 -0.7991101,-1.1630146 -0.78009,-1.1476301 -0.7701121,-1.1409067 -0.7595749,-1.135342 -0.7484191,-1.1310588 -0.7367858,-1.1277646 -0.7127235,-1.1228242 -0.7127235,-1.1228242 -0.7254157,-1.1148154 -0.7376268,-1.1061932 -0.7489995,-1.0965022 -0.7598418,-1.086135 -0.7598418,-1.086135 -0.7734612,-1.0692006 -0.7863793,-1.0517627 -0.8098804,-1.0152104 -0.8630207,-0.9299933 -0.7576508,-0.9301665 -0.6941082,-1.0252235 -0.6941082,-1.0252235 -0.6719406,-1.0580665 -0.6601132,-1.0739416 -0.6477794,-1.0894446 -0.6477794,-1.0894446 -0.6418996,-1.0950791 -0.6356333,-1.1001438 -0.6286908,-1.1042115 -0.6213181,-1.1076452 -0.6213181,-1.1076452 -0.6103873,-1.1101194 -0.5993596,-1.1118254 -0.5769754,-1.1126295 -0.559116,-1.1126588 -0.5588165,-0.9304934 -0.4707104,-0.9306383z M-0.5592306,-1.1823103 L-0.6244171,-1.1822031 -0.6244171,-1.1822031 -0.6443362,-1.1820422 -0.6641987,-1.1825578 -0.6839499,-1.1844047 -0.7036025,-1.1874307 -0.7036025,-1.1874307 -0.7108427,-1.1906219 -0.7175124,-1.194576 -0.7232184,-1.1998185 -0.7283382,-1.2058448 -0.7283382,-1.2058448 -0.7323252,-1.2135323 -0.7353205,-1.2215014 -0.7367635,-1.2299112 -0.7373217,-1.2385722 -0.7373217,-1.2385722 -0.7366186,-1.2482256 -0.73475,-1.2574823 -0.7308383,-1.2660438 -0.7256226,-1.2741614 -0.7256226,-1.2741614 -0.7184202,-1.2805073 -0.7106007,-1.2856881 -0.7018096,-1.2890345 -0.6924625,-1.2913312 -0.6924625,-1.2913312 -0.6603382,-1.2927961 -0.6281711,-1.2929252 -0.5594126,-1.2930383 -0.5592306,-1.1823103z" transform="matrix(1,0,0,-1,1.905,1.905)" fill="rgb(104,104,104)" fill-rule="nonzero" shaper:cutDepth="0.0000762" stroke-linecap="round" stroke-linejoin="round" /><path d="M0.4754043,-0.4702107 L0.4752835,-0.5437318 0.285379,-0.5434195 0.2856649,-0.3695885 0.2856649,-0.3695885 0.304083,-0.3550614 0.3135968,-0.3483068 0.3234741,-0.3421593 0.3443158,-0.33168 0.3659606,-0.3225419 0.3659606,-0.3225419 0.3919274,-0.314074 0.4050198,-0.3104173 0.4182429,-0.3074531 0.4316276,-0.3053448 0.4451461,-0.3039453 0.4724061,-0.3023275 0.4724061,-0.3023275 0.5035474,-0.3042655 0.5189007,-0.3061107 0.533993,-0.3090072 0.5487551,-0.313235 0.5632338,-0.3186045 0.5917189,-0.3312475 0.5917189,-0.3312475 0.6152652,-0.3476771 0.6262769,-0.3565995 0.6363747,-0.3663709 0.6453598,-0.3771764 0.6534376,-0.3888247 0.6680814,-0.4135263 0.6680814,-0.4135263 0.6789875,-0.4415921 0.6836555,-0.455798 0.6873816,-0.4702114 0.6899746,-0.4848744 0.6916536,-0.4997387 0.6934886,-0.529803 0.6934886,-0.529803 0.6914821,-0.5613327 0.6896148,-0.5768884 0.6867106,-0.5921934 0.6825023,-0.6071828 0.6771877,-0.6219046 0.6647145,-0.650902 0.6647145,-0.650902 0.6481107,-0.6756541 0.6390651,-0.6872638 0.6291268,-0.6979538 0.6181059,-0.7075285 0.6062057,-0.7161972 0.5809396,-0.7320245 0.5809396,-0.7320245 0.5557551,-0.7417964 0.5429927,-0.7458922 0.5300266,-0.7490421 0.5168326,-0.7511338 0.5034621,-0.7524053 0.4764266,-0.7535816 0.4764266,-0.7535816 0.4427421,-0.7518483 0.4262136,-0.7498876 0.4100614,-0.746614 0.3944001,-0.7416285 0.3791914,-0.7350646 0.3495325,-0.7192912 0.3495325,-0.7192912 0.3288035,-0.6995227 0.31949,-0.6889793 0.3114379,-0.6776447 0.3048927,-0.665365 0.2995567,-0.6523269 0.2909003,-0.6249865 0.3784381,-0.6087593 0.3784381,-0.6087593 0.384116,-0.6234956 0.3874555,-0.630521 0.3913956,-0.6371349 0.396081,-0.6432385 0.4013866,-0.6489172 0.4130315,-0.6595667 0.4130315,-0.6595667 0.4278252,-0.667822 0.4354145,-0.6713156 0.4432344,-0.6740492 0.4513201,-0.6759072 0.4596144,-0.6770781 0.4765504,-0.6782746 0.4765504,-0.6782746 0.5022673,-0.6759034 0.5146709,-0.6736006 0.5265289,-0.6699572 0.5376965,-0.6646176 0.5482724,-0.6578243 0.5684375,-0.641814 0.5684375,-0.641814 0.5842852,-0.6171187 0.5908651,-0.6043186 0.5958426,-0.5909791 0.5990959,-0.577059 0.6010296,-0.5626947 0.6026977,-0.5332256 0.6026977,-0.5332256 0.6012103,-0.5018325 0.5993414,-0.4864921 0.5961223,-0.4715789 0.591133,-0.4572259 0.5844765,-0.4434006 0.5683612,-0.4166366 0.5683612,-0.4166366 0.5488118,-0.399892 0.5385079,-0.392731 0.527569,-0.3870237 0.5158714,-0.3830529 0.503565,-0.3804757 0.4779378,-0.3776437 0.4779378,-0.3776437 0.4637083,-0.3785319 0.4496708,-0.3804191 0.4359467,-0.3839377 0.4224071,-0.3884169 0.4224071,-0.3884169 0.4098062,-0.3938142 0.3975477,-0.3998303 0.3858825,-0.4069187 0.37459,-0.4146809 0.3744989,-0.4700448 0.4754043,-0.4702107z" transform="matrix(1,0,0,-1,1.905,1.905)" fill="rgb(104,104,104)" fill-rule="nonzero" shaper:cutDepth="0.0000762" stroke-linecap="round" stroke-linejoin="round" /><path d="M-0.3096448,-1.0913401 L-0.3950274,-1.0641129 -0.3950274,-1.0641129 -0.38458,-1.0338515 -0.3783922,-1.0193321 -0.3710474,-1.0055462 -0.3622123,-0.9927051 -0.3520519,-0.9807042 -0.3295175,-0.9581061 -0.3295175,-0.9581061 -0.3025873,-0.9427531 -0.2887546,-0.9362728 -0.2744814,-0.9312264 -0.2597032,-0.9278235 -0.2445296,-0.9257074 -0.2135235,-0.9236198 -0.2135235,-0.9236198 -0.1933076,-0.9254601 -0.1733906,-0.9280083 -0.154071,-0.9319722 -0.1447287,-0.9347062 -0.1356479,-0.9380596 -0.1268578,-0.942102 -0.1183387,-0.9467863 -0.1019585,-0.9577138 -0.0861976,-0.9701086 -0.0707464,-0.9832371 -0.0707464,-0.9832371 -0.0578386,-1.0014222 -0.045726,-1.0198911 -0.0352036,-1.0389278 -0.0307872,-1.0487478 -0.0270622,-1.0588146 -0.0240326,-1.0691296 -0.0216144,-1.0796628 -0.0182629,-1.1012595 -0.016309,-1.1233552 -0.015054,-1.1457003 -0.015054,-1.1457003 -0.0162785,-1.1688912 -0.0182132,-1.1918329 -0.0215681,-1.2142761 -0.024,-1.225233 -0.0270532,-1.2359718 -0.0308148,-1.2464621 -0.0352936,-1.2567006 -0.0460116,-1.2765599 -0.0583862,-1.2958379 -0.0715891,-1.3148252 -0.0715891,-1.3148252 -0.0876429,-1.3282607 -0.1040161,-1.3409229 -0.1210283,-1.3520385 -0.1298738,-1.3567747 -0.1389987,-1.3608348 -0.1484187,-1.3641803 -0.158102,-1.3668888 -0.1781077,-1.3707585 -0.1987151,-1.3731719 -0.2196233,-1.3748573 -0.2196233,-1.3748573 -0.237618,-1.3735658 -0.2553959,-1.3716966 -0.2727405,-1.3686723 -0.2894349,-1.3639152 -0.305306,-1.3569634 -0.3204705,-1.3481279 -0.3351636,-1.3380361 -0.349621,-1.3273161 -0.349621,-1.3273161 -0.3645639,-1.3093679 -0.3713461,-1.3000031 -0.3773035,-1.2901707 -0.3823417,-1.2798173 -0.3866687,-1.2690607 -0.3941373,-1.2468756 -0.3068899,-1.2261831 -0.3068899,-1.2261831 -0.3020159,-1.2415201 -0.2990478,-1.2488662 -0.2954422,-1.2558253 -0.291038,-1.2622996 -0.2859603,-1.268365 -0.2746824,-1.2798142 -0.2746824,-1.2798142 -0.2609864,-1.28836 -0.2539265,-1.2920036 -0.2466122,-1.2948922 -0.2389973,-1.2968882 -0.2311428,-1.298173 -0.2150346,-1.2995577 -0.2150346,-1.2995577 -0.1926084,-1.2970257 -0.1818557,-1.2947237 -0.1716554,-1.2911785 -0.1621398,-1.2860927 -0.1531929,-1.2797268 -0.1362474,-1.2648614 -0.1362474,-1.2648614 -0.1216162,-1.238755 -0.1156467,-1.2253028 -0.1112644,-1.2113802 -0.1084913,-1.1969807 -0.1069349,-1.1822207 -0.1058499,-1.1520995 -0.1058499,-1.1520995 -0.1066711,-1.1207844 -0.108096,-1.1054101 -0.1107383,-1.0903756 -0.1149949,-1.075792 -0.1208785,-1.0616626 -0.1354216,-1.0341788 -0.1354216,-1.0341788 -0.1519269,-1.0191993 -0.160665,-1.0127682 -0.1699857,-1.0076076 -0.1800113,-1.0039842 -0.1906083,-1.0016066 -0.2127543,-0.9989282 -0.2127543,-0.9989282 -0.2293172,-1.0005714 -0.2373539,-1.0020547 -0.2450968,-1.0043321 -0.2524768,-1.0075902 -0.2595565,-1.0116601 -0.2732153,-1.021153 -0.2732153,-1.021153 -0.2861572,-1.036633 -0.2919206,-1.0447543 -0.2968403,-1.0533304 -0.3008521,-1.0623959 -0.304169,-1.0718359 -0.3096448,-1.0913401z" transform="matrix(1,0,0,-1,1.905,1.905)" fill="rgb(104,104,104)" fill-rule="nonzero" shaper:cutDepth="0.0000762" stroke-linecap="round" stroke-linejoin="round" /><path d="M0.4096334,-1.3684505 L0.2486016,-1.3681857 0.2486016,-1.3681857 0.2276396,-1.3678878 0.2067788,-1.3666876 0.1861064,-1.3638054 0.1655693,-1.3597148 0.1655693,-1.3597148 0.1472784,-1.3526774 0.1384499,-1.3486418 0.1300019,-1.3439861 0.1220195,-1.3385712 0.1144188,-1.3325341 0.0998534,-1.3194231 0.0998534,-1.3194231 0.0868011,-1.3033074 0.0807382,-1.2949756 0.0752311,-1.2863152 0.0703835,-1.2772649 0.0660624,-1.2679033 0.0582978,-1.2486613 0.0582978,-1.2486613 0.0518226,-1.2232944 0.0491207,-1.2105339 0.0470592,-1.1976814 0.0448935,-1.1716951 0.04418,-1.1455 0.04418,-1.1455 0.0449904,-1.1218978 0.0471422,-1.0984989 0.051667,-1.0754598 0.0577271,-1.0526534 0.0577271,-1.0526534 0.0663463,-1.0314932 0.0711671,-1.0212278 0.0766013,-1.0113403 0.0828142,-1.0019322 0.0896983,-0.9929375 0.1045859,-0.9756374 0.1045859,-0.9756374 0.118649,-0.9644495 0.1259364,-0.9593043 0.1335304,-0.9546969 0.1496827,-0.9471732 0.1665555,-0.9409135 0.1665555,-0.9409135 0.1857994,-0.9365949 0.2051964,-0.9334965 0.2248157,-0.932171 0.2445566,-0.9318144 0.4103509,-0.932087 0.4096334,-1.3684505z M0.3216486,-1.294487 L0.3221238,-1.0054631 0.2563419,-1.005355 0.2563419,-1.005355 0.2295708,-1.0059307 0.2162833,-1.0073446 0.2030547,-1.0094345 0.2030547,-1.0094345 0.1933801,-1.0124533 0.1841168,-1.0162716 0.1755639,-1.0214708 0.167455,-1.0275331 0.167455,-1.0275331 0.1597151,-1.0369363 0.1531482,-1.0470095 0.1482724,-1.0580485 0.1443173,-1.0696134 0.1443173,-1.0696134 0.1400415,-1.0893439 0.1369737,-1.1092221 0.1356427,-1.1293129 0.1352563,-1.1495193 0.1352563,-1.1495193 0.1355261,-1.1691847 0.1367568,-1.1887308 0.1397723,-1.2080554 0.1440582,-1.2272222 0.1440582,-1.2272222 0.1485178,-1.2388645 0.1539019,-1.2499516 0.1609194,-1.2600578 0.1689918,-1.2695304 0.1689918,-1.2695304 0.1781762,-1.276639 0.1879217,-1.2826514 0.1985679,-1.2869042 0.2097369,-1.2901358 0.2097369,-1.2901358 0.2277337,-1.2924026 0.2457859,-1.2938819 0.2820604,-1.2944219 0.3216486,-1.294487z" transform="matrix(1,0,0,-1,1.905,1.905)" fill="rgb(104,104,104)" fill-rule="nonzero" shaper:cutDepth="0.0000762" stroke-linecap="round" stroke-linejoin="round" /><path d="M-0.2330504,-0.3086089 L-0.2337679,-0.7449724 -0.3218742,-0.7448275 -0.3211567,-0.3084641 -0.2330504,-0.3086089z" transform="matrix(1,0,0,-1,1.905,1.905)" fill="rgb(104,104,104)" fill-rule="nonzero" shaper:cutDepth="0.0000762" stroke-linecap="round" stroke-linejoin="round" /><path d="M-0.1889974,-0.3086814 L-0.0931523,-0.308839 -0.0552153,-0.408021 0.119211,-0.4083078 0.1553904,-0.3092476 0.2488543,-0.3094013 0.0781753,-0.7454853 -0.014991,-0.7453321 -0.1889974,-0.3086814z M-0.0270588,-0.4815885 L0.0328014,-0.6436122 0.0920034,-0.4817843 -0.0270588,-0.4815885z" transform="matrix(1,0,0,-1,1.905,1.905)" fill="rgb(104,104,104)" fill-rule="nonzero" shaper:cutDepth="0.0000762" stroke-linecap="round" stroke-linejoin="round" /><path d="M1.21285,-1.42875 a0.2159,0.2159 0 1,1 0.4318,0 a0.2159,0.2159 0 1,1 -0.4318,0z" transform="matrix(1,0,0,-1,1.905,1.905)" fill="rgb(255,255,255)" stroke="rgb(0,0,0)" stroke-width="0.0010cm" stroke-linecap="round" stroke-linejoin="round" shaper:cutDepth="0.0015875" /><path d="M-1.64465,1.42875 a0.2159,0.2159 0 1,1 0.4318,0 a0.2159,0.2159 0 1,1 -0.4318,0z" transform="matrix(1,0,0,-1,1.905,1.905)" fill="rgb(255,255,255)" stroke="rgb(0,0,0)" stroke-width="0.0010cm" stroke-linecap="round" stroke-linejoin="round" shaper:cutDepth="0.0015875" /><path d="M-0.365,0.635 a0.365,0.365 0 1,1 0.73,0 a0.365,0.365 0 1,1 -0.73,0z" transform="matrix(1,0,0,-1,1.905,1.905)" fill="rgb(255,255,255)" stroke="rgb(0,0,0)" stroke-width="0.0010cm" stroke-linecap="round" stroke-linejoin="round" shaper:cutDepth="0.0015875" /><path d="M-0.1,1.235 a0.1,0.1 0 1,1 0.2,0 a0.1,0.1 0 1,1 -0.2,0z" transform="matrix(1,0,0,-1,1.905,1.905)" fill="rgb(255,255,255)" stroke="rgb(0,0,0)" stroke-width="0.0010cm" stroke-linecap="round" stroke-linejoin="round" shaper:cutDepth="0.0015875" /></svg>