  0
SECTION
  2
HEADER
  9
$ACADVER
  1
AC1015
  9
$ACADMAINTVER
 70
     6
  9
$DWGCODEPAGE
  3
ANSI_1252
  9
$INSBASE
 10
0.0
 20
0.0
 30
0.0
  9
$EXTMIN
 10
-15.85
 20
-14.3
 30
0.0
  9
$EXTMAX
 10
15.85
 20
17.0294321627
 30
0.0
  9
$LIMMIN
 10
0.0
 20
0.0
  9
$LIMMAX
 10
420.0
 20
297.0
  9
$ORTHOMODE
 70
     0
  9
$REGENMODE
 70
     1
  9
$FILLMODE
 70
     1
  9
$QTEXTMODE
 70
     0
  9
$MIRRTEXT
 70
     1
  9
$LTSCALE
 40
1.0
  9
$ATTMODE
 70
     1
  9
$TEXTSIZE
 40
3.5
  9
$TRACEWID
 40
1.0
  9
$TEXTSTYLE
  7
Standard
  9
$CLAYER
  8
0
  9
$CELTYPE
  6
ByLayer
  9
$CECOLOR
 62
   256
  9
$CELTSCALE
 40
1.0
  9
$DISPSILH
 70
     0
  9
$DIMSCALE
 40
1.0
  9
$DIMASZ
 40
3.302
  9
$DIMEXO
 40
0.0
  9
$DIMDLI
 40
3.75
  9
$DIMRND
 40
0.0
  9
$DIMDLE
 40
0.0
  9
$DIMEXE
 40
3.175
  9
$DIMTP
 40
0.0
  9
$DIMTM
 40
0.0
  9
$DIMTXT
 40
3.5
  9
$DIMCEN
 40
2.5
  9
$DIMTSZ
 40
0.0
  9
$DIMTOL
 70
     0
  9
$DIMLIM
 70
     0
  9
$DIMTIH
 70
     1
  9
$DIMTOH
 70
     1
  9
$DIMSE1
 70
     0
  9
$DIMSE2
 70
     0
  9
$DIMTAD
 70
     1
  9
$DIMZIN
 70
     1
  9
$DIMBLK
  1

  9
$DIMASO
 70
     1
  9
$DIMSHO
 70
     1
  9
$DIMPOST
  1

  9
$DIMAPOST
  1

  9
$DIMALT
 70
     0
  9
$DIMALTD
 70
     3
  9
$DIMALTF
 40
0.0393700787
  9
$DIMLFAC
 40
1.0
  9
$DIMTOFL
 70
     1
  9
$DIMTVP
 40
0.0
  9
$DIMTIX
 70
     0
  9
$DIMSOXD
 70
     0
  9
$DIMSAH
 70
     0
  9
$DIMBLK1
  1

  9
$DIMBLK2
  1

  9
$DIMSTYLE
  2
ISO-25
  9
$DIMCLRD
 70
     0
  9
$DIMCLRE
 70
     0
  9
$DIMCLRT
 70
     0
  9
$DIMTFAC
 40
1.0
  9
$DIMGAP
 40
1.524
  9
$DIMJUST
 70
     0
  9
$DIMSD1
 70
     0
  9
$DIMSD2
 70
     0
  9
$DIMTOLJ
 70
     0
  9
$DIMTZIN
 70
     1
  9
$DIMALTZ
 70
     0
  9
$DIMALTTZ
 70
     0
  9
$DIMUPT
 70
     0
  9
$DIMDEC
 70
     2
  9
$DIMTDEC
 70
     2
  9
$DIMALTU
 70
     2
  9
$DIMALTTD
 70
     3
  9
$DIMTXSTY
  7
Standard
  9
$DIMAUNIT
 70
     0
  9
$DIMADEC
 70
     2
  9
$DIMALTRND
 40
0.0
  9
$DIMAZIN
 70
     0
  9
$DIMDSEP
 70
    44
  9
$DIMATFIT
 70
     3
  9
$DIMFRAC
 70
     0
  9
$DIMLDRBLK
  1

  9
$DIMLUNIT
 70
     2
  9
$DIMLWD
 70
    -2
  9
$DIMLWE
 70
    -2
  9
$DIMTMOVE
 70
     0
  9
$LUNITS
 70
     2
  9
$LUPREC
 70
     2
  9
$SKETCHINC
 40
1.0
  9
$FILLETRAD
 40
10.0
  9
$AUNITS
 70
     0
  9
$AUPREC
 70
     2
  9
$MENU
  1
.
  9
$ELEVATION
 40
0.0
  9
$PELEVATION
 40
0.0
  9
$THICKNESS
 40
0.0
  9
$LIMCHECK
 70
     0
  9
$CHAMFERA
 40
0.0
  9
$CHAMFERB
 40
0.0
  9
$CHAMFERC
 40
0.0
  9
$CHAMFERD
 40
0.0
  9
$SKPOLY
 70
     0
  9
$TDCREATE
 40
2459462.369379861
  9
$TDUCREATE
 40
2459462.619379861
  9
$TDUPDATE
 40
2459462.369631424
  9
$TDUUPDATE
 40
2459462.619631424
  9
$TDINDWG
 40
0.0000000116
  9
$TDUSRTIMER
 40
0.0000000116
  9
$USRTIMER
 70
     1
  9
$ANGBASE
 50
0.0
  9
$ANGDIR
 70
     0
  9
$PDMODE
 70
     0
  9
$PDSIZE
 40
-1.0
  9
$PLINEWID
 40
0.0
  9
$SPLFRAME
 70
     0
  9
$SPLINETYPE
 70
     6
  9
$SPLINESEGS
 70
     8
  9
$HANDSEED
  5
1E5
  9
$SURFTAB1
 70
     6
  9
$SURFTAB2
 70
     6
  9
$SURFTYPE
 70
     6
  9
$SURFU
 70
     6
  9
$SURFV
 70
     6
  9
$UCSBASE
  2

  9
$UCSNAME
  2

  9
$UCSORG
 10
0.0
 20
0.0
 30
0.0
  9
$UCSXDIR
 10
1.0
 20
0.0
 30
0.0
  9
$UCSYDIR
 10
0.0
 20
1.0
 30
0.0
  9
$UCSORTHOREF
  2

  9
$UCSORTHOVIEW
 70
     0
  9
$UCSORGTOP
 10
0.0
 20
0.0
 30
0.0
  9
$UCSORGBOTTOM
 10
0.0
 20
0.0
 30
0.0
  9
$UCSORGLEFT
 10
0.0
 20
0.0
 30
0.0
  9
$UCSORGRIGHT
 10
0.0
 20
0.0
 30
0.0
  9
$UCSORGFRONT
 10
0.0
 20
0.0
 30
0.0
  9
$UCSORGBACK
 10
0.0
 20
0.0
 30
0.0
  9
$PUCSBASE
  2

  9
$PUCSNAME
  2

  9
$PUCSORG
 10
0.0
 20
0.0
 30
0.0
  9
$PUCSXDIR
 10
1.0
 20
0.0
 30
0.0
  9
$PUCSYDIR
 10
0.0
 20
1.0
 30
0.0
  9
$PUCSORTHOREF
  2

  9
$PUCSORTHOVIEW
 70
     0
  9
$PUCSORGTOP
 10
0.0
 20
0.0
 30
0.0
  9
$PUCSORGBOTTOM
 10
0.0
 20
0.0
 30
0.0
  9
$PUCSORGLEFT
 10
0.0
 20
0.0
 30
0.0
  9
$PUCSORGRIGHT
 10
0.0
 20
0.0
 30
0.0
  9
$PUCSORGFRONT
 10
0.0
 20
0.0
 30
0.0
  9
$PUCSORGBACK
 10
0.0
 20
0.0
 30
0.0
  9
$USERI1
 70
     0
  9
$USERI2
 70
     0
  9
$USERI3
 70
     0
  9
$USERI4
 70
     0
  9
$USERI5
 70
     0
  9
$USERR1
 40
0.0
  9
$USERR2
 40
0.0
  9
$USERR3
 40
0.0
  9
$USERR4
 40
0.0
  9
$USERR5
 40
0.0
  9
$WORLDVIEW
 70
     1
  9
$SHADEDGE
 70
     3
  9
$SHADEDIF
 70
    70
  9
$TILEMODE
 70
     1
  9
$MAXACTVP
 70
    64
  9
$PINSBASE
 10
0.0
 20
0.0
 30
0.0
  9
$PLIMCHECK
 70
     0
  9
$PEXTMIN
 10
1.0000000000E+20
 20
1.0000000000E+20
 30
1.0000000000E+20
  9
$PEXTMAX
 10
-1.0000000000E+20
 20
-1.0000000000E+20
 30
-1.0000000000E+20
  9
$PLIMMIN
 10
0.0
 20
0.0
  9
$PLIMMAX
 10
420.0
 20
297.0
  9
$UNITMODE
 70
     0
  9
$VISRETAIN
 70
     1
  9
$PLINEGEN
 70
     0
  9
$PSLTSCALE
 70
     1
  9
$TREEDEPTH
 70
  3020
  9
$CMLSTYLE
  2
Standard
  9
$CMLJUST
 70
     0
  9
$CMLSCALE
 40
20.0
  9
$PROXYGRAPHICS
 70
     1
  9
$MEASUREMENT
 70
     1
  9
$CELWEIGHT
370
    -1
  9
$ENDCAPS
280
     0
  9
$JOINSTYLE
280
     0
  9
$LWDISPLAY
290
     1
  9
$INSUNITS
 70
     4
  9
$HYPERLINKBASE
  1

  9
$STYLESHEET
  1

  9
$XEDIT
290
     1
  9
$CEPSNTYPE
380
     0
  9
$PSTYLEMODE
290
     1
  9
$FINGERPRINTGUID
  2
{c493037e-37a9-4aa5-bf71-e10454a8802f}
  9
$VERSIONGUID
  2
{FAEB1C32-E019-11D5-929B-00C0DF256EC4}
  9
$EXTNAMES
290
     1
  9
$PSVPSCALE
 40
0.0
  9
$OLESTARTUP
290
     0
  0
ENDSEC
  0
SECTION
  2
CLASSES
  0
CLASS
  1
ACDBDICTIONARYWDFLT
  2
AcDbDictionaryWithDefault
  3
ObjectDBX Classes
 90
        0
280
     0
281
     0
  0
CLASS
  1
VISUALSTYLE
  2
AcDbVisualStyle
  3
ObjectDBX Classes
 90
     4095
280
     0
281
     0
  0
CLASS
  1
MATERIAL
  2
AcDbMaterial
  3
ObjectDBX Classes
 90
     1153
280
     0
281
     0
  0
CLASS
  1
SCALE
  2
AcDbScale
  3
ObjectDBX Classes
 90
     1153
280
     0
281
     0
  0
CLASS
  1
TABLESTYLE
  2
AcDbTableStyle
  3
ObjectDBX Classes
 90
     4095
280
     0
281
     0
  0
CLASS
  1
MLEADERSTYLE
  2
AcDbMLeaderStyle
  3
ACDB_MLEADERSTYLE_CLASS
 90
     4095
280
     0
281
     0
  0
CLASS
  1
SUN
  2
AcDbSun
  3
SCENEOE
 90
     1153
280
     0
281
     0
  0
CLASS
  1
ACDBPLACEHOLDER
  2
AcDbPlaceHolder
  3
ObjectDBX Classes
 90
        0
280
     0
281
     0
  0
CLASS
  1
LAYOUT
  2
AcDbLayout
  3
ObjectDBX Classes
 90
        0
280
     0
281
     0
  0
ENDSEC
  0
SECTION
  2
TABLES
  0
TABLE
  2
VPORT
  5
8
330
0
100
AcDbSymbolTable
 70
     1
  0
VPORT
  5
29
330
8
100
AcDbSymbolTableRecord
100
AcDbViewportTableRecord
  2
*Active
 70
     0
 10
0.0
 20
0.0
 11
1.0
 21
1.0
 12
0.0
 22
1.3647160814
 13
0.0
 23
0.0
 14
10.0
 24
10.0
 15
10.0
 25
10.0
 16
0.0
 26
0.0
 36
1.0
 17
0.0
 27
0.0
 37
0.0
 40
31.956020806
 41
1.0118281058
 42
50.0
 43
0.0
 44
0.0
 50
0.0
 51
0.0
 71
     0
 72
   100
 73
     1
 74
     3
 75
     0
 76
     0
 77
     0
 78
     0
281
     0
 65
     1
110
0.0
120
0.0
130
0.0
111
1.0
121
0.0
131
0.0
112
0.0
122
1.0
132
0.0
 79
     0
146
0.0
  0
ENDTAB
  0
TABLE
  2
LTYPE
  5
5
330
0
100
AcDbSymbolTable
 70
     6
  0
LTYPE
  5
14
330
5
100
AcDbSymbolTableRecord
100
AcDbLinetypeTableRecord
  2
ByBlock
 70
     0
  3

 72
    65
 73
     0
 40
0.0
  0
LTYPE
  5
15
330
5
100
AcDbSymbolTableRecord
100
AcDbLinetypeTableRecord
  2
ByLayer
 70
     0
  3

 72
    65
 73
     0
 40
0.0
  0
LTYPE
  5
16
330
5
100
AcDbSymbolTableRecord
100
AcDbLinetypeTableRecord
  2
Continuous
 70
     0
  3
Solid line
 72
    65
 73
     0
 40
0.0
  0
LTYPE
  5
6E
330
5
100
AcDbSymbolTableRecord
100
AcDbLinetypeTableRecord
  2
HIDDEN
 70
     0
  3
Hidden __ __ __ __ __ __ __ __ __ __ __ __ __ __
 72
    65
 73
     2
 40
1.905
 49
1.27
 74
     0
 49
-0.635
 74
     0
  0
LTYPE
  5
6F
330
5
100
AcDbSymbolTableRecord
100
AcDbLinetypeTableRecord
  2
PHANTOM
 70
     0
  3
Phantom ______  __  __  ______  __  __  ______
 72
    65
 73
     6
 40
12.7
 49
6.35
 74
     0
 49
-1.27
 74
     0
 49
1.27
 74
     0
 49
-1.27
 74
     0
 49
1.27
 74
     0
 49
-1.27
 74
     0
  0
LTYPE
  5
70
330
5
100
AcDbSymbolTableRecord
100
AcDbLinetypeTableRecord
  2
CENTER
 70
     0
  3
Center ____ _ ____ _ ____ _ ____ _ ____ _ ____
 72
    65
 73
     4
 40
10.16
 49
6.35
 74
     0
 49
-1.27
 74
     0
 49
1.27
 74
     0
 49
-1.27
 74
     0
  0
LTYPE
  5
71
330
5
100
AcDbSymbolTableRecord
100
AcDbLinetypeTableRecord
  2
CENTERX2
 70
     0
  3
Center (2x) ________  __  ________  __  _____
 72
    65
 73
     4
 40
20.32
 49
12.7
 74
     0
 49
-2.54
 74
     0
 49
2.54
 74
     0
 49
-2.54
 74
     0
  0
LTYPE
  5
72
330
5
100
AcDbSymbolTableRecord
100
AcDbLinetypeTableRecord
  2
DOT2
 70
     0
  3
Dot (.5x) ........................................
 72
    65
 73
     2
 40
0.635
 49
0.0
 74
     0
 49
-0.635
 74
     0
  0
ENDTAB
  0
TABLE
  2
LAYER
  5
2
330
0
100
AcDbSymbolTable
 70
     1
  0
LAYER
  5
10
330
2
100
AcDbSymbolTableRecord
100
AcDbLayerTableRecord
  2
0
 70
     0
 62
     7
  6
Continuous
370
    -3
390
F
  0
ENDTAB
  0
TABLE
  2
STYLE
  5
3
330
0
100
AcDbSymbolTable
 70
     1
  0
STYLE
  5
11
330
3
100
AcDbSymbolTableRecord
100
AcDbTextStyleTableRecord
  2
Standard
 70
     0
 40
0.0
 41
1.0
 50
0.0
 71
     0
 42
3.5
  3
txt
  4

  0
ENDTAB
  0
TABLE
  2
VIEW
  5
6
330
0
100
AcDbSymbolTable
 70
     0
  0
ENDTAB
  0
TABLE
  2
UCS
  5
7
330
0
100
AcDbSymbolTable
 70
     0
  0
ENDTAB
  0
TABLE
  2
APPID
  5
9
330
0
100
AcDbSymbolTable
 70
     1
  0
APPID
  5
12
330
9
100
AcDbSymbolTableRecord
100
AcDbRegAppTableRecord
  2
ACAD
 70
     0
  0
ENDTAB
  0
TABLE
  2
DIMSTYLE
  5
A
330
0
100
AcDbSymbolTable
 70
     1
100
AcDbDimStyleTable
  0
DIMSTYLE
105
27
330
A
100
AcDbSymbolTableRecord
100
AcDbDimStyleTableRecord
  2
ISO-25
 70
     0
 41
2.5
 42
0.625
 43
3.75
 44
1.25
 73
     0
 74
     0
 77
     1
 78
     8
140
2.5
141
2.5
143
0.0393700787
147
0.625
171
     3
172
     1
178
     0
271
     2
272
     2
274
     3
278
    44
283
     0
284
     8
340
11
  0
ENDTAB
  0
TABLE
  2
BLOCK_RECORD
  5
1
330
0
100
AcDbSymbolTable
 70
     1
  0
BLOCK_RECORD
  5
1F
330
1
100
AcDbSymbolTableRecord
100
AcDbBlockTableRecord
  2
*Model_Space
340
22
  0
BLOCK_RECORD
  5
1B
330
1
100
AcDbSymbolTableRecord
100
AcDbBlockTableRecord
  2
*Paper_Space
340
1E
  0
BLOCK_RECORD
  5
23
330
1
100
AcDbSymbolTableRecord
100
AcDbBlockTableRecord
  2
*Paper_Space0
340
26
  0
ENDTAB
  0
ENDSEC
  0
SECTION
  2
BLOCKS
  0
BLOCK
  5
20
330
1F
100
AcDbEntity
  8
0
100
AcDbBlockBegin
  2
*Model_Space
 70
     0
 10
0.0
 20
0.0
 30
0.0
  3
*Model_Space
  1

  0
ENDBLK
  5
21
330
1F
100
AcDbEntity
  8
0
100
AcDbBlockEnd
  0
BLOCK
  5
1C
330
1B
100
AcDbEntity
 67
     1
  8
0
100
AcDbBlockBegin
  2
*Paper_Space
 70
     0
 10
0.0
 20
0.0
 30
0.0
  3
*Paper_Space
  1

  0
ENDBLK
  5
1D
330
1B
100
AcDbEntity
 67
     1
  8
0
100
AcDbBlockEnd
  0
BLOCK
  5
24
330
23
100
AcDbEntity
  8
0
100
AcDbBlockBegin
  2
*Paper_Space0
 70
     0
 10
0.0
 20
0.0
 30
0.0
  3
*Paper_Space0
  1

  0
ENDBLK
  5
25
330
23
100
AcDbEntity
  8
0
100
AcDbBlockEnd
  0
ENDSEC
  0
SECTION
  2
ENTITIES
  0
CIRCLE
  5
73
330
1F
100
AcDbEntity
  8
0
  6
Continuous
 62
     7
100
AcDbCircle
 10
0.0
 20
0.0
 30
0.0
 40
0.5
  0
CIRCLE
  5
74
330
1F
100
AcDbEntity
  8
0
  6
Continuous
 62
     7
100
AcDbCircle
 10
0.0
 20
7.4
 30
0.0
 40
1.9
  0
CIRCLE
  5
75
330
1F
100
AcDbEntity
  8
0
  6
Continuous
 62
     7
100
AcDbCircle
 10
0.99
 20
15.86
 30
0.0
 40
0.4
  0
CIRCLE
  5
76
330
1F
100
AcDbEntity
  8
0
  6
Continuous
 62
     7
100
AcDbCircle
 10
-1.51
 20
15.86
 30
0.0
 40
0.4000000000000019
  0
CIRCLE
  5
77
330
1F
100
AcDbEntity
  8
0
  6
Continuous
 62
     7
100
AcDbCircle
 10
11.426
 20
3.85
 30
0.0
 40
0.3999999999999996
  0
CIRCLE
  5
78
330
1F
100
AcDbEntity
  8
0
  6
Continuous
 62
     7
100
AcDbCircle
 10
11.426
 20
-3.85
 30
0.0
 40
0.4000000000000001
  0
CIRCLE
  5
79
330
1F
100
AcDbEntity
  8
0
  6
Continuous
 62
     7
100
AcDbCircle
 10
-11.426
 20
-3.85
 30
0.0
 40
0.4000000000000006
  0
CIRCLE
  5
7A
330
1F
100
AcDbEntity
  8
0
  6
Continuous
 62
     7
100
AcDbCircle
 10
-11.426
 20
3.85
 30
0.0
 40
0.4000000000000006
  0
CIRCLE
  5
7B
330
1F
100
AcDbEntity
  8
0
  6
Continuous
 62
     7
100
AcDbCircle
 10
5.0734273207
 20
-10.88
 30
0.0
 40
1.249999999999999
  0
CIRCLE
  5
7C
330
1F
100
AcDbEntity
  8
0
  6
Continuous
 62
     7
100
AcDbCircle
 10
13.5
 20
0.0
 30
0.0
 40
1.1
  0
CIRCLE
  5
7D
330
1F
100
AcDbEntity
  8
0
  6
Continuous
 62
     7
100
AcDbCircle
 10
-13.5
 20
0.0
 30
0.0
 40
1.1
  0
ARC
  5
7E
330
1F
100
AcDbEntity
  8
0
  6
Continuous
 62
     7
100
AcDbCircle
 10
0.0
 20
0.0
 30
0.0
 40
15.0
100
AcDbArc
 50
7.2885781424
 51
78.2680486612
  0
ARC
  5
7F
330
1F
100
AcDbEntity
  8
0
  6
Continuous
 62
     7
100
AcDbCircle
 10
0.0
 20
0.0
 30
0.0
 40
15.0
100
AcDbArc
 50
101.7319513388
 51
172.7114218576
  0
CIRCLE
  5
80
330
1F
100
AcDbEntity
  8
0
  6
Continuous
 62
     7
100
AcDbCircle
 10
13.5
 20
0.0
 30
0.0
 40
2.35
  0
ARC
  5
81
330
1F
100
AcDbEntity
  8
0
  6
Continuous
 62
     7
100
AcDbCircle
 10
0.0
 20
0.0
 30
0.0
 40
15.0
100
AcDbArc
 50
287.5729463086
 51
352.7114218576
  0
ARC
  5
82
330
1F
100
AcDbEntity
  8
0
  6
Continuous
 62
     7
100
AcDbCircle
 10
0.0
 20
0.0
 30
0.0
 40
15.0
100
AcDbArc
 50
187.2885781424
 51
252.4270536915
  0
CIRCLE
  5
83
330
1F
100
AcDbEntity
  8
0
  6
Continuous
 62
     7
100
AcDbCircle
 10
-13.5
 20
0.0
 30
0.0
 40
2.35
  0
LINE
  5
84
330
1F
100
AcDbEntity
  8
0
  6
CENTERX2
 62
     7
100
AcDbLine
 10
11.676
 20
4.1
 30
0.0
 11
11.176
 21
3.6
 31
0.0
  0
LINE
  5
85
330
1F
100
AcDbEntity
  8
0
  6
CENTERX2
 62
     7
100
AcDbLine
 10
11.676
 20
-3.6
 30
0.0
 11
11.176
 21
-4.1
 31
0.0
  0
LINE
  5
86
330
1F
100
AcDbEntity
  8
0
  6
CENTERX2
 62
     7
100
AcDbLine
 10
1.04
 20
15.91
 30
0.0
 11
0.94
 21
15.81
 31
0.0
  0
LINE
  5
87
330
1F
100
AcDbEntity
  8
0
  6
CENTERX2
 62
     7
100
AcDbLine
 10
-11.176
 20
3.6
 30
0.0
 11
-11.676
 21
4.1
 31
0.0
  0
LINE
  5
88
330
1F
100
AcDbEntity
  8
0
  6
CENTERX2
 62
     7
100
AcDbLine
 10
-11.676
 20
-3.6
 30
0.0
 11
-11.176
 21
-4.1
 31
0.0
  0
LINE
  5
89
330
1F
100
AcDbEntity
  8
0
  6
CENTERX2
 62
     7
100
AcDbLine
 10
-1.46
 20
15.81
 30
0.0
 11
-1.56
 21
15.91
 31
0.0
  0
LINE
  5
8A
330
1F
100
AcDbEntity
  8
0
  6
Continuous
 62
     7
100
AcDbLine
 10
3.05
 20
14.6866435921
 30
0.0
 11
3.05
 21
17.0294321627
 31
0.0
  0
LINE
  5
8B
330
1F
100
AcDbEntity
  8
0
  6
Continuous
 62
     7
100
AcDbLine
 10
-3.05
 20
14.6866435921
 30
0.0
 11
-3.05
 21
17.0294321627
 31
0.0
  0
LINE
  5
8C
330
1F
100
AcDbEntity
  8
0
  6
Continuous
 62
     7
100
AcDbLine
 10
3.05
 20
17.0294321627
 30
0.0
 11
-3.05
 21
17.0294321627
 31
0.0
  0
LINE
  5
8D
330
1F
100
AcDbEntity
  8
0
  6
Continuous
 62
     7
100
AcDbLine
 10
4.5287967497
 20
-14.3
 30
0.0
 11
-4.5287967497
 21
-14.3
 31
0.0
  0
CIRCLE
  5
8E
330
1F
100
AcDbEntity
  8
0
  6
Continuous
 62
     7
370
    25
100
AcDbCircle
 10
0.0
 20
6.0
 30
0.0
 40
0.2544119062935222
  0
CIRCLE
  5
8F
330
1F
100
AcDbEntity
  8
0
  6
Continuous
 62
     7
370
    25
100
AcDbCircle
 10
0.0
 20
6.0
 30
0.0
 40
0.4000000000000001
  0
CIRCLE
  5
90
330
1F
100
AcDbEntity
  8
0
  6
Continuous
 62
     7
370
    25
100
AcDbCircle
 10
0.0
 20
6.0
 30
0.0
 40
0.6000000000000004
  0
CIRCLE
  5
91
330
1F
100
AcDbEntity
  8
0
  6
Continuous
 62
     7
370
    25
100
AcDbCircle
 10
0.0
 20
6.0
 30
0.0
 40
0.8999999999999995
  0
CIRCLE
  5
92
330
1F
100
AcDbEntity
  8
0
  6
Continuous
 62
     7
370
    25
100
AcDbCircle
 10
0.0
 20
6.0
 30
0.0
 40
0.9699999999999981
  0
CIRCLE
  5
93
330
1F
100
AcDbEntity
  8
0
  6
Continuous
 62
     7
370
    25
100
AcDbCircle
 10
0.0
 20
6.0
 30
0.0
 40
1.349999999999994
  0
CIRCLE
  5
94
330
1F
100
AcDbEntity
  8
0
  6
Continuous
 62
     7
370
    25
100
AcDbCircle
 10
0.0
 20
6.0
 30
0.0
 40
1.749999999999996
  0
CIRCLE
  5
95
330
1F
100
AcDbEntity
  8
0
  6
Continuous
 62
     7
370
    25
100
AcDbCircle
 10
4.75
 20
8.7
 30
0.0
 40
1.199999999999998
  0
CIRCLE
  5
96
330
1F
100
AcDbEntity
  8
0
  6
Continuous
 62
     7
370
    25
100
AcDbCircle
 10
-4.8067101926
 20
8.7
 30
0.0
 40
1.200000000000004
  0
SPLINE
  5
97
330
1F
100
AcDbEntity
  8
0
  6
Continuous
 62
     7
370
    25
100
AcDbSpline
210
0.0
220
0.0
230
1.0
 70
     8
 71
     3
 72
    22
 73
    18
 74
     0
 42
0.00000001
 43
0.00000001
 40
0.0
 40
0.0
 40
0.0
 40
0.0
 40
0.125
 40
0.125
 40
0.2499999999999999
 40
0.2499999999999999
 40
0.3749999999999998
 40
0.3749999999999998
 40
0.4999999999999997
 40
0.4999999999999997
 40
0.6249999999999996
 40
0.6249999999999996
 40
0.7499999999999997
 40
0.7499999999999997
 40
0.8749999999999998
 40
0.8749999999999998
 40
1.0
 40
1.0
 40
1.0
 40
1.0
 10
-1.397590526019818
 20
4.946795014426723
 30
0.0
 10
-1.370123989702534
 20
4.896507551257457
 30
0.0
 10
-1.345703366995087
 20
4.83640582501525
 30
0.0
 10
-1.316369150556759
 20
4.695191387233806
 30
0.0
 10
-1.311719587940706
 20
4.613739084534208
 30
0.0
 10
-1.340008774324368
 20
4.440118559585256
 30
0.0
 10
-1.373688432826728
 20
4.348088776674467
 30
0.0
 10
-1.486196620419622
 20
4.181763565547587
 30
0.0
 10
-1.565149942123655
 20
4.108545331062126
 30
0.0
 10
-1.746764180155613
 20
4.008177192287146
 30
0.0
 10
-1.848300649119782
 20
3.981401044366926
 30
0.0
 10
-2.040333606500965
 20
3.972936660384219
 30
0.0
 10
-2.130325369377492
 20
3.990428627845898
 30
0.0
 10
-2.282794004870963
 20
4.048476126862811
 30
0.0
 10
-2.345641959164331
 20
4.088546993143706
 30
0.0
 10
-2.446234270811325
 20
4.173348862036656
 30
0.0
 10
-2.484307376804309
 20
4.218111338845442
 30
0.0
 10
-2.513755360752287
 20
4.260967481874121
 30
0.0
  0
SPLINE
  5
99
330
1F
100
AcDbEntity
  8
0
  6
Continuous
 62
     7
370
    25
100
AcDbSpline
210
0.0
220
0.0
230
1.0
 70
     8
 71
     3
 72
    41
 73
    37
 74
     0
 42
0.00000001
 43
0.00000001
 40
0.0
 40
0.0
 40
0.0
 40
0.0
 40
0.0157154529429964
 40
0.0313383443773805
 40
0.0624509877177436
 40
0.0981248445778959
 40
0.1250661069594931
 40
0.1606736689855084
 40
0.1873574720062135
 40
0.223215392939767
 40
0.2500102203462271
 40
0.2855594211261978
 40
0.3123440608978882
 40
0.343752336632053
 40
0.3748998761572073
 40
0.4104980778166385
 40
0.4374350350190615
 40
0.4731218632081022
 40
0.4997850982696317
 40
0.5355431222622561
 40
0.5624337657319693
 40
0.5980019648772146
 40
0.6247204967432121
 40
0.6606077207729103
 40
0.6873462531828078
 40
0.7229042974561146
 40
0.7497605387277083
 40
0.7855589238592445
 40
0.8122264998033677
 40
0.8434093182110236
 40
0.8748306136555671
 40
0.9104511312234607
 40
0.9371289294096788
 40
0.9684805007918511
 40
0.9842411883076749
 40
0.9999999999999999
 40
0.9999999999999999
 40
0.9999999999999999
 40
0.9999999999999999
 10
-2.390128047928017
 20
4.345916216554807
 30
0.0
 10
-2.385316656830633
 20
4.339124017080612
 30
0.0
 10
-2.375722212961214
 20
4.325579623102642
 30
0.0
 10
-2.354956293532356
 20
4.299819861746531
 30
0.0
 10
-2.325218969794053
 20
4.2677919972944
 30
0.0
 10
-2.287696416121078
 20
4.235130590746944
 30
0.0
 10
-2.245269152269104
 20
4.204953524035547
 30
0.0
 10
-2.204165179224497
 20
4.181423383953809
 30
0.0
 10
-2.156706831444262
 20
4.160110847129538
 30
0.0
 10
-2.111752392934057
 20
4.145021402947958
 30
0.0
 10
-2.061016475421718
 20
4.133386611630923
 30
0.0
 10
-2.014094398493766
 20
4.127371344731205
 30
0.0
 10
-1.964424641944735
 20
4.125902493859204
 30
0.0
 10
-1.917125121644945
 20
4.128830202171461
 30
0.0
 10
-1.865736507517786
 20
4.137127530897043
 30
0.0
 10
-1.817750870462319
 20
4.150147354061419
 30
0.0
 10
-1.769081946014697
 20
4.168643023108861
 30
0.0
 10
-1.726649066129843
 20
4.189747874951792
 30
0.0
 10
-1.68257568123217
 20
4.217348316901801
 30
0.0
 10
-1.645054345597567
 20
4.24632130409743
 30
0.0
 10
-1.607173543986573
 20
4.282034102528982
 30
0.0
 10
-1.576079461800741
 20
4.317721055260861
 30
0.0
 10
-1.54589069438968
 20
4.360106641905086
 30
0.0
 10
-1.522304808192234
 20
4.401249211135068
 30
0.0
 10
-1.500980075857388
 20
4.448722434623981
 30
0.0
 10
-1.485901301611481
 20
4.493575415138841
 30
0.0
 10
-1.474222133183385
 20
4.544307295020309
 30
0.0
 10
-1.46817669137955
 20
4.591330742599117
 30
0.0
 10
-1.466701930468274
 20
4.640950326678484
 30
0.0
 10
-1.469594866119367
 20
4.688213910473904
 30
0.0
 10
-1.477866110511638
 20
4.739646968724828
 30
0.0
 10
-1.490887048251223
 20
4.787650988211045
 30
0.0
 10
-1.508488081886425
 20
4.834070251023219
 30
0.0
 10
-1.525682524022501
 20
4.869231558428723
 30
0.0
 10
-1.542384327963676
 20
4.898051359802119
 30
0.0
 10
-1.551640801526634
 20
4.911944504409368
 30
0.0
 10
-1.556268762867337
 20
4.918890663300854
 30
0.0
  0
SPLINE
  5
A5
330
1F
100
AcDbEntity
  8
0
  6
Continuous
 62
     7
370
    25
100
AcDbSpline
210
0.0
220
0.0
230
1.0
 70
     8
 71
     3
 72
    41
 73
    37
 74
     0
 42
0.00000001
 43
0.00000001
 40
0.0
 40
0.0
 40
0.0
 40
0.0
 40
0.015715452942994
 40
0.0313383443773798
 40
0.0624509877177435
 40
0.0981248445778963
 40
0.1250661069594921
 40
0.1606736689855072
 40
0.1873574720062131
 40
0.223215392939768
 40
0.2500102203462251
 40
0.2855594211261969
 40
0.3123440608978877
 40
0.343752336632052
 40
0.3748998761572065
 40
0.4104980778166374
 40
0.4374350350190619
 40
0.4731218632081002
 40
0.4997850982696255
 40
0.5355431222622566
 40
0.5624337657319685
 40
0.5980019648772147
 40
0.6247204967432118
 40
0.6606077207729087
 40
0.6873462531828055
 40
0.7229042974561146
 40
0.749760538727708
 40
0.7855589238592432
 40
0.8122264998033664
 40
0.8434093182110223
 40
0.8748306136555675
 40
0.9104511312234608
 40
0.9371289294096772
 40
0.9684805007918506
 40
0.984241188307673
 40
1.0
 40
1.0
 40
1.0
 40
1.0
 10
1.556268762867394
 20
4.91889066330093
 30
0.0
 10
1.551653313931991
 20
4.91196382498075
 30
0.0
 10
1.542449600318484
 20
4.898150946312113
 30
0.0
 10
1.525848280488767
 20
4.869529540078989
 30
0.0
 10
1.50661234273391
 20
4.830285798881538
 30
0.0
 10
1.489576398783252
 20
4.783547312325913
 30
0.0
 10
1.476618204818693
 20
4.733120996949449
 30
0.0
 10
1.469390512287161
 20
4.686313256638809
 30
0.0
 10
1.466511349011242
 20
4.634368772631872
 30
0.0
 10
1.468543720671824
 20
4.586993015826194
 30
0.0
 10
1.475874006322351
 20
4.535458865914779
 30
0.0
 10
1.487082711353079
 20
4.489499866027464
 30
0.0
 10
1.503520726341377
 20
4.442606008201844
 30
0.0
 10
1.523213118377085
 20
4.399501184893256
 30
0.0
 10
1.549384256667103
 20
4.354504442272309
 30
0.0
 10
1.578743744202011
 20
4.314377672522689
 30
0.0
 10
1.613459981035961
 20
4.275576424082843
 30
0.0
 10
1.648375967619765
 20
4.243532111833797
 30
0.0
 10
1.689943857100465
 20
4.212285380544021
 30
0.0
 10
1.730443779032102
 20
4.187647179749834
 30
0.0
 10
1.777364267255682
 20
4.165089988272036
 30
0.0
 10
1.821827234951609
 20
4.148858997977592
 30
0.0
 10
1.87221883956343
 20
4.135874937841388
 30
0.0
 10
1.919082597679924
 20
4.128609044519703
 30
0.0
 10
1.971045341032165
 20
4.125723830335104
 30
0.0
 10
2.018322560088885
 20
4.127729784494363
 30
0.0
 10
2.069868852344529
 20
4.13501719598105
 30
0.0
 10
2.115933301993608
 20
4.146234079118897
 30
0.0
 10
2.162782442391288
 20
4.162648587578007
 30
0.0
 10
2.205866186440365
 20
4.182295633884823
 30
0.0
 10
2.250913770676273
 20
4.208458357736698
 30
0.0
 10
2.291057300969343
 20
4.237825476799707
 30
0.0
 10
2.328079242029718
 20
4.270899941650652
 30
0.0
 10
2.354737557129285
 20
4.299558284500291
 30
0.0
 10
2.375652651538978
 20
4.325482983764229
 30
0.0
 10
2.385303107241315
 20
4.339105409195736
 30
0.0
 10
2.390128047928157
 20
4.345916216555022
 30
0.0
  0
SPLINE
  5
A6
330
1F
100
AcDbEntity
  8
0
  6
Continuous
 62
     7
370
    25
100
AcDbSpline
210
0.0
220
0.0
230
1.0
 70
     8
 71
     3
 72
    22
 73
    18
 74
     0
 42
0.00000001
 43
0.00000001
 40
0.0
 40
0.0
 40
0.0
 40
0.0
 40
0.1249999999999999
 40
0.1249999999999999
 40
0.2499999999999998
 40
0.2499999999999998
 40
0.3749999999999996
 40
0.3749999999999996
 40
0.4999999999999997
 40
0.4999999999999997
 40
0.6249999999999998
 40
0.6249999999999998
 40
0.7499999999999998
 40
0.7499999999999998
 40
0.8749999999999999
 40
0.8749999999999999
 40
1.0
 40
1.0
 40
1.0
 40
1.0
 10
2.513755360752462
 20
4.260967481874378
 30
0.0
 10
2.48430737778702
 20
4.218111340275566
 30
0.0
 10
2.446234273357227
 20
4.173348865046778
 30
0.0
 10
2.345641966687539
 20
4.088546998622149
 30
0.0
 10
2.282794015871039
 20
4.048476133223992
 30
0.0
 10
2.130325388900249
 20
3.990428633105372
 30
0.0
 10
2.040333631105544
 20
3.972936663532957
 30
0.0
 10
1.848300682179606
 20
3.981401038676565
 30
0.0
 10
1.746764216381754
 20
4.008177179774844
 30
0.0
 10
1.5651499786117
 20
4.108545303389442
 30
0.0
 10
1.486196653883092
 20
4.181763529806099
 30
0.0
 10
1.373688455670309
 20
4.348088729175241
 30
0.0
 10
1.340008789825242
 20
4.44011850849993
 30
0.0
 10
1.311719589429356
 20
4.613739031349462
 30
0.0
 10
1.316369145457736
 20
4.695191335371462
 30
0.0
 10
1.345703351540956
 20
4.836405777934794
 30
0.0
 10
1.370123970408464
 20
4.896507507570279
 30
0.0
 10
1.397590504026005
 20
4.946794974159049
 30
0.0
  0
SPLINE
  5
A8
330
1F
100
AcDbEntity
  8
0
  6
Continuous
 62
     7
370
    25
100
AcDbSpline
210
0.0
220
0.0
230
1.0
 70
     8
 71
     3
 72
     8
 73
     4
 74
     0
 42
0.00000001
 43
0.00000001
 40
0.0
 40
0.0
 40
0.0
 40
0.0
 40
1.0
 40
1.0
 40
1.0
 40
1.0
 10
-1.888264639233554
 20
5.988258343547385
 30
0.0
 10
-1.842162991355053
 20
5.988209220681871
 30
0.0
 10
-1.796061599272315
 20
5.988205410522101
 30
0.0
 10
-1.7499605297945
 20
5.988246912497686
 30
0.0
  0
CIRCLE
  5
E8
330
1F
100
AcDbEntity
  8
0
  6
Continuous
 62
     7
370
    25
100
AcDbCircle
 10
-12.9787492039
 20
-3.5156327326
 30
0.0
 40
0.5219854303014699
  0
CIRCLE
  5
E9
330
1F
100
AcDbEntity
  8
0
  6
Continuous
 62
     7
370
    25
100
AcDbCircle
 10
-1.9803705076
 20
-13.0227769725
 30
0.0
 40
0.5000000000000049
  0
CIRCLE
  5
EA
330
1F
100
AcDbEntity
  8
0
  6
Continuous
 62
     7
370
    25
100
AcDbCircle
 10
12.9787492039
 20
-3.5156327326
 30
0.0
 40
0.5219854303014699
  0
CIRCLE
  5
EB
330
1F
100
AcDbEntity
  8
0
  6
Continuous
 62
     7
370
    25
100
AcDbCircle
 10
12.9787492039
 20
3.5156327326
 30
0.0
 40
0.5219854303014682
  0
CIRCLE
  5
EC
330
1F
100
AcDbEntity
  8
0
  6
Continuous
 62
     7
370
    25
100
AcDbCircle
 10
7.0118256426
 20
11.9897667935
 30
0.0
 40
0.5000000000000062
  0
CIRCLE
  5
ED
330
1F
100
AcDbEntity
  8
0
  6
Continuous
 62
     7
370
    25
100
AcDbCircle
 10
1.9803705076
 20
-13.0227769725
 30
0.0
 40
0.5000000000000022
  0
CIRCLE
  5
EE
330
1F
100
AcDbEntity
  8
0
  6
Continuous
 62
     7
370
    25
100
AcDbCircle
 10
-7.0118256426
 20
11.9897667935
 30
0.0
 40
0.4999999999999991
  0
CIRCLE
  5
EF
330
1F
100
AcDbEntity
  8
0
  6
Continuous
 62
     7
370
    25
100
AcDbCircle
 10
13.5
 20
0.0
 30
0.0
 40
1.093749999999993
  0
CIRCLE
  5
F0
330
1F
100
AcDbEntity
  8
0
  6
Continuous
 62
     7
370
    25
100
AcDbCircle
 10
13.5
 20
0.0
 30
0.0
 40
2.350000000000001
  0
CIRCLE
  5
F1
330
1F
100
AcDbEntity
  8
0
  6
Continuous
 62
     7
370
    25
100
AcDbCircle
 10
-13.5
 20
0.0
 30
0.0
 40
2.350000000000005
  0
CIRCLE
  5
F2
330
1F
100
AcDbEntity
  8
0
  6
Continuous
 62
     7
370
    25
100
AcDbCircle
 10
-13.5
 20
0.0
 30
0.0
 40
1.093749999999998
  0
CIRCLE
  5
F3
330
1F
100
AcDbEntity
  8
0
  6
Continuous
 62
     7
370
    25
100
AcDbCircle
 10
-12.9787492039
 20
3.5156327326
 30
0.0
 40
0.5219854303014682
  0
SPLINE
  5
11A
330
1F
100
AcDbEntity
  8
0
  6
Continuous
 62
     7
370
    25
100
AcDbSpline
210
0.0
220
0.0
230
1.0
 70
     8
 71
     3
 72
    23
 73
    19
 74
     0
 42
0.00000001
 43
0.00000001
 40
0.0
 40
0.0
 40
0.0
 40
0.0
 40
0.0000499259140519
 40
0.0000499259140519
 40
0.0000499259140519
 40
0.0000998355308317
 40
0.0000998355308317
 40
0.0000998355308317
 40
0.0001500028445582
 40
0.0001500028445582
 40
0.0001500028445582
 40
0.0002007362938658
 40
0.0002007362938658
 40
0.0002007362938658
 40
0.000231288187712
 40
0.000231288187712
 40
0.000231288187712
 40
0.0002357356302803
 40
0.0002357356302803
 40
0.0002357356302803
 40
0.0002357356302803
 10
4.528796749689697
 20
-14.3
 30
0.0
 10
4.528796749689697
 20
-14.3
 30
0.0
 10
4.528356281819737
 20
-14.29714993162209
 30
0.0
 10
4.527513177205249
 20
-14.29169683554801
 30
0.0
 10
4.526670225893584
 20
-14.28624473101758
 30
0.0
 10
4.525402021657688
 20
-14.27804352814052
 30
0.0
 10
4.523815129480971
 20
-14.26778808980068
 30
0.0
 10
4.522219937818734
 20
-14.25747901526346
 30
0.0
 10
4.5202596711085
 20
-14.24481629247002
 30
0.0
 10
4.518095233096609
 20
-14.2308460966645
 30
0.0
 10
4.515906619579217
 20
-14.21671986195017
 30
0.0
 10
4.513449852831005
 20
-14.20087371277228
 30
0.0
 10
4.510924751038929
 20
-14.18460150681118
 30
0.0
 10
4.509390565683599
 20
-14.17471494296541
 30
0.0
 10
4.507811450986507
 20
-14.16454399425523
 30
0.0
 10
4.506234788959862
 20
-14.15439426649867
 30
0.0
 10
4.506007324480202
 20
-14.1529299688218
 30
0.0
 10
4.505779707116195
 20
-14.15146490898676
 30
0.0
 10
4.505552130427523
 20
-14.15
 30
0.0
  0
SPLINE
  5
11D
330
1F
100
AcDbEntity
  8
0
  6
Continuous
 62
     7
370
    25
100
AcDbSpline
210
0.0
220
0.0
230
1.0
 70
     8
 71
     3
 72
    23
 73
    19
 74
     0
 42
0.00000001
 43
0.00000001
 40
0.0
 40
0.0
 40
0.0
 40
0.0
 40
0.0000499259140519
 40
0.0000499259140519
 40
0.0000499259140519
 40
0.0000998355308317
 40
0.0000998355308317
 40
0.0000998355308317
 40
0.0001500028445582
 40
0.0001500028445582
 40
0.0001500028445582
 40
0.0002007362938658
 40
0.0002007362938658
 40
0.0002007362938658
 40
0.000231288187712
 40
0.000231288187712
 40
0.000231288187712
 40
0.0002357356302803
 40
0.0002357356302803
 40
0.0002357356302803
 40
0.0002357356302803
 10
-4.528796749689697
 20
-14.3
 30
0.0
 10
-4.528796749689697
 20
-14.3
 30
0.0
 10
-4.528356281819737
 20
-14.29714993162209
 30
0.0
 10
-4.527513177205249
 20
-14.29169683554801
 30
0.0
 10
-4.526670225893584
 20
-14.28624473101758
 30
0.0
 10
-4.525402021657688
 20
-14.27804352814052
 30
0.0
 10
-4.523815129480971
 20
-14.26778808980068
 30
0.0
 10
-4.522219937818734
 20
-14.25747901526346
 30
0.0
 10
-4.5202596711085
 20
-14.24481629247002
 30
0.0
 10
-4.518095233096609
 20
-14.2308460966645
 30
0.0
 10
-4.515906619579217
 20
-14.21671986195017
 30
0.0
 10
-4.513449852831005
 20
-14.20087371277228
 30
0.0
 10
-4.510924751038929
 20
-14.18460150681118
 30
0.0
 10
-4.509390565683599
 20
-14.17471494296541
 30
0.0
 10
-4.507811450986507
 20
-14.16454399425523
 30
0.0
 10
-4.506234788959862
 20
-14.15439426649867
 30
0.0
 10
-4.506007324480202
 20
-14.1529299688218
 30
0.0
 10
-4.505779707116195
 20
-14.15146490898676
 30
0.0
 10
-4.505552130427523
 20
-14.15
 30
0.0
  0
CIRCLE
  5
128
330
1F
100
AcDbEntity
  8
0
  6
Continuous
 62
     7
370
    25
100
AcDbCircle
 10
13.5
 20
0.0
 30
0.0
 40
0.7937499999999993
  0
CIRCLE
  5
129
330
1F
100
AcDbEntity
  8
0
  6
Continuous
 62
     7
370
    25
100
AcDbCircle
 10
-13.5
 20
0.0
 30
0.0
 40
0.7937499999999993
  0
SPLINE
  5
12A
330
1F
100
AcDbEntity
  8
0
  6
Continuous
 62
     7
370
    25
100
AcDbSpline
210
0.0
220
0.0
230
1.0
 70
     8
 71
     3
 72
    20
 73
    16
 74
     0
 42
0.00000001
 43
0.00000001
 40
0.0
 40
0.0
 40
0.0
 40
0.0
 40
0.0000506914137003
 40
0.0000506914137003
 40
0.0000506914137003
 40
0.0001012727024566
 40
0.0001012727024566
 40
0.0001012727024566
 40
0.0001517200543611
 40
0.0001517200543611
 40
0.0001517200543611
 40
0.0002020889922115
 40
0.0002020889922115
 40
0.0002020889922115
 40
0.0002348463780882
 40
0.0002348463780882
 40
0.0002348463780882
 40
0.0002348463780882
 10
10.21973092788378
 20
-10.77402430671384
 30
0.0
 10
10.20821435329806
 20
-10.7863888438676
 30
0.0
 10
10.19638233242009
 20
-10.79877959656764
 30
0.0
 10
10.18525692857006
 20
-10.81021167088418
 30
0.0
 10
10.17415634313186
 20
-10.82161824267224
 30
0.0
 10
10.16345677687021
 20
-10.83238608944019
 30
0.0
 10
10.15411173698622
 20
-10.84167215409317
 30
0.0
 10
10.14479120547087
 20
-10.85093386504637
 30
0.0
 10
10.13656290123271
 20
-10.85897971315707
 30
0.0
 10
10.13016721398466
 20
-10.86519150093239
 30
0.0
 10
10.12378127081178
 20
-10.87139382481046
 30
0.0
 10
10.11904719216887
 20
-10.87594104676352
 30
0.0
 10
10.11639172795898
 20
-10.87848886080845
 30
0.0
 10
10.11465048804776
 20
-10.8801595123973
 30
0.0
 10
10.11376240971097
 20
-10.88100873416743
 30
0.0
 10
10.11376240971096
 20
-10.88100873416743
 30
0.0
  0
SPLINE
  5
12C
330
1F
100
AcDbEntity
  8
0
  6
Continuous
 62
     7
370
    25
100
AcDbSpline
210
0.0
220
0.0
230
1.0
 70
     8
 71
     3
 72
    10
 73
     6
 74
     0
 42
0.00000001
 43
0.00000001
 40
0.0
 40
0.0
 40
0.0
 40
0.0
 40
0.5
 40
0.5
 40
1.0
 40
1.0
 40
1.0
 40
1.0
 10
10.10076681772845
 20
-11.0893872551136
 30
0.0
 10
10.10076681772845
 20
-11.0893872551136
 30
0.0
 10
10.12548901476809
 20
-11.0669608520306
 30
0.0
 10
10.20802566443055
 20
-10.99087632188145
 30
0.0
 10
10.26515995496703
 20
-10.9376797354279
 30
0.0
 10
10.32296053321384
 20
-10.88285283506624
 30
0.0
  0
SPLINE
  5
12D
330
1F
100
AcDbEntity
  8
0
  6
Continuous
 62
     7
370
    25
100
AcDbSpline
210
0.0
220
0.0
230
1.0
 70
     8
 71
     3
 72
    20
 73
    16
 74
     0
 42
0.00000001
 43
0.00000001
 40
0.0
 40
0.0
 40
0.0
 40
0.0
 40
0.0000506914137003
 40
0.0000506914137003
 40
0.0000506914137003
 40
0.0001012727024566
 40
0.0001012727024566
 40
0.0001012727024566
 40
0.0001517200543611
 40
0.0001517200543611
 40
0.0001517200543611
 40
0.0002020889922115
 40
0.0002020889922115
 40
0.0002020889922115
 40
0.0002348463780883
 40
0.0002348463780883
 40
0.0002348463780883
 40
0.0002348463780883
 10
-11.74722097811497
 20
-9.08434363569216
 30
0.0
 10
-11.75836457310005
 20
-9.071641920846389
 30
0.0
 10
-11.76950252549041
 20
-9.05862372254246
 30
0.0
 10
-11.77975772649168
 20
-9.046404975207793
 30
0.0
 10
-11.78999005031877
 20
-9.034213485301931
 30
0.0
 10
-11.79962721913218
 20
-9.02248521946817
 30
0.0
 10
-11.80792634696174
 20
-9.01225363872807
 30
0.0
 10
-11.81620370943913
 20
-9.002048891405016
 30
0.0
 10
-11.82338122184793
 20
-8.993053115836574
 30
0.0
 10
-11.82891828396379
 20
-8.986065121427199
 30
0.0
 10
-11.83444691015286
 20
-8.979087773495698
 30
0.0
 10
-11.83849495836618
 20
-8.973920372432271
 30
0.0
 10
-11.84076278764723
 20
-8.971022132116216
 30
0.0
 10
-11.84224984774063
 20
-8.969121699155458
 30
0.0
 10
-11.84300544747374
 20
-8.968152715259578
 30
0.0
 10
-11.84300544747374
 20
-8.968152715259567
 30
0.0
  0
SPLINE
  5
12F
330
1F
100
AcDbEntity
  8
0
  6
Continuous
 62
     7
370
    25
100
AcDbSpline
210
0.0
220
0.0
230
1.0
 70
     8
 71
     3
 72
    10
 73
     6
 74
     0
 42
0.00000001
 43
0.00000001
 40
0.0
 40
0.0
 40
0.0
 40
0.0
 40
0.5
 40
0.5
 40
1.0
 40
1.0
 40
1.0
 40
1.0
 10
-12.04902043447631
 20
-8.934265866290984
 30
0.0
 10
-12.04902043447631
 20
-8.934265866290984
 30
0.0
 10
-12.02919411233308
 20
-8.961118194532332
 30
0.0
 10
-11.96179626801962
 20
-9.050888372472551
 30
0.0
 10
-11.91461554072852
 20
-9.113083090396982
 30
0.0
 10
-11.86587977587524
 20
-9.176104682515072
 30
0.0
  0
SPLINE
  5
130
330
1F
100
AcDbEntity
  8
0
  6
Continuous
 62
     7
370
    25
100
AcDbSpline
210
0.0
220
0.0
230
1.0
 70
     8
 71
     3
 72
    20
 73
    16
 74
     0
 42
0.00000001
 43
0.00000001
 40
0.0
 40
0.0
 40
0.0
 40
0.0
 40
0.0000506914137003
 40
0.0000506914137003
 40
0.0000506914137003
 40
0.0001012727024566
 40
0.0001012727024566
 40
0.0001012727024566
 40
0.0001517200543611
 40
0.0001517200543611
 40
0.0001517200543611
 40
0.0002020889922115
 40
0.0002020889922115
 40
0.0002020889922115
 40
0.0002348463780882
 40
0.0002348463780882
 40
0.0002348463780882
 40
0.0002348463780882
 10
11.74722097811514
 20
9.084343635691928
 30
0.0
 10
11.75836457310023
 20
9.071641920846155
 30
0.0
 10
11.76950252549059
 20
9.058623722542228
 30
0.0
 10
11.77975772649187
 20
9.04640497520756
 30
0.0
 10
11.78999005031895
 20
9.034213485301699
 30
0.0
 10
11.79962721913236
 20
9.022485219467935
 30
0.0
 10
11.80792634696192
 20
9.012253638727836
 30
0.0
 10
11.81620370943931
 20
9.002048891404781
 30
0.0
 10
11.82338122184811
 20
8.99305311583634
 30
0.0
 10
11.82891828396397
 20
8.986065121426966
 30
0.0
 10
11.83444691015304
 20
8.979087773495465
 30
0.0
 10
11.83849495836635
 20
8.973920372432037
 30
0.0
 10
11.8407627876474
 20
8.971022132115982
 30
0.0
 10
11.8422498477408
 20
8.969121699155224
 30
0.0
 10
11.84300544747391
 20
8.968152715259343
 30
0.0
 10
11.84300544747392
 20
8.968152715259333
 30
0.0
  0
SPLINE
  5
132
330
1F
100
AcDbEntity
  8
0
  6
Continuous
 62
     7
370
    25
100
AcDbSpline
210
0.0
220
0.0
230
1.0
 70
     8
 71
     3
 72
    10
 73
     6
 74
     0
 42
0.00000001
 43
0.00000001
 40
0.0
 40
0.0
 40
0.0
 40
0.0
 40
0.5
 40
0.5
 40
1.0
 40
1.0
 40
1.0
 40
1.0
 10
12.04902043447649
 20
8.934265866290746
 30
0.0
 10
12.04902043447649
 20
8.934265866290746
 30
0.0
 10
12.02919411233325
 20
8.961118194532093
 30
0.0
 10
11.9617962680198
 20
9.050888372472315
 30
0.0
 10
11.9146155407287
 20
9.113083090396747
 30
0.0
 10
11.86587977587542
 20
9.176104682514838
 30
0.0
  0
SPLINE
  5
133
330
1F
100
AcDbEntity
  8
0
  6
Continuous
 62
     7
370
    25
100
AcDbSpline
210
0.0
220
0.0
230
1.0
 70
     8
 71
     3
 72
    20
 73
    16
 74
     0
 42
0.00000001
 43
0.00000001
 40
0.0
 40
0.0
 40
0.0
 40
0.0
 40
0.0000506914137003
 40
0.0000506914137003
 40
0.0000506914137003
 40
0.0001012727024566
 40
0.0001012727024566
 40
0.0001012727024566
 40
0.0001517200543611
 40
0.0001517200543611
 40
0.0001517200543611
 40
0.0002020889922115
 40
0.0002020889922115
 40
0.0002020889922115
 40
0.0002348463780882
 40
0.0002348463780882
 40
0.0002348463780882
 40
0.0002348463780882
 10
-10.21973092788399
 20
10.77402430671364
 30
0.0
 10
-10.20821435329827
 20
10.7863888438674
 30
0.0
 10
-10.1963823324203
 20
10.79877959656744
 30
0.0
 10
-10.18525692857027
 20
10.81021167088397
 30
0.0
 10
-10.17415634313208
 20
10.82161824267204
 30
0.0
 10
-10.16345677687043
 20
10.83238608943999
 30
0.0
 10
-10.15411173698644
 20
10.84167215409297
 30
0.0
 10
-10.14479120547108
 20
10.85093386504617
 30
0.0
 10
-10.13656290123292
 20
10.85897971315688
 30
0.0
 10
-10.13016721398488
 20
10.86519150093219
 30
0.0
 10
-10.123781270812
 20
10.87139382481026
 30
0.0
 10
-10.11904719216909
 20
10.87594104676332
 30
0.0
 10
-10.11639172795919
 20
10.87848886080825
 30
0.0
 10
-10.11465048804797
 20
10.8801595123971
 30
0.0
 10
-10.11376240971118
 20
10.88100873416723
 30
0.0
 10
-10.11376240971117
 20
10.88100873416724
 30
0.0
  0
SPLINE
  5
135
330
1F
100
AcDbEntity
  8
0
  6
Continuous
 62
     7
370
    25
100
AcDbSpline
210
0.0
220
0.0
230
1.0
 70
     8
 71
     3
 72
    10
 73
     6
 74
     0
 42
0.00000001
 43
0.00000001
 40
0.0
 40
0.0
 40
0.0
 40
0.0
 40
0.5
 40
0.5
 40
1.0
 40
1.0
 40
1.0
 40
1.0
 10
-10.10076681772866
 20
11.0893872551134
 30
0.0
 10
-10.10076681772866
 20
11.0893872551134
 30
0.0
 10
-10.12548901476831
 20
11.0669608520304
 30
0.0
 10
-10.20802566443076
 20
10.99087632188125
 30
0.0
 10
-10.26515995496725
 20
10.9376797354277
 30
0.0
 10
-10.32296053321406
 20
10.88285283506604
 30
0.0
  0
SPLINE
  5
136
330
1F
100
AcDbEntity
  8
0
  6
Continuous
 62
     7
370
    25
100
AcDbSpline
210
0.0
220
0.0
230
1.0
 70
     8
 71
     3
 72
    20
 73
    16
 74
     0
 42
0.00000001
 43
0.00000001
 40
0.0
 40
0.0
 40
0.0
 40
0.0
 40
0.0000503442453462
 40
0.0000503442453462
 40
0.0000503442453462
 40
0.0001007037039703
 40
0.0001007037039703
 40
0.0001007037039703
 40
0.0001511080946258
 40
0.0001511080946258
 40
0.0001511080946258
 40
0.0002016169066031
 40
0.0002016169066031
 40
0.0002016169066031
 40
0.0002348445797811
 40
0.0002348445797811
 40
0.0002348445797811
 40
0.0002348445797811
 10
-10.11376240971149
 20
-10.88100873416685
 30
0.0
 10
-10.11376240971149
 20
-10.88100873416685
 30
0.0
 10
-10.11586036382139
 20
-10.8790052859998
 30
0.0
 10
-10.11986715436615
 20
-10.87514929220415
 30
0.0
 10
-10.12387513771801
 20
-10.87129215049304
 30
0.0
 10
-10.12990300204153
 20
-10.86547353057974
 30
0.0
 10
-10.13740812991447
 20
-10.85813536627122
 30
0.0
 10
-10.14491992936818
 20
-10.8507906788019
 30
0.0
 10
-10.15411735374746
 20
-10.84171882241275
 30
0.0
 10
-10.16417702255725
 20
-10.83161902679041
 30
0.0
 10
-10.17425765013006
 20
-10.82149818880306
 30
0.0
 10
-10.18547935741984
 20
-10.81006399675008
 30
0.0
 10
-10.19685394536385
 20
-10.79821295901365
 30
0.0
 10
-10.20439753038833
 20
-10.79035339423353
 30
0.0
 10
-10.21212066046111
 20
-10.78219491626474
 30
0.0
 10
-10.219730927884
 20
-10.77402430671414
 30
0.0
  0
SPLINE
  5
138
330
1F
100
AcDbEntity
  8
0
  6
Continuous
 62
     7
370
    25
100
AcDbSpline
210
0.0
220
0.0
230
1.0
 70
     8
 71
     3
 72
    10
 73
     6
 74
     0
 42
0.00000001
 43
0.00000001
 40
0.0
 40
0.0
 40
0.0
 40
0.0
 40
0.5
 40
0.5
 40
1.0
 40
1.0
 40
1.0
 40
1.0
 10
-10.32296053321384
 20
-10.88285283506624
 30
0.0
 10
-10.26515870361496
 20
-10.93768092240141
 30
0.0
 10
-10.20786905553761
 20
-10.99102147563469
 30
0.0
 10
-10.12541754345277
 20
-11.06702594664004
 30
0.0
 10
-10.10076681772845
 20
-11.0893872551136
 30
0.0
 10
-10.10076681772845
 20
-11.0893872551136
 30
0.0
  0
SPLINE
  5
13A
330
1F
100
AcDbEntity
  8
0
  6
Continuous
 62
     7
370
    25
100
AcDbSpline
210
0.0
220
0.0
230
1.0
 70
     8
 71
     3
 72
    20
 73
    16
 74
     0
 42
0.00000001
 43
0.00000001
 40
0.0
 40
0.0
 40
0.0
 40
0.0
 40
0.0000503442453462
 40
0.0000503442453462
 40
0.0000503442453462
 40
0.0001007037039703
 40
0.0001007037039703
 40
0.0001007037039703
 40
0.0001511080946258
 40
0.0001511080946258
 40
0.0001511080946258
 40
0.0002016169066031
 40
0.0002016169066031
 40
0.0002016169066031
 40
0.0002348445797811
 40
0.0002348445797811
 40
0.0002348445797811
 40
0.0002348445797811
 10
11.84300544747321
 20
-8.968152715260155
 30
0.0
 10
11.84300544747321
 20
-8.968152715260155
 30
0.0
 10
11.84122315380681
 20
-8.970441523966013
 30
0.0
 10
11.83778968385948
 20
-8.974815805934803
 30
0.0
 10
11.83435519178053
 20
-8.97919139011157
 30
0.0
 10
11.82917231119064
 20
-8.985773884683475
 30
0.0
 10
11.82262616278533
 20
-8.993978977057342
 30
0.0
 10
11.81607419527093
 20
-9.002191363235847
 30
0.0
 10
11.80797334355216
 20
-9.012254533461409
 30
0.0
 10
11.79893648260209
 20
-9.023278958722829
 30
0.0
 10
11.78988079385255
 20
-9.034326352763932
 30
0.0
 10
11.77963317132969
 20
-9.046641128240198
 30
0.0
 10
11.76898619223154
 20
-9.05914993243604
 30
0.0
 10
11.76192515472618
 20
-9.067445725520624
 30
0.0
 10
11.7545847768957
 20
-9.07595021575779
 30
0.0
 10
11.74722097811528
 20
-9.08434363569235
 30
0.0
  0
SPLINE
  5
13B
330
1F
100
AcDbEntity
  8
0
  6
Continuous
 62
     7
370
    25
100
AcDbSpline
210
0.0
220
0.0
230
1.0
 70
     8
 71
     3
 72
    10
 73
     6
 74
     0
 42
0.00000001
 43
0.00000001
 40
0.0
 40
0.0
 40
0.0
 40
0.0
 40
0.5
 40
0.5
 40
1.0
 40
1.0
 40
1.0
 40
1.0
 10
11.86587977587524
 20
-9.176104682515072
 30
0.0
 10
11.91461659583215
 20
-9.113081726012718
 30
0.0
 10
11.96192493525715
 20
-9.050717959153202
 30
0.0
 10
12.02925168884682
 20
-8.961040538868293
 30
0.0
 10
12.04902043447631
 20
-8.934265866290989
 30
0.0
 10
12.04902043447631
 20
-8.934265866290987
 30
0.0
  0
SPLINE
  5
13D
330
1F
100
AcDbEntity
  8
0
  6
Continuous
 62
     7
370
    25
100
AcDbSpline
210
0.0
220
0.0
230
1.0
 70
     8
 71
     3
 72
    20
 73
    16
 74
     0
 42
0.00000001
 43
0.00000001
 40
0.0
 40
0.0
 40
0.0
 40
0.0
 40
0.0000503442453462
 40
0.0000503442453462
 40
0.0000503442453462
 40
0.0001007037039703
 40
0.0001007037039703
 40
0.0001007037039703
 40
0.0001511080946258
 40
0.0001511080946258
 40
0.0001511080946258
 40
0.0002016169066031
 40
0.0002016169066031
 40
0.0002016169066031
 40
0.0002348445797811
 40
0.0002348445797811
 40
0.0002348445797811
 40
0.0002348445797811
 10
10.1137624097117
 20
10.88100873416665
 30
0.0
 10
10.1137624097117
 20
10.88100873416665
 30
0.0
 10
10.1158603638216
 20
10.8790052859996
 30
0.0
 10
10.11986715436636
 20
10.87514929220395
 30
0.0
 10
10.12387513771822
 20
10.87129215049284
 30
0.0
 10
10.12990300204174
 20
10.86547353057954
 30
0.0
 10
10.13740812991468
 20
10.85813536627101
 30
0.0
 10
10.14491992936839
 20
10.8507906788017
 30
0.0
 10
10.15411735374768
 20
10.84171882241255
 30
0.0
 10
10.16417702255746
 20
10.83161902679021
 30
0.0
 10
10.17425765013028
 20
10.82149818880286
 30
0.0
 10
10.18547935742005
 20
10.81006399674988
 30
0.0
 10
10.19685394536406
 20
10.79821295901345
 30
0.0
 10
10.20439753038855
 20
10.79035339423333
 30
0.0
 10
10.21212066046132
 20
10.78219491626454
 30
0.0
 10
10.21973092788421
 20
10.77402430671393
 30
0.0
  0
SPLINE
  5
13E
330
1F
100
AcDbEntity
  8
0
  6
Continuous
 62
     7
370
    25
100
AcDbSpline
210
0.0
220
0.0
230
1.0
 70
     8
 71
     3
 72
    10
 73
     6
 74
     0
 42
0.00000001
 43
0.00000001
 40
0.0
 40
0.0
 40
0.0
 40
0.0
 40
0.5
 40
0.5
 40
1.0
 40
1.0
 40
1.0
 40
1.0
 10
10.32296053321406
 20
10.88285283506604
 30
0.0
 10
10.26515870361518
 20
10.93768092240121
 30
0.0
 10
10.20786905553782
 20
10.99102147563448
 30
0.0
 10
10.12541754345299
 20
11.06702594663984
 30
0.0
 10
10.10076681772867
 20
11.0893872551134
 30
0.0
 10
10.10076681772867
 20
11.0893872551134
 30
0.0
  0
SPLINE
  5
140
330
1F
100
AcDbEntity
  8
0
  6
Continuous
 62
     7
370
    25
100
AcDbSpline
210
0.0
220
0.0
230
1.0
 70
     8
 71
     3
 72
    20
 73
    16
 74
     0
 42
0.00000001
 43
0.00000001
 40
0.0
 40
0.0
 40
0.0
 40
0.0
 40
0.0000503442453462
 40
0.0000503442453462
 40
0.0000503442453462
 40
0.0001007037039703
 40
0.0001007037039703
 40
0.0001007037039703
 40
0.0001511080946258
 40
0.0001511080946258
 40
0.0001511080946258
 40
0.0002016169066031
 40
0.0002016169066031
 40
0.0002016169066031
 40
0.0002348445797811
 40
0.0002348445797811
 40
0.0002348445797811
 40
0.0002348445797811
 10
-11.84300544747339
 20
8.968152715259922
 30
0.0
 10
-11.84300544747339
 20
8.968152715259922
 30
0.0
 10
-11.84122315380699
 20
8.970441523965778
 30
0.0
 10
-11.83778968385966
 20
8.974815805934568
 30
0.0
 10
-11.83435519178071
 20
8.979191390111335
 30
0.0
 10
-11.82917231119082
 20
8.985773884683242
 30
0.0
 10
-11.82262616278551
 20
8.993978977057111
 30
0.0
 10
-11.81607419527111
 20
9.002191363235616
 30
0.0
 10
-11.80797334355234
 20
9.012254533461178
 30
0.0
 10
-11.79893648260227
 20
9.023278958722598
 30
0.0
 10
-11.78988079385272
 20
9.0343263527637
 30
0.0
 10
-11.77963317132987
 20
9.046641128239965
 30
0.0
 10
-11.76898619223172
 20
9.059149932435806
 30
0.0
 10
-11.76192515472635
 20
9.067445725520392
 30
0.0
 10
-11.75458477689587
 20
9.075950215757555
 30
0.0
 10
-11.74722097811546
 20
9.084343635692118
 30
0.0
  0
SPLINE
  5
141
330
1F
100
AcDbEntity
  8
0
  6
Continuous
 62
     7
370
    25
100
AcDbSpline
210
0.0
220
0.0
230
1.0
 70
     8
 71
     3
 72
    10
 73
     6
 74
     0
 42
0.00000001
 43
0.00000001
 40
0.0
 40
0.0
 40
0.0
 40
0.0
 40
0.5
 40
0.5
 40
1.0
 40
1.0
 40
1.0
 40
1.0
 10
-11.86587977587542
 20
9.17610468251484
 30
0.0
 10
-11.91461659583233
 20
9.113081726012483
 30
0.0
 10
-11.96192493525733
 20
9.050717959152966
 30
0.0
 10
-12.029251688847
 20
8.961040538868057
 30
0.0
 10
-12.04902043447649
 20
8.934265866290751
 30
0.0
 10
-12.04902043447649
 20
8.934265866290751
 30
0.0
  0
LWPOLYLINE
  5
14E
330
1F
100
AcDbEntity
  8
0
  6
Continuous
 62
     7
370
    25
100
AcDbPolyline
 90
        3
 70
   128
 43
0.0
 10
10.1034871324
 20
-11.0869088463
 10
10.2418241642
 20
-10.9592443987
 10
10.3229605332
 20
-10.8828528351
  0
LWPOLYLINE
  5
151
330
1F
100
AcDbEntity
  8
0
  6
Continuous
 62
     7
370
    25
100
AcDbPolyline
 90
        3
 70
   128
 43
0.0
 10
-10.3229605332
 20
-10.8828528351
 10
-10.2418241642
 20
-10.9592443987
 10
-10.1007668177
 20
-11.0893872551
  0
LWPOLYLINE
  5
152
330
1F
100
AcDbEntity
  8
0
  6
Continuous
 62
     7
370
    25
100
AcDbPolyline
 90
        3
 70
   128
 43
0.0
 10
-10.1034607028
 20
11.0869329315
 10
-10.1772721857
 20
11.0192164358
 10
-10.3229605332
 20
10.8828528351
  0
LWPOLYLINE
  5
155
330
1F
100
AcDbEntity
  8
0
  6
Continuous
 62
     7
370
    25
100
AcDbPolyline
 90
        3
 70
   128
 43
0.0
 10
10.3229605332
 20
10.8828528351
 10
10.1772721857
 20
11.0192164358
 10
10.1007668177
 20
11.0893872551
  0
LINE
  5
156
330
1F
100
AcDbEntity
  8
0
  6
Continuous
 62
     7
370
    25
100
AcDbLine
 10
-2.3901280479
 20
4.3459162166
 30
0.0
 11
-2.5137553608
 21
4.2609674819
 31
0.0
  0
LINE
  5
157
330
1F
100
AcDbEntity
  8
0
  6
Continuous
 62
     7
370
    25
100
AcDbLine
 10
-1.5562687629
 20
4.9188906633
 30
0.0
 11
-1.43264145
 21
5.003839398
 31
0.0
  0
LINE
  5
158
330
1F
100
AcDbEntity
  8
0
  6
Continuous
 62
     7
370
    25
100
AcDbLine
 10
-2.9
 20
5.9882584204
 30
0.0
 11
-3.05
 21
5.9882584204
 31
0.0
  0
LINE
  5
159
330
1F
100
AcDbEntity
  8
0
  6
Continuous
 62
     7
370
    25
100
AcDbLine
 10
2.9
 20
5.9882584204
 30
0.0
 11
3.05
 21
5.9882584204
 31
0.0
  0
LINE
  5
15A
330
1F
100
AcDbEntity
  8
0
  6
Continuous
 62
     7
370
    25
100
AcDbLine
 10
2.3901280479
 20
4.3459162166
 30
0.0
 11
2.5137553608
 21
4.2609674819
 31
0.0
  0
LINE
  5
15B
330
1F
100
AcDbEntity
  8
0
  6
Continuous
 62
     7
370
    25
100
AcDbLine
 10
1.888258152
 20
5.9872517252
 30
0.0
 11
1.749960081
 21
5.988179887
 31
0.0
  0
LINE
  5
15C
330
1F
100
AcDbEntity
  8
0
  6
Continuous
 62
     7
370
    25
100
AcDbLine
 10
1.5562687629
 20
4.9188906633
 30
0.0
 11
1.43264145
 21
5.003839398
 31
0.0
  0
LINE
  5
15D
330
1F
100
AcDbEntity
  8
0
  6
Continuous
 62
     7
370
    25
100
AcDbLine
 10
-2.747308561
 20
11.9134144644
 30
0.0
 11
-2.747308561
 21
9.9252218465
 31
0.0
  0
LINE
  5
15E
330
1F
100
AcDbEntity
  8
0
  6
Continuous
 62
     7
370
    25
100
AcDbLine
 10
-2.747308561
 20
9.9252218465
 30
0.0
 11
-2.3035155659
 21
9.9252218465
 31
0.0
  0
LINE
  5
15F
330
1F
100
AcDbEntity
  8
0
  6
Continuous
 62
     7
370
    25
100
AcDbLine
 10
-2.3035155659
 20
9.9252218465
 30
0.0
 11
-2.3035155659
 21
11.9134144644
 31
0.0
  0
LINE
  5
160
330
1F
100
AcDbEntity
  8
0
  6
Continuous
 62
     7
370
    25
100
AcDbLine
 10
-2.3035155659
 20
11.9134144644
 30
0.0
 11
-2.747308561
 21
11.9134144644
 31
0.0
  0
LINE
  5
161
330
1F
100
AcDbEntity
  8
0
  6
Continuous
 62
     7
370
    25
100
AcDbLine
 10
2.3035155659
 20
11.9134144644
 30
0.0
 11
2.3035155659
 21
9.9252218465
 31
0.0
  0
LINE
  5
162
330
1F
100
AcDbEntity
  8
0
  6
Continuous
 62
     7
370
    25
100
AcDbLine
 10
2.3035155659
 20
9.9252218465
 30
0.0
 11
2.747308561
 21
9.9252218465
 31
0.0
  0
LINE
  5
163
330
1F
100
AcDbEntity
  8
0
  6
Continuous
 62
     7
370
    25
100
AcDbLine
 10
2.747308561
 20
9.9252218465
 30
0.0
 11
2.747308561
 21
11.9134144644
 31
0.0
  0
LINE
  5
164
330
1F
100
AcDbEntity
  8
0
  6
Continuous
 62
     7
370
    25
100
AcDbLine
 10
2.747308561
 20
11.9134144644
 30
0.0
 11
2.3035155659
 21
11.9134144644
 31
0.0
  0
LINE
  5
165
330
1F
100
AcDbEntity
  8
0
  6
Continuous
 62
     7
370
    25
100
AcDbLine
 10
-2.9
 20
15.70149985
 30
0.0
 11
-2.9
 21
5.9882584204
 31
0.0
  0
LINE
  5
166
330
1F
100
AcDbEntity
  8
0
  6
Continuous
 62
     7
370
    25
100
AcDbLine
 10
-2.85
 20
15.70149985
 30
0.0
 11
-2.9
 21
15.70149985
 31
0.0
  0
LINE
  5
167
330
1F
100
AcDbEntity
  8
0
  6
Continuous
 62
     7
370
    25
100
AcDbLine
 10
-2.55
 20
17.0294321627
 30
0.0
 11
-2.55
 21
16.00149985
 31
0.0
  0
LINE
  5
168
330
1F
100
AcDbEntity
  8
0
  6
Continuous
 62
     7
370
    25
100
AcDbLine
 10
-0.3769941243
 20
16.8794321627
 30
0.0
 11
-2.7
 21
16.8794321627
 31
0.0
  0
LINE
  5
169
330
1F
100
AcDbEntity
  8
0
  6
Continuous
 62
     7
370
    25
100
AcDbLine
 10
-0.3769941243
 20
17.0294321627
 30
0.0
 11
-0.3769941243
 21
15.3039929467
 31
0.0
  0
LINE
  5
16A
330
1F
100
AcDbEntity
  8
0
  6
Continuous
 62
     7
370
    25
100
AcDbLine
 10
-0.3769941243
 20
15.3039929467
 30
0.0
 11
0.315322948
 21
15.3039929467
 31
0.0
  0
LINE
  5
16B
330
1F
100
AcDbEntity
  8
0
  6
Continuous
 62
     7
370
    25
100
AcDbLine
 10
0.315322948
 20
15.3039929467
 30
0.0
 11
0.315322948
 21
17.0294321627
 31
0.0
  0
LINE
  5
16C
330
1F
100
AcDbEntity
  8
0
  6
Continuous
 62
     7
370
    25
100
AcDbLine
 10
2.7
 20
16.8794321627
 30
0.0
 11
0.315322948
 21
16.8794321627
 31
0.0
  0
LINE
  5
16D
330
1F
100
AcDbEntity
  8
0
  6
Continuous
 62
     7
370
    25
100
AcDbLine
 10
2.55
 20
15.9176804833
 30
0.0
 11
2.55
 21
17.0294321627
 31
0.0
  0
LINE
  5
16E
330
1F
100
AcDbEntity
  8
0
  6
Continuous
 62
     7
370
    25
100
AcDbLine
 10
2.9
 20
15.6176804833
 30
0.0
 11
2.85
 21
15.6176804833
 31
0.0
  0
LINE
  5
16F
330
1F
100
AcDbEntity
  8
0
  6
Continuous
 62
     7
370
    25
100
AcDbLine
 10
2.9
 20
5.9882584204
 30
0.0
 11
2.9
 21
15.6176804833
 31
0.0
  0
LINE
  5
170
330
1F
100
AcDbEntity
  8
0
  6
Continuous
 62
     7
370
    25
100
AcDbLine
 10
-2.55
 20
17.0294321627
 30
0.0
 11
2.55
 21
17.0294321627
 31
0.0
  0
LINE
  5
171
330
1F
100
AcDbEntity
  8
0
  6
Continuous
 62
     7
370
    25
100
AcDbLine
 10
-2.7
 20
16.00149985
 30
0.0
 11
-2.55
 21
16.00149985
 31
0.0
  0
LINE
  5
172
330
1F
100
AcDbEntity
  8
0
  6
Continuous
 62
     7
370
    25
100
AcDbLine
 10
-2.85
 20
15.85149985
 30
0.0
 11
-2.85
 21
15.70149985
 31
0.0
  0
LINE
  5
173
330
1F
100
AcDbEntity
  8
0
  6
Continuous
 62
     7
370
    25
100
AcDbLine
 10
-2.7
 20
16.00149985
 30
0.0
 11
-2.7
 21
16.8794321627
 31
0.0
  0
LINE
  5
174
330
1F
100
AcDbEntity
  8
0
  6
Continuous
 62
     7
370
    25
100
AcDbLine
 10
2.7
 20
16.8794321627
 30
0.0
 11
2.7
 21
15.9176804833
 31
0.0
  0
LINE
  5
175
330
1F
100
AcDbEntity
  8
0
  6
Continuous
 62
     7
370
    25
100
AcDbLine
 10
2.7
 20
15.9176804833
 30
0.0
 11
2.55
 21
15.9176804833
 31
0.0
  0
LINE
  5
176
330
1F
100
AcDbEntity
  8
0
  6
Continuous
 62
     7
370
    25
100
AcDbLine
 10
2.85
 20
15.7676804833
 30
0.0
 11
2.85
 21
15.6176804833
 31
0.0
  0
LINE
  5
177
330
1F
100
AcDbEntity
  8
0
  6
Continuous
 62
     7
370
    25
100
AcDbLine
 10
2.85
 20
15.7676804833
 30
0.0
 11
3.05
 21
15.7676804833
 31
0.0
  0
LINE
  5
178
330
1F
100
AcDbEntity
  8
0
  6
Continuous
 62
     7
370
    25
100
AcDbLine
 10
-3.05
 20
15.85149985
 30
0.0
 11
-2.85
 21
15.85149985
 31
0.0
  0
LINE
  5
179
330
1F
100
AcDbEntity
  8
0
  6
Continuous
 62
     7
370
    25
100
AcDbLine
 10
-3.05
 20
5.9882584204
 30
0.0
 11
-3.05
 21
15.85149985
 31
0.0
  0
LINE
  5
17A
330
1F
100
AcDbEntity
  8
0
  6
Continuous
 62
     7
370
    25
100
AcDbLine
 10
3.05
 20
15.7676804833
 30
0.0
 11
3.05
 21
5.9882584204
 31
0.0
  0
LINE
  5
17B
330
1F
100
AcDbEntity
  8
0
  6
Continuous
 62
     7
370
    25
100
AcDbLine
 10
-3.05
 20
10.2
 30
0.0
 11
-4.75
 21
10.2
 31
0.0
  0
LINE
  5
17C
330
1F
100
AcDbEntity
  8
0
  6
Continuous
 62
     7
370
    25
100
AcDbLine
 10
-4.75
 20
7.2
 30
0.0
 11
-3.05
 21
7.2
 31
0.0
  0
LINE
  5
17D
330
1F
100
AcDbEntity
  8
0
  6
Continuous
 62
     7
370
    25
100
AcDbLine
 10
4.75
 20
10.4
 30
0.0
 11
4.75
 21
10.2
 31
0.0
  0
LINE
  5
17E
330
1F
100
AcDbEntity
  8
0
  6
Continuous
 62
     7
370
    25
100
AcDbLine
 10
4.75
 20
10.2
 30
0.0
 11
3.05
 21
10.2
 31
0.0
  0
LINE
  5
17F
330
1F
100
AcDbEntity
  8
0
  6
Continuous
 62
     7
370
    25
100
AcDbLine
 10
3.05
 20
10.4
 30
0.0
 11
4.75
 21
10.4
 31
0.0
  0
LINE
  5
180
330
1F
100
AcDbEntity
  8
0
  6
Continuous
 62
     7
370
    25
100
AcDbLine
 10
-4.75
 20
7.0
 30
0.0
 11
-4.75
 21
7.2
 31
0.0
  0
LINE
  5
181
330
1F
100
AcDbEntity
  8
0
  6
Continuous
 62
     7
370
    25
100
AcDbLine
 10
-3.05
 20
7.0
 30
0.0
 11
-4.75
 21
7.0
 31
0.0
  0
LINE
  5
182
330
1F
100
AcDbEntity
  8
0
  6
Continuous
 62
     7
370
    25
100
AcDbLine
 10
-4.75
 20
10.4
 30
0.0
 11
-4.75
 21
10.2
 31
0.0
  0
LINE
  5
183
330
1F
100
AcDbEntity
  8
0
  6
Continuous
 62
     7
370
    25
100
AcDbLine
 10
-4.75
 20
10.4
 30
0.0
 11
-3.05
 21
10.4
 31
0.0
  0
LINE
  5
184
330
1F
100
AcDbEntity
  8
0
  6
Continuous
 62
     7
370
    25
100
AcDbLine
 10
3.05
 20
7.2
 30
0.0
 11
4.75
 21
7.2
 31
0.0
  0
LINE
  5
185
330
1F
100
AcDbEntity
  8
0
  6
Continuous
 62
     7
370
    25
100
AcDbLine
 10
4.75
 20
7.0
 30
0.0
 11
4.75
 21
7.2
 31
0.0
  0
LINE
  5
186
330
1F
100
AcDbEntity
  8
0
  6
Continuous
 62
     7
370
    25
100
AcDbLine
 10
4.75
 20
7.0
 30
0.0
 11
3.05
 21
7.0
 31
0.0
  0
LINE
  5
187
330
1F
100
AcDbEntity
  8
0
  6
Continuous
 62
     7
370
    25
100
AcDbLine
 10
-4.5055521304
 20
-14.15
 30
0.0
 11
4.5055521304
 21
-14.15
 31
0.0
  0
LINE
  5
188
330
1F
100
AcDbEntity
  8
0
  6
Continuous
 62
     7
370
    25
100
AcDbLine
 10
-12.0490204345
 20
8.9342658663
 30
0.0
 11
-11.9285302301
 21
8.8449232076
 31
0.0
  0
LINE
  5
189
330
1F
100
AcDbEntity
  8
0
  6
Continuous
 62
     7
370
    25
100
AcDbLine
 10
12.0490204345
 20
-8.9342658663
 30
0.0
 11
11.9285302301
 21
-8.8449232076
 31
0.0
  0
LINE
  5
18A
330
1F
100
AcDbEntity
  8
0
  6
Continuous
 62
     7
370
    25
100
AcDbLine
 10
11.9285302301
 20
8.8449232076
 30
0.0
 11
12.0490204345
 21
8.9342658663
 31
0.0
  0
LINE
  5
18B
330
1F
100
AcDbEntity
  8
0
  6
Continuous
 62
     7
370
    25
100
AcDbLine
 10
-11.9285302301
 20
-8.8449232076
 30
0.0
 11
-12.0490204345
 21
-8.9342658663
 31
0.0
  0
LINE
  5
18C
330
1F
100
AcDbEntity
  8
0
  6
Continuous
 62
     7
370
    25
100
AcDbLine
 10
10.1007668177
 20
11.0893872551
 30
0.0
 11
9.9997591496
 21
10.9784933826
 31
0.0
  0
LINE
  5
18D
330
1F
100
AcDbEntity
  8
0
  6
Continuous
 62
     7
370
    25
100
AcDbLine
 10
-9.9997591496
 20
10.9784933826
 30
0.0
 11
-10.1007668177
 21
11.0893872551
 31
0.0
  0
LINE
  5
18E
330
1F
100
AcDbEntity
  8
0
  6
Continuous
 62
     7
370
    25
100
AcDbLine
 10
-10.1137624097
 20
10.8810087342
 30
0.0
 11
-9.9997591496
 21
10.9784933826
 31
0.0
  0
LINE
  5
18F
330
1F
100
AcDbEntity
  8
0
  6
Continuous
 62
     7
370
    25
100
AcDbLine
 10
-11.9285302301
 20
8.8449232076
 30
0.0
 11
-11.8430054475
 21
8.9681527153
 31
0.0
  0
LINE
  5
190
330
1F
100
AcDbEntity
  8
0
  6
Continuous
 62
     7
370
    25
100
AcDbLine
 10
-11.9285302301
 20
-8.8449232076
 30
0.0
 11
-11.8430054475
 21
-8.9681527153
 31
0.0
  0
LINE
  5
191
330
1F
100
AcDbEntity
  8
0
  6
Continuous
 62
     7
370
    25
100
AcDbLine
 10
-9.9997591496
 20
-10.9784933826
 30
0.0
 11
-10.1137624097
 21
-10.8810087342
 31
0.0
  0
LINE
  5
192
330
1F
100
AcDbEntity
  8
0
  6
Continuous
 62
     7
370
    25
100
AcDbLine
 10
10.1137624097
 20
-10.8810087342
 30
0.0
 11
9.9997591496
 21
-10.9784933826
 31
0.0
  0
LINE
  5
193
330
1F
100
AcDbEntity
  8
0
  6
Continuous
 62
     7
370
    25
100
AcDbLine
 10
11.9285302301
 20
-8.8449232076
 30
0.0
 11
11.8430054475
 21
-8.9681527153
 31
0.0
  0
LINE
  5
194
330
1F
100
AcDbEntity
  8
0
  6
Continuous
 62
     7
370
    25
100
AcDbLine
 10
9.9997591496
 20
-10.9784933826
 30
0.0
 11
10.1007668177
 21
-11.0893872551
 31
0.0
  0
LINE
  5
195
330
1F
100
AcDbEntity
  8
0
  6
Continuous
 62
     7
370
    25
100
AcDbLine
 10
4.5287967497
 20
-14.3
 30
0.0
 11
-4.5287967497
 21
-14.3
 31
0.0
  0
LINE
  5
196
330
1F
100
AcDbEntity
  8
0
  6
Continuous
 62
     7
370
    25
100
AcDbLine
 10
11.8430054475
 20
8.9681527153
 30
0.0
 11
11.9285302301
 21
8.8449232076
 31
0.0
  0
LINE
  5
197
330
1F
100
AcDbEntity
  8
0
  6
Continuous
 62
     7
370
    25
100
AcDbLine
 10
9.9997591496
 20
10.9784933826
 30
0.0
 11
10.1137624097
 21
10.8810087342
 31
0.0
  0
LINE
  5
198
330
1F
100
AcDbEntity
  8
0
  6
Continuous
 62
     7
370
    25
100
AcDbLine
 10
-9.9997591496
 20
-10.9784933826
 30
0.0
 11
-10.1007668177
 21
-11.0893872551
 31
0.0
  0
LINE
  5
199
330
1F
100
AcDbEntity
  8
0
  6
Continuous
 62
     7
370
    25
100
AcDbLine
 10
10.2197309279
 20
-10.7740243067
 30
0.0
 11
10.3229605332
 21
-10.8828528351
 31
0.0
  0
LINE
  5
19A
330
1F
100
AcDbEntity
  8
0
  6
Continuous
 62
     7
370
    25
100
AcDbLine
 10
-11.7472209781
 20
-9.0843436357
 30
0.0
 11
-11.8658797759
 21
-9.1761046825
 31
0.0
  0
LINE
  5
19B
330
1F
100
AcDbEntity
  8
0
  6
Continuous
 62
     7
370
    25
100
AcDbLine
 10
11.7472209781
 20
9.0843436357
 30
0.0
 11
11.8658797759
 21
9.1761046825
 31
0.0
  0
LINE
  5
19C
330
1F
100
AcDbEntity
  8
0
  6
Continuous
 62
     7
370
    25
100
AcDbLine
 10
-10.2197309279
 20
10.7740243067
 30
0.0
 11
-10.3229605332
 21
10.8828528351
 31
0.0
  0
LINE
  5
19D
330
1F
100
AcDbEntity
  8
0
  6
Continuous
 62
     7
370
    25
100
AcDbLine
 10
-10.2197309279
 20
-10.7740243067
 30
0.0
 11
-10.3229605332
 21
-10.8828528351
 31
0.0
  0
LINE
  5
19E
330
1F
100
AcDbEntity
  8
0
  6
Continuous
 62
     7
370
    25
100
AcDbLine
 10
11.8658797759
 20
-9.1761046825
 30
0.0
 11
11.7472209781
 21
-9.0843436357
 31
0.0
  0
LINE
  5
19F
330
1F
100
AcDbEntity
  8
0
  6
Continuous
 62
     7
370
    25
100
AcDbLine
 10
10.3229605332
 20
10.8828528351
 30
0.0
 11
10.2197309279
 21
10.7740243067
 31
0.0
  0
LINE
  5
1A0
330
1F
100
AcDbEntity
  8
0
  6
Continuous
 62
     7
370
    25
100
AcDbLine
 10
-11.8658797759
 20
9.1761046825
 30
0.0
 11
-11.7472209781
 21
9.0843436357
 31
0.0
  0
LINE
  5
1A1
330
1F
100
AcDbEntity
  8
0
  6
Continuous
 62
     7
370
    25
100
AcDbLine
 10
11.8658797759
 20
-9.1761046825
 30
0.0
 11
12.0490204345
 21
-8.9342658663
 31
0.0
  0
LINE
  5
1A2
330
1F
100
AcDbEntity
  8
0
  6
Continuous
 62
     7
370
    25
100
AcDbLine
 10
-12.0468030527
 20
-8.9372555189
 30
0.0
 11
-11.8658797759
 21
-9.1761046825
 31
0.0
  0
LINE
  5
1A3
330
1F
100
AcDbEntity
  8
0
  6
Continuous
 62
     7
370
    25
100
AcDbLine
 10
-11.8658797759
 20
9.1761046825
 30
0.0
 11
-12.0490204345
 21
8.9342658663
 31
0.0
  0
LINE
  5
1A4
330
1F
100
AcDbEntity
  8
0
  6
Continuous
 62
     7
370
    25
100
AcDbLine
 10
12.0468030527
 20
8.9372555189
 30
0.0
 11
11.8658797759
 21
9.1761046825
 31
0.0
  0
ARC
  5
1A5
330
1F
100
AcDbEntity
  8
0
  6
Continuous
 62
     7
370
    25
100
AcDbCircle
 10
0.0
 20
5.9882584204
 30
0.0
 40
2.899999999999987
100
AcDbArc
 50
180.0
 51
214.4943452516
  0
ARC
  5
1A6
330
1F
100
AcDbEntity
  8
0
  6
Continuous
 62
     7
370
    25
100
AcDbCircle
 10
0.0
 20
5.9882584204
 30
0.0
 40
3.050000000000002
100
AcDbArc
 50
180.0
 51
214.4943452516
  0
ARC
  5
1A7
330
1F
100
AcDbEntity
  8
0
  6
Continuous
 62
     7
370
    25
100
AcDbCircle
 10
0.0
 20
5.9882584204
 30
0.0
 40
2.900000000000003
100
AcDbArc
 50
325.5056547484
 51
0.0
  0
ARC
  5
1A8
330
1F
100
AcDbEntity
  8
0
  6
Continuous
 62
     7
370
    25
100
AcDbCircle
 10
0.0
 20
5.9882584204
 30
0.0
 40
3.050000000000011
100
AcDbArc
 50
325.5056547484
 51
0.0
  0
ARC
  5
1A9
330
1F
100
AcDbEntity
  8
0
  6
Continuous
 62
     7
370
    25
100
AcDbCircle
 10
0.0
 20
5.9882584204
 30
0.0
 40
1.888258420392925
100
AcDbArc
 50
325.5056547483
 51
359.9694536588
  0
ARC
  5
1AA
330
1F
100
AcDbEntity
  8
0
  6
Continuous
 62
     7
370
    25
100
AcDbCircle
 10
0.0
 20
5.9882584204
 30
0.0
 40
1.888258420392916
100
AcDbArc
 50
180.0
 51
214.4943452517
  0
ARC
  5
1AB
330
1F
100
AcDbEntity
  8
0
  6
Continuous
 62
     7
370
    25
100
AcDbCircle
 10
0.0
 20
6.0115914223
 30
0.0
 40
1.88841501519188
100
AcDbArc
 50
359.2614968006
 51
180.7079616222
  0
ARC
  5
1AC
330
1F
100
AcDbEntity
  8
0
  6
Continuous
 62
     7
370
    25
100
AcDbCircle
 10
-2.85
 20
16.00149985
 30
0.0
 40
0.3000000000000029
100
AcDbArc
 50
270.0
 51
0.0
  0
ARC
  5
1AD
330
1F
100
AcDbEntity
  8
0
  6
Continuous
 62
     7
370
    25
100
AcDbCircle
 10
2.85
 20
15.9176804833
 30
0.0
 40
0.3000000000000007
100
AcDbArc
 50
180.0
 51
270.0
  0
ARC
  5
1AE
330
1F
100
AcDbEntity
  8
0
  6
Continuous
 62
     7
370
    25
100
AcDbCircle
 10
-2.55
 20
16.8794321627
 30
0.0
 40
0.1500000000000057
100
AcDbArc
 50
90.0
 51
180.0
  0
ARC
  5
1AF
330
1F
100
AcDbEntity
  8
0
  6
Continuous
 62
     7
370
    25
100
AcDbCircle
 10
-2.85
 20
16.00149985
 30
0.0
 40
0.1500000000000021
100
AcDbArc
 50
270.0
 51
0.0
  0
ARC
  5
1B0
330
1F
100
AcDbEntity
  8
0
  6
Continuous
 62
     7
370
    25
100
AcDbCircle
 10
2.55
 20
16.8794321627
 30
0.0
 40
0.1499999999999986
100
AcDbArc
 50
0.0
 51
90.0
  0
ARC
  5
1B1
330
1F
100
AcDbEntity
  8
0
  6
Continuous
 62
     7
370
    25
100
AcDbCircle
 10
3.05
 20
15.6176804833
 30
0.0
 40
0.1499999999999986
100
AcDbArc
 50
90.0
 51
180.0
  0
ARC
  5
1B2
330
1F
100
AcDbEntity
  8
0
  6
Continuous
 62
     7
370
    25
100
AcDbCircle
 10
-3.05
 20
15.70149985
 30
0.0
 40
0.1499999999999968
100
AcDbArc
 50
0.0
 51
90.0
  0
ARC
  5
1B3
330
1F
100
AcDbEntity
  8
0
  6
Continuous
 62
     7
370
    25
100
AcDbCircle
 10
2.85
 20
15.9176804833
 30
0.0
 40
0.1500000000000021
100
AcDbArc
 50
180.0
 51
270.0
  0
ARC
  5
1B4
330
1F
100
AcDbEntity
  8
0
  6
Continuous
 62
     7
370
    25
100
AcDbCircle
 10
-4.75
 20
8.7
 30
0.0
 40
1.499999999999996
100
AcDbArc
 50
90.0
 51
270.0
  0
ARC
  5
1B5
330
1F
100
AcDbEntity
  8
0
  6
Continuous
 62
     7
370
    25
100
AcDbCircle
 10
4.75
 20
8.7
 30
0.0
 40
1.499999999999996
100
AcDbArc
 50
270.0
 51
90.0
  0
ARC
  5
1B6
330
1F
100
AcDbEntity
  8
0
  6
Continuous
 62
     7
370
    25
100
AcDbCircle
 10
4.75
 20
8.7
 30
0.0
 40
1.700000000000003
100
AcDbArc
 50
270.0
 51
90.0
  0
ARC
  5
1B7
330
1F
100
AcDbEntity
  8
0
  6
Continuous
 62
     7
370
    25
100
AcDbCircle
 10
-4.75
 20
8.7
 30
0.0
 40
1.700000000000003
100
AcDbArc
 50
90.0
 51
270.0
  0
ARC
  5
1B8
330
1F
100
AcDbEntity
  8
0
  6
Continuous
 62
     7
370
    25
100
AcDbCircle
 10
11.1017906644
 20
10.0361417814
 30
0.0
 40
1.45
100
AcDbArc
 50
139.4661139829
 51
304.7617476909
  0
ARC
  5
1B9
330
1F
100
AcDbEntity
  8
0
  6
Continuous
 62
     7
370
    25
100
AcDbCircle
 10
0.0
 20
0.0
 30
0.0
 40
14.84999999999984
100
AcDbArc
 50
7.7898290185
 51
36.5566808092
  0
ARC
  5
1BA
330
1F
100
AcDbEntity
  8
0
  6
Continuous
 62
     7
370
    25
100
AcDbCircle
 10
0.0
 20
0.0
 30
0.0
 40
14.84999999999811
100
AcDbArc
 50
323.4433191908
 51
352.2101709815
  0
ARC
  5
1BB
330
1F
100
AcDbEntity
  8
0
  6
Continuous
 62
     7
370
    25
100
AcDbCircle
 10
11.1017906644
 20
-10.0361417814
 30
0.0
 40
1.450000000000001
100
AcDbArc
 50
55.238252309
 51
220.5338860171
  0
ARC
  5
1BC
330
1F
100
AcDbEntity
  8
0
  6
Continuous
 62
     7
370
    25
100
AcDbCircle
 10
0.0
 20
0.0
 30
0.0
 40
14.84999999999985
100
AcDbArc
 50
287.66218152
 51
312.3288191353
  0
ARC
  5
1BD
330
1F
100
AcDbEntity
  8
0
  6
Continuous
 62
     7
370
    25
100
AcDbCircle
 10
0.0
 20
0.0
 30
0.0
 40
14.84999999999769
100
AcDbArc
 50
227.6711808647
 51
252.33781848
  0
ARC
  5
1BE
330
1F
100
AcDbEntity
  8
0
  6
Continuous
 62
     7
370
    25
100
AcDbCircle
 10
-11.1017906644
 20
-10.0361417814
 30
0.0
 40
1.450000000000002
100
AcDbArc
 50
319.4661139829
 51
124.7617476909
  0
ARC
  5
1BF
330
1F
100
AcDbEntity
  8
0
  6
Continuous
 62
     7
370
    25
100
AcDbCircle
 10
0.0
 20
0.0
 30
0.0
 40
14.84999999999996
100
AcDbArc
 50
187.7898290185
 51
216.5566808092
  0
ARC
  5
1C0
330
1F
100
AcDbEntity
  8
0
  6
Continuous
 62
     7
370
    25
100
AcDbCircle
 10
0.0
 20
0.0
 30
0.0
 40
14.84999999999994
100
AcDbArc
 50
143.4433191908
 51
172.2101709815
  0
ARC
  5
1C1
330
1F
100
AcDbEntity
  8
0
  6
Continuous
 62
     7
370
    25
100
AcDbCircle
 10
-11.1017906644
 20
10.0361417814
 30
0.0
 40
1.450000000000003
100
AcDbArc
 50
235.2382523091
 51
40.5338860171
  0
ARC
  5
1C2
330
1F
100
AcDbEntity
  8
0
  6
Continuous
 62
     7
370
    25
100
AcDbCircle
 10
0.0
 20
0.0
 30
0.0
 40
14.85000000000184
100
AcDbArc
 50
101.8521666174
 51
132.3288191353
  0
ARC
  5
1C3
330
1F
100
AcDbEntity
  8
0
  6
Continuous
 62
     7
370
    25
100
AcDbCircle
 10
0.0
 20
0.0
 30
0.0
 40
14.8499999999985
100
AcDbArc
 50
47.6711808646
 51
78.1478333826
  0
ARC
  5
1C4
330
1F
100
AcDbEntity
  8
0
  6
Continuous
 62
     7
370
    25
100
AcDbCircle
 10
0.0
 20
0.0
 30
0.0
 40
14.99999999999994
100
AcDbArc
 50
143.4433191908
 51
172.7114218576
  0
ARC
  5
1C5
330
1F
100
AcDbEntity
  8
0
  6
Continuous
 62
     7
370
    25
100
AcDbCircle
 10
0.0
 20
0.0
 30
0.0
 40
14.99999999999994
100
AcDbArc
 50
323.4433191908
 51
352.7114218576
  0
ARC
  5
1C6
330
1F
100
AcDbEntity
  8
0
  6
Continuous
 62
     7
370
    25
100
AcDbCircle
 10
0.0
 20
0.0
 30
0.0
 40
14.99999999999997
100
AcDbArc
 50
7.2885781424
 51
36.5566808092
  0
ARC
  5
1C7
330
1F
100
AcDbEntity
  8
0
  6
Continuous
 62
     7
370
    25
100
AcDbCircle
 10
0.0
 20
0.0
 30
0.0
 40
14.99999999999995
100
AcDbArc
 50
187.2885781424
 51
216.5566808092
  0
ARC
  5
1C8
330
1F
100
AcDbEntity
  8
0
  6
Continuous
 62
     7
370
    25
100
AcDbCircle
 10
0.0
 20
0.0
 30
0.0
 40
15.00000000000013
100
AcDbArc
 50
47.6711808647
 51
78.2680486612
  0
ARC
  5
1C9
330
1F
100
AcDbEntity
  8
0
  6
Continuous
 62
     7
370
    25
100
AcDbCircle
 10
0.0
 20
0.0
 30
0.0
 40
15.00000000000012
100
AcDbArc
 50
101.7319513388
 51
132.3288191353
  0
ARC
  5
1CA
330
1F
100
AcDbEntity
  8
0
  6
Continuous
 62
     7
370
    25
100
AcDbCircle
 10
-11.1017906644
 20
10.0361417814
 30
0.0
 40
1.3
100
AcDbArc
 50
235.2382523091
 51
40.5338860171
  0
ARC
  5
1CB
330
1F
100
AcDbEntity
  8
0
  6
Continuous
 62
     7
370
    25
100
AcDbCircle
 10
-9.9997591496
 20
10.9784933826
 30
0.0
 40
0.1499999999999984
100
AcDbArc
 50
132.3288191353
 51
220.5338860171
  0
ARC
  5
1CC
330
1F
100
AcDbEntity
  8
0
  6
Continuous
 62
     7
370
    25
100
AcDbCircle
 10
-11.9285302301
 20
-8.8449232076
 30
0.0
 40
0.1500000000000068
100
AcDbArc
 50
216.5566808092
 51
304.7617476909
  0
ARC
  5
1CD
330
1F
100
AcDbEntity
  8
0
  6
Continuous
 62
     7
370
    25
100
AcDbCircle
 10
-11.1017906644
 20
-10.0361417814
 30
0.0
 40
1.300000000000002
100
AcDbArc
 50
319.4661139829
 51
124.7617476909
  0
ARC
  5
1CE
330
1F
100
AcDbEntity
  8
0
  6
Continuous
 62
     7
370
    25
100
AcDbCircle
 10
11.1017906644
 20
-10.0361417814
 30
0.0
 40
1.3
100
AcDbArc
 50
55.2382523091
 51
220.5338860171
  0
ARC
  5
1CF
330
1F
100
AcDbEntity
  8
0
  6
Continuous
 62
     7
370
    25
100
AcDbCircle
 10
0.0
 20
0.0
 30
0.0
 40
14.9999999999999
100
AcDbArc
 50
287.5729463086
 51
312.3288191353
  0
ARC
  5
1D0
330
1F
100
AcDbEntity
  8
0
  6
Continuous
 62
     7
370
    25
100
AcDbCircle
 10
11.9285302301
 20
-8.8449232076
 30
0.0
 40
0.1499999999999966
100
AcDbArc
 50
235.2382523091
 51
323.4433191908
  0
ARC
  5
1D1
330
1F
100
AcDbEntity
  8
0
  6
Continuous
 62
     7
370
    25
100
AcDbCircle
 10
11.1017906644
 20
10.0361417814
 30
0.0
 40
1.3
100
AcDbArc
 50
139.4661139829
 51
304.7617476909
  0
ARC
  5
1D2
330
1F
100
AcDbEntity
  8
0
  6
Continuous
 62
     7
370
    25
100
AcDbCircle
 10
0.0
 20
0.0
 30
0.0
 40
14.99999999999996
100
AcDbArc
 50
227.6711808647
 51
252.4270536915
  0
ARC
  5
1D3
330
1F
100
AcDbEntity
  8
0
  6
Continuous
 62
     7
370
    25
100
AcDbCircle
 10
-11.9285302301
 20
8.8449232076
 30
0.0
 40
0.1500000000000015
100
AcDbArc
 50
55.2382523091
 51
143.4433191908
  0
ARC
  5
1D4
330
1F
100
AcDbEntity
  8
0
  6
Continuous
 62
     7
370
    25
100
AcDbCircle
 10
11.9285302301
 20
8.8449232076
 30
0.0
 40
0.1499999999999965
100
AcDbArc
 50
36.5566808092
 51
124.761747691
  0
ARC
  5
1D5
330
1F
100
AcDbEntity
  8
0
  6
Continuous
 62
     7
370
    25
100
AcDbCircle
 10
9.9997591496
 20
-10.9784933826
 30
0.0
 40
0.150000000000003
100
AcDbArc
 50
312.3288191353
 51
40.5338860171
  0
ARC
  5
1D6
330
1F
100
AcDbEntity
  8
0
  6
Continuous
 62
     7
370
    25
100
AcDbCircle
 10
9.9997591496
 20
10.9784933826
 30
0.0
 40
0.1500000000000015
100
AcDbArc
 50
319.4661139829
 51
47.6711808647
  0
ARC
  5
1D7
330
1F
100
AcDbEntity
  8
0
  6
Continuous
 62
     7
370
    25
100
AcDbCircle
 10
-9.9997591496
 20
-10.9784933826
 30
0.0
 40
0.1500000000000098
100
AcDbArc
 50
139.4661139829
 51
227.6711808647
  0
ARC
  5
1D8
330
1F
100
AcDbEntity
  8
0
  6
Continuous
 62
     7
370
    25
100
AcDbCircle
 10
-11.1017906644
 20
-10.0361417814
 30
0.0
 40
1.150000000000001
100
AcDbArc
 50
320.0860065511
 51
124.1418551228
  0
ARC
  5
1D9
330
1F
100
AcDbEntity
  8
0
  6
Continuous
 62
     7
370
    25
100
AcDbCircle
 10
11.1017906644
 20
10.0361417814
 30
0.0
 40
1.149999999999998
100
AcDbArc
 50
140.0860065511
 51
304.1418551228
  0
ARC
  5
1DA
330
1F
100
AcDbEntity
  8
0
  6
Continuous
 62
     7
370
    25
100
AcDbCircle
 10
11.1017906644
 20
-10.0361417814
 30
0.0
 40
1.15
100
AcDbArc
 50
55.8581448772
 51
219.9139934489
  0
ARC
  5
1DB
330
1F
100
AcDbEntity
  8
0
  6
Continuous
 62
     7
370
    25
100
AcDbCircle
 10
-11.1017906644
 20
10.0361417814
 30
0.0
 40
1.149999999999999
100
AcDbArc
 50
235.8581448772
 51
39.9139934489
  0
ARC
  5
1DC
330
1F
100
AcDbEntity
  8
0
  6
Continuous
 62
     7
370
    25
100
AcDbCircle
 10
0.0
 20
0.0
 30
0.0
 40
14.8500000000008
100
AcDbArc
 50
133.4875838446
 51
142.2845544815
  0
ARC
  5
1DD
330
1F
100
AcDbEntity
  8
0
  6
Continuous
 62
     7
370
    25
100
AcDbCircle
 10
0.0
 20
0.0
 30
0.0
 40
14.85000000000102
100
AcDbArc
 50
313.4875838446
 51
322.2845544815
  0
ARC
  5
1DE
330
1F
100
AcDbEntity
  8
0
  6
Continuous
 62
     7
370
    25
100
AcDbCircle
 10
0.0
 20
0.0
 30
0.0
 40
14.85000000000179
100
AcDbArc
 50
37.7154455185
 51
46.5124161554
  0
ARC
  5
1DF
330
1F
100
AcDbEntity
  8
0
  6
Continuous
 62
     7
370
    25
100
AcDbCircle
 10
0.0
 20
0.0
 30
0.0
 40
15.00000000000112
100
AcDbArc
 50
37.7154455185
 51
46.5124161554
  0
ARC
  5
1E0
330
1F
100
AcDbEntity
  8
0
  6
Continuous
 62
     7
370
    25
100
AcDbCircle
 10
0.0
 20
0.0
 30
0.0
 40
15.00000000000151
100
AcDbArc
 50
133.4875838446
 51
142.2845544815
  0
ARC
  5
1E1
330
1F
100
AcDbEntity
  8
0
  6
Continuous
 62
     7
370
    25
100
AcDbCircle
 10
0.0
 20
0.0
 30
0.0
 40
15.00000000000091
100
AcDbArc
 50
313.4875838446
 51
322.2845544815
  0
ARC
  5
1E2
330
1F
100
AcDbEntity
  8
0
  6
Continuous
 62
     7
370
    25
100
AcDbCircle
 10
0.0
 20
0.0
 30
0.0
 40
14.85000000000174
100
AcDbArc
 50
217.7154455185
 51
226.5124161554
  0
ARC
  5
1E3
330
1F
100
AcDbEntity
  8
0
  6
Continuous
 62
     7
370
    25
100
AcDbCircle
 10
0.0
 20
0.0
 30
0.0
 40
15.00000000000095
100
AcDbArc
 50
217.7154455185
 51
226.5124161554
  0
ENDSEC
  0
SECTION
  2
OBJECTS
  0
DICTIONARY
  5
C
330
0
100
AcDbDictionary
281
     1
  3
ACAD_GROUP
350
D
  3
ACAD_LAYOUT
350
1A
  3
ACAD_MLINESTYLE
350
17
  3
ACAD_PLOTSETTINGS
350
19
  3
ACAD_PLOTSTYLENAME
350
E
  3
ACAD_SCALELIST
350
47
  3
DWGPROPS
350
1E4
  0
DICTIONARY
  5
D
102
{ACAD_REACTORS
330
C
102
}
330
C
100
AcDbDictionary
281
     1
  0
DICTIONARY
  5
1A
102
{ACAD_REACTORS
330
C
102
}
330
C
100
AcDbDictionary
281
     1
  3
Layout1
350
1E
  3
Layout2
350
26
  3
Model
350
22
  0
DICTIONARY
  5
17
102
{ACAD_REACTORS
330
C
102
}
330
C
100
AcDbDictionary
281
     1
  3
Standard
350
18
  0
DICTIONARY
  5
19
102
{ACAD_REACTORS
330
C
102
}
330
C
100
AcDbDictionary
281
     1
  0
ACDBDICTIONARYWDFLT
  5
E
102
{ACAD_REACTORS
330
C
102
}
330
C
100
AcDbDictionary
281
     1
  3
Normal
350
F
100
AcDbDictionaryWithDefault
340
F
  0
DICTIONARY
  5
47
102
{ACAD_REACTORS
330
C
102
}
330
C
100
AcDbDictionary
281
     1
  3
A0
350
48
  3
A1
350
49
  3
A2
350
4A
  3
A3
350
4B
  3
A4
350
4C
  3
A5
350
4D
  3
A6
350
4E
  3
A7
350
4F
  3
A8
350
50
  3
A9
350
51
  3
B0
350
52
  3
B1
350
53
  3
B2
350
54
  3
B3
350
55
  3
B4
350
56
  3
B5
350
57
  3
B6
350
58
  3
B7
350
59
  3
B8
350
5A
  3
B9
350
5B
  3
C0
350
5C
  3
C1
350
5D
  3
C2
350
5E
  3
C3
350
5F
  3
C4
350
60
  3
C5
350
61
  3
C6
350
62
  3
C7
350
63
  3
C8
350
64
  3
C9
350
65
  3
D0
350
66
  3
D1
350
67
  3
D2
350
68
  0
XRECORD
  5
1E4
102
{ACAD_REACTORS
330
C
102
}
330
C
100
AcDbXrecord
280
     1
  1
DWGPROPS COOKIE
  2

  3

  4

  6

  7

  8
johns
  9

300
=
301
=
302
=
303
=
304
=
305
=
306
=
307
=
308
=
309
=
 40
0.0
 41
2459462.619379861
 42
2459462.619631424
  1

 90
        0
  0
LAYOUT
  5
1E
102
{ACAD_REACTORS
330
1A
102
}
330
1A
100
AcDbPlotSettings
  1

  2
none_device
  4

  6

 40
0.0
 41
0.0
 42
0.0
 43
0.0
 44
0.0
 45
0.0
 46
0.0
 47
0.0
 48
0.0
 49
0.0
140
0.0
141
0.0
142
1.0
143
1.0
 70
   688
 72
     1
 73
     0
 74
     5
  7

 75
    16
147
1.0
148
0.0
149
0.0
100
AcDbLayout
  1
Layout1
 70
     1
 71
     1
 10
0.0
 20
0.0
 11
420.0
 21
297.0
 12
0.0
 22
0.0
 32
0.0
 14
1.0000000000E+20
 24
1.0000000000E+20
 34
1.0000000000E+20
 15
-1.0000000000E+20
 25
-1.0000000000E+20
 35
-1.0000000000E+20
146
0.0
 13
0.0
 23
0.0
 33
0.0
 16
1.0
 26
0.0
 36
0.0
 17
0.0
 27
1.0
 37
0.0
 76
     0
330
1B
  0
LAYOUT
  5
26
102
{ACAD_REACTORS
330
1A
102
}
330
1A
100
AcDbPlotSettings
  1

  2
none_device
  4

  6

 40
0.0
 41
0.0
 42
0.0
 43
0.0
 44
0.0
 45
0.0
 46
0.0
 47
0.0
 48
0.0
 49
0.0
140
0.0
141
0.0
142
1.0
143
1.0
 70
   688
 72
     1
 73
     0
 74
     5
  7

 75
    16
147
1.0
148
0.0
149
0.0
100
AcDbLayout
  1
Layout2
 70
     1
 71
     2
 10
0.0
 20
0.0
 11
0.0
 21
0.0
 12
0.0
 22
0.0
 32
0.0
 14
0.0
 24
0.0
 34
0.0
 15
0.0
 25
0.0
 35
0.0
146
0.0
 13
0.0
 23
0.0
 33
0.0
 16
1.0
 26
0.0
 36
0.0
 17
0.0
 27
1.0
 37
0.0
 76
     0
330
23
  0
LAYOUT
  5
22
102
{ACAD_REACTORS
330
1A
102
}
330
1A
100
AcDbPlotSettings
  1

  2
none_device
  4
ANSI_A_(11.00_x_8.50_Inches)
  6

 40
6.35
 41
19.05
 42
6.35000508
 43
19.05000254
 44
279.4
 45
215.9
 46
133.34999746
 47
79.5893997242
 48
0.0
 49
0.0
140
0.0
141
0.0
142
0.2685972716
143
1.0
 70
  1696
 72
     0
 73
     0
 74
     0
  7

 75
     0
147
0.0179189148
148
-1300.4909072572
149
0.0
100
AcDbLayout
  1
Model
 70
     1
 71
     0
 10
0.0
 20
0.0
 11
420.0
 21
297.0
 12
0.0
 22
0.0
 32
0.0
 14
-15.85
 24
-14.3
 34
0.0
 15
15.85
 25
17.0294321627
 35
0.0
146
0.0
 13
0.0
 23
0.0
 33
0.0
 16
1.0
 26
0.0
 36
0.0
 17
0.0
 27
1.0
 37
0.0
 76
     0
330
1F
331
29
  0
MLINESTYLE
  5
18
102
{ACAD_REACTORS
330
17
102
}
330
17
100
AcDbMlineStyle
  2
Standard
 70
     0
  3

 62
   256
 51
90.0
 52
90.0
 71
     2
 49
0.5
 62
   256
  6
BYLAYER
 49
-0.5
 62
   256
  6
BYLAYER
  0
ACDBPLACEHOLDER
  5
F
102
{ACAD_REACTORS
330
E
102
}
330
E
  0
SCALE
  5
48
102
{ACAD_REACTORS
330
47
102
}
330
47
100
AcDbScale
 70
     0
300
1:1
140
1.0
141
1.0
290
     1
  0
SCALE
  5
49
102
{ACAD_REACTORS
330
47
102
}
330
47
100
AcDbScale
 70
     0
300
1:2
140
1.0
141
2.0
290
     0
  0
SCALE
  5
4A
102
{ACAD_REACTORS
330
47
102
}
330
47
100
AcDbScale
 70
     0
300
1:4
140
1.0
141
4.0
290
     0
  0
SCALE
  5
4B
102
{ACAD_REACTORS
330
47
102
}
330
47
100
AcDbScale
 70
     0
300
1:5
140
1.0
141
5.0
290
     0
  0
SCALE
  5
4C
102
{ACAD_REACTORS
330
47
102
}
330
47
100
AcDbScale
 70
     0
300
1:8
140
1.0
141
8.0
290
     0
  0
SCALE
  5
4D
102
{ACAD_REACTORS
330
47
102
}
330
47
100
AcDbScale
 70
     0
300
1:10
140
1.0
141
10.0
290
     0
  0
SCALE
  5
4E
102
{ACAD_REACTORS
330
47
102
}
330
47
100
AcDbScale
 70
     0
300
1:16
140
1.0
141
16.0
290
     0
  0
SCALE
  5
4F
102
{ACAD_REACTORS
330
47
102
}
330
47
100
AcDbScale
 70
     0
300
1:20
140
1.0
141
20.0
290
     0
  0
SCALE
  5
50
102
{ACAD_REACTORS
330
47
102
}
330
47
100
AcDbScale
 70
     0
300
1:30
140
1.0
141
30.0
290
     0
  0
SCALE
  5
51
102
{ACAD_REACTORS
330
47
102
}
330
47
100
AcDbScale
 70
     0
300
1:40
140
1.0
141
40.0
290
     0
  0
SCALE
  5
52
102
{ACAD_REACTORS
330
47
102
}
330
47
100
AcDbScale
 70
     0
300
1:50
140
1.0
141
50.0
290
     0
  0
SCALE
  5
53
102
{ACAD_REACTORS
330
47
102
}
330
47
100
AcDbScale
 70
     0
300
1:100
140
1.0
141
100.0
290
     0
  0
SCALE
  5
54
102
{ACAD_REACTORS
330
47
102
}
330
47
100
AcDbScale
 70
     0
300
2:1
140
2.0
141
1.0
290
     0
  0
SCALE
  5
55
102
{ACAD_REACTORS
330
47
102
}
330
47
100
AcDbScale
 70
     0
300
4:1
140
4.0
141
1.0
290
     0
  0
SCALE
  5
56
102
{ACAD_REACTORS
330
47
102
}
330
47
100
AcDbScale
 70
     0
300
8:1
140
8.0
141
1.0
290
     0
  0
SCALE
  5
57
102
{ACAD_REACTORS
330
47
102
}
330
47
100
AcDbScale
 70
     0
300
10:1
140
10.0
141
1.0
290
     0
  0
SCALE
  5
58
102
{ACAD_REACTORS
330
47
102
}
330
47
100
AcDbScale
 70
     0
300
100:1
140
100.0
141
1.0
290
     0
  0
SCALE
  5
59
102
{ACAD_REACTORS
330
47
102
}
330
47
100
AcDbScale
 70
     0
300
1/128" = 1'-0"
140
0.0078125
141
12.0
290
     0
  0
SCALE
  5
5A
102
{ACAD_REACTORS
330
47
102
}
330
47
100
AcDbScale
 70
     0
300
1/64" = 1'-0"
140
0.015625
141
12.0
290
     0
  0
SCALE
  5
5B
102
{ACAD_REACTORS
330
47
102
}
330
47
100
AcDbScale
 70
     0
300
1/32" = 1'-0"
140
0.03125
141
12.0
290
     0
  0
SCALE
  5
5C
102
{ACAD_REACTORS
330
47
102
}
330
47
100
AcDbScale
 70
     0
300
1/16" = 1'-0"
140
0.0625
141
12.0
290
     0
  0
SCALE
  5
5D
102
{ACAD_REACTORS
330
47
102
}
330
47
100
AcDbScale
 70
     0
300
3/32" = 1'-0"
140
0.09375
141
12.0
290
     0
  0
SCALE
  5
5E
102
{ACAD_REACTORS
330
47
102
}
330
47
100
AcDbScale
 70
     0
300
1/8" = 1'-0"
140
0.125
141
12.0
290
     0
  0
SCALE
  5
5F
102
{ACAD_REACTORS
330
47
102
}
330
47
100
AcDbScale
 70
     0
300
3/16" = 1'-0"
140
0.1875
141
12.0
290
     0
  0
SCALE
  5
60
102
{ACAD_REACTORS
330
47
102
}
330
47
100
AcDbScale
 70
     0
300
1/4" = 1'-0"
140
0.25
141
12.0
290
     0
  0
SCALE
  5
61
102
{ACAD_REACTORS
330
47
102
}
330
47
100
AcDbScale
 70
     0
300
3/8" = 1'-0"
140
0.375
141
12.0
290
     0
  0
SCALE
  5
62
102
{ACAD_REACTORS
330
47
102
}
330
47
100
AcDbScale
 70
     0
300
1/2" = 1'-0"
140
0.5
141
12.0
290
     0
  0
SCALE
  5
63
102
{ACAD_REACTORS
330
47
102
}
330
47
100
AcDbScale
 70
     0
300
3/4" = 1'-0"
140
0.75
141
12.0
290
     0
  0
SCALE
  5
64
102
{ACAD_REACTORS
330
47
102
}
330
47
100
AcDbScale
 70
     0
300
1" = 1'-0"
140
1.0
141
12.0
290
     0
  0
SCALE
  5
65
102
{ACAD_REACTORS
330
47
102
}
330
47
100
AcDbScale
 70
     0
300
1-1/2" = 1'-0"
140
1.5
141
12.0
290
     0
  0
SCALE
  5
66
102
{ACAD_REACTORS
330
47
102
}
330
47
100
AcDbScale
 70
     0
300
3" = 1'-0"
140
3.0
141
12.0
290
     0
  0
SCALE
  5
67
102
{ACAD_REACTORS
330
47
102
}
330
47
100
AcDbScale
 70
     0
300
6" = 1'-0"
140
6.0
141
12.0
290
     0
  0
SCALE
  5
68
102
{ACAD_REACTORS
330
47
102
}
330
47
100
AcDbScale
 70
     0
300
1'-0" = 1'-0"
140
12.0
141
12.0
290
     0
  0
ENDSEC
  0
EOF
