<?xml version="1.0" encoding="utf-8"?>
<!-- Generator: Fusion 360, Shaper Origin Export Add-In, Version 1.6.10  -->
<svg xmlns="http://www.w3.org/2000/svg" xmlns:xlink="http://www.w3.org/1999/xlink" xmlns:shaper="http://www.shapertools.com/namespaces/shaper" shaper:fusionaddin="version:1.6.10" width="16.8275007cm" height="14.5554405cm" version="1.1" x="0cm" y="0cm" viewBox="0 0 16.8275007 14.5554405" enable-background="new 0 0 16.8275007 14.5554405" xml:space="preserve"><path d="M-2.3929134,4.1567358 A0.0762,0.0762 90 0,1 -2.4691134,4.0805358 L-2.4691134,-2.1441337 A0.508,0.508 0 0,0 -2.6179032,-2.503344 L-4.0342949,-3.9197356 A0.0762,0.0762 135 0,1 -4.0566134,-3.9736172 L-4.0566142,-9.5287546 A0.0762,0.0762 179.9999918 0,1 -3.9704681,-9.6043027 L0.3659563,-9.0334022 A0.0762,0.0762 277.4999918 0,1 0.4285527,-8.9811786 L1.9260454,-4.3237661 A0.508,0.508 162.1759017 0,0 2.4096618,-3.9712627 L5.5826863,-3.9712632 A0.0762,0.0762 269.9999918 0,1 5.6588863,-3.8950632 L5.6588865,-2.8600132 A0.508,0.508 179.9999918 0,0 6.1668866,-2.3520133 L8.6294102,-2.3520136 A0.508,0.508 89.9999918 0,0 9.1175445,-2.7193409 L9.6099575,-4.4280139 A0.508,0.508 16.0761575 0,0 9.6164217,-4.6846014 L8.8844385,-7.8079128 A0.0762,0.0762 166.8101359 0,1 8.9685744,-7.9008481 L12.3236326,-7.4591463 A0.0762,0.0762 277.5 0,1 12.3898865,-7.3835982 L12.3898866,-5.0317142 A0.3174999,0.3174999 179.999996 0,0 12.6971446,-4.7143795 A0.0762,0.0762 271.8485718 0,1 12.7708866,-4.6382191 L12.7708866,4.8742858 A0.0762,0.0762 0 0,1 12.6946866,4.9504858 L10.6245866,4.9504859 A0.0762001,0.0762001 89.9999959 0,1 10.5483864,4.8742858 L10.5483865,4.6647357 A0.508,0.508 0 0,0 10.0403866,4.1567358 L-2.3929134,4.1567358z" transform="matrix(1,0,0,-1,4.0566142,4.9504859)" fill="rgb(0,0,0)" stroke-linecap="round" stroke-linejoin="round" /><path d="M10.0473719,2.7470358 a0.215265,0.215265 0 1,1 0.43053,0 a0.215265,0.215265 0 1,1 -0.43053,0z" transform="matrix(1,0,0,-1,4.0566142,4.9504859)" fill="rgb(255,255,255)" stroke="rgb(0,0,0)" stroke-width="0.0010cm" stroke-linecap="round" stroke-linejoin="round" /><path d="M10.0083228,2.3402223 A0.1016,0.1016 179.9999919 0,0 10.1099228,2.4418223 L10.6145679,2.4418222 A0.15875,0.15875 269.9999918 0,1 10.7258439,2.4873502 L10.7588486,2.5197877 A0.15875,0.15875 134.5033257 0,0 10.8701246,2.5653156 L11.3501237,2.5653155 A0.0762,0.0762 89.9999918 0,0 11.4263236,2.4891155 L11.4263235,1.8075571 A0.0127,0.0127 0 0,0 11.415816,1.7950478 L11.1456831,1.7477028 A0.15875,0.15875 279.9410006 0,0 11.1182775,1.7453193 L10.1670727,1.7453195 A0.15875,0.15875 269.9999918 0,0 10.0083228,1.9040695 L10.0083228,2.3402223z" transform="matrix(1,0,0,-1,4.0566142,4.9504859)" fill="rgb(255,255,255)" stroke="rgb(0,0,0)" stroke-width="0.0010cm" stroke-linecap="round" stroke-linejoin="round" /><path d="M10.0473715,0.2070358 a0.215265,0.215265 0 1,1 0.43053,0 a0.215265,0.215265 0 1,1 -0.43053,0z" transform="matrix(1,0,0,-1,4.0566142,4.9504859)" fill="rgb(255,255,255)" stroke="rgb(0,0,0)" stroke-width="0.0010cm" stroke-linecap="round" stroke-linejoin="round" /><path d="M1.5454657,0.1071406 A0.15875,0.15875 269.9999918 0,1 1.7042157,0.2658906 L1.7042158,0.7073533 A0.15875,0.15875 0 0,1 1.5454658,0.8661033 L-0.5779739,0.8661036 A0.15875,0.15875 89.9999918 0,1 -0.7367239,0.7073536 L-0.736724,0.2658909 A0.15875,0.15875 179.9999919 0,1 -0.577974,0.1071409 L1.5454657,0.1071406z" transform="matrix(1,0,0,-1,4.0566142,4.9504859)" fill="rgb(255,255,255)" stroke="rgb(0,0,0)" stroke-width="0.0010cm" stroke-linecap="round" stroke-linejoin="round" /><path d="M-0.8368502,-0.1867017 L1.4009825,-0.186702 A0.15875,0.15875 89.9999918 0,0 1.5597324,-0.345452 L1.5597324,-0.8475492 A0.15875,0.15875 0 0,0 1.5329985,-0.9357155 L0.8216294,-2.0008869 A0.15875,0.15875 326.2632285 0,0 0.6896132,-2.0714707 L-0.2024288,-2.0714705 A0.15875,0.15875 89.9999918 0,1 -0.3611788,-2.2302205 L-0.361179,-3.3620149 A0.15875,0.15875 0 0,0 -0.519929,-3.5207648 L-0.9080909,-3.5207648 A0.15875,0.15875 269.9999918 0,0 -1.0668409,-3.3620148 L-1.0668408,-2.9494295 A0.15875,0.15875 0 0,1 -1.2255908,-2.7906795 L-1.4996989,-2.7906794 A0.15875,0.15875 269.9999918 0,0 -1.6584488,-2.6319294 L-1.6584486,-0.9128795 A0.15875,0.15875 179.9999919 0,0 -1.4996986,-0.7541295 L-1.0845003,-0.7541295 A0.15875,0.15875 269.9999918 0,1 -0.9257503,-0.5953795 L-0.9257502,-0.2756017 A0.0889,0.0889 179.9999919 0,0 -0.8368502,-0.1867017z" transform="matrix(1,0,0,-1,4.0566142,4.9504859)" fill="rgb(255,255,255)" stroke="rgb(0,0,0)" stroke-width="0.0010cm" stroke-linecap="round" stroke-linejoin="round" /><path d="M-2.5825294,-7.7860165 A0.15875,0.15875 179.9999919 0,1 -2.4237794,-7.9447666 L-2.1049277,-7.9447666 A0.15875,0.15875 269.9999918 0,1 -1.9461777,-7.7860166 L-1.9461776,-7.2286324 A0.15875,0.15875 0 0,1 -2.1044759,-7.069883 L-2.4233276,-7.0689757 A0.15875,0.15875 89.8369769 0,1 -2.5825293,-7.2277251 L-2.5825294,-7.7860165z" transform="matrix(1,0,0,-1,4.0566142,4.9504859)" fill="rgb(255,255,255)" stroke="rgb(0,0,0)" stroke-width="0.0010cm" stroke-linecap="round" stroke-linejoin="round" /><path d="M-1.3597334,-8.0532272 A0.15875,0.15875 82.4053484 0,1 -1.4061928,-8.0538926 L-2.2299539,-8.1878373 A0.15875,0.15875 99.2355509 0,1 -2.3632255,-8.3445294 L-2.3632256,-8.8554491 A0.15875,0.15875 179.9999919 0,1 -2.2160212,-9.0137787 L-1.8672807,-9.0392093 A0.15875,0.15875 265.8293049 0,1 -1.7938278,-9.0270613 L-1.3516776,-8.8398123 A0.15875,0.15875 112.9524813 0,0 -1.2782247,-8.8276642 L-0.3722304,-8.8937304 A0.15875,0.15875 265.8293049 0,1 -0.2019348,-8.7354008 L-0.2019348,-8.3465888 A0.15875,0.15875 0 0,1 -0.3397037,-8.1892313 L-1.3597334,-8.0532272z" transform="matrix(1,0,0,-1,4.0566142,4.9504859)" fill="rgb(255,255,255)" stroke="rgb(0,0,0)" stroke-width="0.0010cm" stroke-linecap="round" stroke-linejoin="round" /><path d="M-0.1038718,-7.7472335 L-0.4227234,-7.7472334 A0.15875,0.15875 269.9999918 0,0 -0.5814734,-7.5884834 L-0.5814733,-7.249216 A0.15875,0.15875 179.9999919 0,0 -0.4222716,-7.0904667 L-0.10342,-7.0913739 A0.15875,0.15875 89.8369769 0,0 0.0548783,-7.2501233 L0.0548783,-7.5884835 A0.15875,0.15875 0 0,0 -0.1038718,-7.7472335z" transform="matrix(1,0,0,-1,4.0566142,4.9504859)" fill="rgb(255,255,255)" stroke="rgb(0,0,0)" stroke-width="0.0010cm" stroke-linecap="round" stroke-linejoin="round" /><path d="M-0.3833571,-3.620057 L-0.0373997,-3.6210414 A0.15875,0.15875 89.8369769 0,0 0.1208986,-3.7797907 L0.1208986,-4.2487634 A0.15875,0.15875 0 0,0 -0.0378515,-4.4075133 L-0.3838089,-4.4075133 A0.15875,0.15875 269.9999918 0,0 -0.5425589,-4.2487633 L-0.5425588,-3.7788063 A0.15875,0.15875 179.9999919 0,0 -0.3833571,-3.620057z" transform="matrix(1,0,0,-1,4.0566142,4.9504859)" fill="rgb(255,255,255)" stroke="rgb(0,0,0)" stroke-width="0.0010cm" stroke-linecap="round" stroke-linejoin="round" /><path d="M1.0791089,-4.4131465 L0.7348573,-4.4131464 A0.15875,0.15875 269.9999918 0,0 0.5761073,-4.2543964 L0.5761074,-3.7845889 A0.15875,0.15875 179.9999919 0,0 0.7353091,-3.6258395 L1.0795607,-3.626819 A0.15875,0.15875 89.8369769 0,0 1.237859,-3.7855684 L1.237859,-4.2543965 A0.15875,0.15875 0 0,0 1.0791089,-4.4131465z" transform="matrix(1,0,0,-1,4.0566142,4.9504859)" fill="rgb(255,255,255)" stroke="rgb(0,0,0)" stroke-width="0.0010cm" stroke-linecap="round" stroke-linejoin="round" /><path d="M1.2089426,-3.2468089 A0.15875,0.15875 269.9999918 0,0 1.0501926,-3.0880589 L1.0501927,-2.742661 A0.15875,0.15875 179.9999919 0,0 1.2089427,-2.583911 L1.7045729,-2.5839111 A0.15875,0.15875 89.9999918 0,0 1.8633229,-2.7426611 L1.8633229,-3.088059 A0.15875,0.15875 0 0,0 1.7045728,-3.246809 L1.2089426,-3.2468089z" transform="matrix(1,0,0,-1,4.0566142,4.9504859)" fill="rgb(255,255,255)" stroke="rgb(0,0,0)" stroke-width="0.0010cm" stroke-linecap="round" stroke-linejoin="round" /><path d="M4.1978481,-3.7060473 L3.8181996,-3.7060473 A0.15875,0.15875 269.9999918 0,0 3.6594496,-3.5472973 L3.6594497,-3.2274944 A0.15875,0.15875 179.9999919 0,0 3.8181997,-3.0687444 L4.1978482,-3.0687445 A0.15875,0.15875 89.9999918 0,0 4.3565982,-3.2274945 L4.3565982,-3.5472974 A0.15875,0.15875 0 0,0 4.1978481,-3.7060473z" transform="matrix(1,0,0,-1,4.0566142,4.9504859)" fill="rgb(255,255,255)" stroke="rgb(0,0,0)" stroke-width="0.0010cm" stroke-linecap="round" stroke-linejoin="round" /><path d="M5.2349238,-0.805186 A0.15875,0.15875 300.768202 0,1 5.3124627,-0.6687811 L5.3124627,-0.1867026 A0.15875,0.15875 0 0,1 5.1537128,-0.0279526 L2.9659087,-0.0279523 A0.15875,0.15875 89.9999918 0,1 2.8071587,-0.1867022 L2.8071586,-0.4934039 A0.15875,0.15875 179.9999919 0,1 2.8630925,-0.6143601 L3.5333261,-1.1840775 A0.15875,0.15875 229.6345291 0,1 3.6361422,-1.2218713 L4.491365,-1.2218715 A0.15875,0.15875 269.9999918 0,1 4.5725761,-1.1995264 L5.2349238,-0.805186z" transform="matrix(1,0,0,-1,4.0566142,4.9504859)" fill="rgb(255,255,255)" stroke="rgb(0,0,0)" stroke-width="0.0010cm" stroke-linecap="round" stroke-linejoin="round" /><path d="M10.1053811,-0.9209887 A0.15875,0.15875 89.9999918 0,1 9.946631,-1.0797386 L9.946631,-1.4928259 A0.15875,0.15875 179.9999919 0,1 10.1053809,-1.6515759 L11.710494,-1.6515762 A0.15875,0.15875 269.9999918 0,1 11.869244,-1.4928262 L11.8692441,-1.0797389 A0.15875,0.15875 0 0,1 11.7104941,-0.9209889 L10.1053811,-0.9209887z" transform="matrix(1,0,0,-1,4.0566142,4.9504859)" fill="rgb(255,255,255)" stroke="rgb(0,0,0)" stroke-width="0.0010cm" stroke-linecap="round" stroke-linejoin="round" /><path d="M11.1977065,0.3069389 L10.8994174,0.3069389 A0.15875,0.15875 269.9999918 0,0 10.7406674,0.4656889 L10.7406675,0.8957567 A0.15875,0.15875 179.9999919 0,0 10.8994175,1.0545067 L12.179932,1.0545065 A0.15875,0.15875 89.9999918 0,0 12.3386819,0.8957565 L12.3386819,0.5788868 A0.15875,0.15875 0 0,0 12.198107,0.4211807 L11.2158815,0.3079827 A0.15875,0.15875 276.5741322 0,0 11.1977065,0.3069389z" transform="matrix(1,0,0,-1,4.0566142,4.9504859)" fill="rgb(255,255,255)" stroke="rgb(0,0,0)" stroke-width="0.0010cm" stroke-linecap="round" stroke-linejoin="round" /><path d="M2.7999097,1.399808 A0.15875,0.15875 269.9999918 0,0 2.6411597,1.558558 L2.6411598,1.9037609 A0.15875,0.15875 179.9999919 0,0 2.7999098,2.0625109 L3.1541583,2.0625108 A0.15875,0.15875 89.9999918 0,0 3.3129083,1.9037608 L3.3129082,1.558558 A0.15875,0.15875 0 0,0 3.1541582,1.399808 L2.7999097,1.399808z" transform="matrix(1,0,0,-1,4.0566142,4.9504859)" fill="rgb(255,255,255)" stroke="rgb(0,0,0)" stroke-width="0.0010cm" stroke-linecap="round" stroke-linejoin="round" /><path d="M3.3728862,1.7437349 a0.635,0.635 0 1,1 1.27,0 a0.635,0.635 0 1,1 -1.27,0z" transform="matrix(1,0,0,-1,4.0566142,4.9504859)" fill="rgb(255,255,255)" stroke="rgb(0,0,0)" stroke-width="0.0010cm" stroke-linecap="round" stroke-linejoin="round" /><path d="M3.2101977,2.6528768 L3.2101978,3.758975 A0.127,0.127 179.9999918 0,0 3.3371978,3.885975 L4.6664734,3.8859748 A0.254,0.254 89.9999918 0,0 4.9204733,3.6319748 L4.9204732,2.7671766 A0.254,0.254 0 0,0 4.6664732,2.5131766 L3.3498976,2.5131768 A0.1397,0.1397 269.9999918 0,0 3.2101977,2.6528768z" transform="matrix(1,0,0,-1,4.0566142,4.9504859)" fill="rgb(255,255,255)" stroke="rgb(0,0,0)" stroke-width="0.0010cm" stroke-linecap="round" stroke-linejoin="round" /><path d="M1.989966,1.8912471 L1.9899659,1.5712493 A0.15875,0.15875 0 0,0 1.8312159,1.4124993 L1.2155213,1.4124994 A0.15875,0.15875 269.9999918 0,0 1.0567713,1.5712494 L1.0567714,1.8912473 A0.15875,0.15875 179.9999919 0,0 1.2155214,2.0499973 L1.831216,2.0499972 A0.15875,0.15875 89.9999918 0,0 1.989966,1.8912472z" transform="matrix(1,0,0,-1,4.0566142,4.9504859)" fill="rgb(255,255,255)" stroke="rgb(0,0,0)" stroke-width="0.0010cm" stroke-linecap="round" stroke-linejoin="round" /><path d="M5.5655638,1.9130363 L5.5655638,1.5930384 A0.15875,0.15875 0 0,0 5.4068138,1.4342885 L4.8857835,1.4342885 A0.15875,0.15875 269.9999918 0,0 4.7270335,1.5930386 L4.7270336,1.9130364 A0.15875,0.15875 179.9999919 0,0 4.8857836,2.0717864 L5.4068139,2.0717863 A0.15875,0.15875 89.9999918 0,0 5.5655638,1.9130363z" transform="matrix(1,0,0,-1,4.0566142,4.9504859)" fill="rgb(255,255,255)" stroke="rgb(0,0,0)" stroke-width="0.0010cm" stroke-linecap="round" stroke-linejoin="round" /><path d="M5.3628782,-1.9837563 L5.3628781,-2.3035592 A0.15875,0.15875 0 0,0 5.2041281,-2.4623092 L4.8752796,-2.4623091 A0.15875,0.15875 269.9999918 0,0 4.7165296,-2.3035591 L4.7165297,-1.9837562 A0.15875,0.15875 179.9999919 0,0 4.8752797,-1.8250063 L5.2041282,-1.8250063 A0.15875,0.15875 89.9999918 0,0 5.3628782,-1.9837563z" transform="matrix(1,0,0,-1,4.0566142,4.9504859)" fill="rgb(255,255,255)" stroke="rgb(0,0,0)" stroke-width="0.0010cm" stroke-linecap="round" stroke-linejoin="round" /><path d="M3.3728857,-2.1424651 a0.635,0.635 0 1,1 1.27,0 a0.635,0.635 0 1,1 -1.27,0z" transform="matrix(1,0,0,-1,4.0566142,4.9504859)" fill="rgb(255,255,255)" stroke="rgb(0,0,0)" stroke-width="0.0010cm" stroke-linecap="round" stroke-linejoin="round" /><path d="M-1.8976138,-7.4002622 a0.635,0.635 0 1,1 1.27,0 a0.635,0.635 0 1,1 -1.27,0z" transform="matrix(1,0,0,-1,4.0566142,4.9504859)" fill="rgb(255,255,255)" stroke="rgb(0,0,0)" stroke-width="0.0010cm" stroke-linecap="round" stroke-linejoin="round" /><path d="M9.7636361,3.1519216 A0.15875,0.15875 89.9999918 0,1 9.6048861,2.9931717 L9.6048861,2.6719259 A0.15875,0.15875 0 0,0 9.446136,2.5131759 L8.3068785,2.5131761 A0.15875,0.15875 269.9999918 0,0 8.1481286,2.6719261 L8.1481286,3.0944945 A0.15875,0.15875 0 0,1 7.9893787,3.2532445 L6.4668421,3.2532448 A0.15875,0.15875 269.9999918 0,0 6.3080921,3.4119948 L6.3080921,3.7185088 A0.15875,0.15875 179.9999919 0,0 6.4668422,3.8772588 L10.2481185,3.8772583 A0.15875,0.15875 89.9999918 0,0 10.4067873,3.7235848 L10.4221421,3.2436644 A0.0889,0.0889 1.8325199 0,0 10.3332875,3.1519216 L9.7636361,3.1519216z" transform="matrix(1,0,0,-1,4.0566142,4.9504859)" fill="rgb(255,255,255)" stroke="rgb(0,0,0)" stroke-width="0.0010cm" stroke-linecap="round" stroke-linejoin="round" /><path d="M-2.0493784,2.0929858 a0.215265,0.215265 0 1,1 0.43053,0 a0.215265,0.215265 0 1,1 -0.43053,0z" transform="matrix(1,0,0,-1,4.0566142,4.9504859)" fill="rgb(255,255,255)" stroke="rgb(0,0,0)" stroke-width="0.0010cm" stroke-linecap="round" stroke-linejoin="round" /><path d="M11.53962,-6.8935464 a0.215265,0.215265 0 1,1 0.43053,0 a0.215265,0.215265 0 1,1 -0.43053,0z" transform="matrix(1,0,0,-1,4.0566142,4.9504859)" fill="rgb(255,255,255)" stroke="rgb(0,0,0)" stroke-width="0.0010cm" stroke-linecap="round" stroke-linejoin="round" /><path d="M5.8881215,-1.7170133 a0.215265,0.215265 0 1,1 0.43053,0 a0.215265,0.215265 0 1,1 -0.43053,0z" transform="matrix(1,0,0,-1,4.0566142,4.9504859)" fill="rgb(255,255,255)" stroke="rgb(0,0,0)" stroke-width="0.0010cm" stroke-linecap="round" stroke-linejoin="round" /><path d="M10.7141216,-4.5173643 a0.215265,0.215265 0 1,1 0.43053,0 a0.215265,0.215265 0 1,1 -0.43053,0z" transform="matrix(1,0,0,-1,4.0566142,4.9504859)" fill="rgb(255,255,255)" stroke="rgb(0,0,0)" stroke-width="0.0010cm" stroke-linecap="round" stroke-linejoin="round" /><path d="M-3.3193801,-6.9557641 a0.215265,0.215265 0 1,1 0.43053,0 a0.215265,0.215265 0 1,1 -0.43053,0z" transform="matrix(1,0,0,-1,4.0566142,4.9504859)" fill="rgb(255,255,255)" stroke="rgb(0,0,0)" stroke-width="0.0010cm" stroke-linecap="round" stroke-linejoin="round" /><path d="M-1.7953792,-0.2882642 a0.215265,0.215265 0 1,1 0.43053,0 a0.215265,0.215265 0 1,1 -0.43053,0z" transform="matrix(1,0,0,-1,4.0566142,4.9504859)" fill="rgb(255,255,255)" stroke="rgb(0,0,0)" stroke-width="0.0010cm" stroke-linecap="round" stroke-linejoin="round" /><path d="M2.2368716,2.6327358 a0.215265,0.215265 0 1,1 0.43053,0 a0.215265,0.215265 0 1,1 -0.43053,0z" transform="matrix(1,0,0,-1,4.0566142,4.9504859)" fill="rgb(255,255,255)" stroke="rgb(0,0,0)" stroke-width="0.0010cm" stroke-linecap="round" stroke-linejoin="round" /><path d="M10.7141216,3.3629857 a0.215265,0.215265 0 1,1 0.43053,0 a0.215265,0.215265 0 1,1 -0.43053,0z" transform="matrix(1,0,0,-1,4.0566142,4.9504859)" fill="rgb(255,255,255)" stroke="rgb(0,0,0)" stroke-width="0.0010cm" stroke-linecap="round" stroke-linejoin="round" /><path d="M11.4443716,4.5377359 a0.215265,0.215265 0 1,1 0.43053,0 a0.215265,0.215265 0 1,1 -0.43053,0z" transform="matrix(1,0,0,-1,4.0566142,4.9504859)" fill="rgb(255,255,255)" stroke="rgb(0,0,0)" stroke-width="0.0010cm" stroke-linecap="round" stroke-linejoin="round" /><path d="M-0.2847134,1.7437354 a0.635,0.635 0 1,1 1.27,0 a0.635,0.635 0 1,1 -1.27,0z" transform="matrix(1,0,0,-1,4.0566142,4.9504859)" fill="rgb(255,255,255)" stroke="rgb(0,0,0)" stroke-width="0.0010cm" stroke-linecap="round" stroke-linejoin="round" /><path d="M0.1915357,-3.9395146 a0.15875,0.15875 0 1,1 0.3175,0 a0.15875,0.15875 0 1,1 -0.3175,0z" transform="matrix(1,0,0,-1,4.0566142,4.9504859)" fill="rgb(255,255,255)" stroke="rgb(0,0,0)" stroke-width="0.0010cm" stroke-linecap="round" stroke-linejoin="round" /><path d="M8.3576366,0.524536 a0.47625,0.47625 0 1,1 0.9525,0 a0.47625,0.47625 0 1,1 -0.9525,0z" transform="matrix(1,0,0,-1,4.0566142,4.9504859)" fill="rgb(255,255,255)" stroke="rgb(0,0,0)" stroke-width="0.0010cm" stroke-linecap="round" stroke-linejoin="round" /><path d="M8.6751364,-0.300964 a0.15875,0.15875 0 1,1 0.3175,0 a0.15875,0.15875 0 1,1 -0.3175,0z" transform="matrix(1,0,0,-1,4.0566142,4.9504859)" fill="rgb(255,255,255)" stroke="rgb(0,0,0)" stroke-width="0.0010cm" stroke-linecap="round" stroke-linejoin="round" /><path d="M2.750308,-1.7782666 L3.1215752,-1.779323 A0.15875,0.15875 89.8369769 0,0 3.2798735,-1.9380723 L3.2798734,-2.5779906 A0.15875,0.15875 0 0,0 3.1211234,-2.7367406 L2.7498562,-2.7367405 A0.15875,0.15875 269.9999918 0,0 2.5911062,-2.5779905 L2.5911063,-1.9370159 A0.15875,0.15875 179.9999919 0,0 2.750308,-1.7782666z" transform="matrix(1,0,0,-1,4.0566142,4.9504859)" fill="rgb(255,255,255)" stroke="rgb(0,0,0)" stroke-width="0.0010cm" stroke-linecap="round" stroke-linejoin="round" /><path d="M10.5348221,-3.792774 L10.534822,-4.1042613 A0.15875,0.15875 0 0,0 10.376072,-4.2630113 L10.0380175,-4.2630112 A0.15875,0.15875 269.9999918 0,0 9.8792675,-4.1042612 L9.8792675,-3.7927739 A0.15875,0.15875 179.9999919 0,0 10.0380176,-3.634024 L10.3760721,-3.634024 A0.15875,0.15875 89.9999918 0,0 10.5348221,-3.792774z" transform="matrix(1,0,0,-1,4.0566142,4.9504859)" fill="rgb(255,255,255)" stroke="rgb(0,0,0)" stroke-width="0.0010cm" stroke-linecap="round" stroke-linejoin="round" /><path d="M2.487717,3.2904369 a0.152,0.152 0 1,1 0.304,0 a0.152,0.152 0 1,1 -0.304,0z" transform="matrix(1,0,0,-1,4.0566142,4.9504859)" fill="rgb(255,255,255)" stroke="rgb(0,0,0)" stroke-width="0.0010cm" stroke-linecap="round" stroke-linejoin="round" /><path d="M5.4877163,-1.1095635 a0.152,0.152 0 1,1 0.304,0 a0.152,0.152 0 1,1 -0.304,0z" transform="matrix(1,0,0,-1,4.0566142,4.9504859)" fill="rgb(255,255,255)" stroke="rgb(0,0,0)" stroke-width="0.0010cm" stroke-linecap="round" stroke-linejoin="round" /><path d="M5.487717,3.2904365 a0.152,0.152 0 1,1 0.304,0 a0.152,0.152 0 1,1 -0.304,0z" transform="matrix(1,0,0,-1,4.0566142,4.9504859)" fill="rgb(255,255,255)" stroke="rgb(0,0,0)" stroke-width="0.0010cm" stroke-linecap="round" stroke-linejoin="round" /><path d="M9.5837696,-1.7337782 L9.5837696,-2.0452654 A0.15875,0.15875 0 0,0 9.4250196,-2.2040154 L7.1980397,-2.2040151 A0.15875,0.15875 269.9999918 0,0 7.0392897,-2.0452651 L7.0392898,-1.7337778 A0.15875,0.15875 179.9999919 0,0 7.1980398,-1.5750278 L9.4250197,-1.5750282 A0.15875,0.15875 89.9999918 0,0 9.5837696,-1.7337782z" transform="matrix(1,0,0,-1,4.0566142,4.9504859)" fill="rgb(255,255,255)" stroke="rgb(0,0,0)" stroke-width="0.0010cm" stroke-linecap="round" stroke-linejoin="round" /><path d="M4.8857834,0.6894531 L4.8857834,0.437196 A0.15875,0.15875 0 0,0 4.7270334,0.278446 L3.3889935,0.2784462 A0.15875,0.15875 269.9999918 0,0 3.2302436,0.4371962 L3.2302436,0.6894533 A0.15875,0.15875 179.9999919 0,0 3.3889936,0.8482033 L4.7270334,0.8482031 A0.15875,0.15875 89.9999918 0,0 4.8857834,0.6894531z" transform="matrix(1,0,0,-1,4.0566142,4.9504859)" fill="rgb(255,255,255)" stroke="rgb(0,0,0)" stroke-width="0.0010cm" stroke-linecap="round" stroke-linejoin="round" /><path d="M11.5709773,-2.0405096 L11.5709772,-2.4887015 A0.15875,0.15875 0 0,0 11.4122272,-2.6474514 L10.0103679,-2.6474512 A0.15875,0.15875 269.9999918 0,0 9.851618,-2.4887012 L9.851618,-2.0405094 A0.15875,0.15875 179.9999919 0,0 10.0103681,-1.8817594 L11.4122273,-1.8817596 A0.15875,0.15875 89.9999918 0,0 11.5709773,-2.0405096z" transform="matrix(1,0,0,-1,4.0566142,4.9504859)" fill="rgb(255,255,255)" stroke="rgb(0,0,0)" stroke-width="0.0010cm" stroke-linecap="round" stroke-linejoin="round" /><path d="M11.34049,-5.1943923 L11.34049,-5.5258983 A0.15875,0.15875 0 0,0 11.3110232,-5.6180255 L10.3086409,-7.0246803 A0.15875,0.15875 324.5263268 0,0 10.1793577,-7.0913031 L9.7425189,-7.0913031 A0.15875,0.15875 269.9999918 0,0 9.5837689,-6.932553 L9.5837689,-6.6339297 A0.15875,0.15875 179.9999919 0,0 9.6376052,-6.5147884 L9.849719,-6.3280048 A0.15875,0.15875 311.366558 0,1 9.9035553,-6.2088634 L9.9035554,-5.1943921 A0.15875,0.15875 179.9999919 0,0 10.0623054,-5.0356421 L11.1817401,-5.0356423 A0.15875,0.15875 89.9999918 0,0 11.34049,-5.1943923z" transform="matrix(1,0,0,-1,4.0566142,4.9504859)" fill="rgb(255,255,255)" stroke="rgb(0,0,0)" stroke-width="0.0010cm" stroke-linecap="round" stroke-linejoin="round" /><path d="M11.5629321,-3.784117 L11.5629321,-4.0956043 A0.15875,0.15875 0 0,0 11.4041821,-4.2543543 L11.058963,-4.2543542 A0.15875,0.15875 269.9999918 0,0 10.9002131,-4.0956042 L10.9002131,-3.7841169 A0.15875,0.15875 179.9999919 0,0 11.0589631,-3.625367 L11.4041822,-3.625367 A0.15875,0.15875 89.9999918 0,0 11.5629321,-3.784117z" transform="matrix(1,0,0,-1,4.0566142,4.9504859)" fill="rgb(255,255,255)" stroke="rgb(0,0,0)" stroke-width="0.0010cm" stroke-linecap="round" stroke-linejoin="round" /><path d="M11.5094983,-2.8923334 L11.5094982,-3.3173823 A0.15875,0.15875 0 0,0 11.3507482,-3.4761323 L9.8361856,-3.4761321 A0.15875,0.15875 269.9999918 0,0 9.6774356,-3.317382 L9.6774356,-2.8923332 A0.15875,0.15875 179.9999919 0,0 9.8361857,-2.7335832 L11.3507483,-2.7335834 A0.15875,0.15875 89.9999918 0,0 11.5094983,-2.8923334z" transform="matrix(1,0,0,-1,4.0566142,4.9504859)" fill="rgb(255,255,255)" stroke="rgb(0,0,0)" stroke-width="0.0010cm" stroke-linecap="round" stroke-linejoin="round" /><path d="M-3.6368791,-8.8915654 a0.215265,0.215265 0 1,1 0.43053,0 a0.215265,0.215265 0 1,1 -0.43053,0z" transform="matrix(1,0,0,-1,4.0566142,4.9504859)" fill="rgb(255,255,255)" stroke="rgb(0,0,0)" stroke-width="0.0010cm" stroke-linecap="round" stroke-linejoin="round" /><path d="M-1.8424414,0.9109848 L-1.8424414,1.3681848 A0.1524,0.1524 179.9999918 0,0 -1.6900413,1.5205848 L-1.3598413,1.5205848 A0.1524,0.1524 89.9999918 0,0 -1.2074414,1.3681848 L-1.2074414,0.9109848 A0.1524,0.1524 0 0,0 -1.3598414,0.7585848 L-1.6900414,0.7585848 A0.1524,0.1524 269.9999918 0,0 -1.8424414,0.9109848z" transform="matrix(1,0,0,-1,4.0566142,4.9504859)" fill="rgb(255,255,255)" stroke="rgb(0,0,0)" stroke-width="0.0010cm" stroke-linecap="round" stroke-linejoin="round" /><path d="M2.3222163,-1.1095631 a0.3175,0.3175 0 1,1 0.635,0 a0.3175,0.3175 0 1,1 -0.635,0z" transform="matrix(1,0,0,-1,4.0566142,4.9504859)" fill="rgb(255,255,255)" stroke="rgb(0,0,0)" stroke-width="0.0010cm" stroke-linecap="round" stroke-linejoin="round" /><path d="M12.3823738,-4.2968011 L12.0716204,-4.2968011 A0.15875,0.15875 269.9999918 0,0 11.9128705,-4.1380511 L11.9128708,-2.0059497 A0.15875,0.15875 179.9999919 0,0 12.0716208,-1.8471997 L12.3823741,-1.8471998 A0.15875,0.15875 89.9999918 0,0 12.5411241,-2.0059498 L12.5411238,-4.1380512 A0.15875,0.15875 0 0,0 12.3823738,-4.2968011z" transform="matrix(1,0,0,-1,4.0566142,4.9504859)" fill="rgb(255,255,255)" stroke="rgb(0,0,0)" stroke-width="0.0010cm" stroke-linecap="round" stroke-linejoin="round" /><path d="M-0.5450174,2.4659762 A0.15875,0.15875 274.9483256 0,0 -0.6304222,2.4825046 L-0.8378509,2.5875319 A0.15875,0.15875 243.1455705 0,0 -0.8820954,2.6207377 L-1.5405095,3.3248891 A0.15875,0.15875 223.0774746 0,0 -1.5833037,3.4333132 L-1.5833036,3.74391 A0.15875,0.15875 179.9999919 0,0 -1.4245536,3.9026599 L2.1950635,3.9026594 A0.15875,0.15875 89.9999918 0,0 2.3538135,3.7439094 L2.3538134,3.3106727 A0.15875,0.15875 0 0,0 2.1950634,3.1519227 L1.5995948,3.1519228 A0.15875,0.15875 89.9999918 0,1 1.4408448,2.9931728 L1.4408447,2.7835114 A0.15875,0.15875 0 0,0 1.2957881,2.6253531 L-0.5450174,2.4659762z" transform="matrix(1,0,0,-1,4.0566142,4.9504859)" fill="rgb(255,255,255)" stroke="rgb(0,0,0)" stroke-width="0.0010cm" stroke-linecap="round" stroke-linejoin="round" /><path d="M-0.5030417,1.4058905 L-0.8318902,1.4058906 A0.15875,0.15875 269.9999918 0,0 -0.9906402,1.5646406 L-0.9906401,1.9098434 A0.15875,0.15875 179.9999919 0,0 -0.8318901,2.0685934 L-0.5030416,2.0685933 A0.15875,0.15875 89.9999918 0,0 -0.3442916,1.9098433 L-0.3442916,1.5646405 A0.15875,0.15875 0 0,0 -0.5030417,1.4058905z" transform="matrix(1,0,0,-1,4.0566142,4.9504859)" fill="rgb(255,255,255)" stroke="rgb(0,0,0)" stroke-width="0.0010cm" stroke-linecap="round" stroke-linejoin="round" /><path d="M-0.2847141,-2.9870146 a0.635,0.635 0 1,1 1.27,0 a0.635,0.635 0 1,1 -1.27,0z" transform="matrix(1,0,0,-1,4.0566142,4.9504859)" fill="rgb(255,255,255)" stroke="rgb(0,0,0)" stroke-width="0.0010cm" stroke-linecap="round" stroke-linejoin="round" /><path d="M-1.985098,-6.5424319 L-2.4187251,-5.8837837 A0.1661431,0.1661431 213.3592764 0,0 -2.446099,-5.7924238 L-2.4460989,-5.3712057 A0.1661431,0.1661431 179.9999918 0,0 -2.4248299,-5.2898729 L-2.0661198,-4.6509206 A0.1661431,0.1661431 150.6899847 0,0 -1.9212457,-4.5661104 L-0.75653,-4.5661105 A0.1661431,0.1661431 89.9999918 0,0 -0.645408,-4.6087408 L0.0189312,-5.2064333 A0.1661431,0.1661431 48.0229211 0,0 0.0739522,-5.3299462 L0.0739522,-5.8106395 A0.1661431,0.1661431 0 0,0 0.0313219,-5.9217615 L-0.5448625,-6.5621942 A0.1661431,0.1661431 318.0229211 0,0 -0.6683754,-6.6172152 L-1.8463288,-6.6172151 A0.1661431,0.1661431 269.9999918 0,0 -1.985098,-6.5424319z" transform="matrix(1,0,0,-1,4.0566142,4.9504859)" fill="rgb(255,255,255)" stroke="rgb(0,0,0)" stroke-width="0.0010cm" stroke-linecap="round" stroke-linejoin="round" /><path d="M6.5778057,2.760176 A0.0254,0.0254 64.4190068 0,1 6.5676285,2.7626536 L6.2658264,2.772046 A0.15875,0.15875 88.2174698 0,1 6.1022152,2.6183109 L6.0880703,2.1637981 A0.15875,0.15875 178.2174698 0,1 6.1781973,2.0156714 L6.9406676,1.6506678 A0.15875,0.15875 244.4190068 0,1 7.0092137,1.6351065 L7.300566,1.6351064 A0.15875,0.15875 269.9999918 0,1 7.459316,1.7938564 L7.4593161,2.3221854 A0.0254,0.0254 0 0,1 7.4448835,2.3450956 L7.4086278,2.3624516 A0.3846004,0.3846004 270.5200655 1,1 7.1033862,2.5085744 L6.5778057,2.760176z" transform="matrix(1,0,0,-1,4.0566142,4.9504859)" fill="rgb(255,255,255)" stroke="rgb(0,0,0)" stroke-width="0.0010cm" stroke-linecap="round" stroke-linejoin="round" /><path d="M7.1898715,0.2070362 a0.215265,0.215265 0 1,1 0.43053,0 a0.215265,0.215265 0 1,1 -0.43053,0z" transform="matrix(1,0,0,-1,4.0566142,4.9504859)" fill="rgb(255,255,255)" stroke="rgb(0,0,0)" stroke-width="0.0010cm" stroke-linecap="round" stroke-linejoin="round" /></svg>