<?xml version="1.0" encoding="utf-8"?>
<!-- Generator: Fusion 360, Shaper Origin Export Add-In, Version 1.6.10  -->
<svg xmlns="http://www.w3.org/2000/svg" xmlns:xlink="http://www.w3.org/1999/xlink" xmlns:shaper="http://www.shapertools.com/namespaces/shaper" shaper:fusionaddin="version:1.6.10" width="16.5100005cm" height="13.2640419cm" version="1.1" x="0cm" y="0cm" viewBox="0 0 16.5100005 13.2640419" enable-background="new 0 0 16.5100005 13.2640419" xml:space="preserve"><path d="M-10.3348204,5.0939314 A0.15875,0.15875 89.9999959 0,1 -10.4935705,4.9351814 L-10.4935705,-3.3007686 A0.15875,0.15875 179.999996 0,1 -10.3348205,-3.4595186 L4.2701796,-3.4595186 A0.15875,0.15875 270 0,1 4.4289296,-3.3007686 L4.4289299,-2.3482687 A0.15875,0.15875 0 0,1 4.2701799,-2.1895186 L3.9526794,-2.1895186 A0.635,0.635 269.9999919 1,0 3.9526796,-0.9195186 L4.2701813,-0.9195186 A0.15875,0.15875 269.9999919 0,1 4.4289313,-0.7607686 L4.4289318,2.7171143 A0.15875,0.15875 179.9999919 0,0 4.431601,2.7461028 L4.7571038,4.4986859 A0.6350023,0.6350023 169.478469 0,0 5.3814294,5.0177336 L5.8576795,5.0177336 A0.15875,0.15875 270 0,1 6.0164295,5.1764836 L6.01643,8.6362826 A0.15875,0.15875 0 0,1 5.85768,8.7950326 L5.54018,8.7950326 A0.635,0.635 269.9999919 0,0 4.9051801,9.4300327 L4.9051802,9.6457732 A0.15875,0.15875 0 0,1 4.7257092,9.8031651 L1.9247912,9.4344177 A0.15875,0.15875 97.4999919 0,1 1.7943821,9.3256185 L0.2657296,4.5712945 A0.3175,0.3175 342.1759018 0,0 -0.0365307,4.3509799 L-3.1910702,4.3509804 A0.15875,0.15875 89.9999919 0,1 -3.3498202,4.1922304 L-3.3498205,2.2554804 A0.635,0.635 0 1,0 -4.6198205,2.2554806 L-4.6198204,2.5729806 A0.15875,0.15875 0 0,1 -4.7785704,2.7317306 L-6.7736591,2.7317309 A0.3175,0.3175 269.9999919 0,0 -7.0787431,2.9613104 L-7.6691846,5.0101427 A0.3175,0.3175 196.0761576 0,0 -7.6732248,5.1705098 L-7.0000839,8.042746 A0.15875,0.15875 346.810136 0,1 -7.1753669,8.2363613 L-8.8632915,8.0141422 A0.15875,0.15875 97.4999875 0,1 -9.0013205,7.8567503 L-9.0013205,7.433425 A0.635,0.635 0.1273579 0,0 -9.6363189,6.7970136 L-9.9538205,6.7970136 A0.15875,0.15875 90 0,1 -10.1125705,6.6382636 L-10.1125705,5.2526814 A0.15875,0.15875 0 0,0 -10.2713205,5.0939314 L-10.3348204,5.0939314z" transform="matrix(1,0,0,-1,10.4935705,9.8045233)" fill="rgb(0,0,0)" stroke-linecap="round" stroke-linejoin="round" /><path d="M-0.8386502,1.6480303 a0.3175,0.3175 0 1,1 0.635,0 a0.3175,0.3175 0 1,1 -0.635,0z" transform="matrix(1,0,0,-1,10.4935705,9.8045233)" fill="rgb(255,255,255)" stroke="rgb(0,0,0)" stroke-width="0.0010cm" stroke-linecap="round" stroke-linejoin="round" /><path d="M-6.8080304,0.8394312 a0.09271,0.09271 0 1,1 0.18542,0 a0.09271,0.09271 0 1,1 -0.18542,0z" transform="matrix(1,0,0,-1,10.4935705,9.8045233)" fill="rgb(255,255,255)" stroke="rgb(0,0,0)" stroke-width="0.0010cm" stroke-linecap="round" stroke-linejoin="round" /><path d="M-7.1915705,0.0139312 a0.47625,0.47625 0 1,1 0.9525,0 a0.47625,0.47625 0 1,1 -0.9525,0z" transform="matrix(1,0,0,-1,10.4935705,9.8045233)" fill="rgb(255,255,255)" stroke="rgb(0,0,0)" stroke-width="0.0010cm" stroke-linecap="round" stroke-linejoin="round" /><path d="M2.4286799,7.9387294 a0.9525,0.9525 0 1,1 1.905,0 a0.9525,0.9525 0 1,1 -1.905,0z" transform="matrix(1,0,0,-1,10.4935705,9.8045233)" fill="rgb(255,255,255)" stroke="rgb(0,0,0)" stroke-width="0.0010cm" stroke-linecap="round" stroke-linejoin="round" /><path d="M0.8157802,3.5254818 a0.9525,0.9525 0 1,1 1.905,0 a0.9525,0.9525 0 1,1 -1.905,0z" transform="matrix(1,0,0,-1,10.4935705,9.8045233)" fill="rgb(255,255,255)" stroke="rgb(0,0,0)" stroke-width="0.0010cm" stroke-linecap="round" stroke-linejoin="round" /><path d="M-2.8418196,2.6809323 a0.9525,0.9525 0 1,1 1.905,0 a0.9525,0.9525 0 1,1 -1.905,0z" transform="matrix(1,0,0,-1,10.4935705,9.8045233)" fill="rgb(255,255,255)" stroke="rgb(0,0,0)" stroke-width="0.0010cm" stroke-linecap="round" stroke-linejoin="round" /><path d="M-2.8418201,-1.2052677 a0.9525,0.9525 0 1,1 1.905,0 a0.9525,0.9525 0 1,1 -1.905,0z" transform="matrix(1,0,0,-1,10.4935705,9.8045233)" fill="rgb(255,255,255)" stroke="rgb(0,0,0)" stroke-width="0.0010cm" stroke-linecap="round" stroke-linejoin="round" /><path d="M0.8157795,-1.2052682 a0.9525,0.9525 0 1,1 1.905,0 a0.9525,0.9525 0 1,1 -1.905,0z" transform="matrix(1,0,0,-1,10.4935705,9.8045233)" fill="rgb(255,255,255)" stroke="rgb(0,0,0)" stroke-width="0.0010cm" stroke-linecap="round" stroke-linejoin="round" /><path d="M-0.5488355,-2.0942686 a0.215265,0.215265 0 1,1 0.43053,0 a0.215265,0.215265 0 1,1 -0.43053,0z" transform="matrix(1,0,0,-1,10.4935705,9.8045233)" fill="rgb(255,255,255)" stroke="rgb(0,0,0)" stroke-width="0.0010cm" stroke-linecap="round" stroke-linejoin="round" /><path d="M-9.0260855,-2.8245185 a0.215265,0.215265 0 1,1 0.43053,0 a0.215265,0.215265 0 1,1 -0.43053,0z" transform="matrix(1,0,0,-1,10.4935705,9.8045233)" fill="rgb(255,255,255)" stroke="rgb(0,0,0)" stroke-width="0.0010cm" stroke-linecap="round" stroke-linejoin="round" /><path d="M3.4834153,0.8267314 a0.215265,0.215265 0 1,1 0.43053,0 a0.215265,0.215265 0 1,1 -0.43053,0z" transform="matrix(1,0,0,-1,10.4935705,9.8045233)" fill="rgb(255,255,255)" stroke="rgb(0,0,0)" stroke-width="0.0010cm" stroke-linecap="round" stroke-linejoin="round" /><path d="M5.0074162,7.4942313 a0.215265,0.215265 0 1,1 0.43053,0 a0.215265,0.215265 0 1,1 -0.43053,0z" transform="matrix(1,0,0,-1,10.4935705,9.8045233)" fill="rgb(255,255,255)" stroke="rgb(0,0,0)" stroke-width="0.0010cm" stroke-linecap="round" stroke-linejoin="round" /><path d="M-9.0260855,5.0558315 a0.215265,0.215265 0 1,1 0.43053,0 a0.215265,0.215265 0 1,1 -0.43053,0z" transform="matrix(1,0,0,-1,10.4935705,9.8045233)" fill="rgb(255,255,255)" stroke="rgb(0,0,0)" stroke-width="0.0010cm" stroke-linecap="round" stroke-linejoin="round" /></svg>