<?xml version="1.0" encoding="utf-8"?>
<!-- Generator: Fusion 360, Shaper Origin Export Add-In, Version 1.6.10  -->
<svg xmlns="http://www.w3.org/2000/svg" xmlns:xlink="http://www.w3.org/1999/xlink" xmlns:shaper="http://www.shapertools.com/namespaces/shaper" shaper:fusionaddin="version:1.6.10" width="13.8684cm" height="3.7061583cm" version="1.1" x="0cm" y="0cm" viewBox="0 0 13.8684 3.7061583" enable-background="new 0 0 13.8684 3.7061583" xml:space="preserve"><path d="M6.9356262,-2.9855255 L6.6169973,0.7206328 -6.9327738,0.7101745 -6.9327738,-2.9855255 6.9356262,-2.9855255z" transform="matrix(1,0,0,-1,6.9327738,0.7206328)" fill="rgb(0,0,0)" shaper:cutDepth="0.003175" stroke-linecap="round" stroke-linejoin="round" /><path d="M-4.3127738,-1.9855255 L3.0372262,-1.9855255 A0.635,0.635 270 1,1 3.0372262,-0.7155255 L-4.3127738,-0.7155255 A0.635,0.635 90 0,1 -4.3127738,-1.9855255z" transform="matrix(1,0,0,-1,6.9327738,0.7206328)" fill="rgb(255,255,255)" stroke="rgb(0,0,0)" stroke-width="0.0010cm" stroke-linecap="round" stroke-linejoin="round" shaper:cutDepth="0.003175" /><path d="M5.7691025,-2.3505255 a0.215265,0.215265 0 1,1 0.43053,0 a0.215265,0.215265 0 1,1 -0.43053,0z" transform="matrix(1,0,0,-1,6.9327738,0.7206328)" fill="rgb(255,255,255)" stroke="rgb(0,0,0)" stroke-width="0.0010cm" stroke-linecap="round" stroke-linejoin="round" shaper:cutDepth="0.003175" /><path d="M-6.6717888,0.0755419 a0.215265,0.215265 0 1,1 0.43053,0 a0.215265,0.215265 0 1,1 -0.43053,0z" transform="matrix(1,0,0,-1,6.9327738,0.7206328)" fill="rgb(255,255,255)" stroke="rgb(0,0,0)" stroke-width="0.0010cm" stroke-linecap="round" stroke-linejoin="round" shaper:cutDepth="0.003175" /></svg>