<?xml version="1.0" encoding="utf-8"?>
<!-- Generator: Fusion 360, Shaper Origin Export Add-In, Version 1.6.10  -->
<svg xmlns="http://www.w3.org/2000/svg" xmlns:xlink="http://www.w3.org/1999/xlink" xmlns:shaper="http://www.shapertools.com/namespaces/shaper" shaper:fusionaddin="version:1.6.10" width="23.7132326cm" height="0.635cm" version="1.1" x="0cm" y="0cm" viewBox="0 0 23.7132326 0.635" enable-background="new 0 0 23.7132326 0.635" xml:space="preserve"><path d="M11.8503419,-0.1352091 L11.8503419,-0.1352091 11.848971,-0.1262998 11.8474252,-0.1167618 11.8441235,-0.097897 11.8366795,-0.0610123 11.8281147,-0.0252539 11.8184289,0.0093781 11.8076224,0.0428837 11.801776,0.059276 11.7944588,0.0783889 11.7868365,0.0968369 11.7789093,0.1146199 11.7706768,0.1317392 11.7621398,0.1481912 11.7532968,0.1639801 11.7441504,0.1791027 11.7347017,0.1935568 11.7249409,0.2073544 11.7148786,0.2204828 11.7097091,0.2268266 11.7032212,0.2344188 11.6900245,0.2486341 11.676533,0.2615575 11.6627466,0.2731889 11.6486655,0.2835285 11.6415144,0.2882138 11.6378988,0.2904428 11.6336257,0.2929583 11.6164401,0.3017933 11.5991053,0.308665 11.5816213,0.3135733 11.563987,0.3165189 11.5462056,0.3175 -11.7023856,0.3175 A0.15875,0.15875 90 0,1 -11.8611356,0.15875 L-11.8611356,-0.15875 A0.15875,0.15875 180 0,1 -11.7023856,-0.3175 L11.693347,-0.3175 A0.15875,0.15875 270 0,1 11.8503419,-0.1352091z" transform="matrix(1,0,0,-1,11.8611356,0.3175)" fill="rgb(0,0,0)" shaper:cutDepth="0.0015875" stroke-linecap="round" stroke-linejoin="round" /><path d="M6.075365,-0.0120698 L6.075365,-0.0120698 6.0813707,-0.0140143 6.0876123,-0.0149522 6.1002436,-0.015272 6.5898601,-0.015272 6.5898601,-0.015272 6.5968422,-0.0149731 6.6037567,-0.0140179 6.6104971,-0.0121536 6.6167273,-0.0090151 6.6219618,-0.004393 6.625605,0.0015557 6.6273997,0.0083025 6.6278677,0.015272 6.6278677,0.015272 6.6269022,0.0231899 6.6241123,0.0306605 6.6196079,0.0372385 6.6138273,0.0427371 6.6138273,0.0427371 6.6075933,0.0453586 6.6008942,0.0463865 6.5873476,0.0468014 6.1001594,0.0468015 6.1001594,0.0468015 6.0892043,0.0466418 6.0838162,0.0460875 6.0786904,0.0443382 6.0786904,0.0443382 6.071344,0.0393704 6.0684292,0.0360302 6.0660089,0.0322523 6.0625951,0.0240641 6.0613246,0.015272 6.0613246,0.015272 6.0624034,0.0073906 6.0651747,-0.000061 6.0694157,-0.0068039 6.075365,-0.0120698z" transform="matrix(1,0,0,-1,11.8611356,0.3175)" fill="rgb(104,104,104)" fill-rule="nonzero" shaper:cutDepth="0.0000762" stroke-linecap="round" stroke-linejoin="round" /><path d="M6.8031341,-0.1662681 L6.8031341,-0.1662681 6.7980674,-0.170045 6.7926062,-0.1730786 6.7866209,-0.1748143 6.7803493,-0.1755052 6.7803493,-0.1755052 6.7735399,-0.1748076 6.7670252,-0.1727172 6.7610748,-0.1693389 6.7559713,-0.1647788 6.7518761,-0.1592976 6.7489656,-0.1531023 6.7472463,-0.1464805 6.746603,-0.1396652 6.746603,-0.1396652 6.7475827,-0.1297609 6.7491795,-0.1250833 6.7516095,-0.1207673 6.7582719,-0.1134027 6.7660125,-0.1071269 6.9801172,0.0512385 6.9801172,0.1266101 6.7897095,0.1266101 6.7897095,0.1266101 6.773193,0.1277552 6.7651435,0.1296747 6.757523,0.1329419 6.7540626,0.1352148 6.7510166,0.1380283 6.7484472,0.1412893 6.7464024,0.1448959 6.7449264,0.1487744 6.7440368,0.1528248 6.7436471,0.1610953 6.7436471,0.1610953 6.7441451,0.1669498 6.7453061,0.1726798 6.7473963,0.1781385 6.7503771,0.1831714 6.7541445,0.187622 6.7586387,0.1913329 6.7637881,0.1940801 6.7693879,0.1957037 6.7693879,0.1957037 6.7811632,0.1965451 6.7929849,0.196566 7.261172,0.1965658 7.261172,0.1965658 7.2716173,0.196541 7.2819467,0.1950137 7.2869254,0.1934072 7.2916453,0.1911555 7.295978,0.1882203 7.2997799,0.1846279 7.3029411,0.1804584 7.3054428,0.1758658 7.3087051,0.1659415 7.3101039,0.1555974 7.3101901,0.1451499 7.3101903,0.0009853 7.3101903,0.0009853 7.309371,-0.015812 7.3074059,-0.0324989 7.3042137,-0.0489518 7.2996432,-0.0650453 7.2935032,-0.0806359 7.2858123,-0.0955012 7.2766412,-0.1094299 7.2660604,-0.1223333 7.2541594,-0.1341149 7.2411029,-0.1445237 7.2269893,-0.1533161 7.2117895,-0.1604387 7.1960858,-0.165898 7.1800285,-0.1696714 7.16363,-0.171838 7.1470012,-0.1729188 7.1470012,-0.1729188 7.1323908,-0.1722653 7.1178594,-0.1706193 7.1035195,-0.167746 7.0894695,-0.163688 7.075803,-0.1584824 7.0626897,-0.1520082 7.0503246,-0.1442007 7.0386659,-0.1353718 7.02783,-0.1255508 7.018038,-0.1146889 7.0093233,-0.1029447 7.0016967,-0.0904671 6.9952905,-0.0773203 6.9900329,-0.0636732 6.9858717,-0.0496535 6.9826155,-0.0353956 6.8073216,-0.1629427 6.8073216,-0.1629427 6.8031341,-0.1662681z M7.0500731,0.0044338 L7.0500731,0.0044338 7.0502645,-0.0095783 7.05145,-0.023533 7.0525481,-0.0304556 7.0543056,-0.0372465 7.0598028,-0.0501268 7.0598028,-0.0501268 7.0665256,-0.0616275 7.0748202,-0.0720506 7.084515,-0.0811858 7.0953809,-0.0888926 7.1072221,-0.094995 7.1197912,-0.0994087 7.1328487,-0.1020411 7.1461391,-0.1029631 7.1461391,-0.1029631 7.1596103,-0.1018995 7.1728048,-0.0989909 7.1854616,-0.0942592 7.1973295,-0.0877988 7.2081583,-0.0797163 7.2177305,-0.0701799 7.2258787,-0.0594014 7.2323522,-0.0475404 7.2323522,-0.0475404 7.2366426,-0.0365935 7.239103,-0.0250947 7.2400088,-0.0133674 7.2402343,-0.0016083 7.2402343,0.1266101 7.0500731,0.1266101 7.0500731,0.0044338z" transform="matrix(1,0,0,-1,11.8611356,0.3175)" fill="rgb(104,104,104)" fill-rule="nonzero" shaper:cutDepth="0.0000762" stroke-linecap="round" stroke-linejoin="round" /><path d="M7.7796896,-0.057147 L7.7796896,0.1344924 7.9225568,0.1344924 7.9225568,-0.1345203 7.9225568,-0.1345203 7.922831,-0.1426556 7.9239497,-0.1507035 7.9261014,-0.1585618 7.9296407,-0.1658688 7.9348439,-0.1721319 7.9380865,-0.1745743 7.9416913,-0.1764836 7.9494309,-0.1789815 7.9575349,-0.1796927 7.9575349,-0.1796927 7.9655515,-0.1788283 7.9731762,-0.176205 7.9767178,-0.1742541 7.9799091,-0.1718031 7.9851086,-0.1656265 7.9886965,-0.1584268 7.9908271,-0.1506348 7.9920203,-0.1426677 7.9925128,-0.1346156 7.9925127,0.1544813 7.9925127,0.1544813 7.9928221,0.1645663 7.9915944,0.1745717 7.9883342,0.1841138 7.9857813,0.188479 7.9825583,0.1923659 7.9787143,0.1956389 7.9744337,0.1983335 7.9650925,0.2021204 7.9551702,0.2039322 7.9450956,0.2044482 7.4718853,0.2044483 7.4718853,0.2044483 7.4587755,0.2042618 7.4522911,0.203692 7.446045,0.2018618 7.446045,0.2018618 7.4376882,0.196335 7.4341699,0.192765 7.4312673,0.1886481 7.4290303,0.1841439 7.4274855,0.179379 7.4259696,0.1694703 7.4259696,0.1694703 7.4274563,0.1589386 7.4292281,0.1539163 7.4318144,0.1492416 7.4351141,0.1450709 7.4390783,0.1415302 7.443655,0.1388259 7.4486314,0.1369557 7.4486314,0.1369557 7.4542303,0.1351222 7.460107,0.1345486 7.4719089,0.1344924 7.7097337,0.1344924 7.7097337,-0.0544975 7.7097337,-0.0544975 7.7100822,-0.0686816 7.7108737,-0.07571 7.7123203,-0.0826414 7.7123203,-0.0826414 7.7171365,-0.0918458 7.7205165,-0.095792 7.7245827,-0.0990756 7.729153,-0.1015979 7.7340593,-0.1033024 7.7443423,-0.1048105 7.7443423,-0.1048105 7.7528516,-0.1043161 7.7570102,-0.1033648 7.760996,-0.1018197 7.7646994,-0.0996919 7.7680049,-0.0969965 7.7732192,-0.0902584 7.7765963,-0.0824397 7.7785781,-0.0741398 7.7795151,-0.0656734 7.7796896,-0.057147z" transform="matrix(1,0,0,-1,11.8611356,0.3175)" fill="rgb(104,104,104)" fill-rule="nonzero" shaper:cutDepth="0.0000762" stroke-linecap="round" stroke-linejoin="round" /><path d="M4.0283974,-0.0120698 L4.0283974,-0.0120698 4.0344036,-0.0140144 4.0406485,-0.0149525 4.0532761,-0.015272 4.5428926,-0.015272 4.5428926,-0.015272 4.5567271,-0.0140305 4.5634761,-0.0121869 4.5697092,-0.0090489 4.5749478,-0.0043928 4.5786172,0.0015073 4.5803745,0.0082309 4.5809002,0.015272 4.5809002,0.015272 4.5799347,0.0231899 4.5771448,0.0306605 4.5726403,0.0372385 4.5668598,0.0427371 4.5668598,0.0427371 4.560672,0.0453462 4.5539883,0.0463819 4.54038,0.0468014 4.0531919,0.0468015 4.0531919,0.0468015 4.0422367,0.0466418 4.0368486,0.0460875 4.0317228,0.0443382 4.0317228,0.0443382 4.0243765,0.0393704 4.0214616,0.0360302 4.0190413,0.0322523 4.0156276,0.0240641 4.014357,0.015272 4.014357,0.015272 4.0154359,0.0073906 4.0182071,-0.000061 4.0224481,-0.0068039 4.0283974,-0.0120698z" transform="matrix(1,0,0,-1,11.8611356,0.3175)" fill="rgb(104,104,104)" fill-rule="nonzero" shaper:cutDepth="0.0000762" stroke-linecap="round" stroke-linejoin="round" /><path d="M4.7149074,-0.0158878 L4.7149074,-0.0158878 4.7209201,-0.0179802 4.7271871,-0.0189499 4.7399092,-0.0192132 5.1932667,-0.0192132 5.1932667,-0.1332882 5.1932667,-0.1332882 5.1944104,-0.1497155 5.1962719,-0.157737 5.1994528,-0.1653427 5.2016713,-0.1688137 5.2043878,-0.1719136 5.2110105,-0.176809 5.2148077,-0.1784096 5.2188133,-0.1794119 5.2270132,-0.1801854 5.2270132,-0.1801854 5.2351175,-0.1793906 5.2429448,-0.177159 5.2499308,-0.1729853 5.2529232,-0.1702131 5.2554705,-0.1670349 5.2592667,-0.1598285 5.2616334,-0.1520385 5.2628111,-0.143981 5.2632227,-0.1358472 5.2632226,0.1614125 5.2632226,0.1614125 5.2630688,0.1699367 5.2621959,0.1784068 5.2603791,0.1867381 5.2574213,0.1947301 5.255322,0.1984423 5.252714,0.2018171 5.2496232,0.2047652 5.2461064,0.2071871 5.2422225,0.2089482 5.2380902,0.2100291 5.2295996,0.2107294 5.2295996,0.2107294 5.221382,0.2100408 5.2135001,0.207632 5.2097967,0.2057915 5.2064216,0.2034355 5.2009319,0.1972795 5.1971329,0.1899749 5.1948409,0.1820466 5.1936662,0.1738904 5.1932669,0.1656523 5.1932667,0.0507427 4.7440965,0.0507427 4.7440965,0.0507427 4.7325003,0.0507098 4.7209424,0.0498804 4.7209424,0.0498804 4.7157107,0.0478431 4.7109224,0.0450228 4.7068021,0.041297 4.7033216,0.036889 4.7004484,0.0320597 4.6983857,0.0268745 4.6966795,0.0157647 4.6966795,0.0157647 4.6978467,0.0062372 4.6991998,0.001638 4.7012188,-0.0027346 4.7038657,-0.0067675 4.7071058,-0.0103067 4.7149074,-0.0158878z" transform="matrix(1,0,0,-1,11.8611356,0.3175)" fill="rgb(104,104,104)" fill-rule="nonzero" shaper:cutDepth="0.0000762" stroke-linecap="round" stroke-linejoin="round" /><path d="M5.8721409,-0.164667 L5.8721409,-0.164667 5.8874915,-0.1505354 5.9016429,-0.1352134 5.9144078,-0.1187031 5.9200921,-0.1099608 5.9252525,-0.1008905 5.9341406,-0.08201 5.9376475,-0.0721898 5.9404874,-0.0621449 5.9427483,-0.0519478 5.9443388,-0.0416394 5.9455452,-0.0208143 5.9455451,-0.0207607 5.9455451,-0.0207607 5.9442079,0.0020464 5.9426783,0.0133698 5.9404224,0.0245759 5.937464,0.0356136 5.9338485,0.046455 5.9296059,0.0570674 5.9247052,0.0673896 5.9191335,0.0773677 5.9129505,0.086979 5.8990235,0.1050912 5.8913859,0.1135955 5.8833004,0.1216629 5.866106,0.1367093 5.866106,0.1367093 5.8442463,0.1524684 5.8212869,0.166576 5.7972528,0.1787643 5.7723347,0.1890236 5.7466858,0.1972893 5.7204351,0.2033746 5.7071335,0.2055713 5.6937472,0.2071096 5.6668306,0.2083894 5.6668306,0.2083894 5.6396401,0.2073288 5.6126214,0.2041098 5.585909,0.1989218 5.5597136,0.1915605 5.5341745,0.1821694 5.5094585,0.1707894 5.4974767,0.1643285 5.4858282,0.1572972 5.4634909,0.141759 5.4634909,0.141759 5.4456312,0.1267885 5.4371454,0.118804 5.4290844,0.110383 5.4214725,0.1015554 5.4143375,0.0923401 5.4077127,0.0827473 5.4016801,0.0727737 5.3963462,0.062412 5.3917243,0.0517095 5.3877772,0.0407422 5.3845162,0.0295517 5.3819843,0.0181671 5.3802724,0.00664 5.3790021,-0.0166268 5.3790021,-0.0166268 5.3800826,-0.0359232 5.3830342,-0.0550222 5.3879689,-0.0737072 5.3950579,-0.0916866 5.4039672,-0.1088347 5.4147586,-0.1248694 5.4270637,-0.1397702 5.4405828,-0.1535825 5.4405828,-0.1535825 5.4506128,-0.1626416 5.4611162,-0.1711307 5.4666849,-0.1749334 5.4726461,-0.1780493 5.4790934,-0.180069 5.4857831,-0.1809243 5.4857831,-0.1809243 5.4926746,-0.180322 5.4993887,-0.1786769 5.5056604,-0.1757601 5.5111954,-0.1716185 5.5157631,-0.1664268 5.519043,-0.160341 5.5209301,-0.1536898 5.5216231,-0.1468086 5.5216231,-0.1468086 5.5208316,-0.1374404 5.5195902,-0.1328984 5.5176075,-0.1286229 5.5149312,-0.1247467 5.5117346,-0.1212896 5.5045037,-0.1152792 5.5045037,-0.1152792 5.4934598,-0.1062902 5.4830168,-0.096614 5.4734419,-0.086072 5.4650152,-0.0745971 5.4580587,-0.0621736 5.4528743,-0.048918 5.4497453,-0.0350264 5.4489578,-0.0208143 5.4489578,-0.0208143 5.4495869,-0.0068784 5.4518023,0.0068948 5.4556202,0.0203108 5.4610807,0.0331488 5.4680817,0.0452116 5.4764572,0.0563727 5.4857722,0.0667529 5.4960055,0.076237 5.4960055,0.076237 5.5139753,0.0901989 5.5331629,0.1024343 5.5533409,0.1129555 5.5743383,0.1217297 5.5959955,0.1287179 5.618121,0.1340407 5.6406605,0.1371751 5.6633821,0.1384336 5.6633821,0.1384336 5.6814648,0.137462 5.6994623,0.1354876 5.7173011,0.1323617 5.7348842,0.1280427 5.7521264,0.1225043 5.768903,0.1156943 5.7850813,0.1075592 5.8005907,0.0982129 5.8153193,0.0876805 5.8291286,0.0759655 5.8417772,0.063013 5.8529122,0.048731 5.8578048,0.0411109 5.8621147,0.0331471 5.8690668,0.0164287 5.8716801,0.0077543 5.87362,-0.0010943 5.8755895,-0.01909 5.8755895,-0.01909 5.8747888,-0.0319284 5.8723294,-0.0445571 5.8683303,-0.0567795 5.8626778,-0.0683384 5.8557279,-0.0791609 5.8476357,-0.0891648 5.8386231,-0.0983423 5.8289112,-0.1067811 5.8289112,-0.1067811 5.8195336,-0.1142863 5.8110565,-0.1227781 5.8075773,-0.1276795 5.8051191,-0.1331861 5.8039633,-0.1390561 5.8036631,-0.1450843 5.8036631,-0.1450843 5.8044869,-0.1520365 5.8065988,-0.1587091 5.8100407,-0.1648036 5.8146319,-0.1700881 5.8201365,-0.1744111 5.8264047,-0.1775287 5.8331489,-0.1793961 5.8401189,-0.1800622 5.8401189,-0.1800622 5.8491578,-0.1790396 5.8534884,-0.177603 5.8575736,-0.1755758 5.865081,-0.170417 5.8721409,-0.164667z" transform="matrix(1,0,0,-1,11.8611356,0.3175)" fill="rgb(104,104,104)" fill-rule="nonzero" shaper:cutDepth="0.0000762" stroke-linecap="round" stroke-linejoin="round" /><path d="M3.2162551,-0.1502571 L3.2162551,-0.1502571 3.2158137,-0.1419109 3.213838,-0.1337946 3.2120747,-0.1299943 3.209716,-0.1265435 3.2067797,-0.1235576 3.2033972,-0.1210887 3.1957633,-0.1177155 3.1875971,-0.1158972 3.1709317,-0.1147866 2.8034551,-0.1147863 3.192039,0.1392727 3.192039,0.1392727 3.2012214,0.1460558 3.2092765,0.1541431 3.2124242,0.158926 3.214651,0.1642077 3.2157945,0.1697877 3.2162551,0.1755052 3.2162551,0.1755052 3.214738,0.1853039 3.2130423,0.1899419 3.2106667,0.1943318 3.2077485,0.198411 3.2042414,0.2018996 3.2000912,0.2045435 3.195564,0.2066651 3.195564,0.2066651 3.1898885,0.2079558 3.1840669,0.2083323 3.1724096,0.2083894 2.6953722,0.2083895 2.6953722,0.2083895 2.6810253,0.208067 2.6739107,0.2071091 2.6670777,0.2049408 2.6670777,0.2049408 2.6597359,0.1992026 2.6566514,0.1957036 2.6541218,0.1917667 2.652199,0.1875046 2.6509005,0.1830277 2.649712,0.173781 2.649712,0.173781 2.6503821,0.1661981 2.6523808,0.1588563 2.6560827,0.1522124 2.6614163,0.1467865 2.6679481,0.142897 2.6751671,0.1404592 2.6826432,0.1390577 2.6902321,0.1384336 3.0633688,0.1384336 2.6722116,-0.1147863 2.6722116,-0.1147863 2.6634598,-0.1217025 2.6595158,-0.1256418 2.6560635,-0.1300348 2.6532385,-0.1348751 2.6512253,-0.1400851 2.6501717,-0.1455409 2.649712,-0.1511192 2.649712,-0.1511192 2.650285,-0.1584821 2.6522536,-0.1655962 2.6559634,-0.1719758 2.6612564,-0.1771139 2.6676931,-0.1807293 2.6747189,-0.1830085 2.6820019,-0.1842239 2.68937,-0.1847423 3.1740251,-0.1847422 3.1740251,-0.1847422 3.1896749,-0.1835465 3.1973565,-0.181512 3.2043927,-0.1779362 3.2101728,-0.172594 3.2141724,-0.1658136 3.2160363,-0.1581376 3.2162551,-0.1502571z" transform="matrix(1,0,0,-1,11.8611356,0.3175)" fill="rgb(104,104,104)" fill-rule="nonzero" shaper:cutDepth="0.0000762" stroke-linecap="round" stroke-linejoin="round" /><path d="M3.8645851,-0.0972976 L3.8645851,-0.0972976 3.8531528,-0.109728 3.8406,-0.120933 3.8270158,-0.1309975 3.8127673,-0.140005 3.7979264,-0.1477236 3.7826726,-0.1545441 3.7669514,-0.1603943 3.7508452,-0.1653138 3.7344814,-0.1694128 3.7179394,-0.1727792 3.7012799,-0.1754863 3.6845379,-0.1775711 3.6509002,-0.1800549 3.6171535,-0.1808012 3.6171535,-0.1808012 3.5853414,-0.1800483 3.5536163,-0.1776692 3.522105,-0.1732106 3.5065042,-0.1700912 3.4910591,-0.1662682 3.4757997,-0.1617438 3.4607713,-0.1565007 3.4460694,-0.1504194 3.4317865,-0.1434043 3.4179894,-0.1354521 3.4048187,-0.1265114 3.3924718,-0.1164968 3.3806833,-0.1057958 3.3806833,-0.1057958 3.3699996,-0.0932735 3.3606068,-0.0797563 3.3524037,-0.065485 3.3455681,-0.0505114 3.3399494,-0.0350385 3.3357496,-0.0191239 3.3331016,-0.0028772 3.3320345,0.0135478 3.3320345,0.0135478 3.3337279,0.0340877 3.3354288,0.0442537 3.3377702,0.0542987 3.3441137,0.0739085 3.352431,0.0927675 3.3625018,0.1107514 3.3742805,0.1276636 3.3807782,0.1356769 3.387743,0.1432719 3.4029755,0.1571541 3.4029755,0.1571541 3.4151694,0.1652601 3.4277486,0.1727193 3.4408599,0.1792345 3.4543223,0.1849934 3.4680335,0.1901088 3.4819612,0.1946103 3.4960784,0.198475 3.510356,0.2016875 3.5392092,0.2066143 3.5682848,0.2099584 3.5974978,0.211733 3.6267601,0.2123305 3.6267601,0.2123305 3.6565022,0.2115127 3.6861608,0.2091735 3.7155951,0.2048268 3.7446508,0.1984283 3.7589679,0.1943753 3.773084,0.1896629 3.7869258,0.18421 3.8004317,0.1779686 3.8135655,0.170954 3.8262073,0.1630999 3.8381745,0.1542812 3.8496825,0.144838 3.8496825,0.144838 3.861849,0.1314448 3.8727527,0.1170048 3.882193,0.1015682 3.8903087,0.085395 3.8969044,0.0685463 3.9020259,0.0511916 3.9052403,0.033385 3.9064599,0.015333 3.90646,0.015272 3.90646,0.015272 3.9056643,0.000005 3.9033937,-0.0151146 3.8997802,-0.0299689 3.8949112,-0.044462 3.8889222,-0.0585285 3.8818312,-0.0720736 3.8736742,-0.0850039 3.8645851,-0.0972976z M3.6249127,0.1423748 L3.6249127,0.1423748 3.6020895,0.1419749 3.5792932,0.1408087 3.5565851,0.1384916 3.5340345,0.1349448 3.5117826,0.1298649 3.4900769,0.1228109 3.4795249,0.1184466 3.4692687,0.1134255 3.4499001,0.101362 3.4499001,0.101362 3.4399434,0.0933321 3.4309132,0.0842972 3.422914,0.0743699 3.4159927,0.0636638 3.4102534,0.0522448 3.4058717,0.0402936 3.4030985,0.0279626 3.4019903,0.015272 3.4019903,0.015272 3.4028502,0.0041571 3.4051714,-0.0067526 3.4085817,-0.017365 3.4131077,-0.0275592 3.4184431,-0.0373489 3.4247193,-0.0465669 3.4317285,-0.0552388 3.4395545,-0.0631819 3.4395545,-0.0631819 3.4490445,-0.0705269 3.4589752,-0.0772252 3.469483,-0.0830206 3.4803492,-0.0881139 3.4914812,-0.0925673 3.502851,-0.0963792 3.5260787,-0.102349 3.5496995,-0.1064866 3.5735417,-0.1090729 3.5974875,-0.1103659 3.6214641,-0.1108454 3.6214641,-0.1108454 3.6465248,-0.1104067 3.6715199,-0.1086682 3.6963749,-0.1053947 3.720898,-0.1002635 3.744856,-0.0928845 3.7564974,-0.088248 3.7677948,-0.0828264 3.7786998,-0.0766246 3.7890892,-0.0695996 3.7987229,-0.0616079 3.8078076,-0.0529595 3.8078076,-0.0529595 3.819158,-0.0379685 3.8239062,-0.0298776 3.8279866,-0.0213667 3.8314723,-0.0125344 3.834119,-0.0034364 3.8357157,0.0058732 3.8365025,0.0153042 3.8365025,0.0153042 3.8356325,0.0260617 3.8335233,0.0366471 3.8303301,0.046917 3.8262383,0.0568272 3.8213358,0.0663597 3.815654,0.0754932 3.8091492,0.0841135 3.8017727,0.0920017 3.8017727,0.0920017 3.7928176,0.0996202 3.783363,0.1065745 3.7732637,0.1125987 3.7627434,0.1178486 3.7519148,0.122406 3.7408388,0.1263256 3.7181991,0.132624 3.6951464,0.1371521 3.6718387,0.1401495 3.6484028,0.1417906 3.6249127,0.1423748z" transform="matrix(1,0,0,-1,11.8611356,0.3175)" fill="rgb(104,104,104)" fill-rule="nonzero" shaper:cutDepth="0.0000762" stroke-linecap="round" stroke-linejoin="round" /><path d="M-10.4463556,-0 a0.17272,0.17272 0 1,1 0.34544,0 a0.17272,0.17272 0 1,1 -0.34544,0z" transform="matrix(1,0,0,-1,11.8611356,0.3175)" fill="rgb(255,255,255)" stroke="rgb(0,0,0)" stroke-width="0.0010cm" stroke-linecap="round" stroke-linejoin="round" shaper:cutDepth="0.0015875" /><path d="M10.822297,-0 a0.17272,0.17272 0 1,1 0.34544,0 a0.17272,0.17272 0 1,1 -0.34544,0z" transform="matrix(1,0,0,-1,11.8611356,0.3175)" fill="rgb(255,255,255)" stroke="rgb(0,0,0)" stroke-width="0.0010cm" stroke-linecap="round" stroke-linejoin="round" shaper:cutDepth="0.0015875" /><path d="M1.9361444,-0 a0.17272,0.17272 0 1,1 0.34544,0 a0.17272,0.17272 0 1,1 -0.34544,0z" transform="matrix(1,0,0,-1,11.8611356,0.3175)" fill="rgb(255,255,255)" stroke="rgb(0,0,0)" stroke-width="0.0010cm" stroke-linecap="round" stroke-linejoin="round" shaper:cutDepth="0.0015875" /></svg>