<?xml version="1.0" encoding="utf-8"?>
<!-- Generator: Fusion 360, Shaper Origin Export Add-In, Version 1.6.10  -->
<svg xmlns="http://www.w3.org/2000/svg" xmlns:xlink="http://www.w3.org/1999/xlink" xmlns:shaper="http://www.shapertools.com/namespaces/shaper" shaper:fusionaddin="version:1.6.10" width="10.795cm" height="10.795cm" version="1.1" x="0cm" y="0cm" viewBox="0 0 10.795 10.795" enable-background="new 0 0 10.795 10.795" xml:space="preserve"><path d="M5.4542361,-5.8857964 L-5.3407639,-5.8857964 -5.3407639,4.9092036 5.4542361,4.9092036 5.4542361,-5.8857964z" transform="matrix(1,0,0,-1,5.3407639,4.9092036)" fill="rgb(0,0,0)" shaper:cutDepth="0.0015875" stroke-linecap="round" stroke-linejoin="round" /><path d="M2.9566361,0.5179637 L2.9566361,0.4600146 2.7382442,0.4600146 2.7382442,0.4600146 2.752061,0.4429681 2.7584821,0.4341581 2.7643185,0.4250041 2.7694486,0.4154344 2.7740068,0.4055282 2.7821701,0.3851551 2.7295828,0.3851551 2.7295828,0.3851551 2.7240299,0.3983102 2.7176112,0.4109794 2.7098861,0.4229153 2.7014331,0.4344427 2.7014331,0.4344427 2.6911261,0.4459566 2.6798715,0.4562009 2.6736181,0.4604845 2.6669824,0.4642558 2.6530735,0.4709445 2.6530735,0.5179637 2.9566361,0.5179637z" transform="matrix(1,0,0,-1,5.3407639,4.9092036)" fill="rgb(104,104,104)" fill-rule="nonzero" shaper:cutDepth="0.0000762" stroke-linecap="round" stroke-linejoin="round" /><path d="M2.9566361,-2.6720363 L2.9566361,-2.7299854 2.7382442,-2.7299854 2.7382442,-2.7299854 2.752061,-2.7470319 2.7584821,-2.7558419 2.7643185,-2.7649959 2.7694486,-2.7745656 2.7740068,-2.7844718 2.7821701,-2.8048449 2.7295828,-2.8048449 2.7295828,-2.8048449 2.7240299,-2.7916898 2.7176112,-2.7790206 2.7098861,-2.7670847 2.7014331,-2.7555573 2.7014331,-2.7555573 2.6911261,-2.7440434 2.6798715,-2.7337991 2.6736181,-2.7295155 2.6669824,-2.7257442 2.6530735,-2.7190555 2.6530735,-2.6720363 2.9566361,-2.6720363z" transform="matrix(1,0,0,-1,5.3407639,4.9092036)" fill="rgb(104,104,104)" fill-rule="nonzero" shaper:cutDepth="0.0000762" stroke-linecap="round" stroke-linejoin="round" /><path d="M0.5807357,0.9806317 L0.5807357,1.0620216 0.7990589,1.0620216 0.7990589,1.0620216 0.8328092,1.062315 0.8496344,1.0633718 0.8664256,1.0650463 0.8664256,1.0650463 0.8779478,1.0687367 0.8834393,1.0710113 0.8886072,1.0738012 0.8933772,1.0772248 0.8978196,1.0811702 0.9061582,1.0899307 0.9061582,1.0899307 0.9130161,1.1024543 0.9158776,1.1088831 0.918061,1.1155113 0.9203663,1.1293742 0.9211438,1.1436866 0.9211438,1.1436866 0.9205368,1.1576041 0.9184464,1.1710883 0.9163924,1.1775358 0.913645,1.1837809 0.9069831,1.1959301 0.9069831,1.1959301 0.8996418,1.2034685 0.8915727,1.2098005 0.8822658,1.2140807 0.8721998,1.2171026 0.8721998,1.2171026 0.8380426,1.2201641 0.8037333,1.2206771 0.5807357,1.2206771 0.5807357,1.3020671 0.7924597,1.3020671 0.7924597,1.3020671 0.8182165,1.3019867 0.8439174,1.301151 0.8695113,1.2988703 0.895022,1.2954679 0.895022,1.2954679 0.9087205,1.2915455 0.9218589,1.2864702 0.9340356,1.2794157 0.9456158,1.2711335 0.9456158,1.2711335 0.9557859,1.2606451 0.9648541,1.2493851 0.9721695,1.2368974 0.9784743,1.2237018 0.9784743,1.2237018 0.9841555,1.2047566 0.9882906,1.185552 0.9901331,1.1659628 0.9907103,1.1461613 0.9907103,1.1461613 0.9902632,1.1237851 0.9883802,1.1016487 0.9864568,1.0907444 0.9838284,1.0799578 0.9773744,1.0585846 0.9773744,1.0585846 0.9706016,1.0453923 0.9628306,1.0329415 0.9533258,1.0217789 0.9427287,1.0114279 0.9427287,1.0114279 0.9324403,1.0039782 0.9216824,0.9974568 0.9101162,0.9925337 0.8980467,0.9886057 0.8980467,0.9886057 0.8726404,0.9846921 0.8471321,0.9819622 0.8214832,0.9808617 0.7957593,0.9806317 0.5807357,0.9806317z" transform="matrix(1,0,0,-1,5.3407639,4.9092036)" fill="rgb(104,104,104)" fill-rule="nonzero" shaper:cutDepth="0.0000762" stroke-linecap="round" stroke-linejoin="round" /><path d="M-0.0542642,-1.4210911 L-0.0542642,-1.259961 -0.0542642,-1.259961 -0.053625,-1.2241997 -0.0522567,-1.2063844 -0.0502772,-1.1886072 -0.0502772,-1.1886072 -0.0476893,-1.1774655 -0.0442539,-1.1666606 -0.0393849,-1.1564253 -0.0336418,-1.1465374 -0.0336418,-1.1465374 -0.0264208,-1.1375038 -0.0185348,-1.1291908 -0.0095651,-1.1220521 0.0000416,-1.1156037 0.0000416,-1.1156037 0.011244,-1.110296 0.0227707,-1.1062122 0.034828,-1.1041308 0.0471983,-1.1032302 0.0471983,-1.1032302 0.0609636,-1.1044148 0.0743077,-1.1070325 0.0869486,-1.1120427 0.0991669,-1.1184908 0.0991669,-1.1184908 0.11013,-1.1270377 0.119946,-1.1365692 0.1278596,-1.1477337 0.1346375,-1.1598733 0.1346375,-1.1598733 0.1406576,-1.1436644 0.1441836,-1.1358985 0.148329,-1.1285387 0.1532598,-1.1216941 0.1588667,-1.115293 0.171208,-1.1032302 0.171208,-1.1032302 0.1852303,-1.0947295 0.1924436,-1.0910931 0.1998995,-1.0881933 0.207646,-1.0861757 0.215626,-1.0848673 0.2319755,-1.0834327 0.2319755,-1.0834327 0.2458554,-1.0844826 0.2594545,-1.086715 0.2725921,-1.0908913 0.2854564,-1.0962186 0.2854564,-1.0962186 0.2973691,-1.1031349 0.3084564,-1.111028 0.3181441,-1.1205774 0.3269763,-1.1311393 0.3269763,-1.1311393 0.3341698,-1.1439216 0.3399959,-1.1571923 0.343661,-1.1712348 0.3460864,-1.1857201 0.3460864,-1.1857201 0.348322,-1.2347729 0.3488361,-1.283883 0.3488361,-1.4210911 -0.0542642,-1.4210911z M0.1731327,-1.3397011 L0.2809195,-1.3397011 0.2809195,-1.2643604 0.2809195,-1.2643604 0.2807081,-1.2363947 0.2784448,-1.2085422 0.2784448,-1.2085422 0.2761554,-1.2002023 0.2729346,-1.1923734 0.2681316,-1.1854125 0.2623593,-1.1789835 0.2623593,-1.1789835 0.2545794,-1.1738827 0.2463547,-1.1700669 0.2374371,-1.1682515 0.228126,-1.1675724 0.228126,-1.1675724 0.2199498,-1.1681442 0.212026,-1.1695772 0.2045402,-1.1725043 0.1973298,-1.1763712 0.1973298,-1.1763712 0.1912998,-1.1816855 0.1860678,-1.1875848 0.182116,-1.1944229 0.178907,-1.2018056 0.178907,-1.2018056 0.1757316,-1.2196814 0.1737159,-1.2376703 0.1730728,-1.255793 0.1731327,-1.2739842 0.1731327,-1.3397011z M0.0128275,-1.3397011 L0.106041,-1.3397011 0.106041,-1.2863578 0.106041,-1.2863578 0.1059411,-1.2567815 0.1046662,-1.22724 0.1046662,-1.22724 0.102956,-1.2181681 0.1002516,-1.2095451 0.0958003,-1.2017109 0.0902305,-1.1943816 0.0902305,-1.1943816 0.0832352,-1.1891428 0.0757477,-1.1851679 0.0674744,-1.1832109 0.0587468,-1.1824205 0.0587468,-1.1824205 0.0504765,-1.1830708 0.0425614,-1.1847364 0.035266,-1.1881731 0.0283631,-1.1927317 0.0283631,-1.1927317 0.022824,-1.1994389 0.0184396,-1.2066991 0.0158238,-1.2148066 0.0142023,-1.2233905 0.0142023,-1.2233905 0.0129054,-1.258158 0.0128275,-1.292957 0.0128275,-1.3397011z" transform="matrix(1,0,0,-1,5.3407639,4.9092036)" fill="rgb(104,104,104)" fill-rule="nonzero" shaper:cutDepth="0.0000762" stroke-linecap="round" stroke-linejoin="round" /><path d="M0.3488361,-0.6720833 L-0.0542642,-0.6720833 -0.0542642,-0.5906934 0.3488361,-0.5906934 0.3488361,-0.6720833z" transform="matrix(1,0,0,-1,5.3407639,4.9092036)" fill="rgb(104,104,104)" fill-rule="nonzero" shaper:cutDepth="0.0000762" stroke-linecap="round" stroke-linejoin="round" /><path d="M0.2176773,-0.5335006 L0.2099782,-0.4543103 0.2099782,-0.4543103 0.2263675,-0.4504475 0.2342823,-0.4479732 0.2418612,-0.4448473 0.2490025,-0.4408727 0.2557416,-0.4361179 0.268546,-0.4253012 0.268546,-0.4253012 0.2769673,-0.4117965 0.280504,-0.404821 0.2832337,-0.3975784 0.285057,-0.3900357 0.2861767,-0.3822602 0.2872437,-0.366321 0.2872437,-0.366321 0.2865156,-0.3504713 0.2856084,-0.3427104 0.2840495,-0.3351464 0.2816354,-0.3278406 0.2784128,-0.3207788 0.2706082,-0.3070658 0.2706082,-0.3070658 0.2624252,-0.2989908 0.2580786,-0.2954642 0.2534258,-0.2925505 0.2483845,-0.2904145 0.243009,-0.2889479 0.2317005,-0.2871307 0.2317005,-0.2871307 0.2250917,-0.2877248 0.2187643,-0.2891244 0.2129174,-0.291898 0.2073661,-0.2955173 0.2073661,-0.2955173 0.2016684,-0.3020117 0.1967784,-0.3090071 0.1930329,-0.3167123 0.1899057,-0.3248011 0.1899057,-0.3248011 0.1805748,-0.3572382 0.1723079,-0.389968 0.1723079,-0.389968 0.1657651,-0.4144908 0.161967,-0.4265117 0.1575369,-0.4382442 0.1522676,-0.4495937 0.1461446,-0.4605536 0.1324378,-0.4818066 0.1324378,-0.4818066 0.1149819,-0.4972981 0.1057768,-0.503994 0.0959992,-0.5094301 0.0855139,-0.513309 0.0744425,-0.5158983 0.0513228,-0.5189272 0.0513228,-0.5189272 0.0360326,-0.5175105 0.0285401,-0.5162959 0.0212308,-0.5144736 0.0141431,-0.5119165 0.0072348,-0.5087641 -0.0062827,-0.5014669 -0.0062827,-0.5014669 -0.0191243,-0.4910437 -0.0250863,-0.4854564 -0.0304977,-0.4794182 -0.0352577,-0.4728466 -0.0394986,-0.4658499 -0.0471151,-0.4511479 -0.0471151,-0.4511479 -0.0534176,-0.43183 -0.0560667,-0.4220788 -0.0581145,-0.412217 -0.0603284,-0.3921477 -0.0611384,-0.3718203 -0.0611384,-0.3718203 -0.0596512,-0.3411227 -0.0578244,-0.3261125 -0.0546977,-0.3115088 -0.049867,-0.2974378 -0.0434324,-0.2838683 -0.0278675,-0.2575721 -0.0278675,-0.2575721 -0.0087328,-0.2408344 0.0013677,-0.2336238 0.0121079,-0.227803 0.0236085,-0.223634 0.0357168,-0.2207855 0.0609466,-0.2172893 0.0645211,-0.2986792 0.0645211,-0.2986792 0.0518978,-0.3015142 0.0400162,-0.305762 0.0345777,-0.3088428 0.0294764,-0.3125659 0.0198391,-0.3210892 0.0198391,-0.3210892 0.0134017,-0.3331116 0.0107529,-0.3392856 0.0087807,-0.3456528 0.0067878,-0.3589444 0.0062283,-0.3726453 0.0062283,-0.3726453 0.0069434,-0.3873466 0.009157,-0.4016307 0.0112776,-0.4084903 0.0140744,-0.4151616 0.0208015,-0.4281884 0.0208015,-0.4281884 0.025927,-0.4336143 0.0316665,-0.4378474 0.0384347,-0.4400823 0.0458234,-0.4411119 0.0458234,-0.4411119 0.052902,-0.4400634 0.0594452,-0.4379135 0.0651229,-0.4339831 0.0702954,-0.4290131 0.0702954,-0.4290131 0.079568,-0.4112998 0.0836542,-0.4022296 0.0871462,-0.3929288 0.0927105,-0.3737761 0.0972421,-0.3542227 0.0972421,-0.3542227 0.102803,-0.3316839 0.1091989,-0.3094293 0.1171576,-0.2877068 0.126251,-0.2663707 0.126251,-0.2663707 0.1344207,-0.253321 0.14371,-0.2413051 0.1548903,-0.2310348 0.167221,-0.2218264 0.167221,-0.2218264 0.182455,-0.2146547 0.1902177,-0.2116306 0.198155,-0.2092797 0.2062914,-0.207696 0.2145831,-0.2067115 0.2314256,-0.2057408 0.2314256,-0.2057408 0.2486098,-0.2072963 0.257037,-0.2086328 0.2652662,-0.2106398 0.2732558,-0.2134587 0.281051,-0.2169361 0.2963176,-0.2249883 0.2963176,-0.2249883 0.3104979,-0.2361577 0.3170805,-0.2421637 0.3230542,-0.2486752 0.3282965,-0.2557938 0.3329498,-0.2634014 0.3412746,-0.2794317 0.3412746,-0.2794317 0.3479768,-0.300828 0.3507784,-0.3116229 0.352923,-0.3225333 0.3552007,-0.3447083 0.3559852,-0.3671459 0.3559852,-0.3671459 0.3542381,-0.3987633 0.3522305,-0.4142096 0.3488621,-0.429221 0.3437198,-0.4436654 0.3369433,-0.4575875 0.3206521,-0.4845566 0.3206521,-0.4845566 0.2982828,-0.5036742 0.2864943,-0.5120013 0.2739821,-0.5188529 0.2606505,-0.5240332 0.2466806,-0.5279121 0.2176773,-0.5335006z" transform="matrix(1,0,0,-1,5.3407639,4.9092036)" fill="rgb(104,104,104)" fill-rule="nonzero" shaper:cutDepth="0.0000762" stroke-linecap="round" stroke-linejoin="round" /><path d="M-0.0542643,0.3950604 L-0.0542643,0.4764503 0.1640589,0.4764503 0.1640589,0.4764503 0.1978092,0.4767437 0.2146344,0.4778005 0.2314256,0.4794751 0.2314256,0.4794751 0.2429478,0.4831655 0.2484393,0.48544 0.2536072,0.4882299 0.2583772,0.4916535 0.2628196,0.4955989 0.2711582,0.5043594 0.2711582,0.5043594 0.2780161,0.516883 0.2808777,0.5233117 0.283061,0.52994 0.2853663,0.5438029 0.2861438,0.5581154 0.2861438,0.5581154 0.2855368,0.5720328 0.2834464,0.585517 0.2813924,0.5919646 0.278645,0.5982096 0.2719831,0.6103588 0.2719831,0.6103588 0.2646418,0.6178972 0.2565727,0.6242291 0.2472658,0.6285093 0.2371998,0.6315314 0.2371998,0.6315314 0.2030426,0.634593 0.1687333,0.635106 -0.0542643,0.635106 -0.0542643,0.7164959 0.1574597,0.7164959 0.1574597,0.7164959 0.1832165,0.7164156 0.2089174,0.71558 0.2345113,0.7132993 0.260022,0.7098967 0.260022,0.7098967 0.2737205,0.7059742 0.2868589,0.7008989 0.2990356,0.6938445 0.3106158,0.6855622 0.3106158,0.6855622 0.3207859,0.6750739 0.3298541,0.6638138 0.3371695,0.6513261 0.3434743,0.6381305 0.3434743,0.6381305 0.3491555,0.6191854 0.3532905,0.5999808 0.3551331,0.5803916 0.3557103,0.5605901 0.3557103,0.5605901 0.3552632,0.5382139 0.3533802,0.5160774 0.3514568,0.5051731 0.3488284,0.4943866 0.3423744,0.4730133 0.3423744,0.4730133 0.3356016,0.459821 0.3278306,0.4473703 0.3183258,0.4362077 0.3077287,0.4258567 0.3077287,0.4258567 0.2974403,0.418407 0.2866824,0.4118855 0.2751162,0.4069624 0.2630467,0.4030343 0.2630467,0.4030343 0.2376404,0.3991208 0.2121321,0.3963909 0.1864832,0.3952905 0.1607593,0.3950604 -0.0542643,0.3950604z" transform="matrix(1,0,0,-1,5.3407639,4.9092036)" fill="rgb(104,104,104)" fill-rule="nonzero" shaper:cutDepth="0.0000762" stroke-linecap="round" stroke-linejoin="round" /><path d="M0.9838361,-2.171148 L0.5807357,-2.171148 0.5807357,-2.0919578 0.8499276,-1.9269781 0.5807357,-1.9269781 0.5807357,-1.8513624 0.9838361,-1.8513624 0.9838361,-1.9330274 0.7209685,-2.0955323 0.9838361,-2.0955323 0.9838361,-2.171148z" transform="matrix(1,0,0,-1,5.3407639,4.9092036)" fill="rgb(104,104,104)" fill-rule="nonzero" shaper:cutDepth="0.0000762" stroke-linecap="round" stroke-linejoin="round" /><path d="M-2.9919574,-2.2211514 L-3.3687298,-2.2211514 -3.3687298,-2.355713 -3.4454453,-2.355713 -3.4454453,-1.9953355 -3.3687298,-1.9953355 -3.3687298,-2.1295877 -2.9919574,-2.1295877 -2.9919574,-2.2211514z" transform="matrix(1,0,0,-1,5.3407639,4.9092036)" fill="rgb(104,104,104)" fill-rule="nonzero" shaper:cutDepth="0.0000762" stroke-linecap="round" stroke-linejoin="round" /><path d="M-2.2841945,-1.9523376 L-2.7376825,-1.9523376 -2.7376825,-1.8632486 -2.4348416,-1.6776464 -2.7376825,-1.6776464 -2.7376825,-1.5925788 -2.2841945,-1.5925788 -2.2841945,-1.6844519 -2.5799207,-1.86727 -2.2841945,-1.86727 -2.2841945,-1.9523376z" transform="matrix(1,0,0,-1,5.3407639,4.9092036)" fill="rgb(104,104,104)" fill-rule="nonzero" shaper:cutDepth="0.0000762" stroke-linecap="round" stroke-linejoin="round" /><path d="M-2.9919574,-1.3005647 L-3.4454453,-1.3005647 -3.4454453,-1.209001 -3.244067,-1.209001 -3.4454453,-1.0240175 -3.4454453,-0.9009014 -3.2688139,-1.0716553 -2.9919574,-0.8916213 -2.9919574,-1.0100973 -3.2047812,-1.1347601 -3.1289936,-1.209001 -2.9919574,-1.209001 -2.9919574,-1.3005647z" transform="matrix(1,0,0,-1,5.3407639,4.9092036)" fill="rgb(104,104,104)" fill-rule="nonzero" shaper:cutDepth="0.0000762" stroke-linecap="round" stroke-linejoin="round" /><path d="M-4.0975759,-0.0164181 L-4.307925,0.12134 -4.5006763,-0.0034947 -4.5006763,0.0916436 -4.3711672,0.1724837 -4.5006763,0.2516739 -4.5006763,0.3459873 -4.3049004,0.2206027 -4.0975759,0.3583608 -4.0975759,0.2601979 -4.2369838,0.1708339 -4.0975759,0.0811949 -4.0975759,-0.0164181z" transform="matrix(1,0,0,-1,5.3407639,4.9092036)" fill="rgb(104,104,104)" fill-rule="nonzero" shaper:cutDepth="0.0000762" stroke-linecap="round" stroke-linejoin="round" /><path d="M-4.2457827,1.0652987 L-4.2207608,1.1442141 -4.2207608,1.1442141 -4.1927903,1.1346091 -4.1793683,1.128915 -4.1666221,1.122151 -4.1547465,1.1140089 -4.1436451,1.1046413 -4.1227353,1.083859 -4.1227353,1.083859 -4.1085117,1.059005 -4.1025044,1.0462367 -4.0978211,1.0330592 -4.0946552,1.0194127 -4.0926773,1.005399 -4.0907018,0.9767597 -4.0907018,0.9767597 -4.0923711,0.9580821 -4.0946948,0.9396794 -4.0983272,0.9218266 -4.1008386,0.9131923 -4.1039226,0.9047986 -4.1076435,0.8966725 -4.1119577,0.8887956 -4.1220273,0.8736475 -4.1334533,0.8590692 -4.1455575,0.8447759 -4.1455575,0.8447759 -4.1623368,0.8328245 -4.1793795,0.8216071 -4.196949,0.811858 -4.2060136,0.8077633 -4.2153074,0.804307 -4.2345581,0.7992428 -4.2545034,0.796114 -4.2749117,0.7942756 -4.2955515,0.7930823 -4.2955515,0.7930823 -4.3169764,0.7941783 -4.3381722,0.7959306 -4.3589097,0.7989956 -4.369035,0.8012255 -4.3789598,0.8040297 -4.3886561,0.8074886 -4.398121,0.8116105 -4.4164827,0.8214812 -4.4343099,0.8328832 -4.4518698,0.8450508 -4.4518698,0.8450508 -4.4643055,0.8598604 -4.4760273,0.8749662 -4.4863214,0.8906646 -4.49071,0.8988287 -4.4944744,0.9072518 -4.4975793,0.9159486 -4.500096,0.9248896 -4.5037011,0.9433644 -4.5059619,0.9623972 -4.5075504,0.981709 -4.5075504,0.981709 -4.5046851,1.0147595 -4.5019177,1.0307864 -4.4975485,1.0462155 -4.4911508,1.0608873 -4.4830119,1.0749092 -4.4737117,1.0884976 -4.4638308,1.1018692 -4.4638308,1.1018692 -4.4472735,1.1157003 -4.4386329,1.1219796 -4.4295591,1.1274978 -4.4200026,1.1321677 -4.4100725,1.1361812 -4.38959,1.1431142 -4.3703423,1.062549 -4.3703423,1.062549 -4.3845029,1.0580234 -4.3912845,1.0552703 -4.3977076,1.051929 -4.4036816,1.0478507 -4.4092769,1.0431509 -4.4198363,1.0327152 -4.4198363,1.0327152 -4.4277098,1.0200504 -4.4310649,1.0135231 -4.4337222,1.006762 -4.4355544,0.9997246 -4.4367294,0.9924669 -4.437984,0.9775846 -4.437984,0.9775846 -4.435611,0.9568718 -4.4334682,0.9469422 -4.4301778,0.9375249 -4.4254652,0.9287423 -4.419571,0.9204872 -4.405813,0.904856 -4.405813,0.904856 -4.3816744,0.8913798 -4.3692387,0.8858858 -4.3563708,0.8818587 -4.3430647,0.8793189 -4.3294275,0.8779035 -4.3016008,0.8769469 -4.3016008,0.8769469 -4.2726741,0.8777531 -4.258474,0.8790928 -4.2445896,0.8815564 -4.2311241,0.8855107 -4.2180807,0.8909673 -4.1927142,0.9044435 -4.1927142,0.9044435 -4.1789016,0.9197134 -4.172974,0.9277951 -4.168221,0.9364132 -4.164889,0.94568 -4.1627088,0.9554728 -4.1602682,0.9759348 -4.1602682,0.9759348 -4.1618114,0.9912325 -4.1631938,0.9986543 -4.1653093,1.0058034 -4.1683303,1.0126159 -4.1721007,1.0191497 -4.1808907,1.0317528 -4.1808907,1.0317528 -4.1952102,1.0436847 -4.2027212,1.0489964 -4.210651,1.0535281 -4.2190315,1.0572203 -4.2277569,1.0602701 -4.2457827,1.0652987z" transform="matrix(1,0,0,-1,5.3407639,4.9092036)" fill="rgb(104,104,104)" fill-rule="nonzero" shaper:cutDepth="0.0000762" stroke-linecap="round" stroke-linejoin="round" /><path d="M-4.0975759,1.2146055 L-4.5006763,1.2146055 -4.5006763,1.3859093 -4.5006763,1.3859093 -4.5004415,1.4097079 -4.4989965,1.4333487 -4.4974433,1.4450608 -4.4952619,1.4566911 -4.4898151,1.4798104 -4.4898151,1.4798104 -4.4828898,1.4937721 -4.4789565,1.5003669 -4.4744585,1.5064987 -4.4692802,1.5120726 -4.4635528,1.517196 -4.4511824,1.5266921 -4.4511824,1.5266921 -4.436195,1.5342709 -4.4285467,1.5375094 -4.420713,1.5400868 -4.412658,1.5418754 -4.4044256,1.5430315 -4.3876652,1.5442898 -4.3876652,1.5442898 -4.3671606,1.5424944 -4.3572029,1.5407871 -4.3475986,1.5381081 -4.3384401,1.5342038 -4.3296613,1.5292554 -4.3127369,1.5176182 -4.3127369,1.5176182 -4.2984962,1.5000714 -4.2922702,1.4908644 -4.2871138,1.4811389 -4.2831401,1.4708399 -4.2800793,1.4600985 -4.275479,1.437878 -4.275479,1.437878 -4.2680999,1.4496148 -4.2601535,1.4609081 -4.2512186,1.4714286 -4.2416582,1.4814601 -4.2416582,1.4814601 -4.2260353,1.494067 -4.2099463,1.5060268 -4.1762162,1.5277919 -4.0975759,1.5770109 -4.0975759,1.4796728 -4.1852901,1.4208302 -4.1852901,1.4208302 -4.2155958,1.4003024 -4.2445453,1.3779353 -4.2445453,1.3779353 -4.2497414,1.3724952 -4.2544104,1.3666988 -4.2581575,1.3602792 -4.2613183,1.3534633 -4.2613183,1.3534633 -4.2635873,1.3433621 -4.2651464,1.3331725 -4.2658552,1.3124935 -4.2658552,1.2959955 -4.0975759,1.2959955 -4.0975759,1.2146055z M-4.3301973,1.2959955 L-4.3301973,1.356213 -4.3301973,1.356213 -4.3300789,1.3746139 -4.3305854,1.3929615 -4.3323215,1.4112042 -4.3351467,1.4293541 -4.3351467,1.4293541 -4.3381056,1.4360376 -4.3417684,1.4421928 -4.3466199,1.4474558 -4.3521945,1.4521762 -4.3521945,1.4521762 -4.3593021,1.4558476 -4.3666683,1.4586026 -4.3744392,1.4599228 -4.3824408,1.4604252 -4.3824408,1.4604252 -4.3913572,1.4597609 -4.3999055,1.4580208 -4.4078083,1.4543943 -4.4152993,1.449564 -4.4152993,1.449564 -4.4211505,1.4429009 -4.4259245,1.4356696 -4.4290024,1.4275434 -4.4311098,1.4189053 -4.4311098,1.4189053 -4.4324143,1.3892277 -4.4324847,1.3595126 -4.4324847,1.2959955 -4.3301973,1.2959955z" transform="matrix(1,0,0,-1,5.3407639,4.9092036)" fill="rgb(104,104,104)" fill-rule="nonzero" shaper:cutDepth="0.0000762" stroke-linecap="round" stroke-linejoin="round" /><path d="M-4.0975759,2.2110827 L-4.5006763,2.1148446 -4.5006763,2.198159 -4.2237854,2.2589267 -4.5006763,2.3326175 -4.5006763,2.4294059 -4.219111,2.5000723 -4.5006763,2.5619395 -4.5006763,2.6438792 -4.0975759,2.5459912 -4.0975759,2.4596522 -4.3989388,2.3793619 -4.0975759,2.2993467 -4.0975759,2.2110827z" transform="matrix(1,0,0,-1,5.3407639,4.9092036)" fill="rgb(104,104,104)" fill-rule="nonzero" shaper:cutDepth="0.0000762" stroke-linecap="round" stroke-linejoin="round" /><path d="M0.7847606,0.5263876 L0.7847606,0.5263876 0.7582439,0.5273988 0.7450939,0.528486 0.7320739,0.530271 0.7192222,0.5329584 0.7065217,0.536457 0.6813733,0.5448103 0.6813733,0.5448103 0.666411,0.5525061 0.6520748,0.5611244 0.6387788,0.5712753 0.6261051,0.5823432 0.6261051,0.5823432 0.6152107,0.5941091 0.6052901,0.6065494 0.5970356,0.6201432 0.5898096,0.6344493 0.5898096,0.6344493 0.5827759,0.6555973 0.5797975,0.6662728 0.5774646,0.67707 0.5748798,0.6990567 0.5738616,0.7213386 0.5738616,0.7213386 0.57534,0.7413196 0.577493,0.7610323 0.5809952,0.7802084 0.583463,0.7895113 0.5865211,0.7985795 0.590245,0.8073829 0.5946091,0.8159317 0.6048946,0.8324098 0.6166458,0.8483049 0.6291298,0.8639086 0.6291298,0.8639086 0.6462606,0.8763246 0.6636708,0.8879719 0.6816396,0.8980818 0.6909208,0.9023199 0.7004446,0.9058904 0.7102109,0.9087936 0.7201902,0.9111105 0.7406663,0.9143203 0.7616293,0.9161899 0.7828359,0.9173895 0.7828359,0.9173895 0.8038994,0.9161908 0.8247221,0.9143278 0.845063,0.9111363 0.8549776,0.9088347 0.8646814,0.9059518 0.8741454,0.9024076 0.8833698,0.8982026 0.9012327,0.8881763 0.918544,0.8766289 0.9355795,0.864321 0.9355795,0.864321 0.9480397,0.8488067 0.9597676,0.8330003 0.9700309,0.8166098 0.9743845,0.8081043 0.9780985,0.7993436 0.9811477,0.7903179 0.9836079,0.7810572 0.9870975,0.7619651 0.9892405,0.742336 0.9907103,0.7224384 0.9907103,0.7224384 0.9892837,0.7024215 0.9871845,0.6826701 0.9837401,0.6634498 0.9813033,0.6541219 0.9782779,0.6450263 0.9745873,0.6361934 0.9702527,0.6276148 0.9600161,0.6110765 0.9483041,0.5951206 0.9358546,0.5794561 0.9358546,0.5794561 0.919029,0.5671873 0.9019279,0.555672 0.8842755,0.5456637 0.8751565,0.5414602 0.8657978,0.537912 0.856198,0.5350227 0.8463863,0.5327129 0.8262482,0.5295006 0.8056255,0.527613 0.7847606,0.5263876z M0.782011,0.6102523 L0.782011,0.6102523 0.8100429,0.6117533 0.8237269,0.6135247 0.8370127,0.6165214 0.8497779,0.6211191 0.8620594,0.627205 0.8858107,0.6418734 0.8858107,0.6418734 0.9008201,0.6592157 0.9072664,0.6683548 0.9124424,0.6780553 0.9160777,0.688437 0.9184617,0.6993718 0.9211438,0.7221635 0.9211438,0.7221635 0.918513,0.744842 0.9161598,0.7557229 0.9125614,0.7660538 0.9074257,0.7757057 0.9010187,0.7847962 0.8860856,0.8020411 0.8860856,0.8020411 0.8619597,0.8166447 0.8494935,0.8226814 0.8365474,0.8272125 0.8230918,0.8301447 0.8092475,0.8318573 0.7809111,0.8332498 0.7809111,0.8332498 0.7530759,0.8319341 0.7394728,0.8302828 0.7262472,0.8274396 0.7135169,0.8230314 0.7012561,0.8171409 0.6775238,0.8028661 0.6775238,0.8028661 0.6627641,0.7853706 0.6564693,0.7761565 0.6514764,0.7663828 0.6480271,0.7559457 0.6458096,0.7449791 0.643428,0.7221635 0.643428,0.7221635 0.645876,0.6992166 0.6481354,0.6881903 0.6516371,0.6777004 0.656691,0.6678807 0.6630485,0.6586239 0.6779363,0.6410485 0.6779363,0.6410485 0.7018107,0.626612 0.7141474,0.620649 0.7269594,0.6161793 0.7402747,0.613291 0.7539736,0.6116083 0.782011,0.6102523z" transform="matrix(1,0,0,-1,5.3407639,4.9092036)" fill="rgb(104,104,104)" fill-rule="nonzero" shaper:cutDepth="0.0000762" stroke-linecap="round" stroke-linejoin="round" /><path d="M-4.0975759,1.778011 L-4.5006763,1.778011 -4.5006763,1.9086199 -4.5006763,1.9086199 -4.5007387,1.9329368 -4.5000647,1.9571976 -4.4979531,1.981349 -4.494627,2.0054081 -4.494627,2.0054081 -4.4881935,2.02223 -4.4843838,2.0302406 -4.4798629,2.0377706 -4.4744894,2.0447247 -4.4684303,2.0512157 -4.4551694,2.0634258 -4.4551694,2.0634258 -4.4369653,2.0738696 -4.4276092,2.0782695 -4.4179489,2.0816845 -4.4079428,2.0839807 -4.3976671,2.0854045 -4.3766665,2.086798 -4.3766665,2.086798 -4.3604807,2.0860192 -4.3445978,2.0838917 -4.3292504,2.0793791 -4.3142492,2.0733245 -4.3142492,2.0733245 -4.3029062,2.0663896 -4.2923147,2.0585894 -4.2830146,2.0493022 -4.2745166,2.0390914 -4.2745166,2.0390914 -4.2683126,2.0291793 -4.262867,2.018927 -4.258729,2.0080884 -4.2554065,1.9968841 -4.2554065,1.9968841 -4.2525883,1.975884 -4.2506138,1.9548203 -4.2498095,1.9336685 -4.2496322,1.9124694 -4.2496322,1.859401 -4.0975759,1.859401 -4.0975759,1.778011z M-4.4324847,1.859401 L-4.3180988,1.859401 -4.3180988,1.9039455 -4.3180988,1.9039455 -4.3180933,1.9202167 -4.3188381,1.9364 -4.3210373,1.9524133 -4.324423,1.9682877 -4.324423,1.9682877 -4.3280318,1.9756955 -4.3323628,1.982538 -4.3379179,1.9884224 -4.3442205,1.9937217 -4.3442205,1.9937217 -4.3515589,1.9976966 -4.359174,2.0007429 -4.3672386,2.0022804 -4.3755667,2.0029333 -4.3755667,2.0029333 -4.3855005,2.0020651 -4.3949772,1.9999409 -4.4036656,1.995651 -4.4118622,1.99001 -4.4118622,1.99001 -4.4182512,1.9828839 -4.4235836,1.9751779 -4.4271755,1.9665167 -4.429735,1.957289 -4.429735,1.957289 -4.4321808,1.9280654 -4.4324847,1.8987211 -4.4324847,1.859401z" transform="matrix(1,0,0,-1,5.3407639,4.9092036)" fill="rgb(104,104,104)" fill-rule="nonzero" shaper:cutDepth="0.0000762" stroke-linecap="round" stroke-linejoin="round" /><path d="M-4.0975759,2.6859491 L-4.5006763,2.6859491 -4.5006763,2.8572533 -4.5006763,2.8572533 -4.5004415,2.8810518 -4.4989964,2.9046925 -4.4974432,2.9164046 -4.4952618,2.9280348 -4.4898151,2.951154 -4.4898151,2.951154 -4.4828898,2.9651157 -4.4789565,2.9717106 -4.4744585,2.9778423 -4.4692802,2.9834162 -4.4635528,2.9885396 -4.4511824,2.9980357 -4.4511824,2.9980357 -4.4361949,3.0056145 -4.4285467,3.008853 -4.420713,3.0114305 -4.412658,3.0132191 -4.4044256,3.0143753 -4.3876652,3.0156338 -4.3876652,3.0156338 -4.3671606,3.0138384 -4.3572029,3.0121311 -4.3475986,3.0094521 -4.33844,3.0055477 -4.3296613,3.0005993 -4.3127369,2.988962 -4.3127369,2.988962 -4.2984962,2.9714152 -4.2922702,2.9622082 -4.2871137,2.9524827 -4.2831401,2.9421838 -4.2800793,2.9314423 -4.275479,2.9092219 -4.275479,2.9092219 -4.2680998,2.9209586 -4.2601534,2.9322518 -4.2512185,2.9427723 -4.2416582,2.9528039 -4.2416582,2.9528039 -4.2260354,2.9654108 -4.2099464,2.9773707 -4.1762162,2.9991358 -4.0975759,3.0483544 -4.0975759,2.9510167 -4.1852901,2.892174 -4.1852901,2.892174 -4.2155957,2.8716462 -4.2445453,2.8492792 -4.2445453,2.8492792 -4.2497414,2.843839 -4.2544104,2.8380426 -4.2581575,2.8316229 -4.2613183,2.8248069 -4.2613183,2.8248069 -4.2635873,2.8147057 -4.2651464,2.8045162 -4.2658552,2.7838371 -4.2658552,2.767339 -4.0975759,2.767339 -4.0975759,2.6859491z M-4.3301973,2.767339 L-4.3301973,2.8275569 -4.3301973,2.8275569 -4.3300789,2.8459578 -4.3305854,2.8643054 -4.3323214,2.8825481 -4.3351467,2.900698 -4.3351467,2.900698 -4.3381056,2.9073814 -4.3417685,2.9135365 -4.34662,2.9187995 -4.3521945,2.9235199 -4.3521945,2.9235199 -4.3593021,2.9271914 -4.3666682,2.9299464 -4.3744392,2.9312667 -4.3824408,2.9317692 -4.3824408,2.9317692 -4.3913573,2.9311049 -4.3999055,2.9293648 -4.4078084,2.9257382 -4.4152993,2.9209078 -4.4152993,2.9209078 -4.4211506,2.9142447 -4.4259246,2.9070134 -4.4290025,2.8988872 -4.4311098,2.890249 -4.4311098,2.890249 -4.4324143,2.8605715 -4.4324847,2.8308566 -4.4324847,2.767339 -4.3301973,2.767339z" transform="matrix(1,0,0,-1,5.3407639,4.9092036)" fill="rgb(104,104,104)" fill-rule="nonzero" shaper:cutDepth="0.0000762" stroke-linecap="round" stroke-linejoin="round" /><path d="M-4.5006763,0.4001556 L-4.5006763,0.5489123 -4.5006763,0.5489123 -4.500433,0.5682768 -4.499356,0.5875493 -4.4967248,0.6066502 -4.4929772,0.6256279 -4.4929772,0.6256279 -4.4865041,0.6425352 -4.4827896,0.6506968 -4.4785016,0.6585079 -4.4735115,0.66589 -4.4679462,0.6729204 -4.4558568,0.6863954 -4.4558568,0.6863954 -4.4409894,0.6984772 -4.4253101,0.709191 -4.4083157,0.7176887 -4.3905523,0.7248906 -4.3905523,0.7248906 -4.367129,0.7309108 -4.3434757,0.7353499 -4.3194737,0.73739 -4.2952766,0.738089 -4.2952766,0.738089 -4.2734723,0.7373762 -4.2518538,0.735424 -4.2305641,0.7312792 -4.2094871,0.7257155 -4.2094871,0.7257155 -4.1899268,0.7177856 -4.1804367,0.7133479 -4.1712946,0.708343 -4.1625943,0.702618 -4.1542748,0.6962723 -4.1382709,0.6825459 -4.1382709,0.6825459 -4.1279145,0.6695718 -4.1188827,0.6558395 -4.111908,0.64093 -4.1060998,0.6253529 -4.1060998,0.6253529 -4.1020813,0.6075825 -4.0991896,0.5896689 -4.0979353,0.5715472 -4.0975759,0.5533118 -4.0975759,0.4001556 -4.5006763,0.4001556z M-4.4324847,0.4815456 L-4.1654925,0.4815456 -4.1654925,0.5423131 -4.1654925,0.5423131 -4.166065,0.5670426 -4.1673913,0.5793151 -4.169342,0.5915321 -4.169342,0.5915321 -4.1721454,0.6004646 -4.1756867,0.6090159 -4.1805025,0.616909 -4.186115,0.6243905 -4.186115,0.6243905 -4.1948132,0.6315261 -4.2041285,0.637577 -4.2143334,0.6420644 -4.2250227,0.6457004 -4.2250227,0.6457004 -4.2432556,0.6496204 -4.2616232,0.6524242 -4.2801845,0.6536232 -4.2988511,0.6539494 -4.2988511,0.6539494 -4.317017,0.6536703 -4.3350712,0.6525037 -4.3529181,0.6496888 -4.3706173,0.6457004 -4.3706173,0.6457004 -4.3813653,0.6415631 -4.3915991,0.6365727 -4.4009242,0.6300747 -4.4096625,0.6226033 -4.4096625,0.6226033 -4.4162151,0.6141082 -4.4217544,0.6050964 -4.4256669,0.5952554 -4.4286352,0.5849329 -4.4286352,0.5849329 -4.4307018,0.5683045 -4.432041,0.5516262 -4.4324847,0.5181161 -4.4324847,0.4815456z" transform="matrix(1,0,0,-1,5.3407639,4.9092036)" fill="rgb(104,104,104)" fill-rule="nonzero" shaper:cutDepth="0.0000762" stroke-linecap="round" stroke-linejoin="round" /><path d="M-2.2841945,-2.1323717 L-2.7376825,-2.1323717 -2.7376825,-2.040808 -2.2841945,-2.040808 -2.2841945,-2.1323717z" transform="matrix(1,0,0,-1,5.3407639,4.9092036)" fill="rgb(104,104,104)" fill-rule="nonzero" shaper:cutDepth="0.0000762" stroke-linecap="round" stroke-linejoin="round" /><path d="M-3.15869,-1.4694627 L-3.1305403,-1.380683 -3.1305403,-1.380683 -3.0990735,-1.3914885 -3.0839737,-1.3978944 -3.0696343,-1.4055039 -3.0562742,-1.4146637 -3.0437851,-1.4252023 -3.0202617,-1.4485824 -3.0202617,-1.4485824 -3.0042602,-1.4765432 -2.997502,-1.4909075 -2.9922333,-1.5057322 -2.9886716,-1.5210846 -2.9864465,-1.5368499 -2.984224,-1.5690692 -2.984224,-1.5690692 -2.986102,-1.5900815 -2.9887161,-1.6107845 -2.9928025,-1.6308689 -2.9956279,-1.6405825 -2.9990973,-1.6500254 -3.0032833,-1.6591673 -3.0081368,-1.6680287 -3.0194652,-1.6850704 -3.0323194,-1.7014709 -3.0459367,-1.7175509 -3.0459367,-1.7175509 -3.0648133,-1.7309963 -3.0839863,-1.7436158 -3.103752,-1.7545836 -3.1139498,-1.7591901 -3.1244052,-1.7630784 -3.1351198,-1.7662446 -3.1460623,-1.7687756 -3.1685008,-1.7722955 -3.1914601,-1.7743638 -3.21468,-1.7757062 -3.21468,-1.7757062 -3.2387829,-1.7744732 -3.2626282,-1.7725018 -3.2859579,-1.7690536 -3.2973488,-1.766545 -3.3085143,-1.7633903 -3.3194226,-1.7594991 -3.3300705,-1.7548619 -3.3507275,-1.7437574 -3.3707831,-1.7309301 -3.390538,-1.7172416 -3.390538,-1.7172416 -3.4045281,-1.7005808 -3.4177152,-1.6835867 -3.4292961,-1.665926 -3.4342333,-1.6567415 -3.4384682,-1.6472655 -3.4419612,-1.6374815 -3.4447925,-1.6274229 -3.4488482,-1.6066387 -3.4513916,-1.5852268 -3.4531787,-1.563501 -3.4531787,-1.563501 -3.4518673,-1.5447981 -3.4499552,-1.5263193 -3.4468419,-1.5082889 -3.4419265,-1.4909312 -3.4386131,-1.4825718 -3.4347291,-1.4744254 -3.4255729,-1.4586508 -3.4151101,-1.4433639 -3.4039942,-1.4283208 -3.4039942,-1.4283208 -3.3853672,-1.4127609 -3.3756464,-1.4056966 -3.3654384,-1.3994887 -3.3546873,-1.3942351 -3.3435161,-1.3897199 -3.3204732,-1.3819203 -3.2988196,-1.472556 -3.2988196,-1.472556 -3.3147502,-1.4776474 -3.3223795,-1.4807446 -3.3296055,-1.4845036 -3.3363263,-1.4890916 -3.342621,-1.4943789 -3.3545002,-1.506119 -3.3545002,-1.506119 -3.363358,-1.520367 -3.3671325,-1.5277102 -3.3701219,-1.5353164 -3.3721832,-1.5432336 -3.373505,-1.5513985 -3.3749165,-1.5681411 -3.3749165,-1.5681411 -3.3722468,-1.591443 -3.3698362,-1.6026138 -3.3661344,-1.6132083 -3.3608328,-1.6230887 -3.3542018,-1.6323757 -3.3387241,-1.6499608 -3.3387241,-1.6499608 -3.3115682,-1.6651215 -3.297578,-1.6713023 -3.2831016,-1.6758327 -3.2681323,-1.6786901 -3.2527904,-1.6802824 -3.2214854,-1.6813585 -3.2214854,-1.6813585 -3.1889429,-1.6804516 -3.1729677,-1.6789444 -3.1573478,-1.6761728 -3.1421991,-1.6717243 -3.1275253,-1.6655856 -3.098988,-1.6504248 -3.098988,-1.6504248 -3.0834488,-1.6332462 -3.0767803,-1.6241542 -3.0714331,-1.6144589 -3.0676846,-1.6040337 -3.0652319,-1.5930168 -3.0624862,-1.5699971 -3.0624862,-1.5699971 -3.0642223,-1.5527871 -3.0657775,-1.5444377 -3.0681574,-1.5363949 -3.071556,-1.5287309 -3.0757978,-1.5213803 -3.0856865,-1.5072018 -3.0856865,-1.5072018 -3.101796,-1.4937785 -3.1102459,-1.4878028 -3.1191669,-1.4827047 -3.1285949,-1.4785509 -3.138411,-1.4751199 -3.15869,-1.4694627z" transform="matrix(1,0,0,-1,5.3407639,4.9092036)" fill="rgb(104,104,104)" fill-rule="nonzero" shaper:cutDepth="0.0000762" stroke-linecap="round" stroke-linejoin="round" /><path d="M-2.9919574,-1.9387268 L-3.4454453,-1.9387268 -3.4454453,-1.847163 -2.9919574,-1.847163 -2.9919574,-1.9387268z" transform="matrix(1,0,0,-1,5.3407639,4.9092036)" fill="rgb(104,104,104)" fill-rule="nonzero" shaper:cutDepth="0.0000762" stroke-linecap="round" stroke-linejoin="round" /><path d="M-3.1395111,-2.7692964 L-3.1481726,-2.6802074 -3.1481726,-2.6802074 -3.1297346,-2.6758618 -3.1208305,-2.6730782 -3.1123043,-2.6695616 -3.1042703,-2.6650901 -3.0966888,-2.659741 -3.0822837,-2.6475723 -3.0822837,-2.6475723 -3.0728097,-2.6323795 -3.068831,-2.6245321 -3.06576,-2.6163842 -3.0637089,-2.6078987 -3.0624492,-2.5991512 -3.0612489,-2.5812196 -3.0612489,-2.5812196 -3.062068,-2.5633887 -3.0630886,-2.5546577 -3.0648424,-2.5461482 -3.0675583,-2.5379291 -3.0711836,-2.5299846 -3.0799638,-2.5145575 -3.0799638,-2.5145575 -3.0891696,-2.505473 -3.0940596,-2.5015055 -3.099294,-2.4982277 -3.1049654,-2.4958247 -3.1110128,-2.4941747 -3.1237349,-2.4921306 -3.1237349,-2.4921306 -3.1311699,-2.4927989 -3.1382881,-2.4943734 -3.1448659,-2.4974937 -3.1511112,-2.5015653 -3.1511112,-2.5015653 -3.1575211,-2.5088715 -3.1630223,-2.5167414 -3.167236,-2.5254098 -3.1707541,-2.5345097 -3.1707541,-2.5345097 -3.1812514,-2.5710015 -3.1905517,-2.6078226 -3.1905517,-2.6078226 -3.1979122,-2.6354107 -3.2021851,-2.6489343 -3.207169,-2.6621333 -3.213097,-2.6749015 -3.2199853,-2.6872314 -3.2354055,-2.7111411 -3.2354055,-2.7111411 -3.2550434,-2.728569 -3.2653991,-2.7361019 -3.2763989,-2.7422174 -3.2881949,-2.7465812 -3.3006502,-2.7494941 -3.3266599,-2.7529016 -3.3266599,-2.7529016 -3.3438614,-2.7513079 -3.3522904,-2.7499414 -3.3605134,-2.7478914 -3.3684871,-2.7450147 -3.3762589,-2.7414681 -3.391466,-2.7332587 -3.391466,-2.7332587 -3.4059128,-2.7215327 -3.41262,-2.7152469 -3.4187079,-2.708454 -3.4240629,-2.701061 -3.428834,-2.6931897 -3.4374026,-2.67665 -3.4374026,-2.67665 -3.4444928,-2.6549173 -3.4474731,-2.6439472 -3.4497769,-2.6328527 -3.4513184,-2.6216181 -3.4522676,-2.6102747 -3.4531787,-2.5874063 -3.4531787,-2.5874063 -3.4515057,-2.5528714 -3.4494505,-2.535985 -3.445933,-2.5195557 -3.4404985,-2.5037258 -3.4332595,-2.4884601 -3.4248075,-2.4735737 -3.415749,-2.4588768 -3.415749,-2.4588768 -3.3942224,-2.440047 -3.3828593,-2.4319351 -3.3707766,-2.4253868 -3.3578385,-2.4206967 -3.3442166,-2.4174922 -3.3158332,-2.413559 -3.3118118,-2.5051227 -3.3118118,-2.5051227 -3.326013,-2.508312 -3.3328529,-2.5104033 -3.3393798,-2.5130907 -3.3454981,-2.5165566 -3.3512372,-2.520745 -3.362079,-2.5303336 -3.362079,-2.5303336 -3.3693211,-2.543859 -3.3723009,-2.5508047 -3.3745197,-2.5579678 -3.375943,-2.565358 -3.3767617,-2.5729209 -3.3773912,-2.5883343 -3.3773912,-2.5883343 -3.3765867,-2.6048734 -3.3756577,-2.6129962 -3.3740965,-2.6209429 -3.3717108,-2.62866 -3.3685644,-2.6361652 -3.3609963,-2.6508204 -3.3609963,-2.6508204 -3.3552302,-2.6569246 -3.3487733,-2.6616868 -3.341159,-2.664201 -3.3328467,-2.6653592 -3.3328467,-2.6653592 -3.3248834,-2.6641796 -3.3175223,-2.661761 -3.3111348,-2.6573394 -3.3053157,-2.6517484 -3.3053157,-2.6517484 -3.294884,-2.6318208 -3.290287,-2.6216168 -3.2863585,-2.6111533 -3.2800987,-2.5896065 -3.2750007,-2.5676087 -3.2750007,-2.5676087 -3.2687446,-2.5422527 -3.2615493,-2.5172164 -3.2525958,-2.4927787 -3.2423657,-2.4687756 -3.2423657,-2.4687756 -3.2331748,-2.4540947 -3.2281858,-2.4471176 -3.2227243,-2.4405767 -3.216678,-2.4345756 -3.2101464,-2.4290225 -3.1962744,-2.418663 -3.1962744,-2.418663 -3.1791362,-2.4105948 -3.1704031,-2.4071927 -3.1614736,-2.404548 -3.1523202,-2.4027664 -3.142992,-2.4016588 -3.1240443,-2.4005668 -3.1240443,-2.4005668 -3.104712,-2.4023168 -3.0952315,-2.4038204 -3.0859736,-2.4060783 -3.0769853,-2.4092496 -3.0682156,-2.4131617 -3.0510407,-2.4222204 -3.0510407,-2.4222204 -3.0350878,-2.4347858 -3.0276823,-2.4415425 -3.020962,-2.4488679 -3.0150643,-2.4568764 -3.0098294,-2.465435 -3.0004642,-2.4834691 -3.0004642,-2.4834691 -2.9929241,-2.50754 -2.9897723,-2.5196842 -2.9873596,-2.5319585 -2.9857635,-2.5443764 -2.9847973,-2.5569052 -2.9839146,-2.5821476 -2.9839146,-2.5821476 -2.9858802,-2.6177172 -2.9881387,-2.6350942 -2.9919282,-2.651982 -2.9977133,-2.6682319 -3.0053368,-2.6838943 -3.0141926,-2.6991628 -3.0236644,-2.7142344 -3.0236644,-2.7142344 -3.0361112,-2.7252652 -3.0488298,-2.7357417 -3.062092,-2.7451097 -3.0761681,-2.7528177 -3.0911662,-2.7586456 -3.1068823,-2.7630093 -3.1395111,-2.7692964z" transform="matrix(1,0,0,-1,5.3407639,4.9092036)" fill="rgb(104,104,104)" fill-rule="nonzero" shaper:cutDepth="0.0000762" stroke-linecap="round" stroke-linejoin="round" /><path d="M0.9838361,-2.3311783 L0.5807357,-2.3311783 0.5807357,-2.2497884 0.9838361,-2.2497884 0.9838361,-2.3311783z" transform="matrix(1,0,0,-1,5.3407639,4.9092036)" fill="rgb(104,104,104)" fill-rule="nonzero" shaper:cutDepth="0.0000762" stroke-linecap="round" stroke-linejoin="round" /><path d="M-0.0542642,0.0200065 L-0.0542642,0.1811367 -0.0542642,0.1811367 -0.053625,0.216898 -0.0522567,0.2347133 -0.0502772,0.2524904 -0.0502772,0.2524904 -0.0476893,0.2636321 -0.044254,0.2744371 -0.0393849,0.2846724 -0.0336418,0.2945603 -0.0336418,0.2945603 -0.0264208,0.3035939 -0.0185349,0.311907 -0.0095651,0.3190456 0.0000416,0.3254939 0.0000416,0.3254939 0.0112439,0.3308017 0.0227706,0.3348855 0.034828,0.3369669 0.0471983,0.3378674 0.0471983,0.3378674 0.0609636,0.3366827 0.0743077,0.334065 0.0869486,0.3290548 0.0991669,0.3226067 0.0991669,0.3226067 0.11013,0.3140599 0.119946,0.3045284 0.1278596,0.2933639 0.1346375,0.2812244 0.1346375,0.2812244 0.1406576,0.2974331 0.1441837,0.3051991 0.1483291,0.3125588 0.1532599,0.3194034 0.1588667,0.3258046 0.171208,0.3378674 0.171208,0.3378674 0.1852303,0.3463681 0.1924436,0.3500045 0.1998995,0.3529044 0.207646,0.3549219 0.215626,0.3562303 0.2319755,0.3576649 0.2319755,0.3576649 0.2458554,0.356615 0.2594545,0.3543826 0.2725921,0.3502063 0.2854564,0.344879 0.2854564,0.344879 0.2973691,0.3379627 0.3084564,0.3300696 0.3181441,0.3205202 0.3269763,0.3099583 0.3269763,0.3099583 0.3341699,0.2971761 0.3399959,0.2839054 0.343661,0.2698629 0.3460864,0.2553776 0.3460864,0.2553776 0.348322,0.2063249 0.3488361,0.1572148 0.3488361,0.0200065 -0.0542642,0.0200065z M0.1731327,0.1013967 L0.2809195,0.1013967 0.2809195,0.1767372 0.2809195,0.1767372 0.2807081,0.2047029 0.2784448,0.2325553 0.2784448,0.2325553 0.2761554,0.2408952 0.2729346,0.2487242 0.2681316,0.255685 0.2623593,0.2621142 0.2623593,0.2621142 0.2545795,0.267215 0.2463547,0.271031 0.2374371,0.2728463 0.228126,0.2735254 0.228126,0.2735254 0.2199498,0.2729535 0.212026,0.2715206 0.2045402,0.2685934 0.1973298,0.2647265 0.1973298,0.2647265 0.1912998,0.2594122 0.1860678,0.2535128 0.182116,0.2466747 0.178907,0.239292 0.178907,0.239292 0.1757316,0.2214162 0.1737159,0.2034273 0.1730728,0.1853046 0.1731327,0.1671134 0.1731327,0.1013967z M0.0128275,0.1013967 L0.106041,0.1013967 0.106041,0.15474 0.106041,0.15474 0.1059411,0.1843162 0.1046662,0.2138578 0.1046662,0.2138578 0.102956,0.2229296 0.1002516,0.2315526 0.0958003,0.2393869 0.0902305,0.2467161 0.0902305,0.2467161 0.0832352,0.251955 0.0757477,0.2559298 0.0674744,0.2578867 0.0587468,0.2586771 0.0587468,0.2586771 0.0504765,0.2580268 0.0425614,0.2563612 0.035266,0.2529246 0.0283631,0.248366 0.0283631,0.248366 0.022824,0.2416589 0.0184396,0.2343987 0.0158238,0.2262911 0.0142023,0.2177073 0.0142023,0.2177073 0.0129054,0.1829397 0.0128275,0.1481408 0.0128275,0.1013967z" transform="matrix(1,0,0,-1,5.3407639,4.9092036)" fill="rgb(104,104,104)" fill-rule="nonzero" shaper:cutDepth="0.0000762" stroke-linecap="round" stroke-linejoin="round" /><path d="M0.2176773,0.7819377 L0.2099782,0.861128 0.2099782,0.861128 0.2263675,0.8649908 0.2342822,0.8674651 0.2418611,0.8705909 0.2490024,0.8745655 0.2557415,0.8793203 0.268546,0.8901368 0.268546,0.8901368 0.2769674,0.9036415 0.280504,0.910617 0.2832338,0.9178596 0.285057,0.9254023 0.2861768,0.9331778 0.2872437,0.9491171 0.2872437,0.9491171 0.2865156,0.9649668 0.2856084,0.9727277 0.2840495,0.9802917 0.2816354,0.9875976 0.2784128,0.9946594 0.2706082,1.0083724 0.2706082,1.0083724 0.2624252,1.0164473 0.2580785,1.0199739 0.2534257,1.0228875 0.2483845,1.0250235 0.243009,1.0264902 0.2317005,1.0283073 0.2317005,1.0283073 0.2250916,1.0277133 0.2187643,1.0263138 0.2129174,1.0235403 0.2073661,1.0199209 0.2073661,1.0199209 0.2016684,1.0134265 0.1967785,1.006431 0.1930329,0.9987258 0.1899057,0.9906369 0.1899057,0.9906369 0.1805748,0.9581998 0.1723079,0.92547 0.1723079,0.92547 0.1657651,0.9009473 0.161967,0.8889263 0.1575369,0.8771938 0.1522676,0.8658443 0.1461446,0.8548844 0.1324378,0.8336314 0.1324378,0.8336314 0.1149819,0.8181399 0.1057768,0.811444 0.0959992,0.8060079 0.0855139,0.802129 0.0744425,0.7995398 0.0513228,0.7965108 0.0513228,0.7965108 0.0360325,0.7979273 0.0285401,0.799142 0.0212308,0.8009642 0.014143,0.8035213 0.0072347,0.8066738 -0.0062827,0.8139712 -0.0062827,0.8139712 -0.0191242,0.8243944 -0.0250862,0.8299817 -0.0304976,0.8360199 -0.0352576,0.8425915 -0.0394985,0.8495882 -0.0471151,0.8642901 -0.0471151,0.8642901 -0.0534176,0.8836081 -0.0560667,0.8933593 -0.0581145,0.9032211 -0.0603284,0.9232905 -0.0611384,0.9436179 -0.0611384,0.9436179 -0.0596512,0.9743156 -0.0578244,0.9893257 -0.0546977,1.0039295 -0.049867,1.0180005 -0.0434324,1.03157 -0.0278675,1.0578662 -0.0278675,1.0578662 -0.0087327,1.0746038 0.0013678,1.0818143 0.012108,1.087635 0.0236085,1.091804 0.0357169,1.0946525 0.0609466,1.0981487 0.0645211,1.0167588 0.0645211,1.0167588 0.0518979,1.0139238 0.0400162,1.009676 0.0345778,1.0065953 0.0294764,1.0028723 0.0198391,0.9943491 0.0198391,0.9943491 0.0134017,0.9823266 0.010753,0.9761526 0.0087807,0.9697855 0.0067879,0.9564939 0.0062283,0.942793 0.0062283,0.942793 0.0069434,0.9280916 0.009157,0.9138076 0.0112776,0.906948 0.0140744,0.9002767 0.0208015,0.8872498 0.0208015,0.8872498 0.025927,0.881824 0.0316665,0.8775909 0.0384347,0.875356 0.0458234,0.8743263 0.0458234,0.8743263 0.0529019,0.875375 0.059445,0.8775249 0.0651228,0.8814552 0.0702954,0.8864249 0.0702954,0.8864249 0.0795681,0.9041383 0.0836543,0.9132085 0.0871464,0.9225093 0.0927105,0.9416621 0.0972421,0.9612156 0.0972421,0.9612156 0.1028031,0.9837543 0.1091989,1.0060088 0.1171576,1.0277313 0.126251,1.0490674 0.126251,1.0490674 0.1344206,1.0621171 0.14371,1.0741331 0.1548903,1.0844034 0.167221,1.0936118 0.167221,1.0936118 0.182455,1.1007836 0.1902177,1.1038077 0.198155,1.1061586 0.2062914,1.1077422 0.2145831,1.1087268 0.2314256,1.1096975 0.2314256,1.1096975 0.2486098,1.1081419 0.2570369,1.1068053 0.2652662,1.1047982 0.2732558,1.1019793 0.281051,1.0985019 0.2963176,1.0904497 0.2963176,1.0904497 0.3104979,1.0792805 0.3170806,1.0732745 0.3230542,1.066763 0.3282966,1.0596445 0.3329498,1.0520369 0.3412746,1.0360066 0.3412746,1.0360066 0.3479768,1.0146102 0.3507784,1.0038153 0.352923,0.9929048 0.3552007,0.9707298 0.3559852,0.9482921 0.3559852,0.9482921 0.3542381,0.9166748 0.3522305,0.9012285 0.348862,0.8862172 0.3437197,0.8717728 0.3369433,0.8578507 0.3206521,0.8308817 0.3206521,0.8308817 0.2982828,0.8117641 0.2864943,0.803437 0.2739821,0.7965854 0.2606505,0.791405 0.2466806,0.7875262 0.2176773,0.7819377z" transform="matrix(1,0,0,-1,5.3407639,4.9092036)" fill="rgb(104,104,104)" fill-rule="nonzero" shaper:cutDepth="0.0000762" stroke-linecap="round" stroke-linejoin="round" /><path d="M0.2176773,-1.0661098 L0.2099782,-0.9869195 0.2099782,-0.9869195 0.2263675,-0.9830567 0.2342822,-0.9805824 0.2418611,-0.9774566 0.2490024,-0.973482 0.2557415,-0.9687272 0.268546,-0.9579107 0.268546,-0.9579107 0.2769673,-0.9444059 0.280504,-0.9374305 0.2832337,-0.9301879 0.285057,-0.9226452 0.2861767,-0.9148697 0.2872437,-0.8989304 0.2872437,-0.8989304 0.2865156,-0.8830807 0.2856084,-0.8753199 0.2840495,-0.8677558 0.2816354,-0.86045 0.2784128,-0.8533882 0.2706082,-0.8396752 0.2706082,-0.8396752 0.2624252,-0.8316002 0.2580786,-0.8280735 0.2534258,-0.8251599 0.2483846,-0.8230239 0.243009,-0.8215573 0.2317005,-0.8197402 0.2317005,-0.8197402 0.2250917,-0.8203343 0.2187644,-0.8217339 0.2129174,-0.8245074 0.2073661,-0.8281267 0.2073661,-0.8281267 0.2016684,-0.8346211 0.1967785,-0.8416165 0.1930329,-0.8493218 0.1899057,-0.8574106 0.1899057,-0.8574106 0.1805748,-0.8898477 0.1723079,-0.9225775 0.1723079,-0.9225775 0.1657651,-0.9471003 0.1619671,-0.9591212 0.1575369,-0.9708537 0.1522676,-0.9822033 0.1461446,-0.9931632 0.1324378,-1.0144162 0.1324378,-1.0144162 0.1149819,-1.0299077 0.1057768,-1.0366035 0.0959992,-1.0420396 0.0855139,-1.0459185 0.0744425,-1.0485077 0.0513228,-1.0515367 0.0513228,-1.0515367 0.0360325,-1.0501202 0.0285401,-1.0489055 0.0212308,-1.0470833 0.014143,-1.0445262 0.0072347,-1.0413737 -0.0062827,-1.0340763 -0.0062827,-1.0340763 -0.0191242,-1.0236532 -0.0250862,-1.0180658 -0.0304976,-1.0120277 -0.0352577,-1.0054561 -0.0394986,-0.9984594 -0.0471151,-0.9837575 -0.0471151,-0.9837575 -0.0534176,-0.9644396 -0.0560667,-0.9546883 -0.0581145,-0.9448266 -0.0603284,-0.9247572 -0.0611384,-0.9044298 -0.0611384,-0.9044298 -0.0596512,-0.8737321 -0.0578244,-0.8587219 -0.0546977,-0.8441181 -0.0498671,-0.8300471 -0.0434324,-0.8164776 -0.0278675,-0.7901813 -0.0278675,-0.7901813 -0.0087327,-0.7734437 0.0013678,-0.7662332 0.012108,-0.7604125 0.0236085,-0.7562435 0.0357169,-0.753395 0.0609466,-0.7498988 0.0645211,-0.8312887 0.0645211,-0.8312887 0.0518978,-0.8341237 0.0400162,-0.8383715 0.0345777,-0.8414523 0.0294764,-0.8451753 0.0198391,-0.8536985 0.0198391,-0.8536985 0.0134017,-0.865721 0.010753,-0.871895 0.0087807,-0.8782622 0.0067879,-0.8915538 0.0062283,-0.9052546 0.0062283,-0.9052546 0.0069434,-0.919956 0.009157,-0.93424 0.0112775,-0.9410996 0.0140744,-0.9477709 0.0208015,-0.9607978 0.0208015,-0.9607978 0.0259269,-0.9662237 0.0316665,-0.9704568 0.0384347,-0.9726916 0.0458234,-0.9737212 0.0458234,-0.9737212 0.0529019,-0.9726726 0.059445,-0.9705227 0.0651228,-0.9665924 0.0702954,-0.9616227 0.0702954,-0.9616227 0.079568,-0.9439092 0.0836542,-0.934839 0.0871462,-0.9255382 0.0927105,-0.9063854 0.0972421,-0.8868319 0.0972421,-0.8868319 0.1028031,-0.8642932 0.1091989,-0.8420387 0.1171576,-0.8203163 0.126251,-0.7989802 0.126251,-0.7989802 0.1344206,-0.7859305 0.1437099,-0.7739145 0.1548903,-0.7636441 0.167221,-0.7544357 0.167221,-0.7544357 0.182455,-0.7472639 0.1902177,-0.7442398 0.198155,-0.7418889 0.2062914,-0.7403053 0.2145831,-0.7393208 0.2314256,-0.7383503 0.2314256,-0.7383503 0.2486098,-0.7399057 0.257037,-0.7412422 0.2652662,-0.7432493 0.2732558,-0.7460682 0.281051,-0.7495456 0.2963176,-0.7575978 0.2963176,-0.7575978 0.3104979,-0.7687671 0.3170806,-0.774773 0.3230543,-0.7812845 0.3282966,-0.7884031 0.3329499,-0.7960108 0.3412746,-0.8120412 0.3412746,-0.8120412 0.3479768,-0.8334375 0.3507784,-0.8442323 0.352923,-0.8551428 0.3552007,-0.8773177 0.3559852,-0.8997554 0.3559852,-0.8997554 0.3542381,-0.9313727 0.3522305,-0.946819 0.348862,-0.9618303 0.3437197,-0.9762747 0.3369433,-0.9901968 0.3206521,-1.0171658 0.3206521,-1.0171658 0.2982828,-1.0362834 0.2864943,-1.0446105 0.2739821,-1.0514621 0.2606505,-1.0566424 0.2466806,-1.0605213 0.2176773,-1.0661098z" transform="matrix(1,0,0,-1,5.3407639,4.9092036)" fill="rgb(104,104,104)" fill-rule="nonzero" shaper:cutDepth="0.0000762" stroke-linecap="round" stroke-linejoin="round" /><path d="M0.3488361,-1.4337395 L0.3488361,-1.5222787 0.2572724,-1.5574743 0.2572724,-1.7186044 0.3488361,-1.7518754 0.3488361,-1.8382148 -0.0542642,-1.6812091 -0.0542642,-1.5951446 0.3488361,-1.4337395z M0.1893558,-1.5835961 L0.0397742,-1.6391393 0.1893558,-1.6935825 0.1893558,-1.5835961z" transform="matrix(1,0,0,-1,5.3407639,4.9092036)" fill="rgb(104,104,104)" fill-rule="nonzero" shaper:cutDepth="0.0000762" stroke-linecap="round" stroke-linejoin="round" /><path d="M0.9838361,1.4788702 L0.6489273,1.4788702 0.6489273,1.3592601 0.5807358,1.3592601 0.5807358,1.6795956 0.6489273,1.6795956 0.6489273,1.5602604 0.9838361,1.5602604 0.9838361,1.4788702z" transform="matrix(1,0,0,-1,5.3407639,4.9092036)" fill="rgb(104,104,104)" fill-rule="nonzero" shaper:cutDepth="0.0000762" stroke-linecap="round" stroke-linejoin="round" /><path d="M3.9378561,4.2742036 a0.24638,0.24638 0 1,1 0.49276,0 a0.24638,0.24638 0 1,1 -0.49276,0z" transform="matrix(1,0,0,-1,5.3407639,4.9092036)" fill="rgb(255,255,255)" stroke="rgb(0,0,0)" stroke-width="0.0010cm" stroke-linecap="round" stroke-linejoin="round" shaper:cutDepth="0.0015875" /><path d="M-4.3171439,-5.2507964 a0.24638,0.24638 0 1,1 0.49276,0 a0.24638,0.24638 0 1,1 -0.49276,0z" transform="matrix(1,0,0,-1,5.3407639,4.9092036)" fill="rgb(255,255,255)" stroke="rgb(0,0,0)" stroke-width="0.0010cm" stroke-linecap="round" stroke-linejoin="round" shaper:cutDepth="0.0015875" /><path d="M-4.3171439,4.2742036 a0.24638,0.24638 0 1,1 0.49276,0 a0.24638,0.24638 0 1,1 -0.49276,0z" transform="matrix(1,0,0,-1,5.3407639,4.9092036)" fill="rgb(255,255,255)" stroke="rgb(0,0,0)" stroke-width="0.0010cm" stroke-linecap="round" stroke-linejoin="round" shaper:cutDepth="0.0015875" /><path d="M3.9378561,-5.2507964 a0.24638,0.24638 0 1,1 0.49276,0 a0.24638,0.24638 0 1,1 -0.49276,0z" transform="matrix(1,0,0,-1,5.3407639,4.9092036)" fill="rgb(255,255,255)" stroke="rgb(0,0,0)" stroke-width="0.0010cm" stroke-linecap="round" stroke-linejoin="round" shaper:cutDepth="0.0015875" /><path d="M-1.8782639,-1.3532964 A0.16,0.16 180 0,0 -1.7182639,-1.1932964 L-0.7382639,-1.1932964 A0.16,0.16 90 0,0 -0.5782639,-1.3532964 L-0.5782639,-2.3332964 A0.16,0.16 0 0,0 -0.7382639,-2.4932964 L-1.7182639,-2.4932964 A0.16,0.16 270 0,0 -1.8782639,-2.3332964 L-1.8782639,-1.3532964z" transform="matrix(1,0,0,-1,5.3407639,4.9092036)" fill="rgb(255,255,255)" stroke="rgb(0,0,0)" stroke-width="0.0010cm" stroke-linecap="round" stroke-linejoin="round" shaper:cutDepth="0.0015875" /><path d="M1.3267361,-2.2832964 L1.3267361,-1.8832964 1.4867361,-1.8832964 1.4867361,-1.3732964 1.7067361,-1.3732964 1.7067361,-1.1232964 2.2667361,-1.1232964 2.2667361,-1.3732964 2.4867361,-1.3732964 2.4867361,-2.7932964 2.2667361,-2.7932964 2.2667361,-3.0432964 1.7067361,-3.0432964 1.7067361,-2.7932964 1.4867361,-2.7932964 1.4867361,-2.2832964 1.3267361,-2.2832964z" transform="matrix(1,0,0,-1,5.3407639,4.9092036)" fill="rgb(255,255,255)" stroke="rgb(0,0,0)" stroke-width="0.0010cm" stroke-linecap="round" stroke-linejoin="round" shaper:cutDepth="0.0015875" /><path d="M1.3267361,0.9067036 L1.3267361,1.3067036 1.4867361,1.3067036 1.4867361,1.8167036 1.7067361,1.8167036 1.7067361,2.0667036 2.2667361,2.0667036 2.2667361,1.8167036 2.4867361,1.8167036 2.4867361,0.3967036 2.2667361,0.3967036 2.2667361,0.1467036 1.7067361,0.1467036 1.7067361,0.3967036 1.4867361,0.3967036 1.4867361,0.9067036 1.3267361,0.9067036z" transform="matrix(1,0,0,-1,5.3407639,4.9092036)" fill="rgb(255,255,255)" stroke="rgb(0,0,0)" stroke-width="0.0010cm" stroke-linecap="round" stroke-linejoin="round" shaper:cutDepth="0.0015875" /><path d="M-1.3882639,-3.1432964 a0.16,0.16 0 1,1 0.32,0 a0.16,0.16 0 1,1 -0.32,0z" transform="matrix(1,0,0,-1,5.3407639,4.9092036)" fill="rgb(255,255,255)" stroke="rgb(0,0,0)" stroke-width="0.0010cm" stroke-linecap="round" stroke-linejoin="round" shaper:cutDepth="0.0015875" /><path d="M-1.3882639,-0.5432964 a0.16,0.16 0 1,1 0.32,0 a0.16,0.16 0 1,1 -0.32,0z" transform="matrix(1,0,0,-1,5.3407639,4.9092036)" fill="rgb(255,255,255)" stroke="rgb(0,0,0)" stroke-width="0.0010cm" stroke-linecap="round" stroke-linejoin="round" shaper:cutDepth="0.0015875" /><path d="M-3.3282639,1.5166558 a1.2,1.2 0 1,1 2.4,0 a1.2,1.2 0 1,1 -2.4,0z" transform="matrix(1,0,0,-1,5.3407639,4.9092036)" fill="rgb(255,255,255)" stroke="rgb(0,0,0)" stroke-width="0.0010cm" stroke-linecap="round" stroke-linejoin="round" shaper:cutDepth="0.0015875" /><path d="M-1.0882639,2.4666558 a0.16,0.16 0 1,1 0.32,0 a0.16,0.16 0 1,1 -0.32,0z" transform="matrix(1,0,0,-1,5.3407639,4.9092036)" fill="rgb(255,255,255)" stroke="rgb(0,0,0)" stroke-width="0.0010cm" stroke-linecap="round" stroke-linejoin="round" shaper:cutDepth="0.0015875" /><path d="M-3.4882639,0.5666558 a0.16,0.16 0 1,1 0.32,0 a0.16,0.16 0 1,1 -0.32,0z" transform="matrix(1,0,0,-1,5.3407639,4.9092036)" fill="rgb(255,255,255)" stroke="rgb(0,0,0)" stroke-width="0.0010cm" stroke-linecap="round" stroke-linejoin="round" shaper:cutDepth="0.0015875" /></svg>