<?xml version="1.0" encoding="utf-8"?>
<!-- Generator: Fusion 360, Shaper Origin Export Add-In, Version 1.6.10  -->
<svg xmlns="http://www.w3.org/2000/svg" xmlns:xlink="http://www.w3.org/1999/xlink" xmlns:shaper="http://www.shapertools.com/namespaces/shaper" shaper:fusionaddin="version:1.6.10" width="23.4911526cm" height="0.8255cm" version="1.1" x="0cm" y="0cm" viewBox="0 0 23.4911526 0.8255" enable-background="new 0 0 23.4911526 0.8255" xml:space="preserve"><path d="M11.7455763,-0.41275 L11.7455763,0.41275 -11.7455763,0.41275 -11.7455763,-0.41275 11.7455763,-0.41275z" transform="matrix(1,0,0,-1,11.7455763,0.41275)" fill="rgb(0,0,0)" shaper:cutDepth="0.0015875" stroke-linecap="round" stroke-linejoin="round" /><path d="M-8.8359343,-0.1753821 L-8.8359343,-0.1753821 -8.8293514,-0.1749872 -8.8229731,-0.1732715 -8.8110556,-0.1676229 -8.6137306,-0.0528086 -8.3658261,-0.2000846 -8.3658261,-0.2000846 -8.3510973,-0.2081121 -8.3433776,-0.2111235 -8.3350362,-0.211961 -8.3350362,-0.211961 -8.3283953,-0.2112719 -8.3220291,-0.2092722 -8.3162096,-0.2060069 -8.3112949,-0.2014879 -8.3073099,-0.1961356 -8.304483,-0.1900871 -8.3028073,-0.1836275 -8.3021521,-0.1769832 -8.3021521,-0.1769832 -8.3025066,-0.1708803 -8.3037597,-0.1649863 -8.3063241,-0.1594655 -8.3097658,-0.1544022 -8.3137801,-0.1498378 -8.3182729,-0.1457762 -8.3281392,-0.1386799 -8.5433909,-0.0119459 -8.3272251,0.1140474 -8.3272251,0.1140474 -8.3177855,0.1208917 -8.3134402,0.1247629 -8.3095356,0.1290978 -8.3062123,0.1339361 -8.3037592,0.1392416 -8.3025366,0.1449005 -8.3021521,0.1507497 -8.3021521,0.1507497 -8.3026644,0.15761 -8.3043783,0.1642642 -8.3072074,0.1705334 -8.3112502,0.1760931 -8.3164179,0.1806271 -8.3224365,0.1839491 -8.3290509,0.1858218 -8.3358983,0.1864666 -8.3358983,0.1864666 -8.342626,0.1859248 -8.3490329,0.1837713 -8.360777,0.1771063 -8.6137306,0.0289167 -8.8075936,0.1404379 -8.8075936,0.1404379 -8.8212522,0.1472022 -8.828417,0.1497083 -8.8359343,0.1507497 -8.8359343,0.1507497 -8.8428547,0.149957 -8.8494883,0.147846 -8.8554819,0.1443049 -8.8603955,0.1393696 -8.8642095,0.1335463 -8.8667912,0.1270772 -8.8681852,0.1202553 -8.8686952,0.1133086 -8.8686952,0.1133086 -8.8684222,0.1080721 -8.8675439,0.1029346 -8.8656178,0.0980563 -8.8626602,0.093749 -8.8590233,0.0899985 -8.8549723,0.0867085 -8.8462798,0.0809171 -8.6857859,-0.0127973 -8.8401901,-0.1021844 -8.8401901,-0.1021844 -8.8507153,-0.1085263 -8.8556971,-0.1120975 -8.8602595,-0.1161997 -8.8641315,-0.1210292 -8.8668788,-0.1265164 -8.868226,-0.1324951 -8.8686952,-0.1386799 -8.8686952,-0.1386799 -8.8681756,-0.1455294 -8.8666416,-0.1522187 -8.8640212,-0.1585705 -8.8601048,-0.1642056 -8.8551878,-0.1690001 -8.8493221,-0.1725657 -8.8427517,-0.1745584 -8.8359343,-0.1753821z" transform="matrix(1,0,0,-1,11.7455763,0.41275)" fill="rgb(104,104,104)" fill-rule="nonzero" shaper:cutDepth="0.0000762" stroke-linecap="round" stroke-linejoin="round" /><path d="M-9.0086143,-0.1640512 L-9.0086143,-0.1640512 -9.0034909,-0.1665145 -8.9987151,-0.1695894 -8.9943668,-0.1732516 -8.9906471,-0.1775458 -8.9877708,-0.1824459 -8.9858067,-0.1877778 -8.9846955,-0.1933497 -8.9844746,-0.1990291 -8.9844746,-0.1990291 -8.9850188,-0.2058067 -8.9865874,-0.2124211 -8.989371,-0.2186235 -8.9932299,-0.2242199 -8.9980417,-0.2290222 -9.0037933,-0.2326438 -9.0102377,-0.2348017 -9.0169893,-0.2356081 -9.0169893,-0.2356081 -9.0234945,-0.2350284 -9.0297702,-0.2332166 -9.0421001,-0.2288395 -9.5241685,-0.0465551 -9.5241685,-0.0465551 -9.5348787,-0.0413823 -9.5397275,-0.0379349 -9.5439972,-0.0337872 -9.5474157,-0.0289219 -9.5498175,-0.023479 -9.5510046,-0.0176502 -9.5510178,-0.0117003 -9.5510178,-0.0117003 -9.5507504,-0.0044877 -9.5492564,0.0025766 -9.5462759,0.0091286 -9.5415776,0.0146158 -9.5357923,0.0189121 -9.529535,0.0225361 -9.5162958,0.028255 -9.0363256,0.2122074 -9.0363256,0.2122074 -9.0268036,0.2144348 -9.0169893,0.2156559 -9.0169893,0.2156559 -9.0102552,0.2148021 -9.0038391,0.2125926 -8.9981625,0.2088712 -8.9933351,0.2041032 -8.9895113,0.1984918 -8.9866989,0.1923163 -8.9851352,0.1857097 -8.9844746,0.1789537 -8.9844746,0.1789537 -8.9846244,0.1727835 -8.9859883,0.1667665 -8.9885526,0.1611709 -8.9921561,0.1562145 -8.9966451,0.1520414 -9.0017271,0.148583 -9.0126959,0.1431813 -9.0790626,0.1184934 -9.0790626,-0.1368984 -9.0086143,-0.1640512z M-9.1490184,0.0904003 L-9.4149481,-0.0100538 -9.1490184,-0.1105079 -9.1490184,0.0904003z" transform="matrix(1,0,0,-1,11.7455763,0.41275)" fill="rgb(104,104,104)" fill-rule="nonzero" shaper:cutDepth="0.0000762" stroke-linecap="round" stroke-linejoin="round" /><path d="M-10.2333403,0.167746 L-10.2333403,0.167746 -10.2330758,0.162365 -10.232216,0.157087 -10.2303325,0.1520503 -10.2274813,0.1474931 -10.2197318,0.1401047 -10.2109249,0.1339998 -9.9659128,-0.0118293 -10.2076837,-0.1575314 -10.2076837,-0.1575314 -10.2164531,-0.1629457 -10.2245073,-0.1693658 -10.2277768,-0.1734269 -10.2300897,-0.1780577 -10.2312222,-0.1831006 -10.231616,-0.188314 -10.231616,-0.188314 -10.2311815,-0.1965194 -10.2290987,-0.2044618 -10.227321,-0.2081799 -10.2249876,-0.2115556 -10.2188741,-0.2170516 -10.2115844,-0.2207967 -10.2036368,-0.2229359 -10.1954961,-0.2239684 -10.1872779,-0.224154 -9.7130748,-0.2241542 -9.7130748,-0.2241542 -9.6965648,-0.2230227 -9.6885086,-0.2211252 -9.6809014,-0.2178588 -9.674282,-0.2128974 -9.6716495,-0.2097013 -9.6695981,-0.2060971 -9.6671871,-0.1981823 -9.6667971,-0.1899151 -9.6667971,-0.1899151 -9.6681393,-0.1801103 -9.669657,-0.1754267 -9.6717952,-0.1709369 -9.6744172,-0.1666715 -9.6776149,-0.1629071 -9.6815287,-0.1599515 -9.6858872,-0.1575236 -9.6858872,-0.1575236 -9.6920662,-0.1555497 -9.6984385,-0.1545157 -9.7113816,-0.1541983 -10.0646643,-0.1541983 -9.8875926,-0.0484872 -9.8875926,-0.0484872 -9.8778118,-0.0420697 -9.8690039,-0.0343851 -9.8655945,-0.0296217 -9.8633557,-0.0241895 -9.8623714,-0.0184382 -9.8621314,-0.0125625 -9.8621314,-0.0125625 -9.8623342,-0.0060749 -9.8634467,0.0002964 -9.8661614,0.006267 -9.8704369,0.0112834 -9.8807608,0.0194778 -9.8919365,0.0266029 -10.0646643,0.130551 -9.7096696,0.130551 -9.7096696,0.130551 -9.6968121,0.1309133 -9.6904121,0.1316364 -9.6841629,0.1331376 -9.6841629,0.1331376 -9.6764936,0.1390868 -9.6734575,0.1428883 -9.6710664,0.1471491 -9.6680853,0.1563874 -9.6667971,0.1660218 -9.6667971,0.1660218 -9.6675151,0.1733321 -9.6693191,0.1803904 -9.6728197,0.186835 -9.6778649,0.1921769 -9.6840878,0.1960216 -9.6910264,0.1984803 -9.6982555,0.19983 -9.705593,0.200507 -10.1963198,0.2005069 -10.1963198,0.2005069 -10.2035359,0.2003967 -10.2106797,0.1994716 -10.217627,0.1974848 -10.2238346,0.19385 -10.2287403,0.1885662 -10.2317761,0.1820298 -10.2331726,0.174959 -10.2333403,0.167746z" transform="matrix(1,0,0,-1,11.7455763,0.41275)" fill="rgb(104,104,104)" fill-rule="nonzero" shaper:cutDepth="0.0000762" stroke-linecap="round" stroke-linejoin="round" /><path d="M-4.1903887,0.1655291 L-4.1903887,0.1655291 -4.1915947,0.1607508 -4.1919693,0.1558301 -4.1919898,0.1459464 -4.1919898,-0.1384336 -4.6584172,-0.1384336 -4.6584172,-0.1384336 -4.6722927,-0.1398379 -4.6789972,-0.1417947 -4.685154,-0.1450642 -4.6903485,-0.1497264 -4.6939679,-0.1556812 -4.6958743,-0.1623921 -4.6964595,-0.1693471 -4.6964595,-0.1693471 -4.6958621,-0.1762596 -4.6938306,-0.1828896 -4.6900972,-0.188734 -4.6850162,-0.1934478 -4.6788989,-0.1967114 -4.6722749,-0.1987993 -4.6654506,-0.2000155 -4.6585257,-0.200507 -4.1718389,-0.2005071 -4.1718389,-0.2005071 -4.1635027,-0.2005879 -4.1552454,-0.1994898 -4.1473742,-0.1967496 -4.1404752,-0.1920907 -4.1375887,-0.189069 -4.1352078,-0.1856473 -4.131989,-0.177957 -4.1303623,-0.1697901 -4.1299163,-0.1614648 -4.1299163,0.1399435 -4.1299163,0.1399435 -4.1299269,0.152406 -4.1301786,0.1586194 -4.1316406,0.164667 -4.1316406,0.164667 -4.1361118,0.1734706 -4.1391961,0.1773276 -4.1429201,0.180608 -4.1471506,0.1831992 -4.1517379,0.1850262 -4.1614457,0.1868361 -4.1614457,0.1868361 -4.17085,0.1851366 -4.17526,0.1833219 -4.1793676,0.1808093 -4.1830837,0.1777314 -4.1861858,0.1741063 -4.1903887,0.1655291z" transform="matrix(1,0,0,-1,11.7455763,0.41275)" fill="rgb(104,104,104)" fill-rule="nonzero" shaper:cutDepth="0.0000762" stroke-linecap="round" stroke-linejoin="round" /><path d="M-4.8262793,0.0120698 L-4.8262793,0.0120698 -4.8322849,0.0140143 -4.8385266,0.0149522 -4.8511579,0.015272 -5.3407744,0.015272 -5.3407744,0.015272 -5.3477565,0.0149731 -5.354671,0.0140179 -5.3614113,0.0121536 -5.3676416,0.0090151 -5.3728761,0.004393 -5.3765193,-0.0015557 -5.378314,-0.0083025 -5.378782,-0.015272 -5.378782,-0.015272 -5.3778165,-0.0231899 -5.3750266,-0.0306605 -5.3705221,-0.0372385 -5.3647416,-0.0427371 -5.3647416,-0.0427371 -5.3585075,-0.0453586 -5.3518085,-0.0463865 -5.3382619,-0.0468014 -4.8510737,-0.0468015 -4.8510737,-0.0468015 -4.8401186,-0.0466418 -4.8347304,-0.0460875 -4.8296046,-0.0443382 -4.8296046,-0.0443382 -4.8222583,-0.0393704 -4.8193434,-0.0360302 -4.8169232,-0.0322523 -4.8135094,-0.0240641 -4.8122389,-0.015272 -4.8122389,-0.015272 -4.8133177,-0.0073906 -4.8160889,0.000061 -4.82033,0.0068039 -4.8262793,0.0120698z" transform="matrix(1,0,0,-1,11.7455763,0.41275)" fill="rgb(104,104,104)" fill-rule="nonzero" shaper:cutDepth="0.0000762" stroke-linecap="round" stroke-linejoin="round" /><path d="M-6.0611045,0.167746 L-6.0611045,0.167746 -6.06084,0.162365 -6.0599803,0.157087 -6.0580967,0.1520503 -6.0552456,0.1474931 -6.047496,0.1401047 -6.0386891,0.1339998 -5.793677,-0.0118293 -6.035448,-0.1575314 -6.035448,-0.1575314 -6.0442173,-0.1629457 -6.0522715,-0.1693658 -6.055541,-0.1734269 -6.0578539,-0.1780577 -6.0589864,-0.1831006 -6.0593803,-0.188314 -6.0593803,-0.188314 -6.0589458,-0.1965194 -6.056863,-0.2044618 -6.0550852,-0.2081799 -6.0527519,-0.2115556 -6.0466384,-0.2170516 -6.0393487,-0.2207967 -6.0314011,-0.2229359 -6.0232603,-0.2239684 -6.0150421,-0.224154 -5.5408391,-0.2241542 -5.5408391,-0.2241542 -5.5244482,-0.2230415 -5.5164033,-0.2211745 -5.5087859,-0.2179255 -5.50212,-0.2129721 -5.4994771,-0.2097623 -5.4973873,-0.20615 -5.4958719,-0.2022566 -5.4949536,-0.1981972 -5.4945614,-0.1899151 -5.4945614,-0.1899151 -5.4959036,-0.1801103 -5.4974212,-0.1754267 -5.4995594,-0.1709369 -5.5021815,-0.1666715 -5.5053791,-0.1629071 -5.509293,-0.1599515 -5.5136514,-0.1575236 -5.5136514,-0.1575236 -5.519817,-0.1555531 -5.5262011,-0.1545159 -5.5391459,-0.1541983 -5.8924285,-0.1541983 -5.7153569,-0.0484872 -5.7153569,-0.0484872 -5.7055761,-0.0420697 -5.6967682,-0.0343851 -5.6933588,-0.0296217 -5.6911199,-0.0241895 -5.6901356,-0.0184382 -5.6898956,-0.0125625 -5.6898956,-0.0125625 -5.6900984,-0.0060749 -5.6912109,0.0002964 -5.6939257,0.006267 -5.6982012,0.0112834 -5.708525,0.0194778 -5.7197007,0.0266029 -5.8924285,0.130551 -5.5374339,0.130551 -5.5374339,0.130551 -5.5245763,0.1309133 -5.5181763,0.1316364 -5.5119272,0.1331376 -5.5119272,0.1331376 -5.5042578,0.1390868 -5.5012218,0.1428883 -5.4988306,0.1471491 -5.4958496,0.1563874 -5.4945614,0.1660218 -5.4945614,0.1660218 -5.4952793,0.1733321 -5.4970833,0.1803904 -5.500584,0.186835 -5.5056291,0.1921769 -5.5118521,0.1960216 -5.5187907,0.1984803 -5.5260197,0.19983 -5.5333573,0.200507 -6.024084,0.2005069 -6.024084,0.2005069 -6.0312729,0.2003481 -6.0384075,0.1994791 -6.0453767,0.1974419 -6.051591,0.1938563 -6.0564188,0.1885413 -6.0595381,0.1820368 -6.0608833,0.1749887 -6.0611045,0.167746z" transform="matrix(1,0,0,-1,11.7455763,0.41275)" fill="rgb(104,104,104)" fill-rule="nonzero" shaper:cutDepth="0.0000762" stroke-linecap="round" stroke-linejoin="round" /><path d="M-0.9689567,0.0120698 L-0.9689567,0.0120698 -0.9749629,0.0140144 -0.9812079,0.0149525 -0.9938354,0.015272 -1.4834519,0.015272 -1.4834519,0.015272 -1.4904339,0.0149731 -1.4973484,0.0140179 -1.5040888,0.0121536 -1.510319,0.0090151 -1.5155536,0.004393 -1.5191968,-0.0015557 -1.5209915,-0.0083025 -1.5214595,-0.015272 -1.5214595,-0.015272 -1.520494,-0.0231899 -1.5177041,-0.0306605 -1.5131996,-0.0372385 -1.5074191,-0.0427371 -1.5074191,-0.0427371 -1.501185,-0.0453586 -1.494486,-0.0463865 -1.4809393,-0.0468014 -0.9937512,-0.0468015 -0.9937512,-0.0468015 -0.9827961,-0.0466418 -0.9774079,-0.0460875 -0.9722821,-0.0443382 -0.9722821,-0.0443382 -0.9649358,-0.0393704 -0.9620209,-0.0360302 -0.9596006,-0.0322523 -0.9561869,-0.0240641 -0.9549163,-0.015272 -0.9549163,-0.015272 -0.9559952,-0.0073906 -0.9587664,0.000061 -0.9630075,0.0068039 -0.9689567,0.0120698z" transform="matrix(1,0,0,-1,11.7455763,0.41275)" fill="rgb(104,104,104)" fill-rule="nonzero" shaper:cutDepth="0.0000762" stroke-linecap="round" stroke-linejoin="round" /><path d="M0.8460094,0.0641246 L0.8460094,-0.1317022 0.7031423,-0.1317022 0.7031423,0.1356079 0.7031423,0.1356079 0.7029726,0.1440582 0.7020261,0.1524472 0.6999895,0.160654 0.6965266,0.1683516 0.694117,0.171831 0.6912359,0.1749337 0.6879019,0.177529 0.68419,0.1795638 0.6761055,0.1820002 0.6676715,0.1824829 0.6676715,0.1824829 0.6597309,0.1820178 0.6520729,0.1798825 0.6452906,0.1757461 0.6400483,0.1697768 0.6365093,0.1626526 0.6344212,0.1549802 0.6334912,0.1470783 0.6331863,0.13913 0.6331864,-0.1552993 0.6331864,-0.1552993 0.6332845,-0.1649444 0.6343636,-0.1745278 0.6371532,-0.1837558 0.6394083,-0.188034 0.6423589,-0.1918562 0.646037,-0.1949856 0.6502415,-0.1973714 0.6594291,-0.2003104 0.6689853,-0.2015615 0.6786329,-0.201658 1.1533706,-0.2016581 1.1533706,-0.2016581 1.1629915,-0.2017711 1.1725509,-0.2008053 1.1818311,-0.198255 1.1861195,-0.1960653 1.1899242,-0.1931061 1.1930417,-0.189434 1.1954344,-0.1852514 1.1983994,-0.1761023 1.1996325,-0.16657 1.1997294,-0.1569504 1.1997294,0.1356079 1.1997294,0.1356079 1.1987966,0.1531498 1.1970503,0.1617629 1.1940245,0.1700183 1.1918609,0.1738468 1.1891385,0.1773031 1.1858941,0.1802811 1.1822091,0.1826885 1.1781687,0.1844418 1.1738955,0.1854999 1.165121,0.1859314 1.165121,0.1859314 1.1545901,0.1841879 1.1495678,0.1823824 1.1448934,0.1797616 1.1407376,0.1763685 1.1372693,0.1723097 1.1322369,0.1629002 1.1322369,0.1629002 1.1304163,0.157389 1.1298273,0.1515984 1.1297737,0.139869 1.1297737,-0.1317022 0.9159653,-0.1317022 0.9159653,0.060693 0.9159653,0.060693 0.9157881,0.0691039 0.9149645,0.077474 0.9130941,0.0856745 0.9098693,0.0934475 0.9075811,0.0969786 0.9047555,0.1001028 0.9014695,0.1027431 0.897815,0.1048379 0.8938753,0.1063368 0.8897588,0.1072274 0.8813568,0.1076007 0.8813568,0.1076007 0.8733014,0.1071712 0.8655103,0.105105 0.8618563,0.1033695 0.8585206,0.1011063 0.8531234,0.0951175 0.8494505,0.087946 0.8472392,0.0801838 0.8461995,0.0721912 0.8460094,0.0641246z" transform="matrix(1,0,0,-1,11.7455763,0.41275)" fill="rgb(104,104,104)" fill-rule="nonzero" shaper:cutDepth="0.0000762" stroke-linecap="round" stroke-linejoin="round" /><path d="M0.4629524,0.1722605 L0.4629524,0.1722605 0.4617455,0.1674768 0.4613715,0.1625531 0.4613513,0.1526778 0.4613513,-0.1317022 -0.0050762,-0.1317022 -0.0050762,-0.1317022 -0.0189517,-0.1331066 -0.0256562,-0.1350633 -0.0318129,-0.1383328 -0.0370074,-0.142995 -0.0406269,-0.1489499 -0.0425333,-0.1556607 -0.0431185,-0.1626158 -0.0431185,-0.1626158 -0.0425211,-0.1695282 -0.0404895,-0.1761582 -0.0367562,-0.1820026 -0.0316752,-0.1867164 -0.0255579,-0.1899801 -0.0189339,-0.192068 -0.0121096,-0.1932842 -0.0051847,-0.1937757 0.4815021,-0.1937758 0.4815021,-0.1937758 0.4898383,-0.1938565 0.4980956,-0.1927584 0.5059668,-0.1900182 0.5128658,-0.1853593 0.5157523,-0.1823376 0.5181332,-0.178916 0.521352,-0.1712256 0.5229787,-0.1630588 0.5234247,-0.1547334 0.5234247,0.1466749 0.5234247,0.1466749 0.5234141,0.1591373 0.5231624,0.1653508 0.5217004,0.1713984 0.5217004,0.1713984 0.5172292,0.180202 0.5141449,0.1840589 0.5104209,0.1873393 0.5061904,0.1899306 0.5016031,0.1917576 0.4918953,0.1935674 0.4918953,0.1935674 0.4824911,0.191868 0.478081,0.1900533 0.4739734,0.1875407 0.4702573,0.1844628 0.4671552,0.1808376 0.4629524,0.1722605z" transform="matrix(1,0,0,-1,11.7455763,0.41275)" fill="rgb(104,104,104)" fill-rule="nonzero" shaper:cutDepth="0.0000762" stroke-linecap="round" stroke-linejoin="round" /><path d="M-0.6541476,0.1034132 L-0.6541476,0.1034132 -0.6314063,0.1236306 -0.6192007,0.132716 -0.6064558,0.1410551 -0.593294,0.1487031 -0.5797121,0.1555612 -0.5657275,0.1615699 -0.551417,0.1667646 -0.5368463,0.1711658 -0.5220631,0.1747704 -0.5071181,0.1776457 -0.4920655,0.179924 -0.476943,0.1816466 -0.461771,0.1827569 -0.4313483,0.1835914 -0.4313483,0.1835914 -0.4093902,0.1833404 -0.3874588,0.1822539 -0.36561,0.1800502 -0.343939,0.1765101 -0.3226161,0.1712671 -0.3018137,0.164241 -0.2815461,0.1557894 -0.2620012,0.1457808 -0.2620012,0.1457808 -0.2494603,0.1387052 -0.237227,0.131112 -0.2253891,0.1229148 -0.2139936,0.114111 -0.2032344,0.1045453 -0.1931286,0.0942866 -0.1837428,0.083369 -0.175282,0.0717183 -0.1678867,0.0593658 -0.1614701,0.0464756 -0.1561376,0.0331017 -0.1518456,0.0193579 -0.1486911,0.0053096 -0.1466145,-0.0089391 -0.1453296,-0.0232795 -0.1449977,-0.0376749 -0.1449977,-0.1578125 -0.1449977,-0.1578125 -0.1453163,-0.167891 -0.1468827,-0.1778543 -0.1484636,-0.182644 -0.1506928,-0.1871763 -0.1536208,-0.1913083 -0.1573206,-0.1947222 -0.1616978,-0.197255 -0.1664143,-0.1990723 -0.1762713,-0.2011885 -0.1863304,-0.2018667 -0.1964138,-0.2016581 -0.667449,-0.201658 -0.667449,-0.201658 -0.6767018,-0.2014644 -0.6857665,-0.1999831 -0.6943062,-0.1964178 -0.6981387,-0.1938249 -0.7015285,-0.1907136 -0.7043849,-0.1871158 -0.7067066,-0.1831265 -0.7098307,-0.1744158 -0.7111886,-0.1653386 -0.7115408,-0.1561422 -0.7115409,-0.0393311 -0.7115409,-0.0393311 -0.7108849,-0.0195585 -0.7084996,0.0000785 -0.7041736,0.0193829 -0.6978897,0.0381396 -0.6896807,0.0561383 -0.6794622,0.0730765 -0.6675925,0.0889011 -0.6541476,0.1034132z M-0.2149535,-0.0376068 L-0.2149535,-0.0376068 -0.2158833,-0.0154896 -0.2174418,-0.0045362 -0.2198895,0.0062639 -0.2235267,0.016711 -0.2284007,0.0266501 -0.2345443,0.0358548 -0.2415564,0.0444188 -0.2415564,0.0444188 -0.2527738,0.0562392 -0.265005,0.0670097 -0.2781352,0.07666 -0.2920323,0.0851751 -0.3065007,0.0926707 -0.3215275,0.0989832 -0.3369016,0.1043838 -0.3526481,0.108586 -0.3526481,0.108586 -0.3679519,0.1120433 -0.3835802,0.1134305 -0.415091,0.1136356 -0.415091,0.1136356 -0.4454849,0.113722 -0.4758712,0.1131003 -0.4910377,0.1121569 -0.5060092,0.1095959 -0.5206236,0.1054206 -0.534804,0.0999647 -0.534804,0.0999647 -0.5494965,0.0933986 -0.5637165,0.0858668 -0.5773404,0.0773004 -0.5902745,0.0677259 -0.6023633,0.0571033 -0.6134706,0.0454625 -0.6233273,0.032738 -0.6313627,0.0188012 -0.6313627,0.0188012 -0.6370333,0.0057029 -0.6389571,-0.0011318 -0.6402308,-0.0081487 -0.6414177,-0.0224608 -0.6415849,-0.0368201 -0.6415849,-0.1317022 -0.2149535,-0.1317022 -0.2149535,-0.0376068z" transform="matrix(1,0,0,-1,11.7455763,0.41275)" fill="rgb(104,104,104)" fill-rule="nonzero" shaper:cutDepth="0.0000762" stroke-linecap="round" stroke-linejoin="round" /><path d="M5.8206495,0.0599372 L5.8206495,-0.1317022 5.6777823,-0.1317022 5.6777823,0.1373105 5.6777823,0.1373105 5.6775081,0.1454458 5.6763894,0.1534936 5.6742377,0.161352 5.6706984,0.168659 5.6654952,0.1749221 5.6622526,0.1773644 5.6586478,0.1792738 5.6509082,0.1817717 5.6428042,0.1824829 5.6428042,0.1824829 5.6347876,0.1816185 5.6271629,0.1789952 5.6236213,0.1770443 5.62043,0.1745933 5.6152305,0.1684167 5.6116426,0.161217 5.609512,0.153425 5.6083188,0.1454579 5.6078263,0.1374058 5.6078264,-0.1516911 5.6078264,-0.1516911 5.607517,-0.1617761 5.6087447,-0.1717815 5.6120049,-0.1813236 5.6145578,-0.1856888 5.6177808,-0.1895757 5.6216248,-0.1928487 5.6259054,-0.1955433 5.6352466,-0.1993302 5.6451689,-0.201142 5.6552435,-0.201658 6.1284538,-0.2016581 6.1284538,-0.2016581 6.1415636,-0.2014717 6.148048,-0.2009018 6.1542941,-0.1990716 6.1542941,-0.1990716 6.1626509,-0.1935448 6.1661692,-0.1899748 6.1690718,-0.185858 6.1713088,-0.1813537 6.1728536,-0.1765888 6.1743695,-0.1666801 6.1743695,-0.1666801 6.1728828,-0.1561484 6.171111,-0.1511262 6.1685247,-0.1464514 6.165225,-0.1422807 6.1612608,-0.13874 6.1566841,-0.1360357 6.1517077,-0.1341655 6.1517077,-0.1341655 6.1461088,-0.132332 6.1402321,-0.1317584 6.1284302,-0.1317022 5.8906054,-0.1317022 5.8906054,0.0572877 5.8906054,0.0572877 5.8902574,0.071455 5.8895175,0.0785094 5.8880188,0.0854316 5.8880188,0.0854316 5.8832026,0.094636 5.8798226,0.0985822 5.8757564,0.1018658 5.8711861,0.1043881 5.8662798,0.1060926 5.8559968,0.1076007 5.8559968,0.1076007 5.8474875,0.1071063 5.8433289,0.106155 5.8393431,0.1046098 5.8356397,0.102482 5.8323342,0.0997867 5.8271199,0.0930486 5.8237428,0.0852298 5.821761,0.07693 5.820824,0.0684636 5.8206495,0.0599372z" transform="matrix(1,0,0,-1,11.7455763,0.41275)" fill="rgb(104,104,104)" fill-rule="nonzero" shaper:cutDepth="0.0000762" stroke-linecap="round" stroke-linejoin="round" /><path d="M5.1033566,0.0599372 L5.1033566,-0.1317022 4.9604894,-0.1317022 4.9604894,0.1373105 4.9604894,0.1373105 4.9602152,0.1454458 4.9590965,0.1534936 4.9569448,0.161352 4.9534055,0.168659 4.9482023,0.1749221 4.9449597,0.1773644 4.9413549,0.1792738 4.9336153,0.1817717 4.9255113,0.1824829 4.9255113,0.1824829 4.9174946,0.1816185 4.90987,0.1789952 4.9063284,0.1770443 4.9031371,0.1745933 4.8979376,0.1684167 4.8943497,0.161217 4.892219,0.153425 4.8910259,0.1454579 4.8905334,0.1374058 4.8905335,-0.1516911 4.8905335,-0.1516911 4.8902241,-0.1617761 4.8914518,-0.1717815 4.894712,-0.1813236 4.8972648,-0.1856888 4.9004878,-0.1895757 4.9043319,-0.1928487 4.9086124,-0.1955433 4.9179537,-0.1993302 4.927876,-0.201142 4.9379506,-0.201658 5.4111609,-0.2016581 5.4111609,-0.2016581 5.4242707,-0.2014717 5.4307551,-0.2009018 5.4370012,-0.1990716 5.4370012,-0.1990716 5.445358,-0.1935448 5.4488763,-0.1899748 5.4517789,-0.185858 5.4540159,-0.1813537 5.4555607,-0.1765888 5.4570766,-0.1666801 5.4570766,-0.1666801 5.4555899,-0.1561484 5.4538181,-0.1511262 5.4512317,-0.1464514 5.4479321,-0.1422807 5.4439679,-0.13874 5.4393912,-0.1360357 5.4344148,-0.1341655 5.4344148,-0.1341655 5.4288159,-0.132332 5.4229392,-0.1317584 5.4111373,-0.1317022 5.1733125,-0.1317022 5.1733125,0.0572877 5.1733125,0.0572877 5.1729645,0.071455 5.1722246,0.0785094 5.1707259,0.0854316 5.1707259,0.0854316 5.1659097,0.094636 5.1625297,0.0985822 5.1584635,0.1018658 5.1538932,0.1043881 5.1489869,0.1060926 5.1387039,0.1076007 5.1387039,0.1076007 5.1301946,0.1071063 5.126036,0.106155 5.1220502,0.1046098 5.1183468,0.102482 5.1150413,0.0997867 5.109827,0.0930486 5.1064499,0.0852298 5.104468,0.07693 5.1035311,0.0684636 5.1033566,0.0599372z" transform="matrix(1,0,0,-1,11.7455763,0.41275)" fill="rgb(104,104,104)" fill-rule="nonzero" shaper:cutDepth="0.0000762" stroke-linecap="round" stroke-linejoin="round" /><path d="M4.1914684,0.1079702 L4.1914684,0.1079702 4.2028673,0.1203676 4.2154341,0.1315896 4.2289601,0.1416178 4.2431987,0.1506265 4.2581374,0.1584011 4.273518,0.1652727 4.2893249,0.1710941 4.3054252,0.1760464 4.3217748,0.1801036 4.338278,0.1834813 4.3716263,0.1882561 4.4052222,0.1907351 4.4389,0.1914737 4.4389,0.1914737 4.470712,0.1907208 4.5024371,0.1883417 4.5339484,0.1838831 4.5495493,0.1807637 4.5649944,0.1769408 4.5802537,0.1724163 4.5952821,0.1671732 4.609984,0.161092 4.624267,0.1540768 4.6380641,0.1461246 4.6512348,0.137184 4.6635817,0.1271693 4.6753702,0.1164683 4.6753702,0.1164683 4.6860865,0.1039042 4.6954981,0.0903471 4.703617,0.0760484 4.7104889,0.0611755 4.7160721,0.0457836 4.7202811,0.0299023 4.7229459,0.0136045 4.724019,-0.0028752 4.724019,-0.0028752 4.7223256,-0.0234152 4.7206247,-0.0335812 4.7182832,-0.0436261 4.7119398,-0.0632359 4.7036225,-0.0820949 4.6935517,-0.1000788 4.6817729,-0.1169911 4.6752753,-0.1250043 4.6683104,-0.1325993 4.6530779,-0.1464816 4.6530779,-0.1464816 4.640884,-0.1545876 4.6283049,-0.1620467 4.6151936,-0.1685619 4.6017312,-0.1743209 4.58802,-0.1794362 4.5740922,-0.1839377 4.559975,-0.1878025 4.5456975,-0.191015 4.5168443,-0.1959418 4.4877687,-0.1992859 4.4585557,-0.2010605 4.4292934,-0.201658 4.4292934,-0.201658 4.3995513,-0.2008402 4.3698926,-0.1985009 4.3404584,-0.1941543 4.3114027,-0.1877558 4.2970855,-0.1837027 4.2829694,-0.1789904 4.2691277,-0.1735375 4.2556218,-0.1672961 4.242488,-0.1602815 4.2298462,-0.1524274 4.217879,-0.1436087 4.2063709,-0.1341655 4.2063709,-0.1341655 4.1941797,-0.120743 4.18327,-0.1062868 4.173812,-0.0908083 4.1657406,-0.0747132 4.1591806,-0.0579659 4.154048,-0.040603 4.1508183,-0.0227567 4.1495936,-0.0046605 4.1495935,-0.0045995 4.1495935,-0.0045995 4.1503903,0.0106796 4.1526384,0.0256796 4.1562464,0.0404363 4.1610622,0.0549236 4.1670321,0.0690547 4.1741664,0.0826487 4.1824207,0.0955715 4.1914684,0.1079702z M4.4311408,-0.1317022 L4.4311408,-0.1317022 4.4539639,-0.1313023 4.4767603,-0.1301362 4.4994683,-0.127819 4.5220189,-0.1242723 4.5442708,-0.1191923 4.5659766,-0.1121384 4.5765285,-0.1077741 4.5867848,-0.102753 4.6061534,-0.0906894 4.6061534,-0.0906894 4.6160755,-0.0826901 4.6250889,-0.073682 4.6331132,-0.0637791 4.6400171,-0.0530678 4.6457561,-0.0416872 4.6501504,-0.0297263 4.6529544,-0.0172937 4.6540632,-0.0045995 4.6540632,-0.0045995 4.6532033,0.0065154 4.6508821,0.0174251 4.6474718,0.0280375 4.6429458,0.0382317 4.6376103,0.0480215 4.6313341,0.0572394 4.624325,0.0659113 4.6164989,0.0738544 4.6164989,0.0738544 4.6069508,0.0811821 4.597019,0.0879337 4.5865359,0.0937828 4.5756388,0.0988148 4.5645086,0.1031943 4.5531956,0.1069888 4.5300915,0.1129967 4.5064829,0.1171656 4.4825872,0.1197394 4.4586027,0.1210066 4.4345893,0.1215179 4.4345893,0.1215179 4.4095286,0.1210792 4.3845336,0.1193408 4.3596786,0.1160672 4.3351555,0.110936 4.3111975,0.103557 4.2995561,0.0989205 4.2882586,0.093499 4.2773537,0.0872972 4.2669643,0.0802721 4.2573305,0.0722804 4.2482459,0.063632 4.2482459,0.063632 4.2368955,0.048641 4.2321472,0.0405501 4.2280668,0.0320392 4.2245811,0.0232069 4.2219344,0.0141089 4.2203377,0.0047993 4.219551,-0.0046316 4.219551,-0.0046316 4.2204174,-0.0153624 4.2225164,-0.0259225 4.2257607,-0.0361895 4.2298186,-0.0461621 4.2347324,-0.0557428 4.2404363,-0.0648748 4.2469259,-0.0734664 4.2542808,-0.0813292 4.2542808,-0.0813292 4.2632358,-0.0889477 4.2726905,-0.0959019 4.2827897,-0.1019262 4.2933101,-0.107176 4.3041386,-0.1117335 4.3152147,-0.1156531 4.3378544,-0.1219515 4.3609071,-0.1264796 4.3842148,-0.129477 4.4076507,-0.1311181 4.4311408,-0.1317022z" transform="matrix(1,0,0,-1,11.7455763,0.41275)" fill="rgb(104,104,104)" fill-rule="nonzero" shaper:cutDepth="0.0000762" stroke-linecap="round" stroke-linejoin="round" /><path d="M9.9853563,-0 a0.17272,0.17272 0 1,1 0.34544,0 a0.17272,0.17272 0 1,1 -0.34544,0z" transform="matrix(1,0,0,-1,11.7455763,0.41275)" fill="rgb(255,255,255)" stroke="rgb(0,0,0)" stroke-width="0.0010cm" stroke-linecap="round" stroke-linejoin="round" shaper:cutDepth="0.0015875" /><path d="M-2.3971437,-0 a0.17272,0.17272 0 1,1 0.34544,0 a0.17272,0.17272 0 1,1 -0.34544,0z" transform="matrix(1,0,0,-1,11.7455763,0.41275)" fill="rgb(255,255,255)" stroke="rgb(0,0,0)" stroke-width="0.0010cm" stroke-linecap="round" stroke-linejoin="round" shaper:cutDepth="0.0015875" /><path d="M-11.2832963,-0 a0.17272,0.17272 0 1,1 0.34544,0 a0.17272,0.17272 0 1,1 -0.34544,0z" transform="matrix(1,0,0,-1,11.7455763,0.41275)" fill="rgb(255,255,255)" stroke="rgb(0,0,0)" stroke-width="0.0010cm" stroke-linecap="round" stroke-linejoin="round" shaper:cutDepth="0.0015875" /></svg>