<?xml version="1.0" encoding="utf-8"?>
<!-- Generator: Fusion 360, Shaper Origin Export Add-In, Version 1.6.10  -->
<svg xmlns="http://www.w3.org/2000/svg" xmlns:xlink="http://www.w3.org/1999/xlink" xmlns:shaper="http://www.shapertools.com/namespaces/shaper" shaper:fusionaddin="version:1.6.10" width="4.318cm" height="3.175cm" version="1.1" x="0cm" y="0cm" viewBox="0 0 4.318 3.175" enable-background="new 0 0 4.318 3.175" xml:space="preserve"><path d="M-2.159,1.5875 L-2.159,-1.5875 2.159,-1.5875 2.159,1.5875 -2.159,1.5875z" transform="matrix(1,0,0,-1,2.159,1.5875)" fill="rgb(0,0,0)" shaper:cutDepth="0.0015875" stroke-linecap="round" stroke-linejoin="round" /><path d="M-0.3046483,-1.1710238 L-0.3015712,-1.1690495 -0.3015712,-1.1690495 -0.2923362,-1.1632515 -0.2873252,-1.1611423 -0.2818961,-1.1607361 -0.2818961,-1.1607361 -0.2767365,-1.1612106 -0.2717395,-1.1625746 -0.2671923,-1.1650522 -0.2632851,-1.1684519 -0.2602931,-1.1726796 -0.2581938,-1.1774155 -0.2569785,-1.1824492 -0.2565864,-1.1876161 -0.2565864,-1.1876161 -0.2570953,-1.1944172 -0.2592439,-1.2008798 -0.2612143,-1.2036707 -0.2636532,-1.2060694 -0.269247,-1.2099711 -0.431722,-1.304361 -0.431722,-1.3394377 -0.2889163,-1.3393819 -0.2889163,-1.3393819 -0.2763328,-1.3400933 -0.2701572,-1.3413928 -0.2643171,-1.343767 -0.2594764,-1.3477844 -0.2562973,-1.3532188 -0.2547031,-1.3593171 -0.2543695,-1.3656153 -0.2543695,-1.3656153 -0.2549199,-1.3717059 -0.2565647,-1.3775893 -0.2595438,-1.38293 -0.2637913,-1.3873226 -0.2637913,-1.3873226 -0.2667702,-1.3892999 -0.2700453,-1.390675 -0.277117,-1.3915663 -0.2913728,-1.391793 -0.6425131,-1.3917564 -0.6425131,-1.3917564 -0.6501074,-1.3918388 -0.6576275,-1.390857 -0.6648188,-1.388421 -0.6680648,-1.3864469 -0.6709244,-1.3839361 -0.6733068,-1.3809704 -0.6751691,-1.3776614 -0.6776021,-1.3704643 -0.6788409,-1.3629809 -0.6792768,-1.3553997 -0.6792769,-1.2711196 -0.6792769,-1.2711196 -0.6785634,-1.2596392 -0.6768136,-1.2482712 -0.6739866,-1.2371223 -0.6698534,-1.2263883 -0.6645013,-1.2162098 -0.6579636,-1.2067448 -0.6504276,-1.1980591 -0.6419718,-1.1902579 -0.6327489,-1.1833909 -0.6228653,-1.1774995 -0.6124516,-1.1726266 -0.601598,-1.1688051 -0.5904787,-1.1658745 -0.5791595,-1.1638076 -0.567732,-1.1625224 -0.5562385,-1.1620293 -0.5562385,-1.1620293 -0.536981,-1.1633589 -0.5274447,-1.1648575 -0.5180244,-1.1669702 -0.5087613,-1.1696874 -0.499713,-1.1730536 -0.4909549,-1.1771117 -0.482502,-1.1817768 -0.4743877,-1.1870061 -0.466732,-1.1928853 -0.4596018,-1.1993958 -0.4531501,-1.206571 -0.4473651,-1.2143042 -0.4424837,-1.222626 -0.4384968,-1.2314201 -0.4354696,-1.2405852 -0.4342204,-1.2456873 -0.3046483,-1.1710238z M-0.6268099,-1.3394377 L-0.4841889,-1.3394377 -0.4841889,-1.2730594 -0.4841889,-1.2730594 -0.4846374,-1.2625115 -0.4864672,-1.2521254 -0.4883743,-1.2471868 -0.4910076,-1.2425989 -0.498137,-1.2348178 -0.498137,-1.2348178 -0.5040999,-1.2297831 -0.5106006,-1.2254632 -0.5175595,-1.2219307 -0.5248594,-1.2191697 -0.5400308,-1.2155441 -0.5555919,-1.2144037 -0.5555919,-1.2144037 -0.5647153,-1.2148646 -0.5737804,-1.2159944 -0.5826777,-1.2180618 -0.5913391,-1.2209649 -0.5996575,-1.2247466 -0.6073673,-1.2296328 -0.6143839,-1.2354911 -0.6202517,-1.2424846 -0.6202517,-1.2424846 -0.6238507,-1.2485237 -0.6258928,-1.2552557 -0.6268099,-1.2692843 -0.6268099,-1.3394377z" transform="matrix(1,0,0,-1,2.159,1.5875)" fill="rgb(104,104,104)" fill-rule="nonzero" shaper:cutDepth="0.0000762" stroke-linecap="round" stroke-linejoin="round" /><path d="M-0.3253105,-1.027698 L-0.2705344,-1.0442561 -0.2705344,-1.0442561 -0.2634104,-1.0478928 -0.2604257,-1.0505563 -0.2580101,-1.0537829 -0.2562324,-1.0573883 -0.2551176,-1.0612269 -0.2543695,-1.0691963 -0.2543695,-1.0691963 -0.2558969,-1.078862 -0.2578462,-1.083358 -0.2605456,-1.0874482 -0.2639058,-1.0910204 -0.2680019,-1.0937026 -0.2725947,-1.0954152 -0.2774623,-1.0959839 -0.2774623,-1.0959839 -0.2830869,-1.0953849 -0.2885847,-1.0940127 -0.2994789,-1.0909075 -0.6610797,-0.982275 -0.6610797,-0.982275 -0.6651246,-0.9808692 -0.6689187,-0.9788895 -0.6723191,-0.9762877 -0.675155,-0.9730826 -0.6772987,-0.96938 -0.678575,-0.9652913 -0.6792255,-0.9610631 -0.6792769,-0.9567806 -0.6792769,-0.9567806 -0.6791149,-0.9517538 -0.6781717,-0.9468152 -0.6761503,-0.9422149 -0.6730406,-0.938265 -0.669053,-0.9352176 -0.6646093,-0.932842 -0.6551844,-0.9293721 -0.2951052,-0.819517 -0.2951052,-0.819517 -0.2870427,-0.8172835 -0.2787555,-0.816284 -0.2787555,-0.816284 -0.2737105,-0.8167961 -0.2688755,-0.8183145 -0.2645032,-0.820877 -0.2608312,-0.8243738 -0.2579107,-0.8285138 -0.2559076,-0.8331744 -0.2547461,-0.8381061 -0.2543695,-0.843164 -0.2543695,-0.843164 -0.2551981,-0.8518525 -0.2567022,-0.8559568 -0.2590122,-0.8596678 -0.2620095,-0.8628456 -0.2656054,-0.8653389 -0.2695022,-0.8673128 -0.2736452,-0.8687166 -0.3253105,-0.8846785 -0.3253105,-1.027698z M-0.3777774,-1.0110975 L-0.3777774,-0.901279 -0.5616326,-0.9561883 -0.3777774,-1.0110975z" transform="matrix(1,0,0,-1,2.159,1.5875)" fill="rgb(104,104,104)" fill-rule="nonzero" shaper:cutDepth="0.0000762" stroke-linecap="round" stroke-linejoin="round" /><path d="M-0.6792769,-0.6449355 L-0.6792769,-0.6449355 -0.6786736,-0.632384 -0.6768006,-0.6199597 -0.6735281,-0.6078278 -0.668847,-0.5961674 -0.6628801,-0.5851104 -0.6556119,-0.5748589 -0.6473298,-0.5654114 -0.6380793,-0.5569058 -0.6380793,-0.5569058 -0.6200268,-0.5434071 -0.6104536,-0.5374527 -0.6005449,-0.5320592 -0.590376,-0.5271882 -0.5799555,-0.5228895 -0.5584905,-0.5159946 -0.5364763,-0.5111465 -0.5141499,-0.5079919 -0.4916743,-0.5062742 -0.4691324,-0.5058245 -0.4691324,-0.5058245 -0.4359206,-0.5067422 -0.4193589,-0.5081013 -0.4029056,-0.5103946 -0.386629,-0.5137355 -0.3706223,-0.5181837 -0.3549325,-0.5236515 -0.3396281,-0.5301181 -0.3396281,-0.5301181 -0.3227651,-0.5386555 -0.3066939,-0.5486015 -0.2917572,-0.5601772 -0.2849217,-0.56671 -0.2785658,-0.5737023 -0.272819,-0.581211 -0.2677868,-0.5892075 -0.2635591,-0.5976635 -0.2600772,-0.6064503 -0.2574879,-0.6155407 -0.2557415,-0.6248297 -0.254653,-0.6342195 -0.2543695,-0.6436677 -0.2543695,-0.7160613 -0.2543695,-0.7160613 -0.2547756,-0.7234789 -0.2559894,-0.7308104 -0.2588576,-0.7376526 -0.2611103,-0.7406241 -0.2639484,-0.7430141 -0.2707702,-0.7459533 -0.2780815,-0.7472633 -0.2929316,-0.7474117 -0.646208,-0.7473751 -0.646208,-0.7473751 -0.6529829,-0.7473566 -0.6596924,-0.7464267 -0.666033,-0.744053 -0.671514,-0.7400832 -0.6755339,-0.7346411 -0.6779226,-0.7283021 -0.6790199,-0.7216197 -0.6792768,-0.7148493 -0.6792769,-0.6449355z M-0.6268099,-0.6950564 L-0.3068363,-0.6950564 -0.3068363,-0.6442889 -0.3068363,-0.6442889 -0.3076632,-0.6304767 -0.3090249,-0.6236851 -0.311198,-0.6171108 -0.314394,-0.6109696 -0.3185132,-0.6054042 -0.3234106,-0.6005076 -0.3287283,-0.5960711 -0.3287283,-0.5960711 -0.3379295,-0.589432 -0.3475133,-0.5833592 -0.357551,-0.5780683 -0.3678854,-0.5733846 -0.3784797,-0.5693229 -0.3892996,-0.5659048 -0.4114005,-0.5607854 -0.4114005,-0.5607854 -0.4239577,-0.5589237 -0.4366303,-0.5582456 -0.4620199,-0.558199 -0.4620199,-0.558199 -0.5037727,-0.5587135 -0.5141926,-0.5593596 -0.5245405,-0.5607586 -0.5447844,-0.5658658 -0.5447844,-0.5658658 -0.5552084,-0.5691384 -0.5654227,-0.5730098 -0.575404,-0.5774561 -0.5850849,-0.5825154 -0.5944138,-0.5882045 -0.6032551,-0.5946174 -0.6113919,-0.6019104 -0.6184966,-0.6102039 -0.6184966,-0.6102039 -0.6228026,-0.6178486 -0.6255185,-0.6261907 -0.6265902,-0.6348946 -0.6268099,-0.6436677 -0.6268099,-0.6950564z" transform="matrix(1,0,0,-1,2.159,1.5875)" fill="rgb(104,104,104)" fill-rule="nonzero" shaper:cutDepth="0.0000762" stroke-linecap="round" stroke-linejoin="round" /><path d="M-0.2835588,-0.3881436 L-0.2835588,-0.3881436 -0.2779682,-0.3882929 -0.2724465,-0.3891134 -0.2670918,-0.3907412 -0.2622138,-0.3934499 -0.2582719,-0.3974081 -0.2558008,-0.4024135 -0.2545975,-0.407868 -0.2543695,-0.4134533 -0.2543695,-0.4134533 -0.2548893,-0.4195167 -0.2564666,-0.4253928 -0.2593677,-0.4307412 -0.2632371,-0.4354377 -0.2632371,-0.4354377 -0.2677132,-0.4381888 -0.2729232,-0.439142 -0.2834956,-0.4395021 -0.6488867,-0.439502 -0.6488867,-0.439502 -0.6546999,-0.4393563 -0.6604499,-0.4385683 -0.6660518,-0.4369804 -0.6711367,-0.4341975 -0.675264,-0.4301061 -0.6779111,-0.4249423 -0.6791313,-0.4192637 -0.6792769,-0.4134533 -0.6792769,-0.4134533 -0.6790569,-0.4079452 -0.6778953,-0.402561 -0.6755105,-0.3975969 -0.6717343,-0.3935901 -0.6669781,-0.3908186 -0.6617251,-0.3891334 -0.6562839,-0.388294 -0.6507711,-0.3881436 -0.2835588,-0.3881436z" transform="matrix(1,0,0,-1,2.159,1.5875)" fill="rgb(104,104,104)" fill-rule="nonzero" shaper:cutDepth="0.0000762" stroke-linecap="round" stroke-linejoin="round" /><path d="M-0.6851886,-0.1973048 L-0.6851886,-0.1973048 -0.6845619,-0.18769 -0.6828926,-0.1781984 -0.6802918,-0.1689216 -0.6768009,-0.1599382 -0.6725738,-0.1512799 -0.6675595,-0.1430494 -0.6619061,-0.1352467 -0.6556298,-0.1279341 -0.6556298,-0.1279341 -0.646448,-0.1195172 -0.6365535,-0.1119414 -0.6260292,-0.1052833 -0.6150229,-0.0994428 -0.6036012,-0.0944678 -0.591905,-0.0901773 -0.5799792,-0.0865723 -0.5678836,-0.0835848 -0.5433951,-0.0790015 -0.5186398,-0.0761878 -0.4937694,-0.0746787 -0.4688553,-0.0742664 -0.4688553,-0.0742664 -0.4450673,-0.0746573 -0.4213217,-0.0760923 -0.397673,-0.0786823 -0.3742606,-0.082891 -0.3512769,-0.0890245 -0.340043,-0.0929454 -0.329052,-0.0975018 -0.3183635,-0.1027422 -0.3080796,-0.1087371 -0.2983485,-0.1155664 -0.2890087,-0.122946 -0.2890087,-0.122946 -0.2816586,-0.1302797 -0.2749934,-0.1382409 -0.2692459,-0.1468877 -0.2642851,-0.156009 -0.260184,-0.1655488 -0.2571471,-0.1754752 -0.2550995,-0.1856562 -0.2543695,-0.1960116 -0.2543695,-0.1960116 -0.2552431,-0.2075295 -0.257701,-0.2188221 -0.2613197,-0.2297913 -0.266088,-0.2403167 -0.2717796,-0.250372 -0.2783006,-0.2599095 -0.2857599,-0.2687331 -0.2939043,-0.2769288 -0.2939043,-0.2769288 -0.3032946,-0.2843185 -0.313354,-0.2907667 -0.3239646,-0.296263 -0.3349192,-0.3010376 -0.3461693,-0.3050707 -0.3576154,-0.3085038 -0.3809204,-0.3138023 -0.4045219,-0.3175871 -0.4282952,-0.3200706 -0.4521622,-0.3213534 -0.4760603,-0.3218211 -0.4760603,-0.3218211 -0.4982098,-0.3213096 -0.5203135,-0.3198461 -0.5423082,-0.3171661 -0.5640797,-0.3130799 -0.585497,-0.3074031 -0.6063044,-0.2998143 -0.6163742,-0.2951803 -0.6261311,-0.2899238 -0.6444529,-0.277483 -0.6444529,-0.277483 -0.6529431,-0.2696419 -0.6605962,-0.2609832 -0.6673365,-0.251595 -0.673171,-0.2416192 -0.6780243,-0.2311305 -0.6817798,-0.2202022 -0.684224,-0.2089061 -0.6851885,-0.1973917 -0.6851886,-0.1973048z M-0.4707951,-0.1267332 L-0.4707951,-0.1267332 -0.5034789,-0.1278094 -0.5197662,-0.1292459 -0.5359802,-0.1313787 -0.5520517,-0.1343818 -0.5678885,-0.1384524 -0.58336,-0.1437466 -0.598175,-0.1506574 -0.598175,-0.1506574 -0.6105591,-0.1593005 -0.6161647,-0.164367 -0.6212402,-0.1699698 -0.6256849,-0.1760803 -0.6293226,-0.1827082 -0.6318128,-0.189847 -0.6327185,-0.1973437 -0.6327185,-0.1973437 -0.6318491,-0.2042192 -0.6298313,-0.2108532 -0.6268975,-0.2171333 -0.6233053,-0.2230682 -0.6192013,-0.2286656 -0.6145917,-0.2338361 -0.6039944,-0.2427514 -0.6039944,-0.2427514 -0.5890451,-0.250676 -0.5731437,-0.2565066 -0.5567985,-0.260904 -0.5401868,-0.2641848 -0.5234286,-0.2665933 -0.5065726,-0.2681915 -0.4727349,-0.2693543 -0.4727349,-0.2693543 -0.4365284,-0.2681383 -0.418487,-0.2665104 -0.4005474,-0.2639904 -0.3827886,-0.2604184 -0.3653587,-0.2554916 -0.348532,-0.2487768 -0.3405928,-0.244431 -0.3329773,-0.2395184 -0.3329773,-0.2395184 -0.3233259,-0.2312633 -0.3150369,-0.2216478 -0.3117428,-0.2162171 -0.3092351,-0.2103825 -0.3075125,-0.2042655 -0.3068363,-0.1979514 -0.3068363,-0.1979514 -0.3076859,-0.1908917 -0.3098269,-0.1841075 -0.3129631,-0.1777218 -0.3167628,-0.1717076 -0.3212067,-0.1661528 -0.326203,-0.1610854 -0.3316717,-0.1565381 -0.3375959,-0.1525972 -0.3375959,-0.1525972 -0.3528568,-0.1447889 -0.3689789,-0.1389156 -0.3855472,-0.1345081 -0.4024063,-0.131331 -0.4194136,-0.1291329 -0.4365114,-0.1277356 -0.4707951,-0.1267332z" transform="matrix(1,0,0,-1,2.159,1.5875)" fill="rgb(104,104,104)" fill-rule="nonzero" shaper:cutDepth="0.0000762" stroke-linecap="round" stroke-linejoin="round" /><path d="M-0.6792769,0.31009 L-0.6792768,0.3100142 -0.6792768,0.3100142 -0.678478,0.2982111 -0.6763191,0.2865785 -0.6728618,0.275265 -0.6681367,0.2644199 -0.6622421,0.2541606 -0.6554497,0.2444742 -0.647776,0.2354694 -0.6394649,0.2270483 -0.6394649,0.2270483 -0.621318,0.2129954 -0.6116386,0.2068196 -0.6016059,0.2012242 -0.5808002,0.1915298 -0.5592475,0.183618 -0.537165,0.1773496 -0.5146608,0.1728014 -0.4918833,0.1699537 -0.4689477,0.1689469 -0.4689477,0.1689469 -0.4472405,0.1697277 -0.4256482,0.1720791 -0.4042569,0.1758542 -0.3831854,0.1811229 -0.3625474,0.1878976 -0.3425129,0.1962855 -0.3232661,0.2063545 -0.3049889,0.2180883 -0.3049889,0.2180883 -0.2943668,0.226517 -0.2845779,0.2358994 -0.2759505,0.2463588 -0.2684557,0.2576597 -0.262422,0.2698014 -0.258041,0.2826317 -0.2553443,0.2959202 -0.2543695,0.3094434 -0.2543695,0.3094434 -0.2553512,0.3215188 -0.2578051,0.3333843 -0.2616467,0.3448743 -0.2667839,0.3558479 -0.2730647,0.3662091 -0.2803912,0.3758592 -0.2887922,0.3845894 -0.298061,0.3923927 -0.298061,0.3923927 -0.3155517,0.4044649 -0.3246752,0.4099078 -0.3297905,0.4113438 -0.3351019,0.4116059 -0.3351019,0.4116059 -0.3451353,0.4100129 -0.3498195,0.4080381 -0.3539718,0.4051 -0.3572025,0.4011755 -0.3595164,0.3966491 -0.360787,0.391723 -0.3613353,0.3866657 -0.3613353,0.3866657 -0.3607751,0.3804238 -0.3590023,0.3744334 -0.3558288,0.3690235 -0.3510821,0.3649585 -0.3510821,0.3649585 -0.3353363,0.3548984 -0.3278913,0.3492439 -0.320966,0.3429728 -0.31498,0.3357953 -0.3104088,0.3276587 -0.307578,0.3187486 -0.3068363,0.3094434 -0.3068363,0.3094434 -0.3090341,0.2972951 -0.3111755,0.2914888 -0.3139249,0.285951 -0.3209537,0.2757938 -0.3295501,0.2669149 -0.3391205,0.2590968 -0.3494365,0.2522894 -0.3602265,0.2462563 -0.3713628,0.2408975 -0.3828407,0.2363078 -0.3945463,0.2323386 -0.406447,0.2289981 -0.4185231,0.226363 -0.4429837,0.2228172 -0.4676545,0.2213213 -0.4676545,0.2213213 -0.4922639,0.2228182 -0.5166585,0.2263913 -0.5286806,0.229128 -0.5405228,0.2325623 -0.5521919,0.2365469 -0.5635717,0.2412901 -0.5746201,0.2467665 -0.5852665,0.2529842 -0.5954344,0.2599579 -0.604917,0.2678391 -0.6132389,0.2769292 -0.6200416,0.2872004 -0.6247447,0.298601 -0.6260905,0.3046058 -0.62681,0.3107366 -0.62681,0.3107366 -0.626128,0.3188991 -0.6237161,0.3267319 -0.6198961,0.333983 -0.6149204,0.34049 -0.6091349,0.3463029 -0.6028259,0.3515328 -0.5891226,0.3605247 -0.5891226,0.3605247 -0.5824681,0.3647818 -0.576951,0.3704079 -0.5748916,0.3738138 -0.5735105,0.3775138 -0.5728653,0.3853725 -0.5728653,0.3853725 -0.5733768,0.3906543 -0.5747549,0.3957777 -0.5772798,0.4004434 -0.5807175,0.4044834 -0.5849464,0.4076876 -0.589756,0.409927 -0.5949199,0.411146 -0.6002071,0.4116059 -0.6002071,0.4116059 -0.6076452,0.4108808 -0.6145174,0.4079408 -0.62681,0.3994129 -0.62681,0.3994129 -0.6374171,0.3910611 -0.6474092,0.381992 -0.6566283,0.3721244 -0.6646786,0.3612969 -0.671201,0.3494767 -0.6758031,0.3367943 -0.6784745,0.3235629 -0.6792769,0.31009z" transform="matrix(1,0,0,-1,2.159,1.5875)" fill="rgb(104,104,104)" fill-rule="nonzero" shaper:cutDepth="0.0000762" stroke-linecap="round" stroke-linejoin="round" /><path d="M-0.3253105,0.5448288 L-0.2705344,0.5282707 -0.2705344,0.5282707 -0.2634104,0.524634 -0.2604257,0.5219705 -0.2580101,0.5187438 -0.2562324,0.5151384 -0.2551176,0.5112998 -0.2543695,0.5033305 -0.2543695,0.5033305 -0.2558969,0.4936647 -0.2578462,0.4891687 -0.2605456,0.4850785 -0.2639058,0.4815063 -0.2680019,0.4788241 -0.2725947,0.4771115 -0.2774623,0.4765429 -0.2774623,0.4765429 -0.2830869,0.4771419 -0.2885847,0.4785141 -0.2994789,0.4816193 -0.6610797,0.5902518 -0.6610797,0.5902518 -0.6651246,0.5916576 -0.6689187,0.5936373 -0.6723191,0.596239 -0.675155,0.5994442 -0.6772987,0.6031467 -0.678575,0.6072355 -0.6792255,0.6114636 -0.6792769,0.6157462 -0.6792769,0.6157462 -0.6791149,0.6207729 -0.6781717,0.6257116 -0.6761503,0.6303118 -0.6730406,0.6342617 -0.669053,0.6373092 -0.6646093,0.6396848 -0.6551844,0.6431546 -0.2951052,0.7530098 -0.2951052,0.7530098 -0.2870427,0.7552433 -0.2787555,0.7562427 -0.2787555,0.7562427 -0.2737105,0.7557306 -0.2688755,0.7542123 -0.2645032,0.7516498 -0.2608312,0.748153 -0.2579107,0.744013 -0.2559076,0.7393523 -0.2547461,0.7344207 -0.2543695,0.7293627 -0.2543695,0.7293627 -0.2551981,0.7206743 -0.2567022,0.71657 -0.2590122,0.712859 -0.2620095,0.7096811 -0.2656054,0.7071878 -0.2695022,0.705214 -0.2736452,0.7038102 -0.3253105,0.6878482 -0.3253105,0.5448288z M-0.3777774,0.5614293 L-0.3777774,0.6712477 -0.5616326,0.6163385 -0.3777774,0.5614293z" transform="matrix(1,0,0,-1,2.159,1.5875)" fill="rgb(104,104,104)" fill-rule="nonzero" shaper:cutDepth="0.0000762" stroke-linecap="round" stroke-linejoin="round" /><path d="M-0.3009246,1.041762 L-0.3009246,0.8769719 -0.6507452,0.8769719 -0.6507452,0.8769719 -0.6562601,0.8767305 -0.6617133,0.8758813 -0.6669332,0.874093 -0.6716353,0.8712032 -0.6753406,0.8671242 -0.6778322,0.8622046 -0.6789644,0.8568024 -0.6792769,0.8512927 -0.6792769,0.8512927 -0.6789616,0.845819 -0.6777667,0.8404698 -0.6752971,0.835578 -0.671592,0.8315513 -0.6668731,0.8287545 -0.6616965,0.8269574 -0.6508265,0.8256135 -0.2858114,0.8256134 -0.2858114,0.8256134 -0.2793371,0.8255462 -0.2729211,0.8263765 -0.2668157,0.8285192 -0.2616038,0.8323361 -0.2580023,0.8377047 -0.2558565,0.8438123 -0.254754,0.8501873 -0.2543695,0.8566502 -0.2543695,1.0385072 -0.2543695,1.0385072 -0.2543962,1.0458826 -0.2550161,1.0532161 -0.2550161,1.0532161 -0.2577548,1.0604253 -0.2629623,1.0661171 -0.2661871,1.0682927 -0.2697466,1.0698241 -0.2773699,1.0711361 -0.2773699,1.0711361 -0.2841526,1.0701179 -0.2904212,1.0673668 -0.2957404,1.0630162 -0.2991695,1.0570956 -0.2991695,1.0570956 -0.300247,1.0533741 -0.3006904,1.0495156 -0.3009246,1.041762z" transform="matrix(1,0,0,-1,2.159,1.5875)" fill="rgb(104,104,104)" fill-rule="nonzero" shaper:cutDepth="0.0000762" stroke-linecap="round" stroke-linejoin="round" /><path d="M-0.3009246,1.3491733 L-0.3009246,1.1843831 -0.6507452,1.1843831 -0.6507452,1.1843831 -0.6562601,1.1841417 -0.6617133,1.1832925 -0.6669332,1.1815042 -0.6716353,1.1786145 -0.6753406,1.1745355 -0.6778322,1.1696159 -0.6789644,1.1642137 -0.6792769,1.1587039 -0.6792769,1.1587039 -0.6789616,1.1532303 -0.6777667,1.147881 -0.6752971,1.1429892 -0.671592,1.1389626 -0.6668731,1.1361657 -0.6616965,1.1343687 -0.6508265,1.1330247 -0.2858114,1.1330247 -0.2858114,1.1330247 -0.2793371,1.1329575 -0.2729211,1.1337878 -0.2668157,1.1359305 -0.2616038,1.1397473 -0.2580023,1.145116 -0.2558565,1.1512235 -0.254754,1.1575985 -0.2543695,1.1640615 -0.2543695,1.3459185 -0.2543695,1.3459185 -0.2543962,1.3532938 -0.2550161,1.3606273 -0.2550161,1.3606273 -0.2577548,1.3678366 -0.2629623,1.3735284 -0.2661871,1.375704 -0.2697466,1.3772354 -0.2773699,1.3785473 -0.2773699,1.3785473 -0.2841526,1.3775291 -0.2904212,1.374778 -0.2957404,1.3704275 -0.2991695,1.3645069 -0.2991695,1.3645069 -0.300247,1.3607853 -0.3006904,1.3569268 -0.3009246,1.3491733z" transform="matrix(1,0,0,-1,2.159,1.5875)" fill="rgb(104,104,104)" fill-rule="nonzero" shaper:cutDepth="0.0000762" stroke-linecap="round" stroke-linejoin="round" /><path d="M0.1247212,-1.2316156 L0.1247212,-1.2316156 0.1252783,-1.223069 0.1267621,-1.2146321 0.1290739,-1.206386 0.132177,-1.1984008 0.1359344,-1.1907045 0.1403916,-1.1833886 0.1454168,-1.1764528 0.1509957,-1.1699527 0.1509957,-1.1699527 0.1591573,-1.162471 0.1679524,-1.155737 0.1773074,-1.1498187 0.1870907,-1.1446271 0.1972434,-1.1402049 0.20764,-1.1363911 0.2289923,-1.1305311 0.25076,-1.1264571 0.2727646,-1.123956 0.2948717,-1.1226146 0.3170175,-1.1222481 0.3170175,-1.1222481 0.3381624,-1.1225956 0.3592696,-1.1238711 0.3802906,-1.1261733 0.4011017,-1.1299144 0.4215316,-1.1353664 0.4315174,-1.1388516 0.4412871,-1.1429017 0.450788,-1.1475599 0.4599293,-1.1528887 0.4685791,-1.1589592 0.4768812,-1.1655189 0.4768812,-1.1655189 0.4834145,-1.1720377 0.4893392,-1.1791143 0.4944481,-1.1868003 0.4988577,-1.1949082 0.5025031,-1.203388 0.5052025,-1.2122115 0.5070226,-1.2212613 0.5076716,-1.2304661 0.5076716,-1.2304661 0.506895,-1.2407042 0.5047103,-1.2507421 0.5014936,-1.2604925 0.4972551,-1.2698484 0.4921959,-1.2787864 0.4863995,-1.2872642 0.479769,-1.2951074 0.4725295,-1.3023924 0.4725295,-1.3023924 0.4641826,-1.3089611 0.4552409,-1.3146928 0.4458092,-1.3195784 0.4360718,-1.3238225 0.4158974,-1.3304591 0.3951819,-1.3351689 0.3742028,-1.3385331 0.3530709,-1.3407408 0.3318558,-1.341881 0.3106131,-1.3422968 0.3106131,-1.3422968 0.2909246,-1.341842 0.2712768,-1.3405411 0.2517261,-1.3381589 0.2323736,-1.3345268 0.213336,-1.3294807 0.1948406,-1.3227351 0.1858896,-1.318616 0.1772168,-1.3139436 0.1609307,-1.3028851 0.1609307,-1.3028851 0.1533839,-1.2959152 0.1465812,-1.2882186 0.1405898,-1.2798735 0.1354035,-1.2710061 0.1310895,-1.2616828 0.1277513,-1.2519688 0.1255786,-1.2419278 0.1247213,-1.2316928 0.1247212,-1.2316156z M0.3152932,-1.1688853 L0.3152932,-1.1688853 0.286241,-1.1698419 0.2717634,-1.1711188 0.2573509,-1.1730146 0.2430651,-1.175684 0.228988,-1.1793023 0.2152355,-1.1840083 0.2020667,-1.1901512 0.2020667,-1.1901512 0.1910586,-1.1978339 0.1860758,-1.2023375 0.1815643,-1.2073178 0.1776134,-1.2127494 0.1743799,-1.2186408 0.1721664,-1.2249864 0.1713613,-1.2316501 0.1713613,-1.2316501 0.1721342,-1.2377617 0.1739277,-1.2436586 0.1765356,-1.2492409 0.1797286,-1.2545164 0.187474,-1.2640878 0.1968939,-1.2720126 0.1968939,-1.2720126 0.2101821,-1.2790566 0.2243167,-1.2842394 0.2388458,-1.2881482 0.2536118,-1.2910645 0.2685079,-1.2932053 0.2834911,-1.294626 0.313569,-1.2956596 0.313569,-1.2956596 0.3457525,-1.2945786 0.3617893,-1.2931316 0.3777357,-1.2908916 0.3935213,-1.2877165 0.4090145,-1.2833372 0.4239716,-1.2773684 0.4377979,-1.2691388 0.4377979,-1.2691388 0.4463769,-1.2618009 0.453745,-1.2532538 0.4566731,-1.2484265 0.4589021,-1.2432402 0.4604334,-1.2378028 0.4610344,-1.2321903 0.4610344,-1.2321903 0.4602792,-1.225915 0.4583761,-1.2198846 0.4555883,-1.2142084 0.4522109,-1.2088625 0.4482607,-1.2039249 0.4438196,-1.1994206 0.4389585,-1.1953785 0.4336925,-1.1918754 0.4336925,-1.1918754 0.4201273,-1.1849348 0.4057965,-1.1797141 0.3910691,-1.1757962 0.3760833,-1.1729722 0.3609656,-1.1710183 0.3457676,-1.1697762 0.3152932,-1.1688853z" transform="matrix(1,0,0,-1,2.159,1.5875)" fill="rgb(104,104,104)" fill-rule="nonzero" shaper:cutDepth="0.0000762" stroke-linecap="round" stroke-linejoin="round" /><path d="M0.4781128,-1.0171502 L0.4781128,-1.0171502 0.4889348,-1.017826 0.4942394,-1.0189401 0.4992526,-1.0210196 0.5033683,-1.0245179 0.5060498,-1.0292243 0.5073767,-1.0344791 0.5076716,-1.0398941 0.5076716,-1.0398941 0.5074858,-1.0450035 0.5064428,-1.050007 0.5042147,-1.0546042 0.5008683,-1.058461 0.4965391,-1.0611703 0.4916814,-1.0627733 0.4866338,-1.0635605 0.4815228,-1.0637379 0.164215,-1.0637053 0.164215,-1.0637053 0.1569169,-1.0637793 0.1496548,-1.0630885 0.1426457,-1.0610632 0.1394424,-1.0592954 0.1366692,-1.0569176 0.1344948,-1.053979 0.1328941,-1.0506923 0.1309354,-1.0436592 0.1300811,-1.0364174 0.1299762,-1.0291181 0.1299761,-0.9556516 0.1299761,-0.9556516 0.1305187,-0.9454694 0.1320729,-0.9353933 0.1345721,-0.9255087 0.1382247,-0.9159896 0.1429189,-0.9069399 0.1486718,-0.8985231 0.1553947,-0.8908585 0.1629028,-0.8839592 0.1711102,-0.8779141 0.179912,-0.8727608 0.189199,-0.8685647 0.1988439,-0.8652413 0.2087131,-0.8626996 0.2187701,-0.8609937 0.2289092,-0.8599411 0.2390973,-0.8595035 0.2390973,-0.8595035 0.2526094,-0.8602168 0.2660064,-0.8621037 0.2791238,-0.8654243 0.2917973,-0.8701592 0.3038956,-0.8762198 0.3151856,-0.883671 0.3254533,-0.8924843 0.3344243,-0.90261 0.3344243,-0.90261 0.33858,-0.9086494 0.3421253,-0.9150664 0.3449783,-0.9218184 0.3471115,-0.9288328 0.3494452,-0.9432969 0.3500249,-0.9579424 0.3500249,-1.0171998 0.4781128,-1.0171502z M0.1766135,-1.0171998 L0.3033876,-1.0171998 0.3033876,-0.9545021 0.3033876,-0.9545021 0.3030399,-0.9489146 0.3020155,-0.9434103 0.3003203,-0.9380771 0.2978918,-0.9330323 0.2948589,-0.9283281 0.2912528,-0.9240455 0.2871036,-0.9202901 0.2825461,-0.917029 0.2725902,-0.9119126 0.2618958,-0.9085715 0.2508519,-0.9067491 0.239672,-0.9060585 0.239672,-0.9060585 0.2281859,-0.9066792 0.2168388,-0.9085267 0.2058995,-0.912079 0.2007116,-0.9145753 0.1958155,-0.9176087 0.1913296,-0.921207 0.187337,-0.9253424 0.1838946,-0.929948 0.18116,-0.9350025 0.1790556,-0.9403531 0.1776565,-0.9459292 0.1766135,-0.9573726 0.1766135,-1.0171998z" transform="matrix(1,0,0,-1,2.159,1.5875)" fill="rgb(104,104,104)" fill-rule="nonzero" shaper:cutDepth="0.0000762" stroke-linecap="round" stroke-linejoin="round" /><path d="M0.2718582,-0.7544551 L0.2718582,-0.6550553 0.2718582,-0.6550553 0.2727128,-0.6446028 0.2742303,-0.6395694 0.2767419,-0.6349627 0.2804055,-0.6312023 0.2850726,-0.6288053 0.2901758,-0.6275753 0.2954232,-0.6273029 0.2954232,-0.6273029 0.3008397,-0.6275276 0.3060786,-0.6289068 0.310704,-0.6317208 0.3142088,-0.6358439 0.3164747,-0.6407699 0.3177923,-0.6460281 0.3184955,-0.6568387 0.3184955,-0.7544551 0.4610344,-0.7544551 0.4610344,-0.6148225 0.4610344,-0.6148225 0.4617159,-0.6040221 0.4630909,-0.5987764 0.4655006,-0.5939261 0.4692095,-0.5899878 0.4739198,-0.5873186 0.4791839,-0.5860449 0.4845993,-0.5858385 0.4845993,-0.5858385 0.4902008,-0.5860874 0.4955716,-0.5876804 0.5001987,-0.5908373 0.5036078,-0.5952742 0.5057577,-0.6004564 0.5070045,-0.6059235 0.5076716,-0.6171111 0.5076716,-0.7719766 0.5076716,-0.7719766 0.5075429,-0.7783515 0.5067653,-0.7846782 0.5048543,-0.7907578 0.503277,-0.7935409 0.5011824,-0.7959473 0.4956888,-0.7991596 0.4895057,-0.8006824 0.4767657,-0.8009932 0.1602739,-0.8009607 0.1602739,-0.8009607 0.1539726,-0.8009621 0.1476995,-0.8003472 0.1416565,-0.7985842 0.1363279,-0.7952381 0.1343068,-0.792818 0.1327889,-0.790045 0.1309198,-0.7840279 0.1301037,-0.7777831 0.1299762,-0.7714813 0.1299761,-0.6153972 0.1299761,-0.6153972 0.1306522,-0.6049596 0.1320329,-0.5998999 0.1344631,-0.5952715 0.1380306,-0.5914351 0.1426329,-0.5889541 0.1477314,-0.5877673 0.1529663,-0.5875627 0.1529663,-0.5875627 0.1584502,-0.5877769 0.1637744,-0.5890932 0.1685145,-0.5918461 0.1721663,-0.5959289 0.1745762,-0.6008613 0.1759831,-0.6061639 0.1766135,-0.6171111 0.1766135,-0.7544551 0.2718582,-0.7544551z" transform="matrix(1,0,0,-1,2.159,1.5875)" fill="rgb(104,104,104)" fill-rule="nonzero" shaper:cutDepth="0.0000762" stroke-linecap="round" stroke-linejoin="round" /><path d="M0.1601918,-0.3595496 L0.3891639,-0.3595823 0.1444046,-0.4834709 0.1444046,-0.4834709 0.1382667,-0.4871909 0.1333414,-0.4923906 0.1315922,-0.4955521 0.130471,-0.4989582 0.1299761,-0.5061119 0.1299761,-0.5061119 0.1302745,-0.5105197 0.1314538,-0.5147744 0.1335121,-0.5186821 0.1363805,-0.5220408 0.1363805,-0.5220408 0.1385482,-0.5242081 0.1410803,-0.5258941 0.1470109,-0.5272912 0.1592065,-0.5277062 0.4772314,-0.5277388 0.4772314,-0.5277388 0.4882286,-0.5270386 0.4936236,-0.5259353 0.4987431,-0.5238852 0.5030498,-0.5204755 0.5059061,-0.5157743 0.5073668,-0.5104644 0.5076716,-0.5049624 0.5076716,-0.5049624 0.5073141,-0.4998393 0.5060888,-0.4948539 0.5036549,-0.4903359 0.5001192,-0.4866186 0.4957191,-0.4839772 0.4908456,-0.4823535 0.4806581,-0.4811511 0.2479126,-0.4812007 0.4943874,-0.3578797 0.4943874,-0.3578797 0.4999788,-0.3539791 0.5044656,-0.3488521 0.5069755,-0.3425199 0.5076716,-0.3357384 0.5076716,-0.3357384 0.5073825,-0.3307616 0.5061325,-0.3259387 0.5037337,-0.3215737 0.5002173,-0.3180492 0.4958736,-0.3156097 0.4911266,-0.3140795 0.4812329,-0.3129946 0.1581294,-0.3130442 0.1581294,-0.3130442 0.1475402,-0.3137616 0.1423839,-0.3150514 0.137627,-0.3174039 0.1338337,-0.3211064 0.1314162,-0.3258289 0.1302499,-0.331008 0.1299761,-0.3363132 0.1299761,-0.3363132 0.1301881,-0.341874 0.1315283,-0.3472708 0.1342268,-0.3521199 0.1384968,-0.3556751 0.1436395,-0.3577785 0.1490922,-0.3589196 0.1601918,-0.3595496z" transform="matrix(1,0,0,-1,2.159,1.5875)" fill="rgb(104,104,104)" fill-rule="nonzero" shaper:cutDepth="0.0000762" stroke-linecap="round" stroke-linejoin="round" /><path d="M0.2771132,-0.0806298 L0.2771132,-0.2083894 0.1562528,-0.2083894 0.1562528,-0.2083894 0.1462159,-0.2093669 0.1414021,-0.2109074 0.1369969,-0.213375 0.133477,-0.2169877 0.1311676,-0.2214757 0.1301022,-0.2264111 0.1299761,-0.2314616 0.1299761,-0.2314616 0.1301705,-0.2366284 0.131348,-0.2416569 0.133677,-0.2462614 0.1374272,-0.2498087 0.1420746,-0.2520526 0.1470998,-0.2532826 0.1574001,-0.2540412 0.4817772,-0.2540413 0.4817772,-0.2540413 0.4917535,-0.2533131 0.4965788,-0.2519342 0.5009563,-0.2495115 0.5044217,-0.2458982 0.5066036,-0.2413924 0.5075449,-0.2364717 0.5076716,-0.2314616 0.5076716,-0.2314616 0.5075529,-0.2263895 0.506638,-0.2214011 0.5044999,-0.2168058 0.5010726,-0.2130734 0.4967017,-0.2105083 0.4918359,-0.2090671 0.4817255,-0.2083894 0.3184955,-0.2083894 0.3184955,-0.0806298 0.4794855,-0.0806298 0.4794855,-0.0806298 0.4900214,-0.0799847 0.4951906,-0.0788521 0.5000249,-0.0767437 0.5039111,-0.0731789 0.5063041,-0.0684786 0.5074815,-0.0633321 0.5076716,-0.0580501 0.5076716,-0.0580501 0.5074124,-0.0527852 0.5064076,-0.0476105 0.5040965,-0.0428788 0.5003912,-0.0391561 0.4956394,-0.0368686 0.4905182,-0.0356253 0.4800013,-0.0349779 0.1562528,-0.0349779 0.1562528,-0.0349779 0.1462132,-0.0357038 0.1413379,-0.0370004 0.1368856,-0.0393476 0.1334191,-0.0429909 0.1311895,-0.0475051 0.1301727,-0.0524396 0.1299761,-0.0574754 0.1299761,-0.0574754 0.1303053,-0.0622455 0.1313861,-0.0668982 0.1332805,-0.0712872 0.1361292,-0.0751222 0.1398964,-0.0780604 0.1442793,-0.0799577 0.1490079,-0.0806612 0.1537874,-0.0806298 0.1550122,-0.0806298 0.2771132,-0.0806298z" transform="matrix(1,0,0,-1,2.159,1.5875)" fill="rgb(104,104,104)" fill-rule="nonzero" shaper:cutDepth="0.0000762" stroke-linecap="round" stroke-linejoin="round" /><path d="M0.1247212,0.1294017 L0.1247212,0.1294017 0.1252783,0.1379483 0.1267621,0.1463852 0.1290739,0.1546313 0.132177,0.1626165 0.1359344,0.1703128 0.1403916,0.1776287 0.1454168,0.1845645 0.1509957,0.1910646 0.1509957,0.1910646 0.1591573,0.1985463 0.1679524,0.2052803 0.1773074,0.2111986 0.1870907,0.2163902 0.1972434,0.2208124 0.20764,0.2246262 0.2289923,0.2304862 0.25076,0.2345602 0.2727646,0.2370613 0.2948717,0.2384028 0.3170175,0.2387692 0.3170175,0.2387692 0.3381624,0.2384217 0.3592696,0.2371462 0.3802906,0.234844 0.4011017,0.2311029 0.4215316,0.2256509 0.4315174,0.2221657 0.4412871,0.2181156 0.450788,0.2134574 0.4599293,0.2081286 0.4685791,0.2020581 0.4768812,0.1954984 0.4768812,0.1954984 0.4834145,0.1889796 0.4893392,0.181903 0.4944481,0.174217 0.4988577,0.1661092 0.5025031,0.1576293 0.5052025,0.1488059 0.5070226,0.139756 0.5076716,0.1305513 0.5076716,0.1305513 0.506895,0.1203131 0.5047103,0.1102753 0.5014936,0.1005248 0.4972551,0.0911689 0.4921959,0.0822309 0.4863995,0.0737531 0.479769,0.0659099 0.4725295,0.0586249 0.4725295,0.0586249 0.4641826,0.0520562 0.4552409,0.0463245 0.4458092,0.0414389 0.4360718,0.0371948 0.4158974,0.0305582 0.3951819,0.0258484 0.3742028,0.0224842 0.3530709,0.0202766 0.3318558,0.0191364 0.3106131,0.0187206 0.3106131,0.0187206 0.2909246,0.0191753 0.2712768,0.0204762 0.2517261,0.0228584 0.2323736,0.0264905 0.213336,0.0315366 0.1948406,0.0382822 0.1858896,0.0424014 0.1772168,0.0470737 0.1609307,0.0581323 0.1609307,0.0581323 0.1533839,0.0651021 0.1465812,0.0727987 0.1405898,0.0811438 0.1354035,0.0900112 0.1310895,0.0993345 0.1277513,0.1090485 0.1255786,0.1190895 0.1247213,0.1293245 0.1247212,0.1294017z M0.3152932,0.192132 L0.3152932,0.192132 0.286241,0.1911754 0.2717634,0.1898985 0.2573509,0.1880028 0.2430651,0.1853334 0.228988,0.181715 0.2152355,0.177009 0.2020667,0.1708661 0.2020667,0.1708661 0.1910586,0.1631834 0.1860758,0.1586798 0.1815643,0.1536995 0.1776134,0.1482679 0.1743799,0.1423765 0.1721664,0.1360309 0.1713613,0.1293672 0.1713613,0.1293672 0.1721342,0.1232556 0.1739277,0.1173588 0.1765356,0.1117764 0.1797286,0.1065009 0.187474,0.0969295 0.1968939,0.0890048 0.1968939,0.0890048 0.2101821,0.0819607 0.2243167,0.076778 0.2388458,0.0728691 0.2536118,0.0699529 0.2685079,0.067812 0.2834911,0.0663914 0.313569,0.0653577 0.313569,0.0653577 0.3457525,0.0664387 0.3617893,0.0678857 0.3777357,0.0701257 0.3935213,0.0733008 0.4090145,0.0776801 0.4239716,0.0836489 0.4377979,0.0918785 0.4377979,0.0918785 0.4463769,0.0992164 0.453745,0.1077635 0.4566731,0.1125908 0.4589021,0.1177772 0.4604334,0.1232145 0.4610344,0.128827 0.4610344,0.128827 0.4602792,0.1351023 0.4583761,0.1411327 0.4555883,0.1468089 0.4522109,0.1521549 0.4482607,0.1570924 0.4438196,0.1615967 0.4389585,0.1656388 0.4336925,0.1691419 0.4336925,0.1691419 0.4201273,0.1760825 0.4057965,0.1813032 0.3910691,0.1852211 0.3760833,0.1880451 0.3609656,0.189999 0.3457676,0.1912411 0.3152932,0.192132z" transform="matrix(1,0,0,-1,2.159,1.5875)" fill="rgb(104,104,104)" fill-rule="nonzero" shaper:cutDepth="0.0000762" stroke-linecap="round" stroke-linejoin="round" /><path d="M0.4629793,0.4935187 L0.4657145,0.4952737 0.4657145,0.4952737 0.4739233,0.5004275 0.4783776,0.5023023 0.4832035,0.5026634 0.4832035,0.5026634 0.4877898,0.5022416 0.4922316,0.5010291 0.4962735,0.4988268 0.4997466,0.4958049 0.5024061,0.4920469 0.5042722,0.4878373 0.5053524,0.4833628 0.505701,0.47877 0.505701,0.47877 0.5052486,0.4727246 0.5033387,0.46698 0.4994194,0.4623671 0.4944471,0.4588989 0.3500249,0.3749968 0.3500249,0.3438175 0.4769633,0.3438671 0.4769633,0.3438671 0.4881486,0.3432347 0.4936381,0.3420796 0.4988292,0.3399692 0.5031321,0.3363982 0.505958,0.3315676 0.507375,0.3261469 0.5076716,0.3205485 0.5076716,0.3205485 0.5071823,0.3151346 0.5057202,0.309905 0.5030722,0.3051577 0.4992966,0.3012532 0.4992966,0.3012532 0.4937375,0.2982733 0.4874515,0.297481 0.4747797,0.2972794 0.162655,0.297312 0.162655,0.297312 0.1559046,0.2972387 0.14922,0.2981114 0.1428278,0.3002768 0.1374005,0.3042634 0.1336274,0.3098409 0.1314648,0.3162383 0.1303636,0.3228902 0.1299762,0.3296291 0.1299761,0.4045447 0.1299761,0.4045447 0.1306103,0.4147495 0.1321657,0.4248544 0.1346785,0.4347645 0.1383525,0.4443058 0.1431099,0.4533534 0.1489212,0.4617668 0.1556199,0.4694874 0.1631362,0.4764218 0.1713343,0.4825258 0.1801197,0.4877626 0.1893763,0.4920941 0.199024,0.4954909 0.2089078,0.4980959 0.2189693,0.4999332 0.2291271,0.5010756 0.2393436,0.5015139 0.2393436,0.5015139 0.2564613,0.500332 0.2733116,0.4971219 0.2815455,0.4947067 0.2895885,0.4917145 0.2973735,0.4881073 0.3048872,0.4839605 0.3120998,0.4793123 0.3189049,0.4740863 0.3252429,0.4682992 0.3309777,0.4619213 0.3361199,0.4550472 0.340459,0.4476501 0.3440028,0.4398331 0.3466937,0.4316864 0.3478041,0.4271512 0.4629793,0.4935187z M0.1766135,0.3438175 L0.3033876,0.3438175 0.3033876,0.4028204 0.3033876,0.4028204 0.302989,0.4121963 0.3013625,0.4214284 0.2996673,0.4258183 0.2973266,0.4298964 0.2909893,0.436813 0.2909893,0.436813 0.2856889,0.4412883 0.2799106,0.4451282 0.2737249,0.4482682 0.267236,0.4507224 0.2537504,0.4539451 0.2399183,0.4549588 0.2399183,0.4549588 0.2237507,0.4535448 0.215842,0.4517072 0.2081431,0.4491267 0.2007489,0.4457651 0.1938958,0.4414218 0.1876588,0.4362145 0.182443,0.429998 0.182443,0.429998 0.1792438,0.42463 0.1774287,0.4186459 0.1766135,0.4061761 0.1766135,0.3438175z" transform="matrix(1,0,0,-1,2.159,1.5875)" fill="rgb(104,104,104)" fill-rule="nonzero" shaper:cutDepth="0.0000762" stroke-linecap="round" stroke-linejoin="round" /><path d="M0.1601918,0.7282132 L0.3891639,0.7281806 0.1444046,0.604292 0.1444046,0.604292 0.1382667,0.600572 0.1333414,0.5953723 0.1315922,0.5922107 0.130471,0.5888046 0.1299761,0.581651 0.1299761,0.581651 0.1302745,0.5772431 0.1314538,0.5729885 0.1335121,0.5690808 0.1363805,0.5657221 0.1363805,0.5657221 0.1385482,0.5635548 0.1410803,0.5618687 0.1470109,0.5604717 0.1592065,0.5600567 0.4772314,0.5600241 0.4772314,0.5600241 0.4882286,0.5607242 0.4936236,0.5618276 0.4987431,0.5638777 0.5030498,0.5672874 0.5059061,0.5719886 0.5073668,0.5772985 0.5076716,0.5828005 0.5076716,0.5828005 0.5073141,0.5879236 0.5060888,0.592909 0.5036549,0.597427 0.5001192,0.6011442 0.4957191,0.6037856 0.4908456,0.6054093 0.4806581,0.6066117 0.2479126,0.6065622 0.4943874,0.7298832 0.4943874,0.7298832 0.4999788,0.7337838 0.5044656,0.7389107 0.5069755,0.745243 0.5076716,0.7520245 0.5076716,0.7520245 0.5073825,0.7570013 0.5061325,0.7618242 0.5037337,0.7661892 0.5002173,0.7697137 0.4958736,0.7721531 0.4911266,0.7736834 0.4812329,0.7747683 0.1581294,0.7747187 0.1581294,0.7747187 0.1475402,0.7740012 0.1423839,0.7727115 0.137627,0.770359 0.1338337,0.7666565 0.1314162,0.761934 0.1302499,0.7567549 0.1299761,0.7514497 0.1299761,0.7514497 0.1301881,0.7458889 0.1315283,0.7404921 0.1342268,0.7356429 0.1384968,0.7320877 0.1436395,0.7299843 0.1490922,0.7288433 0.1601918,0.7282132z" transform="matrix(1,0,0,-1,2.159,1.5875)" fill="rgb(104,104,104)" fill-rule="nonzero" shaper:cutDepth="0.0000762" stroke-linecap="round" stroke-linejoin="round" /><path d="M0.2718582,0.8798166 L0.2718582,0.9792165 0.2718582,0.9792165 0.2727128,0.989669 0.2742303,0.9947023 0.2767419,0.999309 0.2804055,1.0030694 0.2850726,1.0054665 0.2901758,1.0066965 0.2954232,1.0069689 0.2954232,1.0069689 0.3008397,1.0067442 0.3060786,1.0053649 0.310704,1.002551 0.3142088,0.9984278 0.3164747,0.9935018 0.3177923,0.9882436 0.3184955,0.977433 0.3184955,0.8798166 0.4610344,0.8798166 0.4610344,1.0194493 0.4610344,1.0194493 0.4617159,1.0302496 0.4630909,1.0354954 0.4655006,1.0403456 0.4692095,1.044284 0.4739198,1.0469532 0.4791839,1.0482269 0.4845993,1.0484333 0.4845993,1.0484333 0.4902008,1.0481844 0.4955716,1.0465914 0.5001987,1.0434345 0.5036078,1.0389975 0.5057577,1.0338153 0.5070045,1.0283482 0.5076716,1.0171607 0.5076716,0.8622951 0.5076716,0.8622951 0.5075429,0.8559202 0.5067653,0.8495936 0.5048543,0.843514 0.503277,0.8407309 0.5011824,0.8383245 0.4956888,0.8351121 0.4895057,0.8335894 0.4767657,0.8332785 0.1602739,0.8333111 0.1602739,0.8333111 0.1539726,0.8333097 0.1476995,0.8339245 0.1416565,0.8356875 0.1363279,0.8390336 0.1343068,0.8414538 0.1327889,0.8442268 0.1309198,0.8502438 0.1301037,0.8564887 0.1299762,0.8627905 0.1299761,1.0188745 0.1299761,1.0188745 0.1306522,1.0293121 0.1320329,1.0343719 0.1344631,1.0390003 0.1380306,1.0428367 0.1426329,1.0453176 0.1477314,1.0465044 0.1529663,1.046709 0.1529663,1.046709 0.1584502,1.0464949 0.1637744,1.0451785 0.1685145,1.0424256 0.1721663,1.0383429 0.1745762,1.0334105 0.1759831,1.0281078 0.1766135,1.0171607 0.1766135,0.8798166 0.2718582,0.8798166z" transform="matrix(1,0,0,-1,2.159,1.5875)" fill="rgb(104,104,104)" fill-rule="nonzero" shaper:cutDepth="0.0000762" stroke-linecap="round" stroke-linejoin="round" /><path d="M0.4788518,1.2371989 L0.4788518,1.2371989 0.4895307,1.2365534 0.4947303,1.2352333 0.4995456,1.2329067 0.5035849,1.2293877 0.5062761,1.2247688 0.5075331,1.2195646 0.5076716,1.2142087 0.5076716,1.2142087 0.5071729,1.2089132 0.5057846,1.203782 0.5032704,1.199096 0.4997892,1.1950776 0.4997892,1.1950776 0.4944838,1.1919854 0.4884041,1.190882 0.4760603,1.1905616 0.1766135,1.1905616 0.1766133,1.1338253 0.1766133,1.1338253 0.1755245,1.123261 0.173923,1.1181833 0.1712397,1.1136032 0.1674983,1.1098233 0.162835,1.1072789 0.1576925,1.1059338 0.1523915,1.1054981 0.1523915,1.1054981 0.1469803,1.1059205 0.1418042,1.10753 0.1373735,1.1106668 0.1340875,1.1149652 0.1320142,1.1199882 0.1307153,1.1252596 0.1299762,1.136078 0.1299761,1.2945922 0.1299761,1.2945922 0.1310955,1.3050093 0.1327382,1.3099952 0.1354103,1.3145049 0.1391781,1.3181502 0.1438059,1.3206152 0.1488855,1.3219191 0.1541158,1.3223446 0.1541158,1.3223446 0.1593136,1.3218616 0.1643056,1.3203488 0.1686695,1.3174859 0.1720632,1.3135342 0.174301,1.3088147 0.1756604,1.3037743 0.1766135,1.2933851 0.1766135,1.2371989 0.4788518,1.2371989z" transform="matrix(1,0,0,-1,2.159,1.5875)" fill="rgb(104,104,104)" fill-rule="nonzero" shaper:cutDepth="0.0000762" stroke-linecap="round" stroke-linejoin="round" /><path d="M-1.675765,-0.889 a0.215265,0.215265 0 1,1 0.43053,0 a0.215265,0.215265 0 1,1 -0.43053,0z" transform="matrix(1,0,0,-1,2.159,1.5875)" fill="rgb(255,255,255)" stroke="rgb(0,0,0)" stroke-width="0.0010cm" stroke-linecap="round" stroke-linejoin="round" shaper:cutDepth="0.0015875" /><path d="M1.245235,0.889 a0.215265,0.215265 0 1,1 0.43053,0 a0.215265,0.215265 0 1,1 -0.43053,0z" transform="matrix(1,0,0,-1,2.159,1.5875)" fill="rgb(255,255,255)" stroke="rgb(0,0,0)" stroke-width="0.0010cm" stroke-linecap="round" stroke-linejoin="round" shaper:cutDepth="0.0015875" /></svg>