<?xml version="1.0" encoding="utf-8"?>
<!-- Generator: Fusion 360, Shaper Origin Export Add-In, Version 1.6.10  -->
<svg xmlns="http://www.w3.org/2000/svg" xmlns:xlink="http://www.w3.org/1999/xlink" xmlns:shaper="http://www.shapertools.com/namespaces/shaper" shaper:fusionaddin="version:1.6.10" width="8.89cm" height="6.35cm" version="1.1" x="0cm" y="0cm" viewBox="0 0 8.89 6.35" enable-background="new 0 0 8.89 6.35" xml:space="preserve"><path d="M-4.445,2.54 L-4.445,-2.54 A0.635,0.635 180 0,1 -3.81,-3.175 L3.81,-3.175 A0.635,0.635 270 0,1 4.445,-2.54 L4.445,2.54 A0.635,0.635 0 0,1 3.81,3.175 L-3.81,3.175 A0.635,0.635 90 0,1 -4.445,2.54z" transform="matrix(1,0,0,-1,4.445,3.175)" fill="rgb(0,0,0)" shaper:cutDepth="0.0015875" stroke-linecap="round" stroke-linejoin="round" /><path d="M-2.9211042,-2.3570374 L-2.9795277,-2.3570374 -2.9795277,-2.1368578 -2.9795277,-2.1368578 -2.9967138,-2.1507877 -3.0055959,-2.1572614 -3.0148248,-2.1631456 -3.0244728,-2.1683176 -3.0344601,-2.1729131 -3.055,-2.1811432 -3.055,-2.1281255 -3.055,-2.1281255 -3.0417371,-2.1225272 -3.0289643,-2.1160559 -3.0169306,-2.1082676 -3.0053089,-2.0997454 -3.0053089,-2.0997454 -2.9937008,-2.089354 -2.9833726,-2.0780073 -2.979054,-2.0717027 -2.9752518,-2.0650127 -2.9685083,-2.0509899 -2.9211042,-2.0509899 -2.9211042,-2.3570374z" transform="matrix(1,0,0,-1,4.445,3.175)" fill="rgb(104,104,104)" fill-rule="nonzero" shaper:cutDepth="0.0000762" stroke-linecap="round" stroke-linejoin="round" /><path d="M0.0538958,-2.3570374 L-0.0045277,-2.3570374 -0.0045277,-2.1368578 -0.0045277,-2.1368578 -0.0217138,-2.1507877 -0.0305959,-2.1572614 -0.0398248,-2.1631456 -0.0494728,-2.1683176 -0.0594601,-2.1729131 -0.08,-2.1811432 -0.08,-2.1281255 -0.08,-2.1281255 -0.0667371,-2.1225272 -0.0539643,-2.1160559 -0.0419306,-2.1082676 -0.0303089,-2.0997454 -0.0303089,-2.0997454 -0.0187008,-2.089354 -0.0083726,-2.0780073 -0.004054,-2.0717027 -0.0002518,-2.0650127 0.0064917,-2.0509899 0.0538958,-2.0509899 0.0538958,-2.3570374z" transform="matrix(1,0,0,-1,4.445,3.175)" fill="rgb(104,104,104)" fill-rule="nonzero" shaper:cutDepth="0.0000762" stroke-linecap="round" stroke-linejoin="round" /><path d="M2.1888958,-2.3570374 L2.1304723,-2.3570374 2.1304723,-2.1368578 2.1304723,-2.1368578 2.1132862,-2.1507877 2.1044041,-2.1572614 2.0951752,-2.1631456 2.0855272,-2.1683176 2.0755399,-2.1729131 2.055,-2.1811432 2.055,-2.1281255 2.055,-2.1281255 2.0682629,-2.1225272 2.0810357,-2.1160559 2.0930694,-2.1082676 2.1046911,-2.0997454 2.1046911,-2.0997454 2.1162992,-2.089354 2.1266274,-2.0780073 2.130946,-2.0717027 2.1347482,-2.0650127 2.1414917,-2.0509899 2.1888958,-2.0509899 2.1888958,-2.3570374z" transform="matrix(1,0,0,-1,4.445,3.175)" fill="rgb(104,104,104)" fill-rule="nonzero" shaper:cutDepth="0.0000762" stroke-linecap="round" stroke-linejoin="round" /><path d="M1.0260237,0.0288886 L0.9367599,0.0288886 0.9012761,0.1212018 0.738827,0.1212018 0.7052838,0.0288886 0.6182377,0.0288886 0.7765285,0.4352886 0.8632975,0.4352886 1.0260237,0.0288886z M0.8749405,0.1896744 L0.8189427,0.3404804 0.7640538,0.1896744 0.8749405,0.1896744z" transform="matrix(1,0,0,-1,4.445,3.175)" fill="rgb(104,104,104)" fill-rule="nonzero" shaper:cutDepth="0.0000762" stroke-linecap="round" stroke-linejoin="round" /><path d="M2.4434336,0.0288886 L2.4434336,0.3665388 2.3228444,0.3665388 2.3228444,0.4352886 2.6458024,0.4352886 2.6458024,0.3665388 2.5254902,0.3665388 2.5254902,0.0288886 2.4434336,0.0288886z" transform="matrix(1,0,0,-1,4.445,3.175)" fill="rgb(104,104,104)" fill-rule="nonzero" shaper:cutDepth="0.0000762" stroke-linecap="round" stroke-linejoin="round" /><path d="M2.0495087,0.0288886 L2.0495087,0.431962 2.131565,0.431962 2.131565,0.0973611 2.3355964,0.0973611 2.3355964,0.0288886 2.0495087,0.0288886z" transform="matrix(1,0,0,-1,4.445,3.175)" fill="rgb(104,104,104)" fill-rule="nonzero" shaper:cutDepth="0.0000762" stroke-linecap="round" stroke-linejoin="round" /><path d="M-3.1852364,-0.4951744 L-3.1852364,-0.0887744 -3.0535583,-0.0887744 -3.0535583,-0.0887744 -3.0290424,-0.0887114 -3.004583,-0.0893909 -2.9802339,-0.0915198 -2.9559779,-0.0948731 -2.9559779,-0.0948731 -2.9390182,-0.1013594 -2.9309421,-0.1052001 -2.9233505,-0.1097581 -2.9163394,-0.1151756 -2.9097952,-0.1212843 -2.8974852,-0.1346538 -2.8974852,-0.1346538 -2.8869558,-0.1530069 -2.8825199,-0.1624395 -2.8790769,-0.1721789 -2.8767619,-0.1822669 -2.8753265,-0.1926267 -2.8739217,-0.2137992 -2.8739217,-0.2137992 -2.8747069,-0.2301175 -2.8768518,-0.2461305 -2.8814013,-0.2616035 -2.8875054,-0.2767274 -2.8875054,-0.2767274 -2.8944971,-0.2881633 -2.9023611,-0.2988415 -2.9117244,-0.3082177 -2.9220189,-0.3167853 -2.9220189,-0.3167853 -2.9320121,-0.3230401 -2.9423483,-0.3285303 -2.9532757,-0.3327022 -2.9645717,-0.3360519 -2.9645717,-0.3360519 -2.9857437,-0.3388931 -3.0069797,-0.3408838 -3.0283047,-0.3416946 -3.0496773,-0.3418734 -3.1031801,-0.3418734 -3.1031801,-0.4951744 -3.1852364,-0.4951744z M-3.1031801,-0.1575242 L-3.1031801,-0.2728464 -3.058271,-0.2728464 -3.058271,-0.2728464 -3.0418667,-0.2728519 -3.0255509,-0.2721009 -3.0094066,-0.2698838 -2.9934022,-0.2664704 -2.9934022,-0.2664704 -2.9859338,-0.262832 -2.9790353,-0.2584655 -2.9731025,-0.252865 -2.9677597,-0.2465108 -2.9677597,-0.2465108 -2.9637523,-0.2391123 -2.9606811,-0.2314349 -2.9591311,-0.2233044 -2.9584729,-0.2149081 -2.9584729,-0.2149081 -2.9593483,-0.2048929 -2.9614898,-0.1953387 -2.9658149,-0.1865792 -2.9715021,-0.1783154 -2.9715021,-0.1783154 -2.9786865,-0.1718741 -2.9864556,-0.1664981 -2.9951876,-0.1628767 -3.0044909,-0.1602963 -3.0044909,-0.1602963 -3.0339537,-0.1578306 -3.0635381,-0.1575242 -3.1031801,-0.1575242z" transform="matrix(1,0,0,-1,4.445,3.175)" fill="rgb(104,104,104)" fill-rule="nonzero" shaper:cutDepth="0.0000762" stroke-linecap="round" stroke-linejoin="round" /><path d="M-1.4501356,-0.4951744 L-1.4501356,-0.0887744 -1.2774295,-0.0887744 -1.2774295,-0.0887744 -1.2534362,-0.089011 -1.2296018,-0.0904679 -1.2177938,-0.0920338 -1.2060683,-0.0942331 -1.1827598,-0.0997244 -1.1827598,-0.0997244 -1.1686839,-0.1067066 -1.162035,-0.1106721 -1.1558531,-0.1152069 -1.1502336,-0.1204275 -1.1450682,-0.1262019 -1.1354943,-0.1386734 -1.1354943,-0.1386734 -1.1278535,-0.1537836 -1.1245886,-0.1614944 -1.1219901,-0.1693922 -1.1201869,-0.1775132 -1.1190213,-0.1858129 -1.1177526,-0.2027105 -1.1177526,-0.2027105 -1.1195627,-0.2233829 -1.1212841,-0.2334221 -1.123985,-0.243105 -1.1279212,-0.2523386 -1.13291,-0.2611892 -1.1446424,-0.2782522 -1.1446424,-0.2782522 -1.162333,-0.2926094 -1.1716154,-0.2988863 -1.1814206,-0.304085 -1.1918039,-0.3080912 -1.2026333,-0.3111771 -1.2250357,-0.315815 -1.2250357,-0.315815 -1.2132027,-0.3232545 -1.2018169,-0.3312659 -1.1912103,-0.340274 -1.1810966,-0.3499127 -1.1810966,-0.3499127 -1.1683865,-0.3656634 -1.1563289,-0.3818841 -1.1343856,-0.4158903 -1.0847636,-0.4951744 -1.1828986,-0.4951744 -1.2422228,-0.4067422 -1.2422228,-0.4067422 -1.2629186,-0.3761884 -1.2854687,-0.3470019 -1.2854687,-0.3470019 -1.2909534,-0.3417634 -1.2967973,-0.3370562 -1.3032694,-0.3332783 -1.3101411,-0.3300917 -1.3101411,-0.3300917 -1.3203251,-0.3278042 -1.3305981,-0.3262322 -1.3514464,-0.3255176 -1.3680795,-0.3255176 -1.3680795,-0.4951744 -1.4501356,-0.4951744z M-1.3680795,-0.2606489 L-1.3073689,-0.2606489 -1.3073689,-0.2606489 -1.2888174,-0.2607682 -1.2703197,-0.2602576 -1.2519276,-0.2585073 -1.2336293,-0.255659 -1.2336293,-0.255659 -1.226891,-0.2526758 -1.2206853,-0.248983 -1.2153791,-0.2440918 -1.21062,-0.2384715 -1.21062,-0.2384715 -1.2069187,-0.2313057 -1.2041414,-0.2238793 -1.2028104,-0.2160447 -1.2023039,-0.2079777 -1.2023039,-0.2079777 -1.2029736,-0.1989883 -1.2047279,-0.1903701 -1.2083839,-0.1824026 -1.2132535,-0.1748502 -1.2132535,-0.1748502 -1.2199712,-0.1689511 -1.2272619,-0.164138 -1.2354546,-0.1610349 -1.2441635,-0.1589102 -1.2441635,-0.1589102 -1.274084,-0.1575952 -1.3040423,-0.1575242 -1.3680795,-0.1575242 -1.3680795,-0.2606489z" transform="matrix(1,0,0,-1,4.445,3.175)" fill="rgb(104,104,104)" fill-rule="nonzero" shaper:cutDepth="0.0000762" stroke-linecap="round" stroke-linejoin="round" /><path d="M-1.8290912,-0.4951744 L-1.8290912,-0.0887744 -1.5277564,-0.0887744 -1.5277564,-0.1575242 -1.7470351,-0.1575242 -1.7470351,-0.2476197 -1.5430034,-0.2476197 -1.5430034,-0.3160922 -1.7470351,-0.3160922 -1.7470351,-0.4267018 -1.5199944,-0.4267018 -1.5199944,-0.4951744 -1.8290912,-0.4951744z" transform="matrix(1,0,0,-1,4.445,3.175)" fill="rgb(104,104,104)" fill-rule="nonzero" shaper:cutDepth="0.0000762" stroke-linecap="round" stroke-linejoin="round" /><path d="M-2.5371031,0.3728897 L-2.374654,0.3728897 -2.374654,0.3728897 -2.3386,0.3722452 -2.3206389,0.3708658 -2.3027162,0.36887 -2.3027162,0.36887 -2.2914833,0.3662609 -2.2805899,0.3627974 -2.2702709,0.3578885 -2.260302,0.3520984 -2.260302,0.3520984 -2.2511944,0.3448183 -2.2428133,0.3368678 -2.2356163,0.3278247 -2.2291151,0.3181393 -2.2291151,0.3181393 -2.2237639,0.3068453 -2.2196467,0.2952242 -2.2175483,0.2830682 -2.2166404,0.2705966 -2.2166404,0.2705966 -2.2178347,0.2567186 -2.2204739,0.2432653 -2.2255251,0.2305209 -2.2320259,0.2182026 -2.2320259,0.2182026 -2.2406427,0.2071498 -2.2502523,0.1972534 -2.2615082,0.189275 -2.2737471,0.1824416 -2.2737471,0.1824416 -2.2574056,0.1763723 -2.249576,0.1728174 -2.242156,0.1686381 -2.2352554,0.163667 -2.2288018,0.1580142 -2.2166404,0.1455718 -2.2166404,0.1455718 -2.2080701,0.1314348 -2.2044039,0.1241624 -2.2014804,0.1166454 -2.1994463,0.1088355 -2.1981272,0.1007901 -2.1966808,0.0843068 -2.1966808,0.0843068 -2.1977393,0.0703134 -2.19999,0.0566029 -2.2042004,0.0433578 -2.2095713,0.0303882 -2.2095713,0.0303882 -2.2165443,0.018378 -2.2245019,0.0071999 -2.2341296,-0.0025671 -2.2447779,-0.0114716 -2.2447779,-0.0114716 -2.2576648,-0.018724 -2.2710441,-0.0245978 -2.2852016,-0.0282929 -2.2998055,-0.0307382 -2.2998055,-0.0307382 -2.3492598,-0.032992 -2.3987719,-0.0335103 -2.5371031,-0.0335103 -2.5371031,0.3728897z M-2.4550469,0.1436313 L-2.4550469,0.0349622 -2.3790895,0.0349622 -2.3790895,0.0349622 -2.3508948,0.0351753 -2.3228144,0.0374572 -2.3228144,0.0374572 -2.3144062,0.0397653 -2.3065132,0.0430124 -2.2994954,0.0478548 -2.2930137,0.0536744 -2.2930137,0.0536744 -2.2878712,0.0615179 -2.284024,0.06981 -2.2821938,0.0788006 -2.2815091,0.0881879 -2.2815091,0.0881879 -2.2820857,0.096431 -2.2835304,0.1044197 -2.2864815,0.1119668 -2.2903801,0.1192362 -2.2903801,0.1192362 -2.2957378,0.1253155 -2.3016855,0.1305903 -2.3085795,0.1345745 -2.3160227,0.1378097 -2.3160227,0.1378097 -2.3340448,0.1410112 -2.352181,0.1430433 -2.370452,0.1436917 -2.3887921,0.1436313 -2.4550469,0.1436313z M-2.4550469,0.3052487 L-2.4550469,0.2112722 -2.4012668,0.2112722 -2.4012668,0.2112722 -2.3714486,0.2113729 -2.3416652,0.2126583 -2.3416652,0.2126583 -2.3325191,0.2143825 -2.3238255,0.217109 -2.3159271,0.2215968 -2.3085378,0.2272122 -2.3085378,0.2272122 -2.3032561,0.2342647 -2.2992486,0.2418134 -2.2972757,0.2501545 -2.2964788,0.2589535 -2.2964788,0.2589535 -2.2971345,0.2672916 -2.2988138,0.2752714 -2.3022785,0.2826266 -2.3068745,0.289586 -2.3068745,0.289586 -2.3136365,0.2951704 -2.3209561,0.2995908 -2.32913,0.3022279 -2.3377841,0.3038626 -2.3377841,0.3038626 -2.3728363,0.3051702 -2.4079201,0.3052487 -2.4550469,0.3052487z" transform="matrix(1,0,0,-1,4.445,3.175)" fill="rgb(104,104,104)" fill-rule="nonzero" shaper:cutDepth="0.0000762" stroke-linecap="round" stroke-linejoin="round" /><path d="M-2.1481678,0.0987221 L-2.0683294,0.1064842 -2.0683294,0.1064842 -2.064435,0.0899607 -2.0619404,0.0819812 -2.0587889,0.0743403 -2.0547818,0.0671405 -2.0499881,0.0603462 -2.0390829,0.047437 -2.0390829,0.047437 -2.0254676,0.0389468 -2.018435,0.0353811 -2.0111331,0.0326291 -2.0035287,0.0307909 -1.9956895,0.029662 -1.9796198,0.0285862 -1.9796198,0.0285862 -1.9636404,0.0293203 -1.955816,0.0302349 -1.9481901,0.0318066 -1.9408244,0.0342405 -1.9337049,0.0374894 -1.9198797,0.0453579 -1.9198797,0.0453579 -1.9117385,0.0536078 -1.908183,0.0579901 -1.9052455,0.062681 -1.9030921,0.0677635 -1.9016134,0.073183 -1.8997815,0.0845841 -1.8997815,0.0845841 -1.9003805,0.091247 -1.9017915,0.0976261 -1.9045877,0.103521 -1.9082365,0.1091178 -1.9082365,0.1091178 -1.9147841,0.1148621 -1.9218367,0.1197921 -1.9296051,0.1235683 -1.9377601,0.126721 -1.9377601,0.126721 -1.9704628,0.1361283 -2.0034604,0.1444629 -2.0034604,0.1444629 -2.028184,0.1510592 -2.0403033,0.1548883 -2.0521319,0.1593548 -2.0635743,0.1646672 -2.0746239,0.1708403 -2.0960509,0.1846594 -2.0960509,0.1846594 -2.1116693,0.2022581 -2.11842,0.2115386 -2.1239005,0.2213962 -2.1278112,0.2319673 -2.1304216,0.2431294 -2.1334753,0.2664384 -2.1334753,0.2664384 -2.132047,0.2818537 -2.1308225,0.2894075 -2.1289853,0.2967766 -2.1264073,0.3039224 -2.123229,0.3108873 -2.115872,0.3245153 -2.115872,0.3245153 -2.1053635,0.3374621 -2.0997305,0.3434728 -2.0936429,0.3489286 -2.0870175,0.3537276 -2.0799635,0.3580032 -2.0651412,0.365682 -2.0651412,0.365682 -2.0456652,0.3720361 -2.0358341,0.3747069 -2.0258916,0.3767714 -2.005658,0.3790035 -1.9851642,0.3798201 -1.9851642,0.3798201 -1.9542152,0.3783208 -1.9390822,0.376479 -1.9243589,0.3733267 -1.9101727,0.3684565 -1.8964921,0.3619692 -1.8699806,0.3462769 -1.8699806,0.3462769 -1.853106,0.3269855 -1.8458364,0.3168023 -1.839968,0.3059742 -1.835765,0.2943795 -1.8328932,0.282172 -1.8293684,0.2567358 -1.9114244,0.253132 -1.9114244,0.253132 -1.9142826,0.2658586 -1.9161568,0.2719882 -1.9185652,0.2778375 -1.9216712,0.2833205 -1.9254247,0.2884636 -1.9340177,0.2981797 -1.9340177,0.2981797 -1.9461386,0.3046698 -1.9523631,0.3073402 -1.9587824,0.3093286 -1.9721828,0.3113378 -1.9859958,0.3119019 -1.9859958,0.3119019 -2.0008175,0.311181 -2.0152185,0.3089493 -2.0221343,0.3068114 -2.0288601,0.3039916 -2.0419936,0.2972095 -2.0419936,0.2972095 -2.047464,0.2920421 -2.0517318,0.2862556 -2.0539849,0.2794319 -2.0550229,0.2719827 -2.0550229,0.2719827 -2.0539657,0.2648463 -2.0517982,0.2582496 -2.0478357,0.2525253 -2.0428253,0.2473104 -2.0428253,0.2473104 -2.0249668,0.2379619 -2.0158224,0.2338422 -2.0064454,0.2303216 -1.9871359,0.2247119 -1.9674223,0.2201431 -1.9674223,0.2201431 -1.9446991,0.2145366 -1.9222624,0.2080884 -1.9003622,0.2000646 -1.8788514,0.1908967 -1.8788514,0.1908967 -1.8656949,0.1826603 -1.8535806,0.1732949 -1.8432262,0.162023 -1.8339424,0.1495914 -1.8339424,0.1495914 -1.826712,0.1342327 -1.8236631,0.1264065 -1.821293,0.1184041 -1.8196964,0.1102012 -1.8187038,0.1018416 -1.8177252,0.0848613 -1.8177252,0.0848613 -1.8192935,0.0675364 -1.820641,0.0590403 -1.8226645,0.0507437 -1.8255065,0.0426887 -1.8290123,0.0348296 -1.8371303,0.0194381 -1.8371303,0.0194381 -1.848391,0.0051416 -1.8544461,-0.0014949 -1.8610109,-0.0075175 -1.8681878,-0.0128027 -1.8758577,-0.0174941 -1.8920193,-0.0258869 -1.8920193,-0.0258869 -1.9135908,-0.032644 -1.924474,-0.0354686 -1.9354738,-0.0376307 -1.9578303,-0.039927 -1.9804516,-0.040718 -1.9804516,-0.040718 -2.0123278,-0.0389565 -2.0279005,-0.0369325 -2.0430347,-0.0335365 -2.0575973,-0.0283521 -2.0716334,-0.0215202 -2.0988232,-0.0050956 -2.0988232,-0.0050956 -2.1180972,0.0174567 -2.1264925,0.0293418 -2.1334002,0.0419564 -2.1386229,0.0553971 -2.1425335,0.0694813 -2.1481678,0.0987221z" transform="matrix(1,0,0,-1,4.445,3.175)" fill="rgb(104,104,104)" fill-rule="nonzero" shaper:cutDepth="0.0000762" stroke-linecap="round" stroke-linejoin="round" /><path d="M-1.9905891,2.2952126 L-1.8982758,2.2952126 -1.8982758,2.0475886 -1.8982758,2.0475886 -1.8979432,2.0093087 -1.8967446,1.9902254 -1.8948453,1.9711807 -1.8948453,1.9711807 -1.8906596,1.9581121 -1.8880797,1.9518836 -1.8849154,1.9460221 -1.8810323,1.9406119 -1.8765574,1.9355733 -1.8666211,1.9261156 -1.8666211,1.9261156 -1.8524168,1.9183373 -1.8451253,1.9150917 -1.8376074,1.9126153 -1.8298413,1.9109831 -1.821884,1.9100007 -1.8056507,1.9091188 -1.8056507,1.9091188 -1.7898654,1.9098072 -1.7821263,1.9106773 -1.7745715,1.9121782 -1.7672586,1.9145079 -1.7601754,1.9176241 -1.7463956,1.92518 -1.7463956,1.92518 -1.7378455,1.9335065 -1.7306638,1.9426586 -1.7279689,1.9477752 -1.7258092,1.9532146 -1.7223817,1.9646315 -1.7223817,1.9646315 -1.7203085,1.9839821 -1.7189094,2.0033729 -1.7183274,2.0422869 -1.7183274,2.2952126 -1.6260142,2.2952126 -1.6260142,2.0550735 -1.6260142,2.0550735 -1.6261054,2.0258599 -1.6270532,1.9967097 -1.62964,1.9676809 -1.6334991,1.9387463 -1.6334991,1.9387463 -1.637948,1.9232094 -1.6437044,1.9083077 -1.6517056,1.8944968 -1.6610995,1.8813624 -1.6610995,1.8813624 -1.6729954,1.8698274 -1.6857666,1.8595421 -1.6999303,1.8512449 -1.7148969,1.8440941 -1.7148969,1.8440941 -1.7363847,1.8376504 -1.7472207,1.8349779 -1.7581667,1.8329603 -1.7803849,1.8308705 -1.8028439,1.8302159 -1.8028439,1.8302159 -1.8282232,1.830723 -1.8408278,1.8314855 -1.8533305,1.8328588 -1.8656983,1.8350403 -1.8779325,1.8380215 -1.9021742,1.8453416 -1.9021742,1.8453416 -1.9171371,1.8530234 -1.9312588,1.8618373 -1.9439195,1.8726177 -1.9556597,1.8846371 -1.9556597,1.8846371 -1.9641092,1.8963063 -1.9715058,1.908508 -1.9770897,1.9216265 -1.9815449,1.9353158 -1.9815449,1.9353158 -1.9859836,1.9641318 -1.98908,1.9930635 -1.9903281,2.0221547 -1.9905891,2.051331 -1.9905891,2.2952126z" transform="matrix(1,0,0,-1,4.445,3.175)" fill="rgb(104,104,104)" fill-rule="nonzero" shaper:cutDepth="0.0000762" stroke-linecap="round" stroke-linejoin="round" /><path d="M-1.5521013,1.9867741 L-1.462283,1.9955065 -1.462283,1.9955065 -1.4579018,1.9769176 -1.4550954,1.9679406 -1.45155,1.9593446 -1.447042,1.9512449 -1.441649,1.9436013 -1.4293808,1.9290784 -1.4293808,1.9290784 -1.4140636,1.9195269 -1.406152,1.9155155 -1.3979373,1.9124194 -1.3893824,1.9103515 -1.3805633,1.9090815 -1.3624849,1.9078713 -1.3624849,1.9078713 -1.344508,1.9086971 -1.3357056,1.909726 -1.3271264,1.9114942 -1.31884,1.9142323 -1.3108305,1.9178874 -1.2952771,1.9267394 -1.2952771,1.9267394 -1.2861183,1.9360206 -1.2821183,1.9409506 -1.2788137,1.9462279 -1.276391,1.9519457 -1.2747275,1.9580426 -1.2726666,1.9708688 -1.2726666,1.9708688 -1.2733404,1.9783647 -1.2749278,1.9855412 -1.2780736,1.9921729 -1.2821786,1.9984692 -1.2821786,1.9984692 -1.2895446,2.0049316 -1.2974789,2.0104778 -1.3062183,2.014726 -1.3153927,2.0182729 -1.3153927,2.0182729 -1.3521832,2.0288561 -1.3893056,2.0382325 -1.3893056,2.0382325 -1.4171195,2.0456533 -1.4307538,2.0499611 -1.444061,2.0549859 -1.4569337,2.0609624 -1.4693645,2.0679071 -1.4934699,2.0834535 -1.4934699,2.0834535 -1.5110405,2.1032522 -1.518635,2.1136926 -1.5248006,2.1247825 -1.5292001,2.136675 -1.5321368,2.1492323 -1.5355722,2.1754549 -1.5355722,2.1754549 -1.5339654,2.1927972 -1.5325878,2.2012952 -1.530521,2.2095855 -1.5276207,2.2176245 -1.5240451,2.2254599 -1.5157685,2.2407915 -1.5157685,2.2407915 -1.5039465,2.2553566 -1.4976093,2.2621187 -1.4907608,2.2682563 -1.4833073,2.2736552 -1.4753716,2.2784653 -1.4586965,2.287104 -1.4586965,2.287104 -1.4367859,2.2942523 -1.425726,2.297257 -1.4145406,2.2995796 -1.4032141,2.3011337 -1.3917778,2.3020907 -1.3687223,2.3030094 -1.3687223,2.3030094 -1.3339047,2.3013226 -1.31688,2.2992506 -1.3003163,2.2957043 -1.2843568,2.2902253 -1.2689662,2.282927 -1.2539578,2.2744059 -1.2391407,2.2652732 -1.2391407,2.2652732 -1.2201567,2.2435704 -1.2119784,2.2321143 -1.2053765,2.2199327 -1.200648,2.2068887 -1.1974172,2.1931553 -1.1934519,2.1645395 -1.2857651,2.1604852 -1.2857651,2.1604852 -1.2889805,2.1748027 -1.2910889,2.1816986 -1.2937983,2.188279 -1.2972926,2.1944473 -1.3015153,2.2002333 -1.3111824,2.2111639 -1.3111824,2.2111639 -1.3248185,2.2184653 -1.3318211,2.2214695 -1.3390428,2.2237065 -1.3464935,2.2251414 -1.3541182,2.2259668 -1.3696579,2.2266014 -1.3696579,2.2266014 -1.3863323,2.2257904 -1.3945216,2.2248537 -1.4025333,2.2232797 -1.4103136,2.2208746 -1.4178802,2.2177024 -1.4326554,2.2100724 -1.4326554,2.2100724 -1.4388095,2.2042591 -1.4436108,2.1977493 -1.4461455,2.1900727 -1.4473133,2.1816923 -1.4473133,2.1816923 -1.446124,2.1736638 -1.4436856,2.1662425 -1.4392278,2.1598027 -1.433591,2.153936 -1.433591,2.153936 -1.4135003,2.1434189 -1.4032127,2.1387842 -1.3926636,2.1348236 -1.3709404,2.1285126 -1.3487626,2.1233728 -1.3487626,2.1233728 -1.323199,2.1170655 -1.2979578,2.1098113 -1.2733201,2.1007845 -1.2491205,2.0904706 -1.2491205,2.0904706 -1.2343194,2.0812046 -1.2272852,2.0761747 -1.2206907,2.0706685 -1.2146405,2.0645727 -1.209042,2.0579877 -1.1985977,2.0440021 -1.1985977,2.0440021 -1.1904635,2.0267236 -1.1870335,2.017919 -1.1843672,2.0089164 -1.182571,1.9996881 -1.1814543,1.9902836 -1.1803534,1.9711807 -1.1803534,1.9711807 -1.1821177,1.9516903 -1.1836336,1.9421321 -1.18591,1.9327984 -1.1891073,1.9237365 -1.1930513,1.9148951 -1.2021842,1.8975796 -1.2021842,1.8975796 -1.2148525,1.8814961 -1.2216645,1.87403 -1.2290499,1.8672546 -1.2371239,1.8613087 -1.2457525,1.856031 -1.2639343,1.846589 -1.2639343,1.846589 -1.2882021,1.8389873 -1.3004458,1.8358096 -1.3128205,1.8333772 -1.3253401,1.831768 -1.3379715,1.8307939 -1.3634205,1.829904 -1.3634205,1.829904 -1.3992812,1.8318856 -1.4168005,1.8341627 -1.4338265,1.8379832 -1.4502095,1.8438156 -1.4660001,1.8515016 -1.4813936,1.8604298 -1.4965886,1.8699792 -1.4965886,1.8699792 -1.5077096,1.8825279 -1.5182719,1.8953506 -1.5277166,1.9087213 -1.5354877,1.9229127 -1.5413633,1.9380335 -1.5457627,1.9538783 -1.5521013,1.9867741z" transform="matrix(1,0,0,-1,4.445,3.175)" fill="rgb(104,104,104)" fill-rule="nonzero" shaper:cutDepth="0.0000762" stroke-linecap="round" stroke-linejoin="round" /><path d="M2.3847888,-0.0887744 L2.5472379,-0.0887744 2.5472379,-0.0887744 2.583292,-0.0894189 2.6012531,-0.0907983 2.6191757,-0.092794 2.6191757,-0.092794 2.6304086,-0.0954031 2.641302,-0.0988666 2.6516211,-0.1037755 2.6615899,-0.1095656 2.6615899,-0.1095656 2.6706975,-0.1168457 2.6790786,-0.1247962 2.6862757,-0.1338394 2.6927768,-0.1435247 2.6927768,-0.1435247 2.698128,-0.1548188 2.7022452,-0.1664398 2.7043436,-0.1785959 2.7052516,-0.1910674 2.7052516,-0.1910674 2.7040572,-0.2049454 2.7014181,-0.2183987 2.6963669,-0.2311431 2.689866,-0.2434614 2.689866,-0.2434614 2.6812492,-0.2545142 2.6716397,-0.2644106 2.6603838,-0.272389 2.6481449,-0.2792224 2.6481449,-0.2792224 2.6644864,-0.2852917 2.6723159,-0.2888467 2.6797359,-0.2930259 2.6866366,-0.2979971 2.6930901,-0.3036499 2.7052516,-0.3160922 2.7052516,-0.3160922 2.7138218,-0.3302293 2.717488,-0.3375016 2.7204116,-0.3450186 2.7224457,-0.3528285 2.7237648,-0.3608739 2.7252112,-0.3773572 2.7252112,-0.3773572 2.7241526,-0.3913507 2.7219019,-0.4050611 2.7176915,-0.4183062 2.7123206,-0.4312759 2.7123206,-0.4312759 2.7053476,-0.443286 2.69739,-0.4544641 2.6877624,-0.4642311 2.6771141,-0.4731356 2.6771141,-0.4731356 2.6642272,-0.4803881 2.6508478,-0.4862618 2.6366904,-0.4899569 2.6220865,-0.4924022 2.6220865,-0.4924022 2.5726322,-0.4946561 2.5231201,-0.4951744 2.3847888,-0.4951744 2.3847888,-0.0887744z M2.466845,-0.1564153 L2.466845,-0.2503918 2.5206251,-0.2503918 2.5206251,-0.2503918 2.5504434,-0.2502911 2.5802267,-0.2490058 2.5802267,-0.2490058 2.5893729,-0.2472816 2.5980664,-0.244555 2.6059649,-0.2400673 2.6133542,-0.2344519 2.6133542,-0.2344519 2.6186359,-0.2273993 2.6226433,-0.2198506 2.6246162,-0.2115095 2.6254131,-0.2027105 2.6254131,-0.2027105 2.6247575,-0.1943725 2.6230782,-0.1863926 2.6196134,-0.1790374 2.6150175,-0.172078 2.6150175,-0.172078 2.6082554,-0.1664937 2.6009358,-0.1620733 2.5927619,-0.1594361 2.5841078,-0.1578014 2.5841078,-0.1578014 2.5490556,-0.1564938 2.5139719,-0.1564153 2.466845,-0.1564153z M2.466845,-0.3180328 L2.466845,-0.4267018 2.5428025,-0.4267018 2.5428025,-0.4267018 2.5709971,-0.4264887 2.5990775,-0.4242069 2.5990775,-0.4242069 2.6074857,-0.4218987 2.6153788,-0.4186516 2.6223966,-0.4138092 2.6288783,-0.4079897 2.6288783,-0.4079897 2.6340208,-0.4001461 2.6378679,-0.391854 2.6396981,-0.3828635 2.6403828,-0.3734761 2.6403828,-0.3734761 2.6398063,-0.365233 2.6383615,-0.3572444 2.6354104,-0.3496973 2.6315119,-0.3424278 2.6315119,-0.3424278 2.6261541,-0.3363485 2.6202065,-0.3310737 2.6133124,-0.3270895 2.6058693,-0.3238543 2.6058693,-0.3238543 2.5878471,-0.3206529 2.569711,-0.3186207 2.55144,-0.3179723 2.5330998,-0.3180328 2.466845,-0.3180328z" transform="matrix(1,0,0,-1,4.445,3.175)" fill="rgb(104,104,104)" fill-rule="nonzero" shaper:cutDepth="0.0000762" stroke-linecap="round" stroke-linejoin="round" /><path d="M-1.1023861,2.2952126 L-0.9196309,2.2952126 -0.9196309,2.2952126 -0.8790702,2.2944876 -0.8588639,2.2929357 -0.838701,2.2906905 -0.838701,2.2906905 -0.8260639,2.2877552 -0.8138087,2.2838589 -0.8021998,2.2783363 -0.7909848,2.2718224 -0.7909848,2.2718224 -0.7807388,2.2636323 -0.7713101,2.254688 -0.7632134,2.2445145 -0.7558996,2.2336185 -0.7558996,2.2336185 -0.7498796,2.2209126 -0.7452478,2.2078389 -0.742887,2.1941634 -0.7418656,2.1801329 -0.7418656,2.1801329 -0.7432092,2.1645202 -0.744389,2.1568631 -0.7461783,2.1493852 -0.7487138,2.1421266 -0.7518608,2.1350478 -0.7591743,2.1211897 -0.7591743,2.1211897 -0.7688682,2.1087552 -0.7740641,2.1029446 -0.7796789,2.0976218 -0.785803,2.0928924 -0.7923418,2.0886461 -0.8061106,2.0809586 -0.8061106,2.0809586 -0.7877264,2.0741306 -0.7789182,2.0701313 -0.7705706,2.0654297 -0.7628074,2.0598371 -0.7555472,2.0534777 -0.7418656,2.03948 -0.7418656,2.03948 -0.732224,2.0235758 -0.7280995,2.0153944 -0.7248105,2.0069379 -0.7225222,1.9981517 -0.7210383,1.9891007 -0.7194111,1.970557 -0.7194111,1.970557 -0.7206019,1.9548143 -0.7231339,1.9393901 -0.7278706,1.9244893 -0.7339129,1.9098985 -0.7339129,1.9098985 -0.7417574,1.896387 -0.7507098,1.8838117 -0.7615409,1.8728238 -0.7735202,1.8628062 -0.7735202,1.8628062 -0.7880179,1.8546472 -0.79544,1.8510526 -0.8030697,1.8480393 -0.8189969,1.8438822 -0.8354263,1.8411313 -0.8354263,1.8411313 -0.8910623,1.8385958 -0.9467635,1.8380126 -1.1023861,1.8380126 -1.1023861,2.2952126z M-1.0100729,2.0372969 L-1.0100729,1.9150443 -0.9246208,1.9150443 -0.9246208,1.9150443 -0.8929018,1.9152841 -0.87709,1.9162672 -0.8613114,1.9178511 -0.8613114,1.9178511 -0.8518521,1.9204477 -0.8429724,1.9241007 -0.8350774,1.9295484 -0.8277854,1.9360954 -0.8277854,1.9360954 -0.8220001,1.9449193 -0.817672,1.954248 -0.8156131,1.9643624 -0.8148429,1.9749231 -0.8148429,1.9749231 -0.8154915,1.9841966 -0.8171168,1.9931839 -0.8204368,2.0016744 -0.8248226,2.0098525 -0.8248226,2.0098525 -0.8308501,2.0166917 -0.8375413,2.0226258 -0.845297,2.027108 -0.8536705,2.0307477 -0.8536705,2.0307477 -0.8739455,2.0343493 -0.8943486,2.0366355 -0.9149035,2.037365 -0.9355361,2.0372969 -1.0100729,2.0372969z M-1.0100729,2.2191166 L-1.0100729,2.113393 -0.9495704,2.113393 -0.9495704,2.113393 -0.9160247,2.1135063 -0.8825185,2.1149523 -0.8825185,2.1149523 -0.8722291,2.116892 -0.8624488,2.1199594 -0.853563,2.1250081 -0.8452501,2.1313254 -0.8452501,2.1313254 -0.8393081,2.1392595 -0.8347998,2.1477519 -0.8325802,2.1571355 -0.8316838,2.1670344 -0.8316838,2.1670344 -0.8324214,2.1764148 -0.8343105,2.1853921 -0.8382085,2.1936667 -0.843379,2.201496 -0.843379,2.201496 -0.8509862,2.2077784 -0.8592208,2.2127513 -0.8684164,2.2157181 -0.8781523,2.2175572 -0.8781523,2.2175572 -0.917586,2.2190282 -0.9570553,2.2191166 -1.0100729,2.2191166z" transform="matrix(1,0,0,-1,4.445,3.175)" fill="rgb(104,104,104)" fill-rule="nonzero" shaper:cutDepth="0.0000762" stroke-linecap="round" stroke-linejoin="round" /><path d="M-1.7511931,-0.0335103 L-1.7511931,0.3728897 -1.669137,0.3728897 -1.669137,-0.0335103 -1.7511931,-0.0335103z" transform="matrix(1,0,0,-1,4.445,3.175)" fill="rgb(104,104,104)" fill-rule="nonzero" shaper:cutDepth="0.0000762" stroke-linecap="round" stroke-linejoin="round" /><path d="M-1.611753,0.0987221 L-1.5319145,0.1064842 -1.5319145,0.1064842 -1.5280201,0.0899608 -1.5255255,0.0819812 -1.5223741,0.0743403 -1.518367,0.0671406 -1.5135733,0.0603463 -1.5026682,0.047437 -1.5026682,0.047437 -1.4890529,0.0389468 -1.4820203,0.0353811 -1.4747184,0.0326291 -1.467114,0.0307909 -1.4592748,0.0296619 -1.4432051,0.0285862 -1.4432051,0.0285862 -1.4272257,0.0293203 -1.4194013,0.0302349 -1.4117753,0.0318066 -1.4044097,0.0342405 -1.3972901,0.0374894 -1.3834648,0.0453579 -1.3834648,0.0453579 -1.3753236,0.0536078 -1.3717681,0.05799 -1.3688306,0.0626809 -1.3666771,0.0677634 -1.3651985,0.0731829 -1.3633666,0.0845841 -1.3633666,0.0845841 -1.3639656,0.0912471 -1.3653767,0.0976262 -1.368173,0.103521 -1.3718219,0.1091178 -1.3718219,0.1091178 -1.3783694,0.1148621 -1.3854221,0.1197921 -1.3931905,0.1235683 -1.4013455,0.126721 -1.4013455,0.126721 -1.4340482,0.1361283 -1.4670458,0.1444629 -1.4670458,0.1444629 -1.4917693,0.1510592 -1.5038887,0.1548884 -1.5157173,0.1593548 -1.5271597,0.1646672 -1.5382093,0.1708404 -1.5596364,0.1846594 -1.5596364,0.1846594 -1.5752546,0.2022582 -1.5820053,0.2115386 -1.5874858,0.2213963 -1.5913964,0.2319674 -1.5940068,0.2431294 -1.5970605,0.2664384 -1.5970605,0.2664384 -1.5956323,0.2818537 -1.5944077,0.2894075 -1.5925706,0.2967766 -1.5899926,0.3039224 -1.5868143,0.3108873 -1.5794573,0.3245153 -1.5794573,0.3245153 -1.5689488,0.337462 -1.5633158,0.3434728 -1.5572282,0.3489285 -1.5506028,0.3537275 -1.5435489,0.3580031 -1.5287266,0.365682 -1.5287266,0.365682 -1.5092506,0.3720361 -1.4994195,0.3747069 -1.489477,0.3767714 -1.4692434,0.3790035 -1.4487496,0.3798201 -1.4487496,0.3798201 -1.4178006,0.3783208 -1.4026676,0.376479 -1.3879443,0.3733267 -1.3737581,0.3684565 -1.3600775,0.3619692 -1.333566,0.3462769 -1.333566,0.3462769 -1.3166913,0.3269855 -1.3094217,0.3168023 -1.3035533,0.3059742 -1.2993502,0.2943795 -1.2964784,0.282172 -1.2929535,0.2567358 -1.3750098,0.253132 -1.3750098,0.253132 -1.377868,0.2658586 -1.3797422,0.2719882 -1.3821506,0.2778375 -1.3852566,0.2833205 -1.3890101,0.2884636 -1.3976031,0.2981797 -1.3976031,0.2981797 -1.409724,0.3046699 -1.4159485,0.3073403 -1.4223678,0.3093287 -1.4357682,0.3113378 -1.4495812,0.3119019 -1.4495812,0.3119019 -1.4644029,0.311181 -1.4788038,0.3089493 -1.4857196,0.3068113 -1.4924455,0.3039916 -1.505579,0.2972095 -1.505579,0.2972095 -1.5110493,0.2920421 -1.5153171,0.2862556 -1.5175702,0.2794319 -1.5186081,0.2719827 -1.5186081,0.2719827 -1.517551,0.2648463 -1.5153836,0.2582496 -1.5114211,0.2525253 -1.5064106,0.2473104 -1.5064106,0.2473104 -1.4885522,0.2379619 -1.4794077,0.2338422 -1.4700308,0.2303216 -1.4507212,0.2247119 -1.4310077,0.2201431 -1.4310077,0.2201431 -1.4082845,0.2145366 -1.3858478,0.2080884 -1.3639476,0.2000646 -1.3424368,0.1908967 -1.3424368,0.1908967 -1.3292803,0.1826602 -1.3171659,0.1732948 -1.3068114,0.162023 -1.2975276,0.1495914 -1.2975276,0.1495914 -1.2902973,0.1342327 -1.2872485,0.1264064 -1.2848784,0.1184041 -1.2832818,0.1102012 -1.2822892,0.1018416 -1.2813106,0.0848613 -1.2813106,0.0848613 -1.2828789,0.0675364 -1.2842264,0.0590403 -1.2862498,0.0507437 -1.2890918,0.0426887 -1.2925977,0.0348296 -1.3007157,0.0194381 -1.3007157,0.0194381 -1.3119764,0.0051416 -1.3180315,-0.0014949 -1.3245963,-0.0075175 -1.3317732,-0.0128027 -1.3394431,-0.0174941 -1.3556047,-0.0258869 -1.3556047,-0.0258869 -1.3771761,-0.032644 -1.3880593,-0.0354685 -1.3990591,-0.0376307 -1.4214155,-0.039927 -1.4440368,-0.040718 -1.4440368,-0.040718 -1.475913,-0.0389566 -1.4914857,-0.0369325 -1.5066199,-0.0335365 -1.5211826,-0.0283521 -1.5352187,-0.0215202 -1.5624085,-0.0050956 -1.5624085,-0.0050956 -1.5816825,0.0174567 -1.5900778,0.0293418 -1.5969854,0.0419564 -1.6022082,0.0553972 -1.6061188,0.0694814 -1.611753,0.0987221z" transform="matrix(1,0,0,-1,4.445,3.175)" fill="rgb(104,104,104)" fill-rule="nonzero" shaper:cutDepth="0.0000762" stroke-linecap="round" stroke-linejoin="round" /><path d="M-2.5809034,-0.0335103 L-2.6701673,-0.0335103 -2.705651,0.0588029 -2.8681001,0.0588029 -2.9016434,-0.0335103 -2.9886895,-0.0335103 -2.8303986,0.3728897 -2.7436298,0.3728897 -2.5809034,-0.0335103z M-2.7319866,0.1272754 L-2.7879845,0.2780815 -2.8428734,0.1272754 -2.7319866,0.1272754z" transform="matrix(1,0,0,-1,4.445,3.175)" fill="rgb(104,104,104)" fill-rule="nonzero" shaper:cutDepth="0.0000762" stroke-linecap="round" stroke-linejoin="round" /><path d="M-2.3072903,-0.4951744 L-2.4043163,-0.0887744 -2.3203196,-0.0887744 -2.2590546,-0.3679318 -2.1847605,-0.0887744 -2.0871801,-0.0887744 -2.0159353,-0.3726445 -1.9535616,-0.0887744 -1.8709508,-0.0887744 -1.9696402,-0.4951744 -2.0566863,-0.4951744 -2.1376336,-0.1913446 -2.2183037,-0.4951744 -2.3072903,-0.4951744z" transform="matrix(1,0,0,-1,4.445,3.175)" fill="rgb(104,104,104)" fill-rule="nonzero" shaper:cutDepth="0.0000762" stroke-linecap="round" stroke-linejoin="round" /><path d="M-2.823191,-0.2944693 L-2.823191,-0.2944693 -2.8221716,-0.2677355 -2.8210755,-0.2544779 -2.8192759,-0.2413514 -2.8165665,-0.2283944 -2.8130392,-0.2155899 -2.8046175,-0.1902357 -2.8046175,-0.1902357 -2.7968587,-0.1751509 -2.78817,-0.1606973 -2.7779359,-0.1472925 -2.7667774,-0.1345151 -2.7667774,-0.1345151 -2.7549152,-0.1235315 -2.7423731,-0.1135298 -2.728668,-0.1052076 -2.7142448,-0.0979225 -2.7142448,-0.0979225 -2.6929237,-0.0908313 -2.6821608,-0.0878284 -2.6712752,-0.0854764 -2.6602477,-0.0838773 -2.6491086,-0.0828705 -2.6266443,-0.0818439 -2.6266443,-0.0818439 -2.6064997,-0.0833345 -2.5866257,-0.0855051 -2.5672926,-0.089036 -2.5579135,-0.091524 -2.5487711,-0.0946071 -2.5398956,-0.0983615 -2.5312769,-0.1027613 -2.5146639,-0.113131 -2.4986387,-0.1249783 -2.4829073,-0.1375645 -2.4829073,-0.1375645 -2.4703897,-0.1548356 -2.458647,-0.1723883 -2.4484544,-0.1905042 -2.4441815,-0.1998614 -2.4405818,-0.2094632 -2.4376549,-0.2193094 -2.435319,-0.2293704 -2.4320829,-0.2500141 -2.430198,-0.2711487 -2.4289886,-0.2925288 -2.4289886,-0.2925288 -2.4301971,-0.3137648 -2.4320753,-0.3347579 -2.435293,-0.3552653 -2.4376134,-0.3652611 -2.4405198,-0.3750443 -2.4440931,-0.3845858 -2.4483325,-0.3938857 -2.4584409,-0.4118948 -2.4700827,-0.4293478 -2.4824914,-0.4465228 -2.4824914,-0.4465228 -2.4981327,-0.4590849 -2.5140685,-0.4709088 -2.5305931,-0.4812561 -2.5391683,-0.4856453 -2.5480007,-0.4893897 -2.5571003,-0.4924639 -2.5664368,-0.4949442 -2.5856852,-0.4984624 -2.6054749,-0.500623 -2.6255354,-0.5021048 -2.6255354,-0.5021048 -2.6457162,-0.5006665 -2.6656293,-0.4985502 -2.6850069,-0.4950776 -2.6944112,-0.4926208 -2.7035812,-0.4895707 -2.7124864,-0.4858498 -2.7211352,-0.4814798 -2.737809,-0.4711593 -2.7538954,-0.4593515 -2.7696882,-0.4468 -2.7696882,-0.4468 -2.7820574,-0.4298368 -2.7936669,-0.4125956 -2.8037571,-0.3947988 -2.8079951,-0.3856051 -2.8115723,-0.3761698 -2.8144853,-0.3664915 -2.816814,-0.3565995 -2.8200525,-0.3362965 -2.8219556,-0.315505 -2.823191,-0.2944693z M-2.7386399,-0.2916972 L-2.7386399,-0.2916972 -2.7371266,-0.3199585 -2.7353406,-0.3337546 -2.7323194,-0.3471491 -2.7276841,-0.3600188 -2.7215484,-0.3724008 -2.70676,-0.3963465 -2.70676,-0.3963465 -2.6892757,-0.4114789 -2.6800618,-0.4179779 -2.6702818,-0.4231963 -2.6598152,-0.4268614 -2.6487908,-0.4292648 -2.6258126,-0.4319689 -2.6258126,-0.4319689 -2.6029484,-0.4293165 -2.5919785,-0.4269441 -2.581563,-0.4233162 -2.571832,-0.4181385 -2.5626672,-0.411679 -2.5452811,-0.3966238 -2.5452811,-0.3966238 -2.530558,-0.3723003 -2.524472,-0.359732 -2.5199038,-0.34668 -2.5169476,-0.3331143 -2.515221,-0.3191567 -2.513817,-0.2905883 -2.513817,-0.2905883 -2.5151435,-0.2625253 -2.5168083,-0.2488108 -2.5196748,-0.2354769 -2.524119,-0.2226425 -2.5300578,-0.2102812 -2.5444494,-0.1863547 -2.5444494,-0.1863547 -2.5620881,-0.1714742 -2.5713776,-0.1651279 -2.5812313,-0.1600941 -2.5917538,-0.1566165 -2.6028102,-0.1543809 -2.6258126,-0.1519798 -2.6258126,-0.1519798 -2.6489472,-0.1544478 -2.6600639,-0.1567257 -2.6706396,-0.1602561 -2.6805397,-0.1653514 -2.6898723,-0.1717609 -2.7075916,-0.1867705 -2.7075916,-0.1867705 -2.7221462,-0.2108404 -2.728158,-0.2232781 -2.7326643,-0.2361949 -2.7355762,-0.2496192 -2.7372727,-0.2634303 -2.7386399,-0.2916972z" transform="matrix(1,0,0,-1,4.445,3.175)" fill="rgb(104,104,104)" fill-rule="nonzero" shaper:cutDepth="0.0000762" stroke-linecap="round" stroke-linejoin="round" /><path d="M0.6238931,-0.4951744 L0.5346292,-0.4951744 0.4991454,-0.4028611 0.3366963,-0.4028611 0.3031531,-0.4951744 0.216107,-0.4951744 0.3743978,-0.0887744 0.4611667,-0.0887744 0.6238931,-0.4951744z M0.4728098,-0.3343886 L0.416812,-0.1835825 0.361923,-0.3343886 0.4728098,-0.3343886z" transform="matrix(1,0,0,-1,4.445,3.175)" fill="rgb(104,104,104)" fill-rule="nonzero" shaper:cutDepth="0.0000762" stroke-linecap="round" stroke-linejoin="round" /><path d="M1.4806595,0.0288886 L1.4806595,0.4352886 1.5627156,0.4352886 1.5627156,0.2548204 1.7284914,0.4352886 1.8388238,0.4352886 1.6858001,0.2769977 1.8471403,0.0288886 1.7409662,0.0288886 1.6292478,0.2196138 1.5627156,0.1516956 1.5627156,0.0288886 1.4806595,0.0288886z" transform="matrix(1,0,0,-1,4.445,3.175)" fill="rgb(104,104,104)" fill-rule="nonzero" shaper:cutDepth="0.0000762" stroke-linecap="round" stroke-linejoin="round" /><path d="M1.3295762,0.1783085 L1.4091376,0.1530818 1.4091376,0.1530818 1.3994539,0.1248823 1.3937132,0.1113505 1.3868938,0.0985 1.3786851,0.0865271 1.3692408,0.0753348 1.3482884,0.0542539 1.3482884,0.0542539 1.323231,0.0399139 1.3103582,0.0338575 1.2970728,0.0291358 1.2833146,0.0259439 1.2691862,0.0239499 1.2403124,0.0219582 1.2403124,0.0219582 1.221482,0.0236411 1.2029286,0.0259838 1.1849297,0.0296459 1.1762247,0.0321779 1.1677623,0.0352872 1.1595696,0.0390385 1.1516283,0.043388 1.1363562,0.0535401 1.1216586,0.0650596 1.1072483,0.0772629 1.1072483,0.0772629 1.095199,0.0941795 1.0838898,0.1113617 1.0740608,0.129075 1.0699327,0.1382139 1.0664481,0.1475837 1.0636107,0.1571857 1.0613424,0.166992 1.0581881,0.1871005 1.0563346,0.2076759 1.0551315,0.2284847 1.0551315,0.2284847 1.0562365,0.250085 1.0580032,0.2714542 1.0610933,0.2923615 1.0633415,0.3025697 1.0661686,0.3125758 1.0696558,0.3223514 1.0738114,0.3318937 1.0837629,0.3504058 1.0952582,0.3683789 1.1075255,0.3860826 1.1075255,0.3860826 1.1224562,0.39862 1.1376857,0.4104378 1.1535127,0.4208162 1.1617435,0.4252407 1.1702356,0.4290359 1.1790036,0.4321662 1.1880178,0.4347035 1.2066438,0.4383381 1.2258324,0.4406174 1.2453023,0.442219 1.2453023,0.442219 1.2786233,0.4393302 1.2947815,0.4365401 1.3103368,0.4321352 1.3251288,0.4256851 1.3392654,0.4174796 1.352965,0.4081033 1.3664461,0.3981415 1.3664461,0.3981415 1.3803903,0.3814487 1.3867211,0.3727373 1.3922845,0.3635892 1.3969926,0.3539545 1.4010389,0.3439432 1.4080287,0.323293 1.3268042,0.3038878 1.3268042,0.3038878 1.3222414,0.3181642 1.3194659,0.3250013 1.3160972,0.331477 1.3119855,0.3375 1.3072472,0.3431411 1.2967261,0.3537868 1.2967261,0.3537868 1.2839576,0.3617248 1.2773768,0.3651074 1.2705604,0.3677864 1.2634653,0.3696336 1.2561482,0.3708182 1.2411441,0.3720831 1.2411441,0.3720831 1.2202617,0.3696907 1.2102509,0.3675303 1.2007565,0.364213 1.191902,0.3594618 1.1835793,0.3535193 1.1678202,0.3396487 1.1678202,0.3396487 1.1542337,0.3153126 1.1486947,0.3027751 1.1446347,0.2898018 1.142074,0.2763869 1.140647,0.262638 1.1396826,0.2345835 1.1396826,0.2345835 1.1404954,0.2054201 1.1418461,0.1911037 1.1443299,0.1771057 1.1483166,0.1635299 1.1538178,0.1503798 1.1674044,0.1248056 1.1674044,0.1248056 1.1827993,0.11088 1.1909472,0.1049039 1.1996358,0.100112 1.2089785,0.0967527 1.2188514,0.0945547 1.2394808,0.092094 1.2394808,0.092094 1.2549038,0.0936499 1.2623863,0.0950437 1.269594,0.0971765 1.2764622,0.1002222 1.2830495,0.1040234 1.2957559,0.1128853 1.2957559,0.1128853 1.3077854,0.1273221 1.3131405,0.1348946 1.3177093,0.1428893 1.3214317,0.1513383 1.3245064,0.1601352 1.3295762,0.1783085z" transform="matrix(1,0,0,-1,4.445,3.175)" fill="rgb(104,104,104)" fill-rule="nonzero" shaper:cutDepth="0.0000762" stroke-linecap="round" stroke-linejoin="round" /><path d="M0.2498163,0.4352886 L0.4122655,0.4352886 0.4122655,0.4352886 0.4483195,0.4346441 0.4662806,0.4332647 0.4842033,0.4312689 0.4842033,0.4312689 0.4954362,0.4286598 0.5063296,0.4251963 0.5166486,0.4202874 0.5266175,0.4144973 0.5266175,0.4144973 0.5357251,0.4072172 0.5441062,0.3992667 0.5513032,0.3902236 0.5578044,0.3805382 0.5578044,0.3805382 0.5631556,0.3692442 0.5672728,0.3576231 0.5693712,0.3454671 0.5702791,0.3329955 0.5702791,0.3329955 0.5690848,0.3191176 0.5664456,0.3056642 0.5613944,0.2929199 0.5548936,0.2806015 0.5548936,0.2806015 0.5462768,0.2695487 0.5366672,0.2596523 0.5254113,0.2516739 0.5131724,0.2448405 0.5131724,0.2448405 0.5295139,0.2387712 0.5373435,0.2352163 0.5447635,0.231037 0.5516641,0.2260659 0.5581176,0.2204131 0.5702791,0.2079707 0.5702791,0.2079707 0.5788494,0.1938337 0.5825156,0.1865613 0.5854391,0.1790444 0.5874732,0.1712345 0.5887923,0.1631891 0.5902387,0.1467058 0.5902387,0.1467058 0.5891802,0.1327123 0.5869295,0.1190019 0.5827191,0.1057567 0.5773482,0.0927871 0.5773482,0.0927871 0.5703752,0.0807769 0.5624176,0.0695988 0.5527899,0.0598318 0.5421416,0.0509273 0.5421416,0.0509273 0.5292547,0.0436749 0.5158754,0.0378012 0.5017179,0.034106 0.4871141,0.0316607 0.4871141,0.0316607 0.4376597,0.0294069 0.3881476,0.0288886 0.2498163,0.0288886 0.2498163,0.4352886z M0.3318726,0.2060302 L0.3318726,0.0973611 0.40783,0.0973611 0.40783,0.0973611 0.4360247,0.0975743 0.4641051,0.0998561 0.4641051,0.0998561 0.4725133,0.1021643 0.4804063,0.1054114 0.4874242,0.1102537 0.4939059,0.1160733 0.4939059,0.1160733 0.4990484,0.1239168 0.5028955,0.1322089 0.5047257,0.1411995 0.5054104,0.1505868 0.5054104,0.1505868 0.5048338,0.1588299 0.5033891,0.1668186 0.500438,0.1743657 0.4965394,0.1816351 0.4965394,0.1816351 0.4911817,0.1877145 0.485234,0.1929893 0.47834,0.1969734 0.4708969,0.2002086 0.4708969,0.2002086 0.4528747,0.2034101 0.4347385,0.2054422 0.4164675,0.2060906 0.3981274,0.2060302 0.3318726,0.2060302z M0.3318726,0.3676477 L0.3318726,0.2736711 0.3856527,0.2736711 0.3856527,0.2736711 0.415471,0.2737718 0.4452543,0.2750572 0.4452543,0.2750572 0.4544004,0.2767814 0.463094,0.2795079 0.4709924,0.2839957 0.4783817,0.2896111 0.4783817,0.2896111 0.4836634,0.2966636 0.4876709,0.3042124 0.4896438,0.3125534 0.4904407,0.3213524 0.4904407,0.3213524 0.489785,0.3296905 0.4881057,0.3376704 0.484641,0.3450255 0.480045,0.3519849 0.480045,0.3519849 0.473283,0.3575693 0.4659634,0.3619897 0.4577895,0.3646268 0.4491354,0.3662616 0.4491354,0.3662616 0.4140832,0.3675691 0.3789995,0.3676477 0.3318726,0.3676477z" transform="matrix(1,0,0,-1,4.445,3.175)" fill="rgb(104,104,104)" fill-rule="nonzero" shaper:cutDepth="0.0000762" stroke-linecap="round" stroke-linejoin="round" /><path d="M3.56362,-2.54 a0.24638,0.24638 0 1,1 0.49276,0 a0.24638,0.24638 0 1,1 -0.49276,0z" transform="matrix(1,0,0,-1,4.445,3.175)" fill="rgb(255,255,255)" stroke="rgb(0,0,0)" stroke-width="0.0010cm" stroke-linecap="round" stroke-linejoin="round" shaper:cutDepth="0.0015875" /><path d="M-4.05638,2.54 a0.24638,0.24638 0 1,1 0.49276,0 a0.24638,0.24638 0 1,1 -0.49276,0z" transform="matrix(1,0,0,-1,4.445,3.175)" fill="rgb(255,255,255)" stroke="rgb(0,0,0)" stroke-width="0.0010cm" stroke-linecap="round" stroke-linejoin="round" shaper:cutDepth="0.0015875" /><path d="M3.56362,2.54 a0.24638,0.24638 0 1,1 0.49276,0 a0.24638,0.24638 0 1,1 -0.49276,0z" transform="matrix(1,0,0,-1,4.445,3.175)" fill="rgb(255,255,255)" stroke="rgb(0,0,0)" stroke-width="0.0010cm" stroke-linecap="round" stroke-linejoin="round" shaper:cutDepth="0.0015875" /><path d="M-4.05638,-2.54 a0.24638,0.24638 0 1,1 0.49276,0 a0.24638,0.24638 0 1,1 -0.49276,0z" transform="matrix(1,0,0,-1,4.445,3.175)" fill="rgb(255,255,255)" stroke="rgb(0,0,0)" stroke-width="0.0010cm" stroke-linecap="round" stroke-linejoin="round" shaper:cutDepth="0.0015875" /><path d="M-1.93,0.8603627 A0.16,0.16 270 0,0 -2.09,1.0203627 L-2.09,1.4303627 A0.16,0.16 180 0,0 -1.93,1.5903627 L-0.78,1.5903627 A0.16,0.16 90 0,0 -0.62,1.4303627 L-0.62,1.0203627 A0.16,0.16 0 0,0 -0.78,0.8603627 L-1.93,0.8603627z" transform="matrix(1,0,0,-1,4.445,3.175)" fill="rgb(255,255,255)" stroke="rgb(0,0,0)" stroke-width="0.0010cm" stroke-linecap="round" stroke-linejoin="round" shaper:cutDepth="0.0015875" /><path d="M-3.015,1.2253627 a0.16,0.16 0 1,1 0.32,0 a0.16,0.16 0 1,1 -0.32,0z" transform="matrix(1,0,0,-1,4.445,3.175)" fill="rgb(255,255,255)" stroke="rgb(0,0,0)" stroke-width="0.0010cm" stroke-linecap="round" stroke-linejoin="round" shaper:cutDepth="0.0015875" /><path d="M-0.015,1.2253627 a0.16,0.16 0 1,1 0.32,0 a0.16,0.16 0 1,1 -0.32,0z" transform="matrix(1,0,0,-1,4.445,3.175)" fill="rgb(255,255,255)" stroke="rgb(0,0,0)" stroke-width="0.0010cm" stroke-linecap="round" stroke-linejoin="round" shaper:cutDepth="0.0015875" /><path d="M2.755,-0.7271373 L2.755,-0.8871373 3.055,-0.8871373 3.055,-1.1071373 3.305,-1.1071373 3.305,-1.6671373 3.055,-1.6671373 3.055,-1.8871373 2.055,-1.8871373 2.055,-1.6671373 1.805,-1.6671373 1.805,-1.1071373 2.055,-1.1071373 2.055,-0.8871373 2.355,-0.8871373 2.355,-0.7271373 2.755,-0.7271373z" transform="matrix(1,0,0,-1,4.445,3.175)" fill="rgb(255,255,255)" stroke="rgb(0,0,0)" stroke-width="0.0010cm" stroke-linecap="round" stroke-linejoin="round" shaper:cutDepth="0.0015875" /><path d="M-1.935,-0.7271373 L-1.935,-0.8871373 -1.215,-0.8871373 -1.215,-1.1071373 -0.965,-1.1071373 -0.965,-1.6671373 -1.215,-1.6671373 -1.215,-1.8871373 -3.055,-1.8871373 -3.055,-1.6671373 -3.305,-1.6671373 -3.305,-1.1071373 -3.055,-1.1071373 -3.055,-0.8871373 -2.335,-0.8871373 -2.335,-0.7271373 -1.935,-0.7271373z" transform="matrix(1,0,0,-1,4.445,3.175)" fill="rgb(255,255,255)" stroke="rgb(0,0,0)" stroke-width="0.0010cm" stroke-linecap="round" stroke-linejoin="round" shaper:cutDepth="0.0015875" /><path d="M0.62,-0.7271373 L0.62,-0.8871373 0.92,-0.8871373 0.92,-1.1071373 1.17,-1.1071373 1.17,-1.6671373 0.92,-1.6671373 0.92,-1.8871373 -0.08,-1.8871373 -0.08,-1.6671373 -0.33,-1.6671373 -0.33,-1.1071373 -0.08,-1.1071373 -0.08,-0.8871373 0.22,-0.8871373 0.22,-0.7271373 0.62,-0.7271373z" transform="matrix(1,0,0,-1,4.445,3.175)" fill="rgb(255,255,255)" stroke="rgb(0,0,0)" stroke-width="0.0010cm" stroke-linecap="round" stroke-linejoin="round" shaper:cutDepth="0.0015875" /></svg>