<?xml version="1.0" encoding="utf-8"?>
<!-- Generator: Fusion 360, Shaper Origin Export Add-In, Version 1.7.0  -->
<svg xmlns="http://www.w3.org/2000/svg" xmlns:xlink="http://www.w3.org/1999/xlink" xmlns:shaper="http://www.shapertools.com/namespaces/shaper" shaper:fusionaddin="version:1.7.0" width="8.89cm" height="6.35cm" version="1.1" x="0cm" y="0cm" viewBox="0 0 8.89 6.35" enable-background="new 0 0 8.89 6.35" xml:space="preserve"><path d="M-4.445,2.54 L-4.445,-2.54 A0.635,0.635 180 0,1 -3.81,-3.175 L3.81,-3.175 A0.635,0.635 270 0,1 4.445,-2.54 L4.445,2.54 A0.635,0.635 0 0,1 3.81,3.175 L-3.81,3.175 A0.635,0.635 90 0,1 -4.445,2.54z" transform="matrix(1,0,0,-1,4.445,3.175)" fill="rgb(0,0,0)" shaper:cutDepth="0.15875cm" stroke-linecap="round" stroke-linejoin="round" /><path d="M-2.4724737,-2.4308548 L-2.5308873,-2.4319275 -2.5349299,-2.2117851 -2.5349299,-2.2117851 -2.5518574,-2.2260281 -2.5606191,-2.2326638 -2.5697385,-2.2387164 -2.5792899,-2.2440647 -2.5891911,-2.2488428 -2.6095764,-2.2574487 -2.6105499,-2.2044399 -2.6105499,-2.2044399 -2.597392,-2.1985991 -2.5847401,-2.1918943 -2.5728515,-2.1838864 -2.5613882,-2.1751523 -2.5613882,-2.1751523 -2.5499729,-2.1645495 -2.5398547,-2.153015 -2.5356526,-2.1466322 -2.5319738,-2.1398735 -2.525489,-2.1257293 -2.4780929,-2.1248589 -2.4724737,-2.4308548z" transform="matrix(1,0,0,-1,4.445,3.175)" fill="rgb(104,104,104)" fill-rule="nonzero" shaper:cutDepth="0.00762cm" stroke-linecap="round" stroke-linejoin="round" /><path d="M-2.0448355,-0.6952921 L-2.0448355,-0.3576419 -2.165425,-0.3576419 -2.165425,-0.2888921 -1.8424673,-0.2888921 -1.8424673,-0.3576419 -1.9627794,-0.3576419 -1.9627794,-0.6952921 -2.0448355,-0.6952921z" transform="matrix(1,0,0,-1,4.445,3.175)" fill="rgb(104,104,104)" fill-rule="nonzero" shaper:cutDepth="0.00762cm" stroke-linecap="round" stroke-linejoin="round" /><path d="M-1.28637,-0.6952921 L-1.3756339,-0.6952921 -1.4111178,-0.6029788 -1.5735669,-0.6029788 -1.6071101,-0.6952921 -1.6941563,-0.6952921 -1.5358654,-0.2888921 -1.4490964,-0.2888921 -1.28637,-0.6952921z M-1.4374535,-0.5345063 L-1.4934512,-0.3837002 -1.5483402,-0.5345063 -1.4374535,-0.5345063z" transform="matrix(1,0,0,-1,4.445,3.175)" fill="rgb(104,104,104)" fill-rule="nonzero" shaper:cutDepth="0.00762cm" stroke-linecap="round" stroke-linejoin="round" /><path d="M-2.8936739,-0.6952921 L-2.8936739,-0.2888921 -2.592339,-0.2888921 -2.592339,-0.3576419 -2.8116176,-0.3576419 -2.8116176,-0.4477374 -2.607586,-0.4477374 -2.607586,-0.5162099 -2.8116176,-0.5162099 -2.8116176,-0.6268195 -2.5845769,-0.6268195 -2.5845769,-0.6952921 -2.8936739,-0.6952921z" transform="matrix(1,0,0,-1,4.445,3.175)" fill="rgb(104,104,104)" fill-rule="nonzero" shaper:cutDepth="0.00762cm" stroke-linecap="round" stroke-linejoin="round" /><path d="M-0.9828176,-0.5458722 L-0.9032564,-0.5710989 -0.9032564,-0.5710989 -0.91294,-0.5992983 -0.9186807,-0.6128302 -0.9255,-0.6256806 -0.9337087,-0.6376535 -0.943153,-0.6488458 -0.9641053,-0.6699267 -0.9641053,-0.6699267 -0.9891628,-0.6842667 -1.0020356,-0.6903232 -1.015321,-0.6950449 -1.0290792,-0.6982367 -1.0432076,-0.7002307 -1.0720813,-0.7022225 -1.0720813,-0.7022225 -1.0909118,-0.7005395 -1.1094651,-0.6981968 -1.1274641,-0.6945347 -1.1361691,-0.6920027 -1.1446315,-0.6888935 -1.1528242,-0.6851421 -1.1607655,-0.6807926 -1.1760376,-0.6706405 -1.1907353,-0.659121 -1.2051456,-0.6469177 -1.2051456,-0.6469177 -1.2171949,-0.6300011 -1.2285041,-0.612819 -1.2383331,-0.5951057 -1.2424613,-0.5859668 -1.2459459,-0.576597 -1.2487833,-0.566995 -1.2510516,-0.5571887 -1.2542059,-0.5370801 -1.2560594,-0.5165047 -1.2572624,-0.4956959 -1.2572624,-0.4956959 -1.2561575,-0.4740956 -1.2543908,-0.4527264 -1.2513007,-0.4318191 -1.2490525,-0.4216109 -1.2462254,-0.4116048 -1.2427382,-0.4018292 -1.2385826,-0.3922868 -1.228631,-0.3737748 -1.2171356,-0.3558017 -1.2048683,-0.3380981 -1.2048683,-0.3380981 -1.1899376,-0.3255606 -1.1747081,-0.3137428 -1.1588812,-0.3033644 -1.1506504,-0.2989399 -1.1421583,-0.2951447 -1.1333903,-0.2920144 -1.1243761,-0.2894771 -1.1057501,-0.2858425 -1.0865615,-0.2835632 -1.0670917,-0.2819616 -1.0670917,-0.2819616 -1.0337707,-0.2848504 -1.0176125,-0.2876405 -1.0020572,-0.2920455 -0.9872652,-0.2984956 -0.9731286,-0.3067011 -0.9594289,-0.3160774 -0.9459479,-0.3260391 -0.9459479,-0.3260391 -0.9320035,-0.3427319 -0.9256727,-0.3514433 -0.9201093,-0.3605913 -0.9154012,-0.3702261 -0.9113549,-0.3802374 -0.9043653,-0.4008877 -0.9855897,-0.4202929 -0.9855897,-0.4202929 -0.9901524,-0.4060164 -0.9929279,-0.3991793 -0.9962966,-0.3927036 -1.0004082,-0.3866807 -1.0051465,-0.3810396 -1.0156677,-0.3703938 -1.0156677,-0.3703938 -1.0284362,-0.3624559 -1.0350169,-0.3590733 -1.0418334,-0.3563942 -1.0489285,-0.354547 -1.0562456,-0.3533624 -1.0712497,-0.3520975 -1.0712497,-0.3520975 -1.0921321,-0.3544899 -1.1021429,-0.3566503 -1.1116374,-0.3599676 -1.1204918,-0.3647188 -1.1288145,-0.3706613 -1.1445737,-0.3845319 -1.1445737,-0.3845319 -1.1581602,-0.408868 -1.1636992,-0.4214056 -1.1677592,-0.4343788 -1.1703198,-0.4477937 -1.1717468,-0.4615427 -1.1727111,-0.4895971 -1.1727111,-0.4895971 -1.1718984,-0.5187606 -1.1705478,-0.533077 -1.168064,-0.547075 -1.1640773,-0.5606507 -1.1585761,-0.5738009 -1.1449895,-0.599375 -1.1449895,-0.599375 -1.1295946,-0.6133007 -1.1214467,-0.6192768 -1.1127581,-0.6240687 -1.1034153,-0.627428 -1.0935424,-0.629626 -1.0729129,-0.6320866 -1.0729129,-0.6320866 -1.0574899,-0.6305308 -1.0500075,-0.629137 -1.0427998,-0.6270042 -1.0359316,-0.6239585 -1.0293443,-0.6201572 -1.016638,-0.6112954 -1.016638,-0.6112954 -1.0046086,-0.5968585 -0.9992534,-0.589286 -0.9946847,-0.5812913 -0.9909622,-0.5728422 -0.9878875,-0.5640454 -0.9828176,-0.5458722z" transform="matrix(1,0,0,-1,4.445,3.175)" fill="rgb(104,104,104)" fill-rule="nonzero" shaper:cutDepth="0.00762cm" stroke-linecap="round" stroke-linejoin="round" /><path d="M-0.5728137,-0.5458722 L-0.4932525,-0.5710989 -0.4932525,-0.5710989 -0.5029361,-0.5992983 -0.5086768,-0.6128302 -0.5154962,-0.6256807 -0.5237049,-0.6376535 -0.5331492,-0.6488458 -0.5541017,-0.6699267 -0.5541017,-0.6699267 -0.5791591,-0.6842668 -0.5920319,-0.6903232 -0.6053173,-0.6950449 -0.6190755,-0.6982368 -0.6332039,-0.7002308 -0.6620776,-0.7022225 -0.6620776,-0.7022225 -0.6809081,-0.7005395 -0.6994614,-0.6981968 -0.7174604,-0.6945347 -0.7261653,-0.6920027 -0.7346278,-0.6888935 -0.7428204,-0.6851422 -0.7507617,-0.6807926 -0.7660338,-0.6706406 -0.7807314,-0.659121 -0.7951417,-0.6469177 -0.7951417,-0.6469177 -0.8071909,-0.6300011 -0.8185,-0.6128189 -0.828329,-0.5951056 -0.8324572,-0.5859667 -0.8359418,-0.5765969 -0.8387792,-0.5669949 -0.8410475,-0.5571886 -0.8442019,-0.5370801 -0.8460554,-0.5165047 -0.8472585,-0.4956959 -0.8472585,-0.4956959 -0.8461536,-0.4740957 -0.8443869,-0.4527264 -0.8412968,-0.4318191 -0.8390486,-0.421611 -0.8362215,-0.4116049 -0.8327343,-0.4018292 -0.8285787,-0.3922869 -0.8186272,-0.3737749 -0.8071318,-0.3558017 -0.7948646,-0.3380981 -0.7948646,-0.3380981 -0.7799339,-0.3255606 -0.7647044,-0.3137428 -0.7488774,-0.3033644 -0.7406466,-0.2989399 -0.7321545,-0.2951447 -0.7233865,-0.2920144 -0.7143723,-0.2894771 -0.6957463,-0.2858425 -0.6765577,-0.2835632 -0.6570878,-0.2819616 -0.6570878,-0.2819616 -0.6237668,-0.2848504 -0.6076086,-0.2876405 -0.5920533,-0.2920455 -0.5772613,-0.2984956 -0.5631247,-0.3067011 -0.549425,-0.3160774 -0.535944,-0.3260391 -0.535944,-0.3260391 -0.5219997,-0.342732 -0.515669,-0.3514434 -0.5101056,-0.3605914 -0.5053975,-0.3702262 -0.5013512,-0.3802375 -0.4943614,-0.4008877 -0.5755861,-0.4202929 -0.5755861,-0.4202929 -0.5801487,-0.4060164 -0.5829243,-0.3991793 -0.5862929,-0.3927036 -0.5904046,-0.3866807 -0.5951429,-0.3810396 -0.605664,-0.3703938 -0.605664,-0.3703938 -0.6184325,-0.3624558 -0.6250132,-0.3590732 -0.6318297,-0.3563942 -0.6389248,-0.354547 -0.6462419,-0.3533624 -0.661246,-0.3520975 -0.661246,-0.3520975 -0.6821283,-0.3544899 -0.6921392,-0.3566503 -0.7016336,-0.3599677 -0.710488,-0.3647188 -0.7188107,-0.3706613 -0.7345698,-0.3845319 -0.7345698,-0.3845319 -0.7481564,-0.408868 -0.7536955,-0.4214055 -0.7577555,-0.4343788 -0.7603162,-0.4477937 -0.7617431,-0.4615426 -0.7627074,-0.4895971 -0.7627074,-0.4895971 -0.7618947,-0.5187606 -0.7605441,-0.533077 -0.7580603,-0.547075 -0.7540737,-0.5606507 -0.7485724,-0.5738009 -0.7349858,-0.599375 -0.7349858,-0.599375 -0.7195909,-0.6133007 -0.7114429,-0.6192767 -0.7027543,-0.6240686 -0.6934116,-0.6274279 -0.6835387,-0.6296259 -0.6629092,-0.6320866 -0.6629092,-0.6320866 -0.6474863,-0.6305308 -0.6400038,-0.629137 -0.6327961,-0.6270042 -0.6259279,-0.6239585 -0.6193406,-0.6201572 -0.6066344,-0.6112954 -0.6066344,-0.6112954 -0.5946048,-0.5968586 -0.5892496,-0.5892861 -0.5846808,-0.5812914 -0.5809583,-0.5728423 -0.5778836,-0.5640455 -0.5728137,-0.5458722z" transform="matrix(1,0,0,-1,4.445,3.175)" fill="rgb(104,104,104)" fill-rule="nonzero" shaper:cutDepth="0.00762cm" stroke-linecap="round" stroke-linejoin="round" /><path d="M-2.5563009,-0.6952921 L-2.4174151,-0.4832211 -2.5432716,-0.2888921 -2.4473545,-0.2888921 -2.3658528,-0.4194612 -2.2860143,-0.2888921 -2.1909289,-0.2888921 -2.3173399,-0.4862705 -2.1784541,-0.6952921 -2.2774206,-0.6952921 -2.3675161,-0.5547431 -2.4578888,-0.6952921 -2.5563009,-0.6952921z" transform="matrix(1,0,0,-1,4.445,3.175)" fill="rgb(104,104,104)" fill-rule="nonzero" shaper:cutDepth="0.00762cm" stroke-linecap="round" stroke-linejoin="round" /><path d="M3.56362,-2.54 a0.24638,0.24638 0 1,1 0.49276,0 a0.24638,0.24638 0 1,1 -0.49276,0z" transform="matrix(1,0,0,-1,4.445,3.175)" fill="rgb(255,255,255)" stroke="rgb(0,0,0)" stroke-width="0.0010cm" stroke-linecap="round" stroke-linejoin="round" shaper:cutDepth="0.15875cm" /><path d="M-4.05638,2.54 a0.24638,0.24638 0 1,1 0.49276,0 a0.24638,0.24638 0 1,1 -0.49276,0z" transform="matrix(1,0,0,-1,4.445,3.175)" fill="rgb(255,255,255)" stroke="rgb(0,0,0)" stroke-width="0.0010cm" stroke-linecap="round" stroke-linejoin="round" shaper:cutDepth="0.15875cm" /><path d="M3.56362,2.54 a0.24638,0.24638 0 1,1 0.49276,0 a0.24638,0.24638 0 1,1 -0.49276,0z" transform="matrix(1,0,0,-1,4.445,3.175)" fill="rgb(255,255,255)" stroke="rgb(0,0,0)" stroke-width="0.0010cm" stroke-linecap="round" stroke-linejoin="round" shaper:cutDepth="0.15875cm" /><path d="M-4.05638,-2.54 a0.24638,0.24638 0 1,1 0.49276,0 a0.24638,0.24638 0 1,1 -0.49276,0z" transform="matrix(1,0,0,-1,4.445,3.175)" fill="rgb(255,255,255)" stroke="rgb(0,0,0)" stroke-width="0.0010cm" stroke-linecap="round" stroke-linejoin="round" shaper:cutDepth="0.15875cm" /><path d="M-0.5534632,1.3628931 a0.16,0.16 0 1,1 0.32,0 a0.16,0.16 0 1,1 -0.32,0z" transform="matrix(1,0,0,-1,4.445,3.175)" fill="rgb(255,255,255)" stroke="rgb(0,0,0)" stroke-width="0.0010cm" stroke-linecap="round" stroke-linejoin="round" shaper:cutDepth="0.15875cm" /><path d="M1.5190368,2 a0.16,0.16 0 1,1 0.32,0 a0.16,0.16 0 1,1 -0.32,0z" transform="matrix(1,0,0,-1,4.445,3.175)" fill="rgb(255,255,255)" stroke="rgb(0,0,0)" stroke-width="0.0010cm" stroke-linecap="round" stroke-linejoin="round" shaper:cutDepth="0.15875cm" /><path d="M0.5590368,1.25028 A0.29972,0.29972 180 0,0 0.8587568,1.55 L2.4993168,1.55 A0.29972,0.29972 90 0,0 2.7990368,1.25028 L2.7990368,-1.25028 A0.29972,0.29972 0 0,0 2.5493637,-1.5457921 L0.8087099,-1.5457921 A0.29972,0.29972 260.3877842 0,0 0.5590368,-1.25028 L0.5590368,1.25028z" transform="matrix(1,0,0,-1,4.445,3.175)" fill="rgb(255,255,255)" stroke="rgb(0,0,0)" stroke-width="0.0010cm" stroke-linecap="round" stroke-linejoin="round" shaper:cutDepth="0.15875cm" /><path d="M1.5190368,-2 a0.16,0.16 0 1,1 0.32,0 a0.16,0.16 0 1,1 -0.32,0z" transform="matrix(1,0,0,-1,4.445,3.175)" fill="rgb(255,255,255)" stroke="rgb(0,0,0)" stroke-width="0.0010cm" stroke-linecap="round" stroke-linejoin="round" shaper:cutDepth="0.15875cm" /><path d="M-2.3334632,0.5628931 A0.16,0.16 270 0,0 -2.4934632,0.7228931 L-2.4934632,2.0028931 A0.16,0.16 180 0,0 -2.3334632,2.1628931 L-1.0534632,2.1628931 A0.16,0.16 90 0,0 -0.8934632,2.0028931 L-0.8934632,0.7228931 A0.16,0.16 0 0,0 -1.0534632,0.5628931 L-2.3334632,0.5628931z" transform="matrix(1,0,0,-1,4.445,3.175)" fill="rgb(255,255,255)" stroke="rgb(0,0,0)" stroke-width="0.0010cm" stroke-linecap="round" stroke-linejoin="round" shaper:cutDepth="0.15875cm" /><path d="M-3.1534632,1.3628931 a0.16,0.16 0 1,1 0.32,0 a0.16,0.16 0 1,1 -0.32,0z" transform="matrix(1,0,0,-1,4.445,3.175)" fill="rgb(255,255,255)" stroke="rgb(0,0,0)" stroke-width="0.0010cm" stroke-linecap="round" stroke-linejoin="round" shaper:cutDepth="0.15875cm" /><path d="M-1.4934632,-0.8857921 L-1.4934632,-1.0457921 -0.7734632,-1.0457921 -0.7734632,-1.2657921 -0.5234632,-1.2657921 -0.5234632,-1.8257921 -0.7734632,-1.8257921 -0.7734632,-2.0457921 -2.6134632,-2.0457921 -2.6134632,-1.8257921 -2.8634632,-1.8257921 -2.8634632,-1.2657921 -2.6134632,-1.2657921 -2.6134632,-1.0457921 -1.8934632,-1.0457921 -1.8934632,-0.8857921 -1.4934632,-0.8857921z" transform="matrix(1,0,0,-1,4.445,3.175)" fill="rgb(255,255,255)" stroke="rgb(0,0,0)" stroke-width="0.0010cm" stroke-linecap="round" stroke-linejoin="round" shaper:cutDepth="0.15875cm" /></svg>