<?xml version="1.0" encoding="utf-8"?>
<!-- Generator: Fusion 360, Shaper Origin Export Add-In, Version 1.6.10  -->
<svg xmlns="http://www.w3.org/2000/svg" xmlns:xlink="http://www.w3.org/1999/xlink" xmlns:shaper="http://www.shapertools.com/namespaces/shaper" shaper:fusionaddin="version:1.6.10" width="8.89cm" height="8.89cm" version="1.1" x="0cm" y="0cm" viewBox="0 0 8.89 8.89" enable-background="new 0 0 8.89 8.89" xml:space="preserve"><path d="M4.445,-6.3775 L4.445,1.2425 A0.635,0.635 0 0,1 3.81,1.8775 L-3.81,1.8775 A0.635,0.635 90 0,1 -4.445,1.2425 L-4.445,-6.3775 A0.635,0.635 180 0,1 -3.81,-7.0125 L3.81,-7.0125 A0.635,0.635 270 0,1 4.445,-6.3775z" transform="matrix(1,0,0,-1,4.445,1.8775)" fill="rgb(0,0,0)" shaper:cutDepth="0.0015875" stroke-linecap="round" stroke-linejoin="round" /><path d="M-2.8109858,-3.539628 L-2.8675381,-3.5464892 -2.8675381,-3.5464892 -2.8692554,-3.5373485 -2.8719678,-3.5286616 -2.8764513,-3.5207825 -2.8820919,-3.513431 -2.8820919,-3.513431 -2.8884675,-3.5085788 -2.89528,-3.5048188 -2.9028162,-3.502868 -2.9107839,-3.5019958 -2.9107839,-3.5019958 -2.9194464,-3.5030924 -2.9275349,-3.5054677 -2.9346726,-3.5099612 -2.9412431,-3.5157181 -2.9412431,-3.5157181 -2.9467834,-3.524119 -2.9509226,-3.5330071 -2.9528853,-3.5426522 -2.9536139,-3.5527265 -2.9536139,-3.5527265 -2.9529152,-3.562258 -2.9510344,-3.5713723 -2.9470694,-3.5797508 -2.941763,-3.5876558 -2.941763,-3.5876558 -2.9355049,-3.593056 -2.9287223,-3.5972749 -2.9210589,-3.5995103 -2.912863,-3.6005464 -2.912863,-3.6005464 -2.8993126,-3.5992586 -2.8860423,-3.5961803 -2.8924876,-3.6437923 -2.8924876,-3.6437923 -2.9022291,-3.6440771 -2.9116144,-3.6455308 -2.9203557,-3.6490975 -2.9286644,-3.6540839 -2.9286644,-3.6540839 -2.9340511,-3.6603441 -2.9381776,-3.6671549 -2.9402578,-3.6748595 -2.9411391,-3.6830878 -2.9411391,-3.6830878 -2.9405578,-3.6898767 -2.9390771,-3.69632 -2.9360295,-3.7021611 -2.931991,-3.7076215 -2.931991,-3.7076215 -2.9265812,-3.7116455 -2.9207925,-3.7146898 -2.9144021,-3.7161778 -2.9076653,-3.7167696 -2.9076653,-3.7167696 -2.9005418,-3.7159644 -2.893816,-3.7141824 -2.8877543,-3.7107688 -2.8820919,-3.706374 -2.8820919,-3.706374 -2.8770267,-3.6995988 -2.8730313,-3.6923511 -2.8706616,-3.6843857 -2.8692013,-3.6760187 -2.815352,-3.6851669 -2.815352,-3.6851669 -2.8181226,-3.696789 -2.8216469,-3.7081145 -2.8265237,-3.7189078 -2.8322969,-3.7293483 -2.8322969,-3.7293483 -2.8389651,-3.7373323 -2.8463203,-3.7444876 -2.8547858,-3.7503035 -2.8638996,-3.7553374 -2.8638996,-3.7553374 -2.8748883,-3.7594429 -2.8860826,-3.7625774 -2.8976088,-3.7641444 -2.9093285,-3.7647975 -2.9093285,-3.7647975 -2.9286265,-3.7629551 -2.9379365,-3.7612003 -2.9468396,-3.7584451 -2.9552293,-3.7544278 -2.9631813,-3.7493343 -2.9783556,-3.737353 -2.9783556,-3.737353 -2.9871769,-3.726113 -2.9910073,-3.7202516 -2.9941414,-3.7141005 -2.9964042,-3.7075869 -2.9979337,-3.7007682 -2.9997706,-3.6866223 -2.9997706,-3.6866223 -2.9954701,-3.6662379 -2.9921225,-3.6568314 -2.987341,-3.648366 -2.9809447,-3.6409602 -2.9732938,-3.6343778 -2.9559009,-3.6225852 -2.9559009,-3.6225852 -2.9679106,-3.6188352 -2.9790932,-3.613718 -2.984144,-3.6102657 -2.9888731,-3.6062818 -2.9977954,-3.5974278 -2.9977954,-3.5974278 -3.0045844,-3.5865965 -3.0074809,-3.5810125 -3.0097796,-3.5752267 -3.0123917,-3.5629844 -3.0134927,-3.5502316 -3.0134927,-3.5502316 -3.0111659,-3.5309923 -3.0091472,-3.5217383 -3.0061022,-3.5129231 -3.0018082,-3.5046418 -2.9964966,-3.4967956 -2.9841771,-3.4818283 -2.9841771,-3.4818283 -2.9679228,-3.4696822 -2.9594516,-3.4644871 -2.9505674,-3.4603454 -2.9411889,-3.4574648 -2.9314132,-3.4555976 -2.9111997,-3.4535522 -2.9111997,-3.4535522 -2.892502,-3.4551485 -2.8834098,-3.45667 -2.8746254,-3.4590594 -2.8662295,-3.462544 -2.858165,-3.4669629 -2.8425886,-3.4773582 -2.8425886,-3.4773582 -2.8305305,-3.4907967 -2.82522,-3.4978839 -2.8207718,-3.5054126 -2.8173564,-3.5134703 -2.8147715,-3.5219533 -2.8109858,-3.539628z" transform="matrix(1,0,0,-1,4.445,1.8775)" fill="rgb(104,104,104)" fill-rule="nonzero" shaper:cutDepth="0.0000762" stroke-linecap="round" stroke-linejoin="round" /><path d="M-2.5901826,-3.5346381 L-2.5619065,-3.5346381 -2.5619065,-3.5803789 -2.5993308,-3.5803789 -2.6118056,-3.6417131 -2.5619065,-3.6417131 -2.5619065,-3.6876618 -2.6211616,-3.6876618 -2.6375867,-3.7687478 -2.6841592,-3.7687478 -2.6677341,-3.6876618 -2.7136828,-3.6876618 -2.729692,-3.7687478 -2.7779278,-3.7687478 -2.7612948,-3.6876618 -2.7899868,-3.6876618 -2.7899868,-3.6417131 -2.7519387,-3.6417131 -2.739464,-3.5803789 -2.7899868,-3.5803789 -2.7899868,-3.5346381 -2.7301078,-3.5346381 -2.7136828,-3.4535522 -2.6673183,-3.4535522 -2.6833275,-3.5346381 -2.6371709,-3.5346381 -2.6207458,-3.4535522 -2.5737574,-3.4535522 -2.5901826,-3.5346381z M-2.6585859,-3.6417131 L-2.6463191,-3.5803789 -2.6924757,-3.5803789 -2.7045346,-3.6417131 -2.6585859,-3.6417131z" transform="matrix(1,0,0,-1,4.445,1.8775)" fill="rgb(104,104,104)" fill-rule="nonzero" shaper:cutDepth="0.0000762" stroke-linecap="round" stroke-linejoin="round" /><path d="M-2.4995326,-4.1636 L-2.6120134,-4.1636 -2.6120134,-4.1636 -2.6266556,-4.163416 -2.6412283,-4.1626016 -2.6556713,-4.1606121 -2.6700211,-4.1577784 -2.6700211,-4.1577784 -2.6828054,-4.1528838 -2.6948829,-4.1468328 -2.7057808,-4.1388515 -2.7159697,-4.1297102 -2.7159697,-4.1297102 -2.7251052,-4.1184684 -2.7332062,-4.1066127 -2.7396317,-4.0937625 -2.7450774,-4.080331 -2.7450774,-4.080331 -2.7496296,-4.0626196 -2.7529863,-4.0447345 -2.7545289,-4.0265856 -2.7550574,-4.0082892 -2.7550574,-4.0082892 -2.7545184,-3.9918021 -2.7530423,-3.9754555 -2.7499081,-3.9593576 -2.7457012,-3.9434205 -2.7457012,-3.9434205 -2.7397051,-3.9286301 -2.7325652,-3.9145415 -2.723438,-3.9016722 -2.713059,-3.8895711 -2.713059,-3.8895711 -2.7032488,-3.8817402 -2.6928653,-3.8749109 -2.6815916,-3.8696371 -2.6698132,-3.8652453 -2.6698132,-3.8652453 -2.6563763,-3.8622066 -2.6428311,-3.8600201 -2.6291286,-3.8590718 -2.61534,-3.8588 -2.4995326,-3.8588 -2.4995326,-4.1636z M-2.5610748,-4.1120377 L-2.5610748,-3.9101544 -2.6070235,-3.9101544 -2.6070235,-3.9101544 -2.6257225,-3.9105873 -2.6442399,-3.9130652 -2.6442399,-3.9130652 -2.6509941,-3.9151849 -2.6574601,-3.9178626 -2.6634283,-3.921504 -2.6690854,-3.9257479 -2.6690854,-3.9257479 -2.6744809,-3.9323249 -2.6790563,-3.9393685 -2.6824493,-3.9470849 -2.6851986,-3.9551675 -2.6851986,-3.9551675 -2.6881628,-3.9689541 -2.6902829,-3.9828425 -2.6911894,-3.9968775 -2.6914361,-4.0109921 -2.6914361,-4.0109921 -2.6912249,-4.024728 -2.6903428,-4.0383795 -2.6882143,-4.0518742 -2.6851986,-4.0652573 -2.6851986,-4.0652573 -2.6820702,-4.0733843 -2.6782967,-4.0811224 -2.6733834,-4.0881735 -2.6677339,-4.0947809 -2.6677339,-4.0947809 -2.6613105,-4.0997356 -2.6544964,-4.1039241 -2.6470552,-4.1068825 -2.6392499,-4.1091269 -2.6392499,-4.1091269 -2.6140654,-4.1117021 -2.5887271,-4.1120377 -2.5610748,-4.1120377z" transform="matrix(1,0,0,-1,4.445,1.8775)" fill="rgb(104,104,104)" fill-rule="nonzero" shaper:cutDepth="0.0000762" stroke-linecap="round" stroke-linejoin="round" /><path d="M0.6919334,-3.45875 L0.6919334,-3.76355 0.4659323,-3.76355 0.4659323,-3.7119877 0.6303913,-3.7119877 0.6303913,-3.644416 0.4773676,-3.644416 0.4773676,-3.5930616 0.6303913,-3.5930616 0.6303913,-3.5101044 0.4601108,-3.5101044 0.4601108,-3.45875 0.6919334,-3.45875z" transform="matrix(1,0,0,-1,4.445,1.8775)" fill="rgb(104,104,104)" fill-rule="nonzero" shaper:cutDepth="0.0000762" stroke-linecap="round" stroke-linejoin="round" /><path d="M-0.6919334,-3.5130152 L-0.6919334,-3.45875 -0.4871394,-3.45875 -0.4871394,-3.45875 -0.4899052,-3.4740883 -0.4938932,-3.4890098 -0.4998972,-3.5032438 -0.5070989,-3.5170695 -0.5070989,-3.5170695 -0.5218387,-3.5368208 -0.5376347,-3.555644 -0.5548436,-3.5732256 -0.5727994,-3.5901508 -0.5727994,-3.5901508 -0.5980529,-3.6141217 -0.6099109,-3.6268363 -0.621243,-3.6400499 -0.621243,-3.6400499 -0.6260795,-3.6483925 -0.6299596,-3.6570489 -0.6321645,-3.6662548 -0.6333019,-3.6758108 -0.6333019,-3.6758108 -0.6327255,-3.6840736 -0.6310885,-3.6919471 -0.627563,-3.6991273 -0.6228025,-3.7058542 -0.6228025,-3.7058542 -0.6163296,-3.7105468 -0.6094121,-3.7140577 -0.601802,-3.7157284 -0.5937986,-3.7163538 -0.5937986,-3.7163538 -0.5857214,-3.7156509 -0.5780664,-3.7138654 -0.5711464,-3.7101953 -0.5646908,-3.7053344 -0.5646908,-3.7053344 -0.5592996,-3.6970222 -0.555286,-3.6882032 -0.5532239,-3.6786664 -0.552216,-3.6687418 -0.4940004,-3.6745634 -0.4940004,-3.6745634 -0.4973601,-3.6942531 -0.4998079,-3.7037172 -0.503177,-3.7127242 -0.5077478,-3.7211354 -0.5134269,-3.7289968 -0.5266428,-3.7437983 -0.5266428,-3.7437983 -0.5425334,-3.7530576 -0.5507018,-3.7569788 -0.5591375,-3.7600507 -0.5678826,-3.7621396 -0.5768711,-3.7634551 -0.5952539,-3.7647975 -0.5952539,-3.7647975 -0.6146503,-3.7633881 -0.6240763,-3.7619228 -0.6331757,-3.7595447 -0.6418548,-3.7559922 -0.6501614,-3.7513984 -0.6661522,-3.7404717 -0.6661522,-3.7404717 -0.6770871,-3.7272657 -0.681786,-3.7203341 -0.6855627,-3.7130082 -0.6882189,-3.7052032 -0.6899635,-3.6970084 -0.6919334,-3.6799691 -0.6919334,-3.6799691 -0.6913724,-3.6699284 -0.6901145,-3.6600195 -0.6876869,-3.6503317 -0.6845524,-3.6407775 -0.6845524,-3.6407775 -0.6796848,-3.6304499 -0.6742556,-3.6204557 -0.6611623,-3.6017939 -0.6611623,-3.6017939 -0.6427378,-3.5816713 -0.6229064,-3.5629142 -0.6229064,-3.5629142 -0.6050684,-3.5464041 -0.5878732,-3.5292324 -0.5878732,-3.5292324 -0.5814894,-3.5214217 -0.5759182,-3.5130152 -0.6919334,-3.5130152z" transform="matrix(1,0,0,-1,4.445,1.8775)" fill="rgb(104,104,104)" fill-rule="nonzero" shaper:cutDepth="0.0000762" stroke-linecap="round" stroke-linejoin="round" /><path d="M-0.271742,-3.5346381 L-0.2434659,-3.5346381 -0.2434659,-3.5803789 -0.2808902,-3.5803789 -0.293365,-3.6417131 -0.2434659,-3.6417131 -0.2434659,-3.6876618 -0.302721,-3.6876618 -0.3191461,-3.7687478 -0.3657186,-3.7687478 -0.3492934,-3.6876618 -0.3952422,-3.6876618 -0.4112513,-3.7687478 -0.4594872,-3.7687478 -0.4428541,-3.6876618 -0.4715461,-3.6876618 -0.4715461,-3.6417131 -0.4334981,-3.6417131 -0.4210233,-3.5803789 -0.4715461,-3.5803789 -0.4715461,-3.5346381 -0.4116671,-3.5346381 -0.3952422,-3.4535522 -0.3488776,-3.4535522 -0.3648867,-3.5346381 -0.3187303,-3.5346381 -0.3023052,-3.4535522 -0.2553168,-3.4535522 -0.271742,-3.5346381z M-0.3401453,-3.6417131 L-0.3278784,-3.5803789 -0.3740351,-3.5803789 -0.3860938,-3.6417131 -0.3401453,-3.6417131z" transform="matrix(1,0,0,-1,4.445,1.8775)" fill="rgb(104,104,104)" fill-rule="nonzero" shaper:cutDepth="0.0000762" stroke-linecap="round" stroke-linejoin="round" /><path d="M0.1247476,-4.1636 L0.0122669,-4.1636 0.0122669,-4.1636 -0.0023754,-4.163416 -0.0169481,-4.1626016 -0.031391,-4.1606121 -0.0457408,-4.1577784 -0.0457408,-4.1577784 -0.0585251,-4.1528838 -0.0706027,-4.1468328 -0.0815006,-4.1388515 -0.0916895,-4.1297102 -0.0916895,-4.1297102 -0.1008251,-4.1184684 -0.1089262,-4.1066127 -0.1153517,-4.0937626 -0.1207974,-4.080331 -0.1207974,-4.080331 -0.1253494,-4.0626196 -0.128706,-4.0447345 -0.1302486,-4.0265856 -0.1307771,-4.0082892 -0.1307771,-4.0082892 -0.1302381,-3.9918021 -0.128762,-3.9754556 -0.1256279,-3.9593576 -0.1214211,-3.9434205 -0.1214211,-3.9434205 -0.1154249,-3.9286301 -0.1082849,-3.9145416 -0.0991578,-3.9016722 -0.0887787,-3.8895711 -0.0887787,-3.8895711 -0.0789685,-3.8817401 -0.068585,-3.8749108 -0.0573114,-3.8696371 -0.0455329,-3.8652453 -0.0455329,-3.8652453 -0.032096,-3.8622066 -0.0185508,-3.8600201 -0.0048483,-3.8590717 0.0089402,-3.8588 0.1247476,-3.8588 0.1247476,-4.1636z M0.0632055,-4.1120377 L0.0632055,-3.9101544 0.0172567,-3.9101544 0.0172567,-3.9101544 -0.0014422,-3.9105873 -0.0199596,-3.9130652 -0.0199596,-3.9130652 -0.0267139,-3.9151849 -0.0331799,-3.9178626 -0.0391481,-3.921504 -0.0448052,-3.9257479 -0.0448052,-3.9257479 -0.0502007,-3.9323249 -0.0547761,-3.9393686 -0.0581691,-3.9470849 -0.0609185,-3.9551675 -0.0609185,-3.9551675 -0.0638826,-3.9689541 -0.0660026,-3.9828426 -0.0669091,-3.9968775 -0.0671558,-4.0109921 -0.0671558,-4.0109921 -0.0669448,-4.024728 -0.0660627,-4.0383795 -0.0639343,-4.0518742 -0.0609185,-4.0652573 -0.0609185,-4.0652573 -0.0577901,-4.0733843 -0.0540166,-4.0811225 -0.0491033,-4.0881735 -0.0434538,-4.0947809 -0.0434538,-4.0947809 -0.0370303,-4.0997356 -0.0302162,-4.1039241 -0.022775,-4.1068825 -0.0149698,-4.1091269 -0.0149698,-4.1091269 0.0102147,-4.1117021 0.035553,-4.1120377 0.0632055,-4.1120377z" transform="matrix(1,0,0,-1,4.445,1.8775)" fill="rgb(104,104,104)" fill-rule="nonzero" shaper:cutDepth="0.0000762" stroke-linecap="round" stroke-linejoin="round" /><path d="M-0.1827552,-4.1636 L-0.2952361,-4.1636 -0.2952361,-4.1636 -0.3098783,-4.163416 -0.324451,-4.1626016 -0.3388939,-4.1606121 -0.3532437,-4.1577784 -0.3532437,-4.1577784 -0.3660279,-4.1528838 -0.3781055,-4.1468328 -0.3890033,-4.1388515 -0.3991923,-4.1297102 -0.3991923,-4.1297102 -0.4083278,-4.1184684 -0.4164289,-4.1066127 -0.4228544,-4.0937626 -0.4283001,-4.080331 -0.4283001,-4.080331 -0.4328521,-4.0626196 -0.4362087,-4.0447345 -0.4377513,-4.0265856 -0.4382798,-4.0082892 -0.4382798,-4.0082892 -0.4377409,-3.9918021 -0.4362647,-3.9754556 -0.4331307,-3.9593576 -0.4289238,-3.9434205 -0.4289238,-3.9434205 -0.4229277,-3.9286301 -0.4157878,-3.9145415 -0.4066606,-3.9016722 -0.3962816,-3.8895711 -0.3962816,-3.8895711 -0.3864713,-3.8817401 -0.3760878,-3.8749108 -0.3648141,-3.8696371 -0.3530356,-3.8652453 -0.3530356,-3.8652453 -0.3395988,-3.8622066 -0.3260536,-3.8600201 -0.3123511,-3.8590717 -0.2985626,-3.8588 -0.1827552,-3.8588 -0.1827552,-4.1636z M-0.2442975,-4.1120377 L-0.2442975,-3.9101544 -0.2902461,-3.9101544 -0.2902461,-3.9101544 -0.308945,-3.9105873 -0.3274624,-3.9130652 -0.3274624,-3.9130652 -0.3342166,-3.9151849 -0.3406826,-3.9178626 -0.3466509,-3.921504 -0.352308,-3.9257479 -0.352308,-3.9257479 -0.3577035,-3.9323249 -0.3622789,-3.9393685 -0.3656719,-3.9470849 -0.3684213,-3.9551675 -0.3684213,-3.9551675 -0.3713853,-3.9689541 -0.3735054,-3.9828426 -0.3744119,-3.9968775 -0.3746587,-4.0109921 -0.3746587,-4.0109921 -0.3744476,-4.024728 -0.3735655,-4.0383795 -0.371437,-4.0518742 -0.3684213,-4.0652573 -0.3684213,-4.0652573 -0.3652929,-4.0733843 -0.3615195,-4.0811225 -0.3566061,-4.0881735 -0.3509566,-4.0947809 -0.3509566,-4.0947809 -0.3445332,-4.0997356 -0.337719,-4.1039241 -0.3302778,-4.1068825 -0.3224725,-4.1091269 -0.3224725,-4.1091269 -0.297288,-4.1117021 -0.2719497,-4.1120377 -0.2442975,-4.1120377z" transform="matrix(1,0,0,-1,4.445,1.8775)" fill="rgb(104,104,104)" fill-rule="nonzero" shaper:cutDepth="0.0000762" stroke-linecap="round" stroke-linejoin="round" /><path d="M2.7349937,-3.45875 L2.6308295,-3.6178032 2.7252219,-3.76355 2.6532841,-3.76355 2.5921577,-3.6656231 2.5322789,-3.76355 2.4609648,-3.76355 2.555773,-3.6155161 2.4516088,-3.45875 2.5258336,-3.45875 2.5934052,-3.5641617 2.6611848,-3.45875 2.7349937,-3.45875z" transform="matrix(1,0,0,-1,4.445,1.8775)" fill="rgb(104,104,104)" fill-rule="nonzero" shaper:cutDepth="0.0000762" stroke-linecap="round" stroke-linejoin="round" /><path d="M2.420006,-3.45875 L2.420006,-3.76355 2.3212475,-3.76355 2.3212475,-3.76355 2.284516,-3.7630876 2.2662542,-3.7614909 2.2480622,-3.7589759 2.2480622,-3.7589759 2.2353425,-3.7541112 2.2292854,-3.7512306 2.2235917,-3.7478122 2.2183334,-3.7437491 2.2134253,-3.7391676 2.2041927,-3.7291404 2.2041927,-3.7291404 2.1962957,-3.7153756 2.1929687,-3.7083012 2.1903865,-3.7009966 2.1886502,-3.6934306 2.1875737,-3.6856608 2.1865201,-3.6697814 2.1865201,-3.6697814 2.1871089,-3.6575426 2.1887176,-3.6455329 2.1921297,-3.6339281 2.1967078,-3.6225852 2.1967078,-3.6225852 2.2019516,-3.6140083 2.2078496,-3.6059996 2.2148721,-3.5989675 2.2225929,-3.5925418 2.2225929,-3.5925418 2.2300879,-3.5878507 2.23784,-3.5837331 2.2460355,-3.5806041 2.2545075,-3.5780919 2.2545075,-3.5780919 2.2703865,-3.5759609 2.2863136,-3.5744679 2.3183367,-3.5737257 2.3584639,-3.5737257 2.3584639,-3.45875 2.420006,-3.45875z M2.3584639,-3.7119877 L2.3584639,-3.625496 2.324782,-3.625496 2.324782,-3.625496 2.3002419,-3.6260551 2.2881337,-3.6277179 2.2761304,-3.630278 2.2761304,-3.630278 2.2705291,-3.6330068 2.2653552,-3.6362817 2.2609056,-3.640482 2.2568985,-3.6452477 2.2568985,-3.6452477 2.253893,-3.6507965 2.2515897,-3.6565546 2.2504271,-3.6626525 2.2499335,-3.6689497 2.2499335,-3.6689497 2.25059,-3.6764611 2.2521961,-3.6836268 2.25544,-3.6901964 2.2597054,-3.6963942 2.2597054,-3.6963942 2.2650937,-3.7012252 2.2709205,-3.7052572 2.2774695,-3.7079732 2.2844469,-3.7099085 2.2844469,-3.7099085 2.306544,-3.7117579 2.3287324,-3.7119877 2.3584639,-3.7119877z" transform="matrix(1,0,0,-1,4.445,1.8775)" fill="rgb(104,104,104)" fill-rule="nonzero" shaper:cutDepth="0.0000762" stroke-linecap="round" stroke-linejoin="round" /><path d="M2.8418608,-3.8588 L2.8418608,-4.161105 2.7803186,-4.161105 2.7803186,-3.9101544 2.6272949,-3.9101544 2.6272949,-3.8588 2.8418608,-3.8588z" transform="matrix(1,0,0,-1,4.445,1.8775)" fill="rgb(104,104,104)" fill-rule="nonzero" shaper:cutDepth="0.0000762" stroke-linecap="round" stroke-linejoin="round" /><path d="M1.8596813,-3.8588 L1.8596813,-4.1636 1.7981392,-4.1636 1.7981392,-3.8588 1.8596813,-3.8588z" transform="matrix(1,0,0,-1,4.445,1.8775)" fill="rgb(104,104,104)" fill-rule="nonzero" shaper:cutDepth="0.0000762" stroke-linecap="round" stroke-linejoin="round" /><path d="M-2.4022888,-0.993825 L-2.5647379,-0.993825 -2.5647379,-0.993825 -2.600792,-0.9931805 -2.6187531,-0.9918011 -2.6366757,-0.9898054 -2.6366757,-0.9898054 -2.6479086,-0.9871963 -2.6588021,-0.9837328 -2.6691211,-0.9788239 -2.6790899,-0.9730338 -2.6790899,-0.9730338 -2.6881975,-0.9657537 -2.6965786,-0.9578032 -2.7037757,-0.94876 -2.7102769,-0.9390747 -2.7102769,-0.9390747 -2.715628,-0.9277806 -2.7197452,-0.9161596 -2.7218436,-0.9040035 -2.7227515,-0.891532 -2.7227515,-0.891532 -2.7215572,-0.877654 -2.7189181,-0.8642007 -2.7138669,-0.8514563 -2.707366,-0.839138 -2.707366,-0.839138 -2.6987492,-0.8280851 -2.6891397,-0.8181888 -2.6778838,-0.8102103 -2.6656449,-0.803377 -2.6656449,-0.803377 -2.6819864,-0.7973076 -2.6898159,-0.7937527 -2.6972359,-0.7895735 -2.7041365,-0.7846023 -2.7105901,-0.7789495 -2.7227515,-0.7665072 -2.7227515,-0.7665072 -2.7313218,-0.7523701 -2.7349881,-0.7450978 -2.7379116,-0.7375808 -2.7399458,-0.7297709 -2.7412648,-0.7217255 -2.7427112,-0.7052422 -2.7427112,-0.7052422 -2.7416527,-0.6912487 -2.7394019,-0.6775383 -2.7351915,-0.6642932 -2.7298206,-0.6513235 -2.7298206,-0.6513235 -2.7228477,-0.6393133 -2.71489,-0.6281353 -2.7052624,-0.6183683 -2.6946141,-0.6094638 -2.6946141,-0.6094638 -2.6817272,-0.6022113 -2.6683478,-0.5963376 -2.6541904,-0.5926425 -2.6395865,-0.5901972 -2.6395865,-0.5901972 -2.5901322,-0.5879433 -2.54062,-0.587425 -2.4022888,-0.587425 -2.4022888,-0.993825z M-2.484345,-0.9261841 L-2.484345,-0.8322076 -2.5381251,-0.8322076 -2.5381251,-0.8322076 -2.5679434,-0.8323083 -2.5977267,-0.8335936 -2.5977267,-0.8335936 -2.6068728,-0.8353178 -2.6155664,-0.8380444 -2.6234648,-0.8425321 -2.6308541,-0.8481475 -2.6308541,-0.8481475 -2.6361359,-0.8552001 -2.6401433,-0.8627488 -2.6421163,-0.8710899 -2.6429131,-0.8798889 -2.6429131,-0.8798889 -2.6422575,-0.8882269 -2.6405783,-0.8962068 -2.6371135,-0.903562 -2.6325175,-0.9105214 -2.6325175,-0.9105214 -2.6257554,-0.9161057 -2.6184358,-0.9205261 -2.6102619,-0.9231633 -2.6016078,-0.924798 -2.6016078,-0.924798 -2.5665556,-0.9261056 -2.5314719,-0.9261841 -2.484345,-0.9261841z M-2.484345,-0.7645666 L-2.484345,-0.6558976 -2.5603025,-0.6558976 -2.5603025,-0.6558976 -2.5884971,-0.6561107 -2.6165775,-0.6583925 -2.6165775,-0.6583925 -2.6249857,-0.6607007 -2.6328788,-0.6639478 -2.6398966,-0.6687902 -2.6463783,-0.6746097 -2.6463783,-0.6746097 -2.6515208,-0.6824533 -2.6553679,-0.6907454 -2.6571981,-0.6997359 -2.6578828,-0.7091233 -2.6578828,-0.7091233 -2.6573063,-0.7173664 -2.6558615,-0.725355 -2.6529104,-0.7329021 -2.6490119,-0.7401715 -2.6490119,-0.7401715 -2.6436541,-0.7462509 -2.6377064,-0.7515257 -2.6308124,-0.7555098 -2.6233693,-0.7587451 -2.6233693,-0.7587451 -2.6053471,-0.7619465 -2.587211,-0.7639787 -2.5689399,-0.7646271 -2.5505998,-0.7645666 -2.484345,-0.7645666z" transform="matrix(1,0,0,-1,4.445,1.8775)" fill="rgb(104,104,104)" fill-rule="nonzero" shaper:cutDepth="0.0000762" stroke-linecap="round" stroke-linejoin="round" /><path d="M-0.826797,-1.54945 L-0.9088532,-1.54945 -0.9088532,-1.3293398 -0.9088532,-1.3293398 -0.9091489,-1.2953131 -0.9102143,-1.2783502 -0.9119026,-1.2614216 -0.9119026,-1.2614216 -0.9156232,-1.249805 -0.9179164,-1.2442686 -0.9207292,-1.2390584 -0.9241808,-1.2342493 -0.9281585,-1.2297706 -0.9369907,-1.2213638 -0.9369907,-1.2213638 -0.9496168,-1.2144497 -0.9560982,-1.2115648 -0.9627807,-1.2093635 -0.9696839,-1.2079127 -0.9767571,-1.2070394 -0.9911866,-1.2062555 -0.9911866,-1.2062555 -1.005218,-1.2068674 -1.0188126,-1.208975 -1.0253129,-1.2110458 -1.0316091,-1.2138157 -1.0438578,-1.2205321 -1.0438578,-1.2205321 -1.0514579,-1.2279334 -1.0578417,-1.2360686 -1.0621569,-1.2454517 -1.0652036,-1.2556001 -1.0652036,-1.2556001 -1.0670464,-1.2728006 -1.0682901,-1.2900369 -1.0688074,-1.3246271 -1.0688074,-1.54945 -1.1508635,-1.54945 -1.1508635,-1.335993 -1.1508635,-1.335993 -1.1507825,-1.3100253 -1.14994,-1.284114 -1.1476406,-1.2583107 -1.1442103,-1.2325911 -1.1442103,-1.2325911 -1.1402558,-1.2187805 -1.135139,-1.2055345 -1.1280267,-1.1932581 -1.1196767,-1.1815831 -1.1196767,-1.1815831 -1.1091025,-1.1713298 -1.0977503,-1.1621872 -1.0851604,-1.154812 -1.0718567,-1.1484557 -1.0718567,-1.1484557 -1.0527565,-1.142728 -1.0333947,-1.1385591 -1.0136451,-1.1367015 -0.9936816,-1.1361196 -0.9936816,-1.1361196 -0.9711222,-1.1365703 -0.9488046,-1.1384688 -0.937811,-1.1404078 -0.9269362,-1.1430578 -0.905388,-1.1495646 -0.905388,-1.1495646 -0.8920877,-1.1563929 -0.879535,-1.1642274 -0.8682811,-1.1738101 -0.8578453,-1.1844939 -0.8578453,-1.1844939 -0.8503347,-1.1948666 -0.8437599,-1.2057125 -0.8387964,-1.2173734 -0.8348362,-1.2295416 -0.8348362,-1.2295416 -0.8308907,-1.2551559 -0.8281384,-1.280873 -0.827029,-1.3067318 -0.826797,-1.3326664 -0.826797,-1.54945z" transform="matrix(1,0,0,-1,4.445,1.8775)" fill="rgb(104,104,104)" fill-rule="nonzero" shaper:cutDepth="0.0000762" stroke-linecap="round" stroke-linejoin="round" /><path d="M-2.6885859,-1.14305 L-2.6885859,-1.54945 -2.861292,-1.54945 -2.861292,-1.54945 -2.8852853,-1.5492134 -2.9091196,-1.5477564 -2.9209276,-1.5461905 -2.9326531,-1.5439913 -2.9559616,-1.5384999 -2.9559616,-1.5384999 -2.9700376,-1.5315179 -2.9766864,-1.5275524 -2.9828684,-1.5230175 -2.9884879,-1.5177969 -2.9936533,-1.5120226 -3.0032271,-1.4995509 -3.0032271,-1.4995509 -3.010868,-1.4844408 -3.014133,-1.47673 -3.0167315,-1.4688322 -3.0185347,-1.4607113 -3.0197004,-1.4524115 -3.020969,-1.4355139 -3.020969,-1.4355139 -3.0191588,-1.4148415 -3.0174374,-1.4048023 -3.0147364,-1.3951194 -3.0108002,-1.3858858 -3.0058114,-1.3770352 -2.994079,-1.3599722 -2.994079,-1.3599722 -2.9763885,-1.345615 -2.9671061,-1.339338 -2.957301,-1.3341393 -2.9469177,-1.3301331 -2.9360883,-1.3270473 -2.9136859,-1.3224093 -2.9136859,-1.3224093 -2.9255188,-1.3149699 -2.9369046,-1.3069584 -2.9475112,-1.2979503 -2.9576248,-1.2883117 -2.9576248,-1.2883117 -2.970335,-1.272561 -2.9823927,-1.2563403 -3.004336,-1.222334 -3.0539578,-1.14305 -2.9558231,-1.14305 -2.8964986,-1.2314822 -2.8964986,-1.2314822 -2.8758029,-1.262036 -2.8532528,-1.2912224 -2.8532528,-1.2912224 -2.8477681,-1.296461 -2.8419243,-1.3011682 -2.8354522,-1.304946 -2.8285805,-1.3081327 -2.8285805,-1.3081327 -2.8183966,-1.3104202 -2.8081236,-1.3119922 -2.7872752,-1.3127067 -2.7706422,-1.3127067 -2.7706422,-1.14305 -2.6885859,-1.14305z M-2.7706422,-1.3775755 L-2.8313526,-1.3775755 -2.8313526,-1.3775755 -2.8499041,-1.3774561 -2.8684019,-1.3779668 -2.886794,-1.379717 -2.9050924,-1.3825654 -2.9050924,-1.3825654 -2.9118306,-1.3855486 -2.9180362,-1.3892414 -2.9233424,-1.3941326 -2.9281014,-1.3997529 -2.9281014,-1.3997529 -2.9318028,-1.4069186 -2.9345803,-1.4143451 -2.9359112,-1.4221796 -2.9364177,-1.4302467 -2.9364177,-1.4302467 -2.9357482,-1.4392361 -2.9339939,-1.4478544 -2.9303378,-1.4558219 -2.9254679,-1.4633741 -2.9254679,-1.4633741 -2.9187502,-1.4692733 -2.9114597,-1.4740863 -2.903267,-1.4771895 -2.8945581,-1.4793141 -2.8945581,-1.4793141 -2.8646376,-1.4806292 -2.8346793,-1.4807002 -2.7706422,-1.4807002 -2.7706422,-1.3775755z" transform="matrix(1,0,0,-1,4.445,1.8775)" fill="rgb(104,104,104)" fill-rule="nonzero" shaper:cutDepth="0.0000762" stroke-linecap="round" stroke-linejoin="round" /><path d="M-2.2101094,-1.14305 L-2.1130835,-1.54945 -2.1970803,-1.54945 -2.2583451,-1.2702926 -2.3326393,-1.54945 -2.4302195,-1.54945 -2.5014645,-1.2655799 -2.5638381,-1.54945 -2.646449,-1.54945 -2.5477597,-1.14305 -2.4607135,-1.14305 -2.3797661,-1.4468798 -2.299096,-1.14305 -2.2101094,-1.14305z" transform="matrix(1,0,0,-1,4.445,1.8775)" fill="rgb(104,104,104)" fill-rule="nonzero" shaper:cutDepth="0.0000762" stroke-linecap="round" stroke-linejoin="round" /><path d="M1.0277112,-0.993825 L0.8652621,-0.993825 0.8652621,-0.993825 0.829208,-0.9931805 0.8112469,-0.9918011 0.7933243,-0.9898054 0.7933243,-0.9898054 0.7820914,-0.9871963 0.7711979,-0.9837328 0.7608789,-0.9788239 0.7509101,-0.9730338 0.7509101,-0.9730338 0.7418025,-0.9657537 0.7334214,-0.9578032 0.7262243,-0.94876 0.7197231,-0.9390747 0.7197231,-0.9390747 0.714372,-0.9277806 0.7102548,-0.9161596 0.7081564,-0.9040035 0.7072485,-0.891532 0.7072485,-0.891532 0.7084428,-0.877654 0.7110819,-0.8642007 0.7161331,-0.8514563 0.722634,-0.839138 0.722634,-0.839138 0.7312508,-0.8280851 0.7408603,-0.8181888 0.7521162,-0.8102103 0.7643551,-0.803377 0.7643551,-0.803377 0.7480136,-0.7973076 0.7401841,-0.7937527 0.7327641,-0.7895735 0.7258635,-0.7846023 0.7194099,-0.7789495 0.7072485,-0.7665072 0.7072485,-0.7665072 0.6986782,-0.7523701 0.6950119,-0.7450978 0.6920884,-0.7375808 0.6900542,-0.7297709 0.6887352,-0.7217255 0.6872888,-0.7052422 0.6872888,-0.7052422 0.6883473,-0.6912487 0.6905981,-0.6775383 0.6948085,-0.6642932 0.7001794,-0.6513235 0.7001794,-0.6513235 0.7071523,-0.6393133 0.71511,-0.6281353 0.7247376,-0.6183683 0.7353859,-0.6094638 0.7353859,-0.6094638 0.7482728,-0.6022113 0.7616522,-0.5963376 0.7758096,-0.5926425 0.7904135,-0.5901972 0.7904135,-0.5901972 0.8398678,-0.5879433 0.88938,-0.587425 1.0277112,-0.587425 1.0277112,-0.993825z M0.945655,-0.9261841 L0.945655,-0.8322076 0.8918749,-0.8322076 0.8918749,-0.8322076 0.8620566,-0.8323083 0.8322733,-0.8335936 0.8322733,-0.8335936 0.8231272,-0.8353178 0.8144336,-0.8380444 0.8065352,-0.8425321 0.7991459,-0.8481475 0.7991459,-0.8481475 0.7938641,-0.8552001 0.7898567,-0.8627488 0.7878837,-0.8710899 0.7870869,-0.8798889 0.7870869,-0.8798889 0.7877425,-0.8882269 0.7894217,-0.8962068 0.7928865,-0.903562 0.7974825,-0.9105214 0.7974825,-0.9105214 0.8042446,-0.9161057 0.8115642,-0.9205261 0.8197381,-0.9231633 0.8283922,-0.924798 0.8283922,-0.924798 0.8634444,-0.9261056 0.8985281,-0.9261841 0.945655,-0.9261841z M0.945655,-0.7645666 L0.945655,-0.6558976 0.8696975,-0.6558976 0.8696975,-0.6558976 0.8415029,-0.6561107 0.8134225,-0.6583925 0.8134225,-0.6583925 0.8050143,-0.6607007 0.7971212,-0.6639478 0.7901034,-0.6687902 0.7836217,-0.6746097 0.7836217,-0.6746097 0.7784792,-0.6824533 0.7746321,-0.6907454 0.7728019,-0.6997359 0.7721172,-0.7091233 0.7721172,-0.7091233 0.7726937,-0.7173664 0.7741385,-0.725355 0.7770896,-0.7329021 0.7809881,-0.7401715 0.7809881,-0.7401715 0.7863459,-0.7462509 0.7922936,-0.7515257 0.7991876,-0.7555098 0.8066307,-0.7587451 0.8066307,-0.7587451 0.8246529,-0.7619465 0.842789,-0.7639787 0.8610601,-0.7646271 0.8794002,-0.7645666 0.945655,-0.7645666z" transform="matrix(1,0,0,-1,4.445,1.8775)" fill="rgb(104,104,104)" fill-rule="nonzero" shaper:cutDepth="0.0000762" stroke-linecap="round" stroke-linejoin="round" /><path d="M2.6837345,-1.14305 L2.6837345,-1.54945 2.6016783,-1.54945 2.6016783,-1.14305 2.6837345,-1.14305z" transform="matrix(1,0,0,-1,4.445,1.8775)" fill="rgb(104,104,104)" fill-rule="nonzero" shaper:cutDepth="0.0000762" stroke-linecap="round" stroke-linejoin="round" /><path d="M0.7038511,-1.14305 L0.7038511,-1.54945 0.531145,-1.54945 0.531145,-1.54945 0.5071517,-1.5492134 0.4833174,-1.5477564 0.4715094,-1.5461905 0.4597839,-1.5439913 0.4364754,-1.5384999 0.4364754,-1.5384999 0.4223994,-1.5315179 0.4157506,-1.5275524 0.4095686,-1.5230175 0.4039491,-1.5177969 0.3987837,-1.5120226 0.3892099,-1.4995509 0.3892099,-1.4995509 0.381569,-1.4844408 0.378304,-1.47673 0.3757055,-1.4688322 0.3739023,-1.4607113 0.3727366,-1.4524115 0.371468,-1.4355139 0.371468,-1.4355139 0.3732782,-1.4148415 0.3749996,-1.4048023 0.3777006,-1.3951194 0.3816368,-1.3858858 0.3866256,-1.3770352 0.398358,-1.3599722 0.398358,-1.3599722 0.4160485,-1.345615 0.4253309,-1.339338 0.435136,-1.3341393 0.4455193,-1.3301331 0.4563487,-1.3270473 0.4787511,-1.3224093 0.4787511,-1.3224093 0.4669182,-1.3149698 0.4555324,-1.3069583 0.4449258,-1.2979502 0.434812,-1.2883117 0.434812,-1.2883117 0.422102,-1.2725609 0.4100444,-1.2563401 0.388101,-1.222334 0.3384792,-1.14305 0.4366139,-1.14305 0.4959384,-1.2314822 0.4959384,-1.2314822 0.5166341,-1.262036 0.5391842,-1.2912224 0.5391842,-1.2912224 0.5446689,-1.2964609 0.5505128,-1.3011681 0.5569848,-1.304946 0.5638565,-1.3081327 0.5638565,-1.3081327 0.5740404,-1.3104202 0.5843134,-1.3119922 0.6051618,-1.3127067 0.6217948,-1.3127067 0.6217948,-1.14305 0.7038511,-1.14305z M0.6217948,-1.3775755 L0.5610844,-1.3775755 0.5610844,-1.3775755 0.5425329,-1.3774561 0.5240351,-1.3779668 0.505643,-1.379717 0.4873446,-1.3825654 0.4873446,-1.3825654 0.4806065,-1.3855486 0.474401,-1.3892415 0.4690948,-1.3941327 0.4643358,-1.3997529 0.4643358,-1.3997529 0.4606344,-1.4069186 0.457857,-1.4143451 0.4565259,-1.4221796 0.4560193,-1.4302467 0.4560193,-1.4302467 0.4566889,-1.4392361 0.4584433,-1.4478543 0.4620994,-1.4558218 0.4669691,-1.4633741 0.4669691,-1.4633741 0.4736868,-1.4692733 0.4809773,-1.4740863 0.48917,-1.4771895 0.4978789,-1.4793141 0.4978789,-1.4793141 0.5277994,-1.4806292 0.5577577,-1.4807002 0.6217948,-1.4807002 0.6217948,-1.3775755z" transform="matrix(1,0,0,-1,4.445,1.8775)" fill="rgb(104,104,104)" fill-rule="nonzero" shaper:cutDepth="0.0000762" stroke-linecap="round" stroke-linejoin="round" /><path d="M1.6186671,-1.14305 L1.6186671,-1.54945 1.4869892,-1.54945 1.4869892,-1.54945 1.4624732,-1.549513 1.4380138,-1.5488335 1.4136647,-1.5467046 1.3894087,-1.5433512 1.3894087,-1.5433512 1.372449,-1.536865 1.3643729,-1.5330242 1.3567812,-1.5284663 1.3497701,-1.5230488 1.343226,-1.5169401 1.3309159,-1.5035706 1.3309159,-1.5035706 1.3203866,-1.4852175 1.3159507,-1.4757849 1.3125077,-1.4660454 1.3101928,-1.4559574 1.3087574,-1.4455977 1.3073526,-1.4244252 1.3073526,-1.4244252 1.3081377,-1.4081069 1.3102826,-1.3920939 1.3148321,-1.3766209 1.3209361,-1.3614969 1.3209361,-1.3614969 1.3279278,-1.3500611 1.3357919,-1.3393829 1.3451552,-1.3300066 1.3554497,-1.3214391 1.3554497,-1.3214391 1.365443,-1.3151843 1.3757791,-1.3096941 1.3867065,-1.3055222 1.3980025,-1.3021725 1.3980025,-1.3021725 1.4191745,-1.2993313 1.4404105,-1.2973406 1.4617355,-1.2965298 1.4831081,-1.2963509 1.536611,-1.2963509 1.536611,-1.14305 1.6186671,-1.14305z M1.536611,-1.4807002 L1.536611,-1.365378 1.4917017,-1.365378 1.4917017,-1.365378 1.4752974,-1.3653724 1.4589816,-1.3661234 1.4428373,-1.3683405 1.426833,-1.371754 1.426833,-1.371754 1.4193646,-1.3753924 1.4124661,-1.3797589 1.4065333,-1.3853594 1.4011904,-1.3917136 1.4011904,-1.3917136 1.3971831,-1.3991121 1.3941119,-1.4067894 1.3925619,-1.41492 1.3919036,-1.4233163 1.3919036,-1.4233163 1.392779,-1.4333314 1.3949205,-1.4428857 1.3992457,-1.4516452 1.4049329,-1.4599089 1.4049329,-1.4599089 1.4121173,-1.4663503 1.4198863,-1.4717263 1.4286184,-1.4753476 1.4379217,-1.477928 1.4379217,-1.477928 1.4673845,-1.4803938 1.4969689,-1.4807002 1.536611,-1.4807002z" transform="matrix(1,0,0,-1,4.445,1.8775)" fill="rgb(104,104,104)" fill-rule="nonzero" shaper:cutDepth="0.0000762" stroke-linecap="round" stroke-linejoin="round" /><path d="M2.368607,-0.587425 L2.4578708,-0.587425 2.4933546,-0.6797383 2.6558037,-0.6797383 2.689347,-0.587425 2.7763931,-0.587425 2.6181022,-0.993825 2.5313333,-0.993825 2.368607,-0.587425z M2.5196902,-0.7482108 L2.5756881,-0.8990169 2.630577,-0.7482108 2.5196902,-0.7482108z" transform="matrix(1,0,0,-1,4.445,1.8775)" fill="rgb(104,104,104)" fill-rule="nonzero" shaper:cutDepth="0.0000762" stroke-linecap="round" stroke-linejoin="round" /><path d="M-1.6265073,-3.45875 L-1.6265073,-3.76355 -1.8525083,-3.76355 -1.8525083,-3.7119877 -1.6880494,-3.7119877 -1.6880494,-3.644416 -1.8410732,-3.644416 -1.8410732,-3.5930616 -1.6880494,-3.5930616 -1.6880494,-3.5101044 -1.8583299,-3.5101044 -1.8583299,-3.45875 -1.6265073,-3.45875z" transform="matrix(1,0,0,-1,4.445,1.8775)" fill="rgb(104,104,104)" fill-rule="nonzero" shaper:cutDepth="0.0000762" stroke-linecap="round" stroke-linejoin="round" /><path d="M1.1823278,-1.14305 L1.2793536,-1.54945 1.1953569,-1.54945 1.134092,-1.2702926 1.0597979,-1.54945 0.9622175,-1.54945 0.8909727,-1.2655799 0.8285989,-1.54945 0.7459883,-1.54945 0.8446776,-1.14305 0.9317235,-1.14305 1.0126709,-1.4468798 1.093341,-1.14305 1.1823278,-1.14305z" transform="matrix(1,0,0,-1,4.445,1.8775)" fill="rgb(104,104,104)" fill-rule="nonzero" shaper:cutDepth="0.0000762" stroke-linecap="round" stroke-linejoin="round" /><path d="M2.1448249,-1.14305 L2.1448249,-1.54945 2.0131468,-1.54945 2.0131468,-1.54945 1.9886309,-1.549513 1.9641715,-1.5488335 1.9398224,-1.5467046 1.9155665,-1.5433512 1.9155665,-1.5433512 1.8986067,-1.536865 1.8905306,-1.5330242 1.8829389,-1.5284663 1.8759279,-1.5230488 1.8693837,-1.5169401 1.8570737,-1.5035706 1.8570737,-1.5035706 1.8465443,-1.4852175 1.8421083,-1.4757849 1.8386654,-1.4660454 1.8363504,-1.4559575 1.834915,-1.4455977 1.8335102,-1.4244252 1.8335102,-1.4244252 1.8342953,-1.4081069 1.8364402,-1.3920939 1.8409897,-1.3766209 1.8470938,-1.3614969 1.8470938,-1.3614969 1.8540856,-1.3500611 1.8619496,-1.3393829 1.8713129,-1.3300067 1.8816073,-1.3214391 1.8816073,-1.3214391 1.8916006,-1.3151843 1.9019368,-1.3096941 1.9128641,-1.3055222 1.9241601,-1.3021725 1.9241601,-1.3021725 1.9453321,-1.2993313 1.9665682,-1.2973406 1.9878932,-1.2965298 2.0092658,-1.2963509 2.0627686,-1.2963509 2.0627686,-1.14305 2.1448249,-1.14305z M2.0627686,-1.4807002 L2.0627686,-1.365378 2.0178595,-1.365378 2.0178595,-1.365378 2.0014551,-1.3653724 1.9851393,-1.3661234 1.968995,-1.3683405 1.9529907,-1.371754 1.9529907,-1.371754 1.9455223,-1.3753924 1.9386237,-1.3797589 1.932691,-1.3853594 1.9273481,-1.3917136 1.9273481,-1.3917136 1.9233408,-1.3991121 1.9202697,-1.4067894 1.9187196,-1.41492 1.9180614,-1.4233163 1.9180614,-1.4233163 1.9189367,-1.4333314 1.9210783,-1.4428857 1.9254034,-1.4516452 1.9310906,-1.4599089 1.9310906,-1.4599089 1.938275,-1.4663503 1.9460441,-1.4717263 1.9547761,-1.4753476 1.9640794,-1.477928 1.9640794,-1.477928 1.9935422,-1.4803938 2.0231266,-1.4807002 2.0627686,-1.4807002z" transform="matrix(1,0,0,-1,4.445,1.8775)" fill="rgb(104,104,104)" fill-rule="nonzero" shaper:cutDepth="0.0000762" stroke-linecap="round" stroke-linejoin="round" /><path d="M2.5442944,-1.2752825 L2.4644559,-1.2830446 2.4644559,-1.2830446 2.4605615,-1.2665211 2.4580669,-1.2585416 2.4549154,-1.2509007 2.4509083,-1.2437009 2.4461146,-1.2369066 2.4352095,-1.2239973 2.4352095,-1.2239973 2.4215942,-1.2155071 2.4145617,-1.2119415 2.4072598,-1.2091894 2.3996554,-1.2073512 2.3918162,-1.2062223 2.3757465,-1.2051466 2.3757465,-1.2051466 2.3597671,-1.2058807 2.3519427,-1.2067953 2.3443167,-1.208367 2.336951,-1.2108008 2.3298315,-1.2140498 2.3160062,-1.2219182 2.3160062,-1.2219182 2.307865,-1.2301682 2.3043095,-1.2345504 2.301372,-1.2392413 2.2992186,-1.2443238 2.2977399,-1.2497433 2.295908,-1.2611444 2.295908,-1.2611444 2.296507,-1.2678074 2.297918,-1.2741865 2.3007143,-1.2800813 2.3043631,-1.2856781 2.3043631,-1.2856781 2.3109107,-1.2914224 2.3179634,-1.2963524 2.3257317,-1.3001286 2.3338868,-1.3032814 2.3338868,-1.3032814 2.3665894,-1.3126887 2.3995872,-1.3210233 2.3995872,-1.3210233 2.4243107,-1.3276195 2.43643,-1.3314487 2.4482586,-1.3359151 2.459701,-1.3412275 2.4707506,-1.3474007 2.4921776,-1.3612197 2.4921776,-1.3612197 2.5077959,-1.3788185 2.5145466,-1.3880989 2.5200271,-1.3979566 2.5239378,-1.4085277 2.5265482,-1.4196897 2.5296019,-1.4429987 2.5296019,-1.4429987 2.5281737,-1.4584141 2.5269491,-1.4659679 2.5251119,-1.473337 2.5225339,-1.4804828 2.5193556,-1.4874476 2.5119986,-1.5010757 2.5119986,-1.5010757 2.5014901,-1.5140224 2.4958571,-1.5200331 2.4897695,-1.5254889 2.4831442,-1.5302879 2.4760902,-1.5345635 2.4612679,-1.5422424 2.4612679,-1.5422424 2.4417918,-1.5485964 2.4319608,-1.5512672 2.4220183,-1.5533318 2.4017846,-1.5555639 2.3812908,-1.5563804 2.3812908,-1.5563804 2.3503419,-1.5548811 2.3352088,-1.5530393 2.3204855,-1.549887 2.3062993,-1.5450168 2.2926187,-1.5385295 2.2661072,-1.5228372 2.2661072,-1.5228372 2.2492325,-1.5035459 2.241963,-1.4933627 2.2360945,-1.4825345 2.2318914,-1.4709398 2.2290196,-1.4587324 2.2254949,-1.4332961 2.3075511,-1.4296923 2.3075511,-1.4296923 2.3104093,-1.4424189 2.3122835,-1.4485486 2.3146918,-1.4543978 2.3177978,-1.4598808 2.3215513,-1.4650239 2.3301443,-1.4747401 2.3301443,-1.4747401 2.3422652,-1.4812302 2.3484898,-1.4839006 2.354909,-1.485889 2.3683095,-1.4878981 2.3821225,-1.4884623 2.3821225,-1.4884623 2.3969442,-1.4877413 2.4113451,-1.4855096 2.4182609,-1.4833717 2.4249868,-1.480552 2.4381203,-1.4737698 2.4381203,-1.4737698 2.4435906,-1.4686024 2.4478584,-1.4628159 2.4501115,-1.4559923 2.4511495,-1.448543 2.4511495,-1.448543 2.4500924,-1.4414066 2.4479249,-1.4348099 2.4439624,-1.4290856 2.4389519,-1.4238707 2.4389519,-1.4238707 2.4210935,-1.4145222 2.411949,-1.4104026 2.402572,-1.406882 2.3832625,-1.4012722 2.3635489,-1.3967035 2.3635489,-1.3967035 2.3408257,-1.391097 2.3183891,-1.3846488 2.2964889,-1.376625 2.2749781,-1.3674571 2.2749781,-1.3674571 2.2618216,-1.3592206 2.2497072,-1.3498552 2.2393528,-1.3385834 2.230069,-1.3261518 2.230069,-1.3261518 2.2228386,-1.310793 2.2197897,-1.3029668 2.2174197,-1.2949645 2.2158231,-1.2867615 2.2148304,-1.2784019 2.2138518,-1.2614216 2.2138518,-1.2614216 2.2154201,-1.2440967 2.2167675,-1.2356006 2.218791,-1.227304 2.221633,-1.219249 2.2251389,-1.2113899 2.2332569,-1.1959984 2.2332569,-1.1959984 2.2445176,-1.181702 2.2505727,-1.1750654 2.2571375,-1.1690429 2.2643144,-1.1637576 2.2719843,-1.1590663 2.2881459,-1.1506735 2.2881459,-1.1506735 2.3097174,-1.1439164 2.3206006,-1.1410918 2.3316004,-1.1389296 2.3539568,-1.1366333 2.3765781,-1.1358424 2.3765781,-1.1358424 2.4084543,-1.1376038 2.424027,-1.1396278 2.4391612,-1.1430238 2.4537239,-1.1482082 2.46776,-1.1550401 2.4949498,-1.1714647 2.4949498,-1.1714647 2.5142239,-1.1940171 2.5226191,-1.2059022 2.5295268,-1.2185167 2.5347495,-1.2319575 2.5386601,-1.2460417 2.5442944,-1.2752825z" transform="matrix(1,0,0,-1,4.445,1.8775)" fill="rgb(104,104,104)" fill-rule="nonzero" shaper:cutDepth="0.0000762" stroke-linecap="round" stroke-linejoin="round" /><path d="M3.0915206,-1.54945 L2.9415462,-1.54945 2.9415462,-1.54945 2.9220232,-1.5492047 2.902593,-1.5481189 2.8833358,-1.5454662 2.8642027,-1.5416879 2.8642027,-1.5416879 2.847157,-1.5351618 2.8389286,-1.5314169 2.8310535,-1.5270938 2.823611,-1.5220629 2.816523,-1.5164521 2.8029378,-1.5042636 2.8029378,-1.5042636 2.7907571,-1.4892745 2.7850978,-1.4815242 2.7799556,-1.4734669 2.7713883,-1.4563334 2.7641274,-1.4384246 2.7641274,-1.4384246 2.758058,-1.4148095 2.7555221,-1.4029294 2.7535825,-1.3909627 2.7515257,-1.3667641 2.750821,-1.342369 2.750821,-1.342369 2.7515396,-1.3203862 2.7535078,-1.2985908 2.7576866,-1.2771268 2.7632958,-1.2558773 2.7632958,-1.2558773 2.7712906,-1.2361568 2.7757646,-1.226589 2.7808106,-1.2173721 2.7865824,-1.2086006 2.79298,-1.200213 2.8068188,-1.1840781 2.8068188,-1.1840781 2.8198991,-1.1736369 2.8337437,-1.1645311 2.8487753,-1.1574995 2.8644799,-1.1516437 2.8644799,-1.1516437 2.8823958,-1.1475922 2.900456,-1.1446769 2.9187261,-1.1434124 2.9371108,-1.14305 3.0915206,-1.14305 3.0915206,-1.54945z M3.0094644,-1.4807002 L3.0094644,-1.2115226 2.9481994,-1.2115226 2.9481994,-1.2115226 2.9232675,-1.2120997 2.9108946,-1.2134369 2.8985776,-1.2154036 2.8985776,-1.2154036 2.889572,-1.2182299 2.8809506,-1.2218001 2.872993,-1.2266554 2.8654502,-1.2323138 2.8654502,-1.2323138 2.8582562,-1.2410832 2.8521558,-1.2504748 2.8476317,-1.2607632 2.8439659,-1.27154 2.8439659,-1.27154 2.8400138,-1.2899221 2.8371871,-1.3084401 2.8359783,-1.3271533 2.8356494,-1.3459728 2.8356494,-1.3459728 2.8359308,-1.3642874 2.8371069,-1.3824894 2.8399449,-1.4004823 2.8439659,-1.4183264 2.8439659,-1.4183264 2.848137,-1.4291624 2.8531683,-1.43948 2.8597195,-1.4488814 2.8672521,-1.4576912 2.8672521,-1.4576912 2.8758167,-1.4642975 2.8849022,-1.4698821 2.8948238,-1.4738266 2.9052308,-1.4768192 2.9052308,-1.4768192 2.9219953,-1.4789028 2.9388102,-1.4802529 2.9725945,-1.4807002 3.0094644,-1.4807002z" transform="matrix(1,0,0,-1,4.445,1.8775)" fill="rgb(104,104,104)" fill-rule="nonzero" shaper:cutDepth="0.0000762" stroke-linecap="round" stroke-linejoin="round" /><path d="M-1.061393,-0.587425 L-0.9721292,-0.587425 -0.9366454,-0.6797383 -0.7741963,-0.6797383 -0.740653,-0.587425 -0.6536069,-0.587425 -0.8118978,-0.993825 -0.8986667,-0.993825 -1.061393,-0.587425z M-0.9103098,-0.7482108 L-0.8543119,-0.8990169 -0.799423,-0.7482108 -0.9103098,-0.7482108z" transform="matrix(1,0,0,-1,4.445,1.8775)" fill="rgb(104,104,104)" fill-rule="nonzero" shaper:cutDepth="0.0000762" stroke-linecap="round" stroke-linejoin="round" /><path d="M-1.77377,-1.14305 L-1.77377,-1.54945 -1.9054481,-1.54945 -1.9054481,-1.54945 -1.929964,-1.549513 -1.9544233,-1.5488335 -1.9787724,-1.5467046 -2.0030284,-1.5433512 -2.0030284,-1.5433512 -2.0199881,-1.536865 -2.0280642,-1.5330242 -2.0356559,-1.5284663 -2.042667,-1.5230488 -2.0492111,-1.5169401 -2.0615212,-1.5035706 -2.0615212,-1.5035706 -2.0720505,-1.4852175 -2.0764864,-1.4757849 -2.0799294,-1.4660454 -2.0822443,-1.4559574 -2.0836797,-1.4455977 -2.0850846,-1.4244252 -2.0850846,-1.4244252 -2.0842994,-1.4081069 -2.0821544,-1.3920939 -2.0776049,-1.3766209 -2.0715009,-1.3614969 -2.0715009,-1.3614969 -2.0645092,-1.3500611 -2.0566451,-1.3393829 -2.0472818,-1.3300067 -2.0369874,-1.3214391 -2.0369874,-1.3214391 -2.0269942,-1.3151842 -2.016658,-1.309694 -2.0057307,-1.3055222 -1.9944346,-1.3021725 -1.9944346,-1.3021725 -1.9732626,-1.2993313 -1.9520266,-1.2973406 -1.9307016,-1.2965298 -1.9093291,-1.2963509 -1.8558261,-1.2963509 -1.8558261,-1.14305 -1.77377,-1.14305z M-1.8558261,-1.4807002 L-1.8558261,-1.365378 -1.9007354,-1.365378 -1.9007354,-1.365378 -1.9171397,-1.3653724 -1.9334555,-1.3661234 -1.9495998,-1.3683405 -1.9656041,-1.371754 -1.9656041,-1.371754 -1.9730725,-1.3753924 -1.9799711,-1.3797589 -1.9859038,-1.3853594 -1.9912467,-1.3917136 -1.9912467,-1.3917136 -1.995254,-1.3991121 -1.9983252,-1.4067894 -1.9998752,-1.41492 -2.0005335,-1.4233163 -2.0005335,-1.4233163 -1.9996581,-1.4333314 -1.9975166,-1.4428857 -1.9931914,-1.4516452 -1.9875042,-1.4599089 -1.9875042,-1.4599089 -1.9803198,-1.4663503 -1.9725508,-1.4717263 -1.9638187,-1.4753476 -1.9545155,-1.477928 -1.9545155,-1.477928 -1.9250527,-1.4803938 -1.8954682,-1.4807002 -1.8558261,-1.4807002z" transform="matrix(1,0,0,-1,4.445,1.8775)" fill="rgb(104,104,104)" fill-rule="nonzero" shaper:cutDepth="0.0000762" stroke-linecap="round" stroke-linejoin="round" /><path d="M-1.1960499,-1.14305 L-1.3349356,-1.3551209 -1.2090792,-1.54945 -1.3049962,-1.54945 -1.386498,-1.4188808 -1.4663364,-1.54945 -1.5614219,-1.54945 -1.4350109,-1.3520716 -1.5738965,-1.14305 -1.4749302,-1.14305 -1.3848347,-1.283599 -1.294462,-1.14305 -1.1960499,-1.14305z" transform="matrix(1,0,0,-1,4.445,1.8775)" fill="rgb(104,104,104)" fill-rule="nonzero" shaper:cutDepth="0.0000762" stroke-linecap="round" stroke-linejoin="round" /><path d="M-0.7838284,-1.14305 L-0.6945645,-1.14305 -0.6590807,-1.2353632 -0.4966316,-1.2353632 -0.4630884,-1.14305 -0.3760423,-1.14305 -0.5343331,-1.54945 -0.621102,-1.54945 -0.7838284,-1.14305z M-0.6327451,-1.3038358 L-0.5767473,-1.4546418 -0.5218584,-1.3038358 -0.6327451,-1.3038358z" transform="matrix(1,0,0,-1,4.445,1.8775)" fill="rgb(104,104,104)" fill-rule="nonzero" shaper:cutDepth="0.0000762" stroke-linecap="round" stroke-linejoin="round" /><path d="M2.1655209,-4.1636 L2.0530401,-4.1636 2.0530401,-4.1636 2.0383979,-4.163416 2.0238252,-4.1626016 2.0093823,-4.1606121 1.9950325,-4.1577784 1.9950325,-4.1577784 1.9822482,-4.1528838 1.9701706,-4.1468328 1.9592727,-4.1388515 1.9490838,-4.1297102 1.9490838,-4.1297102 1.9399482,-4.1184684 1.9318471,-4.1066127 1.9254216,-4.0937626 1.919976,-4.080331 1.919976,-4.080331 1.9154239,-4.0626196 1.9120673,-4.0447345 1.9105247,-4.0265856 1.9099962,-4.0082892 1.9099962,-4.0082892 1.9105352,-3.9918021 1.9120113,-3.9754556 1.9151454,-3.9593576 1.9193522,-3.9434205 1.9193522,-3.9434205 1.9253484,-3.9286301 1.9324884,-3.9145416 1.9416155,-3.9016722 1.9519946,-3.8895711 1.9519946,-3.8895711 1.9618048,-3.8817401 1.9721883,-3.8749108 1.9834619,-3.8696371 1.9952404,-3.8652453 1.9952404,-3.8652453 2.0086773,-3.8622066 2.0222225,-3.8600201 2.035925,-3.8590718 2.0497136,-3.8588 2.1655209,-3.8588 2.1655209,-4.1636z M2.1039787,-4.1120377 L2.1039787,-3.9101544 2.0580301,-3.9101544 2.0580301,-3.9101544 2.0393311,-3.9105873 2.0208137,-3.9130652 2.0208137,-3.9130652 2.0140594,-3.9151849 2.0075934,-3.9178626 2.0016252,-3.921504 1.9959681,-3.9257479 1.9959681,-3.9257479 1.9905726,-3.9323249 1.9859972,-3.9393686 1.9826042,-3.9470849 1.9798548,-3.9551675 1.9798548,-3.9551675 1.9768907,-3.9689541 1.9747707,-3.9828426 1.9738642,-3.9968775 1.9736175,-4.0109921 1.9736175,-4.0109921 1.9738285,-4.024728 1.9747106,-4.0383795 1.976839,-4.0518742 1.9798548,-4.0652573 1.9798548,-4.0652573 1.9829832,-4.0733843 1.9867567,-4.0811225 1.99167,-4.0881735 1.9973195,-4.0947809 1.9973195,-4.0947809 2.003743,-4.0997356 2.0105571,-4.1039241 2.0179983,-4.1068825 2.0258035,-4.1091269 2.0258035,-4.1091269 2.050988,-4.1117021 2.0763263,-4.1120377 2.1039787,-4.1120377z" transform="matrix(1,0,0,-1,4.445,1.8775)" fill="rgb(104,104,104)" fill-rule="nonzero" shaper:cutDepth="0.0000762" stroke-linecap="round" stroke-linejoin="round" /><path d="M2.4730237,-4.1636 L2.360543,-4.1636 2.360543,-4.1636 2.3459007,-4.163416 2.331328,-4.1626016 2.316885,-4.1606121 2.3025352,-4.1577784 2.3025352,-4.1577784 2.289751,-4.1528838 2.2776734,-4.1468328 2.2667756,-4.1388515 2.2565866,-4.1297102 2.2565866,-4.1297102 2.2474511,-4.1184684 2.23935,-4.1066127 2.2329245,-4.0937626 2.2274788,-4.080331 2.2274788,-4.080331 2.2229267,-4.0626196 2.21957,-4.0447345 2.2180275,-4.0265856 2.217499,-4.0082892 2.217499,-4.0082892 2.2180379,-3.9918021 2.219514,-3.9754555 2.2226482,-3.9593576 2.2268551,-3.9434205 2.2268551,-3.9434205 2.2328512,-3.9286301 2.2399912,-3.9145415 2.2491183,-3.9016722 2.2594974,-3.8895711 2.2594974,-3.8895711 2.2693076,-3.8817402 2.279691,-3.8749109 2.2909647,-3.8696371 2.3027432,-3.8652453 2.3027432,-3.8652453 2.31618,-3.8622066 2.3297252,-3.8600201 2.3434278,-3.8590717 2.3572163,-3.8588 2.4730237,-3.8588 2.4730237,-4.1636z M2.4114816,-4.1120377 L2.4114816,-3.9101544 2.3655328,-3.9101544 2.3655328,-3.9101544 2.3468339,-3.9105873 2.3283165,-3.9130652 2.3283165,-3.9130652 2.3215623,-3.9151849 2.3150962,-3.9178626 2.309128,-3.921504 2.3034709,-3.9257479 2.3034709,-3.9257479 2.2980754,-3.9323249 2.2935,-3.9393685 2.290107,-3.9470849 2.2873576,-3.9551675 2.2873576,-3.9551675 2.2843935,-3.9689541 2.2822734,-3.9828426 2.2813669,-3.9968775 2.2811203,-4.0109921 2.2811203,-4.0109921 2.2813313,-4.024728 2.2822134,-4.0383795 2.2843419,-4.0518742 2.2873576,-4.0652573 2.2873576,-4.0652573 2.290486,-4.0733843 2.2942595,-4.0811225 2.2991728,-4.0881736 2.3048224,-4.0947809 2.3048224,-4.0947809 2.3112459,-4.0997356 2.31806,-4.1039241 2.3255012,-4.1068825 2.3333064,-4.1091269 2.3333064,-4.1091269 2.3584909,-4.1117021 2.3838292,-4.1120377 2.4114816,-4.1120377z" transform="matrix(1,0,0,-1,4.445,1.8775)" fill="rgb(104,104,104)" fill-rule="nonzero" shaper:cutDepth="0.0000762" stroke-linecap="round" stroke-linejoin="round" /><path d="M2.0243481,-3.5346381 L2.0526243,-3.5346381 2.0526243,-3.5803789 2.0152,-3.5803789 2.0027252,-3.6417131 2.0526243,-3.6417131 2.0526243,-3.6876618 1.9933692,-3.6876618 1.9769441,-3.7687478 1.9303716,-3.7687478 1.9467968,-3.6876618 1.900848,-3.6876618 1.8848387,-3.7687478 1.836603,-3.7687478 1.8532361,-3.6876618 1.8245441,-3.6876618 1.8245441,-3.6417131 1.8625921,-3.6417131 1.8750669,-3.5803789 1.8245441,-3.5803789 1.8245441,-3.5346381 1.8844229,-3.5346381 1.900848,-3.4535522 1.9472126,-3.4535522 1.9312032,-3.5346381 1.9773599,-3.5346381 1.993785,-3.4535522 2.0407733,-3.4535522 2.0243481,-3.5346381z M1.9559449,-3.6417131 L1.9682118,-3.5803789 1.9220551,-3.5803789 1.9099961,-3.6417131 1.9559449,-3.6417131z" transform="matrix(1,0,0,-1,4.445,1.8775)" fill="rgb(104,104,104)" fill-rule="nonzero" shaper:cutDepth="0.0000762" stroke-linecap="round" stroke-linejoin="round" /><path d="M1.6519767,-3.45875 L1.7104,-3.45875 1.7104,-3.6789295 1.7104,-3.6789295 1.7275861,-3.6649997 1.7364682,-3.6585261 1.7456972,-3.6526419 1.7553452,-3.6474698 1.7653324,-3.6428743 1.7858723,-3.6346441 1.7858723,-3.6876618 1.7858723,-3.6876618 1.7726095,-3.6932602 1.7598367,-3.6997315 1.7478031,-3.7075198 1.7361814,-3.7160419 1.7361814,-3.7160419 1.7245732,-3.7264333 1.7142449,-3.73778 1.7099263,-3.7440846 1.7061241,-3.7507746 1.6993807,-3.7647975 1.6519767,-3.7647975 1.6519767,-3.45875z" transform="matrix(1,0,0,-1,4.445,1.8775)" fill="rgb(104,104,104)" fill-rule="nonzero" shaper:cutDepth="0.0000762" stroke-linecap="round" stroke-linejoin="round" /><path d="M2.9880235,-3.45875 L2.9880235,-3.76355 2.7620224,-3.76355 2.7620224,-3.7119877 2.9264813,-3.7119877 2.9264813,-3.644416 2.7734576,-3.644416 2.7734576,-3.5930616 2.9264813,-3.5930616 2.9264813,-3.5101044 2.7562009,-3.5101044 2.7562009,-3.45875 2.9880235,-3.45875z" transform="matrix(1,0,0,-1,4.445,1.8775)" fill="rgb(104,104,104)" fill-rule="nonzero" shaper:cutDepth="0.0000762" stroke-linecap="round" stroke-linejoin="round" /><path d="M-0.488595,-3.8588 L-0.488595,-4.1636 -0.550137,-4.1636 -0.550137,-3.8588 -0.488595,-3.8588z" transform="matrix(1,0,0,-1,4.445,1.8775)" fill="rgb(104,104,104)" fill-rule="nonzero" shaper:cutDepth="0.0000762" stroke-linecap="round" stroke-linejoin="round" /><path d="M0.5501369,-3.8588 L0.5501369,-4.1636 0.4206073,-4.1636 0.4206073,-4.1636 0.4026123,-4.1634225 0.3847366,-4.1623298 0.3670865,-4.1595059 0.3496051,-4.1553874 0.3496051,-4.1553874 0.3390482,-4.1501509 0.3294251,-4.1437756 0.3213364,-4.1355294 0.314156,-4.1261757 0.314156,-4.1261757 0.3084254,-4.1148431 0.3040278,-4.1031366 0.3018011,-4.0908211 0.3008496,-4.0781479 0.3008496,-4.0781479 0.3022072,-4.0626436 0.3034982,-4.0551141 0.3055239,-4.0478519 0.3084761,-4.0409268 0.3122178,-4.0342888 0.3210172,-4.0214917 0.3210172,-4.0214917 0.334285,-4.0107237 0.3412468,-4.006016 0.3486006,-4.002117 0.356388,-3.9991123 0.3645101,-3.9967979 0.3813118,-3.9933195 0.3813118,-3.9933195 0.3638979,-3.9817313 0.3559429,-3.9749752 0.3483577,-3.9677462 0.3483577,-3.9677462 0.3388251,-3.9559332 0.3297818,-3.9437677 0.3133244,-3.918263 0.276108,-3.8588 0.3497091,-3.8588 0.3942024,-3.9251241 0.3942024,-3.9251241 0.4097242,-3.9480395 0.4266368,-3.9699293 0.4266368,-3.9699293 0.4351332,-3.9773886 0.445141,-3.982612 0.445141,-3.982612 0.4604837,-3.9855066 0.47612,-3.9860426 0.4885948,-3.9860426 0.4885948,-3.8588 0.5501369,-3.8588z M0.4885948,-4.0346941 L0.4430619,-4.0346941 0.4430619,-4.0346941 0.4152749,-4.0349876 0.4014809,-4.0363003 0.3877571,-4.0384366 0.3877571,-4.0384366 0.3827035,-4.0406739 0.3780493,-4.0434435 0.3740697,-4.0471119 0.3705004,-4.0513271 0.3705004,-4.0513271 0.3677243,-4.0567015 0.3656412,-4.0622713 0.3646429,-4.0681472 0.364263,-4.0741975 0.364263,-4.0741975 0.3647652,-4.0809396 0.366081,-4.0874032 0.3688231,-4.0933789 0.3724756,-4.0990431 0.3724756,-4.0990431 0.3775138,-4.1034674 0.3829817,-4.1070772 0.3891262,-4.1094046 0.3956578,-4.1109981 0.3956578,-4.1109981 0.4180982,-4.1119844 0.4405669,-4.1120377 0.4885948,-4.1120377 0.4885948,-4.0346941z" transform="matrix(1,0,0,-1,4.445,1.8775)" fill="rgb(104,104,104)" fill-rule="nonzero" shaper:cutDepth="0.0000762" stroke-linecap="round" stroke-linejoin="round" /><path d="M0.1239159,-3.45875 L0.1239159,-3.76355 0.0251574,-3.76355 0.0251574,-3.76355 -0.011574,-3.7630876 -0.0298359,-3.7614909 -0.0480278,-3.7589759 -0.0480278,-3.7589759 -0.0607476,-3.7541112 -0.0668047,-3.7512306 -0.0724985,-3.7478121 -0.0777568,-3.7437491 -0.0826649,-3.7391675 -0.0918975,-3.7291404 -0.0918975,-3.7291404 -0.0997944,-3.7153756 -0.1031214,-3.7083011 -0.1057036,-3.7009966 -0.1074398,-3.6934306 -0.1085164,-3.6856607 -0.10957,-3.6697814 -0.10957,-3.6697814 -0.1089812,-3.6575426 -0.1073725,-3.6455329 -0.1039604,-3.6339282 -0.0993824,-3.6225852 -0.0993824,-3.6225852 -0.0941385,-3.6140083 -0.0882405,-3.6059996 -0.081218,-3.5989675 -0.0734971,-3.5925418 -0.0734971,-3.5925418 -0.0660022,-3.5878507 -0.0582501,-3.583733 -0.0500546,-3.5806041 -0.0415825,-3.5780919 -0.0415825,-3.5780919 -0.0257036,-3.5759609 -0.0097765,-3.5744679 0.0222466,-3.5737257 0.0623738,-3.5737257 0.0623738,-3.45875 0.1239159,-3.45875z M0.0623738,-3.7119877 L0.0623738,-3.625496 0.0286919,-3.625496 0.0286919,-3.625496 0.0041518,-3.6260551 -0.0079564,-3.6277179 -0.0199597,-3.630278 -0.0199597,-3.630278 -0.025561,-3.6330068 -0.0307349,-3.6362817 -0.0351844,-3.640482 -0.0391916,-3.6452477 -0.0391916,-3.6452477 -0.042197,-3.6507965 -0.0445004,-3.6565546 -0.0456629,-3.6626525 -0.0461566,-3.6689497 -0.0461566,-3.6689497 -0.0455001,-3.676461 -0.0438939,-3.6836267 -0.0406501,-3.6901964 -0.0363848,-3.6963942 -0.0363848,-3.6963942 -0.0309965,-3.7012252 -0.0251696,-3.7052572 -0.0186206,-3.7079732 -0.0116431,-3.7099085 -0.0116431,-3.7099085 0.010454,-3.7117578 0.0326423,-3.7119877 0.0623738,-3.7119877z" transform="matrix(1,0,0,-1,4.445,1.8775)" fill="rgb(104,104,104)" fill-rule="nonzero" shaper:cutDepth="0.0000762" stroke-linecap="round" stroke-linejoin="round" /><path d="M0.4389037,-3.45875 L0.3347394,-3.6178032 0.4291318,-3.76355 0.357194,-3.76355 0.2960676,-3.6656231 0.2361888,-3.76355 0.1648748,-3.76355 0.2596829,-3.6155161 0.1555187,-3.45875 0.2297435,-3.45875 0.2973152,-3.5641617 0.3650947,-3.45875 0.4389037,-3.45875z" transform="matrix(1,0,0,-1,4.445,1.8775)" fill="rgb(104,104,104)" fill-rule="nonzero" shaper:cutDepth="0.0000762" stroke-linecap="round" stroke-linejoin="round" /><path d="M-2.1918218,-4.1636 L-2.253364,-4.1636 -2.253364,-3.9985173 -2.253364,-3.9985173 -2.2535857,-3.9729974 -2.255651,-3.9475787 -2.255651,-3.9475787 -2.2584415,-3.9388663 -2.2622709,-3.9308063 -2.2678429,-3.9238405 -2.2744671,-3.9175353 -2.2744671,-3.9175353 -2.2839367,-3.9123497 -2.2938096,-3.9085351 -2.3042919,-3.906792 -2.315114,-3.9062041 -2.315114,-3.9062041 -2.3256376,-3.9066631 -2.3358335,-3.9082438 -2.3454308,-3.9118743 -2.3546174,-3.9169116 -2.3546174,-3.9169116 -2.3603175,-3.9224626 -2.3651054,-3.9285639 -2.3683418,-3.9356012 -2.3706267,-3.9432126 -2.3706267,-3.9432126 -2.3729418,-3.9690402 -2.3733297,-3.9949828 -2.3733297,-4.1636 -2.4348717,-4.1636 -2.4348717,-4.0035072 -2.4348717,-4.0035072 -2.4341791,-3.964598 -2.4324546,-3.9452455 -2.4298818,-3.9259558 -2.4298818,-3.9259558 -2.4269159,-3.9155978 -2.4230783,-3.9056634 -2.4177442,-3.8964561 -2.4114816,-3.8876999 -2.4114816,-3.8876999 -2.403551,-3.8800099 -2.3950368,-3.8731529 -2.3855943,-3.8676215 -2.3756166,-3.8628543 -2.3756166,-3.8628543 -2.3612914,-3.8585585 -2.3467701,-3.8554318 -2.3319579,-3.8540386 -2.3169853,-3.8536022 -2.3169853,-3.8536022 -2.3000658,-3.8539402 -2.2833275,-3.8553641 -2.2669263,-3.8588059 -2.2507651,-3.8636859 -2.2507651,-3.8636859 -2.2407899,-3.8688071 -2.2313753,-3.8746831 -2.2229349,-3.88187 -2.2151081,-3.8898829 -2.2151081,-3.8898829 -2.2094751,-3.8976624 -2.204544,-3.9057969 -2.2008215,-3.9145425 -2.1978513,-3.9236687 -2.1978513,-3.9236687 -2.1948921,-3.9428794 -2.1928279,-3.9621672 -2.1919958,-3.9815614 -2.1918218,-4.0010123 -2.1918218,-4.1636z" transform="matrix(1,0,0,-1,4.445,1.8775)" fill="rgb(104,104,104)" fill-rule="nonzero" shaper:cutDepth="0.0000762" stroke-linecap="round" stroke-linejoin="round" /><path d="M-1.8849427,-3.8588 L-1.8849427,-4.1636 -1.9464848,-4.1636 -1.9464848,-4.0436344 -2.0670742,-4.0436344 -2.0670742,-4.1636 -2.1286164,-4.1636 -2.1286164,-3.8588 -2.0670742,-3.8588 -2.0670742,-3.992072 -1.9464848,-3.992072 -1.9464848,-3.8588 -1.8849427,-3.8588z" transform="matrix(1,0,0,-1,4.445,1.8775)" fill="rgb(104,104,104)" fill-rule="nonzero" shaper:cutDepth="0.0000762" stroke-linecap="round" stroke-linejoin="round" /><path d="M-2.1945247,-3.45875 L-2.1945247,-3.76355 -2.2932833,-3.76355 -2.2932833,-3.76355 -2.3300147,-3.7630876 -2.3482765,-3.7614909 -2.3664685,-3.7589759 -2.3664685,-3.7589759 -2.3791883,-3.7541113 -2.3852454,-3.7512307 -2.3909391,-3.7478122 -2.3961974,-3.7437491 -2.4011055,-3.7391676 -2.4103381,-3.7291404 -2.4103381,-3.7291404 -2.4182351,-3.7153756 -2.4215621,-3.7083012 -2.4241443,-3.7009966 -2.4258806,-3.6934306 -2.4269571,-3.6856608 -2.4280107,-3.6697814 -2.4280107,-3.6697814 -2.4274219,-3.6575426 -2.4258132,-3.6455329 -2.4224011,-3.6339281 -2.417823,-3.6225852 -2.417823,-3.6225852 -2.4125792,-3.6140083 -2.4066811,-3.6059996 -2.3996586,-3.5989675 -2.3919378,-3.5925418 -2.3919378,-3.5925418 -2.3844428,-3.5878507 -2.3766908,-3.583733 -2.3684953,-3.5806041 -2.3600233,-3.5780919 -2.3600233,-3.5780919 -2.3441443,-3.5759609 -2.3282172,-3.5744679 -2.296194,-3.5737257 -2.2560669,-3.5737257 -2.2560669,-3.45875 -2.1945247,-3.45875z M-2.2560669,-3.7119877 L-2.2560669,-3.625496 -2.2897488,-3.625496 -2.2897488,-3.625496 -2.3142889,-3.6260551 -2.3263971,-3.6277179 -2.3384004,-3.630278 -2.3384004,-3.630278 -2.3440017,-3.6330068 -2.3491755,-3.6362817 -2.3536251,-3.640482 -2.3576322,-3.6452477 -2.3576322,-3.6452477 -2.3606377,-3.6507965 -2.3629411,-3.6565545 -2.3641037,-3.6626525 -2.3645974,-3.6689497 -2.3645974,-3.6689497 -2.3639409,-3.6764611 -2.3623347,-3.6836268 -2.3590908,-3.6901964 -2.3548254,-3.6963942 -2.3548254,-3.6963942 -2.3494371,-3.7012252 -2.3436103,-3.7052572 -2.3370613,-3.7079732 -2.3300839,-3.7099085 -2.3300839,-3.7099085 -2.3079867,-3.7117578 -2.2857984,-3.7119877 -2.2560669,-3.7119877z" transform="matrix(1,0,0,-1,4.445,1.8775)" fill="rgb(104,104,104)" fill-rule="nonzero" shaper:cutDepth="0.0000762" stroke-linecap="round" stroke-linejoin="round" /><path d="M-1.879537,-3.45875 L-1.9837013,-3.6178032 -1.8893089,-3.76355 -1.9612467,-3.76355 -2.022373,-3.6656231 -2.0822519,-3.76355 -2.1535659,-3.76355 -2.0587578,-3.6155161 -2.162922,-3.45875 -2.0886972,-3.45875 -2.0211255,-3.5641617 -1.953346,-3.45875 -1.879537,-3.45875z" transform="matrix(1,0,0,-1,4.445,1.8775)" fill="rgb(104,104,104)" fill-rule="nonzero" shaper:cutDepth="0.0000762" stroke-linecap="round" stroke-linejoin="round" /><path d="M-4.05638,1.2425 a0.24638,0.24638 0 1,1 0.49276,0 a0.24638,0.24638 0 1,1 -0.49276,0z" transform="matrix(1,0,0,-1,4.445,1.8775)" fill="rgb(255,255,255)" stroke="rgb(0,0,0)" stroke-width="0.0010cm" stroke-linecap="round" stroke-linejoin="round" shaper:cutDepth="0.0015875" /><path d="M3.56362,-6.3775 a0.24638,0.24638 0 1,1 0.49276,0 a0.24638,0.24638 0 1,1 -0.49276,0z" transform="matrix(1,0,0,-1,4.445,1.8775)" fill="rgb(255,255,255)" stroke="rgb(0,0,0)" stroke-width="0.0010cm" stroke-linecap="round" stroke-linejoin="round" shaper:cutDepth="0.0015875" /><path d="M-4.05638,-6.3775 a0.24638,0.24638 0 1,1 0.49276,0 a0.24638,0.24638 0 1,1 -0.49276,0z" transform="matrix(1,0,0,-1,4.445,1.8775)" fill="rgb(255,255,255)" stroke="rgb(0,0,0)" stroke-width="0.0010cm" stroke-linecap="round" stroke-linejoin="round" shaper:cutDepth="0.0015875" /><path d="M3.56362,1.2425 a0.24638,0.24638 0 1,1 0.49276,0 a0.24638,0.24638 0 1,1 -0.49276,0z" transform="matrix(1,0,0,-1,4.445,1.8775)" fill="rgb(255,255,255)" stroke="rgb(0,0,0)" stroke-width="0.0010cm" stroke-linecap="round" stroke-linejoin="round" shaper:cutDepth="0.0015875" /><path d="M-3.28,-1.8775 L-1.36,-1.8775 -1.36,-3.3675 -3.28,-3.3675 -3.28,-1.8775z" transform="matrix(1,0,0,-1,4.445,1.8775)" fill="rgb(255,255,255)" stroke="rgb(0,0,0)" stroke-width="0.0010cm" stroke-linecap="round" stroke-linejoin="round" shaper:cutDepth="0.0015875" /><path d="M-3.28,-4.2525 L-1.36,-4.2525 -1.36,-5.7425 -3.28,-5.7425 -3.28,-4.2525z" transform="matrix(1,0,0,-1,4.445,1.8775)" fill="rgb(255,255,255)" stroke="rgb(0,0,0)" stroke-width="0.0010cm" stroke-linecap="round" stroke-linejoin="round" shaper:cutDepth="0.0015875" /><path d="M-0.96,-1.8775 L0.96,-1.8775 0.96,-3.3675 -0.96,-3.3675 -0.96,-1.8775z" transform="matrix(1,0,0,-1,4.445,1.8775)" fill="rgb(255,255,255)" stroke="rgb(0,0,0)" stroke-width="0.0010cm" stroke-linecap="round" stroke-linejoin="round" shaper:cutDepth="0.0015875" /><path d="M-1.0575,-0.235 L-1.0575,-0.075 -1.1475,-0.075 -1.1475,0.145 -1.3975,0.145 -1.3975,0.705 -1.1475,0.705 -1.1475,0.925 -0.5675,0.925 -0.5675,0.705 -0.3175,0.705 -0.3175,0.145 -0.5675,0.145 -0.5675,-0.075 -0.6575,-0.075 -0.6575,-0.235 -1.0575,-0.235z" transform="matrix(1,0,0,-1,4.445,1.8775)" fill="rgb(255,255,255)" stroke="rgb(0,0,0)" stroke-width="0.0010cm" stroke-linecap="round" stroke-linejoin="round" shaper:cutDepth="0.0015875" /><path d="M1.36,-4.2525 L3.28,-4.2525 3.28,-5.7425 1.36,-5.7425 1.36,-4.2525z" transform="matrix(1,0,0,-1,4.445,1.8775)" fill="rgb(255,255,255)" stroke="rgb(0,0,0)" stroke-width="0.0010cm" stroke-linecap="round" stroke-linejoin="round" shaper:cutDepth="0.0015875" /><path d="M1.36,-3.3675 L1.36,-1.8775 3.28,-1.8775 3.28,-3.3675 1.36,-3.3675z" transform="matrix(1,0,0,-1,4.445,1.8775)" fill="rgb(255,255,255)" stroke="rgb(0,0,0)" stroke-width="0.0010cm" stroke-linecap="round" stroke-linejoin="round" shaper:cutDepth="0.0015875" /><path d="M-2.7725,-0.235 L-2.7725,-0.075 -2.8625,-0.075 -2.8625,0.145 -3.1125,0.145 -3.1125,0.705 -2.8625,0.705 -2.8625,0.925 -2.2825,0.925 -2.2825,0.705 -2.0325,0.705 -2.0325,0.145 -2.2825,0.145 -2.2825,-0.075 -2.3725,-0.075 -2.3725,-0.235 -2.7725,-0.235z" transform="matrix(1,0,0,-1,4.445,1.8775)" fill="rgb(255,255,255)" stroke="rgb(0,0,0)" stroke-width="0.0010cm" stroke-linecap="round" stroke-linejoin="round" shaper:cutDepth="0.0015875" /><path d="M0.6575,-0.235 L0.6575,-0.075 0.5675,-0.075 0.5675,0.145 0.3175,0.145 0.3175,0.705 0.5675,0.705 0.5675,0.925 1.1475,0.925 1.1475,0.705 1.3975,0.705 1.3975,0.145 1.1475,0.145 1.1475,-0.075 1.0575,-0.075 1.0575,-0.235 0.6575,-0.235z" transform="matrix(1,0,0,-1,4.445,1.8775)" fill="rgb(255,255,255)" stroke="rgb(0,0,0)" stroke-width="0.0010cm" stroke-linecap="round" stroke-linejoin="round" shaper:cutDepth="0.0015875" /><path d="M2.3725,-0.235 L2.3725,-0.075 2.2825,-0.075 2.2825,0.145 2.0325,0.145 2.0325,0.705 2.2825,0.705 2.2825,0.925 2.8625,0.925 2.8625,0.705 3.1125,0.705 3.1125,0.145 2.8625,0.145 2.8625,-0.075 2.7725,-0.075 2.7725,-0.235 2.3725,-0.235z" transform="matrix(1,0,0,-1,4.445,1.8775)" fill="rgb(255,255,255)" stroke="rgb(0,0,0)" stroke-width="0.0010cm" stroke-linecap="round" stroke-linejoin="round" shaper:cutDepth="0.0015875" /><path d="M-0.96,-4.2525 L0.96,-4.2525 0.96,-5.7425 -0.96,-5.7425 -0.96,-4.2525z" transform="matrix(1,0,0,-1,4.445,1.8775)" fill="rgb(255,255,255)" stroke="rgb(0,0,0)" stroke-width="0.0010cm" stroke-linecap="round" stroke-linejoin="round" shaper:cutDepth="0.0015875" /></svg>