<?xml version="1.0" encoding="utf-8"?>
<!-- Generator: Fusion 360, Shaper Origin Export Add-In, Version 1.6.10  -->
<svg xmlns="http://www.w3.org/2000/svg" xmlns:xlink="http://www.w3.org/1999/xlink" xmlns:shaper="http://www.shapertools.com/namespaces/shaper" shaper:fusionaddin="version:1.6.10" width="14.605cm" height="11.43cm" version="1.1" x="0cm" y="0cm" viewBox="0 0 14.605 11.43" enable-background="new 0 0 14.605 11.43" xml:space="preserve"><path d="M6.6675,5.715 L-6.6675,5.715 A0.635,0.635 90 0,1 -7.3025,5.08 L-7.3025,-5.08 A0.635,0.635 180 0,1 -6.6675,-5.715 L6.6675,-5.715 A0.635,0.635 270 0,1 7.3025,-5.08 L7.3025,5.08 A0.635,0.635 0 0,1 6.6675,5.715z" transform="matrix(1,0,0,-1,7.3025,5.715)" fill="rgb(0,0,0)" shaper:cutDepth="0.0015875" stroke-linecap="round" stroke-linejoin="round" /><path d="M0.0538958,-2.0199 L-0.0045277,-2.0199 -0.0045277,-1.7997205 -0.0045277,-1.7997205 -0.0217138,-1.8136503 -0.0305959,-1.820124 -0.0398248,-1.8260082 -0.0494728,-1.8311802 -0.0594601,-1.8357757 -0.08,-1.8440059 -0.08,-1.7909881 -0.08,-1.7909881 -0.0667371,-1.7853898 -0.0539643,-1.7789185 -0.0419306,-1.7711302 -0.0303089,-1.7626081 -0.0303089,-1.7626081 -0.0187008,-1.7522167 -0.0083726,-1.7408699 -0.004054,-1.7345654 -0.0002518,-1.7278753 0.0064917,-1.7138525 0.0538958,-1.7138525 0.0538958,-2.0199z" transform="matrix(1,0,0,-1,7.3025,5.715)" fill="rgb(104,104,104)" fill-rule="nonzero" shaper:cutDepth="0.0000762" stroke-linecap="round" stroke-linejoin="round" /><path d="M-2.2611042,-4.4499 L-2.3195277,-4.4499 -2.3195277,-4.2297205 -2.3195277,-4.2297205 -2.3367138,-4.2436503 -2.3455959,-4.250124 -2.3548248,-4.2560082 -2.3644728,-4.2611802 -2.3744601,-4.2657757 -2.395,-4.2740059 -2.395,-4.2209881 -2.395,-4.2209881 -2.3817371,-4.2153898 -2.3689643,-4.2089185 -2.3569306,-4.2011302 -2.3453089,-4.1926081 -2.3453089,-4.1926081 -2.3337008,-4.1822167 -2.3233726,-4.1708699 -2.319054,-4.1645654 -2.3152518,-4.1578753 -2.3085083,-4.1438525 -2.2611042,-4.1438525 -2.2611042,-4.4499z" transform="matrix(1,0,0,-1,7.3025,5.715)" fill="rgb(104,104,104)" fill-rule="nonzero" shaper:cutDepth="0.0000762" stroke-linecap="round" stroke-linejoin="round" /><path d="M-2.9211042,-2.0199 L-2.9795277,-2.0199 -2.9795277,-1.7997205 -2.9795277,-1.7997205 -2.9967138,-1.8136503 -3.0055959,-1.820124 -3.0148248,-1.8260082 -3.0244728,-1.8311802 -3.0344601,-1.8357757 -3.055,-1.8440059 -3.055,-1.7909881 -3.055,-1.7909881 -3.0417371,-1.7853898 -3.0289643,-1.7789185 -3.0169306,-1.7711302 -3.0053089,-1.7626081 -3.0053089,-1.7626081 -2.9937008,-1.7522167 -2.9833726,-1.7408699 -2.979054,-1.7345654 -2.9752518,-1.7278753 -2.9685083,-1.7138525 -2.9211042,-1.7138525 -2.9211042,-2.0199z" transform="matrix(1,0,0,-1,7.3025,5.715)" fill="rgb(104,104,104)" fill-rule="nonzero" shaper:cutDepth="0.0000762" stroke-linecap="round" stroke-linejoin="round" /><path d="M2.1888958,-2.0199 L2.1304723,-2.0199 2.1304723,-1.7997205 2.1304723,-1.7997205 2.1132862,-1.8136503 2.1044041,-1.820124 2.0951752,-1.8260082 2.0855272,-1.8311802 2.0755399,-1.8357757 2.055,-1.8440059 2.055,-1.7909881 2.055,-1.7909881 2.0682629,-1.7853898 2.0810357,-1.7789185 2.0930694,-1.7711302 2.1046911,-1.7626081 2.1046911,-1.7626081 2.1162992,-1.7522167 2.1266274,-1.7408699 2.130946,-1.7345654 2.1347482,-1.7278753 2.1414917,-1.7138525 2.1888958,-1.7138525 2.1888958,-2.0199z" transform="matrix(1,0,0,-1,7.3025,5.715)" fill="rgb(104,104,104)" fill-rule="nonzero" shaper:cutDepth="0.0000762" stroke-linecap="round" stroke-linejoin="round" /><path d="M-1.4861599,-2.416263 L-1.4065986,-2.4414898 -1.4065986,-2.4414898 -1.4162821,-2.4696892 -1.4220229,-2.4832211 -1.4288422,-2.4960716 -1.4370509,-2.5080444 -1.4464953,-2.5192367 -1.4674477,-2.5403176 -1.4674477,-2.5403176 -1.4925051,-2.5546576 -1.505378,-2.5607141 -1.5186634,-2.5654358 -1.5324216,-2.5686276 -1.5465499,-2.5706216 -1.5754237,-2.5726134 -1.5754237,-2.5726134 -1.5942542,-2.5709304 -1.6128075,-2.5685877 -1.6308064,-2.5649255 -1.6395114,-2.5623935 -1.6479738,-2.5592843 -1.6561665,-2.555533 -1.6641078,-2.5511834 -1.67938,-2.5410314 -1.6940775,-2.5295119 -1.7084879,-2.5173086 -1.7084879,-2.5173086 -1.7205371,-2.500392 -1.7318462,-2.4832098 -1.7416752,-2.4654965 -1.7458034,-2.4563576 -1.7492879,-2.4469878 -1.7521253,-2.4373858 -1.7543936,-2.4275795 -1.757548,-2.4074709 -1.7594015,-2.3868956 -1.7606046,-2.3660868 -1.7606046,-2.3660868 -1.7594996,-2.3444865 -1.7577329,-2.3231173 -1.7546427,-2.30221 -1.7523946,-2.2920018 -1.7495674,-2.2819958 -1.7460803,-2.2722201 -1.7419246,-2.2626778 -1.7319731,-2.2441657 -1.7204778,-2.2261926 -1.7082106,-2.2084889 -1.7082106,-2.2084889 -1.6932798,-2.1959515 -1.6780503,-2.1841337 -1.6622234,-2.1737553 -1.6539926,-2.1693308 -1.6455005,-2.1655356 -1.6367325,-2.1624053 -1.6277183,-2.159868 -1.6090923,-2.1562334 -1.5899037,-2.1539541 -1.5704338,-2.1523525 -1.5704338,-2.1523525 -1.5371129,-2.1552413 -1.5209547,-2.1580314 -1.5053993,-2.1624363 -1.4906074,-2.1688864 -1.4764707,-2.1770919 -1.4627711,-2.1864683 -1.44929,-2.19643 -1.44929,-2.19643 -1.4353458,-2.2131229 -1.429015,-2.2218342 -1.4234517,-2.2309823 -1.4187436,-2.240617 -1.4146972,-2.2506283 -1.4077074,-2.2712786 -1.488932,-2.2906838 -1.488932,-2.2906838 -1.4934947,-2.2764073 -1.4962703,-2.2695702 -1.499639,-2.2630945 -1.5037506,-2.2570716 -1.5084889,-2.2514305 -1.5190101,-2.2407847 -1.5190101,-2.2407847 -1.5317786,-2.2328467 -1.5383593,-2.2294641 -1.5451757,-2.2267851 -1.5522709,-2.2249379 -1.5595879,-2.2237533 -1.5745921,-2.2224884 -1.5745921,-2.2224884 -1.5954744,-2.2248808 -1.6054853,-2.2270412 -1.6149797,-2.2303585 -1.6238341,-2.2351097 -1.6321568,-2.2410522 -1.6479159,-2.2549228 -1.6479159,-2.2549228 -1.6615025,-2.2792589 -1.6670414,-2.2917965 -1.6711015,-2.3047697 -1.6736621,-2.3181846 -1.6750891,-2.3319335 -1.6760534,-2.359988 -1.6760534,-2.359988 -1.6752407,-2.3891515 -1.67389,-2.4034679 -1.6714062,-2.4174659 -1.6674196,-2.4310416 -1.6619184,-2.4441917 -1.6483317,-2.4697659 -1.6483317,-2.4697659 -1.6329369,-2.4836916 -1.624789,-2.4896676 -1.6161004,-2.4944596 -1.6067577,-2.4978188 -1.5968848,-2.5000169 -1.5762553,-2.5024775 -1.5762553,-2.5024775 -1.5608323,-2.5009217 -1.5533498,-2.4995279 -1.5461422,-2.4973951 -1.5392739,-2.4943494 -1.5326866,-2.4905481 -1.5199803,-2.4816862 -1.5199803,-2.4816862 -1.5079509,-2.4672494 -1.5025957,-2.4596769 -1.4980269,-2.4516822 -1.4943045,-2.4432331 -1.4912298,-2.4344363 -1.4861599,-2.416263z" transform="matrix(1,0,0,-1,7.3025,5.715)" fill="rgb(104,104,104)" fill-rule="nonzero" shaper:cutDepth="0.0000762" stroke-linecap="round" stroke-linejoin="round" /><path d="M-0.9782985,-2.4334505 L-0.89846,-2.4256884 -0.89846,-2.4256884 -0.8945657,-2.4422119 -0.8920711,-2.4501914 -0.8889197,-2.4578323 -0.8849126,-2.4650321 -0.8801189,-2.4718264 -0.8692137,-2.4847356 -0.8692137,-2.4847356 -0.8555984,-2.4932259 -0.8485658,-2.4967915 -0.841264,-2.4995436 -0.8336596,-2.5013817 -0.8258204,-2.5025107 -0.8097507,-2.5035864 -0.8097507,-2.5035864 -0.7937712,-2.5028523 -0.7859468,-2.5019377 -0.7783208,-2.500366 -0.7709552,-2.4979321 -0.7638356,-2.4946832 -0.7500104,-2.4868147 -0.7500104,-2.4868147 -0.7418691,-2.4785648 -0.7383136,-2.4741826 -0.7353761,-2.4694917 -0.7332226,-2.4644092 -0.731744,-2.4589897 -0.7299121,-2.4475885 -0.7299121,-2.4475885 -0.7305111,-2.4409255 -0.7319222,-2.4345464 -0.7347185,-2.4286516 -0.7383674,-2.4230548 -0.7383674,-2.4230548 -0.7449149,-2.4173105 -0.7519675,-2.4123806 -0.7597358,-2.4086044 -0.7678908,-2.4054516 -0.7678908,-2.4054516 -0.8005935,-2.3960443 -0.8335913,-2.3877097 -0.8335913,-2.3877097 -0.8583148,-2.3811134 -0.8704342,-2.3772843 -0.8822627,-2.3728178 -0.8937051,-2.3675054 -0.9047547,-2.3613323 -0.9261817,-2.3475132 -0.9261817,-2.3475132 -0.9418,-2.3299145 -0.9485507,-2.3206341 -0.9540313,-2.3107764 -0.9579419,-2.3002053 -0.9605523,-2.2890432 -0.963606,-2.2657342 -0.963606,-2.2657342 -0.9621778,-2.2503189 -0.9609533,-2.2427651 -0.9591161,-2.235396 -0.9565381,-2.2282502 -0.9533598,-2.2212853 -0.9460028,-2.2076573 -0.9460028,-2.2076573 -0.9354944,-2.1947106 -0.9298613,-2.1886998 -0.9237737,-2.1832441 -0.9171484,-2.1784451 -0.9100944,-2.1741695 -0.8952721,-2.1664906 -0.8952721,-2.1664906 -0.8757961,-2.1601365 -0.865965,-2.1574657 -0.8560225,-2.1554012 -0.8357889,-2.1531691 -0.8152951,-2.1523525 -0.8152951,-2.1523525 -0.7843461,-2.1538519 -0.769213,-2.1556936 -0.7544897,-2.1588459 -0.7403035,-2.1637162 -0.7266229,-2.1702035 -0.7001113,-2.1858957 -0.7001113,-2.1858957 -0.6832366,-2.2051871 -0.675967,-2.2153703 -0.6700986,-2.2261984 -0.6658955,-2.2377931 -0.6630237,-2.2500006 -0.659499,-2.2754368 -0.7415553,-2.2790406 -0.7415553,-2.2790406 -0.7444135,-2.266314 -0.7462877,-2.2601844 -0.7486961,-2.2543351 -0.7518021,-2.2488521 -0.7555556,-2.243709 -0.7641486,-2.2339929 -0.7641486,-2.2339929 -0.7762695,-2.2275028 -0.782494,-2.2248323 -0.7889133,-2.2228439 -0.8023137,-2.2208348 -0.8161267,-2.2202707 -0.8161267,-2.2202707 -0.8309484,-2.2209916 -0.8453493,-2.2232233 -0.8522651,-2.2253613 -0.858991,-2.228181 -0.8721245,-2.2349632 -0.8721245,-2.2349632 -0.8775949,-2.2401306 -0.8818626,-2.2459171 -0.8841157,-2.2527407 -0.8851536,-2.2601899 -0.8851536,-2.2601899 -0.8840965,-2.2673263 -0.8819291,-2.273923 -0.8779666,-2.2796473 -0.8729561,-2.2848622 -0.8729561,-2.2848622 -0.8550977,-2.2942107 -0.8459532,-2.2983304 -0.8365762,-2.301851 -0.8172666,-2.3074608 -0.7975529,-2.3120295 -0.7975529,-2.3120295 -0.7748298,-2.3176359 -0.7523932,-2.3240841 -0.730493,-2.332108 -0.7089823,-2.3412759 -0.7089823,-2.3412759 -0.6958258,-2.3495123 -0.6837114,-2.3588778 -0.6733569,-2.3701496 -0.6640731,-2.3825812 -0.6640731,-2.3825812 -0.6568426,-2.3979399 -0.6537938,-2.4057661 -0.6514237,-2.4137684 -0.6498271,-2.4219714 -0.6488346,-2.430331 -0.6478561,-2.4473113 -0.6478561,-2.4473113 -0.6494244,-2.4646361 -0.6507719,-2.4731323 -0.6527953,-2.4814289 -0.6556373,-2.4894839 -0.6591431,-2.4973429 -0.667261,-2.5127345 -0.667261,-2.5127345 -0.6785218,-2.5270309 -0.6845769,-2.5336674 -0.6911418,-2.53969 -0.6983187,-2.5449753 -0.7059886,-2.5496666 -0.7221502,-2.5580595 -0.7221502,-2.5580595 -0.7437216,-2.5648166 -0.7546048,-2.5676411 -0.7656046,-2.5698033 -0.787961,-2.5720996 -0.8105823,-2.5728906 -0.8105823,-2.5728906 -0.8424585,-2.5711291 -0.8580312,-2.5691051 -0.8731654,-2.5657091 -0.8877281,-2.5605247 -0.9017641,-2.5536928 -0.928954,-2.5372682 -0.928954,-2.5372682 -0.948228,-2.5147159 -0.9566233,-2.5028308 -0.9635309,-2.4902162 -0.9687537,-2.4767754 -0.9726643,-2.4626912 -0.9782985,-2.4334505z" transform="matrix(1,0,0,-1,7.3025,5.715)" fill="rgb(104,104,104)" fill-rule="nonzero" shaper:cutDepth="0.0000762" stroke-linecap="round" stroke-linejoin="round" /><path d="M2.2296559,-2.565683 L2.3685414,-2.353612 2.242685,-2.1592829 2.3386022,-2.1592829 2.4201037,-2.2898521 2.4999424,-2.1592829 2.5950276,-2.1592829 2.4686171,-2.3566614 2.6075026,-2.565683 2.508536,-2.565683 2.4184405,-2.425134 2.3280679,-2.565683 2.2296559,-2.565683z" transform="matrix(1,0,0,-1,7.3025,5.715)" fill="rgb(104,104,104)" fill-rule="nonzero" shaper:cutDepth="0.0000762" stroke-linecap="round" stroke-linejoin="round" /><path d="M0.2417332,-2.565683 L0.2417332,-2.1592829 0.4144393,-2.1592829 0.4144393,-2.1592829 0.4384326,-2.1595196 0.4622669,-2.1609765 0.4740749,-2.1625424 0.4858004,-2.1647417 0.5091089,-2.170233 0.5091089,-2.170233 0.5231849,-2.1772151 0.5298337,-2.1811806 0.5360157,-2.1857154 0.5416352,-2.190936 0.5468006,-2.1967104 0.5563744,-2.209182 0.5563744,-2.209182 0.5640153,-2.2242921 0.5672803,-2.232003 0.5698788,-2.2399008 0.571682,-2.2480217 0.5728477,-2.2563215 0.5741164,-2.2732191 0.5741164,-2.2732191 0.5723061,-2.2938914 0.5705847,-2.3039307 0.5678838,-2.3136136 0.5639475,-2.3228471 0.5589587,-2.3316978 0.5472263,-2.3487607 0.5472263,-2.3487607 0.5295358,-2.363118 0.5202534,-2.3693949 0.5104483,-2.3745936 0.500065,-2.3785998 0.4892356,-2.3816857 0.4668332,-2.3863236 0.4668332,-2.3863236 0.4786661,-2.3937632 0.4900519,-2.4017747 0.5006586,-2.4107827 0.5107724,-2.4204213 0.5107724,-2.4204213 0.5234823,-2.4361721 0.5355399,-2.4523928 0.5574833,-2.4863989 0.6071051,-2.565683 0.5089704,-2.565683 0.4496459,-2.4772508 0.4496459,-2.4772508 0.4289502,-2.446697 0.4064001,-2.4175105 0.4064001,-2.4175105 0.4009154,-2.412272 0.3950715,-2.4075648 0.3885995,-2.403787 0.3817278,-2.4006003 0.3817278,-2.4006003 0.3715439,-2.3983127 0.3612709,-2.3967408 0.3404225,-2.3960262 0.3237895,-2.3960262 0.3237895,-2.565683 0.2417332,-2.565683z M0.3237895,-2.3311575 L0.3844999,-2.3311575 0.3844999,-2.3311575 0.4030514,-2.3312768 0.4215492,-2.3307662 0.4399413,-2.3290159 0.4582397,-2.3261675 0.4582397,-2.3261675 0.4649778,-2.3231843 0.4711833,-2.3194915 0.4764895,-2.3146003 0.4812485,-2.3089801 0.4812485,-2.3089801 0.4849499,-2.3018143 0.4877274,-2.2943879 0.4890584,-2.2865533 0.489565,-2.2784862 0.489565,-2.2784862 0.4888954,-2.2694969 0.487141,-2.2608787 0.4834849,-2.2529111 0.4786152,-2.2453588 0.4786152,-2.2453588 0.4718976,-2.2394597 0.464607,-2.2346466 0.4564143,-2.2315434 0.4477054,-2.2294188 0.4477054,-2.2294188 0.4177849,-2.2281037 0.3878266,-2.2280327 0.3237895,-2.2280327 0.3237895,-2.3311575z" transform="matrix(1,0,0,-1,7.3025,5.715)" fill="rgb(104,104,104)" fill-rule="nonzero" shaper:cutDepth="0.0000762" stroke-linecap="round" stroke-linejoin="round" /><path d="M1.1144124,-2.5726134 L1.2150422,-2.1523525 1.2735349,-2.1523525 1.171796,-2.5726134 1.1144124,-2.5726134z" transform="matrix(1,0,0,-1,7.3025,5.715)" fill="rgb(104,104,104)" fill-rule="nonzero" shaper:cutDepth="0.0000762" stroke-linecap="round" stroke-linejoin="round" /><path d="M1.8604027,-2.1592829 L1.9424588,-2.1592829 1.9424588,-2.3793932 1.9424588,-2.3793932 1.9427546,-2.4134198 1.94382,-2.4303827 1.9455081,-2.4473113 1.9455081,-2.4473113 1.9492287,-2.458928 1.9515219,-2.4644645 1.9543346,-2.4696747 1.9577863,-2.4744837 1.961764,-2.4789624 1.9705964,-2.4873692 1.9705964,-2.4873692 1.9832225,-2.4942833 1.9897039,-2.4971682 1.9963864,-2.4993694 2.0032896,-2.5008203 2.0103628,-2.5016936 2.0247923,-2.5024775 2.0247923,-2.5024775 2.0388238,-2.5018655 2.0524184,-2.4997579 2.0589188,-2.4976871 2.065215,-2.4949172 2.0774638,-2.4882008 2.0774638,-2.4882008 2.0850639,-2.4807995 2.0914476,-2.4726643 2.0957628,-2.4632813 2.0988094,-2.4531329 2.0988094,-2.4531329 2.1006521,-2.4359323 2.1018958,-2.418696 2.1024133,-2.3841059 2.1024133,-2.1592829 2.1844694,-2.1592829 2.1844694,-2.37274 2.1844694,-2.37274 2.1843884,-2.3987077 2.1835459,-2.4246189 2.1812465,-2.4504223 2.177816,-2.4761419 2.177816,-2.4761419 2.1738615,-2.4899525 2.1687447,-2.5031984 2.1616324,-2.5154748 2.1532823,-2.5271498 2.1532823,-2.5271498 2.1427082,-2.5374032 2.1313561,-2.5465457 2.1187663,-2.553921 2.1054627,-2.5602772 2.1054627,-2.5602772 2.0863623,-2.566005 2.0670004,-2.5701739 2.0472508,-2.5720315 2.0272871,-2.5726134 2.0272871,-2.5726134 2.0047278,-2.5721627 1.9824102,-2.5702642 1.9714166,-2.5683251 1.9605418,-2.5656751 1.9389936,-2.5591683 1.9389936,-2.5591683 1.9256933,-2.55234 1.9131406,-2.5445055 1.9018868,-2.5349228 1.891451,-2.524239 1.891451,-2.524239 1.8839405,-2.5138663 1.8773658,-2.5030204 1.8724024,-2.4913595 1.8684422,-2.4791913 1.8684422,-2.4791913 1.8644965,-2.4535771 1.8617442,-2.4278599 1.8606347,-2.4020011 1.8604027,-2.3760666 1.8604027,-2.1592829z" transform="matrix(1,0,0,-1,7.3025,5.715)" fill="rgb(104,104,104)" fill-rule="nonzero" shaper:cutDepth="0.0000762" stroke-linecap="round" stroke-linejoin="round" /><path d="M0.2490224,0.7724259 L0.4114715,0.7724259 0.4114715,0.7724259 0.4475255,0.7717814 0.4654866,0.770402 0.4834093,0.7684063 0.4834093,0.7684063 0.4946422,0.7657972 0.5055356,0.7623337 0.5158546,0.7574248 0.5258235,0.7516346 0.5258235,0.7516346 0.5349311,0.7443545 0.5433122,0.736404 0.5505092,0.7273609 0.5570104,0.7176756 0.5570104,0.7176756 0.5623616,0.7063815 0.5664788,0.6947604 0.5685772,0.6826044 0.5694851,0.6701329 0.5694851,0.6701329 0.5682908,0.6562549 0.5656516,0.6428016 0.5606005,0.6300572 0.5540996,0.6177389 0.5540996,0.6177389 0.5454828,0.606686 0.5358732,0.5967897 0.5246173,0.5888112 0.5123785,0.5819779 0.5123785,0.5819779 0.52872,0.5759085 0.5365495,0.5723536 0.5439695,0.5681744 0.5508701,0.5632032 0.5573237,0.5575504 0.5694851,0.5451081 0.5694851,0.5451081 0.5780554,0.530971 0.5817216,0.5236987 0.5846452,0.5161817 0.5866793,0.5083718 0.5879983,0.5003264 0.5894448,0.4838431 0.5894448,0.4838431 0.5883863,0.4698497 0.5861356,0.4561392 0.5819251,0.4428941 0.5765542,0.4299244 0.5765542,0.4299244 0.5695813,0.4179142 0.5616236,0.4067362 0.551996,0.3969692 0.5413476,0.3880647 0.5413476,0.3880647 0.5284607,0.3808122 0.5150814,0.3749385 0.500924,0.3712434 0.4863201,0.3687981 0.4863201,0.3687981 0.4368658,0.3665442 0.3873536,0.3660259 0.2490224,0.3660259 0.2490224,0.7724259z M0.3310786,0.5431675 L0.3310786,0.4344985 0.407036,0.4344985 0.407036,0.4344985 0.4352307,0.4347116 0.4633111,0.4369935 0.4633111,0.4369935 0.4717193,0.4393016 0.4796124,0.4425487 0.4866302,0.4473911 0.4931119,0.4532106 0.4931119,0.4532106 0.4982544,0.4610541 0.5021015,0.4693462 0.5039317,0.4783368 0.5046164,0.4877241 0.5046164,0.4877241 0.5040398,0.4959672 0.5025951,0.5039559 0.499644,0.511503 0.4957454,0.5187724 0.4957454,0.5187724 0.4903877,0.5248518 0.48444,0.5301266 0.477546,0.5341107 0.4701029,0.537346 0.4701029,0.537346 0.4520807,0.5405474 0.4339446,0.5425796 0.4156736,0.543228 0.3973335,0.5431675 0.3310786,0.5431675z M0.3310786,0.704785 L0.3310786,0.6108084 0.3848587,0.6108084 0.3848587,0.6108084 0.414677,0.6109092 0.4444603,0.6121945 0.4444603,0.6121945 0.4536065,0.6139187 0.4623,0.6166453 0.4701985,0.621133 0.4775877,0.6267484 0.4775877,0.6267484 0.4828695,0.6338009 0.4868769,0.6413497 0.4888498,0.6496908 0.4896467,0.6584898 0.4896467,0.6584898 0.4889911,0.6668278 0.4873118,0.6748077 0.483847,0.6821629 0.479251,0.6891222 0.479251,0.6891222 0.472489,0.6947066 0.4651694,0.699127 0.4569955,0.7017642 0.4483414,0.7033989 0.4483414,0.7033989 0.4132892,0.7047065 0.3782055,0.704785 0.3310786,0.704785z" transform="matrix(1,0,0,-1,7.3025,5.715)" fill="rgb(104,104,104)" fill-rule="nonzero" shaper:cutDepth="0.0000762" stroke-linecap="round" stroke-linejoin="round" /><path d="M1.3287823,0.5154458 L1.4083436,0.4902191 1.4083436,0.4902191 1.39866,0.4620197 1.3929192,0.4484878 1.3860999,0.4356373 1.3778912,0.4236645 1.3684469,0.4124722 1.3474944,0.3913913 1.3474944,0.3913913 1.322437,0.3770513 1.3095642,0.3709948 1.2962788,0.3662731 1.2825206,0.3630813 1.2683922,0.3610873 1.2395185,0.3590955 1.2395185,0.3590955 1.220688,0.3607785 1.2021347,0.3631212 1.1841357,0.3667833 1.1754308,0.3693153 1.1669683,0.3724246 1.1587757,0.3761759 1.1508344,0.3805254 1.1355622,0.3906775 1.1208646,0.402197 1.1064543,0.4144003 1.1064543,0.4144003 1.0944051,0.4313169 1.0830959,0.448499 1.073267,0.4662124 1.0691388,0.4753512 1.0656542,0.4847211 1.0628168,0.4943231 1.0605486,0.5041294 1.0573942,0.5242379 1.0555407,0.5448133 1.0543376,0.5656221 1.0543376,0.5656221 1.0554425,0.5872223 1.0572092,0.6085916 1.0602994,0.6294989 1.0625475,0.6397071 1.0653746,0.6497131 1.0688618,0.6594888 1.0730174,0.6690311 1.082969,0.6875432 1.0944644,0.7055163 1.1067316,0.7232199 1.1067316,0.7232199 1.1216624,0.7357574 1.1368918,0.7475752 1.1527187,0.7579536 1.1609496,0.7623781 1.1694416,0.7661733 1.1782097,0.7693036 1.1872238,0.7718409 1.2058499,0.7754755 1.2250385,0.7777548 1.2445083,0.7793563 1.2445083,0.7793563 1.2778293,0.7764676 1.2939875,0.7736775 1.3095429,0.7692725 1.3243348,0.7628224 1.3384715,0.7546169 1.3521711,0.7452406 1.3656522,0.7352789 1.3656522,0.7352789 1.3795964,0.718586 1.3859272,0.7098747 1.3914906,0.7007266 1.3961987,0.6910919 1.400245,0.6810806 1.4072347,0.6604303 1.3260102,0.6410251 1.3260102,0.6410251 1.3214475,0.6553016 1.3186719,0.6621387 1.3153032,0.6686144 1.3111915,0.6746373 1.3064532,0.6802784 1.2959321,0.6909242 1.2959321,0.6909242 1.2831636,0.6988621 1.2765829,0.7022447 1.2697664,0.7049237 1.2626713,0.706771 1.2553542,0.7079556 1.2403501,0.7092205 1.2403501,0.7092205 1.2194678,0.706828 1.2094569,0.7046677 1.1999625,0.7013503 1.1911081,0.6965992 1.1827854,0.6906567 1.1670262,0.6767861 1.1670262,0.6767861 1.1534397,0.65245 1.1479007,0.6399124 1.1438407,0.6269392 1.1412801,0.6135242 1.1398531,0.5997753 1.1388888,0.5717209 1.1388888,0.5717209 1.1397015,0.5425574 1.1410521,0.528241 1.1435359,0.514243 1.1475226,0.5006673 1.1530238,0.4875171 1.1666104,0.461943 1.1666104,0.461943 1.1820053,0.4480173 1.1901532,0.4420412 1.1988418,0.4372493 1.2081845,0.43389 1.2180574,0.431692 1.2386869,0.4292314 1.2386869,0.4292314 1.2541098,0.4307872 1.2615923,0.432181 1.2688,0.4343138 1.2756683,0.4373595 1.2822556,0.4411608 1.2949619,0.4500226 1.2949619,0.4500226 1.3069913,0.4644594 1.3123465,0.472032 1.3169152,0.4800267 1.3206377,0.4884757 1.3237124,0.4972726 1.3287823,0.5154458z" transform="matrix(1,0,0,-1,7.3025,5.715)" fill="rgb(104,104,104)" fill-rule="nonzero" shaper:cutDepth="0.0000762" stroke-linecap="round" stroke-linejoin="round" /><path d="M1.4798655,0.3660259 L1.4798655,0.7724259 1.5619217,0.7724259 1.5619217,0.5919577 1.7276974,0.7724259 1.8380298,0.7724259 1.6850061,0.6141351 1.8463463,0.3660259 1.7401722,0.3660259 1.6284538,0.5567511 1.5619217,0.488833 1.5619217,0.3660259 1.4798655,0.3660259z" transform="matrix(1,0,0,-1,7.3025,5.715)" fill="rgb(104,104,104)" fill-rule="nonzero" shaper:cutDepth="0.0000762" stroke-linecap="round" stroke-linejoin="round" /><path d="M0.623893,-0.158037 L0.5346292,-0.158037 0.4991454,-0.0657238 0.3366963,-0.0657238 0.3031531,-0.158037 0.2161069,-0.158037 0.3743978,0.248363 0.4611667,0.248363 0.623893,-0.158037z M0.4728098,0.0027488 L0.416812,0.1535548 0.3619231,0.0027488 0.4728098,0.0027488z" transform="matrix(1,0,0,-1,7.3025,5.715)" fill="rgb(104,104,104)" fill-rule="nonzero" shaper:cutDepth="0.0000762" stroke-linecap="round" stroke-linejoin="round" /><path d="M-2.823191,0.042668 L-2.823191,0.042668 -2.8221716,0.0694019 -2.8210755,0.0826595 -2.8192759,0.095786 -2.8165665,0.1087429 -2.8130392,0.1215474 -2.8046175,0.1469016 -2.8046175,0.1469016 -2.7968587,0.1619864 -2.78817,0.17644 -2.7779359,0.1898448 -2.7667774,0.2026222 -2.7667774,0.2026222 -2.7549152,0.2136059 -2.7423731,0.2236076 -2.728668,0.2319297 -2.7142448,0.2392148 -2.7142448,0.2392148 -2.6929237,0.2463061 -2.6821608,0.2493089 -2.6712752,0.2516609 -2.6602477,0.25326 -2.6491086,0.2542668 -2.6266443,0.2552934 -2.6266443,0.2552934 -2.6064997,0.2538029 -2.5866257,0.2516322 -2.5672926,0.2481014 -2.5579135,0.2456134 -2.5487711,0.2425302 -2.5398956,0.2387759 -2.5312769,0.2343761 -2.5146639,0.2240064 -2.4986387,0.212159 -2.4829073,0.1995728 -2.4829073,0.1995728 -2.4703897,0.1823017 -2.458647,0.164749 -2.4484544,0.1466331 -2.4441815,0.137276 -2.4405818,0.1276742 -2.4376549,0.117828 -2.435319,0.107767 -2.4320829,0.0871233 -2.430198,0.0659886 -2.4289886,0.0446085 -2.4289886,0.0446085 -2.4301971,0.0233726 -2.4320753,0.0023795 -2.435293,-0.018128 -2.4376134,-0.0281237 -2.4405198,-0.037907 -2.4440931,-0.0474484 -2.4483325,-0.0567484 -2.4584409,-0.0747574 -2.4700827,-0.0922104 -2.4824914,-0.1093855 -2.4824914,-0.1093855 -2.4981327,-0.1219476 -2.5140685,-0.1337714 -2.5305931,-0.1441187 -2.5391683,-0.148508 -2.5480007,-0.1522523 -2.5571003,-0.1553266 -2.5664368,-0.1578069 -2.5856852,-0.161325 -2.6054749,-0.1634856 -2.6255354,-0.1649674 -2.6255354,-0.1649674 -2.6457162,-0.1635292 -2.6656293,-0.1614128 -2.6850069,-0.1579403 -2.6944112,-0.1554835 -2.7035812,-0.1524333 -2.7124864,-0.1487125 -2.7211352,-0.1443424 -2.737809,-0.134022 -2.7538954,-0.1222142 -2.7696882,-0.1096627 -2.7696882,-0.1096627 -2.7820574,-0.0926994 -2.7936669,-0.0754583 -2.8037571,-0.0576614 -2.8079951,-0.0484677 -2.8115723,-0.0390324 -2.8144853,-0.0293541 -2.816814,-0.0194621 -2.8200525,0.0008409 -2.8219556,0.0216323 -2.823191,0.042668z M-2.7386399,0.0454402 L-2.7386399,0.0454402 -2.7371266,0.0171788 -2.7353406,0.0033828 -2.7323194,-0.0100117 -2.7276841,-0.0228815 -2.7215484,-0.0352635 -2.70676,-0.0592092 -2.70676,-0.0592092 -2.6892757,-0.0743415 -2.6800618,-0.0808405 -2.6702818,-0.0860589 -2.6598152,-0.089724 -2.6487908,-0.0921275 -2.6258126,-0.0948316 -2.6258126,-0.0948316 -2.6029484,-0.0921792 -2.5919785,-0.0898068 -2.581563,-0.0861789 -2.571832,-0.0810011 -2.5626672,-0.0745417 -2.5452811,-0.0594864 -2.5452811,-0.0594864 -2.530558,-0.0351629 -2.524472,-0.0225947 -2.5199038,-0.0095427 -2.5169476,0.0040231 -2.515221,0.0179807 -2.513817,0.0465491 -2.513817,0.0465491 -2.5151435,0.0746121 -2.5168083,0.0883265 -2.5196748,0.1016605 -2.524119,0.1144949 -2.5300578,0.1268561 -2.5444494,0.1507826 -2.5444494,0.1507826 -2.5620881,0.1656632 -2.5713776,0.1720095 -2.5812313,0.1770433 -2.5917538,0.1805208 -2.6028102,0.1827564 -2.6258126,0.1851575 -2.6258126,0.1851575 -2.6489472,0.1826895 -2.6600639,0.1804117 -2.6706396,0.1768813 -2.6805397,0.171786 -2.6898723,0.1653765 -2.7075916,0.1503668 -2.7075916,0.1503668 -2.7221462,0.1262969 -2.728158,0.1138592 -2.7326643,0.1009424 -2.7355762,0.0875181 -2.7372727,0.0737071 -2.7386399,0.0454402z" transform="matrix(1,0,0,-1,7.3025,5.715)" fill="rgb(104,104,104)" fill-rule="nonzero" shaper:cutDepth="0.0000762" stroke-linecap="round" stroke-linejoin="round" /><path d="M-2.3072903,-0.158037 L-2.4043163,0.248363 -2.3203196,0.248363 -2.2590546,-0.0307945 -2.1847605,0.248363 -2.0871801,0.248363 -2.0159353,-0.0355072 -1.9535616,0.248363 -1.8709508,0.248363 -1.9696402,-0.158037 -2.0566863,-0.158037 -2.1376336,0.1457927 -2.2183037,-0.158037 -2.3072903,-0.158037z" transform="matrix(1,0,0,-1,7.3025,5.715)" fill="rgb(104,104,104)" fill-rule="nonzero" shaper:cutDepth="0.0000762" stroke-linecap="round" stroke-linejoin="round" /><path d="M-2.5809034,0.303627 L-2.6701673,0.303627 -2.705651,0.3959402 -2.8681001,0.3959402 -2.9016434,0.303627 -2.9886895,0.303627 -2.8303986,0.710027 -2.7436298,0.710027 -2.5809034,0.303627z M-2.7319866,0.4644128 L-2.7879845,0.6152188 -2.8428734,0.4644128 -2.7319866,0.4644128z" transform="matrix(1,0,0,-1,7.3025,5.715)" fill="rgb(104,104,104)" fill-rule="nonzero" shaper:cutDepth="0.0000762" stroke-linecap="round" stroke-linejoin="round" /><path d="M-1.611753,0.4358595 L-1.5319145,0.4436216 -1.5319145,0.4436216 -1.5280201,0.4270981 -1.5255255,0.4191186 -1.5223741,0.4114777 -1.518367,0.4042779 -1.5135733,0.3974836 -1.5026682,0.3845743 -1.5026682,0.3845743 -1.4890529,0.3760841 -1.4820203,0.3725185 -1.4747184,0.3697664 -1.467114,0.3679282 -1.4592748,0.3667993 -1.4432051,0.3657236 -1.4432051,0.3657236 -1.4272257,0.3664577 -1.4194013,0.3673723 -1.4117753,0.3689439 -1.4044097,0.3713778 -1.3972901,0.3746267 -1.3834648,0.3824952 -1.3834648,0.3824952 -1.3753236,0.3907452 -1.3717681,0.3951274 -1.3688306,0.3998183 -1.3666771,0.4049008 -1.3651985,0.4103203 -1.3633666,0.4217214 -1.3633666,0.4217214 -1.3639656,0.4283844 -1.3653767,0.4347635 -1.368173,0.4406583 -1.3718219,0.4462551 -1.3718219,0.4462551 -1.3783694,0.4519995 -1.3854221,0.4569294 -1.3931905,0.4607056 -1.4013455,0.4638584 -1.4013455,0.4638584 -1.4340482,0.4732657 -1.4670458,0.4816003 -1.4670458,0.4816003 -1.4917693,0.4881965 -1.5038887,0.4920257 -1.5157173,0.4964922 -1.5271597,0.5018046 -1.5382093,0.5079777 -1.5596364,0.5217967 -1.5596364,0.5217967 -1.5752546,0.5393955 -1.5820053,0.548676 -1.5874858,0.5585336 -1.5913964,0.5691047 -1.5940068,0.5802668 -1.5970605,0.6035757 -1.5970605,0.6035757 -1.5956323,0.6189911 -1.5944077,0.6265449 -1.5925706,0.633914 -1.5899926,0.6410598 -1.5868143,0.6480246 -1.5794573,0.6616527 -1.5794573,0.6616527 -1.5689488,0.6745994 -1.5633158,0.6806101 -1.5572282,0.6860659 -1.5506028,0.6908649 -1.5435489,0.6951405 -1.5287266,0.7028194 -1.5287266,0.7028194 -1.5092506,0.7091735 -1.4994195,0.7118442 -1.489477,0.7139088 -1.4692434,0.7161409 -1.4487496,0.7169574 -1.4487496,0.7169574 -1.4178006,0.7154581 -1.4026676,0.7136163 -1.3879443,0.7104641 -1.3737581,0.7055938 -1.3600775,0.6991065 -1.333566,0.6834142 -1.333566,0.6834142 -1.3166913,0.6641229 -1.3094217,0.6539397 -1.3035533,0.6431115 -1.2993502,0.6315168 -1.2964784,0.6193094 -1.2929535,0.5938731 -1.3750098,0.5902693 -1.3750098,0.5902693 -1.377868,0.6029959 -1.3797422,0.6091256 -1.3821506,0.6149748 -1.3852566,0.6204579 -1.3890101,0.625601 -1.3976031,0.6353171 -1.3976031,0.6353171 -1.409724,0.6418072 -1.4159485,0.6444776 -1.4223678,0.646466 -1.4357682,0.6484752 -1.4495812,0.6490393 -1.4495812,0.6490393 -1.4644029,0.6483183 -1.4788038,0.6460866 -1.4857196,0.6439487 -1.4924455,0.641129 -1.505579,0.6343468 -1.505579,0.6343468 -1.5110493,0.6291794 -1.5153171,0.6233929 -1.5175702,0.6165693 -1.5186081,0.6091201 -1.5186081,0.6091201 -1.517551,0.6019837 -1.5153836,0.5953869 -1.5114211,0.5896627 -1.5064106,0.5844478 -1.5064106,0.5844478 -1.4885522,0.5750992 -1.4794077,0.5709795 -1.4700308,0.567459 -1.4507212,0.5618492 -1.4310077,0.5572805 -1.4310077,0.5572805 -1.4082845,0.551674 -1.3858478,0.5452258 -1.3639476,0.5372019 -1.3424368,0.5280341 -1.3424368,0.5280341 -1.3292803,0.5197976 -1.3171659,0.5104322 -1.3068114,0.4991604 -1.2975276,0.4867288 -1.2975276,0.4867288 -1.2902973,0.47137 -1.2872485,0.4635438 -1.2848784,0.4555414 -1.2832818,0.4473385 -1.2822892,0.4389789 -1.2813106,0.4219986 -1.2813106,0.4219986 -1.2828789,0.4046738 -1.2842264,0.3961776 -1.2862498,0.387881 -1.2890918,0.379826 -1.2925977,0.371967 -1.3007157,0.3565754 -1.3007157,0.3565754 -1.3119764,0.342279 -1.3180315,0.3356425 -1.3245963,0.3296199 -1.3317732,0.3243346 -1.3394431,0.3196433 -1.3556047,0.3112505 -1.3556047,0.3112505 -1.3771761,0.3044934 -1.3880593,0.3016688 -1.3990591,0.2995066 -1.4214155,0.2972103 -1.4440368,0.2964194 -1.4440368,0.2964194 -1.475913,0.2981808 -1.4914857,0.3002048 -1.5066199,0.3036008 -1.5211826,0.3087852 -1.5352187,0.3156171 -1.5624085,0.3320417 -1.5624085,0.3320417 -1.5816825,0.3545941 -1.5900778,0.3664792 -1.5969854,0.3790937 -1.6022082,0.3925345 -1.6061188,0.4066187 -1.611753,0.4358595z" transform="matrix(1,0,0,-1,7.3025,5.715)" fill="rgb(104,104,104)" fill-rule="nonzero" shaper:cutDepth="0.0000762" stroke-linecap="round" stroke-linejoin="round" /><path d="M-1.7511931,0.303627 L-1.7511931,0.710027 -1.669137,0.710027 -1.669137,0.303627 -1.7511931,0.303627z" transform="matrix(1,0,0,-1,7.3025,5.715)" fill="rgb(104,104,104)" fill-rule="nonzero" shaper:cutDepth="0.0000762" stroke-linecap="round" stroke-linejoin="round" /><path d="M-1.1023861,3.2356076 L-0.9196309,3.2356076 -0.9196309,3.2356076 -0.8790702,3.2348826 -0.8588639,3.2333307 -0.838701,3.2310855 -0.838701,3.2310855 -0.8260639,3.2281502 -0.8138088,3.2242539 -0.8021998,3.2187313 -0.7909848,3.2122174 -0.7909848,3.2122174 -0.7807388,3.2040273 -0.7713101,3.195083 -0.7632134,3.1849095 -0.7558996,3.1740135 -0.7558996,3.1740135 -0.7498796,3.1613076 -0.7452478,3.1482339 -0.742887,3.1345584 -0.7418656,3.1205279 -0.7418656,3.1205279 -0.7432092,3.1049152 -0.744389,3.0972581 -0.7461783,3.0897802 -0.7487138,3.0825216 -0.7518608,3.0754428 -0.7591743,3.0615847 -0.7591743,3.0615847 -0.7688682,3.0491502 -0.7740641,3.0433396 -0.7796789,3.0380168 -0.785803,3.0332874 -0.7923418,3.0290411 -0.8061106,3.0213536 -0.8061106,3.0213536 -0.7877264,3.0145256 -0.7789182,3.0105263 -0.7705706,3.0058247 -0.7628074,3.0002321 -0.7555472,2.9938727 -0.7418656,2.979875 -0.7418656,2.979875 -0.732224,2.9639708 -0.7280995,2.9557894 -0.7248105,2.9473329 -0.7225222,2.9385467 -0.7210383,2.9294957 -0.7194111,2.910952 -0.7194111,2.910952 -0.7206019,2.8952093 -0.7231339,2.8797851 -0.7278706,2.8648843 -0.7339129,2.8502935 -0.7339129,2.8502935 -0.7417574,2.836782 -0.7507098,2.8242067 -0.7615409,2.8132188 -0.7735202,2.8032012 -0.7735202,2.8032012 -0.7880179,2.7950422 -0.79544,2.7914476 -0.8030697,2.7884343 -0.8189969,2.7842772 -0.8354263,2.7815263 -0.8354263,2.7815263 -0.8910623,2.7789908 -0.9467635,2.7784076 -1.1023861,2.7784076 -1.1023861,3.2356076z M-1.0100728,2.9776919 L-1.0100728,2.8554393 -0.9246208,2.8554393 -0.9246208,2.8554393 -0.8929018,2.8556791 -0.87709,2.8566622 -0.8613114,2.8582461 -0.8613114,2.8582461 -0.8518521,2.8608427 -0.8429724,2.8644957 -0.8350774,2.8699434 -0.8277854,2.8764904 -0.8277854,2.8764904 -0.8220001,2.8853143 -0.8176721,2.894643 -0.8156131,2.9047574 -0.8148429,2.9153181 -0.8148429,2.9153181 -0.8154915,2.9245916 -0.8171168,2.9335789 -0.8204368,2.9420694 -0.8248226,2.9502475 -0.8248226,2.9502475 -0.8308501,2.9570867 -0.8375413,2.9630208 -0.845297,2.967503 -0.8536705,2.9711427 -0.8536705,2.9711427 -0.8739455,2.9747443 -0.8943486,2.9770305 -0.9149035,2.97776 -0.9355361,2.9776919 -1.0100728,2.9776919z M-1.0100728,3.1595116 L-1.0100728,3.053788 -0.9495704,3.053788 -0.9495704,3.053788 -0.9160247,3.0539013 -0.8825185,3.0553473 -0.8825185,3.0553473 -0.8722291,3.057287 -0.8624488,3.0603544 -0.853563,3.0654031 -0.8452501,3.0717204 -0.8452501,3.0717204 -0.8393081,3.0796545 -0.8347998,3.0881469 -0.8325802,3.0975305 -0.8316838,3.1074294 -0.8316838,3.1074294 -0.8324214,3.1168098 -0.8343105,3.1257871 -0.8382085,3.1340617 -0.843379,3.141891 -0.843379,3.141891 -0.8509862,3.1481734 -0.8592208,3.1531463 -0.8684164,3.1561131 -0.8781523,3.1579522 -0.8781523,3.1579522 -0.917586,3.1594232 -0.9570553,3.1595116 -1.0100728,3.1595116z" transform="matrix(1,0,0,-1,7.3025,5.715)" fill="rgb(104,104,104)" fill-rule="nonzero" shaper:cutDepth="0.0000762" stroke-linecap="round" stroke-linejoin="round" /><path d="M0.4610404,4.154312 L0.599926,4.366383 0.4740696,4.560712 0.5699866,4.560712 0.6514884,4.4301429 0.7313269,4.560712 0.8264123,4.560712 0.7000013,4.3633336 0.838887,4.154312 0.7399206,4.154312 0.6498251,4.294861 0.5594524,4.154312 0.4610404,4.154312z" transform="matrix(1,0,0,-1,7.3025,5.715)" fill="rgb(104,104,104)" fill-rule="nonzero" shaper:cutDepth="0.0000762" stroke-linecap="round" stroke-linejoin="round" /><path d="M1.5510573,4.3037319 L1.6306186,4.2785052 1.6306186,4.2785052 1.620935,4.2503058 1.6151943,4.2367739 1.6083749,4.2239234 1.6001662,4.2119506 1.5907219,4.2007583 1.5697695,4.1796774 1.5697695,4.1796774 1.5447121,4.1653374 1.5318392,4.1592809 1.5185539,4.1545592 1.5047957,4.1513674 1.4906673,4.1493733 1.4617935,4.1473816 1.4617935,4.1473816 1.442963,4.1490646 1.4244097,4.1514073 1.4064108,4.1550694 1.3977058,4.1576014 1.3892434,4.1607106 1.3810507,4.164462 1.3731094,4.1688115 1.3578373,4.1789635 1.3431397,4.1904831 1.3287294,4.2026864 1.3287294,4.2026864 1.3166801,4.219603 1.3053709,4.2367851 1.2955419,4.2544985 1.2914137,4.2636373 1.2879292,4.2730071 1.2850918,4.2826092 1.2828235,4.2924155 1.2796691,4.312524 1.2778156,4.3330994 1.2766126,4.3539082 1.2766126,4.3539082 1.2777175,4.3755084 1.2794843,4.3968777 1.2825744,4.4177849 1.2848225,4.4279931 1.2876497,4.4379992 1.2911368,4.4477749 1.2952925,4.4573172 1.305244,4.4758292 1.3167393,4.4938024 1.3290065,4.511506 1.3290065,4.511506 1.3439373,4.5240435 1.3591668,4.5358613 1.3749937,4.5462397 1.3832246,4.5506642 1.3917166,4.5544594 1.4004847,4.5575897 1.4094988,4.560127 1.4281249,4.5637616 1.4473135,4.5660409 1.4667834,4.5676425 1.4667834,4.5676425 1.5001044,4.5647537 1.5162625,4.5619636 1.5318179,4.5575586 1.5466098,4.5511085 1.5607465,4.542903 1.5744461,4.5335267 1.5879272,4.523565 1.5879272,4.523565 1.6018714,4.5068721 1.6082022,4.4981608 1.6137655,4.4890127 1.6184736,4.479378 1.62252,4.4693667 1.6295097,4.4487164 1.5482851,4.4293112 1.5482851,4.4293112 1.5437224,4.4435877 1.5409468,4.4504248 1.5375782,4.4569004 1.5334665,4.4629234 1.5287282,4.4685645 1.5182072,4.4792103 1.5182072,4.4792103 1.5054386,4.4871483 1.4988579,4.4905309 1.4920415,4.4932099 1.4849464,4.4950571 1.4776293,4.4962417 1.4626251,4.4975066 1.4626251,4.4975066 1.4417428,4.4951141 1.431732,4.4929538 1.4222375,4.4896364 1.4133831,4.4848853 1.4050604,4.4789428 1.3893012,4.4650722 1.3893012,4.4650722 1.3757148,4.4407361 1.3701758,4.4281985 1.3661157,4.4152253 1.3635551,4.4018103 1.3621281,4.3880614 1.3611637,4.360007 1.3611637,4.360007 1.3619764,4.3308435 1.3633271,4.3165271 1.3658109,4.3025291 1.3697976,4.2889534 1.3752988,4.2758032 1.3888854,4.2502291 1.3888854,4.2502291 1.4042802,4.2363034 1.4124282,4.2303274 1.4211168,4.2255354 1.4304595,4.2221762 1.4403324,4.2199781 1.4609618,4.2175175 1.4609618,4.2175175 1.4763848,4.2190733 1.4838673,4.2204671 1.491075,4.2225999 1.4979432,4.2256456 1.5045305,4.2294469 1.5172368,4.2383087 1.5172368,4.2383087 1.5292663,4.2527455 1.5346215,4.260318 1.5391903,4.2683127 1.5429127,4.2767618 1.5459874,4.2855587 1.5510573,4.3037319z" transform="matrix(1,0,0,-1,7.3025,5.715)" fill="rgb(104,104,104)" fill-rule="nonzero" shaper:cutDepth="0.0000762" stroke-linecap="round" stroke-linejoin="round" /><path d="M1.7013089,4.154312 L1.7013089,4.560712 1.8740151,4.560712 1.8740151,4.560712 1.8980084,4.5604754 1.9218427,4.5590185 1.9336507,4.5574526 1.9453761,4.5552533 1.9686847,4.549762 1.9686847,4.549762 1.9827606,4.5427799 1.9894095,4.5388144 1.9955914,4.5342796 2.001211,4.529059 2.0063763,4.5232846 2.0159502,4.510813 2.0159502,4.510813 2.023591,4.4957029 2.026856,4.487992 2.0294545,4.4800942 2.0312578,4.4719733 2.0324234,4.4636735 2.033692,4.4467759 2.033692,4.4467759 2.0318818,4.4261035 2.0301604,4.4160643 2.0274595,4.4063814 2.0235232,4.3971478 2.0185344,4.3882972 2.0068019,4.3712342 2.0068019,4.3712342 1.9891115,4.356877 1.9798291,4.3506 1.970024,4.3454013 1.9596408,4.3413952 1.9488114,4.3383093 1.9264091,4.3336713 1.9264091,4.3336713 1.938242,4.3262318 1.9496277,4.3182204 1.9602343,4.3092123 1.970348,4.2995737 1.970348,4.2995737 1.9830581,4.283823 1.9951158,4.2676023 2.0170589,4.2335961 2.0666809,4.154312 1.968546,4.154312 1.9092216,4.2427442 1.9092216,4.2427442 1.888526,4.273298 1.8659758,4.3024845 1.8659758,4.3024845 1.8604912,4.3077231 1.8546473,4.3124303 1.8481752,4.3162081 1.8413034,4.3193947 1.8413034,4.3193947 1.8311195,4.3216822 1.8208465,4.3232542 1.7999981,4.3239688 1.7833651,4.3239688 1.7833651,4.154312 1.7013089,4.154312z M1.7833651,4.3888375 L1.8440757,4.3888375 1.8440757,4.3888375 1.8626271,4.3887182 1.8811249,4.3892288 1.8995169,4.3909791 1.9178153,4.3938274 1.9178153,4.3938274 1.9245535,4.3968106 1.9307591,4.4005034 1.9360653,4.4053947 1.9408244,4.4110149 1.9408244,4.4110149 1.9445258,4.4181806 1.9473033,4.4256071 1.9486344,4.4334416 1.9491409,4.4415087 1.9491409,4.4415087 1.9484713,4.4504981 1.9467169,4.4591164 1.9430607,4.4670839 1.9381908,4.4746362 1.9381908,4.4746362 1.9314732,4.4805353 1.9241827,4.4853484 1.91599,4.4884515 1.9072811,4.4905762 1.9072811,4.4905762 1.8773606,4.4918912 1.8474023,4.4919622 1.7833651,4.4919622 1.7833651,4.3888375z" transform="matrix(1,0,0,-1,7.3025,5.715)" fill="rgb(104,104,104)" fill-rule="nonzero" shaper:cutDepth="0.0000762" stroke-linecap="round" stroke-linejoin="round" /><path d="M2.7051112,4.154312 L2.6080854,4.560712 2.6920821,4.560712 2.7533471,4.2815546 2.8276412,4.560712 2.9252217,4.560712 2.9964664,4.2768419 3.05884,4.560712 3.1414506,4.560712 3.0427615,4.154312 2.9557154,4.154312 2.874768,4.4581418 2.7940981,4.154312 2.7051112,4.154312z" transform="matrix(1,0,0,-1,7.3025,5.715)" fill="rgb(104,104,104)" fill-rule="nonzero" shaper:cutDepth="0.0000762" stroke-linecap="round" stroke-linejoin="round" /><path d="M-2.1997162,-2.565683 L-2.2889801,-2.565683 -2.3244638,-2.4733697 -2.486913,-2.4733697 -2.5204562,-2.565683 -2.6075023,-2.565683 -2.4492115,-2.1592829 -2.3624426,-2.1592829 -2.1997162,-2.565683z M-2.3507994,-2.4048972 L-2.4067973,-2.2540911 -2.4616862,-2.4048972 -2.3507994,-2.4048972z" transform="matrix(1,0,0,-1,7.3025,5.715)" fill="rgb(104,104,104)" fill-rule="nonzero" shaper:cutDepth="0.0000762" stroke-linecap="round" stroke-linejoin="round" /><path d="M2.2687719,4.154312 L2.2687719,4.560712 2.4004499,4.560712 2.4004499,4.560712 2.4249658,4.560775 2.4494252,4.5600955 2.4737744,4.5579666 2.4980304,4.5546133 2.4980304,4.5546133 2.5149901,4.548127 2.5230662,4.5442863 2.5306578,4.5397283 2.5376689,4.5343108 2.544213,4.5282021 2.5565231,4.5148326 2.5565231,4.5148326 2.5670524,4.4964795 2.5714883,4.4870469 2.5749313,4.4773074 2.5772462,4.4672195 2.5786816,4.4568597 2.5800864,4.4356872 2.5800864,4.4356872 2.5793012,4.4193689 2.5771563,4.403356 2.5726068,4.3878829 2.5665028,4.372759 2.5665028,4.372759 2.5595111,4.3613231 2.551647,4.3506449 2.5422837,4.3412687 2.5319893,4.3327011 2.5319893,4.3327011 2.521996,4.3264462 2.5116598,4.320956 2.5007325,4.3167842 2.4894364,4.3134345 2.4894364,4.3134345 2.4682644,4.3105933 2.4470284,4.3086026 2.4257035,4.3077918 2.4043309,4.307613 2.350828,4.307613 2.350828,4.154312 2.2687719,4.154312z M2.350828,4.4919622 L2.350828,4.37664 2.3957373,4.37664 2.3957373,4.37664 2.4121416,4.3766345 2.4284573,4.3773855 2.4446016,4.3796026 2.4606058,4.383016 2.4606058,4.383016 2.4680744,4.3866544 2.474973,4.3910209 2.4809058,4.3966213 2.4862487,4.4029756 2.4862487,4.4029756 2.4902558,4.4103741 2.4933269,4.4180515 2.4948769,4.4261821 2.4955351,4.4345783 2.4955351,4.4345783 2.4946598,4.4445935 2.4925182,4.4541477 2.4881931,4.4629072 2.482506,4.471171 2.482506,4.471171 2.4753217,4.4776123 2.4675527,4.4829883 2.4588207,4.4866096 2.4495175,4.4891901 2.4495175,4.4891901 2.4200546,4.4916558 2.3904701,4.4919622 2.350828,4.4919622z" transform="matrix(1,0,0,-1,7.3025,5.715)" fill="rgb(104,104,104)" fill-rule="nonzero" shaper:cutDepth="0.0000762" stroke-linecap="round" stroke-linejoin="round" /><path d="M3.1835878,4.154312 L3.1835878,4.560712 3.3562939,4.560712 3.3562939,4.560712 3.3802873,4.5604754 3.4041216,4.5590185 3.4159296,4.5574526 3.4276551,4.5552533 3.4509637,4.549762 3.4509637,4.549762 3.4650396,4.5427798 3.4716885,4.5388143 3.4778704,4.5342795 3.4834899,4.5290589 3.4886553,4.5232845 3.4982292,4.510813 3.4982292,4.510813 3.5058701,4.4957029 3.5091351,4.487992 3.5117336,4.4800942 3.5135368,4.4719733 3.5147024,4.4636735 3.5159709,4.4467759 3.5159709,4.4467759 3.5141608,4.4261035 3.5124394,4.4160643 3.5097385,4.4063814 3.5058023,4.3971478 3.5008135,4.3882972 3.4890811,4.3712342 3.4890811,4.3712342 3.4713905,4.356877 3.4621081,4.3506001 3.4523029,4.3454014 3.4419196,4.3413952 3.4310902,4.3383093 3.4086878,4.3336713 3.4086878,4.3336713 3.4205208,4.3262319 3.4319066,4.3182205 3.4425133,4.3092124 3.4526269,4.2995737 3.4526269,4.2995737 3.465337,4.283823 3.4773946,4.2676023 3.4993379,4.2335961 3.54896,4.154312 3.450825,4.154312 3.3915007,4.2427442 3.3915007,4.2427442 3.370805,4.273298 3.3482549,4.3024845 3.3482549,4.3024845 3.3427702,4.307723 3.3369263,4.3124302 3.3304541,4.316208 3.3235824,4.3193947 3.3235824,4.3193947 3.3133985,4.3216822 3.3031256,4.3232542 3.2822773,4.3239688 3.2656443,4.3239688 3.2656443,4.154312 3.1835878,4.154312z M3.2656443,4.3888375 L3.3263547,4.3888375 3.3263547,4.3888375 3.3449062,4.3887182 3.3634039,4.3892288 3.3817959,4.3909791 3.4000943,4.3938274 3.4000943,4.3938274 3.4068325,4.3968105 3.4130381,4.4005033 3.4183442,4.4053945 3.4231031,4.4110149 3.4231031,4.4110149 3.4268046,4.4181806 3.4295821,4.4256071 3.4309131,4.4334416 3.4314196,4.4415087 3.4314196,4.4415087 3.4307501,4.4504981 3.4289958,4.4591163 3.4253398,4.4670839 3.42047,4.4746362 3.42047,4.4746362 3.4137523,4.4805353 3.4064616,4.4853484 3.3982689,4.4884515 3.38956,4.4905762 3.38956,4.4905762 3.3596394,4.4918912 3.3296811,4.4919622 3.2656443,4.4919622 3.2656443,4.3888375z" transform="matrix(1,0,0,-1,7.3025,5.715)" fill="rgb(104,104,104)" fill-rule="nonzero" shaper:cutDepth="0.0000762" stroke-linecap="round" stroke-linejoin="round" /><path d="M0.8807468,4.560712 L1.0307212,4.560712 1.0307212,4.560712 1.0502442,4.5604667 1.0696744,4.5593809 1.0889317,4.5567282 1.1080647,4.55295 1.1080647,4.55295 1.1251104,4.5464238 1.1333388,4.5426789 1.1412139,4.5383558 1.1486563,4.5333249 1.1557444,4.5277141 1.1693296,4.5155257 1.1693296,4.5155257 1.1815103,4.5005366 1.1871696,4.4927862 1.1923118,4.484729 1.2008791,4.4675955 1.20814,4.4496867 1.20814,4.4496867 1.2142094,4.4260715 1.2167453,4.4141915 1.2186849,4.4022247 1.2207417,4.3780261 1.2214464,4.353631 1.2214464,4.353631 1.2207278,4.3316482 1.2187596,4.3098528 1.2145808,4.2883888 1.2089716,4.2671393 1.2089716,4.2671393 1.2009767,4.2474189 1.1965027,4.237851 1.1914568,4.2286341 1.1856849,4.2198626 1.1792873,4.211475 1.1654486,4.1953401 1.1654486,4.1953401 1.1523683,4.1848989 1.1385237,4.1757932 1.1234921,4.1687615 1.1077875,4.1629058 1.1077875,4.1629058 1.0898716,4.1588543 1.0718114,4.1559389 1.0535413,4.1546744 1.0351566,4.154312 0.8807468,4.154312 0.8807468,4.560712z M0.962803,4.4919622 L0.962803,4.2227846 1.024068,4.2227846 1.024068,4.2227846 1.0489999,4.2233618 1.0613728,4.2246989 1.0736898,4.2266656 1.0736898,4.2266656 1.0826954,4.2294919 1.0913168,4.2330622 1.0992744,4.2379174 1.1068172,4.2435759 1.1068172,4.2435759 1.1140112,4.2523452 1.1201116,4.2617368 1.1246357,4.2720253 1.1283015,4.2828021 1.1283015,4.2828021 1.1322536,4.3011842 1.1350803,4.3197021 1.1362891,4.3384154 1.136618,4.3572348 1.136618,4.3572348 1.1363366,4.3755494 1.1351605,4.3937514 1.1323225,4.4117443 1.1283015,4.4295884 1.1283015,4.4295884 1.1241303,4.4404244 1.119099,4.450742 1.1125479,4.4601434 1.1050153,4.4689532 1.1050153,4.4689532 1.0964507,4.4755595 1.0873652,4.4811441 1.0774435,4.4850887 1.0670365,4.4880812 1.0670365,4.4880812 1.0502721,4.4901648 1.0334572,4.4915149 0.9996729,4.4919622 0.962803,4.4919622z" transform="matrix(1,0,0,-1,7.3025,5.715)" fill="rgb(104,104,104)" fill-rule="nonzero" shaper:cutDepth="0.0000762" stroke-linecap="round" stroke-linejoin="round" /><path d="M-1.5521013,2.9271691 L-1.462283,2.9359015 -1.462283,2.9359015 -1.4579018,2.9173126 -1.4550954,2.9083356 -1.45155,2.8997396 -1.447042,2.8916399 -1.441649,2.8839963 -1.4293808,2.8694734 -1.4293808,2.8694734 -1.4140636,2.8599219 -1.406152,2.8559105 -1.3979373,2.8528144 -1.3893824,2.8507465 -1.3805633,2.8494765 -1.3624849,2.8482663 -1.3624849,2.8482663 -1.344508,2.8490921 -1.3357056,2.850121 -1.3271264,2.8518892 -1.31884,2.8546273 -1.3108305,2.8582824 -1.2952771,2.8671344 -1.2952771,2.8671344 -1.2861183,2.8764156 -1.2821183,2.8813456 -1.2788137,2.8866229 -1.276391,2.8923407 -1.2747275,2.8984376 -1.2726666,2.9112638 -1.2726666,2.9112638 -1.2733404,2.9187597 -1.2749278,2.9259362 -1.2780736,2.9325679 -1.2821786,2.9388642 -1.2821786,2.9388642 -1.2895446,2.9453266 -1.2974789,2.9508728 -1.3062183,2.955121 -1.3153927,2.9586679 -1.3153927,2.9586679 -1.3521832,2.9692511 -1.3893056,2.9786275 -1.3893056,2.9786275 -1.4171195,2.9860483 -1.4307538,2.9903561 -1.444061,2.9953809 -1.4569337,3.0013574 -1.4693645,3.0083021 -1.4934699,3.0238485 -1.4934699,3.0238485 -1.5110405,3.0436472 -1.518635,3.0540876 -1.5248006,3.0651775 -1.5292001,3.07707 -1.5321368,3.0896273 -1.5355722,3.1158499 -1.5355722,3.1158499 -1.5339654,3.1331922 -1.5325878,3.1416902 -1.530521,3.1499805 -1.5276207,3.1580195 -1.5240451,3.1658549 -1.5157685,3.1811865 -1.5157685,3.1811865 -1.5039465,3.1957516 -1.4976093,3.2025137 -1.4907608,3.2086513 -1.4833073,3.2140502 -1.4753716,3.2188603 -1.4586965,3.227499 -1.4586965,3.227499 -1.4367859,3.2346473 -1.425726,3.237652 -1.4145406,3.2399746 -1.4032141,3.2415287 -1.3917778,3.2424857 -1.3687223,3.2434044 -1.3687223,3.2434044 -1.3339047,3.2417176 -1.31688,3.2396456 -1.3003163,3.2360993 -1.2843568,3.2306203 -1.2689662,3.223322 -1.2539578,3.2148009 -1.2391407,3.2056682 -1.2391407,3.2056682 -1.2201567,3.1839654 -1.2119785,3.1725093 -1.2053765,3.1603277 -1.2006481,3.1472837 -1.1974173,3.1335503 -1.1934519,3.1049345 -1.2857651,3.1008802 -1.2857651,3.1008802 -1.2889805,3.1151977 -1.291089,3.1220935 -1.2937984,3.1286739 -1.2972926,3.1348423 -1.3015153,3.1406283 -1.3111824,3.1515589 -1.3111824,3.1515589 -1.3248185,3.1588603 -1.3318211,3.1618645 -1.3390428,3.1641015 -1.3464935,3.1655364 -1.3541182,3.1663618 -1.3696579,3.1669964 -1.3696579,3.1669964 -1.3863323,3.1661854 -1.3945216,3.1652487 -1.4025334,3.1636747 -1.4103136,3.1612696 -1.4178802,3.1580974 -1.4326554,3.1504674 -1.4326554,3.1504674 -1.4388095,3.1446541 -1.4436108,3.1381443 -1.4461455,3.1304677 -1.4473133,3.1220873 -1.4473133,3.1220873 -1.446124,3.1140588 -1.4436856,3.1066375 -1.4392278,3.1001977 -1.433591,3.094331 -1.433591,3.094331 -1.4135003,3.0838139 -1.4032127,3.0791792 -1.3926636,3.0752186 -1.3709404,3.0689076 -1.3487626,3.0637678 -1.3487626,3.0637678 -1.323199,3.0574605 -1.2979578,3.0502063 -1.2733201,3.0411795 -1.2491205,3.0308656 -1.2491205,3.0308656 -1.2343194,3.0215996 -1.2272852,3.0165697 -1.2206907,3.0110635 -1.2146405,3.0049677 -1.209042,2.9983827 -1.1985977,2.9843971 -1.1985977,2.9843971 -1.1904635,2.9671186 -1.1870335,2.958314 -1.1843672,2.9493114 -1.182571,2.9400831 -1.1814543,2.9306786 -1.1803534,2.9115757 -1.1803534,2.9115757 -1.1821177,2.8920853 -1.1836336,2.8825271 -1.18591,2.8731934 -1.1891073,2.8641315 -1.1930513,2.8552901 -1.2021842,2.8379746 -1.2021842,2.8379746 -1.2148525,2.8218911 -1.2216645,2.814425 -1.2290499,2.8076496 -1.2371239,2.8017037 -1.2457525,2.796426 -1.2639343,2.786984 -1.2639343,2.786984 -1.2882021,2.7793823 -1.3004458,2.7762046 -1.3128205,2.7737722 -1.3253401,2.772163 -1.3379715,2.7711889 -1.3634205,2.770299 -1.3634205,2.770299 -1.3992812,2.7722806 -1.4168005,2.7745577 -1.4338265,2.7783782 -1.4502095,2.7842106 -1.4660001,2.7918966 -1.4813936,2.8008248 -1.4965886,2.8103742 -1.4965886,2.8103742 -1.5077097,2.8229229 -1.5182719,2.8357456 -1.5277166,2.8491163 -1.5354877,2.8633077 -1.5413633,2.8784285 -1.5457627,2.8942733 -1.5521013,2.9271691z" transform="matrix(1,0,0,-1,7.3025,5.715)" fill="rgb(104,104,104)" fill-rule="nonzero" shaper:cutDepth="0.0000762" stroke-linecap="round" stroke-linejoin="round" /><path d="M-1.9905891,3.2356076 L-1.8982758,3.2356076 -1.8982758,2.9879836 -1.8982758,2.9879836 -1.8979432,2.9497037 -1.8967446,2.9306204 -1.8948453,2.9115757 -1.8948453,2.9115757 -1.8906596,2.8985071 -1.8880797,2.8922786 -1.8849154,2.8864171 -1.8810323,2.8810069 -1.8765574,2.8759683 -1.8666211,2.8665106 -1.8666211,2.8665106 -1.8524168,2.8587323 -1.8451253,2.8554867 -1.8376075,2.8530103 -1.8298413,2.8513781 -1.821884,2.8503957 -1.8056507,2.8495138 -1.8056507,2.8495138 -1.7898654,2.8502022 -1.7821263,2.8510723 -1.7745715,2.8525732 -1.7672586,2.8549029 -1.7601754,2.8580191 -1.7463956,2.865575 -1.7463956,2.865575 -1.7378455,2.8739015 -1.7306638,2.8830536 -1.7279689,2.8881702 -1.7258092,2.8936096 -1.7223817,2.9050265 -1.7223817,2.9050265 -1.7203085,2.9243771 -1.7189094,2.9437679 -1.7183274,2.9826819 -1.7183274,3.2356076 -1.6260142,3.2356076 -1.6260142,2.9954685 -1.6260142,2.9954685 -1.6261054,2.9662549 -1.6270532,2.9371047 -1.62964,2.9080759 -1.6334991,2.8791413 -1.6334991,2.8791413 -1.637948,2.8636044 -1.6437044,2.8487027 -1.6517056,2.8348918 -1.6610995,2.8217574 -1.6610995,2.8217574 -1.6729954,2.8102224 -1.6857666,2.7999371 -1.6999303,2.7916399 -1.7148969,2.7844891 -1.7148969,2.7844891 -1.7363847,2.7780454 -1.7472207,2.7753729 -1.7581667,2.7733553 -1.7803849,2.7712655 -1.8028439,2.7706109 -1.8028439,2.7706109 -1.8282232,2.771118 -1.8408279,2.7718805 -1.8533305,2.7732538 -1.8656983,2.7754353 -1.8779325,2.7784165 -1.9021742,2.7857366 -1.9021742,2.7857366 -1.9171371,2.7934184 -1.9312588,2.8022323 -1.9439195,2.8130127 -1.9556597,2.8250321 -1.9556597,2.8250321 -1.9641092,2.8367013 -1.9715058,2.848903 -1.9770897,2.8620215 -1.9815449,2.8757108 -1.9815449,2.8757108 -1.9859837,2.9045268 -1.98908,2.9334585 -1.9903281,2.9625497 -1.9905891,2.991726 -1.9905891,3.2356076z" transform="matrix(1,0,0,-1,7.3025,5.715)" fill="rgb(104,104,104)" fill-rule="nonzero" shaper:cutDepth="0.0000762" stroke-linecap="round" stroke-linejoin="round" /><path d="M-2.1481678,0.4358595 L-2.0683294,0.4436216 -2.0683294,0.4436216 -2.064435,0.4270981 -2.0619404,0.4191186 -2.0587889,0.4114776 -2.0547818,0.4042779 -2.0499881,0.3974836 -2.0390829,0.3845743 -2.0390829,0.3845743 -2.0254676,0.3760841 -2.018435,0.3725185 -2.0111331,0.3697664 -2.0035287,0.3679282 -1.9956895,0.3667993 -1.9796198,0.3657236 -1.9796198,0.3657236 -1.9636404,0.3664577 -1.955816,0.3673723 -1.9481901,0.368944 -1.9408244,0.3713779 -1.9337049,0.3746268 -1.9198797,0.3824952 -1.9198797,0.3824952 -1.9117385,0.3907452 -1.908183,0.3951274 -1.9052455,0.3998183 -1.9030921,0.4049008 -1.9016134,0.4103203 -1.8997815,0.4217214 -1.8997815,0.4217214 -1.9003805,0.4283844 -1.9017915,0.4347635 -1.9045877,0.4406583 -1.9082365,0.4462551 -1.9082365,0.4462551 -1.9147841,0.4519995 -1.9218367,0.4569294 -1.9296051,0.4607056 -1.9377601,0.4638584 -1.9377601,0.4638584 -1.9704628,0.4732657 -2.0034604,0.4816003 -2.0034604,0.4816003 -2.028184,0.4881965 -2.0403033,0.4920257 -2.0521319,0.4964921 -2.0635743,0.5018045 -2.0746239,0.5079777 -2.0960509,0.5217967 -2.0960509,0.5217967 -2.1116693,0.5393955 -2.11842,0.5486759 -2.1239005,0.5585336 -2.1278112,0.5691047 -2.1304216,0.5802667 -2.1334753,0.6035757 -2.1334753,0.6035757 -2.132047,0.6189911 -2.1308225,0.6265449 -2.1289853,0.633914 -2.1264073,0.6410598 -2.123229,0.6480246 -2.115872,0.6616527 -2.115872,0.6616527 -2.1053635,0.6745994 -2.0997305,0.6806102 -2.0936429,0.6860659 -2.0870175,0.6908649 -2.0799635,0.6951405 -2.0651412,0.7028194 -2.0651412,0.7028194 -2.0456652,0.7091735 -2.0358341,0.7118442 -2.0258916,0.7139088 -2.005658,0.7161409 -1.9851642,0.7169574 -1.9851642,0.7169574 -1.9542152,0.7154581 -1.9390822,0.7136163 -1.9243589,0.7104641 -1.9101727,0.7055938 -1.8964921,0.6991065 -1.8699806,0.6834142 -1.8699806,0.6834142 -1.853106,0.6641228 -1.8458364,0.6539396 -1.839968,0.6431115 -1.835765,0.6315168 -1.8328932,0.6193094 -1.8293684,0.5938731 -1.9114244,0.5902693 -1.9114244,0.5902693 -1.9142826,0.6029959 -1.9161568,0.6091256 -1.9185652,0.6149748 -1.9216712,0.6204579 -1.9254247,0.625601 -1.9340177,0.6353171 -1.9340177,0.6353171 -1.9461386,0.6418072 -1.9523631,0.6444776 -1.9587824,0.646466 -1.9721828,0.6484751 -1.9859958,0.6490393 -1.9859958,0.6490393 -2.0008175,0.6483183 -2.0152185,0.6460867 -2.0221343,0.6439487 -2.0288601,0.641129 -2.0419936,0.6343468 -2.0419936,0.6343468 -2.047464,0.6291794 -2.0517318,0.6233929 -2.0539849,0.6165693 -2.0550229,0.6091201 -2.0550229,0.6091201 -2.0539657,0.6019837 -2.0517982,0.5953869 -2.0478357,0.5896627 -2.0428253,0.5844478 -2.0428253,0.5844478 -2.0249668,0.5750992 -2.0158224,0.5709795 -2.0064454,0.567459 -1.9871359,0.5618492 -1.9674223,0.5572805 -1.9674223,0.5572805 -1.9446991,0.551674 -1.9222624,0.5452258 -1.9003622,0.5372019 -1.8788514,0.5280341 -1.8788514,0.5280341 -1.8656949,0.5197976 -1.8535806,0.5104322 -1.8432262,0.4991604 -1.8339424,0.4867288 -1.8339424,0.4867288 -1.826712,0.4713701 -1.8236631,0.4635438 -1.821293,0.4555415 -1.8196964,0.4473386 -1.8187038,0.4389789 -1.8177252,0.4219986 -1.8177252,0.4219986 -1.8192935,0.4046738 -1.820641,0.3961776 -1.8226645,0.387881 -1.8255065,0.379826 -1.8290123,0.371967 -1.8371303,0.3565754 -1.8371303,0.3565754 -1.848391,0.342279 -1.8544461,0.3356425 -1.8610109,0.3296199 -1.8681878,0.3243346 -1.8758577,0.3196433 -1.8920193,0.3112505 -1.8920193,0.3112505 -1.9135908,0.3044934 -1.924474,0.3016688 -1.9354738,0.2995066 -1.9578303,0.2972103 -1.9804516,0.2964194 -1.9804516,0.2964194 -2.0123278,0.2981808 -2.0279005,0.3002048 -2.0430347,0.3036009 -2.0575973,0.3087853 -2.0716334,0.3156172 -2.0988232,0.3320417 -2.0988232,0.3320417 -2.1180972,0.3545941 -2.1264925,0.3664792 -2.1334002,0.3790937 -2.1386229,0.3925345 -2.1425335,0.4066187 -2.1481678,0.4358595z" transform="matrix(1,0,0,-1,7.3025,5.715)" fill="rgb(104,104,104)" fill-rule="nonzero" shaper:cutDepth="0.0000762" stroke-linecap="round" stroke-linejoin="round" /><path d="M-2.5371031,0.710027 L-2.374654,0.710027 -2.374654,0.710027 -2.3386,0.7093825 -2.3206389,0.7080031 -2.3027162,0.7060074 -2.3027162,0.7060074 -2.2914833,0.7033982 -2.2805899,0.6999348 -2.2702709,0.6950259 -2.260302,0.6892357 -2.260302,0.6892357 -2.2511944,0.6819557 -2.2428133,0.6740052 -2.2356163,0.664962 -2.2291151,0.6552767 -2.2291151,0.6552767 -2.2237639,0.6439826 -2.2196467,0.6323615 -2.2175483,0.6202055 -2.2166404,0.607734 -2.2166404,0.607734 -2.2178347,0.593856 -2.2204739,0.5804027 -2.2255251,0.5676583 -2.2320259,0.55534 -2.2320259,0.55534 -2.2406427,0.5442871 -2.2502523,0.5343908 -2.2615082,0.5264123 -2.2737471,0.519579 -2.2737471,0.519579 -2.2574056,0.5135096 -2.249576,0.5099547 -2.242156,0.5057755 -2.2352554,0.5008043 -2.2288018,0.4951515 -2.2166404,0.4827092 -2.2166404,0.4827092 -2.2080701,0.4685721 -2.2044039,0.4612997 -2.2014804,0.4537828 -2.1994463,0.4459729 -2.1981272,0.4379275 -2.1966808,0.4214442 -2.1966808,0.4214442 -2.1977393,0.4074507 -2.19999,0.3937403 -2.2042004,0.3804951 -2.2095713,0.3675255 -2.2095713,0.3675255 -2.2165443,0.3555153 -2.2245019,0.3443373 -2.2341296,0.3345703 -2.2447779,0.3256658 -2.2447779,0.3256658 -2.2576648,0.3184133 -2.2710441,0.3125396 -2.2852016,0.3088444 -2.2998055,0.3063992 -2.2998055,0.3063992 -2.3492598,0.3041453 -2.3987719,0.303627 -2.5371031,0.303627 -2.5371031,0.710027z M-2.4550469,0.4807686 L-2.4550469,0.3720996 -2.3790895,0.3720996 -2.3790895,0.3720996 -2.3508948,0.3723127 -2.3228144,0.3745945 -2.3228144,0.3745945 -2.3144062,0.3769027 -2.3065132,0.3801498 -2.2994954,0.3849922 -2.2930137,0.3908117 -2.2930137,0.3908117 -2.2878712,0.3986552 -2.284024,0.4069473 -2.2821938,0.4159379 -2.2815091,0.4253252 -2.2815091,0.4253252 -2.2820857,0.4335684 -2.2835304,0.441557 -2.2864815,0.4491041 -2.2903801,0.4563735 -2.2903801,0.4563735 -2.2957378,0.4624529 -2.3016855,0.4677277 -2.3085795,0.4717118 -2.3160227,0.4749471 -2.3160227,0.4749471 -2.3340448,0.4781485 -2.352181,0.4801807 -2.370452,0.4808291 -2.3887921,0.4807686 -2.4550469,0.4807686z M-2.4550469,0.6423861 L-2.4550469,0.5484095 -2.4012668,0.5484095 -2.4012668,0.5484095 -2.3714486,0.5485103 -2.3416652,0.5497956 -2.3416652,0.5497956 -2.3325191,0.5515198 -2.3238255,0.5542464 -2.3159271,0.5587341 -2.3085378,0.5643495 -2.3085378,0.5643495 -2.3032561,0.571402 -2.2992486,0.5789508 -2.2972757,0.5872918 -2.2964788,0.5960909 -2.2964788,0.5960909 -2.2971345,0.6044289 -2.2988138,0.6124088 -2.3022785,0.619764 -2.3068745,0.6267233 -2.3068745,0.6267233 -2.3136365,0.6323077 -2.3209561,0.6367281 -2.32913,0.6393653 -2.3377841,0.641 -2.3377841,0.641 -2.3728363,0.6423076 -2.4079201,0.6423861 -2.4550469,0.6423861z" transform="matrix(1,0,0,-1,7.3025,5.715)" fill="rgb(104,104,104)" fill-rule="nonzero" shaper:cutDepth="0.0000762" stroke-linecap="round" stroke-linejoin="round" /><path d="M-1.8290912,-0.158037 L-1.8290912,0.248363 -1.5277564,0.248363 -1.5277564,0.1796132 -1.7470351,0.1796132 -1.7470351,0.0895177 -1.5430034,0.0895177 -1.5430034,0.0210451 -1.7470351,0.0210451 -1.7470351,-0.0895645 -1.5199944,-0.0895645 -1.5199944,-0.158037 -1.8290912,-0.158037z" transform="matrix(1,0,0,-1,7.3025,5.715)" fill="rgb(104,104,104)" fill-rule="nonzero" shaper:cutDepth="0.0000762" stroke-linecap="round" stroke-linejoin="round" /><path d="M-1.4501356,-0.158037 L-1.4501356,0.248363 -1.2774295,0.248363 -1.2774295,0.248363 -1.2534362,0.2481263 -1.2296018,0.2466694 -1.2177938,0.2451035 -1.2060683,0.2429043 -1.1827598,0.2374129 -1.1827598,0.2374129 -1.1686839,0.2304308 -1.162035,0.2264653 -1.1558531,0.2219304 -1.1502336,0.2167098 -1.1450682,0.2109355 -1.1354943,0.1984639 -1.1354943,0.1984639 -1.1278535,0.1833538 -1.1245886,0.1756429 -1.1219901,0.1677451 -1.1201869,0.1596242 -1.1190213,0.1513244 -1.1177526,0.1344268 -1.1177526,0.1344268 -1.1195627,0.1137545 -1.1212841,0.1037152 -1.123985,0.0940323 -1.1279212,0.0847988 -1.13291,0.0759481 -1.1446424,0.0588852 -1.1446424,0.0588852 -1.162333,0.044528 -1.1716154,0.038251 -1.1814206,0.0330523 -1.1918039,0.0290462 -1.2026333,0.0259603 -1.2250357,0.0213223 -1.2250357,0.0213223 -1.2132027,0.0138829 -1.2018169,0.0058715 -1.1912103,-0.0031366 -1.1810966,-0.0127754 -1.1810966,-0.0127754 -1.1683865,-0.0285261 -1.1563289,-0.0447468 -1.1343856,-0.078753 -1.0847636,-0.158037 -1.1828986,-0.158037 -1.2422228,-0.0696048 -1.2422228,-0.0696048 -1.2629186,-0.0390511 -1.2854687,-0.0098646 -1.2854687,-0.0098646 -1.2909534,-0.004626 -1.2967973,0.0000812 -1.3032694,0.003859 -1.3101411,0.0070457 -1.3101411,0.0070457 -1.3203251,0.0093332 -1.3305981,0.0109051 -1.3514464,0.0116197 -1.3680795,0.0116197 -1.3680795,-0.158037 -1.4501356,-0.158037z M-1.3680795,0.0764885 L-1.3073689,0.0764885 -1.3073689,0.0764885 -1.2888174,0.0763691 -1.2703197,0.0768797 -1.2519276,0.07863 -1.2336293,0.0814784 -1.2336293,0.0814784 -1.226891,0.0844615 -1.2206853,0.0881543 -1.2153791,0.0930456 -1.21062,0.0986658 -1.21062,0.0986658 -1.2069187,0.1058316 -1.2041414,0.1132581 -1.2028104,0.1210926 -1.2023039,0.1291597 -1.2023039,0.1291597 -1.2029736,0.138149 -1.2047279,0.1467672 -1.2083839,0.1547348 -1.2132535,0.1622871 -1.2132535,0.1622871 -1.2199712,0.1681862 -1.2272619,0.1729993 -1.2354546,0.1761025 -1.2441635,0.1782271 -1.2441635,0.1782271 -1.274084,0.1795422 -1.3040423,0.1796132 -1.3680795,0.1796132 -1.3680795,0.0764885z" transform="matrix(1,0,0,-1,7.3025,5.715)" fill="rgb(104,104,104)" fill-rule="nonzero" shaper:cutDepth="0.0000762" stroke-linecap="round" stroke-linejoin="round" /><path d="M-3.1852364,-0.158037 L-3.1852364,0.248363 -3.0535583,0.248363 -3.0535583,0.248363 -3.0290424,0.248426 -3.004583,0.2477464 -2.9802339,0.2456175 -2.9559779,0.2422642 -2.9559779,0.2422642 -2.9390182,0.235778 -2.9309421,0.2319372 -2.9233505,0.2273792 -2.9163394,0.2219618 -2.9097952,0.2158531 -2.8974852,0.2024836 -2.8974852,0.2024836 -2.8869558,0.1841305 -2.8825199,0.1746979 -2.8790769,0.1649584 -2.8767619,0.1548704 -2.8753265,0.1445107 -2.8739217,0.1233381 -2.8739217,0.1233381 -2.8747069,0.1070198 -2.8768518,0.0910069 -2.8814013,0.0755339 -2.8875054,0.0604099 -2.8875054,0.0604099 -2.8944971,0.0489741 -2.9023611,0.0382958 -2.9117244,0.0289196 -2.9220189,0.020352 -2.9220189,0.020352 -2.9320121,0.0140972 -2.9423483,0.0086071 -2.9532757,0.0044352 -2.9645717,0.0010855 -2.9645717,0.0010855 -2.9857437,-0.0017558 -3.0069797,-0.0037465 -3.0283047,-0.0045573 -3.0496773,-0.0047361 -3.1031801,-0.0047361 -3.1031801,-0.158037 -3.1852364,-0.158037z M-3.1031801,0.1796132 L-3.1031801,0.0642909 -3.058271,0.0642909 -3.058271,0.0642909 -3.0418667,0.0642854 -3.0255509,0.0650364 -3.0094066,0.0672535 -2.9934022,0.0706669 -2.9934022,0.0706669 -2.9859338,0.0743054 -2.9790353,0.0786719 -2.9731025,0.0842724 -2.9677597,0.0906265 -2.9677597,0.0906265 -2.9637523,0.098025 -2.9606811,0.1057024 -2.9591311,0.113833 -2.9584729,0.1222293 -2.9584729,0.1222293 -2.9593483,0.1322444 -2.9614898,0.1417987 -2.9658149,0.1505582 -2.9715021,0.1588219 -2.9715021,0.1588219 -2.9786865,0.1652633 -2.9864556,0.1706393 -2.9951876,0.1742606 -3.0044909,0.176841 -3.0044909,0.176841 -3.0339537,0.1793068 -3.0635381,0.1796132 -3.1031801,0.1796132z" transform="matrix(1,0,0,-1,7.3025,5.715)" fill="rgb(104,104,104)" fill-rule="nonzero" shaper:cutDepth="0.0000762" stroke-linecap="round" stroke-linejoin="round" /><path d="M2.0487148,0.3660259 L2.0487148,0.7690993 2.1307709,0.7690993 2.1307709,0.4344985 2.3348026,0.4344985 2.3348026,0.3660259 2.0487148,0.3660259z" transform="matrix(1,0,0,-1,7.3025,5.715)" fill="rgb(104,104,104)" fill-rule="nonzero" shaper:cutDepth="0.0000762" stroke-linecap="round" stroke-linejoin="round" /><path d="M2.4426398,0.3660259 L2.4426398,0.7036761 2.3220505,0.7036761 2.3220505,0.7724259 2.6450083,0.7724259 2.6450083,0.7036761 2.5246961,0.7036761 2.5246961,0.3660259 2.4426398,0.3660259z" transform="matrix(1,0,0,-1,7.3025,5.715)" fill="rgb(104,104,104)" fill-rule="nonzero" shaper:cutDepth="0.0000762" stroke-linecap="round" stroke-linejoin="round" /><path d="M1.0252298,0.3660259 L0.935966,0.3660259 0.9004821,0.4583391 0.7380331,0.4583391 0.7044898,0.3660259 0.6174437,0.3660259 0.7757346,0.7724259 0.8625035,0.7724259 1.0252298,0.3660259z M0.8741465,0.5268117 L0.8181487,0.6776177 0.7632598,0.5268117 0.8741465,0.5268117z" transform="matrix(1,0,0,-1,7.3025,5.715)" fill="rgb(104,104,104)" fill-rule="nonzero" shaper:cutDepth="0.0000762" stroke-linecap="round" stroke-linejoin="round" /><path d="M2.3847888,0.248363 L2.5472379,0.248363 2.5472379,0.248363 2.5832919,0.2477185 2.601253,0.2463391 2.6191757,0.2443433 2.6191757,0.2443433 2.6304086,0.2417342 2.641302,0.2382707 2.651621,0.2333618 2.6615899,0.2275717 2.6615899,0.2275717 2.6706975,0.2202916 2.6790786,0.2123411 2.6862757,0.203298 2.6927768,0.1936126 2.6927768,0.1936126 2.698128,0.1823186 2.7022452,0.1706975 2.7043436,0.1585415 2.7052515,0.14607 2.7052515,0.14607 2.7040572,0.132192 2.7014181,0.1187386 2.6963669,0.1059943 2.689866,0.0936759 2.689866,0.0936759 2.6812492,0.0826231 2.6716396,0.0727268 2.6603837,0.0647483 2.6481449,0.057915 2.6481449,0.057915 2.6644864,0.0518456 2.6723159,0.0482907 2.6797359,0.0441114 2.6866365,0.0391403 2.6930901,0.0334875 2.7052515,0.0210451 2.7052515,0.0210451 2.7138218,0.0069081 2.717488,-0.0003643 2.7204116,-0.0078813 2.7224457,-0.0156912 2.7237647,-0.0237366 2.7252112,-0.0402198 2.7252112,-0.0402198 2.7241527,-0.0542133 2.721902,-0.0679237 2.7176915,-0.0811689 2.7123206,-0.0941385 2.7123206,-0.0941385 2.7053477,-0.1061487 2.69739,-0.1173268 2.6877624,-0.1270938 2.677114,-0.1359983 2.677114,-0.1359983 2.6642272,-0.1432507 2.6508478,-0.1491244 2.6366904,-0.1528196 2.6220865,-0.1552649 2.6220865,-0.1552649 2.5726322,-0.1575187 2.52312,-0.158037 2.3847888,-0.158037 2.3847888,0.248363z M2.466845,0.1807221 L2.466845,0.0867455 2.5206251,0.0867455 2.5206251,0.0867455 2.5504434,0.0868463 2.5802267,0.0881316 2.5802267,0.0881316 2.5893729,0.0898558 2.5980664,0.0925823 2.6059649,0.0970701 2.6133541,0.1026855 2.6133541,0.1026855 2.6186359,0.109738 2.6226433,0.1172868 2.6246162,0.1256278 2.6254131,0.1344268 2.6254131,0.1344268 2.6247574,0.1427649 2.6230782,0.1507448 2.6196134,0.1580999 2.6150174,0.1650593 2.6150174,0.1650593 2.6082554,0.1706437 2.6009358,0.1750641 2.5927619,0.1777012 2.5841078,0.179336 2.5841078,0.179336 2.5490556,0.1806435 2.5139719,0.1807221 2.466845,0.1807221z M2.466845,0.0191046 L2.466845,-0.0895645 2.5428024,-0.0895645 2.5428024,-0.0895645 2.5709971,-0.0893513 2.5990775,-0.0870695 2.5990775,-0.0870695 2.6074857,-0.0847613 2.6153787,-0.0815142 2.6223966,-0.0766719 2.6288783,-0.0708523 2.6288783,-0.0708523 2.6340208,-0.0630088 2.6378679,-0.0547167 2.6396982,-0.0457261 2.6403828,-0.0363388 2.6403828,-0.0363388 2.6398063,-0.0280957 2.6383615,-0.020107 2.6354104,-0.0125599 2.6315118,-0.0052905 2.6315118,-0.0052905 2.6261541,0.0007889 2.6202065,0.0060637 2.6133124,0.0100478 2.6058693,0.0132831 2.6058693,0.0132831 2.5878471,0.0164845 2.569711,0.0185167 2.55144,0.0191651 2.5330999,0.0191046 2.466845,0.0191046z" transform="matrix(1,0,0,-1,7.3025,5.715)" fill="rgb(104,104,104)" fill-rule="nonzero" shaper:cutDepth="0.0000762" stroke-linecap="round" stroke-linejoin="round" /><path d="M1.817434,-2.565683 L1.7281705,-2.565683 1.6926867,-2.4733697 1.5302373,-2.4733697 1.4966942,-2.565683 1.4096481,-2.565683 1.5679389,-2.1592829 1.654708,-2.1592829 1.817434,-2.565683z M1.666351,-2.4048972 L1.6103531,-2.2540911 1.5554644,-2.4048972 1.666351,-2.4048972z" transform="matrix(1,0,0,-1,7.3025,5.715)" fill="rgb(104,104,104)" fill-rule="nonzero" shaper:cutDepth="0.0000762" stroke-linecap="round" stroke-linejoin="round" /><path d="M0.7371198,-2.565683 L0.7371198,-2.3946401 0.5882543,-2.1592829 0.6844486,-2.1592829 0.7800886,-2.3200688 0.8737878,-2.1592829 0.9683188,-2.1592829 0.8188988,-2.3951945 0.8188988,-2.565683 0.7371198,-2.565683z" transform="matrix(1,0,0,-1,7.3025,5.715)" fill="rgb(104,104,104)" fill-rule="nonzero" shaper:cutDepth="0.0000762" stroke-linecap="round" stroke-linejoin="round" /><path d="M-0.2167836,-2.3649779 L-0.2167836,-2.3649779 -0.2157643,-2.3382441 -0.2146683,-2.3249864 -0.2128687,-2.3118599 -0.2101592,-2.298903 -0.2066319,-2.2860985 -0.1982101,-2.2607443 -0.1982101,-2.2607443 -0.1904513,-2.2456595 -0.1817625,-2.2312059 -0.1715284,-2.2178011 -0.16037,-2.2050237 -0.16037,-2.2050237 -0.1485078,-2.19404 -0.1359657,-2.1840382 -0.1222605,-2.1757161 -0.1078373,-2.1684311 -0.1078373,-2.1684311 -0.0865162,-2.1613398 -0.0757533,-2.158337 -0.0648678,-2.155985 -0.0538403,-2.1543859 -0.0427011,-2.1533791 -0.0202368,-2.1523525 -0.0202368,-2.1523525 -0.0000923,-2.1538431 0.0197818,-2.1560137 0.0391148,-2.1595445 0.048494,-2.1620326 0.0576364,-2.1651157 0.0665118,-2.1688701 0.0751306,-2.1732699 0.0917436,-2.1836395 0.1077688,-2.1954869 0.1235002,-2.2080731 0.1235002,-2.2080731 0.1360178,-2.2253442 0.1477604,-2.2428969 0.157953,-2.2610128 0.1622259,-2.27037 0.1658256,-2.2799717 0.1687526,-2.289818 0.1710884,-2.299879 0.1743245,-2.3205227 0.1762095,-2.3416573 0.1774188,-2.3630374 0.1774188,-2.3630374 0.1762103,-2.3842733 0.1743321,-2.4052664 0.1711144,-2.4257739 0.168794,-2.4357696 0.1658876,-2.4455529 0.1623144,-2.4550944 0.1580749,-2.4643943 0.1479666,-2.4824033 0.1363247,-2.4998564 0.123916,-2.5170314 0.123916,-2.5170314 0.1082747,-2.5295935 0.092339,-2.5414174 0.0758143,-2.5517647 0.0672392,-2.5561539 0.0584068,-2.5598983 0.0493071,-2.5629725 0.0399706,-2.5654528 0.0207223,-2.568971 0.0009325,-2.5711316 -0.019128,-2.5726134 -0.019128,-2.5726134 -0.0393088,-2.5711751 -0.0592218,-2.5690587 -0.0785994,-2.5655861 -0.0880037,-2.5631293 -0.0971737,-2.5600792 -0.1060789,-2.5563583 -0.1147278,-2.5519883 -0.1314015,-2.5416679 -0.147488,-2.5298601 -0.1632808,-2.5173086 -0.1632808,-2.5173086 -0.17565,-2.5003453 -0.1872595,-2.4831042 -0.1973497,-2.4653073 -0.2015876,-2.4561136 -0.2051649,-2.4466783 -0.2080778,-2.437 -0.2104065,-2.427108 -0.2136451,-2.406805 -0.2155482,-2.3860136 -0.2167836,-2.3649779z M-0.1322325,-2.3622057 L-0.1322325,-2.3622057 -0.1307193,-2.3904671 -0.1289334,-2.4042632 -0.1259122,-2.4176577 -0.1212769,-2.4305274 -0.1151412,-2.4429094 -0.1003526,-2.4668551 -0.1003526,-2.4668551 -0.0828683,-2.4819874 -0.0736544,-2.4884864 -0.0638744,-2.4937048 -0.0534078,-2.4973699 -0.0423835,-2.4997734 -0.0194052,-2.5024775 -0.0194052,-2.5024775 0.0034589,-2.4998252 0.0144289,-2.4974527 0.0248444,-2.4938249 0.0345754,-2.4886471 0.0437402,-2.4821876 0.0611264,-2.4671323 0.0611264,-2.4671323 0.0758494,-2.4428088 0.0819354,-2.4302406 0.0865035,-2.4171886 0.0894597,-2.4036228 0.0911864,-2.3896652 0.0925905,-2.3610969 0.0925905,-2.3610969 0.091264,-2.3330338 0.0895993,-2.3193194 0.0867327,-2.3059854 0.0822885,-2.293151 0.0763497,-2.2807898 0.061958,-2.2568633 0.061958,-2.2568633 0.0443193,-2.2419828 0.0350297,-2.2356365 0.0251761,-2.2306027 0.0146535,-2.2271251 0.0035972,-2.2248895 -0.0194052,-2.2224884 -0.0194052,-2.2224884 -0.0425399,-2.2249564 -0.0536566,-2.2272342 -0.0642323,-2.2307646 -0.0741324,-2.2358599 -0.083465,-2.2422694 -0.1011842,-2.2572791 -0.1011842,-2.2572791 -0.1157388,-2.281349 -0.1217505,-2.2937867 -0.1262569,-2.3067036 -0.1291688,-2.3201278 -0.1308653,-2.3339389 -0.1322325,-2.3622057z" transform="matrix(1,0,0,-1,7.3025,5.715)" fill="rgb(104,104,104)" fill-rule="nonzero" shaper:cutDepth="0.0000762" stroke-linecap="round" stroke-linejoin="round" /><path d="M-0.5996202,-2.4334505 L-0.5197817,-2.4256884 -0.5197817,-2.4256884 -0.5158874,-2.4422119 -0.5133928,-2.4501914 -0.5102414,-2.4578323 -0.5062343,-2.4650321 -0.5014405,-2.4718264 -0.4905354,-2.4847356 -0.4905354,-2.4847356 -0.4769201,-2.4932259 -0.4698875,-2.4967915 -0.4625856,-2.4995436 -0.4549812,-2.5013817 -0.447142,-2.5025107 -0.4310723,-2.5035864 -0.4310723,-2.5035864 -0.4150929,-2.5028523 -0.4072685,-2.5019377 -0.3996425,-2.500366 -0.3922769,-2.4979321 -0.3851573,-2.4946832 -0.371332,-2.4868147 -0.371332,-2.4868147 -0.3631908,-2.4785648 -0.3596353,-2.4741826 -0.3566978,-2.4694917 -0.3545443,-2.4644092 -0.3530657,-2.4589897 -0.3512338,-2.4475885 -0.3512338,-2.4475885 -0.3518328,-2.4409256 -0.3532438,-2.4345465 -0.3560401,-2.4286516 -0.3596889,-2.4230548 -0.3596889,-2.4230548 -0.3662364,-2.4173106 -0.3732891,-2.4123806 -0.3810575,-2.4086044 -0.3892125,-2.4054516 -0.3892125,-2.4054516 -0.4219152,-2.3960443 -0.454913,-2.3877097 -0.454913,-2.3877097 -0.4796365,-2.3811134 -0.4917558,-2.3772843 -0.5035844,-2.3728178 -0.5150268,-2.3675054 -0.5260764,-2.3613323 -0.5475033,-2.3475132 -0.5475033,-2.3475132 -0.5631217,-2.3299145 -0.5698724,-2.3206341 -0.5753529,-2.3107764 -0.5792636,-2.3002053 -0.581874,-2.2890432 -0.5849277,-2.2657342 -0.5849277,-2.2657342 -0.5834995,-2.2503189 -0.5822749,-2.2427651 -0.5804378,-2.235396 -0.5778598,-2.2282502 -0.5746815,-2.2212853 -0.5673245,-2.2076573 -0.5673245,-2.2076573 -0.556816,-2.1947106 -0.551183,-2.1886998 -0.5450954,-2.1832441 -0.53847,-2.1784451 -0.5314161,-2.1741695 -0.5165938,-2.1664906 -0.5165938,-2.1664906 -0.4971177,-2.1601365 -0.4872867,-2.1574658 -0.4773442,-2.1554012 -0.4571106,-2.1531691 -0.4366168,-2.1523525 -0.4366168,-2.1523525 -0.4056678,-2.1538519 -0.3905347,-2.1556936 -0.3758114,-2.1588459 -0.3616252,-2.1637162 -0.3479445,-2.1702035 -0.3214329,-2.1858957 -0.3214329,-2.1858957 -0.3045584,-2.2051871 -0.2972889,-2.2153703 -0.2914205,-2.2261985 -0.2872174,-2.2377932 -0.2843456,-2.2500006 -0.2808207,-2.2754368 -0.362877,-2.2790406 -0.362877,-2.2790406 -0.3657352,-2.266314 -0.3676094,-2.2601844 -0.3700177,-2.2543351 -0.3731238,-2.2488521 -0.3768773,-2.243709 -0.3854703,-2.2339929 -0.3854703,-2.2339929 -0.3975912,-2.2275028 -0.4038157,-2.2248323 -0.410235,-2.2228439 -0.4236354,-2.2208348 -0.4374484,-2.2202707 -0.4374484,-2.2202707 -0.4522701,-2.2209916 -0.466671,-2.2232233 -0.4735868,-2.2253613 -0.4803127,-2.228181 -0.4934462,-2.2349632 -0.4934462,-2.2349632 -0.4989165,-2.2401306 -0.5031843,-2.2459171 -0.5054374,-2.2527407 -0.5064753,-2.2601899 -0.5064753,-2.2601899 -0.5054182,-2.2673263 -0.5032508,-2.273923 -0.4992883,-2.2796473 -0.4942778,-2.2848622 -0.4942778,-2.2848622 -0.4764194,-2.2942107 -0.4672749,-2.2983304 -0.457898,-2.301851 -0.4385884,-2.3074607 -0.4188748,-2.3120295 -0.4188748,-2.3120295 -0.3961516,-2.317636 -0.373715,-2.3240842 -0.3518148,-2.332108 -0.330304,-2.3412759 -0.330304,-2.3412759 -0.3171475,-2.3495123 -0.3050331,-2.3588778 -0.2946786,-2.3701496 -0.2853948,-2.3825812 -0.2853948,-2.3825812 -0.2781643,-2.3979399 -0.2751155,-2.4057661 -0.2727454,-2.4137685 -0.2711488,-2.4219714 -0.2701562,-2.430331 -0.2691775,-2.4473113 -0.2691775,-2.4473113 -0.2707458,-2.4646362 -0.2720933,-2.4731323 -0.2741168,-2.481429 -0.2769588,-2.489484 -0.2804647,-2.497343 -0.2885829,-2.5127345 -0.2885829,-2.5127345 -0.2998436,-2.5270309 -0.3058987,-2.5336675 -0.3124635,-2.5396901 -0.3196404,-2.5449753 -0.3273103,-2.5496667 -0.3434719,-2.5580595 -0.3434719,-2.5580595 -0.3650433,-2.5648166 -0.3759265,-2.5676412 -0.3869262,-2.5698034 -0.4092826,-2.5720996 -0.4319039,-2.5728906 -0.4319039,-2.5728906 -0.4637802,-2.5711292 -0.4793529,-2.5691051 -0.4944871,-2.5657091 -0.5090498,-2.5605247 -0.5230858,-2.5536928 -0.5502757,-2.5372682 -0.5502757,-2.5372682 -0.5695497,-2.5147159 -0.577945,-2.5028308 -0.5848526,-2.4902162 -0.5900754,-2.4767754 -0.593986,-2.4626912 -0.5996202,-2.4334505z" transform="matrix(1,0,0,-1,7.3025,5.715)" fill="rgb(104,104,104)" fill-rule="nonzero" shaper:cutDepth="0.0000762" stroke-linecap="round" stroke-linejoin="round" /><path d="M-1.3361856,-2.565683 L-1.3361856,-2.1592829 -1.0348507,-2.1592829 -1.0348507,-2.2280327 -1.2541294,-2.2280327 -1.2541294,-2.3181282 -1.0500977,-2.3181282 -1.0500977,-2.3866008 -1.2541294,-2.3866008 -1.2541294,-2.4972104 -1.0270887,-2.4972104 -1.0270887,-2.565683 -1.3361856,-2.565683z" transform="matrix(1,0,0,-1,7.3025,5.715)" fill="rgb(104,104,104)" fill-rule="nonzero" shaper:cutDepth="0.0000762" stroke-linecap="round" stroke-linejoin="round" /><path d="M-1.8961637,-2.416263 L-1.8166025,-2.4414898 -1.8166025,-2.4414898 -1.8262861,-2.4696891 -1.8320268,-2.483221 -1.8388462,-2.4960715 -1.8470549,-2.5080443 -1.8564992,-2.5192367 -1.8774515,-2.5403176 -1.8774515,-2.5403176 -1.9025089,-2.5546576 -1.9153818,-2.5607141 -1.9286672,-2.5654358 -1.9424254,-2.5686276 -1.9565538,-2.5706216 -1.9854275,-2.5726134 -1.9854275,-2.5726134 -2.004258,-2.5709304 -2.0228113,-2.5685877 -2.0408103,-2.5649256 -2.0495152,-2.5623936 -2.0579777,-2.5592843 -2.0661703,-2.555533 -2.0741116,-2.5511835 -2.0893838,-2.5410314 -2.1040813,-2.5295119 -2.1184916,-2.5173086 -2.1184916,-2.5173086 -2.1305409,-2.500392 -2.1418501,-2.4832098 -2.151679,-2.4654965 -2.1558072,-2.4563576 -2.1592918,-2.4469878 -2.1621292,-2.4373858 -2.1643975,-2.4275795 -2.1675519,-2.407471 -2.1694054,-2.3868956 -2.1706084,-2.3660868 -2.1706084,-2.3660868 -2.1695035,-2.3444865 -2.1677368,-2.3231173 -2.1646467,-2.30221 -2.1623985,-2.2920018 -2.1595714,-2.2819957 -2.1560842,-2.2722201 -2.1519286,-2.2626778 -2.141977,-2.2441657 -2.1304817,-2.2261926 -2.1182145,-2.2084889 -2.1182145,-2.2084889 -2.1032837,-2.1959515 -2.0880542,-2.1841337 -2.0722273,-2.1737553 -2.0639964,-2.1693308 -2.0555044,-2.1655356 -2.0467363,-2.1624053 -2.0377222,-2.159868 -2.0190961,-2.1562334 -1.9999075,-2.1539541 -1.9804376,-2.1523525 -1.9804376,-2.1523525 -1.9471166,-2.1552413 -1.9309585,-2.1580314 -1.9154031,-2.1624363 -1.9006112,-2.1688864 -1.8864745,-2.1770919 -1.8727749,-2.1864683 -1.8592938,-2.19643 -1.8592938,-2.19643 -1.8453496,-2.2131228 -1.8390188,-2.2218342 -1.8334555,-2.2309823 -1.8287474,-2.240617 -1.8247011,-2.2506283 -1.8177113,-2.2712786 -1.8989359,-2.2906838 -1.8989359,-2.2906838 -1.9034986,-2.2764073 -1.9062742,-2.2695702 -1.9096428,-2.2630945 -1.9137545,-2.2570716 -1.9184928,-2.2514305 -1.9290138,-2.2407847 -1.9290138,-2.2407847 -1.9417824,-2.2328467 -1.9483631,-2.2294641 -1.9551795,-2.2267851 -1.9622746,-2.2249379 -1.9695917,-2.2237533 -1.9845959,-2.2224884 -1.9845959,-2.2224884 -2.0054782,-2.2248808 -2.0154891,-2.2270412 -2.0249835,-2.2303585 -2.0338379,-2.2351097 -2.0421607,-2.2410522 -2.0579198,-2.2549228 -2.0579198,-2.2549228 -2.0715063,-2.2792589 -2.0770453,-2.2917965 -2.0811053,-2.3047697 -2.083666,-2.3181846 -2.0850929,-2.3319335 -2.0860573,-2.359988 -2.0860573,-2.359988 -2.0852446,-2.3891515 -2.0838939,-2.4034679 -2.0814101,-2.4174659 -2.0774234,-2.4310416 -2.0719222,-2.4441917 -2.0583356,-2.4697659 -2.0583356,-2.4697659 -2.0429408,-2.4836916 -2.0347928,-2.4896676 -2.0261043,-2.4944596 -2.0167616,-2.4978188 -2.0068887,-2.5000169 -1.9862592,-2.5024775 -1.9862592,-2.5024775 -1.9708362,-2.5009217 -1.9633537,-2.4995279 -1.9561461,-2.4973951 -1.9492778,-2.4943494 -1.9426905,-2.4905481 -1.9299842,-2.4816862 -1.9299842,-2.4816862 -1.9179547,-2.4672494 -1.9125995,-2.4596769 -1.9080307,-2.4516822 -1.9043083,-2.4432332 -1.9012336,-2.4344363 -1.8961637,-2.416263z" transform="matrix(1,0,0,-1,7.3025,5.715)" fill="rgb(104,104,104)" fill-rule="nonzero" shaper:cutDepth="0.0000762" stroke-linecap="round" stroke-linejoin="round" /><path d="M6.42112,-4.445 a0.24638,0.24638 0 1,1 0.49276,0 a0.24638,0.24638 0 1,1 -0.49276,0z" transform="matrix(1,0,0,-1,7.3025,5.715)" fill="rgb(255,255,255)" stroke="rgb(0,0,0)" stroke-width="0.0010cm" stroke-linecap="round" stroke-linejoin="round" shaper:cutDepth="0.0015875" /><path d="M-6.91388,4.445 a0.24638,0.24638 0 1,1 0.49276,0 a0.24638,0.24638 0 1,1 -0.49276,0z" transform="matrix(1,0,0,-1,7.3025,5.715)" fill="rgb(255,255,255)" stroke="rgb(0,0,0)" stroke-width="0.0010cm" stroke-linecap="round" stroke-linejoin="round" shaper:cutDepth="0.0015875" /><path d="M6.42112,4.445 a0.24638,0.24638 0 1,1 0.49276,0 a0.24638,0.24638 0 1,1 -0.49276,0z" transform="matrix(1,0,0,-1,7.3025,5.715)" fill="rgb(255,255,255)" stroke="rgb(0,0,0)" stroke-width="0.0010cm" stroke-linecap="round" stroke-linejoin="round" shaper:cutDepth="0.0015875" /><path d="M-6.91388,-4.445 a0.24638,0.24638 0 1,1 0.49276,0 a0.24638,0.24638 0 1,1 -0.49276,0z" transform="matrix(1,0,0,-1,7.3025,5.715)" fill="rgb(255,255,255)" stroke="rgb(0,0,0)" stroke-width="0.0010cm" stroke-linecap="round" stroke-linejoin="round" shaper:cutDepth="0.0015875" /><path d="M-0.0561394,1.5200041 L0.1438602,1.5185798 A0.16,0.16 269.5919723 0,1 0.1461391,1.8385716 L-0.0538606,1.8399959 A0.16,0.16 89.5919723 0,1 -0.0561394,1.5200041z" transform="matrix(1,0,0,-1,7.3025,5.715)" fill="rgb(255,255,255)" stroke="rgb(0,0,0)" stroke-width="0.0010cm" stroke-linecap="round" stroke-linejoin="round" shaper:cutDepth="0.0015875" /><path d="M0.805,2.43 a1.2,1.2 0 1,1 2.4,0 a1.2,1.2 0 1,1 -2.4,0z" transform="matrix(1,0,0,-1,7.3025,5.715)" fill="rgb(255,255,255)" stroke="rgb(0,0,0)" stroke-width="0.0010cm" stroke-linecap="round" stroke-linejoin="round" shaper:cutDepth="0.0015875" /><path d="M-2.655,1.84 L-2.855,1.84 A0.16,0.16 90 0,1 -2.855,1.52 L-2.655,1.52 A0.16,0.16 270 0,1 -2.655,1.84z" transform="matrix(1,0,0,-1,7.3025,5.715)" fill="rgb(255,255,255)" stroke="rgb(0,0,0)" stroke-width="0.0010cm" stroke-linecap="round" stroke-linejoin="round" shaper:cutDepth="0.0015875" /><path d="M0.895,3.63 a0.16,0.16 0 1,1 0.32,0 a0.16,0.16 0 1,1 -0.32,0z" transform="matrix(1,0,0,-1,7.3025,5.715)" fill="rgb(255,255,255)" stroke="rgb(0,0,0)" stroke-width="0.0010cm" stroke-linecap="round" stroke-linejoin="round" shaper:cutDepth="0.0015875" /><path d="M-0.715,2.48 A0.16,0.16 90 0,0 -0.555,2.32 L-0.555,1.04 A0.16,0.16 0 0,0 -0.715,0.88 L-1.995,0.88 A0.16,0.16 270 0,0 -2.155,1.04 L-2.155,2.32 A0.16,0.16 180 0,0 -1.995,2.48 L-0.715,2.48z" transform="matrix(1,0,0,-1,7.3025,5.715)" fill="rgb(255,255,255)" stroke="rgb(0,0,0)" stroke-width="0.0010cm" stroke-linecap="round" stroke-linejoin="round" shaper:cutDepth="0.0015875" /><path d="M-2.335,-0.39 L-1.935,-0.39 -1.935,-0.55 -1.215,-0.55 -1.215,-0.77 -0.965,-0.77 -0.965,-1.33 -1.215,-1.33 -1.215,-1.55 -3.055,-1.55 -3.055,-1.33 -3.305,-1.33 -3.305,-0.77 -3.055,-0.77 -3.055,-0.55 -2.335,-0.55 -2.335,-0.39z" transform="matrix(1,0,0,-1,7.3025,5.715)" fill="rgb(255,255,255)" stroke="rgb(0,0,0)" stroke-width="0.0010cm" stroke-linecap="round" stroke-linejoin="round" shaper:cutDepth="0.0015875" /><path d="M2.795,1.23 a0.16,0.16 0 1,1 0.32,0 a0.16,0.16 0 1,1 -0.32,0z" transform="matrix(1,0,0,-1,7.3025,5.715)" fill="rgb(255,255,255)" stroke="rgb(0,0,0)" stroke-width="0.0010cm" stroke-linecap="round" stroke-linejoin="round" shaper:cutDepth="0.0015875" /><path d="M0.22,-0.39 L0.62,-0.39 0.62,-0.55 0.92,-0.55 0.92,-0.77 1.17,-0.77 1.17,-1.33 0.92,-1.33 0.92,-1.55 -0.08,-1.55 -0.08,-1.33 -0.33,-1.33 -0.33,-0.77 -0.08,-0.77 -0.08,-0.55 0.22,-0.55 0.22,-0.39z" transform="matrix(1,0,0,-1,7.3025,5.715)" fill="rgb(255,255,255)" stroke="rgb(0,0,0)" stroke-width="0.0010cm" stroke-linecap="round" stroke-linejoin="round" shaper:cutDepth="0.0015875" /><path d="M2.355,-0.39 L2.755,-0.39 2.755,-0.55 3.055,-0.55 3.055,-0.77 3.305,-0.77 3.305,-1.33 3.055,-1.33 3.055,-1.55 2.055,-1.55 2.055,-1.33 1.805,-1.33 1.805,-0.77 2.055,-0.77 2.055,-0.55 2.355,-0.55 2.355,-0.39z" transform="matrix(1,0,0,-1,7.3025,5.715)" fill="rgb(255,255,255)" stroke="rgb(0,0,0)" stroke-width="0.0010cm" stroke-linecap="round" stroke-linejoin="round" shaper:cutDepth="0.0015875" /><path d="M-0.2,-2.82 L0.2,-2.82 0.2,-2.98 2.395,-2.98 2.395,-3.2 2.64,-3.2 2.64,-3.76 2.395,-3.76 2.395,-3.98 -2.395,-3.98 -2.395,-3.76 -2.64,-3.76 -2.64,-3.2 -2.395,-3.2 -2.395,-2.98 -0.2,-2.98 -0.2,-2.82z" transform="matrix(1,0,0,-1,7.3025,5.715)" fill="rgb(255,255,255)" stroke="rgb(0,0,0)" stroke-width="0.0010cm" stroke-linecap="round" stroke-linejoin="round" shaper:cutDepth="0.0015875" /></svg>