  0
SECTION
  2
HEADER
  9
$ACADVER
  1
AC1015
  9
$ACADMAINTVER
 70
     6
  9
$DWGCODEPAGE
  3
ANSI_1252
  9
$INSBASE
 10
0.0
 20
0.0
 30
0.0
  9
$EXTMIN
 10
0.0
 20
0.0
 30
0.0
  9
$EXTMAX
 10
0.5905511811
 20
0.7874015748
 30
0.0
  9
$LIMMIN
 10
0.0
 20
0.0
  9
$LIMMAX
 10
0.5905511811
 20
0.7874015748
  9
$ORTHOMODE
 70
     0
  9
$REGENMODE
 70
     1
  9
$FILLMODE
 70
     1
  9
$QTEXTMODE
 70
     0
  9
$MIRRTEXT
 70
     1
  9
$LTSCALE
 40
1.0
  9
$ATTMODE
 70
     1
  9
$TEXTSIZE
 40
0.1377952756
  9
$TRACEWID
 40
0.05
  9
$TEXTSTYLE
  7
Standard
  9
$CLAYER
  8
0
  9
$CELTYPE
  6
ByLayer
  9
$CECOLOR
 62
   256
  9
$CELTSCALE
 40
1.0
  9
$DISPSILH
 70
     0
  9
$DIMSCALE
 40
1.0
  9
$DIMASZ
 40
0.13
  9
$DIMEXO
 40
0.0393700787
  9
$DIMDLI
 40
0.38
  9
$DIMRND
 40
0.0
  9
$DIMDLE
 40
0.0
  9
$DIMEXE
 40
0.0393700787
  9
$DIMTP
 40
0.0
  9
$DIMTM
 40
0.0
  9
$DIMTXT
 40
0.1377952756
  9
$DIMCEN
 40
0.09
  9
$DIMTSZ
 40
0.0
  9
$DIMTOL
 70
     0
  9
$DIMLIM
 70
     0
  9
$DIMTIH
 70
     1
  9
$DIMTOH
 70
     1
  9
$DIMSE1
 70
     0
  9
$DIMSE2
 70
     0
  9
$DIMTAD
 70
     1
  9
$DIMZIN
 70
     1
  9
$DIMBLK
  1

  9
$DIMASO
 70
     1
  9
$DIMSHO
 70
     1
  9
$DIMPOST
  1

  9
$DIMAPOST
  1

  9
$DIMALT
 70
     0
  9
$DIMALTD
 70
     2
  9
$DIMALTF
 40
25.4
  9
$DIMLFAC
 40
10.0
  9
$DIMTOFL
 70
     0
  9
$DIMTVP
 40
0.0
  9
$DIMTIX
 70
     0
  9
$DIMSOXD
 70
     0
  9
$DIMSAH
 70
     0
  9
$DIMBLK1
  1

  9
$DIMBLK2
  1

  9
$DIMSTYLE
  2
Standard
  9
$DIMCLRD
 70
     0
  9
$DIMCLRE
 70
     0
  9
$DIMCLRT
 70
     0
  9
$DIMTFAC
 40
1.0
  9
$DIMGAP
 40
0.06
  9
$DIMJUST
 70
     0
  9
$DIMSD1
 70
     0
  9
$DIMSD2
 70
     0
  9
$DIMTOLJ
 70
     1
  9
$DIMTZIN
 70
     1
  9
$DIMALTZ
 70
     0
  9
$DIMALTTZ
 70
     0
  9
$DIMUPT
 70
     0
  9
$DIMDEC
 70
     2
  9
$DIMTDEC
 70
     2
  9
$DIMALTU
 70
     2
  9
$DIMALTTD
 70
     2
  9
$DIMTXSTY
  7
Standard
  9
$DIMAUNIT
 70
     0
  9
$DIMADEC
 70
     2
  9
$DIMALTRND
 40
0.0
  9
$DIMAZIN
 70
     0
  9
$DIMDSEP
 70
    46
  9
$DIMATFIT
 70
     3
  9
$DIMFRAC
 70
     0
  9
$DIMLDRBLK
  1

  9
$DIMLUNIT
 70
     2
  9
$DIMLWD
 70
    -2
  9
$DIMLWE
 70
    -2
  9
$DIMTMOVE
 70
     0
  9
$LUNITS
 70
     2
  9
$LUPREC
 70
     2
  9
$SKETCHINC
 40
0.1
  9
$FILLETRAD
 40
0.5
  9
$AUNITS
 70
     0
  9
$AUPREC
 70
     2
  9
$MENU
  1
.
  9
$ELEVATION
 40
0.0
  9
$PELEVATION
 40
0.0
  9
$THICKNESS
 40
0.0
  9
$LIMCHECK
 70
     0
  9
$CHAMFERA
 40
0.0
  9
$CHAMFERB
 40
0.0
  9
$CHAMFERC
 40
0.0
  9
$CHAMFERD
 40
0.0
  9
$SKPOLY
 70
     0
  9
$TDCREATE
 40
2459149.125050961
  9
$TDUCREATE
 40
2459148.666717627
  9
$TDUPDATE
 40
2459149.125052002
  9
$TDUUPDATE
 40
2459148.666718669
  9
$TDINDWG
 40
0.0000000116
  9
$TDUSRTIMER
 40
0.0000000116
  9
$USRTIMER
 70
     1
  9
$ANGBASE
 50
0.0
  9
$ANGDIR
 70
     0
  9
$PDMODE
 70
     0
  9
$PDSIZE
 40
-1.0
  9
$PLINEWID
 40
0.0
  9
$SPLFRAME
 70
     0
  9
$SPLINETYPE
 70
     6
  9
$SPLINESEGS
 70
     8
  9
$HANDSEED
  5
110
  9
$SURFTAB1
 70
     6
  9
$SURFTAB2
 70
     6
  9
$SURFTYPE
 70
     6
  9
$SURFU
 70
     6
  9
$SURFV
 70
     6
  9
$UCSBASE
  2

  9
$UCSNAME
  2

  9
$UCSORG
 10
0.0
 20
0.0
 30
0.0
  9
$UCSXDIR
 10
1.0
 20
0.0
 30
0.0
  9
$UCSYDIR
 10
0.0
 20
1.0
 30
0.0
  9
$UCSORTHOREF
  2

  9
$UCSORTHOVIEW
 70
     0
  9
$UCSORGTOP
 10
0.0
 20
0.0
 30
0.0
  9
$UCSORGBOTTOM
 10
0.0
 20
0.0
 30
0.0
  9
$UCSORGLEFT
 10
0.0
 20
0.0
 30
0.0
  9
$UCSORGRIGHT
 10
0.0
 20
0.0
 30
0.0
  9
$UCSORGFRONT
 10
0.0
 20
0.0
 30
0.0
  9
$UCSORGBACK
 10
0.0
 20
0.0
 30
0.0
  9
$PUCSBASE
  2

  9
$PUCSNAME
  2

  9
$PUCSORG
 10
0.0
 20
0.0
 30
0.0
  9
$PUCSXDIR
 10
1.0
 20
0.0
 30
0.0
  9
$PUCSYDIR
 10
0.0
 20
1.0
 30
0.0
  9
$PUCSORTHOREF
  2

  9
$PUCSORTHOVIEW
 70
     0
  9
$PUCSORGTOP
 10
0.0
 20
0.0
 30
0.0
  9
$PUCSORGBOTTOM
 10
0.0
 20
0.0
 30
0.0
  9
$PUCSORGLEFT
 10
0.0
 20
0.0
 30
0.0
  9
$PUCSORGRIGHT
 10
0.0
 20
0.0
 30
0.0
  9
$PUCSORGFRONT
 10
0.0
 20
0.0
 30
0.0
  9
$PUCSORGBACK
 10
0.0
 20
0.0
 30
0.0
  9
$USERI1
 70
     0
  9
$USERI2
 70
     0
  9
$USERI3
 70
     0
  9
$USERI4
 70
     0
  9
$USERI5
 70
     0
  9
$USERR1
 40
0.0
  9
$USERR2
 40
0.0
  9
$USERR3
 40
0.0
  9
$USERR4
 40
0.0
  9
$USERR5
 40
0.0
  9
$WORLDVIEW
 70
     1
  9
$SHADEDGE
 70
     3
  9
$SHADEDIF
 70
    70
  9
$TILEMODE
 70
     1
  9
$MAXACTVP
 70
    64
  9
$PINSBASE
 10
0.0
 20
0.0
 30
0.0
  9
$PLIMCHECK
 70
     0
  9
$PEXTMIN
 10
1.0000000000E+20
 20
1.0000000000E+20
 30
1.0000000000E+20
  9
$PEXTMAX
 10
-1.0000000000E+20
 20
-1.0000000000E+20
 30
-1.0000000000E+20
  9
$PLIMMIN
 10
0.0
 20
0.0
  9
$PLIMMAX
 10
12.0
 20
9.0
  9
$UNITMODE
 70
     0
  9
$VISRETAIN
 70
     1
  9
$PLINEGEN
 70
     0
  9
$PSLTSCALE
 70
     1
  9
$TREEDEPTH
 70
  3020
  9
$CMLSTYLE
  2
Standard
  9
$CMLJUST
 70
     0
  9
$CMLSCALE
 40
1.0
  9
$PROXYGRAPHICS
 70
     1
  9
$MEASUREMENT
 70
     0
  9
$CELWEIGHT
370
    -1
  9
$ENDCAPS
280
     0
  9
$JOINSTYLE
280
     0
  9
$LWDISPLAY
290
     1
  9
$INSUNITS
 70
     1
  9
$HYPERLINKBASE
  1

  9
$STYLESHEET
  1

  9
$XEDIT
290
     1
  9
$CEPSNTYPE
380
     0
  9
$PSTYLEMODE
290
     1
  9
$FINGERPRINTGUID
  2
{be722c70-c6d5-4785-b9a6-f385be06f4d5}
  9
$VERSIONGUID
  2
{FAEB1C32-E019-11D5-929B-00C0DF256EC4}
  9
$EXTNAMES
290
     1
  9
$PSVPSCALE
 40
0.0
  9
$OLESTARTUP
290
     0
  0
ENDSEC
  0
SECTION
  2
CLASSES
  0
CLASS
  1
ACDBDICTIONARYWDFLT
  2
AcDbDictionaryWithDefault
  3
ObjectDBX Classes
 90
        0
280
     0
281
     0
  0
CLASS
  1
VISUALSTYLE
  2
AcDbVisualStyle
  3
ObjectDBX Classes
 90
     4095
280
     0
281
     0
  0
CLASS
  1
MATERIAL
  2
AcDbMaterial
  3
ObjectDBX Classes
 90
     1153
280
     0
281
     0
  0
CLASS
  1
SCALE
  2
AcDbScale
  3
ObjectDBX Classes
 90
     1153
280
     0
281
     0
  0
CLASS
  1
TABLESTYLE
  2
AcDbTableStyle
  3
ObjectDBX Classes
 90
     4095
280
     0
281
     0
  0
CLASS
  1
MLEADERSTYLE
  2
AcDbMLeaderStyle
  3
ACDB_MLEADERSTYLE_CLASS
 90
     4095
280
     0
281
     0
  0
CLASS
  1
SUN
  2
AcDbSun
  3
SCENEOE
 90
     1153
280
     0
281
     0
  0
CLASS
  1
ACDBPLACEHOLDER
  2
AcDbPlaceHolder
  3
ObjectDBX Classes
 90
        0
280
     0
281
     0
  0
CLASS
  1
LAYOUT
  2
AcDbLayout
  3
ObjectDBX Classes
 90
        0
280
     0
281
     0
  0
ENDSEC
  0
SECTION
  2
TABLES
  0
TABLE
  2
VPORT
  5
8
330
0
100
AcDbSymbolTable
 70
     1
  0
VPORT
  5
29
330
8
100
AcDbSymbolTableRecord
100
AcDbViewportTableRecord
  2
*Active
 70
     0
 10
0.0
 20
0.0
 11
1.0
 21
1.0
 12
0.2952755906
 22
0.3937007874
 13
0.0
 23
0.0
 14
0.5
 24
0.5
 15
0.5
 25
0.5
 16
0.0
 26
0.0
 36
1.0
 17
0.0
 27
0.0
 37
0.0
 40
0.7874015748
 41
0.75
 42
50.0
 43
0.0
 44
0.0
 50
0.0
 51
0.0
 71
     0
 72
  2000
 73
     1
 74
     3
 75
     0
 76
     0
 77
     0
 78
     0
281
     0
 65
     1
110
0.0
120
0.0
130
0.0
111
1.0
121
0.0
131
0.0
112
0.0
122
1.0
132
0.0
 79
     0
146
0.0
  0
ENDTAB
  0
TABLE
  2
LTYPE
  5
5
330
0
100
AcDbSymbolTable
 70
     6
  0
LTYPE
  5
14
330
5
100
AcDbSymbolTableRecord
100
AcDbLinetypeTableRecord
  2
ByBlock
 70
     0
  3

 72
    65
 73
     0
 40
0.0
  0
LTYPE
  5
15
330
5
100
AcDbSymbolTableRecord
100
AcDbLinetypeTableRecord
  2
ByLayer
 70
     0
  3

 72
    65
 73
     0
 40
0.0
  0
LTYPE
  5
16
330
5
100
AcDbSymbolTableRecord
100
AcDbLinetypeTableRecord
  2
Continuous
 70
     0
  3
Solid line
 72
    65
 73
     0
 40
0.0
  0
LTYPE
  5
6E
330
5
100
AcDbSymbolTableRecord
100
AcDbLinetypeTableRecord
  2
HIDDEN
 70
     0
  3
Hidden __ __ __ __ __ __ __ __ __ __ __ __ __ __
 72
    65
 73
     2
 40
0.075
 49
0.05
 74
     0
 49
-0.025
 74
     0
  0
LTYPE
  5
6F
330
5
100
AcDbSymbolTableRecord
100
AcDbLinetypeTableRecord
  2
PHANTOM
 70
     0
  3
Phantom ______  __  __  ______  __  __  ______
 72
    65
 73
     6
 40
0.5
 49
0.25
 74
     0
 49
-0.05
 74
     0
 49
0.05
 74
     0
 49
-0.05
 74
     0
 49
0.05
 74
     0
 49
-0.05
 74
     0
  0
LTYPE
  5
70
330
5
100
AcDbSymbolTableRecord
100
AcDbLinetypeTableRecord
  2
CENTER
 70
     0
  3
Center ____ _ ____ _ ____ _ ____ _ ____ _ ____
 72
    65
 73
     4
 40
0.4
 49
0.25
 74
     0
 49
-0.05
 74
     0
 49
0.05
 74
     0
 49
-0.05
 74
     0
  0
LTYPE
  5
71
330
5
100
AcDbSymbolTableRecord
100
AcDbLinetypeTableRecord
  2
CENTERX2
 70
     0
  3
Center (2x) ________  __  ________  __  _____
 72
    65
 73
     4
 40
0.8
 49
0.5
 74
     0
 49
-0.1
 74
     0
 49
0.1
 74
     0
 49
-0.1
 74
     0
  0
LTYPE
  5
72
330
5
100
AcDbSymbolTableRecord
100
AcDbLinetypeTableRecord
  2
DOT2
 70
     0
  3
Dot (.5x) ........................................
 72
    65
 73
     2
 40
0.025
 49
0.0
 74
     0
 49
-0.025
 74
     0
  0
ENDTAB
  0
TABLE
  2
LAYER
  5
2
330
0
100
AcDbSymbolTable
 70
     1
  0
LAYER
  5
10
330
2
100
AcDbSymbolTableRecord
100
AcDbLayerTableRecord
  2
0
 70
     0
 62
     7
  6
Continuous
370
    -3
390
F
  0
ENDTAB
  0
TABLE
  2
STYLE
  5
3
330
0
100
AcDbSymbolTable
 70
     1
  0
STYLE
  5
11
330
3
100
AcDbSymbolTableRecord
100
AcDbTextStyleTableRecord
  2
Standard
 70
     0
 40
0.0
 41
1.0
 50
0.0
 71
     0
 42
0.1377952756
  3
txt
  4

  0
ENDTAB
  0
TABLE
  2
VIEW
  5
6
330
0
100
AcDbSymbolTable
 70
     0
  0
ENDTAB
  0
TABLE
  2
UCS
  5
7
330
0
100
AcDbSymbolTable
 70
     0
  0
ENDTAB
  0
TABLE
  2
APPID
  5
9
330
0
100
AcDbSymbolTable
 70
     1
  0
APPID
  5
12
330
9
100
AcDbSymbolTableRecord
100
AcDbRegAppTableRecord
  2
ACAD
 70
     0
  0
ENDTAB
  0
TABLE
  2
DIMSTYLE
  5
A
330
0
100
AcDbSymbolTable
 70
     1
100
AcDbDimStyleTable
  0
DIMSTYLE
105
27
330
A
100
AcDbSymbolTableRecord
100
AcDbDimStyleTableRecord
  2
Standard
 70
     0
178
     0
340
11
  0
ENDTAB
  0
TABLE
  2
BLOCK_RECORD
  5
1
330
0
100
AcDbSymbolTable
 70
     1
  0
BLOCK_RECORD
  5
1F
330
1
100
AcDbSymbolTableRecord
100
AcDbBlockTableRecord
  2
*Model_Space
340
22
  0
BLOCK_RECORD
  5
1B
330
1
100
AcDbSymbolTableRecord
100
AcDbBlockTableRecord
  2
*Paper_Space
340
1E
  0
BLOCK_RECORD
  5
23
330
1
100
AcDbSymbolTableRecord
100
AcDbBlockTableRecord
  2
*Paper_Space0
340
26
  0
ENDTAB
  0
ENDSEC
  0
SECTION
  2
BLOCKS
  0
BLOCK
  5
20
330
1F
100
AcDbEntity
  8
0
100
AcDbBlockBegin
  2
*Model_Space
 70
     0
 10
0.0
 20
0.0
 30
0.0
  3
*Model_Space
  1

  0
ENDBLK
  5
21
330
1F
100
AcDbEntity
  8
0
100
AcDbBlockEnd
  0
BLOCK
  5
1C
330
1B
100
AcDbEntity
 67
     1
  8
0
100
AcDbBlockBegin
  2
*Paper_Space
 70
     0
 10
0.0
 20
0.0
 30
0.0
  3
*Paper_Space
  1

  0
ENDBLK
  5
1D
330
1B
100
AcDbEntity
 67
     1
  8
0
100
AcDbBlockEnd
  0
BLOCK
  5
24
330
23
100
AcDbEntity
  8
0
100
AcDbBlockBegin
  2
*Paper_Space0
 70
     0
 10
0.0
 20
0.0
 30
0.0
  3
*Paper_Space0
  1

  0
ENDBLK
  5
25
330
23
100
AcDbEntity
  8
0
100
AcDbBlockEnd
  0
ENDSEC
  0
SECTION
  2
ENTITIES
  0
ARC
  5
73
330
1F
100
AcDbEntity
  8
0
  6
Continuous
 62
     7
370
    25
100
AcDbCircle
 10
0.1923005003
 20
0.7060489457
 30
0.0
 40
0.0395039420098246
100
AcDbArc
 50
12.281859809
 51
17.0
  0
ARC
  5
74
330
1F
100
AcDbEntity
  8
0
  6
Continuous
 62
     7
370
    25
100
AcDbCircle
 10
0.1923005003
 20
0.7060489457
 30
0.0
 40
0.0395039420098247
100
AcDbArc
 50
197.0
 51
201.718140191
  0
ARC
  5
75
330
1F
100
AcDbEntity
  8
0
  6
Continuous
 62
     7
370
    25
100
AcDbCircle
 10
0.1923005003
 20
0.7060489457
 30
0.0
 40
0.0395039420098163
100
AcDbArc
 50
17.0
 51
197.0
  0
LINE
  5
76
330
1F
100
AcDbEntity
  8
0
  6
Continuous
 62
     7
370
    25
100
AcDbLine
 10
0.1556007274
 20
0.6914308711
 30
0.0
 11
0.2149096318
 21
0.542531417
 31
0.0
  0
LINE
  5
77
330
1F
100
AcDbEntity
  8
0
  6
Continuous
 62
     7
370
    25
100
AcDbLine
 10
0.2683281065
 20
0.542531417
 30
0.0
 11
0.2309003145
 21
0.7144522652
 31
0.0
  0
SPLINE
  5
78
330
1F
100
AcDbEntity
  8
0
  6
Continuous
 62
     7
370
    25
100
AcDbSpline
210
0.0
220
0.0
230
1.0
 70
     8
 71
     3
 72
     9
 73
     5
 74
     0
 42
0.00000001
 43
0.00000001
 40
0.0
 40
0.0
 40
0.0
 40
0.0
 40
0.5062562947627244
 40
1.0
 40
1.0
 40
1.0
 40
1.0
 10
0.1857622958489379
 20
0.4801706983563929
 30
0.0
 10
0.1871925578215224
 20
0.4793444360755433
 30
0.0
 10
0.1900177315277671
 20
0.4777123333453702
 30
0.0
 10
0.1928428256931004
 20
0.4760800850695365
 30
0.0
 10
0.1942376981539363
 20
0.4752741727579592
 30
0.0
  0
SPLINE
  5
79
330
1F
100
AcDbEntity
  8
0
  6
Continuous
 62
     7
370
    25
100
AcDbSpline
210
0.0
220
0.0
230
1.0
 70
     8
 71
     3
 72
     9
 73
     5
 74
     0
 42
0.00000001
 43
0.00000001
 40
0.0
 40
0.0
 40
0.0
 40
0.0
 40
0.4999851378479036
 40
1.0
 40
1.0
 40
1.0
 40
1.0
 10
0.194343491310644
 20
0.4851778678385008
 30
0.0
 10
0.192913352215738
 20
0.4843515794017453
 30
0.0
 10
0.1900529890036196
 20
0.4826989534050767
 30
0.0
 10
0.1871925452574517
 20
0.4810464747713125
 30
0.0
 10
0.1857622808720177
 20
0.4802202108950416
 30
0.0
  0
SPLINE
  5
7A
330
1F
100
AcDbEntity
  8
0
  6
Continuous
 62
     7
370
    25
100
AcDbSpline
210
0.0
220
0.0
230
1.0
 70
     8
 71
     3
 72
     9
 73
     5
 74
     0
 42
0.00000001
 43
0.00000001
 40
0.0
 40
0.0
 40
0.0
 40
0.0
 40
0.4997204217845589
 40
1.0
 40
1.0
 40
1.0
 40
1.0
 10
0.1943423247108823
 20
0.4556496391522549
 30
0.0
 10
0.1929129888545505
 20
0.454823805959498
 30
0.0
 10
0.1900527178029342
 20
0.4531712155174107
 30
0.0
 10
0.1871923349134178
 20
0.4515187886051994
 30
0.0
 10
0.1857613437679159
 20
0.4506921131665265
 30
0.0
  0
SPLINE
  5
7B
330
1F
100
AcDbEntity
  8
0
  6
Continuous
 62
     7
370
    25
100
AcDbSpline
210
0.0
220
0.0
230
1.0
 70
     8
 71
     3
 72
     9
 73
     5
 74
     0
 42
0.00000001
 43
0.00000001
 40
0.0
 40
0.0
 40
0.0
 40
0.0
 40
0.5055221202658707
 40
0.9999999999999999
 40
0.9999999999999999
 40
0.9999999999999999
 40
0.9999999999999999
 10
0.1857507086833326
 20
0.4506502300994601
 30
0.0
 10
0.1871809426128958
 20
0.4498239619022309
 30
0.0
 10
0.1900101638719201
 20
0.4481894771505159
 30
0.0
 10
0.1928393910914649
 20
0.4465548447566023
 30
0.0
 10
0.1942383813682716
 20
0.4457465551963152
 30
0.0
  0
SPLINE
  5
7C
330
1F
100
AcDbEntity
  8
0
  6
Continuous
 62
     7
370
    25
100
AcDbSpline
210
0.0
220
0.0
230
1.0
 70
     8
 71
     3
 72
     9
 73
     5
 74
     0
 42
0.00000001
 43
0.00000001
 40
0.0
 40
0.0
 40
0.0
 40
0.0
 40
0.5064363100536532
 40
0.9999999999999999
 40
0.9999999999999999
 40
0.9999999999999999
 40
0.9999999999999999
 10
0.1857615605560072
 20
0.4703286450124271
 30
0.0
 10
0.1871924619486081
 20
0.4695020181839915
 30
0.0
 10
0.1900178940201145
 20
0.4678697757637194
 30
0.0
 10
0.1928432239450005
 20
0.4662373733978009
 30
0.0
 10
0.1942377042080431
 20
0.4654316788626009
 30
0.0
  0
SPLINE
  5
7D
330
1F
100
AcDbEntity
  8
0
  6
Continuous
 62
     7
370
    25
100
AcDbSpline
210
0.0
220
0.0
230
1.0
 70
     8
 71
     3
 72
     9
 73
     5
 74
     0
 42
0.00000001
 43
0.00000001
 40
0.0
 40
0.0
 40
0.0
 40
0.0
 40
0.5064350034715949
 40
1.0
 40
1.0
 40
1.0
 40
1.0
 10
0.1857614844222
 20
0.4604861887071116
 30
0.0
 10
0.1871923918566107
 20
0.4596595591429838
 30
0.0
 10
0.1900178431476984
 20
0.4580273071097292
 30
0.0
 10
0.1928431982866849
 20
0.4563948913205977
 30
0.0
 10
0.1942376946860503
 20
0.4555891880273022
 30
0.0
  0
SPLINE
  5
7E
330
1F
100
AcDbEntity
  8
0
  6
Continuous
 62
     7
370
    25
100
AcDbSpline
210
0.0
220
0.0
230
1.0
 70
     8
 71
     3
 72
     9
 73
     5
 74
     0
 42
0.00000001
 43
0.00000001
 40
0.0
 40
0.0
 40
0.0
 40
0.0
 40
0.499605435400917
 40
1.0
 40
1.0
 40
1.0
 40
1.0
 10
0.194342434040063
 20
0.4753346855508576
 30
0.0
 10
0.1929134299558387
 20
0.4745090342640059
 30
0.0
 10
0.1900531646685372
 20
0.4728564275701072
 30
0.0
 10
0.1871927825140118
 20
0.4712040162534196
 30
0.0
 10
0.185761462831211
 20
0.4703771586120671
 30
0.0
  0
SPLINE
  5
7F
330
1F
100
AcDbEntity
  8
0
  6
Continuous
 62
     7
370
    25
100
AcDbSpline
210
0.0
220
0.0
230
1.0
 70
     8
 71
     3
 72
     9
 73
     5
 74
     0
 42
0.00000001
 43
0.00000001
 40
0.0
 40
0.0
 40
0.0
 40
0.0
 40
0.4997419365195456
 40
1.0
 40
1.0
 40
1.0
 40
1.0
 10
0.1943424985434959
 20
0.465492224996879
 30
0.0
 10
0.1929131032688073
 20
0.4646663568333601
 30
0.0
 10
0.1900528364586139
 20
0.4630137675604432
 30
0.0
 10
0.1871924657530552
 20
0.461361341456982
 30
0.0
 10
0.1857615422430562
 20
0.4605347019744199
 30
0.0
  0
SPLINE
  5
80
330
1F
100
AcDbEntity
  8
0
  6
Continuous
 62
     7
370
    25
100
AcDbSpline
210
0.0
220
0.0
230
1.0
 70
     8
 71
     3
 72
     9
 73
     5
 74
     0
 42
0.00000001
 43
0.00000001
 40
0.0
 40
0.0
 40
0.0
 40
0.0
 40
0.5064392814209924
 40
0.9999999999999999
 40
0.9999999999999999
 40
0.9999999999999999
 40
0.9999999999999999
 10
0.185761470868848
 20
0.4309585903290837
 30
0.0
 10
0.1871923966033652
 20
0.4301319501386308
 30
0.0
 10
0.1900178601623969
 20
0.4284996909107653
 30
0.0
 10
0.1928432180625934
 20
0.4268672726438394
 30
0.0
 10
0.1942377037380573
 20
0.4260615751109941
 30
0.0
  0
SPLINE
  5
81
330
1F
100
AcDbEntity
  8
0
  6
Continuous
 62
     7
370
    25
100
AcDbSpline
210
0.0
220
0.0
230
1.0
 70
     8
 71
     3
 72
     9
 73
     5
 74
     0
 42
0.00000001
 43
0.00000001
 40
0.0
 40
0.0
 40
0.0
 40
0.0
 40
0.4997217337365677
 40
0.9999999999999999
 40
0.9999999999999999
 40
0.9999999999999999
 40
0.9999999999999999
 10
0.1943423350636337
 20
0.4359646130410682
 30
0.0
 10
0.1929129968102501
 20
0.4351387784119664
 30
0.0
 10
0.1900527284711166
 20
0.4334861894342432
 30
0.0
 10
0.1871923473480036
 20
0.4318337630750705
 30
0.0
 10
0.1857613608388801
 20
0.4310070900809755
 30
0.0
  0
SPLINE
  5
82
330
1F
100
AcDbEntity
  8
0
  6
Continuous
 62
     7
370
    25
100
AcDbSpline
210
0.0
220
0.0
230
1.0
 70
     8
 71
     3
 72
     9
 73
     5
 74
     0
 42
0.00000001
 43
0.00000001
 40
0.0
 40
0.0
 40
0.0
 40
0.0
 40
0.5064346532304005
 40
0.9999999999999999
 40
0.9999999999999999
 40
0.9999999999999999
 40
0.9999999999999999
 10
0.1857614403570924
 20
0.4408011847186711
 30
0.0
 10
0.1871923545289065
 20
0.4399745511123255
 30
0.0
 10
0.1900178210776245
 20
0.4383422899685181
 30
0.0
 10
0.1928431914967466
 20
0.4367098652212659
 30
0.0
 10
0.1942376964274133
 20
0.4359041569348132
 30
0.0
  0
SPLINE
  5
83
330
1F
100
AcDbEntity
  8
0
  6
Continuous
 62
     7
370
    25
100
AcDbSpline
210
0.0
220
0.0
230
1.0
 70
     8
 71
     3
 72
     9
 73
     5
 74
     0
 42
0.00000001
 43
0.00000001
 40
0.0
 40
0.0
 40
0.0
 40
0.0
 40
0.4999859425127631
 40
1.0
 40
1.0
 40
1.0
 40
1.0
 10
0.1943560340495407
 20
0.4458145314415402
 30
0.0
 10
0.1929259916311523
 20
0.4449882752204297
 30
0.0
 10
0.1900658263809024
 20
0.4433357163165573
 30
0.0
 10
0.1872054882491493
 20
0.4416832967917711
 30
0.0
 10
0.185775278974106
 20
0.4408570638005116
 30
0.0
  0
SPLINE
  5
84
330
1F
100
AcDbEntity
  8
0
  6
Continuous
 62
     7
370
    25
100
AcDbSpline
210
0.0
220
0.0
230
1.0
 70
     8
 71
     3
 72
     9
 73
     5
 74
     0
 42
0.00000001
 43
0.00000001
 40
0.0
 40
0.0
 40
0.0
 40
0.0
 40
0.4997442214072554
 40
1.0
 40
1.0
 40
1.0
 40
1.0
 10
0.1943425063490196
 20
0.4261221260242513
 30
0.0
 10
0.1929130885919012
 20
0.4252962449415328
 30
0.0
 10
0.1900527898713013
 20
0.4236436373728193
 30
0.0
 10
0.1871923904068383
 20
0.4219911943235615
 30
0.0
 10
0.1857614590456571
 20
0.4211645501393749
 30
0.0
  0
SPLINE
  5
85
330
1F
100
AcDbEntity
  8
0
  6
Continuous
 62
     7
370
    25
100
AcDbSpline
210
0.0
220
0.0
230
1.0
 70
     8
 71
     3
 72
     9
 73
     5
 74
     0
 42
0.00000001
 43
0.00000001
 40
0.0
 40
0.0
 40
0.0
 40
0.0
 40
0.4997414282150093
 40
1.0
 40
1.0
 40
1.0
 40
1.0
 10
0.1943424953933238
 20
0.4950197833342603
 30
0.0
 10
0.1929131052703284
 20
0.4941939181499893
 30
0.0
 10
0.1900528458595748
 20
0.4925413331577447
 30
0.0
 10
0.1871924821052344
 20
0.4908889111839113
 30
0.0
 10
0.1857615606187025
 20
0.4900622729272951
 30
0.0
  0
SPLINE
  5
86
330
1F
100
AcDbEntity
  8
0
  6
Continuous
 62
     7
370
    25
100
AcDbSpline
210
0.0
220
0.0
230
1.0
 70
     8
 71
     3
 72
     9
 73
     5
 74
     0
 42
0.00000001
 43
0.00000001
 40
0.0
 40
0.0
 40
0.0
 40
0.0
 40
0.5065712942531059
 40
1.0
 40
1.0
 40
1.0
 40
1.0
 10
0.1857614628311941
 20
0.4900137592914421
 30
0.0
 10
0.1871927641713818
 20
0.4891869119694235
 30
0.0
 10
0.1900182328791932
 20
0.4875546692201818
 30
0.0
 10
0.192843587203368
 20
0.4859222350245439
 30
0.0
 10
0.194237698130822
 20
0.4851167451321733
 30
0.0
  0
SPLINE
  5
87
330
1F
100
AcDbEntity
  8
0
  6
Continuous
 62
     7
370
    25
100
AcDbSpline
210
0.0
220
0.0
230
1.0
 70
     8
 71
     3
 72
     9
 73
     5
 74
     0
 42
0.00000001
 43
0.00000001
 40
0.0
 40
0.0
 40
0.0
 40
0.0
 40
0.4997405386106782
 40
0.9999999999999999
 40
0.9999999999999999
 40
0.9999999999999999
 40
0.9999999999999999
 10
0.194342444908414
 20
0.5048622504582172
 30
0.0
 10
0.1929130514840485
 20
0.5040363839601807
 30
0.0
 10
0.1900527803754861
 20
0.5023837933972206
 30
0.0
 10
0.1871924111768627
 20
0.5007313697567511
 30
0.0
 10
0.1857614844221847
 20
0.4999047291963829
 30
0.0
  0
SPLINE
  5
88
330
1F
100
AcDbEntity
  8
0
  6
Continuous
 62
     7
370
    25
100
AcDbSpline
210
0.0
220
0.0
230
1.0
 70
     8
 71
     3
 72
     9
 73
     5
 74
     0
 42
0.00000001
 43
0.00000001
 40
0.0
 40
0.0
 40
0.0
 40
0.0
 40
0.506435996510507
 40
1.0
 40
1.0
 40
1.0
 40
1.0
 10
0.1857615422728606
 20
0.4998562159118561
 30
0.0
 10
0.1871924457580438
 20
0.4990295878198942
 30
0.0
 10
0.1900178837108009
 20
0.497397341894135
 30
0.0
 10
0.1928432199451275
 20
0.4957649358723723
 30
0.0
 10
0.1942377042081457
 20
0.4949592390209507
 30
0.0
  0
SPLINE
  5
89
330
1F
100
AcDbEntity
  8
0
  6
Continuous
 62
     7
370
    25
100
AcDbSpline
210
0.0
220
0.0
230
1.0
 70
     8
 71
     3
 72
     9
 73
     5
 74
     0
 42
0.00000001
 43
0.00000001
 40
0.0
 40
0.0
 40
0.0
 40
0.0
 40
0.5064472112837581
 40
1.0
 40
1.0
 40
1.0
 40
1.0
 10
0.185761374667346
 20
0.5096987868866089
 30
0.0
 10
0.1871923384294241
 20
0.50887212701474
 30
0.0
 10
0.1900178328347559
 20
0.5072398544827749
 30
0.0
 10
0.1928432179696837
 20
0.5056074216377585
 30
0.0
 10
0.1942376946822247
 20
0.5048017298547088
 30
0.0
  0
SPLINE
  5
8A
330
1F
100
AcDbEntity
  8
0
  6
Continuous
 62
     7
370
    25
100
AcDbSpline
210
0.0
220
0.0
230
1.0
 70
     8
 71
     3
 72
     9
 73
     5
 74
     0
 42
0.00000001
 43
0.00000001
 40
0.0
 40
0.0
 40
0.0
 40
0.0
 40
0.4994694249473324
 40
1.0
 40
1.0
 40
1.0
 40
1.0
 10
0.1943424297143209
 20
0.5245472936264689
 30
0.0
 10
0.1929138285913328
 20
0.5237218615894225
 30
0.0
 10
0.1900535912041516
 20
0.5220692438398307
 30
0.0
 10
0.1871932064470576
 20
0.5204168582606797
 30
0.0
 10
0.1857614964197174
 20
0.5195897887565385
 30
0.0
  0
SPLINE
  5
8B
330
1F
100
AcDbEntity
  8
0
  6
Continuous
 62
     7
370
    25
100
AcDbSpline
210
0.0
220
0.0
230
1.0
 70
     8
 71
     3
 72
     9
 73
     5
 74
     0
 42
0.00000001
 43
0.00000001
 40
0.0
 40
0.0
 40
0.0
 40
0.0
 40
0.5005173631036992
 40
1.0
 40
1.0
 40
1.0
 40
1.0
 10
0.1857614389905922
 20
0.5293837825038308
 30
0.0
 10
0.1871931072675249
 20
0.5285567365963971
 30
0.0
 10
0.1900534841145035
 20
0.5269043545445437
 30
0.0
 10
0.1929137000748495
 20
0.5252517540964691
 30
0.0
 10
0.194342328284816
 20
0.5244263088669288
 30
0.0
  0
SPLINE
  5
8C
330
1F
100
AcDbEntity
  8
0
  6
Continuous
 62
     7
370
    25
100
AcDbSpline
210
0.0
220
0.0
230
1.0
 70
     8
 71
     3
 72
     9
 73
     5
 74
     0
 42
0.00000001
 43
0.00000001
 40
0.0
 40
0.0
 40
0.0
 40
0.0
 40
0.499984940340022
 40
1.0
 40
1.0
 40
1.0
 40
1.0
 10
0.1943318544333356
 20
0.5146983657580416
 30
0.0
 10
0.1929017100249155
 20
0.5138720762249024
 30
0.0
 10
0.1900413350555265
 20
0.5122194473825672
 30
0.0
 10
0.1871809660955699
 20
0.5105669678616563
 30
0.0
 10
0.1857507385394077
 20
0.5097407032154213
 30
0.0
  0
SPLINE
  5
8D
330
1F
100
AcDbEntity
  8
0
  6
Continuous
 62
     7
370
    25
100
AcDbSpline
210
0.0
220
0.0
230
1.0
 70
     8
 71
     3
 72
     9
 73
     5
 74
     0
 42
0.00000001
 43
0.00000001
 40
0.0
 40
0.0
 40
0.0
 40
0.0
 40
0.5069636150614792
 40
1.0
 40
1.0
 40
1.0
 40
1.0
 10
0.1857753122137425
 20
0.5195338128971517
 30
0.0
 10
0.1872055084831742
 20
0.518707587868785
 30
0.0
 10
0.1900266108797599
 20
0.517077835744924
 30
0.0
 10
0.1928475428179191
 20
0.5154479462552846
 30
0.0
 10
0.1942383649028668
 20
0.5146443514334633
 30
0.0
  0
SPLINE
  5
8E
330
1F
100
AcDbEntity
  8
0
  6
Continuous
 62
     7
370
    25
100
AcDbSpline
210
0.0
220
0.0
230
1.0
 70
     8
 71
     3
 72
     9
 73
     5
 74
     0
 42
0.00000001
 43
0.00000001
 40
0.0
 40
0.0
 40
0.0
 40
0.0
 40
0.4994138357452451
 40
0.9999999999999999
 40
0.9999999999999999
 40
0.9999999999999999
 40
0.9999999999999999
 10
0.1943423867049637
 20
0.5343898365248435
 30
0.0
 10
0.1929139564104945
 20
0.5335644968732016
 30
0.0
 10
0.1900537427114936
 20
0.5319118801602297
 30
0.0
 10
0.1871933505228949
 20
0.5302595040316115
 30
0.0
 10
0.1857614777689401
 20
0.5294323474034804
 30
0.0
  0
LINE
  5
8F
330
1F
100
AcDbEntity
  8
0
  6
Continuous
 62
     7
370
    25
100
AcDbLine
 10
0.1857661182
 20
0.4112978212
 30
0.0
 11
0.1857661182
 21
0.4047361414
 31
0.0
  0
SPLINE
  5
90
330
1F
100
AcDbEntity
  8
0
  6
Continuous
 62
     7
370
    25
100
AcDbSpline
210
0.0
220
0.0
230
1.0
 70
     8
 71
     3
 72
     9
 73
     5
 74
     0
 42
0.00000001
 43
0.00000001
 40
0.0
 40
0.0
 40
0.0
 40
0.0
 40
0.1583896005859103
 40
0.9999999999999999
 40
0.9999999999999999
 40
0.9999999999999999
 40
0.9999999999999999
 10
0.1899908315429351
 20
0.5367829988718701
 30
0.0
 10
0.1902150550671667
 20
0.5366534611300107
 30
0.0
 10
0.1916307005603187
 20
0.5358356186619427
 30
0.0
 10
0.1930463084859623
 20
0.5350177105133385
 30
0.0
 10
0.194237698837677
 20
0.5343293505097075
 30
0.0
  0
LINE
  5
91
330
1F
100
AcDbEntity
  8
0
  6
Continuous
 62
     7
370
    25
100
AcDbLine
 10
0.1956086379
 20
0.542531417
 30
0.0
 11
0.1899318925
 21
0.5368546715
 31
0.0
  0
LINE
  5
92
330
1F
100
AcDbEntity
  8
0
  6
Continuous
 62
     7
370
    25
100
AcDbLine
 10
0.3110942022
 20
0.2078857477
 30
0.0
 11
0.3110942022
 21
0.0815077949
 31
0.0
  0
LINE
  5
93
330
1F
100
AcDbEntity
  8
0
  6
Continuous
 62
     7
370
    25
100
AcDbLine
 10
0.3215928899
 20
0.0815077949
 30
0.0
 11
0.3215928899
 21
0.2078857477
 31
0.0
  0
LINE
  5
94
330
1F
100
AcDbEntity
  8
0
  6
Continuous
 62
     7
370
    25
100
AcDbLine
 10
0.3110942022
 20
0.0670720994
 30
0.0
 11
0.3215928899
 21
0.0670720994
 31
0.0
  0
LINE
  5
95
330
1F
100
AcDbEntity
  8
0
  6
Continuous
 62
     7
370
    25
100
AcDbLine
 10
0.3215928899
 20
0.0670720994
 30
0.0
 11
0.3215928899
 21
0.0815077949
 31
0.0
  0
LINE
  5
96
330
1F
100
AcDbEntity
  8
0
  6
Continuous
 62
     7
370
    25
100
AcDbLine
 10
0.3110942022
 20
0.0815077949
 30
0.0
 11
0.3110942022
 21
0.0670720994
 31
0.0
  0
LINE
  5
97
330
1F
100
AcDbEntity
  8
0
  6
Continuous
 62
     7
370
    25
100
AcDbLine
 10
0.2599130999
 20
0.1572295797
 30
0.0
 11
0.2704117875
 21
0.1572295797
 31
0.0
  0
LINE
  5
98
330
1F
100
AcDbEntity
  8
0
  6
Continuous
 62
     7
370
    25
100
AcDbLine
 10
0.2704117875
 20
0.1572295797
 30
0.0
 11
0.2704117875
 21
0.1895130443
 31
0.0
  0
LINE
  5
99
330
1F
100
AcDbEntity
  8
0
  6
Continuous
 62
     7
370
    25
100
AcDbLine
 10
0.2599130999
 20
0.1572295797
 30
0.0
 11
0.2599130999
 21
0.1895130443
 31
0.0
  0
LINE
  5
9A
330
1F
100
AcDbEntity
  8
0
  6
Continuous
 62
     7
370
    25
100
AcDbLine
 10
0.4036138873
 20
0.2000117319
 30
0.0
 11
0.4036138873
 21
0.2118227555
 31
0.0
  0
LINE
  5
9B
330
1F
100
AcDbEntity
  8
0
  6
Continuous
 62
     7
370
    25
100
AcDbLine
 10
0.4141125749
 20
0.2118227555
 30
0.0
 11
0.4141125749
 21
0.2000117319
 31
0.0
  0
LINE
  5
9C
330
1F
100
AcDbEntity
  8
0
  6
Continuous
 62
     7
370
    25
100
AcDbLine
 10
0.4141125749
 20
0.0956901082
 30
0.0
 11
0.412144071
 21
0.0845261676
 31
0.0
  0
LINE
  5
9D
330
1F
100
AcDbEntity
  8
0
  6
Continuous
 62
     7
370
    25
100
AcDbLine
 10
0.4055823912
 20
0.0845261676
 30
0.0
 11
0.412144071
 21
0.0845261676
 31
0.0
  0
LINE
  5
9E
330
1F
100
AcDbEntity
  8
0
  6
Continuous
 62
     7
370
    25
100
AcDbLine
 10
0.4055823912
 20
0.0845261676
 30
0.0
 11
0.4036138873
 21
0.0956901082
 31
0.0
  0
LINE
  5
9F
330
1F
100
AcDbEntity
  8
0
  6
Continuous
 62
     7
370
    25
100
AcDbLine
 10
0.4036138873
 20
0.0963371912
 30
0.0
 11
0.4036138873
 21
0.0956901082
 31
0.0
  0
LINE
  5
A0
330
1F
100
AcDbEntity
  8
0
  6
Continuous
 62
     7
370
    25
100
AcDbLine
 10
0.4141125749
 20
0.0963371912
 30
0.0
 11
0.4141125749
 21
0.0956901082
 31
0.0
  0
LINE
  5
A1
330
1F
100
AcDbEntity
  8
0
  6
Continuous
 62
     7
370
    25
100
AcDbLine
 10
0.4036138873
 20
0.0963371912
 30
0.0
 11
0.4036138873
 21
0.1840752575
 31
0.0
  0
LINE
  5
A2
330
1F
100
AcDbEntity
  8
0
  6
Continuous
 62
     7
370
    25
100
AcDbLine
 10
0.4141125749
 20
0.1840752575
 30
0.0
 11
0.4141125749
 21
0.0963371912
 31
0.0
  0
LINE
  5
A3
330
1F
100
AcDbEntity
  8
0
  6
Continuous
 62
     7
370
    25
100
AcDbLine
 10
0.4036138873
 20
0.1840752575
 30
0.0
 11
0.4036138873
 21
0.1868883723
 31
0.0
  0
LINE
  5
A4
330
1F
100
AcDbEntity
  8
0
  6
Continuous
 62
     7
370
    25
100
AcDbLine
 10
0.4141125749
 20
0.1868883723
 30
0.0
 11
0.4141125749
 21
0.1840752575
 31
0.0
  0
LINE
  5
A5
330
1F
100
AcDbEntity
  8
0
  6
Continuous
 62
     7
370
    25
100
AcDbLine
 10
0.4036138873
 20
0.1868883723
 30
0.0
 11
0.4036138873
 21
0.2000117319
 31
0.0
  0
LINE
  5
A6
330
1F
100
AcDbEntity
  8
0
  6
Continuous
 62
     7
370
    25
100
AcDbLine
 10
0.4141125749
 20
0.2000117319
 30
0.0
 11
0.4141125749
 21
0.1868883723
 31
0.0
  0
LINE
  5
A7
330
1F
100
AcDbEntity
  8
0
  6
Continuous
 62
     7
370
    25
100
AcDbLine
 10
0.1267110001
 20
0.2000117319
 30
0.0
 11
0.1267110001
 21
0.2118227555
 31
0.0
  0
LINE
  5
A8
330
1F
100
AcDbEntity
  8
0
  6
Continuous
 62
     7
370
    25
100
AcDbLine
 10
0.1162123125
 20
0.2000117319
 30
0.0
 11
0.1162123125
 21
0.2118227555
 31
0.0
  0
LINE
  5
A9
330
1F
100
AcDbEntity
  8
0
  6
Continuous
 62
     7
370
    25
100
AcDbLine
 10
0.1267110001
 20
0.1840752575
 30
0.0
 11
0.1267110001
 21
0.0963371912
 31
0.0
  0
LINE
  5
AA
330
1F
100
AcDbEntity
  8
0
  6
Continuous
 62
     7
370
    25
100
AcDbLine
 10
0.1162123125
 20
0.0963371912
 30
0.0
 11
0.1162123125
 21
0.1840752575
 31
0.0
  0
LINE
  5
AB
330
1F
100
AcDbEntity
  8
0
  6
Continuous
 62
     7
370
    25
100
AcDbLine
 10
0.1267110001
 20
0.1868883723
 30
0.0
 11
0.1267110001
 21
0.1840752575
 31
0.0
  0
LINE
  5
AC
330
1F
100
AcDbEntity
  8
0
  6
Continuous
 62
     7
370
    25
100
AcDbLine
 10
0.1162123125
 20
0.1840752575
 30
0.0
 11
0.1162123125
 21
0.1868883723
 31
0.0
  0
LINE
  5
AD
330
1F
100
AcDbEntity
  8
0
  6
Continuous
 62
     7
370
    25
100
AcDbLine
 10
0.1267110001
 20
0.0956901082
 30
0.0
 11
0.1247424962
 21
0.0845261676
 31
0.0
  0
LINE
  5
AE
330
1F
100
AcDbEntity
  8
0
  6
Continuous
 62
     7
370
    25
100
AcDbLine
 10
0.1247424962
 20
0.0845261676
 30
0.0
 11
0.1181808164
 21
0.0845261676
 31
0.0
  0
LINE
  5
AF
330
1F
100
AcDbEntity
  8
0
  6
Continuous
 62
     7
370
    25
100
AcDbLine
 10
0.1162123125
 20
0.0956901082
 30
0.0
 11
0.1181808164
 21
0.0845261676
 31
0.0
  0
LINE
  5
B0
330
1F
100
AcDbEntity
  8
0
  6
Continuous
 62
     7
370
    25
100
AcDbLine
 10
0.1267110001
 20
0.0956901082
 30
0.0
 11
0.1267110001
 21
0.0963371912
 31
0.0
  0
LINE
  5
B1
330
1F
100
AcDbEntity
  8
0
  6
Continuous
 62
     7
370
    25
100
AcDbLine
 10
0.1162123125
 20
0.0956901082
 30
0.0
 11
0.1162123125
 21
0.0963371912
 31
0.0
  0
LINE
  5
B2
330
1F
100
AcDbEntity
  8
0
  6
Continuous
 62
     7
370
    25
100
AcDbLine
 10
0.1267110001
 20
0.2000117319
 30
0.0
 11
0.1267110001
 21
0.1868883723
 31
0.0
  0
LINE
  5
B3
330
1F
100
AcDbEntity
  8
0
  6
Continuous
 62
     7
370
    25
100
AcDbLine
 10
0.1162123125
 20
0.1868883723
 30
0.0
 11
0.1162123125
 21
0.2000117319
 31
0.0
  0
LINE
  5
B4
330
1F
100
AcDbEntity
  8
0
  6
Continuous
 62
     7
370
    25
100
AcDbLine
 10
0.3124065382
 20
0.4047361414
 30
0.0
 11
0.2166060133
 21
0.4047361414
 31
0.0
  0
LINE
  5
B5
330
1F
100
AcDbEntity
  8
0
  6
Continuous
 62
     7
370
    25
100
AcDbLine
 10
0.3255298978
 20
0.4047361414
 30
0.0
 11
0.3124065382
 21
0.4047361414
 31
0.0
  0
LINE
  5
B6
330
1F
100
AcDbEntity
  8
0
  6
Continuous
 62
     7
370
    25
100
AcDbLine
 10
0.2166060133
 20
0.4047361414
 30
0.0
 11
0.2034826537
 21
0.4047361414
 31
0.0
  0
LINE
  5
B7
330
1F
100
AcDbEntity
  8
0
  6
Continuous
 62
     7
370
    25
100
AcDbLine
 10
0.3386532573
 20
0.4047361414
 30
0.0
 11
0.3563697928
 21
0.4047361414
 31
0.0
  0
LINE
  5
B8
330
1F
100
AcDbEntity
  8
0
  6
Continuous
 62
     7
370
    25
100
AcDbLine
 10
0.1726427587
 20
0.4047361414
 30
0.0
 11
0.1903592941
 21
0.4047361414
 31
0.0
  0
LINE
  5
B9
330
1F
100
AcDbEntity
  8
0
  6
Continuous
 62
     7
370
    25
100
AcDbLine
 10
0.2034826537
 20
0.4047361414
 30
0.0
 11
0.1903592941
 21
0.4047361414
 31
0.0
  0
LINE
  5
BA
330
1F
100
AcDbEntity
  8
0
  6
Continuous
 62
     7
370
    25
100
AcDbLine
 10
0.3386532573
 20
0.4047361414
 30
0.0
 11
0.3255298978
 21
0.4047361414
 31
0.0
  0
LINE
  5
BB
330
1F
100
AcDbEntity
  8
0
  6
Continuous
 62
     7
370
    25
100
AcDbLine
 10
0.3603068007
 20
0.4047361414
 30
0.0
 11
0.3563697928
 21
0.4047361414
 31
0.0
  0
LINE
  5
BC
330
1F
100
AcDbEntity
  8
0
  6
Continuous
 62
     7
370
    25
100
AcDbLine
 10
0.1726427587
 20
0.4047361414
 30
0.0
 11
0.1700180867
 21
0.4047361414
 31
0.0
  0
LINE
  5
BD
330
1F
100
AcDbEntity
  8
0
  6
Continuous
 62
     7
370
    25
100
AcDbLine
 10
0.3416810544
 20
0.4752742287
 30
0.0
 11
0.3421450654
 21
0.4755365342
 31
0.0
  0
SPLINE
  5
BE
330
1F
100
AcDbEntity
  8
0
  6
Continuous
 62
     7
370
    25
100
AcDbSpline
210
0.0
220
0.0
230
1.0
 70
     8
 71
     3
 72
    10
 73
     6
 74
     0
 42
0.00000001
 43
0.00000001
 40
0.0
 40
0.0
 40
0.0
 40
0.0
 40
0.24999834777446
 40
0.4999982245939929
 40
1.0
 40
1.0
 40
1.0
 40
1.0
 10
0.3421450611209164
 20
0.484854385646228
 30
0.0
 10
0.341423575378311
 20
0.4844413262603244
 30
0.0
 10
0.3399805994803343
 20
0.4836152049621545
 30
0.0
 10
0.3370942327137983
 20
0.4819636634895803
 30
0.0
 10
0.3349288665399476
 20
0.4807260299474025
 30
0.0
 10
0.333485287145
 20
0.4799009398071948
 30
0.0
  0
SPLINE
  5
BF
330
1F
100
AcDbEntity
  8
0
  6
Continuous
 62
     7
370
    25
100
AcDbSpline
210
0.0
220
0.0
230
1.0
 70
     8
 71
     3
 72
     9
 73
     5
 74
     0
 42
0.00000001
 43
0.00000001
 40
0.0
 40
0.0
 40
0.0
 40
0.0
 40
0.5316199577280045
 40
1.0
 40
1.0
 40
1.0
 40
1.0
 10
0.3421450654182653
 20
0.4755365342070544
 30
0.0
 10
0.3407020669235921
 20
0.4763626180593996
 30
0.0
 10
0.3379877247065691
 20
0.477916517307042
 30
0.0
 10
0.335272302271084
 20
0.4794685280802121
 30
0.0
 10
0.3340004525959652
 20
0.4801954589517562
 30
0.0
  0
SPLINE
  5
C0
330
1F
100
AcDbEntity
  8
0
  6
Continuous
 62
     7
370
    25
100
AcDbSpline
210
0.0
220
0.0
230
1.0
 70
     8
 71
     3
 72
     9
 73
     5
 74
     0
 42
0.00000001
 43
0.00000001
 40
0.0
 40
0.0
 40
0.0
 40
0.0
 40
0.5000006778883936
 40
0.9999999999999999
 40
0.9999999999999999
 40
0.9999999999999999
 40
0.9999999999999999
 10
0.3334852021730056
 20
0.4897434521540389
 30
0.0
 10
0.3349291937467275
 20
0.4889298107272637
 30
0.0
 10
0.3378171729787162
 20
0.487302530079943
 30
0.0
 10
0.3407024330441058
 20
0.4856704330532133
 30
0.0
 10
0.3421450611209164
 20
0.484854385646228
 30
0.0
  0
SPLINE
  5
C1
330
1F
100
AcDbEntity
  8
0
  6
Continuous
 62
     7
370
    25
100
AcDbSpline
210
0.0
220
0.0
230
1.0
 70
     8
 71
     3
 72
     9
 73
     5
 74
     0
 42
0.00000001
 43
0.00000001
 40
0.0
 40
0.0
 40
0.0
 40
0.0
 40
0.4999987844371164
 40
0.9999999999999999
 40
0.9999999999999999
 40
0.9999999999999999
 40
0.9999999999999999
 10
0.3421450474835409
 20
0.4553268309758303
 30
0.0
 10
0.3407020401605094
 20
0.4545007572778166
 30
0.0
 10
0.3378160184981649
 20
0.4528486058652013
 30
0.0
 10
0.3349288475382367
 20
0.4511984636974233
 30
0.0
 10
0.3334852585487346
 20
0.4503733906076829
 30
0.0
  0
SPLINE
  5
C2
330
1F
100
AcDbEntity
  8
0
  6
Continuous
 62
     7
370
    25
100
AcDbSpline
210
0.0
220
0.0
230
1.0
 70
     8
 71
     3
 72
     9
 73
     5
 74
     0
 42
0.00000001
 43
0.00000001
 40
0.0
 40
0.0
 40
0.0
 40
0.0
 40
0.5316183431005908
 40
0.9999999999999999
 40
0.9999999999999999
 40
0.9999999999999999
 40
0.9999999999999999
 10
0.3421450560644172
 20
0.4460089777702692
 30
0.0
 10
0.3407020596986312
 20
0.4468350610587974
 30
0.0
 10
0.337987713242168
 20
0.4483889639653645
 30
0.0
 10
0.3352722861698249
 20
0.4499409777036111
 30
0.0
 10
0.3340004299384913
 20
0.4506679124698618
 30
0.0
  0
SPLINE
  5
C3
330
1F
100
AcDbEntity
  8
0
  6
Continuous
 62
     7
370
    25
100
AcDbSpline
210
0.0
220
0.0
230
1.0
 70
     8
 71
     3
 72
     9
 73
     5
 74
     0
 42
0.00000001
 43
0.00000001
 40
0.0
 40
0.0
 40
0.0
 40
0.0
 40
0.5000015723162332
 40
1.0
 40
1.0
 40
1.0
 40
1.0
 10
0.3334852012937615
 20
0.4602159259784352
 30
0.0
 10
0.3349291903799589
 20
0.4594022731232006
 30
0.0
 10
0.3378171594707524
 20
0.4577749725299939
 30
0.0
 10
0.3407024211703072
 20
0.4561428764497707
 30
0.0
 10
0.3421450474835409
 20
0.4553268309758303
 30
0.0
  0
LINE
  5
C4
330
1F
100
AcDbEntity
  8
0
  6
Continuous
 62
     7
370
    25
100
AcDbLine
 10
0.3416810319
 20
0.445746664
 30
0.0
 11
0.3421450561
 21
0.4460089778
 31
0.0
  0
LINE
  5
C5
330
1F
100
AcDbEntity
  8
0
  6
Continuous
 62
     7
370
    25
100
AcDbLine
 10
0.3416810259
 20
0.4654316809
 30
0.0
 11
0.3421450159
 21
0.4656939776
 31
0.0
  0
SPLINE
  5
C6
330
1F
100
AcDbEntity
  8
0
  6
Continuous
 62
     7
370
    25
100
AcDbSpline
210
0.0
220
0.0
230
1.0
 70
     8
 71
     3
 72
    10
 73
     6
 74
     0
 42
0.00000001
 43
0.00000001
 40
0.0
 40
0.0
 40
0.0
 40
0.0
 40
0.250000159344591
 40
0.4999995693607729
 40
1.0
 40
1.0
 40
1.0
 40
1.0
 10
0.3421450775284348
 20
0.4750119150967348
 30
0.0
 10
0.3414235812797771
 20
0.4745988530462118
 30
0.0
 10
0.339980590945011
 20
0.4737727301832414
 30
0.0
 10
0.337094218418784
 20
0.4721211631994257
 30
0.0
 10
0.3349288471450594
 20
0.4708835240111811
 30
0.0
 10
0.3334852647458819
 20
0.4700584303330843
 30
0.0
  0
LINE
  5
C7
330
1F
100
AcDbEntity
  8
0
  6
Continuous
 62
     7
370
    25
100
AcDbLine
 10
0.341681052
 20
0.4555891281
 30
0.0
 11
0.3421450676
 21
0.4558514379
 31
0.0
  0
SPLINE
  5
C8
330
1F
100
AcDbEntity
  8
0
  6
Continuous
 62
     7
370
    25
100
AcDbSpline
210
0.0
220
0.0
230
1.0
 70
     8
 71
     3
 72
    10
 73
     6
 74
     0
 42
0.00000001
 43
0.00000001
 40
0.0
 40
0.0
 40
0.0
 40
0.0
 40
0.249999390424202
 40
0.4999984729742311
 40
1.0
 40
1.0
 40
1.0
 40
1.0
 10
0.3421450189603003
 20
0.4651693823597037
 30
0.0
 10
0.341423525622432
 20
0.4647563220233514
 30
0.0
 10
0.3399805398352144
 20
0.4639302018593303
 30
0.0
 10
0.3370941655564882
 20
0.462278644547536
 30
0.0
 10
0.33492878894014
 20
0.4610410145156267
 30
0.0
 10
0.3334852012937615
 20
0.4602159259784352
 30
0.0
  0
SPLINE
  5
C9
330
1F
100
AcDbEntity
  8
0
  6
Continuous
 62
     7
370
    25
100
AcDbSpline
210
0.0
220
0.0
230
1.0
 70
     8
 71
     3
 72
     9
 73
     5
 74
     0
 42
0.00000001
 43
0.00000001
 40
0.0
 40
0.0
 40
0.0
 40
0.0
 40
0.5316207222812587
 40
1.0
 40
1.0
 40
1.0
 40
1.0
 10
0.3421450159207993
 20
0.4656939776440897
 30
0.0
 10
0.3407020116769369
 20
0.4665200642073676
 30
0.0
 10
0.3379876625491035
 20
0.4680739663196352
 30
0.0
 10
0.3352722404510338
 20
0.4696259926380703
 30
0.0
 10
0.3340003930100384
 20
0.4703529296040995
 30
0.0
  0
SPLINE
  5
CA
330
1F
100
AcDbEntity
  8
0
  6
Continuous
 62
     7
370
    25
100
AcDbSpline
210
0.0
220
0.0
230
1.0
 70
     8
 71
     3
 72
     9
 73
     5
 74
     0
 42
0.00000001
 43
0.00000001
 40
0.0
 40
0.0
 40
0.0
 40
0.0
 40
0.5000015535957512
 40
1.0
 40
1.0
 40
1.0
 40
1.0
 10
0.333485287145
 20
0.4799009398071948
 30
0.0
 10
0.3349292727308872
 20
0.479087309077841
 30
0.0
 10
0.3378172349292101
 20
0.4774600526753305
 30
0.0
 10
0.3407024663170153
 20
0.4758279592658578
 30
0.0
 10
0.3421450775284348
 20
0.4750119150967348
 30
0.0
  0
SPLINE
  5
CB
330
1F
100
AcDbEntity
  8
0
  6
Continuous
 62
     7
370
    25
100
AcDbSpline
210
0.0
220
0.0
230
1.0
 70
     8
 71
     3
 72
     9
 73
     5
 74
     0
 42
0.00000001
 43
0.00000001
 40
0.0
 40
0.0
 40
0.0
 40
0.0
 40
0.5316164667199461
 40
1.0
 40
1.0
 40
1.0
 40
1.0
 10
0.3421450676459988
 20
0.4558514379348751
 30
0.0
 10
0.3407020632536127
 20
0.4566775332312011
 30
0.0
 10
0.3379876921181785
 20
0.4582314642097186
 30
0.0
 10
0.335272233068395
 20
0.4597834932669965
 30
0.0
 10
0.3340003567641801
 20
0.4605104381205977
 30
0.0
  0
SPLINE
  5
CC
330
1F
100
AcDbEntity
  8
0
  6
Continuous
 62
     7
370
    25
100
AcDbSpline
210
0.0
220
0.0
230
1.0
 70
     8
 71
     3
 72
     9
 73
     5
 74
     0
 42
0.00000001
 43
0.00000001
 40
0.0
 40
0.0
 40
0.0
 40
0.0
 40
0.5000004819286771
 40
1.0
 40
1.0
 40
1.0
 40
1.0
 10
0.3334852647458819
 20
0.4700584303330843
 30
0.0
 10
0.334929240394625
 20
0.4692447960177852
 30
0.0
 10
0.3378171889085406
 20
0.4676175289556403
 30
0.0
 10
0.3407024098700275
 20
0.465985430700646
 30
0.0
 10
0.3421450189603002
 20
0.4651693823597037
 30
0.0
  0
LINE
  5
CD
330
1F
100
AcDbEntity
  8
0
  6
Continuous
 62
     7
370
    25
100
AcDbLine
 10
0.3421450757
 20
0.4263239146
 30
0.0
 11
0.3416812135
 21
0.4260615354
 31
0.0
  0
SPLINE
  5
CE
330
1F
100
AcDbEntity
  8
0
  6
Continuous
 62
     7
370
    25
100
AcDbSpline
210
0.0
220
0.0
230
1.0
 70
     8
 71
     3
 72
    10
 73
     6
 74
     0
 42
0.00000001
 43
0.00000001
 40
0.0
 40
0.0
 40
0.0
 40
0.0
 40
0.5000014432107764
 40
0.7500018802043762
 40
1.0
 40
1.0
 40
1.0
 40
1.0
 10
0.333485277613286
 20
0.4306883496229686
 30
0.0
 10
0.3349288588448364
 20
0.4315134327366076
 30
0.0
 10
0.3370942298704437
 20
0.4327510569374106
 30
0.0
 10
0.3399805936985625
 20
0.4344026003735668
 30
0.0
 10
0.3414235682292311
 20
0.4352287246968302
 30
0.0
 10
0.3421450521508981
 20
0.4356417849441627
 30
0.0
  0
SPLINE
  5
CF
330
1F
100
AcDbEntity
  8
0
  6
Continuous
 62
     7
370
    25
100
AcDbSpline
210
0.0
220
0.0
230
1.0
 70
     8
 71
     3
 72
     9
 73
     5
 74
     0
 42
0.00000001
 43
0.00000001
 40
0.0
 40
0.0
 40
0.0
 40
0.0
 40
0.5316195043605522
 40
1.0
 40
1.0
 40
1.0
 40
1.0
 10
0.3421450757245768
 20
0.4263239146224524
 30
0.0
 10
0.3407020694426143
 20
0.4271500020042663
 30
0.0
 10
0.3379877102625496
 20
0.4287039092161691
 30
0.0
 10
0.3352722625749536
 20
0.4302559134481968
 30
0.0
 10
0.3340003998411543
 20
0.4309828419596283
 30
0.0
  0
SPLINE
  5
D0
330
1F
100
AcDbEntity
  8
0
  6
Continuous
 62
     7
370
    25
100
AcDbSpline
210
0.0
220
0.0
230
1.0
 70
     8
 71
     3
 72
     9
 73
     5
 74
     0
 42
0.00000001
 43
0.00000001
 40
0.0
 40
0.0
 40
0.0
 40
0.0
 40
0.5000009858672191
 40
1.0
 40
1.0
 40
1.0
 40
1.0
 10
0.3334852341193185
 20
0.4405308864314471
 30
0.0
 10
0.3349292188683123
 20
0.4397172370744219
 30
0.0
 10
0.3378171826720021
 20
0.4380899415689658
 30
0.0
 10
0.3407024308875806
 20
0.4364578360797376
 30
0.0
 10
0.3421450521508981
 20
0.4356417849441627
 30
0.0
  0
SPLINE
  5
D1
330
1F
100
AcDbEntity
  8
0
  6
Continuous
 62
     7
370
    25
100
AcDbSpline
210
0.0
220
0.0
230
1.0
 70
     8
 71
     3
 72
     9
 73
     5
 74
     0
 42
0.00000001
 43
0.00000001
 40
0.0
 40
0.0
 40
0.0
 40
0.0
 40
0.5000008990864111
 40
1.0
 40
1.0
 40
1.0
 40
1.0
 10
0.3334852585487346
 20
0.4503733906076829
 30
0.0
 10
0.3349292383995718
 20
0.4495597539947636
 30
0.0
 10
0.3378171929082049
 20
0.4479324836950383
 30
0.0
 10
0.3407024290428337
 20
0.4463003984277448
 30
0.0
 10
0.3421450445160715
 20
0.4454843572614837
 30
0.0
  0
LINE
  5
D2
330
1F
100
AcDbEntity
  8
0
  6
Continuous
 62
     7
370
    25
100
AcDbLine
 10
0.3416810417
 20
0.4359040928
 30
0.0
 11
0.342145046
 21
0.4361663942
 31
0.0
  0
SPLINE
  5
D3
330
1F
100
AcDbEntity
  8
0
  6
Continuous
 62
     7
370
    25
100
AcDbSpline
210
0.0
220
0.0
230
1.0
 70
     8
 71
     3
 72
    10
 73
     6
 74
     0
 42
0.00000001
 43
0.00000001
 40
0.0
 40
0.0
 40
0.0
 40
0.0
 40
0.249999906868704
 40
0.49999902817194
 40
1.0
 40
1.0
 40
1.0
 40
1.0
 10
0.3421450445160715
 20
0.4454843572614838
 30
0.0
 10
0.3414235488737349
 20
0.4450712973496342
 30
0.0
 10
0.339980559856191
 20
0.444245178823878
 30
0.0
 10
0.3370941897648408
 20
0.4425936136183139
 30
0.0
 10
0.3349288179534685
 20
0.4413559782069355
 30
0.0
 10
0.3334852341193185
 20
0.4405308864314471
 30
0.0
  0
SPLINE
  5
D4
330
1F
100
AcDbEntity
  8
0
  6
Continuous
 62
     7
370
    25
100
AcDbSpline
210
0.0
220
0.0
230
1.0
 70
     8
 71
     3
 72
     9
 73
     5
 74
     0
 42
0.00000001
 43
0.00000001
 40
0.0
 40
0.0
 40
0.0
 40
0.0
 40
0.5316185843655177
 40
1.0
 40
1.0
 40
1.0
 40
1.0
 10
0.3421450460414002
 20
0.4361663942050714
 30
0.0
 10
0.3407020382409024
 20
0.4369924858977461
 30
0.0
 10
0.3379876715070531
 20
0.4385464039077055
 30
0.0
 10
0.3352722292584268
 20
0.4400984416788125
 30
0.0
 10
0.3340003665739415
 20
0.4408253873271618
 30
0.0
  0
SPLINE
  5
D5
330
1F
100
AcDbEntity
  8
0
  6
Continuous
 62
     7
370
    25
100
AcDbSpline
210
0.0
220
0.0
230
1.0
 70
     8
 71
     3
 72
     9
 73
     5
 74
     0
 42
0.00000001
 43
0.00000001
 40
0.0
 40
0.0
 40
0.0
 40
0.0
 40
0.5316167711514381
 40
1.0
 40
1.0
 40
1.0
 40
1.0
 10
0.3421450948927474
 20
0.4164813724833851
 30
0.0
 10
0.340702083366927
 20
0.4173074627206401
 30
0.0
 10
0.3379877003675065
 20
0.4188613832929083
 30
0.0
 10
0.3352722379751585
 20
0.4204134168326851
 30
0.0
 10
0.3340003609320137
 20
0.4211403633133269
 30
0.0
  0
SPLINE
  5
D6
330
1F
100
AcDbEntity
  8
0
  6
Continuous
 62
     7
370
    25
100
AcDbSpline
210
0.0
220
0.0
230
1.0
 70
     8
 71
     3
 72
     9
 73
     5
 74
     0
 42
0.00000001
 43
0.00000001
 40
0.0
 40
0.0
 40
0.0
 40
0.0
 40
0.5000010468405841
 40
1.0
 40
1.0
 40
1.0
 40
1.0
 10
0.333485277613286
 20
0.4306883496229686
 30
0.0
 10
0.3349292605924255
 20
0.4298747201743919
 30
0.0
 10
0.3378172205042372
 20
0.4282474646841927
 30
0.0
 10
0.3407024474928808
 20
0.426615368453395
 30
0.0
 10
0.34214505796683
 20
0.4257993220465408
 30
0.0
  0
SPLINE
  5
D7
330
1F
100
AcDbEntity
  8
0
  6
Continuous
 62
     7
370
    25
100
AcDbSpline
210
0.0
220
0.0
230
1.0
 70
     8
 71
     3
 72
     9
 73
     5
 74
     0
 42
0.00000001
 43
0.00000001
 40
0.0
 40
0.0
 40
0.0
 40
0.0
 40
0.5000012142936846
 40
0.9999999999999999
 40
0.9999999999999999
 40
0.9999999999999999
 40
0.9999999999999999
 10
0.3334851951668456
 20
0.4208458458572887
 30
0.0
 10
0.3349287979298046
 20
0.4216709223511638
 30
0.0
 10
0.3378159964439087
 20
0.4233210713313831
 30
0.0
 10
0.3407020397955257
 20
0.4249732398123001
 30
0.0
 10
0.34214505796683
 20
0.4257993220465408
 30
0.0
  0
SPLINE
  5
D8
330
1F
100
AcDbEntity
  8
0
  6
Continuous
 62
     7
370
    25
100
AcDbSpline
210
0.0
220
0.0
230
1.0
 70
     8
 71
     3
 72
     9
 73
     5
 74
     0
 42
0.00000001
 43
0.00000001
 40
0.0
 40
0.0
 40
0.0
 40
0.0
 40
0.5316186831096259
 40
1.0
 40
1.0
 40
1.0
 40
1.0
 10
0.3421450775284332
 20
0.4853790028067659
 30
0.0
 10
0.340702069562581
 20
0.4862050950463138
 30
0.0
 10
0.3379877030218654
 20
0.4877590137963393
 30
0.0
 10
0.3352722571319167
 20
0.4893110455995534
 30
0.0
 10
0.334000393010038
 20
0.4900379882993985
 30
0.0
  0
SPLINE
  5
D9
330
1F
100
AcDbEntity
  8
0
  6
Continuous
 62
     7
370
    25
100
AcDbSpline
210
0.0
220
0.0
230
1.0
 70
     8
 71
     3
 72
     9
 73
     5
 74
     0
 42
0.00000001
 43
0.00000001
 40
0.0
 40
0.0
 40
0.0
 40
0.0
 40
0.5000001305680096
 40
0.9999999999999999
 40
0.9999999999999999
 40
0.9999999999999999
 40
0.9999999999999999
 10
0.3334852745506083
 20
0.4995859963676746
 30
0.0
 10
0.3349292450905624
 20
0.4987723578046011
 30
0.0
 10
0.3378171854163256
 20
0.4971450811033947
 30
0.0
 10
0.3407024060037966
 20
0.4955129870653362
 30
0.0
 10
0.3421450159208146
 20
0.4946969402594061
 30
0.0
  0
LINE
  5
DA
330
1F
100
AcDbEntity
  8
0
  6
Continuous
 62
     7
370
    25
100
AcDbLine
 10
0.341681054
 20
0.4851166889
 30
0.0
 11
0.3421450775
 21
0.4853790028
 31
0.0
  0
SPLINE
  5
DB
330
1F
100
AcDbEntity
  8
0
  6
Continuous
 62
     7
370
    25
100
AcDbSpline
210
0.0
220
0.0
230
1.0
 70
     8
 71
     3
 72
     9
 73
     5
 74
     0
 42
0.00000001
 43
0.00000001
 40
0.0
 40
0.0
 40
0.0
 40
0.0
 40
0.4999976347165114
 40
1.0
 40
1.0
 40
1.0
 40
1.0
 10
0.3421450159208146
 20
0.4946969402594061
 30
0.0
 10
0.3407020056642063
 20
0.4938708642077584
 30
0.0
 10
0.3378159714984118
 20
0.4922187042888096
 30
0.0
 10
0.3349287965007992
 20
0.4905685388010353
 30
0.0
 10
0.3334852021730056
 20
0.4897434521540389
 30
0.0
  0
SPLINE
  5
DC
330
1F
100
AcDbEntity
  8
0
  6
Continuous
 62
     7
370
    25
100
AcDbSpline
210
0.0
220
0.0
230
1.0
 70
     8
 71
     3
 72
     9
 73
     5
 74
     0
 42
0.00000001
 43
0.00000001
 40
0.0
 40
0.0
 40
0.0
 40
0.0
 40
0.5316198455988419
 40
1.0
 40
1.0
 40
1.0
 40
1.0
 10
0.3421450189603071
 20
0.495221535543792
 30
0.0
 10
0.3407020148772148
 20
0.496047623923706
 30
0.0
 10
0.337987661575624
 20
0.4976015320156498
 30
0.0
 10
0.335272223285815
 20
0.4991535432906231
 30
0.0
 10
0.3340003658803674
 20
0.4998804745712275
 30
0.0
  0
SPLINE
  5
DD
330
1F
100
AcDbEntity
  8
0
  6
Continuous
 62
     7
370
    25
100
AcDbSpline
210
0.0
220
0.0
230
1.0
 70
     8
 71
     3
 72
     9
 73
     5
 74
     0
 42
0.00000001
 43
0.00000001
 40
0.0
 40
0.0
 40
0.0
 40
0.0
 40
0.5000018424653933
 40
1.0
 40
1.0
 40
1.0
 40
1.0
 10
0.333485291463574
 20
0.5094285014758564
 30
0.0
 10
0.3349292757898426
 20
0.5086148712926427
 30
0.0
 10
0.3378172338004544
 20
0.506987616922535
 30
0.0
 10
0.3407024599081029
 20
0.5053555236152159
 30
0.0
 10
0.3421450676459978
 20
0.5045394799686318
 30
0.0
  0
LINE
  5
DE
330
1F
100
AcDbEntity
  8
0
  6
Continuous
 62
     7
370
    25
100
AcDbLine
 10
0.3416810259
 20
0.494959237
 30
0.0
 11
0.342145019
 21
0.4952215355
 31
0.0
  0
SPLINE
  5
DF
330
1F
100
AcDbEntity
  8
0
  6
Continuous
 62
     7
370
    25
100
AcDbSpline
210
0.0
220
0.0
230
1.0
 70
     8
 71
     3
 72
     9
 73
     5
 74
     0
 42
0.00000001
 43
0.00000001
 40
0.0
 40
0.0
 40
0.0
 40
0.0
 40
0.4999999879896658
 40
0.9999999999999999
 40
0.9999999999999999
 40
0.9999999999999999
 40
0.9999999999999999
 10
0.3421450676459978
 20
0.5045394799686318
 30
0.0
 10
0.3407020567336583
 20
0.5037133960710658
 30
0.0
 10
0.3378160348396549
 20
0.5020612282362475
 30
0.0
 10
0.3349288613367411
 20
0.5004110736704115
 30
0.0
 10
0.3334852745506083
 20
0.4995859963676746
 30
0.0
  0
LINE
  5
E0
330
1F
100
AcDbEntity
  8
0
  6
Continuous
 62
     7
370
    25
100
AcDbLine
 10
0.341681052
 20
0.5048017898
 30
0.0
 11
0.3421450475
 21
0.5050640869
 31
0.0
  0
SPLINE
  5
E1
330
1F
100
AcDbEntity
  8
0
  6
Continuous
 62
     7
370
    25
100
AcDbSpline
210
0.0
220
0.0
230
1.0
 70
     8
 71
     3
 72
     9
 73
     5
 74
     0
 42
0.00000001
 43
0.00000001
 40
0.0
 40
0.0
 40
0.0
 40
0.0
 40
0.4999986157323884
 40
1.0
 40
1.0
 40
1.0
 40
1.0
 10
0.3421450779146167
 20
0.5143819529880248
 30
0.0
 10
0.3407020714289756
 20
0.5135558778236128
 30
0.0
 10
0.3378160504676425
 20
0.5119037229207399
 30
0.0
 10
0.3349288804626742
 20
0.5102535768136469
 30
0.0
 10
0.333485291463574
 20
0.5094285014758564
 30
0.0
  0
SPLINE
  5
E2
330
1F
100
AcDbEntity
  8
0
  6
Continuous
 62
     7
370
    25
100
AcDbSpline
210
0.0
220
0.0
230
1.0
 70
     8
 71
     3
 72
     9
 73
     5
 74
     0
 42
0.00000001
 43
0.00000001
 40
0.0
 40
0.0
 40
0.0
 40
0.0
 40
0.5316197027216211
 40
1.0
 40
1.0
 40
1.0
 40
1.0
 10
0.3421450761579762
 20
0.514906574324633
 30
0.0
 10
0.3407020704868701
 20
0.5157326648647103
 30
0.0
 10
0.3379877134686509
 20
0.5172865774376415
 30
0.0
 10
0.3352722764739356
 20
0.5188386019653703
 30
0.0
 10
0.3340004192871101
 20
0.5195655396750513
 30
0.0
  0
SPLINE
  5
E3
330
1F
100
AcDbEntity
  8
0
  6
Continuous
 62
     7
370
    25
100
AcDbSpline
210
0.0
220
0.0
230
1.0
 70
     8
 71
     3
 72
     9
 73
     5
 74
     0
 42
0.00000001
 43
0.00000001
 40
0.0
 40
0.0
 40
0.0
 40
0.0
 40
0.5000004725650712
 40
1.0
 40
1.0
 40
1.0
 40
1.0
 10
0.3334852655091274
 20
0.5291135546919846
 30
0.0
 10
0.3349292445443713
 20
0.5282999139517249
 30
0.0
 10
0.3378171998853655
 20
0.5266726340091971
 30
0.0
 10
0.3407024404819236
 20
0.5250405455425724
 30
0.0
 10
0.3421450594167387
 20
0.5242245020805283
 30
0.0
  0
LINE
  5
E4
330
1F
100
AcDbEntity
  8
0
  6
Continuous
 62
     7
370
    25
100
AcDbLine
 10
0.3416810653
 20
0.5244867987
 30
0.0
 11
0.3421450858
 21
0.5247491118
 31
0.0
  0
SPLINE
  5
E5
330
1F
100
AcDbEntity
  8
0
  6
Continuous
 62
     7
370
    25
100
AcDbSpline
210
0.0
220
0.0
230
1.0
 70
     8
 71
     3
 72
     9
 73
     5
 74
     0
 42
0.00000001
 43
0.00000001
 40
0.0
 40
0.0
 40
0.0
 40
0.0
 40
0.4999996645161175
 40
1.0
 40
1.0
 40
1.0
 40
1.0
 10
0.3412607888141344
 20
0.5335607215578391
 30
0.0
 10
0.3399651033182083
 20
0.5328191181226876
 30
0.0
 10
0.3373737305876287
 20
0.5313359102572
 30
0.0
 10
0.3347814211150799
 20
0.5298543402117516
 30
0.0
 10
0.3334852655091274
 20
0.5291135546919846
 30
0.0
  0
SPLINE
  5
E6
330
1F
100
AcDbEntity
  8
0
  6
Continuous
 62
     7
370
    25
100
AcDbSpline
210
0.0
220
0.0
230
1.0
 70
     8
 71
     3
 72
     9
 73
     5
 74
     0
 42
0.00000001
 43
0.00000001
 40
0.0
 40
0.0
 40
0.0
 40
0.0
 40
0.4999994826019985
 40
1.0
 40
1.0
 40
1.0
 40
1.0
 10
0.3334852718563949
 20
0.5192710296362518
 30
0.0
 10
0.3349292498085737
 20
0.5184573860552059
 30
0.0
 10
0.3378172087013798
 20
0.5168300972092019
 30
0.0
 10
0.3407024538483244
 20
0.5151980016247124
 30
0.0
 10
0.3421450779146167
 20
0.5143819529880248
 30
0.0
  0
SPLINE
  5
E7
330
1F
100
AcDbEntity
  8
0
  6
Continuous
 62
     7
370
    25
100
AcDbSpline
210
0.0
220
0.0
230
1.0
 70
     8
 71
     3
 72
     9
 73
     5
 74
     0
 42
0.00000001
 43
0.00000001
 40
0.0
 40
0.0
 40
0.0
 40
0.0
 40
0.4999998160836489
 40
1.0
 40
1.0
 40
1.0
 40
1.0
 10
0.3421450594167387
 20
0.5242245020805283
 30
0.0
 10
0.340702049492244
 20
0.5233984210787274
 30
0.0
 10
0.3378160285816815
 20
0.521746258467406
 30
0.0
 10
0.334928857785489
 20
0.5200961061156298
 30
0.0
 10
0.3334852718563949
 20
0.5192710296362518
 30
0.0
  0
SPLINE
  5
E8
330
1F
100
AcDbEntity
  8
0
  6
Continuous
 62
     7
370
    25
100
AcDbSpline
210
0.0
220
0.0
230
1.0
 70
     8
 71
     3
 72
     9
 73
     5
 74
     0
 42
0.00000001
 43
0.00000001
 40
0.0
 40
0.0
 40
0.0
 40
0.0
 40
0.5316196881823579
 40
0.9999999999999999
 40
0.9999999999999999
 40
0.9999999999999999
 40
0.9999999999999999
 10
0.3421450857700505
 20
0.5247491118212998
 30
0.0
 10
0.3407020799752027
 20
0.5255752012757671
 30
0.0
 10
0.3379877226499848
 20
0.5271291118491163
 30
0.0
 10
0.3352722759889965
 20
0.5286811179988405
 30
0.0
 10
0.3340004142351987
 20
0.5294080471231912
 30
0.0
  0
LINE
  5
E9
330
1F
100
AcDbEntity
  8
0
  6
Continuous
 62
     7
370
    25
100
AcDbLine
 10
0.1857661182
 20
0.4112978212
 30
0.0
 11
0.1857661403
 21
0.4211403058
 31
0.0
  0
LINE
  5
EA
330
1F
100
AcDbEntity
  8
0
  6
Continuous
 62
     7
370
    25
100
AcDbLine
 10
0.342145118
 20
0.4047361414
 30
0.0
 11
0.3421450941
 21
0.4159567431
 31
0.0
  0
LINE
  5
EB
330
1F
100
AcDbEntity
  8
0
  6
Continuous
 62
     7
370
    25
100
AcDbLine
 10
0.3421450949
 20
0.4164813725
 30
0.0
 11
0.342145118
 21
0.4159569842
 31
0.0
  0
SPLINE
  5
EC
330
1F
100
AcDbEntity
  8
0
  6
Continuous
 62
     7
370
    25
100
AcDbSpline
210
0.0
220
0.0
230
1.0
 70
     8
 71
     3
 72
     9
 73
     5
 74
     0
 42
0.00000001
 43
0.00000001
 40
0.0
 40
0.0
 40
0.0
 40
0.0
 40
0.5000001092339625
 40
1.0
 40
1.0
 40
1.0
 40
1.0
 10
0.3334851951668456
 20
0.4208458458572887
 30
0.0
 10
0.3349291874838202
 20
0.4200321917315701
 30
0.0
 10
0.3378171714868377
 20
0.4184048838356473
 30
0.0
 10
0.3407024534284329
 20
0.4167727898716498
 30
0.0
 10
0.3421450940840597
 20
0.415956743067931
 30
0.0
  0
LINE
  5
ED
330
1F
100
AcDbEntity
  8
0
  6
Continuous
 62
     7
370
    25
100
AcDbLine
 10
0.3334852873
 20
0.5389560747
 30
0.0
 11
0.3349372828
 21
0.5397858464
 31
0.0
  0
LINE
  5
EE
330
1F
100
AcDbEntity
  8
0
  6
Continuous
 62
     7
370
    25
100
AcDbLine
 10
0.1956086379
 20
0.542531417
 30
0.0
 11
0.3321425229
 21
0.542531417
 31
0.0
  0
LINE
  5
EF
330
1F
100
AcDbEntity
  8
0
  6
Continuous
 62
     7
370
    25
100
AcDbLine
 10
0.3349372828
 20
0.5397858464
 30
0.0
 11
0.3321425229
 21
0.542531417
 31
0.0
  0
LINE
  5
F0
330
1F
100
AcDbEntity
  8
0
  6
Continuous
 62
     7
370
    25
100
AcDbLine
 10
0.3375363976
 20
0.5372291532
 30
0.0
 11
0.3388621102
 21
0.5359234471
 31
0.0
  0
LINE
  5
F1
330
1F
100
AcDbEntity
  8
0
  6
Continuous
 62
     7
370
    25
100
AcDbLine
 10
0.3412607888
 20
0.5335607216
 30
0.0
 11
0.3388634348
 21
0.5359226993
 31
0.0
  0
LINE
  5
F2
330
1F
100
AcDbEntity
  8
0
  6
Continuous
 62
     7
370
    25
100
AcDbLine
 10
0.3340005128
 20
0.5392505105
 30
0.0
 11
0.3375363976
 21
0.5372291532
 31
0.0
  0
SPLINE
  5
F3
330
1F
100
AcDbEntity
  8
0
  6
Continuous
 62
     7
370
    25
100
AcDbSpline
210
0.0
220
0.0
230
1.0
 70
     8
 71
     3
 72
     9
 73
     5
 74
     0
 42
0.00000001
 43
0.00000001
 40
0.0
 40
0.0
 40
0.0
 40
0.0
 40
0.5316201666417922
 40
1.0
 40
1.0
 40
1.0
 40
1.0
 10
0.342145047483549
 20
0.5050640869276771
 30
0.0
 10
0.3407020470850741
 20
0.5058901727322838
 30
0.0
 10
0.3379877023535899
 20
0.507444075041568
 30
0.0
 10
0.3352722674774923
 20
0.5089960715106971
 30
0.0
 10
0.3340004125427307
 20
0.5097229953582803
 30
0.0
  0
LINE
  5
F4
330
1F
100
AcDbEntity
  8
0
  6
Continuous
 62
     7
370
    25
100
AcDbLine
 10
0.3416810581
 20
0.5146442649
 30
0.0
 11
0.3421450762
 21
0.5149065743
 31
0.0
  0
SPLINE
  5
F5
330
1F
100
AcDbEntity
  8
0
  6
Continuous
 62
     7
370
    25
100
AcDbSpline
210
0.0
220
0.0
230
1.0
 70
    24
 71
     3
 72
    13
 73
     9
 74
     0
 42
0.00000001
 43
0.00000001
 40
0.0
 40
0.0
 40
0.0
 40
0.0
 40
0.2394429569502043
 40
0.3699849177504673
 40
0.5000002371402402
 40
0.6305419623349557
 40
0.7605570430497903
 40
1.0
 40
1.0
 40
1.0
 40
1.0
 10
0.4508579801471972
 20
0.4047361413664501
 30
0.0
 10
0.4507433958025335
 20
0.40473614136645
 30
0.0
 10
0.4505663411926343
 20
0.40473614136645
 30
0.0
 10
0.4495037417764729
 20
0.4047361413664503
 30
0.0
 10
0.4484003876364632
 20
0.4047361413664501
 30
0.0
 10
0.4470437121687919
 20
0.4047361413664501
 30
0.0
 10
0.4450556759330161
 20
0.4047361413664501
 30
0.0
 10
0.4434005030476439
 20
0.4047361413664501
 30
0.0
 10
0.4423277980323678
 20
0.4047361413664501
 30
0.0
  0
ARC
  5
F6
330
1F
100
AcDbEntity
  8
0
  6
Continuous
 62
     7
370
    25
100
AcDbCircle
 10
0.4508579818
 20
0.3968621256
 30
0.0
 40
0.0078740157480315
100
AcDbArc
 50
0.0
 51
90.0
  0
ARC
  5
F7
330
1F
100
AcDbEntity
  8
0
  6
Continuous
 62
     7
370
    25
100
AcDbCircle
 10
0.0794669056
 20
0.3968621256
 30
0.0
 40
0.0078740157480315
100
AcDbArc
 50
89.9999941341
 51
180.0
  0
SPLINE
  5
F8
330
1F
100
AcDbEntity
  8
0
  6
Continuous
 62
     7
370
    25
100
AcDbSpline
210
0.0
220
0.0
230
1.0
 70
    24
 71
     3
 72
    13
 73
     9
 74
     0
 42
0.00000001
 43
0.00000001
 40
0.0
 40
0.0
 40
0.0
 40
0.0
 40
0.2394429569504619
 40
0.3699849177505472
 40
0.5000002371402535
 40
0.6305419623346021
 40
0.7605570430495371
 40
1.0
 40
1.0
 40
1.0
 40
1.0
 10
0.0879970893709505
 20
0.4047361413664501
 30
0.0
 10
0.0869243969701699
 20
0.4047361413664501
 30
0.0
 10
0.0852668831525611
 20
0.40473614136645
 30
0.0
 10
0.0832791082232314
 20
0.4047361413664501
 30
0.0
 10
0.0819211979067644
 20
0.4047361413664501
 30
0.0
 10
0.0808198561129407
 20
0.40473614136645
 30
0.0
 10
0.0797582238771665
 20
0.40473614136645
 30
0.0
 10
0.0795814630182676
 20
0.4047361413664501
 30
0.0
 10
0.0794669056439164
 20
0.4047361413664501
 30
0.0
  0
LINE
  5
F9
330
1F
100
AcDbEntity
  8
0
  6
Continuous
 62
     7
370
    25
100
AcDbLine
 10
0.4587319975
 20
0.3968621256
 30
0.0
 11
0.4587319975
 21
0.3719277424
 31
0.0
  0
LINE
  5
FA
330
1F
100
AcDbEntity
  8
0
  6
Continuous
 62
     7
370
    25
100
AcDbLine
 10
0.442327798
 20
0.4047361414
 30
0.0
 11
0.3603068007
 21
0.4047361414
 31
0.0
  0
LINE
  5
FB
330
1F
100
AcDbEntity
  8
0
  6
Continuous
 62
     7
370
    25
100
AcDbLine
 10
0.0715928899
 20
0.3968621256
 30
0.0
 11
0.0715928899
 21
0.3719277424
 31
0.0
  0
LINE
  5
FC
330
1F
100
AcDbEntity
  8
0
  6
Continuous
 62
     7
370
    25
100
AcDbLine
 10
0.1700180867
 20
0.4047361414
 30
0.0
 11
0.0879970894
 21
0.4047361414
 31
0.0
  0
LINE
  5
FD
330
1F
100
AcDbEntity
  8
0
  6
Continuous
 62
     7
370
    25
100
AcDbLine
 10
0.0873409214
 20
0.2118227555
 30
0.0
 11
0.1713304227
 21
0.2118227555
 31
0.0
  0
LINE
  5
FE
330
1F
100
AcDbEntity
  8
0
  6
Continuous
 62
     7
370
    25
100
AcDbLine
 10
0.442983966
 20
0.2118227555
 30
0.0
 11
0.3589944647
 21
0.2118227555
 31
0.0
  0
LINE
  5
FF
330
1F
100
AcDbEntity
  8
0
  6
Continuous
 62
     7
370
    25
100
AcDbLine
 10
0.3589944647
 20
0.2118227555
 30
0.0
 11
0.3550574568
 21
0.2078857477
 31
0.0
  0
LINE
  5
100
330
1F
100
AcDbEntity
  8
0
  6
Continuous
 62
     7
370
    25
100
AcDbLine
 10
0.1752674306
 20
0.2078857477
 30
0.0
 11
0.3550574568
 21
0.2078857477
 31
0.0
  0
LINE
  5
101
330
1F
100
AcDbEntity
  8
0
  6
Continuous
 62
     7
370
    25
100
AcDbLine
 10
0.1713304227
 20
0.2118227555
 30
0.0
 11
0.1752674306
 21
0.2078857477
 31
0.0
  0
LINE
  5
102
330
1F
100
AcDbEntity
  8
0
  6
Continuous
 62
     7
370
    25
100
AcDbLine
 10
0.4573347825
 20
0.2118227555
 30
0.0
 11
0.442983966
 21
0.2118227555
 31
0.0
  0
LINE
  5
103
330
1F
100
AcDbEntity
  8
0
  6
Continuous
 62
     7
370
    25
100
AcDbLine
 10
0.4573347825
 20
0.2118227555
 30
0.0
 11
0.4587319975
 21
0.3719277424
 31
0.0
  0
LINE
  5
104
330
1F
100
AcDbEntity
  8
0
  6
Continuous
 62
     7
370
    25
100
AcDbLine
 10
0.0729901049
 20
0.2118227555
 30
0.0
 11
0.0873409214
 21
0.2118227555
 31
0.0
  0
LINE
  5
105
330
1F
100
AcDbEntity
  8
0
  6
Continuous
 62
     7
370
    25
100
AcDbLine
 10
0.0715928899
 20
0.3719277424
 30
0.0
 11
0.0729901049
 21
0.2118227555
 31
0.0
  0
LINE
  5
106
330
1F
100
AcDbEntity
  8
0
  6
Continuous
 62
     7
370
    25
100
AcDbLine
 10
0.2914091629
 20
0.2000117319
 30
0.0
 11
0.2914091629
 21
0.2078857477
 31
0.0
  0
LINE
  5
107
330
1F
100
AcDbEntity
  8
0
  6
Continuous
 62
     7
370
    25
100
AcDbLine
 10
0.2389157245
 20
0.2000117319
 30
0.0
 11
0.2389157245
 21
0.2078857477
 31
0.0
  0
SPLINE
  5
108
330
1F
100
AcDbEntity
  8
0
  6
Continuous
 62
     7
370
    25
100
AcDbSpline
210
0.0
220
0.0
230
1.0
 70
     8
 71
     3
 72
    15
 73
    11
 74
     0
 42
0.00000001
 43
0.00000001
 40
0.0
 40
0.0
 40
0.0
 40
0.0
 40
0.1252191057904598
 40
0.2506775206714167
 40
0.3755492240257037
 40
0.5002233604049946
 40
0.6282471906460514
 40
0.7508652963767726
 40
0.8755105722076064
 40
1.0
 40
1.0
 40
1.0
 40
1.0
 10
0.2494144122055962
 20
0.1895130442535892
 30
0.0
 10
0.2494238833193451
 20
0.1895130440335068
 30
0.0
 10
0.2494428436473044
 20
0.1895130435929214
 30
0.0
 10
0.2495912499282558
 20
0.1895130485492877
 30
0.0
 10
0.2498296046120665
 20
0.1895130540933305
 30
0.0
 10
0.2501782460698037
 20
0.1895130415601882
 30
0.0
 10
0.2505736672138427
 20
0.1895130448575562
 30
0.0
 10
0.2510310947195311
 20
0.1895130470827422
 30
0.0
 10
0.2515241940276643
 20
0.1895130456743304
 30
0.0
 10
0.2518675256815027
 20
0.1895130447269721
 30
0.0
 10
0.2520390841216067
 20
0.1895130442535892
 30
0.0
  0
ARC
  5
109
330
1F
100
AcDbEntity
  8
0
  6
Continuous
 62
     7
370
    25
100
AcDbCircle
 10
0.2494144122
 20
0.2000117319
 30
0.0
 40
0.010498687664042
100
AcDbArc
 50
180.0
 51
270.0
  0
ARC
  5
10A
330
1F
100
AcDbEntity
  8
0
  6
Continuous
 62
     7
370
    25
100
AcDbCircle
 10
0.2809104752
 20
0.2000117319
 30
0.0
 40
0.010498687664042
100
AcDbArc
 50
270.0
 51
0.0000001041
  0
SPLINE
  5
10B
330
1F
100
AcDbEntity
  8
0
  6
Continuous
 62
     7
370
    25
100
AcDbSpline
210
0.0
220
0.0
230
1.0
 70
     8
 71
     3
 72
    15
 73
    11
 74
     0
 42
0.00000001
 43
0.00000001
 40
0.0
 40
0.0
 40
0.0
 40
0.0
 40
0.1252191057904683
 40
0.2506775206713752
 40
0.3755492240256456
 40
0.5002233604048665
 40
0.6282471906458891
 40
0.7508652963765832
 40
0.8755105722075263
 40
1.0
 40
1.0
 40
1.0
 40
1.0
 10
0.2782858032817117
 20
0.1895130442535892
 30
0.0
 10
0.2784581875659196
 20
0.1895130440335068
 30
0.0
 10
0.2788032855818745
 20
0.1895130435929213
 30
0.0
 10
0.2793022650522283
 20
0.1895130485492877
 30
0.0
 10
0.2797643767658234
 20
0.1895130540933305
 30
0.0
 10
0.2801536661541703
 20
0.1895130415601882
 30
0.0
 10
0.2804888541700197
 20
0.1895130448575562
 30
0.0
 10
0.2807343284354439
 20
0.1895130470827422
 30
0.0
 10
0.2808875311294757
 20
0.1895130456743304
 30
0.0
 10
0.2809028303651563
 20
0.1895130447269721
 30
0.0
 10
0.2809104751977222
 20
0.1895130442535892
 30
0.0
  0
LINE
  5
10C
330
1F
100
AcDbEntity
  8
0
  6
Continuous
 62
     7
370
    25
100
AcDbLine
 10
0.2520390841
 20
0.1895130443
 30
0.0
 11
0.2782858033
 21
0.1895130443
 31
0.0
  0
LINE
  5
10D
330
1F
100
AcDbEntity
  8
0
  6
Continuous
 62
     8
370
    25
100
AcDbLine
 10
0.193250521
 20
0.7029415682
 30
0.0
 11
0.1556007274
 21
0.6914308711
 31
0.0
  0
LINE
  5
10E
330
1F
100
AcDbEntity
  8
0
  6
Continuous
 62
     8
370
    25
100
AcDbLine
 10
0.2309003145
 20
0.7144522652
 30
0.0
 11
0.193250521
 21
0.7029415682
 31
0.0
  0
ENDSEC
  0
SECTION
  2
OBJECTS
  0
DICTIONARY
  5
C
330
0
100
AcDbDictionary
281
     1
  3
ACAD_GROUP
350
D
  3
ACAD_LAYOUT
350
1A
  3
ACAD_MLINESTYLE
350
17
  3
ACAD_PLOTSETTINGS
350
19
  3
ACAD_PLOTSTYLENAME
350
E
  3
ACAD_SCALELIST
350
47
  3
DWGPROPS
350
10F
  0
DICTIONARY
  5
D
102
{ACAD_REACTORS
330
C
102
}
330
C
100
AcDbDictionary
281
     1
  0
DICTIONARY
  5
1A
102
{ACAD_REACTORS
330
C
102
}
330
C
100
AcDbDictionary
281
     1
  3
Layout1
350
1E
  3
Layout2
350
26
  3
Model
350
22
  0
DICTIONARY
  5
17
102
{ACAD_REACTORS
330
C
102
}
330
C
100
AcDbDictionary
281
     1
  3
Standard
350
18
  0
DICTIONARY
  5
19
102
{ACAD_REACTORS
330
C
102
}
330
C
100
AcDbDictionary
281
     1
  0
ACDBDICTIONARYWDFLT
  5
E
102
{ACAD_REACTORS
330
C
102
}
330
C
100
AcDbDictionary
281
     1
  3
Normal
350
F
100
AcDbDictionaryWithDefault
340
F
  0
DICTIONARY
  5
47
102
{ACAD_REACTORS
330
C
102
}
330
C
100
AcDbDictionary
281
     1
  3
A0
350
48
  3
A1
350
49
  3
A2
350
4A
  3
A3
350
4B
  3
A4
350
4C
  3
A5
350
4D
  3
A6
350
4E
  3
A7
350
4F
  3
A8
350
50
  3
A9
350
51
  3
B0
350
52
  3
B1
350
53
  3
B2
350
54
  3
B3
350
55
  3
B4
350
56
  3
B5
350
57
  3
B6
350
58
  3
B7
350
59
  3
B8
350
5A
  3
B9
350
5B
  3
C0
350
5C
  3
C1
350
5D
  3
C2
350
5E
  3
C3
350
5F
  3
C4
350
60
  3
C5
350
61
  3
C6
350
62
  3
C7
350
63
  3
C8
350
64
  3
C9
350
65
  3
D0
350
66
  3
D1
350
67
  3
D2
350
68
  0
XRECORD
  5
10F
102
{ACAD_REACTORS
330
C
102
}
330
C
100
AcDbXrecord
280
     1
  1
DWGPROPS COOKIE
  2

  3

  4

  6

  7

  8
lukew
  9

300
=
301
=
302
=
303
=
304
=
305
=
306
=
307
=
308
=
309
=
 40
0.0
 41
2459148.666717627
 42
2459148.666718669
  1

 90
        0
  0
LAYOUT
  5
1E
102
{ACAD_REACTORS
330
1A
102
}
330
1A
100
AcDbPlotSettings
  1

  2
none_device
  4

  6

 40
0.0
 41
0.0
 42
0.0
 43
0.0
 44
0.0
 45
0.0
 46
0.0
 47
0.0
 48
0.0
 49
0.0
140
0.0
141
0.0
142
1.0
143
1.0
 70
   688
 72
     0
 73
     0
 74
     5
  7

 75
    16
147
1.0
148
0.0
149
0.0
100
AcDbLayout
  1
Layout1
 70
     1
 71
     1
 10
0.0
 20
0.0
 11
12.0
 21
9.0
 12
0.0
 22
0.0
 32
0.0
 14
1.0000000000E+20
 24
1.0000000000E+20
 34
1.0000000000E+20
 15
-1.0000000000E+20
 25
-1.0000000000E+20
 35
-1.0000000000E+20
146
0.0
 13
0.0
 23
0.0
 33
0.0
 16
1.0
 26
0.0
 36
0.0
 17
0.0
 27
1.0
 37
0.0
 76
     0
330
1B
  0
LAYOUT
  5
26
102
{ACAD_REACTORS
330
1A
102
}
330
1A
100
AcDbPlotSettings
  1

  2
none_device
  4

  6

 40
0.0
 41
0.0
 42
0.0
 43
0.0
 44
0.0
 45
0.0
 46
0.0
 47
0.0
 48
0.0
 49
0.0
140
0.0
141
0.0
142
1.0
143
1.0
 70
   688
 72
     0
 73
     0
 74
     5
  7

 75
    16
147
1.0
148
0.0
149
0.0
100
AcDbLayout
  1
Layout2
 70
     1
 71
     2
 10
0.0
 20
0.0
 11
0.0
 21
0.0
 12
0.0
 22
0.0
 32
0.0
 14
0.0
 24
0.0
 34
0.0
 15
0.0
 25
0.0
 35
0.0
146
0.0
 13
0.0
 23
0.0
 33
0.0
 16
1.0
 26
0.0
 36
0.0
 17
0.0
 27
1.0
 37
0.0
 76
     0
330
23
  0
LAYOUT
  5
22
102
{ACAD_REACTORS
330
1A
102
}
330
1A
100
AcDbPlotSettings
  1

  2
none_device
  4
Letter_(8.50_x_11.00_Inches)
  6

 40
6.35
 41
6.35
 42
6.35000508
 43
6.35000508
 44
215.9
 45
279.4
 46
0.0
 47
0.0
 48
0.0
 49
0.0
140
0.0
141
0.0
142
1.0
143
1.0
 70
  1712
 72
     0
 73
     0
 74
     0
  7

 75
     0
147
1.0
148
0.0
149
0.0
100
AcDbLayout
  1
Model
 70
     1
 71
     0
 10
0.0
 20
0.0
 11
0.5905511811
 21
0.7874015748
 12
0.0
 22
0.0
 32
0.0
 14
0.0
 24
0.0
 34
0.0
 15
0.5905511811
 25
0.7874015748
 35
0.0
146
0.0
 13
0.0
 23
0.0
 33
0.0
 16
1.0
 26
0.0
 36
0.0
 17
0.0
 27
1.0
 37
0.0
 76
     0
330
1F
331
29
  0
MLINESTYLE
  5
18
102
{ACAD_REACTORS
330
17
102
}
330
17
100
AcDbMlineStyle
  2
Standard
 70
     0
  3

 62
   256
 51
90.0
 52
90.0
 71
     2
 49
0.5
 62
   256
  6
BYLAYER
 49
-0.5
 62
   256
  6
BYLAYER
  0
ACDBPLACEHOLDER
  5
F
102
{ACAD_REACTORS
330
E
102
}
330
E
  0
SCALE
  5
48
102
{ACAD_REACTORS
330
47
102
}
330
47
100
AcDbScale
 70
     0
300
1:1
140
1.0
141
1.0
290
     1
  0
SCALE
  5
49
102
{ACAD_REACTORS
330
47
102
}
330
47
100
AcDbScale
 70
     0
300
1:2
140
1.0
141
2.0
290
     0
  0
SCALE
  5
4A
102
{ACAD_REACTORS
330
47
102
}
330
47
100
AcDbScale
 70
     0
300
1:4
140
1.0
141
4.0
290
     0
  0
SCALE
  5
4B
102
{ACAD_REACTORS
330
47
102
}
330
47
100
AcDbScale
 70
     0
300
1:5
140
1.0
141
5.0
290
     0
  0
SCALE
  5
4C
102
{ACAD_REACTORS
330
47
102
}
330
47
100
AcDbScale
 70
     0
300
1:8
140
1.0
141
8.0
290
     0
  0
SCALE
  5
4D
102
{ACAD_REACTORS
330
47
102
}
330
47
100
AcDbScale
 70
     0
300
1:10
140
1.0
141
10.0
290
     0
  0
SCALE
  5
4E
102
{ACAD_REACTORS
330
47
102
}
330
47
100
AcDbScale
 70
     0
300
1:16
140
1.0
141
16.0
290
     0
  0
SCALE
  5
4F
102
{ACAD_REACTORS
330
47
102
}
330
47
100
AcDbScale
 70
     0
300
1:20
140
1.0
141
20.0
290
     0
  0
SCALE
  5
50
102
{ACAD_REACTORS
330
47
102
}
330
47
100
AcDbScale
 70
     0
300
1:30
140
1.0
141
30.0
290
     0
  0
SCALE
  5
51
102
{ACAD_REACTORS
330
47
102
}
330
47
100
AcDbScale
 70
     0
300
1:40
140
1.0
141
40.0
290
     0
  0
SCALE
  5
52
102
{ACAD_REACTORS
330
47
102
}
330
47
100
AcDbScale
 70
     0
300
1:50
140
1.0
141
50.0
290
     0
  0
SCALE
  5
53
102
{ACAD_REACTORS
330
47
102
}
330
47
100
AcDbScale
 70
     0
300
1:100
140
1.0
141
100.0
290
     0
  0
SCALE
  5
54
102
{ACAD_REACTORS
330
47
102
}
330
47
100
AcDbScale
 70
     0
300
2:1
140
2.0
141
1.0
290
     0
  0
SCALE
  5
55
102
{ACAD_REACTORS
330
47
102
}
330
47
100
AcDbScale
 70
     0
300
4:1
140
4.0
141
1.0
290
     0
  0
SCALE
  5
56
102
{ACAD_REACTORS
330
47
102
}
330
47
100
AcDbScale
 70
     0
300
8:1
140
8.0
141
1.0
290
     0
  0
SCALE
  5
57
102
{ACAD_REACTORS
330
47
102
}
330
47
100
AcDbScale
 70
     0
300
10:1
140
10.0
141
1.0
290
     0
  0
SCALE
  5
58
102
{ACAD_REACTORS
330
47
102
}
330
47
100
AcDbScale
 70
     0
300
100:1
140
100.0
141
1.0
290
     0
  0
SCALE
  5
59
102
{ACAD_REACTORS
330
47
102
}
330
47
100
AcDbScale
 70
     0
300
1/128" = 1'-0"
140
0.0078125
141
12.0
290
     0
  0
SCALE
  5
5A
102
{ACAD_REACTORS
330
47
102
}
330
47
100
AcDbScale
 70
     0
300
1/64" = 1'-0"
140
0.015625
141
12.0
290
     0
  0
SCALE
  5
5B
102
{ACAD_REACTORS
330
47
102
}
330
47
100
AcDbScale
 70
     0
300
1/32" = 1'-0"
140
0.03125
141
12.0
290
     0
  0
SCALE
  5
5C
102
{ACAD_REACTORS
330
47
102
}
330
47
100
AcDbScale
 70
     0
300
1/16" = 1'-0"
140
0.0625
141
12.0
290
     0
  0
SCALE
  5
5D
102
{ACAD_REACTORS
330
47
102
}
330
47
100
AcDbScale
 70
     0
300
3/32" = 1'-0"
140
0.09375
141
12.0
290
     0
  0
SCALE
  5
5E
102
{ACAD_REACTORS
330
47
102
}
330
47
100
AcDbScale
 70
     0
300
1/8" = 1'-0"
140
0.125
141
12.0
290
     0
  0
SCALE
  5
5F
102
{ACAD_REACTORS
330
47
102
}
330
47
100
AcDbScale
 70
     0
300
3/16" = 1'-0"
140
0.1875
141
12.0
290
     0
  0
SCALE
  5
60
102
{ACAD_REACTORS
330
47
102
}
330
47
100
AcDbScale
 70
     0
300
1/4" = 1'-0"
140
0.25
141
12.0
290
     0
  0
SCALE
  5
61
102
{ACAD_REACTORS
330
47
102
}
330
47
100
AcDbScale
 70
     0
300
3/8" = 1'-0"
140
0.375
141
12.0
290
     0
  0
SCALE
  5
62
102
{ACAD_REACTORS
330
47
102
}
330
47
100
AcDbScale
 70
     0
300
1/2" = 1'-0"
140
0.5
141
12.0
290
     0
  0
SCALE
  5
63
102
{ACAD_REACTORS
330
47
102
}
330
47
100
AcDbScale
 70
     0
300
3/4" = 1'-0"
140
0.75
141
12.0
290
     0
  0
SCALE
  5
64
102
{ACAD_REACTORS
330
47
102
}
330
47
100
AcDbScale
 70
     0
300
1" = 1'-0"
140
1.0
141
12.0
290
     0
  0
SCALE
  5
65
102
{ACAD_REACTORS
330
47
102
}
330
47
100
AcDbScale
 70
     0
300
1-1/2" = 1'-0"
140
1.5
141
12.0
290
     0
  0
SCALE
  5
66
102
{ACAD_REACTORS
330
47
102
}
330
47
100
AcDbScale
 70
     0
300
3" = 1'-0"
140
3.0
141
12.0
290
     0
  0
SCALE
  5
67
102
{ACAD_REACTORS
330
47
102
}
330
47
100
AcDbScale
 70
     0
300
6" = 1'-0"
140
6.0
141
12.0
290
     0
  0
SCALE
  5
68
102
{ACAD_REACTORS
330
47
102
}
330
47
100
AcDbScale
 70
     0
300
1'-0" = 1'-0"
140
12.0
141
12.0
290
     0
  0
ENDSEC
  0
EOF
