<?xml version="1.0" encoding="utf-8"?>
<!-- Generator: Fusion 360, Shaper Origin Export Add-In, Version 1.6.10  -->
<svg xmlns="http://www.w3.org/2000/svg" xmlns:xlink="http://www.w3.org/1999/xlink" xmlns:shaper="http://www.shapertools.com/namespaces/shaper" shaper:fusionaddin="version:1.6.10" width="1.2573cm" height="1.2573cm" version="1.1" x="0cm" y="0cm" viewBox="0 0 1.2573 1.2573" enable-background="new 0 0 1.2573 1.2573" xml:space="preserve"><path d="M-0.62865,0.62865 L0.62865,0.62865 0.62865,-0.62865 -0.62865,-0.62865 -0.62865,0.62865z" transform="matrix(1,0,0,-1,0.62865,0.62865)" fill="rgb(0,0,0)" shaper:cutDepth="0.000127" stroke-linecap="round" stroke-linejoin="round" /><path d="M0.3847616,-0.2834081 L0.3847616,-0.2834081 0.400204,-0.2822018 0.4153047,-0.2787581 0.4225576,-0.2760449 0.4295161,-0.2726315 0.4360998,-0.2685506 0.4422168,-0.2637948 0.4478137,-0.2584379 0.4528042,-0.2525118 0.4570614,-0.2460393 0.4605138,-0.239104 0.4631545,-0.2318206 0.4650037,-0.2242968 0.4661143,-0.2166296 0.4664845,-0.2088902 0.4660842,-0.1847826 0.4660842,-0.1847826 0.4655202,-0.1766835 0.4642855,-0.1686595 0.4622397,-0.1608033 0.4594032,-0.1531973 0.455626,-0.1460106 0.451132,-0.139251 0.4458648,-0.1330737 0.4399367,-0.1275266 0.4334999,-0.1225788 0.4265773,-0.118341 0.4192508,-0.1148393 0.4116403,-0.1120161 0.4037924,-0.1099364 0.3958041,-0.1084802 0.3796248,-0.1072203 0.3796248,-0.1072203 0.3651284,-0.1082046 0.3508745,-0.1110102 0.3371952,-0.1158934 0.3306848,-0.1191288 0.3244907,-0.1229298 0.3132395,-0.1321163 0.3083087,-0.1374545 0.3038704,-0.1432113 0.3000678,-0.1494049 0.2968121,-0.1559034 0.2919645,-0.1695965 0.281787,-0.2103095 0.281787,-0.2103095 0.2801426,-0.2158736 0.2778982,-0.2212123 0.274851,-0.22616 0.2706165,-0.2301048 0.2706165,-0.2301048 0.2636409,-0.2342972 0.2560817,-0.237315 0.2481122,-0.2389652 0.2399955,-0.239578 0.2399955,-0.239578 0.2300999,-0.238775 0.2204697,-0.2363996 0.2158549,-0.2345609 0.2115054,-0.2321722 0.2074411,-0.2293157 0.2038373,-0.2259019 0.2038373,-0.2259019 0.2011937,-0.2217116 0.1993444,-0.2171049 0.1980136,-0.2123298 0.1972995,-0.2074225 0.1968886,-0.1885644 0.1968886,-0.1866735 0.1968886,-0.1866735 0.1974441,-0.1798718 0.1994,-0.1733346 0.2027924,-0.1674218 0.2075935,-0.1625781 0.2133097,-0.1588483 0.2195089,-0.1559923 0.2325904,-0.1521179 0.2325904,-0.1521179 0.2427974,-0.1493159 0.2427974,-0.1493159 0.2465982,-0.1463823 0.2493088,-0.1424178 0.2507021,-0.1378239 0.2511365,-0.1330381 0.2511365,-0.1330381 0.2496907,-0.1255563 0.2479201,-0.1221748 0.245431,-0.119282 0.2422765,-0.1171289 0.2387418,-0.1156882 0.2311894,-0.1146254 0.2311894,-0.1146254 0.2223554,-0.1154864 0.2137249,-0.1175967 0.2053622,-0.1205756 0.1972995,-0.1242987 0.1972995,-0.1242987 0.1894488,-0.1290543 0.1822104,-0.1346918 0.1757043,-0.1411679 0.1700778,-0.1484164 0.1654385,-0.1563349 0.1618756,-0.1647907 0.1597283,-0.1737132 0.1592066,-0.1828723 0.1592067,-0.1852554 0.1604076,-0.2093641 0.1604076,-0.2093641 0.1611234,-0.2165695 0.1625349,-0.2236711 0.1646261,-0.230603 0.1674511,-0.2372694 0.1710376,-0.2435589 0.1753094,-0.2494047 0.1801664,-0.2547745 0.185534,-0.2596343 0.1913722,-0.2639161 0.1976104,-0.2675935 0.2041643,-0.2706695 0.2109772,-0.2731242 0.225099,-0.2762845 0.2395285,-0.277404 0.2395285,-0.277404 0.2490198,-0.2768643 0.2584282,-0.2755022 0.2676293,-0.2731138 0.2765584,-0.2698497 0.2851205,-0.26572 0.293169,-0.2606616 0.300432,-0.2545291 0.3067747,-0.24745 0.3067747,-0.24745 0.3110696,-0.2407215 0.3145046,-0.2335142 0.3193167,-0.2182967 0.3295713,-0.1776918 0.3295713,-0.1776918 0.3309031,-0.172736 0.3328036,-0.1679775 0.3353613,-0.1635236 0.3387967,-0.1597231 0.3387967,-0.1597231 0.3430242,-0.1561337 0.3476994,-0.1531455 0.3578198,-0.1486356 0.3685742,-0.1459394 0.3796248,-0.1450463 0.3796248,-0.1450463 0.3909354,-0.146049 0.4019031,-0.1489985 0.4121054,-0.1539804 0.416739,-0.1572741 0.4209198,-0.1611241 0.4209198,-0.1611241 0.4249517,-0.1665343 0.4275367,-0.1727782 0.428847,-0.1793984 0.4292589,-0.1861412 0.4293153,-0.2088914 0.4293153,-0.2088914 0.4289896,-0.2173669 0.4278955,-0.2214741 0.4262127,-0.2253721 0.4210917,-0.2321298 0.4144918,-0.2374627 0.4069515,-0.241391 0.3988572,-0.2439763 0.3904524,-0.245234 0.3819597,-0.2455821 0.3819597,-0.2455821 0.3735786,-0.2461594 0.3695106,-0.2472146 0.3656656,-0.248922 0.3623443,-0.2514869 0.3599523,-0.2549388 0.3586854,-0.2589439 0.3582768,-0.2631275 0.3582768,-0.2631275 0.3588753,-0.2677884 0.360416,-0.2722256 0.3630599,-0.2761044 0.3666735,-0.2791043 0.3709041,-0.2811434 0.3754257,-0.2824393 0.3847616,-0.2834081z" transform="matrix(1,0,0,-1,0.62865,0.62865)" fill="rgb(119,119,119)" fill-rule="nonzero" shaper:cutDepth="0.0000254" stroke-linecap="round" stroke-linejoin="round" /><path d="M0.1592067,-0.0696456 L0.1592067,-0.0696456 0.1599733,-0.0798398 0.161492,-0.0847287 0.1643674,-0.0889481 0.168697,-0.0916668 0.1736068,-0.0930992 0.1838236,-0.0935977 0.4409732,-0.0936241 0.4409732,-0.0936241 0.4513244,-0.0933715 0.4563482,-0.0921343 0.4608118,-0.0895243 0.4637952,-0.0853078 0.4653478,-0.0803681 0.4660842,-0.0700481 0.4660842,0.0557801 0.4660842,0.0557801 0.4655422,0.06487 0.4645291,0.069312 0.4627824,0.0735226 0.4600124,0.0771276 0.456253,0.0796926 0.4518892,0.0809869 0.447338,0.0811891 0.447338,0.0811891 0.4429379,0.0810214 0.4386609,0.0799866 0.4348337,0.0778178 0.4318202,0.0746179 0.4298624,0.0706771 0.4287452,0.0664149 0.4281915,0.0576396 0.4281915,-0.0558119 0.3123786,-0.0558119 0.3123786,0.0235014 0.3123786,0.0235014 0.3118072,0.032285 0.3107368,0.0365573 0.3088957,0.0405597 0.306048,0.0439097 0.3022899,0.0461961 0.2980333,0.0473167 0.2936324,0.0474993 0.2936324,0.0474993 0.2893689,0.047278 0.2852225,0.0462786 0.2814305,0.044331 0.2784538,0.0412757 0.2764132,0.0375327 0.2751802,0.0334431 0.2744859,0.0249505 0.2744859,-0.0558119 0.1970995,-0.0558119 0.1970995,0.0557801 0.1970995,0.0557801 0.1965873,0.0646747 0.1954442,0.0689831 0.1934861,0.0729907 0.1905191,0.0763079 0.1866678,0.0785446 0.1823419,0.0796142 0.1778861,0.0797882 0.1778861,0.0797882 0.1736328,0.0796219 0.1694903,0.0786577 0.1657509,0.0766419 0.1628523,0.0735248 0.1608777,0.0697642 0.1597559,0.0656532 0.1592066,0.0571726 0.1592067,-0.0696456z" transform="matrix(1,0,0,-1,0.62865,0.62865)" fill="rgb(119,119,119)" fill-rule="nonzero" shaper:cutDepth="0.0000254" stroke-linecap="round" stroke-linejoin="round" /><path d="M0.4324611,0.2509191 L0.4324611,0.2509191 0.4326302,0.2565189 0.4337286,0.2619934 0.4337286,0.2619934 0.4362052,0.2662693 0.4400469,0.2694114 0.4445742,0.2713983 0.4494728,0.2721337 0.4494728,0.2721337 0.4549785,0.2711862 0.4598783,0.2685089 0.4636392,0.2643981 0.4656172,0.2591914 0.4656172,0.2591914 0.4660842,0.2485684 0.4660842,0.1172272 0.4660842,0.1172272 0.4650103,0.1079554 0.4634605,0.1035444 0.4608594,0.099667 0.4570953,0.0969104 0.4526858,0.0953629 0.448052,0.0947632 0.4433761,0.0948118 0.1797541,0.0948118 0.1797541,0.0948118 0.1719036,0.0957824 0.1681649,0.0970803 0.1647568,0.0991002 0.1620809,0.1020084 0.1602973,0.1055414 0.1594343,0.1094047 0.1592066,0.1133579 0.1592066,0.1133579 0.16025,0.1212388 0.1620495,0.1247918 0.1647255,0.1277377 0.1681215,0.1298248 0.1718914,0.1311163 0.1798129,0.131904 0.4324611,0.131904 0.4324611,0.2509191z" transform="matrix(1,0,0,-1,0.62865,0.62865)" fill="rgb(119,119,119)" fill-rule="nonzero" shaper:cutDepth="0.0000254" stroke-linecap="round" stroke-linejoin="round" /></svg>