<?xml version="1.0" encoding="utf-8"?>
<!-- Generator: Fusion 360, Shaper Origin Export Add-In, Version 1.6.10  -->
<svg xmlns="http://www.w3.org/2000/svg" xmlns:xlink="http://www.w3.org/1999/xlink" xmlns:shaper="http://www.shapertools.com/namespaces/shaper" shaper:fusionaddin="version:1.6.10" width="1.2573cm" height="1.2573cm" version="1.1" x="0cm" y="0cm" viewBox="0 0 1.2573 1.2573" enable-background="new 0 0 1.2573 1.2573" xml:space="preserve"><path d="M0.62865,0.62865 L-0.62865,0.62865 -0.62865,-0.62865 0.62865,-0.62865 0.62865,0.62865z" transform="matrix(1,0,0,-1,0.62865,0.62865)" fill="rgb(0,0,0)" shaper:cutDepth="0.000762" stroke-linecap="round" stroke-linejoin="round" /><path d="M-0.0465386,0.3076562 L-0.0465386,0.3076562 -0.0467212,0.3032552 -0.0478419,0.2989986 -0.0501282,0.2952405 -0.0534783,0.2923929 -0.0574806,0.2905518 -0.0617529,0.2894813 -0.0705365,0.2889099 -0.1498499,0.2889099 -0.1498499,0.1730971 -0.0363983,0.1730971 -0.0363983,0.1730971 -0.027623,0.1725433 -0.0233609,0.1714261 -0.0194201,0.1694683 -0.0162201,0.1664548 -0.0140514,0.1626277 -0.0130165,0.1583506 -0.0128488,0.1539506 -0.0128488,0.1539506 -0.013051,0.1493994 -0.0143454,0.1450356 -0.0169104,0.1412761 -0.0205154,0.1385061 -0.0247259,0.1367594 -0.0291679,0.1357463 -0.0382578,0.1352044 -0.1640861,0.1352044 -0.1640861,0.1352044 -0.1744061,0.1359407 -0.1793458,0.1374933 -0.1835622,0.1404768 -0.1861723,0.1449403 -0.1874095,0.1499641 -0.1876621,0.1603154 -0.1876356,0.417465 -0.1876356,0.417465 -0.1871372,0.4276817 -0.1857048,0.4325916 -0.182986,0.4369211 -0.1787666,0.4397965 -0.1738778,0.4413152 -0.1636836,0.4420818 -0.0368653,0.4420819 -0.0368653,0.4420819 -0.0283848,0.4415326 -0.0242737,0.4404108 -0.0205131,0.4384362 -0.0173961,0.4355377 -0.0153803,0.4317982 -0.014416,0.4276557 -0.0142498,0.4234024 -0.0142498,0.4234024 -0.0144238,0.4189467 -0.0154933,0.4146208 -0.01773,0.4107695 -0.0210473,0.4078024 -0.0250548,0.4058443 -0.0293633,0.4047012 -0.0382578,0.4041891 -0.1498499,0.4041891 -0.1498499,0.3268027 -0.0690875,0.3268027 -0.0690875,0.3268027 -0.0605948,0.3261084 -0.0565052,0.3248754 -0.0527623,0.3228347 -0.049707,0.319858 -0.0477594,0.316066 -0.04676,0.3119197 -0.0465386,0.3076562z" transform="matrix(1,0,0,-1,0.62865,0.62865)" fill="rgb(110,110,110)" fill-rule="nonzero" shaper:cutDepth="0.0000762" stroke-linecap="round" stroke-linejoin="round" /><path d="M0.0723564,0.1416088 L0.0723564,0.1416088 0.069844,0.1459195 0.0689475,0.1508591 0.0686871,0.1608885 0.0686871,0.4041891 0.0225889,0.4041892 0.0225889,0.4041892 0.0140053,0.4050739 0.0098798,0.4063751 0.0061584,0.4085553 0.0030872,0.4115951 0.0010199,0.4153841 -0.000073,0.4195623 -0.000427,0.4238694 -0.000427,0.4238694 -0.0000838,0.428266 0.001224,0.4324715 0.0037726,0.4360715 0.007265,0.4387414 0.0113462,0.440426 0.0156292,0.4414813 0.0244192,0.4420818 0.153212,0.4420819 0.153212,0.4420819 0.1616759,0.4411724 0.1657269,0.4398377 0.169391,0.4376666 0.1723528,0.4346053 0.1743556,0.4308452 0.1754151,0.426718 0.1757608,0.4224684 0.1757608,0.4224684 0.1753684,0.4182452 0.1741392,0.4141892 0.1718131,0.4106435 0.1686023,0.4078861 0.1647677,0.406068 0.1606724,0.4049635 0.1522312,0.4041891 0.1065799,0.4041891 0.1065799,0.1586204 0.1065799,0.1586204 0.1060555,0.1499438 0.1049829,0.1457191 0.1030925,0.1418067 0.1002333,0.1385247 0.0964805,0.1363382 0.092252,0.1353169 0.0879004,0.1352044 0.0879004,0.1352044 0.0835978,0.1356095 0.0794286,0.1367375 0.0756213,0.1387803 0.0723564,0.1416088z" transform="matrix(1,0,0,-1,0.62865,0.62865)" fill="rgb(110,110,110)" fill-rule="nonzero" shaper:cutDepth="0.0000762" stroke-linecap="round" stroke-linejoin="round" /><path d="M-0.3833835,0.2454134 L-0.3833835,0.2454134 -0.3831579,0.2539266 -0.3825025,0.2581355 -0.3811152,0.2621583 -0.3811152,0.2621583 -0.3780519,0.2665016 -0.3738259,0.2697282 -0.3688374,0.2715574 -0.3635698,0.2722986 -0.3635698,0.2722986 -0.3586113,0.2716651 -0.3539104,0.2699923 -0.3498128,0.2671121 -0.3469584,0.2630255 -0.3469584,0.2630255 -0.3458637,0.2585047 -0.3455217,0.2538565 -0.3451572,0.2445462 -0.3451572,0.2445462 -0.344277,0.2323446 -0.342011,0.2203254 -0.3381197,0.2087353 -0.332396,0.197932 -0.3249614,0.1882304 -0.3205493,0.1839926 -0.3156807,0.1802877 -0.3103325,0.1773253 -0.3046299,0.1751057 -0.2986734,0.1737209 -0.2925877,0.1730971 -0.2925877,0.1730971 -0.2846822,0.1739082 -0.2770548,0.1761458 -0.2699413,0.1796877 -0.2634656,0.1842992 -0.2577496,0.1898199 -0.2528869,0.1961114 -0.2488323,0.2029457 -0.2455554,0.2101892 -0.2455554,0.2101892 -0.2422278,0.2212183 -0.2403696,0.2325992 -0.2394297,0.2440835 -0.2391108,0.2556062 -0.2390843,0.4178653 -0.2390843,0.4178653 -0.2384815,0.4267399 -0.2374954,0.431084 -0.2356916,0.4351472 -0.2328079,0.4385317 -0.2289642,0.4407557 -0.2246487,0.4418361 -0.2202047,0.4420819 -0.2202047,0.4420819 -0.2158025,0.441851 -0.2115279,0.4407878 -0.2076761,0.4386615 -0.204737,0.4353844 -0.2028907,0.4313884 -0.2018758,0.4270946 -0.2012986,0.4183069 -0.2012583,0.2500833 -0.2012583,0.2500833 -0.2025731,0.2297001 -0.2041367,0.219602 -0.2063368,0.209625 -0.2092963,0.1998466 -0.2130649,0.1903498 -0.2176304,0.1812103 -0.2230243,0.1725336 -0.229272,0.1644506 -0.2363534,0.1570874 -0.2442147,0.1505613 -0.2528635,0.1451314 -0.2621325,0.140832 -0.2718759,0.1377675 -0.2819335,0.1359742 -0.2921207,0.1352044 -0.2921207,0.1352044 -0.3020242,0.1359743 -0.3117851,0.1378164 -0.3212643,0.1407865 -0.3303189,0.1448626 -0.3387801,0.1500724 -0.346573,0.1562248 -0.3536273,0.1632224 -0.3600016,0.1708397 -0.3656091,0.1790396 -0.3704235,0.1877283 -0.3744756,0.1967993 -0.377698,0.2061944 -0.3800986,0.2158347 -0.3818417,0.2256155 -0.3829177,0.2354896 -0.3833835,0.2454134z" transform="matrix(1,0,0,-1,0.62865,0.62865)" fill="rgb(110,110,110)" fill-rule="nonzero" shaper:cutDepth="0.0000762" stroke-linecap="round" stroke-linejoin="round" /><path d="M0.2647019,0.1416088 L0.2647019,0.1416088 0.2621895,0.1459195 0.261293,0.1508591 0.2610326,0.1608885 0.2610326,0.4041891 0.2149344,0.4041892 0.2149344,0.4041892 0.2063509,0.4050739 0.2022253,0.4063751 0.1985039,0.4085553 0.1954327,0.4115951 0.1933654,0.4153841 0.1922725,0.4195623 0.1919185,0.4238694 0.1919185,0.4238694 0.1922617,0.428266 0.1935695,0.4324715 0.1961181,0.4360715 0.1996105,0.4387414 0.2036918,0.440426 0.2079747,0.4414813 0.2167647,0.4420818 0.3455575,0.4420819 0.3455575,0.4420819 0.3540214,0.4411724 0.3580724,0.4398377 0.3617365,0.4376666 0.3646983,0.4346053 0.3667012,0.4308452 0.3677606,0.426718 0.3681063,0.4224684 0.3681063,0.4224684 0.3677139,0.4182452 0.3664847,0.4141892 0.3641586,0.4106435 0.3609479,0.4078861 0.3571132,0.406068 0.3530179,0.4049635 0.3445767,0.4041891 0.2989254,0.4041891 0.2989254,0.1586204 0.2989254,0.1586204 0.298401,0.1499438 0.2973284,0.1457191 0.295438,0.1418067 0.2925788,0.1385247 0.288826,0.1363382 0.2845975,0.1353169 0.2802459,0.1352044 0.2802459,0.1352044 0.2759433,0.1356095 0.2717742,0.1367375 0.2679668,0.1387803 0.2647019,0.1416088z" transform="matrix(1,0,0,-1,0.62865,0.62865)" fill="rgb(110,110,110)" fill-rule="nonzero" shaper:cutDepth="0.0000762" stroke-linecap="round" stroke-linejoin="round" /></svg>