<?xml version="1.0" encoding="utf-8"?>
<!-- Generator: Fusion 360, Shaper Origin Export Add-In, Version 1.6.10  -->
<svg xmlns="http://www.w3.org/2000/svg" xmlns:xlink="http://www.w3.org/1999/xlink" xmlns:shaper="http://www.shapertools.com/namespaces/shaper" shaper:fusionaddin="version:1.6.10" width="19.05cm" height="13.208cm" version="1.1" x="0cm" y="0cm" viewBox="0 0 19.05 13.208" enable-background="new 0 0 19.05 13.208" xml:space="preserve"><path d="M14.1525507,6.0296965 A0.635,0.635 0 0,1 13.5175507,6.6646965 L1.4525507,6.6646965 A0.635,0.635 90 0,1 0.8175507,6.0296965 L0.8175507,4.2834465 A0.15875,0.15875 0 0,0 0.6588007,4.1246965 L-4.2624493,4.1246965 A0.635,0.635 90 0,1 -4.8974493,3.4896965 L-4.8974493,-4.1303035 A0.635,0.635 180 0,1 -4.2624493,-4.7653035 L7.6120507,-4.7653035 A0.3175,0.3175 90 0,0 7.9295507,-5.0828035 L7.9295507,-5.7813035 A0.762,0.762 180 0,1 9.4535507,-5.7813035 L9.4535507,0.4734465 A0.15875,0.15875 180 0,0 9.6123007,0.6321965 L13.9938007,0.6321965 A0.15875,0.15875 270 0,1 14.1525507,0.7909465 L14.1525507,6.0296965z" transform="matrix(1,0,0,-1,4.8974493,6.6646965)" fill="rgb(0,0,0)" stroke-linecap="round" stroke-linejoin="round" /><path d="M4.6662857,1.2036965 a0.215265,0.215265 0 1,1 0.43053,0 a0.215265,0.215265 0 1,1 -0.43053,0z" transform="matrix(1,0,0,-1,4.8974493,6.6646965)" fill="rgb(255,255,255)" stroke="rgb(0,0,0)" stroke-width="0.0010cm" stroke-linecap="round" stroke-linejoin="round" /><path d="M12.1612985,2.3796393 L11.9808507,2.3796393 11.9808507,2.3276465 9.9742507,2.3276465 9.9742507,3.8032537 9.899955,3.8032537 9.899955,2.4826349 9.2468353,2.4826349 9.2468353,4.0449283 9.5543127,4.0449283 A0.2395,0.2395 179.4797763 0,0 9.7938029,4.2822537 L9.9742507,4.2822537 9.9742507,4.3342465 11.9808507,4.3342465 11.9808507,2.8586393 12.1612985,2.8586393 A0.2395,0.2395 90 0,0 12.2953127,2.8176348 L12.2953127,4.3381273 12.9212124,4.3381273 12.9212124,1.9638956 12.3850239,1.9638956 12.3850239,1.2317959 10.1989655,1.2317959 10.1989655,1.9638956 12.2953127,1.9638956 12.2953127,2.4206439 A0.2395,0.2395 304.0252499 0,0 12.1612985,2.3796393z" transform="matrix(1,0,0,-1,4.8974493,6.6646965)" fill="rgb(255,255,255)" stroke="rgb(0,0,0)" stroke-width="0.0010cm" stroke-linecap="round" stroke-linejoin="round" /><path d="M13.3022857,6.0296965 a0.215265,0.215265 0 1,1 0.43053,0 a0.215265,0.215265 0 1,1 -0.43053,0z" transform="matrix(1,0,0,-1,4.8974493,6.6646965)" fill="rgb(255,255,255)" stroke="rgb(0,0,0)" stroke-width="0.0010cm" stroke-linecap="round" stroke-linejoin="round" /><path d="M7.8322142,-1.808085 L7.8322142,-1.1536662 8.5473523,-1.1536662 8.5473523,-1.808085 7.8322142,-1.808085z" transform="matrix(1,0,0,-1,4.8974493,6.6646965)" fill="rgb(255,255,255)" stroke="rgb(0,0,0)" stroke-width="0.0010cm" stroke-linecap="round" stroke-linejoin="round" /><path d="M4.5791252,-4.3397661 L4.5791252,-1.8728584 5.1783889,-1.8728584 5.1783889,-4.3397661 4.5791252,-4.3397661z" transform="matrix(1,0,0,-1,4.8974493,6.6646965)" fill="rgb(255,255,255)" stroke="rgb(0,0,0)" stroke-width="0.0010cm" stroke-linecap="round" stroke-linejoin="round" /><path d="M4.8974493,-0 L4.8974493,0.6814052 9.0061201,0.6814052 9.0061201,-0 5.2212854,-0 5.2212854,-0.7421244 4.5668666,-0.7421244 4.5668666,-0 4.8974493,-0z" transform="matrix(1,0,0,-1,4.8974493,6.6646965)" fill="rgb(255,255,255)" stroke="rgb(0,0,0)" stroke-width="0.0010cm" stroke-linecap="round" stroke-linejoin="round" /><path d="M5.7820393,-1.1602894 L5.7887859,-0.4653911 6.4963902,-0.472261 6.4896436,-1.1671593 5.7820393,-1.1602894z" transform="matrix(1,0,0,-1,4.8974493,6.6646965)" fill="rgb(255,255,255)" stroke="rgb(0,0,0)" stroke-width="0.0010cm" stroke-linecap="round" stroke-linejoin="round" /><path d="M4.704125,-1.6485941 L4.704125,-1.0162422 5.3438298,-1.0162422 5.3438298,-1.6485941 4.704125,-1.6485941z" transform="matrix(1,0,0,-1,4.8974493,6.6646965)" fill="rgb(255,255,255)" stroke="rgb(0,0,0)" stroke-width="0.0010cm" stroke-linecap="round" stroke-linejoin="round" /><path d="M7.6769323,-3.0907345 L7.6766485,-2.5028661 7.3869281,-2.503006 7.3867048,-2.0404859 6.0648295,-2.0404859 6.0648295,-2.5061334 5.4956539,-2.5061334 5.4956539,-1.8349804 6.0648295,-1.8349804 6.0648295,-1.3695569 6.9146785,-1.3695569 6.9146785,-0.6881518 7.5825905,-0.6881518 7.5825905,-1.3695569 7.4596443,-1.3695569 7.4596443,-1.9132384 8.0096481,-1.9129728 8.0098975,-2.4294116 9.3314723,-2.4287734 9.3317916,-3.0899354 7.6769323,-3.0907345z" transform="matrix(1,0,0,-1,4.8974493,6.6646965)" fill="rgb(255,255,255)" stroke="rgb(0,0,0)" stroke-width="0.0010cm" stroke-linecap="round" stroke-linejoin="round" /><path d="M12.5036645,4.6010366 L12.5036645,5.2298059 14.011889,5.2298059 14.011889,4.6010366 12.5036645,4.6010366z" transform="matrix(1,0,0,-1,4.8974493,6.6646965)" fill="rgb(255,255,255)" stroke="rgb(0,0,0)" stroke-width="0.0010cm" stroke-linecap="round" stroke-linejoin="round" /><path d="M9.5704115,5.5651809 L9.5704115,6.2286839 12.5036645,6.2286839 12.5036645,5.5651809 9.5704115,5.5651809z" transform="matrix(1,0,0,-1,4.8974493,6.6646965)" fill="rgb(255,255,255)" stroke="rgb(0,0,0)" stroke-width="0.0010cm" stroke-linecap="round" stroke-linejoin="round" /><path d="M12.5406509,1.0626678 L12.5406509,1.7407524 13.9995602,1.7407524 13.9995602,1.0626678 12.5406509,1.0626678z" transform="matrix(1,0,0,-1,4.8974493,6.6646965)" fill="rgb(255,255,255)" stroke="rgb(0,0,0)" stroke-width="0.0010cm" stroke-linecap="round" stroke-linejoin="round" /><path d="M9.3374631,4.521766 L9.3374631,5.2157582 12.2427931,5.2157582 12.2427931,4.521766 9.3374631,4.521766z" transform="matrix(1,0,0,-1,4.8974493,6.6646965)" fill="rgb(255,255,255)" stroke="rgb(0,0,0)" stroke-width="0.0010cm" stroke-linecap="round" stroke-linejoin="round" /><path d="M13.1272747,1.9618478 L13.1452645,4.3317274 13.7797055,4.3269114 13.7617157,1.9570317 13.1272747,1.9618478z" transform="matrix(1,0,0,-1,4.8974493,6.6646965)" fill="rgb(255,255,255)" stroke="rgb(0,0,0)" stroke-width="0.0010cm" stroke-linecap="round" stroke-linejoin="round" /><path d="M1.1670519,4.3277514 L1.1670519,5.0310831 2.6364168,5.0310831 2.6364168,4.3277514 1.1670519,4.3277514z" transform="matrix(1,0,0,-1,4.8974493,6.6646965)" fill="rgb(255,255,255)" stroke="rgb(0,0,0)" stroke-width="0.0010cm" stroke-linecap="round" stroke-linejoin="round" /><path d="M1.1877742,3.5863086 L1.9329315,3.5863086 1.9329315,-4.2783928 1.1877742,-4.2783928 1.1877742,3.5863086z" transform="matrix(1,0,0,-1,4.8974493,6.6646965)" fill="rgb(255,255,255)" stroke="rgb(0,0,0)" stroke-width="0.0010cm" stroke-linecap="round" stroke-linejoin="round" /><path d="M5.4821943,1.7665812 L5.4821943,4.8238279 6.9986857,4.8238279 6.9986857,1.7665812 5.4821943,1.7665812z" transform="matrix(1,0,0,-1,4.8974493,6.6646965)" fill="rgb(255,255,255)" stroke="rgb(0,0,0)" stroke-width="0.0010cm" stroke-linecap="round" stroke-linejoin="round" /><path d="M4.3296608,4.0170545 L4.3296608,4.6817883 5.0748182,4.6817883 5.0748182,4.0170545 4.3296608,4.0170545z" transform="matrix(1,0,0,-1,4.8974493,6.6646965)" fill="rgb(255,255,255)" stroke="rgb(0,0,0)" stroke-width="0.0010cm" stroke-linecap="round" stroke-linejoin="round" /><path d="M8.7764002,2.5824119 L9.0784651,2.5824119 9.0784651,0.9010386 8.7764002,0.9010386 8.7764002,2.5824119z" transform="matrix(1,0,0,-1,4.8974493,6.6646965)" fill="rgb(255,255,255)" stroke="rgb(0,0,0)" stroke-width="0.0010cm" stroke-linecap="round" stroke-linejoin="round" /><path d="M8.1517072,3.6448043 L8.1517072,1.7807217 7.3377244,1.7807217 7.3377244,3.6448043 8.1517072,3.6448043z" transform="matrix(1,0,0,-1,4.8974493,6.6646965)" fill="rgb(255,255,255)" stroke="rgb(0,0,0)" stroke-width="0.0010cm" stroke-linecap="round" stroke-linejoin="round" /><path d="M4.4024524,2.0031539 L4.4024524,2.6643441 5.0748182,2.6643441 5.0748182,2.0031539 4.4024524,2.0031539z" transform="matrix(1,0,0,-1,4.8974493,6.6646965)" fill="rgb(255,255,255)" stroke="rgb(0,0,0)" stroke-width="0.0010cm" stroke-linecap="round" stroke-linejoin="round" /><path d="M3.3979175,3.0537885 L3.3979175,3.6743074 3.9891494,3.6743074 3.9891494,3.0537885 3.3979175,3.0537885z" transform="matrix(1,0,0,-1,4.8974493,6.6646965)" fill="rgb(255,255,255)" stroke="rgb(0,0,0)" stroke-width="0.0010cm" stroke-linecap="round" stroke-linejoin="round" /><path d="M9.4614069,0.9175697 L9.4614069,1.567569 10.0634627,1.567569 10.0634627,0.9175697 9.4614069,0.9175697z" transform="matrix(1,0,0,-1,4.8974493,6.6646965)" fill="rgb(255,255,255)" stroke="rgb(0,0,0)" stroke-width="0.0010cm" stroke-linecap="round" stroke-linejoin="round" /><path d="M9.2519228,1.6682211 L9.2519228,2.3911148 9.902343,2.3911148 9.902343,1.6682211 9.2519228,1.6682211z" transform="matrix(1,0,0,-1,4.8974493,6.6646965)" fill="rgb(255,255,255)" stroke="rgb(0,0,0)" stroke-width="0.0010cm" stroke-linecap="round" stroke-linejoin="round" /><path d="M-1.7518332,0.6366729 L-1.7518332,1.2868536 -1.1117055,1.2868536 -1.1117055,0.6366729 -1.7518332,0.6366729z" transform="matrix(1,0,0,-1,4.8974493,6.6646965)" fill="rgb(255,255,255)" stroke="rgb(0,0,0)" stroke-width="0.0010cm" stroke-linecap="round" stroke-linejoin="round" /><path d="M-1.7402561,2.6163576 L-1.7402561,3.2523084 -1.1092948,3.2523084 -1.1092948,2.6163576 -1.7402561,2.6163576z" transform="matrix(1,0,0,-1,4.8974493,6.6646965)" fill="rgb(255,255,255)" stroke="rgb(0,0,0)" stroke-width="0.0010cm" stroke-linecap="round" stroke-linejoin="round" /><path d="M-0.7210645,0.8643842 L-0.7210645,3.2993316 0.579306,3.2993316 0.579306,0.8643842 -0.7210645,0.8643842z" transform="matrix(1,0,0,-1,4.8974493,6.6646965)" fill="rgb(255,255,255)" stroke="rgb(0,0,0)" stroke-width="0.0010cm" stroke-linecap="round" stroke-linejoin="round" /><path d="M-2.8285039,1.2444708 L-2.8285039,2.6528728 -2.1672126,2.6528728 -2.1672126,1.2444708 -2.8285039,1.2444708z" transform="matrix(1,0,0,-1,4.8974493,6.6646965)" fill="rgb(255,255,255)" stroke="rgb(0,0,0)" stroke-width="0.0010cm" stroke-linecap="round" stroke-linejoin="round" /><path d="M6.0753507,-2.8095035 a0.635,0.635 0 1,1 1.27,0 a0.635,0.635 0 1,1 -1.27,0z" transform="matrix(1,0,0,-1,4.8974493,6.6646965)" fill="rgb(255,255,255)" stroke="rgb(0,0,0)" stroke-width="0.0010cm" stroke-linecap="round" stroke-linejoin="round" /><path d="M-1.9154893,1.6325884 L-1.9154893,2.2988047 A0.6096,0.6096 146.8770598 1,0 -1.9154893,1.6325884z" transform="matrix(1,0,0,-1,4.8974493,6.6646965)" fill="rgb(255,255,255)" stroke="rgb(0,0,0)" stroke-width="0.0010cm" stroke-linecap="round" stroke-linejoin="round" /><path d="M4.2440107,2.9978384 L4.2440107,3.6640547 A0.6096,0.6096 146.8770598 1,0 4.2440107,2.9978384z" transform="matrix(1,0,0,-1,4.8974493,6.6646965)" fill="rgb(255,255,255)" stroke="rgb(0,0,0)" stroke-width="0.0010cm" stroke-linecap="round" stroke-linejoin="round" /><path d="M-4.4777143,3.2102965 a0.215265,0.215265 0 1,1 0.43053,0 a0.215265,0.215265 0 1,1 -0.43053,0z" transform="matrix(1,0,0,-1,4.8974493,6.6646965)" fill="rgb(255,255,255)" stroke="rgb(0,0,0)" stroke-width="0.0010cm" stroke-linecap="round" stroke-linejoin="round" /><path d="M-4.4777143,-3.8509035 a0.215265,0.215265 0 1,1 0.43053,0 a0.215265,0.215265 0 1,1 -0.43053,0z" transform="matrix(1,0,0,-1,4.8974493,6.6646965)" fill="rgb(255,255,255)" stroke="rgb(0,0,0)" stroke-width="0.0010cm" stroke-linecap="round" stroke-linejoin="round" /><path d="M1.2372857,6.0296965 a0.215265,0.215265 0 1,1 0.43053,0 a0.215265,0.215265 0 1,1 -0.43053,0z" transform="matrix(1,0,0,-1,4.8974493,6.6646965)" fill="rgb(255,255,255)" stroke="rgb(0,0,0)" stroke-width="0.0010cm" stroke-linecap="round" stroke-linejoin="round" /><path d="M-2.6997143,-0.0155035 a0.215265,0.215265 0 1,1 0.43053,0 a0.215265,0.215265 0 1,1 -0.43053,0z" transform="matrix(1,0,0,-1,4.8974493,6.6646965)" fill="rgb(255,255,255)" stroke="rgb(0,0,0)" stroke-width="0.0010cm" stroke-linecap="round" stroke-linejoin="round" /><path d="M8.3492857,-0.3457035 a0.215265,0.215265 0 1,1 0.43053,0 a0.215265,0.215265 0 1,1 -0.43053,0z" transform="matrix(1,0,0,-1,4.8974493,6.6646965)" fill="rgb(255,255,255)" stroke="rgb(0,0,0)" stroke-width="0.0010cm" stroke-linecap="round" stroke-linejoin="round" /><path d="M8.4762857,-5.7813035 a0.215265,0.215265 0 1,1 0.43053,0 a0.215265,0.215265 0 1,1 -0.43053,0z" transform="matrix(1,0,0,-1,4.8974493,6.6646965)" fill="rgb(255,255,255)" stroke="rgb(0,0,0)" stroke-width="0.0010cm" stroke-linecap="round" stroke-linejoin="round" /><path d="M7.7460357,5.8709465 a0.215265,0.215265 0 1,1 0.43053,0 a0.215265,0.215265 0 1,1 -0.43053,0z" transform="matrix(1,0,0,-1,4.8974493,6.6646965)" fill="rgb(255,255,255)" stroke="rgb(0,0,0)" stroke-width="0.0010cm" stroke-linecap="round" stroke-linejoin="round" /><path d="M0.2212857,-3.2413035 a0.215265,0.215265 0 1,1 0.43053,0 a0.215265,0.215265 0 1,1 -0.43053,0z" transform="matrix(1,0,0,-1,4.8974493,6.6646965)" fill="rgb(255,255,255)" stroke="rgb(0,0,0)" stroke-width="0.0010cm" stroke-linecap="round" stroke-linejoin="round" /></svg>