<?xml version="1.0" encoding="utf-8"?>
<!-- Generator: Fusion 360, Shaper Origin Export Add-In, Version 1.6.10  -->
<svg xmlns="http://www.w3.org/2000/svg" xmlns:xlink="http://www.w3.org/1999/xlink" xmlns:shaper="http://www.shapertools.com/namespaces/shaper" shaper:fusionaddin="version:1.6.10" width="17.7292cm" height="11.2268cm" version="1.1" x="0cm" y="0cm" viewBox="0 0 17.7292 11.2268" enable-background="new 0 0 17.7292 11.2268" xml:space="preserve"><path d="M8.70585,-0.2159 A0.15875,0.15875 270 0,1 8.8646,-0.05715 L8.8646,4.18465 A0.15875,0.15875 0 0,1 8.70585,4.3434 L8.2296,4.3434 A0.635,0.635 270 0,0 7.5946,4.9784 L7.5946,5.45465 A0.15875,0.15875 0 0,1 7.43585,5.6134 L-2.83845,5.6134 A0.15875,0.15875 90 0,1 -2.9972,5.45465 L-2.9972,4.9784 A0.635,0.635 0 0,0 -3.6322,4.3434 L-4.10845,4.3434 A0.15875,0.15875 90 0,1 -4.2672,4.18465 L-4.2672,3.23215 A0.15875,0.15875 0 0,0 -4.42595,3.0734 L-8.70585,3.0734 A0.15875,0.15875 90 0,1 -8.8646,2.91465 L-8.8646,-5.45465 A0.15875,0.15875 180 0,1 -8.70585,-5.6134 L4.00685,-5.6134 A0.15875,0.15875 270 0,1 4.1656,-5.45465 L4.1656,-0.37465 A0.15875,0.15875 180 0,0 4.32435,-0.2159 L8.70585,-0.2159z" transform="matrix(1,0,0,-1,8.8646,5.6134)" fill="rgb(0,0,0)" stroke-linecap="round" stroke-linejoin="round" /><path d="M4.94665,3.38455 L6.63575,3.38455 A0.15875,0.15875 90 0,0 6.7945,3.2258 L6.7945,1.5367 A0.15875,0.15875 0 0,0 6.63575,1.37795 L4.94665,1.37795 A0.15875,0.15875 270 0,0 4.7879,1.5367 L4.7879,3.2258 A0.15875,0.15875 180 0,0 4.94665,3.38455z" transform="matrix(1,0,0,-1,8.8646,5.6134)" fill="rgb(255,255,255)" stroke="rgb(0,0,0)" stroke-width="0.0010cm" stroke-linecap="round" stroke-linejoin="round" /><path d="M3.162935,-1.2954 a0.215265,0.215265 0 1,1 0.43053,0 a0.215265,0.215265 0 1,1 -0.43053,0z" transform="matrix(1,0,0,-1,8.8646,5.6134)" fill="rgb(255,255,255)" stroke="rgb(0,0,0)" stroke-width="0.0010cm" stroke-linecap="round" stroke-linejoin="round" /><path d="M2.559685,4.92125 a0.215265,0.215265 0 1,1 0.43053,0 a0.215265,0.215265 0 1,1 -0.43053,0z" transform="matrix(1,0,0,-1,8.8646,5.6134)" fill="rgb(255,255,255)" stroke="rgb(0,0,0)" stroke-width="0.0010cm" stroke-linecap="round" stroke-linejoin="round" /><path d="M-7.886065,-0.9652 a0.215265,0.215265 0 1,1 0.43053,0 a0.215265,0.215265 0 1,1 -0.43053,0z" transform="matrix(1,0,0,-1,8.8646,5.6134)" fill="rgb(255,255,255)" stroke="rgb(0,0,0)" stroke-width="0.0010cm" stroke-linecap="round" stroke-linejoin="round" /><path d="M0.5715,-3.7592 a0.9525,0.9525 0 1,1 1.905,0 a0.9525,0.9525 0 1,1 -1.905,0z" transform="matrix(1,0,0,-1,8.8646,5.6134)" fill="rgb(255,255,255)" stroke="rgb(0,0,0)" stroke-width="0.0010cm" stroke-linecap="round" stroke-linejoin="round" /><path d="M-7.44855,1.016 a0.85725,0.85725 0 1,1 1.7145,0 a0.85725,0.85725 0 1,1 -1.7145,0z" transform="matrix(1,0,0,-1,8.8646,5.6134)" fill="rgb(255,255,255)" stroke="rgb(0,0,0)" stroke-width="0.0010cm" stroke-linecap="round" stroke-linejoin="round" /><path d="M-1.28905,2.38125 a0.85725,0.85725 0 1,1 1.7145,0 a0.85725,0.85725 0 1,1 -1.7145,0z" transform="matrix(1,0,0,-1,8.8646,5.6134)" fill="rgb(255,255,255)" stroke="rgb(0,0,0)" stroke-width="0.0010cm" stroke-linecap="round" stroke-linejoin="round" /></svg>