%TF.GenerationSoftware,KiCad,Pcbnew,(5.1.9)-1*%
%TF.CreationDate,2021-10-29T07:15:38-06:00*%
%TF.ProjectId,throttle_controller,7468726f-7474-46c6-955f-636f6e74726f,rev?*%
%TF.SameCoordinates,Original*%
%TF.FileFunction,Soldermask,Bot*%
%TF.FilePolarity,Negative*%
%FSLAX46Y46*%
G04 Gerber Fmt 4.6, Leading zero omitted, Abs format (unit mm)*
G04 Created by KiCad (PCBNEW (5.1.9)-1) date 2021-10-29 07:15:38*
%MOMM*%
%LPD*%
G01*
G04 APERTURE LIST*
%ADD10O,1.200000X1.750000*%
%ADD11O,1.750000X1.200000*%
%ADD12O,2.000000X1.905000*%
%ADD13R,2.000000X1.905000*%
%ADD14O,1.600000X1.600000*%
%ADD15R,1.600000X1.600000*%
%ADD16C,2.500000*%
G04 APERTURE END LIST*
D10*
%TO.C,J8*%
X150976000Y-87330000D03*
G36*
G01*
X153576000Y-86704999D02*
X153576000Y-87955001D01*
G75*
G02*
X153326001Y-88205000I-249999J0D01*
G01*
X152625999Y-88205000D01*
G75*
G02*
X152376000Y-87955001I0J249999D01*
G01*
X152376000Y-86704999D01*
G75*
G02*
X152625999Y-86455000I249999J0D01*
G01*
X153326001Y-86455000D01*
G75*
G02*
X153576000Y-86704999I0J-249999D01*
G01*
G37*
%TD*%
D11*
%TO.C,J10*%
X170976000Y-140161000D03*
G36*
G01*
X171601001Y-142761000D02*
X170350999Y-142761000D01*
G75*
G02*
X170101000Y-142511001I0J249999D01*
G01*
X170101000Y-141810999D01*
G75*
G02*
X170350999Y-141561000I249999J0D01*
G01*
X171601001Y-141561000D01*
G75*
G02*
X171851000Y-141810999I0J-249999D01*
G01*
X171851000Y-142511001D01*
G75*
G02*
X171601001Y-142761000I-249999J0D01*
G01*
G37*
%TD*%
D12*
%TO.C,Q1*%
X159166500Y-135176000D03*
X159166500Y-132636000D03*
D13*
X159166500Y-130096000D03*
%TD*%
D11*
%TO.C,J9*%
X170976000Y-128731000D03*
G36*
G01*
X171601001Y-131331000D02*
X170350999Y-131331000D01*
G75*
G02*
X170101000Y-131081001I0J249999D01*
G01*
X170101000Y-130380999D01*
G75*
G02*
X170350999Y-130131000I249999J0D01*
G01*
X171601001Y-130131000D01*
G75*
G02*
X171851000Y-130380999I0J-249999D01*
G01*
X171851000Y-131081001D01*
G75*
G02*
X171601001Y-131331000I-249999J0D01*
G01*
G37*
%TD*%
D12*
%TO.C,Q3*%
X159166500Y-145971000D03*
X159166500Y-143431000D03*
D13*
X159166500Y-140891000D03*
%TD*%
D14*
%TO.C,U1*%
X137736000Y-147330000D03*
X152976000Y-119390000D03*
X137736000Y-144790000D03*
X152976000Y-121930000D03*
X137736000Y-142250000D03*
X152976000Y-124470000D03*
X137736000Y-139710000D03*
X152976000Y-127010000D03*
X137736000Y-137170000D03*
X152976000Y-129550000D03*
X137736000Y-134630000D03*
X152976000Y-132090000D03*
X137736000Y-132090000D03*
X152976000Y-134630000D03*
X137736000Y-129550000D03*
X152976000Y-137170000D03*
X137736000Y-127010000D03*
X152976000Y-139710000D03*
X137736000Y-124470000D03*
X152976000Y-142250000D03*
X137736000Y-121930000D03*
X152976000Y-144790000D03*
X137736000Y-119390000D03*
D15*
X152976000Y-147330000D03*
%TD*%
D12*
%TO.C,Q10*%
X159323000Y-123791000D03*
X159323000Y-121251000D03*
D13*
X159323000Y-118711000D03*
%TD*%
D12*
%TO.C,Q9*%
X159323000Y-112996000D03*
X159323000Y-110456000D03*
D13*
X159323000Y-107916000D03*
%TD*%
D12*
%TO.C,Q6*%
X159323000Y-102161000D03*
X159323000Y-99621000D03*
D13*
X159323000Y-97081000D03*
%TD*%
D12*
%TO.C,Q5*%
X159323000Y-91366000D03*
X159323000Y-88826000D03*
D13*
X159323000Y-86286000D03*
%TD*%
D11*
%TO.C,J12*%
X170753000Y-114076000D03*
X170753000Y-116076000D03*
G36*
G01*
X171378001Y-118676000D02*
X170127999Y-118676000D01*
G75*
G02*
X169878000Y-118426001I0J249999D01*
G01*
X169878000Y-117725999D01*
G75*
G02*
X170127999Y-117476000I249999J0D01*
G01*
X171378001Y-117476000D01*
G75*
G02*
X171628000Y-117725999I0J-249999D01*
G01*
X171628000Y-118426001D01*
G75*
G02*
X171378001Y-118676000I-249999J0D01*
G01*
G37*
%TD*%
%TO.C,J11*%
X170753000Y-92255500D03*
X170753000Y-94255500D03*
G36*
G01*
X171378001Y-96855500D02*
X170127999Y-96855500D01*
G75*
G02*
X169878000Y-96605501I0J249999D01*
G01*
X169878000Y-95905499D01*
G75*
G02*
X170127999Y-95655500I249999J0D01*
G01*
X171378001Y-95655500D01*
G75*
G02*
X171628000Y-95905499I0J-249999D01*
G01*
X171628000Y-96605501D01*
G75*
G02*
X171378001Y-96855500I-249999J0D01*
G01*
G37*
%TD*%
D10*
%TO.C,J7*%
X140476000Y-96830000D03*
X142476000Y-96830000D03*
G36*
G01*
X145076000Y-96204999D02*
X145076000Y-97455001D01*
G75*
G02*
X144826001Y-97705000I-249999J0D01*
G01*
X144125999Y-97705000D01*
G75*
G02*
X143876000Y-97455001I0J249999D01*
G01*
X143876000Y-96204999D01*
G75*
G02*
X144125999Y-95955000I249999J0D01*
G01*
X144826001Y-95955000D01*
G75*
G02*
X145076000Y-96204999I0J-249999D01*
G01*
G37*
%TD*%
%TO.C,J6*%
X140476000Y-89330000D03*
X142476000Y-89330000D03*
G36*
G01*
X145076000Y-88704999D02*
X145076000Y-89955001D01*
G75*
G02*
X144826001Y-90205000I-249999J0D01*
G01*
X144125999Y-90205000D01*
G75*
G02*
X143876000Y-89955001I0J249999D01*
G01*
X143876000Y-88704999D01*
G75*
G02*
X144125999Y-88455000I249999J0D01*
G01*
X144826001Y-88455000D01*
G75*
G02*
X145076000Y-88704999I0J-249999D01*
G01*
G37*
%TD*%
D11*
%TO.C,J5*%
X151976000Y-106330000D03*
X151976000Y-104330000D03*
X151976000Y-102330000D03*
G36*
G01*
X151350999Y-99730000D02*
X152601001Y-99730000D01*
G75*
G02*
X152851000Y-99979999I0J-249999D01*
G01*
X152851000Y-100680001D01*
G75*
G02*
X152601001Y-100930000I-249999J0D01*
G01*
X151350999Y-100930000D01*
G75*
G02*
X151101000Y-100680001I0J249999D01*
G01*
X151101000Y-99979999D01*
G75*
G02*
X151350999Y-99730000I249999J0D01*
G01*
G37*
%TD*%
D10*
%TO.C,J4*%
X140976000Y-112830000D03*
X142976000Y-112830000D03*
X144976000Y-112830000D03*
X146976000Y-112830000D03*
G36*
G01*
X149576000Y-112204999D02*
X149576000Y-113455001D01*
G75*
G02*
X149326001Y-113705000I-249999J0D01*
G01*
X148625999Y-113705000D01*
G75*
G02*
X148376000Y-113455001I0J249999D01*
G01*
X148376000Y-112204999D01*
G75*
G02*
X148625999Y-111955000I249999J0D01*
G01*
X149326001Y-111955000D01*
G75*
G02*
X149576000Y-112204999I0J-249999D01*
G01*
G37*
%TD*%
D11*
%TO.C,J3*%
X132976000Y-98330000D03*
X132976000Y-96330000D03*
X132976000Y-94330000D03*
X132976000Y-92330000D03*
X132976000Y-90330000D03*
G36*
G01*
X132350999Y-87730000D02*
X133601001Y-87730000D01*
G75*
G02*
X133851000Y-87979999I0J-249999D01*
G01*
X133851000Y-88680001D01*
G75*
G02*
X133601001Y-88930000I-249999J0D01*
G01*
X132350999Y-88930000D01*
G75*
G02*
X132101000Y-88680001I0J249999D01*
G01*
X132101000Y-87979999D01*
G75*
G02*
X132350999Y-87730000I249999J0D01*
G01*
G37*
%TD*%
%TO.C,J2*%
X132976000Y-113330000D03*
X132976000Y-111330000D03*
X132976000Y-109330000D03*
X132976000Y-107330000D03*
X132976000Y-105330000D03*
G36*
G01*
X132350999Y-102730000D02*
X133601001Y-102730000D01*
G75*
G02*
X133851000Y-102979999I0J-249999D01*
G01*
X133851000Y-103680001D01*
G75*
G02*
X133601001Y-103930000I-249999J0D01*
G01*
X132350999Y-103930000D01*
G75*
G02*
X132101000Y-103680001I0J249999D01*
G01*
X132101000Y-102979999D01*
G75*
G02*
X132350999Y-102730000I249999J0D01*
G01*
G37*
%TD*%
%TO.C,J1*%
X132976000Y-128330000D03*
X132976000Y-126330000D03*
X132976000Y-124330000D03*
X132976000Y-122330000D03*
X132976000Y-120330000D03*
G36*
G01*
X132350999Y-117730000D02*
X133601001Y-117730000D01*
G75*
G02*
X133851000Y-117979999I0J-249999D01*
G01*
X133851000Y-118680001D01*
G75*
G02*
X133601001Y-118930000I-249999J0D01*
G01*
X132350999Y-118930000D01*
G75*
G02*
X132101000Y-118680001I0J249999D01*
G01*
X132101000Y-117979999D01*
G75*
G02*
X132350999Y-117730000I249999J0D01*
G01*
G37*
%TD*%
D16*
%TO.C,H4*%
X151124000Y-94934000D03*
%TD*%
%TO.C,H3*%
X131976000Y-147330000D03*
%TD*%
%TO.C,H2*%
X172976000Y-85330000D03*
%TD*%
%TO.C,H1*%
X172976000Y-147330000D03*
%TD*%
M02*
