<?xml version="1.0" encoding="utf-8"?>
<!-- Generator: Fusion 360, Shaper Origin Export Add-In, Version 1.8.0  -->
<svg xmlns="http://www.w3.org/2000/svg" xmlns:xlink="http://www.w3.org/1999/xlink" xmlns:shaper="http://www.shapertools.com/namespaces/shaper" shaper:fusionaddin="version:1.8.0" width="1.2954cm" height="1.2954cm" version="1.1" x="0cm" y="0cm" viewBox="0 0 1.2954 1.2954" enable-background="new 0 0 1.2954 1.2954" xml:space="preserve"><path d="M-0.4200013,0.4868982 L-0.4200013,-0.7069018 A0.0508,0.0508 180 0,1 -0.3692013,-0.7577018 L0.8245987,-0.7577018 A0.0508,0.0508 270 0,1 0.8753987,-0.7069018 L0.8753987,0.4868982 A0.0508,0.0508 0 0,1 0.8245987,0.5376982 L-0.3692013,0.5376982 A0.0508,0.0508 90 0,1 -0.4200013,0.4868982z" transform="matrix(1,0,0,-1,0.4200013,0.5376982)" fill="rgb(0,0,0)" shaper:cutDepth="0.75575cm" stroke-linecap="round" stroke-linejoin="round" /><path d="M-0.4200013,0.4868982 A0.0508,0.0508 180 0,0 -0.3692013,0.5376982 L0.8245987,0.5376982 A0.0508,0.0508 90 0,0 0.8753987,0.4868982 L0.8753987,-0.7069018 A0.0508,0.0508 0 0,0 0.8245987,-0.7577018 L-0.3692013,-0.7577018 A0.0508,0.0508 270 0,0 -0.4200013,-0.7069018 L-0.4200013,0.4868982z M0.7991987,0.4106982 A0.0508,0.0508 0 0,1 0.7483987,0.4614982 L-0.2930013,0.4614982 A0.0508,0.0508 90 0,1 -0.3438013,0.4106982 L-0.3438013,-0.6307018 A0.0508,0.0508 180 0,1 -0.2930013,-0.6815018 L0.7483987,-0.6815018 A0.0508,0.0508 270 0,1 0.7991987,-0.6307018 L0.7991987,0.4106982z" transform="matrix(1,0,0,-1,0.4200013,0.5376982)" fill="rgb(178,178,178)" fill-rule="nonzero" shaper:cutDepth="0.597cm" stroke-linecap="round" stroke-linejoin="round" /><path d="M0.6483987,0.3614982 A0.0508,0.0508 90 0,0 0.6991987,0.3106982 L0.6991987,-0.5307018 A0.0508,0.0508 0 0,0 0.6483987,-0.5815018 L-0.1930013,-0.5815018 A0.0508,0.0508 270 0,0 -0.2438013,-0.5307018 L-0.2438013,0.3106982 A0.0508,0.0508 180 0,0 -0.1930013,0.3614982 L0.6483987,0.3614982z" transform="matrix(1,0,0,-1,0.4200013,0.5376982)" fill="rgb(106,106,106)" fill-rule="nonzero" shaper:cutDepth="0.0501cm" stroke-linecap="round" stroke-linejoin="round" /><path d="M0.4350326,-0.0549261 L0.5326491,-0.0549261 0.4838409,-0.218353 0.4350326,-0.0549261z" transform="matrix(1,0,0,-1,0.4200013,0.5376982)" fill="rgb(106,106,106)" fill-rule="nonzero" shaper:cutDepth="0.0501cm" stroke-linecap="round" stroke-linejoin="round" /><path d="M-0.057954,-0.1495142 L0.0047437,-0.1495142 0.0047437,-0.2762883 -0.0550835,-0.2762883 -0.0550835,-0.2762883 -0.0665269,-0.2752453 -0.072103,-0.2738462 -0.0774536,-0.2717417 -0.0825082,-0.2690072 -0.0871137,-0.2655648 -0.0912491,-0.2615722 -0.0948474,-0.2570863 -0.0978808,-0.2521902 -0.1003771,-0.2470023 -0.1039294,-0.236063 -0.1057769,-0.2247159 -0.1063976,-0.2132298 -0.1063976,-0.2132298 -0.105707,-0.2020499 -0.1038846,-0.191006 -0.1005435,-0.1803116 -0.0954271,-0.1703557 -0.092166,-0.1657982 -0.0884106,-0.161649 -0.0841281,-0.1580429 -0.0794238,-0.15501 -0.074379,-0.1525815 -0.0690458,-0.1508863 -0.0635415,-0.1498619 -0.057954,-0.1495142z" transform="matrix(1,0,0,-1,0.4200013,0.5376982)" fill="rgb(106,106,106)" fill-rule="nonzero" shaper:cutDepth="0.0501cm" stroke-linecap="round" stroke-linejoin="round" /><path d="M0.5474051,-0.0082889 L0.5621233,0.0404009 0.5621233,0.0404009 0.565356,0.0467334 0.5677235,0.0493865 0.5705917,0.0515336 0.5737965,0.0531138 0.5772086,0.0541047 0.5842924,0.0547698 0.5842924,0.0547698 0.5928842,0.0534121 0.5968807,0.0516794 0.6005164,0.0492799 0.6036917,0.046293 0.6060759,0.0426521 0.6075982,0.0385696 0.6081037,0.0342428 0.6081037,0.0342428 0.6075712,0.0292432 0.6063515,0.0243563 0.6035913,0.0146725 0.5070291,-0.3067505 0.5070291,-0.3067505 0.5040197,-0.3137184 0.501707,-0.316741 0.498858,-0.3192618 0.4955669,-0.3211673 0.4919324,-0.3223018 0.4843673,-0.3229257 0.4843673,-0.3229257 0.4798991,-0.3227817 0.4755093,-0.3219433 0.4714201,-0.3201465 0.4679091,-0.3173824 0.4652002,-0.3138378 0.4630886,-0.3098879 0.4600043,-0.3015102 0.3623553,0.0185603 0.3623553,0.0185603 0.36037,0.0257269 0.3594815,0.0330933 0.3594815,0.0330933 0.3599368,0.0375777 0.3612864,0.0418755 0.3635642,0.045762 0.3666724,0.049026 0.3703524,0.051622 0.3744952,0.0534026 0.3788789,0.054435 0.3833749,0.0547698 0.3833749,0.0547698 0.3910979,0.0540332 0.3947462,0.0526963 0.3980449,0.050643 0.4008696,0.0479787 0.4030859,0.0447823 0.4060882,0.0376358 0.4202767,-0.0082889 0.5474051,-0.0082889z M0.5326491,-0.0549261 L0.4350326,-0.0549261 0.4838409,-0.218353 0.5326491,-0.0549261z" transform="matrix(1,0,0,-1,0.4200013,0.5376982)" fill="rgb(107,107,107)" fill-rule="nonzero" shaper:cutDepth="0.05772cm" stroke-linecap="round" stroke-linejoin="round" /><path d="M0.2689988,0.0408936 L0.1027336,-0.3035511 0.1027336,-0.3035511 0.0976421,-0.31493 0.0954388,-0.3207696 0.0941915,-0.3268668 0.0941915,-0.3268668 0.0946444,-0.3314119 0.0959227,-0.3357942 0.0980078,-0.3398574 0.1009244,-0.3433705 0.1044374,-0.3462871 0.1085006,-0.3483722 0.1128829,-0.3496504 0.117428,-0.3501033 0.117428,-0.3501033 0.1238697,-0.349513 0.1298161,-0.3469898 0.1345564,-0.3426019 0.1378728,-0.3370482 0.3070471,0.0131348 0.3081822,0.0159724 0.3081822,0.0159724 0.3124597,0.0237078 0.3137122,0.0279339 0.3138296,0.0323544 0.3138296,0.0323544 0.3134133,0.036882 0.3123021,0.0412901 0.31022,0.0453293 0.3072593,0.0487775 0.303587,0.0514561 0.2994714,0.0533827 0.2950437,0.0544153 0.2905111,0.0547698 0.2905111,0.0547698 0.2836639,0.0542061 0.2803453,0.0532652 0.2772918,0.0516801 0.2746813,0.049452 0.272504,0.0467955 0.2689988,0.0408936z" transform="matrix(1,0,0,-1,0.4200013,0.5376982)" fill="rgb(107,107,107)" fill-rule="nonzero" shaper:cutDepth="0.05772cm" stroke-linecap="round" stroke-linejoin="round" /><path d="M0.0046941,0.025211 L0.0046941,0.025211 0.0053699,0.036033 0.006484,0.0413376 0.0085634,0.0463508 0.0120618,0.0504665 0.0167682,0.053148 0.022023,0.0544749 0.027438,0.0547698 0.027438,0.0547698 0.0325474,0.054584 0.0375509,0.0535411 0.0421481,0.0513129 0.0460049,0.0479665 0.0487142,0.0436373 0.0503172,0.0387796 0.0511044,0.033732 0.0512818,0.028621 0.0512492,-0.2886868 0.0512492,-0.2886868 0.0513232,-0.2959849 0.0506324,-0.303247 0.0486071,-0.3102561 0.0468393,-0.3134594 0.0444615,-0.3162326 0.0415229,-0.318407 0.0382362,-0.3200077 0.0312031,-0.3219664 0.0239613,-0.3228207 0.016662,-0.3229256 -0.0568045,-0.3229257 -0.0568045,-0.3229257 -0.0669867,-0.3223831 -0.0770628,-0.3208289 -0.0869474,-0.3183297 -0.0964665,-0.314677 -0.1055162,-0.3099829 -0.113933,-0.30423 -0.1215976,-0.2975071 -0.1284969,-0.289999 -0.134542,-0.2817916 -0.1396953,-0.2729898 -0.1438914,-0.2637028 -0.1472148,-0.2540579 -0.1497566,-0.2441887 -0.1514624,-0.2341317 -0.152515,-0.2239926 -0.1529527,-0.2138045 -0.1529527,-0.2138045 -0.1522393,-0.2002924 -0.1503524,-0.1868954 -0.1470318,-0.173778 -0.1422969,-0.1611045 -0.1362363,-0.1490062 -0.1287851,-0.1377162 -0.1199718,-0.1274485 -0.1098461,-0.1184775 -0.1098461,-0.1184775 -0.1038067,-0.1143218 -0.0973898,-0.1107765 -0.0906377,-0.1079235 -0.0836233,-0.1057903 -0.0691592,-0.1034566 -0.0545137,-0.1028769 0.0047437,-0.1028769 0.0046941,0.025211z M0.0047437,-0.2762883 L0.0047437,-0.1495142 -0.057954,-0.1495142 -0.057954,-0.1495142 -0.0635415,-0.1498619 -0.0690458,-0.1508863 -0.074379,-0.1525815 -0.0794238,-0.15501 -0.0841281,-0.1580429 -0.0884106,-0.161649 -0.092166,-0.1657982 -0.0954271,-0.1703557 -0.1005435,-0.1803116 -0.1038846,-0.191006 -0.105707,-0.2020499 -0.1063976,-0.2132298 -0.1063976,-0.2132298 -0.1057769,-0.2247159 -0.1039294,-0.236063 -0.1003771,-0.2470023 -0.0978808,-0.2521902 -0.0948474,-0.2570863 -0.0912491,-0.2615722 -0.0871137,-0.2655648 -0.0825082,-0.2690072 -0.0774536,-0.2717417 -0.072103,-0.2738462 -0.0665269,-0.2752453 -0.0550835,-0.2762883 0.0047437,-0.2762883z" transform="matrix(1,0,0,-1,0.4200013,0.5376982)" fill="rgb(107,107,107)" fill-rule="nonzero" shaper:cutDepth="0.05772cm" stroke-linecap="round" stroke-linejoin="round" /></svg>