<?xml version="1.0" encoding="utf-8"?>
<!-- Generator: Fusion 360, Shaper Origin Export Add-In, Version 1.8.0  -->
<svg xmlns="http://www.w3.org/2000/svg" xmlns:xlink="http://www.w3.org/1999/xlink" xmlns:shaper="http://www.shapertools.com/namespaces/shaper" shaper:fusionaddin="version:1.8.0" width="1.2954cm" height="1.2954cm" version="1.1" x="0cm" y="0cm" viewBox="0 0 1.2954 1.2954" enable-background="new 0 0 1.2954 1.2954" xml:space="preserve"><path d="M-0.6477,0.5969 L-0.6477,-0.5969 A0.0508,0.0508 180 0,1 -0.5969,-0.6477 L0.5969,-0.6477 A0.0508,0.0508 270 0,1 0.6477,-0.5969 L0.6477,0.5969 A0.0508,0.0508 0 0,1 0.5969,0.6477 L-0.5969,0.6477 A0.0508,0.0508 90 0,1 -0.6477,0.5969z" transform="matrix(1,0,0,-1,0.6477,0.6477)" fill="rgb(0,0,0)" shaper:cutDepth="0.75575cm" stroke-linecap="round" stroke-linejoin="round" /><path d="M-0.6477,0.5969 A0.0508,0.0508 180 0,0 -0.5969,0.6477 L0.5969,0.6477 A0.0508,0.0508 90 0,0 0.6477,0.5969 L0.6477,-0.5969 A0.0508,0.0508 0 0,0 0.5969,-0.6477 L-0.5969,-0.6477 A0.0508,0.0508 270 0,0 -0.6477,-0.5969 L-0.6477,0.5969z M0.5715,0.5207 A0.0508,0.0508 0 0,1 0.5207,0.5715 L-0.5207,0.5715 A0.0508,0.0508 90 0,1 -0.5715,0.5207 L-0.5715,-0.5207 A0.0508,0.0508 180 0,1 -0.5207,-0.5715 L0.5207,-0.5715 A0.0508,0.0508 270 0,1 0.5715,-0.5207 L0.5715,0.5207z" transform="matrix(1,0,0,-1,0.6477,0.6477)" fill="rgb(178,178,178)" fill-rule="nonzero" shaper:cutDepth="0.597cm" stroke-linecap="round" stroke-linejoin="round" /><path d="M0.4207,0.4715 A0.0508,0.0508 90 0,0 0.4715,0.4207 L0.4715,-0.4207 A0.0508,0.0508 0 0,0 0.4207,-0.4715 L-0.4207,-0.4715 A0.0508,0.0508 270 0,0 -0.4715,-0.4207 L-0.4715,0.4207 A0.0508,0.0508 180 0,0 -0.4207,0.4715 L0.4207,0.4715z" transform="matrix(1,0,0,-1,0.6477,0.6477)" fill="rgb(106,106,106)" fill-rule="nonzero" shaper:cutDepth="0.0501cm" stroke-linecap="round" stroke-linejoin="round" /><path d="M0.196648,-0.1163652 L0.196648,-0.1163652 0.1974881,-0.105213 0.20006,-0.0943374 0.2021148,-0.0891181 0.204722,-0.0841718 0.2114273,-0.0752293 0.2114273,-0.0752293 0.2170189,-0.0703111 0.2202972,-0.0685213 0.2238176,-0.0672816 0.2311601,-0.0660434 0.238605,-0.0657869 0.3147284,-0.0657869 0.3147284,-0.1662865 0.2392459,-0.1662865 0.2392459,-0.1662865 0.2318972,-0.1661247 0.2246196,-0.1651491 0.2210823,-0.1641417 0.2177538,-0.1625592 0.2120021,-0.1579938 0.2120021,-0.1579938 0.2051283,-0.1489715 0.202439,-0.1439742 0.2003201,-0.1386926 0.1976546,-0.1276684 0.196648,-0.1163652z" transform="matrix(1,0,0,-1,0.6477,0.6477)" fill="rgb(106,106,106)" fill-rule="nonzero" shaper:cutDepth="0.0501cm" stroke-linecap="round" stroke-linejoin="round" /><path d="M0.196648,0.0497387 L0.196648,0.0497387 0.197729,0.064189 0.1990284,0.0713227 0.2009247,0.0783198 0.2034625,0.0851114 0.2066445,0.0916254 0.2104518,0.0977954 0.2147938,0.1036013 0.2147938,0.1036013 0.2183312,0.1075482 0.222392,0.1109543 0.2269035,0.1137357 0.2318127,0.1157215 0.2422201,0.1176903 0.2528096,0.1181344 0.3175661,0.1181344 0.3175661,-0.0191496 0.248894,-0.0191496 0.248894,-0.0191496 0.2417555,-0.0189292 0.2347166,-0.0177544 0.2280799,-0.015127 0.2221834,-0.0111031 0.2221834,-0.0111031 0.2160312,-0.0052341 0.2107792,0.0014565 0.2063831,0.0087366 0.2028392,0.0164661 0.2001584,0.0245398 0.1981852,0.0328117 0.1970739,0.0412441 0.196648,0.0497387z" transform="matrix(1,0,0,-1,0.6477,0.6477)" fill="rgb(106,106,106)" fill-rule="nonzero" shaper:cutDepth="0.0501cm" stroke-linecap="round" stroke-linejoin="round" /><path d="M0.1841676,-0.040005 L0.1841676,-0.040005 0.176552,-0.0305337 0.1696396,-0.0205403 0.1635418,-0.0100276 0.1584199,0.0009917 0.1545436,0.0125083 0.1519511,0.0243803 0.1504798,0.0364427 0.1500929,0.0485892 0.1500929,0.0485892 0.1507743,0.0621844 0.1524654,0.0756903 0.1554764,0.0889649 0.1597483,0.1018891 0.1653162,0.1143104 0.172273,0.126006 0.1806235,0.1367578 0.1904078,0.1462152 0.1904078,0.1462152 0.1968627,0.1507665 0.2036498,0.1548049 0.2107885,0.158183 0.2182304,0.1608258 0.2258911,0.1627481 0.2336883,0.1639994 0.2494616,0.1647716 0.3334394,0.1647716 0.3334394,0.1647716 0.3394907,0.1645662 0.3454696,0.1636403 0.351179,0.1616324 0.3560552,0.1580707 0.3591995,0.152913 0.3607769,0.1470674 0.3613412,0.1410441 0.3612664,0.1349896 0.3611918,-0.1842683 0.3611918,-0.1842683 0.3610568,-0.1900897 0.3602125,-0.195843 0.358414,-0.2013821 0.3551821,-0.2062075 0.3504787,-0.2096152 0.345,-0.2115861 0.3392691,-0.2125814 0.3334571,-0.2129238 0.2352386,-0.2129239 0.2352386,-0.2129239 0.2263057,-0.2122776 0.2174653,-0.2108444 0.2088504,-0.2083959 0.2005439,-0.2050515 0.192724,-0.2006848 0.1854387,-0.1954772 0.1787479,-0.1895239 0.1727031,-0.1829155 0.1673225,-0.1757554 0.1626598,-0.1681092 0.1587967,-0.1600291 0.1557089,-0.1516221 0.1532941,-0.1429966 0.1515561,-0.1342113 0.1500929,-0.1163652 0.1500929,-0.1163652 0.1503891,-0.1058088 0.1517296,-0.0953353 0.1540905,-0.0850421 0.1576046,-0.0750848 0.1621298,-0.0655441 0.1676689,-0.0565533 0.1741229,-0.0481962 0.1813571,-0.0405027 0.1819246,-0.0405027 0.1841676,-0.040005z M0.3175661,-0.0191496 L0.3175661,0.1181344 0.2528096,0.1181344 0.2528096,0.1181344 0.2422201,0.1176903 0.2318127,0.1157215 0.2269035,0.1137357 0.222392,0.1109543 0.2183312,0.1075482 0.2147938,0.1036013 0.2147938,0.1036013 0.2104518,0.0977954 0.2066445,0.0916254 0.2034625,0.0851114 0.2009247,0.0783198 0.1990284,0.0713227 0.197729,0.064189 0.196648,0.0497387 0.196648,0.0497387 0.1970739,0.0412441 0.1981852,0.0328117 0.2001584,0.0245398 0.2028392,0.0164661 0.2063831,0.0087366 0.2107792,0.0014565 0.2160312,-0.0052341 0.2221834,-0.0111031 0.2221834,-0.0111031 0.2280799,-0.015127 0.2347166,-0.0177544 0.2417555,-0.0189292 0.248894,-0.0191496 0.3175661,-0.0191496z M0.3147284,-0.1662865 L0.3147284,-0.0657869 0.238605,-0.0657869 0.238605,-0.0657869 0.2311601,-0.0660434 0.2238176,-0.0672816 0.2202972,-0.0685213 0.2170189,-0.0703111 0.2114273,-0.0752293 0.2114273,-0.0752293 0.204722,-0.0841718 0.2021148,-0.0891181 0.20006,-0.0943374 0.1974881,-0.105213 0.196648,-0.1163652 0.196648,-0.1163652 0.1976546,-0.1276684 0.2003201,-0.1386926 0.202439,-0.1439742 0.2051283,-0.1489715 0.2120021,-0.1579938 0.2120021,-0.1579938 0.2177538,-0.1625592 0.2210823,-0.1641417 0.2246196,-0.1651491 0.2318972,-0.1661247 0.2392459,-0.1662865 0.3147284,-0.1662865z" transform="matrix(1,0,0,-1,0.6477,0.6477)" fill="rgb(107,107,107)" fill-rule="nonzero" shaper:cutDepth="0.05772cm" stroke-linecap="round" stroke-linejoin="round" /><path d="M-0.0181458,-0.2129239 L-0.0180784,-0.2129238 -0.0180784,-0.2129238 -0.0075867,-0.2122138 0.0027533,-0.2102947 0.0128098,-0.2072216 0.0224498,-0.2030215 0.0315693,-0.1977819 0.0401794,-0.1917442 0.0481837,-0.1849231 0.055669,-0.1775355 0.055669,-0.1775355 0.0681606,-0.1614049 0.0736501,-0.152801 0.0786238,-0.1438831 0.087241,-0.125389 0.0942738,-0.1062311 0.0998456,-0.0866022 0.1038885,-0.0665985 0.1064198,-0.0463518 0.1073148,-0.0259646 0.1073148,-0.0259646 0.1066207,-0.0066693 0.1045306,0.0125239 0.1011749,0.0315383 0.0964917,0.0502685 0.0904697,0.0686134 0.0830138,0.0864219 0.0740636,0.1035301 0.0636335,0.1197765 0.0636335,0.1197765 0.0561413,0.1292184 0.0478014,0.1379196 0.0385041,0.1455884 0.0284589,0.1522505 0.0176663,0.1576138 0.0062616,0.161508 -0.0055504,0.1639051 -0.017571,0.1647716 -0.017571,0.1647716 -0.0283047,0.163899 -0.0388519,0.1617177 -0.0490651,0.158303 -0.0588195,0.1537366 -0.0680294,0.1481536 -0.0766073,0.1416412 -0.0843675,0.1341736 -0.0913038,0.1259346 -0.0913038,0.1259346 -0.1020346,0.1103874 -0.1068727,0.1022776 -0.1081491,0.0977306 -0.1083822,0.0930094 -0.1083822,0.0930094 -0.1069661,0.0840909 -0.1052108,0.0799271 -0.1025992,0.0762362 -0.0991107,0.0733645 -0.0950872,0.0713076 -0.0907085,0.0701782 -0.0862131,0.0696908 -0.0862131,0.0696908 -0.0806647,0.0701888 -0.0753399,0.0717647 -0.0705311,0.0745855 -0.0669178,0.0788048 -0.0669178,0.0788048 -0.0579755,0.0928011 -0.0529493,0.0994189 -0.0473749,0.1055746 -0.040995,0.1108956 -0.0337624,0.1149588 -0.0258424,0.1174751 -0.017571,0.1181344 -0.017571,0.1181344 -0.0067725,0.1161808 0.0033111,0.1118334 0.0123397,0.1055856 0.0202321,0.0979443 0.0271815,0.0894374 0.0332325,0.0802676 0.0385953,0.0706765 0.0433587,0.0607775 0.0509665,0.04017 0.0539359,0.0295916 0.0562782,0.0188573 0.05943,-0.0028855 0.0607597,-0.0248151 0.0607597,-0.0248151 0.0594291,-0.0466901 0.056253,-0.0683742 0.0538205,-0.0790606 0.0507677,-0.0895869 0.0472258,-0.0999594 0.0430096,-0.1100749 0.0381418,-0.1198957 0.0326149,-0.1293591 0.0264161,-0.1383973 0.0194106,-0.1468262 0.0113305,-0.1542234 0.0022005,-0.1602703 -0.0079333,-0.1644508 -0.0187206,-0.1662867 -0.0187206,-0.1662867 -0.0259761,-0.1656804 -0.0329386,-0.1635365 -0.039384,-0.160141 -0.045168,-0.1557181 -0.0503351,-0.1505755 -0.0549838,-0.1449675 -0.0629766,-0.1327868 -0.0629766,-0.1327868 -0.0667607,-0.1268716 -0.0717617,-0.1219676 -0.0747892,-0.120137 -0.0780781,-0.1189093 -0.0850636,-0.1183358 -0.0850636,-0.1183358 -0.0897585,-0.1187905 -0.0943127,-0.1200154 -0.0984599,-0.1222598 -0.102051,-0.1253156 -0.1048992,-0.1290746 -0.1068898,-0.1333498 -0.1079734,-0.1379399 -0.1083822,-0.1426397 -0.1083822,-0.1426397 -0.1077376,-0.1492513 -0.1051243,-0.1553599 -0.097544,-0.1662867 -0.097544,-0.1662867 -0.0901201,-0.1757152 -0.0820586,-0.184597 -0.0732875,-0.1927918 -0.063663,-0.1999476 -0.0531562,-0.2057453 -0.041883,-0.2098361 -0.0301217,-0.2122107 -0.0181458,-0.2129239z" transform="matrix(1,0,0,-1,0.6477,0.6477)" fill="rgb(107,107,107)" fill-rule="nonzero" shaper:cutDepth="0.05772cm" stroke-linecap="round" stroke-linejoin="round" /><path d="M-0.3183316,-0.1827082 L-0.3182989,0.0462639 -0.1944104,-0.1984954 -0.1944104,-0.1984954 -0.1906903,-0.2046333 -0.1854906,-0.2095586 -0.1823291,-0.2113078 -0.178923,-0.212429 -0.1717693,-0.2129239 -0.1717693,-0.2129239 -0.1673615,-0.2126255 -0.1631068,-0.2114462 -0.1591991,-0.2093879 -0.1558404,-0.2065195 -0.1558404,-0.2065195 -0.1536731,-0.2043518 -0.1519871,-0.2018197 -0.15059,-0.1958891 -0.150175,-0.1836935 -0.1501424,0.1343314 -0.1501424,0.1343314 -0.1508426,0.1453286 -0.1519459,0.1507236 -0.153996,0.1558431 -0.1574057,0.1601498 -0.162107,0.1630061 -0.1674168,0.1644668 -0.1729188,0.1647716 -0.1729188,0.1647716 -0.1780419,0.1644141 -0.1830273,0.1631888 -0.1875453,0.1607549 -0.1912626,0.1572192 -0.193904,0.1528191 -0.1955277,0.1479456 -0.1967301,0.1377581 -0.1966805,-0.0949874 -0.3200015,0.1514874 -0.3200015,0.1514874 -0.3239021,0.1570788 -0.3290291,0.1615656 -0.3353613,0.1640755 -0.3421428,0.1647716 -0.3421428,0.1647716 -0.3471196,0.1644825 -0.3519425,0.1632325 -0.3563076,0.1608337 -0.359832,0.1573173 -0.3622715,0.1529736 -0.3638017,0.1482266 -0.3648866,0.1383329 -0.364837,-0.1847706 -0.364837,-0.1847706 -0.3641196,-0.1953598 -0.3628299,-0.2005161 -0.3604773,-0.205273 -0.3567748,-0.2090663 -0.3520523,-0.2114838 -0.3468732,-0.2126501 -0.3415681,-0.2129239 -0.3415681,-0.2129239 -0.3360072,-0.2127119 -0.3306104,-0.2113717 -0.3257613,-0.2086732 -0.3222061,-0.2044032 -0.3201027,-0.1992605 -0.3189616,-0.1938078 -0.3183316,-0.1827082z" transform="matrix(1,0,0,-1,0.6477,0.6477)" fill="rgb(107,107,107)" fill-rule="nonzero" shaper:cutDepth="0.05772cm" stroke-linecap="round" stroke-linejoin="round" /></svg>