<?xml version="1.0" encoding="utf-8"?>
<!-- Generator: Fusion 360, Shaper Origin Export Add-In, Version 1.8.0  -->
<svg xmlns="http://www.w3.org/2000/svg" xmlns:xlink="http://www.w3.org/1999/xlink" xmlns:shaper="http://www.shapertools.com/namespaces/shaper" shaper:fusionaddin="version:1.8.0" width="1.2954cm" height="1.2954cm" version="1.1" x="0cm" y="0cm" viewBox="0 0 1.2954 1.2954" enable-background="new 0 0 1.2954 1.2954" xml:space="preserve"><path d="M-0.4087502,0.4815577 L-0.4087502,-0.7122423 A0.0508,0.0508 180 0,1 -0.3579502,-0.7630423 L0.8358498,-0.7630423 A0.0508,0.0508 270 0,1 0.8866498,-0.7122423 L0.8866498,0.4815577 A0.0508,0.0508 0 0,1 0.8358498,0.5323577 L-0.3579502,0.5323577 A0.0508,0.0508 90 0,1 -0.4087502,0.4815577z" transform="matrix(1,0,0,-1,0.4087502,0.5323577)" fill="rgb(0,0,0)" shaper:cutDepth="0.75575cm" stroke-linecap="round" stroke-linejoin="round" /><path d="M-0.4087502,0.4815577 A0.0508,0.0508 180 0,0 -0.3579502,0.5323577 L0.8358498,0.5323577 A0.0508,0.0508 90 0,0 0.8866498,0.4815577 L0.8866498,-0.7122423 A0.0508,0.0508 0 0,0 0.8358498,-0.7630423 L-0.3579502,-0.7630423 A0.0508,0.0508 270 0,0 -0.4087502,-0.7122423 L-0.4087502,0.4815577z M0.8104498,0.4053577 A0.0508,0.0508 0 0,1 0.7596498,0.4561577 L-0.2817502,0.4561577 A0.0508,0.0508 90 0,1 -0.3325502,0.4053577 L-0.3325502,-0.6360423 A0.0508,0.0508 180 0,1 -0.2817502,-0.6868423 L0.7596498,-0.6868423 A0.0508,0.0508 270 0,1 0.8104498,-0.6360423 L0.8104498,0.4053577z" transform="matrix(1,0,0,-1,0.4087502,0.5323577)" fill="rgb(178,178,178)" fill-rule="nonzero" shaper:cutDepth="0.597cm" stroke-linecap="round" stroke-linejoin="round" /><path d="M0.6596498,0.3561577 A0.0508,0.0508 90 0,0 0.7104498,0.3053577 L0.7104498,-0.5360423 A0.0508,0.0508 0 0,0 0.6596498,-0.5868423 L-0.1817502,-0.5868423 A0.0508,0.0508 270 0,0 -0.2325502,-0.5360423 L-0.2325502,0.3053577 A0.0508,0.0508 180 0,0 -0.1817502,0.3561577 L0.6596498,0.3561577z" transform="matrix(1,0,0,-1,0.4087502,0.5323577)" fill="rgb(106,106,106)" fill-rule="nonzero" shaper:cutDepth="0.0501cm" stroke-linecap="round" stroke-linejoin="round" /><path d="M0.4450402,-0.2087173 L0.4450402,-0.2087173 0.4405005,-0.1907227 0.4392569,-0.1815246 0.4386826,-0.1722625 0.4382252,-0.1351488 0.4382252,-0.1351488 0.4382667,-0.1125804 0.4388694,-0.1013158 0.4405242,-0.0901538 0.4405242,-0.0901538 0.4450748,-0.0705086 0.4481131,-0.0608909 0.4517235,-0.0514738 0.4558868,-0.0422876 0.4605899,-0.0333652 0.4659879,-0.0248463 0.4718894,-0.0166674 0.4718894,-0.0166674 0.4801854,-0.0075873 0.4851324,-0.0039259 0.4905913,-0.001085 0.4964351,0.0008467 0.5024721,0.0020571 0.5147496,0.0027921 0.5598763,0.0027921 0.5598763,-0.2816288 0.5141975,-0.2816288 0.5141975,-0.2816288 0.5063991,-0.2814336 0.4986623,-0.280481 0.4912471,-0.2780668 0.4844519,-0.2742393 0.4844519,-0.2742393 0.4770798,-0.267924 0.4705971,-0.2606912 0.4648968,-0.2528324 0.4598398,-0.24454 0.4553427,-0.2359347 0.4513904,-0.2270624 0.4450402,-0.2087173z" transform="matrix(1,0,0,-1,0.4087502,0.5323577)" fill="rgb(106,106,106)" fill-rule="nonzero" shaper:cutDepth="0.0501cm" stroke-linecap="round" stroke-linejoin="round" /><path d="M0.5153243,-0.3282662 L0.5153243,-0.3282662 0.5041675,-0.3277299 0.4931236,-0.3260651 0.4823398,-0.3231561 0.4719749,-0.3189952 0.4621465,-0.3136913 0.4530341,-0.3072307 0.4446363,-0.2998688 0.4370757,-0.2916461 0.4370757,-0.2916461 0.4250768,-0.2755995 0.4149898,-0.2582822 0.406839,-0.2399805 0.4007102,-0.2209005 0.3964008,-0.2013324 0.3935967,-0.1814867 0.3920698,-0.1615083 0.3916701,-0.1414711 0.3916701,-0.1414711 0.3924859,-0.1119495 0.393694,-0.097228 0.3957324,-0.0826028 0.3987021,-0.0681347 0.4026561,-0.0539066 0.4075164,-0.0399601 0.4132645,-0.0263561 0.4132645,-0.0263561 0.4208533,-0.0113668 0.4296941,0.0029187 0.4399836,0.0161958 0.4520059,0.0279214 0.4586803,0.0330297 0.4657883,0.0375028 0.4733048,0.0412608 0.4811153,0.0443558 0.4891956,0.0466574 0.4974526,0.0482097 0.5057991,0.0491773 0.5141975,0.0494293 0.5785473,0.0494293 0.5785473,0.0494293 0.5851407,0.0490683 0.5916576,0.0479894 0.5977396,0.0454398 0.6003809,0.0434374 0.6025053,0.0409146 0.6051179,0.0348509 0.6062824,0.0283519 0.6064143,0.0151519 0.6063818,-0.2988716 0.6063818,-0.2988716 0.6063654,-0.3048937 0.6055388,-0.3108578 0.6034288,-0.3164938 0.5999001,-0.3213658 0.5950627,-0.3249391 0.589428,-0.3270624 0.5834881,-0.3280378 0.5774699,-0.3282661 0.5153243,-0.3282662z M0.5598763,-0.2816288 L0.5598763,0.0027921 0.5147496,0.0027921 0.5147496,0.0027921 0.5024721,0.0020571 0.4964351,0.0008467 0.4905913,-0.001085 0.4851324,-0.0039259 0.4801854,-0.0075873 0.4718894,-0.0166674 0.4718894,-0.0166674 0.4659879,-0.0248463 0.4605899,-0.0333652 0.4558868,-0.0422876 0.4517235,-0.0514738 0.4481131,-0.0608909 0.4450748,-0.0705086 0.4405242,-0.0901538 0.4405242,-0.0901538 0.4388694,-0.1013158 0.4382667,-0.1125804 0.4382252,-0.1351488 0.4382252,-0.1351488 0.4386826,-0.1722625 0.4392569,-0.1815246 0.4405005,-0.1907227 0.4450402,-0.2087173 0.4450402,-0.2087173 0.4513904,-0.2270624 0.4553427,-0.2359347 0.4598398,-0.24454 0.4648968,-0.2528324 0.4705971,-0.2606912 0.4770798,-0.267924 0.4844519,-0.2742393 0.4844519,-0.2742393 0.4912471,-0.2780668 0.4986623,-0.280481 0.5063991,-0.2814336 0.5141975,-0.2816288 0.5598763,-0.2816288z" transform="matrix(1,0,0,-1,0.4087502,0.5323577)" fill="rgb(107,107,107)" fill-rule="nonzero" shaper:cutDepth="0.05772cm" stroke-linecap="round" stroke-linejoin="round" /><path d="M0.303897,0.0355531 L0.1376318,-0.3088916 0.1376318,-0.3088916 0.1325402,-0.3202705 0.130337,-0.3261101 0.1290897,-0.3322073 0.1290897,-0.3322073 0.1295426,-0.3367524 0.1308209,-0.3411347 0.1329059,-0.3451979 0.1358225,-0.348711 0.1393356,-0.3516276 0.1433988,-0.3537126 0.1477811,-0.3549909 0.1523262,-0.3554438 0.1523262,-0.3554438 0.1587679,-0.3548535 0.1647143,-0.3523303 0.1694546,-0.3479424 0.172771,-0.3423887 0.3419453,0.0077943 0.3430803,0.0106319 0.3430803,0.0106319 0.3473579,0.0183673 0.3486103,0.0225935 0.3487278,0.0270139 0.3487278,0.0270139 0.3483115,0.0315415 0.3472002,0.0359496 0.3451182,0.0399888 0.3421575,0.043437 0.3384852,0.0461156 0.3343695,0.0480422 0.3299419,0.0490748 0.3254092,0.0494293 0.3254092,0.0494293 0.3185621,0.0488656 0.3152435,0.0479247 0.3121899,0.0463396 0.3095795,0.0441115 0.3074021,0.041455 0.303897,0.0355531z" transform="matrix(1,0,0,-1,0.4087502,0.5323577)" fill="rgb(107,107,107)" fill-rule="nonzero" shaper:cutDepth="0.05772cm" stroke-linecap="round" stroke-linejoin="round" /><path d="M-0.1063952,0.008047 L0.040085,0.008047 0.040085,-0.3029047 0.040085,-0.3029047 0.0410544,-0.3126541 0.042644,-0.317294 0.0452126,-0.3214737 0.0488384,-0.3247673 0.0532114,-0.326982 0.0580133,-0.3279884 0.0629109,-0.3282662 0.0629109,-0.3282662 0.0677764,-0.327986 0.0725312,-0.3269238 0.0768795,-0.3247286 0.0804588,-0.3214352 0.0829449,-0.3172406 0.0845422,-0.3126392 0.0857368,-0.302977 0.0857369,0.0214809 0.0857369,0.0214809 0.0857966,0.0272358 0.0850586,0.0329389 0.083154,0.038366 0.0797612,0.0429988 0.0749891,0.0462001 0.0695602,0.0481075 0.0638935,0.0490875 0.0581486,0.0494293 -0.103502,0.0494293 -0.103502,0.0494293 -0.1100579,0.0494055 -0.1165765,0.0488545 -0.1165765,0.0488545 -0.1229848,0.0464201 -0.1280442,0.0417912 -0.129978,0.0389247 -0.1313393,0.0357607 -0.1325054,0.0289845 -0.1325054,0.0289845 -0.1316004,0.0229554 -0.1291549,0.0173833 -0.1252878,0.0126551 -0.1200251,0.009607 -0.1200251,0.009607 -0.1132872,0.0082551 -0.1063952,0.008047z" transform="matrix(1,0,0,-1,0.4087502,0.5323577)" fill="rgb(107,107,107)" fill-rule="nonzero" shaper:cutDepth="0.05772cm" stroke-linecap="round" stroke-linejoin="round" /></svg>