<?xml version="1.0" encoding="utf-8"?>
<!-- Generator: Fusion 360, Shaper Origin Export Add-In, Version 1.8.0  -->
<svg xmlns="http://www.w3.org/2000/svg" xmlns:xlink="http://www.w3.org/1999/xlink" xmlns:shaper="http://www.shapertools.com/namespaces/shaper" shaper:fusionaddin="version:1.8.0" width="1.2954cm" height="1.2954cm" version="1.1" x="0cm" y="0cm" viewBox="0 0 1.2954 1.2954" enable-background="new 0 0 1.2954 1.2954" xml:space="preserve"><path d="M-0.6477,0.5969 L-0.6477,-0.5969 A0.0508,0.0508 180 0,1 -0.5969,-0.6477 L0.5969,-0.6477 A0.0508,0.0508 270 0,1 0.6477,-0.5969 L0.6477,0.5969 A0.0508,0.0508 0 0,1 0.5969,0.6477 L-0.5969,0.6477 A0.0508,0.0508 90 0,1 -0.6477,0.5969z" transform="matrix(1,0,0,-1,0.6477,0.6477)" fill="rgb(0,0,0)" shaper:cutDepth="0.75575cm" stroke-linecap="round" stroke-linejoin="round" /><path d="M-0.6477,0.5969 A0.0508,0.0508 180 0,0 -0.5969,0.6477 L0.5969,0.6477 A0.0508,0.0508 90 0,0 0.6477,0.5969 L0.6477,-0.5969 A0.0508,0.0508 0 0,0 0.5969,-0.6477 L-0.5969,-0.6477 A0.0508,0.0508 270 0,0 -0.6477,-0.5969 L-0.6477,0.5969z M0.5715,0.5207 A0.0508,0.0508 0 0,1 0.5207,0.5715 L-0.5207,0.5715 A0.0508,0.0508 90 0,1 -0.5715,0.5207 L-0.5715,-0.5207 A0.0508,0.0508 180 0,1 -0.5207,-0.5715 L0.5207,-0.5715 A0.0508,0.0508 270 0,1 0.5715,-0.5207 L0.5715,0.5207z" transform="matrix(1,0,0,-1,0.6477,0.6477)" fill="rgb(178,178,178)" fill-rule="nonzero" shaper:cutDepth="0.597cm" stroke-linecap="round" stroke-linejoin="round" /><path d="M0.4207,0.4715 A0.0508,0.0508 90 0,0 0.4715,0.4207 L0.4715,-0.4207 A0.0508,0.0508 0 0,0 0.4207,-0.4715 L-0.4207,-0.4715 A0.0508,0.0508 270 0,0 -0.4715,-0.4207 L-0.4715,0.4207 A0.0508,0.0508 180 0,0 -0.4207,0.4715 L0.4207,0.4715z" transform="matrix(1,0,0,-1,0.6477,0.6477)" fill="rgb(106,106,106)" fill-rule="nonzero" shaper:cutDepth="0.0501cm" stroke-linecap="round" stroke-linejoin="round" /><path d="M0.2346638,0.1388255 L0.2346638,0.1388255 0.2355258,0.1487031 0.2369727,0.1534628 0.2393805,0.1577989 0.2428989,0.1613028 0.2473481,0.1634993 0.2521965,0.1645689 0.2571613,0.1647716 0.2571613,0.1647716 0.262551,0.1643095 0.2677742,0.1629075 0.2725284,0.1603287 0.276703,0.1568892 0.276703,0.1568892 0.2791484,0.1529105 0.2799957,0.1482794 0.2803158,0.1388817 0.2803157,-0.1859104 0.2803157,-0.1859104 0.2794858,-0.1961888 0.2780742,-0.2011682 0.2756005,-0.2056882 0.2719637,-0.2093569 0.2673737,-0.2117099 0.2623261,-0.2127945 0.2571613,-0.2129239 0.2571613,-0.2129239 0.2522652,-0.2127284 0.2474792,-0.2116958 0.2430667,-0.209576 0.2395051,-0.2062194 0.2370416,-0.2019917 0.2355436,-0.1973223 0.2347974,-0.1924857 0.2346638,-0.1875855 0.2346638,0.1388255z" transform="matrix(1,0,0,-1,0.6477,0.6477)" fill="rgb(107,107,107)" fill-rule="nonzero" shaper:cutDepth="0.05772cm" stroke-linecap="round" stroke-linejoin="round" /><path d="M0.144838,-0.0710418 L0.0477867,-0.0710418 0.0477867,-0.0710418 0.0367732,-0.0703841 0.0314082,-0.0690451 0.0264113,-0.066703 0.022242,-0.0630844 0.0194488,-0.0583298 0.0180312,-0.0529937 0.0177353,-0.0474768 0.0177353,-0.0474768 0.0181126,-0.0418685 0.0196033,-0.0364529 0.0225679,-0.0316877 0.0270235,-0.0282968 0.0322578,-0.0262213 0.0377509,-0.0250677 0.0489737,-0.0244045 0.1448875,-0.0244045 0.144838,0.1341454 0.144838,0.1341454 0.1455351,0.1451984 0.1467027,0.1506125 0.1488018,0.1557427 0.1522589,0.1600491 0.1569688,0.1629505 0.1622982,0.164451 0.1678281,0.1647716 0.1678281,0.1647716 0.1733917,0.164375 0.1787886,0.1629804 0.1835297,0.160052 0.1871171,0.1557976 0.1894042,0.1507087 0.1907063,0.1452843 0.1914752,0.1341611 0.1914752,-0.1813124 0.1914752,-0.1813124 0.1912789,-0.1878568 0.1902434,-0.1943142 0.1880458,-0.2004822 0.1843277,-0.2058575 0.1791405,-0.2098349 0.1730379,-0.2121893 0.1665519,-0.2130506 0.1600075,-0.2129238 0.0063223,-0.2129239 0.0063223,-0.2129239 -0.0039016,-0.2117539 -0.0088369,-0.2102433 -0.0133047,-0.2077011 -0.0170303,-0.2041376 -0.0196001,-0.1996791 -0.0210554,-0.1947384 -0.0215122,-0.1896053 -0.0215122,-0.1896053 -0.0211509,-0.1844181 -0.019781,-0.1794064 -0.0172605,-0.1748661 -0.013515,-0.171267 -0.0089449,-0.1687978 -0.0039737,-0.1672631 0.0063589,-0.1662865 0.144838,-0.1662865 0.144838,-0.0710418z" transform="matrix(1,0,0,-1,0.6477,0.6477)" fill="rgb(107,107,107)" fill-rule="nonzero" shaper:cutDepth="0.05772cm" stroke-linecap="round" stroke-linejoin="round" /><path d="M-0.1126518,-0.0710418 L-0.2097031,-0.0710418 -0.2097031,-0.0710418 -0.2207166,-0.0703841 -0.2260815,-0.0690451 -0.2310784,-0.066703 -0.2352477,-0.0630844 -0.2380409,-0.0583298 -0.2394585,-0.0529937 -0.2397545,-0.0474768 -0.2397545,-0.0474768 -0.2393771,-0.0418685 -0.2378865,-0.0364529 -0.2349219,-0.0316877 -0.2304663,-0.0282968 -0.2252319,-0.0262213 -0.2197389,-0.0250677 -0.208516,-0.0244045 -0.1126022,-0.0244045 -0.1126518,0.1341454 -0.1126518,0.1341454 -0.1119546,0.1451984 -0.110787,0.1506125 -0.108688,0.1557427 -0.1052308,0.1600491 -0.1005209,0.1629505 -0.0951916,0.164451 -0.0896616,0.1647716 -0.0896616,0.1647716 -0.084098,0.164375 -0.0787012,0.1629804 -0.07396,0.160052 -0.0703727,0.1557976 -0.0680855,0.1507087 -0.0667834,0.1452843 -0.0660145,0.1341611 -0.0660146,-0.1813124 -0.0660146,-0.1813124 -0.0662108,-0.1878568 -0.0672464,-0.1943142 -0.069444,-0.2004822 -0.073162,-0.2058575 -0.0783493,-0.2098349 -0.0844518,-0.2121893 -0.0909379,-0.2130506 -0.0974823,-0.2129238 -0.2511675,-0.2129239 -0.2511675,-0.2129239 -0.2613914,-0.2117539 -0.2663267,-0.2102433 -0.2707944,-0.2077011 -0.2745201,-0.2041376 -0.2770899,-0.1996791 -0.2785451,-0.1947384 -0.279002,-0.1896053 -0.279002,-0.1896053 -0.2786406,-0.1844181 -0.2772707,-0.1794064 -0.2747503,-0.1748661 -0.2710047,-0.171267 -0.2664346,-0.1687978 -0.2614635,-0.1672631 -0.2511309,-0.1662865 -0.1126518,-0.1662865 -0.1126518,-0.0710418z" transform="matrix(1,0,0,-1,0.6477,0.6477)" fill="rgb(107,107,107)" fill-rule="nonzero" shaper:cutDepth="0.05772cm" stroke-linecap="round" stroke-linejoin="round" /></svg>