<?xml version="1.0" encoding="utf-8"?>
<!-- Generator: Fusion 360, Shaper Origin Export Add-In, Version 1.8.0  -->
<svg xmlns="http://www.w3.org/2000/svg" xmlns:xlink="http://www.w3.org/1999/xlink" xmlns:shaper="http://www.shapertools.com/namespaces/shaper" shaper:fusionaddin="version:1.8.0" width="1.2954cm" height="1.2954cm" version="1.1" x="0cm" y="0cm" viewBox="0 0 1.2954 1.2954" enable-background="new 0 0 1.2954 1.2954" xml:space="preserve"><path d="M-0.6477001,0.8329354 L-0.6477001,-0.3608646 A0.0508,0.0508 180 0,1 -0.5969001,-0.4116646 L0.5968999,-0.4116646 A0.0508,0.0508 270 0,1 0.6476999,-0.3608646 L0.6476999,0.8329354 A0.0508,0.0508 0 0,1 0.5968999,0.8837354 L-0.5969001,0.8837354 A0.0508,0.0508 90 0,1 -0.6477001,0.8329354z" transform="matrix(1,0,0,-1,0.6477001,0.8837354)" fill="rgb(0,0,0)" shaper:cutDepth="0.75575cm" stroke-linecap="round" stroke-linejoin="round" /><path d="M-0.6477001,0.8329354 A0.0508,0.0508 180 0,0 -0.5969001,0.8837354 L0.5968999,0.8837354 A0.0508,0.0508 90 0,0 0.6476999,0.8329354 L0.6476999,-0.3608646 A0.0508,0.0508 0 0,0 0.5968999,-0.4116646 L-0.5969001,-0.4116646 A0.0508,0.0508 270 0,0 -0.6477001,-0.3608646 L-0.6477001,0.8329354z M0.5714999,0.7567354 A0.0508,0.0508 0 0,1 0.5206999,0.8075354 L-0.5207001,0.8075354 A0.0508,0.0508 90 0,1 -0.5715001,0.7567354 L-0.5715001,-0.2846646 A0.0508,0.0508 180 0,1 -0.5207001,-0.3354646 L0.5206999,-0.3354646 A0.0508,0.0508 270 0,1 0.5714999,-0.2846646 L0.5714999,0.7567354z" transform="matrix(1,0,0,-1,0.6477001,0.8837354)" fill="rgb(178,178,178)" fill-rule="nonzero" shaper:cutDepth="0.597cm" stroke-linecap="round" stroke-linejoin="round" /><path d="M0.4206999,0.7075354 A0.0508,0.0508 90 0,0 0.4714999,0.6567354 L0.4714999,-0.1846646 A0.0508,0.0508 0 0,0 0.4206999,-0.2354646 L-0.4207001,-0.2354646 A0.0508,0.0508 270 0,0 -0.4715001,-0.1846646 L-0.4715001,0.6567354 A0.0508,0.0508 180 0,0 -0.4207001,0.7075354 L0.4206999,0.7075354z" transform="matrix(1,0,0,-1,0.6477001,0.8837354)" fill="rgb(106,106,106)" fill-rule="nonzero" shaper:cutDepth="0.0501cm" stroke-linecap="round" stroke-linejoin="round" /><path d="M0.1263739,0.1441405 L0.1263739,0.1441405 0.1312848,0.1436146 0.1360425,0.1422748 0.1405805,0.1403244 0.1448044,0.1377623 0.1522832,0.1313153 0.1587038,0.1238086 0.1587038,0.1238086 0.1659048,0.1117106 0.1711274,0.0986231 0.1749593,0.0850665 0.1777375,0.0712541 0.1796976,0.0573011 0.1809637,0.0432689 0.1819095,0.0151083 0.1819095,0.0151083 0.1810051,-0.0112099 0.179762,-0.0243202 0.1778888,-0.0373543 0.175337,-0.0502745 0.1719168,-0.0629874 0.1673819,-0.0753552 0.1612184,-0.0869824 0.1612184,-0.0869824 0.1542842,-0.0952248 0.1459092,-0.1020021 0.1412958,-0.1048288 0.1364086,-0.1070778 0.1312415,-0.1085567 0.1259012,-0.1093234 0.1259012,-0.1093234 0.1200705,-0.108619 0.1145181,-0.1066821 0.1093631,-0.1038528 0.1046104,-0.1003958 0.0963121,-0.0920883 0.0895896,-0.0824562 0.0895896,-0.0824562 0.0842146,-0.0709335 0.0800969,-0.0589001 0.0769308,-0.0465826 0.0745951,-0.0340825 0.071819,-0.0088037 0.070982,0.016617 0.070982,0.016617 0.0717616,0.0432821 0.0728484,0.0565804 0.0745581,0.0698083 0.0770291,0.0829209 0.0804572,0.0958074 0.0850253,0.1083468 0.0910984,0.1202164 0.0910984,0.1202164 0.0977004,0.1290775 0.105962,0.1364199 0.1156064,0.1418145 0.120883,0.1434798 0.1263739,0.1441405z" transform="matrix(1,0,0,-1,0.6477001,0.8837354)" fill="rgb(106,106,106)" fill-rule="nonzero" shaper:cutDepth="0.0501cm" stroke-linecap="round" stroke-linejoin="round" /><path d="M0.2459227,0.5251405 L0.2459227,0.5251405 0.2508337,0.5246146 0.2555913,0.5232748 0.2601293,0.5213244 0.2643532,0.5187623 0.271832,0.5123153 0.2782526,0.5048086 0.2782526,0.5048086 0.2854536,0.4927106 0.2906762,0.4796231 0.2945082,0.4660665 0.2972863,0.4522541 0.2992464,0.4383011 0.3005125,0.4242689 0.3014583,0.3961083 0.3014583,0.3961083 0.3005539,0.3697901 0.2993109,0.3566798 0.2974376,0.3436457 0.2948859,0.3307255 0.2914656,0.3180126 0.2869307,0.3056448 0.2807672,0.2940176 0.2807672,0.2940176 0.273833,0.2857752 0.265458,0.2789979 0.2608446,0.2761712 0.2559574,0.2739222 0.2507903,0.2724433 0.24545,0.2716766 0.24545,0.2716766 0.2396193,0.272381 0.2340669,0.2743179 0.2289119,0.2771472 0.2241593,0.2806042 0.2158609,0.2889117 0.2091385,0.2985438 0.2091385,0.2985438 0.2037634,0.3100665 0.1996457,0.3220999 0.1964796,0.3344174 0.1941439,0.3469175 0.1913678,0.3721963 0.1905308,0.397617 0.1905308,0.397617 0.1913104,0.4242821 0.1923972,0.4375804 0.1941069,0.4508083 0.1965779,0.4639209 0.200006,0.4768074 0.2045741,0.4893468 0.2106472,0.5012164 0.2106472,0.5012164 0.2172492,0.5100775 0.2255108,0.5174199 0.2351552,0.5228145 0.2404318,0.5244798 0.2459227,0.5251405z" transform="matrix(1,0,0,-1,0.6477001,0.8837354)" fill="rgb(106,106,106)" fill-rule="nonzero" shaper:cutDepth="0.0501cm" stroke-linecap="round" stroke-linejoin="round" /><path d="M0.125871,-0.1501335 L0.125871,-0.1501335 0.1183928,-0.149646 0.1110104,-0.1483477 0.1037951,-0.1463249 0.096808,-0.1436097 0.0900738,-0.1403219 0.0836724,-0.136422 0.0776036,-0.1320249 0.071916,-0.1271433 0.071916,-0.1271433 0.0653695,-0.1200019 0.0594772,-0.1123062 0.0542987,-0.1041206 0.0497561,-0.0955602 0.0425496,-0.0775796 0.0374221,-0.0588963 0.0338573,-0.0398496 0.0316688,-0.0205956 0.0304951,-0.0012518 0.0301745,0.0181257 0.0301745,0.0181257 0.0304785,0.0366275 0.0315946,0.0550963 0.033609,0.0734897 0.0368825,0.0916994 0.0416529,0.1095756 0.0482464,0.1268617 0.0523223,0.135175 0.056985,0.1431735 0.0680364,0.1580065 0.0680364,0.1580065 0.0737404,0.1637231 0.0799324,0.1689072 0.0866577,0.1733775 0.093752,0.1772359 0.1011719,0.1804257 0.1088924,0.1827876 0.116811,0.1843802 0.1248652,0.1849481 0.1248652,0.1849481 0.1338235,0.1842686 0.1426067,0.1823569 0.1511383,0.1795423 0.1593247,0.1758336 0.1671455,0.1714069 0.1745635,0.166335 0.1814263,0.1605333 0.1878007,0.1541987 0.1878007,0.1541987 0.1935483,0.1468952 0.1985635,0.1390712 0.2028384,0.1308185 0.2065521,0.1222982 0.2123591,0.1046457 0.2164801,0.0865196 0.2194239,0.0681628 0.2213555,0.0496725 0.2223532,0.0311093 0.222717,0.0125219 0.222717,0.0125219 0.2223191,-0.0047055 0.2211808,-0.0218973 0.2190964,-0.0390043 0.2159183,-0.0559377 0.211503,-0.0725956 0.2056006,-0.0887791 0.197908,-0.1041999 0.1882318,-0.1184502 0.1882318,-0.1184502 0.1821331,-0.1250536 0.1753986,-0.1310061 0.1680967,-0.1362485 0.1603377,-0.1407865 0.1521798,-0.1445612 0.1436801,-0.1474822 0.1348942,-0.1493833 0.1259386,-0.1501334 0.125871,-0.1501335z M0.070982,0.016617 L0.070982,0.016617 0.071819,-0.0088037 0.0745951,-0.0340825 0.0769308,-0.0465826 0.0800969,-0.0589001 0.0842146,-0.0709335 0.0895896,-0.0824562 0.0895896,-0.0824562 0.0963121,-0.0920883 0.1046104,-0.1003958 0.1093631,-0.1038528 0.1145181,-0.1066821 0.1200705,-0.108619 0.1259012,-0.1093234 0.1259012,-0.1093234 0.1312415,-0.1085567 0.1364086,-0.1070778 0.1412958,-0.1048288 0.1459092,-0.1020021 0.1542842,-0.0952248 0.1612184,-0.0869824 0.1612184,-0.0869824 0.1673819,-0.0753552 0.1719168,-0.0629874 0.175337,-0.0502745 0.1778888,-0.0373543 0.179762,-0.0243202 0.1810051,-0.0112099 0.1819095,0.0151083 0.1819095,0.0151083 0.1809637,0.0432689 0.1796976,0.0573011 0.1777375,0.0712541 0.1749593,0.0850665 0.1711274,0.0986231 0.1659048,0.1117106 0.1587038,0.1238086 0.1587038,0.1238086 0.1522832,0.1313153 0.1448044,0.1377623 0.1405805,0.1403244 0.1360425,0.1422748 0.1312848,0.1436146 0.1263739,0.1441405 0.1263739,0.1441405 0.120883,0.1434798 0.1156064,0.1418145 0.105962,0.1364199 0.0977004,0.1290775 0.0910984,0.1202164 0.0910984,0.1202164 0.0850253,0.1083468 0.0804572,0.0958074 0.0770291,0.0829209 0.0745581,0.0698083 0.0728484,0.0565804 0.0717616,0.0432821 0.070982,0.016617z" transform="matrix(1,0,0,-1,0.6477001,0.8837354)" fill="rgb(107,107,107)" fill-rule="nonzero" shaper:cutDepth="0.05772cm" stroke-linecap="round" stroke-linejoin="round" /><path d="M-0.1681875,-0.1190968 L-0.1681589,0.0812538 -0.0597564,-0.1329105 -0.0597564,-0.1329105 -0.0565014,-0.1382812 -0.0519517,-0.1425909 -0.046205,-0.1451024 -0.0399455,-0.1455355 -0.0399455,-0.1455355 -0.0360886,-0.1452744 -0.0323658,-0.1442425 -0.0289466,-0.1424414 -0.0260077,-0.1399316 -0.0260077,-0.1399316 -0.0226361,-0.1358193 -0.0214136,-0.13063 -0.0210505,-0.1199589 -0.021022,0.1583129 -0.021022,0.1583129 -0.0216346,0.1679355 -0.0226001,0.1726561 -0.0243939,0.1771357 -0.0273774,0.180904 -0.031491,0.1834033 -0.0361371,0.1846814 -0.0409513,0.1849481 -0.0409513,0.1849481 -0.0454341,0.1846352 -0.0497963,0.1835631 -0.0537495,0.1814335 -0.0570021,0.1783398 -0.0593133,0.1744897 -0.0607341,0.1702253 -0.0617862,0.1613113 -0.0617428,-0.042341 -0.1696487,0.1733244 -0.1696487,0.1733244 -0.1730617,0.1782169 -0.1775478,0.1821428 -0.1830885,0.184339 -0.1890223,0.1849481 -0.1890223,0.1849481 -0.193377,0.1846951 -0.1975971,0.1836013 -0.2014165,0.1815024 -0.2045004,0.1784256 -0.2066349,0.1746248 -0.2079739,0.1704712 -0.2089232,0.1618142 -0.2088797,-0.1209013 -0.2088797,-0.1209013 -0.208252,-0.1301669 -0.2071235,-0.1346786 -0.205065,-0.138841 -0.2018253,-0.1421601 -0.1976932,-0.1442754 -0.1931614,-0.1452959 -0.1885194,-0.1455355 -0.1885194,-0.1455355 -0.1836537,-0.14535 -0.1789315,-0.1441773 -0.1746885,-0.1418162 -0.1715777,-0.1380799 -0.1697372,-0.13358 -0.1687388,-0.1288089 -0.1681875,-0.1190968z" transform="matrix(1,0,0,-1,0.6477001,0.8837354)" fill="rgb(107,107,107)" fill-rule="nonzero" shaper:cutDepth="0.05772cm" stroke-linecap="round" stroke-linejoin="round" /><path d="M0.2454198,0.2308665 L0.2454198,0.2308665 0.2379416,0.231354 0.2305592,0.2326523 0.223344,0.2346751 0.2163569,0.2373903 0.2096226,0.2406781 0.2032212,0.244578 0.1971524,0.2489751 0.1914648,0.2538567 0.1914648,0.2538567 0.1849183,0.2609981 0.179026,0.2686938 0.1738475,0.2768794 0.1693049,0.2854398 0.1620984,0.3034204 0.1569709,0.3221037 0.1534061,0.3411504 0.1512177,0.3604044 0.1500439,0.3797482 0.1497233,0.3991257 0.1497233,0.3991257 0.1500273,0.4176275 0.1511434,0.4360963 0.1531578,0.4544897 0.1564313,0.4726994 0.1612018,0.4905756 0.1677952,0.5078617 0.1718711,0.516175 0.1765338,0.5241735 0.1875852,0.5390065 0.1875852,0.5390065 0.1932892,0.5447231 0.1994812,0.5499072 0.2062065,0.5543775 0.2133008,0.5582359 0.2207207,0.5614257 0.2284412,0.5637876 0.2363598,0.5653802 0.244414,0.5659481 0.244414,0.5659481 0.2533723,0.5652686 0.2621555,0.5633569 0.2706871,0.5605423 0.2788735,0.5568336 0.2866943,0.5524069 0.2941123,0.547335 0.3009752,0.5415333 0.3073495,0.5351987 0.3073495,0.5351987 0.3130971,0.5278952 0.3181124,0.5200712 0.3223873,0.5118185 0.3261009,0.5032982 0.3319079,0.4856457 0.336029,0.4675196 0.3389727,0.4491628 0.3409043,0.4306725 0.341902,0.4121093 0.3422658,0.3935219 0.3422658,0.3935219 0.3418679,0.3762945 0.3407297,0.3591027 0.3386452,0.3419957 0.3354671,0.3250623 0.3310518,0.3084044 0.3251494,0.2922209 0.3174568,0.2768001 0.3077806,0.2625498 0.3077806,0.2625498 0.301682,0.2559464 0.2949475,0.2499939 0.2876455,0.2447515 0.2798865,0.2402135 0.2717287,0.2364388 0.2632289,0.2335178 0.254443,0.2316167 0.2454874,0.2308666 0.2454198,0.2308665z M0.1905308,0.397617 L0.1905308,0.397617 0.1913678,0.3721963 0.1941439,0.3469175 0.1964796,0.3344174 0.1996457,0.3220999 0.2037634,0.3100665 0.2091385,0.2985438 0.2091385,0.2985438 0.2158609,0.2889117 0.2241593,0.2806042 0.2289119,0.2771472 0.2340669,0.2743179 0.2396193,0.272381 0.24545,0.2716766 0.24545,0.2716766 0.2507903,0.2724433 0.2559574,0.2739222 0.2608446,0.2761712 0.265458,0.2789979 0.273833,0.2857752 0.2807672,0.2940176 0.2807672,0.2940176 0.2869307,0.3056448 0.2914656,0.3180126 0.2948859,0.3307255 0.2974376,0.3436457 0.2993109,0.3566798 0.3005539,0.3697901 0.3014583,0.3961083 0.3014583,0.3961083 0.3005125,0.4242689 0.2992464,0.4383011 0.2972863,0.4522541 0.2945082,0.4660665 0.2906762,0.4796231 0.2854536,0.4927106 0.2782526,0.5048086 0.2782526,0.5048086 0.271832,0.5123153 0.2643532,0.5187623 0.2601293,0.5213244 0.2555913,0.5232748 0.2508337,0.5246146 0.2459227,0.5251405 0.2459227,0.5251405 0.2404318,0.5244798 0.2351552,0.5228145 0.2255108,0.5174199 0.2172492,0.5100775 0.2106472,0.5012164 0.2106472,0.5012164 0.2045741,0.4893468 0.200006,0.4768074 0.1965779,0.4639209 0.1941069,0.4508083 0.1923972,0.4375804 0.1913104,0.4242821 0.1905308,0.397617z" transform="matrix(1,0,0,-1,0.6477001,0.8837354)" fill="rgb(107,107,107)" fill-rule="nonzero" shaper:cutDepth="0.05772cm" stroke-linecap="round" stroke-linejoin="round" /><path d="M0.0577626,0.3596114 L-0.0271572,0.3596114 -0.0271572,0.3596114 -0.036794,0.3601868 -0.0414884,0.3613584 -0.0458607,0.3634078 -0.0495088,0.3665741 -0.0519529,0.3707344 -0.0531933,0.3754035 -0.0534522,0.3802307 -0.0534522,0.3802307 -0.0531221,0.385138 -0.0518177,0.3898766 -0.0492237,0.3940462 -0.045325,0.3970132 -0.040745,0.3988293 -0.0359386,0.3998387 -0.0261186,0.400419 0.057806,0.400419 0.0577626,0.5391501 0.0577626,0.5391501 0.0583727,0.5488215 0.0593943,0.5535589 0.0612309,0.5580478 0.064256,0.5618159 0.0683771,0.5643546 0.0730403,0.5656675 0.077879,0.5659481 0.077879,0.5659481 0.0827472,0.565601 0.0874694,0.5643808 0.0916179,0.5618184 0.0947568,0.5580958 0.0967581,0.5536431 0.0978974,0.5488967 0.0985702,0.5391639 0.0985702,0.2631246 0.0985702,0.2631246 0.0983985,0.2573982 0.0974924,0.251748 0.0955695,0.246351 0.0923162,0.2416476 0.0877773,0.2381674 0.0824376,0.2361073 0.0767623,0.2353536 0.0710359,0.2354646 -0.0634386,0.2354645 -0.0634386,0.2354645 -0.0723845,0.2364883 -0.0767029,0.2378101 -0.0806122,0.2400345 -0.0838721,0.2431526 -0.0861207,0.2470537 -0.087394,0.2513768 -0.0877938,0.2558683 -0.0877938,0.2558683 -0.0874776,0.2604071 -0.086279,0.2647923 -0.0840736,0.2687651 -0.0807962,0.2719143 -0.0767974,0.2740749 -0.0724476,0.2754177 -0.0634066,0.2762722 0.0577626,0.2762722 0.0577626,0.3596114z" transform="matrix(1,0,0,-1,0.6477001,0.8837354)" fill="rgb(107,107,107)" fill-rule="nonzero" shaper:cutDepth="0.05772cm" stroke-linecap="round" stroke-linejoin="round" /><path d="M-0.181335,0.3596114 L-0.2662549,0.3596114 -0.2662549,0.3596114 -0.2758917,0.3601868 -0.280586,0.3613584 -0.2849583,0.3634078 -0.2886065,0.3665741 -0.2910505,0.3707344 -0.2922909,0.3754035 -0.2925499,0.3802307 -0.2925499,0.3802307 -0.2922197,0.385138 -0.2909153,0.3898766 -0.2883213,0.3940462 -0.2844227,0.3970132 -0.2798426,0.3988293 -0.2750362,0.3998387 -0.2652162,0.400419 -0.1812916,0.400419 -0.181335,0.5391501 -0.181335,0.5391501 -0.180725,0.5488215 -0.1797033,0.5535589 -0.1778667,0.5580478 -0.1748417,0.5618159 -0.1707205,0.5643546 -0.1660573,0.5656675 -0.1612186,0.5659481 -0.1612186,0.5659481 -0.1563505,0.565601 -0.1516282,0.5643808 -0.1474797,0.5618184 -0.1443408,0.5580958 -0.1423395,0.5536431 -0.1412002,0.5488967 -0.1405274,0.5391639 -0.1405275,0.2631246 -0.1405275,0.2631246 -0.1406992,0.2573982 -0.1416053,0.251748 -0.1435282,0.246351 -0.1467815,0.2416476 -0.1513203,0.2381674 -0.1566601,0.2361073 -0.1623354,0.2353536 -0.1680617,0.2354646 -0.3025362,0.2354645 -0.3025362,0.2354645 -0.3114822,0.2364883 -0.3158005,0.2378101 -0.3197098,0.2400345 -0.3229697,0.2431526 -0.3252183,0.2470537 -0.3264917,0.2513768 -0.3268914,0.2558683 -0.3268914,0.2558683 -0.3265752,0.2604071 -0.3253766,0.2647923 -0.3231712,0.2687651 -0.3198938,0.2719143 -0.315895,0.2740749 -0.3115452,0.2754177 -0.3025042,0.2762722 -0.181335,0.2762722 -0.181335,0.3596114z" transform="matrix(1,0,0,-1,0.6477001,0.8837354)" fill="rgb(107,107,107)" fill-rule="nonzero" shaper:cutDepth="0.05772cm" stroke-linecap="round" stroke-linejoin="round" /></svg>