<?xml version="1.0" encoding="utf-8"?>
<!-- Generator: Fusion 360, Shaper Origin Export Add-In, Version 1.8.0  -->
<svg xmlns="http://www.w3.org/2000/svg" xmlns:xlink="http://www.w3.org/1999/xlink" xmlns:shaper="http://www.shapertools.com/namespaces/shaper" shaper:fusionaddin="version:1.8.0" width="1.2954cm" height="1.2954cm" version="1.1" x="0cm" y="0cm" viewBox="0 0 1.2954 1.2954" enable-background="new 0 0 1.2954 1.2954" xml:space="preserve"><path d="M-0.6477,0.5969 L-0.6477,-0.5969 A0.0508,0.0508 180 0,1 -0.5969,-0.6477 L0.5969,-0.6477 A0.0508,0.0508 270 0,1 0.6477,-0.5969 L0.6477,0.5969 A0.0508,0.0508 0 0,1 0.5969,0.6477 L-0.5969,0.6477 A0.0508,0.0508 90 0,1 -0.6477,0.5969z" transform="matrix(1,0,0,-1,0.6477,0.6477)" fill="rgb(0,0,0)" shaper:cutDepth="0.75575cm" stroke-linecap="round" stroke-linejoin="round" /><path d="M-0.6477,0.5969 A0.0508,0.0508 180 0,0 -0.5969,0.6477 L0.5969,0.6477 A0.0508,0.0508 90 0,0 0.6477,0.5969 L0.6477,-0.5969 A0.0508,0.0508 0 0,0 0.5969,-0.6477 L-0.5969,-0.6477 A0.0508,0.0508 270 0,0 -0.6477,-0.5969 L-0.6477,0.5969z M0.5715,0.5207 A0.0508,0.0508 0 0,1 0.5207,0.5715 L-0.5207,0.5715 A0.0508,0.0508 90 0,1 -0.5715,0.5207 L-0.5715,-0.5207 A0.0508,0.0508 180 0,1 -0.5207,-0.5715 L0.5207,-0.5715 A0.0508,0.0508 270 0,1 0.5715,-0.5207 L0.5715,0.5207z" transform="matrix(1,0,0,-1,0.6477,0.6477)" fill="rgb(178,178,178)" fill-rule="nonzero" shaper:cutDepth="0.597cm" stroke-linecap="round" stroke-linejoin="round" /><path d="M0.4207,0.4715 A0.0508,0.0508 90 0,0 0.4715,0.4207 L0.4715,-0.4207 A0.0508,0.0508 0 0,0 0.4207,-0.4715 L-0.4207,-0.4715 A0.0508,0.0508 270 0,0 -0.4715,-0.4207 L-0.4715,0.4207 A0.0508,0.0508 180 0,0 -0.4207,0.4715 L0.4207,0.4715z" transform="matrix(1,0,0,-1,0.6477,0.6477)" fill="rgb(106,106,106)" fill-rule="nonzero" shaper:cutDepth="0.0501cm" stroke-linecap="round" stroke-linejoin="round" /><path d="M0.2367986,0.1359518 L0.2367986,0.1359518 0.2374441,0.1466307 0.2387642,0.1518303 0.2410908,0.1566456 0.2446098,0.1606849 0.2492287,0.1633761 0.2544329,0.1646331 0.2597888,0.1647716 0.2597888,0.1647716 0.2650843,0.1642729 0.2702156,0.1628846 0.2749015,0.1603704 0.2789199,0.1568892 0.2789199,0.1568892 0.2820121,0.1515838 0.2831155,0.1455041 0.2834359,0.1331603 0.2834359,-0.1662865 0.3401722,-0.1662867 0.3401722,-0.1662867 0.3507365,-0.1673755 0.3558142,-0.168977 0.3603943,-0.1716603 0.3641743,-0.1754017 0.3667186,-0.180065 0.3680637,-0.1852075 0.3684994,-0.1905085 0.3684994,-0.1905085 0.368077,-0.1959197 0.3664675,-0.2010958 0.3633307,-0.2055265 0.3590323,-0.2088125 0.3540093,-0.2108858 0.3487379,-0.2121847 0.3379195,-0.2129238 0.1794053,-0.2129239 0.1794053,-0.2129239 0.1689882,-0.2118045 0.1640023,-0.2101618 0.1594926,-0.2074897 0.1558474,-0.2037219 0.1533823,-0.1990941 0.1520784,-0.1940145 0.1516529,-0.1887842 0.1516529,-0.1887842 0.1521359,-0.1835864 0.1536487,-0.1785944 0.1565116,-0.1742305 0.1604633,-0.1708368 0.1651829,-0.168599 0.1702232,-0.1672396 0.1806124,-0.1662865 0.2367986,-0.1662865 0.2367986,0.1359518z" transform="matrix(1,0,0,-1,0.6477,0.6477)" fill="rgb(107,107,107)" fill-rule="nonzero" shaper:cutDepth="0.05772cm" stroke-linecap="round" stroke-linejoin="round" /><path d="M-0.0207732,-0.2129239 L-0.0207059,-0.2129238 -0.0207059,-0.2129238 -0.0102142,-0.2122138 0.0001259,-0.2102947 0.0101824,-0.2072216 0.0198224,-0.2030215 0.0289418,-0.1977819 0.0375519,-0.1917442 0.0455562,-0.1849231 0.0530416,-0.1775355 0.0530416,-0.1775355 0.0655331,-0.1614049 0.0710226,-0.152801 0.0759964,-0.1438831 0.0846136,-0.125389 0.0916463,-0.1062311 0.0972182,-0.0866022 0.101261,-0.0665985 0.1037923,-0.0463518 0.1046873,-0.0259646 0.1046873,-0.0259646 0.1039932,-0.0066693 0.1019032,0.0125239 0.0985474,0.0315383 0.0938642,0.0502685 0.0878422,0.0686134 0.0803863,0.0864219 0.0714361,0.1035301 0.061006,0.1197765 0.061006,0.1197765 0.0535139,0.1292184 0.045174,0.1379196 0.0358767,0.1455884 0.0258314,0.1522505 0.0150388,0.1576138 0.0036341,0.161508 -0.0081779,0.1639051 -0.0201985,0.1647716 -0.0201985,0.1647716 -0.0309322,0.163899 -0.0414793,0.1617177 -0.0516926,0.158303 -0.061447,0.1537366 -0.0706569,0.1481536 -0.0792348,0.1416412 -0.0869949,0.1341736 -0.0939312,0.1259346 -0.0939312,0.1259346 -0.104662,0.1103874 -0.1095002,0.1022776 -0.1107766,0.0977306 -0.1110096,0.0930094 -0.1110096,0.0930094 -0.1095936,0.0840909 -0.1078382,0.0799271 -0.1052266,0.0762362 -0.1017381,0.0733645 -0.0977146,0.0713076 -0.0933359,0.0701782 -0.0888405,0.0696908 -0.0888405,0.0696908 -0.0832922,0.0701888 -0.0779673,0.0717647 -0.0731585,0.0745855 -0.0695452,0.0788048 -0.0695452,0.0788048 -0.060603,0.0928011 -0.0555767,0.0994189 -0.0500024,0.1055746 -0.0436224,0.1108956 -0.0363899,0.1149588 -0.0284698,0.1174751 -0.0201985,0.1181344 -0.0201985,0.1181344 -0.0094,0.1161808 0.0006836,0.1118334 0.0097123,0.1055856 0.0176046,0.0979443 0.024554,0.0894374 0.030605,0.0802676 0.0359679,0.0706765 0.0407312,0.0607775 0.0483391,0.04017 0.0513085,0.0295916 0.0536508,0.0188573 0.0568026,-0.0028855 0.0581323,-0.0248151 0.0581323,-0.0248151 0.0568016,-0.0466901 0.0536256,-0.0683742 0.051193,-0.0790606 0.0481403,-0.0895869 0.0445984,-0.0999594 0.0403822,-0.1100749 0.0355143,-0.1198957 0.0299875,-0.1293591 0.0237886,-0.1383973 0.0167831,-0.1468262 0.0087031,-0.1542234 -0.000427,-0.1602703 -0.0105608,-0.1644508 -0.021348,-0.1662867 -0.021348,-0.1662867 -0.0286035,-0.1656804 -0.035566,-0.1635365 -0.0420115,-0.160141 -0.0477955,-0.1557181 -0.0529625,-0.1505755 -0.0576112,-0.1449675 -0.0656041,-0.1327868 -0.0656041,-0.1327868 -0.0693882,-0.1268716 -0.0743892,-0.1219676 -0.0774166,-0.120137 -0.0807055,-0.1189093 -0.087691,-0.1183358 -0.087691,-0.1183358 -0.0923859,-0.1187905 -0.0969401,-0.1200154 -0.1010873,-0.1222598 -0.1046785,-0.1253156 -0.1075267,-0.1290746 -0.1095172,-0.1333498 -0.1106008,-0.1379399 -0.1110096,-0.1426397 -0.1110096,-0.1426397 -0.1103651,-0.1492513 -0.1077517,-0.1553599 -0.1001714,-0.1662867 -0.1001714,-0.1662867 -0.0927476,-0.1757152 -0.0846861,-0.184597 -0.075915,-0.1927918 -0.0662905,-0.1999476 -0.0557836,-0.2057453 -0.0445104,-0.2098361 -0.0327491,-0.2122107 -0.0207732,-0.2129239z" transform="matrix(1,0,0,-1,0.6477,0.6477)" fill="rgb(107,107,107)" fill-rule="nonzero" shaper:cutDepth="0.05772cm" stroke-linecap="round" stroke-linejoin="round" /><path d="M-0.320959,-0.1827082 L-0.3209264,0.0462639 -0.1970378,-0.1984954 -0.1970378,-0.1984954 -0.1933177,-0.2046333 -0.1881181,-0.2095586 -0.1849565,-0.2113078 -0.1815504,-0.212429 -0.1743968,-0.2129239 -0.1743968,-0.2129239 -0.1699889,-0.2126255 -0.1657343,-0.2114462 -0.1618266,-0.2093879 -0.1584679,-0.2065195 -0.1584679,-0.2065195 -0.1563005,-0.2043518 -0.1546145,-0.2018197 -0.1532174,-0.1958891 -0.1528024,-0.1836935 -0.1527699,0.1343314 -0.1527699,0.1343314 -0.15347,0.1453286 -0.1545734,0.1507236 -0.1566235,0.1558431 -0.1600332,0.1601498 -0.1647344,0.1630061 -0.1700443,0.1644668 -0.1755463,0.1647716 -0.1755463,0.1647716 -0.1806694,0.1644141 -0.1856548,0.1631888 -0.1901728,0.1607549 -0.19389,0.1572192 -0.1965314,0.1528191 -0.1981551,0.1479456 -0.1993575,0.1377581 -0.199308,-0.0949874 -0.322629,0.1514874 -0.322629,0.1514874 -0.3265296,0.1570788 -0.3316565,0.1615656 -0.3379888,0.1640755 -0.3447703,0.1647716 -0.3447703,0.1647716 -0.3497471,0.1644825 -0.35457,0.1632325 -0.358935,0.1608337 -0.3624595,0.1573173 -0.3648989,0.1529736 -0.3664292,0.1482266 -0.3675141,0.1383329 -0.3674645,-0.1847706 -0.3674645,-0.1847706 -0.366747,-0.1953598 -0.3654573,-0.2005161 -0.3631048,-0.205273 -0.3594023,-0.2090663 -0.3546798,-0.2114838 -0.3495006,-0.2126501 -0.3441955,-0.2129239 -0.3441955,-0.2129239 -0.3386347,-0.2127119 -0.3332378,-0.2113717 -0.3283887,-0.2086732 -0.3248335,-0.2044032 -0.3227301,-0.1992605 -0.321589,-0.1938078 -0.320959,-0.1827082z" transform="matrix(1,0,0,-1,0.6477,0.6477)" fill="rgb(107,107,107)" fill-rule="nonzero" shaper:cutDepth="0.05772cm" stroke-linecap="round" stroke-linejoin="round" /></svg>