<?xml version="1.0" encoding="utf-8"?>
<!-- Generator: Fusion 360, Shaper Origin Export Add-In, Version 1.8.0  -->
<svg xmlns="http://www.w3.org/2000/svg" xmlns:xlink="http://www.w3.org/1999/xlink" xmlns:shaper="http://www.shapertools.com/namespaces/shaper" shaper:fusionaddin="version:1.8.0" width="1.39766cm" height="1.39766cm" version="1.1" x="0cm" y="0cm" viewBox="0 0 1.39766 1.39766" enable-background="new 0 0 1.39766 1.39766" xml:space="preserve"><path d="M0.4207,0.69883 L-0.4207,0.69883 A0.27813,0.27813 90 0,1 -0.69883,0.4207 L-0.69883,-0.4207 A0.27813,0.27813 180 0,1 -0.4207,-0.69883 L0.4207,-0.69883 A0.27813,0.27813 270 0,1 0.69883,-0.4207 L0.69883,0.4207 A0.27813,0.27813 0 0,1 0.4207,0.69883z" transform="matrix(1,0,0,-1,0.69883,0.69883)" fill="rgb(0,0,0)" shaper:cutDepth="0.86741cm" stroke-linecap="round" stroke-linejoin="round" /><path d="M-0.69883,-0.4207 L-0.69883,0.4207 A0.27813,0.27813 180 0,0 -0.4207,0.69883 L0.4207,0.69883 A0.27813,0.27813 90 0,0 0.69883,0.4207 L0.69883,-0.4207 A0.27813,0.27813 0 0,0 0.4207,-0.69883 L-0.4207,-0.69883 A0.27813,0.27813 270 0,0 -0.69883,-0.4207z M0.4207,0.57183 L-0.4207,0.57183 A0.15113,0.15113 90 0,1 -0.57183,0.4207 L-0.57183,-0.4207 A0.15113,0.15113 180 0,1 -0.4207,-0.57183 L0.4207,-0.57183 A0.15113,0.15113 270 0,1 0.57183,-0.4207 L0.57183,0.4207 A0.15113,0.15113 0 0,1 0.4207,0.57183z" transform="matrix(1,0,0,-1,0.69883,0.69883)" fill="rgb(168,168,168)" fill-rule="nonzero" shaper:cutDepth="0.5969cm" stroke-linecap="round" stroke-linejoin="round" /><path d="M0.47277,0.4207 L0.47277,-0.4207 A0.05207,0.05207 0 0,0 0.4207,-0.47277 L-0.4207,-0.47277 A0.05207,0.05207 270 0,0 -0.47277,-0.4207 L-0.47277,0.4207 A0.05207,0.05207 180 0,0 -0.4207,0.47277 L0.4207,0.47277 A0.05207,0.05207 90 0,0 0.47277,0.4207z" transform="matrix(1,0,0,-1,0.69883,0.69883)" fill="rgb(105,105,105)" fill-rule="nonzero" shaper:cutDepth="0.0508cm" stroke-linecap="round" stroke-linejoin="round" /><path d="M-0.0154362,0.357271 L-0.0154362,0.357271 -0.0152232,0.3656894 -0.0145978,0.3698527 -0.0133014,0.3738568 -0.0133014,0.3738568 -0.0097908,0.377823 -0.0052956,0.3806504 -0.0003278,0.3824978 0.0049265,0.3832171 0.0049265,0.3832171 0.0107878,0.38237 0.0162467,0.3800942 0.0209921,0.3765374 0.0243039,0.3716399 0.0243039,0.3716399 0.0254693,0.3682266 0.0258396,0.3646304 0.0259461,0.3573272 0.025946,0.0325351 0.025946,0.0325351 0.0256694,0.023504 0.0249842,0.0190379 0.0232365,0.0148819 0.0232365,0.0148819 0.0195707,0.0110282 0.0151855,0.0080252 0.010205,0.0061653 0.0049265,0.0055216 0.0049265,0.0055216 0.0002801,0.0058336 -0.0042178,0.0070301 -0.0081836,0.0094589 -0.0112649,0.0129486 -0.0133573,0.0171021 -0.0146001,0.0215957 -0.0154362,0.03086 -0.0154362,0.357271z" transform="matrix(1,0,0,-1,0.69883,0.69883)" fill="rgb(106,106,106)" fill-rule="nonzero" shaper:cutDepth="0.05842cm" stroke-linecap="round" stroke-linejoin="round" /></svg>