<?xml version="1.0" encoding="utf-8"?>
<!-- Generator: Fusion 360, Shaper Origin Export Add-In, Version 1.8.0  -->
<svg xmlns="http://www.w3.org/2000/svg" xmlns:xlink="http://www.w3.org/1999/xlink" xmlns:shaper="http://www.shapertools.com/namespaces/shaper" shaper:fusionaddin="version:1.8.0" width="1.39766cm" height="1.39766cm" version="1.1" x="0cm" y="0cm" viewBox="0 0 1.39766 1.39766" enable-background="new 0 0 1.39766 1.39766" xml:space="preserve"><path d="M-0.4207,-0.69883 L0.4207,-0.69883 A0.27813,0.27813 270 0,1 0.69883,-0.4207 L0.69883,0.4207 A0.27813,0.27813 0 0,1 0.4207,0.69883 L-0.4207,0.69883 A0.27813,0.27813 90 0,1 -0.69883,0.4207 L-0.69883,-0.4207 A0.27813,0.27813 180 0,1 -0.4207,-0.69883z" transform="matrix(1,0,0,-1,0.69883,0.69883)" fill="rgb(0,0,0)" shaper:cutDepth="0.86741cm" stroke-linecap="round" stroke-linejoin="round" /><path d="M0.69883,0.4207 L0.69883,-0.4207 A0.27813,0.27813 0 0,0 0.4207,-0.69883 L-0.4207,-0.69883 A0.27813,0.27813 270 0,0 -0.69883,-0.4207 L-0.69883,0.4207 A0.27813,0.27813 180 0,0 -0.4207,0.69883 L0.4207,0.69883 A0.27813,0.27813 90 0,0 0.69883,0.4207z M-0.4207,-0.57183 L0.4207,-0.57183 A0.15113,0.15113 270 0,1 0.57183,-0.4207 L0.57183,0.4207 A0.15113,0.15113 0 0,1 0.4207,0.57183 L-0.4207,0.57183 A0.15113,0.15113 90 0,1 -0.57183,0.4207 L-0.57183,-0.4207 A0.15113,0.15113 180 0,1 -0.4207,-0.57183z" transform="matrix(1,0,0,-1,0.69883,0.69883)" fill="rgb(168,168,168)" fill-rule="nonzero" shaper:cutDepth="0.5969cm" stroke-linecap="round" stroke-linejoin="round" /><path d="M-0.0081287,-0.3365799 L-0.0081287,-0.3365799 -0.0166031,-0.3360663 -0.0250086,-0.3348757 -0.0332684,-0.3329158 -0.0413367,-0.3302717 -0.0490513,-0.3267305 -0.0563781,-0.3224425 -0.0632894,-0.3175121 -0.0695881,-0.3118208 -0.0753902,-0.3056231 -0.0804441,-0.2988021 -0.0848507,-0.2915465 -0.0884265,-0.2838464 -0.091217,-0.2758293 -0.093196,-0.2675731 -0.0943956,-0.2591692 -0.0949165,-0.2506952 -0.0949165,-0.2506952 -0.0943732,-0.2423054 -0.0931078,-0.233994 -0.0909609,-0.2258658 -0.0880501,-0.2179788 -0.0842913,-0.2104589 -0.07976,-0.203378 -0.074492,-0.1968259 -0.0685819,-0.1908474 -0.0621173,-0.1854709 -0.0551644,-0.180748 -0.0477436,-0.1767924 -0.0399958,-0.1735343 -0.031952,-0.1710832 -0.0237343,-0.1693109 -0.0069993,-0.1677674 -0.0069993,-0.1677674 0.0095877,-0.1693727 0.0177209,-0.1712107 0.0256318,-0.1738409 0.0332742,-0.177175 0.0405308,-0.1812799 0.0473138,-0.1861275 0.0536127,-0.1915907 0.0593429,-0.197646 0.064523,-0.20418 0.0689154,-0.2112656 0.0725715,-0.2187584 0.0753537,-0.226618 0.0773856,-0.234704 0.0786237,-0.2429489 0.0791518,-0.25127 0.0791518,-0.25127 0.0786141,-0.2597105 0.0772756,-0.2680601 0.0752197,-0.2762641 0.0722892,-0.2841966 0.0686015,-0.2918068 0.0640945,-0.298963 0.0589219,-0.3056531 0.0531015,-0.3117887 0.0467364,-0.3173578 0.0399188,-0.3223606 0.0325892,-0.3265808 0.0249095,-0.3301207 0.0169036,-0.3328455 0.0086739,-0.3347974 0.0003135,-0.3360655 -0.0081287,-0.3365799z" transform="matrix(1,0,0,-1,0.69883,0.69883)" fill="rgb(105,105,105)" fill-rule="nonzero" shaper:cutDepth="0.0508cm" stroke-linecap="round" stroke-linejoin="round" /><path d="M-0.47277,0.4207 A0.05207,0.05207 180 0,0 -0.4207,0.47277 L0.4207,0.47277 A0.05207,0.05207 90 0,0 0.47277,0.4207 L0.47277,-0.4207 A0.05207,0.05207 0 0,0 0.4207,-0.47277 L-0.4207,-0.47277 A0.05207,0.05207 270 0,0 -0.47277,-0.4207 L-0.47277,0.4207z" transform="matrix(1,0,0,-1,0.69883,0.69883)" fill="rgb(105,105,105)" fill-rule="nonzero" shaper:cutDepth="0.0508cm" stroke-linecap="round" stroke-linejoin="round" /><path d="M0.0306672,0.2549553 L-0.0672462,0.2549553 -0.0672462,0.3263889 0.0664089,0.3263889 0.0664089,0.3263889 0.0748285,0.3269469 0.0789319,0.3279653 0.0827807,0.3296967 0.0860718,0.3323421 0.0883868,0.335865 0.089605,0.3399073 0.0898464,0.3441243 0.0898464,0.3441243 0.0896138,0.3480945 0.0885462,0.3519236 0.086478,0.3553147 0.0834933,0.3579359 0.0799312,0.3597053 0.076095,0.3607494 0.0681699,0.3613669 -0.0790448,0.3613668 -0.0790448,0.3613668 -0.088659,0.3607782 -0.093273,0.3593834 -0.0973232,0.3567805 -0.1000808,0.3528392 -0.1015503,0.3482454 -0.1022241,0.3386436 -0.1022242,0.1012747 -0.1022242,0.1012747 -0.1017977,0.0916845 -0.1005226,0.0870444 -0.0979481,0.0829979 -0.0940208,0.0802428 -0.0894462,0.0787603 -0.0798703,0.0780953 0.0664089,0.0780953 0.0664089,0.0780953 0.0751798,0.0785617 0.0794863,0.0794349 0.0836141,0.0809477 0.0872565,0.0833907 0.0899492,0.0868554 0.0913548,0.0910123 0.0915706,0.0953995 0.0915706,0.0953995 0.0906989,0.100665 0.0884857,0.1055133 0.0847598,0.1093253 0.080055,0.1118416 0.080055,0.1118416 0.0772858,0.1127545 0.0743796,0.1130472 0.0685394,0.1130732 -0.0672462,0.1130732 -0.0672462,0.2199773 0.0289514,0.2199773 0.0289514,0.2199773 0.0373419,0.2204778 0.0414421,0.2214129 0.0453287,0.2230253 0.0486563,0.2255823 0.0510239,0.2290525 0.0522186,0.2330806 0.0524052,0.2372816 0.0524052,0.2372816 0.0521905,0.2413093 0.0511574,0.2452048 0.049158,0.2486997 0.0461636,0.2513983 0.0425779,0.2532347 0.0386968,0.2543404 0.0306672,0.2549553z" transform="matrix(1,0,0,-1,0.69883,0.69883)" fill="rgb(106,106,106)" fill-rule="nonzero" shaper:cutDepth="0.05842cm" stroke-linecap="round" stroke-linejoin="round" /><path d="M0.0103456,-0.0771196 L0.0103456,-0.0771196 -0.0057445,-0.0881738 -0.0213839,-0.0998554 -0.035928,-0.1128738 -0.0491825,-0.1272053 -0.0491825,-0.1272053 -0.0392691,-0.1245001 -0.0291999,-0.1224508 -0.0189747,-0.1214352 -0.0087034,-0.1211293 -0.0087034,-0.1211293 0.0042777,-0.1219238 0.0171606,-0.1236854 0.0298594,-0.1265003 0.0421983,-0.1305988 0.0541243,-0.1357886 0.065447,-0.1421816 0.076066,-0.149689 0.0858946,-0.158204 0.0948802,-0.1676048 0.1028996,-0.1778418 0.1097705,-0.1888824 0.115424,-0.2005931 0.1198781,-0.2128101 0.1229888,-0.2254377 0.1249532,-0.2382917 0.125789,-0.25127 0.125789,-0.25127 0.1249618,-0.264312 0.1230406,-0.2772365 0.1200015,-0.2899465 0.1157036,-0.3022864 0.1101067,-0.3140941 0.103332,-0.3252679 0.0954591,-0.335697 0.0865546,-0.3452611 0.0767899,-0.3539448 0.066212,-0.3616163 0.0548961,-0.3681525 0.0429974,-0.3735515 0.0305858,-0.3776401 0.0178506,-0.3805723 0.0049154,-0.3824193 -0.0081287,-0.3832171 -0.0081287,-0.3832171 -0.0214604,-0.382416 -0.0346978,-0.3806443 -0.047704,-0.3776138 -0.0603748,-0.3733892 -0.0724886,-0.3677706 -0.0839626,-0.3609359 -0.0945631,-0.3528132 -0.1043071,-0.3436803 -0.1130796,-0.3336107 -0.1207129,-0.3226523 -0.1271379,-0.3109449 -0.1323434,-0.2986453 -0.1363467,-0.2859057 -0.1391332,-0.272842 -0.140852,-0.2595995 -0.1415537,-0.2462614 -0.1415537,-0.2462614 -0.1409508,-0.2307998 -0.1393689,-0.2154073 -0.136707,-0.2001649 -0.1329874,-0.1851452 -0.1283026,-0.1703978 -0.122684,-0.155981 -0.1160943,-0.1419807 -0.1086551,-0.1284123 -0.1004058,-0.1153218 -0.0913155,-0.1027994 -0.0815118,-0.0908278 -0.071042,-0.0794338 -0.0598856,-0.0687125 -0.0481414,-0.0586353 -0.0359397,-0.0491214 -0.0232095,-0.0403238 0.0247879,-0.0104483 0.0289019,-0.0084775 0.0289019,-0.0084775 0.034141,-0.0059765 0.0399043,-0.0055216 0.0399043,-0.0055216 0.0446327,-0.0059095 0.0492479,-0.0069854 0.0535965,-0.0088801 0.0573732,-0.0117422 0.0603512,-0.0154297 0.0624207,-0.0196948 0.0635781,-0.0242936 0.0641261,-0.0290044 0.0641261,-0.0290044 0.0632757,-0.0362038 0.0618901,-0.0395676 0.0599417,-0.0426626 0.0549378,-0.0479133 0.0490757,-0.052207 0.0103456,-0.0771196z M-0.0949165,-0.2506952 L-0.0949165,-0.2506952 -0.0943956,-0.2591692 -0.093196,-0.2675731 -0.091217,-0.2758293 -0.0884265,-0.2838464 -0.0848507,-0.2915465 -0.0804441,-0.2988021 -0.0753902,-0.3056231 -0.0695881,-0.3118208 -0.0632894,-0.3175121 -0.0563781,-0.3224425 -0.0490513,-0.3267305 -0.0413367,-0.3302717 -0.0332684,-0.3329158 -0.0250086,-0.3348757 -0.0166031,-0.3360663 -0.0081287,-0.3365799 -0.0081287,-0.3365799 0.0003135,-0.3360655 0.0086739,-0.3347974 0.0169036,-0.3328455 0.0249095,-0.3301207 0.0325892,-0.3265808 0.0399188,-0.3223606 0.0467364,-0.3173578 0.0531015,-0.3117887 0.0589219,-0.3056531 0.0640945,-0.298963 0.0686015,-0.2918068 0.0722892,-0.2841966 0.0752197,-0.2762641 0.0772756,-0.2680601 0.0786141,-0.2597105 0.0791518,-0.25127 0.0791518,-0.25127 0.0786237,-0.2429489 0.0773856,-0.234704 0.0753537,-0.226618 0.0725715,-0.2187584 0.0689154,-0.2112656 0.064523,-0.20418 0.0593429,-0.197646 0.0536127,-0.1915907 0.0473138,-0.1861275 0.0405308,-0.1812799 0.0332742,-0.177175 0.0256318,-0.1738409 0.0177209,-0.1712107 0.0095877,-0.1693727 -0.0069993,-0.1677674 -0.0069993,-0.1677674 -0.0237343,-0.1693109 -0.031952,-0.1710832 -0.0399958,-0.1735343 -0.0477436,-0.1767924 -0.0551644,-0.180748 -0.0621173,-0.1854709 -0.0685819,-0.1908474 -0.074492,-0.1968259 -0.07976,-0.203378 -0.0842913,-0.2104589 -0.0880501,-0.2179788 -0.0909609,-0.2258658 -0.0931078,-0.233994 -0.0943732,-0.2423054 -0.0949165,-0.2506952z" transform="matrix(1,0,0,-1,0.69883,0.69883)" fill="rgb(106,106,106)" fill-rule="nonzero" shaper:cutDepth="0.05842cm" stroke-linecap="round" stroke-linejoin="round" /></svg>