<?xml version="1.0" encoding="utf-8"?>
<!-- Generator: Fusion 360, Shaper Origin Export Add-In, Version 1.8.0  -->
<svg xmlns="http://www.w3.org/2000/svg" xmlns:xlink="http://www.w3.org/1999/xlink" xmlns:shaper="http://www.shapertools.com/namespaces/shaper" shaper:fusionaddin="version:1.8.0" width="1.39766cm" height="1.39766cm" version="1.1" x="0cm" y="0cm" viewBox="0 0 1.39766 1.39766" enable-background="new 0 0 1.39766 1.39766" xml:space="preserve"><path d="M0.4207,0.69883 L-0.4207,0.69883 A0.27813,0.27813 90 0,1 -0.69883,0.4207 L-0.69883,-0.4207 A0.27813,0.27813 180 0,1 -0.4207,-0.69883 L0.4207,-0.69883 A0.27813,0.27813 270 0,1 0.69883,-0.4207 L0.69883,0.4207 A0.27813,0.27813 0 0,1 0.4207,0.69883z" transform="matrix(1,0,0,-1,0.69883,0.69883)" fill="rgb(0,0,0)" shaper:cutDepth="0.86741cm" stroke-linecap="round" stroke-linejoin="round" /><path d="M-0.69883,-0.4207 L-0.69883,0.4207 A0.27813,0.27813 180 0,0 -0.4207,0.69883 L0.4207,0.69883 A0.27813,0.27813 90 0,0 0.69883,0.4207 L0.69883,-0.4207 A0.27813,0.27813 0 0,0 0.4207,-0.69883 L-0.4207,-0.69883 A0.27813,0.27813 270 0,0 -0.69883,-0.4207z M-0.4207,-0.57183 L0.4207,-0.57183 A0.15113,0.15113 270 0,1 0.57183,-0.4207 L0.57183,0.4207 A0.15113,0.15113 0 0,1 0.4207,0.57183 L-0.4207,0.57183 A0.15113,0.15113 90 0,1 -0.57183,0.4207 L-0.57183,-0.4207 A0.15113,0.15113 180 0,1 -0.4207,-0.57183z" transform="matrix(1,0,0,-1,0.69883,0.69883)" fill="rgb(168,168,168)" fill-rule="nonzero" shaper:cutDepth="0.5969cm" stroke-linecap="round" stroke-linejoin="round" /><path d="M0.3774696,-0.1301119 L0.3774696,-0.1301119 0.3814415,-0.136251 0.3825118,-0.139756 0.382858,-0.143403 0.382858,-0.143403 0.382451,-0.1473751 0.3812316,-0.1511754 0.3792609,-0.1546464 0.3766009,-0.1576235 0.3734035,-0.1600124 0.3697896,-0.1617102 0.3659269,-0.1627131 0.3619513,-0.1630884 0.3619513,-0.1630884 0.3561836,-0.1625191 0.3534165,-0.1616136 0.3509121,-0.1601566 0.3466195,-0.1562684 0.3429706,-0.1517662 0.2505908,-0.0268717 0.206624,-0.0268717 0.206624,-0.1379429 0.206624,-0.1379429 0.205956,-0.1475775 0.2048363,-0.1522731 0.2029305,-0.1567183 0.1999634,-0.1605138 0.1959573,-0.1632054 0.1913321,-0.1645853 0.1865077,-0.1648126 0.1865077,-0.1648126 0.1797719,-0.1638514 0.1736484,-0.1608996 0.1710124,-0.1587347 0.1688768,-0.1560792 0.1672696,-0.1530716 0.1663194,-0.1497972 0.1663194,-0.1497972 0.1658164,-0.1360323 0.1658165,0.1370769 0.1658165,0.1370769 0.165831,0.14317 0.1667219,0.1491955 0.1689725,0.154853 0.1727803,0.1595982 0.1778916,0.1629015 0.1836807,0.1648045 0.1897148,0.1656205 0.1958092,0.1656708 0.2799052,0.1656709 0.2799052,0.1656709 0.2896351,0.1651981 0.299308,0.1640668 0.3088816,0.1622574 0.3182446,0.1595795 0.3273077,0.156008 0.3359788,0.1515723 0.3441372,0.146251 0.3516733,0.1400812 0.3585507,0.1331832 0.3646368,0.1255794 0.3698108,0.1173275 0.3739679,0.1085191 0.3771891,0.0993275 0.3794352,0.0898492 0.3807674,0.0802008 0.3813492,0.0704773 0.3813492,0.0704773 0.3800078,0.0534779 0.3783318,0.0451129 0.3759646,0.0369171 0.372928,0.028945 0.3691513,0.0212956 0.364597,0.0140826 0.3594468,0.0072817 0.3537179,0.0009607 0.3473818,-0.0047513 0.340531,-0.0098349 0.3332524,-0.0142837 0.3255834,-0.0180207 0.3176226,-0.0210876 0.3011274,-0.0254144 0.3755299,-0.1276692 0.3755299,-0.1276692 0.3774696,-0.1301119z M0.2778935,0.0139358 L0.2778935,0.0139358 0.2942075,0.0147391 0.302207,0.0164048 0.3097205,0.0196115 0.3097205,0.0196115 0.3164293,0.0235331 0.3225094,0.0283717 0.3278383,0.034027 0.3323339,0.0403654 0.3358937,0.0472728 0.3384683,0.0546048 0.3400039,0.0622216 0.3405417,0.0699744 0.3405417,0.0699744 0.3399213,0.0778325 0.3382246,0.0855294 0.3354645,0.0929125 0.3316959,0.0998355 0.3269811,0.1061522 0.3214182,0.111736 0.3151308,0.1164891 0.3082118,0.1202653 0.3082118,0.1202653 0.3018261,0.1227681 0.2951185,0.1242033 0.2814181,0.1248632 0.206624,0.1248632 0.206624,0.0139358 0.2778935,0.0139358z" transform="matrix(1,0,0,-1,0.69883,0.69883)" fill="rgb(106,106,106)" fill-rule="nonzero" shaper:cutDepth="0.05842cm" stroke-linecap="round" stroke-linejoin="round" /><path d="M0.1034557,-0.1295371 L0.1034557,-0.1295371 0.097793,-0.128615 0.0920325,-0.1286031 -0.0738559,-0.1286031 -0.0738559,0.1434796 -0.0738559,0.1434796 -0.0746751,0.1515736 -0.0758165,0.1554846 -0.0777237,0.159076 -0.0804433,0.1621061 -0.083917,0.1642175 -0.0878317,0.1653295 -0.0918888,0.1656709 -0.0918888,0.1656709 -0.095921,0.1653224 -0.0997885,0.1641373 -0.1031978,0.1619595 -0.1059475,0.1589956 -0.1078513,0.1554272 -0.1090692,0.1515632 -0.1100654,0.1435429 -0.1100654,-0.1403578 -0.1100654,-0.1403578 -0.1101126,-0.1452206 -0.109472,-0.1500373 -0.1078735,-0.1546289 -0.1051558,-0.1586533 -0.1013972,-0.1617259 -0.0969112,-0.1636036 -0.0921472,-0.1645525 -0.0872908,-0.1648126 0.0885308,-0.1648126 0.0885308,-0.1648126 0.0958037,-0.1648064 0.0994376,-0.1646593 0.1029528,-0.1638068 0.1029528,-0.1638068 0.1080882,-0.1611986 0.1122517,-0.1572271 0.114829,-0.1520834 0.1158848,-0.1464205 0.1158848,-0.1464205 0.1148934,-0.1409347 0.1123692,-0.135966 0.108459,-0.1319888 0.1034557,-0.1295371z" transform="matrix(1,0,0,-1,0.69883,0.69883)" fill="rgb(106,106,106)" fill-rule="nonzero" shaper:cutDepth="0.05842cm" stroke-linecap="round" stroke-linejoin="round" /><path d="M-0.1775271,0.1228517 L-0.1775271,0.1228517 -0.1857706,0.1318062 -0.1947084,0.1400612 -0.2043394,0.1475074 -0.2147301,0.1538335 -0.2257437,0.1590182 -0.2373317,0.1627205 -0.2492932,0.1649672 -0.2614412,0.1656709 -0.2614725,0.1656708 -0.2614725,0.1656708 -0.2747766,0.1648908 -0.2879188,0.1626826 -0.3006816,0.1588478 -0.3128935,0.1535142 -0.3243206,0.1466573 -0.3348861,0.1385332 -0.3445529,0.1293614 -0.35333,0.1193314 -0.35333,0.1193314 -0.3625228,0.1065799 -0.3707522,0.0931869 -0.3778621,0.079167 -0.3838466,0.0646314 -0.3886683,0.0496696 -0.392218,0.0343566 -0.3943968,0.0187887 -0.3951433,0.0030874 -0.3951433,0.0030874 -0.3945247,-0.0127738 -0.3926469,-0.0285347 -0.3896206,-0.0441169 -0.3853265,-0.0593976 -0.3798484,-0.0742954 -0.37321,-0.0887131 -0.3653395,-0.1024974 -0.3562756,-0.1155275 -0.3562756,-0.1155275 -0.3475428,-0.1259456 -0.3379729,-0.1355979 -0.327448,-0.1442003 -0.3160342,-0.1515838 -0.3037467,-0.1573913 -0.2908214,-0.1615961 -0.2774562,-0.1640716 -0.2638839,-0.1648126 -0.2638839,-0.1648126 -0.2526277,-0.1641823 -0.2414866,-0.1624605 -0.230587,-0.159582 -0.220099,-0.1554467 -0.210096,-0.1502496 -0.2007424,-0.1439546 -0.1920503,-0.1367766 -0.1839931,-0.1288905 -0.1839931,-0.1288905 -0.1737702,-0.1169314 -0.1697167,-0.1101776 -0.1685447,-0.1064367 -0.1680437,-0.1025237 -0.1680437,-0.1025237 -0.168395,-0.0985037 -0.1693547,-0.0945871 -0.1710562,-0.0909286 -0.1734721,-0.0876999 -0.1765006,-0.0850353 -0.1800506,-0.0831221 -0.1839305,-0.0820212 -0.1879445,-0.081617 -0.1879445,-0.081617 -0.1934093,-0.0820788 -0.1985529,-0.0839595 -0.2028306,-0.0873853 -0.2063367,-0.0916033 -0.2063367,-0.0916033 -0.2172247,-0.1041374 -0.2233742,-0.1097227 -0.2300679,-0.1146383 -0.2373149,-0.1186962 -0.2450474,-0.1217205 -0.2531508,-0.1235457 -0.2614412,-0.1240051 -0.2614412,-0.1240051 -0.2695705,-0.1236382 -0.2776049,-0.1223458 -0.2854309,-0.1201187 -0.2929197,-0.1169334 -0.2999563,-0.1128495 -0.3064669,-0.1079638 -0.312522,-0.10253 -0.3180545,-0.0965606 -0.3180545,-0.0965606 -0.3261989,-0.0860782 -0.3333362,-0.0748854 -0.3394736,-0.0631149 -0.3445919,-0.0508665 -0.3486683,-0.0382331 -0.3517733,-0.0253266 -0.3536017,-0.0121785 -0.3543358,0.0010757 -0.3543358,0.0010757 -0.3526173,0.0221225 -0.3507939,0.0325285 -0.3482745,0.0427853 -0.3450437,0.0528432 -0.3410712,0.0626296 -0.3363258,0.0720669 -0.3308737,0.0811141 -0.3247298,0.0897058 -0.3178961,0.0977612 -0.3103405,0.1051395 -0.3020093,0.111635 -0.2929187,0.1170031 -0.2831663,0.1210585 -0.2729445,0.1237145 -0.262447,0.1248634 -0.262447,0.1248634 -0.254958,0.1243963 -0.2475912,0.1229617 -0.2404615,0.1206289 -0.2337188,0.1173316 -0.2274057,0.1132774 -0.2215701,0.108557 -0.2112939,0.0976344 -0.2112939,0.0976344 -0.2069158,0.0921641 -0.2019623,0.0872191 -0.1991032,0.0851896 -0.195891,0.0837556 -0.1889504,0.0829063 -0.1889504,0.0829063 -0.1848949,0.0833869 -0.1810025,0.0846188 -0.1774474,0.0866266 -0.1743648,0.0893048 -0.171843,0.0925158 -0.1700245,0.0961722 -0.1689351,0.1001064 -0.1685466,0.1041722 -0.1685466,0.1041722 -0.1691431,0.1094449 -0.1711636,0.1143541 -0.1775271,0.1228517z" transform="matrix(1,0,0,-1,0.69883,0.69883)" fill="rgb(106,106,106)" fill-rule="nonzero" shaper:cutDepth="0.05842cm" stroke-linecap="round" stroke-linejoin="round" /><path d="M0.2814181,0.1248632 L0.2814181,0.1248632 0.2951185,0.1242033 0.3018261,0.1227681 0.3082118,0.1202653 0.3082118,0.1202653 0.3151308,0.1164891 0.3214182,0.111736 0.3269811,0.1061522 0.3316959,0.0998355 0.3354645,0.0929125 0.3382246,0.0855294 0.3399213,0.0778325 0.3405417,0.0699744 0.3405417,0.0699744 0.3400039,0.0622216 0.3384683,0.0546048 0.3358937,0.0472728 0.3323339,0.0403654 0.3278383,0.034027 0.3225094,0.0283717 0.3164293,0.0235331 0.3097205,0.0196115 0.3097205,0.0196115 0.302207,0.0164048 0.2942075,0.0147391 0.2778935,0.0139358 0.206624,0.0139358 0.206624,0.1248632 0.2814181,0.1248632z" transform="matrix(1,0,0,-1,0.69883,0.69883)" fill="rgb(105,105,105)" fill-rule="nonzero" shaper:cutDepth="0.0508cm" stroke-linecap="round" stroke-linejoin="round" /><path d="M-0.47277,0.4207 A0.05207,0.05207 180 0,0 -0.4207,0.47277 L0.4207,0.47277 A0.05207,0.05207 90 0,0 0.47277,0.4207 L0.47277,-0.4207 A0.05207,0.05207 0 0,0 0.4207,-0.47277 L-0.4207,-0.47277 A0.05207,0.05207 270 0,0 -0.47277,-0.4207 L-0.47277,0.4207z" transform="matrix(1,0,0,-1,0.69883,0.69883)" fill="rgb(105,105,105)" fill-rule="nonzero" shaper:cutDepth="0.0508cm" stroke-linecap="round" stroke-linejoin="round" /></svg>