<?xml version="1.0" encoding="utf-8"?>
<!-- Generator: Fusion 360, Shaper Origin Export Add-In, Version 1.8.0  -->
<svg xmlns="http://www.w3.org/2000/svg" xmlns:xlink="http://www.w3.org/1999/xlink" xmlns:shaper="http://www.shapertools.com/namespaces/shaper" shaper:fusionaddin="version:1.8.0" width="1.39766cm" height="1.39766cm" version="1.1" x="0cm" y="0cm" viewBox="0 0 1.39766 1.39766" enable-background="new 0 0 1.39766 1.39766" xml:space="preserve"><path d="M-0.1911476,-0.5839759 L0.6502524,-0.5839759 A0.27813,0.27813 270 0,1 0.9283824,-0.3058459 L0.9283824,0.5355541 A0.27813,0.27813 0 0,1 0.6502524,0.8136841 L-0.1911476,0.8136841 A0.27813,0.27813 90 0,1 -0.4692776,0.5355541 L-0.4692776,-0.3058459 A0.27813,0.27813 180 0,1 -0.1911476,-0.5839759z" transform="matrix(1,0,0,-1,0.4692776,0.8136841)" fill="rgb(0,0,0)" shaper:cutDepth="0.86741cm" stroke-linecap="round" stroke-linejoin="round" /><path d="M0.9283824,0.5355541 L0.9283824,-0.3058459 A0.27813,0.27813 0 0,0 0.6502524,-0.5839759 L-0.1911476,-0.5839759 A0.27813,0.27813 270 0,0 -0.4692776,-0.3058459 L-0.4692776,0.5355541 A0.27813,0.27813 180 0,0 -0.1911476,0.8136841 L0.6502524,0.8136841 A0.27813,0.27813 90 0,0 0.9283824,0.5355541z M0.6502524,0.6866841 L-0.1911476,0.6866841 A0.15113,0.15113 90 0,1 -0.3422776,0.5355541 L-0.3422776,-0.3058459 A0.15113,0.15113 180 0,1 -0.1911476,-0.4569759 L0.6502524,-0.4569759 A0.15113,0.15113 270 0,1 0.8013824,-0.3058459 L0.8013824,0.5355541 A0.15113,0.15113 0 0,1 0.6502524,0.6866841z" transform="matrix(1,0,0,-1,0.4692776,0.8136841)" fill="rgb(168,168,168)" fill-rule="nonzero" shaper:cutDepth="0.5969cm" stroke-linecap="round" stroke-linejoin="round" /><path d="M-0.0256383,0.2796257 L-0.0256383,0.2796257 -0.0309942,0.2794872 -0.0361984,0.2782302 -0.0408173,0.275539 -0.0443363,0.2714997 -0.0466629,0.2666844 -0.047983,0.2614848 -0.0486285,0.2508059 -0.0486285,-0.0514324 -0.1048147,-0.0514324 -0.1048147,-0.0514324 -0.1152039,-0.0523855 -0.1202443,-0.0537449 -0.1249638,-0.0559827 -0.1289155,-0.0593764 -0.1317784,-0.0637403 -0.1332912,-0.0687323 -0.1337742,-0.0739301 -0.1337742,-0.0739301 -0.1333487,-0.0791604 -0.1320448,-0.08424 -0.1295797,-0.0888678 -0.1259345,-0.0926356 -0.1214248,-0.0953077 -0.1164389,-0.0969505 -0.1060218,-0.0980698 0.0524924,-0.0980697 0.0524924,-0.0980697 0.0633108,-0.0973306 0.0685822,-0.0960317 0.0736052,-0.0939584 0.0779036,-0.0906724 0.0810404,-0.0862417 0.0826499,-0.0810656 0.0830723,-0.0756544 0.0830723,-0.0756544 0.0826366,-0.0703534 0.0812915,-0.0652109 0.0787471,-0.0605476 0.0749672,-0.0568063 0.0703871,-0.0541229 0.0653094,-0.0525214 0.0547451,-0.0514326 -0.0019912,-0.0514324 -0.0019912,0.2480144 -0.0019912,0.2480144 -0.0023116,0.2603582 -0.003415,0.2664378 -0.0065072,0.2717433 -0.0065072,0.2717433 -0.0105256,0.2752245 -0.0152116,0.2777387 -0.0203428,0.279127 -0.0256383,0.2796257z" transform="matrix(1,0,0,-1,0.4692776,0.8136841)" fill="rgb(106,106,106)" fill-rule="nonzero" shaper:cutDepth="0.05842cm" stroke-linecap="round" stroke-linejoin="round" /><path d="M0.1481016,-0.0980698 L0.1481016,-0.0980698 0.1536624,-0.0978578 0.1590592,-0.0965176 0.1639084,-0.0938192 0.1674636,-0.0895492 0.169567,-0.0844064 0.170708,-0.0789537 0.1713381,-0.0678541 0.1713707,0.1611179 0.2952593,-0.0836413 0.2952593,-0.0836413 0.2989793,-0.0897792 0.304179,-0.0947045 0.3073406,-0.0964537 0.3107466,-0.0975749 0.3179003,-0.0980698 0.3179003,-0.0980698 0.3223082,-0.0977714 0.3265628,-0.0965921 0.3304705,-0.0945338 0.3338292,-0.0916654 0.3338292,-0.0916654 0.3359965,-0.0894977 0.3376826,-0.0869656 0.3390796,-0.081035 0.3394946,-0.0688394 0.3395272,0.2491855 0.3395272,0.2491855 0.3388271,0.2601827 0.3377237,0.2655777 0.3356736,0.2706972 0.3322639,0.2750039 0.3275627,0.2778602 0.3222528,0.2793209 0.3167508,0.2796257 0.3167508,0.2796257 0.3116277,0.2792682 0.3066423,0.2780429 0.3021243,0.275609 0.2984071,0.2720733 0.2957656,0.2676732 0.294142,0.2627997 0.2929396,0.2526122 0.2929891,0.0198667 0.1696681,0.2663415 0.1696681,0.2663415 0.1657675,0.2719329 0.1606405,0.2764197 0.1543083,0.2789296 0.1475268,0.2796257 0.1475268,0.2796257 0.14255,0.2793366 0.1377271,0.2780866 0.1333621,0.2756878 0.1298376,0.2721714 0.1273982,0.2678277 0.1258679,0.2630807 0.124783,0.253187 0.1248326,-0.0699165 0.1248326,-0.0699165 0.1255501,-0.0805057 0.1268398,-0.085662 0.1291923,-0.0904189 0.1328948,-0.0942122 0.1376173,-0.0966297 0.1427964,-0.097796 0.1481016,-0.0980698z" transform="matrix(1,0,0,-1,0.4692776,0.8136841)" fill="rgb(106,106,106)" fill-rule="nonzero" shaper:cutDepth="0.05842cm" stroke-linecap="round" stroke-linejoin="round" /><path d="M0.451079,0.0438123 L0.5504789,0.0438123 0.5504789,-0.0514324 0.4131348,-0.0514324 0.4131348,-0.0514324 0.4021877,-0.0520628 0.396885,-0.0534697 0.3919526,-0.0558796 0.3878699,-0.0595314 0.3851169,-0.0642715 0.3838006,-0.0695957 0.3835865,-0.0750796 0.3835865,-0.0750796 0.383791,-0.0803145 0.3849779,-0.085413 0.3874588,-0.0900153 0.3912952,-0.0935828 0.3959236,-0.0960131 0.4009834,-0.0973937 0.411421,-0.0980698 0.567505,-0.0980697 0.567505,-0.0980697 0.5738068,-0.0979422 0.5800517,-0.0971261 0.5860687,-0.095257 0.5888417,-0.0937391 0.5912619,-0.091718 0.594608,-0.0863894 0.596371,-0.0803464 0.5969858,-0.0740733 0.5969844,-0.067772 0.5970169,0.2487198 0.5970169,0.2487198 0.5967061,0.2614598 0.5951833,0.2676429 0.591971,0.2731365 0.5895646,0.2752311 0.5867815,0.2768084 0.5807019,0.2787194 0.5743753,0.279497 0.5680004,0.2796257 0.4131348,0.2796257 0.4131348,0.2796257 0.4019473,0.2789586 0.3964802,0.2777118 0.391298,0.2755619 0.386861,0.2721528 0.3837041,0.2675257 0.3821111,0.2621549 0.3818622,0.2565534 0.3818622,0.2565534 0.3820686,0.251138 0.3833423,0.2458739 0.3860115,0.2411636 0.3899499,0.2374547 0.3948001,0.235045 0.4000458,0.23367 0.4108462,0.2329885 0.5504789,0.2329885 0.5504789,0.0904496 0.4528624,0.0904496 0.4528624,0.0904496 0.4420519,0.0897463 0.4367936,0.0884288 0.4318677,0.0861629 0.4277445,0.0826581 0.4249306,0.0780327 0.4235513,0.0727938 0.4233266,0.0673772 0.4233266,0.0673772 0.423599,0.0621299 0.424829,0.0570267 0.4272261,0.0523596 0.4309864,0.048696 0.4355931,0.0461844 0.4406265,0.0446669 0.451079,0.0438123z" transform="matrix(1,0,0,-1,0.4692776,0.8136841)" fill="rgb(106,106,106)" fill-rule="nonzero" shaper:cutDepth="0.05842cm" stroke-linecap="round" stroke-linejoin="round" /><path d="M0.7013824,-0.3058459 A0.05113,0.05113 0 0,0 0.6502524,-0.3569759 L-0.1911476,-0.3569759 A0.05113,0.05113 270 0,0 -0.2422776,-0.3058459 L-0.2422776,0.5355541 A0.05113,0.05113 180 0,0 -0.1911476,0.5866841 L0.6502524,0.5866841 A0.05113,0.05113 90 0,0 0.7013824,0.5355541 L0.7013824,-0.3058459z" transform="matrix(1,0,0,-1,0.4692776,0.8136841)" fill="rgb(105,105,105)" fill-rule="nonzero" shaper:cutDepth="0.0508cm" stroke-linecap="round" stroke-linejoin="round" /></svg>