<?xml version="1.0" encoding="utf-8"?>
<!-- Generator: Fusion 360, Shaper Origin Export Add-In, Version 1.8.0  -->
<svg xmlns="http://www.w3.org/2000/svg" xmlns:xlink="http://www.w3.org/1999/xlink" xmlns:shaper="http://www.shapertools.com/namespaces/shaper" shaper:fusionaddin="version:1.8.0" width="1.39766cm" height="1.39766cm" version="1.1" x="0cm" y="0cm" viewBox="0 0 1.39766 1.39766" enable-background="new 0 0 1.39766 1.39766" xml:space="preserve"><path d="M0.6938212,-0.4693747 L0.6938212,0.3720253 A0.27813,0.27813 0 0,1 0.4156912,0.6501553 L-0.4257088,0.6501553 A0.27813,0.27813 90 0,1 -0.7038388,0.3720253 L-0.7038388,-0.4693747 A0.27813,0.27813 180 0,1 -0.4257088,-0.7475047 L0.4156912,-0.7475047 A0.27813,0.27813 270 0,1 0.6938212,-0.4693747z" transform="matrix(1,0,0,-1,0.7038388,0.6501553)" fill="rgb(0,0,0)" shaper:cutDepth="0.86741cm" stroke-linecap="round" stroke-linejoin="round" /><path d="M-0.4257088,-0.7475047 A0.27813,0.27813 270 0,0 -0.7038388,-0.4693747 L-0.7038388,0.3720253 A0.27813,0.27813 180 0,0 -0.4257088,0.6501553 L0.4156912,0.6501553 A0.27813,0.27813 90 0,0 0.6938212,0.3720253 L0.6938212,-0.4693747 A0.27813,0.27813 0 0,0 0.4156912,-0.7475047 L-0.4257088,-0.7475047z M-0.4257088,-0.6205047 L0.4156912,-0.6205047 A0.15113,0.15113 270 0,1 0.5668212,-0.4693747 L0.5668212,0.3720253 A0.15113,0.15113 0 0,1 0.4156912,0.5231553 L-0.4257088,0.5231553 A0.15113,0.15113 90 0,1 -0.5768388,0.3720253 L-0.5768388,-0.4693747 A0.15113,0.15113 180 0,1 -0.4257088,-0.6205047z" transform="matrix(1,0,0,-1,0.7038388,0.6501553)" fill="rgb(168,168,168)" fill-rule="nonzero" shaper:cutDepth="0.5969cm" stroke-linecap="round" stroke-linejoin="round" /><path d="M0.3030593,-0.0481038 L0.3030593,-0.0481038 0.2981936,-0.0482893 0.2934714,-0.049462 0.2892284,-0.0518231 0.2861176,-0.0555594 0.2842771,-0.0600593 0.2832787,-0.0648303 0.2827274,-0.0745425 0.2826989,-0.2748931 0.1742964,-0.0607288 0.1742964,-0.0607288 0.1710413,-0.0553581 0.1664916,-0.0510484 0.1607449,-0.0485368 0.1544855,-0.0481038 0.1544855,-0.0481038 0.1506286,-0.0483649 0.1469058,-0.0493968 0.1434865,-0.0511978 0.1405477,-0.0537077 0.1405477,-0.0537077 0.137176,-0.0578199 0.1359535,-0.0630092 0.1355904,-0.0736804 0.1355619,-0.3519522 0.1355619,-0.3519522 0.1361746,-0.3615747 0.13714,-0.3662954 0.1389338,-0.3707749 0.1419173,-0.3745433 0.1460309,-0.3770426 0.150677,-0.3783207 0.1554913,-0.3785873 0.1554913,-0.3785873 0.159974,-0.3782745 0.1643362,-0.3772024 0.1682895,-0.3750727 0.1715421,-0.371979 0.1738533,-0.3681289 0.175274,-0.3638646 0.1763261,-0.3549506 0.1762827,-0.1512982 0.2841887,-0.3669637 0.2841887,-0.3669637 0.2876016,-0.3718562 0.2920877,-0.3757821 0.2976285,-0.3779783 0.3035623,-0.3785873 0.3035623,-0.3785873 0.307917,-0.3783344 0.312137,-0.3772406 0.3159564,-0.3751417 0.3190403,-0.3720648 0.3211748,-0.3682641 0.3225138,-0.3641105 0.3234631,-0.3554535 0.3234197,-0.072738 0.3234197,-0.072738 0.3227919,-0.0634724 0.3216634,-0.0589606 0.3196049,-0.0547983 0.3163653,-0.0514792 0.3122331,-0.0493639 0.3077013,-0.0483434 0.3030593,-0.0481038z" transform="matrix(1,0,0,-1,0.7038388,0.6501553)" fill="rgb(106,106,106)" fill-rule="nonzero" shaper:cutDepth="0.05842cm" stroke-linecap="round" stroke-linejoin="round" /><path d="M0.042624,-0.0664959 L0.042624,-0.0664959 0.0491705,-0.0736374 0.0550627,-0.0813331 0.0602412,-0.0895186 0.0647839,-0.0980791 0.0719903,-0.1160597 0.0771178,-0.134743 0.0806826,-0.1537897 0.0828711,-0.1730437 0.0840448,-0.1923874 0.0843655,-0.211765 0.0843655,-0.211765 0.0840614,-0.2302668 0.0829454,-0.2487356 0.0809309,-0.267129 0.0776575,-0.2853387 0.072887,-0.3032149 0.0662935,-0.3205009 0.0622176,-0.3288142 0.0575549,-0.3368128 0.0465036,-0.3516457 0.0465036,-0.3516457 0.0407996,-0.3573624 0.0346076,-0.3625465 0.0278823,-0.3670168 0.0207879,-0.3708752 0.0133681,-0.3740649 0.0056475,-0.3764269 -0.0022711,-0.3780195 -0.0103252,-0.3785873 -0.0103252,-0.3785873 -0.0192836,-0.3779078 -0.0280667,-0.3759962 -0.0365983,-0.3731816 -0.0447848,-0.3694729 -0.0526055,-0.3650461 -0.0600236,-0.3599742 -0.0668864,-0.3541726 -0.0732608,-0.347838 -0.0732608,-0.347838 -0.0790084,-0.3405344 -0.0840236,-0.3327105 -0.0882985,-0.3244578 -0.0920121,-0.3159375 -0.0978192,-0.2982849 -0.1019402,-0.2801588 -0.1048839,-0.2618021 -0.1068156,-0.2433118 -0.1078133,-0.2247486 -0.1081771,-0.2061611 -0.1081771,-0.2061611 -0.1077792,-0.1889338 -0.1066409,-0.1717419 -0.1045565,-0.154635 -0.1013784,-0.1377016 -0.096963,-0.1210437 -0.0910607,-0.1048602 -0.0833681,-0.0894394 -0.0736919,-0.0751891 -0.0736919,-0.0751891 -0.0675932,-0.0685856 -0.0608587,-0.0626332 -0.0535568,-0.0573907 -0.0457978,-0.0528528 -0.0376399,-0.0490781 -0.0291401,-0.0461571 -0.0203543,-0.044256 -0.0113986,-0.0435058 -0.0113311,-0.0435058 -0.0113311,-0.0435058 -0.0038529,-0.0439932 0.0035295,-0.0452915 0.0107448,-0.0473144 0.0177319,-0.0500296 0.0244661,-0.0533173 0.0308676,-0.0572173 0.0369364,-0.0616144 0.042624,-0.0664959z M-0.0466784,-0.1066569 L-0.0466784,-0.1066569 -0.0528419,-0.1182841 -0.0573769,-0.1306518 -0.0607971,-0.1433648 -0.0633488,-0.156285 -0.0652221,-0.1693191 -0.0664651,-0.1824294 -0.0673696,-0.2087475 -0.0673696,-0.2087475 -0.0664237,-0.2369081 -0.0651576,-0.2509403 -0.0631976,-0.2648934 -0.0604194,-0.2787058 -0.0565875,-0.2922623 -0.0513648,-0.3053498 -0.0441639,-0.3174479 -0.0441639,-0.3174479 -0.0377432,-0.3249545 -0.0302645,-0.3314016 -0.0260406,-0.3339636 -0.0215026,-0.3359141 -0.0167449,-0.3372539 -0.011834,-0.3377798 -0.011834,-0.3377798 -0.0063431,-0.337119 -0.0010665,-0.3354538 0.0085779,-0.3300592 0.0168396,-0.3227168 0.0234416,-0.3138557 0.0234416,-0.3138557 0.0295146,-0.3019861 0.0340827,-0.2894467 0.0375109,-0.2765602 0.0399819,-0.2634476 0.0416915,-0.2502196 0.0427784,-0.2369214 0.0435579,-0.2102563 0.0435579,-0.2102563 0.0427209,-0.1848356 0.0399448,-0.1595568 0.0376091,-0.1470567 0.0344431,-0.1347392 0.0303253,-0.1227058 0.0249503,-0.1111831 0.0249503,-0.1111831 0.0182279,-0.1015509 0.0099295,-0.0932435 0.0051681,-0.089792 0.0000219,-0.0869571 -0.0055305,-0.0850203 -0.0113613,-0.0843158 -0.0113613,-0.0843158 -0.0167089,-0.0849921 -0.0218687,-0.0865615 -0.0313693,-0.0916372 -0.0397443,-0.0984145 -0.0466784,-0.1066569z" transform="matrix(1,0,0,-1,0.7038388,0.6501553)" fill="rgb(106,106,106)" fill-rule="nonzero" shaper:cutDepth="0.05842cm" stroke-linecap="round" stroke-linejoin="round" /><path d="M-0.1679515,-0.0889113 L-0.1679515,-0.0889113 -0.1744473,-0.0806614 -0.1815011,-0.0728898 -0.1891759,-0.0657193 -0.1975973,-0.059458 -0.2067908,-0.0543851 -0.2166549,-0.0508056 -0.226946,-0.0487278 -0.2374249,-0.0481038 -0.2374838,-0.0481039 -0.2374838,-0.0481039 -0.2466641,-0.0487251 -0.2557116,-0.0504043 -0.264511,-0.0530933 -0.272946,-0.0567684 -0.2809256,-0.061353 -0.2884594,-0.066636 -0.2954632,-0.0726045 -0.3020129,-0.0790687 -0.3020129,-0.0790687 -0.3129429,-0.0931829 -0.3220983,-0.1085145 -0.3296384,-0.1246968 -0.335792,-0.1414599 -0.3406674,-0.1586353 -0.3442049,-0.1761385 -0.3464198,-0.1938543 -0.3472029,-0.2116931 -0.3472029,-0.2116931 -0.3465956,-0.2285766 -0.3447667,-0.2453706 -0.3418305,-0.2620082 -0.3377327,-0.2783971 -0.3324634,-0.294449 -0.3259395,-0.3100313 -0.3181081,-0.3250011 -0.3089817,-0.3392167 -0.3089817,-0.3392167 -0.3024261,-0.3474783 -0.2951287,-0.3550919 -0.2869936,-0.3618021 -0.278204,-0.3676314 -0.2687605,-0.3723243 -0.2587813,-0.3757317 -0.2484458,-0.3778292 -0.2379278,-0.3785873 -0.2379278,-0.3785873 -0.2285358,-0.3778238 -0.2193071,-0.3759151 -0.2103705,-0.3729273 -0.2018354,-0.3689317 -0.1937767,-0.3640466 -0.1862711,-0.3583482 -0.1794809,-0.3518141 -0.1734117,-0.344605 -0.1734117,-0.344605 -0.1640222,-0.3310012 -0.1597888,-0.3239051 -0.158672,-0.3199265 -0.1584681,-0.3157955 -0.1584681,-0.3157955 -0.1597071,-0.3079917 -0.161243,-0.3043484 -0.1635282,-0.3011188 -0.1665806,-0.2986061 -0.1701012,-0.2968064 -0.177866,-0.2953917 -0.177866,-0.2953917 -0.1827208,-0.2958274 -0.1873801,-0.2972063 -0.1915878,-0.2996745 -0.1947494,-0.3033664 -0.1947494,-0.3033664 -0.2025739,-0.3156132 -0.2069719,-0.3214037 -0.2118494,-0.32679 -0.2174318,-0.3314458 -0.2237603,-0.3350012 -0.2306904,-0.3372029 -0.2379278,-0.3377798 -0.2379278,-0.3377798 -0.2473765,-0.3360704 -0.2561997,-0.3322665 -0.2640997,-0.3267996 -0.2710055,-0.3201135 -0.2770863,-0.3126699 -0.2823809,-0.3046463 -0.2912413,-0.2875925 -0.2978982,-0.2695609 -0.3025459,-0.2509123 -0.3053037,-0.2318874 -0.3064672,-0.212699 -0.3064672,-0.212699 -0.3053029,-0.1935583 -0.3025238,-0.1745848 -0.2977242,-0.1560236 -0.2946251,-0.1469477 -0.2909359,-0.1380967 -0.2866765,-0.1295035 -0.2818405,-0.121223 -0.2764165,-0.1133146 -0.2702867,-0.1059393 -0.2632167,-0.0994667 -0.2552279,-0.0941757 -0.2463608,-0.0905177 -0.236922,-0.0889113 -0.236922,-0.0889113 -0.2305734,-0.0894418 -0.2244812,-0.0913178 -0.2188415,-0.0942888 -0.2137804,-0.0981588 -0.2092593,-0.1026587 -0.2051916,-0.1075657 -0.1981979,-0.1182238 -0.1981979,-0.1182238 -0.1948868,-0.1233995 -0.1905109,-0.1276906 -0.1849842,-0.1303665 -0.1788718,-0.1308684 -0.1788718,-0.1308684 -0.1747638,-0.1304705 -0.1707789,-0.1293987 -0.16715,-0.1274349 -0.1640078,-0.1247611 -0.1615156,-0.121472 -0.1597739,-0.1177311 -0.1584681,-0.1096025 -0.1584681,-0.1096025 -0.159032,-0.1038173 -0.1613187,-0.0984723 -0.1679515,-0.0889113z" transform="matrix(1,0,0,-1,0.7038388,0.6501553)" fill="rgb(106,106,106)" fill-rule="nonzero" shaper:cutDepth="0.05842cm" stroke-linecap="round" stroke-linejoin="round" /><path d="M0.1909105,0.3328962 L0.1909105,0.3328962 0.1852102,0.3325467 0.1799591,0.3303148 0.1758999,0.3263079 0.1730931,0.3213293 0.1078894,0.1838491 0.0422593,0.3194196 0.0422593,0.3194196 0.0397822,0.3244019 0.0363193,0.3287435 0.0340489,0.3303456 0.0314189,0.331315 0.0258843,0.3318904 0.0258843,0.3318904 0.0210138,0.3316558 0.0162544,0.3306023 0.0119338,0.3283504 0.0085447,0.3248722 0.0064302,0.3204709 0.0052287,0.3157506 0.0045465,0.3060264 0.004518,0.029408 0.004518,0.029408 0.0051602,0.0198725 0.0061247,0.0151869 0.0078578,0.0107328 0.0107009,0.0068995 0.0146005,0.0041425 0.0191785,0.0027864 0.0239445,0.0024127 0.0239445,0.0024127 0.0288131,0.002601 0.0335512,0.0037254 0.037789,0.0061152 0.04112,0.0096681 0.0433313,0.0139986 0.0445761,0.0187174 0.0452822,0.0284203 0.0452388,0.2191074 0.0884976,0.1292237 0.0884976,0.1292237 0.0915548,0.12379 0.0955134,0.1189974 0.0981942,0.1174215 0.1012058,0.1166215 0.1074275,0.1163576 0.1074275,0.1163576 0.11431,0.1169289 0.1175578,0.1181162 0.1203379,0.1201644 0.1245691,0.1256276 0.1278312,0.1317323 0.1700471,0.2191074 0.1700471,0.0274216 0.1700471,0.0274216 0.1702816,0.0191092 0.1707818,0.0149728 0.1720873,0.011034 0.1720873,0.011034 0.1755727,0.0070914 0.180096,0.004387 0.1851672,0.0029729 0.1904076,0.0024127 0.1904076,0.0024127 0.1947642,0.0026461 0.1989953,0.0036874 0.2029119,0.0056004 0.2061078,0.0085652 0.2084056,0.0122639 0.209818,0.016394 0.2108113,0.0250436 0.2107679,0.3113009 0.2107679,0.3113009 0.2101944,0.3199083 0.2089927,0.3240524 0.2068567,0.3278037 0.2035199,0.3305215 0.1994846,0.3320518 0.1909105,0.3328962z" transform="matrix(1,0,0,-1,0.7038388,0.6501553)" fill="rgb(106,106,106)" fill-rule="nonzero" shaper:cutDepth="0.05842cm" stroke-linecap="round" stroke-linejoin="round" /><path d="M-0.1068839,0.2087493 L-0.1938588,0.2087493 -0.1938588,0.2920885 -0.0736827,0.2920885 -0.0736827,0.2920885 -0.064104,0.2926401 -0.0594641,0.2938711 -0.0551483,0.2959798 -0.0515759,0.2991751 -0.0491671,0.3033227 -0.0480153,0.3079813 -0.0478279,0.3127798 -0.0478279,0.3127798 -0.0480069,0.3173603 -0.0490454,0.3218215 -0.0512162,0.3258485 -0.0545731,0.3289701 -0.0586229,0.3310966 -0.0630502,0.3323047 -0.0721831,0.3328962 -0.2087566,0.3328961 -0.2087566,0.3328961 -0.2142707,0.3327846 -0.219735,0.3320705 -0.2249999,0.330435 -0.2295439,0.3273384 -0.2324718,0.3226759 -0.2340144,0.3173883 -0.2345511,0.3063857 -0.2345796,0.0294553 -0.2345796,0.0294553 -0.2343076,0.0183078 -0.2329752,0.0128976 -0.2301644,0.0080907 -0.2256236,0.0048777 -0.2203039,0.0032057 -0.2091901,0.0024127 -0.0736827,0.0024127 -0.0736827,0.0024127 -0.0638936,0.0029964 -0.0591099,0.0040873 -0.0545755,0.0059684 -0.0506931,0.0089515 -0.0479309,0.0130001 -0.046537,0.0176996 -0.0463192,0.0226009 -0.0463192,0.0226009 -0.0464998,0.0273394 -0.0476143,0.0319455 -0.0499499,0.036067 -0.0533959,0.0393123 -0.0576399,0.0414207 -0.0622299,0.0426239 -0.0716802,0.0432202 -0.1938588,0.0432202 -0.1938588,0.1679417 -0.1084444,0.1679417 -0.1084444,0.1679417 -0.0989852,0.1685571 -0.0943842,0.1697099 -0.090074,0.1716926 -0.0864662,0.1747593 -0.084004,0.1788065 -0.0827972,0.1833905 -0.0826005,0.18813 -0.0826005,0.18813 -0.0828389,0.1927215 -0.0839151,0.1971868 -0.0860126,0.2012705 -0.0893029,0.2044762 -0.0933338,0.2066738 -0.097738,0.2080016 -0.1068839,0.2087493z" transform="matrix(1,0,0,-1,0.7038388,0.6501553)" fill="rgb(106,106,106)" fill-rule="nonzero" shaper:cutDepth="0.05842cm" stroke-linecap="round" stroke-linejoin="round" /><path d="M0.0435579,-0.2102563 L0.0435579,-0.2102563 0.0427784,-0.2369214 0.0416915,-0.2502196 0.0399819,-0.2634476 0.0375109,-0.2765602 0.0340827,-0.2894467 0.0295146,-0.3019861 0.0234416,-0.3138557 0.0234416,-0.3138557 0.0168396,-0.3227168 0.0085779,-0.3300592 -0.0010665,-0.3354538 -0.0063431,-0.337119 -0.011834,-0.3377798 -0.011834,-0.3377798 -0.0167449,-0.3372539 -0.0215026,-0.3359141 -0.0260406,-0.3339636 -0.0302645,-0.3314016 -0.0377432,-0.3249545 -0.0441639,-0.3174479 -0.0441639,-0.3174479 -0.0513648,-0.3053498 -0.0565875,-0.2922623 -0.0604194,-0.2787058 -0.0631976,-0.2648934 -0.0651576,-0.2509403 -0.0664237,-0.2369081 -0.0673696,-0.2087475 -0.0673696,-0.2087475 -0.0664651,-0.1824294 -0.0652221,-0.1693191 -0.0633488,-0.156285 -0.0607971,-0.1433648 -0.0573769,-0.1306518 -0.0528419,-0.1182841 -0.0466784,-0.1066569 -0.0466784,-0.1066569 -0.0397443,-0.0984145 -0.0313693,-0.0916372 -0.0218687,-0.0865615 -0.0167089,-0.0849921 -0.0113613,-0.0843158 -0.0113613,-0.0843158 -0.0055305,-0.0850203 0.0000219,-0.0869571 0.0051681,-0.089792 0.0099295,-0.0932435 0.0182279,-0.1015509 0.0249503,-0.1111831 0.0249503,-0.1111831 0.0303253,-0.1227058 0.0344431,-0.1347392 0.0376091,-0.1470567 0.0399448,-0.1595568 0.0427209,-0.1848356 0.0435579,-0.2102563z" transform="matrix(1,0,0,-1,0.7038388,0.6501553)" fill="rgb(105,105,105)" fill-rule="nonzero" shaper:cutDepth="0.0508cm" stroke-linecap="round" stroke-linejoin="round" /><path d="M-0.4768388,0.3720253 A0.05113,0.05113 180 0,0 -0.4257088,0.4231553 L0.4156912,0.4231553 A0.05113,0.05113 90 0,0 0.4668212,0.3720253 L0.4668212,-0.4693747 A0.05113,0.05113 0 0,0 0.4156912,-0.5205047 L-0.4257088,-0.5205047 A0.05113,0.05113 270 0,0 -0.4768388,-0.4693747 L-0.4768388,0.3720253z" transform="matrix(1,0,0,-1,0.7038388,0.6501553)" fill="rgb(105,105,105)" fill-rule="nonzero" shaper:cutDepth="0.0508cm" stroke-linecap="round" stroke-linejoin="round" /></svg>