<?xml version="1.0" encoding="utf-8"?>
<!-- Generator: Fusion 360, Shaper Origin Export Add-In, Version 1.8.0  -->
<svg xmlns="http://www.w3.org/2000/svg" xmlns:xlink="http://www.w3.org/1999/xlink" xmlns:shaper="http://www.shapertools.com/namespaces/shaper" shaper:fusionaddin="version:1.8.0" width="1.39766cm" height="1.39766cm" version="1.1" x="0cm" y="0cm" viewBox="0 0 1.39766 1.39766" enable-background="new 0 0 1.39766 1.39766" xml:space="preserve"><path d="M-0.4207,-0.69883 L0.4207,-0.69883 A0.27813,0.27813 270 0,1 0.69883,-0.4207 L0.69883,0.4207 A0.27813,0.27813 0 0,1 0.4207,0.69883 L-0.4207,0.69883 A0.27813,0.27813 90 0,1 -0.69883,0.4207 L-0.69883,-0.4207 A0.27813,0.27813 180 0,1 -0.4207,-0.69883z" transform="matrix(1,0,0,-1,0.69883,0.69883)" fill="rgb(0,0,0)" shaper:cutDepth="0.86741cm" stroke-linecap="round" stroke-linejoin="round" /><path d="M0.69883,0.4207 L0.69883,-0.4207 A0.27813,0.27813 0 0,0 0.4207,-0.69883 L-0.4207,-0.69883 A0.27813,0.27813 270 0,0 -0.69883,-0.4207 L-0.69883,0.4207 A0.27813,0.27813 180 0,0 -0.4207,0.69883 L0.4207,0.69883 A0.27813,0.27813 90 0,0 0.69883,0.4207z M0.4207,0.57183 L-0.4207,0.57183 A0.15113,0.15113 90 0,1 -0.57183,0.4207 L-0.57183,-0.4207 A0.15113,0.15113 180 0,1 -0.4207,-0.57183 L0.4207,-0.57183 A0.15113,0.15113 270 0,1 0.57183,-0.4207 L0.57183,0.4207 A0.15113,0.15113 0 0,1 0.4207,0.57183z" transform="matrix(1,0,0,-1,0.69883,0.69883)" fill="rgb(168,168,168)" fill-rule="nonzero" shaper:cutDepth="0.5969cm" stroke-linecap="round" stroke-linejoin="round" /><path d="M0.0081287,0.2262271 L0.0081287,0.2262271 0.0167502,0.2257032 0.0252853,0.2243899 0.0336833,0.2223691 0.0418239,0.2194868 0.0496423,0.2158173 0.0569879,0.211275 0.0638511,0.2060332 0.0701272,0.2000991 0.0758505,0.193632 0.0808467,0.1865868 0.0851253,0.1790847 0.0886425,0.171197 0.0913271,0.1629881 0.0932412,0.1545657 0.0944104,0.146009 0.0949165,0.1373866 0.0949165,0.1373866 0.0943963,0.1289587 0.0930946,0.1206174 0.0910861,0.112416 0.0882723,0.1044558 0.0845954,0.0968556 0.0801967,0.089649 0.0750662,0.0829435 0.0692897,0.0767855 0.0629879,0.0711666 0.0561457,0.0662196 0.0488561,0.0619607 0.0411594,0.0584879 0.0331709,0.055759 0.0249364,0.0538863 0.0165815,0.052676 0.0081534,0.0521599 0.0081534,0.0521599 -0.0003656,0.0526746 -0.0088162,0.0538623 -0.0171224,0.0558242 -0.0252033,0.0585657 -0.0329998,0.062038 -0.0403545,0.0663649 -0.0472623,0.0713768 -0.0535938,0.0770984 -0.0593921,0.0833606 -0.0644977,0.0901987 -0.0689067,0.0975053 -0.0725195,0.1052367 -0.0753413,0.1132907 -0.0774023,0.1215722 -0.0786267,0.1300179 -0.0791518,0.1385361 -0.0791518,0.1385361 -0.0786349,0.1471162 -0.0774397,0.1556281 -0.0754008,0.1639778 -0.0726332,0.1721157 -0.0690591,0.1799323 -0.0646845,0.1873308 -0.0596104,0.1942685 -0.0538366,0.2006358 -0.0474799,0.2064212 -0.0406206,0.2116006 -0.0332279,0.215985 -0.0254203,0.2195799 -0.0173112,0.2224267 -0.0089491,0.224421 -0.0004516,0.2257067 0.0081287,0.2262271z" transform="matrix(1,0,0,-1,0.69883,0.69883)" fill="rgb(105,105,105)" fill-rule="nonzero" shaper:cutDepth="0.0508cm" stroke-linecap="round" stroke-linejoin="round" /><path d="M0.47277,-0.4207 A0.05207,0.05207 0 0,0 0.4207,-0.47277 L-0.4207,-0.47277 A0.05207,0.05207 270 0,0 -0.47277,-0.4207 L-0.47277,0.4207 A0.05207,0.05207 180 0,0 -0.4207,0.47277 L0.4207,0.47277 A0.05207,0.05207 90 0,0 0.47277,0.4207 L0.47277,-0.4207z" transform="matrix(1,0,0,-1,0.69883,0.69883)" fill="rgb(105,105,105)" fill-rule="nonzero" shaper:cutDepth="0.0508cm" stroke-linecap="round" stroke-linejoin="round" /><path d="M0.0208554,0.3114549 L0.0208554,0.3114549 0.006125,0.3020365 -0.0078043,0.2914594 -0.020961,0.2799337 -0.0270811,0.2736789 -0.0323504,0.2667062 -0.0323504,0.2667062 -0.0222942,0.2694328 -0.0120695,0.2714314 -0.0017108,0.272547 0.0087034,0.2728643 0.0087034,0.2728643 0.0218275,0.27204 0.0348511,0.2702234 0.0476311,0.2671278 0.0600688,0.2628606 0.0720264,0.2573902 0.0832836,0.2505953 0.0938207,0.2427293 0.1034925,0.2338205 0.1122395,0.2240019 0.1200196,0.2134017 0.1265829,0.2020075 0.1319189,0.1899889 0.1360822,0.1775169 0.1389928,0.1646921 0.140759,0.1516625 0.1415537,0.1385361 0.1415537,0.1385361 0.1407461,0.1253875 0.1388701,0.1123505 0.1358763,0.0995217 0.1316397,0.0870498 0.1260816,0.0751075 0.119301,0.0638151 0.1114462,0.0532412 0.1024583,0.0436113 0.0926389,0.0348317 0.0819657,0.0271118 0.0705688,0.0205085 0.0585338,0.0151539 0.0460212,0.0110383 0.0331791,0.0081041 0.0201277,0.0063259 0.0069792,0.0055216 0.0069792,0.0055216 -0.0062678,0.0063419 -0.0194116,0.0081794 -0.0323136,0.0112915 -0.0448375,0.0156826 -0.0568602,0.0213029 -0.0682005,0.0281966 -0.0787255,0.0362812 -0.0883723,0.0453955 -0.0970744,0.0554166 -0.1047372,0.0662518 -0.1111693,0.0778605 -0.1164184,0.0900512 -0.1204915,0.1026803 -0.1232728,0.1156601 -0.1250038,0.1288171 -0.125789,0.1420667 -0.125789,0.1420667 -0.1246371,0.1640983 -0.1214991,0.1859357 -0.1164117,0.2074027 -0.1094957,0.2283526 -0.1007874,0.2486232 -0.0903211,0.2680439 -0.0780492,0.2863776 -0.0641261,0.3034905 -0.0641261,0.3034905 -0.050375,0.3167775 -0.035666,0.3290021 -0.020364,0.3404702 -0.004548,0.3512208 0.0358811,0.37632 0.0358811,0.37632 0.0459742,0.3808302 0.0512629,0.3824615 0.0567364,0.3832171 0.0567364,0.3832171 0.0612426,0.3827898 0.0656437,0.3817352 0.0697626,0.3798612 0.0734754,0.3772717 0.0766082,0.3740075 0.0790233,0.3701801 0.0803885,0.3658662 0.0809582,0.3613764 0.0809582,0.3613764 0.0807159,0.357483 0.0798795,0.3537298 0.0781725,0.3502372 0.075862,0.347089 0.0701631,0.341858 0.0636893,0.3375941 0.0208554,0.3114549z M0.0949165,0.1373866 L0.0949165,0.1373866 0.0944104,0.146009 0.0932412,0.1545657 0.0913271,0.1629881 0.0886425,0.171197 0.0851253,0.1790847 0.0808467,0.1865868 0.0758505,0.193632 0.0701272,0.2000991 0.0638511,0.2060332 0.0569879,0.211275 0.0496423,0.2158173 0.0418239,0.2194868 0.0336833,0.2223691 0.0252853,0.2243899 0.0167502,0.2257032 0.0081287,0.2262271 0.0081287,0.2262271 -0.0004516,0.2257067 -0.0089491,0.224421 -0.0173112,0.2224267 -0.0254203,0.2195799 -0.0332279,0.215985 -0.0406206,0.2116006 -0.0474799,0.2064212 -0.0538366,0.2006358 -0.0596104,0.1942685 -0.0646845,0.1873308 -0.0690591,0.1799323 -0.0726332,0.1721157 -0.0754008,0.1639778 -0.0774397,0.1556281 -0.0786349,0.1471162 -0.0791518,0.1385361 -0.0791518,0.1385361 -0.0786267,0.1300179 -0.0774023,0.1215722 -0.0753413,0.1132907 -0.0725195,0.1052367 -0.0689067,0.0975053 -0.0644977,0.0901987 -0.0593921,0.0833606 -0.0535938,0.0770984 -0.0472623,0.0713768 -0.0403545,0.0663649 -0.0329998,0.062038 -0.0252033,0.0585657 -0.0171224,0.0558242 -0.0088162,0.0538623 -0.0003656,0.0526746 0.0081534,0.0521599 0.0081534,0.0521599 0.0165815,0.052676 0.0249364,0.0538863 0.0331709,0.055759 0.0411594,0.0584879 0.0488561,0.0619607 0.0561457,0.0662196 0.0629879,0.0711666 0.0692897,0.0767855 0.0750662,0.0829435 0.0801967,0.089649 0.0845954,0.0968556 0.0882723,0.1044558 0.0910861,0.112416 0.0930946,0.1206174 0.0943963,0.1289587 0.0949165,0.1373866z" transform="matrix(1,0,0,-1,0.69883,0.69883)" fill="rgb(106,106,106)" fill-rule="nonzero" shaper:cutDepth="0.05842cm" stroke-linecap="round" stroke-linejoin="round" /></svg>