<?xml version="1.0" encoding="utf-8"?>
<!-- Generator: Fusion 360, Shaper Origin Export Add-In, Version 1.8.0  -->
<svg xmlns="http://www.w3.org/2000/svg" xmlns:xlink="http://www.w3.org/1999/xlink" xmlns:shaper="http://www.shapertools.com/namespaces/shaper" shaper:fusionaddin="version:1.8.0" width="1.39766cm" height="1.39766cm" version="1.1" x="0cm" y="0cm" viewBox="0 0 1.39766 1.39766" enable-background="new 0 0 1.39766 1.39766" xml:space="preserve"><path d="M0.4207,0.69883 L-0.4207,0.69883 A0.27813,0.27813 90 0,1 -0.69883,0.4207 L-0.69883,-0.4207 A0.27813,0.27813 180 0,1 -0.4207,-0.69883 L0.4207,-0.69883 A0.27813,0.27813 270 0,1 0.69883,-0.4207 L0.69883,0.4207 A0.27813,0.27813 0 0,1 0.4207,0.69883z" transform="matrix(1,0,0,-1,0.69883,0.69883)" fill="rgb(0,0,0)" shaper:cutDepth="0.86741cm" stroke-linecap="round" stroke-linejoin="round" /><path d="M-0.69883,-0.4207 L-0.69883,0.4207 A0.27813,0.27813 180 0,0 -0.4207,0.69883 L0.4207,0.69883 A0.27813,0.27813 90 0,0 0.69883,0.4207 L0.69883,-0.4207 A0.27813,0.27813 0 0,0 0.4207,-0.69883 L-0.4207,-0.69883 A0.27813,0.27813 270 0,0 -0.69883,-0.4207z M-0.4207,-0.57183 L0.4207,-0.57183 A0.15113,0.15113 270 0,1 0.57183,-0.4207 L0.57183,0.4207 A0.15113,0.15113 0 0,1 0.4207,0.57183 L-0.4207,0.57183 A0.15113,0.15113 90 0,1 -0.57183,0.4207 L-0.57183,-0.4207 A0.15113,0.15113 180 0,1 -0.4207,-0.57183z" transform="matrix(1,0,0,-1,0.69883,0.69883)" fill="rgb(168,168,168)" fill-rule="nonzero" shaper:cutDepth="0.5969cm" stroke-linecap="round" stroke-linejoin="round" /><path d="M-0.47277,0.4207 A0.05207,0.05207 180 0,0 -0.4207,0.47277 L0.4207,0.47277 A0.05207,0.05207 90 0,0 0.47277,0.4207 L0.47277,-0.4207 A0.05207,0.05207 0 0,0 0.4207,-0.47277 L-0.4207,-0.47277 A0.05207,0.05207 270 0,0 -0.47277,-0.4207 L-0.47277,0.4207z" transform="matrix(1,0,0,-1,0.69883,0.69883)" fill="rgb(105,105,105)" fill-rule="nonzero" shaper:cutDepth="0.0508cm" stroke-linecap="round" stroke-linejoin="round" /><path d="M-0.0059118,0.3613669 L-0.0059118,0.3613669 -0.012551,0.3606756 -0.015645,0.3594066 -0.0182877,0.3573616 -0.0219191,0.3517658 -0.0242012,0.345479 -0.0770088,0.1608256 -0.1297898,0.3447077 -0.1297898,0.3447077 -0.131928,0.3507756 -0.135555,0.3560673 -0.1380298,0.3581332 -0.1408962,0.359594 -0.1440217,0.360372 -0.1472396,0.3605047 -0.1472396,0.3605047 -0.1507171,0.3601051 -0.1540558,0.3590608 -0.157151,0.3574278 -0.1598321,0.3551788 -0.1620814,0.352498 -0.1637363,0.3494146 -0.1647567,0.3460684 -0.1650981,0.3425847 -0.1650981,0.3425847 -0.1647932,0.338711 -0.1638049,0.3349487 -0.0961632,0.0995315 -0.0961632,0.0995315 -0.0923096,0.0867782 -0.0923096,0.0867782 -0.0894893,0.0831559 -0.0858134,0.0804065 -0.0815143,0.0788008 -0.076976,0.0780953 -0.076976,0.0780953 -0.0733013,0.0783113 -0.069753,0.0792865 -0.0665631,0.0811169 -0.0639306,0.0836877 -0.0602615,0.090058 -0.0578244,0.0970006 -0.0067761,0.2766032 0.0451536,0.0961263 0.0451536,0.0961263 0.0474438,0.0892824 0.0509362,0.0829873 0.0535407,0.0805147 0.0567822,0.0789318 0.0639208,0.0780953 0.0639208,0.0780953 0.0673033,0.0782589 0.0705594,0.0791867 0.0734562,0.0809364 0.0758711,0.0833102 0.0794719,0.0890303 0.0817793,0.0953995 0.1507156,0.3368207 0.1507156,0.3368207 0.1520429,0.3454175 0.1520429,0.3454175 0.1516935,0.3487012 0.1507028,0.35185 0.1490601,0.354713 0.1467892,0.3571102 0.1440781,0.358993 0.1410515,0.3603153 0.134554,0.3613669 0.134554,0.3613669 0.128162,0.3605503 0.1252437,0.3591567 0.1227127,0.3571461 0.1189473,0.3519074 0.1166956,0.3458485 0.0634567,0.1614004 0.0102501,0.3475432 0.0102501,0.3475432 0.0082637,0.3530277 0.0048518,0.3577436 0.0025327,0.359518 -0.0001365,0.3606973 -0.0059118,0.3613669z" transform="matrix(1,0,0,-1,0.69883,0.69883)" fill="rgb(106,106,106)" fill-rule="nonzero" shaper:cutDepth="0.05842cm" stroke-linecap="round" stroke-linejoin="round" /><path d="M0.0219098,-0.1833926 L0.021348,-0.1804932 0.021348,-0.1804932 0.0213285,-0.1755294 0.0221757,-0.1706391 0.024186,-0.1661024 0.027151,-0.1621227 0.030887,-0.1588562 0.0352712,-0.1565304 0.0400564,-0.1552166 0.044995,-0.1547113 0.044995,-0.1547113 0.0498894,-0.1552233 0.0546336,-0.1565273 0.0589601,-0.1588688 0.0626223,-0.1621538 0.065437,-0.1661883 0.0672693,-0.1707548 0.06809,-0.1756043 0.0679852,-0.1805252 0.0679852,-0.2682663 0.1055084,-0.2682663 0.1055084,-0.2682663 0.1136149,-0.2683449 0.1176371,-0.2688918 0.1213552,-0.2704832 0.1213552,-0.2704832 0.1271535,-0.2739395 0.1315789,-0.2790501 0.1344314,-0.2851708 0.1355598,-0.2918312 0.1355598,-0.2918312 0.1345952,-0.2980936 0.132157,-0.3039337 0.1281995,-0.3088759 0.1230794,-0.3126044 0.1230794,-0.3126044 0.1182451,-0.3140191 0.1132494,-0.3146848 0.1031725,-0.3149035 0.0679852,-0.3149035 0.0679852,-0.350374 0.0679852,-0.350374 0.0674751,-0.361732 0.0664906,-0.3673297 0.0646856,-0.3727246 0.0617104,-0.3775578 0.0572125,-0.3810054 0.0518106,-0.382765 0.0461445,-0.3832171 0.0461445,-0.3832171 0.0389764,-0.3822844 0.0322805,-0.3795974 0.0292707,-0.3775354 0.0266875,-0.375009 0.0230723,-0.3687661 0.0230723,-0.3687661 0.0218181,-0.3644657 0.021473,-0.3599862 0.0213479,-0.3510113 0.0213479,-0.3149035 -0.1125697,-0.3149035 -0.1125697,-0.3149035 -0.1244415,-0.314803 -0.1303578,-0.314273 -0.1331995,-0.3134626 -0.1358061,-0.3120297 -0.1358061,-0.3120297 -0.1408293,-0.308479 -0.1446158,-0.3036349 -0.1469038,-0.2979318 -0.1477118,-0.2918312 -0.1477118,-0.2918312 -0.1475505,-0.2880381 -0.1465333,-0.2843668 -0.1438055,-0.2772546 -0.1421029,-0.2727592 -0.0547021,-0.0256881 -0.0535342,-0.023339 -0.0535342,-0.023339 -0.0505113,-0.0162624 -0.0483857,-0.0130427 -0.0456774,-0.0103075 -0.0425107,-0.0081093 -0.0389745,-0.0065804 -0.035213,-0.0057457 -0.0313651,-0.0055216 -0.0313651,-0.0055216 -0.026754,-0.0059749 -0.0222737,-0.0071485 -0.0180593,-0.0090744 -0.0143005,-0.0117806 -0.0110619,-0.0150943 -0.0085421,-0.0189802 -0.0069789,-0.0233402 -0.0064044,-0.027937 -0.0064044,-0.027937 -0.0067315,-0.0313537 -0.007738,-0.0346382 -0.0098666,-0.0411718 -0.0110017,-0.0440391 -0.090457,-0.2682663 0.0213479,-0.2682663 0.0219098,-0.1833926z" transform="matrix(1,0,0,-1,0.69883,0.69883)" fill="rgb(106,106,106)" fill-rule="nonzero" shaper:cutDepth="0.05842cm" stroke-linecap="round" stroke-linejoin="round" /></svg>