<?xml version="1.0" encoding="utf-8"?>
<!-- Generator: Fusion 360, Shaper Origin Export Add-In, Version 1.8.0  -->
<svg xmlns="http://www.w3.org/2000/svg" xmlns:xlink="http://www.w3.org/1999/xlink" xmlns:shaper="http://www.shapertools.com/namespaces/shaper" shaper:fusionaddin="version:1.8.0" width="1.0287cm" height="1.0287cm" version="1.1" x="0cm" y="0cm" viewBox="0 0 1.0287 1.0287" enable-background="new 0 0 1.0287 1.0287" xml:space="preserve"><path d="M-0.51435,-0 a0.51435,0.51435 0 1,1 1.0287,0 a0.51435,0.51435 0 1,1 -1.0287,0z" transform="matrix(1,0,0,-1,0.51435,0.51435)" fill="rgb(0,0,0)" shaper:cutDepth="0.86868cm" stroke-linecap="round" stroke-linejoin="round" /><path d="M-0.51435,-0 a0.51435,0.51435 0 1,0 1.0287,0 a0.51435,0.51435 0 1,0 -1.0287,0z M-0.41275,0 a0.41275,0.41275 0 1,1 0.8255,0 a0.41275,0.41275 0 1,1 -0.8255,0z" transform="matrix(1,0,0,-1,0.51435,0.51435)" fill="rgb(168,168,168)" fill-rule="nonzero" shaper:cutDepth="0.59817cm" stroke-linecap="round" stroke-linejoin="round" /><path d="M-0.33655,0 a0.33655,0.33655 0 1,0 0.6731,0 a0.33655,0.33655 0 1,0 -0.6731,0z M-0.28575,0 a0.28575,0.28575 0 1,1 0.5715,0 a0.28575,0.28575 0 1,1 -0.5715,0z" transform="matrix(1,0,0,-1,0.51435,0.51435)" fill="rgb(106,106,106)" fill-rule="nonzero" shaper:cutDepth="0.05842cm" stroke-linecap="round" stroke-linejoin="round" /><path d="M-0.28575,0 a0.28575,0.28575 0 1,1 0.5715,0 a0.28575,0.28575 0 1,1 -0.5715,0z" transform="matrix(1,0,0,-1,0.51435,0.51435)" fill="rgb(105,105,105)" fill-rule="nonzero" shaper:cutDepth="0.0508cm" stroke-linecap="round" stroke-linejoin="round" /></svg>