<?xml version="1.0" encoding="utf-8"?>
<!-- Generator: Fusion 360, Shaper Origin Export Add-In, Version 1.8.0  -->
<svg xmlns="http://www.w3.org/2000/svg" xmlns:xlink="http://www.w3.org/1999/xlink" xmlns:shaper="http://www.shapertools.com/namespaces/shaper" shaper:fusionaddin="version:1.8.0" width="1.39766cm" height="1.39766cm" version="1.1" x="0cm" y="0cm" viewBox="0 0 1.39766 1.39766" enable-background="new 0 0 1.39766 1.39766" xml:space="preserve"><path d="M0.4207,0.69883 L-0.4207,0.69883 A0.27813,0.27813 90 0,1 -0.69883,0.4207 L-0.69883,-0.4207 A0.27813,0.27813 180 0,1 -0.4207,-0.69883 L0.4207,-0.69883 A0.27813,0.27813 270 0,1 0.69883,-0.4207 L0.69883,0.4207 A0.27813,0.27813 0 0,1 0.4207,0.69883z" transform="matrix(1,0,0,-1,0.69883,0.69883)" fill="rgb(0,0,0)" shaper:cutDepth="0.86741cm" stroke-linecap="round" stroke-linejoin="round" /><path d="M-0.69883,-0.4207 L-0.69883,0.4207 A0.27813,0.27813 180 0,0 -0.4207,0.69883 L0.4207,0.69883 A0.27813,0.27813 90 0,0 0.69883,0.4207 L0.69883,-0.4207 A0.27813,0.27813 0 0,0 0.4207,-0.69883 L-0.4207,-0.69883 A0.27813,0.27813 270 0,0 -0.69883,-0.4207z M-0.4207,-0.57183 L0.4207,-0.57183 A0.15113,0.15113 270 0,1 0.57183,-0.4207 L0.57183,0.4207 A0.15113,0.15113 0 0,1 0.4207,0.57183 L-0.4207,0.57183 A0.15113,0.15113 90 0,1 -0.57183,0.4207 L-0.57183,-0.4207 A0.15113,0.15113 180 0,1 -0.4207,-0.57183z" transform="matrix(1,0,0,-1,0.69883,0.69883)" fill="rgb(168,168,168)" fill-rule="nonzero" shaper:cutDepth="0.5969cm" stroke-linecap="round" stroke-linejoin="round" /><path d="M-0.47277,0.4207 A0.05207,0.05207 180 0,0 -0.4207,0.47277 L0.4207,0.47277 A0.05207,0.05207 90 0,0 0.47277,0.4207 L0.47277,-0.4207 A0.05207,0.05207 0 0,0 0.4207,-0.47277 L-0.4207,-0.47277 A0.05207,0.05207 270 0,0 -0.47277,-0.4207 L-0.47277,0.4207z" transform="matrix(1,0,0,-1,0.69883,0.69883)" fill="rgb(105,105,105)" fill-rule="nonzero" shaper:cutDepth="0.0508cm" stroke-linecap="round" stroke-linejoin="round" /><path d="M-0.0633871,-0.1347592 L-0.0633871,-0.1347592 -0.0521954,-0.1310451 -0.0407098,-0.1283882 -0.0290256,-0.1268045 -0.0172426,-0.1263842 -0.0172426,-0.1263842 -0.0047031,-0.12721 0.0077271,-0.129048 0.0199426,-0.1319984 0.0317911,-0.1361824 0.0431554,-0.1415445 0.0539128,-0.1480388 0.0638894,-0.1556788 0.0731225,-0.1642024 0.0814887,-0.1735788 0.0889655,-0.1836781 0.0953312,-0.1945123 0.100566,-0.205936 0.1046243,-0.2178276 0.107469,-0.230069 0.1092857,-0.2425016 0.1100243,-0.2550469 0.1100243,-0.2550469 0.109282,-0.2676992 0.1074619,-0.28024 0.1045125,-0.2925662 0.1003249,-0.3045268 0.094953,-0.3160049 0.0884402,-0.3268761 0.0808229,-0.3370041 0.0722149,-0.3463056 0.0627826,-0.354769 0.0525094,-0.3621907 0.0415816,-0.3686069 0.0300265,-0.3738118 0.0180077,-0.3778312 0.0056645,-0.3807045 -0.006894,-0.3824063 -0.0195416,-0.3832171 -0.0195416,-0.3832171 -0.031966,-0.3827605 -0.0442929,-0.3811506 -0.0563999,-0.3783271 -0.0680973,-0.3741191 -0.0792387,-0.3686037 -0.0897633,-0.3619861 -0.0996023,-0.3543867 -0.1088748,-0.3461044 -0.1088748,-0.3461044 -0.1139102,-0.3413306 -0.1181396,-0.3358537 -0.1211056,-0.3295713 -0.1219299,-0.3227037 -0.1219299,-0.3227037 -0.1214846,-0.318124 -0.120206,-0.3137063 -0.1180427,-0.3096467 -0.1151044,-0.3061077 -0.1114883,-0.3032644 -0.1073908,-0.3011752 -0.1029438,-0.2999981 -0.098365,-0.2995493 -0.098365,-0.2995493 -0.0927401,-0.3000505 -0.0874769,-0.3020772 -0.0829661,-0.3054775 -0.0789055,-0.3094022 -0.0789055,-0.3094022 -0.0732288,-0.3155714 -0.0669735,-0.3211523 -0.0601093,-0.3259647 -0.0527375,-0.329956 -0.0449218,-0.3329867 -0.0367922,-0.3350341 -0.0284917,-0.3362047 -0.0201164,-0.3365799 -0.0201164,-0.3365799 -0.0120182,-0.3360712 -0.003981,-0.3349645 0.0039364,-0.3331867 0.0116422,-0.3306494 0.0190697,-0.3273827 0.0261001,-0.3233335 0.0326842,-0.3185924 0.0388116,-0.3132737 0.044374,-0.307367 0.0493212,-0.3009364 0.0535862,-0.2940345 0.0570539,-0.2866994 0.0597744,-0.2790558 0.0617032,-0.2711746 0.0628558,-0.2631434 0.0633871,-0.2550469 0.0633871,-0.2550469 0.0628542,-0.2469302 0.0616941,-0.2388798 0.0597806,-0.2309735 0.0570238,-0.2233218 0.0535742,-0.2159555 0.0492959,-0.2090379 0.0443766,-0.2025605 0.0388426,-0.1965994 0.0327449,-0.1912158 0.0261873,-0.1864041 0.0191428,-0.1823379 0.0116997,-0.1790579 0.0039783,-0.1765 -0.0039398,-0.174639 -0.0201164,-0.1730214 -0.0201164,-0.1730214 -0.0325331,-0.1740725 -0.0446133,-0.1771413 -0.0560309,-0.182131 -0.0666715,-0.1886218 -0.0666715,-0.1886218 -0.0746507,-0.1938039 -0.0791638,-0.195283 -0.0839141,-0.1955189 -0.0839141,-0.1955189 -0.0912456,-0.1946806 -0.0981038,-0.1919953 -0.1011588,-0.1898845 -0.1037886,-0.1873027 -0.1077253,-0.1810679 -0.1077253,-0.1810679 -0.1091623,-0.1766912 -0.1098115,-0.1721251 -0.1100244,-0.1629068 -0.1100243,-0.0388574 -0.1100243,-0.0388574 -0.1090967,-0.0268523 -0.1073307,-0.0210934 -0.1040021,-0.0160844 -0.0989885,-0.0127707 -0.0931827,-0.0111599 -0.0871804,-0.0106491 -0.0811546,-0.0107766 0.0432708,-0.0107765 0.0432708,-0.0107765 0.0545258,-0.0116902 0.0600118,-0.013097 0.0651227,-0.0154945 0.0694462,-0.0191363 0.0725416,-0.0238589 0.0741473,-0.0292767 0.0745538,-0.0349162 0.0745538,-0.0349162 0.0737313,-0.0410737 0.071399,-0.0468243 0.0674491,-0.0516119 0.0623197,-0.0551147 0.0623197,-0.0551147 0.0574175,-0.0566013 0.0523259,-0.0572184 0.0420716,-0.0574139 -0.0633871,-0.0574139 -0.0633871,-0.1347592z" transform="matrix(1,0,0,-1,0.69883,0.69883)" fill="rgb(106,106,106)" fill-rule="nonzero" shaper:cutDepth="0.05842cm" stroke-linecap="round" stroke-linejoin="round" /></svg>