%TF.GenerationSoftware,KiCad,Pcbnew,(5.1.6)-1*%
%TF.CreationDate,2020-12-18T17:17:27+11:00*%
%TF.ProjectId,COMM Panel PCB V2,434f4d4d-2050-4616-9e65-6c2050434220,rev?*%
%TF.SameCoordinates,Original*%
%TF.FileFunction,Soldermask,Top*%
%TF.FilePolarity,Negative*%
%FSLAX46Y46*%
G04 Gerber Fmt 4.6, Leading zero omitted, Abs format (unit mm)*
G04 Created by KiCad (PCBNEW (5.1.6)-1) date 2020-12-18 17:17:27*
%MOMM*%
%LPD*%
G01*
G04 APERTURE LIST*
%ADD10C,12.800000*%
%ADD11C,4.400000*%
%ADD12C,7.640752*%
%ADD13C,2.481250*%
%ADD14R,1.600000X1.100000*%
%ADD15O,3.400000X2.800000*%
%ADD16C,1.900000*%
%ADD17R,1.900000X1.900000*%
G04 APERTURE END LIST*
D10*
%TO.C,G3*%
X94190570Y-92683622D03*
X94190570Y-92683622D03*
%TD*%
D11*
%TO.C,21*%
X97619570Y-143229622D03*
%TD*%
%TO.C,23*%
X205569570Y-89254622D03*
%TD*%
D12*
%TO.C,9*%
X223019370Y-41629622D03*
D13*
X223019370Y-35629622D03*
D12*
X223019370Y-41629622D03*
%TD*%
%TO.C,8*%
X184919370Y-41629622D03*
D13*
X184919370Y-35629622D03*
D12*
X184919370Y-41629622D03*
%TD*%
%TO.C,11*%
X223019370Y-73379622D03*
D13*
X223019370Y-67379622D03*
D12*
X223019370Y-73379622D03*
%TD*%
%TO.C,10*%
X184919370Y-73379622D03*
D13*
X184919370Y-67379622D03*
D12*
X184919370Y-73379622D03*
%TD*%
D11*
%TO.C,24*%
X205569570Y-41629622D03*
%TD*%
D12*
%TO.C,13*%
X223019370Y-105129622D03*
D13*
X223019370Y-99129622D03*
D12*
X223019370Y-105129622D03*
%TD*%
%TO.C,12*%
X184919370Y-105129622D03*
D13*
X184919370Y-99129622D03*
D12*
X184919370Y-105129622D03*
%TD*%
D11*
%TO.C,22*%
X205569570Y-143229622D03*
%TD*%
D12*
%TO.C,16*%
X223019370Y-136879622D03*
D13*
X223019370Y-130879622D03*
D12*
X223019370Y-136879622D03*
%TD*%
%TO.C,14*%
X184919370Y-136879622D03*
D13*
X184919370Y-130879622D03*
D12*
X184919370Y-136879622D03*
%TD*%
D10*
%TO.C,7*%
X147149570Y-136117622D03*
X147149570Y-136117622D03*
%TD*%
%TO.C,6*%
X114764570Y-136117622D03*
X114764570Y-136117622D03*
%TD*%
%TO.C,5*%
X82379570Y-136117622D03*
X82379570Y-136117622D03*
%TD*%
%TO.C,4*%
X147149570Y-91413622D03*
X147149570Y-91413622D03*
%TD*%
D11*
%TO.C,20*%
X124341608Y-89254622D03*
%TD*%
%TO.C,19*%
X81178400Y-89154000D03*
%TD*%
%TO.C,17*%
X97619570Y-41629622D03*
%TD*%
D10*
%TO.C,2*%
X114764570Y-50011622D03*
X114764570Y-50011622D03*
%TD*%
%TO.C,1*%
X82379570Y-50011622D03*
X82379570Y-50011622D03*
%TD*%
%TO.C,C48*%
G36*
G01*
X152211250Y-127172500D02*
X151648750Y-127172500D01*
G75*
G02*
X151405000Y-126928750I0J243750D01*
G01*
X151405000Y-126441250D01*
G75*
G02*
X151648750Y-126197500I243750J0D01*
G01*
X152211250Y-126197500D01*
G75*
G02*
X152455000Y-126441250I0J-243750D01*
G01*
X152455000Y-126928750D01*
G75*
G02*
X152211250Y-127172500I-243750J0D01*
G01*
G37*
G36*
G01*
X152211250Y-128747500D02*
X151648750Y-128747500D01*
G75*
G02*
X151405000Y-128503750I0J243750D01*
G01*
X151405000Y-128016250D01*
G75*
G02*
X151648750Y-127772500I243750J0D01*
G01*
X152211250Y-127772500D01*
G75*
G02*
X152455000Y-128016250I0J-243750D01*
G01*
X152455000Y-128503750D01*
G75*
G02*
X152211250Y-128747500I-243750J0D01*
G01*
G37*
%TD*%
%TO.C,C59*%
G36*
G01*
X166172500Y-26071250D02*
X166172500Y-25508750D01*
G75*
G02*
X166416250Y-25265000I243750J0D01*
G01*
X166903750Y-25265000D01*
G75*
G02*
X167147500Y-25508750I0J-243750D01*
G01*
X167147500Y-26071250D01*
G75*
G02*
X166903750Y-26315000I-243750J0D01*
G01*
X166416250Y-26315000D01*
G75*
G02*
X166172500Y-26071250I0J243750D01*
G01*
G37*
G36*
G01*
X164597500Y-26071250D02*
X164597500Y-25508750D01*
G75*
G02*
X164841250Y-25265000I243750J0D01*
G01*
X165328750Y-25265000D01*
G75*
G02*
X165572500Y-25508750I0J-243750D01*
G01*
X165572500Y-26071250D01*
G75*
G02*
X165328750Y-26315000I-243750J0D01*
G01*
X164841250Y-26315000D01*
G75*
G02*
X164597500Y-26071250I0J243750D01*
G01*
G37*
%TD*%
D14*
%TO.C,D109*%
X161850000Y-152150000D03*
X161850000Y-155350000D03*
X166750000Y-152150000D03*
X166750000Y-155350000D03*
%TD*%
%TO.C,C33*%
G36*
G01*
X86468750Y-118512500D02*
X87031250Y-118512500D01*
G75*
G02*
X87275000Y-118756250I0J-243750D01*
G01*
X87275000Y-119243750D01*
G75*
G02*
X87031250Y-119487500I-243750J0D01*
G01*
X86468750Y-119487500D01*
G75*
G02*
X86225000Y-119243750I0J243750D01*
G01*
X86225000Y-118756250D01*
G75*
G02*
X86468750Y-118512500I243750J0D01*
G01*
G37*
G36*
G01*
X86468750Y-116937500D02*
X87031250Y-116937500D01*
G75*
G02*
X87275000Y-117181250I0J-243750D01*
G01*
X87275000Y-117668750D01*
G75*
G02*
X87031250Y-117912500I-243750J0D01*
G01*
X86468750Y-117912500D01*
G75*
G02*
X86225000Y-117668750I0J243750D01*
G01*
X86225000Y-117181250D01*
G75*
G02*
X86468750Y-116937500I243750J0D01*
G01*
G37*
%TD*%
%TO.C,C25*%
G36*
G01*
X91262500Y-106206250D02*
X91262500Y-105643750D01*
G75*
G02*
X91506250Y-105400000I243750J0D01*
G01*
X91993750Y-105400000D01*
G75*
G02*
X92237500Y-105643750I0J-243750D01*
G01*
X92237500Y-106206250D01*
G75*
G02*
X91993750Y-106450000I-243750J0D01*
G01*
X91506250Y-106450000D01*
G75*
G02*
X91262500Y-106206250I0J243750D01*
G01*
G37*
G36*
G01*
X89687500Y-106206250D02*
X89687500Y-105643750D01*
G75*
G02*
X89931250Y-105400000I243750J0D01*
G01*
X90418750Y-105400000D01*
G75*
G02*
X90662500Y-105643750I0J-243750D01*
G01*
X90662500Y-106206250D01*
G75*
G02*
X90418750Y-106450000I-243750J0D01*
G01*
X89931250Y-106450000D01*
G75*
G02*
X89687500Y-106206250I0J243750D01*
G01*
G37*
%TD*%
D15*
%TO.C,J1*%
X136943000Y-34408000D03*
X136943000Y-38608000D03*
X142443000Y-34408000D03*
G36*
G01*
X143883740Y-40008000D02*
X141002260Y-40008000D01*
G75*
G02*
X140743000Y-39748740I0J259260D01*
G01*
X140743000Y-37467260D01*
G75*
G02*
X141002260Y-37208000I259260J0D01*
G01*
X143883740Y-37208000D01*
G75*
G02*
X144143000Y-37467260I0J-259260D01*
G01*
X144143000Y-39748740D01*
G75*
G02*
X143883740Y-40008000I-259260J0D01*
G01*
G37*
%TD*%
%TO.C,R1*%
G36*
G01*
X110862500Y-30606250D02*
X110862500Y-30043750D01*
G75*
G02*
X111106250Y-29800000I243750J0D01*
G01*
X111593750Y-29800000D01*
G75*
G02*
X111837500Y-30043750I0J-243750D01*
G01*
X111837500Y-30606250D01*
G75*
G02*
X111593750Y-30850000I-243750J0D01*
G01*
X111106250Y-30850000D01*
G75*
G02*
X110862500Y-30606250I0J243750D01*
G01*
G37*
G36*
G01*
X109287500Y-30606250D02*
X109287500Y-30043750D01*
G75*
G02*
X109531250Y-29800000I243750J0D01*
G01*
X110018750Y-29800000D01*
G75*
G02*
X110262500Y-30043750I0J-243750D01*
G01*
X110262500Y-30606250D01*
G75*
G02*
X110018750Y-30850000I-243750J0D01*
G01*
X109531250Y-30850000D01*
G75*
G02*
X109287500Y-30606250I0J243750D01*
G01*
G37*
%TD*%
%TO.C,J2*%
X136842000Y-47870000D03*
X136842000Y-52070000D03*
X142342000Y-47870000D03*
G36*
G01*
X143782740Y-53470000D02*
X140901260Y-53470000D01*
G75*
G02*
X140642000Y-53210740I0J259260D01*
G01*
X140642000Y-50929260D01*
G75*
G02*
X140901260Y-50670000I259260J0D01*
G01*
X143782740Y-50670000D01*
G75*
G02*
X144042000Y-50929260I0J-259260D01*
G01*
X144042000Y-53210740D01*
G75*
G02*
X143782740Y-53470000I-259260J0D01*
G01*
G37*
%TD*%
%TO.C,C110*%
G36*
G01*
X76181250Y-41637500D02*
X75618750Y-41637500D01*
G75*
G02*
X75375000Y-41393750I0J243750D01*
G01*
X75375000Y-40906250D01*
G75*
G02*
X75618750Y-40662500I243750J0D01*
G01*
X76181250Y-40662500D01*
G75*
G02*
X76425000Y-40906250I0J-243750D01*
G01*
X76425000Y-41393750D01*
G75*
G02*
X76181250Y-41637500I-243750J0D01*
G01*
G37*
G36*
G01*
X76181250Y-43212500D02*
X75618750Y-43212500D01*
G75*
G02*
X75375000Y-42968750I0J243750D01*
G01*
X75375000Y-42481250D01*
G75*
G02*
X75618750Y-42237500I243750J0D01*
G01*
X76181250Y-42237500D01*
G75*
G02*
X76425000Y-42481250I0J-243750D01*
G01*
X76425000Y-42968750D01*
G75*
G02*
X76181250Y-43212500I-243750J0D01*
G01*
G37*
%TD*%
%TO.C,C109*%
G36*
G01*
X168268750Y-155080000D02*
X168831250Y-155080000D01*
G75*
G02*
X169075000Y-155323750I0J-243750D01*
G01*
X169075000Y-155811250D01*
G75*
G02*
X168831250Y-156055000I-243750J0D01*
G01*
X168268750Y-156055000D01*
G75*
G02*
X168025000Y-155811250I0J243750D01*
G01*
X168025000Y-155323750D01*
G75*
G02*
X168268750Y-155080000I243750J0D01*
G01*
G37*
G36*
G01*
X168268750Y-153505000D02*
X168831250Y-153505000D01*
G75*
G02*
X169075000Y-153748750I0J-243750D01*
G01*
X169075000Y-154236250D01*
G75*
G02*
X168831250Y-154480000I-243750J0D01*
G01*
X168268750Y-154480000D01*
G75*
G02*
X168025000Y-154236250I0J243750D01*
G01*
X168025000Y-153748750D01*
G75*
G02*
X168268750Y-153505000I243750J0D01*
G01*
G37*
%TD*%
%TO.C,C108*%
G36*
G01*
X122520000Y-73101250D02*
X122520000Y-72538750D01*
G75*
G02*
X122763750Y-72295000I243750J0D01*
G01*
X123251250Y-72295000D01*
G75*
G02*
X123495000Y-72538750I0J-243750D01*
G01*
X123495000Y-73101250D01*
G75*
G02*
X123251250Y-73345000I-243750J0D01*
G01*
X122763750Y-73345000D01*
G75*
G02*
X122520000Y-73101250I0J243750D01*
G01*
G37*
G36*
G01*
X120945000Y-73101250D02*
X120945000Y-72538750D01*
G75*
G02*
X121188750Y-72295000I243750J0D01*
G01*
X121676250Y-72295000D01*
G75*
G02*
X121920000Y-72538750I0J-243750D01*
G01*
X121920000Y-73101250D01*
G75*
G02*
X121676250Y-73345000I-243750J0D01*
G01*
X121188750Y-73345000D01*
G75*
G02*
X120945000Y-73101250I0J243750D01*
G01*
G37*
%TD*%
%TO.C,C107*%
G36*
G01*
X207322500Y-24731250D02*
X207322500Y-24168750D01*
G75*
G02*
X207566250Y-23925000I243750J0D01*
G01*
X208053750Y-23925000D01*
G75*
G02*
X208297500Y-24168750I0J-243750D01*
G01*
X208297500Y-24731250D01*
G75*
G02*
X208053750Y-24975000I-243750J0D01*
G01*
X207566250Y-24975000D01*
G75*
G02*
X207322500Y-24731250I0J243750D01*
G01*
G37*
G36*
G01*
X205747500Y-24731250D02*
X205747500Y-24168750D01*
G75*
G02*
X205991250Y-23925000I243750J0D01*
G01*
X206478750Y-23925000D01*
G75*
G02*
X206722500Y-24168750I0J-243750D01*
G01*
X206722500Y-24731250D01*
G75*
G02*
X206478750Y-24975000I-243750J0D01*
G01*
X205991250Y-24975000D01*
G75*
G02*
X205747500Y-24731250I0J243750D01*
G01*
G37*
%TD*%
%TO.C,C106*%
G36*
G01*
X223858750Y-29637500D02*
X224421250Y-29637500D01*
G75*
G02*
X224665000Y-29881250I0J-243750D01*
G01*
X224665000Y-30368750D01*
G75*
G02*
X224421250Y-30612500I-243750J0D01*
G01*
X223858750Y-30612500D01*
G75*
G02*
X223615000Y-30368750I0J243750D01*
G01*
X223615000Y-29881250D01*
G75*
G02*
X223858750Y-29637500I243750J0D01*
G01*
G37*
G36*
G01*
X223858750Y-28062500D02*
X224421250Y-28062500D01*
G75*
G02*
X224665000Y-28306250I0J-243750D01*
G01*
X224665000Y-28793750D01*
G75*
G02*
X224421250Y-29037500I-243750J0D01*
G01*
X223858750Y-29037500D01*
G75*
G02*
X223615000Y-28793750I0J243750D01*
G01*
X223615000Y-28306250D01*
G75*
G02*
X223858750Y-28062500I243750J0D01*
G01*
G37*
%TD*%
%TO.C,C105*%
G36*
G01*
X193887500Y-30378750D02*
X193887500Y-30941250D01*
G75*
G02*
X193643750Y-31185000I-243750J0D01*
G01*
X193156250Y-31185000D01*
G75*
G02*
X192912500Y-30941250I0J243750D01*
G01*
X192912500Y-30378750D01*
G75*
G02*
X193156250Y-30135000I243750J0D01*
G01*
X193643750Y-30135000D01*
G75*
G02*
X193887500Y-30378750I0J-243750D01*
G01*
G37*
G36*
G01*
X195462500Y-30378750D02*
X195462500Y-30941250D01*
G75*
G02*
X195218750Y-31185000I-243750J0D01*
G01*
X194731250Y-31185000D01*
G75*
G02*
X194487500Y-30941250I0J243750D01*
G01*
X194487500Y-30378750D01*
G75*
G02*
X194731250Y-30135000I243750J0D01*
G01*
X195218750Y-30135000D01*
G75*
G02*
X195462500Y-30378750I0J-243750D01*
G01*
G37*
%TD*%
%TO.C,C104*%
G36*
G01*
X180392500Y-32761250D02*
X180392500Y-32198750D01*
G75*
G02*
X180636250Y-31955000I243750J0D01*
G01*
X181123750Y-31955000D01*
G75*
G02*
X181367500Y-32198750I0J-243750D01*
G01*
X181367500Y-32761250D01*
G75*
G02*
X181123750Y-33005000I-243750J0D01*
G01*
X180636250Y-33005000D01*
G75*
G02*
X180392500Y-32761250I0J243750D01*
G01*
G37*
G36*
G01*
X178817500Y-32761250D02*
X178817500Y-32198750D01*
G75*
G02*
X179061250Y-31955000I243750J0D01*
G01*
X179548750Y-31955000D01*
G75*
G02*
X179792500Y-32198750I0J-243750D01*
G01*
X179792500Y-32761250D01*
G75*
G02*
X179548750Y-33005000I-243750J0D01*
G01*
X179061250Y-33005000D01*
G75*
G02*
X178817500Y-32761250I0J243750D01*
G01*
G37*
%TD*%
%TO.C,C103*%
G36*
G01*
X172312500Y-36091250D02*
X172312500Y-35528750D01*
G75*
G02*
X172556250Y-35285000I243750J0D01*
G01*
X173043750Y-35285000D01*
G75*
G02*
X173287500Y-35528750I0J-243750D01*
G01*
X173287500Y-36091250D01*
G75*
G02*
X173043750Y-36335000I-243750J0D01*
G01*
X172556250Y-36335000D01*
G75*
G02*
X172312500Y-36091250I0J243750D01*
G01*
G37*
G36*
G01*
X170737500Y-36091250D02*
X170737500Y-35528750D01*
G75*
G02*
X170981250Y-35285000I243750J0D01*
G01*
X171468750Y-35285000D01*
G75*
G02*
X171712500Y-35528750I0J-243750D01*
G01*
X171712500Y-36091250D01*
G75*
G02*
X171468750Y-36335000I-243750J0D01*
G01*
X170981250Y-36335000D01*
G75*
G02*
X170737500Y-36091250I0J243750D01*
G01*
G37*
%TD*%
%TO.C,C102*%
G36*
G01*
X231067500Y-55081250D02*
X231067500Y-54518750D01*
G75*
G02*
X231311250Y-54275000I243750J0D01*
G01*
X231798750Y-54275000D01*
G75*
G02*
X232042500Y-54518750I0J-243750D01*
G01*
X232042500Y-55081250D01*
G75*
G02*
X231798750Y-55325000I-243750J0D01*
G01*
X231311250Y-55325000D01*
G75*
G02*
X231067500Y-55081250I0J243750D01*
G01*
G37*
G36*
G01*
X229492500Y-55081250D02*
X229492500Y-54518750D01*
G75*
G02*
X229736250Y-54275000I243750J0D01*
G01*
X230223750Y-54275000D01*
G75*
G02*
X230467500Y-54518750I0J-243750D01*
G01*
X230467500Y-55081250D01*
G75*
G02*
X230223750Y-55325000I-243750J0D01*
G01*
X229736250Y-55325000D01*
G75*
G02*
X229492500Y-55081250I0J243750D01*
G01*
G37*
%TD*%
%TO.C,C101*%
G36*
G01*
X219232500Y-54861250D02*
X219232500Y-54298750D01*
G75*
G02*
X219476250Y-54055000I243750J0D01*
G01*
X219963750Y-54055000D01*
G75*
G02*
X220207500Y-54298750I0J-243750D01*
G01*
X220207500Y-54861250D01*
G75*
G02*
X219963750Y-55105000I-243750J0D01*
G01*
X219476250Y-55105000D01*
G75*
G02*
X219232500Y-54861250I0J243750D01*
G01*
G37*
G36*
G01*
X217657500Y-54861250D02*
X217657500Y-54298750D01*
G75*
G02*
X217901250Y-54055000I243750J0D01*
G01*
X218388750Y-54055000D01*
G75*
G02*
X218632500Y-54298750I0J-243750D01*
G01*
X218632500Y-54861250D01*
G75*
G02*
X218388750Y-55105000I-243750J0D01*
G01*
X217901250Y-55105000D01*
G75*
G02*
X217657500Y-54861250I0J243750D01*
G01*
G37*
%TD*%
%TO.C,C100*%
G36*
G01*
X200042500Y-53771250D02*
X200042500Y-53208750D01*
G75*
G02*
X200286250Y-52965000I243750J0D01*
G01*
X200773750Y-52965000D01*
G75*
G02*
X201017500Y-53208750I0J-243750D01*
G01*
X201017500Y-53771250D01*
G75*
G02*
X200773750Y-54015000I-243750J0D01*
G01*
X200286250Y-54015000D01*
G75*
G02*
X200042500Y-53771250I0J243750D01*
G01*
G37*
G36*
G01*
X198467500Y-53771250D02*
X198467500Y-53208750D01*
G75*
G02*
X198711250Y-52965000I243750J0D01*
G01*
X199198750Y-52965000D01*
G75*
G02*
X199442500Y-53208750I0J-243750D01*
G01*
X199442500Y-53771250D01*
G75*
G02*
X199198750Y-54015000I-243750J0D01*
G01*
X198711250Y-54015000D01*
G75*
G02*
X198467500Y-53771250I0J243750D01*
G01*
G37*
%TD*%
%TO.C,C99*%
G36*
G01*
X193300000Y-52081250D02*
X193300000Y-51518750D01*
G75*
G02*
X193543750Y-51275000I243750J0D01*
G01*
X194031250Y-51275000D01*
G75*
G02*
X194275000Y-51518750I0J-243750D01*
G01*
X194275000Y-52081250D01*
G75*
G02*
X194031250Y-52325000I-243750J0D01*
G01*
X193543750Y-52325000D01*
G75*
G02*
X193300000Y-52081250I0J243750D01*
G01*
G37*
G36*
G01*
X191725000Y-52081250D02*
X191725000Y-51518750D01*
G75*
G02*
X191968750Y-51275000I243750J0D01*
G01*
X192456250Y-51275000D01*
G75*
G02*
X192700000Y-51518750I0J-243750D01*
G01*
X192700000Y-52081250D01*
G75*
G02*
X192456250Y-52325000I-243750J0D01*
G01*
X191968750Y-52325000D01*
G75*
G02*
X191725000Y-52081250I0J243750D01*
G01*
G37*
%TD*%
%TO.C,C98*%
G36*
G01*
X180477500Y-51951250D02*
X180477500Y-51388750D01*
G75*
G02*
X180721250Y-51145000I243750J0D01*
G01*
X181208750Y-51145000D01*
G75*
G02*
X181452500Y-51388750I0J-243750D01*
G01*
X181452500Y-51951250D01*
G75*
G02*
X181208750Y-52195000I-243750J0D01*
G01*
X180721250Y-52195000D01*
G75*
G02*
X180477500Y-51951250I0J243750D01*
G01*
G37*
G36*
G01*
X178902500Y-51951250D02*
X178902500Y-51388750D01*
G75*
G02*
X179146250Y-51145000I243750J0D01*
G01*
X179633750Y-51145000D01*
G75*
G02*
X179877500Y-51388750I0J-243750D01*
G01*
X179877500Y-51951250D01*
G75*
G02*
X179633750Y-52195000I-243750J0D01*
G01*
X179146250Y-52195000D01*
G75*
G02*
X178902500Y-51951250I0J243750D01*
G01*
G37*
%TD*%
%TO.C,C97*%
G36*
G01*
X172227500Y-52621250D02*
X172227500Y-52058750D01*
G75*
G02*
X172471250Y-51815000I243750J0D01*
G01*
X172958750Y-51815000D01*
G75*
G02*
X173202500Y-52058750I0J-243750D01*
G01*
X173202500Y-52621250D01*
G75*
G02*
X172958750Y-52865000I-243750J0D01*
G01*
X172471250Y-52865000D01*
G75*
G02*
X172227500Y-52621250I0J243750D01*
G01*
G37*
G36*
G01*
X170652500Y-52621250D02*
X170652500Y-52058750D01*
G75*
G02*
X170896250Y-51815000I243750J0D01*
G01*
X171383750Y-51815000D01*
G75*
G02*
X171627500Y-52058750I0J-243750D01*
G01*
X171627500Y-52621250D01*
G75*
G02*
X171383750Y-52865000I-243750J0D01*
G01*
X170896250Y-52865000D01*
G75*
G02*
X170652500Y-52621250I0J243750D01*
G01*
G37*
%TD*%
%TO.C,C96*%
G36*
G01*
X228662500Y-63581250D02*
X228662500Y-63018750D01*
G75*
G02*
X228906250Y-62775000I243750J0D01*
G01*
X229393750Y-62775000D01*
G75*
G02*
X229637500Y-63018750I0J-243750D01*
G01*
X229637500Y-63581250D01*
G75*
G02*
X229393750Y-63825000I-243750J0D01*
G01*
X228906250Y-63825000D01*
G75*
G02*
X228662500Y-63581250I0J243750D01*
G01*
G37*
G36*
G01*
X227087500Y-63581250D02*
X227087500Y-63018750D01*
G75*
G02*
X227331250Y-62775000I243750J0D01*
G01*
X227818750Y-62775000D01*
G75*
G02*
X228062500Y-63018750I0J-243750D01*
G01*
X228062500Y-63581250D01*
G75*
G02*
X227818750Y-63825000I-243750J0D01*
G01*
X227331250Y-63825000D01*
G75*
G02*
X227087500Y-63581250I0J243750D01*
G01*
G37*
%TD*%
%TO.C,C95*%
G36*
G01*
X217800000Y-64081250D02*
X217800000Y-63518750D01*
G75*
G02*
X218043750Y-63275000I243750J0D01*
G01*
X218531250Y-63275000D01*
G75*
G02*
X218775000Y-63518750I0J-243750D01*
G01*
X218775000Y-64081250D01*
G75*
G02*
X218531250Y-64325000I-243750J0D01*
G01*
X218043750Y-64325000D01*
G75*
G02*
X217800000Y-64081250I0J243750D01*
G01*
G37*
G36*
G01*
X216225000Y-64081250D02*
X216225000Y-63518750D01*
G75*
G02*
X216468750Y-63275000I243750J0D01*
G01*
X216956250Y-63275000D01*
G75*
G02*
X217200000Y-63518750I0J-243750D01*
G01*
X217200000Y-64081250D01*
G75*
G02*
X216956250Y-64325000I-243750J0D01*
G01*
X216468750Y-64325000D01*
G75*
G02*
X216225000Y-64081250I0J243750D01*
G01*
G37*
%TD*%
%TO.C,C94*%
G36*
G01*
X192978750Y-61317500D02*
X193541250Y-61317500D01*
G75*
G02*
X193785000Y-61561250I0J-243750D01*
G01*
X193785000Y-62048750D01*
G75*
G02*
X193541250Y-62292500I-243750J0D01*
G01*
X192978750Y-62292500D01*
G75*
G02*
X192735000Y-62048750I0J243750D01*
G01*
X192735000Y-61561250D01*
G75*
G02*
X192978750Y-61317500I243750J0D01*
G01*
G37*
G36*
G01*
X192978750Y-59742500D02*
X193541250Y-59742500D01*
G75*
G02*
X193785000Y-59986250I0J-243750D01*
G01*
X193785000Y-60473750D01*
G75*
G02*
X193541250Y-60717500I-243750J0D01*
G01*
X192978750Y-60717500D01*
G75*
G02*
X192735000Y-60473750I0J243750D01*
G01*
X192735000Y-59986250D01*
G75*
G02*
X192978750Y-59742500I243750J0D01*
G01*
G37*
%TD*%
%TO.C,C93*%
G36*
G01*
X193527500Y-63628750D02*
X193527500Y-64191250D01*
G75*
G02*
X193283750Y-64435000I-243750J0D01*
G01*
X192796250Y-64435000D01*
G75*
G02*
X192552500Y-64191250I0J243750D01*
G01*
X192552500Y-63628750D01*
G75*
G02*
X192796250Y-63385000I243750J0D01*
G01*
X193283750Y-63385000D01*
G75*
G02*
X193527500Y-63628750I0J-243750D01*
G01*
G37*
G36*
G01*
X195102500Y-63628750D02*
X195102500Y-64191250D01*
G75*
G02*
X194858750Y-64435000I-243750J0D01*
G01*
X194371250Y-64435000D01*
G75*
G02*
X194127500Y-64191250I0J243750D01*
G01*
X194127500Y-63628750D01*
G75*
G02*
X194371250Y-63385000I243750J0D01*
G01*
X194858750Y-63385000D01*
G75*
G02*
X195102500Y-63628750I0J-243750D01*
G01*
G37*
%TD*%
%TO.C,C92*%
G36*
G01*
X231442500Y-87791250D02*
X231442500Y-87228750D01*
G75*
G02*
X231686250Y-86985000I243750J0D01*
G01*
X232173750Y-86985000D01*
G75*
G02*
X232417500Y-87228750I0J-243750D01*
G01*
X232417500Y-87791250D01*
G75*
G02*
X232173750Y-88035000I-243750J0D01*
G01*
X231686250Y-88035000D01*
G75*
G02*
X231442500Y-87791250I0J243750D01*
G01*
G37*
G36*
G01*
X229867500Y-87791250D02*
X229867500Y-87228750D01*
G75*
G02*
X230111250Y-86985000I243750J0D01*
G01*
X230598750Y-86985000D01*
G75*
G02*
X230842500Y-87228750I0J-243750D01*
G01*
X230842500Y-87791250D01*
G75*
G02*
X230598750Y-88035000I-243750J0D01*
G01*
X230111250Y-88035000D01*
G75*
G02*
X229867500Y-87791250I0J243750D01*
G01*
G37*
%TD*%
%TO.C,C91*%
G36*
G01*
X219107500Y-87101250D02*
X219107500Y-86538750D01*
G75*
G02*
X219351250Y-86295000I243750J0D01*
G01*
X219838750Y-86295000D01*
G75*
G02*
X220082500Y-86538750I0J-243750D01*
G01*
X220082500Y-87101250D01*
G75*
G02*
X219838750Y-87345000I-243750J0D01*
G01*
X219351250Y-87345000D01*
G75*
G02*
X219107500Y-87101250I0J243750D01*
G01*
G37*
G36*
G01*
X217532500Y-87101250D02*
X217532500Y-86538750D01*
G75*
G02*
X217776250Y-86295000I243750J0D01*
G01*
X218263750Y-86295000D01*
G75*
G02*
X218507500Y-86538750I0J-243750D01*
G01*
X218507500Y-87101250D01*
G75*
G02*
X218263750Y-87345000I-243750J0D01*
G01*
X217776250Y-87345000D01*
G75*
G02*
X217532500Y-87101250I0J243750D01*
G01*
G37*
%TD*%
%TO.C,C90*%
G36*
G01*
X192542500Y-86961250D02*
X192542500Y-86398750D01*
G75*
G02*
X192786250Y-86155000I243750J0D01*
G01*
X193273750Y-86155000D01*
G75*
G02*
X193517500Y-86398750I0J-243750D01*
G01*
X193517500Y-86961250D01*
G75*
G02*
X193273750Y-87205000I-243750J0D01*
G01*
X192786250Y-87205000D01*
G75*
G02*
X192542500Y-86961250I0J243750D01*
G01*
G37*
G36*
G01*
X190967500Y-86961250D02*
X190967500Y-86398750D01*
G75*
G02*
X191211250Y-86155000I243750J0D01*
G01*
X191698750Y-86155000D01*
G75*
G02*
X191942500Y-86398750I0J-243750D01*
G01*
X191942500Y-86961250D01*
G75*
G02*
X191698750Y-87205000I-243750J0D01*
G01*
X191211250Y-87205000D01*
G75*
G02*
X190967500Y-86961250I0J243750D01*
G01*
G37*
%TD*%
%TO.C,C89*%
G36*
G01*
X181132500Y-86571250D02*
X181132500Y-86008750D01*
G75*
G02*
X181376250Y-85765000I243750J0D01*
G01*
X181863750Y-85765000D01*
G75*
G02*
X182107500Y-86008750I0J-243750D01*
G01*
X182107500Y-86571250D01*
G75*
G02*
X181863750Y-86815000I-243750J0D01*
G01*
X181376250Y-86815000D01*
G75*
G02*
X181132500Y-86571250I0J243750D01*
G01*
G37*
G36*
G01*
X179557500Y-86571250D02*
X179557500Y-86008750D01*
G75*
G02*
X179801250Y-85765000I243750J0D01*
G01*
X180288750Y-85765000D01*
G75*
G02*
X180532500Y-86008750I0J-243750D01*
G01*
X180532500Y-86571250D01*
G75*
G02*
X180288750Y-86815000I-243750J0D01*
G01*
X179801250Y-86815000D01*
G75*
G02*
X179557500Y-86571250I0J243750D01*
G01*
G37*
%TD*%
%TO.C,C88*%
G36*
G01*
X232612500Y-95941250D02*
X232612500Y-95378750D01*
G75*
G02*
X232856250Y-95135000I243750J0D01*
G01*
X233343750Y-95135000D01*
G75*
G02*
X233587500Y-95378750I0J-243750D01*
G01*
X233587500Y-95941250D01*
G75*
G02*
X233343750Y-96185000I-243750J0D01*
G01*
X232856250Y-96185000D01*
G75*
G02*
X232612500Y-95941250I0J243750D01*
G01*
G37*
G36*
G01*
X231037500Y-95941250D02*
X231037500Y-95378750D01*
G75*
G02*
X231281250Y-95135000I243750J0D01*
G01*
X231768750Y-95135000D01*
G75*
G02*
X232012500Y-95378750I0J-243750D01*
G01*
X232012500Y-95941250D01*
G75*
G02*
X231768750Y-96185000I-243750J0D01*
G01*
X231281250Y-96185000D01*
G75*
G02*
X231037500Y-95941250I0J243750D01*
G01*
G37*
%TD*%
%TO.C,C87*%
G36*
G01*
X229280000Y-97181250D02*
X229280000Y-96618750D01*
G75*
G02*
X229523750Y-96375000I243750J0D01*
G01*
X230011250Y-96375000D01*
G75*
G02*
X230255000Y-96618750I0J-243750D01*
G01*
X230255000Y-97181250D01*
G75*
G02*
X230011250Y-97425000I-243750J0D01*
G01*
X229523750Y-97425000D01*
G75*
G02*
X229280000Y-97181250I0J243750D01*
G01*
G37*
G36*
G01*
X227705000Y-97181250D02*
X227705000Y-96618750D01*
G75*
G02*
X227948750Y-96375000I243750J0D01*
G01*
X228436250Y-96375000D01*
G75*
G02*
X228680000Y-96618750I0J-243750D01*
G01*
X228680000Y-97181250D01*
G75*
G02*
X228436250Y-97425000I-243750J0D01*
G01*
X227948750Y-97425000D01*
G75*
G02*
X227705000Y-97181250I0J243750D01*
G01*
G37*
%TD*%
%TO.C,C86*%
G36*
G01*
X217392500Y-95671250D02*
X217392500Y-95108750D01*
G75*
G02*
X217636250Y-94865000I243750J0D01*
G01*
X218123750Y-94865000D01*
G75*
G02*
X218367500Y-95108750I0J-243750D01*
G01*
X218367500Y-95671250D01*
G75*
G02*
X218123750Y-95915000I-243750J0D01*
G01*
X217636250Y-95915000D01*
G75*
G02*
X217392500Y-95671250I0J243750D01*
G01*
G37*
G36*
G01*
X215817500Y-95671250D02*
X215817500Y-95108750D01*
G75*
G02*
X216061250Y-94865000I243750J0D01*
G01*
X216548750Y-94865000D01*
G75*
G02*
X216792500Y-95108750I0J-243750D01*
G01*
X216792500Y-95671250D01*
G75*
G02*
X216548750Y-95915000I-243750J0D01*
G01*
X216061250Y-95915000D01*
G75*
G02*
X215817500Y-95671250I0J243750D01*
G01*
G37*
%TD*%
%TO.C,C85*%
G36*
G01*
X195150000Y-95381250D02*
X195150000Y-94818750D01*
G75*
G02*
X195393750Y-94575000I243750J0D01*
G01*
X195881250Y-94575000D01*
G75*
G02*
X196125000Y-94818750I0J-243750D01*
G01*
X196125000Y-95381250D01*
G75*
G02*
X195881250Y-95625000I-243750J0D01*
G01*
X195393750Y-95625000D01*
G75*
G02*
X195150000Y-95381250I0J243750D01*
G01*
G37*
G36*
G01*
X193575000Y-95381250D02*
X193575000Y-94818750D01*
G75*
G02*
X193818750Y-94575000I243750J0D01*
G01*
X194306250Y-94575000D01*
G75*
G02*
X194550000Y-94818750I0J-243750D01*
G01*
X194550000Y-95381250D01*
G75*
G02*
X194306250Y-95625000I-243750J0D01*
G01*
X193818750Y-95625000D01*
G75*
G02*
X193575000Y-95381250I0J243750D01*
G01*
G37*
%TD*%
%TO.C,C84*%
G36*
G01*
X189980000Y-96381250D02*
X189980000Y-95818750D01*
G75*
G02*
X190223750Y-95575000I243750J0D01*
G01*
X190711250Y-95575000D01*
G75*
G02*
X190955000Y-95818750I0J-243750D01*
G01*
X190955000Y-96381250D01*
G75*
G02*
X190711250Y-96625000I-243750J0D01*
G01*
X190223750Y-96625000D01*
G75*
G02*
X189980000Y-96381250I0J243750D01*
G01*
G37*
G36*
G01*
X188405000Y-96381250D02*
X188405000Y-95818750D01*
G75*
G02*
X188648750Y-95575000I243750J0D01*
G01*
X189136250Y-95575000D01*
G75*
G02*
X189380000Y-95818750I0J-243750D01*
G01*
X189380000Y-96381250D01*
G75*
G02*
X189136250Y-96625000I-243750J0D01*
G01*
X188648750Y-96625000D01*
G75*
G02*
X188405000Y-96381250I0J243750D01*
G01*
G37*
%TD*%
%TO.C,C83*%
G36*
G01*
X179800000Y-95231250D02*
X179800000Y-94668750D01*
G75*
G02*
X180043750Y-94425000I243750J0D01*
G01*
X180531250Y-94425000D01*
G75*
G02*
X180775000Y-94668750I0J-243750D01*
G01*
X180775000Y-95231250D01*
G75*
G02*
X180531250Y-95475000I-243750J0D01*
G01*
X180043750Y-95475000D01*
G75*
G02*
X179800000Y-95231250I0J243750D01*
G01*
G37*
G36*
G01*
X178225000Y-95231250D02*
X178225000Y-94668750D01*
G75*
G02*
X178468750Y-94425000I243750J0D01*
G01*
X178956250Y-94425000D01*
G75*
G02*
X179200000Y-94668750I0J-243750D01*
G01*
X179200000Y-95231250D01*
G75*
G02*
X178956250Y-95475000I-243750J0D01*
G01*
X178468750Y-95475000D01*
G75*
G02*
X178225000Y-95231250I0J243750D01*
G01*
G37*
%TD*%
%TO.C,C82*%
G36*
G01*
X230682500Y-118901250D02*
X230682500Y-118338750D01*
G75*
G02*
X230926250Y-118095000I243750J0D01*
G01*
X231413750Y-118095000D01*
G75*
G02*
X231657500Y-118338750I0J-243750D01*
G01*
X231657500Y-118901250D01*
G75*
G02*
X231413750Y-119145000I-243750J0D01*
G01*
X230926250Y-119145000D01*
G75*
G02*
X230682500Y-118901250I0J243750D01*
G01*
G37*
G36*
G01*
X229107500Y-118901250D02*
X229107500Y-118338750D01*
G75*
G02*
X229351250Y-118095000I243750J0D01*
G01*
X229838750Y-118095000D01*
G75*
G02*
X230082500Y-118338750I0J-243750D01*
G01*
X230082500Y-118901250D01*
G75*
G02*
X229838750Y-119145000I-243750J0D01*
G01*
X229351250Y-119145000D01*
G75*
G02*
X229107500Y-118901250I0J243750D01*
G01*
G37*
%TD*%
%TO.C,C81*%
G36*
G01*
X219922500Y-118318750D02*
X219922500Y-118881250D01*
G75*
G02*
X219678750Y-119125000I-243750J0D01*
G01*
X219191250Y-119125000D01*
G75*
G02*
X218947500Y-118881250I0J243750D01*
G01*
X218947500Y-118318750D01*
G75*
G02*
X219191250Y-118075000I243750J0D01*
G01*
X219678750Y-118075000D01*
G75*
G02*
X219922500Y-118318750I0J-243750D01*
G01*
G37*
G36*
G01*
X221497500Y-118318750D02*
X221497500Y-118881250D01*
G75*
G02*
X221253750Y-119125000I-243750J0D01*
G01*
X220766250Y-119125000D01*
G75*
G02*
X220522500Y-118881250I0J243750D01*
G01*
X220522500Y-118318750D01*
G75*
G02*
X220766250Y-118075000I243750J0D01*
G01*
X221253750Y-118075000D01*
G75*
G02*
X221497500Y-118318750I0J-243750D01*
G01*
G37*
%TD*%
%TO.C,C80*%
G36*
G01*
X196987500Y-116593750D02*
X196987500Y-117156250D01*
G75*
G02*
X196743750Y-117400000I-243750J0D01*
G01*
X196256250Y-117400000D01*
G75*
G02*
X196012500Y-117156250I0J243750D01*
G01*
X196012500Y-116593750D01*
G75*
G02*
X196256250Y-116350000I243750J0D01*
G01*
X196743750Y-116350000D01*
G75*
G02*
X196987500Y-116593750I0J-243750D01*
G01*
G37*
G36*
G01*
X198562500Y-116593750D02*
X198562500Y-117156250D01*
G75*
G02*
X198318750Y-117400000I-243750J0D01*
G01*
X197831250Y-117400000D01*
G75*
G02*
X197587500Y-117156250I0J243750D01*
G01*
X197587500Y-116593750D01*
G75*
G02*
X197831250Y-116350000I243750J0D01*
G01*
X198318750Y-116350000D01*
G75*
G02*
X198562500Y-116593750I0J-243750D01*
G01*
G37*
%TD*%
%TO.C,C79*%
G36*
G01*
X180362500Y-119041250D02*
X180362500Y-118478750D01*
G75*
G02*
X180606250Y-118235000I243750J0D01*
G01*
X181093750Y-118235000D01*
G75*
G02*
X181337500Y-118478750I0J-243750D01*
G01*
X181337500Y-119041250D01*
G75*
G02*
X181093750Y-119285000I-243750J0D01*
G01*
X180606250Y-119285000D01*
G75*
G02*
X180362500Y-119041250I0J243750D01*
G01*
G37*
G36*
G01*
X178787500Y-119041250D02*
X178787500Y-118478750D01*
G75*
G02*
X179031250Y-118235000I243750J0D01*
G01*
X179518750Y-118235000D01*
G75*
G02*
X179762500Y-118478750I0J-243750D01*
G01*
X179762500Y-119041250D01*
G75*
G02*
X179518750Y-119285000I-243750J0D01*
G01*
X179031250Y-119285000D01*
G75*
G02*
X178787500Y-119041250I0J243750D01*
G01*
G37*
%TD*%
%TO.C,C78*%
G36*
G01*
X229307500Y-127441250D02*
X229307500Y-126878750D01*
G75*
G02*
X229551250Y-126635000I243750J0D01*
G01*
X230038750Y-126635000D01*
G75*
G02*
X230282500Y-126878750I0J-243750D01*
G01*
X230282500Y-127441250D01*
G75*
G02*
X230038750Y-127685000I-243750J0D01*
G01*
X229551250Y-127685000D01*
G75*
G02*
X229307500Y-127441250I0J243750D01*
G01*
G37*
G36*
G01*
X227732500Y-127441250D02*
X227732500Y-126878750D01*
G75*
G02*
X227976250Y-126635000I243750J0D01*
G01*
X228463750Y-126635000D01*
G75*
G02*
X228707500Y-126878750I0J-243750D01*
G01*
X228707500Y-127441250D01*
G75*
G02*
X228463750Y-127685000I-243750J0D01*
G01*
X227976250Y-127685000D01*
G75*
G02*
X227732500Y-127441250I0J243750D01*
G01*
G37*
%TD*%
%TO.C,C77*%
G36*
G01*
X218607960Y-127375230D02*
X218607960Y-126812730D01*
G75*
G02*
X218851710Y-126568980I243750J0D01*
G01*
X219339210Y-126568980D01*
G75*
G02*
X219582960Y-126812730I0J-243750D01*
G01*
X219582960Y-127375230D01*
G75*
G02*
X219339210Y-127618980I-243750J0D01*
G01*
X218851710Y-127618980D01*
G75*
G02*
X218607960Y-127375230I0J243750D01*
G01*
G37*
G36*
G01*
X217032960Y-127375230D02*
X217032960Y-126812730D01*
G75*
G02*
X217276710Y-126568980I243750J0D01*
G01*
X217764210Y-126568980D01*
G75*
G02*
X218007960Y-126812730I0J-243750D01*
G01*
X218007960Y-127375230D01*
G75*
G02*
X217764210Y-127618980I-243750J0D01*
G01*
X217276710Y-127618980D01*
G75*
G02*
X217032960Y-127375230I0J243750D01*
G01*
G37*
%TD*%
%TO.C,C76*%
G36*
G01*
X193262500Y-124693750D02*
X193262500Y-125256250D01*
G75*
G02*
X193018750Y-125500000I-243750J0D01*
G01*
X192531250Y-125500000D01*
G75*
G02*
X192287500Y-125256250I0J243750D01*
G01*
X192287500Y-124693750D01*
G75*
G02*
X192531250Y-124450000I243750J0D01*
G01*
X193018750Y-124450000D01*
G75*
G02*
X193262500Y-124693750I0J-243750D01*
G01*
G37*
G36*
G01*
X194837500Y-124693750D02*
X194837500Y-125256250D01*
G75*
G02*
X194593750Y-125500000I-243750J0D01*
G01*
X194106250Y-125500000D01*
G75*
G02*
X193862500Y-125256250I0J243750D01*
G01*
X193862500Y-124693750D01*
G75*
G02*
X194106250Y-124450000I243750J0D01*
G01*
X194593750Y-124450000D01*
G75*
G02*
X194837500Y-124693750I0J-243750D01*
G01*
G37*
%TD*%
%TO.C,C75*%
G36*
G01*
X179937500Y-127081250D02*
X179937500Y-126518750D01*
G75*
G02*
X180181250Y-126275000I243750J0D01*
G01*
X180668750Y-126275000D01*
G75*
G02*
X180912500Y-126518750I0J-243750D01*
G01*
X180912500Y-127081250D01*
G75*
G02*
X180668750Y-127325000I-243750J0D01*
G01*
X180181250Y-127325000D01*
G75*
G02*
X179937500Y-127081250I0J243750D01*
G01*
G37*
G36*
G01*
X178362500Y-127081250D02*
X178362500Y-126518750D01*
G75*
G02*
X178606250Y-126275000I243750J0D01*
G01*
X179093750Y-126275000D01*
G75*
G02*
X179337500Y-126518750I0J-243750D01*
G01*
X179337500Y-127081250D01*
G75*
G02*
X179093750Y-127325000I-243750J0D01*
G01*
X178606250Y-127325000D01*
G75*
G02*
X178362500Y-127081250I0J243750D01*
G01*
G37*
%TD*%
%TO.C,C74*%
G36*
G01*
X230187500Y-150741250D02*
X230187500Y-150178750D01*
G75*
G02*
X230431250Y-149935000I243750J0D01*
G01*
X230918750Y-149935000D01*
G75*
G02*
X231162500Y-150178750I0J-243750D01*
G01*
X231162500Y-150741250D01*
G75*
G02*
X230918750Y-150985000I-243750J0D01*
G01*
X230431250Y-150985000D01*
G75*
G02*
X230187500Y-150741250I0J243750D01*
G01*
G37*
G36*
G01*
X228612500Y-150741250D02*
X228612500Y-150178750D01*
G75*
G02*
X228856250Y-149935000I243750J0D01*
G01*
X229343750Y-149935000D01*
G75*
G02*
X229587500Y-150178750I0J-243750D01*
G01*
X229587500Y-150741250D01*
G75*
G02*
X229343750Y-150985000I-243750J0D01*
G01*
X228856250Y-150985000D01*
G75*
G02*
X228612500Y-150741250I0J243750D01*
G01*
G37*
%TD*%
%TO.C,C73*%
G36*
G01*
X219300000Y-150446050D02*
X219300000Y-149883550D01*
G75*
G02*
X219543750Y-149639800I243750J0D01*
G01*
X220031250Y-149639800D01*
G75*
G02*
X220275000Y-149883550I0J-243750D01*
G01*
X220275000Y-150446050D01*
G75*
G02*
X220031250Y-150689800I-243750J0D01*
G01*
X219543750Y-150689800D01*
G75*
G02*
X219300000Y-150446050I0J243750D01*
G01*
G37*
G36*
G01*
X217725000Y-150446050D02*
X217725000Y-149883550D01*
G75*
G02*
X217968750Y-149639800I243750J0D01*
G01*
X218456250Y-149639800D01*
G75*
G02*
X218700000Y-149883550I0J-243750D01*
G01*
X218700000Y-150446050D01*
G75*
G02*
X218456250Y-150689800I-243750J0D01*
G01*
X217968750Y-150689800D01*
G75*
G02*
X217725000Y-150446050I0J243750D01*
G01*
G37*
%TD*%
%TO.C,C72*%
G36*
G01*
X193162500Y-150006250D02*
X193162500Y-149443750D01*
G75*
G02*
X193406250Y-149200000I243750J0D01*
G01*
X193893750Y-149200000D01*
G75*
G02*
X194137500Y-149443750I0J-243750D01*
G01*
X194137500Y-150006250D01*
G75*
G02*
X193893750Y-150250000I-243750J0D01*
G01*
X193406250Y-150250000D01*
G75*
G02*
X193162500Y-150006250I0J243750D01*
G01*
G37*
G36*
G01*
X191587500Y-150006250D02*
X191587500Y-149443750D01*
G75*
G02*
X191831250Y-149200000I243750J0D01*
G01*
X192318750Y-149200000D01*
G75*
G02*
X192562500Y-149443750I0J-243750D01*
G01*
X192562500Y-150006250D01*
G75*
G02*
X192318750Y-150250000I-243750J0D01*
G01*
X191831250Y-150250000D01*
G75*
G02*
X191587500Y-150006250I0J243750D01*
G01*
G37*
%TD*%
%TO.C,C71*%
G36*
G01*
X180812500Y-150306250D02*
X180812500Y-149743750D01*
G75*
G02*
X181056250Y-149500000I243750J0D01*
G01*
X181543750Y-149500000D01*
G75*
G02*
X181787500Y-149743750I0J-243750D01*
G01*
X181787500Y-150306250D01*
G75*
G02*
X181543750Y-150550000I-243750J0D01*
G01*
X181056250Y-150550000D01*
G75*
G02*
X180812500Y-150306250I0J243750D01*
G01*
G37*
G36*
G01*
X179237500Y-150306250D02*
X179237500Y-149743750D01*
G75*
G02*
X179481250Y-149500000I243750J0D01*
G01*
X179968750Y-149500000D01*
G75*
G02*
X180212500Y-149743750I0J-243750D01*
G01*
X180212500Y-150306250D01*
G75*
G02*
X179968750Y-150550000I-243750J0D01*
G01*
X179481250Y-150550000D01*
G75*
G02*
X179237500Y-150306250I0J243750D01*
G01*
G37*
%TD*%
%TO.C,C70*%
G36*
G01*
X163537500Y-146456250D02*
X163537500Y-145893750D01*
G75*
G02*
X163781250Y-145650000I243750J0D01*
G01*
X164268750Y-145650000D01*
G75*
G02*
X164512500Y-145893750I0J-243750D01*
G01*
X164512500Y-146456250D01*
G75*
G02*
X164268750Y-146700000I-243750J0D01*
G01*
X163781250Y-146700000D01*
G75*
G02*
X163537500Y-146456250I0J243750D01*
G01*
G37*
G36*
G01*
X161962500Y-146456250D02*
X161962500Y-145893750D01*
G75*
G02*
X162206250Y-145650000I243750J0D01*
G01*
X162693750Y-145650000D01*
G75*
G02*
X162937500Y-145893750I0J-243750D01*
G01*
X162937500Y-146456250D01*
G75*
G02*
X162693750Y-146700000I-243750J0D01*
G01*
X162206250Y-146700000D01*
G75*
G02*
X161962500Y-146456250I0J243750D01*
G01*
G37*
%TD*%
%TO.C,C69*%
G36*
G01*
X164737500Y-134618750D02*
X164737500Y-135181250D01*
G75*
G02*
X164493750Y-135425000I-243750J0D01*
G01*
X164006250Y-135425000D01*
G75*
G02*
X163762500Y-135181250I0J243750D01*
G01*
X163762500Y-134618750D01*
G75*
G02*
X164006250Y-134375000I243750J0D01*
G01*
X164493750Y-134375000D01*
G75*
G02*
X164737500Y-134618750I0J-243750D01*
G01*
G37*
G36*
G01*
X166312500Y-134618750D02*
X166312500Y-135181250D01*
G75*
G02*
X166068750Y-135425000I-243750J0D01*
G01*
X165581250Y-135425000D01*
G75*
G02*
X165337500Y-135181250I0J243750D01*
G01*
X165337500Y-134618750D01*
G75*
G02*
X165581250Y-134375000I243750J0D01*
G01*
X166068750Y-134375000D01*
G75*
G02*
X166312500Y-134618750I0J-243750D01*
G01*
G37*
%TD*%
%TO.C,C68*%
G36*
G01*
X164200000Y-123656250D02*
X164200000Y-123093750D01*
G75*
G02*
X164443750Y-122850000I243750J0D01*
G01*
X164931250Y-122850000D01*
G75*
G02*
X165175000Y-123093750I0J-243750D01*
G01*
X165175000Y-123656250D01*
G75*
G02*
X164931250Y-123900000I-243750J0D01*
G01*
X164443750Y-123900000D01*
G75*
G02*
X164200000Y-123656250I0J243750D01*
G01*
G37*
G36*
G01*
X162625000Y-123656250D02*
X162625000Y-123093750D01*
G75*
G02*
X162868750Y-122850000I243750J0D01*
G01*
X163356250Y-122850000D01*
G75*
G02*
X163600000Y-123093750I0J-243750D01*
G01*
X163600000Y-123656250D01*
G75*
G02*
X163356250Y-123900000I-243750J0D01*
G01*
X162868750Y-123900000D01*
G75*
G02*
X162625000Y-123656250I0J243750D01*
G01*
G37*
%TD*%
%TO.C,C67*%
G36*
G01*
X164087500Y-113706250D02*
X164087500Y-113143750D01*
G75*
G02*
X164331250Y-112900000I243750J0D01*
G01*
X164818750Y-112900000D01*
G75*
G02*
X165062500Y-113143750I0J-243750D01*
G01*
X165062500Y-113706250D01*
G75*
G02*
X164818750Y-113950000I-243750J0D01*
G01*
X164331250Y-113950000D01*
G75*
G02*
X164087500Y-113706250I0J243750D01*
G01*
G37*
G36*
G01*
X162512500Y-113706250D02*
X162512500Y-113143750D01*
G75*
G02*
X162756250Y-112900000I243750J0D01*
G01*
X163243750Y-112900000D01*
G75*
G02*
X163487500Y-113143750I0J-243750D01*
G01*
X163487500Y-113706250D01*
G75*
G02*
X163243750Y-113950000I-243750J0D01*
G01*
X162756250Y-113950000D01*
G75*
G02*
X162512500Y-113706250I0J243750D01*
G01*
G37*
%TD*%
%TO.C,C66*%
G36*
G01*
X164102500Y-101281250D02*
X164102500Y-100718750D01*
G75*
G02*
X164346250Y-100475000I243750J0D01*
G01*
X164833750Y-100475000D01*
G75*
G02*
X165077500Y-100718750I0J-243750D01*
G01*
X165077500Y-101281250D01*
G75*
G02*
X164833750Y-101525000I-243750J0D01*
G01*
X164346250Y-101525000D01*
G75*
G02*
X164102500Y-101281250I0J243750D01*
G01*
G37*
G36*
G01*
X162527500Y-101281250D02*
X162527500Y-100718750D01*
G75*
G02*
X162771250Y-100475000I243750J0D01*
G01*
X163258750Y-100475000D01*
G75*
G02*
X163502500Y-100718750I0J-243750D01*
G01*
X163502500Y-101281250D01*
G75*
G02*
X163258750Y-101525000I-243750J0D01*
G01*
X162771250Y-101525000D01*
G75*
G02*
X162527500Y-101281250I0J243750D01*
G01*
G37*
%TD*%
%TO.C,C65*%
G36*
G01*
X164030000Y-89881250D02*
X164030000Y-89318750D01*
G75*
G02*
X164273750Y-89075000I243750J0D01*
G01*
X164761250Y-89075000D01*
G75*
G02*
X165005000Y-89318750I0J-243750D01*
G01*
X165005000Y-89881250D01*
G75*
G02*
X164761250Y-90125000I-243750J0D01*
G01*
X164273750Y-90125000D01*
G75*
G02*
X164030000Y-89881250I0J243750D01*
G01*
G37*
G36*
G01*
X162455000Y-89881250D02*
X162455000Y-89318750D01*
G75*
G02*
X162698750Y-89075000I243750J0D01*
G01*
X163186250Y-89075000D01*
G75*
G02*
X163430000Y-89318750I0J-243750D01*
G01*
X163430000Y-89881250D01*
G75*
G02*
X163186250Y-90125000I-243750J0D01*
G01*
X162698750Y-90125000D01*
G75*
G02*
X162455000Y-89881250I0J243750D01*
G01*
G37*
%TD*%
%TO.C,C64*%
G36*
G01*
X163782500Y-79161250D02*
X163782500Y-78598750D01*
G75*
G02*
X164026250Y-78355000I243750J0D01*
G01*
X164513750Y-78355000D01*
G75*
G02*
X164757500Y-78598750I0J-243750D01*
G01*
X164757500Y-79161250D01*
G75*
G02*
X164513750Y-79405000I-243750J0D01*
G01*
X164026250Y-79405000D01*
G75*
G02*
X163782500Y-79161250I0J243750D01*
G01*
G37*
G36*
G01*
X162207500Y-79161250D02*
X162207500Y-78598750D01*
G75*
G02*
X162451250Y-78355000I243750J0D01*
G01*
X162938750Y-78355000D01*
G75*
G02*
X163182500Y-78598750I0J-243750D01*
G01*
X163182500Y-79161250D01*
G75*
G02*
X162938750Y-79405000I-243750J0D01*
G01*
X162451250Y-79405000D01*
G75*
G02*
X162207500Y-79161250I0J243750D01*
G01*
G37*
%TD*%
%TO.C,C63*%
G36*
G01*
X163102500Y-68891250D02*
X163102500Y-68328750D01*
G75*
G02*
X163346250Y-68085000I243750J0D01*
G01*
X163833750Y-68085000D01*
G75*
G02*
X164077500Y-68328750I0J-243750D01*
G01*
X164077500Y-68891250D01*
G75*
G02*
X163833750Y-69135000I-243750J0D01*
G01*
X163346250Y-69135000D01*
G75*
G02*
X163102500Y-68891250I0J243750D01*
G01*
G37*
G36*
G01*
X161527500Y-68891250D02*
X161527500Y-68328750D01*
G75*
G02*
X161771250Y-68085000I243750J0D01*
G01*
X162258750Y-68085000D01*
G75*
G02*
X162502500Y-68328750I0J-243750D01*
G01*
X162502500Y-68891250D01*
G75*
G02*
X162258750Y-69135000I-243750J0D01*
G01*
X161771250Y-69135000D01*
G75*
G02*
X161527500Y-68891250I0J243750D01*
G01*
G37*
%TD*%
%TO.C,C62*%
G36*
G01*
X163242500Y-57531250D02*
X163242500Y-56968750D01*
G75*
G02*
X163486250Y-56725000I243750J0D01*
G01*
X163973750Y-56725000D01*
G75*
G02*
X164217500Y-56968750I0J-243750D01*
G01*
X164217500Y-57531250D01*
G75*
G02*
X163973750Y-57775000I-243750J0D01*
G01*
X163486250Y-57775000D01*
G75*
G02*
X163242500Y-57531250I0J243750D01*
G01*
G37*
G36*
G01*
X161667500Y-57531250D02*
X161667500Y-56968750D01*
G75*
G02*
X161911250Y-56725000I243750J0D01*
G01*
X162398750Y-56725000D01*
G75*
G02*
X162642500Y-56968750I0J-243750D01*
G01*
X162642500Y-57531250D01*
G75*
G02*
X162398750Y-57775000I-243750J0D01*
G01*
X161911250Y-57775000D01*
G75*
G02*
X161667500Y-57531250I0J243750D01*
G01*
G37*
%TD*%
%TO.C,C61*%
G36*
G01*
X163192500Y-45931250D02*
X163192500Y-45368750D01*
G75*
G02*
X163436250Y-45125000I243750J0D01*
G01*
X163923750Y-45125000D01*
G75*
G02*
X164167500Y-45368750I0J-243750D01*
G01*
X164167500Y-45931250D01*
G75*
G02*
X163923750Y-46175000I-243750J0D01*
G01*
X163436250Y-46175000D01*
G75*
G02*
X163192500Y-45931250I0J243750D01*
G01*
G37*
G36*
G01*
X161617500Y-45931250D02*
X161617500Y-45368750D01*
G75*
G02*
X161861250Y-45125000I243750J0D01*
G01*
X162348750Y-45125000D01*
G75*
G02*
X162592500Y-45368750I0J-243750D01*
G01*
X162592500Y-45931250D01*
G75*
G02*
X162348750Y-46175000I-243750J0D01*
G01*
X161861250Y-46175000D01*
G75*
G02*
X161617500Y-45931250I0J243750D01*
G01*
G37*
%TD*%
%TO.C,C60*%
G36*
G01*
X163192500Y-34821250D02*
X163192500Y-34258750D01*
G75*
G02*
X163436250Y-34015000I243750J0D01*
G01*
X163923750Y-34015000D01*
G75*
G02*
X164167500Y-34258750I0J-243750D01*
G01*
X164167500Y-34821250D01*
G75*
G02*
X163923750Y-35065000I-243750J0D01*
G01*
X163436250Y-35065000D01*
G75*
G02*
X163192500Y-34821250I0J243750D01*
G01*
G37*
G36*
G01*
X161617500Y-34821250D02*
X161617500Y-34258750D01*
G75*
G02*
X161861250Y-34015000I243750J0D01*
G01*
X162348750Y-34015000D01*
G75*
G02*
X162592500Y-34258750I0J-243750D01*
G01*
X162592500Y-34821250D01*
G75*
G02*
X162348750Y-35065000I-243750J0D01*
G01*
X161861250Y-35065000D01*
G75*
G02*
X161617500Y-34821250I0J243750D01*
G01*
G37*
%TD*%
%TO.C,C58*%
G36*
G01*
X154718750Y-148437500D02*
X155281250Y-148437500D01*
G75*
G02*
X155525000Y-148681250I0J-243750D01*
G01*
X155525000Y-149168750D01*
G75*
G02*
X155281250Y-149412500I-243750J0D01*
G01*
X154718750Y-149412500D01*
G75*
G02*
X154475000Y-149168750I0J243750D01*
G01*
X154475000Y-148681250D01*
G75*
G02*
X154718750Y-148437500I243750J0D01*
G01*
G37*
G36*
G01*
X154718750Y-146862500D02*
X155281250Y-146862500D01*
G75*
G02*
X155525000Y-147106250I0J-243750D01*
G01*
X155525000Y-147593750D01*
G75*
G02*
X155281250Y-147837500I-243750J0D01*
G01*
X154718750Y-147837500D01*
G75*
G02*
X154475000Y-147593750I0J243750D01*
G01*
X154475000Y-147106250D01*
G75*
G02*
X154718750Y-146862500I243750J0D01*
G01*
G37*
%TD*%
%TO.C,C57*%
G36*
G01*
X145112500Y-151256250D02*
X145112500Y-150693750D01*
G75*
G02*
X145356250Y-150450000I243750J0D01*
G01*
X145843750Y-150450000D01*
G75*
G02*
X146087500Y-150693750I0J-243750D01*
G01*
X146087500Y-151256250D01*
G75*
G02*
X145843750Y-151500000I-243750J0D01*
G01*
X145356250Y-151500000D01*
G75*
G02*
X145112500Y-151256250I0J243750D01*
G01*
G37*
G36*
G01*
X143537500Y-151256250D02*
X143537500Y-150693750D01*
G75*
G02*
X143781250Y-150450000I243750J0D01*
G01*
X144268750Y-150450000D01*
G75*
G02*
X144512500Y-150693750I0J-243750D01*
G01*
X144512500Y-151256250D01*
G75*
G02*
X144268750Y-151500000I-243750J0D01*
G01*
X143781250Y-151500000D01*
G75*
G02*
X143537500Y-151256250I0J243750D01*
G01*
G37*
%TD*%
%TO.C,C56*%
G36*
G01*
X119790921Y-157698914D02*
X119393173Y-158096661D01*
G75*
G02*
X119048459Y-158096661I-172357J172357D01*
G01*
X118703745Y-157751947D01*
G75*
G02*
X118703745Y-157407233I172357J172357D01*
G01*
X119101493Y-157009485D01*
G75*
G02*
X119446207Y-157009485I172357J-172357D01*
G01*
X119790921Y-157354199D01*
G75*
G02*
X119790921Y-157698913I-172357J-172357D01*
G01*
G37*
G36*
G01*
X120904615Y-158812608D02*
X120506867Y-159210355D01*
G75*
G02*
X120162153Y-159210355I-172357J172357D01*
G01*
X119817439Y-158865641D01*
G75*
G02*
X119817439Y-158520927I172357J172357D01*
G01*
X120215187Y-158123179D01*
G75*
G02*
X120559901Y-158123179I172357J-172357D01*
G01*
X120904615Y-158467893D01*
G75*
G02*
X120904615Y-158812607I-172357J-172357D01*
G01*
G37*
%TD*%
%TO.C,C55*%
G36*
G01*
X116592500Y-151541250D02*
X116592500Y-150978750D01*
G75*
G02*
X116836250Y-150735000I243750J0D01*
G01*
X117323750Y-150735000D01*
G75*
G02*
X117567500Y-150978750I0J-243750D01*
G01*
X117567500Y-151541250D01*
G75*
G02*
X117323750Y-151785000I-243750J0D01*
G01*
X116836250Y-151785000D01*
G75*
G02*
X116592500Y-151541250I0J243750D01*
G01*
G37*
G36*
G01*
X115017500Y-151541250D02*
X115017500Y-150978750D01*
G75*
G02*
X115261250Y-150735000I243750J0D01*
G01*
X115748750Y-150735000D01*
G75*
G02*
X115992500Y-150978750I0J-243750D01*
G01*
X115992500Y-151541250D01*
G75*
G02*
X115748750Y-151785000I-243750J0D01*
G01*
X115261250Y-151785000D01*
G75*
G02*
X115017500Y-151541250I0J243750D01*
G01*
G37*
%TD*%
%TO.C,C54*%
G36*
G01*
X87780000Y-151371250D02*
X87780000Y-150808750D01*
G75*
G02*
X88023750Y-150565000I243750J0D01*
G01*
X88511250Y-150565000D01*
G75*
G02*
X88755000Y-150808750I0J-243750D01*
G01*
X88755000Y-151371250D01*
G75*
G02*
X88511250Y-151615000I-243750J0D01*
G01*
X88023750Y-151615000D01*
G75*
G02*
X87780000Y-151371250I0J243750D01*
G01*
G37*
G36*
G01*
X86205000Y-151371250D02*
X86205000Y-150808750D01*
G75*
G02*
X86448750Y-150565000I243750J0D01*
G01*
X86936250Y-150565000D01*
G75*
G02*
X87180000Y-150808750I0J-243750D01*
G01*
X87180000Y-151371250D01*
G75*
G02*
X86936250Y-151615000I-243750J0D01*
G01*
X86448750Y-151615000D01*
G75*
G02*
X86205000Y-151371250I0J243750D01*
G01*
G37*
%TD*%
%TO.C,C53*%
G36*
G01*
X80492500Y-151371250D02*
X80492500Y-150808750D01*
G75*
G02*
X80736250Y-150565000I243750J0D01*
G01*
X81223750Y-150565000D01*
G75*
G02*
X81467500Y-150808750I0J-243750D01*
G01*
X81467500Y-151371250D01*
G75*
G02*
X81223750Y-151615000I-243750J0D01*
G01*
X80736250Y-151615000D01*
G75*
G02*
X80492500Y-151371250I0J243750D01*
G01*
G37*
G36*
G01*
X78917500Y-151371250D02*
X78917500Y-150808750D01*
G75*
G02*
X79161250Y-150565000I243750J0D01*
G01*
X79648750Y-150565000D01*
G75*
G02*
X79892500Y-150808750I0J-243750D01*
G01*
X79892500Y-151371250D01*
G75*
G02*
X79648750Y-151615000I-243750J0D01*
G01*
X79161250Y-151615000D01*
G75*
G02*
X78917500Y-151371250I0J243750D01*
G01*
G37*
%TD*%
%TO.C,C52*%
G36*
G01*
X130712500Y-140056250D02*
X130712500Y-139493750D01*
G75*
G02*
X130956250Y-139250000I243750J0D01*
G01*
X131443750Y-139250000D01*
G75*
G02*
X131687500Y-139493750I0J-243750D01*
G01*
X131687500Y-140056250D01*
G75*
G02*
X131443750Y-140300000I-243750J0D01*
G01*
X130956250Y-140300000D01*
G75*
G02*
X130712500Y-140056250I0J243750D01*
G01*
G37*
G36*
G01*
X129137500Y-140056250D02*
X129137500Y-139493750D01*
G75*
G02*
X129381250Y-139250000I243750J0D01*
G01*
X129868750Y-139250000D01*
G75*
G02*
X130112500Y-139493750I0J-243750D01*
G01*
X130112500Y-140056250D01*
G75*
G02*
X129868750Y-140300000I-243750J0D01*
G01*
X129381250Y-140300000D01*
G75*
G02*
X129137500Y-140056250I0J243750D01*
G01*
G37*
%TD*%
%TO.C,C51*%
G36*
G01*
X103600000Y-140481250D02*
X103600000Y-139918750D01*
G75*
G02*
X103843750Y-139675000I243750J0D01*
G01*
X104331250Y-139675000D01*
G75*
G02*
X104575000Y-139918750I0J-243750D01*
G01*
X104575000Y-140481250D01*
G75*
G02*
X104331250Y-140725000I-243750J0D01*
G01*
X103843750Y-140725000D01*
G75*
G02*
X103600000Y-140481250I0J243750D01*
G01*
G37*
G36*
G01*
X102025000Y-140481250D02*
X102025000Y-139918750D01*
G75*
G02*
X102268750Y-139675000I243750J0D01*
G01*
X102756250Y-139675000D01*
G75*
G02*
X103000000Y-139918750I0J-243750D01*
G01*
X103000000Y-140481250D01*
G75*
G02*
X102756250Y-140725000I-243750J0D01*
G01*
X102268750Y-140725000D01*
G75*
G02*
X102025000Y-140481250I0J243750D01*
G01*
G37*
%TD*%
%TO.C,C50*%
G36*
G01*
X91330000Y-143831250D02*
X91330000Y-143268750D01*
G75*
G02*
X91573750Y-143025000I243750J0D01*
G01*
X92061250Y-143025000D01*
G75*
G02*
X92305000Y-143268750I0J-243750D01*
G01*
X92305000Y-143831250D01*
G75*
G02*
X92061250Y-144075000I-243750J0D01*
G01*
X91573750Y-144075000D01*
G75*
G02*
X91330000Y-143831250I0J243750D01*
G01*
G37*
G36*
G01*
X89755000Y-143831250D02*
X89755000Y-143268750D01*
G75*
G02*
X89998750Y-143025000I243750J0D01*
G01*
X90486250Y-143025000D01*
G75*
G02*
X90730000Y-143268750I0J-243750D01*
G01*
X90730000Y-143831250D01*
G75*
G02*
X90486250Y-144075000I-243750J0D01*
G01*
X89998750Y-144075000D01*
G75*
G02*
X89755000Y-143831250I0J243750D01*
G01*
G37*
%TD*%
%TO.C,C49*%
G36*
G01*
X155562500Y-127031250D02*
X155562500Y-126468750D01*
G75*
G02*
X155806250Y-126225000I243750J0D01*
G01*
X156293750Y-126225000D01*
G75*
G02*
X156537500Y-126468750I0J-243750D01*
G01*
X156537500Y-127031250D01*
G75*
G02*
X156293750Y-127275000I-243750J0D01*
G01*
X155806250Y-127275000D01*
G75*
G02*
X155562500Y-127031250I0J243750D01*
G01*
G37*
G36*
G01*
X153987500Y-127031250D02*
X153987500Y-126468750D01*
G75*
G02*
X154231250Y-126225000I243750J0D01*
G01*
X154718750Y-126225000D01*
G75*
G02*
X154962500Y-126468750I0J-243750D01*
G01*
X154962500Y-127031250D01*
G75*
G02*
X154718750Y-127275000I-243750J0D01*
G01*
X154231250Y-127275000D01*
G75*
G02*
X153987500Y-127031250I0J243750D01*
G01*
G37*
%TD*%
%TO.C,C47*%
G36*
G01*
X141972500Y-126881250D02*
X141972500Y-126318750D01*
G75*
G02*
X142216250Y-126075000I243750J0D01*
G01*
X142703750Y-126075000D01*
G75*
G02*
X142947500Y-126318750I0J-243750D01*
G01*
X142947500Y-126881250D01*
G75*
G02*
X142703750Y-127125000I-243750J0D01*
G01*
X142216250Y-127125000D01*
G75*
G02*
X141972500Y-126881250I0J243750D01*
G01*
G37*
G36*
G01*
X140397500Y-126881250D02*
X140397500Y-126318750D01*
G75*
G02*
X140641250Y-126075000I243750J0D01*
G01*
X141128750Y-126075000D01*
G75*
G02*
X141372500Y-126318750I0J-243750D01*
G01*
X141372500Y-126881250D01*
G75*
G02*
X141128750Y-127125000I-243750J0D01*
G01*
X140641250Y-127125000D01*
G75*
G02*
X140397500Y-126881250I0J243750D01*
G01*
G37*
%TD*%
%TO.C,C46*%
G36*
G01*
X126887500Y-126693750D02*
X126887500Y-127256250D01*
G75*
G02*
X126643750Y-127500000I-243750J0D01*
G01*
X126156250Y-127500000D01*
G75*
G02*
X125912500Y-127256250I0J243750D01*
G01*
X125912500Y-126693750D01*
G75*
G02*
X126156250Y-126450000I243750J0D01*
G01*
X126643750Y-126450000D01*
G75*
G02*
X126887500Y-126693750I0J-243750D01*
G01*
G37*
G36*
G01*
X128462500Y-126693750D02*
X128462500Y-127256250D01*
G75*
G02*
X128218750Y-127500000I-243750J0D01*
G01*
X127731250Y-127500000D01*
G75*
G02*
X127487500Y-127256250I0J243750D01*
G01*
X127487500Y-126693750D01*
G75*
G02*
X127731250Y-126450000I243750J0D01*
G01*
X128218750Y-126450000D01*
G75*
G02*
X128462500Y-126693750I0J-243750D01*
G01*
G37*
%TD*%
%TO.C,C44*%
G36*
G01*
X106111360Y-128922090D02*
X106111360Y-128359590D01*
G75*
G02*
X106355110Y-128115840I243750J0D01*
G01*
X106842610Y-128115840D01*
G75*
G02*
X107086360Y-128359590I0J-243750D01*
G01*
X107086360Y-128922090D01*
G75*
G02*
X106842610Y-129165840I-243750J0D01*
G01*
X106355110Y-129165840D01*
G75*
G02*
X106111360Y-128922090I0J243750D01*
G01*
G37*
G36*
G01*
X104536360Y-128922090D02*
X104536360Y-128359590D01*
G75*
G02*
X104780110Y-128115840I243750J0D01*
G01*
X105267610Y-128115840D01*
G75*
G02*
X105511360Y-128359590I0J-243750D01*
G01*
X105511360Y-128922090D01*
G75*
G02*
X105267610Y-129165840I-243750J0D01*
G01*
X104780110Y-129165840D01*
G75*
G02*
X104536360Y-128922090I0J243750D01*
G01*
G37*
%TD*%
%TO.C,C43*%
G36*
G01*
X94612500Y-125143750D02*
X94612500Y-125706250D01*
G75*
G02*
X94368750Y-125950000I-243750J0D01*
G01*
X93881250Y-125950000D01*
G75*
G02*
X93637500Y-125706250I0J243750D01*
G01*
X93637500Y-125143750D01*
G75*
G02*
X93881250Y-124900000I243750J0D01*
G01*
X94368750Y-124900000D01*
G75*
G02*
X94612500Y-125143750I0J-243750D01*
G01*
G37*
G36*
G01*
X96187500Y-125143750D02*
X96187500Y-125706250D01*
G75*
G02*
X95943750Y-125950000I-243750J0D01*
G01*
X95456250Y-125950000D01*
G75*
G02*
X95212500Y-125706250I0J243750D01*
G01*
X95212500Y-125143750D01*
G75*
G02*
X95456250Y-124900000I243750J0D01*
G01*
X95943750Y-124900000D01*
G75*
G02*
X96187500Y-125143750I0J-243750D01*
G01*
G37*
%TD*%
%TO.C,C42*%
G36*
G01*
X86887500Y-127093750D02*
X86887500Y-127656250D01*
G75*
G02*
X86643750Y-127900000I-243750J0D01*
G01*
X86156250Y-127900000D01*
G75*
G02*
X85912500Y-127656250I0J243750D01*
G01*
X85912500Y-127093750D01*
G75*
G02*
X86156250Y-126850000I243750J0D01*
G01*
X86643750Y-126850000D01*
G75*
G02*
X86887500Y-127093750I0J-243750D01*
G01*
G37*
G36*
G01*
X88462500Y-127093750D02*
X88462500Y-127656250D01*
G75*
G02*
X88218750Y-127900000I-243750J0D01*
G01*
X87731250Y-127900000D01*
G75*
G02*
X87487500Y-127656250I0J243750D01*
G01*
X87487500Y-127093750D01*
G75*
G02*
X87731250Y-126850000I243750J0D01*
G01*
X88218750Y-126850000D01*
G75*
G02*
X88462500Y-127093750I0J-243750D01*
G01*
G37*
%TD*%
%TO.C,C41*%
G36*
G01*
X76687500Y-126481250D02*
X76687500Y-125918750D01*
G75*
G02*
X76931250Y-125675000I243750J0D01*
G01*
X77418750Y-125675000D01*
G75*
G02*
X77662500Y-125918750I0J-243750D01*
G01*
X77662500Y-126481250D01*
G75*
G02*
X77418750Y-126725000I-243750J0D01*
G01*
X76931250Y-126725000D01*
G75*
G02*
X76687500Y-126481250I0J243750D01*
G01*
G37*
G36*
G01*
X75112500Y-126481250D02*
X75112500Y-125918750D01*
G75*
G02*
X75356250Y-125675000I243750J0D01*
G01*
X75843750Y-125675000D01*
G75*
G02*
X76087500Y-125918750I0J-243750D01*
G01*
X76087500Y-126481250D01*
G75*
G02*
X75843750Y-126725000I-243750J0D01*
G01*
X75356250Y-126725000D01*
G75*
G02*
X75112500Y-126481250I0J243750D01*
G01*
G37*
%TD*%
%TO.C,C40*%
G36*
G01*
X156562500Y-119956250D02*
X156562500Y-119393750D01*
G75*
G02*
X156806250Y-119150000I243750J0D01*
G01*
X157293750Y-119150000D01*
G75*
G02*
X157537500Y-119393750I0J-243750D01*
G01*
X157537500Y-119956250D01*
G75*
G02*
X157293750Y-120200000I-243750J0D01*
G01*
X156806250Y-120200000D01*
G75*
G02*
X156562500Y-119956250I0J243750D01*
G01*
G37*
G36*
G01*
X154987500Y-119956250D02*
X154987500Y-119393750D01*
G75*
G02*
X155231250Y-119150000I243750J0D01*
G01*
X155718750Y-119150000D01*
G75*
G02*
X155962500Y-119393750I0J-243750D01*
G01*
X155962500Y-119956250D01*
G75*
G02*
X155718750Y-120200000I-243750J0D01*
G01*
X155231250Y-120200000D01*
G75*
G02*
X154987500Y-119956250I0J243750D01*
G01*
G37*
%TD*%
%TO.C,C39*%
G36*
G01*
X147512500Y-120431250D02*
X147512500Y-119868750D01*
G75*
G02*
X147756250Y-119625000I243750J0D01*
G01*
X148243750Y-119625000D01*
G75*
G02*
X148487500Y-119868750I0J-243750D01*
G01*
X148487500Y-120431250D01*
G75*
G02*
X148243750Y-120675000I-243750J0D01*
G01*
X147756250Y-120675000D01*
G75*
G02*
X147512500Y-120431250I0J243750D01*
G01*
G37*
G36*
G01*
X145937500Y-120431250D02*
X145937500Y-119868750D01*
G75*
G02*
X146181250Y-119625000I243750J0D01*
G01*
X146668750Y-119625000D01*
G75*
G02*
X146912500Y-119868750I0J-243750D01*
G01*
X146912500Y-120431250D01*
G75*
G02*
X146668750Y-120675000I-243750J0D01*
G01*
X146181250Y-120675000D01*
G75*
G02*
X145937500Y-120431250I0J243750D01*
G01*
G37*
%TD*%
%TO.C,C38*%
G36*
G01*
X140343750Y-117712500D02*
X140906250Y-117712500D01*
G75*
G02*
X141150000Y-117956250I0J-243750D01*
G01*
X141150000Y-118443750D01*
G75*
G02*
X140906250Y-118687500I-243750J0D01*
G01*
X140343750Y-118687500D01*
G75*
G02*
X140100000Y-118443750I0J243750D01*
G01*
X140100000Y-117956250D01*
G75*
G02*
X140343750Y-117712500I243750J0D01*
G01*
G37*
G36*
G01*
X140343750Y-116137500D02*
X140906250Y-116137500D01*
G75*
G02*
X141150000Y-116381250I0J-243750D01*
G01*
X141150000Y-116868750D01*
G75*
G02*
X140906250Y-117112500I-243750J0D01*
G01*
X140343750Y-117112500D01*
G75*
G02*
X140100000Y-116868750I0J243750D01*
G01*
X140100000Y-116381250D01*
G75*
G02*
X140343750Y-116137500I243750J0D01*
G01*
G37*
%TD*%
%TO.C,C37*%
G36*
G01*
X128420550Y-118674200D02*
X128983050Y-118674200D01*
G75*
G02*
X129226800Y-118917950I0J-243750D01*
G01*
X129226800Y-119405450D01*
G75*
G02*
X128983050Y-119649200I-243750J0D01*
G01*
X128420550Y-119649200D01*
G75*
G02*
X128176800Y-119405450I0J243750D01*
G01*
X128176800Y-118917950D01*
G75*
G02*
X128420550Y-118674200I243750J0D01*
G01*
G37*
G36*
G01*
X128420550Y-117099200D02*
X128983050Y-117099200D01*
G75*
G02*
X129226800Y-117342950I0J-243750D01*
G01*
X129226800Y-117830450D01*
G75*
G02*
X128983050Y-118074200I-243750J0D01*
G01*
X128420550Y-118074200D01*
G75*
G02*
X128176800Y-117830450I0J243750D01*
G01*
X128176800Y-117342950D01*
G75*
G02*
X128420550Y-117099200I243750J0D01*
G01*
G37*
%TD*%
%TO.C,C36*%
G36*
G01*
X119115150Y-119651600D02*
X118552650Y-119651600D01*
G75*
G02*
X118308900Y-119407850I0J243750D01*
G01*
X118308900Y-118920350D01*
G75*
G02*
X118552650Y-118676600I243750J0D01*
G01*
X119115150Y-118676600D01*
G75*
G02*
X119358900Y-118920350I0J-243750D01*
G01*
X119358900Y-119407850D01*
G75*
G02*
X119115150Y-119651600I-243750J0D01*
G01*
G37*
G36*
G01*
X119115150Y-121226600D02*
X118552650Y-121226600D01*
G75*
G02*
X118308900Y-120982850I0J243750D01*
G01*
X118308900Y-120495350D01*
G75*
G02*
X118552650Y-120251600I243750J0D01*
G01*
X119115150Y-120251600D01*
G75*
G02*
X119358900Y-120495350I0J-243750D01*
G01*
X119358900Y-120982850D01*
G75*
G02*
X119115150Y-121226600I-243750J0D01*
G01*
G37*
%TD*%
%TO.C,C35*%
G36*
G01*
X109518750Y-118837500D02*
X110081250Y-118837500D01*
G75*
G02*
X110325000Y-119081250I0J-243750D01*
G01*
X110325000Y-119568750D01*
G75*
G02*
X110081250Y-119812500I-243750J0D01*
G01*
X109518750Y-119812500D01*
G75*
G02*
X109275000Y-119568750I0J243750D01*
G01*
X109275000Y-119081250D01*
G75*
G02*
X109518750Y-118837500I243750J0D01*
G01*
G37*
G36*
G01*
X109518750Y-117262500D02*
X110081250Y-117262500D01*
G75*
G02*
X110325000Y-117506250I0J-243750D01*
G01*
X110325000Y-117993750D01*
G75*
G02*
X110081250Y-118237500I-243750J0D01*
G01*
X109518750Y-118237500D01*
G75*
G02*
X109275000Y-117993750I0J243750D01*
G01*
X109275000Y-117506250D01*
G75*
G02*
X109518750Y-117262500I243750J0D01*
G01*
G37*
%TD*%
%TO.C,C34*%
G36*
G01*
X96518150Y-118267800D02*
X97080650Y-118267800D01*
G75*
G02*
X97324400Y-118511550I0J-243750D01*
G01*
X97324400Y-118999050D01*
G75*
G02*
X97080650Y-119242800I-243750J0D01*
G01*
X96518150Y-119242800D01*
G75*
G02*
X96274400Y-118999050I0J243750D01*
G01*
X96274400Y-118511550D01*
G75*
G02*
X96518150Y-118267800I243750J0D01*
G01*
G37*
G36*
G01*
X96518150Y-116692800D02*
X97080650Y-116692800D01*
G75*
G02*
X97324400Y-116936550I0J-243750D01*
G01*
X97324400Y-117424050D01*
G75*
G02*
X97080650Y-117667800I-243750J0D01*
G01*
X96518150Y-117667800D01*
G75*
G02*
X96274400Y-117424050I0J243750D01*
G01*
X96274400Y-116936550D01*
G75*
G02*
X96518150Y-116692800I243750J0D01*
G01*
G37*
%TD*%
%TO.C,C32*%
G36*
G01*
X77831250Y-117937500D02*
X77268750Y-117937500D01*
G75*
G02*
X77025000Y-117693750I0J243750D01*
G01*
X77025000Y-117206250D01*
G75*
G02*
X77268750Y-116962500I243750J0D01*
G01*
X77831250Y-116962500D01*
G75*
G02*
X78075000Y-117206250I0J-243750D01*
G01*
X78075000Y-117693750D01*
G75*
G02*
X77831250Y-117937500I-243750J0D01*
G01*
G37*
G36*
G01*
X77831250Y-119512500D02*
X77268750Y-119512500D01*
G75*
G02*
X77025000Y-119268750I0J243750D01*
G01*
X77025000Y-118781250D01*
G75*
G02*
X77268750Y-118537500I243750J0D01*
G01*
X77831250Y-118537500D01*
G75*
G02*
X78075000Y-118781250I0J-243750D01*
G01*
X78075000Y-119268750D01*
G75*
G02*
X77831250Y-119512500I-243750J0D01*
G01*
G37*
%TD*%
%TO.C,C31*%
G36*
G01*
X149292500Y-106381250D02*
X149292500Y-105818750D01*
G75*
G02*
X149536250Y-105575000I243750J0D01*
G01*
X150023750Y-105575000D01*
G75*
G02*
X150267500Y-105818750I0J-243750D01*
G01*
X150267500Y-106381250D01*
G75*
G02*
X150023750Y-106625000I-243750J0D01*
G01*
X149536250Y-106625000D01*
G75*
G02*
X149292500Y-106381250I0J243750D01*
G01*
G37*
G36*
G01*
X147717500Y-106381250D02*
X147717500Y-105818750D01*
G75*
G02*
X147961250Y-105575000I243750J0D01*
G01*
X148448750Y-105575000D01*
G75*
G02*
X148692500Y-105818750I0J-243750D01*
G01*
X148692500Y-106381250D01*
G75*
G02*
X148448750Y-106625000I-243750J0D01*
G01*
X147961250Y-106625000D01*
G75*
G02*
X147717500Y-106381250I0J243750D01*
G01*
G37*
%TD*%
%TO.C,C30*%
G36*
G01*
X151158750Y-81437500D02*
X151721250Y-81437500D01*
G75*
G02*
X151965000Y-81681250I0J-243750D01*
G01*
X151965000Y-82168750D01*
G75*
G02*
X151721250Y-82412500I-243750J0D01*
G01*
X151158750Y-82412500D01*
G75*
G02*
X150915000Y-82168750I0J243750D01*
G01*
X150915000Y-81681250D01*
G75*
G02*
X151158750Y-81437500I243750J0D01*
G01*
G37*
G36*
G01*
X151158750Y-79862500D02*
X151721250Y-79862500D01*
G75*
G02*
X151965000Y-80106250I0J-243750D01*
G01*
X151965000Y-80593750D01*
G75*
G02*
X151721250Y-80837500I-243750J0D01*
G01*
X151158750Y-80837500D01*
G75*
G02*
X150915000Y-80593750I0J243750D01*
G01*
X150915000Y-80106250D01*
G75*
G02*
X151158750Y-79862500I243750J0D01*
G01*
G37*
%TD*%
%TO.C,C29*%
G36*
G01*
X87512500Y-81918750D02*
X87512500Y-82481250D01*
G75*
G02*
X87268750Y-82725000I-243750J0D01*
G01*
X86781250Y-82725000D01*
G75*
G02*
X86537500Y-82481250I0J243750D01*
G01*
X86537500Y-81918750D01*
G75*
G02*
X86781250Y-81675000I243750J0D01*
G01*
X87268750Y-81675000D01*
G75*
G02*
X87512500Y-81918750I0J-243750D01*
G01*
G37*
G36*
G01*
X89087500Y-81918750D02*
X89087500Y-82481250D01*
G75*
G02*
X88843750Y-82725000I-243750J0D01*
G01*
X88356250Y-82725000D01*
G75*
G02*
X88112500Y-82481250I0J243750D01*
G01*
X88112500Y-81918750D01*
G75*
G02*
X88356250Y-81675000I243750J0D01*
G01*
X88843750Y-81675000D01*
G75*
G02*
X89087500Y-81918750I0J-243750D01*
G01*
G37*
%TD*%
%TO.C,C28*%
G36*
G01*
X77512500Y-91656250D02*
X77512500Y-91093750D01*
G75*
G02*
X77756250Y-90850000I243750J0D01*
G01*
X78243750Y-90850000D01*
G75*
G02*
X78487500Y-91093750I0J-243750D01*
G01*
X78487500Y-91656250D01*
G75*
G02*
X78243750Y-91900000I-243750J0D01*
G01*
X77756250Y-91900000D01*
G75*
G02*
X77512500Y-91656250I0J243750D01*
G01*
G37*
G36*
G01*
X75937500Y-91656250D02*
X75937500Y-91093750D01*
G75*
G02*
X76181250Y-90850000I243750J0D01*
G01*
X76668750Y-90850000D01*
G75*
G02*
X76912500Y-91093750I0J-243750D01*
G01*
X76912500Y-91656250D01*
G75*
G02*
X76668750Y-91900000I-243750J0D01*
G01*
X76181250Y-91900000D01*
G75*
G02*
X75937500Y-91656250I0J243750D01*
G01*
G37*
%TD*%
%TO.C,C27*%
G36*
G01*
X81062500Y-99981250D02*
X81062500Y-99418750D01*
G75*
G02*
X81306250Y-99175000I243750J0D01*
G01*
X81793750Y-99175000D01*
G75*
G02*
X82037500Y-99418750I0J-243750D01*
G01*
X82037500Y-99981250D01*
G75*
G02*
X81793750Y-100225000I-243750J0D01*
G01*
X81306250Y-100225000D01*
G75*
G02*
X81062500Y-99981250I0J243750D01*
G01*
G37*
G36*
G01*
X79487500Y-99981250D02*
X79487500Y-99418750D01*
G75*
G02*
X79731250Y-99175000I243750J0D01*
G01*
X80218750Y-99175000D01*
G75*
G02*
X80462500Y-99418750I0J-243750D01*
G01*
X80462500Y-99981250D01*
G75*
G02*
X80218750Y-100225000I-243750J0D01*
G01*
X79731250Y-100225000D01*
G75*
G02*
X79487500Y-99981250I0J243750D01*
G01*
G37*
%TD*%
%TO.C,C26*%
G36*
G01*
X84637500Y-107781250D02*
X84637500Y-107218750D01*
G75*
G02*
X84881250Y-106975000I243750J0D01*
G01*
X85368750Y-106975000D01*
G75*
G02*
X85612500Y-107218750I0J-243750D01*
G01*
X85612500Y-107781250D01*
G75*
G02*
X85368750Y-108025000I-243750J0D01*
G01*
X84881250Y-108025000D01*
G75*
G02*
X84637500Y-107781250I0J243750D01*
G01*
G37*
G36*
G01*
X83062500Y-107781250D02*
X83062500Y-107218750D01*
G75*
G02*
X83306250Y-106975000I243750J0D01*
G01*
X83793750Y-106975000D01*
G75*
G02*
X84037500Y-107218750I0J-243750D01*
G01*
X84037500Y-107781250D01*
G75*
G02*
X83793750Y-108025000I-243750J0D01*
G01*
X83306250Y-108025000D01*
G75*
G02*
X83062500Y-107781250I0J243750D01*
G01*
G37*
%TD*%
%TO.C,C24*%
G36*
G01*
X110837500Y-107481250D02*
X110837500Y-106918750D01*
G75*
G02*
X111081250Y-106675000I243750J0D01*
G01*
X111568750Y-106675000D01*
G75*
G02*
X111812500Y-106918750I0J-243750D01*
G01*
X111812500Y-107481250D01*
G75*
G02*
X111568750Y-107725000I-243750J0D01*
G01*
X111081250Y-107725000D01*
G75*
G02*
X110837500Y-107481250I0J243750D01*
G01*
G37*
G36*
G01*
X109262500Y-107481250D02*
X109262500Y-106918750D01*
G75*
G02*
X109506250Y-106675000I243750J0D01*
G01*
X109993750Y-106675000D01*
G75*
G02*
X110237500Y-106918750I0J-243750D01*
G01*
X110237500Y-107481250D01*
G75*
G02*
X109993750Y-107725000I-243750J0D01*
G01*
X109506250Y-107725000D01*
G75*
G02*
X109262500Y-107481250I0J243750D01*
G01*
G37*
%TD*%
%TO.C,C23*%
G36*
G01*
X114106250Y-100787500D02*
X113543750Y-100787500D01*
G75*
G02*
X113300000Y-100543750I0J243750D01*
G01*
X113300000Y-100056250D01*
G75*
G02*
X113543750Y-99812500I243750J0D01*
G01*
X114106250Y-99812500D01*
G75*
G02*
X114350000Y-100056250I0J-243750D01*
G01*
X114350000Y-100543750D01*
G75*
G02*
X114106250Y-100787500I-243750J0D01*
G01*
G37*
G36*
G01*
X114106250Y-102362500D02*
X113543750Y-102362500D01*
G75*
G02*
X113300000Y-102118750I0J243750D01*
G01*
X113300000Y-101631250D01*
G75*
G02*
X113543750Y-101387500I243750J0D01*
G01*
X114106250Y-101387500D01*
G75*
G02*
X114350000Y-101631250I0J-243750D01*
G01*
X114350000Y-102118750D01*
G75*
G02*
X114106250Y-102362500I-243750J0D01*
G01*
G37*
%TD*%
%TO.C,C22*%
G36*
G01*
X113162500Y-91951250D02*
X113162500Y-91388750D01*
G75*
G02*
X113406250Y-91145000I243750J0D01*
G01*
X113893750Y-91145000D01*
G75*
G02*
X114137500Y-91388750I0J-243750D01*
G01*
X114137500Y-91951250D01*
G75*
G02*
X113893750Y-92195000I-243750J0D01*
G01*
X113406250Y-92195000D01*
G75*
G02*
X113162500Y-91951250I0J243750D01*
G01*
G37*
G36*
G01*
X111587500Y-91951250D02*
X111587500Y-91388750D01*
G75*
G02*
X111831250Y-91145000I243750J0D01*
G01*
X112318750Y-91145000D01*
G75*
G02*
X112562500Y-91388750I0J-243750D01*
G01*
X112562500Y-91951250D01*
G75*
G02*
X112318750Y-92195000I-243750J0D01*
G01*
X111831250Y-92195000D01*
G75*
G02*
X111587500Y-91951250I0J243750D01*
G01*
G37*
%TD*%
%TO.C,C21*%
G36*
G01*
X108050000Y-83806250D02*
X108050000Y-83243750D01*
G75*
G02*
X108293750Y-83000000I243750J0D01*
G01*
X108781250Y-83000000D01*
G75*
G02*
X109025000Y-83243750I0J-243750D01*
G01*
X109025000Y-83806250D01*
G75*
G02*
X108781250Y-84050000I-243750J0D01*
G01*
X108293750Y-84050000D01*
G75*
G02*
X108050000Y-83806250I0J243750D01*
G01*
G37*
G36*
G01*
X106475000Y-83806250D02*
X106475000Y-83243750D01*
G75*
G02*
X106718750Y-83000000I243750J0D01*
G01*
X107206250Y-83000000D01*
G75*
G02*
X107450000Y-83243750I0J-243750D01*
G01*
X107450000Y-83806250D01*
G75*
G02*
X107206250Y-84050000I-243750J0D01*
G01*
X106718750Y-84050000D01*
G75*
G02*
X106475000Y-83806250I0J243750D01*
G01*
G37*
%TD*%
%TO.C,C20*%
G36*
G01*
X100787500Y-80306250D02*
X100787500Y-79743750D01*
G75*
G02*
X101031250Y-79500000I243750J0D01*
G01*
X101518750Y-79500000D01*
G75*
G02*
X101762500Y-79743750I0J-243750D01*
G01*
X101762500Y-80306250D01*
G75*
G02*
X101518750Y-80550000I-243750J0D01*
G01*
X101031250Y-80550000D01*
G75*
G02*
X100787500Y-80306250I0J243750D01*
G01*
G37*
G36*
G01*
X99212500Y-80306250D02*
X99212500Y-79743750D01*
G75*
G02*
X99456250Y-79500000I243750J0D01*
G01*
X99943750Y-79500000D01*
G75*
G02*
X100187500Y-79743750I0J-243750D01*
G01*
X100187500Y-80306250D01*
G75*
G02*
X99943750Y-80550000I-243750J0D01*
G01*
X99456250Y-80550000D01*
G75*
G02*
X99212500Y-80306250I0J243750D01*
G01*
G37*
%TD*%
%TO.C,C19*%
G36*
G01*
X92012500Y-80306250D02*
X92012500Y-79743750D01*
G75*
G02*
X92256250Y-79500000I243750J0D01*
G01*
X92743750Y-79500000D01*
G75*
G02*
X92987500Y-79743750I0J-243750D01*
G01*
X92987500Y-80306250D01*
G75*
G02*
X92743750Y-80550000I-243750J0D01*
G01*
X92256250Y-80550000D01*
G75*
G02*
X92012500Y-80306250I0J243750D01*
G01*
G37*
G36*
G01*
X90437500Y-80306250D02*
X90437500Y-79743750D01*
G75*
G02*
X90681250Y-79500000I243750J0D01*
G01*
X91168750Y-79500000D01*
G75*
G02*
X91412500Y-79743750I0J-243750D01*
G01*
X91412500Y-80306250D01*
G75*
G02*
X91168750Y-80550000I-243750J0D01*
G01*
X90681250Y-80550000D01*
G75*
G02*
X90437500Y-80306250I0J243750D01*
G01*
G37*
%TD*%
%TO.C,C18*%
G36*
G01*
X102612500Y-73031250D02*
X102612500Y-72468750D01*
G75*
G02*
X102856250Y-72225000I243750J0D01*
G01*
X103343750Y-72225000D01*
G75*
G02*
X103587500Y-72468750I0J-243750D01*
G01*
X103587500Y-73031250D01*
G75*
G02*
X103343750Y-73275000I-243750J0D01*
G01*
X102856250Y-73275000D01*
G75*
G02*
X102612500Y-73031250I0J243750D01*
G01*
G37*
G36*
G01*
X101037500Y-73031250D02*
X101037500Y-72468750D01*
G75*
G02*
X101281250Y-72225000I243750J0D01*
G01*
X101768750Y-72225000D01*
G75*
G02*
X102012500Y-72468750I0J-243750D01*
G01*
X102012500Y-73031250D01*
G75*
G02*
X101768750Y-73275000I-243750J0D01*
G01*
X101281250Y-73275000D01*
G75*
G02*
X101037500Y-73031250I0J243750D01*
G01*
G37*
%TD*%
%TO.C,C17*%
G36*
G01*
X95562500Y-73056250D02*
X95562500Y-72493750D01*
G75*
G02*
X95806250Y-72250000I243750J0D01*
G01*
X96293750Y-72250000D01*
G75*
G02*
X96537500Y-72493750I0J-243750D01*
G01*
X96537500Y-73056250D01*
G75*
G02*
X96293750Y-73300000I-243750J0D01*
G01*
X95806250Y-73300000D01*
G75*
G02*
X95562500Y-73056250I0J243750D01*
G01*
G37*
G36*
G01*
X93987500Y-73056250D02*
X93987500Y-72493750D01*
G75*
G02*
X94231250Y-72250000I243750J0D01*
G01*
X94718750Y-72250000D01*
G75*
G02*
X94962500Y-72493750I0J-243750D01*
G01*
X94962500Y-73056250D01*
G75*
G02*
X94718750Y-73300000I-243750J0D01*
G01*
X94231250Y-73300000D01*
G75*
G02*
X93987500Y-73056250I0J243750D01*
G01*
G37*
%TD*%
%TO.C,C16*%
G36*
G01*
X88862500Y-73056250D02*
X88862500Y-72493750D01*
G75*
G02*
X89106250Y-72250000I243750J0D01*
G01*
X89593750Y-72250000D01*
G75*
G02*
X89837500Y-72493750I0J-243750D01*
G01*
X89837500Y-73056250D01*
G75*
G02*
X89593750Y-73300000I-243750J0D01*
G01*
X89106250Y-73300000D01*
G75*
G02*
X88862500Y-73056250I0J243750D01*
G01*
G37*
G36*
G01*
X87287500Y-73056250D02*
X87287500Y-72493750D01*
G75*
G02*
X87531250Y-72250000I243750J0D01*
G01*
X88018750Y-72250000D01*
G75*
G02*
X88262500Y-72493750I0J-243750D01*
G01*
X88262500Y-73056250D01*
G75*
G02*
X88018750Y-73300000I-243750J0D01*
G01*
X87531250Y-73300000D01*
G75*
G02*
X87287500Y-73056250I0J243750D01*
G01*
G37*
%TD*%
%TO.C,C15*%
G36*
G01*
X151762500Y-68991250D02*
X151762500Y-68428750D01*
G75*
G02*
X152006250Y-68185000I243750J0D01*
G01*
X152493750Y-68185000D01*
G75*
G02*
X152737500Y-68428750I0J-243750D01*
G01*
X152737500Y-68991250D01*
G75*
G02*
X152493750Y-69235000I-243750J0D01*
G01*
X152006250Y-69235000D01*
G75*
G02*
X151762500Y-68991250I0J243750D01*
G01*
G37*
G36*
G01*
X150187500Y-68991250D02*
X150187500Y-68428750D01*
G75*
G02*
X150431250Y-68185000I243750J0D01*
G01*
X150918750Y-68185000D01*
G75*
G02*
X151162500Y-68428750I0J-243750D01*
G01*
X151162500Y-68991250D01*
G75*
G02*
X150918750Y-69235000I-243750J0D01*
G01*
X150431250Y-69235000D01*
G75*
G02*
X150187500Y-68991250I0J243750D01*
G01*
G37*
%TD*%
%TO.C,C14*%
G36*
G01*
X141172500Y-68801250D02*
X141172500Y-68238750D01*
G75*
G02*
X141416250Y-67995000I243750J0D01*
G01*
X141903750Y-67995000D01*
G75*
G02*
X142147500Y-68238750I0J-243750D01*
G01*
X142147500Y-68801250D01*
G75*
G02*
X141903750Y-69045000I-243750J0D01*
G01*
X141416250Y-69045000D01*
G75*
G02*
X141172500Y-68801250I0J243750D01*
G01*
G37*
G36*
G01*
X139597500Y-68801250D02*
X139597500Y-68238750D01*
G75*
G02*
X139841250Y-67995000I243750J0D01*
G01*
X140328750Y-67995000D01*
G75*
G02*
X140572500Y-68238750I0J-243750D01*
G01*
X140572500Y-68801250D01*
G75*
G02*
X140328750Y-69045000I-243750J0D01*
G01*
X139841250Y-69045000D01*
G75*
G02*
X139597500Y-68801250I0J243750D01*
G01*
G37*
%TD*%
%TO.C,C13*%
G36*
G01*
X131222500Y-68921250D02*
X131222500Y-68358750D01*
G75*
G02*
X131466250Y-68115000I243750J0D01*
G01*
X131953750Y-68115000D01*
G75*
G02*
X132197500Y-68358750I0J-243750D01*
G01*
X132197500Y-68921250D01*
G75*
G02*
X131953750Y-69165000I-243750J0D01*
G01*
X131466250Y-69165000D01*
G75*
G02*
X131222500Y-68921250I0J243750D01*
G01*
G37*
G36*
G01*
X129647500Y-68921250D02*
X129647500Y-68358750D01*
G75*
G02*
X129891250Y-68115000I243750J0D01*
G01*
X130378750Y-68115000D01*
G75*
G02*
X130622500Y-68358750I0J-243750D01*
G01*
X130622500Y-68921250D01*
G75*
G02*
X130378750Y-69165000I-243750J0D01*
G01*
X129891250Y-69165000D01*
G75*
G02*
X129647500Y-68921250I0J243750D01*
G01*
G37*
%TD*%
%TO.C,C12*%
G36*
G01*
X124550000Y-66131250D02*
X124550000Y-65568750D01*
G75*
G02*
X124793750Y-65325000I243750J0D01*
G01*
X125281250Y-65325000D01*
G75*
G02*
X125525000Y-65568750I0J-243750D01*
G01*
X125525000Y-66131250D01*
G75*
G02*
X125281250Y-66375000I-243750J0D01*
G01*
X124793750Y-66375000D01*
G75*
G02*
X124550000Y-66131250I0J243750D01*
G01*
G37*
G36*
G01*
X122975000Y-66131250D02*
X122975000Y-65568750D01*
G75*
G02*
X123218750Y-65325000I243750J0D01*
G01*
X123706250Y-65325000D01*
G75*
G02*
X123950000Y-65568750I0J-243750D01*
G01*
X123950000Y-66131250D01*
G75*
G02*
X123706250Y-66375000I-243750J0D01*
G01*
X123218750Y-66375000D01*
G75*
G02*
X122975000Y-66131250I0J243750D01*
G01*
G37*
%TD*%
%TO.C,C11*%
G36*
G01*
X116050000Y-66531250D02*
X116050000Y-65968750D01*
G75*
G02*
X116293750Y-65725000I243750J0D01*
G01*
X116781250Y-65725000D01*
G75*
G02*
X117025000Y-65968750I0J-243750D01*
G01*
X117025000Y-66531250D01*
G75*
G02*
X116781250Y-66775000I-243750J0D01*
G01*
X116293750Y-66775000D01*
G75*
G02*
X116050000Y-66531250I0J243750D01*
G01*
G37*
G36*
G01*
X114475000Y-66531250D02*
X114475000Y-65968750D01*
G75*
G02*
X114718750Y-65725000I243750J0D01*
G01*
X115206250Y-65725000D01*
G75*
G02*
X115450000Y-65968750I0J-243750D01*
G01*
X115450000Y-66531250D01*
G75*
G02*
X115206250Y-66775000I-243750J0D01*
G01*
X114718750Y-66775000D01*
G75*
G02*
X114475000Y-66531250I0J243750D01*
G01*
G37*
%TD*%
%TO.C,C10*%
G36*
G01*
X109517500Y-66271250D02*
X109517500Y-65708750D01*
G75*
G02*
X109761250Y-65465000I243750J0D01*
G01*
X110248750Y-65465000D01*
G75*
G02*
X110492500Y-65708750I0J-243750D01*
G01*
X110492500Y-66271250D01*
G75*
G02*
X110248750Y-66515000I-243750J0D01*
G01*
X109761250Y-66515000D01*
G75*
G02*
X109517500Y-66271250I0J243750D01*
G01*
G37*
G36*
G01*
X107942500Y-66271250D02*
X107942500Y-65708750D01*
G75*
G02*
X108186250Y-65465000I243750J0D01*
G01*
X108673750Y-65465000D01*
G75*
G02*
X108917500Y-65708750I0J-243750D01*
G01*
X108917500Y-66271250D01*
G75*
G02*
X108673750Y-66515000I-243750J0D01*
G01*
X108186250Y-66515000D01*
G75*
G02*
X107942500Y-66271250I0J243750D01*
G01*
G37*
%TD*%
%TO.C,C9*%
G36*
G01*
X89768750Y-63762500D02*
X90331250Y-63762500D01*
G75*
G02*
X90575000Y-64006250I0J-243750D01*
G01*
X90575000Y-64493750D01*
G75*
G02*
X90331250Y-64737500I-243750J0D01*
G01*
X89768750Y-64737500D01*
G75*
G02*
X89525000Y-64493750I0J243750D01*
G01*
X89525000Y-64006250D01*
G75*
G02*
X89768750Y-63762500I243750J0D01*
G01*
G37*
G36*
G01*
X89768750Y-62187500D02*
X90331250Y-62187500D01*
G75*
G02*
X90575000Y-62431250I0J-243750D01*
G01*
X90575000Y-62918750D01*
G75*
G02*
X90331250Y-63162500I-243750J0D01*
G01*
X89768750Y-63162500D01*
G75*
G02*
X89525000Y-62918750I0J243750D01*
G01*
X89525000Y-62431250D01*
G75*
G02*
X89768750Y-62187500I243750J0D01*
G01*
G37*
%TD*%
%TO.C,C8*%
G36*
G01*
X79437500Y-67656250D02*
X79437500Y-67093750D01*
G75*
G02*
X79681250Y-66850000I243750J0D01*
G01*
X80168750Y-66850000D01*
G75*
G02*
X80412500Y-67093750I0J-243750D01*
G01*
X80412500Y-67656250D01*
G75*
G02*
X80168750Y-67900000I-243750J0D01*
G01*
X79681250Y-67900000D01*
G75*
G02*
X79437500Y-67656250I0J243750D01*
G01*
G37*
G36*
G01*
X77862500Y-67656250D02*
X77862500Y-67093750D01*
G75*
G02*
X78106250Y-66850000I243750J0D01*
G01*
X78593750Y-66850000D01*
G75*
G02*
X78837500Y-67093750I0J-243750D01*
G01*
X78837500Y-67656250D01*
G75*
G02*
X78593750Y-67900000I-243750J0D01*
G01*
X78106250Y-67900000D01*
G75*
G02*
X77862500Y-67656250I0J243750D01*
G01*
G37*
%TD*%
%TO.C,C7*%
G36*
G01*
X70737500Y-68781250D02*
X70737500Y-68218750D01*
G75*
G02*
X70981250Y-67975000I243750J0D01*
G01*
X71468750Y-67975000D01*
G75*
G02*
X71712500Y-68218750I0J-243750D01*
G01*
X71712500Y-68781250D01*
G75*
G02*
X71468750Y-69025000I-243750J0D01*
G01*
X70981250Y-69025000D01*
G75*
G02*
X70737500Y-68781250I0J243750D01*
G01*
G37*
G36*
G01*
X69162500Y-68781250D02*
X69162500Y-68218750D01*
G75*
G02*
X69406250Y-67975000I243750J0D01*
G01*
X69893750Y-67975000D01*
G75*
G02*
X70137500Y-68218750I0J-243750D01*
G01*
X70137500Y-68781250D01*
G75*
G02*
X69893750Y-69025000I-243750J0D01*
G01*
X69406250Y-69025000D01*
G75*
G02*
X69162500Y-68781250I0J243750D01*
G01*
G37*
%TD*%
%TO.C,C6*%
G36*
G01*
X104037500Y-53881250D02*
X104037500Y-53318750D01*
G75*
G02*
X104281250Y-53075000I243750J0D01*
G01*
X104768750Y-53075000D01*
G75*
G02*
X105012500Y-53318750I0J-243750D01*
G01*
X105012500Y-53881250D01*
G75*
G02*
X104768750Y-54125000I-243750J0D01*
G01*
X104281250Y-54125000D01*
G75*
G02*
X104037500Y-53881250I0J243750D01*
G01*
G37*
G36*
G01*
X102462500Y-53881250D02*
X102462500Y-53318750D01*
G75*
G02*
X102706250Y-53075000I243750J0D01*
G01*
X103193750Y-53075000D01*
G75*
G02*
X103437500Y-53318750I0J-243750D01*
G01*
X103437500Y-53881250D01*
G75*
G02*
X103193750Y-54125000I-243750J0D01*
G01*
X102706250Y-54125000D01*
G75*
G02*
X102462500Y-53881250I0J243750D01*
G01*
G37*
%TD*%
%TO.C,C5*%
G36*
G01*
X96237500Y-54156250D02*
X96237500Y-53593750D01*
G75*
G02*
X96481250Y-53350000I243750J0D01*
G01*
X96968750Y-53350000D01*
G75*
G02*
X97212500Y-53593750I0J-243750D01*
G01*
X97212500Y-54156250D01*
G75*
G02*
X96968750Y-54400000I-243750J0D01*
G01*
X96481250Y-54400000D01*
G75*
G02*
X96237500Y-54156250I0J243750D01*
G01*
G37*
G36*
G01*
X94662500Y-54156250D02*
X94662500Y-53593750D01*
G75*
G02*
X94906250Y-53350000I243750J0D01*
G01*
X95393750Y-53350000D01*
G75*
G02*
X95637500Y-53593750I0J-243750D01*
G01*
X95637500Y-54156250D01*
G75*
G02*
X95393750Y-54400000I-243750J0D01*
G01*
X94906250Y-54400000D01*
G75*
G02*
X94662500Y-54156250I0J243750D01*
G01*
G37*
%TD*%
%TO.C,C4*%
G36*
G01*
X122818750Y-38187500D02*
X123381250Y-38187500D01*
G75*
G02*
X123625000Y-38431250I0J-243750D01*
G01*
X123625000Y-38918750D01*
G75*
G02*
X123381250Y-39162500I-243750J0D01*
G01*
X122818750Y-39162500D01*
G75*
G02*
X122575000Y-38918750I0J243750D01*
G01*
X122575000Y-38431250D01*
G75*
G02*
X122818750Y-38187500I243750J0D01*
G01*
G37*
G36*
G01*
X122818750Y-36612500D02*
X123381250Y-36612500D01*
G75*
G02*
X123625000Y-36856250I0J-243750D01*
G01*
X123625000Y-37343750D01*
G75*
G02*
X123381250Y-37587500I-243750J0D01*
G01*
X122818750Y-37587500D01*
G75*
G02*
X122575000Y-37343750I0J243750D01*
G01*
X122575000Y-36856250D01*
G75*
G02*
X122818750Y-36612500I243750J0D01*
G01*
G37*
%TD*%
%TO.C,C3*%
G36*
G01*
X108637500Y-40981250D02*
X108637500Y-40418750D01*
G75*
G02*
X108881250Y-40175000I243750J0D01*
G01*
X109368750Y-40175000D01*
G75*
G02*
X109612500Y-40418750I0J-243750D01*
G01*
X109612500Y-40981250D01*
G75*
G02*
X109368750Y-41225000I-243750J0D01*
G01*
X108881250Y-41225000D01*
G75*
G02*
X108637500Y-40981250I0J243750D01*
G01*
G37*
G36*
G01*
X107062500Y-40981250D02*
X107062500Y-40418750D01*
G75*
G02*
X107306250Y-40175000I243750J0D01*
G01*
X107793750Y-40175000D01*
G75*
G02*
X108037500Y-40418750I0J-243750D01*
G01*
X108037500Y-40981250D01*
G75*
G02*
X107793750Y-41225000I-243750J0D01*
G01*
X107306250Y-41225000D01*
G75*
G02*
X107062500Y-40981250I0J243750D01*
G01*
G37*
%TD*%
%TO.C,C2*%
G36*
G01*
X90768750Y-36862500D02*
X91331250Y-36862500D01*
G75*
G02*
X91575000Y-37106250I0J-243750D01*
G01*
X91575000Y-37593750D01*
G75*
G02*
X91331250Y-37837500I-243750J0D01*
G01*
X90768750Y-37837500D01*
G75*
G02*
X90525000Y-37593750I0J243750D01*
G01*
X90525000Y-37106250D01*
G75*
G02*
X90768750Y-36862500I243750J0D01*
G01*
G37*
G36*
G01*
X90768750Y-35287500D02*
X91331250Y-35287500D01*
G75*
G02*
X91575000Y-35531250I0J-243750D01*
G01*
X91575000Y-36018750D01*
G75*
G02*
X91331250Y-36262500I-243750J0D01*
G01*
X90768750Y-36262500D01*
G75*
G02*
X90525000Y-36018750I0J243750D01*
G01*
X90525000Y-35531250D01*
G75*
G02*
X90768750Y-35287500I243750J0D01*
G01*
G37*
%TD*%
D16*
%TO.C,D110*%
X107600000Y-32825000D03*
D17*
X107600000Y-30285000D03*
%TD*%
D14*
%TO.C,D40*%
X152174000Y-114554000D03*
X152174000Y-117754000D03*
X157074000Y-114554000D03*
X157074000Y-117754000D03*
%TD*%
%TO.C,D108*%
X118100000Y-67600000D03*
X118100000Y-70800000D03*
X123000000Y-67600000D03*
X123000000Y-70800000D03*
%TD*%
%TO.C,D107*%
X202923000Y-19202400D03*
X202923000Y-22402400D03*
X207823000Y-19202400D03*
X207823000Y-22402400D03*
%TD*%
%TO.C,D106*%
X217248000Y-26924400D03*
X217248000Y-30124400D03*
X222148000Y-26924400D03*
X222148000Y-30124400D03*
%TD*%
%TO.C,D105*%
X186616000Y-27432400D03*
X186616000Y-30632400D03*
X191516000Y-27432400D03*
X191516000Y-30632400D03*
%TD*%
%TO.C,D104*%
X179402000Y-27280000D03*
X179402000Y-30480000D03*
X184302000Y-27280000D03*
X184302000Y-30480000D03*
%TD*%
%TO.C,D103*%
X167922000Y-30632400D03*
X167922000Y-33832400D03*
X172822000Y-30632400D03*
X172822000Y-33832400D03*
%TD*%
%TO.C,D102*%
X226748000Y-49632000D03*
X226748000Y-52832000D03*
X231648000Y-49632000D03*
X231648000Y-52832000D03*
%TD*%
%TO.C,D101*%
X214833000Y-49377600D03*
X214833000Y-52577600D03*
X219733000Y-49377600D03*
X219733000Y-52577600D03*
%TD*%
%TO.C,D100*%
X195631000Y-48361600D03*
X195631000Y-51561600D03*
X200531000Y-48361600D03*
X200531000Y-51561600D03*
%TD*%
%TO.C,D99*%
X188671000Y-46736000D03*
X188671000Y-49936000D03*
X193571000Y-46736000D03*
X193571000Y-49936000D03*
%TD*%
%TO.C,D98*%
X176073000Y-46431200D03*
X176073000Y-49631200D03*
X180973000Y-46431200D03*
X180973000Y-49631200D03*
%TD*%
%TO.C,D97*%
X167894000Y-47244000D03*
X167894000Y-50444000D03*
X172794000Y-47244000D03*
X172794000Y-50444000D03*
%TD*%
%TO.C,D96*%
X224208000Y-58115200D03*
X224208000Y-61315200D03*
X229108000Y-58115200D03*
X229108000Y-61315200D03*
%TD*%
%TO.C,D95*%
X217502000Y-58166400D03*
X217502000Y-61366400D03*
X222402000Y-58166400D03*
X222402000Y-61366400D03*
%TD*%
%TO.C,D94*%
X186413000Y-58572800D03*
X186413000Y-61772800D03*
X191313000Y-58572800D03*
X191313000Y-61772800D03*
%TD*%
%TO.C,D93*%
X179199000Y-58623600D03*
X179199000Y-61823600D03*
X184099000Y-58623600D03*
X184099000Y-61823600D03*
%TD*%
%TO.C,D92*%
X227053000Y-82296400D03*
X227053000Y-85496400D03*
X231953000Y-82296400D03*
X231953000Y-85496400D03*
%TD*%
%TO.C,D91*%
X214681000Y-81686800D03*
X214681000Y-84886800D03*
X219581000Y-81686800D03*
X219581000Y-84886800D03*
%TD*%
%TO.C,D90*%
X188140000Y-81534400D03*
X188140000Y-84734400D03*
X193040000Y-81534400D03*
X193040000Y-84734400D03*
%TD*%
%TO.C,D89*%
X176761000Y-81128000D03*
X176761000Y-84328000D03*
X181661000Y-81128000D03*
X181661000Y-84328000D03*
%TD*%
%TO.C,D88*%
X227815000Y-90322400D03*
X227815000Y-93522400D03*
X232715000Y-90322400D03*
X232715000Y-93522400D03*
%TD*%
%TO.C,D87*%
X220410000Y-90246400D03*
X220410000Y-93446400D03*
X225310000Y-90246400D03*
X225310000Y-93446400D03*
%TD*%
%TO.C,D86*%
X213032000Y-90170400D03*
X213032000Y-93370400D03*
X217932000Y-90170400D03*
X217932000Y-93370400D03*
%TD*%
%TO.C,D85*%
X190477000Y-90017600D03*
X190477000Y-93217600D03*
X195377000Y-90017600D03*
X195377000Y-93217600D03*
%TD*%
%TO.C,D84*%
X183416000Y-90018000D03*
X183416000Y-93218000D03*
X188316000Y-90018000D03*
X188316000Y-93218000D03*
%TD*%
%TO.C,D83*%
X176456000Y-89966800D03*
X176456000Y-93166800D03*
X181356000Y-89966800D03*
X181356000Y-93166800D03*
%TD*%
%TO.C,D82*%
X226302000Y-113411000D03*
X226302000Y-116611000D03*
X231202000Y-113411000D03*
X231202000Y-116611000D03*
%TD*%
%TO.C,D81*%
X214517000Y-113360000D03*
X214517000Y-116560000D03*
X219417000Y-113360000D03*
X219417000Y-116560000D03*
%TD*%
%TO.C,D80*%
X189664000Y-113640000D03*
X189664000Y-116840000D03*
X194564000Y-113640000D03*
X194564000Y-116840000D03*
%TD*%
%TO.C,D79*%
X175948000Y-113538000D03*
X175948000Y-116738000D03*
X180848000Y-113538000D03*
X180848000Y-116738000D03*
%TD*%
%TO.C,D78*%
X224982000Y-121996000D03*
X224982000Y-125196000D03*
X229882000Y-121996000D03*
X229882000Y-125196000D03*
%TD*%
%TO.C,D77*%
X217362000Y-122047000D03*
X217362000Y-125247000D03*
X222262000Y-122047000D03*
X222262000Y-125247000D03*
%TD*%
%TO.C,D76*%
X185979000Y-121717000D03*
X185979000Y-124917000D03*
X190879000Y-121717000D03*
X190879000Y-124917000D03*
%TD*%
%TO.C,D75*%
X179121000Y-121616000D03*
X179121000Y-124816000D03*
X184021000Y-121616000D03*
X184021000Y-124816000D03*
%TD*%
%TO.C,D74*%
X227053000Y-145237000D03*
X227053000Y-148437000D03*
X231953000Y-145237000D03*
X231953000Y-148437000D03*
%TD*%
%TO.C,D73*%
X214607000Y-145136000D03*
X214607000Y-148336000D03*
X219507000Y-145136000D03*
X219507000Y-148336000D03*
%TD*%
%TO.C,D72*%
X188750000Y-144577000D03*
X188750000Y-147777000D03*
X193650000Y-144577000D03*
X193650000Y-147777000D03*
%TD*%
%TO.C,D71*%
X176428000Y-144882000D03*
X176428000Y-148082000D03*
X181328000Y-144882000D03*
X181328000Y-148082000D03*
%TD*%
%TO.C,D70*%
X159184000Y-141072000D03*
X159184000Y-144272000D03*
X164084000Y-141072000D03*
X164084000Y-144272000D03*
%TD*%
%TO.C,D69*%
X159336000Y-129794000D03*
X159336000Y-132994000D03*
X164236000Y-129794000D03*
X164236000Y-132994000D03*
%TD*%
%TO.C,D68*%
X159794000Y-118161000D03*
X159794000Y-121361000D03*
X164694000Y-118161000D03*
X164694000Y-121361000D03*
%TD*%
%TO.C,D67*%
X159641000Y-108204000D03*
X159641000Y-111404000D03*
X164541000Y-108204000D03*
X164541000Y-111404000D03*
%TD*%
%TO.C,D66*%
X159614000Y-95808800D03*
X159614000Y-99008800D03*
X164514000Y-95808800D03*
X164514000Y-99008800D03*
%TD*%
%TO.C,D65*%
X159410000Y-84328400D03*
X159410000Y-87528400D03*
X164310000Y-84328400D03*
X164310000Y-87528400D03*
%TD*%
%TO.C,D64*%
X159387000Y-73660000D03*
X159387000Y-76860000D03*
X164287000Y-73660000D03*
X164287000Y-76860000D03*
%TD*%
%TO.C,D63*%
X158727000Y-63398400D03*
X158727000Y-66598400D03*
X163627000Y-63398400D03*
X163627000Y-66598400D03*
%TD*%
%TO.C,D62*%
X158828000Y-52019200D03*
X158828000Y-55219200D03*
X163728000Y-52019200D03*
X163728000Y-55219200D03*
%TD*%
%TO.C,D61*%
X158801000Y-40487600D03*
X158801000Y-43687600D03*
X163701000Y-40487600D03*
X163701000Y-43687600D03*
%TD*%
%TO.C,D60*%
X158778000Y-29311600D03*
X158778000Y-32511600D03*
X163678000Y-29311600D03*
X163678000Y-32511600D03*
%TD*%
%TO.C,D59*%
X161826000Y-20574000D03*
X161826000Y-23774000D03*
X166726000Y-20574000D03*
X166726000Y-23774000D03*
%TD*%
%TO.C,D58*%
X148082000Y-145745000D03*
X148082000Y-148945000D03*
X152982000Y-145745000D03*
X152982000Y-148945000D03*
%TD*%
%TO.C,D57*%
X140716000Y-145745000D03*
X140716000Y-148945000D03*
X145616000Y-145745000D03*
X145616000Y-148945000D03*
%TD*%
%TO.C,D56*%
X112206000Y-154762000D03*
X112206000Y-157962000D03*
X117106000Y-154762000D03*
X117106000Y-157962000D03*
%TD*%
%TO.C,D55*%
X112206000Y-146025000D03*
X112206000Y-149225000D03*
X117106000Y-146025000D03*
X117106000Y-149225000D03*
%TD*%
%TO.C,D54*%
X83413600Y-145847000D03*
X83413600Y-149047000D03*
X88313600Y-145847000D03*
X88313600Y-149047000D03*
%TD*%
%TO.C,D53*%
X76200000Y-145796000D03*
X76200000Y-148996000D03*
X81100000Y-145796000D03*
X81100000Y-148996000D03*
%TD*%
%TO.C,D52*%
X126289000Y-134518000D03*
X126289000Y-137718000D03*
X131189000Y-134518000D03*
X131189000Y-137718000D03*
%TD*%
%TO.C,D51*%
X98755000Y-134925000D03*
X98755000Y-138125000D03*
X103655000Y-134925000D03*
X103655000Y-138125000D03*
%TD*%
%TO.C,D50*%
X91998800Y-134976000D03*
X91998800Y-138176000D03*
X96898800Y-134976000D03*
X96898800Y-138176000D03*
%TD*%
%TO.C,D49*%
X151079000Y-121564000D03*
X151079000Y-124764000D03*
X155979000Y-121564000D03*
X155979000Y-124764000D03*
%TD*%
%TO.C,D48*%
X144475000Y-122733000D03*
X144475000Y-125933000D03*
X149375000Y-122733000D03*
X149375000Y-125933000D03*
%TD*%
%TO.C,D47*%
X137617000Y-121361000D03*
X137617000Y-124561000D03*
X142517000Y-121361000D03*
X142517000Y-124561000D03*
%TD*%
%TO.C,D46*%
X119482000Y-123749000D03*
X119482000Y-126949000D03*
X124382000Y-123749000D03*
X124382000Y-126949000D03*
%TD*%
%TO.C,D45*%
X112217000Y-122682000D03*
X112217000Y-125882000D03*
X117117000Y-122682000D03*
X117117000Y-125882000D03*
%TD*%
%TO.C,D44*%
X105125000Y-123500000D03*
X105125000Y-126700000D03*
X110025000Y-123500000D03*
X110025000Y-126700000D03*
%TD*%
%TO.C,D43*%
X87325200Y-122225000D03*
X87325200Y-125425000D03*
X92225200Y-122225000D03*
X92225200Y-125425000D03*
%TD*%
%TO.C,D42*%
X79502000Y-123292000D03*
X79502000Y-126492000D03*
X84402000Y-123292000D03*
X84402000Y-126492000D03*
%TD*%
%TO.C,D41*%
X72339200Y-121006000D03*
X72339200Y-124206000D03*
X77239200Y-121006000D03*
X77239200Y-124206000D03*
%TD*%
%TO.C,D39*%
X143080000Y-114910000D03*
X143080000Y-118110000D03*
X147980000Y-114910000D03*
X147980000Y-118110000D03*
%TD*%
%TO.C,D38*%
X133491000Y-114529000D03*
X133491000Y-117729000D03*
X138391000Y-114529000D03*
X138391000Y-117729000D03*
%TD*%
%TO.C,D37*%
X121948000Y-115722000D03*
X121948000Y-118922000D03*
X126848000Y-115722000D03*
X126848000Y-118922000D03*
%TD*%
%TO.C,D36*%
X112217000Y-115976000D03*
X112217000Y-119176000D03*
X117117000Y-115976000D03*
X117117000Y-119176000D03*
%TD*%
%TO.C,D35*%
X102870000Y-115926000D03*
X102870000Y-119126000D03*
X107770000Y-115926000D03*
X107770000Y-119126000D03*
%TD*%
%TO.C,D34*%
X89943600Y-115316000D03*
X89943600Y-118516000D03*
X94843600Y-115316000D03*
X94843600Y-118516000D03*
%TD*%
%TO.C,D33*%
X80060800Y-115824000D03*
X80060800Y-119024000D03*
X84960800Y-115824000D03*
X84960800Y-119024000D03*
%TD*%
%TO.C,D32*%
X70741200Y-114503000D03*
X70741200Y-117703000D03*
X75641200Y-114503000D03*
X75641200Y-117703000D03*
%TD*%
%TO.C,D31*%
X144870000Y-100864000D03*
X144870000Y-104064000D03*
X149770000Y-100864000D03*
X149770000Y-104064000D03*
%TD*%
%TO.C,D30*%
X144678000Y-78740000D03*
X144678000Y-81940000D03*
X149578000Y-78740000D03*
X149578000Y-81940000D03*
%TD*%
%TO.C,D29*%
X80252400Y-78968800D03*
X80252400Y-82168800D03*
X85152400Y-78968800D03*
X85152400Y-82168800D03*
%TD*%
%TO.C,D28*%
X73128800Y-86106000D03*
X73128800Y-89306000D03*
X78028800Y-86106000D03*
X78028800Y-89306000D03*
%TD*%
%TO.C,D27*%
X76634000Y-94488400D03*
X76634000Y-97688400D03*
X81534000Y-94488400D03*
X81534000Y-97688400D03*
%TD*%
%TO.C,D26*%
X80240800Y-102311000D03*
X80240800Y-105511000D03*
X85140800Y-102311000D03*
X85140800Y-105511000D03*
%TD*%
%TO.C,D25*%
X86856400Y-100711000D03*
X86856400Y-103911000D03*
X91756400Y-100711000D03*
X91756400Y-103911000D03*
%TD*%
%TO.C,D24*%
X106426000Y-102006000D03*
X106426000Y-105206000D03*
X111326000Y-102006000D03*
X111326000Y-105206000D03*
%TD*%
%TO.C,D23*%
X108915000Y-95148400D03*
X108915000Y-98348400D03*
X113815000Y-95148400D03*
X113815000Y-98348400D03*
%TD*%
%TO.C,D22*%
X108661000Y-86461600D03*
X108661000Y-89661600D03*
X113561000Y-86461600D03*
X113561000Y-89661600D03*
%TD*%
%TO.C,D21*%
X103683000Y-78333600D03*
X103683000Y-81533600D03*
X108583000Y-78333600D03*
X108583000Y-81533600D03*
%TD*%
%TO.C,D20*%
X96367600Y-74828800D03*
X96367600Y-78028800D03*
X101267600Y-74828800D03*
X101267600Y-78028800D03*
%TD*%
%TO.C,D19*%
X87630000Y-74726800D03*
X87630000Y-77926800D03*
X92530000Y-74726800D03*
X92530000Y-77926800D03*
%TD*%
%TO.C,D18*%
X98196000Y-67564000D03*
X98196000Y-70764000D03*
X103096000Y-67564000D03*
X103096000Y-70764000D03*
%TD*%
%TO.C,D17*%
X91326800Y-67538800D03*
X91326800Y-70738800D03*
X96226800Y-67538800D03*
X96226800Y-70738800D03*
%TD*%
%TO.C,D16*%
X84558800Y-67614800D03*
X84558800Y-70814800D03*
X89458800Y-67614800D03*
X89458800Y-70814800D03*
%TD*%
%TO.C,D15*%
X147359000Y-63474800D03*
X147359000Y-66674800D03*
X152259000Y-63474800D03*
X152259000Y-66674800D03*
%TD*%
%TO.C,D14*%
X136804000Y-63347600D03*
X136804000Y-66547600D03*
X141704000Y-63347600D03*
X141704000Y-66547600D03*
%TD*%
%TO.C,D13*%
X126797000Y-63398400D03*
X126797000Y-66598400D03*
X131697000Y-63398400D03*
X131697000Y-66598400D03*
%TD*%
%TO.C,D12*%
X119357000Y-60756800D03*
X119357000Y-63956800D03*
X124257000Y-60756800D03*
X124257000Y-63956800D03*
%TD*%
%TO.C,D11*%
X112370000Y-60655200D03*
X112370000Y-63855200D03*
X117270000Y-60655200D03*
X117270000Y-63855200D03*
%TD*%
%TO.C,D10*%
X105144000Y-60630000D03*
X105144000Y-63830000D03*
X110044000Y-60630000D03*
X110044000Y-63830000D03*
%TD*%
%TO.C,D9*%
X83058000Y-60960000D03*
X83058000Y-64160000D03*
X87958000Y-60960000D03*
X87958000Y-64160000D03*
%TD*%
%TO.C,D8*%
X75031600Y-62179600D03*
X75031600Y-65379600D03*
X79931600Y-62179600D03*
X79931600Y-65379600D03*
%TD*%
%TO.C,D7*%
X66321600Y-63195200D03*
X66321600Y-66395200D03*
X71221600Y-63195200D03*
X71221600Y-66395200D03*
%TD*%
%TO.C,D6*%
X99646000Y-48310800D03*
X99646000Y-51510800D03*
X104546000Y-48310800D03*
X104546000Y-51510800D03*
%TD*%
%TO.C,D5*%
X91874000Y-48666400D03*
X91874000Y-51866400D03*
X96774000Y-48666400D03*
X96774000Y-51866400D03*
%TD*%
%TO.C,D4*%
X116207000Y-35458800D03*
X116207000Y-38658800D03*
X121107000Y-35458800D03*
X121107000Y-38658800D03*
%TD*%
%TO.C,D3*%
X107696000Y-35509200D03*
X107696000Y-38709200D03*
X112596000Y-35509200D03*
X112596000Y-38709200D03*
%TD*%
%TO.C,D2*%
X84328000Y-35966800D03*
X84328000Y-39166800D03*
X89228000Y-35966800D03*
X89228000Y-39166800D03*
%TD*%
%TO.C,D1*%
X76227600Y-36017600D03*
X76227600Y-39217600D03*
X81127600Y-36017600D03*
X81127600Y-39217600D03*
%TD*%
M02*
