<?xml version="1.0" encoding="utf-8"?>
<!-- Generator: Fusion 360, Shaper Origin Export Add-In, Version 1.7.0  -->
<svg xmlns="http://www.w3.org/2000/svg" xmlns:xlink="http://www.w3.org/1999/xlink" xmlns:shaper="http://www.shapertools.com/namespaces/shaper" shaper:fusionaddin="version:1.7.0" width="17.30375cm" height="11.43cm" version="1.1" x="0cm" y="0cm" viewBox="0 0 17.30375 11.43" enable-background="new 0 0 17.30375 11.43" xml:space="preserve"><path d="M-8.0678241,-10.5572425 L8.7279259,-10.5572425 A0.254,0.254 270 0,1 8.9819259,-10.3032425 L8.9819259,0.6187575 A0.254,0.254 0 0,1 8.7279259,0.8727575 L-8.0678241,0.8727575 A0.254,0.254 90 0,1 -8.3218241,0.6187575 L-8.3218241,-10.3032425 A0.254,0.254 180 0,1 -8.0678241,-10.5572425z" transform="matrix(1,0,0,-1,8.3218241,0.8727575)" fill="rgb(0,0,0)" shaper:cutDepth="0.3175cm" stroke-linecap="round" stroke-linejoin="round" /><path d="M8.1881759,-8.9443425 L8.0823222,-8.9443425 A0.3175,0.3175 90 0,1 7.8073592,-9.1030925 A0.3175,0.3175 330 0,0 7.5323961,-9.2618425 L7.0769259,-9.2618425 A0.3175,0.3175 90 0,1 6.7594259,-9.5793425 L6.7594259,-9.6047425 A0.3175,0.3175 0 0,0 6.4419259,-9.9222425 L0.6070417,-9.9222425 A0.3175,0.3175 270 0,0 0.2996236,-9.6841175 A0.3175,0.3175 14.4775122 0,1 -0.0077944,-9.4459925 L-0.680713,-9.4459925 A0.3175,0.3175 90 0,1 -0.9881311,-9.6841175 A0.3175,0.3175 345.5224878 0,0 -1.2955491,-9.9222425 L-6.0993241,-9.9222425 A0.3175,0.3175 270 0,0 -6.4168082,-9.6079175 A0.3175,0.3175 0.5729673 0,1 -6.7342924,-9.2935925 L-6.7956165,-9.2935925 A0.3175,0.3175 270 0,0 -7.0723883,-9.1316675 A0.3175,0.3175 29.3405816 0,1 -7.3491602,-8.9697425 L-7.8818931,-8.9697425 A0.079375,0.079375 270 0,0 -7.9612681,-8.8903675 L-7.9612681,-8.2846975 A0.079375,0.079375 180 0,0 -7.8875461,-8.205524 A0.079375,0.079375 274.0839997 0,1 -7.8138241,-8.1263506 L-7.8138241,-5.5978925 A0.3175,0.3175 180 0,0 -7.4963241,-5.2803925 L-7.3216991,-5.2803925 A0.3175,0.3175 270 0,1 -7.0041991,-4.9628925 L-7.0041991,-4.7612165 A0.3175,0.3175 0 0,1 -7.3216991,-4.4437165 L-7.6042741,-4.4437165 A0.3175,0.3175 270 0,0 -7.9217741,-4.1262165 L-7.9217741,-0.0797425 A0.3175,0.3175 180 0,0 -7.6042741,0.2377575 L-1.2955491,0.2377575 A0.3175,0.3175 90 0,0 -0.9881311,-0.0003675 A0.3175,0.3175 194.4775122 0,1 -0.680713,-0.2384925 L-0.0053852,-0.2384925 A0.3175,0.3175 270 0,1 0.3020328,-0.0003675 A0.3175,0.3175 165.5224878 0,0 0.6094509,0.2377575 L1.3564015,0.2377575 A0.079375,0.079375 270 0,1 1.4351692,0.3073325 A0.079375,0.079375 172.9079049 0,0 1.5139369,0.3769075 L1.8326515,0.3769075 A0.079375,0.079375 90 0,0 1.9114192,0.3073325 A0.079375,0.079375 187.0920951 0,1 1.9901869,0.2377575 L2.2216998,0.2377575 A0.3175,0.3175 270 0,1 2.4966628,0.3965075 A0.3175,0.3175 150 0,0 2.7716259,0.5552575 L4.9433259,0.5552575 A0.3175,0.3175 90 0,0 5.2507439,0.3171325 A0.3175,0.3175 194.4775122 0,1 5.558162,0.0790075 L8.1881759,0.0790075 A0.3175,0.3175 90 0,0 8.5056759,-0.2384925 L8.5056759,-2.9378225 A0.079375,0.079375 180 0,1 8.5850509,-3.0171975 A0.079375,0.079375 90 0,0 8.6644259,-3.0965725 L8.6644259,-3.4140725 A0.079375,0.079375 0 0,0 8.5850509,-3.4934475 A0.079375,0.079375 90 0,1 8.5056759,-3.5728225 L8.5056759,-4.0500165 A0.3175,0.3175 0 0,0 8.2405634,-4.3631647 A0.3175,0.3175 99.4972345 0,1 7.9754509,-4.6763129 L7.9754509,-4.9381358 A0.3175,0.3175 180 0,1 8.2786634,-5.2553141 A0.3175,0.3175 87.4208189 0,0 8.5818759,-5.5724925 L8.5818759,-5.8406866 A0.3175,0.3175 180 0,1 8.5850509,-5.8854755 A0.3175,0.3175 8.1096145 0,0 8.5882259,-5.9302644 L8.5882259,-6.5438854 A0.3175,0.3175 0 0,0 8.5469509,-6.7004293 A0.3175,0.3175 150.4586395 0,1 8.5056759,-6.8569732 L8.5056759,-8.6268425 A0.3175,0.3175 0 0,0 8.1881759,-8.9443425z" transform="matrix(1,0,0,-1,8.3218241,0.8727575)" fill="rgb(255,255,255)" stroke="rgb(0,0,0)" stroke-width="0.0010cm" stroke-linecap="round" stroke-linejoin="round" shaper:cutDepth="0.3175cm" /><path d="M-7.7931231,-9.9222425 a0.357124,0.357124 0 1,1 0.714248,0 a0.357124,0.357124 0 1,1 -0.714248,0z" transform="matrix(1,0,0,-1,8.3218241,0.8727575)" fill="rgb(255,255,255)" stroke="rgb(0,0,0)" stroke-width="0.0010cm" stroke-linecap="round" stroke-linejoin="round" shaper:cutDepth="0.3175cm" /><path d="M-8.0684591,-4.8041425 a0.27051,0.27051 0 1,1 0.54102,0 a0.27051,0.27051 0 1,1 -0.54102,0z" transform="matrix(1,0,0,-1,8.3218241,0.8727575)" fill="rgb(255,255,255)" stroke="rgb(0,0,0)" stroke-width="0.0010cm" stroke-linecap="round" stroke-linejoin="round" shaper:cutDepth="0.3175cm" /><path d="M-0.6135591,0.2377575 a0.27051,0.27051 0 1,1 0.54102,0 a0.27051,0.27051 0 1,1 -0.54102,0z" transform="matrix(1,0,0,-1,8.3218241,0.8727575)" fill="rgb(255,255,255)" stroke="rgb(0,0,0)" stroke-width="0.0010cm" stroke-linecap="round" stroke-linejoin="round" shaper:cutDepth="0.3175cm" /><path d="M-0.6135591,-9.9222425 a0.27051,0.27051 0 1,1 0.54102,0 a0.27051,0.27051 0 1,1 -0.54102,0z" transform="matrix(1,0,0,-1,8.3218241,0.8727575)" fill="rgb(255,255,255)" stroke="rgb(0,0,0)" stroke-width="0.0010cm" stroke-linecap="round" stroke-linejoin="round" shaper:cutDepth="0.3175cm" /><path d="M7.7389769,-9.9222425 a0.357124,0.357124 0 1,1 0.714248,0 a0.357124,0.357124 0 1,1 -0.714248,0z" transform="matrix(1,0,0,-1,8.3218241,0.8727575)" fill="rgb(255,255,255)" stroke="rgb(0,0,0)" stroke-width="0.0010cm" stroke-linecap="round" stroke-linejoin="round" shaper:cutDepth="0.3175cm" /><path d="M8.1875409,-4.8041425 a0.27051,0.27051 0 1,1 0.54102,0 a0.27051,0.27051 0 1,1 -0.54102,0z" transform="matrix(1,0,0,-1,8.3218241,0.8727575)" fill="rgb(255,255,255)" stroke="rgb(0,0,0)" stroke-width="0.0010cm" stroke-linecap="round" stroke-linejoin="round" shaper:cutDepth="0.3175cm" /></svg>