<?xml version="1.0" encoding="utf-8"?>
<!-- Generator: Fusion 360, Shaper Origin Export Add-In, Version 1.7.0  -->
<svg xmlns="http://www.w3.org/2000/svg" xmlns:xlink="http://www.w3.org/1999/xlink" xmlns:shaper="http://www.shapertools.com/namespaces/shaper" shaper:fusionaddin="version:1.7.0" width="17.30375cm" height="11.43cm" version="1.1" x="0cm" y="0cm" viewBox="0 0 17.30375 11.43" enable-background="new 0 0 17.30375 11.43" xml:space="preserve"><path d="M7.493,4.60375 A0.508,0.508 270 0,0 6.985,5.11175 L6.985,5.715 -6.985,5.715 -6.985,5.11175 A0.508,0.508 0 0,0 -7.493,4.60375 L-8.651875,4.60375 -8.651875,-5.715 8.651875,-5.715 8.651875,4.60375 7.493,4.60375z" transform="matrix(1,0,0,-1,8.651875,5.715)" fill="rgb(0,0,0)" shaper:cutDepth="0.47625cm" stroke-linecap="round" stroke-linejoin="round" /><path d="M-6.6449678,-3.06375 A0.13335,0.13335 0 0,1 -6.7783178,-2.9304 L-7.1212178,-2.9304 -7.1212178,-3.07975 -7.6084252,-3.07975 -7.6084252,-2.9304 -7.9513252,-2.9304 A0.13335,0.13335 90 0,1 -8.0846752,-3.06375 L-8.0846752,-3.0811927 A0.15875,0.15875 97.7303824 0,1 -8.2220715,-3.2385 L-8.2220715,-4.7752 A0.15875,0.15875 180 0,1 -8.0846752,-4.9325073 L-8.0846752,-4.94995 A0.13335,0.13335 180 0,1 -7.9513252,-5.0833 L-7.6084252,-5.0833 -7.6084252,-4.93395 -7.1212178,-4.93395 -7.1212178,-5.0833 -6.7783178,-5.0833 A0.13335,0.13335 270 0,1 -6.6449678,-4.94995 L-6.6449678,-4.9325073 A0.15875,0.15875 277.7303824 0,1 -6.5075715,-4.7752 L-6.5075715,-3.2381626 A0.16002,0.16002 0 0,1 -6.6449678,-3.07975 L-6.6449678,-3.06375z" transform="matrix(1,0,0,-1,8.651875,5.715)" fill="rgb(255,255,255)" stroke="rgb(0,0,0)" stroke-width="0.0010cm" stroke-linecap="round" stroke-linejoin="round" shaper:cutDepth="0.47625cm" /><path d="M8.0811075,-3.222545 A0.15875,0.15875 82.2696176 0,0 8.2185037,-3.3798522 L8.2185037,-4.7768522 A0.15875,0.15875 0 0,0 8.0811075,-4.9341595 L8.0811075,-4.9516022 A0.13335,0.13335 0 0,0 7.9477575,-5.0849522 L7.6048575,-5.0849522 7.6048575,-4.9356022 7.11765,-4.9356022 7.11765,-5.0849522 6.77475,-5.0849522 A0.13335,0.13335 270 0,0 6.6414,-4.9516022 L6.6414,-4.9341595 A0.15875,0.15875 262.2696176 0,0 6.5040037,-4.7768522 L6.5040037,-3.3798522 A0.15875,0.15875 180 0,0 6.6414,-3.222545 L6.6414,-3.2051022 A0.13335,0.13335 180 0,0 6.77475,-3.0717522 L7.11765,-3.0717522 7.11765,-3.2211022 7.6048575,-3.2211022 7.6048575,-3.0717522 7.9477575,-3.0717522 A0.13335,0.13335 90 0,0 8.0811075,-3.2051022 L8.0811075,-3.222545z" transform="matrix(1,0,0,-1,8.651875,5.715)" fill="rgb(255,255,255)" stroke="rgb(0,0,0)" stroke-width="0.0010cm" stroke-linecap="round" stroke-linejoin="round" shaper:cutDepth="0.47625cm" /><path d="M-4.41325,-4.3815 A0.15875,0.15875 0 0,0 -4.572,-4.54025 L-5.71373,-4.54025 A0.16002,0.16002 270 0,0 -5.87375,-4.38023 L-5.87375,-3.23977 A0.16002,0.16002 180 0,0 -5.71373,-3.07975 L-4.572,-3.07975 A0.15875,0.15875 90 0,0 -4.41325,-3.2385 L-4.41325,-4.3815z" transform="matrix(1,0,0,-1,8.651875,5.715)" fill="rgb(255,255,255)" stroke="rgb(0,0,0)" stroke-width="0.0010cm" stroke-linecap="round" stroke-linejoin="round" shaper:cutDepth="0.47625cm" /><path d="M-8.0645,3.429 a0.5715,0.5715 0 1,1 1.143,0 a0.5715,0.5715 0 1,1 -1.143,0z" transform="matrix(1,0,0,-1,8.651875,5.715)" fill="rgb(255,255,255)" stroke="rgb(0,0,0)" stroke-width="0.0010cm" stroke-linecap="round" stroke-linejoin="round" shaper:cutDepth="0.47625cm" /><path d="M6.253,-4.96995 A0.15875,0.15875 0 0,0 6.09425,-5.1287 L5.839639,-5.1287 A0.2577446,0.2577446 18.2789585 1,0 5.350161,-5.1287 L2.537639,-5.1287 A0.2577446,0.2577446 18.2789585 1,0 2.048161,-5.1287 L1.79355,-5.1287 A0.15875,0.15875 270 0,0 1.6348,-4.96995 L1.6348,4.94455 A0.15875,0.15875 180 0,0 1.79355,5.1033 L2.048161,5.1033 A0.2577446,0.2577446 198.2789585 1,0 2.537639,5.1033 L5.350161,5.1033 A0.2577446,0.2577446 198.2789585 1,0 5.839639,5.1033 L6.09425,5.1033 A0.15875,0.15875 90 0,0 6.253,4.94455 L6.253,-4.96995z" transform="matrix(1,0,0,-1,8.651875,5.715)" fill="rgb(255,255,255)" stroke="rgb(0,0,0)" stroke-width="0.0010cm" stroke-linecap="round" stroke-linejoin="round" shaper:cutDepth="0.47625cm" /><path d="M6.905625,-1.11125 a0.396875,0.396875 0 1,1 0.79375,0 a0.396875,0.396875 0 1,1 -0.79375,0z" transform="matrix(1,0,0,-1,8.651875,5.715)" fill="rgb(255,255,255)" stroke="rgb(0,0,0)" stroke-width="0.0010cm" stroke-linecap="round" stroke-linejoin="round" shaper:cutDepth="0.47625cm" /><path d="M6.905625,3.39725 a0.396875,0.396875 0 1,1 0.79375,0 a0.396875,0.396875 0 1,1 -0.79375,0z" transform="matrix(1,0,0,-1,8.651875,5.715)" fill="rgb(255,255,255)" stroke="rgb(0,0,0)" stroke-width="0.0010cm" stroke-linecap="round" stroke-linejoin="round" shaper:cutDepth="0.47625cm" /><path d="M-7.826375,-1.11125 a0.396875,0.396875 0 1,1 0.79375,0 a0.396875,0.396875 0 1,1 -0.79375,0z" transform="matrix(1,0,0,-1,8.651875,5.715)" fill="rgb(255,255,255)" stroke="rgb(0,0,0)" stroke-width="0.0010cm" stroke-linecap="round" stroke-linejoin="round" shaper:cutDepth="0.47625cm" /><path d="M-7.915275,1.397 a0.396875,0.396875 0 1,1 0.79375,0 a0.396875,0.396875 0 1,1 -0.79375,0z" transform="matrix(1,0,0,-1,8.651875,5.715)" fill="rgb(255,255,255)" stroke="rgb(0,0,0)" stroke-width="0.0010cm" stroke-linecap="round" stroke-linejoin="round" shaper:cutDepth="0.47625cm" /><path d="M0.457835,-5.08 a0.215265,0.215265 0 1,1 0.43053,0 a0.215265,0.215265 0 1,1 -0.43053,0z" transform="matrix(1,0,0,-1,8.651875,5.715)" fill="rgb(255,255,255)" stroke="rgb(0,0,0)" stroke-width="0.0010cm" stroke-linecap="round" stroke-linejoin="round" shaper:cutDepth="0.47625cm" /><path d="M7.912735,-0.0381 a0.215265,0.215265 0 1,1 0.43053,0 a0.215265,0.215265 0 1,1 -0.43053,0z" transform="matrix(1,0,0,-1,8.651875,5.715)" fill="rgb(255,255,255)" stroke="rgb(0,0,0)" stroke-width="0.0010cm" stroke-linecap="round" stroke-linejoin="round" shaper:cutDepth="0.47625cm" /><path d="M-8.343265,-0.0381 a0.215265,0.215265 0 1,1 0.43053,0 a0.215265,0.215265 0 1,1 -0.43053,0z" transform="matrix(1,0,0,-1,8.651875,5.715)" fill="rgb(255,255,255)" stroke="rgb(0,0,0)" stroke-width="0.0010cm" stroke-linecap="round" stroke-linejoin="round" shaper:cutDepth="0.47625cm" /><path d="M-4.41325,1.2573 A0.15875,0.15875 0 0,0 -4.572,1.09855 L-5.715,1.09855 A0.15875,0.15875 270 0,0 -5.87375,1.2573 L-5.87375,2.4003 A0.15875,0.15875 180 0,0 -5.715,2.55905 L-4.572,2.55905 A0.15875,0.15875 90 0,0 -4.41325,2.4003 L-4.41325,1.2573z" transform="matrix(1,0,0,-1,8.651875,5.715)" fill="rgb(255,255,255)" stroke="rgb(0,0,0)" stroke-width="0.0010cm" stroke-linecap="round" stroke-linejoin="round" shaper:cutDepth="0.47625cm" /><path d="M0.1016,4.064 a0.5715,0.5715 0 1,1 1.143,0 a0.5715,0.5715 0 1,1 -1.143,0z" transform="matrix(1,0,0,-1,8.651875,5.715)" fill="rgb(255,255,255)" stroke="rgb(0,0,0)" stroke-width="0.0010cm" stroke-linecap="round" stroke-linejoin="round" shaper:cutDepth="0.47625cm" /><path d="M0.1016,2.032 a0.5715,0.5715 0 1,1 1.143,0 a0.5715,0.5715 0 1,1 -1.143,0z" transform="matrix(1,0,0,-1,8.651875,5.715)" fill="rgb(255,255,255)" stroke="rgb(0,0,0)" stroke-width="0.0010cm" stroke-linecap="round" stroke-linejoin="round" shaper:cutDepth="0.47625cm" /><path d="M0.1016,0 a0.5715,0.5715 0 1,1 1.143,0 a0.5715,0.5715 0 1,1 -1.143,0z" transform="matrix(1,0,0,-1,8.651875,5.715)" fill="rgb(255,255,255)" stroke="rgb(0,0,0)" stroke-width="0.0010cm" stroke-linecap="round" stroke-linejoin="round" shaper:cutDepth="0.47625cm" /><path d="M7.9375,2.12725 A0.15875,0.15875 90 0,0 8.09625,1.9685 L8.09625,0.8255 A0.15875,0.15875 0 0,0 7.9375,0.66675 L6.7945,0.66675 A0.15875,0.15875 270 0,0 6.63575,0.8255 L6.63575,1.9685 A0.15875,0.15875 180 0,0 6.7945,2.12725 L7.9375,2.12725z" transform="matrix(1,0,0,-1,8.651875,5.715)" fill="rgb(255,255,255)" stroke="rgb(0,0,0)" stroke-width="0.0010cm" stroke-linecap="round" stroke-linejoin="round" shaper:cutDepth="0.47625cm" /><path d="M-2.53365,1.2573 A0.15875,0.15875 0 0,0 -2.6924,1.09855 L-3.8354,1.09855 A0.15875,0.15875 270 0,0 -3.99415,1.2573 L-3.99415,2.4003 A0.15875,0.15875 180 0,0 -3.8354,2.55905 L-2.6924,2.55905 A0.15875,0.15875 90 0,0 -2.53365,2.4003 L-2.53365,1.2573z" transform="matrix(1,0,0,-1,8.651875,5.715)" fill="rgb(255,255,255)" stroke="rgb(0,0,0)" stroke-width="0.0010cm" stroke-linecap="round" stroke-linejoin="round" shaper:cutDepth="0.47625cm" /><path d="M-2.53365,-0.6223 A0.15875,0.15875 0 0,0 -2.6924,-0.78105 L-3.8354,-0.78105 A0.15875,0.15875 270 0,0 -3.99415,-0.6223 L-3.99415,0.5207 A0.15875,0.15875 180 0,0 -3.8354,0.67945 L-2.6924,0.67945 A0.15875,0.15875 90 0,0 -2.53365,0.5207 L-2.53365,-0.6223z" transform="matrix(1,0,0,-1,8.651875,5.715)" fill="rgb(255,255,255)" stroke="rgb(0,0,0)" stroke-width="0.0010cm" stroke-linecap="round" stroke-linejoin="round" shaper:cutDepth="0.47625cm" /><path d="M-2.53365,-2.5019 A0.15875,0.15875 0 0,0 -2.6924,-2.66065 L-3.8354,-2.66065 A0.15875,0.15875 270 0,0 -3.99415,-2.5019 L-3.99415,-1.3589 A0.15875,0.15875 180 0,0 -3.8354,-1.20015 L-2.6924,-1.20015 A0.15875,0.15875 90 0,0 -2.53365,-1.3589 L-2.53365,-2.5019z" transform="matrix(1,0,0,-1,8.651875,5.715)" fill="rgb(255,255,255)" stroke="rgb(0,0,0)" stroke-width="0.0010cm" stroke-linecap="round" stroke-linejoin="round" shaper:cutDepth="0.47625cm" /><path d="M-2.53365,-4.3815 A0.15875,0.15875 0 0,0 -2.6924,-4.54025 L-3.8354,-4.54025 A0.15875,0.15875 270 0,0 -3.99415,-4.3815 L-3.99415,-3.2385 A0.15875,0.15875 180 0,0 -3.8354,-3.07975 L-2.6924,-3.07975 A0.15875,0.15875 90 0,0 -2.53365,-3.2385 L-2.53365,-4.3815z" transform="matrix(1,0,0,-1,8.651875,5.715)" fill="rgb(255,255,255)" stroke="rgb(0,0,0)" stroke-width="0.0010cm" stroke-linecap="round" stroke-linejoin="round" shaper:cutDepth="0.47625cm" /><path d="M-4.41325,-2.5019 A0.15875,0.15875 0 0,0 -4.572,-2.66065 L-5.715,-2.66065 A0.15875,0.15875 270 0,0 -5.87375,-2.5019 L-5.87375,-1.3589 A0.15875,0.15875 180 0,0 -5.715,-1.20015 L-4.572,-1.20015 A0.15875,0.15875 90 0,0 -4.41325,-1.3589 L-4.41325,-2.5019z" transform="matrix(1,0,0,-1,8.651875,5.715)" fill="rgb(255,255,255)" stroke="rgb(0,0,0)" stroke-width="0.0010cm" stroke-linecap="round" stroke-linejoin="round" shaper:cutDepth="0.47625cm" /><path d="M-4.41325,-0.6223 A0.15875,0.15875 0 0,0 -4.572,-0.78105 L-5.715,-0.78105 A0.15875,0.15875 270 0,0 -5.87375,-0.6223 L-5.87375,0.5207 A0.15875,0.15875 180 0,0 -5.715,0.67945 L-4.572,0.67945 A0.15875,0.15875 90 0,0 -4.41325,0.5207 L-4.41325,-0.6223z" transform="matrix(1,0,0,-1,8.651875,5.715)" fill="rgb(255,255,255)" stroke="rgb(0,0,0)" stroke-width="0.0010cm" stroke-linecap="round" stroke-linejoin="round" shaper:cutDepth="0.47625cm" /><path d="M-0.65405,-4.3815 A0.15875,0.15875 0 0,0 -0.8128,-4.54025 L-1.9558,-4.54025 A0.15875,0.15875 270 0,0 -2.11455,-4.3815 L-2.11455,-3.2385 A0.15875,0.15875 180 0,0 -1.9558,-3.07975 L-0.8128,-3.07975 A0.15875,0.15875 90 0,0 -0.65405,-3.2385 L-0.65405,-4.3815z" transform="matrix(1,0,0,-1,8.651875,5.715)" fill="rgb(255,255,255)" stroke="rgb(0,0,0)" stroke-width="0.0010cm" stroke-linecap="round" stroke-linejoin="round" shaper:cutDepth="0.47625cm" /><path d="M0.1016,-4.064 a0.5715,0.5715 0 1,1 1.143,0 a0.5715,0.5715 0 1,1 -1.143,0z" transform="matrix(1,0,0,-1,8.651875,5.715)" fill="rgb(255,255,255)" stroke="rgb(0,0,0)" stroke-width="0.0010cm" stroke-linecap="round" stroke-linejoin="round" shaper:cutDepth="0.47625cm" /><path d="M0.1016,-2.032 a0.5715,0.5715 0 1,1 1.143,0 a0.5715,0.5715 0 1,1 -1.143,0z" transform="matrix(1,0,0,-1,8.651875,5.715)" fill="rgb(255,255,255)" stroke="rgb(0,0,0)" stroke-width="0.0010cm" stroke-linecap="round" stroke-linejoin="round" shaper:cutDepth="0.47625cm" /><path d="M-0.65405,-2.5019 A0.15875,0.15875 0 0,0 -0.8128,-2.66065 L-1.9558,-2.66065 A0.15875,0.15875 270 0,0 -2.11455,-2.5019 L-2.11455,-1.3589 A0.15875,0.15875 180 0,0 -1.9558,-1.20015 L-0.8128,-1.20015 A0.15875,0.15875 90 0,0 -0.65405,-1.3589 L-0.65405,-2.5019z" transform="matrix(1,0,0,-1,8.651875,5.715)" fill="rgb(255,255,255)" stroke="rgb(0,0,0)" stroke-width="0.0010cm" stroke-linecap="round" stroke-linejoin="round" shaper:cutDepth="0.47625cm" /><path d="M-0.65405,-0.6223 A0.15875,0.15875 0 0,0 -0.8128,-0.78105 L-1.9558,-0.78105 A0.15875,0.15875 270 0,0 -2.11455,-0.6223 L-2.11455,0.5207 A0.15875,0.15875 180 0,0 -1.9558,0.67945 L-0.8128,0.67945 A0.15875,0.15875 90 0,0 -0.65405,0.5207 L-0.65405,-0.6223z" transform="matrix(1,0,0,-1,8.651875,5.715)" fill="rgb(255,255,255)" stroke="rgb(0,0,0)" stroke-width="0.0010cm" stroke-linecap="round" stroke-linejoin="round" shaper:cutDepth="0.47625cm" /><path d="M-0.65405,1.2573 A0.15875,0.15875 0 0,0 -0.8128,1.09855 L-1.9558,1.09855 A0.15875,0.15875 270 0,0 -2.11455,1.2573 L-2.11455,2.4003 A0.15875,0.15875 180 0,0 -1.9558,2.55905 L-0.8128,2.55905 A0.15875,0.15875 90 0,0 -0.65405,2.4003 L-0.65405,1.2573z" transform="matrix(1,0,0,-1,8.651875,5.715)" fill="rgb(255,255,255)" stroke="rgb(0,0,0)" stroke-width="0.0010cm" stroke-linecap="round" stroke-linejoin="round" shaper:cutDepth="0.47625cm" /><path d="M0.457835,5.08 a0.215265,0.215265 0 1,1 0.43053,0 a0.215265,0.215265 0 1,1 -0.43053,0z" transform="matrix(1,0,0,-1,8.651875,5.715)" fill="rgb(255,255,255)" stroke="rgb(0,0,0)" stroke-width="0.0010cm" stroke-linecap="round" stroke-linejoin="round" shaper:cutDepth="0.47625cm" /><path d="M-0.1905,3.25755 A0.15875,0.15875 0 0,0 -0.34925,3.0988 L-0.37758,3.0988 A0.16002,0.16002 90 0,1 -0.5336647,2.97405 A0.16002,0.16002 347.2668876 0,0 -0.6897494,2.8493 L-6.0796947,2.8493 A0.16002,0.16002 270 0,0 -6.2386574,2.9909548 A0.16002,0.16002 6.5902674 0,1 -6.3259004,3.1156374 A0.15875,0.15875 243.3722894 0,0 -6.4135,3.25755 L-6.4135,4.84505 A0.15875,0.15875 180 0,0 -6.25475,5.0038 L-5.8777312,5.0038 A0.1953068,0.1953068 185.2703592 1,0 -5.4887688,5.0038 L-1.1152312,5.0038 A0.1953068,0.1953068 185.2703592 1,0 -0.7262688,5.0038 L-0.35052,5.0038 A0.16002,0.16002 90 0,0 -0.1905,4.84378 L-0.1905,3.25755z" transform="matrix(1,0,0,-1,8.651875,5.715)" fill="rgb(255,255,255)" stroke="rgb(0,0,0)" stroke-width="0.0010cm" stroke-linecap="round" stroke-linejoin="round" shaper:cutDepth="0.47625cm" /></svg>