<?xml version="1.0" encoding="utf-8"?>
<!-- Generator: Fusion 360, Shaper Origin Export Add-In, Version 1.6.10  -->
<svg xmlns="http://www.w3.org/2000/svg" xmlns:xlink="http://www.w3.org/1999/xlink" xmlns:shaper="http://www.shapertools.com/namespaces/shaper" shaper:fusionaddin="version:1.6.10" width="17.30375cm" height="11.43cm" version="1.1" x="0cm" y="0cm" viewBox="0 0 17.30375 11.43" enable-background="new 0 0 17.30375 11.43" xml:space="preserve"><path d="M8.0461831,10.8747425 L-8.7495669,10.8747425 A0.254,0.254 90 0,1 -9.0035669,10.6207425 L-9.0035669,-0.3012575 A0.254,0.254 180 0,1 -8.7495669,-0.5552575 L8.0461831,-0.5552575 A0.254,0.254 270 0,1 8.3001831,-0.3012575 L8.3001831,10.6207425 A0.254,0.254 0 0,1 8.0461831,10.8747425z" transform="matrix(1,0,0,-1,9.0035669,10.8747425)" fill="rgb(0,0,0)" shaper:cutDepth="0.003175" stroke-linecap="round" stroke-linejoin="round" /><path d="M-8.4748659,10.2397425 a0.357124,0.357124 0 1,1 0.714248,0 a0.357124,0.357124 0 1,1 -0.714248,0z" transform="matrix(1,0,0,-1,9.0035669,10.8747425)" fill="rgb(255,255,255)" stroke="rgb(0,0,0)" stroke-width="0.0010cm" stroke-linecap="round" stroke-linejoin="round" shaper:cutDepth="0.003175" /><path d="M-0.6286827,10.2397425 A0.3175,0.3175 90 0,0 -0.3212647,10.0016175 A0.3175,0.3175 194.4775122 0,1 -0.0138466,9.7634925 L0.659072,9.7634925 A0.3175,0.3175 270 0,1 0.96649,10.0016175 A0.3175,0.3175 165.5224878 0,0 1.2739081,10.2397425 L6.0776831,10.2397425 A0.3175,0.3175 90 0,0 6.3851011,10.0016175 A0.3175,0.3175 194.4775122 0,1 6.6925192,9.7634925 L6.7126831,9.7634925 A0.3175,0.3175 90 0,0 7.0201011,9.5253675 A0.3175,0.3175 194.4775122 0,1 7.3275192,9.2872425 L7.3476831,9.2872425 A0.3175,0.3175 90 0,0 7.6651831,8.9697425 L7.6651831,5.9153925 A0.3175,0.3175 0 0,0 7.3476831,5.5978925 L7.3000581,5.5978925 A0.3175,0.3175 90 0,1 6.9825581,5.2803925 L6.9825581,5.0025165 A0.3175,0.3175 180 0,1 7.3000581,4.6850165 L7.5064331,4.6850165 A0.3175,0.3175 90 0,0 7.8239331,4.3675165 L7.8239331,0.3972425 A0.3175,0.3175 0 0,0 7.5064331,0.0797425 L1.2739081,0.0797425 A0.3175,0.3175 270 0,0 0.96649,0.3178675 A0.3175,0.3175 14.4775122 0,1 0.659072,0.5559925 L-0.0162558,0.5559925 A0.3175,0.3175 90 0,1 -0.3236739,0.3178675 A0.3175,0.3175 345.5224878 0,0 -0.6310919,0.0797425 L-2.2433408,0.0797425 A0.3175,0.3175 90 0,1 -2.5183039,-0.0790075 A0.3175,0.3175 330 0,0 -2.7932669,-0.2377575 L-4.9649669,-0.2377575 A0.3175,0.3175 270 0,0 -5.272385,0.0003675 A0.3175,0.3175 14.4775122 0,1 -5.579803,0.2384925 L-8.2098169,0.2384925 A0.3175,0.3175 270 0,0 -8.5273169,0.5559925 L-8.5273169,4.3675165 A0.3175,0.3175 180 0,0 -8.2098169,4.6850165 L-8.1621919,4.6850165 A0.3175,0.3175 270 0,1 -7.8446919,5.0025165 L-7.8446919,5.2803925 A0.3175,0.3175 0 0,1 -8.1621919,5.5978925 L-8.2098169,5.5978925 A0.3175,0.3175 270 0,0 -8.5273169,5.9153925 L-8.5273169,6.0850618 A0.3175,0.3175 0 0,1 -8.6447919,6.3316307 A0.3175,0.3175 230.9498775 0,0 -8.7622669,6.5781997 L-8.7622669,6.6813353 A0.3175,0.3175 180 0,0 -8.6447919,6.9279043 A0.3175,0.3175 309.0501225 0,1 -8.5273169,7.1744732 L-8.5273169,8.8935425 A0.3175,0.3175 180 0,0 -8.2098169,9.2110425 L-8.1303149,9.2110425 A0.3175,0.3175 270 0,1 -7.8553519,9.3697925 A0.3175,0.3175 150 0,0 -7.5803888,9.5285425 L-7.0985669,9.5285425 A0.3175,0.3175 270 0,1 -6.7810669,9.8460425 L-6.7810669,9.9222425 A0.3175,0.3175 180 0,0 -6.4635669,10.2397425 L-0.6286827,10.2397425z" transform="matrix(1,0,0,-1,9.0035669,10.8747425)" fill="rgb(255,255,255)" stroke="rgb(0,0,0)" stroke-width="0.0010cm" stroke-linecap="round" stroke-linejoin="round" shaper:cutDepth="0.003175" /><path d="M7.0572341,10.2397425 a0.357124,0.357124 0 1,1 0.714248,0 a0.357124,0.357124 0 1,1 -0.714248,0z" transform="matrix(1,0,0,-1,9.0035669,10.8747425)" fill="rgb(255,255,255)" stroke="rgb(0,0,0)" stroke-width="0.0010cm" stroke-linecap="round" stroke-linejoin="round" shaper:cutDepth="0.003175" /><path d="M7.5057981,5.1216425 a0.27051,0.27051 0 1,1 0.54102,0 a0.27051,0.27051 0 1,1 -0.54102,0z" transform="matrix(1,0,0,-1,9.0035669,10.8747425)" fill="rgb(255,255,255)" stroke="rgb(0,0,0)" stroke-width="0.0010cm" stroke-linecap="round" stroke-linejoin="round" shaper:cutDepth="0.003175" /><path d="M-8.7502019,5.1216425 a0.27051,0.27051 0 1,1 0.54102,0 a0.27051,0.27051 0 1,1 -0.54102,0z" transform="matrix(1,0,0,-1,9.0035669,10.8747425)" fill="rgb(255,255,255)" stroke="rgb(0,0,0)" stroke-width="0.0010cm" stroke-linecap="round" stroke-linejoin="round" shaper:cutDepth="0.003175" /><path d="M0.0508981,10.2397425 a0.27051,0.27051 0 1,1 0.54102,0 a0.27051,0.27051 0 1,1 -0.54102,0z" transform="matrix(1,0,0,-1,9.0035669,10.8747425)" fill="rgb(255,255,255)" stroke="rgb(0,0,0)" stroke-width="0.0010cm" stroke-linecap="round" stroke-linejoin="round" shaper:cutDepth="0.003175" /><path d="M0.0508981,0.0797425 a0.27051,0.27051 0 1,1 0.54102,0 a0.27051,0.27051 0 1,1 -0.54102,0z" transform="matrix(1,0,0,-1,9.0035669,10.8747425)" fill="rgb(255,255,255)" stroke="rgb(0,0,0)" stroke-width="0.0010cm" stroke-linecap="round" stroke-linejoin="round" shaper:cutDepth="0.003175" /></svg>