<?xml version="1.0" encoding="utf-8"?>
<!-- Generator: Fusion 360, Shaper Origin Export Add-In, Version 1.6.10  -->
<svg xmlns="http://www.w3.org/2000/svg" xmlns:xlink="http://www.w3.org/1999/xlink" xmlns:shaper="http://www.shapertools.com/namespaces/shaper" shaper:fusionaddin="version:1.6.10" width="10.2997cm" height="4.4704cm" version="1.1" x="0cm" y="0cm" viewBox="0 0 10.2997 4.4704" enable-background="new 0 0 10.2997 4.4704" xml:space="preserve"><path d="M-5.14985,-2.2352 L-5.14985,-1.904425 A0.2577446,0.2577446 280.5044696 0,1 -5.14985,-1.397575 L-5.14985,1.397575 A0.2577446,0.2577446 280.5044696 0,1 -5.14985,1.904425 L-5.14985,2.2352 5.14985,2.2352 5.14985,1.904425 A0.2577446,0.2577446 100.5044696 0,1 5.14985,1.397575 L5.14985,-1.397575 A0.2577446,0.2577446 100.5044696 0,1 5.14985,-1.904425 L5.14985,-2.2352 -5.14985,-2.2352z" transform="matrix(1,0,0,-1,5.14985,2.2352)" fill="rgb(0,0,0)" shaper:cutDepth="0.003175" stroke-linecap="round" stroke-linejoin="round" /><path d="M2.759075,1.651 a0.288925,0.288925 0 1,1 0.57785,0 a0.288925,0.288925 0 1,1 -0.57785,0z" transform="matrix(1,0,0,-1,5.14985,2.2352)" fill="rgb(255,255,255)" stroke="rgb(0,0,0)" stroke-width="0.0010cm" stroke-linecap="round" stroke-linejoin="round" shaper:cutDepth="0.003175" /><path d="M2.759075,-1.651 a0.288925,0.288925 0 1,1 0.57785,0 a0.288925,0.288925 0 1,1 -0.57785,0z" transform="matrix(1,0,0,-1,5.14985,2.2352)" fill="rgb(255,255,255)" stroke="rgb(0,0,0)" stroke-width="0.0010cm" stroke-linecap="round" stroke-linejoin="round" shaper:cutDepth="0.003175" /><path d="M0.727075,-1.651 a0.288925,0.288925 0 1,1 0.57785,0 a0.288925,0.288925 0 1,1 -0.57785,0z" transform="matrix(1,0,0,-1,5.14985,2.2352)" fill="rgb(255,255,255)" stroke="rgb(0,0,0)" stroke-width="0.0010cm" stroke-linecap="round" stroke-linejoin="round" shaper:cutDepth="0.003175" /><path d="M0.727075,1.651 a0.288925,0.288925 0 1,1 0.57785,0 a0.288925,0.288925 0 1,1 -0.57785,0z" transform="matrix(1,0,0,-1,5.14985,2.2352)" fill="rgb(255,255,255)" stroke="rgb(0,0,0)" stroke-width="0.0010cm" stroke-linecap="round" stroke-linejoin="round" shaper:cutDepth="0.003175" /><path d="M-1.304925,1.651 a0.288925,0.288925 0 1,1 0.57785,0 a0.288925,0.288925 0 1,1 -0.57785,0z" transform="matrix(1,0,0,-1,5.14985,2.2352)" fill="rgb(255,255,255)" stroke="rgb(0,0,0)" stroke-width="0.0010cm" stroke-linecap="round" stroke-linejoin="round" shaper:cutDepth="0.003175" /><path d="M-1.304925,-1.651 a0.288925,0.288925 0 1,1 0.57785,0 a0.288925,0.288925 0 1,1 -0.57785,0z" transform="matrix(1,0,0,-1,5.14985,2.2352)" fill="rgb(255,255,255)" stroke="rgb(0,0,0)" stroke-width="0.0010cm" stroke-linecap="round" stroke-linejoin="round" shaper:cutDepth="0.003175" /><path d="M-3.336925,-1.651 a0.288925,0.288925 0 1,1 0.57785,0 a0.288925,0.288925 0 1,1 -0.57785,0z" transform="matrix(1,0,0,-1,5.14985,2.2352)" fill="rgb(255,255,255)" stroke="rgb(0,0,0)" stroke-width="0.0010cm" stroke-linecap="round" stroke-linejoin="round" shaper:cutDepth="0.003175" /><path d="M-3.336925,1.651 a0.288925,0.288925 0 1,1 0.57785,0 a0.288925,0.288925 0 1,1 -0.57785,0z" transform="matrix(1,0,0,-1,5.14985,2.2352)" fill="rgb(255,255,255)" stroke="rgb(0,0,0)" stroke-width="0.0010cm" stroke-linecap="round" stroke-linejoin="round" shaper:cutDepth="0.003175" /></svg>