<?xml version="1.0" encoding="utf-8"?>
<!-- Generator: Fusion 360, Shaper Origin Export Add-In, Version 1.6.10  -->
<svg xmlns="http://www.w3.org/2000/svg" xmlns:xlink="http://www.w3.org/1999/xlink" xmlns:shaper="http://www.shapertools.com/namespaces/shaper" shaper:fusionaddin="version:1.6.10" width="0.8922cm" height="0.8922cm" version="1.1" x="0cm" y="0cm" viewBox="0 0 0.8922 0.8922" enable-background="new 0 0 0.8922 0.8922" xml:space="preserve"><path d="M-0.4461,0.4207 L-0.4461,-0.4207 A0.0254,0.0254 180 0,1 -0.4207,-0.4461 L0.4207,-0.4461 A0.0254,0.0254 270 0,1 0.4461,-0.4207 L0.4461,0.4207 A0.0254,0.0254 0 0,1 0.4207,0.4461 L-0.4207,0.4461 A0.0254,0.0254 90 0,1 -0.4461,0.4207z" transform="matrix(1,0,0,-1,0.4461,0.4461)" fill="rgb(0,0,0)" shaper:cutDepth="0.0015875" stroke-linecap="round" stroke-linejoin="round" /><path d="M0.0132193,-0.1187482 L0.0132193,-0.1187482 0.0244091,-0.1214776 0.0353502,-0.1250754 0.0459241,-0.1296412 0.0560473,-0.1351343 0.0656199,-0.1415383 0.0745563,-0.1488047 0.0828485,-0.1567975 0.0903954,-0.1654988 0.0972354,-0.1747652 0.1032714,-0.1845746 0.1084368,-0.194869 0.1127047,-0.2055663 0.1160243,-0.2165956 0.1184734,-0.2278497 0.1199249,-0.2392756 0.1205341,-0.2507773 0.1205341,-0.2507773 0.1197208,-0.2637979 0.1179134,-0.2767168 0.1149326,-0.2894174 0.1107092,-0.30176 0.1052028,-0.3135853 0.0985509,-0.3248072 0.0907389,-0.3352542 0.0819783,-0.3449202 0.0723032,-0.3536705 0.0617796,-0.3613795 0.0505511,-0.3680189 0.0386734,-0.3734138 0.0263241,-0.3776157 0.0136232,-0.3805963 0.0007044,-0.3824038 -0.0123162,-0.3832171 -0.0123162,-0.3832171 -0.0220628,-0.3828322 -0.0317543,-0.381734 -0.0413577,-0.3800257 -0.0508126,-0.3776293 -0.0600362,-0.3744571 -0.0690115,-0.3706391 -0.0776395,-0.3660892 -0.0859466,-0.3609783 -0.0938103,-0.3552069 -0.1012292,-0.3488754 -0.1081171,-0.3419684 -0.1144825,-0.3345788 -0.120263,-0.3267212 -0.1255376,-0.3185173 -0.1343282,-0.3011094 -0.1343282,-0.3011094 -0.1383009,-0.2908113 -0.1395292,-0.2854261 -0.1399936,-0.2799256 -0.1399936,-0.2799256 -0.139409,-0.27528 -0.1379228,-0.2708403 -0.1354792,-0.2668483 -0.1322583,-0.263448 -0.1284715,-0.260696 -0.1242245,-0.2587205 -0.1196963,-0.2575347 -0.1150329,-0.2570996 -0.1150329,-0.2570996 -0.1081865,-0.2579294 -0.1049788,-0.2592052 -0.102069,-0.2611062 -0.0995694,-0.263508 -0.0975402,-0.2662954 -0.0945881,-0.2725359 -0.0945881,-0.2725359 -0.0889626,-0.2853843 -0.0821661,-0.297652 -0.0737631,-0.3088793 -0.063767,-0.3187167 -0.0581693,-0.3229475 -0.0521993,-0.3266383 -0.0459151,-0.3297605 -0.0393708,-0.3322971 -0.03262,-0.3342321 -0.0257267,-0.3355318 -0.0117414,-0.3365799 -0.0117414,-0.3365799 -0.0033632,-0.3360613 0.0049427,-0.3348517 0.0131037,-0.3328881 0.0210584,-0.3302083 0.0286929,-0.3267207 0.0359119,-0.3224381 0.0426367,-0.3174153 0.0488961,-0.3118227 0.0545824,-0.3056485 0.0596142,-0.2989302 0.0639691,-0.2917552 0.0674757,-0.2841282 0.0702611,-0.2762116 0.0721642,-0.2680349 0.0733794,-0.2597306 0.0738969,-0.2513521 0.0738969,-0.2513521 0.0729796,-0.2387929 0.0702959,-0.2264933 0.0659945,-0.214658 0.0599941,-0.20359 0.052535,-0.1934441 0.0436128,-0.1845627 0.0334578,-0.1771181 0.0222512,-0.1713792 0.0222512,-0.1713792 0.0083694,-0.1671336 -0.0060272,-0.165246 -0.03506,-0.1644822 -0.03506,-0.1644822 -0.0489124,-0.1642366 -0.0558166,-0.163509 -0.059145,-0.1626098 -0.0622376,-0.1610336 -0.0622376,-0.1610336 -0.0660907,-0.1584376 -0.0692456,-0.1550357 -0.0712481,-0.150847 -0.0719263,-0.1462542 -0.0719263,-0.1462542 -0.0708814,-0.1397254 -0.0676531,-0.1339224 -0.0634976,-0.1287584 -0.058907,-0.1239646 0.0137378,-0.0513781 -0.0798908,-0.0513377 -0.0798908,-0.0513377 -0.0918023,-0.0507503 -0.0976761,-0.04968 -0.1033213,-0.0477553 -0.1082707,-0.0444363 -0.1117159,-0.0395885 -0.1134665,-0.0338883 -0.1138834,-0.027937 -0.1138834,-0.027937 -0.1134701,-0.0225006 -0.1119065,-0.0172832 -0.1088261,-0.0127858 -0.1045323,-0.0094536 -0.0994993,-0.0073345 -0.0941952,-0.0060881 -0.0833111,-0.0055217 0.054109,-0.0055216 0.054109,-0.0055216 0.0646253,-0.0056632 0.0750464,-0.0069996 0.0750464,-0.0069996 0.0785283,-0.0083245 0.0816995,-0.010282 0.0868926,-0.0155996 0.088823,-0.018785 0.0902033,-0.022249 0.0911055,-0.0258618 0.0913859,-0.0295792 0.0913859,-0.0295792 0.0902543,-0.0366722 0.0869609,-0.0431115 0.0826834,-0.0488983 0.0778302,-0.0542359 0.0132193,-0.1187482z" transform="matrix(1,0,0,-1,0.4461,0.4461)" fill="rgb(104,104,104)" fill-rule="nonzero" shaper:cutDepth="0.0000762" stroke-linecap="round" stroke-linejoin="round" /></svg>