<?xml version="1.0" encoding="utf-8"?>
<!-- Generator: Fusion 360, Shaper Origin Export Add-In, Version 1.6.10  -->
<svg xmlns="http://www.w3.org/2000/svg" xmlns:xlink="http://www.w3.org/1999/xlink" xmlns:shaper="http://www.shapertools.com/namespaces/shaper" shaper:fusionaddin="version:1.6.10" width="0.8922cm" height="0.8922cm" version="1.1" x="0cm" y="0cm" viewBox="0 0 0.8922 0.8922" enable-background="new 0 0 0.8922 0.8922" xml:space="preserve"><path d="M-0.4461,0.4207 L-0.4461,-0.4207 A0.0254,0.0254 180 0,1 -0.4207,-0.4461 L0.4207,-0.4461 A0.0254,0.0254 270 0,1 0.4461,-0.4207 L0.4461,0.4207 A0.0254,0.0254 0 0,1 0.4207,0.4461 L-0.4207,0.4461 A0.0254,0.0254 90 0,1 -0.4461,0.4207z" transform="matrix(1,0,0,-1,0.4461,0.4461)" fill="rgb(0,0,0)" shaper:cutDepth="0.0015875" stroke-linecap="round" stroke-linejoin="round" /><path d="M-0.0852278,-0.0521588 L-0.0852278,-0.0521588 -0.0927364,-0.052055 -0.0964691,-0.0516739 -0.1000072,-0.0504345 -0.1000072,-0.0504345 -0.1055984,-0.0469103 -0.1098594,-0.0418515 -0.1126824,-0.0358765 -0.1136371,-0.0293329 -0.1136371,-0.0293329 -0.112446,-0.0220749 -0.1110399,-0.0186781 -0.1090359,-0.0155648 -0.1065494,-0.0128297 -0.103664,-0.0105542 -0.0971334,-0.0071638 -0.0971334,-0.0071638 -0.0930436,-0.0059038 -0.0887649,-0.0055552 -0.0801883,-0.0055217 0.0662609,-0.0055216 0.0662609,-0.0055216 0.0780264,-0.0066661 0.0837413,-0.0082136 0.0890701,-0.0107761 0.0935737,-0.014604 0.0968464,-0.0195268 0.0986155,-0.0251686 0.0991861,-0.0310571 0.0991861,-0.0310571 0.098667,-0.0361873 0.0968834,-0.0410552 -0.0058296,-0.3573531 -0.0058296,-0.3573531 -0.0094792,-0.366864 -0.0144865,-0.3757176 -0.0180245,-0.3793704 -0.0224772,-0.3818272 -0.0274255,-0.3830251 -0.0325147,-0.3832171 -0.0325147,-0.3832171 -0.036805,-0.3827759 -0.0409843,-0.3817168 -0.0449204,-0.3799534 -0.0484579,-0.3774891 -0.0515164,-0.374448 -0.0538282,-0.3708098 -0.0551922,-0.3667199 -0.0557511,-0.3624438 -0.0557511,-0.3624438 -0.0554242,-0.357598 -0.0543392,-0.3528576 -0.0512439,-0.3436437 0.0435349,-0.052159 -0.0852278,-0.0521588z" transform="matrix(1,0,0,-1,0.4461,0.4461)" fill="rgb(104,104,104)" fill-rule="nonzero" shaper:cutDepth="0.0000762" stroke-linecap="round" stroke-linejoin="round" /></svg>