<?xml version="1.0" encoding="utf-8"?>
<!-- Generator: Fusion 360, Shaper Origin Export Add-In, Version 1.7.0  -->
<svg xmlns="http://www.w3.org/2000/svg" xmlns:xlink="http://www.w3.org/1999/xlink" xmlns:shaper="http://www.shapertools.com/namespaces/shaper" shaper:fusionaddin="version:1.7.0" width="17.30375cm" height="11.43cm" version="1.1" x="0cm" y="0cm" viewBox="0 0 17.30375 11.43" enable-background="new 0 0 17.30375 11.43" xml:space="preserve"><path d="M-6.985,5.11175 A0.508,0.508 0 0,0 -7.493,4.60375 L-8.651875,4.60375 -8.651875,-5.715 8.651875,-5.715 8.651875,4.60375 7.493,4.60375 A0.508,0.508 270 0,0 6.985,5.11175 L6.985,5.715 -6.985,5.715 -6.985,5.11175z" transform="matrix(1,0,0,-1,8.651875,5.715)" fill="rgb(0,0,0)" shaper:cutDepth="0.15875cm" stroke-linecap="round" stroke-linejoin="round" /><path d="M7.1764754,4.2890826 L7.1764754,4.2890826 7.1759198,4.2782992 7.1759198,4.2782992 7.1742595,4.2724931 7.1742595,4.2724931 7.1703306,4.2671247 7.1656784,4.2629513 7.1598215,4.2607684 7.1532424,4.2597789 7.1532424,4.2597789 7.1456431,4.2610711 7.1388655,4.2647593 7.1388655,4.2647593 7.1336074,4.270095 7.1305733,4.2769273 7.1305733,4.2769273 7.1300214,4.2819045 7.1300238,4.2918585 7.1300915,4.5816321 7.0554361,4.5816495 7.0554361,4.5816495 7.0438826,4.5830075 7.038791,4.5844525 7.0345215,4.5868167 7.0313137,4.590368 7.029057,4.5949825 7.0261327,4.6059885 7.0261327,4.6059885 7.0299202,4.6168827 7.0326206,4.6213335 7.0362735,4.6246076 7.0408992,4.6266803 7.0462612,4.6278435 7.0582121,4.6286542 7.2523162,4.6286088 7.2523162,4.6286088 7.2637294,4.6271943 7.2687479,4.6257266 7.2729406,4.6233462 7.2760713,4.619792 7.2782605,4.6151972 7.2810666,4.6042699 7.2810666,4.6042699 7.2776551,4.5935911 7.2751646,4.5891896 7.2717418,4.5859025 7.2673385,4.5837873 7.262189,4.5825639 7.2506462,4.5816039 7.1765438,4.5816212 7.1764754,4.2890826z" transform="matrix(1,0,0,-1,8.651875,5.715)" fill="rgb(104,104,104)" fill-rule="nonzero" shaper:cutDepth="0.00762cm" stroke-linecap="round" stroke-linejoin="round" /><path d="M6.8009072,2.1832781 L6.8009072,2.1832781 6.8004495,2.1750403 6.8004495,2.1750403 6.7990766,2.170006 6.7990766,2.170006 6.7961426,2.1665084 6.7924405,2.1638276 6.7924405,2.1638276 6.7881451,2.1619705 6.7835162,2.1613105 6.7835162,2.1613105 6.7783885,2.1620994 6.7736766,2.1642853 6.7736766,2.1642853 6.7697366,2.1675211 6.7670405,2.1718367 6.7670405,2.1718367 6.7658964,2.1757268 6.7658964,2.1757268 6.7656676,2.1832781 6.7656676,2.4432277 6.7656676,2.4432277 6.7661252,2.4526097 6.7661252,2.4526097 6.7684135,2.4578727 6.7684135,2.4578727 6.7713874,2.4613896 6.7748028,2.464104 6.7789444,2.4654984 6.7835162,2.4661106 6.7835162,2.4661106 6.7915242,2.4637976 6.794857,2.4620582 6.7973885,2.4596229 6.7990486,2.4564307 6.8000398,2.4526576 6.8009072,2.444143 6.8009072,2.1832781z" transform="matrix(1,0,0,-1,8.651875,5.715)" fill="rgb(104,104,104)" fill-rule="nonzero" shaper:cutDepth="0.00762cm" stroke-linecap="round" stroke-linejoin="round" /><path d="M6.6366844,0.0957649 L6.6366844,0.0957649 6.6402903,0.1053485 6.6460855,0.1137375 6.6460855,0.1137375 6.6494437,0.1160776 6.6530153,0.1178326 6.6610165,0.118991 6.6610165,0.118991 6.6654656,0.1185061 6.6696759,0.1174212 6.6734856,0.1153301 6.6770536,0.1126315 6.6770536,0.1126315 6.6798255,0.1093121 6.681995,0.1057316 6.6831501,0.1017112 6.6836897,0.0974239 6.6836897,0.0974239 6.6831367,0.0916173 6.6831367,0.0916173 6.6814777,0.0852578 6.5902322,-0.2216589 6.5902322,-0.2216589 6.5861374,-0.2330373 6.5831993,-0.2382692 6.5797251,-0.243226 6.5797251,-0.243226 6.5758576,-0.2458141 6.5717418,-0.2476867 6.5672619,-0.2485096 6.562582,-0.248756 6.562582,-0.248756 6.5537967,-0.2477902 6.549791,-0.2461053 6.5459919,-0.243779 6.5459919,-0.243779 6.5426071,-0.2392768 6.5397877,-0.2344751 6.5360379,-0.2238709 6.4442394,0.0824928 6.4442394,0.0824928 6.4420274,0.0910643 6.4420274,0.0910643 6.4414744,0.0974239 6.4414744,0.0974239 6.4420371,0.1018679 6.4432734,0.1059993 6.4456319,0.1096098 6.4486634,0.112908 6.4486634,0.112908 6.4525618,0.1155107 6.4566739,0.1175167 6.4611366,0.1185433 6.4658065,0.118991 6.4658065,0.118991 6.4732462,0.1179088 6.4765446,0.1162434 6.4796316,0.114014 6.4796316,0.114014 6.4847768,0.106239 6.4879266,0.0974239 6.562582,-0.1519805 6.6366844,0.0957649z" transform="matrix(1,0,0,-1,8.651875,5.715)" fill="rgb(104,104,104)" fill-rule="nonzero" shaper:cutDepth="0.00762cm" stroke-linecap="round" stroke-linejoin="round" /><path d="M7.2549418,-0.2050688 L7.2629603,-0.2050688 7.2629603,-0.2050688 7.2676608,-0.2061748 7.2676608,-0.2061748 7.2733301,-0.2089745 7.2776149,-0.2136403 7.2776149,-0.2136403 7.2804923,-0.2195707 7.2814859,-0.2260829 7.2814859,-0.2260829 7.2803708,-0.2329532 7.2770619,-0.2390784 7.2770619,-0.2390784 7.2723911,-0.2438588 7.2665548,-0.247097 7.2665548,-0.247097 7.2624073,-0.24765 7.2510707,-0.24765 7.0542017,-0.24765 7.0542017,-0.24765 7.0484856,-0.2474414 7.0429994,-0.2465466 7.0379407,-0.2443749 7.0331875,-0.2412905 7.0331875,-0.2412905 7.0301882,-0.236141 7.0281037,-0.2307133 7.0272706,-0.224905 7.0271045,-0.2188939 7.0271045,0.0952119 7.0271045,0.0952119 7.0274152,0.1003469 7.0283148,0.1052933 7.0302669,0.1099027 7.032911,0.1142904 7.032911,0.1142904 7.0362862,0.1172841 7.0399761,0.1195729 7.0441751,0.1207211 7.0486716,0.121203 7.0486716,0.121203 7.0585058,0.1184868 7.0626152,0.116416 7.0657591,0.1134932 7.0678375,0.1096304 7.0690943,0.1050426 7.0702387,0.0946588 7.0702387,-0.2050688 7.2549418,-0.2050688z" transform="matrix(1,0,0,-1,8.651875,5.715)" fill="rgb(104,104,104)" fill-rule="nonzero" shaper:cutDepth="0.00762cm" stroke-linecap="round" stroke-linejoin="round" /><path d="M6.9636446,-2.293188 L6.9636446,-2.293188 6.9733554,-2.2938198 6.9829328,-2.2951361 6.9922929,-2.2975673 7.0015253,-2.3006535 7.0015253,-2.3006535 7.0108767,-2.3048678 7.0199149,-2.3096128 7.0284332,-2.3152388 7.036641,-2.3213912 7.036641,-2.3213912 7.0503229,-2.3386675 7.063068,-2.3563021 7.0687966,-2.3653657 7.0739398,-2.3746532 7.0783804,-2.3842094 7.0820325,-2.3940673 7.0849491,-2.4042064 7.0872221,-2.4145916 7.0902053,-2.4359599 7.0917175,-2.4578908 7.0924943,-2.480103 7.0924943,-2.480103 7.0917943,-2.5027126 7.0898428,-2.5251398 7.0856698,-2.5472434 7.0800517,-2.5691365 7.0800517,-2.5691365 7.0731176,-2.5861819 7.0648241,-2.6023904 7.0597853,-2.6099455 7.0542113,-2.617171 7.042171,-2.6310728 7.042171,-2.6310728 7.0338128,-2.6381902 7.0250319,-2.644661 7.0155575,-2.6500703 7.0056728,-2.6548519 7.0056728,-2.6548519 6.9957404,-2.6584667 6.9856493,-2.6613349 6.975285,-2.6629176 6.9647506,-2.6637 6.9647506,-2.6637 6.9517722,-2.6627749 6.9390359,-2.6601055 6.9390359,-2.6601055 6.9260642,-2.655775 6.9135978,-2.6501514 6.9135978,-2.6501514 6.9014608,-2.6431439 6.8900952,-2.6349439 6.8900952,-2.6349439 6.8801399,-2.6260951 6.8712931,-2.6161418 6.8712931,-2.6161418 6.8622888,-2.5996026 6.8538921,-2.5828932 6.8467104,-2.565843 6.8413345,-2.5482865 6.8378661,-2.5301952 6.8358507,-2.5116965 6.8342419,-2.47402 6.8342419,-2.47402 6.8349365,-2.4529806 6.8367537,-2.4320996 6.8405385,-2.4114961 6.8455784,-2.3910695 6.8455784,-2.3910695 6.8517362,-2.3747904 6.8591411,-2.3592284 6.868695,-2.3449019 6.8795881,-2.3313452 6.8795881,-2.3313452 6.8884486,-2.3230822 6.8978385,-2.3155675 6.9080912,-2.3092727 6.9188513,-2.3036951 6.9188513,-2.3036951 6.9296745,-2.2994348 6.9406961,-2.296039 6.9520621,-2.2941424 6.9636446,-2.293188z M6.9636446,-2.3401933 L6.9636446,-2.3401933 6.9501824,-2.3419768 6.9373769,-2.3465528 6.9373769,-2.3465528 6.924905,-2.3533667 6.9138743,-2.3623134 6.9138743,-2.3623134 6.9057875,-2.3724743 6.8988576,-2.3832741 6.8937012,-2.3950532 6.8895422,-2.4073831 6.8895422,-2.4073831 6.8858434,-2.4239732 6.8830715,-2.4406816 6.8817474,-2.4575747 6.8812471,-2.474573 6.8812471,-2.474573 6.8815727,-2.4912221 6.8825479,-2.5078053 6.8846901,-2.5242703 6.8876067,-2.5406568 6.8876067,-2.5406568 6.8910887,-2.5527626 6.8953986,-2.5644979 6.901144,-2.5755906 6.9077913,-2.5862796 6.9077913,-2.5862796 6.9132152,-2.5927942 6.9191133,-2.5987701 6.9257981,-2.603852 6.9329529,-2.6083997 6.9329529,-2.6083997 6.9402711,-2.6118058 6.9477788,-2.6145001 6.9556112,-2.6159748 6.9636446,-2.6166947 6.9636446,-2.6166947 6.9706645,-2.616066 6.9775445,-2.6148507 6.9907417,-2.6100587 6.9907417,-2.6100587 7.0035201,-2.602712 7.0145208,-2.5929156 7.0145208,-2.5929156 7.0222813,-2.5822694 7.0289763,-2.5710766 7.0339845,-2.5590185 7.0380235,-2.5464634 7.0380235,-2.5464634 7.0414464,-2.5292194 7.0439609,-2.5118729 7.0451062,-2.4943719 7.045489,-2.476785 7.045489,-2.476785 7.0441806,-2.444366 7.0422656,-2.4285979 7.0388379,-2.4133594 7.03341,-2.3988213 7.0260138,-2.3849722 7.017283,-2.3715905 7.0078848,-2.3584424 7.0078848,-2.3584424 6.9978877,-2.3511243 6.9868707,-2.3454468 6.9868707,-2.3454468 6.9755214,-2.3416274 6.9636446,-2.3401933z" transform="matrix(1,0,0,-1,8.651875,5.715)" fill="rgb(104,104,104)" fill-rule="nonzero" shaper:cutDepth="0.00762cm" stroke-linecap="round" stroke-linejoin="round" /><path d="M7.6880785,-2.3119901 L7.6880785,-2.3119901 7.69269,-2.3049536 7.698309,-2.298718 7.698309,-2.298718 7.7039552,-2.296056 7.7101986,-2.2954 7.7101986,-2.2954 7.7148424,-2.2956671 7.7192347,-2.2965695 7.7231684,-2.2986304 7.7267887,-2.301483 7.7267887,-2.301483 7.7291884,-2.3059955 7.7308858,-2.3107064 7.7317657,-2.3208381 7.7317657,-2.6382619 7.7317657,-2.6382619 7.7314538,-2.643566 7.7305206,-2.6486665 7.7284718,-2.6534013 7.7256827,-2.6578935 7.7256827,-2.6578935 7.7220867,-2.6609142 7.7181812,-2.6632097 7.7137804,-2.6643441 7.7090926,-2.664806 7.7090926,-2.664806 7.7020218,-2.6638922 7.695544,-2.660935 7.695544,-2.660935 7.6907173,-2.656612 7.6875255,-2.6509809 7.6875255,-2.6509809 7.686143,-2.6451744 7.686143,-2.6451744 7.6858665,-2.6343908 7.6858665,-2.4037886 7.6184001,-2.5160482 7.6184001,-2.5160482 7.6129784,-2.5248489 7.606234,-2.5326383 7.606234,-2.5326383 7.5998813,-2.5353421 7.592962,-2.5359563 7.592962,-2.5359563 7.5865105,-2.5353293 7.5805194,-2.5329148 7.5805194,-2.5329148 7.574426,-2.5267228 7.5697358,-2.5193662 7.5011635,-2.4037886 7.5011635,-2.6338378 7.5011635,-2.6338378 7.5006105,-2.6440684 7.5006105,-2.6440684 7.4989515,-2.650428 7.4989515,-2.650428 7.4956509,-2.6561037 7.4906564,-2.660382 7.4906564,-2.660382 7.4843021,-2.6632838 7.4773843,-2.664253 7.4773843,-2.664253 7.4665603,-2.6605941 7.4621249,-2.6579651 7.4588455,-2.6543895 7.4567578,-2.6498381 7.4555737,-2.644547 7.4547112,-2.6327318 7.4547112,-2.3241562 7.4547112,-2.3241562 7.4560242,-2.3128363 7.4574306,-2.3078451 7.4597368,-2.3036565 7.463206,-2.3005051 7.4677192,-2.2982847 7.4784903,-2.2954 7.4784903,-2.2954 7.4841794,-2.2961276 7.4892739,-2.298718 7.4892739,-2.298718 7.4946303,-2.3046716 7.4989515,-2.3114371 7.593515,-2.4679369 7.6880785,-2.3119901z" transform="matrix(1,0,0,-1,8.651875,5.715)" fill="rgb(104,104,104)" fill-rule="nonzero" shaper:cutDepth="0.00762cm" stroke-linecap="round" stroke-linejoin="round" /><path d="M-8.0383791,-2.294294 L-8.0383791,-2.294294 -8.0245771,-2.2962962 -8.0110466,-2.298839 -7.9980595,-2.3024628 -7.9858865,-2.3077067 -7.97465,-2.3148143 -7.9641481,-2.3233836 -7.9443686,-2.3429583 -7.9443686,-2.3429583 -7.9403589,-2.3480187 -7.9369031,-2.3534653 -7.9369031,-2.3534653 -7.9353889,-2.3580491 -7.9349676,-2.3628664 -7.9349676,-2.3628664 -7.9354965,-2.3674031 -7.9366442,-2.3716888 -7.9388178,-2.3755585 -7.9416036,-2.37918 -7.9416036,-2.37918 -7.9451086,-2.3820817 -7.9488876,-2.3843457 -7.9531257,-2.3855414 -7.9576407,-2.3860925 -7.9576407,-2.3860925 -7.9640922,-2.3854655 -7.9700833,-2.383051 -7.9700833,-2.383051 -7.9767752,-2.3770173 -7.9825258,-2.3700554 -7.9825258,-2.3700554 -7.9944892,-2.3581883 -8.000847,-2.3530047 -8.0076561,-2.3487212 -8.0150378,-2.3455797 -8.0229127,-2.3434218 -8.0394851,-2.3407463 -8.0394851,-2.3407463 -8.049639,-2.3417091 -8.0594902,-2.3437102 -8.068849,-2.3474007 -8.0779188,-2.3520828 -8.0779188,-2.3520828 -8.0870972,-2.3585859 -8.0957089,-2.3656995 -8.1033982,-2.373807 -8.110546,-2.382498 -8.110546,-2.382498 -8.1174002,-2.3929469 -8.1235935,-2.4037364 -8.1287182,-2.4150766 -8.1332191,-2.4267382 -8.1332191,-2.4267382 -8.1368517,-2.439558 -8.1396688,-2.4525118 -8.1411335,-2.465688 -8.1417907,-2.478997 -8.1417907,-2.478997 -8.1407812,-2.4944491 -8.1386827,-2.5096889 -8.134812,-2.524583 -8.1299011,-2.5392743 -8.1299011,-2.5392743 -8.1236553,-2.553192 -8.1165004,-2.5665439 -8.1077855,-2.5789248 -8.0981035,-2.5907036 -8.0981035,-2.5907036 -8.0919062,-2.5968533 -8.0853337,-2.6024966 -8.0781034,-2.6072522 -8.0704533,-2.6114412 -8.0704533,-2.6114412 -8.0626707,-2.6142015 -8.0547565,-2.6163087 -8.0466297,-2.617362 -8.0383791,-2.6178008 -8.0383791,-2.6178008 -8.0298913,-2.617159 -8.0216201,-2.6157048 -8.0137136,-2.6128822 -8.0060284,-2.6092292 -8.0060284,-2.6092292 -7.9978515,-2.6033763 -7.9902093,-2.596947 -7.9833766,-2.5896449 -7.9769958,-2.5818556 -7.9769958,-2.5818556 -7.9730184,-2.5770988 -7.9681477,-2.573284 -7.9681477,-2.573284 -7.9625083,-2.5713019 -7.9565347,-2.5707955 -7.9565347,-2.5707955 -7.9521406,-2.5712688 -7.947992,-2.5723457 -7.9442573,-2.574441 -7.9407741,-2.577155 -7.9407741,-2.577155 -7.9379797,-2.5809051 -7.9358642,-2.5849182 -7.9348282,-2.5893494 -7.9344146,-2.5940216 -7.9344146,-2.5940216 -7.9353834,-2.6003446 -7.9380091,-2.6061877 -7.9380091,-2.6061877 -7.9446277,-2.615108 -7.9521107,-2.6233308 -7.9521107,-2.6233308 -7.9713558,-2.6401274 -7.9814864,-2.6473952 -7.9922269,-2.6533063 -8.0037232,-2.6575356 -8.0158478,-2.660367 -8.0411441,-2.6637 -8.0411441,-2.6637 -8.0572721,-2.6612461 -8.0730316,-2.6581207 -8.0880545,-2.653652 -8.0951746,-2.6507042 -8.1019732,-2.6471703 -8.1084413,-2.6430336 -8.1146171,-2.6383642 -8.1262592,-2.6277317 -8.1372334,-2.6158816 -8.1478737,-2.6034227 -8.1478737,-2.6034227 -8.1569101,-2.5893051 -8.1650475,-2.5747416 -8.1716969,-2.5594399 -8.1774594,-2.5436984 -8.1774594,-2.5436984 -8.1817781,-2.5272394 -8.1851358,-2.5106334 -8.1868928,-2.4937826 -8.1876899,-2.476785 -8.1876899,-2.476785 -8.1865633,-2.45839 -8.184188,-2.4402283 -8.1797681,-2.4224487 -8.1741414,-2.4048946 -8.1741414,-2.4048946 -8.1667316,-2.3878645 -8.1582834,-2.3714456 -8.1480818,-2.3560586 -8.1368137,-2.3412993 -8.1368137,-2.3412993 -8.1158606,-2.3218077 -8.1047692,-2.3133637 -8.09294,-2.306482 -8.0801933,-2.3015431 -8.0666807,-2.2982258 -8.0383791,-2.294294z" transform="matrix(1,0,0,-1,8.651875,5.715)" fill="rgb(104,104,104)" fill-rule="nonzero" shaper:cutDepth="0.00762cm" stroke-linecap="round" stroke-linejoin="round" /><path d="M-7.3576324,-2.3119901 L-7.3576324,-2.3119901 -7.3530209,-2.3049536 -7.3474019,-2.298718 -7.3474019,-2.298718 -7.3417558,-2.296056 -7.3355123,-2.2954 -7.3355123,-2.2954 -7.3308685,-2.2956671 -7.3264762,-2.2965695 -7.3225425,-2.2986304 -7.3189222,-2.301483 -7.3189222,-2.301483 -7.3165225,-2.3059955 -7.3148252,-2.3107064 -7.3139452,-2.3208381 -7.3139452,-2.6382619 -7.3139452,-2.6382619 -7.3142571,-2.643566 -7.3151903,-2.6486665 -7.3172392,-2.6534013 -7.3200282,-2.6578935 -7.3200282,-2.6578935 -7.3236242,-2.6609142 -7.3275297,-2.6632097 -7.3319305,-2.6643441 -7.3366183,-2.664806 -7.3366183,-2.664806 -7.3436892,-2.6638922 -7.3501669,-2.660935 -7.3501669,-2.660935 -7.3549937,-2.656612 -7.3581855,-2.6509809 -7.3581855,-2.6509809 -7.359568,-2.6451744 -7.359568,-2.6451744 -7.3598445,-2.6343908 -7.3598445,-2.4037886 -7.4273108,-2.5160482 -7.4273108,-2.5160482 -7.4327326,-2.5248489 -7.4394769,-2.5326383 -7.4394769,-2.5326383 -7.4458296,-2.5353421 -7.452749,-2.5359563 -7.452749,-2.5359563 -7.4592005,-2.5353293 -7.4651915,-2.5329148 -7.4651915,-2.5329148 -7.4712849,-2.5267228 -7.4759751,-2.5193662 -7.5445475,-2.4037886 -7.5445475,-2.6338378 -7.5445475,-2.6338378 -7.5451005,-2.6440684 -7.5451005,-2.6440684 -7.5467595,-2.650428 -7.5467595,-2.650428 -7.55006,-2.6561037 -7.5550545,-2.660382 -7.5550545,-2.660382 -7.5614089,-2.6632838 -7.5683266,-2.664253 -7.5683266,-2.664253 -7.5791507,-2.6605941 -7.5835861,-2.6579651 -7.5868655,-2.6543895 -7.5889531,-2.6498381 -7.5901373,-2.644547 -7.5909997,-2.6327318 -7.5909997,-2.3241562 -7.5909997,-2.3241562 -7.5896867,-2.3128363 -7.5882803,-2.3078451 -7.5859741,-2.3036565 -7.5825049,-2.3005051 -7.5779917,-2.2982847 -7.5672206,-2.2954 -7.5672206,-2.2954 -7.5615315,-2.2961276 -7.556437,-2.298718 -7.556437,-2.298718 -7.5510807,-2.3046716 -7.5467595,-2.3114371 -7.452196,-2.4679369 -7.3576324,-2.3119901z" transform="matrix(1,0,0,-1,8.651875,5.715)" fill="rgb(104,104,104)" fill-rule="nonzero" shaper:cutDepth="0.00762cm" stroke-linecap="round" stroke-linejoin="round" /><path d="M-6.6564247,-2.6377089 L-6.6564247,-2.6377089 -6.6569777,-2.6476629 -6.6569777,-2.6476629 -6.6586367,-2.653746 -6.6586367,-2.653746 -6.6621819,-2.6579723 -6.6666552,-2.6612115 -6.6666552,-2.6612115 -6.6718456,-2.6634556 -6.6774388,-2.664253 -6.6774388,-2.664253 -6.6836347,-2.6632998 -6.6893283,-2.6606585 -6.6893283,-2.6606585 -6.6940891,-2.6567486 -6.6973469,-2.6515339 -6.6973469,-2.6515339 -6.6987294,-2.6468334 -6.6987294,-2.6468334 -6.6990059,-2.6377089 -6.6990059,-2.3236032 -6.6990059,-2.3236032 -6.6984529,-2.3122666 -6.6984529,-2.3122666 -6.6973956,-2.308948 -6.6956879,-2.3059071 -6.6956879,-2.3059071 -6.6920944,-2.3016576 -6.6879675,-2.2983776 -6.6829631,-2.2966928 -6.6774388,-2.295953 -6.6774388,-2.295953 -6.6677625,-2.2987479 -6.6637353,-2.3008496 -6.6606764,-2.3037923 -6.6586704,-2.3076495 -6.6574728,-2.3122087 -6.6564247,-2.3224972 -6.6564247,-2.6377089z" transform="matrix(1,0,0,-1,8.651875,5.715)" fill="rgb(104,104,104)" fill-rule="nonzero" shaper:cutDepth="0.00762cm" stroke-linecap="round" stroke-linejoin="round" /><path d="M-6.9942867,0.113337 L-6.9942867,0.113337 -6.9845758,0.1127052 -6.9749984,0.1113889 -6.9656384,0.1089577 -6.956406,0.1058715 -6.956406,0.1058715 -6.9470546,0.1016572 -6.9380163,0.0969122 -6.929498,0.0912862 -6.9212903,0.0851338 -6.9212903,0.0851338 -6.9076084,0.0678575 -6.8948632,0.0502229 -6.8891346,0.0411593 -6.8839915,0.0318718 -6.8795508,0.0223156 -6.8758988,0.0124577 -6.8729822,0.0023186 -6.8707091,-0.0080666 -6.8677259,-0.0294349 -6.8662137,-0.0513658 -6.865437,-0.073578 -6.865437,-0.073578 -6.8661369,-0.0961876 -6.8680884,-0.1186148 -6.8722615,-0.1407184 -6.8778795,-0.1626115 -6.8778795,-0.1626115 -6.8848136,-0.1796569 -6.8931072,-0.1958654 -6.8981459,-0.2034205 -6.90372,-0.210646 -6.9157602,-0.2245478 -6.9157602,-0.2245478 -6.9241185,-0.2316652 -6.9328993,-0.238136 -6.9423738,-0.2435453 -6.9522584,-0.2483269 -6.9522584,-0.2483269 -6.9621908,-0.2519417 -6.9722819,-0.2548099 -6.9826462,-0.2563926 -6.9931806,-0.257175 -6.9931806,-0.257175 -7.006159,-0.2562499 -7.0188953,-0.2535805 -7.0188953,-0.2535805 -7.031867,-0.24925 -7.0443334,-0.2436264 -7.0443334,-0.2436264 -7.0564704,-0.2366189 -7.067836,-0.2284189 -7.067836,-0.2284189 -7.0777913,-0.2195701 -7.0866382,-0.2096168 -7.0866382,-0.2096168 -7.0956424,-0.1930776 -7.1040392,-0.1763682 -7.1112209,-0.159318 -7.1165967,-0.1417615 -7.1200651,-0.1236702 -7.1220805,-0.1051715 -7.1236894,-0.067495 -7.1236894,-0.067495 -7.1229948,-0.0464556 -7.1211776,-0.0255746 -7.1173928,-0.0049711 -7.1123528,0.0154555 -7.1123528,0.0154555 -7.1061951,0.0317346 -7.0987902,0.0472966 -7.0892362,0.0616231 -7.0783431,0.0751798 -7.0783431,0.0751798 -7.0694826,0.0834428 -7.0600928,0.0909575 -7.04984,0.0972523 -7.0390799,0.1028299 -7.0390799,0.1028299 -7.0282568,0.1070902 -7.0172351,0.110486 -7.0058691,0.1123826 -6.9942867,0.113337z M-6.9942867,0.0663317 L-6.9942867,0.0663317 -7.0077488,0.0645482 -7.0205543,0.0599722 -7.0205543,0.0599722 -7.0330262,0.0531583 -7.0440569,0.0442116 -7.0440569,0.0442116 -7.0521437,0.0340507 -7.0590737,0.0232509 -7.0642301,0.0114718 -7.0683891,-0.0008581 -7.0683891,-0.0008581 -7.0720879,-0.0174482 -7.0748597,-0.0341566 -7.0761839,-0.0510497 -7.0766841,-0.068048 -7.0766841,-0.068048 -7.0763585,-0.0846971 -7.0753833,-0.1012803 -7.0732411,-0.1177453 -7.0703246,-0.1341318 -7.0703246,-0.1341318 -7.0668426,-0.1462376 -7.0625326,-0.1579729 -7.0567872,-0.1690656 -7.05014,-0.1797546 -7.05014,-0.1797546 -7.044716,-0.1862692 -7.038818,-0.1922451 -7.0321331,-0.197327 -7.0249783,-0.2018747 -7.0249783,-0.2018747 -7.0176601,-0.2052808 -7.0101525,-0.2079751 -7.00232,-0.2094498 -6.9942867,-0.2101697 -6.9942867,-0.2101697 -6.9872668,-0.209541 -6.9803867,-0.2083257 -6.9671895,-0.2035337 -6.9671895,-0.2035337 -6.9544111,-0.196187 -6.9434104,-0.1863906 -6.9434104,-0.1863906 -6.9356499,-0.1757444 -6.9289549,-0.1645516 -6.9239468,-0.1524935 -6.9199078,-0.1399384 -6.9199078,-0.1399384 -6.9164849,-0.1226944 -6.9139703,-0.1053479 -6.912825,-0.0878469 -6.9124422,-0.07026 -6.9124422,-0.07026 -6.9137507,-0.037841 -6.9156656,-0.0220729 -6.9190934,-0.0068344 -6.9245212,0.0077037 -6.9319174,0.0215528 -6.9406482,0.0349345 -6.9500464,0.0480826 -6.9500464,0.0480826 -6.9600435,0.0554007 -6.9710605,0.0610782 -6.9710605,0.0610782 -6.9824098,0.0648976 -6.9942867,0.0663317z" transform="matrix(1,0,0,-1,8.651875,5.715)" fill="rgb(104,104,104)" fill-rule="nonzero" shaper:cutDepth="0.00762cm" stroke-linecap="round" stroke-linejoin="round" /><path d="M-8.0101627,0.9118892 L-8.0101627,0.9118892 -8.0029365,0.9110325 -7.9997532,0.9101245 -7.9970856,0.9086408 -7.9950836,0.9064144 -7.9936765,0.903524 -7.9918564,0.896634 -7.9918564,0.896634 -7.9926881,0.8914199 -7.9950981,0.8867181 -7.9950981,0.8867181 -7.9986586,0.8830761 -8.0032978,0.8809973 -8.0032978,0.8809973 -8.0053954,0.880616 -8.0053954,0.880616 -8.0139765,0.8802346 -8.1161867,0.8802346 -8.1161867,0.8802346 -8.1253012,0.8806854 -8.1339209,0.8834763 -8.1339209,0.8834763 -8.1361825,0.886016 -8.1378022,0.8888339 -8.1386882,0.8954898 -8.1386882,0.8954898 -8.1375441,0.9055964 -8.1375441,0.9055964 -8.1346837,0.9183727 -8.1346837,0.9183727 -8.1304885,0.9322932 -8.1304885,0.9322932 -8.1249585,0.9458322 -8.1249585,0.9458322 -8.1186817,0.958267 -8.1116834,0.9702223 -8.1034485,0.9813553 -8.094448,0.9919793 -8.094448,0.9919793 -8.0837815,1.0018875 -8.0726224,1.0111524 -8.0606849,1.0194009 -8.0483008,1.0270664 -8.0483008,1.0270664 -8.0378308,1.034096 -8.0292318,1.0432751 -8.0292318,1.0432751 -8.0266957,1.0482585 -8.0247875,1.0534168 -8.023511,1.0644418 -8.023511,1.0644418 -8.0242982,1.0724343 -8.0267528,1.0800784 -8.0267528,1.0800784 -8.0304638,1.0867673 -8.0353339,1.092664 -8.0353339,1.092664 -8.0412306,1.097534 -8.0479194,1.1012451 -8.0479194,1.1012451 -8.0555636,1.1036997 -8.0635561,1.1044869 -8.0635561,1.1044869 -8.0736176,1.1031864 -8.0830065,1.0993382 -8.0830065,1.0993382 -8.0912961,1.0932889 -8.0978804,1.0854178 -8.0978804,1.0854178 -8.1005945,1.080324 -8.1026477,1.0749298 -8.1026477,1.0749298 -8.103787,1.0701282 -8.1039825,1.0652046 -8.1039825,1.063679 -8.1039825,1.063679 -8.1036011,1.0629163 -8.1036011,1.060628 -8.1036011,1.060628 -8.1045138,1.0538351 -8.1077963,1.0478517 -8.1077963,1.0478517 -8.1129697,1.0441854 -8.1192378,1.0430844 -8.1192378,1.0430844 -8.1240608,1.0438657 -8.1283909,1.0461355 -8.1283909,1.0461355 -8.1318047,1.0493272 -8.1341116,1.0533817 -8.1341116,1.0533817 -8.1350651,1.058149 -8.1350651,1.058149 -8.1352558,1.0652046 -8.1352558,1.0652046 -8.1338513,1.0791458 -8.1295351,1.0924733 -8.1295351,1.0924733 -8.1227813,1.1044642 -8.1138984,1.1149748 -8.1138984,1.1149748 -8.1031605,1.123739 -8.0910155,1.1304208 -8.0910155,1.1304208 -8.0773984,1.1347471 -8.0631747,1.1361415 -8.0631747,1.1361415 -8.0489511,1.1347471 -8.0353339,1.1304208 -8.0353339,1.1304208 -8.0232647,1.1237585 -8.0126417,1.1149748 -8.0126417,1.1149748 -8.0038337,1.1042674 -7.9971957,1.092092 -7.9971957,1.092092 -7.9928785,1.078375 -7.991475,1.0640604 -7.991475,1.0640604 -7.9919381,1.0563867 -7.9930001,1.0488408 -7.9950752,1.0415109 -7.9977678,1.0343127 -7.9977678,1.0343127 -8.0013795,1.0276994 -8.0054935,1.0214706 -8.01044,1.0158787 -8.0158834,1.010667 -8.0158834,1.010667 -8.022939,1.0053277 -8.022939,1.0053277 -8.0326642,0.9992256 -8.0326642,0.9992256 -8.0566835,0.9824738 -8.0676299,0.9732381 -8.0773001,0.9629705 -8.0853953,0.9514292 -8.0921876,0.9388345 -8.1036011,0.9118892 -8.0101627,0.9118892z" transform="matrix(1,0,0,-1,8.651875,5.715)" fill="rgb(104,104,104)" fill-rule="nonzero" shaper:cutDepth="0.00762cm" stroke-linecap="round" stroke-linejoin="round" /><path d="M-8.348448,1.425296 L-8.2630186,1.425296 -8.2630186,1.425296 -8.2548962,1.4246038 -8.2512752,1.4237339 -8.2481823,1.4222353 -8.2457828,1.4199115 -8.2440404,1.4168056 -8.2416612,1.409278 -8.2416612,1.409278 -8.2423322,1.4044599 -8.2445216,1.4001248 -8.2445216,1.4001248 -8.2478228,1.3968746 -8.2519585,1.3947855 -8.2519585,1.3947855 -8.2561537,1.393832 -8.2561537,1.393832 -8.2641627,1.3936413 -8.3488294,1.3936413 -8.3488294,1.2887614 -8.3488294,1.2820873 -8.3488294,1.2820873 -8.3495922,1.2784641 -8.3495922,1.2784641 -8.3515132,1.2739616 -8.3549315,1.2704551 -8.3549315,1.2704551 -8.3594498,1.268155 -8.364466,1.2674041 -8.364466,1.2674041 -8.3691767,1.2681163 -8.3734285,1.2702645 -8.3734285,1.2702645 -8.3768576,1.2733975 -8.3793399,1.27732 -8.3793399,1.27732 -8.3802934,1.2815152 -8.3802934,1.2815152 -8.380484,1.2887614 -8.380484,1.4996654 -8.380484,1.4996654 -8.3801768,1.5050735 -8.3789585,1.510344 -8.3789585,1.510344 -8.3769379,1.5142801 -8.3740006,1.5175903 -8.3740006,1.5175903 -8.3713385,1.5195719 -8.3682798,1.520832 -8.3682798,1.520832 -8.3576012,1.5214041 -8.2279315,1.5214041 -8.2279315,1.5214041 -8.2200941,1.5206032 -8.2166215,1.5196895 -8.2136841,1.5181599 -8.2114438,1.5158281 -8.2098442,1.5127591 -8.2077183,1.5053861 -8.2077183,1.5053861 -8.2098442,1.4980131 -8.2114438,1.4949441 -8.2136841,1.4926122 -8.2166215,1.4910827 -8.2200941,1.490169 -8.2279315,1.4893681 -8.348448,1.4893681 -8.348448,1.425296z" transform="matrix(1,0,0,-1,8.651875,5.715)" fill="rgb(104,104,104)" fill-rule="nonzero" shaper:cutDepth="0.00762cm" stroke-linecap="round" stroke-linejoin="round" /><path d="M-7.991475,1.7007715 L-7.991475,1.7007715 -7.9918564,1.6939066 -7.9918564,1.6939066 -7.9930006,1.6897114 -7.9930006,1.6897114 -7.9954455,1.6867967 -7.9985306,1.6845628 -7.9985306,1.6845628 -8.0021101,1.6830151 -8.0059675,1.6824652 -8.0059675,1.6824652 -8.0102406,1.6831226 -8.0141672,1.6849442 -8.0141672,1.6849442 -8.0174505,1.6876406 -8.0196973,1.6912369 -8.0196973,1.6912369 -8.0206507,1.6944787 -8.0206507,1.6944787 -8.0208414,1.7007715 -8.0208414,1.9173961 -8.0208414,1.9173961 -8.02046,1.9252144 -8.02046,1.9252144 -8.0185531,1.9296003 -8.0185531,1.9296003 -8.0160748,1.932531 -8.0132287,1.934793 -8.0097774,1.935955 -8.0059675,1.9364652 -8.0059675,1.9364652 -7.9992942,1.9345377 -7.9965169,1.9330882 -7.9944073,1.9310588 -7.9930238,1.9283987 -7.9921979,1.9252544 -7.991475,1.9181589 -7.991475,1.7007715z" transform="matrix(1,0,0,-1,8.651875,5.715)" fill="rgb(104,104,104)" fill-rule="nonzero" shaper:cutDepth="0.00762cm" stroke-linecap="round" stroke-linejoin="round" /><path d="M-7.0560895,2.289728 L-7.0560895,2.289728 -7.0430394,2.2891237 -7.0301641,2.2875972 -7.0175928,2.2844676 -7.0052132,2.2803269 -7.0052132,2.2803269 -6.9938839,2.2745329 -6.9830916,2.2679588 -6.9731636,2.2601297 -6.963738,2.2515708 -6.963738,2.2515708 -6.9513969,2.2374283 -6.9403016,2.2224905 -6.9313244,2.2062004 -6.9236453,2.1890814 -6.9236453,2.1890814 -6.9180372,2.1688748 -6.9138663,2.1484422 -6.9119098,2.1276613 -6.9112027,2.106684 -6.9112027,2.106684 -6.9115161,2.0904921 -6.9125852,2.0743333 -6.9125852,2.0743333 -6.9142493,2.060584 -6.9167327,2.0469597 -6.9167327,2.0469597 -6.9199835,2.0343725 -6.9241983,2.0220745 -6.9241983,2.0220745 -6.9296899,2.009416 -6.9360878,1.9971894 -6.9360878,1.9971894 -6.9460356,1.9804208 -6.9514257,1.9724022 -6.9573153,1.9648223 -6.9638491,1.9578083 -6.9709576,1.9512991 -6.9861346,1.9391241 -6.9861346,1.9391241 -7.0024179,1.9311359 -7.0107227,1.9277434 -7.0192231,1.9250725 -7.0279522,1.9232449 -7.0368622,1.9220844 -7.0549835,1.920875 -7.1329569,1.920875 -7.1329569,1.920875 -7.1404906,1.921151 -7.147888,1.922534 -7.147888,1.922534 -7.1527212,1.9249751 -7.156736,1.928617 -7.156736,1.928617 -7.1593643,1.9324903 -7.1608836,1.9369121 -7.1608836,1.9369121 -7.1616207,1.945742 -7.1617131,1.9546082 -7.1617131,2.2604188 -7.1617131,2.2604188 -7.1614974,2.2665546 -7.1605651,2.2724582 -7.1582985,2.2779297 -7.155077,2.2830919 -7.155077,2.2830919 -7.149777,2.2863418 -7.1441652,2.2886126 -7.1381231,2.2895317 -7.1318509,2.289728 -7.0560895,2.289728z M-7.1158138,1.9667742 L-7.0549835,1.9667742 -7.0549835,1.9667742 -7.0396151,1.967526 -7.0245683,1.9706453 -7.0245683,1.9706453 -7.0125977,1.9761876 -7.0018952,1.9839173 -7.0018952,1.9839173 -6.9941128,1.9914627 -6.9868867,1.9994599 -6.9805729,2.0081981 -6.9747981,2.017374 -6.9747981,2.017374 -6.9697849,2.0273883 -6.9653948,2.0376338 -6.962043,2.0482643 -6.959314,2.0591258 -6.959314,2.0591258 -6.958208,2.0665913 -6.958208,2.0665913 -6.9573785,2.0729508 -6.9573785,2.0729508 -6.957102,2.0815224 -6.957102,2.096177 -6.957102,2.096177 -6.9573785,2.1274216 -6.9573785,2.1274216 -6.9584845,2.1462237 -6.9584845,2.1462237 -6.960973,2.1594958 -6.960973,2.1594958 -6.96595,2.1741504 -6.96595,2.1741504 -6.9704997,2.1842418 -6.9756189,2.1939961 -6.981694,2.2031846 -6.9883466,2.2120311 -6.9883466,2.2120311 -6.9949972,2.2192789 -7.0021122,2.2259512 -7.01004,2.2316161 -7.0184853,2.2366397 -7.0184853,2.2366397 -7.0258333,2.2401168 -7.0336929,2.2421697 -7.0336929,2.2421697 -7.0440409,2.2430794 -7.0544305,2.2432757 -7.1158138,2.2432757 -7.1158138,1.9667742z" transform="matrix(1,0,0,-1,8.651875,5.715)" fill="rgb(104,104,104)" fill-rule="nonzero" shaper:cutDepth="0.00762cm" stroke-linecap="round" stroke-linejoin="round" /><path d="M-7.4294047,4.1280911 L-7.4294047,4.1280911 -7.4299577,4.1181371 -7.4299577,4.1181371 -7.4316167,4.112054 -7.4316167,4.112054 -7.4351619,4.1078277 -7.4396352,4.1045885 -7.4396352,4.1045885 -7.4448256,4.1023444 -7.4504188,4.101547 -7.4504188,4.101547 -7.4566147,4.1025002 -7.4623083,4.1051415 -7.4623083,4.1051415 -7.4670691,4.1090514 -7.4703269,4.1142661 -7.4703269,4.1142661 -7.4717094,4.1189666 -7.4717094,4.1189666 -7.4719859,4.1280911 -7.4719859,4.4421968 -7.4719859,4.4421968 -7.4714329,4.4535334 -7.4714329,4.4535334 -7.4703756,4.456852 -7.4686679,4.4598929 -7.4686679,4.4598929 -7.4650744,4.4641424 -7.4609474,4.4674223 -7.4559431,4.4691072 -7.4504188,4.469847 -7.4504188,4.469847 -7.4407425,4.4670521 -7.4367153,4.4649504 -7.4336564,4.4620077 -7.4316504,4.4581505 -7.4304528,4.4535913 -7.4294047,4.4433028 -7.4294047,4.1280911z" transform="matrix(1,0,0,-1,8.651875,5.715)" fill="rgb(104,104,104)" fill-rule="nonzero" shaper:cutDepth="0.00762cm" stroke-linecap="round" stroke-linejoin="round" /><path d="M-7.0406435,4.1319622 L-7.0406435,4.1319622 -7.0414738,4.1199541 -7.0431777,4.114257 -7.0456206,4.108736 -7.0456206,4.108736 -7.0493553,4.1053692 -7.0534994,4.1029343 -7.0582434,4.1018658 -7.0633167,4.101547 -7.0633167,4.101547 -7.0736961,4.1041533 -7.0780688,4.1062012 -7.0814624,4.1091414 -7.0837441,4.1130951 -7.0851587,4.1178391 -7.0865428,4.1286442 -7.0865428,4.4361138 -7.0865428,4.4361138 -7.0862751,4.4447218 -7.0851603,4.4532569 -7.0851603,4.4532569 -7.0832454,4.4588422 -7.0796303,4.4634874 -7.0796303,4.4634874 -7.0742968,4.4667185 -7.0682937,4.4684645 -7.0682937,4.4684645 -7.0589263,4.4695833 -7.0494916,4.469847 -6.9604581,4.469847 -6.9604581,4.469847 -6.9484051,4.4695695 -6.9364025,4.4684645 -6.9364025,4.4684645 -6.9261726,4.4663704 -6.9162179,4.463211 -6.9162179,4.463211 -6.9016489,4.4563612 -6.8947126,4.4524812 -6.8881941,4.4480549 -6.8821912,4.4429546 -6.8766144,4.4372972 -6.8661711,4.4250537 -6.8661711,4.4250537 -6.8583074,4.411129 -6.8549292,4.4039942 -6.8522154,4.3966526 -6.850308,4.3890599 -6.8490563,4.3812632 -6.8476455,4.3653294 -6.8476455,4.3653294 -6.8491405,4.3470939 -6.8537285,4.3293843 -6.8537285,4.3293843 -6.8609076,4.3132158 -6.8705951,4.2984161 -6.8705951,4.2984161 -6.8824916,4.2854884 -6.8963098,4.2746369 -6.8963098,4.2746369 -6.9040181,4.270123 -6.9119715,4.2661869 -6.9203323,4.2632118 -6.9289369,4.2608119 -6.9289369,4.2608119 -6.9435915,4.2585999 -6.9435915,4.2585999 -6.9632231,4.2580469 -7.0406435,4.2580469 -7.0406435,4.1319622z M-6.9587991,4.3044991 L-6.9587991,4.3044991 -6.9458241,4.3055732 -6.9395269,4.3066283 -6.933458,4.3083049 -6.9276797,4.3107721 -6.9221525,4.3139231 -6.9115174,4.3213657 -6.9115174,4.3213657 -6.9037433,4.3309931 -6.9004269,4.336044 -6.8977949,4.3413793 -6.8959754,4.3470522 -6.8948047,4.3529948 -6.8935448,4.3653294 -6.8935448,4.3653294 -6.8948199,4.3775232 -6.8960171,4.3833734 -6.8978859,4.3889277 -6.9005984,4.39411 -6.9040254,4.3989774 -6.9120704,4.4081871 -6.9120704,4.4081871 -6.9235403,4.4152931 -6.9294628,4.4182761 -6.9356099,4.4205767 -6.9420088,4.422112 -6.948603,4.4230537 -6.9621171,4.4239477 -7.0406435,4.4239477 -7.0406435,4.3044991 -6.9587991,4.3044991z" transform="matrix(1,0,0,-1,8.651875,5.715)" fill="rgb(104,104,104)" fill-rule="nonzero" shaper:cutDepth="0.00762cm" stroke-linecap="round" stroke-linejoin="round" /><path d="M6.5981139,4.6298677 L6.5981139,4.6298677 6.6080993,4.629349 6.6179563,4.6281421 6.6275946,4.6257647 6.637099,4.6226696 6.637099,4.6226696 6.6456012,4.6186901 6.6537287,4.6141322 6.6612251,4.6086003 6.6683389,4.6024776 6.6683389,4.6024776 6.674558,4.5955798 6.6802096,4.5882947 6.6849203,4.5803678 6.6890694,4.5720576 6.6890694,4.5720576 6.6922751,4.5628539 6.6947383,4.5535025 6.6959891,4.5439098 6.6965261,4.5341752 6.6965261,4.5341752 6.6937061,4.5121894 6.6912233,4.5017148 6.6874532,4.4918619 6.6821045,4.4827717 6.6754597,4.4743074 6.6600102,4.4584223 6.6600102,4.4584223 6.6690075,4.4492785 6.6773536,4.4396427 6.6845403,4.4291307 6.6909689,4.4180459 6.6909689,4.4180459 6.6950732,4.4070802 6.6981921,4.3959061 6.6997329,4.3843984 6.7003594,4.3726974 6.7003594,4.3726974 6.6987348,4.3546424 6.6972741,4.3458274 6.6950354,4.3372675 6.6918336,4.3290232 6.6878329,4.3210409 6.6785,4.3055127 6.6785,4.3055127 6.6661766,4.2922112 6.6596252,4.2861252 6.6526062,4.280717 6.6450234,4.2761258 6.636985,4.2721949 6.6201488,4.2654336 6.6201488,4.2654336 6.6115194,4.263242 6.6027284,4.2618432 6.6027284,4.2618432 6.5803316,4.2610189 6.478026,4.2610428 6.478026,4.2610428 6.471891,4.2611334 6.4659483,4.2618825 6.4603725,4.2638873 6.4550778,4.2668547 6.4550778,4.2668547 6.4520894,4.2722898 6.4500845,4.2780068 6.4493488,4.2840876 6.4492767,4.2903587 6.4493495,4.6016994 6.4493495,4.6016994 6.4495032,4.6076534 6.450328,4.6133992 6.4524167,4.6187532 6.4554377,4.623818 6.4554377,4.623818 6.460504,4.6268367 6.465859,4.6289229 6.4716052,4.6297451 6.4775593,4.6298959 6.5981139,4.6298677z M6.5942088,4.4838759 L6.5942088,4.4838759 6.6028057,4.4840676 6.6113521,4.4849778 6.6113521,4.4849778 6.6176121,4.4866993 6.6235192,4.489399 6.6235192,4.489399 6.6294519,4.4929181 6.6348637,4.4970058 6.6394078,4.5020406 6.6434316,4.5076434 6.6434316,4.5076434 6.6464788,4.5139398 6.6488428,4.5204218 6.6500733,4.5272119 6.6506268,4.5341859 6.6506268,4.5341859 6.6498053,4.5426456 6.6479667,4.5507535 6.6444232,4.5582713 6.6398506,4.5654331 6.6398506,4.5654331 6.6340647,4.5713696 6.6277052,4.5763732 6.6203835,4.5798121 6.6124809,4.5823061 6.6124809,4.5823061 6.6044627,4.5836905 6.6044627,4.5836905 6.5931262,4.5839696 6.4952446,4.5839925 6.4952212,4.483899 6.5942088,4.4838759z M6.5797893,4.3069182 L6.5797893,4.3069182 6.592422,4.307264 6.6049514,4.3088479 6.6049514,4.3088479 6.6138865,4.3114098 6.6223725,4.3152033 6.6223725,4.3152033 6.6292497,4.3202601 6.6355375,4.3258819 6.6408573,4.3324315 6.6456043,4.3395301 6.6456043,4.3395301 6.6493032,4.3472854 6.6521982,4.3552579 6.6537395,4.3635957 6.65446,4.3721551 6.65446,4.3721551 6.6533947,4.3824555 6.6511604,4.3923733 6.6470171,4.4016664 6.6417499,4.4105918 6.6417499,4.4105918 6.63511,4.4184574 6.6277307,4.4253298 6.6190925,4.4305114 6.6096813,4.4346549 6.6096813,4.4346549 6.6043673,4.4363461 6.5988984,4.4374225 6.5988984,4.4374225 6.584797,4.4379788 6.4952105,4.4379997 6.4951799,4.306938 6.5797893,4.3069182z" transform="matrix(1,0,0,-1,8.651875,5.715)" fill="rgb(104,104,104)" fill-rule="nonzero" shaper:cutDepth="0.00762cm" stroke-linecap="round" stroke-linejoin="round" /><path d="M-7.3403712,4.1192431 L-7.3403712,4.1192431 -7.3455137,4.1117544 -7.3517077,4.1051415 -7.3517077,4.1051415 -7.3573971,4.1026894 -7.3635973,4.1021 -7.3635973,4.1021 -7.3682188,4.1025857 -7.3725848,4.1037039 -7.3765181,4.1058931 -7.3801874,4.108736 -7.3801874,4.108736 -7.3830303,4.1124053 -7.3852195,4.1163386 -7.3863377,4.1207046 -7.3868234,4.1253261 -7.3868234,4.1253261 -7.3855793,4.132539 -7.3823994,4.1391512 -7.3801874,4.1419162 -7.1739173,4.4831191 -7.1739173,4.4831191 -7.1695532,4.4894651 -7.1639632,4.4947321 -7.1639632,4.4947321 -7.1581361,4.4973029 -7.1517971,4.4980501 -7.1517971,4.4980501 -7.1472821,4.497499 -7.1430441,4.4963034 -7.1392651,4.4940393 -7.1357601,4.4911376 -7.1357601,4.4911376 -7.1329743,4.4875162 -7.1308007,4.4836464 -7.129653,4.4793607 -7.129124,4.474824 -7.129124,4.474824 -7.1293432,4.4711749 -7.13023,4.467635 -7.13023,4.467635 -7.1374191,4.4549159 -7.3403712,4.1192431z" transform="matrix(1,0,0,-1,8.651875,5.715)" fill="rgb(104,104,104)" fill-rule="nonzero" shaper:cutDepth="0.00762cm" stroke-linecap="round" stroke-linejoin="round" /><path d="M-6.8221692,2.1487122 L-6.6982965,2.1487122 -6.6982965,2.1487122 -6.6865192,2.1477085 -6.6812687,2.1464471 -6.676784,2.1442743 -6.6733047,2.1409047 -6.6707783,2.1364012 -6.6673284,2.1254861 -6.6673284,2.1254861 -6.6683013,2.1184999 -6.6714759,2.112214 -6.6714759,2.112214 -6.6762627,2.1075012 -6.6822595,2.104472 -6.6822595,2.104472 -6.6883425,2.1030895 -6.6883425,2.1030895 -6.6999556,2.102813 -6.8227222,2.102813 -6.8227222,1.9507372 -6.8227222,1.9410596 -6.8227222,1.9410596 -6.8238282,1.9358061 -6.8238282,1.9358061 -6.8266138,1.9292775 -6.8315703,1.924193 -6.8315703,1.924193 -6.8381218,1.9208578 -6.8453953,1.919769 -6.8453953,1.919769 -6.8522257,1.9208017 -6.8583909,1.9239165 -6.8583909,1.9239165 -6.8633631,1.9284594 -6.8669625,1.934147 -6.8669625,1.934147 -6.868345,1.9402301 -6.868345,1.9402301 -6.8686215,1.9507372 -6.8686215,2.2565478 -6.8686215,2.2565478 -6.868176,2.2643897 -6.8664095,2.2720319 -6.8664095,2.2720319 -6.8634795,2.2777392 -6.8592204,2.282539 -6.8592204,2.282539 -6.8553605,2.2854123 -6.8509254,2.2872395 -6.8509254,2.2872395 -6.843204,2.2879764 -6.8354413,2.288069 -6.6474203,2.288069 -6.6474203,2.288069 -6.6360561,2.2869077 -6.6310208,2.2855828 -6.6267615,2.2833649 -6.6235132,2.2799838 -6.6211938,2.2755337 -6.6181111,2.2648429 -6.6181111,2.2648429 -6.6211937,2.254152 -6.6235132,2.2497019 -6.6267615,2.2463208 -6.6310208,2.2441029 -6.6360561,2.242778 -6.6474203,2.2416167 -6.8221692,2.2416167 -6.8221692,2.1487122z" transform="matrix(1,0,0,-1,8.651875,5.715)" fill="rgb(104,104,104)" fill-rule="nonzero" shaper:cutDepth="0.00762cm" stroke-linecap="round" stroke-linejoin="round" /><path d="M-7.4332375,1.9833643 L-7.4509336,1.9369121 -7.4509336,1.9369121 -7.4547402,1.9300617 -7.4569481,1.9270561 -7.4595216,1.9245541 -7.4625633,1.9226971 -7.4660158,1.9214062 -7.4736068,1.919769 -7.4736068,1.919769 -7.478199,1.9203092 -7.4825467,1.9214646 -7.4864914,1.9236339 -7.4901968,1.9264051 -7.4901968,1.9264051 -7.4931981,1.9298782 -7.495548,1.9336414 -7.4968001,1.9378934 -7.4973859,1.9424421 -7.4973859,1.9424421 -7.4965564,1.9485251 -7.4965564,1.9485251 -7.4929619,1.9590322 -7.3746192,2.2698199 -7.3746192,2.2698199 -7.3707938,2.2779868 -7.3652182,2.2850275 -7.3652182,2.2850275 -7.3589663,2.2882804 -7.3519461,2.289175 -7.3519461,2.289175 -7.3438334,2.2881557 -7.3401812,2.2864794 -7.3367385,2.284198 -7.3367385,2.284198 -7.3303907,2.275077 -7.325955,2.2648429 -7.2065063,1.9551612 -7.2065063,1.9551612 -7.2048473,1.9488017 -7.2048473,1.9488017 -7.2042943,1.9424421 -7.2042943,1.9424421 -7.2048801,1.9378934 -7.2061322,1.9336414 -7.2084821,1.9298782 -7.2114833,1.9264051 -7.2114833,1.9264051 -7.2151888,1.923634 -7.2191335,1.9214646 -7.2234812,1.9203092 -7.2280734,1.919769 -7.2280734,1.919769 -7.2352593,1.9207592 -7.241622,1.924193 -7.241622,1.924193 -7.2473562,1.9313546 -7.2512995,1.9396771 -7.2673367,1.9833643 -7.4332375,1.9833643z M-7.4160945,2.0303696 L-7.2855857,2.0303696 -7.3508401,2.2001415 -7.4160945,2.0303696z" transform="matrix(1,0,0,-1,8.651875,5.715)" fill="rgb(104,104,104)" fill-rule="nonzero" shaper:cutDepth="0.00762cm" stroke-linecap="round" stroke-linejoin="round" /><path d="M-8.1466972,1.425296 L-8.0612678,1.425296 -8.0612678,1.425296 -8.0531455,1.4246038 -8.0495244,1.4237339 -8.0464315,1.4222353 -8.044032,1.4199115 -8.0422897,1.4168056 -8.0399104,1.409278 -8.0399104,1.409278 -8.0405814,1.4044599 -8.0427708,1.4001248 -8.0427708,1.4001248 -8.046072,1.3968746 -8.0502077,1.3947855 -8.0502077,1.3947855 -8.0544029,1.393832 -8.0544029,1.393832 -8.0624119,1.3936413 -8.1470786,1.3936413 -8.1470786,1.2887614 -8.1470786,1.2820873 -8.1470786,1.2820873 -8.1478414,1.2784641 -8.1478414,1.2784641 -8.1497625,1.2739616 -8.1531807,1.2704551 -8.1531807,1.2704551 -8.157699,1.268155 -8.1627153,1.2674041 -8.1627153,1.2674041 -8.1674259,1.2681163 -8.1716777,1.2702645 -8.1716777,1.2702645 -8.1751068,1.2733975 -8.1775891,1.27732 -8.1775891,1.27732 -8.1785426,1.2815152 -8.1785426,1.2815152 -8.1787333,1.2887614 -8.1787333,1.4996654 -8.1787333,1.4996654 -8.178426,1.5050735 -8.1772078,1.510344 -8.1772078,1.510344 -8.1751871,1.5142801 -8.1722498,1.5175903 -8.1722498,1.5175903 -8.1695877,1.5195719 -8.1665291,1.520832 -8.1665291,1.520832 -8.1558504,1.5214041 -8.0261807,1.5214041 -8.0261807,1.5214041 -8.0183433,1.5206032 -8.0148707,1.5196895 -8.0119333,1.5181599 -8.009693,1.5158281 -8.0080934,1.5127591 -8.0059675,1.5053861 -8.0059675,1.5053861 -8.0080935,1.4980131 -8.009693,1.4949441 -8.0119333,1.4926122 -8.0148707,1.4910827 -8.0183434,1.490169 -8.0261807,1.4893681 -8.1466972,1.4893681 -8.1466972,1.425296z" transform="matrix(1,0,0,-1,8.651875,5.715)" fill="rgb(104,104,104)" fill-rule="nonzero" shaper:cutDepth="0.00762cm" stroke-linecap="round" stroke-linejoin="round" /><path d="M-8.4987123,1.5236924 L-8.4987123,1.5236924 -8.4854101,1.5223489 -8.4725877,1.5185438 -8.4725877,1.5185438 -8.4599052,1.5123649 -8.4483699,1.5042419 -8.4483699,1.5042419 -8.4389341,1.4923272 -8.4301444,1.4801654 -8.4226466,1.4675095 -8.4170654,1.4541205 -8.4134864,1.4399657 -8.411429,1.425229 -8.4098504,1.3947855 -8.4098504,1.3947855 -8.4103331,1.3791927 -8.411679,1.3637256 -8.414557,1.3484818 -8.4184315,1.3333831 -8.4184315,1.3333831 -8.4232136,1.3216276 -8.4289333,1.3104493 -8.4362525,1.3002558 -8.4445561,1.2906683 -8.4445561,1.2906683 -8.4563762,1.2812972 -8.4697273,1.274269 -8.4697273,1.274269 -8.4835366,1.2697979 -8.4979495,1.2681668 -8.4979495,1.2681668 -8.5069001,1.2688048 -8.5156838,1.2706458 -8.5156838,1.2706458 -8.5246298,1.2736324 -8.5332273,1.2775107 -8.5332273,1.2775107 -8.5415976,1.2823435 -8.549436,1.2879987 -8.549436,1.2879987 -8.5563017,1.2941013 -8.562403,1.3009656 -8.562403,1.3009656 -8.5744037,1.3238957 -8.5793566,1.3356544 -8.583064,1.3477624 -8.5854561,1.3602391 -8.586846,1.3729969 -8.5879555,1.3989807 -8.5879555,1.3989807 -8.5874765,1.4134906 -8.5862233,1.4278913 -8.5836131,1.4421006 -8.5801372,1.4561879 -8.5801372,1.4561879 -8.5758905,1.4674148 -8.5707837,1.4781473 -8.5641948,1.4880277 -8.5566823,1.4973771 -8.5566823,1.4973771 -8.5505716,1.5030757 -8.5440958,1.5082583 -8.5370249,1.5125995 -8.5296042,1.5164461 -8.5296042,1.5164461 -8.52214,1.5193842 -8.5145388,1.5217262 -8.5067002,1.5230342 -8.4987123,1.5236924z M-8.4987123,1.491275 L-8.4987123,1.491275 -8.5079965,1.4900449 -8.5168279,1.4868891 -8.5168279,1.4868891 -8.5254292,1.4821899 -8.5330366,1.4760197 -8.5330366,1.4760197 -8.5386137,1.4690122 -8.543393,1.4615641 -8.5469491,1.4534405 -8.5498174,1.4449371 -8.5498174,1.4449371 -8.5523683,1.4334957 -8.5542799,1.4219727 -8.5555381,1.3985993 -8.5555381,1.3985993 -8.554641,1.3756804 -8.5511522,1.3530242 -8.5511522,1.3530242 -8.5487509,1.3446754 -8.5457785,1.3365821 -8.5418161,1.328932 -8.5372318,1.3215602 -8.5372318,1.3215602 -8.5294235,1.3129461 -8.519879,1.306305 -8.519879,1.306305 -8.5096542,1.3020978 -8.4987123,1.3005843 -8.4987123,1.3005843 -8.4891261,1.301856 -8.4800246,1.3051609 -8.4800246,1.3051609 -8.4712119,1.3102275 -8.4636252,1.3169837 -8.4636252,1.3169837 -8.4582731,1.3243259 -8.4536559,1.3320451 -8.450202,1.340361 -8.4474165,1.3490197 -8.4474165,1.3490197 -8.4450559,1.3609121 -8.4433217,1.3728752 -8.4422678,1.3970738 -8.4422678,1.3970738 -8.4431702,1.4194317 -8.4444909,1.4303063 -8.4468548,1.4408155 -8.4505982,1.4508419 -8.455699,1.4603929 -8.4682018,1.4786894 -8.4682018,1.4786894 -8.4750963,1.4837363 -8.4826943,1.4876519 -8.4826943,1.4876519 -8.4905214,1.4902859 -8.4987123,1.491275z" transform="matrix(1,0,0,-1,8.651875,5.715)" fill="rgb(104,104,104)" fill-rule="nonzero" shaper:cutDepth="0.00762cm" stroke-linecap="round" stroke-linejoin="round" /><path d="M-6.5950185,-0.2145938 L-6.5869999,-0.2145938 -6.5869999,-0.2145938 -6.5822994,-0.2156998 -6.5822994,-0.2156998 -6.5766302,-0.2184995 -6.5723453,-0.2231653 -6.5723453,-0.2231653 -6.569468,-0.2290957 -6.5684743,-0.2356079 -6.5684743,-0.2356079 -6.5695895,-0.2424782 -6.5728983,-0.2486034 -6.5728983,-0.2486034 -6.5775691,-0.2533838 -6.5834054,-0.256622 -6.5834054,-0.256622 -6.587553,-0.257175 -6.5988895,-0.257175 -6.7957586,-0.257175 -6.7957586,-0.257175 -6.8014746,-0.2569664 -6.8069609,-0.2560716 -6.8120196,-0.2538999 -6.8167727,-0.2508155 -6.8167727,-0.2508155 -6.819772,-0.245666 -6.8218566,-0.2402383 -6.8226896,-0.23443 -6.8228557,-0.2284189 -6.8228557,0.0856869 -6.8228557,0.0856869 -6.8225451,0.0908219 -6.8216454,0.0957683 -6.8196933,0.1003777 -6.8170492,0.1047654 -6.8170492,0.1047654 -6.813674,0.1077591 -6.8099842,0.1100479 -6.8057851,0.1111961 -6.8012886,0.111678 -6.8012886,0.111678 -6.7914544,0.1089618 -6.787345,0.106891 -6.7842012,0.1039682 -6.7821228,0.1001054 -6.7808659,0.0955176 -6.7797215,0.0851338 -6.7797215,-0.2145938 -6.5950185,-0.2145938z" transform="matrix(1,0,0,-1,8.651875,5.715)" fill="rgb(104,104,104)" fill-rule="nonzero" shaper:cutDepth="0.00762cm" stroke-linecap="round" stroke-linejoin="round" /><path d="M-7.2132758,0.0862399 L-7.2132758,0.0862399 -7.2096699,0.0958235 -7.2038748,0.1042125 -7.2038748,0.1042125 -7.2005166,0.1065526 -7.1969449,0.1083076 -7.1889437,0.109466 -7.1889437,0.109466 -7.1844946,0.1089811 -7.1802844,0.1078962 -7.1764746,0.1058051 -7.1729066,0.1031065 -7.1729066,0.1031065 -7.1701348,0.0997871 -7.1679652,0.0962066 -7.1668102,0.0921862 -7.1662706,0.0878989 -7.1662706,0.0878989 -7.1668236,0.0820923 -7.1668236,0.0820923 -7.1684826,0.0757328 -7.2597281,-0.2311839 -7.2597281,-0.2311839 -7.2638228,-0.2425623 -7.2667609,-0.2477942 -7.2702351,-0.252751 -7.2702351,-0.252751 -7.2741027,-0.2553391 -7.2782184,-0.2572117 -7.2826983,-0.2580346 -7.2873782,-0.258281 -7.2873782,-0.258281 -7.2961636,-0.2573152 -7.3001692,-0.2556303 -7.3039683,-0.253304 -7.3039683,-0.253304 -7.3073531,-0.2488018 -7.3101725,-0.2440001 -7.3139224,-0.2333959 -7.4057209,0.0729678 -7.4057209,0.0729678 -7.4079329,0.0815393 -7.4079329,0.0815393 -7.4084859,0.0878989 -7.4084859,0.0878989 -7.4079232,0.0923429 -7.4066868,0.0964743 -7.4043283,0.1000848 -7.4012968,0.103383 -7.4012968,0.103383 -7.3973984,0.1059857 -7.3932863,0.1079917 -7.3888237,0.1090183 -7.3841538,0.109466 -7.3841538,0.109466 -7.376714,0.1083838 -7.3734156,0.1067184 -7.3703287,0.104489 -7.3703287,0.104489 -7.3651834,0.096714 -7.3620336,0.0878989 -7.2873782,-0.1615055 -7.2132758,0.0862399z" transform="matrix(1,0,0,-1,8.651875,5.715)" fill="rgb(104,104,104)" fill-rule="nonzero" shaper:cutDepth="0.00762cm" stroke-linecap="round" stroke-linejoin="round" /><path d="M-7.0379967,-2.3119901 L-7.0379967,-2.3119901 -7.0333852,-2.3049536 -7.0277662,-2.298718 -7.0277662,-2.298718 -7.0221201,-2.296056 -7.0158766,-2.2954 -7.0158766,-2.2954 -7.0112328,-2.2956671 -7.0068405,-2.2965695 -7.0029068,-2.2986304 -6.9992865,-2.301483 -6.9992865,-2.301483 -6.9968868,-2.3059955 -6.9951894,-2.3107064 -6.9943095,-2.3208381 -6.9943095,-2.6382619 -6.9943095,-2.6382619 -6.9946214,-2.643566 -6.9955546,-2.6486665 -6.9976035,-2.6534013 -7.0003925,-2.6578935 -7.0003925,-2.6578935 -7.0039885,-2.6609142 -7.007894,-2.6632097 -7.0122948,-2.6643441 -7.0169826,-2.664806 -7.0169826,-2.664806 -7.0240534,-2.6638922 -7.0305312,-2.660935 -7.0305312,-2.660935 -7.035358,-2.656612 -7.0385497,-2.6509809 -7.0385497,-2.6509809 -7.0399322,-2.6451744 -7.0399322,-2.6451744 -7.0402087,-2.6343908 -7.0402087,-2.4037886 -7.1076751,-2.5160482 -7.1076751,-2.5160482 -7.1130968,-2.5248489 -7.1198412,-2.5326383 -7.1198412,-2.5326383 -7.1261939,-2.5353421 -7.1331133,-2.5359563 -7.1331133,-2.5359563 -7.1395647,-2.5353293 -7.1455558,-2.5329148 -7.1455558,-2.5329148 -7.1516492,-2.5267228 -7.1563394,-2.5193662 -7.2249118,-2.4037886 -7.2249118,-2.6338378 -7.2249118,-2.6338378 -7.2254648,-2.6440684 -7.2254648,-2.6440684 -7.2271238,-2.650428 -7.2271238,-2.650428 -7.2304243,-2.6561037 -7.2354188,-2.660382 -7.2354188,-2.660382 -7.2417731,-2.6632838 -7.2486909,-2.664253 -7.2486909,-2.664253 -7.259515,-2.6605941 -7.2639504,-2.6579651 -7.2672297,-2.6543895 -7.2693174,-2.6498381 -7.2705016,-2.644547 -7.271364,-2.6327318 -7.271364,-2.3241562 -7.271364,-2.3241562 -7.270051,-2.3128363 -7.2686446,-2.3078451 -7.2663384,-2.3036565 -7.2628692,-2.3005051 -7.258356,-2.2982847 -7.2475849,-2.2954 -7.2475849,-2.2954 -7.2418958,-2.2961276 -7.2368013,-2.298718 -7.2368013,-2.298718 -7.231445,-2.3046716 -7.2271238,-2.3114371 -7.1325603,-2.4679369 -7.0379967,-2.3119901z" transform="matrix(1,0,0,-1,8.651875,5.715)" fill="rgb(104,104,104)" fill-rule="nonzero" shaper:cutDepth="0.00762cm" stroke-linecap="round" stroke-linejoin="round" /><path d="M-7.7624306,-2.293188 L-7.7624306,-2.293188 -7.7527198,-2.2938198 -7.7431424,-2.2951361 -7.7337823,-2.2975673 -7.7245499,-2.3006535 -7.7245499,-2.3006535 -7.7151985,-2.3048678 -7.7061603,-2.3096128 -7.697642,-2.3152388 -7.6894342,-2.3213912 -7.6894342,-2.3213912 -7.6757524,-2.3386675 -7.6630072,-2.3563021 -7.6572786,-2.3653657 -7.6521354,-2.3746532 -7.6476948,-2.3842094 -7.6440427,-2.3940673 -7.6411261,-2.4042064 -7.6388531,-2.4145916 -7.6358699,-2.4359599 -7.6343577,-2.4578908 -7.6335809,-2.480103 -7.6335809,-2.480103 -7.6342809,-2.5027126 -7.6362324,-2.5251398 -7.6404055,-2.5472434 -7.6460235,-2.5691365 -7.6460235,-2.5691365 -7.6529576,-2.5861819 -7.6612511,-2.6023904 -7.6662899,-2.6099455 -7.6718639,-2.617171 -7.6839042,-2.6310728 -7.6839042,-2.6310728 -7.6922625,-2.6381902 -7.7010433,-2.644661 -7.7105178,-2.6500703 -7.7204024,-2.6548519 -7.7204024,-2.6548519 -7.7303348,-2.6584667 -7.7404259,-2.6613349 -7.7507902,-2.6629176 -7.7613246,-2.6637 -7.7613246,-2.6637 -7.774303,-2.6627749 -7.7870393,-2.6601055 -7.7870393,-2.6601055 -7.800011,-2.655775 -7.8124774,-2.6501514 -7.8124774,-2.6501514 -7.8246144,-2.6431439 -7.83598,-2.6349439 -7.83598,-2.6349439 -7.8459353,-2.6260951 -7.8547821,-2.6161418 -7.8547821,-2.6161418 -7.8637864,-2.5996026 -7.8721832,-2.5828932 -7.8793648,-2.565843 -7.8847407,-2.5482865 -7.8882091,-2.5301952 -7.8902245,-2.5116965 -7.8918333,-2.47402 -7.8918333,-2.47402 -7.8911388,-2.4529806 -7.8893216,-2.4320996 -7.8855367,-2.4114961 -7.8804968,-2.3910695 -7.8804968,-2.3910695 -7.874339,-2.3747904 -7.8669341,-2.3592284 -7.8573802,-2.3449019 -7.8464871,-2.3313452 -7.8464871,-2.3313452 -7.8376266,-2.3230822 -7.8282368,-2.3155675 -7.817984,-2.3092727 -7.8072239,-2.3036951 -7.8072239,-2.3036951 -7.7964008,-2.2994348 -7.7853791,-2.296039 -7.7740131,-2.2941424 -7.7624306,-2.293188z M-7.7624306,-2.3401933 L-7.7624306,-2.3401933 -7.7758928,-2.3419768 -7.7886983,-2.3465528 -7.7886983,-2.3465528 -7.8011702,-2.3533667 -7.8122009,-2.3623134 -7.8122009,-2.3623134 -7.8202877,-2.3724743 -7.8272176,-2.3832741 -7.8323741,-2.3950532 -7.836533,-2.4073831 -7.836533,-2.4073831 -7.8402318,-2.4239732 -7.8430037,-2.4406816 -7.8443279,-2.4575747 -7.8448281,-2.474573 -7.8448281,-2.474573 -7.8445025,-2.4912221 -7.8435273,-2.5078053 -7.8413851,-2.5242703 -7.8384685,-2.5406568 -7.8384685,-2.5406568 -7.8349866,-2.5527626 -7.8306766,-2.5644979 -7.8249312,-2.5755906 -7.8182839,-2.5862796 -7.8182839,-2.5862796 -7.81286,-2.5927942 -7.8069619,-2.5987701 -7.8002771,-2.603852 -7.7931223,-2.6083997 -7.7931223,-2.6083997 -7.7858041,-2.6118058 -7.7782964,-2.6145001 -7.770464,-2.6159748 -7.7624306,-2.6166947 -7.7624306,-2.6166947 -7.7554108,-2.616066 -7.7485307,-2.6148507 -7.7353335,-2.6100587 -7.7353335,-2.6100587 -7.7225551,-2.602712 -7.7115544,-2.5929156 -7.7115544,-2.5929156 -7.7037939,-2.5822694 -7.6970989,-2.5710766 -7.6920907,-2.5590185 -7.6880517,-2.5464634 -7.6880517,-2.5464634 -7.6846288,-2.5292194 -7.6821143,-2.5118729 -7.680969,-2.4943719 -7.6805862,-2.476785 -7.6805862,-2.476785 -7.6818947,-2.444366 -7.6838096,-2.4285979 -7.6872373,-2.4133594 -7.6926652,-2.3988213 -7.7000614,-2.3849722 -7.7087922,-2.3715905 -7.7181904,-2.3584424 -7.7181904,-2.3584424 -7.7281875,-2.3511243 -7.7392045,-2.3454468 -7.7392045,-2.3454468 -7.7505538,-2.3416274 -7.7624306,-2.3401933z" transform="matrix(1,0,0,-1,8.651875,5.715)" fill="rgb(104,104,104)" fill-rule="nonzero" shaper:cutDepth="0.00762cm" stroke-linecap="round" stroke-linejoin="round" /><path d="M8.1282688,-2.6178008 L8.1282688,-2.6178008 8.1387469,-2.619043 8.1433627,-2.6203597 8.1472306,-2.6225109 8.1501335,-2.6257393 8.1521738,-2.6299303 8.154813,-2.6399209 8.154813,-2.6399209 8.1536069,-2.6474813 8.1501125,-2.654299 8.1501125,-2.654299 8.1449498,-2.6595798 8.1382229,-2.662594 8.1382229,-2.662594 8.1351814,-2.663147 8.1351814,-2.663147 8.1227388,-2.6637 7.974534,-2.6637 7.974534,-2.6637 7.961318,-2.6630463 7.9549843,-2.6614219 7.9488194,-2.6589995 7.9488194,-2.6589995 7.9455401,-2.655317 7.9431915,-2.6512311 7.9421841,-2.6465637 7.9419068,-2.6415799 7.9419068,-2.6415799 7.9423947,-2.6342154 7.9435659,-2.6269253 7.9435659,-2.6269253 7.9477134,-2.6083997 7.9477134,-2.6083997 7.9537964,-2.5882151 7.9537964,-2.5882151 7.9618149,-2.5685835 7.9618149,-2.5685835 7.9709163,-2.5505529 7.9810638,-2.5332179 7.9930044,-2.517075 8.0060552,-2.5016701 8.0060552,-2.5016701 8.0215216,-2.4873033 8.0377023,-2.4738692 8.0550117,-2.4619088 8.0729686,-2.4507938 8.0729686,-2.4507938 8.0807912,-2.4459638 8.0881501,-2.440601 8.0946684,-2.4342724 8.1006187,-2.4272912 8.1006187,-2.4272912 8.1042959,-2.4200654 8.1070629,-2.4125857 8.1083979,-2.4047068 8.1089138,-2.3965995 8.1089138,-2.3965995 8.1077724,-2.3850104 8.1042132,-2.3739264 8.1042132,-2.3739264 8.0988322,-2.3642276 8.0917707,-2.3556773 8.0917707,-2.3556773 8.0832204,-2.3486158 8.0735216,-2.3432348 8.0735216,-2.3432348 8.0624375,-2.3396756 8.0508484,-2.3385343 8.0508484,-2.3385343 8.0434619,-2.3391289 8.0362592,-2.3404199 8.0293613,-2.3428653 8.0226453,-2.3459998 8.0226453,-2.3459998 8.0164037,-2.3501381 8.0106254,-2.3547713 8.0056198,-2.36023 8.0010782,-2.3661844 8.0010782,-2.3661844 7.9971427,-2.3735704 7.9941656,-2.381392 7.9941656,-2.381392 7.9925136,-2.3883543 7.9922301,-2.3954936 7.9922301,-2.3977056 7.9922301,-2.3977056 7.9927831,-2.3988116 7.9927831,-2.4021296 7.9927831,-2.4021296 7.9924248,-2.407158 7.9914596,-2.4119792 7.9894243,-2.4164349 7.9867001,-2.4206552 7.9867001,-2.4206552 7.9831041,-2.4236759 7.9791986,-2.4259714 7.9747978,-2.4271059 7.97011,-2.4275677 7.97011,-2.4275677 7.9631166,-2.4264349 7.9568379,-2.4231437 7.9568379,-2.4231437 7.951888,-2.4185158 7.9485429,-2.4126367 7.9485429,-2.4126367 7.9475288,-2.4092501 7.9471604,-2.4057241 7.9471604,-2.4057241 7.9468839,-2.3954936 7.9468839,-2.3954936 7.9475098,-2.3853034 7.9489204,-2.3752787 7.9516502,-2.3655321 7.9551789,-2.3559538 7.9551789,-2.3559538 7.9597865,-2.3470597 7.9649719,-2.3385671 7.9711219,-2.3307453 7.977852,-2.3233267 7.977852,-2.3233267 7.9854448,-2.3166881 7.9934221,-2.3106187 8.0020369,-2.3054928 8.0110322,-2.30093 8.0110322,-2.30093 8.0208212,-2.2973899 8.0307771,-2.2946569 8.0410079,-2.2932523 8.0514014,-2.292635 8.0514014,-2.292635 8.061795,-2.2932523 8.0720257,-2.2946569 8.0819817,-2.2973899 8.0917707,-2.30093 8.0917707,-2.30093 8.1007159,-2.3054741 8.1092709,-2.3105904 8.1171708,-2.3166679 8.1246743,-2.3233267 8.1246743,-2.3233267 8.1313583,-2.3308878 8.1374459,-2.3388525 8.1425503,-2.3474822 8.147071,-2.3565068 8.147071,-2.3565068 8.1506007,-2.3663697 8.1533309,-2.3763965 8.1547409,-2.386694 8.155366,-2.3971526 8.155366,-2.3971526 8.1546945,-2.4082794 8.1531546,-2.419221 8.1501456,-2.4298494 8.1462414,-2.4402868 8.1462414,-2.4402868 8.1410045,-2.4498759 8.1350392,-2.4589078 8.1278667,-2.467016 8.1199738,-2.474573 8.1199738,-2.474573 8.1097432,-2.482315 8.1097432,-2.482315 8.0956417,-2.4911631 8.0956417,-2.4911631 8.0779193,-2.5030587 8.0608136,-2.5154531 8.0449415,-2.5288449 8.0376607,-2.5360707 8.0309195,-2.5437329 8.0247751,-2.5518776 8.0191816,-2.5604678 8.0093327,-2.5787302 8.0007431,-2.5980109 7.9927831,-2.6178008 8.1282688,-2.6178008z" transform="matrix(1,0,0,-1,8.651875,5.715)" fill="rgb(104,104,104)" fill-rule="nonzero" shaper:cutDepth="0.00762cm" stroke-linecap="round" stroke-linejoin="round" /><path d="M7.3684428,-2.3119901 L7.3684428,-2.3119901 7.3730543,-2.3049536 7.3786733,-2.298718 7.3786733,-2.298718 7.3843194,-2.296056 7.3905629,-2.2954 7.3905629,-2.2954 7.3952067,-2.2956671 7.399599,-2.2965695 7.4035327,-2.2986304 7.407153,-2.301483 7.407153,-2.301483 7.4095527,-2.3059955 7.4112501,-2.3107064 7.41213,-2.3208381 7.41213,-2.6382619 7.41213,-2.6382619 7.4118181,-2.643566 7.4108849,-2.6486665 7.408836,-2.6534013 7.406047,-2.6578935 7.406047,-2.6578935 7.402451,-2.6609142 7.3985455,-2.6632097 7.3941447,-2.6643441 7.3894569,-2.664806 7.3894569,-2.664806 7.3823861,-2.6638922 7.3759083,-2.660935 7.3759083,-2.660935 7.3710815,-2.656612 7.3678898,-2.6509809 7.3678898,-2.6509809 7.3665073,-2.6451744 7.3665073,-2.6451744 7.3662308,-2.6343908 7.3662308,-2.4037886 7.2987644,-2.5160482 7.2987644,-2.5160482 7.2933427,-2.5248489 7.2865983,-2.5326383 7.2865983,-2.5326383 7.2802456,-2.5353421 7.2733262,-2.5359563 7.2733262,-2.5359563 7.2668748,-2.5353293 7.2608837,-2.5329148 7.2608837,-2.5329148 7.2547903,-2.5267228 7.2501001,-2.5193662 7.1815277,-2.4037886 7.1815277,-2.6338378 7.1815277,-2.6338378 7.1809747,-2.6440684 7.1809747,-2.6440684 7.1793157,-2.650428 7.1793157,-2.650428 7.1760152,-2.6561037 7.1710207,-2.660382 7.1710207,-2.660382 7.1646664,-2.6632838 7.1577486,-2.664253 7.1577486,-2.664253 7.1469245,-2.6605941 7.1424891,-2.6579651 7.1392098,-2.6543895 7.1371221,-2.6498381 7.1359379,-2.644547 7.1350755,-2.6327318 7.1350755,-2.3241562 7.1350755,-2.3241562 7.1363885,-2.3128363 7.1377949,-2.3078451 7.1401011,-2.3036565 7.1435703,-2.3005051 7.1480835,-2.2982847 7.1588546,-2.2954 7.1588546,-2.2954 7.1645437,-2.2961276 7.1696382,-2.298718 7.1696382,-2.298718 7.1749945,-2.3046716 7.1793157,-2.3114371 7.2738792,-2.4679369 7.3684428,-2.3119901z" transform="matrix(1,0,0,-1,8.651875,5.715)" fill="rgb(104,104,104)" fill-rule="nonzero" shaper:cutDepth="0.00762cm" stroke-linecap="round" stroke-linejoin="round" /><path d="M6.6876961,-2.294294 L6.6876961,-2.294294 6.7014982,-2.2962962 6.7150286,-2.298839 6.7280157,-2.3024628 6.7401887,-2.3077067 6.7514252,-2.3148143 6.7619271,-2.3233836 6.7817066,-2.3429583 6.7817066,-2.3429583 6.7857164,-2.3480187 6.7891721,-2.3534653 6.7891721,-2.3534653 6.7906864,-2.3580491 6.7911076,-2.3628664 6.7911076,-2.3628664 6.7905787,-2.3674031 6.789431,-2.3716888 6.7872574,-2.3755585 6.7844716,-2.37918 6.7844716,-2.37918 6.7809666,-2.3820817 6.7771876,-2.3843457 6.7729495,-2.3855414 6.7684345,-2.3860925 6.7684345,-2.3860925 6.761983,-2.3854655 6.755992,-2.383051 6.755992,-2.383051 6.7493,-2.3770173 6.7435494,-2.3700554 6.7435494,-2.3700554 6.731586,-2.3581883 6.7252282,-2.3530047 6.7184192,-2.3487212 6.7110374,-2.3455797 6.7031625,-2.3434218 6.6865901,-2.3407463 6.6865901,-2.3407463 6.6764363,-2.3417091 6.666585,-2.3437102 6.6572262,-2.3474007 6.6481564,-2.3520828 6.6481564,-2.3520828 6.638978,-2.3585859 6.6303663,-2.3656995 6.622677,-2.373807 6.6155292,-2.382498 6.6155292,-2.382498 6.608675,-2.3929469 6.6024817,-2.4037364 6.597357,-2.4150766 6.5928561,-2.4267382 6.5928561,-2.4267382 6.5892235,-2.439558 6.5864064,-2.4525118 6.5849417,-2.465688 6.5842845,-2.478997 6.5842845,-2.478997 6.585294,-2.4944491 6.5873925,-2.5096889 6.5912632,-2.524583 6.5961741,-2.5392743 6.5961741,-2.5392743 6.6024199,-2.553192 6.6095748,-2.5665439 6.6182898,-2.5789248 6.6279718,-2.5907036 6.6279718,-2.5907036 6.634169,-2.5968533 6.6407415,-2.6024966 6.6479718,-2.6072522 6.6556219,-2.6114412 6.6556219,-2.6114412 6.6634045,-2.6142015 6.6713187,-2.6163087 6.6794455,-2.617362 6.6876961,-2.6178008 6.6876961,-2.6178008 6.6961839,-2.617159 6.7044551,-2.6157048 6.7123616,-2.6128822 6.7200468,-2.6092292 6.7200468,-2.6092292 6.7282237,-2.6033763 6.735866,-2.596947 6.7426987,-2.5896449 6.7490794,-2.5818556 6.7490794,-2.5818556 6.7530568,-2.5770988 6.7579275,-2.573284 6.7579275,-2.573284 6.7635669,-2.5713019 6.7695405,-2.5707955 6.7695405,-2.5707955 6.7739346,-2.5712688 6.7780833,-2.5723457 6.781818,-2.574441 6.7853011,-2.577155 6.7853011,-2.577155 6.7880955,-2.5809051 6.790211,-2.5849182 6.791247,-2.5893494 6.7916607,-2.5940216 6.7916607,-2.5940216 6.7906919,-2.6003446 6.7880661,-2.6061877 6.7880661,-2.6061877 6.7814475,-2.615108 6.7739645,-2.6233308 6.7739645,-2.6233308 6.7547195,-2.6401274 6.7445888,-2.6473952 6.7338483,-2.6533063 6.722352,-2.6575356 6.7102275,-2.660367 6.6849311,-2.6637 6.6849311,-2.6637 6.6688031,-2.6612461 6.6530436,-2.6581207 6.6380207,-2.653652 6.6309006,-2.6507042 6.624102,-2.6471703 6.617634,-2.6430336 6.6114581,-2.6383642 6.599816,-2.6277317 6.5888418,-2.6158816 6.5782015,-2.6034227 6.5782015,-2.6034227 6.5691651,-2.5893051 6.5610277,-2.5747416 6.5543783,-2.5594399 6.5486158,-2.5436984 6.5486158,-2.5436984 6.5442971,-2.5272394 6.5409394,-2.5106334 6.5391825,-2.4937826 6.5383853,-2.476785 6.5383853,-2.476785 6.539512,-2.45839 6.5418872,-2.4402283 6.5463071,-2.4224487 6.5519339,-2.4048946 6.5519339,-2.4048946 6.5593436,-2.3878645 6.5677918,-2.3714456 6.5779934,-2.3560586 6.5892616,-2.3412993 6.5892616,-2.3412993 6.6102146,-2.3218077 6.621306,-2.3133637 6.6331352,-2.306482 6.6458819,-2.3015431 6.6593945,-2.2982258 6.6876961,-2.294294z" transform="matrix(1,0,0,-1,8.651875,5.715)" fill="rgb(104,104,104)" fill-rule="nonzero" shaper:cutDepth="0.00762cm" stroke-linecap="round" stroke-linejoin="round" /><path d="M6.8556736,0.122862 L6.8556736,0.122862 6.8653844,0.1222302 6.8749618,0.1209139 6.8843219,0.1184827 6.8935543,0.1153965 6.8935543,0.1153965 6.9029057,0.1111822 6.9119439,0.1064372 6.9204623,0.1008112 6.92867,0.0946588 6.92867,0.0946588 6.9423519,0.0773825 6.955097,0.0597479 6.9608256,0.0506843 6.9659688,0.0413968 6.9704094,0.0318406 6.9740615,0.0219827 6.9769781,0.0118436 6.9792511,0.0014584 6.9822343,-0.0199099 6.9837465,-0.0418408 6.9845233,-0.064053 6.9845233,-0.064053 6.9838233,-0.0866626 6.9818718,-0.1090898 6.9776988,-0.1311934 6.9720807,-0.1530865 6.9720807,-0.1530865 6.9651466,-0.1701319 6.9568531,-0.1863404 6.9518143,-0.1938955 6.9462403,-0.201121 6.9342,-0.2150228 6.9342,-0.2150228 6.9258418,-0.2221402 6.9170609,-0.228611 6.9075865,-0.2340203 6.8977018,-0.2388019 6.8977018,-0.2388019 6.8877694,-0.2424167 6.8776783,-0.2452849 6.867314,-0.2468676 6.8567796,-0.24765 6.8567796,-0.24765 6.8438013,-0.2467249 6.831065,-0.2440555 6.831065,-0.2440555 6.8180932,-0.239725 6.8056268,-0.2341014 6.8056268,-0.2341014 6.7934899,-0.2270939 6.7821242,-0.2188939 6.7821242,-0.2188939 6.7721689,-0.2100451 6.7633221,-0.2000918 6.7633221,-0.2000918 6.7543178,-0.1835526 6.7459211,-0.1668432 6.7387394,-0.149793 6.7333636,-0.1322365 6.7298951,-0.1141452 6.7278798,-0.0956465 6.7262709,-0.05797 6.7262709,-0.05797 6.7269655,-0.0369306 6.7287827,-0.0160496 6.7325675,0.0045539 6.7376075,0.0249805 6.7376075,0.0249805 6.7437652,0.0412596 6.7511701,0.0568216 6.760724,0.0711481 6.7716171,0.0847048 6.7716171,0.0847048 6.7804776,0.0929678 6.7898675,0.1004825 6.8001202,0.1067773 6.8108804,0.1123549 6.8108804,0.1123549 6.8217035,0.1166152 6.8327251,0.120011 6.8440912,0.1219076 6.8556736,0.122862z M6.8556736,0.0758567 L6.8556736,0.0758567 6.8422114,0.0740732 6.829406,0.0694972 6.829406,0.0694972 6.8169341,0.0626833 6.8059033,0.0537366 6.8059033,0.0537366 6.7978165,0.0435757 6.7908866,0.0327759 6.7857302,0.0209968 6.7815712,0.0086669 6.7815712,0.0086669 6.7778724,-0.0079232 6.7751005,-0.0246316 6.7737764,-0.0415247 6.7732761,-0.058523 6.7732761,-0.058523 6.7736017,-0.0751721 6.774577,-0.0917553 6.7767191,-0.1082203 6.7796357,-0.1246068 6.7796357,-0.1246068 6.7831177,-0.1367126 6.7874276,-0.1484479 6.7931731,-0.1595406 6.7998203,-0.1702296 6.7998203,-0.1702296 6.8052442,-0.1767442 6.8111423,-0.1827201 6.8178271,-0.187802 6.8249819,-0.1923497 6.8249819,-0.1923497 6.8323001,-0.1957558 6.8398078,-0.1984501 6.8476402,-0.1999248 6.8556736,-0.2006447 6.8556736,-0.2006447 6.8626935,-0.200016 6.8695736,-0.1988007 6.8827707,-0.1940087 6.8827707,-0.1940087 6.8955491,-0.186662 6.9065499,-0.1768656 6.9065499,-0.1768656 6.9143103,-0.1662194 6.9210053,-0.1550266 6.9260135,-0.1429685 6.9300525,-0.1304134 6.9300525,-0.1304134 6.9334754,-0.1131694 6.9359899,-0.0958229 6.9371352,-0.0783219 6.937518,-0.060735 6.937518,-0.060735 6.9362096,-0.028316 6.9342946,-0.0125479 6.9308669,0.0026906 6.925439,0.0172287 6.9180428,0.0310778 6.909312,0.0444595 6.8999138,0.0576076 6.8999138,0.0576076 6.8899168,0.0649257 6.8788997,0.0706032 6.8788997,0.0706032 6.8675504,0.0744226 6.8556736,0.0758567z" transform="matrix(1,0,0,-1,8.651875,5.715)" fill="rgb(104,104,104)" fill-rule="nonzero" shaper:cutDepth="0.00762cm" stroke-linecap="round" stroke-linejoin="round" /><path d="M7.0292784,2.4528385 L7.0292784,2.4528385 7.0330948,2.4586617 7.0377451,2.4638223 7.0377451,2.4638223 7.0424177,2.4660254 7.0475847,2.4665682 7.0475847,2.4665682 7.0550629,2.4656004 7.0583184,2.4638948 7.0613144,2.461534 7.0613144,2.461534 7.0633004,2.4577995 7.0647051,2.4539008 7.0654334,2.445516 7.0654334,2.1828204 7.0654334,2.1828204 7.0644029,2.1742097 7.0627073,2.1702913 7.0603991,2.1665736 7.0603991,2.1665736 7.0574231,2.1640737 7.054191,2.162174 7.050549,2.1612351 7.0466694,2.1608529 7.0466694,2.1608529 7.0408177,2.1616091 7.0354568,2.1640565 7.0354568,2.1640565 7.0314622,2.1676341 7.0288207,2.1722943 7.0288207,2.1722943 7.0276766,2.1770997 7.0276766,2.1770997 7.0274478,2.1860241 7.0274478,2.3768673 6.9716135,2.2839628 6.9716135,2.2839628 6.9671266,2.2766795 6.9615451,2.2702331 6.9615451,2.2702331 6.9562876,2.2679954 6.9505613,2.2674871 6.9505613,2.2674871 6.9452221,2.268006 6.940264,2.2700042 6.940264,2.2700042 6.9352212,2.2751287 6.9313397,2.2812169 6.8745901,2.3768673 6.8745901,2.1864817 6.8745901,2.1864817 6.8741324,2.178015 6.8741324,2.178015 6.8727595,2.172752 6.8727595,2.172752 6.870028,2.1680548 6.8658946,2.1645141 6.8658946,2.1645141 6.8606358,2.1621127 6.8549108,2.1613105 6.8549108,2.1613105 6.8459529,2.1643386 6.8422823,2.1665143 6.8395683,2.1694735 6.8378406,2.1732401 6.8368606,2.1776189 6.8361468,2.187397 6.8361468,2.44277 6.8361468,2.44277 6.8372335,2.4521382 6.8383974,2.4562688 6.840306,2.4597353 6.843177,2.4623433 6.8469121,2.4641809 6.8558261,2.4665682 6.8558261,2.4665682 6.8605343,2.4659661 6.8647505,2.4638223 6.8647505,2.4638223 6.8691833,2.4588952 6.8727595,2.4532961 6.9510189,2.323779 7.0292784,2.4528385z" transform="matrix(1,0,0,-1,8.651875,5.715)" fill="rgb(104,104,104)" fill-rule="nonzero" shaper:cutDepth="0.00762cm" stroke-linecap="round" stroke-linejoin="round" /><path d="M6.6105216,2.4670259 L6.6105216,2.4670259 6.6213217,2.4665257 6.6319771,2.4652625 6.6423809,2.4626724 6.6526261,2.4592457 6.6526261,2.4592457 6.6620021,2.4544506 6.6709336,2.44901 6.67915,2.4425307 6.6869504,2.4354475 6.6869504,2.4354475 6.6971638,2.4237434 6.706346,2.411381 6.7137755,2.3978995 6.7201306,2.3837322 6.7201306,2.3837322 6.7247718,2.3670094 6.7282236,2.3500996 6.7298427,2.3329017 6.7304279,2.3155412 6.7304279,2.3155412 6.7301686,2.302141 6.7292838,2.2887682 6.7292838,2.2887682 6.7279066,2.2773895 6.7258513,2.2661141 6.7258513,2.2661141 6.723161,2.2556972 6.719673,2.2455195 6.719673,2.2455195 6.7151281,2.2350436 6.7098333,2.2249249 6.7098333,2.2249249 6.7016007,2.2110475 6.6922658,2.1981384 6.6868585,2.1923337 6.6809756,2.1869468 6.6684153,2.1768709 6.6684153,2.1768709 6.6549395,2.1702599 6.6480665,2.1674524 6.6410317,2.165242 6.6264339,2.1627691 6.6114369,2.1617682 6.5469072,2.1617682 6.5469072,2.1617682 6.5406724,2.1619967 6.5345504,2.1631412 6.5345504,2.1631412 6.5305505,2.1651614 6.5272279,2.1681754 6.5272279,2.1681754 6.5250528,2.1713809 6.5237955,2.1750403 6.5237955,2.1750403 6.523109,2.1896853 6.523109,2.44277 6.523109,2.44277 6.5232874,2.4478479 6.524059,2.4527336 6.5259348,2.4572618 6.5286009,2.461534 6.5286009,2.461534 6.5329871,2.4642235 6.5376313,2.4661028 6.5426317,2.4668634 6.5478225,2.4670259 6.6105216,2.4670259z M6.5610946,2.1997538 L6.6114369,2.1997538 6.6114369,2.1997538 6.6241556,2.2003759 6.6366081,2.2029574 6.6366081,2.2029574 6.6465148,2.2075441 6.6553721,2.2139411 6.6553721,2.2139411 6.6677929,2.226804 6.6777973,2.2416294 6.6777973,2.2416294 6.6855793,2.2583961 6.6906117,2.2761826 6.6906117,2.2761826 6.691527,2.282361 6.691527,2.282361 6.6922135,2.2876241 6.6922135,2.2876241 6.6924423,2.2947178 6.6924423,2.3068457 6.6924423,2.3068457 6.6922135,2.3327033 6.6922135,2.3327033 6.6912982,2.3482637 6.6912982,2.3482637 6.6892387,2.3592475 6.6892387,2.3592475 6.6851198,2.3713754 6.6851198,2.3713754 6.677118,2.3877995 6.6665847,2.402725 6.6665847,2.402725 6.6610808,2.4087232 6.6551925,2.4142451 6.6486316,2.4189333 6.6416423,2.4230907 6.6416423,2.4230907 6.6355612,2.4259684 6.6290567,2.4276673 6.6290567,2.4276673 6.6118946,2.4285826 6.5610946,2.4285826 6.5610946,2.1997538z" transform="matrix(1,0,0,-1,8.651875,5.715)" fill="rgb(104,104,104)" fill-rule="nonzero" shaper:cutDepth="0.00762cm" stroke-linecap="round" stroke-linejoin="round" /><path d="M6.9751857,4.3035078 L6.977397,4.3007422 6.977397,4.3007422 6.9818891,4.2938598 6.9829615,4.2899468 6.9834766,4.2858098 6.9834766,4.2858098 6.982913,4.2812407 6.9817085,4.2769417 6.9794478,4.2730877 6.9765602,4.2694978 6.9765602,4.2694978 6.9728369,4.2665687 6.9688433,4.2642976 6.9644014,4.2631177 6.959692,4.2625892 6.959692,4.2625892 6.9539595,4.2631924 6.9486326,4.2653568 6.9486326,4.2653568 6.9429068,4.2704249 6.9381281,4.2764193 6.8369614,4.4169057 6.7888502,4.416917 6.7888209,4.2919383 6.7888209,4.2919383 6.7879557,4.2801233 6.7867704,4.2748324 6.7846816,4.2702816 6.7814014,4.2667068 6.7769654,4.2640787 6.7661404,4.2604224 6.7661404,4.2604224 6.7582195,4.261752 6.7512106,4.2656795 6.7512106,4.2656795 6.7460433,4.2714131 6.7434716,4.2786768 6.7434716,4.2786768 6.7429198,4.283654 6.7429222,4.294161 6.7429931,4.5972067 6.7429931,4.5972067 6.7431653,4.6041495 6.7441338,4.6108404 6.7466042,4.6170562 6.7501881,4.6229196 6.7501881,4.6229196 6.7563122,4.6263817 6.7627573,4.6287566 6.769632,4.6296761 6.7767339,4.6298259 6.8690854,4.6298043 6.8690854,4.6298043 6.8873572,4.6288552 6.905306,4.6253719 6.905306,4.6253719 6.9206103,4.6195576 6.9348885,4.6115399 6.9348885,4.6115399 6.9451197,4.6035182 6.9544858,4.5947087 6.9624016,4.5845784 6.9694423,4.5736511 6.9694423,4.5736511 6.97471,4.5618207 6.9787958,4.5496927 6.9809204,4.537071 6.9818733,4.5241544 6.9818733,4.5241544 6.9813789,4.5145461 6.9802542,4.50505 6.978065,4.4957433 6.9752285,4.4865518 6.9752285,4.4865518 6.9674509,4.4700091 6.956972,4.4550349 6.956972,4.4550349 6.9506251,4.4483165 6.9438891,4.442064 6.9287633,4.4315388 6.9287633,4.4315388 6.9200501,4.427138 6.9111101,4.4233726 6.9017967,4.4206525 6.8922621,4.4185518 6.9751857,4.3035078z M6.788861,4.4633692 L6.8668344,4.463351 6.8668344,4.463351 6.8775018,4.4635226 6.8881253,4.464452 6.8881253,4.464452 6.8956981,4.4665549 6.9027812,4.4699786 6.9027812,4.4699786 6.9097809,4.4743737 6.9162056,4.4793875 6.9216725,4.4854316 6.9265655,4.4920932 6.9265655,4.4920932 6.9303141,4.4995408 6.933223,4.5072249 6.9347384,4.5153013 6.9354209,4.5236123 6.9354209,4.5236123 6.9345853,4.5324342 6.9328027,4.5409664 6.929462,4.5490219 6.9251981,4.5567948 6.9251981,4.5567948 6.9197871,4.5637045 6.9137543,4.569872 6.9066672,4.5747811 6.8989356,4.5789211 6.8989356,4.5789211 6.8931187,4.5811445 6.8870469,4.5825184 6.8870469,4.5825184 6.8707335,4.5833517 6.7888891,4.5833708 6.788861,4.4633692z" transform="matrix(1,0,0,-1,8.651875,5.715)" fill="rgb(104,104,104)" fill-rule="nonzero" shaper:cutDepth="0.00762cm" stroke-linecap="round" stroke-linejoin="round" /><path d="M6.9686469,2.8570953 A0.635,0.635 238.2810622 1,0 7.0016388,2.8380474 L7.0016388,2.8380474 7.0012165,2.8373117 7.0004706,2.8360197 6.9989787,2.8334356 6.9959948,2.8282675 6.9900272,2.8179312 6.9780919,2.7972587 6.9542213,2.7559136 6.9064801,2.6732235 6.8109978,2.5078432 A0.01905,0.01905 330 1,0 6.7780022,2.5268932 L6.7780022,2.5268932 6.8734426,2.6922008 6.9211628,2.7748546 6.9450229,2.8161815 6.9569529,2.8368449 6.962918,2.8471767 6.9659005,2.8523425 6.9673917,2.8549255 6.9681374,2.8562169 6.9686469,2.8570953z" transform="matrix(1,0,0,-1,8.651875,5.715)" fill="rgb(104,104,104)" fill-rule="nonzero" shaper:cutDepth="0.00762cm" stroke-linecap="round" stroke-linejoin="round" /><path d="M6.9686469,-1.6514047 A0.635,0.635 238.2810622 1,0 7.0016388,-1.6704526 L7.0016388,-1.6704526 7.0012165,-1.6711883 7.0004706,-1.6724803 6.9989787,-1.6750644 6.9959948,-1.6802325 6.9900272,-1.6905688 6.9780919,-1.7112413 6.9542213,-1.7525864 6.9064801,-1.8352765 6.8109978,-2.0006568 A0.01905,0.01905 330 1,0 6.7780022,-1.9816068 L6.7780022,-1.9816068 6.8734426,-1.8162992 6.9211628,-1.7336454 6.9450229,-1.6923185 6.9569529,-1.6716551 6.962918,-1.6613233 6.9659005,-1.6561575 6.9673917,-1.6535745 6.9681374,-1.6522831 6.9686469,-1.6514047z" transform="matrix(1,0,0,-1,8.651875,5.715)" fill="rgb(104,104,104)" fill-rule="nonzero" shaper:cutDepth="0.00762cm" stroke-linecap="round" stroke-linejoin="round" /><path d="M-7.7633531,-1.6514047 A0.635,0.635 238.2810622 1,0 -7.7303612,-1.6704526 L-7.7303612,-1.6704526 -7.7307835,-1.6711883 -7.7315294,-1.6724803 -7.7330213,-1.6750644 -7.7360052,-1.6802325 -7.7419728,-1.6905688 -7.7539081,-1.7112413 -7.7777787,-1.7525864 -7.8255199,-1.8352765 -7.9210022,-2.0006568 A0.01905,0.01905 330 1,0 -7.9539978,-1.9816068 L-7.9539978,-1.9816068 -7.8585574,-1.8162992 -7.8108372,-1.7336454 -7.7869771,-1.6923185 -7.7750471,-1.6716551 -7.769082,-1.6613233 -7.7660995,-1.6561575 -7.7646083,-1.6535745 -7.7638626,-1.6522831 -7.7633531,-1.6514047z" transform="matrix(1,0,0,-1,8.651875,5.715)" fill="rgb(104,104,104)" fill-rule="nonzero" shaper:cutDepth="0.00762cm" stroke-linecap="round" stroke-linejoin="round" /><path d="M-0.452,4.95505 L-0.737182,4.95505 A0.1953068,0.1953068 340.0339865 1,1 -1.104318,4.95505 L-5.499682,4.95505 A0.1953068,0.1953068 340.0339865 1,1 -5.866818,4.95505 L-6.1774,4.95505 A0.15875,0.15875 90 0,1 -6.33615,4.7963 L-6.33615,3.2609 A0.15875,0.15875 180 0,1 -6.1774,3.10215 L-5.8741424,3.10215 A0.1953068,0.1953068 167.7949516 1,1 -5.499682,3.12755 L-1.104318,3.12755 A0.1953068,0.1953068 160.0339865 1,1 -0.737182,3.12755 L-0.452,3.12755 A0.15875,0.15875 270 0,1 -0.29325,3.2863 L-0.29325,4.7963 A0.15875,0.15875 0 0,1 -0.452,4.95505z" transform="matrix(1,0,0,-1,8.651875,5.715)" fill="rgb(255,255,255)" stroke="rgb(0,0,0)" stroke-width="0.0010cm" stroke-linecap="round" stroke-linejoin="round" shaper:cutDepth="0.15875cm" /><path d="M1.79355,-5.1287 L2.048161,-5.1287 A0.2577446,0.2577446 161.7210415 1,1 2.537639,-5.1287 L5.350161,-5.1287 A0.2577446,0.2577446 161.7210415 1,1 5.839639,-5.1287 L6.09425,-5.1287 A0.15875,0.15875 270 0,1 6.253,-4.96995 L6.253,4.94455 A0.15875,0.15875 0 0,1 6.09425,5.1033 L5.839639,5.1033 A0.2577446,0.2577446 341.7210415 1,1 5.350161,5.1033 L2.537639,5.1033 A0.2577446,0.2577446 341.7210415 1,1 2.048161,5.1033 L1.79355,5.1033 A0.15875,0.15875 90 0,1 1.6348,4.94455 L1.6348,-4.96995 A0.15875,0.15875 180 0,1 1.79355,-5.1287z" transform="matrix(1,0,0,-1,8.651875,5.715)" fill="rgb(255,255,255)" stroke="rgb(0,0,0)" stroke-width="0.0010cm" stroke-linecap="round" stroke-linejoin="round" shaper:cutDepth="0.15875cm" /><path d="M6.7700037,-5.1120045 A0.15875,0.15875 270 0,0 6.6112537,-4.9532545 L6.6112537,-3.20345 A0.15875,0.15875 180 0,0 6.7700037,-3.0447 L7.9525037,-3.0447 A0.15875,0.15875 90 0,0 8.1112537,-3.20345 L8.1112537,-4.9532545 A0.15875,0.15875 0 0,0 7.9525037,-5.1120045 L6.7700037,-5.1120045z" transform="matrix(1,0,0,-1,8.651875,5.715)" fill="rgb(255,255,255)" stroke="rgb(0,0,0)" stroke-width="0.0010cm" stroke-linecap="round" stroke-linejoin="round" shaper:cutDepth="0.15875cm" /><path d="M-8.343265,-0.0381 a0.215265,0.215265 0 1,1 0.43053,0 a0.215265,0.215265 0 1,1 -0.43053,0z" transform="matrix(1,0,0,-1,8.651875,5.715)" fill="rgb(255,255,255)" stroke="rgb(0,0,0)" stroke-width="0.0010cm" stroke-linecap="round" stroke-linejoin="round" shaper:cutDepth="0.15875cm" /><path d="M0.457835,5.08 a0.215265,0.215265 0 1,1 0.43053,0 a0.215265,0.215265 0 1,1 -0.43053,0z" transform="matrix(1,0,0,-1,8.651875,5.715)" fill="rgb(255,255,255)" stroke="rgb(0,0,0)" stroke-width="0.0010cm" stroke-linecap="round" stroke-linejoin="round" shaper:cutDepth="0.15875cm" /><path d="M7.912735,-0.0381 a0.215265,0.215265 0 1,1 0.43053,0 a0.215265,0.215265 0 1,1 -0.43053,0z" transform="matrix(1,0,0,-1,8.651875,5.715)" fill="rgb(255,255,255)" stroke="rgb(0,0,0)" stroke-width="0.0010cm" stroke-linecap="round" stroke-linejoin="round" shaper:cutDepth="0.15875cm" /><path d="M0.457835,-5.08 a0.215265,0.215265 0 1,1 0.43053,0 a0.215265,0.215265 0 1,1 -0.43053,0z" transform="matrix(1,0,0,-1,8.651875,5.715)" fill="rgb(255,255,255)" stroke="rgb(0,0,0)" stroke-width="0.0010cm" stroke-linecap="round" stroke-linejoin="round" shaper:cutDepth="0.15875cm" /><path d="M-7.9560715,-5.1087 A0.15875,0.15875 270 0,0 -8.1148215,-4.94995 L-8.1148215,-3.20345 A0.15875,0.15875 180 0,0 -7.9560715,-3.0447 L-6.7735715,-3.0447 A0.15875,0.15875 90 0,0 -6.6148215,-3.20345 L-6.6148215,-4.94995 A0.15875,0.15875 0 0,0 -6.7735715,-5.1087 L-7.9560715,-5.1087z" transform="matrix(1,0,0,-1,8.651875,5.715)" fill="rgb(255,255,255)" stroke="rgb(0,0,0)" stroke-width="0.0010cm" stroke-linecap="round" stroke-linejoin="round" shaper:cutDepth="0.15875cm" /><path d="M-7.915275,1.397 a0.396875,0.396875 0 1,1 0.79375,0 a0.396875,0.396875 0 1,1 -0.79375,0z" transform="matrix(1,0,0,-1,8.651875,5.715)" fill="rgb(255,255,255)" stroke="rgb(0,0,0)" stroke-width="0.0010cm" stroke-linecap="round" stroke-linejoin="round" shaper:cutDepth="0.15875cm" /><path d="M-7.826375,-1.11125 a0.396875,0.396875 0 1,1 0.79375,0 a0.396875,0.396875 0 1,1 -0.79375,0z" transform="matrix(1,0,0,-1,8.651875,5.715)" fill="rgb(255,255,255)" stroke="rgb(0,0,0)" stroke-width="0.0010cm" stroke-linecap="round" stroke-linejoin="round" shaper:cutDepth="0.15875cm" /><path d="M6.905625,3.39725 a0.396875,0.396875 0 1,1 0.79375,0 a0.396875,0.396875 0 1,1 -0.79375,0z" transform="matrix(1,0,0,-1,8.651875,5.715)" fill="rgb(255,255,255)" stroke="rgb(0,0,0)" stroke-width="0.0010cm" stroke-linecap="round" stroke-linejoin="round" shaper:cutDepth="0.15875cm" /><path d="M6.905625,-1.11125 a0.396875,0.396875 0 1,1 0.79375,0 a0.396875,0.396875 0 1,1 -0.79375,0z" transform="matrix(1,0,0,-1,8.651875,5.715)" fill="rgb(255,255,255)" stroke="rgb(0,0,0)" stroke-width="0.0010cm" stroke-linecap="round" stroke-linejoin="round" shaper:cutDepth="0.15875cm" /><path d="M0.2286,-4.064 a0.4445,0.4445 0 1,1 0.889,0 a0.4445,0.4445 0 1,1 -0.889,0z" transform="matrix(1,0,0,-1,8.651875,5.715)" fill="rgb(255,255,255)" stroke="rgb(0,0,0)" stroke-width="0.0010cm" stroke-linecap="round" stroke-linejoin="round" shaper:cutDepth="0.15875cm" /><path d="M0.2286,-2.032 a0.4445,0.4445 0 1,1 0.889,0 a0.4445,0.4445 0 1,1 -0.889,0z" transform="matrix(1,0,0,-1,8.651875,5.715)" fill="rgb(255,255,255)" stroke="rgb(0,0,0)" stroke-width="0.0010cm" stroke-linecap="round" stroke-linejoin="round" shaper:cutDepth="0.15875cm" /><path d="M0.2286,0 a0.4445,0.4445 0 1,1 0.889,0 a0.4445,0.4445 0 1,1 -0.889,0z" transform="matrix(1,0,0,-1,8.651875,5.715)" fill="rgb(255,255,255)" stroke="rgb(0,0,0)" stroke-width="0.0010cm" stroke-linecap="round" stroke-linejoin="round" shaper:cutDepth="0.15875cm" /><path d="M0.2286,2.032 a0.4445,0.4445 0 1,1 0.889,0 a0.4445,0.4445 0 1,1 -0.889,0z" transform="matrix(1,0,0,-1,8.651875,5.715)" fill="rgb(255,255,255)" stroke="rgb(0,0,0)" stroke-width="0.0010cm" stroke-linecap="round" stroke-linejoin="round" shaper:cutDepth="0.15875cm" /><path d="M0.2286,4.064 a0.4445,0.4445 0 1,1 0.889,0 a0.4445,0.4445 0 1,1 -0.889,0z" transform="matrix(1,0,0,-1,8.651875,5.715)" fill="rgb(255,255,255)" stroke="rgb(0,0,0)" stroke-width="0.0010cm" stroke-linecap="round" stroke-linejoin="round" shaper:cutDepth="0.15875cm" /><path d="M-7.9375,3.429 a0.4445,0.4445 0 1,1 0.889,0 a0.4445,0.4445 0 1,1 -0.889,0z" transform="matrix(1,0,0,-1,8.651875,5.715)" fill="rgb(255,255,255)" stroke="rgb(0,0,0)" stroke-width="0.0010cm" stroke-linecap="round" stroke-linejoin="round" shaper:cutDepth="0.15875cm" /><path d="M-5.588,-4.41325 L-4.699,-4.41325 A0.15875,0.15875 270 0,1 -4.54025,-4.2545 L-4.54025,-3.3655 A0.15875,0.15875 0 0,1 -4.699,-3.20675 L-5.588,-3.20675 A0.15875,0.15875 90 0,1 -5.74675,-3.3655 L-5.74675,-4.2545 A0.15875,0.15875 180 0,1 -5.588,-4.41325z" transform="matrix(1,0,0,-1,8.651875,5.715)" fill="rgb(255,255,255)" stroke="rgb(0,0,0)" stroke-width="0.0010cm" stroke-linecap="round" stroke-linejoin="round" shaper:cutDepth="0.15875cm" /><path d="M-5.588,-2.53365 L-4.699,-2.53365 A0.15875,0.15875 270 0,1 -4.54025,-2.3749 L-4.54025,-1.4859 A0.15875,0.15875 0 0,1 -4.699,-1.32715 L-5.588,-1.32715 A0.15875,0.15875 90 0,1 -5.74675,-1.4859 L-5.74675,-2.3749 A0.15875,0.15875 180 0,1 -5.588,-2.53365z" transform="matrix(1,0,0,-1,8.651875,5.715)" fill="rgb(255,255,255)" stroke="rgb(0,0,0)" stroke-width="0.0010cm" stroke-linecap="round" stroke-linejoin="round" shaper:cutDepth="0.15875cm" /><path d="M-3.7084,-2.53365 L-2.8194,-2.53365 A0.15875,0.15875 270 0,1 -2.66065,-2.3749 L-2.66065,-1.4859 A0.15875,0.15875 0 0,1 -2.8194,-1.32715 L-3.7084,-1.32715 A0.15875,0.15875 90 0,1 -3.86715,-1.4859 L-3.86715,-2.3749 A0.15875,0.15875 180 0,1 -3.7084,-2.53365z" transform="matrix(1,0,0,-1,8.651875,5.715)" fill="rgb(255,255,255)" stroke="rgb(0,0,0)" stroke-width="0.0010cm" stroke-linecap="round" stroke-linejoin="round" shaper:cutDepth="0.15875cm" /><path d="M-3.7084,-4.41325 L-2.8194,-4.41325 A0.15875,0.15875 270 0,1 -2.66065,-4.2545 L-2.66065,-3.3655 A0.15875,0.15875 0 0,1 -2.8194,-3.20675 L-3.7084,-3.20675 A0.15875,0.15875 90 0,1 -3.86715,-3.3655 L-3.86715,-4.2545 A0.15875,0.15875 180 0,1 -3.7084,-4.41325z" transform="matrix(1,0,0,-1,8.651875,5.715)" fill="rgb(255,255,255)" stroke="rgb(0,0,0)" stroke-width="0.0010cm" stroke-linecap="round" stroke-linejoin="round" shaper:cutDepth="0.15875cm" /><path d="M-1.8288,-4.41325 L-0.9398,-4.41325 A0.15875,0.15875 270 0,1 -0.78105,-4.2545 L-0.78105,-3.3655 A0.15875,0.15875 0 0,1 -0.9398,-3.20675 L-1.8288,-3.20675 A0.15875,0.15875 90 0,1 -1.98755,-3.3655 L-1.98755,-4.2545 A0.15875,0.15875 180 0,1 -1.8288,-4.41325z" transform="matrix(1,0,0,-1,8.651875,5.715)" fill="rgb(255,255,255)" stroke="rgb(0,0,0)" stroke-width="0.0010cm" stroke-linecap="round" stroke-linejoin="round" shaper:cutDepth="0.15875cm" /><path d="M-1.8288,-2.53365 L-0.9398,-2.53365 A0.15875,0.15875 270 0,1 -0.78105,-2.3749 L-0.78105,-1.4859 A0.15875,0.15875 0 0,1 -0.9398,-1.32715 L-1.8288,-1.32715 A0.15875,0.15875 90 0,1 -1.98755,-1.4859 L-1.98755,-2.3749 A0.15875,0.15875 180 0,1 -1.8288,-2.53365z" transform="matrix(1,0,0,-1,8.651875,5.715)" fill="rgb(255,255,255)" stroke="rgb(0,0,0)" stroke-width="0.0010cm" stroke-linecap="round" stroke-linejoin="round" shaper:cutDepth="0.15875cm" /><path d="M-1.8288,-0.65405 L-0.9398,-0.65405 A0.15875,0.15875 270 0,1 -0.78105,-0.4953 L-0.78105,0.3937 A0.15875,0.15875 0 0,1 -0.9398,0.55245 L-1.8288,0.55245 A0.15875,0.15875 90 0,1 -1.98755,0.3937 L-1.98755,-0.4953 A0.15875,0.15875 180 0,1 -1.8288,-0.65405z" transform="matrix(1,0,0,-1,8.651875,5.715)" fill="rgb(255,255,255)" stroke="rgb(0,0,0)" stroke-width="0.0010cm" stroke-linecap="round" stroke-linejoin="round" shaper:cutDepth="0.15875cm" /><path d="M-3.7084,-0.65405 L-2.8194,-0.65405 A0.15875,0.15875 270 0,1 -2.66065,-0.4953 L-2.66065,0.3937 A0.15875,0.15875 0 0,1 -2.8194,0.55245 L-3.7084,0.55245 A0.15875,0.15875 90 0,1 -3.86715,0.3937 L-3.86715,-0.4953 A0.15875,0.15875 180 0,1 -3.7084,-0.65405z" transform="matrix(1,0,0,-1,8.651875,5.715)" fill="rgb(255,255,255)" stroke="rgb(0,0,0)" stroke-width="0.0010cm" stroke-linecap="round" stroke-linejoin="round" shaper:cutDepth="0.15875cm" /><path d="M-5.588,-0.65405 L-4.699,-0.65405 A0.15875,0.15875 270 0,1 -4.54025,-0.4953 L-4.54025,0.3937 A0.15875,0.15875 0 0,1 -4.699,0.55245 L-5.588,0.55245 A0.15875,0.15875 90 0,1 -5.74675,0.3937 L-5.74675,-0.4953 A0.15875,0.15875 180 0,1 -5.588,-0.65405z" transform="matrix(1,0,0,-1,8.651875,5.715)" fill="rgb(255,255,255)" stroke="rgb(0,0,0)" stroke-width="0.0010cm" stroke-linecap="round" stroke-linejoin="round" shaper:cutDepth="0.15875cm" /><path d="M-5.74675,2.2733 L-5.74675,1.3843 A0.15875,0.15875 180 0,1 -5.588,1.22555 L-4.699,1.22555 A0.15875,0.15875 270 0,1 -4.54025,1.3843 L-4.54025,2.2733 A0.15875,0.15875 0 0,1 -4.699,2.43205 L-5.588,2.43205 A0.15875,0.15875 90 0,1 -5.74675,2.2733z" transform="matrix(1,0,0,-1,8.651875,5.715)" fill="rgb(255,255,255)" stroke="rgb(0,0,0)" stroke-width="0.0010cm" stroke-linecap="round" stroke-linejoin="round" shaper:cutDepth="0.15875cm" /><path d="M-3.7084,1.22555 L-2.8194,1.22555 A0.15875,0.15875 270 0,1 -2.66065,1.3843 L-2.66065,2.2733 A0.15875,0.15875 0 0,1 -2.8194,2.43205 L-3.7084,2.43205 A0.15875,0.15875 90 0,1 -3.86715,2.2733 L-3.86715,1.3843 A0.15875,0.15875 180 0,1 -3.7084,1.22555z" transform="matrix(1,0,0,-1,8.651875,5.715)" fill="rgb(255,255,255)" stroke="rgb(0,0,0)" stroke-width="0.0010cm" stroke-linecap="round" stroke-linejoin="round" shaper:cutDepth="0.15875cm" /><path d="M-1.8288,1.22555 L-0.9398,1.22555 A0.15875,0.15875 270 0,1 -0.78105,1.3843 L-0.78105,2.2733 A0.15875,0.15875 0 0,1 -0.9398,2.43205 L-1.8288,2.43205 A0.15875,0.15875 90 0,1 -1.98755,2.2733 L-1.98755,1.3843 A0.15875,0.15875 180 0,1 -1.8288,1.22555z" transform="matrix(1,0,0,-1,8.651875,5.715)" fill="rgb(255,255,255)" stroke="rgb(0,0,0)" stroke-width="0.0010cm" stroke-linecap="round" stroke-linejoin="round" shaper:cutDepth="0.15875cm" /><path d="M7.96925,0.9525 L7.96925,1.8415 A0.15875,0.15875 0 0,1 7.8105,2.00025 L6.9215,2.00025 A0.15875,0.15875 90 0,1 6.76275,1.8415 L6.76275,0.9525 A0.15875,0.15875 180 0,1 6.9215,0.79375 L7.8105,0.79375 A0.15875,0.15875 270 0,1 7.96925,0.9525z" transform="matrix(1,0,0,-1,8.651875,5.715)" fill="rgb(255,255,255)" stroke="rgb(0,0,0)" stroke-width="0.0010cm" stroke-linecap="round" stroke-linejoin="round" shaper:cutDepth="0.15875cm" /></svg>