<?xml version="1.0" encoding="utf-8"?>
<!-- Generator: Fusion 360, Shaper Origin Export Add-In, Version 1.6.10  -->
<svg xmlns="http://www.w3.org/2000/svg" xmlns:xlink="http://www.w3.org/1999/xlink" xmlns:shaper="http://www.shapertools.com/namespaces/shaper" shaper:fusionaddin="version:1.6.10" width="0.8922cm" height="0.8922cm" version="1.1" x="0cm" y="0cm" viewBox="0 0 0.8922 0.8922" enable-background="new 0 0 0.8922 0.8922" xml:space="preserve"><path d="M-0.6723498,0.5299119 L-0.6723498,-0.3114881 A0.0254,0.0254 180 0,1 -0.6469498,-0.3368881 L0.1944502,-0.3368881 A0.0254,0.0254 270 0,1 0.2198502,-0.3114881 L0.2198502,0.5299119 A0.0254,0.0254 0 0,1 0.1944502,0.5553119 L-0.6469498,0.5553119 A0.0254,0.0254 90 0,1 -0.6723498,0.5299119z" transform="matrix(1,0,0,-1,0.6723498,0.5553119)" fill="rgb(0,0,0)" shaper:cutDepth="0.0015875" stroke-linecap="round" stroke-linejoin="round" /><path d="M-0.5026243,0.3221358 L-0.5026243,0.3221358 -0.4914675,0.3215995 -0.4804236,0.3199347 -0.4696398,0.3170258 -0.4592749,0.3128648 -0.4494465,0.3075609 -0.4403341,0.3011003 -0.4319363,0.2937385 -0.4243757,0.2855158 -0.4243757,0.2855158 -0.4123768,0.2694691 -0.4022898,0.2521518 -0.394139,0.2338502 -0.3880102,0.2147701 -0.3837008,0.195202 -0.3808967,0.1753563 -0.3793698,0.155378 -0.3789701,0.1353408 -0.3789701,0.1353408 -0.3797859,0.1058192 -0.380994,0.0910976 -0.3830324,0.0764725 -0.3860021,0.0620044 -0.3899561,0.0477762 -0.3948164,0.0338297 -0.4005645,0.0202258 -0.4005645,0.0202258 -0.4081533,0.0052365 -0.4169941,-0.009049 -0.4272836,-0.0223261 -0.4393059,-0.0340518 -0.4459803,-0.0391601 -0.4530883,-0.0436331 -0.4606048,-0.0473911 -0.4684153,-0.0504861 -0.4764956,-0.0527877 -0.4847526,-0.0543401 -0.4930991,-0.0553076 -0.5014975,-0.0555596 -0.5658473,-0.0555596 -0.5658473,-0.0555596 -0.5724407,-0.0551986 -0.5789576,-0.0541197 -0.5850396,-0.0515702 -0.5876809,-0.0495678 -0.5898053,-0.047045 -0.5924179,-0.0409812 -0.5935824,-0.0344823 -0.5937143,-0.0212822 -0.5936818,0.2927413 -0.5936818,0.2927413 -0.5936654,0.2987634 -0.5928388,0.3047274 -0.5907288,0.3103635 -0.5872001,0.3152355 -0.5823627,0.3188087 -0.576728,0.320932 -0.5707881,0.3219074 -0.5647699,0.3221357 -0.5026243,0.3221358z M-0.5471763,0.2754985 L-0.5471763,-0.0089225 -0.5020496,-0.0089225 -0.5020496,-0.0089225 -0.4897721,-0.0081874 -0.4837351,-0.0069771 -0.4778913,-0.0050454 -0.4724324,-0.0022045 -0.4674854,0.001457 -0.4591894,0.0105371 -0.4591894,0.0105371 -0.4532879,0.018716 -0.4478899,0.0272349 -0.4431868,0.0361573 -0.4390235,0.0453434 -0.4354131,0.0547606 -0.4323748,0.0643783 -0.4278242,0.0840235 -0.4278242,0.0840235 -0.4261694,0.0951855 -0.4255667,0.10645 -0.4255252,0.1290185 -0.4255252,0.1290185 -0.4259826,0.1661321 -0.4265569,0.1753943 -0.4278005,0.1845924 -0.4323402,0.202587 -0.4323402,0.202587 -0.4386904,0.2209321 -0.4426427,0.2298044 -0.4471398,0.2384096 -0.4521968,0.246702 -0.4578971,0.2545609 -0.4643798,0.2617936 -0.4717519,0.2681089 -0.4717519,0.2681089 -0.4785471,0.2719365 -0.4859623,0.2743506 -0.4936991,0.2753033 -0.5014975,0.2754985 -0.5471763,0.2754985z" transform="matrix(1,0,0,-1,0.6723498,0.5553119)" fill="rgb(104,104,104)" fill-rule="nonzero" shaper:cutDepth="0.0000762" stroke-linecap="round" stroke-linejoin="round" /><path d="M-0.291197,-0.0416834 L-0.1249318,0.3027613 -0.1249318,0.3027613 -0.1198402,0.3141402 -0.117637,0.3199797 -0.1163897,0.326077 -0.1163897,0.326077 -0.1168426,0.3306221 -0.1181209,0.3350044 -0.1202059,0.3390675 -0.1231225,0.3425806 -0.1266356,0.3454972 -0.1306988,0.3475823 -0.1350811,0.3488606 -0.1396262,0.3493135 -0.1396262,0.3493135 -0.1460679,0.3487232 -0.1520143,0.3462 -0.1567546,0.341812 -0.160071,0.3362583 -0.3292453,-0.0139246 -0.3303803,-0.0167623 -0.3303803,-0.0167623 -0.3346579,-0.0244977 -0.3359103,-0.0287238 -0.3360278,-0.0331442 -0.3360278,-0.0331442 -0.3356115,-0.0376718 -0.3345002,-0.04208 -0.3324182,-0.0461192 -0.3294575,-0.0495673 -0.3257852,-0.0522459 -0.3216695,-0.0541726 -0.3172419,-0.0552051 -0.3127092,-0.0555596 -0.3127092,-0.0555596 -0.3058621,-0.054996 -0.3025435,-0.054055 -0.2994899,-0.0524699 -0.2968795,-0.0502419 -0.2947021,-0.0475853 -0.291197,-0.0416834z" transform="matrix(1,0,0,-1,0.6723498,0.5553119)" fill="rgb(104,104,104)" fill-rule="nonzero" shaper:cutDepth="0.0000762" stroke-linecap="round" stroke-linejoin="round" /><path d="M0.1190952,-0.0141773 L-0.027385,-0.0141773 -0.027385,0.2967743 -0.027385,0.2967743 -0.0283544,0.3065238 -0.029944,0.3111636 -0.0325126,0.3153434 -0.0361384,0.3186369 -0.0405114,0.3208517 -0.0453133,0.321858 -0.0502109,0.3221358 -0.0502109,0.3221358 -0.0550764,0.3218556 -0.0598312,0.3207934 -0.0641795,0.3185982 -0.0677588,0.3153048 -0.0702449,0.3111103 -0.0718422,0.3065088 -0.0730368,0.2968466 -0.0730369,-0.0276113 -0.0730369,-0.0276113 -0.0730966,-0.0333662 -0.0723586,-0.0390693 -0.070454,-0.0444963 -0.0670612,-0.0491292 -0.0622891,-0.0523305 -0.0568602,-0.0542379 -0.0511935,-0.0552179 -0.0454486,-0.0555596 0.116202,-0.0555596 0.116202,-0.0555596 0.1227579,-0.0555359 0.1292765,-0.0549849 0.1292765,-0.0549849 0.1356848,-0.0525505 0.1407442,-0.0479216 0.142678,-0.0450551 0.1440393,-0.0418911 0.1452054,-0.0351148 0.1452054,-0.0351148 0.1443004,-0.0290857 0.1418549,-0.0235137 0.1379878,-0.0187855 0.1327251,-0.0157374 0.1327251,-0.0157374 0.1259872,-0.0143855 0.1190952,-0.0141773z" transform="matrix(1,0,0,-1,0.6723498,0.5553119)" fill="rgb(104,104,104)" fill-rule="nonzero" shaper:cutDepth="0.0000762" stroke-linecap="round" stroke-linejoin="round" /></svg>