<?xml version="1.0" encoding="utf-8"?>
<!-- Generator: Fusion 360, Shaper Origin Export Add-In, Version 1.6.10  -->
<svg xmlns="http://www.w3.org/2000/svg" xmlns:xlink="http://www.w3.org/1999/xlink" xmlns:shaper="http://www.shapertools.com/namespaces/shaper" shaper:fusionaddin="version:1.6.10" width="0.8922cm" height="0.8922cm" version="1.1" x="0cm" y="0cm" viewBox="0 0 0.8922 0.8922" enable-background="new 0 0 0.8922 0.8922" xml:space="preserve"><path d="M-0.4461,0.4207 L-0.4461,-0.4207 A0.0254,0.0254 180 0,1 -0.4207,-0.4461 L0.4207,-0.4461 A0.0254,0.0254 270 0,1 0.4461,-0.4207 L0.4461,0.4207 A0.0254,0.0254 0 0,1 0.4207,0.4461 L-0.4207,0.4461 A0.0254,0.0254 90 0,1 -0.4461,0.4207z" transform="matrix(1,0,0,-1,0.4461,0.4461)" fill="rgb(0,0,0)" shaper:cutDepth="0.0015875" stroke-linecap="round" stroke-linejoin="round" /><path d="M0.0751285,0.3613669 L0.0751285,0.3613669 0.0709554,0.3611462 0.0668973,0.3601583 0.0632717,0.3580973 0.0605444,0.3549379 0.0588577,0.351121 0.0579486,0.3470378 0.0573933,0.3387051 0.0573932,0.1549669 -0.0696364,0.3492588 -0.0696364,0.3492588 -0.0730279,0.35385 -0.0770715,0.3578776 -0.0821038,0.3605648 -0.0877526,0.3613669 -0.0877526,0.3613669 -0.0926519,0.3606083 -0.0971659,0.3585726 -0.1009498,0.35536 -0.1033325,0.3510213 -0.1033325,0.3510213 -0.1041662,0.3452728 -0.1041947,0.3394441 -0.1041947,0.1009254 -0.1041947,0.1009254 -0.1040335,0.093752 -0.1035545,0.0901947 -0.1024704,0.0867782 -0.1024704,0.0867782 -0.0996013,0.0831073 -0.0958834,0.0803002 -0.0915139,0.0786896 -0.0868905,0.0780953 -0.0868905,0.0780953 -0.0830991,0.0784304 -0.0794282,0.0794297 -0.0761062,0.0812807 -0.0733932,0.0839475 -0.0714485,0.0872134 -0.0702296,0.0908228 -0.0692168,0.0983554 -0.0692168,0.2849237 0.0573932,0.0893451 0.0573932,0.0893451 0.0608513,0.0849692 0.0650174,0.0812711 0.0700426,0.078852 0.0755596,0.0780953 0.0755596,0.0780953 0.079241,0.0783818 0.0827981,0.0793661 0.0859879,0.081221 0.0885569,0.0838675 0.0903646,0.0870859 0.0915043,0.0905988 0.0923712,0.0979243 0.0923711,0.3402519 0.0923711,0.3402519 0.0917669,0.3481118 0.0907306,0.3519136 0.0889635,0.3554425 0.0863037,0.3583411 0.0829005,0.3603281 0.0790705,0.3612573 0.0751285,0.3613669z" transform="matrix(1,0,0,-1,0.4461,0.4461)" fill="rgb(104,104,104)" fill-rule="nonzero" shaper:cutDepth="0.0000762" stroke-linecap="round" stroke-linejoin="round" /><path d="M0.0723369,-0.3365799 L0.0723369,-0.3365799 0.0821702,-0.337628 0.0868883,-0.3391366 0.0911844,-0.3415868 0.094753,-0.3450159 0.097215,-0.3493053 0.0985706,-0.3540647 0.0990219,-0.3589953 0.0990219,-0.3589953 0.097816,-0.3663779 0.0946071,-0.3731345 0.08954,-0.3786072 0.0829288,-0.3820676 0.0829288,-0.3820676 0.0748727,-0.3828892 0.066757,-0.3832171 -0.081533,-0.3832171 -0.081533,-0.3832171 -0.0932866,-0.3827349 -0.0990991,-0.3818368 -0.1047218,-0.3801014 -0.1097296,-0.3770355 -0.1116725,-0.3748265 -0.1131005,-0.372248 -0.11471,-0.3665928 -0.1150329,-0.3607196 -0.1150329,-0.3607196 -0.1143023,-0.3509508 -0.1126488,-0.3412878 -0.1078956,-0.3222761 -0.1018519,-0.3036334 -0.0945881,-0.2854268 -0.0945881,-0.2854268 -0.0853064,-0.2665068 -0.0746213,-0.2483434 -0.0624777,-0.2311206 -0.0489272,-0.2149819 -0.0339725,-0.2001352 -0.0178211,-0.1865977 -0.0007438,-0.1742515 0.0170784,-0.1630042 0.0170784,-0.1630042 0.0244966,-0.1583583 0.0314881,-0.153099 0.0379076,-0.1471485 0.0435053,-0.140423 0.0478488,-0.1328299 0.0507986,-0.1245928 0.0524076,-0.1159918 0.0528774,-0.1072531 0.0528774,-0.1072531 0.0517007,-0.0957266 0.0486654,-0.0845494 0.0434873,-0.0741868 0.0364041,-0.0650208 0.0276887,-0.0573904 0.0228178,-0.0542435 0.0176472,-0.0516175 0.0122121,-0.0495792 0.0065886,-0.0481743 -0.0049265,-0.0469039 -0.0049265,-0.0469039 -0.012399,-0.047407 -0.0197327,-0.048928 -0.0267998,-0.0514071 -0.0334894,-0.0547745 -0.0396779,-0.0589939 -0.045334,-0.0639032 -0.0502981,-0.0695113 -0.0546016,-0.0756416 -0.0546016,-0.0756416 -0.0583766,-0.0825768 -0.0611472,-0.0899629 -0.0629722,-0.0976533 -0.0633871,-0.1055288 -0.0633871,-0.1055288 -0.0628854,-0.1095521 -0.0628124,-0.1130006 -0.0628124,-0.1130006 -0.0642084,-0.1226891 -0.0659947,-0.1272486 -0.0686335,-0.1313786 -0.0722236,-0.1347066 -0.0765492,-0.1370045 -0.0812557,-0.1383595 -0.086131,-0.1388645 -0.086131,-0.1388645 -0.0930515,-0.1376763 -0.0993441,-0.1345751 -0.1046421,-0.1299525 -0.108218,-0.1239209 -0.108218,-0.1239209 -0.1096571,-0.1147824 -0.1099422,-0.1055288 -0.1099422,-0.1055288 -0.1092694,-0.095228 -0.107671,-0.085032 -0.1052147,-0.0750049 -0.1017142,-0.0652961 -0.0973242,-0.0559539 -0.0919963,-0.0471137 -0.0857364,-0.0389069 -0.0787498,-0.0313086 -0.0710833,-0.0243977 -0.0628393,-0.0181861 -0.053999,-0.0128586 -0.0446961,-0.0083878 -0.0349528,-0.0049794 -0.0249472,-0.0024464 -0.0147325,-0.0009607 -0.0044338,-0.0002667 -0.0044338,-0.0002667 0.0059352,-0.0009594 0.0162184,-0.0024587 0.0262909,-0.0050145 0.0360574,-0.0085647 0.0453915,-0.0131318 0.0541813,-0.0186749 0.0623712,-0.0250711 0.0698842,-0.0322509 0.0766841,-0.0401092 0.0827095,-0.0485759 0.0878439,-0.0576102 0.0920058,-0.067133 0.09523,-0.0770114 0.0974905,-0.0871555 0.0988653,-0.0974556 0.0995145,-0.1078278 0.0995145,-0.1078278 0.0989783,-0.1189812 0.0973306,-0.1300243 0.0945017,-0.1408258 0.0906044,-0.1512893 0.08559,-0.1612658 0.0795192,-0.1706364 0.0725132,-0.1793305 0.0645367,-0.1871439 0.0645367,-0.1871439 0.0525837,-0.1967226 0.039658,-0.2049612 0.039658,-0.2049612 0.0215852,-0.2164437 0.0046313,-0.2295183 -0.0109858,-0.2441665 -0.0249947,-0.2603575 -0.0373011,-0.2778779 -0.047734,-0.296575 -0.0562165,-0.3162334 -0.0628854,-0.3365799 0.0723369,-0.3365799z" transform="matrix(1,0,0,-1,0.4461,0.4461)" fill="rgb(104,104,104)" fill-rule="nonzero" shaper:cutDepth="0.0000762" stroke-linecap="round" stroke-linejoin="round" /></svg>