<?xml version="1.0" encoding="utf-8"?>
<!-- Generator: Fusion 360, Shaper Origin Export Add-In, Version 1.6.10  -->
<svg xmlns="http://www.w3.org/2000/svg" xmlns:xlink="http://www.w3.org/1999/xlink" xmlns:shaper="http://www.shapertools.com/namespaces/shaper" shaper:fusionaddin="version:1.6.10" width="0.8922cm" height="0.8922cm" version="1.1" x="0cm" y="0cm" viewBox="0 0 0.8922 0.8922" enable-background="new 0 0 0.8922 0.8922" xml:space="preserve"><path d="M-0.4461,0.4207 L-0.4461,-0.4207 A0.0254,0.0254 180 0,1 -0.4207,-0.4461 L0.4207,-0.4461 A0.0254,0.0254 270 0,1 0.4461,-0.4207 L0.4461,0.4207 A0.0254,0.0254 0 0,1 0.4207,0.4461 L-0.4207,0.4461 A0.0254,0.0254 90 0,1 -0.4461,0.4207z" transform="matrix(1,0,0,-1,0.4461,0.4461)" fill="rgb(0,0,0)" shaper:cutDepth="0.0015875" stroke-linecap="round" stroke-linejoin="round" /><path d="M-0.0888405,-0.1871439 L-0.0888405,-0.1871439 -0.0960297,-0.1792826 -0.102485,-0.17081 -0.1080842,-0.1617473 -0.1126623,-0.1521296 -0.116232,-0.1420934 -0.1187543,-0.1317443 -0.1201381,-0.1211825 -0.1205341,-0.1105374 -0.1205341,-0.1105374 -0.1199514,-0.0997551 -0.1184344,-0.0890663 -0.1159458,-0.078559 -0.1123498,-0.0683793 -0.1076799,-0.0586448 -0.1019577,-0.0494893 -0.0952417,-0.0410369 -0.0875669,-0.0334419 -0.0791468,-0.0266845 -0.0700584,-0.0208564 -0.0604089,-0.0160123 -0.0503315,-0.0121361 -0.0399284,-0.009249 -0.029313,-0.0072664 -0.0185849,-0.0060575 -0.0078002,-0.0055216 -0.0078002,-0.0055216 0.0030451,-0.0059872 0.0138321,-0.0071907 0.0244837,-0.0092832 0.034929,-0.0122362 0.0450543,-0.0161483 0.0547053,-0.0211126 0.0638139,-0.0270182 0.0722159,-0.0338879 0.0798501,-0.0416044 0.086557,-0.0501377 0.0922249,-0.059394 0.0968072,-0.0692334 0.1002829,-0.0795156 0.1027205,-0.0900938 0.1041941,-0.1008468 0.1047694,-0.1116869 0.1047694,-0.1116869 0.1043812,-0.1223211 0.1029321,-0.1328627 0.1002456,-0.1431587 0.0964025,-0.1530808 0.0913533,-0.1624476 0.0853058,-0.1712027 0.0783061,-0.1792173 0.0706126,-0.1865691 0.0706126,-0.1865691 0.0793799,-0.195062 0.0872903,-0.2043555 0.0942404,-0.2143897 0.1000528,-0.2251217 0.1045212,-0.2364791 0.1076686,-0.2482713 0.1094678,-0.260343 0.1100243,-0.2725359 0.1100243,-0.2725359 0.1094677,-0.2838798 0.1079599,-0.2951338 0.1055101,-0.3062243 0.1019731,-0.3170153 0.0972256,-0.32733 0.091409,-0.3370833 0.0843856,-0.346006 0.0763773,-0.3540571 0.0675406,-0.361188 0.0579603,-0.3672862 0.0478075,-0.3723721 0.0371854,-0.3763878 0.0262392,-0.3794151 0.0150868,-0.3815571 0.0037934,-0.3827504 -0.0075539,-0.3832171 -0.0075539,-0.3832171 -0.0188901,-0.382759 -0.0301602,-0.3814846 -0.0413161,-0.3794141 -0.0522614,-0.376436 -0.0628611,-0.3723954 -0.0730108,-0.3673288 -0.0825923,-0.3612575 -0.0914745,-0.3542006 -0.0995048,-0.3461906 -0.106658,-0.337386 -0.1126173,-0.3277343 -0.1174726,-0.3174838 -0.1210915,-0.3067314 -0.1236703,-0.2956854 -0.1251372,-0.2844362 -0.125789,-0.2731106 -0.125789,-0.2731106 -0.1252453,-0.2609193 -0.1235301,-0.2488375 -0.1203665,-0.237052 -0.1158721,-0.2257075 -0.1100146,-0.2150032 -0.1029919,-0.2050211 -0.0950886,-0.1957255 -0.0863706,-0.1871843 -0.0888405,-0.1871439z M-0.0078002,-0.0521588 L-0.0078002,-0.0521588 -0.0185773,-0.0522666 -0.0293182,-0.0531519 -0.0345861,-0.0543087 -0.039636,-0.056221 -0.048772,-0.0619296 -0.048772,-0.0619296 -0.054113,-0.0663756 -0.0589998,-0.0713167 -0.0631863,-0.0768629 -0.066855,-0.0827655 -0.069806,-0.0890568 -0.0720161,-0.0956452 -0.0733897,-0.1024573 -0.0738969,-0.1093879 -0.0738969,-0.1093879 -0.0727712,-0.1217324 -0.0713155,-0.1277633 -0.0692495,-0.1336127 -0.0665653,-0.1392052 -0.0632024,-0.1444183 -0.0592244,-0.1491773 -0.0547275,-0.1534533 -0.049783,-0.1571943 -0.0444463,-0.1603656 -0.0388303,-0.1629902 -0.0329624,-0.165017 -0.0208277,-0.1675491 -0.0084571,-0.1684233 -0.0084571,-0.1684233 0.0029028,-0.1680518 0.0141568,-0.16651 0.0196833,-0.1651475 0.0250233,-0.1631787 0.0348137,-0.1574209 0.0348137,-0.1574209 0.0399566,-0.1530071 0.0445644,-0.1480386 0.0486082,-0.1426005 0.0520099,-0.1367397 0.0546085,-0.1304812 0.0564938,-0.1239718 0.0576742,-0.1172991 0.0581323,-0.1105374 0.0581323,-0.1105374 0.05758,-0.1030917 0.0562236,-0.09575 0.0538948,-0.0886566 0.0507897,-0.0818666 0.0468737,-0.0755096 0.0421648,-0.0697172 0.0367914,-0.0645326 0.0307083,-0.0602054 0.0307083,-0.0602054 0.0217709,-0.0557821 0.0120975,-0.0533489 0.0021765,-0.0523348 -0.0078002,-0.0521597z M-0.0194853,-0.2109396 L-0.0194853,-0.2109396 -0.0328248,-0.2126827 -0.0392896,-0.214365 -0.0455098,-0.2168849 -0.0514022,-0.2202102 -0.0568834,-0.2242525 -0.0618698,-0.2289232 -0.0662783,-0.2341339 -0.0700511,-0.2397988 -0.0731695,-0.2458365 -0.0756177,-0.2521656 -0.0773801,-0.258705 -0.0784412,-0.2653735 -0.0787966,-0.2720966 -0.0784742,-0.2788183 -0.0775069,-0.2854861 -0.0759278,-0.2920472 -0.0737577,-0.2984413 -0.0709974,-0.3045953 -0.0676457,-0.310435 -0.0637016,-0.3158858 -0.0591733,-0.3208608 -0.0540863,-0.3252499 -0.0484735,-0.3289469 -0.0424255,-0.3319111 -0.0360664,-0.33414 -0.0295171,-0.3356398 -0.022859,-0.3365028 -0.009447,-0.3368899 0.00392,-0.3361878 0.0173308,-0.3346213 0.0238561,-0.3331144 0.0300511,-0.3307183 0.035822,-0.3273514 0.0411397,-0.3231575 0.0459785,-0.3182903 0.0503123,-0.3129033 0.0541145,-0.3071475 0.0573466,-0.3011185 0.0599593,-0.2948627 0.0619028,-0.2884245 0.0631276,-0.2818486 0.0635886,-0.2751801 0.0632965,-0.268474 0.0622997,-0.2617919 0.0606469,-0.2551953 0.058387,-0.2487456 0.0555683,-0.2425048 0.0522134,-0.2365567 0.0483071,-0.2310168 0.0438311,-0.2260033 0.0387671,-0.2216343 0.0331269,-0.218 0.0270276,-0.2150922 0.0206091,-0.2128813 0.0140115,-0.2113379 0.0073541,-0.2104196 -0.0060392,-0.210061 -0.0194853,-0.2109396z" transform="matrix(1,0,0,-1,0.4461,0.4461)" fill="rgb(104,104,104)" fill-rule="nonzero" shaper:cutDepth="0.0000762" stroke-linecap="round" stroke-linejoin="round" /><path d="M0.0087445,0.3613669 L0.0061867,0.3613668 -0.0212445,0.3600312 -0.0212445,0.3600312 -0.0354747,0.3581329 -0.0424403,0.3563699 -0.049201,0.3539474 -0.0557342,0.3509566 -0.0618958,0.3472674 -0.0676936,0.3430245 -0.0730303,0.3382171 -0.0778924,0.3329288 -0.082184,0.3271686 -0.0858614,0.320998 -0.0889038,0.3144911 -0.0912165,0.3076898 -0.0929097,0.3007092 -0.0943418,0.2864231 -0.0943418,0.2864231 -0.0937454,0.2776044 -0.0921931,0.2689033 -0.0895982,0.2604542 -0.0860817,0.252345 -0.0816392,0.2447037 -0.0763101,0.2376533 -0.0701287,0.2313352 -0.0631203,0.2259507 -0.0631203,0.2259507 -0.0557128,0.221455 -0.0477096,0.2181063 -0.0394406,0.2155153 -0.0309751,0.2136346 0.0147571,0.2038165 0.0147571,0.2038165 0.0229409,0.201953 0.030852,0.1991631 0.030852,0.1991631 0.0361844,0.1958918 0.0409818,0.1918756 0.0452118,0.1872669 0.0487635,0.1821163 0.0515767,0.1765279 0.053693,0.1706405 0.0549514,0.1645122 0.0554227,0.1582735 0.0554227,0.1582735 0.0547409,0.1508951 0.0530613,0.1436788 0.0501986,0.1368453 0.046352,0.1305119 0.0415506,0.1248691 0.0358756,0.1201068 0.0294201,0.1164712 0.0224154,0.1140585 0.0224154,0.1140585 0.0135476,0.1128761 0.0046186,0.1123342 -0.020821,0.1123011 -0.020821,0.1123011 -0.0295649,0.1125959 -0.0381801,0.1140585 -0.0381801,0.1140585 -0.0440803,0.1164847 -0.0495184,0.1198202 -0.0543397,0.1239982 -0.0585455,0.1287956 -0.0620738,0.1341116 -0.0647784,0.139889 -0.0665355,0.1460224 -0.0672462,0.1523617 -0.0672462,0.1523617 -0.0668151,0.1561797 -0.0668203,0.1595486 -0.0668203,0.1595486 -0.0678973,0.1662189 -0.0692779,0.1693122 -0.0712631,0.1720554 -0.0737616,0.1743416 -0.0766692,0.1760766 -0.0798902,0.1771211 -0.0832572,0.1774867 -0.0832572,0.1774867 -0.087526,0.1769483 -0.0915524,0.1754287 -0.0950532,0.172935 -0.097806,0.1696261 -0.0998482,0.1658372 -0.1012346,0.1617627 -0.1022241,0.1532238 -0.1022241,0.1532238 -0.1013355,0.1422669 -0.0989518,0.1315368 -0.0950193,0.1212717 -0.0896675,0.1116701 -0.0830711,0.1028766 -0.0752608,0.0951421 -0.0663389,0.0887217 -0.0565927,0.0836376 -0.0565927,0.0836376 -0.0479408,0.0811874 -0.0391021,0.0795215 -0.0301681,0.0784979 -0.0211838,0.0780953 0.0064438,0.0780953 0.0064438,0.0780953 0.0225774,0.07953 0.0305125,0.0811651 0.0382912,0.0834387 0.0457921,0.0864954 0.0529874,0.0902245 0.0597457,0.0946907 0.0659849,0.0998601 0.0716604,0.1056421 0.0766818,0.1120003 0.0809354,0.1188956 0.0843729,0.126232 0.086985,0.1339014 0.0888351,0.1417901 0.0899627,0.1498129 0.0904006,0.157904 0.0904006,0.157904 0.089207,0.1720915 0.0857908,0.1859116 0.0799681,0.1989002 0.0761523,0.2049155 0.0718341,0.2105804 0.0617876,0.2206639 0.0561086,0.2249649 0.0500773,0.2287543 0.0371799,0.2347833 0.0235239,0.2388211 -0.0225211,0.2482158 -0.0225211,0.2482158 -0.0373795,0.2521226 -0.0373795,0.2521226 -0.0422042,0.2546993 -0.0465602,0.2580085 -0.0503811,0.2619206 -0.0535241,0.2663988 -0.0560367,0.271257 -0.0578762,0.2764091 -0.0589757,0.2817667 -0.0593639,0.2872236 -0.0593639,0.2872236 -0.058614,0.2950054 -0.0564282,0.3025081 -0.0526966,0.309374 -0.0475214,0.3152327 -0.0412895,0.319945 -0.0342191,0.3232848 -0.0266736,0.3253136 -0.0189053,0.3262042 0.0023558,0.3265835 0.0044841,0.3265835 0.0044841,0.3265835 0.0121709,0.3261748 0.0197005,0.3246053 0.0268574,0.3217752 0.0332484,0.3174948 0.0386088,0.3119773 0.0428075,0.3055288 0.0458198,0.298449 0.0479098,0.2910416 0.0479098,0.2910416 0.0501124,0.285324 0.0537045,0.2803786 0.0561293,0.2785056 0.0589006,0.2771951 0.0649677,0.2765086 0.0649677,0.2765086 0.0684984,0.2768491 0.0719058,0.2778295 0.0750229,0.2795193 0.0776925,0.2818539 0.0798066,0.2846994 0.0812452,0.2879423 0.0823951,0.2949212 0.0823951,0.2949212 0.0815035,0.3027279 0.0793332,0.3102918 0.076328,0.3175537 0.0726037,0.32448 0.0726037,0.32448 0.0672174,0.3324842 0.0608916,0.3397666 0.0536423,0.3461322 0.0456175,0.3514857 0.03697,0.3557629 0.0278277,0.3588393 0.0183716,0.3607485 0.0087445,0.3613669z" transform="matrix(1,0,0,-1,0.4461,0.4461)" fill="rgb(104,104,104)" fill-rule="nonzero" shaper:cutDepth="0.0000762" stroke-linecap="round" stroke-linejoin="round" /></svg>