<?xml version="1.0" encoding="utf-8"?>
<!-- Generator: Fusion 360, Shaper Origin Export Add-In, Version 1.6.10  -->
<svg xmlns="http://www.w3.org/2000/svg" xmlns:xlink="http://www.w3.org/1999/xlink" xmlns:shaper="http://www.shapertools.com/namespaces/shaper" shaper:fusionaddin="version:1.6.10" width="0.8922cm" height="0.8922cm" version="1.1" x="0cm" y="0cm" viewBox="0 0 0.8922 0.8922" enable-background="new 0 0 0.8922 0.8922" xml:space="preserve"><path d="M-0.4461,0.4207 L-0.4461,-0.4207 A0.0254,0.0254 180 0,1 -0.4207,-0.4461 L0.4207,-0.4461 A0.0254,0.0254 270 0,1 0.4461,-0.4207 L0.4461,0.4207 A0.0254,0.0254 0 0,1 0.4207,0.4461 L-0.4207,0.4461 A0.0254,0.0254 90 0,1 -0.4461,0.4207z" transform="matrix(1,0,0,-1,0.4461,0.4461)" fill="rgb(0,0,0)" shaper:cutDepth="0.0015875" stroke-linecap="round" stroke-linejoin="round" /><path d="M-0.2346638,-0.1388255 L-0.2346638,-0.1388255 -0.2355258,-0.1487031 -0.2369727,-0.1534628 -0.2393805,-0.1577989 -0.2428989,-0.1613028 -0.2473481,-0.1634993 -0.2521965,-0.1645689 -0.2571613,-0.1647716 -0.2571613,-0.1647716 -0.262551,-0.1643095 -0.2677742,-0.1629075 -0.2725284,-0.1603287 -0.276703,-0.1568892 -0.276703,-0.1568892 -0.2791484,-0.1529105 -0.2799957,-0.1482794 -0.2803158,-0.1388817 -0.2803157,0.1859104 -0.2803157,0.1859104 -0.2794858,0.1961888 -0.2780742,0.2011682 -0.2756005,0.2056882 -0.2719637,0.2093569 -0.2673737,0.2117099 -0.2623261,0.2127945 -0.2571613,0.2129239 -0.2571613,0.2129239 -0.2522652,0.2127284 -0.2474792,0.2116958 -0.2430667,0.209576 -0.2395051,0.2062194 -0.2370416,0.2019917 -0.2355436,0.1973223 -0.2347974,0.1924857 -0.2346638,0.1875855 -0.2346638,-0.1388255z" transform="matrix(1,0,0,-1,0.4461,0.4461)" fill="rgb(104,104,104)" fill-rule="nonzero" shaper:cutDepth="0.0000762" stroke-linecap="round" stroke-linejoin="round" /><path d="M0.0011495,-0.1233893 L-0.1453306,-0.1233893 -0.1453306,0.1875624 -0.1453306,0.1875624 -0.1463001,0.1973118 -0.1478896,0.2019517 -0.1504583,0.2061314 -0.1540841,0.209425 -0.1584571,0.2116398 -0.163259,0.2126461 -0.1681566,0.2129239 -0.1681566,0.2129239 -0.1730221,0.2126437 -0.1777769,0.2115815 -0.1821252,0.2093863 -0.1857045,0.2060929 -0.1881906,0.2018983 -0.1897879,0.1972969 -0.1909825,0.1876347 -0.1909826,-0.1368232 -0.1909826,-0.1368232 -0.1910423,-0.1425781 -0.1903043,-0.1482812 -0.1883997,-0.1537083 -0.1850069,-0.1583411 -0.1802347,-0.1615424 -0.1748058,-0.1634498 -0.1691392,-0.1644298 -0.1633943,-0.1647716 -0.0017437,-0.1647716 -0.0017437,-0.1647716 0.0048122,-0.1647478 0.0113309,-0.1641968 0.0113309,-0.1641968 0.0177391,-0.1617624 0.0227985,-0.1571335 0.0247324,-0.154267 0.0260936,-0.151103 0.0272598,-0.1443268 0.0272598,-0.1443268 0.0263547,-0.1382977 0.0239093,-0.1327256 0.0200421,-0.1279974 0.0147794,-0.1249493 0.0147794,-0.1249493 0.0080415,-0.1235974 0.0011495,-0.1233893z" transform="matrix(1,0,0,-1,0.4461,0.4461)" fill="rgb(104,104,104)" fill-rule="nonzero" shaper:cutDepth="0.0000762" stroke-linecap="round" stroke-linejoin="round" /><path d="M0.1847653,0.2129238 L0.155093,0.2114458 0.155093,0.2114458 0.1462247,0.2105648 0.1374843,0.2088275 0.1289527,0.2062538 0.1207479,0.2027769 0.113007,0.1983627 0.1058122,0.1931051 0.0992033,0.1871272 0.093222,0.180521 0.087952,0.1733355 0.083426,0.1656578 0.0796402,0.1575914 0.076619,0.1492063 0.0743335,0.1405938 0.0727294,0.1318256 0.0717406,0.1229705 0.0713516,0.1140662 0.0713516,0.1140662 0.0720158,0.1023846 0.0736923,0.0908051 0.0766318,0.0794806 0.0806492,0.0684909 0.0857319,0.057953 0.0919576,0.0480471 0.0995053,0.039108 0.108218,0.0313016 0.108218,0.0313016 0.1164993,0.0260157 0.1253698,0.021788 0.1346425,0.0185391 0.144099,0.0158654 0.1940742,0.0032443 0.1940742,0.0032443 0.2001737,0.0016052 0.2060303,-0.0007339 0.2115121,-0.0038819 0.2161896,-0.0081101 0.2161896,-0.0081101 0.2206073,-0.0133131 0.2242851,-0.0190672 0.2273688,-0.0251568 0.2298358,-0.0315231 0.2331541,-0.0447593 0.2342533,-0.05836 0.2342533,-0.05836 0.2339731,-0.0653514 0.2330192,-0.0722808 0.2315117,-0.0791141 0.2293891,-0.0857795 0.2266429,-0.092215 0.2232576,-0.0983362 0.2192037,-0.104039 0.2144653,-0.1091847 0.2144653,-0.1091847 0.2078066,-0.114147 0.2001218,-0.1173286 0.1919738,-0.1189411 0.1836749,-0.1194481 0.1556748,-0.1195176 0.1556748,-0.1195176 0.1452433,-0.1191167 0.1401884,-0.1177701 0.1353908,-0.1156989 0.1310299,-0.1128169 0.1270736,-0.1093962 0.1205101,-0.1012733 0.1156753,-0.0919929 0.1124933,-0.0820307 0.1109453,-0.0716863 0.110517,-0.0612338 0.110517,-0.0612338 0.1098064,-0.0509185 0.1085077,-0.0459117 0.1064063,-0.0411795 0.1032495,-0.0370917 0.099001,-0.0341477 0.0940717,-0.0325885 0.0889226,-0.0320855 0.0889226,-0.0320855 0.0831861,-0.0328221 0.0777249,-0.0347185 0.072951,-0.0379725 0.0692588,-0.0424199 0.0667493,-0.0476268 0.0651542,-0.0531919 0.0639619,-0.0646823 0.0639619,-0.0646823 0.0654466,-0.0836883 0.0672426,-0.0930518 0.069685,-0.1022738 0.0730242,-0.1112004 0.0772253,-0.1197647 0.082248,-0.1278677 0.0881013,-0.1353963 0.0946944,-0.1422848 0.1019881,-0.148427 0.1099542,-0.1536666 0.11849,-0.1579157 0.1274542,-0.1611658 0.1367143,-0.1634418 0.1461509,-0.1648086 0.1556762,-0.1652642 0.1853471,-0.1647716 0.1853471,-0.1647716 0.1953152,-0.1640774 0.2051909,-0.1625578 0.2148601,-0.1600399 0.2242214,-0.1565488 0.2330666,-0.1518999 0.241386,-0.1463689 0.2489888,-0.1398861 0.255816,-0.1325901 0.2619057,-0.1246678 0.2671214,-0.1161477 0.2714311,-0.1071305 0.2749059,-0.0977637 0.2774655,-0.0881047 0.2792577,-0.078273 0.2803556,-0.0683428 0.2808083,-0.05836 0.2808083,-0.05836 0.279597,-0.0405182 0.2781924,-0.0316811 0.2761439,-0.0229751 0.273482,-0.0144322 0.2701339,-0.0061389 0.2661518,0.0018738 0.2614736,0.0094974 0.2561058,0.0166534 0.2501672,0.023345 0.2435971,0.0294137 0.2365118,0.0348762 0.2288889,0.0395563 0.2208907,0.0435633 0.2125808,0.0468755 0.2040376,0.0495295 0.1539293,0.0620558 0.1539293,0.0620558 0.1470812,0.0640796 0.1405106,0.066842 0.1344211,0.0705924 0.129566,0.075804 0.129566,0.075804 0.1244061,0.0843894 0.1206918,0.0936931 0.1186608,0.1035017 0.1179067,0.1134914 0.1179067,0.1134914 0.118895,0.1256707 0.1218185,0.1375232 0.1240815,0.143203 0.1270215,0.1485562 0.1305371,0.1535584 0.1347387,0.1579938 0.1347387,0.1579938 0.139896,0.1612475 0.1455658,0.1635235 0.1514429,0.1651615 0.1574826,0.1660404 0.1806926,0.1665461 0.1830198,0.1665461 0.1830198,0.1665461 0.1913912,0.1658624 0.199437,0.1634551 0.2067142,0.1592799 0.2126757,0.1533709 0.2172662,0.1463355 0.2207814,0.1387057 0.2255499,0.1226054 0.2255499,0.1226054 0.2289984,0.1100429 0.2289984,0.1100429 0.232609,0.105365 0.2374884,0.1020288 0.2431424,0.1003141 0.2490327,0.0997795 0.2490327,0.0997795 0.2536993,0.1003448 0.258241,0.1015589 0.2624028,0.1037381 0.2659632,0.1068016 0.2686133,0.110684 0.2703864,0.1150344 0.2716944,0.1243297 0.2716944,0.1243297 0.2706348,0.1352024 0.2680374,0.1458245 0.2643712,0.156117 0.2597888,0.1660404 0.2597888,0.1660404 0.2539357,0.1757028 0.2469973,0.1846115 0.2390268,0.1926191 0.2301056,0.199544 0.2203597,0.2052539 0.2099525,0.209639 0.1989709,0.2122819 0.1876982,0.2129239 0.1847653,0.2129238z" transform="matrix(1,0,0,-1,0.4461,0.4461)" fill="rgb(104,104,104)" fill-rule="nonzero" shaper:cutDepth="0.0000762" stroke-linecap="round" stroke-linejoin="round" /></svg>