<?xml version="1.0" encoding="utf-8"?>
<!-- Generator: Fusion 360, Shaper Origin Export Add-In, Version 1.6.10  -->
<svg xmlns="http://www.w3.org/2000/svg" xmlns:xlink="http://www.w3.org/1999/xlink" xmlns:shaper="http://www.shapertools.com/namespaces/shaper" shaper:fusionaddin="version:1.6.10" width="17.78cm" height="7.487342cm" version="1.1" x="0cm" y="0cm" viewBox="0 0 17.78 7.487342" enable-background="new 0 0 17.78 7.487342" xml:space="preserve"><path d="M-4.92125,3.743671 L-4.92125,3.743671 -4.9372536,3.7428041 -4.953074,3.7402308 -4.9685311,3.7359993 -4.9834717,3.7301537 -4.9977332,3.7227641 -5.0111626,3.7139499 -5.0236456,3.7038244 -5.0350684,3.6925007 -5.0453307,3.6801 -5.0543658,3.6667619 -5.0621121,3.6526282 -5.0685079,3.63784 -5.0735111,3.622517 -5.0771052,3.6067936 -5.0792736,3.5908166 -5.08,3.5747328 -5.08,0.9629479 -5.08,0.9629479 -5.0803762,0.954905 -5.081489,0.9469225 -5.0833151,0.9390701 -5.0858308,0.9314179 -5.089016,0.9240288 -5.0928603,0.9169557 -5.0973464,0.9102776 -5.102456,0.9040751 -5.1081639,0.8984284 -5.114412,0.8933951 -5.1211344,0.8890174 -5.1282648,0.8853376 -5.1357318,0.8823998 -5.1434611,0.8802483 -5.15137,0.8789275 -5.159375,0.8784788 -8.73125,0.8784788 -8.73125,0.8784788 -8.7472536,0.8776119 -8.763074,0.8750386 -8.7785311,0.870807 -8.7934717,0.8649615 -8.8077332,0.8575718 -8.8211626,0.8487577 -8.8336456,0.8386321 -8.8450684,0.8273084 -8.8553307,0.8149078 -8.8643658,0.8015697 -8.8721121,0.7874359 -8.8785079,0.7726478 -8.8835111,0.7573248 -8.8871052,0.7416014 -8.8892736,0.7256243 -8.89,0.7095405 -8.89,-3.5747328 -8.89,-3.5747328 -8.8892736,-3.5908166 -8.8871052,-3.6067936 -8.8835111,-3.622517 -8.8785079,-3.63784 -8.8721121,-3.6526282 -8.8643658,-3.6667619 -8.8553307,-3.6801 -8.8450684,-3.6925007 -8.8336456,-3.7038244 -8.8211626,-3.7139499 -8.8077332,-3.7227641 -8.7934717,-3.7301537 -8.7785311,-3.7359993 -8.763074,-3.7402308 -8.7472536,-3.7428041 -8.73125,-3.743671 8.73125,-3.743671 8.73125,-3.743671 8.7472536,-3.7428041 8.763074,-3.7402308 8.7785311,-3.7359993 8.7934717,-3.7301537 8.8077332,-3.7227641 8.8211626,-3.7139499 8.8336456,-3.7038244 8.8450684,-3.6925007 8.8553307,-3.6801 8.8643658,-3.6667619 8.8721121,-3.6526282 8.8785079,-3.63784 8.8835111,-3.622517 8.8871052,-3.6067936 8.8892736,-3.5908166 8.89,-3.5747328 8.89,0.7095405 8.89,0.7095405 8.8892736,0.7256243 8.8871052,0.7416014 8.8835111,0.7573248 8.8785079,0.7726478 8.8721121,0.7874359 8.8643658,0.8015697 8.8553307,0.8149078 8.8450684,0.8273084 8.8336456,0.8386321 8.8211626,0.8487577 8.8077332,0.8575718 8.7934717,0.8649615 8.7785311,0.870807 8.763074,0.8750386 8.7472536,0.8776119 8.73125,0.8784788 5.159375,0.8784788 5.159375,0.8784788 5.15137,0.8789275 5.1434611,0.8802483 5.1357318,0.8823998 5.1282648,0.8853376 5.1211344,0.8890174 5.114412,0.8933951 5.1081639,0.8984284 5.102456,0.9040751 5.0973464,0.9102776 5.0928603,0.9169557 5.089016,0.9240288 5.0858308,0.9314179 5.0833151,0.9390701 5.081489,0.9469225 5.0803762,0.954905 5.08,0.9629479 5.08,3.5747328 5.08,3.5747328 5.0792736,3.5908166 5.0771052,3.6067936 5.0735111,3.622517 5.0685079,3.63784 5.0621121,3.6526282 5.0543658,3.6667619 5.0453307,3.6801 5.0350684,3.6925007 5.0236456,3.7038244 5.0111626,3.7139499 4.9977332,3.7227641 4.9834717,3.7301537 4.9685311,3.7359993 4.953074,3.7402308 4.9372536,3.7428041 4.92125,3.743671 -4.92125,3.743671z" transform="matrix(1,0,0,-1,8.89,3.743671)" fill="rgb(0,0,0)" shaper:cutDepth="0.003175" stroke-linecap="round" stroke-linejoin="round" /><path d="M-1.8108981,2.8293841 A0.1,0.1 49.9982126 0,1 -1.951779,2.8170659 L-2.1767728,2.5489682 A0.1,0.1 139.9958483 0,1 -2.1644511,2.4080789 L-1.7890791,2.0931099 A0.1,0.1 230.0004877 0,1 -1.6481947,2.1054384 L-1.4232408,2.3735442 A0.1,0.1 320.0017064 0,1 -1.435566,2.5144231 L-1.8108981,2.8293841z" transform="matrix(1,0,0,-1,8.89,3.743671)" fill="rgb(255,255,255)" stroke="rgb(0,0,0)" stroke-width="0.0010cm" stroke-linecap="round" stroke-linejoin="round" shaper:cutDepth="0.003175" /><path d="M-1.7573126,-0.4896206 A0.0762,0.0762 309.9995123 0,1 -1.7479235,-0.382263 L-2.0035172,-0.0777031 A0.0762,0.0762 40.0041517 0,1 -2.1108685,-0.0683167 L-2.5226774,-0.4138873 A0.0762,0.0762 130.0017874 0,1 -2.5320665,-0.5212402 L-2.2765007,-0.8257957 A0.0762,0.0762 220.0014788 0,1 -2.1691494,-0.8351868 L-1.7573126,-0.4896206z" transform="matrix(1,0,0,-1,8.89,3.743671)" fill="rgb(255,255,255)" stroke="rgb(0,0,0)" stroke-width="0.0010cm" stroke-linecap="round" stroke-linejoin="round" shaper:cutDepth="0.003175" /><path d="M3.5450992,-1.6107475 L3.5246056,-1.6107475 A0.1016,0.1016 90 0,1 3.4230056,-1.7123475 L3.4230056,-2.5183403 A0.1524,0.1524 0 0,0 3.2706056,-2.6707403 L2.324608,-2.6707403 A0.1016,0.1016 270 0,0 2.223008,-2.5691403 L2.223008,-1.6998446 A0.1016,0.1016 0 0,1 2.1337992,-1.5990031 A0.1000001,0.1000001 262.9947503 0,0 2.0459951,-1.4997495 L2.0459951,-1.0097581 A0.1000001,0.1000001 180 0,0 2.1542599,-0.9101002 A0.0635,0.0635 265.2592644 0,1 2.223008,-0.8468174 L2.223008,-0.0061533 A0.1524,0.1524 180 0,0 2.375408,0.1462467 L3.2706056,0.1462467 A0.1524,0.1524 90 0,0 3.4230056,-0.0061533 L3.4230056,-0.8116842 A0.1016,0.1016 180 0,1 3.5249676,-0.9132836 L3.5433241,-0.9132182 A0.1016,0.1016 90.2041409 0,0 3.6452856,-1.0145271 L3.6466988,-1.5088571 A0.1016,0.1016 0.1637937 0,0 3.5450992,-1.6107475z" transform="matrix(1,0,0,-1,8.89,3.743671)" fill="rgb(255,255,255)" stroke="rgb(0,0,0)" stroke-width="0.0010cm" stroke-linecap="round" stroke-linejoin="round" shaper:cutDepth="0.003175" /><path d="M-2.6595609,2.4080394 A0.1094014,0.1094014 314.1837024 0,1 -2.6460309,2.5490098 L-2.8718827,2.8171279 A0.1045385,0.1045385 42.3554998 0,1 -3.013075,2.8294011 L-3.3884362,2.5144157 A0.0999828,0.0999828 129.9863861 0,1 -3.4008272,2.3736002 L-3.2264096,2.1657504 -2.9342728,2.1657504 -2.6595609,2.4080394z" transform="matrix(1,0,0,-1,8.89,3.743671)" fill="rgb(255,255,255)" stroke="rgb(0,0,0)" stroke-width="0.0010cm" stroke-linecap="round" stroke-linejoin="round" shaper:cutDepth="0.003175" /><path d="M1.8536598,-0.6954186 L1.3175453,-0.5002906 A0.1016,0.1016 70.0001666 0,1 1.2827963,-0.4941635 L1.2471961,-0.4941635 A0.1016,0.1016 90 0,1 1.2124471,-0.5002906 L0.6763326,-0.6954186 A0.1016,0.1016 289.9998334 0,0 0.5461108,-0.6346946 L0.4274965,-0.3088011 A0.1016,0.1016 199.9998024 0,0 0.4882204,-0.1785793 L1.0242649,0.0165232 A0.1016,0.1016 109.9998334 0,0 1.0590139,0.0226503 L1.4709785,0.0226503 A0.1016,0.1016 90 0,0 1.5057275,0.0165232 L2.041772,-0.1785793 A0.1016,0.1016 70.0001666 0,0 2.1024959,-0.3088011 L1.9838816,-0.6346946 A0.1016,0.1016 340.0001976 0,0 1.8536598,-0.6954186z" transform="matrix(1,0,0,-1,8.89,3.743671)" fill="rgb(255,255,255)" stroke="rgb(0,0,0)" stroke-width="0.0010cm" stroke-linecap="round" stroke-linejoin="round" shaper:cutDepth="0.003175" /><path d="M7.3565557,-0.5000656 L7.3150459,-0.4971424 A0.004,0.004 85.9717363 0,1 7.3137296,-0.4972688 L6.7460785,-0.6493698 A0.1016,0.1016 284.9999401 0,0 6.6216456,-0.5775318 L6.531872,-0.242548 A0.1016,0.1016 195.0023947 0,0 6.6037144,-0.1181094 L7.1568114,0.0300836 A0.1016,0.1016 104.9991432 0,0 7.1878629,0.0334337 L7.5304317,0.017377 A0.1016,0.1016 87.3164233 0,0 7.5604222,0.0113618 L8.0987814,-0.1845732 A0.1016,0.1016 70.0011018 0,0 8.1595069,-0.3147955 L8.0408926,-0.640689 A0.1016,0.1016 340.0001976 0,0 7.9106713,-0.7014132 L7.3587298,-0.5005283 A0.008,0.008 70.0004883 0,1 7.3565557,-0.5000656z" transform="matrix(1,0,0,-1,8.89,3.743671)" fill="rgb(255,255,255)" stroke="rgb(0,0,0)" stroke-width="0.0010cm" stroke-linecap="round" stroke-linejoin="round" shaper:cutDepth="0.003175" /><path d="M-1.0891411,-0.0683033 A0.0762,0.0762 49.9982126 0,1 -1.1964951,-0.077693 L-1.4520823,-0.3822796 A0.0762,0.0762 139.9990336 0,1 -1.4426905,-0.489634 L-1.0308537,-0.8352002 A0.0762,0.0762 230.0004877 0,1 -0.9234997,-0.8258058 L-0.6679403,-0.5212236 A0.0762,0.0762 320.0017064 0,1 -0.6773322,-0.4138739 L-1.0891411,-0.0683033z" transform="matrix(1,0,0,-1,8.89,3.743671)" fill="rgb(255,255,255)" stroke="rgb(0,0,0)" stroke-width="0.0010cm" stroke-linecap="round" stroke-linejoin="round" shaper:cutDepth="0.003175" /><path d="M4.1864876,2.2805701 L4.3090758,2.4929152 A0.1524,0.1524 330.0018753 0,1 4.2532918,2.7010927 L3.8230506,2.9494957 A0.1524,0.1524 59.9996805 0,1 3.7468499,2.9699139 L3.1111501,2.9699139 A0.1524,0.1524 90 0,1 3.0349494,2.9494957 L2.5827121,2.688393 A0.127,0.127 120.0003195 0,1 2.5362254,2.5149118 L2.6715124,2.2805701 A0.1524,0.1524 209.9981247 0,1 2.8797009,2.2247857 L3.3098834,2.4731678 A0.1524,0.1524 120.0016115 0,0 3.3860871,2.4935877 L3.4719129,2.4935877 A0.1524,0.1524 90 0,0 3.5481166,2.4731678 L3.9782991,2.2247857 A0.1524,0.1524 239.9983885 0,1 4.1864876,2.2805701z" transform="matrix(1,0,0,-1,8.89,3.743671)" fill="rgb(255,255,255)" stroke="rgb(0,0,0)" stroke-width="0.0010cm" stroke-linecap="round" stroke-linejoin="round" shaper:cutDepth="0.003175" /><path d="M0.3899916,2.4612535 L0.8800084,2.4612532 A0.1000001,0.1000001 270 0,1 0.9800085,2.5612533 L0.9800085,2.9112399 A0.1000001,0.1000001 0 0,1 0.8800084,3.0112399 L0.3899916,3.0112399 A0.1000001,0.1000001 90 0,1 0.2899915,2.9112399 L0.2899918,2.5612533 A0.0999998,0.0999998 180 0,1 0.3899916,2.4612535z" transform="matrix(1,0,0,-1,8.89,3.743671)" fill="rgb(255,255,255)" stroke="rgb(0,0,0)" stroke-width="0.0010cm" stroke-linecap="round" stroke-linejoin="round" shaper:cutDepth="0.003175" /><path d="M0.302006,1.0702479 L-0.1880108,1.0702481 A0.1000001,0.1000001 90 0,1 -0.2880109,0.9702481 L-0.2880109,0.6202361 A0.1000001,0.1000001 180 0,1 -0.1880108,0.520236 L0.302006,0.520236 A0.1000001,0.1000001 270 0,1 0.4020061,0.6202361 L0.4020058,0.9702481 A0.0999998,0.0999998 0 0,1 0.302006,1.0702479z" transform="matrix(1,0,0,-1,8.89,3.743671)" fill="rgb(255,255,255)" stroke="rgb(0,0,0)" stroke-width="0.0010cm" stroke-linecap="round" stroke-linejoin="round" shaper:cutDepth="0.003175" /><path d="M1.7819878,2.0429663 L1.4320012,2.0429665 A0.1000001,0.1000001 90 0,1 1.3320011,1.9429665 L1.3320011,1.4529497 A0.1000001,0.1000001 180 0,1 1.382292,1.3661799 L1.831697,1.3661799 A0.1000001,0.1000001 299.8078005 0,1 1.8819879,1.4529497 L1.8819876,1.9429665 A0.0999998,0.0999998 0 0,1 1.7819878,2.0429663z" transform="matrix(1,0,0,-1,8.89,3.743671)" fill="rgb(255,255,255)" stroke="rgb(0,0,0)" stroke-width="0.0010cm" stroke-linecap="round" stroke-linejoin="round" shaper:cutDepth="0.003175" /><path d="M4.6299885,1.9429665 A0.1000001,0.1000001 0 0,1 4.5299884,2.0429665 L4.1800018,2.0429665 A0.1000001,0.1000001 90 0,1 4.0800017,1.9429665 L4.080002,1.4529497 A0.0999998,0.0999998 180 0,1 4.1302926,1.3661801 L4.5796976,1.3661799 A0.1000001,0.1000001 299.8078005 0,1 4.6299885,1.4529497 L4.6299885,1.9429665z" transform="matrix(1,0,0,-1,8.89,3.743671)" fill="rgb(255,255,255)" stroke="rgb(0,0,0)" stroke-width="0.0010cm" stroke-linecap="round" stroke-linejoin="round" shaper:cutDepth="0.003175" /><path d="M5.0360072,-1.5997493 L5.3859938,-1.5997496 A0.1000001,0.1000001 270 0,1 5.4859939,-1.4997495 L5.4859939,-1.0097581 A0.1000001,0.1000001 0 0,1 5.3859938,-0.9097581 L5.0360072,-0.9097581 A0.1000001,0.1000001 90 0,1 4.9360071,-1.0097581 L4.9360074,-1.4997495 A0.0999998,0.0999998 180 0,1 5.0360072,-1.5997493z" transform="matrix(1,0,0,-1,8.89,3.743671)" fill="rgb(255,255,255)" stroke="rgb(0,0,0)" stroke-width="0.0010cm" stroke-linecap="round" stroke-linejoin="round" shaper:cutDepth="0.003175" /><path d="M2.1865082,-2.4037609 L2.1865085,-2.0537489 A0.1000001,0.1000001 0 0,1 2.0865084,-1.9537489 L1.5964916,-1.9537489 A0.1000001,0.1000001 90 0,1 1.4964915,-2.0537489 L1.4964915,-2.4037609 A0.1000001,0.1000001 180 0,1 1.5964916,-2.503761 L2.0865084,-2.5037607 A0.0999998,0.0999998 270 0,1 2.1865082,-2.4037609z" transform="matrix(1,0,0,-1,8.89,3.743671)" fill="rgb(255,255,255)" stroke="rgb(0,0,0)" stroke-width="0.0010cm" stroke-linecap="round" stroke-linejoin="round" shaper:cutDepth="0.003175" /><path d="M-5.2615084,-2.5037607 L-4.7714916,-2.503761 A0.1000001,0.1000001 270 0,1 -4.6714915,-2.4037609 L-4.6714915,-2.0537489 A0.1000001,0.1000001 0 0,1 -4.7714916,-1.9537489 L-5.2615084,-1.9537489 A0.1000001,0.1000001 90 0,1 -5.3615085,-2.0537489 L-5.3615082,-2.4037609 A0.0999998,0.0999998 180 0,1 -5.2615084,-2.5037607z" transform="matrix(1,0,0,-1,8.89,3.743671)" fill="rgb(255,255,255)" stroke="rgb(0,0,0)" stroke-width="0.0010cm" stroke-linecap="round" stroke-linejoin="round" shaper:cutDepth="0.003175" /><path d="M-6.7099942,-1.5997493 L-6.3600076,-1.5997496 A0.1000001,0.1000001 270 0,1 -6.2600075,-1.4997495 L-6.2600075,-1.0097581 A0.1000001,0.1000001 0 0,1 -6.3600076,-0.9097581 L-6.7099942,-0.9097581 A0.1000001,0.1000001 90 0,1 -6.8099943,-1.0097581 L-6.809994,-1.4997495 A0.0999998,0.0999998 180 0,1 -6.7099942,-1.5997493z" transform="matrix(1,0,0,-1,8.89,3.743671)" fill="rgb(255,255,255)" stroke="rgb(0,0,0)" stroke-width="0.0010cm" stroke-linecap="round" stroke-linejoin="round" shaper:cutDepth="0.003175" /><path d="M-6.4912999,-0.0097601 A0.1000001,0.1000001 0 0,1 -6.5913,0.0902399 L-7.0812914,0.0902399 A0.1000001,0.1000001 90 0,1 -7.1812915,-0.0097601 L-7.1812912,-0.3597467 A0.0999998,0.0999998 180 0,1 -7.0812914,-0.4597465 L-6.5913,-0.4597468 A0.1000001,0.1000001 270 0,1 -6.4912999,-0.3597467 L-6.4912999,-0.0097601z" transform="matrix(1,0,0,-1,8.89,3.743671)" fill="rgb(255,255,255)" stroke="rgb(0,0,0)" stroke-width="0.0010cm" stroke-linecap="round" stroke-linejoin="round" shaper:cutDepth="0.003175" /><path d="M-5.7589931,-1.4997495 A0.1000001,0.1000001 180 0,1 -5.658993,-1.5997496 L-5.3090064,-1.5997496 A0.1000001,0.1000001 270 0,1 -5.2090063,-1.4997495 L-5.2090066,-1.0097581 A0.0999998,0.0999998 0 0,1 -5.3090064,-0.9097583 L-5.658993,-0.9097581 A0.1000001,0.1000001 90 0,1 -5.7589931,-1.0097581 L-5.7589931,-1.4997495z" transform="matrix(1,0,0,-1,8.89,3.743671)" fill="rgb(255,255,255)" stroke="rgb(0,0,0)" stroke-width="0.0010cm" stroke-linecap="round" stroke-linejoin="round" shaper:cutDepth="0.003175" /><path d="M-3.5411918,-2.4037609 L-3.5411915,-2.0537489 A0.1000001,0.1000001 0 0,1 -3.6411916,-1.9537489 L-4.1312084,-1.9537489 A0.1000001,0.1000001 90 0,1 -4.2312085,-2.0537489 L-4.2312085,-2.4037609 A0.1000001,0.1000001 180 0,1 -4.1312084,-2.503761 L-3.6411916,-2.5037607 A0.0999998,0.0999998 270 0,1 -3.5411918,-2.4037609z" transform="matrix(1,0,0,-1,8.89,3.743671)" fill="rgb(255,255,255)" stroke="rgb(0,0,0)" stroke-width="0.0010cm" stroke-linecap="round" stroke-linejoin="round" shaper:cutDepth="0.003175" /><path d="M-0.9329928,-1.0097581 L-0.9329931,-1.4997495 A0.1000001,0.1000001 180 0,1 -0.832993,-1.5997496 L-0.4830064,-1.5997496 A0.1000001,0.1000001 270 0,1 -0.3830063,-1.4997495 L-0.3830063,-1.0097581 A0.1000001,0.1000001 0 0,1 -0.4830064,-0.9097581 L-0.832993,-0.9097583 A0.0999998,0.0999998 90 0,1 -0.9329928,-1.0097581z" transform="matrix(1,0,0,-1,8.89,3.743671)" fill="rgb(255,255,255)" stroke="rgb(0,0,0)" stroke-width="0.0010cm" stroke-linecap="round" stroke-linejoin="round" shaper:cutDepth="0.003175" /><path d="M0.419989,-2.5037607 L0.9100058,-2.503761 A0.1000001,0.1000001 270 0,1 1.0100059,-2.4037609 L1.0100059,-2.0537489 A0.1000001,0.1000001 0 0,1 0.9100058,-1.9537489 L0.419989,-1.9537489 A0.1000001,0.1000001 90 0,1 0.3199889,-2.0537489 L0.3199892,-2.4037609 A0.0999998,0.0999998 180 0,1 0.419989,-2.5037607z" transform="matrix(1,0,0,-1,8.89,3.743671)" fill="rgb(255,255,255)" stroke="rgb(0,0,0)" stroke-width="0.0010cm" stroke-linecap="round" stroke-linejoin="round" shaper:cutDepth="0.003175" /><path d="M5.2340005,-0.0097601 A0.1000001,0.1000001 0 0,1 5.1340004,0.0902399 L4.644009,0.0902399 A0.1000001,0.1000001 90 0,1 4.5440089,-0.0097601 L4.5440092,-0.3597467 A0.0999998,0.0999998 180 0,1 4.644009,-0.4597465 L5.1340004,-0.4597468 A0.1000001,0.1000001 270 0,1 5.2340005,-0.3597467 L5.2340005,-0.0097601z" transform="matrix(1,0,0,-1,8.89,3.743671)" fill="rgb(255,255,255)" stroke="rgb(0,0,0)" stroke-width="0.0010cm" stroke-linecap="round" stroke-linejoin="round" shaper:cutDepth="0.003175" /><path d="M8.1250028,-1.9217451 L7.6350114,-1.9217449 A0.1000001,0.1000001 90 0,1 7.5350113,-2.0217449 L7.5350113,-2.3717569 A0.1000001,0.1000001 180 0,1 7.6350114,-2.471757 L8.1250028,-2.471757 A0.1000001,0.1000001 270 0,1 8.2250029,-2.3717569 L8.2250026,-2.0217449 A0.0999998,0.0999998 0 0,1 8.1250028,-1.9217451z" transform="matrix(1,0,0,-1,8.89,3.743671)" fill="rgb(255,255,255)" stroke="rgb(0,0,0)" stroke-width="0.0010cm" stroke-linecap="round" stroke-linejoin="round" shaper:cutDepth="0.003175" /><path d="M-0.1489964,1.3529496 A0.1000001,0.1000001 270 0,1 -0.0489963,1.4529497 L-0.0489963,1.9429665 A0.1000001,0.1000001 0 0,1 -0.1052749,2.0329023 L-0.5427299,2.0329023 A0.1000001,0.1000001 115.9262978 0,1 -0.5990085,1.9429665 L-0.5990085,1.4529497 A0.1000001,0.1000001 180 0,1 -0.4990084,1.3529496 L-0.1489964,1.3529496z" transform="matrix(1,0,0,-1,8.89,3.743671)" fill="rgb(255,255,255)" stroke="rgb(0,0,0)" stroke-width="0.0010cm" stroke-linecap="round" stroke-linejoin="round" shaper:cutDepth="0.003175" /><path d="M-3.4539933,2.2512463 A0.1000001,0.1000001 0 0,1 -3.5539934,2.3512463 L-4.0440102,2.3512463 A0.1000001,0.1000001 90 0,1 -4.1440103,2.2512463 L-4.14401,1.1752515 A0.0999998,0.0999998 180 0,1 -4.0440102,1.0752517 L-3.5539934,1.0752514 A0.1000001,0.1000001 270 0,1 -3.4539933,1.1752515 L-3.4539933,2.2512463z" transform="matrix(1,0,0,-1,8.89,3.743671)" fill="rgb(255,255,255)" stroke="rgb(0,0,0)" stroke-width="0.0010cm" stroke-linecap="round" stroke-linejoin="round" shaper:cutDepth="0.003175" /><path d="M-3.2549084,0.3762437 L-2.7648916,0.3762434 A0.1000001,0.1000001 270 0,1 -2.6648915,0.4762435 L-2.6648915,0.8262555 A0.1000001,0.1000001 0 0,1 -2.7648916,0.9262555 L-3.2549084,0.9262555 A0.1000001,0.1000001 90 0,1 -3.3549085,0.8262555 L-3.3549082,0.4762435 A0.0999998,0.0999998 180 0,1 -3.2549084,0.3762437z" transform="matrix(1,0,0,-1,8.89,3.743671)" fill="rgb(255,255,255)" stroke="rgb(0,0,0)" stroke-width="0.0010cm" stroke-linecap="round" stroke-linejoin="round" shaper:cutDepth="0.003175" /><path d="M-0.5329936,2.6523885 L-1.0230104,2.6523887 A0.1000001,0.1000001 90 0,1 -1.1230105,2.5523887 L-1.1230105,2.2023767 A0.1000001,0.1000001 180 0,1 -1.0451134,2.1048499 L-0.5108906,2.1048499 A0.1000001,0.1000001 282.7695531 0,1 -0.4329935,2.2023767 L-0.4329938,2.5523887 A0.0999998,0.0999998 0 0,1 -0.5329936,2.6523885z" transform="matrix(1,0,0,-1,8.89,3.743671)" fill="rgb(255,255,255)" stroke="rgb(0,0,0)" stroke-width="0.0010cm" stroke-linecap="round" stroke-linejoin="round" shaper:cutDepth="0.003175" /><path d="M6.9730112,-1.9217451 L6.4829944,-1.9217449 A0.1000001,0.1000001 90 0,1 6.3829943,-2.0217449 L6.3829943,-2.3717569 A0.1000001,0.1000001 180 0,1 6.4829944,-2.471757 L6.9730112,-2.471757 A0.1000001,0.1000001 270 0,1 7.0730113,-2.3717569 L7.073011,-2.0217449 A0.0999998,0.0999998 0 0,1 6.9730112,-1.9217451z" transform="matrix(1,0,0,-1,8.89,3.743671)" fill="rgb(255,255,255)" stroke="rgb(0,0,0)" stroke-width="0.0010cm" stroke-linecap="round" stroke-linejoin="round" shaper:cutDepth="0.003175" /><path d="M4.5530008,-1.9787427 L4.0630094,-1.9787425 A0.1000001,0.1000001 90 0,1 3.9630093,-2.0787425 L3.9630093,-2.4287545 A0.1000001,0.1000001 180 0,1 4.0630094,-2.5287546 L4.5530008,-2.5287546 A0.1000001,0.1000001 270 0,1 4.6530009,-2.4287545 L4.6530006,-2.0787425 A0.0999998,0.0999998 0 0,1 4.5530008,-1.9787427z" transform="matrix(1,0,0,-1,8.89,3.743671)" fill="rgb(255,255,255)" stroke="rgb(0,0,0)" stroke-width="0.0010cm" stroke-linecap="round" stroke-linejoin="round" shaper:cutDepth="0.003175" /><path d="M-2.4049993,-2.4287545 A0.1000001,0.1000001 180 0,1 -2.3049992,-2.5287546 L-0.9139936,-2.5287546 A0.1000001,0.1000001 270 0,1 -0.8139935,-2.4287545 L-0.8139938,-2.0787425 A0.0999998,0.0999998 0 0,1 -0.9139936,-1.9787427 L-2.3049992,-1.9787425 A0.1000001,0.1000001 90 0,1 -2.4049993,-2.0787425 L-2.4049993,-2.4287545z" transform="matrix(1,0,0,-1,8.89,3.743671)" fill="rgb(255,255,255)" stroke="rgb(0,0,0)" stroke-width="0.0010cm" stroke-linecap="round" stroke-linejoin="round" shaper:cutDepth="0.003175" /><path d="M-2.6893594,-0.9193464 L-2.6893594,-0.9099022 A0.1000001,0.1000001 93.0764381 0,1 -2.7839927,-1.0097581 L-2.7839927,-1.4997495 A0.1000001,0.1000001 180 0,1 -2.6839926,-1.5997496 L-2.334006,-1.5997493 A0.0999998,0.0999998 270 0,1 -2.2340062,-1.4997495 L-2.2340059,-1.0097581 A0.1000001,0.1000001 0 0,1 -2.2912774,-0.9193464 L-2.6893594,-0.9193464z" transform="matrix(1,0,0,-1,8.89,3.743671)" fill="rgb(255,255,255)" stroke="rgb(0,0,0)" stroke-width="0.0010cm" stroke-linecap="round" stroke-linejoin="round" shaper:cutDepth="0.003175" /><path d="M-3.755009,-1.0097581 L-3.7550093,-1.4997495 A0.1000001,0.1000001 180 0,1 -3.6550092,-1.5997496 L-3.3049972,-1.5997496 A0.1000001,0.1000001 270 0,1 -3.2049971,-1.4997495 L-3.2049971,-1.0097581 A0.1000001,0.1000001 0 0,1 -3.3049972,-0.9097581 L-3.6550092,-0.9097583 A0.0999998,0.0999998 90 0,1 -3.755009,-1.0097581z" transform="matrix(1,0,0,-1,8.89,3.743671)" fill="rgb(255,255,255)" stroke="rgb(0,0,0)" stroke-width="0.0010cm" stroke-linecap="round" stroke-linejoin="round" shaper:cutDepth="0.003175" /><path d="M-7.7209904,-0.3597467 L-7.7209901,-0.0097601 A0.1000001,0.1000001 0 0,1 -7.8209902,0.0902399 L-8.311007,0.0902399 A0.1000001,0.1000001 90 0,1 -8.4110071,-0.0097601 L-8.4110071,-0.3597467 A0.1000001,0.1000001 180 0,1 -8.311007,-0.4597468 L-7.8209902,-0.4597465 A0.0999998,0.0999998 270 0,1 -7.7209904,-0.3597467z" transform="matrix(1,0,0,-1,8.89,3.743671)" fill="rgb(255,255,255)" stroke="rgb(0,0,0)" stroke-width="0.0010cm" stroke-linecap="round" stroke-linejoin="round" shaper:cutDepth="0.003175" /><path d="M-8.025003,-1.9167411 A0.1000001,0.1000001 90 0,1 -8.1250031,-2.0167411 L-8.1250031,-2.3667531 A0.1000001,0.1000001 180 0,1 -8.025003,-2.4667532 L-6.7909948,-2.4667529 A0.0999998,0.0999998 270 0,1 -6.690995,-2.3667531 L-6.6909947,-2.0167411 A0.1000001,0.1000001 0 0,1 -6.7909948,-1.9167411 L-8.025003,-1.9167411z" transform="matrix(1,0,0,-1,8.89,3.743671)" fill="rgb(255,255,255)" stroke="rgb(0,0,0)" stroke-width="0.0010cm" stroke-linecap="round" stroke-linejoin="round" shaper:cutDepth="0.003175" /><path d="M-4.094988,-0.4497643 L-4.0949877,-0.0997523 A0.1000001,0.1000001 0 0,1 -4.1949878,0.0002477 L-4.6850046,0.0002477 A0.1000001,0.1000001 90 0,1 -4.7850047,-0.0997523 L-4.7850047,-0.4497643 A0.1000001,0.1000001 180 0,1 -4.6850046,-0.5497644 L-4.1949878,-0.5497641 A0.0999998,0.0999998 270 0,1 -4.094988,-0.4497643z" transform="matrix(1,0,0,-1,8.89,3.743671)" fill="rgb(255,255,255)" stroke="rgb(0,0,0)" stroke-width="0.0010cm" stroke-linecap="round" stroke-linejoin="round" shaper:cutDepth="0.003175" /><path d="M-0.0050038,-1.0097581 L-0.0050041,-1.4997495 A0.1000001,0.1000001 180 0,1 0.094996,-1.5997496 L0.445008,-1.5997496 A0.1000001,0.1000001 270 0,1 0.5450081,-1.4997495 L0.5450081,-1.0097581 A0.1000001,0.1000001 0 0,1 0.445008,-0.9097581 L0.094996,-0.9097583 A0.0999998,0.0999998 90 0,1 -0.0050038,-1.0097581z" transform="matrix(1,0,0,-1,8.89,3.743671)" fill="rgb(255,255,255)" stroke="rgb(0,0,0)" stroke-width="0.0010cm" stroke-linecap="round" stroke-linejoin="round" shaper:cutDepth="0.003175" /><path d="M6.5289938,-1.7647477 L6.5289941,-0.5617529 A0.1000001,0.1000001 0 0,1 6.428994,-0.4617529 L6.0790074,-0.4617529 A0.1000001,0.1000001 90 0,1 5.9790073,-0.5617529 L5.9790073,-1.7647477 A0.1000001,0.1000001 180 0,1 6.0790074,-1.8647478 L6.428994,-1.8647475 A0.0999998,0.0999998 270 0,1 6.5289938,-1.7647477z" transform="matrix(1,0,0,-1,8.89,3.743671)" fill="rgb(255,255,255)" stroke="rgb(0,0,0)" stroke-width="0.0010cm" stroke-linecap="round" stroke-linejoin="round" shaper:cutDepth="0.003175" /><path d="M2.2340059,1.3892465 A0.1000001,0.1000001 180 0,1 2.334006,1.2892464 L2.6839926,1.2892464 A0.1000001,0.1000001 270 0,1 2.7839927,1.3892465 L2.7839924,1.8792379 A0.0999998,0.0999998 0 0,1 2.6839926,1.9792377 L2.334006,1.9792379 A0.1000001,0.1000001 90 0,1 2.2340059,1.8792379 L2.2340059,1.3892465z" transform="matrix(1,0,0,-1,8.89,3.743671)" fill="rgb(255,255,255)" stroke="rgb(0,0,0)" stroke-width="0.0010cm" stroke-linecap="round" stroke-linejoin="round" shaper:cutDepth="0.003175" /><path d="M0.864997,0.9702481 L0.8649967,0.6202361 A0.1000001,0.1000001 180 0,1 0.9649968,0.520236 L1.4549882,0.520236 A0.1000001,0.1000001 270 0,1 1.5549883,0.6202361 L1.5549883,0.9702481 A0.1000001,0.1000001 0 0,1 1.4549882,1.0702481 L0.9649968,1.0702479 A0.0999998,0.0999998 90 0,1 0.864997,0.9702481z" transform="matrix(1,0,0,-1,8.89,3.743671)" fill="rgb(255,255,255)" stroke="rgb(0,0,0)" stroke-width="0.0010cm" stroke-linecap="round" stroke-linejoin="round" shaper:cutDepth="0.003175" /><path d="M-1.1230102,1.2272453 L-1.1230105,0.8772587 A0.1000001,0.1000001 180 0,1 -1.0230104,0.7772586 L-0.5329936,0.7772586 A0.1000001,0.1000001 270 0,1 -0.4329935,0.8772587 L-0.4329935,1.2272453 A0.1000001,0.1000001 0 0,1 -0.5329936,1.3272453 L-1.0230104,1.3272451 A0.0999998,0.0999998 90 0,1 -1.1230102,1.2272453z" transform="matrix(1,0,0,-1,8.89,3.743671)" fill="rgb(255,255,255)" stroke="rgb(0,0,0)" stroke-width="0.0010cm" stroke-linecap="round" stroke-linejoin="round" shaper:cutDepth="0.003175" /><path d="M-1.4710915,0.4762435 L-1.4710915,0.8262555 A0.1000001,0.1000001 0 0,1 -1.5710916,0.9262555 L-2.0611084,0.9262555 A0.1000001,0.1000001 90 0,1 -2.1611085,0.8262555 L-2.1611085,0.4762435 A0.1000001,0.1000001 180 0,1 -2.0737133,0.377041 L-1.5584867,0.377041 A0.1000001,0.1000001 277.2413523 0,1 -1.4710915,0.4762435z" transform="matrix(1,0,0,-1,8.89,3.743671)" fill="rgb(255,255,255)" stroke="rgb(0,0,0)" stroke-width="0.0010cm" stroke-linecap="round" stroke-linejoin="round" shaper:cutDepth="0.003175" /><path d="M-1.6960235,-0.6656276 A0.6,0.6 100.420585 1,1 -1.4584895,-0.6697654 A0.1190625,0.1190625 2.9146416 0,1 -1.6960235,-0.6656276z" transform="matrix(1,0,0,-1,8.89,3.743671)" fill="rgb(255,255,255)" stroke="rgb(0,0,0)" stroke-width="0.0010cm" stroke-linecap="round" stroke-linejoin="round" shaper:cutDepth="0.003175" /><path d="M4.1780375,-0.6655705 A0.6,0.6 100.3903866 1,1 4.4149516,-0.6696975 A0.1190625,0.1190625 353.3078334 1,1 4.1780375,-0.6655705z" transform="matrix(1,0,0,-1,8.89,3.743671)" fill="rgb(255,255,255)" stroke="rgb(0,0,0)" stroke-width="0.0010cm" stroke-linecap="round" stroke-linejoin="round" shaper:cutDepth="0.003175" /><path d="M-7.5694625,-0.6655705 A0.6,0.6 100.3903866 1,1 -7.3325484,-0.6696975 A0.1190625,0.1190625 353.3078334 1,1 -7.5694625,-0.6655705z" transform="matrix(1,0,0,-1,8.89,3.743671)" fill="rgb(255,255,255)" stroke="rgb(0,0,0)" stroke-width="0.0010cm" stroke-linecap="round" stroke-linejoin="round" shaper:cutDepth="0.003175" /><path d="M3.3207875,2.2871795 A0.6,0.6 100.3903866 0,1 3.3360721,1.1042585 L3.1839916,1.1042585 A0.0999998,0.0999998 90 0,1 3.0839918,1.0042587 L3.0839915,0.6542467 A0.1000001,0.1000001 180 0,1 3.1839916,0.5542466 L3.6740084,0.5542469 A0.0999998,0.0999998 270 0,1 3.7740082,0.6542467 L3.7740085,1.0042587 A0.1000001,0.1000001 0 0,1 3.6740084,1.1042587 L3.5219279,1.1042585 A0.6,0.6 278.909831 0,1 3.5577016,2.2830525 A0.1190625,0.1190625 353.3078334 1,1 3.3207875,2.2871795z" transform="matrix(1,0,0,-1,8.89,3.743671)" fill="rgb(255,255,255)" stroke="rgb(0,0,0)" stroke-width="0.0010cm" stroke-linecap="round" stroke-linejoin="round" shaper:cutDepth="0.003175" /><path d="M7.112,-2.2082315 a0.1905,0.1905 0 1,1 0.381,0 a0.1905,0.1905 0 1,1 -0.381,0z" transform="matrix(1,0,0,-1,8.89,3.743671)" fill="rgb(255,255,255)" stroke="rgb(0,0,0)" stroke-width="0.0010cm" stroke-linecap="round" stroke-linejoin="round" shaper:cutDepth="0.003175" /><path d="M1.943735,2.2367685 a0.215265,0.215265 0 1,1 0.43053,0 a0.215265,0.215265 0 1,1 -0.43053,0z" transform="matrix(1,0,0,-1,8.89,3.743671)" fill="rgb(255,255,255)" stroke="rgb(0,0,0)" stroke-width="0.0010cm" stroke-linecap="round" stroke-linejoin="round" shaper:cutDepth="0.003175" /><path d="M-4.787265,3.0622685 a0.215265,0.215265 0 1,1 0.43053,0 a0.215265,0.215265 0 1,1 -0.43053,0z" transform="matrix(1,0,0,-1,8.89,3.743671)" fill="rgb(255,255,255)" stroke="rgb(0,0,0)" stroke-width="0.0010cm" stroke-linecap="round" stroke-linejoin="round" shaper:cutDepth="0.003175" /><path d="M-4.6355,-2.2082315 a0.1905,0.1905 0 1,1 0.381,0 a0.1905,0.1905 0 1,1 -0.381,0z" transform="matrix(1,0,0,-1,8.89,3.743671)" fill="rgb(255,255,255)" stroke="rgb(0,0,0)" stroke-width="0.0010cm" stroke-linecap="round" stroke-linejoin="round" shaper:cutDepth="0.003175" /><path d="M-5.0546,-1.2557315 a0.6096,0.6096 0 1,1 1.2192,0 a0.6096,0.6096 0 1,1 -1.2192,0z" transform="matrix(1,0,0,-1,8.89,3.743671)" fill="rgb(255,255,255)" stroke="rgb(0,0,0)" stroke-width="0.0010cm" stroke-linecap="round" stroke-linejoin="round" shaper:cutDepth="0.003175" /><path d="M-2.6035,0.7445185 a0.1905,0.1905 0 1,1 0.381,0 a0.1905,0.1905 0 1,1 -0.381,0z" transform="matrix(1,0,0,-1,8.89,3.743671)" fill="rgb(255,255,255)" stroke="rgb(0,0,0)" stroke-width="0.0010cm" stroke-linecap="round" stroke-linejoin="round" shaper:cutDepth="0.003175" /><path d="M1.435735,3.0622685 a0.215265,0.215265 0 1,1 0.43053,0 a0.215265,0.215265 0 1,1 -0.43053,0z" transform="matrix(1,0,0,-1,8.89,3.743671)" fill="rgb(255,255,255)" stroke="rgb(0,0,0)" stroke-width="0.0010cm" stroke-linecap="round" stroke-linejoin="round" shaper:cutDepth="0.003175" /><path d="M6.6929,-1.2557315 a0.6096,0.6096 0 1,1 1.2192,0 a0.6096,0.6096 0 1,1 -1.2192,0z" transform="matrix(1,0,0,-1,8.89,3.743671)" fill="rgb(255,255,255)" stroke="rgb(0,0,0)" stroke-width="0.0010cm" stroke-linecap="round" stroke-linejoin="round" shaper:cutDepth="0.003175" /><path d="M5.499735,-2.7797315 a0.215265,0.215265 0 1,1 0.43053,0 a0.215265,0.215265 0 1,1 -0.43053,0z" transform="matrix(1,0,0,-1,8.89,3.743671)" fill="rgb(255,255,255)" stroke="rgb(0,0,0)" stroke-width="0.0010cm" stroke-linecap="round" stroke-linejoin="round" shaper:cutDepth="0.003175" /><path d="M0.6604,-1.2557315 a0.6096,0.6096 0 1,1 1.2192,0 a0.6096,0.6096 0 1,1 -1.2192,0z" transform="matrix(1,0,0,-1,8.89,3.743671)" fill="rgb(255,255,255)" stroke="rgb(0,0,0)" stroke-width="0.0010cm" stroke-linecap="round" stroke-linejoin="round" shaper:cutDepth="0.003175" /><path d="M0.0254,1.6970185 a0.6096,0.6096 0 1,1 1.2192,0 a0.6096,0.6096 0 1,1 -1.2192,0z" transform="matrix(1,0,0,-1,8.89,3.743671)" fill="rgb(255,255,255)" stroke="rgb(0,0,0)" stroke-width="0.0010cm" stroke-linecap="round" stroke-linejoin="round" shaper:cutDepth="0.003175" /><path d="M-6.311265,-2.7797315 a0.215265,0.215265 0 1,1 0.43053,0 a0.215265,0.215265 0 1,1 -0.43053,0z" transform="matrix(1,0,0,-1,8.89,3.743671)" fill="rgb(255,255,255)" stroke="rgb(0,0,0)" stroke-width="0.0010cm" stroke-linecap="round" stroke-linejoin="round" shaper:cutDepth="0.003175" /><path d="M-6.311265,-0.5572315 a0.215265,0.215265 0 1,1 0.43053,0 a0.215265,0.215265 0 1,1 -0.43053,0z" transform="matrix(1,0,0,-1,8.89,3.743671)" fill="rgb(255,255,255)" stroke="rgb(0,0,0)" stroke-width="0.0010cm" stroke-linecap="round" stroke-linejoin="round" shaper:cutDepth="0.003175" /><path d="M-3.0226,1.6970185 a0.6096,0.6096 0 1,1 1.2192,0 a0.6096,0.6096 0 1,1 -1.2192,0z" transform="matrix(1,0,0,-1,8.89,3.743671)" fill="rgb(255,255,255)" stroke="rgb(0,0,0)" stroke-width="0.0010cm" stroke-linecap="round" stroke-linejoin="round" shaper:cutDepth="0.003175" /><path d="M0.4445,0.7445185 a0.1905,0.1905 0 1,1 0.381,0 a0.1905,0.1905 0 1,1 -0.381,0z" transform="matrix(1,0,0,-1,8.89,3.743671)" fill="rgb(255,255,255)" stroke="rgb(0,0,0)" stroke-width="0.0010cm" stroke-linecap="round" stroke-linejoin="round" shaper:cutDepth="0.003175" /><path d="M1.0795,-2.2082315 a0.1905,0.1905 0 1,1 0.381,0 a0.1905,0.1905 0 1,1 -0.381,0z" transform="matrix(1,0,0,-1,8.89,3.743671)" fill="rgb(255,255,255)" stroke="rgb(0,0,0)" stroke-width="0.0010cm" stroke-linecap="round" stroke-linejoin="round" shaper:cutDepth="0.003175" /><path d="M5.499735,-0.5572315 a0.215265,0.215265 0 1,1 0.43053,0 a0.215265,0.215265 0 1,1 -0.43053,0z" transform="matrix(1,0,0,-1,8.89,3.743671)" fill="rgb(255,255,255)" stroke="rgb(0,0,0)" stroke-width="0.0010cm" stroke-linecap="round" stroke-linejoin="round" shaper:cutDepth="0.003175" /></svg>