%TF.GenerationSoftware,KiCad,Pcbnew,(5.1.6)-1*%
%TF.CreationDate,2020-11-25T11:58:54+11:00*%
%TF.ProjectId,JETT Station Select Placard PCB V1,4a455454-2053-4746-9174-696f6e205365,rev?*%
%TF.SameCoordinates,Original*%
%TF.FileFunction,Soldermask,Top*%
%TF.FilePolarity,Negative*%
%FSLAX46Y46*%
G04 Gerber Fmt 4.6, Leading zero omitted, Abs format (unit mm)*
G04 Created by KiCad (PCBNEW (5.1.6)-1) date 2020-11-25 11:58:54*
%MOMM*%
%LPD*%
G01*
G04 APERTURE LIST*
%ADD10C,1.620000*%
%ADD11R,1.620000X1.620000*%
%ADD12R,1.600000X1.100000*%
G04 APERTURE END LIST*
D10*
%TO.C,J2*%
X141068801Y-87884000D03*
X144068800Y-87884000D03*
X141068801Y-84884001D03*
D11*
X144068800Y-84884001D03*
%TD*%
D10*
%TO.C,J1*%
X151381201Y-87835999D03*
X154381200Y-87835999D03*
X151381201Y-84836000D03*
D11*
X154381200Y-84836000D03*
%TD*%
D12*
%TO.C,D8*%
X153455200Y-105080000D03*
X153455200Y-108280000D03*
X158355200Y-105080000D03*
X158355200Y-108280000D03*
%TD*%
%TO.C,D7*%
X145010800Y-105003600D03*
X145010800Y-108203600D03*
X149910800Y-105003600D03*
X149910800Y-108203600D03*
%TD*%
%TO.C,D6*%
X136578000Y-105003600D03*
X136578000Y-108203600D03*
X141478000Y-105003600D03*
X141478000Y-108203600D03*
%TD*%
%TO.C,D5*%
X154940000Y-98145600D03*
X154940000Y-101345600D03*
X159840000Y-98145600D03*
X159840000Y-101345600D03*
%TD*%
%TO.C,D4*%
X145491200Y-98196400D03*
X145491200Y-101396400D03*
X150391200Y-98196400D03*
X150391200Y-101396400D03*
%TD*%
%TO.C,D3*%
X135839200Y-98094800D03*
X135839200Y-101294800D03*
X140739200Y-98094800D03*
X140739200Y-101294800D03*
%TD*%
%TO.C,D2*%
X149606000Y-90881200D03*
X149606000Y-94081200D03*
X154506000Y-90881200D03*
X154506000Y-94081200D03*
%TD*%
%TO.C,D1*%
X140360400Y-90830400D03*
X140360400Y-94030400D03*
X145260400Y-90830400D03*
X145260400Y-94030400D03*
%TD*%
M02*
