%TF.GenerationSoftware,KiCad,Pcbnew,(5.1.6)-1*%
%TF.CreationDate,2020-11-25T11:58:53+11:00*%
%TF.ProjectId,JETT Station Select Placard PCB V1,4a455454-2053-4746-9174-696f6e205365,rev?*%
%TF.SameCoordinates,Original*%
%TF.FileFunction,Copper,L2,Bot*%
%TF.FilePolarity,Positive*%
%FSLAX46Y46*%
G04 Gerber Fmt 4.6, Leading zero omitted, Abs format (unit mm)*
G04 Created by KiCad (PCBNEW (5.1.6)-1) date 2020-11-25 11:58:53*
%MOMM*%
%LPD*%
G01*
G04 APERTURE LIST*
%TA.AperFunction,ComponentPad*%
%ADD10C,1.520000*%
%TD*%
%TA.AperFunction,ComponentPad*%
%ADD11R,1.520000X1.520000*%
%TD*%
%TA.AperFunction,ViaPad*%
%ADD12C,0.800000*%
%TD*%
%TA.AperFunction,Conductor*%
%ADD13C,0.750000*%
%TD*%
G04 APERTURE END LIST*
D10*
%TO.P,J2,4*%
%TO.N,Net-(C1-Pad2)*%
X141068801Y-87884000D03*
%TO.P,J2,3*%
%TO.N,Net-(D8-Pad2)*%
X144068800Y-87884000D03*
%TO.P,J2,2*%
%TO.N,Net-(C1-Pad1)*%
X141068801Y-84884001D03*
D11*
%TO.P,J2,1*%
%TO.N,Net-(J1-Pad2)*%
X144068800Y-84884001D03*
%TD*%
D10*
%TO.P,J1,4*%
%TO.N,Net-(D1-Pad4)*%
X151381201Y-87835999D03*
%TO.P,J1,3*%
%TO.N,Net-(C1-Pad2)*%
X154381200Y-87835999D03*
%TO.P,J1,2*%
%TO.N,Net-(J1-Pad2)*%
X151381201Y-84836000D03*
D11*
%TO.P,J1,1*%
%TO.N,Net-(C1-Pad1)*%
X154381200Y-84836000D03*
%TD*%
%TO.P,C1,2*%
%TO.N,Net-(C1-Pad2)*%
%TA.AperFunction,SMDPad,CuDef*%
G36*
G01*
X149276000Y-103565200D02*
X149276000Y-101565200D01*
G75*
G02*
X149526000Y-101315200I250000J0D01*
G01*
X152526000Y-101315200D01*
G75*
G02*
X152776000Y-101565200I0J-250000D01*
G01*
X152776000Y-103565200D01*
G75*
G02*
X152526000Y-103815200I-250000J0D01*
G01*
X149526000Y-103815200D01*
G75*
G02*
X149276000Y-103565200I0J250000D01*
G01*
G37*
%TD.AperFunction*%
%TO.P,C1,1*%
%TO.N,Net-(C1-Pad1)*%
%TA.AperFunction,SMDPad,CuDef*%
G36*
G01*
X142776000Y-103565200D02*
X142776000Y-101565200D01*
G75*
G02*
X143026000Y-101315200I250000J0D01*
G01*
X146026000Y-101315200D01*
G75*
G02*
X146276000Y-101565200I0J-250000D01*
G01*
X146276000Y-103565200D01*
G75*
G02*
X146026000Y-103815200I-250000J0D01*
G01*
X143026000Y-103815200D01*
G75*
G02*
X142776000Y-103565200I0J250000D01*
G01*
G37*
%TD.AperFunction*%
%TD*%
D12*
%TO.N,Net-(C1-Pad2)*%
X152061799Y-109355001D03*
X151420800Y-100366800D03*
X154472499Y-95646099D03*
X138539401Y-95105401D03*
%TO.N,Net-(C1-Pad1)*%
X134710000Y-103135600D03*
X148293401Y-97121399D03*
%TD*%
D13*
%TO.N,Net-(C1-Pad2)*%
X152061799Y-103600999D02*
X151026000Y-102565200D01*
X152061799Y-109355001D02*
X152061799Y-103600999D01*
X151420800Y-102170400D02*
X151026000Y-102565200D01*
X151420800Y-100366800D02*
X151420800Y-102170400D01*
X154381200Y-93705398D02*
X154381200Y-87835999D01*
X151420800Y-100366800D02*
X151420800Y-96665798D01*
X152440499Y-95646099D02*
X154472499Y-95646099D01*
X152440499Y-95646099D02*
X154381200Y-93705398D01*
X151420800Y-96665798D02*
X152440499Y-95646099D01*
X154472499Y-95646099D02*
X154472499Y-95646099D01*
X138539401Y-95105401D02*
X138539401Y-93728359D01*
X141068801Y-91198959D02*
X141068801Y-87884000D01*
X138539401Y-93728359D02*
X141068801Y-91198959D01*
%TO.N,Net-(C1-Pad1)*%
X143955600Y-103135600D02*
X144526000Y-102565200D01*
X134710000Y-103135600D02*
X143955600Y-103135600D01*
X148293401Y-98797799D02*
X144526000Y-102565200D01*
X148293401Y-97121399D02*
X148293401Y-98797799D01*
%TD*%
M02*
