M48
; DRILL file {KiCad (6.0.9)} date Sat Jan 21 17:33:27 2023
; FORMAT={-:-/ absolute / inch / decimal}
; #@! TF.CreationDate,2023-01-21T17:33:27-09:00
; #@! TF.GenerationSoftware,Kicad,Pcbnew,(6.0.9)
; #@! TF.FileFunction,Plated,1,2,PTH
FMAT,2
INCH
; #@! TA.AperFunction,Plated,PTH,ViaDrill
T1C0.0157
; #@! TA.AperFunction,Plated,PTH,ComponentDrill
T2C0.0276
; #@! TA.AperFunction,Plated,PTH,ComponentDrill
T3C0.0394
; #@! TA.AperFunction,Plated,PTH,ComponentDrill
T4C0.0551
; #@! TA.AperFunction,Plated,PTH,ComponentDrill
T5C0.0709
; #@! TA.AperFunction,Plated,PTH,ComponentDrill
T6C0.1200
%
G90
G05
T1
X0.84Y1.74
X1.155Y1.7
X1.169Y1.264
X1.195Y1.3
X1.2026Y1.7093
X1.26Y0.4
X1.3274Y1.6894
X1.395Y1.26
X1.415Y1.02
X1.4339Y1.0639
X1.4543Y1.2643
X1.4886Y1.6894
X1.5293Y1.6593
X1.54Y0.8
X1.58Y1.2
X1.58Y0.965
X1.5839Y0.8182
X1.64Y2.32
X1.64Y2.29
X1.64Y2.255
X1.6407Y0.9607
X1.6407Y0.7907
X1.76Y2.325
X1.76Y2.29
X1.76Y2.255
X2.4182Y2.0682
X2.485Y1.47
X2.485Y1.415
X2.495Y1.535
X2.515Y1.375
X2.53Y1.755
T2
X0.335Y1.05
X0.6025Y1.14
X0.605Y0.8975
X0.625Y0.15
X0.775Y0.15
X1.0Y1.85
T3
X0.2Y2.6
X0.2Y2.5
X0.2Y2.4
X0.64Y2.0
X0.74Y2.0
X0.84Y2.0
X0.94Y2.0
X0.995Y1.6
X0.995Y1.5
X1.0Y0.1
X1.04Y2.0
X1.095Y1.6
X1.095Y1.5
X1.1Y0.1
X1.14Y2.0
X1.195Y1.6
X1.195Y1.5
X1.2Y0.1
X1.24Y2.0
X1.295Y1.6
X1.295Y1.5
X1.3Y0.1
X1.34Y2.0
X1.395Y1.6
X1.395Y1.5
X1.4Y0.1
X1.44Y2.0
X1.5Y0.1
X1.54Y2.0
X1.6Y0.1
X1.64Y2.6
X1.64Y2.5
X1.64Y2.4
X1.7Y2.0
X1.7Y1.6
X1.7Y1.5
X1.7Y0.1
X1.8Y2.0
X1.8Y1.6
X1.8Y1.5
X1.9Y2.0
X1.9Y1.6
X1.9Y1.5
X1.9Y0.1
X2.0Y2.0
X2.0Y1.6
X2.0Y1.5
X2.0Y0.1
X2.1Y2.0
X2.1Y1.6
X2.1Y1.5
X2.1Y0.1
X2.2Y2.0
X2.2Y1.6
X2.2Y1.5
X2.2Y0.1
X2.3Y2.0
X2.3Y1.6
X2.3Y1.5
X2.3Y0.1
X2.4Y2.0
X2.4Y0.1
X2.5Y0.1
X2.6Y2.0
X2.6Y1.6
X2.6Y1.5
X2.6Y0.56
X2.6Y0.1
X2.605Y1.82
X2.7Y2.0
X2.7Y1.6
X2.7Y1.5
X2.7Y0.56
X2.705Y1.82
X2.8Y2.0
X2.8Y1.6
X2.8Y1.5
X2.8Y0.56
X2.8Y0.1
X2.805Y1.82
X2.9Y2.0
X2.9Y1.6
X2.9Y1.5
X2.9Y0.1
X2.905Y1.82
X3.0Y2.0
X3.0Y1.6
X3.0Y1.5
X3.0Y0.1
X3.005Y1.82
X3.1Y2.0
X3.1Y0.1
X3.2Y2.0
X3.2Y0.1
X3.25Y1.54
X3.3Y2.0
X3.3Y0.1
X3.35Y1.54
X3.4Y0.1
X3.5Y0.1
X3.6Y2.0
X3.6Y1.9
X3.6Y1.8
X3.6Y1.7
X3.6Y1.6
X3.6Y1.5
X3.6Y1.4
X3.6Y1.3
X3.6Y1.2
X3.6Y1.1
X3.6Y1.0
X3.6Y0.9
X3.6Y0.8
X3.6Y0.7
X3.6Y0.6
X3.6Y0.5
X3.6Y0.4
X3.6Y0.3
X3.7Y2.0
X3.7Y1.9
X3.7Y1.8
X3.7Y1.7
X3.7Y1.6
X3.7Y1.5
X3.7Y1.4
X3.7Y1.3
X3.7Y1.2
X3.7Y1.1
X3.7Y1.0
X3.7Y0.9
X3.7Y0.8
X3.7Y0.7
X3.7Y0.6
X3.7Y0.5
X3.7Y0.4
X3.7Y0.3
T4
X0.5346Y2.6
X0.5346Y2.3835
X0.7Y2.6
X0.7Y2.3835
X1.1346Y2.6
X1.1346Y2.3835
X1.3Y2.6
X1.3Y2.3835
T5
X0.4Y1.7307
X0.4Y1.5654
X0.4Y1.4
X0.4Y0.7057
X0.4Y0.5404
X0.4Y0.375
X0.6165Y1.7307
X0.6165Y1.5654
X0.6165Y1.4
X0.6165Y0.7057
X0.6165Y0.5404
X0.6165Y0.375
T6
X0.45Y0.1
X0.5Y2.0
X3.45Y2.0
X3.7Y0.1
T0
M30
