<?xml version="1.0" encoding="utf-8"?>
<!-- Generator: Fusion 360, Shaper Origin Export Add-In, Version 1.6.10  -->
<svg xmlns="http://www.w3.org/2000/svg" xmlns:xlink="http://www.w3.org/1999/xlink" xmlns:shaper="http://www.shapertools.com/namespaces/shaper" shaper:fusionaddin="version:1.6.10" width="6.0325cm" height="6.0325cm" version="1.1" x="0cm" y="0cm" viewBox="0 0 6.0325 6.0325" enable-background="new 0 0 6.0325 6.0325" xml:space="preserve"><path d="M-2.54,-3.01625 L2.54,-3.01625 A0.47625,0.47625 270 0,1 3.01625,-2.54 L3.01625,2.54 A0.47625,0.47625 0 0,1 2.54,3.01625 L-2.54,3.01625 A0.47625,0.47625 90 0,1 -3.01625,2.54 L-3.01625,-2.54 A0.47625,0.47625 180 0,1 -2.54,-3.01625z" transform="matrix(1,0,0,-1,3.01625,3.01625)" fill="rgb(0,0,0)" shaper:cutDepth="0.0015875" stroke-linecap="round" stroke-linejoin="round" /><path d="M-2.5725822,-2.3573172 a0.215265,0.215265 0 1,1 0.43053,0 a0.215265,0.215265 0 1,1 -0.43053,0z" transform="matrix(1,0,0,-1,3.01625,3.01625)" fill="rgb(255,255,255)" stroke="rgb(0,0,0)" stroke-width="0.0010cm" stroke-linecap="round" stroke-linejoin="round" shaper:cutDepth="0.0015875" /><path d="M2.1420522,2.3573172 a0.215265,0.215265 0 1,1 0.43053,0 a0.215265,0.215265 0 1,1 -0.43053,0z" transform="matrix(1,0,0,-1,3.01625,3.01625)" fill="rgb(255,255,255)" stroke="rgb(0,0,0)" stroke-width="0.0010cm" stroke-linecap="round" stroke-linejoin="round" shaper:cutDepth="0.0015875" /></svg>