<?xml version="1.0" encoding="utf-8"?>
<!-- Generator: Fusion 360, Shaper Origin Export Add-In, Version 1.6.10  -->
<svg xmlns="http://www.w3.org/2000/svg" xmlns:xlink="http://www.w3.org/1999/xlink" xmlns:shaper="http://www.shapertools.com/namespaces/shaper" shaper:fusionaddin="version:1.6.10" width="1.3462cm" height="0.7366cm" version="1.1" x="0cm" y="0cm" viewBox="0 0 1.3462 0.7366" enable-background="new 0 0 1.3462 0.7366" xml:space="preserve"><path d="M-0.6731,-0.3683 L-0.6731,0.3683 0.6731,0.3683 0.6731,-0.3683 -0.6731,-0.3683z" transform="matrix(1,0,0,-1,0.6731,0.3683)" fill="rgb(0,0,0)" shaper:cutDepth="0.000127" stroke-linecap="round" stroke-linejoin="round" /><path d="M0.1614683,0.0204152 L0.1614683,0.0204152 0.1699811,0.0197325 0.1740714,0.0184847 0.1778229,0.0164322 0.1808417,0.0134135 0.1828521,0.009643 0.1837904,0.0054723 0.1840171,0.001202 0.1840171,0.001202 0.1838356,-0.0031905 0.1827205,-0.0074397 0.1804443,-0.011194 0.1771068,-0.0140435 0.1731157,-0.0158877 0.1688537,-0.0169676 0.160086,-0.0174776 0.0807726,-0.0174776 0.0807726,-0.1332904 0.1941574,-0.1332904 0.1941574,-0.1332904 0.2029408,-0.1338373 0.20719,-0.1350005 0.2111254,-0.1369834 0.2143307,-0.1399925 0.2165024,-0.1438214 0.2175389,-0.1481009 0.2177069,-0.1525036 0.2177069,-0.1525036 0.2175062,-0.1570447 0.2162204,-0.1614015 0.2136535,-0.1651408 0.2100467,-0.1679061 0.2058703,-0.1696897 0.2014338,-0.1707015 0.1923647,-0.1711831 0.0664697,-0.1711831 0.0664697,-0.1711831 0.0561455,-0.1704369 0.0511818,-0.1689345 0.046967,-0.1659481 0.0443872,-0.1614685 0.0431908,-0.1564226 0.0429604,-0.1460721 0.0429202,0.1110108 0.0429202,0.1110108 0.0434216,0.1212445 0.0448612,0.1261612 0.0475935,0.1304919 0.0518287,0.1333603 0.0567289,0.1348692 0.0669389,0.1356943 0.1936904,0.1356277 0.1936904,0.1356277 0.2021758,0.1350801 0.2062818,0.1339481 0.2100718,0.1320135 0.2131623,0.1290931 0.2151744,0.1253471 0.2161394,0.1212029 0.216306,0.1169482 0.216306,0.1169482 0.216133,0.1125009 0.2150687,0.1081824 0.2128418,0.1043351 0.209537,0.1013665 0.2055408,0.0994055 0.2012427,0.0982526 0.1923647,0.0978016 0.0807726,0.0978016 0.0807726,0.0204152 0.1614683,0.0204152z" transform="matrix(1,0,0,-1,0.6731,0.3683)" fill="rgb(159,159,159)" fill-rule="nonzero" shaper:cutDepth="0.0000762" stroke-linecap="round" stroke-linejoin="round" /><path d="M-0.1497269,-0.0768517 L-0.1497269,-0.0768517 -0.1502112,-0.0879036 -0.1516615,-0.0988659 -0.1540518,-0.1096697 -0.1575512,-0.1201584 -0.1620982,-0.1302449 -0.1677457,-0.1397507 -0.1745322,-0.1484875 -0.1824827,-0.1561728 -0.1824827,-0.1561728 -0.1932544,-0.1630918 -0.1990185,-0.1658888 -0.2050559,-0.168035 -0.2176062,-0.1705567 -0.2303972,-0.1711831 -0.2986959,-0.1711831 -0.2986959,-0.1711831 -0.3084916,-0.1703119 -0.3131357,-0.1686873 -0.3170939,-0.1657783 -0.31962,-0.1615592 -0.320923,-0.156813 -0.3212387,-0.1469853 -0.3212448,0.112345 -0.3212448,0.112345 -0.3204445,0.1217703 -0.3189745,0.1262783 -0.3163325,0.1302008 -0.3124984,0.1329765 -0.3080531,0.1346065 -0.2986436,0.1356943 -0.2189078,0.1356277 -0.2189078,0.1356277 -0.2116495,0.1351025 -0.2044663,0.133938 -0.1974663,0.1319483 -0.190717,0.1292308 -0.1843631,0.1256825 -0.1784437,0.1214508 -0.1730071,0.1166134 -0.1680962,0.1112435 -0.1637227,0.105426 -0.159941,0.0992105 -0.1567748,0.0926556 -0.1542412,0.0858369 -0.1509138,0.0716751 -0.1497269,0.0571738 -0.1497269,0.0571738 -0.1499669,0.0486077 -0.1510523,0.0401084 -0.1529676,0.0317561 -0.1557552,0.0236535 -0.1594785,0.015936 -0.1639659,0.0086361 -0.1691968,0.0018494 -0.1750623,-0.0043978 -0.1755235,-0.0043978 -0.1774126,-0.0048689 -0.1774126,-0.0048689 -0.1712248,-0.0125644 -0.1656085,-0.0206842 -0.1606541,-0.0292259 -0.1564922,-0.0381792 -0.1533432,-0.0475366 -0.1512256,-0.0571803 -0.1500415,-0.0669826 -0.1497269,-0.0768517z M-0.2857321,-0.1332904 L-0.2331842,-0.1332904 -0.2331842,-0.1332904 -0.224578,-0.1329717 -0.2161216,-0.1313947 -0.2121336,-0.1297824 -0.2084688,-0.1275224 -0.20517,-0.1247553 -0.2022963,-0.121549 -0.2022963,-0.121549 -0.1956751,-0.1118186 -0.1910278,-0.1010078 -0.1884313,-0.0895266 -0.1875529,-0.0777856 -0.1875529,-0.0777856 -0.1888023,-0.0640293 -0.1925827,-0.0507439 -0.1954767,-0.0444715 -0.1989679,-0.038502 -0.203292,-0.0331145 -0.2083005,-0.0283517 -0.2083005,-0.0283517 -0.2130774,-0.0250899 -0.2184529,-0.0229567 -0.224155,-0.021992 -0.2299361,-0.0217472 -0.2857321,-0.0217472 -0.2857321,-0.1332904z M-0.2834265,0.0161456 L-0.221643,0.0161456 -0.221643,0.0161456 -0.2155956,0.0163166 -0.2096312,0.0172917 -0.2041355,0.019795 -0.1995611,0.0237508 -0.1995611,0.0237508 -0.194113,0.0310166 -0.1903251,0.0392762 -0.1882355,0.0481126 -0.1875529,0.0571738 -0.1875529,0.0571738 -0.1883707,0.0663576 -0.1905365,0.0753148 -0.1944432,0.0836664 -0.2000281,0.090997 -0.2000281,0.090997 -0.2046906,0.0946936 -0.2102415,0.0968538 -0.222097,0.0978016 -0.2834265,0.0978016 -0.2834265,0.0161456z" transform="matrix(1,0,0,-1,0.6731,0.3683)" fill="rgb(159,159,159)" fill-rule="nonzero" shaper:cutDepth="0.0000762" stroke-linecap="round" stroke-linejoin="round" /><path d="M0.3450184,0.0204152 L0.3450184,0.0204152 0.3535313,0.0197325 0.3576215,0.0184847 0.361373,0.0164322 0.3643918,0.0134135 0.3664023,0.009643 0.3673406,0.0054723 0.3675673,0.001202 0.3675673,0.001202 0.3673857,-0.0031905 0.3662706,-0.0074397 0.3639944,-0.011194 0.3606569,-0.0140435 0.3566659,-0.0158877 0.3524038,-0.0169676 0.3436361,-0.0174776 0.2643227,-0.0174776 0.2643227,-0.1332904 0.3777076,-0.1332904 0.3777076,-0.1332904 0.386491,-0.1338373 0.3907402,-0.1350005 0.3946755,-0.1369834 0.3978809,-0.1399925 0.4000525,-0.1438214 0.4010891,-0.1481009 0.4012571,-0.1525036 0.4012571,-0.1525036 0.4010563,-0.1570447 0.3997705,-0.1614015 0.3972036,-0.1651408 0.3935968,-0.1679061 0.3894204,-0.1696897 0.3849839,-0.1707015 0.3759148,-0.1711831 0.2500198,-0.1711831 0.2500198,-0.1711831 0.2396957,-0.1704369 0.2347319,-0.1689345 0.2305171,-0.1659481 0.2279374,-0.1614685 0.2267409,-0.1564226 0.2265106,-0.1460721 0.2264703,0.1110108 0.2264703,0.1110108 0.2269717,0.1212445 0.2284113,0.1261612 0.2311437,0.1304919 0.2353788,0.1333603 0.240279,0.1348692 0.250489,0.1356943 0.3772406,0.1356277 0.3772406,0.1356277 0.3857259,0.1350801 0.3898319,0.1339481 0.3936219,0.1320135 0.3967125,0.1290931 0.3987245,0.1253471 0.3996895,0.1212029 0.3998561,0.1169482 0.3998561,0.1169482 0.3996831,0.1125009 0.3986188,0.1081824 0.3963919,0.1043351 0.3930872,0.1013665 0.3890909,0.0994055 0.3847929,0.0982526 0.3759148,0.0978016 0.2643227,0.0978016 0.2643227,0.0204152 0.3450184,0.0204152z" transform="matrix(1,0,0,-1,0.6731,0.3683)" fill="rgb(159,159,159)" fill-rule="nonzero" shaper:cutDepth="0.0000762" stroke-linecap="round" stroke-linejoin="round" /><path d="M0.0268851,-0.1388943 L0.0268851,-0.1388943 0.0311618,-0.1413719 0.0343062,-0.1452142 0.0363075,-0.1497347 0.0370254,-0.1546384 0.0370254,-0.1546384 0.0360587,-0.1601384 0.0333954,-0.1650437 0.029261,-0.1687565 0.0240832,-0.1707829 0.0240832,-0.1707829 0.0135269,-0.1711831 -0.117881,-0.1711831 -0.117881,-0.1711831 -0.1271759,-0.1701541 -0.1315949,-0.1686142 -0.1354705,-0.1659971 -0.1382188,-0.1622187 -0.1397589,-0.1577989 -0.1403415,-0.1531574 -0.1402298,-0.1484751 -0.1402964,0.1150802 -0.1402964,0.1150802 -0.1393204,0.1229312 -0.1380559,0.1266938 -0.1359718,0.1300516 -0.1331177,0.1328036 -0.1295599,0.134539 -0.1257115,0.1354681 -0.1217503,0.1356277 -0.1217503,0.1356277 -0.1177668,0.1354709 -0.1138838,0.134588 -0.1102866,0.1328781 -0.1073666,0.1301701 -0.1052867,0.126776 -0.1040096,0.1229994 -0.1031375,0.1150882 -0.1031375,-0.13756 0.0158109,-0.13756 0.0158109,-0.13756 0.0214098,-0.1377741 0.0268851,-0.1388943z" transform="matrix(1,0,0,-1,0.6731,0.3683)" fill="rgb(159,159,159)" fill-rule="nonzero" shaper:cutDepth="0.0000762" stroke-linecap="round" stroke-linejoin="round" /><path d="M-0.429834,-0.1388943 L-0.429834,-0.1388943 -0.4255574,-0.1413719 -0.422413,-0.1452142 -0.4204117,-0.1497347 -0.4196937,-0.1546384 -0.4196937,-0.1546384 -0.4206605,-0.1601384 -0.4233237,-0.1650437 -0.4274582,-0.1687565 -0.432636,-0.1707829 -0.432636,-0.1707829 -0.4431923,-0.1711831 -0.5746002,-0.1711831 -0.5746002,-0.1711831 -0.5838951,-0.1701541 -0.588314,-0.1686142 -0.5921897,-0.1659971 -0.594938,-0.1622187 -0.5964781,-0.1577989 -0.5970606,-0.1531574 -0.5969489,-0.1484751 -0.5970156,0.1150802 -0.5970156,0.1150802 -0.5960396,0.1229312 -0.5947751,0.1266938 -0.5926909,0.1300516 -0.5898369,0.1328036 -0.5862791,0.134539 -0.5824307,0.1354681 -0.5784695,0.1356277 -0.5784695,0.1356277 -0.574486,0.1354709 -0.570603,0.134588 -0.5670058,0.1328781 -0.5640858,0.1301701 -0.5620059,0.126776 -0.5607287,0.1229994 -0.5598567,0.1150882 -0.5598567,-0.13756 -0.4409083,-0.13756 -0.4409083,-0.13756 -0.4353094,-0.1377741 -0.429834,-0.1388943z" transform="matrix(1,0,0,-1,0.6731,0.3683)" fill="rgb(159,159,159)" fill-rule="nonzero" shaper:cutDepth="0.0000762" stroke-linecap="round" stroke-linejoin="round" /><path d="M0.5475816,0.1058739 L0.5475816,0.1058739 0.5573307,0.092836 0.5655264,0.0787657 0.5721489,0.0638956 0.5771286,0.0483931 0.58063,0.032494 0.5829083,0.0163693 0.5841489,0.0001369 0.5844736,-0.0161433 0.5844736,-0.0161433 0.5838109,-0.0401296 0.5828293,-0.0520908 0.581173,-0.0639738 0.5787601,-0.0757291 0.5755476,-0.0872895 0.5715986,-0.098621 0.5669282,-0.1096742 0.5669282,-0.1096742 0.5607672,-0.1218444 0.5535905,-0.1334438 0.5452387,-0.1442255 0.5354812,-0.1537494 0.5300643,-0.1579 0.5242951,-0.1615335 0.5181978,-0.1645986 0.5118369,-0.1670557 0.5052891,-0.1689745 0.4985893,-0.1702529 0.4849869,-0.1711831 0.432636,-0.1711831 0.432636,-0.1711831 0.4272679,-0.170959 0.4219846,-0.1700179 0.4170149,-0.1679898 0.4148702,-0.1663617 0.4131465,-0.1642994 0.411071,-0.1593559 0.410139,-0.15406 0.4100607,-0.1433328 0.4100204,0.1117446 0.4100204,0.1117446 0.4100342,0.1166463 0.4107095,0.1215004 0.4124321,0.1260859 0.4153115,0.1300461 0.419256,0.1329452 0.4238465,0.1346608 0.433578,0.1356943 0.4840046,0.1356277 0.4840046,0.1356277 0.4930704,0.1351918 0.5020446,0.1338394 0.5108067,0.1314742 0.5192514,0.1281498 0.5272084,0.123785 0.5346144,0.1185381 0.5414379,0.1125553 0.5475816,0.1058739z M0.4478729,0.0978016 L0.4478729,-0.1332904 0.4844716,-0.1332904 0.4844716,-0.1332904 0.4944497,-0.1327469 0.499355,-0.1317789 0.5041,-0.1302056 0.5085346,-0.1278997 0.5125227,-0.1248849 0.5192955,-0.1175463 0.5192955,-0.1175463 0.5284763,-0.1039793 0.5356802,-0.0892661 0.5410823,-0.0738003 0.5447797,-0.0578386 0.5447797,-0.0578386 0.5461243,-0.0487695 0.5466139,-0.039617 0.5466476,-0.0212801 0.5466476,-0.0212801 0.546276,0.0088754 0.544809,0.0238764 0.5411105,0.0384943 0.5411105,0.0384943 0.5359509,0.0533996 0.5290858,0.0676002 0.524977,0.0743377 0.5203455,0.0807231 0.5150783,0.0865997 0.5090885,0.0917309 0.5090885,0.0917309 0.5035821,0.0948341 0.4975741,0.0967947 0.4849869,0.0978016 0.4478729,0.0978016z" transform="matrix(1,0,0,-1,0.6731,0.3683)" fill="rgb(159,159,159)" fill-rule="nonzero" shaper:cutDepth="0.0000762" stroke-linecap="round" stroke-linejoin="round" /></svg>