<?xml version="1.0" encoding="utf-8"?>
<!-- Generator: Fusion 360, Shaper Origin Export Add-In, Version 1.6.10  -->
<svg xmlns="http://www.w3.org/2000/svg" xmlns:xlink="http://www.w3.org/1999/xlink" xmlns:shaper="http://www.shapertools.com/namespaces/shaper" shaper:fusionaddin="version:1.6.10" width="1.77292cm" height="1.77292cm" version="1.1" x="0cm" y="0cm" viewBox="0 0 1.77292 1.77292" enable-background="new 0 0 1.77292 1.77292" xml:space="preserve"><path d="M0.88646,-0.88646 L-0.88646,-0.88646 -0.88646,0.88646 0.88646,0.88646 0.88646,-0.88646z" transform="matrix(1,0,0,-1,0.88646,0.88646)" fill="rgb(0,0,0)" shaper:cutDepth="0.000127" stroke-linecap="round" stroke-linejoin="round" /><path d="M0.0422238,-0.1492785 L0.0422238,-0.1492785 0.0432798,-0.142853 0.0461271,-0.1369996 0.0481469,-0.1344308 0.0506054,-0.1322862 0.0534067,-0.1306067 0.0564784,-0.1295013 0.0564784,-0.1295013 0.07006,-0.1291887 0.332066,-0.1314752 0.3325799,-0.0643747 0.3325799,-0.0643747 0.3335828,-0.0548235 0.3349515,-0.0502058 0.3372388,-0.0459902 0.3404549,-0.0424061 0.3445977,-0.0399891 0.3492068,-0.0386252 0.3540026,-0.0382656 0.3540026,-0.0382656 0.3589608,-0.0387191 0.3636292,-0.0404253 0.3674586,-0.0436029 0.3701656,-0.0477736 0.3718476,-0.0524616 0.3728561,-0.057341 0.3734354,-0.0672764 0.3718511,-0.2405988 0.3718511,-0.2405988 0.3708373,-0.2500406 0.3694404,-0.2545905 0.367168,-0.2587586 0.3639328,-0.2622447 0.3598086,-0.264595 0.3552467,-0.2659264 0.350504,-0.2662774 0.350504,-0.2662774 0.3457236,-0.2658552 0.3412044,-0.2642408 0.337351,-0.2613996 0.3345174,-0.2575234 0.3326878,-0.253091 0.3316497,-0.2483995 0.3311292,-0.2388225 0.3317099,-0.1722812 0.0671896,-0.1699728 0.0671896,-0.1699728 0.059772,-0.1697172 0.0561169,-0.1690807 0.0526233,-0.167834 0.0526233,-0.167834 0.0481026,-0.1645402 0.0447073,-0.1600958 0.0427885,-0.1548475 0.0422238,-0.1492785z" transform="matrix(1,0,0,-1,0.88646,0.88646)" fill="rgb(159,159,159)" fill-rule="nonzero" shaper:cutDepth="0.0000762" stroke-linecap="round" stroke-linejoin="round" /><path d="M-0.0789152,0.575795 L-0.0789152,0.575795 -0.0829781,0.5762178 -0.0868943,0.577368 -0.0905464,0.5791966 -0.0937353,0.5817463 -0.0963852,0.5848535 -0.0983868,0.588412 -0.0995564,0.5923242 -0.1000022,0.5963836 -0.1000022,0.5963836 -0.0990914,0.6033133 -0.0976287,0.6065106 -0.0955835,0.6093599 -0.090551,0.6142293 -0.0850797,0.6185977 -0.0850797,0.6185977 -0.0740346,0.628749 -0.0692903,0.6345641 -0.0651896,0.6408499 -0.0618331,0.6475631 -0.0594206,0.6546679 -0.0579372,0.6620256 -0.0574054,0.6695113 -0.0574054,0.6695113 -0.0584625,0.6800177 -0.0610288,0.6902615 -0.0649985,0.7000483 -0.0702863,0.7091849 -0.0767081,0.7175722 -0.0840193,0.7251916 -0.0920139,0.7320953 -0.1005509,0.7383136 -0.1095489,0.7438452 -0.1189446,0.7486701 -0.1286896,0.752742 -0.1387155,0.7560687 -0.1489605,0.7586301 -0.1593589,0.7604965 -0.1803871,0.762405 -0.1803871,0.762405 -0.1936488,0.7618577 -0.2068001,0.7600611 -0.2197504,0.7571519 -0.2324171,0.7531847 -0.2447082,0.7481734 -0.2565305,0.7421395 -0.2677838,0.7351007 -0.2783357,0.7270489 -0.2783357,0.7270489 -0.2843509,0.7215697 -0.2898399,0.7155671 -0.2947364,0.7090678 -0.2988651,0.7020598 -0.3021754,0.6946272 -0.3044734,0.6868246 -0.3058355,0.6788037 -0.3062013,0.6706766 -0.3062013,0.6706766 -0.3058135,0.6623866 -0.3040734,0.654267 -0.3011806,0.6464895 -0.297155,0.6392298 -0.2922815,0.6325069 -0.2867934,0.6262786 -0.2743535,0.6152921 -0.2743535,0.6152921 -0.2701663,0.6117493 -0.2667778,0.6074419 -0.2649421,0.6022821 -0.264528,0.5968135 -0.264528,0.5968135 -0.2649684,0.5928021 -0.2660771,0.5889225 -0.268046,0.5854015 -0.2707366,0.5823951 -0.2739863,0.5800035 -0.2776503,0.5783145 -0.2856076,0.5770958 -0.2856076,0.5770958 -0.2895299,0.5775682 -0.2932505,0.578788 -0.2999573,0.5829413 -0.3118342,0.5932747 -0.3118342,0.5932747 -0.3196489,0.6013997 -0.3267511,0.610153 -0.332961,0.6195614 -0.3381012,0.6295935 -0.3420518,0.6401507 -0.3449014,0.6510571 -0.3465248,0.662212 -0.346986,0.6734754 -0.346986,0.6734754 -0.3461267,0.687037 -0.34354,0.700378 -0.3392828,0.7132804 -0.3333142,0.7254896 -0.3258914,0.7368702 -0.317191,0.7473116 -0.3074599,0.7567952 -0.2969683,0.7654341 -0.2969683,0.7654341 -0.2838607,0.7743833 -0.2700095,0.7821325 -0.2555361,0.7886454 -0.2405915,0.7939894 -0.2252577,0.7980865 -0.2096643,0.8010443 -0.1938808,0.8027128 -0.1780188,0.8032652 -0.1780188,0.8032652 -0.1623245,0.8023817 -0.1467762,0.8000672 -0.1314949,0.7963839 -0.1165756,0.7914319 -0.1020929,0.7853207 -0.0881355,0.7780888 -0.0748149,0.7697428 -0.0621441,0.7604391 -0.0621441,0.7604391 -0.0521841,0.7515682 -0.0430917,0.7418137 -0.0350564,0.7311687 -0.0282982,0.7196718 -0.0230727,0.707403 -0.0193527,0.6945963 -0.0172653,0.6814248 -0.0165368,0.6681082 -0.0166082,0.6681494 -0.0166082,0.6681494 -0.0174178,0.6560066 -0.0197718,0.644065 -0.0235595,0.6325008 -0.0287729,0.6215033 -0.0352774,0.6112174 -0.0427947,0.6016431 -0.0511316,0.5927785 -0.060158,0.5846122 -0.060158,0.5846122 -0.0687131,0.5783246 -0.0736356,0.5763322 -0.0789152,0.575795z" transform="matrix(1,0,0,-1,0.88646,0.88646)" fill="rgb(159,159,159)" fill-rule="nonzero" shaper:cutDepth="0.0000762" stroke-linecap="round" stroke-linejoin="round" /><path d="M-0.3550773,-0.2536968 L-0.3550773,-0.2536968 -0.3542924,-0.248586 -0.3523257,-0.2438091 -0.3491488,-0.2397223 -0.3448715,-0.2368299 -0.3448715,-0.2368299 -0.3418402,-0.2358295 -0.3386585,-0.2355359 -0.3322646,-0.2355748 -0.0481535,-0.2379824 -0.0481535,-0.2379824 -0.0402538,-0.2382919 -0.0363514,-0.2389272 -0.0327283,-0.240488 -0.0327283,-0.240488 -0.0293844,-0.2437248 -0.0267904,-0.2475847 -0.0252011,-0.2519566 -0.0246782,-0.2565801 -0.0246782,-0.2565801 -0.0249148,-0.260649 -0.0260628,-0.2645578 -0.0281566,-0.2680436 -0.031244,-0.2707045 -0.0348906,-0.2725144 -0.0388194,-0.273609 -0.0469327,-0.2742758 -0.3326033,-0.2717828 -0.3326033,-0.2717828 -0.339932,-0.2714954 -0.3470265,-0.269717 -0.3470265,-0.269717 -0.3505148,-0.2666483 -0.3529678,-0.2626886 -0.354555,-0.2583189 -0.3550773,-0.2536968z" transform="matrix(1,0,0,-1,0.88646,0.88646)" fill="rgb(159,159,159)" fill-rule="nonzero" shaper:cutDepth="0.0000762" stroke-linecap="round" stroke-linejoin="round" /><path d="M-0.1912305,-0.5295246 L-0.1912305,-0.5295246 -0.209783,-0.5289235 -0.2282765,-0.5273742 -0.2466347,-0.5246131 -0.2647088,-0.5204055 -0.2823262,-0.5145538 -0.2991667,-0.506767 -0.3071743,-0.5020581 -0.3148114,-0.4967759 -0.3287844,-0.4845694 -0.3287844,-0.4845694 -0.3349516,-0.4772119 -0.3403423,-0.469268 -0.3450735,-0.460914 -0.3489839,-0.4521466 -0.3521872,-0.4430949 -0.3544837,-0.433775 -0.3560135,-0.4242958 -0.3564824,-0.4147079 -0.3564824,-0.4147079 -0.3554515,-0.4027326 -0.3529311,-0.3909777 -0.349177,-0.3795592 -0.3442496,-0.3685938 -0.3382841,-0.358157 -0.3313281,-0.348354 -0.323397,-0.3393199 -0.3144425,-0.3313012 -0.3144425,-0.3313012 -0.2999133,-0.3223492 -0.2843525,-0.3153183 -0.2681713,-0.3098902 -0.2515673,-0.3059157 -0.2347243,-0.3031333 -0.2177449,-0.3013444 -0.2006972,-0.3004542 -0.1836256,-0.3002554 -0.1836256,-0.3002554 -0.1662809,-0.3008839 -0.1489926,-0.3023993 -0.1318454,-0.3050846 -0.1149294,-0.3089648 -0.0983886,-0.3142225 -0.082496,-0.3211832 -0.0675365,-0.3299875 -0.0539361,-0.3407593 -0.0539361,-0.3407593 -0.0469017,-0.3486405 -0.0406432,-0.3571509 -0.0351787,-0.3661918 -0.0305249,-0.3756757 -0.0267635,-0.3855472 -0.023882,-0.3957106 -0.022091,-0.4061215 -0.0214052,-0.4166625 -0.0214767,-0.4166256 -0.0214767,-0.4166256 -0.0220185,-0.425527 -0.0234199,-0.4343349 -0.0256034,-0.4429812 -0.0285173,-0.4514104 -0.0320823,-0.459585 -0.0362876,-0.4674499 -0.0411115,-0.4749508 -0.0464758,-0.4820756 -0.0464758,-0.4820756 -0.053188,-0.4892506 -0.0605806,-0.4957261 -0.0684929,-0.501552 -0.0768626,-0.5067001 -0.0855943,-0.5112084 -0.094625,-0.515083 -0.1132935,-0.5212048 -0.1324965,-0.525373 -0.15197,-0.5280016 -0.1715781,-0.5293195 -0.1912305,-0.5295246z M-0.1849881,-0.3411245 L-0.1849881,-0.3411245 -0.2116196,-0.3418098 -0.2248891,-0.3430051 -0.2380723,-0.3449205 -0.2510901,-0.347758 -0.263774,-0.3518148 -0.2759824,-0.3571582 -0.2873549,-0.3640843 -0.2873549,-0.3640843 -0.293182,-0.3686988 -0.2984844,-0.373906 -0.3032152,-0.3796399 -0.3072943,-0.3858517 -0.3107086,-0.3924562 -0.3132618,-0.3994327 -0.315025,-0.4066557 -0.3156676,-0.4140583 -0.3156676,-0.4140583 -0.3152285,-0.4205453 -0.3139905,-0.4269286 -0.3094713,-0.4391103 -0.3028271,-0.4502745 -0.2942272,-0.4600119 -0.2942272,-0.4600119 -0.2829782,-0.4683185 -0.2705818,-0.4748011 -0.2574754,-0.4796892 -0.2439608,-0.4833004 -0.2302013,-0.4858315 -0.2163066,-0.4874628 -0.1883599,-0.4887406 -0.1883599,-0.4887406 -0.1737389,-0.4886113 -0.1591482,-0.4877284 -0.1446361,-0.4859321 -0.1302916,-0.4831115 -0.1162819,-0.4789314 -0.1028646,-0.4731363 -0.0903728,-0.4655361 -0.0793691,-0.4559236 -0.0793691,-0.4559236 -0.0726227,-0.4472345 -0.0674194,-0.4375422 -0.0637677,-0.4271789 -0.06268,-0.4217857 -0.0622113,-0.4163064 -0.0622827,-0.4162695 -0.0622827,-0.4162695 -0.0627339,-0.4100031 -0.0639182,-0.403832 -0.0680605,-0.3919791 -0.0741088,-0.380973 -0.0778988,-0.3759612 -0.0821514,-0.3713355 -0.0821514,-0.3713355 -0.0928077,-0.3627466 -0.1047686,-0.3560683 -0.1174925,-0.3510123 -0.1306568,-0.3472263 -0.1440689,-0.3444536 -0.1576413,-0.3426098 -0.1849881,-0.3411245z" transform="matrix(1,0,0,-1,0.88646,0.88646)" fill="rgb(159,159,159)" fill-rule="nonzero" shaper:cutDepth="0.0000762" stroke-linecap="round" stroke-linejoin="round" /><path d="M-0.3482275,0.5312148 L-0.3482275,0.5312148 -0.3478784,0.5351605 -0.3469049,0.5389972 -0.3453298,0.5426318 -0.34306,0.5458758 -0.340198,0.5486122 -0.3368518,0.5507284 -0.3330815,0.5519371 -0.3291469,0.5523868 -0.3291469,0.5523868 -0.3253314,0.5520173 -0.3216532,0.550917 -0.3144627,0.5482384 -0.034266,0.4395283 -0.034266,0.4395283 -0.0280449,0.4364565 -0.0227647,0.4319798 -0.0207954,0.4291244 -0.0194221,0.4259373 -0.0187594,0.4225312 -0.018782,0.4190605 -0.018782,0.4190605 -0.0189742,0.4148587 -0.0198797,0.4107495 -0.0216465,0.4069441 -0.0244136,0.4037744 -0.0314437,0.3991851 -0.0391678,0.3958584 -0.3201474,0.2910727 -0.3201474,0.2910727 -0.3257375,0.2897735 -0.3314441,0.2891596 -0.3314441,0.2891596 -0.3353647,0.289691 -0.3390828,0.2910399 -0.34239,0.2932097 -0.3451807,0.2960141 -0.347374,0.2993059 -0.3489307,0.3029448 -0.3498732,0.3067854 -0.3501516,0.3107332 -0.3501516,0.3107332 -0.3500367,0.3143158 -0.3492914,0.3178201 -0.3477443,0.3210515 -0.3455983,0.3239252 -0.3399999,0.3283665 -0.3335083,0.3313842 -0.2946702,0.345447 -0.2933702,0.4944199 -0.3343964,0.5106896 -0.3343964,0.5106896 -0.3401348,0.5139648 -0.3447859,0.5186462 -0.3475104,0.5246543 -0.3482275,0.5312148z M-0.0980901,0.4187203 L-0.2526984,0.47867 -0.2537212,0.361478 -0.0980901,0.4187203z" transform="matrix(1,0,0,-1,0.88646,0.88646)" fill="rgb(159,159,159)" fill-rule="nonzero" shaper:cutDepth="0.0000762" stroke-linecap="round" stroke-linejoin="round" /><path d="M0.3309491,0.0039804 L0.3309491,0.0039804 0.3228304,-0.0002943 0.3143271,-0.0037248 0.3054837,-0.0061925 0.2963655,-0.0071414 0.2963655,-0.0071414 0.2922465,-0.0067377 0.2882355,-0.005729 0.2844668,-0.0040176 0.2811688,-0.0015222 0.2784723,0.0016159 0.2765327,0.0052697 0.2754237,0.0092547 0.2750623,0.0133772 0.2750623,0.0133772 0.2751705,0.0169527 0.2759251,0.0204482 0.2774822,0.0236679 0.2796919,0.0264777 0.2854978,0.030618 0.2921906,0.0331293 0.2921906,0.0331293 0.3008465,0.0354903 0.3091323,0.0389268 0.3166894,0.0437572 0.3232215,0.0499036 0.3282362,0.0573371 0.3316182,0.0656458 0.3335371,0.0744058 0.3341679,0.0833564 0.3341896,0.0858393 0.3338923,0.1107193 0.3338923,0.1107193 0.3329331,0.1197869 0.3306452,0.1286064 0.3268246,0.1368863 0.321395,0.1442019 0.3146199,0.1503017 0.3066213,0.1546668 0.2978947,0.1572914 0.288828,0.1582442 0.288828,0.1582442 0.2824624,0.1578481 0.2762065,0.1566188 0.2701603,0.1545887 0.2644673,0.1517164 0.25925,0.1480495 0.2546132,0.1436724 0.2507406,0.1386063 0.2476551,0.133026 0.2476551,0.133026 0.244982,0.1244392 0.2430173,0.1156591 0.2315173,0.0621102 0.2315173,0.0621102 0.2266675,0.0462196 0.2233685,0.0385918 0.2195024,0.0312343 0.2150201,0.0242366 0.2099445,0.017655 0.2042565,0.0115966 0.1980783,0.0060372 0.1914254,0.0010572 0.1843688,-0.0033332 0.1769007,-0.0069798 0.1691651,-0.0100156 0.1611548,-0.0122333 0.1530007,-0.0138381 0.1447415,-0.0147637 0.1364367,-0.0150859 0.1364367,-0.0150859 0.1270077,-0.0144933 0.1176656,-0.0130973 0.1084857,-0.0108636 0.09958,-0.007715 0.0910484,-0.0036592 0.0830507,0.0013674 0.0756862,0.0072831 0.0689996,0.013956 0.0630329,0.02128 0.0578866,0.0292006 0.0536202,0.0376299 0.0501466,0.0464145 0.0475457,0.0554957 0.0457829,0.064778 0.0447196,0.0741639 0.0442561,0.0836001 0.044538,0.1159028 0.044538,0.1159028 0.0450297,0.1263863 0.0463097,0.1368021 0.0484131,0.1470849 0.0513642,0.1571553 0.0513642,0.1571553 0.0573363,0.1684964 0.0649607,0.1787991 0.0740208,0.1878641 0.0843437,0.1954628 0.0956086,0.2015772 0.1076308,0.2060218 0.1201539,0.2087487 0.1329378,0.209682 0.1329378,0.209682 0.1428894,0.2084407 0.1476287,0.2067818 0.152028,0.2043608 0.1558603,0.2011157 0.1587338,0.1970061 0.1604657,0.1922933 0.1610503,0.1873078 0.1610503,0.1873078 0.1605906,0.18339 0.1593718,0.179639 0.1572987,0.1762836 0.1546168,0.1733926 0.1514068,0.1710987 0.1478033,0.1694972 0.1400272,0.1682422 0.1360257,0.168343 0.1360257,0.168343 0.1315753,0.168813 0.1315753,0.168813 0.1241744,0.1680502 0.1169859,0.1661302 0.1102221,0.16303 0.1039871,0.1589687 0.0983499,0.1541116 0.0934289,0.1485307 0.089484,0.142222 0.0865946,0.1353656 0.0865946,0.1353656 0.0848016,0.1252936 0.0844389,0.1150595 0.0841473,0.0854533 0.0841473,0.0854533 0.0846888,0.0750307 0.0859777,0.0646735 0.0859777,0.0646735 0.0887224,0.0564754 0.092916,0.0489139 0.0984014,0.0422335 0.1049361,0.0365691 0.1122569,0.0319707 0.120228,0.0286168 0.1286131,0.0265153 0.1372238,0.0257163 0.1372238,0.0257163 0.1445087,0.0262029 0.1516726,0.0276093 0.1585639,0.0300196 0.1651143,0.0332452 0.171156,0.0373425 0.1766475,0.0421542 0.1813064,0.0477745 0.1851767,0.0539648 0.1851767,0.0539648 0.1885617,0.0631207 0.1908406,0.0726216 0.202689,0.1259463 0.202689,0.1259463 0.2050572,0.1357754 0.2080789,0.1454219 0.2121417,0.1546812 0.2173845,0.1633222 0.2173845,0.1633222 0.2237376,0.1714435 0.2311712,0.1785906 0.2394507,0.1847359 0.2484104,0.1898408 0.2579066,0.1938606 0.26779,0.1968019 0.2779567,0.1985243 0.2882507,0.1991302 0.2882507,0.1991302 0.2966151,0.1985259 0.3049131,0.197312 0.3130444,0.1952631 0.3209598,0.1924924 0.3285236,0.1888722 0.3356879,0.184514 0.3423662,0.1794426 0.3484874,0.1737101 0.354042,0.1674284 0.3589299,0.1606134 0.3631797,0.153385 0.3666463,0.1457487 0.3693354,0.1378059 0.3713236,0.1296582 0.3734507,0.1130315 0.3747295,0.081016 0.3746323,0.0781045 0.3746323,0.0781045 0.373813,0.0668785 0.3715568,0.0558513 0.367807,0.0452389 0.3627324,0.0351918 0.356404,0.0258835 0.3489037,0.01749 0.3403428,0.0101834 0.3309491,0.0039804z" transform="matrix(1,0,0,-1,0.88646,0.88646)" fill="rgb(159,159,159)" fill-rule="nonzero" shaper:cutDepth="0.0000762" stroke-linecap="round" stroke-linejoin="round" /><path d="M0.2250696,-0.470895 L0.2250696,-0.470895 0.2201797,-0.4706359 0.2155001,-0.4692077 0.2114792,-0.4664215 0.2085274,-0.4625267 0.2066827,-0.4579878 0.2056235,-0.4532055 0.2051921,-0.4434295 0.2061715,-0.3312033 0.0814547,-0.3301149 0.0800729,-0.4884535 0.0800729,-0.4884535 0.0799088,-0.4952656 0.0795407,-0.4986533 0.078447,-0.5018747 0.078447,-0.5018747 0.0754636,-0.5073378 0.0709785,-0.5116457 0.0652998,-0.5141783 0.0591481,-0.5151417 0.0591481,-0.5151417 0.0540431,-0.514847 0.0492135,-0.513176 0.0452286,-0.5099915 0.0424071,-0.5057246 0.0406508,-0.5009247 0.039677,-0.495898 0.039288,-0.4856837 0.0407779,-0.3149594 0.0407779,-0.3149594 0.0416004,-0.3037704 0.0433684,-0.2984408 0.0466402,-0.2938898 0.0514028,-0.2909386 0.0568392,-0.2895041 0.0624283,-0.2890086 0.0680464,-0.2891887 0.344895,-0.2915329 0.344895,-0.2915329 0.3505312,-0.2916389 0.3561079,-0.2924208 0.3614592,-0.2941897 0.3660292,-0.2974621 0.369018,-0.3022291 0.370587,-0.3076381 0.3712397,-0.3188783 0.3696698,-0.4905497 0.3696698,-0.4905497 0.3688867,-0.4997928 0.3676414,-0.5042756 0.3655587,-0.5084202 0.3624568,-0.5118782 0.3584551,-0.5142224 0.3539747,-0.5154418 0.3493335,-0.5156624 0.3493335,-0.5156624 0.3444258,-0.5153395 0.3397301,-0.513884 0.335651,-0.5111559 0.3325999,-0.5072983 0.3306059,-0.5028088 0.329453,-0.4980209 0.3289528,-0.4882116 0.3303135,-0.3322866 0.2469775,-0.3315594 0.2459813,-0.4457155 0.2459813,-0.4457155 0.2451799,-0.4550898 0.2438446,-0.4596101 0.2416628,-0.4637829 0.2384435,-0.4672163 0.2343378,-0.4695151 0.2297769,-0.4706846 0.2250696,-0.470895z" transform="matrix(1,0,0,-1,0.88646,0.88646)" fill="rgb(159,159,159)" fill-rule="nonzero" shaper:cutDepth="0.0000762" stroke-linecap="round" stroke-linejoin="round" /><path d="M0.3569162,0.5144709 L0.0705986,0.5170414 0.0705986,0.5170414 0.0621365,0.5182848 0.0581328,0.5197936 0.0544814,0.5220329 0.0515621,0.5251556 0.049552,0.5289335 0.0484989,0.5330815 0.0482159,0.5373539 0.0482159,0.5373539 0.0489435,0.5429731 0.0507847,0.5483153 0.0539461,0.5530187 0.0584411,0.5564478 0.0584411,0.5564478 0.0658664,0.5576472 0.0734038,0.5577543 0.2804762,0.5559472 0.18018,0.617533 0.18018,0.617533 0.1737417,0.6216953 0.1677486,0.6264766 0.1653,0.6294212 0.1637684,0.6329296 0.1630603,0.6366974 0.1629938,0.6405303 0.1629938,0.6405303 0.1637846,0.6473087 0.1651107,0.6504727 0.1671228,0.6532359 0.1723027,0.6576784 0.1780997,0.6612835 0.2819257,0.7220446 0.0757801,0.7238436 0.0757801,0.7238436 0.0682321,0.72414 0.0609265,0.7259849 0.0609265,0.7259849 0.0561606,0.7291998 0.0527767,0.7338768 0.0507439,0.7392573 0.0500278,0.7449758 0.0500278,0.7449758 0.0502977,0.7497983 0.0517469,0.7544035 0.0545048,0.7583594 0.0583745,0.761238 0.0628405,0.7630875 0.0675518,0.7641508 0.0771958,0.7646404 0.3537324,0.7622989 0.3537324,0.7622989 0.3632727,0.7615065 0.367893,0.7602093 0.372152,0.7580216 0.3756684,0.7547676 0.3780256,0.7506016 0.379201,0.745957 0.3794129,0.7411673 0.3794129,0.7411673 0.3784841,0.7352268 0.377098,0.7325369 0.3751988,0.7301865 0.3704791,0.7264508 0.3653675,0.7232608 0.2235981,0.6395019 0.3657028,0.5532634 0.3657028,0.5532634 0.3708087,0.5496514 0.3752955,0.5453016 0.3769499,0.5426309 0.3780557,0.5396943 0.3786062,0.5334647 0.3786062,0.5334647 0.3784698,0.5292638 0.3776469,0.5251438 0.3758288,0.5213587 0.3729832,0.5182764 0.3693305,0.5161968 0.3652977,0.5150271 0.3569162,0.5144709z" transform="matrix(1,0,0,-1,0.88646,0.88646)" fill="rgb(159,159,159)" fill-rule="nonzero" shaper:cutDepth="0.0000762" stroke-linecap="round" stroke-linejoin="round" /><path d="M-0.3536985,-0.0957029 L-0.3536985,-0.0957029 -0.3526424,-0.0892774 -0.3497951,-0.083424 -0.3477753,-0.0808552 -0.3453168,-0.0787106 -0.3425155,-0.0770311 -0.3394439,-0.0759257 -0.3394439,-0.0759257 -0.3258622,-0.0756131 -0.0638562,-0.0778996 -0.0633424,-0.010799 -0.0633424,-0.010799 -0.0623394,-0.0012479 -0.0609708,0.0033698 -0.0586834,0.0075854 -0.0554673,0.0111695 -0.0513245,0.0135865 -0.0467154,0.0149504 -0.0419197,0.01531 -0.0419197,0.01531 -0.0369614,0.0148565 -0.032293,0.0131503 -0.0284636,0.0099727 -0.0257566,0.0058021 -0.0240747,0.001114 -0.0230662,-0.0037654 -0.0224868,-0.0137007 -0.0240712,-0.1870232 -0.0240712,-0.1870232 -0.025085,-0.196465 -0.0264819,-0.2010149 -0.0287543,-0.205183 -0.0319894,-0.2086691 -0.0361137,-0.2110194 -0.0406755,-0.2123508 -0.0454183,-0.2127018 -0.0454183,-0.2127018 -0.0501987,-0.2122796 -0.0547178,-0.2106652 -0.0585712,-0.207824 -0.0614048,-0.2039478 -0.0632345,-0.1995154 -0.0642726,-0.1948239 -0.0647931,-0.1852468 -0.0642124,-0.1187056 -0.3287326,-0.1163972 -0.3287326,-0.1163972 -0.3361503,-0.1161416 -0.3398054,-0.1155051 -0.3432989,-0.1142583 -0.3432989,-0.1142583 -0.3478196,-0.1109646 -0.351215,-0.1065202 -0.3531338,-0.1012719 -0.3536985,-0.0957029z" transform="matrix(1,0,0,-1,0.88646,0.88646)" fill="rgb(159,159,159)" fill-rule="nonzero" shaper:cutDepth="0.0000762" stroke-linecap="round" stroke-linejoin="round" /><path d="M-0.0538736,-0.787375 L-0.3366496,-0.7848355 -0.3366496,-0.7848355 -0.3451732,-0.7837349 -0.3492613,-0.7823811 -0.3529962,-0.7802522 -0.3560628,-0.7772366 -0.3581353,-0.7734708 -0.3592439,-0.7693148 -0.3595395,-0.7650215 -0.3595395,-0.7650215 -0.3586685,-0.75859 -0.3557423,-0.7527742 -0.351433,-0.7479236 -0.346231,-0.7440145 -0.1167756,-0.5982997 -0.3345022,-0.5963996 -0.3345022,-0.5963996 -0.3432796,-0.5951561 -0.3474371,-0.5936166 -0.351243,-0.5913284 -0.3542893,-0.5881139 -0.3564073,-0.5842171 -0.3575337,-0.5799268 -0.3578856,-0.5755036 -0.3578856,-0.5755036 -0.3571483,-0.570126 -0.3552308,-0.5650552 -0.3519728,-0.560718 -0.3476692,-0.5574155 -0.3476692,-0.5574155 -0.3436563,-0.5561784 -0.339482,-0.5556969 -0.331076,-0.5556203 -0.052886,-0.5579763 -0.052886,-0.5579763 -0.0460873,-0.5581143 -0.0393885,-0.5590999 -0.0393885,-0.5590999 -0.0343481,-0.5619273 -0.0306334,-0.5663783 -0.028245,-0.5716429 -0.0274778,-0.5773812 -0.0274778,-0.5773812 -0.0284055,-0.5839715 -0.0316533,-0.5897883 -0.0363641,-0.5944916 -0.0417166,-0.5984652 -0.2696751,-0.7446826 -0.0553932,-0.7464809 -0.0553932,-0.7464809 -0.0456748,-0.7472027 -0.0409222,-0.7483058 -0.0364893,-0.7503229 -0.0328303,-0.7535353 -0.0304624,-0.7577862 -0.0293511,-0.7625309 -0.0291361,-0.7674019 -0.0291361,-0.7674019 -0.029295,-0.7719978 -0.0304235,-0.7764522 -0.0327333,-0.7804221 -0.0361306,-0.7835116 -0.0402617,-0.7855227 -0.044715,-0.7866837 -0.0538736,-0.787375z" transform="matrix(1,0,0,-1,0.88646,0.88646)" fill="rgb(159,159,159)" fill-rule="nonzero" shaper:cutDepth="0.0000762" stroke-linecap="round" stroke-linejoin="round" /><path d="M-0.3107118,0.1538201 L-0.3107118,0.1538201 -0.3100959,0.1427901 -0.3079511,0.131957 -0.304271,0.1215412 -0.2990234,0.1118232 -0.2923809,0.1029982 -0.2843852,0.0953788 -0.2752641,0.0891507 -0.2653364,0.0843073 -0.2653364,0.0843073 -0.256443,0.0812492 -0.2471447,0.0797859 -0.2283449,0.0789554 -0.0488494,0.0774606 -0.0488494,0.0774606 -0.0390611,0.0766629 -0.0342713,0.0755113 -0.0297669,0.0735605 -0.0260169,0.0703866 -0.0234805,0.0661856 -0.0221831,0.0614451 -0.0219457,0.0565339 -0.0219457,0.0565339 -0.0222654,0.0516565 -0.0235638,0.0469492 -0.0262271,0.0428511 -0.0300652,0.0398613 -0.0346237,0.0380745 -0.0394095,0.0370983 -0.0491707,0.0365826 -0.2332634,0.0382609 -0.2332634,0.0382609 -0.2448244,0.0389671 -0.2563097,0.0404595 -0.267625,0.0429288 -0.2786993,0.0463267 -0.2893563,0.0508553 -0.2995233,0.0564059 -0.3090288,0.0630204 -0.3177821,0.0706045 -0.3257187,0.0790394 -0.3326661,0.0883053 -0.3385617,0.0982738 -0.34338,0.1088048 -0.3469605,0.1198197 -0.3495012,0.1311194 -0.350979,0.1426062 -0.3515178,0.1541762 -0.3515178,0.1541762 -0.3501668,0.1713447 -0.3485614,0.1798088 -0.346356,0.1881367 -0.3435536,0.1962831 -0.3401348,0.2041906 -0.3361109,0.211808 -0.3314912,0.2190796 -0.3263536,0.225995 -0.3206925,0.2324888 -0.3145265,0.2385048 -0.3078701,0.2439743 -0.3008376,0.2489496 -0.293443,0.2533708 -0.2857547,0.2572567 -0.2778082,0.260585 -0.2778082,0.260585 -0.266039,0.2643599 -0.2538916,0.2666449 -0.2415595,0.2674486 -0.2292002,0.2674892 -0.043684,0.265942 -0.043684,0.265942 -0.0348185,0.2648214 -0.0305802,0.2633801 -0.0267648,0.2610556 -0.0236584,0.257838 -0.0216212,0.2538603 -0.0205805,0.2495114 -0.0203006,0.245046 -0.0203006,0.245046 -0.0205247,0.2404656 -0.0217137,0.2360405 -0.023952,0.2320498 -0.0273724,0.2289985 -0.0314606,0.2269295 -0.0358862,0.2257321 -0.0450252,0.2250728 -0.2286016,0.2266748 -0.2286016,0.2266748 -0.2398606,0.2265807 -0.2510843,0.225721 -0.2566092,0.2246266 -0.2619797,0.2229142 -0.2721441,0.218074 -0.2721441,0.218074 -0.2805302,0.2129061 -0.2881901,0.2067144 -0.294921,0.1995232 -0.3005351,0.1914299 -0.3049704,0.1826354 -0.3081654,0.1733176 -0.3100373,0.1636479 -0.3107118,0.1538201z" transform="matrix(1,0,0,-1,0.88646,0.88646)" fill="rgb(159,159,159)" fill-rule="nonzero" shaper:cutDepth="0.0000762" stroke-linecap="round" stroke-linejoin="round" /><path d="M0.0476547,0.4730413 L0.0476547,0.4730413 0.0480037,0.4769871 0.0489772,0.4808237 0.0505524,0.4844583 0.0528221,0.4877024 0.0556841,0.4904387 0.0590303,0.492555 0.0628007,0.4937636 0.0667352,0.4942134 0.0667352,0.4942134 0.0705508,0.4938438 0.0742289,0.4927436 0.0814194,0.4900649 0.3616161,0.3813549 0.3616161,0.3813549 0.3678372,0.378283 0.3731174,0.3738063 0.3750867,0.3709509 0.37646,0.3677638 0.3771228,0.3643577 0.3771002,0.3608871 0.3771002,0.3608871 0.376908,0.3566852 0.3760024,0.3525761 0.3742356,0.3487707 0.3714685,0.3456009 0.3644385,0.3410116 0.3567143,0.3376849 0.0757347,0.2328992 0.0757347,0.2328992 0.0701446,0.2316 0.064438,0.2309861 0.064438,0.2309861 0.0605175,0.2315175 0.0567994,0.2328664 0.0534921,0.2350362 0.0507014,0.2378406 0.0485081,0.2411324 0.0469514,0.2447713 0.0460089,0.2486119 0.0457305,0.2525598 0.0457305,0.2525598 0.0458455,0.2561423 0.0465907,0.2596467 0.0481378,0.262878 0.0502838,0.2657517 0.0558822,0.270193 0.0623738,0.2732107 0.1012119,0.2872736 0.102512,0.4362465 0.0614857,0.4525161 0.0614857,0.4525161 0.0557473,0.4557913 0.0510962,0.4604727 0.0483717,0.4664808 0.0476547,0.4730413z M0.297792,0.3605468 L0.1431837,0.4204965 0.1421609,0.3033045 0.297792,0.3605468z" transform="matrix(1,0,0,-1,0.88646,0.88646)" fill="rgb(159,159,159)" fill-rule="nonzero" shaper:cutDepth="0.0000762" stroke-linecap="round" stroke-linejoin="round" /><path d="M0.0582897,-0.753465 L0.0582897,-0.753465 0.0543235,-0.7530239 0.050536,-0.7517728 0.0470837,-0.7497741 0.0441307,-0.747091 0.0417685,-0.7438763 0.0401062,-0.7402495 0.0388594,-0.732388 0.0388594,-0.732388 0.0394074,-0.7266169 0.0403378,-0.7238574 0.0418217,-0.7213659 0.0457466,-0.7171033 0.0503461,-0.7135786 0.176042,-0.6222923 0.1764256,-0.5783272 0.0652869,-0.5773573 0.0652869,-0.5773573 0.0556559,-0.5766048 0.0509653,-0.5754394 0.0465756,-0.5734258 0.0427707,-0.5704452 0.0401171,-0.5664229 0.0388414,-0.5617648 0.0386662,-0.556936 0.0386662,-0.556936 0.039688,-0.5502168 0.0426255,-0.5440992 0.0448147,-0.5414869 0.0474868,-0.5393777 0.0505059,-0.5377993 0.0537854,-0.5368789 0.0537854,-0.5368789 0.0606948,-0.5364448 0.0676254,-0.5365685 0.3406529,-0.5388794 0.3406529,-0.5388794 0.3467549,-0.5389477 0.352781,-0.5398953 0.3584247,-0.5422044 0.3631368,-0.5460672 0.3663905,-0.5512214 0.3682326,-0.557039 0.3689979,-0.56309 0.3690552,-0.5691929 0.3682502,-0.6532133 0.3682502,-0.6532133 0.3676926,-0.6629387 0.3664769,-0.6726013 0.364584,-0.6821588 0.3618245,-0.6914981 0.3581741,-0.7005297 0.3536628,-0.7091618 0.3482706,-0.7172734 0.3420352,-0.7247554 0.3350775,-0.7315723 0.3274209,-0.7375919 0.3191241,-0.7426936 0.3102798,-0.7467737 0.3010604,-0.7499145 0.2915628,-0.7520779 0.2819032,-0.7533258 0.272175,-0.7538228 0.272175,-0.7538228 0.2551969,-0.7523361 0.2468538,-0.7505818 0.2386616,-0.7482143 0.2307428,-0.7450579 0.2231322,-0.7412123 0.2159608,-0.7366021 0.2092069,-0.7313982 0.2029366,-0.7256209 0.1972797,-0.719242 0.1922528,-0.7123552 0.1878376,-0.7050623 0.1841976,-0.6973515 0.1811924,-0.6893726 0.1770583,-0.6728396 0.0740869,-0.7462745 0.0740869,-0.7462745 0.0716274,-0.7481929 0.0716274,-0.7481929 0.0654537,-0.752111 0.0619395,-0.7531506 0.0582897,-0.753465z M0.2219363,-0.6817529 L0.2219363,-0.6817529 0.2257984,-0.6884951 0.2306249,-0.6945838 0.2361955,-0.6999996 0.2424952,-0.7045482 0.2493704,-0.7081676 0.256679,-0.7108055 0.2642813,-0.7124071 0.2720282,-0.7130124 0.2720282,-0.7130124 0.2798933,-0.712459 0.2876213,-0.7108974 0.2950064,-0.7081375 0.301964,-0.7044283 0.3083229,-0.6997674 0.31399,-0.6942861 0.3187616,-0.6880099 0.3225994,-0.6811226 0.3225994,-0.6811226 0.3251527,-0.6747756 0.3266446,-0.6680986 0.3275021,-0.6544425 0.3281548,-0.5796513 0.2172317,-0.5786833 0.2166104,-0.6498782 0.2166104,-0.6498782 0.2171917,-0.6662007 0.2187973,-0.6742126 0.2219363,-0.6817529z" transform="matrix(1,0,0,-1,0.88646,0.88646)" fill="rgb(159,159,159)" fill-rule="nonzero" shaper:cutDepth="0.0000762" stroke-linecap="round" stroke-linejoin="round" /></svg>