<?xml version="1.0" encoding="utf-8"?>
<!-- Generator: Fusion 360, Shaper Origin Export Add-In, Version 1.6.10  -->
<svg xmlns="http://www.w3.org/2000/svg" xmlns:xlink="http://www.w3.org/1999/xlink" xmlns:shaper="http://www.shapertools.com/namespaces/shaper" shaper:fusionaddin="version:1.6.10" width="1.77292cm" height="1.77292cm" version="1.1" x="0cm" y="0cm" viewBox="0 0 1.77292 1.77292" enable-background="new 0 0 1.77292 1.77292" xml:space="preserve"><path d="M0.5171677,-0.8832372 L-1.2557523,-0.8832372 -1.2557523,0.8896828 0.5171677,0.8896828 0.5171677,-0.8832372z" transform="matrix(1,0,0,-1,1.2557523,0.8896828)" fill="rgb(0,0,0)" shaper:cutDepth="0.000127" stroke-linecap="round" stroke-linejoin="round" /><path d="M-0.6498913,0.2471922 L-0.6498913,0.2471922 -0.6485458,0.2559535 -0.6471446,0.2601489 -0.6451743,0.2641425 -0.6427079,0.2678686 -0.6397281,0.2711484 -0.6323957,0.2761068 -0.6323957,0.2761068 -0.6271992,0.2778218 -0.6217449,0.2783251 -0.6107839,0.2782584 -0.1237364,0.2741311 -0.1237364,0.2741311 -0.1101939,0.2736005 -0.1035042,0.2725115 -0.0972931,0.2698358 -0.0972931,0.2698358 -0.0915608,0.264287 -0.0871139,0.25767 -0.0843893,0.2501753 -0.0834929,0.2422493 -0.0834929,0.2422493 -0.0838986,0.2352741 -0.0858665,0.2285733 -0.0894559,0.2225976 -0.0947485,0.2180361 -0.101,0.2149334 -0.107735,0.2130569 -0.1146587,0.2121512 -0.1216435,0.2119139 -0.6113645,0.2161876 -0.6113645,0.2161876 -0.623928,0.2166803 -0.6301282,0.2177386 -0.63609,0.2197289 -0.63609,0.2197289 -0.6420699,0.2249896 -0.646275,0.2317777 -0.648996,0.2392685 -0.6498913,0.2471922z" transform="matrix(1,0,0,-1,1.2557523,0.8896828)" fill="rgb(159,159,159)" fill-rule="nonzero" shaper:cutDepth="0.0000762" stroke-linecap="round" stroke-linejoin="round" /><path d="M-0.6176612,-0.2512965 L-0.6176612,-0.2512965 -0.6244603,-0.2505403 -0.6309532,-0.2483957 -0.6368714,-0.2449693 -0.6419336,-0.2403696 -0.6459832,-0.2348587 -0.6488329,-0.2286414 -0.650381,-0.2219796 -0.6509703,-0.2151645 -0.6509703,-0.2151645 -0.6500307,-0.2052711 -0.6484358,-0.2005407 -0.645892,-0.1962695 -0.6391635,-0.1889621 -0.6312786,-0.1829199 -0.4158001,-0.026429 -0.4151424,0.0489398 -0.6056659,0.0506024 -0.6056659,0.0506024 -0.6221762,0.0518925 -0.6302172,0.0538902 -0.6377424,0.0573421 -0.644265,0.0624516 -0.6468451,0.0656908 -0.6488142,0.0693472 -0.651001,0.0773324 -0.6513014,0.0856104 -0.6513014,0.0856104 -0.6508204,0.0914316 -0.6495498,0.097129 -0.6474939,0.1025979 -0.644514,0.1076163 -0.6407612,0.1120946 -0.6361804,0.1157103 -0.6310047,0.1184161 -0.6253828,0.1199939 -0.6253828,0.1199939 -0.613538,0.1207381 -0.6016571,0.120526 -0.1336099,0.1165645 -0.1336099,0.1165645 -0.1231494,0.1164474 -0.1128189,0.1148229 -0.1078484,0.1131664 -0.103144,0.1108645 -0.098835,0.1078806 -0.0950661,0.1042425 -0.0919455,0.1000328 -0.0894884,0.0954068 -0.0863304,0.0854338 -0.0850186,0.0750607 -0.0849202,0.0645984 -0.0863002,-0.0794364 -0.0863002,-0.0794364 -0.0872562,-0.0961086 -0.0893403,-0.1126731 -0.0925852,-0.1290573 -0.0973157,-0.1450676 -0.1035736,-0.1605502 -0.1113072,-0.1753481 -0.120551,-0.1892537 -0.1312402,-0.20208 -0.1431678,-0.2137662 -0.1562934,-0.2240854 -0.1705165,-0.2328313 -0.185678,-0.2398257 -0.2014828,-0.24521 -0.2177643,-0.2489186 -0.2343237,-0.2510579 -0.2510006,-0.2519098 -0.2510006,-0.2519098 -0.2655965,-0.251129 -0.2801059,-0.2493612 -0.2944084,-0.2463539 -0.3084522,-0.2422954 -0.3220272,-0.2368843 -0.3350739,-0.2302918 -0.3473677,-0.2223887 -0.358946,-0.2134677 -0.3696949,-0.2035637 -0.3793926,-0.1926286 -0.3880102,-0.1808226 -0.395579,-0.1683205 -0.401819,-0.1551019 -0.4069708,-0.1414238 -0.4110119,-0.1273775 -0.4140579,-0.1130815 -0.5905802,-0.2389699 -0.5905802,-0.2389699 -0.5947966,-0.2422586 -0.5947966,-0.2422586 -0.5998582,-0.2459812 -0.6053799,-0.2489754 -0.6114042,-0.2507576 -0.6176612,-0.2512965z M-0.3371241,-0.1283615 L-0.3371241,-0.1283615 -0.3305033,-0.1399196 -0.3222293,-0.1503573 -0.3126798,-0.1596415 -0.3018802,-0.1674391 -0.2900942,-0.1736438 -0.2775651,-0.1781659 -0.2645326,-0.1809115 -0.2512523,-0.1819492 -0.2512523,-0.1819492 -0.2377693,-0.1810005 -0.2245213,-0.1783234 -0.211861,-0.1735922 -0.1999338,-0.1672336 -0.1890327,-0.1592434 -0.1793177,-0.149847 -0.1711379,-0.1390878 -0.1645588,-0.127281 -0.1645588,-0.127281 -0.1601817,-0.1164004 -0.1576241,-0.1049541 -0.1561541,-0.0815437 -0.1550352,0.0466698 -0.3451892,0.0483293 -0.3462543,-0.0737192 -0.3462543,-0.0737192 -0.3462344,-0.0877272 -0.3452576,-0.1017005 -0.3441991,-0.10863 -0.3425053,-0.1154353 -0.3371241,-0.1283615z" transform="matrix(1,0,0,-1,1.2557523,0.8896828)" fill="rgb(159,159,159)" fill-rule="nonzero" shaper:cutDepth="0.0000762" stroke-linecap="round" stroke-linejoin="round" /><path d="M-0.3299505,0.4396186 L-0.3299505,0.4396186 -0.3402214,0.4412189 -0.3451221,0.4429502 -0.3496764,0.4454998 -0.3537061,0.4488276 -0.3570403,0.4528185 -0.3617778,0.4620663 -0.3617778,0.4620663 -0.3632331,0.4689639 -0.3638228,0.4759995 -0.3639965,0.4901074 -0.3623473,0.6790902 -0.6002862,0.6811667 -0.6002862,0.6811667 -0.6120842,0.6814477 -0.6179484,0.6820953 -0.6235403,0.6839561 -0.6235403,0.6839561 -0.6284971,0.6858673 -0.6330962,0.6885222 -0.6369608,0.6921698 -0.6402288,0.6963569 -0.6427294,0.7010664 -0.6443981,0.7061313 -0.6457943,0.7166662 -0.6457943,0.7166662 -0.6443152,0.7265713 -0.6426876,0.7312908 -0.6403605,0.7357499 -0.637448,0.7398623 -0.6339559,0.7434367 -0.6255602,0.7488823 -0.6255602,0.7488823 -0.6192448,0.7506448 -0.6127031,0.7511832 -0.5995762,0.751119 -0.126506,0.7471137 -0.126506,0.7471137 -0.1164235,0.7465093 -0.1065091,0.7446019 -0.0971837,0.7407327 -0.0929554,0.7379581 -0.0891698,0.7346037 -0.0859548,0.7306956 -0.083405,0.7263299 -0.0815435,0.7216316 -0.0802549,0.7167358 -0.0791163,0.7067082 -0.0794047,0.6966106 -0.0820495,0.407649 -0.0820495,0.407649 -0.0826193,0.3995972 -0.0838485,0.3916233 -0.086078,0.3838636 -0.0896755,0.3766421 -0.0949688,0.3705632 -0.1017069,0.3661313 -0.109389,0.3636743 -0.1174194,0.3628788 -0.1174194,0.3628788 -0.1255033,0.3636582 -0.1332081,0.3662154 -0.136786,0.3681548 -0.1400278,0.3705962 -0.1452009,0.3768528 -0.1486273,0.3842079 -0.1507399,0.3920589 -0.1517736,0.4001046 -0.1518799,0.4082305 -0.1495324,0.677233 -0.2923941,0.6784797 -0.2940653,0.4869708 -0.2940653,0.4869708 -0.2943152,0.4784358 -0.2953282,0.4699665 -0.2973914,0.4616777 -0.3008395,0.4538734 -0.303259,0.450352 -0.306177,0.4472279 -0.3095339,0.444581 -0.3132537,0.442475 -0.3172529,0.4409562 -0.3214266,0.4400403 -0.3299505,0.4396186z" transform="matrix(1,0,0,-1,1.2557523,0.8896828)" fill="rgb(159,159,159)" fill-rule="nonzero" shaper:cutDepth="0.0000762" stroke-linecap="round" stroke-linejoin="round" /><path d="M-0.3394429,-0.6481028 L-0.3394429,-0.6481028 -0.3478257,-0.6476586 -0.3519271,-0.6467366 -0.3558478,-0.6452103 -0.3594799,-0.6430925 -0.3627408,-0.6404339 -0.3655401,-0.6372966 -0.367801,-0.6337572 -0.3709633,-0.6259762 -0.372779,-0.617778 -0.3735123,-0.6094171 -0.3735186,-0.6010191 -0.3718397,-0.4086312 -0.5856399,-0.4067654 -0.5880087,-0.6782032 -0.5880087,-0.6782032 -0.5882901,-0.689881 -0.5889211,-0.6956885 -0.590796,-0.7012109 -0.590796,-0.7012109 -0.5959103,-0.7105762 -0.5994139,-0.7146045 -0.6035991,-0.7179612 -0.6082963,-0.7205412 -0.6133341,-0.7223028 -0.6238798,-0.7239543 -0.6238798,-0.7239543 -0.6326313,-0.7234492 -0.6368842,-0.7223579 -0.6409106,-0.7205845 -0.6445722,-0.7181576 -0.6477417,-0.7151253 -0.6525786,-0.7078106 -0.6555894,-0.6995822 -0.6572588,-0.6909651 -0.6579327,-0.6822276 -0.6579257,-0.6734549 -0.6553716,-0.3807846 -0.6553716,-0.3807846 -0.6551758,-0.3711558 -0.6539616,-0.3616035 -0.6509307,-0.3524671 -0.6484836,-0.3483063 -0.6453218,-0.3446653 -0.6414773,-0.3417471 -0.6371574,-0.3396062 -0.6278379,-0.3371469 -0.6182566,-0.3362976 -0.6086255,-0.3366063 -0.1340279,-0.340625 -0.1340279,-0.340625 -0.1243658,-0.3408067 -0.1148058,-0.342147 -0.1056322,-0.3451794 -0.1014461,-0.3476136 -0.0977978,-0.3507892 -0.0948865,-0.3546515 -0.0926743,-0.3589612 -0.0899845,-0.3682338 -0.0889819,-0.377843 -0.0888656,-0.3875027 -0.0915569,-0.6817966 -0.0915569,-0.6817966 -0.0918059,-0.6897623 -0.0928993,-0.6976418 -0.0950342,-0.7053268 -0.0986044,-0.7124318 -0.1039221,-0.7183597 -0.1071934,-0.7206272 -0.110782,-0.7223783 -0.1184627,-0.7244687 -0.1264192,-0.7248469 -0.1264192,-0.7248469 -0.1348324,-0.7242933 -0.142882,-0.7217982 -0.1465734,-0.7197414 -0.1498748,-0.7171214 -0.1551053,-0.7105084 -0.1585235,-0.7028121 -0.1605,-0.6946043 -0.16136,-0.6862253 -0.1613574,-0.6777884 -0.1590248,-0.4104884 -0.3018865,-0.4092417 -0.3035943,-0.604938 -0.3035943,-0.604938 -0.3038557,-0.6130134 -0.3049682,-0.6210082 -0.3072572,-0.6287573 -0.3109975,-0.6359107 -0.313532,-0.6390633 -0.3165162,-0.6417964 -0.3235546,-0.6457372 -0.3313732,-0.647742 -0.3394429,-0.6481028z" transform="matrix(1,0,0,-1,1.2557523,0.8896828)" fill="rgb(159,159,159)" fill-rule="nonzero" shaper:cutDepth="0.0000762" stroke-linecap="round" stroke-linejoin="round" /><path d="M-1.1502435,0.4545549 L-1.14773,0.7425735 -0.7686641,0.5192866 -0.7711776,0.2312681 -1.1502435,0.4545549z" transform="matrix(1,0,0,-1,1.2557523,0.8896828)" fill="rgb(159,159,159)" fill-rule="nonzero" shaper:cutDepth="0.0000762" stroke-linecap="round" stroke-linejoin="round" /><path d="M0.0384313,0.4441815 L0.0409448,0.7322001 0.4200107,0.5089132 0.4174972,0.2208947 0.0384313,0.4441815z" transform="matrix(1,0,0,-1,1.2557523,0.8896828)" fill="rgb(159,159,159)" fill-rule="nonzero" shaper:cutDepth="0.0000762" stroke-linecap="round" stroke-linejoin="round" /><path d="M-0.77284,0.0407753 L-0.7753535,-0.2472433 -1.1544194,-0.0239564 -1.1519059,0.2640622 -0.77284,0.0407753z" transform="matrix(1,0,0,-1,1.2557523,0.8896828)" fill="rgb(159,159,159)" fill-rule="nonzero" shaper:cutDepth="0.0000762" stroke-linecap="round" stroke-linejoin="round" /><path d="M0.4091454,-0.736128 L0.0300795,-0.5128411 0.032593,-0.2248225 0.4116589,-0.4481094 0.4091454,-0.736128z" transform="matrix(1,0,0,-1,1.2557523,0.8896828)" fill="rgb(159,159,159)" fill-rule="nonzero" shaper:cutDepth="0.0000762" stroke-linecap="round" stroke-linejoin="round" /><path d="M0.4158348,0.0304019 L0.4133213,-0.2576167 0.0342554,-0.0343298 0.0367689,0.2536888 0.4158348,0.0304019z" transform="matrix(1,0,0,-1,1.2557523,0.8896828)" fill="rgb(159,159,159)" fill-rule="nonzero" shaper:cutDepth="0.0000762" stroke-linecap="round" stroke-linejoin="round" /><path d="M-0.7795294,-0.7257546 L-1.1585953,-0.5024677 -1.1560818,-0.2144491 -0.7770159,-0.437736 -0.7795294,-0.7257546z" transform="matrix(1,0,0,-1,1.2557523,0.8896828)" fill="rgb(159,159,159)" fill-rule="nonzero" shaper:cutDepth="0.0000762" stroke-linecap="round" stroke-linejoin="round" /></svg>