<?xml version="1.0" encoding="utf-8"?>
<!-- Generator: Fusion 360, Shaper Origin Export Add-In, Version 1.6.10  -->
<svg xmlns="http://www.w3.org/2000/svg" xmlns:xlink="http://www.w3.org/1999/xlink" xmlns:shaper="http://www.shapertools.com/namespaces/shaper" shaper:fusionaddin="version:1.6.10" width="1.3462cm" height="0.7366cm" version="1.1" x="0cm" y="0cm" viewBox="0 0 1.3462 0.7366" enable-background="new 0 0 1.3462 0.7366" xml:space="preserve"><path d="M-0.6731,-0.1813332 L-0.6731,0.5552668 0.6731,0.5552668 0.6731,-0.1813332 -0.6731,-0.1813332z" transform="matrix(1,0,0,-1,0.6731,0.5552668)" fill="rgb(0,0,0)" shaper:cutDepth="0.000127" stroke-linecap="round" stroke-linejoin="round" /><path d="M-0.2156902,0.0288506 L-0.30807,0.153745 -0.3520368,0.153745 -0.3520368,0.0426021 -0.3520368,0.0426021 -0.3527055,0.0329986 -0.353821,0.0283078 -0.3557604,0.0238734 -0.3587385,0.0200682 -0.3627651,0.0173444 -0.3673802,0.0160638 -0.372225,0.0158042 -0.372225,0.0158042 -0.3789205,0.016826 -0.3821421,0.0179098 -0.3851525,0.0195763 -0.3877479,0.0217859 -0.389739,0.0244788 -0.3924132,0.0307478 -0.3924132,0.0307478 -0.3928444,0.0445845 -0.3929162,0.3176218 -0.3929162,0.3176218 -0.3928952,0.323716 -0.3920166,0.3297455 -0.3897415,0.3354151 -0.385918,0.3401737 -0.3807837,0.3434648 -0.3749793,0.3453754 -0.3689441,0.3461716 -0.3628517,0.3462876 -0.2788275,0.3462158 -0.2788275,0.3462158 -0.2690976,0.3457387 -0.2594226,0.3446133 -0.2498509,0.3428026 -0.2404861,0.3401252 -0.2314246,0.3365521 -0.2227532,0.3321168 -0.2145956,0.3267953 -0.207058,0.3206269 -0.200182,0.3137279 -0.1940954,0.3061244 -0.1889245,0.2978715 -0.1847635,0.2890654 -0.1815437,0.2798729 -0.1792961,0.2703952 -0.1779691,0.2607461 -0.1773834,0.2510222 -0.1773834,0.2510222 -0.1787241,0.2340325 -0.1803965,0.2256715 -0.1827078,0.2174642 -0.1857797,0.2095124 -0.1895692,0.2018729 -0.194112,0.1946596 -0.1992577,0.1878608 -0.2049801,0.1815404 -0.2113101,0.1758296 -0.2181489,0.1707361 -0.2254099,0.1662692 -0.2330827,0.1625518 -0.241037,0.1594804 -0.2575335,0.1552024 -0.1832028,0.0528758 -0.1832028,0.0528758 -0.181263,0.0504331 -0.181263,0.0504331 -0.177336,0.0443192 -0.1758747,0.0371419 -0.1758747,0.0371419 -0.1775013,0.0293686 -0.1794422,0.0259114 -0.1821351,0.0229186 -0.1853516,0.0205102 -0.188948,0.0188381 -0.1967814,0.0175284 -0.1967814,0.0175284 -0.2025877,0.0180524 -0.2052992,0.0189255 -0.2078025,0.0203722 -0.212106,0.0243305 -0.2156902,0.0288506z M-0.2505209,0.3008103 L-0.2505209,0.3008103 -0.256913,0.303282 -0.2635715,0.3047486 -0.2772427,0.30548 -0.3520368,0.30548 -0.3520368,0.1945526 -0.2808391,0.1945526 -0.2808391,0.1945526 -0.2645241,0.1952762 -0.2565273,0.196951 -0.2490121,0.2001565 -0.2490121,0.2001565 -0.2423041,0.2040772 -0.2362576,0.2089568 -0.2308903,0.2145748 -0.2263971,0.2209137 -0.2228378,0.2278203 -0.2202639,0.2351514 -0.2187286,0.2427681 -0.218191,0.2505193 -0.218191,0.2505193 -0.218813,0.258379 -0.2204419,0.2660931 -0.2232662,0.2734542 -0.2270359,0.2803788 -0.2317521,0.2866969 -0.2372827,0.2923161 -0.2436004,0.2970328 -0.2505209,0.3008103z" transform="matrix(1,0,0,-1,0.6731,0.5552668)" fill="rgb(159,159,159)" fill-rule="nonzero" shaper:cutDepth="0.0000762" stroke-linecap="round" stroke-linejoin="round" /><path d="M-0.085351,0.1813332 L-0.085351,0.0566117 0.0729937,0.0566117 0.0729937,0.0566117 0.079771,0.0564443 0.0864286,0.055103 0.0864286,0.055103 0.091909,0.052125 0.0942919,0.0501563 0.0962777,0.0477371 0.098825,0.0420554 0.0998635,0.0359205 0.0998635,0.0359205 0.0995381,0.0307783 0.0979873,0.0259782 0.0947906,0.0219331 0.0905462,0.0190708 0.0857558,0.0172773 0.0807562,0.0162621 0.07058,0.0158042 -0.1001509,0.0158042 -0.1001509,0.0158042 -0.1113215,0.016515 -0.1166838,0.0182519 -0.1212714,0.021483 -0.1242416,0.0262397 -0.1257843,0.0316653 -0.1262776,0.0372389 -0.1261586,0.0428468 -0.1262303,0.3197053 -0.1262303,0.3197053 -0.126162,0.3253319 -0.1254754,0.3309061 -0.1237001,0.3362774 -0.1204819,0.3408943 -0.1157425,0.3439284 -0.1103221,0.3455418 -0.0991159,0.3462876 0.0725627,0.3462158 0.0725627,0.3462158 0.081795,0.3455506 0.0862728,0.3443361 0.090446,0.3422642 0.0939359,0.3392034 0.0963536,0.3352128 0.0975228,0.3307402 0.0978519,0.3260994 0.0978519,0.3260994 0.0975012,0.3211789 0.096171,0.3164807 0.0934371,0.3123606 0.0896076,0.3092803 0.0851221,0.3072342 0.0803602,0.3060352 0.07058,0.30548 -0.085351,0.30548 -0.085351,0.2221408 0.0288095,0.2221408 0.0288095,0.2221408 0.0381682,0.2214448 0.0426916,0.2201469 0.0468907,0.2179736 0.0503676,0.2148051 0.0527327,0.2107094 0.0538601,0.2061537 0.0541706,0.2014497 0.0541706,0.2014497 0.0538943,0.1965421 0.0525832,0.191864 0.0498027,0.1877958 0.0459087,0.1848359 0.041382,0.1829317 0.0366198,0.1818334 0.0268796,0.1813332 -0.085351,0.1813332z" transform="matrix(1,0,0,-1,0.6731,0.5552668)" fill="rgb(159,159,159)" fill-rule="nonzero" shaper:cutDepth="0.0000762" stroke-linecap="round" stroke-linejoin="round" /><path d="M0.333501,0.2781793 L0.333501,0.2781793 0.3232545,0.2891347 0.3173982,0.2938282 0.311077,0.297874 0.3043353,0.3011717 0.2972081,0.3035228 0.2898384,0.3049418 0.2823479,0.3054083 0.2823479,0.3054083 0.2718507,0.3042528 0.2616303,0.3016042 0.2518797,0.2975489 0.2427887,0.2921812 0.2344599,0.2856878 0.2269026,0.2783111 0.2200698,0.2702568 0.2139257,0.2616658 0.2084729,0.25262 0.20373,0.2431826 0.1997431,0.2334019 0.1965041,0.2233485 0.1940322,0.2130799 0.1922563,0.2026673 0.1905309,0.1816207 0.1905309,0.1816207 0.1911966,0.1683629 0.1931043,0.1552288 0.1961274,0.1423044 0.2002049,0.129673 0.2053232,0.1174265 0.2114593,0.1056568 0.2185979,0.0944683 0.2267404,0.0839843 0.2267404,0.0839843 0.232271,0.078018 0.2383224,0.0725806 0.2448625,0.067742 0.2519076,0.0636738 0.2593678,0.0604288 0.2671915,0.0581986 0.2752236,0.0569066 0.2833537,0.0566117 0.2833537,0.0566117 0.2916403,0.0570724 0.2997452,0.0588825 0.3074974,0.0618437 0.3147203,0.0659344 0.3214024,0.0708622 0.3275805,0.0764073 0.3384582,0.0889416 0.3384582,0.0889416 0.3419551,0.0931566 0.3462593,0.0965716 0.3513751,0.0984529 0.3568503,0.0989279 0.3568503,0.0989279 0.3647484,0.0974502 0.368274,0.0955374 0.3713281,0.0928392 0.3737782,0.0895932 0.3754679,0.0859533 0.3767512,0.0780213 0.3767512,0.0780213 0.375112,0.0703285 0.3710215,0.0636081 0.3608018,0.0516544 0.3608018,0.0516544 0.3527415,0.043771 0.3440531,0.0365898 0.3346994,0.0302991 0.3247135,0.0250714 0.3141918,0.0210273 0.3033105,0.0180843 0.2921709,0.0163693 0.280911,0.0158042 0.280911,0.0158042 0.26734,0.0165488 0.2539792,0.0190136 0.2410405,0.0231597 0.2287818,0.0290202 0.2173363,0.0363438 0.2068202,0.0449508 0.1972513,0.0546 0.1885193,0.0650175 0.1885193,0.0650175 0.1794555,0.0780478 0.1715864,0.0918291 0.1649473,0.1062449 0.1594739,0.1211422 0.155242,0.136439 0.1521489,0.1520062 0.1503429,0.1677738 0.1496516,0.1836323 0.1496516,0.1836323 0.1503985,0.1993352 0.1525766,0.2149012 0.1561265,0.2302139 0.1609477,0.2451754 0.1669324,0.259711 0.174042,0.2737307 0.1822714,0.2871231 0.1914649,0.2998763 0.1914649,0.2998763 0.2002504,0.3099142 0.2099249,0.3190928 0.2204993,0.3272193 0.2319356,0.3340768 0.2441575,0.3394092 0.2569306,0.3432394 0.2700818,0.3454409 0.2833942,0.3462876 0.2833942,0.3462876 0.2955371,0.3454975 0.3074914,0.3432553 0.3190831,0.3395672 0.3301188,0.3344504 0.3404563,0.3280372 0.3500911,0.3206072 0.3590243,0.3123481 0.3672678,0.3033967 0.3672678,0.3033967 0.3707451,0.2993519 0.3734888,0.294935 0.3751617,0.2899748 0.3762483,0.2847172 0.3762483,0.2847172 0.3747462,0.2767279 0.3729514,0.27309 0.3704241,0.269843 0.3673371,0.2671131 0.3637976,0.2651345 0.3558445,0.2634513 0.3558445,0.2634513 0.3488521,0.2644245 0.3456938,0.265713 0.3428621,0.2677257 0.333501,0.2781793z" transform="matrix(1,0,0,-1,0.6731,0.5552668)" fill="rgb(159,159,159)" fill-rule="nonzero" shaper:cutDepth="0.0000762" stroke-linecap="round" stroke-linejoin="round" /></svg>