<?xml version="1.0" encoding="utf-8"?>
<!-- Generator: Fusion 360, Shaper Origin Export Add-In, Version 1.6.10  -->
<svg xmlns="http://www.w3.org/2000/svg" xmlns:xlink="http://www.w3.org/1999/xlink" xmlns:shaper="http://www.shapertools.com/namespaces/shaper" shaper:fusionaddin="version:1.6.10" width="1.3462cm" height="0.7366cm" version="1.1" x="0cm" y="0cm" viewBox="0 0 1.3462 0.7366" enable-background="new 0 0 1.3462 0.7366" xml:space="preserve"><path d="M-0.8690128,-0.1836421 L-0.8690128,0.5529579 0.4771872,0.5529579 0.4771872,-0.1836421 -0.8690128,-0.1836421z" transform="matrix(1,0,0,-1,0.8690128,0.5529579)" fill="rgb(0,0,0)" shaper:cutDepth="0.000127" stroke-linecap="round" stroke-linejoin="round" /><path d="M-0.1261742,0.0250827 L-0.1261742,0.0250827 -0.1287986,0.01994 -0.1330624,0.0160554 -0.1384273,0.0139506 -0.1441866,0.0134747 -0.1441866,0.0134747 -0.1511472,0.014565 -0.1573677,0.0178654 -0.1599063,0.0203209 -0.1618585,0.0232645 -0.1630592,0.0265856 -0.1635332,0.0300861 -0.1635332,0.0300861 -0.1620996,0.0381588 -0.1598002,0.0460538 -0.0814101,0.3071432 -0.0814101,0.3071432 -0.078965,0.3128047 -0.0747711,0.3173087 -0.0720971,0.3188569 -0.0691441,0.3197787 -0.0629975,0.3202856 -0.0629975,0.3202856 -0.0558086,0.3194899 -0.0524886,0.3180345 -0.0496415,0.3157916 -0.0474075,0.3129366 -0.0456867,0.3097405 -0.0431358,0.3029522 0.0361373,0.0428282 0.0361373,0.0428282 0.037757,0.0370072 0.0384723,0.0310201 0.0384723,0.0310201 0.0380903,0.0273827 0.0370083,0.02389 0.0351269,0.0207551 0.0326372,0.0180764 0.0296467,0.0159746 0.0262695,0.0145658 0.0190589,0.0134747 0.0190589,0.0134747 0.0127847,0.014072 0.0071147,0.0167804 0.0030214,0.0215541 0.000671,0.0273961 -0.0108571,0.0647099 -0.1141489,0.0647099 -0.1261742,0.0250827z M-0.062503,0.235387 L-0.1021596,0.1026026 -0.0228463,0.1026026 -0.062503,0.235387z" transform="matrix(1,0,0,-1,0.8690128,0.5529579)" fill="rgb(159,159,159)" fill-rule="nonzero" shaper:cutDepth="0.0000762" stroke-linecap="round" stroke-linejoin="round" /><path d="M-0.1727635,0.1078062 L-0.1727635,0.1078062 -0.1732479,0.0967543 -0.1746982,0.085792 -0.1770885,0.0749882 -0.1805879,0.0644995 -0.1851348,0.054413 -0.1907824,0.0449072 -0.1975688,0.0361703 -0.2055194,0.028485 -0.2055194,0.028485 -0.216291,0.021566 -0.2220551,0.0187691 -0.2280925,0.0166229 -0.2406428,0.0141012 -0.2534339,0.0134747 -0.3217326,0.0134747 -0.3217326,0.0134747 -0.3315283,0.014346 -0.3361723,0.0159706 -0.3401305,0.0188796 -0.3426567,0.0230987 -0.3439597,0.0278448 -0.3442754,0.0376726 -0.3442814,0.2970029 -0.3442814,0.2970029 -0.3434811,0.3064281 -0.3420112,0.3109362 -0.3393691,0.3148587 -0.335535,0.3176343 -0.3310898,0.3192644 -0.3216803,0.3203522 -0.2419444,0.3202856 -0.2419444,0.3202856 -0.2346861,0.3197604 -0.2275029,0.3185958 -0.220503,0.3166062 -0.2137536,0.3138886 -0.2073998,0.3103404 -0.2014803,0.3061087 -0.1960438,0.3012713 -0.1911328,0.2959013 -0.1867594,0.2900839 -0.1829777,0.2838684 -0.1798115,0.2773134 -0.1772778,0.2704948 -0.1739505,0.256333 -0.1727635,0.2418316 -0.1727635,0.2418316 -0.1730036,0.2332656 -0.174089,0.2247663 -0.1760043,0.2164139 -0.1787919,0.2083113 -0.1825151,0.2005939 -0.1870026,0.193294 -0.1922334,0.1865073 -0.198099,0.1802601 -0.1985601,0.1802601 -0.2004492,0.179789 -0.2004492,0.179789 -0.1942615,0.1720935 -0.1886451,0.1639737 -0.1836907,0.155432 -0.1795289,0.1464787 -0.1763798,0.1371213 -0.1742622,0.1274776 -0.1730782,0.1176753 -0.1727635,0.1078062z M-0.3087688,0.0513674 L-0.2562209,0.0513674 -0.2562209,0.0513674 -0.2476147,0.0516862 -0.2391583,0.0532632 -0.2351703,0.0548754 -0.2315054,0.0571354 -0.2282066,0.0599025 -0.225333,0.0631088 -0.225333,0.0631088 -0.2187117,0.0728393 -0.2140644,0.0836501 -0.2114679,0.0951313 -0.2105895,0.1068722 -0.2105895,0.1068722 -0.2118389,0.1206286 -0.2156194,0.133914 -0.2185134,0.1401863 -0.2220045,0.1461559 -0.2263286,0.1515434 -0.2313371,0.1563062 -0.2313371,0.1563062 -0.2361141,0.1595679 -0.2414896,0.1617012 -0.2471917,0.1626659 -0.2529728,0.1629107 -0.3087688,0.1629107 -0.3087688,0.0513674z M-0.3064632,0.2008035 L-0.2446796,0.2008035 -0.2446796,0.2008035 -0.2386322,0.2009745 -0.2326678,0.2019496 -0.2271722,0.2044529 -0.2225978,0.2084087 -0.2225978,0.2084087 -0.2171497,0.2156745 -0.2133618,0.2239341 -0.2112722,0.2327705 -0.2105895,0.2418316 -0.2105895,0.2418316 -0.2114074,0.2510155 -0.2135732,0.2599727 -0.2174798,0.2683243 -0.2230648,0.2756549 -0.2230648,0.2756549 -0.2277273,0.2793515 -0.2332781,0.2815117 -0.2451337,0.2824594 -0.3064632,0.2824594 -0.3064632,0.2008035z" transform="matrix(1,0,0,-1,0.8690128,0.5529579)" fill="rgb(159,159,159)" fill-rule="nonzero" shaper:cutDepth="0.0000762" stroke-linecap="round" stroke-linejoin="round" /><path d="M0.2106146,0.0474981 L0.2106146,0.0474981 0.2148308,0.0408369 0.2163754,0.0372114 0.2166187,0.0332883 0.2166187,0.0332883 0.2162765,0.0295649 0.2152931,0.0259586 0.2135066,0.0226762 0.211055,0.019855 0.2080051,0.0176949 0.2045713,0.0162165 0.1972054,0.0150758 0.1972054,0.0150758 0.192288,0.0153934 0.1876149,0.0169347 0.183872,0.0201265 0.1811268,0.0242196 0.1129563,0.1415627 0.0876232,0.1415627 0.0875967,0.0383585 0.0875967,0.0383585 0.0870851,0.0292883 0.0861527,0.0248345 0.0844436,0.0206268 0.0815838,0.0171017 0.0776641,0.0148209 0.073257,0.0137155 0.0687171,0.0134747 0.0687171,0.0134747 0.0643057,0.0138763 0.0600356,0.0150451 0.056185,0.0172324 0.0529729,0.0202794 0.0529729,0.0202794 0.0505749,0.0248175 0.0499071,0.0299108 0.049811,0.0401993 0.0497707,0.293734 0.0497707,0.293734 0.0497815,0.2992206 0.0504287,0.304671 0.0522431,0.3098429 0.0554486,0.3142832 0.0600159,0.3173164 0.0652052,0.3190909 0.076095,0.3203522 0.1368972,0.3202856 0.1368972,0.3202856 0.1451891,0.3197702 0.1533996,0.3185064 0.1614519,0.3164645 0.1692045,0.3134791 0.1765559,0.3096134 0.1833919,0.3048913 0.1896651,0.2994482 0.1952989,0.2933406 0.2002603,0.2866799 0.2045073,0.2795384 0.2080606,0.2720298 0.2108356,0.2641995 0.2144026,0.24798 0.2156847,0.2314245 0.2156847,0.2314245 0.214726,0.2175286 0.2121225,0.2038494 0.2077373,0.1906345 0.2014525,0.1782094 0.1934225,0.1668367 0.1887222,0.1617018 0.1835731,0.1570043 0.1779795,0.1528612 0.1719834,0.1493118 0.1656253,0.1464706 0.1590166,0.1442692 0.1553318,0.143367 0.2092554,0.0497872 0.2106146,0.0474981z M0.0876232,0.2824594 L0.0876232,0.1794554 0.1354963,0.1794554 0.1354963,0.1794554 0.1431153,0.1797091 0.1506159,0.1810341 0.1574958,0.1843135 0.1631153,0.1894623 0.1631153,0.1894623 0.1667522,0.19377 0.1698732,0.198466 0.1744291,0.2087642 0.1770373,0.2197219 0.1778587,0.2309575 0.1778587,0.2309575 0.1775927,0.2375539 0.176727,0.2440958 0.1752695,0.2505362 0.1731423,0.2567828 0.1703721,0.2627756 0.1669263,0.268404 0.162641,0.2734242 0.1575781,0.2776563 0.1575781,0.2776563 0.1532312,0.2802492 0.1483861,0.2817227 0.1382895,0.2824594 0.0876232,0.2824594z" transform="matrix(1,0,0,-1,0.8690128,0.5529579)" fill="rgb(159,159,159)" fill-rule="nonzero" shaper:cutDepth="0.0000762" stroke-linecap="round" stroke-linejoin="round" /><path d="M-0.4528707,0.0457636 L-0.4528707,0.0457636 -0.448594,0.043286 -0.4454497,0.0394437 -0.4434484,0.0349232 -0.4427304,0.0300194 -0.4427304,0.0300194 -0.4436972,0.0245195 -0.4463604,0.0196142 -0.4504949,0.0159013 -0.4556726,0.013875 -0.4556726,0.013875 -0.466229,0.0134747 -0.5976368,0.0134747 -0.5976368,0.0134747 -0.6069317,0.0145038 -0.6113507,0.0160436 -0.6152263,0.0186608 -0.6179747,0.0224391 -0.6195147,0.0268589 -0.6200973,0.0315005 -0.6199856,0.0361828 -0.6200522,0.2997381 -0.6200522,0.2997381 -0.6190763,0.3075891 -0.6178118,0.3113517 -0.6157276,0.3147095 -0.6128735,0.3174615 -0.6093158,0.3191969 -0.6054673,0.320126 -0.6015062,0.3202856 -0.6015062,0.3202856 -0.5975227,0.3201288 -0.5936397,0.3192459 -0.5900424,0.317536 -0.5871225,0.314828 -0.5850425,0.3114339 -0.5837654,0.3076572 -0.5828934,0.2997461 -0.5828934,0.0470978 -0.463945,0.0470978 -0.463945,0.0470978 -0.4583461,0.0468838 -0.4528707,0.0457636z" transform="matrix(1,0,0,-1,0.8690128,0.5529579)" fill="rgb(159,159,159)" fill-rule="nonzero" shaper:cutDepth="0.0000762" stroke-linecap="round" stroke-linejoin="round" /></svg>