<?xml version="1.0" encoding="utf-8"?>
<!-- Generator: Fusion 360, Shaper Origin Export Add-In, Version 1.6.10  -->
<svg xmlns="http://www.w3.org/2000/svg" xmlns:xlink="http://www.w3.org/1999/xlink" xmlns:shaper="http://www.shapertools.com/namespaces/shaper" shaper:fusionaddin="version:1.6.10" width="1.3462cm" height="0.7366cm" version="1.1" x="0cm" y="0cm" viewBox="0 0 1.3462 0.7366" enable-background="new 0 0 1.3462 0.7366" xml:space="preserve"><path d="M-0.6731,-0.3683 L-0.6731,0.3683 0.6731,0.3683 0.6731,-0.3683 -0.6731,-0.3683z" transform="matrix(1,0,0,-1,0.6731,0.3683)" fill="rgb(0,0,0)" shaper:cutDepth="0.000127" stroke-linecap="round" stroke-linejoin="round" /><path d="M0.1571987,0.0204152 L0.1571987,0.0204152 0.1657115,0.0197325 0.1698018,0.0184847 0.1735533,0.0164322 0.1765721,0.0134135 0.1785825,0.009643 0.1795208,0.0054723 0.1797475,0.001202 0.1797475,0.001202 0.179566,-0.0031905 0.1784509,-0.0074397 0.1761747,-0.011194 0.1728372,-0.0140435 0.1688461,-0.0158877 0.1645841,-0.0169676 0.1558164,-0.0174776 0.076503,-0.0174776 0.076503,-0.1332904 0.1898878,-0.1332904 0.1898878,-0.1332904 0.1986712,-0.1338373 0.2029204,-0.1350005 0.2068558,-0.1369834 0.2100611,-0.1399925 0.2122328,-0.1438214 0.2132693,-0.1481009 0.2134373,-0.1525036 0.2134373,-0.1525036 0.2132366,-0.1570447 0.2119508,-0.1614015 0.2093839,-0.1651408 0.2057771,-0.1679061 0.2016007,-0.1696897 0.1971642,-0.1707015 0.1880951,-0.1711831 0.0622001,-0.1711831 0.0622001,-0.1711831 0.0518759,-0.1704369 0.0469122,-0.1689345 0.0426974,-0.1659481 0.0401176,-0.1614685 0.0389212,-0.1564226 0.0386908,-0.1460721 0.0386506,0.1110108 0.0386506,0.1110108 0.039152,0.1212445 0.0405916,0.1261612 0.0433239,0.1304919 0.0475591,0.1333603 0.0524593,0.1348692 0.0626693,0.1356943 0.1894208,0.1356277 0.1894208,0.1356277 0.1979062,0.1350801 0.2020122,0.1339481 0.2058022,0.1320135 0.2088927,0.1290931 0.2109048,0.1253471 0.2118698,0.1212029 0.2120364,0.1169482 0.2120364,0.1169482 0.2118634,0.1125009 0.2107991,0.1081824 0.2085722,0.1043351 0.2052674,0.1013665 0.2012712,0.0994055 0.1969731,0.0982526 0.1880951,0.0978016 0.076503,0.0978016 0.076503,0.0204152 0.1571987,0.0204152z" transform="matrix(1,0,0,-1,0.6731,0.3683)" fill="rgb(159,159,159)" fill-rule="nonzero" shaper:cutDepth="0.0000762" stroke-linecap="round" stroke-linejoin="round" /><path d="M-0.4322357,-0.1371598 L-0.4322357,-0.1371598 -0.4280195,-0.143821 -0.4264748,-0.1474464 -0.4262316,-0.1513695 -0.4262316,-0.1513695 -0.4265738,-0.155093 -0.4275572,-0.1586993 -0.4293436,-0.1619817 -0.4317953,-0.1648029 -0.4348452,-0.166963 -0.438279,-0.1684414 -0.4456449,-0.169582 -0.4456449,-0.169582 -0.4505623,-0.1692645 -0.4552353,-0.1677232 -0.4589782,-0.1645314 -0.4617235,-0.1604383 -0.5298939,-0.0430952 -0.5552271,-0.0430952 -0.5552536,-0.1462994 -0.5552536,-0.1462994 -0.5557652,-0.1553696 -0.5566976,-0.1598234 -0.5584066,-0.1640311 -0.5612664,-0.1675561 -0.5651861,-0.169837 -0.5695932,-0.1709424 -0.5741332,-0.1711831 -0.5741332,-0.1711831 -0.5785446,-0.1707816 -0.5828147,-0.1696128 -0.5866652,-0.1674255 -0.5898774,-0.1643785 -0.5898774,-0.1643785 -0.5922753,-0.1598403 -0.5929431,-0.1547471 -0.5930393,-0.1444585 -0.5930796,0.1090761 -0.5930796,0.1090761 -0.5930688,0.1145627 -0.5924215,0.1200131 -0.5906071,0.125185 -0.5874017,0.1296253 -0.5828344,0.1326585 -0.577645,0.1344331 -0.5667552,0.1356943 -0.505953,0.1356277 -0.505953,0.1356277 -0.4976612,0.1351124 -0.4894506,0.1338485 -0.4813984,0.1318066 -0.4736458,0.1288213 -0.4662944,0.1249555 -0.4594584,0.1202335 -0.4531852,0.1147904 -0.4475514,0.1086828 -0.44259,0.1020221 -0.4383429,0.0948805 -0.4347896,0.0873719 -0.4320146,0.0795416 -0.4284476,0.0633222 -0.4271655,0.0467666 -0.4271655,0.0467666 -0.4281243,0.0328708 -0.4307278,0.0191915 -0.435113,0.0059767 -0.4413978,-0.0064485 -0.4494278,-0.0178212 -0.4541281,-0.0229561 -0.4592771,-0.0276536 -0.4648708,-0.0317967 -0.4708668,-0.0353461 -0.477225,-0.0381873 -0.4838336,-0.0403886 -0.4875185,-0.0412908 -0.4335949,-0.1348707 -0.4322357,-0.1371598z M-0.5552271,0.0978016 L-0.5552271,-0.0052024 -0.507354,-0.0052024 -0.507354,-0.0052024 -0.499735,-0.0049487 -0.4922344,-0.0036237 -0.4853545,-0.0003444 -0.479735,0.0048045 -0.479735,0.0048045 -0.4760981,0.0091121 -0.472977,0.0138081 -0.4684212,0.0241063 -0.4658129,0.0350641 -0.4649915,0.0462996 -0.4649915,0.0462996 -0.4652576,0.0528961 -0.4661232,0.059438 -0.4675808,0.0658784 -0.4697079,0.0721249 -0.4724781,0.0781177 -0.475924,0.0837462 -0.4802093,0.0887663 -0.4852721,0.0929984 -0.4852721,0.0929984 -0.4896191,0.0955913 -0.4944642,0.0970649 -0.5045608,0.0978016 -0.5552271,0.0978016z" transform="matrix(1,0,0,-1,0.6731,0.3683)" fill="rgb(159,159,159)" fill-rule="nonzero" shaper:cutDepth="0.0000762" stroke-linecap="round" stroke-linejoin="round" /><path d="M0.3407488,0.0204152 L0.3407488,0.0204152 0.3492617,0.0197325 0.3533519,0.0184847 0.3571034,0.0164322 0.3601222,0.0134135 0.3621327,0.009643 0.363071,0.0054723 0.3632976,0.001202 0.3632976,0.001202 0.3631161,-0.0031905 0.362001,-0.0074397 0.3597248,-0.011194 0.3563873,-0.0140435 0.3523963,-0.0158877 0.3481342,-0.0169676 0.3393665,-0.0174776 0.2600531,-0.0174776 0.2600531,-0.1332904 0.373438,-0.1332904 0.373438,-0.1332904 0.3822214,-0.1338373 0.3864706,-0.1350005 0.3904059,-0.1369834 0.3936113,-0.1399925 0.3957829,-0.1438214 0.3968195,-0.1481009 0.3969875,-0.1525036 0.3969875,-0.1525036 0.3967867,-0.1570447 0.3955009,-0.1614015 0.392934,-0.1651408 0.3893272,-0.1679061 0.3851508,-0.1696897 0.3807143,-0.1707015 0.3716452,-0.1711831 0.2457502,-0.1711831 0.2457502,-0.1711831 0.2354261,-0.1704369 0.2304623,-0.1689345 0.2262475,-0.1659481 0.2236678,-0.1614685 0.2224713,-0.1564226 0.222241,-0.1460721 0.2222007,0.1110108 0.2222007,0.1110108 0.2227021,0.1212445 0.2241417,0.1261612 0.2268741,0.1304919 0.2311092,0.1333603 0.2360094,0.1348692 0.2462194,0.1356943 0.372971,0.1356277 0.372971,0.1356277 0.3814563,0.1350801 0.3855623,0.1339481 0.3893523,0.1320135 0.3924429,0.1290931 0.3944549,0.1253471 0.3954199,0.1212029 0.3955865,0.1169482 0.3955865,0.1169482 0.3954135,0.1125009 0.3943492,0.1081824 0.3921223,0.1043351 0.3888176,0.1013665 0.3848213,0.0994055 0.3805233,0.0982526 0.3716452,0.0978016 0.2600531,0.0978016 0.2600531,0.0204152 0.3407488,0.0204152z" transform="matrix(1,0,0,-1,0.6731,0.3683)" fill="rgb(159,159,159)" fill-rule="nonzero" shaper:cutDepth="0.0000762" stroke-linecap="round" stroke-linejoin="round" /><path d="M0.0226155,-0.1388943 L0.0226155,-0.1388943 0.0268922,-0.1413719 0.0300366,-0.1452142 0.0320379,-0.1497347 0.0327558,-0.1546384 0.0327558,-0.1546384 0.0317891,-0.1601384 0.0291258,-0.1650437 0.0249914,-0.1687565 0.0198136,-0.1707829 0.0198136,-0.1707829 0.0092573,-0.1711831 -0.1221506,-0.1711831 -0.1221506,-0.1711831 -0.1314455,-0.1701541 -0.1358645,-0.1686142 -0.1397401,-0.1659971 -0.1424884,-0.1622187 -0.1440285,-0.1577989 -0.1446111,-0.1531574 -0.1444994,-0.1484751 -0.144566,0.1150802 -0.144566,0.1150802 -0.14359,0.1229312 -0.1423255,0.1266938 -0.1402414,0.1300516 -0.1373873,0.1328036 -0.1338295,0.134539 -0.1299811,0.1354681 -0.1260199,0.1356277 -0.1260199,0.1356277 -0.1220364,0.1354709 -0.1181534,0.134588 -0.1145562,0.1328781 -0.1116362,0.1301701 -0.1095563,0.126776 -0.1082792,0.1229994 -0.1074071,0.1150882 -0.1074071,-0.13756 0.0115413,-0.13756 0.0115413,-0.13756 0.0171401,-0.1377741 0.0226155,-0.1388943z" transform="matrix(1,0,0,-1,0.6731,0.3683)" fill="rgb(159,159,159)" fill-rule="nonzero" shaper:cutDepth="0.0000762" stroke-linecap="round" stroke-linejoin="round" /><path d="M-0.1539965,-0.0768517 L-0.1539965,-0.0768517 -0.1544808,-0.0879036 -0.1559311,-0.0988659 -0.1583214,-0.1096697 -0.1618208,-0.1201584 -0.1663678,-0.1302449 -0.1720153,-0.1397507 -0.1788018,-0.1484875 -0.1867523,-0.1561728 -0.1867523,-0.1561728 -0.197524,-0.1630918 -0.2032881,-0.1658888 -0.2093255,-0.168035 -0.2218758,-0.1705567 -0.2346668,-0.1711831 -0.3029655,-0.1711831 -0.3029655,-0.1711831 -0.3127612,-0.1703119 -0.3174053,-0.1686873 -0.3213635,-0.1657783 -0.3238896,-0.1615592 -0.3251926,-0.156813 -0.3255083,-0.1469853 -0.3255144,0.112345 -0.3255144,0.112345 -0.3247141,0.1217703 -0.3232441,0.1262783 -0.3206021,0.1302008 -0.316768,0.1329765 -0.3123227,0.1346065 -0.3029132,0.1356943 -0.2231774,0.1356277 -0.2231774,0.1356277 -0.2159191,0.1351025 -0.2087359,0.133938 -0.2017359,0.1319483 -0.1949866,0.1292308 -0.1886327,0.1256825 -0.1827133,0.1214508 -0.1772767,0.1166134 -0.1723658,0.1112435 -0.1679923,0.105426 -0.1642106,0.0992105 -0.1610444,0.0926556 -0.1585108,0.0858369 -0.1551834,0.0716751 -0.1539965,0.0571738 -0.1539965,0.0571738 -0.1542365,0.0486077 -0.1553219,0.0401084 -0.1572372,0.0317561 -0.1600248,0.0236535 -0.1637481,0.015936 -0.1682355,0.0086361 -0.1734664,0.0018494 -0.1793319,-0.0043978 -0.1797931,-0.0043978 -0.1816822,-0.0048689 -0.1816822,-0.0048689 -0.1754944,-0.0125644 -0.1698781,-0.0206842 -0.1649237,-0.0292259 -0.1607618,-0.0381792 -0.1576128,-0.0475366 -0.1554952,-0.0571803 -0.1543111,-0.0669826 -0.1539965,-0.0768517z M-0.2900017,-0.1332904 L-0.2374538,-0.1332904 -0.2374538,-0.1332904 -0.2288476,-0.1329717 -0.2203912,-0.1313947 -0.2164032,-0.1297824 -0.2127384,-0.1275224 -0.2094396,-0.1247553 -0.2065659,-0.121549 -0.2065659,-0.121549 -0.1999447,-0.1118186 -0.1952974,-0.1010078 -0.1927009,-0.0895266 -0.1918225,-0.0777856 -0.1918225,-0.0777856 -0.1930719,-0.0640293 -0.1968523,-0.0507439 -0.1997463,-0.0444715 -0.2032375,-0.038502 -0.2075616,-0.0331145 -0.2125701,-0.0283517 -0.2125701,-0.0283517 -0.217347,-0.0250899 -0.2227225,-0.0229567 -0.2284246,-0.021992 -0.2342057,-0.0217472 -0.2900017,-0.0217472 -0.2900017,-0.1332904z M-0.2876961,0.0161456 L-0.2259126,0.0161456 -0.2259126,0.0161456 -0.2198652,0.0163166 -0.2139008,0.0172917 -0.2084051,0.019795 -0.2038307,0.0237508 -0.2038307,0.0237508 -0.1983826,0.0310166 -0.1945947,0.0392762 -0.1925051,0.0481126 -0.1918225,0.0571738 -0.1918225,0.0571738 -0.1926403,0.0663576 -0.1948061,0.0753148 -0.1987128,0.0836664 -0.2042977,0.090997 -0.2042977,0.090997 -0.2089602,0.0946936 -0.2145111,0.0968538 -0.2263666,0.0978016 -0.2876961,0.0978016 -0.2876961,0.0161456z" transform="matrix(1,0,0,-1,0.6731,0.3683)" fill="rgb(159,159,159)" fill-rule="nonzero" shaper:cutDepth="0.0000762" stroke-linecap="round" stroke-linejoin="round" /><path d="M0.543312,0.1058739 L0.543312,0.1058739 0.5530611,0.092836 0.5612568,0.0787657 0.5678793,0.0638956 0.572859,0.0483931 0.5763604,0.032494 0.5786387,0.0163693 0.5798793,0.0001369 0.580204,-0.0161433 0.580204,-0.0161433 0.5795413,-0.0401296 0.5785597,-0.0520908 0.5769034,-0.0639738 0.5744905,-0.0757291 0.571278,-0.0872895 0.567329,-0.098621 0.5626586,-0.1096742 0.5626586,-0.1096742 0.5564976,-0.1218444 0.5493209,-0.1334438 0.5409691,-0.1442255 0.5312116,-0.1537494 0.5257947,-0.1579 0.5200255,-0.1615335 0.5139282,-0.1645986 0.5075673,-0.1670557 0.5010195,-0.1689745 0.4943197,-0.1702529 0.4807173,-0.1711831 0.4283664,-0.1711831 0.4283664,-0.1711831 0.4229983,-0.170959 0.417715,-0.1700179 0.4127453,-0.1679898 0.4106006,-0.1663617 0.4088769,-0.1642994 0.4068014,-0.1593559 0.4058694,-0.15406 0.4057911,-0.1433328 0.4057508,0.1117446 0.4057508,0.1117446 0.4057646,0.1166463 0.4064399,0.1215004 0.4081625,0.1260859 0.4110419,0.1300461 0.4149864,0.1329452 0.4195769,0.1346608 0.4293084,0.1356943 0.479735,0.1356277 0.479735,0.1356277 0.4888008,0.1351918 0.497775,0.1338394 0.5065371,0.1314742 0.5149818,0.1281498 0.5229388,0.123785 0.5303448,0.1185381 0.5371683,0.1125553 0.543312,0.1058739z M0.4436033,0.0978016 L0.4436033,-0.1332904 0.480202,-0.1332904 0.480202,-0.1332904 0.4901801,-0.1327469 0.4950854,-0.1317789 0.4998304,-0.1302056 0.504265,-0.1278997 0.5082531,-0.1248849 0.5150259,-0.1175463 0.5150259,-0.1175463 0.5242067,-0.1039793 0.5314106,-0.0892661 0.5368127,-0.0738003 0.5405101,-0.0578386 0.5405101,-0.0578386 0.5418547,-0.0487695 0.5423443,-0.039617 0.542378,-0.0212801 0.542378,-0.0212801 0.5420064,0.0088754 0.5405394,0.0238764 0.5368409,0.0384943 0.5368409,0.0384943 0.5316813,0.0533996 0.5248162,0.0676002 0.5207074,0.0743377 0.5160759,0.0807231 0.5108087,0.0865997 0.5048189,0.0917309 0.5048189,0.0917309 0.4993125,0.0948341 0.4933045,0.0967947 0.4807173,0.0978016 0.4436033,0.0978016z" transform="matrix(1,0,0,-1,0.6731,0.3683)" fill="rgb(159,159,159)" fill-rule="nonzero" shaper:cutDepth="0.0000762" stroke-linecap="round" stroke-linejoin="round" /></svg>