<?xml version="1.0" encoding="utf-8"?>
<!-- Generator: Fusion 360, Shaper Origin Export Add-In, Version 1.6.10  -->
<svg xmlns="http://www.w3.org/2000/svg" xmlns:xlink="http://www.w3.org/1999/xlink" xmlns:shaper="http://www.shapertools.com/namespaces/shaper" shaper:fusionaddin="version:1.6.10" width="1.3462cm" height="0.7366cm" version="1.1" x="0cm" y="0cm" viewBox="0 0 1.3462 0.7366" enable-background="new 0 0 1.3462 0.7366" xml:space="preserve"><path d="M-0.6731,-0.3683 L-0.6731,0.3683 0.6731,0.3683 0.6731,-0.3683 -0.6731,-0.3683z" transform="matrix(1,0,0,-1,0.6731,0.3683)" fill="rgb(0,0,0)" shaper:cutDepth="0.000127" stroke-linecap="round" stroke-linejoin="round" /><path d="M0.2375228,0.0167819 L0.2856527,0.0167819 0.2856527,0.0167819 0.2913457,0.0167145 0.2969864,0.0159896 0.3023857,0.0141044 0.3069851,0.0107409 0.3100173,0.0059187 0.3116291,0.0004331 0.3123787,-0.0109093 0.3123069,-0.0887573 0.3123069,-0.0887573 0.3119577,-0.099594 0.3101597,-0.1102847 0.306517,-0.1204935 0.3011711,-0.129924 0.3011711,-0.129924 0.2934082,-0.1392149 0.2845251,-0.1474344 0.2746655,-0.154456 0.2640576,-0.1602884 0.2528879,-0.164955 0.2412685,-0.1683501 0.2293418,-0.1704137 0.217257,-0.1711626 0.217257,-0.1711626 0.2039952,-0.1704027 0.1909529,-0.1679086 0.1783294,-0.1637884 0.1663837,-0.1579856 0.1552041,-0.1508171 0.1449124,-0.1424207 0.1354971,-0.1330531 0.1269488,-0.1228833 0.1269488,-0.1228833 0.1180243,-0.1100707 0.1101384,-0.0965976 0.1034574,-0.0824868 0.0978497,-0.067916 0.0934413,-0.0529393 0.0902686,-0.0376525 0.0883029,-0.0221649 0.0875781,-0.0065675 0.0875781,-0.0065675 0.0888268,0.0141117 0.092268,0.0345421 0.0978866,0.0544812 0.1054823,0.0737561 0.1150471,0.0921323 0.1205614,0.1009052 0.1265838,0.1093371 0.1331123,0.1173837 0.1401308,0.1250066 0.1476172,0.1321702 0.1555428,0.1388453 0.1555428,0.1388453 0.1625242,0.1434672 0.16984,0.1475387 0.1774774,0.1509698 0.1853459,0.1538313 0.193394,0.1561399 0.2015883,0.157859 0.2098982,0.1588809 0.2182628,0.159249 0.2182628,0.159249 0.2296538,0.1586254 0.2408914,0.156679 0.2518419,0.1534841 0.2623797,0.1491195 0.2723364,0.1435527 0.2817442,0.137101 0.2905249,0.1298196 0.2987284,0.12189 0.2987284,0.12189 0.3037568,0.1159602 0.3082688,0.1096287 0.311676,0.1026398 0.3128098,0.0949484 0.3128098,0.0949484 0.311312,0.0866588 0.3095268,0.0828652 0.3070428,0.0793972 0.3040428,0.0763424 0.3005533,0.0740255 0.2966054,0.0726747 0.2924061,0.0718864 0.2924061,0.0718864 0.2859449,0.0732626 0.2830729,0.074662 0.2805358,0.0766949 0.2720023,0.0866864 0.2720023,0.0866864 0.2617038,0.0988127 0.2559135,0.1042729 0.249643,0.1091741 0.2428102,0.1132551 0.2354084,0.1161797 0.2276408,0.1179134 0.2196997,0.1184415 0.2196997,0.1184415 0.209128,0.1175721 0.1988631,0.11491 0.1892036,0.1105293 0.1803412,0.1047023 0.1723698,0.0977026 0.1652211,0.0898629 0.1588513,0.0813788 0.1531001,0.0724612 0.1531001,0.0724612 0.1473777,0.0637762 0.1423954,0.0546474 0.1381395,0.0451575 0.1346798,0.0353491 0.1319448,0.0253146 0.1299897,0.0150997 0.1288756,0.0047594 0.1284575,-0.0056335 0.1284575,-0.0056335 0.1291329,-0.0187949 0.1309937,-0.0318386 0.1340404,-0.044659 0.1380381,-0.0572156 0.1430416,-0.069406 0.1490212,-0.0811484 0.1560165,-0.0923143 0.1639486,-0.1028387 0.1639486,-0.1028387 0.1694242,-0.108815 0.1754181,-0.1142712 0.1818954,-0.1191437 0.1888824,-0.1232522 0.1963381,-0.1264318 0.2041015,-0.1287613 0.2121027,-0.1300568 0.2202026,-0.1303551 0.2202026,-0.1303551 0.2271015,-0.129982 0.2339093,-0.1288329 0.2405346,-0.1268595 0.2468314,-0.124027 0.25268,-0.120346 0.2579587,-0.1158865 0.2624371,-0.1106305 0.2661111,-0.1047785 0.2661111,-0.1047785 0.2689437,-0.0978666 0.2706022,-0.0905831 0.2715712,-0.0756832 0.2715712,-0.0240257 0.2355054,-0.0240975 0.2355054,-0.0240975 0.2261549,-0.0236871 0.217257,-0.0206489 0.217257,-0.0206489 0.2135733,-0.0172306 0.2107606,-0.0133217 0.2092101,-0.0087017 0.2083483,-0.0036937 0.2083483,-0.0036937 0.2093627,0.0021799 0.2118523,0.0075797 0.2160429,0.0117927 0.2212084,0.0147703 0.2212084,0.0147703 0.2292433,0.0166688 0.2375228,0.0167819z" transform="matrix(1,0,0,-1,0.6731,0.3683)" fill="rgb(159,159,159)" fill-rule="nonzero" shaper:cutDepth="0.0000762" stroke-linecap="round" stroke-linejoin="round" /><path d="M-0.2194842,-0.1711626 L-0.2194842,-0.1711626 -0.231469,-0.1702262 -0.243244,-0.1678187 -0.2546952,-0.1641633 -0.2657029,-0.1593329 -0.276191,-0.1534587 -0.2860551,-0.1465883 -0.2951501,-0.1387313 -0.3032545,-0.1298522 -0.3032545,-0.1298522 -0.3123352,-0.1153999 -0.3194973,-0.0999073 -0.3250678,-0.0837725 -0.3291868,-0.0672057 -0.3321165,-0.0503865 -0.3340536,-0.0334236 -0.3350927,-0.0163821 -0.3354408,0.0006888 -0.3354408,0.0006888 -0.3349632,0.018041 -0.3335985,0.035344 -0.3310626,0.0525142 -0.3273296,0.0694642 -0.3222167,0.0860482 -0.3153938,0.102002 -0.3067252,0.1170309 -0.2960701,0.1307269 -0.2960701,0.1307269 -0.2882457,0.1378253 -0.279796,0.1441641 -0.2708021,0.1497059 -0.2613588,0.1544409 -0.2515212,0.1582894 -0.2413835,0.1612599 -0.2309889,0.1631355 -0.2204537,0.1639188 -0.2204537,0.1639188 -0.2115562,0.1633751 -0.2027397,0.1620572 -0.1940803,0.1599424 -0.1856292,0.1571065 -0.1774293,0.15361 -0.1695307,0.149478 -0.1619933,0.1447182 -0.1548243,0.13942 -0.1548243,0.13942 -0.1475926,0.1327687 -0.1410503,0.1254359 -0.1351564,0.1175736 -0.1299347,0.1092495 -0.1253523,0.1005568 -0.1213979,0.091561 -0.1151153,0.0729462 -0.1107778,0.0537809 -0.1079796,0.0343309 -0.1064901,0.0147351 -0.1061139,-0.004915 -0.1061139,-0.004915 -0.1065534,-0.0234751 -0.1079419,-0.041986 -0.1105428,-0.0603658 -0.114594,-0.0784789 -0.1202911,-0.0961429 -0.127932,-0.1130519 -0.1325675,-0.1210939 -0.1377808,-0.1287742 -0.1498671,-0.142856 -0.1498671,-0.142856 -0.1571752,-0.1490807 -0.1650619,-0.1545556 -0.1733817,-0.1593477 -0.1821126,-0.1633378 -0.191136,-0.1666138 -0.2004329,-0.1690093 -0.2099017,-0.1706017 -0.2194842,-0.1711626z M-0.22049,-0.1303551 L-0.22049,-0.1303551 -0.2140026,-0.12984 -0.2076386,-0.1285687 -0.195491,-0.1239394 -0.1843762,-0.1172067 -0.1747252,-0.1085144 -0.1747252,-0.1085144 -0.1665175,-0.0971898 -0.1601447,-0.0847437 -0.1553707,-0.071596 -0.151877,-0.0580504 -0.1494658,-0.0442696 -0.1479555,-0.0303607 -0.1469215,-0.0024005 -0.1469215,-0.0024005 -0.147178,0.0122203 -0.1481891,0.0268067 -0.1501123,0.0413016 -0.1530584,0.0556221 -0.1573606,0.0695929 -0.1632738,0.0829596 -0.1709797,0.095375 -0.1806883,0.1062998 -0.1806883,0.1062998 -0.1894398,0.1129532 -0.1991537,0.1181078 -0.2095589,0.121674 -0.2204537,0.1231112 -0.2204537,0.1231112 -0.2267186,0.1225244 -0.2328803,0.1213126 -0.2447105,0.1170584 -0.255672,0.110903 -0.2652489,0.1027795 -0.2652489,0.1027795 -0.2737419,0.0920417 -0.2803152,0.0800332 -0.2852621,0.0672648 -0.288933,0.0540697 -0.291589,0.040633 -0.2933146,0.0270451 -0.2945614,-0.000317 -0.2945614,-0.000317 -0.2936435,-0.0269441 -0.2923323,-0.0402023 -0.2903017,-0.0533691 -0.2873514,-0.0663597 -0.2831818,-0.0790093 -0.2777306,-0.0911622 -0.2707091,-0.1024795 -0.2707091,-0.1024795 -0.2660408,-0.1082636 -0.2607976,-0.1135269 -0.2550101,-0.1181931 -0.2487783,-0.1222447 -0.2421292,-0.1255568 -0.2351403,-0.1281069 -0.2279013,-0.1297586 -0.22049,-0.1303551z" transform="matrix(1,0,0,-1,0.6731,0.3683)" fill="rgb(159,159,159)" fill-rule="nonzero" shaper:cutDepth="0.0000762" stroke-linecap="round" stroke-linejoin="round" /><path d="M0.4840147,-0.1711626 L0.4840147,-0.1711626 0.4720298,-0.1702262 0.4602548,-0.1678187 0.4488036,-0.1641633 0.4377959,-0.1593329 0.4273078,-0.1534587 0.4174437,-0.1465883 0.4083487,-0.1387313 0.4002443,-0.1298522 0.4002443,-0.1298522 0.3911636,-0.1153999 0.3840015,-0.0999073 0.3784311,-0.0837725 0.374312,-0.0672057 0.3713823,-0.0503865 0.3694452,-0.0334236 0.3684061,-0.0163821 0.368058,0.0006888 0.368058,0.0006888 0.3685357,0.018041 0.3699003,0.035344 0.3724362,0.0525142 0.3761692,0.0694642 0.3812821,0.0860482 0.388105,0.102002 0.3967736,0.1170309 0.4074287,0.1307269 0.4074287,0.1307269 0.4152531,0.1378253 0.4237028,0.1441641 0.4326968,0.1497059 0.44214,0.1544409 0.4519777,0.1582894 0.4621153,0.1612599 0.4725099,0.1631355 0.4830451,0.1639188 0.4830451,0.1639188 0.4919426,0.1633751 0.5007591,0.1620572 0.5094185,0.1599424 0.5178696,0.1571065 0.5260695,0.15361 0.5339681,0.149478 0.5415055,0.1447182 0.5486745,0.13942 0.5486745,0.13942 0.5559062,0.1327687 0.5624485,0.1254359 0.5683424,0.1175736 0.5735641,0.1092495 0.5781465,0.1005568 0.5821009,0.091561 0.5883835,0.0729462 0.592721,0.0537809 0.5955192,0.0343309 0.5970087,0.0147351 0.5973849,-0.004915 0.5973849,-0.004915 0.5969454,-0.0234751 0.5955569,-0.041986 0.592956,-0.0603658 0.5889048,-0.0784789 0.5832077,-0.0961429 0.5755668,-0.1130519 0.5709313,-0.1210939 0.5657181,-0.1287742 0.5536317,-0.142856 0.5536317,-0.142856 0.5463236,-0.1490807 0.5384369,-0.1545556 0.5301171,-0.1593477 0.5213862,-0.1633378 0.5123628,-0.1666138 0.5030659,-0.1690093 0.4935971,-0.1706017 0.4840147,-0.1711626z M0.4830088,-0.1303551 L0.4830088,-0.1303551 0.4894963,-0.12984 0.4958602,-0.1285687 0.5080078,-0.1239394 0.5191226,-0.1172067 0.5287736,-0.1085144 0.5287736,-0.1085144 0.5369813,-0.0971898 0.5433541,-0.0847437 0.5481281,-0.071596 0.5516218,-0.0580504 0.554033,-0.0442696 0.5555433,-0.0303607 0.5565773,-0.0024005 0.5565773,-0.0024005 0.5563208,0.0122203 0.5553098,0.0268067 0.5533865,0.0413016 0.5504404,0.0556221 0.5461382,0.0695929 0.5402251,0.0829596 0.5325192,0.095375 0.5228105,0.1062998 0.5228105,0.1062998 0.514059,0.1129532 0.5043451,0.1181078 0.49394,0.121674 0.4830451,0.1231112 0.4830451,0.1231112 0.4767802,0.1225244 0.4706185,0.1213126 0.4587883,0.1170584 0.4478268,0.110903 0.4382499,0.1027795 0.4382499,0.1027795 0.4297569,0.0920417 0.4231836,0.0800332 0.4182367,0.0672648 0.4145659,0.0540697 0.4119098,0.040633 0.4101842,0.0270451 0.4089374,-0.000317 0.4089374,-0.000317 0.4098553,-0.0269441 0.4111665,-0.0402023 0.4131971,-0.0533691 0.4161475,-0.0663597 0.420317,-0.0790093 0.4257682,-0.0911622 0.4327897,-0.1024795 0.4327897,-0.1024795 0.4374581,-0.1082636 0.4427012,-0.1135269 0.4484887,-0.1181931 0.4547205,-0.1222447 0.4613696,-0.1255568 0.4683585,-0.1281069 0.4755975,-0.1297586 0.4830088,-0.1303551z" transform="matrix(1,0,0,-1,0.6731,0.3683)" fill="rgb(159,159,159)" fill-rule="nonzero" shaper:cutDepth="0.0000762" stroke-linecap="round" stroke-linejoin="round" /><path d="M-0.4062073,-0.1711626 L-0.4062073,-0.1711626 -0.4126635,-0.1702282 -0.4157011,-0.1691721 -0.4185237,-0.1675556 -0.4233632,-0.1631664 -0.4273297,-0.1580379 -0.5750413,0.0701372 -0.5750413,-0.1475977 -0.5750413,-0.1475977 -0.5762002,-0.1563533 -0.5776442,-0.1605544 -0.579943,-0.1643529 -0.5831549,-0.16746 -0.5870379,-0.1696105 -0.5912971,-0.1706902 -0.5957325,-0.1711626 -0.5957325,-0.1711626 -0.601183,-0.1704144 -0.6060927,-0.1686123 -0.6102159,-0.1652773 -0.613909,-0.1611044 -0.613909,-0.1611044 -0.6157558,-0.1529301 -0.6158489,-0.1445275 -0.6159207,0.1336725 -0.6159207,0.1336725 -0.6157904,0.1404512 -0.6149149,0.1471792 -0.6149149,0.1471792 -0.6120073,0.1521997 -0.6078007,0.1561181 -0.6024481,0.1583491 -0.5967383,0.159249 -0.5967383,0.159249 -0.5901072,0.1582589 -0.5870588,0.1570716 -0.5842863,0.1552441 -0.57954,0.1504743 -0.5755308,0.1451948 -0.4273297,-0.0814791 -0.4274014,0.1328104 -0.4274014,0.1328104 -0.4267829,0.142505 -0.4257268,0.1472527 -0.4237241,0.151725 -0.4205585,0.1554144 -0.4163099,0.157843 -0.4115733,0.1589628 -0.4067103,0.159249 -0.4067103,0.159249 -0.4020775,0.1590231 -0.3976514,0.1580415 -0.3936711,0.1557432 -0.3905064,0.1523466 -0.3884387,0.1482502 -0.3872852,0.1437936 -0.3865221,0.1346867 -0.3865939,-0.1481006 -0.3865939,-0.1481006 -0.387612,-0.1565977 -0.388898,-0.1607073 -0.391009,-0.1644527 -0.3940473,-0.1675449 -0.3977774,-0.1696874 -0.4019,-0.1707366 -0.4062073,-0.1711626z" transform="matrix(1,0,0,-1,0.6731,0.3683)" fill="rgb(159,159,159)" fill-rule="nonzero" shaper:cutDepth="0.0000762" stroke-linecap="round" stroke-linejoin="round" /></svg>