<?xml version="1.0" encoding="utf-8"?>
<!-- Generator: Fusion 360, Shaper Origin Export Add-In, Version 1.6.10  -->
<svg xmlns="http://www.w3.org/2000/svg" xmlns:xlink="http://www.w3.org/1999/xlink" xmlns:shaper="http://www.shapertools.com/namespaces/shaper" shaper:fusionaddin="version:1.6.10" width="1.3462cm" height="0.7366cm" version="1.1" x="0cm" y="0cm" viewBox="0 0 1.3462 0.7366" enable-background="new 0 0 1.3462 0.7366" xml:space="preserve"><path d="M-0.6731,-0.3683 L-0.6731,0.3683 0.6731,0.3683 0.6731,-0.3683 -0.6731,-0.3683z" transform="matrix(1,0,0,-1,0.6731,0.3683)" fill="rgb(0,0,0)" shaper:cutDepth="0.000127" stroke-linecap="round" stroke-linejoin="round" /><path d="M0.0530929,-0.1711626 L0.0530929,-0.1711626 0.0474904,-0.1704558 0.0420631,-0.1687545 0.037471,-0.1655298 0.0339105,-0.1611044 0.0339105,-0.1611044 0.0326231,-0.1536891 0.0324735,-0.1461537 0.0324735,0.0609266 -0.0282348,-0.0399032 -0.0282348,-0.0399032 -0.0323254,-0.0463544 -0.0370293,-0.0523729 -0.0400463,-0.0547966 -0.0434888,-0.056449 -0.0510813,-0.0572895 -0.0510813,-0.0572895 -0.057921,-0.0564954 -0.0610137,-0.0552726 -0.0637688,-0.0532898 -0.0683104,-0.0480721 -0.0719655,-0.0423653 -0.1336303,0.0609266 -0.1336303,-0.1452269 -0.1336303,-0.1452269 -0.1338949,-0.1527541 -0.1356419,-0.1600986 -0.1356419,-0.1600986 -0.1389305,-0.164851 -0.1433988,-0.1684054 -0.1488483,-0.1703472 -0.154537,-0.1711626 -0.154537,-0.1711626 -0.1593762,-0.1708612 -0.163983,-0.1695415 -0.1679825,-0.1667794 -0.1708918,-0.1629303 -0.1727694,-0.1584655 -0.1738664,-0.1537715 -0.1744379,-0.1441673 -0.1745097,0.1323793 -0.1745097,0.1323793 -0.173832,0.1419065 -0.1725699,0.1465247 -0.1703938,0.1508127 -0.167183,0.1543667 -0.1630242,0.1567895 -0.1583915,0.1579387 -0.153603,0.1582432 -0.153603,0.1582432 -0.147607,0.1572474 -0.1449474,0.1560257 -0.1426211,0.1541483 -0.1387788,0.1493963 -0.1355746,0.1443546 -0.0505817,0.0033215 0.0344134,0.1461734 0.0344134,0.1461734 0.0379709,0.1512712 0.0423505,0.1558274 0.0449609,0.1575282 0.0478387,0.1585728 0.0540987,0.159249 0.0540987,0.159249 0.0583103,0.1591085 0.0624079,0.1583686 0.0662218,0.1565589 0.0693567,0.1537327 0.0714714,0.1501117 0.0726603,0.1460578 0.0732811,0.1377256 0.0732093,-0.1486035 0.0732093,-0.1486035 0.0720478,-0.1570447 0.0706267,-0.1610876 0.0683809,-0.164736 0.0652591,-0.1677113 0.0614965,-0.1697549 0.0573778,-0.1707548 0.0530929,-0.1711626z" transform="matrix(1,0,0,-1,0.6731,0.3683)" fill="rgb(159,159,159)" fill-rule="nonzero" shaper:cutDepth="0.0000762" stroke-linecap="round" stroke-linejoin="round" /><path d="M0.1244342,-0.148509 L0.1243624,0.1356123 0.1243624,0.1356123 0.1246733,0.1434581 0.1267332,0.1510588 0.1267332,0.1510588 0.1300163,0.1544274 0.1337309,0.1570069 0.1380717,0.1584408 0.1427545,0.159249 0.1427545,0.159249 0.1468535,0.1589195 0.1507444,0.1579339 0.1542067,0.1558097 0.1569695,0.1527575 0.1588327,0.1491369 0.1599143,0.1452144 0.1606437,0.1371498 0.1606437,-0.1485317 0.1606437,-0.1485317 0.1603896,-0.1558396 0.1587039,-0.1629724 0.1587039,-0.1629724 0.1554639,-0.1663757 0.1517763,-0.1689671 0.1474417,-0.1703847 0.1427545,-0.1711626 0.1427545,-0.1711626 0.1375808,-0.1703455 0.1329645,-0.1685163 0.1291599,-0.1652134 0.1257993,-0.1611044 0.1257993,-0.1611044 0.12439,-0.154896 0.1244342,-0.148509z" transform="matrix(1,0,0,-1,0.6731,0.3683)" fill="rgb(159,159,159)" fill-rule="nonzero" shaper:cutDepth="0.0000762" stroke-linecap="round" stroke-linejoin="round" /><path d="M-0.3431214,0.0526238 L-0.2885265,0.1461734 -0.2885265,0.1461734 -0.2851774,0.1512194 -0.2810199,0.1557748 -0.2785169,0.1574909 -0.2757335,0.1585505 -0.2696314,0.159249 -0.2696314,0.159249 -0.2616158,0.1581429 -0.257858,0.1566509 -0.2544355,0.154414 -0.2515218,0.1515129 -0.2494214,0.148064 -0.2483188,0.1442068 -0.2477908,0.1401385 -0.2477908,0.1401385 -0.2498202,0.1315829 -0.2537342,0.1236783 -0.3187882,0.0105915 -0.2324161,-0.1370366 -0.2324161,-0.1370366 -0.2286043,-0.1438642 -0.226956,-0.1515491 -0.226956,-0.1515491 -0.2284211,-0.1593934 -0.2303167,-0.1629032 -0.2330049,-0.1659251 -0.2362598,-0.1683086 -0.2399066,-0.1699301 -0.2477908,-0.1711626 -0.2477908,-0.1711626 -0.2545304,-0.1700776 -0.2576338,-0.1688446 -0.2604559,-0.1669697 -0.2652209,-0.1620511 -0.2691287,-0.1565367 -0.3426248,-0.03044 -0.4166248,-0.1560753 -0.4166248,-0.1560753 -0.4207607,-0.1617757 -0.425748,-0.1668941 -0.4286888,-0.1688462 -0.4319259,-0.1701129 -0.4389683,-0.1711626 -0.4389683,-0.1711626 -0.4465995,-0.1698516 -0.4501101,-0.1682305 -0.4532578,-0.1659007 -0.4559014,-0.1629976 -0.4578059,-0.1596346 -0.4593721,-0.1520521 -0.4593721,-0.1520521 -0.4571366,-0.1425702 -0.4523723,-0.1340194 -0.3664613,0.0105915 -0.4335082,0.1256259 -0.4335082,0.1256259 -0.4367395,0.1325634 -0.4380343,0.1401385 -0.4380343,0.1401385 -0.4363944,0.1479412 -0.4343436,0.1513496 -0.4315097,0.1542422 -0.4281787,0.1565117 -0.4245081,0.1580554 -0.4166248,0.159249 -0.4166248,0.159249 -0.4094997,0.1580615 -0.4063368,0.1566097 -0.40357,0.1543789 -0.3990203,0.148719 -0.3952639,0.1426929 -0.3431214,0.0526238z" transform="matrix(1,0,0,-1,0.6731,0.3683)" fill="rgb(159,159,159)" fill-rule="nonzero" shaper:cutDepth="0.0000762" stroke-linecap="round" stroke-linejoin="round" /><path d="M0.3083554,-0.1435027 L0.3083554,0.1185132 0.241253,0.1184415 0.241253,0.1184415 0.2317102,0.1193357 0.2270964,0.1206699 0.2228232,0.1228973 0.2192524,0.1261172 0.2167418,0.130239 0.2154442,0.1348465 0.214958,0.1396356 0.214958,0.1396356 0.2154121,0.1446304 0.2170267,0.1492754 0.2202015,0.1531636 0.2243691,0.1558923 0.2290426,0.1576234 0.2338986,0.1586734 0.243798,0.1593208 0.4171277,0.159249 0.4171277,0.159249 0.4265603,0.1583416 0.4311108,0.1569799 0.4353215,0.1547426 0.4388227,0.1515306 0.441259,0.1474283 0.4425148,0.1428604 0.4429916,0.1381268 0.4429916,0.1381268 0.4425203,0.1333292 0.4410523,0.1288062 0.4381971,0.1249123 0.4343453,0.1220454 0.4299198,0.1201752 0.4252524,0.119097 0.4157068,0.1185132 0.349163,0.1185132 0.349163,-0.1460171 0.349163,-0.1460171 0.3489282,-0.1534059 0.3471514,-0.1606015 0.3471514,-0.1606015 0.3438498,-0.1651297 0.3395082,-0.1686209 0.3342431,-0.1705196 0.3286874,-0.1711626 0.3286874,-0.1711626 0.3222804,-0.1700827 0.316301,-0.1674671 0.3137631,-0.1654088 0.3117368,-0.162906 0.3087865,-0.1570812 0.3087865,-0.1570812 0.3083554,-0.1435027z" transform="matrix(1,0,0,-1,0.6731,0.3683)" fill="rgb(159,159,159)" fill-rule="nonzero" shaper:cutDepth="0.0000762" stroke-linecap="round" stroke-linejoin="round" /></svg>