<?xml version="1.0" encoding="utf-8"?>
<!-- Generator: Fusion 360, Shaper Origin Export Add-In, Version 1.6.10  -->
<svg xmlns="http://www.w3.org/2000/svg" xmlns:xlink="http://www.w3.org/1999/xlink" xmlns:shaper="http://www.shapertools.com/namespaces/shaper" shaper:fusionaddin="version:1.6.10" width="1.3462cm" height="0.7366cm" version="1.1" x="0cm" y="0cm" viewBox="0 0 1.3462 0.7366" enable-background="new 0 0 1.3462 0.7366" xml:space="preserve"><path d="M-0.6731,-0.3683 L-0.6731,0.3683 0.6731,0.3683 0.6731,-0.3683 -0.6731,-0.3683z" transform="matrix(1,0,0,-1,0.6731,0.3683)" fill="rgb(0,0,0)" shaper:cutDepth="0.000127" stroke-linecap="round" stroke-linejoin="round" /><path d="M-0.5769351,-0.1595752 L-0.5769351,-0.1595752 -0.5795595,-0.1647178 -0.5838233,-0.1686025 -0.5891883,-0.1707072 -0.5949475,-0.1711831 -0.5949475,-0.1711831 -0.6019082,-0.1700928 -0.6081286,-0.1667925 -0.6106672,-0.164337 -0.6126194,-0.1613933 -0.6138201,-0.1580723 -0.6142941,-0.1545717 -0.6142941,-0.1545717 -0.6128605,-0.1464991 -0.6105611,-0.1386041 -0.532171,0.1224853 -0.532171,0.1224853 -0.5297259,0.1281468 -0.5255321,0.1326508 -0.522858,0.134199 -0.519905,0.1351208 -0.5137584,0.1356277 -0.5137584,0.1356277 -0.5065695,0.134832 -0.5032495,0.1333766 -0.5004024,0.1311337 -0.4981685,0.1282788 -0.4964477,0.1250826 -0.4938967,0.1182943 -0.4146236,-0.1418296 -0.4146236,-0.1418296 -0.4130039,-0.1476507 -0.4122886,-0.1536378 -0.4122886,-0.1536378 -0.4126706,-0.1572752 -0.4137527,-0.1607679 -0.415634,-0.1639028 -0.4181237,-0.1665815 -0.4211142,-0.1686833 -0.4244915,-0.1700921 -0.431702,-0.1711831 -0.431702,-0.1711831 -0.4379762,-0.1705859 -0.4436463,-0.1678775 -0.4477395,-0.1631038 -0.4500899,-0.1572618 -0.461618,-0.119948 -0.5649098,-0.119948 -0.5769351,-0.1595752z M-0.5132639,0.0507291 L-0.5529206,-0.0820552 -0.4736072,-0.0820552 -0.5132639,0.0507291z" transform="matrix(1,0,0,-1,0.6731,0.3683)" fill="rgb(159,159,159)" fill-rule="nonzero" shaper:cutDepth="0.0000762" stroke-linecap="round" stroke-linejoin="round" /><path d="M0.0497008,-0.1711831 L0.0497008,-0.1711831 0.0397989,-0.1704147 0.030027,-0.1686409 0.0205584,-0.1656484 0.0115257,-0.1615186 0.0030249,-0.1563852 -0.0047584,-0.1502188 -0.0118126,-0.1432255 -0.0181853,-0.135608 -0.0237889,-0.1274086 -0.028611,-0.1187244 -0.0326229,-0.1096403 -0.0358357,-0.1002403 -0.0382868,-0.0906172 -0.0400183,-0.0808346 -0.0410968,-0.0709631 -0.0415619,-0.0610408 -0.0415619,-0.0610408 -0.041281,-0.0525372 -0.0406597,-0.0483206 -0.0392937,-0.044296 -0.0392937,-0.044296 -0.036262,-0.0399219 -0.0320032,-0.0367232 -0.0270338,-0.0348326 -0.0217483,-0.0341557 -0.0217483,-0.0341557 -0.0167721,-0.0347252 -0.0120892,-0.0364577 -0.0079557,-0.0393133 -0.0051369,-0.0434287 -0.0051369,-0.0434287 -0.0040421,-0.0479495 -0.0037001,-0.0525977 -0.0033356,-0.0619081 -0.0033356,-0.0619081 -0.0024557,-0.074107 -0.0001907,-0.0861237 0.0036987,-0.0977117 0.0094201,-0.1085133 0.0168519,-0.1182132 0.0212584,-0.1224573 0.0261441,-0.1261302 0.0314905,-0.1291076 0.0371963,-0.1312951 0.0431452,-0.1327275 0.0492338,-0.1332904 0.0492338,-0.1332904 0.0571365,-0.1324804 0.0647693,-0.1302711 0.0718945,-0.1267612 0.0783649,-0.1221466 0.0840781,-0.1166277 0.088938,-0.1103378 0.0929906,-0.1035058 0.0962662,-0.096265 0.0962662,-0.096265 0.099598,-0.0852191 0.1014539,-0.0738207 0.1027775,-0.0507813 0.1027373,0.111411 0.1027373,0.111411 0.1033296,0.120287 0.104316,0.1246294 0.1061295,0.1286885 0.1090089,0.1320772 0.1128636,0.1342793 0.117173,0.1353827 0.1216169,0.1356277 0.1216169,0.1356277 0.1260123,0.135394 0.1302976,0.1343987 0.1341176,0.1322215 0.1370635,0.1289639 0.1389263,0.124978 0.1399449,0.1206943 0.1405896,0.1119194 0.1405633,-0.0563709 0.1405633,-0.0563709 0.1392487,-0.0767517 0.1376856,-0.0868486 0.135486,-0.0968246 0.1325273,-0.1066019 0.1287597,-0.1160978 0.1241953,-0.1252365 0.1188028,-0.1339127 0.1125567,-0.1419953 0.1054772,-0.1493589 0.0976169,-0.1558836 0.0889734,-0.1613214 0.0796839,-0.165571 0.0699356,-0.168617 0.0598914,-0.1704791 0.0497008,-0.1711831z" transform="matrix(1,0,0,-1,0.6731,0.3683)" fill="rgb(159,159,159)" fill-rule="nonzero" shaper:cutDepth="0.0000762" stroke-linecap="round" stroke-linejoin="round" /><path d="M0.3792419,0.1185493 L0.3792419,0.1185493 0.3853213,0.1119174 0.3907931,0.1047707 0.3956019,0.0971691 0.3998203,0.0892193 0.4065103,0.072521 0.4113452,0.0551897 0.414577,0.0374881 0.416674,0.0196145 0.4177689,0.0016514 0.4180686,-0.0163434 0.4180686,-0.0163434 0.4177403,-0.0335227 0.4167601,-0.0506774 0.4148136,-0.067749 0.411774,-0.0846588 0.4073443,-0.1012589 0.4012214,-0.1173111 0.3974366,-0.1250309 0.3931069,-0.1324586 0.3828444,-0.1462327 0.3828444,-0.1462327 0.3775494,-0.1515396 0.3718015,-0.1563525 0.3655583,-0.1605017 0.3589749,-0.1640898 0.3520621,-0.1669876 0.3449159,-0.1692548 0.3375527,-0.1706612 0.3300748,-0.1711831 0.3300748,-0.1711831 0.3217584,-0.1705496 0.313592,-0.1688441 0.3056793,-0.1662048 0.2980692,-0.1627878 0.2908148,-0.1586689 0.2839469,-0.1539332 0.2775506,-0.1485789 0.2716347,-0.1426969 0.2716347,-0.1426969 0.2662976,-0.1359151 0.2616406,-0.1286499 0.2542227,-0.113075 0.2488305,-0.0966834 0.2450038,-0.079852 0.2422703,-0.0628064 0.2404766,-0.0456369 0.2392124,-0.0111398 0.2392124,-0.0111398 0.2395729,0.0048567 0.2406932,0.0208131 0.242606,0.036702 0.2455206,0.0524286 0.2496182,0.067899 0.2551471,0.0829036 0.2622621,0.0972395 0.2712344,0.1104771 0.2712344,0.1104771 0.2769024,0.1166154 0.2831903,0.1221153 0.2899571,0.1270165 0.2971666,0.1312379 0.3047618,0.1347177 0.3126575,0.137449 0.3208262,0.1391993 0.3291448,0.1399639 0.3291408,0.1398973 0.3291408,0.1398973 0.3360849,0.1394447 0.3429399,0.1382391 0.3496399,0.1363607 0.3561279,0.1338395 0.3623811,0.1307866 0.3683253,0.1271652 0.3792419,0.1185493z M0.3291448,0.1020712 L0.3291408,0.1020046 0.3291408,0.1020046 0.3241727,0.1013753 0.3193804,0.0999066 0.3105447,0.0952098 0.30276,0.0889166 0.2963183,0.081257 0.2963183,0.081257 0.2906172,0.0704532 0.2864187,0.0589622 0.2832016,0.0471733 0.280835,0.0351749 0.2780196,0.0108926 0.2771718,-0.0135415 0.2771718,-0.0135415 0.2780278,-0.0396867 0.2809721,-0.0656785 0.2835581,-0.0785037 0.2871283,-0.0910859 0.2919763,-0.1032404 0.2986532,-0.1144775 0.2986532,-0.1144775 0.3046116,-0.1214385 0.3115872,-0.1273639 0.3154862,-0.1297867 0.3196965,-0.1315775 0.3241187,-0.1328009 0.3286739,-0.1332904 0.3286739,-0.1332904 0.3337694,-0.1326795 0.3386762,-0.1311657 0.3476375,-0.1261838 0.3552708,-0.1193358 0.3614297,-0.1111419 0.3614297,-0.1111419 0.3670687,-0.1001202 0.371312,-0.0884768 0.3744858,-0.0765089 0.376782,-0.0643328 0.3793847,-0.0397026 0.3801092,-0.0149425 0.3801092,-0.0149425 0.3793319,0.0086625 0.3767542,0.0321357 0.3745853,0.0437429 0.3716454,0.0551805 0.3678218,0.0663544 0.3628307,0.0770541 0.3628307,0.0770541 0.356627,0.086023 0.3488907,0.0937 0.3444767,0.0969083 0.3397006,0.099543 0.3345479,0.1013385 0.3291448,0.1020712z" transform="matrix(1,0,0,-1,0.6731,0.3683)" fill="rgb(159,159,159)" fill-rule="nonzero" shaper:cutDepth="0.0000762" stroke-linecap="round" stroke-linejoin="round" /><path d="M-0.302189,0.1356277 L-0.302189,0.1356277 -0.2930292,0.135106 -0.2841061,0.1329582 -0.2756491,0.1293954 -0.2677325,0.1247529 -0.2604754,0.1191339 -0.2539759,0.1126526 -0.2483739,0.1053841 -0.2436154,0.0975348 -0.2436154,0.0975348 -0.2398349,0.0894964 -0.2369072,0.0811151 -0.2348051,0.0724799 -0.2339421,0.0636449 -0.2339421,0.0636449 -0.2350048,0.0560925 -0.2364455,0.0525578 -0.2385987,0.0494034 -0.2414915,0.0469142 -0.244873,0.0451437 -0.2523547,0.0436978 -0.2523547,0.0436978 -0.2571395,0.0441293 -0.2617201,0.0455515 -0.2657,0.0482386 -0.2686326,0.0520369 -0.2686326,0.0520369 -0.2714345,0.0622439 -0.2714345,0.0622439 -0.2753034,0.0753113 -0.2781541,0.0815046 -0.2818759,0.0872171 -0.2867083,0.0920185 -0.2926091,0.0954172 -0.2991362,0.0973807 -0.3059235,0.0980124 -0.3078143,0.0980124 -0.3267392,0.0975348 -0.3267392,0.0975348 -0.3316438,0.0968076 -0.3364222,0.0954885 -0.3410288,0.0936409 -0.3452186,0.090997 -0.3452186,0.090997 -0.3486324,0.0873933 -0.3514888,0.0833289 -0.3538776,0.0789795 -0.3557162,0.0743646 -0.3580916,0.0647345 -0.3588946,0.0548388 -0.3588946,0.0548388 -0.3582848,0.0467241 -0.3565712,0.0387718 -0.3536108,0.0311917 -0.3494214,0.0242178 -0.3494214,0.0242178 -0.3454678,0.0199767 -0.3405095,0.0169238 -0.3351563,0.0146883 -0.3295595,0.0131141 -0.2889132,0.0028698 -0.2889132,0.0028698 -0.2751958,-0.0019221 -0.2625292,-0.0090352 -0.2567672,-0.01347 -0.2514035,-0.0183721 -0.2422467,-0.0296538 -0.2384445,-0.0358497 -0.2352162,-0.0423631 -0.2302606,-0.0560182 -0.2275189,-0.0702912 -0.226537,-0.0847904 -0.226537,-0.0847904 -0.227796,-0.1009581 -0.2292464,-0.1089422 -0.2313425,-0.1167787 -0.2341541,-0.1243885 -0.2376404,-0.1317151 -0.2418741,-0.1386339 -0.2468148,-0.1450687 -0.2523543,-0.1509964 -0.2585241,-0.1562625 -0.2652723,-0.160765 -0.2724802,-0.1644867 -0.2800569,-0.1673857 -0.2879228,-0.1693715 -0.2959396,-0.1706135 -0.3040326,-0.1711831 -0.3282069,-0.1716501 -0.3282069,-0.1716501 -0.3359457,-0.17128 -0.3436124,-0.1701696 -0.3511357,-0.1683206 -0.3584187,-0.1656803 -0.3653537,-0.1622284 -0.3718259,-0.1579718 -0.3777518,-0.1529819 -0.3831091,-0.1473859 -0.3878628,-0.1412687 -0.3919528,-0.1346893 -0.3953267,-0.1277158 -0.3980114,-0.1204481 -0.4000711,-0.1129798 -0.4015156,-0.1053676 -0.4027247,-0.0899273 -0.4027247,-0.0899273 -0.4017543,-0.0805958 -0.4004685,-0.0760692 -0.3983913,-0.0718655 -0.3954066,-0.0682327 -0.3915408,-0.0655794 -0.3871037,-0.0640406 -0.3824441,-0.0634424 -0.3824441,-0.0634424 -0.3782605,-0.0638511 -0.3742555,-0.0651179 -0.3708036,-0.06751 -0.3682387,-0.0708313 -0.3665313,-0.0746762 -0.3654761,-0.0787443 -0.3648988,-0.0871254 -0.3648988,-0.0871254 -0.3645526,-0.0956268 -0.363274,-0.1040352 -0.3606892,-0.11214 -0.3567615,-0.1196884 -0.3514148,-0.1262881 -0.3446428,-0.1314032 -0.3407373,-0.1330794 -0.3366242,-0.1341654 -0.3281413,-0.1344143 -0.3054579,-0.1344246 -0.3054579,-0.1344246 -0.298715,-0.1340126 -0.2920948,-0.1327024 -0.2858509,-0.1301174 -0.2804407,-0.1260855 -0.2804407,-0.1260855 -0.2765862,-0.1219068 -0.2732535,-0.1173023 -0.2683148,-0.1070728 -0.2653659,-0.0961028 -0.264363,-0.0847904 -0.264363,-0.0847904 -0.2652449,-0.0737371 -0.2679522,-0.0629839 -0.2724352,-0.0528479 -0.2754472,-0.0481886 -0.2790397,-0.0439624 -0.2790397,-0.0439624 -0.2828308,-0.0405333 -0.287274,-0.0379813 -0.2969418,-0.0346703 -0.3376133,-0.0244823 -0.3376133,-0.0244823 -0.3528301,-0.0196659 -0.3600387,-0.0162356 -0.3667667,-0.0119404 -0.3667667,-0.0119404 -0.3738417,-0.0055965 -0.379948,0.0016884 -0.3850396,0.0097115 -0.3891684,0.0182743 -0.3924187,0.0272045 -0.3947429,0.0364223 -0.3961852,0.0458155 -0.3967206,0.0553058 -0.3967206,0.0553058 -0.3955998,0.0697444 -0.3924354,0.0838746 -0.3899774,0.0906912 -0.3868973,0.0972483 -0.3832152,0.103489 -0.3789277,0.1093287 -0.374062,0.114697 -0.3686859,0.1195539 -0.3628333,0.1238242 -0.3565368,0.1274077 -0.3498636,0.1302283 -0.3429255,0.1323149 -0.3358183,0.1337212 -0.3286141,0.1344934 -0.3045053,0.1356943 -0.302189,0.1356277z" transform="matrix(1,0,0,-1,0.6731,0.3683)" fill="rgb(159,159,159)" fill-rule="nonzero" shaper:cutDepth="0.0000762" stroke-linecap="round" stroke-linejoin="round" /><path d="M-0.1980935,-0.1711831 L-0.1980935,-0.1711831 -0.2022485,-0.1710333 -0.2063135,-0.170179 -0.2100774,-0.1684203 -0.2131783,-0.1656551 -0.215408,-0.1621589 -0.2166968,-0.1581996 -0.2173998,-0.1499373 -0.2174401,0.1078086 -0.2174401,0.1078086 -0.2175053,0.1137492 -0.2169317,0.1196553 -0.2153084,0.125371 -0.2138601,0.1279685 -0.211902,0.1302086 -0.2068316,0.1332725 -0.2011038,0.1348544 -0.1892713,0.1356943 -0.1296464,0.1356277 -0.1296464,0.1356277 -0.1213727,0.1351867 -0.113185,0.133924 -0.1051526,0.1318942 -0.0973979,0.1289808 -0.0900735,0.1251075 -0.0832305,0.1204407 -0.0770033,0.1149757 -0.0713972,0.1088753 -0.0664831,0.1022068 -0.0623039,0.0950517 -0.0588565,0.0875193 -0.0561467,0.0796886 -0.0541323,0.0716534 -0.0527347,0.0634849 -0.0515261,0.0469668 -0.0515261,0.0469668 -0.0521056,0.0359894 -0.0536381,0.0251053 -0.0563365,0.0144492 -0.0601786,0.0041505 -0.0651348,-0.0056602 -0.0711609,-0.0148526 -0.0783541,-0.0231634 -0.0865501,-0.0304865 -0.0865501,-0.0304865 -0.0914504,-0.0338564 -0.0966832,-0.0366849 -0.1021337,-0.0390597 -0.1078271,-0.0407849 -0.1195584,-0.0426953 -0.131441,-0.0430952 -0.1795876,-0.0430952 -0.1796141,-0.1472334 -0.1796141,-0.1472334 -0.1801626,-0.1560224 -0.1810667,-0.1603304 -0.1827539,-0.1644029 -0.1855929,-0.1677459 -0.1894128,-0.1699291 -0.1936963,-0.1709417 -0.1980935,-0.1711831z M-0.1795876,-0.0052024 L-0.1287124,-0.0052024 -0.1287124,-0.0052024 -0.1197028,-0.0040857 -0.1112379,-0.0008198 -0.1039532,0.0046017 -0.0982613,0.0116797 -0.0940777,0.0197588 -0.0913404,0.0284337 -0.0899219,0.0374197 -0.0893521,0.0464998 -0.0893521,0.0464998 -0.0898558,0.0558252 -0.091354,0.0650385 -0.0942364,0.0739197 -0.0987178,0.0821135 -0.1049743,0.0890221 -0.1087185,0.0918052 -0.1128271,0.0940202 -0.1216907,0.0968894 -0.1309781,0.0978016 -0.1795876,0.0978016 -0.1795876,-0.0052024z" transform="matrix(1,0,0,-1,0.6731,0.3683)" fill="rgb(159,159,159)" fill-rule="nonzero" shaper:cutDepth="0.0000762" stroke-linecap="round" stroke-linejoin="round" /><path d="M0.5826057,0.1356277 L0.5826057,0.1356277 0.5869087,0.1354012 0.5911269,0.1345234 0.5949321,0.1325082 0.5979478,0.1294458 0.5998665,0.1255887 0.6009168,0.1214078 0.6015784,0.1128198 0.601552,-0.1497684 0.601552,-0.1497684 0.6006774,-0.1578001 0.5994107,-0.1616418 0.5974441,-0.1651772 0.5945978,-0.1680442 0.591026,-0.1699355 0.587112,-0.1709495 0.5830727,-0.1711831 0.5830727,-0.1711831 0.5775576,-0.1706838 0.5724366,-0.1685897 0.5682404,-0.1649862 0.5651496,-0.1603898 0.4649513,0.039871 0.4649248,-0.1493014 0.4649248,-0.1493014 0.4639496,-0.1575711 0.4626336,-0.1615284 0.4604913,-0.1651001 0.4574793,-0.1679778 0.4537835,-0.1698987 0.4497373,-0.170894 0.4455782,-0.1711831 0.4455782,-0.1711831 0.4411027,-0.1709334 0.4367669,-0.1698068 0.4329489,-0.167471 0.4301832,-0.1639616 0.4285354,-0.1597898 0.4276396,-0.1553986 0.4271391,-0.1464505 0.4270988,0.111878 0.4270988,0.111878 0.427436,0.1217869 0.4285711,0.1266056 0.431702,0.1304241 0.431702,0.1304241 0.4344326,0.1327558 0.4375921,0.1344611 0.4410612,0.1353837 0.4446442,0.1356277 0.4446442,0.1356277 0.4504544,0.1352261 0.4558022,0.132929 0.460008,0.1289063 0.4631068,0.1239712 0.5637662,-0.0748956 0.563726,0.1110775 0.563726,0.1110775 0.5642379,0.1200959 0.5651651,0.1245262 0.5668741,0.1287047 0.5697627,0.1321741 0.5737026,0.1343665 0.5780875,0.1354555 0.5826057,0.1356277z" transform="matrix(1,0,0,-1,0.6731,0.3683)" fill="rgb(159,159,159)" fill-rule="nonzero" shaper:cutDepth="0.0000762" stroke-linecap="round" stroke-linejoin="round" /></svg>