<?xml version="1.0" encoding="utf-8"?>
<!-- Generator: Fusion 360, Shaper Origin Export Add-In, Version 1.6.10  -->
<svg xmlns="http://www.w3.org/2000/svg" xmlns:xlink="http://www.w3.org/1999/xlink" xmlns:shaper="http://www.shapertools.com/namespaces/shaper" shaper:fusionaddin="version:1.6.10" width="1.3462cm" height="0.7366cm" version="1.1" x="0cm" y="0cm" viewBox="0 0 1.3462 0.7366" enable-background="new 0 0 1.3462 0.7366" xml:space="preserve"><path d="M-0.6731,-0.3683 L-0.6731,0.3683 0.6731,0.3683 0.6731,-0.3683 -0.6731,-0.3683z" transform="matrix(1,0,0,-1,0.6731,0.3683)" fill="rgb(0,0,0)" shaper:cutDepth="0.000127" stroke-linecap="round" stroke-linejoin="round" /><path d="M0.1747252,-0.1662772 L0.1747252,-0.1662772 0.1652885,-0.1688919 0.1556227,-0.1704388 0.1360569,-0.1711626 0.0441842,-0.1711626 0.0441842,-0.1711626 0.0387264,-0.1712138 0.0333056,-0.1705788 0.0281377,-0.1687814 0.0236857,-0.1656079 0.0205086,-0.1611588 0.0187178,-0.1559857 0.0181555,-0.1505592 0.0183639,-0.1451034 0.0183203,0.1341754 0.0183203,0.1341754 0.0184044,0.1393814 0.0191658,0.1445257 0.0210627,0.1493894 0.0242224,0.1535527 0.0284391,0.1566268 0.0333368,0.1584244 0.0436902,0.1593208 0.1553991,0.159249 0.1553991,0.159249 0.172313,0.1577012 0.1806129,0.1558821 0.1887298,0.1533671 0.1965438,0.1500363 0.2039901,0.1459411 0.2109837,0.1411175 0.2174471,0.1356025 0.2233403,0.129482 0.2285724,0.1227876 0.2330538,0.1155695 0.2367347,0.1079115 0.2395818,0.0999066 0.2415834,0.0916494 0.2428016,0.0832401 0.2433364,0.0747602 0.2433364,0.0747602 0.2429144,0.0648751 0.24127,0.0551191 0.2383843,0.0456551 0.2342445,0.0366704 0.2288725,0.0283622 0.2225287,0.0207701 0.2153074,0.0140073 0.2074862,0.0079451 0.2074862,0.0079451 0.2152927,0.0000752 0.2224837,-0.0083578 0.2289256,-0.0173767 0.2343075,-0.0270627 0.2384795,-0.0373288 0.2413547,-0.0480305 0.242911,-0.0590016 0.2433364,-0.0700778 0.2433364,-0.0700778 0.2421674,-0.0858503 0.238811,-0.101305 0.23622,-0.1087808 0.2330373,-0.1160253 0.2293155,-0.1230073 0.2250126,-0.129647 0.2201811,-0.1359132 0.2148782,-0.1417853 0.2091079,-0.1471991 0.2028873,-0.1520881 0.1962894,-0.1564561 0.1893513,-0.1602587 0.1747252,-0.1662772z M0.1400297,-0.0102316 L0.0595813,-0.0102316 0.0595813,-0.1303551 0.1354982,-0.1303551 0.1354982,-0.1303551 0.1450872,-0.1301652 0.1546346,-0.1292605 0.1639754,-0.1270933 0.1727854,-0.1233144 0.1727854,-0.1233144 0.1792534,-0.1187866 0.1850799,-0.1134587 0.1901538,-0.1074097 0.194415,-0.1007631 0.1978785,-0.0936681 0.2004556,-0.0862053 0.2019662,-0.0784559 0.2025289,-0.0705807 0.2025289,-0.0705807 0.2017608,-0.0613051 0.199653,-0.052241 0.1961562,-0.0436154 0.1913954,-0.0356196 0.1856108,-0.0283304 0.1787292,-0.0220647 0.1709047,-0.0170262 0.162368,-0.0133208 0.162368,-0.0133208 0.1569503,-0.0116091 0.1513762,-0.0106323 0.1400297,-0.0102316z M0.1509548,0.1185132 L0.0630574,0.1185132 0.0630574,0.030576 0.1518787,0.030576 0.1518787,0.030576 0.16487,0.0311227 0.1711943,0.0324706 0.1772397,0.0348867 0.1772397,0.0348867 0.1826417,0.0379832 0.1876351,0.0416872 0.192003,0.0461304 0.1956778,0.0511541 0.1986344,0.0566294 0.200837,0.0624622 0.20209,0.0685466 0.2025289,0.0747602 0.2025289,0.0747602 0.2019282,0.0820886 0.2000879,0.0892075 0.1971198,0.0959348 0.1929556,0.1019948 0.1879104,0.1073438 0.1820013,0.1117198 0.1753838,0.1149249 0.1683311,0.1170046 0.1683311,0.1170046 0.1597073,0.1184276 0.1509548,0.1185132z" transform="matrix(1,0,0,-1,0.6731,0.3683)" fill="rgb(160,160,160)" fill-rule="nonzero" shaper:cutDepth="0.0000762" stroke-linecap="round" stroke-linejoin="round" /><path d="M-0.1698399,-0.1435027 L-0.1698399,0.1185132 -0.2369423,0.1184415 -0.2369423,0.1184415 -0.2464851,0.1193357 -0.2510989,0.1206699 -0.2553721,0.1228973 -0.2589429,0.1261172 -0.2614534,0.130239 -0.2627511,0.1348465 -0.2632373,0.1396356 -0.2632373,0.1396356 -0.2627832,0.1446304 -0.2611686,0.1492754 -0.2579938,0.1531636 -0.2538262,0.1558923 -0.2491527,0.1576234 -0.2442967,0.1586734 -0.2343972,0.1593208 -0.0610676,0.159249 -0.0610676,0.159249 -0.051635,0.1583416 -0.0470845,0.1569799 -0.0428738,0.1547426 -0.0393726,0.1515306 -0.0369362,0.1474283 -0.0356805,0.1428604 -0.0352037,0.1381268 -0.0352037,0.1381268 -0.035675,0.1333292 -0.037143,0.1288062 -0.0399981,0.1249123 -0.0438499,0.1220454 -0.0482755,0.1201752 -0.0529429,0.119097 -0.0624885,0.1185132 -0.1290323,0.1185132 -0.1290323,-0.1460171 -0.1290323,-0.1460171 -0.1292671,-0.1534059 -0.1310439,-0.1606015 -0.1310439,-0.1606015 -0.1343455,-0.1651297 -0.1386871,-0.1686209 -0.1439522,-0.1705196 -0.1495079,-0.1711626 -0.1495079,-0.1711626 -0.1559149,-0.1700827 -0.1618943,-0.1674671 -0.1644321,-0.1654088 -0.1664585,-0.162906 -0.1694087,-0.1570812 -0.1694087,-0.1570812 -0.1698399,-0.1435027z" transform="matrix(1,0,0,-1,0.6731,0.3683)" fill="rgb(160,160,160)" fill-rule="nonzero" shaper:cutDepth="0.0000762" stroke-linecap="round" stroke-linejoin="round" /><path d="M0.5142337,0.1246209 L0.5132405,0.1231174 0.4273295,-0.0402593 0.4273295,-0.14652 0.4273295,-0.14652 0.4270895,-0.154618 0.4253179,-0.1625413 0.4253179,-0.1625413 0.4217092,-0.166503 0.4175394,-0.1693811 0.4125606,-0.1706971 0.4071413,-0.1711626 0.4071413,-0.1711626 0.4026589,-0.17091 0.3983225,-0.1700232 0.3943206,-0.1680115 0.3910133,-0.1649627 0.3887088,-0.1611325 0.3873472,-0.1568614 0.3865219,-0.1480078 0.3865219,-0.0402593 0.298128,0.125122 0.2970759,0.1270628 0.2970759,0.1270628 0.2941579,0.1330946 0.2926216,0.1396356 0.2926216,0.1396356 0.2943627,0.1474303 0.2964231,0.1508341 0.2992264,0.1537657 0.3024909,0.156149 0.3060984,0.1578352 0.3139593,0.159249 0.3139593,0.159249 0.3210834,0.1580666 0.3243286,0.1567007 0.3272414,0.1546194 0.3320463,0.1491932 0.3358692,0.1431637 0.406681,0.0098562 0.4784108,0.1451676 0.4784108,0.1451676 0.4819121,0.1507047 0.4864504,0.155545 0.4892107,0.1573318 0.4922462,0.1584485 0.4988146,0.159249 0.4988146,0.159249 0.5066428,0.1579909 0.5102747,0.1564176 0.5135702,0.1541353 0.516386,0.1512578 0.5184422,0.1478802 0.5201523,0.1401385 0.5201523,0.1401385 0.5192219,0.1343739 0.5167038,0.1290745 0.5167038,0.1290745 0.5142337,0.1246209z" transform="matrix(1,0,0,-1,0.6731,0.3683)" fill="rgb(160,160,160)" fill-rule="nonzero" shaper:cutDepth="0.0000762" stroke-linecap="round" stroke-linejoin="round" /><path d="M-0.342697,0.0602477 L-0.342697,0.0602477 -0.3498136,0.0611935 -0.3530269,0.0625518 -0.3558495,0.0647342 -0.3582017,0.0675009 -0.3600217,0.0705921 -0.3625979,0.0772029 -0.3625979,0.0772029 -0.3650363,0.0858367 -0.3685436,0.0940917 -0.3734344,0.1016119 -0.3796477,0.1080807 -0.3871199,0.1130333 -0.3954545,0.116351 -0.4042362,0.1181833 -0.4131894,0.1187403 -0.4156724,0.1187403 -0.4405489,0.118226 -0.4405489,0.118226 -0.4496065,0.1171801 -0.4584115,0.1148279 -0.4666528,0.1109283 -0.4739224,0.1054357 -0.4799533,0.0986069 -0.4842676,0.0905782 -0.4867941,0.0818213 -0.4876787,0.0727486 -0.4876787,0.0727486 -0.4872234,0.0663869 -0.485951,0.0601434 -0.483854,0.0541157 -0.4809415,0.0484469 -0.4772282,0.0432608 -0.4728084,0.0386608 -0.4677085,0.0348387 -0.4621022,0.0317974 -0.4621022,0.0317974 -0.453496,0.0291849 -0.4446954,0.0273113 -0.3910482,0.016279 -0.3910482,0.016279 -0.3751164,0.0115672 -0.3674582,0.0083384 -0.3600704,0.0045313 -0.3530307,0.0001152 -0.3464076,-0.0049063 -0.3402986,-0.0105396 -0.3346858,-0.0166691 -0.3296458,-0.0232778 -0.3252024,-0.030299 -0.3214731,-0.037728 -0.3183933,-0.0454459 -0.3160862,-0.0534295 -0.3144189,-0.0615723 -0.3134212,-0.0698227 -0.3130254,-0.0781243 -0.3130254,-0.0781243 -0.3135408,-0.0875576 -0.3148456,-0.0969136 -0.3170049,-0.106111 -0.3200745,-0.1150444 -0.3240565,-0.1236101 -0.329012,-0.1316519 -0.3348634,-0.1390676 -0.3414775,-0.1458122 -0.3487486,-0.1518429 -0.3566256,-0.1570555 -0.3650149,-0.1613989 -0.3737698,-0.1649476 -0.3828281,-0.1676272 -0.3920934,-0.1694741 -0.4109031,-0.1711626 -0.4432071,-0.1711626 -0.4432071,-0.1711626 -0.4536941,-0.1707572 -0.4641221,-0.1695792 -0.4744203,-0.1675558 -0.4845176,-0.1646966 -0.4845176,-0.1646966 -0.4959118,-0.1588187 -0.5062808,-0.1512903 -0.5154225,-0.1423084 -0.5231107,-0.1320537 -0.5293227,-0.1208428 -0.533874,-0.1088611 -0.5367059,-0.0963631 -0.5377541,-0.0835845 -0.5377541,-0.0835845 -0.5366057,-0.0736475 -0.5349906,-0.0688954 -0.5326211,-0.0644654 -0.5294031,-0.0606066 -0.5253099,-0.0576566 -0.520616,-0.0559988 -0.5156261,-0.0552779 -0.5156261,-0.0552779 -0.5079374,-0.0568916 -0.5045545,-0.0588696 -0.5016471,-0.061599 -0.4993165,-0.0648178 -0.4976943,-0.068388 -0.4963778,-0.0761337 -0.4964437,-0.080136 -0.4964437,-0.080136 -0.4968748,-0.0845903 -0.4968748,-0.0845903 -0.4960474,-0.0919847 -0.4940646,-0.0991563 -0.4909053,-0.1058929 -0.48679,-0.1120917 -0.4818842,-0.117686 -0.4762606,-0.1225581 -0.4699177,-0.1264479 -0.4630361,-0.1292774 -0.4630361,-0.1292774 -0.4529518,-0.1309991 -0.442712,-0.1312558 -0.4131044,-0.1312891 -0.4131044,-0.1312891 -0.4026879,-0.1306617 -0.3923414,-0.1292774 -0.3923414,-0.1292774 -0.384169,-0.1264583 -0.3766396,-0.1222041 -0.3700133,-0.1166545 -0.3643976,-0.1100782 -0.359876,-0.1027095 -0.3565784,-0.0947179 -0.3545614,-0.0863084 -0.3538329,-0.0776933 -0.3538329,-0.0776933 -0.3543829,-0.0704133 -0.3558518,-0.0632618 -0.3583221,-0.0563917 -0.3616044,-0.0498703 -0.3657546,-0.0438639 -0.3706137,-0.038415 -0.3762748,-0.0338049 -0.3824987,-0.0299887 -0.3824987,-0.0299887 -0.3916778,-0.0266635 -0.4012043,-0.0244878 -0.4546304,-0.0131053 -0.4546304,-0.0131053 -0.4644796,-0.010821 -0.4741537,-0.0078874 -0.4834444,-0.0039014 -0.4921331,0.0012636 -0.4921331,0.0012636 -0.5003037,0.0075541 -0.5075233,0.0149138 -0.5137388,0.0231419 -0.5189204,0.0320567 -0.523024,0.0415166 -0.5260521,0.0513738 -0.5278564,0.0615252 -0.5285581,0.0718146 -0.5285581,0.0718146 -0.5280264,0.0801843 -0.5268821,0.0884911 -0.5249144,0.0966437 -0.5221985,0.1045776 -0.5186558,0.1121772 -0.5143556,0.1193774 -0.5093428,0.1260998 -0.5036646,0.1322707 -0.4974314,0.1378799 -0.4906601,0.1428284 -0.4834674,0.1471383 -0.4758631,0.1506737 -0.4679433,0.1534299 -0.4598147,0.1554928 -0.4432061,0.1577626 -0.411203,0.1593208 -0.4082908,0.159249 -0.4082908,0.159249 -0.3970562,0.1585203 -0.3860107,0.1563675 -0.3753659,0.152711 -0.3652754,0.1477238 -0.3559128,0.1414768 -0.3474548,0.1340511 -0.3400794,0.1255513 -0.3337883,0.1162143 -0.3337883,0.1162143 -0.3294499,0.1081308 -0.3259271,0.0996619 -0.3234,0.090839 -0.3223651,0.0817291 -0.3223651,0.0817291 -0.3237014,0.0736033 -0.3253837,0.0698412 -0.3278471,0.0664887 -0.3309757,0.0637312 -0.3346073,0.061787 -0.342697,0.0602477z" transform="matrix(1,0,0,-1,0.6731,0.3683)" fill="rgb(160,160,160)" fill-rule="nonzero" shaper:cutDepth="0.0000762" stroke-linecap="round" stroke-linejoin="round" /></svg>