<?xml version="1.0" encoding="utf-8"?>
<!-- Generator: Fusion 360, Shaper Origin Export Add-In, Version 1.6.10  -->
<svg xmlns="http://www.w3.org/2000/svg" xmlns:xlink="http://www.w3.org/1999/xlink" xmlns:shaper="http://www.shapertools.com/namespaces/shaper" shaper:fusionaddin="version:1.6.10" width="1.3462cm" height="0.7366cm" version="1.1" x="0cm" y="0cm" viewBox="0 0 1.3462 0.7366" enable-background="new 0 0 1.3462 0.7366" xml:space="preserve"><path d="M-0.6731,-0.3683 L-0.6731,0.3683 0.6731,0.3683 0.6731,-0.3683 -0.6731,-0.3683z" transform="matrix(1,0,0,-1,0.6731,0.3683)" fill="rgb(0,0,0)" shaper:cutDepth="0.000127" stroke-linecap="round" stroke-linejoin="round" /><path d="M0.2195082,-0.0768517 L0.2195082,-0.0768517 0.2190238,-0.0879036 0.2175735,-0.0988659 0.2151833,-0.1096697 0.2116839,-0.1201584 0.2071369,-0.1302449 0.2014893,-0.1397507 0.1947029,-0.1484875 0.1867523,-0.1561728 0.1867523,-0.1561728 0.1759807,-0.1630918 0.1702166,-0.1658888 0.1641792,-0.168035 0.1516289,-0.1705567 0.1388378,-0.1711831 0.0705391,-0.1711831 0.0705391,-0.1711831 0.0607434,-0.1703119 0.0560994,-0.1686873 0.0521412,-0.1657783 0.049615,-0.1615592 0.048312,-0.156813 0.0479964,-0.1469853 0.0479903,0.112345 0.0479903,0.112345 0.0487906,0.1217703 0.0502606,0.1262783 0.0529026,0.1302008 0.0567367,0.1329765 0.0611819,0.1346065 0.0705915,0.1356943 0.1503273,0.1356277 0.1503273,0.1356277 0.1575856,0.1351025 0.1647688,0.133938 0.1717688,0.1319483 0.1785181,0.1292308 0.184872,0.1256825 0.1907914,0.1214508 0.1962279,0.1166134 0.2011389,0.1112435 0.2055123,0.105426 0.2092941,0.0992105 0.2124603,0.0926556 0.2149939,0.0858369 0.2183212,0.0716751 0.2195082,0.0571738 0.2195082,0.0571738 0.2192681,0.0486077 0.2181828,0.0401084 0.2162674,0.0317561 0.2134798,0.0236535 0.2097566,0.015936 0.2052692,0.0086361 0.2000383,0.0018494 0.1941727,-0.0043978 0.1937116,-0.0043978 0.1918225,-0.0048689 0.1918225,-0.0048689 0.1980102,-0.0125644 0.2036266,-0.0206842 0.208581,-0.0292259 0.2127429,-0.0381792 0.2158919,-0.0475366 0.2180095,-0.0571803 0.2191935,-0.0669826 0.2195082,-0.0768517z M0.0835029,-0.1332904 L0.1360508,-0.1332904 0.1360508,-0.1332904 0.144657,-0.1329717 0.1531135,-0.1313947 0.1571014,-0.1297824 0.1607663,-0.1275224 0.1640651,-0.1247553 0.1669387,-0.121549 0.1669387,-0.121549 0.17356,-0.1118186 0.1782073,-0.1010078 0.1808038,-0.0895266 0.1816822,-0.0777856 0.1816822,-0.0777856 0.1804328,-0.0640293 0.1766524,-0.0507439 0.1737584,-0.0444715 0.1702672,-0.038502 0.1659431,-0.0331145 0.1609346,-0.0283517 0.1609346,-0.0283517 0.1561576,-0.0250899 0.1507822,-0.0229567 0.14508,-0.021992 0.139299,-0.0217472 0.0835029,-0.0217472 0.0835029,-0.1332904z M0.0858086,0.0161456 L0.1475921,0.0161456 0.1475921,0.0161456 0.1536395,0.0163166 0.1596039,0.0172917 0.1650995,0.019795 0.1696739,0.0237508 0.1696739,0.0237508 0.175122,0.0310166 0.1789099,0.0392762 0.1809996,0.0481126 0.1816822,0.0571738 0.1816822,0.0571738 0.1808643,0.0663576 0.1786985,0.0753148 0.1747919,0.0836664 0.1692069,0.090997 0.1692069,0.090997 0.1645444,0.0946936 0.1589936,0.0968538 0.1471381,0.0978016 0.0858086,0.0978016 0.0858086,0.0161456z" transform="matrix(1,0,0,-1,0.6731,0.3683)" fill="rgb(159,159,159)" fill-rule="nonzero" shaper:cutDepth="0.0000762" stroke-linecap="round" stroke-linejoin="round" /><path d="M-0.4878739,0.1356277 L-0.4878739,0.1356277 -0.4787141,0.135106 -0.469791,0.1329582 -0.461334,0.1293954 -0.4534174,0.1247529 -0.4461604,0.1191339 -0.4396608,0.1126526 -0.4340588,0.1053841 -0.4293003,0.0975348 -0.4293003,0.0975348 -0.4255198,0.0894964 -0.4225922,0.0811151 -0.42049,0.0724799 -0.419627,0.0636449 -0.419627,0.0636449 -0.4206898,0.0560925 -0.4221305,0.0525578 -0.4242836,0.0494034 -0.4271764,0.0469142 -0.4305579,0.0451437 -0.4380397,0.0436978 -0.4380397,0.0436978 -0.4428244,0.0441293 -0.447405,0.0455515 -0.4513849,0.0482386 -0.4543175,0.0520369 -0.4543175,0.0520369 -0.4571195,0.0622439 -0.4571195,0.0622439 -0.4609883,0.0753113 -0.463839,0.0815046 -0.4675609,0.0872171 -0.4723932,0.0920185 -0.478294,0.0954172 -0.4848211,0.0973807 -0.4916084,0.0980124 -0.4934993,0.0980124 -0.5124241,0.0975348 -0.5124241,0.0975348 -0.5173288,0.0968076 -0.5221071,0.0954885 -0.5267137,0.0936409 -0.5309035,0.090997 -0.5309035,0.090997 -0.5343173,0.0873933 -0.5371738,0.0833289 -0.5395625,0.0789795 -0.5414012,0.0743646 -0.5437766,0.0647345 -0.5445796,0.0548388 -0.5445796,0.0548388 -0.5439698,0.0467241 -0.5422561,0.0387718 -0.5392958,0.0311917 -0.5351064,0.0242178 -0.5351064,0.0242178 -0.5311528,0.0199767 -0.5261945,0.0169238 -0.5208412,0.0146883 -0.5152444,0.0131141 -0.4745981,0.0028698 -0.4745981,0.0028698 -0.4608807,-0.0019221 -0.4482142,-0.0090352 -0.4424521,-0.01347 -0.4370885,-0.0183721 -0.4279316,-0.0296538 -0.4241294,-0.0358497 -0.4209012,-0.0423631 -0.4159455,-0.0560182 -0.4132038,-0.0702912 -0.4122219,-0.0847904 -0.4122219,-0.0847904 -0.4134809,-0.1009581 -0.4149313,-0.1089422 -0.4170274,-0.1167787 -0.419839,-0.1243885 -0.4233253,-0.1317151 -0.427559,-0.1386339 -0.4324997,-0.1450687 -0.4380392,-0.1509964 -0.444209,-0.1562625 -0.4509572,-0.160765 -0.4581651,-0.1644867 -0.4657419,-0.1673857 -0.4736078,-0.1693715 -0.4816245,-0.1706135 -0.4897175,-0.1711831 -0.5138918,-0.1716501 -0.5138918,-0.1716501 -0.5216306,-0.17128 -0.5292973,-0.1701696 -0.5368206,-0.1683206 -0.5441036,-0.1656803 -0.5510386,-0.1622284 -0.5575108,-0.1579718 -0.5634367,-0.1529819 -0.5687941,-0.1473859 -0.5735477,-0.1412687 -0.5776377,-0.1346893 -0.5810116,-0.1277158 -0.5836963,-0.1204481 -0.585756,-0.1129798 -0.5872005,-0.1053676 -0.5884097,-0.0899273 -0.5884097,-0.0899273 -0.5874392,-0.0805958 -0.5861535,-0.0760692 -0.5840762,-0.0718655 -0.5810915,-0.0682327 -0.5772257,-0.0655794 -0.5727886,-0.0640406 -0.5681291,-0.0634424 -0.5681291,-0.0634424 -0.5639455,-0.0638511 -0.5599404,-0.0651179 -0.5564885,-0.06751 -0.5539236,-0.0708313 -0.5522162,-0.0746762 -0.551161,-0.0787443 -0.5505837,-0.0871254 -0.5505837,-0.0871254 -0.5502375,-0.0956268 -0.5489589,-0.1040352 -0.5463741,-0.11214 -0.5424464,-0.1196884 -0.5370997,-0.1262881 -0.5303277,-0.1314032 -0.5264222,-0.1330794 -0.5223092,-0.1341654 -0.5138263,-0.1344143 -0.4911428,-0.1344246 -0.4911428,-0.1344246 -0.4844,-0.1340126 -0.4777798,-0.1327024 -0.4715359,-0.1301174 -0.4661256,-0.1260855 -0.4661256,-0.1260855 -0.4622712,-0.1219068 -0.4589385,-0.1173023 -0.4539998,-0.1070728 -0.4510508,-0.0961028 -0.4500479,-0.0847904 -0.4500479,-0.0847904 -0.4509298,-0.0737371 -0.4536372,-0.0629839 -0.4581202,-0.0528479 -0.4611322,-0.0481886 -0.4647247,-0.0439624 -0.4647247,-0.0439624 -0.4685158,-0.0405333 -0.472959,-0.0379813 -0.4826267,-0.0346703 -0.5232983,-0.0244823 -0.5232983,-0.0244823 -0.538515,-0.0196659 -0.5457236,-0.0162356 -0.5524516,-0.0119404 -0.5524516,-0.0119404 -0.5595266,-0.0055965 -0.5656329,0.0016884 -0.5707245,0.0097115 -0.5748533,0.0182743 -0.5781036,0.0272045 -0.5804278,0.0364223 -0.5818701,0.0458155 -0.5824055,0.0553058 -0.5824055,0.0553058 -0.5812847,0.0697444 -0.5781203,0.0838746 -0.5756624,0.0906912 -0.5725822,0.0972483 -0.5689001,0.103489 -0.5646127,0.1093287 -0.5597469,0.114697 -0.5543708,0.1195539 -0.5485183,0.1238242 -0.5422217,0.1274077 -0.5355486,0.1302283 -0.5286105,0.1323149 -0.5215032,0.1337212 -0.514299,0.1344934 -0.4901902,0.1356943 -0.4878739,0.1356277z" transform="matrix(1,0,0,-1,0.6731,0.3683)" fill="rgb(159,159,159)" fill-rule="nonzero" shaper:cutDepth="0.0000762" stroke-linecap="round" stroke-linejoin="round" /><path d="M0.389449,-0.1371598 L0.389449,-0.1371598 0.3936651,-0.143821 0.3952098,-0.1474464 0.3954531,-0.1513695 0.3954531,-0.1513695 0.3951109,-0.155093 0.3941275,-0.1586993 0.392341,-0.1619817 0.3898894,-0.1648029 0.3868395,-0.166963 0.3834057,-0.1684414 0.3760397,-0.169582 0.3760397,-0.169582 0.3711224,-0.1692645 0.3664493,-0.1677232 0.3627064,-0.1645314 0.3599612,-0.1604383 0.2917907,-0.0430952 0.2664575,-0.0430952 0.2664311,-0.1462994 0.2664311,-0.1462994 0.2659195,-0.1553696 0.2649871,-0.1598234 0.263278,-0.1640311 0.2604182,-0.1675561 0.2564985,-0.169837 0.2520914,-0.1709424 0.2475514,-0.1711831 0.2475514,-0.1711831 0.2431401,-0.1707816 0.23887,-0.1696128 0.2350194,-0.1674255 0.2318073,-0.1643785 0.2318073,-0.1643785 0.2294093,-0.1598403 0.2287415,-0.1547471 0.2286454,-0.1444585 0.2286051,0.1090761 0.2286051,0.1090761 0.2286159,0.1145627 0.2292631,0.1200131 0.2310775,0.125185 0.234283,0.1296253 0.2388502,0.1326585 0.2440396,0.1344331 0.2549294,0.1356943 0.3157316,0.1356277 0.3157316,0.1356277 0.3240234,0.1351124 0.332234,0.1338485 0.3402863,0.1318066 0.3480389,0.1288213 0.3553903,0.1249555 0.3622263,0.1202335 0.3684995,0.1147904 0.3741332,0.1086828 0.3790947,0.1020221 0.3833417,0.0948805 0.386895,0.0873719 0.38967,0.0795416 0.393237,0.0633222 0.3945191,0.0467666 0.3945191,0.0467666 0.3935603,0.0328708 0.3909568,0.0191915 0.3865717,0.0059767 0.3802869,-0.0064485 0.3722569,-0.0178212 0.3675565,-0.0229561 0.3624075,-0.0276536 0.3568139,-0.0317967 0.3508178,-0.0353461 0.3444597,-0.0381873 0.337851,-0.0403886 0.3341662,-0.0412908 0.3880898,-0.1348707 0.389449,-0.1371598z M0.2664575,0.0978016 L0.2664575,-0.0052024 0.3143307,-0.0052024 0.3143307,-0.0052024 0.3219497,-0.0049487 0.3294503,-0.0036237 0.3363302,-0.0003444 0.3419496,0.0048045 0.3419496,0.0048045 0.3455866,0.0091121 0.3487076,0.0138081 0.3532635,0.0241063 0.3558717,0.0350641 0.3566931,0.0462996 0.3566931,0.0462996 0.3564271,0.0528961 0.3555614,0.059438 0.3541039,0.0658784 0.3519767,0.0721249 0.3492065,0.0781177 0.3457607,0.0837462 0.3414754,0.0887663 0.3364125,0.0929984 0.3364125,0.0929984 0.3320656,0.0955913 0.3272205,0.0970649 0.3171239,0.0978016 0.2664575,0.0978016z" transform="matrix(1,0,0,-1,0.6731,0.3683)" fill="rgb(159,159,159)" fill-rule="nonzero" shaper:cutDepth="0.0000762" stroke-linecap="round" stroke-linejoin="round" /><path d="M-0.0905529,0.1058739 L-0.0905529,0.1058739 -0.0808038,0.092836 -0.0726081,0.0787657 -0.0659856,0.0638956 -0.061006,0.0483931 -0.0575045,0.032494 -0.0552262,0.0163693 -0.0539856,0.0001369 -0.0536609,-0.0161433 -0.0536609,-0.0161433 -0.0543236,-0.0401296 -0.0553052,-0.0520908 -0.0569615,-0.0639738 -0.0593744,-0.0757291 -0.062587,-0.0872895 -0.0665359,-0.098621 -0.0712063,-0.1096742 -0.0712063,-0.1096742 -0.0773673,-0.1218444 -0.0845441,-0.1334438 -0.0928958,-0.1442255 -0.1026533,-0.1537494 -0.1080702,-0.1579 -0.1138394,-0.1615335 -0.1199367,-0.1645986 -0.1262976,-0.1670557 -0.1328454,-0.1689745 -0.1395452,-0.1702529 -0.1531476,-0.1711831 -0.2054985,-0.1711831 -0.2054985,-0.1711831 -0.2108666,-0.170959 -0.2161499,-0.1700179 -0.2211196,-0.1679898 -0.2232643,-0.1663617 -0.224988,-0.1642994 -0.2270635,-0.1593559 -0.2279955,-0.15406 -0.2280738,-0.1433328 -0.2281141,0.1117446 -0.2281141,0.1117446 -0.2281003,0.1166463 -0.227425,0.1215004 -0.2257024,0.1260859 -0.222823,0.1300461 -0.2188785,0.1329452 -0.214288,0.1346608 -0.2045565,0.1356943 -0.1541299,0.1356277 -0.1541299,0.1356277 -0.1450641,0.1351918 -0.1360899,0.1338394 -0.1273278,0.1314742 -0.1188831,0.1281498 -0.1109262,0.123785 -0.1035201,0.1185381 -0.0966966,0.1125553 -0.0905529,0.1058739z M-0.1902616,0.0978016 L-0.1902616,-0.1332904 -0.1536629,-0.1332904 -0.1536629,-0.1332904 -0.1436848,-0.1327469 -0.1387795,-0.1317789 -0.1340345,-0.1302056 -0.1295999,-0.1278997 -0.1256118,-0.1248849 -0.118839,-0.1175463 -0.118839,-0.1175463 -0.1096582,-0.1039793 -0.1024543,-0.0892661 -0.0970522,-0.0738003 -0.0933548,-0.0578386 -0.0933548,-0.0578386 -0.0920103,-0.0487695 -0.0915206,-0.039617 -0.0914869,-0.0212801 -0.0914869,-0.0212801 -0.0918585,0.0088754 -0.0933255,0.0238764 -0.097024,0.0384943 -0.097024,0.0384943 -0.1021836,0.0533996 -0.1090487,0.0676002 -0.1131575,0.0743377 -0.117789,0.0807231 -0.1230562,0.0865997 -0.129046,0.0917309 -0.129046,0.0917309 -0.1345524,0.0948341 -0.1405604,0.0967947 -0.1531476,0.0978016 -0.1902616,0.0978016z" transform="matrix(1,0,0,-1,0.6731,0.3683)" fill="rgb(159,159,159)" fill-rule="nonzero" shaper:cutDepth="0.0000762" stroke-linecap="round" stroke-linejoin="round" /><path d="M-0.3837784,-0.1711831 L-0.3837784,-0.1711831 -0.3879335,-0.1710333 -0.3919985,-0.170179 -0.3957623,-0.1684203 -0.3988633,-0.1656551 -0.4010929,-0.1621589 -0.4023817,-0.1581996 -0.4030848,-0.1499373 -0.403125,0.1078086 -0.403125,0.1078086 -0.4031902,0.1137492 -0.4026166,0.1196553 -0.4009933,0.125371 -0.399545,0.1279685 -0.3975869,0.1302086 -0.3925165,0.1332725 -0.3867887,0.1348544 -0.3749562,0.1356943 -0.3153314,0.1356277 -0.3153314,0.1356277 -0.3070577,0.1351867 -0.2988699,0.133924 -0.2908376,0.1318942 -0.2830828,0.1289808 -0.2757585,0.1251075 -0.2689154,0.1204407 -0.2626882,0.1149757 -0.2570821,0.1088753 -0.252168,0.1022068 -0.2479889,0.0950517 -0.2445414,0.0875193 -0.2418316,0.0796886 -0.2398172,0.0716534 -0.2384196,0.0634849 -0.237211,0.0469668 -0.237211,0.0469668 -0.2377906,0.0359894 -0.239323,0.0251053 -0.2420214,0.0144492 -0.2458636,0.0041505 -0.2508197,-0.0056602 -0.2568459,-0.0148526 -0.2640391,-0.0231634 -0.2722351,-0.0304865 -0.2722351,-0.0304865 -0.2771353,-0.0338564 -0.2823682,-0.0366849 -0.2878186,-0.0390597 -0.293512,-0.0407849 -0.3052433,-0.0426953 -0.3171259,-0.0430952 -0.3652726,-0.0430952 -0.365299,-0.1472334 -0.365299,-0.1472334 -0.3658475,-0.1560224 -0.3667516,-0.1603304 -0.3684388,-0.1644029 -0.3712778,-0.1677459 -0.3750977,-0.1699291 -0.3793812,-0.1709417 -0.3837784,-0.1711831z M-0.3652726,-0.0052024 L-0.3143974,-0.0052024 -0.3143974,-0.0052024 -0.3053877,-0.0040857 -0.2969228,-0.0008198 -0.2896381,0.0046017 -0.2839462,0.0116797 -0.2797626,0.0197588 -0.2770253,0.0284337 -0.2756068,0.0374197 -0.275037,0.0464998 -0.275037,0.0464998 -0.2755407,0.0558252 -0.2770389,0.0650385 -0.2799213,0.0739197 -0.2844028,0.0821135 -0.2906592,0.0890221 -0.2944034,0.0918052 -0.298512,0.0940202 -0.3073757,0.0968894 -0.316663,0.0978016 -0.3652726,0.0978016 -0.3652726,-0.0052024z" transform="matrix(1,0,0,-1,0.6731,0.3683)" fill="rgb(159,159,159)" fill-rule="nonzero" shaper:cutDepth="0.0000762" stroke-linecap="round" stroke-linejoin="round" /><path d="M0.5341057,0.1356277 L0.5341057,0.1356277 0.5413707,0.1343952 0.5447064,0.1328212 0.5476017,0.130535 0.5497875,0.1275629 0.5513043,0.124198 0.5525851,0.1169482 0.5525851,0.1169482 0.5522118,0.1123696 0.5501843,0.1082667 0.5442992,0.1012038 0.5419935,0.0979513 0.4958811,0.039871 0.5682625,-0.1385607 0.5682625,-0.1385607 0.5710806,-0.1462818 0.5720563,-0.1502781 0.5723987,-0.1543716 0.5723987,-0.1543716 0.5720197,-0.1579345 0.570889,-0.1613324 0.5689941,-0.1643709 0.5664671,-0.1669103 0.5634639,-0.1688603 0.5601276,-0.1701702 0.553052,-0.1711831 0.553052,-0.1711831 0.5472008,-0.1705705 0.5419256,-0.1679681 0.5378703,-0.1637164 0.5350767,-0.1585312 0.4691359,0.0050228 0.4414685,-0.0298253 0.441442,-0.1501687 0.441442,-0.1501687 0.4405832,-0.1582346 0.4392631,-0.1620708 0.4371655,-0.1655466 0.4342153,-0.168328 0.4305743,-0.1701176 0.4266202,-0.1710252 0.4225624,-0.1711831 0.4225624,-0.1711831 0.4184635,-0.1709593 0.4144856,-0.1699628 0.4108167,-0.1681316 0.4078577,-0.1652937 0.4057976,-0.1617478 0.4045033,-0.1578516 0.4036563,-0.149703 0.403616,0.1104771 0.403616,0.1104771 0.4039206,0.1210804 0.4049658,0.1262806 0.4063398,0.1285343 0.4082192,0.1304241 0.4082192,0.1304241 0.4112124,0.1327472 0.4146466,0.1343559 0.4220954,0.1356277 0.4220954,0.1356277 0.4264677,0.1354561 0.4307163,0.1344212 0.4345448,0.1323168 0.4375565,0.1291451 0.4396,0.1252845 0.4407782,0.1210657 0.4414685,0.1123552 0.4414685,0.0319721 0.5184283,0.1292233 0.5184283,0.1292233 0.5216699,0.1321709 0.5254798,0.1343257 0.5297311,0.1353717 0.5341057,0.1356277z" transform="matrix(1,0,0,-1,0.6731,0.3683)" fill="rgb(159,159,159)" fill-rule="nonzero" shaper:cutDepth="0.0000762" stroke-linecap="round" stroke-linejoin="round" /></svg>