<?xml version="1.0" encoding="utf-8"?>
<!-- Generator: Fusion 360, Shaper Origin Export Add-In, Version 1.6.10  -->
<svg xmlns="http://www.w3.org/2000/svg" xmlns:xlink="http://www.w3.org/1999/xlink" xmlns:shaper="http://www.shapertools.com/namespaces/shaper" shaper:fusionaddin="version:1.6.10" width="1.3462cm" height="0.7366cm" version="1.1" x="0cm" y="0cm" viewBox="0 0 1.3462 0.7366" enable-background="new 0 0 1.3462 0.7366" xml:space="preserve"><path d="M-0.6731,-0.3683 L-0.6731,0.3683 0.6731,0.3683 0.6731,-0.3683 -0.6731,-0.3683z" transform="matrix(1,0,0,-1,0.6731,0.3683)" fill="rgb(0,0,0)" shaper:cutDepth="0.000127" stroke-linecap="round" stroke-linejoin="round" /><path d="M-0.1142266,0.0167819 L-0.0660967,0.0167819 -0.0660967,0.0167819 -0.0604037,0.0167145 -0.054763,0.0159896 -0.0493637,0.0141044 -0.0447643,0.0107409 -0.0417321,0.0059187 -0.0401203,0.0004331 -0.0393707,-0.0109093 -0.0394425,-0.0887573 -0.0394425,-0.0887573 -0.0397917,-0.099594 -0.0415897,-0.1102847 -0.0452324,-0.1204935 -0.0505783,-0.129924 -0.0505783,-0.129924 -0.0583412,-0.1392149 -0.0672243,-0.1474344 -0.077084,-0.154456 -0.0876918,-0.1602884 -0.0988615,-0.164955 -0.1104809,-0.1683501 -0.1224076,-0.1704137 -0.1344924,-0.1711626 -0.1344924,-0.1711626 -0.1477542,-0.1704027 -0.1607965,-0.1679086 -0.17342,-0.1637884 -0.1853657,-0.1579856 -0.1965453,-0.1508171 -0.2068371,-0.1424207 -0.2162523,-0.1330531 -0.2248006,-0.1228833 -0.2248006,-0.1228833 -0.2337249,-0.1100705 -0.2416109,-0.0965975 -0.2482924,-0.082487 -0.2538995,-0.067916 -0.2583079,-0.0529392 -0.2614811,-0.0376526 -0.2634461,-0.0221648 -0.2641713,-0.0065675 -0.2641713,-0.0065675 -0.2629227,0.0141117 -0.2594814,0.0345421 -0.2538628,0.0544812 -0.2462671,0.0737561 -0.2367023,0.0921323 -0.231188,0.1009052 -0.2251656,0.1093371 -0.2186371,0.1173837 -0.2116186,0.1250066 -0.2041322,0.1321702 -0.1962066,0.1388453 -0.1962066,0.1388453 -0.1892252,0.1434672 -0.1819094,0.1475387 -0.174272,0.1509698 -0.1664035,0.1538313 -0.1583554,0.1561399 -0.1501612,0.157859 -0.1418512,0.1588809 -0.1334866,0.159249 -0.1334866,0.159249 -0.1220956,0.1586254 -0.110858,0.156679 -0.0999075,0.1534841 -0.0893697,0.1491195 -0.079413,0.1435527 -0.0700052,0.137101 -0.0612245,0.1298196 -0.0530211,0.12189 -0.0530211,0.12189 -0.0479927,0.1159602 -0.0434806,0.1096287 -0.0400734,0.1026398 -0.0389396,0.0949484 -0.0389396,0.0949484 -0.0404374,0.0866588 -0.0422226,0.0828652 -0.0447066,0.0793972 -0.0477066,0.0763424 -0.0511961,0.0740255 -0.055144,0.0726747 -0.0593433,0.0718864 -0.0593433,0.0718864 -0.0658045,0.0732626 -0.0686765,0.074662 -0.0712137,0.0766949 -0.0797471,0.0866864 -0.0797471,0.0866864 -0.0900456,0.0988127 -0.0958359,0.1042729 -0.1021064,0.1091741 -0.1089392,0.1132551 -0.116341,0.1161797 -0.1241086,0.1179134 -0.1320497,0.1184415 -0.1320497,0.1184415 -0.1426214,0.1175721 -0.1528863,0.11491 -0.1625458,0.1105293 -0.1714082,0.1047023 -0.1793797,0.0977026 -0.1865283,0.0898629 -0.1928981,0.0813788 -0.1986493,0.0724612 -0.1986493,0.0724612 -0.2043717,0.0637762 -0.209354,0.0546474 -0.2136099,0.0451575 -0.2170696,0.0353491 -0.2198046,0.0253146 -0.2217597,0.0150997 -0.2228738,0.0047594 -0.2232919,-0.0056335 -0.2232919,-0.0056335 -0.2226165,-0.0187949 -0.2207557,-0.0318386 -0.217709,-0.044659 -0.2137113,-0.0572156 -0.2087078,-0.069406 -0.2027282,-0.0811484 -0.1957329,-0.0923143 -0.1878008,-0.1028387 -0.1878008,-0.1028387 -0.1823252,-0.108815 -0.1763313,-0.1142712 -0.169854,-0.1191437 -0.162867,-0.1232522 -0.1554113,-0.1264318 -0.1476479,-0.1287613 -0.1396467,-0.1300568 -0.1315468,-0.1303551 -0.1315468,-0.1303551 -0.1246479,-0.129982 -0.1178401,-0.1288329 -0.1112148,-0.1268595 -0.104918,-0.124027 -0.0990694,-0.120346 -0.0937907,-0.1158865 -0.0893123,-0.1106305 -0.0856383,-0.1047785 -0.0856383,-0.1047785 -0.0828057,-0.0978666 -0.0811472,-0.0905831 -0.0801782,-0.0756832 -0.0801782,-0.0240257 -0.116244,-0.0240975 -0.116244,-0.0240975 -0.1255945,-0.0236871 -0.1344924,-0.0206489 -0.1344924,-0.0206489 -0.1381761,-0.0172306 -0.1409888,-0.0133217 -0.1425393,-0.0087017 -0.1434011,-0.0036937 -0.1434011,-0.0036937 -0.1423867,0.0021799 -0.1398971,0.0075797 -0.1357065,0.0117927 -0.130541,0.0147703 -0.130541,0.0147703 -0.1225061,0.0166688 -0.1142266,0.0167819z" transform="matrix(1,0,0,-1,0.6731,0.3683)" fill="rgb(159,159,159)" fill-rule="nonzero" shaper:cutDepth="0.0000762" stroke-linecap="round" stroke-linejoin="round" /><path d="M0.1322652,-0.1711626 L0.1322652,-0.1711626 0.1202797,-0.1702291 0.1085052,-0.1678189 0.0970539,-0.1641638 0.0860463,-0.1593334 0.0755584,-0.1534589 0.0656943,-0.1465886 0.0565976,-0.1387336 0.0484949,-0.1298522 0.0484949,-0.1298522 0.0394142,-0.1153999 0.0322521,-0.0999073 0.0266817,-0.0837725 0.0225626,-0.0672057 0.0196329,-0.0503865 0.0176958,-0.0334236 0.0166567,-0.0163821 0.0163086,0.0006888 0.0163086,0.0006888 0.0167862,0.018041 0.0181509,0.035344 0.0206868,0.0525142 0.0244198,0.0694642 0.0295327,0.0860482 0.0363556,0.102002 0.0450242,0.1170309 0.0556793,0.1307269 0.0556793,0.1307269 0.0635037,0.1378253 0.0719534,0.1441641 0.0809473,0.1497059 0.0903906,0.1544409 0.1002283,0.1582894 0.1103659,0.1612599 0.1207605,0.1631355 0.1312957,0.1639188 0.1312957,0.1639188 0.1401932,0.1633751 0.1490097,0.1620572 0.1576691,0.1599424 0.1661202,0.1571065 0.1743201,0.15361 0.1822187,0.149478 0.1897561,0.1447182 0.1969251,0.13942 0.1969251,0.13942 0.2041568,0.1327687 0.2106991,0.1254359 0.216593,0.1175736 0.2218147,0.1092495 0.2263971,0.1005568 0.2303515,0.091561 0.2366341,0.0729462 0.2409716,0.0537809 0.2437698,0.0343309 0.2452593,0.0147351 0.2456355,-0.004915 0.2456355,-0.004915 0.2451962,-0.0234753 0.2438076,-0.0419863 0.2412066,-0.0603661 0.2371555,-0.0784792 0.2314583,-0.0961432 0.2238173,-0.1130521 0.2191818,-0.1210941 0.2139679,-0.1287736 0.2018823,-0.142856 0.2018823,-0.142856 0.1945742,-0.1490807 0.1866875,-0.1545556 0.1783677,-0.1593477 0.1696368,-0.1633378 0.1606134,-0.1666138 0.1513165,-0.1690093 0.1418477,-0.1706017 0.1322652,-0.1711626z M0.1312594,-0.1303551 L0.1312594,-0.1303551 0.1377442,-0.1298551 0.1441136,-0.1285632 0.1562557,-0.1239354 0.1619648,-0.1208254 0.1673652,-0.1172002 0.1770242,-0.1085144 0.1770242,-0.1085144 0.1852319,-0.0971898 0.1916047,-0.0847437 0.1963787,-0.071596 0.1998724,-0.0580504 0.2022836,-0.0442696 0.2037939,-0.0303607 0.2048279,-0.0024005 0.2048279,-0.0024005 0.2045714,0.0122203 0.2035604,0.0268067 0.2016371,0.0413016 0.198691,0.0556221 0.1943888,0.0695929 0.1884756,0.0829596 0.1807697,0.095375 0.1710611,0.1062998 0.1710611,0.1062998 0.1623071,0.1129576 0.152583,0.1180856 0.1421925,0.1216858 0.1312957,0.1231112 0.1312957,0.1231112 0.1250308,0.1225244 0.1188691,0.1213126 0.1070389,0.1170584 0.0960774,0.110903 0.0865005,0.1027795 0.0865005,0.1027795 0.0780075,0.0920417 0.0714342,0.0800332 0.0664873,0.0672648 0.0628165,0.0540697 0.0601604,0.040633 0.0584348,0.0270451 0.057188,-0.000317 0.057188,-0.000317 0.0581059,-0.0269441 0.0594171,-0.0402023 0.0614477,-0.0533691 0.064398,-0.0663597 0.0685676,-0.0790093 0.0740188,-0.0911622 0.0810403,-0.1024795 0.0810403,-0.1024795 0.0857051,-0.1082657 0.0909588,-0.1135229 0.0967328,-0.1182028 0.1029807,-0.1222282 0.1096125,-0.1255837 0.1166142,-0.1280772 0.1238496,-0.1297768 0.1312594,-0.1303551z" transform="matrix(1,0,0,-1,0.6731,0.3683)" fill="rgb(159,159,159)" fill-rule="nonzero" shaper:cutDepth="0.0000762" stroke-linecap="round" stroke-linejoin="round" /></svg>