%TF.GenerationSoftware,KiCad,Pcbnew,(5.1.9)-1*%
%TF.CreationDate,2021-11-13T17:29:38-07:00*%
%TF.ProjectId,ABSIS_Bulkhead_Connector,41425349-535f-4427-956c-6b686561645f,rev?*%
%TF.SameCoordinates,Original*%
%TF.FileFunction,Copper,L3,Inr*%
%TF.FilePolarity,Positive*%
%FSLAX46Y46*%
G04 Gerber Fmt 4.6, Leading zero omitted, Abs format (unit mm)*
G04 Created by KiCad (PCBNEW (5.1.9)-1) date 2021-11-13 17:29:38*
%MOMM*%
%LPD*%
G01*
G04 APERTURE LIST*
%TA.AperFunction,ComponentPad*%
%ADD10O,2.700000X3.300000*%
%TD*%
%TA.AperFunction,Conductor*%
%ADD11C,3.657600*%
%TD*%
%TA.AperFunction,Conductor*%
%ADD12C,0.254000*%
%TD*%
%TA.AperFunction,Conductor*%
%ADD13C,0.100000*%
%TD*%
G04 APERTURE END LIST*
D10*
%TO.N,/BL_DATA2*%
%TO.C,J6*%
X160200000Y-78500000D03*
%TO.N,/BL_GND*%
X156000000Y-78500000D03*
%TO.N,/BL_+5V*%
X160200000Y-84000000D03*
%TA.AperFunction,ComponentPad*%
G36*
G01*
X154650000Y-85399999D02*
X154650000Y-82600001D01*
G75*
G02*
X154900001Y-82350000I250001J0D01*
G01*
X157099999Y-82350000D01*
G75*
G02*
X157350000Y-82600001I0J-250001D01*
G01*
X157350000Y-85399999D01*
G75*
G02*
X157099999Y-85650000I-250001J0D01*
G01*
X154900001Y-85650000D01*
G75*
G02*
X154650000Y-85399999I0J250001D01*
G01*
G37*
%TD.AperFunction*%
%TD*%
%TO.N,/BL_DATA2*%
%TO.C,J5*%
X160200000Y-69000000D03*
%TO.N,/BL_GND*%
X156000000Y-69000000D03*
%TO.N,/BL_+5V*%
X160200000Y-63500000D03*
%TA.AperFunction,ComponentPad*%
G36*
G01*
X154650000Y-64899999D02*
X154650000Y-62100001D01*
G75*
G02*
X154900001Y-61850000I250001J0D01*
G01*
X157099999Y-61850000D01*
G75*
G02*
X157350000Y-62100001I0J-250001D01*
G01*
X157350000Y-64899999D01*
G75*
G02*
X157099999Y-65150000I-250001J0D01*
G01*
X154900001Y-65150000D01*
G75*
G02*
X154650000Y-64899999I0J250001D01*
G01*
G37*
%TD.AperFunction*%
%TD*%
%TO.N,/BL_DATA1*%
%TO.C,J4*%
X146440000Y-78320000D03*
%TO.N,/BL_GND*%
X142240000Y-78320000D03*
%TO.N,/BL_+5V*%
X146440000Y-83820000D03*
%TA.AperFunction,ComponentPad*%
G36*
G01*
X140890000Y-85219999D02*
X140890000Y-82420001D01*
G75*
G02*
X141140001Y-82170000I250001J0D01*
G01*
X143339999Y-82170000D01*
G75*
G02*
X143590000Y-82420001I0J-250001D01*
G01*
X143590000Y-85219999D01*
G75*
G02*
X143339999Y-85470000I-250001J0D01*
G01*
X141140001Y-85470000D01*
G75*
G02*
X140890000Y-85219999I0J250001D01*
G01*
G37*
%TD.AperFunction*%
%TD*%
%TO.N,/ABSIS_+12V*%
%TO.C,J3*%
X126900000Y-78320000D03*
%TO.N,/ABSIS_+5V*%
X122700000Y-78320000D03*
X118500000Y-78320000D03*
%TO.N,/ABSIS_+3.3V*%
X114300000Y-78320000D03*
%TO.N,/ABSIS_+12V*%
X126900000Y-83820000D03*
X122700000Y-83820000D03*
%TO.N,/ABSIS_GND*%
X118500000Y-83820000D03*
%TA.AperFunction,ComponentPad*%
G36*
G01*
X112950000Y-85219999D02*
X112950000Y-82420001D01*
G75*
G02*
X113200001Y-82170000I250001J0D01*
G01*
X115399999Y-82170000D01*
G75*
G02*
X115650000Y-82420001I0J-250001D01*
G01*
X115650000Y-85219999D01*
G75*
G02*
X115399999Y-85470000I-250001J0D01*
G01*
X113200001Y-85470000D01*
G75*
G02*
X112950000Y-85219999I0J250001D01*
G01*
G37*
%TD.AperFunction*%
%TD*%
%TO.N,/BL_DATA1*%
%TO.C,J2*%
X146440000Y-69000000D03*
%TO.N,/BL_GND*%
X142240000Y-69000000D03*
%TO.N,/BL_+5V*%
X146440000Y-63500000D03*
%TA.AperFunction,ComponentPad*%
G36*
G01*
X140890000Y-64899999D02*
X140890000Y-62100001D01*
G75*
G02*
X141140001Y-61850000I250001J0D01*
G01*
X143339999Y-61850000D01*
G75*
G02*
X143590000Y-62100001I0J-250001D01*
G01*
X143590000Y-64899999D01*
G75*
G02*
X143339999Y-65150000I-250001J0D01*
G01*
X141140001Y-65150000D01*
G75*
G02*
X140890000Y-64899999I0J250001D01*
G01*
G37*
%TD.AperFunction*%
%TD*%
%TO.N,/ABSIS_+12V*%
%TO.C,J1*%
X126900000Y-69000000D03*
%TO.N,/ABSIS_+5V*%
X122700000Y-69000000D03*
X118500000Y-69000000D03*
%TO.N,/ABSIS_+3.3V*%
X114300000Y-69000000D03*
%TO.N,/ABSIS_+12V*%
X126900000Y-63500000D03*
X122700000Y-63500000D03*
%TO.N,/ABSIS_GND*%
X118500000Y-63500000D03*
%TA.AperFunction,ComponentPad*%
G36*
G01*
X112950000Y-64899999D02*
X112950000Y-62100001D01*
G75*
G02*
X113200001Y-61850000I250001J0D01*
G01*
X115399999Y-61850000D01*
G75*
G02*
X115650000Y-62100001I0J-250001D01*
G01*
X115650000Y-64899999D01*
G75*
G02*
X115399999Y-65150000I-250001J0D01*
G01*
X113200001Y-65150000D01*
G75*
G02*
X112950000Y-64899999I0J250001D01*
G01*
G37*
%TD.AperFunction*%
%TD*%
D11*
%TO.N,/ABSIS_+3.3V*%
X114300000Y-78320000D02*
X114300000Y-69000000D01*
%TD*%
D12*
%TO.N,/ABSIS_GND*%
X134493000Y-90780000D02*
X99720000Y-90780000D01*
X99720000Y-86100475D01*
X101505000Y-86100475D01*
X101505000Y-86619525D01*
X101606261Y-87128601D01*
X101804893Y-87608141D01*
X102093262Y-88039715D01*
X102460285Y-88406738D01*
X102891859Y-88695107D01*
X103371399Y-88893739D01*
X103880475Y-88995000D01*
X104399525Y-88995000D01*
X104908601Y-88893739D01*
X105388141Y-88695107D01*
X105819715Y-88406738D01*
X106186738Y-88039715D01*
X106475107Y-87608141D01*
X106673739Y-87128601D01*
X106775000Y-86619525D01*
X106775000Y-86100475D01*
X106673739Y-85591399D01*
X106475107Y-85111859D01*
X106186738Y-84680285D01*
X105819715Y-84313262D01*
X105388141Y-84024893D01*
X104908601Y-83826261D01*
X104399525Y-83725000D01*
X103880475Y-83725000D01*
X103371399Y-83826261D01*
X102891859Y-84024893D01*
X102460285Y-84313262D01*
X102093262Y-84680285D01*
X101804893Y-85111859D01*
X101606261Y-85591399D01*
X101505000Y-86100475D01*
X99720000Y-86100475D01*
X99720000Y-83422491D01*
X120715000Y-83422491D01*
X120715000Y-84217510D01*
X120743722Y-84509128D01*
X120857226Y-84883302D01*
X121041547Y-85228143D01*
X121289603Y-85530398D01*
X121591858Y-85778453D01*
X121936699Y-85962774D01*
X122310873Y-86076278D01*
X122700000Y-86114604D01*
X123089128Y-86076278D01*
X123463302Y-85962774D01*
X123808143Y-85778453D01*
X124110398Y-85530398D01*
X124358453Y-85228143D01*
X124542774Y-84883302D01*
X124656278Y-84509127D01*
X124685000Y-84217509D01*
X124685000Y-83422491D01*
X124915000Y-83422491D01*
X124915000Y-84217510D01*
X124943722Y-84509128D01*
X125057226Y-84883302D01*
X125241547Y-85228143D01*
X125489603Y-85530398D01*
X125791858Y-85778453D01*
X126136699Y-85962774D01*
X126510873Y-86076278D01*
X126900000Y-86114604D01*
X127289128Y-86076278D01*
X127663302Y-85962774D01*
X128008143Y-85778453D01*
X128310398Y-85530398D01*
X128558453Y-85228143D01*
X128742774Y-84883302D01*
X128856278Y-84509127D01*
X128885000Y-84217509D01*
X128885000Y-83422490D01*
X128856278Y-83130872D01*
X128742774Y-82756698D01*
X128558453Y-82411857D01*
X128310398Y-82109602D01*
X128008143Y-81861547D01*
X127663301Y-81677226D01*
X127289127Y-81563722D01*
X126900000Y-81525396D01*
X126510872Y-81563722D01*
X126136698Y-81677226D01*
X125791857Y-81861547D01*
X125489602Y-82109602D01*
X125241547Y-82411857D01*
X125057226Y-82756699D01*
X124943722Y-83130873D01*
X124915000Y-83422491D01*
X124685000Y-83422491D01*
X124685000Y-83422490D01*
X124656278Y-83130872D01*
X124542774Y-82756698D01*
X124358453Y-82411857D01*
X124110398Y-82109602D01*
X123808143Y-81861547D01*
X123463301Y-81677226D01*
X123089127Y-81563722D01*
X122700000Y-81525396D01*
X122310872Y-81563722D01*
X121936698Y-81677226D01*
X121591857Y-81861547D01*
X121289602Y-82109602D01*
X121041547Y-82411857D01*
X120857226Y-82756699D01*
X120743722Y-83130873D01*
X120715000Y-83422491D01*
X99720000Y-83422491D01*
X99720000Y-78569721D01*
X107465000Y-78569721D01*
X107465000Y-78990279D01*
X107547047Y-79402756D01*
X107707988Y-79791302D01*
X107941637Y-80140983D01*
X108239017Y-80438363D01*
X108588698Y-80672012D01*
X108977244Y-80832953D01*
X109389721Y-80915000D01*
X109810279Y-80915000D01*
X110222756Y-80832953D01*
X110611302Y-80672012D01*
X110960983Y-80438363D01*
X111258363Y-80140983D01*
X111492012Y-79791302D01*
X111652953Y-79402756D01*
X111735000Y-78990279D01*
X111735000Y-78569721D01*
X111709403Y-78441036D01*
X111836200Y-78441036D01*
X111871849Y-78802988D01*
X112012732Y-79267416D01*
X112241513Y-79695436D01*
X112549401Y-80070599D01*
X112924563Y-80378487D01*
X113352583Y-80607268D01*
X113817011Y-80748151D01*
X114300000Y-80795721D01*
X114782988Y-80748151D01*
X115247416Y-80607268D01*
X115675436Y-80378487D01*
X116050599Y-80070599D01*
X116358487Y-79695437D01*
X116587268Y-79267417D01*
X116604670Y-79210049D01*
X116657226Y-79383302D01*
X116841547Y-79728143D01*
X117089603Y-80030398D01*
X117391858Y-80278453D01*
X117736699Y-80462774D01*
X118110873Y-80576278D01*
X118500000Y-80614604D01*
X118889128Y-80576278D01*
X119263302Y-80462774D01*
X119608143Y-80278453D01*
X119910398Y-80030398D01*
X120158453Y-79728143D01*
X120342774Y-79383302D01*
X120456278Y-79009127D01*
X120485000Y-78717509D01*
X120485000Y-77922491D01*
X120715000Y-77922491D01*
X120715000Y-78717510D01*
X120743722Y-79009128D01*
X120857226Y-79383302D01*
X121041547Y-79728143D01*
X121289603Y-80030398D01*
X121591858Y-80278453D01*
X121936699Y-80462774D01*
X122310873Y-80576278D01*
X122700000Y-80614604D01*
X123089128Y-80576278D01*
X123463302Y-80462774D01*
X123808143Y-80278453D01*
X124110398Y-80030398D01*
X124358453Y-79728143D01*
X124542774Y-79383302D01*
X124656278Y-79009127D01*
X124685000Y-78717509D01*
X124685000Y-77922491D01*
X124915000Y-77922491D01*
X124915000Y-78717510D01*
X124943722Y-79009128D01*
X125057226Y-79383302D01*
X125241547Y-79728143D01*
X125489603Y-80030398D01*
X125791858Y-80278453D01*
X126136699Y-80462774D01*
X126510873Y-80576278D01*
X126900000Y-80614604D01*
X127289128Y-80576278D01*
X127663302Y-80462774D01*
X128008143Y-80278453D01*
X128310398Y-80030398D01*
X128558453Y-79728143D01*
X128742774Y-79383302D01*
X128856278Y-79009127D01*
X128885000Y-78717509D01*
X128885000Y-78569721D01*
X129465000Y-78569721D01*
X129465000Y-78990279D01*
X129547047Y-79402756D01*
X129707988Y-79791302D01*
X129941637Y-80140983D01*
X130239017Y-80438363D01*
X130588698Y-80672012D01*
X130977244Y-80832953D01*
X131389721Y-80915000D01*
X131810279Y-80915000D01*
X132222756Y-80832953D01*
X132611302Y-80672012D01*
X132960983Y-80438363D01*
X133258363Y-80140983D01*
X133492012Y-79791302D01*
X133652953Y-79402756D01*
X133735000Y-78990279D01*
X133735000Y-78569721D01*
X133652953Y-78157244D01*
X133492012Y-77768698D01*
X133258363Y-77419017D01*
X132960983Y-77121637D01*
X132611302Y-76887988D01*
X132222756Y-76727047D01*
X131810279Y-76645000D01*
X131389721Y-76645000D01*
X130977244Y-76727047D01*
X130588698Y-76887988D01*
X130239017Y-77121637D01*
X129941637Y-77419017D01*
X129707988Y-77768698D01*
X129547047Y-78157244D01*
X129465000Y-78569721D01*
X128885000Y-78569721D01*
X128885000Y-77922490D01*
X128856278Y-77630872D01*
X128742774Y-77256698D01*
X128558453Y-76911857D01*
X128310398Y-76609602D01*
X128008143Y-76361547D01*
X127663301Y-76177226D01*
X127289127Y-76063722D01*
X126900000Y-76025396D01*
X126510872Y-76063722D01*
X126136698Y-76177226D01*
X125791857Y-76361547D01*
X125489602Y-76609602D01*
X125241547Y-76911857D01*
X125057226Y-77256699D01*
X124943722Y-77630873D01*
X124915000Y-77922491D01*
X124685000Y-77922491D01*
X124685000Y-77922490D01*
X124656278Y-77630872D01*
X124542774Y-77256698D01*
X124358453Y-76911857D01*
X124110398Y-76609602D01*
X123808143Y-76361547D01*
X123463301Y-76177226D01*
X123089127Y-76063722D01*
X122700000Y-76025396D01*
X122310872Y-76063722D01*
X121936698Y-76177226D01*
X121591857Y-76361547D01*
X121289602Y-76609602D01*
X121041547Y-76911857D01*
X120857226Y-77256699D01*
X120743722Y-77630873D01*
X120715000Y-77922491D01*
X120485000Y-77922491D01*
X120485000Y-77922490D01*
X120456278Y-77630872D01*
X120342774Y-77256698D01*
X120158453Y-76911857D01*
X119910398Y-76609602D01*
X119608143Y-76361547D01*
X119263301Y-76177226D01*
X118889127Y-76063722D01*
X118500000Y-76025396D01*
X118110872Y-76063722D01*
X117736698Y-76177226D01*
X117391857Y-76361547D01*
X117089602Y-76609602D01*
X116841547Y-76911857D01*
X116763800Y-77057312D01*
X116763800Y-70262688D01*
X116841547Y-70408143D01*
X117089603Y-70710398D01*
X117391858Y-70958453D01*
X117736699Y-71142774D01*
X118110873Y-71256278D01*
X118500000Y-71294604D01*
X118889128Y-71256278D01*
X119263302Y-71142774D01*
X119608143Y-70958453D01*
X119910398Y-70710398D01*
X120158453Y-70408143D01*
X120342774Y-70063302D01*
X120456278Y-69689127D01*
X120485000Y-69397509D01*
X120485000Y-68602491D01*
X120715000Y-68602491D01*
X120715000Y-69397510D01*
X120743722Y-69689128D01*
X120857226Y-70063302D01*
X121041547Y-70408143D01*
X121289603Y-70710398D01*
X121591858Y-70958453D01*
X121936699Y-71142774D01*
X122310873Y-71256278D01*
X122700000Y-71294604D01*
X123089128Y-71256278D01*
X123463302Y-71142774D01*
X123808143Y-70958453D01*
X124110398Y-70710398D01*
X124358453Y-70408143D01*
X124542774Y-70063302D01*
X124656278Y-69689127D01*
X124685000Y-69397509D01*
X124685000Y-68602491D01*
X124915000Y-68602491D01*
X124915000Y-69397510D01*
X124943722Y-69689128D01*
X125057226Y-70063302D01*
X125241547Y-70408143D01*
X125489603Y-70710398D01*
X125791858Y-70958453D01*
X126136699Y-71142774D01*
X126510873Y-71256278D01*
X126900000Y-71294604D01*
X127289128Y-71256278D01*
X127663302Y-71142774D01*
X128008143Y-70958453D01*
X128310398Y-70710398D01*
X128558453Y-70408143D01*
X128742774Y-70063302D01*
X128856278Y-69689127D01*
X128885000Y-69397509D01*
X128885000Y-68602490D01*
X128858135Y-68329721D01*
X129465000Y-68329721D01*
X129465000Y-68750279D01*
X129547047Y-69162756D01*
X129707988Y-69551302D01*
X129941637Y-69900983D01*
X130239017Y-70198363D01*
X130588698Y-70432012D01*
X130977244Y-70592953D01*
X131389721Y-70675000D01*
X131810279Y-70675000D01*
X132222756Y-70592953D01*
X132611302Y-70432012D01*
X132960983Y-70198363D01*
X133258363Y-69900983D01*
X133492012Y-69551302D01*
X133652953Y-69162756D01*
X133735000Y-68750279D01*
X133735000Y-68329721D01*
X133652953Y-67917244D01*
X133492012Y-67528698D01*
X133258363Y-67179017D01*
X132960983Y-66881637D01*
X132611302Y-66647988D01*
X132222756Y-66487047D01*
X131810279Y-66405000D01*
X131389721Y-66405000D01*
X130977244Y-66487047D01*
X130588698Y-66647988D01*
X130239017Y-66881637D01*
X129941637Y-67179017D01*
X129707988Y-67528698D01*
X129547047Y-67917244D01*
X129465000Y-68329721D01*
X128858135Y-68329721D01*
X128856278Y-68310872D01*
X128742774Y-67936698D01*
X128558453Y-67591857D01*
X128310398Y-67289602D01*
X128008143Y-67041547D01*
X127663301Y-66857226D01*
X127289127Y-66743722D01*
X126900000Y-66705396D01*
X126510872Y-66743722D01*
X126136698Y-66857226D01*
X125791857Y-67041547D01*
X125489602Y-67289602D01*
X125241547Y-67591857D01*
X125057226Y-67936699D01*
X124943722Y-68310873D01*
X124915000Y-68602491D01*
X124685000Y-68602491D01*
X124685000Y-68602490D01*
X124656278Y-68310872D01*
X124542774Y-67936698D01*
X124358453Y-67591857D01*
X124110398Y-67289602D01*
X123808143Y-67041547D01*
X123463301Y-66857226D01*
X123089127Y-66743722D01*
X122700000Y-66705396D01*
X122310872Y-66743722D01*
X121936698Y-66857226D01*
X121591857Y-67041547D01*
X121289602Y-67289602D01*
X121041547Y-67591857D01*
X120857226Y-67936699D01*
X120743722Y-68310873D01*
X120715000Y-68602491D01*
X120485000Y-68602491D01*
X120485000Y-68602490D01*
X120456278Y-68310872D01*
X120342774Y-67936698D01*
X120158453Y-67591857D01*
X119910398Y-67289602D01*
X119608143Y-67041547D01*
X119263301Y-66857226D01*
X118889127Y-66743722D01*
X118500000Y-66705396D01*
X118110872Y-66743722D01*
X117736698Y-66857226D01*
X117391857Y-67041547D01*
X117089602Y-67289602D01*
X116841547Y-67591857D01*
X116657226Y-67936699D01*
X116604671Y-68109952D01*
X116587268Y-68052583D01*
X116358487Y-67624563D01*
X116050599Y-67249401D01*
X115675437Y-66941513D01*
X115247417Y-66712732D01*
X114782989Y-66571849D01*
X114300000Y-66524279D01*
X113817012Y-66571849D01*
X113352584Y-66712732D01*
X112924564Y-66941513D01*
X112549402Y-67249401D01*
X112241514Y-67624563D01*
X112012733Y-68052583D01*
X111871850Y-68517011D01*
X111836201Y-68878963D01*
X111836200Y-78441036D01*
X111709403Y-78441036D01*
X111652953Y-78157244D01*
X111492012Y-77768698D01*
X111258363Y-77419017D01*
X110960983Y-77121637D01*
X110611302Y-76887988D01*
X110222756Y-76727047D01*
X109810279Y-76645000D01*
X109389721Y-76645000D01*
X108977244Y-76727047D01*
X108588698Y-76887988D01*
X108239017Y-77121637D01*
X107941637Y-77419017D01*
X107707988Y-77768698D01*
X107547047Y-78157244D01*
X107465000Y-78569721D01*
X99720000Y-78569721D01*
X99720000Y-68329721D01*
X107465000Y-68329721D01*
X107465000Y-68750279D01*
X107547047Y-69162756D01*
X107707988Y-69551302D01*
X107941637Y-69900983D01*
X108239017Y-70198363D01*
X108588698Y-70432012D01*
X108977244Y-70592953D01*
X109389721Y-70675000D01*
X109810279Y-70675000D01*
X110222756Y-70592953D01*
X110611302Y-70432012D01*
X110960983Y-70198363D01*
X111258363Y-69900983D01*
X111492012Y-69551302D01*
X111652953Y-69162756D01*
X111735000Y-68750279D01*
X111735000Y-68329721D01*
X111652953Y-67917244D01*
X111492012Y-67528698D01*
X111258363Y-67179017D01*
X110960983Y-66881637D01*
X110611302Y-66647988D01*
X110222756Y-66487047D01*
X109810279Y-66405000D01*
X109389721Y-66405000D01*
X108977244Y-66487047D01*
X108588698Y-66647988D01*
X108239017Y-66881637D01*
X107941637Y-67179017D01*
X107707988Y-67528698D01*
X107547047Y-67917244D01*
X107465000Y-68329721D01*
X99720000Y-68329721D01*
X99720000Y-60700475D01*
X101505000Y-60700475D01*
X101505000Y-61219525D01*
X101606261Y-61728601D01*
X101804893Y-62208141D01*
X102093262Y-62639715D01*
X102460285Y-63006738D01*
X102891859Y-63295107D01*
X103371399Y-63493739D01*
X103880475Y-63595000D01*
X104399525Y-63595000D01*
X104908601Y-63493739D01*
X105388141Y-63295107D01*
X105676410Y-63102491D01*
X120715000Y-63102491D01*
X120715000Y-63897510D01*
X120743722Y-64189128D01*
X120857226Y-64563302D01*
X121041547Y-64908143D01*
X121289603Y-65210398D01*
X121591858Y-65458453D01*
X121936699Y-65642774D01*
X122310873Y-65756278D01*
X122700000Y-65794604D01*
X123089128Y-65756278D01*
X123463302Y-65642774D01*
X123808143Y-65458453D01*
X124110398Y-65210398D01*
X124358453Y-64908143D01*
X124542774Y-64563302D01*
X124656278Y-64189127D01*
X124685000Y-63897509D01*
X124685000Y-63102491D01*
X124915000Y-63102491D01*
X124915000Y-63897510D01*
X124943722Y-64189128D01*
X125057226Y-64563302D01*
X125241547Y-64908143D01*
X125489603Y-65210398D01*
X125791858Y-65458453D01*
X126136699Y-65642774D01*
X126510873Y-65756278D01*
X126900000Y-65794604D01*
X127289128Y-65756278D01*
X127663302Y-65642774D01*
X128008143Y-65458453D01*
X128310398Y-65210398D01*
X128558453Y-64908143D01*
X128742774Y-64563302D01*
X128856278Y-64189127D01*
X128885000Y-63897509D01*
X128885000Y-63102490D01*
X128856278Y-62810872D01*
X128742774Y-62436698D01*
X128558453Y-62091857D01*
X128310398Y-61789602D01*
X128008143Y-61541547D01*
X127663301Y-61357226D01*
X127289127Y-61243722D01*
X126900000Y-61205396D01*
X126510872Y-61243722D01*
X126136698Y-61357226D01*
X125791857Y-61541547D01*
X125489602Y-61789602D01*
X125241547Y-62091857D01*
X125057226Y-62436699D01*
X124943722Y-62810873D01*
X124915000Y-63102491D01*
X124685000Y-63102491D01*
X124685000Y-63102490D01*
X124656278Y-62810872D01*
X124542774Y-62436698D01*
X124358453Y-62091857D01*
X124110398Y-61789602D01*
X123808143Y-61541547D01*
X123463301Y-61357226D01*
X123089127Y-61243722D01*
X122700000Y-61205396D01*
X122310872Y-61243722D01*
X121936698Y-61357226D01*
X121591857Y-61541547D01*
X121289602Y-61789602D01*
X121041547Y-62091857D01*
X120857226Y-62436699D01*
X120743722Y-62810873D01*
X120715000Y-63102491D01*
X105676410Y-63102491D01*
X105819715Y-63006738D01*
X106186738Y-62639715D01*
X106475107Y-62208141D01*
X106673739Y-61728601D01*
X106775000Y-61219525D01*
X106775000Y-60700475D01*
X106673739Y-60191399D01*
X106475107Y-59711859D01*
X106186738Y-59280285D01*
X105819715Y-58913262D01*
X105388141Y-58624893D01*
X104908601Y-58426261D01*
X104399525Y-58325000D01*
X103880475Y-58325000D01*
X103371399Y-58426261D01*
X102891859Y-58624893D01*
X102460285Y-58913262D01*
X102093262Y-59280285D01*
X101804893Y-59711859D01*
X101606261Y-60191399D01*
X101505000Y-60700475D01*
X99720000Y-60700475D01*
X99720000Y-56540000D01*
X134493000Y-56540000D01*
X134493000Y-90780000D01*
%TA.AperFunction,Conductor*%
D13*
G36*
X134493000Y-90780000D02*
G01*
X99720000Y-90780000D01*
X99720000Y-86100475D01*
X101505000Y-86100475D01*
X101505000Y-86619525D01*
X101606261Y-87128601D01*
X101804893Y-87608141D01*
X102093262Y-88039715D01*
X102460285Y-88406738D01*
X102891859Y-88695107D01*
X103371399Y-88893739D01*
X103880475Y-88995000D01*
X104399525Y-88995000D01*
X104908601Y-88893739D01*
X105388141Y-88695107D01*
X105819715Y-88406738D01*
X106186738Y-88039715D01*
X106475107Y-87608141D01*
X106673739Y-87128601D01*
X106775000Y-86619525D01*
X106775000Y-86100475D01*
X106673739Y-85591399D01*
X106475107Y-85111859D01*
X106186738Y-84680285D01*
X105819715Y-84313262D01*
X105388141Y-84024893D01*
X104908601Y-83826261D01*
X104399525Y-83725000D01*
X103880475Y-83725000D01*
X103371399Y-83826261D01*
X102891859Y-84024893D01*
X102460285Y-84313262D01*
X102093262Y-84680285D01*
X101804893Y-85111859D01*
X101606261Y-85591399D01*
X101505000Y-86100475D01*
X99720000Y-86100475D01*
X99720000Y-83422491D01*
X120715000Y-83422491D01*
X120715000Y-84217510D01*
X120743722Y-84509128D01*
X120857226Y-84883302D01*
X121041547Y-85228143D01*
X121289603Y-85530398D01*
X121591858Y-85778453D01*
X121936699Y-85962774D01*
X122310873Y-86076278D01*
X122700000Y-86114604D01*
X123089128Y-86076278D01*
X123463302Y-85962774D01*
X123808143Y-85778453D01*
X124110398Y-85530398D01*
X124358453Y-85228143D01*
X124542774Y-84883302D01*
X124656278Y-84509127D01*
X124685000Y-84217509D01*
X124685000Y-83422491D01*
X124915000Y-83422491D01*
X124915000Y-84217510D01*
X124943722Y-84509128D01*
X125057226Y-84883302D01*
X125241547Y-85228143D01*
X125489603Y-85530398D01*
X125791858Y-85778453D01*
X126136699Y-85962774D01*
X126510873Y-86076278D01*
X126900000Y-86114604D01*
X127289128Y-86076278D01*
X127663302Y-85962774D01*
X128008143Y-85778453D01*
X128310398Y-85530398D01*
X128558453Y-85228143D01*
X128742774Y-84883302D01*
X128856278Y-84509127D01*
X128885000Y-84217509D01*
X128885000Y-83422490D01*
X128856278Y-83130872D01*
X128742774Y-82756698D01*
X128558453Y-82411857D01*
X128310398Y-82109602D01*
X128008143Y-81861547D01*
X127663301Y-81677226D01*
X127289127Y-81563722D01*
X126900000Y-81525396D01*
X126510872Y-81563722D01*
X126136698Y-81677226D01*
X125791857Y-81861547D01*
X125489602Y-82109602D01*
X125241547Y-82411857D01*
X125057226Y-82756699D01*
X124943722Y-83130873D01*
X124915000Y-83422491D01*
X124685000Y-83422491D01*
X124685000Y-83422490D01*
X124656278Y-83130872D01*
X124542774Y-82756698D01*
X124358453Y-82411857D01*
X124110398Y-82109602D01*
X123808143Y-81861547D01*
X123463301Y-81677226D01*
X123089127Y-81563722D01*
X122700000Y-81525396D01*
X122310872Y-81563722D01*
X121936698Y-81677226D01*
X121591857Y-81861547D01*
X121289602Y-82109602D01*
X121041547Y-82411857D01*
X120857226Y-82756699D01*
X120743722Y-83130873D01*
X120715000Y-83422491D01*
X99720000Y-83422491D01*
X99720000Y-78569721D01*
X107465000Y-78569721D01*
X107465000Y-78990279D01*
X107547047Y-79402756D01*
X107707988Y-79791302D01*
X107941637Y-80140983D01*
X108239017Y-80438363D01*
X108588698Y-80672012D01*
X108977244Y-80832953D01*
X109389721Y-80915000D01*
X109810279Y-80915000D01*
X110222756Y-80832953D01*
X110611302Y-80672012D01*
X110960983Y-80438363D01*
X111258363Y-80140983D01*
X111492012Y-79791302D01*
X111652953Y-79402756D01*
X111735000Y-78990279D01*
X111735000Y-78569721D01*
X111709403Y-78441036D01*
X111836200Y-78441036D01*
X111871849Y-78802988D01*
X112012732Y-79267416D01*
X112241513Y-79695436D01*
X112549401Y-80070599D01*
X112924563Y-80378487D01*
X113352583Y-80607268D01*
X113817011Y-80748151D01*
X114300000Y-80795721D01*
X114782988Y-80748151D01*
X115247416Y-80607268D01*
X115675436Y-80378487D01*
X116050599Y-80070599D01*
X116358487Y-79695437D01*
X116587268Y-79267417D01*
X116604670Y-79210049D01*
X116657226Y-79383302D01*
X116841547Y-79728143D01*
X117089603Y-80030398D01*
X117391858Y-80278453D01*
X117736699Y-80462774D01*
X118110873Y-80576278D01*
X118500000Y-80614604D01*
X118889128Y-80576278D01*
X119263302Y-80462774D01*
X119608143Y-80278453D01*
X119910398Y-80030398D01*
X120158453Y-79728143D01*
X120342774Y-79383302D01*
X120456278Y-79009127D01*
X120485000Y-78717509D01*
X120485000Y-77922491D01*
X120715000Y-77922491D01*
X120715000Y-78717510D01*
X120743722Y-79009128D01*
X120857226Y-79383302D01*
X121041547Y-79728143D01*
X121289603Y-80030398D01*
X121591858Y-80278453D01*
X121936699Y-80462774D01*
X122310873Y-80576278D01*
X122700000Y-80614604D01*
X123089128Y-80576278D01*
X123463302Y-80462774D01*
X123808143Y-80278453D01*
X124110398Y-80030398D01*
X124358453Y-79728143D01*
X124542774Y-79383302D01*
X124656278Y-79009127D01*
X124685000Y-78717509D01*
X124685000Y-77922491D01*
X124915000Y-77922491D01*
X124915000Y-78717510D01*
X124943722Y-79009128D01*
X125057226Y-79383302D01*
X125241547Y-79728143D01*
X125489603Y-80030398D01*
X125791858Y-80278453D01*
X126136699Y-80462774D01*
X126510873Y-80576278D01*
X126900000Y-80614604D01*
X127289128Y-80576278D01*
X127663302Y-80462774D01*
X128008143Y-80278453D01*
X128310398Y-80030398D01*
X128558453Y-79728143D01*
X128742774Y-79383302D01*
X128856278Y-79009127D01*
X128885000Y-78717509D01*
X128885000Y-78569721D01*
X129465000Y-78569721D01*
X129465000Y-78990279D01*
X129547047Y-79402756D01*
X129707988Y-79791302D01*
X129941637Y-80140983D01*
X130239017Y-80438363D01*
X130588698Y-80672012D01*
X130977244Y-80832953D01*
X131389721Y-80915000D01*
X131810279Y-80915000D01*
X132222756Y-80832953D01*
X132611302Y-80672012D01*
X132960983Y-80438363D01*
X133258363Y-80140983D01*
X133492012Y-79791302D01*
X133652953Y-79402756D01*
X133735000Y-78990279D01*
X133735000Y-78569721D01*
X133652953Y-78157244D01*
X133492012Y-77768698D01*
X133258363Y-77419017D01*
X132960983Y-77121637D01*
X132611302Y-76887988D01*
X132222756Y-76727047D01*
X131810279Y-76645000D01*
X131389721Y-76645000D01*
X130977244Y-76727047D01*
X130588698Y-76887988D01*
X130239017Y-77121637D01*
X129941637Y-77419017D01*
X129707988Y-77768698D01*
X129547047Y-78157244D01*
X129465000Y-78569721D01*
X128885000Y-78569721D01*
X128885000Y-77922490D01*
X128856278Y-77630872D01*
X128742774Y-77256698D01*
X128558453Y-76911857D01*
X128310398Y-76609602D01*
X128008143Y-76361547D01*
X127663301Y-76177226D01*
X127289127Y-76063722D01*
X126900000Y-76025396D01*
X126510872Y-76063722D01*
X126136698Y-76177226D01*
X125791857Y-76361547D01*
X125489602Y-76609602D01*
X125241547Y-76911857D01*
X125057226Y-77256699D01*
X124943722Y-77630873D01*
X124915000Y-77922491D01*
X124685000Y-77922491D01*
X124685000Y-77922490D01*
X124656278Y-77630872D01*
X124542774Y-77256698D01*
X124358453Y-76911857D01*
X124110398Y-76609602D01*
X123808143Y-76361547D01*
X123463301Y-76177226D01*
X123089127Y-76063722D01*
X122700000Y-76025396D01*
X122310872Y-76063722D01*
X121936698Y-76177226D01*
X121591857Y-76361547D01*
X121289602Y-76609602D01*
X121041547Y-76911857D01*
X120857226Y-77256699D01*
X120743722Y-77630873D01*
X120715000Y-77922491D01*
X120485000Y-77922491D01*
X120485000Y-77922490D01*
X120456278Y-77630872D01*
X120342774Y-77256698D01*
X120158453Y-76911857D01*
X119910398Y-76609602D01*
X119608143Y-76361547D01*
X119263301Y-76177226D01*
X118889127Y-76063722D01*
X118500000Y-76025396D01*
X118110872Y-76063722D01*
X117736698Y-76177226D01*
X117391857Y-76361547D01*
X117089602Y-76609602D01*
X116841547Y-76911857D01*
X116763800Y-77057312D01*
X116763800Y-70262688D01*
X116841547Y-70408143D01*
X117089603Y-70710398D01*
X117391858Y-70958453D01*
X117736699Y-71142774D01*
X118110873Y-71256278D01*
X118500000Y-71294604D01*
X118889128Y-71256278D01*
X119263302Y-71142774D01*
X119608143Y-70958453D01*
X119910398Y-70710398D01*
X120158453Y-70408143D01*
X120342774Y-70063302D01*
X120456278Y-69689127D01*
X120485000Y-69397509D01*
X120485000Y-68602491D01*
X120715000Y-68602491D01*
X120715000Y-69397510D01*
X120743722Y-69689128D01*
X120857226Y-70063302D01*
X121041547Y-70408143D01*
X121289603Y-70710398D01*
X121591858Y-70958453D01*
X121936699Y-71142774D01*
X122310873Y-71256278D01*
X122700000Y-71294604D01*
X123089128Y-71256278D01*
X123463302Y-71142774D01*
X123808143Y-70958453D01*
X124110398Y-70710398D01*
X124358453Y-70408143D01*
X124542774Y-70063302D01*
X124656278Y-69689127D01*
X124685000Y-69397509D01*
X124685000Y-68602491D01*
X124915000Y-68602491D01*
X124915000Y-69397510D01*
X124943722Y-69689128D01*
X125057226Y-70063302D01*
X125241547Y-70408143D01*
X125489603Y-70710398D01*
X125791858Y-70958453D01*
X126136699Y-71142774D01*
X126510873Y-71256278D01*
X126900000Y-71294604D01*
X127289128Y-71256278D01*
X127663302Y-71142774D01*
X128008143Y-70958453D01*
X128310398Y-70710398D01*
X128558453Y-70408143D01*
X128742774Y-70063302D01*
X128856278Y-69689127D01*
X128885000Y-69397509D01*
X128885000Y-68602490D01*
X128858135Y-68329721D01*
X129465000Y-68329721D01*
X129465000Y-68750279D01*
X129547047Y-69162756D01*
X129707988Y-69551302D01*
X129941637Y-69900983D01*
X130239017Y-70198363D01*
X130588698Y-70432012D01*
X130977244Y-70592953D01*
X131389721Y-70675000D01*
X131810279Y-70675000D01*
X132222756Y-70592953D01*
X132611302Y-70432012D01*
X132960983Y-70198363D01*
X133258363Y-69900983D01*
X133492012Y-69551302D01*
X133652953Y-69162756D01*
X133735000Y-68750279D01*
X133735000Y-68329721D01*
X133652953Y-67917244D01*
X133492012Y-67528698D01*
X133258363Y-67179017D01*
X132960983Y-66881637D01*
X132611302Y-66647988D01*
X132222756Y-66487047D01*
X131810279Y-66405000D01*
X131389721Y-66405000D01*
X130977244Y-66487047D01*
X130588698Y-66647988D01*
X130239017Y-66881637D01*
X129941637Y-67179017D01*
X129707988Y-67528698D01*
X129547047Y-67917244D01*
X129465000Y-68329721D01*
X128858135Y-68329721D01*
X128856278Y-68310872D01*
X128742774Y-67936698D01*
X128558453Y-67591857D01*
X128310398Y-67289602D01*
X128008143Y-67041547D01*
X127663301Y-66857226D01*
X127289127Y-66743722D01*
X126900000Y-66705396D01*
X126510872Y-66743722D01*
X126136698Y-66857226D01*
X125791857Y-67041547D01*
X125489602Y-67289602D01*
X125241547Y-67591857D01*
X125057226Y-67936699D01*
X124943722Y-68310873D01*
X124915000Y-68602491D01*
X124685000Y-68602491D01*
X124685000Y-68602490D01*
X124656278Y-68310872D01*
X124542774Y-67936698D01*
X124358453Y-67591857D01*
X124110398Y-67289602D01*
X123808143Y-67041547D01*
X123463301Y-66857226D01*
X123089127Y-66743722D01*
X122700000Y-66705396D01*
X122310872Y-66743722D01*
X121936698Y-66857226D01*
X121591857Y-67041547D01*
X121289602Y-67289602D01*
X121041547Y-67591857D01*
X120857226Y-67936699D01*
X120743722Y-68310873D01*
X120715000Y-68602491D01*
X120485000Y-68602491D01*
X120485000Y-68602490D01*
X120456278Y-68310872D01*
X120342774Y-67936698D01*
X120158453Y-67591857D01*
X119910398Y-67289602D01*
X119608143Y-67041547D01*
X119263301Y-66857226D01*
X118889127Y-66743722D01*
X118500000Y-66705396D01*
X118110872Y-66743722D01*
X117736698Y-66857226D01*
X117391857Y-67041547D01*
X117089602Y-67289602D01*
X116841547Y-67591857D01*
X116657226Y-67936699D01*
X116604671Y-68109952D01*
X116587268Y-68052583D01*
X116358487Y-67624563D01*
X116050599Y-67249401D01*
X115675437Y-66941513D01*
X115247417Y-66712732D01*
X114782989Y-66571849D01*
X114300000Y-66524279D01*
X113817012Y-66571849D01*
X113352584Y-66712732D01*
X112924564Y-66941513D01*
X112549402Y-67249401D01*
X112241514Y-67624563D01*
X112012733Y-68052583D01*
X111871850Y-68517011D01*
X111836201Y-68878963D01*
X111836200Y-78441036D01*
X111709403Y-78441036D01*
X111652953Y-78157244D01*
X111492012Y-77768698D01*
X111258363Y-77419017D01*
X110960983Y-77121637D01*
X110611302Y-76887988D01*
X110222756Y-76727047D01*
X109810279Y-76645000D01*
X109389721Y-76645000D01*
X108977244Y-76727047D01*
X108588698Y-76887988D01*
X108239017Y-77121637D01*
X107941637Y-77419017D01*
X107707988Y-77768698D01*
X107547047Y-78157244D01*
X107465000Y-78569721D01*
X99720000Y-78569721D01*
X99720000Y-68329721D01*
X107465000Y-68329721D01*
X107465000Y-68750279D01*
X107547047Y-69162756D01*
X107707988Y-69551302D01*
X107941637Y-69900983D01*
X108239017Y-70198363D01*
X108588698Y-70432012D01*
X108977244Y-70592953D01*
X109389721Y-70675000D01*
X109810279Y-70675000D01*
X110222756Y-70592953D01*
X110611302Y-70432012D01*
X110960983Y-70198363D01*
X111258363Y-69900983D01*
X111492012Y-69551302D01*
X111652953Y-69162756D01*
X111735000Y-68750279D01*
X111735000Y-68329721D01*
X111652953Y-67917244D01*
X111492012Y-67528698D01*
X111258363Y-67179017D01*
X110960983Y-66881637D01*
X110611302Y-66647988D01*
X110222756Y-66487047D01*
X109810279Y-66405000D01*
X109389721Y-66405000D01*
X108977244Y-66487047D01*
X108588698Y-66647988D01*
X108239017Y-66881637D01*
X107941637Y-67179017D01*
X107707988Y-67528698D01*
X107547047Y-67917244D01*
X107465000Y-68329721D01*
X99720000Y-68329721D01*
X99720000Y-60700475D01*
X101505000Y-60700475D01*
X101505000Y-61219525D01*
X101606261Y-61728601D01*
X101804893Y-62208141D01*
X102093262Y-62639715D01*
X102460285Y-63006738D01*
X102891859Y-63295107D01*
X103371399Y-63493739D01*
X103880475Y-63595000D01*
X104399525Y-63595000D01*
X104908601Y-63493739D01*
X105388141Y-63295107D01*
X105676410Y-63102491D01*
X120715000Y-63102491D01*
X120715000Y-63897510D01*
X120743722Y-64189128D01*
X120857226Y-64563302D01*
X121041547Y-64908143D01*
X121289603Y-65210398D01*
X121591858Y-65458453D01*
X121936699Y-65642774D01*
X122310873Y-65756278D01*
X122700000Y-65794604D01*
X123089128Y-65756278D01*
X123463302Y-65642774D01*
X123808143Y-65458453D01*
X124110398Y-65210398D01*
X124358453Y-64908143D01*
X124542774Y-64563302D01*
X124656278Y-64189127D01*
X124685000Y-63897509D01*
X124685000Y-63102491D01*
X124915000Y-63102491D01*
X124915000Y-63897510D01*
X124943722Y-64189128D01*
X125057226Y-64563302D01*
X125241547Y-64908143D01*
X125489603Y-65210398D01*
X125791858Y-65458453D01*
X126136699Y-65642774D01*
X126510873Y-65756278D01*
X126900000Y-65794604D01*
X127289128Y-65756278D01*
X127663302Y-65642774D01*
X128008143Y-65458453D01*
X128310398Y-65210398D01*
X128558453Y-64908143D01*
X128742774Y-64563302D01*
X128856278Y-64189127D01*
X128885000Y-63897509D01*
X128885000Y-63102490D01*
X128856278Y-62810872D01*
X128742774Y-62436698D01*
X128558453Y-62091857D01*
X128310398Y-61789602D01*
X128008143Y-61541547D01*
X127663301Y-61357226D01*
X127289127Y-61243722D01*
X126900000Y-61205396D01*
X126510872Y-61243722D01*
X126136698Y-61357226D01*
X125791857Y-61541547D01*
X125489602Y-61789602D01*
X125241547Y-62091857D01*
X125057226Y-62436699D01*
X124943722Y-62810873D01*
X124915000Y-63102491D01*
X124685000Y-63102491D01*
X124685000Y-63102490D01*
X124656278Y-62810872D01*
X124542774Y-62436698D01*
X124358453Y-62091857D01*
X124110398Y-61789602D01*
X123808143Y-61541547D01*
X123463301Y-61357226D01*
X123089127Y-61243722D01*
X122700000Y-61205396D01*
X122310872Y-61243722D01*
X121936698Y-61357226D01*
X121591857Y-61541547D01*
X121289602Y-61789602D01*
X121041547Y-62091857D01*
X120857226Y-62436699D01*
X120743722Y-62810873D01*
X120715000Y-63102491D01*
X105676410Y-63102491D01*
X105819715Y-63006738D01*
X106186738Y-62639715D01*
X106475107Y-62208141D01*
X106673739Y-61728601D01*
X106775000Y-61219525D01*
X106775000Y-60700475D01*
X106673739Y-60191399D01*
X106475107Y-59711859D01*
X106186738Y-59280285D01*
X105819715Y-58913262D01*
X105388141Y-58624893D01*
X104908601Y-58426261D01*
X104399525Y-58325000D01*
X103880475Y-58325000D01*
X103371399Y-58426261D01*
X102891859Y-58624893D01*
X102460285Y-58913262D01*
X102093262Y-59280285D01*
X101804893Y-59711859D01*
X101606261Y-60191399D01*
X101505000Y-60700475D01*
X99720000Y-60700475D01*
X99720000Y-56540000D01*
X134493000Y-56540000D01*
X134493000Y-90780000D01*
G37*
%TD.AperFunction*%
%TD*%
D12*
%TO.N,/BL_GND*%
X174600001Y-90780000D02*
X137287000Y-90780000D01*
X137287000Y-82420001D01*
X140251928Y-82420001D01*
X140251928Y-85219999D01*
X140268992Y-85393253D01*
X140319529Y-85559850D01*
X140401595Y-85713386D01*
X140512039Y-85847961D01*
X140646614Y-85958405D01*
X140800150Y-86040471D01*
X140966747Y-86091008D01*
X141140001Y-86108072D01*
X143339999Y-86108072D01*
X143513253Y-86091008D01*
X143679850Y-86040471D01*
X143833386Y-85958405D01*
X143967961Y-85847961D01*
X144078405Y-85713386D01*
X144160471Y-85559850D01*
X144211008Y-85393253D01*
X144228072Y-85219999D01*
X144228072Y-83422491D01*
X144455000Y-83422491D01*
X144455000Y-84217510D01*
X144483722Y-84509128D01*
X144597226Y-84883302D01*
X144781547Y-85228143D01*
X145029603Y-85530398D01*
X145331858Y-85778453D01*
X145676699Y-85962774D01*
X146050873Y-86076278D01*
X146440000Y-86114604D01*
X146829128Y-86076278D01*
X147203302Y-85962774D01*
X147548143Y-85778453D01*
X147850398Y-85530398D01*
X148098453Y-85228143D01*
X148282774Y-84883302D01*
X148396278Y-84509127D01*
X148425000Y-84217509D01*
X148425000Y-83422490D01*
X148396278Y-83130872D01*
X148282774Y-82756698D01*
X148199018Y-82600001D01*
X154011928Y-82600001D01*
X154011928Y-85399999D01*
X154028992Y-85573253D01*
X154079529Y-85739850D01*
X154161595Y-85893386D01*
X154272039Y-86027961D01*
X154406614Y-86138405D01*
X154560150Y-86220471D01*
X154726747Y-86271008D01*
X154900001Y-86288072D01*
X157099999Y-86288072D01*
X157273253Y-86271008D01*
X157439850Y-86220471D01*
X157593386Y-86138405D01*
X157727961Y-86027961D01*
X157838405Y-85893386D01*
X157920471Y-85739850D01*
X157971008Y-85573253D01*
X157988072Y-85399999D01*
X157988072Y-83602491D01*
X158215000Y-83602491D01*
X158215000Y-84397510D01*
X158243722Y-84689128D01*
X158357226Y-85063302D01*
X158541547Y-85408143D01*
X158789603Y-85710398D01*
X159091858Y-85958453D01*
X159436699Y-86142774D01*
X159810873Y-86256278D01*
X160200000Y-86294604D01*
X160589128Y-86256278D01*
X160963302Y-86142774D01*
X161042438Y-86100475D01*
X167545000Y-86100475D01*
X167545000Y-86619525D01*
X167646261Y-87128601D01*
X167844893Y-87608141D01*
X168133262Y-88039715D01*
X168500285Y-88406738D01*
X168931859Y-88695107D01*
X169411399Y-88893739D01*
X169920475Y-88995000D01*
X170439525Y-88995000D01*
X170948601Y-88893739D01*
X171428141Y-88695107D01*
X171859715Y-88406738D01*
X172226738Y-88039715D01*
X172515107Y-87608141D01*
X172713739Y-87128601D01*
X172815000Y-86619525D01*
X172815000Y-86100475D01*
X172713739Y-85591399D01*
X172515107Y-85111859D01*
X172226738Y-84680285D01*
X171859715Y-84313262D01*
X171428141Y-84024893D01*
X170948601Y-83826261D01*
X170439525Y-83725000D01*
X169920475Y-83725000D01*
X169411399Y-83826261D01*
X168931859Y-84024893D01*
X168500285Y-84313262D01*
X168133262Y-84680285D01*
X167844893Y-85111859D01*
X167646261Y-85591399D01*
X167545000Y-86100475D01*
X161042438Y-86100475D01*
X161308143Y-85958453D01*
X161610398Y-85710398D01*
X161858453Y-85408143D01*
X162042774Y-85063302D01*
X162156278Y-84689127D01*
X162185000Y-84397509D01*
X162185000Y-83602490D01*
X162156278Y-83310872D01*
X162042774Y-82936698D01*
X161858453Y-82591857D01*
X161610398Y-82289602D01*
X161308143Y-82041547D01*
X160963301Y-81857226D01*
X160589127Y-81743722D01*
X160200000Y-81705396D01*
X159810872Y-81743722D01*
X159436698Y-81857226D01*
X159091857Y-82041547D01*
X158789602Y-82289602D01*
X158541547Y-82591857D01*
X158357226Y-82936699D01*
X158243722Y-83310873D01*
X158215000Y-83602491D01*
X157988072Y-83602491D01*
X157988072Y-82600001D01*
X157971008Y-82426747D01*
X157920471Y-82260150D01*
X157838405Y-82106614D01*
X157727961Y-81972039D01*
X157593386Y-81861595D01*
X157439850Y-81779529D01*
X157273253Y-81728992D01*
X157099999Y-81711928D01*
X154900001Y-81711928D01*
X154726747Y-81728992D01*
X154560150Y-81779529D01*
X154406614Y-81861595D01*
X154272039Y-81972039D01*
X154161595Y-82106614D01*
X154079529Y-82260150D01*
X154028992Y-82426747D01*
X154011928Y-82600001D01*
X148199018Y-82600001D01*
X148098453Y-82411857D01*
X147850398Y-82109602D01*
X147548143Y-81861547D01*
X147203301Y-81677226D01*
X146829127Y-81563722D01*
X146440000Y-81525396D01*
X146050872Y-81563722D01*
X145676698Y-81677226D01*
X145331857Y-81861547D01*
X145029602Y-82109602D01*
X144781547Y-82411857D01*
X144597226Y-82756699D01*
X144483722Y-83130873D01*
X144455000Y-83422491D01*
X144228072Y-83422491D01*
X144228072Y-82420001D01*
X144211008Y-82246747D01*
X144160471Y-82080150D01*
X144078405Y-81926614D01*
X143967961Y-81792039D01*
X143833386Y-81681595D01*
X143679850Y-81599529D01*
X143513253Y-81548992D01*
X143339999Y-81531928D01*
X141140001Y-81531928D01*
X140966747Y-81548992D01*
X140800150Y-81599529D01*
X140646614Y-81681595D01*
X140512039Y-81792039D01*
X140401595Y-81926614D01*
X140319529Y-82080150D01*
X140268992Y-82246747D01*
X140251928Y-82420001D01*
X137287000Y-82420001D01*
X137287000Y-77922491D01*
X144455000Y-77922491D01*
X144455000Y-78717510D01*
X144483722Y-79009128D01*
X144597226Y-79383302D01*
X144781547Y-79728143D01*
X145029603Y-80030398D01*
X145331858Y-80278453D01*
X145676699Y-80462774D01*
X146050873Y-80576278D01*
X146440000Y-80614604D01*
X146829128Y-80576278D01*
X147203302Y-80462774D01*
X147548143Y-80278453D01*
X147850398Y-80030398D01*
X148098453Y-79728143D01*
X148282774Y-79383302D01*
X148396278Y-79009127D01*
X148425000Y-78717509D01*
X148425000Y-78102491D01*
X158215000Y-78102491D01*
X158215000Y-78897510D01*
X158243722Y-79189128D01*
X158357226Y-79563302D01*
X158541547Y-79908143D01*
X158789603Y-80210398D01*
X159091858Y-80458453D01*
X159436699Y-80642774D01*
X159810873Y-80756278D01*
X160200000Y-80794604D01*
X160589128Y-80756278D01*
X160963302Y-80642774D01*
X161308143Y-80458453D01*
X161610398Y-80210398D01*
X161858453Y-79908143D01*
X162042774Y-79563302D01*
X162156278Y-79189127D01*
X162185000Y-78897509D01*
X162185000Y-78102490D01*
X162156278Y-77810872D01*
X162042774Y-77436698D01*
X161858453Y-77091857D01*
X161610398Y-76789602D01*
X161308143Y-76541547D01*
X160963301Y-76357226D01*
X160589127Y-76243722D01*
X160200000Y-76205396D01*
X159810872Y-76243722D01*
X159436698Y-76357226D01*
X159091857Y-76541547D01*
X158789602Y-76789602D01*
X158541547Y-77091857D01*
X158357226Y-77436699D01*
X158243722Y-77810873D01*
X158215000Y-78102491D01*
X148425000Y-78102491D01*
X148425000Y-77922490D01*
X148396278Y-77630872D01*
X148282774Y-77256698D01*
X148098453Y-76911857D01*
X147850398Y-76609602D01*
X147548143Y-76361547D01*
X147203301Y-76177226D01*
X146829127Y-76063722D01*
X146440000Y-76025396D01*
X146050872Y-76063722D01*
X145676698Y-76177226D01*
X145331857Y-76361547D01*
X145029602Y-76609602D01*
X144781547Y-76911857D01*
X144597226Y-77256699D01*
X144483722Y-77630873D01*
X144455000Y-77922491D01*
X137287000Y-77922491D01*
X137287000Y-68602491D01*
X144455000Y-68602491D01*
X144455000Y-69397510D01*
X144483722Y-69689128D01*
X144597226Y-70063302D01*
X144781547Y-70408143D01*
X145029603Y-70710398D01*
X145331858Y-70958453D01*
X145676699Y-71142774D01*
X146050873Y-71256278D01*
X146440000Y-71294604D01*
X146829128Y-71256278D01*
X147203302Y-71142774D01*
X147548143Y-70958453D01*
X147850398Y-70710398D01*
X148098453Y-70408143D01*
X148282774Y-70063302D01*
X148396278Y-69689127D01*
X148425000Y-69397509D01*
X148425000Y-68602491D01*
X158215000Y-68602491D01*
X158215000Y-69397510D01*
X158243722Y-69689128D01*
X158357226Y-70063302D01*
X158541547Y-70408143D01*
X158789603Y-70710398D01*
X159091858Y-70958453D01*
X159436699Y-71142774D01*
X159810873Y-71256278D01*
X160200000Y-71294604D01*
X160589128Y-71256278D01*
X160963302Y-71142774D01*
X161308143Y-70958453D01*
X161610398Y-70710398D01*
X161858453Y-70408143D01*
X162042774Y-70063302D01*
X162156278Y-69689127D01*
X162185000Y-69397509D01*
X162185000Y-68602490D01*
X162156278Y-68310872D01*
X162042774Y-67936698D01*
X161858453Y-67591857D01*
X161610398Y-67289602D01*
X161308143Y-67041547D01*
X160963301Y-66857226D01*
X160589127Y-66743722D01*
X160200000Y-66705396D01*
X159810872Y-66743722D01*
X159436698Y-66857226D01*
X159091857Y-67041547D01*
X158789602Y-67289602D01*
X158541547Y-67591857D01*
X158357226Y-67936699D01*
X158243722Y-68310873D01*
X158215000Y-68602491D01*
X148425000Y-68602491D01*
X148425000Y-68602490D01*
X148396278Y-68310872D01*
X148282774Y-67936698D01*
X148098453Y-67591857D01*
X147850398Y-67289602D01*
X147548143Y-67041547D01*
X147203301Y-66857226D01*
X146829127Y-66743722D01*
X146440000Y-66705396D01*
X146050872Y-66743722D01*
X145676698Y-66857226D01*
X145331857Y-67041547D01*
X145029602Y-67289602D01*
X144781547Y-67591857D01*
X144597226Y-67936699D01*
X144483722Y-68310873D01*
X144455000Y-68602491D01*
X137287000Y-68602491D01*
X137287000Y-62100001D01*
X140251928Y-62100001D01*
X140251928Y-64899999D01*
X140268992Y-65073253D01*
X140319529Y-65239850D01*
X140401595Y-65393386D01*
X140512039Y-65527961D01*
X140646614Y-65638405D01*
X140800150Y-65720471D01*
X140966747Y-65771008D01*
X141140001Y-65788072D01*
X143339999Y-65788072D01*
X143513253Y-65771008D01*
X143679850Y-65720471D01*
X143833386Y-65638405D01*
X143967961Y-65527961D01*
X144078405Y-65393386D01*
X144160471Y-65239850D01*
X144211008Y-65073253D01*
X144228072Y-64899999D01*
X144228072Y-63102491D01*
X144455000Y-63102491D01*
X144455000Y-63897510D01*
X144483722Y-64189128D01*
X144597226Y-64563302D01*
X144781547Y-64908143D01*
X145029603Y-65210398D01*
X145331858Y-65458453D01*
X145676699Y-65642774D01*
X146050873Y-65756278D01*
X146440000Y-65794604D01*
X146829128Y-65756278D01*
X147203302Y-65642774D01*
X147548143Y-65458453D01*
X147850398Y-65210398D01*
X148098453Y-64908143D01*
X148282774Y-64563302D01*
X148396278Y-64189127D01*
X148425000Y-63897509D01*
X148425000Y-63102490D01*
X148396278Y-62810872D01*
X148282774Y-62436698D01*
X148102807Y-62100001D01*
X154011928Y-62100001D01*
X154011928Y-64899999D01*
X154028992Y-65073253D01*
X154079529Y-65239850D01*
X154161595Y-65393386D01*
X154272039Y-65527961D01*
X154406614Y-65638405D01*
X154560150Y-65720471D01*
X154726747Y-65771008D01*
X154900001Y-65788072D01*
X157099999Y-65788072D01*
X157273253Y-65771008D01*
X157439850Y-65720471D01*
X157593386Y-65638405D01*
X157727961Y-65527961D01*
X157838405Y-65393386D01*
X157920471Y-65239850D01*
X157971008Y-65073253D01*
X157988072Y-64899999D01*
X157988072Y-63102491D01*
X158215000Y-63102491D01*
X158215000Y-63897510D01*
X158243722Y-64189128D01*
X158357226Y-64563302D01*
X158541547Y-64908143D01*
X158789603Y-65210398D01*
X159091858Y-65458453D01*
X159436699Y-65642774D01*
X159810873Y-65756278D01*
X160200000Y-65794604D01*
X160589128Y-65756278D01*
X160963302Y-65642774D01*
X161308143Y-65458453D01*
X161610398Y-65210398D01*
X161858453Y-64908143D01*
X162042774Y-64563302D01*
X162156278Y-64189127D01*
X162185000Y-63897509D01*
X162185000Y-63102490D01*
X162156278Y-62810872D01*
X162042774Y-62436698D01*
X161858453Y-62091857D01*
X161610398Y-61789602D01*
X161308143Y-61541547D01*
X160963301Y-61357226D01*
X160589127Y-61243722D01*
X160200000Y-61205396D01*
X159810872Y-61243722D01*
X159436698Y-61357226D01*
X159091857Y-61541547D01*
X158789602Y-61789602D01*
X158541547Y-62091857D01*
X158357226Y-62436699D01*
X158243722Y-62810873D01*
X158215000Y-63102491D01*
X157988072Y-63102491D01*
X157988072Y-62100001D01*
X157971008Y-61926747D01*
X157920471Y-61760150D01*
X157838405Y-61606614D01*
X157727961Y-61472039D01*
X157593386Y-61361595D01*
X157439850Y-61279529D01*
X157273253Y-61228992D01*
X157099999Y-61211928D01*
X154900001Y-61211928D01*
X154726747Y-61228992D01*
X154560150Y-61279529D01*
X154406614Y-61361595D01*
X154272039Y-61472039D01*
X154161595Y-61606614D01*
X154079529Y-61760150D01*
X154028992Y-61926747D01*
X154011928Y-62100001D01*
X148102807Y-62100001D01*
X148098453Y-62091857D01*
X147850398Y-61789602D01*
X147548143Y-61541547D01*
X147203301Y-61357226D01*
X146829127Y-61243722D01*
X146440000Y-61205396D01*
X146050872Y-61243722D01*
X145676698Y-61357226D01*
X145331857Y-61541547D01*
X145029602Y-61789602D01*
X144781547Y-62091857D01*
X144597226Y-62436699D01*
X144483722Y-62810873D01*
X144455000Y-63102491D01*
X144228072Y-63102491D01*
X144228072Y-62100001D01*
X144211008Y-61926747D01*
X144160471Y-61760150D01*
X144078405Y-61606614D01*
X143967961Y-61472039D01*
X143833386Y-61361595D01*
X143679850Y-61279529D01*
X143513253Y-61228992D01*
X143339999Y-61211928D01*
X141140001Y-61211928D01*
X140966747Y-61228992D01*
X140800150Y-61279529D01*
X140646614Y-61361595D01*
X140512039Y-61472039D01*
X140401595Y-61606614D01*
X140319529Y-61760150D01*
X140268992Y-61926747D01*
X140251928Y-62100001D01*
X137287000Y-62100001D01*
X137287000Y-60700475D01*
X167545000Y-60700475D01*
X167545000Y-61219525D01*
X167646261Y-61728601D01*
X167844893Y-62208141D01*
X168133262Y-62639715D01*
X168500285Y-63006738D01*
X168931859Y-63295107D01*
X169411399Y-63493739D01*
X169920475Y-63595000D01*
X170439525Y-63595000D01*
X170948601Y-63493739D01*
X171428141Y-63295107D01*
X171859715Y-63006738D01*
X172226738Y-62639715D01*
X172515107Y-62208141D01*
X172713739Y-61728601D01*
X172815000Y-61219525D01*
X172815000Y-60700475D01*
X172713739Y-60191399D01*
X172515107Y-59711859D01*
X172226738Y-59280285D01*
X171859715Y-58913262D01*
X171428141Y-58624893D01*
X170948601Y-58426261D01*
X170439525Y-58325000D01*
X169920475Y-58325000D01*
X169411399Y-58426261D01*
X168931859Y-58624893D01*
X168500285Y-58913262D01*
X168133262Y-59280285D01*
X167844893Y-59711859D01*
X167646261Y-60191399D01*
X167545000Y-60700475D01*
X137287000Y-60700475D01*
X137287000Y-56540000D01*
X174600000Y-56540000D01*
X174600001Y-90780000D01*
%TA.AperFunction,Conductor*%
D13*
G36*
X174600001Y-90780000D02*
G01*
X137287000Y-90780000D01*
X137287000Y-82420001D01*
X140251928Y-82420001D01*
X140251928Y-85219999D01*
X140268992Y-85393253D01*
X140319529Y-85559850D01*
X140401595Y-85713386D01*
X140512039Y-85847961D01*
X140646614Y-85958405D01*
X140800150Y-86040471D01*
X140966747Y-86091008D01*
X141140001Y-86108072D01*
X143339999Y-86108072D01*
X143513253Y-86091008D01*
X143679850Y-86040471D01*
X143833386Y-85958405D01*
X143967961Y-85847961D01*
X144078405Y-85713386D01*
X144160471Y-85559850D01*
X144211008Y-85393253D01*
X144228072Y-85219999D01*
X144228072Y-83422491D01*
X144455000Y-83422491D01*
X144455000Y-84217510D01*
X144483722Y-84509128D01*
X144597226Y-84883302D01*
X144781547Y-85228143D01*
X145029603Y-85530398D01*
X145331858Y-85778453D01*
X145676699Y-85962774D01*
X146050873Y-86076278D01*
X146440000Y-86114604D01*
X146829128Y-86076278D01*
X147203302Y-85962774D01*
X147548143Y-85778453D01*
X147850398Y-85530398D01*
X148098453Y-85228143D01*
X148282774Y-84883302D01*
X148396278Y-84509127D01*
X148425000Y-84217509D01*
X148425000Y-83422490D01*
X148396278Y-83130872D01*
X148282774Y-82756698D01*
X148199018Y-82600001D01*
X154011928Y-82600001D01*
X154011928Y-85399999D01*
X154028992Y-85573253D01*
X154079529Y-85739850D01*
X154161595Y-85893386D01*
X154272039Y-86027961D01*
X154406614Y-86138405D01*
X154560150Y-86220471D01*
X154726747Y-86271008D01*
X154900001Y-86288072D01*
X157099999Y-86288072D01*
X157273253Y-86271008D01*
X157439850Y-86220471D01*
X157593386Y-86138405D01*
X157727961Y-86027961D01*
X157838405Y-85893386D01*
X157920471Y-85739850D01*
X157971008Y-85573253D01*
X157988072Y-85399999D01*
X157988072Y-83602491D01*
X158215000Y-83602491D01*
X158215000Y-84397510D01*
X158243722Y-84689128D01*
X158357226Y-85063302D01*
X158541547Y-85408143D01*
X158789603Y-85710398D01*
X159091858Y-85958453D01*
X159436699Y-86142774D01*
X159810873Y-86256278D01*
X160200000Y-86294604D01*
X160589128Y-86256278D01*
X160963302Y-86142774D01*
X161042438Y-86100475D01*
X167545000Y-86100475D01*
X167545000Y-86619525D01*
X167646261Y-87128601D01*
X167844893Y-87608141D01*
X168133262Y-88039715D01*
X168500285Y-88406738D01*
X168931859Y-88695107D01*
X169411399Y-88893739D01*
X169920475Y-88995000D01*
X170439525Y-88995000D01*
X170948601Y-88893739D01*
X171428141Y-88695107D01*
X171859715Y-88406738D01*
X172226738Y-88039715D01*
X172515107Y-87608141D01*
X172713739Y-87128601D01*
X172815000Y-86619525D01*
X172815000Y-86100475D01*
X172713739Y-85591399D01*
X172515107Y-85111859D01*
X172226738Y-84680285D01*
X171859715Y-84313262D01*
X171428141Y-84024893D01*
X170948601Y-83826261D01*
X170439525Y-83725000D01*
X169920475Y-83725000D01*
X169411399Y-83826261D01*
X168931859Y-84024893D01*
X168500285Y-84313262D01*
X168133262Y-84680285D01*
X167844893Y-85111859D01*
X167646261Y-85591399D01*
X167545000Y-86100475D01*
X161042438Y-86100475D01*
X161308143Y-85958453D01*
X161610398Y-85710398D01*
X161858453Y-85408143D01*
X162042774Y-85063302D01*
X162156278Y-84689127D01*
X162185000Y-84397509D01*
X162185000Y-83602490D01*
X162156278Y-83310872D01*
X162042774Y-82936698D01*
X161858453Y-82591857D01*
X161610398Y-82289602D01*
X161308143Y-82041547D01*
X160963301Y-81857226D01*
X160589127Y-81743722D01*
X160200000Y-81705396D01*
X159810872Y-81743722D01*
X159436698Y-81857226D01*
X159091857Y-82041547D01*
X158789602Y-82289602D01*
X158541547Y-82591857D01*
X158357226Y-82936699D01*
X158243722Y-83310873D01*
X158215000Y-83602491D01*
X157988072Y-83602491D01*
X157988072Y-82600001D01*
X157971008Y-82426747D01*
X157920471Y-82260150D01*
X157838405Y-82106614D01*
X157727961Y-81972039D01*
X157593386Y-81861595D01*
X157439850Y-81779529D01*
X157273253Y-81728992D01*
X157099999Y-81711928D01*
X154900001Y-81711928D01*
X154726747Y-81728992D01*
X154560150Y-81779529D01*
X154406614Y-81861595D01*
X154272039Y-81972039D01*
X154161595Y-82106614D01*
X154079529Y-82260150D01*
X154028992Y-82426747D01*
X154011928Y-82600001D01*
X148199018Y-82600001D01*
X148098453Y-82411857D01*
X147850398Y-82109602D01*
X147548143Y-81861547D01*
X147203301Y-81677226D01*
X146829127Y-81563722D01*
X146440000Y-81525396D01*
X146050872Y-81563722D01*
X145676698Y-81677226D01*
X145331857Y-81861547D01*
X145029602Y-82109602D01*
X144781547Y-82411857D01*
X144597226Y-82756699D01*
X144483722Y-83130873D01*
X144455000Y-83422491D01*
X144228072Y-83422491D01*
X144228072Y-82420001D01*
X144211008Y-82246747D01*
X144160471Y-82080150D01*
X144078405Y-81926614D01*
X143967961Y-81792039D01*
X143833386Y-81681595D01*
X143679850Y-81599529D01*
X143513253Y-81548992D01*
X143339999Y-81531928D01*
X141140001Y-81531928D01*
X140966747Y-81548992D01*
X140800150Y-81599529D01*
X140646614Y-81681595D01*
X140512039Y-81792039D01*
X140401595Y-81926614D01*
X140319529Y-82080150D01*
X140268992Y-82246747D01*
X140251928Y-82420001D01*
X137287000Y-82420001D01*
X137287000Y-77922491D01*
X144455000Y-77922491D01*
X144455000Y-78717510D01*
X144483722Y-79009128D01*
X144597226Y-79383302D01*
X144781547Y-79728143D01*
X145029603Y-80030398D01*
X145331858Y-80278453D01*
X145676699Y-80462774D01*
X146050873Y-80576278D01*
X146440000Y-80614604D01*
X146829128Y-80576278D01*
X147203302Y-80462774D01*
X147548143Y-80278453D01*
X147850398Y-80030398D01*
X148098453Y-79728143D01*
X148282774Y-79383302D01*
X148396278Y-79009127D01*
X148425000Y-78717509D01*
X148425000Y-78102491D01*
X158215000Y-78102491D01*
X158215000Y-78897510D01*
X158243722Y-79189128D01*
X158357226Y-79563302D01*
X158541547Y-79908143D01*
X158789603Y-80210398D01*
X159091858Y-80458453D01*
X159436699Y-80642774D01*
X159810873Y-80756278D01*
X160200000Y-80794604D01*
X160589128Y-80756278D01*
X160963302Y-80642774D01*
X161308143Y-80458453D01*
X161610398Y-80210398D01*
X161858453Y-79908143D01*
X162042774Y-79563302D01*
X162156278Y-79189127D01*
X162185000Y-78897509D01*
X162185000Y-78102490D01*
X162156278Y-77810872D01*
X162042774Y-77436698D01*
X161858453Y-77091857D01*
X161610398Y-76789602D01*
X161308143Y-76541547D01*
X160963301Y-76357226D01*
X160589127Y-76243722D01*
X160200000Y-76205396D01*
X159810872Y-76243722D01*
X159436698Y-76357226D01*
X159091857Y-76541547D01*
X158789602Y-76789602D01*
X158541547Y-77091857D01*
X158357226Y-77436699D01*
X158243722Y-77810873D01*
X158215000Y-78102491D01*
X148425000Y-78102491D01*
X148425000Y-77922490D01*
X148396278Y-77630872D01*
X148282774Y-77256698D01*
X148098453Y-76911857D01*
X147850398Y-76609602D01*
X147548143Y-76361547D01*
X147203301Y-76177226D01*
X146829127Y-76063722D01*
X146440000Y-76025396D01*
X146050872Y-76063722D01*
X145676698Y-76177226D01*
X145331857Y-76361547D01*
X145029602Y-76609602D01*
X144781547Y-76911857D01*
X144597226Y-77256699D01*
X144483722Y-77630873D01*
X144455000Y-77922491D01*
X137287000Y-77922491D01*
X137287000Y-68602491D01*
X144455000Y-68602491D01*
X144455000Y-69397510D01*
X144483722Y-69689128D01*
X144597226Y-70063302D01*
X144781547Y-70408143D01*
X145029603Y-70710398D01*
X145331858Y-70958453D01*
X145676699Y-71142774D01*
X146050873Y-71256278D01*
X146440000Y-71294604D01*
X146829128Y-71256278D01*
X147203302Y-71142774D01*
X147548143Y-70958453D01*
X147850398Y-70710398D01*
X148098453Y-70408143D01*
X148282774Y-70063302D01*
X148396278Y-69689127D01*
X148425000Y-69397509D01*
X148425000Y-68602491D01*
X158215000Y-68602491D01*
X158215000Y-69397510D01*
X158243722Y-69689128D01*
X158357226Y-70063302D01*
X158541547Y-70408143D01*
X158789603Y-70710398D01*
X159091858Y-70958453D01*
X159436699Y-71142774D01*
X159810873Y-71256278D01*
X160200000Y-71294604D01*
X160589128Y-71256278D01*
X160963302Y-71142774D01*
X161308143Y-70958453D01*
X161610398Y-70710398D01*
X161858453Y-70408143D01*
X162042774Y-70063302D01*
X162156278Y-69689127D01*
X162185000Y-69397509D01*
X162185000Y-68602490D01*
X162156278Y-68310872D01*
X162042774Y-67936698D01*
X161858453Y-67591857D01*
X161610398Y-67289602D01*
X161308143Y-67041547D01*
X160963301Y-66857226D01*
X160589127Y-66743722D01*
X160200000Y-66705396D01*
X159810872Y-66743722D01*
X159436698Y-66857226D01*
X159091857Y-67041547D01*
X158789602Y-67289602D01*
X158541547Y-67591857D01*
X158357226Y-67936699D01*
X158243722Y-68310873D01*
X158215000Y-68602491D01*
X148425000Y-68602491D01*
X148425000Y-68602490D01*
X148396278Y-68310872D01*
X148282774Y-67936698D01*
X148098453Y-67591857D01*
X147850398Y-67289602D01*
X147548143Y-67041547D01*
X147203301Y-66857226D01*
X146829127Y-66743722D01*
X146440000Y-66705396D01*
X146050872Y-66743722D01*
X145676698Y-66857226D01*
X145331857Y-67041547D01*
X145029602Y-67289602D01*
X144781547Y-67591857D01*
X144597226Y-67936699D01*
X144483722Y-68310873D01*
X144455000Y-68602491D01*
X137287000Y-68602491D01*
X137287000Y-62100001D01*
X140251928Y-62100001D01*
X140251928Y-64899999D01*
X140268992Y-65073253D01*
X140319529Y-65239850D01*
X140401595Y-65393386D01*
X140512039Y-65527961D01*
X140646614Y-65638405D01*
X140800150Y-65720471D01*
X140966747Y-65771008D01*
X141140001Y-65788072D01*
X143339999Y-65788072D01*
X143513253Y-65771008D01*
X143679850Y-65720471D01*
X143833386Y-65638405D01*
X143967961Y-65527961D01*
X144078405Y-65393386D01*
X144160471Y-65239850D01*
X144211008Y-65073253D01*
X144228072Y-64899999D01*
X144228072Y-63102491D01*
X144455000Y-63102491D01*
X144455000Y-63897510D01*
X144483722Y-64189128D01*
X144597226Y-64563302D01*
X144781547Y-64908143D01*
X145029603Y-65210398D01*
X145331858Y-65458453D01*
X145676699Y-65642774D01*
X146050873Y-65756278D01*
X146440000Y-65794604D01*
X146829128Y-65756278D01*
X147203302Y-65642774D01*
X147548143Y-65458453D01*
X147850398Y-65210398D01*
X148098453Y-64908143D01*
X148282774Y-64563302D01*
X148396278Y-64189127D01*
X148425000Y-63897509D01*
X148425000Y-63102490D01*
X148396278Y-62810872D01*
X148282774Y-62436698D01*
X148102807Y-62100001D01*
X154011928Y-62100001D01*
X154011928Y-64899999D01*
X154028992Y-65073253D01*
X154079529Y-65239850D01*
X154161595Y-65393386D01*
X154272039Y-65527961D01*
X154406614Y-65638405D01*
X154560150Y-65720471D01*
X154726747Y-65771008D01*
X154900001Y-65788072D01*
X157099999Y-65788072D01*
X157273253Y-65771008D01*
X157439850Y-65720471D01*
X157593386Y-65638405D01*
X157727961Y-65527961D01*
X157838405Y-65393386D01*
X157920471Y-65239850D01*
X157971008Y-65073253D01*
X157988072Y-64899999D01*
X157988072Y-63102491D01*
X158215000Y-63102491D01*
X158215000Y-63897510D01*
X158243722Y-64189128D01*
X158357226Y-64563302D01*
X158541547Y-64908143D01*
X158789603Y-65210398D01*
X159091858Y-65458453D01*
X159436699Y-65642774D01*
X159810873Y-65756278D01*
X160200000Y-65794604D01*
X160589128Y-65756278D01*
X160963302Y-65642774D01*
X161308143Y-65458453D01*
X161610398Y-65210398D01*
X161858453Y-64908143D01*
X162042774Y-64563302D01*
X162156278Y-64189127D01*
X162185000Y-63897509D01*
X162185000Y-63102490D01*
X162156278Y-62810872D01*
X162042774Y-62436698D01*
X161858453Y-62091857D01*
X161610398Y-61789602D01*
X161308143Y-61541547D01*
X160963301Y-61357226D01*
X160589127Y-61243722D01*
X160200000Y-61205396D01*
X159810872Y-61243722D01*
X159436698Y-61357226D01*
X159091857Y-61541547D01*
X158789602Y-61789602D01*
X158541547Y-62091857D01*
X158357226Y-62436699D01*
X158243722Y-62810873D01*
X158215000Y-63102491D01*
X157988072Y-63102491D01*
X157988072Y-62100001D01*
X157971008Y-61926747D01*
X157920471Y-61760150D01*
X157838405Y-61606614D01*
X157727961Y-61472039D01*
X157593386Y-61361595D01*
X157439850Y-61279529D01*
X157273253Y-61228992D01*
X157099999Y-61211928D01*
X154900001Y-61211928D01*
X154726747Y-61228992D01*
X154560150Y-61279529D01*
X154406614Y-61361595D01*
X154272039Y-61472039D01*
X154161595Y-61606614D01*
X154079529Y-61760150D01*
X154028992Y-61926747D01*
X154011928Y-62100001D01*
X148102807Y-62100001D01*
X148098453Y-62091857D01*
X147850398Y-61789602D01*
X147548143Y-61541547D01*
X147203301Y-61357226D01*
X146829127Y-61243722D01*
X146440000Y-61205396D01*
X146050872Y-61243722D01*
X145676698Y-61357226D01*
X145331857Y-61541547D01*
X145029602Y-61789602D01*
X144781547Y-62091857D01*
X144597226Y-62436699D01*
X144483722Y-62810873D01*
X144455000Y-63102491D01*
X144228072Y-63102491D01*
X144228072Y-62100001D01*
X144211008Y-61926747D01*
X144160471Y-61760150D01*
X144078405Y-61606614D01*
X143967961Y-61472039D01*
X143833386Y-61361595D01*
X143679850Y-61279529D01*
X143513253Y-61228992D01*
X143339999Y-61211928D01*
X141140001Y-61211928D01*
X140966747Y-61228992D01*
X140800150Y-61279529D01*
X140646614Y-61361595D01*
X140512039Y-61472039D01*
X140401595Y-61606614D01*
X140319529Y-61760150D01*
X140268992Y-61926747D01*
X140251928Y-62100001D01*
X137287000Y-62100001D01*
X137287000Y-60700475D01*
X167545000Y-60700475D01*
X167545000Y-61219525D01*
X167646261Y-61728601D01*
X167844893Y-62208141D01*
X168133262Y-62639715D01*
X168500285Y-63006738D01*
X168931859Y-63295107D01*
X169411399Y-63493739D01*
X169920475Y-63595000D01*
X170439525Y-63595000D01*
X170948601Y-63493739D01*
X171428141Y-63295107D01*
X171859715Y-63006738D01*
X172226738Y-62639715D01*
X172515107Y-62208141D01*
X172713739Y-61728601D01*
X172815000Y-61219525D01*
X172815000Y-60700475D01*
X172713739Y-60191399D01*
X172515107Y-59711859D01*
X172226738Y-59280285D01*
X171859715Y-58913262D01*
X171428141Y-58624893D01*
X170948601Y-58426261D01*
X170439525Y-58325000D01*
X169920475Y-58325000D01*
X169411399Y-58426261D01*
X168931859Y-58624893D01*
X168500285Y-58913262D01*
X168133262Y-59280285D01*
X167844893Y-59711859D01*
X167646261Y-60191399D01*
X167545000Y-60700475D01*
X137287000Y-60700475D01*
X137287000Y-56540000D01*
X174600000Y-56540000D01*
X174600001Y-90780000D01*
G37*
%TD.AperFunction*%
%TD*%
M02*
