M48
; DRILL file {KiCad 7.0.2} date Mon May 15 19:39:36 2023
; FORMAT={-:-/ absolute / inch / decimal}
; #@! TF.CreationDate,2023-05-15T19:39:36-08:00
; #@! TF.GenerationSoftware,Kicad,Pcbnew,7.0.2
; #@! TF.FileFunction,Plated,1,2,PTH
FMAT,2
INCH
; #@! TA.AperFunction,Plated,PTH,ViaDrill
T1C0.0157
; #@! TA.AperFunction,Plated,PTH,ComponentDrill
T2C0.0276
; #@! TA.AperFunction,Plated,PTH,ComponentDrill
T3C0.0394
; #@! TA.AperFunction,Plated,PTH,ComponentDrill
T4C0.0709
%
G90
G05
T1
X0.6775Y1.0075
X0.6825Y1.125
X0.69Y0.9
X0.7Y0.225
X0.72Y0.245
X0.74Y0.265
X0.905Y0.595
X0.925Y0.575
X0.9475Y0.5525
X1.01Y1.075
X1.11Y0.49
X1.13Y0.47
X1.15Y0.45
X1.17Y0.43
X2.1Y1.05
X2.1Y1.02
X2.1Y0.99
X2.2Y1.6
X2.375Y1.385
X2.375Y1.35
X2.375Y1.32
X2.375Y0.76
X2.375Y0.73
X2.375Y0.7
T2
X0.6035Y1.139
X0.605Y0.8975
X0.6248Y0.1496
X0.775Y0.15
X0.825Y1.85
X0.8807Y1.5783
T3
X0.64Y2.0
X0.74Y2.0
X0.84Y2.0
X0.85Y0.47
X0.85Y0.37
X0.94Y2.0
X0.94Y0.86
X0.95Y0.47
X0.95Y0.37
X1.0Y0.1
X1.04Y2.0
X1.04Y0.86
X1.1Y1.6
X1.1Y1.5
X1.1Y0.1
X1.14Y2.0
X1.2Y1.6
X1.2Y1.5
X1.2Y0.7
X1.2Y0.6
X1.2Y0.1
X1.24Y2.0
X1.3Y1.6
X1.3Y1.5
X1.3Y0.7
X1.3Y0.6
X1.3Y0.1
X1.34Y2.0
X1.4Y1.6
X1.4Y1.5
X1.4Y0.7
X1.4Y0.6
X1.4Y0.1
X1.44Y2.0
X1.5Y1.6
X1.5Y1.5
X1.5Y0.7
X1.5Y0.6
X1.5Y0.1
X1.54Y2.0
X1.6Y1.6
X1.6Y1.5
X1.6Y0.7
X1.6Y0.6
X1.6Y0.1
X1.7Y2.0
X1.7Y1.6
X1.7Y1.5
X1.7Y0.7
X1.7Y0.6
X1.7Y0.1
X1.8Y2.0
X1.8Y1.6
X1.8Y1.5
X1.8Y0.7
X1.8Y0.6
X1.9Y2.0
X1.9Y1.6
X1.9Y1.5
X1.9Y0.7
X1.9Y0.6
X1.9Y0.1
X2.0Y2.0
X2.0Y1.6
X2.0Y1.5
X2.0Y0.7
X2.0Y0.6
X2.0Y0.1
X2.1Y2.0
X2.1Y1.6
X2.1Y1.5
X2.1Y0.7
X2.1Y0.6
X2.1Y0.1
X2.2Y2.0
X2.2Y0.1
X2.3Y2.0
X2.3Y0.1
X2.4Y2.0
X2.4Y0.1
X2.455Y0.6975
X2.455Y0.5975
X2.485Y1.595
X2.485Y1.495
X2.5Y0.1
X2.555Y0.6975
X2.555Y0.5975
X2.585Y1.595
X2.585Y1.495
X2.6Y2.0
X2.6Y0.1
X2.655Y0.6975
X2.655Y0.5975
X2.685Y1.595
X2.685Y1.495
X2.7Y2.0
X2.755Y0.6975
X2.755Y0.5975
X2.785Y1.595
X2.785Y1.495
X2.8Y2.0
X2.8Y0.1
X2.855Y0.6975
X2.855Y0.5975
X2.885Y1.595
X2.885Y1.495
X2.9Y2.0
X2.9Y0.1
X2.955Y0.6975
X2.955Y0.5975
X2.985Y1.595
X2.985Y1.495
X3.0Y2.0
X3.0Y0.1
X3.055Y0.6975
X3.055Y0.5975
X3.085Y1.595
X3.085Y1.495
X3.1Y2.0
X3.1Y0.1
X3.155Y0.6975
X3.155Y0.5975
X3.185Y1.595
X3.185Y1.495
X3.2Y2.0
X3.2Y0.1
X3.255Y0.6975
X3.255Y0.5975
X3.285Y1.595
X3.285Y1.495
X3.3Y2.0
X3.3Y0.1
X3.355Y0.6975
X3.355Y0.5975
X3.385Y1.595
X3.385Y1.495
X3.4Y0.1
X3.5Y0.1
X3.6Y2.0
X3.6Y1.9
X3.6Y1.8
X3.6Y1.7
X3.6Y1.6
X3.6Y1.5
X3.6Y1.4
X3.6Y1.3
X3.6Y1.2
X3.6Y1.1
X3.6Y1.0
X3.6Y0.9
X3.6Y0.8
X3.6Y0.7
X3.6Y0.6
X3.6Y0.5
X3.6Y0.4
X3.6Y0.3
X3.7Y2.0
X3.7Y1.9
X3.7Y1.8
X3.7Y1.7
X3.7Y1.6
X3.7Y1.5
X3.7Y1.4
X3.7Y1.3
X3.7Y1.2
X3.7Y1.1
X3.7Y1.0
X3.7Y0.9
X3.7Y0.8
X3.7Y0.7
X3.7Y0.6
X3.7Y0.5
X3.7Y0.4
X3.7Y0.3
T4
X0.4Y1.7307
X0.4Y1.5654
X0.4Y1.4
X0.4Y0.7057
X0.4Y0.5404
X0.4Y0.375
X0.6165Y1.7307
X0.6165Y1.5654
X0.6165Y1.4
X0.6165Y0.7057
X0.6165Y0.5404
X0.6165Y0.375
T0
M30
