%TF.GenerationSoftware,KiCad,Pcbnew,(5.1.6)-1*%
%TF.CreationDate,2020-12-21T15:19:12+11:00*%
%TF.ProjectId,Select JETT Panel PCB V2,53656c65-6374-4204-9a45-54542050616e,rev?*%
%TF.SameCoordinates,Original*%
%TF.FileFunction,Profile,NP*%
%FSLAX46Y46*%
G04 Gerber Fmt 4.6, Leading zero omitted, Abs format (unit mm)*
G04 Created by KiCad (PCBNEW (5.1.6)-1) date 2020-12-21 15:19:12*
%MOMM*%
%LPD*%
G01*
G04 APERTURE LIST*
%TA.AperFunction,Profile*%
%ADD10C,0.050000*%
%TD*%
%TA.AperFunction,Profile*%
%ADD11C,0.200000*%
%TD*%
G04 APERTURE END LIST*
D10*
X85013800Y-98552000D02*
X69723000Y-138785600D01*
X85826600Y-76631800D02*
X85013800Y-98552000D01*
X69723000Y-138785600D02*
X67157600Y-165658800D01*
X83464400Y-55016400D02*
X85826600Y-76631800D01*
X83515200Y-45516800D02*
X83464400Y-55016400D01*
X87782400Y-40589200D02*
X83515200Y-45516800D01*
X87731600Y-30124400D02*
X87782400Y-40589200D01*
X89154000Y-30124400D02*
X87731600Y-30124400D01*
X163510000Y-38000000D02*
G75*
G03*
X163510000Y-38000000I-1510000J0D01*
G01*
X133510000Y-38000000D02*
G75*
G03*
X133510000Y-38000000I-1510000J0D01*
G01*
X133510000Y-82000000D02*
G75*
G03*
X133510000Y-82000000I-1510000J0D01*
G01*
X163510000Y-82000000D02*
G75*
G03*
X163510000Y-82000000I-1510000J0D01*
G01*
X193510000Y-82000000D02*
G75*
G03*
X193510000Y-82000000I-1510000J0D01*
G01*
X232945940Y-114249200D02*
X232841800Y-30480000D01*
X227804980Y-117739160D02*
X232945940Y-114249200D01*
X227238560Y-143581120D02*
X227804980Y-117739160D01*
X199621140Y-143553180D02*
X227238560Y-143581120D01*
X202641200Y-116230400D02*
X199621140Y-143553180D01*
X201373740Y-101437440D02*
X202641200Y-116230400D01*
X193903600Y-93827600D02*
X201373740Y-101437440D01*
X163123880Y-93883480D02*
X193903600Y-93827600D01*
X161036000Y-96012000D02*
X163123880Y-93883480D01*
X147960080Y-109486700D02*
X161036000Y-96012000D01*
X126936500Y-109387640D02*
X147960080Y-109486700D01*
X110106460Y-126598680D02*
X126936500Y-109387640D01*
X108966000Y-160324800D02*
X110106460Y-126598680D01*
X67157600Y-165658800D02*
X108966000Y-160324800D01*
X232841800Y-30480000D02*
X89154000Y-30124400D01*
D11*
X198704200Y-65659000D02*
G75*
G03*
X198704200Y-65659000I-4762500J0D01*
G01*
X181806850Y-43434000D02*
G75*
G03*
X181806850Y-43434000I-2152650J0D01*
G01*
X210381850Y-43434000D02*
G75*
G03*
X210381850Y-43434000I-2152650J0D01*
G01*
X195529200Y-73914000D02*
G75*
G03*
X195529200Y-73914000I-1587500J0D01*
G01*
X181806850Y-68834000D02*
G75*
G03*
X181806850Y-68834000I-2152650J0D01*
G01*
X210381850Y-68834000D02*
G75*
G03*
X210381850Y-68834000I-2152650J0D01*
G01*
M02*
