%TF.GenerationSoftware,KiCad,Pcbnew,(5.1.9)-1*%
%TF.CreationDate,2021-10-18T19:29:22-06:00*%
%TF.ProjectId,stick_controller,73746963-6b5f-4636-9f6e-74726f6c6c65,rev?*%
%TF.SameCoordinates,Original*%
%TF.FileFunction,Legend,Top*%
%TF.FilePolarity,Positive*%
%FSLAX46Y46*%
G04 Gerber Fmt 4.6, Leading zero omitted, Abs format (unit mm)*
G04 Created by KiCad (PCBNEW (5.1.9)-1) date 2021-10-18 19:29:22*
%MOMM*%
%LPD*%
G01*
G04 APERTURE LIST*
%ADD10C,0.150000*%
%ADD11C,0.100000*%
%ADD12C,0.120000*%
%ADD13C,0.010000*%
G04 APERTURE END LIST*
D10*
X132229333Y-62552666D02*
X132362666Y-62552666D01*
X132429333Y-62586000D01*
X132496000Y-62652666D01*
X132529333Y-62786000D01*
X132529333Y-63019333D01*
X132496000Y-63152666D01*
X132429333Y-63219333D01*
X132362666Y-63252666D01*
X132229333Y-63252666D01*
X132162666Y-63219333D01*
X132096000Y-63152666D01*
X132062666Y-63019333D01*
X132062666Y-62786000D01*
X132096000Y-62652666D01*
X132162666Y-62586000D01*
X132229333Y-62552666D01*
X132829333Y-63252666D02*
X132829333Y-62552666D01*
X133096000Y-62552666D01*
X133162666Y-62586000D01*
X133196000Y-62619333D01*
X133229333Y-62686000D01*
X133229333Y-62786000D01*
X133196000Y-62852666D01*
X133162666Y-62886000D01*
X133096000Y-62919333D01*
X132829333Y-62919333D01*
X133529333Y-62886000D02*
X133762666Y-62886000D01*
X133862666Y-63252666D02*
X133529333Y-63252666D01*
X133529333Y-62552666D01*
X133862666Y-62552666D01*
X134162666Y-63252666D02*
X134162666Y-62552666D01*
X134562666Y-63252666D01*
X134562666Y-62552666D01*
X134896000Y-63252666D02*
X134896000Y-62552666D01*
X134896000Y-62886000D02*
X135296000Y-62886000D01*
X135296000Y-63252666D02*
X135296000Y-62552666D01*
X135762666Y-62552666D02*
X135896000Y-62552666D01*
X135962666Y-62586000D01*
X136029333Y-62652666D01*
X136062666Y-62786000D01*
X136062666Y-63019333D01*
X136029333Y-63152666D01*
X135962666Y-63219333D01*
X135896000Y-63252666D01*
X135762666Y-63252666D01*
X135696000Y-63219333D01*
X135629333Y-63152666D01*
X135596000Y-63019333D01*
X135596000Y-62786000D01*
X135629333Y-62652666D01*
X135696000Y-62586000D01*
X135762666Y-62552666D01*
X136762666Y-63252666D02*
X136529333Y-62919333D01*
X136362666Y-63252666D02*
X136362666Y-62552666D01*
X136629333Y-62552666D01*
X136696000Y-62586000D01*
X136729333Y-62619333D01*
X136762666Y-62686000D01*
X136762666Y-62786000D01*
X136729333Y-62852666D01*
X136696000Y-62886000D01*
X136629333Y-62919333D01*
X136362666Y-62919333D01*
X137062666Y-63252666D02*
X137062666Y-62552666D01*
X137462666Y-63252666D01*
X137462666Y-62552666D01*
X137796000Y-62886000D02*
X138029333Y-62886000D01*
X138129333Y-63252666D02*
X137796000Y-63252666D01*
X137796000Y-62552666D01*
X138129333Y-62552666D01*
X138329333Y-62552666D02*
X138729333Y-62552666D01*
X138529333Y-63252666D02*
X138529333Y-62552666D01*
X138962666Y-63186000D02*
X138996000Y-63219333D01*
X138962666Y-63252666D01*
X138929333Y-63219333D01*
X138962666Y-63186000D01*
X138962666Y-63252666D01*
X139696000Y-63186000D02*
X139662666Y-63219333D01*
X139562666Y-63252666D01*
X139496000Y-63252666D01*
X139396000Y-63219333D01*
X139329333Y-63152666D01*
X139296000Y-63086000D01*
X139262666Y-62952666D01*
X139262666Y-62852666D01*
X139296000Y-62719333D01*
X139329333Y-62652666D01*
X139396000Y-62586000D01*
X139496000Y-62552666D01*
X139562666Y-62552666D01*
X139662666Y-62586000D01*
X139696000Y-62619333D01*
X140129333Y-62552666D02*
X140262666Y-62552666D01*
X140329333Y-62586000D01*
X140396000Y-62652666D01*
X140429333Y-62786000D01*
X140429333Y-63019333D01*
X140396000Y-63152666D01*
X140329333Y-63219333D01*
X140262666Y-63252666D01*
X140129333Y-63252666D01*
X140062666Y-63219333D01*
X139996000Y-63152666D01*
X139962666Y-63019333D01*
X139962666Y-62786000D01*
X139996000Y-62652666D01*
X140062666Y-62586000D01*
X140129333Y-62552666D01*
X140729333Y-63252666D02*
X140729333Y-62552666D01*
X140962666Y-63052666D01*
X141196000Y-62552666D01*
X141196000Y-63252666D01*
X129334666Y-65726000D02*
X129301333Y-65759333D01*
X129201333Y-65792666D01*
X129134666Y-65792666D01*
X129034666Y-65759333D01*
X128968000Y-65692666D01*
X128934666Y-65626000D01*
X128901333Y-65492666D01*
X128901333Y-65392666D01*
X128934666Y-65259333D01*
X128968000Y-65192666D01*
X129034666Y-65126000D01*
X129134666Y-65092666D01*
X129201333Y-65092666D01*
X129301333Y-65126000D01*
X129334666Y-65159333D01*
X130034666Y-65726000D02*
X130001333Y-65759333D01*
X129901333Y-65792666D01*
X129834666Y-65792666D01*
X129734666Y-65759333D01*
X129668000Y-65692666D01*
X129634666Y-65626000D01*
X129601333Y-65492666D01*
X129601333Y-65392666D01*
X129634666Y-65259333D01*
X129668000Y-65192666D01*
X129734666Y-65126000D01*
X129834666Y-65092666D01*
X129901333Y-65092666D01*
X130001333Y-65126000D01*
X130034666Y-65159333D01*
X131101333Y-65426000D02*
X131201333Y-65459333D01*
X131234666Y-65492666D01*
X131268000Y-65559333D01*
X131268000Y-65659333D01*
X131234666Y-65726000D01*
X131201333Y-65759333D01*
X131134666Y-65792666D01*
X130868000Y-65792666D01*
X130868000Y-65092666D01*
X131101333Y-65092666D01*
X131168000Y-65126000D01*
X131201333Y-65159333D01*
X131234666Y-65226000D01*
X131234666Y-65292666D01*
X131201333Y-65359333D01*
X131168000Y-65392666D01*
X131101333Y-65426000D01*
X130868000Y-65426000D01*
X131701333Y-65459333D02*
X131701333Y-65792666D01*
X131468000Y-65092666D02*
X131701333Y-65459333D01*
X131934666Y-65092666D01*
X132168000Y-65526000D02*
X132701333Y-65526000D01*
X133034666Y-65792666D02*
X133034666Y-65092666D01*
X133434666Y-65792666D01*
X133434666Y-65092666D01*
X134168000Y-65726000D02*
X134134666Y-65759333D01*
X134034666Y-65792666D01*
X133968000Y-65792666D01*
X133868000Y-65759333D01*
X133801333Y-65692666D01*
X133768000Y-65626000D01*
X133734666Y-65492666D01*
X133734666Y-65392666D01*
X133768000Y-65259333D01*
X133801333Y-65192666D01*
X133868000Y-65126000D01*
X133968000Y-65092666D01*
X134034666Y-65092666D01*
X134134666Y-65126000D01*
X134168000Y-65159333D01*
X134468000Y-65526000D02*
X135001333Y-65526000D01*
X135301333Y-65759333D02*
X135401333Y-65792666D01*
X135568000Y-65792666D01*
X135634666Y-65759333D01*
X135668000Y-65726000D01*
X135701333Y-65659333D01*
X135701333Y-65592666D01*
X135668000Y-65526000D01*
X135634666Y-65492666D01*
X135568000Y-65459333D01*
X135434666Y-65426000D01*
X135368000Y-65392666D01*
X135334666Y-65359333D01*
X135301333Y-65292666D01*
X135301333Y-65226000D01*
X135334666Y-65159333D01*
X135368000Y-65126000D01*
X135434666Y-65092666D01*
X135601333Y-65092666D01*
X135701333Y-65126000D01*
X135968000Y-65592666D02*
X136301333Y-65592666D01*
X135901333Y-65792666D02*
X136134666Y-65092666D01*
X136368000Y-65792666D01*
X138068000Y-65792666D02*
X137834666Y-65459333D01*
X137668000Y-65792666D02*
X137668000Y-65092666D01*
X137934666Y-65092666D01*
X138001333Y-65126000D01*
X138034666Y-65159333D01*
X138068000Y-65226000D01*
X138068000Y-65326000D01*
X138034666Y-65392666D01*
X138001333Y-65426000D01*
X137934666Y-65459333D01*
X137668000Y-65459333D01*
X138368000Y-65426000D02*
X138601333Y-65426000D01*
X138701333Y-65792666D02*
X138368000Y-65792666D01*
X138368000Y-65092666D01*
X138701333Y-65092666D01*
X138901333Y-65092666D02*
X139134666Y-65792666D01*
X139368000Y-65092666D01*
X139601333Y-65726000D02*
X139634666Y-65759333D01*
X139601333Y-65792666D01*
X139568000Y-65759333D01*
X139601333Y-65726000D01*
X139601333Y-65792666D01*
X139601333Y-65359333D02*
X139634666Y-65392666D01*
X139601333Y-65426000D01*
X139568000Y-65392666D01*
X139601333Y-65359333D01*
X139601333Y-65426000D01*
X140434666Y-65159333D02*
X140468000Y-65126000D01*
X140534666Y-65092666D01*
X140701333Y-65092666D01*
X140768000Y-65126000D01*
X140801333Y-65159333D01*
X140834666Y-65226000D01*
X140834666Y-65292666D01*
X140801333Y-65392666D01*
X140401333Y-65792666D01*
X140834666Y-65792666D01*
X112447428Y-47807142D02*
X113056952Y-47807142D01*
X112752190Y-48111904D02*
X112752190Y-47502380D01*
X113818857Y-47311904D02*
X113437904Y-47311904D01*
X113399809Y-47692857D01*
X113437904Y-47654761D01*
X113514095Y-47616666D01*
X113704571Y-47616666D01*
X113780761Y-47654761D01*
X113818857Y-47692857D01*
X113856952Y-47769047D01*
X113856952Y-47959523D01*
X113818857Y-48035714D01*
X113780761Y-48073809D01*
X113704571Y-48111904D01*
X113514095Y-48111904D01*
X113437904Y-48073809D01*
X113399809Y-48035714D01*
X114085523Y-47311904D02*
X114352190Y-48111904D01*
X114618857Y-47311904D01*
X115301714Y-47916666D02*
X115777904Y-47916666D01*
X115206476Y-48202380D02*
X115539809Y-47202380D01*
X115873142Y-48202380D01*
X116111238Y-47202380D02*
X116730285Y-47202380D01*
X116396952Y-47583333D01*
X116539809Y-47583333D01*
X116635047Y-47630952D01*
X116682666Y-47678571D01*
X116730285Y-47773809D01*
X116730285Y-48011904D01*
X116682666Y-48107142D01*
X116635047Y-48154761D01*
X116539809Y-48202380D01*
X116254095Y-48202380D01*
X116158857Y-48154761D01*
X116111238Y-48107142D01*
X117841714Y-47916666D02*
X118317904Y-47916666D01*
X117746476Y-48202380D02*
X118079809Y-47202380D01*
X118413142Y-48202380D01*
X118698857Y-47297619D02*
X118746476Y-47250000D01*
X118841714Y-47202380D01*
X119079809Y-47202380D01*
X119175047Y-47250000D01*
X119222666Y-47297619D01*
X119270285Y-47392857D01*
X119270285Y-47488095D01*
X119222666Y-47630952D01*
X118651238Y-48202380D01*
X119270285Y-48202380D01*
X120381714Y-47916666D02*
X120857904Y-47916666D01*
X120286476Y-48202380D02*
X120619809Y-47202380D01*
X120953142Y-48202380D01*
X121810285Y-48202380D02*
X121238857Y-48202380D01*
X121524571Y-48202380D02*
X121524571Y-47202380D01*
X121429333Y-47345238D01*
X121334095Y-47440476D01*
X121238857Y-47488095D01*
X122921714Y-47916666D02*
X123397904Y-47916666D01*
X122826476Y-48202380D02*
X123159809Y-47202380D01*
X123493142Y-48202380D01*
X124016952Y-47202380D02*
X124112190Y-47202380D01*
X124207428Y-47250000D01*
X124255047Y-47297619D01*
X124302666Y-47392857D01*
X124350285Y-47583333D01*
X124350285Y-47821428D01*
X124302666Y-48011904D01*
X124255047Y-48107142D01*
X124207428Y-48154761D01*
X124112190Y-48202380D01*
X124016952Y-48202380D01*
X123921714Y-48154761D01*
X123874095Y-48107142D01*
X123826476Y-48011904D01*
X123778857Y-47821428D01*
X123778857Y-47583333D01*
X123826476Y-47392857D01*
X123874095Y-47297619D01*
X123921714Y-47250000D01*
X124016952Y-47202380D01*
X125014095Y-45669000D02*
X125814095Y-45669000D01*
X125204571Y-46801904D02*
X125204571Y-46001904D01*
X125395047Y-46001904D01*
X125509333Y-46040000D01*
X125585523Y-46116190D01*
X125623619Y-46192380D01*
X125661714Y-46344761D01*
X125661714Y-46459047D01*
X125623619Y-46611428D01*
X125585523Y-46687619D01*
X125509333Y-46763809D01*
X125395047Y-46801904D01*
X125204571Y-46801904D01*
X125814095Y-45669000D02*
X126576000Y-45669000D01*
X126423619Y-46801904D02*
X125966476Y-46801904D01*
X126195047Y-46801904D02*
X126195047Y-46001904D01*
X126118857Y-46116190D01*
X126042666Y-46192380D01*
X125966476Y-46230476D01*
X126576000Y-45669000D02*
X127337904Y-45669000D01*
X126918857Y-46001904D02*
X126995047Y-46001904D01*
X127071238Y-46040000D01*
X127109333Y-46078095D01*
X127147428Y-46154285D01*
X127185523Y-46306666D01*
X127185523Y-46497142D01*
X127147428Y-46649523D01*
X127109333Y-46725714D01*
X127071238Y-46763809D01*
X126995047Y-46801904D01*
X126918857Y-46801904D01*
X126842666Y-46763809D01*
X126804571Y-46725714D01*
X126766476Y-46649523D01*
X126728380Y-46497142D01*
X126728380Y-46306666D01*
X126766476Y-46154285D01*
X126804571Y-46078095D01*
X126842666Y-46040000D01*
X126918857Y-46001904D01*
X125223619Y-47923333D02*
X125604571Y-47923333D01*
X125147428Y-48151904D02*
X125414095Y-47351904D01*
X125680761Y-48151904D01*
X126366476Y-48151904D02*
X125909333Y-48151904D01*
X126137904Y-48151904D02*
X126137904Y-47351904D01*
X126061714Y-47466190D01*
X125985523Y-47542380D01*
X125909333Y-47580476D01*
X126861714Y-47351904D02*
X126937904Y-47351904D01*
X127014095Y-47390000D01*
X127052190Y-47428095D01*
X127090285Y-47504285D01*
X127128380Y-47656666D01*
X127128380Y-47847142D01*
X127090285Y-47999523D01*
X127052190Y-48075714D01*
X127014095Y-48113809D01*
X126937904Y-48151904D01*
X126861714Y-48151904D01*
X126785523Y-48113809D01*
X126747428Y-48075714D01*
X126709333Y-47999523D01*
X126671238Y-47847142D01*
X126671238Y-47656666D01*
X126709333Y-47504285D01*
X126747428Y-47428095D01*
X126785523Y-47390000D01*
X126861714Y-47351904D01*
X128316000Y-47724523D02*
X128277904Y-47800714D01*
X128277904Y-47915000D01*
X128316000Y-48029285D01*
X128392190Y-48105476D01*
X128468380Y-48143571D01*
X128620761Y-48181666D01*
X128735047Y-48181666D01*
X128887428Y-48143571D01*
X128963619Y-48105476D01*
X129039809Y-48029285D01*
X129077904Y-47915000D01*
X129077904Y-47838809D01*
X129039809Y-47724523D01*
X129001714Y-47686428D01*
X128735047Y-47686428D01*
X128735047Y-47838809D01*
X129077904Y-47343571D02*
X128277904Y-47343571D01*
X129077904Y-46886428D01*
X128277904Y-46886428D01*
X129077904Y-46505476D02*
X128277904Y-46505476D01*
X128277904Y-46315000D01*
X128316000Y-46200714D01*
X128392190Y-46124523D01*
X128468380Y-46086428D01*
X128620761Y-46048333D01*
X128735047Y-46048333D01*
X128887428Y-46086428D01*
X128963619Y-46124523D01*
X129039809Y-46200714D01*
X129077904Y-46315000D01*
X129077904Y-46505476D01*
X128316000Y-56614523D02*
X128277904Y-56690714D01*
X128277904Y-56805000D01*
X128316000Y-56919285D01*
X128392190Y-56995476D01*
X128468380Y-57033571D01*
X128620761Y-57071666D01*
X128735047Y-57071666D01*
X128887428Y-57033571D01*
X128963619Y-56995476D01*
X129039809Y-56919285D01*
X129077904Y-56805000D01*
X129077904Y-56728809D01*
X129039809Y-56614523D01*
X129001714Y-56576428D01*
X128735047Y-56576428D01*
X128735047Y-56728809D01*
X129077904Y-56233571D02*
X128277904Y-56233571D01*
X129077904Y-55776428D01*
X128277904Y-55776428D01*
X129077904Y-55395476D02*
X128277904Y-55395476D01*
X128277904Y-55205000D01*
X128316000Y-55090714D01*
X128392190Y-55014523D01*
X128468380Y-54976428D01*
X128620761Y-54938333D01*
X128735047Y-54938333D01*
X128887428Y-54976428D01*
X128963619Y-55014523D01*
X129039809Y-55090714D01*
X129077904Y-55205000D01*
X129077904Y-55395476D01*
X125199809Y-54455000D02*
X126199809Y-54455000D01*
X125437904Y-55822380D02*
X125437904Y-54822380D01*
X125676000Y-54822380D01*
X125818857Y-54870000D01*
X125914095Y-54965238D01*
X125961714Y-55060476D01*
X126009333Y-55250952D01*
X126009333Y-55393809D01*
X125961714Y-55584285D01*
X125914095Y-55679523D01*
X125818857Y-55774761D01*
X125676000Y-55822380D01*
X125437904Y-55822380D01*
X126199809Y-54455000D02*
X127152190Y-54455000D01*
X126914095Y-54822380D02*
X126437904Y-54822380D01*
X126390285Y-55298571D01*
X126437904Y-55250952D01*
X126533142Y-55203333D01*
X126771238Y-55203333D01*
X126866476Y-55250952D01*
X126914095Y-55298571D01*
X126961714Y-55393809D01*
X126961714Y-55631904D01*
X126914095Y-55727142D01*
X126866476Y-55774761D01*
X126771238Y-55822380D01*
X126533142Y-55822380D01*
X126437904Y-55774761D01*
X126390285Y-55727142D01*
X122897904Y-55632380D02*
X122897904Y-54632380D01*
X123136000Y-54632380D01*
X123278857Y-54680000D01*
X123374095Y-54775238D01*
X123421714Y-54870476D01*
X123469333Y-55060952D01*
X123469333Y-55203809D01*
X123421714Y-55394285D01*
X123374095Y-55489523D01*
X123278857Y-55584761D01*
X123136000Y-55632380D01*
X122897904Y-55632380D01*
X124326476Y-54965714D02*
X124326476Y-55632380D01*
X124088380Y-54584761D02*
X123850285Y-55299047D01*
X124469333Y-55299047D01*
X122921714Y-56996666D02*
X123397904Y-56996666D01*
X122826476Y-57282380D02*
X123159809Y-56282380D01*
X123493142Y-57282380D01*
X124255047Y-56282380D02*
X124064571Y-56282380D01*
X123969333Y-56330000D01*
X123921714Y-56377619D01*
X123826476Y-56520476D01*
X123778857Y-56710952D01*
X123778857Y-57091904D01*
X123826476Y-57187142D01*
X123874095Y-57234761D01*
X123969333Y-57282380D01*
X124159809Y-57282380D01*
X124255047Y-57234761D01*
X124302666Y-57187142D01*
X124350285Y-57091904D01*
X124350285Y-56853809D01*
X124302666Y-56758571D01*
X124255047Y-56710952D01*
X124159809Y-56663333D01*
X123969333Y-56663333D01*
X123874095Y-56710952D01*
X123826476Y-56758571D01*
X123778857Y-56853809D01*
X120357904Y-55822380D02*
X120357904Y-54822380D01*
X120596000Y-54822380D01*
X120738857Y-54870000D01*
X120834095Y-54965238D01*
X120881714Y-55060476D01*
X120929333Y-55250952D01*
X120929333Y-55393809D01*
X120881714Y-55584285D01*
X120834095Y-55679523D01*
X120738857Y-55774761D01*
X120596000Y-55822380D01*
X120357904Y-55822380D01*
X121262666Y-54822380D02*
X121881714Y-54822380D01*
X121548380Y-55203333D01*
X121691238Y-55203333D01*
X121786476Y-55250952D01*
X121834095Y-55298571D01*
X121881714Y-55393809D01*
X121881714Y-55631904D01*
X121834095Y-55727142D01*
X121786476Y-55774761D01*
X121691238Y-55822380D01*
X121405523Y-55822380D01*
X121310285Y-55774761D01*
X121262666Y-55727142D01*
X117817904Y-55822380D02*
X117817904Y-54822380D01*
X118056000Y-54822380D01*
X118198857Y-54870000D01*
X118294095Y-54965238D01*
X118341714Y-55060476D01*
X118389333Y-55250952D01*
X118389333Y-55393809D01*
X118341714Y-55584285D01*
X118294095Y-55679523D01*
X118198857Y-55774761D01*
X118056000Y-55822380D01*
X117817904Y-55822380D01*
X118770285Y-54917619D02*
X118817904Y-54870000D01*
X118913142Y-54822380D01*
X119151238Y-54822380D01*
X119246476Y-54870000D01*
X119294095Y-54917619D01*
X119341714Y-55012857D01*
X119341714Y-55108095D01*
X119294095Y-55250952D01*
X118722666Y-55822380D01*
X119341714Y-55822380D01*
X115277904Y-55822380D02*
X115277904Y-54822380D01*
X115516000Y-54822380D01*
X115658857Y-54870000D01*
X115754095Y-54965238D01*
X115801714Y-55060476D01*
X115849333Y-55250952D01*
X115849333Y-55393809D01*
X115801714Y-55584285D01*
X115754095Y-55679523D01*
X115658857Y-55774761D01*
X115516000Y-55822380D01*
X115277904Y-55822380D01*
X116468380Y-54822380D02*
X116563619Y-54822380D01*
X116658857Y-54870000D01*
X116706476Y-54917619D01*
X116754095Y-55012857D01*
X116801714Y-55203333D01*
X116801714Y-55441428D01*
X116754095Y-55631904D01*
X116706476Y-55727142D01*
X116658857Y-55774761D01*
X116563619Y-55822380D01*
X116468380Y-55822380D01*
X116373142Y-55774761D01*
X116325523Y-55727142D01*
X116277904Y-55631904D01*
X116230285Y-55441428D01*
X116230285Y-55203333D01*
X116277904Y-55012857D01*
X116325523Y-54917619D01*
X116373142Y-54870000D01*
X116468380Y-54822380D01*
X112737904Y-55822380D02*
X112737904Y-54822380D01*
X112976000Y-54822380D01*
X113118857Y-54870000D01*
X113214095Y-54965238D01*
X113261714Y-55060476D01*
X113309333Y-55250952D01*
X113309333Y-55393809D01*
X113261714Y-55584285D01*
X113214095Y-55679523D01*
X113118857Y-55774761D01*
X112976000Y-55822380D01*
X112737904Y-55822380D01*
X114261714Y-55822380D02*
X113690285Y-55822380D01*
X113976000Y-55822380D02*
X113976000Y-54822380D01*
X113880761Y-54965238D01*
X113785523Y-55060476D01*
X113690285Y-55108095D01*
X132201595Y-59037571D02*
X131868261Y-59037571D01*
X131868261Y-59561380D02*
X131868261Y-58561380D01*
X132344452Y-58561380D01*
X133201595Y-59561380D02*
X132725404Y-59561380D01*
X132725404Y-58561380D01*
X133534928Y-59561380D02*
X133534928Y-58561380D01*
X134534928Y-58609000D02*
X134439690Y-58561380D01*
X134296833Y-58561380D01*
X134153976Y-58609000D01*
X134058738Y-58704238D01*
X134011119Y-58799476D01*
X133963500Y-58989952D01*
X133963500Y-59132809D01*
X134011119Y-59323285D01*
X134058738Y-59418523D01*
X134153976Y-59513761D01*
X134296833Y-59561380D01*
X134392071Y-59561380D01*
X134534928Y-59513761D01*
X134582547Y-59466142D01*
X134582547Y-59132809D01*
X134392071Y-59132809D01*
X135011119Y-59561380D02*
X135011119Y-58561380D01*
X135011119Y-59037571D02*
X135582547Y-59037571D01*
X135582547Y-59561380D02*
X135582547Y-58561380D01*
X135915880Y-58561380D02*
X136487309Y-58561380D01*
X136201595Y-59561380D02*
X136201595Y-58561380D01*
X137534928Y-59513761D02*
X137677785Y-59561380D01*
X137915880Y-59561380D01*
X138011119Y-59513761D01*
X138058738Y-59466142D01*
X138106357Y-59370904D01*
X138106357Y-59275666D01*
X138058738Y-59180428D01*
X138011119Y-59132809D01*
X137915880Y-59085190D01*
X137725404Y-59037571D01*
X137630166Y-58989952D01*
X137582547Y-58942333D01*
X137534928Y-58847095D01*
X137534928Y-58751857D01*
X137582547Y-58656619D01*
X137630166Y-58609000D01*
X137725404Y-58561380D01*
X137963500Y-58561380D01*
X138106357Y-58609000D01*
X138392071Y-58561380D02*
X138963500Y-58561380D01*
X138677785Y-59561380D02*
X138677785Y-58561380D01*
X139296833Y-59561380D02*
X139296833Y-58561380D01*
X140344452Y-59466142D02*
X140296833Y-59513761D01*
X140153976Y-59561380D01*
X140058738Y-59561380D01*
X139915880Y-59513761D01*
X139820642Y-59418523D01*
X139773023Y-59323285D01*
X139725404Y-59132809D01*
X139725404Y-58989952D01*
X139773023Y-58799476D01*
X139820642Y-58704238D01*
X139915880Y-58609000D01*
X140058738Y-58561380D01*
X140153976Y-58561380D01*
X140296833Y-58609000D01*
X140344452Y-58656619D01*
X140773023Y-59561380D02*
X140773023Y-58561380D01*
X141344452Y-59561380D02*
X140915880Y-58989952D01*
X141344452Y-58561380D02*
X140773023Y-59132809D01*
X133058738Y-61116142D02*
X133011119Y-61163761D01*
X132868261Y-61211380D01*
X132773023Y-61211380D01*
X132630166Y-61163761D01*
X132534928Y-61068523D01*
X132487309Y-60973285D01*
X132439690Y-60782809D01*
X132439690Y-60639952D01*
X132487309Y-60449476D01*
X132534928Y-60354238D01*
X132630166Y-60259000D01*
X132773023Y-60211380D01*
X132868261Y-60211380D01*
X133011119Y-60259000D01*
X133058738Y-60306619D01*
X133677785Y-60211380D02*
X133868261Y-60211380D01*
X133963500Y-60259000D01*
X134058738Y-60354238D01*
X134106357Y-60544714D01*
X134106357Y-60878047D01*
X134058738Y-61068523D01*
X133963500Y-61163761D01*
X133868261Y-61211380D01*
X133677785Y-61211380D01*
X133582547Y-61163761D01*
X133487309Y-61068523D01*
X133439690Y-60878047D01*
X133439690Y-60544714D01*
X133487309Y-60354238D01*
X133582547Y-60259000D01*
X133677785Y-60211380D01*
X134534928Y-61211380D02*
X134534928Y-60211380D01*
X135106357Y-61211380D01*
X135106357Y-60211380D01*
X135439690Y-60211380D02*
X136011119Y-60211380D01*
X135725404Y-61211380D02*
X135725404Y-60211380D01*
X136915880Y-61211380D02*
X136582547Y-60735190D01*
X136344452Y-61211380D02*
X136344452Y-60211380D01*
X136725404Y-60211380D01*
X136820642Y-60259000D01*
X136868261Y-60306619D01*
X136915880Y-60401857D01*
X136915880Y-60544714D01*
X136868261Y-60639952D01*
X136820642Y-60687571D01*
X136725404Y-60735190D01*
X136344452Y-60735190D01*
X137534928Y-60211380D02*
X137725404Y-60211380D01*
X137820642Y-60259000D01*
X137915880Y-60354238D01*
X137963500Y-60544714D01*
X137963500Y-60878047D01*
X137915880Y-61068523D01*
X137820642Y-61163761D01*
X137725404Y-61211380D01*
X137534928Y-61211380D01*
X137439690Y-61163761D01*
X137344452Y-61068523D01*
X137296833Y-60878047D01*
X137296833Y-60544714D01*
X137344452Y-60354238D01*
X137439690Y-60259000D01*
X137534928Y-60211380D01*
X138868261Y-61211380D02*
X138392071Y-61211380D01*
X138392071Y-60211380D01*
X139677785Y-61211380D02*
X139201595Y-61211380D01*
X139201595Y-60211380D01*
X140011119Y-60687571D02*
X140344452Y-60687571D01*
X140487309Y-61211380D02*
X140011119Y-61211380D01*
X140011119Y-60211380D01*
X140487309Y-60211380D01*
X141487309Y-61211380D02*
X141153976Y-60735190D01*
X140915880Y-61211380D02*
X140915880Y-60211380D01*
X141296833Y-60211380D01*
X141392071Y-60259000D01*
X141439690Y-60306619D01*
X141487309Y-60401857D01*
X141487309Y-60544714D01*
X141439690Y-60639952D01*
X141392071Y-60687571D01*
X141296833Y-60735190D01*
X140915880Y-60735190D01*
D11*
G36*
X131256000Y-45210000D02*
G01*
X130256000Y-44710000D01*
X131256000Y-44210000D01*
X131256000Y-45210000D01*
G37*
X131256000Y-45210000D02*
X130256000Y-44710000D01*
X131256000Y-44210000D01*
X131256000Y-45210000D01*
G36*
X142976000Y-50330000D02*
G01*
X141976000Y-50830000D01*
X141976000Y-49830000D01*
X142976000Y-50330000D01*
G37*
X142976000Y-50330000D02*
X141976000Y-50830000D01*
X141976000Y-49830000D01*
X142976000Y-50330000D01*
G36*
X143000000Y-66000000D02*
G01*
X142000000Y-66500000D01*
X142000000Y-65500000D01*
X143000000Y-66000000D01*
G37*
X143000000Y-66000000D02*
X142000000Y-66500000D01*
X142000000Y-65500000D01*
X143000000Y-66000000D01*
G36*
X142976000Y-81830000D02*
G01*
X141976000Y-82330000D01*
X141976000Y-81330000D01*
X142976000Y-81830000D01*
G37*
X142976000Y-81830000D02*
X141976000Y-82330000D01*
X141976000Y-81330000D01*
X142976000Y-81830000D01*
D10*
X130547428Y-75096666D02*
X131023619Y-75096666D01*
X130452190Y-75382380D02*
X130785523Y-74382380D01*
X131118857Y-75382380D01*
X132023619Y-75382380D02*
X131690285Y-74906190D01*
X131452190Y-75382380D02*
X131452190Y-74382380D01*
X131833142Y-74382380D01*
X131928380Y-74430000D01*
X131976000Y-74477619D01*
X132023619Y-74572857D01*
X132023619Y-74715714D01*
X131976000Y-74810952D01*
X131928380Y-74858571D01*
X131833142Y-74906190D01*
X131452190Y-74906190D01*
X132452190Y-75382380D02*
X132452190Y-74382380D01*
X132690285Y-74382380D01*
X132833142Y-74430000D01*
X132928380Y-74525238D01*
X132976000Y-74620476D01*
X133023619Y-74810952D01*
X133023619Y-74953809D01*
X132976000Y-75144285D01*
X132928380Y-75239523D01*
X132833142Y-75334761D01*
X132690285Y-75382380D01*
X132452190Y-75382380D01*
X133452190Y-74382380D02*
X133452190Y-75191904D01*
X133499809Y-75287142D01*
X133547428Y-75334761D01*
X133642666Y-75382380D01*
X133833142Y-75382380D01*
X133928380Y-75334761D01*
X133976000Y-75287142D01*
X134023619Y-75191904D01*
X134023619Y-74382380D01*
X134499809Y-75382380D02*
X134499809Y-74382380D01*
X134976000Y-75382380D02*
X134976000Y-74382380D01*
X135547428Y-75382380D01*
X135547428Y-74382380D01*
X136214095Y-74382380D02*
X136404571Y-74382380D01*
X136499809Y-74430000D01*
X136595047Y-74525238D01*
X136642666Y-74715714D01*
X136642666Y-75049047D01*
X136595047Y-75239523D01*
X136499809Y-75334761D01*
X136404571Y-75382380D01*
X136214095Y-75382380D01*
X136118857Y-75334761D01*
X136023619Y-75239523D01*
X135976000Y-75049047D01*
X135976000Y-74715714D01*
X136023619Y-74525238D01*
X136118857Y-74430000D01*
X136214095Y-74382380D01*
X129595047Y-77032380D02*
X129595047Y-76032380D01*
X129976000Y-76032380D01*
X130071238Y-76080000D01*
X130118857Y-76127619D01*
X130166476Y-76222857D01*
X130166476Y-76365714D01*
X130118857Y-76460952D01*
X130071238Y-76508571D01*
X129976000Y-76556190D01*
X129595047Y-76556190D01*
X131166476Y-77032380D02*
X130833142Y-76556190D01*
X130595047Y-77032380D02*
X130595047Y-76032380D01*
X130976000Y-76032380D01*
X131071238Y-76080000D01*
X131118857Y-76127619D01*
X131166476Y-76222857D01*
X131166476Y-76365714D01*
X131118857Y-76460952D01*
X131071238Y-76508571D01*
X130976000Y-76556190D01*
X130595047Y-76556190D01*
X131785523Y-76032380D02*
X131976000Y-76032380D01*
X132071238Y-76080000D01*
X132166476Y-76175238D01*
X132214095Y-76365714D01*
X132214095Y-76699047D01*
X132166476Y-76889523D01*
X132071238Y-76984761D01*
X131976000Y-77032380D01*
X131785523Y-77032380D01*
X131690285Y-76984761D01*
X131595047Y-76889523D01*
X131547428Y-76699047D01*
X131547428Y-76365714D01*
X131595047Y-76175238D01*
X131690285Y-76080000D01*
X131785523Y-76032380D01*
X133404571Y-77032380D02*
X133404571Y-76032380D01*
X133737904Y-76746666D01*
X134071238Y-76032380D01*
X134071238Y-77032380D01*
X134547428Y-77032380D02*
X134547428Y-76032380D01*
X135595047Y-76937142D02*
X135547428Y-76984761D01*
X135404571Y-77032380D01*
X135309333Y-77032380D01*
X135166476Y-76984761D01*
X135071238Y-76889523D01*
X135023619Y-76794285D01*
X134976000Y-76603809D01*
X134976000Y-76460952D01*
X135023619Y-76270476D01*
X135071238Y-76175238D01*
X135166476Y-76080000D01*
X135309333Y-76032380D01*
X135404571Y-76032380D01*
X135547428Y-76080000D01*
X135595047Y-76127619D01*
X136595047Y-77032380D02*
X136261714Y-76556190D01*
X136023619Y-77032380D02*
X136023619Y-76032380D01*
X136404571Y-76032380D01*
X136499809Y-76080000D01*
X136547428Y-76127619D01*
X136595047Y-76222857D01*
X136595047Y-76365714D01*
X136547428Y-76460952D01*
X136499809Y-76508571D01*
X136404571Y-76556190D01*
X136023619Y-76556190D01*
X137214095Y-76032380D02*
X137404571Y-76032380D01*
X137499809Y-76080000D01*
X137595047Y-76175238D01*
X137642666Y-76365714D01*
X137642666Y-76699047D01*
X137595047Y-76889523D01*
X137499809Y-76984761D01*
X137404571Y-77032380D01*
X137214095Y-77032380D01*
X137118857Y-76984761D01*
X137023619Y-76889523D01*
X136976000Y-76699047D01*
X136976000Y-76365714D01*
X137023619Y-76175238D01*
X137118857Y-76080000D01*
X137214095Y-76032380D01*
X130809333Y-77682380D02*
X130333142Y-77682380D01*
X130285523Y-78158571D01*
X130333142Y-78110952D01*
X130428380Y-78063333D01*
X130666476Y-78063333D01*
X130761714Y-78110952D01*
X130809333Y-78158571D01*
X130856952Y-78253809D01*
X130856952Y-78491904D01*
X130809333Y-78587142D01*
X130761714Y-78634761D01*
X130666476Y-78682380D01*
X130428380Y-78682380D01*
X130333142Y-78634761D01*
X130285523Y-78587142D01*
X131142666Y-77682380D02*
X131476000Y-78682380D01*
X131809333Y-77682380D01*
X132856952Y-77634761D02*
X131999809Y-78920476D01*
X133714095Y-78682380D02*
X133142666Y-78682380D01*
X133428380Y-78682380D02*
X133428380Y-77682380D01*
X133333142Y-77825238D01*
X133237904Y-77920476D01*
X133142666Y-77968095D01*
X134571238Y-77682380D02*
X134380761Y-77682380D01*
X134285523Y-77730000D01*
X134237904Y-77777619D01*
X134142666Y-77920476D01*
X134095047Y-78110952D01*
X134095047Y-78491904D01*
X134142666Y-78587142D01*
X134190285Y-78634761D01*
X134285523Y-78682380D01*
X134476000Y-78682380D01*
X134571238Y-78634761D01*
X134618857Y-78587142D01*
X134666476Y-78491904D01*
X134666476Y-78253809D01*
X134618857Y-78158571D01*
X134571238Y-78110952D01*
X134476000Y-78063333D01*
X134285523Y-78063333D01*
X134190285Y-78110952D01*
X134142666Y-78158571D01*
X134095047Y-78253809D01*
X135095047Y-78682380D02*
X135095047Y-77682380D01*
X135428380Y-78396666D01*
X135761714Y-77682380D01*
X135761714Y-78682380D01*
X136237904Y-78682380D02*
X136237904Y-77682380D01*
X136237904Y-78158571D02*
X136809333Y-78158571D01*
X136809333Y-78682380D02*
X136809333Y-77682380D01*
X137190285Y-78015714D02*
X137714095Y-78015714D01*
X137190285Y-78682380D01*
X137714095Y-78682380D01*
D11*
G36*
X115254000Y-77084000D02*
G01*
X114254000Y-76584000D01*
X115254000Y-76084000D01*
X115254000Y-77084000D01*
G37*
X115254000Y-77084000D02*
X114254000Y-76584000D01*
X115254000Y-76084000D01*
X115254000Y-77084000D01*
D12*
X115254000Y-76584000D02*
X118254000Y-76584000D01*
D10*
X115714095Y-75104380D02*
X115714095Y-75913904D01*
X115761714Y-76009142D01*
X115809333Y-76056761D01*
X115904571Y-76104380D01*
X116095047Y-76104380D01*
X116190285Y-76056761D01*
X116237904Y-76009142D01*
X116285523Y-75913904D01*
X116285523Y-75104380D01*
X116714095Y-76056761D02*
X116856952Y-76104380D01*
X117095047Y-76104380D01*
X117190285Y-76056761D01*
X117237904Y-76009142D01*
X117285523Y-75913904D01*
X117285523Y-75818666D01*
X117237904Y-75723428D01*
X117190285Y-75675809D01*
X117095047Y-75628190D01*
X116904571Y-75580571D01*
X116809333Y-75532952D01*
X116761714Y-75485333D01*
X116714095Y-75390095D01*
X116714095Y-75294857D01*
X116761714Y-75199619D01*
X116809333Y-75152000D01*
X116904571Y-75104380D01*
X117142666Y-75104380D01*
X117285523Y-75152000D01*
X118047428Y-75580571D02*
X118190285Y-75628190D01*
X118237904Y-75675809D01*
X118285523Y-75771047D01*
X118285523Y-75913904D01*
X118237904Y-76009142D01*
X118190285Y-76056761D01*
X118095047Y-76104380D01*
X117714095Y-76104380D01*
X117714095Y-75104380D01*
X118047428Y-75104380D01*
X118142666Y-75152000D01*
X118190285Y-75199619D01*
X118237904Y-75294857D01*
X118237904Y-75390095D01*
X118190285Y-75485333D01*
X118142666Y-75532952D01*
X118047428Y-75580571D01*
X117714095Y-75580571D01*
D13*
%TO.C,LOGO3*%
G36*
X135064101Y-52130292D02*
G01*
X135078724Y-52115668D01*
X135128109Y-52066294D01*
X135171874Y-52022573D01*
X135210375Y-51984159D01*
X135243967Y-51950707D01*
X135273007Y-51921873D01*
X135297850Y-51897313D01*
X135318854Y-51876679D01*
X135336375Y-51859630D01*
X135350767Y-51845817D01*
X135362389Y-51834898D01*
X135371595Y-51826528D01*
X135378741Y-51820362D01*
X135384184Y-51816055D01*
X135388280Y-51813261D01*
X135391386Y-51811636D01*
X135393421Y-51810940D01*
X135406224Y-51809631D01*
X135417084Y-51811316D01*
X135421941Y-51814204D01*
X135433289Y-51821564D01*
X135450650Y-51833071D01*
X135473540Y-51848399D01*
X135501477Y-51867222D01*
X135533980Y-51889213D01*
X135570567Y-51914046D01*
X135610758Y-51941394D01*
X135654068Y-51970931D01*
X135700017Y-52002331D01*
X135748123Y-52035266D01*
X135780887Y-52057733D01*
X135830192Y-52091519D01*
X135877691Y-52123984D01*
X135922901Y-52154798D01*
X135965334Y-52183638D01*
X136004509Y-52210176D01*
X136039938Y-52234085D01*
X136071137Y-52255038D01*
X136097621Y-52272709D01*
X136118907Y-52286771D01*
X136134508Y-52296898D01*
X136143940Y-52302762D01*
X136146545Y-52304137D01*
X136160082Y-52306783D01*
X136172085Y-52307357D01*
X136177508Y-52305693D01*
X136189984Y-52301053D01*
X136208764Y-52293746D01*
X136233096Y-52284085D01*
X136262232Y-52272378D01*
X136295421Y-52258936D01*
X136331914Y-52244069D01*
X136370961Y-52228086D01*
X136411812Y-52211298D01*
X136453716Y-52194017D01*
X136495924Y-52176551D01*
X136537686Y-52159209D01*
X136578253Y-52142305D01*
X136616873Y-52126145D01*
X136652799Y-52111043D01*
X136685278Y-52097306D01*
X136713562Y-52085246D01*
X136736900Y-52075173D01*
X136754544Y-52067396D01*
X136765743Y-52062226D01*
X136769321Y-52060341D01*
X136770624Y-52061072D01*
X136772900Y-52064591D01*
X136776274Y-52071214D01*
X136780872Y-52081259D01*
X136786816Y-52095042D01*
X136794233Y-52112879D01*
X136803248Y-52135089D01*
X136813984Y-52161989D01*
X136826568Y-52193892D01*
X136841123Y-52231120D01*
X136857775Y-52273986D01*
X136876649Y-52322809D01*
X136897869Y-52377903D01*
X136921560Y-52439589D01*
X136947847Y-52508181D01*
X136976856Y-52583995D01*
X137008710Y-52667351D01*
X137015293Y-52684590D01*
X137042003Y-52754547D01*
X137067898Y-52822403D01*
X137092818Y-52887732D01*
X137116598Y-52950110D01*
X137139079Y-53009107D01*
X137160097Y-53064299D01*
X137179491Y-53115260D01*
X137197098Y-53161562D01*
X137212755Y-53202780D01*
X137226302Y-53238488D01*
X137237577Y-53268260D01*
X137246415Y-53291669D01*
X137252657Y-53308289D01*
X137256140Y-53317693D01*
X137256843Y-53319719D01*
X137256423Y-53323018D01*
X137252986Y-53327042D01*
X137245526Y-53332479D01*
X137233038Y-53340013D01*
X137214516Y-53350332D01*
X137202358Y-53356924D01*
X137147004Y-53387615D01*
X137088678Y-53421491D01*
X137029231Y-53457398D01*
X136970511Y-53494184D01*
X136914368Y-53530693D01*
X136862649Y-53565772D01*
X136826578Y-53591396D01*
X136806415Y-53607167D01*
X136781875Y-53628116D01*
X136754167Y-53653062D01*
X136724501Y-53680823D01*
X136694087Y-53710218D01*
X136664138Y-53740065D01*
X136635863Y-53769184D01*
X136610474Y-53796392D01*
X136589179Y-53820509D01*
X136578468Y-53833513D01*
X136548823Y-53872470D01*
X136516554Y-53917701D01*
X136482572Y-53967789D01*
X136447787Y-54021313D01*
X136413106Y-54076853D01*
X136379440Y-54132990D01*
X136347697Y-54188304D01*
X136326271Y-54227329D01*
X136314917Y-54248340D01*
X136304900Y-54266656D01*
X136296923Y-54281008D01*
X136291689Y-54290134D01*
X136289967Y-54292802D01*
X136285849Y-54291509D01*
X136274272Y-54287280D01*
X136255656Y-54280277D01*
X136230424Y-54270663D01*
X136198994Y-54258601D01*
X136161789Y-54244255D01*
X136119227Y-54227788D01*
X136071730Y-54209362D01*
X136019717Y-54189141D01*
X135963611Y-54167286D01*
X135903829Y-54143963D01*
X135840794Y-54119334D01*
X135774927Y-54093561D01*
X135706646Y-54066808D01*
X135662073Y-54049325D01*
X135592418Y-54021986D01*
X135524885Y-53995466D01*
X135459895Y-53969933D01*
X135397873Y-53945553D01*
X135339240Y-53922492D01*
X135284420Y-53900917D01*
X135233835Y-53880995D01*
X135187908Y-53862893D01*
X135147062Y-53846776D01*
X135111719Y-53832812D01*
X135082304Y-53821167D01*
X135059236Y-53812008D01*
X135042940Y-53805501D01*
X135033839Y-53801814D01*
X135031990Y-53801013D01*
X135032765Y-53796631D01*
X135036739Y-53784844D01*
X135043766Y-53766025D01*
X135053696Y-53740543D01*
X135066380Y-53708773D01*
X135081672Y-53671084D01*
X135099419Y-53627849D01*
X135119476Y-53579438D01*
X135141693Y-53526224D01*
X135146543Y-53514653D01*
X135166102Y-53467920D01*
X135184741Y-53423175D01*
X135202190Y-53381074D01*
X135218182Y-53342277D01*
X135232449Y-53307438D01*
X135244723Y-53277215D01*
X135254737Y-53252265D01*
X135262219Y-53233244D01*
X135266905Y-53220808D01*
X135268488Y-53215912D01*
X135269146Y-53201243D01*
X135266710Y-53186089D01*
X135266389Y-53185052D01*
X135263170Y-53179043D01*
X135255341Y-53166419D01*
X135243126Y-53147516D01*
X135226752Y-53122667D01*
X135206444Y-53092207D01*
X135182427Y-53056474D01*
X135154926Y-53015801D01*
X135124166Y-52970523D01*
X135090373Y-52920976D01*
X135053772Y-52867495D01*
X135017764Y-52815037D01*
X134983934Y-52765769D01*
X134951446Y-52718367D01*
X134920626Y-52673307D01*
X134891797Y-52631069D01*
X134865284Y-52592129D01*
X134841409Y-52556964D01*
X134820498Y-52526055D01*
X134802875Y-52499879D01*
X134788864Y-52478912D01*
X134778789Y-52463633D01*
X134772973Y-52454521D01*
X134771616Y-52452086D01*
X134770497Y-52448522D01*
X134769664Y-52445197D01*
X134769447Y-52441753D01*
X134770176Y-52437828D01*
X134772179Y-52433061D01*
X134775786Y-52427091D01*
X134781327Y-52419558D01*
X134789130Y-52410100D01*
X134799526Y-52398358D01*
X134812844Y-52383968D01*
X134829413Y-52366573D01*
X134849562Y-52345809D01*
X134873622Y-52321317D01*
X134901921Y-52292733D01*
X134934789Y-52259701D01*
X134972555Y-52221857D01*
X135015549Y-52178842D01*
X135064101Y-52130292D01*
G37*
X135064101Y-52130292D02*
X135078724Y-52115668D01*
X135128109Y-52066294D01*
X135171874Y-52022573D01*
X135210375Y-51984159D01*
X135243967Y-51950707D01*
X135273007Y-51921873D01*
X135297850Y-51897313D01*
X135318854Y-51876679D01*
X135336375Y-51859630D01*
X135350767Y-51845817D01*
X135362389Y-51834898D01*
X135371595Y-51826528D01*
X135378741Y-51820362D01*
X135384184Y-51816055D01*
X135388280Y-51813261D01*
X135391386Y-51811636D01*
X135393421Y-51810940D01*
X135406224Y-51809631D01*
X135417084Y-51811316D01*
X135421941Y-51814204D01*
X135433289Y-51821564D01*
X135450650Y-51833071D01*
X135473540Y-51848399D01*
X135501477Y-51867222D01*
X135533980Y-51889213D01*
X135570567Y-51914046D01*
X135610758Y-51941394D01*
X135654068Y-51970931D01*
X135700017Y-52002331D01*
X135748123Y-52035266D01*
X135780887Y-52057733D01*
X135830192Y-52091519D01*
X135877691Y-52123984D01*
X135922901Y-52154798D01*
X135965334Y-52183638D01*
X136004509Y-52210176D01*
X136039938Y-52234085D01*
X136071137Y-52255038D01*
X136097621Y-52272709D01*
X136118907Y-52286771D01*
X136134508Y-52296898D01*
X136143940Y-52302762D01*
X136146545Y-52304137D01*
X136160082Y-52306783D01*
X136172085Y-52307357D01*
X136177508Y-52305693D01*
X136189984Y-52301053D01*
X136208764Y-52293746D01*
X136233096Y-52284085D01*
X136262232Y-52272378D01*
X136295421Y-52258936D01*
X136331914Y-52244069D01*
X136370961Y-52228086D01*
X136411812Y-52211298D01*
X136453716Y-52194017D01*
X136495924Y-52176551D01*
X136537686Y-52159209D01*
X136578253Y-52142305D01*
X136616873Y-52126145D01*
X136652799Y-52111043D01*
X136685278Y-52097306D01*
X136713562Y-52085246D01*
X136736900Y-52075173D01*
X136754544Y-52067396D01*
X136765743Y-52062226D01*
X136769321Y-52060341D01*
X136770624Y-52061072D01*
X136772900Y-52064591D01*
X136776274Y-52071214D01*
X136780872Y-52081259D01*
X136786816Y-52095042D01*
X136794233Y-52112879D01*
X136803248Y-52135089D01*
X136813984Y-52161989D01*
X136826568Y-52193892D01*
X136841123Y-52231120D01*
X136857775Y-52273986D01*
X136876649Y-52322809D01*
X136897869Y-52377903D01*
X136921560Y-52439589D01*
X136947847Y-52508181D01*
X136976856Y-52583995D01*
X137008710Y-52667351D01*
X137015293Y-52684590D01*
X137042003Y-52754547D01*
X137067898Y-52822403D01*
X137092818Y-52887732D01*
X137116598Y-52950110D01*
X137139079Y-53009107D01*
X137160097Y-53064299D01*
X137179491Y-53115260D01*
X137197098Y-53161562D01*
X137212755Y-53202780D01*
X137226302Y-53238488D01*
X137237577Y-53268260D01*
X137246415Y-53291669D01*
X137252657Y-53308289D01*
X137256140Y-53317693D01*
X137256843Y-53319719D01*
X137256423Y-53323018D01*
X137252986Y-53327042D01*
X137245526Y-53332479D01*
X137233038Y-53340013D01*
X137214516Y-53350332D01*
X137202358Y-53356924D01*
X137147004Y-53387615D01*
X137088678Y-53421491D01*
X137029231Y-53457398D01*
X136970511Y-53494184D01*
X136914368Y-53530693D01*
X136862649Y-53565772D01*
X136826578Y-53591396D01*
X136806415Y-53607167D01*
X136781875Y-53628116D01*
X136754167Y-53653062D01*
X136724501Y-53680823D01*
X136694087Y-53710218D01*
X136664138Y-53740065D01*
X136635863Y-53769184D01*
X136610474Y-53796392D01*
X136589179Y-53820509D01*
X136578468Y-53833513D01*
X136548823Y-53872470D01*
X136516554Y-53917701D01*
X136482572Y-53967789D01*
X136447787Y-54021313D01*
X136413106Y-54076853D01*
X136379440Y-54132990D01*
X136347697Y-54188304D01*
X136326271Y-54227329D01*
X136314917Y-54248340D01*
X136304900Y-54266656D01*
X136296923Y-54281008D01*
X136291689Y-54290134D01*
X136289967Y-54292802D01*
X136285849Y-54291509D01*
X136274272Y-54287280D01*
X136255656Y-54280277D01*
X136230424Y-54270663D01*
X136198994Y-54258601D01*
X136161789Y-54244255D01*
X136119227Y-54227788D01*
X136071730Y-54209362D01*
X136019717Y-54189141D01*
X135963611Y-54167286D01*
X135903829Y-54143963D01*
X135840794Y-54119334D01*
X135774927Y-54093561D01*
X135706646Y-54066808D01*
X135662073Y-54049325D01*
X135592418Y-54021986D01*
X135524885Y-53995466D01*
X135459895Y-53969933D01*
X135397873Y-53945553D01*
X135339240Y-53922492D01*
X135284420Y-53900917D01*
X135233835Y-53880995D01*
X135187908Y-53862893D01*
X135147062Y-53846776D01*
X135111719Y-53832812D01*
X135082304Y-53821167D01*
X135059236Y-53812008D01*
X135042940Y-53805501D01*
X135033839Y-53801814D01*
X135031990Y-53801013D01*
X135032765Y-53796631D01*
X135036739Y-53784844D01*
X135043766Y-53766025D01*
X135053696Y-53740543D01*
X135066380Y-53708773D01*
X135081672Y-53671084D01*
X135099419Y-53627849D01*
X135119476Y-53579438D01*
X135141693Y-53526224D01*
X135146543Y-53514653D01*
X135166102Y-53467920D01*
X135184741Y-53423175D01*
X135202190Y-53381074D01*
X135218182Y-53342277D01*
X135232449Y-53307438D01*
X135244723Y-53277215D01*
X135254737Y-53252265D01*
X135262219Y-53233244D01*
X135266905Y-53220808D01*
X135268488Y-53215912D01*
X135269146Y-53201243D01*
X135266710Y-53186089D01*
X135266389Y-53185052D01*
X135263170Y-53179043D01*
X135255341Y-53166419D01*
X135243126Y-53147516D01*
X135226752Y-53122667D01*
X135206444Y-53092207D01*
X135182427Y-53056474D01*
X135154926Y-53015801D01*
X135124166Y-52970523D01*
X135090373Y-52920976D01*
X135053772Y-52867495D01*
X135017764Y-52815037D01*
X134983934Y-52765769D01*
X134951446Y-52718367D01*
X134920626Y-52673307D01*
X134891797Y-52631069D01*
X134865284Y-52592129D01*
X134841409Y-52556964D01*
X134820498Y-52526055D01*
X134802875Y-52499879D01*
X134788864Y-52478912D01*
X134778789Y-52463633D01*
X134772973Y-52454521D01*
X134771616Y-52452086D01*
X134770497Y-52448522D01*
X134769664Y-52445197D01*
X134769447Y-52441753D01*
X134770176Y-52437828D01*
X134772179Y-52433061D01*
X134775786Y-52427091D01*
X134781327Y-52419558D01*
X134789130Y-52410100D01*
X134799526Y-52398358D01*
X134812844Y-52383968D01*
X134829413Y-52366573D01*
X134849562Y-52345809D01*
X134873622Y-52321317D01*
X134901921Y-52292733D01*
X134934789Y-52259701D01*
X134972555Y-52221857D01*
X135015549Y-52178842D01*
X135064101Y-52130292D01*
G36*
X136975970Y-51155248D02*
G01*
X136981477Y-51154423D01*
X136994753Y-51153644D01*
X137015099Y-51152914D01*
X137041818Y-51152235D01*
X137074213Y-51151608D01*
X137111585Y-51151035D01*
X137153237Y-51150520D01*
X137198471Y-51150064D01*
X137246589Y-51149669D01*
X137296892Y-51149337D01*
X137348684Y-51149071D01*
X137401266Y-51148872D01*
X137453941Y-51148743D01*
X137506011Y-51148685D01*
X137556779Y-51148702D01*
X137605544Y-51148795D01*
X137651612Y-51148966D01*
X137694283Y-51149217D01*
X137732860Y-51149551D01*
X137766644Y-51149969D01*
X137794939Y-51150474D01*
X137817046Y-51151067D01*
X137832268Y-51151751D01*
X137839906Y-51152529D01*
X137840247Y-51152619D01*
X137854770Y-51160722D01*
X137861738Y-51168071D01*
X137864073Y-51174478D01*
X137867833Y-51189164D01*
X137873006Y-51212064D01*
X137879578Y-51243116D01*
X137887536Y-51282254D01*
X137896869Y-51329413D01*
X137907561Y-51384530D01*
X137919602Y-51447540D01*
X137932977Y-51518380D01*
X137947585Y-51596510D01*
X137960378Y-51664910D01*
X137972394Y-51728548D01*
X137983561Y-51787056D01*
X137993805Y-51840070D01*
X138003055Y-51887223D01*
X138011236Y-51928150D01*
X138018275Y-51962484D01*
X138024101Y-51989860D01*
X138028639Y-52009912D01*
X138031817Y-52022273D01*
X138033280Y-52026302D01*
X138041147Y-52036584D01*
X138049148Y-52044001D01*
X138049458Y-52044204D01*
X138055463Y-52047098D01*
X138068541Y-52052762D01*
X138087950Y-52060895D01*
X138112942Y-52071202D01*
X138142776Y-52083387D01*
X138176708Y-52097154D01*
X138213993Y-52112205D01*
X138253885Y-52128245D01*
X138295642Y-52144978D01*
X138338521Y-52162106D01*
X138381774Y-52179334D01*
X138424660Y-52196366D01*
X138466434Y-52212904D01*
X138506352Y-52228653D01*
X138543669Y-52243315D01*
X138577641Y-52256595D01*
X138607525Y-52268197D01*
X138632576Y-52277822D01*
X138652050Y-52285178D01*
X138665202Y-52289965D01*
X138671289Y-52291887D01*
X138671398Y-52291903D01*
X138685403Y-52291805D01*
X138696992Y-52289627D01*
X138702139Y-52286724D01*
X138713767Y-52279348D01*
X138731386Y-52267828D01*
X138754503Y-52252495D01*
X138782630Y-52233679D01*
X138815275Y-52211711D01*
X138851947Y-52186922D01*
X138892158Y-52159642D01*
X138935414Y-52130201D01*
X138981227Y-52098931D01*
X139029106Y-52066161D01*
X139055248Y-52048231D01*
X139112042Y-52009257D01*
X139162282Y-51974797D01*
X139206394Y-51944574D01*
X139244804Y-51918309D01*
X139277937Y-51895725D01*
X139306221Y-51876545D01*
X139330081Y-51860489D01*
X139349941Y-51847281D01*
X139366230Y-51836641D01*
X139379371Y-51828292D01*
X139389791Y-51821956D01*
X139397916Y-51817354D01*
X139404172Y-51814211D01*
X139408983Y-51812246D01*
X139412778Y-51811183D01*
X139415981Y-51810742D01*
X139419017Y-51810647D01*
X139419212Y-51810645D01*
X139437104Y-51810576D01*
X139543656Y-51913364D01*
X139536422Y-51919987D01*
X139531578Y-51923324D01*
X139520138Y-51930633D01*
X139502755Y-51941512D01*
X139480084Y-51955558D01*
X139452779Y-51972371D01*
X139421492Y-51991545D01*
X139386877Y-52012679D01*
X139349587Y-52035372D01*
X139311082Y-52058733D01*
X139228459Y-52108931D01*
X139152891Y-52155154D01*
X139084069Y-52197597D01*
X139021681Y-52236457D01*
X138965415Y-52271927D01*
X138914960Y-52304203D01*
X138870005Y-52333482D01*
X138830238Y-52359960D01*
X138814657Y-52370531D01*
X138802323Y-52379058D01*
X138783639Y-52392125D01*
X138759141Y-52409350D01*
X138729368Y-52430350D01*
X138694861Y-52454745D01*
X138656157Y-52482154D01*
X138613794Y-52512193D01*
X138568311Y-52544482D01*
X138520245Y-52578638D01*
X138470137Y-52614281D01*
X138418526Y-52651030D01*
X138365947Y-52688500D01*
X138360918Y-52692087D01*
X138309277Y-52728865D01*
X138259208Y-52764435D01*
X138211182Y-52798466D01*
X138165673Y-52830627D01*
X138123151Y-52860588D01*
X138084092Y-52888017D01*
X138048965Y-52912584D01*
X138018243Y-52933958D01*
X137992399Y-52951808D01*
X137971906Y-52965801D01*
X137957236Y-52975609D01*
X137948860Y-52980899D01*
X137947819Y-52981470D01*
X137934155Y-52988057D01*
X137925914Y-52990749D01*
X137921163Y-52989838D01*
X137918137Y-52985934D01*
X137914720Y-52979805D01*
X137910271Y-52972140D01*
X137904612Y-52962663D01*
X137897563Y-52951095D01*
X137888948Y-52937157D01*
X137878590Y-52920572D01*
X137866308Y-52901060D01*
X137851926Y-52878344D01*
X137835264Y-52852145D01*
X137816145Y-52822185D01*
X137794393Y-52788187D01*
X137769826Y-52749870D01*
X137742269Y-52706957D01*
X137711542Y-52659169D01*
X137677469Y-52606229D01*
X137639871Y-52547859D01*
X137598568Y-52483779D01*
X137553384Y-52413711D01*
X137504141Y-52337378D01*
X137450660Y-52254501D01*
X137392763Y-52164800D01*
X137391036Y-52162126D01*
X136908393Y-51414430D01*
X136930107Y-51296971D01*
X136936013Y-51266049D01*
X136941824Y-51237526D01*
X136947270Y-51212566D01*
X136952089Y-51192331D01*
X136956017Y-51177982D01*
X136958783Y-51170684D01*
X136959007Y-51170360D01*
X136968457Y-51160838D01*
X136975970Y-51155248D01*
G37*
X136975970Y-51155248D02*
X136981477Y-51154423D01*
X136994753Y-51153644D01*
X137015099Y-51152914D01*
X137041818Y-51152235D01*
X137074213Y-51151608D01*
X137111585Y-51151035D01*
X137153237Y-51150520D01*
X137198471Y-51150064D01*
X137246589Y-51149669D01*
X137296892Y-51149337D01*
X137348684Y-51149071D01*
X137401266Y-51148872D01*
X137453941Y-51148743D01*
X137506011Y-51148685D01*
X137556779Y-51148702D01*
X137605544Y-51148795D01*
X137651612Y-51148966D01*
X137694283Y-51149217D01*
X137732860Y-51149551D01*
X137766644Y-51149969D01*
X137794939Y-51150474D01*
X137817046Y-51151067D01*
X137832268Y-51151751D01*
X137839906Y-51152529D01*
X137840247Y-51152619D01*
X137854770Y-51160722D01*
X137861738Y-51168071D01*
X137864073Y-51174478D01*
X137867833Y-51189164D01*
X137873006Y-51212064D01*
X137879578Y-51243116D01*
X137887536Y-51282254D01*
X137896869Y-51329413D01*
X137907561Y-51384530D01*
X137919602Y-51447540D01*
X137932977Y-51518380D01*
X137947585Y-51596510D01*
X137960378Y-51664910D01*
X137972394Y-51728548D01*
X137983561Y-51787056D01*
X137993805Y-51840070D01*
X138003055Y-51887223D01*
X138011236Y-51928150D01*
X138018275Y-51962484D01*
X138024101Y-51989860D01*
X138028639Y-52009912D01*
X138031817Y-52022273D01*
X138033280Y-52026302D01*
X138041147Y-52036584D01*
X138049148Y-52044001D01*
X138049458Y-52044204D01*
X138055463Y-52047098D01*
X138068541Y-52052762D01*
X138087950Y-52060895D01*
X138112942Y-52071202D01*
X138142776Y-52083387D01*
X138176708Y-52097154D01*
X138213993Y-52112205D01*
X138253885Y-52128245D01*
X138295642Y-52144978D01*
X138338521Y-52162106D01*
X138381774Y-52179334D01*
X138424660Y-52196366D01*
X138466434Y-52212904D01*
X138506352Y-52228653D01*
X138543669Y-52243315D01*
X138577641Y-52256595D01*
X138607525Y-52268197D01*
X138632576Y-52277822D01*
X138652050Y-52285178D01*
X138665202Y-52289965D01*
X138671289Y-52291887D01*
X138671398Y-52291903D01*
X138685403Y-52291805D01*
X138696992Y-52289627D01*
X138702139Y-52286724D01*
X138713767Y-52279348D01*
X138731386Y-52267828D01*
X138754503Y-52252495D01*
X138782630Y-52233679D01*
X138815275Y-52211711D01*
X138851947Y-52186922D01*
X138892158Y-52159642D01*
X138935414Y-52130201D01*
X138981227Y-52098931D01*
X139029106Y-52066161D01*
X139055248Y-52048231D01*
X139112042Y-52009257D01*
X139162282Y-51974797D01*
X139206394Y-51944574D01*
X139244804Y-51918309D01*
X139277937Y-51895725D01*
X139306221Y-51876545D01*
X139330081Y-51860489D01*
X139349941Y-51847281D01*
X139366230Y-51836641D01*
X139379371Y-51828292D01*
X139389791Y-51821956D01*
X139397916Y-51817354D01*
X139404172Y-51814211D01*
X139408983Y-51812246D01*
X139412778Y-51811183D01*
X139415981Y-51810742D01*
X139419017Y-51810647D01*
X139419212Y-51810645D01*
X139437104Y-51810576D01*
X139543656Y-51913364D01*
X139536422Y-51919987D01*
X139531578Y-51923324D01*
X139520138Y-51930633D01*
X139502755Y-51941512D01*
X139480084Y-51955558D01*
X139452779Y-51972371D01*
X139421492Y-51991545D01*
X139386877Y-52012679D01*
X139349587Y-52035372D01*
X139311082Y-52058733D01*
X139228459Y-52108931D01*
X139152891Y-52155154D01*
X139084069Y-52197597D01*
X139021681Y-52236457D01*
X138965415Y-52271927D01*
X138914960Y-52304203D01*
X138870005Y-52333482D01*
X138830238Y-52359960D01*
X138814657Y-52370531D01*
X138802323Y-52379058D01*
X138783639Y-52392125D01*
X138759141Y-52409350D01*
X138729368Y-52430350D01*
X138694861Y-52454745D01*
X138656157Y-52482154D01*
X138613794Y-52512193D01*
X138568311Y-52544482D01*
X138520245Y-52578638D01*
X138470137Y-52614281D01*
X138418526Y-52651030D01*
X138365947Y-52688500D01*
X138360918Y-52692087D01*
X138309277Y-52728865D01*
X138259208Y-52764435D01*
X138211182Y-52798466D01*
X138165673Y-52830627D01*
X138123151Y-52860588D01*
X138084092Y-52888017D01*
X138048965Y-52912584D01*
X138018243Y-52933958D01*
X137992399Y-52951808D01*
X137971906Y-52965801D01*
X137957236Y-52975609D01*
X137948860Y-52980899D01*
X137947819Y-52981470D01*
X137934155Y-52988057D01*
X137925914Y-52990749D01*
X137921163Y-52989838D01*
X137918137Y-52985934D01*
X137914720Y-52979805D01*
X137910271Y-52972140D01*
X137904612Y-52962663D01*
X137897563Y-52951095D01*
X137888948Y-52937157D01*
X137878590Y-52920572D01*
X137866308Y-52901060D01*
X137851926Y-52878344D01*
X137835264Y-52852145D01*
X137816145Y-52822185D01*
X137794393Y-52788187D01*
X137769826Y-52749870D01*
X137742269Y-52706957D01*
X137711542Y-52659169D01*
X137677469Y-52606229D01*
X137639871Y-52547859D01*
X137598568Y-52483779D01*
X137553384Y-52413711D01*
X137504141Y-52337378D01*
X137450660Y-52254501D01*
X137392763Y-52164800D01*
X137391036Y-52162126D01*
X136908393Y-51414430D01*
X136930107Y-51296971D01*
X136936013Y-51266049D01*
X136941824Y-51237526D01*
X136947270Y-51212566D01*
X136952089Y-51192331D01*
X136956017Y-51177982D01*
X136958783Y-51170684D01*
X136959007Y-51170360D01*
X136968457Y-51160838D01*
X136975970Y-51155248D01*
G36*
X134125332Y-54003209D02*
G01*
X134129827Y-53999207D01*
X134135134Y-53995745D01*
X134142260Y-53992552D01*
X134152214Y-53989364D01*
X134166005Y-53985913D01*
X134184642Y-53981931D01*
X134209134Y-53977152D01*
X134240490Y-53971308D01*
X134257671Y-53968157D01*
X134376487Y-53946424D01*
X135138688Y-54438216D01*
X135212104Y-54485575D01*
X135283793Y-54531800D01*
X135353420Y-54576675D01*
X135420646Y-54619983D01*
X135485133Y-54661506D01*
X135546545Y-54701029D01*
X135604542Y-54738333D01*
X135658789Y-54773202D01*
X135708947Y-54805420D01*
X135754679Y-54834769D01*
X135795647Y-54861034D01*
X135831514Y-54883996D01*
X135861942Y-54903440D01*
X135886593Y-54919148D01*
X135905131Y-54930903D01*
X135917217Y-54938488D01*
X135922429Y-54941644D01*
X135935437Y-54948632D01*
X135946112Y-54954299D01*
X135950580Y-54956622D01*
X135953340Y-54959925D01*
X135952542Y-54966401D01*
X135947807Y-54977589D01*
X135943103Y-54986850D01*
X135938815Y-54993796D01*
X135929926Y-55007158D01*
X135916764Y-55026465D01*
X135899658Y-55051249D01*
X135878939Y-55081039D01*
X135854932Y-55115368D01*
X135827968Y-55153768D01*
X135798377Y-55195769D01*
X135766484Y-55240901D01*
X135732623Y-55288697D01*
X135697118Y-55338687D01*
X135660302Y-55390403D01*
X135646098Y-55410322D01*
X135596284Y-55480156D01*
X135551001Y-55543674D01*
X135509864Y-55601455D01*
X135472486Y-55654078D01*
X135438482Y-55702119D01*
X135407466Y-55746157D01*
X135379054Y-55786770D01*
X135352858Y-55824536D01*
X135328493Y-55860032D01*
X135305574Y-55893836D01*
X135283715Y-55926527D01*
X135262530Y-55958682D01*
X135241633Y-55990879D01*
X135220641Y-56023696D01*
X135199164Y-56057712D01*
X135176820Y-56093503D01*
X135153222Y-56131648D01*
X135127984Y-56172725D01*
X135100720Y-56217312D01*
X135071045Y-56265986D01*
X135038573Y-56319326D01*
X135029258Y-56334633D01*
X135004347Y-56375531D01*
X134980672Y-56414324D01*
X134958610Y-56450402D01*
X134938536Y-56483155D01*
X134920825Y-56511971D01*
X134905855Y-56536239D01*
X134893999Y-56555350D01*
X134885635Y-56568693D01*
X134881137Y-56575654D01*
X134880502Y-56576518D01*
X134877775Y-56576845D01*
X134872599Y-56573873D01*
X134864201Y-56566943D01*
X134851809Y-56555401D01*
X134834653Y-56538589D01*
X134827280Y-56531239D01*
X134806524Y-56510177D01*
X134791289Y-56493781D01*
X134780863Y-56480985D01*
X134774541Y-56470720D01*
X134771611Y-56461920D01*
X134771365Y-56453515D01*
X134772196Y-56448285D01*
X134774963Y-56442980D01*
X134782316Y-56431085D01*
X134794006Y-56412967D01*
X134809790Y-56388991D01*
X134829422Y-56359521D01*
X134852657Y-56324925D01*
X134879250Y-56285568D01*
X134908954Y-56241814D01*
X134941526Y-56194028D01*
X134976719Y-56142577D01*
X135011727Y-56091553D01*
X135050962Y-56034428D01*
X135085667Y-55983848D01*
X135116125Y-55939386D01*
X135142612Y-55900618D01*
X135165410Y-55867120D01*
X135184800Y-55838467D01*
X135201060Y-55814233D01*
X135214473Y-55793995D01*
X135225317Y-55777328D01*
X135233873Y-55763806D01*
X135240421Y-55753006D01*
X135245240Y-55744504D01*
X135248612Y-55737873D01*
X135250817Y-55732690D01*
X135252133Y-55728529D01*
X135252601Y-55726412D01*
X135253213Y-55722521D01*
X135253433Y-55718359D01*
X135253064Y-55713379D01*
X135251905Y-55707030D01*
X135249759Y-55698764D01*
X135246425Y-55688032D01*
X135241703Y-55674284D01*
X135235397Y-55656972D01*
X135227304Y-55635546D01*
X135217227Y-55609457D01*
X135204966Y-55578157D01*
X135190323Y-55541097D01*
X135173097Y-55497725D01*
X135153089Y-55447496D01*
X135134353Y-55400513D01*
X135111103Y-55342258D01*
X135090737Y-55291359D01*
X135073010Y-55247302D01*
X135057679Y-55209572D01*
X135044500Y-55177657D01*
X135033226Y-55151044D01*
X135023616Y-55129221D01*
X135015424Y-55111672D01*
X135008407Y-55097887D01*
X135002319Y-55087351D01*
X134996916Y-55079550D01*
X134991955Y-55073974D01*
X134987192Y-55070106D01*
X134982381Y-55067437D01*
X134977279Y-55065451D01*
X134974412Y-55064513D01*
X134968532Y-55063184D01*
X134954916Y-55060427D01*
X134934149Y-55056355D01*
X134906819Y-55051077D01*
X134873516Y-55044706D01*
X134834826Y-55037354D01*
X134791337Y-55029131D01*
X134743638Y-55020150D01*
X134692315Y-55010523D01*
X134637958Y-55000360D01*
X134581152Y-54989772D01*
X134555767Y-54985052D01*
X134498125Y-54974313D01*
X134442710Y-54963936D01*
X134390106Y-54954033D01*
X134340895Y-54944716D01*
X134295664Y-54936098D01*
X134254996Y-54928290D01*
X134219475Y-54921405D01*
X134189685Y-54915557D01*
X134166212Y-54910857D01*
X134149638Y-54907417D01*
X134140549Y-54905351D01*
X134139068Y-54904904D01*
X134134700Y-54902994D01*
X134130823Y-54901019D01*
X134127406Y-54898492D01*
X134124422Y-54894924D01*
X134121841Y-54889826D01*
X134119634Y-54882713D01*
X134117771Y-54873095D01*
X134116224Y-54860485D01*
X134114964Y-54844394D01*
X134113962Y-54824335D01*
X134113188Y-54799821D01*
X134112614Y-54770361D01*
X134112210Y-54735470D01*
X134111948Y-54694660D01*
X134111797Y-54647441D01*
X134111730Y-54593327D01*
X134111717Y-54531828D01*
X134111729Y-54462459D01*
X134111732Y-54446104D01*
X134111810Y-54016529D01*
X134125332Y-54003209D01*
G37*
X134125332Y-54003209D02*
X134129827Y-53999207D01*
X134135134Y-53995745D01*
X134142260Y-53992552D01*
X134152214Y-53989364D01*
X134166005Y-53985913D01*
X134184642Y-53981931D01*
X134209134Y-53977152D01*
X134240490Y-53971308D01*
X134257671Y-53968157D01*
X134376487Y-53946424D01*
X135138688Y-54438216D01*
X135212104Y-54485575D01*
X135283793Y-54531800D01*
X135353420Y-54576675D01*
X135420646Y-54619983D01*
X135485133Y-54661506D01*
X135546545Y-54701029D01*
X135604542Y-54738333D01*
X135658789Y-54773202D01*
X135708947Y-54805420D01*
X135754679Y-54834769D01*
X135795647Y-54861034D01*
X135831514Y-54883996D01*
X135861942Y-54903440D01*
X135886593Y-54919148D01*
X135905131Y-54930903D01*
X135917217Y-54938488D01*
X135922429Y-54941644D01*
X135935437Y-54948632D01*
X135946112Y-54954299D01*
X135950580Y-54956622D01*
X135953340Y-54959925D01*
X135952542Y-54966401D01*
X135947807Y-54977589D01*
X135943103Y-54986850D01*
X135938815Y-54993796D01*
X135929926Y-55007158D01*
X135916764Y-55026465D01*
X135899658Y-55051249D01*
X135878939Y-55081039D01*
X135854932Y-55115368D01*
X135827968Y-55153768D01*
X135798377Y-55195769D01*
X135766484Y-55240901D01*
X135732623Y-55288697D01*
X135697118Y-55338687D01*
X135660302Y-55390403D01*
X135646098Y-55410322D01*
X135596284Y-55480156D01*
X135551001Y-55543674D01*
X135509864Y-55601455D01*
X135472486Y-55654078D01*
X135438482Y-55702119D01*
X135407466Y-55746157D01*
X135379054Y-55786770D01*
X135352858Y-55824536D01*
X135328493Y-55860032D01*
X135305574Y-55893836D01*
X135283715Y-55926527D01*
X135262530Y-55958682D01*
X135241633Y-55990879D01*
X135220641Y-56023696D01*
X135199164Y-56057712D01*
X135176820Y-56093503D01*
X135153222Y-56131648D01*
X135127984Y-56172725D01*
X135100720Y-56217312D01*
X135071045Y-56265986D01*
X135038573Y-56319326D01*
X135029258Y-56334633D01*
X135004347Y-56375531D01*
X134980672Y-56414324D01*
X134958610Y-56450402D01*
X134938536Y-56483155D01*
X134920825Y-56511971D01*
X134905855Y-56536239D01*
X134893999Y-56555350D01*
X134885635Y-56568693D01*
X134881137Y-56575654D01*
X134880502Y-56576518D01*
X134877775Y-56576845D01*
X134872599Y-56573873D01*
X134864201Y-56566943D01*
X134851809Y-56555401D01*
X134834653Y-56538589D01*
X134827280Y-56531239D01*
X134806524Y-56510177D01*
X134791289Y-56493781D01*
X134780863Y-56480985D01*
X134774541Y-56470720D01*
X134771611Y-56461920D01*
X134771365Y-56453515D01*
X134772196Y-56448285D01*
X134774963Y-56442980D01*
X134782316Y-56431085D01*
X134794006Y-56412967D01*
X134809790Y-56388991D01*
X134829422Y-56359521D01*
X134852657Y-56324925D01*
X134879250Y-56285568D01*
X134908954Y-56241814D01*
X134941526Y-56194028D01*
X134976719Y-56142577D01*
X135011727Y-56091553D01*
X135050962Y-56034428D01*
X135085667Y-55983848D01*
X135116125Y-55939386D01*
X135142612Y-55900618D01*
X135165410Y-55867120D01*
X135184800Y-55838467D01*
X135201060Y-55814233D01*
X135214473Y-55793995D01*
X135225317Y-55777328D01*
X135233873Y-55763806D01*
X135240421Y-55753006D01*
X135245240Y-55744504D01*
X135248612Y-55737873D01*
X135250817Y-55732690D01*
X135252133Y-55728529D01*
X135252601Y-55726412D01*
X135253213Y-55722521D01*
X135253433Y-55718359D01*
X135253064Y-55713379D01*
X135251905Y-55707030D01*
X135249759Y-55698764D01*
X135246425Y-55688032D01*
X135241703Y-55674284D01*
X135235397Y-55656972D01*
X135227304Y-55635546D01*
X135217227Y-55609457D01*
X135204966Y-55578157D01*
X135190323Y-55541097D01*
X135173097Y-55497725D01*
X135153089Y-55447496D01*
X135134353Y-55400513D01*
X135111103Y-55342258D01*
X135090737Y-55291359D01*
X135073010Y-55247302D01*
X135057679Y-55209572D01*
X135044500Y-55177657D01*
X135033226Y-55151044D01*
X135023616Y-55129221D01*
X135015424Y-55111672D01*
X135008407Y-55097887D01*
X135002319Y-55087351D01*
X134996916Y-55079550D01*
X134991955Y-55073974D01*
X134987192Y-55070106D01*
X134982381Y-55067437D01*
X134977279Y-55065451D01*
X134974412Y-55064513D01*
X134968532Y-55063184D01*
X134954916Y-55060427D01*
X134934149Y-55056355D01*
X134906819Y-55051077D01*
X134873516Y-55044706D01*
X134834826Y-55037354D01*
X134791337Y-55029131D01*
X134743638Y-55020150D01*
X134692315Y-55010523D01*
X134637958Y-55000360D01*
X134581152Y-54989772D01*
X134555767Y-54985052D01*
X134498125Y-54974313D01*
X134442710Y-54963936D01*
X134390106Y-54954033D01*
X134340895Y-54944716D01*
X134295664Y-54936098D01*
X134254996Y-54928290D01*
X134219475Y-54921405D01*
X134189685Y-54915557D01*
X134166212Y-54910857D01*
X134149638Y-54907417D01*
X134140549Y-54905351D01*
X134139068Y-54904904D01*
X134134700Y-54902994D01*
X134130823Y-54901019D01*
X134127406Y-54898492D01*
X134124422Y-54894924D01*
X134121841Y-54889826D01*
X134119634Y-54882713D01*
X134117771Y-54873095D01*
X134116224Y-54860485D01*
X134114964Y-54844394D01*
X134113962Y-54824335D01*
X134113188Y-54799821D01*
X134112614Y-54770361D01*
X134112210Y-54735470D01*
X134111948Y-54694660D01*
X134111797Y-54647441D01*
X134111730Y-54593327D01*
X134111717Y-54531828D01*
X134111729Y-54462459D01*
X134111732Y-54446104D01*
X134111810Y-54016529D01*
X134125332Y-54003209D01*
G36*
X134521828Y-53836098D02*
G01*
X134528553Y-53833858D01*
X134536336Y-53836229D01*
X134536892Y-53836489D01*
X134543581Y-53839661D01*
X134557476Y-53846255D01*
X134578135Y-53856061D01*
X134605114Y-53868869D01*
X134637971Y-53884468D01*
X134676264Y-53902649D01*
X134719552Y-53923202D01*
X134767390Y-53945916D01*
X134819336Y-53970582D01*
X134874950Y-53996988D01*
X134933787Y-54024927D01*
X134995407Y-54054186D01*
X135059365Y-54084557D01*
X135125220Y-54115828D01*
X135192529Y-54147791D01*
X135260850Y-54180234D01*
X135329741Y-54212947D01*
X135398758Y-54245722D01*
X135467461Y-54278348D01*
X135535407Y-54310614D01*
X135602151Y-54342310D01*
X135667254Y-54373227D01*
X135730272Y-54403153D01*
X135790762Y-54431880D01*
X135848281Y-54459198D01*
X135902390Y-54484895D01*
X135952645Y-54508762D01*
X135998601Y-54530589D01*
X136039819Y-54550167D01*
X136075855Y-54567282D01*
X136106267Y-54581728D01*
X136112894Y-54584877D01*
X136160920Y-54607684D01*
X136206708Y-54629417D01*
X136249688Y-54649804D01*
X136289289Y-54668573D01*
X136324939Y-54685457D01*
X136356065Y-54700183D01*
X136382097Y-54712482D01*
X136402462Y-54722082D01*
X136416591Y-54728714D01*
X136423910Y-54732106D01*
X136424835Y-54732505D01*
X136427200Y-54729104D01*
X136431234Y-54720518D01*
X136432304Y-54717967D01*
X136440717Y-54701656D01*
X136454288Y-54680482D01*
X136472162Y-54655546D01*
X136493482Y-54627946D01*
X136517393Y-54598779D01*
X136543041Y-54569146D01*
X136569569Y-54540144D01*
X136576101Y-54533265D01*
X136606896Y-54501086D01*
X136596989Y-54462294D01*
X136587313Y-54417783D01*
X136579910Y-54369986D01*
X136574953Y-54321155D01*
X136572617Y-54273548D01*
X136573075Y-54229420D01*
X136576231Y-54192964D01*
X136583037Y-54158510D01*
X136594454Y-54119052D01*
X136609810Y-54076202D01*
X136628435Y-54031574D01*
X136649658Y-53986779D01*
X136672808Y-53943432D01*
X136696039Y-53904958D01*
X136716004Y-53877246D01*
X136741402Y-53846953D01*
X136770424Y-53815890D01*
X136801262Y-53785864D01*
X136832108Y-53758685D01*
X136861153Y-53736159D01*
X136872650Y-53728347D01*
X136918713Y-53700719D01*
X136967085Y-53675488D01*
X137016218Y-53653277D01*
X137064561Y-53634708D01*
X137110567Y-53620406D01*
X137152687Y-53610994D01*
X137170694Y-53608437D01*
X137211442Y-53605845D01*
X137257312Y-53606190D01*
X137305579Y-53609236D01*
X137353515Y-53614747D01*
X137398395Y-53622486D01*
X137434384Y-53631296D01*
X137467093Y-53640824D01*
X137501639Y-53607751D01*
X137542440Y-53570378D01*
X137583934Y-53535536D01*
X137624661Y-53504352D01*
X137663160Y-53477952D01*
X137693332Y-53459956D01*
X137693746Y-53459353D01*
X137693765Y-53458011D01*
X137693280Y-53455695D01*
X137692177Y-53452165D01*
X137690347Y-53447185D01*
X137687676Y-53440518D01*
X137684054Y-53431925D01*
X137679370Y-53421170D01*
X137673511Y-53408014D01*
X137666368Y-53392221D01*
X137657827Y-53373553D01*
X137647778Y-53351772D01*
X137636110Y-53326641D01*
X137622711Y-53297924D01*
X137607468Y-53265380D01*
X137590273Y-53228774D01*
X137571012Y-53187869D01*
X137549575Y-53142425D01*
X137525848Y-53092208D01*
X137499724Y-53036977D01*
X137471087Y-52976497D01*
X137439828Y-52910530D01*
X137405836Y-52838838D01*
X137368999Y-52761184D01*
X137329205Y-52677330D01*
X137286342Y-52587039D01*
X137240301Y-52490073D01*
X137190969Y-52386195D01*
X137138234Y-52275168D01*
X137081986Y-52156754D01*
X137076600Y-52145415D01*
X136798962Y-51560949D01*
X136811279Y-51546864D01*
X136820609Y-51537681D01*
X136829588Y-51533759D01*
X136840983Y-51533151D01*
X136858370Y-51533523D01*
X137379263Y-52492951D01*
X137900157Y-53452380D01*
X137914220Y-53450794D01*
X137922183Y-53449071D01*
X137936860Y-53445102D01*
X137956921Y-53439277D01*
X137981034Y-53431990D01*
X138007871Y-53423630D01*
X138024014Y-53418490D01*
X138119748Y-53387771D01*
X138321789Y-53160837D01*
X138381733Y-53093518D01*
X138436362Y-53032197D01*
X138485979Y-52976539D01*
X138530893Y-52926210D01*
X138571406Y-52880873D01*
X138607824Y-52840195D01*
X138640452Y-52803843D01*
X138669596Y-52771480D01*
X138695561Y-52742771D01*
X138718651Y-52717385D01*
X138739172Y-52694983D01*
X138757430Y-52675233D01*
X138773727Y-52657800D01*
X138788371Y-52642350D01*
X138801667Y-52628547D01*
X138813919Y-52616057D01*
X138825432Y-52604545D01*
X138836513Y-52593677D01*
X138847464Y-52583119D01*
X138856204Y-52574797D01*
X138899516Y-52534245D01*
X138938258Y-52499017D01*
X138972194Y-52469318D01*
X139001085Y-52445354D01*
X139024691Y-52427331D01*
X139037214Y-52418820D01*
X139060691Y-52407248D01*
X139083912Y-52403162D01*
X139108880Y-52406368D01*
X139122676Y-52410658D01*
X139131492Y-52413709D01*
X139138497Y-52416395D01*
X139143397Y-52419432D01*
X139145899Y-52423532D01*
X139145712Y-52429409D01*
X139142541Y-52437777D01*
X139136095Y-52449349D01*
X139126079Y-52464839D01*
X139112204Y-52484959D01*
X139094173Y-52510424D01*
X139071697Y-52541947D01*
X139064893Y-52551497D01*
X139038717Y-52588323D01*
X139017204Y-52618724D01*
X139000059Y-52643142D01*
X138986987Y-52662014D01*
X138977691Y-52675779D01*
X138971877Y-52684874D01*
X138969246Y-52689740D01*
X138969506Y-52690814D01*
X138972358Y-52688537D01*
X138972655Y-52688256D01*
X138976389Y-52684736D01*
X138985951Y-52675738D01*
X139001003Y-52661581D01*
X139021202Y-52642583D01*
X139046209Y-52619065D01*
X139075686Y-52591348D01*
X139109291Y-52559749D01*
X139146684Y-52524590D01*
X139187525Y-52486190D01*
X139231474Y-52444869D01*
X139278192Y-52400946D01*
X139327337Y-52354742D01*
X139378569Y-52306576D01*
X139431550Y-52256768D01*
X139449544Y-52239852D01*
X139920302Y-51797291D01*
X140322170Y-51364320D01*
X140370490Y-51312255D01*
X140417639Y-51261433D01*
X140463256Y-51212252D01*
X140506974Y-51165104D01*
X140548429Y-51120383D01*
X140587256Y-51078482D01*
X140623090Y-51039796D01*
X140655567Y-51004718D01*
X140684323Y-50973642D01*
X140708992Y-50946961D01*
X140729209Y-50925070D01*
X140744611Y-50908362D01*
X140754832Y-50897231D01*
X140758296Y-50893426D01*
X140792555Y-50855502D01*
X140782715Y-50848181D01*
X140772131Y-50836558D01*
X140769449Y-50824061D01*
X140774276Y-50811515D01*
X140786218Y-50799744D01*
X140804884Y-50789573D01*
X140811934Y-50786886D01*
X140819198Y-50785132D01*
X140833972Y-50782211D01*
X140855396Y-50778265D01*
X140882615Y-50773434D01*
X140914772Y-50767861D01*
X140951009Y-50761685D01*
X140990472Y-50755048D01*
X141032303Y-50748092D01*
X141075643Y-50740956D01*
X141119637Y-50733782D01*
X141163428Y-50726712D01*
X141206160Y-50719885D01*
X141246975Y-50713444D01*
X141285018Y-50707530D01*
X141319429Y-50702282D01*
X141349354Y-50697843D01*
X141373935Y-50694354D01*
X141374624Y-50694258D01*
X141403168Y-50692732D01*
X141427597Y-50697001D01*
X141447580Y-50705848D01*
X141460001Y-50714969D01*
X141465017Y-50724469D01*
X141462504Y-50735067D01*
X141452340Y-50747481D01*
X141438403Y-50759366D01*
X141432249Y-50763780D01*
X141425464Y-50767557D01*
X141416950Y-50770981D01*
X141405606Y-50774340D01*
X141390333Y-50777919D01*
X141370033Y-50782004D01*
X141343604Y-50786879D01*
X141309947Y-50792833D01*
X141309003Y-50792998D01*
X141197833Y-50812449D01*
X141143572Y-50877926D01*
X141122034Y-50903893D01*
X141096574Y-50934552D01*
X141067640Y-50969364D01*
X141035682Y-51007789D01*
X141001150Y-51049287D01*
X140964495Y-51093320D01*
X140926164Y-51139349D01*
X140886607Y-51186834D01*
X140846275Y-51235237D01*
X140805615Y-51284018D01*
X140765080Y-51332637D01*
X140725118Y-51380557D01*
X140686177Y-51427237D01*
X140648709Y-51472139D01*
X140613162Y-51514723D01*
X140579985Y-51554450D01*
X140549631Y-51590781D01*
X140522545Y-51623177D01*
X140499179Y-51651100D01*
X140479983Y-51674008D01*
X140465406Y-51691364D01*
X140457592Y-51700628D01*
X140444697Y-51715723D01*
X140431266Y-51731130D01*
X140416842Y-51747332D01*
X140400965Y-51764814D01*
X140383177Y-51784058D01*
X140363021Y-51805549D01*
X140340037Y-51829771D01*
X140313767Y-51857205D01*
X140283752Y-51888337D01*
X140249535Y-51923649D01*
X140210657Y-51963626D01*
X140166658Y-52008751D01*
X140126908Y-52049450D01*
X140092553Y-52084612D01*
X140059532Y-52118414D01*
X140027505Y-52151208D01*
X139996131Y-52183343D01*
X139965068Y-52215173D01*
X139933973Y-52247047D01*
X139902505Y-52279317D01*
X139870323Y-52312332D01*
X139837084Y-52346446D01*
X139802447Y-52382008D01*
X139766072Y-52419369D01*
X139727615Y-52458881D01*
X139686736Y-52500893D01*
X139643092Y-52545759D01*
X139596342Y-52593828D01*
X139546144Y-52645451D01*
X139492158Y-52700979D01*
X139434040Y-52760764D01*
X139371449Y-52825156D01*
X139304045Y-52894506D01*
X139231483Y-52969166D01*
X139153425Y-53049485D01*
X139139093Y-53064233D01*
X139074345Y-53130859D01*
X139015235Y-53191689D01*
X138961497Y-53247003D01*
X138912870Y-53297075D01*
X138869089Y-53342184D01*
X138829891Y-53382605D01*
X138795013Y-53418617D01*
X138764190Y-53450496D01*
X138737161Y-53478519D01*
X138713661Y-53502964D01*
X138693427Y-53524107D01*
X138676195Y-53542225D01*
X138661702Y-53557597D01*
X138649684Y-53570497D01*
X138639877Y-53581205D01*
X138632019Y-53589995D01*
X138625846Y-53597146D01*
X138621094Y-53602935D01*
X138617500Y-53607639D01*
X138614801Y-53611534D01*
X138612733Y-53614898D01*
X138611032Y-53618008D01*
X138609435Y-53621140D01*
X138609420Y-53621170D01*
X138597362Y-53641417D01*
X138579903Y-53665619D01*
X138558183Y-53692358D01*
X138533344Y-53720216D01*
X138511837Y-53742511D01*
X138497030Y-53757457D01*
X138487514Y-53767587D01*
X138482505Y-53773980D01*
X138481220Y-53777720D01*
X138482875Y-53779888D01*
X138484243Y-53780583D01*
X138506688Y-53791068D01*
X138532056Y-53803851D01*
X138558115Y-53817723D01*
X138582638Y-53831472D01*
X138603395Y-53843889D01*
X138615451Y-53851809D01*
X138632031Y-53864460D01*
X138651368Y-53880722D01*
X138670449Y-53898011D01*
X138679800Y-53907076D01*
X138702473Y-53930965D01*
X138722137Y-53954660D01*
X138739298Y-53979251D01*
X138754465Y-54005827D01*
X138768145Y-54035476D01*
X138780847Y-54069288D01*
X138793079Y-54108353D01*
X138805348Y-54153758D01*
X138816801Y-54200765D01*
X138820570Y-54223222D01*
X138823120Y-54251748D01*
X138824442Y-54284032D01*
X138824528Y-54317764D01*
X138823372Y-54350635D01*
X138820968Y-54380332D01*
X138817436Y-54403922D01*
X138801316Y-54466355D01*
X138779285Y-54525098D01*
X138751800Y-54579451D01*
X138719322Y-54628710D01*
X138682303Y-54672169D01*
X138641205Y-54709125D01*
X138601647Y-54735929D01*
X138586965Y-54744605D01*
X138574834Y-54752010D01*
X138567361Y-54756851D01*
X138566403Y-54757560D01*
X138565196Y-54760352D01*
X138567145Y-54765313D01*
X138572964Y-54773479D01*
X138583371Y-54785886D01*
X138595386Y-54799456D01*
X138621288Y-54828159D01*
X138642821Y-54851519D01*
X138661088Y-54870660D01*
X138677187Y-54886703D01*
X138692219Y-54900770D01*
X138707284Y-54913982D01*
X138709794Y-54916111D01*
X138737987Y-54943464D01*
X138766863Y-54978141D01*
X138795773Y-55019108D01*
X138824066Y-55065328D01*
X138851095Y-55115764D01*
X138876210Y-55169380D01*
X138891335Y-55205791D01*
X138910366Y-55259366D01*
X138924146Y-55311255D01*
X138933148Y-55364003D01*
X138937844Y-55420154D01*
X138938820Y-55462187D01*
X138935636Y-55537590D01*
X138925662Y-55607984D01*
X138908883Y-55673443D01*
X138885280Y-55734039D01*
X138869856Y-55764466D01*
X138853755Y-55789919D01*
X138833266Y-55816753D01*
X138810423Y-55842642D01*
X138787264Y-55865265D01*
X138767802Y-55880932D01*
X138726246Y-55906086D01*
X138678211Y-55928053D01*
X138625287Y-55946227D01*
X138569064Y-55959998D01*
X138554711Y-55962676D01*
X138524408Y-55966664D01*
X138488178Y-55969336D01*
X138448459Y-55970675D01*
X138407691Y-55970661D01*
X138368310Y-55969275D01*
X138332758Y-55966500D01*
X138316416Y-55964477D01*
X138272726Y-55955823D01*
X138224471Y-55942058D01*
X138173348Y-55923770D01*
X138121054Y-55901545D01*
X138087284Y-55885287D01*
X138049407Y-55865775D01*
X138017172Y-55848070D01*
X137989111Y-55831054D01*
X137963753Y-55813610D01*
X137959084Y-55809935D01*
X138039233Y-55729786D01*
X138064179Y-55753329D01*
X138090343Y-55774585D01*
X138119368Y-55794674D01*
X138152899Y-55814715D01*
X138192578Y-55835832D01*
X138201224Y-55840197D01*
X138263575Y-55868267D01*
X138323380Y-55888657D01*
X138381213Y-55901556D01*
X138390843Y-55903010D01*
X138451421Y-55908632D01*
X138510966Y-55908558D01*
X138568405Y-55902983D01*
X138622670Y-55892103D01*
X138672689Y-55876116D01*
X138717391Y-55855219D01*
X138744410Y-55838158D01*
X138763255Y-55823769D01*
X138778523Y-55809525D01*
X138793253Y-55792418D01*
X138801636Y-55781488D01*
X138826563Y-55741613D01*
X138846599Y-55695914D01*
X138861632Y-55645560D01*
X138871545Y-55591719D01*
X138876226Y-55535559D01*
X138875558Y-55478248D01*
X138869429Y-55420955D01*
X138857724Y-55364846D01*
X138846170Y-55326960D01*
X138823814Y-55269564D01*
X138798132Y-55215599D01*
X138769698Y-55165890D01*
X138739082Y-55121264D01*
X138706856Y-55082550D01*
X138673593Y-55050573D01*
X138639865Y-55026160D01*
X138636869Y-55024387D01*
X138602089Y-55006718D01*
X138563244Y-54991329D01*
X138522083Y-54978602D01*
X138480357Y-54968921D01*
X138439814Y-54962669D01*
X138402208Y-54960229D01*
X138369286Y-54961984D01*
X138359385Y-54963622D01*
X138313020Y-54976396D01*
X138264755Y-54996022D01*
X138216079Y-55021591D01*
X138168476Y-55052194D01*
X138123433Y-55086922D01*
X138082434Y-55124866D01*
X138064578Y-55144010D01*
X138031774Y-55184267D01*
X138002211Y-55226925D01*
X137976539Y-55270687D01*
X137955412Y-55314258D01*
X137939481Y-55356346D01*
X137929399Y-55395654D01*
X137926343Y-55418415D01*
X137926321Y-55450747D01*
X137930504Y-55488110D01*
X137938417Y-55528475D01*
X137949588Y-55569814D01*
X137963543Y-55610101D01*
X137979699Y-55647079D01*
X137989531Y-55666655D01*
X137997675Y-55681317D01*
X138005818Y-55693409D01*
X138015647Y-55705276D01*
X138028849Y-55719261D01*
X138039233Y-55729786D01*
X137959084Y-55809935D01*
X137939631Y-55794621D01*
X137915275Y-55772969D01*
X137889219Y-55747537D01*
X137859990Y-55717208D01*
X137844175Y-55700337D01*
X137835678Y-55691781D01*
X137823219Y-55679949D01*
X137808017Y-55665921D01*
X137791283Y-55650778D01*
X137774237Y-55635599D01*
X137758092Y-55621462D01*
X137744067Y-55609449D01*
X137733374Y-55600638D01*
X137727233Y-55596109D01*
X137726363Y-55595734D01*
X137723365Y-55599192D01*
X137717410Y-55608462D01*
X137709531Y-55621888D01*
X137705121Y-55629772D01*
X137676268Y-55673640D01*
X137639962Y-55714343D01*
X137596802Y-55751337D01*
X137547384Y-55784081D01*
X137516925Y-55800495D01*
X137456208Y-55826724D01*
X137394953Y-55844893D01*
X137331707Y-55855360D01*
X137282211Y-55858369D01*
X137245988Y-55858405D01*
X137214497Y-55856674D01*
X137184412Y-55852775D01*
X137152403Y-55846307D01*
X137124442Y-55839347D01*
X137080641Y-55827392D01*
X137043825Y-55816258D01*
X137012634Y-55805349D01*
X136985704Y-55794071D01*
X136961676Y-55781828D01*
X136939185Y-55768027D01*
X136931379Y-55762446D01*
X137021899Y-55671926D01*
X137062019Y-55702901D01*
X137106577Y-55727421D01*
X137156047Y-55745893D01*
X137175083Y-55751124D01*
X137207150Y-55756999D01*
X137244193Y-55760240D01*
X137283124Y-55760795D01*
X137320856Y-55758614D01*
X137352334Y-55754051D01*
X137401289Y-55741395D01*
X137449591Y-55723670D01*
X137494741Y-55701933D01*
X137534249Y-55677246D01*
X137536060Y-55675933D01*
X137554465Y-55660642D01*
X137574220Y-55641219D01*
X137593224Y-55619998D01*
X137609375Y-55599311D01*
X137619764Y-55583024D01*
X137625757Y-55570733D01*
X137632387Y-55555359D01*
X137638661Y-55539446D01*
X137643586Y-55525535D01*
X137646171Y-55516170D01*
X137646332Y-55514913D01*
X137643125Y-55514090D01*
X138482673Y-54674542D01*
X138487381Y-54677142D01*
X138494878Y-54676180D01*
X138505757Y-54672966D01*
X138541205Y-54658005D01*
X138575984Y-54635381D01*
X138609186Y-54605895D01*
X138639902Y-54570349D01*
X138665833Y-54531895D01*
X138692129Y-54479717D01*
X138711588Y-54423593D01*
X138723771Y-54365115D01*
X138728246Y-54305875D01*
X138728259Y-54303494D01*
X138724551Y-54247226D01*
X138713380Y-54192718D01*
X138695086Y-54141279D01*
X138675344Y-54102853D01*
X138657752Y-54077819D01*
X138634448Y-54051263D01*
X138607443Y-54025142D01*
X138578745Y-54001409D01*
X138552444Y-53983285D01*
X138533874Y-53972607D01*
X138511957Y-53961174D01*
X138487949Y-53949516D01*
X138463105Y-53938164D01*
X138438682Y-53927646D01*
X138415935Y-53918491D01*
X138396120Y-53911230D01*
X138380493Y-53906390D01*
X138370309Y-53904503D01*
X138367144Y-53905165D01*
X138364207Y-53910046D01*
X138358636Y-53920866D01*
X138351318Y-53935863D01*
X138345508Y-53948162D01*
X138336694Y-53966466D01*
X138325099Y-53989677D01*
X138312003Y-54015278D01*
X138298686Y-54040748D01*
X138293597Y-54050311D01*
X138260340Y-54112447D01*
X138314710Y-54197921D01*
X138341000Y-54239445D01*
X138363056Y-54274794D01*
X138381344Y-54304840D01*
X138396327Y-54330452D01*
X138408470Y-54352498D01*
X138418237Y-54371851D01*
X138426093Y-54389378D01*
X138432501Y-54405951D01*
X138437927Y-54422438D01*
X138441859Y-54436105D01*
X138450975Y-54473300D01*
X138459608Y-54515634D01*
X138467174Y-54559783D01*
X138473095Y-54602420D01*
X138476255Y-54633201D01*
X138478012Y-54653787D01*
X138479851Y-54667162D01*
X138482673Y-54674542D01*
X137643125Y-55514090D01*
X137642414Y-55513907D01*
X137631602Y-55512395D01*
X137615444Y-55510565D01*
X137595482Y-55508602D01*
X137590370Y-55508138D01*
X137550194Y-55503589D01*
X137507010Y-55497026D01*
X137463689Y-55488981D01*
X137423108Y-55479989D01*
X137388368Y-55470651D01*
X137369009Y-55463888D01*
X137346921Y-55454345D01*
X137321405Y-55441643D01*
X137291766Y-55425402D01*
X137257307Y-55405243D01*
X137217330Y-55380784D01*
X137177217Y-55355520D01*
X137152997Y-55340107D01*
X137130831Y-55326000D01*
X137111829Y-55313909D01*
X137097103Y-55304538D01*
X137087763Y-55298596D01*
X137085249Y-55296997D01*
X137076918Y-55295139D01*
X137066204Y-55299790D01*
X137064091Y-55301194D01*
X137056537Y-55305694D01*
X137042665Y-55313289D01*
X137023739Y-55323314D01*
X137001026Y-55335100D01*
X136975792Y-55347983D01*
X136961540Y-55355172D01*
X136936367Y-55367842D01*
X136913836Y-55379233D01*
X136895010Y-55388802D01*
X136880956Y-55396007D01*
X136872735Y-55400306D01*
X136871030Y-55401279D01*
X136871546Y-55405985D01*
X136874850Y-55416958D01*
X136880360Y-55432701D01*
X136887493Y-55451714D01*
X136895667Y-55472498D01*
X136904302Y-55493555D01*
X136912815Y-55513384D01*
X136920624Y-55530488D01*
X136923413Y-55536218D01*
X136953072Y-55588991D01*
X136985742Y-55634091D01*
X137021899Y-55671926D01*
X136931379Y-55762446D01*
X136916870Y-55752074D01*
X136907014Y-55744423D01*
X136869531Y-55710204D01*
X136833992Y-55668784D01*
X136801275Y-55621366D01*
X136772258Y-55569146D01*
X136760691Y-55544514D01*
X136753975Y-55529499D01*
X136748676Y-55517860D01*
X136745632Y-55511433D01*
X136745242Y-55510739D01*
X136742125Y-55513215D01*
X136734259Y-55520558D01*
X136722854Y-55531615D01*
X136709883Y-55544465D01*
X136682351Y-55570794D01*
X136654724Y-55594995D01*
X136628440Y-55615915D01*
X136604938Y-55632397D01*
X136588867Y-55641732D01*
X136586725Y-55642750D01*
X136584874Y-55643549D01*
X136583124Y-55644315D01*
X136581282Y-55645230D01*
X136579159Y-55646479D01*
X136576563Y-55648245D01*
X136573305Y-55650711D01*
X136569191Y-55654060D01*
X136564034Y-55658476D01*
X136557640Y-55664143D01*
X136549820Y-55671243D01*
X136540383Y-55679961D01*
X136529136Y-55690479D01*
X136515891Y-55702982D01*
X136500456Y-55717652D01*
X136482640Y-55734674D01*
X136462252Y-55754229D01*
X136439102Y-55776503D01*
X136413000Y-55801678D01*
X136383752Y-55829939D01*
X136351169Y-55861466D01*
X136315062Y-55896447D01*
X136275236Y-55935062D01*
X136231504Y-55977496D01*
X136183673Y-56023933D01*
X136131553Y-56074554D01*
X136074954Y-56129545D01*
X136013683Y-56189087D01*
X135947550Y-56253366D01*
X135876366Y-56322565D01*
X135799937Y-56396866D01*
X135718074Y-56476453D01*
X135630587Y-56561510D01*
X135537284Y-56652220D01*
X135503691Y-56684877D01*
X135465191Y-56722326D01*
X135421667Y-56764691D01*
X135374149Y-56810972D01*
X135323666Y-56860164D01*
X135271247Y-56911263D01*
X135217921Y-56963268D01*
X135164716Y-57015175D01*
X135112662Y-57065980D01*
X135062788Y-57114681D01*
X135017173Y-57159246D01*
X134960643Y-57214416D01*
X134909861Y-57263813D01*
X134864596Y-57307658D01*
X134824617Y-57346172D01*
X134789691Y-57379575D01*
X134759588Y-57408089D01*
X134734074Y-57431934D01*
X134712920Y-57451331D01*
X134695894Y-57466501D01*
X134687804Y-57473462D01*
X134667623Y-57490493D01*
X134642587Y-57511555D01*
X134613159Y-57536260D01*
X134579803Y-57564223D01*
X134542984Y-57595057D01*
X134503164Y-57628376D01*
X134460807Y-57663791D01*
X134416378Y-57700918D01*
X134370341Y-57739369D01*
X134323158Y-57778757D01*
X134275293Y-57818697D01*
X134227213Y-57858801D01*
X134179379Y-57898682D01*
X134132254Y-57937955D01*
X134086304Y-57976231D01*
X134041992Y-58013126D01*
X133999781Y-58048251D01*
X133960136Y-58081220D01*
X133923521Y-58111648D01*
X133890399Y-58139146D01*
X133861233Y-58163328D01*
X133836489Y-58183808D01*
X133816630Y-58200199D01*
X133802118Y-58212115D01*
X133793419Y-58219168D01*
X133791466Y-58220697D01*
X133787739Y-58223971D01*
X133784523Y-58228347D01*
X133781556Y-58234831D01*
X133778575Y-58244430D01*
X133775317Y-58258152D01*
X133771522Y-58277003D01*
X133766925Y-58301990D01*
X133761266Y-58334119D01*
X133759969Y-58341575D01*
X133753991Y-58375604D01*
X133749086Y-58402365D01*
X133744975Y-58422950D01*
X133741379Y-58438449D01*
X133738015Y-58449951D01*
X133734606Y-58458549D01*
X133730871Y-58465332D01*
X133726708Y-58471162D01*
X133712335Y-58487184D01*
X133699667Y-58496371D01*
X133689378Y-58498271D01*
X133687464Y-58497650D01*
X133681804Y-58492505D01*
X133674545Y-58482617D01*
X133671042Y-58476832D01*
X133664912Y-58462542D01*
X133661929Y-58445638D01*
X133661464Y-58426123D01*
X133662261Y-58415526D01*
X133664308Y-58397754D01*
X133667467Y-58373675D01*
X133671598Y-58344157D01*
X133676563Y-58310063D01*
X133682224Y-58272261D01*
X133688440Y-58231619D01*
X133695073Y-58189002D01*
X133701237Y-58150003D01*
X133906669Y-57944570D01*
X133910011Y-57941857D01*
X133919379Y-57933933D01*
X133934399Y-57921126D01*
X133954690Y-57903759D01*
X133979874Y-57882158D01*
X134009573Y-57856648D01*
X134043410Y-57827555D01*
X134081006Y-57795204D01*
X134121981Y-57759920D01*
X134165958Y-57722029D01*
X134212559Y-57681856D01*
X134261405Y-57639726D01*
X134312118Y-57595964D01*
X134324217Y-57585521D01*
X134740156Y-57226473D01*
X135486685Y-56494252D01*
X135554844Y-56427395D01*
X135622148Y-56361368D01*
X135688289Y-56296473D01*
X135752965Y-56233008D01*
X135815868Y-56171275D01*
X135876692Y-56111572D01*
X135935133Y-56054200D01*
X135990885Y-55999460D01*
X136043642Y-55947652D01*
X136093099Y-55899075D01*
X136138951Y-55854028D01*
X136180892Y-55812814D01*
X136218615Y-55775731D01*
X136251817Y-55743079D01*
X136280191Y-55715160D01*
X136303431Y-55692271D01*
X136321233Y-55674715D01*
X136333162Y-55662919D01*
X136433110Y-55563805D01*
X136404394Y-55535089D01*
X136383846Y-55512570D01*
X136363366Y-55486732D01*
X136351774Y-55470232D01*
X136341701Y-55455230D01*
X136333425Y-55443334D01*
X136327988Y-55436014D01*
X136326421Y-55434402D01*
X136323435Y-55437472D01*
X136314896Y-55446457D01*
X136301047Y-55461098D01*
X136282129Y-55481139D01*
X136258385Y-55506320D01*
X136230058Y-55536383D01*
X136197391Y-55571073D01*
X136160625Y-55610130D01*
X136120003Y-55653297D01*
X136075769Y-55700316D01*
X136028164Y-55750929D01*
X135977431Y-55804880D01*
X135923812Y-55861908D01*
X135867550Y-55921758D01*
X135808888Y-55984171D01*
X135748067Y-56048889D01*
X135685330Y-56115655D01*
X135620922Y-56184211D01*
X135579459Y-56228348D01*
X134833945Y-57021983D01*
X134374575Y-57448133D01*
X133915204Y-57874283D01*
X133910134Y-57909427D01*
X133908006Y-57925394D01*
X133906720Y-57937570D01*
X133906466Y-57944021D01*
X133906669Y-57944570D01*
X133701237Y-58150003D01*
X133701984Y-58145276D01*
X133709034Y-58101308D01*
X133716085Y-58057965D01*
X133722997Y-58016112D01*
X133729633Y-57976617D01*
X133735851Y-57940347D01*
X133741515Y-57908167D01*
X133746484Y-57880944D01*
X133750620Y-57859544D01*
X133753785Y-57844834D01*
X133755757Y-57837865D01*
X133765123Y-57820797D01*
X133776072Y-57808336D01*
X133787149Y-57801938D01*
X133792110Y-57801449D01*
X133800978Y-57804905D01*
X133810972Y-57812276D01*
X133812214Y-57813474D01*
X133823410Y-57824670D01*
X133861231Y-57790512D01*
X133868866Y-57783539D01*
X133882311Y-57771172D01*
X133901172Y-57753773D01*
X133925054Y-57731709D01*
X133953564Y-57705346D01*
X133986305Y-57675049D01*
X134022885Y-57641181D01*
X134062909Y-57604111D01*
X134105981Y-57564201D01*
X134151709Y-57521817D01*
X134199696Y-57477325D01*
X134249550Y-57431090D01*
X134300874Y-57383478D01*
X134330685Y-57355817D01*
X134762317Y-56955280D01*
X135210479Y-56478474D01*
X135260983Y-56424734D01*
X135309885Y-56372681D01*
X135356875Y-56322646D01*
X135401640Y-56274965D01*
X135443867Y-56229969D01*
X135483244Y-56187994D01*
X135519458Y-56149371D01*
X135552197Y-56114435D01*
X135581149Y-56083518D01*
X135606000Y-56056954D01*
X135626439Y-56035076D01*
X135642153Y-56018219D01*
X135652830Y-56006714D01*
X135658157Y-56000896D01*
X135658726Y-56000223D01*
X135655480Y-56002097D01*
X135646381Y-56008168D01*
X135632470Y-56017722D01*
X135614788Y-56030041D01*
X135594376Y-56044411D01*
X135591325Y-56046571D01*
X135549356Y-56076305D01*
X135513772Y-56101514D01*
X135484030Y-56122549D01*
X135459593Y-56139757D01*
X135439917Y-56153485D01*
X135424464Y-56164083D01*
X135412692Y-56171900D01*
X135404061Y-56177282D01*
X135398030Y-56180577D01*
X135394059Y-56182136D01*
X135391606Y-56182304D01*
X135390132Y-56181431D01*
X135389096Y-56179865D01*
X135387958Y-56177953D01*
X135387762Y-56177682D01*
X135379188Y-56161571D01*
X135373044Y-56141174D01*
X135369970Y-56119850D01*
X135370606Y-56100954D01*
X135372013Y-56094917D01*
X135378236Y-56081583D01*
X135389996Y-56063457D01*
X135407431Y-56040370D01*
X135430674Y-56012154D01*
X135459861Y-55978640D01*
X135495129Y-55939660D01*
X135509430Y-55924159D01*
X135536836Y-55894785D01*
X135561078Y-55869318D01*
X135583726Y-55846218D01*
X135606349Y-55823940D01*
X135630516Y-55800942D01*
X135657795Y-55775684D01*
X135689759Y-55746621D01*
X135693610Y-55743142D01*
X135718124Y-55721052D01*
X135748215Y-55694011D01*
X135783134Y-55662687D01*
X135822131Y-55627752D01*
X135864452Y-55589877D01*
X135909347Y-55549733D01*
X135956066Y-55507990D01*
X136003857Y-55465320D01*
X136051970Y-55422393D01*
X136099653Y-55379880D01*
X136146155Y-55338452D01*
X136190725Y-55298779D01*
X136232613Y-55261533D01*
X136264457Y-55233250D01*
X136351814Y-55155711D01*
X136384287Y-55056732D01*
X136393399Y-55028649D01*
X136401642Y-55002656D01*
X136408630Y-54980021D01*
X136413977Y-54962008D01*
X136417295Y-54949886D01*
X136418199Y-54945619D01*
X136419639Y-54933488D01*
X136414313Y-54930596D01*
X136807905Y-54537005D01*
X136835045Y-54563001D01*
X136864833Y-54589974D01*
X136896186Y-54616973D01*
X136928017Y-54643047D01*
X136959240Y-54667249D01*
X136988770Y-54688628D01*
X137015521Y-54706234D01*
X137024394Y-54711543D01*
X137045079Y-54718875D01*
X137067267Y-54718776D01*
X137087301Y-54711835D01*
X137095129Y-54706441D01*
X137107924Y-54696340D01*
X137124435Y-54682570D01*
X137143418Y-54666172D01*
X137163624Y-54648191D01*
X137165329Y-54646650D01*
X137184066Y-54629710D01*
X137205741Y-54610155D01*
X137229458Y-54588790D01*
X137254319Y-54566421D01*
X137279427Y-54543853D01*
X137303885Y-54521892D01*
X137326795Y-54501343D01*
X137347260Y-54483012D01*
X137364383Y-54467705D01*
X137377267Y-54456227D01*
X137385015Y-54449383D01*
X137386153Y-54448396D01*
X137390306Y-54444165D01*
X137399521Y-54434343D01*
X137413175Y-54419612D01*
X137430641Y-54400650D01*
X137451294Y-54378137D01*
X137474508Y-54352753D01*
X137499659Y-54325179D01*
X137513809Y-54309636D01*
X137550466Y-54269280D01*
X137581783Y-54234620D01*
X137608154Y-54205127D01*
X137629981Y-54180276D01*
X137647659Y-54159536D01*
X137661587Y-54142382D01*
X137672163Y-54128283D01*
X137679786Y-54116714D01*
X137684854Y-54107147D01*
X137687764Y-54099052D01*
X137688914Y-54091903D01*
X137688703Y-54085172D01*
X137687777Y-54079612D01*
X138404362Y-53363027D01*
X138412925Y-53369181D01*
X138425404Y-53377056D01*
X138427981Y-53378590D01*
X138442564Y-53388259D01*
X138460690Y-53401836D01*
X138479814Y-53417349D01*
X138493925Y-53429651D01*
X138532406Y-53464508D01*
X138546226Y-53450800D01*
X138550334Y-53446647D01*
X138560128Y-53436699D01*
X138575363Y-53421205D01*
X138595796Y-53400416D01*
X138621181Y-53374578D01*
X138651275Y-53343943D01*
X138685832Y-53308757D01*
X138724610Y-53269271D01*
X138767363Y-53225733D01*
X138813848Y-53178391D01*
X138863818Y-53127495D01*
X138917032Y-53073293D01*
X138973243Y-53016035D01*
X139032209Y-52955969D01*
X139093684Y-52893344D01*
X139157422Y-52828409D01*
X139223183Y-52761413D01*
X139290720Y-52692604D01*
X139359789Y-52622231D01*
X139378494Y-52603173D01*
X140196941Y-51769253D01*
X140553105Y-51356640D01*
X140597026Y-51305739D01*
X140639391Y-51256605D01*
X140679871Y-51209620D01*
X140718141Y-51165163D01*
X140753874Y-51123616D01*
X140786742Y-51085361D01*
X140816420Y-51050777D01*
X140842580Y-51020246D01*
X140864896Y-50994147D01*
X140883040Y-50972863D01*
X140896687Y-50956774D01*
X140905509Y-50946260D01*
X140909180Y-50941704D01*
X140909269Y-50941545D01*
X140905405Y-50940956D01*
X140895098Y-50941524D01*
X140880271Y-50943115D01*
X140873812Y-50943967D01*
X140856151Y-50946640D01*
X140844583Y-50949371D01*
X140836784Y-50953139D01*
X140830434Y-50958923D01*
X140826108Y-50964068D01*
X140821822Y-50968917D01*
X140812105Y-50979601D01*
X140797292Y-50995761D01*
X140777718Y-51017030D01*
X140753720Y-51043049D01*
X140725632Y-51073454D01*
X140693789Y-51107882D01*
X140658529Y-51145971D01*
X140620185Y-51187358D01*
X140579094Y-51231681D01*
X140535591Y-51278576D01*
X140490012Y-51327682D01*
X140442692Y-51378637D01*
X140400985Y-51423523D01*
X139988110Y-51867780D01*
X139195239Y-52612512D01*
X139125707Y-52677830D01*
X139057797Y-52741636D01*
X138991768Y-52803686D01*
X138927879Y-52863740D01*
X138866388Y-52921551D01*
X138807552Y-52976879D01*
X138751631Y-53029480D01*
X138698881Y-53079110D01*
X138649563Y-53125527D01*
X138603933Y-53168488D01*
X138562251Y-53207748D01*
X138524773Y-53243066D01*
X138491758Y-53274199D01*
X138463466Y-53300903D01*
X138440152Y-53322934D01*
X138422077Y-53340052D01*
X138409497Y-53352010D01*
X138402672Y-53358568D01*
X138401444Y-53359815D01*
X138404362Y-53363027D01*
X137687777Y-54079612D01*
X137687691Y-54079097D01*
X137682664Y-54065779D01*
X137672413Y-54047348D01*
X137657649Y-54024726D01*
X137639085Y-53998838D01*
X137617434Y-53970605D01*
X137593405Y-53940952D01*
X137567715Y-53910803D01*
X137541072Y-53881078D01*
X137514190Y-53852703D01*
X137508949Y-53847375D01*
X137488750Y-53827040D01*
X137473252Y-53811745D01*
X137461228Y-53800484D01*
X137451456Y-53792246D01*
X137442709Y-53786025D01*
X137433764Y-53780813D01*
X137423395Y-53775603D01*
X137419391Y-53773684D01*
X137376259Y-53755651D01*
X137327199Y-53739532D01*
X137274650Y-53725954D01*
X137221055Y-53715539D01*
X137168851Y-53708912D01*
X137165222Y-53708599D01*
X137116781Y-53708366D01*
X137064900Y-53715312D01*
X137010365Y-53729274D01*
X136953960Y-53750096D01*
X136947567Y-53752846D01*
X136895212Y-53778876D01*
X136849440Y-53808708D01*
X136809637Y-53843039D01*
X136775188Y-53882569D01*
X136745479Y-53927995D01*
X136719896Y-53980015D01*
X136699301Y-54034817D01*
X136686471Y-54078170D01*
X136678445Y-54117579D01*
X136674964Y-54155890D01*
X136675767Y-54195943D01*
X136680544Y-54240220D01*
X136689180Y-54290618D01*
X136700523Y-54339535D01*
X136714085Y-54385397D01*
X136729377Y-54426631D01*
X136745911Y-54461662D01*
X136753242Y-54474364D01*
X136765919Y-54491736D01*
X136784501Y-54512933D01*
X136807905Y-54537005D01*
X136414313Y-54930596D01*
X135469054Y-54417399D01*
X135385344Y-54371948D01*
X135303533Y-54327518D01*
X135223934Y-54284282D01*
X135146865Y-54242411D01*
X135072639Y-54202077D01*
X135001576Y-54163453D01*
X134933987Y-54126709D01*
X134870193Y-54092017D01*
X134810507Y-54059552D01*
X134755244Y-54029482D01*
X134704723Y-54001981D01*
X134659258Y-53977221D01*
X134619165Y-53955372D01*
X134584760Y-53936609D01*
X134556360Y-53921100D01*
X134534279Y-53909021D01*
X134518834Y-53900541D01*
X134510341Y-53895832D01*
X134508748Y-53894912D01*
X134500867Y-53885203D01*
X134499102Y-53871993D01*
X134503274Y-53857443D01*
X134512976Y-53843941D01*
X134521828Y-53836098D01*
G37*
X134521828Y-53836098D02*
X134528553Y-53833858D01*
X134536336Y-53836229D01*
X134536892Y-53836489D01*
X134543581Y-53839661D01*
X134557476Y-53846255D01*
X134578135Y-53856061D01*
X134605114Y-53868869D01*
X134637971Y-53884468D01*
X134676264Y-53902649D01*
X134719552Y-53923202D01*
X134767390Y-53945916D01*
X134819336Y-53970582D01*
X134874950Y-53996988D01*
X134933787Y-54024927D01*
X134995407Y-54054186D01*
X135059365Y-54084557D01*
X135125220Y-54115828D01*
X135192529Y-54147791D01*
X135260850Y-54180234D01*
X135329741Y-54212947D01*
X135398758Y-54245722D01*
X135467461Y-54278348D01*
X135535407Y-54310614D01*
X135602151Y-54342310D01*
X135667254Y-54373227D01*
X135730272Y-54403153D01*
X135790762Y-54431880D01*
X135848281Y-54459198D01*
X135902390Y-54484895D01*
X135952645Y-54508762D01*
X135998601Y-54530589D01*
X136039819Y-54550167D01*
X136075855Y-54567282D01*
X136106267Y-54581728D01*
X136112894Y-54584877D01*
X136160920Y-54607684D01*
X136206708Y-54629417D01*
X136249688Y-54649804D01*
X136289289Y-54668573D01*
X136324939Y-54685457D01*
X136356065Y-54700183D01*
X136382097Y-54712482D01*
X136402462Y-54722082D01*
X136416591Y-54728714D01*
X136423910Y-54732106D01*
X136424835Y-54732505D01*
X136427200Y-54729104D01*
X136431234Y-54720518D01*
X136432304Y-54717967D01*
X136440717Y-54701656D01*
X136454288Y-54680482D01*
X136472162Y-54655546D01*
X136493482Y-54627946D01*
X136517393Y-54598779D01*
X136543041Y-54569146D01*
X136569569Y-54540144D01*
X136576101Y-54533265D01*
X136606896Y-54501086D01*
X136596989Y-54462294D01*
X136587313Y-54417783D01*
X136579910Y-54369986D01*
X136574953Y-54321155D01*
X136572617Y-54273548D01*
X136573075Y-54229420D01*
X136576231Y-54192964D01*
X136583037Y-54158510D01*
X136594454Y-54119052D01*
X136609810Y-54076202D01*
X136628435Y-54031574D01*
X136649658Y-53986779D01*
X136672808Y-53943432D01*
X136696039Y-53904958D01*
X136716004Y-53877246D01*
X136741402Y-53846953D01*
X136770424Y-53815890D01*
X136801262Y-53785864D01*
X136832108Y-53758685D01*
X136861153Y-53736159D01*
X136872650Y-53728347D01*
X136918713Y-53700719D01*
X136967085Y-53675488D01*
X137016218Y-53653277D01*
X137064561Y-53634708D01*
X137110567Y-53620406D01*
X137152687Y-53610994D01*
X137170694Y-53608437D01*
X137211442Y-53605845D01*
X137257312Y-53606190D01*
X137305579Y-53609236D01*
X137353515Y-53614747D01*
X137398395Y-53622486D01*
X137434384Y-53631296D01*
X137467093Y-53640824D01*
X137501639Y-53607751D01*
X137542440Y-53570378D01*
X137583934Y-53535536D01*
X137624661Y-53504352D01*
X137663160Y-53477952D01*
X137693332Y-53459956D01*
X137693746Y-53459353D01*
X137693765Y-53458011D01*
X137693280Y-53455695D01*
X137692177Y-53452165D01*
X137690347Y-53447185D01*
X137687676Y-53440518D01*
X137684054Y-53431925D01*
X137679370Y-53421170D01*
X137673511Y-53408014D01*
X137666368Y-53392221D01*
X137657827Y-53373553D01*
X137647778Y-53351772D01*
X137636110Y-53326641D01*
X137622711Y-53297924D01*
X137607468Y-53265380D01*
X137590273Y-53228774D01*
X137571012Y-53187869D01*
X137549575Y-53142425D01*
X137525848Y-53092208D01*
X137499724Y-53036977D01*
X137471087Y-52976497D01*
X137439828Y-52910530D01*
X137405836Y-52838838D01*
X137368999Y-52761184D01*
X137329205Y-52677330D01*
X137286342Y-52587039D01*
X137240301Y-52490073D01*
X137190969Y-52386195D01*
X137138234Y-52275168D01*
X137081986Y-52156754D01*
X137076600Y-52145415D01*
X136798962Y-51560949D01*
X136811279Y-51546864D01*
X136820609Y-51537681D01*
X136829588Y-51533759D01*
X136840983Y-51533151D01*
X136858370Y-51533523D01*
X137379263Y-52492951D01*
X137900157Y-53452380D01*
X137914220Y-53450794D01*
X137922183Y-53449071D01*
X137936860Y-53445102D01*
X137956921Y-53439277D01*
X137981034Y-53431990D01*
X138007871Y-53423630D01*
X138024014Y-53418490D01*
X138119748Y-53387771D01*
X138321789Y-53160837D01*
X138381733Y-53093518D01*
X138436362Y-53032197D01*
X138485979Y-52976539D01*
X138530893Y-52926210D01*
X138571406Y-52880873D01*
X138607824Y-52840195D01*
X138640452Y-52803843D01*
X138669596Y-52771480D01*
X138695561Y-52742771D01*
X138718651Y-52717385D01*
X138739172Y-52694983D01*
X138757430Y-52675233D01*
X138773727Y-52657800D01*
X138788371Y-52642350D01*
X138801667Y-52628547D01*
X138813919Y-52616057D01*
X138825432Y-52604545D01*
X138836513Y-52593677D01*
X138847464Y-52583119D01*
X138856204Y-52574797D01*
X138899516Y-52534245D01*
X138938258Y-52499017D01*
X138972194Y-52469318D01*
X139001085Y-52445354D01*
X139024691Y-52427331D01*
X139037214Y-52418820D01*
X139060691Y-52407248D01*
X139083912Y-52403162D01*
X139108880Y-52406368D01*
X139122676Y-52410658D01*
X139131492Y-52413709D01*
X139138497Y-52416395D01*
X139143397Y-52419432D01*
X139145899Y-52423532D01*
X139145712Y-52429409D01*
X139142541Y-52437777D01*
X139136095Y-52449349D01*
X139126079Y-52464839D01*
X139112204Y-52484959D01*
X139094173Y-52510424D01*
X139071697Y-52541947D01*
X139064893Y-52551497D01*
X139038717Y-52588323D01*
X139017204Y-52618724D01*
X139000059Y-52643142D01*
X138986987Y-52662014D01*
X138977691Y-52675779D01*
X138971877Y-52684874D01*
X138969246Y-52689740D01*
X138969506Y-52690814D01*
X138972358Y-52688537D01*
X138972655Y-52688256D01*
X138976389Y-52684736D01*
X138985951Y-52675738D01*
X139001003Y-52661581D01*
X139021202Y-52642583D01*
X139046209Y-52619065D01*
X139075686Y-52591348D01*
X139109291Y-52559749D01*
X139146684Y-52524590D01*
X139187525Y-52486190D01*
X139231474Y-52444869D01*
X139278192Y-52400946D01*
X139327337Y-52354742D01*
X139378569Y-52306576D01*
X139431550Y-52256768D01*
X139449544Y-52239852D01*
X139920302Y-51797291D01*
X140322170Y-51364320D01*
X140370490Y-51312255D01*
X140417639Y-51261433D01*
X140463256Y-51212252D01*
X140506974Y-51165104D01*
X140548429Y-51120383D01*
X140587256Y-51078482D01*
X140623090Y-51039796D01*
X140655567Y-51004718D01*
X140684323Y-50973642D01*
X140708992Y-50946961D01*
X140729209Y-50925070D01*
X140744611Y-50908362D01*
X140754832Y-50897231D01*
X140758296Y-50893426D01*
X140792555Y-50855502D01*
X140782715Y-50848181D01*
X140772131Y-50836558D01*
X140769449Y-50824061D01*
X140774276Y-50811515D01*
X140786218Y-50799744D01*
X140804884Y-50789573D01*
X140811934Y-50786886D01*
X140819198Y-50785132D01*
X140833972Y-50782211D01*
X140855396Y-50778265D01*
X140882615Y-50773434D01*
X140914772Y-50767861D01*
X140951009Y-50761685D01*
X140990472Y-50755048D01*
X141032303Y-50748092D01*
X141075643Y-50740956D01*
X141119637Y-50733782D01*
X141163428Y-50726712D01*
X141206160Y-50719885D01*
X141246975Y-50713444D01*
X141285018Y-50707530D01*
X141319429Y-50702282D01*
X141349354Y-50697843D01*
X141373935Y-50694354D01*
X141374624Y-50694258D01*
X141403168Y-50692732D01*
X141427597Y-50697001D01*
X141447580Y-50705848D01*
X141460001Y-50714969D01*
X141465017Y-50724469D01*
X141462504Y-50735067D01*
X141452340Y-50747481D01*
X141438403Y-50759366D01*
X141432249Y-50763780D01*
X141425464Y-50767557D01*
X141416950Y-50770981D01*
X141405606Y-50774340D01*
X141390333Y-50777919D01*
X141370033Y-50782004D01*
X141343604Y-50786879D01*
X141309947Y-50792833D01*
X141309003Y-50792998D01*
X141197833Y-50812449D01*
X141143572Y-50877926D01*
X141122034Y-50903893D01*
X141096574Y-50934552D01*
X141067640Y-50969364D01*
X141035682Y-51007789D01*
X141001150Y-51049287D01*
X140964495Y-51093320D01*
X140926164Y-51139349D01*
X140886607Y-51186834D01*
X140846275Y-51235237D01*
X140805615Y-51284018D01*
X140765080Y-51332637D01*
X140725118Y-51380557D01*
X140686177Y-51427237D01*
X140648709Y-51472139D01*
X140613162Y-51514723D01*
X140579985Y-51554450D01*
X140549631Y-51590781D01*
X140522545Y-51623177D01*
X140499179Y-51651100D01*
X140479983Y-51674008D01*
X140465406Y-51691364D01*
X140457592Y-51700628D01*
X140444697Y-51715723D01*
X140431266Y-51731130D01*
X140416842Y-51747332D01*
X140400965Y-51764814D01*
X140383177Y-51784058D01*
X140363021Y-51805549D01*
X140340037Y-51829771D01*
X140313767Y-51857205D01*
X140283752Y-51888337D01*
X140249535Y-51923649D01*
X140210657Y-51963626D01*
X140166658Y-52008751D01*
X140126908Y-52049450D01*
X140092553Y-52084612D01*
X140059532Y-52118414D01*
X140027505Y-52151208D01*
X139996131Y-52183343D01*
X139965068Y-52215173D01*
X139933973Y-52247047D01*
X139902505Y-52279317D01*
X139870323Y-52312332D01*
X139837084Y-52346446D01*
X139802447Y-52382008D01*
X139766072Y-52419369D01*
X139727615Y-52458881D01*
X139686736Y-52500893D01*
X139643092Y-52545759D01*
X139596342Y-52593828D01*
X139546144Y-52645451D01*
X139492158Y-52700979D01*
X139434040Y-52760764D01*
X139371449Y-52825156D01*
X139304045Y-52894506D01*
X139231483Y-52969166D01*
X139153425Y-53049485D01*
X139139093Y-53064233D01*
X139074345Y-53130859D01*
X139015235Y-53191689D01*
X138961497Y-53247003D01*
X138912870Y-53297075D01*
X138869089Y-53342184D01*
X138829891Y-53382605D01*
X138795013Y-53418617D01*
X138764190Y-53450496D01*
X138737161Y-53478519D01*
X138713661Y-53502964D01*
X138693427Y-53524107D01*
X138676195Y-53542225D01*
X138661702Y-53557597D01*
X138649684Y-53570497D01*
X138639877Y-53581205D01*
X138632019Y-53589995D01*
X138625846Y-53597146D01*
X138621094Y-53602935D01*
X138617500Y-53607639D01*
X138614801Y-53611534D01*
X138612733Y-53614898D01*
X138611032Y-53618008D01*
X138609435Y-53621140D01*
X138609420Y-53621170D01*
X138597362Y-53641417D01*
X138579903Y-53665619D01*
X138558183Y-53692358D01*
X138533344Y-53720216D01*
X138511837Y-53742511D01*
X138497030Y-53757457D01*
X138487514Y-53767587D01*
X138482505Y-53773980D01*
X138481220Y-53777720D01*
X138482875Y-53779888D01*
X138484243Y-53780583D01*
X138506688Y-53791068D01*
X138532056Y-53803851D01*
X138558115Y-53817723D01*
X138582638Y-53831472D01*
X138603395Y-53843889D01*
X138615451Y-53851809D01*
X138632031Y-53864460D01*
X138651368Y-53880722D01*
X138670449Y-53898011D01*
X138679800Y-53907076D01*
X138702473Y-53930965D01*
X138722137Y-53954660D01*
X138739298Y-53979251D01*
X138754465Y-54005827D01*
X138768145Y-54035476D01*
X138780847Y-54069288D01*
X138793079Y-54108353D01*
X138805348Y-54153758D01*
X138816801Y-54200765D01*
X138820570Y-54223222D01*
X138823120Y-54251748D01*
X138824442Y-54284032D01*
X138824528Y-54317764D01*
X138823372Y-54350635D01*
X138820968Y-54380332D01*
X138817436Y-54403922D01*
X138801316Y-54466355D01*
X138779285Y-54525098D01*
X138751800Y-54579451D01*
X138719322Y-54628710D01*
X138682303Y-54672169D01*
X138641205Y-54709125D01*
X138601647Y-54735929D01*
X138586965Y-54744605D01*
X138574834Y-54752010D01*
X138567361Y-54756851D01*
X138566403Y-54757560D01*
X138565196Y-54760352D01*
X138567145Y-54765313D01*
X138572964Y-54773479D01*
X138583371Y-54785886D01*
X138595386Y-54799456D01*
X138621288Y-54828159D01*
X138642821Y-54851519D01*
X138661088Y-54870660D01*
X138677187Y-54886703D01*
X138692219Y-54900770D01*
X138707284Y-54913982D01*
X138709794Y-54916111D01*
X138737987Y-54943464D01*
X138766863Y-54978141D01*
X138795773Y-55019108D01*
X138824066Y-55065328D01*
X138851095Y-55115764D01*
X138876210Y-55169380D01*
X138891335Y-55205791D01*
X138910366Y-55259366D01*
X138924146Y-55311255D01*
X138933148Y-55364003D01*
X138937844Y-55420154D01*
X138938820Y-55462187D01*
X138935636Y-55537590D01*
X138925662Y-55607984D01*
X138908883Y-55673443D01*
X138885280Y-55734039D01*
X138869856Y-55764466D01*
X138853755Y-55789919D01*
X138833266Y-55816753D01*
X138810423Y-55842642D01*
X138787264Y-55865265D01*
X138767802Y-55880932D01*
X138726246Y-55906086D01*
X138678211Y-55928053D01*
X138625287Y-55946227D01*
X138569064Y-55959998D01*
X138554711Y-55962676D01*
X138524408Y-55966664D01*
X138488178Y-55969336D01*
X138448459Y-55970675D01*
X138407691Y-55970661D01*
X138368310Y-55969275D01*
X138332758Y-55966500D01*
X138316416Y-55964477D01*
X138272726Y-55955823D01*
X138224471Y-55942058D01*
X138173348Y-55923770D01*
X138121054Y-55901545D01*
X138087284Y-55885287D01*
X138049407Y-55865775D01*
X138017172Y-55848070D01*
X137989111Y-55831054D01*
X137963753Y-55813610D01*
X137959084Y-55809935D01*
X138039233Y-55729786D01*
X138064179Y-55753329D01*
X138090343Y-55774585D01*
X138119368Y-55794674D01*
X138152899Y-55814715D01*
X138192578Y-55835832D01*
X138201224Y-55840197D01*
X138263575Y-55868267D01*
X138323380Y-55888657D01*
X138381213Y-55901556D01*
X138390843Y-55903010D01*
X138451421Y-55908632D01*
X138510966Y-55908558D01*
X138568405Y-55902983D01*
X138622670Y-55892103D01*
X138672689Y-55876116D01*
X138717391Y-55855219D01*
X138744410Y-55838158D01*
X138763255Y-55823769D01*
X138778523Y-55809525D01*
X138793253Y-55792418D01*
X138801636Y-55781488D01*
X138826563Y-55741613D01*
X138846599Y-55695914D01*
X138861632Y-55645560D01*
X138871545Y-55591719D01*
X138876226Y-55535559D01*
X138875558Y-55478248D01*
X138869429Y-55420955D01*
X138857724Y-55364846D01*
X138846170Y-55326960D01*
X138823814Y-55269564D01*
X138798132Y-55215599D01*
X138769698Y-55165890D01*
X138739082Y-55121264D01*
X138706856Y-55082550D01*
X138673593Y-55050573D01*
X138639865Y-55026160D01*
X138636869Y-55024387D01*
X138602089Y-55006718D01*
X138563244Y-54991329D01*
X138522083Y-54978602D01*
X138480357Y-54968921D01*
X138439814Y-54962669D01*
X138402208Y-54960229D01*
X138369286Y-54961984D01*
X138359385Y-54963622D01*
X138313020Y-54976396D01*
X138264755Y-54996022D01*
X138216079Y-55021591D01*
X138168476Y-55052194D01*
X138123433Y-55086922D01*
X138082434Y-55124866D01*
X138064578Y-55144010D01*
X138031774Y-55184267D01*
X138002211Y-55226925D01*
X137976539Y-55270687D01*
X137955412Y-55314258D01*
X137939481Y-55356346D01*
X137929399Y-55395654D01*
X137926343Y-55418415D01*
X137926321Y-55450747D01*
X137930504Y-55488110D01*
X137938417Y-55528475D01*
X137949588Y-55569814D01*
X137963543Y-55610101D01*
X137979699Y-55647079D01*
X137989531Y-55666655D01*
X137997675Y-55681317D01*
X138005818Y-55693409D01*
X138015647Y-55705276D01*
X138028849Y-55719261D01*
X138039233Y-55729786D01*
X137959084Y-55809935D01*
X137939631Y-55794621D01*
X137915275Y-55772969D01*
X137889219Y-55747537D01*
X137859990Y-55717208D01*
X137844175Y-55700337D01*
X137835678Y-55691781D01*
X137823219Y-55679949D01*
X137808017Y-55665921D01*
X137791283Y-55650778D01*
X137774237Y-55635599D01*
X137758092Y-55621462D01*
X137744067Y-55609449D01*
X137733374Y-55600638D01*
X137727233Y-55596109D01*
X137726363Y-55595734D01*
X137723365Y-55599192D01*
X137717410Y-55608462D01*
X137709531Y-55621888D01*
X137705121Y-55629772D01*
X137676268Y-55673640D01*
X137639962Y-55714343D01*
X137596802Y-55751337D01*
X137547384Y-55784081D01*
X137516925Y-55800495D01*
X137456208Y-55826724D01*
X137394953Y-55844893D01*
X137331707Y-55855360D01*
X137282211Y-55858369D01*
X137245988Y-55858405D01*
X137214497Y-55856674D01*
X137184412Y-55852775D01*
X137152403Y-55846307D01*
X137124442Y-55839347D01*
X137080641Y-55827392D01*
X137043825Y-55816258D01*
X137012634Y-55805349D01*
X136985704Y-55794071D01*
X136961676Y-55781828D01*
X136939185Y-55768027D01*
X136931379Y-55762446D01*
X137021899Y-55671926D01*
X137062019Y-55702901D01*
X137106577Y-55727421D01*
X137156047Y-55745893D01*
X137175083Y-55751124D01*
X137207150Y-55756999D01*
X137244193Y-55760240D01*
X137283124Y-55760795D01*
X137320856Y-55758614D01*
X137352334Y-55754051D01*
X137401289Y-55741395D01*
X137449591Y-55723670D01*
X137494741Y-55701933D01*
X137534249Y-55677246D01*
X137536060Y-55675933D01*
X137554465Y-55660642D01*
X137574220Y-55641219D01*
X137593224Y-55619998D01*
X137609375Y-55599311D01*
X137619764Y-55583024D01*
X137625757Y-55570733D01*
X137632387Y-55555359D01*
X137638661Y-55539446D01*
X137643586Y-55525535D01*
X137646171Y-55516170D01*
X137646332Y-55514913D01*
X137643125Y-55514090D01*
X138482673Y-54674542D01*
X138487381Y-54677142D01*
X138494878Y-54676180D01*
X138505757Y-54672966D01*
X138541205Y-54658005D01*
X138575984Y-54635381D01*
X138609186Y-54605895D01*
X138639902Y-54570349D01*
X138665833Y-54531895D01*
X138692129Y-54479717D01*
X138711588Y-54423593D01*
X138723771Y-54365115D01*
X138728246Y-54305875D01*
X138728259Y-54303494D01*
X138724551Y-54247226D01*
X138713380Y-54192718D01*
X138695086Y-54141279D01*
X138675344Y-54102853D01*
X138657752Y-54077819D01*
X138634448Y-54051263D01*
X138607443Y-54025142D01*
X138578745Y-54001409D01*
X138552444Y-53983285D01*
X138533874Y-53972607D01*
X138511957Y-53961174D01*
X138487949Y-53949516D01*
X138463105Y-53938164D01*
X138438682Y-53927646D01*
X138415935Y-53918491D01*
X138396120Y-53911230D01*
X138380493Y-53906390D01*
X138370309Y-53904503D01*
X138367144Y-53905165D01*
X138364207Y-53910046D01*
X138358636Y-53920866D01*
X138351318Y-53935863D01*
X138345508Y-53948162D01*
X138336694Y-53966466D01*
X138325099Y-53989677D01*
X138312003Y-54015278D01*
X138298686Y-54040748D01*
X138293597Y-54050311D01*
X138260340Y-54112447D01*
X138314710Y-54197921D01*
X138341000Y-54239445D01*
X138363056Y-54274794D01*
X138381344Y-54304840D01*
X138396327Y-54330452D01*
X138408470Y-54352498D01*
X138418237Y-54371851D01*
X138426093Y-54389378D01*
X138432501Y-54405951D01*
X138437927Y-54422438D01*
X138441859Y-54436105D01*
X138450975Y-54473300D01*
X138459608Y-54515634D01*
X138467174Y-54559783D01*
X138473095Y-54602420D01*
X138476255Y-54633201D01*
X138478012Y-54653787D01*
X138479851Y-54667162D01*
X138482673Y-54674542D01*
X137643125Y-55514090D01*
X137642414Y-55513907D01*
X137631602Y-55512395D01*
X137615444Y-55510565D01*
X137595482Y-55508602D01*
X137590370Y-55508138D01*
X137550194Y-55503589D01*
X137507010Y-55497026D01*
X137463689Y-55488981D01*
X137423108Y-55479989D01*
X137388368Y-55470651D01*
X137369009Y-55463888D01*
X137346921Y-55454345D01*
X137321405Y-55441643D01*
X137291766Y-55425402D01*
X137257307Y-55405243D01*
X137217330Y-55380784D01*
X137177217Y-55355520D01*
X137152997Y-55340107D01*
X137130831Y-55326000D01*
X137111829Y-55313909D01*
X137097103Y-55304538D01*
X137087763Y-55298596D01*
X137085249Y-55296997D01*
X137076918Y-55295139D01*
X137066204Y-55299790D01*
X137064091Y-55301194D01*
X137056537Y-55305694D01*
X137042665Y-55313289D01*
X137023739Y-55323314D01*
X137001026Y-55335100D01*
X136975792Y-55347983D01*
X136961540Y-55355172D01*
X136936367Y-55367842D01*
X136913836Y-55379233D01*
X136895010Y-55388802D01*
X136880956Y-55396007D01*
X136872735Y-55400306D01*
X136871030Y-55401279D01*
X136871546Y-55405985D01*
X136874850Y-55416958D01*
X136880360Y-55432701D01*
X136887493Y-55451714D01*
X136895667Y-55472498D01*
X136904302Y-55493555D01*
X136912815Y-55513384D01*
X136920624Y-55530488D01*
X136923413Y-55536218D01*
X136953072Y-55588991D01*
X136985742Y-55634091D01*
X137021899Y-55671926D01*
X136931379Y-55762446D01*
X136916870Y-55752074D01*
X136907014Y-55744423D01*
X136869531Y-55710204D01*
X136833992Y-55668784D01*
X136801275Y-55621366D01*
X136772258Y-55569146D01*
X136760691Y-55544514D01*
X136753975Y-55529499D01*
X136748676Y-55517860D01*
X136745632Y-55511433D01*
X136745242Y-55510739D01*
X136742125Y-55513215D01*
X136734259Y-55520558D01*
X136722854Y-55531615D01*
X136709883Y-55544465D01*
X136682351Y-55570794D01*
X136654724Y-55594995D01*
X136628440Y-55615915D01*
X136604938Y-55632397D01*
X136588867Y-55641732D01*
X136586725Y-55642750D01*
X136584874Y-55643549D01*
X136583124Y-55644315D01*
X136581282Y-55645230D01*
X136579159Y-55646479D01*
X136576563Y-55648245D01*
X136573305Y-55650711D01*
X136569191Y-55654060D01*
X136564034Y-55658476D01*
X136557640Y-55664143D01*
X136549820Y-55671243D01*
X136540383Y-55679961D01*
X136529136Y-55690479D01*
X136515891Y-55702982D01*
X136500456Y-55717652D01*
X136482640Y-55734674D01*
X136462252Y-55754229D01*
X136439102Y-55776503D01*
X136413000Y-55801678D01*
X136383752Y-55829939D01*
X136351169Y-55861466D01*
X136315062Y-55896447D01*
X136275236Y-55935062D01*
X136231504Y-55977496D01*
X136183673Y-56023933D01*
X136131553Y-56074554D01*
X136074954Y-56129545D01*
X136013683Y-56189087D01*
X135947550Y-56253366D01*
X135876366Y-56322565D01*
X135799937Y-56396866D01*
X135718074Y-56476453D01*
X135630587Y-56561510D01*
X135537284Y-56652220D01*
X135503691Y-56684877D01*
X135465191Y-56722326D01*
X135421667Y-56764691D01*
X135374149Y-56810972D01*
X135323666Y-56860164D01*
X135271247Y-56911263D01*
X135217921Y-56963268D01*
X135164716Y-57015175D01*
X135112662Y-57065980D01*
X135062788Y-57114681D01*
X135017173Y-57159246D01*
X134960643Y-57214416D01*
X134909861Y-57263813D01*
X134864596Y-57307658D01*
X134824617Y-57346172D01*
X134789691Y-57379575D01*
X134759588Y-57408089D01*
X134734074Y-57431934D01*
X134712920Y-57451331D01*
X134695894Y-57466501D01*
X134687804Y-57473462D01*
X134667623Y-57490493D01*
X134642587Y-57511555D01*
X134613159Y-57536260D01*
X134579803Y-57564223D01*
X134542984Y-57595057D01*
X134503164Y-57628376D01*
X134460807Y-57663791D01*
X134416378Y-57700918D01*
X134370341Y-57739369D01*
X134323158Y-57778757D01*
X134275293Y-57818697D01*
X134227213Y-57858801D01*
X134179379Y-57898682D01*
X134132254Y-57937955D01*
X134086304Y-57976231D01*
X134041992Y-58013126D01*
X133999781Y-58048251D01*
X133960136Y-58081220D01*
X133923521Y-58111648D01*
X133890399Y-58139146D01*
X133861233Y-58163328D01*
X133836489Y-58183808D01*
X133816630Y-58200199D01*
X133802118Y-58212115D01*
X133793419Y-58219168D01*
X133791466Y-58220697D01*
X133787739Y-58223971D01*
X133784523Y-58228347D01*
X133781556Y-58234831D01*
X133778575Y-58244430D01*
X133775317Y-58258152D01*
X133771522Y-58277003D01*
X133766925Y-58301990D01*
X133761266Y-58334119D01*
X133759969Y-58341575D01*
X133753991Y-58375604D01*
X133749086Y-58402365D01*
X133744975Y-58422950D01*
X133741379Y-58438449D01*
X133738015Y-58449951D01*
X133734606Y-58458549D01*
X133730871Y-58465332D01*
X133726708Y-58471162D01*
X133712335Y-58487184D01*
X133699667Y-58496371D01*
X133689378Y-58498271D01*
X133687464Y-58497650D01*
X133681804Y-58492505D01*
X133674545Y-58482617D01*
X133671042Y-58476832D01*
X133664912Y-58462542D01*
X133661929Y-58445638D01*
X133661464Y-58426123D01*
X133662261Y-58415526D01*
X133664308Y-58397754D01*
X133667467Y-58373675D01*
X133671598Y-58344157D01*
X133676563Y-58310063D01*
X133682224Y-58272261D01*
X133688440Y-58231619D01*
X133695073Y-58189002D01*
X133701237Y-58150003D01*
X133906669Y-57944570D01*
X133910011Y-57941857D01*
X133919379Y-57933933D01*
X133934399Y-57921126D01*
X133954690Y-57903759D01*
X133979874Y-57882158D01*
X134009573Y-57856648D01*
X134043410Y-57827555D01*
X134081006Y-57795204D01*
X134121981Y-57759920D01*
X134165958Y-57722029D01*
X134212559Y-57681856D01*
X134261405Y-57639726D01*
X134312118Y-57595964D01*
X134324217Y-57585521D01*
X134740156Y-57226473D01*
X135486685Y-56494252D01*
X135554844Y-56427395D01*
X135622148Y-56361368D01*
X135688289Y-56296473D01*
X135752965Y-56233008D01*
X135815868Y-56171275D01*
X135876692Y-56111572D01*
X135935133Y-56054200D01*
X135990885Y-55999460D01*
X136043642Y-55947652D01*
X136093099Y-55899075D01*
X136138951Y-55854028D01*
X136180892Y-55812814D01*
X136218615Y-55775731D01*
X136251817Y-55743079D01*
X136280191Y-55715160D01*
X136303431Y-55692271D01*
X136321233Y-55674715D01*
X136333162Y-55662919D01*
X136433110Y-55563805D01*
X136404394Y-55535089D01*
X136383846Y-55512570D01*
X136363366Y-55486732D01*
X136351774Y-55470232D01*
X136341701Y-55455230D01*
X136333425Y-55443334D01*
X136327988Y-55436014D01*
X136326421Y-55434402D01*
X136323435Y-55437472D01*
X136314896Y-55446457D01*
X136301047Y-55461098D01*
X136282129Y-55481139D01*
X136258385Y-55506320D01*
X136230058Y-55536383D01*
X136197391Y-55571073D01*
X136160625Y-55610130D01*
X136120003Y-55653297D01*
X136075769Y-55700316D01*
X136028164Y-55750929D01*
X135977431Y-55804880D01*
X135923812Y-55861908D01*
X135867550Y-55921758D01*
X135808888Y-55984171D01*
X135748067Y-56048889D01*
X135685330Y-56115655D01*
X135620922Y-56184211D01*
X135579459Y-56228348D01*
X134833945Y-57021983D01*
X134374575Y-57448133D01*
X133915204Y-57874283D01*
X133910134Y-57909427D01*
X133908006Y-57925394D01*
X133906720Y-57937570D01*
X133906466Y-57944021D01*
X133906669Y-57944570D01*
X133701237Y-58150003D01*
X133701984Y-58145276D01*
X133709034Y-58101308D01*
X133716085Y-58057965D01*
X133722997Y-58016112D01*
X133729633Y-57976617D01*
X133735851Y-57940347D01*
X133741515Y-57908167D01*
X133746484Y-57880944D01*
X133750620Y-57859544D01*
X133753785Y-57844834D01*
X133755757Y-57837865D01*
X133765123Y-57820797D01*
X133776072Y-57808336D01*
X133787149Y-57801938D01*
X133792110Y-57801449D01*
X133800978Y-57804905D01*
X133810972Y-57812276D01*
X133812214Y-57813474D01*
X133823410Y-57824670D01*
X133861231Y-57790512D01*
X133868866Y-57783539D01*
X133882311Y-57771172D01*
X133901172Y-57753773D01*
X133925054Y-57731709D01*
X133953564Y-57705346D01*
X133986305Y-57675049D01*
X134022885Y-57641181D01*
X134062909Y-57604111D01*
X134105981Y-57564201D01*
X134151709Y-57521817D01*
X134199696Y-57477325D01*
X134249550Y-57431090D01*
X134300874Y-57383478D01*
X134330685Y-57355817D01*
X134762317Y-56955280D01*
X135210479Y-56478474D01*
X135260983Y-56424734D01*
X135309885Y-56372681D01*
X135356875Y-56322646D01*
X135401640Y-56274965D01*
X135443867Y-56229969D01*
X135483244Y-56187994D01*
X135519458Y-56149371D01*
X135552197Y-56114435D01*
X135581149Y-56083518D01*
X135606000Y-56056954D01*
X135626439Y-56035076D01*
X135642153Y-56018219D01*
X135652830Y-56006714D01*
X135658157Y-56000896D01*
X135658726Y-56000223D01*
X135655480Y-56002097D01*
X135646381Y-56008168D01*
X135632470Y-56017722D01*
X135614788Y-56030041D01*
X135594376Y-56044411D01*
X135591325Y-56046571D01*
X135549356Y-56076305D01*
X135513772Y-56101514D01*
X135484030Y-56122549D01*
X135459593Y-56139757D01*
X135439917Y-56153485D01*
X135424464Y-56164083D01*
X135412692Y-56171900D01*
X135404061Y-56177282D01*
X135398030Y-56180577D01*
X135394059Y-56182136D01*
X135391606Y-56182304D01*
X135390132Y-56181431D01*
X135389096Y-56179865D01*
X135387958Y-56177953D01*
X135387762Y-56177682D01*
X135379188Y-56161571D01*
X135373044Y-56141174D01*
X135369970Y-56119850D01*
X135370606Y-56100954D01*
X135372013Y-56094917D01*
X135378236Y-56081583D01*
X135389996Y-56063457D01*
X135407431Y-56040370D01*
X135430674Y-56012154D01*
X135459861Y-55978640D01*
X135495129Y-55939660D01*
X135509430Y-55924159D01*
X135536836Y-55894785D01*
X135561078Y-55869318D01*
X135583726Y-55846218D01*
X135606349Y-55823940D01*
X135630516Y-55800942D01*
X135657795Y-55775684D01*
X135689759Y-55746621D01*
X135693610Y-55743142D01*
X135718124Y-55721052D01*
X135748215Y-55694011D01*
X135783134Y-55662687D01*
X135822131Y-55627752D01*
X135864452Y-55589877D01*
X135909347Y-55549733D01*
X135956066Y-55507990D01*
X136003857Y-55465320D01*
X136051970Y-55422393D01*
X136099653Y-55379880D01*
X136146155Y-55338452D01*
X136190725Y-55298779D01*
X136232613Y-55261533D01*
X136264457Y-55233250D01*
X136351814Y-55155711D01*
X136384287Y-55056732D01*
X136393399Y-55028649D01*
X136401642Y-55002656D01*
X136408630Y-54980021D01*
X136413977Y-54962008D01*
X136417295Y-54949886D01*
X136418199Y-54945619D01*
X136419639Y-54933488D01*
X136414313Y-54930596D01*
X136807905Y-54537005D01*
X136835045Y-54563001D01*
X136864833Y-54589974D01*
X136896186Y-54616973D01*
X136928017Y-54643047D01*
X136959240Y-54667249D01*
X136988770Y-54688628D01*
X137015521Y-54706234D01*
X137024394Y-54711543D01*
X137045079Y-54718875D01*
X137067267Y-54718776D01*
X137087301Y-54711835D01*
X137095129Y-54706441D01*
X137107924Y-54696340D01*
X137124435Y-54682570D01*
X137143418Y-54666172D01*
X137163624Y-54648191D01*
X137165329Y-54646650D01*
X137184066Y-54629710D01*
X137205741Y-54610155D01*
X137229458Y-54588790D01*
X137254319Y-54566421D01*
X137279427Y-54543853D01*
X137303885Y-54521892D01*
X137326795Y-54501343D01*
X137347260Y-54483012D01*
X137364383Y-54467705D01*
X137377267Y-54456227D01*
X137385015Y-54449383D01*
X137386153Y-54448396D01*
X137390306Y-54444165D01*
X137399521Y-54434343D01*
X137413175Y-54419612D01*
X137430641Y-54400650D01*
X137451294Y-54378137D01*
X137474508Y-54352753D01*
X137499659Y-54325179D01*
X137513809Y-54309636D01*
X137550466Y-54269280D01*
X137581783Y-54234620D01*
X137608154Y-54205127D01*
X137629981Y-54180276D01*
X137647659Y-54159536D01*
X137661587Y-54142382D01*
X137672163Y-54128283D01*
X137679786Y-54116714D01*
X137684854Y-54107147D01*
X137687764Y-54099052D01*
X137688914Y-54091903D01*
X137688703Y-54085172D01*
X137687777Y-54079612D01*
X138404362Y-53363027D01*
X138412925Y-53369181D01*
X138425404Y-53377056D01*
X138427981Y-53378590D01*
X138442564Y-53388259D01*
X138460690Y-53401836D01*
X138479814Y-53417349D01*
X138493925Y-53429651D01*
X138532406Y-53464508D01*
X138546226Y-53450800D01*
X138550334Y-53446647D01*
X138560128Y-53436699D01*
X138575363Y-53421205D01*
X138595796Y-53400416D01*
X138621181Y-53374578D01*
X138651275Y-53343943D01*
X138685832Y-53308757D01*
X138724610Y-53269271D01*
X138767363Y-53225733D01*
X138813848Y-53178391D01*
X138863818Y-53127495D01*
X138917032Y-53073293D01*
X138973243Y-53016035D01*
X139032209Y-52955969D01*
X139093684Y-52893344D01*
X139157422Y-52828409D01*
X139223183Y-52761413D01*
X139290720Y-52692604D01*
X139359789Y-52622231D01*
X139378494Y-52603173D01*
X140196941Y-51769253D01*
X140553105Y-51356640D01*
X140597026Y-51305739D01*
X140639391Y-51256605D01*
X140679871Y-51209620D01*
X140718141Y-51165163D01*
X140753874Y-51123616D01*
X140786742Y-51085361D01*
X140816420Y-51050777D01*
X140842580Y-51020246D01*
X140864896Y-50994147D01*
X140883040Y-50972863D01*
X140896687Y-50956774D01*
X140905509Y-50946260D01*
X140909180Y-50941704D01*
X140909269Y-50941545D01*
X140905405Y-50940956D01*
X140895098Y-50941524D01*
X140880271Y-50943115D01*
X140873812Y-50943967D01*
X140856151Y-50946640D01*
X140844583Y-50949371D01*
X140836784Y-50953139D01*
X140830434Y-50958923D01*
X140826108Y-50964068D01*
X140821822Y-50968917D01*
X140812105Y-50979601D01*
X140797292Y-50995761D01*
X140777718Y-51017030D01*
X140753720Y-51043049D01*
X140725632Y-51073454D01*
X140693789Y-51107882D01*
X140658529Y-51145971D01*
X140620185Y-51187358D01*
X140579094Y-51231681D01*
X140535591Y-51278576D01*
X140490012Y-51327682D01*
X140442692Y-51378637D01*
X140400985Y-51423523D01*
X139988110Y-51867780D01*
X139195239Y-52612512D01*
X139125707Y-52677830D01*
X139057797Y-52741636D01*
X138991768Y-52803686D01*
X138927879Y-52863740D01*
X138866388Y-52921551D01*
X138807552Y-52976879D01*
X138751631Y-53029480D01*
X138698881Y-53079110D01*
X138649563Y-53125527D01*
X138603933Y-53168488D01*
X138562251Y-53207748D01*
X138524773Y-53243066D01*
X138491758Y-53274199D01*
X138463466Y-53300903D01*
X138440152Y-53322934D01*
X138422077Y-53340052D01*
X138409497Y-53352010D01*
X138402672Y-53358568D01*
X138401444Y-53359815D01*
X138404362Y-53363027D01*
X137687777Y-54079612D01*
X137687691Y-54079097D01*
X137682664Y-54065779D01*
X137672413Y-54047348D01*
X137657649Y-54024726D01*
X137639085Y-53998838D01*
X137617434Y-53970605D01*
X137593405Y-53940952D01*
X137567715Y-53910803D01*
X137541072Y-53881078D01*
X137514190Y-53852703D01*
X137508949Y-53847375D01*
X137488750Y-53827040D01*
X137473252Y-53811745D01*
X137461228Y-53800484D01*
X137451456Y-53792246D01*
X137442709Y-53786025D01*
X137433764Y-53780813D01*
X137423395Y-53775603D01*
X137419391Y-53773684D01*
X137376259Y-53755651D01*
X137327199Y-53739532D01*
X137274650Y-53725954D01*
X137221055Y-53715539D01*
X137168851Y-53708912D01*
X137165222Y-53708599D01*
X137116781Y-53708366D01*
X137064900Y-53715312D01*
X137010365Y-53729274D01*
X136953960Y-53750096D01*
X136947567Y-53752846D01*
X136895212Y-53778876D01*
X136849440Y-53808708D01*
X136809637Y-53843039D01*
X136775188Y-53882569D01*
X136745479Y-53927995D01*
X136719896Y-53980015D01*
X136699301Y-54034817D01*
X136686471Y-54078170D01*
X136678445Y-54117579D01*
X136674964Y-54155890D01*
X136675767Y-54195943D01*
X136680544Y-54240220D01*
X136689180Y-54290618D01*
X136700523Y-54339535D01*
X136714085Y-54385397D01*
X136729377Y-54426631D01*
X136745911Y-54461662D01*
X136753242Y-54474364D01*
X136765919Y-54491736D01*
X136784501Y-54512933D01*
X136807905Y-54537005D01*
X136414313Y-54930596D01*
X135469054Y-54417399D01*
X135385344Y-54371948D01*
X135303533Y-54327518D01*
X135223934Y-54284282D01*
X135146865Y-54242411D01*
X135072639Y-54202077D01*
X135001576Y-54163453D01*
X134933987Y-54126709D01*
X134870193Y-54092017D01*
X134810507Y-54059552D01*
X134755244Y-54029482D01*
X134704723Y-54001981D01*
X134659258Y-53977221D01*
X134619165Y-53955372D01*
X134584760Y-53936609D01*
X134556360Y-53921100D01*
X134534279Y-53909021D01*
X134518834Y-53900541D01*
X134510341Y-53895832D01*
X134508748Y-53894912D01*
X134500867Y-53885203D01*
X134499102Y-53871993D01*
X134503274Y-53857443D01*
X134512976Y-53843941D01*
X134521828Y-53836098D01*
G36*
X139967488Y-52346033D02*
G01*
X139970749Y-52345283D01*
X139975282Y-52347421D01*
X139982314Y-52353255D01*
X139993071Y-52363598D01*
X140005849Y-52376329D01*
X140025609Y-52397073D01*
X140039196Y-52413920D01*
X140047262Y-52427982D01*
X140050459Y-52440374D01*
X140049696Y-52451106D01*
X140046956Y-52456270D01*
X140039699Y-52467950D01*
X140028226Y-52485697D01*
X140012836Y-52509066D01*
X139993829Y-52537608D01*
X139971507Y-52570878D01*
X139946169Y-52608425D01*
X139918115Y-52649805D01*
X139887646Y-52694571D01*
X139855061Y-52742273D01*
X139820662Y-52792465D01*
X139815865Y-52799452D01*
X139782928Y-52847455D01*
X139751347Y-52893565D01*
X139721454Y-52937293D01*
X139693579Y-52978150D01*
X139668055Y-53015648D01*
X139645213Y-53049298D01*
X139625384Y-53078610D01*
X139608901Y-53103097D01*
X139596095Y-53122269D01*
X139587297Y-53135638D01*
X139582840Y-53142713D01*
X139582348Y-53143665D01*
X139581173Y-53148557D01*
X139580628Y-53153962D01*
X139580911Y-53160405D01*
X139582218Y-53168410D01*
X139584749Y-53178501D01*
X139588700Y-53191204D01*
X139594269Y-53207043D01*
X139601654Y-53226540D01*
X139611053Y-53250222D01*
X139622663Y-53278613D01*
X139636681Y-53312237D01*
X139653306Y-53351618D01*
X139672735Y-53397281D01*
X139695166Y-53449749D01*
X139716392Y-53499279D01*
X139744401Y-53564436D01*
X139769261Y-53621931D01*
X139791047Y-53671933D01*
X139809835Y-53714610D01*
X139825700Y-53750128D01*
X139838716Y-53778654D01*
X139848959Y-53800359D01*
X139856505Y-53815407D01*
X139861428Y-53823969D01*
X139862845Y-53825786D01*
X139874098Y-53834613D01*
X139886062Y-53840743D01*
X139886691Y-53840949D01*
X139892659Y-53842301D01*
X139906333Y-53845078D01*
X139927093Y-53849161D01*
X139954325Y-53854434D01*
X139987405Y-53860778D01*
X140025717Y-53868075D01*
X140068643Y-53876208D01*
X140115563Y-53885058D01*
X140165860Y-53894510D01*
X140218913Y-53904442D01*
X140268876Y-53913765D01*
X140324218Y-53924075D01*
X140377598Y-53934022D01*
X140428371Y-53943483D01*
X140475893Y-53952340D01*
X140519518Y-53960473D01*
X140558603Y-53967760D01*
X140592503Y-53974082D01*
X140620573Y-53979318D01*
X140642168Y-53983350D01*
X140656644Y-53986054D01*
X140662938Y-53987235D01*
X140684115Y-53993397D01*
X140698294Y-54002721D01*
X140700049Y-54004755D01*
X140701604Y-54007472D01*
X140702972Y-54011364D01*
X140704165Y-54016924D01*
X140705193Y-54024646D01*
X140706071Y-54035022D01*
X140706809Y-54048545D01*
X140707420Y-54065709D01*
X140707915Y-54087009D01*
X140708306Y-54112934D01*
X140708607Y-54143981D01*
X140708827Y-54180642D01*
X140708981Y-54223408D01*
X140709078Y-54272776D01*
X140709134Y-54329237D01*
X140709156Y-54393284D01*
X140709161Y-54449175D01*
X140709204Y-54521195D01*
X140709289Y-54585225D01*
X140709351Y-54641743D01*
X140709325Y-54691225D01*
X140709145Y-54734147D01*
X140708745Y-54770988D01*
X140708061Y-54802223D01*
X140707026Y-54828328D01*
X140705576Y-54849783D01*
X140703646Y-54867060D01*
X140701168Y-54880639D01*
X140698078Y-54890997D01*
X140694310Y-54898608D01*
X140689801Y-54903952D01*
X140684484Y-54907503D01*
X140678292Y-54909739D01*
X140671161Y-54911137D01*
X140663027Y-54912172D01*
X140653822Y-54913323D01*
X140645269Y-54914717D01*
X140634686Y-54916705D01*
X140616484Y-54920109D01*
X140591366Y-54924800D01*
X140560038Y-54930644D01*
X140523203Y-54937513D01*
X140481565Y-54945272D01*
X140435830Y-54953794D01*
X140386702Y-54962944D01*
X140334883Y-54972592D01*
X140281081Y-54982608D01*
X140250378Y-54988321D01*
X140187501Y-55000038D01*
X140132414Y-55010347D01*
X140084581Y-55019361D01*
X140043463Y-55027195D01*
X140008524Y-55033963D01*
X139979226Y-55039779D01*
X139955031Y-55044758D01*
X139935402Y-55049013D01*
X139919802Y-55052661D01*
X139907691Y-55055812D01*
X139898534Y-55058583D01*
X139891792Y-55061087D01*
X139886930Y-55063440D01*
X139883407Y-55065754D01*
X139882512Y-55066473D01*
X139878700Y-55069959D01*
X139875179Y-55074131D01*
X139871657Y-55079783D01*
X139867843Y-55087711D01*
X139863448Y-55098703D01*
X139858180Y-55113558D01*
X139851748Y-55133069D01*
X139843861Y-55158027D01*
X139834230Y-55189226D01*
X139822562Y-55227462D01*
X139817885Y-55242848D01*
X139804141Y-55287579D01*
X139791935Y-55326266D01*
X139781400Y-55358527D01*
X139772663Y-55383978D01*
X139765856Y-55402236D01*
X139761106Y-55412919D01*
X139759468Y-55415378D01*
X139747605Y-55422126D01*
X139738006Y-55423370D01*
X139732640Y-55421705D01*
X139720007Y-55417009D01*
X139700654Y-55409504D01*
X139675130Y-55399416D01*
X139643981Y-55386969D01*
X139607757Y-55372385D01*
X139567003Y-55355889D01*
X139522271Y-55337706D01*
X139474105Y-55318059D01*
X139423055Y-55297171D01*
X139369669Y-55275269D01*
X139314494Y-55252573D01*
X139258079Y-55229309D01*
X139200970Y-55205702D01*
X139143717Y-55181974D01*
X139086868Y-55158351D01*
X139030969Y-55135055D01*
X138976569Y-55112311D01*
X138958566Y-55104766D01*
X138956154Y-55099992D01*
X138957400Y-55095526D01*
X138959595Y-55089266D01*
X138963674Y-55075577D01*
X138969437Y-55055233D01*
X138976680Y-55029012D01*
X138985198Y-54997690D01*
X138994791Y-54962039D01*
X139005256Y-54922838D01*
X139016389Y-54880863D01*
X139027988Y-54836888D01*
X139039850Y-54791688D01*
X139051774Y-54746042D01*
X139063555Y-54700722D01*
X139074990Y-54656507D01*
X139085877Y-54614170D01*
X139096015Y-54574488D01*
X139105199Y-54538238D01*
X139113228Y-54506193D01*
X139119897Y-54479131D01*
X139125006Y-54457826D01*
X139128349Y-54443055D01*
X139129575Y-54436747D01*
X139134245Y-54393813D01*
X139136064Y-54345371D01*
X139135163Y-54293834D01*
X139131675Y-54241618D01*
X139125731Y-54191139D01*
X139117462Y-54144811D01*
X139112492Y-54123937D01*
X139109383Y-54113853D01*
X139103640Y-54096978D01*
X139095611Y-54074242D01*
X139085645Y-54046574D01*
X139074091Y-54014902D01*
X139061298Y-53980156D01*
X139047614Y-53943265D01*
X139033388Y-53905158D01*
X139018969Y-53866766D01*
X139004706Y-53829014D01*
X138990949Y-53792834D01*
X138978044Y-53759155D01*
X138966342Y-53728906D01*
X138956190Y-53703015D01*
X138947938Y-53682413D01*
X138941935Y-53668027D01*
X138938813Y-53661293D01*
X138933768Y-53651732D01*
X138931051Y-53646194D01*
X138930887Y-53645671D01*
X138933513Y-53642379D01*
X138941159Y-53632779D01*
X138953569Y-53617191D01*
X138970491Y-53595932D01*
X138991672Y-53569319D01*
X139016859Y-53537672D01*
X139045799Y-53501308D01*
X139078238Y-53460546D01*
X139113924Y-53415704D01*
X139152603Y-53367100D01*
X139194022Y-53315051D01*
X139237928Y-53259876D01*
X139284067Y-53201894D01*
X139332187Y-53141420D01*
X139382035Y-53078777D01*
X139433357Y-53014279D01*
X139444216Y-53000633D01*
X139495912Y-52935673D01*
X139546249Y-52872439D01*
X139594969Y-52811255D01*
X139641815Y-52752442D01*
X139686528Y-52696322D01*
X139728853Y-52643220D01*
X139768531Y-52593457D01*
X139805305Y-52547357D01*
X139838917Y-52505241D01*
X139869111Y-52467433D01*
X139895626Y-52434255D01*
X139918209Y-52406031D01*
X139936600Y-52383081D01*
X139950541Y-52365730D01*
X139959776Y-52354300D01*
X139964048Y-52349113D01*
X139964275Y-52348862D01*
X139967488Y-52346033D01*
G37*
X139967488Y-52346033D02*
X139970749Y-52345283D01*
X139975282Y-52347421D01*
X139982314Y-52353255D01*
X139993071Y-52363598D01*
X140005849Y-52376329D01*
X140025609Y-52397073D01*
X140039196Y-52413920D01*
X140047262Y-52427982D01*
X140050459Y-52440374D01*
X140049696Y-52451106D01*
X140046956Y-52456270D01*
X140039699Y-52467950D01*
X140028226Y-52485697D01*
X140012836Y-52509066D01*
X139993829Y-52537608D01*
X139971507Y-52570878D01*
X139946169Y-52608425D01*
X139918115Y-52649805D01*
X139887646Y-52694571D01*
X139855061Y-52742273D01*
X139820662Y-52792465D01*
X139815865Y-52799452D01*
X139782928Y-52847455D01*
X139751347Y-52893565D01*
X139721454Y-52937293D01*
X139693579Y-52978150D01*
X139668055Y-53015648D01*
X139645213Y-53049298D01*
X139625384Y-53078610D01*
X139608901Y-53103097D01*
X139596095Y-53122269D01*
X139587297Y-53135638D01*
X139582840Y-53142713D01*
X139582348Y-53143665D01*
X139581173Y-53148557D01*
X139580628Y-53153962D01*
X139580911Y-53160405D01*
X139582218Y-53168410D01*
X139584749Y-53178501D01*
X139588700Y-53191204D01*
X139594269Y-53207043D01*
X139601654Y-53226540D01*
X139611053Y-53250222D01*
X139622663Y-53278613D01*
X139636681Y-53312237D01*
X139653306Y-53351618D01*
X139672735Y-53397281D01*
X139695166Y-53449749D01*
X139716392Y-53499279D01*
X139744401Y-53564436D01*
X139769261Y-53621931D01*
X139791047Y-53671933D01*
X139809835Y-53714610D01*
X139825700Y-53750128D01*
X139838716Y-53778654D01*
X139848959Y-53800359D01*
X139856505Y-53815407D01*
X139861428Y-53823969D01*
X139862845Y-53825786D01*
X139874098Y-53834613D01*
X139886062Y-53840743D01*
X139886691Y-53840949D01*
X139892659Y-53842301D01*
X139906333Y-53845078D01*
X139927093Y-53849161D01*
X139954325Y-53854434D01*
X139987405Y-53860778D01*
X140025717Y-53868075D01*
X140068643Y-53876208D01*
X140115563Y-53885058D01*
X140165860Y-53894510D01*
X140218913Y-53904442D01*
X140268876Y-53913765D01*
X140324218Y-53924075D01*
X140377598Y-53934022D01*
X140428371Y-53943483D01*
X140475893Y-53952340D01*
X140519518Y-53960473D01*
X140558603Y-53967760D01*
X140592503Y-53974082D01*
X140620573Y-53979318D01*
X140642168Y-53983350D01*
X140656644Y-53986054D01*
X140662938Y-53987235D01*
X140684115Y-53993397D01*
X140698294Y-54002721D01*
X140700049Y-54004755D01*
X140701604Y-54007472D01*
X140702972Y-54011364D01*
X140704165Y-54016924D01*
X140705193Y-54024646D01*
X140706071Y-54035022D01*
X140706809Y-54048545D01*
X140707420Y-54065709D01*
X140707915Y-54087009D01*
X140708306Y-54112934D01*
X140708607Y-54143981D01*
X140708827Y-54180642D01*
X140708981Y-54223408D01*
X140709078Y-54272776D01*
X140709134Y-54329237D01*
X140709156Y-54393284D01*
X140709161Y-54449175D01*
X140709204Y-54521195D01*
X140709289Y-54585225D01*
X140709351Y-54641743D01*
X140709325Y-54691225D01*
X140709145Y-54734147D01*
X140708745Y-54770988D01*
X140708061Y-54802223D01*
X140707026Y-54828328D01*
X140705576Y-54849783D01*
X140703646Y-54867060D01*
X140701168Y-54880639D01*
X140698078Y-54890997D01*
X140694310Y-54898608D01*
X140689801Y-54903952D01*
X140684484Y-54907503D01*
X140678292Y-54909739D01*
X140671161Y-54911137D01*
X140663027Y-54912172D01*
X140653822Y-54913323D01*
X140645269Y-54914717D01*
X140634686Y-54916705D01*
X140616484Y-54920109D01*
X140591366Y-54924800D01*
X140560038Y-54930644D01*
X140523203Y-54937513D01*
X140481565Y-54945272D01*
X140435830Y-54953794D01*
X140386702Y-54962944D01*
X140334883Y-54972592D01*
X140281081Y-54982608D01*
X140250378Y-54988321D01*
X140187501Y-55000038D01*
X140132414Y-55010347D01*
X140084581Y-55019361D01*
X140043463Y-55027195D01*
X140008524Y-55033963D01*
X139979226Y-55039779D01*
X139955031Y-55044758D01*
X139935402Y-55049013D01*
X139919802Y-55052661D01*
X139907691Y-55055812D01*
X139898534Y-55058583D01*
X139891792Y-55061087D01*
X139886930Y-55063440D01*
X139883407Y-55065754D01*
X139882512Y-55066473D01*
X139878700Y-55069959D01*
X139875179Y-55074131D01*
X139871657Y-55079783D01*
X139867843Y-55087711D01*
X139863448Y-55098703D01*
X139858180Y-55113558D01*
X139851748Y-55133069D01*
X139843861Y-55158027D01*
X139834230Y-55189226D01*
X139822562Y-55227462D01*
X139817885Y-55242848D01*
X139804141Y-55287579D01*
X139791935Y-55326266D01*
X139781400Y-55358527D01*
X139772663Y-55383978D01*
X139765856Y-55402236D01*
X139761106Y-55412919D01*
X139759468Y-55415378D01*
X139747605Y-55422126D01*
X139738006Y-55423370D01*
X139732640Y-55421705D01*
X139720007Y-55417009D01*
X139700654Y-55409504D01*
X139675130Y-55399416D01*
X139643981Y-55386969D01*
X139607757Y-55372385D01*
X139567003Y-55355889D01*
X139522271Y-55337706D01*
X139474105Y-55318059D01*
X139423055Y-55297171D01*
X139369669Y-55275269D01*
X139314494Y-55252573D01*
X139258079Y-55229309D01*
X139200970Y-55205702D01*
X139143717Y-55181974D01*
X139086868Y-55158351D01*
X139030969Y-55135055D01*
X138976569Y-55112311D01*
X138958566Y-55104766D01*
X138956154Y-55099992D01*
X138957400Y-55095526D01*
X138959595Y-55089266D01*
X138963674Y-55075577D01*
X138969437Y-55055233D01*
X138976680Y-55029012D01*
X138985198Y-54997690D01*
X138994791Y-54962039D01*
X139005256Y-54922838D01*
X139016389Y-54880863D01*
X139027988Y-54836888D01*
X139039850Y-54791688D01*
X139051774Y-54746042D01*
X139063555Y-54700722D01*
X139074990Y-54656507D01*
X139085877Y-54614170D01*
X139096015Y-54574488D01*
X139105199Y-54538238D01*
X139113228Y-54506193D01*
X139119897Y-54479131D01*
X139125006Y-54457826D01*
X139128349Y-54443055D01*
X139129575Y-54436747D01*
X139134245Y-54393813D01*
X139136064Y-54345371D01*
X139135163Y-54293834D01*
X139131675Y-54241618D01*
X139125731Y-54191139D01*
X139117462Y-54144811D01*
X139112492Y-54123937D01*
X139109383Y-54113853D01*
X139103640Y-54096978D01*
X139095611Y-54074242D01*
X139085645Y-54046574D01*
X139074091Y-54014902D01*
X139061298Y-53980156D01*
X139047614Y-53943265D01*
X139033388Y-53905158D01*
X139018969Y-53866766D01*
X139004706Y-53829014D01*
X138990949Y-53792834D01*
X138978044Y-53759155D01*
X138966342Y-53728906D01*
X138956190Y-53703015D01*
X138947938Y-53682413D01*
X138941935Y-53668027D01*
X138938813Y-53661293D01*
X138933768Y-53651732D01*
X138931051Y-53646194D01*
X138930887Y-53645671D01*
X138933513Y-53642379D01*
X138941159Y-53632779D01*
X138953569Y-53617191D01*
X138970491Y-53595932D01*
X138991672Y-53569319D01*
X139016859Y-53537672D01*
X139045799Y-53501308D01*
X139078238Y-53460546D01*
X139113924Y-53415704D01*
X139152603Y-53367100D01*
X139194022Y-53315051D01*
X139237928Y-53259876D01*
X139284067Y-53201894D01*
X139332187Y-53141420D01*
X139382035Y-53078777D01*
X139433357Y-53014279D01*
X139444216Y-53000633D01*
X139495912Y-52935673D01*
X139546249Y-52872439D01*
X139594969Y-52811255D01*
X139641815Y-52752442D01*
X139686528Y-52696322D01*
X139728853Y-52643220D01*
X139768531Y-52593457D01*
X139805305Y-52547357D01*
X139838917Y-52505241D01*
X139869111Y-52467433D01*
X139895626Y-52434255D01*
X139918209Y-52406031D01*
X139936600Y-52383081D01*
X139950541Y-52365730D01*
X139959776Y-52354300D01*
X139964048Y-52349113D01*
X139964275Y-52348862D01*
X139967488Y-52346033D01*
G36*
X135314747Y-56999054D02*
G01*
X135324776Y-56990962D01*
X135340647Y-56978223D01*
X135361969Y-56961146D01*
X135388352Y-56940044D01*
X135419404Y-56915229D01*
X135454733Y-56887013D01*
X135493950Y-56855707D01*
X135536660Y-56821623D01*
X135582476Y-56785072D01*
X135631003Y-56746366D01*
X135681853Y-56705818D01*
X135734632Y-56663738D01*
X135788952Y-56620438D01*
X135844418Y-56576230D01*
X135900641Y-56531427D01*
X135957230Y-56486339D01*
X136013792Y-56441278D01*
X136069938Y-56396557D01*
X136125274Y-56352486D01*
X136179412Y-56309377D01*
X136231958Y-56267542D01*
X136282524Y-56227294D01*
X136330715Y-56188942D01*
X136376142Y-56152800D01*
X136418413Y-56119179D01*
X136457137Y-56088390D01*
X136491923Y-56060747D01*
X136522379Y-56036558D01*
X136548115Y-56016138D01*
X136568738Y-55999798D01*
X136583859Y-55987848D01*
X136593085Y-55980601D01*
X136595524Y-55978719D01*
X136605437Y-55972282D01*
X136612615Y-55971274D01*
X136619825Y-55974823D01*
X136625949Y-55977769D01*
X136639114Y-55983310D01*
X136658423Y-55991105D01*
X136682977Y-56000812D01*
X136711877Y-56012091D01*
X136744223Y-56024599D01*
X136779119Y-56037996D01*
X136815664Y-56051939D01*
X136852961Y-56066089D01*
X136890109Y-56080103D01*
X136926210Y-56093642D01*
X136960366Y-56106362D01*
X136991677Y-56117922D01*
X137019245Y-56127982D01*
X137042172Y-56136201D01*
X137059557Y-56142236D01*
X137067825Y-56144940D01*
X137107569Y-56155167D01*
X137153374Y-56163334D01*
X137203056Y-56169286D01*
X137254427Y-56172871D01*
X137305300Y-56173940D01*
X137353490Y-56172339D01*
X137396811Y-56167917D01*
X137397419Y-56167828D01*
X137406392Y-56166027D01*
X137422732Y-56162256D01*
X137445625Y-56156722D01*
X137474257Y-56149638D01*
X137507815Y-56141216D01*
X137545486Y-56131667D01*
X137586455Y-56121204D01*
X137629908Y-56110037D01*
X137675034Y-56098378D01*
X137721017Y-56086437D01*
X137767045Y-56074428D01*
X137812304Y-56062561D01*
X137855980Y-56051048D01*
X137897260Y-56040100D01*
X137935329Y-56029929D01*
X137969376Y-56020746D01*
X137998584Y-56012763D01*
X138022143Y-56006191D01*
X138039236Y-56001242D01*
X138044951Y-55999492D01*
X138065222Y-55993079D01*
X138225778Y-56380318D01*
X138254183Y-56448968D01*
X138280035Y-56511752D01*
X138303256Y-56568462D01*
X138323760Y-56618893D01*
X138341466Y-56662838D01*
X138356292Y-56700091D01*
X138368155Y-56730446D01*
X138376973Y-56753696D01*
X138382663Y-56769635D01*
X138385142Y-56778057D01*
X138385245Y-56779125D01*
X138381594Y-56790861D01*
X138376476Y-56798370D01*
X138370837Y-56801256D01*
X138357987Y-56806247D01*
X138338831Y-56813040D01*
X138314276Y-56821330D01*
X138285229Y-56830813D01*
X138252594Y-56841186D01*
X138217277Y-56852145D01*
X138205290Y-56855807D01*
X138162784Y-56868791D01*
X138127640Y-56879691D01*
X138099102Y-56888825D01*
X138076410Y-56896507D01*
X138058808Y-56903057D01*
X138045539Y-56908793D01*
X138035846Y-56914028D01*
X138028970Y-56919083D01*
X138024156Y-56924272D01*
X138020646Y-56929915D01*
X138018726Y-56933926D01*
X138017348Y-56939399D01*
X138014548Y-56952604D01*
X138010441Y-56972946D01*
X138005140Y-56999831D01*
X137998761Y-57032664D01*
X137991415Y-57070852D01*
X137983219Y-57113800D01*
X137974286Y-57160914D01*
X137964731Y-57211598D01*
X137954668Y-57265259D01*
X137944211Y-57321303D01*
X137941828Y-57334113D01*
X137929375Y-57401077D01*
X137918353Y-57460214D01*
X137908639Y-57512021D01*
X137900112Y-57556994D01*
X137892652Y-57595630D01*
X137886136Y-57628426D01*
X137880442Y-57655877D01*
X137875450Y-57678481D01*
X137871037Y-57696734D01*
X137867084Y-57711131D01*
X137863468Y-57722172D01*
X137860066Y-57730351D01*
X137856760Y-57736165D01*
X137853425Y-57740111D01*
X137849942Y-57742684D01*
X137846188Y-57744383D01*
X137842043Y-57745703D01*
X137841075Y-57745989D01*
X137835166Y-57746500D01*
X137821499Y-57746967D01*
X137800780Y-57747389D01*
X137773713Y-57747766D01*
X137741003Y-57748101D01*
X137703356Y-57748391D01*
X137661474Y-57748637D01*
X137616063Y-57748838D01*
X137567829Y-57748996D01*
X137517475Y-57749108D01*
X137465706Y-57749178D01*
X137413228Y-57749202D01*
X137360744Y-57749183D01*
X137308960Y-57749118D01*
X137258580Y-57749009D01*
X137210310Y-57748856D01*
X137164853Y-57748659D01*
X137122915Y-57748417D01*
X137085200Y-57748131D01*
X137052413Y-57747800D01*
X137025258Y-57747424D01*
X137004442Y-57747004D01*
X136990667Y-57746540D01*
X136984640Y-57746030D01*
X136984601Y-57746019D01*
X136975108Y-57742432D01*
X136967525Y-57737407D01*
X136961330Y-57729813D01*
X136956002Y-57718512D01*
X136951022Y-57702370D01*
X136945867Y-57680253D01*
X136940018Y-57651025D01*
X136939307Y-57647311D01*
X136936119Y-57630495D01*
X136931548Y-57606212D01*
X136925755Y-57575323D01*
X136918901Y-57538687D01*
X136911146Y-57497161D01*
X136902649Y-57451605D01*
X136893572Y-57402881D01*
X136884075Y-57351844D01*
X136874317Y-57299355D01*
X136865625Y-57252545D01*
X136856107Y-57201476D01*
X136846921Y-57152588D01*
X136838199Y-57106556D01*
X136830071Y-57064054D01*
X136822669Y-57025757D01*
X136816125Y-56992341D01*
X136810569Y-56964480D01*
X136806133Y-56942850D01*
X136802948Y-56928125D01*
X136801146Y-56920980D01*
X136801040Y-56920693D01*
X136794684Y-56908536D01*
X136787261Y-56898721D01*
X136781836Y-56895508D01*
X136769310Y-56889347D01*
X136750402Y-56880543D01*
X136725826Y-56869403D01*
X136696298Y-56856234D01*
X136662536Y-56841340D01*
X136625255Y-56825028D01*
X136585172Y-56807606D01*
X136543002Y-56789377D01*
X136499462Y-56770649D01*
X136455268Y-56751729D01*
X136411137Y-56732921D01*
X136367784Y-56714533D01*
X136325926Y-56696869D01*
X136286280Y-56680238D01*
X136249560Y-56664945D01*
X136216484Y-56651295D01*
X136187767Y-56639595D01*
X136164127Y-56630151D01*
X136146279Y-56623270D01*
X136134939Y-56619257D01*
X136131302Y-56618323D01*
X136118568Y-56617979D01*
X136108466Y-56618957D01*
X136107391Y-56619232D01*
X136102881Y-56621914D01*
X136091888Y-56629066D01*
X136074900Y-56640359D01*
X136052408Y-56655458D01*
X136024898Y-56674033D01*
X135992864Y-56695753D01*
X135956791Y-56720284D01*
X135917169Y-56747297D01*
X135874487Y-56776458D01*
X135829235Y-56807436D01*
X135781901Y-56839899D01*
X135762677Y-56853100D01*
X135701222Y-56895271D01*
X135646456Y-56932754D01*
X135598130Y-56965715D01*
X135555995Y-56994319D01*
X135519802Y-57018732D01*
X135489304Y-57039122D01*
X135464252Y-57055652D01*
X135444395Y-57068489D01*
X135429488Y-57077800D01*
X135419281Y-57083751D01*
X135413525Y-57086507D01*
X135412699Y-57086725D01*
X135401808Y-57087571D01*
X135391773Y-57085786D01*
X135381194Y-57080552D01*
X135368671Y-57071057D01*
X135352802Y-57056483D01*
X135341303Y-57045174D01*
X135326003Y-57029816D01*
X135315920Y-57019243D01*
X135310238Y-57012301D01*
X135308140Y-57007835D01*
X135308812Y-57004687D01*
X135310952Y-57002185D01*
X135314747Y-56999054D01*
G37*
X135314747Y-56999054D02*
X135324776Y-56990962D01*
X135340647Y-56978223D01*
X135361969Y-56961146D01*
X135388352Y-56940044D01*
X135419404Y-56915229D01*
X135454733Y-56887013D01*
X135493950Y-56855707D01*
X135536660Y-56821623D01*
X135582476Y-56785072D01*
X135631003Y-56746366D01*
X135681853Y-56705818D01*
X135734632Y-56663738D01*
X135788952Y-56620438D01*
X135844418Y-56576230D01*
X135900641Y-56531427D01*
X135957230Y-56486339D01*
X136013792Y-56441278D01*
X136069938Y-56396557D01*
X136125274Y-56352486D01*
X136179412Y-56309377D01*
X136231958Y-56267542D01*
X136282524Y-56227294D01*
X136330715Y-56188942D01*
X136376142Y-56152800D01*
X136418413Y-56119179D01*
X136457137Y-56088390D01*
X136491923Y-56060747D01*
X136522379Y-56036558D01*
X136548115Y-56016138D01*
X136568738Y-55999798D01*
X136583859Y-55987848D01*
X136593085Y-55980601D01*
X136595524Y-55978719D01*
X136605437Y-55972282D01*
X136612615Y-55971274D01*
X136619825Y-55974823D01*
X136625949Y-55977769D01*
X136639114Y-55983310D01*
X136658423Y-55991105D01*
X136682977Y-56000812D01*
X136711877Y-56012091D01*
X136744223Y-56024599D01*
X136779119Y-56037996D01*
X136815664Y-56051939D01*
X136852961Y-56066089D01*
X136890109Y-56080103D01*
X136926210Y-56093642D01*
X136960366Y-56106362D01*
X136991677Y-56117922D01*
X137019245Y-56127982D01*
X137042172Y-56136201D01*
X137059557Y-56142236D01*
X137067825Y-56144940D01*
X137107569Y-56155167D01*
X137153374Y-56163334D01*
X137203056Y-56169286D01*
X137254427Y-56172871D01*
X137305300Y-56173940D01*
X137353490Y-56172339D01*
X137396811Y-56167917D01*
X137397419Y-56167828D01*
X137406392Y-56166027D01*
X137422732Y-56162256D01*
X137445625Y-56156722D01*
X137474257Y-56149638D01*
X137507815Y-56141216D01*
X137545486Y-56131667D01*
X137586455Y-56121204D01*
X137629908Y-56110037D01*
X137675034Y-56098378D01*
X137721017Y-56086437D01*
X137767045Y-56074428D01*
X137812304Y-56062561D01*
X137855980Y-56051048D01*
X137897260Y-56040100D01*
X137935329Y-56029929D01*
X137969376Y-56020746D01*
X137998584Y-56012763D01*
X138022143Y-56006191D01*
X138039236Y-56001242D01*
X138044951Y-55999492D01*
X138065222Y-55993079D01*
X138225778Y-56380318D01*
X138254183Y-56448968D01*
X138280035Y-56511752D01*
X138303256Y-56568462D01*
X138323760Y-56618893D01*
X138341466Y-56662838D01*
X138356292Y-56700091D01*
X138368155Y-56730446D01*
X138376973Y-56753696D01*
X138382663Y-56769635D01*
X138385142Y-56778057D01*
X138385245Y-56779125D01*
X138381594Y-56790861D01*
X138376476Y-56798370D01*
X138370837Y-56801256D01*
X138357987Y-56806247D01*
X138338831Y-56813040D01*
X138314276Y-56821330D01*
X138285229Y-56830813D01*
X138252594Y-56841186D01*
X138217277Y-56852145D01*
X138205290Y-56855807D01*
X138162784Y-56868791D01*
X138127640Y-56879691D01*
X138099102Y-56888825D01*
X138076410Y-56896507D01*
X138058808Y-56903057D01*
X138045539Y-56908793D01*
X138035846Y-56914028D01*
X138028970Y-56919083D01*
X138024156Y-56924272D01*
X138020646Y-56929915D01*
X138018726Y-56933926D01*
X138017348Y-56939399D01*
X138014548Y-56952604D01*
X138010441Y-56972946D01*
X138005140Y-56999831D01*
X137998761Y-57032664D01*
X137991415Y-57070852D01*
X137983219Y-57113800D01*
X137974286Y-57160914D01*
X137964731Y-57211598D01*
X137954668Y-57265259D01*
X137944211Y-57321303D01*
X137941828Y-57334113D01*
X137929375Y-57401077D01*
X137918353Y-57460214D01*
X137908639Y-57512021D01*
X137900112Y-57556994D01*
X137892652Y-57595630D01*
X137886136Y-57628426D01*
X137880442Y-57655877D01*
X137875450Y-57678481D01*
X137871037Y-57696734D01*
X137867084Y-57711131D01*
X137863468Y-57722172D01*
X137860066Y-57730351D01*
X137856760Y-57736165D01*
X137853425Y-57740111D01*
X137849942Y-57742684D01*
X137846188Y-57744383D01*
X137842043Y-57745703D01*
X137841075Y-57745989D01*
X137835166Y-57746500D01*
X137821499Y-57746967D01*
X137800780Y-57747389D01*
X137773713Y-57747766D01*
X137741003Y-57748101D01*
X137703356Y-57748391D01*
X137661474Y-57748637D01*
X137616063Y-57748838D01*
X137567829Y-57748996D01*
X137517475Y-57749108D01*
X137465706Y-57749178D01*
X137413228Y-57749202D01*
X137360744Y-57749183D01*
X137308960Y-57749118D01*
X137258580Y-57749009D01*
X137210310Y-57748856D01*
X137164853Y-57748659D01*
X137122915Y-57748417D01*
X137085200Y-57748131D01*
X137052413Y-57747800D01*
X137025258Y-57747424D01*
X137004442Y-57747004D01*
X136990667Y-57746540D01*
X136984640Y-57746030D01*
X136984601Y-57746019D01*
X136975108Y-57742432D01*
X136967525Y-57737407D01*
X136961330Y-57729813D01*
X136956002Y-57718512D01*
X136951022Y-57702370D01*
X136945867Y-57680253D01*
X136940018Y-57651025D01*
X136939307Y-57647311D01*
X136936119Y-57630495D01*
X136931548Y-57606212D01*
X136925755Y-57575323D01*
X136918901Y-57538687D01*
X136911146Y-57497161D01*
X136902649Y-57451605D01*
X136893572Y-57402881D01*
X136884075Y-57351844D01*
X136874317Y-57299355D01*
X136865625Y-57252545D01*
X136856107Y-57201476D01*
X136846921Y-57152588D01*
X136838199Y-57106556D01*
X136830071Y-57064054D01*
X136822669Y-57025757D01*
X136816125Y-56992341D01*
X136810569Y-56964480D01*
X136806133Y-56942850D01*
X136802948Y-56928125D01*
X136801146Y-56920980D01*
X136801040Y-56920693D01*
X136794684Y-56908536D01*
X136787261Y-56898721D01*
X136781836Y-56895508D01*
X136769310Y-56889347D01*
X136750402Y-56880543D01*
X136725826Y-56869403D01*
X136696298Y-56856234D01*
X136662536Y-56841340D01*
X136625255Y-56825028D01*
X136585172Y-56807606D01*
X136543002Y-56789377D01*
X136499462Y-56770649D01*
X136455268Y-56751729D01*
X136411137Y-56732921D01*
X136367784Y-56714533D01*
X136325926Y-56696869D01*
X136286280Y-56680238D01*
X136249560Y-56664945D01*
X136216484Y-56651295D01*
X136187767Y-56639595D01*
X136164127Y-56630151D01*
X136146279Y-56623270D01*
X136134939Y-56619257D01*
X136131302Y-56618323D01*
X136118568Y-56617979D01*
X136108466Y-56618957D01*
X136107391Y-56619232D01*
X136102881Y-56621914D01*
X136091888Y-56629066D01*
X136074900Y-56640359D01*
X136052408Y-56655458D01*
X136024898Y-56674033D01*
X135992864Y-56695753D01*
X135956791Y-56720284D01*
X135917169Y-56747297D01*
X135874487Y-56776458D01*
X135829235Y-56807436D01*
X135781901Y-56839899D01*
X135762677Y-56853100D01*
X135701222Y-56895271D01*
X135646456Y-56932754D01*
X135598130Y-56965715D01*
X135555995Y-56994319D01*
X135519802Y-57018732D01*
X135489304Y-57039122D01*
X135464252Y-57055652D01*
X135444395Y-57068489D01*
X135429488Y-57077800D01*
X135419281Y-57083751D01*
X135413525Y-57086507D01*
X135412699Y-57086725D01*
X135401808Y-57087571D01*
X135391773Y-57085786D01*
X135381194Y-57080552D01*
X135368671Y-57071057D01*
X135352802Y-57056483D01*
X135341303Y-57045174D01*
X135326003Y-57029816D01*
X135315920Y-57019243D01*
X135310238Y-57012301D01*
X135308140Y-57007835D01*
X135308812Y-57004687D01*
X135310952Y-57002185D01*
X135314747Y-56999054D01*
D12*
%TO.C,SW1*%
X120976000Y-60830000D02*
G75*
G03*
X120976000Y-60830000I-1000000J0D01*
G01*
X117376000Y-60830000D02*
X117376000Y-58230000D01*
X121376000Y-58230000D02*
X118576000Y-58230000D01*
X122576000Y-63430000D02*
X122576000Y-58230000D01*
X118576000Y-63430000D02*
X121376000Y-63430000D01*
X117376000Y-60830000D02*
X117376000Y-63430000D01*
%TO.C,J5*%
X112146000Y-54160000D02*
X112146000Y-52830000D01*
X113476000Y-54160000D02*
X112146000Y-54160000D01*
X112146000Y-51560000D02*
X112146000Y-48960000D01*
X114746000Y-51560000D02*
X112146000Y-51560000D01*
X114746000Y-54160000D02*
X114746000Y-51560000D01*
X112146000Y-48960000D02*
X130046000Y-48960000D01*
X114746000Y-54160000D02*
X130046000Y-54160000D01*
X130046000Y-54160000D02*
X130046000Y-48960000D01*
%TO.C,R2*%
X135596000Y-46176359D02*
X135596000Y-46483641D01*
X136356000Y-46176359D02*
X136356000Y-46483641D01*
%TO.C,R1*%
X135453500Y-43092742D02*
X135453500Y-43567258D01*
X136498500Y-43092742D02*
X136498500Y-43567258D01*
%TO.C,Q3*%
X139736000Y-48910000D02*
X138276000Y-48910000D01*
X139736000Y-45750000D02*
X137576000Y-45750000D01*
X139736000Y-45750000D02*
X139736000Y-46680000D01*
X139736000Y-48910000D02*
X139736000Y-47980000D01*
%TO.C,Q2*%
X138216000Y-41750000D02*
X139676000Y-41750000D01*
X138216000Y-44910000D02*
X140376000Y-44910000D01*
X138216000Y-44910000D02*
X138216000Y-43980000D01*
X138216000Y-41750000D02*
X138216000Y-42680000D01*
%TO.C,Q1*%
X132216000Y-41750000D02*
X133676000Y-41750000D01*
X132216000Y-44910000D02*
X134376000Y-44910000D01*
X132216000Y-44910000D02*
X132216000Y-43980000D01*
X132216000Y-41750000D02*
X132216000Y-42680000D01*
%TO.C,U1*%
X110590000Y-66448000D02*
X110590000Y-84348000D01*
X141310000Y-66448000D02*
X110590000Y-66448000D01*
X141310000Y-84348000D02*
X141310000Y-66448000D01*
X110590000Y-84348000D02*
X141310000Y-84348000D01*
X110650000Y-68938000D02*
X110650000Y-74398000D01*
X141250000Y-68938000D02*
X110650000Y-68938000D01*
X141250000Y-81858000D02*
X141250000Y-68938000D01*
X110650000Y-81858000D02*
X141250000Y-81858000D01*
X110650000Y-76398000D02*
X110650000Y-81858000D01*
X110650000Y-74398000D02*
G75*
G02*
X110650000Y-76398000I0J-1000000D01*
G01*
%TO.C,J4*%
X145116000Y-51190000D02*
X143901000Y-51190000D01*
X149076000Y-51130000D02*
X151336000Y-51130000D01*
X149076000Y-50630000D02*
X151336000Y-50630000D01*
X147476000Y-42030000D02*
X147476000Y-41030000D01*
X149076000Y-42030000D02*
X147476000Y-42030000D01*
X149076000Y-41030000D02*
X149076000Y-42030000D01*
X147476000Y-41030000D02*
X149076000Y-41030000D01*
X147476000Y-50630000D02*
X147476000Y-51630000D01*
X149076000Y-50630000D02*
X147476000Y-50630000D01*
X149076000Y-51630000D02*
X149076000Y-50630000D01*
X147476000Y-51630000D02*
X149076000Y-51630000D01*
X145116000Y-40270000D02*
X145116000Y-41190000D01*
X145116000Y-52390000D02*
X145116000Y-51470000D01*
X146976000Y-42830000D02*
X151336000Y-42830000D01*
X146976000Y-49830000D02*
X146976000Y-42830000D01*
X151336000Y-49830000D02*
X146976000Y-49830000D01*
X145116000Y-41190000D02*
X145116000Y-41470000D01*
X143516000Y-41190000D02*
X145116000Y-41190000D01*
X143516000Y-40270000D02*
X143516000Y-41190000D01*
X151336000Y-40270000D02*
X143516000Y-40270000D01*
X151336000Y-52390000D02*
X151336000Y-40270000D01*
X143516000Y-52390000D02*
X151336000Y-52390000D01*
X143516000Y-51470000D02*
X143516000Y-52390000D01*
X145116000Y-51470000D02*
X143516000Y-51470000D01*
X145116000Y-51190000D02*
X145116000Y-51470000D01*
%TO.C,J3*%
X128836000Y-44190000D02*
X128836000Y-45405000D01*
X128776000Y-40230000D02*
X128776000Y-37970000D01*
X128276000Y-40230000D02*
X128276000Y-37970000D01*
X117676000Y-41830000D02*
X116676000Y-41830000D01*
X117676000Y-40230000D02*
X117676000Y-41830000D01*
X116676000Y-40230000D02*
X117676000Y-40230000D01*
X116676000Y-41830000D02*
X116676000Y-40230000D01*
X128276000Y-41830000D02*
X129276000Y-41830000D01*
X128276000Y-40230000D02*
X128276000Y-41830000D01*
X129276000Y-40230000D02*
X128276000Y-40230000D01*
X129276000Y-41830000D02*
X129276000Y-40230000D01*
X115916000Y-44190000D02*
X116836000Y-44190000D01*
X130036000Y-44190000D02*
X129116000Y-44190000D01*
X118476000Y-42330000D02*
X118476000Y-37970000D01*
X127476000Y-42330000D02*
X118476000Y-42330000D01*
X127476000Y-37970000D02*
X127476000Y-42330000D01*
X116836000Y-44190000D02*
X117116000Y-44190000D01*
X116836000Y-45790000D02*
X116836000Y-44190000D01*
X115916000Y-45790000D02*
X116836000Y-45790000D01*
X115916000Y-37970000D02*
X115916000Y-45790000D01*
X130036000Y-37970000D02*
X115916000Y-37970000D01*
X130036000Y-45790000D02*
X130036000Y-37970000D01*
X129116000Y-45790000D02*
X130036000Y-45790000D01*
X129116000Y-44190000D02*
X129116000Y-45790000D01*
X128836000Y-44190000D02*
X129116000Y-44190000D01*
%TO.C,J2*%
X145140000Y-82860000D02*
X143925000Y-82860000D01*
X149100000Y-82800000D02*
X151360000Y-82800000D01*
X149100000Y-82300000D02*
X151360000Y-82300000D01*
X147500000Y-71700000D02*
X147500000Y-70700000D01*
X149100000Y-71700000D02*
X147500000Y-71700000D01*
X149100000Y-70700000D02*
X149100000Y-71700000D01*
X147500000Y-70700000D02*
X149100000Y-70700000D01*
X147500000Y-82300000D02*
X147500000Y-83300000D01*
X149100000Y-82300000D02*
X147500000Y-82300000D01*
X149100000Y-83300000D02*
X149100000Y-82300000D01*
X147500000Y-83300000D02*
X149100000Y-83300000D01*
X145140000Y-69940000D02*
X145140000Y-70860000D01*
X145140000Y-84060000D02*
X145140000Y-83140000D01*
X147000000Y-72500000D02*
X151360000Y-72500000D01*
X147000000Y-81500000D02*
X147000000Y-72500000D01*
X151360000Y-81500000D02*
X147000000Y-81500000D01*
X145140000Y-70860000D02*
X145140000Y-71140000D01*
X143540000Y-70860000D02*
X145140000Y-70860000D01*
X143540000Y-69940000D02*
X143540000Y-70860000D01*
X151360000Y-69940000D02*
X143540000Y-69940000D01*
X151360000Y-84060000D02*
X151360000Y-69940000D01*
X143540000Y-84060000D02*
X151360000Y-84060000D01*
X143540000Y-83140000D02*
X143540000Y-84060000D01*
X145140000Y-83140000D02*
X143540000Y-83140000D01*
X145140000Y-82860000D02*
X145140000Y-83140000D01*
%TO.C,J1*%
X145140000Y-66860000D02*
X143925000Y-66860000D01*
X149100000Y-66800000D02*
X151360000Y-66800000D01*
X149100000Y-66300000D02*
X151360000Y-66300000D01*
X147500000Y-55700000D02*
X147500000Y-54700000D01*
X149100000Y-55700000D02*
X147500000Y-55700000D01*
X149100000Y-54700000D02*
X149100000Y-55700000D01*
X147500000Y-54700000D02*
X149100000Y-54700000D01*
X147500000Y-66300000D02*
X147500000Y-67300000D01*
X149100000Y-66300000D02*
X147500000Y-66300000D01*
X149100000Y-67300000D02*
X149100000Y-66300000D01*
X147500000Y-67300000D02*
X149100000Y-67300000D01*
X145140000Y-53940000D02*
X145140000Y-54860000D01*
X145140000Y-68060000D02*
X145140000Y-67140000D01*
X147000000Y-56500000D02*
X151360000Y-56500000D01*
X147000000Y-65500000D02*
X147000000Y-56500000D01*
X151360000Y-65500000D02*
X147000000Y-65500000D01*
X145140000Y-54860000D02*
X145140000Y-55140000D01*
X143540000Y-54860000D02*
X145140000Y-54860000D01*
X143540000Y-53940000D02*
X143540000Y-54860000D01*
X151360000Y-53940000D02*
X143540000Y-53940000D01*
X151360000Y-68060000D02*
X151360000Y-53940000D01*
X143540000Y-68060000D02*
X151360000Y-68060000D01*
X143540000Y-67140000D02*
X143540000Y-68060000D01*
X145140000Y-67140000D02*
X143540000Y-67140000D01*
X145140000Y-66860000D02*
X145140000Y-67140000D01*
%TO.C,SW1*%
D10*
X123779261Y-61902333D02*
X123826880Y-61759476D01*
X123826880Y-61521380D01*
X123779261Y-61426142D01*
X123731642Y-61378523D01*
X123636404Y-61330904D01*
X123541166Y-61330904D01*
X123445928Y-61378523D01*
X123398309Y-61426142D01*
X123350690Y-61521380D01*
X123303071Y-61711857D01*
X123255452Y-61807095D01*
X123207833Y-61854714D01*
X123112595Y-61902333D01*
X123017357Y-61902333D01*
X122922119Y-61854714D01*
X122874500Y-61807095D01*
X122826880Y-61711857D01*
X122826880Y-61473761D01*
X122874500Y-61330904D01*
X122826880Y-60997571D02*
X123826880Y-60759476D01*
X123112595Y-60569000D01*
X123826880Y-60378523D01*
X122826880Y-60140428D01*
X123826880Y-59235666D02*
X123826880Y-59807095D01*
X123826880Y-59521380D02*
X122826880Y-59521380D01*
X122969738Y-59616619D01*
X123064976Y-59711857D01*
X123112595Y-59807095D01*
X116968880Y-62275380D02*
X116492690Y-62608714D01*
X116968880Y-62846809D02*
X115968880Y-62846809D01*
X115968880Y-62465857D01*
X116016500Y-62370619D01*
X116064119Y-62323000D01*
X116159357Y-62275380D01*
X116302214Y-62275380D01*
X116397452Y-62323000D01*
X116445071Y-62370619D01*
X116492690Y-62465857D01*
X116492690Y-62846809D01*
X116445071Y-61846809D02*
X116445071Y-61513476D01*
X116968880Y-61370619D02*
X116968880Y-61846809D01*
X115968880Y-61846809D01*
X115968880Y-61370619D01*
X116921261Y-60989666D02*
X116968880Y-60846809D01*
X116968880Y-60608714D01*
X116921261Y-60513476D01*
X116873642Y-60465857D01*
X116778404Y-60418238D01*
X116683166Y-60418238D01*
X116587928Y-60465857D01*
X116540309Y-60513476D01*
X116492690Y-60608714D01*
X116445071Y-60799190D01*
X116397452Y-60894428D01*
X116349833Y-60942047D01*
X116254595Y-60989666D01*
X116159357Y-60989666D01*
X116064119Y-60942047D01*
X116016500Y-60894428D01*
X115968880Y-60799190D01*
X115968880Y-60561095D01*
X116016500Y-60418238D01*
X116445071Y-59989666D02*
X116445071Y-59656333D01*
X116968880Y-59513476D02*
X116968880Y-59989666D01*
X115968880Y-59989666D01*
X115968880Y-59513476D01*
X115968880Y-59227761D02*
X115968880Y-58656333D01*
X116968880Y-58942047D02*
X115968880Y-58942047D01*
X118337904Y-62601428D02*
X118337904Y-63058571D01*
X118337904Y-62830000D02*
X117537904Y-62830000D01*
X117652190Y-62906190D01*
X117728380Y-62982380D01*
X117766476Y-63058571D01*
%TO.C,J5*%
X110598380Y-51893333D02*
X111312666Y-51893333D01*
X111455523Y-51940952D01*
X111550761Y-52036190D01*
X111598380Y-52179047D01*
X111598380Y-52274285D01*
X110598380Y-50940952D02*
X110598380Y-51417142D01*
X111074571Y-51464761D01*
X111026952Y-51417142D01*
X110979333Y-51321904D01*
X110979333Y-51083809D01*
X111026952Y-50988571D01*
X111074571Y-50940952D01*
X111169809Y-50893333D01*
X111407904Y-50893333D01*
X111503142Y-50940952D01*
X111550761Y-50988571D01*
X111598380Y-51083809D01*
X111598380Y-51321904D01*
X111550761Y-51417142D01*
X111503142Y-51464761D01*
X131212666Y-54464761D02*
X131212666Y-53988571D01*
X131498380Y-54560000D02*
X130498380Y-54226666D01*
X131498380Y-53893333D01*
X130498380Y-53560000D02*
X131307904Y-53560000D01*
X131403142Y-53512380D01*
X131450761Y-53464761D01*
X131498380Y-53369523D01*
X131498380Y-53179047D01*
X131450761Y-53083809D01*
X131403142Y-53036190D01*
X131307904Y-52988571D01*
X130498380Y-52988571D01*
X130498380Y-52607619D02*
X131498380Y-51940952D01*
X130498380Y-51940952D02*
X131498380Y-52607619D01*
X131498380Y-50798095D02*
X130498380Y-50798095D01*
X130450761Y-49607619D02*
X131736476Y-50464761D01*
X130498380Y-49083809D02*
X130498380Y-48893333D01*
X130546000Y-48798095D01*
X130641238Y-48702857D01*
X130831714Y-48655238D01*
X131165047Y-48655238D01*
X131355523Y-48702857D01*
X131450761Y-48798095D01*
X131498380Y-48893333D01*
X131498380Y-49083809D01*
X131450761Y-49179047D01*
X131355523Y-49274285D01*
X131165047Y-49321904D01*
X130831714Y-49321904D01*
X130641238Y-49274285D01*
X130546000Y-49179047D01*
X130498380Y-49083809D01*
%TO.C,R2*%
X135877666Y-48611904D02*
X135611000Y-48230952D01*
X135420523Y-48611904D02*
X135420523Y-47811904D01*
X135725285Y-47811904D01*
X135801476Y-47850000D01*
X135839571Y-47888095D01*
X135877666Y-47964285D01*
X135877666Y-48078571D01*
X135839571Y-48154761D01*
X135801476Y-48192857D01*
X135725285Y-48230952D01*
X135420523Y-48230952D01*
X136182428Y-47888095D02*
X136220523Y-47850000D01*
X136296714Y-47811904D01*
X136487190Y-47811904D01*
X136563380Y-47850000D01*
X136601476Y-47888095D01*
X136639571Y-47964285D01*
X136639571Y-48040476D01*
X136601476Y-48154761D01*
X136144333Y-48611904D01*
X136639571Y-48611904D01*
%TO.C,R1*%
X135877666Y-41626904D02*
X135611000Y-41245952D01*
X135420523Y-41626904D02*
X135420523Y-40826904D01*
X135725285Y-40826904D01*
X135801476Y-40865000D01*
X135839571Y-40903095D01*
X135877666Y-40979285D01*
X135877666Y-41093571D01*
X135839571Y-41169761D01*
X135801476Y-41207857D01*
X135725285Y-41245952D01*
X135420523Y-41245952D01*
X136639571Y-41626904D02*
X136182428Y-41626904D01*
X136411000Y-41626904D02*
X136411000Y-40826904D01*
X136334809Y-40941190D01*
X136258619Y-41017380D01*
X136182428Y-41055476D01*
%TO.C,Q3*%
X138880761Y-50702619D02*
X138785523Y-50655000D01*
X138690285Y-50559761D01*
X138547428Y-50416904D01*
X138452190Y-50369285D01*
X138356952Y-50369285D01*
X138404571Y-50607380D02*
X138309333Y-50559761D01*
X138214095Y-50464523D01*
X138166476Y-50274047D01*
X138166476Y-49940714D01*
X138214095Y-49750238D01*
X138309333Y-49655000D01*
X138404571Y-49607380D01*
X138595047Y-49607380D01*
X138690285Y-49655000D01*
X138785523Y-49750238D01*
X138833142Y-49940714D01*
X138833142Y-50274047D01*
X138785523Y-50464523D01*
X138690285Y-50559761D01*
X138595047Y-50607380D01*
X138404571Y-50607380D01*
X139166476Y-49607380D02*
X139785523Y-49607380D01*
X139452190Y-49988333D01*
X139595047Y-49988333D01*
X139690285Y-50035952D01*
X139737904Y-50083571D01*
X139785523Y-50178809D01*
X139785523Y-50416904D01*
X139737904Y-50512142D01*
X139690285Y-50559761D01*
X139595047Y-50607380D01*
X139309333Y-50607380D01*
X139214095Y-50559761D01*
X139166476Y-50512142D01*
%TO.C,Q2*%
X138899809Y-41449095D02*
X138823619Y-41411000D01*
X138747428Y-41334809D01*
X138633142Y-41220523D01*
X138556952Y-41182428D01*
X138480761Y-41182428D01*
X138518857Y-41372904D02*
X138442666Y-41334809D01*
X138366476Y-41258619D01*
X138328380Y-41106238D01*
X138328380Y-40839571D01*
X138366476Y-40687190D01*
X138442666Y-40611000D01*
X138518857Y-40572904D01*
X138671238Y-40572904D01*
X138747428Y-40611000D01*
X138823619Y-40687190D01*
X138861714Y-40839571D01*
X138861714Y-41106238D01*
X138823619Y-41258619D01*
X138747428Y-41334809D01*
X138671238Y-41372904D01*
X138518857Y-41372904D01*
X139166476Y-40649095D02*
X139204571Y-40611000D01*
X139280761Y-40572904D01*
X139471238Y-40572904D01*
X139547428Y-40611000D01*
X139585523Y-40649095D01*
X139623619Y-40725285D01*
X139623619Y-40801476D01*
X139585523Y-40915761D01*
X139128380Y-41372904D01*
X139623619Y-41372904D01*
%TO.C,Q1*%
X132899809Y-41385595D02*
X132823619Y-41347500D01*
X132747428Y-41271309D01*
X132633142Y-41157023D01*
X132556952Y-41118928D01*
X132480761Y-41118928D01*
X132518857Y-41309404D02*
X132442666Y-41271309D01*
X132366476Y-41195119D01*
X132328380Y-41042738D01*
X132328380Y-40776071D01*
X132366476Y-40623690D01*
X132442666Y-40547500D01*
X132518857Y-40509404D01*
X132671238Y-40509404D01*
X132747428Y-40547500D01*
X132823619Y-40623690D01*
X132861714Y-40776071D01*
X132861714Y-41042738D01*
X132823619Y-41195119D01*
X132747428Y-41271309D01*
X132671238Y-41309404D01*
X132518857Y-41309404D01*
X133623619Y-41309404D02*
X133166476Y-41309404D01*
X133395047Y-41309404D02*
X133395047Y-40509404D01*
X133318857Y-40623690D01*
X133242666Y-40699880D01*
X133166476Y-40737976D01*
%TO.C,U1*%
X132934095Y-72782380D02*
X132934095Y-73591904D01*
X132981714Y-73687142D01*
X133029333Y-73734761D01*
X133124571Y-73782380D01*
X133315047Y-73782380D01*
X133410285Y-73734761D01*
X133457904Y-73687142D01*
X133505523Y-73591904D01*
X133505523Y-72782380D01*
X134505523Y-73782380D02*
X133934095Y-73782380D01*
X134219809Y-73782380D02*
X134219809Y-72782380D01*
X134124571Y-72925238D01*
X134029333Y-73020476D01*
X133934095Y-73068095D01*
%TO.C,J4*%
X141758380Y-42187333D02*
X142472666Y-42187333D01*
X142615523Y-42234952D01*
X142710761Y-42330190D01*
X142758380Y-42473047D01*
X142758380Y-42568285D01*
X142091714Y-41282571D02*
X142758380Y-41282571D01*
X141710761Y-41520666D02*
X142425047Y-41758761D01*
X142425047Y-41139714D01*
X141758380Y-49330190D02*
X141758380Y-48758761D01*
X142758380Y-49044476D02*
X141758380Y-49044476D01*
X142758380Y-48425428D02*
X141758380Y-48425428D01*
X142472666Y-48092095D01*
X141758380Y-47758761D01*
X142758380Y-47758761D01*
X141806000Y-45996857D02*
X141758380Y-46092095D01*
X141758380Y-46234952D01*
X141806000Y-46377809D01*
X141901238Y-46473047D01*
X141996476Y-46520666D01*
X142186952Y-46568285D01*
X142329809Y-46568285D01*
X142520285Y-46520666D01*
X142615523Y-46473047D01*
X142710761Y-46377809D01*
X142758380Y-46234952D01*
X142758380Y-46139714D01*
X142710761Y-45996857D01*
X142663142Y-45949238D01*
X142329809Y-45949238D01*
X142329809Y-46139714D01*
X142758380Y-44949238D02*
X142282190Y-45282571D01*
X142758380Y-45520666D02*
X141758380Y-45520666D01*
X141758380Y-45139714D01*
X141806000Y-45044476D01*
X141853619Y-44996857D01*
X141948857Y-44949238D01*
X142091714Y-44949238D01*
X142186952Y-44996857D01*
X142234571Y-45044476D01*
X142282190Y-45139714D01*
X142282190Y-45520666D01*
X142758380Y-44520666D02*
X141758380Y-44520666D01*
X142758380Y-44044476D02*
X141758380Y-44044476D01*
X141758380Y-43663523D01*
X141806000Y-43568285D01*
X141853619Y-43520666D01*
X141948857Y-43473047D01*
X142091714Y-43473047D01*
X142186952Y-43520666D01*
X142234571Y-43568285D01*
X142282190Y-43663523D01*
X142282190Y-44044476D01*
%TO.C,J3*%
X114151166Y-43130380D02*
X114151166Y-43844666D01*
X114103547Y-43987523D01*
X114008309Y-44082761D01*
X113865452Y-44130380D01*
X113770214Y-44130380D01*
X114532119Y-43130380D02*
X115151166Y-43130380D01*
X114817833Y-43511333D01*
X114960690Y-43511333D01*
X115055928Y-43558952D01*
X115103547Y-43606571D01*
X115151166Y-43701809D01*
X115151166Y-43939904D01*
X115103547Y-44035142D01*
X115055928Y-44082761D01*
X114960690Y-44130380D01*
X114674976Y-44130380D01*
X114579738Y-44082761D01*
X114532119Y-44035142D01*
X110674785Y-44590880D02*
X111341452Y-44590880D01*
X110674785Y-45590880D01*
X111341452Y-45590880D01*
X112436690Y-44543261D02*
X111579547Y-45828976D01*
X112722404Y-45305166D02*
X113198595Y-45305166D01*
X112627166Y-45590880D02*
X112960500Y-44590880D01*
X113293833Y-45590880D01*
X113627166Y-44590880D02*
X113627166Y-45400404D01*
X113674785Y-45495642D01*
X113722404Y-45543261D01*
X113817642Y-45590880D01*
X114008119Y-45590880D01*
X114103357Y-45543261D01*
X114150976Y-45495642D01*
X114198595Y-45400404D01*
X114198595Y-44590880D01*
X114579547Y-44590880D02*
X115246214Y-45590880D01*
X115246214Y-44590880D02*
X114579547Y-45590880D01*
%TO.C,J2*%
X141928380Y-80163333D02*
X142642666Y-80163333D01*
X142785523Y-80210952D01*
X142880761Y-80306190D01*
X142928380Y-80449047D01*
X142928380Y-80544285D01*
X142023619Y-79734761D02*
X141976000Y-79687142D01*
X141928380Y-79591904D01*
X141928380Y-79353809D01*
X141976000Y-79258571D01*
X142023619Y-79210952D01*
X142118857Y-79163333D01*
X142214095Y-79163333D01*
X142356952Y-79210952D01*
X142928380Y-79782380D01*
X142928380Y-79163333D01*
X142452190Y-75996666D02*
X142928380Y-75996666D01*
X141928380Y-76330000D02*
X142452190Y-75996666D01*
X141928380Y-75663333D01*
X141880761Y-74615714D02*
X143166476Y-75472857D01*
X142928380Y-74282380D02*
X141928380Y-74282380D01*
X141928380Y-73901428D01*
X141976000Y-73806190D01*
X142023619Y-73758571D01*
X142118857Y-73710952D01*
X142261714Y-73710952D01*
X142356952Y-73758571D01*
X142404571Y-73806190D01*
X142452190Y-73901428D01*
X142452190Y-74282380D01*
X142928380Y-73282380D02*
X141928380Y-73282380D01*
X141928380Y-72949047D02*
X141928380Y-72377619D01*
X142928380Y-72663333D02*
X141928380Y-72663333D01*
X142833142Y-71472857D02*
X142880761Y-71520476D01*
X142928380Y-71663333D01*
X142928380Y-71758571D01*
X142880761Y-71901428D01*
X142785523Y-71996666D01*
X142690285Y-72044285D01*
X142499809Y-72091904D01*
X142356952Y-72091904D01*
X142166476Y-72044285D01*
X142071238Y-71996666D01*
X141976000Y-71901428D01*
X141928380Y-71758571D01*
X141928380Y-71663333D01*
X141976000Y-71520476D01*
X142023619Y-71472857D01*
X142928380Y-71044285D02*
X141928380Y-71044285D01*
X142404571Y-71044285D02*
X142404571Y-70472857D01*
X142928380Y-70472857D02*
X141928380Y-70472857D01*
%TO.C,J1*%
X141902380Y-64333333D02*
X142616666Y-64333333D01*
X142759523Y-64380952D01*
X142854761Y-64476190D01*
X142902380Y-64619047D01*
X142902380Y-64714285D01*
X142902380Y-63333333D02*
X142902380Y-63904761D01*
X142902380Y-63619047D02*
X141902380Y-63619047D01*
X142045238Y-63714285D01*
X142140476Y-63809523D01*
X142188095Y-63904761D01*
X141952380Y-59690476D02*
X142952380Y-59023809D01*
X141952380Y-59023809D02*
X142952380Y-59690476D01*
X141904761Y-57928571D02*
X143190476Y-58785714D01*
X142952380Y-57023809D02*
X142476190Y-57357142D01*
X142952380Y-57595238D02*
X141952380Y-57595238D01*
X141952380Y-57214285D01*
X142000000Y-57119047D01*
X142047619Y-57071428D01*
X142142857Y-57023809D01*
X142285714Y-57023809D01*
X142380952Y-57071428D01*
X142428571Y-57119047D01*
X142476190Y-57214285D01*
X142476190Y-57595238D01*
X141952380Y-56404761D02*
X141952380Y-56214285D01*
X142000000Y-56119047D01*
X142095238Y-56023809D01*
X142285714Y-55976190D01*
X142619047Y-55976190D01*
X142809523Y-56023809D01*
X142904761Y-56119047D01*
X142952380Y-56214285D01*
X142952380Y-56404761D01*
X142904761Y-56500000D01*
X142809523Y-56595238D01*
X142619047Y-56642857D01*
X142285714Y-56642857D01*
X142095238Y-56595238D01*
X142000000Y-56500000D01*
X141952380Y-56404761D01*
X142952380Y-55071428D02*
X142952380Y-55547619D01*
X141952380Y-55547619D01*
X142952380Y-54261904D02*
X142952380Y-54738095D01*
X141952380Y-54738095D01*
%TD*%
M02*
