<?xml version="1.0" encoding="utf-8"?>
<!-- Generator: Fusion 360, Shaper Origin Export Add-In, Version 1.6.10  -->
<svg xmlns="http://www.w3.org/2000/svg" xmlns:xlink="http://www.w3.org/1999/xlink" xmlns:shaper="http://www.shapertools.com/namespaces/shaper" shaper:fusionaddin="version:1.6.10" width="16.51cm" height="5.941181cm" version="1.1" x="0cm" y="0cm" viewBox="0 0 16.51 5.941181" enable-background="new 0 0 16.51 5.941181" xml:space="preserve"><path d="M-7.62,0.4266595 A0.47625,0.47625 0 0,0 -8.09625,-0.0495905 L-8.255,-0.0495905 -8.255,-2.9705905 8.255,-2.9705905 8.255,-0.9068405 6.0325,-0.9068405 A0.9525,0.9525 270 0,0 5.08,0.0456595 L5.08,2.4142095 -7.62,2.9705905 -7.62,0.4266595z" transform="matrix(1,0,0,-1,8.255,2.9705905)" fill="rgb(0,0,0)" shaper:cutDepth="0.003175" stroke-linecap="round" stroke-linejoin="round" /><path d="M-6.1724092,0.1288111 A0.15875,0.15875 90 0,0 -6.0136592,-0.0299389 L-6.0136592,-0.6336393 A0.15875,0.15875 0 0,0 -6.1724092,-0.7923893 L-6.5376556,-0.7923893 A0.15875,0.15875 270 0,0 -6.6964056,-0.6336393 L-6.6964056,-0.0299389 A0.15875,0.15875 180 0,0 -6.5376556,0.1288111 L-6.1724092,0.1288111z" transform="matrix(1,0,0,-1,8.255,2.9705905)" fill="rgb(255,255,255)" stroke="rgb(0,0,0)" stroke-width="0.0010cm" stroke-linecap="round" stroke-linejoin="round" shaper:cutDepth="0.003175" /><path d="M-5.6980884,0.3889362 A0.15875,0.15875 279.3012778 0,0 -5.7237465,0.3868489 L-5.733744,0.3868489 A0.15875,0.15875 270 0,0 -5.892494,0.5455989 L-5.892494,1.0370653 A0.15875,0.15875 180 0,0 -5.733744,1.1958153 L-5.2959351,1.1958153 A0.15875,0.15875 90 0,0 -5.2529916,1.1898967 L-5.1717876,1.1670795 A0.15875,0.15875 74.3053865 0,0 -5.055981,1.0142481 L-5.055981,0.6289651 A0.15875,0.15875 0 0,0 -5.1890729,0.4723023 L-5.6980884,0.3889362z" transform="matrix(1,0,0,-1,8.255,2.9705905)" fill="rgb(255,255,255)" stroke="rgb(0,0,0)" stroke-width="0.0010cm" stroke-linecap="round" stroke-linejoin="round" shaper:cutDepth="0.003175" /><path d="M4.1981877,-0.6926766 A0.15875,0.15875 180 0,0 4.3569377,-0.5339266 L4.4858018,-0.5339266 A0.127,0.127 90 0,0 4.6128018,-0.6609266 L4.6128018,-1.0553123 A0.15875,0.15875 0 0,0 4.4540518,-1.2140623 L4.3569377,-1.2140623 A0.15875,0.15875 270 0,0 4.1981877,-1.0553123 L4.1981877,-0.6926766z" transform="matrix(1,0,0,-1,8.255,2.9705905)" fill="rgb(255,255,255)" stroke="rgb(0,0,0)" stroke-width="0.0010cm" stroke-linecap="round" stroke-linejoin="round" shaper:cutDepth="0.003175" /><path d="M1.4087499,1.4646902 L1.4087499,1.1517852 A0.1143,0.1143 180 0,1 1.5230499,1.0374852 L1.9807062,1.0374852 A0.1016,0.1016 270 0,1 2.0823062,1.1390852 L2.0823062,1.4646902 A0.15875,0.15875 0 0,1 1.9235562,1.6234402 L1.5674999,1.6234402 A0.15875,0.15875 90 0,1 1.4087499,1.4646902z" transform="matrix(1,0,0,-1,8.255,2.9705905)" fill="rgb(255,255,255)" stroke="rgb(0,0,0)" stroke-width="0.0010cm" stroke-linecap="round" stroke-linejoin="round" shaper:cutDepth="0.003175" /><path d="M1.4088999,0.8394095 a0.1786001,0.1786001 0 1,1 0.3572002,0 a0.1786001,0.1786001 0 1,1 -0.3572002,0z" transform="matrix(1,0,0,-1,8.255,2.9705905)" fill="rgb(255,255,255)" stroke="rgb(0,0,0)" stroke-width="0.0010cm" stroke-linecap="round" stroke-linejoin="round" shaper:cutDepth="0.003175" /><path d="M2.0644926,-0.1380402 L2.0644926,0.5693811 A0.0762,0.0762 0 0,1 1.9882926,0.6455811 L1.5077446,0.6455811 A0.0889,0.0889 90 0,1 1.4188446,0.5566811 L1.4188446,-0.1380402 A0.15875,0.15875 180 0,1 1.5775946,-0.2967902 L1.9057426,-0.2967902 A0.15875,0.15875 270 0,1 2.0644926,-0.1380402z" transform="matrix(1,0,0,-1,8.255,2.9705905)" fill="rgb(255,255,255)" stroke="rgb(0,0,0)" stroke-width="0.0010cm" stroke-linecap="round" stroke-linejoin="round" shaper:cutDepth="0.003175" /><path d="M2.4220774,0.1041845 L2.4220774,-1.1089891 A0.15875,0.15875 180 0,1 2.5808274,-1.2677391 L2.8948858,-1.2677391 A0.15875,0.15875 270 0,1 3.0536358,-1.1089891 L3.0536358,0.1041845 A0.15875,0.15875 0 0,1 2.8948858,0.2629345 L2.5808274,0.2629345 A0.15875,0.15875 90 0,1 2.4220774,0.1041845z" transform="matrix(1,0,0,-1,8.255,2.9705905)" fill="rgb(255,255,255)" stroke="rgb(0,0,0)" stroke-width="0.0010cm" stroke-linecap="round" stroke-linejoin="round" shaper:cutDepth="0.003175" /><path d="M1.8698644,-1.0524003 A0.15875,0.15875 90 0,0 2.0286144,-1.2111503 L2.0286144,-2.4009863 A0.15875,0.15875 0 0,0 1.8698644,-2.5597363 L1.5775946,-2.5597363 A0.15875,0.15875 270 0,0 1.4188446,-2.4009863 L1.4188446,-1.2111503 A0.15875,0.15875 180 0,0 1.5775946,-1.0524003 L1.8698644,-1.0524003z" transform="matrix(1,0,0,-1,8.255,2.9705905)" fill="rgb(255,255,255)" stroke="rgb(0,0,0)" stroke-width="0.0010cm" stroke-linecap="round" stroke-linejoin="round" shaper:cutDepth="0.003175" /><path d="M-0,0.8394095 a0.635,0.635 0 1,1 1.27,0 a0.635,0.635 0 1,1 -1.27,0z" transform="matrix(1,0,0,-1,8.255,2.9705905)" fill="rgb(255,255,255)" stroke="rgb(0,0,0)" stroke-width="0.0010cm" stroke-linecap="round" stroke-linejoin="round" shaper:cutDepth="0.003175" /><path d="M-0.3124222,1.1962352 A0.15875,0.15875 90 0,0 -0.1536722,1.0374852 L-0.1536722,0.6869173 A0.15875,0.15875 0 0,0 -0.3124222,0.5281673 L-0.9262277,0.5281673 A0.15875,0.15875 270 0,0 -1.0849777,0.6869173 L-1.0849777,1.0374852 A0.15875,0.15875 180 0,0 -0.9262277,1.1962352 L-0.3124222,1.1962352z" transform="matrix(1,0,0,-1,8.255,2.9705905)" fill="rgb(255,255,255)" stroke="rgb(0,0,0)" stroke-width="0.0010cm" stroke-linecap="round" stroke-linejoin="round" shaper:cutDepth="0.003175" /><path d="M-2.8867917,1.8313186 A0.15875,0.15875 90 0,0 -2.7280417,1.6725686 L-2.7280417,-2.4665914 A0.15875,0.15875 0 0,0 -2.8867917,-2.6253414 L-3.6360418,-2.6253414 A0.15875,0.15875 270 0,0 -3.7596951,-2.5661476 L-4.1907908,-2.030707 A0.15875,0.15875 218.8383487 0,0 -4.2258875,-1.9311508 L-4.2258875,0.9326317 A0.15875,0.15875 180 0,0 -4.1870748,1.0366346 L-3.5454427,1.7765715 A0.15875,0.15875 139.0699911 0,0 -3.4255054,1.8313186 L-2.8867917,1.8313186z" transform="matrix(1,0,0,-1,8.255,2.9705905)" fill="rgb(255,255,255)" stroke="rgb(0,0,0)" stroke-width="0.0010cm" stroke-linecap="round" stroke-linejoin="round" shaper:cutDepth="0.003175" /><path d="M-5.0588895,-1.0053699 A0.15875,0.15875 90 0,0 -4.9001395,-1.1641199 L-4.9001395,-1.5213651 A0.15875,0.15875 0 0,0 -5.0597264,-1.6801129 L-5.6597043,-1.6769498 A0.15875,0.15875 269.6979386 0,0 -5.8176174,-1.518202 L-5.8176174,-1.1641199 A0.15875,0.15875 180 0,0 -5.6588674,-1.0053699 L-5.0588895,-1.0053699z" transform="matrix(1,0,0,-1,8.255,2.9705905)" fill="rgb(255,255,255)" stroke="rgb(0,0,0)" stroke-width="0.0010cm" stroke-linecap="round" stroke-linejoin="round" shaper:cutDepth="0.003175" /><path d="M-5.87375,-0.2718405 a0.635,0.635 0 1,1 1.27,0 a0.635,0.635 0 1,1 -1.27,0z" transform="matrix(1,0,0,-1,8.255,2.9705905)" fill="rgb(255,255,255)" stroke="rgb(0,0,0)" stroke-width="0.0010cm" stroke-linecap="round" stroke-linejoin="round" shaper:cutDepth="0.003175" /><path d="M-4.761865,1.3474095 a0.215265,0.215265 0 1,1 0.43053,0 a0.215265,0.215265 0 1,1 -0.43053,0z" transform="matrix(1,0,0,-1,8.255,2.9705905)" fill="rgb(255,255,255)" stroke="rgb(0,0,0)" stroke-width="0.0010cm" stroke-linecap="round" stroke-linejoin="round" shaper:cutDepth="0.003175" /><path d="M2.5616804,-1.6299381 L2.5616804,-2.2377527 A0.15875,0.15875 180 0,1 2.7204304,-2.3965027 L4.3265918,-2.3965027 A0.15875,0.15875 270 0,1 4.4853418,-2.2377527 L4.4853418,-1.6299381 A0.15875,0.15875 0 0,1 4.3265918,-1.4711881 L2.7204304,-1.4711881 A0.15875,0.15875 90 0,1 2.5616804,-1.6299381z" transform="matrix(1,0,0,-1,8.255,2.9705905)" fill="rgb(255,255,255)" stroke="rgb(0,0,0)" stroke-width="0.0010cm" stroke-linecap="round" stroke-linejoin="round" shaper:cutDepth="0.003175" /><path d="M0.0396875,-1.8021905 a0.5953125,0.5953125 0 1,1 1.190625,0 a0.5953125,0.5953125 0 1,1 -1.190625,0z" transform="matrix(1,0,0,-1,8.255,2.9705905)" fill="rgb(255,255,255)" stroke="rgb(0,0,0)" stroke-width="0.0010cm" stroke-linecap="round" stroke-linejoin="round" shaper:cutDepth="0.003175" /><path d="M3.594735,-0.9385905 a0.215265,0.215265 0 1,1 0.43053,0 a0.215265,0.215265 0 1,1 -0.43053,0z" transform="matrix(1,0,0,-1,8.255,2.9705905)" fill="rgb(255,255,255)" stroke="rgb(0,0,0)" stroke-width="0.0010cm" stroke-linecap="round" stroke-linejoin="round" shaper:cutDepth="0.003175" /><path d="M4.388485,1.7919095 a0.215265,0.215265 0 1,1 0.43053,0 a0.215265,0.215265 0 1,1 -0.43053,0z" transform="matrix(1,0,0,-1,8.255,2.9705905)" fill="rgb(255,255,255)" stroke="rgb(0,0,0)" stroke-width="0.0010cm" stroke-linecap="round" stroke-linejoin="round" shaper:cutDepth="0.003175" /><path d="M6.515735,-2.3355905 a0.215265,0.215265 0 1,1 0.43053,0 a0.215265,0.215265 0 1,1 -0.43053,0z" transform="matrix(1,0,0,-1,8.255,2.9705905)" fill="rgb(255,255,255)" stroke="rgb(0,0,0)" stroke-width="0.0010cm" stroke-linecap="round" stroke-linejoin="round" shaper:cutDepth="0.003175" /><path d="M-6.819265,2.0840095 a0.215265,0.215265 0 1,1 0.43053,0 a0.215265,0.215265 0 1,1 -0.43053,0z" transform="matrix(1,0,0,-1,8.255,2.9705905)" fill="rgb(255,255,255)" stroke="rgb(0,0,0)" stroke-width="0.0010cm" stroke-linecap="round" stroke-linejoin="round" shaper:cutDepth="0.003175" /><path d="M-6.819265,-2.3355905 a0.215265,0.215265 0 1,1 0.43053,0 a0.215265,0.215265 0 1,1 -0.43053,0z" transform="matrix(1,0,0,-1,8.255,2.9705905)" fill="rgb(255,255,255)" stroke="rgb(0,0,0)" stroke-width="0.0010cm" stroke-linecap="round" stroke-linejoin="round" shaper:cutDepth="0.003175" /></svg>