<?xml version="1.0" encoding="utf-8"?>
<!-- Generator: Fusion 360, Shaper Origin Export Add-In, Version 1.6.10  -->
<svg xmlns="http://www.w3.org/2000/svg" xmlns:xlink="http://www.w3.org/1999/xlink" xmlns:shaper="http://www.shapertools.com/namespaces/shaper" shaper:fusionaddin="version:1.6.10" width="11.8745cm" height="4.9784cm" version="1.1" x="0cm" y="0cm" viewBox="0 0 11.8745 4.9784" enable-background="new 0 0 11.8745 4.9784" xml:space="preserve"><path d="M-5.0014879,2.422144 A0.5588,0.5588 353.1078974 0,0 -5.55625,1.9304 L-5.86105,1.9304 A0.0762,0.0762 90 0,1 -5.93725,1.8542 L-5.93725,-1.2954 A0.0762,0.0762 180 0,1 -5.86105,-1.3716 L-5.55625,-1.3716 A0.5588,0.5588 90 0,0 -4.99745,-1.9304 L-4.99745,-2.413 A0.0762,0.0762 180 0,1 -4.92125,-2.4892 L5.86105,-2.4892 A0.0762,0.0762 270 0,1 5.93725,-2.413 L5.93725,1.5621 A0.0762,0.0762 0 0,1 5.86105,1.6383 L5.6515,1.6383 A0.5588,0.5588 270 0,0 5.0927,2.1971 L5.0927,2.413 A0.0762,0.0762 0 0,1 5.0165,2.4892 L-4.9258386,2.4892 A0.0762,0.0762 90 0,1 -5.0014879,2.422144z" transform="matrix(1,0,0,-1,5.93725,2.4892)" fill="rgb(0,0,0)" shaper:cutDepth="0.0047625" stroke-linecap="round" stroke-linejoin="round" /><path d="M4.642485,-0.5334 a0.215265,0.215265 0 1,1 0.43053,0 a0.215265,0.215265 0 1,1 -0.43053,0z" transform="matrix(1,0,0,-1,5.93725,2.4892)" fill="rgb(255,255,255)" stroke="rgb(0,0,0)" stroke-width="0.0010cm" stroke-linecap="round" stroke-linejoin="round" shaper:cutDepth="0.0047625" /><path d="M-3.714115,1.7526 a0.215265,0.215265 0 1,1 0.43053,0 a0.215265,0.215265 0 1,1 -0.43053,0z" transform="matrix(1,0,0,-1,5.93725,2.4892)" fill="rgb(255,255,255)" stroke="rgb(0,0,0)" stroke-width="0.0010cm" stroke-linecap="round" stroke-linejoin="round" shaper:cutDepth="0.0047625" /><path d="M0.73025,1.2446 a0.9525,0.9525 0 1,1 1.905,0 a0.9525,0.9525 0 1,1 -1.905,0z" transform="matrix(1,0,0,-1,5.93725,2.4892)" fill="rgb(255,255,255)" stroke="rgb(0,0,0)" stroke-width="0.0010cm" stroke-linecap="round" stroke-linejoin="round" shaper:cutDepth="0.0047625" /><path d="M0.73025,-1.397 a0.9525,0.9525 0 1,1 1.905,0 a0.9525,0.9525 0 1,1 -1.905,0z" transform="matrix(1,0,0,-1,5.93725,2.4892)" fill="rgb(255,255,255)" stroke="rgb(0,0,0)" stroke-width="0.0010cm" stroke-linecap="round" stroke-linejoin="round" shaper:cutDepth="0.0047625" /><path d="M-5.1435,0.13335 a0.9525,0.9525 0 1,1 1.905,0 a0.9525,0.9525 0 1,1 -1.905,0z" transform="matrix(1,0,0,-1,5.93725,2.4892)" fill="rgb(255,255,255)" stroke="rgb(0,0,0)" stroke-width="0.0010cm" stroke-linecap="round" stroke-linejoin="round" shaper:cutDepth="0.0047625" /></svg>