<?xml version="1.0" encoding="utf-8"?>
<!-- Generator: Fusion 360, Shaper Origin Export Add-In, Version 1.6.10  -->
<svg xmlns="http://www.w3.org/2000/svg" xmlns:xlink="http://www.w3.org/1999/xlink" xmlns:shaper="http://www.shapertools.com/namespaces/shaper" shaper:fusionaddin="version:1.6.10" width="11.8745cm" height="4.9784cm" version="1.1" x="0cm" y="0cm" viewBox="0 0 11.8745 4.9784" enable-background="new 0 0 11.8745 4.9784" xml:space="preserve"><path d="M-5.0014879,2.422144 A0.5588,0.5588 353.1078974 0,0 -5.55625,1.9304 L-5.86105,1.9304 A0.0762,0.0762 90 0,1 -5.93725,1.8542 L-5.93725,-1.2954 A0.0762,0.0762 180 0,1 -5.86105,-1.3716 L-5.55625,-1.3716 A0.5588,0.5588 90 0,0 -4.99745,-1.9304 L-4.99745,-2.413 A0.0762,0.0762 180 0,1 -4.92125,-2.4892 L5.86105,-2.4892 A0.0762,0.0762 270 0,1 5.93725,-2.413 L5.93725,1.5621 A0.0762,0.0762 0 0,1 5.86105,1.6383 L5.6515,1.6383 A0.5588,0.5588 270 0,0 5.0927,2.1971 L5.0927,2.413 A0.0762,0.0762 0 0,1 5.0165,2.4892 L-4.9258386,2.4892 A0.0762,0.0762 90 0,1 -5.0014879,2.422144z" transform="matrix(1,0,0,-1,5.93725,2.4892)" fill="rgb(0,0,0)" shaper:cutDepth="0.0015875" stroke-linecap="round" stroke-linejoin="round" /><path d="M2.9070471,1.3938205 L2.9070471,1.3938205 2.9065829,1.3849147 2.9052584,1.376095 2.9031505,1.3674299 2.9003103,1.3589756 2.8968167,1.3507702 2.8926803,1.3428689 2.887922,1.3353262 2.88262,1.3281549 2.88262,1.3281549 2.8759707,1.3209216 2.8686349,1.3143818 2.8607738,1.3084871 2.8524493,1.3032661 2.8437573,1.2986818 2.8347608,1.2947286 2.8161463,1.2884441 2.7969805,1.2841085 2.7775306,1.28131 2.7579348,1.2798211 2.738285,1.2794445 2.738285,1.2794445 2.7197279,1.2798837 2.7012216,1.2812715 2.68284,1.2838723 2.6647299,1.287922 2.647062,1.2936198 2.6301542,1.3012593 2.6221059,1.3058981 2.614423,1.3111135 2.600344,1.3231976 2.600344,1.3231976 2.5941128,1.330501 2.5886529,1.3383975 2.5838491,1.34671 2.5798623,1.3554429 2.5765802,1.3644663 2.5742024,1.3737658 2.5725899,1.3832312 2.5720374,1.3928147 2.5720374,1.3928147 2.5729638,1.4047986 2.5753814,1.416575 2.5790358,1.4280258 2.5838673,1.4390338 2.5897415,1.4495222 2.5966117,1.4593856 2.6044637,1.4684886 2.6133478,1.4765851 2.6133478,1.4765851 2.6277984,1.4856635 2.6432972,1.49283 2.6594304,1.4983991 2.6759991,1.5025183 2.6928172,1.5054476 2.7097803,1.5073846 2.7268196,1.5084235 2.7438888,1.5087713 2.7438888,1.5087713 2.7612383,1.5082942 2.7785392,1.5069297 2.7957092,1.5043941 2.8126584,1.5006617 2.8292444,1.4955485 2.8451972,1.4887268 2.860233,1.4800534 2.8739269,1.4694006 2.8739269,1.4694006 2.8810298,1.4615812 2.8873623,1.4531257 2.8929054,1.4441328 2.8976419,1.4346899 2.9014893,1.4248516 2.9044593,1.4147137 2.9063411,1.4043189 2.9071188,1.3937842 2.9070471,1.3938205z M2.8494998,1.3540188 L2.8494998,1.3540188 2.8561701,1.3627665 2.8612886,1.3725038 2.8648498,1.3828986 2.8658904,1.3883011 2.8663112,1.3937842 2.8662395,1.3938205 2.8662395,1.3938205 2.8657336,1.4000828 2.8644956,1.4062433 2.86025,1.4180595 2.8541059,1.4290124 2.8502722,1.433991 2.8459795,1.4385795 2.8459795,1.4385795 2.8352486,1.4470749 2.8232299,1.4536486 2.8104623,1.4585934 2.7972655,1.4622645 2.7838297,1.46492 2.7702417,1.4666453 2.742883,1.4678919 2.742883,1.4678919 2.7162585,1.4669742 2.703,1.4656632 2.6898339,1.4636328 2.6768415,1.4606818 2.6641934,1.4565145 2.6520321,1.4510647 2.6407205,1.4440396 2.6407205,1.4440396 2.6349338,1.4393744 2.6296771,1.4341211 2.6249966,1.4283462 2.6209718,1.4220991 2.6176153,1.415465 2.615123,1.4084665 2.6134229,1.4012283 2.6128449,1.3938205 2.6128449,1.3938205 2.6133406,1.3873376 2.6146343,1.3809652 2.6192597,1.3688235 2.626001,1.3577176 2.6346856,1.3480557 2.6346856,1.3480557 2.6460066,1.3398476 2.6584591,1.3334735 2.6716076,1.3286999 2.6851533,1.3252067 2.6989344,1.3227958 2.7128428,1.3212859 2.7407995,1.320252 2.7407995,1.320252 2.7554188,1.3205088 2.7700013,1.321519 2.7844972,1.3234419 2.7988165,1.3263876 2.8127892,1.3306898 2.8261554,1.3366017 2.8385804,1.3443106 2.8494998,1.3540188z" transform="matrix(1,0,0,-1,5.93725,2.4892)" fill="rgb(104,104,104)" fill-rule="nonzero" shaper:cutDepth="0.0000762" stroke-linecap="round" stroke-linejoin="round" /><path d="M2.8760104,1.035174 L2.6617209,1.0351023 2.8883948,1.1833035 2.8883948,1.1833035 2.8937124,1.1873235 2.898382,1.1920678 2.9015788,1.1979127 2.902449,1.2045109 2.902449,1.2045109 2.9016318,1.2102423 2.8991975,1.2154858 2.8954442,1.2199043 2.8903792,1.2226875 2.8903792,1.2226875 2.8836721,1.2236147 2.8768725,1.2236933 2.5986725,1.2236216 2.5986725,1.2236216 2.5902675,1.2234717 2.5860975,1.2229537 2.5820956,1.2216817 2.5820956,1.2216817 2.577821,1.2183417 2.574601,1.2139763 2.5727278,1.2088889 2.5720374,1.2035051 2.5720374,1.2035051 2.5724279,1.1990851 2.5735917,1.1948049 2.5757437,1.1909267 2.5788178,1.1877388 2.5826436,1.185484 2.5868144,1.1839808 2.5956023,1.182814 2.8133372,1.182814 2.5851621,1.0351023 2.5851621,1.0351023 2.5799944,1.031148 2.5757276,1.0262599 2.5728522,1.0204188 2.5720374,1.01398 2.5720374,1.01398 2.5723705,1.0096894 2.5735153,1.0055432 2.5756206,1.0017957 2.5787134,0.9988069 2.5824667,0.9967107 2.5865665,0.9953926 2.5950994,0.9943665 2.8778867,0.9942947 2.8778867,0.9942947 2.887039,0.9950659 2.8914819,0.9962657 2.8955954,0.9983128 2.8989655,1.0014318 2.9012406,1.0054217 2.9023302,1.0098858 2.902449,1.0144829 2.902449,1.0144829 2.9021915,1.0193518 2.9010388,1.0240867 2.898634,1.0283168 2.8949471,1.0314972 2.8904968,1.0334754 2.8857347,1.034537 2.8760104,1.035174z" transform="matrix(1,0,0,-1,5.93725,2.4892)" fill="rgb(104,104,104)" fill-rule="nonzero" shaper:cutDepth="0.0000762" stroke-linecap="round" stroke-linejoin="round" /><path d="M0.7988471,1.5294624 L0.7988471,1.5294624 0.7983829,1.5205566 0.7970584,1.5117369 0.7949505,1.5030719 0.7921103,1.4946176 0.7886167,1.4864121 0.7844803,1.4785108 0.779722,1.4709681 0.77442,1.4637968 0.77442,1.4637968 0.7677707,1.4565635 0.7604349,1.4500237 0.7525738,1.444129 0.7442493,1.438908 0.7355573,1.4343237 0.7265608,1.4303705 0.7079463,1.424086 0.6887805,1.4197504 0.6693306,1.4169519 0.6497348,1.415463 0.630085,1.4150864 0.630085,1.4150864 0.6115279,1.4155256 0.5930216,1.4169134 0.57464,1.4195142 0.5565299,1.4235639 0.538862,1.4292617 0.5219542,1.4369012 0.5139059,1.44154 0.506223,1.4467554 0.492144,1.4588395 0.492144,1.4588395 0.4859128,1.4661429 0.4804529,1.4740395 0.4756491,1.4823519 0.4716623,1.4910848 0.4683802,1.5001082 0.4660024,1.5094077 0.4643899,1.5188732 0.4638374,1.5284566 0.4638374,1.5284566 0.4647638,1.5404405 0.4671814,1.5522169 0.4708358,1.5636677 0.4756673,1.5746758 0.4815415,1.5851642 0.4884117,1.5950276 0.4962637,1.6041305 0.5051478,1.612227 0.5051478,1.612227 0.5195984,1.6213054 0.5350972,1.6284719 0.5512304,1.634041 0.5677991,1.6381602 0.5846172,1.6410895 0.6015803,1.6430265 0.6186196,1.6440655 0.6356888,1.6444132 0.6356888,1.6444132 0.6530383,1.6439361 0.6703392,1.6425716 0.6875092,1.6400361 0.7044584,1.6363036 0.7210444,1.6311904 0.7369972,1.6243688 0.752033,1.6156953 0.7657269,1.6050426 0.7657269,1.6050426 0.7728298,1.5972231 0.7791623,1.5887676 0.7847054,1.5797747 0.7894419,1.5703318 0.7932893,1.5604935 0.7962593,1.5503557 0.7981411,1.5399608 0.7989188,1.5294261 0.7988471,1.5294624z M0.7412998,1.4896607 L0.7412998,1.4896607 0.7479701,1.4984084 0.7530886,1.5081458 0.7566498,1.5185405 0.7576904,1.523943 0.7581112,1.5294261 0.7580395,1.5294624 0.7580395,1.5294624 0.7575336,1.5357247 0.7562956,1.5418852 0.75205,1.5537015 0.7459059,1.5646544 0.7420722,1.569633 0.7377795,1.5742214 0.7377795,1.5742214 0.7270486,1.5827169 0.7150299,1.5892905 0.7022623,1.5942353 0.6890655,1.5979064 0.6756297,1.6005619 0.6620417,1.6022872 0.634683,1.6035338 0.634683,1.6035338 0.6080585,1.6026161 0.5948,1.6013051 0.5816339,1.5992747 0.5686415,1.5963237 0.5559934,1.5921564 0.5438321,1.5867066 0.5325205,1.5796815 0.5325205,1.5796815 0.5267338,1.5750164 0.5214771,1.5697631 0.5167966,1.5639881 0.5127718,1.557741 0.5094153,1.5511069 0.506923,1.5441084 0.5052229,1.5368703 0.5046449,1.5294624 0.5046449,1.5294624 0.5051406,1.5229795 0.5064343,1.5166072 0.5110597,1.5044654 0.517801,1.4933596 0.5264856,1.4836976 0.5264856,1.4836976 0.5378066,1.4754895 0.5502591,1.4691154 0.5634076,1.4643418 0.5769533,1.4608486 0.5907344,1.4584377 0.6046428,1.4569278 0.6325995,1.4558939 0.6325995,1.4558939 0.6472188,1.4561508 0.6618013,1.4571609 0.6762972,1.4590838 0.6906165,1.4620295 0.7045892,1.4663317 0.7179554,1.4722437 0.7303804,1.4799526 0.7412998,1.4896607z" transform="matrix(1,0,0,-1,5.93725,2.4892)" fill="rgb(104,104,104)" fill-rule="nonzero" shaper:cutDepth="0.0000762" stroke-linecap="round" stroke-linejoin="round" /><path d="M0.670174,1.2067381 L0.670174,1.3184559 0.7535132,1.3184559 0.7535132,1.1615318 0.7535132,1.1615318 0.7542605,1.1521045 0.7555328,1.1475357 0.7575689,1.1432628 0.7606183,1.1396396 0.7646186,1.137119 0.7691259,1.1356665 0.7738453,1.1352531 0.7738453,1.1352531 0.7785254,1.1357579 0.782994,1.1372302 0.7869018,1.1398497 0.7899585,1.1434226 0.7920202,1.1476532 0.7932812,1.1521909 0.794249,1.1615481 0.7943208,1.330116 0.7943208,1.330116 0.7944377,1.3360075 0.7937225,1.3418509 0.7918361,1.3474313 0.7884313,1.3522281 0.7837255,1.3557624 0.7782662,1.3579719 0.7724733,1.3590341 0.766589,1.3593353 0.4906215,1.3592635 0.4906215,1.3592635 0.4829641,1.3592341 0.479151,1.3588868 0.4754761,1.3578265 0.4754761,1.3578265 0.4706066,1.3546073 0.4669098,1.3500909 0.4646497,1.3447168 0.4638374,1.3389315 0.4638374,1.3389315 0.4647054,1.3327935 0.4671872,1.3271132 0.4713876,1.3225794 0.4769849,1.3199646 0.4769849,1.3199646 0.4802561,1.3189077 0.4836801,1.3185598 0.4905634,1.3184559 0.6293664,1.3184559 0.6293664,1.2082117 0.6293664,1.2082117 0.6295396,1.1999833 0.6308034,1.1918663 0.6308034,1.1918663 0.6336139,1.1864961 0.6379466,1.1822645 0.6434836,1.1798155 0.6494829,1.1789344 0.6494829,1.1789344 0.6544528,1.1792237 0.6592078,1.1806855 0.6633115,1.183494 0.6663911,1.1873975 0.6683627,1.1919674 0.669524,1.1968128 0.670174,1.2067381z" transform="matrix(1,0,0,-1,5.93725,2.4892)" fill="rgb(104,104,104)" fill-rule="nonzero" shaper:cutDepth="0.0000762" stroke-linecap="round" stroke-linejoin="round" /><path d="M0.670174,0.9308562 L0.670174,1.042574 0.7535132,1.042574 0.7535132,0.8856499 0.7535132,0.8856499 0.7542605,0.8762226 0.7555328,0.8716538 0.7575689,0.867381 0.7606183,0.8637577 0.7646186,0.8612371 0.7691259,0.8597846 0.7738453,0.8593712 0.7738453,0.8593712 0.7785254,0.8598761 0.782994,0.8613484 0.7869018,0.8639678 0.7899585,0.8675407 0.7920202,0.8717713 0.7932812,0.876309 0.794249,0.8856662 0.7943208,1.0542342 0.7943208,1.0542342 0.7944377,1.0601257 0.7937225,1.065969 0.7918361,1.0715494 0.7884313,1.0763462 0.7837255,1.0798806 0.7782662,1.08209 0.7724733,1.0831522 0.766589,1.0834534 0.4906215,1.0833816 0.4906215,1.0833816 0.4829641,1.0833522 0.479151,1.0830049 0.4754761,1.0819446 0.4754761,1.0819446 0.4706066,1.0787254 0.4669098,1.074209 0.4646497,1.0688349 0.4638374,1.0630496 0.4638374,1.0630496 0.4647054,1.0569116 0.4671872,1.0512313 0.4713876,1.0466975 0.4769849,1.0440827 0.4769849,1.0440827 0.4802561,1.0430258 0.4836801,1.0426779 0.4905634,1.042574 0.6293664,1.042574 0.6293664,0.9323298 0.6293664,0.9323298 0.6295396,0.9241014 0.6308034,0.9159844 0.6308034,0.9159844 0.6336139,0.9106142 0.6379466,0.9063826 0.6434836,0.9039337 0.6494829,0.9030525 0.6494829,0.9030525 0.6544528,0.9033418 0.6592078,0.9048036 0.6633115,0.9076121 0.6663911,0.9115156 0.6683627,0.9160855 0.669524,0.920931 0.670174,0.9308562z" transform="matrix(1,0,0,-1,5.93725,2.4892)" fill="rgb(104,104,104)" fill-rule="nonzero" shaper:cutDepth="0.0000762" stroke-linecap="round" stroke-linejoin="round" /><path d="M2.609109,-0.9274281 L2.609109,-0.9274281 2.6066663,-0.9293678 2.6066663,-0.9293678 2.6005271,-0.9333397 2.5970221,-0.93441 2.5933751,-0.9347562 2.5933751,-0.9347562 2.5894053,-0.9343496 2.585607,-0.9331317 2.5821374,-0.9311632 2.5791611,-0.9285059 2.5767709,-0.925312 2.575077,-0.9216998 2.5737616,-0.9138495 2.5737616,-0.9138495 2.5742593,-0.9080738 2.5751655,-0.9053064 2.5766277,-0.902802 2.5805153,-0.8985053 2.5850838,-0.8949406 2.7099783,-0.8025609 2.7099783,-0.7585941 2.5988353,-0.7585941 2.5988353,-0.7585941 2.5891981,-0.7579256 2.5844975,-0.7568013 2.5800904,-0.754826 2.5762597,-0.7518788 2.573571,-0.7478797 2.5722548,-0.743233 2.5720374,-0.7384059 2.5720374,-0.7384059 2.5730005,-0.731678 2.5758846,-0.725535 2.5780508,-0.7229037 2.5807044,-0.7207713 2.5837097,-0.7191666 2.586981,-0.7182176 2.586981,-0.7182176 2.5938864,-0.7177233 2.6008177,-0.7177865 2.873855,-0.7177147 2.873855,-0.7177147 2.8799573,-0.7177297 2.8859915,-0.7186247 2.8916552,-0.7208844 2.8964008,-0.724706 2.8996993,-0.7298316 2.9015922,-0.7356329 2.9024102,-0.741677 2.9025208,-0.7477792 2.902449,-0.8318034 2.902449,-0.8318034 2.9019763,-0.8415333 2.9008449,-0.8512062 2.8990355,-0.8607798 2.8963577,-0.8701428 2.8927862,-0.8792059 2.8883504,-0.887877 2.8830292,-0.8960354 2.8768593,-0.9035715 2.8699614,-0.9104489 2.8623576,-0.916535 2.8541056,-0.921709 2.8452973,-0.9258661 2.8361056,-0.9290873 2.8266273,-0.9313334 2.8169789,-0.9326656 2.8072554,-0.9332474 2.8072554,-0.9332474 2.790265,-0.931909 2.7819069,-0.9302276 2.7736943,-0.9279317 2.7657483,-0.9248444 2.7581045,-0.9210654 2.7508931,-0.916518 2.744094,-0.9113732 2.7377736,-0.9056508 2.7320612,-0.8993216 2.7269744,-0.8924789 2.7224958,-0.8852248 2.7187886,-0.8775461 2.7157139,-0.8695937 2.7114356,-0.8530974 2.609109,-0.9274281z M2.8617132,-0.8333882 L2.8617132,-0.7585941 2.7507858,-0.7585941 2.7507858,-0.8297917 2.7507858,-0.8297917 2.7515096,-0.8461085 2.753185,-0.8541061 2.7563897,-0.8616187 2.7563897,-0.8616187 2.7603106,-0.868327 2.76519,-0.8743733 2.7708076,-0.8797403 2.7771468,-0.8842337 2.7840533,-0.887793 2.7913847,-0.890367 2.7990007,-0.8919022 2.8067525,-0.8924399 2.8067525,-0.8924399 2.8146125,-0.8918179 2.8223265,-0.8901889 2.8296873,-0.8873647 2.8366122,-0.8835949 2.8429303,-0.8788786 2.8485493,-0.8733481 2.8532659,-0.8670306 2.8570435,-0.86011 2.8570435,-0.86011 2.8595413,-0.853741 2.8609749,-0.8470512 2.8617132,-0.8333882z" transform="matrix(1,0,0,-1,5.93725,2.4892)" fill="rgb(104,104,104)" fill-rule="nonzero" shaper:cutDepth="0.0000762" stroke-linecap="round" stroke-linejoin="round" /><path d="M2.778374,-1.1394404 L2.778374,-1.0252799 2.8617132,-1.0252799 2.8617132,-1.1812108 2.8617132,-1.1812108 2.862299,-1.1910154 2.8634937,-1.195793 2.8655267,-1.2002649 2.8686114,-1.2040958 2.8727142,-1.2067882 2.8774223,-1.2082026 2.8823327,-1.2084827 2.8823327,-1.2084827 2.8869718,-1.2082216 2.8914414,-1.2069632 2.8954224,-1.2045841 2.8984941,-1.2010992 2.9005405,-1.1969366 2.9017467,-1.192443 2.902449,-1.1831936 2.9025208,-1.0115149 2.9025208,-1.0115149 2.9017701,-1.0002809 2.9001539,-0.9948858 2.8971237,-0.990145 2.8925252,-0.9869126 2.8871587,-0.9851905 2.8815754,-0.9844573 2.8759385,-0.9844005 2.59908,-0.9844723 2.59908,-0.9844723 2.5934605,-0.9843413 2.587876,-0.9848855 2.5824523,-0.9863674 2.5777156,-0.98936 2.5744836,-0.9939394 2.5727622,-0.9992842 2.5720374,-1.01048 2.5720374,-1.1812108 2.5720374,-1.1812108 2.5725155,-1.1914213 2.5735331,-1.1964393 2.5753313,-1.2012237 2.5781899,-1.2054658 2.5822024,-1.2086154 2.5870464,-1.2102443 2.5921538,-1.2104944 2.5921538,-1.2104944 2.5982968,-1.2094773 2.6039532,-1.2068953 2.6084006,-1.2025484 2.6113362,-1.1970595 2.6113362,-1.1970595 2.6124017,-1.1938286 2.6127402,-1.1904379 2.6128449,-1.1836246 2.6128449,-1.0252799 2.7375664,-1.0252799 2.7375664,-1.1375104 2.7375664,-1.1375104 2.7380832,-1.1472823 2.739184,-1.1520552 2.7410682,-1.1565778 2.7440539,-1.1604467 2.748099,-1.1631977 2.7527908,-1.164585 2.7576829,-1.1648014 2.7576829,-1.1648014 2.7623882,-1.1645499 2.7669386,-1.1633407 2.7710242,-1.1610061 2.7742133,-1.1575448 2.7763587,-1.1533532 2.7776544,-1.1488213 2.778374,-1.1394404z" transform="matrix(1,0,0,-1,5.93725,2.4892)" fill="rgb(104,104,104)" fill-rule="nonzero" shaper:cutDepth="0.0000762" stroke-linecap="round" stroke-linejoin="round" /><path d="M2.6272137,-1.3181504 L2.586047,-1.3022395 2.586047,-1.3022395 2.5802803,-1.2990144 2.5755885,-1.2943738 2.5728117,-1.2883897 2.5720374,-1.2818357 2.5720374,-1.2818357 2.572352,-1.2778871 2.573292,-1.2740421 2.5748353,-1.2703938 2.5770767,-1.2671301 2.5799147,-1.2643689 2.5832423,-1.2622235 2.587002,-1.2609821 2.5909324,-1.260498 2.5909324,-1.260498 2.5947511,-1.2608342 2.5984387,-1.2619023 2.6056523,-1.2645181 2.886787,-1.3707789 2.886787,-1.3707789 2.8930346,-1.3737963 2.8983537,-1.3782268 2.9003479,-1.3810649 2.9017489,-1.3842399 2.9024414,-1.38764 2.902449,-1.3911108 2.902449,-1.3911108 2.9022935,-1.3953141 2.9014239,-1.399431 2.8996904,-1.4032517 2.896951,-1.4064455 2.8899613,-1.4110959 2.8822664,-1.4144899 2.602212,-1.5217236 2.602212,-1.5217236 2.5966334,-1.5230716 2.5909324,-1.5237353 2.5909324,-1.5237353 2.5870073,-1.5232381 2.5832776,-1.5219216 2.5799515,-1.5197808 2.5771365,-1.5170009 2.5749146,-1.5137283 2.5733262,-1.5101031 2.5723502,-1.5062709 2.5720374,-1.5023257 2.5720374,-1.5023257 2.572121,-1.4987423 2.5728357,-1.4952315 2.5743545,-1.4919868 2.5764753,-1.4890945 2.5820348,-1.4846045 2.5884998,-1.4815303 2.6272137,-1.467129 2.6272137,-1.3181504z M2.6680213,-1.4507414 L2.8231469,-1.3921431 2.6680213,-1.3335449 2.6680213,-1.4507414z" transform="matrix(1,0,0,-1,5.93725,2.4892)" fill="rgb(104,104,104)" fill-rule="nonzero" shaper:cutDepth="0.0000762" stroke-linecap="round" stroke-linejoin="round" /><path d="M2.902449,-1.6676393 L2.902449,-1.6676393 2.9020661,-1.6791741 2.9006757,-1.6906303 2.8981474,-1.7018905 2.8945474,-1.7128554 2.8896996,-1.7233278 2.8837376,-1.7332089 2.876813,-1.7424407 2.8689696,-1.7509067 2.8689696,-1.7509067 2.8557038,-1.7627003 2.8411492,-1.7728646 2.8255487,-1.7813267 2.8090429,-1.7878613 2.7919203,-1.7925346 2.7744231,-1.7955479 2.7567499,-1.7971895 2.7390034,-1.7976774 2.7390034,-1.7976774 2.7134017,-1.7968914 2.700656,-1.7956097 2.6880144,-1.7935469 2.6755761,-1.7904881 2.6634414,-1.7863896 2.6516187,-1.7814595 2.6402176,-1.7756212 2.6402176,-1.7756212 2.6257767,-1.7670693 2.6122538,-1.757134 2.60006,-1.7456091 2.5945904,-1.7392424 2.5896548,-1.7324537 2.5853402,-1.725255 2.5815975,-1.7177421 2.5784821,-1.7099486 2.576044,-1.7019173 2.572917,-1.6854343 2.5720374,-1.6686772 2.5720374,-1.5985251 2.5720374,-1.5985251 2.5722214,-1.5926396 2.5731464,-1.5868265 2.5753137,-1.581358 2.5770228,-1.5789472 2.5791967,-1.5769651 2.584512,-1.5744404 2.5902702,-1.5732112 2.6020301,-1.5730203 2.8767288,-1.5729486 2.8767288,-1.5729486 2.882111,-1.5730914 2.8874136,-1.5740042 2.8924019,-1.576022 2.8966225,-1.5793522 2.8996388,-1.5838055 2.9014437,-1.588875 2.9025208,-1.5995713 2.902449,-1.6676393z M2.8617132,-1.6691759 L2.8617132,-1.6138279 2.6128449,-1.6138279 2.6128449,-1.6686451 2.6128449,-1.6686451 2.613373,-1.6815389 2.6156491,-1.6942364 2.6177682,-1.7003324 2.6206682,-1.7060975 2.624204,-1.711498 2.6282914,-1.7164934 2.6282914,-1.7164934 2.6348365,-1.7233869 2.6419999,-1.7296382 2.6496299,-1.7353063 2.6577406,-1.7402673 2.6661769,-1.744648 2.6749188,-1.7483848 2.6839102,-1.7514705 2.6930949,-1.7539242 2.6930949,-1.7539242 2.7020406,-1.7559439 2.7111752,-1.7567515 2.72952,-1.7568698 2.72952,-1.7568698 2.7649783,-1.7565576 2.7738265,-1.7560078 2.782569,-1.7545458 2.7910882,-1.7521053 2.7993526,-1.7488951 2.7993526,-1.7488951 2.8079231,-1.7450649 2.8162181,-1.7406714 2.8241655,-1.7356743 2.8317103,-1.7300892 2.8387621,-1.7238926 2.8452414,-1.7171022 2.8509911,-1.7096796 2.8556784,-1.7015498 2.8556784,-1.7015498 2.859045,-1.6939336 2.8608516,-1.6858038 2.8617132,-1.6691759z" transform="matrix(1,0,0,-1,5.93725,2.4892)" fill="rgb(104,104,104)" fill-rule="nonzero" shaper:cutDepth="0.0000762" stroke-linecap="round" stroke-linejoin="round" /><path d="M2.8883676,-2.0327517 L2.7530562,-1.9610219 2.8863637,-1.8902101 2.8863637,-1.8902101 2.8924647,-1.8863871 2.8977569,-1.8815195 2.8998758,-1.8786158 2.9014835,-1.8753908 2.9023335,-1.871898 2.902449,-1.8683002 2.902449,-1.8683002 2.9020599,-1.8643077 2.9010328,-1.8604321 2.8993392,-1.8567961 2.8969636,-1.8535648 2.8940176,-1.8508443 2.8906273,-1.8487023 2.8868156,-1.8474567 2.8828356,-1.8469625 2.8828356,-1.8469625 2.8794664,-1.8471894 2.8763096,-1.8483867 2.8702628,-1.8514168 2.868322,-1.8524689 2.7029407,-1.9408629 2.5951922,-1.9408629 2.5951922,-1.9408629 2.5862986,-1.9416968 2.582064,-1.9431192 2.578204,-1.9453812 2.5751588,-1.9486439 2.5731811,-1.9526505 2.5722129,-1.9570138 2.5720374,-1.9614822 2.5720374,-1.9614822 2.572379,-1.9667549 2.5738348,-1.97182 2.5765481,-1.9763692 2.5806587,-1.9796588 2.5806587,-1.9796588 2.5845261,-1.9809017 2.5885521,-1.981475 2.59668,-1.9816705 2.7029407,-1.9816705 2.8663174,-2.0675814 2.8678209,-2.0685746 2.8678209,-2.0685746 2.8722745,-2.0710447 2.8722745,-2.0710447 2.8775687,-2.0735648 2.8833385,-2.0744932 2.8833385,-2.0744932 2.8873035,-2.0740743 2.8910753,-2.0727852 2.894492,-2.0707383 2.8973226,-2.0679263 2.8995999,-2.0646584 2.9011866,-2.0609976 2.9021528,-2.0571332 2.902449,-2.0531555 2.902449,-2.0531555 2.9017899,-2.0466219 2.9004963,-2.0435918 2.8986611,-2.0408231 2.8939492,-2.0362504 2.8883676,-2.0327517z" transform="matrix(1,0,0,-1,5.93725,2.4892)" fill="rgb(104,104,104)" fill-rule="nonzero" shaper:cutDepth="0.0000762" stroke-linecap="round" stroke-linejoin="round" /><path d="M3.6669838,0.4287147 L3.6081743,0.4514446 3.6081743,0.4514446 3.5999361,0.4560518 3.5963157,0.4590966 3.5932336,0.4626813 3.5908975,0.4667916 3.5892667,0.47123 3.588344,0.4758669 3.5881605,0.4805929 3.5881605,0.4805929 3.58861,0.4862338 3.5899528,0.4917266 3.5921576,0.4969384 3.5953595,0.5016008 3.5994138,0.5055455 3.6041676,0.5086102 3.6095385,0.5103838 3.6151534,0.5110754 3.6151534,0.5110754 3.6206087,0.510595 3.6258767,0.5090691 3.6361818,0.5053322 4.0378029,0.3535312 4.0378029,0.3535312 4.046728,0.3492206 4.0507687,0.3463478 4.0543267,0.3428913 4.0571755,0.3388369 4.059177,0.3343012 4.0601662,0.3294438 4.0601772,0.3244856 4.0601772,0.3244856 4.059955,0.3184808 4.0587127,0.3125995 4.0562362,0.3071414 4.0523228,0.3025789 4.047551,0.2989341 4.0423375,0.2959354 4.0313449,0.2910868 3.6312671,0.1378958 3.6312671,0.1378958 3.6232977,0.1359702 3.6151534,0.1350221 3.6151534,0.1350221 3.6095462,0.1357323 3.604218,0.1376129 3.5994665,0.1406713 3.595445,0.1446426 3.5922708,0.1493177 3.5900017,0.1544965 3.5886074,0.1599711 3.5881605,0.1656072 3.5881605,0.1656072 3.58828,0.1707263 3.589301,0.1757417 3.5914708,0.180377 3.5945004,0.1845089 3.5982079,0.1880302 3.6024425,0.1909231 3.6116783,0.1953149 3.6669838,0.2158881 3.6669838,0.4287147z M3.7252804,0.2392991 L3.9468884,0.3230108 3.7252804,0.4067226 3.7252804,0.2392991z" transform="matrix(1,0,0,-1,5.93725,2.4892)" fill="rgb(104,104,104)" fill-rule="nonzero" shaper:cutDepth="0.0000762" stroke-linecap="round" stroke-linejoin="round" /><path d="M3.6250064,0.0063182 L3.6250064,0.0063182 3.6114334,0.0071904 3.6048133,0.0087125 3.5985669,0.011426 3.595777,0.0133685 3.5934024,0.0158152 3.5901296,0.0217652 3.5885052,0.0283648 3.5881605,0.0351586 3.5881605,0.0351586 3.5885108,0.04145 3.5899028,0.0475929 3.5927704,0.0531977 3.5970654,0.0578039 3.6023796,0.0611714 3.6083428,0.0632218 3.6145538,0.0642616 3.6208465,0.0646148 4.0173786,0.0647173 4.0173786,0.0647173 4.0269078,0.0646399 4.0363534,0.063394 4.0409363,0.0620739 4.0453114,0.0601723 4.0493382,0.0575912 4.0527316,0.0542521 4.0553159,0.0502335 4.0571946,0.0458424 4.0594036,0.0365749 4.0602265,0.027083 4.0602797,0.0175536 4.0601772,-0.0979585 4.0601772,-0.0979585 4.0598757,-0.1125589 4.0587384,-0.1271184 4.0560079,-0.1414625 4.0517612,-0.1554339 4.0517612,-0.1554339 4.0478766,-0.1650234 4.0432336,-0.1742686 4.0379789,-0.1831815 4.031989,-0.1916168 4.0253829,-0.1995791 4.0181026,-0.2069301 4.0102483,-0.2136639 4.0019042,-0.2197816 3.9931402,-0.2252788 3.9839437,-0.2300207 3.9744414,-0.2341091 3.9646108,-0.2373398 3.9545975,-0.2399349 3.9443977,-0.2416797 3.9341162,-0.2428217 3.9237758,-0.2431865 3.9237758,-0.2431865 3.9122722,-0.2426365 3.9008413,-0.2412442 3.8895405,-0.2390241 3.8784373,-0.2359679 3.8676414,-0.2319599 3.8572452,-0.2270058 3.8473171,-0.221171 3.8378573,-0.2146029 3.8289574,-0.2072947 3.8207403,-0.1992263 3.8132598,-0.1904711 3.8065215,-0.1811322 3.8006955,-0.1711989 3.7958074,-0.1607717 3.7918161,-0.1499695 3.788606,-0.1389098 3.788606,-0.1389098 3.7866252,-0.1278981 3.7856402,-0.1167496 3.7852189,-0.094376 3.7852189,0.0063182 3.6250064,0.0063182z M4.0019832,-0.0958144 L4.0019832,0.0063182 3.8435155,0.0063182 3.8435155,-0.1001139 3.8435155,-0.1001139 3.8447524,-0.1164527 3.8463463,-0.1244947 3.8485933,-0.1323792 3.8515496,-0.1400246 3.8552062,-0.1473623 3.8596558,-0.1542472 3.8649006,-0.1605455 3.8707319,-0.1663098 3.8772471,-0.1712825 3.8842462,-0.1755503 3.8916867,-0.1789901 3.8994691,-0.1815685 3.9074552,-0.183416 3.9237758,-0.1848901 3.9237758,-0.1848901 3.9404129,-0.1833621 3.9485323,-0.1813824 3.9564275,-0.1786403 3.9638946,-0.1748839 3.9708556,-0.1702633 3.9771492,-0.1647602 3.9827661,-0.1585748 3.987645,-0.1517865 3.9917885,-0.1445279 3.9950559,-0.1368373 3.997618,-0.1288778 3.9995598,-0.120751 4.0008278,-0.112487 4.0019832,-0.0958144z" transform="matrix(1,0,0,-1,5.93725,2.4892)" fill="rgb(104,104,104)" fill-rule="nonzero" shaper:cutDepth="0.0000762" stroke-linecap="round" stroke-linejoin="round" /><path d="M3.7628447,-0.3746615 L4.0251066,-0.3746615 4.0251066,-0.3746615 4.0381536,-0.3736058 4.0444608,-0.37184 4.050275,-0.3688335 4.0551231,-0.3644321 4.0582708,-0.3587033 4.0599142,-0.3523672 4.0601772,-0.3458212 4.0601772,-0.3458212 4.0597217,-0.3394458 4.0581808,-0.3332463 4.055221,-0.3275895 4.0507433,-0.3230319 4.0452639,-0.3197587 4.0391915,-0.3177527 4.0328902,-0.3167007 4.026513,-0.3162624 3.7614808,-0.3163649 3.7614808,-0.3163649 3.7438258,-0.3165771 3.7262191,-0.3178789 3.708895,-0.3212944 3.6921294,-0.3268338 3.6921294,-0.3268338 3.6808192,-0.3316873 3.6698848,-0.3373343 3.6593766,-0.3437421 3.6493925,-0.3509372 3.6399521,-0.3588334 3.6312187,-0.3675043 3.6232127,-0.3768514 3.6159598,-0.3867942 3.6094511,-0.3972393 3.6037979,-0.4081711 3.5990127,-0.4195096 3.595111,-0.4311819 3.5920643,-0.4431059 3.5898765,-0.455217 3.5886327,-0.4674611 3.5881605,-0.4797594 3.5881605,-0.4797594 3.5890745,-0.4962806 3.5913288,-0.5126712 3.595099,-0.5287814 3.6003512,-0.5444718 3.6073655,-0.5594553 3.6159117,-0.5736221 3.6259518,-0.5867719 3.6373945,-0.5987224 3.6499933,-0.6094473 3.6636544,-0.6187777 3.6782474,-0.6265802 3.6935276,-0.6329164 3.7093897,-0.6376324 3.7255846,-0.6410188 3.7420102,-0.6430074 3.758534,-0.6438721 4.0215345,-0.6439747 4.0215345,-0.6439747 4.0354722,-0.6431162 4.0422965,-0.6416621 4.0487861,-0.6390528 4.0517155,-0.637156 4.0542317,-0.634734 4.0579853,-0.6288466 4.0597812,-0.6221059 4.0601772,-0.6151344 4.0601772,-0.6151344 4.0597769,-0.6081216 4.0578644,-0.601366 4.0541887,-0.5953964 4.0487922,-0.5909093 4.0423333,-0.5881786 4.0354766,-0.5865932 4.0285116,-0.585767 4.0214839,-0.5855757 3.7650529,-0.5856781 3.7650529,-0.5856781 3.7381867,-0.584726 3.7248857,-0.5827515 3.7121432,-0.5784939 3.7121432,-0.5784939 3.6979009,-0.5716988 3.6911676,-0.5675856 3.6847936,-0.5629156 3.6788115,-0.557757 3.6732766,-0.5521308 3.6682354,-0.5460581 3.6636778,-0.5396069 3.6596003,-0.5328427 3.6560602,-0.5257901 3.6506734,-0.5109568 3.6487685,-0.5032882 3.6474745,-0.4955083 3.646457,-0.4797594 3.646457,-0.4797594 3.6472981,-0.4657117 3.6498516,-0.4518751 3.6542996,-0.4385246 3.6605258,-0.4259062 3.6684448,-0.4142748 3.6779703,-0.4039183 3.6888354,-0.3949777 3.7007507,-0.3874908 3.7007507,-0.3874908 3.7152103,-0.3804498 3.7228608,-0.3779367 3.7307396,-0.3763044 3.7467622,-0.3749364 3.7628447,-0.3746615z" transform="matrix(1,0,0,-1,5.93725,2.4892)" fill="rgb(104,104,104)" fill-rule="nonzero" shaper:cutDepth="0.0000762" stroke-linecap="round" stroke-linejoin="round" /><path d="M-5.0749029,0.4182124 L-5.0749029,0.4182124 -5.0753671,0.4093066 -5.0766916,0.4004869 -5.0787995,0.3918219 -5.0816397,0.3833676 -5.0851333,0.3751621 -5.0892697,0.3672608 -5.094028,0.3597181 -5.09933,0.3525468 -5.09933,0.3525468 -5.1059793,0.3453135 -5.1133151,0.3387737 -5.1211762,0.332879 -5.1295007,0.327658 -5.1381927,0.3230737 -5.1471892,0.3191205 -5.1658037,0.312836 -5.1849695,0.3085004 -5.2044194,0.3057019 -5.2240152,0.304213 -5.243665,0.3038364 -5.243665,0.3038364 -5.2622221,0.3042756 -5.2807284,0.3056634 -5.29911,0.3082642 -5.3172201,0.3123139 -5.334888,0.3180117 -5.3517958,0.3256512 -5.3598441,0.33029 -5.367527,0.3355054 -5.381606,0.3475895 -5.381606,0.3475895 -5.3878372,0.3548929 -5.3932971,0.3627895 -5.3981009,0.3711019 -5.4020877,0.3798348 -5.4053698,0.3888582 -5.4077476,0.3981577 -5.4093601,0.4076232 -5.4099126,0.4172066 -5.4099126,0.4172066 -5.4089862,0.4291905 -5.4065686,0.4409669 -5.4029142,0.4524177 -5.3980827,0.4634258 -5.3922085,0.4739142 -5.3853383,0.4837776 -5.3774863,0.4928805 -5.3686022,0.500977 -5.3686022,0.500977 -5.3541516,0.5100554 -5.3386528,0.5172219 -5.3225196,0.522791 -5.3059509,0.5269102 -5.2891328,0.5298395 -5.2721697,0.5317765 -5.2551304,0.5328155 -5.2380612,0.5331632 -5.2380612,0.5331632 -5.2207117,0.5326861 -5.2034108,0.5313216 -5.1862408,0.5287861 -5.1692916,0.5250536 -5.1527056,0.5199404 -5.1367528,0.5131188 -5.121717,0.5044453 -5.1080231,0.4937926 -5.1080231,0.4937926 -5.1009202,0.4859731 -5.0945877,0.4775176 -5.0890446,0.4685247 -5.0843081,0.4590818 -5.0804607,0.4492435 -5.0774907,0.4391057 -5.0756089,0.4287108 -5.0748312,0.4181761 -5.0749029,0.4182124z M-5.1324502,0.3784107 L-5.1324502,0.3784107 -5.1257799,0.3871584 -5.1206614,0.3968958 -5.1171002,0.4072905 -5.1160596,0.412693 -5.1156388,0.4181761 -5.1157105,0.4182124 -5.1157105,0.4182124 -5.1162164,0.4244747 -5.1174544,0.4306352 -5.1217,0.4424515 -5.1278441,0.4534044 -5.1316778,0.458383 -5.1359705,0.4629714 -5.1359705,0.4629714 -5.1467014,0.4714669 -5.1587201,0.4780405 -5.1714877,0.4829853 -5.1846845,0.4866564 -5.1981203,0.4893119 -5.2117083,0.4910372 -5.239067,0.4922838 -5.239067,0.4922838 -5.2656915,0.4913661 -5.27895,0.4900551 -5.2921161,0.4880247 -5.3051085,0.4850737 -5.3177566,0.4809064 -5.3299179,0.4754566 -5.3412295,0.4684315 -5.3412295,0.4684315 -5.3470162,0.4637664 -5.3522729,0.4585131 -5.3569534,0.4527381 -5.3609782,0.446491 -5.3643347,0.4398569 -5.366827,0.4328584 -5.3685271,0.4256203 -5.3691051,0.4182124 -5.3691051,0.4182124 -5.3686094,0.4117295 -5.3673157,0.4053572 -5.3626903,0.3932154 -5.355949,0.3821096 -5.3472644,0.3724476 -5.3472644,0.3724476 -5.3359434,0.3642395 -5.3234909,0.3578654 -5.3103424,0.3530918 -5.2967967,0.3495986 -5.2830156,0.3471877 -5.2691072,0.3456778 -5.2411505,0.3446439 -5.2411505,0.3446439 -5.2265312,0.3449008 -5.2119487,0.3459109 -5.1974528,0.3478338 -5.1831335,0.3507795 -5.1691608,0.3550817 -5.1557946,0.3609937 -5.1433696,0.3687026 -5.1324502,0.3784107z" transform="matrix(1,0,0,-1,5.93725,2.4892)" fill="rgb(104,104,104)" fill-rule="nonzero" shaper:cutDepth="0.0000762" stroke-linecap="round" stroke-linejoin="round" /><path d="M-5.203576,0.0954881 L-5.203576,0.2072059 -5.1202368,0.2072059 -5.1202368,0.0502818 -5.1202368,0.0502818 -5.1194895,0.0408545 -5.1182172,0.0362857 -5.1161811,0.0320128 -5.1131317,0.0283896 -5.1091314,0.025869 -5.1046241,0.0244165 -5.0999047,0.0240031 -5.0999047,0.0240031 -5.0952246,0.0245079 -5.090756,0.0259802 -5.0868482,0.0285997 -5.0837915,0.0321726 -5.0817298,0.0364032 -5.0804688,0.0409409 -5.079501,0.0502981 -5.0794292,0.218866 -5.0794292,0.218866 -5.0793123,0.2247575 -5.0800275,0.2306009 -5.0819139,0.2361813 -5.0853187,0.2409781 -5.0900245,0.2445124 -5.0954838,0.2467219 -5.1012767,0.2477841 -5.107161,0.2480853 -5.3831285,0.2480135 -5.3831285,0.2480135 -5.3907859,0.2479841 -5.394599,0.2476368 -5.3982739,0.2465765 -5.3982739,0.2465765 -5.4031434,0.2433573 -5.4068402,0.2388409 -5.4091003,0.2334668 -5.4099126,0.2276815 -5.4099126,0.2276815 -5.4090446,0.2215435 -5.4065628,0.2158632 -5.4023624,0.2113294 -5.3967651,0.2087146 -5.3967651,0.2087146 -5.3934939,0.2076577 -5.3900699,0.2073098 -5.3831866,0.2072059 -5.2443836,0.2072059 -5.2443836,0.0969617 -5.2443836,0.0969617 -5.2442104,0.0887333 -5.2429466,0.0806163 -5.2429466,0.0806163 -5.2401361,0.0752461 -5.2358034,0.0710145 -5.2302664,0.0685655 -5.2242671,0.0676844 -5.2242671,0.0676844 -5.2192972,0.0679737 -5.2145422,0.0694355 -5.2104385,0.072244 -5.2073589,0.0761475 -5.2053873,0.0807174 -5.204226,0.0855628 -5.203576,0.0954881z" transform="matrix(1,0,0,-1,5.93725,2.4892)" fill="rgb(104,104,104)" fill-rule="nonzero" shaper:cutDepth="0.0000762" stroke-linecap="round" stroke-linejoin="round" /><path d="M-5.203576,-0.1803938 L-5.203576,-0.068676 -5.1202368,-0.068676 -5.1202368,-0.2256001 -5.1202368,-0.2256001 -5.1194895,-0.2350274 -5.1182172,-0.2395962 -5.1161811,-0.243869 -5.1131317,-0.2474923 -5.1091314,-0.2500129 -5.1046241,-0.2514654 -5.0999047,-0.2518788 -5.0999047,-0.2518788 -5.0952246,-0.2513739 -5.090756,-0.2499016 -5.0868482,-0.2472822 -5.0837915,-0.2437093 -5.0817298,-0.2394787 -5.0804688,-0.234941 -5.079501,-0.2255838 -5.0794292,-0.0570158 -5.0794292,-0.0570158 -5.0793123,-0.0511243 -5.0800275,-0.045281 -5.0819139,-0.0397006 -5.0853187,-0.0349038 -5.0900245,-0.0313694 -5.0954838,-0.02916 -5.1012767,-0.0280978 -5.107161,-0.0277966 -5.3831285,-0.0278684 -5.3831285,-0.0278684 -5.3907859,-0.0278978 -5.394599,-0.0282451 -5.3982739,-0.0293054 -5.3982739,-0.0293054 -5.4031434,-0.0325246 -5.4068402,-0.037041 -5.4091003,-0.0424151 -5.4099126,-0.0482004 -5.4099126,-0.0482004 -5.4090446,-0.0543384 -5.4065628,-0.0600187 -5.4023624,-0.0645525 -5.3967651,-0.0671673 -5.3967651,-0.0671673 -5.3934939,-0.0682242 -5.3900699,-0.0685721 -5.3831866,-0.068676 -5.2443836,-0.068676 -5.2443836,-0.1789202 -5.2443836,-0.1789202 -5.2442104,-0.1871486 -5.2429466,-0.1952656 -5.2429466,-0.1952656 -5.2401361,-0.2006358 -5.2358034,-0.2048674 -5.2302664,-0.2073163 -5.2242671,-0.2081975 -5.2242671,-0.2081975 -5.2192972,-0.2079082 -5.2145422,-0.2064464 -5.2104385,-0.2036379 -5.2073589,-0.1997344 -5.2053873,-0.1951645 -5.204226,-0.190319 -5.203576,-0.1803938z" transform="matrix(1,0,0,-1,5.93725,2.4892)" fill="rgb(104,104,104)" fill-rule="nonzero" shaper:cutDepth="0.0000762" stroke-linecap="round" stroke-linejoin="round" /><path d="M-4.319709,1.0775264 L-4.319709,1.0775264 -4.3197599,1.0717659 -4.3207148,1.0661031 -4.3207148,1.0661031 -4.3231696,1.0610959 -4.3271517,1.0571824 -4.3320955,1.0545988 -4.3375982,1.0536741 -4.3375982,1.0536741 -4.3432588,1.0547271 -4.348379,1.0573413 -4.3523791,1.0614724 -4.3549845,1.0666061 -4.3549845,1.0666061 -4.3558351,1.070103 -4.3559215,1.0737196 -4.3559185,1.0809562 -4.3559185,1.2568496 -4.3559185,1.2568496 -4.3556576,1.2617085 -4.354709,1.2664764 -4.3528249,1.2709612 -4.3497892,1.2747539 -4.3457505,1.2774547 -4.3411466,1.2790302 -4.3363294,1.2796708 -4.3314636,1.2795525 -4.0476348,1.2796242 -4.0476348,1.2796242 -4.0396103,1.2786293 -4.0357507,1.2774028 -4.0321561,1.275533 -4.0292135,1.2727673 -4.0270421,1.2693495 -4.0258555,1.2654813 -4.0255068,1.2614476 -4.0255068,1.2614476 -4.0258477,1.2573947 -4.0269581,1.2534844 -4.0290484,1.2499958 -4.032022,1.2472391 -4.0356611,1.2454101 -4.039548,1.2442175 -4.0476263,1.2433429 -4.319709,1.2433429 -4.319709,1.0775264z" transform="matrix(1,0,0,-1,5.93725,2.4892)" fill="rgb(104,104,104)" fill-rule="nonzero" shaper:cutDepth="0.0000762" stroke-linecap="round" stroke-linejoin="round" /><path d="M-4.3188468,-0.983971 L-4.3188468,-0.983971 -4.3212895,-0.9859108 -4.3212895,-0.9859108 -4.3274287,-0.9898827 -4.3309337,-0.9909529 -4.3345807,-0.9912991 -4.3345807,-0.9912991 -4.3385505,-0.9908926 -4.3423488,-0.9896747 -4.3458185,-0.9877062 -4.3487947,-0.9850489 -4.351185,-0.9818549 -4.3528788,-0.9782428 -4.3541942,-0.9703924 -4.3541942,-0.9703924 -4.3536965,-0.9646168 -4.3527903,-0.9618493 -4.3513281,-0.959345 -4.3474406,-0.9550482 -4.342872,-0.9514836 -4.2179776,-0.8591038 -4.2179776,-0.815137 -4.3291206,-0.815137 -4.3291206,-0.815137 -4.3387577,-0.8144686 -4.3434583,-0.8133442 -4.3478654,-0.811369 -4.3516962,-0.8084217 -4.3543848,-0.8044227 -4.3557011,-0.7997759 -4.3559185,-0.7949488 -4.3559185,-0.7949488 -4.3549554,-0.7882209 -4.3520713,-0.782078 -4.349905,-0.7794467 -4.3472514,-0.7773142 -4.3442461,-0.7757096 -4.3409748,-0.7747606 -4.3409748,-0.7747606 -4.3340695,-0.7742662 -4.3271381,-0.7743294 -4.0541008,-0.7742577 -4.0541008,-0.7742577 -4.0479985,-0.7742727 -4.0419643,-0.7751677 -4.0363007,-0.7774274 -4.031555,-0.781249 -4.0282565,-0.7863746 -4.0263637,-0.7921759 -4.0255457,-0.7982199 -4.025435,-0.8043222 -4.0255068,-0.8883463 -4.0255068,-0.8883463 -4.0259795,-0.8980763 -4.0271109,-0.9077491 -4.0289203,-0.9173227 -4.0315981,-0.9266858 -4.0351696,-0.9357488 -4.0396054,-0.94442 -4.0449267,-0.9525783 -4.0510965,-0.9601145 -4.0579945,-0.9669919 -4.0655983,-0.973078 -4.0738502,-0.978252 -4.0826585,-0.9824091 -4.0918502,-0.9856302 -4.1013285,-0.9878764 -4.1109769,-0.9892085 -4.1207004,-0.9897904 -4.1207004,-0.9897904 -4.1376908,-0.9884519 -4.1460489,-0.9867705 -4.1542615,-0.9844746 -4.1622075,-0.9813874 -4.1698513,-0.9776083 -4.1770627,-0.9730609 -4.1838618,-0.9679161 -4.1901822,-0.9621938 -4.1958946,-0.9558646 -4.2009815,-0.9490219 -4.2054601,-0.9417678 -4.2091672,-0.934089 -4.212242,-0.9261366 -4.2165202,-0.9096403 -4.3188468,-0.983971z M-4.0662426,-0.8899311 L-4.0662426,-0.815137 -4.17717,-0.815137 -4.17717,-0.8863347 -4.17717,-0.8863347 -4.1764462,-0.9026514 -4.1747708,-0.9106491 -4.1715661,-0.9181617 -4.1715661,-0.9181617 -4.1676453,-0.9248699 -4.1627658,-0.9309163 -4.1571482,-0.9362832 -4.150809,-0.9407766 -4.1439025,-0.9443359 -4.1365712,-0.9469099 -4.1289552,-0.9484451 -4.1212033,-0.9489829 -4.1212033,-0.9489829 -4.1133434,-0.9483608 -4.1056293,-0.9467318 -4.0982685,-0.9439076 -4.0913436,-0.9401378 -4.0850256,-0.9354216 -4.0794065,-0.9298911 -4.0746899,-0.9235735 -4.0709123,-0.9166529 -4.0709123,-0.9166529 -4.0684145,-0.9102839 -4.0669809,-0.9035941 -4.0662426,-0.8899311z" transform="matrix(1,0,0,-1,5.93725,2.4892)" fill="rgb(104,104,104)" fill-rule="nonzero" shaper:cutDepth="0.0000762" stroke-linecap="round" stroke-linejoin="round" /><path d="M-2.5099911,1.4441892 L-2.5099911,1.590967 -2.4028407,1.590967 -2.4028407,1.3904844 -2.4028407,1.3904844 -2.4027874,1.384157 -2.4020876,1.3778786 -2.4005515,1.3717359 -2.3979376,1.3659863 -2.3939716,1.3610609 -2.3886966,1.3575992 -2.3826433,1.3557807 -2.37633,1.3554205 -2.37633,1.3554205 -2.3703654,1.3557563 -2.3646188,1.3573743 -2.3595003,1.360433 -2.355551,1.3649136 -2.3529199,1.3702655 -2.3513691,1.376043 -2.3506006,1.3819596 -2.3504661,1.3879352 -2.3503738,1.6086649 -2.3503738,1.6086649 -2.3505242,1.6159086 -2.3513391,1.6231086 -2.353417,1.6300452 -2.3551043,1.6332629 -2.357313,1.6361405 -2.3600698,1.6384982 -2.3632253,1.6402964 -2.370125,1.6425106 -2.3773036,1.6434532 -2.384551,1.6435262 -2.740512,1.6434339 -2.740512,1.6434339 -2.747737,1.6436024 -2.7549172,1.6429027 -2.7618905,1.6409974 -2.7651162,1.6393635 -2.7679804,1.6371497 -2.7703278,1.6343984 -2.7721359,1.6312619 -2.7743492,1.6243901 -2.7751972,1.6172181 -2.7752811,1.6099955 -2.7752811,1.3904844 -2.7752811,1.3904844 -2.7746663,1.3773567 -2.7733579,1.370905 -2.7710461,1.3647536 -2.7673706,1.3592995 -2.7622118,1.3552499 -2.7559838,1.3531557 -2.7494171,1.3528342 -2.7494171,1.3528342 -2.7415189,1.3541418 -2.7377522,1.3554959 -2.7342464,1.3574616 -2.7311296,1.3600064 -2.7285284,1.3630504 -2.724754,1.3701076 -2.724754,1.3701076 -2.7233841,1.3742615 -2.7229488,1.3786211 -2.7228142,1.387381 -2.7228142,1.590967 -2.562458,1.590967 -2.562458,1.4466706 -2.562458,1.4466706 -2.5617936,1.4341068 -2.5603782,1.4279702 -2.5579557,1.4221554 -2.5541169,1.4171812 -2.5489161,1.4136441 -2.5428838,1.4118605 -2.536594,1.4115822 -2.536594,1.4115822 -2.5305443,1.4119056 -2.5246937,1.4134603 -2.5194409,1.4164619 -2.5153406,1.4209121 -2.5125823,1.4263014 -2.5109163,1.4321281 -2.5101343,1.4381312 -2.5099911,1.4441892z" transform="matrix(1,0,0,-1,5.93725,2.4892)" fill="rgb(104,104,104)" fill-rule="nonzero" shaper:cutDepth="0.0000762" stroke-linecap="round" stroke-linejoin="round" /><path d="M-2.3844587,1.046439 L-2.6599737,1.0463468 -2.3685358,1.2368911 -2.3685358,1.2368911 -2.361699,1.2420598 -2.3556952,1.2481596 -2.3533058,1.2517328 -2.3515849,1.2556744 -2.3504661,1.2641578 -2.3504661,1.2641578 -2.3515168,1.2715268 -2.3546466,1.2782684 -2.3568495,1.2813258 -2.3594724,1.2839493 -2.3659844,1.2875277 -2.3659844,1.2875277 -2.3702403,1.2885009 -2.3746078,1.2887198 -2.3833502,1.2888209 -2.7410359,1.2887287 -2.7410359,1.2887287 -2.7518423,1.2885359 -2.7572038,1.28787 -2.7623491,1.2862345 -2.7623491,1.2862345 -2.767845,1.2819403 -2.771985,1.2763276 -2.7743934,1.2697867 -2.7752811,1.2628646 -2.7752811,1.2628646 -2.7747789,1.2571818 -2.7732827,1.2516786 -2.7705159,1.2466924 -2.7665633,1.2425937 -2.7616445,1.2396946 -2.7562821,1.237762 -2.7449833,1.2362617 -2.4650384,1.2362617 -2.7584064,1.0463468 -2.7584064,1.0463468 -2.7650506,1.0412627 -2.7705365,1.034978 -2.7726771,1.0313501 -2.7742334,1.027468 -2.7752811,1.0191895 -2.7752811,1.0191895 -2.7748528,1.0136731 -2.7733809,1.0083422 -2.770674,1.003524 -2.7666976,0.9996813 -2.761872,0.9969861 -2.7566008,0.9952914 -2.7456299,0.9939722 -2.3820462,0.9938799 -2.3820462,0.9938799 -2.370279,0.9948714 -2.3645666,0.996414 -2.3592779,0.9990459 -2.3549449,1.0030562 -2.3520198,1.0081861 -2.3506189,1.0139255 -2.3504661,1.0198361 -2.3504661,1.0198361 -2.3507972,1.0260962 -2.3522792,1.0321838 -2.3553712,1.0376225 -2.3601115,1.0417116 -2.3658333,1.0442551 -2.371956,1.04562 -2.3844587,1.046439z" transform="matrix(1,0,0,-1,5.93725,2.4892)" fill="rgb(104,104,104)" fill-rule="nonzero" shaper:cutDepth="0.0000762" stroke-linecap="round" stroke-linejoin="round" /><path d="M-2.5861973,0.7380117 L-2.586105,0.6916414 -2.6525219,0.6916414 -2.6525219,0.6916414 -2.6621234,0.6919435 -2.6716798,0.6928874 -2.6810463,0.6950206 -2.6899301,0.6986615 -2.6899301,0.6986615 -2.6974565,0.7033777 -2.704207,0.7091501 -2.709954,0.7159207 -2.7146601,0.7234552 -2.7183362,0.7315385 -2.7208459,0.7400619 -2.7223384,0.7488156 -2.7228142,0.7576867 -2.7228142,0.7576867 -2.7224308,0.7681008 -2.7207651,0.7783878 -2.7177702,0.7883694 -2.7136825,0.7979543 -2.7084006,0.8069373 -2.7021348,0.8152669 -2.6951208,0.8229723 -2.6874361,0.8300133 -2.6874361,0.8300133 -2.673908,0.8402127 -2.6595489,0.8492054 -2.6444513,0.8568934 -2.6287776,0.8633269 -2.6126333,0.8684662 -2.5961502,0.8723845 -2.5793779,0.8747794 -2.5624579,0.8756447 -2.5624579,0.8756447 -2.5490962,0.8751114 -2.5358016,0.8736742 -2.5226675,0.8711613 -2.5097666,0.8676429 -2.4971549,0.8631963 -2.4849556,0.8577214 -2.4732118,0.8513256 -2.4620504,0.8439614 -2.4620504,0.8439614 -2.4505843,0.8365704 -2.43968,0.8283793 -2.4295987,0.8191876 -2.4205985,0.8089387 -2.4131063,0.7975431 -2.4074764,0.7851238 -2.4054515,0.7786012 -2.4040386,0.7719247 -2.4029329,0.7583333 -2.4029329,0.7583333 -2.4036116,0.7481252 -2.4058411,0.7381358 -2.4095986,0.728625 -2.4148459,0.7198381 -2.4211464,0.7117764 -2.4281692,0.7043288 -2.4357531,0.6974617 -2.4437609,0.6910871 -2.4437609,0.6910871 -2.4503526,0.6858265 -2.4565278,0.6800811 -2.459177,0.6767979 -2.4612747,0.6731087 -2.4624201,0.6690798 -2.4627894,0.6648537 -2.4627894,0.6648537 -2.4620002,0.6594709 -2.460046,0.6543927 -2.4569962,0.6498898 -2.453143,0.6460436 -2.4487328,0.6428602 -2.4438036,0.6405486 -2.4385601,0.6391057 -2.4331383,0.6386203 -2.4331383,0.6386203 -2.4281318,0.6389932 -2.4232725,0.6400711 -2.41427,0.6444548 -2.4061269,0.650257 -2.3984991,0.656725 -2.3984991,0.656725 -2.3883022,0.6672685 -2.3789433,0.6785603 -2.3706492,0.6906563 -2.3634899,0.7034588 -2.3578808,0.7170079 -2.3537705,0.7310864 -2.3512579,0.7455363 -2.3504661,0.7601807 -2.3504661,0.7601807 -2.3509379,0.7709351 -2.3522535,0.7816193 -2.3544644,0.7921547 -2.3574313,0.8025027 -2.3611119,0.8126188 -2.365522,0.8224388 -2.3707562,0.8318454 -2.3766995,0.8408208 -2.3766995,0.8408208 -2.3852774,0.8510141 -2.3944935,0.8606349 -2.404293,0.8696598 -2.4146387,0.8780536 -2.4254796,0.885797 -2.4367592,0.8928868 -2.4484069,0.8993535 -2.460386,0.9051844 -2.4726529,0.9103816 -2.4851682,0.9149493 -2.4978837,0.9189248 -2.5108037,0.9221752 -2.5238846,0.9247017 -2.5370716,0.9265978 -2.5503436,0.9277568 -2.5636587,0.9282039 -2.5636587,0.9282039 -2.5837105,0.9272722 -2.6036242,0.9247449 -2.6232788,0.9206657 -2.6425355,0.9149976 -2.6612695,0.9077876 -2.6794122,0.8991976 -2.6967362,0.8890576 -2.7132076,0.8775845 -2.7132076,0.8775845 -2.7262817,0.8665955 -2.738323,0.8544918 -2.7491223,0.841258 -2.7583371,0.8268861 -2.7658001,0.8115238 -2.7710945,0.7952938 -2.7743093,0.7785217 -2.7752811,0.7614739 -2.7752811,0.7614739 -2.7743239,0.7459384 -2.771665,0.7306041 -2.7673001,0.7156634 -2.7612995,0.701303 -2.7538011,0.6876629 -2.7447737,0.6749862 -2.7342079,0.663557 -2.72226,0.6535844 -2.72226,0.6535844 -2.7101369,0.6466988 -2.7036833,0.6440521 -2.6970018,0.6420289 -2.6832624,0.6397265 -2.6693313,0.6392669 -2.5692411,0.6391746 -2.5692411,0.6391746 -2.5619112,0.6393328 -2.554624,0.6401457 -2.5475945,0.6422203 -2.5443337,0.6439113 -2.5413979,0.646116 -2.5389395,0.6488468 -2.537044,0.65199 -2.5347178,0.6589479 -2.5337041,0.6662013 -2.5336381,0.6735366 -2.5336381,0.7354179 -2.5336381,0.7354179 -2.5338507,0.7460693 -2.5345123,0.7513598 -2.5362245,0.7563935 -2.5362245,0.7563935 -2.5399832,0.7630671 -2.5425253,0.7659231 -2.545524,0.7683469 -2.5488446,0.7703078 -2.5524062,0.7717051 -2.5599639,0.772928 -2.5599639,0.772928 -2.5662919,0.7720795 -2.572276,0.7698694 -2.5775368,0.7662567 -2.5817635,0.7614739 -2.5817635,0.7614739 -2.5846749,0.7561541 -2.5857767,0.7501694 -2.5861973,0.7380117z" transform="matrix(1,0,0,-1,5.93725,2.4892)" fill="rgb(104,104,104)" fill-rule="nonzero" shaper:cutDepth="0.0000762" stroke-linecap="round" stroke-linejoin="round" /><path d="M-2.3504661,0.2183315 L-2.3503738,0.2182793 -2.3503738,0.2182793 -2.3514598,0.2353919 -2.3542913,0.2523026 -2.3592177,0.2687259 -2.3660736,0.2844409 -2.3748914,0.2991462 -2.3853415,0.312742 -2.3971408,0.325181 -2.4100455,0.3364742 -2.4100455,0.3364742 -2.4264402,0.3482935 -2.4436598,0.3588742 -2.4616854,0.3680155 -2.480374,0.3757099 -2.4996106,0.3819092 -2.5192987,0.3864731 -2.5393146,0.3892744 -2.559502,0.3902342 -2.559502,0.3902342 -2.5798891,0.389346 -2.6001627,0.3870238 -2.6201774,0.3830461 -2.6398455,0.3776065 -2.6589993,0.3705683 -2.6775342,0.3620324 -2.6952553,0.3519141 -2.7120068,0.3402614 -2.7120068,0.3402614 -2.7253986,0.329037 -2.7378031,0.3167351 -2.7488718,0.3032133 -2.7582873,0.2884984 -2.765824,0.2727345 -2.7711525,0.2560985 -2.7743285,0.2389174 -2.7752811,0.2214721 -2.7752811,0.2214721 -2.7745618,0.2069963 -2.7723495,0.1926731 -2.7685635,0.1786831 -2.7633659,0.1651544 -2.7566447,0.1523141 -2.7485554,0.1402877 -2.7393261,0.1291137 -2.7291879,0.1187554 -2.7291879,0.1187554 -2.7138022,0.1056032 -2.7051329,0.1003387 -2.7003357,0.0988122 -2.6952876,0.098249 -2.6952876,0.098249 -2.6901183,0.0987039 -2.685071,0.0999051 -2.6803792,0.1021176 -2.6762279,0.1052289 -2.6728025,0.1091244 -2.6703106,0.1136732 -2.6689288,0.1186735 -2.6684076,0.1238358 -2.6684076,0.1238358 -2.6690013,0.1308619 -2.6714194,0.1374751 -2.6758241,0.142975 -2.6812472,0.1474828 -2.6812472,0.1474828 -2.6895245,0.1542231 -2.697364,0.1614682 -2.7044897,0.1694141 -2.7108308,0.1780028 -2.716088,0.1872912 -2.7198944,0.1972581 -2.7222226,0.2076777 -2.7228142,0.2183315 -2.7228142,0.2183315 -2.7224351,0.2287843 -2.7207739,0.2391117 -2.717907,0.2491691 -2.7137344,0.2587621 -2.708505,0.2678184 -2.7022826,0.2762291 -2.6952929,0.2840081 -2.6876208,0.29112 -2.6876208,0.29112 -2.674145,0.3015903 -2.659756,0.3107661 -2.6446242,0.3186563 -2.6288782,0.3252371 -2.6126376,0.3304797 -2.5960204,0.3343652 -2.5791324,0.3368226 -2.5620884,0.337675 -2.5620884,0.337675 -2.548527,0.3369483 -2.5350318,0.3354573 -2.5216421,0.3331743 -2.5084416,0.3299963 -2.4955144,0.3258317 -2.4829399,0.320706 -2.470806,0.3146082 -2.4591755,0.3075974 -2.4481301,0.2996984 -2.4377742,0.2909123 -2.4282889,0.2811983 -2.4199386,0.2704872 -2.4130377,0.2587999 -2.4078242,0.2462619 -2.4044098,0.2331205 -2.4029329,0.2196247 -2.4029329,0.2196247 -2.4035326,0.2099946 -2.4053572,0.2005185 -2.4083791,0.191357 -2.4126192,0.1826884 -2.4178209,0.1745609 -2.4238552,0.1670314 -2.430661,0.16019 -2.4379416,0.1538564 -2.4379416,0.1538564 -2.4449267,0.1481787 -2.4513423,0.1418618 -2.4539398,0.1381756 -2.4557844,0.1340485 -2.4566546,0.129651 -2.4568777,0.125129 -2.4568777,0.125129 -2.4562589,0.1199149 -2.4547114,0.1148983 -2.452098,0.1103457 -2.4486563,0.1063807 -2.4445278,0.1031384 -2.439812,0.1008284 -2.434764,0.0993935 -2.4295358,0.0988956 -2.4295358,0.0988956 -2.422754,0.0996454 -2.4164477,0.1022623 -2.4055193,0.110442 -2.4055193,0.110442 -2.3940059,0.1210423 -2.383387,0.1325328 -2.3738296,0.1449265 -2.3655824,0.1582237 -2.3590032,0.1724213 -2.3542632,0.1873315 -2.3513707,0.2027108 -2.3504661,0.2183315z" transform="matrix(1,0,0,-1,5.93725,2.4892)" fill="rgb(104,104,104)" fill-rule="nonzero" shaper:cutDepth="0.0000762" stroke-linecap="round" stroke-linejoin="round" /><path d="M-2.7276175,-0.2400143 L-2.7276175,-0.2400143 -2.7307582,-0.2425083 -2.7307582,-0.2425083 -2.7345298,-0.2453333 -2.7386514,-0.247615 -2.7431578,-0.248991 -2.7478468,-0.2494361 -2.7478468,-0.2494361 -2.7529509,-0.2489134 -2.7578344,-0.2473476 -2.7622954,-0.2448166 -2.766122,-0.2414001 -2.7691951,-0.2372936 -2.771373,-0.2326494 -2.7725776,-0.2276634 -2.7730642,-0.2225561 -2.7730642,-0.2225561 -2.7724243,-0.2151302 -2.7712591,-0.2115721 -2.7693792,-0.2083522 -2.7643809,-0.2028278 -2.758507,-0.1982447 -2.5979285,-0.0794707 -2.5979285,-0.022942 -2.7408266,-0.022942 -2.7408266,-0.022942 -2.7532173,-0.0220826 -2.7592609,-0.020637 -2.7649272,-0.0180974 -2.7698524,-0.0143081 -2.7733093,-0.0091664 -2.7750016,-0.003192 -2.7752811,0.0030143 -2.7752811,0.0030143 -2.7740428,0.0116644 -2.7725367,0.0157793 -2.7703347,0.0195625 -2.7675495,0.0229456 -2.7641377,0.0256873 -2.7602738,0.0277504 -2.7560679,0.0289706 -2.7560679,0.0289706 -2.7471895,0.0296062 -2.7382778,0.0295249 -2.3872298,0.0296172 -2.3872298,0.0296172 -2.379384,0.0295979 -2.3716258,0.0284472 -2.3643439,0.0255418 -2.3610928,0.0233321 -2.3582424,0.0206283 -2.3540014,0.0140383 -2.3515678,0.0065795 -2.350516,-0.0011914 -2.3503738,-0.0090372 -2.3504661,-0.1170682 -2.3504661,-0.1170682 -2.3510739,-0.1295782 -2.3525285,-0.1420147 -2.3548549,-0.1543236 -2.3582978,-0.1663618 -2.3628897,-0.1780143 -2.3685928,-0.1891629 -2.3754345,-0.1996523 -2.3833671,-0.2093416 -2.392236,-0.218184 -2.4020123,-0.2260089 -2.4126219,-0.2326612 -2.4239469,-0.2380061 -2.4357648,-0.2421476 -2.4479511,-0.2450354 -2.4603562,-0.2467482 -2.4728579,-0.2474963 -2.4728579,-0.2474963 -2.4838094,-0.2470063 -2.4947027,-0.2457754 -2.5054488,-0.2436136 -2.5160078,-0.2406618 -2.5262241,-0.2366925 -2.5360519,-0.2318337 -2.5453237,-0.225987 -2.5540654,-0.2193723 -2.5621916,-0.212015 -2.5695362,-0.2038774 -2.5760764,-0.1950796 -2.5818346,-0.185753 -2.5866009,-0.1758803 -2.5905542,-0.1656558 -2.5936768,-0.1551479 -2.5960548,-0.1444463 -2.7276175,-0.2400143z M-2.4028407,-0.1191058 L-2.4028407,-0.022942 -2.5454616,-0.022942 -2.5454616,-0.1144818 -2.5454616,-0.1144818 -2.545355,-0.1249874 -2.544531,-0.1354605 -2.5423769,-0.1457432 -2.5382567,-0.1554023 -2.5382567,-0.1554023 -2.5332155,-0.1640272 -2.526942,-0.171801 -2.5197194,-0.1787014 -2.5115689,-0.1844787 -2.5026892,-0.1890549 -2.4932631,-0.1923643 -2.4834711,-0.1943381 -2.4735045,-0.1950295 -2.4735045,-0.1950295 -2.4633988,-0.1942297 -2.4534807,-0.1921353 -2.4440169,-0.1885042 -2.4351134,-0.1836573 -2.4269902,-0.1775936 -2.4197657,-0.170483 -2.4137015,-0.1623603 -2.4088446,-0.1534625 -2.4088446,-0.1534625 -2.4056331,-0.1452737 -2.40379,-0.1366726 -2.4028407,-0.1191058z" transform="matrix(1,0,0,-1,5.93725,2.4892)" fill="rgb(104,104,104)" fill-rule="nonzero" shaper:cutDepth="0.0000762" stroke-linecap="round" stroke-linejoin="round" /><path d="M-2.7043401,-0.3876663 L-2.7572687,-0.3672094 -2.7572687,-0.3672094 -2.764683,-0.3630629 -2.7679414,-0.3603225 -2.7707153,-0.3570964 -2.7728178,-0.3533971 -2.7742855,-0.3494026 -2.7751159,-0.3452293 -2.7752811,-0.3409759 -2.7752811,-0.3409759 -2.7748766,-0.3358991 -2.773668,-0.3309556 -2.7716837,-0.326265 -2.768802,-0.3220688 -2.7651531,-0.3185186 -2.7608747,-0.3157603 -2.7560409,-0.3141641 -2.7509875,-0.3135417 -2.7509875,-0.3135417 -2.7460778,-0.313974 -2.7413365,-0.3153473 -2.7320619,-0.3187105 -2.370603,-0.4553315 -2.370603,-0.4553315 -2.3625703,-0.459211 -2.3589337,-0.4617965 -2.3557315,-0.4649073 -2.3531676,-0.4685563 -2.3513662,-0.4726385 -2.3504759,-0.4770101 -2.3504661,-0.4814725 -2.3504661,-0.4814725 -2.350666,-0.4868768 -2.3517841,-0.4921699 -2.354013,-0.4970823 -2.357535,-0.5011886 -2.3618297,-0.5044688 -2.3665218,-0.5071677 -2.3764151,-0.5115314 -2.7364852,-0.6494033 -2.7364852,-0.6494033 -2.7436576,-0.6511364 -2.7509875,-0.6519897 -2.7509875,-0.6519897 -2.756034,-0.6513504 -2.7608293,-0.6496579 -2.7651057,-0.6469053 -2.7687251,-0.6433312 -2.7715818,-0.6391236 -2.773624,-0.6344626 -2.7748789,-0.6295356 -2.7752811,-0.6244631 -2.7752811,-0.6244631 -2.7751735,-0.6198558 -2.7742547,-0.615342 -2.7723019,-0.6111702 -2.7695752,-0.6074515 -2.7662384,-0.6042823 -2.7624273,-0.6016787 -2.7541151,-0.5977261 -2.7043401,-0.5792102 -2.7043401,-0.3876663z M-2.6518732,-0.5581404 L-2.452426,-0.4827998 -2.6518732,-0.4074592 -2.6518732,-0.5581404z" transform="matrix(1,0,0,-1,5.93725,2.4892)" fill="rgb(104,104,104)" fill-rule="nonzero" shaper:cutDepth="0.0000762" stroke-linecap="round" stroke-linejoin="round" /><path d="M-2.3844587,-0.9576459 L-2.6599737,-0.9577381 -2.3685358,-0.7671937 -2.3685358,-0.7671937 -2.361699,-0.7620251 -2.3556952,-0.7559252 -2.3533058,-0.752352 -2.3515849,-0.7484104 -2.3504661,-0.739927 -2.3504661,-0.739927 -2.3515168,-0.7325581 -2.3546466,-0.7258165 -2.3568495,-0.7227591 -2.3594724,-0.7201356 -2.3659844,-0.7165571 -2.3659844,-0.7165571 -2.3702403,-0.715584 -2.3746078,-0.715365 -2.3833502,-0.7152639 -2.7410359,-0.7153562 -2.7410359,-0.7153562 -2.7518423,-0.7155489 -2.7572038,-0.7162148 -2.7623491,-0.7178503 -2.7623491,-0.7178503 -2.767845,-0.7221446 -2.771985,-0.7277573 -2.7743934,-0.7342982 -2.7752811,-0.7412202 -2.7752811,-0.7412202 -2.7747789,-0.7469031 -2.7732827,-0.7524062 -2.7705159,-0.7573924 -2.7665633,-0.7614911 -2.7616445,-0.7643902 -2.7562821,-0.7663229 -2.7449833,-0.7678231 -2.4650384,-0.7678231 -2.7584064,-0.9577381 -2.7584064,-0.9577381 -2.7650506,-0.9628222 -2.7705365,-0.9691069 -2.7726771,-0.9727348 -2.7742334,-0.9766169 -2.7752811,-0.9848954 -2.7752811,-0.9848954 -2.7748528,-0.9904118 -2.7733809,-0.9957426 -2.770674,-1.0005609 -2.7666976,-1.0044036 -2.761872,-1.0070987 -2.7566008,-1.0087934 -2.7456299,-1.0101127 -2.3820462,-1.010205 -2.3820462,-1.010205 -2.370279,-1.0092135 -2.3645666,-1.0076708 -2.3592779,-1.0050389 -2.3549449,-1.0010287 -2.3520198,-0.9958988 -2.3506189,-0.9901593 -2.3504661,-0.9842488 -2.3504661,-0.9842488 -2.3507972,-0.9779887 -2.3522792,-0.9719011 -2.3553712,-0.9664623 -2.3601115,-0.9623733 -2.3658333,-0.9598298 -2.371956,-0.9584649 -2.3844587,-0.9576459z" transform="matrix(1,0,0,-1,5.93725,2.4892)" fill="rgb(104,104,104)" fill-rule="nonzero" shaper:cutDepth="0.0000762" stroke-linecap="round" stroke-linejoin="round" /><path d="M-2.3609964,-1.2707841 L-2.5049262,-1.1284402 -2.3826895,-1.1284402 -2.3826895,-1.1284402 -2.3766884,-1.1282259 -2.3707587,-1.1273559 -2.3649787,-1.1257022 -2.3596812,-1.1229102 -2.3552807,-1.1188295 -2.3522853,-1.1136396 -2.3507963,-1.1078297 -2.3504661,-1.1018373 -2.3504661,-1.1018373 -2.3511746,-1.0949673 -2.3533748,-1.0884282 -2.3573896,-1.0828139 -2.3627514,-1.0784673 -2.3627514,-1.0784673 -2.3681853,-1.0767301 -2.3738632,-1.0761046 -2.38529,-1.075881 -2.7455394,-1.0759732 -2.7455394,-1.0759732 -2.751222,-1.076285 -2.756825,-1.0772455 -2.7622111,-1.0790913 -2.7670427,-1.0820808 -2.7709333,-1.0862268 -2.773528,-1.0912849 -2.7748795,-1.0968085 -2.7752811,-1.1024839 -2.7752811,-1.1024839 -2.7749634,-1.1080372 -2.7735816,-1.1134203 -2.7710579,-1.1183713 -2.7672219,-1.1223884 -2.7624555,-1.1252542 -2.7572143,-1.1271031 -2.7461841,-1.1284402 -2.5814849,-1.1284402 -2.5242267,-1.1846264 -2.755833,-1.3021066 -2.755833,-1.3021066 -2.7633519,-1.3068963 -2.7699148,-1.3129108 -2.7724463,-1.3165906 -2.7740982,-1.3207236 -2.7750817,-1.3250768 -2.7752811,-1.3295322 -2.7752811,-1.3295322 -2.7749008,-1.3344473 -2.7737472,-1.3392345 -2.7718355,-1.3437797 -2.7691138,-1.3478833 -2.7656791,-1.3514216 -2.761522,-1.354058 -2.7568998,-1.3557655 -2.7520035,-1.3563198 -2.7520035,-1.3563198 -2.7469137,-1.3560489 -2.741955,-1.3548393 -2.732698,-1.3505928 -2.484339,-1.2235736 -2.40006,-1.3072144 -2.3974866,-1.3097684 -2.3974866,-1.3097684 -2.3936958,-1.3141986 -2.3936958,-1.3141986 -2.3899854,-1.3173792 -2.3858155,-1.3199158 -2.3811994,-1.3215248 -2.37633,-1.3218654 -2.37633,-1.3218654 -2.3712313,-1.3212991 -2.3662883,-1.3199357 -2.3617281,-1.3175866 -2.3578184,-1.314269 -2.3546524,-1.3102339 -2.3523035,-1.3056754 -2.3509019,-1.300743 -2.3504661,-1.295632 -2.3504661,-1.295632 -2.3509562,-1.288723 -2.3530993,-1.2821425 -2.3567293,-1.2762419 -2.3609964,-1.2707841z" transform="matrix(1,0,0,-1,5.93725,2.4892)" fill="rgb(104,104,104)" fill-rule="nonzero" shaper:cutDepth="0.0000762" stroke-linecap="round" stroke-linejoin="round" /><path d="M-1.9522703,-2.2352 L-2.0284703,-2.2352 -2.0284703,2.2352 -1.9522703,2.2352 -1.9522703,-2.2352z" transform="matrix(1,0,0,-1,5.93725,2.4892)" fill="rgb(104,104,104)" fill-rule="nonzero" shaper:cutDepth="0.0000762" stroke-linecap="round" stroke-linejoin="round" /><path d="M0.89535,1.2446 a0.7874,0.7874 0 1,0 1.5748,0 a0.7874,0.7874 0 1,0 -1.5748,0z M0.97155,1.2446 a0.7112,0.7112 0 1,1 1.4224,0 a0.7112,0.7112 0 1,1 -1.4224,0z" transform="matrix(1,0,0,-1,5.93725,2.4892)" fill="rgb(104,104,104)" fill-rule="nonzero" shaper:cutDepth="0.0000762" stroke-linecap="round" stroke-linejoin="round" /><path d="M-4.9784,0.13335 a0.7874,0.7874 0 1,0 1.5748,0 a0.7874,0.7874 0 1,0 -1.5748,0z M-4.9022,0.13335 a0.7112,0.7112 0 1,1 1.4224,0 a0.7112,0.7112 0 1,1 -1.4224,0z" transform="matrix(1,0,0,-1,5.93725,2.4892)" fill="rgb(104,104,104)" fill-rule="nonzero" shaper:cutDepth="0.0000762" stroke-linecap="round" stroke-linejoin="round" /><path d="M1.04775,1.2446 a0.635,0.635 0 1,1 1.27,0 a0.635,0.635 0 1,1 -1.27,0z" transform="matrix(1,0,0,-1,5.93725,2.4892)" fill="rgb(255,255,255)" stroke="rgb(0,0,0)" stroke-width="0.0010cm" stroke-linecap="round" stroke-linejoin="round" shaper:cutDepth="0.0015875" /><path d="M-4.826,0.13335 a0.635,0.635 0 1,1 1.27,0 a0.635,0.635 0 1,1 -1.27,0z" transform="matrix(1,0,0,-1,5.93725,2.4892)" fill="rgb(255,255,255)" stroke="rgb(0,0,0)" stroke-width="0.0010cm" stroke-linecap="round" stroke-linejoin="round" shaper:cutDepth="0.0015875" /><path d="M1.1072749,-1.397 a0.5754751,0.5754751 0 1,1 1.1509502,0 a0.5754751,0.5754751 0 1,1 -1.1509502,0z" transform="matrix(1,0,0,-1,5.93725,2.4892)" fill="rgb(255,255,255)" stroke="rgb(0,0,0)" stroke-width="0.0010cm" stroke-linecap="round" stroke-linejoin="round" shaper:cutDepth="0.0015875" /><path d="M4.642485,-0.5334 a0.215265,0.215265 0 1,1 0.43053,0 a0.215265,0.215265 0 1,1 -0.43053,0z" transform="matrix(1,0,0,-1,5.93725,2.4892)" fill="rgb(255,255,255)" stroke="rgb(0,0,0)" stroke-width="0.0010cm" stroke-linecap="round" stroke-linejoin="round" shaper:cutDepth="0.0015875" /><path d="M-3.714115,1.7526 a0.215265,0.215265 0 1,1 0.43053,0 a0.215265,0.215265 0 1,1 -0.43053,0z" transform="matrix(1,0,0,-1,5.93725,2.4892)" fill="rgb(255,255,255)" stroke="rgb(0,0,0)" stroke-width="0.0010cm" stroke-linecap="round" stroke-linejoin="round" shaper:cutDepth="0.0015875" /></svg>