<?xml version="1.0" encoding="utf-8"?>
<!-- Generator: Fusion 360, Shaper Origin Export Add-In, Version 1.6.10  -->
<svg xmlns="http://www.w3.org/2000/svg" xmlns:xlink="http://www.w3.org/1999/xlink" xmlns:shaper="http://www.shapertools.com/namespaces/shaper" shaper:fusionaddin="version:1.6.10" width="2.14122cm" height="0.635cm" version="1.1" x="0cm" y="0cm" viewBox="0 0 2.14122 0.635" enable-background="new 0 0 2.14122 0.635" xml:space="preserve"><path d="M0.9096431,-0.2067278 A0.3175,0.3175 220.6254274 1,1 0.9096431,0.2067278 A0.254,0.254 319.3745726 0,0 0.7168615,0.11811 L0.6731,0.11811 0.6731,-0.11811 0.7168615,-0.11811 A0.254,0.254 90 0,0 0.9096431,-0.2067278z" transform="matrix(1,0,0,-1,0.6731,0.3175)" fill="rgb(0,0,0)" stroke-linecap="round" stroke-linejoin="round" /><path d="M-0.5478513,0.0925851 L-0.6445406,0.0456217 A0.0507185,0.0507185 115.906508 0,1 -0.6445406,-0.0456217 L-0.5478513,-0.0925851 A0.254,0.254 244.093492 0,1 -0.4368777,-0.11811 L0.6731,-0.11811 0.6731,0.11811 -0.4368777,0.11811 A0.254,0.254 90 0,1 -0.5478513,0.0925851z" transform="matrix(1,0,0,-1,0.6731,0.3175)" fill="rgb(0,0,0)" stroke-linecap="round" stroke-linejoin="round" /><path d="M1.10062,-0 a0.05,0.05 0 1,1 0.1,0 a0.05,0.05 0 1,1 -0.1,0z" transform="matrix(1,0,0,-1,0.6731,0.3175)" fill="rgb(255,255,255)" stroke="rgb(0,0,0)" stroke-width="0.0010cm" stroke-linecap="round" stroke-linejoin="round" /></svg>