<?xml version="1.0" encoding="utf-8"?>
<!-- Generator: Fusion 360, Shaper Origin Export Add-In, Version 1.6.10  -->
<svg xmlns="http://www.w3.org/2000/svg" xmlns:xlink="http://www.w3.org/1999/xlink" xmlns:shaper="http://www.shapertools.com/namespaces/shaper" shaper:fusionaddin="version:1.6.10" width="4.76504cm" height="4.76504cm" version="1.1" x="0cm" y="0cm" viewBox="0 0 4.76504 4.76504" enable-background="new 0 0 4.76504 4.76504" xml:space="preserve"><path d="M-1.3448251,-0.499308 a2.38252,2.38252 0 1,1 4.76504,0 a2.38252,2.38252 0 1,1 -4.76504,0z" transform="matrix(1,0,0,-1,1.3448251,1.883212)" fill="rgb(0,0,0)" shaper:cutDepth="0.0015875" stroke-linecap="round" stroke-linejoin="round" /><path d="M1.0757949,1.8829073 A2.38252,2.38252 89.0837171 0,1 0.9995949,1.8829073 L0.9995949,1.324412 1.0757949,1.324412 1.0757949,1.8829073z" transform="matrix(1,0,0,-1,1.3448251,1.883212)" fill="rgb(104,104,104)" fill-rule="nonzero" shaper:cutDepth="0.0000762" stroke-linecap="round" stroke-linejoin="round" /><path d="M2.6600219,1.2455291 A2.38252,2.38252 47.0837171 0,1 2.6033943,1.2965169 L2.229688,0.881474 2.2863156,0.8304862 2.6600219,1.2455291z" transform="matrix(1,0,0,-1,1.3448251,1.883212)" fill="rgb(104,104,104)" fill-rule="nonzero" shaper:cutDepth="0.0000762" stroke-linecap="round" stroke-linejoin="round" /><path d="M3.4141658,-0.3296393 A2.38252,2.38252 4.0837171 0,1 3.4075246,-0.2537292 L2.8511545,-0.3024053 2.8577957,-0.3783154 3.4141658,-0.3296393z" transform="matrix(1,0,0,-1,1.3448251,1.883212)" fill="rgb(104,104,104)" fill-rule="nonzero" shaper:cutDepth="0.0000762" stroke-linecap="round" stroke-linejoin="round" /><path d="M2.9299923,-1.9469309 A2.38252,2.38252 322.5837171 0,1 2.9753178,-1.885677 L2.5263675,-1.5534713 2.481042,-1.6147252 2.9299923,-1.9469309z" transform="matrix(1,0,0,-1,1.3448251,1.883212)" fill="rgb(104,104,104)" fill-rule="nonzero" shaper:cutDepth="0.0000762" stroke-linecap="round" stroke-linejoin="round" /><path d="M1.5770367,-2.8199786 A2.38252,2.38252 283.0837171 0,1 1.6509732,-2.8015441 L1.515861,-2.2596385 1.4419244,-2.278073 1.5770367,-2.8199786z" transform="matrix(1,0,0,-1,1.3448251,1.883212)" fill="rgb(104,104,104)" fill-rule="nonzero" shaper:cutDepth="0.0000762" stroke-linecap="round" stroke-linejoin="round" /><path d="M0.9580253,-2.8804956 A2.38252,2.38252 268.0837171 0,1 1.0342137,-2.8818255 L1.0439608,-2.3234152 0.9677724,-2.3220853 0.9580253,-2.8804956z" transform="matrix(1,0,0,-1,1.3448251,1.883212)" fill="rgb(104,104,104)" fill-rule="nonzero" shaper:cutDepth="0.0000762" stroke-linecap="round" stroke-linejoin="round" /><path d="M0.3444433,-2.7787386 A2.38252,2.38252 253.0837171 0,1 0.4176914,-2.7997422 L0.5716336,-2.262882 0.4983855,-2.2418784 0.3444433,-2.7787386z" transform="matrix(1,0,0,-1,1.3448251,1.883212)" fill="rgb(104,104,104)" fill-rule="nonzero" shaper:cutDepth="0.0000762" stroke-linecap="round" stroke-linejoin="round" /><path d="M-0.2394948,-2.5105733 A2.38252,2.38252 237.5837171 0,1 -0.1745236,-2.5503877 L0.1172894,-2.0741921 0.0523182,-2.0343777 -0.2394948,-2.5105733z" transform="matrix(1,0,0,-1,1.3448251,1.883212)" fill="rgb(104,104,104)" fill-rule="nonzero" shaper:cutDepth="0.0000762" stroke-linecap="round" stroke-linejoin="round" /><path d="M-0.7305312,-2.0961104 A2.38252,2.38252 222.0837171 0,1 -0.678563,-2.1518395 L-0.2701053,-1.7709466 -0.3220736,-1.7152175 -0.7305312,-2.0961104z" transform="matrix(1,0,0,-1,1.3448251,1.883212)" fill="rgb(104,104,104)" fill-rule="nonzero" shaper:cutDepth="0.0000762" stroke-linecap="round" stroke-linejoin="round" /><path d="M-1.3080222,-0.9164561 A2.38252,2.38252 190.0837171 0,1 -1.2934826,-0.9912561 L-0.7452484,-0.8846902 -0.759788,-0.8098902 -1.3080222,-0.9164561z" transform="matrix(1,0,0,-1,1.3448251,1.883212)" fill="rgb(104,104,104)" fill-rule="nonzero" shaper:cutDepth="0.0000762" stroke-linecap="round" stroke-linejoin="round" /><path d="M-1.3360597,-0.2951259 A2.38252,2.38252 175.0837171 0,1 -1.3413752,-0.3711403 L-0.7842403,-0.4100989 -0.7789249,-0.3340845 -1.3360597,-0.2951259z" transform="matrix(1,0,0,-1,1.3448251,1.883212)" fill="rgb(104,104,104)" fill-rule="nonzero" shaper:cutDepth="0.0000762" stroke-linecap="round" stroke-linejoin="round" /><path d="M-1.2023298,0.3122897 A2.38252,2.38252 160.0837171 0,1 -1.2271381,0.2402412 L-0.6990704,0.0584129 -0.6742621,0.1304614 -1.2023298,0.3122897z" transform="matrix(1,0,0,-1,1.3448251,1.883212)" fill="rgb(104,104,104)" fill-rule="nonzero" shaper:cutDepth="0.0000762" stroke-linecap="round" stroke-linejoin="round" /><path d="M-0.5699545,-1.3612069 L-0.6045485,-1.2933122 -1.1021715,-1.5468638 A2.38252,2.38252 206.0837171 0,1 -1.0675775,-1.6147585 L-0.5699545,-1.3612069z" transform="matrix(1,0,0,-1,1.3448251,1.883212)" fill="rgb(104,104,104)" fill-rule="nonzero" shaper:cutDepth="0.0000762" stroke-linecap="round" stroke-linejoin="round" /><path d="M-0.4912162,0.4955975 L-0.4483305,0.5585837 -0.909977,0.8729076 A2.38252,2.38252 144.8337171 0,1 -0.9528627,0.8099215 L-0.4912162,0.4955975z" transform="matrix(1,0,0,-1,1.3448251,1.883212)" fill="rgb(104,104,104)" fill-rule="nonzero" shaper:cutDepth="0.0000762" stroke-linecap="round" stroke-linejoin="round" /><path d="M-0.1875275,0.8520751 L-0.1300186,0.9020668 -0.4964245,1.3235686 A2.38252,2.38252 130.0837171 0,1 -0.5539334,1.2735769 L-0.1875275,0.8520751z" transform="matrix(1,0,0,-1,1.3448251,1.883212)" fill="rgb(104,104,104)" fill-rule="nonzero" shaper:cutDepth="0.0000762" stroke-linecap="round" stroke-linejoin="round" /><path d="M1.4019221,1.8552068 A2.38252,2.38252 81.2064409 0,1 1.3390447,1.8640773 L1.2823036,1.4618715 1.3451809,1.4530011 1.4019221,1.8552068z" transform="matrix(1,0,0,-1,1.3448251,1.883212)" fill="rgb(104,104,104)" fill-rule="nonzero" shaper:cutDepth="0.0000762" stroke-linecap="round" stroke-linejoin="round" /><path d="M1.7459408,1.7755083 A2.38252,2.38252 72.7064409 0,1 1.6850652,1.7935752 L1.5694975,1.4041741 1.6303731,1.3861073 1.7459408,1.7755083z" transform="matrix(1,0,0,-1,1.3448251,1.883212)" fill="rgb(104,104,104)" fill-rule="nonzero" shaper:cutDepth="0.0000762" stroke-linecap="round" stroke-linejoin="round" /><path d="M2.0744006,1.645836 A2.38252,2.38252 64.2064409 0,1 2.0168641,1.6727024 L1.8450087,1.3046606 1.9025452,1.2777942 2.0744006,1.645836z" transform="matrix(1,0,0,-1,1.3448251,1.883212)" fill="rgb(104,104,104)" fill-rule="nonzero" shaper:cutDepth="0.0000762" stroke-linecap="round" stroke-linejoin="round" /><path d="M2.3800857,1.4690386 A2.38252,2.38252 55.7064409 0,1 2.3271523,1.5041143 L2.1027846,1.165517 2.155718,1.1304413 2.3800857,1.4690386z" transform="matrix(1,0,0,-1,1.3448251,1.883212)" fill="rgb(104,104,104)" fill-rule="nonzero" shaper:cutDepth="0.0000762" stroke-linecap="round" stroke-linejoin="round" /><path d="M2.5534477,0.768979 L2.5934095,0.7196302 2.9090772,0.9752529 A2.38252,2.38252 38.2364409 0,1 2.8691154,1.0246017 L2.5534477,0.768979z" transform="matrix(1,0,0,-1,1.3448251,1.883212)" fill="rgb(104,104,104)" fill-rule="nonzero" shaper:cutDepth="0.0000762" stroke-linecap="round" stroke-linejoin="round" /><path d="M2.7242632,0.5310054 L2.7564919,0.476292 3.1064757,0.6824482 A2.38252,2.38252 29.7364409 0,1 3.074247,0.7371616 L2.7242632,0.5310054z" transform="matrix(1,0,0,-1,1.3448251,1.883212)" fill="rgb(104,104,104)" fill-rule="nonzero" shaper:cutDepth="0.0000762" stroke-linecap="round" stroke-linejoin="round" /><path d="M2.8580277,0.2703977 L2.8818152,0.2115215 3.2584266,0.3636824 A2.38252,2.38252 21.2364409 0,1 3.2346391,0.4225585 L2.8580277,0.2703977z" transform="matrix(1,0,0,-1,1.3448251,1.883212)" fill="rgb(104,104,104)" fill-rule="nonzero" shaper:cutDepth="0.0000762" stroke-linecap="round" stroke-linejoin="round" /><path d="M2.9518027,-0.0071192 L2.9666265,-0.0688647 3.3615919,0.0259581 A2.38252,2.38252 12.7364409 0,1 3.3467681,0.0877036 L2.9518027,-0.0071192z" transform="matrix(1,0,0,-1,1.3448251,1.883212)" fill="rgb(104,104,104)" fill-rule="nonzero" shaper:cutDepth="0.0000762" stroke-linecap="round" stroke-linejoin="round" /><path d="M3.0120673,-0.5882565 L3.0081908,-0.651638 3.4136216,-0.6764352 A2.38252,2.38252 355.7364409 0,1 3.4174982,-0.6130537 L3.0120673,-0.5882565z" transform="matrix(1,0,0,-1,1.3448251,1.883212)" fill="rgb(104,104,104)" fill-rule="nonzero" shaper:cutDepth="0.0000762" stroke-linecap="round" stroke-linejoin="round" /><path d="M2.9772331,-0.8791103 L2.9640308,-0.9412226 3.361343,-1.025674 A2.38252,2.38252 347.2364409 0,1 3.3745454,-0.9635616 L2.9772331,-0.8791103z" transform="matrix(1,0,0,-1,1.3448251,1.883212)" fill="rgb(104,104,104)" fill-rule="nonzero" shaper:cutDepth="0.0000762" stroke-linecap="round" stroke-linejoin="round" /><path d="M2.8997906,-1.1616205 L2.8775525,-1.2210992 3.2580179,-1.3633493 A2.38252,2.38252 338.7364409 0,1 3.2802561,-1.3038707 L2.8997906,-1.1616205z" transform="matrix(1,0,0,-1,1.3448251,1.883212)" fill="rgb(104,104,104)" fill-rule="nonzero" shaper:cutDepth="0.0000762" stroke-linecap="round" stroke-linejoin="round" /><path d="M2.7814411,-1.4295808 L2.7506557,-1.4851192 3.1059161,-1.6820432 A2.38252,2.38252 330.2364409 0,1 3.1367015,-1.6265049 L2.7814411,-1.4295808z" transform="matrix(1,0,0,-1,1.3448251,1.883212)" fill="rgb(104,104,104)" fill-rule="nonzero" shaper:cutDepth="0.0000762" stroke-linecap="round" stroke-linejoin="round" /><path d="M2.4694173,-1.8617431 L2.4249095,-1.9070345 2.7146236,-2.1917358 A2.38252,2.38252 314.7364409 0,1 2.7591313,-2.1464444 L2.4694173,-1.8617431z" transform="matrix(1,0,0,-1,1.3448251,1.883212)" fill="rgb(104,104,104)" fill-rule="nonzero" shaper:cutDepth="0.0000762" stroke-linecap="round" stroke-linejoin="round" /><path d="M2.2658695,-2.0477412 L2.2154916,-2.0863976 2.4627634,-2.4086485 A2.38252,2.38252 306.7364409 0,1 2.5131414,-2.3699922 L2.2658695,-2.0477412z" transform="matrix(1,0,0,-1,1.3448251,1.883212)" fill="rgb(104,104,104)" fill-rule="nonzero" shaper:cutDepth="0.0000762" stroke-linecap="round" stroke-linejoin="round" /><path d="M2.0384168,-2.2036009 L1.9831492,-2.2348698 2.1831659,-2.5883982 A2.38252,2.38252 298.7364409 0,1 2.2384335,-2.5571293 L2.0384168,-2.2036009z" transform="matrix(1,0,0,-1,1.3448251,1.883212)" fill="rgb(104,104,104)" fill-rule="nonzero" shaper:cutDepth="0.0000762" stroke-linecap="round" stroke-linejoin="round" /><path d="M1.7914861,-2.3262884 L1.7324046,-2.3495612 1.8812731,-2.727486 A2.38252,2.38252 290.7364409 0,1 1.9403546,-2.7042132 L1.7914861,-2.3262884z" transform="matrix(1,0,0,-1,1.3448251,1.883212)" fill="rgb(104,104,104)" fill-rule="nonzero" shaper:cutDepth="0.0000762" stroke-linecap="round" stroke-linejoin="round" /><path d="M1.292944,-2.459131 L1.2298521,-2.4663194 1.275834,-2.8698968 A2.38252,2.38252 275.7364409 0,1 1.3389258,-2.8627084 L1.292944,-2.459131z" transform="matrix(1,0,0,-1,1.3448251,1.883212)" fill="rgb(104,104,104)" fill-rule="nonzero" shaper:cutDepth="0.0000762" stroke-linecap="round" stroke-linejoin="round" /><path d="M0.777007,-2.458415 L0.7142045,-2.4490291 0.6541661,-2.8507559 A2.38252,2.38252 260.7364409 0,1 0.7169686,-2.8601418 L0.777007,-2.458415z" transform="matrix(1,0,0,-1,1.3448251,1.883212)" fill="rgb(104,104,104)" fill-rule="nonzero" shaper:cutDepth="0.0000762" stroke-linecap="round" stroke-linejoin="round" /><path d="M0.0491669,-2.6670751 A2.38252,2.38252 245.4864409 0,1 0.1072892,-2.6926495 L0.2708803,-2.3208605 0.212758,-2.2952861 0.0491669,-2.6670751z" transform="matrix(1,0,0,-1,1.3448251,1.883212)" fill="rgb(104,104,104)" fill-rule="nonzero" shaper:cutDepth="0.0000762" stroke-linecap="round" stroke-linejoin="round" /><path d="M-0.4941913,-2.3240617 A2.38252,2.38252 229.9864409 0,1 -0.4450174,-2.3642385 L-0.1880198,-2.0496892 -0.2371937,-2.0095124 -0.4941913,-2.3240617z" transform="matrix(1,0,0,-1,1.3448251,1.883212)" fill="rgb(104,104,104)" fill-rule="nonzero" shaper:cutDepth="0.0000762" stroke-linecap="round" stroke-linejoin="round" /><path d="M-0.931989,-1.8397359 A2.38252,2.38252 214.2364409 0,1 -0.8955669,-1.8917521 L-0.5628368,-1.658772 -0.5992589,-1.6067558 -0.931989,-1.8397359z" transform="matrix(1,0,0,-1,1.3448251,1.883212)" fill="rgb(104,104,104)" fill-rule="nonzero" shaper:cutDepth="0.0000762" stroke-linecap="round" stroke-linejoin="round" /><path d="M-1.2251588,-1.2448916 A2.38252,2.38252 198.2364409 0,1 -1.2044852,-1.304932 L-0.8204265,-1.17269 -0.8411,-1.1126495 -1.2251588,-1.2448916z" transform="matrix(1,0,0,-1,1.3448251,1.883212)" fill="rgb(104,104,104)" fill-rule="nonzero" shaper:cutDepth="0.0000762" stroke-linecap="round" stroke-linejoin="round" /><path d="M-1.3421083,-0.6130537 A2.38252,2.38252 182.7364409 0,1 -1.3382317,-0.6764352 L-0.9328009,-0.651638 -0.9366775,-0.5882565 -1.3421083,-0.6130537z" transform="matrix(1,0,0,-1,1.3448251,1.883212)" fill="rgb(104,104,104)" fill-rule="nonzero" shaper:cutDepth="0.0000762" stroke-linecap="round" stroke-linejoin="round" /><path d="M-1.290458,0.0067605 A2.38252,2.38252 167.7364409 0,1 -1.3031179,-0.0554647 L-0.9050838,-0.1364457 -0.892424,-0.0742204 -1.290458,0.0067605z" transform="matrix(1,0,0,-1,1.3448251,1.883212)" fill="rgb(104,104,104)" fill-rule="nonzero" shaper:cutDepth="0.0000762" stroke-linecap="round" stroke-linejoin="round" /><path d="M-1.0777619,0.5967048 A2.38252,2.38252 152.6114409 0,1 -1.1062194,0.5399384 L-0.7431036,0.3579054 -0.7146462,0.4146718 -1.0777619,0.5967048z" transform="matrix(1,0,0,-1,1.3448251,1.883212)" fill="rgb(104,104,104)" fill-rule="nonzero" shaper:cutDepth="0.0000762" stroke-linecap="round" stroke-linejoin="round" /><path d="M-0.7220105,1.1068796 A2.38252,2.38252 137.6114409 0,1 -0.7641905,1.0594128 L-0.4605613,0.7896011 -0.4183812,0.8370679 -0.7220105,1.1068796z" transform="matrix(1,0,0,-1,1.3448251,1.883212)" fill="rgb(104,104,104)" fill-rule="nonzero" shaper:cutDepth="0.0000762" stroke-linecap="round" stroke-linejoin="round" /><path d="M1.1720878,1.1082025 L1.1720878,1.1082025 1.1771626,1.0880867 1.1813554,1.0677684 1.1813554,1.0677684 1.184128,1.0506724 1.1859919,1.0334531 1.187031,1.0161648 1.1873212,0.9988478 1.1868557,0.981534 1.1857364,0.9642506 1.1839386,0.9470243 1.1815129,0.9298751 1.1783451,0.9128473 1.1740966,0.8960567 1.1687569,0.8795802 1.1622452,0.8635315 1.1546033,0.8479887 1.145811,0.8330671 1.1358827,0.8188754 1.1249262,0.8054619 1.1249262,0.8054619 1.1163726,0.7966066 1.1070653,0.7885496 1.0969678,0.7815057 1.0861567,0.7756179 1.0747442,0.7710018 1.0628824,0.7677084 1.0507252,0.7657707 1.0384289,0.7651652 1.0384289,0.7651652 1.0288328,0.7654842 1.0192905,0.7665571 1.0098618,0.7683642 1.0006331,0.7710143 0.9916689,0.7744531 0.9830713,0.7787257 0.9749303,0.7838153 0.967256,0.7895853 0.9600961,0.7959813 0.9535293,0.8029865 0.9474888,0.81045 0.9419317,0.8182803 0.9322466,0.8348531 0.9240654,0.8522278 0.9169004,0.8700447 0.9107166,0.8882267 0.9054919,0.9067063 0.9012361,0.9254333 0.8979437,0.944353 0.8955915,0.9634131 0.8941551,0.9825634 0.8936509,1.0017613 0.8939866,1.0209629 0.8951915,1.0401293 0.8973037,1.0592172 0.9003512,1.078178 0.9043537,1.0969612 0.9093761,1.115496 0.9153809,1.1337383 0.922311,1.1516483 0.9303047,1.1691092 0.9397332,1.1858307 0.9451827,1.1937366 0.9511589,1.2012514 0.9576712,1.2083067 0.9646972,1.2148513 0.9722994,1.2207144 0.9804289,1.2258223 0.988983,1.2301829 0.9979058,1.233724 1.0071246,1.2364112 1.0165466,1.2382505 1.0260871,1.2393405 1.035683,1.2396646 1.035683,1.2396646 1.0483975,1.239069 1.0609914,1.2372331 1.0732836,1.2339332 1.085124,1.2292625 1.0962601,1.2231027 1.1065626,1.2156289 1.115918,1.2069987 1.1242931,1.1974159 1.139201,1.1767907 1.1524614,1.1550688 1.1583017,1.1437602 1.1635638,1.1321724 1.1682286,1.1203297 1.1720878,1.1082025z M1.0785197,0.8680009 L1.0785197,0.8680009 1.083411,0.8764754 1.087727,0.8852569 1.0949242,0.9034479 1.1004118,0.9222303 1.1045353,0.9413601 1.1075069,0.9607045 1.1092834,0.9801949 1.1098946,0.9997566 1.1094128,1.0193218 1.1077944,1.0388267 1.1048427,1.0581729 1.1006126,1.0772831 1.0950152,1.0960344 1.087927,1.11427 1.0786268,1.1314808 1.0730538,1.1395234 1.0667895,1.1470389 1.0599232,1.154012 1.0524332,1.1603068 1.0524332,1.1603068 1.0459247,1.164157 1.0387722,1.1665538 1.0386349,1.1665538 1.0386349,1.1665538 1.0317783,1.1646294 1.0253165,1.1616187 1.0193328,1.1577535 1.0139576,1.1530758 1.0091058,1.1478567 1.004787,1.1421877 0.997415,1.1299927 0.9912467,1.1171401 0.9861069,1.1038457 0.9819196,1.0902193 0.9785759,1.0763629 0.9738699,1.0482511 0.9724244,1.0340702 0.9716582,1.0198366 0.9716708,0.9913312 0.972448,0.9770981 0.9741051,0.9629419 0.9741051,0.9629419 0.9762664,0.9507188 0.9791673,0.9386481 0.9861879,0.9148366 0.9949043,0.8915964 1.0001636,0.8803502 1.0061648,0.8694843 1.0130495,0.859154 1.0210653,0.8496856 1.0256847,0.8455452 1.0307323,0.8419346 1.0362819,0.8391719 1.0422466,0.8374729 1.0453508,0.8373413 1.0484204,0.8378244 1.0541084,0.8402837 1.0591683,0.8438765 1.0636739,0.8481461 1.071576,0.8577115 1.0785197,0.8680009z" transform="matrix(1,0,0,-1,1.3448251,1.883212)" fill="rgb(104,104,104)" fill-rule="nonzero" shaper:cutDepth="0.0000762" stroke-linecap="round" stroke-linejoin="round" /><path d="M2.1168659,0.5106365 L2.1168659,0.5106365 2.117827,0.5179132 2.117827,0.9190959 2.117827,0.9190959 2.1164606,0.9263216 2.1143011,0.9333408 2.1103145,0.9394999 2.1053329,0.9449078 2.1053329,0.9449078 2.0989616,0.9498422 2.091694,0.9533226 2.0838333,0.9550939 2.0757761,0.9552875 2.0677893,0.9541911 2.0601944,0.9515066 2.0533417,0.9472653 2.0475994,0.9416127 2.0475994,0.9416127 2.0441753,0.9367121 2.042016,0.9311505 2.0400481,0.9193705 2.0400481,0.517364 2.0400481,0.517364 2.0413848,0.5093274 2.0440297,0.5016435 2.0440297,0.5016435 2.0496136,0.4932349 2.0531679,0.4896404 2.0572417,0.4866509 2.0616836,0.4842401 2.0664739,0.4826287 2.0765005,0.4814608 2.0765005,0.4814608 2.0833293,0.4818117 2.0900792,0.4828821 2.096611,0.4849041 2.1026808,0.4880453 2.1079072,0.4924468 2.1120158,0.4979073 2.1149825,0.504064 2.1168659,0.5106365z" transform="matrix(1,0,0,-1,1.3448251,1.883212)" fill="rgb(104,104,104)" fill-rule="nonzero" shaper:cutDepth="0.0000762" stroke-linecap="round" stroke-linejoin="round" /><path d="M2.5009122,-0.5736596 L2.5009122,-0.5736596 2.5015499,-0.5808535 2.5035066,-0.587803 2.5068841,-0.5941848 2.5114867,-0.5997492 2.5170643,-0.604336 2.5234448,-0.6077159 2.530379,-0.609727 2.5375705,-0.6103866 2.7449581,-0.6103866 2.7449581,-0.6103866 2.7526487,-0.6099972 2.7602382,-0.6087224 2.7675143,-0.6062036 2.7740479,-0.602141 2.77922,-0.5964493 2.7827363,-0.5896058 2.7846486,-0.5821496 2.7852676,-0.5744747 2.7848331,-0.5667883 2.7830929,-0.5592905 2.7796122,-0.5524306 2.7744122,-0.5467573 2.7679859,-0.5425334 2.7608088,-0.5397313 2.7532987,-0.5380596 2.7456446,-0.5372072 2.5873077,-0.5372072 2.5873077,-0.5372072 2.591803,-0.5240953 2.591803,-0.5240953 2.5963901,-0.5125891 2.6016481,-0.5013745 2.6074627,-0.4904364 2.613931,-0.4798736 2.6281694,-0.4596037 2.6439073,-0.4404812 2.6439073,-0.4404812 2.6512082,-0.4328974 2.6589569,-0.4257729 2.6671574,-0.419171 2.6757746,-0.4131273 2.6932116,-0.4013249 2.70981,-0.3883769 2.70981,-0.3883769 2.7200629,-0.3795283 2.729894,-0.3702145 2.7486651,-0.3506888 2.7486651,-0.3506888 2.758921,-0.3384009 2.7678148,-0.3250966 2.7750248,-0.3108085 2.7803637,-0.2957221 2.7835329,-0.280036 2.7845859,-0.2640666 2.7836847,-0.2480889 2.7809285,-0.2323222 2.7764734,-0.2169598 2.7701453,-0.2022693 2.7618597,-0.188589 2.7569762,-0.1822501 2.7516127,-0.1763116 2.7397406,-0.1655906 2.726536,-0.1565626 2.712366,-0.1491382 2.6975219,-0.1431639 2.6975219,-0.1431639 2.6842503,-0.1394432 2.6706995,-0.1369271 2.6569548,-0.1359059 2.6431794,-0.1363568 2.6295474,-0.1383842 2.6162187,-0.1418925 2.6033686,-0.1468761 2.5910776,-0.1531128 2.5794028,-0.1604403 2.5685813,-0.1689748 2.55874,-0.178624 2.5500594,-0.1893288 2.5427593,-0.2010185 2.5368731,-0.2134808 2.5324381,-0.2265298 2.5293327,-0.2399585 2.5293327,-0.2399585 2.5279138,-0.2582665 2.5276517,-0.2674499 2.5280284,-0.2766169 2.5280284,-0.2766169 2.5299335,-0.2845214 2.533698,-0.2917281 2.5391587,-0.2977478 2.545869,-0.3023452 2.5533601,-0.3055087 2.5613323,-0.3071169 2.569462,-0.3070242 2.5774554,-0.305518 2.5774554,-0.305518 2.5832675,-0.3032943 2.5887291,-0.3003193 2.5936045,-0.2964492 2.5976878,-0.2917587 2.6009797,-0.2864779 2.6035091,-0.2807943 2.6049009,-0.2747322 2.6048462,-0.2685164 2.6048462,-0.2685164 2.604503,-0.2650153 2.604503,-0.2650153 2.60459,-0.2578461 2.6053518,-0.2507177 2.6070275,-0.2437477 2.6096058,-0.2370577 2.6131678,-0.2308377 2.6176584,-0.2252496 2.6229244,-0.2203855 2.6287668,-0.2162303 2.635042,-0.2127634 2.6417065,-0.2101184 2.6487031,-0.2085682 2.6558566,-0.2080977 2.6629788,-0.2088998 2.6698652,-0.2108921 2.6764035,-0.2138298 2.6825565,-0.2175104 2.6825565,-0.2175104 2.6919976,-0.2248362 2.6960613,-0.2292231 2.6996485,-0.2340092 2.7025529,-0.2392363 2.7047623,-0.2447936 2.706278,-0.2505789 2.7071452,-0.2564964 2.7074069,-0.2624713 2.7070494,-0.2684412 2.7060438,-0.2743365 2.7043715,-0.2800785 2.7021017,-0.2856114 2.6992643,-0.2908764 2.6920986,-0.300438 2.6920986,-0.300438 2.6787247,-0.3143598 2.6647283,-0.3276545 2.6499358,-0.340058 2.6342965,-0.3513753 2.6342965,-0.3513753 2.6222673,-0.3598637 2.6107205,-0.3689976 2.5996546,-0.3787084 2.5890595,-0.3889308 2.5790264,-0.3997054 2.5695241,-0.410951 2.5605247,-0.4226029 2.5520714,-0.434657 2.5441514,-0.447068 2.5368186,-0.4598345 2.5300321,-0.4729 2.5239346,-0.4863002 2.5184173,-0.4999503 2.5136442,-0.5138773 2.5095603,-0.5280224 2.5061981,-0.5423558 2.5061981,-0.5423558 2.5009122,-0.5736596z" transform="matrix(1,0,0,-1,1.3448251,1.883212)" fill="rgb(104,104,104)" fill-rule="nonzero" shaper:cutDepth="0.0000762" stroke-linecap="round" stroke-linejoin="round" /><path d="M2.3737943,-1.4940488 L2.3737943,-1.4940488 2.3663939,-1.4797723 2.3618702,-1.4731199 2.356843,-1.466838 2.3512184,-1.4610869 2.3450719,-1.4558968 2.3385377,-1.4512016 2.3315748,-1.4471752 2.3242977,-1.443741 2.3167328,-1.4410083 2.3089461,-1.4389825 2.3009876,-1.4378138 2.2929496,-1.4374789 2.2849194,-1.4379601 2.2769737,-1.4392186 2.2691737,-1.4411893 2.2691737,-1.4411893 2.2653981,-1.4421504 2.2653981,-1.4421504 2.2607986,-1.4436607 2.2607986,-1.4436607 2.2546801,-1.4443378 2.2485302,-1.444093 2.2425159,-1.4427829 2.2367716,-1.4405715 2.2367716,-1.4405715 2.2307486,-1.4370203 2.2256951,-1.4321807 2.2217068,-1.4264401 2.218717,-1.4201142 2.218717,-1.4201142 2.2168635,-1.4126315 2.2168635,-1.4126315 2.2163045,-1.4050206 2.2173451,-1.3974676 2.2202964,-1.3904333 2.2248954,-1.3843483 2.3107748,-1.2842585 2.2075959,-1.2842585 2.2075959,-1.2842585 2.1996758,-1.2834825 2.1921047,-1.2810428 2.1852853,-1.2769455 2.1795424,-1.2714374 2.1750198,-1.2648904 2.1720707,-1.2575011 2.1708597,-1.2496397 2.1713494,-1.2416964 2.1713494,-1.2416964 2.1727826,-1.2353075 2.1750473,-1.2291649 2.1784162,-1.2235543 2.1828481,-1.2187386 2.1883358,-1.2151717 2.1944259,-1.2127754 2.2008536,-1.2115333 2.2073899,-1.2111477 2.3827186,-1.2111477 2.3827186,-1.2111477 2.3898039,-1.2114971 2.3967887,-1.2127068 2.4035029,-1.2149956 2.4096621,-1.2185043 2.4148752,-1.2233074 2.4188081,-1.2292063 2.4215269,-1.2357531 2.4231527,-1.2426574 2.4231527,-1.2426574 2.4236482,-1.2497478 2.4226877,-1.2567793 2.4200543,-1.2633797 2.4157386,-1.2690185 2.3320218,-1.3697392 2.3320218,-1.3697392 2.3391954,-1.3714423 2.3391954,-1.3714423 2.3413921,-1.3719228 2.3413921,-1.3719228 2.3527155,-1.3761223 2.3637821,-1.3809548 2.3745226,-1.3864784 2.3848412,-1.3927516 2.394676,-1.3997605 2.4039628,-1.4074802 2.4125939,-1.4159265 2.4205222,-1.4250355 2.4277781,-1.4346898 2.4342851,-1.4448622 2.440055,-1.4554715 2.444997,-1.4664897 2.4491283,-1.4778375 2.4524023,-1.4894614 2.4547953,-1.5012983 2.4563786,-1.5132704 2.4563786,-1.5132704 2.457054,-1.5320031 2.4564538,-1.5413604 2.455197,-1.5506528 2.4533728,-1.55985 2.4509428,-1.5689068 2.4444513,-1.5864918 2.4360152,-1.6032319 2.4256971,-1.6188846 2.4137697,-1.6333467 2.4002927,-1.6463801 2.4002927,-1.6463801 2.3889744,-1.6554709 2.3768818,-1.663502 2.3641263,-1.670432 2.3507322,-1.6760304 2.3368789,-1.6803659 2.3226655,-1.6833231 2.3082563,-1.6850796 2.2937499,-1.6856472 2.2937499,-1.6856472 2.2798427,-1.685148 2.2660184,-1.6835614 2.2523818,-1.680785 2.239052,-1.6767914 2.2261154,-1.6716641 2.2136912,-1.6653965 2.201923,-1.6579702 2.1908161,-1.6495865 2.1804229,-1.6403325 2.1708678,-1.6302167 2.1621876,-1.6193395 2.1546017,-1.6076743 2.1480808,-1.5953812 2.1427768,-1.582516 2.1385247,-1.5692665 2.1354462,-1.5556953 2.1354462,-1.5556953 2.1346445,-1.5542782 2.134383,-1.5525937 2.1341994,-1.5492148 2.1340732,-1.5424461 2.1340732,-1.5424461 2.135786,-1.5360246 2.1382566,-1.5298567 2.141726,-1.5241901 2.1462391,-1.5193146 2.1517369,-1.5155874 2.1578622,-1.5130168 2.1643734,-1.5116908 2.1710062,-1.5112796 2.1710062,-1.5112796 2.1765113,-1.5117364 2.1818866,-1.5130331 2.1921499,-1.5171147 2.1921499,-1.5171147 2.1987219,-1.521683 2.2042239,-1.5275063 2.2085664,-1.5342455 2.2102417,-1.5378936 2.2109597,-1.5418283 2.2109597,-1.5418283 2.2127452,-1.5502058 2.2153503,-1.5583825 2.2186346,-1.5662982 2.2227672,-1.5738185 2.2227672,-1.5738185 2.2309005,-1.5847741 2.2404471,-1.5945181 2.2514098,-1.6026304 2.2574008,-1.6059008 2.2637006,-1.6085266 2.2701995,-1.6106085 2.2768858,-1.6119846 2.28366,-1.6128099 2.2904827,-1.6130129 2.3040838,-1.611929 2.3174337,-1.6091039 2.3174337,-1.6091039 2.326974,-1.60581 2.3359208,-1.6011273 2.3442295,-1.5953956 2.3519065,-1.5888374 2.3589974,-1.5816484 2.3652116,-1.5736958 2.3703867,-1.5650228 2.3740689,-1.5556266 2.3740689,-1.5556266 2.3780505,-1.5432699 2.3780505,-1.5432699 2.3785962,-1.518316 2.378569,-1.5120759 2.3776818,-1.5058981 2.3737943,-1.4940488z" transform="matrix(1,0,0,-1,1.3448251,1.883212)" fill="rgb(104,104,104)" fill-rule="nonzero" shaper:cutDepth="0.0000762" stroke-linecap="round" stroke-linejoin="round" /><path d="M1.2253541,-2.0602314 L1.2253541,-2.0602314 1.2238584,-2.06824 1.2240008,-2.0723225 1.2247525,-2.076346 1.2276645,-2.0839599 1.2319748,-2.0908838 1.2375683,-2.0968018 1.2408215,-2.0992532 1.2444121,-2.1011918 1.2521257,-2.103788 1.2602277,-2.1045784 1.411186,-2.1045784 1.411186,-2.1045784 1.411392,-2.1516027 1.411392,-2.1516027 1.4115644,-2.1563902 1.4123336,-2.1611163 1.4137231,-2.1657007 1.4158264,-2.170003 1.4185178,-2.1739629 1.4218566,-2.1773987 1.4256406,-2.1803323 1.4298,-2.1827094 1.4387244,-2.1861592 1.4481923,-2.1875189 1.4577199,-2.1866439 1.4668601,-2.1837989 1.4668601,-2.1837989 1.475584,-2.1783518 1.4794482,-2.1749432 1.4827672,-2.1710066 1.4853734,-2.1665653 1.4872712,-2.1617778 1.4883483,-2.1567418 1.4886904,-2.1516027 1.4886904,-2.1045784 1.5388039,-2.1045784 1.5388039,-2.1045784 1.5464125,-2.1041448 1.5538791,-2.1026403 1.5609472,-2.0998156 1.5670803,-2.0953191 1.5718983,-2.0894211 1.5757366,-2.082832 1.5782764,-2.0756537 1.5791691,-2.0680885 1.5782263,-2.0605291 1.5756528,-2.0533629 1.5718358,-2.0467585 1.5670133,-2.0408668 1.5641277,-2.0383767 1.5608859,-2.0363737 1.553878,-2.0334196 1.5464136,-2.0319006 1.5388039,-2.0314676 1.4886904,-2.0314676 1.4886904,-1.9414692 1.4886904,-1.9414692 1.4876317,-1.9331635 1.4844988,-1.9253918 1.4796133,-1.9185954 1.473519,-1.9128427 1.473519,-1.9128427 1.4690612,-1.9099825 1.4643075,-1.9076491 1.459279,-1.9059862 1.454059,-1.9050954 1.4487652,-1.9049497 1.4434994,-1.9055132 1.4333744,-1.9085792 1.4241628,-1.9137772 1.4201814,-1.9172675 1.4168323,-1.9213692 1.4142265,-1.9259789 1.4124816,-1.9309787 1.411498,-1.9361818 1.411186,-1.9414692 1.411186,-2.0314676 1.3131558,-2.0314676 1.4013006,-1.7614038 1.4013006,-1.7614038 1.402811,-1.7553854 1.4034284,-1.7492127 1.4028458,-1.7430369 1.4010151,-1.7371121 1.3979564,-1.7317136 1.3940005,-1.7269356 1.3893401,-1.7228392 1.3842758,-1.7192535 1.3842758,-1.7192535 1.3766451,-1.7159122 1.3685215,-1.7140932 1.3601941,-1.7139309 1.352004,-1.7154357 1.3442606,-1.718505 1.3374106,-1.7232359 1.3319883,-1.7295534 1.3281898,-1.7369649 1.3281898,-1.7369649 1.327572,-1.7396422 1.2253541,-2.0602314z" transform="matrix(1,0,0,-1,1.3448251,1.883212)" fill="rgb(104,104,104)" fill-rule="nonzero" shaper:cutDepth="0.0000762" stroke-linecap="round" stroke-linejoin="round" /><path d="M0.4150321,-2.0022233 L0.4150321,-2.0022233 0.4214666,-1.9711391 0.4252942,-1.9557356 0.4299975,-1.9405768 0.4299975,-1.9405768 0.437859,-1.9183907 0.4470224,-1.8967103 0.4470224,-1.8967103 0.4595517,-1.8710274 0.4736287,-1.8461603 0.4894381,-1.8223583 0.5069619,-1.7997885 0.5260983,-1.7785621 0.5464716,-1.7585192 0.5679417,-1.7396563 0.5903607,-1.7219308 0.5926948,-1.7202833 0.5926948,-1.7202833 0.5986998,-1.7172842 0.6050015,-1.7149867 0.6115767,-1.7136281 0.6182828,-1.7135594 0.6248674,-1.7148465 0.6310883,-1.717361 0.6367348,-1.7209856 0.6418021,-1.7253854 0.646327,-1.7303442 0.6501199,-1.7358773 0.6529283,-1.7419728 0.6542951,-1.7485367 0.653985,-1.755236 0.6522055,-1.7617049 0.6492693,-1.7677364 0.6454856,-1.77328 0.6454856,-1.77328 0.6424326,-1.776281 0.6388953,-1.7787033 0.6388953,-1.7787033 0.6131927,-1.7994166 0.600791,-1.8103106 0.5887954,-1.8216528 0.5772932,-1.8334895 0.5665111,-1.8459865 0.5564884,-1.8590999 0.5471121,-1.8726833 0.5471121,-1.8726833 0.5444373,-1.8769658 0.5444373,-1.8769658 0.55544,-1.8759833 0.5682455,-1.8754232 0.5819316,-1.875596 0.5955696,-1.8768108 0.6081768,-1.879177 0.6196848,-1.8824303 0.6303441,-1.8862697 0.6404056,-1.8903946 0.6404056,-1.8903946 0.6508009,-1.8956094 0.6607615,-1.9016114 0.6702417,-1.9083478 0.6791606,-1.9158113 0.6874294,-1.9239885 0.6950788,-1.9327492 0.7019704,-1.942116 0.7082095,-1.9519317 0.7137683,-1.9621455 0.7187164,-1.972672 0.7228571,-1.9835374 0.7262119,-1.994674 0.7286679,-2.0060399 0.7302297,-2.0175644 0.7307501,-2.0291819 0.7303353,-2.0408038 0.7303353,-2.0408038 0.7237506,-2.046456 0.7166056,-2.0513757 0.7166056,-2.0513757 0.7188381,-2.0564974 0.7204344,-2.0618518 0.7213704,-2.0673604 0.7216531,-2.0729392 0.7212442,-2.0785122 0.7202021,-2.0840008 0.7167426,-2.0946206 0.7119881,-2.104737 0.7062967,-2.1143555 0.6997832,-2.1234358 0.6926472,-2.1320379 0.6926472,-2.1320379 0.677564,-2.146874 0.6694395,-2.1536553 0.6609159,-2.1599265 0.6520253,-2.1656662 0.642774,-2.170804 0.6331784,-2.1752655 0.6233042,-2.1790708 0.6131889,-2.1821798 0.6028849,-2.1845893 0.5924354,-2.1862616 0.5819024,-2.1872804 0.5607463,-2.1874498 0.539698,-2.1853092 0.539698,-2.1853092 0.5247943,-2.1821508 0.5102209,-2.1777149 0.4962004,-2.1717567 0.4828913,-2.1643432 0.4705623,-2.1553975 0.4592899,-2.1451494 0.4492329,-2.1337077 0.4403904,-2.1213017 0.4326964,-2.1081538 0.4260575,-2.0944416 0.4206337,-2.0802066 0.4165453,-2.0655318 0.4138842,-2.0505323 0.4127171,-2.0353442 0.4129602,-2.0201122 0.4146202,-2.0049692 0.4150321,-2.0022233z M0.6141818,-2.1019698 L0.6141818,-2.1019698 0.6228378,-2.0959026 0.6306951,-2.0888345 0.6375407,-2.0807813 0.6432151,-2.0718649 0.6475895,-2.0622439 0.6505694,-2.0521033 0.6522273,-2.0416642 0.6527624,-2.0311075 0.6522891,-2.0205477 0.6506457,-2.0101061 0.6476665,-1.9999657 0.6433521,-1.9903173 0.6376785,-1.9814005 0.6307938,-1.9733809 0.6229058,-1.9663469 0.6142505,-1.9602789 0.6142505,-1.9602789 0.6055041,-1.9552655 0.5963035,-1.9511479 0.5866506,-1.9482401 0.5766868,-1.9467193 0.5666079,-1.9465492 0.5566131,-1.9478602 0.5468726,-1.9504527 0.5375013,-1.9541692 0.5375013,-1.9541692 0.5299045,-1.9580577 0.522767,-1.9627369 0.5162303,-1.9682221 0.510377,-1.9744331 0.5052235,-1.9812355 0.5008243,-1.9885481 0.4971328,-1.9962439 0.4940547,-2.0042045 0.4917005,-2.0124074 0.4901912,-2.0208086 0.4895397,-2.0293174 0.489834,-2.0378477 0.4910031,-2.0463011 0.4930024,-2.0545995 0.4957768,-2.0626694 0.499264,-2.07046 0.499264,-2.07046 0.5034531,-2.0788422 0.5089817,-2.0864124 0.5155003,-2.0931461 0.5227848,-2.0990443 0.5306001,-2.1042203 0.5388356,-2.108691 0.5475522,-2.1121444 0.5567229,-2.1140519 0.5567229,-2.1140519 0.5641823,-2.1146465 0.5716633,-2.1146342 0.5791314,-2.1141487 0.586521,-2.1129846 0.5937932,-2.1112184 0.6008403,-2.1087079 0.6076782,-2.105669 0.6141818,-2.1019698z" transform="matrix(1,0,0,-1,1.3448251,1.883212)" fill="rgb(104,104,104)" fill-rule="nonzero" shaper:cutDepth="0.0000762" stroke-linecap="round" stroke-linejoin="round" /><path d="M0.01982,-1.6280965 L0.01982,-1.6280965 0.0214577,-1.6298826 0.0233897,-1.6313917 0.0233897,-1.6313917 0.0325044,-1.6412662 0.0406406,-1.6519596 0.047706,-1.66339 0.0535817,-1.6754744 0.0581076,-1.6881264 0.0612905,-1.7011815 0.0631692,-1.7144865 0.0637551,-1.7279117 0.0637551,-1.7279117 0.0629597,-1.7432772 0.0604755,-1.7584603 0.0562099,-1.773242 0.0500645,-1.7873474 0.0423024,-1.8006287 0.0329602,-1.8128566 0.0224187,-1.8240602 0.010827,-1.8341798 0.010827,-1.8341798 0.0009043,-1.8412109 -0.0096601,-1.8472434 -0.0206379,-1.8524762 -0.0319411,-1.8569711 -0.0319411,-1.8569711 -0.0415723,-1.8598139 -0.0513801,-1.861969 -0.0613311,-1.8633216 -0.0713485,-1.8640122 -0.0914104,-1.8632566 -0.1112303,-1.8600603 -0.1112303,-1.8600603 -0.1276147,-1.8548785 -0.1431867,-1.8476158 -0.1576748,-1.8383779 -0.1709132,-1.8274265 -0.1826865,-1.8149114 -0.1928362,-1.8010497 -0.2011459,-1.7860104 -0.2075443,-1.7700619 -0.2075443,-1.7700619 -0.2107945,-1.7578526 -0.2130881,-1.7454286 -0.2142483,-1.7328476 -0.2142169,-1.7202137 -0.2129648,-1.7076419 -0.2105179,-1.695247 -0.2069805,-1.6831184 -0.2023957,-1.6713452 -0.2023957,-1.6713452 -0.198414,-1.6628327 -0.198414,-1.6628327 -0.1897256,-1.6486383 -0.1793297,-1.6356479 -0.1793297,-1.6356479 -0.1743569,-1.6306173 -0.1716898,-1.6282181 -0.1684146,-1.6269981 -0.1684146,-1.6269981 -0.1731784,-1.624203 -0.177208,-1.6203803 -0.1844784,-1.6120327 -0.1844784,-1.6120327 -0.1928635,-1.6004904 -0.1999688,-1.5881215 -0.2056591,-1.5750387 -0.2097411,-1.56137 -0.2097411,-1.56137 -0.2127718,-1.544383 -0.2139252,-1.5271683 -0.2130587,-1.509935 -0.210153,-1.4929273 -0.210153,-1.4929273 -0.205593,-1.4780028 -0.199322,-1.4637132 -0.1913616,-1.450291 -0.1818512,-1.4379183 -0.1710252,-1.4266786 -0.1590768,-1.4166405 -0.1460837,-1.4079974 -0.1322367,-1.4008008 -0.1322367,-1.4008008 -0.1221323,-1.3968145 -0.1117509,-1.3936188 -0.1011169,-1.3914038 -0.0903405,-1.3900402 -0.0794901,-1.3895405 -0.0686367,-1.3899935 -0.0578425,-1.3912075 -0.0471644,-1.3932004 -0.0366303,-1.3958534 -0.0263095,-1.3992385 -0.0162328,-1.4032966 -0.0065269,-1.4081723 0.0027443,-1.4138318 0.011557,-1.4201823 0.0197218,-1.4273459 0.0273027,-1.4351252 0.0273027,-1.4351252 0.0356233,-1.4452273 0.0431088,-1.4559622 0.0495312,-1.4673647 0.0548644,-1.4793165 0.0588619,-1.4917772 0.0616997,-1.5045529 0.0631497,-1.5175594 0.0634094,-1.530644 0.0624464,-1.5436957 0.0602842,-1.5566029 0.0567925,-1.5692153 0.0520005,-1.5813935 0.0460296,-1.5930384 0.0389374,-1.6040383 0.030896,-1.6143623 0.0220168,-1.6239776 0.0220168,-1.6239776 0.0208442,-1.6253481 0.019242,-1.6262666 0.0184136,-1.6266705 0.0181106,-1.6274582 0.0186992,-1.6279518 0.01982,-1.6280965z M-0.1331292,-1.7502911 L-0.1331292,-1.7502911 -0.1294503,-1.758691 -0.1247288,-1.7665495 -0.1188102,-1.7735526 -0.111874,-1.7795495 -0.1040676,-1.7843572 -0.0956224,-1.7879214 -0.086733,-1.7901715 -0.0775924,-1.7908625 -0.0775924,-1.7908625 -0.0713293,-1.7906039 -0.0651214,-1.7897391 -0.059024,-1.7882849 -0.0531197,-1.7861807 -0.0474239,-1.7835646 -0.0420871,-1.7802764 -0.0324448,-1.7722826 -0.0281795,-1.7676892 -0.0243969,-1.7626909 -0.0211233,-1.7573455 -0.0183788,-1.7517102 -0.0162896,-1.7458007 -0.01486,-1.7396974 -0.0140021,-1.7334887 -0.0137492,-1.7272252 -0.0137492,-1.7272252 -0.0145737,-1.7167852 -0.0170954,-1.7066213 -0.0213916,-1.6970711 -0.0271185,-1.6883027 -0.0341065,-1.680502 -0.0422646,-1.6739363 -0.0514808,-1.668964 -0.0613913,-1.6655787 -0.0613913,-1.6655787 -0.0698028,-1.6637064 -0.0783869,-1.6629721 -0.0869852,-1.6635094 -0.0953531,-1.6655634 -0.1032682,-1.6689614 -0.1105271,-1.6736045 -0.1170581,-1.6792245 -0.1228811,-1.6855781 -0.1279919,-1.6925153 -0.1322218,-1.7000228 -0.1354162,-1.7080247 -0.1373367,-1.7164241 -0.137945,-1.7250185 -0.137374,-1.7336175 -0.1357242,-1.742073 -0.1331292,-1.7502911z M-0.1333351,-1.5486014 L-0.1333351,-1.5486014 -0.1289544,-1.5586128 -0.1232636,-1.5679316 -0.1160509,-1.5761294 -0.1117968,-1.5795587 -0.1071751,-1.5824762 -0.0971688,-1.5868541 -0.0865347,-1.5893801 -0.0756253,-1.5899951 -0.0647715,-1.5887255 -0.0542866,-1.5856448 -0.0444524,-1.5808778 -0.0355032,-1.5746065 -0.0275932,-1.5670626 -0.0212395,-1.5581881 -0.0168781,-1.5481818 -0.01446,-1.5375366 -0.0137492,-1.5266338 -0.0137492,-1.5266338 -0.0142479,-1.5178283 -0.0158301,-1.5091531 -0.0186791,-1.5008074 -0.022709,-1.4929639 -0.0279153,-1.485846 -0.0340956,-1.4795557 -0.0410612,-1.4741456 -0.048536,-1.4694635 -0.0564588,-1.4655915 -0.0647741,-1.4626429 -0.0734455,-1.4610589 -0.0822643,-1.4609959 -0.0909298,-1.4626192 -0.0991509,-1.4658073 -0.1067007,-1.4703635 -0.1135643,-1.4759025 -0.1135643,-1.4759025 -0.1206129,-1.4830067 -0.1265006,-1.4911024 -0.1312011,-1.4999373 -0.1347476,-1.5092996 -0.1369382,-1.519064 -0.1373662,-1.5290673 -0.1361809,-1.5390029 -0.1333351,-1.5486014z" transform="matrix(1,0,0,-1,1.3448251,1.883212)" fill="rgb(104,104,104)" fill-rule="nonzero" shaper:cutDepth="0.0000762" stroke-linecap="round" stroke-linejoin="round" /><path d="M-0.6019292,-0.9539233 L-0.6019292,-0.9539233 -0.6011274,-0.9478529 -0.6011274,-0.6131764 -0.6011274,-0.6131764 -0.6022673,-0.6071486 -0.6040688,-0.601293 -0.6073946,-0.5961549 -0.6115503,-0.5916435 -0.6115503,-0.5916435 -0.6168654,-0.5875271 -0.6229283,-0.5846237 -0.6294858,-0.5831461 -0.6362073,-0.5829845 -0.6428701,-0.5838992 -0.6492059,-0.5861387 -0.6549226,-0.5896769 -0.659713,-0.5943924 -0.659713,-0.5943924 -0.6625695,-0.5984806 -0.6643708,-0.6031202 -0.6660125,-0.6129473 -0.6660125,-0.948311 -0.6660125,-0.948311 -0.6648974,-0.9550154 -0.662691,-0.9614255 -0.662691,-0.9614255 -0.6580327,-0.9684401 -0.6550677,-0.9714387 -0.6516691,-0.9739327 -0.6479636,-0.9759438 -0.6439674,-0.9772881 -0.635603,-0.9782624 -0.635603,-0.9782624 -0.6299063,-0.9779697 -0.6242753,-0.9770767 -0.6188263,-0.9753899 -0.6137628,-0.9727694 -0.6094027,-0.9690976 -0.6059752,-0.9645423 -0.6035004,-0.9594062 -0.6019292,-0.9539233z" transform="matrix(1,0,0,-1,1.3448251,1.883212)" fill="rgb(104,104,104)" fill-rule="nonzero" shaper:cutDepth="0.0000762" stroke-linecap="round" stroke-linejoin="round" /><path d="M-0.3126665,-0.692264 L-0.3126665,-0.692264 -0.3084331,-0.7090452 -0.3049353,-0.7259951 -0.3049353,-0.7259951 -0.3026223,-0.740257 -0.3010675,-0.7546218 -0.3002006,-0.7690442 -0.2999585,-0.7834904 -0.3012805,-0.8123522 -0.3048039,-0.8410292 -0.3074466,-0.8552342 -0.3109908,-0.8692413 -0.3154453,-0.8829864 -0.3208775,-0.8963746 -0.3272526,-0.9093408 -0.3345873,-0.9217887 -0.3428697,-0.9336278 -0.3520099,-0.9448177 -0.3520099,-0.9448177 -0.3591456,-0.952205 -0.3669099,-0.9589264 -0.3753335,-0.9648026 -0.3843524,-0.9697143 -0.393873,-0.9735651 -0.4037684,-0.9763126 -0.4139102,-0.9779291 -0.4241681,-0.9784342 -0.4241681,-0.9784342 -0.4321734,-0.9781681 -0.4401339,-0.977273 -0.4479995,-0.9757655 -0.4556983,-0.9735547 -0.4631765,-0.970686 -0.4703488,-0.9671217 -0.4771402,-0.9628758 -0.4835423,-0.9580623 -0.4895153,-0.9527267 -0.4949934,-0.9468827 -0.5046685,-0.9341243 -0.512748,-0.9202989 -0.519573,-0.9058045 -0.5255502,-0.8909411 -0.5307088,-0.8757733 -0.5350674,-0.8603572 -0.5386177,-0.8447346 -0.5413643,-0.8289513 -0.5433266,-0.8130509 -0.5445248,-0.7970753 -0.5449455,-0.7810599 -0.5446655,-0.7650415 -0.5436603,-0.7490524 -0.5418983,-0.7331287 -0.539356,-0.7173112 -0.536017,-0.7016418 -0.5318271,-0.6861796 -0.5268178,-0.6709614 -0.5210366,-0.6560205 -0.514368,-0.6414541 -0.5065025,-0.6275047 -0.4969709,-0.6146403 -0.4915382,-0.6087546 -0.485677,-0.603295 -0.479335,-0.5984038 -0.4725531,-0.5941427 -0.4654171,-0.590505 -0.4579735,-0.5875509 -0.450283,-0.5853092 -0.4424229,-0.5837748 -0.4344639,-0.5828655 -0.4264588,-0.5825951 -0.4264588,-0.5825951 -0.4158521,-0.583092 -0.405346,-0.5846235 -0.3950915,-0.5873764 -0.3852139,-0.5912728 -0.3759239,-0.5964114 -0.3673293,-0.6026463 -0.3595248,-0.6098459 -0.3525381,-0.61784 -0.3401016,-0.635046 -0.3290394,-0.653167 -0.3197775,-0.6722678 -0.315886,-0.6821472 -0.3126665,-0.692264z M-0.3907234,-0.8926461 L-0.3907234,-0.8926461 -0.3830424,-0.8782508 -0.3770384,-0.8630753 -0.3724605,-0.8474066 -0.3690206,-0.8314481 -0.3665416,-0.8153105 -0.3650595,-0.7990511 -0.3645496,-0.7827323 -0.3649516,-0.7664105 -0.3663017,-0.7501391 -0.3687641,-0.734 -0.372293,-0.7180577 -0.3769624,-0.702415 -0.3828756,-0.6872023 -0.390634,-0.6728447 -0.3952832,-0.6661354 -0.400509,-0.6598657 -0.406237,-0.6540486 -0.4124854,-0.6487973 -0.4124854,-0.6487973 -0.4179149,-0.6455854 -0.4238818,-0.6435859 -0.4239963,-0.6435859 -0.4239963,-0.6435859 -0.4297162,-0.6451914 -0.4351068,-0.6477029 -0.4400985,-0.6509274 -0.4445827,-0.6548296 -0.452233,-0.6639128 -0.4583829,-0.6740861 -0.4635287,-0.684808 -0.4678164,-0.6958986 -0.4713095,-0.707266 -0.4740989,-0.7188254 -0.4780249,-0.7422769 -0.4798699,-0.7659811 -0.4798594,-0.7897609 -0.479211,-0.8016346 -0.4778286,-0.813444 -0.4778286,-0.813444 -0.4760256,-0.8236408 -0.4736056,-0.8337105 -0.4677489,-0.8535747 -0.4604774,-0.8729622 -0.45609,-0.882344 -0.4510836,-0.8914086 -0.4453402,-0.9000264 -0.4386533,-0.9079252 -0.4305888,-0.9143912 -0.4259592,-0.916696 -0.4209833,-0.9181133 -0.415833,-0.9178201 -0.4110879,-0.9157685 -0.4068668,-0.9127713 -0.4031081,-0.9092095 -0.396516,-0.9012298 -0.3907234,-0.8926461z" transform="matrix(1,0,0,-1,1.3448251,1.883212)" fill="rgb(104,104,104)" fill-rule="nonzero" shaper:cutDepth="0.0000762" stroke-linecap="round" stroke-linejoin="round" /><path d="M-0.4231884,-0.0479612 L-0.4231884,-0.0479612 -0.429362,-0.0360513 -0.4373296,-0.0252613 -0.4420218,-0.0204635 -0.4471493,-0.0161339 -0.4526003,-0.012217 -0.4584089,-0.0088581 -0.4644796,-0.0059931 -0.4707905,-0.0037135 -0.4772863,-0.0020235 -0.4839255,-0.0010486 -0.490631,-0.0007692 -0.49733,-0.0011706 -0.5039585,-0.0022205 -0.5104654,-0.0038645 -0.5104654,-0.0038645 -0.5136152,-0.0046663 -0.5136152,-0.0046663 -0.5174522,-0.0059262 -0.5174522,-0.0059262 -0.5225564,-0.0064911 -0.5276867,-0.0062868 -0.532704,-0.0051939 -0.5374961,-0.0033491 -0.5374961,-0.0033491 -0.5425206,-0.0003866 -0.5467363,0.0036507 -0.5500635,0.0084397 -0.5525577,0.0137169 -0.5525577,0.0137169 -0.5541039,0.0199591 -0.5541039,0.0199591 -0.5545702,0.0263083 -0.5537022,0.0326092 -0.5512401,0.0384774 -0.5474035,0.0435537 -0.4757608,0.127051 -0.5618352,0.127051 -0.5618352,0.127051 -0.5684423,0.1276984 -0.5747583,0.1297337 -0.5804472,0.1331517 -0.5852381,0.1377468 -0.589011,0.1432084 -0.5914711,0.1493727 -0.5924814,0.1559309 -0.5920729,0.1625574 -0.5920729,0.1625574 -0.5908773,0.1678872 -0.588988,0.1730115 -0.5861776,0.177692 -0.5824804,0.1817093 -0.5779024,0.1846849 -0.5728219,0.186684 -0.5674598,0.1877202 -0.562007,0.1880419 -0.4157435,0.1880419 -0.4157435,0.1880419 -0.4098328,0.1877504 -0.4040059,0.1867412 -0.3984047,0.1848319 -0.3932666,0.1819048 -0.3889176,0.177898 -0.3856367,0.1729769 -0.3833687,0.1675155 -0.3820124,0.1617557 -0.3820124,0.1617557 -0.381599,0.1558407 -0.3824003,0.1499748 -0.3845971,0.1444687 -0.3881974,0.1397646 -0.458036,0.0557409 -0.458036,0.0557409 -0.4520516,0.0543202 -0.4520516,0.0543202 -0.4502191,0.0539193 -0.4502191,0.0539193 -0.4315408,0.0463846 -0.4225808,0.0417767 -0.4139728,0.0365435 -0.4057684,0.0306965 -0.398021,0.0242565 -0.3908207,0.0172104 -0.3842068,0.0096114 -0.3781538,0.0015576 -0.3727255,-0.0069285 -0.3679121,-0.0157791 -0.3637893,-0.0249707 -0.3603429,-0.0344373 -0.3576116,-0.0441342 -0.3556153,-0.0540089 -0.3542945,-0.0639963 -0.3542945,-0.0639963 -0.3537311,-0.0796236 -0.3552802,-0.0951816 -0.3588292,-0.1104096 -0.3642446,-0.1250794 -0.3712822,-0.1390444 -0.3798898,-0.1521023 -0.3898399,-0.1641669 -0.4010828,-0.1750397 -0.4010828,-0.1750397 -0.4105247,-0.1826235 -0.4206127,-0.1893232 -0.4312537,-0.1951044 -0.4424273,-0.1997747 -0.4539841,-0.2033915 -0.4658412,-0.2058584 -0.4778617,-0.2073238 -0.4899633,-0.2077973 -0.4899633,-0.2077973 -0.5015651,-0.2073808 -0.5130977,-0.2060572 -0.5244736,-0.2037411 -0.5355937,-0.2004095 -0.5463857,-0.1961322 -0.5567503,-0.1909036 -0.5665676,-0.1847084 -0.5758332,-0.1777145 -0.5845036,-0.1699946 -0.5924746,-0.1615558 -0.5997159,-0.1524818 -0.6060442,-0.1427504 -0.6114841,-0.1324952 -0.6159088,-0.1217627 -0.6194561,-0.1107096 -0.6220242,-0.0993882 -0.6220242,-0.0993882 -0.622693,-0.098206 -0.6229111,-0.0968008 -0.6230643,-0.093982 -0.6231696,-0.0883354 -0.6231696,-0.0883354 -0.6217407,-0.0829784 -0.6196797,-0.077833 -0.6167855,-0.0731058 -0.6130205,-0.0690385 -0.6084341,-0.0659293 -0.6033242,-0.0637848 -0.5978924,-0.0626786 -0.5923592,-0.0623355 -0.5923592,-0.0623355 -0.5877667,-0.0627166 -0.5832825,-0.0637984 -0.5747205,-0.0672034 -0.5747205,-0.0672034 -0.5692381,-0.0710143 -0.5646481,-0.0758723 -0.5610256,-0.0814943 -0.559628,-0.0845376 -0.559029,-0.08782 -0.559029,-0.08782 -0.5575395,-0.0948087 -0.5553662,-0.1016299 -0.5526264,-0.1082334 -0.5491788,-0.114507 -0.5491788,-0.114507 -0.5423939,-0.1236464 -0.5344298,-0.1317751 -0.5252845,-0.1385426 -0.5150312,-0.1434614 -0.5096097,-0.1451981 -0.5040318,-0.1463461 -0.4926889,-0.147204 -0.4813425,-0.1462998 -0.4702057,-0.143943 -0.4702057,-0.143943 -0.462247,-0.1411951 -0.4547833,-0.1372887 -0.4478521,-0.1325071 -0.4414477,-0.1270361 -0.4355323,-0.1210389 -0.4303483,-0.1144046 -0.4260311,-0.1071694 -0.4229593,-0.0993309 -0.4229593,-0.0993309 -0.4196377,-0.0890226 -0.4196377,-0.0890226 -0.4191825,-0.0682055 -0.4192052,-0.0629998 -0.4199453,-0.0578461 -0.4231884,-0.0479612z" transform="matrix(1,0,0,-1,1.3448251,1.883212)" fill="rgb(104,104,104)" fill-rule="nonzero" shaper:cutDepth="0.0000762" stroke-linecap="round" stroke-linejoin="round" /><path d="M-0.0682389,0.0783729 L-0.0682389,0.0783729 -0.0640054,0.0615918 -0.0605077,0.0446418 -0.0605077,0.0446418 -0.0581947,0.0303799 -0.0566398,0.0160151 -0.055773,0.0015928 -0.0555309,-0.0128535 -0.0568529,-0.0417153 -0.0603763,-0.0703922 -0.0630189,-0.0845972 -0.0665632,-0.0986044 -0.0710176,-0.1123495 -0.0764499,-0.1257377 -0.0828249,-0.1387039 -0.0901597,-0.1511518 -0.0984421,-0.1629909 -0.1075823,-0.1741807 -0.1075823,-0.1741807 -0.1147179,-0.1815681 -0.1224823,-0.1882894 -0.1309059,-0.1941656 -0.1399248,-0.1990773 -0.1494453,-0.2029282 -0.1593407,-0.2056757 -0.1694826,-0.2072921 -0.1797404,-0.2077973 -0.1797404,-0.2077973 -0.1877458,-0.2075312 -0.1957062,-0.206636 -0.2035719,-0.2051285 -0.2112706,-0.2029178 -0.2187488,-0.200049 -0.2259211,-0.1964847 -0.2327125,-0.1922389 -0.2391146,-0.1874254 -0.2450876,-0.1820897 -0.2505658,-0.1762458 -0.2602408,-0.1634873 -0.2683204,-0.1496619 -0.2751453,-0.1351675 -0.2811225,-0.1203042 -0.2862812,-0.1051363 -0.2906398,-0.0897202 -0.29419,-0.0740977 -0.2969367,-0.0583144 -0.298899,-0.042414 -0.3000972,-0.0264383 -0.3005179,-0.010423 -0.3002378,0.0055955 -0.2992326,0.0215845 -0.2974706,0.0375082 -0.2949283,0.0533257 -0.2915893,0.0689951 -0.2873995,0.0844573 -0.2823901,0.0996755 -0.2766089,0.1146164 -0.2699403,0.1291828 -0.2620748,0.1431322 -0.2525433,0.1559966 -0.2471105,0.1618823 -0.2412493,0.167342 -0.2349073,0.1722331 -0.2281255,0.1764942 -0.2209894,0.1801319 -0.2135458,0.183086 -0.2058553,0.1853278 -0.1979952,0.1868622 -0.1900363,0.1877714 -0.1820312,0.1880419 -0.1820312,0.1880419 -0.1714244,0.187545 -0.1609183,0.1860134 -0.1506638,0.1832606 -0.1407862,0.1793642 -0.1314962,0.1742255 -0.1229016,0.1679907 -0.1150972,0.1607911 -0.1081104,0.1527969 -0.0956739,0.1355909 -0.0846118,0.1174699 -0.0753498,0.0983692 -0.0714584,0.0884898 -0.0682389,0.0783729z M-0.1462957,-0.1220092 L-0.1462957,-0.1220092 -0.1386148,-0.1076138 -0.1326107,-0.0924384 -0.1280328,-0.0767696 -0.1245929,-0.0608111 -0.1221139,-0.0446735 -0.1206319,-0.0284142 -0.120122,-0.0120953 -0.1205239,0.0042264 -0.121874,0.0204979 -0.1243365,0.036637 -0.1278653,0.0525792 -0.1325348,0.068222 -0.1384479,0.0834346 -0.1462063,0.0977922 -0.1508555,0.1045015 -0.1560814,0.1107712 -0.1618094,0.1165883 -0.1680577,0.1218396 -0.1680577,0.1218396 -0.1734873,0.1250515 -0.1794541,0.127051 -0.1795686,0.127051 -0.1795686,0.127051 -0.1852886,0.1254456 -0.1906792,0.122934 -0.1956709,0.1197096 -0.200155,0.1158073 -0.2078054,0.1067242 -0.2139553,0.0965509 -0.2191011,0.0858289 -0.2233888,0.0747383 -0.2268819,0.0633709 -0.2296713,0.0518115 -0.2335972,0.02836 -0.2354422,0.0046559 -0.2354317,-0.019124 -0.2347834,-0.0309976 -0.2334009,-0.042807 -0.2334009,-0.042807 -0.231598,-0.0530038 -0.229178,-0.0630735 -0.2233212,-0.0829377 -0.2160497,-0.1023253 -0.2116623,-0.1117071 -0.206656,-0.1207717 -0.2009126,-0.1293895 -0.1942256,-0.1372882 -0.1861611,-0.1437543 -0.1815316,-0.146059 -0.1765557,-0.1474764 -0.1714053,-0.1471832 -0.1666602,-0.1451315 -0.1624391,-0.1421343 -0.1586805,-0.1385725 -0.1520884,-0.1305929 -0.1462957,-0.1220092z" transform="matrix(1,0,0,-1,1.3448251,1.883212)" fill="rgb(104,104,104)" fill-rule="nonzero" shaper:cutDepth="0.0000762" stroke-linecap="round" stroke-linejoin="round" /><path d="M-0.3073777,0.4905253 L-0.3073777,0.4905253 -0.308508,0.4969411 -0.3083604,0.5034516 -0.3069434,0.5098083 -0.3043425,0.5157807 -0.3043425,0.5157807 -0.3008255,0.5206313 -0.2963822,0.5246573 -0.2963822,0.5246573 -0.2908682,0.5277369 -0.2847943,0.5294796 -0.2784925,0.5299201 -0.2722004,0.529332 -0.2660603,0.5278379 -0.260273,0.5253045 -0.2551704,0.5215781 -0.2510256,0.5168115 -0.2510256,0.5168115 -0.2447671,0.5091629 -0.2376235,0.5023386 -0.2296446,0.4965079 -0.2208273,0.4920508 -0.2114239,0.4890197 -0.2016609,0.4874974 -0.1917802,0.4873695 -0.1819578,0.4884537 -0.1723253,0.4906605 -0.1630442,0.4940522 -0.1543996,0.4988372 -0.1466599,0.504979 -0.139991,0.5122687 -0.1345415,0.5205124 -0.1302984,0.5294358 -0.1269823,0.5387453 -0.1269823,0.5387453 -0.1245341,0.5497199 -0.1239631,0.5609515 -0.1251363,0.5721384 -0.1279072,0.5830406 -0.1320733,0.5934875 -0.1379335,0.6030862 -0.1414798,0.6074555 -0.1454716,0.6114213 -0.1544138,0.6182338 -0.1544138,0.6182338 -0.1639494,0.6235773 -0.174017,0.6278218 -0.1845949,0.6305811 -0.1954753,0.6315774 -0.1954753,0.6315774 -0.2051548,0.6308488 -0.2146029,0.6286111 -0.2236375,0.6250643 -0.232127,0.6203528 -0.232127,0.6203528 -0.24129,0.6135378 -0.24129,0.6135378 -0.2485934,0.609308 -0.2567524,0.6071238 -0.2567524,0.6071238 -0.2633254,0.606712 -0.2698343,0.6076827 -0.2759833,0.6100365 -0.2814748,0.6136678 -0.2861155,0.6183393 -0.2895846,0.6239331 -0.2916581,0.6301799 -0.2923161,0.6367315 -0.2923161,0.7936469 -0.2923161,0.7936469 -0.2908271,0.8031535 -0.2908271,0.8031535 -0.2867934,0.8116415 -0.2838617,0.8153233 -0.2803114,0.8184124 -0.2762409,0.8207743 -0.2718115,0.8223649 -0.2624793,0.8234837 -0.1387796,0.8234837 -0.1387796,0.8234837 -0.1322228,0.8229942 -0.1258538,0.8213884 -0.119931,0.8185333 -0.1148414,0.8143781 -0.1148414,0.8143781 -0.1092054,0.8071339 -0.1072454,0.8029787 -0.1059536,0.7985703 -0.1055583,0.7939926 -0.1059464,0.7894139 -0.1070117,0.7849457 -0.1087083,0.7806724 -0.1109301,0.776652 -0.1137298,0.7730053 -0.1170929,0.7698808 -0.1209781,0.7674183 -0.125187,0.7655876 -0.1296405,0.7644357 -0.1387796,0.763581 -0.2289773,0.763581 -0.2289773,0.6870261 -0.2289773,0.6870261 -0.2161605,0.6897184 -0.2031368,0.6911748 -0.1900415,0.6913438 -0.1770098,0.6901742 -0.1641793,0.6876592 -0.1516487,0.6838962 -0.1395042,0.6789974 -0.1278305,0.6730734 -0.116711,0.6661831 -0.1062724,0.6583257 -0.0966508,0.6494985 -0.0880758,0.639815 -0.0811236,0.6300401 -0.0755838,0.6203179 -0.0711125,0.6106538 -0.0673659,0.6010533 -0.0673659,0.6010533 -0.0640605,0.5891272 -0.0615818,0.5770006 -0.0615818,0.5770006 -0.0601417,0.5617035 -0.0607429,0.5463512 -0.0633574,0.5312111 -0.0678855,0.5165246 -0.0739892,0.5024219 -0.0816081,0.4890743 -0.0906482,0.476647 -0.1009824,0.46527 -0.1009824,0.46527 -0.1092167,0.4577293 -0.1180534,0.4509049 -0.1275325,0.4450051 -0.1374862,0.4399466 -0.1478415,0.4357733 -0.158548,0.4326029 -0.1694653,0.4302643 -0.1805318,0.4287783 -0.1916744,0.4280594 -0.202839,0.4281758 -0.2139634,0.429134 -0.2249643,0.4310417 -0.2357566,0.4339036 -0.2462625,0.4376831 -0.2563915,0.4423807 -0.2660872,0.4479176 -0.2660872,0.4479176 -0.276688,0.4552593 -0.2866956,0.4633951 -0.295871,0.4724462 -0.2999218,0.4774717 -0.3031971,0.4830232 -0.3031971,0.4830232 -0.3073777,0.4905253z" transform="matrix(1,0,0,-1,1.3448251,1.883212)" fill="rgb(104,104,104)" fill-rule="nonzero" shaper:cutDepth="0.0000762" stroke-linecap="round" stroke-linejoin="round" /><path d="M0.2241302,0.7138148 L0.2241302,0.7138148 0.2283637,0.6970337 0.2318615,0.6800837 0.2318615,0.6800837 0.2341744,0.6658218 0.2357293,0.651457 0.2365962,0.6370347 0.2368383,0.6225884 0.2355162,0.5937266 0.2319929,0.5650497 0.2293502,0.5508446 0.225806,0.5368375 0.2213515,0.5230924 0.2159193,0.5097042 0.2095442,0.496738 0.2022095,0.4842901 0.193927,0.472451 0.1847869,0.4612612 0.1847869,0.4612612 0.1776512,0.4538738 0.1698869,0.4471525 0.1614633,0.4412763 0.1524444,0.4363646 0.1429238,0.4325137 0.1330284,0.4297662 0.1228865,0.4281497 0.1126287,0.4276446 0.1126287,0.4276446 0.1046234,0.4279107 0.0966629,0.4288058 0.0887973,0.4303133 0.0810985,0.4325241 0.0736203,0.4353928 0.066448,0.4389572 0.0596566,0.443203 0.0532545,0.4480165 0.0472815,0.4533521 0.0418034,0.4591961 0.0321283,0.4719546 0.0240488,0.48578 0.0172238,0.5002744 0.0112466,0.5151377 0.0060879,0.5303056 0.0017294,0.5457217 -0.0018209,0.5613442 -0.0045675,0.5771275 -0.0065298,0.5930279 -0.0077281,0.6090036 -0.0081487,0.6250189 -0.0078687,0.6410374 -0.0068635,0.6570264 -0.0051015,0.6729501 -0.0025592,0.6887676 0.0007798,0.704437 0.0049697,0.7198992 0.009979,0.7351174 0.0157602,0.7500583 0.0224288,0.7646247 0.0302943,0.7785741 0.0398259,0.7914385 0.0452586,0.7973242 0.0511198,0.8027838 0.0574618,0.807675 0.0642437,0.8119361 0.0713797,0.8155738 0.0788233,0.8185279 0.0865138,0.8207696 0.0943739,0.822304 0.1023328,0.8232133 0.1103379,0.8234837 0.1103379,0.8234837 0.1209447,0.8229869 0.1314508,0.8214553 0.1417053,0.8187024 0.1515829,0.8148061 0.1608729,0.8096674 0.1694675,0.8034326 0.177272,0.796233 0.1842587,0.7882388 0.1966952,0.7710328 0.2077574,0.7529118 0.2170193,0.733811 0.2209108,0.7239316 0.2241302,0.7138148z M0.1460734,0.5134327 L0.1460734,0.5134327 0.1537544,0.5278281 0.1597584,0.5430035 0.1643363,0.5586722 0.1677762,0.5746308 0.1702552,0.5907684 0.1717373,0.6070277 0.1722472,0.6233465 0.1718452,0.6396683 0.1704951,0.6559398 0.1680327,0.6720788 0.1645038,0.6880211 0.1598344,0.7036639 0.1539212,0.7188765 0.1461628,0.7332341 0.1415136,0.7399434 0.1362878,0.7462131 0.1305598,0.7520302 0.1243114,0.7572815 0.1243114,0.7572815 0.1188819,0.7604934 0.112915,0.7624929 0.1128005,0.7624929 0.1128005,0.7624929 0.1070806,0.7608875 0.1016899,0.7583759 0.0966983,0.7551514 0.0922141,0.7512492 0.0845638,0.742166 0.0784139,0.7319927 0.0732681,0.7212708 0.0689804,0.7101802 0.0654872,0.6988128 0.0626979,0.6872534 0.0587719,0.6638019 0.0569269,0.6400978 0.0569374,0.6163179 0.0575857,0.6044442 0.0589682,0.5926349 0.0589682,0.5926349 0.0607712,0.5824381 0.0631912,0.5723683 0.0690479,0.5525042 0.0763194,0.5331166 0.0807068,0.5237348 0.0857132,0.5146702 0.0914566,0.5060524 0.0981435,0.4981536 0.106208,0.4916876 0.1108376,0.4893829 0.1158135,0.4879655 0.1209638,0.4882587 0.1257089,0.4903104 0.12993,0.4933075 0.1336887,0.4968693 0.1402808,0.504849 0.1460734,0.5134327z" transform="matrix(1,0,0,-1,1.3448251,1.883212)" fill="rgb(104,104,104)" fill-rule="nonzero" shaper:cutDepth="0.0000762" stroke-linecap="round" stroke-linejoin="round" /><path d="M0.6688822,0.5625834 L0.6688822,0.5625834 0.689491,0.5622695 0.689491,0.5622695 0.6995072,0.5617332 0.7094516,0.5604286 0.7192665,0.5583599 0.7288497,0.5554 0.7379628,0.5512345 0.7462268,0.5455633 0.7534715,0.5386363 0.7596339,0.5307288 0.7596339,0.5307288 0.7649023,0.5208765 0.7686044,0.5103424 0.7705823,0.4993453 0.7712982,0.4882036 0.7712982,0.4882036 0.7709389,0.4793884 0.7696315,0.4706637 0.7674961,0.4621036 0.7644732,0.4538152 0.7605542,0.4459107 0.7555607,0.4386382 0.7495145,0.4322138 0.7426343,0.4266913 0.7426343,0.4266913 0.7362108,0.4229487 0.7292944,0.420213 0.7148931,0.4164968 0.7876201,0.3086356 0.722813,0.3086356 0.6541841,0.4157686 0.6541841,0.3086356 0.6010407,0.3086356 0.6010407,0.5626356 0.6688822,0.5625834z M0.6736846,0.5195351 L0.6545521,0.5195351 0.6545521,0.4518147 0.6747406,0.4517983 0.6747406,0.4517983 0.6857283,0.4523408 0.6965238,0.4544578 0.7016551,0.4564438 0.7062404,0.4594878 0.7101529,0.4633556 0.713395,0.4678041 0.713395,0.4678041 0.7170303,0.4765756 0.7181549,0.4860068 0.7181549,0.4860068 0.7177125,0.4916951 0.7164951,0.4972764 0.7141063,0.5024625 0.710832,0.5071386 0.710832,0.5071386 0.7071709,0.5106153 0.7030623,0.5135477 0.6985437,0.5157993 0.6937237,0.5173 0.6837655,0.5189673 0.6736846,0.5195351z" transform="matrix(1,0,0,-1,1.3448251,1.883212)" fill="rgb(104,104,104)" fill-rule="nonzero" shaper:cutDepth="0.0000762" stroke-linecap="round" stroke-linejoin="round" /><path d="M1.0403889,0.5626356 L1.1452378,0.3086356 1.0852208,0.3086356 1.0653357,0.3621974 0.9594022,0.3621974 0.9406017,0.3086356 0.8813079,0.3086356 0.9814566,0.5626356 1.0403889,0.5626356z M0.9944375,0.4584413 L0.9944375,0.4584413 0.9767565,0.4086455 1.0468485,0.4086455 1.0468485,0.4086455 1.0280705,0.460272 1.0280705,0.460272 1.0182165,0.4892786 1.0141174,0.5040357 1.0114371,0.5191167 1.0114371,0.5191167 1.0089264,0.5035817 1.0089264,0.5035817 1.0021709,0.4808577 0.9944375,0.4584413z" transform="matrix(1,0,0,-1,1.3448251,1.883212)" fill="rgb(104,104,104)" fill-rule="nonzero" shaper:cutDepth="0.0000762" stroke-linecap="round" stroke-linejoin="round" /><path d="M1.2229643,0.5626356 L1.2229643,0.3584314 1.3100973,0.3584314 1.3100973,0.3086356 1.167101,0.3086356 1.167101,0.5626356 1.2229643,0.5626356z" transform="matrix(1,0,0,-1,1.3448251,1.883212)" fill="rgb(104,104,104)" fill-rule="nonzero" shaper:cutDepth="0.0000762" stroke-linecap="round" stroke-linejoin="round" /><path d="M1.4887714,0.5621422 L1.4887714,0.5129717 1.4341777,0.5129717 1.4341777,0.3086356 1.3810343,0.3086356 1.3810343,0.5122599 1.3264406,0.5122599 1.3264406,0.5621422 1.4887714,0.5621422z" transform="matrix(1,0,0,-1,1.3448251,1.883212)" fill="rgb(104,104,104)" fill-rule="nonzero" shaper:cutDepth="0.0000762" stroke-linecap="round" stroke-linejoin="round" /><path d="M0.4048769,0.2451356 L0.4529628,0.1694151 0.5028564,0.2451356 0.5686581,0.2451356 0.4815251,0.1254144 0.5722736,-0.0088644 0.507195,-0.0088644 0.4500704,0.0803228 0.3925843,-0.0088644 0.3275057,-0.0088644 0.4225928,0.1243235 0.336906,0.2451356 0.4048769,0.2451356z" transform="matrix(1,0,0,-1,1.3448251,1.883212)" fill="rgb(104,104,104)" fill-rule="nonzero" shaper:cutDepth="0.0000762" stroke-linecap="round" stroke-linejoin="round" /><path d="M0.8014791,0.2450037 L0.8014791,-0.0088644 0.7483357,-0.0088644 0.7483357,0.1954717 0.7009729,0.1954717 0.7009729,0.2450037 0.8014791,0.2450037z" transform="matrix(1,0,0,-1,1.3448251,1.883212)" fill="rgb(104,104,104)" fill-rule="nonzero" shaper:cutDepth="0.0000762" stroke-linecap="round" stroke-linejoin="round" /><path d="M0.98429,0.2517786 L0.98429,0.2517786 0.9953493,0.25117 1.0062992,0.2494576 1.0168835,0.2461849 1.0269198,0.2414742 1.0269198,0.2414742 1.0329157,0.237912 1.0384609,0.2336749 1.0435826,0.228938 1.0482575,0.2237578 1.0565351,0.2125325 1.0633048,0.200339 1.068421,0.187359 1.0723097,0.1739585 1.0752803,0.1603242 1.0774478,0.1465381 1.0774478,0.1465381 1.0788156,0.1313442 1.0792785,0.1160957 1.0792785,0.1160957 1.0781281,0.0956997 1.0755364,0.0754261 1.0734276,0.065424 1.070695,0.055574 1.0635343,0.036433 1.0635343,0.036433 1.0564934,0.0237971 1.0474239,0.012529 1.0474239,0.012529 1.0421178,0.0068375 1.0363148,0.0016482 1.0299555,-0.002841 1.023206,-0.0067198 1.023206,-0.0067198 1.0137534,-0.0104287 1.0039573,-0.0131012 1.0039573,-0.0131012 0.9928773,-0.0148386 0.9816747,-0.0155596 0.9816747,-0.0155596 0.9705031,-0.0149103 0.9594947,-0.0129151 0.948872,-0.0094038 0.9388501,-0.0044341 0.929634,0.0019178 0.9213834,0.0094826 0.914182,0.0180515 0.9080796,0.0274363 0.9080796,0.0274363 0.9031889,0.0378461 0.8989213,0.0485224 0.8954761,0.0594972 0.8928715,0.0706981 0.8899783,0.0935079 0.8890487,0.1049697 0.8888831,0.1164619 0.8888831,0.1164619 0.8893114,0.1316924 0.8905058,0.1468809 0.8925305,0.1619811 0.8957374,0.1768731 0.9005122,0.1913352 0.9068433,0.2051887 0.9148591,0.218131 0.9196389,0.2240617 0.9250792,0.2293914 0.9250792,0.2293914 0.9312494,0.2346359 0.938032,0.2390701 0.9450985,0.2430356 0.9525067,0.2463181 0.9602463,0.2487168 0.9681888,0.2503346 0.9843201,0.2518309 0.98429,0.2517786z M1.0261352,0.1175603 L1.0261352,0.1175603 1.0258473,0.1306285 1.02483,0.1436587 1.0228677,0.1565807 1.0196295,0.1692407 1.0148069,0.18138 1.0114917,0.1870071 1.0073921,0.1920977 1.002439,0.1963537 0.996705,0.1994763 0.9904462,0.2013521 0.9839495,0.2020351 0.9839239,0.2019829 0.9839239,0.2019829 0.978619,0.2016333 0.9734515,0.200374 0.9686555,0.1980908 0.964309,0.1950261 0.964309,0.1950261 0.9604671,0.1914188 0.9571494,0.1873232 0.951965,0.1781563 0.9483222,0.1682689 0.9457425,0.1580477 0.9428873,0.1371646 0.9420788,0.1160957 0.9420788,0.1160957 0.9427335,0.097782 0.9448785,0.0795845 0.9467376,0.0706108 0.9494065,0.061847 0.9531226,0.0534662 0.9583461,0.0459528 0.9583461,0.0459528 0.9636558,0.0408473 0.969905,0.0369608 0.976962,0.0348641 0.98429,0.0342361 0.98429,0.0342361 0.9885556,0.0343532 0.9927528,0.0351396 1.0007463,0.0380988 1.0074311,0.0433869 1.0128494,0.0499804 1.0128494,0.0499804 1.0168651,0.0577053 1.0199142,0.0658642 1.0221941,0.0742668 1.0237016,0.0828443 1.0255462,0.1001599 1.0261352,0.1175603z" transform="matrix(1,0,0,-1,1.3448251,1.883212)" fill="rgb(104,104,104)" fill-rule="nonzero" shaper:cutDepth="0.0000762" stroke-linecap="round" stroke-linejoin="round" /><path d="M1.1951896,0.2517786 L1.1951896,0.2517786 1.2062489,0.25117 1.2171988,0.2494576 1.2277831,0.2461849 1.2378193,0.2414742 1.2378193,0.2414742 1.2438153,0.237912 1.2493604,0.2336749 1.2544822,0.228938 1.259157,0.2237578 1.2674346,0.2125325 1.2742043,0.200339 1.2793206,0.187359 1.2832093,0.1739585 1.2861799,0.1603242 1.2883474,0.1465381 1.2883474,0.1465381 1.2897151,0.1313442 1.2901781,0.1160957 1.2901781,0.1160957 1.2890277,0.0956997 1.2864359,0.0754261 1.2843271,0.065424 1.2815945,0.055574 1.2744338,0.036433 1.2744338,0.036433 1.2673929,0.0237971 1.2583235,0.012529 1.2583235,0.012529 1.2530174,0.0068375 1.2472143,0.0016482 1.2408551,-0.002841 1.2341056,-0.0067198 1.2341056,-0.0067198 1.2246529,-0.0104287 1.2148568,-0.0131012 1.2148568,-0.0131012 1.2037769,-0.0148386 1.1925743,-0.0155596 1.1925743,-0.0155596 1.1814026,-0.0149103 1.1703942,-0.0129151 1.1597716,-0.0094038 1.1497496,-0.0044341 1.1405335,0.0019178 1.132283,0.0094826 1.1250816,0.0180515 1.1189791,0.0274363 1.1189791,0.0274363 1.1140884,0.0378461 1.1098209,0.0485224 1.1063756,0.0594972 1.103771,0.0706981 1.1008779,0.0935079 1.0999482,0.1049697 1.0997827,0.1164619 1.0997827,0.1164619 1.1002109,0.1316924 1.1014053,0.1468809 1.1034301,0.1619811 1.106637,0.1768731 1.1114117,0.1913352 1.1177429,0.2051887 1.1257586,0.218131 1.1305385,0.2240617 1.1359787,0.2293914 1.1359787,0.2293914 1.142149,0.2346359 1.1489316,0.2390701 1.155998,0.2430356 1.1634063,0.2463181 1.1711458,0.2487168 1.1790884,0.2503346 1.1952196,0.2518309 1.1951896,0.2517786z M1.2370347,0.1175603 L1.2370347,0.1175603 1.2367468,0.1306285 1.2357295,0.1436587 1.2337673,0.1565807 1.230529,0.1692407 1.2257065,0.18138 1.2223912,0.1870071 1.2182917,0.1920977 1.2133385,0.1963537 1.2076046,0.1994763 1.2013457,0.2013521 1.1948491,0.2020351 1.1948234,0.2019829 1.1948234,0.2019829 1.1895186,0.2016333 1.1843511,0.200374 1.1795551,0.1980908 1.1752085,0.1950261 1.1752085,0.1950261 1.1713667,0.1914188 1.1680489,0.1873232 1.1628645,0.1781563 1.1592217,0.1682689 1.1566421,0.1580477 1.1537868,0.1371646 1.1529783,0.1160957 1.1529783,0.1160957 1.1536331,0.097782 1.1557781,0.0795845 1.1576371,0.0706108 1.1603061,0.061847 1.1640221,0.0534662 1.1692456,0.0459528 1.1692456,0.0459528 1.1745553,0.0408473 1.1808045,0.0369608 1.1878616,0.0348641 1.1951896,0.0342361 1.1951896,0.0342361 1.1994552,0.0343532 1.2036523,0.0351396 1.2116459,0.0380988 1.2183306,0.0433869 1.2237489,0.0499804 1.2237489,0.0499804 1.2277646,0.0577053 1.2308137,0.0658642 1.2330937,0.0742668 1.2346012,0.0828443 1.2364457,0.1001599 1.2370347,0.1175603z" transform="matrix(1,0,0,-1,1.3448251,1.883212)" fill="rgb(104,104,104)" fill-rule="nonzero" shaper:cutDepth="0.0000762" stroke-linecap="round" stroke-linejoin="round" /><path d="M1.5663182,0.244457 L1.5663182,0.1956537 1.473762,0.1956537 1.473762,0.1473421 1.5663182,0.1473421 1.5663182,0.0982592 1.473762,0.0982592 1.473762,-0.0088644 1.4180836,-0.0088644 1.4180836,0.244457 1.5663182,0.244457z" transform="matrix(1,0,0,-1,1.3448251,1.883212)" fill="rgb(104,104,104)" fill-rule="nonzero" shaper:cutDepth="0.0000762" stroke-linecap="round" stroke-linejoin="round" /><path d="M1.7398423,0.2446422 L1.7398423,0.1954717 1.6852486,0.1954717 1.6852486,-0.0088644 1.6321052,-0.0088644 1.6321052,0.1947599 1.5775115,0.1947599 1.5775115,0.2446422 1.7398423,0.2446422z" transform="matrix(1,0,0,-1,1.3448251,1.883212)" fill="rgb(104,104,104)" fill-rule="nonzero" shaper:cutDepth="0.0000762" stroke-linecap="round" stroke-linejoin="round" /><path d="M1.6726949,-1.159708 L0.4026949,-1.159708 0.4026949,-1.667708 1.6726949,-1.667708 1.6726949,-1.159708z" transform="matrix(1,0,0,-1,1.3448251,1.883212)" fill="rgb(255,255,255)" stroke="rgb(0,0,0)" stroke-width="0.0010cm" stroke-linecap="round" stroke-linejoin="round" shaper:cutDepth="0.0015875" /><path d="M-0.1330927,-0.499308 a0.2182876,0.2182876 0 1,1 0.4365752,0 a0.2182876,0.2182876 0 1,1 -0.4365752,0z" transform="matrix(1,0,0,-1,1.3448251,1.883212)" fill="rgb(255,255,255)" stroke="rgb(0,0,0)" stroke-width="0.0010cm" stroke-linecap="round" stroke-linejoin="round" shaper:cutDepth="0.0015875" /><path d="M1.7719073,-0.499308 a0.2182876,0.2182876 0 1,1 0.4365752,0 a0.2182876,0.2182876 0 1,1 -0.4365752,0z" transform="matrix(1,0,0,-1,1.3448251,1.883212)" fill="rgb(255,255,255)" stroke="rgb(0,0,0)" stroke-width="0.0010cm" stroke-linecap="round" stroke-linejoin="round" shaper:cutDepth="0.0015875" /><path d="M0.9583199,-0.499308 a0.079375,0.079375 0 1,1 0.15875,0 a0.079375,0.079375 0 1,1 -0.15875,0z" transform="matrix(1,0,0,-1,1.3448251,1.883212)" fill="rgb(255,255,255)" stroke="rgb(0,0,0)" stroke-width="0.0010cm" stroke-linecap="round" stroke-linejoin="round" shaper:cutDepth="0.0015875" /></svg>