G04 #@! TF.GenerationSoftware,KiCad,Pcbnew,(5.1.4-0-10_14)*
G04 #@! TF.CreationDate,2019-11-06T07:52:38+01:00*
G04 #@! TF.ProjectId,sq_indicator,73715f69-6e64-4696-9361-746f722e6b69,rev?*
G04 #@! TF.SameCoordinates,Original*
G04 #@! TF.FileFunction,Legend,Bot*
G04 #@! TF.FilePolarity,Positive*
%FSLAX46Y46*%
G04 Gerber Fmt 4.6, Leading zero omitted, Abs format (unit mm)*
G04 Created by KiCad (PCBNEW (5.1.4-0-10_14)) date 2019-11-06 07:52:38*
%MOMM*%
%LPD*%
G04 APERTURE LIST*
%ADD10C,0.150000*%
%ADD11C,0.400000*%
%ADD12C,0.175000*%
%ADD13C,0.120000*%
G04 APERTURE END LIST*
D10*
X175199337Y-97351646D02*
X175151718Y-97399265D01*
X175104099Y-97542122D01*
X175104099Y-97637360D01*
X175151718Y-97780218D01*
X175246956Y-97875456D01*
X175342194Y-97923075D01*
X175532670Y-97970694D01*
X175675527Y-97970694D01*
X175866003Y-97923075D01*
X175961241Y-97875456D01*
X176056480Y-97780218D01*
X176104099Y-97637360D01*
X176104099Y-97542122D01*
X176056480Y-97399265D01*
X176008860Y-97351646D01*
X175199337Y-96351646D02*
X175151718Y-96399265D01*
X175104099Y-96542122D01*
X175104099Y-96637360D01*
X175151718Y-96780218D01*
X175246956Y-96875456D01*
X175342194Y-96923075D01*
X175532670Y-96970694D01*
X175675527Y-96970694D01*
X175866003Y-96923075D01*
X175961241Y-96875456D01*
X176056480Y-96780218D01*
X176104099Y-96637360D01*
X176104099Y-96542122D01*
X176056480Y-96399265D01*
X176008860Y-96351646D01*
X175627908Y-94827837D02*
X175580289Y-94684980D01*
X175532670Y-94637360D01*
X175437432Y-94589741D01*
X175294575Y-94589741D01*
X175199337Y-94637360D01*
X175151718Y-94684980D01*
X175104099Y-94780218D01*
X175104099Y-95161170D01*
X176104099Y-95161170D01*
X176104099Y-94827837D01*
X176056480Y-94732599D01*
X176008860Y-94684980D01*
X175913622Y-94637360D01*
X175818384Y-94637360D01*
X175723146Y-94684980D01*
X175675527Y-94732599D01*
X175627908Y-94827837D01*
X175627908Y-95161170D01*
X175580289Y-93970694D02*
X175104099Y-93970694D01*
X176104099Y-94304027D02*
X175580289Y-93970694D01*
X176104099Y-93637360D01*
X175485051Y-93304027D02*
X175485051Y-92542122D01*
X175104099Y-92065932D02*
X176104099Y-92065932D01*
X175104099Y-91494503D01*
X176104099Y-91494503D01*
X175199337Y-90446884D02*
X175151718Y-90494503D01*
X175104099Y-90637360D01*
X175104099Y-90732599D01*
X175151718Y-90875456D01*
X175246956Y-90970694D01*
X175342194Y-91018313D01*
X175532670Y-91065932D01*
X175675527Y-91065932D01*
X175866003Y-91018313D01*
X175961241Y-90970694D01*
X176056480Y-90875456D01*
X176104099Y-90732599D01*
X176104099Y-90637360D01*
X176056480Y-90494503D01*
X176008860Y-90446884D01*
X175485051Y-90018313D02*
X175485051Y-89256408D01*
X175151718Y-88827837D02*
X175104099Y-88684980D01*
X175104099Y-88446884D01*
X175151718Y-88351646D01*
X175199337Y-88304027D01*
X175294575Y-88256408D01*
X175389813Y-88256408D01*
X175485051Y-88304027D01*
X175532670Y-88351646D01*
X175580289Y-88446884D01*
X175627908Y-88637360D01*
X175675527Y-88732599D01*
X175723146Y-88780218D01*
X175818384Y-88827837D01*
X175913622Y-88827837D01*
X176008860Y-88780218D01*
X176056480Y-88732599D01*
X176104099Y-88637360D01*
X176104099Y-88399265D01*
X176056480Y-88256408D01*
X175389813Y-87875456D02*
X175389813Y-87399265D01*
X175104099Y-87970694D02*
X176104099Y-87637360D01*
X175104099Y-87304027D01*
X162687432Y-101232599D02*
X162211241Y-101232599D01*
X162163622Y-100756408D01*
X162211241Y-100804027D01*
X162306480Y-100851646D01*
X162544575Y-100851646D01*
X162639813Y-100804027D01*
X162687432Y-100756408D01*
X162735051Y-100661170D01*
X162735051Y-100423075D01*
X162687432Y-100327837D01*
X162639813Y-100280218D01*
X162544575Y-100232599D01*
X162306480Y-100232599D01*
X162211241Y-100280218D01*
X162163622Y-100327837D01*
X163639813Y-101232599D02*
X163163622Y-101232599D01*
X163116003Y-100756408D01*
X163163622Y-100804027D01*
X163258860Y-100851646D01*
X163496956Y-100851646D01*
X163592194Y-100804027D01*
X163639813Y-100756408D01*
X163687432Y-100661170D01*
X163687432Y-100423075D01*
X163639813Y-100327837D01*
X163592194Y-100280218D01*
X163496956Y-100232599D01*
X163258860Y-100232599D01*
X163163622Y-100280218D01*
X163116003Y-100327837D01*
X164830289Y-100280218D02*
X164973146Y-100232599D01*
X165211241Y-100232599D01*
X165306480Y-100280218D01*
X165354099Y-100327837D01*
X165401718Y-100423075D01*
X165401718Y-100518313D01*
X165354099Y-100613551D01*
X165306480Y-100661170D01*
X165211241Y-100708789D01*
X165020765Y-100756408D01*
X164925527Y-100804027D01*
X164877908Y-100851646D01*
X164830289Y-100946884D01*
X164830289Y-101042122D01*
X164877908Y-101137360D01*
X164925527Y-101184980D01*
X165020765Y-101232599D01*
X165258860Y-101232599D01*
X165401718Y-101184980D01*
X166496956Y-100137360D02*
X166401718Y-100184980D01*
X166306480Y-100280218D01*
X166163622Y-100423075D01*
X166068384Y-100470694D01*
X165973146Y-100470694D01*
X166020765Y-100232599D02*
X165925527Y-100280218D01*
X165830289Y-100375456D01*
X165782670Y-100565932D01*
X165782670Y-100899265D01*
X165830289Y-101089741D01*
X165925527Y-101184980D01*
X166020765Y-101232599D01*
X166211241Y-101232599D01*
X166306480Y-101184980D01*
X166401718Y-101089741D01*
X166449337Y-100899265D01*
X166449337Y-100565932D01*
X166401718Y-100375456D01*
X166306480Y-100280218D01*
X166211241Y-100232599D01*
X166020765Y-100232599D01*
D11*
X161292194Y-100920694D02*
X161292194Y-100577837D01*
X161206480Y-100406408D01*
X161035051Y-100234980D01*
X160692194Y-100149265D01*
X160092194Y-100149265D01*
X159749337Y-100234980D01*
X159577908Y-100406408D01*
X159492194Y-100577837D01*
X159492194Y-100920694D01*
X159577908Y-101092122D01*
X159749337Y-101263551D01*
X160092194Y-101349265D01*
X160692194Y-101349265D01*
X161035051Y-101263551D01*
X161206480Y-101092122D01*
X161292194Y-100920694D01*
X160692194Y-99377837D02*
X158892194Y-99377837D01*
X160606480Y-99377837D02*
X160692194Y-99206408D01*
X160692194Y-98863551D01*
X160606480Y-98692122D01*
X160520765Y-98606408D01*
X160349337Y-98520694D01*
X159835051Y-98520694D01*
X159663622Y-98606408D01*
X159577908Y-98692122D01*
X159492194Y-98863551D01*
X159492194Y-99206408D01*
X159577908Y-99377837D01*
X159577908Y-97063551D02*
X159492194Y-97234980D01*
X159492194Y-97577837D01*
X159577908Y-97749265D01*
X159749337Y-97834980D01*
X160435051Y-97834980D01*
X160606480Y-97749265D01*
X160692194Y-97577837D01*
X160692194Y-97234980D01*
X160606480Y-97063551D01*
X160435051Y-96977837D01*
X160263622Y-96977837D01*
X160092194Y-97834980D01*
X160692194Y-96206408D02*
X159492194Y-96206408D01*
X160520765Y-96206408D02*
X160606480Y-96120694D01*
X160692194Y-95949265D01*
X160692194Y-95692122D01*
X160606480Y-95520694D01*
X160435051Y-95434980D01*
X159492194Y-95434980D01*
X159492194Y-94577837D02*
X161292194Y-94577837D01*
X160435051Y-94577837D02*
X160435051Y-93549265D01*
X159492194Y-93549265D02*
X161292194Y-93549265D01*
X159492194Y-92434980D02*
X159577908Y-92606408D01*
X159663622Y-92692122D01*
X159835051Y-92777837D01*
X160349337Y-92777837D01*
X160520765Y-92692122D01*
X160606480Y-92606408D01*
X160692194Y-92434980D01*
X160692194Y-92177837D01*
X160606480Y-92006408D01*
X160520765Y-91920694D01*
X160349337Y-91834980D01*
X159835051Y-91834980D01*
X159663622Y-91920694D01*
X159577908Y-92006408D01*
X159492194Y-92177837D01*
X159492194Y-92434980D01*
X159492194Y-91063551D02*
X160692194Y-91063551D01*
X160349337Y-91063551D02*
X160520765Y-90977837D01*
X160606480Y-90892122D01*
X160692194Y-90720694D01*
X160692194Y-90549265D01*
X160692194Y-89949265D02*
X159492194Y-89949265D01*
X160520765Y-89949265D02*
X160606480Y-89863551D01*
X160692194Y-89692122D01*
X160692194Y-89434980D01*
X160606480Y-89263551D01*
X160435051Y-89177837D01*
X159492194Y-89177837D01*
X159577908Y-87634980D02*
X159492194Y-87806408D01*
X159492194Y-88149265D01*
X159577908Y-88320694D01*
X159749337Y-88406408D01*
X160435051Y-88406408D01*
X160606480Y-88320694D01*
X160692194Y-88149265D01*
X160692194Y-87806408D01*
X160606480Y-87634980D01*
X160435051Y-87549265D01*
X160263622Y-87549265D01*
X160092194Y-88406408D01*
X160692194Y-87034980D02*
X160692194Y-86349265D01*
X161292194Y-86777837D02*
X159749337Y-86777837D01*
X159577908Y-86692122D01*
X159492194Y-86520694D01*
X159492194Y-86349265D01*
D12*
X160662866Y-85801039D02*
X160662866Y-85101039D01*
X160662866Y-85767705D02*
X160729533Y-85801039D01*
X160862866Y-85801039D01*
X160929533Y-85767705D01*
X160962866Y-85734372D01*
X160996199Y-85667705D01*
X160996199Y-85467705D01*
X160962866Y-85401039D01*
X160929533Y-85367705D01*
X160862866Y-85334372D01*
X160729533Y-85334372D01*
X160662866Y-85367705D01*
X161396199Y-85334372D02*
X161329533Y-85367705D01*
X161296199Y-85401039D01*
X161262866Y-85467705D01*
X161262866Y-85667705D01*
X161296199Y-85734372D01*
X161329533Y-85767705D01*
X161396199Y-85801039D01*
X161496199Y-85801039D01*
X161562866Y-85767705D01*
X161596199Y-85734372D01*
X161629533Y-85667705D01*
X161629533Y-85467705D01*
X161596199Y-85401039D01*
X161562866Y-85367705D01*
X161496199Y-85334372D01*
X161396199Y-85334372D01*
X161929533Y-85801039D02*
X161929533Y-85101039D01*
X161929533Y-85767705D02*
X161996199Y-85801039D01*
X162129533Y-85801039D01*
X162196199Y-85767705D01*
X162229533Y-85734372D01*
X162262866Y-85667705D01*
X162262866Y-85467705D01*
X162229533Y-85401039D01*
X162196199Y-85367705D01*
X162129533Y-85334372D01*
X161996199Y-85334372D01*
X161929533Y-85367705D01*
X162862866Y-85801039D02*
X162862866Y-85334372D01*
X162562866Y-85801039D02*
X162562866Y-85434372D01*
X162596199Y-85367705D01*
X162662866Y-85334372D01*
X162762866Y-85334372D01*
X162829533Y-85367705D01*
X162862866Y-85401039D01*
X163296199Y-85334372D02*
X163229533Y-85367705D01*
X163196199Y-85434372D01*
X163196199Y-86034372D01*
X163862866Y-85334372D02*
X163862866Y-85701039D01*
X163829533Y-85767705D01*
X163762866Y-85801039D01*
X163629533Y-85801039D01*
X163562866Y-85767705D01*
X163862866Y-85367705D02*
X163796199Y-85334372D01*
X163629533Y-85334372D01*
X163562866Y-85367705D01*
X163529533Y-85434372D01*
X163529533Y-85501039D01*
X163562866Y-85567705D01*
X163629533Y-85601039D01*
X163796199Y-85601039D01*
X163862866Y-85634372D01*
X164096199Y-85801039D02*
X164362866Y-85801039D01*
X164196199Y-86034372D02*
X164196199Y-85434372D01*
X164229533Y-85367705D01*
X164296199Y-85334372D01*
X164362866Y-85334372D01*
X164862866Y-85367705D02*
X164796199Y-85334372D01*
X164662866Y-85334372D01*
X164596199Y-85367705D01*
X164562866Y-85434372D01*
X164562866Y-85701039D01*
X164596199Y-85767705D01*
X164662866Y-85801039D01*
X164796199Y-85801039D01*
X164862866Y-85767705D01*
X164896199Y-85701039D01*
X164896199Y-85634372D01*
X164562866Y-85567705D01*
X165629533Y-85801039D02*
X165896199Y-85801039D01*
X165729533Y-85334372D02*
X165729533Y-85934372D01*
X165762866Y-86001039D01*
X165829533Y-86034372D01*
X165896199Y-86034372D01*
X166229533Y-85334372D02*
X166162866Y-85367705D01*
X166129533Y-85401039D01*
X166096199Y-85467705D01*
X166096199Y-85667705D01*
X166129533Y-85734372D01*
X166162866Y-85767705D01*
X166229533Y-85801039D01*
X166329533Y-85801039D01*
X166396199Y-85767705D01*
X166429533Y-85734372D01*
X166462866Y-85667705D01*
X166462866Y-85467705D01*
X166429533Y-85401039D01*
X166396199Y-85367705D01*
X166329533Y-85334372D01*
X166229533Y-85334372D01*
X166762866Y-85334372D02*
X166762866Y-85801039D01*
X166762866Y-85667705D02*
X166796199Y-85734372D01*
X166829533Y-85767705D01*
X166896199Y-85801039D01*
X166962866Y-85801039D01*
X167996199Y-85367705D02*
X167929533Y-85334372D01*
X167796199Y-85334372D01*
X167729533Y-85367705D01*
X167696199Y-85434372D01*
X167696199Y-85701039D01*
X167729533Y-85767705D01*
X167796199Y-85801039D01*
X167929533Y-85801039D01*
X167996199Y-85767705D01*
X168029533Y-85701039D01*
X168029533Y-85634372D01*
X167696199Y-85567705D01*
X168262866Y-85334372D02*
X168629533Y-85801039D01*
X168262866Y-85801039D02*
X168629533Y-85334372D01*
X168796199Y-85801039D02*
X169062866Y-85801039D01*
X168896199Y-86034372D02*
X168896199Y-85434372D01*
X168929533Y-85367705D01*
X168996199Y-85334372D01*
X169062866Y-85334372D01*
X169296199Y-85334372D02*
X169296199Y-85801039D01*
X169296199Y-85667705D02*
X169329533Y-85734372D01*
X169362866Y-85767705D01*
X169429533Y-85801039D01*
X169496199Y-85801039D01*
X170029533Y-85334372D02*
X170029533Y-85701039D01*
X169996199Y-85767705D01*
X169929533Y-85801039D01*
X169796199Y-85801039D01*
X169729533Y-85767705D01*
X170029533Y-85367705D02*
X169962866Y-85334372D01*
X169796199Y-85334372D01*
X169729533Y-85367705D01*
X169696199Y-85434372D01*
X169696199Y-85501039D01*
X169729533Y-85567705D01*
X169796199Y-85601039D01*
X169962866Y-85601039D01*
X170029533Y-85634372D01*
X171196199Y-85367705D02*
X171129533Y-85334372D01*
X170996199Y-85334372D01*
X170929533Y-85367705D01*
X170896199Y-85401039D01*
X170862866Y-85467705D01*
X170862866Y-85667705D01*
X170896199Y-85734372D01*
X170929533Y-85767705D01*
X170996199Y-85801039D01*
X171129533Y-85801039D01*
X171196199Y-85767705D01*
X171796199Y-85801039D02*
X171796199Y-85334372D01*
X171496199Y-85801039D02*
X171496199Y-85434372D01*
X171529533Y-85367705D01*
X171596199Y-85334372D01*
X171696199Y-85334372D01*
X171762866Y-85367705D01*
X171796199Y-85401039D01*
X172129533Y-85334372D02*
X172129533Y-85801039D01*
X172129533Y-85667705D02*
X172162866Y-85734372D01*
X172196199Y-85767705D01*
X172262866Y-85801039D01*
X172329533Y-85801039D01*
X172562866Y-85334372D02*
X172562866Y-85801039D01*
X172562866Y-85667705D02*
X172596199Y-85734372D01*
X172629533Y-85767705D01*
X172696199Y-85801039D01*
X172762866Y-85801039D01*
X173262866Y-85367705D02*
X173196199Y-85334372D01*
X173062866Y-85334372D01*
X172996199Y-85367705D01*
X172962866Y-85434372D01*
X172962866Y-85701039D01*
X172996199Y-85767705D01*
X173062866Y-85801039D01*
X173196199Y-85801039D01*
X173262866Y-85767705D01*
X173296199Y-85701039D01*
X173296199Y-85634372D01*
X172962866Y-85567705D01*
X173596199Y-85801039D02*
X173596199Y-85334372D01*
X173596199Y-85734372D02*
X173629533Y-85767705D01*
X173696199Y-85801039D01*
X173796199Y-85801039D01*
X173862866Y-85767705D01*
X173896199Y-85701039D01*
X173896199Y-85334372D01*
X174129533Y-85801039D02*
X174396199Y-85801039D01*
X174229533Y-86034372D02*
X174229533Y-85434372D01*
X174262866Y-85367705D01*
X174329533Y-85334372D01*
X174396199Y-85334372D01*
X162379533Y-83842705D02*
X162346199Y-83876039D01*
X162279533Y-83976039D01*
X162246199Y-84042705D01*
X162212866Y-84142705D01*
X162179533Y-84309372D01*
X162179533Y-84442705D01*
X162212866Y-84609372D01*
X162246199Y-84709372D01*
X162279533Y-84776039D01*
X162346199Y-84876039D01*
X162379533Y-84909372D01*
X162612866Y-84142705D02*
X162679533Y-84109372D01*
X162812866Y-84109372D01*
X162879533Y-84142705D01*
X162912866Y-84209372D01*
X162912866Y-84242705D01*
X162879533Y-84309372D01*
X162812866Y-84342705D01*
X162712866Y-84342705D01*
X162646199Y-84376039D01*
X162612866Y-84442705D01*
X162612866Y-84476039D01*
X162646199Y-84542705D01*
X162712866Y-84576039D01*
X162812866Y-84576039D01*
X162879533Y-84542705D01*
X163479533Y-84142705D02*
X163412866Y-84109372D01*
X163279533Y-84109372D01*
X163212866Y-84142705D01*
X163179533Y-84209372D01*
X163179533Y-84476039D01*
X163212866Y-84542705D01*
X163279533Y-84576039D01*
X163412866Y-84576039D01*
X163479533Y-84542705D01*
X163512866Y-84476039D01*
X163512866Y-84409372D01*
X163179533Y-84342705D01*
X164079533Y-84142705D02*
X164012866Y-84109372D01*
X163879533Y-84109372D01*
X163812866Y-84142705D01*
X163779533Y-84209372D01*
X163779533Y-84476039D01*
X163812866Y-84542705D01*
X163879533Y-84576039D01*
X164012866Y-84576039D01*
X164079533Y-84542705D01*
X164112866Y-84476039D01*
X164112866Y-84409372D01*
X163779533Y-84342705D01*
X165246199Y-84109372D02*
X165246199Y-84809372D01*
X165246199Y-84142705D02*
X165179533Y-84109372D01*
X165046199Y-84109372D01*
X164979533Y-84142705D01*
X164946199Y-84176039D01*
X164912866Y-84242705D01*
X164912866Y-84442705D01*
X164946199Y-84509372D01*
X164979533Y-84542705D01*
X165046199Y-84576039D01*
X165179533Y-84576039D01*
X165246199Y-84542705D01*
X165679533Y-84109372D02*
X165612866Y-84142705D01*
X165579533Y-84176039D01*
X165546199Y-84242705D01*
X165546199Y-84442705D01*
X165579533Y-84509372D01*
X165612866Y-84542705D01*
X165679533Y-84576039D01*
X165779533Y-84576039D01*
X165846199Y-84542705D01*
X165879533Y-84509372D01*
X165912866Y-84442705D01*
X165912866Y-84242705D01*
X165879533Y-84176039D01*
X165846199Y-84142705D01*
X165779533Y-84109372D01*
X165679533Y-84109372D01*
X166512866Y-84142705D02*
X166446199Y-84109372D01*
X166312866Y-84109372D01*
X166246199Y-84142705D01*
X166212866Y-84176039D01*
X166179533Y-84242705D01*
X166179533Y-84442705D01*
X166212866Y-84509372D01*
X166246199Y-84542705D01*
X166312866Y-84576039D01*
X166446199Y-84576039D01*
X166512866Y-84542705D01*
X167112866Y-84576039D02*
X167112866Y-84109372D01*
X166812866Y-84576039D02*
X166812866Y-84209372D01*
X166846199Y-84142705D01*
X166912866Y-84109372D01*
X167012866Y-84109372D01*
X167079533Y-84142705D01*
X167112866Y-84176039D01*
X167446199Y-84109372D02*
X167446199Y-84576039D01*
X167446199Y-84509372D02*
X167479533Y-84542705D01*
X167546199Y-84576039D01*
X167646199Y-84576039D01*
X167712866Y-84542705D01*
X167746199Y-84476039D01*
X167746199Y-84109372D01*
X167746199Y-84476039D02*
X167779533Y-84542705D01*
X167846199Y-84576039D01*
X167946199Y-84576039D01*
X168012866Y-84542705D01*
X168046199Y-84476039D01*
X168046199Y-84109372D01*
X168646199Y-84142705D02*
X168579533Y-84109372D01*
X168446199Y-84109372D01*
X168379533Y-84142705D01*
X168346199Y-84209372D01*
X168346199Y-84476039D01*
X168379533Y-84542705D01*
X168446199Y-84576039D01*
X168579533Y-84576039D01*
X168646199Y-84542705D01*
X168679533Y-84476039D01*
X168679533Y-84409372D01*
X168346199Y-84342705D01*
X168979533Y-84576039D02*
X168979533Y-84109372D01*
X168979533Y-84509372D02*
X169012866Y-84542705D01*
X169079533Y-84576039D01*
X169179533Y-84576039D01*
X169246199Y-84542705D01*
X169279533Y-84476039D01*
X169279533Y-84109372D01*
X169512866Y-84576039D02*
X169779533Y-84576039D01*
X169612866Y-84809372D02*
X169612866Y-84209372D01*
X169646199Y-84142705D01*
X169712866Y-84109372D01*
X169779533Y-84109372D01*
X170312866Y-84109372D02*
X170312866Y-84476039D01*
X170279533Y-84542705D01*
X170212866Y-84576039D01*
X170079533Y-84576039D01*
X170012866Y-84542705D01*
X170312866Y-84142705D02*
X170246199Y-84109372D01*
X170079533Y-84109372D01*
X170012866Y-84142705D01*
X169979533Y-84209372D01*
X169979533Y-84276039D01*
X170012866Y-84342705D01*
X170079533Y-84376039D01*
X170246199Y-84376039D01*
X170312866Y-84409372D01*
X170546199Y-84576039D02*
X170812866Y-84576039D01*
X170646199Y-84809372D02*
X170646199Y-84209372D01*
X170679533Y-84142705D01*
X170746199Y-84109372D01*
X170812866Y-84109372D01*
X171046199Y-84109372D02*
X171046199Y-84576039D01*
X171046199Y-84809372D02*
X171012866Y-84776039D01*
X171046199Y-84742705D01*
X171079533Y-84776039D01*
X171046199Y-84809372D01*
X171046199Y-84742705D01*
X171479533Y-84109372D02*
X171412866Y-84142705D01*
X171379533Y-84176039D01*
X171346199Y-84242705D01*
X171346199Y-84442705D01*
X171379533Y-84509372D01*
X171412866Y-84542705D01*
X171479533Y-84576039D01*
X171579533Y-84576039D01*
X171646199Y-84542705D01*
X171679533Y-84509372D01*
X171712866Y-84442705D01*
X171712866Y-84242705D01*
X171679533Y-84176039D01*
X171646199Y-84142705D01*
X171579533Y-84109372D01*
X171479533Y-84109372D01*
X172012866Y-84576039D02*
X172012866Y-84109372D01*
X172012866Y-84509372D02*
X172046199Y-84542705D01*
X172112866Y-84576039D01*
X172212866Y-84576039D01*
X172279533Y-84542705D01*
X172312866Y-84476039D01*
X172312866Y-84109372D01*
X172579533Y-83842705D02*
X172612866Y-83876039D01*
X172679533Y-83976039D01*
X172712866Y-84042705D01*
X172746199Y-84142705D01*
X172779533Y-84309372D01*
X172779533Y-84442705D01*
X172746199Y-84609372D01*
X172712866Y-84709372D01*
X172679533Y-84776039D01*
X172612866Y-84876039D01*
X172579533Y-84909372D01*
D13*
X172709533Y-93708539D02*
X172709533Y-91048539D01*
X162429533Y-93708539D02*
X162429533Y-91048539D01*
X172709533Y-91048539D02*
X169599533Y-91048539D01*
X172139533Y-93708539D02*
X172139533Y-95228539D01*
X172709533Y-93708539D02*
X172139533Y-93708539D01*
X162999533Y-91048539D02*
X162429533Y-91048539D01*
X168079533Y-91048539D02*
X164519533Y-91048539D01*
X170619533Y-93708539D02*
X167059533Y-93708539D01*
X165539533Y-93708539D02*
X162429533Y-93708539D01*
X169599533Y-87898539D02*
X170599533Y-87898539D01*
X170599533Y-86538539D02*
X169599533Y-86538539D01*
X165099533Y-97188539D02*
X164099533Y-97188539D01*
X164099533Y-98548539D02*
X165099533Y-98548539D01*
D10*
X173161913Y-92045205D02*
X173876199Y-92045205D01*
X174019056Y-91997586D01*
X174114294Y-91902348D01*
X174161913Y-91759491D01*
X174161913Y-91664253D01*
X174161913Y-93045205D02*
X174161913Y-92473777D01*
X174161913Y-92759491D02*
X173161913Y-92759491D01*
X173304771Y-92664253D01*
X173400009Y-92569015D01*
X173447628Y-92473777D01*
X167226199Y-87690919D02*
X167559533Y-87214729D01*
X167797628Y-87690919D02*
X167797628Y-86690919D01*
X167416675Y-86690919D01*
X167321437Y-86738539D01*
X167273818Y-86786158D01*
X167226199Y-86881396D01*
X167226199Y-87024253D01*
X167273818Y-87119491D01*
X167321437Y-87167110D01*
X167416675Y-87214729D01*
X167797628Y-87214729D01*
X166273818Y-87690919D02*
X166845247Y-87690919D01*
X166559533Y-87690919D02*
X166559533Y-86690919D01*
X166654771Y-86833777D01*
X166750009Y-86929015D01*
X166845247Y-86976634D01*
X168486199Y-98390919D02*
X168819533Y-97914729D01*
X169057628Y-98390919D02*
X169057628Y-97390919D01*
X168676675Y-97390919D01*
X168581437Y-97438539D01*
X168533818Y-97486158D01*
X168486199Y-97581396D01*
X168486199Y-97724253D01*
X168533818Y-97819491D01*
X168581437Y-97867110D01*
X168676675Y-97914729D01*
X169057628Y-97914729D01*
X168105247Y-97486158D02*
X168057628Y-97438539D01*
X167962390Y-97390919D01*
X167724294Y-97390919D01*
X167629056Y-97438539D01*
X167581437Y-97486158D01*
X167533818Y-97581396D01*
X167533818Y-97676634D01*
X167581437Y-97819491D01*
X168152866Y-98390919D01*
X167533818Y-98390919D01*
M02*
