%TF.GenerationSoftware,KiCad,Pcbnew,7.0.1*%
%TF.CreationDate,2023-07-19T18:18:49-06:00*%
%TF.ProjectId,UFC_Function Select,5546435f-4675-46e6-9374-696f6e205365,rev?*%
%TF.SameCoordinates,Original*%
%TF.FileFunction,Legend,Bot*%
%TF.FilePolarity,Positive*%
%FSLAX46Y46*%
G04 Gerber Fmt 4.6, Leading zero omitted, Abs format (unit mm)*
G04 Created by KiCad (PCBNEW 7.0.1) date 2023-07-19 18:18:49*
%MOMM*%
%LPD*%
G01*
G04 APERTURE LIST*
G04 Aperture macros list*
%AMRoundRect*
0 Rectangle with rounded corners*
0 $1 Rounding radius*
0 $2 $3 $4 $5 $6 $7 $8 $9 X,Y pos of 4 corners*
0 Add a 4 corners polygon primitive as box body*
4,1,4,$2,$3,$4,$5,$6,$7,$8,$9,$2,$3,0*
0 Add four circle primitives for the rounded corners*
1,1,$1+$1,$2,$3*
1,1,$1+$1,$4,$5*
1,1,$1+$1,$6,$7*
1,1,$1+$1,$8,$9*
0 Add four rect primitives between the rounded corners*
20,1,$1+$1,$2,$3,$4,$5,0*
20,1,$1+$1,$4,$5,$6,$7,0*
20,1,$1+$1,$6,$7,$8,$9,0*
20,1,$1+$1,$8,$9,$2,$3,0*%
G04 Aperture macros list end*
%ADD10C,0.150000*%
%ADD11C,0.100000*%
%ADD12C,0.300000*%
%ADD13C,0.120000*%
%ADD14C,3.200000*%
%ADD15C,2.000000*%
%ADD16R,1.700000X1.700000*%
%ADD17O,1.700000X1.700000*%
%ADD18RoundRect,0.062500X0.325000X0.062500X-0.325000X0.062500X-0.325000X-0.062500X0.325000X-0.062500X0*%
%ADD19RoundRect,0.062500X0.062500X0.325000X-0.062500X0.325000X-0.062500X-0.325000X0.062500X-0.325000X0*%
%ADD20R,2.450000X2.450000*%
%ADD21RoundRect,0.250000X-0.550000X1.500000X-0.550000X-1.500000X0.550000X-1.500000X0.550000X1.500000X0*%
%ADD22RoundRect,0.200000X0.275000X-0.200000X0.275000X0.200000X-0.275000X0.200000X-0.275000X-0.200000X0*%
%ADD23RoundRect,0.200000X-0.275000X0.200000X-0.275000X-0.200000X0.275000X-0.200000X0.275000X0.200000X0*%
%ADD24RoundRect,0.225000X0.225000X0.250000X-0.225000X0.250000X-0.225000X-0.250000X0.225000X-0.250000X0*%
%ADD25RoundRect,0.200000X-0.200000X-0.275000X0.200000X-0.275000X0.200000X0.275000X-0.200000X0.275000X0*%
G04 APERTURE END LIST*
D10*
X52578000Y6223000D02*
X52578000Y8509000D01*
D11*
X86863689Y9403181D02*
X85563689Y10103181D01*
X86863689Y10953181D01*
X86863689Y9403181D01*
G36*
X86863689Y9403181D02*
G01*
X85563689Y10103181D01*
X86863689Y10953181D01*
X86863689Y9403181D01*
G37*
D10*
X49022000Y10795000D02*
X49022000Y3429000D01*
D11*
X69100000Y7600000D02*
X68800000Y7900000D01*
X69100000Y8200000D01*
X69100000Y7600000D01*
G36*
X69100000Y7600000D02*
G01*
X68800000Y7900000D01*
X69100000Y8200000D01*
X69100000Y7600000D01*
G37*
D10*
X52578000Y8509000D02*
X45466000Y8509000D01*
X45466000Y6223000D02*
X52578000Y6223000D01*
D11*
X50800000Y11303000D02*
X49950000Y12603000D01*
X51500000Y12603000D01*
X50800000Y11303000D01*
G36*
X50800000Y11303000D02*
G01*
X49950000Y12603000D01*
X51500000Y12603000D01*
X50800000Y11303000D01*
G37*
D10*
X45466000Y10795000D02*
X52578000Y10795000D01*
X52578000Y3429000D01*
X45466000Y3429000D01*
X45466000Y10795000D01*
G36*
X11288323Y11985477D02*
G01*
X11115485Y11985477D01*
X11201904Y12244735D01*
X11288323Y11985477D01*
G37*
G36*
X17145951Y11756905D02*
G01*
X16933895Y11756905D01*
X16884425Y11781640D01*
X16863542Y11802523D01*
X16838808Y11851991D01*
X16838808Y11930867D01*
X16863542Y11980335D01*
X16880513Y11997306D01*
X16959843Y12023749D01*
X16962677Y12023239D01*
X16969221Y12025953D01*
X17145951Y12025953D01*
X17145951Y11756905D01*
G37*
G36*
X17145951Y12175953D02*
G01*
X16971990Y12175953D01*
X16922520Y12200688D01*
X16901638Y12221570D01*
X16876904Y12271038D01*
X16876904Y12311819D01*
X16901638Y12361289D01*
X16922520Y12382171D01*
X16971989Y12406905D01*
X17145951Y12406905D01*
X17145951Y12175953D01*
G37*
G36*
X13926904Y13433858D02*
G01*
X13818280Y13433858D01*
X13803370Y13436607D01*
X13796660Y13433858D01*
X13714848Y13433858D01*
X13665378Y13458593D01*
X13644495Y13479476D01*
X13619761Y13528944D01*
X13619761Y13607819D01*
X13644496Y13657289D01*
X13665378Y13678171D01*
X13714847Y13702905D01*
X13926904Y13702905D01*
X13926904Y13433858D01*
G37*
G36*
X18757477Y13678171D02*
G01*
X18810371Y13625277D01*
X18841190Y13502004D01*
X18841190Y13253804D01*
X18810371Y13130535D01*
X18757476Y13077639D01*
X18708009Y13052905D01*
X18591038Y13052905D01*
X18541568Y13077640D01*
X18488673Y13130535D01*
X18457856Y13253806D01*
X18457856Y13502004D01*
X18488673Y13625277D01*
X18541567Y13678171D01*
X18591037Y13702905D01*
X18708008Y13702905D01*
X18757477Y13678171D01*
G37*
G36*
X14719382Y13678171D02*
G01*
X14772276Y13625277D01*
X14803095Y13502004D01*
X14803095Y13253804D01*
X14772276Y13130535D01*
X14719381Y13077639D01*
X14669914Y13052905D01*
X14552943Y13052905D01*
X14503473Y13077640D01*
X14450578Y13130535D01*
X14419761Y13253806D01*
X14419761Y13502004D01*
X14450578Y13625277D01*
X14503472Y13678171D01*
X14552942Y13702905D01*
X14669913Y13702905D01*
X14719382Y13678171D01*
G37*
G36*
X9728906Y13678171D02*
G01*
X9781800Y13625277D01*
X9812619Y13502004D01*
X9812619Y13253804D01*
X9781800Y13130535D01*
X9728905Y13077639D01*
X9679438Y13052905D01*
X9562467Y13052905D01*
X9512997Y13077640D01*
X9460102Y13130535D01*
X9429285Y13253806D01*
X9429285Y13502004D01*
X9460102Y13625277D01*
X9512996Y13678171D01*
X9562466Y13702905D01*
X9679437Y13702905D01*
X9728906Y13678171D01*
G37*
G36*
X17964999Y13433858D02*
G01*
X17752943Y13433858D01*
X17703473Y13458593D01*
X17682590Y13479476D01*
X17657856Y13528944D01*
X17657856Y13607819D01*
X17682591Y13657289D01*
X17703473Y13678171D01*
X17752942Y13702905D01*
X17964999Y13702905D01*
X17964999Y13433858D01*
G37*
G36*
X22639167Y11125214D02*
G01*
X7840833Y11125214D01*
X7840833Y11662608D01*
X10859492Y11662608D01*
X10881949Y11624720D01*
X10921325Y11604988D01*
X10965118Y11609675D01*
X10999425Y11637296D01*
X11065485Y11835477D01*
X11338323Y11835477D01*
X11400829Y11647959D01*
X11419552Y11621020D01*
X11460251Y11604184D01*
X11503591Y11612023D01*
X11535813Y11642050D01*
X11546686Y11684730D01*
X11469141Y11917364D01*
X11469751Y11921601D01*
X11462264Y11937995D01*
X11290886Y12452130D01*
X11619421Y12452130D01*
X11627261Y12408790D01*
X11657288Y12376568D01*
X11699968Y12365695D01*
X11823600Y12406905D01*
X11984199Y12406905D01*
X12033668Y12382171D01*
X12054550Y12361289D01*
X12079286Y12311819D01*
X12079286Y12271039D01*
X12054550Y12221570D01*
X12033668Y12200688D01*
X11975727Y12171718D01*
X11844291Y12138859D01*
X11835679Y12139788D01*
X11823348Y12133623D01*
X11820874Y12133004D01*
X11813739Y12128819D01*
X11748202Y12096050D01*
X11735872Y12093367D01*
X11721247Y12078743D01*
X11706127Y12064677D01*
X11705764Y12063260D01*
X11688853Y12046349D01*
X11678004Y12039905D01*
X11668754Y12021406D01*
X11658858Y12003282D01*
X11658962Y12001822D01*
X11631866Y11947629D01*
X11622143Y11932499D01*
X11622143Y11917169D01*
X11619429Y11902086D01*
X11622143Y11895542D01*
X11622143Y11838326D01*
X11620212Y11820442D01*
X11627068Y11806729D01*
X11631386Y11792026D01*
X11636739Y11787388D01*
X11663951Y11732965D01*
X11666633Y11720636D01*
X11681245Y11706024D01*
X11695322Y11690890D01*
X11696740Y11690528D01*
X11713649Y11673618D01*
X11720095Y11662766D01*
X11738602Y11653513D01*
X11756717Y11643621D01*
X11758176Y11643726D01*
X11812372Y11616628D01*
X11827502Y11606905D01*
X11842833Y11606905D01*
X11857916Y11604191D01*
X11864460Y11606905D01*
X12030597Y11606905D01*
X12042825Y11603790D01*
X12062439Y11610329D01*
X12082260Y11616148D01*
X12083218Y11617255D01*
X12188232Y11652258D01*
X12215171Y11670981D01*
X12232008Y11711680D01*
X12224168Y11755020D01*
X12216106Y11763672D01*
X13371556Y11763672D01*
X13380918Y11720635D01*
X13431731Y11669822D01*
X13443010Y11655813D01*
X13457551Y11650966D01*
X13471004Y11643620D01*
X13478071Y11644126D01*
X13569266Y11613728D01*
X13579882Y11606905D01*
X13600562Y11606905D01*
X13621201Y11606159D01*
X13622460Y11606905D01*
X13668692Y11606905D01*
X13680920Y11603790D01*
X13700534Y11610329D01*
X13720355Y11616148D01*
X13721313Y11617255D01*
X13812269Y11647573D01*
X13829843Y11651395D01*
X13840684Y11662237D01*
X13853266Y11670981D01*
X13855973Y11677527D01*
X13856284Y11677838D01*
X14209558Y11677838D01*
X14216206Y11658904D01*
X14221861Y11639645D01*
X14223451Y11638267D01*
X14224149Y11636281D01*
X14239979Y11623946D01*
X14255147Y11610803D01*
X14257230Y11610504D01*
X14258890Y11609210D01*
X14278880Y11607391D01*
X14298742Y11604535D01*
X14300655Y11605409D01*
X14302753Y11605218D01*
X14320557Y11614498D01*
X14338806Y11622831D01*
X14339943Y11624602D01*
X14341810Y11625574D01*
X14351766Y11642998D01*
X14362618Y11659883D01*
X14362618Y11661988D01*
X14669761Y12199487D01*
X14669761Y11671123D01*
X14679004Y11639645D01*
X14712290Y11610803D01*
X14755885Y11604535D01*
X14795949Y11622831D01*
X14819761Y11659883D01*
X14819761Y11975543D01*
X15048344Y11975543D01*
X15066640Y11935479D01*
X15103692Y11911667D01*
X15746019Y11911667D01*
X15777497Y11920910D01*
X15806339Y11954196D01*
X15812607Y11997791D01*
X15794311Y12037855D01*
X15757259Y12061667D01*
X15114932Y12061667D01*
X15083454Y12052424D01*
X15054612Y12019138D01*
X15048344Y11975543D01*
X14819761Y11975543D01*
X14819761Y12460218D01*
X15926806Y12460218D01*
X16193570Y12041018D01*
X16193570Y11671123D01*
X16202813Y11639645D01*
X16236099Y11610803D01*
X16279694Y11604535D01*
X16319758Y11622831D01*
X16343570Y11659883D01*
X16343570Y11940182D01*
X16686094Y11940182D01*
X16688808Y11933638D01*
X16688808Y11838320D01*
X16686878Y11820441D01*
X16693733Y11806732D01*
X16698051Y11792026D01*
X16703405Y11787387D01*
X16730617Y11732965D01*
X16733299Y11720636D01*
X16747916Y11706019D01*
X16761989Y11690890D01*
X16763406Y11690528D01*
X16780316Y11673618D01*
X16786761Y11662766D01*
X16805270Y11653512D01*
X16823383Y11643621D01*
X16824842Y11643726D01*
X16879037Y11616629D01*
X16894167Y11606905D01*
X16909497Y11606905D01*
X16924580Y11604191D01*
X16931124Y11606905D01*
X17215591Y11606905D01*
X17232075Y11604535D01*
X17247227Y11611455D01*
X17263211Y11616148D01*
X17266947Y11620461D01*
X17272139Y11622831D01*
X17281146Y11636848D01*
X17292053Y11649434D01*
X17292864Y11655081D01*
X17295951Y11659883D01*
X17295951Y11676545D01*
X17298321Y11693029D01*
X17295951Y11698219D01*
X17295951Y11763672D01*
X18095365Y11763672D01*
X18104727Y11720635D01*
X18155540Y11669822D01*
X18166819Y11655813D01*
X18181360Y11650966D01*
X18194813Y11643620D01*
X18201880Y11644126D01*
X18293075Y11613728D01*
X18303691Y11606905D01*
X18324371Y11606905D01*
X18345010Y11606159D01*
X18346269Y11606905D01*
X18392501Y11606905D01*
X18404729Y11603790D01*
X18424343Y11610329D01*
X18444164Y11616148D01*
X18445122Y11617255D01*
X18536078Y11647573D01*
X18553652Y11651395D01*
X18564493Y11662237D01*
X18577075Y11670981D01*
X18579782Y11677527D01*
X18638764Y11736510D01*
X18649614Y11742953D01*
X18658862Y11761452D01*
X18660074Y11763672D01*
X18895365Y11763672D01*
X18904727Y11720635D01*
X18955540Y11669822D01*
X18966819Y11655813D01*
X18981360Y11650966D01*
X18994813Y11643620D01*
X19001880Y11644126D01*
X19093075Y11613728D01*
X19103691Y11606905D01*
X19124371Y11606905D01*
X19145010Y11606159D01*
X19146269Y11606905D01*
X19192501Y11606905D01*
X19204729Y11603790D01*
X19224343Y11610329D01*
X19244164Y11616148D01*
X19245122Y11617255D01*
X19336078Y11647573D01*
X19353652Y11651395D01*
X19364493Y11662237D01*
X19377075Y11670981D01*
X19379782Y11677527D01*
X19438764Y11736510D01*
X19449614Y11742953D01*
X19458862Y11761452D01*
X19468760Y11779577D01*
X19468655Y11781037D01*
X19491583Y11826893D01*
X19497894Y11832826D01*
X19501238Y11846203D01*
X19502379Y11848484D01*
X19503843Y11856625D01*
X19538338Y11994598D01*
X19543571Y12002740D01*
X19543571Y12015528D01*
X19543947Y12017032D01*
X19543571Y12026278D01*
X19543571Y12126705D01*
X19546673Y12135874D01*
X19543571Y12148282D01*
X19543571Y12149830D01*
X19540966Y12158701D01*
X19506476Y12296660D01*
X19507406Y12305272D01*
X19501240Y12317604D01*
X19500621Y12320080D01*
X19496433Y12327218D01*
X19463667Y12392749D01*
X19460985Y12405081D01*
X19446357Y12419709D01*
X19432296Y12434826D01*
X19430877Y12435189D01*
X19372078Y12493988D01*
X19360799Y12507997D01*
X19346257Y12512845D01*
X19332805Y12520190D01*
X19325737Y12519685D01*
X19234541Y12550083D01*
X19223926Y12556905D01*
X19203246Y12556905D01*
X19182607Y12557651D01*
X19181348Y12556905D01*
X19135115Y12556905D01*
X19122888Y12560020D01*
X19103274Y12553483D01*
X19083453Y12547662D01*
X19082494Y12546556D01*
X18991536Y12516237D01*
X18973968Y12512415D01*
X18963130Y12501578D01*
X18950542Y12492829D01*
X18947833Y12486282D01*
X18912676Y12451125D01*
X18896953Y12422331D01*
X18900094Y12378400D01*
X18926488Y12343141D01*
X18967755Y12327748D01*
X19010792Y12337110D01*
X19051940Y12378258D01*
X19137885Y12406905D01*
X19189734Y12406905D01*
X19275676Y12378258D01*
X19330740Y12323194D01*
X19359710Y12265255D01*
X19393571Y12129813D01*
X19393571Y12033994D01*
X19359711Y11898560D01*
X19330740Y11840618D01*
X19275676Y11785553D01*
X19189732Y11756905D01*
X19137883Y11756905D01*
X19051941Y11785553D01*
X19018741Y11818753D01*
X18989947Y11834476D01*
X18946016Y11831333D01*
X18910757Y11804939D01*
X18895365Y11763672D01*
X18660074Y11763672D01*
X18668760Y11779577D01*
X18668655Y11781037D01*
X18691583Y11826893D01*
X18697894Y11832826D01*
X18701238Y11846203D01*
X18702379Y11848484D01*
X18703843Y11856625D01*
X18738338Y11994598D01*
X18743571Y12002740D01*
X18743571Y12015528D01*
X18743947Y12017032D01*
X18743571Y12026278D01*
X18743571Y12126705D01*
X18746673Y12135874D01*
X18743571Y12148282D01*
X18743571Y12149830D01*
X18740966Y12158701D01*
X18706476Y12296660D01*
X18707406Y12305272D01*
X18701240Y12317604D01*
X18700621Y12320080D01*
X18696433Y12327218D01*
X18663667Y12392749D01*
X18660985Y12405081D01*
X18646357Y12419709D01*
X18632296Y12434826D01*
X18630877Y12435189D01*
X18572078Y12493988D01*
X18560799Y12507997D01*
X18546257Y12512845D01*
X18532805Y12520190D01*
X18525737Y12519685D01*
X18434541Y12550083D01*
X18423926Y12556905D01*
X18403246Y12556905D01*
X18382607Y12557651D01*
X18381348Y12556905D01*
X18335115Y12556905D01*
X18322888Y12560020D01*
X18303274Y12553483D01*
X18283453Y12547662D01*
X18282494Y12546556D01*
X18191536Y12516237D01*
X18173968Y12512415D01*
X18163130Y12501578D01*
X18150542Y12492829D01*
X18147833Y12486282D01*
X18112676Y12451125D01*
X18096953Y12422331D01*
X18100094Y12378400D01*
X18126488Y12343141D01*
X18167755Y12327748D01*
X18210792Y12337110D01*
X18251940Y12378258D01*
X18337885Y12406905D01*
X18389734Y12406905D01*
X18475676Y12378258D01*
X18530740Y12323194D01*
X18559710Y12265255D01*
X18593571Y12129813D01*
X18593571Y12033994D01*
X18559711Y11898560D01*
X18530740Y11840618D01*
X18475676Y11785553D01*
X18389732Y11756905D01*
X18337883Y11756905D01*
X18251941Y11785553D01*
X18218741Y11818753D01*
X18189947Y11834476D01*
X18146016Y11831333D01*
X18110757Y11804939D01*
X18095365Y11763672D01*
X17295951Y11763672D01*
X17295951Y12095593D01*
X17298321Y12112077D01*
X17295951Y12117267D01*
X17295951Y12476545D01*
X17298321Y12493029D01*
X17291401Y12508182D01*
X17286708Y12524165D01*
X17282395Y12527902D01*
X17280025Y12533093D01*
X17266008Y12542101D01*
X17253422Y12553007D01*
X17247775Y12553819D01*
X17242973Y12556905D01*
X17226311Y12556905D01*
X17209827Y12559275D01*
X17204637Y12556905D01*
X16958326Y12556905D01*
X16940442Y12558836D01*
X16926729Y12551980D01*
X16912025Y12547662D01*
X16907385Y12542308D01*
X16852965Y12515098D01*
X16840633Y12512415D01*
X16826005Y12497788D01*
X16810888Y12483726D01*
X16810525Y12482308D01*
X16793615Y12465398D01*
X16782765Y12458953D01*
X16773516Y12440455D01*
X16763619Y12422330D01*
X16763723Y12420870D01*
X16736626Y12366676D01*
X16726904Y12351546D01*
X16726904Y12336216D01*
X16724190Y12321133D01*
X16726904Y12314590D01*
X16726904Y12257371D01*
X16724973Y12239490D01*
X16731829Y12225777D01*
X16736147Y12211074D01*
X16741500Y12206436D01*
X16768711Y12152015D01*
X16771394Y12139682D01*
X16786021Y12125055D01*
X16790753Y12119967D01*
X16779114Y12111877D01*
X16776405Y12105331D01*
X16755518Y12084443D01*
X16744671Y12078000D01*
X16735427Y12059515D01*
X16725524Y12041376D01*
X16725628Y12039917D01*
X16698530Y11985723D01*
X16688808Y11970594D01*
X16688808Y11955265D01*
X16686094Y11940182D01*
X16343570Y11940182D01*
X16343570Y12041018D01*
X16604300Y12450736D01*
X16613402Y12482255D01*
X16600805Y12524458D01*
X16567390Y12553151D01*
X16523767Y12559225D01*
X16483786Y12540750D01*
X16268570Y12202556D01*
X16059390Y12531267D01*
X16034692Y12552861D01*
X15991126Y12559324D01*
X15950981Y12541207D01*
X15927003Y12504262D01*
X15926806Y12460218D01*
X14819761Y12460218D01*
X14819761Y12473108D01*
X14822821Y12485972D01*
X14816172Y12504907D01*
X14810518Y12524165D01*
X14808927Y12525544D01*
X14808230Y12527529D01*
X14792399Y12539865D01*
X14777232Y12553007D01*
X14775148Y12553307D01*
X14773489Y12554600D01*
X14753498Y12556420D01*
X14733637Y12559275D01*
X14731723Y12558402D01*
X14729626Y12558592D01*
X14711821Y12549313D01*
X14693573Y12540979D01*
X14692435Y12539209D01*
X14690569Y12538236D01*
X14680612Y12520813D01*
X14669761Y12503927D01*
X14669761Y12501822D01*
X14362618Y11964323D01*
X14362618Y12492687D01*
X14353375Y12524165D01*
X14320089Y12553007D01*
X14276494Y12559275D01*
X14236430Y12540979D01*
X14212618Y12503927D01*
X14212618Y11690702D01*
X14209558Y11677838D01*
X13856284Y11677838D01*
X13914955Y11736510D01*
X13925805Y11742953D01*
X13935053Y11761452D01*
X13944951Y11779577D01*
X13944846Y11781037D01*
X13967774Y11826893D01*
X13974085Y11832826D01*
X13977429Y11846203D01*
X13978570Y11848484D01*
X13980034Y11856625D01*
X14014529Y11994598D01*
X14019762Y12002740D01*
X14019762Y12015528D01*
X14020138Y12017032D01*
X14019762Y12026278D01*
X14019762Y12126705D01*
X14022864Y12135874D01*
X14019762Y12148282D01*
X14019762Y12149830D01*
X14017157Y12158701D01*
X13982667Y12296660D01*
X13983597Y12305272D01*
X13977431Y12317604D01*
X13976812Y12320080D01*
X13972624Y12327218D01*
X13939858Y12392749D01*
X13937176Y12405081D01*
X13922548Y12419709D01*
X13908487Y12434826D01*
X13907068Y12435189D01*
X13848269Y12493988D01*
X13836990Y12507997D01*
X13822448Y12512845D01*
X13808996Y12520190D01*
X13801928Y12519685D01*
X13710732Y12550083D01*
X13700117Y12556905D01*
X13679437Y12556905D01*
X13658798Y12557651D01*
X13657539Y12556905D01*
X13611306Y12556905D01*
X13599079Y12560020D01*
X13579465Y12553483D01*
X13559644Y12547662D01*
X13558685Y12546556D01*
X13467727Y12516237D01*
X13450159Y12512415D01*
X13439321Y12501578D01*
X13426733Y12492829D01*
X13424024Y12486282D01*
X13388867Y12451125D01*
X13373144Y12422331D01*
X13376285Y12378400D01*
X13402679Y12343141D01*
X13443946Y12327748D01*
X13486983Y12337110D01*
X13528131Y12378258D01*
X13614076Y12406905D01*
X13665925Y12406905D01*
X13751867Y12378258D01*
X13806931Y12323194D01*
X13835901Y12265255D01*
X13869762Y12129813D01*
X13869762Y12033994D01*
X13835902Y11898560D01*
X13806931Y11840618D01*
X13751867Y11785553D01*
X13665923Y11756905D01*
X13614074Y11756905D01*
X13528132Y11785553D01*
X13494932Y11818753D01*
X13466138Y11834476D01*
X13422207Y11831333D01*
X13386948Y11804939D01*
X13371556Y11763672D01*
X12216106Y11763672D01*
X12194142Y11787242D01*
X12151461Y11798115D01*
X12027828Y11756905D01*
X11867229Y11756905D01*
X11817759Y11781640D01*
X11796878Y11802522D01*
X11772143Y11851991D01*
X11772143Y11892771D01*
X11796877Y11942241D01*
X11817759Y11963123D01*
X11842599Y11975543D01*
X12419773Y11975543D01*
X12438069Y11935479D01*
X12475121Y11911667D01*
X13117448Y11911667D01*
X13148926Y11920910D01*
X13177768Y11954196D01*
X13184036Y11997791D01*
X13165740Y12037855D01*
X13128688Y12061667D01*
X12486361Y12061667D01*
X12454883Y12052424D01*
X12426041Y12019138D01*
X12419773Y11975543D01*
X11842599Y11975543D01*
X11875700Y11992094D01*
X12007135Y12024953D01*
X12015749Y12024022D01*
X12028082Y12030189D01*
X12030555Y12030807D01*
X12037683Y12034990D01*
X12103225Y12067761D01*
X12115556Y12070443D01*
X12130175Y12085063D01*
X12145301Y12099132D01*
X12145663Y12100551D01*
X12162575Y12117463D01*
X12173423Y12123905D01*
X12182670Y12142399D01*
X12192569Y12160528D01*
X12192464Y12161988D01*
X12219563Y12216185D01*
X12229286Y12231312D01*
X12229286Y12246641D01*
X12232000Y12261724D01*
X12229286Y12268268D01*
X12229286Y12325490D01*
X12231216Y12343369D01*
X12224360Y12357080D01*
X12220043Y12371784D01*
X12214688Y12376424D01*
X12187477Y12430846D01*
X12184795Y12443176D01*
X12170170Y12457801D01*
X12156105Y12472921D01*
X12154687Y12473284D01*
X12137776Y12490195D01*
X12131333Y12501044D01*
X12112833Y12510294D01*
X12094710Y12520190D01*
X12093249Y12520086D01*
X12039056Y12547182D01*
X12023927Y12556905D01*
X12008597Y12556905D01*
X11993514Y12559619D01*
X11986970Y12556905D01*
X11820830Y12556905D01*
X11808603Y12560020D01*
X11788989Y12553483D01*
X11769168Y12547662D01*
X11768209Y12546556D01*
X11663197Y12511552D01*
X11636257Y12492829D01*
X11619421Y12452130D01*
X11290886Y12452130D01*
X11277344Y12492755D01*
X11277650Y12501202D01*
X11270518Y12513235D01*
X11269646Y12515851D01*
X11265033Y12522489D01*
X11255193Y12539090D01*
X11252587Y12540396D01*
X11250923Y12542791D01*
X11233075Y12550174D01*
X11215817Y12558823D01*
X11212917Y12558513D01*
X11210224Y12559627D01*
X11191228Y12556191D01*
X11172024Y12554135D01*
X11169752Y12552306D01*
X11166884Y12551787D01*
X11152761Y12538627D01*
X11137717Y12526514D01*
X11136794Y12523748D01*
X11134662Y12521760D01*
X11129894Y12503048D01*
X10944989Y11948330D01*
X10940326Y11942948D01*
X10938149Y11927812D01*
X10860677Y11695393D01*
X10859492Y11662608D01*
X7840833Y11662608D01*
X7840833Y13766144D01*
X8400818Y13766144D01*
X8403095Y13761265D01*
X8403095Y12967123D01*
X8412338Y12935645D01*
X8445624Y12906803D01*
X8489219Y12900535D01*
X8529283Y12918831D01*
X8553095Y12955883D01*
X8553095Y13439838D01*
X8676542Y13175309D01*
X8685269Y13155777D01*
X8695199Y13149279D01*
X8703045Y13140374D01*
X8713247Y13137470D01*
X8722124Y13131661D01*
X8733992Y13131564D01*
X8745405Y13128314D01*
X8755555Y13131386D01*
X8766166Y13131298D01*
X8776205Y13137634D01*
X8787561Y13141070D01*
X8794440Y13149143D01*
X8803413Y13154805D01*
X8808432Y13165561D01*
X8816129Y13174592D01*
X8817552Y13185104D01*
X8936428Y13439838D01*
X8936428Y12967123D01*
X8945671Y12935645D01*
X8978957Y12906803D01*
X9022552Y12900535D01*
X9062616Y12918831D01*
X9086428Y12955883D01*
X9086428Y13247746D01*
X9276183Y13247746D01*
X9279285Y13235338D01*
X9279285Y13233790D01*
X9281889Y13224922D01*
X9319340Y13075114D01*
X9323775Y13054730D01*
X9332554Y13045951D01*
X9338836Y13035244D01*
X9347806Y13030699D01*
X9408889Y12969616D01*
X9415333Y12958766D01*
X9433841Y12949513D01*
X9451956Y12939621D01*
X9453414Y12939726D01*
X9507609Y12912629D01*
X9522739Y12902905D01*
X9538069Y12902905D01*
X9553152Y12900191D01*
X9559696Y12902905D01*
X9693105Y12902905D01*
X9710986Y12900974D01*
X9724699Y12907831D01*
X9739402Y12912148D01*
X9744040Y12917502D01*
X9798461Y12944713D01*
X9810795Y12947395D01*
X9825431Y12962032D01*
X9840539Y12976084D01*
X9840901Y12977503D01*
X9901746Y13038349D01*
X9916942Y13052636D01*
X9918701Y13059672D01*
X10114413Y13059672D01*
X10123775Y13016635D01*
X10174588Y12965822D01*
X10185867Y12951813D01*
X10200408Y12946966D01*
X10213861Y12939620D01*
X10220928Y12940126D01*
X10312123Y12909728D01*
X10322739Y12902905D01*
X10343419Y12902905D01*
X10364058Y12902159D01*
X10365317Y12902905D01*
X10411549Y12902905D01*
X10423777Y12899790D01*
X10443391Y12906329D01*
X10463212Y12912148D01*
X10464170Y12913255D01*
X10555126Y12943573D01*
X10572700Y12947395D01*
X10583541Y12958237D01*
X10596123Y12966981D01*
X10598830Y12973527D01*
X10646878Y13021576D01*
X10914413Y13021576D01*
X10917954Y13005297D01*
X10919143Y12988683D01*
X10922561Y12984117D01*
X10923775Y12978539D01*
X10935558Y12966756D01*
X10945538Y12953425D01*
X10950882Y12951432D01*
X10963906Y12938408D01*
X10964718Y12935645D01*
X10975266Y12926505D01*
X10983631Y12915331D01*
X10991586Y12912364D01*
X10998004Y12906803D01*
X11006408Y12905595D01*
X11013860Y12901526D01*
X11019549Y12901933D01*
X11024898Y12899938D01*
X11033196Y12901744D01*
X11041599Y12900535D01*
X11049323Y12904063D01*
X11057791Y12904668D01*
X11062357Y12908087D01*
X11067935Y12909300D01*
X11073938Y12915304D01*
X11081663Y12918831D01*
X11086254Y12925976D01*
X11093049Y12931062D01*
X11095042Y12936407D01*
X11117812Y12959176D01*
X11131146Y12969157D01*
X11136968Y12984767D01*
X11144950Y12999384D01*
X11144542Y13005076D01*
X11146538Y13010424D01*
X11142995Y13026708D01*
X11141808Y13043315D01*
X11138389Y13047882D01*
X11137176Y13053461D01*
X11125393Y13065244D01*
X11115415Y13078574D01*
X11110068Y13080569D01*
X11097043Y13093594D01*
X11096232Y13096356D01*
X11085681Y13105499D01*
X11077317Y13116671D01*
X11069363Y13119638D01*
X11062946Y13125198D01*
X11054543Y13126407D01*
X11047090Y13130476D01*
X11041396Y13130069D01*
X11036050Y13132063D01*
X11027753Y13130258D01*
X11019351Y13131466D01*
X11011627Y13127939D01*
X11003159Y13127333D01*
X10998591Y13123914D01*
X10993013Y13122700D01*
X10987009Y13116697D01*
X10979287Y13113170D01*
X10974696Y13106027D01*
X10967900Y13100939D01*
X10965905Y13095593D01*
X10943136Y13072823D01*
X10929805Y13062843D01*
X10923983Y13047236D01*
X10916000Y13032614D01*
X10916407Y13026923D01*
X10914413Y13021576D01*
X10646878Y13021576D01*
X10657812Y13032510D01*
X10668662Y13038953D01*
X10677910Y13057452D01*
X10687808Y13075577D01*
X10687703Y13077037D01*
X10710631Y13122893D01*
X10716942Y13128826D01*
X10720286Y13142203D01*
X10721427Y13144484D01*
X10722891Y13152625D01*
X10757386Y13290598D01*
X10762619Y13298740D01*
X10762619Y13311528D01*
X10762995Y13313032D01*
X10762619Y13322278D01*
X10762619Y13422705D01*
X10765721Y13431874D01*
X10762619Y13444282D01*
X10762619Y13445830D01*
X10760014Y13454701D01*
X10725524Y13592660D01*
X10726454Y13601272D01*
X10720288Y13613604D01*
X10719669Y13616080D01*
X10715481Y13623218D01*
X10682715Y13688749D01*
X10680033Y13701081D01*
X10665405Y13715709D01*
X10651344Y13730826D01*
X10649925Y13731189D01*
X10614333Y13766781D01*
X11219772Y13766781D01*
X11238068Y13726717D01*
X11275120Y13702905D01*
X11450714Y13702905D01*
X11450714Y12967123D01*
X11459957Y12935645D01*
X11493243Y12906803D01*
X11536838Y12900535D01*
X11576902Y12918831D01*
X11600714Y12955883D01*
X11600714Y12966781D01*
X11905487Y12966781D01*
X11923783Y12926717D01*
X11960835Y12902905D01*
X12358449Y12902905D01*
X12374933Y12900535D01*
X12390085Y12907455D01*
X12406069Y12912148D01*
X12409805Y12916461D01*
X12414997Y12918831D01*
X12424004Y12932848D01*
X12434911Y12945434D01*
X12435722Y12951081D01*
X12438809Y12955883D01*
X12438809Y12972545D01*
X12438995Y12973838D01*
X12666701Y12973838D01*
X12673349Y12954904D01*
X12679004Y12935645D01*
X12680594Y12934267D01*
X12681292Y12932281D01*
X12697122Y12919946D01*
X12712290Y12906803D01*
X12714373Y12906504D01*
X12716033Y12905210D01*
X12736023Y12903391D01*
X12755885Y12900535D01*
X12757798Y12901409D01*
X12759896Y12901218D01*
X12777700Y12910498D01*
X12795949Y12918831D01*
X12797086Y12920602D01*
X12798953Y12921574D01*
X12808909Y12938998D01*
X12819761Y12955883D01*
X12819761Y12957988D01*
X13126904Y13495487D01*
X13126904Y12967123D01*
X13136147Y12935645D01*
X13169433Y12906803D01*
X13213028Y12900535D01*
X13253092Y12918831D01*
X13276904Y12955883D01*
X13276904Y12980993D01*
X13466656Y12980993D01*
X13477385Y12938277D01*
X13509505Y12908142D01*
X13552819Y12900155D01*
X13593575Y12916854D01*
X13850477Y13283858D01*
X13926904Y13283858D01*
X13926904Y12967123D01*
X13936147Y12935645D01*
X13969433Y12906803D01*
X14013028Y12900535D01*
X14053092Y12918831D01*
X14076904Y12955883D01*
X14076904Y13247746D01*
X14266659Y13247746D01*
X14269761Y13235338D01*
X14269761Y13233790D01*
X14272365Y13224922D01*
X14309816Y13075114D01*
X14314251Y13054730D01*
X14323030Y13045951D01*
X14329312Y13035244D01*
X14338282Y13030699D01*
X14399365Y12969616D01*
X14405809Y12958766D01*
X14424317Y12949513D01*
X14442432Y12939621D01*
X14443890Y12939726D01*
X14498085Y12912629D01*
X14513215Y12902905D01*
X14528545Y12902905D01*
X14543628Y12900191D01*
X14550172Y12902905D01*
X14683581Y12902905D01*
X14701462Y12900974D01*
X14715175Y12907831D01*
X14729878Y12912148D01*
X14734516Y12917502D01*
X14788937Y12944713D01*
X14801271Y12947395D01*
X14815907Y12962032D01*
X14831015Y12976084D01*
X14831377Y12977503D01*
X14892222Y13038349D01*
X14907418Y13052636D01*
X14910429Y13064681D01*
X14916379Y13075577D01*
X14915661Y13085609D01*
X14947862Y13214408D01*
X14953095Y13222550D01*
X14953095Y13235338D01*
X14953471Y13236842D01*
X14953095Y13246088D01*
X14953095Y13385829D01*
X15143581Y13385829D01*
X15145951Y13380639D01*
X15145951Y12967123D01*
X15155194Y12935645D01*
X15188480Y12906803D01*
X15232075Y12900535D01*
X15272139Y12918831D01*
X15295951Y12955883D01*
X15295951Y13321953D01*
X15603094Y13321953D01*
X15603094Y12967123D01*
X15612337Y12935645D01*
X15645623Y12906803D01*
X15689218Y12900535D01*
X15729282Y12918831D01*
X15753094Y12955883D01*
X15753094Y12973838D01*
X15980986Y12973838D01*
X15987634Y12954904D01*
X15993289Y12935645D01*
X15994879Y12934267D01*
X15995577Y12932281D01*
X16011407Y12919946D01*
X16026575Y12906803D01*
X16028658Y12906504D01*
X16030318Y12905210D01*
X16050308Y12903391D01*
X16070170Y12900535D01*
X16072083Y12901409D01*
X16074181Y12901218D01*
X16091985Y12910498D01*
X16110234Y12918831D01*
X16111371Y12920602D01*
X16113238Y12921574D01*
X16123194Y12938998D01*
X16134046Y12955883D01*
X16134046Y12957988D01*
X16441189Y13495487D01*
X16441189Y12967123D01*
X16450432Y12935645D01*
X16483718Y12906803D01*
X16527313Y12900535D01*
X16567377Y12918831D01*
X16591189Y12955883D01*
X16591189Y12966781D01*
X16781677Y12966781D01*
X16799973Y12926717D01*
X16837025Y12902905D01*
X17234639Y12902905D01*
X17251123Y12900535D01*
X17266275Y12907455D01*
X17282259Y12912148D01*
X17285995Y12916461D01*
X17291187Y12918831D01*
X17300194Y12932848D01*
X17311101Y12945434D01*
X17311912Y12951081D01*
X17314999Y12955883D01*
X17314999Y12972545D01*
X17317369Y12989029D01*
X17314999Y12994219D01*
X17314999Y13391593D01*
X17317369Y13408077D01*
X17314999Y13413267D01*
X17314999Y13617133D01*
X17505142Y13617133D01*
X17507856Y13610589D01*
X17507856Y13515279D01*
X17505925Y13497395D01*
X17512781Y13483682D01*
X17517099Y13468979D01*
X17522452Y13464340D01*
X17549664Y13409918D01*
X17552347Y13397587D01*
X17566971Y13382963D01*
X17581037Y13367842D01*
X17582454Y13367480D01*
X17599365Y13350569D01*
X17605809Y13339719D01*
X17624317Y13330466D01*
X17642432Y13320574D01*
X17643890Y13320679D01*
X17698085Y13293582D01*
X17713215Y13283858D01*
X17728545Y13283858D01*
X17743628Y13281144D01*
X17750172Y13283858D01*
X17964999Y13283858D01*
X17964999Y12967123D01*
X17974242Y12935645D01*
X18007528Y12906803D01*
X18051123Y12900535D01*
X18091187Y12918831D01*
X18114999Y12955883D01*
X18114999Y13247746D01*
X18304754Y13247746D01*
X18307856Y13235338D01*
X18307856Y13233790D01*
X18310460Y13224922D01*
X18347911Y13075114D01*
X18352346Y13054730D01*
X18361125Y13045951D01*
X18367407Y13035244D01*
X18376377Y13030699D01*
X18437460Y12969616D01*
X18443904Y12958766D01*
X18462412Y12949513D01*
X18480527Y12939621D01*
X18481985Y12939726D01*
X18536180Y12912629D01*
X18551310Y12902905D01*
X18566640Y12902905D01*
X18581723Y12900191D01*
X18588267Y12902905D01*
X18721676Y12902905D01*
X18739557Y12900974D01*
X18753270Y12907831D01*
X18767973Y12912148D01*
X18772611Y12917502D01*
X18827032Y12944713D01*
X18839366Y12947395D01*
X18854002Y12962032D01*
X18869110Y12976084D01*
X18869472Y12977503D01*
X18913544Y13021576D01*
X19142984Y13021576D01*
X19146525Y13005297D01*
X19147714Y12988683D01*
X19151132Y12984117D01*
X19152346Y12978539D01*
X19164129Y12966756D01*
X19174109Y12953425D01*
X19179453Y12951432D01*
X19192477Y12938408D01*
X19193289Y12935645D01*
X19203837Y12926505D01*
X19212202Y12915331D01*
X19220157Y12912364D01*
X19226575Y12906803D01*
X19234979Y12905595D01*
X19242431Y12901526D01*
X19248120Y12901933D01*
X19253469Y12899938D01*
X19261767Y12901744D01*
X19270170Y12900535D01*
X19277894Y12904063D01*
X19286362Y12904668D01*
X19290928Y12908087D01*
X19296506Y12909300D01*
X19302509Y12915304D01*
X19310234Y12918831D01*
X19314825Y12925976D01*
X19321620Y12931062D01*
X19323613Y12936407D01*
X19346383Y12959176D01*
X19359717Y12969157D01*
X19365539Y12984767D01*
X19373521Y12999384D01*
X19373113Y13005076D01*
X19375109Y13010424D01*
X19371566Y13026708D01*
X19370379Y13043315D01*
X19366960Y13047882D01*
X19365747Y13053461D01*
X19353964Y13065244D01*
X19343986Y13078574D01*
X19338639Y13080569D01*
X19325614Y13093594D01*
X19324803Y13096356D01*
X19314252Y13105499D01*
X19305888Y13116671D01*
X19297934Y13119638D01*
X19291517Y13125198D01*
X19283114Y13126407D01*
X19275661Y13130476D01*
X19269967Y13130069D01*
X19264621Y13132063D01*
X19256324Y13130258D01*
X19247922Y13131466D01*
X19240198Y13127939D01*
X19231730Y13127333D01*
X19227162Y13123914D01*
X19221584Y13122700D01*
X19215580Y13116697D01*
X19207858Y13113170D01*
X19203267Y13106027D01*
X19196471Y13100939D01*
X19194476Y13095593D01*
X19171707Y13072823D01*
X19158376Y13062843D01*
X19152554Y13047236D01*
X19144571Y13032614D01*
X19144978Y13026923D01*
X19142984Y13021576D01*
X18913544Y13021576D01*
X18930317Y13038349D01*
X18945513Y13052636D01*
X18948524Y13064681D01*
X18954474Y13075577D01*
X18953756Y13085609D01*
X18985957Y13214408D01*
X18991190Y13222550D01*
X18991190Y13235338D01*
X18991566Y13236842D01*
X18991190Y13246088D01*
X18991190Y13498896D01*
X18994292Y13508065D01*
X18991190Y13520473D01*
X18991190Y13522021D01*
X18988585Y13530892D01*
X18951131Y13680707D01*
X18946699Y13701081D01*
X18937920Y13709860D01*
X18931638Y13720567D01*
X18922667Y13725113D01*
X18865823Y13781957D01*
X19485748Y13781957D01*
X19679504Y12968177D01*
X19679859Y12954015D01*
X19690608Y12938175D01*
X19700104Y12921564D01*
X19702850Y12920134D01*
X19704590Y12917570D01*
X19722198Y12910055D01*
X19739166Y12901216D01*
X19742248Y12901498D01*
X19745098Y12900281D01*
X19763978Y12903479D01*
X19783027Y12905216D01*
X19785467Y12907119D01*
X19788523Y12907636D01*
X19802673Y12920531D01*
X19817764Y12932294D01*
X19818789Y12935217D01*
X19821078Y12937302D01*
X19826008Y12955793D01*
X19832346Y12973854D01*
X19831628Y12976867D01*
X19906666Y13258257D01*
X19984555Y12966172D01*
X19985290Y12952025D01*
X19996457Y12936483D01*
X20006399Y12920128D01*
X20009183Y12918772D01*
X20010990Y12916257D01*
X20028788Y12909220D01*
X20045993Y12900837D01*
X20049067Y12901201D01*
X20051948Y12900062D01*
X20070725Y12903764D01*
X20089731Y12906013D01*
X20092121Y12907983D01*
X20095160Y12908581D01*
X20108953Y12921845D01*
X20123728Y12934014D01*
X20124674Y12936964D01*
X20126907Y12939110D01*
X20131340Y12957730D01*
X20137189Y12975951D01*
X20136391Y12978944D01*
X20324981Y13771022D01*
X20324413Y13781957D01*
X20400034Y13781957D01*
X20593790Y12968177D01*
X20594145Y12954015D01*
X20604894Y12938175D01*
X20614390Y12921564D01*
X20617136Y12920134D01*
X20618876Y12917570D01*
X20636484Y12910055D01*
X20653452Y12901216D01*
X20656534Y12901498D01*
X20659384Y12900281D01*
X20678264Y12903479D01*
X20697313Y12905216D01*
X20699753Y12907119D01*
X20702809Y12907636D01*
X20716959Y12920531D01*
X20732050Y12932294D01*
X20733075Y12935217D01*
X20735364Y12937302D01*
X20740294Y12955793D01*
X20746632Y12973854D01*
X20745914Y12976867D01*
X20820952Y13258257D01*
X20898841Y12966172D01*
X20899576Y12952025D01*
X20910743Y12936483D01*
X20920685Y12920128D01*
X20923469Y12918772D01*
X20925276Y12916257D01*
X20943074Y12909220D01*
X20960279Y12900837D01*
X20963353Y12901201D01*
X20966234Y12900062D01*
X20985011Y12903764D01*
X21004017Y12906013D01*
X21006407Y12907983D01*
X21009446Y12908581D01*
X21023239Y12921845D01*
X21038014Y12934014D01*
X21038960Y12936964D01*
X21041193Y12939110D01*
X21045626Y12957730D01*
X21051475Y12975951D01*
X21050677Y12978944D01*
X21239267Y13771022D01*
X21238699Y13781957D01*
X21314320Y13781957D01*
X21508076Y12968177D01*
X21508431Y12954015D01*
X21519180Y12938175D01*
X21528676Y12921564D01*
X21531422Y12920134D01*
X21533162Y12917570D01*
X21550770Y12910055D01*
X21567738Y12901216D01*
X21570820Y12901498D01*
X21573670Y12900281D01*
X21592550Y12903479D01*
X21611599Y12905216D01*
X21614039Y12907119D01*
X21617095Y12907636D01*
X21631245Y12920531D01*
X21646336Y12932294D01*
X21647361Y12935217D01*
X21649650Y12937302D01*
X21654580Y12955793D01*
X21660918Y12973854D01*
X21660200Y12976867D01*
X21735238Y13258257D01*
X21813127Y12966172D01*
X21813862Y12952025D01*
X21825029Y12936483D01*
X21834971Y12920128D01*
X21837755Y12918772D01*
X21839562Y12916257D01*
X21857360Y12909220D01*
X21874565Y12900837D01*
X21877639Y12901201D01*
X21880520Y12900062D01*
X21899297Y12903764D01*
X21918303Y12906013D01*
X21920693Y12907983D01*
X21923732Y12908581D01*
X21937525Y12921845D01*
X21952300Y12934014D01*
X21953246Y12936964D01*
X21955479Y12939110D01*
X21959912Y12957730D01*
X21965761Y12975951D01*
X21964963Y12978944D01*
X22153553Y13771022D01*
X22151852Y13803785D01*
X22126152Y13839552D01*
X22085194Y13855747D01*
X22041982Y13847229D01*
X22010235Y13816700D01*
X21883502Y13284423D01*
X21809992Y13560085D01*
X21809664Y13573224D01*
X21798352Y13589894D01*
X21787886Y13607110D01*
X21786068Y13607996D01*
X21784933Y13609669D01*
X21766399Y13617580D01*
X21748292Y13626402D01*
X21746284Y13626165D01*
X21744425Y13626958D01*
X21724551Y13623592D01*
X21704554Y13621225D01*
X21702994Y13619941D01*
X21701000Y13619603D01*
X21686099Y13606026D01*
X21670557Y13593224D01*
X21669939Y13591300D01*
X21668445Y13589938D01*
X21663255Y13570476D01*
X21657096Y13551288D01*
X21657617Y13549334D01*
X21586973Y13284421D01*
X21462844Y13805765D01*
X21446562Y13834246D01*
X21407500Y13854594D01*
X21363639Y13850594D01*
X21328902Y13823516D01*
X21314320Y13781957D01*
X21238699Y13781957D01*
X21237566Y13803785D01*
X21211866Y13839552D01*
X21170908Y13855747D01*
X21127696Y13847229D01*
X21095949Y13816700D01*
X20969216Y13284423D01*
X20895706Y13560085D01*
X20895378Y13573224D01*
X20884066Y13589894D01*
X20873600Y13607110D01*
X20871782Y13607996D01*
X20870647Y13609669D01*
X20852113Y13617580D01*
X20834006Y13626402D01*
X20831998Y13626165D01*
X20830139Y13626958D01*
X20810265Y13623592D01*
X20790268Y13621225D01*
X20788708Y13619941D01*
X20786714Y13619603D01*
X20771813Y13606026D01*
X20756271Y13593224D01*
X20755653Y13591300D01*
X20754159Y13589938D01*
X20748969Y13570476D01*
X20742810Y13551288D01*
X20743331Y13549334D01*
X20672687Y13284421D01*
X20548558Y13805765D01*
X20532276Y13834246D01*
X20493214Y13854594D01*
X20449353Y13850594D01*
X20414616Y13823516D01*
X20400034Y13781957D01*
X20324413Y13781957D01*
X20323280Y13803785D01*
X20297580Y13839552D01*
X20256622Y13855747D01*
X20213410Y13847229D01*
X20181663Y13816700D01*
X20054930Y13284423D01*
X19981420Y13560085D01*
X19981092Y13573224D01*
X19969780Y13589894D01*
X19959314Y13607110D01*
X19957496Y13607996D01*
X19956361Y13609669D01*
X19937827Y13617580D01*
X19919720Y13626402D01*
X19917712Y13626165D01*
X19915853Y13626958D01*
X19895979Y13623592D01*
X19875982Y13621225D01*
X19874422Y13619941D01*
X19872428Y13619603D01*
X19857527Y13606026D01*
X19841985Y13593224D01*
X19841367Y13591300D01*
X19839873Y13589938D01*
X19834683Y13570476D01*
X19828524Y13551288D01*
X19829045Y13549334D01*
X19758401Y13284421D01*
X19634272Y13805765D01*
X19617990Y13834246D01*
X19578928Y13854594D01*
X19535067Y13850594D01*
X19500330Y13823516D01*
X19485748Y13781957D01*
X18865823Y13781957D01*
X18861586Y13786194D01*
X18855142Y13797044D01*
X18836643Y13806293D01*
X18818519Y13816190D01*
X18817058Y13816086D01*
X18762864Y13843183D01*
X18747735Y13852905D01*
X18732405Y13852905D01*
X18717322Y13855619D01*
X18710779Y13852905D01*
X18577372Y13852905D01*
X18559488Y13854836D01*
X18545774Y13847980D01*
X18531072Y13843662D01*
X18526433Y13838309D01*
X18472010Y13811097D01*
X18459682Y13808415D01*
X18445072Y13793806D01*
X18429936Y13779726D01*
X18429573Y13778307D01*
X18368741Y13717477D01*
X18353531Y13703175D01*
X18350518Y13691127D01*
X18344572Y13680235D01*
X18345289Y13670208D01*
X18313088Y13541403D01*
X18307856Y13533261D01*
X18307856Y13520473D01*
X18307480Y13518969D01*
X18307856Y13509723D01*
X18307856Y13256915D01*
X18304754Y13247746D01*
X18114999Y13247746D01*
X18114999Y13353498D01*
X18117369Y13369982D01*
X18114999Y13375172D01*
X18114999Y13772545D01*
X18117369Y13789029D01*
X18110449Y13804182D01*
X18105756Y13820165D01*
X18101443Y13823902D01*
X18099073Y13829093D01*
X18085056Y13838101D01*
X18072470Y13849007D01*
X18066823Y13849819D01*
X18062021Y13852905D01*
X18045359Y13852905D01*
X18028875Y13855275D01*
X18023685Y13852905D01*
X17739277Y13852905D01*
X17721393Y13854836D01*
X17707679Y13847980D01*
X17692977Y13843662D01*
X17688338Y13838309D01*
X17633916Y13811098D01*
X17621586Y13808415D01*
X17606966Y13793796D01*
X17591841Y13779726D01*
X17591478Y13778308D01*
X17574566Y13761396D01*
X17563719Y13754953D01*
X17554475Y13736468D01*
X17544572Y13718330D01*
X17544676Y13716870D01*
X17517578Y13662674D01*
X17507856Y13647546D01*
X17507856Y13632216D01*
X17505142Y13617133D01*
X17314999Y13617133D01*
X17314999Y13772545D01*
X17317369Y13789029D01*
X17310449Y13804182D01*
X17305756Y13820165D01*
X17301443Y13823902D01*
X17299073Y13829093D01*
X17285056Y13838101D01*
X17272470Y13849007D01*
X17266823Y13849819D01*
X17262021Y13852905D01*
X17245359Y13852905D01*
X17228875Y13855275D01*
X17223685Y13852905D01*
X16848265Y13852905D01*
X16816787Y13843662D01*
X16787945Y13810376D01*
X16781677Y13766781D01*
X16799973Y13726717D01*
X16837025Y13702905D01*
X17164999Y13702905D01*
X17164999Y13471953D01*
X16962551Y13471953D01*
X16931073Y13462710D01*
X16902231Y13429424D01*
X16895963Y13385829D01*
X16914259Y13345765D01*
X16951311Y13321953D01*
X17164999Y13321953D01*
X17164999Y13052905D01*
X16848265Y13052905D01*
X16816787Y13043662D01*
X16787945Y13010376D01*
X16781677Y12966781D01*
X16591189Y12966781D01*
X16591189Y13769108D01*
X16594249Y13781972D01*
X16587600Y13800907D01*
X16581946Y13820165D01*
X16580355Y13821544D01*
X16579658Y13823529D01*
X16563827Y13835865D01*
X16548660Y13849007D01*
X16546576Y13849307D01*
X16544917Y13850600D01*
X16524926Y13852420D01*
X16505065Y13855275D01*
X16503151Y13854402D01*
X16501054Y13854592D01*
X16483249Y13845313D01*
X16465001Y13836979D01*
X16463863Y13835209D01*
X16461997Y13834236D01*
X16452040Y13816813D01*
X16441189Y13799927D01*
X16441189Y13797822D01*
X16134046Y13260323D01*
X16134046Y13788687D01*
X16124803Y13820165D01*
X16091517Y13849007D01*
X16047922Y13855275D01*
X16007858Y13836979D01*
X15984046Y13799927D01*
X15984046Y12986702D01*
X15980986Y12973838D01*
X15753094Y12973838D01*
X15753094Y13391593D01*
X15755464Y13408077D01*
X15753094Y13413267D01*
X15753094Y13788687D01*
X15743851Y13820165D01*
X15710565Y13849007D01*
X15666970Y13855275D01*
X15626906Y13836979D01*
X15603094Y13799927D01*
X15603094Y13471953D01*
X15295951Y13471953D01*
X15295951Y13788687D01*
X15286708Y13820165D01*
X15253422Y13849007D01*
X15209827Y13855275D01*
X15169763Y13836979D01*
X15145951Y13799927D01*
X15145951Y13402313D01*
X15143581Y13385829D01*
X14953095Y13385829D01*
X14953095Y13498896D01*
X14956197Y13508065D01*
X14953095Y13520473D01*
X14953095Y13522021D01*
X14950490Y13530892D01*
X14913036Y13680707D01*
X14908604Y13701081D01*
X14899825Y13709860D01*
X14893543Y13720567D01*
X14884572Y13725113D01*
X14823491Y13786194D01*
X14817047Y13797044D01*
X14798548Y13806293D01*
X14780424Y13816190D01*
X14778963Y13816086D01*
X14724769Y13843183D01*
X14709640Y13852905D01*
X14694310Y13852905D01*
X14679227Y13855619D01*
X14672684Y13852905D01*
X14539277Y13852905D01*
X14521393Y13854836D01*
X14507679Y13847980D01*
X14492977Y13843662D01*
X14488338Y13838309D01*
X14433915Y13811097D01*
X14421587Y13808415D01*
X14406977Y13793806D01*
X14391841Y13779726D01*
X14391478Y13778307D01*
X14330646Y13717477D01*
X14315436Y13703175D01*
X14312423Y13691127D01*
X14306477Y13680235D01*
X14307194Y13670208D01*
X14274993Y13541403D01*
X14269761Y13533261D01*
X14269761Y13520473D01*
X14269385Y13518969D01*
X14269761Y13509723D01*
X14269761Y13256915D01*
X14266659Y13247746D01*
X14076904Y13247746D01*
X14076904Y13353498D01*
X14079274Y13369982D01*
X14076904Y13375172D01*
X14076904Y13772545D01*
X14079274Y13789029D01*
X14072354Y13804182D01*
X14067661Y13820165D01*
X14063348Y13823902D01*
X14060978Y13829093D01*
X14046961Y13838101D01*
X14034375Y13849007D01*
X14028728Y13849819D01*
X14023926Y13852905D01*
X14007264Y13852905D01*
X13990780Y13855275D01*
X13985590Y13852905D01*
X13701182Y13852905D01*
X13683298Y13854836D01*
X13669584Y13847980D01*
X13654882Y13843662D01*
X13650243Y13838309D01*
X13595821Y13811098D01*
X13583491Y13808415D01*
X13568871Y13793796D01*
X13553746Y13779726D01*
X13553383Y13778308D01*
X13536471Y13761396D01*
X13525624Y13754953D01*
X13516380Y13736468D01*
X13506477Y13718330D01*
X13506581Y13716870D01*
X13479483Y13662674D01*
X13469761Y13647546D01*
X13469761Y13632216D01*
X13467047Y13617133D01*
X13469761Y13610589D01*
X13469761Y13515279D01*
X13467830Y13497395D01*
X13474686Y13483682D01*
X13479004Y13468979D01*
X13484357Y13464340D01*
X13511569Y13409918D01*
X13514252Y13397587D01*
X13528876Y13382963D01*
X13542942Y13367842D01*
X13544359Y13367480D01*
X13561270Y13350569D01*
X13567714Y13339719D01*
X13586222Y13330466D01*
X13604337Y13320574D01*
X13605795Y13320679D01*
X13659990Y13293582D01*
X13669780Y13287290D01*
X13477136Y13012082D01*
X13466656Y12980993D01*
X13276904Y12980993D01*
X13276904Y13769108D01*
X13279964Y13781972D01*
X13273315Y13800907D01*
X13267661Y13820165D01*
X13266070Y13821544D01*
X13265373Y13823529D01*
X13249542Y13835865D01*
X13234375Y13849007D01*
X13232291Y13849307D01*
X13230632Y13850600D01*
X13210641Y13852420D01*
X13190780Y13855275D01*
X13188866Y13854402D01*
X13186769Y13854592D01*
X13168964Y13845313D01*
X13150716Y13836979D01*
X13149578Y13835209D01*
X13147712Y13834236D01*
X13137755Y13816813D01*
X13126904Y13799927D01*
X13126904Y13797822D01*
X12819761Y13260323D01*
X12819761Y13788687D01*
X12810518Y13820165D01*
X12777232Y13849007D01*
X12733637Y13855275D01*
X12693573Y13836979D01*
X12669761Y13799927D01*
X12669761Y12986702D01*
X12666701Y12973838D01*
X12438995Y12973838D01*
X12441179Y12989029D01*
X12438809Y12994219D01*
X12438809Y13391593D01*
X12441179Y13408077D01*
X12438809Y13413267D01*
X12438809Y13772545D01*
X12441179Y13789029D01*
X12434259Y13804182D01*
X12429566Y13820165D01*
X12425253Y13823902D01*
X12422883Y13829093D01*
X12408866Y13838101D01*
X12396280Y13849007D01*
X12390633Y13849819D01*
X12385831Y13852905D01*
X12369169Y13852905D01*
X12352685Y13855275D01*
X12347495Y13852905D01*
X11972075Y13852905D01*
X11940597Y13843662D01*
X11911755Y13810376D01*
X11905487Y13766781D01*
X11923783Y13726717D01*
X11960835Y13702905D01*
X12288809Y13702905D01*
X12288809Y13471953D01*
X12086361Y13471953D01*
X12054883Y13462710D01*
X12026041Y13429424D01*
X12019773Y13385829D01*
X12038069Y13345765D01*
X12075121Y13321953D01*
X12288809Y13321953D01*
X12288809Y13052905D01*
X11972075Y13052905D01*
X11940597Y13043662D01*
X11911755Y13010376D01*
X11905487Y12966781D01*
X11600714Y12966781D01*
X11600714Y13702905D01*
X11765067Y13702905D01*
X11796545Y13712148D01*
X11825387Y13745434D01*
X11831655Y13789029D01*
X11813359Y13829093D01*
X11776307Y13852905D01*
X11531074Y13852905D01*
X11514590Y13855275D01*
X11509400Y13852905D01*
X11286360Y13852905D01*
X11254882Y13843662D01*
X11226040Y13810376D01*
X11219772Y13766781D01*
X10614333Y13766781D01*
X10591126Y13789988D01*
X10579847Y13803997D01*
X10565305Y13808845D01*
X10551853Y13816190D01*
X10544785Y13815685D01*
X10453589Y13846083D01*
X10442974Y13852905D01*
X10422294Y13852905D01*
X10401655Y13853651D01*
X10400396Y13852905D01*
X10354163Y13852905D01*
X10341936Y13856020D01*
X10322322Y13849483D01*
X10302501Y13843662D01*
X10301542Y13842556D01*
X10210584Y13812237D01*
X10193016Y13808415D01*
X10182178Y13797578D01*
X10169590Y13788829D01*
X10166881Y13782282D01*
X10131724Y13747125D01*
X10116001Y13718331D01*
X10119142Y13674400D01*
X10145536Y13639141D01*
X10186803Y13623748D01*
X10229840Y13633110D01*
X10270988Y13674258D01*
X10356933Y13702905D01*
X10408782Y13702905D01*
X10494724Y13674258D01*
X10549788Y13619194D01*
X10578758Y13561255D01*
X10612619Y13425813D01*
X10612619Y13329994D01*
X10578759Y13194560D01*
X10549788Y13136618D01*
X10494724Y13081553D01*
X10408780Y13052905D01*
X10356931Y13052905D01*
X10270989Y13081553D01*
X10237789Y13114753D01*
X10208995Y13130476D01*
X10165064Y13127333D01*
X10129805Y13100939D01*
X10114413Y13059672D01*
X9918701Y13059672D01*
X9919953Y13064681D01*
X9925903Y13075577D01*
X9925185Y13085609D01*
X9957386Y13214408D01*
X9962619Y13222550D01*
X9962619Y13235338D01*
X9962995Y13236842D01*
X9962619Y13246088D01*
X9962619Y13498896D01*
X9965721Y13508065D01*
X9962619Y13520473D01*
X9962619Y13522021D01*
X9960014Y13530892D01*
X9922560Y13680707D01*
X9918128Y13701081D01*
X9909349Y13709860D01*
X9903067Y13720567D01*
X9894096Y13725113D01*
X9833015Y13786194D01*
X9826571Y13797044D01*
X9808072Y13806293D01*
X9789948Y13816190D01*
X9788487Y13816086D01*
X9734293Y13843183D01*
X9719164Y13852905D01*
X9703834Y13852905D01*
X9688751Y13855619D01*
X9682208Y13852905D01*
X9548801Y13852905D01*
X9530917Y13854836D01*
X9517203Y13847980D01*
X9502501Y13843662D01*
X9497862Y13838309D01*
X9443439Y13811097D01*
X9431111Y13808415D01*
X9416501Y13793806D01*
X9401365Y13779726D01*
X9401002Y13778307D01*
X9340170Y13717477D01*
X9324960Y13703175D01*
X9321947Y13691127D01*
X9316001Y13680235D01*
X9316718Y13670208D01*
X9284517Y13541403D01*
X9279285Y13533261D01*
X9279285Y13520473D01*
X9278909Y13518969D01*
X9279285Y13509723D01*
X9279285Y13256915D01*
X9276183Y13247746D01*
X9086428Y13247746D01*
X9086428Y13772235D01*
X9088887Y13788393D01*
X9081965Y13803886D01*
X9077185Y13820165D01*
X9073116Y13823690D01*
X9070921Y13828605D01*
X9056721Y13837897D01*
X9043899Y13849007D01*
X9038571Y13849774D01*
X9034066Y13852721D01*
X9017094Y13852861D01*
X9000304Y13855275D01*
X8995409Y13853040D01*
X8990024Y13853084D01*
X8975669Y13844026D01*
X8960240Y13836979D01*
X8957330Y13832452D01*
X8952777Y13829578D01*
X8945600Y13814200D01*
X8936428Y13799927D01*
X8936428Y13794544D01*
X8744762Y13383831D01*
X8548457Y13804482D01*
X8543852Y13820165D01*
X8531029Y13831276D01*
X8519812Y13844008D01*
X8514633Y13845483D01*
X8510566Y13849007D01*
X8493772Y13851422D01*
X8477452Y13856068D01*
X8472299Y13854509D01*
X8466971Y13855275D01*
X8451534Y13848226D01*
X8435296Y13843312D01*
X8431805Y13839216D01*
X8426907Y13836979D01*
X8417731Y13822702D01*
X8406728Y13809790D01*
X8406005Y13804457D01*
X8403095Y13799927D01*
X8403095Y13782960D01*
X8400818Y13766144D01*
X7840833Y13766144D01*
X7840833Y14274786D01*
X22639167Y14274786D01*
X22639167Y11125214D01*
G37*
X52117475Y4034000D02*
X51974618Y3986381D01*
X51974618Y3986381D02*
X51736523Y3986381D01*
X51736523Y3986381D02*
X51641285Y4034000D01*
X51641285Y4034000D02*
X51593666Y4081620D01*
X51593666Y4081620D02*
X51546047Y4176858D01*
X51546047Y4176858D02*
X51546047Y4272096D01*
X51546047Y4272096D02*
X51593666Y4367334D01*
X51593666Y4367334D02*
X51641285Y4414953D01*
X51641285Y4414953D02*
X51736523Y4462572D01*
X51736523Y4462572D02*
X51926999Y4510191D01*
X51926999Y4510191D02*
X52022237Y4557810D01*
X52022237Y4557810D02*
X52069856Y4605429D01*
X52069856Y4605429D02*
X52117475Y4700667D01*
X52117475Y4700667D02*
X52117475Y4795905D01*
X52117475Y4795905D02*
X52069856Y4891143D01*
X52069856Y4891143D02*
X52022237Y4938762D01*
X52022237Y4938762D02*
X51926999Y4986381D01*
X51926999Y4986381D02*
X51688904Y4986381D01*
X51688904Y4986381D02*
X51546047Y4938762D01*
X50546047Y4081620D02*
X50593666Y4034000D01*
X50593666Y4034000D02*
X50736523Y3986381D01*
X50736523Y3986381D02*
X50831761Y3986381D01*
X50831761Y3986381D02*
X50974618Y4034000D01*
X50974618Y4034000D02*
X51069856Y4129239D01*
X51069856Y4129239D02*
X51117475Y4224477D01*
X51117475Y4224477D02*
X51165094Y4414953D01*
X51165094Y4414953D02*
X51165094Y4557810D01*
X51165094Y4557810D02*
X51117475Y4748286D01*
X51117475Y4748286D02*
X51069856Y4843524D01*
X51069856Y4843524D02*
X50974618Y4938762D01*
X50974618Y4938762D02*
X50831761Y4986381D01*
X50831761Y4986381D02*
X50736523Y4986381D01*
X50736523Y4986381D02*
X50593666Y4938762D01*
X50593666Y4938762D02*
X50546047Y4891143D01*
X49641285Y3986381D02*
X50117475Y3986381D01*
X50117475Y3986381D02*
X50117475Y4986381D01*
X47759857Y3986381D02*
X48236047Y3986381D01*
X48236047Y3986381D02*
X48236047Y4986381D01*
X47426523Y4510191D02*
X47093190Y4510191D01*
X46950333Y3986381D02*
X47426523Y3986381D01*
X47426523Y3986381D02*
X47426523Y4986381D01*
X47426523Y4986381D02*
X46950333Y4986381D01*
X46521761Y3986381D02*
X46521761Y4986381D01*
X46521761Y4986381D02*
X46283666Y4986381D01*
X46283666Y4986381D02*
X46140809Y4938762D01*
X46140809Y4938762D02*
X46045571Y4843524D01*
X46045571Y4843524D02*
X45997952Y4748286D01*
X45997952Y4748286D02*
X45950333Y4557810D01*
X45950333Y4557810D02*
X45950333Y4414953D01*
X45950333Y4414953D02*
X45997952Y4224477D01*
X45997952Y4224477D02*
X46045571Y4129239D01*
X46045571Y4129239D02*
X46140809Y4034000D01*
X46140809Y4034000D02*
X46283666Y3986381D01*
X46283666Y3986381D02*
X46521761Y3986381D01*
X48374143Y5434000D02*
X45859857Y5434000D01*
X47577333Y12348381D02*
X47577333Y11634096D01*
X47577333Y11634096D02*
X47624952Y11491239D01*
X47624952Y11491239D02*
X47720190Y11396000D01*
X47720190Y11396000D02*
X47863047Y11348381D01*
X47863047Y11348381D02*
X47958285Y11348381D01*
X46577333Y11348381D02*
X47148761Y11348381D01*
X46863047Y11348381D02*
X46863047Y12348381D01*
X46863047Y12348381D02*
X46958285Y12205524D01*
X46958285Y12205524D02*
X47053523Y12110286D01*
X47053523Y12110286D02*
X47148761Y12062667D01*
X52212713Y9697334D02*
X51450809Y9697334D01*
X51831761Y9316381D02*
X51831761Y10078286D01*
X50498428Y10316381D02*
X50974618Y10316381D01*
X50974618Y10316381D02*
X51022237Y9840191D01*
X51022237Y9840191D02*
X50974618Y9887810D01*
X50974618Y9887810D02*
X50879380Y9935429D01*
X50879380Y9935429D02*
X50641285Y9935429D01*
X50641285Y9935429D02*
X50546047Y9887810D01*
X50546047Y9887810D02*
X50498428Y9840191D01*
X50498428Y9840191D02*
X50450809Y9744953D01*
X50450809Y9744953D02*
X50450809Y9506858D01*
X50450809Y9506858D02*
X50498428Y9411620D01*
X50498428Y9411620D02*
X50546047Y9364000D01*
X50546047Y9364000D02*
X50641285Y9316381D01*
X50641285Y9316381D02*
X50879380Y9316381D01*
X50879380Y9316381D02*
X50974618Y9364000D01*
X50974618Y9364000D02*
X51022237Y9411620D01*
X50165094Y10316381D02*
X49831761Y9316381D01*
X49831761Y9316381D02*
X49498428Y10316381D01*
X47878904Y10268762D02*
X47974142Y10316381D01*
X47974142Y10316381D02*
X48116999Y10316381D01*
X48116999Y10316381D02*
X48259856Y10268762D01*
X48259856Y10268762D02*
X48355094Y10173524D01*
X48355094Y10173524D02*
X48402713Y10078286D01*
X48402713Y10078286D02*
X48450332Y9887810D01*
X48450332Y9887810D02*
X48450332Y9744953D01*
X48450332Y9744953D02*
X48402713Y9554477D01*
X48402713Y9554477D02*
X48355094Y9459239D01*
X48355094Y9459239D02*
X48259856Y9364000D01*
X48259856Y9364000D02*
X48116999Y9316381D01*
X48116999Y9316381D02*
X48021761Y9316381D01*
X48021761Y9316381D02*
X47878904Y9364000D01*
X47878904Y9364000D02*
X47831285Y9411620D01*
X47831285Y9411620D02*
X47831285Y9744953D01*
X47831285Y9744953D02*
X48021761Y9744953D01*
X47402713Y9316381D02*
X47402713Y10316381D01*
X47402713Y10316381D02*
X46831285Y9316381D01*
X46831285Y9316381D02*
X46831285Y10316381D01*
X46355094Y9316381D02*
X46355094Y10316381D01*
X46355094Y10316381D02*
X46116999Y10316381D01*
X46116999Y10316381D02*
X45974142Y10268762D01*
X45974142Y10268762D02*
X45878904Y10173524D01*
X45878904Y10173524D02*
X45831285Y10078286D01*
X45831285Y10078286D02*
X45783666Y9887810D01*
X45783666Y9887810D02*
X45783666Y9744953D01*
X45783666Y9744953D02*
X45831285Y9554477D01*
X45831285Y9554477D02*
X45878904Y9459239D01*
X45878904Y9459239D02*
X45974142Y9364000D01*
X45974142Y9364000D02*
X46116999Y9316381D01*
X46116999Y9316381D02*
X46355094Y9316381D01*
G36*
X98942239Y13419004D02*
G01*
X99061800Y13299443D01*
X99125951Y13042838D01*
X99125951Y12561306D01*
X99061800Y12304702D01*
X98942238Y12185140D01*
X98826104Y12127072D01*
X98575800Y12127072D01*
X98459664Y12185140D01*
X98340102Y12304702D01*
X98275951Y12561306D01*
X98275951Y13042837D01*
X98340102Y13299443D01*
X98459663Y13419004D01*
X98575799Y13477072D01*
X98826102Y13477072D01*
X98942239Y13419004D01*
G37*
G36*
X113249167Y11369214D02*
G01*
X86724165Y11369214D01*
X86724165Y13540948D01*
X87266438Y13540948D01*
X87284734Y13500884D01*
X87321786Y13477072D01*
X87697379Y13477072D01*
X87697379Y12041290D01*
X87706622Y12009812D01*
X87739908Y11980970D01*
X87783503Y11974702D01*
X87823567Y11992998D01*
X87847379Y12030050D01*
X87847379Y12200506D01*
X88551555Y12200506D01*
X88560917Y12157468D01*
X88645064Y12073319D01*
X88656341Y12059313D01*
X88670881Y12054467D01*
X88684334Y12047121D01*
X88691400Y12047627D01*
X88882598Y11983895D01*
X88893214Y11977072D01*
X88913894Y11977072D01*
X88934533Y11976326D01*
X88935792Y11977072D01*
X89048690Y11977072D01*
X89060918Y11973957D01*
X89080531Y11980495D01*
X89100353Y11986315D01*
X89101311Y11987422D01*
X89261892Y12040948D01*
X90052152Y12040948D01*
X90070448Y12000884D01*
X90107500Y11977072D01*
X90838448Y11977072D01*
X90854932Y11974702D01*
X90870084Y11981622D01*
X90886068Y11986315D01*
X90889804Y11990628D01*
X90894996Y11992998D01*
X90904003Y12007015D01*
X90914910Y12019601D01*
X90915721Y12025248D01*
X90918808Y12030050D01*
X90918808Y12040948D01*
X91266438Y12040948D01*
X91284734Y12000884D01*
X91321786Y11977072D01*
X92052734Y11977072D01*
X92069218Y11974702D01*
X92084370Y11981622D01*
X92100354Y11986315D01*
X92104090Y11990628D01*
X92109282Y11992998D01*
X92118289Y12007015D01*
X92129196Y12019601D01*
X92130007Y12025248D01*
X92133094Y12030050D01*
X92133094Y12040948D01*
X92623581Y12040948D01*
X92641877Y12000884D01*
X92678929Y11977072D01*
X93409877Y11977072D01*
X93426361Y11974702D01*
X93441513Y11981622D01*
X93457497Y11986315D01*
X93461233Y11990628D01*
X93466425Y11992998D01*
X93475432Y12007015D01*
X93486339Y12019601D01*
X93487150Y12025248D01*
X93490237Y12030050D01*
X93490237Y12046712D01*
X93492607Y12063196D01*
X93490237Y12068386D01*
X93490237Y12832426D01*
X93492607Y12848910D01*
X93490237Y12854100D01*
X93490237Y13488963D01*
X93980371Y13488963D01*
X93988211Y13445623D01*
X94018238Y13413401D01*
X94060918Y13402528D01*
X94284551Y13477072D01*
X94611817Y13477072D01*
X94727951Y13419004D01*
X94782168Y13364789D01*
X94840236Y13248653D01*
X94840236Y13141206D01*
X94782169Y13025071D01*
X94727951Y12970854D01*
X94603346Y12908551D01*
X94338575Y12842359D01*
X94329964Y12843288D01*
X94317633Y12837123D01*
X94315158Y12836504D01*
X94308018Y12832316D01*
X94175820Y12766217D01*
X94163490Y12763534D01*
X94148865Y12748910D01*
X94133745Y12734844D01*
X94133382Y12733427D01*
X94083136Y12683181D01*
X94072289Y12676738D01*
X94063047Y12658255D01*
X94053142Y12640115D01*
X94053246Y12638654D01*
X93992814Y12517793D01*
X93983093Y12502665D01*
X93983093Y12487335D01*
X93980379Y12472252D01*
X93983093Y12465708D01*
X93983093Y12341826D01*
X93981162Y12323942D01*
X93988018Y12310229D01*
X93992336Y12295526D01*
X93997689Y12290888D01*
X94058234Y12169799D01*
X94060917Y12157468D01*
X94075536Y12142849D01*
X94089606Y12127723D01*
X94091024Y12127361D01*
X94141269Y12077116D01*
X94147713Y12066266D01*
X94166212Y12057017D01*
X94184336Y12047120D01*
X94185796Y12047225D01*
X94306656Y11986796D01*
X94321786Y11977072D01*
X94337117Y11977072D01*
X94352200Y11974358D01*
X94358744Y11977072D01*
X94691548Y11977072D01*
X94703776Y11973957D01*
X94723389Y11980495D01*
X94743211Y11986315D01*
X94744169Y11987422D01*
X94925922Y12048005D01*
X96622891Y12048005D01*
X96629539Y12029071D01*
X96635194Y12009812D01*
X96636784Y12008434D01*
X96637482Y12006448D01*
X96653312Y11994113D01*
X96668480Y11980970D01*
X96670563Y11980671D01*
X96672223Y11979377D01*
X96692213Y11977558D01*
X96712075Y11974702D01*
X96713988Y11975576D01*
X96716086Y11975385D01*
X96733890Y11984665D01*
X96752139Y11992998D01*
X96753276Y11994769D01*
X96755143Y11995741D01*
X96765099Y12013165D01*
X96775951Y12030050D01*
X96775951Y12032155D01*
X97483094Y13269654D01*
X97483094Y12041290D01*
X97492337Y12009812D01*
X97525623Y11980970D01*
X97569218Y11974702D01*
X97609282Y11992998D01*
X97633094Y12030050D01*
X97633094Y12555246D01*
X98122849Y12555246D01*
X98125951Y12542838D01*
X98125951Y12541290D01*
X98128555Y12532420D01*
X98199341Y12249276D01*
X98203775Y12228897D01*
X98212555Y12220117D01*
X98218836Y12209412D01*
X98227804Y12204868D01*
X98355554Y12077117D01*
X98361999Y12066266D01*
X98380506Y12057013D01*
X98398622Y12047121D01*
X98400080Y12047226D01*
X98520942Y11986796D01*
X98536072Y11977072D01*
X98551403Y11977072D01*
X98566486Y11974358D01*
X98573030Y11977072D01*
X98839771Y11977072D01*
X98857652Y11975141D01*
X98871366Y11981999D01*
X98886068Y11986315D01*
X98890706Y11991669D01*
X98989950Y12041290D01*
X99768809Y12041290D01*
X99778052Y12009812D01*
X99811338Y11980970D01*
X99854933Y11974702D01*
X99894997Y11992998D01*
X99918809Y12030050D01*
X99918809Y13540948D01*
X100266439Y13540948D01*
X100284735Y13500884D01*
X100321787Y13477072D01*
X100697380Y13477072D01*
X100697380Y12041290D01*
X100706623Y12009812D01*
X100739909Y11980970D01*
X100783504Y11974702D01*
X100823568Y11992998D01*
X100847380Y12030050D01*
X100847380Y12200506D01*
X101551556Y12200506D01*
X101560918Y12157468D01*
X101645065Y12073319D01*
X101656342Y12059313D01*
X101670882Y12054467D01*
X101684335Y12047121D01*
X101691401Y12047627D01*
X101882599Y11983895D01*
X101893215Y11977072D01*
X101913895Y11977072D01*
X101934534Y11976326D01*
X101935793Y11977072D01*
X102048691Y11977072D01*
X102060919Y11973957D01*
X102080532Y11980495D01*
X102100354Y11986315D01*
X102101312Y11987422D01*
X102283065Y12048005D01*
X103122892Y12048005D01*
X103129540Y12029071D01*
X103135195Y12009812D01*
X103136785Y12008434D01*
X103137483Y12006448D01*
X103153313Y11994113D01*
X103168481Y11980970D01*
X103170564Y11980671D01*
X103172224Y11979377D01*
X103192214Y11977558D01*
X103212076Y11974702D01*
X103213989Y11975576D01*
X103216087Y11975385D01*
X103233891Y11984665D01*
X103252140Y11992998D01*
X103253277Y11994769D01*
X103255144Y11995741D01*
X103265100Y12013165D01*
X103275952Y12030050D01*
X103275952Y12032155D01*
X103983095Y13269654D01*
X103983095Y12041290D01*
X103992338Y12009812D01*
X104025624Y11980970D01*
X104069219Y11974702D01*
X104109283Y11992998D01*
X104133095Y12030050D01*
X104133095Y12323942D01*
X104695450Y12323942D01*
X104702306Y12310229D01*
X104706624Y12295526D01*
X104711977Y12290888D01*
X104772521Y12169799D01*
X104775204Y12157468D01*
X104789823Y12142849D01*
X104803893Y12127723D01*
X104805311Y12127361D01*
X104855556Y12077116D01*
X104862000Y12066266D01*
X104880499Y12057017D01*
X104898623Y12047120D01*
X104900083Y12047225D01*
X105020943Y11986796D01*
X105036073Y11977072D01*
X105051404Y11977072D01*
X105066487Y11974358D01*
X105073031Y11977072D01*
X105339772Y11977072D01*
X105357653Y11975141D01*
X105371367Y11981999D01*
X105386069Y11986315D01*
X105390707Y11991669D01*
X105511796Y12052213D01*
X105524129Y12054895D01*
X105538756Y12069524D01*
X105553873Y12083584D01*
X105554235Y12085003D01*
X105604480Y12135249D01*
X105615328Y12141691D01*
X105624572Y12160180D01*
X105634475Y12178315D01*
X105634370Y12179776D01*
X105694802Y12300637D01*
X105704524Y12315764D01*
X105704524Y12331094D01*
X105707238Y12346177D01*
X105704524Y12352721D01*
X105704524Y13540948D01*
X106123582Y13540948D01*
X106141878Y13500884D01*
X106178930Y13477072D01*
X106840238Y13477072D01*
X106840238Y12912786D01*
X106404456Y12912786D01*
X106372978Y12903543D01*
X106344136Y12870257D01*
X106337868Y12826662D01*
X106356164Y12786598D01*
X106393216Y12762786D01*
X106840238Y12762786D01*
X106840238Y12041290D01*
X106849481Y12009812D01*
X106882767Y11980970D01*
X106926362Y11974702D01*
X106966426Y11992998D01*
X106990238Y12030050D01*
X106990238Y12200506D01*
X108622985Y12200506D01*
X108632347Y12157468D01*
X108716494Y12073319D01*
X108727771Y12059313D01*
X108742311Y12054467D01*
X108755764Y12047121D01*
X108762830Y12047627D01*
X108954028Y11983895D01*
X108964644Y11977072D01*
X108985324Y11977072D01*
X109005963Y11976326D01*
X109007222Y11977072D01*
X109120120Y11977072D01*
X109132348Y11973957D01*
X109151961Y11980495D01*
X109171783Y11986315D01*
X109172741Y11987422D01*
X109363698Y12051073D01*
X109381270Y12054895D01*
X109392109Y12065735D01*
X109404694Y12074481D01*
X109407402Y12081028D01*
X109533051Y12206678D01*
X109543899Y12213120D01*
X109553140Y12231604D01*
X109563046Y12249743D01*
X109562941Y12251205D01*
X109619202Y12363726D01*
X109625515Y12369660D01*
X109628859Y12383038D01*
X109629999Y12385317D01*
X109631462Y12393450D01*
X109699290Y12664766D01*
X109704523Y12672907D01*
X109704523Y12685695D01*
X109704899Y12687199D01*
X109704523Y12696445D01*
X109704523Y12896872D01*
X109707625Y12906041D01*
X109704523Y12918449D01*
X109704523Y12919997D01*
X109701918Y12928866D01*
X109634095Y13200162D01*
X109635025Y13208773D01*
X109628859Y13221104D01*
X109628241Y13223579D01*
X109624052Y13230719D01*
X109557953Y13362917D01*
X109555271Y13375247D01*
X109540646Y13389872D01*
X109526581Y13404992D01*
X109525163Y13405355D01*
X109399693Y13530825D01*
X109391543Y13540948D01*
X110052153Y13540948D01*
X110070449Y13500884D01*
X110107501Y13477072D01*
X110768809Y13477072D01*
X110768809Y12912786D01*
X110333027Y12912786D01*
X110301549Y12903543D01*
X110272707Y12870257D01*
X110266439Y12826662D01*
X110284735Y12786598D01*
X110321787Y12762786D01*
X110768809Y12762786D01*
X110768809Y12041290D01*
X110778052Y12009812D01*
X110811338Y11980970D01*
X110854933Y11974702D01*
X110894997Y11992998D01*
X110918809Y12030050D01*
X110918809Y12323942D01*
X111481164Y12323942D01*
X111488020Y12310229D01*
X111492338Y12295526D01*
X111497691Y12290888D01*
X111558235Y12169799D01*
X111560918Y12157468D01*
X111575537Y12142849D01*
X111589607Y12127723D01*
X111591025Y12127361D01*
X111641270Y12077116D01*
X111647714Y12066266D01*
X111666213Y12057017D01*
X111684337Y12047120D01*
X111685797Y12047225D01*
X111806657Y11986796D01*
X111821787Y11977072D01*
X111837118Y11977072D01*
X111852201Y11974358D01*
X111858745Y11977072D01*
X112125486Y11977072D01*
X112143367Y11975141D01*
X112157081Y11981999D01*
X112171783Y11986315D01*
X112176421Y11991669D01*
X112297510Y12052213D01*
X112309843Y12054895D01*
X112324470Y12069524D01*
X112339587Y12083584D01*
X112339949Y12085003D01*
X112390194Y12135249D01*
X112401042Y12141691D01*
X112410286Y12160180D01*
X112420189Y12178315D01*
X112420084Y12179776D01*
X112480516Y12300637D01*
X112490238Y12315764D01*
X112490238Y12331094D01*
X112492952Y12346177D01*
X112490238Y12352721D01*
X112490238Y13562854D01*
X112480995Y13594332D01*
X112447709Y13623174D01*
X112404114Y13629442D01*
X112364050Y13611146D01*
X112340238Y13574094D01*
X112340238Y12355491D01*
X112282169Y12239357D01*
X112227953Y12185139D01*
X112111819Y12127072D01*
X111861515Y12127072D01*
X111745378Y12185140D01*
X111691163Y12239355D01*
X111633095Y12355491D01*
X111633095Y13562854D01*
X111623852Y13594332D01*
X111590566Y13623174D01*
X111546971Y13629442D01*
X111506907Y13611146D01*
X111483095Y13574094D01*
X111483095Y12341827D01*
X111481164Y12323942D01*
X110918809Y12323942D01*
X110918809Y12832426D01*
X110921179Y12848910D01*
X110918809Y12854100D01*
X110918809Y13546712D01*
X110921179Y13563196D01*
X110914259Y13578349D01*
X110909566Y13594332D01*
X110905253Y13598069D01*
X110902883Y13603260D01*
X110888866Y13612268D01*
X110876280Y13623174D01*
X110870633Y13623986D01*
X110865831Y13627072D01*
X110849169Y13627072D01*
X110832685Y13629442D01*
X110827495Y13627072D01*
X110118741Y13627072D01*
X110087263Y13617829D01*
X110058421Y13584543D01*
X110052153Y13540948D01*
X109391543Y13540948D01*
X109388418Y13544830D01*
X109373876Y13549678D01*
X109360424Y13557023D01*
X109353356Y13556518D01*
X109162160Y13620250D01*
X109151545Y13627072D01*
X109130865Y13627072D01*
X109110226Y13627818D01*
X109108967Y13627072D01*
X108996068Y13627072D01*
X108983840Y13630187D01*
X108964221Y13623648D01*
X108944406Y13617829D01*
X108943447Y13616723D01*
X108752489Y13553071D01*
X108734919Y13549248D01*
X108724080Y13538410D01*
X108711494Y13529662D01*
X108708785Y13523115D01*
X108640295Y13454624D01*
X108624572Y13425830D01*
X108627715Y13381899D01*
X108654109Y13346640D01*
X108695376Y13331248D01*
X108738413Y13340610D01*
X108812893Y13415091D01*
X108998838Y13477072D01*
X109117353Y13477072D01*
X109303295Y13415091D01*
X109425026Y13293360D01*
X109487330Y13168753D01*
X109554523Y12899981D01*
X109554523Y12704163D01*
X109487330Y12435390D01*
X109425026Y12310785D01*
X109303295Y12189053D01*
X109117351Y12127072D01*
X108998836Y12127072D01*
X108812893Y12189053D01*
X108746361Y12255586D01*
X108717567Y12271308D01*
X108673636Y12268166D01*
X108638378Y12241772D01*
X108622985Y12200506D01*
X106990238Y12200506D01*
X106990238Y12832426D01*
X106992608Y12848910D01*
X106990238Y12854100D01*
X106990238Y13546712D01*
X106992608Y13563196D01*
X106985688Y13578349D01*
X106980995Y13594332D01*
X106976682Y13598069D01*
X106974312Y13603260D01*
X106960295Y13612268D01*
X106947709Y13623174D01*
X106942062Y13623986D01*
X106937260Y13627072D01*
X106920598Y13627072D01*
X106904114Y13629442D01*
X106898924Y13627072D01*
X106190170Y13627072D01*
X106158692Y13617829D01*
X106129850Y13584543D01*
X106123582Y13540948D01*
X105704524Y13540948D01*
X105704524Y13562854D01*
X105695281Y13594332D01*
X105661995Y13623174D01*
X105618400Y13629442D01*
X105578336Y13611146D01*
X105554524Y13574094D01*
X105554524Y12355491D01*
X105496455Y12239357D01*
X105442239Y12185139D01*
X105326105Y12127072D01*
X105075801Y12127072D01*
X104959664Y12185140D01*
X104905449Y12239355D01*
X104847381Y12355491D01*
X104847381Y13562854D01*
X104838138Y13594332D01*
X104804852Y13623174D01*
X104761257Y13629442D01*
X104721193Y13611146D01*
X104697381Y13574094D01*
X104697381Y12341827D01*
X104695450Y12323942D01*
X104133095Y12323942D01*
X104133095Y13543276D01*
X104136155Y13556140D01*
X104129505Y13575077D01*
X104123852Y13594332D01*
X104122261Y13595711D01*
X104121564Y13597696D01*
X104105733Y13610032D01*
X104090566Y13623174D01*
X104088482Y13623474D01*
X104086823Y13624767D01*
X104066832Y13626587D01*
X104046971Y13629442D01*
X104045057Y13628569D01*
X104042960Y13628759D01*
X104025155Y13619480D01*
X104006907Y13611146D01*
X104005769Y13609376D01*
X104003903Y13608403D01*
X103993946Y13590980D01*
X103983095Y13574094D01*
X103983095Y13571989D01*
X103275952Y12334490D01*
X103275952Y13562854D01*
X103266709Y13594332D01*
X103233423Y13623174D01*
X103189828Y13629442D01*
X103149764Y13611146D01*
X103125952Y13574094D01*
X103125952Y12060869D01*
X103122892Y12048005D01*
X102283065Y12048005D01*
X102292269Y12051073D01*
X102309841Y12054895D01*
X102320680Y12065735D01*
X102333265Y12074481D01*
X102335973Y12081028D01*
X102461622Y12206678D01*
X102472470Y12213120D01*
X102481711Y12231604D01*
X102491617Y12249743D01*
X102491512Y12251205D01*
X102547773Y12363726D01*
X102554086Y12369660D01*
X102557430Y12383038D01*
X102558570Y12385317D01*
X102560033Y12393450D01*
X102627861Y12664766D01*
X102633094Y12672907D01*
X102633094Y12685695D01*
X102633470Y12687199D01*
X102633094Y12696445D01*
X102633094Y12896872D01*
X102636196Y12906041D01*
X102633094Y12918449D01*
X102633094Y12919997D01*
X102630489Y12928866D01*
X102562666Y13200162D01*
X102563596Y13208773D01*
X102557430Y13221104D01*
X102556812Y13223579D01*
X102552623Y13230719D01*
X102486524Y13362917D01*
X102483842Y13375247D01*
X102469217Y13389872D01*
X102455152Y13404992D01*
X102453734Y13405355D01*
X102328264Y13530825D01*
X102316989Y13544830D01*
X102302447Y13549678D01*
X102288995Y13557023D01*
X102281927Y13556518D01*
X102090731Y13620250D01*
X102080116Y13627072D01*
X102059436Y13627072D01*
X102038797Y13627818D01*
X102037538Y13627072D01*
X101924639Y13627072D01*
X101912411Y13630187D01*
X101892792Y13623648D01*
X101872977Y13617829D01*
X101872018Y13616723D01*
X101681060Y13553071D01*
X101663490Y13549248D01*
X101652651Y13538410D01*
X101640065Y13529662D01*
X101637356Y13523115D01*
X101568866Y13454624D01*
X101553143Y13425830D01*
X101556286Y13381899D01*
X101582680Y13346640D01*
X101623947Y13331248D01*
X101666984Y13340610D01*
X101741464Y13415091D01*
X101927409Y13477072D01*
X102045924Y13477072D01*
X102231866Y13415091D01*
X102353597Y13293360D01*
X102415901Y13168753D01*
X102483094Y12899981D01*
X102483094Y12704163D01*
X102415901Y12435390D01*
X102353597Y12310785D01*
X102231866Y12189053D01*
X102045922Y12127072D01*
X101927407Y12127072D01*
X101741464Y12189053D01*
X101674932Y12255586D01*
X101646138Y12271308D01*
X101602207Y12268166D01*
X101566949Y12241772D01*
X101551556Y12200506D01*
X100847380Y12200506D01*
X100847380Y13477072D01*
X101211733Y13477072D01*
X101243211Y13486315D01*
X101272053Y13519601D01*
X101278321Y13563196D01*
X101260025Y13603260D01*
X101222973Y13627072D01*
X100777740Y13627072D01*
X100761256Y13629442D01*
X100756066Y13627072D01*
X100333027Y13627072D01*
X100301549Y13617829D01*
X100272707Y13584543D01*
X100266439Y13540948D01*
X99918809Y13540948D01*
X99918809Y13562854D01*
X99909566Y13594332D01*
X99876280Y13623174D01*
X99832685Y13629442D01*
X99792621Y13611146D01*
X99768809Y13574094D01*
X99768809Y12041290D01*
X98989950Y12041290D01*
X99011796Y12052213D01*
X99024127Y12054895D01*
X99038744Y12069513D01*
X99053872Y12083584D01*
X99054234Y12085004D01*
X99181736Y12212506D01*
X99196943Y12226803D01*
X99199954Y12238850D01*
X99205903Y12249743D01*
X99205185Y12259773D01*
X99270718Y12521909D01*
X99275951Y12530050D01*
X99275951Y12542838D01*
X99276327Y12544342D01*
X99275951Y12553588D01*
X99275951Y13039729D01*
X99279053Y13048898D01*
X99275951Y13061306D01*
X99275951Y13062854D01*
X99273346Y13071723D01*
X99202562Y13354864D01*
X99198128Y13375247D01*
X99189348Y13384027D01*
X99183067Y13394733D01*
X99174096Y13399279D01*
X99046347Y13527028D01*
X99039904Y13537877D01*
X99021403Y13547128D01*
X99003281Y13557023D01*
X99001820Y13556919D01*
X98880959Y13617349D01*
X98865830Y13627072D01*
X98850500Y13627072D01*
X98835417Y13629786D01*
X98828873Y13627072D01*
X98562129Y13627072D01*
X98544250Y13629002D01*
X98530540Y13622148D01*
X98515834Y13617829D01*
X98511193Y13612474D01*
X98390106Y13551931D01*
X98377776Y13549248D01*
X98363151Y13534624D01*
X98348031Y13520558D01*
X98347668Y13519141D01*
X98220158Y13391631D01*
X98204960Y13377340D01*
X98201948Y13365296D01*
X98196000Y13354401D01*
X98196717Y13344371D01*
X98131183Y13082236D01*
X98125951Y13074094D01*
X98125951Y13061306D01*
X98125575Y13059802D01*
X98125951Y13050556D01*
X98125951Y12564415D01*
X98122849Y12555246D01*
X97633094Y12555246D01*
X97633094Y13543276D01*
X97636154Y13556140D01*
X97629504Y13575077D01*
X97623851Y13594332D01*
X97622260Y13595711D01*
X97621563Y13597696D01*
X97605732Y13610032D01*
X97590565Y13623174D01*
X97588481Y13623474D01*
X97586822Y13624767D01*
X97566831Y13626587D01*
X97546970Y13629442D01*
X97545056Y13628569D01*
X97542959Y13628759D01*
X97525154Y13619480D01*
X97506906Y13611146D01*
X97505768Y13609376D01*
X97503902Y13608403D01*
X97493945Y13590980D01*
X97483094Y13574094D01*
X97483094Y13571989D01*
X96775951Y12334490D01*
X96775951Y13562854D01*
X96766708Y13594332D01*
X96733422Y13623174D01*
X96689827Y13629442D01*
X96649763Y13611146D01*
X96625951Y13574094D01*
X96625951Y12060869D01*
X96622891Y12048005D01*
X94925922Y12048005D01*
X94949182Y12055758D01*
X94976121Y12074481D01*
X94992957Y12115180D01*
X94985118Y12158520D01*
X94955091Y12190742D01*
X94912411Y12201615D01*
X94688779Y12127072D01*
X94361514Y12127072D01*
X94245377Y12185140D01*
X94191160Y12239357D01*
X94133093Y12355491D01*
X94133093Y12462938D01*
X94191161Y12579074D01*
X94245377Y12633290D01*
X94369984Y12695594D01*
X94634752Y12761786D01*
X94643366Y12760855D01*
X94655699Y12767022D01*
X94658172Y12767640D01*
X94665299Y12771822D01*
X94797509Y12837928D01*
X94809840Y12840610D01*
X94824463Y12855234D01*
X94839585Y12869299D01*
X94839947Y12870717D01*
X94890193Y12920963D01*
X94901042Y12927405D01*
X94910289Y12945901D01*
X94920187Y12964027D01*
X94920082Y12965487D01*
X94980512Y13086349D01*
X94990236Y13101478D01*
X94990236Y13116809D01*
X94992950Y13131892D01*
X94990236Y13138436D01*
X94990236Y13262317D01*
X94992167Y13280202D01*
X94985310Y13293916D01*
X94980993Y13308618D01*
X94975639Y13313257D01*
X94915095Y13434345D01*
X94912413Y13446677D01*
X94897784Y13461305D01*
X94883724Y13476421D01*
X94882305Y13476784D01*
X94832059Y13527029D01*
X94825617Y13537876D01*
X94807128Y13547121D01*
X94788993Y13557023D01*
X94787532Y13556919D01*
X94666671Y13617351D01*
X94651544Y13627072D01*
X94636214Y13627072D01*
X94621131Y13629786D01*
X94614587Y13627072D01*
X94281781Y13627072D01*
X94269553Y13630187D01*
X94249934Y13623648D01*
X94230119Y13617829D01*
X94229160Y13616723D01*
X94024147Y13548385D01*
X93997207Y13529662D01*
X93980371Y13488963D01*
X93490237Y13488963D01*
X93490237Y13546712D01*
X93492607Y13563196D01*
X93485687Y13578349D01*
X93480994Y13594332D01*
X93476681Y13598069D01*
X93474311Y13603260D01*
X93460294Y13612268D01*
X93447708Y13623174D01*
X93442061Y13623986D01*
X93437259Y13627072D01*
X93420597Y13627072D01*
X93404113Y13629442D01*
X93398923Y13627072D01*
X92690169Y13627072D01*
X92658691Y13617829D01*
X92629849Y13584543D01*
X92623581Y13540948D01*
X92641877Y13500884D01*
X92678929Y13477072D01*
X93340237Y13477072D01*
X93340237Y12912786D01*
X92904455Y12912786D01*
X92872977Y12903543D01*
X92844135Y12870257D01*
X92837867Y12826662D01*
X92856163Y12786598D01*
X92893215Y12762786D01*
X93340237Y12762786D01*
X93340237Y12127072D01*
X92690169Y12127072D01*
X92658691Y12117829D01*
X92629849Y12084543D01*
X92623581Y12040948D01*
X92133094Y12040948D01*
X92133094Y12046712D01*
X92135464Y12063196D01*
X92133094Y12068386D01*
X92133094Y13562854D01*
X92123851Y13594332D01*
X92090565Y13623174D01*
X92046970Y13629442D01*
X92006906Y13611146D01*
X91983094Y13574094D01*
X91983094Y12127072D01*
X91333026Y12127072D01*
X91301548Y12117829D01*
X91272706Y12084543D01*
X91266438Y12040948D01*
X90918808Y12040948D01*
X90918808Y12046712D01*
X90921178Y12063196D01*
X90918808Y12068386D01*
X90918808Y12832426D01*
X90921178Y12848910D01*
X90918808Y12854100D01*
X90918808Y13546712D01*
X90921178Y13563196D01*
X90914258Y13578349D01*
X90909565Y13594332D01*
X90905252Y13598069D01*
X90902882Y13603260D01*
X90888865Y13612268D01*
X90876279Y13623174D01*
X90870632Y13623986D01*
X90865830Y13627072D01*
X90849168Y13627072D01*
X90832684Y13629442D01*
X90827494Y13627072D01*
X90118740Y13627072D01*
X90087262Y13617829D01*
X90058420Y13584543D01*
X90052152Y13540948D01*
X90070448Y13500884D01*
X90107500Y13477072D01*
X90768808Y13477072D01*
X90768808Y12912786D01*
X90333026Y12912786D01*
X90301548Y12903543D01*
X90272706Y12870257D01*
X90266438Y12826662D01*
X90284734Y12786598D01*
X90321786Y12762786D01*
X90768808Y12762786D01*
X90768808Y12127072D01*
X90118740Y12127072D01*
X90087262Y12117829D01*
X90058420Y12084543D01*
X90052152Y12040948D01*
X89261892Y12040948D01*
X89292268Y12051073D01*
X89309840Y12054895D01*
X89320679Y12065735D01*
X89333264Y12074481D01*
X89335972Y12081028D01*
X89461621Y12206678D01*
X89472469Y12213120D01*
X89481710Y12231604D01*
X89491616Y12249743D01*
X89491511Y12251205D01*
X89547772Y12363726D01*
X89554085Y12369660D01*
X89557429Y12383038D01*
X89558569Y12385317D01*
X89560032Y12393450D01*
X89627860Y12664766D01*
X89633093Y12672907D01*
X89633093Y12685695D01*
X89633469Y12687199D01*
X89633093Y12696445D01*
X89633093Y12896872D01*
X89636195Y12906041D01*
X89633093Y12918449D01*
X89633093Y12919997D01*
X89630488Y12928866D01*
X89562665Y13200162D01*
X89563595Y13208773D01*
X89557429Y13221104D01*
X89556811Y13223579D01*
X89552622Y13230719D01*
X89486523Y13362917D01*
X89483841Y13375247D01*
X89469216Y13389872D01*
X89455151Y13404992D01*
X89453733Y13405355D01*
X89328263Y13530825D01*
X89316988Y13544830D01*
X89302446Y13549678D01*
X89288994Y13557023D01*
X89281926Y13556518D01*
X89090730Y13620250D01*
X89080115Y13627072D01*
X89059435Y13627072D01*
X89038796Y13627818D01*
X89037537Y13627072D01*
X88924638Y13627072D01*
X88912410Y13630187D01*
X88892791Y13623648D01*
X88872976Y13617829D01*
X88872017Y13616723D01*
X88681059Y13553071D01*
X88663489Y13549248D01*
X88652650Y13538410D01*
X88640064Y13529662D01*
X88637355Y13523115D01*
X88568865Y13454624D01*
X88553142Y13425830D01*
X88556285Y13381899D01*
X88582679Y13346640D01*
X88623946Y13331248D01*
X88666983Y13340610D01*
X88741463Y13415091D01*
X88927408Y13477072D01*
X89045923Y13477072D01*
X89231865Y13415091D01*
X89353596Y13293360D01*
X89415900Y13168753D01*
X89483093Y12899981D01*
X89483093Y12704163D01*
X89415900Y12435390D01*
X89353596Y12310785D01*
X89231865Y12189053D01*
X89045921Y12127072D01*
X88927406Y12127072D01*
X88741463Y12189053D01*
X88674931Y12255586D01*
X88646137Y12271308D01*
X88602206Y12268166D01*
X88566948Y12241772D01*
X88551555Y12200506D01*
X87847379Y12200506D01*
X87847379Y13477072D01*
X88211732Y13477072D01*
X88243210Y13486315D01*
X88272052Y13519601D01*
X88278320Y13563196D01*
X88260024Y13603260D01*
X88222972Y13627072D01*
X87777739Y13627072D01*
X87761255Y13629442D01*
X87756065Y13627072D01*
X87333026Y13627072D01*
X87301548Y13617829D01*
X87272706Y13584543D01*
X87266438Y13540948D01*
X86724165Y13540948D01*
X86724165Y14122786D01*
X113249167Y14122786D01*
X113249167Y11369214D01*
G37*
X52141285Y6944000D02*
X51998428Y6896381D01*
X51998428Y6896381D02*
X51760333Y6896381D01*
X51760333Y6896381D02*
X51665095Y6944000D01*
X51665095Y6944000D02*
X51617476Y6991620D01*
X51617476Y6991620D02*
X51569857Y7086858D01*
X51569857Y7086858D02*
X51569857Y7182096D01*
X51569857Y7182096D02*
X51617476Y7277334D01*
X51617476Y7277334D02*
X51665095Y7324953D01*
X51665095Y7324953D02*
X51760333Y7372572D01*
X51760333Y7372572D02*
X51950809Y7420191D01*
X51950809Y7420191D02*
X52046047Y7467810D01*
X52046047Y7467810D02*
X52093666Y7515429D01*
X52093666Y7515429D02*
X52141285Y7610667D01*
X52141285Y7610667D02*
X52141285Y7705905D01*
X52141285Y7705905D02*
X52093666Y7801143D01*
X52093666Y7801143D02*
X52046047Y7848762D01*
X52046047Y7848762D02*
X51950809Y7896381D01*
X51950809Y7896381D02*
X51712714Y7896381D01*
X51712714Y7896381D02*
X51569857Y7848762D01*
X51141285Y6896381D02*
X51141285Y7896381D01*
X51141285Y7896381D02*
X50903190Y7896381D01*
X50903190Y7896381D02*
X50760333Y7848762D01*
X50760333Y7848762D02*
X50665095Y7753524D01*
X50665095Y7753524D02*
X50617476Y7658286D01*
X50617476Y7658286D02*
X50569857Y7467810D01*
X50569857Y7467810D02*
X50569857Y7324953D01*
X50569857Y7324953D02*
X50617476Y7134477D01*
X50617476Y7134477D02*
X50665095Y7039239D01*
X50665095Y7039239D02*
X50760333Y6944000D01*
X50760333Y6944000D02*
X50903190Y6896381D01*
X50903190Y6896381D02*
X51141285Y6896381D01*
X50188904Y7182096D02*
X49712714Y7182096D01*
X50284142Y6896381D02*
X49950809Y7896381D01*
X49950809Y7896381D02*
X49617476Y6896381D01*
X48140808Y6896381D02*
X48140808Y7896381D01*
X47093190Y6896381D02*
X47426523Y7372572D01*
X47664618Y6896381D02*
X47664618Y7896381D01*
X47664618Y7896381D02*
X47283666Y7896381D01*
X47283666Y7896381D02*
X47188428Y7848762D01*
X47188428Y7848762D02*
X47140809Y7801143D01*
X47140809Y7801143D02*
X47093190Y7705905D01*
X47093190Y7705905D02*
X47093190Y7563048D01*
X47093190Y7563048D02*
X47140809Y7467810D01*
X47140809Y7467810D02*
X47188428Y7420191D01*
X47188428Y7420191D02*
X47283666Y7372572D01*
X47283666Y7372572D02*
X47664618Y7372572D01*
X45997952Y6801143D02*
X46093190Y6848762D01*
X46093190Y6848762D02*
X46188428Y6944000D01*
X46188428Y6944000D02*
X46331285Y7086858D01*
X46331285Y7086858D02*
X46426523Y7134477D01*
X46426523Y7134477D02*
X46521761Y7134477D01*
X46474142Y6896381D02*
X46569380Y6944000D01*
X46569380Y6944000D02*
X46664618Y7039239D01*
X46664618Y7039239D02*
X46712237Y7229715D01*
X46712237Y7229715D02*
X46712237Y7563048D01*
X46712237Y7563048D02*
X46664618Y7753524D01*
X46664618Y7753524D02*
X46569380Y7848762D01*
X46569380Y7848762D02*
X46474142Y7896381D01*
X46474142Y7896381D02*
X46283666Y7896381D01*
X46283666Y7896381D02*
X46188428Y7848762D01*
X46188428Y7848762D02*
X46093190Y7753524D01*
X46093190Y7753524D02*
X46045571Y7563048D01*
X46045571Y7563048D02*
X46045571Y7229715D01*
X46045571Y7229715D02*
X46093190Y7039239D01*
X46093190Y7039239D02*
X46188428Y6944000D01*
X46188428Y6944000D02*
X46283666Y6896381D01*
X46283666Y6896381D02*
X46474142Y6896381D01*
%TO.C,J1*%
X83163333Y13027381D02*
X83163333Y12313096D01*
X83163333Y12313096D02*
X83210952Y12170239D01*
X83210952Y12170239D02*
X83306190Y12075000D01*
X83306190Y12075000D02*
X83449047Y12027381D01*
X83449047Y12027381D02*
X83544285Y12027381D01*
X82163333Y12027381D02*
X82734761Y12027381D01*
X82449047Y12027381D02*
X82449047Y13027381D01*
X82449047Y13027381D02*
X82544285Y12884524D01*
X82544285Y12884524D02*
X82639523Y12789286D01*
X82639523Y12789286D02*
X82734761Y12741667D01*
D12*
X86514285Y3092072D02*
X85657143Y3092072D01*
X86085714Y1592072D02*
X86085714Y3092072D01*
X84871428Y3092072D02*
X84585714Y3092072D01*
X84585714Y3092072D02*
X84442857Y3020643D01*
X84442857Y3020643D02*
X84300000Y2877786D01*
X84300000Y2877786D02*
X84228571Y2592072D01*
X84228571Y2592072D02*
X84228571Y2092072D01*
X84228571Y2092072D02*
X84300000Y1806358D01*
X84300000Y1806358D02*
X84442857Y1663500D01*
X84442857Y1663500D02*
X84585714Y1592072D01*
X84585714Y1592072D02*
X84871428Y1592072D01*
X84871428Y1592072D02*
X85014286Y1663500D01*
X85014286Y1663500D02*
X85157143Y1806358D01*
X85157143Y1806358D02*
X85228571Y2092072D01*
X85228571Y2092072D02*
X85228571Y2592072D01*
X85228571Y2592072D02*
X85157143Y2877786D01*
X85157143Y2877786D02*
X85014286Y3020643D01*
X85014286Y3020643D02*
X84871428Y3092072D01*
X82442857Y3092072D02*
X82442857Y1877786D01*
X82442857Y1877786D02*
X82371428Y1734929D01*
X82371428Y1734929D02*
X82300000Y1663500D01*
X82300000Y1663500D02*
X82157142Y1592072D01*
X82157142Y1592072D02*
X81871428Y1592072D01*
X81871428Y1592072D02*
X81728571Y1663500D01*
X81728571Y1663500D02*
X81657142Y1734929D01*
X81657142Y1734929D02*
X81585714Y1877786D01*
X81585714Y1877786D02*
X81585714Y3092072D01*
X80371428Y2377786D02*
X80871428Y2377786D01*
X80871428Y1592072D02*
X80871428Y3092072D01*
X80871428Y3092072D02*
X80157142Y3092072D01*
X78728571Y1734929D02*
X78799999Y1663500D01*
X78799999Y1663500D02*
X79014285Y1592072D01*
X79014285Y1592072D02*
X79157142Y1592072D01*
X79157142Y1592072D02*
X79371428Y1663500D01*
X79371428Y1663500D02*
X79514285Y1806358D01*
X79514285Y1806358D02*
X79585714Y1949215D01*
X79585714Y1949215D02*
X79657142Y2234929D01*
X79657142Y2234929D02*
X79657142Y2449215D01*
X79657142Y2449215D02*
X79585714Y2734929D01*
X79585714Y2734929D02*
X79514285Y2877786D01*
X79514285Y2877786D02*
X79371428Y3020643D01*
X79371428Y3020643D02*
X79157142Y3092072D01*
X79157142Y3092072D02*
X79014285Y3092072D01*
X79014285Y3092072D02*
X78799999Y3020643D01*
X78799999Y3020643D02*
X78728571Y2949215D01*
D10*
%TO.C,U1*%
X65961904Y10468141D02*
X65961904Y9658618D01*
X65961904Y9658618D02*
X65914285Y9563380D01*
X65914285Y9563380D02*
X65866666Y9515760D01*
X65866666Y9515760D02*
X65771428Y9468141D01*
X65771428Y9468141D02*
X65580952Y9468141D01*
X65580952Y9468141D02*
X65485714Y9515760D01*
X65485714Y9515760D02*
X65438095Y9563380D01*
X65438095Y9563380D02*
X65390476Y9658618D01*
X65390476Y9658618D02*
X65390476Y10468141D01*
X64390476Y9468141D02*
X64961904Y9468141D01*
X64676190Y9468141D02*
X64676190Y10468141D01*
X64676190Y10468141D02*
X64771428Y10325284D01*
X64771428Y10325284D02*
X64866666Y10230046D01*
X64866666Y10230046D02*
X64961904Y10182427D01*
%TO.C,C1*%
X34318266Y10899820D02*
X34365885Y10852200D01*
X34365885Y10852200D02*
X34508742Y10804581D01*
X34508742Y10804581D02*
X34603980Y10804581D01*
X34603980Y10804581D02*
X34746837Y10852200D01*
X34746837Y10852200D02*
X34842075Y10947439D01*
X34842075Y10947439D02*
X34889694Y11042677D01*
X34889694Y11042677D02*
X34937313Y11233153D01*
X34937313Y11233153D02*
X34937313Y11376010D01*
X34937313Y11376010D02*
X34889694Y11566486D01*
X34889694Y11566486D02*
X34842075Y11661724D01*
X34842075Y11661724D02*
X34746837Y11756962D01*
X34746837Y11756962D02*
X34603980Y11804581D01*
X34603980Y11804581D02*
X34508742Y11804581D01*
X34508742Y11804581D02*
X34365885Y11756962D01*
X34365885Y11756962D02*
X34318266Y11709343D01*
X33365885Y10804581D02*
X33937313Y10804581D01*
X33651599Y10804581D02*
X33651599Y11804581D01*
X33651599Y11804581D02*
X33746837Y11661724D01*
X33746837Y11661724D02*
X33842075Y11566486D01*
X33842075Y11566486D02*
X33937313Y11518867D01*
%TO.C,R1*%
X74162619Y8391667D02*
X73686428Y8725000D01*
X74162619Y8963095D02*
X73162619Y8963095D01*
X73162619Y8963095D02*
X73162619Y8582143D01*
X73162619Y8582143D02*
X73210238Y8486905D01*
X73210238Y8486905D02*
X73257857Y8439286D01*
X73257857Y8439286D02*
X73353095Y8391667D01*
X73353095Y8391667D02*
X73495952Y8391667D01*
X73495952Y8391667D02*
X73591190Y8439286D01*
X73591190Y8439286D02*
X73638809Y8486905D01*
X73638809Y8486905D02*
X73686428Y8582143D01*
X73686428Y8582143D02*
X73686428Y8963095D01*
X74162619Y7439286D02*
X74162619Y8010714D01*
X74162619Y7725000D02*
X73162619Y7725000D01*
X73162619Y7725000D02*
X73305476Y7820238D01*
X73305476Y7820238D02*
X73400714Y7915476D01*
X73400714Y7915476D02*
X73448333Y8010714D01*
%TO.C,R2*%
X75712619Y8466667D02*
X75236428Y8800000D01*
X75712619Y9038095D02*
X74712619Y9038095D01*
X74712619Y9038095D02*
X74712619Y8657143D01*
X74712619Y8657143D02*
X74760238Y8561905D01*
X74760238Y8561905D02*
X74807857Y8514286D01*
X74807857Y8514286D02*
X74903095Y8466667D01*
X74903095Y8466667D02*
X75045952Y8466667D01*
X75045952Y8466667D02*
X75141190Y8514286D01*
X75141190Y8514286D02*
X75188809Y8561905D01*
X75188809Y8561905D02*
X75236428Y8657143D01*
X75236428Y8657143D02*
X75236428Y9038095D01*
X74807857Y8085714D02*
X74760238Y8038095D01*
X74760238Y8038095D02*
X74712619Y7942857D01*
X74712619Y7942857D02*
X74712619Y7704762D01*
X74712619Y7704762D02*
X74760238Y7609524D01*
X74760238Y7609524D02*
X74807857Y7561905D01*
X74807857Y7561905D02*
X74903095Y7514286D01*
X74903095Y7514286D02*
X74998333Y7514286D01*
X74998333Y7514286D02*
X75141190Y7561905D01*
X75141190Y7561905D02*
X75712619Y8133333D01*
X75712619Y8133333D02*
X75712619Y7514286D01*
%TO.C,C2*%
X65416666Y10932620D02*
X65464285Y10885000D01*
X65464285Y10885000D02*
X65607142Y10837381D01*
X65607142Y10837381D02*
X65702380Y10837381D01*
X65702380Y10837381D02*
X65845237Y10885000D01*
X65845237Y10885000D02*
X65940475Y10980239D01*
X65940475Y10980239D02*
X65988094Y11075477D01*
X65988094Y11075477D02*
X66035713Y11265953D01*
X66035713Y11265953D02*
X66035713Y11408810D01*
X66035713Y11408810D02*
X65988094Y11599286D01*
X65988094Y11599286D02*
X65940475Y11694524D01*
X65940475Y11694524D02*
X65845237Y11789762D01*
X65845237Y11789762D02*
X65702380Y11837381D01*
X65702380Y11837381D02*
X65607142Y11837381D01*
X65607142Y11837381D02*
X65464285Y11789762D01*
X65464285Y11789762D02*
X65416666Y11742143D01*
X65035713Y11742143D02*
X64988094Y11789762D01*
X64988094Y11789762D02*
X64892856Y11837381D01*
X64892856Y11837381D02*
X64654761Y11837381D01*
X64654761Y11837381D02*
X64559523Y11789762D01*
X64559523Y11789762D02*
X64511904Y11742143D01*
X64511904Y11742143D02*
X64464285Y11646905D01*
X64464285Y11646905D02*
X64464285Y11551667D01*
X64464285Y11551667D02*
X64511904Y11408810D01*
X64511904Y11408810D02*
X65083332Y10837381D01*
X65083332Y10837381D02*
X64464285Y10837381D01*
%TO.C,R4*%
X65366666Y12287381D02*
X65699999Y12763572D01*
X65938094Y12287381D02*
X65938094Y13287381D01*
X65938094Y13287381D02*
X65557142Y13287381D01*
X65557142Y13287381D02*
X65461904Y13239762D01*
X65461904Y13239762D02*
X65414285Y13192143D01*
X65414285Y13192143D02*
X65366666Y13096905D01*
X65366666Y13096905D02*
X65366666Y12954048D01*
X65366666Y12954048D02*
X65414285Y12858810D01*
X65414285Y12858810D02*
X65461904Y12811191D01*
X65461904Y12811191D02*
X65557142Y12763572D01*
X65557142Y12763572D02*
X65938094Y12763572D01*
X64509523Y12954048D02*
X64509523Y12287381D01*
X64747618Y13335000D02*
X64985713Y12620715D01*
X64985713Y12620715D02*
X64366666Y12620715D01*
D13*
%TO.C,J1*%
X85430000Y3750000D02*
X80230000Y3750000D01*
X85430000Y8890000D02*
X85430000Y3750000D01*
X85430000Y8890000D02*
X82830000Y8890000D01*
X85430000Y10160000D02*
X85430000Y11490000D01*
X85430000Y11490000D02*
X84100000Y11490000D01*
X82830000Y8890000D02*
X82830000Y11490000D01*
X82830000Y11490000D02*
X80230000Y11490000D01*
X80230000Y11490000D02*
X80230000Y3750000D01*
%TO.C,U1*%
X68134760Y4500760D02*
X68134760Y4975760D01*
X67659760Y4500760D02*
X68134760Y4500760D01*
X67659760Y8720760D02*
X68134760Y8720760D01*
X64389760Y4500760D02*
X63914760Y4500760D01*
X64389760Y8720760D02*
X63914760Y8720760D01*
X63914760Y4500760D02*
X63914760Y4975760D01*
X63914760Y8720760D02*
X63914760Y8245760D01*
%TO.C,C1*%
X30221300Y11437500D02*
X30221300Y10650000D01*
X29827550Y11043750D02*
X30615050Y11043750D01*
X34414363Y10410000D02*
X33128800Y10410000D01*
X34414363Y10410000D02*
X35478800Y9345563D01*
X29723237Y10410000D02*
X31008800Y10410000D01*
X29723237Y10410000D02*
X28658800Y9345563D01*
X35478800Y9345563D02*
X35478800Y3590000D01*
X28658800Y9345563D02*
X28658800Y3590000D01*
X35478800Y3590000D02*
X33128800Y3590000D01*
X28658800Y3590000D02*
X31008800Y3590000D01*
%TO.C,R1*%
X73177500Y5587742D02*
X73177500Y6062258D01*
X74222500Y5587742D02*
X74222500Y6062258D01*
%TO.C,R2*%
X75772500Y6062258D02*
X75772500Y5587742D01*
X74727500Y6062258D02*
X74727500Y5587742D01*
%TO.C,C2*%
X67915580Y9840000D02*
X67634420Y9840000D01*
X67915580Y10860000D02*
X67634420Y10860000D01*
%TO.C,R4*%
X67562742Y12472500D02*
X68037258Y12472500D01*
X67562742Y11427500D02*
X68037258Y11427500D01*
%TD*%
%LPC*%
D14*
%TO.C,H2*%
X100000000Y7000000D03*
%TD*%
%TO.C,H1*%
X15000000Y7000000D03*
%TD*%
D15*
%TO.C,SW7*%
X105017500Y9504400D03*
X111517500Y9504400D03*
X105017500Y5004400D03*
X111517500Y5004400D03*
%TD*%
%TO.C,SW4*%
X54217500Y9504400D03*
X60717500Y9504400D03*
X54217500Y5004400D03*
X60717500Y5004400D03*
%TD*%
%TO.C,SW3*%
X37284202Y9504398D03*
X43784202Y9504398D03*
X37284202Y5004398D03*
X43784202Y5004398D03*
%TD*%
%TO.C,SW2*%
X20350833Y9504400D03*
X26850833Y9504400D03*
X20350833Y5004400D03*
X26850833Y5004400D03*
%TD*%
%TO.C,SW1*%
X3417500Y9504400D03*
X9917500Y9504400D03*
X3417500Y5004400D03*
X9917500Y5004400D03*
%TD*%
%TO.C,SW6*%
X88084167Y9504400D03*
X94584167Y9504400D03*
X88084167Y5004400D03*
X94584167Y5004400D03*
%TD*%
%TO.C,SW5*%
X71150833Y9504400D03*
X77650833Y9504400D03*
X71150833Y5004400D03*
X77650833Y5004400D03*
%TD*%
D16*
%TO.C,J1*%
X84100000Y10160000D03*
D17*
X81560000Y10160000D03*
X84100000Y7620000D03*
X81560000Y7620000D03*
X84100000Y5080000D03*
X81560000Y5080000D03*
%TD*%
D18*
%TO.C,U1*%
X68012260Y7860760D03*
X68012260Y7360760D03*
X68012260Y6860760D03*
X68012260Y6360760D03*
X68012260Y5860760D03*
X68012260Y5360760D03*
D19*
X67274760Y4623260D03*
X66774760Y4623260D03*
X66274760Y4623260D03*
X65774760Y4623260D03*
X65274760Y4623260D03*
X64774760Y4623260D03*
D18*
X64037260Y5360760D03*
X64037260Y5860760D03*
X64037260Y6360760D03*
X64037260Y6860760D03*
X64037260Y7360760D03*
X64037260Y7860760D03*
D19*
X64774760Y8598260D03*
X65274760Y8598260D03*
X65774760Y8598260D03*
X66274760Y8598260D03*
X66774760Y8598260D03*
X67274760Y8598260D03*
D20*
X66024760Y6610760D03*
%TD*%
D21*
%TO.C,C1*%
X32068800Y9800000D03*
X32068800Y4200000D03*
%TD*%
D22*
%TO.C,R1*%
X73700000Y5000000D03*
X73700000Y6650000D03*
%TD*%
D23*
%TO.C,R2*%
X75250000Y6650000D03*
X75250000Y5000000D03*
%TD*%
D24*
%TO.C,C2*%
X68550000Y10350000D03*
X67000000Y10350000D03*
%TD*%
D25*
%TO.C,R4*%
X66975000Y11950000D03*
X68625000Y11950000D03*
%TD*%
M02*
