M48
; DRILL file {KiCad 7.0.1} date Wed Jul 19 18:18:49 2023
; FORMAT={-:-/ absolute / inch / decimal}
; #@! TF.CreationDate,2023-07-19T18:18:49-06:00
; #@! TF.GenerationSoftware,Kicad,Pcbnew,7.0.1
; #@! TF.FileFunction,Plated,1,2,PTH
FMAT,2
INCH
; #@! TA.AperFunction,Plated,PTH,ViaDrill
T1C0.0157
; #@! TA.AperFunction,Plated,PTH,ComponentDrill
T2C0.0394
; #@! TA.AperFunction,Plated,PTH,ComponentDrill
T3C0.0433
%
G90
G05
T1
X0.0656Y0.4446
X0.2106Y0.1575
X0.2579Y0.4961
X0.4646Y0.1043
X0.6634Y0.4646
X0.8819Y0.1024
X0.9823Y0.4055
X1.1339Y0.1024
X1.2047Y0.1654
X1.313Y0.1654
X1.3327Y0.4626
X1.5551Y0.1043
X1.6594Y0.4094
X1.8071Y0.1024
X1.9469Y0.4626
X2.2165Y0.1063
X2.313Y0.4114
X2.4665Y0.1024
X2.5017Y0.3425
X2.5138Y0.3799
X2.5728Y0.4646
X2.7185Y0.3642
X2.7515Y0.2723
X2.787Y0.3078
X2.8839Y0.0993
X2.9331Y0.1614
X2.9811Y0.4941
X3.1436Y0.0993
X3.3878Y0.4783
X3.5453Y0.1063
X3.6083Y0.4961
X3.815Y0.1043
X3.8917Y0.1398
X3.9902Y0.4646
X4.0059Y0.1398
X4.2126Y0.1083
X4.3189Y0.4154
X4.4606Y0.1319
T2
X3.211Y0.4
X3.211Y0.3
X3.211Y0.2
X3.311Y0.4
X3.311Y0.3
X3.311Y0.2
T3
X0.1345Y0.3742
X0.1345Y0.197
X0.3905Y0.3742
X0.3905Y0.197
X0.8012Y0.3742
X0.8012Y0.197
X1.0571Y0.3742
X1.0571Y0.197
X1.4679Y0.3742
X1.4679Y0.197
X1.7238Y0.3742
X1.7238Y0.197
X2.1345Y0.3742
X2.1345Y0.197
X2.3905Y0.3742
X2.3905Y0.197
X2.8012Y0.3742
X2.8012Y0.197
X3.0571Y0.3742
X3.0571Y0.197
X3.4679Y0.3742
X3.4679Y0.197
X3.7238Y0.3742
X3.7238Y0.197
X4.1345Y0.3742
X4.1345Y0.197
X4.3905Y0.3742
X4.3905Y0.197
T0
M30
