<?xml version="1.0" encoding="utf-8"?>
<!-- Generator: Fusion 360, Shaper Origin Export Add-In, Version 1.6.10  -->
<svg xmlns="http://www.w3.org/2000/svg" xmlns:xlink="http://www.w3.org/1999/xlink" xmlns:shaper="http://www.shapertools.com/namespaces/shaper" shaper:fusionaddin="version:1.6.10" width="12.7cm" height="3.6576cm" version="1.1" x="0cm" y="0cm" viewBox="0 0 12.7 3.6576" enable-background="new 0 0 12.7 3.6576" xml:space="preserve"><path d="M6.35,-2.58445 L6.35,-0.83185 5.08,1.07315 -5.08,1.07315 -6.35,-0.83185 -6.35,-2.58445 6.35,-2.58445z" transform="matrix(1,0,0,-1,6.35,1.07315)" fill="rgb(0,0,0)" shaper:cutDepth="0.0015875" stroke-linecap="round" stroke-linejoin="round" /><path d="M-3.5101905,-0.1461051 L-3.6689405,-0.4210682 -3.7129345,-0.3956682 -3.5541845,-0.1207051 -3.5101905,-0.1461051z" transform="matrix(1,0,0,-1,6.35,1.07315)" fill="rgb(104,104,104)" fill-rule="nonzero" shaper:cutDepth="0.0000762" stroke-linecap="round" stroke-linejoin="round" /><path d="M-3.5541845,-1.1084758 L-3.7129345,-0.8335128 -3.6689405,-0.8081128 -3.5101905,-1.0830758 -3.5541845,-1.1084758z" transform="matrix(1,0,0,-1,6.35,1.07315)" fill="rgb(104,104,104)" fill-rule="nonzero" shaper:cutDepth="0.0000762" stroke-linecap="round" stroke-linejoin="round" /><path d="M-4.365625,-0.5891905 L-4.048125,-0.5891905 -4.048125,-0.6399905 -4.365625,-0.6399905 -4.365625,-0.5891905z" transform="matrix(1,0,0,-1,6.35,1.07315)" fill="rgb(104,104,104)" fill-rule="nonzero" shaper:cutDepth="0.0000762" stroke-linecap="round" stroke-linejoin="round" /><path d="M-5.1185062,-0.8974923 L-5.1184242,-1.1026372 -5.1184242,-1.1026372 -5.1190855,-1.1141504 -5.1203349,-1.1195363 -5.1226869,-1.1244773 -5.1263752,-1.1287413 -5.131096,-1.1317585 -5.1364349,-1.1331473 -5.1420713,-1.1335918 -5.1420713,-1.1335918 -5.1476984,-1.1332196 -5.1529999,-1.1318562 -5.1576372,-1.1287898 -5.1612199,-1.1244563 -5.1634738,-1.1194846 -5.1646366,-1.1141075 -5.1651434,-1.1026776 -5.1650614,-0.8922772 -5.1650614,-0.8922772 -5.1603839,-0.8656497 -5.1574993,-0.8526209 -5.1539596,-0.839934 -5.1495465,-0.8277031 -5.1440417,-0.8160421 -5.1372267,-0.805065 -5.1289576,-0.7948971 -5.1193915,-0.78571 -5.1087613,-0.7776869 -5.0973003,-0.7710108 -5.0852388,-0.7658533 -5.0727465,-0.7621247 -5.0599332,-0.759476 -5.0337712,-0.7559784 -5.0337712,-0.7559784 -5.0137458,-0.7588344 -4.9943796,-0.7627405 -4.9851496,-0.7654156 -4.9763316,-0.7687471 -4.968008,-0.7728663 -4.9602415,-0.7778733 -4.9529974,-0.7837126 -4.9462105,-0.7902801 -4.9398153,-0.797472 -4.9337466,-0.805184 -4.9223274,-0.8217526 -4.9114307,-0.8391535 -4.9114307,-0.8391535 -4.9071886,-0.8526705 -4.9042327,-0.866399 -4.903137,-0.8804334 -4.9030557,-0.8946346 -4.9029736,-1.1066604 -4.9029736,-1.1066604 -4.9041747,-1.1171433 -4.9056455,-1.1216919 -4.9081537,-1.1254147 -4.9117761,-1.1282506 -4.9162507,-1.1304079 -4.9266206,-1.1335918 -4.9266206,-1.1335918 -4.9372702,-1.1311538 -4.9416739,-1.1290714 -4.9449861,-1.1259657 -4.9471658,-1.1217983 -4.9484857,-1.116825 -4.9496929,-1.1055353 -4.9496929,-0.8957257 -4.9496929,-0.8957257 -4.9496604,-0.8828165 -4.9511792,-0.8702 -4.9549519,-0.8580091 -4.9599564,-0.8460506 -4.9599564,-0.8460506 -4.9667012,-0.8367077 -4.9737922,-0.8279106 -4.9815753,-0.8202049 -4.9903862,-0.8141196 -5.0002754,-0.8097345 -5.0109849,-0.806643 -5.0337712,-0.8026156 -5.0337712,-0.8026156 -5.0466309,-0.8043204 -5.0590748,-0.8067022 -5.0706874,-0.8104382 -5.076052,-0.8130255 -5.0810651,-0.8161856 -5.0901429,-0.8240501 -5.0982312,-0.8335262 -5.1056599,-0.8440768 -5.1127588,-0.8551645 -5.1127588,-0.8551645 -5.1157876,-0.8655094 -5.1178624,-0.8759963 -5.1185596,-0.8866884 -5.1185062,-0.8974923z" transform="matrix(1,0,0,-1,6.35,1.07315)" fill="rgb(104,104,104)" fill-rule="nonzero" shaper:cutDepth="0.0000762" stroke-linecap="round" stroke-linejoin="round" /><path d="M-1.5693443,-1.7786678 L-1.5693443,-1.7786678 -1.5720522,-1.7878744 -1.5740688,-1.791821 -1.5768721,-1.7949882 -1.5804994,-1.7973389 -1.5847532,-1.7990688 -1.594305,-1.8014938 -1.594305,-1.8014938 -1.6013119,-1.8003871 -1.6044598,-1.7993176 -1.6071855,-1.7976351 -1.6114161,-1.7924975 -1.6147498,-1.7860575 -1.6147498,-1.7860575 -1.6208693,-1.7729754 -1.6275765,-1.760599 -1.6354591,-1.7496339 -1.6400248,-1.7449012 -1.6450893,-1.7407674 -1.6506241,-1.7371982 -1.6565703,-1.7341231 -1.6694619,-1.7291728 -1.6832941,-1.7253519 -1.6975965,-1.7220956 -1.6975965,-1.7220956 -1.7143247,-1.7256342 -1.7304648,-1.7302319 -1.7381306,-1.7332588 -1.7454289,-1.7369476 -1.7522861,-1.7414308 -1.7586236,-1.746794 -1.7643425,-1.7529411 -1.7693389,-1.7597311 -1.7735089,-1.767023 -1.7767556,-1.7746775 -1.7791377,-1.7825921 -1.7808664,-1.7907007 -1.7832348,-1.8072413 -1.7832348,-1.8072413 -1.7814123,-1.8200086 -1.7789446,-1.8323901 -1.7751866,-1.844 -1.772622,-1.849395 -1.769512,-1.8544637 -1.7618214,-1.8637219 -1.7525965,-1.8720625 -1.7315891,-1.8872142 -1.7315891,-1.8872142 -1.7175312,-1.8909724 -1.7033116,-1.8935116 -1.6888584,-1.8942909 -1.6742779,-1.8941112 -1.6742779,-1.8941112 -1.6605358,-1.8945073 -1.6471003,-1.8975598 -1.6471003,-1.8975598 -1.6432385,-1.9002426 -1.6402354,-1.9035291 -1.6384818,-1.9076939 -1.6374115,-1.9123392 -1.6374115,-1.9123392 -1.6390126,-1.9188547 -1.6416206,-1.9248154 -1.6456741,-1.9299796 -1.650513,-1.9347109 -1.7231578,-2.0072974 -1.6294471,-2.0072557 -1.6294471,-2.0072557 -1.6173354,-2.0075692 -1.6115468,-2.008639 -1.6060789,-2.0108045 -1.6011704,-2.0143268 -1.5976067,-2.0190356 -1.5959658,-2.0246201 -1.5954545,-2.0306564 -1.5954545,-2.0306564 -1.5959599,-2.0361508 -1.5974243,-2.0412945 -1.6005322,-2.0457412 -1.6048455,-2.0491615 -1.6097404,-2.0513414 -1.6149961,-2.0525083 -1.6261089,-2.0531538 -1.7634469,-2.0530718 -1.7634469,-2.0530718 -1.773954,-2.0529364 -1.7843843,-2.0515938 -1.7843843,-2.0515938 -1.7910101,-2.0479409 -1.7938468,-2.0457411 -1.7961178,-2.0430979 -1.7990224,-2.0365277 -1.8007238,-2.0290142 -1.8007238,-2.0290142 -1.7990626,-2.0219872 -1.7963761,-2.0154907 -1.7922144,-2.0097576 -1.7872502,-2.0044396 -1.7225572,-1.9398452 -1.7225572,-1.9398452 -1.744233,-1.9310652 -1.7650092,-1.9211157 -1.774779,-1.9153368 -1.7839865,-1.9088271 -1.7925194,-1.9014402 -1.8002715,-1.8930826 -1.8071614,-1.8838695 -1.8131138,-1.8739676 -1.8180534,-1.8635438 -1.8219118,-1.8527626 -1.8247768,-1.8417375 -1.8268919,-1.8305311 -1.829872,-1.8078161 -1.829872,-1.8078161 -1.8243733,-1.7817769 -1.821103,-1.7690518 -1.8172077,-1.75668 -1.812479,-1.7447794 -1.8067084,-1.7334676 -1.7996877,-1.7228624 -1.7912831,-1.7130876 -1.7816517,-1.7042903 -1.7710218,-1.6966233 -1.7596214,-1.6902391 -1.7476759,-1.68528 -1.7353462,-1.6816517 -1.7227304,-1.6790288 -1.6970217,-1.6754584 -1.6970217,-1.6754584 -1.6772191,-1.6783854 -1.6580508,-1.6823336 -1.6489028,-1.6850098 -1.6401513,-1.6883242 -1.6318757,-1.6924046 -1.6241358,-1.6973475 -1.6168975,-1.7030979 -1.6100983,-1.709555 -1.597566,-1.7241854 -1.586037,-1.7404309 -1.5750097,-1.757484 -1.5750097,-1.757484 -1.5710822,-1.7677686 -1.5693443,-1.7786678z" transform="matrix(1,0,0,-1,6.35,1.07315)" fill="rgb(104,104,104)" fill-rule="nonzero" shaper:cutDepth="0.0000762" stroke-linecap="round" stroke-linejoin="round" /><path d="M1.5815089,-0.3495784 L1.5815089,-0.3495784 1.5889253,-0.3509294 1.5923736,-0.3520563 1.5955135,-0.3537186 1.6009066,-0.3585831 1.6056487,-0.3645782 1.774462,-0.6253497 1.774462,-0.3765098 1.774462,-0.3765098 1.7758525,-0.3661666 1.7773836,-0.3616625 1.779911,-0.3579539 1.783507,-0.3550987 1.7879203,-0.352896 1.798109,-0.3495784 1.798109,-0.3495784 1.8043382,-0.3504336 1.8099493,-0.3524931 1.8146615,-0.3563045 1.8188822,-0.3610735 1.8188822,-0.3610735 1.8209928,-0.3704156 1.8210992,-0.3800186 1.8211812,-0.6979614 1.8211812,-0.6979614 1.8210324,-0.7057085 1.8200317,-0.7133977 1.8200317,-0.7133977 1.8164505,-0.7190861 1.8143569,-0.7215093 1.8119038,-0.7234331 1.8059615,-0.725841 1.7992585,-0.7271918 1.7992585,-0.7271918 1.7916672,-0.7256748 1.7881604,-0.7244454 1.7849959,-0.7226576 1.7796485,-0.717481 1.7750214,-0.7111298 1.6056487,-0.4520739 1.6057306,-0.6969761 1.6057306,-0.6969761 1.6053507,-0.7084643 1.6041475,-0.7134879 1.6017346,-0.717651 1.5980033,-0.7208764 1.5932593,-0.7233817 1.5820836,-0.7271918 1.5820836,-0.7271918 1.5713837,-0.7248064 1.5669651,-0.7227388 1.56365,-0.7196348 1.5614782,-0.7154569 1.560174,-0.7104642 1.5590114,-0.6991206 1.5590934,-0.375935 1.5590934,-0.375935 1.5602112,-0.3658749 1.5615976,-0.3614851 1.5639707,-0.3578587 1.5674063,-0.3550545 1.5716553,-0.3528796 1.5815089,-0.3495784z" transform="matrix(1,0,0,-1,6.35,1.07315)" fill="rgb(104,104,104)" fill-rule="nonzero" shaper:cutDepth="0.0000762" stroke-linecap="round" stroke-linejoin="round" /><path d="M1.1484729,-0.7875897 L1.1484729,-1.0870365 1.2251614,-1.0869546 1.2251614,-1.0869546 1.2364194,-1.0879034 1.2413585,-1.0893186 1.2454746,-1.0918558 1.2487027,-1.0956039 1.2512506,-1.1002795 1.2552128,-1.1111764 1.2552128,-1.1111764 1.2545683,-1.1169369 1.2528391,-1.1222023 1.2492762,-1.1265394 1.2444696,-1.1297623 1.2392002,-1.1318208 1.2336867,-1.132953 1.2222528,-1.1336738 1.0241618,-1.1335918 1.0241618,-1.1335918 1.0130275,-1.1325991 1.0081507,-1.1311733 1.004097,-1.1286391 1.0009307,-1.1249099 0.9984439,-1.1202657 0.994603,-1.1094521 0.994603,-1.1094521 0.9952379,-1.1039472 0.9968281,-1.0988234 1.0000501,-1.094443 1.0044513,-1.0910931 1.0093985,-1.088943 1.0146769,-1.0877666 1.0257856,-1.0870365 1.1018356,-1.0870365 1.1018356,-0.7847161 1.1018356,-0.7847161 1.102104,-0.7762719 1.1041347,-0.7680483 1.1041347,-0.7680483 1.1080723,-0.7628706 1.1128097,-0.7589844 1.1187065,-0.7569704 1.1252363,-0.7559784 1.1252363,-0.7559784 1.132686,-0.7573043 1.1360818,-0.7584705 1.1390863,-0.760235 1.1439534,-0.7655107 1.1479802,-0.7720715 1.1479802,-0.7720715 1.1485499,-0.7798187 1.1484729,-0.7875897z" transform="matrix(1,0,0,-1,6.35,1.07315)" fill="rgb(104,104,104)" fill-rule="nonzero" shaper:cutDepth="0.0000762" stroke-linecap="round" stroke-linejoin="round" /><path d="M-2.46634,-2.17043 L-4.37134,-2.17043 -4.37134,-2.17043 -4.4021541,-2.1688115 -4.4175055,-2.1671543 -4.4327814,-2.1646594 -4.4479419,-2.161343 -4.4629465,-2.157229 -4.477755,-2.1523416 -4.4923272,-2.1467046 -4.5066228,-2.1403422 -4.5206014,-2.1332783 -4.5342227,-2.1255371 -4.5474466,-2.1171423 -4.5602326,-2.1081182 -4.5725461,-2.0984894 -4.5843627,-2.0882816 -4.5956594,-2.077521 -4.6064133,-2.0662336 -4.6166015,-2.0544454 -4.6262008,-2.0421824 -4.6351883,-2.0294706 -4.6435411,-2.0163361 -4.6512362,-2.0028048 -4.6582505,-1.9889029 -4.6645637,-1.9746585 -4.6701655,-1.9601093 -4.6750484,-1.9452952 -4.6792049,-1.9302559 -4.6826274,-1.9150315 -4.6853084,-1.8996617 -4.6872402,-1.8841866 -4.6884154,-1.8686458 -4.6888263,-1.8530795 -4.6884655,-1.8375273 -4.6873267,-1.8220286 -4.6854155,-1.8066156 -4.6827437,-1.7913176 -4.6793229,-1.7761635 -4.6751651,-1.7611823 -4.6702819,-1.746403 -4.6646851,-1.7318547 -4.6583866,-1.7175664 -4.6513981,-1.7035671 -4.6437314,-1.6898857 -4.6353985,-1.6765519 -4.6264192,-1.663606 -4.6168208,-1.6510996 -4.6066309,-1.6390847 -4.5958772,-1.6276132 -4.5845873,-1.6167373 -4.5727889,-1.6065089 -4.5605096,-1.59698 -4.5477771,-1.5882027 -4.5346189,-1.5802288 -4.5210629,-1.5731101 -4.5071394,-1.5668545 -4.4928848,-1.5613844 -4.4783357,-1.5566126 -4.463529,-1.5524518 -4.4332901,-1.5456141 -4.4024622,-1.5401729 -4.37134,-1.53543 -2.46634,-1.53543 -2.46634,-1.53543 -2.4355259,-1.5370485 -2.4201745,-1.5387057 -2.4048986,-1.5412006 -2.3897381,-1.544517 -2.3747335,-1.548631 -2.359925,-1.5535184 -2.3453528,-1.5591554 -2.3310572,-1.5655178 -2.3170786,-1.5725817 -2.3034573,-1.5803229 -2.2902334,-1.5887177 -2.2774474,-1.5977418 -2.2651339,-1.6073706 -2.2533173,-1.6175784 -2.2420206,-1.628339 -2.2312667,-1.6396264 -2.2210785,-1.6514146 -2.2114792,-1.6636776 -2.2024917,-1.6763894 -2.1941389,-1.6895239 -2.1864438,-1.7030552 -2.1794295,-1.7169571 -2.1731163,-1.7312015 -2.1675145,-1.7457507 -2.1626316,-1.7605648 -2.1584751,-1.7756041 -2.1550526,-1.7908285 -2.1523716,-1.8061983 -2.1504398,-1.8216734 -2.1492646,-1.8372142 -2.1488537,-1.8527805 -2.1492145,-1.8683327 -2.1503533,-1.8838314 -2.1522645,-1.8992444 -2.1549363,-1.9145424 -2.1583571,-1.9296965 -2.1625149,-1.9446777 -2.1673981,-1.959457 -2.1729949,-1.9740053 -2.1792934,-1.9882936 -2.1862819,-2.0022929 -2.1939486,-2.0159743 -2.2022815,-2.0293081 -2.2112608,-2.042254 -2.2208592,-2.0547604 -2.2310491,-2.0667753 -2.2418028,-2.0782468 -2.2530927,-2.0891227 -2.2648911,-2.0993511 -2.2771704,-2.10888 -2.2899029,-2.1176573 -2.3030611,-2.1256312 -2.3166171,-2.1327499 -2.3305406,-2.1390055 -2.3447952,-2.1444756 -2.3593443,-2.1492474 -2.374151,-2.1534082 -2.4043899,-2.1602459 -2.4352178,-2.1656871 -2.46634,-2.17043z" transform="matrix(1,0,0,-1,6.35,1.07315)" fill="rgb(104,104,104)" fill-rule="nonzero" shaper:cutDepth="0.0000762" stroke-linecap="round" stroke-linejoin="round" /><path d="M-2.46634,0.02413 L-4.37134,0.02413 -4.37134,0.02413 -4.4021541,0.0257485 -4.4175055,0.0274057 -4.4327814,0.0299006 -4.4479419,0.033217 -4.4629465,0.037331 -4.477755,0.0422184 -4.4923272,0.0478554 -4.5066228,0.0542178 -4.5206014,0.0612817 -4.5342227,0.0690229 -4.5474466,0.0774177 -4.5602326,0.0864418 -4.5725461,0.0960706 -4.5843627,0.1062784 -4.5956594,0.117039 -4.6064133,0.1283264 -4.6166015,0.1401146 -4.6262008,0.1523776 -4.6351883,0.1650894 -4.6435411,0.1782239 -4.6512362,0.1917552 -4.6582505,0.2056571 -4.6645637,0.2199015 -4.6701655,0.2344507 -4.6750484,0.2492648 -4.6792049,0.2643041 -4.6826274,0.2795285 -4.6853084,0.2948983 -4.6872402,0.3103734 -4.6884154,0.3259142 -4.6888263,0.3414805 -4.6884655,0.3570327 -4.6873267,0.3725314 -4.6854155,0.3879444 -4.6827437,0.4032424 -4.6793229,0.4183965 -4.6751651,0.4333777 -4.6702819,0.448157 -4.6646851,0.4627053 -4.6583866,0.4769936 -4.6513981,0.4909929 -4.6437314,0.5046743 -4.6353985,0.5180081 -4.6264192,0.530954 -4.6168208,0.5434604 -4.6066309,0.5554753 -4.5958772,0.5669468 -4.5845873,0.5778227 -4.5727889,0.5880511 -4.5605096,0.59758 -4.5477771,0.6063573 -4.5346189,0.6143312 -4.5210629,0.6214499 -4.5071394,0.6277055 -4.4928848,0.6331756 -4.4783357,0.6379474 -4.463529,0.6421082 -4.4332901,0.6489459 -4.4024622,0.6543871 -4.37134,0.65913 -2.46634,0.65913 -2.46634,0.65913 -2.4355259,0.6575115 -2.4201745,0.6558543 -2.4048986,0.6533594 -2.3897381,0.650043 -2.3747335,0.645929 -2.359925,0.6410416 -2.3453528,0.6354046 -2.3310572,0.6290422 -2.3170786,0.6219783 -2.3034573,0.6142371 -2.2902334,0.6058423 -2.2774474,0.5968182 -2.2651339,0.5871894 -2.2533173,0.5769816 -2.2420206,0.566221 -2.2312667,0.5549336 -2.2210785,0.5431454 -2.2114792,0.5308824 -2.2024917,0.5181706 -2.1941389,0.5050361 -2.1864438,0.4915048 -2.1794295,0.4776029 -2.1731163,0.4633585 -2.1675145,0.4488093 -2.1626316,0.4339952 -2.1584751,0.4189559 -2.1550526,0.4037315 -2.1523716,0.3883617 -2.1504398,0.3728866 -2.1492646,0.3573458 -2.1488537,0.3417795 -2.1492145,0.3262273 -2.1503533,0.3107286 -2.1522645,0.2953156 -2.1549363,0.2800176 -2.1583571,0.2648635 -2.1625149,0.2498823 -2.1673981,0.235103 -2.1729949,0.2205547 -2.1792934,0.2062664 -2.1862819,0.1922671 -2.1939486,0.1785857 -2.2022815,0.1652519 -2.2112608,0.152306 -2.2208592,0.1397996 -2.2310491,0.1277847 -2.2418028,0.1163132 -2.2530927,0.1054373 -2.2648911,0.0952089 -2.2771704,0.08568 -2.2899029,0.0769027 -2.3030611,0.0689288 -2.3166171,0.0618101 -2.3305406,0.0555545 -2.3447952,0.0500844 -2.3593443,0.0453126 -2.374151,0.0411518 -2.4043899,0.0343141 -2.4352178,0.0288729 -2.46634,0.02413z" transform="matrix(1,0,0,-1,6.35,1.07315)" fill="rgb(104,104,104)" fill-rule="nonzero" shaper:cutDepth="0.0000762" stroke-linecap="round" stroke-linejoin="round" /><path d="M5.0602748,0.3164097 L5.0602748,0.4041508 5.0228337,0.4041508 5.0228337,0.4041508 5.0147909,0.4043931 5.0069869,0.4064498 5.0069869,0.4064498 5.0012443,0.4102134 4.9987846,0.4123907 4.9968133,0.4149187 4.9942802,0.4209866 4.9927823,0.4277978 4.9927823,0.4277978 4.9938213,0.4341517 4.9961023,0.4398129 5.000189,0.4444672 5.0052627,0.4485711 5.0052627,0.4485711 5.015052,0.4506701 5.0250875,0.450788 5.0602748,0.450788 5.0602748,0.4863406 5.0602748,0.4863406 5.0605822,0.4978259 5.0615672,0.5033517 5.0635497,0.5086174 5.0667789,0.5134007 5.0711547,0.5169123 5.0764376,0.5185576 5.0821976,0.5191016 5.0821976,0.5191016 5.0894652,0.5181172 5.0928193,0.5171385 5.0958407,0.5155813 5.1009124,0.5107782 5.1052698,0.5047327 5.1052698,0.5047327 5.1069411,0.4959026 5.1069121,0.4868958 5.1069121,0.450788 5.2409118,0.4508701 5.2409118,0.4508701 5.2526641,0.4506314 5.2641483,0.4479963 5.2641483,0.4479963 5.2691278,0.444221 5.2729094,0.4396836 5.2749553,0.434042 5.2760539,0.4277978 5.2760539,0.4277978 5.2749139,0.4202491 5.2720655,0.4131391 5.2703629,0.4086437 5.1829621,0.1615726 5.1818763,0.1593056 5.1818763,0.1593056 5.1787514,0.1520811 5.1767386,0.1489849 5.1741901,0.1465026 5.1710741,0.1446706 5.1675255,0.1433344 5.1597073,0.1414882 5.1597073,0.1414882 5.1504575,0.1434321 5.1463924,0.1450848 5.1429934,0.1475476 5.140302,0.1508708 5.1381503,0.1548504 5.1347465,0.1639036 5.1347465,0.1639036 5.1360056,0.170587 5.1381266,0.1770563 5.1392617,0.1799236 5.218717,0.4041508 5.1069121,0.4041508 5.1063502,0.3192771 5.1069941,0.3164598 5.1069941,0.3164598 5.105536,0.3063432 5.1039753,0.3019704 5.1014261,0.2984125 5.0978335,0.2957146 5.0934462,0.2936718 5.0833471,0.2906779 5.0833471,0.2906779 5.0734925,0.2930369 5.0693274,0.2949762 5.0660686,0.2978191 5.0637682,0.3016174 5.062198,0.3061437 5.0602748,0.3164097z" transform="matrix(1,0,0,-1,6.35,1.07315)" fill="rgb(104,104,104)" fill-rule="nonzero" shaper:cutDepth="0.0000762" stroke-linecap="round" stroke-linejoin="round" /><path d="M4.37134,0.02413 L2.46634,0.02413 2.46634,0.02413 2.4355259,0.0257485 2.4201745,0.0274057 2.4048986,0.0299006 2.3897381,0.033217 2.3747335,0.037331 2.359925,0.0422184 2.3453528,0.0478554 2.3310572,0.0542178 2.3170786,0.0612817 2.3034573,0.0690229 2.2902334,0.0774177 2.2774474,0.0864418 2.2651339,0.0960706 2.2533173,0.1062784 2.2420206,0.117039 2.2312667,0.1283264 2.2210785,0.1401146 2.2114792,0.1523776 2.2024917,0.1650894 2.1941389,0.1782239 2.1864438,0.1917552 2.1794295,0.2056571 2.1731163,0.2199015 2.1675145,0.2344507 2.1626316,0.2492648 2.1584751,0.2643041 2.1550526,0.2795285 2.1523716,0.2948983 2.1504398,0.3103734 2.1492646,0.3259142 2.1488537,0.3414805 2.1492145,0.3570327 2.1503533,0.3725314 2.1522645,0.3879444 2.1549363,0.4032424 2.1583571,0.4183965 2.1625149,0.4333777 2.1673981,0.448157 2.1729949,0.4627053 2.1792934,0.4769936 2.1862819,0.4909929 2.1939486,0.5046743 2.2022815,0.5180081 2.2112608,0.530954 2.2208592,0.5434604 2.2310491,0.5554753 2.2418028,0.5669468 2.2530927,0.5778227 2.2648911,0.5880511 2.2771704,0.59758 2.2899029,0.6063573 2.3030611,0.6143312 2.3166171,0.6214499 2.3305406,0.6277055 2.3447952,0.6331756 2.3593443,0.6379474 2.374151,0.6421082 2.4043899,0.6489459 2.4352178,0.6543871 2.46634,0.65913 4.37134,0.65913 4.37134,0.65913 4.4021541,0.6575115 4.4175055,0.6558543 4.4327814,0.6533594 4.4479419,0.650043 4.4629465,0.645929 4.477755,0.6410416 4.4923272,0.6354046 4.5066228,0.6290422 4.5206014,0.6219783 4.5342227,0.6142371 4.5474466,0.6058423 4.5602326,0.5968182 4.5725461,0.5871894 4.5843627,0.5769816 4.5956594,0.566221 4.6064133,0.5549336 4.6166015,0.5431454 4.6262008,0.5308824 4.6351883,0.5181706 4.6435411,0.5050361 4.6512362,0.4915048 4.6582505,0.4776029 4.6645637,0.4633585 4.6701655,0.4488093 4.6750484,0.4339952 4.6792049,0.4189559 4.6826274,0.4037315 4.6853084,0.3883617 4.6872402,0.3728866 4.6884154,0.3573458 4.6888263,0.3417795 4.6884655,0.3262273 4.6873267,0.3107286 4.6854155,0.2953156 4.6827437,0.2800176 4.6793229,0.2648635 4.6751651,0.2498823 4.6702819,0.235103 4.6646851,0.2205547 4.6583866,0.2062664 4.6513981,0.1922671 4.6437314,0.1785857 4.6353985,0.1652519 4.6264192,0.152306 4.6168208,0.1397996 4.6066309,0.1277847 4.5958772,0.1163132 4.5845873,0.1054373 4.5727889,0.0952089 4.5605096,0.08568 4.5477771,0.0769027 4.5346189,0.0689288 4.5210629,0.0618101 4.5071394,0.0555545 4.4928848,0.0500844 4.4783357,0.0453126 4.463529,0.0411518 4.4332901,0.0343141 4.4024622,0.0288729 4.37134,0.02413z" transform="matrix(1,0,0,-1,6.35,1.07315)" fill="rgb(104,104,104)" fill-rule="nonzero" shaper:cutDepth="0.0000762" stroke-linecap="round" stroke-linejoin="round" /><path d="M0.9525,-2.17043 L-0.9525,-2.17043 -0.9525,-2.17043 -0.9833141,-2.1688115 -0.9986655,-2.1671543 -1.0139414,-2.1646594 -1.0291019,-2.161343 -1.0441065,-2.157229 -1.058915,-2.1523416 -1.0734872,-2.1467046 -1.0877828,-2.1403422 -1.1017614,-2.1332783 -1.1153827,-2.1255371 -1.1286066,-2.1171423 -1.1413926,-2.1081182 -1.1537061,-2.0984894 -1.1655227,-2.0882816 -1.1768194,-2.077521 -1.1875733,-2.0662336 -1.1977615,-2.0544454 -1.2073608,-2.0421824 -1.2163483,-2.0294706 -1.2247011,-2.0163361 -1.2323962,-2.0028048 -1.2394105,-1.9889029 -1.2457237,-1.9746585 -1.2513255,-1.9601093 -1.2562084,-1.9452952 -1.2603649,-1.9302559 -1.2637874,-1.9150315 -1.2664684,-1.8996617 -1.2684002,-1.8841866 -1.2695754,-1.8686458 -1.2699863,-1.8530795 -1.2696255,-1.8375273 -1.2684867,-1.8220286 -1.2665755,-1.8066156 -1.2639037,-1.7913176 -1.2604829,-1.7761635 -1.2563251,-1.7611823 -1.2514419,-1.746403 -1.2458451,-1.7318547 -1.2395466,-1.7175664 -1.2325581,-1.7035671 -1.2248914,-1.6898857 -1.2165585,-1.6765519 -1.2075792,-1.663606 -1.1979808,-1.6510996 -1.1877909,-1.6390847 -1.1770372,-1.6276132 -1.1657473,-1.6167373 -1.1539489,-1.6065089 -1.1416696,-1.59698 -1.1289371,-1.5882027 -1.1157789,-1.5802288 -1.1022229,-1.5731101 -1.0882994,-1.5668545 -1.0740448,-1.5613844 -1.0594957,-1.5566126 -1.044689,-1.5524518 -1.0144501,-1.5456141 -0.9836222,-1.5401729 -0.9525,-1.53543 0.9525,-1.53543 0.9525,-1.53543 0.9833141,-1.5370485 0.9986655,-1.5387057 1.0139414,-1.5412006 1.0291019,-1.544517 1.0441065,-1.548631 1.058915,-1.5535184 1.0734872,-1.5591554 1.0877828,-1.5655178 1.1017614,-1.5725817 1.1153827,-1.5803229 1.1286066,-1.5887177 1.1413926,-1.5977418 1.1537061,-1.6073706 1.1655227,-1.6175784 1.1768194,-1.628339 1.1875733,-1.6396264 1.1977615,-1.6514146 1.2073608,-1.6636776 1.2163483,-1.6763894 1.2247011,-1.6895239 1.2323962,-1.7030552 1.2394105,-1.7169571 1.2457237,-1.7312015 1.2513255,-1.7457507 1.2562084,-1.7605648 1.2603649,-1.7756041 1.2637874,-1.7908285 1.2664684,-1.8061983 1.2684002,-1.8216734 1.2695754,-1.8372142 1.2699863,-1.8527805 1.2696255,-1.8683327 1.2684867,-1.8838314 1.2665755,-1.8992444 1.2639037,-1.9145424 1.2604829,-1.9296965 1.2563251,-1.9446777 1.2514419,-1.959457 1.2458451,-1.9740053 1.2395466,-1.9882936 1.2325581,-2.0022929 1.2248914,-2.0159743 1.2165585,-2.0293081 1.2075792,-2.042254 1.1979808,-2.0547604 1.1877909,-2.0667753 1.1770372,-2.0782468 1.1657473,-2.0891227 1.1539489,-2.0993511 1.1416696,-2.10888 1.1289371,-2.1176573 1.1157789,-2.1256312 1.1022229,-2.1327499 1.0882994,-2.1390055 1.0740448,-2.1444756 1.0594957,-2.1492474 1.044689,-2.1534082 1.0144501,-2.1602459 0.9836222,-2.1656871 0.9525,-2.17043z" transform="matrix(1,0,0,-1,6.35,1.07315)" fill="rgb(104,104,104)" fill-rule="nonzero" shaper:cutDepth="0.0000762" stroke-linecap="round" stroke-linejoin="round" /><path d="M1.6061447,-0.7943955 L1.4847039,-1.1156923 1.4847039,-1.1156923 1.4812207,-1.1229638 1.4790474,-1.1260805 1.4763601,-1.1285792 1.4731249,-1.1304191 1.4694715,-1.1317561 1.4614674,-1.1335918 1.4614674,-1.1335918 1.4517531,-1.1317183 1.4474695,-1.1300457 1.4438654,-1.1275015 1.4409641,-1.1240556 1.438596,-1.1199257 1.4347484,-1.1105259 1.3121956,-0.7904637 1.3121956,-0.7904637 1.310656,-0.7840907 1.3098966,-0.7775728 1.3098966,-0.7775728 1.3126489,-0.7687248 1.3146569,-0.7649485 1.3174148,-0.7619411 1.3209568,-0.7597375 1.3250949,-0.758145 1.3343647,-0.7559784 1.3343647,-0.7559784 1.3425924,-0.7575103 1.3462754,-0.758874 1.3494474,-0.7609466 1.3520886,-0.7637557 1.3543266,-0.767124 1.3581308,-0.7747926 1.3745894,-0.8190371 1.5448506,-0.8190371 1.5630346,-0.7719894 1.5630346,-0.7719894 1.5668697,-0.7653054 1.5691597,-0.7624641 1.5718925,-0.7602181 1.5786484,-0.7574604 1.5863532,-0.7559784 1.5863532,-0.7559784 1.5954573,-0.757657 1.5994505,-0.7591876 1.6027784,-0.761541 1.6053986,-0.7647697 1.6074788,-0.7686663 1.6107392,-0.7775728 1.6107392,-0.7775728 1.6091667,-0.7861738 1.6061447,-0.7943955z M1.3933182,-0.8656743 L1.4602876,-1.0429607 1.527257,-0.8656743 1.3933182,-0.8656743z" transform="matrix(1,0,0,-1,6.35,1.07315)" fill="rgb(104,104,104)" fill-rule="nonzero" shaper:cutDepth="0.0000762" stroke-linecap="round" stroke-linejoin="round" /><path d="M1.2777103,-0.6140473 L1.2777103,-0.6140473 1.2859632,-0.6155622 1.289606,-0.6169469 1.2926756,-0.6190752 1.2951487,-0.6219771 1.2971688,-0.6254666 1.3004542,-0.6334248 1.3004542,-0.6334248 1.3039219,-0.6435427 1.3079119,-0.6530794 1.3129465,-0.6614536 1.3160188,-0.6650231 1.3195337,-0.6681 1.3277608,-0.6729213 1.3372375,-0.676352 1.347547,-0.6788558 1.3582731,-0.6808961 1.3611108,-0.6808961 1.389541,-0.6803083 1.389541,-0.6803083 1.4002471,-0.6783311 1.4104025,-0.6757277 1.4194569,-0.6718717 1.4233991,-0.6692783 1.4268735,-0.6661527 1.4325523,-0.658457 1.4369057,-0.6492536 1.4403756,-0.6390451 1.4434037,-0.6283341 1.4434037,-0.6283341 1.4410859,-0.6137482 1.4389939,-0.6069949 1.4357929,-0.6008828 1.4314246,-0.5954458 1.4261679,-0.5905226 1.4141734,-0.5815327 1.4141734,-0.5815327 1.4043378,-0.5785471 1.39428,-0.5764058 1.3329688,-0.5637974 1.3329688,-0.5637974 1.3145895,-0.5568151 1.2972161,-0.5489282 1.2892209,-0.544363 1.2818545,-0.5392324 1.2752425,-0.5334235 1.2694822,-0.5268487 1.2645219,-0.5195547 1.2602616,-0.5116312 1.2566012,-0.5031683 1.253441,-0.4942557 1.2482204,-0.4754415 1.2437999,-0.4559079 1.2437999,-0.4559079 1.2482772,-0.4341629 1.2509773,-0.4235757 1.2542312,-0.4133309 1.2582233,-0.4035424 1.2631384,-0.3943245 1.2691608,-0.3857913 1.2764025,-0.3780514 1.284699,-0.3711927 1.2938203,-0.3652984 1.3035364,-0.3604516 1.3136214,-0.3567272 1.3239344,-0.354033 1.334416,-0.3521163 1.3556601,-0.3495784 1.392579,-0.3495784 1.392579,-0.3495784 1.4045775,-0.350094 1.416459,-0.3514066 1.4281711,-0.3538728 1.439791,-0.3569681 1.439791,-0.3569681 1.452515,-0.364934 1.464525,-0.373405 1.475107,-0.3828864 1.4796394,-0.3881638 1.4835693,-0.3938675 1.4869354,-0.3999701 1.4898082,-0.4064216 1.4943559,-0.4201722 1.4977762,-0.4347206 1.5006328,-0.4496677 1.5006328,-0.4496677 1.499231,-0.4612807 1.4976221,-0.4664366 1.4949304,-0.4708167 1.4910738,-0.4743623 1.4863257,-0.4772691 1.4753436,-0.4820182 1.4753436,-0.4820182 1.4664365,-0.4795352 1.4626218,-0.4776421 1.4595658,-0.474975 1.457305,-0.4714968 1.4556491,-0.4674016 1.4533455,-0.4581829 1.4534208,-0.4536089 1.4534208,-0.4536089 1.4539135,-0.4485182 1.4539135,-0.4485182 1.4499393,-0.4317522 1.4468854,-0.4241182 1.4425646,-0.417374 1.4369139,-0.4115635 1.4302516,-0.4064634 1.4152408,-0.3974472 1.4152408,-0.3974472 1.4037158,-0.3954796 1.3920132,-0.3951862 1.3581759,-0.3951482 1.3581759,-0.3951482 1.3462714,-0.3958652 1.3344468,-0.3974472 1.3344468,-0.3974472 1.3252388,-0.4018094 1.3165482,-0.4065912 1.3088921,-0.4122123 1.3027717,-0.4190791 1.2982603,-0.4272512 1.2949727,-0.4364162 1.290437,-0.4564006 1.290437,-0.4564006 1.2932329,-0.473042 1.2956407,-0.4807989 1.2992483,-0.4878861 1.3041165,-0.4942694 1.309944,-0.5001172 1.323198,-0.5109201 1.323198,-0.5109201 1.3336884,-0.5147203 1.3445758,-0.5172068 1.4056341,-0.5302154 1.4056341,-0.5302154 1.4169257,-0.5327595 1.4278726,-0.5362373 1.4383198,-0.5410679 1.4484944,-0.5466369 1.4484944,-0.5466369 1.4657934,-0.5629779 1.4731497,-0.5718645 1.4789706,-0.5816013 1.4831844,-0.5922282 1.4861762,-0.6035317 1.490123,-0.6272667 1.490123,-0.6272667 1.4860613,-0.6464332 1.480772,-0.6648895 1.4772833,-0.6736295 1.4730273,-0.6819256 1.4678505,-0.689689 1.4616557,-0.6968305 1.4545624,-0.7032589 1.4467426,-0.7088825 1.4383682,-0.7136094 1.4296089,-0.7173552 1.4205828,-0.7201912 1.4113581,-0.7223402 1.3925779,-0.725493 1.3560029,-0.7272738 1.3526747,-0.7271918 1.3526747,-0.7271918 1.3396597,-0.7254658 1.3269754,-0.7231231 1.3149528,-0.7195471 1.3039123,-0.71414 1.2939021,-0.706812 1.2846756,-0.6980229 1.267529,-0.6780092 1.267529,-0.6780092 1.2625733,-0.668744 1.2586292,-0.6591274 1.2561513,-0.6490015 1.2544739,-0.6385976 1.2544739,-0.6385976 1.2563225,-0.6290566 1.257984,-0.6249197 1.2605228,-0.6215366 1.2639919,-0.618953 1.2681706,-0.6169791 1.2777103,-0.6140473z" transform="matrix(1,0,0,-1,6.35,1.07315)" fill="rgb(104,104,104)" fill-rule="nonzero" shaper:cutDepth="0.0000762" stroke-linecap="round" stroke-linejoin="round" /><path d="M-1.7012092,0.5191016 L-1.7012092,0.5191016 -1.6743919,0.5136548 -1.6613114,0.5103739 -1.6486247,0.5064242 -1.6364632,0.5015826 -1.6249579,0.4956261 -1.6142403,0.4883319 -1.6044417,0.4795608 -1.5956935,0.4694977 -1.5881274,0.4584058 -1.581875,0.4465484 -1.5770573,0.4341846 -1.5735684,0.4214856 -1.5710829,0.408538 -1.5677842,0.382228 -1.5677842,0.382228 -1.5725488,0.3513537 -1.5786916,0.3209982 -1.5827104,0.3061772 -1.5875906,0.2916804 -1.5935044,0.2775727 -1.600578,0.2639206 -1.6087453,0.2507969 -1.6178898,0.2382763 -1.6278951,0.2264334 -1.6386438,0.2153379 -1.6500018,0.2049402 -1.6618172,0.1950699 -1.6862105,0.1762083 -1.7342079,0.1463328 -1.7382398,0.1444441 -1.7382398,0.1444441 -1.7434604,0.1420014 -1.7492422,0.1414882 -1.7492422,0.1414882 -1.7588733,0.1432738 -1.7630221,0.1449284 -1.7663779,0.1474889 -1.768895,0.1510076 -1.7707731,0.1552564 -1.773464,0.164971 -1.773464,0.164971 -1.7721696,0.1722138 -1.7710614,0.1755597 -1.7694065,0.1785789 -1.7645271,0.1836794 -1.7584957,0.1880915 -1.7196835,0.2130862 -1.7196835,0.2130862 -1.7034834,0.2240123 -1.6880719,0.2358928 -1.6738021,0.2491553 -1.6601554,0.2631719 -1.6601554,0.2631719 -1.6700809,0.2604424 -1.6801227,0.2584373 -1.7006345,0.2570959 -1.7006345,0.2570959 -1.7265992,0.2622775 -1.7393098,0.2653798 -1.7516944,0.2690957 -1.7636442,0.2736298 -1.7750505,0.2791868 -1.7858046,0.2859711 -1.7957869,0.2941184 -1.8048331,0.3034883 -1.8127681,0.313871 -1.8194166,0.3250572 -1.8246145,0.3368392 -1.8284468,0.3490581 -1.831247,0.3616031 -1.8351269,0.3872366 -1.8351269,0.3872366 -1.8294862,0.4133174 -1.8261423,0.4260544 -1.8221702,0.4384273 -1.8173604,0.4503148 -1.8115036,0.4615955 -1.8043902,0.4721479 -1.7958872,0.4818475 -1.7861574,0.4905562 -1.7754355,0.4981329 -1.7639562,0.5044366 -1.7519512,0.5093364 -1.7395819,0.5129293 -1.7269416,0.5155351 -1.7012092,0.5191016z M-1.7024024,0.303651 L-1.7024024,0.303651 -1.6855821,0.3067904 -1.669297,0.3109871 -1.6615224,0.3138124 -1.6540823,0.3172986 -1.6470436,0.3215777 -1.6404827,0.3267398 -1.6345149,0.3327 -1.6292655,0.3393282 -1.6248602,0.3464945 -1.6214169,0.3540699 -1.6188848,0.3619512 -1.6170416,0.3700611 -1.6145035,0.3866618 -1.6145035,0.3866618 -1.6181193,0.4040135 -1.6227398,0.4204434 -1.6257406,0.4280248 -1.6293693,0.4350301 -1.6337514,0.4413442 -1.6389839,0.4468781 -1.645015,0.4516792 -1.6517449,0.4558393 -1.6590738,0.4594497 -1.6669019,0.4626022 -1.6836562,0.4678997 -1.7012092,0.4724644 -1.7012092,0.4724644 -1.7180218,0.4688795 -1.7342732,0.4642537 -1.742013,0.4612253 -1.7494021,0.4575462 -1.7563702,0.4530866 -1.7628401,0.4477602 -1.7687062,0.4416554 -1.7738559,0.4349035 -1.7781766,0.4276358 -1.7815629,0.4199823 -1.78407,0.412044 -1.7859124,0.403893 -1.7884897,0.3872366 -1.7884897,0.3872366 -1.784696,0.3702732 -1.7799321,0.3542169 -1.7768833,0.3468124 -1.7732281,0.339975 -1.7688454,0.3338178 -1.7636424,0.3284278 -1.7576702,0.3237571 -1.7510248,0.3197158 -1.7438025,0.3162141 -1.7360994,0.313162 -1.7196355,0.3080468 -1.7024024,0.303651z" transform="matrix(1,0,0,-1,6.35,1.07315)" fill="rgb(104,104,104)" fill-rule="nonzero" shaper:cutDepth="0.0000762" stroke-linecap="round" stroke-linejoin="round" /><path d="M-5.3329263,-0.7559784 L-5.2527524,-0.7559784 -5.2527524,-0.7559784 -5.2454125,-0.756647 -5.2385872,-0.7578189 -5.2327911,-0.7599978 -5.2304399,-0.7616222 -5.2285238,-0.7636723 -5.2258652,-0.7689206 -5.2244312,-0.7753668 -5.2236041,-0.7902558 -5.2235221,-1.1041972 -5.2235221,-1.1041972 -5.2252571,-1.1169407 -5.2272205,-1.1223093 -5.230487,-1.1264851 -5.2351295,-1.1294016 -5.24082,-1.1313587 -5.2539481,-1.1336738 -5.3317401,-1.1335918 -5.3317401,-1.1335918 -5.3582119,-1.1312041 -5.3709453,-1.1286649 -5.3830819,-1.1245279 -5.3945926,-1.1187154 -5.4056272,-1.1116282 -5.4269029,-1.0953296 -5.4269029,-1.0953296 -5.439546,-1.0790825 -5.4513556,-1.062511 -5.4614981,-1.045291 -5.4656838,-1.0363364 -5.4691678,-1.0271089 -5.4719976,-1.0176268 -5.4742548,-1.0079219 -5.4773787,-0.9879711 -5.479194,-0.9675112 -5.480355,-0.9467967 -5.480355,-0.9467967 -5.4795536,-0.9174373 -5.4781214,-0.9029704 -5.4754646,-0.8887562 -5.4715242,-0.8748068 -5.4666078,-0.8610589 -5.4551479,-0.8338986 -5.4551479,-0.8338986 -5.4446008,-0.8172746 -5.4333958,-0.8016079 -5.4273411,-0.7944327 -5.4208752,-0.7878557 -5.413916,-0.7819967 -5.4063998,-0.7769482 -5.3983603,-0.7726612 -5.3898629,-0.7690405 -5.3717562,-0.7634173 -5.3526029,-0.7593171 -5.3329263,-0.7559784z M-5.4337178,-0.9359585 L-5.4337178,-0.9359585 -5.4342121,-0.9561954 -5.4339402,-0.9662605 -5.4330516,-0.9762624 -5.4294853,-0.9960823 -5.4246039,-1.0157672 -5.4246039,-1.0157672 -5.4150637,-1.0350772 -5.4095469,-1.0441297 -5.403143,-1.0524665 -5.3958077,-1.0600519 -5.3877638,-1.0670654 -5.3704949,-1.0801396 -5.3704949,-1.0801396 -5.3616196,-1.0836982 -5.3525199,-1.0861575 -5.3430963,-1.0870295 -5.3334962,-1.0870365 -5.2702414,-1.0870365 -5.2702414,-0.8026156 -5.3328896,-0.8026156 -5.3328896,-0.8026156 -5.3477252,-0.803113 -5.3549251,-0.8040942 -5.3618662,-0.8059458 -5.3685348,-0.8087132 -5.3749962,-0.8121778 -5.3875733,-0.8202688 -5.3875733,-0.8202688 -5.402375,-0.8363067 -5.4090046,-0.844791 -5.4147187,-0.8538273 -5.4194757,-0.863441 -5.4235052,-0.8734935 -5.4303514,-0.8943299 -5.4303514,-0.8943299 -5.4323714,-0.9046303 -5.4336856,-0.9149946 -5.4337178,-0.9359585z" transform="matrix(1,0,0,-1,6.35,1.07315)" fill="rgb(104,104,104)" fill-rule="nonzero" shaper:cutDepth="0.0000762" stroke-linecap="round" stroke-linejoin="round" /><path d="M-4.5457229,-0.3754683 L-4.5456409,-0.7001783 -4.5456409,-0.7001783 -4.5459962,-0.7091449 -4.5483504,-0.7178315 -4.5483504,-0.7178315 -4.5521026,-0.7216813 -4.5563477,-0.7246293 -4.5613086,-0.7262681 -4.5666605,-0.7271918 -4.5666605,-0.7271918 -4.5760482,-0.7248162 -4.5799342,-0.7228843 -4.5828629,-0.7200709 -4.5848007,-0.7163449 -4.5859866,-0.7119265 -4.5871053,-0.7019355 -4.5871053,-0.3754424 -4.5871053,-0.3754424 -4.5868149,-0.3670904 -4.5848884,-0.3589387 -4.5848884,-0.3589387 -4.5811855,-0.3550492 -4.5769711,-0.3520876 -4.5720173,-0.3504674 -4.5666605,-0.3495784 -4.5666605,-0.3495784 -4.5607476,-0.3505123 -4.5554719,-0.3526028 -4.5511237,-0.3563776 -4.547283,-0.3610735 -4.547283,-0.3610735 -4.5456725,-0.3681689 -4.5457229,-0.3754683z" transform="matrix(1,0,0,-1,6.35,1.07315)" fill="rgb(104,104,104)" fill-rule="nonzero" shaper:cutDepth="0.0000762" stroke-linecap="round" stroke-linejoin="round" /><path d="M-3.8354,-1.1702155 L-3.8354,-0.8527155 -3.7846,-0.8527155 -3.7846,-1.1702155 -3.8354,-1.1702155z" transform="matrix(1,0,0,-1,6.35,1.07315)" fill="rgb(104,104,104)" fill-rule="nonzero" shaper:cutDepth="0.0000762" stroke-linecap="round" stroke-linejoin="round" /><path d="M-3.3161146,-0.358775 L-3.5910777,-0.517525 -3.6164777,-0.4735309 -3.3415146,-0.3147809 -3.3161146,-0.358775z" transform="matrix(1,0,0,-1,6.35,1.07315)" fill="rgb(104,104,104)" fill-rule="nonzero" shaper:cutDepth="0.0000762" stroke-linecap="round" stroke-linejoin="round" /><path d="M-4.0658155,-0.1207051 L-3.9070655,-0.3956682 -3.9510595,-0.4210682 -4.1098095,-0.1461051 -4.0658155,-0.1207051z" transform="matrix(1,0,0,-1,6.35,1.07315)" fill="rgb(104,104,104)" fill-rule="nonzero" shaper:cutDepth="0.0000762" stroke-linecap="round" stroke-linejoin="round" /><path d="M-3.3415146,-0.9144 L-3.6164777,-0.75565 -3.5910777,-0.7116559 -3.3161146,-0.8704059 -3.3415146,-0.9144z" transform="matrix(1,0,0,-1,6.35,1.07315)" fill="rgb(104,104,104)" fill-rule="nonzero" shaper:cutDepth="0.0000762" stroke-linecap="round" stroke-linejoin="round" /><path d="M-4.3038854,-0.8704059 L-4.0289223,-0.7116559 -4.0035223,-0.75565 -4.2784854,-0.9144 -4.3038854,-0.8704059z" transform="matrix(1,0,0,-1,6.35,1.07315)" fill="rgb(104,104,104)" fill-rule="nonzero" shaper:cutDepth="0.0000762" stroke-linecap="round" stroke-linejoin="round" /><path d="M-4.5504817,-0.7943955 L-4.6719225,-1.1156923 -4.6719225,-1.1156923 -4.6754058,-1.1229638 -4.677579,-1.1260805 -4.6802663,-1.1285792 -4.6835015,-1.1304191 -4.6871549,-1.1317561 -4.695159,-1.1335918 -4.695159,-1.1335918 -4.7048733,-1.1317183 -4.7091569,-1.1300457 -4.712761,-1.1275015 -4.7156623,-1.1240556 -4.7180304,-1.1199257 -4.721878,-1.1105259 -4.8444308,-0.7904637 -4.8444308,-0.7904637 -4.8459704,-0.7840907 -4.8467298,-0.7775728 -4.8467298,-0.7775728 -4.8439775,-0.7687248 -4.8419695,-0.7649485 -4.8392116,-0.7619411 -4.8356696,-0.7597375 -4.8315315,-0.758145 -4.8222618,-0.7559784 -4.8222618,-0.7559784 -4.814034,-0.7575103 -4.810351,-0.758874 -4.807179,-0.7609466 -4.8045378,-0.7637557 -4.8022998,-0.767124 -4.7984956,-0.7747926 -4.782037,-0.8190371 -4.6117758,-0.8190371 -4.5935918,-0.7719894 -4.5935918,-0.7719894 -4.5897567,-0.7653054 -4.5874667,-0.7624641 -4.5847339,-0.7602181 -4.577978,-0.7574604 -4.5702732,-0.7559784 -4.5702732,-0.7559784 -4.5611691,-0.757657 -4.5571759,-0.7591876 -4.553848,-0.761541 -4.5512278,-0.7647697 -4.5491476,-0.7686663 -4.5458872,-0.7775728 -4.5458872,-0.7775728 -4.5474597,-0.7861738 -4.5504817,-0.7943955z M-4.7633083,-0.8656743 L-4.6963388,-1.0429607 -4.6293694,-0.8656743 -4.7633083,-0.8656743z" transform="matrix(1,0,0,-1,6.35,1.07315)" fill="rgb(104,104,104)" fill-rule="nonzero" shaper:cutDepth="0.0000762" stroke-linecap="round" stroke-linejoin="round" /><path d="M-5.7764354,-0.7559784 L-5.7764354,-0.7559784 -5.7491465,-0.7605256 -5.7361314,-0.7641605 -5.7238635,-0.7694116 -5.712378,-0.776355 -5.7014874,-0.7845852 -5.6806978,-0.8031904 -5.6806978,-0.8031904 -5.6716829,-0.8206606 -5.6632862,-0.8382958 -5.656126,-0.8562608 -5.6507992,-0.8747151 -5.6473838,-0.8936794 -5.6454203,-0.913031 -5.6439136,-0.9523801 -5.6439136,-0.9523801 -5.6445793,-0.9723499 -5.6459354,-0.9921257 -5.6486725,-1.0115137 -5.6507747,-1.0210015 -5.6534607,-1.0303254 -5.6604065,-1.0485311 -5.6689948,-1.0662754 -5.6889086,-1.100995 -5.6889086,-1.100995 -5.7078697,-1.1161561 -5.717846,-1.122672 -5.7284109,-1.1279238 -5.7395926,-1.1318506 -5.7512436,-1.1347698 -5.7753273,-1.1389287 -5.7753273,-1.1389287 -5.7956413,-1.1363849 -5.8055048,-1.1342761 -5.8150199,-1.1311739 -5.8241709,-1.1270336 -5.8330451,-1.1221042 -5.8503323,-1.11093 -5.8503323,-1.11093 -5.864208,-1.0928595 -5.8771136,-1.0744315 -5.8828994,-1.0649717 -5.8880789,-1.0552885 -5.8925308,-1.0453373 -5.8961691,-1.0350862 -5.8990515,-1.0245566 -5.9012726,-1.0137833 -5.9041086,-0.9916449 -5.9054329,-0.9689496 -5.9060013,-0.9459757 -5.9060013,-0.9459757 -5.9054986,-0.9245836 -5.9041963,-0.9034261 -5.9012948,-0.8827377 -5.8989945,-0.8726428 -5.8960174,-0.8627464 -5.8882365,-0.8434895 -5.8785493,-0.8247919 -5.8675912,-0.8064672 -5.8559978,-0.7883289 -5.8559978,-0.7883289 -5.8383037,-0.7751566 -5.8290446,-0.7695242 -5.8192963,-0.7650244 -5.8090356,-0.7617107 -5.7983853,-0.7592988 -5.7764354,-0.7559784z M-5.7752859,-0.8026156 L-5.7752859,-0.8026156 -5.7900204,-0.8051575 -5.7970761,-0.8071229 -5.8037621,-0.8099127 -5.8100615,-0.8135643 -5.8160671,-0.817871 -5.8275885,-0.8275763 -5.8275885,-0.8275763 -5.8430493,-0.8557504 -5.849364,-0.8702412 -5.8539999,-0.885211 -5.8568888,-0.9006791 -5.858451,-0.9165256 -5.8593642,-0.9488494 -5.8593642,-0.9488494 -5.8591188,-0.9656915 -5.8582371,-0.982351 -5.8560827,-0.9986454 -5.8520369,-1.0143972 -5.8459949,-1.0295764 -5.8384325,-1.0443194 -5.8207735,-1.0730784 -5.8207735,-1.0730784 -5.8106149,-1.0805761 -5.80531,-1.0838199 -5.7997374,-1.0864637 -5.7878171,-1.0900153 -5.7753273,-1.0922914 -5.7753273,-1.0922914 -5.7610856,-1.0898547 -5.7542354,-1.088004 -5.7477064,-1.0854024 -5.7415142,-1.0820139 -5.7355781,-1.0780268 -5.7241328,-1.0690551 -5.7241328,-1.0690551 -5.7081744,-1.041941 -5.701624,-1.0279427 -5.6967677,-1.0134212 -5.6936731,-0.9983556 -5.6919165,-0.9828768 -5.6906328,-0.9512306 -5.6906328,-0.9512306 -5.6914098,-0.9207386 -5.6929283,-0.9057364 -5.6957894,-0.8910239 -5.700062,-0.8766159 -5.7054088,-0.8624396 -5.7178926,-0.8344734 -5.7178926,-0.8344734 -5.7295341,-0.821925 -5.7358616,-0.8165091 -5.7427913,-0.8121127 -5.7503534,-0.8087875 -5.7583968,-0.8062774 -5.7752859,-0.8026156z" transform="matrix(1,0,0,-1,6.35,1.07315)" fill="rgb(104,104,104)" fill-rule="nonzero" shaper:cutDepth="0.0000762" stroke-linecap="round" stroke-linejoin="round" /><path d="M1.9261971,-0.3754683 L1.9262791,-0.7001783 1.9262791,-0.7001783 1.9259238,-0.7091449 1.9235696,-0.7178315 1.9235696,-0.7178315 1.9198174,-0.7216813 1.9155723,-0.7246293 1.9106114,-0.7262681 1.9052595,-0.7271918 1.9052595,-0.7271918 1.8958718,-0.7248162 1.8919858,-0.7228843 1.8890571,-0.7200709 1.8871193,-0.7163449 1.8859334,-0.7119265 1.8848147,-0.7019355 1.8848147,-0.3754424 1.8848147,-0.3754424 1.8851051,-0.3670904 1.8870316,-0.3589387 1.8870316,-0.3589387 1.8907345,-0.3550492 1.8949489,-0.3520876 1.8999027,-0.3504674 1.9052595,-0.3495784 1.9052595,-0.3495784 1.9111724,-0.3505123 1.9164481,-0.3526028 1.9207963,-0.3563776 1.924637,-0.3610735 1.924637,-0.3610735 1.9262475,-0.3681689 1.9261971,-0.3754683z" transform="matrix(1,0,0,-1,6.35,1.07315)" fill="rgb(104,104,104)" fill-rule="nonzero" shaper:cutDepth="0.0000762" stroke-linecap="round" stroke-linejoin="round" /><path d="M1.0801593,-0.3811897 L1.0801593,-0.6806365 1.1568478,-0.6805546 1.1568478,-0.6805546 1.1681058,-0.6815034 1.1730449,-0.6829186 1.177161,-0.6854558 1.1803891,-0.6892039 1.182937,-0.6938795 1.1868992,-0.7047764 1.1868992,-0.7047764 1.1862547,-0.7105369 1.1845255,-0.7158023 1.1809626,-0.7201394 1.176156,-0.7233623 1.1708866,-0.7254208 1.1653731,-0.726553 1.1539392,-0.7272738 0.9558481,-0.7271918 0.9558481,-0.7271918 0.9447139,-0.7261991 0.9398371,-0.7247733 0.9357833,-0.7222391 0.9326171,-0.7185099 0.9301303,-0.7138657 0.9262894,-0.7030521 0.9262894,-0.7030521 0.9269243,-0.6975472 0.9285145,-0.6924234 0.9317365,-0.688043 0.9361377,-0.6846931 0.9410849,-0.682543 0.9463632,-0.6813666 0.957472,-0.6806365 1.033522,-0.6806365 1.033522,-0.3783161 1.033522,-0.3783161 1.0337904,-0.3698719 1.035821,-0.3616483 1.035821,-0.3616483 1.0397587,-0.3564706 1.0444961,-0.3525844 1.0503929,-0.3505704 1.0569227,-0.3495784 1.0569227,-0.3495784 1.0643723,-0.3509043 1.0677682,-0.3520705 1.0707727,-0.353835 1.0756397,-0.3591107 1.0796666,-0.3656715 1.0796666,-0.3656715 1.0802363,-0.3734187 1.0801593,-0.3811897z" transform="matrix(1,0,0,-1,6.35,1.07315)" fill="rgb(104,104,104)" fill-rule="nonzero" shaper:cutDepth="0.0000762" stroke-linecap="round" stroke-linejoin="round" /><path d="M1.8183769,0.482071 L1.8183769,0.482071 1.8234775,0.477308 1.8274843,0.4718976 1.8298951,0.4655425 1.831432,0.4586703 1.831432,0.4586703 1.8292075,0.4494974 1.82741,0.4455435 1.824798,0.4423412 1.8213277,0.4399312 1.8172039,0.4381243 1.8078671,0.4355159 1.8078671,0.4355159 1.8021798,0.4362244 1.7969852,0.4379843 1.7925025,0.4412628 1.7884076,0.4453689 1.7884076,0.4453689 1.7761098,0.4569894 1.769511,0.4618909 1.762378,0.4657134 1.754685,0.4684048 1.7465661,0.4702359 1.7296185,0.4724644 1.7296185,0.4724644 1.7130169,0.4692283 1.6972714,0.4650275 1.6899872,0.4622639 1.6832381,0.4588974 1.677131,0.4548074 1.6717497,0.4498997 1.6670513,0.4442224 1.6629505,0.4378717 1.659362,0.4309439 1.6562004,0.423535 1.6508162,0.4076591 1.646115,0.3910136 1.646115,0.3910136 1.6497088,0.3744306 1.6542548,0.3587283 1.6571824,0.3514826 1.6607052,0.3447873 1.6649421,0.3387524 1.6699849,0.3334629 1.6757841,0.3288729 1.6822454,0.3248952 1.689274,0.3214423 1.6967755,0.3184267 1.7128187,0.3133575 1.7296185,0.308988 1.7296185,0.308988 1.7420773,0.3102425 1.7481527,0.3113628 1.7540453,0.3130683 1.7653031,0.3181674 1.7761736,0.3245063 1.7761736,0.3245063 1.7799958,0.3273881 1.7841086,0.3295932 1.7934162,0.3314855 1.7934162,0.3314855 1.8008538,0.3305252 1.8042952,0.3295496 1.8074068,0.3279848 1.8126701,0.3231403 1.8172274,0.3170345 1.8172274,0.3170345 1.8193392,0.3080486 1.8194444,0.2987913 1.8195264,0.174824 1.8195264,0.174824 1.8192605,0.168258 1.818532,0.1621123 1.816878,0.1568072 1.8138461,0.1527536 1.8093412,0.1500379 1.8037109,0.1483444 1.7905746,0.1466611 1.6662313,0.1467431 1.6662313,0.1467431 1.6546422,0.1474227 1.6495392,0.1487453 1.6452617,0.1512411 1.6418807,0.1550109 1.6391877,0.1597584 1.6349483,0.1708828 1.6349483,0.1708828 1.6358742,0.1771272 1.6380726,0.1826587 1.6421217,0.1871534 1.6471824,0.1910813 1.6471824,0.1910813 1.6571366,0.1932381 1.6673484,0.1932984 1.7728071,0.1932984 1.7728071,0.2707258 1.7728071,0.2707258 1.7615913,0.2670837 1.7501961,0.2643681 1.7385412,0.2629937 1.7267447,0.2623508 1.7267447,0.2623508 1.7017187,0.2678577 1.6894905,0.2711072 1.6776039,0.2749521 1.6661729,0.2795907 1.6553115,0.2852216 1.6451334,0.2920431 1.6357574,0.3001824 1.627321,0.3094894 1.6199663,0.3197469 1.6138353,0.3307374 1.60906,0.3422465 1.6055496,0.3541209 1.6029948,0.3662673 1.5994778,0.3910136 1.5994778,0.3910136 1.6048772,0.4163216 1.6080857,0.4286826 1.611905,0.4406919 1.6165385,0.4522322 1.6221897,0.4631864 1.6290623,0.4734372 1.637286,0.4828637 1.6467032,0.4913308 1.6570862,0.4986999 1.6682073,0.5048325 1.679842,0.5096 1.691833,0.5130959 1.7040893,0.5156314 1.7290437,0.5191016 1.7290437,0.5191016 1.7540038,0.5166652 1.7659909,0.5141669 1.7773929,0.510149 1.7881822,0.5045405 1.7985059,0.4977226 1.8183769,0.482071z" transform="matrix(1,0,0,-1,6.35,1.07315)" fill="rgb(104,104,104)" fill-rule="nonzero" shaper:cutDepth="0.0000762" stroke-linecap="round" stroke-linejoin="round" /><path d="M0.9525,0.02413 L-0.9525,0.02413 -0.9525,0.02413 -0.9833141,0.0257485 -0.9986655,0.0274057 -1.0139414,0.0299006 -1.0291019,0.033217 -1.0441065,0.037331 -1.058915,0.0422184 -1.0734872,0.0478554 -1.0877828,0.0542178 -1.1017614,0.0612817 -1.1153827,0.0690229 -1.1286066,0.0774177 -1.1413926,0.0864418 -1.1537061,0.0960706 -1.1655227,0.1062784 -1.1768194,0.117039 -1.1875733,0.1283264 -1.1977615,0.1401146 -1.2073608,0.1523776 -1.2163483,0.1650894 -1.2247011,0.1782239 -1.2323962,0.1917552 -1.2394105,0.2056571 -1.2457237,0.2199015 -1.2513255,0.2344507 -1.2562084,0.2492648 -1.2603649,0.2643041 -1.2637874,0.2795285 -1.2664684,0.2948983 -1.2684002,0.3103734 -1.2695754,0.3259142 -1.2699863,0.3414805 -1.2696255,0.3570327 -1.2684867,0.3725314 -1.2665755,0.3879444 -1.2639037,0.4032424 -1.2604829,0.4183965 -1.2563251,0.4333777 -1.2514419,0.448157 -1.2458451,0.4627053 -1.2395466,0.4769936 -1.2325581,0.4909929 -1.2248914,0.5046743 -1.2165585,0.5180081 -1.2075792,0.530954 -1.1979808,0.5434604 -1.1877909,0.5554753 -1.1770372,0.5669468 -1.1657473,0.5778227 -1.1539489,0.5880511 -1.1416696,0.59758 -1.1289371,0.6063573 -1.1157789,0.6143312 -1.1022229,0.6214499 -1.0882994,0.6277055 -1.0740448,0.6331756 -1.0594957,0.6379474 -1.044689,0.6421082 -1.0144501,0.6489459 -0.9836222,0.6543871 -0.9525,0.65913 0.9525,0.65913 0.9525,0.65913 0.9833141,0.6575115 0.9986655,0.6558543 1.0139414,0.6533594 1.0291019,0.650043 1.0441065,0.645929 1.058915,0.6410416 1.0734872,0.6354046 1.0877828,0.6290422 1.1017614,0.6219783 1.1153827,0.6142371 1.1286066,0.6058423 1.1413926,0.5968182 1.1537061,0.5871894 1.1655227,0.5769816 1.1768194,0.566221 1.1875733,0.5549336 1.1977615,0.5431454 1.2073608,0.5308824 1.2163483,0.5181706 1.2247011,0.5050361 1.2323962,0.4915048 1.2394105,0.4776029 1.2457237,0.4633585 1.2513255,0.4488093 1.2562084,0.4339952 1.2603649,0.4189559 1.2637874,0.4037315 1.2664684,0.3883617 1.2684002,0.3728866 1.2695754,0.3573458 1.2699863,0.3417795 1.2696255,0.3262273 1.2684867,0.3107286 1.2665755,0.2953156 1.2639037,0.2800176 1.2604829,0.2648635 1.2563251,0.2498823 1.2514419,0.235103 1.2458451,0.2205547 1.2395466,0.2062664 1.2325581,0.1922671 1.2248914,0.1785857 1.2165585,0.1652519 1.2075792,0.152306 1.1979808,0.1397996 1.1877909,0.1277847 1.1770372,0.1163132 1.1657473,0.1054373 1.1539489,0.0952089 1.1416696,0.08568 1.1289371,0.0769027 1.1157789,0.0689288 1.1022229,0.0618101 1.0882994,0.0555545 1.0740448,0.0500844 1.0594957,0.0453126 1.044689,0.0411518 1.0144501,0.0343141 0.9836222,0.0288729 0.9525,0.02413z" transform="matrix(1,0,0,-1,6.35,1.07315)" fill="rgb(104,104,104)" fill-rule="nonzero" shaper:cutDepth="0.0000762" stroke-linecap="round" stroke-linejoin="round" /><path d="M5.1542061,-1.7013483 L5.1542881,-2.0260583 5.1542881,-2.0260583 5.1539328,-2.0350249 5.1515786,-2.0437115 5.1515786,-2.0437115 5.1478265,-2.0475613 5.1435813,-2.0505093 5.1386204,-2.0521481 5.1332686,-2.0530718 5.1332686,-2.0530718 5.1238808,-2.0506962 5.1199949,-2.0487643 5.1170661,-2.0459509 5.1151283,-2.0422249 5.1139424,-2.0378065 5.1128238,-2.0278155 5.1128238,-1.7013224 5.1128238,-1.7013224 5.1131142,-1.6929704 5.1150407,-1.6848187 5.1150407,-1.6848187 5.1187435,-1.6809292 5.1229579,-1.6779676 5.1279117,-1.6763474 5.1332686,-1.6754584 5.1332686,-1.6754584 5.1391814,-1.6763923 5.1444572,-1.6784828 5.1488053,-1.6822576 5.152646,-1.6869535 5.152646,-1.6869535 5.1542566,-1.6940489 5.1542061,-1.7013483z" transform="matrix(1,0,0,-1,6.35,1.07315)" fill="rgb(104,104,104)" fill-rule="nonzero" shaper:cutDepth="0.0000762" stroke-linecap="round" stroke-linejoin="round" /><path d="M4.37134,-2.17043 L2.46634,-2.17043 2.46634,-2.17043 2.4355259,-2.1688115 2.4201745,-2.1671543 2.4048986,-2.1646594 2.3897381,-2.161343 2.3747335,-2.157229 2.359925,-2.1523416 2.3453528,-2.1467046 2.3310572,-2.1403422 2.3170786,-2.1332783 2.3034573,-2.1255371 2.2902334,-2.1171423 2.2774474,-2.1081182 2.2651339,-2.0984894 2.2533173,-2.0882816 2.2420206,-2.077521 2.2312667,-2.0662336 2.2210785,-2.0544454 2.2114792,-2.0421824 2.2024917,-2.0294706 2.1941389,-2.0163361 2.1864438,-2.0028048 2.1794295,-1.9889029 2.1731163,-1.9746585 2.1675145,-1.9601093 2.1626316,-1.9452952 2.1584751,-1.9302559 2.1550526,-1.9150315 2.1523716,-1.8996617 2.1504398,-1.8841866 2.1492646,-1.8686458 2.1488537,-1.8530795 2.1492145,-1.8375273 2.1503533,-1.8220286 2.1522645,-1.8066156 2.1549363,-1.7913176 2.1583571,-1.7761635 2.1625149,-1.7611823 2.1673981,-1.746403 2.1729949,-1.7318547 2.1792934,-1.7175664 2.1862819,-1.7035671 2.1939486,-1.6898857 2.2022815,-1.6765519 2.2112608,-1.663606 2.2208592,-1.6510996 2.2310491,-1.6390847 2.2418028,-1.6276132 2.2530927,-1.6167373 2.2648911,-1.6065089 2.2771704,-1.59698 2.2899029,-1.5882027 2.3030611,-1.5802288 2.3166171,-1.5731101 2.3305406,-1.5668545 2.3447952,-1.5613844 2.3593443,-1.5566126 2.374151,-1.5524518 2.4043899,-1.5456141 2.4352178,-1.5401729 2.46634,-1.53543 4.37134,-1.53543 4.37134,-1.53543 4.4021541,-1.5370485 4.4175055,-1.5387057 4.4327814,-1.5412006 4.4479419,-1.544517 4.4629465,-1.548631 4.477755,-1.5535184 4.4923272,-1.5591554 4.5066228,-1.5655178 4.5206014,-1.5725817 4.5342227,-1.5803229 4.5474466,-1.5887177 4.5602326,-1.5977418 4.5725461,-1.6073706 4.5843627,-1.6175784 4.5956594,-1.628339 4.6064133,-1.6396264 4.6166015,-1.6514146 4.6262008,-1.6636776 4.6351883,-1.6763894 4.6435411,-1.6895239 4.6512362,-1.7030552 4.6582505,-1.7169571 4.6645637,-1.7312015 4.6701655,-1.7457507 4.6750484,-1.7605648 4.6792049,-1.7756041 4.6826274,-1.7908285 4.6853084,-1.8061983 4.6872402,-1.8216734 4.6884154,-1.8372142 4.6888263,-1.8527805 4.6884655,-1.8683327 4.6873267,-1.8838314 4.6854155,-1.8992444 4.6827437,-1.9145424 4.6793229,-1.9296965 4.6751651,-1.9446777 4.6702819,-1.959457 4.6646851,-1.9740053 4.6583866,-1.9882936 4.6513981,-2.0022929 4.6437314,-2.0159743 4.6353985,-2.0293081 4.6264192,-2.042254 4.6168208,-2.0547604 4.6066309,-2.0667753 4.5958772,-2.0782468 4.5845873,-2.0891227 4.5727889,-2.0993511 4.5605096,-2.10888 4.5477771,-2.1176573 4.5346189,-2.1256312 4.5210629,-2.1327499 4.5071394,-2.1390055 4.4928848,-2.1444756 4.4783357,-2.1492474 4.463529,-2.1534082 4.4332901,-2.1602459 4.4024622,-2.1656871 4.37134,-2.17043z" transform="matrix(1,0,0,-1,6.35,1.07315)" fill="rgb(104,104,104)" fill-rule="nonzero" shaper:cutDepth="0.0000762" stroke-linecap="round" stroke-linejoin="round" /><path d="M-1.5875,-0.43815 L0.3175,-0.43815 0.3175,-0.43815 0.3483141,-0.4397685 0.3636655,-0.4414257 0.3789414,-0.4439206 0.3941019,-0.447237 0.4091065,-0.451351 0.423915,-0.4562384 0.4384872,-0.4618754 0.4527828,-0.4682378 0.4667614,-0.4753017 0.4803827,-0.4830429 0.4936066,-0.4914377 0.5063926,-0.5004618 0.5187061,-0.5100906 0.5305227,-0.5202984 0.5418194,-0.531059 0.5525733,-0.5423464 0.5627615,-0.5541346 0.5723608,-0.5663976 0.5813483,-0.5791094 0.5897011,-0.5922439 0.5973962,-0.6057752 0.6044105,-0.6196771 0.6107237,-0.6339215 0.6163255,-0.6484707 0.6212084,-0.6632848 0.6253649,-0.6783241 0.6287874,-0.6935485 0.6314684,-0.7089183 0.6334002,-0.7243934 0.6345754,-0.7399342 0.6349863,-0.7555005 0.6346255,-0.7710527 0.6334867,-0.7865514 0.6315755,-0.8019644 0.6289037,-0.8172624 0.6254829,-0.8324165 0.6213251,-0.8473977 0.6164419,-0.862177 0.6108451,-0.8767253 0.6045466,-0.8910136 0.5975581,-0.9050129 0.5898914,-0.9186943 0.5815585,-0.9320281 0.5725792,-0.944974 0.5629808,-0.9574804 0.5527909,-0.9694953 0.5420372,-0.9809668 0.5307473,-0.9918427 0.5189489,-1.0020711 0.5066696,-1.0116 0.4939371,-1.0203773 0.4807789,-1.0283512 0.4672229,-1.0354699 0.4532994,-1.0417255 0.4390448,-1.0471956 0.4244957,-1.0519674 0.409689,-1.0561282 0.3794501,-1.0629659 0.3486222,-1.0684071 0.3175,-1.07315 -1.5875,-1.07315 -1.5875,-1.07315 -1.6183141,-1.0715315 -1.6336655,-1.0698743 -1.6489414,-1.0673794 -1.6641019,-1.064063 -1.6791065,-1.059949 -1.693915,-1.0550616 -1.7084872,-1.0494246 -1.7227828,-1.0430622 -1.7367614,-1.0359983 -1.7503827,-1.0282571 -1.7636066,-1.0198623 -1.7763926,-1.0108382 -1.7887061,-1.0012094 -1.8005227,-0.9910016 -1.8118194,-0.980241 -1.8225733,-0.9689536 -1.8327615,-0.9571654 -1.8423608,-0.9449024 -1.8513483,-0.9321906 -1.8597011,-0.9190561 -1.8673962,-0.9055248 -1.8744105,-0.8916229 -1.8807237,-0.8773785 -1.8863255,-0.8628293 -1.8912084,-0.8480152 -1.8953649,-0.8329759 -1.8987874,-0.8177515 -1.9014684,-0.8023817 -1.9034002,-0.7869066 -1.9045754,-0.7713658 -1.9049863,-0.7557995 -1.9046255,-0.7402473 -1.9034867,-0.7247486 -1.9015755,-0.7093356 -1.8989037,-0.6940376 -1.8954829,-0.6788835 -1.8913251,-0.6639023 -1.8864419,-0.649123 -1.8808451,-0.6345747 -1.8745466,-0.6202864 -1.8675581,-0.6062871 -1.8598914,-0.5926057 -1.8515585,-0.5792719 -1.8425792,-0.566326 -1.8329808,-0.5538196 -1.8227909,-0.5418047 -1.8120372,-0.5303332 -1.8007473,-0.5194573 -1.7889489,-0.5092289 -1.7766696,-0.4997 -1.7639371,-0.4909227 -1.7507789,-0.4829488 -1.7372229,-0.4758301 -1.7232994,-0.4695745 -1.7090448,-0.4641044 -1.6944957,-0.4593326 -1.679689,-0.4551718 -1.6494501,-0.4483341 -1.6186222,-0.4428929 -1.5875,-0.43815z" transform="matrix(1,0,0,-1,6.35,1.07315)" fill="rgb(104,104,104)" fill-rule="nonzero" shaper:cutDepth="0.0000762" stroke-linecap="round" stroke-linejoin="round" /><path d="M1.7478591,-0.7615618 L1.7478591,-0.7615618 1.7587078,-0.7587182 1.7696759,-0.7567413 1.7808166,-0.7560181 1.7920514,-0.7559784 1.8970488,-0.7559784 1.8970488,-0.7559784 1.9037919,-0.7562789 1.9101129,-0.7570524 1.9155897,-0.7587717 1.91981,-0.7618988 1.9226904,-0.766527 1.9245479,-0.7723014 1.9265577,-0.7857604 1.9266075,-1.1049362 1.9266075,-1.1049362 1.9251478,-1.1173066 1.9233401,-1.1225262 1.9202501,-1.1265971 1.9158005,-1.1294499 1.9103141,-1.1313739 1.8976133,-1.1336738 1.769946,-1.1335918 1.769946,-1.1335918 1.750497,-1.1299401 1.7316973,-1.1250446 1.7227439,-1.1217416 1.7141964,-1.1176612 1.7061359,-1.1126478 1.6986525,-1.1065982 1.6918726,-1.0996196 1.6859315,-1.0918724 1.6809645,-1.0835169 1.6770987,-1.0747119 1.6742705,-1.0655783 1.6722267,-1.0561995 1.6694462,-1.0370331 1.6694462,-1.0370331 1.6706551,-1.0255442 1.6724101,-1.0143266 1.6752574,-1.0036517 1.6797258,-0.9937822 1.6858922,-0.9847564 1.69335,-0.9763721 1.7104179,-0.9606729 1.7104179,-0.9606729 1.693159,-0.9418295 1.685843,-0.9317622 1.6800873,-0.9209278 1.6759714,-0.9092874 1.6731031,-0.8970337 1.6694462,-0.871504 1.6694462,-0.871504 1.6721153,-0.8530744 1.6757771,-0.8352972 1.6782905,-0.826857 1.6814243,-0.8188246 1.6853026,-0.8112813 1.6900207,-0.8042899 1.6955268,-0.7978162 1.7017223,-0.7917956 1.7157879,-0.7808546 1.7314295,-0.7709493 1.7478591,-0.7615618z M1.7875111,-0.9398996 L1.8794521,-0.9398996 1.8794521,-0.8026156 1.7926899,-0.8026156 1.7926899,-0.8026156 1.781706,-0.8027236 1.7709195,-0.8039689 1.7604195,-0.8068648 1.750076,-0.8106622 1.750076,-0.8106622 1.7361883,-0.8224704 1.7302547,-0.8289853 1.7255207,-0.8362256 1.7220449,-0.8442265 1.7195261,-0.8528059 1.7160834,-0.8709292 1.7160834,-0.8709292 1.7178274,-0.8817001 1.7201273,-0.8921102 1.7235392,-0.901799 1.7286027,-0.9104161 1.7354041,-0.9179057 1.7435283,-0.924537 1.7619816,-0.9363691 1.7619816,-0.9363691 1.7745426,-0.9394801 1.7875111,-0.9398996z M1.7750252,-1.0870365 L1.8754794,-1.0870365 1.8754794,-0.9865369 1.7739693,-0.9865369 1.7739693,-0.9865369 1.7665323,-0.9865412 1.7592093,-0.9872784 1.7449853,-0.9914633 1.7449853,-0.9914633 1.7331671,-0.9997193 1.7281181,-1.0044347 1.7240908,-1.0098478 1.7211365,-1.0159937 1.7189985,-1.0226971 1.7160834,-1.0370331 1.7160834,-1.0370331 1.7195467,-1.0537934 1.7224579,-1.0612964 1.7267706,-1.0677572 1.7325589,-1.0731207 1.7394707,-1.0776487 1.7551666,-1.0853124 1.7551666,-1.0853124 1.7650224,-1.0869387 1.7750252,-1.0870365z" transform="matrix(1,0,0,-1,6.35,1.07315)" fill="rgb(104,104,104)" fill-rule="nonzero" shaper:cutDepth="0.0000762" stroke-linecap="round" stroke-linejoin="round" /><path d="M0.6324867,-0.3495784 L0.8335077,-0.3495784 0.8335077,-0.3495784 0.8449789,-0.3513618 0.8497868,-0.353222 0.8534909,-0.3562345 0.8560238,-0.3604696 0.8576633,-0.3656373 0.8594538,-0.3775268 0.8595358,-0.7019026 0.8595358,-0.7019026 0.8584937,-0.7113383 0.8572078,-0.7154825 0.8550096,-0.7189425 0.8518272,-0.7216644 0.8478911,-0.7238209 0.8387626,-0.7271918 0.8387626,-0.7271918 0.8294009,-0.7247521 0.82551,-0.7228006 0.8225553,-0.7199819 0.820573,-0.7162624 0.819329,-0.711859 0.8180714,-0.7019124 0.8180714,-0.3909607 0.6285668,-0.3909607 0.6285668,-0.3909607 0.6220008,-0.3908715 0.6155117,-0.3898112 0.6155117,-0.3898112 0.6098162,-0.386696 0.6073705,-0.384818 0.6054024,-0.3825595 0.6028474,-0.376942 0.6013071,-0.3705159 0.6013071,-0.3705159 0.6026785,-0.3639513 0.6037991,-0.360968 0.6054363,-0.3583398 0.6102103,-0.354114 0.6160865,-0.3506458 0.6160865,-0.3506458 0.6242407,-0.3494962 0.6324867,-0.3495784z" transform="matrix(1,0,0,-1,6.35,1.07315)" fill="rgb(104,104,104)" fill-rule="nonzero" shaper:cutDepth="0.0000762" stroke-linecap="round" stroke-linejoin="round" /><path d="M1.7910351,-1.6754584 L1.7910351,-1.6754584 1.8029541,-1.6754954 1.8086815,-1.6764213 1.8141304,-1.6784361 1.8190626,-1.681806 1.8226238,-1.6863879 1.8241722,-1.6918912 1.824535,-1.6978738 1.824535,-1.6978738 1.8216628,-1.7173007 1.8174495,-1.7363782 1.811298,-1.754951 1.8040902,-1.7732487 1.8040902,-1.7732487 1.7940566,-1.7919921 1.7834749,-1.810255 1.7717967,-1.8275567 1.7653751,-1.8356969 1.7584916,-1.8434322 1.7434844,-1.8578155 1.7271831,-1.8710644 1.6924237,-1.8956713 1.6924237,-1.8956713 1.6777263,-1.9056415 1.6714496,-1.9113665 1.6664475,-1.9179715 1.6627934,-1.925507 1.6601665,-1.9337515 1.6566247,-1.9514224 1.6566247,-1.9514224 1.6589104,-1.9632728 1.6618819,-1.9745238 1.6662252,-1.984576 1.6691255,-1.9889652 1.6726076,-1.9928461 1.6766372,-1.9962485 1.681146,-1.9992321 1.6913275,-2.0041822 1.7026042,-2.0081751 1.7144286,-2.0116895 1.7144286,-2.0116895 1.7293506,-2.0091919 1.736342,-2.0070679 1.7427761,-2.0039047 1.7486261,-1.9996529 1.754032,-1.9945731 1.7641037,-1.9830339 1.7641037,-1.9830339 1.7678015,-1.9760312 1.7706012,-1.968748 1.7721002,-1.9610582 1.7728893,-1.9531467 1.7728893,-1.9531467 1.7723054,-1.9491234 1.7723145,-1.9456749 1.7723145,-1.9456749 1.7738697,-1.9357069 1.7754397,-1.9313721 1.7779536,-1.9278106 1.7814753,-1.9250749 1.7857669,-1.9229698 1.7956331,-1.919811 1.7956331,-1.919811 1.8026257,-1.921205 1.8058467,-1.9223404 1.8087405,-1.9239966 1.8135791,-1.9288202 1.8177201,-1.9347546 1.8177201,-1.9347546 1.819172,-1.9438907 1.8194443,-1.9531467 1.8194443,-1.9531467 1.8148271,-1.9736439 1.8089311,-1.9934123 1.805104,-2.0027953 1.8004777,-2.0117229 1.7948924,-2.0201037 1.7882447,-2.0278422 1.7806515,-2.0348241 1.7722834,-2.040931 1.763311,-2.0460445 1.7539027,-2.0500541 1.7441824,-2.0530318 1.7342295,-2.0552299 1.7139359,-2.0583267 1.7139359,-2.0583267 1.6932545,-2.0536214 1.6733607,-2.047593 1.6639553,-2.0436691 1.655042,-2.0389183 1.6467195,-2.0331751 1.6390873,-2.0263358 1.6322504,-2.0185319 1.6263147,-2.0099513 1.6213862,-2.0007817 1.6175627,-1.9912083 1.6147651,-1.9813582 1.6127422,-1.9713023 1.6099876,-1.9508477 1.6099876,-1.9508477 1.6125859,-1.9284932 1.6150372,-1.9177894 1.6188565,-1.9076477 1.6241106,-1.8980955 1.6304559,-1.8889918 1.6449655,-1.8715316 1.6449655,-1.8715316 1.6568604,-1.8618744 1.6698441,-1.8537143 1.6698441,-1.8537143 1.6876477,-1.8413476 1.7047541,-1.8284107 1.720466,-1.8143334 1.7275812,-1.806689 1.7341083,-1.7985636 1.7400856,-1.7899887 1.7455818,-1.7810203 1.755406,-1.7621281 1.7641306,-1.7423366 1.7723054,-1.7220956 1.6371652,-1.7220956 1.6371652,-1.7220956 1.6270017,-1.7210342 1.622565,-1.7196606 1.6188974,-1.7172822 1.6160559,-1.7138245 1.6138462,-1.7095411 1.6104802,-1.6995981 1.6104802,-1.6995981 1.611862,-1.6921243 1.613046,-1.6887058 1.6148161,-1.6856658 1.6200659,-1.6806898 1.6265733,-1.6765258 1.6265733,-1.6765258 1.642663,-1.6754584 1.7910351,-1.6754584z" transform="matrix(1,0,0,-1,6.35,1.07315)" fill="rgb(104,104,104)" fill-rule="nonzero" shaper:cutDepth="0.0000762" stroke-linecap="round" stroke-linejoin="round" /><path d="M-5.5388977,-0.7818683 L-5.5388157,-1.1065783 -5.5388157,-1.1065783 -5.539171,-1.1155449 -5.5415252,-1.1242315 -5.5415252,-1.1242315 -5.5452774,-1.1280813 -5.5495225,-1.1310293 -5.5544834,-1.1326681 -5.5598353,-1.1335918 -5.5598353,-1.1335918 -5.569223,-1.1312162 -5.573109,-1.1292843 -5.5760377,-1.1264709 -5.5779755,-1.1227449 -5.5791614,-1.1183265 -5.5802801,-1.1083355 -5.5802801,-0.7818424 -5.5802801,-0.7818424 -5.5799897,-0.7734904 -5.5780632,-0.7653387 -5.5780632,-0.7653387 -5.5743603,-0.7614492 -5.5701459,-0.7584876 -5.5651921,-0.7568674 -5.5598353,-0.7559784 -5.5598353,-0.7559784 -5.5539224,-0.7569123 -5.5486467,-0.7590028 -5.5442985,-0.7627776 -5.5404578,-0.7674735 -5.5404578,-0.7674735 -5.5388473,-0.7745689 -5.5388977,-0.7818683z" transform="matrix(1,0,0,-1,6.35,1.07315)" fill="rgb(104,104,104)" fill-rule="nonzero" shaper:cutDepth="0.0000762" stroke-linecap="round" stroke-linejoin="round" /><path d="M-4.8904111,-0.3495784 L-4.8904111,-0.3495784 -4.8829947,-0.3509294 -4.8795464,-0.3520563 -4.8764065,-0.3537186 -4.8710134,-0.3585831 -4.8662713,-0.3645782 -4.697458,-0.6253497 -4.697458,-0.3765098 -4.697458,-0.3765098 -4.6960675,-0.3661666 -4.6945364,-0.3616625 -4.692009,-0.3579539 -4.688413,-0.3550987 -4.6839997,-0.352896 -4.673811,-0.3495784 -4.673811,-0.3495784 -4.6675818,-0.3504336 -4.6619707,-0.3524931 -4.6572585,-0.3563045 -4.6530378,-0.3610735 -4.6530378,-0.3610735 -4.6509272,-0.3704156 -4.6508208,-0.3800186 -4.6507388,-0.6979614 -4.6507388,-0.6979614 -4.6508876,-0.7057085 -4.6518883,-0.7133977 -4.6518883,-0.7133977 -4.6554695,-0.7190861 -4.6575631,-0.7215093 -4.6600162,-0.7234331 -4.6659585,-0.725841 -4.6726615,-0.7271918 -4.6726615,-0.7271918 -4.6802528,-0.7256748 -4.6837596,-0.7244454 -4.6869241,-0.7226576 -4.6922715,-0.717481 -4.6968986,-0.7111298 -4.8662713,-0.4520739 -4.8661894,-0.6969761 -4.8661894,-0.6969761 -4.8665693,-0.7084643 -4.8677725,-0.7134879 -4.8701854,-0.717651 -4.8739167,-0.7208764 -4.8786607,-0.7233817 -4.8898364,-0.7271918 -4.8898364,-0.7271918 -4.9005363,-0.7248064 -4.9049549,-0.7227388 -4.90827,-0.7196348 -4.9104418,-0.7154569 -4.911746,-0.7104642 -4.9129086,-0.6991206 -4.9128266,-0.375935 -4.9128266,-0.375935 -4.9117088,-0.3658749 -4.9103224,-0.3614851 -4.9079493,-0.3578587 -4.9045137,-0.3550545 -4.9002647,-0.3528796 -4.8904111,-0.3495784z" transform="matrix(1,0,0,-1,6.35,1.07315)" fill="rgb(104,104,104)" fill-rule="nonzero" shaper:cutDepth="0.0000762" stroke-linecap="round" stroke-linejoin="round" /><path d="M-4.1098095,-1.0830758 L-3.9510595,-0.8081128 -3.9070655,-0.8335128 -4.0658155,-1.1084758 -4.1098095,-1.0830758z" transform="matrix(1,0,0,-1,6.35,1.07315)" fill="rgb(104,104,104)" fill-rule="nonzero" shaper:cutDepth="0.0000762" stroke-linecap="round" stroke-linejoin="round" /><path d="M-3.254375,-0.6399905 L-3.571875,-0.6399905 -3.571875,-0.5891905 -3.254375,-0.5891905 -3.254375,-0.6399905z" transform="matrix(1,0,0,-1,6.35,1.07315)" fill="rgb(104,104,104)" fill-rule="nonzero" shaper:cutDepth="0.0000762" stroke-linecap="round" stroke-linejoin="round" /><path d="M-4.2784854,-0.3147809 L-4.0035223,-0.4735309 -4.0289223,-0.517525 -4.3038854,-0.358775 -4.2784854,-0.3147809z" transform="matrix(1,0,0,-1,6.35,1.07315)" fill="rgb(104,104,104)" fill-rule="nonzero" shaper:cutDepth="0.0000762" stroke-linecap="round" stroke-linejoin="round" /><path d="M-3.96875,-0.6145905 a0.15875,0.15875 0 1,1 0.3175,0 a0.15875,0.15875 0 1,1 -0.3175,0z" transform="matrix(1,0,0,-1,6.35,1.07315)" fill="rgb(255,255,255)" stroke="rgb(0,0,0)" stroke-width="0.0010cm" stroke-linecap="round" stroke-linejoin="round" shaper:cutDepth="0.0015875" /></svg>