M48
; DRILL file {KiCad 7.0.5} date Mon May 29 22:29:03 2023
; FORMAT={-:-/ absolute / inch / decimal}
; #@! TF.CreationDate,2023-05-29T22:29:03-08:00
; #@! TF.GenerationSoftware,Kicad,Pcbnew,7.0.5
; #@! TF.FileFunction,Plated,1,2,PTH
FMAT,2
INCH
; #@! TA.AperFunction,Plated,PTH,ViaDrill
T1C0.0157
; #@! TA.AperFunction,Plated,PTH,ComponentDrill
T2C0.0276
; #@! TA.AperFunction,Plated,PTH,ViaDrill
T3C0.0295
; #@! TA.AperFunction,Plated,PTH,ComponentDrill
T4C0.0354
; #@! TA.AperFunction,Plated,PTH,ComponentDrill
T5C0.0551
%
G90
G05
T1
X3.3417Y-4.2922
X3.3494Y-3.0125
X3.5935Y-2.4171
X3.6118Y-3.753
X3.7122Y-3.5162
X3.8449Y-5.1147
X3.8496Y-3.7568
X3.9045Y-4.8239
X3.9167Y-1.8989
X3.9287Y-2.395
X3.9465Y-5.325
X3.9594Y-1.7899
X3.9937Y-3.5159
X4.0738Y-4.518
X4.1008Y-3.8039
X4.1058Y-4.7603
X4.2142Y-5.134
X4.2661Y-2.0426
X4.2968Y-3.1891
X4.3382Y-4.2915
X4.3405Y-2.6643
X4.3618Y-5.117
X4.4193Y-2.4921
X4.4386Y-5.3611
X4.4871Y-1.9068
X4.5132Y-2.3365
X4.5938Y-3.9263
X4.622Y-2.4765
X4.6729Y-4.7813
X4.6775Y-3.6036
X4.6847Y-1.9238
X4.6867Y-3.7144
X4.7732Y-5.145
X4.8302Y-2.3889
X4.9705Y-4.8241
X5.0098Y-3.3792
X5.1052Y-2.3538
X5.1634Y-3.7273
X5.1657Y-3.9072
X5.2502Y-4.4873
X5.3047Y-2.8753
T2
X3.2547Y-3.5533
X3.2559Y-3.8466
X4.3626Y-5.9481
X4.9023Y-5.0214
T3
X4.1352Y-2.4106
T4
X4.2013Y-4.6268
X4.3013Y-4.6268
T5
X4.6437Y-5.6887
X4.6437Y-5.854
X4.6445Y-5.2647
X4.6445Y-5.43
X4.8602Y-5.6887
X4.8602Y-5.854
X4.861Y-5.2647
X4.861Y-5.43
T0
M30
