M48
; DRILL file {KiCad 7.0.2} date Sat May 27 12:22:30 2023
; FORMAT={-:-/ absolute / inch / decimal}
; #@! TF.CreationDate,2023-05-27T12:22:30-08:00
; #@! TF.GenerationSoftware,Kicad,Pcbnew,7.0.2
; #@! TF.FileFunction,Plated,1,2,PTH
FMAT,2
INCH
; #@! TA.AperFunction,Plated,PTH,ViaDrill
T1C0.0157
; #@! TA.AperFunction,Plated,PTH,ComponentDrill
T2C0.0276
; #@! TA.AperFunction,Plated,PTH,ViaDrill
T3C0.0295
; #@! TA.AperFunction,Plated,PTH,ComponentDrill
T4C0.0354
; #@! TA.AperFunction,Plated,PTH,ComponentDrill
T5C0.0551
%
G90
G05
T1
X5.25Y-4.03
X5.58Y-4.04
X5.69Y-4.19
X6.07Y-2.2
X6.08Y-3.85
X6.0835Y-2.0043
X6.13Y-4.52
X6.345Y-2.195
X6.3505Y-3.8495
T2
X4.8413Y-4.4067
X5.5701Y-5.4583
X5.9075Y-5.465
X5.9232Y-4.3972
T3
X5.95Y-4.15
X5.95Y-4.21
T4
X5.89Y-4.59
X5.99Y-4.59
T5
X5.1046Y-4.4035
X5.1046Y-4.62
X5.27Y-4.4035
X5.27Y-4.62
X5.53Y-4.4035
X5.53Y-4.62
X5.6954Y-4.4035
X5.6954Y-4.62
T0
M30
