M48
; DRILL file {KiCad (5.1.9)-1} date 02/13/21 15:05:41
; FORMAT={-:-/ absolute / inch / decimal}
; #@! TF.CreationDate,2021-02-13T15:05:41-08:00
; #@! TF.GenerationSoftware,Kicad,Pcbnew,(5.1.9)-1
FMAT,2
INCH
T1C0.0079
T2C0.0197
T3C0.0197
T4C0.1575
%
G90
G05
T1
X2.376Y-3.525
X2.3985Y-3.5575
X2.401Y-2.1394
X2.401Y-3.62
X2.4012Y-3.4298
X2.4035Y-3.4921
X2.406Y-1.7719
X2.4089Y-1.8652
X2.4113Y-2.5553
X2.4178Y-1.9145
X2.4185Y-1.5044
X2.4185Y-2.4344
X2.4185Y-2.9569
X2.4195Y-2.8319
X2.426Y-2.2294
X2.4374Y-1.8019
X2.4385Y-2.6269
X2.456Y-3.685
X2.4768Y-1.8008
X2.4785Y-1.8594
X2.485Y-2.2291
X2.485Y-2.6269
X2.486Y-2.9994
X2.486Y-1.4729
X2.4985Y-3.6597
X2.5254Y-2.6269
X2.5367Y-2.0326
X2.5385Y-2.4326
X2.5385Y-1.6319
X2.5385Y-2.8319
X2.546Y-1.4729
X2.546Y-1.7594
X2.546Y-1.9019
X2.546Y-2.2294
X2.546Y-3.0819
X2.546Y-2.9994
X2.5535Y-2.5794
X2.5585Y-2.6594
X2.581Y-3.6775
X2.5885Y-2.2294
X2.5887Y-2.597
X2.5893Y-2.9969
X2.591Y-1.4729
X2.591Y-1.8644
X2.591Y-3.43
X2.591Y-3.495
X2.5935Y-3.555
X2.5935Y-3.6203
X2.6135Y-3.525
X2.6435Y-2.6294
X2.6535Y-1.848
X2.6536Y-1.8087
X2.665Y-2.9545
X2.666Y-1.4729
X2.666Y-2.2344
X2.666Y-2.7125
X2.6685Y-3.0819
X2.6815Y-1.9027
X2.6932Y-3.525
X2.711Y-3.6225
X2.7135Y-3.555
X2.716Y-3.43
X2.721Y-3.495
X2.766Y-3.6775
X2.8035Y-3.6525
X2.8935Y-3.6825
X2.8986Y-3.5571
X2.9021Y-3.4919
X2.9035Y-3.62
X2.9045Y-3.4296
X2.9235Y-3.525
X2.9906Y-3.6478
X2.9916Y-2.1394
X2.9966Y-1.7719
X2.9995Y-1.8652
X3.0019Y-2.5553
X3.0084Y-1.9145
X3.0091Y-1.5044
X3.0091Y-2.4344
X3.0091Y-2.9569
X3.0101Y-2.8319
X3.0166Y-2.2294
X3.028Y-1.8019
X3.0291Y-2.6269
X3.0302Y-3.4654
X3.0365Y-3.5009
X3.0674Y-1.8008
X3.0691Y-1.8594
X3.0756Y-2.2291
X3.0756Y-2.6269
X3.0766Y-2.9994
X3.0766Y-1.4729
X3.092Y-3.4001
X3.0987Y-3.6505
X3.116Y-2.6269
X3.1168Y-3.5887
X3.1183Y-3.4812
X3.1273Y-2.0326
X3.1291Y-2.4326
X3.1291Y-1.6319
X3.1291Y-2.8319
X3.1366Y-1.4729
X3.1366Y-1.7594
X3.1366Y-1.9019
X3.1366Y-2.2294
X3.1366Y-3.0819
X3.1366Y-2.9994
X3.1394Y-3.4566
X3.1416Y-3.6269
X3.1441Y-2.5794
X3.1491Y-2.6594
X3.1652Y-3.5103
X3.1791Y-2.2294
X3.1793Y-2.597
X3.1799Y-2.9969
X3.1816Y-1.4729
X3.1816Y-1.8644
X3.2341Y-2.6294
X3.2441Y-1.848
X3.2442Y-1.8087
X3.2556Y-2.9545
X3.2566Y-1.4729
X3.2566Y-2.2344
X3.2566Y-2.7125
X3.2591Y-3.0819
X3.2654Y-3.4001
X3.2664Y-3.6505
X3.2721Y-1.9027
X3.2912Y-3.4843
X3.2916Y-3.5887
X3.305Y-3.6269
X3.3809Y-3.3711
X3.4014Y-3.48
X3.4345Y-3.6505
X3.4368Y-3.5261
X3.4396Y-3.4001
X3.4585Y-3.5887
X3.4616Y-3.3615
X3.4837Y-3.6269
X3.5073Y-3.3765
X3.5384Y-3.4615
X3.5762Y-3.4824
X3.5822Y-2.1394
X3.5872Y-1.7719
X3.5901Y-1.8652
X3.5925Y-2.5553
X3.599Y-1.9145
X3.5997Y-1.5044
X3.5997Y-2.4344
X3.5997Y-2.9569
X3.6007Y-2.8319
X3.6072Y-2.2294
X3.6105Y-3.6497
X3.6107Y-3.5103
X3.6144Y-3.3997
X3.6186Y-1.8019
X3.6197Y-2.6269
X3.6264Y-3.541
X3.658Y-1.8008
X3.6597Y-1.8594
X3.6662Y-2.2291
X3.6662Y-2.6269
X3.6668Y-3.4154
X3.6672Y-2.9994
X3.6672Y-1.4729
X3.7066Y-2.6269
X3.7116Y-3.4635
X3.716Y-3.5928
X3.7179Y-2.0326
X3.7197Y-2.4326
X3.7197Y-1.6319
X3.7197Y-2.8319
X3.7272Y-1.4729
X3.7272Y-1.7594
X3.7272Y-1.9019
X3.7272Y-2.2294
X3.7272Y-3.0819
X3.7272Y-2.9994
X3.7288Y-3.704
X3.7347Y-2.5794
X3.7397Y-2.6594
X3.7697Y-2.2294
X3.7699Y-2.597
X3.7705Y-2.9969
X3.7722Y-1.4729
X3.7722Y-1.8644
X3.7782Y-3.5241
X3.7833Y-3.652
X3.7983Y-3.6269
X3.8026Y-3.5028
X3.8227Y-3.4635
X3.8247Y-2.6294
X3.8275Y-3.5898
X3.8347Y-1.848
X3.8348Y-1.8087
X3.8462Y-2.9545
X3.8472Y-1.4729
X3.8472Y-2.2344
X3.8472Y-2.7125
X3.8497Y-3.0819
X3.8627Y-1.9027
X3.8885Y-3.4905
X3.8953Y-3.4435
X3.951Y-3.5245
X3.9609Y-3.6509
X3.9762Y-3.5028
X3.9829Y-3.4371
X3.9837Y-3.6269
X3.9983Y-3.4635
X3.9999Y-3.5898
X4.001Y-3.3775
X4.1278Y-3.5245
X4.1313Y-3.6509
X4.1518Y-3.5028
X4.1546Y-3.6269
X4.1718Y-3.5898
X4.1719Y-3.4635
X4.1728Y-2.1394
X4.1778Y-1.7719
X4.1807Y-1.8652
X4.1831Y-2.5553
X4.1896Y-1.9145
X4.1903Y-1.5044
X4.1903Y-2.4344
X4.1903Y-2.9569
X4.1913Y-2.8319
X4.1978Y-2.2294
X4.2092Y-1.8019
X4.2103Y-2.6269
X4.2486Y-1.8008
X4.2503Y-1.8594
X4.2568Y-2.2291
X4.2568Y-2.6269
X4.2578Y-2.9994
X4.2578Y-1.4729
X4.2972Y-2.6269
X4.2991Y-3.5245
X4.3085Y-2.0326
X4.3093Y-3.6509
X4.3103Y-2.4326
X4.3103Y-1.6319
X4.3103Y-2.8319
X4.3178Y-1.4729
X4.3178Y-1.7594
X4.3178Y-1.9019
X4.3178Y-2.2294
X4.3178Y-3.0819
X4.3178Y-2.9994
X4.325Y-3.5028
X4.3253Y-2.5794
X4.3258Y-3.6269
X4.3303Y-2.6594
X4.3364Y-3.4312
X4.3451Y-3.5245
X4.3603Y-2.2294
X4.3605Y-2.597
X4.3611Y-2.9969
X4.3628Y-1.4729
X4.3628Y-1.8644
X4.401Y-3.595
X4.4054Y-3.4646
X4.4153Y-2.6294
X4.4253Y-1.848
X4.4254Y-1.8087
X4.4368Y-2.9545
X4.4378Y-1.4729
X4.4378Y-2.2344
X4.4378Y-2.7125
X4.4403Y-3.0819
X4.4533Y-1.9027
X4.4679Y-3.6509
X4.4703Y-3.5245
X4.4947Y-3.4954
X4.4959Y-3.6225
X4.7632Y-2.1394
X4.7682Y-1.7719
X4.7711Y-1.8652
X4.7735Y-2.5553
X4.78Y-1.9145
X4.7807Y-1.5044
X4.7807Y-2.4344
X4.7807Y-2.9569
X4.7817Y-2.8319
X4.7882Y-2.2294
X4.7996Y-1.8019
X4.8007Y-2.6269
X4.839Y-1.8008
X4.8407Y-1.8594
X4.8472Y-2.2291
X4.8472Y-2.6269
X4.8482Y-2.9994
X4.8482Y-1.4729
X4.8876Y-2.6269
X4.8989Y-2.0326
X4.9007Y-2.4326
X4.9007Y-1.6319
X4.9007Y-2.8319
X4.9082Y-1.4729
X4.9082Y-1.7594
X4.9082Y-1.9019
X4.9082Y-2.2294
X4.9082Y-3.0819
X4.9082Y-2.9994
X4.9157Y-2.5794
X4.9207Y-2.6594
X4.9507Y-2.2294
X4.9509Y-2.597
X4.9515Y-2.9969
X4.9532Y-1.4729
X4.9532Y-1.8644
X5.0057Y-2.6294
X5.0157Y-1.848
X5.0158Y-1.8087
X5.0272Y-2.9545
X5.0282Y-1.4729
X5.0282Y-2.2344
X5.0282Y-2.7125
X5.0307Y-3.0819
X5.0437Y-1.9027
X5.3687Y-1.6939
X5.3687Y-2.3634
X5.4912Y-1.8514
X5.4912Y-2.5209
X5.5362Y-1.6939
X5.5362Y-2.3634
X5.5387Y-1.5714
X5.5387Y-2.2409
X5.5543Y-1.5167
X5.5543Y-2.1862
X5.6609Y-1.7335
X5.6609Y-2.3809
X5.6812Y-1.5701
X5.6812Y-2.2396
X5.7133Y-1.6573
X5.7133Y-2.3268
T2
X2.3479Y-1.5528
X2.3479Y-1.5922
X2.3479Y-1.6316
X2.3479Y-1.6709
X2.3479Y-1.7103
X2.3479Y-2.793
X2.3479Y-2.8324
X2.3479Y-2.8717
X2.3479Y-2.9111
X2.3479Y-2.9505
X2.5447Y-3.2694
X2.5447Y-3.7812
X2.5841Y-3.2694
X2.5841Y-3.7812
X2.6235Y-3.2694
X2.6235Y-3.7812
X2.6628Y-3.2694
X2.6628Y-3.7812
X2.7022Y-3.2694
X2.7416Y-1.5528
X2.7416Y-1.5922
X2.7416Y-1.6316
X2.7416Y-1.6709
X2.7416Y-1.7103
X2.7416Y-2.7536
X2.7416Y-2.793
X2.7416Y-2.8324
X2.7416Y-2.8717
X2.7416Y-2.9111
X2.7416Y-3.2694
X2.7809Y-3.2694
X2.8203Y-3.2694
X2.9385Y-1.5528
X2.9385Y-1.5922
X2.9385Y-1.6316
X2.9385Y-1.6709
X2.9385Y-1.7103
X2.9385Y-2.793
X2.9385Y-2.8324
X2.9385Y-2.8717
X2.9385Y-2.9111
X2.9385Y-2.9505
X3.1746Y-3.2694
X3.1746Y-3.7812
X3.214Y-3.2694
X3.214Y-3.7812
X3.2534Y-3.2694
X3.2534Y-3.7812
X3.2928Y-3.2694
X3.2928Y-3.7812
X3.3321Y-3.2694
X3.3322Y-1.5528
X3.3322Y-1.5922
X3.3322Y-1.6316
X3.3322Y-1.6709
X3.3322Y-1.7103
X3.3322Y-2.7536
X3.3322Y-2.793
X3.3322Y-2.8324
X3.3322Y-2.8717
X3.3322Y-2.9111
X3.3715Y-3.2694
X3.4109Y-3.2694
X3.5291Y-1.5528
X3.5291Y-1.5922
X3.5291Y-1.6316
X3.5291Y-1.6709
X3.5291Y-1.7103
X3.5291Y-2.793
X3.5291Y-2.8324
X3.5291Y-2.8717
X3.5291Y-2.9111
X3.5291Y-2.9505
X3.9228Y-1.5528
X3.9228Y-1.5922
X3.9228Y-1.6316
X3.9228Y-1.6709
X3.9228Y-1.7103
X3.9228Y-2.7536
X3.9228Y-2.793
X3.9228Y-2.8324
X3.9228Y-2.8717
X3.9228Y-2.9111
X3.962Y-3.2694
X3.962Y-3.7812
X4.0014Y-3.2694
X4.0014Y-3.7812
X4.0408Y-3.2694
X4.0408Y-3.7812
X4.0802Y-3.2694
X4.0802Y-3.7812
X4.1195Y-3.2694
X4.1195Y-3.7812
X4.1197Y-1.5528
X4.1197Y-1.5922
X4.1197Y-1.6316
X4.1197Y-1.6709
X4.1197Y-1.7103
X4.1197Y-2.793
X4.1197Y-2.8324
X4.1197Y-2.8717
X4.1197Y-2.9111
X4.1197Y-2.9505
X4.1589Y-3.2694
X4.1983Y-3.2694
X4.5134Y-1.5528
X4.5134Y-1.5922
X4.5134Y-1.6316
X4.5134Y-1.6709
X4.5134Y-1.7103
X4.5134Y-2.7536
X4.5134Y-2.793
X4.5134Y-2.8324
X4.5134Y-2.8717
X4.5134Y-2.9111
X4.7101Y-1.5528
X4.7101Y-1.5922
X4.7101Y-1.6316
X4.7101Y-1.6709
X4.7101Y-1.7103
X4.7101Y-2.793
X4.7101Y-2.8324
X4.7101Y-2.8717
X4.7101Y-2.9111
X4.7101Y-2.9505
X5.1038Y-1.5528
X5.1038Y-1.5922
X5.1038Y-1.6316
X5.1038Y-1.6709
X5.1038Y-1.7103
X5.1038Y-2.7536
X5.1038Y-2.793
X5.1038Y-2.8324
X5.1038Y-2.8717
X5.1038Y-2.9111
X5.3005Y-1.6158
X5.3005Y-1.6552
X5.3005Y-1.6945
X5.3005Y-1.7339
X5.3005Y-1.7733
X5.3005Y-2.2853
X5.3005Y-2.3247
X5.3005Y-2.364
X5.3005Y-2.4034
X5.3005Y-2.4428
X5.773Y-1.6158
X5.773Y-1.6552
X5.773Y-1.6945
X5.773Y-1.7339
X5.773Y-1.7733
X5.773Y-2.2853
X5.773Y-2.3247
X5.773Y-2.364
X5.773Y-2.4034
X5.773Y-2.4428
T3
X2.0936Y-1.4111
X2.094Y-3.8288
X2.1231Y-1.4111
X2.1235Y-3.8288
X2.1527Y-1.4111
X2.1531Y-3.8288
X2.1822Y-1.4111
X2.1826Y-3.8288
X2.2121Y-1.4111
X2.2121Y-3.8284
X2.2416Y-1.4111
X2.2416Y-3.8284
X2.2712Y-1.4111
X2.2712Y-3.8284
X2.3003Y-1.2339
X2.3003Y-1.2635
X2.3003Y-1.293
X2.3007Y-1.3225
X2.3007Y-1.352
X2.3007Y-1.3816
X2.3007Y-1.4347
X2.3007Y-1.4643
X2.3007Y-1.4938
X2.3007Y-3.0371
X2.3007Y-3.0666
X2.3007Y-3.0961
X2.3007Y-3.1709
X2.3007Y-3.2457
X2.3007Y-3.2753
X2.3007Y-3.3048
X2.3007Y-3.7457
X2.3007Y-3.7753
X2.3007Y-3.8048
X2.3007Y-3.858
X2.3007Y-3.8875
X2.3007Y-3.917
X2.3007Y-3.9469
X2.3007Y-3.9765
X2.3007Y-4.006
X2.3007Y-4.0355
X2.3243Y-1.4111
X2.3243Y-3.1198
X2.3243Y-3.2221
X2.3243Y-3.8284
X2.3538Y-1.4111
X2.3538Y-3.1198
X2.3538Y-3.2221
X2.3538Y-3.8284
X2.3834Y-1.4111
X2.3834Y-3.1198
X2.3834Y-3.2221
X2.3834Y-3.8284
X2.7062Y-1.4111
X2.7062Y-3.1198
X2.7062Y-3.2221
X2.7357Y-1.4111
X2.7357Y-3.1198
X2.7357Y-3.2221
X2.7357Y-3.2221
X2.7653Y-1.4111
X2.7653Y-3.1198
X2.7653Y-3.2221
X2.7889Y-1.4347
X2.7889Y-1.4643
X2.7889Y-1.4938
X2.7889Y-3.0371
X2.7889Y-3.0666
X2.7889Y-3.0961
X2.7948Y-3.2221
X2.8243Y-3.2221
X2.8401Y-1.4111
X2.8401Y-3.1198
X2.8538Y-3.2221
X2.8834Y-3.2221
X2.8912Y-1.4347
X2.8912Y-1.4643
X2.8912Y-1.4938
X2.8912Y-3.0371
X2.8912Y-3.0666
X2.8912Y-3.0961
X2.9149Y-1.4111
X2.9149Y-3.1198
X2.9149Y-3.2221
X2.9444Y-1.4111
X2.9444Y-3.1198
X2.9444Y-3.2221
X2.9739Y-1.4111
X2.9739Y-3.1198
X2.9739Y-3.2221
X3.2968Y-1.4111
X3.2968Y-3.1198
X3.2968Y-3.2221
X3.3263Y-1.4111
X3.3263Y-3.1198
X3.3263Y-3.2221
X3.3263Y-3.2221
X3.3558Y-1.4111
X3.3558Y-3.1198
X3.3558Y-3.2221
X3.3794Y-1.4347
X3.3794Y-1.4643
X3.3794Y-1.4938
X3.3794Y-3.0371
X3.3794Y-3.0666
X3.3794Y-3.0961
X3.3853Y-3.2221
X3.4149Y-3.2221
X3.4306Y-1.4111
X3.4306Y-3.1198
X3.4444Y-3.2221
X3.4739Y-3.2221
X3.4818Y-1.4347
X3.4818Y-1.4643
X3.4818Y-1.4938
X3.4818Y-3.0371
X3.4818Y-3.0666
X3.4818Y-3.0961
X3.5054Y-1.4111
X3.5054Y-3.1198
X3.5054Y-3.2221
X3.5349Y-1.4111
X3.5349Y-3.1198
X3.5349Y-3.2221
X3.5645Y-1.4111
X3.5645Y-3.1198
X3.5645Y-3.2221
X3.8873Y-1.4111
X3.8873Y-3.1198
X3.8873Y-3.2221
X3.9168Y-1.4111
X3.9168Y-3.1198
X3.9168Y-3.2221
X3.9168Y-3.2221
X3.9464Y-1.4111
X3.9464Y-3.1198
X3.9464Y-3.2221
X3.97Y-1.4347
X3.97Y-1.4643
X3.97Y-1.4938
X3.97Y-3.0371
X3.97Y-3.0666
X3.97Y-3.0961
X3.9759Y-3.2221
X4.0054Y-3.2221
X4.0212Y-1.4111
X4.0212Y-3.1198
X4.0349Y-3.2221
X4.0645Y-3.2221
X4.0723Y-1.4347
X4.0723Y-1.4643
X4.0723Y-1.4938
X4.0723Y-3.0371
X4.0723Y-3.0666
X4.0723Y-3.0961
X4.096Y-1.4111
X4.096Y-3.1198
X4.096Y-3.2221
X4.1255Y-1.4111
X4.1255Y-3.1198
X4.1255Y-3.2221
X4.155Y-1.4111
X4.155Y-3.1198
X4.155Y-3.2221
X4.4779Y-1.4111
X4.4779Y-3.1198
X4.4779Y-3.2221
X4.4779Y-3.8284
X4.5074Y-1.4111
X4.5074Y-3.1198
X4.5074Y-3.2221
X4.5074Y-3.8284
X4.5369Y-1.4111
X4.5369Y-3.1198
X4.5369Y-3.2221
X4.5369Y-3.8284
X4.5605Y-1.4347
X4.5605Y-1.4643
X4.5605Y-1.4938
X4.5605Y-3.0371
X4.5605Y-3.0666
X4.5605Y-3.0961
X4.5605Y-3.1709
X4.5605Y-3.2457
X4.5605Y-3.2753
X4.5605Y-3.3048
X4.5605Y-3.7457
X4.5605Y-3.7753
X4.5605Y-3.8048
X4.6117Y-1.4111
X4.6117Y-3.8284
X4.6629Y-1.4347
X4.6629Y-1.4643
X4.6629Y-1.4938
X4.6629Y-3.0371
X4.6629Y-3.0666
X4.6629Y-3.0961
X4.6629Y-3.1709
X4.6629Y-3.2457
X4.6629Y-3.2753
X4.6629Y-3.3048
X4.6629Y-3.7457
X4.6629Y-3.7753
X4.6629Y-3.8048
X4.6865Y-1.4111
X4.6865Y-3.1198
X4.6865Y-3.2221
X4.6865Y-3.8284
X4.716Y-1.4111
X4.716Y-3.1198
X4.716Y-3.2221
X4.716Y-3.8284
X4.7456Y-1.4111
X4.7456Y-3.1198
X4.7456Y-3.2221
X4.7456Y-3.8284
X5.0684Y-1.4111
X5.0684Y-3.1198
X5.0979Y-1.4111
X5.0979Y-3.1198
X5.1275Y-1.4111
X5.1275Y-3.1198
X5.1511Y-1.4347
X5.1511Y-1.4643
X5.1511Y-1.4938
X5.1511Y-1.8954
X5.1511Y-1.9249
X5.1511Y-1.9249
X5.1511Y-1.9544
X5.1511Y-1.9839
X5.1511Y-2.0135
X5.1511Y-2.043
X5.1511Y-2.0725
X5.1511Y-2.104
X5.1511Y-2.1335
X5.1511Y-2.1631
X5.1511Y-2.5646
X5.1511Y-2.5942
X5.1511Y-2.5942
X5.1511Y-2.6237
X5.1511Y-2.6532
X5.1511Y-2.6828
X5.1511Y-2.7123
X5.1511Y-2.7418
X5.1511Y-2.7733
X5.1511Y-2.8028
X5.1511Y-2.8324
X5.1511Y-3.0371
X5.1511Y-3.0666
X5.1511Y-3.0961
X5.1511Y-3.1493
X5.1511Y-3.1788
X5.1511Y-3.2083
X5.1806Y-3.1198
X5.2023Y-1.4111
X5.2101Y-3.1198
X5.2397Y-3.1198
X5.2534Y-1.4347
X5.2534Y-1.4643
X5.2534Y-1.4938
X5.2534Y-1.8954
X5.2534Y-1.9249
X5.2534Y-1.9544
X5.2534Y-2.0292
X5.2534Y-2.104
X5.2534Y-2.1335
X5.2534Y-2.1631
X5.2534Y-2.5646
X5.2534Y-2.5942
X5.2534Y-2.6237
X5.2534Y-2.6985
X5.2534Y-2.7733
X5.2534Y-2.8028
X5.2534Y-2.8324
X5.2771Y-1.4111
X5.2771Y-1.978
X5.2771Y-2.0804
X5.2771Y-2.6473
X5.2771Y-2.7497
X5.3066Y-1.4111
X5.3066Y-1.978
X5.3066Y-2.0804
X5.3066Y-2.6473
X5.3066Y-2.7497
X5.3361Y-1.4111
X5.3361Y-1.978
X5.3361Y-2.0804
X5.3361Y-2.6473
X5.3361Y-2.7497
X5.7377Y-1.4111
X5.7377Y-1.978
X5.7377Y-2.0804
X5.7377Y-2.6473
X5.7377Y-2.7497
X5.7377Y-3.8284
X5.7672Y-1.4111
X5.7672Y-1.978
X5.7672Y-2.0804
X5.7672Y-2.6473
X5.7672Y-2.7497
X5.7672Y-3.8284
X5.7968Y-1.4111
X5.7968Y-1.978
X5.7968Y-2.0804
X5.7968Y-2.6473
X5.7968Y-2.7497
X5.7968Y-3.8284
X5.82Y-1.2339
X5.82Y-1.2635
X5.82Y-1.293
X5.8204Y-1.3225
X5.8204Y-1.352
X5.8204Y-1.3816
X5.8204Y-1.4347
X5.8204Y-1.4643
X5.8204Y-1.4938
X5.8204Y-1.8954
X5.8204Y-1.9249
X5.8204Y-1.9544
X5.8204Y-2.0292
X5.8204Y-2.104
X5.8204Y-2.1335
X5.8204Y-2.1631
X5.8204Y-2.5646
X5.8204Y-2.5942
X5.8204Y-2.6237
X5.8204Y-2.6985
X5.8204Y-2.7733
X5.8204Y-2.8028
X5.8204Y-2.8324
X5.8204Y-3.7457
X5.8204Y-3.7753
X5.8204Y-3.8048
X5.8204Y-3.858
X5.8204Y-3.8875
X5.8204Y-3.917
X5.8204Y-3.9465
X5.8204Y-3.9761
X5.8204Y-4.0056
X5.8204Y-4.0351
X5.8499Y-1.4111
X5.8499Y-3.8284
X5.8794Y-1.4111
X5.8794Y-3.8284
X5.909Y-1.4111
X5.909Y-3.8284
X5.9385Y-3.8284
X5.942Y-1.4111
X5.968Y-3.8284
X5.9716Y-1.4111
X5.9975Y-3.8284
X6.0011Y-1.4111
X6.0271Y-3.8284
X6.0306Y-1.4111
T4
X2.1905Y-1.3009
X5.9306Y-1.3009
T0
M30
