<?xml version="1.0" encoding="utf-8"?>
<!-- Generator: Fusion 360, Shaper Origin Export Add-In, Version 1.6.10  -->
<svg xmlns="http://www.w3.org/2000/svg" xmlns:xlink="http://www.w3.org/1999/xlink" xmlns:shaper="http://www.shapertools.com/namespaces/shaper" shaper:fusionaddin="version:1.6.10" width="3.28422cm" height="3.28422cm" version="1.1" x="0cm" y="0cm" viewBox="0 0 3.28422 3.28422" enable-background="new 0 0 3.28422 3.28422" xml:space="preserve"><path d="M-1.64211,-0 a1.64211,1.64211 0 1,1 3.28422,0 a1.64211,1.64211 0 1,1 -3.28422,0z" transform="matrix(1,0,0,-1,1.64211,1.64211)" fill="rgb(0,0,0)" shaper:cutDepth="0.0015875" stroke-linecap="round" stroke-linejoin="round" /><path d="M0.1927304,1.0743281 A1.778,1.778 113.9522963 0,1 -0.7626897,0.0394701 L-0.6908078,0.0141832 A1.7018,1.7018 160.618963 0,0 -0.3613641,0.5755654 L-0.2870275,0.506935 -0.2353377,0.5629225 -0.3096743,0.6315529 A1.7018,1.7018 136.0027812 0,0 0.1547207,0.9721949 L0.195275,0.8809042 0.2649129,0.9118396 0.2236658,1.0046901 0.1927304,1.0743281z" transform="matrix(1,0,0,-1,1.64211,1.64211)" fill="rgb(104,104,104)" fill-rule="nonzero" shaper:cutDepth="0.0000762" stroke-linecap="round" stroke-linejoin="round" /><path d="M-0.3133112,-0.2289689 L-0.3133112,-0.2289689 -0.3302356,-0.2195694 -0.3302356,-0.2195694 -0.3453009,-0.2093755 -0.3592893,-0.1977493 -0.3720831,-0.1848165 -0.383626,-0.170757 -0.3939008,-0.1557463 -0.4027064,-0.1398311 -0.4099613,-0.1231506 -0.4154403,-0.1058044 -0.4154403,-0.1058044 -0.4189078,-0.0940288 -0.4231746,-0.082519 -0.4337462,-0.0603679 -0.4337462,-0.0603679 -0.4383069,-0.053698 -0.4440887,-0.0480571 -0.4509304,-0.0437622 -0.4585393,-0.0410496 -0.4665385,-0.0399475 -0.4745667,-0.0407739 -0.4821338,-0.0435949 -0.4889398,-0.0479494 -0.4889398,-0.0479494 -0.4926534,-0.0512494 -0.4959361,-0.0549772 -0.4986451,-0.0591406 -0.5007414,-0.0636437 -0.5020597,-0.068433 -0.502693,-0.0733593 -0.5019572,-0.0832497 -0.4990786,-0.0927429 -0.496743,-0.0971267 -0.4937489,-0.1010898 -0.4901737,-0.1045376 -0.4861094,-0.1073941 -0.4770283,-0.1113796 -0.4770283,-0.1113796 -0.475225,-0.1118241 -0.475225,-0.1118241 -0.469112,-0.1143775 -0.4642999,-0.1189459 -0.4610071,-0.1247059 -0.4601867,-0.1279281 -0.4599961,-0.1312477 -0.4599961,-0.1312477 -0.4604999,-0.1356781 -0.4618894,-0.1399124 -0.4642182,-0.1437135 -0.4673025,-0.1469323 -0.4709882,-0.1494403 -0.475145,-0.1510476 -0.4795734,-0.1515466 -0.4840051,-0.151063 -0.4840051,-0.151063 -0.4941511,-0.1476012 -0.5039745,-0.1432819 -0.5039745,-0.1432819 -0.5110123,-0.1388303 -0.5175797,-0.1337119 -0.5235577,-0.1279148 -0.5288177,-0.12146 -0.5332893,-0.1144358 -0.5369116,-0.1069383 -0.539658,-0.0990771 -0.5416179,-0.0909839 -0.5427866,-0.0827391 -0.5431648,-0.0744205 -0.5425757,-0.0661147 -0.5410515,-0.0579287 -0.5385663,-0.0499813 -0.5352185,-0.0423571 -0.5310243,-0.0351638 -0.5261778,-0.0283921 -0.5261778,-0.0283921 -0.5198257,-0.0211958 -0.512717,-0.0147472 -0.5048613,-0.0092315 -0.4963023,-0.0048877 -0.4872018,-0.0018408 -0.4777626,-0.000105 -0.4681742,0.0003616 -0.4585981,-0.000313 -0.4491347,-0.0019464 -0.4398984,-0.0045768 -0.4310621,-0.0083351 -0.4227674,-0.0131733 -0.4152178,-0.019107 -0.4085129,-0.0259817 -0.4026919,-0.0336185 -0.3977492,-0.0418525 -0.3977492,-0.0418525 -0.3901924,-0.0567392 -0.3835939,-0.0720691 -0.3835939,-0.0720691 -0.3793416,-0.0847274 -0.3758613,-0.0976193 -0.3719604,-0.1103812 -0.36644,-0.1225318 -0.36644,-0.1225318 -0.3582804,-0.1360956 -0.3491956,-0.1490582 -0.3389576,-0.161127 -0.327391,-0.1719253 -0.327391,-0.1719253 -0.3173105,-0.1796701 -0.2822739,-0.0798607 -0.2822739,-0.0798607 -0.2782833,-0.072972 -0.2754556,-0.0701607 -0.2720511,-0.0680869 -0.268224,-0.0669733 -0.2642395,-0.066825 -0.256496,-0.0686584 -0.2494526,-0.072363 -0.2465071,-0.0750513 -0.244277,-0.0783544 -0.243036,-0.0821411 -0.2428107,-0.0861231 -0.2444337,-0.0939129 -0.2874803,-0.216611 -0.2874803,-0.216611 -0.2891256,-0.2202396 -0.2914636,-0.2234639 -0.2944005,-0.2261546 -0.2978124,-0.2282115 -0.3015404,-0.2296151 -0.3054804,-0.2302031 -0.3094564,-0.2299767 -0.3133112,-0.2289689z" transform="matrix(1,0,0,-1,1.64211,1.64211)" fill="rgb(104,104,104)" fill-rule="nonzero" shaper:cutDepth="0.0000762" stroke-linecap="round" stroke-linejoin="round" /><path d="M0.1640467,-0.0888499 L0.1885293,-0.0510771 0.1885293,-0.0510771 0.1970412,-0.0390745 0.206391,-0.0277128 0.2116784,-0.0225945 0.2174948,-0.0180873 0.2237278,-0.0141754 0.2303993,-0.0110719 0.2374641,-0.0090127 0.2447399,-0.0079041 0.2520949,-0.0076857 0.2593981,-0.0085438 0.2664891,-0.0105069 0.2733091,-0.0132661 0.2861398,-0.0204563 0.2861398,-0.0204563 0.2932994,-0.0256183 0.2998853,-0.0314927 0.3057481,-0.0380903 0.3107254,-0.0453782 0.3145885,-0.0533045 0.3170954,-0.0617575 0.318272,-0.0704983 0.3182414,-0.0793185 0.4265698,-0.1027893 0.4009923,-0.1422106 0.2914975,-0.1177812 0.3797569,-0.1750153 0.3552744,-0.2127881 0.1640467,-0.0888499z M0.2630322,-0.0557748 L0.2630322,-0.0557748 0.25777,-0.0528228 0.2521334,-0.0506712 0.2462008,-0.0496563 0.2402184,-0.0503369 0.2346733,-0.052669 0.2299036,-0.056348 0.2258729,-0.0608323 0.2225113,-0.065842 0.2192338,-0.0709456 0.2704506,-0.104188 0.2749959,-0.0977451 0.2749959,-0.0977451 0.277999,-0.0923034 0.2800167,-0.0864317 0.2805041,-0.0802513 0.2791653,-0.0742014 0.2763502,-0.0686587 0.2725659,-0.0637242 0.2680449,-0.0594563 0.2630322,-0.0557748z" transform="matrix(1,0,0,-1,1.64211,1.64211)" fill="rgb(104,104,104)" fill-rule="nonzero" shaper:cutDepth="0.0000762" stroke-linecap="round" stroke-linejoin="round" /><path d="M0.0827202,-0.2348379 L0.1054536,-0.1927301 0.1054536,-0.1927301 0.1124757,-0.1796505 0.1211785,-0.1676323 0.1262136,-0.1621772 0.1316952,-0.1571673 0.1376812,-0.1527857 0.1442352,-0.1493034 0.1512088,-0.1467682 0.1584692,-0.1452252 0.1658749,-0.144763 0.1732864,-0.1451598 0.1805865,-0.1465061 0.1876832,-0.1486852 0.2011911,-0.1548281 0.2011911,-0.1548281 0.2127271,-0.1622537 0.2179207,-0.1667432 0.2226295,-0.1717385 0.2267458,-0.177232 0.2301865,-0.1831713 0.2329352,-0.1894611 0.2348566,-0.1960516 0.2360151,-0.2028159 0.2363671,-0.2096728 0.2360284,-0.216528 0.2349751,-0.2233118 0.2311788,-0.236496 0.2254427,-0.2489634 0.2200049,-0.2577408 0.3047701,-0.303487 0.283374,-0.3431179 0.0827202,-0.2348379z M0.1406077,-0.2046109 L0.1363164,-0.2125913 0.1883318,-0.2406737 0.1883318,-0.2406737 0.1915539,-0.2346009 0.1940988,-0.2282171 0.1956704,-0.2215323 0.1959227,-0.214676 0.1953421,-0.2112891 0.1941763,-0.2080576 0.1903099,-0.2023933 0.1851525,-0.1978591 0.1793207,-0.1942247 0.1793207,-0.1942247 0.1741065,-0.1918274 0.1686108,-0.1901782 0.1629144,-0.1894889 0.1571912,-0.1898571 0.1518237,-0.191829 0.1472975,-0.1953339 0.1436021,-0.1997171 0.1406077,-0.2046109z" transform="matrix(1,0,0,-1,1.64211,1.64211)" fill="rgb(104,104,104)" fill-rule="nonzero" shaper:cutDepth="0.0000762" stroke-linecap="round" stroke-linejoin="round" /><path d="M0.0506732,-0.5834184 L0.0508775,-0.5828235 -0.0342175,-0.5153921 -0.0198678,-0.471622 0.066975,-0.544413 0.1983662,-0.53741 0.1835698,-0.5826035 0.0603515,-0.5859115 0.0601472,-0.5865064 0.1704386,-0.6226458 0.1560812,-0.6665138 -0.060465,-0.595537 -0.0461076,-0.5516689 0.0506732,-0.5834184z" transform="matrix(1,0,0,-1,1.64211,1.64211)" fill="rgb(104,104,104)" fill-rule="nonzero" shaper:cutDepth="0.0000762" stroke-linecap="round" stroke-linejoin="round" /><path d="M0.0670177,-0.361954 L0.0496107,-0.404499 0.0970051,-0.4239023 0.1123402,-0.3864175 0.1518507,-0.4025617 0.1365156,-0.4400466 0.18391,-0.4594498 0.2015589,-0.4163325 0.2410694,-0.4324768 0.2062024,-0.5177401 -0.0071178,-0.4305007 0.0275073,-0.3458097 0.0670177,-0.361954z" transform="matrix(1,0,0,-1,1.64211,1.64211)" fill="rgb(104,104,104)" fill-rule="nonzero" shaper:cutDepth="0.0000762" stroke-linecap="round" stroke-linejoin="round" /><path d="M-0.6908078,0.0141832 L-0.6189258,-0.0111036 A1.6256,1.6256 160.618963 0,1 -0.7071784,-0.6626032 L-0.859216,-0.6731075 A1.778,1.778 183.9522963 0,0 -0.7626897,0.0394701 L-0.6908078,0.0141832z" transform="matrix(1,0,0,-1,1.64211,1.64211)" fill="rgb(104,104,104)" fill-rule="nonzero" shaper:cutDepth="0.0000762" stroke-linecap="round" stroke-linejoin="round" /><path d="M-0.1460584,-1.1080905 L-0.1427435,-1.0620362 -0.1427435,-1.0620362 -0.1413845,-1.0491194 -0.1390721,-1.0363398 -0.1371567,-1.0301346 -0.1343868,-1.0242597 -0.1308709,-1.0187995 -0.1267973,-1.0137402 -0.1267973,-1.0137402 -0.1216651,-1.0084981 -0.1158842,-1.003982 -0.1095691,-1.0002489 -0.1028355,-0.9973377 -0.0958378,-0.9951345 -0.0886428,-0.9937052 -0.081337,-0.9930378 -0.0740023,-0.9931651 -0.0740023,-0.9931651 -0.0668735,-0.9940738 -0.0599072,-0.9958362 -0.0532708,-0.9985913 -0.0471126,-1.0022922 -0.0416233,-1.0069293 -0.0368406,-1.0122931 -0.032748,-1.0181996 -0.0291946,-1.0244467 -0.0291946,-1.0244467 -0.0246563,-1.0180969 -0.0189212,-1.0127976 -0.0124021,-1.0084847 -0.0053199,-1.0051759 0.0021093,-1.0027452 0.0097647,-1.0011659 0.0175377,-1.0003322 0.0253536,-1.0003631 0.0253536,-1.0003631 0.0391616,-1.0025301 0.0458312,-1.0046435 0.0521867,-1.0075609 0.0581374,-1.0112382 0.0635784,-1.0156311 0.0684653,-1.0206351 0.0726327,-1.0262515 0.0760935,-1.0323293 0.0788584,-1.0387534 0.0809207,-1.0454373 0.0823751,-1.0522788 0.0837857,-1.0661907 0.083562,-1.0801721 0.0803627,-1.1245011 -0.1460584,-1.1080905z M-0.0527175,-1.0705918 L-0.0527175,-1.0705918 -0.0527102,-1.0648818 -0.0536214,-1.0592482 -0.0557096,-1.0539354 -0.058988,-1.049265 -0.0632454,-1.0454646 -0.0682432,-1.0427072 -0.0736941,-1.0410169 -0.0793455,-1.0402034 -0.0793455,-1.0402034 -0.0849338,-1.0401683 -0.0904362,-1.0411194 -0.0956413,-1.0431474 -0.1002321,-1.0463273 -0.1038844,-1.0505504 -0.1063724,-1.0555527 -0.1077323,-1.0609698 -0.1082717,-1.0665322 -0.0527175,-1.0705918z M0.0489513,-1.0779514 L0.0489513,-1.0779514 0.049196,-1.0716197 0.0483498,-1.0653381 0.046148,-1.059401 0.0424972,-1.0542311 0.0377341,-1.0500447 0.0321605,-1.0470166 0.0261037,-1.0451384 0.0198267,-1.044214 0.0198267,-1.044214 0.0136533,-1.0442465 0.0075957,-1.0454254 0.0019206,-1.0478496 -0.0030885,-1.0514542 -0.0072151,-1.0560313 -0.010137,-1.0614564 -0.0118682,-1.0673752 -0.0126225,-1.0734987 0.0489513,-1.0779514z" transform="matrix(1,0,0,-1,1.64211,1.64211)" fill="rgb(104,104,104)" fill-rule="nonzero" shaper:cutDepth="0.0000762" stroke-linecap="round" stroke-linejoin="round" /><path d="M0.150942,-0.6822084 L0.1397295,-0.7292004 0.100445,-0.728525 0.0897709,-0.7731745 0.1251814,-0.7900813 0.1147196,-0.8337818 -0.0967208,-0.7285978 -0.0856146,-0.6822084 0.150942,-0.6822084z M-0.0340293,-0.721057 L-0.0009863,-0.7339746 0.0570555,-0.7578388 0.0644547,-0.7268071 0.0015002,-0.7236257 -0.0338853,-0.7204771 -0.0340293,-0.721057z" transform="matrix(1,0,0,-1,1.64211,1.64211)" fill="rgb(104,104,104)" fill-rule="nonzero" shaper:cutDepth="0.0000762" stroke-linecap="round" stroke-linejoin="round" /><path d="M-0.1330937,-0.9446218 L-0.1261712,-0.8995599 -0.1261712,-0.8995599 -0.1233061,-0.8847684 -0.119447,-0.8702051 -0.1167622,-0.8631656 -0.1133671,-0.8564401 -0.109351,-0.850065 -0.1046243,-0.844198 -0.0990975,-0.8390781 -0.0928999,-0.8347931 -0.0862266,-0.8312945 -0.0791117,-0.8288407 -0.0716971,-0.8275299 -0.064174,-0.8271327 -0.0491687,-0.8283803 -0.0491687,-0.8283803 -0.0404293,-0.8301819 -0.0319396,-0.8329266 -0.0238745,-0.8367427 -0.0163508,-0.8415384 -0.0096365,-0.8474042 -0.0039768,-0.8542926 0.0005477,-0.8619759 0.0040172,-0.8701924 0.1127019,-0.8458792 0.1052852,-0.8939768 -0.0048536,-0.9182351 0.0991156,-0.9342101 0.0921931,-0.979272 -0.1330937,-0.9446218z M-0.0558908,-0.8703834 L-0.0558908,-0.8703834 -0.0621635,-0.8698941 -0.068432,-0.8704205 -0.0744043,-0.87234 -0.0795868,-0.8758794 -0.0835595,-0.8807395 -0.0863314,-0.8863812 -0.0881048,-0.8924157 -0.0891447,-0.8986196 -0.0901262,-0.9051055 -0.0297574,-0.9143711 -0.028178,-0.9060401 -0.028178,-0.9060401 -0.0275836,-0.8996285 -0.0280113,-0.8932094 -0.0297904,-0.8870379 -0.0332569,-0.8816327 -0.0380235,-0.8773052 -0.0435725,-0.874038 -0.0496029,-0.8717803 -0.0558908,-0.8703834z" transform="matrix(1,0,0,-1,1.64211,1.64211)" fill="rgb(104,104,104)" fill-rule="nonzero" shaper:cutDepth="0.0000762" stroke-linecap="round" stroke-linejoin="round" /><path d="M-0.0647564,0.3979579 L-0.0647564,0.3979579 -0.0751872,0.4007903 -0.0859417,0.4018267 -0.0967007,0.4008781 -0.1070944,0.3979319 -0.1167869,0.3931666 -0.125358,0.386591 -0.1324705,0.3784587 -0.1381074,0.3692387 -0.1381074,0.3692387 -0.1384564,0.3684134 -0.1384564,0.3684134 -0.1396628,0.365836 -0.1396628,0.365836 -0.1415664,0.3631389 -0.1439292,0.3608352 -0.1466399,0.3589522 -0.1496508,0.357599 -0.1496508,0.357599 -0.1533739,0.3564987 -0.1572518,0.3562679 -0.1610934,0.3568241 -0.1647988,0.3579906 -0.1647988,0.3579906 -0.1685195,0.3600825 -0.1685195,0.3600825 -0.1717812,0.3626142 -0.1744341,0.3657726 -0.1761574,0.3695227 -0.1768022,0.3735988 -0.1892676,0.4594521 -0.2350469,0.4099438 -0.2350469,0.4099438 -0.2383413,0.4070136 -0.2421655,0.4048221 -0.2463981,0.4035907 -0.250797,0.4032949 -0.2551656,0.4038893 -0.2592878,0.4054499 -0.2628819,0.4080012 -0.2658711,0.4112423 -0.2658711,0.4112423 -0.2695499,0.4174162 -0.2705911,0.4208647 -0.2708428,0.4244558 -0.2702889,0.4280123 -0.2689499,0.4313571 -0.2647826,0.4372129 -0.19016,0.5179253 -0.19016,0.5179253 -0.1845301,0.5225926 -0.1811957,0.5241092 -0.1776181,0.5248948 -0.1739549,0.5248465 -0.1703785,0.5240535 -0.1638213,0.5208063 -0.1638213,0.5208063 -0.1606026,0.5181893 -0.1579362,0.5150177 -0.1561382,0.5112805 -0.155394,0.5072029 -0.1433813,0.4237917 -0.1433813,0.4237917 -0.1359048,0.4287579 -0.1359048,0.4287579 -0.1345488,0.429618 -0.1345488,0.429618 -0.1213806,0.4357205 -0.1074912,0.4399241 -0.0931302,0.4420103 -0.07862,0.4418529 -0.0642838,0.4396029 -0.050429,0.4352941 -0.037353,0.4290039 -0.025239,0.4210105 -0.025239,0.4210105 -0.0166156,0.4135954 -0.00902,0.4051291 -0.0025958,0.3957436 0.0026437,0.3856471 0.0067497,0.3750388 0.0096728,0.3640454 0.0113406,0.3527934 0.0117082,0.3414242 0.0117082,0.3414242 0.0110986,0.3328121 0.0098046,0.3242767 0.0077807,0.3158836 0.0049172,0.3077394 0.0013461,0.2998794 -0.003005,0.2924226 -0.0080018,0.2853826 -0.0135734,0.2787875 -0.0135734,0.2787875 -0.0196035,0.272728 -0.0260982,0.2671702 -0.0330478,0.2621922 -0.0403945,0.2578217 -0.0481265,0.2541766 -0.0561597,0.2512541 -0.0644171,0.2490428 -0.0728401,0.2475841 -0.0813522,0.2467955 -0.0899004,0.2467636 -0.0984199,0.2474647 -0.1068377,0.2489526 -0.1150882,0.251189 -0.1231172,0.2541238 -0.1308739,0.2577159 -0.1383154,0.2619235 -0.1383154,0.2619235 -0.1433298,0.2661255 -0.1433298,0.2661255 -0.1468274,0.2725425 -0.1478336,0.2760644 -0.1481135,0.2797141 -0.1475645,0.2833333 -0.146281,0.2867623 -0.1420592,0.2927261 -0.1420592,0.2927261 -0.1374701,0.2960924 -0.1322849,0.2984786 -0.1322849,0.2984786 -0.1282861,0.2989925 -0.1242574,0.2986655 -0.1203063,0.2978212 -0.1167561,0.2959347 -0.1167561,0.2959347 -0.1074358,0.2909727 -0.1024716,0.2891649 -0.0973084,0.288024 -0.0973084,0.288024 -0.0879052,0.2870799 -0.0784624,0.2873787 -0.069184,0.2891444 -0.0603643,0.292518 -0.0523324,0.2974868 -0.0453162,0.3038106 -0.0393369,0.3111253 -0.0343427,0.3191491 -0.0343427,0.3191491 -0.031662,0.3252813 -0.0298939,0.3317389 -0.0289412,0.3383641 -0.0286758,0.3450536 -0.0290167,0.3517399 -0.0300894,0.3583463 -0.03202,0.3647579 -0.0349771,0.3707612 -0.0349771,0.3707612 -0.0393634,0.3783818 -0.0393634,0.3783818 -0.0510223,0.389619 -0.0574086,0.39457 -0.0647564,0.3979579z" transform="matrix(1,0,0,-1,1.64211,1.64211)" fill="rgb(104,104,104)" fill-rule="nonzero" shaper:cutDepth="0.0000762" stroke-linecap="round" stroke-linejoin="round" /><path d="M0.2633345,0.6081649 L0.2409489,0.8162072 0.2409489,0.8162072 0.2408418,0.8172578 0.2408418,0.8172578 0.2410666,0.8217314 0.2422097,0.8260603 0.2444064,0.829962 0.2474138,0.8332805 0.2510371,0.8359127 0.25516,0.8376603 0.2595775,0.838392 0.2640556,0.8382913 0.2640556,0.8382913 0.2705544,0.8365411 0.2734965,0.8348966 0.2760733,0.8327237 0.27812,0.8300459 0.2796026,0.8270183 0.2810762,0.8204517 0.3004592,0.6398567 0.3641307,0.6681409 0.3401141,0.7221925 0.3401141,0.7221925 0.3383966,0.7276434 0.3382927,0.7333501 0.3400259,0.7387819 0.343225,0.7435167 0.3473973,0.7474205 0.352486,0.7500055 0.3581313,0.7508492 0.3637871,0.7500498 0.3637871,0.7500498 0.3680092,0.7484421 0.3717352,0.7458883 0.3747455,0.7425224 0.3769483,0.7385767 0.400965,0.6845251 0.4347327,0.6995011 0.4347327,0.6995011 0.4384701,0.7008144 0.4423651,0.7015217 0.4463209,0.7013101 0.4500837,0.7000841 0.4535041,0.6980896 0.4565761,0.6955887 0.4590962,0.6925379 0.4610375,0.6890868 0.4623186,0.685341 0.4628636,0.6814201 0.4626974,0.6774637 0.4618702,0.6735914 0.4602232,0.6699929 0.4577196,0.6669229 0.4545849,0.6645059 0.4510951,0.6626307 0.4173274,0.6476547 0.4173274,0.6476547 0.43039,0.6182438 0.43039,0.6182438 0.4320705,0.6130664 0.4323491,0.6076341 0.4308779,0.6024014 0.427991,0.5977956 0.427991,0.5977956 0.4242118,0.5942311 0.419718,0.5916309 0.4147085,0.590256 0.4095115,0.590167 0.4044236,0.5912092 0.399865,0.5936854 0.3962148,0.5973788 0.3936935,0.6019246 0.3936935,0.6019246 0.3804932,0.6312704 0.2915358,0.5917796 0.2915358,0.5917796 0.28702,0.5903151 0.2822892,0.5899461 0.2776269,0.5908301 0.2733045,0.5927933 0.2694918,0.5956213 0.2664508,0.5992652 0.2643782,0.6035333 0.2633345,0.6081649z" transform="matrix(1,0,0,-1,1.64211,1.64211)" fill="rgb(104,104,104)" fill-rule="nonzero" shaper:cutDepth="0.0000762" stroke-linecap="round" stroke-linejoin="round" /><path d="M0.6919109,0.5023517 L0.7290959,0.5291958 0.7290959,0.5291958 0.7414554,0.5373935 0.7543866,0.5446564 0.7612291,0.5475173 0.7683277,0.5496676 0.7756105,0.5510717 0.7830067,0.5516096 0.7903979,0.5509827 0.7976424,0.5493912 0.8046318,0.5469089 0.8111706,0.5434198 0.8171275,0.5390076 0.822543,0.5339409 0.8320014,0.5225276 0.8320014,0.5225276 0.8368549,0.5150882 0.8408746,0.5071687 0.8439489,0.4988357 0.8459698,0.4901871 0.8467024,0.4813421 0.8459336,0.4725025 0.8438486,0.4638743 0.8405907,0.4556152 0.9336662,0.3941998 0.8953498,0.3664985 0.8014247,0.4291432 0.8633842,0.3433839 0.8261993,0.3165398 0.6919109,0.5023517z M0.7969594,0.4978805 L0.7969594,0.4978805 0.7931501,0.5025669 0.7886754,0.506623 0.7834642,0.5096431 0.7776332,0.5111524 0.7716138,0.5109495 0.7658258,0.5092511 0.7604545,0.5064983 0.7555041,0.5030421 0.7505938,0.4994854 0.7862205,0.4501418 0.7927745,0.454555 0.7927745,0.454555 0.7975443,0.4585235 0.8015562,0.4632527 0.804315,0.4687973 0.8052953,0.4749071 0.8047058,0.4810851 0.8029688,0.4870446 0.8003097,0.492653 0.7969594,0.4978805z" transform="matrix(1,0,0,-1,1.64211,1.64211)" fill="rgb(104,104,104)" fill-rule="nonzero" shaper:cutDepth="0.0000762" stroke-linecap="round" stroke-linejoin="round" /><path d="M0.9363621,0.6161368 L0.8973428,0.592038 0.9238994,0.5489237 0.9582581,0.570136 0.9798538,0.5351363 0.945495,0.513924 0.9737128,0.4681174 1.0132676,0.4925092 1.0348633,0.4575095 0.9575788,0.4098834 0.8380174,0.6038036 0.9147665,0.6511365 0.9363621,0.6161368z" transform="matrix(1,0,0,-1,1.64211,1.64211)" fill="rgb(104,104,104)" fill-rule="nonzero" shaper:cutDepth="0.0000762" stroke-linecap="round" stroke-linejoin="round" /><path d="M0.5125592,0.2900258 L0.5125592,0.2900258 0.5100545,0.2869801 0.5083405,0.2834297 0.5076124,0.2795576 0.5078789,0.275623 0.5090317,0.2718543 0.510864,0.2683576 0.5158413,0.262256 0.5158413,0.262256 0.5220058,0.2574685 0.5255572,0.2558228 0.529323,0.2547713 0.5371003,0.2539433 0.5449269,0.2540342 0.5604674,0.2557991 0.5759507,0.2580517 0.5837593,0.2585342 0.5915819,0.2583272 0.5993387,0.2573338 0.6069464,0.2555176 0.6143089,0.2528758 0.621208,0.2491989 0.6275338,0.2445962 0.6333174,0.2393293 0.6333174,0.2393293 0.642199,0.2292024 0.6493837,0.2178124 0.6522159,0.2116996 0.6544206,0.2053324 0.6558994,0.1987595 0.6566392,0.1920628 0.6565684,0.1853255 0.6557233,0.178642 0.6541147,0.1720984 0.6518366,0.1657581 0.6488538,0.1597165 0.6452451,0.1540252 0.6365454,0.1437481 0.6365454,0.1437481 0.6288371,0.1370618 0.6203003,0.1314641 0.6110829,0.1270908 0.6012325,0.1244434 0.5709048,0.1546489 0.5709048,0.1546489 0.5797145,0.1572249 0.5882038,0.1607143 0.5960207,0.1655023 0.6029516,0.1715096 0.6029516,0.1715096 0.6059717,0.1751544 0.608213,0.179323 0.6094847,0.1838815 0.6098424,0.1886023 0.6091985,0.1932885 0.6074911,0.1977079 0.6049713,0.2017112 0.6018331,0.2052588 0.6018331,0.2052588 0.5978564,0.2086976 0.5933126,0.2113263 0.5883143,0.2129579 0.5831125,0.2137256 0.5726134,0.2133908 0.5621809,0.2120528 0.5621809,0.2120528 0.541411,0.2086491 0.5309069,0.2080616 0.5204249,0.2089478 0.5102323,0.2115338 0.50061,0.2157741 0.4918602,0.2216072 0.4839733,0.2285702 0.4839733,0.2285702 0.475759,0.2379841 0.4690752,0.2485357 0.4642232,0.2600446 0.4626343,0.266089 0.4616326,0.2722583 0.4613105,0.2784995 0.4617911,0.2847315 0.4629702,0.2908683 0.4648611,0.2968266 0.4674036,0.3025353 0.4706137,0.3078997 0.4786259,0.3174789 0.4786259,0.3174789 0.4864571,0.3243636 0.4951905,0.3300542 0.5046252,0.3344923 0.5145279,0.3377622 0.5455178,0.306953 0.5455178,0.306953 0.5364957,0.3043612 0.5277925,0.3008417 0.5196995,0.2961083 0.5125592,0.2900258z" transform="matrix(1,0,0,-1,1.64211,1.64211)" fill="rgb(104,104,104)" fill-rule="nonzero" shaper:cutDepth="0.0000762" stroke-linecap="round" stroke-linejoin="round" /><path d="M0.6797249,0.3006858 L0.6797249,0.3006858 0.6889015,0.2900335 0.6889015,0.2900335 0.6967139,0.2826093 0.7012723,0.2797184 0.7062657,0.2776959 0.7115848,0.2768486 0.7169147,0.2775309 0.7218172,0.2797873 0.7261499,0.2829943 0.7261499,0.2829943 0.7304267,0.2872316 0.733776,0.2922239 0.7353615,0.2980113 0.7349195,0.303995 0.7327507,0.30961 0.7295486,0.314711 0.7220435,0.3241318 0.6187094,0.4444903 0.6524315,0.473419 0.7618507,0.3459615 0.7618507,0.3459615 0.7702533,0.3350774 0.7741114,0.3293831 0.7774561,0.3233747 0.7799633,0.3169726 0.7816127,0.3102953 0.7823347,0.3034574 0.7819326,0.2965926 0.7805018,0.2898662 0.7783346,0.2833367 0.7754355,0.2771033 0.771776,0.2712815 0.7629196,0.2607704 0.7528966,0.251355 0.7528966,0.251355 0.7424049,0.2433002 0.7309629,0.2366705 0.724878,0.2340695 0.7185525,0.2321369 0.7120579,0.2308711 0.7054606,0.2303887 0.6988595,0.2308204 0.6923911,0.2322 0.686191,0.2345126 0.6803241,0.2375655 0.669717,0.2454584 0.6604898,0.2549337 0.5490622,0.3846772 0.5827467,0.4136285 0.6797249,0.3006858z" transform="matrix(1,0,0,-1,1.64211,1.64211)" fill="rgb(104,104,104)" fill-rule="nonzero" shaper:cutDepth="0.0000762" stroke-linecap="round" stroke-linejoin="round" /><path d="M0.4105181,0.1809996 L0.4105181,0.1809996 0.4082376,0.1778003 0.4068238,0.1741334 0.4064045,0.1702328 0.4070441,0.166354 0.4084812,0.1626972 0.4105455,0.1593521 0.4159633,0.1536711 0.4159633,0.1536711 0.4224419,0.1493954 0.4260644,0.1479668 0.4298667,0.1471655 0.4376401,0.1468187 0.4454004,0.1473873 0.4607148,0.1501128 0.4759446,0.1533059 0.4836652,0.1542522 0.4914438,0.1545141 0.4992045,0.1540159 0.5068621,0.1526524 0.5143389,0.1505034 0.5214094,0.1472746 0.528001,0.1431405 0.5340909,0.1383007 0.5340909,0.1383007 0.5436251,0.1289093 0.5516202,0.1181812 0.5549138,0.112352 0.557583,0.1062131 0.5595919,0.0998265 0.5608174,0.0932455 0.5612897,0.0865678 0.5609927,0.0798796 0.5599659,0.0732645 0.5581934,0.0668085 0.5557133,0.0605901 0.5525863,0.0546694 0.5446819,0.0438766 0.5446819,0.0438766 0.5375522,0.0367567 0.5295402,0.0306426 0.5207325,0.0257508 0.5111819,0.0225575 0.4788843,0.050513 0.4788843,0.050513 0.4874843,0.0535094 0.4957509,0.0573298 0.5032398,0.0624898 0.5097278,0.0688673 0.5097278,0.0688673 0.512481,0.0726752 0.5143568,0.0769838 0.5152993,0.0815848 0.515232,0.0862847 0.5141824,0.0908634 0.5121859,0.0951199 0.5093981,0.0989006 0.5060545,0.1022058 0.5060545,0.1022058 0.5018654,0.1053381 0.4971634,0.1076142 0.4920978,0.1089163 0.4868864,0.1093782 0.4764795,0.1084251 0.4662027,0.1064535 0.4662027,0.1064535 0.4457757,0.1017869 0.4353718,0.100565 0.4249017,0.1007979 0.4146172,0.1027634 0.4047936,0.1063894 0.3957144,0.1116108 0.3874076,0.1179914 0.3874076,0.1179914 0.3786221,0.1267557 0.3712316,0.1367224 0.365541,0.1477457 0.3634753,0.1535988 0.3620066,0.1596299 0.3612024,0.1657847 0.3611498,0.1719919 0.3618141,0.1781631 0.3632108,0.1842117 0.3652922,0.1900598 0.3680497,0.1956216 0.3752848,0.2056969 0.3752848,0.2056969 0.3825406,0.2129917 0.3907534,0.2191852 0.3997543,0.2241691 0.4093136,0.2279796 0.442296,0.199458 0.442296,0.199458 0.4334381,0.1965444 0.4249836,0.1926091 0.417199,0.1874932 0.4105181,0.1809996z" transform="matrix(1,0,0,-1,1.64211,1.64211)" fill="rgb(104,104,104)" fill-rule="nonzero" shaper:cutDepth="0.0000762" stroke-linecap="round" stroke-linejoin="round" /><path d="M0.3498834,0.1065441 L0.322276,0.0701397 0.3628501,0.0394068 0.3871811,0.0714761 0.4210042,0.0458843 0.3966731,0.0138149 0.4372472,-0.0169179 0.4652094,0.0199909 0.4990098,-0.0056387 0.443742,-0.0786208 0.2611701,0.0596958 0.3160831,0.1321736 0.3498834,0.1065441z" transform="matrix(1,0,0,-1,1.64211,1.64211)" fill="rgb(104,104,104)" fill-rule="nonzero" shaper:cutDepth="0.0000762" stroke-linecap="round" stroke-linejoin="round" /><path d="M-1.4042791,0.6798196 a0.275,0.275 0 1,1 0.55,0 a0.275,0.275 0 1,1 -0.55,0z" transform="matrix(1,0,0,-1,1.64211,1.64211)" fill="rgb(255,255,255)" stroke="rgb(0,0,0)" stroke-width="0.0010cm" stroke-linecap="round" stroke-linejoin="round" shaper:cutDepth="0.0015875" /><path d="M0.8351805,-0.5505573 a0.079375,0.079375 0 1,1 0.15875,0 a0.079375,0.079375 0 1,1 -0.15875,0z" transform="matrix(1,0,0,-1,1.64211,1.64211)" fill="rgb(255,255,255)" stroke="rgb(0,0,0)" stroke-width="0.0010cm" stroke-linecap="round" stroke-linejoin="round" shaper:cutDepth="0.0015875" /></svg>