<?xml version="1.0" encoding="utf-8"?>
<!-- Generator: Fusion 360, Shaper Origin Export Add-In, Version 1.6.10  -->
<svg xmlns="http://www.w3.org/2000/svg" xmlns:xlink="http://www.w3.org/1999/xlink" xmlns:shaper="http://www.shapertools.com/namespaces/shaper" shaper:fusionaddin="version:1.6.10" width="1.7462741cm" height="0.238125cm" version="1.1" x="0cm" y="0cm" viewBox="0 0 1.7462741 0.238125" enable-background="new 0 0 1.7462741 0.238125" xml:space="preserve"><path d="M-0.5123885,-0.100103 A0.635,0.635 255.9637565 0,1 -0.3583784,-0.1190625 L0.7540745,-0.1190625 A0.1190625,0.1190625 270 0,1 0.7540745,0.1190625 L-0.3583784,0.1190625 A0.635,0.635 90 0,1 -0.5123885,0.100103 L-0.8635172,0.0123208 A0.0127,0.0127 104.0362435 0,1 -0.8635172,-0.0123208 L-0.5123885,-0.100103z" transform="matrix(1,0,0,-1,0.873137,0.1190625)" fill="rgb(0,0,0)" shaper:cutDepth="0.0015875" stroke-linecap="round" stroke-linejoin="round" /><path d="M0.7040745,0 a0.05,0.05 0 1,1 0.1,0 a0.05,0.05 0 1,1 -0.1,0z" transform="matrix(1,0,0,-1,0.873137,0.1190625)" fill="rgb(255,255,255)" stroke="rgb(0,0,0)" stroke-width="0.0010cm" stroke-linecap="round" stroke-linejoin="round" shaper:cutDepth="0.0015875" /></svg>