<?xml version="1.0" encoding="utf-8"?>
<!-- Generator: Fusion 360, Shaper Origin Export Add-In, Version 1.6.10  -->
<svg xmlns="http://www.w3.org/2000/svg" xmlns:xlink="http://www.w3.org/1999/xlink" xmlns:shaper="http://www.shapertools.com/namespaces/shaper" shaper:fusionaddin="version:1.6.10" width="3.28422cm" height="3.28422cm" version="1.1" x="0cm" y="0cm" viewBox="0 0 3.28422 3.28422" enable-background="new 0 0 3.28422 3.28422" xml:space="preserve"><path d="M-1.64211,1.0674854 a1.64211,1.64211 0 1,1 3.28422,0 a1.64211,1.64211 0 1,1 -3.28422,0z" transform="matrix(1,0,0,-1,1.64211,2.7095954)" fill="rgb(0,0,0)" shaper:cutDepth="0.0015875" stroke-linecap="round" stroke-linejoin="round" /><path d="M0.3167263,-0.1631191 L0.3167263,-0.1631191 0.3224614,-0.1882104 0.3224614,-0.1882104 0.3252828,-0.2093829 0.3261019,-0.2307298 0.3250713,-0.2520682 0.3225245,-0.2732805 0.3205911,-0.2837879 0.3180665,-0.2941687 0.3149188,-0.3043786 0.3110196,-0.3143245 0.306426,-0.3239704 0.3011305,-0.3332485 0.295096,-0.3420647 0.2883492,-0.3503479 0.2883492,-0.3503479 0.2779772,-0.3603103 0.2721475,-0.3645284 0.2659396,-0.3681702 0.259332,-0.3710163 0.2524423,-0.3730939 0.2453511,-0.374317 0.2381667,-0.3747223 0.2381667,-0.3747223 0.2264412,-0.3738643 0.2150293,-0.3710451 0.2043438,-0.3661544 0.1947448,-0.3593764 0.1864363,-0.3510618 0.1794058,-0.3416365 0.1735466,-0.3314373 0.168576,-0.3207727 0.1642095,-0.3098463 0.1604393,-0.2987009 0.1572575,-0.2873724 0.1546863,-0.2758912 0.1513079,-0.2526088 0.1501397,-0.2291111 0.1510516,-0.2056014 0.1541585,-0.1822818 0.1596205,-0.1593996 0.1632246,-0.1481999 0.1674623,-0.1372224 0.1723023,-0.1264983 0.178026,-0.1162237 0.1849092,-0.1066898 0.1931183,-0.0982726 0.202641,-0.0913826 0.2133075,-0.086452 0.2247121,-0.0836056 0.2364342,-0.0827075 0.2364342,-0.0827075 0.2440458,-0.083104 0.2515632,-0.0843561 0.25888,-0.086489 0.2658637,-0.0895407 0.2723985,-0.0934615 0.2783876,-0.0981759 0.2838387,-0.1035021 0.2887343,-0.1093442 0.2975244,-0.1217951 0.3052375,-0.1349382 0.3117335,-0.1487226 0.3167263,-0.1631191z M0.2657073,-0.3143837 L0.2657073,-0.3143837 0.2716171,-0.3033461 0.2761981,-0.2916914 0.2797182,-0.279673 0.2823141,-0.2674201 0.2841993,-0.2550369 0.2853241,-0.2425607 0.2857232,-0.2300407 0.2853909,-0.2175186 0.2843297,-0.2050368 0.2824167,-0.192658 0.2796963,-0.1804294 0.2760653,-0.1684419 0.271449,-0.156801 0.2654005,-0.1458405 0.2577836,-0.1359121 0.2485616,-0.1274536 0.2485616,-0.1274536 0.2438219,-0.1246676 0.2385848,-0.1230328 0.2385848,-0.1230328 0.2374498,-0.1230328 0.2374498,-0.1230328 0.2286022,-0.1258861 0.2207121,-0.130792 0.2141565,-0.1373785 0.2089616,-0.145096 0.2046595,-0.1533537 0.2010322,-0.161927 0.1980817,-0.1707572 0.1957347,-0.1797666 0.1925012,-0.1980973 0.1909215,-0.2166438 0.1908684,-0.2352607 0.1913349,-0.2445596 0.1924049,-0.2538062 0.1924049,-0.2538062 0.1958683,-0.27008 0.2007105,-0.2860059 0.2068623,-0.3014676 0.2149386,-0.3160144 0.2198461,-0.3227338 0.2257833,-0.3285554 0.2329055,-0.332825 0.2368529,-0.3341426 0.2409674,-0.3347285 0.2450887,-0.3341885 0.2489172,-0.3325632 0.2554817,-0.3274798 0.2609647,-0.321223 0.2657073,-0.3143837z" transform="matrix(1,0,0,-1,1.64211,2.7095954)" fill="rgb(109,109,109)" fill-rule="nonzero" shaper:cutDepth="0.0001524" stroke-linecap="round" stroke-linejoin="round" /><path d="M0.1031438,-0.1631191 L0.1031438,-0.1631191 0.1088789,-0.1882104 0.1088789,-0.1882104 0.1117003,-0.2093829 0.1125194,-0.2307298 0.1114888,-0.2520682 0.108942,-0.2732805 0.1070087,-0.2837879 0.104484,-0.2941687 0.1013363,-0.3043786 0.0974371,-0.3143245 0.0928435,-0.3239704 0.087548,-0.3332485 0.0815135,-0.3420647 0.0747667,-0.3503479 0.0747667,-0.3503479 0.0643947,-0.3603103 0.058565,-0.3645284 0.0523571,-0.3681702 0.0457495,-0.3710163 0.0388598,-0.3730939 0.0317687,-0.374317 0.0245842,-0.3747223 0.0245842,-0.3747223 0.0128587,-0.3738643 0.0014468,-0.3710451 -0.0092387,-0.3661544 -0.0188377,-0.3593764 -0.0271462,-0.3510618 -0.0341767,-0.3416365 -0.0400359,-0.3314373 -0.0450065,-0.3207727 -0.049373,-0.3098463 -0.0531432,-0.2987009 -0.056325,-0.2873724 -0.0588962,-0.2758912 -0.0622745,-0.2526088 -0.0634428,-0.2291111 -0.0625309,-0.2056014 -0.059424,-0.1822818 -0.053962,-0.1593996 -0.0503578,-0.1481999 -0.0461202,-0.1372224 -0.0412802,-0.1264983 -0.0355565,-0.1162237 -0.0286733,-0.1066898 -0.0204642,-0.0982726 -0.0109415,-0.0913826 -0.000275,-0.086452 0.0111296,-0.0836056 0.0228517,-0.0827075 0.0228517,-0.0827075 0.0304633,-0.083104 0.0379807,-0.0843561 0.0452975,-0.086489 0.0522812,-0.0895407 0.058816,-0.0934615 0.0648051,-0.0981759 0.0702562,-0.1035021 0.0751518,-0.1093442 0.0839419,-0.1217951 0.091655,-0.1349382 0.098151,-0.1487226 0.1031438,-0.1631191z M0.0521248,-0.3143837 L0.0521248,-0.3143837 0.0580346,-0.3033461 0.0626156,-0.2916914 0.0661357,-0.279673 0.0687316,-0.2674201 0.0706168,-0.2550369 0.0717416,-0.2425607 0.0721407,-0.2300407 0.0718084,-0.2175186 0.0707472,-0.2050368 0.0688343,-0.192658 0.0661138,-0.1804294 0.0624828,-0.1684419 0.0578665,-0.156801 0.051818,-0.1458405 0.0442011,-0.1359121 0.0349791,-0.1274536 0.0349791,-0.1274536 0.0302394,-0.1246676 0.0250024,-0.1230328 0.0250024,-0.1230328 0.0238673,-0.1230328 0.0238673,-0.1230328 0.0150197,-0.1258861 0.0071296,-0.130792 0.000574,-0.1373785 -0.0046209,-0.145096 -0.008923,-0.1533537 -0.0125503,-0.161927 -0.0155008,-0.1707572 -0.0178478,-0.1797666 -0.0210813,-0.1980973 -0.022661,-0.2166438 -0.0227141,-0.2352607 -0.0222476,-0.2445596 -0.0211776,-0.2538062 -0.0211776,-0.2538062 -0.0177142,-0.27008 -0.012872,-0.2860059 -0.0067202,-0.3014676 0.0013561,-0.3160144 0.0062636,-0.3227338 0.0122008,-0.3285554 0.019323,-0.332825 0.0232704,-0.3341426 0.0273849,-0.3347285 0.0315062,-0.3341885 0.0353347,-0.3325632 0.0418992,-0.3274798 0.0473822,-0.321223 0.0521248,-0.3143837z" transform="matrix(1,0,0,-1,1.64211,2.7095954)" fill="rgb(109,109,109)" fill-rule="nonzero" shaper:cutDepth="0.0001524" stroke-linecap="round" stroke-linejoin="round" /><path d="M-0.1104387,-0.1631191 L-0.1104387,-0.1631191 -0.1047036,-0.1882104 -0.1047036,-0.1882104 -0.1018822,-0.2093829 -0.1010631,-0.2307298 -0.1020937,-0.2520682 -0.1046405,-0.2732805 -0.1065738,-0.2837879 -0.1090985,-0.2941687 -0.1122462,-0.3043786 -0.1161454,-0.3143245 -0.120739,-0.3239704 -0.1260345,-0.3332485 -0.132069,-0.3420647 -0.1388158,-0.3503479 -0.1388158,-0.3503479 -0.1491878,-0.3603103 -0.1550174,-0.3645284 -0.1612254,-0.3681702 -0.167833,-0.3710163 -0.1747227,-0.3730939 -0.1818138,-0.374317 -0.1889983,-0.3747223 -0.1889983,-0.3747223 -0.2007238,-0.3738643 -0.2121357,-0.3710451 -0.2228212,-0.3661544 -0.2324202,-0.3593764 -0.2407287,-0.3510618 -0.2477592,-0.3416365 -0.2536184,-0.3314373 -0.258589,-0.3207727 -0.2629555,-0.3098463 -0.2667257,-0.2987009 -0.2699075,-0.2873724 -0.2724787,-0.2758912 -0.275857,-0.2526088 -0.2770253,-0.2291111 -0.2761134,-0.2056014 -0.2730065,-0.1822818 -0.2675445,-0.1593996 -0.2639403,-0.1481999 -0.2597027,-0.1372224 -0.2548627,-0.1264983 -0.249139,-0.1162237 -0.2422558,-0.1066898 -0.2340467,-0.0982726 -0.224524,-0.0913826 -0.2138574,-0.086452 -0.2024529,-0.0836056 -0.1907308,-0.0827075 -0.1907308,-0.0827075 -0.1831192,-0.083104 -0.1756017,-0.0843561 -0.168285,-0.086489 -0.1613013,-0.0895407 -0.1547665,-0.0934615 -0.1487774,-0.0981759 -0.1433263,-0.1035021 -0.1384307,-0.1093442 -0.1296406,-0.1217951 -0.1219275,-0.1349382 -0.1154315,-0.1487226 -0.1104387,-0.1631191z M-0.1614577,-0.3143837 L-0.1614577,-0.3143837 -0.1555479,-0.3033461 -0.1509669,-0.2916914 -0.1474468,-0.279673 -0.1448509,-0.2674201 -0.1429657,-0.2550369 -0.1418409,-0.2425607 -0.1414418,-0.2300407 -0.1417741,-0.2175186 -0.1428353,-0.2050368 -0.1447482,-0.192658 -0.1474687,-0.1804294 -0.1510997,-0.1684419 -0.155716,-0.156801 -0.1617645,-0.1458405 -0.1693814,-0.1359121 -0.1786034,-0.1274536 -0.1786034,-0.1274536 -0.1833431,-0.1246676 -0.1885801,-0.1230328 -0.1885801,-0.1230328 -0.1897152,-0.1230328 -0.1897152,-0.1230328 -0.1985628,-0.1258861 -0.2064529,-0.130792 -0.2130085,-0.1373785 -0.2182034,-0.145096 -0.2225055,-0.1533537 -0.2261328,-0.161927 -0.2290833,-0.1707572 -0.2314303,-0.1797666 -0.2346638,-0.1980973 -0.2362435,-0.2166438 -0.2362966,-0.2352607 -0.2358301,-0.2445596 -0.2347601,-0.2538062 -0.2347601,-0.2538062 -0.2312967,-0.27008 -0.2264545,-0.2860059 -0.2203027,-0.3014676 -0.2122264,-0.3160144 -0.2073189,-0.3227338 -0.2013817,-0.3285554 -0.1942595,-0.332825 -0.1903121,-0.3341426 -0.1861976,-0.3347285 -0.1820763,-0.3341885 -0.1782478,-0.3325632 -0.1716833,-0.3274798 -0.1662002,-0.321223 -0.1614577,-0.3143837z" transform="matrix(1,0,0,-1,1.64211,2.7095954)" fill="rgb(109,109,109)" fill-rule="nonzero" shaper:cutDepth="0.0001524" stroke-linecap="round" stroke-linejoin="round" /><path d="M0.1906021,0.2400572 L0.1906021,0.4921648 0.1906021,0.4921648 0.1925056,0.4998549 0.1941977,0.5034436 0.1965216,0.5066559 0.1995111,0.5092598 0.2030399,0.511066 0.2068702,0.5120918 0.2108261,0.5123873 0.2147818,0.5120958 0.2186147,0.5110787 0.2221275,0.509243 0.2251058,0.5066234 0.2274441,0.5034248 0.2291454,0.4998374 0.2311066,0.4921648 0.2311066,0.2400572 0.2311066,0.2400572 0.2291364,0.232427 0.2274257,0.2288715 0.2250885,0.225694 0.2220944,0.2231303 0.2185937,0.2213137 0.214766,0.2203633 0.2108316,0.220074 0.2068954,0.220342 0.203075,0.2213221 0.1995569,0.223101 0.1965735,0.2256816 0.1942321,0.2288518 0.1925474,0.2324222 0.1906021,0.2400572z" transform="matrix(1,0,0,-1,1.64211,2.7095954)" fill="rgb(109,109,109)" fill-rule="nonzero" shaper:cutDepth="0.0001524" stroke-linecap="round" stroke-linejoin="round" /><path d="M0.1092104,0.3748332 L0.1117793,0.3735189 0.1140494,0.3722644 0.1140494,0.3722644 0.1186495,0.369576 0.1186495,0.369576 0.1251175,0.3649058 0.1311259,0.359659 0.1366065,0.3538617 0.1414137,0.3474959 0.1455697,0.3406869 0.148948,0.3334599 0.1516062,0.3259388 0.1535383,0.3181986 0.1535383,0.3181986 0.1551275,0.3050711 0.1547332,0.2918528 0.1547332,0.2918528 0.1530353,0.2823443 0.150142,0.273129 0.1461663,0.2643265 0.141148,0.2560734 0.1352399,0.2484317 0.1284924,0.241521 0.1209338,0.2355075 0.1126754,0.2304986 0.1126754,0.2304986 0.1036572,0.2263532 0.0942122,0.2233079 0.0844662,0.2214307 0.0745605,0.2208205 0.0745605,0.2208205 0.0584419,0.221315 0.0423964,0.222924 0.0264991,0.2256299 0.0108383,0.2294761 0.0032644,0.2322344 -0.0038052,0.2361143 -0.0102661,0.240935 -0.015964,0.2466387 -0.0208686,0.2530393 -0.0250685,0.259923 -0.0285601,0.2671902 -0.03148,0.2747071 -0.03148,0.2747071 -0.0340926,0.2844875 -0.0360801,0.2944216 -0.0360801,0.2944216 -0.036588,0.2993102 -0.0358801,0.3041716 -0.0339228,0.3086781 -0.030977,0.3126125 -0.0272544,0.3158075 -0.0228575,0.317966 -0.0180364,0.3188342 -0.0131395,0.3184973 -0.0131395,0.3184973 -0.0079229,0.3167557 -0.0033616,0.3136945 0.0001467,0.3094598 0.0025724,0.3045179 0.0029906,0.3032633 0.0029906,0.3032633 0.006097,0.2919659 0.0107839,0.2812331 0.0139666,0.2763117 0.0178435,0.2719191 0.0225147,0.2683868 0.0278606,0.2659951 0.0392248,0.263155 0.0508376,0.261585 0.0625406,0.2609442 0.0742618,0.2609068 0.0742618,0.2609068 0.0804815,0.2612383 0.0865979,0.2624005 0.0924713,0.2644707 0.0979092,0.2675027 0.1027011,0.2714777 0.1067519,0.2762083 0.110072,0.2814748 0.1126754,0.2871332 0.1126754,0.2871332 0.114469,0.2930535 0.1153091,0.299182 0.1151387,0.3053655 0.1140834,0.3114611 0.1121749,0.3173455 0.1094756,0.3229115 0.105935,0.3279838 0.101683,0.3324767 0.101683,0.3324767 0.0964804,0.3361988 0.0908101,0.3391678 0.0247961,0.3681422 0.0226455,0.3692773 0.0226455,0.3692773 0.0155968,0.3733434 0.0089252,0.3779993 0.0027213,0.3832659 -0.0028765,0.3891696 -0.0077821,0.3956613 -0.0118995,0.4026782 -0.0151648,0.4101308 -0.0175603,0.4179066 -0.0175603,0.4179066 -0.0193249,0.4263952 -0.0202488,0.4350147 -0.0201713,0.4436841 -0.019015,0.4522756 -0.0167741,0.46065 -0.0134931,0.4686744 -0.0092859,0.4762546 -0.0042702,0.4833263 0.0014212,0.4898663 0.0077464,0.4957954 0.0147195,0.5009462 0.0222812,0.5051856 0.0303222,0.5084255 0.0386885,0.5106976 0.0472625,0.511978 0.0559213,0.5124171 0.0715735,0.5119989 0.0715735,0.5119989 0.0864275,0.5092192 0.0937402,0.5073191 0.1007869,0.504591 0.1007869,0.504591 0.1087827,0.5002956 0.1161493,0.4949966 0.1227417,0.4887636 0.1282641,0.4815667 0.1375286,0.465955 0.1455928,0.4496889 0.1455928,0.4496889 0.1468473,0.4459849 0.1468473,0.4459849 0.1473126,0.4394849 0.1466591,0.4362819 0.1454135,0.4332601 0.1454135,0.4332601 0.1418888,0.4278834 0.1418888,0.4278834 0.1389017,0.4253145 0.1389017,0.4253145 0.135201,0.4231772 0.1311401,0.4218504 0.1268803,0.4215263 0.1226522,0.4221482 0.1226522,0.4221482 0.1183418,0.4236882 0.1145534,0.4262617 0.1114771,0.4296488 0.1090909,0.4335588 0.1090909,0.4335588 0.1011725,0.4505007 0.0961249,0.458354 0.0893763,0.4648034 0.0893763,0.4648034 0.0833429,0.4681487 0.0768307,0.4704788 0.0675708,0.4720918 0.0544875,0.47251 0.0544875,0.47251 0.0457711,0.4714132 0.0415644,0.4701228 0.0375937,0.4682288 0.0306348,0.4628769 0.0252143,0.4559617 0.0252143,0.4559617 0.0223548,0.4506033 0.0204989,0.4448205 0.0198048,0.4387876 0.0201363,0.4327224 0.0201363,0.4327224 0.0217285,0.4255 0.0247609,0.4187596 0.0292659,0.4128949 0.0349521,0.4081688 0.0349521,0.4081688 0.03776,0.4063168 0.039373,0.4055999 0.0410457,0.404883 0.1069402,0.3758488 0.1092104,0.3748332z" transform="matrix(1,0,0,-1,1.64211,2.7095954)" fill="rgb(109,109,109)" fill-rule="nonzero" shaper:cutDepth="0.0001524" stroke-linecap="round" stroke-linejoin="round" /><path d="M-0.125702,0.5041728 L-0.125702,0.5041728 -0.1187011,0.5004719 -0.1120703,0.4961433 -0.1058952,0.4911863 -0.1002813,0.4856013 -0.0952262,0.4795068 -0.0908559,0.4729025 -0.0870722,0.4659465 -0.0839147,0.458684 -0.0813416,0.4511945 -0.079455,0.443504 -0.0782321,0.4356797 -0.0778476,0.4277709 -0.0782506,0.4198623 -0.0794654,0.4120374 -0.0814627,0.4043748 -0.0841819,0.3969375 -0.0841819,0.3969375 -0.0895775,0.3861234 -0.096396,0.376149 -0.1045803,0.3672599 -0.1140172,0.3597146 -0.1244389,0.3536 -0.1356236,0.3490238 -0.1473399,0.3460631 -0.1593363,0.3446042 -0.1620844,0.344425 -0.2313841,0.344425 -0.2313841,0.2405351 -0.2313841,0.2405351 -0.2331978,0.2328144 -0.2348468,0.2292002 -0.2371722,0.225984 -0.2402046,0.2234239 -0.2437654,0.2216705 -0.2476154,0.2207015 -0.2515776,0.2204322 -0.2555407,0.2206929 -0.2593931,0.2216511 -0.2629584,0.2233944 -0.2659719,0.2259787 -0.2683013,0.2291901 -0.2699536,0.2328042 -0.2717094,0.2405351 -0.2717094,0.4924636 -0.2717094,0.4924636 -0.2699849,0.4997285 -0.2683613,0.5030964 -0.2661301,0.5060957 -0.2633157,0.5085553 -0.2600803,0.5104282 -0.2528909,0.5124171 -0.1593363,0.5124171 -0.1593363,0.5124171 -0.150686,0.5114726 -0.1421465,0.5098049 -0.1337867,0.5073893 -0.125702,0.5041728z M-0.1620844,0.38481 L-0.1620844,0.38481 -0.1542541,0.3854574 -0.146686,0.3875568 -0.1396488,0.3910451 -0.133323,0.3957053 -0.1278198,0.401312 -0.1234595,0.4078443 -0.1203767,0.4150685 -0.1187123,0.4227456 -0.1187123,0.4227456 -0.1183669,0.4320453 -0.1200808,0.4411878 -0.123764,0.4497316 -0.1292253,0.4572699 -0.1360105,0.463638 -0.1439664,0.4684564 -0.1528242,0.471292 -0.1620844,0.4722113 -0.2313841,0.4722113 -0.2313841,0.38481 -0.1620844,0.38481z" transform="matrix(1,0,0,-1,1.64211,2.7095954)" fill="rgb(109,109,109)" fill-rule="nonzero" shaper:cutDepth="0.0001524" stroke-linecap="round" stroke-linejoin="round" /><path d="M-0.3235446,-0.3584727 L-0.3235446,-0.3584727 -0.3258487,-0.3651203 -0.3277948,-0.3680558 -0.330264,-0.370569 -0.3332351,-0.3724625 -0.3365134,-0.3737493 -0.3434982,-0.3746028 -0.3434982,-0.3746028 -0.3490592,-0.3739163 -0.3542035,-0.3717115 -0.3583848,-0.367986 -0.3614803,-0.3633117 -0.3614803,-0.3633117 -0.3629068,-0.3589833 -0.363631,-0.35447 -0.363631,-0.1029598 -0.363631,-0.1029598 -0.3625432,-0.0963981 -0.361386,-0.0932821 -0.3595088,-0.0905336 -0.3595088,-0.0905336 -0.3564987,-0.087514 -0.3529669,-0.0851269 -0.3489842,-0.0836062 -0.3447821,-0.0828846 -0.3405209,-0.0830306 -0.3363807,-0.0840467 -0.3325871,-0.0859901 -0.3292798,-0.0886816 -0.3292798,-0.0886816 -0.3267248,-0.0917205 -0.3248697,-0.0952242 -0.3231265,-0.1029598 -0.3231265,-0.35447 -0.3231265,-0.35447 -0.3235446,-0.3584727z" transform="matrix(1,0,0,-1,1.64211,2.7095954)" fill="rgb(104,104,104)" fill-rule="nonzero" shaper:cutDepth="0.0000762" stroke-linecap="round" stroke-linejoin="round" /><path d="M-0.0287468,0.0977954 L-0.0682207,0.1684543 -0.0682207,0.1684543 -0.0698567,0.1741657 -0.0700893,0.1771346 -0.0697059,0.1800823 -0.0686504,0.1828635 -0.0669648,0.1853136 -0.0622989,0.1889695 -0.0567333,0.1910132 -0.0537628,0.1911531 -0.0508496,0.1905486 -0.0481552,0.1892947 -0.045766,0.1875162 -0.0417853,0.1831058 -0.0116309,0.1286667 0.0187474,0.1831058 0.0187474,0.1831058 0.0227083,0.1875322 0.0250937,0.1893115 0.0277916,0.1905538 0.0306994,0.1911775 0.0336669,0.1910211 0.0392233,0.18896 0.0438647,0.1852716 0.0455271,0.182808 0.0465302,0.1800091 0.0467083,0.1740931 0.0451381,0.1683647 0.0057985,0.0977954 0.0635533,-0.0057509 0.0635533,-0.0057509 0.0652281,-0.0114613 0.0651134,-0.0173939 0.0640404,-0.0201685 0.0623596,-0.0226277 0.0576801,-0.0262794 0.0521135,-0.0283438 0.0491401,-0.0285078 0.0462192,-0.0279356 0.0411777,-0.0248148 0.0373419,-0.020268 -0.0116309,0.066969 -0.0600661,-0.020268 -0.0600661,-0.020268 -0.0641285,-0.0246144 -0.0692432,-0.0276249 -0.0721527,-0.0282572 -0.0751293,-0.0281729 -0.0807407,-0.0262347 -0.0854545,-0.0226258 -0.0871465,-0.0201757 -0.0881837,-0.0173855 -0.0882821,-0.0114572 -0.0865912,-0.0057509 -0.0287468,0.0977954z" transform="matrix(1,0,0,-1,1.64211,2.7095954)" fill="rgb(104,104,104)" fill-rule="nonzero" shaper:cutDepth="0.0000762" stroke-linecap="round" stroke-linejoin="round" /><path d="M-1.1707813,0.1566462 A1.48336,1.48336 217.8820456 0,0 -1.1991704,1.9406104 L1.1991704,1.9406104 A1.48336,1.48336 36.0586451 0,0 1.1707812,0.1566462 A1.8487016,1.8487016 50.7060475 0,1 -1.1707812,0.1566462z" transform="matrix(1,0,0,-1,1.64211,2.7095954)" fill="rgb(255,255,255)" stroke="rgb(0,0,0)" stroke-width="0.0010cm" stroke-linecap="round" stroke-linejoin="round" shaper:cutDepth="0.0015875" /></svg>