%TF.GenerationSoftware,KiCad,Pcbnew,7.0.2*%
%TF.CreationDate,2023-05-21T12:24:47-08:00*%
%TF.ProjectId,FIRE TEST PANEL,46495245-2054-4455-9354-2050414e454c,3*%
%TF.SameCoordinates,Original*%
%TF.FileFunction,Copper,L1,Top*%
%TF.FilePolarity,Positive*%
%FSLAX46Y46*%
G04 Gerber Fmt 4.6, Leading zero omitted, Abs format (unit mm)*
G04 Created by KiCad (PCBNEW 7.0.2) date 2023-05-21 12:24:47*
%MOMM*%
%LPD*%
G01*
G04 APERTURE LIST*
G04 Aperture macros list*
%AMRoundRect*
0 Rectangle with rounded corners*
0 $1 Rounding radius*
0 $2 $3 $4 $5 $6 $7 $8 $9 X,Y pos of 4 corners*
0 Add a 4 corners polygon primitive as box body*
4,1,4,$2,$3,$4,$5,$6,$7,$8,$9,$2,$3,0*
0 Add four circle primitives for the rounded corners*
1,1,$1+$1,$2,$3*
1,1,$1+$1,$4,$5*
1,1,$1+$1,$6,$7*
1,1,$1+$1,$8,$9*
0 Add four rect primitives between the rounded corners*
20,1,$1+$1,$2,$3,$4,$5,0*
20,1,$1+$1,$4,$5,$6,$7,0*
20,1,$1+$1,$6,$7,$8,$9,0*
20,1,$1+$1,$8,$9,$2,$3,0*%
G04 Aperture macros list end*
%TA.AperFunction,SMDPad,CuDef*%
%ADD10R,1.500000X0.900000*%
%TD*%
%TA.AperFunction,SMDPad,CuDef*%
%ADD11RoundRect,0.225000X-0.250000X0.225000X-0.250000X-0.225000X0.250000X-0.225000X0.250000X0.225000X0*%
%TD*%
%TA.AperFunction,SMDPad,CuDef*%
%ADD12RoundRect,0.225000X-0.225000X-0.250000X0.225000X-0.250000X0.225000X0.250000X-0.225000X0.250000X0*%
%TD*%
%TA.AperFunction,SMDPad,CuDef*%
%ADD13RoundRect,0.200000X0.200000X0.275000X-0.200000X0.275000X-0.200000X-0.275000X0.200000X-0.275000X0*%
%TD*%
%TA.AperFunction,ComponentPad*%
%ADD14C,1.500000*%
%TD*%
%TA.AperFunction,ComponentPad*%
%ADD15RoundRect,0.250001X-1.399999X1.099999X-1.399999X-1.099999X1.399999X-1.099999X1.399999X1.099999X0*%
%TD*%
%TA.AperFunction,ComponentPad*%
%ADD16O,3.300000X2.700000*%
%TD*%
%TA.AperFunction,ComponentPad*%
%ADD17R,1.800000X1.800000*%
%TD*%
%TA.AperFunction,ComponentPad*%
%ADD18C,1.800000*%
%TD*%
%TA.AperFunction,ViaPad*%
%ADD19C,0.800000*%
%TD*%
%TA.AperFunction,Conductor*%
%ADD20C,0.500000*%
%TD*%
%TA.AperFunction,Conductor*%
%ADD21C,0.250000*%
%TD*%
G04 APERTURE END LIST*
D10*
%TO.P,D2,1,VDD*%
%TO.N,+5V*%
X129517000Y-83871600D03*
%TO.P,D2,2,DOUT*%
%TO.N,Net-(D2-DOUT)*%
X129517000Y-87171600D03*
%TO.P,D2,3,VSS*%
%TO.N,GND*%
X134417000Y-87171600D03*
%TO.P,D2,4,DIN*%
%TO.N,DATA IN*%
X134417000Y-83871600D03*
%TD*%
%TO.P,D3,1,VDD*%
%TO.N,+5V*%
X136640000Y-85776800D03*
%TO.P,D3,2,DOUT*%
%TO.N,Net-(D3-DOUT)*%
X136640000Y-89076800D03*
%TO.P,D3,3,VSS*%
%TO.N,GND*%
X141540000Y-89076800D03*
%TO.P,D3,4,DIN*%
%TO.N,Net-(D2-DOUT)*%
X141540000Y-85776800D03*
%TD*%
%TO.P,D4,1,VDD*%
%TO.N,+5V*%
X141619000Y-91669600D03*
%TO.P,D4,2,DOUT*%
%TO.N,Net-(D4-DOUT)*%
X141619000Y-94969600D03*
%TO.P,D4,3,VSS*%
%TO.N,GND*%
X146519000Y-94969600D03*
%TO.P,D4,4,DIN*%
%TO.N,Net-(D3-DOUT)*%
X146519000Y-91669600D03*
%TD*%
%TO.P,D5,1,VDD*%
%TO.N,+5V*%
X142584000Y-98426000D03*
%TO.P,D5,2,DOUT*%
%TO.N,Net-(D5-DOUT)*%
X142584000Y-101726000D03*
%TO.P,D5,3,VSS*%
%TO.N,GND*%
X147484000Y-101726000D03*
%TO.P,D5,4,DIN*%
%TO.N,Net-(D4-DOUT)*%
X147484000Y-98426000D03*
%TD*%
%TO.P,D6,1,VDD*%
%TO.N,+5V*%
X141650000Y-104950000D03*
%TO.P,D6,2,DOUT*%
%TO.N,/DATA1*%
X141650000Y-108250000D03*
%TO.P,D6,3,VSS*%
%TO.N,GND*%
X146550000Y-108250000D03*
%TO.P,D6,4,DIN*%
%TO.N,Net-(D5-DOUT)*%
X146550000Y-104950000D03*
%TD*%
%TO.P,D7,1,VDD*%
%TO.N,+5V*%
X136031000Y-110770000D03*
%TO.P,D7,2,DOUT*%
%TO.N,Net-(D7-DOUT)*%
X136031000Y-114070000D03*
%TO.P,D7,3,VSS*%
%TO.N,GND*%
X140931000Y-114070000D03*
%TO.P,D7,4,DIN*%
%TO.N,/DATA1*%
X140931000Y-110770000D03*
%TD*%
%TO.P,D8,1,VDD*%
%TO.N,+5V*%
X127610000Y-109983000D03*
%TO.P,D8,2,DOUT*%
%TO.N,Net-(D8-DOUT)*%
X127610000Y-113283000D03*
%TO.P,D8,3,VSS*%
%TO.N,GND*%
X132510000Y-113283000D03*
%TO.P,D8,4,DIN*%
%TO.N,Net-(D7-DOUT)*%
X132510000Y-109983000D03*
%TD*%
%TO.P,D9,1,VDD*%
%TO.N,+5V*%
X121514000Y-103226000D03*
%TO.P,D9,2,DOUT*%
%TO.N,Net-(D10-DIN)*%
X121514000Y-106526000D03*
%TO.P,D9,3,VSS*%
%TO.N,GND*%
X126414000Y-106526000D03*
%TO.P,D9,4,DIN*%
%TO.N,Net-(D8-DOUT)*%
X126414000Y-103226000D03*
%TD*%
%TO.P,D10,1,VDD*%
%TO.N,+5V*%
X121463000Y-95809600D03*
%TO.P,D10,2,DOUT*%
%TO.N,Net-(D10-DOUT)*%
X121463000Y-99109600D03*
%TO.P,D10,3,VSS*%
%TO.N,GND*%
X126363000Y-99109600D03*
%TO.P,D10,4,DIN*%
%TO.N,Net-(D10-DIN)*%
X126363000Y-95809600D03*
%TD*%
%TO.P,D11,1,VDD*%
%TO.N,+5V*%
X126640000Y-89688400D03*
%TO.P,D11,2,DOUT*%
%TO.N,DATA OUT*%
X126640000Y-92988400D03*
%TO.P,D11,3,VSS*%
%TO.N,GND*%
X131540000Y-92988400D03*
%TO.P,D11,4,DIN*%
%TO.N,Net-(D10-DOUT)*%
X131540000Y-89688400D03*
%TD*%
D11*
%TO.P,C3,1*%
%TO.N,+5V*%
X143495000Y-87477200D03*
%TO.P,C3,2*%
%TO.N,GND*%
X143495000Y-89027200D03*
%TD*%
D12*
%TO.P,C4,1*%
%TO.N,+5V*%
X124010000Y-108519000D03*
%TO.P,C4,2*%
%TO.N,GND*%
X125560000Y-108519000D03*
%TD*%
%TO.P,C5,1*%
%TO.N,+5V*%
X130942000Y-115209000D03*
%TO.P,C5,2*%
%TO.N,GND*%
X132492000Y-115209000D03*
%TD*%
%TO.P,C6,1*%
%TO.N,+5V*%
X139339000Y-116108000D03*
%TO.P,C6,2*%
%TO.N,GND*%
X140889000Y-116108000D03*
%TD*%
D11*
%TO.P,C7,1*%
%TO.N,+5V*%
X148204000Y-106586000D03*
%TO.P,C7,2*%
%TO.N,GND*%
X148204000Y-108136000D03*
%TD*%
D13*
%TO.P,R1,1*%
%TO.N,Net-(D1-K)*%
X145232000Y-114958000D03*
%TO.P,R1,2*%
%TO.N,GND*%
X143582000Y-114958000D03*
%TD*%
D14*
%TO.P,TP2,1,1*%
%TO.N,GND*%
X116480000Y-109990000D03*
%TD*%
%TO.P,TP1,1,1*%
%TO.N,+5V*%
X116770000Y-92140000D03*
%TD*%
%TO.P,TP4,1,1*%
%TO.N,DATA OUT*%
X162460000Y-106540000D03*
%TD*%
%TO.P,TP3,1,1*%
%TO.N,DATA IN*%
X162750000Y-95920000D03*
%TD*%
D15*
%TO.P,J1,1,Pin_1*%
%TO.N,+5V*%
X152341000Y-89448600D03*
D16*
%TO.P,J1,2,Pin_3*%
X152341000Y-93648600D03*
%TO.P,J1,3,Pin_2*%
%TO.N,GND*%
X157841000Y-89448600D03*
%TO.P,J1,4,Pin_4*%
%TO.N,DATA IN*%
X157841000Y-93648600D03*
%TD*%
D15*
%TO.P,J2,1,Pin_1*%
%TO.N,+5V*%
X152391000Y-100498000D03*
D16*
%TO.P,J2,2,Pin_3*%
X152391000Y-104698000D03*
%TO.P,J2,3,Pin_2*%
%TO.N,GND*%
X157891000Y-100498000D03*
%TO.P,J2,4,Pin_4*%
%TO.N,DATA OUT*%
X157891000Y-104698000D03*
%TD*%
D17*
%TO.P,D1,1,K*%
%TO.N,Net-(D1-K)*%
X145250000Y-111839000D03*
D18*
%TO.P,D1,2,A*%
%TO.N,+5V*%
X147790000Y-111839000D03*
%TD*%
D19*
%TO.N,GND*%
X132507000Y-116378000D03*
X123937000Y-101026000D03*
X144709000Y-88983800D03*
X149126000Y-108514000D03*
X148077000Y-94919600D03*
X148943060Y-102826820D03*
X140919000Y-117381000D03*
X125573000Y-109771000D03*
X130290000Y-91800000D03*
%TO.N,DATA IN*%
X136750000Y-82540000D03*
%TO.N,DATA OUT*%
X124500000Y-92000000D03*
%TD*%
D20*
%TO.N,GND*%
X148204000Y-108148000D02*
X148760000Y-108148000D01*
X134417000Y-87121600D02*
X136887820Y-87121600D01*
X146253000Y-108153000D02*
X148199000Y-108153000D01*
X148760000Y-108148000D02*
X149126000Y-108514000D01*
X125993500Y-108098500D02*
X125573000Y-108519000D01*
X147792240Y-101676000D02*
X148943060Y-102826820D01*
X126414000Y-107678000D02*
X125993500Y-108098500D01*
X125993000Y-108098500D02*
X125572500Y-108519000D01*
X146519000Y-94919600D02*
X148077000Y-94919600D01*
X126414000Y-106476000D02*
X126414000Y-107678000D01*
X125903000Y-99059600D02*
X123937000Y-101026000D01*
X138793020Y-89026800D02*
X141540000Y-89026800D01*
X130290000Y-91800000D02*
X131478400Y-92988400D01*
X132504000Y-115209000D02*
X132507000Y-116378000D01*
X141052000Y-114958000D02*
X140931000Y-115079000D01*
X125573000Y-108519000D02*
X125573000Y-109771000D01*
X143589000Y-88983800D02*
X144709000Y-88983800D01*
X125993500Y-108098500D02*
X125993000Y-108098500D01*
X140931000Y-115079000D02*
X140931000Y-116079000D01*
X143619000Y-114958000D02*
X141052000Y-114958000D01*
X140901000Y-116108000D02*
X140919000Y-117381000D01*
X140931000Y-114020000D02*
X140931000Y-115079000D01*
X136887820Y-87121600D02*
X138793020Y-89026800D01*
X141540000Y-89026800D02*
X143482100Y-89026800D01*
X132510000Y-113233000D02*
X132510000Y-115204000D01*
D21*
%TO.N,DATA IN*%
X157841000Y-93648600D02*
X160478600Y-93648600D01*
X136750000Y-82540000D02*
X135418400Y-83871600D01*
X135418400Y-83871600D02*
X134417000Y-83871600D01*
X160478600Y-93648600D02*
X162750000Y-95920000D01*
%TO.N,Net-(D2-DOUT)*%
X137323200Y-81610000D02*
X141540000Y-85826800D01*
X134278600Y-81610000D02*
X137323200Y-81610000D01*
X129517000Y-86371600D02*
X134278600Y-81610000D01*
X129517000Y-87121600D02*
X129517000Y-86371600D01*
%TO.N,Net-(D3-DOUT)*%
X136640000Y-89026800D02*
X137715300Y-89026800D01*
X146519000Y-91719600D02*
X145443700Y-91719600D01*
X137715300Y-89026800D02*
X139582800Y-90894300D01*
X144618400Y-90894300D02*
X145443700Y-91719600D01*
X139582800Y-90894300D02*
X144618400Y-90894300D01*
%TO.N,Net-(D4-DOUT)*%
X141619000Y-94919600D02*
X142694300Y-94919600D01*
X142694300Y-94919600D02*
X146250700Y-98476000D01*
X146250700Y-98476000D02*
X147484000Y-98476000D01*
%TO.N,Net-(D5-DOUT)*%
X142584000Y-101676000D02*
X143659300Y-101676000D01*
X143659300Y-101676000D02*
X143659300Y-103434600D01*
X146253000Y-104953000D02*
X145177700Y-104953000D01*
X143659300Y-103434600D02*
X145177700Y-104953000D01*
%TO.N,/DATA1*%
X141353000Y-108153000D02*
X140277700Y-108153000D01*
X140277700Y-108153000D02*
X139855700Y-108575000D01*
X140931000Y-110820000D02*
X139855700Y-110820000D01*
X139855700Y-108575000D02*
X139855700Y-110820000D01*
%TO.N,Net-(D7-DOUT)*%
X136031000Y-113741000D02*
X132510000Y-110220000D01*
X136031000Y-114020000D02*
X136031000Y-113741000D01*
%TO.N,Net-(D8-DOUT)*%
X127610000Y-113233000D02*
X128685300Y-112157700D01*
X128685300Y-112157700D02*
X128685300Y-105547300D01*
X128685300Y-105547300D02*
X126414000Y-103276000D01*
%TO.N,Net-(D10-DIN)*%
X120438700Y-105240300D02*
X120438700Y-101933800D01*
X125287700Y-97084800D02*
X125287700Y-95859600D01*
X120438700Y-101933800D02*
X125287700Y-97084800D01*
X126363000Y-95859600D02*
X125287700Y-95859600D01*
X121514000Y-106315600D02*
X120438700Y-105240300D01*
%TO.N,Net-(D10-DOUT)*%
X128050000Y-94110000D02*
X128050000Y-92451100D01*
X126201600Y-94110000D02*
X128050000Y-94110000D01*
X128050000Y-92451100D02*
X130762700Y-89738400D01*
X121463000Y-98848600D02*
X126201600Y-94110000D01*
X130762700Y-89738400D02*
X131838000Y-89738400D01*
%TO.N,DATA OUT*%
X125488400Y-92988400D02*
X126640000Y-92988400D01*
X124500000Y-92000000D02*
X125488400Y-92988400D01*
X160618000Y-104698000D02*
X162460000Y-106540000D01*
X157891000Y-104698000D02*
X160618000Y-104698000D01*
%TO.N,Net-(D1-K)*%
X145194000Y-114958000D02*
X145194000Y-113426500D01*
X145194000Y-113426500D02*
X145194500Y-113427000D01*
X145194000Y-113426500D02*
X145194000Y-111895000D01*
X145194500Y-113427000D02*
X145194500Y-114958000D01*
%TD*%
%TA.AperFunction,Conductor*%
%TO.N,+5V*%
G36*
X150975438Y-75514007D02*
G01*
X151043447Y-75534385D01*
X151053624Y-75541752D01*
X165115234Y-86831361D01*
X165128983Y-86842399D01*
X165169580Y-86900644D01*
X165176100Y-86940651D01*
X165176100Y-113539650D01*
X165156098Y-113607771D01*
X165152104Y-113613618D01*
X163009797Y-116567928D01*
X158980761Y-122124100D01*
X158927123Y-122198068D01*
X158870940Y-122241473D01*
X158825119Y-122250100D01*
X113283100Y-122250100D01*
X113214979Y-122230098D01*
X113168486Y-122176442D01*
X113157100Y-122124100D01*
X113157100Y-117666493D01*
X116226293Y-117666493D01*
X116245946Y-117991390D01*
X116246629Y-117995119D01*
X116246631Y-117995132D01*
X116303930Y-118307804D01*
X116303932Y-118307815D01*
X116304617Y-118311549D01*
X116305748Y-118315180D01*
X116305749Y-118315182D01*
X116400317Y-118618664D01*
X116400320Y-118618673D01*
X116401451Y-118622301D01*
X116535037Y-118919116D01*
X116703425Y-119197665D01*
X116705765Y-119200651D01*
X116705770Y-119200659D01*
X116901809Y-119450883D01*
X116904162Y-119453886D01*
X117134318Y-119684042D01*
X117137319Y-119686393D01*
X117137320Y-119686394D01*
X117387544Y-119882433D01*
X117387548Y-119882436D01*
X117390539Y-119884779D01*
X117669088Y-120053167D01*
X117965903Y-120186753D01*
X118276655Y-120283587D01*
X118596814Y-120342258D01*
X118840408Y-120356993D01*
X118842296Y-120356993D01*
X119001126Y-120356993D01*
X119003014Y-120356993D01*
X119246608Y-120342258D01*
X119566767Y-120283587D01*
X119877519Y-120186753D01*
X120174334Y-120053167D01*
X120452883Y-119884779D01*
X120709104Y-119684042D01*
X120939260Y-119453886D01*
X121139997Y-119197665D01*
X121308385Y-118919116D01*
X121441971Y-118622301D01*
X121538805Y-118311549D01*
X121597476Y-117991390D01*
X121617129Y-117666493D01*
X121597476Y-117341596D01*
X121538805Y-117021437D01*
X121441971Y-116710685D01*
X121308385Y-116413870D01*
X121139997Y-116135321D01*
X121134141Y-116127847D01*
X120941612Y-115882102D01*
X120941611Y-115882101D01*
X120939260Y-115879100D01*
X120709104Y-115648944D01*
X120577852Y-115546114D01*
X120471766Y-115463000D01*
X129984000Y-115463000D01*
X129984000Y-115504638D01*
X129984325Y-115511028D01*
X129994256Y-115608238D01*
X130048152Y-115770885D01*
X130138111Y-115916731D01*
X130259268Y-116037888D01*
X130405114Y-116127847D01*
X130567761Y-116181743D01*
X130664971Y-116191674D01*
X130671361Y-116192000D01*
X130688000Y-116192000D01*
X131196000Y-116192000D01*
X131212639Y-116192000D01*
X131219028Y-116191674D01*
X131316236Y-116181743D01*
X131439518Y-116140891D01*
X131510473Y-116138450D01*
X131571483Y-116174757D01*
X131603179Y-116238286D01*
X131604462Y-116273665D01*
X131593496Y-116377999D01*
X131613458Y-116567929D01*
X131672472Y-116749556D01*
X131767958Y-116914942D01*
X131767960Y-116914944D01*
X131895747Y-117056866D01*
X132050248Y-117169118D01*
X132224712Y-117246794D01*
X132411513Y-117286500D01*
X132411515Y-117286500D01*
X132602485Y-117286500D01*
X132602487Y-117286500D01*
X132789288Y-117246794D01*
X132963752Y-117169118D01*
X133118253Y-117056866D01*
X133246040Y-116914944D01*
X133341527Y-116749556D01*
X133400542Y-116567928D01*
X133420504Y-116378000D01*
X133418822Y-116362000D01*
X138381000Y-116362000D01*
X138381000Y-116403638D01*
X138381325Y-116410028D01*
X138391256Y-116507238D01*
X138445152Y-116669885D01*
X138535111Y-116815731D01*
X138656268Y-116936888D01*
X138802114Y-117026847D01*
X138964761Y-117080743D01*
X139061971Y-117090674D01*
X139068361Y-117091000D01*
X139085000Y-117091000D01*
X139593000Y-117091000D01*
X139609639Y-117091000D01*
X139616028Y-117090674D01*
X139713236Y-117080743D01*
X139866867Y-117029834D01*
X139937822Y-117027393D01*
X139998832Y-117063700D01*
X140030528Y-117127229D01*
X140026336Y-117188367D01*
X140025459Y-117191065D01*
X140025458Y-117191070D01*
X140025458Y-117191072D01*
X140015428Y-117286500D01*
X140005496Y-117380999D01*
X140025458Y-117570929D01*
X140084472Y-117752556D01*
X140179958Y-117917942D01*
X140179960Y-117917944D01*
X140307747Y-118059866D01*
X140462248Y-118172118D01*
X140636712Y-118249794D01*
X140823513Y-118289500D01*
X140823515Y-118289500D01*
X141014485Y-118289500D01*
X141014487Y-118289500D01*
X141201288Y-118249794D01*
X141375752Y-118172118D01*
X141530253Y-118059866D01*
X141658040Y-117917944D01*
X141753527Y-117752556D01*
X141812542Y-117570928D01*
X141832504Y-117381000D01*
X141812542Y-117191072D01*
X141771156Y-117063700D01*
X141753528Y-117009446D01*
X141753527Y-117009444D01*
X141704329Y-116924231D01*
X141687592Y-116855238D01*
X141706207Y-116795089D01*
X141783302Y-116670101D01*
X141837236Y-116507336D01*
X141847500Y-116406872D01*
X141847500Y-115842500D01*
X141867502Y-115774379D01*
X141921158Y-115727886D01*
X141973500Y-115716500D01*
X142811339Y-115716500D01*
X142879460Y-115736502D01*
X142900429Y-115753400D01*
X142941845Y-115794816D01*
X143089087Y-115883827D01*
X143253351Y-115935013D01*
X143324735Y-115941500D01*
X143839264Y-115941499D01*
X143910649Y-115935013D01*
X144074913Y-115883827D01*
X144222155Y-115794816D01*
X144263566Y-115753405D01*
X144317905Y-115699067D01*
X144380217Y-115665041D01*
X144451032Y-115670106D01*
X144496095Y-115699067D01*
X144591842Y-115794814D01*
X144591844Y-115794815D01*
X144591845Y-115794816D01*
X144739087Y-115883827D01*
X144903351Y-115935013D01*
X144974735Y-115941500D01*
X145489264Y-115941499D01*
X145560649Y-115935013D01*
X145724913Y-115883827D01*
X145872155Y-115794816D01*
X145993816Y-115673155D01*
X146082827Y-115525913D01*
X146134013Y-115361649D01*
X146140500Y-115290265D01*
X146140499Y-114625736D01*
X146134013Y-114554351D01*
X146082827Y-114390087D01*
X145993816Y-114242845D01*
X145993815Y-114242844D01*
X145993814Y-114242842D01*
X145864905Y-114113933D01*
X145830879Y-114051621D01*
X145828000Y-114024838D01*
X145828000Y-113510853D01*
X145830295Y-113490063D01*
X145828062Y-113419013D01*
X145828000Y-113415054D01*
X145828000Y-113391102D01*
X145828000Y-113387144D01*
X145827666Y-113384507D01*
X145827500Y-113379200D01*
X145827500Y-113373500D01*
X145847502Y-113305379D01*
X145901158Y-113258886D01*
X145953500Y-113247500D01*
X146195269Y-113247500D01*
X146198638Y-113247500D01*
X146259201Y-113240989D01*
X146396204Y-113189889D01*
X146513261Y-113102261D01*
X146600889Y-112985204D01*
X146651989Y-112848201D01*
X146658500Y-112787638D01*
X146658500Y-112663478D01*
X146678502Y-112595358D01*
X146695405Y-112574383D01*
X147345155Y-111924632D01*
X147346327Y-111940265D01*
X147395887Y-112066541D01*
X147480465Y-112172599D01*
X147592547Y-112249016D01*
X147704622Y-112283586D01*
X146988680Y-112999528D01*
X146988681Y-112999529D01*
X147017254Y-113021768D01*
X147222474Y-113132828D01*
X147443169Y-113208592D01*
X147673332Y-113247000D01*
X147906668Y-113247000D01*
X148136830Y-113208592D01*
X148357525Y-113132828D01*
X148562744Y-113021770D01*
X148591317Y-112999529D01*
X148591317Y-112999528D01*
X147873315Y-112281525D01*
X147924138Y-112273865D01*
X148046357Y-112215007D01*
X148145798Y-112122740D01*
X148213625Y-112005260D01*
X148232550Y-111922339D01*
X148949202Y-112638990D01*
X149032544Y-112511428D01*
X149126275Y-112297742D01*
X149183555Y-112071548D01*
X149202825Y-111839000D01*
X149183555Y-111606451D01*
X149126276Y-111380260D01*
X149032543Y-111166569D01*
X148949202Y-111039007D01*
X148234844Y-111753364D01*
X148233673Y-111737735D01*
X148184113Y-111611459D01*
X148099535Y-111505401D01*
X147987453Y-111428984D01*
X147875375Y-111394413D01*
X148591318Y-110678470D01*
X148591317Y-110678469D01*
X148562745Y-110656230D01*
X148357525Y-110545171D01*
X148136830Y-110469407D01*
X147906668Y-110431000D01*
X147673332Y-110431000D01*
X147443169Y-110469407D01*
X147222474Y-110545171D01*
X147017255Y-110656230D01*
X146988681Y-110678469D01*
X146988680Y-110678470D01*
X147706684Y-111396474D01*
X147655862Y-111404135D01*
X147533643Y-111462993D01*
X147434202Y-111555260D01*
X147366375Y-111672740D01*
X147347449Y-111755659D01*
X146695404Y-111103614D01*
X146661379Y-111041302D01*
X146658500Y-111014519D01*
X146658500Y-110893730D01*
X146658500Y-110890362D01*
X146651989Y-110829799D01*
X146600889Y-110692796D01*
X146590715Y-110679205D01*
X146513261Y-110575738D01*
X146396205Y-110488111D01*
X146293666Y-110449866D01*
X146259201Y-110437011D01*
X146198638Y-110430500D01*
X144301362Y-110430500D01*
X144298013Y-110430859D01*
X144298013Y-110430860D01*
X144240799Y-110437011D01*
X144103794Y-110488111D01*
X143986738Y-110575738D01*
X143899111Y-110692794D01*
X143866620Y-110779906D01*
X143848011Y-110829799D01*
X143841500Y-110890362D01*
X143841500Y-112787638D01*
X143848011Y-112848201D01*
X143873561Y-112916702D01*
X143899111Y-112985205D01*
X143986738Y-113102261D01*
X144103794Y-113189888D01*
X144103795Y-113189888D01*
X144103796Y-113189889D01*
X144240799Y-113240989D01*
X144301362Y-113247500D01*
X144432459Y-113247500D01*
X144500580Y-113267502D01*
X144547073Y-113321158D01*
X144558396Y-113369539D01*
X144559827Y-113415054D01*
X144560438Y-113434485D01*
X144560500Y-113438443D01*
X144560500Y-114100338D01*
X144540498Y-114168459D01*
X144523595Y-114189433D01*
X144496095Y-114216933D01*
X144433783Y-114250959D01*
X144362968Y-114245894D01*
X144317905Y-114216933D01*
X144222157Y-114121185D01*
X144143276Y-114073500D01*
X144074913Y-114032173D01*
X144023725Y-114016222D01*
X143910648Y-113980986D01*
X143842114Y-113974758D01*
X143842094Y-113974757D01*
X143839265Y-113974500D01*
X143836403Y-113974500D01*
X143327599Y-113974500D01*
X143327577Y-113974500D01*
X143324736Y-113974501D01*
X143321887Y-113974759D01*
X143321883Y-113974760D01*
X143253352Y-113980986D01*
X143089087Y-114032173D01*
X142941845Y-114121183D01*
X142921140Y-114141889D01*
X142900432Y-114162596D01*
X142838123Y-114196620D01*
X142811339Y-114199500D01*
X142315500Y-114199500D01*
X142247379Y-114179498D01*
X142200886Y-114125842D01*
X142189500Y-114073500D01*
X142189500Y-113574730D01*
X142189500Y-113574729D01*
X142189500Y-113571362D01*
X142182989Y-113510799D01*
X142131889Y-113373796D01*
X142131888Y-113373794D01*
X142044261Y-113256738D01*
X141927205Y-113169111D01*
X141858702Y-113143561D01*
X141790201Y-113118011D01*
X141729638Y-113111500D01*
X140132362Y-113111500D01*
X140129013Y-113111859D01*
X140129013Y-113111860D01*
X140071799Y-113118011D01*
X139934794Y-113169111D01*
X139817738Y-113256738D01*
X139730111Y-113373794D01*
X139687854Y-113487091D01*
X139679011Y-113510799D01*
X139672500Y-113571362D01*
X139672500Y-114568638D01*
X139679011Y-114629201D01*
X139704561Y-114697702D01*
X139730111Y-114766205D01*
X139817738Y-114883261D01*
X139884841Y-114933494D01*
X139927388Y-114990330D01*
X139932452Y-115061145D01*
X139898427Y-115123458D01*
X139836115Y-115157483D01*
X139769699Y-115153966D01*
X139713238Y-115135256D01*
X139616028Y-115125325D01*
X139609639Y-115125000D01*
X139593000Y-115125000D01*
X139593000Y-117091000D01*
X139085000Y-117091000D01*
X139085000Y-116362000D01*
X138381000Y-116362000D01*
X133418822Y-116362000D01*
X133400542Y-116188072D01*
X133341527Y-116006444D01*
X133341527Y-116006443D01*
X133330598Y-115987514D01*
X133313859Y-115918519D01*
X133332476Y-115858366D01*
X133335169Y-115854000D01*
X138381000Y-115854000D01*
X139085000Y-115854000D01*
X139085000Y-115125000D01*
X139068361Y-115125000D01*
X139061971Y-115125325D01*
X138964761Y-115135256D01*
X138802114Y-115189152D01*
X138656268Y-115279111D01*
X138535111Y-115400268D01*
X138445152Y-115546114D01*
X138391256Y-115708761D01*
X138381325Y-115805971D01*
X138381000Y-115812361D01*
X138381000Y-115854000D01*
X133335169Y-115854000D01*
X133362846Y-115809128D01*
X133386302Y-115771101D01*
X133440236Y-115608336D01*
X133450500Y-115507872D01*
X133450500Y-114910128D01*
X133440236Y-114809664D01*
X133386302Y-114646899D01*
X133296285Y-114500960D01*
X133296284Y-114500959D01*
X133288553Y-114488425D01*
X133292313Y-114486105D01*
X133271379Y-114447767D01*
X133268500Y-114420984D01*
X133268500Y-114358994D01*
X133288502Y-114290873D01*
X133342158Y-114244380D01*
X133354546Y-114240982D01*
X133354373Y-114240519D01*
X133369198Y-114234989D01*
X133369201Y-114234989D01*
X133506204Y-114183889D01*
X133623261Y-114096261D01*
X133710889Y-113979204D01*
X133761989Y-113842201D01*
X133768500Y-113781638D01*
X133768500Y-112784362D01*
X133761989Y-112723799D01*
X133752692Y-112698875D01*
X133747627Y-112628061D01*
X133781652Y-112565748D01*
X133843964Y-112531723D01*
X133914780Y-112536787D01*
X133959843Y-112565748D01*
X134755949Y-113361854D01*
X134789975Y-113424166D01*
X134784911Y-113494977D01*
X134779011Y-113510795D01*
X134779011Y-113510799D01*
X134772500Y-113571362D01*
X134772500Y-114568638D01*
X134779011Y-114629201D01*
X134804561Y-114697702D01*
X134830111Y-114766205D01*
X134917738Y-114883261D01*
X135034794Y-114970888D01*
X135034795Y-114970888D01*
X135034796Y-114970889D01*
X135171799Y-115021989D01*
X135232362Y-115028500D01*
X135235731Y-115028500D01*
X136826269Y-115028500D01*
X136829638Y-115028500D01*
X136890201Y-115021989D01*
X137027204Y-114970889D01*
X137144261Y-114883261D01*
X137231889Y-114766204D01*
X137282989Y-114629201D01*
X137289500Y-114568638D01*
X137289500Y-113571362D01*
X137282989Y-113510799D01*
X137231889Y-113373796D01*
X137231888Y-113373794D01*
X137144261Y-113256738D01*
X137027205Y-113169111D01*
X136958702Y-113143561D01*
X136890201Y-113118011D01*
X136829638Y-113111500D01*
X136826269Y-113111500D01*
X136349594Y-113111500D01*
X136281473Y-113091498D01*
X136260499Y-113074595D01*
X135128088Y-111942184D01*
X135094062Y-111879872D01*
X135099127Y-111809057D01*
X135141674Y-111752221D01*
X135208194Y-111727410D01*
X135229891Y-111727797D01*
X135225685Y-111727459D01*
X135235777Y-111728000D01*
X135777000Y-111728000D01*
X135777000Y-111024000D01*
X136285000Y-111024000D01*
X136285000Y-111728000D01*
X136826223Y-111728000D01*
X136832936Y-111727640D01*
X136890093Y-111721494D01*
X137026962Y-111670445D01*
X137143904Y-111582904D01*
X137231445Y-111465962D01*
X137282494Y-111329093D01*
X137288640Y-111271936D01*
X137289000Y-111265222D01*
X137289000Y-111024000D01*
X136285000Y-111024000D01*
X135777000Y-111024000D01*
X134773000Y-111024000D01*
X134773000Y-111265222D01*
X134773541Y-111275315D01*
X134773162Y-111270590D01*
X134760554Y-111340273D01*
X134712149Y-111392210D01*
X134643349Y-111409733D01*
X134575997Y-111387279D01*
X134558824Y-111372919D01*
X133801323Y-110615418D01*
X133767300Y-110553109D01*
X133765311Y-110516000D01*
X134773000Y-110516000D01*
X135777000Y-110516000D01*
X135777000Y-109812000D01*
X136285000Y-109812000D01*
X136285000Y-110516000D01*
X137289000Y-110516000D01*
X137289000Y-110274777D01*
X137288640Y-110268063D01*
X137282494Y-110210906D01*
X137231445Y-110074037D01*
X137143904Y-109957095D01*
X137026962Y-109869554D01*
X136890093Y-109818505D01*
X136832936Y-109812359D01*
X136826223Y-109812000D01*
X136285000Y-109812000D01*
X135777000Y-109812000D01*
X135235777Y-109812000D01*
X135229063Y-109812359D01*
X135171906Y-109818505D01*
X135035037Y-109869554D01*
X134918095Y-109957095D01*
X134830554Y-110074037D01*
X134779505Y-110210906D01*
X134773359Y-110268063D01*
X134773000Y-110274777D01*
X134773000Y-110516000D01*
X133765311Y-110516000D01*
X133765143Y-110512860D01*
X133768500Y-110481638D01*
X133768500Y-109484362D01*
X133761989Y-109423799D01*
X133710889Y-109286796D01*
X133710888Y-109286794D01*
X133623261Y-109169738D01*
X133506205Y-109082111D01*
X133422643Y-109050944D01*
X133369201Y-109031011D01*
X133308638Y-109024500D01*
X131711362Y-109024500D01*
X131708013Y-109024859D01*
X131708013Y-109024860D01*
X131650799Y-109031011D01*
X131513794Y-109082111D01*
X131396738Y-109169738D01*
X131309111Y-109286794D01*
X131258011Y-109423798D01*
X131258011Y-109423799D01*
X131251500Y-109484362D01*
X131251500Y-110481638D01*
X131258011Y-110542201D01*
X131265440Y-110562118D01*
X131309111Y-110679205D01*
X131396738Y-110796261D01*
X131513794Y-110883888D01*
X131513795Y-110883888D01*
X131513796Y-110883889D01*
X131650799Y-110934989D01*
X131711362Y-110941500D01*
X132283406Y-110941500D01*
X132351527Y-110961502D01*
X132372501Y-110978405D01*
X133527252Y-112133156D01*
X133561278Y-112195468D01*
X133556213Y-112266283D01*
X133513666Y-112323119D01*
X133447146Y-112347930D01*
X133394126Y-112340307D01*
X133369202Y-112331011D01*
X133333253Y-112327146D01*
X133308638Y-112324500D01*
X131711362Y-112324500D01*
X131708013Y-112324859D01*
X131708013Y-112324860D01*
X131650799Y-112331011D01*
X131513794Y-112382111D01*
X131396738Y-112469738D01*
X131309111Y-112586794D01*
X131267307Y-112698876D01*
X131258011Y-112723799D01*
X131251500Y-112784362D01*
X131251500Y-113781638D01*
X131251860Y-113784986D01*
X131258011Y-113842200D01*
X131309111Y-113979205D01*
X131344657Y-114026689D01*
X131369468Y-114093209D01*
X131354377Y-114162583D01*
X131304175Y-114212785D01*
X131234800Y-114227877D01*
X131230988Y-114227546D01*
X131219041Y-114226325D01*
X131212639Y-114226000D01*
X131196000Y-114226000D01*
X131196000Y-116192000D01*
X130688000Y-116192000D01*
X130688000Y-115463000D01*
X129984000Y-115463000D01*
X120471766Y-115463000D01*
X120455877Y-115450552D01*
X120455869Y-115450547D01*
X120452883Y-115448207D01*
X120186880Y-115287403D01*
X120177595Y-115281790D01*
X120177590Y-115281787D01*
X120174334Y-115279819D01*
X120170857Y-115278254D01*
X120170853Y-115278252D01*
X119880994Y-115147797D01*
X119877519Y-115146233D01*
X119873891Y-115145102D01*
X119873882Y-115145099D01*
X119570400Y-115050531D01*
X119570398Y-115050530D01*
X119566767Y-115049399D01*
X119563033Y-115048714D01*
X119563022Y-115048712D01*
X119250350Y-114991413D01*
X119250337Y-114991411D01*
X119246608Y-114990728D01*
X119242814Y-114990498D01*
X119242810Y-114990498D01*
X119004900Y-114976107D01*
X119004897Y-114976106D01*
X119003014Y-114975993D01*
X118840408Y-114975993D01*
X118838525Y-114976106D01*
X118838521Y-114976107D01*
X118600611Y-114990498D01*
X118600605Y-114990498D01*
X118596814Y-114990728D01*
X118593085Y-114991411D01*
X118593071Y-114991413D01*
X118280399Y-115048712D01*
X118280384Y-115048715D01*
X118276655Y-115049399D01*
X118273027Y-115050529D01*
X118273021Y-115050531D01*
X117969539Y-115145099D01*
X117969524Y-115145104D01*
X117965903Y-115146233D01*
X117962433Y-115147794D01*
X117962427Y-115147797D01*
X117672568Y-115278252D01*
X117672557Y-115278257D01*
X117669088Y-115279819D01*
X117665837Y-115281783D01*
X117665826Y-115281790D01*
X117393794Y-115446239D01*
X117390539Y-115448207D01*
X117387559Y-115450541D01*
X117387544Y-115450552D01*
X117137320Y-115646591D01*
X117137309Y-115646600D01*
X117134318Y-115648944D01*
X117131623Y-115651638D01*
X117131615Y-115651646D01*
X116906864Y-115876397D01*
X116906856Y-115876405D01*
X116904162Y-115879100D01*
X116901818Y-115882091D01*
X116901809Y-115882102D01*
X116705770Y-116132326D01*
X116705759Y-116132341D01*
X116703425Y-116135321D01*
X116701459Y-116138572D01*
X116701457Y-116138576D01*
X116537008Y-116410608D01*
X116537001Y-116410619D01*
X116535037Y-116413870D01*
X116533475Y-116417339D01*
X116533470Y-116417350D01*
X116419716Y-116670101D01*
X116401451Y-116710685D01*
X116400322Y-116714306D01*
X116400317Y-116714321D01*
X116305749Y-117017803D01*
X116304617Y-117021437D01*
X116303933Y-117025166D01*
X116303930Y-117025181D01*
X116246631Y-117337853D01*
X116246629Y-117337867D01*
X116245946Y-117341596D01*
X116245716Y-117345387D01*
X116245716Y-117345393D01*
X116243562Y-117381000D01*
X116226293Y-117666493D01*
X113157100Y-117666493D01*
X113157100Y-114955000D01*
X129984000Y-114955000D01*
X130688000Y-114955000D01*
X130688000Y-114226000D01*
X130671361Y-114226000D01*
X130664971Y-114226325D01*
X130567761Y-114236256D01*
X130405114Y-114290152D01*
X130259268Y-114380111D01*
X130138111Y-114501268D01*
X130048152Y-114647114D01*
X129994256Y-114809761D01*
X129984325Y-114906971D01*
X129984000Y-114913361D01*
X129984000Y-114955000D01*
X113157100Y-114955000D01*
X113157100Y-109990000D01*
X115216693Y-109990000D01*
X115235885Y-110209375D01*
X115292879Y-110422074D01*
X115385943Y-110621653D01*
X115512253Y-110802041D01*
X115667958Y-110957746D01*
X115667961Y-110957748D01*
X115667962Y-110957749D01*
X115848346Y-111084056D01*
X116047924Y-111177120D01*
X116141707Y-111202249D01*
X116260624Y-111234114D01*
X116260625Y-111234114D01*
X116260629Y-111234115D01*
X116480000Y-111253307D01*
X116699371Y-111234115D01*
X116912076Y-111177120D01*
X117111654Y-111084056D01*
X117292038Y-110957749D01*
X117447749Y-110802038D01*
X117574056Y-110621654D01*
X117667120Y-110422076D01*
X117724115Y-110209371D01*
X117743307Y-109990000D01*
X117724115Y-109770629D01*
X117701304Y-109685500D01*
X117673399Y-109581357D01*
X117667120Y-109557924D01*
X117574056Y-109358347D01*
X117447749Y-109177962D01*
X117447748Y-109177961D01*
X117447746Y-109177958D01*
X117292041Y-109022253D01*
X117111653Y-108895943D01*
X116912074Y-108802879D01*
X116800567Y-108773000D01*
X123052000Y-108773000D01*
X123052000Y-108814638D01*
X123052325Y-108821028D01*
X123062256Y-108918238D01*
X123116152Y-109080885D01*
X123206111Y-109226731D01*
X123327268Y-109347888D01*
X123473114Y-109437847D01*
X123635761Y-109491743D01*
X123732971Y-109501674D01*
X123739361Y-109502000D01*
X123756000Y-109502000D01*
X124264000Y-109502000D01*
X124280639Y-109502000D01*
X124287028Y-109501674D01*
X124384237Y-109491743D01*
X124514484Y-109448583D01*
X124585439Y-109446142D01*
X124646449Y-109482450D01*
X124678145Y-109545978D01*
X124679428Y-109581357D01*
X124659496Y-109770999D01*
X124679458Y-109960929D01*
X124738472Y-110142556D01*
X124833958Y-110307942D01*
X124833960Y-110307944D01*
X124961747Y-110449866D01*
X125116248Y-110562118D01*
X125290712Y-110639794D01*
X125477513Y-110679500D01*
X125477515Y-110679500D01*
X125668485Y-110679500D01*
X125668487Y-110679500D01*
X125855288Y-110639794D01*
X126029752Y-110562118D01*
X126160612Y-110467042D01*
X126227475Y-110443186D01*
X126296627Y-110459266D01*
X126346107Y-110510179D01*
X126351495Y-110527817D01*
X126352975Y-110527266D01*
X126409554Y-110678962D01*
X126497095Y-110795904D01*
X126614037Y-110883445D01*
X126750906Y-110934494D01*
X126808063Y-110940640D01*
X126814777Y-110941000D01*
X127356000Y-110941000D01*
X127356000Y-109025000D01*
X126814777Y-109025000D01*
X126808063Y-109025359D01*
X126750906Y-109031505D01*
X126676591Y-109059223D01*
X126605775Y-109064287D01*
X126543463Y-109030262D01*
X126509438Y-108967949D01*
X126507212Y-108928360D01*
X126518173Y-108821073D01*
X126518173Y-108821072D01*
X126518500Y-108817872D01*
X126518500Y-108698371D01*
X126538502Y-108630250D01*
X126555404Y-108609275D01*
X126561081Y-108603600D01*
X126561081Y-108603599D01*
X126565719Y-108598961D01*
X126578800Y-108585881D01*
X126578802Y-108585877D01*
X126904777Y-108259902D01*
X126918624Y-108247936D01*
X126938058Y-108233469D01*
X126944227Y-108226117D01*
X126970221Y-108195138D01*
X126977660Y-108187020D01*
X126981581Y-108183100D01*
X127001012Y-108158523D01*
X127003286Y-108155731D01*
X127052032Y-108097640D01*
X127052033Y-108097636D01*
X127052890Y-108096616D01*
X127063402Y-108080117D01*
X127069163Y-108067762D01*
X127096036Y-108010131D01*
X127097544Y-108007015D01*
X127131609Y-107939188D01*
X127131610Y-107939179D01*
X127132212Y-107937983D01*
X127138634Y-107919509D01*
X127140883Y-107908616D01*
X127154241Y-107843919D01*
X127155022Y-107840397D01*
X127172500Y-107766656D01*
X127172500Y-107766651D01*
X127172807Y-107765356D01*
X127174797Y-107745883D01*
X127174758Y-107744560D01*
X127174759Y-107744558D01*
X127172553Y-107668740D01*
X127172500Y-107665078D01*
X127172500Y-107634056D01*
X127172500Y-107601992D01*
X127192500Y-107533875D01*
X127246155Y-107487381D01*
X127258546Y-107483983D01*
X127258373Y-107483519D01*
X127273198Y-107477989D01*
X127273201Y-107477989D01*
X127410204Y-107426889D01*
X127527261Y-107339261D01*
X127614889Y-107222204D01*
X127665989Y-107085201D01*
X127672500Y-107024638D01*
X127672500Y-106027362D01*
X127665989Y-105966799D01*
X127614889Y-105829796D01*
X127599848Y-105809703D01*
X127527261Y-105712738D01*
X127410205Y-105625111D01*
X127325723Y-105593601D01*
X127273201Y-105574011D01*
X127212638Y-105567500D01*
X125615362Y-105567500D01*
X125612013Y-105567859D01*
X125612013Y-105567860D01*
X125554799Y-105574011D01*
X125417794Y-105625111D01*
X125300738Y-105712738D01*
X125213111Y-105829794D01*
X125183265Y-105909815D01*
X125162011Y-105966799D01*
X125155500Y-106027362D01*
X125155500Y-107024638D01*
X125155860Y-107027986D01*
X125162011Y-107085200D01*
X125213111Y-107222205D01*
X125302745Y-107341942D01*
X125327556Y-107408462D01*
X125312465Y-107477836D01*
X125262262Y-107528038D01*
X125214685Y-107542798D01*
X125185668Y-107545762D01*
X125121631Y-107566982D01*
X125022899Y-107599698D01*
X124909258Y-107669793D01*
X124876955Y-107689718D01*
X124873735Y-107692938D01*
X124811420Y-107726958D01*
X124740605Y-107721888D01*
X124695551Y-107692931D01*
X124692729Y-107690109D01*
X124546887Y-107600153D01*
X124384238Y-107546256D01*
X124287028Y-107536325D01*
X124280639Y-107536000D01*
X124264000Y-107536000D01*
X124264000Y-109502000D01*
X123756000Y-109502000D01*
X123756000Y-108773000D01*
X123052000Y-108773000D01*
X116800567Y-108773000D01*
X116699375Y-108745885D01*
X116480000Y-108726693D01*
X116260624Y-108745885D01*
X116047925Y-108802879D01*
X115848347Y-108895943D01*
X115667958Y-109022253D01*
X115512253Y-109177958D01*
X115385943Y-109358347D01*
X115292879Y-109557925D01*
X115235885Y-109770624D01*
X115216693Y-109990000D01*
X113157100Y-109990000D01*
X113157100Y-108265000D01*
X123052000Y-108265000D01*
X123756000Y-108265000D01*
X123756000Y-107536000D01*
X123739361Y-107536000D01*
X123732971Y-107536325D01*
X123635761Y-107546256D01*
X123473114Y-107600152D01*
X123327268Y-107690111D01*
X123206111Y-107811268D01*
X123116152Y-107957114D01*
X123062256Y-108119761D01*
X123052325Y-108216971D01*
X123052000Y-108223361D01*
X123052000Y-108265000D01*
X113157100Y-108265000D01*
X113157100Y-101913740D01*
X119800479Y-101913740D01*
X119804641Y-101957761D01*
X119805200Y-101969619D01*
X119805200Y-105156447D01*
X119802904Y-105177235D01*
X119805138Y-105248284D01*
X119805200Y-105252243D01*
X119805200Y-105280156D01*
X119805695Y-105284074D01*
X119805697Y-105284106D01*
X119805708Y-105284188D01*
X119806637Y-105295997D01*
X119808026Y-105340192D01*
X119813677Y-105359641D01*
X119817686Y-105378996D01*
X119820225Y-105399094D01*
X119820225Y-105399096D01*
X119820226Y-105399097D01*
X119836152Y-105439323D01*
X119836501Y-105440203D01*
X119840344Y-105451430D01*
X119852680Y-105493890D01*
X119862994Y-105511330D01*
X119871687Y-105529074D01*
X119878664Y-105546694D01*
X119879149Y-105547919D01*
X119905131Y-105583680D01*
X119911648Y-105593601D01*
X119934158Y-105631663D01*
X119948478Y-105645983D01*
X119961318Y-105661016D01*
X119973226Y-105677405D01*
X120007298Y-105705592D01*
X120016078Y-105713582D01*
X120220091Y-105917595D01*
X120254117Y-105979907D01*
X120256275Y-106020150D01*
X120255500Y-106027362D01*
X120255500Y-107024638D01*
X120255860Y-107027986D01*
X120262011Y-107085200D01*
X120313111Y-107222205D01*
X120400738Y-107339261D01*
X120517794Y-107426888D01*
X120517795Y-107426888D01*
X120517796Y-107426889D01*
X120654799Y-107477989D01*
X120715362Y-107484500D01*
X120718731Y-107484500D01*
X122309269Y-107484500D01*
X122312638Y-107484500D01*
X122373201Y-107477989D01*
X122510204Y-107426889D01*
X122627261Y-107339261D01*
X122714889Y-107222204D01*
X122765989Y-107085201D01*
X122772500Y-107024638D01*
X122772500Y-106027362D01*
X122765989Y-105966799D01*
X122714889Y-105829796D01*
X122699848Y-105809703D01*
X122627261Y-105712738D01*
X122510205Y-105625111D01*
X122425723Y-105593601D01*
X122373201Y-105574011D01*
X122312638Y-105567500D01*
X122309269Y-105567500D01*
X121713995Y-105567500D01*
X121645874Y-105547498D01*
X121624899Y-105530595D01*
X121109104Y-105014799D01*
X121075079Y-104952487D01*
X121072200Y-104925704D01*
X121072200Y-104310000D01*
X121092202Y-104241879D01*
X121145858Y-104195386D01*
X121198200Y-104184000D01*
X121260000Y-104184000D01*
X121260000Y-103480000D01*
X121768000Y-103480000D01*
X121768000Y-104184000D01*
X122309223Y-104184000D01*
X122315936Y-104183640D01*
X122373093Y-104177494D01*
X122509962Y-104126445D01*
X122626904Y-104038904D01*
X122714445Y-103921962D01*
X122765494Y-103785093D01*
X122771640Y-103727936D01*
X122772000Y-103721222D01*
X122772000Y-103480000D01*
X121768000Y-103480000D01*
X121260000Y-103480000D01*
X121260000Y-102268000D01*
X121768000Y-102268000D01*
X121768000Y-102972000D01*
X122772000Y-102972000D01*
X122772000Y-102730777D01*
X122771640Y-102724063D01*
X122765494Y-102666906D01*
X122714445Y-102530037D01*
X122626904Y-102413095D01*
X122509962Y-102325554D01*
X122373093Y-102274505D01*
X122315936Y-102268359D01*
X122309223Y-102268000D01*
X121768000Y-102268000D01*
X121260000Y-102268000D01*
X121260000Y-102267999D01*
X121241464Y-102249463D01*
X121236473Y-102247998D01*
X121189980Y-102194342D01*
X121179876Y-102124068D01*
X121209370Y-102059488D01*
X121215499Y-102052905D01*
X123056372Y-100212032D01*
X124935226Y-98333176D01*
X124997538Y-98299151D01*
X125068353Y-98304216D01*
X125125189Y-98346763D01*
X125150000Y-98413283D01*
X125142376Y-98466304D01*
X125111011Y-98550399D01*
X125104500Y-98610962D01*
X125104500Y-98614330D01*
X125104500Y-98733289D01*
X125084498Y-98801410D01*
X125067604Y-98822375D01*
X123780577Y-100109663D01*
X123718269Y-100143695D01*
X123717671Y-100143823D01*
X123654714Y-100157205D01*
X123480246Y-100234883D01*
X123325747Y-100347133D01*
X123197958Y-100489057D01*
X123102472Y-100654443D01*
X123043458Y-100836070D01*
X123037793Y-100889971D01*
X123023496Y-101026000D01*
X123032458Y-101111268D01*
X123043458Y-101215929D01*
X123102472Y-101397556D01*
X123197958Y-101562942D01*
X123281829Y-101656090D01*
X123325747Y-101704866D01*
X123480248Y-101817118D01*
X123654712Y-101894794D01*
X123841513Y-101934500D01*
X123841515Y-101934500D01*
X124032485Y-101934500D01*
X124032487Y-101934500D01*
X124219288Y-101894794D01*
X124393752Y-101817118D01*
X124548253Y-101704866D01*
X124676040Y-101562944D01*
X124771527Y-101397556D01*
X124823080Y-101238893D01*
X124826426Y-101228596D01*
X124857153Y-101178448D01*
X125930371Y-100105013D01*
X125992678Y-100070982D01*
X126019474Y-100068100D01*
X127158269Y-100068100D01*
X127161638Y-100068100D01*
X127222201Y-100061589D01*
X127359204Y-100010489D01*
X127476261Y-99922861D01*
X127532656Y-99847526D01*
X127589491Y-99804980D01*
X127660306Y-99799914D01*
X127722619Y-99833939D01*
X127756644Y-99896251D01*
X127758047Y-99942269D01*
X127693018Y-100363284D01*
X127692647Y-100365687D01*
X127692462Y-100368084D01*
X127692460Y-100368110D01*
X127652395Y-100889971D01*
X127652211Y-100892374D01*
X127652211Y-101420612D01*
X127652394Y-101423003D01*
X127652395Y-101423014D01*
X127692460Y-101944875D01*
X127692462Y-101944898D01*
X127692647Y-101947299D01*
X127696606Y-101972931D01*
X127749190Y-102313370D01*
X127739821Y-102383746D01*
X127693892Y-102437884D01*
X127625983Y-102458597D01*
X127557657Y-102439308D01*
X127535569Y-102418958D01*
X127410205Y-102325111D01*
X127315736Y-102289876D01*
X127273201Y-102274011D01*
X127212638Y-102267500D01*
X125615362Y-102267500D01*
X125612013Y-102267859D01*
X125612013Y-102267860D01*
X125554799Y-102274011D01*
X125417794Y-102325111D01*
X125300738Y-102412738D01*
X125213111Y-102529794D01*
X125173166Y-102636892D01*
X125162011Y-102666799D01*
X125155500Y-102727362D01*
X125155500Y-103724638D01*
X125155860Y-103727986D01*
X125162011Y-103785200D01*
X125213111Y-103922205D01*
X125300738Y-104039261D01*
X125417794Y-104126888D01*
X125417795Y-104126888D01*
X125417796Y-104126889D01*
X125554799Y-104177989D01*
X125615362Y-104184500D01*
X126374406Y-104184500D01*
X126442527Y-104204502D01*
X126463501Y-104221405D01*
X128014895Y-105772798D01*
X128048920Y-105835110D01*
X128051800Y-105861893D01*
X128051800Y-108899000D01*
X128031798Y-108967121D01*
X127978142Y-109013614D01*
X127925800Y-109025000D01*
X127864000Y-109025000D01*
X127864000Y-110941000D01*
X127925800Y-110941000D01*
X127993921Y-110961002D01*
X128040414Y-111014658D01*
X128051800Y-111067000D01*
X128051800Y-111843105D01*
X128031798Y-111911226D01*
X128014895Y-111932200D01*
X127659500Y-112287595D01*
X127597188Y-112321621D01*
X127570405Y-112324500D01*
X126811362Y-112324500D01*
X126808013Y-112324859D01*
X126808013Y-112324860D01*
X126750799Y-112331011D01*
X126613794Y-112382111D01*
X126496738Y-112469738D01*
X126409111Y-112586794D01*
X126367307Y-112698876D01*
X126358011Y-112723799D01*
X126351500Y-112784362D01*
X126351500Y-113781638D01*
X126351860Y-113784986D01*
X126358011Y-113842200D01*
X126409111Y-113979205D01*
X126496738Y-114096261D01*
X126613794Y-114183888D01*
X126613795Y-114183888D01*
X126613796Y-114183889D01*
X126750799Y-114234989D01*
X126811362Y-114241500D01*
X126814731Y-114241500D01*
X128405269Y-114241500D01*
X128408638Y-114241500D01*
X128469201Y-114234989D01*
X128606204Y-114183889D01*
X128723261Y-114096261D01*
X128810889Y-113979204D01*
X128861989Y-113842201D01*
X128868500Y-113781638D01*
X128868500Y-112922593D01*
X128888502Y-112854473D01*
X128905400Y-112833503D01*
X129073959Y-112664943D01*
X129090277Y-112651872D01*
X129092314Y-112649702D01*
X129092318Y-112649700D01*
X129138961Y-112600028D01*
X129141653Y-112597250D01*
X129161435Y-112577470D01*
X129163913Y-112574274D01*
X129171608Y-112565263D01*
X129201886Y-112533021D01*
X129211642Y-112515271D01*
X129222495Y-112498750D01*
X129234914Y-112482741D01*
X129252475Y-112442154D01*
X129257688Y-112431513D01*
X129278995Y-112392760D01*
X129284033Y-112373134D01*
X129290437Y-112354432D01*
X129298481Y-112335844D01*
X129299247Y-112331011D01*
X129305396Y-112292181D01*
X129307804Y-112280553D01*
X129318800Y-112237730D01*
X129318800Y-112217475D01*
X129320351Y-112197763D01*
X129323520Y-112177757D01*
X129319359Y-112133736D01*
X129318800Y-112121879D01*
X129318800Y-108554942D01*
X139217479Y-108554942D01*
X139221641Y-108598961D01*
X139222200Y-108610819D01*
X139222200Y-110748206D01*
X139219968Y-110771816D01*
X139218424Y-110779906D01*
X139221951Y-110835949D01*
X139222200Y-110843861D01*
X139222200Y-110859856D01*
X139222695Y-110863779D01*
X139222696Y-110863787D01*
X139224204Y-110875726D01*
X139224947Y-110883596D01*
X139228474Y-110939650D01*
X139231021Y-110947489D01*
X139236193Y-110970623D01*
X139237225Y-110978796D01*
X139257895Y-111031002D01*
X139260573Y-111038439D01*
X139275395Y-111084056D01*
X139277937Y-111091877D01*
X139282352Y-111098834D01*
X139293118Y-111119964D01*
X139296148Y-111127618D01*
X139329152Y-111173044D01*
X139333601Y-111179590D01*
X139363700Y-111227018D01*
X139369707Y-111232659D01*
X139385385Y-111250442D01*
X139390228Y-111257107D01*
X139408214Y-111271986D01*
X139433496Y-111292901D01*
X139439431Y-111298133D01*
X139480379Y-111336586D01*
X139487598Y-111340555D01*
X139507215Y-111353887D01*
X139513555Y-111359133D01*
X139530700Y-111367200D01*
X139564397Y-111383057D01*
X139571382Y-111386615D01*
X139620640Y-111413695D01*
X139628617Y-111415743D01*
X139650926Y-111423774D01*
X139658382Y-111427283D01*
X139660081Y-111427607D01*
X139671267Y-111433346D01*
X139672788Y-111434062D01*
X139672763Y-111434114D01*
X139723248Y-111460016D01*
X139737344Y-111475867D01*
X139817738Y-111583261D01*
X139934794Y-111670888D01*
X139934795Y-111670888D01*
X139934796Y-111670889D01*
X140071799Y-111721989D01*
X140132362Y-111728500D01*
X140135731Y-111728500D01*
X141726269Y-111728500D01*
X141729638Y-111728500D01*
X141790201Y-111721989D01*
X141927204Y-111670889D01*
X142044261Y-111583261D01*
X142131889Y-111466204D01*
X142182989Y-111329201D01*
X142189500Y-111268638D01*
X142189500Y-110271362D01*
X142182989Y-110210799D01*
X142131889Y-110073796D01*
X142131888Y-110073794D01*
X142044261Y-109956738D01*
X141927205Y-109869111D01*
X141858702Y-109843561D01*
X141790201Y-109818011D01*
X141729638Y-109811500D01*
X141726269Y-109811500D01*
X140615200Y-109811500D01*
X140547079Y-109791498D01*
X140500586Y-109737842D01*
X140489200Y-109685500D01*
X140489200Y-109481013D01*
X140489200Y-109270968D01*
X140509201Y-109202852D01*
X140562856Y-109156358D01*
X140633130Y-109146254D01*
X140659227Y-109152914D01*
X140790799Y-109201989D01*
X140851362Y-109208500D01*
X140854731Y-109208500D01*
X142445269Y-109208500D01*
X142448638Y-109208500D01*
X142509201Y-109201989D01*
X142646204Y-109150889D01*
X142763261Y-109063261D01*
X142850889Y-108946204D01*
X142901989Y-108809201D01*
X142908500Y-108748638D01*
X145291500Y-108748638D01*
X145298011Y-108809201D01*
X145302439Y-108821073D01*
X145349111Y-108946205D01*
X145436738Y-109063261D01*
X145553794Y-109150888D01*
X145553795Y-109150888D01*
X145553796Y-109150889D01*
X145690799Y-109201989D01*
X145751362Y-109208500D01*
X145754731Y-109208500D01*
X147345269Y-109208500D01*
X147348638Y-109208500D01*
X147409201Y-109201989D01*
X147546204Y-109150889D01*
X147634548Y-109084755D01*
X147701066Y-109059945D01*
X147749688Y-109066019D01*
X147804664Y-109084236D01*
X147863167Y-109090213D01*
X147901926Y-109094173D01*
X147901928Y-109094173D01*
X147905128Y-109094500D01*
X148370079Y-109094500D01*
X148438200Y-109114502D01*
X148463715Y-109136190D01*
X148501327Y-109177962D01*
X148514747Y-109192866D01*
X148669248Y-109305118D01*
X148843712Y-109382794D01*
X149030513Y-109422500D01*
X149030515Y-109422500D01*
X149221485Y-109422500D01*
X149221487Y-109422500D01*
X149408288Y-109382794D01*
X149582752Y-109305118D01*
X149737253Y-109192866D01*
X149865040Y-109050944D01*
X149960527Y-108885556D01*
X150019542Y-108703928D01*
X150039504Y-108514000D01*
X150019542Y-108324072D01*
X149984893Y-108217434D01*
X149960527Y-108142443D01*
X149865041Y-107977057D01*
X149737252Y-107835133D01*
X149594388Y-107731336D01*
X149582752Y-107722882D01*
X149408288Y-107645206D01*
X149408286Y-107645205D01*
X149408285Y-107645205D01*
X149348645Y-107632527D01*
X149293856Y-107605805D01*
X149277131Y-107591772D01*
X149269024Y-107584343D01*
X149267694Y-107583013D01*
X149265101Y-107580420D01*
X149262235Y-107578153D01*
X149262224Y-107578144D01*
X149240530Y-107560991D01*
X149237708Y-107558692D01*
X149179640Y-107509968D01*
X149179639Y-107509967D01*
X149178621Y-107509113D01*
X149162110Y-107498594D01*
X149092205Y-107465996D01*
X149088909Y-107464400D01*
X149076872Y-107458355D01*
X149024973Y-107409909D01*
X149007505Y-107341095D01*
X149026178Y-107279610D01*
X149122847Y-107122884D01*
X149176743Y-106960238D01*
X149186674Y-106863028D01*
X149187000Y-106856638D01*
X149187000Y-106840000D01*
X147221000Y-106840000D01*
X147221000Y-106856638D01*
X147221325Y-106863028D01*
X147231256Y-106960238D01*
X147286141Y-107125867D01*
X147288582Y-107196821D01*
X147252274Y-107257832D01*
X147188745Y-107289527D01*
X147166537Y-107291500D01*
X145751362Y-107291500D01*
X145748013Y-107291859D01*
X145748013Y-107291860D01*
X145690799Y-107298011D01*
X145553794Y-107349111D01*
X145436738Y-107436738D01*
X145349111Y-107553794D01*
X145306917Y-107666920D01*
X145298011Y-107690799D01*
X145291500Y-107751362D01*
X145291500Y-108748638D01*
X142908500Y-108748638D01*
X142908500Y-107751362D01*
X142901989Y-107690799D01*
X142850889Y-107553796D01*
X142848906Y-107551147D01*
X142763261Y-107436738D01*
X142646205Y-107349111D01*
X142577702Y-107323561D01*
X142509201Y-107298011D01*
X142448638Y-107291500D01*
X140851362Y-107291500D01*
X140848013Y-107291859D01*
X140848013Y-107291860D01*
X140790799Y-107298011D01*
X140653794Y-107349111D01*
X140536739Y-107436737D01*
X140512583Y-107469008D01*
X140455748Y-107511555D01*
X140411714Y-107519500D01*
X140361553Y-107519500D01*
X140340764Y-107517204D01*
X140269714Y-107519438D01*
X140265755Y-107519500D01*
X140237844Y-107519500D01*
X140233918Y-107519995D01*
X140233900Y-107519997D01*
X140233808Y-107520009D01*
X140222003Y-107520937D01*
X140177810Y-107522326D01*
X140158357Y-107527978D01*
X140139003Y-107531986D01*
X140118902Y-107534525D01*
X140077798Y-107550800D01*
X140066569Y-107554645D01*
X140024105Y-107566982D01*
X140006664Y-107577296D01*
X139988917Y-107585990D01*
X139970084Y-107593447D01*
X139934311Y-107619437D01*
X139924393Y-107625951D01*
X139886339Y-107648457D01*
X139872012Y-107662783D01*
X139856983Y-107675618D01*
X139840594Y-107687525D01*
X139812406Y-107721598D01*
X139804418Y-107730376D01*
X139467031Y-108067762D01*
X139450717Y-108080832D01*
X139402069Y-108132636D01*
X139399321Y-108135472D01*
X139382367Y-108152427D01*
X139382360Y-108152434D01*
X139379565Y-108155230D01*
X139377142Y-108158352D01*
X139377126Y-108158371D01*
X139377065Y-108158451D01*
X139369389Y-108167436D01*
X139339114Y-108199677D01*
X139329352Y-108217434D01*
X139318501Y-108233952D01*
X139306085Y-108249959D01*
X139288524Y-108290539D01*
X139283304Y-108301195D01*
X139262004Y-108339940D01*
X139256967Y-108359559D01*
X139250564Y-108378261D01*
X139242518Y-108396855D01*
X139235601Y-108440524D01*
X139233195Y-108452144D01*
X139222200Y-108494969D01*
X139222200Y-108515223D01*
X139220649Y-108534933D01*
X139217479Y-108554942D01*
X129318800Y-108554942D01*
X129318800Y-105977936D01*
X129338802Y-105909815D01*
X129392458Y-105863322D01*
X129462732Y-105853218D01*
X129527312Y-105882712D01*
X129535586Y-105890564D01*
X129759428Y-106123151D01*
X129759448Y-106123170D01*
X129761106Y-106124893D01*
X130155463Y-106476343D01*
X130157385Y-106477808D01*
X130157391Y-106477813D01*
X130238972Y-106539999D01*
X130575567Y-106796574D01*
X131018951Y-107083707D01*
X131483014Y-107336056D01*
X131965033Y-107552142D01*
X131967310Y-107552959D01*
X131967313Y-107552961D01*
X132049113Y-107582340D01*
X132462179Y-107730695D01*
X132971533Y-107870668D01*
X133490109Y-107971240D01*
X134014861Y-108031820D01*
X134410703Y-108046993D01*
X134413105Y-108047016D01*
X134674719Y-108046993D01*
X134677143Y-108046924D01*
X135067002Y-108031956D01*
X135070561Y-108031820D01*
X135595313Y-107971240D01*
X136113889Y-107870668D01*
X136623243Y-107730695D01*
X137120389Y-107552142D01*
X137602408Y-107336056D01*
X138066471Y-107083707D01*
X138509855Y-106796574D01*
X138929959Y-106476343D01*
X139324316Y-106124893D01*
X139690614Y-105744286D01*
X140026701Y-105336757D01*
X140162942Y-105143062D01*
X140218492Y-105098854D01*
X140289127Y-105091695D01*
X140352419Y-105123860D01*
X140388274Y-105185138D01*
X140392000Y-105215554D01*
X140392000Y-105445222D01*
X140392359Y-105451936D01*
X140398505Y-105509093D01*
X140449554Y-105645962D01*
X140537095Y-105762904D01*
X140654037Y-105850445D01*
X140790906Y-105901494D01*
X140848063Y-105907640D01*
X140854777Y-105908000D01*
X141396000Y-105908000D01*
X141396000Y-105204000D01*
X141904000Y-105204000D01*
X141904000Y-105908000D01*
X142445223Y-105908000D01*
X142451936Y-105907640D01*
X142509093Y-105901494D01*
X142645962Y-105850445D01*
X142762904Y-105762904D01*
X142850445Y-105645962D01*
X142901494Y-105509093D01*
X142907640Y-105451936D01*
X142908000Y-105445222D01*
X142908000Y-105204000D01*
X141904000Y-105204000D01*
X141396000Y-105204000D01*
X141396000Y-103992000D01*
X141904000Y-103992000D01*
X141904000Y-104696000D01*
X142908000Y-104696000D01*
X142908000Y-104454777D01*
X142907640Y-104448063D01*
X142901494Y-104390906D01*
X142850445Y-104254037D01*
X142762904Y-104137095D01*
X142645962Y-104049554D01*
X142509093Y-103998505D01*
X142451936Y-103992359D01*
X142445223Y-103992000D01*
X141904000Y-103992000D01*
X141396000Y-103992000D01*
X141015621Y-103992000D01*
X140947500Y-103971998D01*
X140901007Y-103918342D01*
X140890903Y-103848068D01*
X140898756Y-103818899D01*
X140948444Y-103695614D01*
X141032399Y-103487309D01*
X141191779Y-102983689D01*
X141277947Y-102615462D01*
X141312944Y-102553693D01*
X141375781Y-102520649D01*
X141446509Y-102526823D01*
X141476141Y-102543306D01*
X141587794Y-102626888D01*
X141587795Y-102626888D01*
X141587796Y-102626889D01*
X141724799Y-102677989D01*
X141785362Y-102684500D01*
X142899800Y-102684500D01*
X142967921Y-102704502D01*
X143014414Y-102758158D01*
X143025800Y-102810500D01*
X143025800Y-103350747D01*
X143023504Y-103371535D01*
X143025738Y-103442584D01*
X143025800Y-103446543D01*
X143025800Y-103474456D01*
X143026295Y-103478374D01*
X143026297Y-103478406D01*
X143026308Y-103478488D01*
X143027237Y-103490297D01*
X143028626Y-103534492D01*
X143034277Y-103553941D01*
X143038286Y-103573296D01*
X143040825Y-103593394D01*
X143040825Y-103593396D01*
X143040826Y-103593397D01*
X143050542Y-103617938D01*
X143057101Y-103634503D01*
X143060944Y-103645730D01*
X143073280Y-103688190D01*
X143083594Y-103705630D01*
X143092287Y-103723374D01*
X143097017Y-103735320D01*
X143099749Y-103742219D01*
X143125731Y-103777980D01*
X143132248Y-103787901D01*
X143154758Y-103825963D01*
X143169078Y-103840283D01*
X143181918Y-103855316D01*
X143193826Y-103871705D01*
X143193827Y-103871706D01*
X143193828Y-103871707D01*
X143227898Y-103899892D01*
X143236678Y-103907882D01*
X144670454Y-105341659D01*
X144683533Y-105357983D01*
X144735351Y-105406643D01*
X144738193Y-105409398D01*
X144757930Y-105429135D01*
X144761060Y-105431563D01*
X144761132Y-105431619D01*
X144770142Y-105439314D01*
X144802379Y-105469586D01*
X144820126Y-105479342D01*
X144836650Y-105490196D01*
X144852659Y-105502614D01*
X144893242Y-105520175D01*
X144903893Y-105525393D01*
X144942640Y-105546695D01*
X144962260Y-105551732D01*
X144980967Y-105558137D01*
X144987580Y-105560998D01*
X144999554Y-105566181D01*
X145007883Y-105567500D01*
X145043230Y-105573098D01*
X145054825Y-105575498D01*
X145097670Y-105586500D01*
X145117924Y-105586500D01*
X145137634Y-105588051D01*
X145157642Y-105591220D01*
X145157642Y-105591219D01*
X145157643Y-105591220D01*
X145201661Y-105587058D01*
X145213519Y-105586500D01*
X145241346Y-105586500D01*
X145309467Y-105606502D01*
X145342214Y-105636991D01*
X145436738Y-105763261D01*
X145553794Y-105850888D01*
X145553795Y-105850888D01*
X145553796Y-105850889D01*
X145690799Y-105901989D01*
X145751362Y-105908500D01*
X145754731Y-105908500D01*
X147157259Y-105908500D01*
X147225380Y-105928502D01*
X147271873Y-105982158D01*
X147281977Y-106052432D01*
X147276863Y-106074133D01*
X147231256Y-106211761D01*
X147221325Y-106308971D01*
X147221000Y-106315361D01*
X147221000Y-106332000D01*
X147950000Y-106332000D01*
X147950000Y-105628000D01*
X148458000Y-105628000D01*
X148458000Y-106332000D01*
X149187000Y-106332000D01*
X149187000Y-106315361D01*
X149186674Y-106308971D01*
X149176743Y-106211761D01*
X149122847Y-106049114D01*
X149032888Y-105903268D01*
X148911731Y-105782111D01*
X148765885Y-105692152D01*
X148603238Y-105638256D01*
X148506028Y-105628325D01*
X148499639Y-105628000D01*
X148458000Y-105628000D01*
X147950000Y-105628000D01*
X147929489Y-105628000D01*
X147861368Y-105607998D01*
X147814875Y-105554342D01*
X147804211Y-105488531D01*
X147805199Y-105479342D01*
X147808500Y-105448638D01*
X147808500Y-104451362D01*
X147807709Y-104444000D01*
X150248487Y-104444000D01*
X151733757Y-104444000D01*
X151731682Y-104447954D01*
X151691000Y-104613005D01*
X151691000Y-104782995D01*
X151731682Y-104948046D01*
X151733757Y-104952000D01*
X150249734Y-104952000D01*
X150259019Y-105036382D01*
X150327811Y-105299516D01*
X150434181Y-105549827D01*
X150575868Y-105781989D01*
X150749841Y-105991039D01*
X150952398Y-106172530D01*
X151179229Y-106322602D01*
X151425489Y-106438043D01*
X151685939Y-106516401D01*
X151955010Y-106556000D01*
X152137000Y-106556000D01*
X152137000Y-105350320D01*
X152222249Y-105382651D01*
X152348660Y-105398000D01*
X152433340Y-105398000D01*
X152559751Y-105382651D01*
X152645000Y-105350320D01*
X152645000Y-106556000D01*
X152756604Y-106556000D01*
X152761198Y-106555832D01*
X152962254Y-106541116D01*
X153227718Y-106481981D01*
X153481750Y-106384823D01*
X153718929Y-106251712D01*
X153934190Y-106085491D01*
X154122968Y-105889689D01*
X154281220Y-105668492D01*
X154405577Y-105426616D01*
X154493392Y-105169208D01*
X154533513Y-104952000D01*
X153048243Y-104952000D01*
X153050318Y-104948046D01*
X153091000Y-104782995D01*
X153091000Y-104766058D01*
X155728771Y-104766058D01*
X155758527Y-105036475D01*
X155827294Y-105299516D01*
X155827337Y-105299678D01*
X155842252Y-105334775D01*
X155933737Y-105550060D01*
X156075458Y-105782278D01*
X156224603Y-105961493D01*
X156249481Y-105991387D01*
X156452096Y-106172931D01*
X156678984Y-106323039D01*
X156925311Y-106438512D01*
X157185825Y-106516889D01*
X157185826Y-106516889D01*
X157185829Y-106516890D01*
X157454973Y-106556500D01*
X157454975Y-106556500D01*
X158256619Y-106556500D01*
X158258920Y-106556500D01*
X158462324Y-106541613D01*
X158727864Y-106482461D01*
X158981963Y-106385277D01*
X159219203Y-106252131D01*
X159219202Y-106252131D01*
X159219205Y-106252130D01*
X159328705Y-106167576D01*
X159434529Y-106085861D01*
X159623352Y-105890012D01*
X159700430Y-105782277D01*
X159781646Y-105668758D01*
X159906037Y-105426815D01*
X159909447Y-105416819D01*
X159950371Y-105358805D01*
X160016164Y-105332125D01*
X160028699Y-105331500D01*
X160303406Y-105331500D01*
X160371527Y-105351502D01*
X160392501Y-105368405D01*
X161191672Y-106167576D01*
X161225698Y-106229888D01*
X161224284Y-106289281D01*
X161215885Y-106320626D01*
X161196693Y-106539999D01*
X161215885Y-106759375D01*
X161272879Y-106972074D01*
X161365943Y-107171653D01*
X161492253Y-107352041D01*
X161647958Y-107507746D01*
X161647961Y-107507748D01*
X161647962Y-107507749D01*
X161828346Y-107634056D01*
X162027924Y-107727120D01*
X162105897Y-107748013D01*
X162240624Y-107784114D01*
X162240625Y-107784114D01*
X162240629Y-107784115D01*
X162460000Y-107803307D01*
X162679371Y-107784115D01*
X162892076Y-107727120D01*
X163091654Y-107634056D01*
X163272038Y-107507749D01*
X163427749Y-107352038D01*
X163554056Y-107171654D01*
X163647120Y-106972076D01*
X163704115Y-106759371D01*
X163723307Y-106540000D01*
X163704115Y-106320629D01*
X163702703Y-106315361D01*
X163663104Y-106167576D01*
X163647120Y-106107924D01*
X163554056Y-105908347D01*
X163427749Y-105727962D01*
X163427748Y-105727961D01*
X163427746Y-105727958D01*
X163272041Y-105572253D01*
X163091653Y-105445943D01*
X162892074Y-105352879D01*
X162679375Y-105295885D01*
X162460000Y-105276693D01*
X162240627Y-105295885D01*
X162209283Y-105304284D01*
X162138306Y-105302594D01*
X162087577Y-105271672D01*
X161125244Y-104309339D01*
X161112171Y-104293021D01*
X161060348Y-104244356D01*
X161057506Y-104241601D01*
X161040574Y-104224669D01*
X161037770Y-104221865D01*
X161034575Y-104219386D01*
X161025554Y-104211682D01*
X160993320Y-104181413D01*
X160975567Y-104171653D01*
X160959041Y-104160797D01*
X160943041Y-104148386D01*
X160932219Y-104143703D01*
X160902465Y-104130827D01*
X160891804Y-104125604D01*
X160853063Y-104104305D01*
X160839313Y-104100775D01*
X160833437Y-104099266D01*
X160814731Y-104092862D01*
X160796145Y-104084819D01*
X160752475Y-104077902D01*
X160740853Y-104075495D01*
X160698030Y-104064500D01*
X160698029Y-104064500D01*
X160677776Y-104064500D01*
X160658066Y-104062949D01*
X160638057Y-104059779D01*
X160594039Y-104063941D01*
X160582181Y-104064500D01*
X160024501Y-104064500D01*
X159956380Y-104044498D01*
X159909887Y-103990842D01*
X159908537Y-103987779D01*
X159848262Y-103845939D01*
X159706541Y-103613721D01*
X159532518Y-103404612D01*
X159329907Y-103223072D01*
X159329908Y-103223072D01*
X159329904Y-103223069D01*
X159144874Y-103100654D01*
X159103015Y-103072960D01*
X158856689Y-102957488D01*
X158596170Y-102879109D01*
X158327027Y-102839500D01*
X158327025Y-102839500D01*
X157523080Y-102839500D01*
X157520810Y-102839666D01*
X157520786Y-102839667D01*
X157319672Y-102854387D01*
X157054137Y-102913538D01*
X156800036Y-103010722D01*
X156562794Y-103143869D01*
X156347475Y-103310135D01*
X156158642Y-103505994D01*
X156000353Y-103727241D01*
X155875961Y-103969187D01*
X155788122Y-104226664D01*
X155738708Y-104494188D01*
X155728771Y-104766058D01*
X153091000Y-104766058D01*
X153091000Y-104613005D01*
X153050318Y-104447954D01*
X153048243Y-104444000D01*
X154532265Y-104444000D01*
X154532265Y-104443999D01*
X154522980Y-104359617D01*
X154454188Y-104096483D01*
X154347818Y-103846172D01*
X154206131Y-103614010D01*
X154032158Y-103404960D01*
X153829601Y-103223469D01*
X153602770Y-103073397D01*
X153356510Y-102957956D01*
X153096060Y-102879598D01*
X152826990Y-102840000D01*
X152645000Y-102840000D01*
X152645000Y-104045679D01*
X152559751Y-104013349D01*
X152433340Y-103998000D01*
X152348660Y-103998000D01*
X152222249Y-104013349D01*
X152137000Y-104045679D01*
X152137000Y-102840000D01*
X152025396Y-102840000D01*
X152020801Y-102840167D01*
X151819745Y-102854883D01*
X151554281Y-102914018D01*
X151300249Y-103011176D01*
X151063070Y-103144287D01*
X150847809Y-103310508D01*
X150659031Y-103506310D01*
X150500779Y-103727507D01*
X150376422Y-103969383D01*
X150288607Y-104226791D01*
X150248487Y-104444000D01*
X147807709Y-104444000D01*
X147801989Y-104390799D01*
X147750889Y-104253796D01*
X147750888Y-104253794D01*
X147663261Y-104136738D01*
X147546205Y-104049111D01*
X147450323Y-104013349D01*
X147409201Y-103998011D01*
X147348638Y-103991500D01*
X145751362Y-103991500D01*
X145748013Y-103991859D01*
X145748013Y-103991860D01*
X145690799Y-103998011D01*
X145553794Y-104049111D01*
X145422237Y-104147595D01*
X145419324Y-104143703D01*
X145390192Y-104165492D01*
X145319374Y-104170526D01*
X145257117Y-104136513D01*
X144329702Y-103209097D01*
X144295679Y-103146788D01*
X144292800Y-103120005D01*
X144292800Y-102224638D01*
X146225500Y-102224638D01*
X146232011Y-102285201D01*
X146242518Y-102313370D01*
X146283111Y-102422205D01*
X146370738Y-102539261D01*
X146487794Y-102626888D01*
X146487795Y-102626888D01*
X146487796Y-102626889D01*
X146624799Y-102677989D01*
X146685362Y-102684500D01*
X147675869Y-102684500D01*
X147743990Y-102704502D01*
X147764964Y-102721405D01*
X148022934Y-102979375D01*
X148053672Y-103029534D01*
X148108532Y-103198375D01*
X148204018Y-103363762D01*
X148241113Y-103404960D01*
X148331807Y-103505686D01*
X148486308Y-103617938D01*
X148660772Y-103695614D01*
X148847573Y-103735320D01*
X148847575Y-103735320D01*
X149038545Y-103735320D01*
X149038547Y-103735320D01*
X149225348Y-103695614D01*
X149399812Y-103617938D01*
X149554313Y-103505686D01*
X149682100Y-103363764D01*
X149777587Y-103198376D01*
X149836602Y-103016748D01*
X149856564Y-102826820D01*
X149836602Y-102636892D01*
X149801804Y-102529796D01*
X149777587Y-102455263D01*
X149682101Y-102289877D01*
X149554312Y-102147953D01*
X149399813Y-102035703D01*
X149399812Y-102035702D01*
X149225348Y-101958026D01*
X149225346Y-101958025D01*
X149225345Y-101958025D01*
X149162289Y-101944621D01*
X149099816Y-101910892D01*
X149099393Y-101910470D01*
X148779405Y-101590482D01*
X148745379Y-101528170D01*
X148742500Y-101501387D01*
X148742500Y-101230730D01*
X148742500Y-101230729D01*
X148742500Y-101227362D01*
X148735989Y-101166799D01*
X148684889Y-101029796D01*
X148684888Y-101029794D01*
X148597261Y-100912738D01*
X148480205Y-100825111D01*
X148401010Y-100795573D01*
X148343201Y-100774011D01*
X148282638Y-100767500D01*
X146685362Y-100767500D01*
X146682013Y-100767859D01*
X146682013Y-100767860D01*
X146624799Y-100774011D01*
X146487794Y-100825111D01*
X146370738Y-100912738D01*
X146283111Y-101029794D01*
X146243175Y-101136867D01*
X146232011Y-101166799D01*
X146225500Y-101227362D01*
X146225500Y-102224638D01*
X144292800Y-102224638D01*
X144292800Y-101747793D01*
X144295032Y-101724181D01*
X144296575Y-101716094D01*
X144293048Y-101660047D01*
X144292800Y-101652136D01*
X144292800Y-101640102D01*
X144292800Y-101636144D01*
X144290794Y-101620269D01*
X144290051Y-101612401D01*
X144286525Y-101556353D01*
X144286525Y-101556350D01*
X144283978Y-101548513D01*
X144278805Y-101525368D01*
X144277774Y-101517203D01*
X144257100Y-101464986D01*
X144254419Y-101457539D01*
X144237063Y-101404123D01*
X144232650Y-101397169D01*
X144221883Y-101376038D01*
X144218851Y-101368381D01*
X144185844Y-101322950D01*
X144181395Y-101316404D01*
X144151300Y-101268982D01*
X144145292Y-101263340D01*
X144129609Y-101245551D01*
X144124771Y-101238892D01*
X144081501Y-101203096D01*
X144075564Y-101197862D01*
X144034622Y-101159415D01*
X144034621Y-101159414D01*
X144027399Y-101155443D01*
X144007788Y-101142115D01*
X144001444Y-101136866D01*
X143950628Y-101112954D01*
X143943578Y-101109361D01*
X143894362Y-101082305D01*
X143886378Y-101080255D01*
X143864074Y-101072225D01*
X143856617Y-101068716D01*
X143854911Y-101068391D01*
X143843705Y-101062640D01*
X143842218Y-101061941D01*
X143842242Y-101061889D01*
X143791746Y-101035978D01*
X143777655Y-101020132D01*
X143697261Y-100912738D01*
X143580205Y-100825111D01*
X143501010Y-100795573D01*
X143443201Y-100774011D01*
X143382638Y-100767500D01*
X141785362Y-100767500D01*
X141782013Y-100767859D01*
X141782013Y-100767860D01*
X141724799Y-100774011D01*
X141589341Y-100824534D01*
X141518525Y-100829598D01*
X141456213Y-100795573D01*
X141422188Y-100733261D01*
X141419679Y-100716123D01*
X141418580Y-100701811D01*
X141392775Y-100365687D01*
X141373979Y-100244000D01*
X150233000Y-100244000D01*
X151733757Y-100244000D01*
X151731682Y-100247954D01*
X151691000Y-100413005D01*
X151691000Y-100582995D01*
X151731682Y-100748046D01*
X151733757Y-100752000D01*
X150233001Y-100752000D01*
X150233001Y-101645298D01*
X150233326Y-101651691D01*
X150243606Y-101752322D01*
X150299344Y-101920529D01*
X150392365Y-102071339D01*
X150517660Y-102196634D01*
X150668470Y-102289655D01*
X150836676Y-102345393D01*
X150937308Y-102355674D01*
X150943698Y-102355999D01*
X152137000Y-102355999D01*
X152137000Y-101150320D01*
X152222249Y-101182651D01*
X152348660Y-101198000D01*
X152433340Y-101198000D01*
X152559751Y-101182651D01*
X152645000Y-101150320D01*
X152645000Y-102355999D01*
X153838299Y-102355999D01*
X153844691Y-102355673D01*
X153945322Y-102345393D01*
X154113529Y-102289655D01*
X154264339Y-102196634D01*
X154389634Y-102071339D01*
X154482655Y-101920529D01*
X154538393Y-101752323D01*
X154548674Y-101651691D01*
X154549000Y-101645301D01*
X154549000Y-100752000D01*
X153048243Y-100752000D01*
X153050318Y-100748046D01*
X153091000Y-100582995D01*
X153091000Y-100566058D01*
X155728771Y-100566058D01*
X155758527Y-100836475D01*
X155819242Y-101068716D01*
X155827337Y-101099678D01*
X155851036Y-101155447D01*
X155933737Y-101350060D01*
X156075458Y-101582278D01*
X156249480Y-101791387D01*
X156249481Y-101791387D01*
X156452096Y-101972931D01*
X156678984Y-102123039D01*
X156925311Y-102238512D01*
X157185825Y-102316889D01*
X157185826Y-102316889D01*
X157185829Y-102316890D01*
X157454973Y-102356500D01*
X157454975Y-102356500D01*
X158256619Y-102356500D01*
X158258920Y-102356500D01*
X158462324Y-102341613D01*
X158727864Y-102282461D01*
X158981963Y-102185277D01*
X159048467Y-102147953D01*
X159219205Y-102052130D01*
X159333757Y-101963675D01*
X159434529Y-101885861D01*
X159623352Y-101690012D01*
X159655342Y-101645298D01*
X159781646Y-101468758D01*
X159906038Y-101226812D01*
X159929031Y-101159414D01*
X159993878Y-100969334D01*
X160043292Y-100701810D01*
X160053228Y-100429942D01*
X160023473Y-100159525D01*
X159954663Y-99896322D01*
X159848263Y-99645942D01*
X159848262Y-99645939D01*
X159706541Y-99413721D01*
X159532518Y-99204612D01*
X159394233Y-99080708D01*
X159329904Y-99023069D01*
X159159738Y-98910488D01*
X159103015Y-98872960D01*
X158856689Y-98757488D01*
X158596170Y-98679109D01*
X158327027Y-98639500D01*
X158327025Y-98639500D01*
X157523080Y-98639500D01*
X157520810Y-98639666D01*
X157520786Y-98639667D01*
X157319672Y-98654387D01*
X157054137Y-98713538D01*
X156800036Y-98810722D01*
X156562794Y-98943869D01*
X156347475Y-99110135D01*
X156347471Y-99110138D01*
X156347471Y-99110139D01*
X156336072Y-99121962D01*
X156158642Y-99305994D01*
X156000353Y-99527241D01*
X155875961Y-99769187D01*
X155788122Y-100026664D01*
X155738708Y-100294188D01*
X155728771Y-100566058D01*
X153091000Y-100566058D01*
X153091000Y-100413005D01*
X153050318Y-100247954D01*
X153048243Y-100244000D01*
X154548999Y-100244000D01*
X154548999Y-99350700D01*
X154548673Y-99344308D01*
X154538393Y-99243677D01*
X154482655Y-99075470D01*
X154389634Y-98924660D01*
X154264339Y-98799365D01*
X154113529Y-98706344D01*
X153945323Y-98650606D01*
X153844691Y-98640325D01*
X153838302Y-98640000D01*
X152645000Y-98640000D01*
X152645000Y-99845679D01*
X152559751Y-99813349D01*
X152433340Y-99798000D01*
X152348660Y-99798000D01*
X152222249Y-99813349D01*
X152137000Y-99845679D01*
X152137000Y-98640000D01*
X150943701Y-98640000D01*
X150937308Y-98640326D01*
X150836677Y-98650606D01*
X150668470Y-98706344D01*
X150517660Y-98799365D01*
X150392365Y-98924660D01*
X150299344Y-99075470D01*
X150243606Y-99243676D01*
X150233325Y-99344308D01*
X150233000Y-99350698D01*
X150233000Y-100244000D01*
X141373979Y-100244000D01*
X141312140Y-99843640D01*
X141191779Y-99329297D01*
X141161748Y-99234405D01*
X141160265Y-99163427D01*
X141197392Y-99102912D01*
X141261342Y-99072076D01*
X141331812Y-99080708D01*
X141382745Y-99120882D01*
X141471095Y-99238904D01*
X141588037Y-99326445D01*
X141724906Y-99377494D01*
X141782063Y-99383640D01*
X141788777Y-99384000D01*
X142330000Y-99384000D01*
X142330000Y-98680000D01*
X142838000Y-98680000D01*
X142838000Y-99384000D01*
X143379223Y-99384000D01*
X143385936Y-99383640D01*
X143443093Y-99377494D01*
X143579962Y-99326445D01*
X143696904Y-99238904D01*
X143784445Y-99121962D01*
X143835494Y-98985093D01*
X143841640Y-98927936D01*
X143842000Y-98921222D01*
X143842000Y-98680000D01*
X142838000Y-98680000D01*
X142330000Y-98680000D01*
X141326000Y-98680000D01*
X141326000Y-98921222D01*
X141326541Y-98931315D01*
X141326257Y-98927783D01*
X141313686Y-98997353D01*
X141265293Y-99049302D01*
X141196497Y-99066840D01*
X141129140Y-99044401D01*
X141084607Y-98989108D01*
X141080901Y-98978938D01*
X141066172Y-98932397D01*
X141032399Y-98825677D01*
X140834934Y-98335736D01*
X140753863Y-98172000D01*
X141326000Y-98172000D01*
X142330000Y-98172000D01*
X142330000Y-97468000D01*
X142838000Y-97468000D01*
X142838000Y-98172000D01*
X143842000Y-98172000D01*
X143842000Y-97930777D01*
X143841640Y-97924063D01*
X143835494Y-97866906D01*
X143784445Y-97730037D01*
X143696904Y-97613095D01*
X143579962Y-97525554D01*
X143443093Y-97474505D01*
X143385936Y-97468359D01*
X143379223Y-97468000D01*
X142838000Y-97468000D01*
X142330000Y-97468000D01*
X141788777Y-97468000D01*
X141782063Y-97468359D01*
X141724906Y-97474505D01*
X141588037Y-97525554D01*
X141471095Y-97613095D01*
X141383554Y-97730037D01*
X141332505Y-97866906D01*
X141326359Y-97924063D01*
X141326000Y-97930777D01*
X141326000Y-98172000D01*
X140753863Y-98172000D01*
X140600545Y-97862347D01*
X140435497Y-97584725D01*
X140331839Y-97410364D01*
X140330606Y-97408290D01*
X140197660Y-97219281D01*
X140028095Y-96978210D01*
X140028087Y-96978199D01*
X140026701Y-96976229D01*
X139847886Y-96759403D01*
X139692131Y-96570539D01*
X139692125Y-96570533D01*
X139690614Y-96568700D01*
X139614320Y-96489426D01*
X139325980Y-96189822D01*
X139325979Y-96189821D01*
X139324316Y-96188093D01*
X139269650Y-96139375D01*
X139146117Y-96029282D01*
X138929959Y-95836643D01*
X138928039Y-95835179D01*
X138928030Y-95835172D01*
X138511769Y-95517871D01*
X138509855Y-95516412D01*
X138435466Y-95468238D01*
X140360500Y-95468238D01*
X140360860Y-95471586D01*
X140367011Y-95528800D01*
X140418111Y-95665805D01*
X140505738Y-95782861D01*
X140622794Y-95870488D01*
X140622795Y-95870488D01*
X140622796Y-95870489D01*
X140759799Y-95921589D01*
X140820362Y-95928100D01*
X140823731Y-95928100D01*
X142414269Y-95928100D01*
X142417638Y-95928100D01*
X142478201Y-95921589D01*
X142615204Y-95870489D01*
X142615206Y-95870486D01*
X142632178Y-95864157D01*
X142633497Y-95867693D01*
X142671000Y-95853705D01*
X142740374Y-95868796D01*
X142769084Y-95890288D01*
X144285109Y-97406314D01*
X145743454Y-98864659D01*
X145756533Y-98880983D01*
X145758699Y-98883017D01*
X145758700Y-98883018D01*
X145808350Y-98929642D01*
X145811192Y-98932397D01*
X145830930Y-98952135D01*
X145834060Y-98954563D01*
X145834132Y-98954619D01*
X145843142Y-98962314D01*
X145875379Y-98992586D01*
X145893126Y-99002342D01*
X145909650Y-99013196D01*
X145925659Y-99025614D01*
X145966242Y-99043175D01*
X145976893Y-99048393D01*
X146015640Y-99069695D01*
X146035260Y-99074732D01*
X146053967Y-99081137D01*
X146060580Y-99083998D01*
X146072554Y-99089181D01*
X146083205Y-99090867D01*
X146116230Y-99096098D01*
X146127825Y-99098498D01*
X146170670Y-99109500D01*
X146190924Y-99109500D01*
X146210630Y-99111051D01*
X146232872Y-99114573D01*
X146297027Y-99144983D01*
X146314034Y-99163513D01*
X146370738Y-99239261D01*
X146487794Y-99326888D01*
X146487795Y-99326888D01*
X146487796Y-99326889D01*
X146624799Y-99377989D01*
X146685362Y-99384500D01*
X146688731Y-99384500D01*
X148279269Y-99384500D01*
X148282638Y-99384500D01*
X148343201Y-99377989D01*
X148480204Y-99326889D01*
X148597261Y-99239261D01*
X148684889Y-99122204D01*
X148735989Y-98985201D01*
X148742500Y-98924638D01*
X148742500Y-97927362D01*
X148735989Y-97866799D01*
X148684889Y-97729796D01*
X148634676Y-97662719D01*
X148597261Y-97612738D01*
X148480205Y-97525111D01*
X148392353Y-97492344D01*
X148343201Y-97474011D01*
X148282638Y-97467500D01*
X146685362Y-97467500D01*
X146682013Y-97467859D01*
X146682013Y-97467860D01*
X146624799Y-97474011D01*
X146487794Y-97525111D01*
X146408160Y-97584725D01*
X146341640Y-97609536D01*
X146272266Y-97594445D01*
X146243556Y-97572952D01*
X144734204Y-96063600D01*
X144138842Y-95468238D01*
X145260500Y-95468238D01*
X145260860Y-95471586D01*
X145267011Y-95528800D01*
X145318111Y-95665805D01*
X145405738Y-95782861D01*
X145522794Y-95870488D01*
X145522795Y-95870488D01*
X145522796Y-95870489D01*
X145659799Y-95921589D01*
X145720362Y-95928100D01*
X145723731Y-95928100D01*
X147314269Y-95928100D01*
X147317638Y-95928100D01*
X147378201Y-95921589D01*
X147515204Y-95870489D01*
X147629012Y-95785292D01*
X147695529Y-95760483D01*
X147755767Y-95771055D01*
X147771879Y-95778228D01*
X147794712Y-95788394D01*
X147981513Y-95828100D01*
X147981515Y-95828100D01*
X148172485Y-95828100D01*
X148172487Y-95828100D01*
X148359288Y-95788394D01*
X148533752Y-95710718D01*
X148688253Y-95598466D01*
X148816040Y-95456544D01*
X148911527Y-95291156D01*
X148970542Y-95109528D01*
X148990504Y-94919600D01*
X148970542Y-94729672D01*
X148922446Y-94581649D01*
X148911527Y-94548043D01*
X148816041Y-94382657D01*
X148696844Y-94250275D01*
X148688253Y-94240734D01*
X148533752Y-94128482D01*
X148359288Y-94050806D01*
X148172487Y-94011100D01*
X147981513Y-94011100D01*
X147794712Y-94050806D01*
X147794710Y-94050806D01*
X147794709Y-94050807D01*
X147672003Y-94105439D01*
X147601636Y-94114873D01*
X147545246Y-94091200D01*
X147515206Y-94068712D01*
X147515204Y-94068711D01*
X147378201Y-94017611D01*
X147317638Y-94011100D01*
X145720362Y-94011100D01*
X145717013Y-94011459D01*
X145717013Y-94011460D01*
X145659799Y-94017611D01*
X145522794Y-94068711D01*
X145405738Y-94156338D01*
X145318111Y-94273394D01*
X145277455Y-94382397D01*
X145267011Y-94410399D01*
X145260500Y-94470962D01*
X145260500Y-95468238D01*
X144138842Y-95468238D01*
X143201544Y-94530939D01*
X143188471Y-94514621D01*
X143136648Y-94465956D01*
X143133806Y-94463201D01*
X143116874Y-94446269D01*
X143114070Y-94443465D01*
X143110875Y-94440986D01*
X143101854Y-94433282D01*
X143069620Y-94403013D01*
X143051867Y-94393253D01*
X143035341Y-94382397D01*
X143028914Y-94377412D01*
X143019341Y-94369986D01*
X142978765Y-94352427D01*
X142968104Y-94347204D01*
X142929361Y-94325904D01*
X142909737Y-94320866D01*
X142891033Y-94314462D01*
X142862022Y-94301908D01*
X142811194Y-94261780D01*
X142732261Y-94156338D01*
X142615205Y-94068711D01*
X142546702Y-94043161D01*
X142478201Y-94017611D01*
X142417638Y-94011100D01*
X140820362Y-94011100D01*
X140817013Y-94011459D01*
X140817013Y-94011460D01*
X140759799Y-94017611D01*
X140622794Y-94068711D01*
X140505738Y-94156338D01*
X140418111Y-94273394D01*
X140377455Y-94382397D01*
X140367011Y-94410399D01*
X140360500Y-94470962D01*
X140360500Y-95468238D01*
X138435466Y-95468238D01*
X138380405Y-95432581D01*
X138068498Y-95230591D01*
X138068485Y-95230583D01*
X138066471Y-95229279D01*
X138017650Y-95202731D01*
X137604507Y-94978071D01*
X137604498Y-94978066D01*
X137602408Y-94976930D01*
X137600223Y-94975950D01*
X137600218Y-94975948D01*
X137122607Y-94761838D01*
X137122600Y-94761835D01*
X137120389Y-94760844D01*
X137118125Y-94760031D01*
X137118108Y-94760024D01*
X136625519Y-94583108D01*
X136625508Y-94583104D01*
X136623243Y-94582291D01*
X136620915Y-94581651D01*
X136620908Y-94581649D01*
X136116218Y-94442958D01*
X136116217Y-94442957D01*
X136113889Y-94442318D01*
X136067297Y-94433282D01*
X135597684Y-94342205D01*
X135597662Y-94342201D01*
X135595313Y-94341746D01*
X135592938Y-94341471D01*
X135592920Y-94341469D01*
X135072945Y-94281441D01*
X135072939Y-94281440D01*
X135070561Y-94281166D01*
X135068165Y-94281074D01*
X135068163Y-94281074D01*
X134674719Y-94265993D01*
X134672317Y-94265970D01*
X134410703Y-94265993D01*
X134408279Y-94266062D01*
X134017262Y-94281073D01*
X134017236Y-94281074D01*
X134014861Y-94281166D01*
X134012484Y-94281440D01*
X134012476Y-94281441D01*
X133492501Y-94341469D01*
X133492479Y-94341472D01*
X133490109Y-94341746D01*
X133487762Y-94342200D01*
X133487737Y-94342205D01*
X132973909Y-94441857D01*
X132973903Y-94441858D01*
X132971533Y-94442318D01*
X132969210Y-94442956D01*
X132969203Y-94442958D01*
X132464513Y-94581649D01*
X132464498Y-94581653D01*
X132462179Y-94582291D01*
X132459920Y-94583102D01*
X132459902Y-94583108D01*
X131967313Y-94760024D01*
X131967287Y-94760034D01*
X131965033Y-94760844D01*
X131962830Y-94761831D01*
X131962814Y-94761838D01*
X131485203Y-94975948D01*
X131485188Y-94975955D01*
X131483014Y-94976930D01*
X131480933Y-94978061D01*
X131480914Y-94978071D01*
X131021068Y-95228127D01*
X131021051Y-95228136D01*
X131018951Y-95229279D01*
X131016947Y-95230576D01*
X131016923Y-95230591D01*
X130577583Y-95515106D01*
X130577574Y-95515111D01*
X130575567Y-95516412D01*
X130573664Y-95517862D01*
X130573652Y-95517871D01*
X130157391Y-95835172D01*
X130157369Y-95835189D01*
X130155463Y-95836643D01*
X130153661Y-95838248D01*
X130153656Y-95838253D01*
X129762901Y-96186492D01*
X129762882Y-96186509D01*
X129761106Y-96188093D01*
X129759454Y-96189808D01*
X129759441Y-96189822D01*
X129396461Y-96566981D01*
X129396443Y-96567000D01*
X129394808Y-96568700D01*
X129393308Y-96570518D01*
X129393290Y-96570539D01*
X129060256Y-96974367D01*
X129060248Y-96974376D01*
X129058721Y-96976229D01*
X129057346Y-96978182D01*
X129057326Y-96978210D01*
X128756205Y-97406314D01*
X128756194Y-97406329D01*
X128754816Y-97408290D01*
X128753594Y-97410345D01*
X128753582Y-97410364D01*
X128486105Y-97860279D01*
X128486089Y-97860307D01*
X128484877Y-97862347D01*
X128483816Y-97864489D01*
X128483811Y-97864499D01*
X128251557Y-98333575D01*
X128251547Y-98333595D01*
X128250488Y-98335736D01*
X128249587Y-98337969D01*
X128249584Y-98337978D01*
X128059050Y-98810722D01*
X128053023Y-98825677D01*
X128052295Y-98827975D01*
X128052294Y-98827980D01*
X127894371Y-99326994D01*
X127894365Y-99327013D01*
X127893643Y-99329297D01*
X127893099Y-99331618D01*
X127893093Y-99331643D01*
X127870186Y-99429536D01*
X127835188Y-99491307D01*
X127772350Y-99524351D01*
X127701623Y-99518177D01*
X127645461Y-99474745D01*
X127621696Y-99407844D01*
X127621500Y-99400826D01*
X127621500Y-98614330D01*
X127621500Y-98610962D01*
X127614989Y-98550399D01*
X127563889Y-98413396D01*
X127563888Y-98413394D01*
X127476261Y-98296338D01*
X127359205Y-98208711D01*
X127260779Y-98172000D01*
X127222201Y-98157611D01*
X127161638Y-98151100D01*
X125564362Y-98151100D01*
X125561013Y-98151459D01*
X125561013Y-98151460D01*
X125503799Y-98157611D01*
X125419703Y-98188977D01*
X125348887Y-98194041D01*
X125286575Y-98160016D01*
X125252550Y-98097703D01*
X125257616Y-98026888D01*
X125286574Y-97981829D01*
X125676358Y-97592044D01*
X125692679Y-97578970D01*
X125694714Y-97576802D01*
X125694718Y-97576800D01*
X125741376Y-97527112D01*
X125744068Y-97524334D01*
X125763835Y-97504569D01*
X125766297Y-97501393D01*
X125774018Y-97492351D01*
X125804286Y-97460121D01*
X125814045Y-97442367D01*
X125824898Y-97425845D01*
X125837314Y-97409840D01*
X125854874Y-97369259D01*
X125860088Y-97358615D01*
X125881395Y-97319860D01*
X125886432Y-97300239D01*
X125892838Y-97281530D01*
X125900881Y-97262944D01*
X125907796Y-97219281D01*
X125910204Y-97207653D01*
X125921200Y-97164830D01*
X125921200Y-97144575D01*
X125922751Y-97124863D01*
X125925920Y-97104857D01*
X125921759Y-97060836D01*
X125921200Y-97048979D01*
X125921200Y-96894100D01*
X125941202Y-96825979D01*
X125994858Y-96779486D01*
X126047200Y-96768100D01*
X127158269Y-96768100D01*
X127161638Y-96768100D01*
X127222201Y-96761589D01*
X127359204Y-96710489D01*
X127476261Y-96622861D01*
X127563889Y-96505804D01*
X127614989Y-96368801D01*
X127621500Y-96308238D01*
X127621500Y-95310962D01*
X127614989Y-95250399D01*
X127563889Y-95113396D01*
X127563888Y-95113394D01*
X127476261Y-94996338D01*
X127441569Y-94970368D01*
X127399022Y-94913532D01*
X127393958Y-94842717D01*
X127427983Y-94780404D01*
X127490295Y-94746379D01*
X127517078Y-94743500D01*
X127978207Y-94743500D01*
X128001815Y-94745731D01*
X128009906Y-94747275D01*
X128009907Y-94747274D01*
X128009908Y-94747275D01*
X128065951Y-94743749D01*
X128073863Y-94743500D01*
X128085898Y-94743500D01*
X128089856Y-94743500D01*
X128105729Y-94741494D01*
X128113594Y-94740751D01*
X128169650Y-94737225D01*
X128177478Y-94734680D01*
X128200629Y-94729505D01*
X128208797Y-94728474D01*
X128261028Y-94707793D01*
X128268426Y-94705130D01*
X128321875Y-94687764D01*
X128328833Y-94683347D01*
X128349958Y-94672584D01*
X128357617Y-94669552D01*
X128403051Y-94636542D01*
X128409582Y-94632103D01*
X128457018Y-94602000D01*
X128462658Y-94595992D01*
X128480451Y-94580307D01*
X128487107Y-94575472D01*
X128522903Y-94532200D01*
X128528126Y-94526275D01*
X128566586Y-94485321D01*
X128570551Y-94478107D01*
X128583887Y-94458484D01*
X128589133Y-94452144D01*
X128613051Y-94401313D01*
X128616641Y-94394269D01*
X128617200Y-94393253D01*
X128643695Y-94345060D01*
X128645742Y-94337083D01*
X128653775Y-94314771D01*
X128657283Y-94307318D01*
X128667812Y-94252118D01*
X128669527Y-94244448D01*
X128683500Y-94190030D01*
X128683499Y-94181796D01*
X128685733Y-94158173D01*
X128686084Y-94156338D01*
X128687275Y-94150094D01*
X128683748Y-94094047D01*
X128683500Y-94086136D01*
X128683500Y-92765694D01*
X128703502Y-92697573D01*
X128720399Y-92676604D01*
X129255169Y-92141834D01*
X129317478Y-92107812D01*
X129388293Y-92112876D01*
X129445129Y-92155423D01*
X129453380Y-92167932D01*
X129550958Y-92336942D01*
X129582125Y-92371556D01*
X129678747Y-92478866D01*
X129833248Y-92591118D01*
X130007712Y-92668794D01*
X130070771Y-92682197D01*
X130133244Y-92715926D01*
X130133668Y-92716349D01*
X130244595Y-92827276D01*
X130278621Y-92889588D01*
X130281500Y-92916371D01*
X130281500Y-93487038D01*
X130288011Y-93547601D01*
X130300877Y-93582095D01*
X130339111Y-93684605D01*
X130426738Y-93801661D01*
X130543794Y-93889288D01*
X130543795Y-93889288D01*
X130543796Y-93889289D01*
X130680799Y-93940389D01*
X130741362Y-93946900D01*
X130744731Y-93946900D01*
X132335269Y-93946900D01*
X132338638Y-93946900D01*
X132399201Y-93940389D01*
X132536204Y-93889289D01*
X132653261Y-93801661D01*
X132740889Y-93684604D01*
X132791989Y-93547601D01*
X132798500Y-93487038D01*
X132798499Y-93474363D01*
X132818496Y-93406245D01*
X132872148Y-93359747D01*
X132942421Y-93349638D01*
X133007004Y-93379126D01*
X133007560Y-93379611D01*
X133123389Y-93481190D01*
X133126820Y-93483482D01*
X133126822Y-93483484D01*
X133132141Y-93487038D01*
X133376965Y-93650624D01*
X133650488Y-93785511D01*
X133939276Y-93883541D01*
X134238390Y-93943039D01*
X134466547Y-93957993D01*
X134468597Y-93957993D01*
X134616825Y-93957993D01*
X134618875Y-93957993D01*
X134847032Y-93943039D01*
X135146146Y-93883541D01*
X135434934Y-93785511D01*
X135708457Y-93650624D01*
X135962033Y-93481190D01*
X136060770Y-93394600D01*
X150198487Y-93394600D01*
X151683757Y-93394600D01*
X151681682Y-93398554D01*
X151641000Y-93563605D01*
X151641000Y-93733595D01*
X151681682Y-93898646D01*
X151683757Y-93902600D01*
X150199734Y-93902600D01*
X150209019Y-93986982D01*
X150277811Y-94250116D01*
X150384181Y-94500427D01*
X150525868Y-94732589D01*
X150699841Y-94941639D01*
X150902398Y-95123130D01*
X151129229Y-95273202D01*
X151375489Y-95388643D01*
X151635939Y-95467001D01*
X151905010Y-95506600D01*
X152087000Y-95506600D01*
X152087000Y-94300920D01*
X152172249Y-94333251D01*
X152298660Y-94348600D01*
X152383340Y-94348600D01*
X152509751Y-94333251D01*
X152595000Y-94300920D01*
X152595000Y-95506600D01*
X152706604Y-95506600D01*
X152711198Y-95506432D01*
X152912254Y-95491716D01*
X153177718Y-95432581D01*
X153431750Y-95335423D01*
X153668929Y-95202312D01*
X153884190Y-95036091D01*
X154072968Y-94840289D01*
X154231220Y-94619092D01*
X154355577Y-94377216D01*
X154443392Y-94119808D01*
X154483513Y-93902600D01*
X152998243Y-93902600D01*
X153000318Y-93898646D01*
X153041000Y-93733595D01*
X153041000Y-93716658D01*
X155678771Y-93716658D01*
X155708527Y-93987075D01*
X155777294Y-94250116D01*
X155777337Y-94250278D01*
X155798316Y-94299645D01*
X155883737Y-94500660D01*
X156025458Y-94732878D01*
X156180850Y-94919600D01*
X156199481Y-94941987D01*
X156402096Y-95123531D01*
X156628984Y-95273639D01*
X156875311Y-95389112D01*
X157135825Y-95467489D01*
X157135826Y-95467489D01*
X157135829Y-95467490D01*
X157404973Y-95507100D01*
X157404975Y-95507100D01*
X158206619Y-95507100D01*
X158208920Y-95507100D01*
X158412324Y-95492213D01*
X158677864Y-95433061D01*
X158931963Y-95335877D01*
X159169203Y-95202731D01*
X159169202Y-95202731D01*
X159169205Y-95202730D01*
X159291932Y-95107962D01*
X159384529Y-95036461D01*
X159573352Y-94840612D01*
X159641233Y-94745732D01*
X159731646Y-94619358D01*
X159856037Y-94377415D01*
X159859447Y-94367419D01*
X159900371Y-94309405D01*
X159966164Y-94282725D01*
X159978699Y-94282100D01*
X160164006Y-94282100D01*
X160232127Y-94302102D01*
X160253101Y-94319005D01*
X161481672Y-95547576D01*
X161515698Y-95609888D01*
X161514284Y-95669281D01*
X161505885Y-95700626D01*
X161486693Y-95920000D01*
X161505885Y-96139375D01*
X161562879Y-96352074D01*
X161655943Y-96551653D01*
X161782253Y-96732041D01*
X161937958Y-96887746D01*
X161937961Y-96887748D01*
X161937962Y-96887749D01*
X162118346Y-97014056D01*
X162317924Y-97107120D01*
X162384141Y-97124863D01*
X162530624Y-97164114D01*
X162530625Y-97164114D01*
X162530629Y-97164115D01*
X162750000Y-97183307D01*
X162969371Y-97164115D01*
X163182076Y-97107120D01*
X163381654Y-97014056D01*
X163562038Y-96887749D01*
X163717749Y-96732038D01*
X163844056Y-96551654D01*
X163937120Y-96352076D01*
X163994115Y-96139371D01*
X164013307Y-95920000D01*
X163994115Y-95700629D01*
X163966887Y-95599016D01*
X163944753Y-95516412D01*
X163937120Y-95487924D01*
X163844056Y-95288347D01*
X163717749Y-95107962D01*
X163717748Y-95107961D01*
X163717746Y-95107958D01*
X163562041Y-94952253D01*
X163381653Y-94825943D01*
X163182074Y-94732879D01*
X162969375Y-94675885D01*
X162750000Y-94656693D01*
X162530626Y-94675885D01*
X162499281Y-94684284D01*
X162428304Y-94682594D01*
X162377576Y-94651672D01*
X161683897Y-93957993D01*
X160985844Y-93259939D01*
X160972772Y-93243622D01*
X160920964Y-93194972D01*
X160918118Y-93192214D01*
X160901172Y-93175267D01*
X160901170Y-93175266D01*
X160898370Y-93172465D01*
X160895241Y-93170037D01*
X160895237Y-93170034D01*
X160895177Y-93169988D01*
X160886154Y-93162282D01*
X160853920Y-93132013D01*
X160836167Y-93122253D01*
X160819641Y-93111397D01*
X160803641Y-93098986D01*
X160763066Y-93081428D01*
X160752404Y-93076204D01*
X160713663Y-93054905D01*
X160699913Y-93051375D01*
X160694037Y-93049866D01*
X160675331Y-93043462D01*
X160656745Y-93035419D01*
X160613075Y-93028502D01*
X160601453Y-93026095D01*
X160558630Y-93015100D01*
X160558629Y-93015100D01*
X160538376Y-93015100D01*
X160518666Y-93013549D01*
X160498657Y-93010379D01*
X160454639Y-93014541D01*
X160442781Y-93015100D01*
X159974501Y-93015100D01*
X159906380Y-92995098D01*
X159859887Y-92941442D01*
X159858537Y-92938379D01*
X159798262Y-92796539D01*
X159656541Y-92564321D01*
X159491333Y-92365804D01*
X159482519Y-92355213D01*
X159279904Y-92173669D01*
X159097350Y-92052892D01*
X159053015Y-92023560D01*
X158806689Y-91908088D01*
X158546170Y-91829709D01*
X158277027Y-91790100D01*
X158277025Y-91790100D01*
X157473080Y-91790100D01*
X157470810Y-91790266D01*
X157470786Y-91790267D01*
X157269672Y-91804987D01*
X157004137Y-91864138D01*
X156750036Y-91961322D01*
X156512794Y-92094469D01*
X156297475Y-92260735D01*
X156297471Y-92260738D01*
X156297471Y-92260739D01*
X156267340Y-92291991D01*
X156108642Y-92456594D01*
X155950353Y-92677841D01*
X155825961Y-92919787D01*
X155738122Y-93177264D01*
X155688708Y-93444788D01*
X155678771Y-93716658D01*
X153041000Y-93716658D01*
X153041000Y-93563605D01*
X153000318Y-93398554D01*
X152998243Y-93394600D01*
X154482265Y-93394600D01*
X154482265Y-93394599D01*
X154472980Y-93310217D01*
X154404188Y-93047083D01*
X154297818Y-92796772D01*
X154156131Y-92564610D01*
X153982158Y-92355560D01*
X153779601Y-92174069D01*
X153552770Y-92023997D01*
X153306510Y-91908556D01*
X153046060Y-91830198D01*
X152776990Y-91790600D01*
X152595000Y-91790600D01*
X152595000Y-92996279D01*
X152509751Y-92963949D01*
X152383340Y-92948600D01*
X152298660Y-92948600D01*
X152172249Y-92963949D01*
X152087000Y-92996279D01*
X152087000Y-91790600D01*
X151975396Y-91790600D01*
X151970801Y-91790767D01*
X151769745Y-91805483D01*
X151504281Y-91864618D01*
X151250249Y-91961776D01*
X151013070Y-92094887D01*
X150797809Y-92261108D01*
X150609031Y-92456910D01*
X150450779Y-92678107D01*
X150326422Y-92919983D01*
X150238607Y-93177391D01*
X150198487Y-93394600D01*
X136060770Y-93394600D01*
X136191325Y-93280107D01*
X136392408Y-93050815D01*
X136561842Y-92797239D01*
X136696729Y-92523716D01*
X136794759Y-92234928D01*
X136854257Y-91935814D01*
X136855058Y-91923600D01*
X140361000Y-91923600D01*
X140361000Y-92164822D01*
X140361359Y-92171536D01*
X140367505Y-92228693D01*
X140418554Y-92365562D01*
X140506095Y-92482504D01*
X140623037Y-92570045D01*
X140759906Y-92621094D01*
X140817063Y-92627240D01*
X140823777Y-92627600D01*
X141365000Y-92627600D01*
X141365000Y-91923600D01*
X141873000Y-91923600D01*
X141873000Y-92627600D01*
X142414223Y-92627600D01*
X142420936Y-92627240D01*
X142478093Y-92621094D01*
X142614962Y-92570045D01*
X142731904Y-92482504D01*
X142819445Y-92365562D01*
X142870494Y-92228693D01*
X142876640Y-92171536D01*
X142877000Y-92164822D01*
X142877000Y-91923600D01*
X141873000Y-91923600D01*
X141365000Y-91923600D01*
X140361000Y-91923600D01*
X136855058Y-91923600D01*
X136874203Y-91631493D01*
X136854257Y-91327172D01*
X136794759Y-91028058D01*
X136696729Y-90739270D01*
X136561842Y-90465747D01*
X136433235Y-90273273D01*
X136405191Y-90231302D01*
X136383976Y-90163549D01*
X136402759Y-90095082D01*
X136455576Y-90047639D01*
X136509956Y-90035300D01*
X137435269Y-90035300D01*
X137438638Y-90035300D01*
X137499201Y-90028789D01*
X137636204Y-89977689D01*
X137636206Y-89977686D01*
X137653178Y-89971357D01*
X137654497Y-89974893D01*
X137692000Y-89960905D01*
X137761374Y-89975996D01*
X137790084Y-89997488D01*
X138432984Y-90640389D01*
X139075554Y-91282959D01*
X139088633Y-91299283D01*
X139140451Y-91347943D01*
X139143293Y-91350698D01*
X139163030Y-91370435D01*
X139166160Y-91372863D01*
X139166232Y-91372919D01*
X139175242Y-91380614D01*
X139207479Y-91410886D01*
X139225226Y-91420642D01*
X139241750Y-91431496D01*
X139257759Y-91443914D01*
X139298342Y-91461475D01*
X139308993Y-91466693D01*
X139347740Y-91487995D01*
X139367360Y-91493032D01*
X139386067Y-91499437D01*
X139392680Y-91502298D01*
X139404654Y-91507481D01*
X139415305Y-91509167D01*
X139448330Y-91514398D01*
X139459925Y-91516798D01*
X139502770Y-91527800D01*
X139523024Y-91527800D01*
X139542734Y-91529351D01*
X139562742Y-91532520D01*
X139562742Y-91532519D01*
X139562743Y-91532520D01*
X139606761Y-91528358D01*
X139618619Y-91527800D01*
X144303806Y-91527800D01*
X144371927Y-91547802D01*
X144392901Y-91564705D01*
X144936451Y-92108255D01*
X144949535Y-92124585D01*
X144967907Y-92141837D01*
X144999586Y-92171586D01*
X145001366Y-92173257D01*
X145004209Y-92176013D01*
X145023930Y-92195734D01*
X145027051Y-92198155D01*
X145027059Y-92198162D01*
X145027125Y-92198213D01*
X145036145Y-92205917D01*
X145068379Y-92236186D01*
X145086135Y-92245947D01*
X145102651Y-92256796D01*
X145118659Y-92269213D01*
X145149452Y-92282538D01*
X145159225Y-92286767D01*
X145169888Y-92291991D01*
X145208635Y-92313293D01*
X145208637Y-92313293D01*
X145208640Y-92313295D01*
X145228274Y-92318336D01*
X145246955Y-92324732D01*
X145265555Y-92332781D01*
X145265556Y-92332781D01*
X145275982Y-92337293D01*
X145326806Y-92377420D01*
X145405738Y-92482861D01*
X145522794Y-92570488D01*
X145522795Y-92570488D01*
X145522796Y-92570489D01*
X145659799Y-92621589D01*
X145720362Y-92628100D01*
X145723731Y-92628100D01*
X147314269Y-92628100D01*
X147317638Y-92628100D01*
X147378201Y-92621589D01*
X147515204Y-92570489D01*
X147632261Y-92482861D01*
X147719889Y-92365804D01*
X147770989Y-92228801D01*
X147777500Y-92168238D01*
X147777500Y-91170962D01*
X147770989Y-91110399D01*
X147719889Y-90973396D01*
X147719568Y-90972967D01*
X147632261Y-90856338D01*
X147515205Y-90768711D01*
X147436270Y-90739270D01*
X147378201Y-90717611D01*
X147317638Y-90711100D01*
X145720362Y-90711100D01*
X145717013Y-90711459D01*
X145717013Y-90711460D01*
X145659799Y-90717611D01*
X145505822Y-90775042D01*
X145504503Y-90771506D01*
X145466984Y-90785495D01*
X145397612Y-90770396D01*
X145368915Y-90748910D01*
X145125644Y-90505639D01*
X145112571Y-90489321D01*
X145091409Y-90469449D01*
X145060748Y-90440656D01*
X145057906Y-90437901D01*
X145040974Y-90420969D01*
X145038170Y-90418165D01*
X145034975Y-90415686D01*
X145025954Y-90407982D01*
X144993720Y-90377713D01*
X144975967Y-90367953D01*
X144959441Y-90357097D01*
X144943441Y-90344686D01*
X144902866Y-90327128D01*
X144892204Y-90321904D01*
X144853463Y-90300605D01*
X144839713Y-90297075D01*
X144833837Y-90295566D01*
X144815131Y-90289162D01*
X144796545Y-90281119D01*
X144752875Y-90274202D01*
X144741253Y-90271795D01*
X144698430Y-90260800D01*
X144698429Y-90260800D01*
X144678176Y-90260800D01*
X144658466Y-90259249D01*
X144638457Y-90256079D01*
X144594439Y-90260241D01*
X144582581Y-90260800D01*
X142475526Y-90260800D01*
X142407405Y-90240798D01*
X142360912Y-90187142D01*
X142350808Y-90116868D01*
X142380302Y-90052288D01*
X142431493Y-90016744D01*
X142536204Y-89977689D01*
X142653261Y-89890061D01*
X142656484Y-89885755D01*
X142713317Y-89843209D01*
X142784132Y-89838142D01*
X142823496Y-89854021D01*
X142932899Y-89921502D01*
X143095664Y-89975436D01*
X143168516Y-89982879D01*
X143192926Y-89985373D01*
X143192928Y-89985373D01*
X143196128Y-89985700D01*
X143199333Y-89985700D01*
X143790667Y-89985700D01*
X143793872Y-89985700D01*
X143894336Y-89975436D01*
X144057101Y-89921502D01*
X144203040Y-89831485D01*
X144203041Y-89831483D01*
X144215575Y-89823753D01*
X144217437Y-89826772D01*
X144258382Y-89804400D01*
X144329200Y-89809445D01*
X144336418Y-89812393D01*
X144426712Y-89852594D01*
X144613513Y-89892300D01*
X144613515Y-89892300D01*
X144804485Y-89892300D01*
X144804487Y-89892300D01*
X144991288Y-89852594D01*
X145165752Y-89774918D01*
X145320253Y-89662666D01*
X145448040Y-89520744D01*
X145543527Y-89355356D01*
X145595760Y-89194600D01*
X150183000Y-89194600D01*
X151683757Y-89194600D01*
X151681682Y-89198554D01*
X151641000Y-89363605D01*
X151641000Y-89533595D01*
X151681682Y-89698646D01*
X151683757Y-89702600D01*
X150183001Y-89702600D01*
X150183001Y-90595899D01*
X150183326Y-90602291D01*
X150193606Y-90702922D01*
X150249344Y-90871129D01*
X150342365Y-91021939D01*
X150467660Y-91147234D01*
X150618470Y-91240255D01*
X150786676Y-91295993D01*
X150887308Y-91306274D01*
X150893698Y-91306599D01*
X152087000Y-91306599D01*
X152087000Y-90100920D01*
X152172249Y-90133251D01*
X152298660Y-90148600D01*
X152383340Y-90148600D01*
X152509751Y-90133251D01*
X152594999Y-90100920D01*
X152595000Y-91306599D01*
X153788299Y-91306599D01*
X153794691Y-91306273D01*
X153895322Y-91295993D01*
X154063529Y-91240255D01*
X154214339Y-91147234D01*
X154339634Y-91021939D01*
X154432655Y-90871129D01*
X154488393Y-90702923D01*
X154498674Y-90602291D01*
X154499000Y-90595901D01*
X154499000Y-89702600D01*
X152998243Y-89702600D01*
X153000318Y-89698646D01*
X153041000Y-89533595D01*
X153041000Y-89516658D01*
X155678771Y-89516658D01*
X155708527Y-89787075D01*
X155758359Y-89977688D01*
X155777337Y-90050278D01*
X155796377Y-90095082D01*
X155883737Y-90300660D01*
X156025458Y-90532878D01*
X156174076Y-90711460D01*
X156199481Y-90741987D01*
X156402096Y-90923531D01*
X156628984Y-91073639D01*
X156875311Y-91189112D01*
X157135825Y-91267489D01*
X157135826Y-91267489D01*
X157135829Y-91267490D01*
X157404973Y-91307100D01*
X157404975Y-91307100D01*
X158206619Y-91307100D01*
X158208920Y-91307100D01*
X158412324Y-91292213D01*
X158677864Y-91233061D01*
X158931963Y-91135877D01*
X159134978Y-91021939D01*
X159169205Y-91002730D01*
X159286006Y-90912538D01*
X159384529Y-90836461D01*
X159573352Y-90640612D01*
X159669917Y-90505639D01*
X159731646Y-90419358D01*
X159856038Y-90177412D01*
X159884125Y-90095082D01*
X159943878Y-89919934D01*
X159993292Y-89652410D01*
X160003228Y-89380542D01*
X159973473Y-89110125D01*
X159904663Y-88846922D01*
X159798263Y-88596542D01*
X159798262Y-88596539D01*
X159656541Y-88364321D01*
X159482518Y-88155212D01*
X159418812Y-88098131D01*
X159279904Y-87973669D01*
X159095149Y-87851436D01*
X159053015Y-87823560D01*
X158806689Y-87708088D01*
X158546170Y-87629709D01*
X158277027Y-87590100D01*
X158277025Y-87590100D01*
X157473080Y-87590100D01*
X157470810Y-87590266D01*
X157470786Y-87590267D01*
X157269672Y-87604987D01*
X157004137Y-87664138D01*
X156750036Y-87761322D01*
X156512794Y-87894469D01*
X156297475Y-88060735D01*
X156297471Y-88060738D01*
X156297471Y-88060739D01*
X156286143Y-88072489D01*
X156108642Y-88256594D01*
X155950353Y-88477841D01*
X155825961Y-88719787D01*
X155738122Y-88977264D01*
X155688708Y-89244788D01*
X155678771Y-89516658D01*
X153041000Y-89516658D01*
X153041000Y-89363605D01*
X153000318Y-89198554D01*
X152998243Y-89194600D01*
X154498999Y-89194600D01*
X154498999Y-88301300D01*
X154498673Y-88294908D01*
X154488393Y-88194277D01*
X154432655Y-88026070D01*
X154339634Y-87875260D01*
X154214339Y-87749965D01*
X154063529Y-87656944D01*
X153895323Y-87601206D01*
X153794691Y-87590925D01*
X153788302Y-87590600D01*
X152595000Y-87590600D01*
X152595000Y-88796279D01*
X152509751Y-88763949D01*
X152383340Y-88748600D01*
X152298660Y-88748600D01*
X152172249Y-88763949D01*
X152087000Y-88796279D01*
X152087000Y-87590600D01*
X150893701Y-87590600D01*
X150887308Y-87590926D01*
X150786677Y-87601206D01*
X150618470Y-87656944D01*
X150467660Y-87749965D01*
X150342365Y-87875260D01*
X150249344Y-88026070D01*
X150193606Y-88194276D01*
X150183325Y-88294908D01*
X150183000Y-88301298D01*
X150183000Y-89194600D01*
X145595760Y-89194600D01*
X145602542Y-89173728D01*
X145622504Y-88983800D01*
X145602542Y-88793872D01*
X145543527Y-88612244D01*
X145543527Y-88612243D01*
X145448041Y-88446857D01*
X145320252Y-88304933D01*
X145219036Y-88231395D01*
X145165752Y-88192682D01*
X144991288Y-88115006D01*
X144804487Y-88075300D01*
X144613513Y-88075300D01*
X144591806Y-88079914D01*
X144521015Y-88074511D01*
X144464383Y-88031694D01*
X144439890Y-87965057D01*
X144446006Y-87917033D01*
X144467743Y-87851436D01*
X144477674Y-87754228D01*
X144478000Y-87747838D01*
X144478000Y-87731200D01*
X142512000Y-87731200D01*
X142512000Y-87747838D01*
X142512325Y-87754228D01*
X142522256Y-87851438D01*
X142560274Y-87966166D01*
X142562715Y-88037120D01*
X142526407Y-88098131D01*
X142462878Y-88129826D01*
X142415042Y-88125515D01*
X142414936Y-88126503D01*
X142399202Y-88124811D01*
X142399201Y-88124811D01*
X142338638Y-88118300D01*
X140741362Y-88118300D01*
X140738013Y-88118659D01*
X140738013Y-88118660D01*
X140680799Y-88124811D01*
X140543794Y-88175911D01*
X140453951Y-88243168D01*
X140387431Y-88267979D01*
X140378442Y-88268300D01*
X139159391Y-88268300D01*
X139091270Y-88248298D01*
X139070296Y-88231395D01*
X137670262Y-86831361D01*
X137636236Y-86769049D01*
X137641301Y-86698234D01*
X137683848Y-86641398D01*
X137683849Y-86641397D01*
X137752905Y-86589703D01*
X137840445Y-86472762D01*
X137891494Y-86335893D01*
X137897640Y-86278736D01*
X137898000Y-86272022D01*
X137898000Y-86030800D01*
X135382000Y-86030800D01*
X135382000Y-86090713D01*
X135361998Y-86158834D01*
X135308342Y-86205327D01*
X135242533Y-86215991D01*
X135218991Y-86213460D01*
X135218982Y-86213459D01*
X135215638Y-86213100D01*
X133618362Y-86213100D01*
X133615013Y-86213459D01*
X133615013Y-86213460D01*
X133557799Y-86219611D01*
X133420794Y-86270711D01*
X133303738Y-86358338D01*
X133216111Y-86475394D01*
X133178958Y-86575006D01*
X133165011Y-86612399D01*
X133158500Y-86672962D01*
X133158500Y-87670238D01*
X133158860Y-87673586D01*
X133165011Y-87730800D01*
X133216111Y-87867805D01*
X133303738Y-87984861D01*
X133420794Y-88072488D01*
X133420795Y-88072488D01*
X133420796Y-88072489D01*
X133557799Y-88123589D01*
X133618362Y-88130100D01*
X133621731Y-88130100D01*
X135212269Y-88130100D01*
X135215638Y-88130100D01*
X135276201Y-88123589D01*
X135367076Y-88089693D01*
X135437890Y-88084629D01*
X135500202Y-88118654D01*
X135534227Y-88180967D01*
X135529163Y-88251782D01*
X135511975Y-88283259D01*
X135439111Y-88380594D01*
X135402840Y-88477841D01*
X135388011Y-88517599D01*
X135381500Y-88578162D01*
X135381500Y-88581530D01*
X135381500Y-89283504D01*
X135361498Y-89351625D01*
X135307842Y-89398118D01*
X135237568Y-89408222D01*
X135214999Y-89402817D01*
X135150059Y-89380773D01*
X135150055Y-89380771D01*
X135146146Y-89379445D01*
X135142101Y-89378640D01*
X135142096Y-89378639D01*
X134851071Y-89320750D01*
X134851064Y-89320749D01*
X134847032Y-89319947D01*
X134842925Y-89319677D01*
X134842919Y-89319677D01*
X134620924Y-89305127D01*
X134620914Y-89305126D01*
X134618875Y-89304993D01*
X134466547Y-89304993D01*
X134464508Y-89305126D01*
X134464497Y-89305127D01*
X134242502Y-89319677D01*
X134242494Y-89319677D01*
X134238390Y-89319947D01*
X134234359Y-89320748D01*
X134234350Y-89320750D01*
X133943325Y-89378639D01*
X133943316Y-89378641D01*
X133939276Y-89379445D01*
X133935370Y-89380770D01*
X133935362Y-89380773D01*
X133654402Y-89476146D01*
X133654396Y-89476148D01*
X133650488Y-89477475D01*
X133646791Y-89479297D01*
X133646784Y-89479301D01*
X133380667Y-89610536D01*
X133380662Y-89610538D01*
X133376965Y-89612362D01*
X133373538Y-89614651D01*
X133373529Y-89614657D01*
X133126822Y-89779501D01*
X133126810Y-89779509D01*
X133123389Y-89781796D01*
X133120298Y-89784506D01*
X133120282Y-89784519D01*
X133007576Y-89883360D01*
X132943172Y-89913237D01*
X132872839Y-89903551D01*
X132818908Y-89857378D01*
X132798501Y-89789377D01*
X132798500Y-89789002D01*
X132798500Y-89189762D01*
X132791989Y-89129199D01*
X132740889Y-88992196D01*
X132734604Y-88983800D01*
X132653261Y-88875138D01*
X132536205Y-88787511D01*
X132467702Y-88761961D01*
X132399201Y-88736411D01*
X132338638Y-88729900D01*
X130741362Y-88729900D01*
X130738013Y-88730259D01*
X130738013Y-88730260D01*
X130680799Y-88736411D01*
X130543794Y-88787511D01*
X130426738Y-88875138D01*
X130339111Y-88992194D01*
X130318284Y-89048034D01*
X130288011Y-89129199D01*
X130281500Y-89189762D01*
X130281499Y-89193111D01*
X130281499Y-89193130D01*
X130281499Y-89271506D01*
X130261496Y-89339626D01*
X130244594Y-89360599D01*
X127661336Y-91943857D01*
X127645016Y-91956933D01*
X127606797Y-91997632D01*
X127545584Y-92033597D01*
X127501480Y-92036656D01*
X127441988Y-92030260D01*
X127441985Y-92030259D01*
X127438638Y-92029900D01*
X125841362Y-92029900D01*
X125838013Y-92030259D01*
X125838013Y-92030260D01*
X125780799Y-92036411D01*
X125643792Y-92087512D01*
X125639474Y-92090745D01*
X125572952Y-92115553D01*
X125503579Y-92100459D01*
X125474874Y-92078969D01*
X125447121Y-92051216D01*
X125413095Y-91988904D01*
X125410908Y-91975309D01*
X125393542Y-91810072D01*
X125334527Y-91628444D01*
X125334527Y-91628443D01*
X125239041Y-91463057D01*
X125153118Y-91367630D01*
X125111253Y-91321134D01*
X125091247Y-91306599D01*
X124956753Y-91208883D01*
X124956752Y-91208882D01*
X124782288Y-91131206D01*
X124595487Y-91091500D01*
X124404513Y-91091500D01*
X124315601Y-91110399D01*
X124217711Y-91131206D01*
X124043246Y-91208883D01*
X123888747Y-91321133D01*
X123760958Y-91463057D01*
X123665472Y-91628443D01*
X123606458Y-91810070D01*
X123586496Y-91999999D01*
X123606458Y-92189929D01*
X123665472Y-92371556D01*
X123760958Y-92536942D01*
X123790764Y-92570045D01*
X123888747Y-92678866D01*
X124043248Y-92791118D01*
X124217712Y-92868794D01*
X124404513Y-92908500D01*
X124460406Y-92908500D01*
X124528527Y-92928502D01*
X124549501Y-92945405D01*
X124981151Y-93377055D01*
X124994235Y-93393385D01*
X125046066Y-93442057D01*
X125048909Y-93444813D01*
X125068631Y-93464535D01*
X125071812Y-93467002D01*
X125080836Y-93474708D01*
X125113079Y-93504986D01*
X125130827Y-93514742D01*
X125147349Y-93525595D01*
X125163359Y-93538014D01*
X125203942Y-93555575D01*
X125214593Y-93560793D01*
X125253340Y-93582095D01*
X125272960Y-93587132D01*
X125291667Y-93593537D01*
X125310255Y-93601581D01*
X125341644Y-93606552D01*
X125405798Y-93636962D01*
X125430622Y-93673263D01*
X125439110Y-93684602D01*
X125439111Y-93684604D01*
X125498682Y-93764181D01*
X125523492Y-93830702D01*
X125508400Y-93900076D01*
X125486908Y-93928785D01*
X122926268Y-96489426D01*
X122863956Y-96523451D01*
X122793141Y-96518387D01*
X122736305Y-96475840D01*
X122711494Y-96409320D01*
X122715040Y-96384668D01*
X122712803Y-96384428D01*
X122720640Y-96311536D01*
X122721000Y-96304822D01*
X122721000Y-96063600D01*
X121717000Y-96063600D01*
X121717000Y-96767600D01*
X122258223Y-96767600D01*
X122264936Y-96767240D01*
X122337828Y-96759403D01*
X122338287Y-96763673D01*
X122380490Y-96760647D01*
X122442809Y-96794660D01*
X122476846Y-96856966D01*
X122471795Y-96927783D01*
X122442826Y-96972868D01*
X121301500Y-98114195D01*
X121239188Y-98148220D01*
X121212405Y-98151100D01*
X120664362Y-98151100D01*
X120661013Y-98151459D01*
X120661013Y-98151460D01*
X120603799Y-98157611D01*
X120466794Y-98208711D01*
X120349738Y-98296338D01*
X120262111Y-98413394D01*
X120242377Y-98466304D01*
X120211011Y-98550399D01*
X120204500Y-98610962D01*
X120204500Y-99608238D01*
X120208553Y-99645942D01*
X120211011Y-99668800D01*
X120262111Y-99805805D01*
X120349738Y-99922861D01*
X120466794Y-100010488D01*
X120466795Y-100010488D01*
X120466796Y-100010489D01*
X120603799Y-100061589D01*
X120664362Y-100068100D01*
X121104305Y-100068100D01*
X121172426Y-100088102D01*
X121218919Y-100141758D01*
X121229023Y-100212032D01*
X121199529Y-100276612D01*
X121193415Y-100283179D01*
X120334479Y-101142115D01*
X120050036Y-101426558D01*
X120033715Y-101439634D01*
X119985070Y-101491435D01*
X119982321Y-101494272D01*
X119965367Y-101511227D01*
X119965360Y-101511234D01*
X119962565Y-101514030D01*
X119960142Y-101517152D01*
X119960126Y-101517171D01*
X119960065Y-101517251D01*
X119952389Y-101526236D01*
X119922114Y-101558477D01*
X119912352Y-101576234D01*
X119901501Y-101592752D01*
X119889085Y-101608759D01*
X119871524Y-101649339D01*
X119866304Y-101659995D01*
X119845004Y-101698740D01*
X119839967Y-101718359D01*
X119833564Y-101737061D01*
X119825518Y-101755655D01*
X119818601Y-101799324D01*
X119816195Y-101810943D01*
X119805200Y-101853769D01*
X119805199Y-101874033D01*
X119803648Y-101893733D01*
X119800479Y-101913740D01*
X113157100Y-101913740D01*
X113157100Y-96063600D01*
X120205000Y-96063600D01*
X120205000Y-96304822D01*
X120205359Y-96311536D01*
X120211505Y-96368693D01*
X120262554Y-96505562D01*
X120350095Y-96622504D01*
X120467037Y-96710045D01*
X120603906Y-96761094D01*
X120661063Y-96767240D01*
X120667777Y-96767600D01*
X121209000Y-96767600D01*
X121209000Y-96063600D01*
X120205000Y-96063600D01*
X113157100Y-96063600D01*
X113157100Y-95555600D01*
X120205000Y-95555600D01*
X121209000Y-95555600D01*
X121209000Y-94851600D01*
X121717000Y-94851600D01*
X121717000Y-95555600D01*
X122721000Y-95555600D01*
X122721000Y-95314377D01*
X122720640Y-95307663D01*
X122714494Y-95250506D01*
X122663445Y-95113637D01*
X122575904Y-94996695D01*
X122458962Y-94909154D01*
X122322093Y-94858105D01*
X122264936Y-94851959D01*
X122258223Y-94851600D01*
X121717000Y-94851600D01*
X121209000Y-94851600D01*
X120667777Y-94851600D01*
X120661063Y-94851959D01*
X120603906Y-94858105D01*
X120467037Y-94909154D01*
X120350095Y-94996695D01*
X120262554Y-95113637D01*
X120211505Y-95250506D01*
X120205359Y-95307663D01*
X120205000Y-95314377D01*
X120205000Y-95555600D01*
X113157100Y-95555600D01*
X113157100Y-93191198D01*
X116078012Y-93191198D01*
X116138595Y-93233620D01*
X116338094Y-93326649D01*
X116550715Y-93383619D01*
X116770000Y-93402804D01*
X116989284Y-93383619D01*
X117201904Y-93326649D01*
X117401405Y-93233619D01*
X117461986Y-93191198D01*
X117461986Y-93191197D01*
X116770000Y-92499210D01*
X116769999Y-92499210D01*
X116078012Y-93191196D01*
X116078012Y-93191198D01*
X113157100Y-93191198D01*
X113157100Y-92139999D01*
X115507195Y-92139999D01*
X115526380Y-92359284D01*
X115583350Y-92571905D01*
X115676379Y-92771403D01*
X115718801Y-92831986D01*
X116381486Y-92169302D01*
X116416372Y-92169302D01*
X116445047Y-92282538D01*
X116508936Y-92380327D01*
X116601115Y-92452072D01*
X116711595Y-92490000D01*
X116799005Y-92490000D01*
X116885216Y-92475614D01*
X116987947Y-92420019D01*
X117067060Y-92334079D01*
X117113982Y-92227108D01*
X117121200Y-92139999D01*
X117129209Y-92139999D01*
X117821197Y-92831986D01*
X117821198Y-92831986D01*
X117863619Y-92771405D01*
X117956649Y-92571904D01*
X118013619Y-92359284D01*
X118032804Y-92140000D01*
X118013619Y-91920715D01*
X117956649Y-91708095D01*
X117863620Y-91508597D01*
X117821198Y-91448012D01*
X117821196Y-91448012D01*
X117129209Y-92139999D01*
X117121200Y-92139999D01*
X117123628Y-92110698D01*
X117094953Y-91997462D01*
X117031064Y-91899673D01*
X116938885Y-91827928D01*
X116828405Y-91790000D01*
X116740995Y-91790000D01*
X116654784Y-91804386D01*
X116552053Y-91859981D01*
X116472940Y-91945921D01*
X116426018Y-92052892D01*
X116416372Y-92169302D01*
X116381486Y-92169302D01*
X116410789Y-92139999D01*
X116410789Y-92139998D01*
X115718801Y-91448011D01*
X115676378Y-91508598D01*
X115583351Y-91708092D01*
X115526380Y-91920715D01*
X115507195Y-92139999D01*
X113157100Y-92139999D01*
X113157100Y-91088801D01*
X116078011Y-91088801D01*
X116769999Y-91780789D01*
X116770000Y-91780789D01*
X117461986Y-91088801D01*
X117461986Y-91088800D01*
X117401403Y-91046379D01*
X117201905Y-90953350D01*
X116989284Y-90896380D01*
X116770000Y-90877195D01*
X116550715Y-90896380D01*
X116338092Y-90953351D01*
X116138598Y-91046378D01*
X116078011Y-91088801D01*
X113157100Y-91088801D01*
X113157100Y-89942400D01*
X125382000Y-89942400D01*
X125382000Y-90183622D01*
X125382359Y-90190336D01*
X125388505Y-90247493D01*
X125439554Y-90384362D01*
X125527095Y-90501304D01*
X125644037Y-90588845D01*
X125780906Y-90639894D01*
X125838063Y-90646040D01*
X125844777Y-90646400D01*
X126386000Y-90646400D01*
X126386000Y-89942400D01*
X126894000Y-89942400D01*
X126894000Y-90646400D01*
X127435223Y-90646400D01*
X127441936Y-90646040D01*
X127499093Y-90639894D01*
X127635962Y-90588845D01*
X127752904Y-90501304D01*
X127840445Y-90384362D01*
X127891494Y-90247493D01*
X127897640Y-90190336D01*
X127898000Y-90183622D01*
X127898000Y-89942400D01*
X126894000Y-89942400D01*
X126386000Y-89942400D01*
X125382000Y-89942400D01*
X113157100Y-89942400D01*
X113157100Y-89553402D01*
X113177102Y-89485281D01*
X113227792Y-89440189D01*
X113239643Y-89434400D01*
X125382000Y-89434400D01*
X126386000Y-89434400D01*
X126386000Y-88730400D01*
X126894000Y-88730400D01*
X126894000Y-89434400D01*
X127898000Y-89434400D01*
X127898000Y-89193177D01*
X127897640Y-89186463D01*
X127891494Y-89129306D01*
X127840445Y-88992437D01*
X127752904Y-88875495D01*
X127635962Y-88787954D01*
X127499093Y-88736905D01*
X127441936Y-88730759D01*
X127435223Y-88730400D01*
X126894000Y-88730400D01*
X126386000Y-88730400D01*
X125844777Y-88730400D01*
X125838063Y-88730759D01*
X125780906Y-88736905D01*
X125644037Y-88787954D01*
X125527095Y-88875495D01*
X125439554Y-88992437D01*
X125388505Y-89129306D01*
X125382359Y-89186463D01*
X125382000Y-89193177D01*
X125382000Y-89434400D01*
X113239643Y-89434400D01*
X116851062Y-87670238D01*
X128258500Y-87670238D01*
X128258860Y-87673586D01*
X128265011Y-87730800D01*
X128316111Y-87867805D01*
X128403738Y-87984861D01*
X128520794Y-88072488D01*
X128520795Y-88072488D01*
X128520796Y-88072489D01*
X128657799Y-88123589D01*
X128718362Y-88130100D01*
X128721731Y-88130100D01*
X130312269Y-88130100D01*
X130315638Y-88130100D01*
X130376201Y-88123589D01*
X130513204Y-88072489D01*
X130630261Y-87984861D01*
X130717889Y-87867804D01*
X130768989Y-87730801D01*
X130775500Y-87670238D01*
X130775500Y-86672962D01*
X130768989Y-86612399D01*
X130717889Y-86475396D01*
X130717888Y-86475394D01*
X130630262Y-86358339D01*
X130629949Y-86358105D01*
X130587402Y-86301269D01*
X130582336Y-86230453D01*
X130616359Y-86168143D01*
X132943407Y-83841096D01*
X133005717Y-83807072D01*
X133076532Y-83812137D01*
X133133368Y-83854684D01*
X133158179Y-83921204D01*
X133158500Y-83930193D01*
X133158500Y-84370238D01*
X133165011Y-84430801D01*
X133176594Y-84461855D01*
X133216111Y-84567805D01*
X133303738Y-84684861D01*
X133420794Y-84772488D01*
X133420795Y-84772488D01*
X133420796Y-84772489D01*
X133557799Y-84823589D01*
X133618362Y-84830100D01*
X133621731Y-84830100D01*
X135212269Y-84830100D01*
X135215638Y-84830100D01*
X135276201Y-84823589D01*
X135367942Y-84789370D01*
X135438757Y-84784307D01*
X135501070Y-84818332D01*
X135535095Y-84880644D01*
X135530030Y-84951460D01*
X135512842Y-84982936D01*
X135439554Y-85080837D01*
X135388505Y-85217706D01*
X135382359Y-85274863D01*
X135382000Y-85281577D01*
X135382000Y-85522800D01*
X136386000Y-85522800D01*
X136386000Y-84818800D01*
X136894000Y-84818800D01*
X136894000Y-85522800D01*
X137898000Y-85522800D01*
X137898000Y-85281577D01*
X137897640Y-85274863D01*
X137891494Y-85217706D01*
X137840445Y-85080837D01*
X137752904Y-84963895D01*
X137635962Y-84876354D01*
X137499093Y-84825305D01*
X137441936Y-84819159D01*
X137435223Y-84818800D01*
X136894000Y-84818800D01*
X136386000Y-84818800D01*
X135844777Y-84818800D01*
X135838063Y-84819159D01*
X135780904Y-84825305D01*
X135689368Y-84859446D01*
X135618553Y-84864510D01*
X135556241Y-84830485D01*
X135522216Y-84768172D01*
X135527282Y-84697356D01*
X135544469Y-84665881D01*
X135617888Y-84567805D01*
X135617887Y-84567805D01*
X135617889Y-84567804D01*
X135639375Y-84510196D01*
X135681922Y-84453362D01*
X135711045Y-84437079D01*
X135726017Y-84431152D01*
X135761792Y-84405158D01*
X135771703Y-84398648D01*
X135809762Y-84376142D01*
X135824091Y-84361812D01*
X135839119Y-84348977D01*
X135855507Y-84337072D01*
X135883698Y-84302993D01*
X135891668Y-84294234D01*
X136700500Y-83485404D01*
X136762813Y-83451379D01*
X136789596Y-83448500D01*
X136845485Y-83448500D01*
X136845487Y-83448500D01*
X137032288Y-83408794D01*
X137206752Y-83331118D01*
X137361253Y-83218866D01*
X137489040Y-83076944D01*
X137555250Y-82962264D01*
X137606633Y-82913271D01*
X137676347Y-82899835D01*
X137742258Y-82926221D01*
X137753465Y-82936169D01*
X140244595Y-85427299D01*
X140278621Y-85489611D01*
X140281500Y-85516394D01*
X140281500Y-86275438D01*
X140288011Y-86336001D01*
X140296343Y-86358339D01*
X140339111Y-86473005D01*
X140426738Y-86590061D01*
X140543794Y-86677688D01*
X140543795Y-86677688D01*
X140543796Y-86677689D01*
X140680799Y-86728789D01*
X140741362Y-86735300D01*
X140744731Y-86735300D01*
X142335269Y-86735300D01*
X142338638Y-86735300D01*
X142399201Y-86728789D01*
X142454442Y-86708184D01*
X142525256Y-86703120D01*
X142587568Y-86737146D01*
X142621594Y-86799458D01*
X142616529Y-86870274D01*
X142605714Y-86892387D01*
X142576153Y-86940312D01*
X142522256Y-87102961D01*
X142512325Y-87200171D01*
X142512000Y-87206561D01*
X142512000Y-87223200D01*
X143241000Y-87223200D01*
X143241000Y-86519200D01*
X143749000Y-86519200D01*
X143749000Y-87223200D01*
X144478000Y-87223200D01*
X144478000Y-87206561D01*
X144477674Y-87200171D01*
X144467743Y-87102961D01*
X144413847Y-86940314D01*
X144323888Y-86794468D01*
X144202731Y-86673311D01*
X144056885Y-86583352D01*
X143894238Y-86529456D01*
X143797028Y-86519525D01*
X143790639Y-86519200D01*
X143749000Y-86519200D01*
X143241000Y-86519200D01*
X143199361Y-86519200D01*
X143192971Y-86519525D01*
X143095761Y-86529456D01*
X142919133Y-86587986D01*
X142917907Y-86584288D01*
X142873999Y-86596288D01*
X142806267Y-86575006D01*
X142760793Y-86520485D01*
X142752014Y-86450033D01*
X142758317Y-86426277D01*
X142791989Y-86336001D01*
X142798500Y-86275438D01*
X142798500Y-85278162D01*
X142791989Y-85217599D01*
X142740889Y-85080596D01*
X142709086Y-85038112D01*
X142653261Y-84963538D01*
X142536205Y-84875911D01*
X142414413Y-84830485D01*
X142399201Y-84824811D01*
X142338638Y-84818300D01*
X142335269Y-84818300D01*
X141479594Y-84818300D01*
X141411473Y-84798298D01*
X141390499Y-84781395D01*
X137830444Y-81221339D01*
X137817371Y-81205021D01*
X137765548Y-81156356D01*
X137762706Y-81153601D01*
X137745774Y-81136669D01*
X137742970Y-81133865D01*
X137739775Y-81131386D01*
X137730754Y-81123682D01*
X137698520Y-81093413D01*
X137680767Y-81083653D01*
X137664241Y-81072797D01*
X137648241Y-81060386D01*
X137607666Y-81042828D01*
X137597004Y-81037604D01*
X137558263Y-81016305D01*
X137544513Y-81012775D01*
X137538637Y-81011266D01*
X137519931Y-81004862D01*
X137501345Y-80996819D01*
X137457675Y-80989902D01*
X137446053Y-80987495D01*
X137436250Y-80984978D01*
X137403230Y-80976500D01*
X137403229Y-80976500D01*
X137382976Y-80976500D01*
X137363266Y-80974949D01*
X137343257Y-80971779D01*
X137299239Y-80975941D01*
X137287381Y-80976500D01*
X134362453Y-80976500D01*
X134341664Y-80974204D01*
X134270614Y-80976438D01*
X134266655Y-80976500D01*
X134238744Y-80976500D01*
X134234818Y-80976995D01*
X134234800Y-80976997D01*
X134234708Y-80977009D01*
X134222903Y-80977937D01*
X134178710Y-80979326D01*
X134159257Y-80984978D01*
X134139903Y-80988986D01*
X134119804Y-80991525D01*
X134078696Y-81007801D01*
X134067470Y-81011644D01*
X134025008Y-81023981D01*
X134007564Y-81034297D01*
X133989815Y-81042991D01*
X133970984Y-81050446D01*
X133935225Y-81076427D01*
X133925306Y-81082943D01*
X133887236Y-81105457D01*
X133872909Y-81119785D01*
X133857879Y-81132622D01*
X133841494Y-81144526D01*
X133813311Y-81178593D01*
X133805323Y-81187370D01*
X130903999Y-84088695D01*
X130841687Y-84122721D01*
X130814904Y-84125600D01*
X129771000Y-84125600D01*
X129771000Y-84829600D01*
X129858904Y-84829600D01*
X129927025Y-84849602D01*
X129973518Y-84903258D01*
X129983622Y-84973532D01*
X129954128Y-85038112D01*
X129948012Y-85044681D01*
X129528490Y-85464204D01*
X129128336Y-85864358D01*
X129112015Y-85877434D01*
X129063370Y-85929235D01*
X129060621Y-85932072D01*
X129043667Y-85949027D01*
X129043660Y-85949034D01*
X129040865Y-85951830D01*
X129038442Y-85954952D01*
X129038426Y-85954971D01*
X129038365Y-85955051D01*
X129030689Y-85964036D01*
X129000414Y-85996277D01*
X128990652Y-86014034D01*
X128979801Y-86030552D01*
X128967385Y-86046559D01*
X128949824Y-86087139D01*
X128944604Y-86097795D01*
X128917115Y-86147799D01*
X128866770Y-86197859D01*
X128806699Y-86213100D01*
X128718362Y-86213100D01*
X128715013Y-86213459D01*
X128715013Y-86213460D01*
X128657799Y-86219611D01*
X128520794Y-86270711D01*
X128403738Y-86358338D01*
X128316111Y-86475394D01*
X128278958Y-86575006D01*
X128265011Y-86612399D01*
X128258500Y-86672962D01*
X128258500Y-87670238D01*
X116851062Y-87670238D01*
X124107295Y-84125600D01*
X128259000Y-84125600D01*
X128259000Y-84366822D01*
X128259359Y-84373536D01*
X128265505Y-84430693D01*
X128316554Y-84567562D01*
X128404095Y-84684504D01*
X128521037Y-84772045D01*
X128657906Y-84823094D01*
X128715063Y-84829240D01*
X128721777Y-84829600D01*
X129263000Y-84829600D01*
X129263000Y-84125600D01*
X128259000Y-84125600D01*
X124107295Y-84125600D01*
X125147223Y-83617600D01*
X128259000Y-83617600D01*
X129263000Y-83617600D01*
X129263000Y-82913600D01*
X129771000Y-82913600D01*
X129771000Y-83617600D01*
X130775000Y-83617600D01*
X130775000Y-83376377D01*
X130774640Y-83369663D01*
X130768494Y-83312506D01*
X130717445Y-83175637D01*
X130629904Y-83058695D01*
X130512962Y-82971154D01*
X130376093Y-82920105D01*
X130318936Y-82913959D01*
X130312223Y-82913600D01*
X129771000Y-82913600D01*
X129263000Y-82913600D01*
X128721777Y-82913600D01*
X128715063Y-82913959D01*
X128657906Y-82920105D01*
X128521037Y-82971154D01*
X128404095Y-83058695D01*
X128316554Y-83175637D01*
X128265505Y-83312506D01*
X128259359Y-83369663D01*
X128259000Y-83376377D01*
X128259000Y-83617600D01*
X125147223Y-83617600D01*
X132400322Y-80074493D01*
X144928293Y-80074493D01*
X144947946Y-80399390D01*
X144948629Y-80403119D01*
X144948631Y-80403132D01*
X145005930Y-80715804D01*
X145005932Y-80715815D01*
X145006617Y-80719549D01*
X145007748Y-80723180D01*
X145007749Y-80723182D01*
X145102317Y-81026664D01*
X145102320Y-81026673D01*
X145103451Y-81030301D01*
X145105015Y-81033776D01*
X145181168Y-81202982D01*
X145237037Y-81327116D01*
X145405425Y-81605665D01*
X145407765Y-81608651D01*
X145407770Y-81608659D01*
X145603809Y-81858883D01*
X145606162Y-81861886D01*
X145836318Y-82092042D01*
X145839319Y-82094393D01*
X145839320Y-82094394D01*
X146089544Y-82290433D01*
X146089548Y-82290436D01*
X146092539Y-82292779D01*
X146371088Y-82461167D01*
X146667903Y-82594753D01*
X146978655Y-82691587D01*
X147298814Y-82750258D01*
X147542408Y-82764993D01*
X147544296Y-82764993D01*
X147703126Y-82764993D01*
X147705014Y-82764993D01*
X147948608Y-82750258D01*
X148268767Y-82691587D01*
X148579519Y-82594753D01*
X148876334Y-82461167D01*
X149154883Y-82292779D01*
X149411104Y-82092042D01*
X149641260Y-81861886D01*
X149841997Y-81605665D01*
X150010385Y-81327116D01*
X150143971Y-81030301D01*
X150240805Y-80719549D01*
X150299476Y-80399390D01*
X150319129Y-80074493D01*
X150299476Y-79749596D01*
X150240805Y-79429437D01*
X150143971Y-79118685D01*
X150010385Y-78821870D01*
X149841997Y-78543321D01*
X149641260Y-78287100D01*
X149411104Y-78056944D01*
X149408101Y-78054591D01*
X149157877Y-77858552D01*
X149157869Y-77858547D01*
X149154883Y-77856207D01*
X149020364Y-77774887D01*
X148879595Y-77689790D01*
X148879590Y-77689787D01*
X148876334Y-77687819D01*
X148872857Y-77686254D01*
X148872853Y-77686252D01*
X148582994Y-77555797D01*
X148579519Y-77554233D01*
X148575891Y-77553102D01*
X148575882Y-77553099D01*
X148272400Y-77458531D01*
X148272398Y-77458530D01*
X148268767Y-77457399D01*
X148265033Y-77456714D01*
X148265022Y-77456712D01*
X147952350Y-77399413D01*
X147952337Y-77399411D01*
X147948608Y-77398728D01*
X147944814Y-77398498D01*
X147944810Y-77398498D01*
X147706900Y-77384107D01*
X147706897Y-77384106D01*
X147705014Y-77383993D01*
X147542408Y-77383993D01*
X147540525Y-77384106D01*
X147540521Y-77384107D01*
X147302611Y-77398498D01*
X147302605Y-77398498D01*
X147298814Y-77398728D01*
X147295085Y-77399411D01*
X147295071Y-77399413D01*
X146982399Y-77456712D01*
X146982384Y-77456715D01*
X146978655Y-77457399D01*
X146975027Y-77458529D01*
X146975021Y-77458531D01*
X146671539Y-77553099D01*
X146671524Y-77553104D01*
X146667903Y-77554233D01*
X146664433Y-77555794D01*
X146664427Y-77555797D01*
X146374568Y-77686252D01*
X146374557Y-77686257D01*
X146371088Y-77687819D01*
X146367837Y-77689783D01*
X146367826Y-77689790D01*
X146095794Y-77854239D01*
X146092539Y-77856207D01*
X146089559Y-77858541D01*
X146089544Y-77858552D01*
X145839320Y-78054591D01*
X145839309Y-78054600D01*
X145836318Y-78056944D01*
X145833623Y-78059638D01*
X145833615Y-78059646D01*
X145608864Y-78284397D01*
X145608856Y-78284405D01*
X145606162Y-78287100D01*
X145603818Y-78290091D01*
X145603809Y-78290102D01*
X145407770Y-78540326D01*
X145407759Y-78540341D01*
X145405425Y-78543321D01*
X145403459Y-78546572D01*
X145403457Y-78546576D01*
X145239008Y-78818608D01*
X145239001Y-78818619D01*
X145237037Y-78821870D01*
X145235475Y-78825339D01*
X145235470Y-78825350D01*
X145105015Y-79115209D01*
X145103451Y-79118685D01*
X145102322Y-79122306D01*
X145102317Y-79122321D01*
X145007749Y-79425803D01*
X145006617Y-79429437D01*
X145005933Y-79433166D01*
X145005930Y-79433181D01*
X144948631Y-79745853D01*
X144948629Y-79745867D01*
X144947946Y-79749596D01*
X144928293Y-80074493D01*
X132400322Y-80074493D01*
X141812927Y-75476477D01*
X141868919Y-75463694D01*
X150975438Y-75514007D01*
G37*
%TD.AperFunction*%
%TD*%
M02*
