<?xml version="1.0" encoding="utf-8"?>
<!-- Generator: Fusion 360, Shaper Origin Export Add-In, Version 1.6.10  -->
<svg xmlns="http://www.w3.org/2000/svg" xmlns:xlink="http://www.w3.org/1999/xlink" xmlns:shaper="http://www.shapertools.com/namespaces/shaper" shaper:fusionaddin="version:1.6.10" width="14.605cm" height="7.62cm" version="1.1" x="0cm" y="0cm" viewBox="0 0 14.605 7.62" enable-background="new 0 0 14.605 7.62" xml:space="preserve"><path d="M-7.3025,-2.8034942 L-7.3025,4.8165058 7.3025,4.8165058 7.3025,-2.8034942 -7.3025,-2.8034942z" transform="matrix(1,0,0,-1,7.3025,4.8165058)" fill="rgb(0,0,0)" shaper:cutDepth="0.003175" stroke-linecap="round" stroke-linejoin="round" /><path d="M-5.714365,1.7685058 a0.215265,0.215265 0 1,1 0.43053,0 a0.215265,0.215265 0 1,1 -0.43053,0z" transform="matrix(1,0,0,-1,7.3025,4.8165058)" fill="rgb(255,255,255)" stroke="rgb(0,0,0)" stroke-width="0.0010cm" stroke-linecap="round" stroke-linejoin="round" shaper:cutDepth="0.003175" /><path d="M5.283835,1.7685058 a0.215265,0.215265 0 1,1 0.43053,0 a0.215265,0.215265 0 1,1 -0.43053,0z" transform="matrix(1,0,0,-1,7.3025,4.8165058)" fill="rgb(255,255,255)" stroke="rgb(0,0,0)" stroke-width="0.0010cm" stroke-linecap="round" stroke-linejoin="round" shaper:cutDepth="0.003175" /><path d="M6.598285,3.3877558 a0.215265,0.215265 0 1,1 0.43053,0 a0.215265,0.215265 0 1,1 -0.43053,0z" transform="matrix(1,0,0,-1,7.3025,4.8165058)" fill="rgb(255,255,255)" stroke="rgb(0,0,0)" stroke-width="0.0010cm" stroke-linecap="round" stroke-linejoin="round" shaper:cutDepth="0.003175" /><path d="M6.598285,-1.3747442 a0.215265,0.215265 0 1,1 0.43053,0 a0.215265,0.215265 0 1,1 -0.43053,0z" transform="matrix(1,0,0,-1,7.3025,4.8165058)" fill="rgb(255,255,255)" stroke="rgb(0,0,0)" stroke-width="0.0010cm" stroke-linecap="round" stroke-linejoin="round" shaper:cutDepth="0.003175" /><path d="M-7.028815,-1.3747442 a0.215265,0.215265 0 1,1 0.43053,0 a0.215265,0.215265 0 1,1 -0.43053,0z" transform="matrix(1,0,0,-1,7.3025,4.8165058)" fill="rgb(255,255,255)" stroke="rgb(0,0,0)" stroke-width="0.0010cm" stroke-linecap="round" stroke-linejoin="round" shaper:cutDepth="0.003175" /><path d="M-7.028815,3.3877558 a0.215265,0.215265 0 1,1 0.43053,0 a0.215265,0.215265 0 1,1 -0.43053,0z" transform="matrix(1,0,0,-1,7.3025,4.8165058)" fill="rgb(255,255,255)" stroke="rgb(0,0,0)" stroke-width="0.0010cm" stroke-linecap="round" stroke-linejoin="round" shaper:cutDepth="0.003175" /><path d="M3.49885,-0.5809942 a0.47625,0.47625 0 1,1 0.9525,0 a0.47625,0.47625 0 1,1 -0.9525,0z" transform="matrix(1,0,0,-1,7.3025,4.8165058)" fill="rgb(255,255,255)" stroke="rgb(0,0,0)" stroke-width="0.0010cm" stroke-linecap="round" stroke-linejoin="round" shaper:cutDepth="0.003175" /><path d="M-4.7625,-0.5809942 a0.635,0.635 0 1,1 1.27,0 a0.635,0.635 0 1,1 -1.27,0z" transform="matrix(1,0,0,-1,7.3025,4.8165058)" fill="rgb(255,255,255)" stroke="rgb(0,0,0)" stroke-width="0.0010cm" stroke-linecap="round" stroke-linejoin="round" shaper:cutDepth="0.003175" /><path d="M3.3401,3.2290058 a0.635,0.635 0 1,1 1.27,0 a0.635,0.635 0 1,1 -1.27,0z" transform="matrix(1,0,0,-1,7.3025,4.8165058)" fill="rgb(255,255,255)" stroke="rgb(0,0,0)" stroke-width="0.0010cm" stroke-linecap="round" stroke-linejoin="round" shaper:cutDepth="0.003175" /><path d="M-0.6985,2.9623058 a0.635,0.635 0 1,1 1.27,0 a0.635,0.635 0 1,1 -1.27,0z" transform="matrix(1,0,0,-1,7.3025,4.8165058)" fill="rgb(255,255,255)" stroke="rgb(0,0,0)" stroke-width="0.0010cm" stroke-linecap="round" stroke-linejoin="round" shaper:cutDepth="0.003175" /><path d="M-4.7625,3.2290058 a0.635,0.635 0 1,1 1.27,0 a0.635,0.635 0 1,1 -1.27,0z" transform="matrix(1,0,0,-1,7.3025,4.8165058)" fill="rgb(255,255,255)" stroke="rgb(0,0,0)" stroke-width="0.0010cm" stroke-linecap="round" stroke-linejoin="round" shaper:cutDepth="0.003175" /><path d="M-4.28625,0.356455 a0.15875,0.15875 0 1,1 0.3175,0 a0.15875,0.15875 0 1,1 -0.3175,0z" transform="matrix(1,0,0,-1,7.3025,4.8165058)" fill="rgb(255,255,255)" stroke="rgb(0,0,0)" stroke-width="0.0010cm" stroke-linecap="round" stroke-linejoin="round" shaper:cutDepth="0.003175" /><path d="M-0.22225,3.899755 a0.15875,0.15875 0 1,1 0.3175,0 a0.15875,0.15875 0 1,1 -0.3175,0z" transform="matrix(1,0,0,-1,7.3025,4.8165058)" fill="rgb(255,255,255)" stroke="rgb(0,0,0)" stroke-width="0.0010cm" stroke-linecap="round" stroke-linejoin="round" shaper:cutDepth="0.003175" /><path d="M2.86385,-0.5809942 a0.15875,0.15875 0 1,1 0.3175,0 a0.15875,0.15875 0 1,1 -0.3175,0z" transform="matrix(1,0,0,-1,7.3025,4.8165058)" fill="rgb(255,255,255)" stroke="rgb(0,0,0)" stroke-width="0.0010cm" stroke-linecap="round" stroke-linejoin="round" shaper:cutDepth="0.003175" /><path d="M3.81635,4.166455 a0.15875,0.15875 0 1,1 0.3175,0 a0.15875,0.15875 0 1,1 -0.3175,0z" transform="matrix(1,0,0,-1,7.3025,4.8165058)" fill="rgb(255,255,255)" stroke="rgb(0,0,0)" stroke-width="0.0010cm" stroke-linecap="round" stroke-linejoin="round" shaper:cutDepth="0.003175" /><path d="M-4.28625,4.166455 a0.15875,0.15875 0 1,1 0.3175,0 a0.15875,0.15875 0 1,1 -0.3175,0z" transform="matrix(1,0,0,-1,7.3025,4.8165058)" fill="rgb(255,255,255)" stroke="rgb(0,0,0)" stroke-width="0.0010cm" stroke-linecap="round" stroke-linejoin="round" shaper:cutDepth="0.003175" /><path d="M-2.2624544,0.2960155 a0.135255,0.135255 0 1,1 0.27051,0 a0.135255,0.135255 0 1,1 -0.27051,0z" transform="matrix(1,0,0,-1,7.3025,4.8165058)" fill="rgb(255,255,255)" stroke="rgb(0,0,0)" stroke-width="0.0010cm" stroke-linecap="round" stroke-linejoin="round" shaper:cutDepth="0.003175" /><path d="M1.7375456,0.2960155 a0.135255,0.135255 0 1,1 0.27051,0 a0.135255,0.135255 0 1,1 -0.27051,0z" transform="matrix(1,0,0,-1,7.3025,4.8165058)" fill="rgb(255,255,255)" stroke="rgb(0,0,0)" stroke-width="0.0010cm" stroke-linecap="round" stroke-linejoin="round" shaper:cutDepth="0.003175" /><path d="M1.7375456,4.2960155 a0.135255,0.135255 0 1,1 0.27051,0 a0.135255,0.135255 0 1,1 -0.27051,0z" transform="matrix(1,0,0,-1,7.3025,4.8165058)" fill="rgb(255,255,255)" stroke="rgb(0,0,0)" stroke-width="0.0010cm" stroke-linecap="round" stroke-linejoin="round" shaper:cutDepth="0.003175" /><path d="M-2.2624544,4.2960155 a0.135255,0.135255 0 1,1 0.27051,0 a0.135255,0.135255 0 1,1 -0.27051,0z" transform="matrix(1,0,0,-1,7.3025,4.8165058)" fill="rgb(255,255,255)" stroke="rgb(0,0,0)" stroke-width="0.0010cm" stroke-linecap="round" stroke-linejoin="round" shaper:cutDepth="0.003175" /><path d="M1.6890999,-1.5189481 L1.6890999,-2.285812 A0.15875,0.15875 180 0,1 1.8478499,-2.444562 L3.032282,-2.444562 A0.15875,0.15875 270 0,1 3.191032,-2.285812 L3.191032,-1.5189481 A0.15875,0.15875 0 0,1 3.032282,-1.3601981 L1.8478499,-1.3601981 A0.15875,0.15875 90 0,1 1.6890999,-1.5189481z" transform="matrix(1,0,0,-1,7.3025,4.8165058)" fill="rgb(255,255,255)" stroke="rgb(0,0,0)" stroke-width="0.0010cm" stroke-linecap="round" stroke-linejoin="round" shaper:cutDepth="0.003175" /><path d="M5.1142161,2.8932217 L5.1142161,2.5619279 A0.15875,0.15875 180 0,1 5.2729661,2.4031779 L5.4165498,2.4031779 A0.15875,0.15875 270 0,1 5.5752998,2.5619279 L5.5752998,3.4131557 A0.15875,0.15875 0 0,1 5.4165498,3.5719057 L4.7942499,3.5719057 A0.15875,0.15875 90 0,1 4.6354999,3.4131557 L4.6354999,3.0519717 A0.15875,0.15875 180 0,1 4.7942499,2.8932217 L5.1142161,2.8932217z" transform="matrix(1,0,0,-1,7.3025,4.8165058)" fill="rgb(255,255,255)" stroke="rgb(0,0,0)" stroke-width="0.0010cm" stroke-linecap="round" stroke-linejoin="round" shaper:cutDepth="0.003175" /><path d="M3.3218545,1.1875562 L2.527304,1.1875562 A0.15875,0.15875 90 0,1 2.368554,1.0288062 L2.368554,-0.1364942 1.4668499,-0.1364942 A0.15875,0.15875 90 0,1 1.3080999,-0.2952442 L1.3080999,-0.8667441 A0.15875,0.15875 180 0,1 1.4668499,-1.0254941 L2.6612752,-1.0254941 A0.15875,0.15875 270 0,1 2.8200252,-0.8667441 L2.8200252,-0.0893561 3.3218545,-0.0893561 A0.15875,0.15875 270 0,1 3.4806045,0.0693939 L3.4806045,1.0288062 A0.15875,0.15875 0 0,1 3.3218545,1.1875562z" transform="matrix(1,0,0,-1,7.3025,4.8165058)" fill="rgb(255,255,255)" stroke="rgb(0,0,0)" stroke-width="0.0010cm" stroke-linecap="round" stroke-linejoin="round" shaper:cutDepth="0.003175" /><path d="M0.7810499,2.7083058 L1.3017499,2.7083058 A0.15875,0.15875 270 0,1 1.4604999,2.8670558 L1.4604999,3.2099557 A0.15875,0.15875 0 0,1 1.3017499,3.3687057 L0.7810499,3.3687057 A0.15875,0.15875 90 0,1 0.6222999,3.2099557 L0.6222999,2.8670558 A0.15875,0.15875 180 0,1 0.7810499,2.7083058z" transform="matrix(1,0,0,-1,7.3025,4.8165058)" fill="rgb(255,255,255)" stroke="rgb(0,0,0)" stroke-width="0.0010cm" stroke-linecap="round" stroke-linejoin="round" shaper:cutDepth="0.003175" /><path d="M-2.1644633,2.6257558 L-2.1644633,2.1812558 A0.15875,0.15875 180 0,1 -2.0057133,2.0225058 L-0.9548138,2.0225058 A0.15875,0.15875 270 0,1 -0.7960638,2.1812558 L-0.7960638,2.6257558 A0.15875,0.15875 0 0,1 -0.9548138,2.7845058 L-2.0057133,2.7845058 A0.15875,0.15875 90 0,1 -2.1644633,2.6257558z" transform="matrix(1,0,0,-1,7.3025,4.8165058)" fill="rgb(255,255,255)" stroke="rgb(0,0,0)" stroke-width="0.0010cm" stroke-linecap="round" stroke-linejoin="round" shaper:cutDepth="0.003175" /><path d="M-3.4424743,-0.3743375 L-3.4424743,-0.7880205 A0.15875,0.15875 180 0,1 -3.2837243,-0.9467705 L-2.7622499,-0.9467705 A0.15875,0.15875 270 0,1 -2.6034999,-0.7880205 L-2.6034999,-0.3743375 A0.15875,0.15875 0 0,1 -2.7622499,-0.2155875 L-3.2837243,-0.2155875 A0.15875,0.15875 90 0,1 -3.4424743,-0.3743375z" transform="matrix(1,0,0,-1,7.3025,4.8165058)" fill="rgb(255,255,255)" stroke="rgb(0,0,0)" stroke-width="0.0010cm" stroke-linecap="round" stroke-linejoin="round" shaper:cutDepth="0.003175" /><path d="M-3.6195,2.3971558 L-3.6195,2.1050558 A0.15875,0.15875 180 0,1 -3.46075,1.9463058 L-3.4604848,1.9463058 A0.15875,0.15875 90 0,0 -3.3017348,1.7875558 L-3.3017348,1.0805119 A0.15875,0.15875 53.0103356 0,0 -3.2385,0.9537113 L-3.2385,0.6572558 A0.15875,0.15875 0 0,0 -3.39725,0.4985058 L-3.9607236,0.4985058 A0.15875,0.15875 270 0,0 -4.1194736,0.6572558 L-4.1194736,1.2001928 A0.15875,0.15875 233.6150832 0,0 -4.184052,1.3279945 L-4.184052,1.7875558 A0.15875,0.15875 0 0,1 -4.342802,1.9463058 L-4.3483804,1.9463058 A0.15875,0.15875 270 0,0 -4.5071304,2.1050558 L-4.5071304,2.3971558 A0.15875,0.15875 180 0,0 -4.3483804,2.5559058 L-3.77825,2.5559058 A0.15875,0.15875 90 0,0 -3.6195,2.3971558z" transform="matrix(1,0,0,-1,7.3025,4.8165058)" fill="rgb(255,255,255)" stroke="rgb(0,0,0)" stroke-width="0.0010cm" stroke-linecap="round" stroke-linejoin="round" shaper:cutDepth="0.003175" /><path d="M-6.16585,1.8955058 L-6.7546968,1.8955058 A0.15875,0.15875 90 0,1 -6.9134468,1.7367558 L-6.9134468,0.1407064 A0.15875,0.15875 180 0,1 -6.7546968,-0.0180436 L-6.16585,-0.0180436 A0.15875,0.15875 270 0,1 -6.0071,0.1407064 L-6.0071,1.7367558 A0.15875,0.15875 0 0,1 -6.16585,1.8955058z" transform="matrix(1,0,0,-1,7.3025,4.8165058)" fill="rgb(255,255,255)" stroke="rgb(0,0,0)" stroke-width="0.0010cm" stroke-linecap="round" stroke-linejoin="round" shaper:cutDepth="0.003175" /><path d="M-3.4291384,3.4412328 L-3.4291384,3.0161654 A0.15875,0.15875 180 0,1 -3.2703884,2.8574154 L-2.6857915,2.8574154 A0.15875,0.15875 270 0,1 -2.5270415,3.0161654 L-2.5270415,3.4412328 A0.15875,0.15875 0 0,1 -2.6857915,3.5999828 L-3.2703884,3.5999828 A0.15875,0.15875 90 0,1 -3.4291384,3.4412328z" transform="matrix(1,0,0,-1,7.3025,4.8165058)" fill="rgb(255,255,255)" stroke="rgb(0,0,0)" stroke-width="0.0010cm" stroke-linecap="round" stroke-linejoin="round" shaper:cutDepth="0.003175" /><path d="M-3.2807332,-1.3556942 L-4.83235,-1.3556942 A0.15875,0.15875 90 0,1 -4.9911,-1.5144442 L-4.9911,-2.0351442 A0.15875,0.15875 180 0,1 -4.83235,-2.1938942 L-3.2807332,-2.1938942 A0.15875,0.15875 270 0,1 -3.1219832,-2.0351442 L-3.1219832,-1.5144442 A0.15875,0.15875 0 0,1 -3.2807332,-1.3556942z" transform="matrix(1,0,0,-1,7.3025,4.8165058)" fill="rgb(255,255,255)" stroke="rgb(0,0,0)" stroke-width="0.0010cm" stroke-linecap="round" stroke-linejoin="round" shaper:cutDepth="0.003175" /><path d="M-2.2796501,1.9413597 L-2.8765501,1.9413597 A0.15875,0.15875 90 0,1 -3.0353001,1.7826097 L-3.0353001,1.3236343 A0.15875,0.15875 180 0,1 -2.8765501,1.1648843 L-2.2796501,1.1648843 A0.15875,0.15875 270 0,1 -2.1209001,1.3236343 L-2.1209001,1.7826097 A0.15875,0.15875 0 0,1 -2.2796501,1.9413597z" transform="matrix(1,0,0,-1,7.3025,4.8165058)" fill="rgb(255,255,255)" stroke="rgb(0,0,0)" stroke-width="0.0010cm" stroke-linecap="round" stroke-linejoin="round" shaper:cutDepth="0.003175" /><path d="M0.1396999,4.3021557 L0.1396999,3.9846557 A0.15875,0.15875 180 0,1 0.2984499,3.8259057 L0.6159499,3.8259057 A0.15875,0.15875 270 0,1 0.7746999,3.9846557 L0.7746999,4.3021557 A0.15875,0.15875 0 0,1 0.6159499,4.4609057 L0.2984499,4.4609057 A0.15875,0.15875 90 0,1 0.1396999,4.3021557z" transform="matrix(1,0,0,-1,7.3025,4.8165058)" fill="rgb(255,255,255)" stroke="rgb(0,0,0)" stroke-width="0.0010cm" stroke-linecap="round" stroke-linejoin="round" shaper:cutDepth="0.003175" /><path d="M0.7175499,-0.1364942 L0.1460499,-0.1364942 A0.15875,0.15875 90 0,1 -0.0127001,-0.2952442 L-0.0127001,-0.7905442 A0.15875,0.15875 180 0,1 0.1460499,-0.9492942 L0.7175499,-0.9492942 A0.15875,0.15875 270 0,1 0.8762999,-0.7905442 L0.8762999,-0.2952442 A0.15875,0.15875 0 0,1 0.7175499,-0.1364942z" transform="matrix(1,0,0,-1,7.3025,4.8165058)" fill="rgb(255,255,255)" stroke="rgb(0,0,0)" stroke-width="0.0010cm" stroke-linecap="round" stroke-linejoin="round" shaper:cutDepth="0.003175" /><path d="M4.9593498,4.7208499 L4.3624499,4.7208499 A0.15875,0.15875 90 0,1 4.2036999,4.5620999 L4.2036999,4.1949717 A0.15875,0.15875 180 0,1 4.3624499,4.0362217 L4.9593498,4.0362217 A0.15875,0.15875 270 0,1 5.1180998,4.1949717 L5.1180998,4.5620999 A0.15875,0.15875 0 0,1 4.9593498,4.7208499z" transform="matrix(1,0,0,-1,7.3025,4.8165058)" fill="rgb(255,255,255)" stroke="rgb(0,0,0)" stroke-width="0.0010cm" stroke-linecap="round" stroke-linejoin="round" shaper:cutDepth="0.003175" /><path d="M3.6094135,-1.5398442 L3.6094135,-2.4116403 A0.15875,0.15875 180 0,1 3.7681635,-2.5703903 L5.7467504,-2.5703903 A0.15875,0.15875 270 0,1 5.9055004,-2.4116403 L5.9055004,-1.5398442 A0.15875,0.15875 0 0,1 5.7467504,-1.3810942 L3.7681635,-1.3810942 A0.15875,0.15875 90 0,1 3.6094135,-1.5398442z" transform="matrix(1,0,0,-1,7.3025,4.8165058)" fill="rgb(255,255,255)" stroke="rgb(0,0,0)" stroke-width="0.0010cm" stroke-linecap="round" stroke-linejoin="round" shaper:cutDepth="0.003175" /><path d="M6.10067,0.0775333 L6.10067,1.0640889 A0.15875,0.15875 0 0,1 5.94192,1.2228389 L4.6268727,1.2228389 A0.15875,0.15875 90 0,1 4.4681227,1.0640889 L4.4681227,0.0775333 A0.15875,0.15875 180 0,1 4.6268727,-0.0812167 L5.94192,-0.0812167 A0.15875,0.15875 270 0,1 6.10067,0.0775333z" transform="matrix(1,0,0,-1,7.3025,4.8165058)" fill="rgb(255,255,255)" stroke="rgb(0,0,0)" stroke-width="0.0010cm" stroke-linecap="round" stroke-linejoin="round" shaper:cutDepth="0.003175" /><path d="M4.8577499,2.0225058 L4.8450499,2.0225058 A0.15875,0.15875 90 0,1 4.6862999,1.8637558 L4.6862999,1.8002558 A0.15875,0.15875 0 0,0 4.5275499,1.6415058 L4.4640499,1.6415058 A0.15875,0.15875 90 0,1 4.3052999,1.4827558 L4.3052999,0.4794558 A0.15875,0.15875 0 0,0 4.1465499,0.3207058 L3.7886979,0.3207058 A0.15875,0.15875 270 0,0 3.6299479,0.4794558 L3.6299479,1.4827558 A0.15875,0.15875 0 0,1 3.4711979,1.6415058 L3.4043658,1.6415058 A0.15875,0.15875 270 0,0 3.2456158,1.8002558 L3.2456158,1.9746778 2.9281158,2.2921778 1.9494499,2.2921778 A0.15875,0.15875 270 0,0 1.7906999,2.4509278 L1.7906999,2.8980398 A0.15875,0.15875 180 0,0 1.9494499,3.0567898 L3.0543499,3.0567898 A0.15875,0.15875 90 0,0 3.2130999,2.8980398 L3.2130999,2.7684278 3.5305999,2.4509278 4.8577499,2.4509278 A0.15875,0.15875 90 0,0 5.0164999,2.2921778 L5.0164999,2.1812558 A0.15875,0.15875 0 0,0 4.8577499,2.0225058z" transform="matrix(1,0,0,-1,7.3025,4.8165058)" fill="rgb(255,255,255)" stroke="rgb(0,0,0)" stroke-width="0.0010cm" stroke-linecap="round" stroke-linejoin="round" shaper:cutDepth="0.003175" /><path d="M0.4477529,1.8901348 L0.4477529,2.1568309 A0.15875,0.15875 0 0,1 0.2890029,2.3155809 L-0.3272928,2.3155809 A0.15875,0.15875 90 0,1 -0.4860428,2.1568309 L-0.4860428,1.8901348 A0.15875,0.15875 180 0,1 -0.3272928,1.7313848 L0.2890029,1.7313848 A0.15875,0.15875 270 0,1 0.4477529,1.8901348z" transform="matrix(1,0,0,-1,7.3025,4.8165058)" fill="rgb(255,255,255)" stroke="rgb(0,0,0)" stroke-width="0.0010cm" stroke-linecap="round" stroke-linejoin="round" shaper:cutDepth="0.003175" /><path d="M-2.1232804,3.5519525 L-2.1232804,3.0699786 A0.15875,0.15875 180 0,1 -1.9645304,2.9112286 L-0.8973682,2.9112286 A0.15875,0.15875 270 0,1 -0.7386182,3.0699786 L-0.7386182,3.5519525 A0.15875,0.15875 0 0,1 -0.8973682,3.7107025 L-1.9645304,3.7107025 A0.15875,0.15875 90 0,1 -2.1232804,3.5519525z" transform="matrix(1,0,0,-1,7.3025,4.8165058)" fill="rgb(255,255,255)" stroke="rgb(0,0,0)" stroke-width="0.0010cm" stroke-linecap="round" stroke-linejoin="round" shaper:cutDepth="0.003175" /><path d="M-1.3334998,-0.7873633 L-1.3334998,-0.3665015 A0.15875,0.15875 0 0,1 -1.4922498,-0.2077515 L-1.9048,-0.2077515 A0.15875,0.15875 90 0,1 -2.06355,-0.3665015 L-2.06355,-0.7873633 A0.15875,0.15875 180 0,1 -1.9048,-0.9461133 L-1.4922498,-0.9461133 A0.15875,0.15875 270 0,1 -1.3334998,-0.7873633z" transform="matrix(1,0,0,-1,7.3025,4.8165058)" fill="rgb(255,255,255)" stroke="rgb(0,0,0)" stroke-width="0.0010cm" stroke-linecap="round" stroke-linejoin="round" shaper:cutDepth="0.003175" /><path d="M-4.9956611,1.002944 L-4.9956611,0.5302558 A0.15875,0.15875 180 0,1 -4.8369111,0.3715058 L-4.6141097,0.3715058 -4.6141097,0.3713769 -4.4268202,0.3713769 A0.15875,0.15875 270 0,1 -4.2680702,0.5301269 L-4.2680702,1.002944 A0.15875,0.15875 0 0,1 -4.4268202,1.161694 L-4.8369111,1.161694 A0.15875,0.15875 90 0,1 -4.9956611,1.002944z" transform="matrix(1,0,0,-1,7.3025,4.8165058)" fill="rgb(255,255,255)" stroke="rgb(0,0,0)" stroke-width="0.0010cm" stroke-linecap="round" stroke-linejoin="round" shaper:cutDepth="0.003175" /><path d="M-6.02615,3.7751057 L-5.88645,3.7751057 A0.15875,0.15875 270 0,1 -5.7277,3.9338557 L-5.7277,4.5561557 A0.15875,0.15875 180 0,0 -5.56895,4.7149057 L-4.48945,4.7149057 A0.15875,0.15875 90 0,0 -4.3307,4.5561557 L-4.3307,4.2386557 A0.15875,0.15875 0 0,0 -4.48945,4.0799057 L-4.65455,4.0799057 A0.15875,0.15875 90 0,1 -4.8133,3.9211557 L-4.8133,2.6130558 A0.15875,0.15875 0 0,0 -4.97205,2.4543058 L-5.36575,2.4543058 A0.15875,0.15875 270 0,0 -5.5245,2.6130558 L-5.5245,2.8289558 A0.15875,0.15875 0 0,1 -5.68325,2.9877058 L-6.02615,2.9877058 A0.15875,0.15875 270 0,0 -6.1849,3.1464558 L-6.1849,3.6163557 A0.15875,0.15875 180 0,0 -6.02615,3.7751057z" transform="matrix(1,0,0,-1,7.3025,4.8165058)" fill="rgb(255,255,255)" stroke="rgb(0,0,0)" stroke-width="0.0010cm" stroke-linecap="round" stroke-linejoin="round" shaper:cutDepth="0.003175" /><path d="M-3.9301116,4.5815557 L-3.9301116,4.0862557 A0.15875,0.15875 180 0,1 -3.7713616,3.9275057 L-2.7114501,3.9275057 A0.15875,0.15875 270 0,1 -2.5527001,4.0862557 L-2.5527001,4.5815557 A0.15875,0.15875 0 0,1 -2.7114501,4.7403057 L-3.7713616,4.7403057 A0.15875,0.15875 90 0,1 -3.9301116,4.5815557z" transform="matrix(1,0,0,-1,7.3025,4.8165058)" fill="rgb(255,255,255)" stroke="rgb(0,0,0)" stroke-width="0.0010cm" stroke-linecap="round" stroke-linejoin="round" shaper:cutDepth="0.003175" /><path d="M-5.1541701,0.2613697 L-5.51815,0.2613697 A0.15875,0.15875 90 0,1 -5.6769,0.1026197 L-5.6769,-1.0380119 A0.15875,0.15875 180 0,1 -5.51815,-1.1967619 L-5.1541701,-1.1967619 A0.15875,0.15875 270 0,1 -4.9954201,-1.0380119 L-4.9954201,0.1026197 A0.15875,0.15875 0 0,1 -5.1541701,0.2613697z" transform="matrix(1,0,0,-1,7.3025,4.8165058)" fill="rgb(255,255,255)" stroke="rgb(0,0,0)" stroke-width="0.0010cm" stroke-linecap="round" stroke-linejoin="round" shaper:cutDepth="0.003175" /><path d="M0.9405683,0.6994922 L0.563313,0.6994922 A0.15875,0.15875 90 0,1 0.404563,0.5407422 L0.404563,0.3157512 A0.15875,0.15875 0 0,0 0.245813,0.1570012 L-1.4287501,0.1570012 A0.15875,0.15875 270 0,0 -1.5875001,0.3157512 L-1.5875001,0.5444556 A0.15875,0.15875 0 0,1 -1.7462501,0.7032056 L-1.9254455,0.7032056 A0.15875,0.15875 270 0,0 -2.0841955,0.8619556 L-2.0841955,1.2014481 A0.15875,0.15875 180 0,0 -1.9254455,1.3601981 L0.9405683,1.3601981 A0.15875,0.15875 90 0,0 1.0993183,1.2014481 L1.0993183,0.8582422 A0.15875,0.15875 0 0,0 0.9405683,0.6994922z" transform="matrix(1,0,0,-1,7.3025,4.8165058)" fill="rgb(255,255,255)" stroke="rgb(0,0,0)" stroke-width="0.0010cm" stroke-linecap="round" stroke-linejoin="round" shaper:cutDepth="0.003175" /><path d="M-0.4254501,4.4609057 L-0.7937501,4.4609057 A0.15875,0.15875 90 0,1 -0.9525001,4.3021557 L-0.9525001,3.9846557 A0.15875,0.15875 180 0,1 -0.7937501,3.8259057 L-0.4254501,3.8259057 A0.15875,0.15875 270 0,1 -0.2667001,3.9846557 L-0.2667001,4.3021557 A0.15875,0.15875 0 0,1 -0.4254501,4.4609057z" transform="matrix(1,0,0,-1,7.3025,4.8165058)" fill="rgb(255,255,255)" stroke="rgb(0,0,0)" stroke-width="0.0010cm" stroke-linecap="round" stroke-linejoin="round" shaper:cutDepth="0.003175" /><path d="M0.1781937,-1.2794941 L-1.4287498,-1.2794941 A0.15875,0.15875 90 0,1 -1.5874998,-1.4382441 L-1.5874998,-1.9289998 A0.15875,0.15875 180 0,1 -1.4287498,-2.0877498 L0.1781937,-2.0877498 A0.15875,0.15875 270 0,1 0.3369437,-1.9289998 L0.3369437,-1.4382441 A0.15875,0.15875 0 0,1 0.1781937,-1.2794941z" transform="matrix(1,0,0,-1,7.3025,4.8165058)" fill="rgb(255,255,255)" stroke="rgb(0,0,0)" stroke-width="0.0010cm" stroke-linecap="round" stroke-linejoin="round" shaper:cutDepth="0.003175" /><path d="M3.492094,4.0545057 L3.2702499,4.0545057 A0.15875,0.15875 90 0,1 3.1114999,3.8957557 L3.1114999,3.4707116 A0.15875,0.15875 0 0,0 2.9527499,3.3119616 L2.5336499,3.3119616 A0.15875,0.15875 270 0,0 2.3748999,3.4707116 L2.3748999,4.5438158 A0.15875,0.15875 180 0,0 2.5336499,4.7025658 L3.492094,4.7025658 A0.15875,0.15875 90 0,0 3.650844,4.5438158 L3.650844,4.2132557 A0.15875,0.15875 0 0,0 3.492094,4.0545057z" transform="matrix(1,0,0,-1,7.3025,4.8165058)" fill="rgb(255,255,255)" stroke="rgb(0,0,0)" stroke-width="0.0010cm" stroke-linecap="round" stroke-linejoin="round" shaper:cutDepth="0.003175" /><path d="M6.2865004,-0.9937441 L6.2865004,-0.4471054 A0.15875,0.15875 0 0,1 6.1277504,-0.2883554 L4.930573,-0.2883554 A0.15875,0.15875 90 0,1 4.771823,-0.4471054 L4.771823,-0.9937441 A0.15875,0.15875 180 0,1 4.930573,-1.1524941 L6.1277504,-1.1524941 A0.15875,0.15875 270 0,1 6.2865004,-0.9937441z" transform="matrix(1,0,0,-1,7.3025,4.8165058)" fill="rgb(255,255,255)" stroke="rgb(0,0,0)" stroke-width="0.0010cm" stroke-linecap="round" stroke-linejoin="round" shaper:cutDepth="0.003175" /></svg>