<?xml version="1.0" encoding="utf-8"?>
<!-- Generator: Fusion 360, Shaper Origin Export Add-In, Version 1.6.10  -->
<svg xmlns="http://www.w3.org/2000/svg" xmlns:xlink="http://www.w3.org/1999/xlink" xmlns:shaper="http://www.shapertools.com/namespaces/shaper" shaper:fusionaddin="version:1.6.10" width="14.44625cm" height="6.5077912cm" version="1.1" x="0cm" y="0cm" viewBox="0 0 14.44625 6.5077912" enable-background="new 0 0 14.44625 6.5077912" xml:space="preserve"><path d="M-2.5754565,1.1199457 A2.159,2.159 315 0,0 -6.2584586,2.5398255 A0.1524,0.1524 2.8344638 0,1 -6.4106722,2.6846893 L-7.070725,2.6846893 A0.1524,0.1524 90 0,1 -7.223125,2.5322893 L-7.223125,-1.1316607 A0.1524,0.1524 180 0,1 -7.070725,-1.2840607 L-6.81355,-1.2840607 A0.635,0.635 90 0,0 -6.17855,-1.9190607 L-6.17855,-3.1160357 A0.1524,0.1524 180 0,1 -6.02615,-3.2684357 L6.02615,-3.2684357 A0.1524,0.1524 270 0,1 6.17855,-3.1160357 L6.17855,-1.9190607 A0.635,0.635 180 0,0 6.81355,-1.2840607 L7.070725,-1.2840607 A0.1524,0.1524 270 0,1 7.223125,-1.1316607 L7.223125,-0.1970486 A0.1524,0.1524 0 0,1 7.1321024,-0.0575545 L-0.3315432,3.2264495 A0.1524,0.1524 66.2505055 0,1 -0.5006836,3.1947186 L-2.5754565,1.1199457z" transform="matrix(1,0,0,-1,7.223125,3.2393555)" fill="rgb(0,0,0)" shaper:cutDepth="0.0047625" stroke-linecap="round" stroke-linejoin="round" /><path d="M3.4925,-1.3920107 a0.9525,0.9525 0 1,1 1.905,0 a0.9525,0.9525 0 1,1 -1.905,0z" transform="matrix(1,0,0,-1,7.223125,3.2393555)" fill="rgb(255,255,255)" stroke="rgb(0,0,0)" stroke-width="0.0010cm" stroke-linecap="round" stroke-linejoin="round" shaper:cutDepth="0.0047625" /><path d="M-0.9525,-1.3920107 a0.9525,0.9525 0 1,1 1.905,0 a0.9525,0.9525 0 1,1 -1.905,0z" transform="matrix(1,0,0,-1,7.223125,3.2393555)" fill="rgb(255,255,255)" stroke="rgb(0,0,0)" stroke-width="0.0010cm" stroke-linecap="round" stroke-linejoin="round" shaper:cutDepth="0.0047625" /><path d="M-5.3975,-1.4102223 a0.9525,0.9525 0 1,1 1.905,0 a0.9525,0.9525 0 1,1 -1.905,0z" transform="matrix(1,0,0,-1,7.223125,3.2393555)" fill="rgb(255,255,255)" stroke="rgb(0,0,0)" stroke-width="0.0010cm" stroke-linecap="round" stroke-linejoin="round" shaper:cutDepth="0.0047625" /><path d="M-6.400165,-0.4903107 a0.215265,0.215265 0 1,1 0.43053,0 a0.215265,0.215265 0 1,1 -0.43053,0z" transform="matrix(1,0,0,-1,7.223125,3.2393555)" fill="rgb(255,255,255)" stroke="rgb(0,0,0)" stroke-width="0.0010cm" stroke-linecap="round" stroke-linejoin="round" shaper:cutDepth="0.0047625" /><path d="M-1.485265,1.2559393 a0.215265,0.215265 0 1,1 0.43053,0 a0.215265,0.215265 0 1,1 -0.43053,0z" transform="matrix(1,0,0,-1,7.223125,3.2393555)" fill="rgb(255,255,255)" stroke="rgb(0,0,0)" stroke-width="0.0010cm" stroke-linecap="round" stroke-linejoin="round" shaper:cutDepth="0.0047625" /><path d="M2.388235,-1.9190607 a0.215265,0.215265 0 1,1 0.43053,0 a0.215265,0.215265 0 1,1 -0.43053,0z" transform="matrix(1,0,0,-1,7.223125,3.2393555)" fill="rgb(255,255,255)" stroke="rgb(0,0,0)" stroke-width="0.0010cm" stroke-linecap="round" stroke-linejoin="round" shaper:cutDepth="0.0047625" /></svg>