<?xml version="1.0" encoding="utf-8"?>
<!-- Generator: Fusion 360, Shaper Origin Export Add-In, Version 1.6.10  -->
<svg xmlns="http://www.w3.org/2000/svg" xmlns:xlink="http://www.w3.org/1999/xlink" xmlns:shaper="http://www.shapertools.com/namespaces/shaper" shaper:fusionaddin="version:1.6.10" width="17.2860978cm" height="8.9043677cm" version="1.1" x="0cm" y="0cm" viewBox="0 0 17.2860978 8.9043677" enable-background="new 0 0 17.2860978 8.9043677" xml:space="preserve"><path d="M-4.7251271,-7.3931826 L-8.6430489,1.5111851 7.313206,1.5111851 8.6430489,-1.5111851 -4.7251271,-7.3931826z" transform="matrix(1,0,0,-1,8.6430489,1.5111851)" fill="rgb(0,0,0)" shaper:cutDepth="0.003175" stroke-linecap="round" stroke-linejoin="round" /><path d="M5.354778,-2.1597504 A0.15875,0.15875 203.7494945 0,1 5.5640191,-2.2411219 L6.0951692,-2.0074158 A0.15875,0.15875 293.7494945 0,1 6.1765407,-1.7981748 L6.0643369,-1.5431661 A0.15875,0.15875 23.7494945 0,1 5.8550959,-1.4617946 L5.3239457,-1.6955007 A0.15875,0.15875 113.7494945 0,1 5.2425742,-1.9047417 L5.354778,-2.1597504z" transform="matrix(1,0,0,-1,8.6430489,1.5111851)" fill="rgb(255,255,255)" stroke="rgb(0,0,0)" stroke-width="0.0010cm" stroke-linecap="round" stroke-linejoin="round" shaper:cutDepth="0.003175" /><path d="M-4.1712373,-3.4154122 A0.15875,0.15875 203.7494945 0,1 -4.1236439,-3.4765925 L-3.5524648,-3.9226741 A0.15875,0.15875 232.0107359 0,1 -3.3908172,-3.9428654 L-2.8294208,-3.6958509 A0.15875,0.15875 293.7494945 0,1 -2.7497715,-3.6182588 L-2.443399,-2.9686135 A0.15875,0.15875 334.7514524 0,1 -2.4416767,-2.8369646 L-2.5980673,-2.4815314 A0.15875,0.15875 23.7494945 0,1 -2.8073083,-2.4001599 L-4.1789592,-3.0036863 A0.15875,0.15875 113.7494945 0,1 -4.2603307,-3.2129273 L-4.1712373,-3.4154122z" transform="matrix(1,0,0,-1,8.6430489,1.5111851)" fill="rgb(255,255,255)" stroke="rgb(0,0,0)" stroke-width="0.0010cm" stroke-linecap="round" stroke-linejoin="round" shaper:cutDepth="0.003175" /><path d="M2.4930217,-3.8058522 A0.15875,0.15875 293.7494945 0,1 2.5743932,-3.5966112 L2.3834894,-3.162739 A0.15875,0.15875 23.7494945 0,1 2.1742484,-3.0813675 L1.0179477,-3.5901398 A0.15875,0.15875 113.7494945 0,1 0.9365762,-3.7993808 L1.1274799,-4.233253 A0.15875,0.15875 203.7494945 0,1 1.3367209,-4.3146245 L2.4930217,-3.8058522z" transform="matrix(1,0,0,-1,8.6430489,1.5111851)" fill="rgb(255,255,255)" stroke="rgb(0,0,0)" stroke-width="0.0010cm" stroke-linecap="round" stroke-linejoin="round" shaper:cutDepth="0.003175" /><path d="M5.0810317,1.1507619 A0.15875,0.15875 78.7556181 0,1 4.9861416,1.1403655 L3.9374072,0.6789223 A0.15875,0.15875 113.7494945 0,1 3.8560357,0.4696813 L4.2212751,-0.3604081 A0.15875,0.15875 203.7494945 0,1 4.4305161,-0.4417796 L5.6986617,0.1162045 A0.15875,0.15875 293.7494945 0,1 5.7800332,0.3254455 L5.4823772,1.0019364 A0.15875,0.15875 23.7494945 0,1 5.3680263,1.0937044 L5.0810317,1.1507619z" transform="matrix(1,0,0,-1,8.6430489,1.5111851)" fill="rgb(255,255,255)" stroke="rgb(0,0,0)" stroke-width="0.0010cm" stroke-linecap="round" stroke-linejoin="round" shaper:cutDepth="0.003175" /><path d="M1.2924942,-0.6832043 A0.15875,0.15875 23.7494945 0,1 1.0832531,-0.6018328 L-0.1609168,-1.1492676 A0.15875,0.15875 113.7494945 0,1 -0.2422883,-1.3585086 L-0.0414485,-1.8149627 A0.15875,0.15875 203.7494945 0,1 0.0463194,-1.8989837 L0.560625,-2.0989914 A0.15875,0.15875 248.7494945 0,1 0.6820981,-2.0963419 L1.2953385,-1.8265162 A0.15875,0.15875 293.7494945 0,1 1.3882023,-1.7060248 L1.4746452,-1.1598148 A0.15875,0.15875 351.0069811 0,1 1.4631529,-1.0710652 L1.2924942,-0.6832043z" transform="matrix(1,0,0,-1,8.6430489,1.5111851)" fill="rgb(255,255,255)" stroke="rgb(0,0,0)" stroke-width="0.0010cm" stroke-linecap="round" stroke-linejoin="round" shaper:cutDepth="0.003175" /><path d="M0.5809494,-3.3853145 A0.15875,0.15875 293.7494945 0,1 0.6623209,-3.1760735 L0.4819588,-2.7661595 A0.15875,0.15875 23.7494945 0,1 0.2727178,-2.684788 L-0.6668389,-3.0981929 A0.15875,0.15875 113.7494945 0,1 -0.7482104,-3.3074339 L-0.5678482,-3.7173479 A0.15875,0.15875 203.7494945 0,1 -0.3586072,-3.7987194 L0.5809494,-3.3853145z" transform="matrix(1,0,0,-1,8.6430489,1.5111851)" fill="rgb(255,255,255)" stroke="rgb(0,0,0)" stroke-width="0.0010cm" stroke-linecap="round" stroke-linejoin="round" shaper:cutDepth="0.003175" /><path d="M-2.0108227,-5.6267383 A0.15875,0.15875 293.7494945 0,1 -1.9294512,-5.4174973 L-2.0610769,-5.1183481 A0.15875,0.15875 23.7494945 0,1 -2.2703179,-5.0369766 L-2.7778139,-5.2602749 A0.15875,0.15875 113.7494945 0,1 -2.8591854,-5.4695159 L-2.7275598,-5.768665 A0.15875,0.15875 203.7494945 0,1 -2.5183187,-5.8500365 L-2.0108227,-5.6267383z" transform="matrix(1,0,0,-1,8.6430489,1.5111851)" fill="rgb(255,255,255)" stroke="rgb(0,0,0)" stroke-width="0.0010cm" stroke-linecap="round" stroke-linejoin="round" shaper:cutDepth="0.003175" /><path d="M0.122078,0.384306 a0.215265,0.215265 0 1,1 0.43053,0 a0.215265,0.215265 0 1,1 -0.43053,0z" transform="matrix(1,0,0,-1,8.6430489,1.5111851)" fill="rgb(255,255,255)" stroke="rgb(0,0,0)" stroke-width="0.0010cm" stroke-linecap="round" stroke-linejoin="round" shaper:cutDepth="0.003175" /><path d="M-3.5835404,-4.5549791 A0.15875,0.15875 23.7494945 0,1 -3.7927814,-4.4736076 L-4.0795464,-4.5997842 A0.15875,0.15875 113.7494945 0,1 -4.1609179,-4.8090252 L-3.9717195,-5.2390216 A0.15875,0.15875 203.7494945 0,1 -3.759764,-5.3191682 L-3.4753663,-5.1876114 A0.15875,0.15875 294.8243306 0,1 -3.3967092,-4.9795953 L-3.5835404,-4.5549791z" transform="matrix(1,0,0,-1,8.6430489,1.5111851)" fill="rgb(255,255,255)" stroke="rgb(0,0,0)" stroke-width="0.0010cm" stroke-linecap="round" stroke-linejoin="round" shaper:cutDepth="0.003175" /><path d="M2.4109128,-1.7826298 A0.15875,0.15875 75.6878803 0,1 2.3077344,-1.7911465 L1.8148257,-2.0080263 A0.15875,0.15875 113.7494945 0,1 1.7334542,-2.2172673 L1.9320113,-2.6685336 A0.15875,0.15875 203.7494945 0,1 2.118054,-2.7580332 L2.7784542,-2.5826989 A0.15875,0.15875 284.8688353 0,1 2.8793373,-2.5009963 L3.0584987,-2.1472797 A0.15875,0.15875 333.1372913 0,1 2.9561227,-1.9217249 L2.4109128,-1.7826298z" transform="matrix(1,0,0,-1,8.6430489,1.5111851)" fill="rgb(255,255,255)" stroke="rgb(0,0,0)" stroke-width="0.0010cm" stroke-linecap="round" stroke-linejoin="round" shaper:cutDepth="0.003175" /><path d="M3.5918044,-0.1404704 A0.15875,0.15875 23.7494945 0,1 3.3825634,-0.0590989 L1.9875296,-0.6729138 A0.15875,0.15875 113.7494945 0,1 1.9061581,-0.8821548 L2.136918,-1.4066092 A0.15875,0.15875 203.7494945 0,1 2.346159,-1.4879807 L3.7411928,-0.8741658 A0.15875,0.15875 293.7494945 0,1 3.8225643,-0.6649248 L3.5918044,-0.1404704z" transform="matrix(1,0,0,-1,8.6430489,1.5111851)" fill="rgb(255,255,255)" stroke="rgb(0,0,0)" stroke-width="0.0010cm" stroke-linecap="round" stroke-linejoin="round" shaper:cutDepth="0.003175" /><path d="M5.8984205,-0.248532 A0.15875,0.15875 113.7494945 0,1 5.817049,-0.457773 L5.9581139,-0.7783749 A0.15875,0.15875 203.7494945 0,1 6.1673549,-0.8597464 L6.6133453,-0.6635107 A0.15875,0.15875 293.7494945 0,1 6.6947168,-0.4542697 L6.5536519,-0.1336677 A0.15875,0.15875 23.7494945 0,1 6.3444109,-0.0522962 L5.8984205,-0.248532z" transform="matrix(1,0,0,-1,8.6430489,1.5111851)" fill="rgb(255,255,255)" stroke="rgb(0,0,0)" stroke-width="0.0010cm" stroke-linecap="round" stroke-linejoin="round" shaper:cutDepth="0.003175" /><path d="M-2.2299374,-3.8690358 A0.15875,0.15875 113.7494945 0,1 -2.3113089,-4.0782768 L-2.1615725,-4.4185866 A0.15875,0.15875 203.7494945 0,1 -1.9523315,-4.4999581 L-1.4967282,-4.2994927 A0.15875,0.15875 293.7494945 0,1 -1.4153567,-4.0902517 L-1.565093,-3.7499418 A0.15875,0.15875 23.7494945 0,1 -1.7743341,-3.6685703 L-2.2299374,-3.8690358z" transform="matrix(1,0,0,-1,8.6430489,1.5111851)" fill="rgb(255,255,255)" stroke="rgb(0,0,0)" stroke-width="0.0010cm" stroke-linecap="round" stroke-linejoin="round" shaper:cutDepth="0.003175" /><path d="M-6.1108433,-3.7861245 A0.15875,0.15875 203.7494945 0,1 -5.9016023,-3.867496 L-5.3790174,-3.6375586 A0.15875,0.15875 293.7494945 0,1 -5.2976459,-3.4283176 L-5.9338853,-1.982319 A0.15875,0.15875 23.7494945 0,1 -6.1431263,-1.9009475 L-6.6657112,-2.1308849 A0.15875,0.15875 113.7494945 0,1 -6.7470827,-2.3401259 L-6.1108433,-3.7861245z" transform="matrix(1,0,0,-1,8.6430489,1.5111851)" fill="rgb(255,255,255)" stroke="rgb(0,0,0)" stroke-width="0.0010cm" stroke-linecap="round" stroke-linejoin="round" shaper:cutDepth="0.003175" /><path d="M4.1163029,-1.5110568 A0.15875,0.15875 203.7494945 0,1 4.1905147,-1.5890627 L4.5165291,-1.752355 A0.15875,0.15875 243.3948792 0,1 4.6515583,-1.7557206 L4.7118136,-1.7292083 A0.15875,0.15875 293.7494945 0,1 4.7931851,-1.5199672 L4.4421461,-0.7221513 A0.15875,0.15875 23.7494945 0,1 4.2329051,-0.6407798 L4.1999622,-0.6552747 A0.15875,0.15875 113.7494945 0,1 4.1112178,-0.7570993 L3.9985394,-1.1527526 A0.15875,0.15875 164.1035313 0,1 4.0059123,-1.260169 L4.1163029,-1.5110568z" transform="matrix(1,0,0,-1,8.6430489,1.5111851)" fill="rgb(255,255,255)" stroke="rgb(0,0,0)" stroke-width="0.0010cm" stroke-linecap="round" stroke-linejoin="round" shaper:cutDepth="0.003175" /><path d="M-6.6158601,-1.3744269 a0.215265,0.215265 0 1,1 0.43053,0 a0.215265,0.215265 0 1,1 -0.43053,0z" transform="matrix(1,0,0,-1,8.6430489,1.5111851)" fill="rgb(255,255,255)" stroke="rgb(0,0,0)" stroke-width="0.0010cm" stroke-linecap="round" stroke-linejoin="round" shaper:cutDepth="0.003175" /><path d="M-2.2345284,0.13944 a0.215265,0.215265 0 1,1 0.43053,0 a0.215265,0.215265 0 1,1 -0.43053,0z" transform="matrix(1,0,0,-1,8.6430489,1.5111851)" fill="rgb(255,255,255)" stroke="rgb(0,0,0)" stroke-width="0.0010cm" stroke-linecap="round" stroke-linejoin="round" shaper:cutDepth="0.003175" /><path d="M4.60486,-0.8718376 a0.635,0.635 0 1,1 1.27,0 a0.635,0.635 0 1,1 -1.27,0z" transform="matrix(1,0,0,-1,8.6430489,1.5111851)" fill="rgb(255,255,255)" stroke="rgb(0,0,0)" stroke-width="0.0010cm" stroke-linecap="round" stroke-linejoin="round" shaper:cutDepth="0.003175" /><path d="M0.5362847,-2.6620107 a0.635,0.635 0 1,1 1.27,0 a0.635,0.635 0 1,1 -1.27,0z" transform="matrix(1,0,0,-1,8.6430489,1.5111851)" fill="rgb(255,255,255)" stroke="rgb(0,0,0)" stroke-width="0.0010cm" stroke-linecap="round" stroke-linejoin="round" shaper:cutDepth="0.003175" /><path d="M-3.5249561,-4.4688532 a0.635,0.635 0 1,1 1.27,0 a0.635,0.635 0 1,1 -1.27,0z" transform="matrix(1,0,0,-1,8.6430489,1.5111851)" fill="rgb(255,255,255)" stroke="rgb(0,0,0)" stroke-width="0.0010cm" stroke-linecap="round" stroke-linejoin="round" shaper:cutDepth="0.003175" /><path d="M-6.1943043,-0.6174935 a1.984375,1.984375 0 1,1 3.96875,0 a1.984375,1.984375 0 1,1 -3.96875,0z" transform="matrix(1,0,0,-1,8.6430489,1.5111851)" fill="rgb(255,255,255)" stroke="rgb(0,0,0)" stroke-width="0.0010cm" stroke-linecap="round" stroke-linejoin="round" shaper:cutDepth="0.003175" /><path d="M-7.7535214,0.2143558 a0.215265,0.215265 0 1,1 0.43053,0 a0.215265,0.215265 0 1,1 -0.43053,0z" transform="matrix(1,0,0,-1,8.6430489,1.5111851)" fill="rgb(255,255,255)" stroke="rgb(0,0,0)" stroke-width="0.0010cm" stroke-linecap="round" stroke-linejoin="round" shaper:cutDepth="0.003175" /><path d="M-5.0682616,-5.8885072 a0.215265,0.215265 0 1,1 0.43053,0 a0.215265,0.215265 0 1,1 -0.43053,0z" transform="matrix(1,0,0,-1,8.6430489,1.5111851)" fill="rgb(255,255,255)" stroke="rgb(0,0,0)" stroke-width="0.0010cm" stroke-linecap="round" stroke-linejoin="round" shaper:cutDepth="0.003175" /><path d="M7.4048278,-0.4003478 a0.215265,0.215265 0 1,1 0.43053,0 a0.215265,0.215265 0 1,1 -0.43053,0z" transform="matrix(1,0,0,-1,8.6430489,1.5111851)" fill="rgb(255,255,255)" stroke="rgb(0,0,0)" stroke-width="0.0010cm" stroke-linecap="round" stroke-linejoin="round" shaper:cutDepth="0.003175" /><path d="M-5.0682616,-4.3275692 a0.215265,0.215265 0 1,1 0.43053,0 a0.215265,0.215265 0 1,1 -0.43053,0z" transform="matrix(1,0,0,-1,8.6430489,1.5111851)" fill="rgb(255,255,255)" stroke="rgb(0,0,0)" stroke-width="0.0010cm" stroke-linecap="round" stroke-linejoin="round" shaper:cutDepth="0.003175" /><path d="M-1.2728621,-0.7497803 a0.215265,0.215265 0 1,1 0.43053,0 a0.215265,0.215265 0 1,1 -0.43053,0z" transform="matrix(1,0,0,-1,8.6430489,1.5111851)" fill="rgb(255,255,255)" stroke="rgb(0,0,0)" stroke-width="0.0010cm" stroke-linecap="round" stroke-linejoin="round" shaper:cutDepth="0.003175" /><path d="M3.5513058,-2.0958975 a0.215265,0.215265 0 1,1 0.43053,0 a0.215265,0.215265 0 1,1 -0.43053,0z" transform="matrix(1,0,0,-1,8.6430489,1.5111851)" fill="rgb(255,255,255)" stroke="rgb(0,0,0)" stroke-width="0.0010cm" stroke-linecap="round" stroke-linejoin="round" shaper:cutDepth="0.003175" /></svg>