<?xml version="1.0" encoding="utf-8"?>
<!-- Generator: Fusion 360, Shaper Origin Export Add-In, Version 1.6.10  -->
<svg xmlns="http://www.w3.org/2000/svg" xmlns:xlink="http://www.w3.org/1999/xlink" xmlns:shaper="http://www.shapertools.com/namespaces/shaper" shaper:fusionaddin="version:1.6.10" width="14.44625cm" height="6.5077912cm" version="1.1" x="0cm" y="0cm" viewBox="0 0 14.44625 6.5077912" enable-background="new 0 0 14.44625 6.5077912" xml:space="preserve"><path d="M-2.5754565,1.1199457 A2.159,2.159 315 0,0 -6.2584586,2.5398255 A0.1524,0.1524 2.8344638 0,1 -6.4106722,2.6846893 L-7.070725,2.6846893 A0.1524,0.1524 90 0,1 -7.223125,2.5322893 L-7.223125,-1.1316607 A0.1524,0.1524 180 0,1 -7.070725,-1.2840607 L-6.81355,-1.2840607 A0.635,0.635 90 0,0 -6.17855,-1.9190607 L-6.17855,-3.1160357 A0.1524,0.1524 180 0,1 -6.02615,-3.2684357 L6.02615,-3.2684357 A0.1524,0.1524 270 0,1 6.17855,-3.1160357 L6.17855,-1.9190607 A0.635,0.635 180 0,0 6.81355,-1.2840607 L7.070725,-1.2840607 A0.1524,0.1524 270 0,1 7.223125,-1.1316607 L7.223125,-0.1970486 A0.1524,0.1524 0 0,1 7.1321024,-0.0575545 L-0.3315432,3.2264495 A0.1524,0.1524 66.2505055 0,1 -0.5006836,3.1947186 L-2.5754565,1.1199457z" transform="matrix(1,0,0,-1,7.223125,3.2393555)" fill="rgb(0,0,0)" shaper:cutDepth="0.0015875" stroke-linecap="round" stroke-linejoin="round" /><path d="M-4.9738372,0.0376125 L-5.2108206,0.0376125 -5.2108206,0.4263021 -5.2108206,0.4263021 -5.2119909,0.4378649 -5.2136215,0.4434521 -5.2163461,0.4485827 -5.2202312,0.4529114 -5.2251936,0.4559276 -5.230786,0.4575163 -5.2365819,0.4580039 -5.2365819,0.4580039 -5.2423422,0.4575061 -5.2478672,0.4558132 -5.2527376,0.452702 -5.2566657,0.4484679 -5.2593854,0.4433701 -5.2611254,0.4378501 -5.2621389,0.4321632 -5.2625484,0.4263925 -5.2625485,0.0208201 -5.2625485,0.0208201 -5.2626158,0.0138733 -5.2617008,0.0069922 -5.2594172,0.0004329 -5.2555348,-0.0053163 -5.2501653,-0.0097058 -5.2437568,-0.0123881 -5.236951,-0.0137437 -5.2300133,-0.0141154 -4.9788397,-0.0141154 -4.9788397,-0.0141154 -4.9684497,-0.0141064 -4.9632585,-0.0138963 -4.9582368,-0.0126785 -4.9582368,-0.0126785 -4.9509004,-0.0089524 -4.9476863,-0.0063822 -4.9449526,-0.0032789 -4.9427932,0.0002465 -4.9412707,0.0040693 -4.9397625,0.0121591 -4.9397625,0.0121591 -4.9411788,0.019996 -4.942691,0.0236711 -4.9447848,0.0270941 -4.9473497,0.0301908 -4.9503707,0.0327758 -4.9575183,0.0362783 -4.9575183,0.0362783 -4.9615047,0.037284 -4.9656078,0.0375956 -4.9738372,0.0376125z" transform="matrix(1,0,0,-1,7.223125,3.2393555)" fill="rgb(104,104,104)" fill-rule="nonzero" shaper:cutDepth="0.0000762" stroke-linecap="round" stroke-linejoin="round" /><path d="M-4.4600483,0.1960804 L-4.4086284,0.1960803 -4.4086284,0.1222838 -4.4086284,0.1222838 -4.4088777,0.111639 -4.4099155,0.1010472 -4.4122888,0.0906673 -4.4163259,0.0808217 -4.4163259,0.0808217 -4.4215667,0.0724603 -4.4280348,0.0650059 -4.4355066,0.0585638 -4.4438831,0.0533412 -4.452863,0.0492558 -4.4623337,0.0464708 -4.4720593,0.0448077 -4.4819094,0.0441811 -4.4819094,0.0441811 -4.4934783,0.0447107 -4.5049115,0.046556 -4.5160281,0.0497973 -4.5266412,0.0544347 -4.5366286,0.0602932 -4.5458842,0.0672591 -4.5544476,0.0750527 -4.5622723,0.0835928 -4.5622723,0.0835928 -4.5736077,0.0986262 -4.5836431,0.1145572 -4.5921399,0.1313594 -4.59929,0.1487774 -4.6050959,0.1666888 -4.6093535,0.1850287 -4.6121125,0.2036545 -4.6130765,0.2224575 -4.6130765,0.2224575 -4.6124778,0.2373056 -4.6107879,0.2520692 -4.6079695,0.2666597 -4.6040833,0.2810027 -4.5991384,0.2950158 -4.5931409,0.3086118 -4.5859554,0.3216189 -4.5777702,0.3340213 -4.5777702,0.3340213 -4.5695579,0.3467615 -4.5604567,0.3588774 -4.5502437,0.3700788 -4.5388561,0.380079 -4.5261943,0.3884037 -4.5194206,0.3918091 -4.512395,0.3946592 -4.5051478,0.396909 -4.4977294,0.3984789 -4.4826279,0.3997075 -4.4826279,0.3997075 -4.4712855,0.3989533 -4.4601862,0.3964762 -4.4496186,0.3923011 -4.4398554,0.3864708 -4.430898,0.3794703 -4.4226228,0.3716672 -4.4149927,0.3632406 -4.4079099,0.354343 -4.4079099,0.354343 -4.4020877,0.3469968 -4.3956837,0.3401584 -4.3920353,0.3372145 -4.3879369,0.334882 -4.383457,0.3336115 -4.3787616,0.3332002 -4.3787616,0.3332002 -4.3727866,0.3340775 -4.3671634,0.3362863 -4.3621347,0.3396272 -4.3578802,0.3439174 -4.3543988,0.3488552 -4.3517612,0.3542884 -4.3502547,0.3601389 -4.3496134,0.366146 -4.3496134,0.366146 -4.3501158,0.3716897 -4.3513016,0.377099 -4.3534006,0.3822583 -4.3561381,0.3870936 -4.3626078,0.3961155 -4.3697298,0.4046339 -4.3697298,0.4046339 -4.381443,0.4159634 -4.3939899,0.4263569 -4.4074201,0.4355882 -4.4217094,0.4434148 -4.4367224,0.4497521 -4.452356,0.4543356 -4.4684109,0.4571241 -4.4846806,0.4580039 -4.4846806,0.4580039 -4.496629,0.4574788 -4.5084892,0.4559345 -4.5202113,0.4535611 -4.5317081,0.450264 -4.5429474,0.4461741 -4.5538577,0.4412744 -4.5643087,0.4354589 -4.5742806,0.4288557 -4.5742806,0.4288557 -4.5856065,0.4193247 -4.5962963,0.4090846 -4.606324,0.3981963 -4.6156505,0.386701 -4.6242542,0.3746556 -4.6321317,0.3621227 -4.6393169,0.3491807 -4.6457957,0.3358707 -4.6515704,0.3222408 -4.6566456,0.3083349 -4.6610628,0.2942066 -4.6646744,0.279851 -4.6674817,0.2653167 -4.6695884,0.2506645 -4.6708762,0.2359178 -4.671373,0.2211232 -4.671373,0.2211232 -4.6703378,0.1988433 -4.6675464,0.1767146 -4.6629973,0.1548796 -4.6566995,0.133483 -4.6486884,0.1126673 -4.6391439,0.0925086 -4.6278772,0.0732595 -4.6151292,0.0549578 -4.6151292,0.0549578 -4.6029164,0.0404289 -4.5894667,0.0270443 -4.574752,0.015056 -4.5588295,0.0047308 -4.5504119,0.0003445 -4.5417242,-0.0034831 -4.5328142,-0.00676 -4.5237127,-0.009457 -4.5144448,-0.0115271 -4.5050575,-0.0129346 -4.4861174,-0.0141154 -4.4861174,-0.0141154 -4.4688531,-0.0130538 -4.4518304,-0.0100012 -4.4352279,-0.0051476 -4.419269,0.001518 -4.404111,0.0098504 -4.3900235,0.0198815 -4.3834656,0.0255333 -4.3773224,0.0316225 -4.3662402,0.0448996 -4.3662402,0.0448996 -4.3585905,0.0583684 -4.3556579,0.0655392 -4.3533952,0.0729605 -4.3518413,0.0805437 -4.3509347,0.0882398 -4.3503318,0.1037092 -4.3503319,0.2148179 -4.3503319,0.2148179 -4.350413,0.2229716 -4.3512882,0.2310787 -4.3535852,0.2388971 -4.3554481,0.2425382 -4.3578921,0.2458075 -4.3609567,0.2484983 -4.3644664,0.2506018 -4.3721653,0.2532654 -4.3802558,0.2542874 -4.3884093,0.2543768 -4.4572689,0.2543768 -4.4572689,0.2543768 -4.4690519,0.2541835 -4.4749068,0.2535079 -4.4804725,0.2516057 -4.4804725,0.2516057 -4.4878919,0.2474266 -4.4910587,0.2445964 -4.4937583,0.2412641 -4.4959716,0.2375859 -4.497554,0.23364 -4.4988441,0.2252286 -4.4988441,0.2252286 -4.4978941,0.218191 -4.4955678,0.2114832 -4.4914373,0.20571 -4.4861174,0.2010068 -4.4861174,0.2010068 -4.480224,0.1977467 -4.4735624,0.1965473 -4.4600483,0.1960804z" transform="matrix(1,0,0,-1,7.223125,3.2393555)" fill="rgb(104,104,104)" fill-rule="nonzero" shaper:cutDepth="0.0000762" stroke-linecap="round" stroke-linejoin="round" /><path d="M-4.2123909,0.2806513 L-4.0492018,0.2806513 -4.0492018,0.2806513 -4.0424797,0.2804929 -4.0358192,0.2796265 -4.0293507,0.2777837 -4.0233745,0.274723 -4.0183838,0.2702253 -4.0150515,0.2644005 -4.0133297,0.257908 -4.0129718,0.2511952 -4.0129718,0.2511952 -4.0132829,0.2441935 -4.0152741,0.23748 -4.01922,0.2316963 -4.0247661,0.2274347 -4.0312437,0.2247474 -4.0380774,0.2231888 -4.0520616,0.2223547 -4.2123909,0.2223547 -4.2123909,0.0441811 -3.9860815,0.0441811 -3.9860815,0.0441811 -3.9763479,0.0441378 -3.9715042,0.0436501 -3.9668889,0.0421284 -3.9668889,0.0421284 -3.9590476,0.0379347 -3.9556653,0.0350445 -3.9528377,0.0315814 -3.9506537,0.027686 -3.9491491,0.0235008 -3.9476962,0.014725 -3.9476962,0.014725 -3.9480558,0.0074129 -3.9489375,0.0038519 -3.9503986,0.0004849 -3.9524048,-0.0025859 -3.9548864,-0.0052896 -3.9609571,-0.0093613 -3.9678366,-0.0118827 -3.9750142,-0.013338 -3.9896324,-0.0141154 -4.233431,-0.0141154 -4.233431,-0.0141154 -4.2414474,-0.0140346 -4.2493909,-0.013007 -4.2570152,-0.0105361 -4.2605007,-0.0085423 -4.2635608,-0.0059443 -4.2660268,-0.0027737 -4.2678515,0.0007999 -4.2699768,0.0085334 -4.2707816,0.0164996 -4.2706875,0.024517 -4.2706874,0.4201318 -4.2706874,0.4201318 -4.2706069,0.4281714 -4.2695644,0.4361349 -4.2671152,0.4437912 -4.265127,0.447295 -4.2625192,0.4503601 -4.259334,0.4528189 -4.2557688,0.4546982 -4.2480788,0.4570228 -4.2400927,0.4579221 -4.2320551,0.4580038 -3.9866973,0.4580039 -3.9866973,0.4580039 -3.9734889,0.4569748 -3.9670952,0.4552347 -3.9611584,0.4522856 -3.956184,0.447917 -3.9527369,0.4422651 -3.9509575,0.4358834 -3.9505699,0.4292663 -3.9505699,0.4292663 -3.9509722,0.4222379 -3.9530025,0.4155009 -3.9568609,0.4096293 -3.962346,0.4052203 -3.9687607,0.4023346 -3.9755997,0.4006374 -3.9825905,0.3998487 -3.9896324,0.3997073 -4.2123909,0.3997073 -4.2123909,0.2806513z" transform="matrix(1,0,0,-1,7.223125,3.2393555)" fill="rgb(104,104,104)" fill-rule="nonzero" shaper:cutDepth="0.0000762" stroke-linecap="round" stroke-linejoin="round" /><path d="M-3.6072571,0.4202344 L-3.6072573,0.1140039 -3.8189732,0.4378238 -3.8189732,0.4378238 -3.8246257,0.4454758 -3.8313651,0.4521884 -3.8353509,0.4548115 -3.8397523,0.4566672 -3.8491669,0.4580039 -3.8491669,0.4580039 -3.8573325,0.4567397 -3.8611975,0.4553266 -3.8648557,0.4533469 -3.8682551,0.4509151 -3.8711623,0.4479925 -3.8751335,0.4407613 -3.8751335,0.4407613 -3.8762091,0.4360318 -3.8765229,0.4311804 -3.8765704,0.421466 -3.8765705,0.0239348 -3.8765705,0.0239348 -3.8763017,0.0119791 -3.8755035,0.0060503 -3.8736966,0.0003561 -3.8736966,0.0003561 -3.8689147,-0.0057621 -3.8627182,-0.0104405 -3.8554357,-0.0131249 -3.84773,-0.0141154 -3.84773,-0.0141154 -3.841411,-0.0135569 -3.8352928,-0.0118913 -3.8297562,-0.0088064 -3.8252346,-0.0043617 -3.8219934,0.0010814 -3.8199619,0.0070972 -3.818794,0.0133273 -3.8182739,0.0196514 -3.8182739,0.3305987 -3.6072573,0.0046343 -3.6072573,0.0046343 -3.6014938,-0.0026588 -3.5945502,-0.0088224 -3.5905166,-0.0111766 -3.586175,-0.0128542 -3.5769799,-0.0141154 -3.5769799,-0.0141154 -3.5708442,-0.0136379 -3.5649157,-0.0119974 -3.5595994,-0.0089058 -3.5553177,-0.004495 -3.5523049,0.0008689 -3.5504055,0.0067238 -3.5489606,0.018933 -3.5489607,0.4228123 -3.5489607,0.4228123 -3.5499677,0.4359122 -3.5516949,0.4422485 -3.55464,0.44813 -3.5590731,0.4529609 -3.5647451,0.4562726 -3.5711284,0.4578213 -3.5776983,0.4580039 -3.5776983,0.4580039 -3.5846535,0.4576361 -3.5914171,0.4559897 -3.5974597,0.4525547 -3.6020053,0.447289 -3.6048163,0.4409275 -3.6063316,0.4341222 -3.6072571,0.4202344z" transform="matrix(1,0,0,-1,7.223125,3.2393555)" fill="rgb(104,104,104)" fill-rule="nonzero" shaper:cutDepth="0.0000762" stroke-linecap="round" stroke-linejoin="round" /><path d="M-4.8545532,-0.1132937 L-4.8545534,-0.3582781 -5.0239261,-0.0992222 -5.0239261,-0.0992222 -5.0284481,-0.0931006 -5.0338396,-0.0877305 -5.0370283,-0.085632 -5.0405494,-0.0841475 -5.0480811,-0.0830781 -5.0480811,-0.0830781 -5.0546135,-0.0840895 -5.0606321,-0.0868037 -5.0656774,-0.0910872 -5.0688543,-0.0968722 -5.0688543,-0.0968722 -5.0697148,-0.1006558 -5.0699658,-0.1045369 -5.0700038,-0.1123084 -5.0700039,-0.4303334 -5.0700039,-0.4303334 -5.0697889,-0.4398979 -5.0691503,-0.444641 -5.0677048,-0.4491963 -5.0677048,-0.4491963 -5.0638793,-0.4540909 -5.0589221,-0.4578336 -5.0530961,-0.4599811 -5.0469316,-0.4607735 -5.0469316,-0.4607735 -5.0418763,-0.4603268 -5.0369818,-0.4589943 -5.0325525,-0.4565263 -5.0289352,-0.4529706 -5.0263423,-0.4486161 -5.0247171,-0.4438035 -5.0233667,-0.4337601 -5.0233667,-0.1850023 -4.8545534,-0.4457738 -4.8545534,-0.4457738 -4.8499426,-0.4516083 -4.8443877,-0.4565391 -4.8376875,-0.4597646 -4.8303315,-0.4607735 -4.8303315,-0.4607735 -4.8254229,-0.4603915 -4.8206801,-0.4590791 -4.8164271,-0.4566059 -4.8130017,-0.4530772 -4.8105914,-0.4487861 -4.8090719,-0.4441022 -4.8079161,-0.4343348 -4.8079161,-0.1112314 -4.8079161,-0.1112314 -4.8087217,-0.1007515 -4.8101035,-0.0956825 -4.8124596,-0.0909772 -4.816006,-0.0871125 -4.8205436,-0.0844632 -4.8256503,-0.0832242 -4.8309062,-0.0830781 -4.8309062,-0.0830781 -4.8364703,-0.0833724 -4.8418812,-0.0846895 -4.8467153,-0.0874375 -4.8503518,-0.09165 -4.8526006,-0.0967393 -4.8538128,-0.1021835 -4.8545532,-0.1132937z" transform="matrix(1,0,0,-1,7.223125,3.2393555)" fill="rgb(104,104,104)" fill-rule="nonzero" shaper:cutDepth="0.0000762" stroke-linecap="round" stroke-linejoin="round" /><path d="M-4.618083,-0.0778232 L-4.618083,-0.0778232 -4.607905,-0.0783537 -4.5978253,-0.0798673 -4.5879224,-0.0822764 -4.5782603,-0.0855224 -4.5688827,-0.089515 -4.5598526,-0.0942424 -4.5512324,-0.0996804 -4.5430366,-0.1057398 -4.5430366,-0.1057398 -4.5347716,-0.113339 -4.5272903,-0.1217169 -4.5206048,-0.1307343 -4.514599,-0.1402267 -4.509416,-0.1501858 -4.5048349,-0.1604395 -4.5009539,-0.1709775 -4.4976525,-0.181711 -4.4926959,-0.2036129 -4.4895126,-0.2258451 -4.48786,-0.2482424 -4.4873676,-0.2706942 -4.4873676,-0.2706942 -4.4878695,-0.2919022 -4.4894556,-0.3130523 -4.492428,-0.3340598 -4.4970562,-0.3547571 -4.5035679,-0.374949 -4.5076221,-0.3847502 -4.5122988,-0.3942722 -4.5176003,-0.4034703 -4.5235607,-0.4122507 -4.5373712,-0.428341 -4.5373712,-0.428341 -4.5457193,-0.4354634 -4.5547308,-0.4417253 -4.564245,-0.4471941 -4.5742274,-0.4517511 -4.5845427,-0.4554969 -4.5951524,-0.4582968 -4.6059836,-0.4600621 -4.6169335,-0.4607735 -4.6169335,-0.4607735 -4.6306269,-0.4596446 -4.6441008,-0.4569497 -4.657174,-0.4527207 -4.6697467,-0.4471759 -4.6817359,-0.440462 -4.6930108,-0.4326095 -4.7034163,-0.4236345 -4.7126711,-0.4134795 -4.7126711,-0.4134795 -4.7230479,-0.3969641 -4.7312306,-0.3792483 -4.7376419,-0.3608224 -4.74236,-0.3418925 -4.7456446,-0.322657 -4.747874,-0.3032733 -4.749057,-0.283798 -4.7494554,-0.2642898 -4.7494554,-0.2642898 -4.7489102,-0.2444617 -4.7473507,-0.2246893 -4.7444529,-0.2050665 -4.7401872,-0.185696 -4.7343436,-0.1667405 -4.7265474,-0.1485087 -4.721871,-0.1397529 -4.716635,-0.131325 -4.7044603,-0.1156748 -4.7044603,-0.1156748 -4.6955315,-0.1075638 -4.6859049,-0.1002947 -4.6756138,-0.0940012 -4.6648317,-0.0885907 -4.6535992,-0.0841936 -4.6420294,-0.0807792 -4.6301583,-0.0786363 -4.6181237,-0.0778233 -4.618083,-0.0778232z M-4.5340048,-0.2678204 L-4.5340048,-0.2678204 -4.5342972,-0.2511133 -4.5354562,-0.2344499 -4.5376386,-0.2178799 -4.5410594,-0.2015312 -4.5459787,-0.1855592 -4.5526841,-0.1702666 -4.5568186,-0.1629966 -4.561502,-0.1560704 -4.5725954,-0.1435915 -4.5725954,-0.1435915 -4.5826274,-0.1359995 -4.5937418,-0.1301027 -4.6056416,-0.1260429 -4.6181045,-0.1244615 -4.6181045,-0.1244615 -4.6252552,-0.1251205 -4.6322984,-0.1264385 -4.6391518,-0.1285439 -4.6457914,-0.1313066 -4.6521923,-0.1345771 -4.6582666,-0.1383851 -4.6692361,-0.1476147 -4.6692361,-0.1476147 -4.6789513,-0.1598878 -4.6864674,-0.1736343 -4.6921188,-0.1882373 -4.6963177,-0.2033304 -4.6993364,-0.2186989 -4.7013347,-0.2342374 -4.7024288,-0.2498613 -4.7028182,-0.2655214 -4.7028182,-0.2655214 -4.7017742,-0.2959344 -4.7002294,-0.3110731 -4.6978649,-0.3261068 -4.6944783,-0.3409414 -4.6897757,-0.3554119 -4.6835187,-0.369284 -4.6754763,-0.3821964 -4.6754763,-0.3821964 -4.6701434,-0.3888112 -4.664138,-0.3948202 -4.6575361,-0.4001697 -4.6503952,-0.4047723 -4.6428082,-0.4085982 -4.6348343,-0.4115278 -4.6265459,-0.4133971 -4.618083,-0.4141363 -4.618083,-0.4141363 -4.6106731,-0.4135631 -4.6034,-0.4120156 -4.596325,-0.4097421 -4.5895289,-0.4067247 -4.5830024,-0.4031678 -4.5768571,-0.3989836 -4.5710758,-0.3943109 -4.5657804,-0.3890935 -4.5657804,-0.3890935 -4.5564182,-0.3761464 -4.5491591,-0.3618971 -4.5436489,-0.3468958 -4.539669,-0.3314107 -4.5369106,-0.3156635 -4.5351864,-0.2997687 -4.5340048,-0.2678204z" transform="matrix(1,0,0,-1,7.223125,3.2393555)" fill="rgb(104,104,104)" fill-rule="nonzero" shaper:cutDepth="0.0000762" stroke-linecap="round" stroke-linejoin="round" /><path d="M-4.1839796,-0.4183238 L-4.1839796,-0.4183238 -4.1817627,-0.4211155 -4.1817627,-0.4211155 -4.1772234,-0.4281317 -4.1760003,-0.4321374 -4.1756046,-0.4363054 -4.1756046,-0.4363054 -4.1760697,-0.440845 -4.1774633,-0.4451881 -4.1797155,-0.449155 -4.1827556,-0.4525574 -4.1864097,-0.4552875 -4.1905399,-0.4572279 -4.1949544,-0.458374 -4.199498,-0.4588029 -4.199498,-0.4588029 -4.2060896,-0.4581523 -4.209252,-0.4571175 -4.2121142,-0.4554524 -4.2170201,-0.4510087 -4.2211902,-0.4458633 -4.3267671,-0.3031268 -4.3770148,-0.3031268 -4.3770148,-0.4300652 -4.3770148,-0.4300652 -4.3777782,-0.4410763 -4.3790579,-0.4464426 -4.381236,-0.4515229 -4.384627,-0.4558605 -4.3892054,-0.4589367 -4.3944913,-0.4605137 -4.400005,-0.4607735 -4.400005,-0.4607735 -4.407703,-0.459675 -4.411337,-0.4582663 -4.4147013,-0.4563015 -4.4177138,-0.4538273 -4.4201545,-0.4507925 -4.4219913,-0.4473552 -4.4230772,-0.443613 -4.4230772,-0.443613 -4.4236382,-0.4357628 -4.4236521,-0.4278817 -4.423652,-0.1157569 -4.423652,-0.1157569 -4.4236354,-0.1087934 -4.4226172,-0.1019071 -4.4200451,-0.0954414 -4.4156934,-0.0900183 -4.4098519,-0.0862431 -4.4032358,-0.0840682 -4.3963397,-0.0831357 -4.3893747,-0.0830782 -4.293265,-0.0830781 -4.293265,-0.0830781 -4.282145,-0.0836184 -4.2710903,-0.0849113 -4.260149,-0.0869792 -4.2494484,-0.0900396 -4.2390907,-0.0941213 -4.2291808,-0.0991908 -4.2198569,-0.1052722 -4.2112442,-0.1123234 -4.2033843,-0.1202069 -4.1964288,-0.1288969 -4.1905156,-0.1383277 -4.1857647,-0.1483944 -4.1820833,-0.1588991 -4.1795163,-0.1697315 -4.1779938,-0.1807582 -4.1773289,-0.1918708 -4.1773289,-0.1918708 -4.1777645,-0.2016111 -4.1788619,-0.2112986 -4.1807774,-0.2208586 -4.1834828,-0.2302253 -4.1869531,-0.2393362 -4.1912693,-0.2480785 -4.1964743,-0.2563219 -4.2023602,-0.2640943 -4.2089076,-0.2713183 -4.2161488,-0.2778463 -4.2239783,-0.2836561 -4.2322967,-0.2887405 -4.2410613,-0.2930113 -4.2501593,-0.2965163 -4.2595058,-0.2992905 -4.269011,-0.3014612 -4.1839796,-0.4183238z M-4.3770148,-0.1297154 L-4.3770148,-0.2564895 -4.295564,-0.2564895 -4.295564,-0.2564895 -4.2862225,-0.2563619 -4.2769194,-0.2555716 -4.2677771,-0.2536679 -4.2591903,-0.250003 -4.2591903,-0.250003 -4.2515231,-0.2455212 -4.2445744,-0.2399914 -4.2384842,-0.2335283 -4.2333464,-0.2262843 -4.2292781,-0.2183902 -4.2263356,-0.2100108 -4.2245807,-0.2013058 -4.2239661,-0.1924455 -4.2239661,-0.1924455 -4.2246751,-0.1834648 -4.2266142,-0.1746684 -4.2297686,-0.1662305 -4.2340756,-0.1583186 -4.2394639,-0.1510994 -4.2458215,-0.1447179 -4.2530072,-0.1392858 -4.2609145,-0.1349701 -4.2609145,-0.1349701 -4.2682125,-0.1321099 -4.2758783,-0.1304696 -4.2915359,-0.1297154 -4.3770148,-0.1297154z" transform="matrix(1,0,0,-1,7.223125,3.2393555)" fill="rgb(104,104,104)" fill-rule="nonzero" shaper:cutDepth="0.0000762" stroke-linecap="round" stroke-linejoin="round" /><path d="M-3.880099,-0.0980217 L-3.9773184,-0.2613631 -4.0744531,-0.1001825 -4.0744531,-0.1001825 -4.078073,-0.0943218 -4.0823711,-0.0889394 -4.0850833,-0.0867937 -4.0881717,-0.0852325 -4.0949749,-0.0842276 -4.0949749,-0.0842276 -4.1004451,-0.0845172 -4.10574,-0.0859058 -4.1104692,-0.0886465 -4.1141333,-0.0927222 -4.11663,-0.097582 -4.1180561,-0.1028804 -4.1188682,-0.1137864 -4.1188683,-0.4299217 -4.1188683,-0.4299217 -4.118114,-0.4409284 -4.116849,-0.4462992 -4.1146714,-0.4513706 -4.1113637,-0.4557836 -4.1068303,-0.4589062 -4.1015537,-0.4605135 -4.0960423,-0.4607735 -4.0960423,-0.4607735 -4.0895057,-0.4598787 -4.0833901,-0.4574415 -4.0780369,-0.4535617 -4.0744479,-0.4480468 -4.0744479,-0.4480468 -4.0731342,-0.4439364 -4.0724428,-0.4396804 -4.072231,-0.4310505 -4.072231,-0.1955287 -4.001757,-0.3135765 -4.001757,-0.3135765 -3.9974786,-0.3200971 -3.9923556,-0.325969 -3.98918,-0.3282419 -3.9855585,-0.3297345 -3.9778072,-0.3305507 -3.9778072,-0.3305507 -3.9734251,-0.3304413 -3.9691294,-0.329638 -3.9651432,-0.3277975 -3.96184,-0.3249388 -3.956409,-0.3180737 -3.9516969,-0.3106806 -3.8823982,-0.1955287 -3.8823982,-0.4321919 -3.8823982,-0.4321919 -3.8821567,-0.4407636 -3.8806737,-0.4491963 -3.8806737,-0.4491963 -3.8767077,-0.4543092 -3.8713328,-0.4579273 -3.8651739,-0.4599147 -3.858751,-0.4607735 -3.858751,-0.4607735 -3.8538765,-0.4603286 -3.849145,-0.4590817 -3.844847,-0.4567458 -3.8413016,-0.4533792 -3.838753,-0.4492025 -3.8371045,-0.4445927 -3.8357608,-0.4349096 -3.8357609,-0.1077584 -3.8357609,-0.1077584 -3.8364511,-0.0981852 -3.8377756,-0.0935536 -3.8401988,-0.0894152 -3.8437214,-0.0861448 -3.848079,-0.0841209 -3.8527928,-0.0831899 -3.8576015,-0.0830781 -3.8576015,-0.0830781 -3.8647075,-0.0838276 -3.8680653,-0.0850833 -3.8711034,-0.0869841 -3.876029,-0.0921504 -3.880099,-0.0980217z" transform="matrix(1,0,0,-1,7.223125,3.2393555)" fill="rgb(104,104,104)" fill-rule="nonzero" shaper:cutDepth="0.0000762" stroke-linecap="round" stroke-linejoin="round" /><path d="M-4.7704749,-2.3469166 L-4.7704749,-2.3469166 -4.7602969,-2.3474471 -4.7502172,-2.3489608 -4.7403143,-2.3513698 -4.7306522,-2.3546158 -4.7212746,-2.3586085 -4.7122445,-2.3633358 -4.7036243,-2.3687738 -4.6954285,-2.3748332 -4.6954285,-2.3748332 -4.6871635,-2.3824325 -4.6796822,-2.3908104 -4.6729967,-2.3998277 -4.6669909,-2.4093201 -4.6618079,-2.4192793 -4.6572268,-2.4295329 -4.6533458,-2.4400709 -4.6500444,-2.4508045 -4.6450878,-2.4727063 -4.6419045,-2.4949385 -4.6402519,-2.5173358 -4.6397595,-2.5397876 -4.6397595,-2.5397876 -4.6402614,-2.5609957 -4.6418475,-2.5821457 -4.6448199,-2.6031533 -4.6494481,-2.6238506 -4.6559598,-2.6440424 -4.660014,-2.6538437 -4.6646907,-2.6633656 -4.6699922,-2.6725637 -4.6759526,-2.6813441 -4.6897631,-2.6974344 -4.6897631,-2.6974344 -4.6981112,-2.7045569 -4.7071227,-2.7108187 -4.7166369,-2.7162875 -4.7266193,-2.7208446 -4.7369346,-2.7245904 -4.7475443,-2.7273902 -4.7583755,-2.7291555 -4.7693254,-2.729867 -4.7693254,-2.729867 -4.7830188,-2.728738 -4.7964927,-2.7260431 -4.8095659,-2.7218142 -4.8221386,-2.7162693 -4.8341278,-2.7095554 -4.8454027,-2.7017029 -4.8558082,-2.6927279 -4.865063,-2.6825729 -4.865063,-2.6825729 -4.8754398,-2.6660576 -4.8836225,-2.6483418 -4.8900338,-2.6299158 -4.8947519,-2.610986 -4.8980365,-2.5917505 -4.9002659,-2.5723668 -4.9014489,-2.5528914 -4.9018473,-2.5333832 -4.9018473,-2.5333832 -4.9013021,-2.5135552 -4.8997426,-2.4937827 -4.8968448,-2.4741599 -4.8925791,-2.4547894 -4.8867355,-2.4358339 -4.8789393,-2.4176022 -4.8742629,-2.4088463 -4.8690268,-2.4004184 -4.8568522,-2.3847683 -4.8568522,-2.3847683 -4.8479234,-2.3766573 -4.8382968,-2.3693881 -4.8280057,-2.3630946 -4.8172236,-2.3576841 -4.8059911,-2.353287 -4.7944213,-2.3498727 -4.7825502,-2.3477298 -4.7705156,-2.3469167 -4.7704749,-2.3469166z M-4.6863967,-2.5369139 L-4.6863967,-2.5369139 -4.6866891,-2.5202067 -4.6878481,-2.5035433 -4.6900305,-2.4869734 -4.6934513,-2.4706246 -4.6983706,-2.4546526 -4.705076,-2.4393601 -4.7092105,-2.4320901 -4.7138939,-2.4251638 -4.7249873,-2.4126849 -4.7249873,-2.4126849 -4.7350193,-2.4050929 -4.7461337,-2.3991962 -4.7580335,-2.3951363 -4.7704964,-2.393555 -4.7704964,-2.393555 -4.777647,-2.3942139 -4.7846903,-2.3955319 -4.7915437,-2.3976373 -4.7981833,-2.4004 -4.8045842,-2.4036705 -4.8106585,-2.4074785 -4.821628,-2.4167082 -4.821628,-2.4167082 -4.8313432,-2.4289813 -4.8388593,-2.4427277 -4.8445107,-2.4573307 -4.8487096,-2.4724239 -4.8517283,-2.4877924 -4.8537266,-2.5033308 -4.8548207,-2.5189548 -4.8552101,-2.5346148 -4.8552101,-2.5346148 -4.8541661,-2.5650278 -4.8526213,-2.5801665 -4.8502568,-2.5952003 -4.8468702,-2.6100349 -4.8421676,-2.6245054 -4.8359106,-2.6383775 -4.8278682,-2.6512899 -4.8278682,-2.6512899 -4.8225353,-2.6579046 -4.8165299,-2.6639136 -4.809928,-2.6692631 -4.8027871,-2.6738657 -4.7952001,-2.6776917 -4.7872262,-2.6806212 -4.7789378,-2.6824906 -4.7704749,-2.6832298 -4.7704749,-2.6832298 -4.763065,-2.6826565 -4.7557919,-2.6811091 -4.7487169,-2.6788355 -4.7419208,-2.6758181 -4.7353943,-2.6722612 -4.729249,-2.6680771 -4.7234677,-2.6634043 -4.7181723,-2.6581869 -4.7181723,-2.6581869 -4.7088101,-2.6452398 -4.701551,-2.6309905 -4.6960408,-2.6159893 -4.6920609,-2.6005041 -4.6893025,-2.584757 -4.6875783,-2.5688622 -4.6863967,-2.5369139z" transform="matrix(1,0,0,-1,7.223125,3.2393555)" fill="rgb(104,104,104)" fill-rule="nonzero" shaper:cutDepth="0.0000762" stroke-linecap="round" stroke-linejoin="round" /><path d="M-4.5294067,-2.4940536 L-4.4016471,-2.4940536 -4.4016471,-2.4940536 -4.3903186,-2.4947946 -4.3847853,-2.4961159 -4.3795728,-2.4983673 -4.3750808,-2.5018434 -4.3718653,-2.506516 -4.370201,-2.5119457 -4.3698715,-2.5176185 -4.3698715,-2.5176185 -4.3708768,-2.5244739 -4.3736947,-2.5307916 -4.3758838,-2.5335024 -4.3785146,-2.5357557 -4.3846508,-2.5389665 -4.3846508,-2.5389665 -4.3939686,-2.5404589 -4.4034134,-2.5406909 -4.5294067,-2.5406909 -4.5294067,-2.6992408 -4.5294067,-2.6992408 -4.5294442,-2.7071087 -4.5298266,-2.7110265 -4.5310489,-2.7147591 -4.5310489,-2.7147591 -4.5322957,-2.7180767 -4.5340985,-2.7211278 -4.536459,-2.7237706 -4.5392395,-2.7259704 -4.5457042,-2.7288758 -4.5527253,-2.729867 -4.5527253,-2.729867 -4.5593311,-2.7288564 -4.5655105,-2.7263352 -4.5706351,-2.7220546 -4.5743196,-2.7164834 -4.5743196,-2.7164834 -4.5755417,-2.7123084 -4.5759206,-2.7079673 -4.576044,-2.6992565 -4.5760439,-2.383783 -4.5760439,-2.383783 -4.5756999,-2.3770666 -4.574492,-2.3704517 -4.5719674,-2.3642242 -4.567989,-2.3588078 -4.5624876,-2.3549573 -4.5561263,-2.3527838 -4.549456,-2.3519653 -4.5427326,-2.3521716 -4.3500014,-2.3521715 -4.3500014,-2.3521715 -4.3393219,-2.3532953 -4.3341272,-2.3547157 -4.3293274,-2.3571077 -4.3252097,-2.360574 -4.3222751,-2.3650626 -4.3205263,-2.3701457 -4.31995,-2.3754901 -4.31995,-2.3754901 -4.3204241,-2.3808928 -4.3220893,-2.3860525 -4.3249905,-2.3906175 -4.3291659,-2.3940863 -4.3340372,-2.3964458 -4.3392761,-2.3978802 -4.3500649,-2.3988089 -4.5294067,-2.3988089 -4.5294067,-2.4940536z" transform="matrix(1,0,0,-1,7.223125,3.2393555)" fill="rgb(104,104,104)" fill-rule="nonzero" shaper:cutDepth="0.0000762" stroke-linecap="round" stroke-linejoin="round" /><path d="M-4.2141131,-2.4940536 L-4.0863535,-2.4940536 -4.0863535,-2.4940536 -4.075025,-2.4947946 -4.0694918,-2.4961159 -4.0642792,-2.4983673 -4.0597872,-2.5018434 -4.0565718,-2.506516 -4.0549074,-2.5119457 -4.0545779,-2.5176185 -4.0545779,-2.5176185 -4.0555832,-2.5244739 -4.0584011,-2.5307916 -4.0605902,-2.5335024 -4.063221,-2.5357557 -4.0693573,-2.5389665 -4.0693573,-2.5389665 -4.078675,-2.5404589 -4.0881198,-2.5406909 -4.2141131,-2.5406909 -4.2141131,-2.6992408 -4.2141131,-2.6992408 -4.2141506,-2.7071087 -4.214533,-2.7110265 -4.2157553,-2.7147591 -4.2157553,-2.7147591 -4.2170021,-2.7180767 -4.218805,-2.7211278 -4.2211655,-2.7237706 -4.2239459,-2.7259704 -4.2304106,-2.7288758 -4.2374317,-2.729867 -4.2374317,-2.729867 -4.2440375,-2.7288564 -4.250217,-2.7263352 -4.2553415,-2.7220546 -4.259026,-2.7164834 -4.259026,-2.7164834 -4.2602481,-2.7123084 -4.260627,-2.7079673 -4.2607504,-2.6992565 -4.2607503,-2.383783 -4.2607503,-2.383783 -4.2604063,-2.3770666 -4.2591984,-2.3704517 -4.2566738,-2.3642242 -4.2526954,-2.3588078 -4.2471941,-2.3549573 -4.2408327,-2.3527838 -4.2341624,-2.3519653 -4.227439,-2.3521716 -4.0347078,-2.3521715 -4.0347078,-2.3521715 -4.0240283,-2.3532953 -4.0188336,-2.3547157 -4.0140338,-2.3571077 -4.0099161,-2.360574 -4.0069815,-2.3650626 -4.0052327,-2.3701457 -4.0046564,-2.3754901 -4.0046564,-2.3754901 -4.0051305,-2.3808928 -4.0067958,-2.3860525 -4.0096969,-2.3906175 -4.0138723,-2.3940863 -4.0187436,-2.3964458 -4.0239826,-2.3978802 -4.0347713,-2.3988089 -4.2141131,-2.3988089 -4.2141131,-2.4940536z" transform="matrix(1,0,0,-1,7.223125,3.2393555)" fill="rgb(104,104,104)" fill-rule="nonzero" shaper:cutDepth="0.0000762" stroke-linecap="round" stroke-linejoin="round" /><path d="M-0.1704556,-0.0596116 L-0.1704556,-0.0596116 -0.1602776,-0.0601421 -0.1501978,-0.0616558 -0.140295,-0.0640648 -0.1306329,-0.0673108 -0.1212552,-0.0713034 -0.1122252,-0.0760308 -0.103605,-0.0814688 -0.0954092,-0.0875282 -0.0954092,-0.0875282 -0.0871442,-0.0951274 -0.0796629,-0.1035053 -0.0729774,-0.1125227 -0.0669716,-0.1220151 -0.0617885,-0.1319742 -0.0572075,-0.1422279 -0.0533265,-0.1527659 -0.050025,-0.1634994 -0.0450684,-0.1854013 -0.0418852,-0.2076335 -0.0402325,-0.2300308 -0.0397401,-0.2524826 -0.0397401,-0.2524826 -0.0402421,-0.2736906 -0.0418281,-0.2948407 -0.0448005,-0.3158482 -0.0494287,-0.3365455 -0.0559405,-0.3567374 -0.0599946,-0.3665386 -0.0646714,-0.3760606 -0.0699729,-0.3852587 -0.0759333,-0.3940391 -0.0897437,-0.4101294 -0.0897437,-0.4101294 -0.0980919,-0.4172518 -0.1071034,-0.4235137 -0.1166176,-0.4289825 -0.1266,-0.4335395 -0.1369153,-0.4372853 -0.147525,-0.4400852 -0.1583561,-0.4418505 -0.1693061,-0.4425619 -0.1693061,-0.4425619 -0.1829994,-0.441433 -0.1964734,-0.4387381 -0.2095465,-0.4345091 -0.2221192,-0.4289643 -0.2341085,-0.4222504 -0.2453833,-0.4143979 -0.2557888,-0.4054229 -0.2650437,-0.3952679 -0.2650437,-0.3952679 -0.2754204,-0.3787525 -0.2836032,-0.3610367 -0.2900144,-0.3426108 -0.2947326,-0.3236809 -0.2980171,-0.3044454 -0.3002465,-0.2850617 -0.3014296,-0.2655864 -0.3018279,-0.2460782 -0.3018279,-0.2460782 -0.3012827,-0.2262501 -0.2997232,-0.2064777 -0.2968255,-0.1868549 -0.2925598,-0.1674844 -0.2867162,-0.1485289 -0.27892,-0.1302971 -0.2742436,-0.1215413 -0.2690075,-0.1131134 -0.2568329,-0.0974632 -0.2568329,-0.0974632 -0.2479041,-0.0893522 -0.2382774,-0.0820831 -0.2279864,-0.0757896 -0.2172042,-0.0703791 -0.2059717,-0.065982 -0.1944019,-0.0625676 -0.1825309,-0.0604247 -0.1704962,-0.0596117 -0.1704556,-0.0596116z M-0.0863773,-0.2496088 L-0.0863773,-0.2496088 -0.0866698,-0.2329017 -0.0878288,-0.2162383 -0.0900111,-0.1996683 -0.0934319,-0.1833196 -0.0983513,-0.1673476 -0.1050566,-0.152055 -0.1091912,-0.144785 -0.1138745,-0.1378588 -0.1249679,-0.1253799 -0.1249679,-0.1253799 -0.135,-0.1177879 -0.1461144,-0.1118911 -0.1580142,-0.1078313 -0.170477,-0.1062499 -0.170477,-0.1062499 -0.1776277,-0.1069089 -0.1846709,-0.1082269 -0.1915243,-0.1103323 -0.198164,-0.113095 -0.2045649,-0.1163655 -0.2106391,-0.1201735 -0.2216087,-0.1294031 -0.2216087,-0.1294031 -0.2313239,-0.1416763 -0.2388399,-0.1554227 -0.2444913,-0.1700257 -0.2486902,-0.1851188 -0.251709,-0.2004873 -0.2537072,-0.2160258 -0.2548013,-0.2316497 -0.2551907,-0.2473098 -0.2551907,-0.2473098 -0.2541467,-0.2777228 -0.2526019,-0.2928615 -0.2502374,-0.3078952 -0.2468508,-0.3227298 -0.2421482,-0.3372003 -0.2358913,-0.3510724 -0.2278489,-0.3639848 -0.2278489,-0.3639848 -0.222516,-0.3705996 -0.2165106,-0.3766086 -0.2099087,-0.3819581 -0.2027678,-0.3865607 -0.1951807,-0.3903866 -0.1872068,-0.3933162 -0.1789184,-0.3951855 -0.1704556,-0.3959247 -0.1704556,-0.3959247 -0.1630457,-0.3953515 -0.1557725,-0.393804 -0.1486976,-0.3915305 -0.1419015,-0.3885131 -0.1353749,-0.3849562 -0.1292296,-0.380772 -0.1234484,-0.3760993 -0.118153,-0.3708819 -0.118153,-0.3708819 -0.1087907,-0.3579348 -0.1015316,-0.3436855 -0.0960214,-0.3286842 -0.0920415,-0.3131991 -0.0892832,-0.2974519 -0.087559,-0.2815571 -0.0863773,-0.2496088z" transform="matrix(1,0,0,-1,7.223125,3.2393555)" fill="rgb(104,104,104)" fill-rule="nonzero" shaper:cutDepth="0.0000762" stroke-linecap="round" stroke-linejoin="round" /><path d="M0.2394261,-0.0950821 L0.2394259,-0.3400665 0.0700532,-0.0810106 0.0700532,-0.0810106 0.0655312,-0.074889 0.0601396,-0.0695189 0.056951,-0.0674204 0.0534299,-0.0659359 0.0458982,-0.0648665 0.0458982,-0.0648665 0.0393658,-0.0658779 0.0333472,-0.0685921 0.0283019,-0.0728756 0.025125,-0.0786606 0.025125,-0.0786606 0.0242645,-0.0824442 0.0240135,-0.0863253 0.0239754,-0.0940968 0.0239754,-0.4121218 0.0239754,-0.4121218 0.0241904,-0.4216863 0.024829,-0.4264294 0.0262745,-0.4309847 0.0262745,-0.4309847 0.0301,-0.4358793 0.0350572,-0.439622 0.0408832,-0.4417695 0.0470477,-0.4425619 0.0470477,-0.4425619 0.0521029,-0.4421152 0.0569975,-0.4407827 0.0614268,-0.4383147 0.0650441,-0.434759 0.067637,-0.4304045 0.0692622,-0.4255919 0.0706126,-0.4155485 0.0706126,-0.1667907 0.2394259,-0.4275622 0.2394259,-0.4275622 0.2440367,-0.4333967 0.2495916,-0.4383276 0.2562918,-0.441553 0.2636478,-0.4425619 0.2636478,-0.4425619 0.2685564,-0.4421799 0.2732992,-0.4408675 0.2775522,-0.4383943 0.2809776,-0.4348656 0.2833879,-0.4305745 0.2849074,-0.4258906 0.2860632,-0.4161232 0.2860632,-0.0930198 0.2860632,-0.0930198 0.2852576,-0.0825399 0.2838758,-0.0774709 0.2815197,-0.0727656 0.2779733,-0.0689009 0.2734357,-0.0662516 0.268329,-0.0650126 0.2630731,-0.0648665 0.2630731,-0.0648665 0.257509,-0.0651608 0.2520981,-0.0664779 0.247264,-0.0692259 0.2436275,-0.0734384 0.2413787,-0.0785277 0.2401665,-0.0839719 0.2394261,-0.0950821z" transform="matrix(1,0,0,-1,7.223125,3.2393555)" fill="rgb(104,104,104)" fill-rule="nonzero" shaper:cutDepth="0.0000762" stroke-linecap="round" stroke-linejoin="round" /><path d="M-1.1629244,-1.3446756 L-1.0351649,-1.3446756 -1.0351649,-1.3446756 -1.0238363,-1.3454166 -1.0183031,-1.3467379 -1.0130905,-1.3489893 -1.0085985,-1.3524654 -1.0053831,-1.357138 -1.0037188,-1.3625677 -1.0033892,-1.3682406 -1.0033892,-1.3682406 -1.0043946,-1.3750959 -1.0072124,-1.3814136 -1.0094015,-1.3841244 -1.0120323,-1.3863777 -1.0181686,-1.3895886 -1.0181686,-1.3895886 -1.0274863,-1.3910809 -1.0369311,-1.3913129 -1.1629244,-1.3913129 -1.1629244,-1.5498628 -1.1629244,-1.5498628 -1.1629619,-1.5577307 -1.1633443,-1.5616485 -1.1645666,-1.5653812 -1.1645666,-1.5653812 -1.1658134,-1.5686987 -1.1676163,-1.5717498 -1.1699768,-1.5743927 -1.1727572,-1.5765924 -1.1792219,-1.5794978 -1.186243,-1.580489 -1.186243,-1.580489 -1.1928488,-1.5794784 -1.1990283,-1.5769572 -1.2041528,-1.5726766 -1.2078374,-1.5671054 -1.2078374,-1.5671054 -1.2090594,-1.5629304 -1.2094383,-1.5585893 -1.2095617,-1.5498785 -1.2095616,-1.234405 -1.2095616,-1.234405 -1.2092176,-1.2276886 -1.2080097,-1.2210737 -1.2054851,-1.2148462 -1.2015067,-1.2094298 -1.1960054,-1.2055793 -1.189644,-1.2034058 -1.1829737,-1.2025873 -1.1762503,-1.2027936 -0.9835191,-1.2027935 -0.9835191,-1.2027935 -0.9728396,-1.2039173 -0.967645,-1.2053377 -0.9628451,-1.2077297 -0.9587274,-1.211196 -0.9557928,-1.2156846 -0.954044,-1.2207677 -0.9534677,-1.2261121 -0.9534677,-1.2261121 -0.9539418,-1.2315148 -0.9556071,-1.2366745 -0.9585082,-1.2412395 -0.9626836,-1.2447083 -0.9675549,-1.2470678 -0.9727939,-1.2485023 -0.9835826,-1.2494309 -1.1629244,-1.2494309 -1.1629244,-1.3446756z" transform="matrix(1,0,0,-1,7.223125,3.2393555)" fill="rgb(104,104,104)" fill-rule="nonzero" shaper:cutDepth="0.0000762" stroke-linecap="round" stroke-linejoin="round" /><path d="M-1.478218,-1.3446756 L-1.3504584,-1.3446756 -1.3504584,-1.3446756 -1.3391299,-1.3454166 -1.3335966,-1.3467379 -1.3283841,-1.3489893 -1.3238921,-1.3524654 -1.3206766,-1.357138 -1.3190123,-1.3625677 -1.3186828,-1.3682406 -1.3186828,-1.3682406 -1.3196881,-1.3750959 -1.322506,-1.3814136 -1.3246951,-1.3841244 -1.3273259,-1.3863777 -1.3334621,-1.3895886 -1.3334621,-1.3895886 -1.3427799,-1.3910809 -1.3522247,-1.3913129 -1.478218,-1.3913129 -1.478218,-1.5498628 -1.478218,-1.5498628 -1.4782555,-1.5577307 -1.4786379,-1.5616485 -1.4798602,-1.5653812 -1.4798602,-1.5653812 -1.481107,-1.5686987 -1.4829099,-1.5717498 -1.4852703,-1.5743927 -1.4880508,-1.5765924 -1.4945155,-1.5794978 -1.5015366,-1.580489 -1.5015366,-1.580489 -1.5081424,-1.5794784 -1.5143218,-1.5769572 -1.5194464,-1.5726766 -1.5231309,-1.5671054 -1.5231309,-1.5671054 -1.524353,-1.5629304 -1.5247319,-1.5585893 -1.5248553,-1.5498785 -1.5248552,-1.234405 -1.5248552,-1.234405 -1.5245112,-1.2276886 -1.5233033,-1.2210737 -1.5207787,-1.2148462 -1.5168003,-1.2094298 -1.5112989,-1.2055793 -1.5049376,-1.2034058 -1.4982673,-1.2025873 -1.4915439,-1.2027936 -1.2988127,-1.2027935 -1.2988127,-1.2027935 -1.2881332,-1.2039173 -1.2829385,-1.2053377 -1.2781387,-1.2077297 -1.274021,-1.211196 -1.2710864,-1.2156846 -1.2693376,-1.2207677 -1.2687613,-1.2261121 -1.2687613,-1.2261121 -1.2692354,-1.2315148 -1.2709007,-1.2366745 -1.2738018,-1.2412395 -1.2779772,-1.2447083 -1.2828485,-1.2470678 -1.2880874,-1.2485023 -1.2988762,-1.2494309 -1.478218,-1.2494309 -1.478218,-1.3446756z" transform="matrix(1,0,0,-1,7.223125,3.2393555)" fill="rgb(104,104,104)" fill-rule="nonzero" shaper:cutDepth="0.0000762" stroke-linecap="round" stroke-linejoin="round" /><path d="M-1.7192862,-1.1975386 L-1.7192862,-1.1975386 -1.7091082,-1.1980691 -1.6990285,-1.1995828 -1.6891256,-1.2019918 -1.6794636,-1.2052379 -1.6700859,-1.2092305 -1.6610558,-1.2139578 -1.6524356,-1.2193959 -1.6442398,-1.2254553 -1.6442398,-1.2254553 -1.6359748,-1.2330545 -1.6284935,-1.2414324 -1.621808,-1.2504497 -1.6158022,-1.2599422 -1.6106192,-1.2699013 -1.6060381,-1.280155 -1.6021572,-1.290693 -1.5988557,-1.3014265 -1.5938991,-1.3233283 -1.5907158,-1.3455605 -1.5890632,-1.3679578 -1.5885708,-1.3904096 -1.5885708,-1.3904096 -1.5890727,-1.4116177 -1.5906588,-1.4327677 -1.5936312,-1.4537753 -1.5982594,-1.4744726 -1.6047711,-1.4946644 -1.6088253,-1.5044657 -1.613502,-1.5139876 -1.6188035,-1.5231857 -1.6247639,-1.5319662 -1.6385744,-1.5480564 -1.6385744,-1.5480564 -1.6469225,-1.5551789 -1.655934,-1.5614408 -1.6654482,-1.5669095 -1.6754306,-1.5714666 -1.6857459,-1.5752124 -1.6963556,-1.5780122 -1.7071868,-1.5797775 -1.7181367,-1.580489 -1.7181367,-1.580489 -1.7318301,-1.57936 -1.745304,-1.5766651 -1.7583772,-1.5724362 -1.7709499,-1.5668913 -1.7829391,-1.5601775 -1.794214,-1.5523249 -1.8046195,-1.54335 -1.8138743,-1.5331949 -1.8138743,-1.5331949 -1.8242511,-1.5166796 -1.8324338,-1.4989638 -1.8388451,-1.4805378 -1.8435633,-1.461608 -1.8468478,-1.4423725 -1.8490772,-1.4229888 -1.8502603,-1.4035135 -1.8506586,-1.3840052 -1.8506586,-1.3840052 -1.8501134,-1.3641772 -1.8485539,-1.3444048 -1.8456561,-1.3247819 -1.8413905,-1.3054115 -1.8355469,-1.286456 -1.8277506,-1.2682242 -1.8230742,-1.2594683 -1.8178382,-1.2510405 -1.8056636,-1.2353903 -1.8056636,-1.2353903 -1.7967347,-1.2272793 -1.7871081,-1.2200101 -1.776817,-1.2137166 -1.7660349,-1.2083061 -1.7548024,-1.203909 -1.7432326,-1.2004947 -1.7313616,-1.1983518 -1.7193269,-1.1975387 -1.7192862,-1.1975386z M-1.635208,-1.3875359 L-1.635208,-1.3875359 -1.6355005,-1.3708287 -1.6366594,-1.3541654 -1.6388418,-1.3375954 -1.6422626,-1.3212466 -1.6471819,-1.3052746 -1.6538873,-1.2899821 -1.6580218,-1.2827121 -1.6627052,-1.2757858 -1.6737986,-1.2633069 -1.6737986,-1.2633069 -1.6838306,-1.255715 -1.694945,-1.2498182 -1.7068448,-1.2457583 -1.7193077,-1.244177 -1.7193077,-1.244177 -1.7264584,-1.244836 -1.7335016,-1.246154 -1.740355,-1.2482593 -1.7469947,-1.2510221 -1.7533955,-1.2542925 -1.7594698,-1.2581005 -1.7704393,-1.2673302 -1.7704393,-1.2673302 -1.7801545,-1.2796033 -1.7876706,-1.2933497 -1.793322,-1.3079528 -1.7975209,-1.3230459 -1.8005397,-1.3384144 -1.8025379,-1.3539528 -1.803632,-1.3695768 -1.8040214,-1.3852369 -1.8040214,-1.3852369 -1.8029774,-1.4156499 -1.8014326,-1.4307886 -1.7990681,-1.4458223 -1.7956815,-1.4606569 -1.7909789,-1.4751274 -1.7847219,-1.4889995 -1.7766795,-1.5019119 -1.7766795,-1.5019119 -1.7713466,-1.5085266 -1.7653413,-1.5145356 -1.7587393,-1.5198851 -1.7515984,-1.5244877 -1.7440114,-1.5283137 -1.7360375,-1.5312432 -1.7277491,-1.5331126 -1.7192862,-1.5338518 -1.7192862,-1.5338518 -1.7118763,-1.5332785 -1.7046032,-1.5317311 -1.6975283,-1.5294575 -1.6907321,-1.5264402 -1.6842056,-1.5228832 -1.6780603,-1.5186991 -1.672279,-1.5140263 -1.6669836,-1.5088089 -1.6669836,-1.5088089 -1.6576214,-1.4958618 -1.6503623,-1.4816125 -1.6448521,-1.4666113 -1.6408722,-1.4511262 -1.6381139,-1.435379 -1.6363897,-1.4194842 -1.635208,-1.3875359z" transform="matrix(1,0,0,-1,7.223125,3.2393555)" fill="rgb(104,104,104)" fill-rule="nonzero" shaper:cutDepth="0.0000762" stroke-linecap="round" stroke-linejoin="round" /><path d="M-0.5304158,-2.328705 L-0.5304158,-2.328705 -0.5202377,-2.3292355 -0.510158,-2.3307492 -0.5002551,-2.3331582 -0.4905931,-2.3364042 -0.4812154,-2.3403969 -0.4721854,-2.3451242 -0.4635651,-2.3505622 -0.4553693,-2.3566216 -0.4553693,-2.3566216 -0.4471043,-2.3642209 -0.439623,-2.3725988 -0.4329376,-2.3816161 -0.4269317,-2.3911085 -0.4217487,-2.4010677 -0.4171676,-2.4113213 -0.4132867,-2.4218593 -0.4099852,-2.4325929 -0.4050286,-2.4544947 -0.4018454,-2.4767269 -0.4001927,-2.4991242 -0.3997003,-2.521576 -0.3997003,-2.521576 -0.4002022,-2.5427841 -0.4017883,-2.5639341 -0.4047607,-2.5849417 -0.4093889,-2.605639 -0.4159006,-2.6258308 -0.4199548,-2.6356321 -0.4246316,-2.645154 -0.429933,-2.6543521 -0.4358935,-2.6631326 -0.4497039,-2.6792228 -0.4497039,-2.6792228 -0.4580521,-2.6863453 -0.4670635,-2.6926071 -0.4765777,-2.6980759 -0.4865601,-2.702633 -0.4968754,-2.7063788 -0.5074852,-2.7091786 -0.5183163,-2.7109439 -0.5292663,-2.7116554 -0.5292663,-2.7116554 -0.5429596,-2.7105264 -0.5564335,-2.7078315 -0.5695067,-2.7036026 -0.5820794,-2.6980577 -0.5940687,-2.6913438 -0.6053435,-2.6834913 -0.615749,-2.6745163 -0.6250038,-2.6643613 -0.6250038,-2.6643613 -0.6353806,-2.647846 -0.6435633,-2.6301302 -0.6499746,-2.6117042 -0.6546928,-2.5927744 -0.6579773,-2.5735389 -0.6602067,-2.5541552 -0.6613898,-2.5346798 -0.6617881,-2.5151716 -0.6617881,-2.5151716 -0.6612429,-2.4953436 -0.6596834,-2.4755711 -0.6567856,-2.4559483 -0.65252,-2.4365778 -0.6466764,-2.4176223 -0.6388802,-2.3993906 -0.6342038,-2.3906347 -0.6289677,-2.3822068 -0.6167931,-2.3665567 -0.6167931,-2.3665567 -0.6078643,-2.3584457 -0.5982376,-2.3511765 -0.5879466,-2.344883 -0.5771644,-2.3394725 -0.5659319,-2.3350754 -0.5543621,-2.3316611 -0.5424911,-2.3295182 -0.5304564,-2.3287051 -0.5304158,-2.328705z M-0.4463375,-2.5187023 L-0.4463375,-2.5187023 -0.44663,-2.5019951 -0.4477889,-2.4853317 -0.4499713,-2.4687618 -0.4533921,-2.452413 -0.4583114,-2.436441 -0.4650168,-2.4211485 -0.4691513,-2.4138785 -0.4738347,-2.4069522 -0.4849281,-2.3944733 -0.4849281,-2.3944733 -0.4949601,-2.3868813 -0.5060745,-2.3809846 -0.5179743,-2.3769247 -0.5304372,-2.3753434 -0.5304372,-2.3753434 -0.5375879,-2.3760023 -0.5446311,-2.3773203 -0.5514845,-2.3794257 -0.5581242,-2.3821884 -0.5645251,-2.3854589 -0.5705993,-2.3892669 -0.5815689,-2.3984966 -0.5815689,-2.3984966 -0.5912841,-2.4107697 -0.5988001,-2.4245161 -0.6044515,-2.4391191 -0.6086504,-2.4542123 -0.6116692,-2.4695808 -0.6136674,-2.4851192 -0.6147615,-2.5007432 -0.6151509,-2.5164032 -0.6151509,-2.5164032 -0.6141069,-2.5468162 -0.6125621,-2.5619549 -0.6101976,-2.5769887 -0.606811,-2.5918233 -0.6021084,-2.6062938 -0.5958514,-2.6201659 -0.5878091,-2.6330783 -0.5878091,-2.6330783 -0.5824761,-2.639693 -0.5764708,-2.645702 -0.5698688,-2.6510515 -0.5627279,-2.6556541 -0.5551409,-2.6594801 -0.547167,-2.6624096 -0.5388786,-2.664279 -0.5304158,-2.6650182 -0.5304158,-2.6650182 -0.5230058,-2.6644449 -0.5157327,-2.6628975 -0.5086578,-2.6606239 -0.5018616,-2.6576065 -0.4953351,-2.6540496 -0.4891898,-2.6498655 -0.4834086,-2.6451927 -0.4781132,-2.6399753 -0.4781132,-2.6399753 -0.4687509,-2.6270282 -0.4614918,-2.6127789 -0.4559816,-2.5977777 -0.4520017,-2.5822926 -0.4492434,-2.5665454 -0.4475192,-2.5506506 -0.4463375,-2.5187023z" transform="matrix(1,0,0,-1,7.223125,3.2393555)" fill="rgb(104,104,104)" fill-rule="nonzero" shaper:cutDepth="0.0000762" stroke-linecap="round" stroke-linejoin="round" /><path d="M-0.0963123,-2.6692057 L-0.0963123,-2.6692057 -0.0940954,-2.6719973 -0.0940954,-2.6719973 -0.0895561,-2.6790136 -0.088333,-2.6830193 -0.0879374,-2.6871873 -0.0879374,-2.6871873 -0.0884025,-2.6917268 -0.089796,-2.69607 -0.0920482,-2.7000369 -0.0950883,-2.7034392 -0.0987424,-2.7061694 -0.1028726,-2.7081097 -0.1072872,-2.7092559 -0.1118307,-2.7096848 -0.1118307,-2.7096848 -0.1184223,-2.7090342 -0.1215847,-2.7079994 -0.1244469,-2.7063342 -0.1293528,-2.7018906 -0.1335229,-2.6967451 -0.2390998,-2.5540086 -0.2893476,-2.5540086 -0.2893476,-2.6809471 -0.2893476,-2.6809471 -0.290111,-2.6919581 -0.2913906,-2.6973245 -0.2935688,-2.7024048 -0.2969597,-2.7067424 -0.3015381,-2.7098185 -0.306824,-2.7113955 -0.3123377,-2.7116554 -0.3123377,-2.7116554 -0.3200357,-2.7105568 -0.3236698,-2.7091482 -0.327034,-2.7071833 -0.3300466,-2.7047092 -0.3324873,-2.7016743 -0.334324,-2.698237 -0.33541,-2.6944949 -0.33541,-2.6944949 -0.3359709,-2.6866446 -0.3359848,-2.6787635 -0.3359847,-2.3666388 -0.3359847,-2.3666388 -0.3359681,-2.3596752 -0.33495,-2.3527889 -0.3323778,-2.3463232 -0.3280261,-2.3409002 -0.3221847,-2.3371249 -0.3155685,-2.33495 -0.3086724,-2.3340175 -0.3017074,-2.33396 -0.2055977,-2.3339599 -0.2055977,-2.3339599 -0.1944777,-2.3345002 -0.1834231,-2.3357932 -0.1724818,-2.3378611 -0.1617812,-2.3409215 -0.1514234,-2.3450032 -0.1415135,-2.3500726 -0.1321897,-2.3561541 -0.123577,-2.3632053 -0.1157171,-2.3710887 -0.1087615,-2.3797788 -0.1028484,-2.3892096 -0.0980974,-2.3992762 -0.0944161,-2.409781 -0.0918491,-2.4206133 -0.0903266,-2.4316401 -0.0896616,-2.4427526 -0.0896616,-2.4427526 -0.0900973,-2.4524929 -0.0911947,-2.4621805 -0.0931101,-2.4717404 -0.0958155,-2.4811071 -0.0992859,-2.4902181 -0.1036021,-2.4989603 -0.1088071,-2.5072037 -0.114693,-2.5149762 -0.1212403,-2.5222001 -0.1284816,-2.5287281 -0.136311,-2.5345379 -0.1446295,-2.5396223 -0.153394,-2.5438931 -0.162492,-2.5473981 -0.1718385,-2.5501723 -0.1813438,-2.5523431 -0.0963123,-2.6692057z M-0.2893476,-2.3805973 L-0.2893476,-2.5073714 -0.2078967,-2.5073714 -0.2078967,-2.5073714 -0.1985553,-2.5072438 -0.1892522,-2.5064534 -0.1801098,-2.5045497 -0.171523,-2.5008849 -0.171523,-2.5008849 -0.1638558,-2.4964031 -0.1569071,-2.4908733 -0.1508169,-2.4844101 -0.1456791,-2.4771662 -0.1416108,-2.469272 -0.1386683,-2.4608926 -0.1369135,-2.4521876 -0.1362988,-2.4433274 -0.1362988,-2.4433274 -0.1370078,-2.4343466 -0.1389469,-2.4255502 -0.1421013,-2.4171124 -0.1464083,-2.4092004 -0.1517966,-2.4019812 -0.1581542,-2.3955997 -0.1653399,-2.3901676 -0.1732473,-2.385852 -0.1732473,-2.385852 -0.1805452,-2.3829917 -0.1882111,-2.3813515 -0.2038686,-2.3805973 -0.2893476,-2.3805973z" transform="matrix(1,0,0,-1,7.223125,3.2393555)" fill="rgb(104,104,104)" fill-rule="nonzero" shaper:cutDepth="0.0000762" stroke-linecap="round" stroke-linejoin="round" /><path d="M0.0101814,-2.6857093 L0.0101814,-2.6857093 0.0099683,-2.6941277 0.009343,-2.698291 0.0080466,-2.7022951 0.0080466,-2.7022951 0.0045359,-2.7062613 0.0000407,-2.7090886 -0.0049271,-2.7109361 -0.0101814,-2.7116554 -0.0101814,-2.7116554 -0.0160427,-2.7108083 -0.0215016,-2.7085325 -0.0262469,-2.7049757 -0.0295588,-2.7000782 -0.0295588,-2.7000782 -0.0307286,-2.6966439 -0.0310955,-2.6930315 -0.031201,-2.6857655 -0.0312009,-2.3609734 -0.0312009,-2.3609734 -0.0309243,-2.3519423 -0.030239,-2.3474762 -0.0284914,-2.3433202 -0.0284914,-2.3433202 -0.0248256,-2.3394665 -0.0204404,-2.3364635 -0.0154599,-2.3346036 -0.0101814,-2.3339599 -0.0101814,-2.3339599 -0.005535,-2.3342719 -0.0010371,-2.3354684 0.0029287,-2.3378972 0.00601,-2.3413869 0.0081024,-2.3455404 0.0093453,-2.350034 0.0101814,-2.3592983 0.0101814,-2.6857093z" transform="matrix(1,0,0,-1,7.223125,3.2393555)" fill="rgb(104,104,104)" fill-rule="nonzero" shaper:cutDepth="0.0000762" stroke-linecap="round" stroke-linejoin="round" /><path d="M0.1821149,-2.3339599 L0.1821149,-2.3339599 0.1952966,-2.3343973 0.2083879,-2.3359874 0.2212576,-2.3388714 0.233762,-2.3430607 0.2457611,-2.3485334 0.2570532,-2.3553457 0.267603,-2.3632588 0.2772777,-2.3722221 0.2772777,-2.3722221 0.290756,-2.387383 0.296813,-2.3955201 0.3023723,-2.4040166 0.3120431,-2.4218457 0.319512,-2.4407092 0.3248492,-2.4602784 0.3282849,-2.4802769 0.3301735,-2.5004732 0.3307298,-2.5207549 0.3307298,-2.5207549 0.3298382,-2.5500146 0.328369,-2.5645805 0.326009,-2.5790279 0.3225136,-2.5932431 0.3178296,-2.6071114 0.3121952,-2.6206231 0.3055228,-2.633653 0.3055228,-2.633653 0.2957436,-2.6501692 0.2844096,-2.6656581 0.2780325,-2.6728309 0.2711933,-2.6795681 0.2639149,-2.6858253 0.2561478,-2.6914658 0.2479128,-2.6963961 0.2393193,-2.7006738 0.2304034,-2.7042288 0.2212409,-2.7070901 0.2118753,-2.7091931 0.2023762,-2.7105775 0.1928159,-2.7114341 0.183219,-2.7116554 0.1031273,-2.7116554 0.1031273,-2.7116554 0.0964083,-2.711443 0.0897661,-2.7103987 0.0835514,-2.7078586 0.0807967,-2.7059066 0.0785208,-2.7034401 0.0756207,-2.6973776 0.0742099,-2.6908063 0.0738969,-2.677378 0.0738969,-2.3633545 0.0738969,-2.3633545 0.0739853,-2.357207 0.075012,-2.3511483 0.077383,-2.3454806 0.0811756,-2.3406514 0.0862287,-2.3371633 0.0920222,-2.3351087 0.098097,-2.3341799 0.1042408,-2.33396 0.1821149,-2.3339599z M0.1205341,-2.3805973 L0.1205341,-2.6650182 0.1832644,-2.6650182 0.1832644,-2.6650182 0.1980092,-2.6643983 0.2053114,-2.6633593 0.2125116,-2.6617275 0.2194762,-2.6593027 0.2261023,-2.6560534 0.2322388,-2.6519576 0.2379481,-2.6472829 0.2379481,-2.6472829 0.2458284,-2.6398046 0.2530087,-2.6316505 0.2594423,-2.6228971 0.265119,-2.6136323 0.2701161,-2.6039867 0.2743244,-2.5939689 0.2779248,-2.5837194 0.2807262,-2.5732218 0.2807262,-2.5732218 0.2830345,-2.5629981 0.2839576,-2.5525585 0.2840927,-2.5315932 0.2840927,-2.5315932 0.2837358,-2.4910731 0.2831069,-2.480962 0.2813995,-2.470981 0.278616,-2.4612381 0.2749787,-2.4517845 0.2749787,-2.4517845 0.2706013,-2.4419895 0.2655801,-2.4325095 0.2598692,-2.4234269 0.2534862,-2.4148042 0.2464044,-2.406745 0.238644,-2.3993401 0.2301609,-2.392769 0.2208697,-2.387412 0.2208697,-2.387412 0.2121184,-2.383625 0.2028286,-2.3814904 0.1933245,-2.3807069 0.1837889,-2.3805973 0.1205341,-2.3805973z" transform="matrix(1,0,0,-1,7.223125,3.2393555)" fill="rgb(104,104,104)" fill-rule="nonzero" shaper:cutDepth="0.0000762" stroke-linecap="round" stroke-linejoin="round" /><path d="M0.4358277,-2.475842 L0.5663789,-2.475842 0.5663789,-2.475842 0.577085,-2.4766619 0.5822599,-2.4781361 0.5870408,-2.4805847 0.5910334,-2.4841828 0.5936992,-2.4888426 0.5950766,-2.4940367 0.595363,-2.4994069 0.595363,-2.4994069 0.5951141,-2.5050083 0.5935211,-2.5103791 0.5903644,-2.5150061 0.5859275,-2.5184153 0.5807455,-2.5205652 0.5752785,-2.5218121 0.5640912,-2.5224793 0.4358277,-2.5224793 0.4358277,-2.6650182 0.6168752,-2.6650182 0.6168752,-2.6650182 0.6246621,-2.6650528 0.6285371,-2.665443 0.6322293,-2.6666603 0.6322293,-2.6666603 0.6385023,-2.6700153 0.6412082,-2.6723275 0.6434702,-2.675098 0.6464211,-2.6815625 0.6475835,-2.6885831 0.6475835,-2.6885831 0.6472958,-2.6944327 0.6454215,-2.6999752 0.6418312,-2.7045948 0.6369747,-2.7078521 0.6314711,-2.7098693 0.625729,-2.7110335 0.6140345,-2.7116554 0.4189956,-2.7116554 0.4189956,-2.7116554 0.4125825,-2.7115908 0.4062277,-2.7107687 0.4001282,-2.708792 0.3948918,-2.7051185 0.392919,-2.7025821 0.3914592,-2.6997232 0.389759,-2.6935364 0.3891151,-2.6871634 0.3891904,-2.6807495 0.3891905,-2.3642577 0.3891905,-2.3642577 0.3892549,-2.357826 0.3900889,-2.3514552 0.3920482,-2.3453301 0.3936388,-2.3425271 0.395725,-2.340075 0.4011253,-2.3366045 0.4072773,-2.3347448 0.4136662,-2.3340254 0.4200963,-2.33396 0.6163825,-2.3339599 0.6163825,-2.3339599 0.6269493,-2.3347832 0.6320643,-2.3361753 0.6368137,-2.3385346 0.6407932,-2.3420294 0.6435508,-2.346551 0.6449744,-2.3516564 0.6452845,-2.3569501 0.6452845,-2.3569501 0.6449627,-2.3625727 0.6433384,-2.3679624 0.6402517,-2.3726597 0.6358636,-2.3761868 0.6307319,-2.3784954 0.6252607,-2.3798532 0.6140345,-2.3805973 0.4358277,-2.3805973 0.4358277,-2.475842z" transform="matrix(1,0,0,-1,7.223125,3.2393555)" fill="rgb(104,104,104)" fill-rule="nonzero" shaper:cutDepth="0.0000762" stroke-linecap="round" stroke-linejoin="round" /><path d="M4.1195251,-2.328705 L4.1195251,-2.328705 4.1297031,-2.3292355 4.1397828,-2.3307492 4.1496857,-2.3331582 4.1593478,-2.3364042 4.1687254,-2.3403969 4.1777555,-2.3451242 4.1863757,-2.3505622 4.1945715,-2.3566216 4.1945715,-2.3566216 4.2028365,-2.3642209 4.2103178,-2.3725988 4.2170033,-2.3816161 4.2230091,-2.3911085 4.2281921,-2.4010677 4.2327732,-2.4113213 4.2366542,-2.4218593 4.2399556,-2.4325929 4.2449122,-2.4544947 4.2480955,-2.4767269 4.2497481,-2.4991242 4.2502405,-2.521576 4.2502405,-2.521576 4.2497386,-2.5427841 4.2481525,-2.5639341 4.2451801,-2.5849417 4.2405519,-2.605639 4.2340402,-2.6258308 4.229986,-2.6356321 4.2253093,-2.645154 4.2200078,-2.6543521 4.2140474,-2.6631326 4.2002369,-2.6792228 4.2002369,-2.6792228 4.1918888,-2.6863453 4.1828773,-2.6926071 4.1733631,-2.6980759 4.1633807,-2.702633 4.1530654,-2.7063788 4.1424557,-2.7091786 4.1316245,-2.7109439 4.1206746,-2.7116554 4.1206746,-2.7116554 4.1069812,-2.7105264 4.0935073,-2.7078315 4.0804341,-2.7036026 4.0678614,-2.6980577 4.0558722,-2.6913438 4.0445973,-2.6834913 4.0341918,-2.6745163 4.024937,-2.6643613 4.024937,-2.6643613 4.0145602,-2.647846 4.0063775,-2.6301302 3.9999662,-2.6117042 3.9952481,-2.5927744 3.9919635,-2.5735389 3.9897341,-2.5541552 3.9885511,-2.5346798 3.9881527,-2.5151716 3.9881527,-2.5151716 3.9886979,-2.4953436 3.9902574,-2.4755711 3.9931552,-2.4559483 3.9974209,-2.4365778 4.0032645,-2.4176223 4.0110607,-2.3993906 4.0157371,-2.3906347 4.0209732,-2.3822068 4.0331478,-2.3665567 4.0331478,-2.3665567 4.0420766,-2.3584457 4.0517032,-2.3511765 4.0619943,-2.344883 4.0727764,-2.3394725 4.0840089,-2.3350754 4.0955787,-2.3316611 4.1074498,-2.3295182 4.1194844,-2.3287051 4.1195251,-2.328705z M4.2036033,-2.5187023 L4.2036033,-2.5187023 4.2033109,-2.5019951 4.2021519,-2.4853317 4.1999695,-2.4687618 4.1965487,-2.452413 4.1916294,-2.436441 4.184924,-2.4211485 4.1807895,-2.4138785 4.1761061,-2.4069522 4.1650127,-2.3944733 4.1650127,-2.3944733 4.1549807,-2.3868813 4.1438663,-2.3809846 4.1319665,-2.3769247 4.1195036,-2.3753434 4.1195036,-2.3753434 4.112353,-2.3760023 4.1053097,-2.3773203 4.0984563,-2.3794257 4.0918167,-2.3821884 4.0854158,-2.3854589 4.0793415,-2.3892669 4.068372,-2.3984966 4.068372,-2.3984966 4.0586568,-2.4107697 4.0511407,-2.4245161 4.0454893,-2.4391191 4.0412904,-2.4542123 4.0382717,-2.4695808 4.0362734,-2.4851192 4.0351793,-2.5007432 4.0347899,-2.5164032 4.0347899,-2.5164032 4.0358339,-2.5468162 4.0373787,-2.5619549 4.0397432,-2.5769887 4.0431298,-2.5918233 4.0478324,-2.6062938 4.0540894,-2.6201659 4.0621318,-2.6330783 4.0621318,-2.6330783 4.0674647,-2.639693 4.0734701,-2.645702 4.080072,-2.6510515 4.0872129,-2.6556541 4.0947999,-2.6594801 4.1027738,-2.6624096 4.1110622,-2.664279 4.1195251,-2.6650182 4.1195251,-2.6650182 4.126935,-2.6644449 4.1342081,-2.6628975 4.1412831,-2.6606239 4.1480792,-2.6576065 4.1546057,-2.6540496 4.160751,-2.6498655 4.1665323,-2.6451927 4.1718277,-2.6399753 4.1718277,-2.6399753 4.1811899,-2.6270282 4.188449,-2.6127789 4.1939592,-2.5977777 4.1979391,-2.5822926 4.2006975,-2.5665454 4.2024217,-2.5506506 4.2036033,-2.5187023z" transform="matrix(1,0,0,-1,7.223125,3.2393555)" fill="rgb(104,104,104)" fill-rule="nonzero" shaper:cutDepth="0.0000762" stroke-linecap="round" stroke-linejoin="round" /><path d="M4.3605933,-2.475842 L4.4883529,-2.475842 4.4883529,-2.475842 4.4996814,-2.476583 4.5052147,-2.4779043 4.5104272,-2.4801557 4.5149192,-2.4836318 4.5181347,-2.4883044 4.519799,-2.4937341 4.5201285,-2.4994069 4.5201285,-2.4994069 4.5191232,-2.5062623 4.5163053,-2.51258 4.5141162,-2.5152908 4.5114854,-2.5175441 4.5053492,-2.5207549 4.5053492,-2.5207549 4.4960314,-2.5222473 4.4865866,-2.5224793 4.3605933,-2.5224793 4.3605933,-2.6810292 4.3605933,-2.6810292 4.3605558,-2.6888971 4.3601734,-2.6928149 4.3589511,-2.6965475 4.3589511,-2.6965475 4.3577043,-2.6998651 4.3559015,-2.7029162 4.353541,-2.7055591 4.3507605,-2.7077588 4.3442958,-2.7106642 4.3372747,-2.7116554 4.3372747,-2.7116554 4.3306689,-2.7106448 4.3244895,-2.7081236 4.3193649,-2.703843 4.3156804,-2.6982718 4.3156804,-2.6982718 4.3144583,-2.6940968 4.3140794,-2.6897557 4.313956,-2.6810449 4.3139561,-2.3655714 4.3139561,-2.3655714 4.3143001,-2.358855 4.315508,-2.3522401 4.3180326,-2.3460126 4.322011,-2.3405962 4.3275124,-2.3367457 4.3338737,-2.3345722 4.340544,-2.3337537 4.3472674,-2.33396 4.5399986,-2.3339599 4.5399986,-2.3339599 4.5506781,-2.3350837 4.5558728,-2.3365041 4.5606726,-2.3388961 4.5647903,-2.3423624 4.5677249,-2.346851 4.5694737,-2.3519341 4.57005,-2.3572785 4.57005,-2.3572785 4.5695759,-2.3626812 4.5679107,-2.3678409 4.5650095,-2.3724059 4.5608341,-2.3758747 4.5559628,-2.3782342 4.5507239,-2.3796686 4.5399351,-2.3805973 4.3605933,-2.3805973 4.3605933,-2.475842z" transform="matrix(1,0,0,-1,7.223125,3.2393555)" fill="rgb(104,104,104)" fill-rule="nonzero" shaper:cutDepth="0.0000762" stroke-linecap="round" stroke-linejoin="round" /><path d="M4.6758869,-2.475842 L4.8036465,-2.475842 4.8036465,-2.475842 4.814975,-2.476583 4.8205082,-2.4779043 4.8257208,-2.4801557 4.8302128,-2.4836318 4.8334282,-2.4883044 4.8350926,-2.4937341 4.8354221,-2.4994069 4.8354221,-2.4994069 4.8344168,-2.5062623 4.8315989,-2.51258 4.8294098,-2.5152908 4.826779,-2.5175441 4.8206427,-2.5207549 4.8206427,-2.5207549 4.811325,-2.5222473 4.8018802,-2.5224793 4.6758869,-2.5224793 4.6758869,-2.6810292 4.6758869,-2.6810292 4.6758494,-2.6888971 4.675467,-2.6928149 4.6742447,-2.6965475 4.6742447,-2.6965475 4.6729979,-2.6998651 4.671195,-2.7029162 4.6688345,-2.7055591 4.6660541,-2.7077588 4.6595894,-2.7106642 4.6525683,-2.7116554 4.6525683,-2.7116554 4.6459625,-2.7106448 4.639783,-2.7081236 4.6346585,-2.703843 4.630974,-2.6982718 4.630974,-2.6982718 4.6297519,-2.6940968 4.629373,-2.6897557 4.6292496,-2.6810449 4.6292497,-2.3655714 4.6292497,-2.3655714 4.6295937,-2.358855 4.6308016,-2.3522401 4.6333262,-2.3460126 4.6373046,-2.3405962 4.6428059,-2.3367457 4.6491673,-2.3345722 4.6558376,-2.3337537 4.662561,-2.33396 4.8552922,-2.3339599 4.8552922,-2.3339599 4.8659717,-2.3350837 4.8711664,-2.3365041 4.8759662,-2.3388961 4.8800839,-2.3423624 4.8830185,-2.346851 4.8847673,-2.3519341 4.8853436,-2.3572785 4.8853436,-2.3572785 4.8848695,-2.3626812 4.8832042,-2.3678409 4.8803031,-2.3724059 4.8761277,-2.3758747 4.8712564,-2.3782342 4.8660174,-2.3796686 4.8552287,-2.3805973 4.6758869,-2.3805973 4.6758869,-2.475842z" transform="matrix(1,0,0,-1,7.223125,3.2393555)" fill="rgb(104,104,104)" fill-rule="nonzero" shaper:cutDepth="0.0000762" stroke-linecap="round" stroke-linejoin="round" /><path d="M4.0354468,-0.0950821 L4.0354466,-0.3400665 3.8660739,-0.0810106 3.8660739,-0.0810106 3.8615519,-0.074889 3.8561604,-0.0695189 3.8529717,-0.0674204 3.8494506,-0.0659359 3.8419189,-0.0648665 3.8419189,-0.0648665 3.8353865,-0.0658779 3.8293679,-0.0685921 3.8243226,-0.0728756 3.8211457,-0.0786606 3.8211457,-0.0786606 3.8202852,-0.0824442 3.8200342,-0.0863253 3.8199962,-0.0940968 3.8199961,-0.4121218 3.8199961,-0.4121218 3.8202111,-0.4216863 3.8208497,-0.4264294 3.8222952,-0.4309847 3.8222952,-0.4309847 3.8261207,-0.4358793 3.8310779,-0.439622 3.8369039,-0.4417695 3.8430684,-0.4425619 3.8430684,-0.4425619 3.8481237,-0.4421152 3.8530182,-0.4407827 3.8574475,-0.4383147 3.8610648,-0.434759 3.8636577,-0.4304045 3.8652829,-0.4255919 3.8666333,-0.4155485 3.8666333,-0.1667907 4.0354466,-0.4275622 4.0354466,-0.4275622 4.0400574,-0.4333967 4.0456123,-0.4383276 4.0523125,-0.441553 4.0596685,-0.4425619 4.0596685,-0.4425619 4.0645771,-0.4421799 4.0693199,-0.4408675 4.0735729,-0.4383943 4.0769983,-0.4348656 4.0794086,-0.4305745 4.0809281,-0.4258906 4.0820839,-0.4161232 4.0820839,-0.0930198 4.0820839,-0.0930198 4.0812783,-0.0825399 4.0798965,-0.0774709 4.0775404,-0.0727656 4.073994,-0.0689009 4.0694564,-0.0662516 4.0643497,-0.0650126 4.0590938,-0.0648665 4.0590938,-0.0648665 4.0535297,-0.0651608 4.0481188,-0.0664779 4.0432847,-0.0692259 4.0396482,-0.0734384 4.0373994,-0.0785277 4.0361872,-0.0839719 4.0354468,-0.0950821z" transform="matrix(1,0,0,-1,7.223125,3.2393555)" fill="rgb(104,104,104)" fill-rule="nonzero" shaper:cutDepth="0.0000762" stroke-linecap="round" stroke-linejoin="round" /><path d="M4.271917,-0.0596116 L4.271917,-0.0596116 4.282095,-0.0601421 4.2921747,-0.0616558 4.3020776,-0.0640648 4.3117397,-0.0673108 4.3211173,-0.0713034 4.3301474,-0.0760308 4.3387676,-0.0814688 4.3469634,-0.0875282 4.3469634,-0.0875282 4.3552284,-0.0951274 4.3627097,-0.1035053 4.3693952,-0.1125227 4.375401,-0.1220151 4.380584,-0.1319742 4.3851651,-0.1422279 4.3890461,-0.1527659 4.3923475,-0.1634994 4.3973041,-0.1854013 4.4004874,-0.2076335 4.40214,-0.2300308 4.4026324,-0.2524826 4.4026324,-0.2524826 4.4021305,-0.2736906 4.4005444,-0.2948407 4.397572,-0.3158482 4.3929438,-0.3365455 4.3864321,-0.3567374 4.3823779,-0.3665386 4.3777012,-0.3760606 4.3723997,-0.3852587 4.3664393,-0.3940391 4.3526288,-0.4101294 4.3526288,-0.4101294 4.3442807,-0.4172518 4.3352692,-0.4235137 4.325755,-0.4289825 4.3157726,-0.4335395 4.3054573,-0.4372853 4.2948476,-0.4400852 4.2840164,-0.4418505 4.2730665,-0.4425619 4.2730665,-0.4425619 4.2593731,-0.441433 4.2458992,-0.4387381 4.232826,-0.4345091 4.2202533,-0.4289643 4.2082641,-0.4222504 4.1969892,-0.4143979 4.1865837,-0.4054229 4.1773289,-0.3952679 4.1773289,-0.3952679 4.1669521,-0.3787525 4.1587694,-0.3610367 4.1523581,-0.3426108 4.14764,-0.3236809 4.1443554,-0.3044454 4.142126,-0.2850617 4.140943,-0.2655864 4.1405446,-0.2460782 4.1405446,-0.2460782 4.1410898,-0.2262501 4.1426493,-0.2064777 4.1455471,-0.1868549 4.1498128,-0.1674844 4.1556564,-0.1485289 4.1634526,-0.1302971 4.168129,-0.1215413 4.173365,-0.1131134 4.1855397,-0.0974632 4.1855397,-0.0974632 4.1944685,-0.0893522 4.2040951,-0.0820831 4.2143862,-0.0757896 4.2251683,-0.0703791 4.2364008,-0.065982 4.2479706,-0.0625676 4.2598417,-0.0604247 4.2718763,-0.0596117 4.271917,-0.0596116z M4.3559952,-0.2496088 L4.3559952,-0.2496088 4.3557028,-0.2329017 4.3545438,-0.2162383 4.3523614,-0.1996683 4.3489406,-0.1833196 4.3440213,-0.1673476 4.3373159,-0.152055 4.3331814,-0.144785 4.328498,-0.1378588 4.3174046,-0.1253799 4.3174046,-0.1253799 4.3073726,-0.1177879 4.2962582,-0.1118911 4.2843584,-0.1078313 4.2718955,-0.1062499 4.2718955,-0.1062499 4.2647448,-0.1069089 4.2577016,-0.1082269 4.2508482,-0.1103323 4.2442086,-0.113095 4.2378077,-0.1163655 4.2317334,-0.1201735 4.2207639,-0.1294031 4.2207639,-0.1294031 4.2110487,-0.1416763 4.2035326,-0.1554227 4.1978812,-0.1700257 4.1936823,-0.1851188 4.1906636,-0.2004873 4.1886653,-0.2160258 4.1875712,-0.2316497 4.1871818,-0.2473098 4.1871818,-0.2473098 4.1882258,-0.2777228 4.1897706,-0.2928615 4.1921351,-0.3078952 4.1955217,-0.3227298 4.2002243,-0.3372003 4.2064813,-0.3510724 4.2145237,-0.3639848 4.2145237,-0.3639848 4.2198566,-0.3705996 4.225862,-0.3766086 4.2324639,-0.3819581 4.2396048,-0.3865607 4.2471918,-0.3903866 4.2551657,-0.3933162 4.2634541,-0.3951855 4.271917,-0.3959247 4.271917,-0.3959247 4.2793269,-0.3953515 4.2866,-0.393804 4.293675,-0.3915305 4.3004711,-0.3885131 4.3069976,-0.3849562 4.3131429,-0.380772 4.3189242,-0.3760993 4.3242196,-0.3708819 4.3242196,-0.3708819 4.3335818,-0.3579348 4.3408409,-0.3436855 4.3463511,-0.3286842 4.350331,-0.3131991 4.3530894,-0.2974519 4.3548136,-0.2815571 4.3559952,-0.2496088z" transform="matrix(1,0,0,-1,7.223125,3.2393555)" fill="rgb(104,104,104)" fill-rule="nonzero" shaper:cutDepth="0.0000762" stroke-linecap="round" stroke-linejoin="round" /><path d="M4.7060204,-0.4001122 L4.7060204,-0.4001122 4.7082373,-0.4029039 4.7082373,-0.4029039 4.7127766,-0.4099201 4.7139997,-0.4139258 4.7143954,-0.4180938 4.7143954,-0.4180938 4.7139303,-0.4226334 4.7125367,-0.4269766 4.7102845,-0.4309434 4.7072444,-0.4343458 4.7035903,-0.4370759 4.6994601,-0.4390163 4.6950456,-0.4401624 4.690502,-0.4405913 4.690502,-0.4405913 4.6839104,-0.4399407 4.680748,-0.4389059 4.6778858,-0.4372408 4.6729799,-0.4327971 4.6688098,-0.4276517 4.5632329,-0.2849152 4.5129852,-0.2849152 4.5129852,-0.4118536 4.5129852,-0.4118536 4.5122218,-0.4228647 4.5109421,-0.428231 4.508764,-0.4333113 4.505373,-0.4376489 4.5007946,-0.4407251 4.4955087,-0.4423021 4.489995,-0.4425619 4.489995,-0.4425619 4.482297,-0.4414634 4.478663,-0.4400547 4.4752987,-0.4380899 4.4722862,-0.4356157 4.4698455,-0.4325809 4.4680087,-0.4291436 4.4669228,-0.4254014 4.4669228,-0.4254014 4.4663618,-0.4175512 4.4663479,-0.4096701 4.466348,-0.0975453 4.466348,-0.0975453 4.4663646,-0.0905818 4.4673828,-0.0836955 4.4699549,-0.0772298 4.4743066,-0.0718067 4.4801481,-0.0680315 4.4867642,-0.0658566 4.4936603,-0.0649241 4.5006253,-0.0648666 4.596735,-0.0648665 4.596735,-0.0648665 4.607855,-0.0654068 4.6189097,-0.0666997 4.629851,-0.0687676 4.6405516,-0.071828 4.6509093,-0.0759097 4.6608192,-0.0809792 4.6701431,-0.0870606 4.6787558,-0.0941118 4.6866157,-0.1019953 4.6935712,-0.1106853 4.6994844,-0.1201161 4.7042353,-0.1301828 4.7079167,-0.1406875 4.7104837,-0.1515199 4.7120062,-0.1625466 4.7126711,-0.1736592 4.7126711,-0.1736592 4.7122355,-0.1833995 4.7111381,-0.1930871 4.7092226,-0.202647 4.7065172,-0.2120137 4.7030469,-0.2211246 4.6987307,-0.2298669 4.6935257,-0.2381103 4.6876398,-0.2458827 4.6810924,-0.2531067 4.6738512,-0.2596347 4.6660217,-0.2654445 4.6577033,-0.2705289 4.6489387,-0.2747997 4.6398407,-0.2783047 4.6304942,-0.2810789 4.620989,-0.2832496 4.7060204,-0.4001122z M4.5129852,-0.1115038 L4.5129852,-0.238278 4.594436,-0.238278 4.594436,-0.238278 4.6037775,-0.2381503 4.6130806,-0.23736 4.6222229,-0.2354563 4.6308097,-0.2317914 4.6308097,-0.2317914 4.6384769,-0.2273096 4.6454256,-0.2217798 4.6515158,-0.2153167 4.6566536,-0.2080727 4.6607219,-0.2001786 4.6636644,-0.1917992 4.6654193,-0.1830942 4.6660339,-0.1742339 4.6660339,-0.1742339 4.6653249,-0.1652532 4.6633858,-0.1564568 4.6602314,-0.1480189 4.6559244,-0.140107 4.6505361,-0.1328878 4.6441785,-0.1265063 4.6369928,-0.1210742 4.6290855,-0.1167585 4.6290855,-0.1167585 4.6217875,-0.1138983 4.6141217,-0.112258 4.5984641,-0.1115038 4.5129852,-0.1115038z" transform="matrix(1,0,0,-1,7.223125,3.2393555)" fill="rgb(104,104,104)" fill-rule="nonzero" shaper:cutDepth="0.0000762" stroke-linecap="round" stroke-linejoin="round" /><path d="M5.009901,-0.0798101 L4.9126816,-0.2431515 4.8155469,-0.0819709 4.8155469,-0.0819709 4.811927,-0.0761102 4.8076289,-0.0707278 4.8049167,-0.0685821 4.8018283,-0.0670209 4.7950251,-0.066016 4.7950251,-0.066016 4.7895549,-0.0663057 4.78426,-0.0676942 4.7795308,-0.0704349 4.7758667,-0.0745106 4.77337,-0.0793704 4.7719439,-0.0846688 4.7711318,-0.0955748 4.7711317,-0.4117101 4.7711317,-0.4117101 4.771886,-0.4227168 4.773151,-0.4280876 4.7753286,-0.433159 4.7786363,-0.437572 4.7831697,-0.4406946 4.7884463,-0.4423019 4.7939577,-0.4425619 4.7939577,-0.4425619 4.8004943,-0.4416671 4.8066099,-0.4392299 4.8119631,-0.4353501 4.8155521,-0.4298352 4.8155521,-0.4298352 4.8168658,-0.4257248 4.8175572,-0.4214688 4.817769,-0.4128389 4.817769,-0.1773172 4.888243,-0.2953649 4.888243,-0.2953649 4.8925214,-0.3018855 4.8976444,-0.3077574 4.90082,-0.3100303 4.9044415,-0.3115229 4.9121928,-0.3123391 4.9121928,-0.3123391 4.9165749,-0.3122297 4.9208706,-0.3114264 4.9248568,-0.3095859 4.92816,-0.3067272 4.933591,-0.2998621 4.9383031,-0.292469 5.0076018,-0.1773172 5.0076018,-0.4139803 5.0076018,-0.4139803 5.0078433,-0.422552 5.0093263,-0.4309847 5.0093263,-0.4309847 5.0132923,-0.4360976 5.0186672,-0.4397157 5.0248261,-0.4417031 5.031249,-0.4425619 5.031249,-0.4425619 5.0361235,-0.442117 5.040855,-0.4408701 5.045153,-0.4385342 5.0486984,-0.4351676 5.051247,-0.4309909 5.0528955,-0.4263811 5.0542392,-0.416698 5.0542391,-0.0895468 5.0542391,-0.0895468 5.0535489,-0.0799736 5.0522244,-0.075342 5.0498012,-0.0712036 5.0462786,-0.0679332 5.041921,-0.0659093 5.0372072,-0.0649783 5.0323985,-0.0648665 5.0323985,-0.0648665 5.0252925,-0.065616 5.0219347,-0.0668717 5.0188966,-0.0687725 5.013971,-0.0739388 5.009901,-0.0798101z" transform="matrix(1,0,0,-1,7.223125,3.2393555)" fill="rgb(104,104,104)" fill-rule="nonzero" shaper:cutDepth="0.0000762" stroke-linecap="round" stroke-linejoin="round" /><path d="M3.9204734,0.0571583 L3.9204734,0.0571583 3.9232446,0.0536688 3.9232446,0.0536688 3.9263835,0.049478 3.9289187,0.0448985 3.9304476,0.0398914 3.9309422,0.0346814 3.9309422,0.0346814 3.9303608,0.0290069 3.9286188,0.023578 3.9258036,0.0186194 3.9220035,0.0143664 3.9174358,0.0109538 3.9122731,0.0085283 3.9067549,0.0070956 3.9010755,0.0065595 3.9010755,0.0065595 3.892836,0.0073728 3.888883,0.0086663 3.8853052,0.0107477 3.8791729,0.0163022 3.8739602,0.0227341 3.7419891,0.2011546 3.6791794,0.2011546 3.6791794,0.0424816 3.6791794,0.0424816 3.6782251,0.0287178 3.6766256,0.0220099 3.6739029,0.0156595 3.6696642,0.0102375 3.6639412,0.0063923 3.6573338,0.004421 3.6504417,0.0040962 3.6504417,0.0040962 3.6455832,0.0044565 3.6408192,0.0054694 3.6362767,0.0072303 3.6320714,0.0096863 3.6283057,0.012779 3.6252548,0.0165725 3.6229588,0.0208692 3.6216014,0.0255469 3.6216014,0.0255469 3.6209002,0.0353597 3.6208829,0.045211 3.620883,0.435367 3.620883,0.435367 3.6209037,0.4440714 3.6221764,0.4526793 3.6253916,0.4607614 3.6278375,0.464372 3.6308312,0.4675402 3.6343058,0.4701745 3.638133,0.4722593 3.6464032,0.4749779 3.6550233,0.4761435 3.6637296,0.4762154 3.7838667,0.4762155 3.7838667,0.4762155 3.7977667,0.4755402 3.811585,0.473924 3.8252616,0.4713391 3.8386374,0.4675136 3.8515846,0.4624115 3.863972,0.4560747 3.8756268,0.4484729 3.8863927,0.4396588 3.8962175,0.4298046 3.904912,0.418942 3.9123034,0.4071535 3.9182421,0.3945702 3.9228438,0.3814392 3.9260525,0.3678988 3.9279556,0.3541154 3.9287868,0.3402247 3.9287868,0.3402247 3.9282423,0.3280493 3.9268705,0.3159398 3.9244762,0.3039899 3.9210945,0.2922816 3.9167565,0.2808928 3.9113613,0.2699651 3.904855,0.2596608 3.8974977,0.2499452 3.8893135,0.2409153 3.8802619,0.2327553 3.8704751,0.2254931 3.860077,0.2191375 3.8491214,0.213799 3.8377488,0.2094178 3.8260657,0.2059501 3.8141842,0.2032366 3.9204734,0.0571583z M3.6791794,0.4179189 L3.6791794,0.2594512 3.780993,0.2594512 3.780993,0.2594512 3.7926698,0.2596108 3.8042987,0.2605986 3.8157266,0.2629783 3.8264601,0.2675593 3.8264601,0.2675593 3.8360441,0.2731616 3.84473,0.2800739 3.8523427,0.2881528 3.858765,0.2972077 3.8638503,0.3070754 3.8675284,0.3175497 3.869722,0.3284309 3.8704904,0.3395062 3.8704904,0.3395062 3.8696041,0.3507322 3.8671802,0.3617277 3.8632372,0.372275 3.8578535,0.3821649 3.8511181,0.3911889 3.8431711,0.3991658 3.834189,0.4059559 3.8243048,0.4113505 3.8243048,0.4113505 3.8151824,0.4149258 3.8056,0.4169761 3.7860281,0.4179189 3.6791794,0.4179189z" transform="matrix(1,0,0,-1,7.223125,3.2393555)" fill="rgb(104,104,104)" fill-rule="nonzero" shaper:cutDepth="0.0000762" stroke-linecap="round" stroke-linejoin="round" /><path d="M4.4102459,0.214292 L4.4616657,0.2142919 4.4616657,0.1404954 4.4616657,0.1404954 4.4614165,0.1298506 4.4603787,0.1192588 4.4580053,0.1088789 4.4539683,0.0990333 4.4539683,0.0990333 4.4487275,0.0906719 4.4422594,0.0832175 4.4347876,0.0767754 4.4264111,0.0715528 4.4174311,0.0674674 4.4079604,0.0646824 4.3982349,0.0630193 4.3883847,0.0623927 4.3883847,0.0623927 4.3768159,0.0629223 4.3653826,0.0647675 4.354266,0.0680089 4.3436529,0.0726463 4.3336656,0.0785048 4.32441,0.0854707 4.3158465,0.0932643 4.3080218,0.1018044 4.3080218,0.1018044 4.2966864,0.1168378 4.2866511,0.1327688 4.2781543,0.149571 4.2710042,0.166989 4.2651982,0.1849004 4.2609406,0.2032403 4.2581816,0.2218661 4.2572177,0.2406691 4.2572177,0.2406691 4.2578164,0.2555172 4.2595062,0.2702808 4.2623247,0.2848713 4.2662109,0.2992143 4.2711558,0.3132274 4.2771532,0.3268234 4.2843388,0.3398305 4.292524,0.3522329 4.292524,0.3522329 4.3007362,0.3649731 4.3098374,0.377089 4.3200504,0.3882904 4.3314381,0.3982906 4.3440998,0.4066153 4.3508736,0.4100207 4.3578991,0.4128708 4.3651464,0.4151206 4.3725648,0.4166905 4.3876663,0.4179191 4.3876663,0.4179191 4.3990086,0.4171649 4.4101079,0.4146878 4.4206755,0.4105127 4.4304387,0.4046824 4.4393962,0.3976818 4.4476713,0.3898788 4.4553015,0.3814522 4.4623843,0.3725546 4.4623843,0.3725546 4.4682065,0.3652084 4.4746105,0.35837 4.4782588,0.3554261 4.4823573,0.3530936 4.4868371,0.3518231 4.4915325,0.3514118 4.4915325,0.3514118 4.4975076,0.3522891 4.5031307,0.3544979 4.5081594,0.3578388 4.5124139,0.362129 4.5158954,0.3670668 4.5185329,0.3725 4.5200395,0.3783505 4.5206808,0.3843576 4.5206808,0.3843576 4.5201784,0.3899013 4.5189925,0.3953106 4.5168936,0.4004699 4.514156,0.4053052 4.5076864,0.4143271 4.5005644,0.4228455 4.5005644,0.4228455 4.4888512,0.434175 4.4763042,0.4445685 4.4628741,0.4537998 4.4485848,0.4616264 4.4335718,0.4679637 4.4179381,0.4725472 4.4018832,0.4753357 4.3856136,0.4762155 4.3856136,0.4762155 4.3736652,0.4756904 4.361805,0.4741461 4.3500829,0.4717727 4.338586,0.4684756 4.3273468,0.4643857 4.3164365,0.459486 4.3059855,0.4536705 4.2960136,0.4470673 4.2960136,0.4470673 4.2846877,0.4375363 4.2739979,0.4272962 4.2639702,0.4164079 4.2546437,0.4049126 4.24604,0.3928671 4.2381624,0.3803343 4.2309772,0.3673923 4.2244985,0.3540823 4.2187237,0.3404524 4.2136486,0.3265465 4.2092313,0.3124182 4.2056198,0.2980626 4.2028125,0.2835283 4.2007058,0.2688761 4.1994179,0.2541294 4.1989212,0.2393348 4.1989212,0.2393348 4.1999564,0.2170549 4.2027478,0.1949262 4.2072969,0.1730912 4.2135946,0.1516946 4.2216058,0.1308789 4.2311503,0.1107202 4.2424169,0.0914711 4.255165,0.0731694 4.255165,0.0731694 4.2673777,0.0586405 4.2808275,0.0452559 4.2955421,0.0332676 4.3114647,0.0229423 4.3198823,0.0185561 4.3285699,0.0147285 4.3374799,0.0114516 4.3465815,0.0087546 4.3558494,0.0066845 4.3652366,0.005277 4.3841767,0.0040962 4.3841767,0.0040962 4.401441,0.0051578 4.4184637,0.0082104 4.4350662,0.013064 4.4510251,0.0197296 4.4661832,0.028062 4.4802707,0.0380931 4.4868286,0.0437449 4.4929718,0.0498341 4.504054,0.0631112 4.504054,0.0631112 4.5117036,0.07658 4.5146363,0.0837508 4.5168989,0.0911721 4.5184529,0.0987553 4.5193595,0.1064514 4.5199623,0.1219208 4.5199622,0.2330295 4.5199622,0.2330295 4.5198812,0.2411832 4.519006,0.2492903 4.5167089,0.2571087 4.514846,0.2607498 4.5124021,0.2640191 4.5093374,0.2667099 4.5058278,0.2688134 4.4981289,0.271477 4.4900384,0.272499 4.4818849,0.2725884 4.4130253,0.2725884 4.4130253,0.2725884 4.4012422,0.2723951 4.3953873,0.2717195 4.3898216,0.2698173 4.3898216,0.2698173 4.3824022,0.2656382 4.3792355,0.262808 4.3765358,0.2594757 4.3743226,0.2557975 4.3727401,0.2518516 4.37145,0.2434402 4.37145,0.2434402 4.3724001,0.2364026 4.3747264,0.2296948 4.3788568,0.2239216 4.3841767,0.2192184 4.3841767,0.2192184 4.3900702,0.2159583 4.3967317,0.2147589 4.4102459,0.214292z" transform="matrix(1,0,0,-1,7.223125,3.2393555)" fill="rgb(104,104,104)" fill-rule="nonzero" shaper:cutDepth="0.0000762" stroke-linecap="round" stroke-linejoin="round" /><path d="M4.6579033,0.2988629 L4.8210923,0.2988629 4.8210923,0.2988629 4.8278144,0.2987045 4.8344749,0.2978381 4.8409435,0.2959953 4.8469197,0.2929346 4.8519103,0.2884369 4.8552426,0.2826121 4.8569645,0.2761196 4.8573223,0.2694068 4.8573223,0.2694068 4.8570113,0.2624051 4.8550201,0.2556916 4.8510741,0.2499079 4.8455281,0.2456463 4.8390505,0.242959 4.8322168,0.2414004 4.8182326,0.2405663 4.6579033,0.2405663 4.6579033,0.0623927 4.8842126,0.0623927 4.8842126,0.0623927 4.8939463,0.0623494 4.89879,0.0618617 4.9034053,0.06034 4.9034053,0.06034 4.9112465,0.0561463 4.9146289,0.0532561 4.9174564,0.049793 4.9196405,0.0458976 4.921145,0.0417124 4.922598,0.0329366 4.922598,0.0329366 4.9222384,0.0256245 4.9213566,0.0220635 4.9198955,0.0186965 4.9178894,0.0156257 4.9154077,0.012922 4.9093371,0.0088503 4.9024575,0.0063289 4.8952799,0.0048736 4.8806617,0.0040962 4.6368632,0.0040962 4.6368632,0.0040962 4.6288468,0.004177 4.6209032,0.0052046 4.6132789,0.0076755 4.6097935,0.0096693 4.6067334,0.0122673 4.6042673,0.0154379 4.6024426,0.0190115 4.6003174,0.026745 4.5995126,0.0347112 4.5996067,0.0427286 4.5996068,0.4383434 4.5996068,0.4383434 4.5996872,0.446383 4.6007298,0.4543465 4.6031789,0.4620028 4.6051671,0.4655066 4.6077749,0.4685717 4.6109601,0.4710305 4.6145253,0.4729098 4.6222153,0.4752344 4.6302014,0.4761337 4.638239,0.4762154 4.8835968,0.4762155 4.8835968,0.4762155 4.8968053,0.4751864 4.903199,0.4734463 4.9091357,0.4704972 4.9141102,0.4661286 4.9175572,0.4604767 4.9193366,0.454095 4.9197242,0.4474778 4.9197242,0.4474778 4.919322,0.4404495 4.9172916,0.4337124 4.9134332,0.4278409 4.9079482,0.4234319 4.9015335,0.4205462 4.8946945,0.418849 4.8877037,0.4180603 4.8806617,0.4179189 4.6579033,0.4179189 4.6579033,0.2988629z" transform="matrix(1,0,0,-1,7.223125,3.2393555)" fill="rgb(104,104,104)" fill-rule="nonzero" shaper:cutDepth="0.0000762" stroke-linecap="round" stroke-linejoin="round" /><path d="M5.263037,0.438446 L5.2630368,0.1322155 5.0513209,0.4560354 5.0513209,0.4560354 5.0456684,0.4636874 5.038929,0.4704 5.0349432,0.4730231 5.0305418,0.4748788 5.0211272,0.4762155 5.0211272,0.4762155 5.0129617,0.4749513 5.0090966,0.4735382 5.0054384,0.4715585 5.0020391,0.4691267 4.9991319,0.4662041 4.9951607,0.4589729 4.9951607,0.4589729 4.9940851,0.4542434 4.9937713,0.449392 4.9937238,0.4396776 4.9937237,0.0421464 4.9937237,0.0421464 4.9939924,0.0301907 4.9947907,0.0242619 4.9965975,0.0185677 4.9965975,0.0185677 5.0013794,0.0124495 5.007576,0.0077711 5.0148584,0.0050867 5.0225641,0.0040962 5.0225641,0.0040962 5.0288831,0.0046547 5.0350013,0.0063203 5.0405379,0.0094052 5.0450595,0.0138499 5.0483008,0.019293 5.0503322,0.0253088 5.0515002,0.0315389 5.0520202,0.037863 5.0520202,0.3488103 5.2630368,0.0228459 5.2630368,0.0228459 5.2688003,0.0155528 5.2757439,0.0093892 5.2797775,0.007035 5.2841192,0.0053574 5.2933143,0.0040962 5.2933143,0.0040962 5.29945,0.0045737 5.3053784,0.0062142 5.3106947,0.0093058 5.3149765,0.0137166 5.3179893,0.0190805 5.3198887,0.0249354 5.3213335,0.0371446 5.3213334,0.4410239 5.3213334,0.4410239 5.3203265,0.4541237 5.3185993,0.4604601 5.3156541,0.4663416 5.311221,0.4711725 5.3055491,0.4744842 5.2991657,0.4760329 5.2925958,0.4762155 5.2925958,0.4762155 5.2856406,0.4758477 5.2788771,0.4742013 5.2728345,0.4707663 5.2682888,0.4655006 5.2654778,0.4591391 5.2639626,0.4523338 5.263037,0.438446z" transform="matrix(1,0,0,-1,7.223125,3.2393555)" fill="rgb(104,104,104)" fill-rule="nonzero" shaper:cutDepth="0.0000762" stroke-linecap="round" stroke-linejoin="round" /><path d="M-0.5989757,0.4762155 L-0.5989757,0.4762155 -0.5868588,0.4755 -0.574812,0.4740084 -0.5629592,0.4713992 -0.551368,0.4677914 -0.5402004,0.4630408 -0.5295561,0.4572061 -0.5195675,0.4503112 -0.5103339,0.4424332 -0.5019151,0.4336896 -0.4944415,0.4241261 -0.4880382,0.4138154 -0.4827847,0.4028739 -0.4787095,0.3914413 -0.4758596,0.3796424 -0.4741118,0.3676317 -0.4733509,0.3555172 -0.4733509,0.3555172 -0.4739429,0.3413947 -0.4763117,0.3274609 -0.4804236,0.3139387 -0.4863393,0.3011034 -0.4940147,0.2892342 -0.5030772,0.2783881 -0.5133902,0.2687226 -0.5245656,0.260067 -0.5245656,0.260067 -0.5134647,0.2487804 -0.5031471,0.2367761 -0.4939756,0.2238721 -0.4862599,0.2100524 -0.480283,0.1953946 -0.4762804,0.1800814 -0.4739502,0.1644246 -0.4733509,0.1486058 -0.4733509,0.1486058 -0.4738072,0.1373114 -0.4750082,0.1260728 -0.4770255,0.1149502 -0.4799026,0.1040202 -0.483535,0.0933159 -0.4880261,0.0829439 -0.4933743,0.072986 -0.4995329,0.0635082 -0.5064291,0.0545526 -0.5140086,0.0461676 -0.5222466,0.0384286 -0.5311386,0.0314507 -0.5405597,0.0252059 -0.5504739,0.0197769 -0.5607752,0.0151252 -0.571367,0.011178 -0.571367,0.011178 -0.5848737,0.0074342 -0.598711,0.0052219 -0.6126939,0.0042849 -0.62671,0.0040962 -0.7578541,0.0040962 -0.7578541,0.0040962 -0.7656593,0.0039997 -0.7733841,0.005039 -0.7807637,0.0075757 -0.7841396,0.0095446 -0.7871473,0.0120408 -0.7896606,0.0150317 -0.7916525,0.0183963 -0.7941773,0.0257746 -0.7950602,0.0335235 -0.794843,0.0413237 -0.7948026,0.4403961 -0.7948026,0.4403961 -0.7946926,0.4478338 -0.7935919,0.4551929 -0.7908765,0.4621097 -0.7864875,0.4681091 -0.7804239,0.4724056 -0.7734549,0.474996 -0.7661016,0.4761098 -0.7586625,0.4762154 -0.5989757,0.4762155z M-0.735961,0.2339977 L-0.735961,0.0623927 -0.6274055,0.0623927 -0.6274055,0.0623927 -0.6137096,0.0627322 -0.6000722,0.0640531 -0.5867253,0.0671535 -0.5741381,0.0725535 -0.5741381,0.0725535 -0.5649,0.0790203 -0.5566279,0.0866842 -0.5493242,0.0952749 -0.5432388,0.1047694 -0.5382922,0.1149031 -0.5346788,0.1255852 -0.5324502,0.136639 -0.5316474,0.1478874 -0.5316474,0.1478874 -0.5327308,0.1611362 -0.5358571,0.1740534 -0.540751,0.1864131 -0.547552,0.1978316 -0.5558092,0.2082516 -0.5657045,0.2171212 -0.5768225,0.2244071 -0.5890201,0.2296872 -0.5890201,0.2296872 -0.5967625,0.2321702 -0.604781,0.2335224 -0.6210346,0.2339977 -0.735961,0.2339977z M-0.730995,0.4179189 L-0.730995,0.2922943 -0.6040048,0.2922943 -0.6040048,0.2922943 -0.5854594,0.2931946 -0.5763333,0.2949702 -0.5677748,0.298555 -0.5677748,0.298555 -0.5600478,0.3029584 -0.5529282,0.3082872 -0.5466783,0.3146141 -0.5414334,0.3217961 -0.537205,0.3296199 -0.5340583,0.3379376 -0.5322435,0.3466436 -0.5316474,0.3555172 -0.5316474,0.3555172 -0.5326234,0.365967 -0.5351342,0.3761568 -0.5394975,0.3857005 -0.5453275,0.3944272 -0.5525766,0.4020161 -0.5610223,0.4082448 -0.5704444,0.412865 -0.5805015,0.4158664 -0.5805015,0.4158664 -0.5866152,0.417285 -0.5928706,0.4178358 -0.6054274,0.4179189 -0.730995,0.4179189z" transform="matrix(1,0,0,-1,7.223125,3.2393555)" fill="rgb(104,104,104)" fill-rule="nonzero" shaper:cutDepth="0.0000762" stroke-linecap="round" stroke-linejoin="round" /><path d="M-0.3177091,0.0829195 L-0.3403364,0.0242126 -0.3403364,0.0242126 -0.3449516,0.0159633 -0.3480034,0.0123397 -0.351582,0.00924 -0.3556654,0.0068431 -0.3601086,0.0052063 -0.3647519,0.0042803 -0.3694847,0.0040962 -0.3694847,0.0040962 -0.3751327,0.0045498 -0.3806447,0.0058569 -0.3858134,0.0081765 -0.390477,0.0113923 -0.3944789,0.0154022 -0.3974969,0.0201952 -0.3992952,0.0255655 -0.3999672,0.0311918 -0.3999672,0.0311918 -0.399484,0.0366136 -0.3979722,0.0418495 -0.3943267,0.0521175 -0.242423,0.4538412 -0.242423,0.4538412 -0.2381124,0.4627664 -0.2352396,0.466807 -0.2317831,0.4703651 -0.2277287,0.4732138 -0.223193,0.4752154 -0.2183356,0.4762046 -0.2133774,0.4762155 -0.2133774,0.4762155 -0.2073668,0.4759927 -0.2014799,0.4747477 -0.1960199,0.472264 -0.1914473,0.4683487 -0.187867,0.4635277 -0.184847,0.4583133 -0.1800813,0.4472806 -0.0267876,0.0473054 -0.0267876,0.0473054 -0.024862,0.039336 -0.0239139,0.0311918 -0.0239139,0.0311918 -0.0246253,0.0255801 -0.0264666,0.0202333 -0.0295678,0.0155028 -0.0335411,0.01148 -0.0382172,0.0082935 -0.0433635,0.0059498 -0.048869,0.0046467 -0.054499,0.0040962 -0.054499,0.0040962 -0.0596153,0.0042184 -0.0646074,0.0053412 -0.06926,0.0074733 -0.0734101,0.0104631 -0.0768872,0.0142192 -0.0797873,0.0184395 -0.0843093,0.027614 -0.1048826,0.0829195 -0.3177091,0.0829195z M-0.295717,0.1412161 L-0.1282935,0.1412161 -0.2120053,0.3628241 -0.295717,0.1412161z" transform="matrix(1,0,0,-1,7.223125,3.2393555)" fill="rgb(104,104,104)" fill-rule="nonzero" shaper:cutDepth="0.0000762" stroke-linecap="round" stroke-linejoin="round" /><path d="M0.2360597,0.040121 L0.2360597,0.040121 0.2358404,0.0295214 0.2350304,0.0242897 0.2332885,0.0192862 0.2332885,0.0192862 0.2286376,0.0127848 0.2256882,0.0100848 0.2223274,0.007879 0.2148509,0.0050689 0.2069114,0.0040962 0.2069114,0.0040962 0.1976845,0.0055089 0.1933642,0.0072309 0.1893216,0.009622 0.1856251,0.012477 0.1825323,0.0159616 0.1800986,0.0199418 0.1784816,0.0243153 0.1784816,0.0243153 0.1777905,0.0339469 0.1777631,0.0436104 0.1777631,0.4179189 0.0820051,0.4179191 0.0820051,0.4179191 0.07514,0.4182518 0.0683432,0.4192307 0.0617362,0.4211407 0.0556491,0.4243065 0.0505191,0.4288813 0.0470219,0.43478 0.0450146,0.4413483 0.0444408,0.4481963 0.0444408,0.4481963 0.0450244,0.4552718 0.0459252,0.4587154 0.0473927,0.4619519 0.0518677,0.4674583 0.0577736,0.4713811 0.0644336,0.4738459 0.0713763,0.4753599 0.0784347,0.4760873 0.0855382,0.4762154 0.3332546,0.4762155 0.3332546,0.4762155 0.3400328,0.4758725 0.3467474,0.4748911 0.3532391,0.4729188 0.3592444,0.4697554 0.3642031,0.4651389 0.3676812,0.4593173 0.3695408,0.4527945 0.3702031,0.446041 0.3702031,0.446041 0.3695586,0.4392077 0.3673895,0.4327054 0.3633099,0.4271865 0.3578342,0.423074 0.3514961,0.4204232 0.3448115,0.418872 0.3311222,0.4179189 0.2360597,0.4179189 0.2360597,0.040121z" transform="matrix(1,0,0,-1,7.223125,3.2393555)" fill="rgb(104,104,104)" fill-rule="nonzero" shaper:cutDepth="0.0000762" stroke-linecap="round" stroke-linejoin="round" /><path d="M0.6367452,0.040121 L0.6367452,0.040121 0.636526,0.0295214 0.635716,0.0242897 0.6339741,0.0192862 0.6339741,0.0192862 0.6293232,0.0127848 0.6263738,0.0100848 0.623013,0.007879 0.6155365,0.0050689 0.607597,0.0040962 0.607597,0.0040962 0.5983701,0.0055089 0.5940498,0.0072309 0.5900072,0.009622 0.5863107,0.012477 0.5832179,0.0159616 0.5807842,0.0199418 0.5791672,0.0243153 0.5791672,0.0243153 0.5784761,0.0339469 0.5784487,0.0436104 0.5784487,0.4179189 0.4826907,0.4179191 0.4826907,0.4179191 0.4758256,0.4182518 0.4690288,0.4192307 0.4624218,0.4211407 0.4563347,0.4243065 0.4512047,0.4288813 0.4477075,0.43478 0.4457002,0.4413483 0.4451264,0.4481963 0.4451264,0.4481963 0.44571,0.4552718 0.4466107,0.4587154 0.4480783,0.4619519 0.4525533,0.4674583 0.4584592,0.4713811 0.4651192,0.4738459 0.4720619,0.4753599 0.4791203,0.4760873 0.4862238,0.4762154 0.7339402,0.4762155 0.7339402,0.4762155 0.7407184,0.4758725 0.747433,0.4748911 0.7539247,0.4729188 0.75993,0.4697554 0.7648887,0.4651389 0.7683668,0.4593173 0.7702264,0.4527945 0.7708887,0.446041 0.7708887,0.446041 0.7702442,0.4392077 0.7680751,0.4327054 0.7639955,0.4271865 0.7585198,0.423074 0.7521817,0.4204232 0.7454971,0.418872 0.7318078,0.4179189 0.6367452,0.4179189 0.6367452,0.040121z" transform="matrix(1,0,0,-1,7.223125,3.2393555)" fill="rgb(104,104,104)" fill-rule="nonzero" shaper:cutDepth="0.0000762" stroke-linecap="round" stroke-linejoin="round" /><path d="M-6.8528688,2.1486683 L-6.6896798,2.1486683 -6.6896798,2.1486683 -6.6829577,2.1485099 -6.6762972,2.1476434 -6.6698286,2.1458007 -6.6638524,2.14274 -6.6588617,2.1382423 -6.6555295,2.1324175 -6.6538076,2.125925 -6.6534497,2.1192121 -6.6534497,2.1192121 -6.6537608,2.1122104 -6.655752,2.1054969 -6.659698,2.0997132 -6.665244,2.0954517 -6.6717216,2.0927643 -6.6785553,2.0912057 -6.6925395,2.0903717 -6.8528688,2.0903717 -6.8528688,1.9121981 -6.6265595,1.9121981 -6.6265595,1.9121981 -6.6168258,1.9121548 -6.6119821,1.911667 -6.6073668,1.9101454 -6.6073668,1.9101454 -6.5995255,1.9059517 -6.5961432,1.9030615 -6.5933157,1.8995983 -6.5911316,1.8957029 -6.589627,1.8915177 -6.5881741,1.8827419 -6.5881741,1.8827419 -6.5885337,1.8754299 -6.5894154,1.8718689 -6.5908765,1.8685019 -6.5928827,1.8654311 -6.5953644,1.8627274 -6.601435,1.8586557 -6.6083146,1.8561342 -6.6154922,1.854679 -6.6301104,1.8539016 -6.8739089,1.8539016 -6.8739089,1.8539016 -6.8819253,1.8539823 -6.8898689,1.85501 -6.8974932,1.8574808 -6.9009786,1.8594747 -6.9040387,1.8620726 -6.9065047,1.8652432 -6.9083294,1.8688169 -6.9104547,1.8765503 -6.9112595,1.8845165 -6.9111654,1.8925339 -6.9111653,2.2881487 -6.9111653,2.2881487 -6.9110849,2.2961883 -6.9100423,2.3041519 -6.9075932,2.3118082 -6.905605,2.315312 -6.9029972,2.318377 -6.899812,2.3208359 -6.8962468,2.3227151 -6.8885568,2.3250398 -6.8805706,2.325939 -6.8725331,2.3260208 -6.6271753,2.3260209 -6.6271753,2.3260209 -6.6139668,2.3249918 -6.6075731,2.3232517 -6.6016363,2.3203025 -6.5966619,2.315934 -6.5932149,2.310282 -6.5914355,2.3039003 -6.5910479,2.2972832 -6.5910479,2.2972832 -6.5914501,2.2902549 -6.5934805,2.2835178 -6.5973389,2.2776462 -6.6028239,2.2732373 -6.6092386,2.2703516 -6.6160776,2.2686543 -6.6230684,2.2678656 -6.6301104,2.2677242 -6.8528688,2.2677242 -6.8528688,2.1486683z" transform="matrix(1,0,0,-1,7.223125,3.2393555)" fill="rgb(104,104,104)" fill-rule="nonzero" shaper:cutDepth="0.0000762" stroke-linecap="round" stroke-linejoin="round" /><path d="M-6.6191698,1.3468295 L-6.8561531,1.3468295 -6.8561531,1.735519 -6.8561531,1.735519 -6.8573234,1.7470819 -6.858954,1.752669 -6.8616786,1.7577996 -6.8655638,1.7621284 -6.8705262,1.7651446 -6.8761186,1.7667332 -6.8819144,1.7672209 -6.8819144,1.7672209 -6.8876748,1.7667231 -6.8931998,1.7650301 -6.8980701,1.761919 -6.9019983,1.7576848 -6.904718,1.7525871 -6.9064579,1.7470671 -6.9074714,1.7413802 -6.907881,1.7356094 -6.9078811,1.3300371 -6.9078811,1.3300371 -6.9079484,1.3230903 -6.9070333,1.3162091 -6.9047498,1.3096498 -6.9008674,1.3039006 -6.8954979,1.2995112 -6.8890893,1.2968288 -6.8822836,1.2954733 -6.8753458,1.2951016 -6.6241722,1.2951016 -6.6241722,1.2951016 -6.6137823,1.2951105 -6.6085911,1.2953206 -6.6035693,1.2965385 -6.6035693,1.2965385 -6.596233,1.3002645 -6.5930188,1.3028348 -6.5902852,1.3059381 -6.5881258,1.3094635 -6.5866033,1.3132862 -6.5850951,1.3213761 -6.5850951,1.3213761 -6.5865113,1.329213 -6.5880235,1.332888 -6.5901174,1.336311 -6.5926823,1.3394077 -6.5957033,1.3419928 -6.6028509,1.3454952 -6.6028509,1.3454952 -6.6068373,1.3465009 -6.6109404,1.3468126 -6.6191698,1.3468295z" transform="matrix(1,0,0,-1,7.223125,3.2393555)" fill="rgb(104,104,104)" fill-rule="nonzero" shaper:cutDepth="0.0000762" stroke-linecap="round" stroke-linejoin="round" /><path d="M-6.8528688,1.0310683 L-6.6896798,1.0310683 -6.6896798,1.0310683 -6.6829577,1.0309099 -6.6762972,1.0300434 -6.6698286,1.0282007 -6.6638524,1.02514 -6.6588617,1.0206423 -6.6555295,1.0148175 -6.6538076,1.008325 -6.6534497,1.0016121 -6.6534497,1.0016121 -6.6537608,0.9946104 -6.655752,0.9878969 -6.659698,0.9821132 -6.665244,0.9778517 -6.6717216,0.9751643 -6.6785553,0.9736057 -6.6925395,0.9727717 -6.8528688,0.9727717 -6.8528688,0.7945981 -6.6265595,0.7945981 -6.6265595,0.7945981 -6.6168258,0.7945548 -6.6119821,0.794067 -6.6073668,0.7925454 -6.6073668,0.7925454 -6.5995255,0.7883517 -6.5961432,0.7854615 -6.5933157,0.7819983 -6.5911316,0.7781029 -6.589627,0.7739177 -6.5881741,0.7651419 -6.5881741,0.7651419 -6.5885337,0.7578299 -6.5894154,0.7542689 -6.5908765,0.7509019 -6.5928827,0.7478311 -6.5953644,0.7451274 -6.601435,0.7410557 -6.6083146,0.7385342 -6.6154922,0.737079 -6.6301104,0.7363016 -6.8739089,0.7363016 -6.8739089,0.7363016 -6.8819253,0.7363823 -6.8898689,0.73741 -6.8974932,0.7398808 -6.9009786,0.7418747 -6.9040387,0.7444726 -6.9065047,0.7476432 -6.9083294,0.7512169 -6.9104547,0.7589503 -6.9112595,0.7669165 -6.9111654,0.7749339 -6.9111653,1.1705487 -6.9111653,1.1705487 -6.9110849,1.1785883 -6.9100423,1.1865519 -6.9075932,1.1942082 -6.905605,1.197712 -6.9029972,1.200777 -6.899812,1.2032359 -6.8962468,1.2051151 -6.8885568,1.2074398 -6.8805706,1.208339 -6.8725331,1.2084208 -6.6271753,1.2084209 -6.6271753,1.2084209 -6.6139668,1.2073918 -6.6075731,1.2056517 -6.6016363,1.2027025 -6.5966619,1.198334 -6.5932149,1.192682 -6.5914355,1.1863003 -6.5910479,1.1796832 -6.5910479,1.1796832 -6.5914501,1.1726549 -6.5934805,1.1659178 -6.5973389,1.1600462 -6.6028239,1.1556373 -6.6092386,1.1527516 -6.6160776,1.1510543 -6.6230684,1.1502656 -6.6301104,1.1501242 -6.8528688,1.1501242 -6.8528688,1.0310683z" transform="matrix(1,0,0,-1,7.223125,3.2393555)" fill="rgb(104,104,104)" fill-rule="nonzero" shaper:cutDepth="0.0000762" stroke-linecap="round" stroke-linejoin="round" /><path d="M-6.7234466,0.6496209 L-6.7234913,0.6496208 -6.7234913,0.6496208 -6.7424972,0.6485065 -6.7519333,0.6472318 -6.7612717,0.6453519 -6.7795043,0.6398736 -6.7969498,0.6322542 -6.8132743,0.6224586 -6.8283678,0.6108528 -6.8421776,0.5977502 -6.8547163,0.5834216 -6.8547163,0.5834216 -6.8678488,0.5652052 -6.8796052,0.5460723 -6.8897621,0.5260439 -6.8983115,0.5052788 -6.9051996,0.4839047 -6.9102706,0.4620291 -6.9133831,0.4397892 -6.9144496,0.4173587 -6.9144496,0.4173587 -6.9135658,0.3946999 -6.9108833,0.3721844 -6.90656,0.349924 -6.9004255,0.3280945 -6.8925996,0.3068119 -6.8831163,0.2862153 -6.8718728,0.2665234 -6.8589243,0.247909 -6.8589243,0.247909 -6.8464489,0.2330259 -6.8327776,0.2192369 -6.8177419,0.2069478 -6.8014366,0.1964 -6.7928018,0.191955 -6.783883,0.1881035 -6.7747436,0.1848142 -6.7654182,0.1820967 -6.7559311,0.1799868 -6.7463252,0.1785603 -6.7269361,0.1775016 -6.7269361,0.1775016 -6.7108558,0.178402 -6.69494,0.1808617 -6.6793691,0.1849739 -6.6643863,0.1908815 -6.6500962,0.1983059 -6.636734,0.2072987 -6.6243167,0.217553 -6.6128064,0.2288189 -6.6128064,0.2288189 -6.6052703,0.2371622 -6.5982022,0.2459034 -6.5924115,0.2555517 -6.5907373,0.2608957 -6.5900215,0.2664858 -6.5900215,0.2664858 -6.5905235,0.2722287 -6.5918944,0.2778238 -6.5943251,0.2830502 -6.5977764,0.2876627 -6.6021028,0.2914692 -6.6071743,0.2942023 -6.612717,0.295775 -6.6184513,0.2963525 -6.6184513,0.2963525 -6.6262581,0.2956928 -6.6300431,0.2946584 -6.6336061,0.2930061 -6.6397171,0.288112 -6.6447258,0.2820863 -6.6447258,0.2820863 -6.6522166,0.272883 -6.6602801,0.2641806 -6.6690652,0.2562015 -6.6786275,0.2491792 -6.6889805,0.2433822 -6.7000269,0.2390618 -6.7116032,0.2364543 -6.7234466,0.2357981 -6.7234466,0.2357981 -6.7350598,0.2363223 -6.7465375,0.2381684 -6.7577175,0.2413501 -6.7684158,0.2459005 -6.7784681,0.2517346 -6.787769,0.2587142 -6.7964192,0.2664767 -6.8043226,0.2750045 -6.8043226,0.2750045 -6.8159575,0.2899793 -6.8261537,0.305969 -6.8349214,0.322784 -6.8422332,0.3402818 -6.8480567,0.3583294 -6.8524924,0.3767674 -6.8551044,0.3955503 -6.8561531,0.414485 -6.8561531,0.414485 -6.8553435,0.4295539 -6.8536981,0.4445518 -6.8510933,0.4594175 -6.8474941,0.4740701 -6.8428787,0.4884385 -6.8372037,0.5024191 -6.8304245,0.515901 -6.8226359,0.5288255 -6.8138589,0.5410993 -6.8040964,0.552607 -6.7933027,0.5631475 -6.7814009,0.5724267 -6.7684144,0.5800954 -6.7544824,0.5858889 -6.7398799,0.5896832 -6.7248834,0.5913244 -6.7248834,0.5913244 -6.7141848,0.5906573 -6.7036609,0.5886077 -6.6934755,0.5852752 -6.6838432,0.5805647 -6.6748244,0.5747731 -6.6664878,0.5680297 -6.6588399,0.5605191 -6.6518076,0.5524259 -6.6518076,0.5524259 -6.6455532,0.5446113 -6.6384767,0.537547 -6.6343922,0.5346476 -6.6298034,0.5325991 -6.6249118,0.5316359 -6.6198882,0.5313858 -6.6198882,0.5313858 -6.6140947,0.5320723 -6.6085342,0.5338322 -6.6034555,0.5367005 -6.5990517,0.5405265 -6.5954492,0.5451137 -6.5928512,0.5503371 -6.591295,0.5559573 -6.59074,0.5617657 -6.59074,0.5617657 -6.5915921,0.569298 -6.5944786,0.5763112 -6.5987776,0.5825674 -6.6035693,0.5884507 -6.6035693,0.5884507 -6.6153457,0.6012428 -6.6281139,0.6130357 -6.6418726,0.623673 -6.6567164,0.6327103 -6.6724501,0.640117 -6.6890044,0.645406 -6.7060923,0.6486156 -6.7234466,0.6496209z" transform="matrix(1,0,0,-1,7.223125,3.2393555)" fill="rgb(104,104,104)" fill-rule="nonzero" shaper:cutDepth="0.0000762" stroke-linecap="round" stroke-linejoin="round" /><path d="M-5.2324,-1.4102223 a0.7874,0.7874 0 1,0 1.5748,0 a0.7874,0.7874 0 1,0 -1.5748,0z M-5.1562,-1.4102223 a0.7112,0.7112 0 1,1 1.4224,0 a0.7112,0.7112 0 1,1 -1.4224,0z" transform="matrix(1,0,0,-1,7.223125,3.2393555)" fill="rgb(104,104,104)" fill-rule="nonzero" shaper:cutDepth="0.0000762" stroke-linecap="round" stroke-linejoin="round" /><path d="M-0.7874,-1.3920107 a0.7874,0.7874 0 1,0 1.5748,0 a0.7874,0.7874 0 1,0 -1.5748,0z M-0.7112,-1.3920107 a0.7112,0.7112 0 1,1 1.4224,0 a0.7112,0.7112 0 1,1 -1.4224,0z" transform="matrix(1,0,0,-1,7.223125,3.2393555)" fill="rgb(104,104,104)" fill-rule="nonzero" shaper:cutDepth="0.0000762" stroke-linecap="round" stroke-linejoin="round" /><path d="M3.6576,-1.3920107 a0.7874,0.7874 0 1,0 1.5748,0 a0.7874,0.7874 0 1,0 -1.5748,0z M3.7338,-1.3920107 a0.7112,0.7112 0 1,1 1.4224,0 a0.7112,0.7112 0 1,1 -1.4224,0z" transform="matrix(1,0,0,-1,7.223125,3.2393555)" fill="rgb(104,104,104)" fill-rule="nonzero" shaper:cutDepth="0.0000762" stroke-linecap="round" stroke-linejoin="round" /><path d="M3.81,-1.3920107 a0.635,0.635 0 1,1 1.27,0 a0.635,0.635 0 1,1 -1.27,0z" transform="matrix(1,0,0,-1,7.223125,3.2393555)" fill="rgb(255,255,255)" stroke="rgb(0,0,0)" stroke-width="0.0010cm" stroke-linecap="round" stroke-linejoin="round" shaper:cutDepth="0.0015875" /><path d="M-0.635,-1.3920107 a0.635,0.635 0 1,1 1.27,0 a0.635,0.635 0 1,1 -1.27,0z" transform="matrix(1,0,0,-1,7.223125,3.2393555)" fill="rgb(255,255,255)" stroke="rgb(0,0,0)" stroke-width="0.0010cm" stroke-linecap="round" stroke-linejoin="round" shaper:cutDepth="0.0015875" /><path d="M-5.08,-1.4102223 a0.635,0.635 0 1,1 1.27,0 a0.635,0.635 0 1,1 -1.27,0z" transform="matrix(1,0,0,-1,7.223125,3.2393555)" fill="rgb(255,255,255)" stroke="rgb(0,0,0)" stroke-width="0.0010cm" stroke-linecap="round" stroke-linejoin="round" shaper:cutDepth="0.0015875" /><path d="M-6.400165,-0.4903107 a0.215265,0.215265 0 1,1 0.43053,0 a0.215265,0.215265 0 1,1 -0.43053,0z" transform="matrix(1,0,0,-1,7.223125,3.2393555)" fill="rgb(255,255,255)" stroke="rgb(0,0,0)" stroke-width="0.0010cm" stroke-linecap="round" stroke-linejoin="round" shaper:cutDepth="0.0015875" /><path d="M-1.485265,1.2559393 a0.215265,0.215265 0 1,1 0.43053,0 a0.215265,0.215265 0 1,1 -0.43053,0z" transform="matrix(1,0,0,-1,7.223125,3.2393555)" fill="rgb(255,255,255)" stroke="rgb(0,0,0)" stroke-width="0.0010cm" stroke-linecap="round" stroke-linejoin="round" shaper:cutDepth="0.0015875" /><path d="M2.388235,-1.9190607 a0.215265,0.215265 0 1,1 0.43053,0 a0.215265,0.215265 0 1,1 -0.43053,0z" transform="matrix(1,0,0,-1,7.223125,3.2393555)" fill="rgb(255,255,255)" stroke="rgb(0,0,0)" stroke-width="0.0010cm" stroke-linecap="round" stroke-linejoin="round" shaper:cutDepth="0.0015875" /></svg>