<?xml version="1.0" encoding="utf-8"?>
<!-- Generator: Fusion 360, Shaper Origin Export Add-In, Version 1.6.10  -->
<svg xmlns="http://www.w3.org/2000/svg" xmlns:xlink="http://www.w3.org/1999/xlink" xmlns:shaper="http://www.shapertools.com/namespaces/shaper" shaper:fusionaddin="version:1.6.10" width="3.28422cm" height="3.28422cm" version="1.1" x="0cm" y="0cm" viewBox="0 0 3.28422 3.28422" enable-background="new 0 0 3.28422 3.28422" xml:space="preserve"><path d="M-1.051115,-0.2846082 a1.64211,1.64211 0 1,1 3.28422,0 a1.64211,1.64211 0 1,1 -3.28422,0z" transform="matrix(1,0,0,-1,1.051115,1.3575018)" fill="rgb(0,0,0)" shaper:cutDepth="0.0015875" stroke-linecap="round" stroke-linejoin="round" /><path d="M1.6126449,0.3811992 A1.219454,1.219454 33.0922145 0,0 1.6841152,0.2559067 L1.5866864,0.2089874 1.597707,0.1861028 1.6951358,0.233022 A1.219454,1.219454 25.1175682 0,0 1.7485325,0.0990257 L1.4936913,0.0204176 1.5086649,-0.0281255 1.7635061,0.0504826 A1.219454,1.219454 15.9493574 0,0 1.7948705,-0.0903097 L1.6879405,-0.1064268 1.6917261,-0.1315431 1.7986562,-0.115426 A1.219454,1.219454 7.974711 0,0 1.8101845,-0.2592082 L1.543495,-0.2592082 1.543495,-0.3100082 1.8101845,-0.3100082 A1.219454,1.219454 358.8065002 0,0 1.7986562,-0.4537904 L1.6917261,-0.4376733 1.6879405,-0.4627896 1.7948705,-0.4789067 A1.219454,1.219454 350.8318539 0,0 1.7635061,-0.619699 L1.5086649,-0.541091 1.4936913,-0.5896341 1.7485325,-0.6682421 A1.219454,1.219454 341.6636431 0,0 1.6951358,-0.8022385 L1.597707,-0.7553192 1.5866864,-0.7782038 1.6841152,-0.8251231 A1.219454,1.219454 333.6889968 0,0 1.6126449,-0.9504156 L1.3922958,-0.8001841 1.3636791,-0.842157 1.5840283,-0.9923885 A1.219454,1.219454 324.5207859 0,0 1.4689578,-1.1309234 L1.1111852,-0.6822908 0.9672109,-0.7971064 1.3312887,-1.2536455 A1.219454,1.219454 307.3779288 0,0 1.2116875,-1.3342791 L1.1576186,-1.2406289 1.1356215,-1.2533289 1.1896904,-1.3469791 A1.219454,1.219454 299.4032825 0,0 1.0600591,-1.41024 L0.9626266,-1.1619858 0.9153382,-1.1805451 1.0127708,-1.4287993 A1.219454,1.219454 290.2350716 0,0 0.8747159,-1.4705974 L0.850653,-1.3651708 0.8258898,-1.3708229 0.8499528,-1.4762495 A1.219454,1.219454 282.2604253 0,0 0.7074341,-1.4984904 L0.6875044,-1.2325467 0.6368465,-1.236343 0.6605733,-1.5529552 A1.270254,1.270254 273.1399514 0,1 1.7970857,-0.6832188 L1.9913798,-0.9159266 2.1036815,-0.5518533 1.8120593,-0.6346757 A1.270254,1.270254 344.0029057 0,1 1.6260099,0.4517947 L1.3636791,0.2729406 1.3922958,0.2309677 1.6126449,0.3811992z" transform="matrix(1,0,0,-1,1.051115,1.3575018)" fill="rgb(104,104,104)" fill-rule="nonzero" shaper:cutDepth="0.0000762" stroke-linecap="round" stroke-linejoin="round" /><path d="M-0.4157169,-0.7553192 L-0.5131458,-0.8022385 A1.219454,1.219454 205.1175682 0,0 -0.5665424,-0.6682421 L-0.3117013,-0.5896341 -0.3266748,-0.541091 -0.581516,-0.619699 A1.219454,1.219454 195.9493574 0,0 -0.6128804,-0.4789067 L-0.5059504,-0.4627896 -0.5097361,-0.4376733 -0.6166661,-0.4537904 A1.219454,1.219454 187.974711 0,0 -0.6281944,-0.3100082 L-0.0442589,-0.3100082 -0.0442589,-0.1258582 -0.6180817,-0.1258582 A1.219454,1.219454 172.5199358 0,0 -0.581516,0.0504826 L-0.3266748,-0.0281255 -0.3117013,0.0204176 -0.5665424,0.0990257 A1.219454,1.219454 161.6636431 0,0 -0.5131458,0.233022 L-0.4157169,0.1861028 -0.4046963,0.2089874 -0.5021251,0.2559067 A1.219454,1.219454 153.6889968 0,0 -0.4306549,0.3811992 L-0.2103057,0.2309677 -0.1816891,0.2729406 -0.4020382,0.4231721 A1.219454,1.219454 144.5207859 0,0 -0.3115177,0.5354764 L-0.2322471,0.461924 -0.2149707,0.4805435 -0.2942413,0.5540959 A1.219454,1.219454 136.5461396 0,0 -0.1890157,0.6527558 L-0.0227375,0.4442496 0.0169795,0.4759229 -0.1492986,0.6844291 A1.219454,1.219454 127.3779288 0,0 -0.0296974,0.7650626 L0.0243715,0.6714125 0.0463686,0.6841125 -0.0077004,0.7777626 A1.219454,1.219454 119.4032825 0,0 0.1219309,0.8410236 L0.2193635,0.5927694 0.2666519,0.6113287 0.1692193,0.8595829 A1.219454,1.219454 110.2350716 0,0 0.3072741,0.901381 L0.3313371,0.7959544 0.3561002,0.8016065 0.3320373,0.907033 A1.219454,1.219454 102.2604253 0,0 0.4745559,0.929274 L0.4944856,0.6633303 0.5451436,0.6671266 0.5214168,0.9837388 A1.270254,1.270254 93.1399514 0,1 -0.4440199,0.4517947 L-0.5610902,0.7314331 -0.7757152,0.4166361 -0.4726365,0.4098218 A1.270254,1.270254 146.8600486 0,1 -0.4440199,-1.0210111 L-0.1816891,-0.842157 -0.2103057,-0.8001841 -0.4306549,-0.9504156 A1.219454,1.219454 213.0922145 0,0 -0.5021251,-0.8251231 L-0.4046963,-0.7782038 -0.4157169,-0.7553192z" transform="matrix(1,0,0,-1,1.051115,1.3575018)" fill="rgb(104,104,104)" fill-rule="nonzero" shaper:cutDepth="0.0000762" stroke-linecap="round" stroke-linejoin="round" /><path d="M0.0190802,-1.0195287 L-0.0632433,-1.1904752 -0.0632433,-1.1904752 -0.0697507,-1.203118 -0.0768829,-1.2154193 -0.0851124,-1.2270137 -0.0947792,-1.2374429 -0.0947792,-1.2374429 -0.1016065,-1.2431464 -0.1088387,-1.2483264 -0.1165234,-1.2528082 -0.1245849,-1.2565693 -0.1329547,-1.2595826 -0.1415987,-1.261686 -0.1503941,-1.2630149 -0.1592773,-1.2635038 -0.1770424,-1.2627104 -0.1945765,-1.2597356 -0.2116436,-1.254736 -0.228004,-1.2477591 -0.228004,-1.2477591 -0.2347296,-1.2446444 -0.2411388,-1.2409134 -0.2533405,-1.232483 -0.2650591,-1.2233903 -0.2759495,-1.2133337 -0.280684,-1.2076237 -0.2849296,-1.2015411 -0.2920216,-1.1885239 -0.2972935,-1.1746637 -0.3009749,-1.1602983 -0.3009749,-1.1602983 -0.3019673,-1.1477639 -0.3016479,-1.1351957 -0.299984,-1.1227327 -0.2969088,-1.110542 -0.2884673,-1.086861 -0.2781219,-1.063947 -0.2048648,-0.9116825 -0.1474082,-0.9393522 -0.2297316,-1.1102986 -0.2297316,-1.1102986 -0.2346347,-1.1220092 -0.2367373,-1.1280015 -0.2381688,-1.1341836 -0.2381688,-1.1341836 -0.2393988,-1.1432544 -0.2384823,-1.1523816 -0.2362115,-1.161265 -0.2324352,-1.1696035 -0.2268004,-1.176822 -0.2200093,-1.1829803 -0.2124687,-1.1881975 -0.2045091,-1.1927508 -0.2045091,-1.1927508 -0.1911375,-1.1978787 -0.1841845,-1.1996179 -0.1770885,-1.2005977 -0.1699245,-1.2006509 -0.1628046,-1.19987 -0.1557793,-1.1984486 -0.1491012,-1.1958864 -0.1491012,-1.1958864 -0.1440228,-1.1930184 -0.139315,-1.1895793 -0.1350195,-1.1856337 -0.1313023,-1.1811418 -0.125057,-1.1712924 -0.1197786,-1.1608922 -0.0383765,-0.9918591 0.0190802,-1.0195287z" transform="matrix(1,0,0,-1,1.051115,1.3575018)" fill="rgb(104,104,104)" fill-rule="nonzero" shaper:cutDepth="0.0000762" stroke-linecap="round" stroke-linejoin="round" /><path d="M0.5955472,-1.1374176 L0.5955472,-1.1374176 0.5977804,-1.133897 0.7115835,-0.8975826 0.7115835,-0.8975826 0.7134391,-0.8895343 0.7133117,-0.8854081 0.71223,-0.8814165 0.71223,-0.8814165 0.7103554,-0.8773833 0.7076555,-0.8738519 0.704237,-0.8710088 0.7002884,-0.8689633 0.6960215,-0.86771 0.6915893,-0.8673592 0.6871847,-0.8679616 0.6830107,-0.8694965 0.6830107,-0.8694965 0.6799905,-0.8711914 0.6774959,-0.8735874 0.6735207,-0.8792526 0.5597177,-1.115567 0.5597177,-1.115567 0.5583828,-1.1201356 0.5577471,-1.124837 0.5577471,-1.124837 0.5585148,-1.1306252 0.5607885,-1.1359918 0.5646071,-1.1403988 0.569512,-1.1435576 0.569512,-1.1435576 0.5764661,-1.1458889 0.5801291,-1.1462005 0.5837763,-1.1457567 0.5872444,-1.1445453 0.5903715,-1.1426111 0.5955472,-1.1374176z" transform="matrix(1,0,0,-1,1.051115,1.3575018)" fill="rgb(104,104,104)" fill-rule="nonzero" shaper:cutDepth="0.0000762" stroke-linecap="round" stroke-linejoin="round" /><path d="M0.684598,-1.0679422 L0.684598,-1.0679422 0.6970248,-1.0515961 0.7035845,-1.043698 0.7106277,-1.0362278 0.7106277,-1.0362278 0.7213764,-1.0254563 0.7328198,-1.0154267 0.7328198,-1.0154267 0.7473291,-1.0039497 0.762542,-0.993424 0.778436,-0.9839587 0.795002,-0.9757266 0.8121285,-0.9687264 0.8296315,-0.9627288 0.8474593,-0.9577791 0.8655101,-0.9537165 0.8672992,-0.9534535 0.8672992,-0.9534535 0.8748986,-0.9533178 0.8786117,-0.9541647 0.8820476,-0.955801 0.8850296,-0.9581661 0.8874056,-0.9611424 0.8905617,-0.9680496 0.8918692,-0.9755333 0.8915842,-0.9793296 0.8905285,-0.9829869 0.8885906,-0.9862631 0.8860198,-0.9890714 0.8796726,-0.9932474 0.8796726,-0.9932474 0.8741201,-0.9948272 0.8741201,-0.9948272 0.8530417,-0.999699 0.8322954,-1.0058329 0.8221252,-1.0095219 0.8121875,-1.0137979 0.8024977,-1.0186093 0.7931002,-1.0239694 0.7931002,-1.0239694 0.78728,-1.027425 0.7860127,-1.0283305 0.7845691,-1.0292977 0.7856554,-1.0294786 0.7866448,-1.0297594 0.7866448,-1.0297594 0.8026809,-1.0356293 0.8179976,-1.0431688 0.8250926,-1.0479212 0.8316801,-1.0533558 0.8434508,-1.0657212 0.8434508,-1.0657212 0.8518367,-1.0776984 0.8581201,-1.0908988 0.8621694,-1.1049498 0.8641453,-1.1194415 0.8642887,-1.1340654 0.8624116,-1.1485685 0.8583107,-1.1626045 0.8520012,-1.1757937 0.8520012,-1.1757937 0.8496914,-1.1794731 0.8496914,-1.1794731 0.8406312,-1.1911372 0.8305608,-1.2019406 0.8250207,-1.2068261 0.8190125,-1.2111234 0.8126316,-1.2148437 0.8059309,-1.2179529 0.8059309,-1.2179529 0.7934371,-1.2223075 0.7805543,-1.225312 0.7673938,-1.2266511 0.7541734,-1.2262101 0.741157,-1.2238595 0.7285736,-1.2197806 0.7166191,-1.2141174 0.7053829,-1.2071315 0.7053829,-1.2071315 0.6977032,-1.2012331 0.6906083,-1.1946453 0.6842209,-1.187367 0.6786808,-1.1794263 0.67408,-1.170907 0.6704213,-1.1619419 0.6678234,-1.1526145 0.666174,-1.1430732 0.6653462,-1.1334252 0.6653658,-1.1237434 0.6661508,-1.1140913 0.6678742,-1.1045649 0.6704795,-1.0952385 0.67404,-1.0862354 0.6783833,-1.0775813 0.6835557,-1.0693961 0.684598,-1.0679422z M0.7715826,-1.1843963 L0.7715826,-1.1843963 0.7787567,-1.1831954 0.7857402,-1.1811645 0.7923903,-1.1782192 0.7985728,-1.174389 0.8041379,-1.1697064 0.8090076,-1.1643046 0.8131492,-1.158325 0.8166445,-1.1519461 0.8194873,-1.1452509 0.8215774,-1.1382837 0.8227559,-1.1311071 0.8229801,-1.1238375 0.822111,-1.1166169 0.8202283,-1.1095915 0.817458,-1.1028673 0.8139004,-1.0965225 0.8139004,-1.0965225 0.809805,-1.0907734 0.805146,-1.0854719 0.7998737,-1.0807792 0.7940406,-1.0768056 0.7877051,-1.0736956 0.7810267,-1.0714126 0.7741047,-1.0700337 0.7670768,-1.0693774 0.7670768,-1.0693774 0.7553748,-1.0700599 0.7440496,-1.0730777 0.7336569,-1.0784914 0.7245567,-1.0858787 0.7169685,-1.0948099 0.7138972,-1.0998084 0.7113939,-1.1051141 0.7094948,-1.1106647 0.7082074,-1.1163888 0.707322,-1.1280736 0.707322,-1.1280736 0.7074683,-1.1349476 0.7087844,-1.1417002 0.7110392,-1.1481966 0.7140591,-1.1543771 0.7176689,-1.1602321 0.7218418,-1.1656987 0.7266807,-1.1705879 0.7322094,-1.1746762 0.7322094,-1.1746762 0.7413406,-1.1794916 0.7510766,-1.1829176 0.7612636,-1.1845826 0.7715826,-1.1843963z" transform="matrix(1,0,0,-1,1.051115,1.3575018)" fill="rgb(104,104,104)" fill-rule="nonzero" shaper:cutDepth="0.0000762" stroke-linecap="round" stroke-linejoin="round" /><path d="M-0.1455485,-0.6681648 L-0.1455485,-0.6681648 -0.1331217,-0.6518187 -0.126562,-0.6439206 -0.1195188,-0.6364503 -0.1195188,-0.6364503 -0.1087701,-0.6256788 -0.0973267,-0.6156492 -0.0973267,-0.6156492 -0.0828174,-0.6041723 -0.0676045,-0.5936465 -0.0517105,-0.5841813 -0.0351445,-0.5759491 -0.018018,-0.5689489 -0.000515,-0.5629513 0.0173128,-0.5580016 0.0353636,-0.553939 0.0371527,-0.553676 0.0371527,-0.553676 0.0447521,-0.5535403 0.0484652,-0.5543872 0.0519011,-0.5560235 0.0548831,-0.5583886 0.0572591,-0.5613649 0.0604152,-0.5682721 0.0617227,-0.5757559 0.0614377,-0.5795521 0.060382,-0.5832094 0.0584441,-0.5864856 0.0558733,-0.5892939 0.0495261,-0.5934699 0.0495261,-0.5934699 0.0439736,-0.5950498 0.0439736,-0.5950498 0.0228952,-0.5999215 0.0021489,-0.6060554 -0.0080213,-0.6097444 -0.017959,-0.6140204 -0.0276488,-0.6188318 -0.0370463,-0.6241919 -0.0370463,-0.6241919 -0.0428665,-0.6276475 -0.0441338,-0.628553 -0.0455774,-0.6295202 -0.0444911,-0.6297011 -0.0435017,-0.6299819 -0.0435017,-0.6299819 -0.0274656,-0.6358518 -0.0121489,-0.6433913 -0.0050539,-0.6481437 0.0015336,-0.6535783 0.0133043,-0.6659438 0.0133043,-0.6659438 0.0216902,-0.6779209 0.0279736,-0.6911213 0.0320229,-0.7051723 0.0339988,-0.719664 0.0341422,-0.7342879 0.0322651,-0.748791 0.0281642,-0.762827 0.0218547,-0.7760162 0.0218547,-0.7760162 0.0195449,-0.7796956 0.0195449,-0.7796956 0.0104847,-0.7913597 0.0004143,-0.8021631 -0.0051258,-0.8070486 -0.0111339,-0.8113459 -0.0175149,-0.8150662 -0.0242156,-0.8181754 -0.0242156,-0.8181754 -0.0367094,-0.82253 -0.0495922,-0.8255345 -0.0627527,-0.8268736 -0.0759731,-0.8264326 -0.0889895,-0.824082 -0.1015729,-0.8200032 -0.1135274,-0.8143399 -0.1247636,-0.807354 -0.1247636,-0.807354 -0.1324433,-0.8014556 -0.1395382,-0.7948678 -0.1459256,-0.7875895 -0.1514657,-0.7796489 -0.1560665,-0.7711295 -0.1597252,-0.7621644 -0.1623231,-0.752837 -0.1639725,-0.7432957 -0.1648003,-0.7336477 -0.1647807,-0.7239659 -0.1639957,-0.7143138 -0.1622723,-0.7047874 -0.159667,-0.695461 -0.1561065,-0.6864579 -0.1517632,-0.6778038 -0.1465908,-0.6696186 -0.1455485,-0.6681648z M-0.0585639,-0.7846188 L-0.0585639,-0.7846188 -0.0513898,-0.7834179 -0.0444063,-0.7813871 -0.0377562,-0.7784417 -0.0315737,-0.7746115 -0.0260086,-0.769929 -0.0211389,-0.7645271 -0.0169973,-0.7585475 -0.013502,-0.7521686 -0.0106592,-0.7454734 -0.0085691,-0.7385063 -0.0073906,-0.7313297 -0.0071664,-0.72406 -0.0080355,-0.7168395 -0.0099182,-0.709814 -0.0126885,-0.7030898 -0.0162461,-0.6967451 -0.0162461,-0.6967451 -0.0203415,-0.6909959 -0.0250005,-0.6856944 -0.0302728,-0.6810018 -0.0361059,-0.6770282 -0.0424414,-0.6739181 -0.0491198,-0.6716351 -0.0560418,-0.6702562 -0.0630697,-0.6695999 -0.0630697,-0.6695999 -0.0747717,-0.6702824 -0.0860969,-0.6733002 -0.0964896,-0.678714 -0.1055898,-0.6861012 -0.113178,-0.6950324 -0.1162493,-0.7000309 -0.1187526,-0.7053366 -0.1206517,-0.7108872 -0.1219391,-0.7166113 -0.1228245,-0.7282961 -0.1228245,-0.7282961 -0.1226782,-0.7351701 -0.1213621,-0.7419227 -0.1191073,-0.7484191 -0.1160874,-0.7545996 -0.1124776,-0.7604546 -0.1083047,-0.7659212 -0.1034658,-0.7708104 -0.0979371,-0.7748987 -0.0979371,-0.7748987 -0.0888059,-0.7797142 -0.0790699,-0.7831401 -0.0688829,-0.7848051 -0.0585639,-0.7846188z" transform="matrix(1,0,0,-1,1.051115,1.3575018)" fill="rgb(104,104,104)" fill-rule="nonzero" shaper:cutDepth="0.0000762" stroke-linecap="round" stroke-linejoin="round" /><path d="M-0.2345993,-0.7376402 L-0.2345993,-0.7376402 -0.2323661,-0.7341196 -0.118563,-0.4978051 -0.118563,-0.4978051 -0.1167074,-0.4897569 -0.1168348,-0.4856306 -0.1179164,-0.481639 -0.1179164,-0.481639 -0.1197911,-0.4776058 -0.122491,-0.4740744 -0.1259095,-0.4712313 -0.1298581,-0.4691858 -0.134125,-0.4679325 -0.1385572,-0.4675817 -0.1429618,-0.4681841 -0.1471358,-0.469719 -0.1471358,-0.469719 -0.150156,-0.4714139 -0.1526506,-0.4738099 -0.1566258,-0.4794751 -0.2704288,-0.7157895 -0.2704288,-0.7157895 -0.2717637,-0.7203582 -0.2723994,-0.7250595 -0.2723994,-0.7250595 -0.2716317,-0.7308477 -0.269358,-0.7362143 -0.2655394,-0.7406213 -0.2606345,-0.7437801 -0.2606345,-0.7437801 -0.2536804,-0.7461114 -0.2500174,-0.746423 -0.2463702,-0.7459792 -0.2429021,-0.7447678 -0.239775,-0.7428336 -0.2345993,-0.7376402z" transform="matrix(1,0,0,-1,1.051115,1.3575018)" fill="rgb(104,104,104)" fill-rule="nonzero" shaper:cutDepth="0.0000762" stroke-linecap="round" stroke-linejoin="round" /><path d="M0.5671357,-1.283634 L0.5413464,-1.3371862 0.4444051,-1.2905018 0.4184576,-1.3443825 0.5130534,-1.3899375 0.4883863,-1.4411593 0.3937904,-1.3956044 0.3639421,-1.4575851 0.4604924,-1.5040812 0.4345657,-1.5579185 0.2805588,-1.4837527 0.4127379,-1.20928 0.5671357,-1.283634z" transform="matrix(1,0,0,-1,1.051115,1.3575018)" fill="rgb(104,104,104)" fill-rule="nonzero" shaper:cutDepth="0.0000762" stroke-linecap="round" stroke-linejoin="round" /><path d="M0.7853638,0.407332 L0.7853638,0.407332 0.7826631,0.394186 0.7793684,0.3811758 0.7793684,0.3811758 0.7724678,0.3599968 0.7635826,0.339568 0.7529922,0.3199681 0.7409909,0.3011966 0.7344261,0.2921946 0.7273736,0.2835693 0.7197795,0.2754168 0.7116268,0.2678237 0.7029627,0.2608186 0.693777,0.2545151 0.6841063,0.2489823 0.6740198,0.2442511 0.6740198,0.2442511 0.6669827,0.2416415 0.6597587,0.2396116 0.6523792,0.2382411 0.6448985,0.237648 0.6374002,0.2379501 0.6299892,0.2391282 0.6227705,0.24118 0.6158395,0.2440571 0.6158395,0.2440571 0.6052255,0.2501916 0.5957716,0.2579931 0.5916192,0.2625061 0.5879343,0.2674104 0.5819701,0.2781162 0.5778981,0.2896779 0.5755929,0.3017227 0.5746705,0.3139526 0.5748372,0.3262216 0.5756941,0.3384607 0.577192,0.3506391 0.5793358,0.3627192 0.5821065,0.3746728 0.585497,0.3864636 0.58948,0.3980697 0.5990008,0.4206786 0.610504,0.4423478 0.6169914,0.4527622 0.6239816,0.4628459 0.6314716,0.4725641 0.6394549,0.4818813 0.6479275,0.4907557 0.6568653,0.4991619 0.666263,0.50705 0.6762932,0.514109 0.687061,0.5199735 0.6985922,0.5241286 0.7106572,0.5262791 0.7229101,0.526134 0.7349073,0.5236366 0.7463262,0.5191782 0.7463262,0.5191782 0.7532931,0.5153575 0.7598084,0.5108103 0.7657056,0.5054858 0.7708707,0.4994485 0.7752363,0.4928105 0.7787375,0.4856776 0.7814269,0.4782012 0.783372,0.4704969 0.7860102,0.4548285 0.7873338,0.4389975 0.7871854,0.4231124 0.7853638,0.407332z M0.6689721,0.2882914 L0.6689721,0.2882914 0.6795219,0.2959788 0.689082,0.3048709 0.697844,0.3145525 0.705836,0.3248802 0.7132027,0.3356662 0.719938,0.3468553 0.7259397,0.3584558 0.7313104,0.3703611 0.7359605,0.382566 0.7397919,0.3950522 0.7427421,0.407775 0.7447666,0.4206786 0.7456842,0.4337031 0.7449669,0.4467354 0.7423017,0.4595065 0.7374567,0.4716212 0.7374567,0.4716212 0.7342686,0.4763822 0.7300968,0.4802994 0.7290251,0.4808155 0.7290251,0.4808155 0.7194258,0.4821456 0.7097861,0.4811455 0.7006392,0.4779286 0.692282,0.4730037 0.6845087,0.4671866 0.6772156,0.4607794 0.6704385,0.4538268 0.6641511,0.4464293 0.6527974,0.430683 0.6429561,0.4139516 0.634487,0.3964814 0.6307173,0.3875345 0.6275189,0.3783692 0.6275189,0.3783692 0.6234628,0.3615071 0.6208049,0.3443613 0.6195945,0.3270568 0.6197681,0.3183818 0.6205639,0.3097413 0.6221687,0.3012179 0.6251285,0.2930729 0.6298558,0.2858255 0.6329595,0.2827952 0.6365376,0.2803503 0.6406604,0.2790276 0.6449892,0.2787838 0.6534592,0.2805838 0.6614281,0.2840108 0.6689721,0.2882914z" transform="matrix(1,0,0,-1,1.051115,1.3575018)" fill="rgb(104,104,104)" fill-rule="nonzero" shaper:cutDepth="0.0000762" stroke-linecap="round" stroke-linejoin="round" /><path d="M0.5067243,0.4337538 L0.5067243,0.4337538 0.5063308,0.4450119 0.5041195,0.4560524 0.4998488,0.4664705 0.4937651,0.4759476 0.4860559,0.4841491 0.476897,0.4906932 0.4666184,0.495295 0.4557036,0.4980755 0.4557036,0.4980755 0.4547363,0.4981991 0.4547363,0.4981991 0.4518139,0.4986285 0.4518139,0.4986285 0.445493,0.5013228 0.4427923,0.5034643 0.4405318,0.5060664 0.4405318,0.5060664 0.4383239,0.5094573 0.4368935,0.5132443 0.4362916,0.5172453 0.4363256,0.5212935 0.4363256,0.5212935 0.4372668,0.5255831 0.4372668,0.5255831 0.4387724,0.529626 0.4411153,0.5332423 0.4443217,0.5361256 0.4481946,0.5380204 0.5299796,0.5766708 0.4666343,0.6071763 0.4666343,0.6071763 0.4626888,0.6095364 0.4593793,0.6127242 0.456838,0.6165535 0.4552159,0.6208549 0.4544654,0.6253903 0.4548051,0.6299736 0.4562004,0.6343514 0.458547,0.6383053 0.458547,0.6383053 0.4635662,0.6438747 0.4666946,0.645956 0.4701908,0.6473285 0.4739147,0.6478184 0.4776606,0.6475183 0.4847689,0.6451376 0.5880423,0.5954037 0.5880423,0.5954037 0.594396,0.5912111 0.5969337,0.5883594 0.5988103,0.5850369 0.5998295,0.5813583 0.6001205,0.5775525 0.5989012,0.5700297 0.5989012,0.5700297 0.5972763,0.5660323 0.5949518,0.5624006 0.5917674,0.5594905 0.5879351,0.557513 0.508517,0.5200209 0.508517,0.5200209 0.5156786,0.5140784 0.5156786,0.5140784 0.5169957,0.5129552 0.5169957,0.5129552 0.527086,0.5016788 0.5315572,0.4955692 0.5355186,0.4891181 0.5419695,0.4754301 0.5462332,0.4609119 0.5483993,0.445936 0.5483295,0.4308038 0.5460363,0.4158471 0.541765,0.4013306 0.541765,0.4013306 0.5370186,0.3904621 0.5308864,0.3803127 0.5235051,0.3710314 0.5150489,0.3627169 0.5057178,0.3553954 0.4956581,0.349115 0.484943,0.3440314 0.4737116,0.3402256 0.4737116,0.3402256 0.4649456,0.3381646 0.4560385,0.3368452 0.4470489,0.3363201 0.4380519,0.3366838 0.4291265,0.3378752 0.4203473,0.3398776 0.4118084,0.3427355 0.4035375,0.3462963 0.4035375,0.3462963 0.3956499,0.350452 0.3881235,0.3552294 0.3810389,0.3606414 0.374457,0.3666541 0.3684273,0.3732205 0.3630406,0.3803239 0.3583521,0.3879064 0.3542975,0.3958461 0.3509083,0.4040918 0.3482468,0.4126002 0.3463666,0.4213145 0.3452761,0.4301625 0.3449515,0.4390713 0.3454497,0.4479726 0.3466936,0.4568001 0.3485885,0.4655116 0.3485885,0.4655116 0.3512733,0.4717974 0.3512733,0.4717974 0.356599,0.4772483 0.3598004,0.4793332 0.363364,0.4806995 0.3671403,0.4812591 0.3709519,0.4810307 0.3781847,0.4786399 0.3781847,0.4786399 0.3829224,0.4750955 0.3868544,0.470651 0.3868544,0.470651 0.388632,0.4668397 0.3895322,0.4627202 0.3899235,0.4585248 0.3891053,0.4544096 0.3891053,0.4544096 0.3870184,0.4435746 0.3867491,0.4380595 0.3871838,0.4325501 0.3871838,0.4325501 0.3891119,0.4228904 0.3922691,0.4135634 0.3968708,0.404861 0.4029516,0.397121 0.4103463,0.3906221 0.4187968,0.3855709 0.4279045,0.3818216 0.4374292,0.3793097 0.4374292,0.3793097 0.4443651,0.3784665 0.4513521,0.3787153 0.4582601,0.3797668 0.465022,0.3815386 0.4715935,0.3839218 0.4778442,0.3870448 0.4836529,0.3909356 0.4887486,0.395716 0.4887486,0.395716 0.4949336,0.4024675 0.4949336,0.4024675 0.5026292,0.4175061 0.504402,0.4213373 0.5055949,0.4253921 0.5067243,0.4337538z" transform="matrix(1,0,0,-1,1.051115,1.3575018)" fill="rgb(104,104,104)" fill-rule="nonzero" shaper:cutDepth="0.0000762" stroke-linecap="round" stroke-linejoin="round" /><path d="M1.0656249,0.1646015 L1.0656249,0.1646015 1.0652314,0.1758596 1.0630201,0.1869001 1.0587494,0.1973182 1.0526656,0.2067953 1.0449564,0.2149968 1.0357975,0.2215409 1.025519,0.2261427 1.0146041,0.2289232 1.0146041,0.2289232 1.0136369,0.2290467 1.0136369,0.2290467 1.0107144,0.2294762 1.0107144,0.2294762 1.0043936,0.2321705 1.0016929,0.234312 0.9994323,0.2369141 0.9994323,0.2369141 0.9972244,0.240305 0.9957941,0.244092 0.9951921,0.248093 0.9952262,0.2521412 0.9952262,0.2521412 0.9961673,0.2564308 0.9961673,0.2564308 0.997673,0.2604737 1.0000159,0.26409 1.0032222,0.2669733 1.0070952,0.2688681 1.0888802,0.3075184 1.0255349,0.3380239 1.0255349,0.3380239 1.0215893,0.3403841 1.0182799,0.3435718 1.0157386,0.3474012 1.0141165,0.3517026 1.0133659,0.3562379 1.0137057,0.3608213 1.015101,0.3651991 1.0174475,0.3691529 1.0174475,0.3691529 1.0224667,0.3747223 1.0255951,0.3768036 1.0290914,0.3781762 1.0328152,0.378666 1.0365612,0.378366 1.0436694,0.3759852 1.1469429,0.3262514 1.1469429,0.3262514 1.1532966,0.3220588 1.1558342,0.3192071 1.1577109,0.3158846 1.1587301,0.312206 1.159021,0.3084001 1.1578017,0.3008774 1.1578017,0.3008774 1.1561769,0.29688 1.1538523,0.2932483 1.150668,0.2903382 1.1468356,0.2883607 1.0674175,0.2508686 1.0674175,0.2508686 1.0745792,0.2449261 1.0745792,0.2449261 1.0758963,0.2438029 1.0758963,0.2438029 1.0859865,0.2325265 1.0904578,0.2264169 1.0944191,0.2199658 1.10087,0.2062777 1.1051337,0.1917596 1.1072999,0.1767836 1.1072301,0.1616515 1.1049369,0.1466948 1.1006656,0.1321783 1.1006656,0.1321783 1.0959192,0.1213098 1.089787,0.1111603 1.0824057,0.101879 1.0739495,0.0935645 1.0646183,0.0862431 1.0545586,0.0799626 1.0438436,0.0748791 1.0326121,0.0710732 1.0326121,0.0710732 1.0238462,0.0690123 1.0149391,0.0676929 1.0059494,0.0671678 0.9969524,0.0675314 0.988027,0.0687229 0.9792479,0.0707253 0.9707089,0.0735831 0.9624381,0.077144 0.9624381,0.077144 0.9545505,0.0812997 0.9470241,0.0860771 0.9399394,0.0914891 0.9333576,0.0975018 0.9273278,0.1040682 0.9219412,0.1111716 0.9172527,0.1187541 0.913198,0.1266937 0.9098089,0.1349395 0.9071473,0.1434478 0.9052672,0.1521622 0.9041767,0.1610102 0.903852,0.169919 0.9043502,0.1788203 0.9055941,0.1876478 0.9074891,0.1963593 0.9074891,0.1963593 0.9101739,0.202645 0.9101739,0.202645 0.9154995,0.208096 0.918701,0.2101809 0.9222645,0.2115472 0.9260408,0.2121068 0.9298524,0.2118784 0.9370852,0.2094876 0.9370852,0.2094876 0.941823,0.2059432 0.945755,0.2014986 0.945755,0.2014986 0.9475325,0.1976873 0.9484328,0.1935679 0.948824,0.1893725 0.9480059,0.1852573 0.9480059,0.1852573 0.945919,0.1744222 0.9456496,0.1689072 0.9460844,0.1633977 0.9460844,0.1633977 0.9480124,0.1537381 0.9511697,0.1444111 0.9557714,0.1357086 0.9618522,0.1279687 0.9692469,0.1214698 0.9776974,0.1164186 0.9868051,0.1126693 0.9963297,0.1101574 0.9963297,0.1101574 1.0032656,0.1093141 1.0102526,0.109563 1.0171606,0.1106145 1.0239226,0.1123863 1.030494,0.1147694 1.0367448,0.1178925 1.0425535,0.1217832 1.0476491,0.1265637 1.0476491,0.1265637 1.0538341,0.1333152 1.0538341,0.1333152 1.0615298,0.1483538 1.0633026,0.152185 1.0644954,0.1562398 1.0656249,0.1646015z" transform="matrix(1,0,0,-1,1.051115,1.3575018)" fill="rgb(104,104,104)" fill-rule="nonzero" shaper:cutDepth="0.0000762" stroke-linecap="round" stroke-linejoin="round" /><path d="M1.3442644,0.1381797 L1.3442644,0.1381797 1.3415637,0.1250337 1.338269,0.1120235 1.338269,0.1120235 1.3313684,0.0908445 1.3224831,0.0704157 1.3118928,0.0508158 1.2998915,0.0320442 1.2933267,0.0230423 1.2862741,0.014417 1.2786801,0.0062645 1.2705273,-0.0013286 1.2618633,-0.0083337 1.2526776,-0.0146372 1.2430069,-0.0201701 1.2329204,-0.0249012 1.2329204,-0.0249012 1.2258833,-0.0275108 1.2186592,-0.0295407 1.2112798,-0.0309113 1.203799,-0.0315044 1.1963008,-0.0312022 1.1888897,-0.0300241 1.181671,-0.0279723 1.17474,-0.0250952 1.17474,-0.0250952 1.164126,-0.0189608 1.1546722,-0.0111593 1.1505198,-0.0066463 1.1468349,-0.0017419 1.1408707,0.0089639 1.1367987,0.0205256 1.1344935,0.0325704 1.1335711,0.0448002 1.1337377,0.0570693 1.1345947,0.0693083 1.1360926,0.0814867 1.1382364,0.0935669 1.141007,0.1055205 1.1443976,0.1173113 1.1483805,0.1289174 1.1579014,0.1515262 1.1694046,0.1731955 1.175892,0.1836099 1.1828821,0.1936936 1.1903722,0.2034117 1.1983555,0.212729 1.206828,0.2216033 1.2157658,0.2300096 1.2251635,0.2378976 1.2351938,0.2449567 1.2459615,0.2508211 1.2574928,0.2549763 1.2695577,0.2571267 1.2818106,0.2569817 1.2938078,0.2544843 1.3052267,0.2500259 1.3052267,0.2500259 1.3121937,0.2462052 1.318709,0.241658 1.3246061,0.2363335 1.3297712,0.2302962 1.3341368,0.2236582 1.3376381,0.2165253 1.3403274,0.2090489 1.3422726,0.2013445 1.3449107,0.1856761 1.3462344,0.1698452 1.3460859,0.1539601 1.3442644,0.1381797z M1.2278726,0.0191391 L1.2278726,0.0191391 1.2384224,0.0268265 1.2479826,0.0357186 1.2567445,0.0454002 1.2647366,0.0557278 1.2721032,0.0665139 1.2788385,0.0777029 1.2848403,0.0893035 1.290211,0.1012088 1.294861,0.1134137 1.2986925,0.1258999 1.3016427,0.1386227 1.3036671,0.1515262 1.3045848,0.1645508 1.3038675,0.1775831 1.3012023,0.1903542 1.2963572,0.2024688 1.2963572,0.2024688 1.2931691,0.2072299 1.2889973,0.2111471 1.2879257,0.2116632 1.2879257,0.2116632 1.2783264,0.2129933 1.2686866,0.2119932 1.2595398,0.2087762 1.2511826,0.2038514 1.2434092,0.1980343 1.2361161,0.1916271 1.2293391,0.1846745 1.2230517,0.177277 1.2116979,0.1615306 1.2018566,0.1447993 1.1933875,0.1273291 1.1896179,0.1183822 1.1864195,0.1092169 1.1864195,0.1092169 1.1823633,0.0923548 1.1797055,0.075209 1.1784951,0.0579044 1.1786687,0.0492295 1.1794645,0.040589 1.1810692,0.0320656 1.1840291,0.0239206 1.1887564,0.0166732 1.1918601,0.0136429 1.1954382,0.011198 1.1995609,0.0098753 1.2038897,0.0096315 1.2123598,0.0114315 1.2203286,0.0148584 1.2278726,0.0191391z" transform="matrix(1,0,0,-1,1.051115,1.3575018)" fill="rgb(104,104,104)" fill-rule="nonzero" shaper:cutDepth="0.0000762" stroke-linecap="round" stroke-linejoin="round" /><path d="M0.786067,0.9943832 L0.786067,0.9943832 0.7972676,0.9890653 0.808132,0.9830912 0.8186385,0.9765074 0.8286711,0.9692222 0.8377724,0.9608227 0.8451528,0.950875 0.8506373,0.9397644 0.8543182,0.9279357 0.8543182,0.9279357 0.8556562,0.9158867 0.8549123,0.9037885 0.851769,0.8920778 0.8471847,0.8808625 0.8471847,0.8808625 0.8399987,0.8681525 0.8308847,0.8567505 0.8255537,0.8517572 0.8196511,0.8474551 0.8132348,0.8439646 0.8064483,0.8412632 0.8064483,0.8412632 0.7934847,0.8389371 0.7934847,0.8389371 0.8027827,0.830595 0.8108747,0.8210878 0.8108747,0.8210878 0.8158218,0.8128482 0.8189803,0.8037585 0.8210126,0.794352 0.8216291,0.7847596 0.8205577,0.7751995 0.818259,0.7658587 0.8151681,0.7567467 0.8114285,0.7478799 0.8114285,0.7478799 0.8053209,0.7367681 0.7980452,0.726386 0.7895744,0.7169515 0.7799614,0.7086848 0.7692629,0.7018996 0.7575957,0.6969715 0.7452794,0.6940112 0.7326553,0.6929491 0.7326553,0.6929491 0.7237563,0.6935663 0.7149678,0.6951482 0.7063441,0.6974332 0.6978966,0.7003187 0.6813454,0.707003 0.6651022,0.7144039 0.5686229,0.7608659 0.7008706,1.0354812 0.786067,0.9943832z M0.7270677,0.836158 L0.6853404,0.8562528 0.6485202,0.7797949 0.6867492,0.7613848 0.6867492,0.7613848 0.6989965,0.755987 0.7053474,0.7538705 0.7118712,0.7523288 0.7185255,0.7516556 0.7251757,0.7524343 0.7315727,0.7543876 0.737595,0.7573111 0.737595,0.7573111 0.7430394,0.7616972 0.7479209,0.7667019 0.7520298,0.772358 0.755388,0.7784902 0.755388,0.7784902 0.7578746,0.7842733 0.7596706,0.7903201 0.760398,0.7965685 0.7600231,0.8028709 0.7600231,0.8028709 0.7584541,0.808807 0.7560443,0.8144506 0.7526239,0.8195504 0.748228,0.8238307 0.7380954,0.8307631 0.7270677,0.836158z M0.7644774,0.9474442 L0.7366593,0.9608407 0.7080241,0.9013792 0.7365869,0.8875861 0.7365869,0.8875861 0.7457159,0.8836509 0.7553494,0.8812056 0.7603123,0.8810001 0.7652069,0.8818775 0.7698731,0.8835842 0.7742872,0.885872 0.7742872,0.885872 0.7786928,0.8890172 0.7826072,0.8927714 0.7859172,0.8970491 0.7886217,0.9017499 0.7886217,0.9017499 0.7909344,0.9080512 0.7920029,0.9146907 0.7913646,0.9213656 0.7892185,0.9277269 0.7892185,0.9277269 0.784626,0.9343409 0.7785756,0.9396473 0.7716846,0.9438312 0.7644774,0.9474442z" transform="matrix(1,0,0,-1,1.051115,1.3575018)" fill="rgb(104,104,104)" fill-rule="nonzero" shaper:cutDepth="0.0000762" stroke-linecap="round" stroke-linejoin="round" /><path d="M1.0890139,0.8485612 L1.0701249,0.5193553 1.0052368,0.5506037 1.0116252,0.6188661 0.8970939,0.6740214 0.84888,0.6259012 0.7847737,0.6567731 1.0252985,0.8792449 1.0890139,0.8485612z M0.9850831,0.7598353 L0.9850831,0.7598353 0.9400404,0.7152038 1.0158213,0.6787096 1.0158213,0.6787096 1.0223991,0.7443032 1.0223991,0.7443032 1.0268478,0.7807946 1.0300995,0.7988837 1.0350537,0.8165843 1.0350537,0.8165843 1.0242508,0.8010956 1.0242508,0.8010956 1.0051155,0.7800446 0.9850831,0.7598353z" transform="matrix(1,0,0,-1,1.051115,1.3575018)" fill="rgb(104,104,104)" fill-rule="nonzero" shaper:cutDepth="0.0000762" stroke-linecap="round" stroke-linejoin="round" /><path d="M1.3853272,0.7052071 L1.359726,0.6520458 1.3007014,0.6804706 1.1943116,0.4595501 1.136855,0.4872197 1.2428741,0.7073707 1.1838494,0.7357955 1.2098212,0.7897263 1.3853272,0.7052071z" transform="matrix(1,0,0,-1,1.051115,1.3575018)" fill="rgb(104,104,104)" fill-rule="nonzero" shaper:cutDepth="0.0000762" stroke-linecap="round" stroke-linejoin="round" /><path d="M1.5735315,0.6145727 L1.5479303,0.5614114 1.4889056,0.5898362 1.3825159,0.3689157 1.3250593,0.3965853 1.4310784,0.6167363 1.3720537,0.6451611 1.3980254,0.6990919 1.5735315,0.6145727z" transform="matrix(1,0,0,-1,1.051115,1.3575018)" fill="rgb(104,104,104)" fill-rule="nonzero" shaper:cutDepth="0.0000762" stroke-linecap="round" stroke-linejoin="round" /><path d="M0.260795,-0.2846082 a0.3302,0.3302 0 1,1 0.6604,0 a0.3302,0.3302 0 1,1 -0.6604,0z" transform="matrix(1,0,0,-1,1.051115,1.3575018)" fill="rgb(255,255,255)" stroke="rgb(0,0,0)" stroke-width="0.0010cm" stroke-linecap="round" stroke-linejoin="round" shaper:cutDepth="0.0015875" /></svg>