<?xml version="1.0" encoding="utf-8"?>
<!-- Generator: Fusion 360, Shaper Origin Export Add-In, Version 1.6.10  -->
<svg xmlns="http://www.w3.org/2000/svg" xmlns:xlink="http://www.w3.org/1999/xlink" xmlns:shaper="http://www.shapertools.com/namespaces/shaper" shaper:fusionaddin="version:1.6.10" width="14.605cm" height="8.5725cm" version="1.1" x="0cm" y="0cm" viewBox="0 0 14.605 8.5725" enable-background="new 0 0 14.605 8.5725" xml:space="preserve"><path d="M7.3025,4.28625 L7.3025,-4.28625 -7.3025,-4.28625 -7.3025,4.28625 7.3025,4.28625z" transform="matrix(1,0,0,-1,7.3025,4.28625)" fill="rgb(0,0,0)" shaper:cutDepth="0.003175" stroke-linecap="round" stroke-linejoin="round" /><path d="M6.598285,2.8575 a0.215265,0.215265 0 1,1 0.43053,0 a0.215265,0.215265 0 1,1 -0.43053,0z" transform="matrix(1,0,0,-1,7.3025,4.28625)" fill="rgb(255,255,255)" stroke="rgb(0,0,0)" stroke-width="0.0010cm" stroke-linecap="round" stroke-linejoin="round" shaper:cutDepth="0.003175" /><path d="M3.734435,2.92735 a0.215265,0.215265 0 1,1 0.43053,0 a0.215265,0.215265 0 1,1 -0.43053,0z" transform="matrix(1,0,0,-1,7.3025,4.28625)" fill="rgb(255,255,255)" stroke="rgb(0,0,0)" stroke-width="0.0010cm" stroke-linecap="round" stroke-linejoin="round" shaper:cutDepth="0.003175" /><path d="M-7.028815,2.8575 a0.215265,0.215265 0 1,1 0.43053,0 a0.215265,0.215265 0 1,1 -0.43053,0z" transform="matrix(1,0,0,-1,7.3025,4.28625)" fill="rgb(255,255,255)" stroke="rgb(0,0,0)" stroke-width="0.0010cm" stroke-linecap="round" stroke-linejoin="round" shaper:cutDepth="0.003175" /><path d="M-3.910965,0.41275 a0.215265,0.215265 0 1,1 0.43053,0 a0.215265,0.215265 0 1,1 -0.43053,0z" transform="matrix(1,0,0,-1,7.3025,4.28625)" fill="rgb(255,255,255)" stroke="rgb(0,0,0)" stroke-width="0.0010cm" stroke-linecap="round" stroke-linejoin="round" shaper:cutDepth="0.003175" /><path d="M-7.028815,-2.8575 a0.215265,0.215265 0 1,1 0.43053,0 a0.215265,0.215265 0 1,1 -0.43053,0z" transform="matrix(1,0,0,-1,7.3025,4.28625)" fill="rgb(255,255,255)" stroke="rgb(0,0,0)" stroke-width="0.0010cm" stroke-linecap="round" stroke-linejoin="round" shaper:cutDepth="0.003175" /><path d="M-2.120265,-3.11785 a0.215265,0.215265 0 1,1 0.43053,0 a0.215265,0.215265 0 1,1 -0.43053,0z" transform="matrix(1,0,0,-1,7.3025,4.28625)" fill="rgb(255,255,255)" stroke="rgb(0,0,0)" stroke-width="0.0010cm" stroke-linecap="round" stroke-linejoin="round" shaper:cutDepth="0.003175" /><path d="M1.753235,-3.11785 a0.215265,0.215265 0 1,1 0.43053,0 a0.215265,0.215265 0 1,1 -0.43053,0z" transform="matrix(1,0,0,-1,7.3025,4.28625)" fill="rgb(255,255,255)" stroke="rgb(0,0,0)" stroke-width="0.0010cm" stroke-linecap="round" stroke-linejoin="round" shaper:cutDepth="0.003175" /><path d="M6.598285,-2.8575 a0.215265,0.215265 0 1,1 0.43053,0 a0.215265,0.215265 0 1,1 -0.43053,0z" transform="matrix(1,0,0,-1,7.3025,4.28625)" fill="rgb(255,255,255)" stroke="rgb(0,0,0)" stroke-width="0.0010cm" stroke-linecap="round" stroke-linejoin="round" shaper:cutDepth="0.003175" /><path d="M4.5847,1.98755 a0.635,0.635 0 1,1 1.27,0 a0.635,0.635 0 1,1 -1.27,0z" transform="matrix(1,0,0,-1,7.3025,4.28625)" fill="rgb(255,255,255)" stroke="rgb(0,0,0)" stroke-width="0.0010cm" stroke-linecap="round" stroke-linejoin="round" shaper:cutDepth="0.003175" /><path d="M-5.6515,1.98755 a0.635,0.635 0 1,1 1.27,0 a0.635,0.635 0 1,1 -1.27,0z" transform="matrix(1,0,0,-1,7.3025,4.28625)" fill="rgb(255,255,255)" stroke="rgb(0,0,0)" stroke-width="0.0010cm" stroke-linecap="round" stroke-linejoin="round" shaper:cutDepth="0.003175" /><path d="M6.5121904,2.1821563 L6.5121904,1.813603 A0.15875,0.15875 180 0,1 6.6709404,1.654853 L7.0652074,1.654853 A0.15875,0.15875 90 0,0 7.2239574,1.496103 L7.2239574,1.2628064 A0.15875,0.15875 0 0,0 7.0652074,1.1040564 L6.620572,1.1040564 A0.15875,0.15875 270 0,0 6.5103401,1.1485677 L5.9688931,1.6710242 A0.2077118,0.2077118 226.022612 0,0 5.9054111,1.8204965 L5.9054111,2.2807035 A0.15875,0.15875 180 0,0 6.1153526,2.4309732 L6.404632,2.332426 A0.15875,0.15875 71.1878556 0,0 6.5121904,2.1821563z" transform="matrix(1,0,0,-1,7.3025,4.28625)" fill="rgb(255,255,255)" stroke="rgb(0,0,0)" stroke-width="0.0010cm" stroke-linecap="round" stroke-linejoin="round" shaper:cutDepth="0.003175" /><path d="M3.3023195,-2.7906471 L3.3023195,-2.2551767 A0.635,0.635 191.6223131 0,1 4.4611635,-2.4663704 L4.4352961,-2.8044906 A0.15875,0.15875 175.6252011 0,1 4.5935836,-2.9753501 L4.9474711,-2.9753501 A0.15875,0.15875 270 0,1 5.1040152,-2.8429728 L5.2900603,-1.7386406 A0.15875,0.15875 350.4372636 0,1 5.1335162,-1.5535179 L4.6780687,-1.5535179 A0.15875,0.15875 90 0,1 4.5197813,-1.7001584 L4.5065015,-1.8737419 A0.635,0.635 23.5297633 0,1 3.3023195,-1.9993233 L3.3023195,-1.6794988 A0.15875,0.15875 0 0,1 3.1435695,-1.5207488 L2.7735843,-1.5207488 A0.15875,0.15875 90 0,1 2.6148343,-1.6794988 L2.6148343,-2.7906471 A0.15875,0.15875 180 0,1 2.7735843,-2.9493971 L3.1435695,-2.9493971 A0.15875,0.15875 270 0,1 3.3023195,-2.7906471z" transform="matrix(1,0,0,-1,7.3025,4.28625)" fill="rgb(255,255,255)" stroke="rgb(0,0,0)" stroke-width="0.0010cm" stroke-linecap="round" stroke-linejoin="round" shaper:cutDepth="0.003175" /><path d="M-1.1461662,-3.808666 A0.15875,0.15875 180 0,1 -0.9874162,-3.967416 L1.2101892,-3.967416 A0.15875,0.15875 270 0,1 1.3689392,-3.808666 L1.3689392,-3.4075644 A0.15875,0.15875 0 0,1 1.2101892,-3.2488144 L-0.9874162,-3.2488144 A0.15875,0.15875 90 0,1 -1.1461662,-3.4075644 L-1.1461662,-3.808666z" transform="matrix(1,0,0,-1,7.3025,4.28625)" fill="rgb(255,255,255)" stroke="rgb(0,0,0)" stroke-width="0.0010cm" stroke-linecap="round" stroke-linejoin="round" shaper:cutDepth="0.003175" /><path d="M4.0657696,0.8542065 L4.5211175,0.8542065 A0.15875,0.15875 270 0,1 4.6798675,1.0129565 L4.6798675,1.1098388 A0.15875,0.15875 180 0,0 4.8386175,1.2685888 L5.6204467,1.2685888 A0.15875,0.15875 90 0,0 5.7137678,1.2382628 L7.1585285,0.1884066 A0.15875,0.15875 53.9954299 0,0 7.2239574,0.0599826 L7.2239574,-1.6887244 A0.15875,0.15875 0 0,0 7.0652074,-1.8474744 L6.4025696,-1.8474744 A0.15875,0.15875 270 0,0 6.2438196,-1.6887244 L6.2438196,-0.0528056 A0.15875,0.15875 0 0,1 6.0850696,0.1059444 L4.0657696,0.1059444 A0.15875,0.15875 270 0,0 3.9070196,0.2646944 L3.9070196,0.6954565 A0.15875,0.15875 180 0,0 4.0657696,0.8542065z" transform="matrix(1,0,0,-1,7.3025,4.28625)" fill="rgb(255,255,255)" stroke="rgb(0,0,0)" stroke-width="0.0010cm" stroke-linecap="round" stroke-linejoin="round" shaper:cutDepth="0.003175" /><path d="M2.3270745,-3.8599947 A0.15875,0.15875 180 0,1 2.4858245,-4.0187447 L5.1624976,-4.0187447 A0.15875,0.15875 270 0,1 5.3212476,-3.8599947 L5.3212476,-3.4075644 A0.15875,0.15875 0 0,1 5.1624976,-3.2488144 L2.4858245,-3.2488144 A0.15875,0.15875 90 0,1 2.3270745,-3.4075644 L2.3270745,-3.8599947z" transform="matrix(1,0,0,-1,7.3025,4.28625)" fill="rgb(255,255,255)" stroke="rgb(0,0,0)" stroke-width="0.0010cm" stroke-linecap="round" stroke-linejoin="round" shaper:cutDepth="0.003175" /><path d="M3.9630243,-1.1993305 A0.15875,0.15875 173.3963429 0,1 4.120721,-1.3763369 L4.7243764,-1.3763369 A0.15875,0.15875 270 0,1 4.8805595,-1.2460193 L5.0476381,-0.328233 A0.15875,0.15875 349.6825592 0,1 4.891455,-0.1410506 L4.2269719,-0.1410506 A0.15875,0.15875 90 0,1 4.0692751,-0.2815443 L3.9630243,-1.1993305z" transform="matrix(1,0,0,-1,7.3025,4.28625)" fill="rgb(255,255,255)" stroke="rgb(0,0,0)" stroke-width="0.0010cm" stroke-linecap="round" stroke-linejoin="round" shaper:cutDepth="0.003175" /><path d="M2.8251606,-0.1092101 A0.15875,0.15875 90 0,1 2.6669957,-0.2815769 L2.7543741,-1.2965105 A0.15875,0.15875 184.920616 0,1 2.912539,-1.4416437 L3.4767376,-1.4416437 A0.15875,0.15875 270 0,1 3.635068,-1.2713597 L3.5611325,-0.2564261 A0.15875,0.15875 4.1665049 0,1 3.402802,-0.1092101 L2.8251606,-0.1092101z" transform="matrix(1,0,0,-1,7.3025,4.28625)" fill="rgb(255,255,255)" stroke="rgb(0,0,0)" stroke-width="0.0010cm" stroke-linecap="round" stroke-linejoin="round" shaper:cutDepth="0.003175" /><path d="M-1.88502,-1.70745 a0.155,0.155 0 1,1 0.31,0 a0.155,0.155 0 1,1 -0.31,0z" transform="matrix(1,0,0,-1,7.3025,4.28625)" fill="rgb(255,255,255)" stroke="rgb(0,0,0)" stroke-width="0.0010cm" stroke-linecap="round" stroke-linejoin="round" shaper:cutDepth="0.003175" /><path d="M1.71498,-1.70745 a0.155,0.155 0 1,1 0.31,0 a0.155,0.155 0 1,1 -0.31,0z" transform="matrix(1,0,0,-1,7.3025,4.28625)" fill="rgb(255,255,255)" stroke="rgb(0,0,0)" stroke-width="0.0010cm" stroke-linecap="round" stroke-linejoin="round" shaper:cutDepth="0.003175" /><path d="M-1.8859268,1.0423506 a0.1554753,0.1554753 0 1,1 0.3109507,0 a0.1554753,0.1554753 0 1,1 -0.3109507,0z" transform="matrix(1,0,0,-1,7.3025,4.28625)" fill="rgb(255,255,255)" stroke="rgb(0,0,0)" stroke-width="0.0010cm" stroke-linecap="round" stroke-linejoin="round" shaper:cutDepth="0.003175" /><path d="M1.714802,1.04367 a0.1586123,0.1586123 0 1,1 0.3172247,0 a0.1586123,0.1586123 0 1,1 -0.3172247,0z" transform="matrix(1,0,0,-1,7.3025,4.28625)" fill="rgb(255,255,255)" stroke="rgb(0,0,0)" stroke-width="0.0010cm" stroke-linecap="round" stroke-linejoin="round" shaper:cutDepth="0.003175" /><path d="M-4.7081693,3.1179454 A0.15875,0.15875 0 0,1 -4.8669193,3.2766954 L-5.2567716,3.2766954 A0.15875,0.15875 90 0,1 -5.3392137,3.2536099 L-5.4876605,3.1634002 A0.15875,0.15875 121.2866504 0,1 -5.5639685,3.0277356 L-5.5639685,2.8196117 A0.15875,0.15875 180 0,1 -5.4052185,2.6608617 L-4.8669193,2.6608617 A0.15875,0.15875 270 0,1 -4.7081693,2.8196117 L-4.7081693,3.1179454z" transform="matrix(1,0,0,-1,7.3025,4.28625)" fill="rgb(255,255,255)" stroke="rgb(0,0,0)" stroke-width="0.0010cm" stroke-linecap="round" stroke-linejoin="round" shaper:cutDepth="0.003175" /><path d="M-6.3740951,1.6174839 A0.15875,0.15875 180 0,1 -6.2153451,1.4587339 L-5.8634183,1.4587339 A0.15875,0.15875 270 0,1 -5.7046683,1.6174839 L-5.7046683,2.1301175 A0.15875,0.15875 0 0,1 -5.8634183,2.2888675 L-6.2153451,2.2888675 A0.15875,0.15875 90 0,1 -6.3740951,2.1301175 L-6.3740951,1.6174839z" transform="matrix(1,0,0,-1,7.3025,4.28625)" fill="rgb(255,255,255)" stroke="rgb(0,0,0)" stroke-width="0.0010cm" stroke-linecap="round" stroke-linejoin="round" shaper:cutDepth="0.003175" /><path d="M-3.5936797,1.1010306 A0.15875,0.15875 270 0,1 -3.4349297,1.2597806 L-3.4349297,2.3863774 A0.15875,0.15875 0 0,1 -3.5936797,2.5451274 L-3.94986,2.5451274 A0.15875,0.15875 90 0,1 -4.10861,2.3863774 L-4.10861,1.2597806 A0.15875,0.15875 180 0,1 -3.94986,1.1010306 L-3.5936797,1.1010306z" transform="matrix(1,0,0,-1,7.3025,4.28625)" fill="rgb(255,255,255)" stroke="rgb(0,0,0)" stroke-width="0.0010cm" stroke-linecap="round" stroke-linejoin="round" shaper:cutDepth="0.003175" /><path d="M-2.6406726,2.5266618 L-2.2024346,2.5266618 A0.635,0.635 121.8974765 1,1 -1.5313654,2.5266618 L-1.1952953,2.5266618 A0.15875,0.15875 270 0,1 -1.0425562,2.6421412 L-0.7075381,3.8247083 A0.15875,0.15875 344.1827143 0,1 -0.8602772,4.0267289 L-3.0553012,4.0267289 A0.15875,0.15875 90 0,1 -3.2051099,3.8154534 L-2.7904813,2.6328863 A0.15875,0.15875 199.3215532 0,1 -2.6406726,2.5266618z" transform="matrix(1,0,0,-1,7.3025,4.28625)" fill="rgb(255,255,255)" stroke="rgb(0,0,0)" stroke-width="0.0010cm" stroke-linecap="round" stroke-linejoin="round" shaper:cutDepth="0.003175" /><path d="M-0.4492015,1.2473506 A0.15875,0.15875 180 0,1 -0.2904515,1.0886006 L0.3901599,1.0886006 A0.15875,0.15875 270 0,1 0.5489099,1.2473506 L0.5489099,2.7982042 A0.15875,0.15875 0 0,1 0.3901599,2.9569542 L-0.2904515,2.9569542 A0.15875,0.15875 90 0,1 -0.4492015,2.7982042 L-0.4492015,1.2473506z" transform="matrix(1,0,0,-1,7.3025,4.28625)" fill="rgb(255,255,255)" stroke="rgb(0,0,0)" stroke-width="0.0010cm" stroke-linecap="round" stroke-linejoin="round" shaper:cutDepth="0.003175" /><path d="M4.0657696,2.5266618 A0.15875,0.15875 90 0,1 3.9070196,2.3679118 L3.9070196,1.8553008 A0.15875,0.15875 180 0,1 4.0657696,1.6965508 L4.3555598,1.6965508 A0.15875,0.15875 270 0,1 4.5143098,1.8553008 L4.5143098,2.3679118 A0.15875,0.15875 0 0,1 4.3555598,2.5266618 L4.0657696,2.5266618z" transform="matrix(1,0,0,-1,7.3025,4.28625)" fill="rgb(255,255,255)" stroke="rgb(0,0,0)" stroke-width="0.0010cm" stroke-linecap="round" stroke-linejoin="round" shaper:cutDepth="0.003175" /><path d="M5.3771875,2.6727493 A0.15875,0.15875 270 0,1 5.5359375,2.8314993 L5.5359375,3.1406733 A0.15875,0.15875 0 0,1 5.4442227,3.2845755 L5.1954674,3.4004553 A0.15875,0.15875 65.0220832 0,1 5.1284322,3.4153031 L5.0351372,3.4153031 A0.15875,0.15875 90 0,1 4.8763872,3.2565531 L4.8763872,2.8314993 A0.15875,0.15875 180 0,1 5.0351372,2.6727493 L5.3771875,2.6727493z" transform="matrix(1,0,0,-1,7.3025,4.28625)" fill="rgb(255,255,255)" stroke="rgb(0,0,0)" stroke-width="0.0010cm" stroke-linecap="round" stroke-linejoin="round" shaper:cutDepth="0.003175" /><path d="M1.2073801,-0.2567359 A0.15875,0.15875 347.0534905 0,1 1.0526656,-0.0624193 L0.3886529,-0.0624193 A0.15875,0.15875 90 0,1 0.2314745,-0.1988873 L0.1026064,-1.1079294 A0.15875,0.15875 171.9313738 0,1 0.2597849,-1.2889614 L0.8436904,-1.2889614 A0.15875,0.15875 270 0,1 0.998405,-1.1657779 L1.2073801,-0.2567359z" transform="matrix(1,0,0,-1,7.3025,4.28625)" fill="rgb(255,255,255)" stroke="rgb(0,0,0)" stroke-width="0.0010cm" stroke-linecap="round" stroke-linejoin="round" shaper:cutDepth="0.003175" /><path d="M-2.9749244,-3.3061361 A0.15875,0.15875 0 0,1 -3.1336744,-3.1473861 L-4.3905573,-3.1473861 A0.15875,0.15875 90 0,1 -4.5493073,-3.3061361 L-4.5493073,-3.808666 A0.15875,0.15875 180 0,1 -4.3905573,-3.967416 L-3.1336744,-3.967416 A0.15875,0.15875 270 0,1 -2.9749244,-3.808666 L-2.9749244,-3.3061361z" transform="matrix(1,0,0,-1,7.3025,4.28625)" fill="rgb(255,255,255)" stroke="rgb(0,0,0)" stroke-width="0.0010cm" stroke-linecap="round" stroke-linejoin="round" shaper:cutDepth="0.003175" /><path d="M-5.6893807,0.2323202 A0.15875,0.15875 180 0,1 -5.5306307,0.0735702 L-4.3908309,0.0735702 A0.15875,0.15875 270 0,1 -4.2320809,0.2323202 L-4.2320809,0.6060696 A0.15875,0.15875 0 0,1 -4.2607762,0.6971044 L-4.6343085,1.2307424 A0.15875,0.15875 34.9909874 0,1 -4.7643632,1.2984576 L-5.4332155,1.2984576 A0.15875,0.15875 90 0,1 -5.5890236,1.1701276 L-5.6864389,0.6711773 A0.15875,0.15875 168.9525268 0,1 -5.6893807,0.6407573 L-5.6893807,0.2323202z" transform="matrix(1,0,0,-1,7.3025,4.28625)" fill="rgb(255,255,255)" stroke="rgb(0,0,0)" stroke-width="0.0010cm" stroke-linecap="round" stroke-linejoin="round" shaper:cutDepth="0.003175" /><path d="M-2.0349915,0.8661685 A0.15875,0.15875 90 0,0 -1.9281939,0.8248741 A0.2939355,0.2939355 227.7210429 0,1 -1.5327091,0.8248741 A0.15875,0.15875 132.2789571 0,0 -1.4259115,0.8661685 L-1.2204515,0.8661685 A0.15875,0.15875 90 0,0 -1.0617015,0.7074185 L-1.0617015,0.3101657 A0.15875,0.15875 0 0,0 -1.2204515,0.1514157 L-2.6438539,0.1514157 A0.15875,0.15875 270 0,0 -2.8026039,0.3101657 L-2.8026039,0.7074185 A0.15875,0.15875 180 0,0 -2.6438539,0.8661685 L-2.0349915,0.8661685z" transform="matrix(1,0,0,-1,7.3025,4.28625)" fill="rgb(255,255,255)" stroke="rgb(0,0,0)" stroke-width="0.0010cm" stroke-linecap="round" stroke-linejoin="round" shaper:cutDepth="0.003175" /><path d="M1.5285303,0.9071651 A0.15875,0.15875 90 0,0 1.6491245,0.8516557 A0.2952548,0.2952548 220.5667978 0,1 2.0977042,0.8516557 A0.15875,0.15875 139.4332022 0,0 2.2182983,0.9071651 L3.3398064,0.9071651 A0.15875,0.15875 90 0,0 3.4985564,0.7484151 L3.4985564,0.2996118 A0.15875,0.15875 0 0,0 3.3398064,0.1408618 L-0.3654009,0.1408618 A0.15875,0.15875 270 0,0 -0.5241509,0.2996118 L-0.5241509,0.7484151 A0.15875,0.15875 180 0,0 -0.3654009,0.9071651 L1.5285303,0.9071651z" transform="matrix(1,0,0,-1,7.3025,4.28625)" fill="rgb(255,255,255)" stroke="rgb(0,0,0)" stroke-width="0.0010cm" stroke-linecap="round" stroke-linejoin="round" shaper:cutDepth="0.003175" /><path d="M-5.3212242,-1.6472643 L-5.0932925,-1.2268453 A0.15875,0.15875 331.5354938 0,1 -5.0741016,-1.1511828 L-5.0741016,-0.2679601 A0.15875,0.15875 180 0,0 -4.9153516,-0.1092101 L-4.2302595,-0.1092101 A0.15875,0.15875 90 0,0 -4.0715095,-0.2679601 L-4.0715095,-1.2809553 A0.15875,0.15875 0 0,0 -4.106375,-1.3802235 L-4.3577868,-1.6939797 A0.15875,0.15875 141.2949136 0,1 -4.3926523,-1.793248 L-4.3926523,-1.9063866 A0.635,0.635 159.6461846 0,0 -3.2147177,-1.8746181 L-3.2147177,-1.6488451 A0.15875,0.15875 0 0,1 -3.3199099,-1.4994024 L-3.6686728,-1.3744114 A0.15875,0.15875 250.2831364 0,0 -3.773865,-1.2249687 L-3.773865,-0.7505488 A0.15875,0.15875 180 0,0 -3.7645577,-0.6969909 L-3.5891673,-0.2075986 A0.15875,0.15875 160.2831364 0,0 -3.4495924,-0.1027135 L-2.9712217,-0.0729208 A0.15875,0.15875 93.5637505 0,0 -2.8026039,-0.2313638 L-2.8026039,-1.1152258 A0.15875,0.15875 180 0,1 -2.7431222,-1.2391104 L-2.5366783,-1.4045332 A0.15875,0.15875 51.2949136 0,0 -2.4771966,-1.5284177 L-2.4771966,-2.6763668 A0.15875,0.15875 0 0,0 -2.6359466,-2.8351168 L-3.0559677,-2.8351168 A0.15875,0.15875 270 0,0 -3.2147177,-2.6763668 L-3.2147177,-2.3798819 A0.635,0.635 336.5564387 0,0 -4.3926523,-2.3481134 L-4.3926523,-2.7588333 A0.15875,0.15875 0 0,0 -4.5514023,-2.9175833 L-5.1816651,-2.9175833 A0.15875,0.15875 270 0,0 -5.3404151,-2.7588333 L-5.3404151,-1.7229268 A0.15875,0.15875 180 0,0 -5.3212242,-1.6472643z" transform="matrix(1,0,0,-1,7.3025,4.28625)" fill="rgb(255,255,255)" stroke="rgb(0,0,0)" stroke-width="0.0010cm" stroke-linecap="round" stroke-linejoin="round" shaper:cutDepth="0.003175" /><path d="M1.1519013,2.6018697 L1.8331634,2.6018697 A0.635,0.635 104.6627183 1,1 2.1546366,2.6018697 L2.9245745,2.6018697 A0.15875,0.15875 270 0,1 3.0833245,2.7606197 L3.0833245,3.8806645 A0.15875,0.15875 0 0,1 2.9245745,4.0394145 L0.8456767,4.0394145 A0.15875,0.15875 90 0,1 0.6925468,3.8387982 L0.9987714,2.7187534 A0.15875,0.15875 195.2911953 0,1 1.1519013,2.6018697z" transform="matrix(1,0,0,-1,7.3025,4.28625)" fill="rgb(255,255,255)" stroke="rgb(0,0,0)" stroke-width="0.0010cm" stroke-linecap="round" stroke-linejoin="round" shaper:cutDepth="0.003175" /><path d="M-1.3087564,-1.2956972 L-1.1749044,-1.1046644 A0.15875,0.15875 324.9820206 0,1 -1.1461662,-1.0135684 L-1.1461662,-0.2679601 A0.15875,0.15875 180 0,0 -0.9874162,-0.1092101 L-0.4328174,-0.1092101 A0.15875,0.15875 90 0,0 -0.2740674,-0.2679601 L-0.2740674,-1.2274881 A0.15875,0.15875 0 0,0 -0.3205642,-1.3397413 L-0.487844,-1.5070211 A0.15875,0.15875 135 0,1 -0.5343408,-1.6192743 L-0.5343408,-1.9132141 A0.635,0.635 160.3018731 0,0 0.6013824,-1.7897481 L0.6013824,-1.5597319 A0.15875,0.15875 180 0,0 0.7601324,-1.4009819 L1.1328709,-1.4009819 A0.15875,0.15875 90 0,0 1.2916209,-1.5597319 L1.2916209,-2.7169043 A0.15875,0.15875 0 0,0 1.1328709,-2.8756543 L0.7601324,-2.8756543 A0.15875,0.15875 270 0,0 0.6013824,-2.7169043 L0.6013824,-2.4647519 A0.635,0.635 327.8931988 0,0 -0.5343408,-2.3412859 L-0.5343408,-2.750319 A0.15875,0.15875 0 0,0 -0.6930908,-2.909069 L-1.1787446,-2.909069 A0.15875,0.15875 270 0,0 -1.3374946,-2.750319 L-1.3374946,-1.3867933 A0.15875,0.15875 180 0,0 -1.3087564,-1.2956972z" transform="matrix(1,0,0,-1,7.3025,4.28625)" fill="rgb(255,255,255)" stroke="rgb(0,0,0)" stroke-width="0.0010cm" stroke-linecap="round" stroke-linejoin="round" shaper:cutDepth="0.003175" /></svg>