<?xml version="1.0" encoding="utf-8"?>
<!-- Generator: Fusion 360, Shaper Origin Export Add-In, Version 1.6.10  -->
<svg xmlns="http://www.w3.org/2000/svg" xmlns:xlink="http://www.w3.org/1999/xlink" xmlns:shaper="http://www.shapertools.com/namespaces/shaper" shaper:fusionaddin="version:1.6.10" width="8.810625cm" height="6.429375cm" version="1.1" x="0cm" y="0cm" viewBox="0 0 8.810625 6.429375" enable-background="new 0 0 8.810625 6.429375" xml:space="preserve"><path d="M-3.254375,2.54 A0.47625,0.47625 0 0,0 -3.730625,2.06375 L-4.3037125,2.06375 A0.1016,0.1016 90 0,1 -4.4053125,1.96215 L-4.4053125,-1.4041284 A0.1016,0.1016 180 0,1 -4.3755545,-1.4759705 L-2.6665955,-3.1849295 A0.1016,0.1016 225 0,1 -2.5947534,-3.2146875 L3.152775,-3.2146875 A0.1016,0.1016 270 0,1 3.254375,-3.1130875 L3.254375,-2.54 A0.47625,0.47625 180 0,0 3.730625,-2.06375 L4.3037125,-2.06375 A0.1016,0.1016 270 0,1 4.4053125,-1.96215 L4.4053125,0.053975 A0.1016,0.1016 0 0,1 4.3037125,0.155575 L2.9318416,0.155575 A0.1016,0.1016 90 0,1 2.8586802,0.124473 A1.7653,1.7653 316.0621601 0,0 -0.139873,0.9854153 L-0.139873,0.9854153 -0.1502469,1.0022758 -0.1602133,1.0197097 -0.1697435,1.0376924 -0.1788084,1.0561989 -0.1873794,1.0752043 -0.1954274,1.094684 -0.2029235,1.114613 -0.209839,1.1349665 -0.2161474,1.1557167 -0.2218321,1.1768236 -0.226879,1.1982445 -0.2312741,1.2199364 -0.2350031,1.2418564 -0.238052,1.2639616 -0.2404067,1.2862091 -0.2420532,1.3085561 -0.242981,1.3309594 -0.2431955,1.3533745 -0.2427057,1.3757568 -0.2415207,1.3980615 -0.2396496,1.420244 -0.2371013,1.4422595 -0.2338851,1.4640633 -0.2300099,1.4856108 -0.2254876,1.5068598 -0.2203412,1.5277786 -0.2145965,1.5483382 -0.2082792,1.5685093 -0.2014151,1.5882629 -0.19403,1.6075699 -0.1861497,1.6264012 -0.1778,1.6447276 -0.1778,3.1130875 A0.1016,0.1016 0 0,1 -0.2794,3.2146875 L-3.152775,3.2146875 A0.1016,0.1016 90 0,1 -3.254375,3.1130875 L-3.254375,2.54z" transform="matrix(1,0,0,-1,4.4053125,3.2146875)" fill="rgb(0,0,0)" shaper:cutDepth="0.0047625" stroke-linecap="round" stroke-linejoin="round" /><path d="M-2.5796875,-2.333625 a0.5159375,0.5159375 0 1,1 1.031875,0 a0.5159375,0.5159375 0 1,1 -1.031875,0z" transform="matrix(1,0,0,-1,4.4053125,3.2146875)" fill="rgb(255,255,255)" stroke="rgb(0,0,0)" stroke-width="0.0010cm" stroke-linecap="round" stroke-linejoin="round" shaper:cutDepth="0.0047625" /><path d="M0.6985,-1.571625 a0.9525,0.9525 0 1,1 1.905,0 a0.9525,0.9525 0 1,1 -1.905,0z" transform="matrix(1,0,0,-1,4.4053125,3.2146875)" fill="rgb(255,255,255)" stroke="rgb(0,0,0)" stroke-width="0.0010cm" stroke-linecap="round" stroke-linejoin="round" shaper:cutDepth="0.0047625" /><path d="M-2.501265,2.460625 a0.215265,0.215265 0 1,1 0.43053,0 a0.215265,0.215265 0 1,1 -0.43053,0z" transform="matrix(1,0,0,-1,4.4053125,3.2146875)" fill="rgb(255,255,255)" stroke="rgb(0,0,0)" stroke-width="0.0010cm" stroke-linecap="round" stroke-linejoin="round" shaper:cutDepth="0.0047625" /><path d="M2.959735,-0.936625 a0.215265,0.215265 0 1,1 0.43053,0 a0.215265,0.215265 0 1,1 -0.43053,0z" transform="matrix(1,0,0,-1,4.4053125,3.2146875)" fill="rgb(255,255,255)" stroke="rgb(0,0,0)" stroke-width="0.0010cm" stroke-linecap="round" stroke-linejoin="round" shaper:cutDepth="0.0047625" /></svg>