<?xml version="1.0" encoding="utf-8"?>
<!-- Generator: Fusion 360, Shaper Origin Export Add-In, Version 1.6.10  -->
<svg xmlns="http://www.w3.org/2000/svg" xmlns:xlink="http://www.w3.org/1999/xlink" xmlns:shaper="http://www.shapertools.com/namespaces/shaper" shaper:fusionaddin="version:1.6.10" width="8.89cm" height="6.50875cm" version="1.1" x="0cm" y="0cm" viewBox="0 0 8.89 6.50875" enable-background="new 0 0 8.89 6.50875" xml:space="preserve"><path d="M-4.445,-2.368719 L4.445,-2.368719 4.445,2.393781 2.69875,4.140031 -4.445,4.140031 -4.445,-2.368719z" transform="matrix(1,0,0,-1,4.445,4.140031)" fill="rgb(0,0,0)" shaper:cutDepth="0.003175" stroke-linecap="round" stroke-linejoin="round" /><path d="M-0.473369,-1.073319 A1.27,1.27 331.314598 0,0 -0.5961066,-1.257469 A1.27,1.27 321.3178125 1,0 -0.5961066,0.330031 A1.27,1.27 38.6821875 0,0 -0.473369,0.145881 L-0.1907309,0.145881 A1.524,1.524 23.5781785 1,1 -0.1907309,-1.073319 L-0.473369,-1.073319z" transform="matrix(1,0,0,-1,4.445,4.140031)" fill="rgb(119,119,119)" fill-rule="nonzero" shaper:cutDepth="0.000635" stroke-linecap="round" stroke-linejoin="round" /><path d="M0.7009927,3.307931 a0.163195,0.163195 0 1,1 0.32639,0 a0.163195,0.163195 0 1,1 -0.32639,0z" transform="matrix(1,0,0,-1,4.445,4.140031)" fill="rgb(255,255,255)" stroke="rgb(0,0,0)" stroke-width="0.0010cm" stroke-linecap="round" stroke-linejoin="round" shaper:cutDepth="0.003175" /><path d="M0.7009927,-1.879769 a0.163195,0.163195 0 1,1 0.32639,0 a0.163195,0.163195 0 1,1 -0.32639,0z" transform="matrix(1,0,0,-1,4.445,4.140031)" fill="rgb(255,255,255)" stroke="rgb(0,0,0)" stroke-width="0.0010cm" stroke-linecap="round" stroke-linejoin="round" shaper:cutDepth="0.003175" /><path d="M0.7009927,0.952331 a0.163195,0.163195 0 1,1 0.32639,0 a0.163195,0.163195 0 1,1 -0.32639,0z" transform="matrix(1,0,0,-1,4.445,4.140031)" fill="rgb(255,255,255)" stroke="rgb(0,0,0)" stroke-width="0.0010cm" stroke-linecap="round" stroke-linejoin="round" shaper:cutDepth="0.003175" /><path d="M-3.2253718,1.4716273 L-3.4774813,1.4716273 A0.15875,0.15875 90 0,1 -3.6362313,1.3128773 L-3.6362313,0.7816888 A0.15875,0.15875 180 0,1 -3.4774813,0.6229388 L-3.2253718,0.6229388 A0.15875,0.15875 270 0,1 -3.0666218,0.7816888 L-3.0666218,1.3128773 A0.15875,0.15875 0 0,1 -3.2253718,1.4716273z" transform="matrix(1,0,0,-1,4.445,4.140031)" fill="rgb(255,255,255)" stroke="rgb(0,0,0)" stroke-width="0.0010cm" stroke-linecap="round" stroke-linejoin="round" shaper:cutDepth="0.003175" /><path d="M-1.9939434,3.1526 L-1.9939434,3.4370863 A0.15875,0.15875 0 0,1 -2.1526934,3.5958363 L-2.659099,3.5958363 A0.15875,0.15875 90 0,1 -2.817849,3.4370863 L-2.817849,3.1526 A0.15875,0.15875 180 0,1 -2.659099,2.99385 L-2.1526934,2.99385 A0.15875,0.15875 270 0,1 -1.9939434,3.1526z" transform="matrix(1,0,0,-1,4.445,4.140031)" fill="rgb(255,255,255)" stroke="rgb(0,0,0)" stroke-width="0.0010cm" stroke-linecap="round" stroke-linejoin="round" shaper:cutDepth="0.003175" /><path d="M-1.9538181,1.4672313 L-1.9538181,1.7517176 A0.15875,0.15875 0 0,1 -2.1125681,1.9104676 L-2.6189738,1.9104676 A0.15875,0.15875 90 0,1 -2.7777238,1.7517176 L-2.7777238,1.4672313 A0.15875,0.15875 180 0,1 -2.6189738,1.3084813 L-2.1125681,1.3084813 A0.15875,0.15875 270 0,1 -1.9538181,1.4672313z" transform="matrix(1,0,0,-1,4.445,4.140031)" fill="rgb(255,255,255)" stroke="rgb(0,0,0)" stroke-width="0.0010cm" stroke-linecap="round" stroke-linejoin="round" shaper:cutDepth="0.003175" /><path d="M0.45031,2.8309535 L0.1242353,2.8309535 A0.15875,0.15875 90 0,1 -0.0345147,2.6722035 L-0.0345147,1.6194314 A0.15875,0.15875 0 0,0 -0.1169596,1.4802226 L-0.2408668,1.4123047 A0.15875,0.15875 118.7286846 0,1 -0.3233116,1.2730959 L-0.3233116,0.952669 A0.15875,0.15875 180 0,1 -0.1645616,0.793919 L0.341844,0.793919 A0.15875,0.15875 270 0,1 0.500594,0.952669 L0.500594,1.210414 A0.15875,0.15875 180 0,0 0.5830388,1.3496227 L0.6769026,1.4010728 A0.15875,0.15875 298.7286846 0,1 0.7593474,1.5402815 L0.7593474,2.1215194 A0.15875,0.15875 0 0,1 0.7128506,2.2337726 L0.6555567,2.2910664 A0.15875,0.15875 225 0,0 0.60906,2.4033196 L0.60906,2.6722035 A0.15875,0.15875 0 0,1 0.45031,2.8309535z" transform="matrix(1,0,0,-1,4.445,4.140031)" fill="rgb(255,255,255)" stroke="rgb(0,0,0)" stroke-width="0.0010cm" stroke-linecap="round" stroke-linejoin="round" shaper:cutDepth="0.003175" /><path d="M-1.104419,1.8464711 A0.15875,0.15875 180 0,0 -1.0639583,1.9523447 A0.7361094,0.7361094 318.170182 0,1 -1.1592653,3.0233369 A0.15875,0.15875 232.0004666 0,0 -1.1979923,3.0673197 L-1.3019528,3.2422163 A0.15875,0.15875 210.7277247 0,0 -1.3242405,3.323331 L-1.3242405,3.4718345 A0.15875,0.15875 180 0,0 -1.1654905,3.6305845 L-0.7596879,3.6305845 A0.15875,0.15875 90 0,0 -0.6206968,3.5485355 L-0.2030858,2.7917763 A0.15875,0.15875 28.8917277 0,0 -0.1833269,2.7150753 L-0.1833269,2.2517758 A0.15875,0.15875 0 0,0 -0.1970206,2.1872758 L-0.540476,1.414867 A0.15875,0.15875 336.0274444 0,0 -0.573279,1.3671138 L-0.7319816,1.2084113 A0.15875,0.15875 315 0,0 -0.8442348,1.1619145 L-0.945669,1.1619145 A0.15875,0.15875 270 0,0 -1.104419,1.3206645 L-1.104419,1.8464711z" transform="matrix(1,0,0,-1,4.445,4.140031)" fill="rgb(255,255,255)" stroke="rgb(0,0,0)" stroke-width="0.0010cm" stroke-linecap="round" stroke-linejoin="round" shaper:cutDepth="0.003175" /><path d="M1.113862,2.3010018 L1.2853019,2.5334478 A0.254,0.254 323.5894638 0,1 1.3348866,2.6842138 L1.3348866,3.2969672 A0.254,0.254 180 0,0 1.3477673,3.3768262 L1.4703963,3.7470816 A0.254,0.254 161.6750723 0,0 1.7115156,3.9212226 L2.3079612,3.9212226 A0.254,0.254 90 0,0 2.477627,3.8562452 L4.2202972,2.2919191 A0.15875,0.15875 49.9590406 0,0 4.2769178,2.1703825 L4.2769178,-0.258077 A0.15875,0.15875 0 0,0 4.1977334,-0.3954483 L2.9905646,-1.0946421 A0.15875,0.15875 300.0794815 0,0 2.9109989,-1.1160208 L1.2817714,-1.1160208 A0.15875,0.15875 270 0,0 1.1230214,-0.9572708 L1.1230214,1.5838027 A0.15875,0.15875 0 0,1 1.0950225,1.6738345 L1.0922762,1.6778228 A0.15875,0.15875 214.5502793 0,0 1.0642773,1.7678546 L1.0642773,2.1502358 A0.254,0.254 180 0,0 1.113862,2.3010018z" transform="matrix(1,0,0,-1,4.445,4.140031)" fill="rgb(255,255,255)" stroke="rgb(0,0,0)" stroke-width="0.0010cm" stroke-linecap="round" stroke-linejoin="round" shaper:cutDepth="0.003175" /><path d="M-2.71526,2.457281 a0.1651,0.1651 0 1,1 0.3302,0 a0.1651,0.1651 0 1,1 -0.3302,0z" transform="matrix(1,0,0,-1,4.445,4.140031)" fill="rgb(255,255,255)" stroke="rgb(0,0,0)" stroke-width="0.0010cm" stroke-linecap="round" stroke-linejoin="round" shaper:cutDepth="0.003175" /><path d="M-2.286,2.457281 a0.635,0.635 0 1,1 1.27,0 a0.635,0.635 0 1,1 -1.27,0z" transform="matrix(1,0,0,-1,4.445,4.140031)" fill="rgb(255,255,255)" stroke="rgb(0,0,0)" stroke-width="0.0010cm" stroke-linecap="round" stroke-linejoin="round" shaper:cutDepth="0.003175" /><path d="M0.635,-0.133519 L-0.0997016,-0.133519 A1.524,1.524 12.5133254 0,1 -0.1907309,0.145881 L-0.473369,0.145881 A1.27,1.27 28.685402 0,1 -0.5961066,0.330031 L-1.5875,0.330031 A0.79375,0.79375 90 1,1 -1.5875,-1.257469 L-0.5961066,-1.257469 A1.27,1.27 321.3178125 0,1 -0.473369,-1.073319 L-0.1907309,-1.073319 A1.524,1.524 336.4218215 0,1 -0.0997016,-0.793919 L0.635,-0.793919 A0.3302,0.3302 270 0,1 0.635,-0.133519z" transform="matrix(1,0,0,-1,4.445,4.140031)" fill="rgb(255,255,255)" stroke="rgb(0,0,0)" stroke-width="0.0010cm" stroke-linecap="round" stroke-linejoin="round" shaper:cutDepth="0.003175" /><path d="M-4.025265,-1.733719 a0.215265,0.215265 0 1,1 0.43053,0 a0.215265,0.215265 0 1,1 -0.43053,0z" transform="matrix(1,0,0,-1,4.445,4.140031)" fill="rgb(255,255,255)" stroke="rgb(0,0,0)" stroke-width="0.0010cm" stroke-linecap="round" stroke-linejoin="round" shaper:cutDepth="0.003175" /><path d="M-4.025265,3.505031 a0.215265,0.215265 0 1,1 0.43053,0 a0.215265,0.215265 0 1,1 -0.43053,0z" transform="matrix(1,0,0,-1,4.445,4.140031)" fill="rgb(255,255,255)" stroke="rgb(0,0,0)" stroke-width="0.0010cm" stroke-linecap="round" stroke-linejoin="round" shaper:cutDepth="0.003175" /><path d="M-3.390265,1.822281 a0.215265,0.215265 0 1,1 0.43053,0 a0.215265,0.215265 0 1,1 -0.43053,0z" transform="matrix(1,0,0,-1,4.445,4.140031)" fill="rgb(255,255,255)" stroke="rgb(0,0,0)" stroke-width="0.0010cm" stroke-linecap="round" stroke-linejoin="round" shaper:cutDepth="0.003175" /><path d="M2.070735,-1.574969 a0.215265,0.215265 0 1,1 0.43053,0 a0.215265,0.215265 0 1,1 -0.43053,0z" transform="matrix(1,0,0,-1,4.445,4.140031)" fill="rgb(255,255,255)" stroke="rgb(0,0,0)" stroke-width="0.0010cm" stroke-linecap="round" stroke-linejoin="round" shaper:cutDepth="0.003175" /><path d="M3.594735,-1.733719 a0.215265,0.215265 0 1,1 0.43053,0 a0.215265,0.215265 0 1,1 -0.43053,0z" transform="matrix(1,0,0,-1,4.445,4.140031)" fill="rgb(255,255,255)" stroke="rgb(0,0,0)" stroke-width="0.0010cm" stroke-linecap="round" stroke-linejoin="round" shaper:cutDepth="0.003175" /></svg>