M48
; DRILL file {KiCad (5.1.9)-1} date 10/16/21 13:54:32
; FORMAT={-:-/ absolute / inch / decimal}
; #@! TF.CreationDate,2021-10-16T13:54:32-06:00
; #@! TF.GenerationSoftware,Kicad,Pcbnew,(5.1.9)-1
FMAT,2
INCH
T1C0.0157
T2C0.0295
T3C0.0315
T4C0.0984
%
G90
G05
T1
X5.2353Y-2.4539
X5.2353Y-2.5524
X5.4648Y-2.3622
X5.6026Y-2.3622
X5.6225Y-2.6573
X5.6225Y-2.8148
T2
X4.5266Y-2.2571
X4.6054Y-2.2571
X4.6841Y-2.2571
X4.7628Y-2.2571
X4.8416Y-2.2571
X4.9203Y-2.2571
X5.1565Y-2.2571
X5.2353Y-2.2571
X5.314Y-2.2571
X5.3928Y-2.2571
X5.4715Y-2.2571
X5.7087Y-2.2047
X5.7087Y-2.2835
X5.7087Y-2.3622
X5.7087Y-2.4409
X5.7087Y-2.5197
X5.7087Y-2.5984
X5.7087Y-2.8346
X5.7087Y-2.9134
X5.7087Y-2.9921
X5.7087Y-3.0709
X5.7087Y-3.1496
X5.7087Y-3.2283
T3
X4.4087Y-2.6684
X4.4087Y-3.2684
X4.5087Y-2.6684
X4.5087Y-3.2684
X4.6087Y-2.6684
X4.6087Y-3.2684
X4.7087Y-2.6684
X4.7087Y-3.2684
X4.8087Y-2.6684
X4.8087Y-3.2684
X4.9087Y-2.6684
X4.9087Y-3.2684
X5.0087Y-2.6684
X5.0087Y-3.2684
X5.1087Y-2.6684
X5.1087Y-3.2684
X5.2087Y-2.6684
X5.2087Y-3.2684
X5.3087Y-2.6684
X5.3087Y-3.2684
X5.4087Y-2.6684
X5.4087Y-3.2684
X5.5087Y-2.6684
X5.5087Y-3.2684
T4
X4.4479Y-2.4539
X5.0384Y-2.4539
T0
M30
