G04 #@! TF.GenerationSoftware,KiCad,Pcbnew,(5.1.5-0-10_14)*
G04 #@! TF.CreationDate,2020-07-26T13:08:41+10:00*
G04 #@! TF.ProjectId,EWI_Left,4557495f-4c65-4667-942e-6b696361645f,-*
G04 #@! TF.SameCoordinates,Original*
G04 #@! TF.FileFunction,Soldermask,Bot*
G04 #@! TF.FilePolarity,Negative*
%FSLAX46Y46*%
G04 Gerber Fmt 4.6, Leading zero omitted, Abs format (unit mm)*
G04 Created by KiCad (PCBNEW (5.1.5-0-10_14)) date 2020-07-26 13:08:41*
%MOMM*%
%LPD*%
G04 APERTURE LIST*
%ADD10O,2.200000X1.740000*%
%ADD11C,0.100000*%
%ADD12O,1.600000X1.600000*%
%ADD13R,1.600000X1.600000*%
%ADD14C,1.524000*%
%ADD15C,1.700000*%
%ADD16C,1.600000*%
%ADD17C,1.800000*%
%ADD18R,1.800000X1.800000*%
%ADD19C,2.700000*%
G04 APERTURE END LIST*
D10*
X103786000Y-56588000D03*
D11*
G36*
X104660505Y-53179204D02*
G01*
X104684773Y-53182804D01*
X104708572Y-53188765D01*
X104731671Y-53197030D01*
X104753850Y-53207520D01*
X104774893Y-53220132D01*
X104794599Y-53234747D01*
X104812777Y-53251223D01*
X104829253Y-53269401D01*
X104843868Y-53289107D01*
X104856480Y-53310150D01*
X104866970Y-53332329D01*
X104875235Y-53355428D01*
X104881196Y-53379227D01*
X104884796Y-53403495D01*
X104886000Y-53427999D01*
X104886000Y-54668001D01*
X104884796Y-54692505D01*
X104881196Y-54716773D01*
X104875235Y-54740572D01*
X104866970Y-54763671D01*
X104856480Y-54785850D01*
X104843868Y-54806893D01*
X104829253Y-54826599D01*
X104812777Y-54844777D01*
X104794599Y-54861253D01*
X104774893Y-54875868D01*
X104753850Y-54888480D01*
X104731671Y-54898970D01*
X104708572Y-54907235D01*
X104684773Y-54913196D01*
X104660505Y-54916796D01*
X104636001Y-54918000D01*
X102935999Y-54918000D01*
X102911495Y-54916796D01*
X102887227Y-54913196D01*
X102863428Y-54907235D01*
X102840329Y-54898970D01*
X102818150Y-54888480D01*
X102797107Y-54875868D01*
X102777401Y-54861253D01*
X102759223Y-54844777D01*
X102742747Y-54826599D01*
X102728132Y-54806893D01*
X102715520Y-54785850D01*
X102705030Y-54763671D01*
X102696765Y-54740572D01*
X102690804Y-54716773D01*
X102687204Y-54692505D01*
X102686000Y-54668001D01*
X102686000Y-53427999D01*
X102687204Y-53403495D01*
X102690804Y-53379227D01*
X102696765Y-53355428D01*
X102705030Y-53332329D01*
X102715520Y-53310150D01*
X102728132Y-53289107D01*
X102742747Y-53269401D01*
X102759223Y-53251223D01*
X102777401Y-53234747D01*
X102797107Y-53220132D01*
X102818150Y-53207520D01*
X102840329Y-53197030D01*
X102863428Y-53188765D01*
X102887227Y-53182804D01*
X102911495Y-53179204D01*
X102935999Y-53178000D01*
X104636001Y-53178000D01*
X104660505Y-53179204D01*
G37*
D10*
X103786000Y-50492000D03*
D11*
G36*
X104660505Y-47083204D02*
G01*
X104684773Y-47086804D01*
X104708572Y-47092765D01*
X104731671Y-47101030D01*
X104753850Y-47111520D01*
X104774893Y-47124132D01*
X104794599Y-47138747D01*
X104812777Y-47155223D01*
X104829253Y-47173401D01*
X104843868Y-47193107D01*
X104856480Y-47214150D01*
X104866970Y-47236329D01*
X104875235Y-47259428D01*
X104881196Y-47283227D01*
X104884796Y-47307495D01*
X104886000Y-47331999D01*
X104886000Y-48572001D01*
X104884796Y-48596505D01*
X104881196Y-48620773D01*
X104875235Y-48644572D01*
X104866970Y-48667671D01*
X104856480Y-48689850D01*
X104843868Y-48710893D01*
X104829253Y-48730599D01*
X104812777Y-48748777D01*
X104794599Y-48765253D01*
X104774893Y-48779868D01*
X104753850Y-48792480D01*
X104731671Y-48802970D01*
X104708572Y-48811235D01*
X104684773Y-48817196D01*
X104660505Y-48820796D01*
X104636001Y-48822000D01*
X102935999Y-48822000D01*
X102911495Y-48820796D01*
X102887227Y-48817196D01*
X102863428Y-48811235D01*
X102840329Y-48802970D01*
X102818150Y-48792480D01*
X102797107Y-48779868D01*
X102777401Y-48765253D01*
X102759223Y-48748777D01*
X102742747Y-48730599D01*
X102728132Y-48710893D01*
X102715520Y-48689850D01*
X102705030Y-48667671D01*
X102696765Y-48644572D01*
X102690804Y-48620773D01*
X102687204Y-48596505D01*
X102686000Y-48572001D01*
X102686000Y-47331999D01*
X102687204Y-47307495D01*
X102690804Y-47283227D01*
X102696765Y-47259428D01*
X102705030Y-47236329D01*
X102715520Y-47214150D01*
X102728132Y-47193107D01*
X102742747Y-47173401D01*
X102759223Y-47155223D01*
X102777401Y-47138747D01*
X102797107Y-47124132D01*
X102818150Y-47111520D01*
X102840329Y-47101030D01*
X102863428Y-47092765D01*
X102887227Y-47086804D01*
X102911495Y-47083204D01*
X102935999Y-47082000D01*
X104636001Y-47082000D01*
X104660505Y-47083204D01*
G37*
D10*
X121566000Y-57096000D03*
X121566000Y-54556000D03*
X121566000Y-52016000D03*
X121566000Y-49476000D03*
X121566000Y-46936000D03*
X121566000Y-44396000D03*
X121566000Y-41856000D03*
D11*
G36*
X122440505Y-38447204D02*
G01*
X122464773Y-38450804D01*
X122488572Y-38456765D01*
X122511671Y-38465030D01*
X122533850Y-38475520D01*
X122554893Y-38488132D01*
X122574599Y-38502747D01*
X122592777Y-38519223D01*
X122609253Y-38537401D01*
X122623868Y-38557107D01*
X122636480Y-38578150D01*
X122646970Y-38600329D01*
X122655235Y-38623428D01*
X122661196Y-38647227D01*
X122664796Y-38671495D01*
X122666000Y-38695999D01*
X122666000Y-39936001D01*
X122664796Y-39960505D01*
X122661196Y-39984773D01*
X122655235Y-40008572D01*
X122646970Y-40031671D01*
X122636480Y-40053850D01*
X122623868Y-40074893D01*
X122609253Y-40094599D01*
X122592777Y-40112777D01*
X122574599Y-40129253D01*
X122554893Y-40143868D01*
X122533850Y-40156480D01*
X122511671Y-40166970D01*
X122488572Y-40175235D01*
X122464773Y-40181196D01*
X122440505Y-40184796D01*
X122416001Y-40186000D01*
X120715999Y-40186000D01*
X120691495Y-40184796D01*
X120667227Y-40181196D01*
X120643428Y-40175235D01*
X120620329Y-40166970D01*
X120598150Y-40156480D01*
X120577107Y-40143868D01*
X120557401Y-40129253D01*
X120539223Y-40112777D01*
X120522747Y-40094599D01*
X120508132Y-40074893D01*
X120495520Y-40053850D01*
X120485030Y-40031671D01*
X120476765Y-40008572D01*
X120470804Y-39984773D01*
X120467204Y-39960505D01*
X120466000Y-39936001D01*
X120466000Y-38695999D01*
X120467204Y-38671495D01*
X120470804Y-38647227D01*
X120476765Y-38623428D01*
X120485030Y-38600329D01*
X120495520Y-38578150D01*
X120508132Y-38557107D01*
X120522747Y-38537401D01*
X120539223Y-38519223D01*
X120557401Y-38502747D01*
X120577107Y-38488132D01*
X120598150Y-38475520D01*
X120620329Y-38465030D01*
X120643428Y-38456765D01*
X120667227Y-38450804D01*
X120691495Y-38447204D01*
X120715999Y-38446000D01*
X122416001Y-38446000D01*
X122440505Y-38447204D01*
G37*
D10*
X121312000Y-76908000D03*
X121312000Y-74368000D03*
X121312000Y-71828000D03*
X121312000Y-69288000D03*
X121312000Y-66748000D03*
D11*
G36*
X122186505Y-63339204D02*
G01*
X122210773Y-63342804D01*
X122234572Y-63348765D01*
X122257671Y-63357030D01*
X122279850Y-63367520D01*
X122300893Y-63380132D01*
X122320599Y-63394747D01*
X122338777Y-63411223D01*
X122355253Y-63429401D01*
X122369868Y-63449107D01*
X122382480Y-63470150D01*
X122392970Y-63492329D01*
X122401235Y-63515428D01*
X122407196Y-63539227D01*
X122410796Y-63563495D01*
X122412000Y-63587999D01*
X122412000Y-64828001D01*
X122410796Y-64852505D01*
X122407196Y-64876773D01*
X122401235Y-64900572D01*
X122392970Y-64923671D01*
X122382480Y-64945850D01*
X122369868Y-64966893D01*
X122355253Y-64986599D01*
X122338777Y-65004777D01*
X122320599Y-65021253D01*
X122300893Y-65035868D01*
X122279850Y-65048480D01*
X122257671Y-65058970D01*
X122234572Y-65067235D01*
X122210773Y-65073196D01*
X122186505Y-65076796D01*
X122162001Y-65078000D01*
X120461999Y-65078000D01*
X120437495Y-65076796D01*
X120413227Y-65073196D01*
X120389428Y-65067235D01*
X120366329Y-65058970D01*
X120344150Y-65048480D01*
X120323107Y-65035868D01*
X120303401Y-65021253D01*
X120285223Y-65004777D01*
X120268747Y-64986599D01*
X120254132Y-64966893D01*
X120241520Y-64945850D01*
X120231030Y-64923671D01*
X120222765Y-64900572D01*
X120216804Y-64876773D01*
X120213204Y-64852505D01*
X120212000Y-64828001D01*
X120212000Y-63587999D01*
X120213204Y-63563495D01*
X120216804Y-63539227D01*
X120222765Y-63515428D01*
X120231030Y-63492329D01*
X120241520Y-63470150D01*
X120254132Y-63449107D01*
X120268747Y-63429401D01*
X120285223Y-63411223D01*
X120303401Y-63394747D01*
X120323107Y-63380132D01*
X120344150Y-63367520D01*
X120366329Y-63357030D01*
X120389428Y-63348765D01*
X120413227Y-63342804D01*
X120437495Y-63339204D01*
X120461999Y-63338000D01*
X122162001Y-63338000D01*
X122186505Y-63339204D01*
G37*
D10*
X103532000Y-63954000D03*
D11*
G36*
X104406505Y-60545204D02*
G01*
X104430773Y-60548804D01*
X104454572Y-60554765D01*
X104477671Y-60563030D01*
X104499850Y-60573520D01*
X104520893Y-60586132D01*
X104540599Y-60600747D01*
X104558777Y-60617223D01*
X104575253Y-60635401D01*
X104589868Y-60655107D01*
X104602480Y-60676150D01*
X104612970Y-60698329D01*
X104621235Y-60721428D01*
X104627196Y-60745227D01*
X104630796Y-60769495D01*
X104632000Y-60793999D01*
X104632000Y-62034001D01*
X104630796Y-62058505D01*
X104627196Y-62082773D01*
X104621235Y-62106572D01*
X104612970Y-62129671D01*
X104602480Y-62151850D01*
X104589868Y-62172893D01*
X104575253Y-62192599D01*
X104558777Y-62210777D01*
X104540599Y-62227253D01*
X104520893Y-62241868D01*
X104499850Y-62254480D01*
X104477671Y-62264970D01*
X104454572Y-62273235D01*
X104430773Y-62279196D01*
X104406505Y-62282796D01*
X104382001Y-62284000D01*
X102681999Y-62284000D01*
X102657495Y-62282796D01*
X102633227Y-62279196D01*
X102609428Y-62273235D01*
X102586329Y-62264970D01*
X102564150Y-62254480D01*
X102543107Y-62241868D01*
X102523401Y-62227253D01*
X102505223Y-62210777D01*
X102488747Y-62192599D01*
X102474132Y-62172893D01*
X102461520Y-62151850D01*
X102451030Y-62129671D01*
X102442765Y-62106572D01*
X102436804Y-62082773D01*
X102433204Y-62058505D01*
X102432000Y-62034001D01*
X102432000Y-60793999D01*
X102433204Y-60769495D01*
X102436804Y-60745227D01*
X102442765Y-60721428D01*
X102451030Y-60698329D01*
X102461520Y-60676150D01*
X102474132Y-60655107D01*
X102488747Y-60635401D01*
X102505223Y-60617223D01*
X102523401Y-60600747D01*
X102543107Y-60586132D01*
X102564150Y-60573520D01*
X102586329Y-60563030D01*
X102609428Y-60554765D01*
X102633227Y-60548804D01*
X102657495Y-60545204D01*
X102681999Y-60544000D01*
X104382001Y-60544000D01*
X104406505Y-60545204D01*
G37*
D12*
X84482000Y-66748000D03*
D13*
X76862000Y-66748000D03*
D12*
X62130000Y-66494000D03*
D13*
X54510000Y-66494000D03*
D14*
X88966900Y-54798900D03*
X94757900Y-54758900D03*
D15*
X89677900Y-57933900D03*
X89677900Y-51583900D03*
X94122900Y-57933900D03*
X94122900Y-51583900D03*
D14*
X64986900Y-54798900D03*
X70777900Y-54758900D03*
D15*
X65697900Y-57933900D03*
X65697900Y-51583900D03*
X70142900Y-57933900D03*
X70142900Y-51583900D03*
D12*
X73052000Y-66494000D03*
D16*
X65432000Y-66494000D03*
D17*
X62020000Y-57530000D03*
D18*
X62020000Y-60070000D03*
D17*
X62130000Y-49190000D03*
D18*
X62130000Y-51730000D03*
D17*
X73660000Y-57710000D03*
D18*
X73660000Y-60250000D03*
D17*
X73690000Y-49190000D03*
D18*
X73690000Y-51730000D03*
D17*
X85940000Y-57880000D03*
D18*
X85940000Y-60420000D03*
D17*
X85970000Y-49150000D03*
D18*
X85970000Y-51690000D03*
D17*
X97720000Y-57810000D03*
D18*
X97720000Y-60350000D03*
D17*
X97750000Y-49150000D03*
D18*
X97750000Y-51690000D03*
D17*
X109120000Y-74698900D03*
D18*
X109120000Y-77238900D03*
D17*
X109120000Y-65708900D03*
D18*
X109120000Y-68248900D03*
D17*
X109120000Y-56718900D03*
D18*
X109120000Y-59258900D03*
D17*
X109120000Y-47728900D03*
D18*
X109120000Y-50268900D03*
D17*
X109120000Y-38728900D03*
D18*
X109120000Y-41268900D03*
D17*
X116486000Y-74698900D03*
D18*
X116486000Y-77238900D03*
D17*
X116486000Y-65708900D03*
D18*
X116486000Y-68248900D03*
D17*
X116486000Y-56718900D03*
D18*
X116486000Y-59258900D03*
D17*
X116486000Y-47728900D03*
D18*
X116486000Y-50268900D03*
D17*
X116486000Y-38728900D03*
D18*
X116486000Y-41268900D03*
D17*
X126392000Y-83688900D03*
D18*
X126392000Y-86228900D03*
D17*
X126392000Y-74698900D03*
D18*
X126392000Y-77238900D03*
D17*
X126392000Y-65708900D03*
D18*
X126392000Y-68248900D03*
D17*
X126392000Y-56718900D03*
D18*
X126392000Y-59258900D03*
D17*
X126392000Y-47728900D03*
D18*
X126392000Y-50268900D03*
D17*
X126392000Y-38728900D03*
D18*
X126392000Y-41268900D03*
D17*
X134266000Y-83688900D03*
D18*
X134266000Y-86228900D03*
D17*
X134266000Y-74698900D03*
D18*
X134266000Y-77238900D03*
D17*
X134266000Y-65708900D03*
D18*
X134266000Y-68248900D03*
D17*
X134266000Y-56718900D03*
D18*
X134266000Y-59258900D03*
D17*
X134266000Y-47728900D03*
D18*
X134266000Y-50268900D03*
D17*
X134266000Y-38728900D03*
D18*
X134266000Y-41268900D03*
D19*
X135030000Y-28900000D03*
X134530000Y-103070000D03*
X42960000Y-62660000D03*
M02*
