%TF.GenerationSoftware,KiCad,Pcbnew,(5.1.6)-1*%
%TF.CreationDate,2020-11-25T10:01:43+11:00*%
%TF.ProjectId,INTR LT Panel PCB V1,494e5452-204c-4542-9050-616e656c2050,rev?*%
%TF.SameCoordinates,Original*%
%TF.FileFunction,Legend,Top*%
%TF.FilePolarity,Positive*%
%FSLAX46Y46*%
G04 Gerber Fmt 4.6, Leading zero omitted, Abs format (unit mm)*
G04 Created by KiCad (PCBNEW (5.1.6)-1) date 2020-11-25 10:01:43*
%MOMM*%
%LPD*%
G01*
G04 APERTURE LIST*
%ADD10C,0.120000*%
%ADD11C,0.150000*%
G04 APERTURE END LIST*
D10*
%TO.C,D54*%
X56790400Y-115055000D02*
X64090400Y-115055000D01*
X56790400Y-120555000D02*
X64090400Y-120555000D01*
X64090400Y-120555000D02*
X64090400Y-119405000D01*
%TO.C,D53*%
X54233000Y-110573000D02*
X54233000Y-109423000D01*
X46933000Y-110573000D02*
X54233000Y-110573000D01*
X46933000Y-105073000D02*
X54233000Y-105073000D01*
%TO.C,D52*%
X63811000Y-100717600D02*
X63811000Y-99567600D01*
X56511000Y-100717600D02*
X63811000Y-100717600D01*
X56511000Y-95217600D02*
X63811000Y-95217600D01*
%TO.C,D51*%
X74135000Y-111183000D02*
X74135000Y-110033000D01*
X66835000Y-111183000D02*
X74135000Y-111183000D01*
X66835000Y-105683000D02*
X74135000Y-105683000D01*
%TO.C,D50*%
X88931600Y-127972000D02*
X88931600Y-126822000D01*
X81631600Y-127972000D02*
X88931600Y-127972000D01*
X81631600Y-122472000D02*
X88931600Y-122472000D01*
%TO.C,D49*%
X91674800Y-120199000D02*
X91674800Y-119049000D01*
X84374800Y-120199000D02*
X91674800Y-120199000D01*
X84374800Y-114699000D02*
X91674800Y-114699000D01*
%TO.C,D48*%
X101250600Y-120149000D02*
X101250600Y-118999000D01*
X93950600Y-120149000D02*
X101250600Y-120149000D01*
X93950600Y-114649000D02*
X101250600Y-114649000D01*
%TO.C,D47*%
X103308000Y-127997000D02*
X103308000Y-126847000D01*
X96008000Y-127997000D02*
X103308000Y-127997000D01*
X96008000Y-122497000D02*
X103308000Y-122497000D01*
%TO.C,D46*%
X127590000Y-127819000D02*
X127590000Y-126669000D01*
X120290000Y-127819000D02*
X127590000Y-127819000D01*
X120290000Y-122319000D02*
X127590000Y-122319000D01*
%TO.C,D45*%
X130410000Y-119463000D02*
X130410000Y-118313000D01*
X123110000Y-119463000D02*
X130410000Y-119463000D01*
X123110000Y-113963000D02*
X130410000Y-113963000D01*
%TO.C,D44*%
X139515000Y-119463000D02*
X139515000Y-118313000D01*
X132215000Y-119463000D02*
X139515000Y-119463000D01*
X132215000Y-113963000D02*
X139515000Y-113963000D01*
%TO.C,D43*%
X142729000Y-127794000D02*
X142729000Y-126644000D01*
X135429000Y-127794000D02*
X142729000Y-127794000D01*
X135429000Y-122294000D02*
X142729000Y-122294000D01*
%TO.C,D42*%
X154108000Y-104960000D02*
X154108000Y-103810000D01*
X146808000Y-104960000D02*
X154108000Y-104960000D01*
X146808000Y-99460000D02*
X154108000Y-99460000D01*
%TO.C,D41*%
X154083000Y-111869000D02*
X154083000Y-110719000D01*
X146783000Y-111869000D02*
X154083000Y-111869000D01*
X146783000Y-106369000D02*
X154083000Y-106369000D01*
%TO.C,D40*%
X166566000Y-120555000D02*
X166566000Y-119405000D01*
X159266000Y-120555000D02*
X166566000Y-120555000D01*
X159266000Y-115055000D02*
X166566000Y-115055000D01*
%TO.C,D39*%
X176485000Y-108668000D02*
X176485000Y-107518000D01*
X169185000Y-108668000D02*
X176485000Y-108668000D01*
X169185000Y-103168000D02*
X176485000Y-103168000D01*
%TO.C,D38*%
X166376000Y-100717600D02*
X166376000Y-99567600D01*
X159076000Y-100717600D02*
X166376000Y-100717600D01*
X159076000Y-95217600D02*
X166376000Y-95217600D01*
%TO.C,D37*%
X169399000Y-94647400D02*
X169399000Y-93497400D01*
X162099000Y-94647400D02*
X169399000Y-94647400D01*
X162099000Y-89147400D02*
X169399000Y-89147400D01*
%TO.C,D36*%
X162439000Y-94596200D02*
X162439000Y-93446200D01*
X155139000Y-94596200D02*
X162439000Y-94596200D01*
X155139000Y-89096200D02*
X162439000Y-89096200D01*
%TO.C,D35*%
X161271000Y-86315800D02*
X161271000Y-85165800D01*
X153971000Y-86315800D02*
X161271000Y-86315800D01*
X153971000Y-80815800D02*
X161271000Y-80815800D01*
%TO.C,D34*%
X160622000Y-80067600D02*
X160622000Y-78917600D01*
X153322000Y-80067600D02*
X160622000Y-80067600D01*
X153322000Y-74567600D02*
X160622000Y-74567600D01*
%TO.C,D33*%
X149053000Y-80321400D02*
X149053000Y-79171400D01*
X141753000Y-80321400D02*
X149053000Y-80321400D01*
X141753000Y-74821400D02*
X149053000Y-74821400D01*
%TO.C,D32*%
X147451000Y-86595200D02*
X147451000Y-85445200D01*
X140151000Y-86595200D02*
X147451000Y-86595200D01*
X140151000Y-81095200D02*
X147451000Y-81095200D01*
%TO.C,D31*%
X139071000Y-95307400D02*
X139071000Y-94157400D01*
X131771000Y-95307400D02*
X139071000Y-95307400D01*
X131771000Y-89807400D02*
X139071000Y-89807400D01*
%TO.C,D30*%
X130802000Y-95256800D02*
X130802000Y-94106800D01*
X123502000Y-95256800D02*
X130802000Y-95256800D01*
X123502000Y-89756800D02*
X130802000Y-89756800D01*
%TO.C,D29*%
X122460000Y-86621000D02*
X122460000Y-85471000D01*
X115160000Y-86621000D02*
X122460000Y-86621000D01*
X115160000Y-81121000D02*
X122460000Y-81121000D01*
%TO.C,D28*%
X122471000Y-80956600D02*
X122471000Y-79806600D01*
X115171000Y-80956600D02*
X122471000Y-80956600D01*
X115171000Y-75456600D02*
X122471000Y-75456600D01*
%TO.C,D27*%
X109861000Y-81058000D02*
X109861000Y-79908000D01*
X102561000Y-81058000D02*
X109861000Y-81058000D01*
X102561000Y-75558000D02*
X109861000Y-75558000D01*
%TO.C,D26*%
X108462000Y-86849200D02*
X108462000Y-85699200D01*
X101162000Y-86849200D02*
X108462000Y-86849200D01*
X101162000Y-81349200D02*
X108462000Y-81349200D01*
%TO.C,D25*%
X110381000Y-95383800D02*
X110381000Y-94233800D01*
X103081000Y-95383800D02*
X110381000Y-95383800D01*
X103081000Y-89883800D02*
X110381000Y-89883800D01*
%TO.C,D24*%
X101440000Y-95383800D02*
X101440000Y-94233800D01*
X94140000Y-95383800D02*
X101440000Y-95383800D01*
X94140000Y-89883800D02*
X101440000Y-89883800D01*
%TO.C,D23*%
X93097200Y-95409000D02*
X93097200Y-94259000D01*
X85797200Y-95409000D02*
X93097200Y-95409000D01*
X85797200Y-89909000D02*
X93097200Y-89909000D01*
%TO.C,D22*%
X84599800Y-95333000D02*
X84599800Y-94183000D01*
X77299800Y-95333000D02*
X84599800Y-95333000D01*
X77299800Y-89833000D02*
X84599800Y-89833000D01*
%TO.C,D21*%
X84142600Y-86468400D02*
X84142600Y-85318400D01*
X76842600Y-86468400D02*
X84142600Y-86468400D01*
X76842600Y-80968400D02*
X84142600Y-80968400D01*
%TO.C,D20*%
X83392200Y-79610200D02*
X83392200Y-78460200D01*
X76092200Y-79610200D02*
X83392200Y-79610200D01*
X76092200Y-74110200D02*
X83392200Y-74110200D01*
%TO.C,D19*%
X71188600Y-79966000D02*
X71188600Y-78816000D01*
X63888600Y-79966000D02*
X71188600Y-79966000D01*
X63888600Y-74466000D02*
X71188600Y-74466000D01*
%TO.C,D18*%
X69523800Y-86519000D02*
X69523800Y-85369000D01*
X62223800Y-86519000D02*
X69523800Y-86519000D01*
X62223800Y-81019000D02*
X69523800Y-81019000D01*
%TO.C,D17*%
X71431000Y-95002600D02*
X71431000Y-93852600D01*
X64131000Y-95002600D02*
X71431000Y-95002600D01*
X64131000Y-89502600D02*
X71431000Y-89502600D01*
%TO.C,D16*%
X63885000Y-94926400D02*
X63885000Y-93776400D01*
X56585000Y-94926400D02*
X63885000Y-94926400D01*
X56585000Y-89426400D02*
X63885000Y-89426400D01*
%TO.C,D15*%
X56036400Y-94875600D02*
X56036400Y-93725600D01*
X48736400Y-94875600D02*
X56036400Y-94875600D01*
X48736400Y-89375600D02*
X56036400Y-89375600D01*
%TO.C,D14*%
X47859800Y-104604000D02*
X47859800Y-103454000D01*
X40559800Y-104604000D02*
X47859800Y-104604000D01*
X40559800Y-99104000D02*
X47859800Y-99104000D01*
%TO.C,D13*%
X48215400Y-89744800D02*
X48215400Y-88594800D01*
X40915400Y-89744800D02*
X48215400Y-89744800D01*
X40915400Y-84244800D02*
X48215400Y-84244800D01*
%TO.C,D12*%
X48227000Y-82531400D02*
X48227000Y-81381400D01*
X40927000Y-82531400D02*
X48227000Y-82531400D01*
X40927000Y-77031400D02*
X48227000Y-77031400D01*
%TO.C,D11*%
X48164600Y-75368400D02*
X48164600Y-74218400D01*
X40864600Y-75368400D02*
X48164600Y-75368400D01*
X40864600Y-69868400D02*
X48164600Y-69868400D01*
%TO.C,D10*%
X66399600Y-53651400D02*
X66399600Y-52501400D01*
X59099600Y-53651400D02*
X66399600Y-53651400D01*
X59099600Y-48151400D02*
X66399600Y-48151400D01*
%TO.C,D9*%
X74222800Y-53626000D02*
X74222800Y-52476000D01*
X66922800Y-53626000D02*
X74222800Y-53626000D01*
X66922800Y-48126000D02*
X74222800Y-48126000D01*
%TO.C,D8*%
X82226000Y-53651800D02*
X82226000Y-52501800D01*
X74926000Y-53651800D02*
X82226000Y-53651800D01*
X74926000Y-48151800D02*
X82226000Y-48151800D01*
%TO.C,D7*%
X89490400Y-53600600D02*
X89490400Y-52450600D01*
X82190400Y-53600600D02*
X89490400Y-53600600D01*
X82190400Y-48100600D02*
X89490400Y-48100600D01*
%TO.C,D6*%
X106379000Y-54007000D02*
X106379000Y-52857000D01*
X99079000Y-54007000D02*
X106379000Y-54007000D01*
X99079000Y-48507000D02*
X106379000Y-48507000D01*
%TO.C,D5*%
X115881000Y-54007000D02*
X115881000Y-52857000D01*
X108581000Y-54007000D02*
X115881000Y-54007000D01*
X108581000Y-48507000D02*
X115881000Y-48507000D01*
%TO.C,D4*%
X124337000Y-54032800D02*
X124337000Y-52882800D01*
X117037000Y-54032800D02*
X124337000Y-54032800D01*
X117037000Y-48532800D02*
X124337000Y-48532800D01*
%TO.C,D3*%
X149700000Y-54159600D02*
X149700000Y-53009600D01*
X142400000Y-54159600D02*
X149700000Y-54159600D01*
X142400000Y-48659600D02*
X149700000Y-48659600D01*
%TO.C,D2*%
X157930000Y-54108800D02*
X157930000Y-52958800D01*
X150630000Y-54108800D02*
X157930000Y-54108800D01*
X150630000Y-48608800D02*
X157930000Y-48608800D01*
%TO.C,C23*%
D11*
X162654542Y-86383057D02*
X162702161Y-86430676D01*
X162749780Y-86573533D01*
X162749780Y-86668771D01*
X162702161Y-86811628D01*
X162606923Y-86906866D01*
X162511685Y-86954485D01*
X162321209Y-87002104D01*
X162178352Y-87002104D01*
X161987876Y-86954485D01*
X161892638Y-86906866D01*
X161797400Y-86811628D01*
X161749780Y-86668771D01*
X161749780Y-86573533D01*
X161797400Y-86430676D01*
X161845019Y-86383057D01*
X161845019Y-86002104D02*
X161797400Y-85954485D01*
X161749780Y-85859247D01*
X161749780Y-85621152D01*
X161797400Y-85525914D01*
X161845019Y-85478295D01*
X161940257Y-85430676D01*
X162035495Y-85430676D01*
X162178352Y-85478295D01*
X162749780Y-86049723D01*
X162749780Y-85430676D01*
X161749780Y-85097342D02*
X161749780Y-84478295D01*
X162130733Y-84811628D01*
X162130733Y-84668771D01*
X162178352Y-84573533D01*
X162225971Y-84525914D01*
X162321209Y-84478295D01*
X162559304Y-84478295D01*
X162654542Y-84525914D01*
X162702161Y-84573533D01*
X162749780Y-84668771D01*
X162749780Y-84954485D01*
X162702161Y-85049723D01*
X162654542Y-85097342D01*
%TO.C,C22*%
X159656542Y-73246542D02*
X159608923Y-73294161D01*
X159466066Y-73341780D01*
X159370828Y-73341780D01*
X159227971Y-73294161D01*
X159132733Y-73198923D01*
X159085114Y-73103685D01*
X159037495Y-72913209D01*
X159037495Y-72770352D01*
X159085114Y-72579876D01*
X159132733Y-72484638D01*
X159227971Y-72389400D01*
X159370828Y-72341780D01*
X159466066Y-72341780D01*
X159608923Y-72389400D01*
X159656542Y-72437019D01*
X160037495Y-72437019D02*
X160085114Y-72389400D01*
X160180352Y-72341780D01*
X160418447Y-72341780D01*
X160513685Y-72389400D01*
X160561304Y-72437019D01*
X160608923Y-72532257D01*
X160608923Y-72627495D01*
X160561304Y-72770352D01*
X159989876Y-73341780D01*
X160608923Y-73341780D01*
X160989876Y-72437019D02*
X161037495Y-72389400D01*
X161132733Y-72341780D01*
X161370828Y-72341780D01*
X161466066Y-72389400D01*
X161513685Y-72437019D01*
X161561304Y-72532257D01*
X161561304Y-72627495D01*
X161513685Y-72770352D01*
X160942257Y-73341780D01*
X161561304Y-73341780D01*
%TO.C,C21*%
X158040342Y-96654857D02*
X158087961Y-96702476D01*
X158135580Y-96845333D01*
X158135580Y-96940571D01*
X158087961Y-97083428D01*
X157992723Y-97178666D01*
X157897485Y-97226285D01*
X157707009Y-97273904D01*
X157564152Y-97273904D01*
X157373676Y-97226285D01*
X157278438Y-97178666D01*
X157183200Y-97083428D01*
X157135580Y-96940571D01*
X157135580Y-96845333D01*
X157183200Y-96702476D01*
X157230819Y-96654857D01*
X157230819Y-96273904D02*
X157183200Y-96226285D01*
X157135580Y-96131047D01*
X157135580Y-95892952D01*
X157183200Y-95797714D01*
X157230819Y-95750095D01*
X157326057Y-95702476D01*
X157421295Y-95702476D01*
X157564152Y-95750095D01*
X158135580Y-96321523D01*
X158135580Y-95702476D01*
X158135580Y-94750095D02*
X158135580Y-95321523D01*
X158135580Y-95035809D02*
X157135580Y-95035809D01*
X157278438Y-95131047D01*
X157373676Y-95226285D01*
X157421295Y-95321523D01*
%TO.C,C20*%
X172635942Y-111101142D02*
X172588323Y-111148761D01*
X172445466Y-111196380D01*
X172350228Y-111196380D01*
X172207371Y-111148761D01*
X172112133Y-111053523D01*
X172064514Y-110958285D01*
X172016895Y-110767809D01*
X172016895Y-110624952D01*
X172064514Y-110434476D01*
X172112133Y-110339238D01*
X172207371Y-110244000D01*
X172350228Y-110196380D01*
X172445466Y-110196380D01*
X172588323Y-110244000D01*
X172635942Y-110291619D01*
X173016895Y-110291619D02*
X173064514Y-110244000D01*
X173159752Y-110196380D01*
X173397847Y-110196380D01*
X173493085Y-110244000D01*
X173540704Y-110291619D01*
X173588323Y-110386857D01*
X173588323Y-110482095D01*
X173540704Y-110624952D01*
X172969276Y-111196380D01*
X173588323Y-111196380D01*
X174207371Y-110196380D02*
X174302609Y-110196380D01*
X174397847Y-110244000D01*
X174445466Y-110291619D01*
X174493085Y-110386857D01*
X174540704Y-110577333D01*
X174540704Y-110815428D01*
X174493085Y-111005904D01*
X174445466Y-111101142D01*
X174397847Y-111148761D01*
X174302609Y-111196380D01*
X174207371Y-111196380D01*
X174112133Y-111148761D01*
X174064514Y-111101142D01*
X174016895Y-111005904D01*
X173969276Y-110815428D01*
X173969276Y-110577333D01*
X174016895Y-110386857D01*
X174064514Y-110291619D01*
X174112133Y-110244000D01*
X174207371Y-110196380D01*
%TO.C,C19*%
X154322542Y-108341142D02*
X154274923Y-108388761D01*
X154132066Y-108436380D01*
X154036828Y-108436380D01*
X153893971Y-108388761D01*
X153798733Y-108293523D01*
X153751114Y-108198285D01*
X153703495Y-108007809D01*
X153703495Y-107864952D01*
X153751114Y-107674476D01*
X153798733Y-107579238D01*
X153893971Y-107484000D01*
X154036828Y-107436380D01*
X154132066Y-107436380D01*
X154274923Y-107484000D01*
X154322542Y-107531619D01*
X155274923Y-108436380D02*
X154703495Y-108436380D01*
X154989209Y-108436380D02*
X154989209Y-107436380D01*
X154893971Y-107579238D01*
X154798733Y-107674476D01*
X154703495Y-107722095D01*
X155751114Y-108436380D02*
X155941590Y-108436380D01*
X156036828Y-108388761D01*
X156084447Y-108341142D01*
X156179685Y-108198285D01*
X156227304Y-108007809D01*
X156227304Y-107626857D01*
X156179685Y-107531619D01*
X156132066Y-107484000D01*
X156036828Y-107436380D01*
X155846352Y-107436380D01*
X155751114Y-107484000D01*
X155703495Y-107531619D01*
X155655876Y-107626857D01*
X155655876Y-107864952D01*
X155703495Y-107960190D01*
X155751114Y-108007809D01*
X155846352Y-108055428D01*
X156036828Y-108055428D01*
X156132066Y-108007809D01*
X156179685Y-107960190D01*
X156227304Y-107864952D01*
%TO.C,C18*%
X157433905Y-115523294D02*
X157433905Y-115590638D01*
X157366561Y-115725325D01*
X157299218Y-115792668D01*
X157164531Y-115860012D01*
X157029844Y-115860012D01*
X156928829Y-115826340D01*
X156760470Y-115725325D01*
X156659455Y-115624310D01*
X156558439Y-115455951D01*
X156524768Y-115354936D01*
X156524768Y-115220249D01*
X156592111Y-115085562D01*
X156659455Y-115018218D01*
X156794142Y-114950875D01*
X156861485Y-114950875D01*
X158174684Y-114917203D02*
X157770623Y-115321264D01*
X157972653Y-115119233D02*
X157265546Y-114412126D01*
X157299218Y-114580485D01*
X157299218Y-114715172D01*
X157265546Y-114816188D01*
X158174684Y-114109081D02*
X158073668Y-114142752D01*
X158006325Y-114142752D01*
X157905310Y-114109081D01*
X157871638Y-114075409D01*
X157837966Y-113974394D01*
X157837966Y-113907050D01*
X157871638Y-113806035D01*
X158006325Y-113671348D01*
X158107340Y-113637676D01*
X158174684Y-113637676D01*
X158275699Y-113671348D01*
X158309371Y-113705020D01*
X158343042Y-113806035D01*
X158343042Y-113873378D01*
X158309371Y-113974394D01*
X158174684Y-114109081D01*
X158141012Y-114210096D01*
X158141012Y-114277439D01*
X158174684Y-114378455D01*
X158309371Y-114513142D01*
X158410386Y-114546813D01*
X158477729Y-114546813D01*
X158578745Y-114513142D01*
X158713432Y-114378455D01*
X158747103Y-114277439D01*
X158747103Y-114210096D01*
X158713432Y-114109081D01*
X158578745Y-113974394D01*
X158477729Y-113940722D01*
X158410386Y-113940722D01*
X158309371Y-113974394D01*
%TO.C,C17*%
X169351755Y-115133507D02*
X169284411Y-115133507D01*
X169149724Y-115066163D01*
X169082381Y-114998820D01*
X169015037Y-114864133D01*
X169015037Y-114729446D01*
X169048709Y-114628431D01*
X169149724Y-114460072D01*
X169250739Y-114359057D01*
X169419098Y-114258041D01*
X169520113Y-114224370D01*
X169654800Y-114224370D01*
X169789487Y-114291713D01*
X169856831Y-114359057D01*
X169924174Y-114493744D01*
X169924174Y-114561087D01*
X169957846Y-115874286D02*
X169553785Y-115470225D01*
X169755816Y-115672255D02*
X170462923Y-114965148D01*
X170294564Y-114998820D01*
X170159877Y-114998820D01*
X170058862Y-114965148D01*
X170900655Y-115402881D02*
X171372060Y-115874286D01*
X170361907Y-116278347D01*
%TO.C,C16*%
X105733142Y-120165057D02*
X105780761Y-120212676D01*
X105828380Y-120355533D01*
X105828380Y-120450771D01*
X105780761Y-120593628D01*
X105685523Y-120688866D01*
X105590285Y-120736485D01*
X105399809Y-120784104D01*
X105256952Y-120784104D01*
X105066476Y-120736485D01*
X104971238Y-120688866D01*
X104876000Y-120593628D01*
X104828380Y-120450771D01*
X104828380Y-120355533D01*
X104876000Y-120212676D01*
X104923619Y-120165057D01*
X105828380Y-119212676D02*
X105828380Y-119784104D01*
X105828380Y-119498390D02*
X104828380Y-119498390D01*
X104971238Y-119593628D01*
X105066476Y-119688866D01*
X105114095Y-119784104D01*
X104828380Y-118355533D02*
X104828380Y-118546009D01*
X104876000Y-118641247D01*
X104923619Y-118688866D01*
X105066476Y-118784104D01*
X105256952Y-118831723D01*
X105637904Y-118831723D01*
X105733142Y-118784104D01*
X105780761Y-118736485D01*
X105828380Y-118641247D01*
X105828380Y-118450771D01*
X105780761Y-118355533D01*
X105733142Y-118307914D01*
X105637904Y-118260295D01*
X105399809Y-118260295D01*
X105304571Y-118307914D01*
X105256952Y-118355533D01*
X105209333Y-118450771D01*
X105209333Y-118641247D01*
X105256952Y-118736485D01*
X105304571Y-118784104D01*
X105399809Y-118831723D01*
%TO.C,C15*%
X133182342Y-126728457D02*
X133229961Y-126776076D01*
X133277580Y-126918933D01*
X133277580Y-127014171D01*
X133229961Y-127157028D01*
X133134723Y-127252266D01*
X133039485Y-127299885D01*
X132849009Y-127347504D01*
X132706152Y-127347504D01*
X132515676Y-127299885D01*
X132420438Y-127252266D01*
X132325200Y-127157028D01*
X132277580Y-127014171D01*
X132277580Y-126918933D01*
X132325200Y-126776076D01*
X132372819Y-126728457D01*
X133277580Y-125776076D02*
X133277580Y-126347504D01*
X133277580Y-126061790D02*
X132277580Y-126061790D01*
X132420438Y-126157028D01*
X132515676Y-126252266D01*
X132563295Y-126347504D01*
X132277580Y-124871314D02*
X132277580Y-125347504D01*
X132753771Y-125395123D01*
X132706152Y-125347504D01*
X132658533Y-125252266D01*
X132658533Y-125014171D01*
X132706152Y-124918933D01*
X132753771Y-124871314D01*
X132849009Y-124823695D01*
X133087104Y-124823695D01*
X133182342Y-124871314D01*
X133229961Y-124918933D01*
X133277580Y-125014171D01*
X133277580Y-125252266D01*
X133229961Y-125347504D01*
X133182342Y-125395123D01*
%TO.C,C14*%
X122124742Y-117228857D02*
X122172361Y-117276476D01*
X122219980Y-117419333D01*
X122219980Y-117514571D01*
X122172361Y-117657428D01*
X122077123Y-117752666D01*
X121981885Y-117800285D01*
X121791409Y-117847904D01*
X121648552Y-117847904D01*
X121458076Y-117800285D01*
X121362838Y-117752666D01*
X121267600Y-117657428D01*
X121219980Y-117514571D01*
X121219980Y-117419333D01*
X121267600Y-117276476D01*
X121315219Y-117228857D01*
X122219980Y-116276476D02*
X122219980Y-116847904D01*
X122219980Y-116562190D02*
X121219980Y-116562190D01*
X121362838Y-116657428D01*
X121458076Y-116752666D01*
X121505695Y-116847904D01*
X121553314Y-115419333D02*
X122219980Y-115419333D01*
X121172361Y-115657428D02*
X121886647Y-115895523D01*
X121886647Y-115276476D01*
%TO.C,C13*%
X90103755Y-124150507D02*
X90036411Y-124150507D01*
X89901724Y-124083163D01*
X89834381Y-124015820D01*
X89767037Y-123881133D01*
X89767037Y-123746446D01*
X89800709Y-123645431D01*
X89901724Y-123477072D01*
X90002739Y-123376057D01*
X90171098Y-123275041D01*
X90272113Y-123241370D01*
X90406800Y-123241370D01*
X90541487Y-123308713D01*
X90608831Y-123376057D01*
X90676174Y-123510744D01*
X90676174Y-123578087D01*
X90709846Y-124891286D02*
X90305785Y-124487225D01*
X90507816Y-124689255D02*
X91214923Y-123982148D01*
X91046564Y-124015820D01*
X90911877Y-124015820D01*
X90810862Y-123982148D01*
X91652655Y-124419881D02*
X92090388Y-124857614D01*
X91585312Y-124891286D01*
X91686327Y-124992301D01*
X91719999Y-125093316D01*
X91719999Y-125160660D01*
X91686327Y-125261675D01*
X91517968Y-125430034D01*
X91416953Y-125463705D01*
X91349610Y-125463705D01*
X91248594Y-125430034D01*
X91046564Y-125228003D01*
X91012892Y-125126988D01*
X91012892Y-125059644D01*
%TO.C,C12*%
X103769142Y-119108457D02*
X103816761Y-119156076D01*
X103864380Y-119298933D01*
X103864380Y-119394171D01*
X103816761Y-119537028D01*
X103721523Y-119632266D01*
X103626285Y-119679885D01*
X103435809Y-119727504D01*
X103292952Y-119727504D01*
X103102476Y-119679885D01*
X103007238Y-119632266D01*
X102912000Y-119537028D01*
X102864380Y-119394171D01*
X102864380Y-119298933D01*
X102912000Y-119156076D01*
X102959619Y-119108457D01*
X103864380Y-118156076D02*
X103864380Y-118727504D01*
X103864380Y-118441790D02*
X102864380Y-118441790D01*
X103007238Y-118537028D01*
X103102476Y-118632266D01*
X103150095Y-118727504D01*
X102959619Y-117775123D02*
X102912000Y-117727504D01*
X102864380Y-117632266D01*
X102864380Y-117394171D01*
X102912000Y-117298933D01*
X102959619Y-117251314D01*
X103054857Y-117203695D01*
X103150095Y-117203695D01*
X103292952Y-117251314D01*
X103864380Y-117822742D01*
X103864380Y-117203695D01*
%TO.C,C11*%
X49921142Y-74328257D02*
X49968761Y-74375876D01*
X50016380Y-74518733D01*
X50016380Y-74613971D01*
X49968761Y-74756828D01*
X49873523Y-74852066D01*
X49778285Y-74899685D01*
X49587809Y-74947304D01*
X49444952Y-74947304D01*
X49254476Y-74899685D01*
X49159238Y-74852066D01*
X49064000Y-74756828D01*
X49016380Y-74613971D01*
X49016380Y-74518733D01*
X49064000Y-74375876D01*
X49111619Y-74328257D01*
X50016380Y-73375876D02*
X50016380Y-73947304D01*
X50016380Y-73661590D02*
X49016380Y-73661590D01*
X49159238Y-73756828D01*
X49254476Y-73852066D01*
X49302095Y-73947304D01*
X50016380Y-72423495D02*
X50016380Y-72994923D01*
X50016380Y-72709209D02*
X49016380Y-72709209D01*
X49159238Y-72804447D01*
X49254476Y-72899685D01*
X49302095Y-72994923D01*
%TO.C,C10*%
X49547542Y-103633542D02*
X49499923Y-103681161D01*
X49357066Y-103728780D01*
X49261828Y-103728780D01*
X49118971Y-103681161D01*
X49023733Y-103585923D01*
X48976114Y-103490685D01*
X48928495Y-103300209D01*
X48928495Y-103157352D01*
X48976114Y-102966876D01*
X49023733Y-102871638D01*
X49118971Y-102776400D01*
X49261828Y-102728780D01*
X49357066Y-102728780D01*
X49499923Y-102776400D01*
X49547542Y-102824019D01*
X50499923Y-103728780D02*
X49928495Y-103728780D01*
X50214209Y-103728780D02*
X50214209Y-102728780D01*
X50118971Y-102871638D01*
X50023733Y-102966876D01*
X49928495Y-103014495D01*
X51118971Y-102728780D02*
X51214209Y-102728780D01*
X51309447Y-102776400D01*
X51357066Y-102824019D01*
X51404685Y-102919257D01*
X51452304Y-103109733D01*
X51452304Y-103347828D01*
X51404685Y-103538304D01*
X51357066Y-103633542D01*
X51309447Y-103681161D01*
X51214209Y-103728780D01*
X51118971Y-103728780D01*
X51023733Y-103681161D01*
X50976114Y-103633542D01*
X50928495Y-103538304D01*
X50880876Y-103347828D01*
X50880876Y-103109733D01*
X50928495Y-102919257D01*
X50976114Y-102824019D01*
X51023733Y-102776400D01*
X51118971Y-102728780D01*
%TO.C,C9*%
X60927542Y-87303866D02*
X60975161Y-87351485D01*
X61022780Y-87494342D01*
X61022780Y-87589580D01*
X60975161Y-87732438D01*
X60879923Y-87827676D01*
X60784685Y-87875295D01*
X60594209Y-87922914D01*
X60451352Y-87922914D01*
X60260876Y-87875295D01*
X60165638Y-87827676D01*
X60070400Y-87732438D01*
X60022780Y-87589580D01*
X60022780Y-87494342D01*
X60070400Y-87351485D01*
X60118019Y-87303866D01*
X61022780Y-86827676D02*
X61022780Y-86637200D01*
X60975161Y-86541961D01*
X60927542Y-86494342D01*
X60784685Y-86399104D01*
X60594209Y-86351485D01*
X60213257Y-86351485D01*
X60118019Y-86399104D01*
X60070400Y-86446723D01*
X60022780Y-86541961D01*
X60022780Y-86732438D01*
X60070400Y-86827676D01*
X60118019Y-86875295D01*
X60213257Y-86922914D01*
X60451352Y-86922914D01*
X60546590Y-86875295D01*
X60594209Y-86827676D01*
X60641828Y-86732438D01*
X60641828Y-86541961D01*
X60594209Y-86446723D01*
X60546590Y-86399104D01*
X60451352Y-86351485D01*
%TO.C,C8*%
X112484749Y-95575451D02*
X112484749Y-95642794D01*
X112417405Y-95777481D01*
X112350062Y-95844825D01*
X112215374Y-95912168D01*
X112080687Y-95912168D01*
X111979672Y-95878497D01*
X111811313Y-95777481D01*
X111710298Y-95676466D01*
X111609283Y-95508107D01*
X111575611Y-95407092D01*
X111575611Y-95272405D01*
X111642955Y-95137718D01*
X111710298Y-95070374D01*
X111844985Y-95003031D01*
X111912329Y-95003031D01*
X112552092Y-94834672D02*
X112451077Y-94868344D01*
X112383733Y-94868344D01*
X112282718Y-94834672D01*
X112249046Y-94801000D01*
X112215374Y-94699985D01*
X112215374Y-94632642D01*
X112249046Y-94531626D01*
X112383733Y-94396939D01*
X112484749Y-94363268D01*
X112552092Y-94363268D01*
X112653107Y-94396939D01*
X112686779Y-94430611D01*
X112720451Y-94531626D01*
X112720451Y-94598970D01*
X112686779Y-94699985D01*
X112552092Y-94834672D01*
X112518420Y-94935687D01*
X112518420Y-95003031D01*
X112552092Y-95104046D01*
X112686779Y-95238733D01*
X112787794Y-95272405D01*
X112855138Y-95272405D01*
X112956153Y-95238733D01*
X113090840Y-95104046D01*
X113124512Y-95003031D01*
X113124512Y-94935687D01*
X113090840Y-94834672D01*
X112956153Y-94699985D01*
X112855138Y-94666313D01*
X112787794Y-94666313D01*
X112686779Y-94699985D01*
%TO.C,C7*%
X56165824Y-97807177D02*
X56098481Y-97807177D01*
X55963794Y-97739833D01*
X55896450Y-97672490D01*
X55829107Y-97537802D01*
X55829107Y-97403115D01*
X55862778Y-97302100D01*
X55963794Y-97133741D01*
X56064809Y-97032726D01*
X56233168Y-96931711D01*
X56334183Y-96898039D01*
X56468870Y-96898039D01*
X56603557Y-96965383D01*
X56670901Y-97032726D01*
X56738244Y-97167413D01*
X56738244Y-97234757D01*
X57041290Y-97403115D02*
X57512694Y-97874520D01*
X56502542Y-98278581D01*
%TO.C,C6*%
X141773872Y-89206625D02*
X141706529Y-89206625D01*
X141571842Y-89139281D01*
X141504498Y-89071938D01*
X141437155Y-88937250D01*
X141437155Y-88802563D01*
X141470826Y-88701548D01*
X141571842Y-88533189D01*
X141672857Y-88432174D01*
X141841216Y-88331159D01*
X141942231Y-88297487D01*
X142076918Y-88297487D01*
X142211605Y-88364831D01*
X142278949Y-88432174D01*
X142346292Y-88566861D01*
X142346292Y-88634205D01*
X143019727Y-89172953D02*
X142885040Y-89038266D01*
X142784025Y-89004594D01*
X142716681Y-89004594D01*
X142548323Y-89038266D01*
X142379964Y-89139281D01*
X142110590Y-89408655D01*
X142076918Y-89509670D01*
X142076918Y-89577014D01*
X142110590Y-89678029D01*
X142245277Y-89812716D01*
X142346292Y-89846388D01*
X142413636Y-89846388D01*
X142514651Y-89812716D01*
X142683010Y-89644357D01*
X142716681Y-89543342D01*
X142716681Y-89475999D01*
X142683010Y-89374983D01*
X142548323Y-89240296D01*
X142447307Y-89206625D01*
X142379964Y-89206625D01*
X142278949Y-89240296D01*
%TO.C,C5*%
X153027942Y-81512666D02*
X153075561Y-81560285D01*
X153123180Y-81703142D01*
X153123180Y-81798380D01*
X153075561Y-81941238D01*
X152980323Y-82036476D01*
X152885085Y-82084095D01*
X152694609Y-82131714D01*
X152551752Y-82131714D01*
X152361276Y-82084095D01*
X152266038Y-82036476D01*
X152170800Y-81941238D01*
X152123180Y-81798380D01*
X152123180Y-81703142D01*
X152170800Y-81560285D01*
X152218419Y-81512666D01*
X152123180Y-80607904D02*
X152123180Y-81084095D01*
X152599371Y-81131714D01*
X152551752Y-81084095D01*
X152504133Y-80988857D01*
X152504133Y-80750761D01*
X152551752Y-80655523D01*
X152599371Y-80607904D01*
X152694609Y-80560285D01*
X152932704Y-80560285D01*
X153027942Y-80607904D01*
X153075561Y-80655523D01*
X153123180Y-80750761D01*
X153123180Y-80988857D01*
X153075561Y-81084095D01*
X153027942Y-81131714D01*
%TO.C,C4*%
X142507549Y-51176251D02*
X142507549Y-51243594D01*
X142440205Y-51378281D01*
X142372862Y-51445625D01*
X142238174Y-51512968D01*
X142103487Y-51512968D01*
X142002472Y-51479297D01*
X141834113Y-51378281D01*
X141733098Y-51277266D01*
X141632083Y-51108907D01*
X141598411Y-51007892D01*
X141598411Y-50873205D01*
X141665755Y-50738518D01*
X141733098Y-50671174D01*
X141867785Y-50603831D01*
X141935129Y-50603831D01*
X142709579Y-50166098D02*
X143180984Y-50637503D01*
X142271846Y-50065083D02*
X142608564Y-50738518D01*
X143046297Y-50300785D01*
%TO.C,C3*%
X99253675Y-51072325D02*
X99253675Y-51139668D01*
X99186331Y-51274355D01*
X99118988Y-51341699D01*
X98984300Y-51409042D01*
X98849613Y-51409042D01*
X98748598Y-51375371D01*
X98580239Y-51274355D01*
X98479224Y-51173340D01*
X98378209Y-51004981D01*
X98344537Y-50903966D01*
X98344537Y-50769279D01*
X98411881Y-50634592D01*
X98479224Y-50567248D01*
X98613911Y-50499905D01*
X98681255Y-50499905D01*
X98849613Y-50196859D02*
X99287346Y-49759126D01*
X99321018Y-50264203D01*
X99422033Y-50163187D01*
X99523049Y-50129516D01*
X99590392Y-50129516D01*
X99691407Y-50163187D01*
X99859766Y-50331546D01*
X99893438Y-50432561D01*
X99893438Y-50499905D01*
X99859766Y-50600920D01*
X99657736Y-50802951D01*
X99556720Y-50836623D01*
X99489377Y-50836623D01*
%TO.C,C2*%
X62088733Y-55652942D02*
X62041114Y-55700561D01*
X61898257Y-55748180D01*
X61803019Y-55748180D01*
X61660161Y-55700561D01*
X61564923Y-55605323D01*
X61517304Y-55510085D01*
X61469685Y-55319609D01*
X61469685Y-55176752D01*
X61517304Y-54986276D01*
X61564923Y-54891038D01*
X61660161Y-54795800D01*
X61803019Y-54748180D01*
X61898257Y-54748180D01*
X62041114Y-54795800D01*
X62088733Y-54843419D01*
X62469685Y-54843419D02*
X62517304Y-54795800D01*
X62612542Y-54748180D01*
X62850638Y-54748180D01*
X62945876Y-54795800D01*
X62993495Y-54843419D01*
X63041114Y-54938657D01*
X63041114Y-55033895D01*
X62993495Y-55176752D01*
X62422066Y-55748180D01*
X63041114Y-55748180D01*
%TO.C,D54*%
X59288514Y-121813580D02*
X59288514Y-120813580D01*
X59526609Y-120813580D01*
X59669466Y-120861200D01*
X59764704Y-120956438D01*
X59812323Y-121051676D01*
X59859942Y-121242152D01*
X59859942Y-121385009D01*
X59812323Y-121575485D01*
X59764704Y-121670723D01*
X59669466Y-121765961D01*
X59526609Y-121813580D01*
X59288514Y-121813580D01*
X60764704Y-120813580D02*
X60288514Y-120813580D01*
X60240895Y-121289771D01*
X60288514Y-121242152D01*
X60383752Y-121194533D01*
X60621847Y-121194533D01*
X60717085Y-121242152D01*
X60764704Y-121289771D01*
X60812323Y-121385009D01*
X60812323Y-121623104D01*
X60764704Y-121718342D01*
X60717085Y-121765961D01*
X60621847Y-121813580D01*
X60383752Y-121813580D01*
X60288514Y-121765961D01*
X60240895Y-121718342D01*
X61669466Y-121146914D02*
X61669466Y-121813580D01*
X61431371Y-120765961D02*
X61193276Y-121480247D01*
X61812323Y-121480247D01*
X56576114Y-116657380D02*
X56004685Y-116657380D01*
X56290400Y-116657380D02*
X56290400Y-115657380D01*
X56195161Y-115800238D01*
X56099923Y-115895476D01*
X56004685Y-115943095D01*
%TO.C,D53*%
X49382514Y-111983780D02*
X49382514Y-110983780D01*
X49620609Y-110983780D01*
X49763466Y-111031400D01*
X49858704Y-111126638D01*
X49906323Y-111221876D01*
X49953942Y-111412352D01*
X49953942Y-111555209D01*
X49906323Y-111745685D01*
X49858704Y-111840923D01*
X49763466Y-111936161D01*
X49620609Y-111983780D01*
X49382514Y-111983780D01*
X50858704Y-110983780D02*
X50382514Y-110983780D01*
X50334895Y-111459971D01*
X50382514Y-111412352D01*
X50477752Y-111364733D01*
X50715847Y-111364733D01*
X50811085Y-111412352D01*
X50858704Y-111459971D01*
X50906323Y-111555209D01*
X50906323Y-111793304D01*
X50858704Y-111888542D01*
X50811085Y-111936161D01*
X50715847Y-111983780D01*
X50477752Y-111983780D01*
X50382514Y-111936161D01*
X50334895Y-111888542D01*
X51239657Y-110983780D02*
X51858704Y-110983780D01*
X51525371Y-111364733D01*
X51668228Y-111364733D01*
X51763466Y-111412352D01*
X51811085Y-111459971D01*
X51858704Y-111555209D01*
X51858704Y-111793304D01*
X51811085Y-111888542D01*
X51763466Y-111936161D01*
X51668228Y-111983780D01*
X51382514Y-111983780D01*
X51287276Y-111936161D01*
X51239657Y-111888542D01*
X46718714Y-106675380D02*
X46147285Y-106675380D01*
X46433000Y-106675380D02*
X46433000Y-105675380D01*
X46337761Y-105818238D01*
X46242523Y-105913476D01*
X46147285Y-105961095D01*
%TO.C,D52*%
X62996914Y-98521780D02*
X62996914Y-97521780D01*
X63235009Y-97521780D01*
X63377866Y-97569400D01*
X63473104Y-97664638D01*
X63520723Y-97759876D01*
X63568342Y-97950352D01*
X63568342Y-98093209D01*
X63520723Y-98283685D01*
X63473104Y-98378923D01*
X63377866Y-98474161D01*
X63235009Y-98521780D01*
X62996914Y-98521780D01*
X64473104Y-97521780D02*
X63996914Y-97521780D01*
X63949295Y-97997971D01*
X63996914Y-97950352D01*
X64092152Y-97902733D01*
X64330247Y-97902733D01*
X64425485Y-97950352D01*
X64473104Y-97997971D01*
X64520723Y-98093209D01*
X64520723Y-98331304D01*
X64473104Y-98426542D01*
X64425485Y-98474161D01*
X64330247Y-98521780D01*
X64092152Y-98521780D01*
X63996914Y-98474161D01*
X63949295Y-98426542D01*
X64901676Y-97617019D02*
X64949295Y-97569400D01*
X65044533Y-97521780D01*
X65282628Y-97521780D01*
X65377866Y-97569400D01*
X65425485Y-97617019D01*
X65473104Y-97712257D01*
X65473104Y-97807495D01*
X65425485Y-97950352D01*
X64854057Y-98521780D01*
X65473104Y-98521780D01*
X56296714Y-96819980D02*
X55725285Y-96819980D01*
X56011000Y-96819980D02*
X56011000Y-95819980D01*
X55915761Y-95962838D01*
X55820523Y-96058076D01*
X55725285Y-96105695D01*
%TO.C,D51*%
X69296114Y-105303580D02*
X69296114Y-104303580D01*
X69534209Y-104303580D01*
X69677066Y-104351200D01*
X69772304Y-104446438D01*
X69819923Y-104541676D01*
X69867542Y-104732152D01*
X69867542Y-104875009D01*
X69819923Y-105065485D01*
X69772304Y-105160723D01*
X69677066Y-105255961D01*
X69534209Y-105303580D01*
X69296114Y-105303580D01*
X70772304Y-104303580D02*
X70296114Y-104303580D01*
X70248495Y-104779771D01*
X70296114Y-104732152D01*
X70391352Y-104684533D01*
X70629447Y-104684533D01*
X70724685Y-104732152D01*
X70772304Y-104779771D01*
X70819923Y-104875009D01*
X70819923Y-105113104D01*
X70772304Y-105208342D01*
X70724685Y-105255961D01*
X70629447Y-105303580D01*
X70391352Y-105303580D01*
X70296114Y-105255961D01*
X70248495Y-105208342D01*
X71772304Y-105303580D02*
X71200876Y-105303580D01*
X71486590Y-105303580D02*
X71486590Y-104303580D01*
X71391352Y-104446438D01*
X71296114Y-104541676D01*
X71200876Y-104589295D01*
X66620714Y-107285380D02*
X66049285Y-107285380D01*
X66335000Y-107285380D02*
X66335000Y-106285380D01*
X66239761Y-106428238D01*
X66144523Y-106523476D01*
X66049285Y-106571095D01*
%TO.C,D50*%
X84067314Y-122174380D02*
X84067314Y-121174380D01*
X84305409Y-121174380D01*
X84448266Y-121222000D01*
X84543504Y-121317238D01*
X84591123Y-121412476D01*
X84638742Y-121602952D01*
X84638742Y-121745809D01*
X84591123Y-121936285D01*
X84543504Y-122031523D01*
X84448266Y-122126761D01*
X84305409Y-122174380D01*
X84067314Y-122174380D01*
X85543504Y-121174380D02*
X85067314Y-121174380D01*
X85019695Y-121650571D01*
X85067314Y-121602952D01*
X85162552Y-121555333D01*
X85400647Y-121555333D01*
X85495885Y-121602952D01*
X85543504Y-121650571D01*
X85591123Y-121745809D01*
X85591123Y-121983904D01*
X85543504Y-122079142D01*
X85495885Y-122126761D01*
X85400647Y-122174380D01*
X85162552Y-122174380D01*
X85067314Y-122126761D01*
X85019695Y-122079142D01*
X86210171Y-121174380D02*
X86305409Y-121174380D01*
X86400647Y-121222000D01*
X86448266Y-121269619D01*
X86495885Y-121364857D01*
X86543504Y-121555333D01*
X86543504Y-121793428D01*
X86495885Y-121983904D01*
X86448266Y-122079142D01*
X86400647Y-122126761D01*
X86305409Y-122174380D01*
X86210171Y-122174380D01*
X86114933Y-122126761D01*
X86067314Y-122079142D01*
X86019695Y-121983904D01*
X85972076Y-121793428D01*
X85972076Y-121555333D01*
X86019695Y-121364857D01*
X86067314Y-121269619D01*
X86114933Y-121222000D01*
X86210171Y-121174380D01*
X81417314Y-124074380D02*
X80845885Y-124074380D01*
X81131600Y-124074380D02*
X81131600Y-123074380D01*
X81036361Y-123217238D01*
X80941123Y-123312476D01*
X80845885Y-123360095D01*
%TO.C,D49*%
X86810514Y-114401380D02*
X86810514Y-113401380D01*
X87048609Y-113401380D01*
X87191466Y-113449000D01*
X87286704Y-113544238D01*
X87334323Y-113639476D01*
X87381942Y-113829952D01*
X87381942Y-113972809D01*
X87334323Y-114163285D01*
X87286704Y-114258523D01*
X87191466Y-114353761D01*
X87048609Y-114401380D01*
X86810514Y-114401380D01*
X88239085Y-113734714D02*
X88239085Y-114401380D01*
X88000990Y-113353761D02*
X87762895Y-114068047D01*
X88381942Y-114068047D01*
X88810514Y-114401380D02*
X89000990Y-114401380D01*
X89096228Y-114353761D01*
X89143847Y-114306142D01*
X89239085Y-114163285D01*
X89286704Y-113972809D01*
X89286704Y-113591857D01*
X89239085Y-113496619D01*
X89191466Y-113449000D01*
X89096228Y-113401380D01*
X88905752Y-113401380D01*
X88810514Y-113449000D01*
X88762895Y-113496619D01*
X88715276Y-113591857D01*
X88715276Y-113829952D01*
X88762895Y-113925190D01*
X88810514Y-113972809D01*
X88905752Y-114020428D01*
X89096228Y-114020428D01*
X89191466Y-113972809D01*
X89239085Y-113925190D01*
X89286704Y-113829952D01*
X84160514Y-116301380D02*
X83589085Y-116301380D01*
X83874800Y-116301380D02*
X83874800Y-115301380D01*
X83779561Y-115444238D01*
X83684323Y-115539476D01*
X83589085Y-115587095D01*
%TO.C,D48*%
X96386314Y-114351380D02*
X96386314Y-113351380D01*
X96624409Y-113351380D01*
X96767266Y-113399000D01*
X96862504Y-113494238D01*
X96910123Y-113589476D01*
X96957742Y-113779952D01*
X96957742Y-113922809D01*
X96910123Y-114113285D01*
X96862504Y-114208523D01*
X96767266Y-114303761D01*
X96624409Y-114351380D01*
X96386314Y-114351380D01*
X97814885Y-113684714D02*
X97814885Y-114351380D01*
X97576790Y-113303761D02*
X97338695Y-114018047D01*
X97957742Y-114018047D01*
X98481552Y-113779952D02*
X98386314Y-113732333D01*
X98338695Y-113684714D01*
X98291076Y-113589476D01*
X98291076Y-113541857D01*
X98338695Y-113446619D01*
X98386314Y-113399000D01*
X98481552Y-113351380D01*
X98672028Y-113351380D01*
X98767266Y-113399000D01*
X98814885Y-113446619D01*
X98862504Y-113541857D01*
X98862504Y-113589476D01*
X98814885Y-113684714D01*
X98767266Y-113732333D01*
X98672028Y-113779952D01*
X98481552Y-113779952D01*
X98386314Y-113827571D01*
X98338695Y-113875190D01*
X98291076Y-113970428D01*
X98291076Y-114160904D01*
X98338695Y-114256142D01*
X98386314Y-114303761D01*
X98481552Y-114351380D01*
X98672028Y-114351380D01*
X98767266Y-114303761D01*
X98814885Y-114256142D01*
X98862504Y-114160904D01*
X98862504Y-113970428D01*
X98814885Y-113875190D01*
X98767266Y-113827571D01*
X98672028Y-113779952D01*
X93736314Y-116251380D02*
X93164885Y-116251380D01*
X93450600Y-116251380D02*
X93450600Y-115251380D01*
X93355361Y-115394238D01*
X93260123Y-115489476D01*
X93164885Y-115537095D01*
%TO.C,D47*%
X98443714Y-122199380D02*
X98443714Y-121199380D01*
X98681809Y-121199380D01*
X98824666Y-121247000D01*
X98919904Y-121342238D01*
X98967523Y-121437476D01*
X99015142Y-121627952D01*
X99015142Y-121770809D01*
X98967523Y-121961285D01*
X98919904Y-122056523D01*
X98824666Y-122151761D01*
X98681809Y-122199380D01*
X98443714Y-122199380D01*
X99872285Y-121532714D02*
X99872285Y-122199380D01*
X99634190Y-121151761D02*
X99396095Y-121866047D01*
X100015142Y-121866047D01*
X100300857Y-121199380D02*
X100967523Y-121199380D01*
X100538952Y-122199380D01*
X95793714Y-124099380D02*
X95222285Y-124099380D01*
X95508000Y-124099380D02*
X95508000Y-123099380D01*
X95412761Y-123242238D01*
X95317523Y-123337476D01*
X95222285Y-123385095D01*
%TO.C,D46*%
X122725714Y-122021380D02*
X122725714Y-121021380D01*
X122963809Y-121021380D01*
X123106666Y-121069000D01*
X123201904Y-121164238D01*
X123249523Y-121259476D01*
X123297142Y-121449952D01*
X123297142Y-121592809D01*
X123249523Y-121783285D01*
X123201904Y-121878523D01*
X123106666Y-121973761D01*
X122963809Y-122021380D01*
X122725714Y-122021380D01*
X124154285Y-121354714D02*
X124154285Y-122021380D01*
X123916190Y-120973761D02*
X123678095Y-121688047D01*
X124297142Y-121688047D01*
X125106666Y-121021380D02*
X124916190Y-121021380D01*
X124820952Y-121069000D01*
X124773333Y-121116619D01*
X124678095Y-121259476D01*
X124630476Y-121449952D01*
X124630476Y-121830904D01*
X124678095Y-121926142D01*
X124725714Y-121973761D01*
X124820952Y-122021380D01*
X125011428Y-122021380D01*
X125106666Y-121973761D01*
X125154285Y-121926142D01*
X125201904Y-121830904D01*
X125201904Y-121592809D01*
X125154285Y-121497571D01*
X125106666Y-121449952D01*
X125011428Y-121402333D01*
X124820952Y-121402333D01*
X124725714Y-121449952D01*
X124678095Y-121497571D01*
X124630476Y-121592809D01*
X120075714Y-123921380D02*
X119504285Y-123921380D01*
X119790000Y-123921380D02*
X119790000Y-122921380D01*
X119694761Y-123064238D01*
X119599523Y-123159476D01*
X119504285Y-123207095D01*
%TO.C,D45*%
X125545714Y-113665380D02*
X125545714Y-112665380D01*
X125783809Y-112665380D01*
X125926666Y-112713000D01*
X126021904Y-112808238D01*
X126069523Y-112903476D01*
X126117142Y-113093952D01*
X126117142Y-113236809D01*
X126069523Y-113427285D01*
X126021904Y-113522523D01*
X125926666Y-113617761D01*
X125783809Y-113665380D01*
X125545714Y-113665380D01*
X126974285Y-112998714D02*
X126974285Y-113665380D01*
X126736190Y-112617761D02*
X126498095Y-113332047D01*
X127117142Y-113332047D01*
X127974285Y-112665380D02*
X127498095Y-112665380D01*
X127450476Y-113141571D01*
X127498095Y-113093952D01*
X127593333Y-113046333D01*
X127831428Y-113046333D01*
X127926666Y-113093952D01*
X127974285Y-113141571D01*
X128021904Y-113236809D01*
X128021904Y-113474904D01*
X127974285Y-113570142D01*
X127926666Y-113617761D01*
X127831428Y-113665380D01*
X127593333Y-113665380D01*
X127498095Y-113617761D01*
X127450476Y-113570142D01*
X122895714Y-115565380D02*
X122324285Y-115565380D01*
X122610000Y-115565380D02*
X122610000Y-114565380D01*
X122514761Y-114708238D01*
X122419523Y-114803476D01*
X122324285Y-114851095D01*
%TO.C,D44*%
X134650714Y-113665380D02*
X134650714Y-112665380D01*
X134888809Y-112665380D01*
X135031666Y-112713000D01*
X135126904Y-112808238D01*
X135174523Y-112903476D01*
X135222142Y-113093952D01*
X135222142Y-113236809D01*
X135174523Y-113427285D01*
X135126904Y-113522523D01*
X135031666Y-113617761D01*
X134888809Y-113665380D01*
X134650714Y-113665380D01*
X136079285Y-112998714D02*
X136079285Y-113665380D01*
X135841190Y-112617761D02*
X135603095Y-113332047D01*
X136222142Y-113332047D01*
X137031666Y-112998714D02*
X137031666Y-113665380D01*
X136793571Y-112617761D02*
X136555476Y-113332047D01*
X137174523Y-113332047D01*
X132000714Y-115565380D02*
X131429285Y-115565380D01*
X131715000Y-115565380D02*
X131715000Y-114565380D01*
X131619761Y-114708238D01*
X131524523Y-114803476D01*
X131429285Y-114851095D01*
%TO.C,D43*%
X137864714Y-121996380D02*
X137864714Y-120996380D01*
X138102809Y-120996380D01*
X138245666Y-121044000D01*
X138340904Y-121139238D01*
X138388523Y-121234476D01*
X138436142Y-121424952D01*
X138436142Y-121567809D01*
X138388523Y-121758285D01*
X138340904Y-121853523D01*
X138245666Y-121948761D01*
X138102809Y-121996380D01*
X137864714Y-121996380D01*
X139293285Y-121329714D02*
X139293285Y-121996380D01*
X139055190Y-120948761D02*
X138817095Y-121663047D01*
X139436142Y-121663047D01*
X139721857Y-120996380D02*
X140340904Y-120996380D01*
X140007571Y-121377333D01*
X140150428Y-121377333D01*
X140245666Y-121424952D01*
X140293285Y-121472571D01*
X140340904Y-121567809D01*
X140340904Y-121805904D01*
X140293285Y-121901142D01*
X140245666Y-121948761D01*
X140150428Y-121996380D01*
X139864714Y-121996380D01*
X139769476Y-121948761D01*
X139721857Y-121901142D01*
X135214714Y-123896380D02*
X134643285Y-123896380D01*
X134929000Y-123896380D02*
X134929000Y-122896380D01*
X134833761Y-123039238D01*
X134738523Y-123134476D01*
X134643285Y-123182095D01*
%TO.C,D42*%
X149243714Y-99162380D02*
X149243714Y-98162380D01*
X149481809Y-98162380D01*
X149624666Y-98210000D01*
X149719904Y-98305238D01*
X149767523Y-98400476D01*
X149815142Y-98590952D01*
X149815142Y-98733809D01*
X149767523Y-98924285D01*
X149719904Y-99019523D01*
X149624666Y-99114761D01*
X149481809Y-99162380D01*
X149243714Y-99162380D01*
X150672285Y-98495714D02*
X150672285Y-99162380D01*
X150434190Y-98114761D02*
X150196095Y-98829047D01*
X150815142Y-98829047D01*
X151148476Y-98257619D02*
X151196095Y-98210000D01*
X151291333Y-98162380D01*
X151529428Y-98162380D01*
X151624666Y-98210000D01*
X151672285Y-98257619D01*
X151719904Y-98352857D01*
X151719904Y-98448095D01*
X151672285Y-98590952D01*
X151100857Y-99162380D01*
X151719904Y-99162380D01*
X146593714Y-101062380D02*
X146022285Y-101062380D01*
X146308000Y-101062380D02*
X146308000Y-100062380D01*
X146212761Y-100205238D01*
X146117523Y-100300476D01*
X146022285Y-100348095D01*
%TO.C,D41*%
X149255914Y-113178380D02*
X149255914Y-112178380D01*
X149494009Y-112178380D01*
X149636866Y-112226000D01*
X149732104Y-112321238D01*
X149779723Y-112416476D01*
X149827342Y-112606952D01*
X149827342Y-112749809D01*
X149779723Y-112940285D01*
X149732104Y-113035523D01*
X149636866Y-113130761D01*
X149494009Y-113178380D01*
X149255914Y-113178380D01*
X150684485Y-112511714D02*
X150684485Y-113178380D01*
X150446390Y-112130761D02*
X150208295Y-112845047D01*
X150827342Y-112845047D01*
X151732104Y-113178380D02*
X151160676Y-113178380D01*
X151446390Y-113178380D02*
X151446390Y-112178380D01*
X151351152Y-112321238D01*
X151255914Y-112416476D01*
X151160676Y-112464095D01*
X146568714Y-107971380D02*
X145997285Y-107971380D01*
X146283000Y-107971380D02*
X146283000Y-106971380D01*
X146187761Y-107114238D01*
X146092523Y-107209476D01*
X145997285Y-107257095D01*
%TO.C,D40*%
X161726714Y-121788180D02*
X161726714Y-120788180D01*
X161964809Y-120788180D01*
X162107666Y-120835800D01*
X162202904Y-120931038D01*
X162250523Y-121026276D01*
X162298142Y-121216752D01*
X162298142Y-121359609D01*
X162250523Y-121550085D01*
X162202904Y-121645323D01*
X162107666Y-121740561D01*
X161964809Y-121788180D01*
X161726714Y-121788180D01*
X163155285Y-121121514D02*
X163155285Y-121788180D01*
X162917190Y-120740561D02*
X162679095Y-121454847D01*
X163298142Y-121454847D01*
X163869571Y-120788180D02*
X163964809Y-120788180D01*
X164060047Y-120835800D01*
X164107666Y-120883419D01*
X164155285Y-120978657D01*
X164202904Y-121169133D01*
X164202904Y-121407228D01*
X164155285Y-121597704D01*
X164107666Y-121692942D01*
X164060047Y-121740561D01*
X163964809Y-121788180D01*
X163869571Y-121788180D01*
X163774333Y-121740561D01*
X163726714Y-121692942D01*
X163679095Y-121597704D01*
X163631476Y-121407228D01*
X163631476Y-121169133D01*
X163679095Y-120978657D01*
X163726714Y-120883419D01*
X163774333Y-120835800D01*
X163869571Y-120788180D01*
X159051714Y-116657380D02*
X158480285Y-116657380D01*
X158766000Y-116657380D02*
X158766000Y-115657380D01*
X158670761Y-115800238D01*
X158575523Y-115895476D01*
X158480285Y-115943095D01*
%TO.C,D39*%
X171620714Y-102870380D02*
X171620714Y-101870380D01*
X171858809Y-101870380D01*
X172001666Y-101918000D01*
X172096904Y-102013238D01*
X172144523Y-102108476D01*
X172192142Y-102298952D01*
X172192142Y-102441809D01*
X172144523Y-102632285D01*
X172096904Y-102727523D01*
X172001666Y-102822761D01*
X171858809Y-102870380D01*
X171620714Y-102870380D01*
X172525476Y-101870380D02*
X173144523Y-101870380D01*
X172811190Y-102251333D01*
X172954047Y-102251333D01*
X173049285Y-102298952D01*
X173096904Y-102346571D01*
X173144523Y-102441809D01*
X173144523Y-102679904D01*
X173096904Y-102775142D01*
X173049285Y-102822761D01*
X172954047Y-102870380D01*
X172668333Y-102870380D01*
X172573095Y-102822761D01*
X172525476Y-102775142D01*
X173620714Y-102870380D02*
X173811190Y-102870380D01*
X173906428Y-102822761D01*
X173954047Y-102775142D01*
X174049285Y-102632285D01*
X174096904Y-102441809D01*
X174096904Y-102060857D01*
X174049285Y-101965619D01*
X174001666Y-101918000D01*
X173906428Y-101870380D01*
X173715952Y-101870380D01*
X173620714Y-101918000D01*
X173573095Y-101965619D01*
X173525476Y-102060857D01*
X173525476Y-102298952D01*
X173573095Y-102394190D01*
X173620714Y-102441809D01*
X173715952Y-102489428D01*
X173906428Y-102489428D01*
X174001666Y-102441809D01*
X174049285Y-102394190D01*
X174096904Y-102298952D01*
X168970714Y-104770380D02*
X168399285Y-104770380D01*
X168685000Y-104770380D02*
X168685000Y-103770380D01*
X168589761Y-103913238D01*
X168494523Y-104008476D01*
X168399285Y-104056095D01*
%TO.C,D38*%
X166451114Y-98318580D02*
X166451114Y-97318580D01*
X166689209Y-97318580D01*
X166832066Y-97366200D01*
X166927304Y-97461438D01*
X166974923Y-97556676D01*
X167022542Y-97747152D01*
X167022542Y-97890009D01*
X166974923Y-98080485D01*
X166927304Y-98175723D01*
X166832066Y-98270961D01*
X166689209Y-98318580D01*
X166451114Y-98318580D01*
X167355876Y-97318580D02*
X167974923Y-97318580D01*
X167641590Y-97699533D01*
X167784447Y-97699533D01*
X167879685Y-97747152D01*
X167927304Y-97794771D01*
X167974923Y-97890009D01*
X167974923Y-98128104D01*
X167927304Y-98223342D01*
X167879685Y-98270961D01*
X167784447Y-98318580D01*
X167498733Y-98318580D01*
X167403495Y-98270961D01*
X167355876Y-98223342D01*
X168546352Y-97747152D02*
X168451114Y-97699533D01*
X168403495Y-97651914D01*
X168355876Y-97556676D01*
X168355876Y-97509057D01*
X168403495Y-97413819D01*
X168451114Y-97366200D01*
X168546352Y-97318580D01*
X168736828Y-97318580D01*
X168832066Y-97366200D01*
X168879685Y-97413819D01*
X168927304Y-97509057D01*
X168927304Y-97556676D01*
X168879685Y-97651914D01*
X168832066Y-97699533D01*
X168736828Y-97747152D01*
X168546352Y-97747152D01*
X168451114Y-97794771D01*
X168403495Y-97842390D01*
X168355876Y-97937628D01*
X168355876Y-98128104D01*
X168403495Y-98223342D01*
X168451114Y-98270961D01*
X168546352Y-98318580D01*
X168736828Y-98318580D01*
X168832066Y-98270961D01*
X168879685Y-98223342D01*
X168927304Y-98128104D01*
X168927304Y-97937628D01*
X168879685Y-97842390D01*
X168832066Y-97794771D01*
X168736828Y-97747152D01*
X158861714Y-96819980D02*
X158290285Y-96819980D01*
X158576000Y-96819980D02*
X158576000Y-95819980D01*
X158480761Y-95962838D01*
X158385523Y-96058076D01*
X158290285Y-96105695D01*
%TO.C,R1*%
X115987533Y-90927180D02*
X115654200Y-90450990D01*
X115416104Y-90927180D02*
X115416104Y-89927180D01*
X115797057Y-89927180D01*
X115892295Y-89974800D01*
X115939914Y-90022419D01*
X115987533Y-90117657D01*
X115987533Y-90260514D01*
X115939914Y-90355752D01*
X115892295Y-90403371D01*
X115797057Y-90450990D01*
X115416104Y-90450990D01*
X116939914Y-90927180D02*
X116368485Y-90927180D01*
X116654200Y-90927180D02*
X116654200Y-89927180D01*
X116558961Y-90070038D01*
X116463723Y-90165276D01*
X116368485Y-90212895D01*
%TO.C,D37*%
X164534714Y-88849780D02*
X164534714Y-87849780D01*
X164772809Y-87849780D01*
X164915666Y-87897400D01*
X165010904Y-87992638D01*
X165058523Y-88087876D01*
X165106142Y-88278352D01*
X165106142Y-88421209D01*
X165058523Y-88611685D01*
X165010904Y-88706923D01*
X164915666Y-88802161D01*
X164772809Y-88849780D01*
X164534714Y-88849780D01*
X165439476Y-87849780D02*
X166058523Y-87849780D01*
X165725190Y-88230733D01*
X165868047Y-88230733D01*
X165963285Y-88278352D01*
X166010904Y-88325971D01*
X166058523Y-88421209D01*
X166058523Y-88659304D01*
X166010904Y-88754542D01*
X165963285Y-88802161D01*
X165868047Y-88849780D01*
X165582333Y-88849780D01*
X165487095Y-88802161D01*
X165439476Y-88754542D01*
X166391857Y-87849780D02*
X167058523Y-87849780D01*
X166629952Y-88849780D01*
X161884714Y-90749780D02*
X161313285Y-90749780D01*
X161599000Y-90749780D02*
X161599000Y-89749780D01*
X161503761Y-89892638D01*
X161408523Y-89987876D01*
X161313285Y-90035495D01*
%TO.C,D36*%
X157574714Y-88798580D02*
X157574714Y-87798580D01*
X157812809Y-87798580D01*
X157955666Y-87846200D01*
X158050904Y-87941438D01*
X158098523Y-88036676D01*
X158146142Y-88227152D01*
X158146142Y-88370009D01*
X158098523Y-88560485D01*
X158050904Y-88655723D01*
X157955666Y-88750961D01*
X157812809Y-88798580D01*
X157574714Y-88798580D01*
X158479476Y-87798580D02*
X159098523Y-87798580D01*
X158765190Y-88179533D01*
X158908047Y-88179533D01*
X159003285Y-88227152D01*
X159050904Y-88274771D01*
X159098523Y-88370009D01*
X159098523Y-88608104D01*
X159050904Y-88703342D01*
X159003285Y-88750961D01*
X158908047Y-88798580D01*
X158622333Y-88798580D01*
X158527095Y-88750961D01*
X158479476Y-88703342D01*
X159955666Y-87798580D02*
X159765190Y-87798580D01*
X159669952Y-87846200D01*
X159622333Y-87893819D01*
X159527095Y-88036676D01*
X159479476Y-88227152D01*
X159479476Y-88608104D01*
X159527095Y-88703342D01*
X159574714Y-88750961D01*
X159669952Y-88798580D01*
X159860428Y-88798580D01*
X159955666Y-88750961D01*
X160003285Y-88703342D01*
X160050904Y-88608104D01*
X160050904Y-88370009D01*
X160003285Y-88274771D01*
X159955666Y-88227152D01*
X159860428Y-88179533D01*
X159669952Y-88179533D01*
X159574714Y-88227152D01*
X159527095Y-88274771D01*
X159479476Y-88370009D01*
X154924714Y-90698580D02*
X154353285Y-90698580D01*
X154639000Y-90698580D02*
X154639000Y-89698580D01*
X154543761Y-89841438D01*
X154448523Y-89936676D01*
X154353285Y-89984295D01*
%TO.C,D35*%
X151541314Y-84196180D02*
X151541314Y-83196180D01*
X151779409Y-83196180D01*
X151922266Y-83243800D01*
X152017504Y-83339038D01*
X152065123Y-83434276D01*
X152112742Y-83624752D01*
X152112742Y-83767609D01*
X152065123Y-83958085D01*
X152017504Y-84053323D01*
X151922266Y-84148561D01*
X151779409Y-84196180D01*
X151541314Y-84196180D01*
X152446076Y-83196180D02*
X153065123Y-83196180D01*
X152731790Y-83577133D01*
X152874647Y-83577133D01*
X152969885Y-83624752D01*
X153017504Y-83672371D01*
X153065123Y-83767609D01*
X153065123Y-84005704D01*
X153017504Y-84100942D01*
X152969885Y-84148561D01*
X152874647Y-84196180D01*
X152588933Y-84196180D01*
X152493695Y-84148561D01*
X152446076Y-84100942D01*
X153969885Y-83196180D02*
X153493695Y-83196180D01*
X153446076Y-83672371D01*
X153493695Y-83624752D01*
X153588933Y-83577133D01*
X153827028Y-83577133D01*
X153922266Y-83624752D01*
X153969885Y-83672371D01*
X154017504Y-83767609D01*
X154017504Y-84005704D01*
X153969885Y-84100942D01*
X153922266Y-84148561D01*
X153827028Y-84196180D01*
X153588933Y-84196180D01*
X153493695Y-84148561D01*
X153446076Y-84100942D01*
X153756714Y-82418180D02*
X153185285Y-82418180D01*
X153471000Y-82418180D02*
X153471000Y-81418180D01*
X153375761Y-81561038D01*
X153280523Y-81656276D01*
X153185285Y-81703895D01*
%TO.C,D34*%
X155757714Y-74269980D02*
X155757714Y-73269980D01*
X155995809Y-73269980D01*
X156138666Y-73317600D01*
X156233904Y-73412838D01*
X156281523Y-73508076D01*
X156329142Y-73698552D01*
X156329142Y-73841409D01*
X156281523Y-74031885D01*
X156233904Y-74127123D01*
X156138666Y-74222361D01*
X155995809Y-74269980D01*
X155757714Y-74269980D01*
X156662476Y-73269980D02*
X157281523Y-73269980D01*
X156948190Y-73650933D01*
X157091047Y-73650933D01*
X157186285Y-73698552D01*
X157233904Y-73746171D01*
X157281523Y-73841409D01*
X157281523Y-74079504D01*
X157233904Y-74174742D01*
X157186285Y-74222361D01*
X157091047Y-74269980D01*
X156805333Y-74269980D01*
X156710095Y-74222361D01*
X156662476Y-74174742D01*
X158138666Y-73603314D02*
X158138666Y-74269980D01*
X157900571Y-73222361D02*
X157662476Y-73936647D01*
X158281523Y-73936647D01*
X153107714Y-76169980D02*
X152536285Y-76169980D01*
X152822000Y-76169980D02*
X152822000Y-75169980D01*
X152726761Y-75312838D01*
X152631523Y-75408076D01*
X152536285Y-75455695D01*
%TO.C,D33*%
X144188714Y-74523780D02*
X144188714Y-73523780D01*
X144426809Y-73523780D01*
X144569666Y-73571400D01*
X144664904Y-73666638D01*
X144712523Y-73761876D01*
X144760142Y-73952352D01*
X144760142Y-74095209D01*
X144712523Y-74285685D01*
X144664904Y-74380923D01*
X144569666Y-74476161D01*
X144426809Y-74523780D01*
X144188714Y-74523780D01*
X145093476Y-73523780D02*
X145712523Y-73523780D01*
X145379190Y-73904733D01*
X145522047Y-73904733D01*
X145617285Y-73952352D01*
X145664904Y-73999971D01*
X145712523Y-74095209D01*
X145712523Y-74333304D01*
X145664904Y-74428542D01*
X145617285Y-74476161D01*
X145522047Y-74523780D01*
X145236333Y-74523780D01*
X145141095Y-74476161D01*
X145093476Y-74428542D01*
X146045857Y-73523780D02*
X146664904Y-73523780D01*
X146331571Y-73904733D01*
X146474428Y-73904733D01*
X146569666Y-73952352D01*
X146617285Y-73999971D01*
X146664904Y-74095209D01*
X146664904Y-74333304D01*
X146617285Y-74428542D01*
X146569666Y-74476161D01*
X146474428Y-74523780D01*
X146188714Y-74523780D01*
X146093476Y-74476161D01*
X146045857Y-74428542D01*
X141538714Y-76423780D02*
X140967285Y-76423780D01*
X141253000Y-76423780D02*
X141253000Y-75423780D01*
X141157761Y-75566638D01*
X141062523Y-75661876D01*
X140967285Y-75709495D01*
%TO.C,D32*%
X142586714Y-87929980D02*
X142586714Y-86929980D01*
X142824809Y-86929980D01*
X142967666Y-86977600D01*
X143062904Y-87072838D01*
X143110523Y-87168076D01*
X143158142Y-87358552D01*
X143158142Y-87501409D01*
X143110523Y-87691885D01*
X143062904Y-87787123D01*
X142967666Y-87882361D01*
X142824809Y-87929980D01*
X142586714Y-87929980D01*
X143491476Y-86929980D02*
X144110523Y-86929980D01*
X143777190Y-87310933D01*
X143920047Y-87310933D01*
X144015285Y-87358552D01*
X144062904Y-87406171D01*
X144110523Y-87501409D01*
X144110523Y-87739504D01*
X144062904Y-87834742D01*
X144015285Y-87882361D01*
X143920047Y-87929980D01*
X143634333Y-87929980D01*
X143539095Y-87882361D01*
X143491476Y-87834742D01*
X144491476Y-87025219D02*
X144539095Y-86977600D01*
X144634333Y-86929980D01*
X144872428Y-86929980D01*
X144967666Y-86977600D01*
X145015285Y-87025219D01*
X145062904Y-87120457D01*
X145062904Y-87215695D01*
X145015285Y-87358552D01*
X144443857Y-87929980D01*
X145062904Y-87929980D01*
X139936714Y-82697580D02*
X139365285Y-82697580D01*
X139651000Y-82697580D02*
X139651000Y-81697580D01*
X139555761Y-81840438D01*
X139460523Y-81935676D01*
X139365285Y-81983295D01*
%TO.C,D31*%
X134206714Y-89509780D02*
X134206714Y-88509780D01*
X134444809Y-88509780D01*
X134587666Y-88557400D01*
X134682904Y-88652638D01*
X134730523Y-88747876D01*
X134778142Y-88938352D01*
X134778142Y-89081209D01*
X134730523Y-89271685D01*
X134682904Y-89366923D01*
X134587666Y-89462161D01*
X134444809Y-89509780D01*
X134206714Y-89509780D01*
X135111476Y-88509780D02*
X135730523Y-88509780D01*
X135397190Y-88890733D01*
X135540047Y-88890733D01*
X135635285Y-88938352D01*
X135682904Y-88985971D01*
X135730523Y-89081209D01*
X135730523Y-89319304D01*
X135682904Y-89414542D01*
X135635285Y-89462161D01*
X135540047Y-89509780D01*
X135254333Y-89509780D01*
X135159095Y-89462161D01*
X135111476Y-89414542D01*
X136682904Y-89509780D02*
X136111476Y-89509780D01*
X136397190Y-89509780D02*
X136397190Y-88509780D01*
X136301952Y-88652638D01*
X136206714Y-88747876D01*
X136111476Y-88795495D01*
X131556714Y-91409780D02*
X130985285Y-91409780D01*
X131271000Y-91409780D02*
X131271000Y-90409780D01*
X131175761Y-90552638D01*
X131080523Y-90647876D01*
X130985285Y-90695495D01*
%TO.C,D30*%
X125937714Y-89459180D02*
X125937714Y-88459180D01*
X126175809Y-88459180D01*
X126318666Y-88506800D01*
X126413904Y-88602038D01*
X126461523Y-88697276D01*
X126509142Y-88887752D01*
X126509142Y-89030609D01*
X126461523Y-89221085D01*
X126413904Y-89316323D01*
X126318666Y-89411561D01*
X126175809Y-89459180D01*
X125937714Y-89459180D01*
X126842476Y-88459180D02*
X127461523Y-88459180D01*
X127128190Y-88840133D01*
X127271047Y-88840133D01*
X127366285Y-88887752D01*
X127413904Y-88935371D01*
X127461523Y-89030609D01*
X127461523Y-89268704D01*
X127413904Y-89363942D01*
X127366285Y-89411561D01*
X127271047Y-89459180D01*
X126985333Y-89459180D01*
X126890095Y-89411561D01*
X126842476Y-89363942D01*
X128080571Y-88459180D02*
X128175809Y-88459180D01*
X128271047Y-88506800D01*
X128318666Y-88554419D01*
X128366285Y-88649657D01*
X128413904Y-88840133D01*
X128413904Y-89078228D01*
X128366285Y-89268704D01*
X128318666Y-89363942D01*
X128271047Y-89411561D01*
X128175809Y-89459180D01*
X128080571Y-89459180D01*
X127985333Y-89411561D01*
X127937714Y-89363942D01*
X127890095Y-89268704D01*
X127842476Y-89078228D01*
X127842476Y-88840133D01*
X127890095Y-88649657D01*
X127937714Y-88554419D01*
X127985333Y-88506800D01*
X128080571Y-88459180D01*
X123287714Y-91359180D02*
X122716285Y-91359180D01*
X123002000Y-91359180D02*
X123002000Y-90359180D01*
X122906761Y-90502038D01*
X122811523Y-90597276D01*
X122716285Y-90644895D01*
%TO.C,D29*%
X122915914Y-84374380D02*
X122915914Y-83374380D01*
X123154009Y-83374380D01*
X123296866Y-83422000D01*
X123392104Y-83517238D01*
X123439723Y-83612476D01*
X123487342Y-83802952D01*
X123487342Y-83945809D01*
X123439723Y-84136285D01*
X123392104Y-84231523D01*
X123296866Y-84326761D01*
X123154009Y-84374380D01*
X122915914Y-84374380D01*
X123868295Y-83469619D02*
X123915914Y-83422000D01*
X124011152Y-83374380D01*
X124249247Y-83374380D01*
X124344485Y-83422000D01*
X124392104Y-83469619D01*
X124439723Y-83564857D01*
X124439723Y-83660095D01*
X124392104Y-83802952D01*
X123820676Y-84374380D01*
X124439723Y-84374380D01*
X124915914Y-84374380D02*
X125106390Y-84374380D01*
X125201628Y-84326761D01*
X125249247Y-84279142D01*
X125344485Y-84136285D01*
X125392104Y-83945809D01*
X125392104Y-83564857D01*
X125344485Y-83469619D01*
X125296866Y-83422000D01*
X125201628Y-83374380D01*
X125011152Y-83374380D01*
X124915914Y-83422000D01*
X124868295Y-83469619D01*
X124820676Y-83564857D01*
X124820676Y-83802952D01*
X124868295Y-83898190D01*
X124915914Y-83945809D01*
X125011152Y-83993428D01*
X125201628Y-83993428D01*
X125296866Y-83945809D01*
X125344485Y-83898190D01*
X125392104Y-83802952D01*
X114945714Y-82723380D02*
X114374285Y-82723380D01*
X114660000Y-82723380D02*
X114660000Y-81723380D01*
X114564761Y-81866238D01*
X114469523Y-81961476D01*
X114374285Y-82009095D01*
%TO.C,D28*%
X117835514Y-75255380D02*
X117835514Y-74255380D01*
X118073609Y-74255380D01*
X118216466Y-74303000D01*
X118311704Y-74398238D01*
X118359323Y-74493476D01*
X118406942Y-74683952D01*
X118406942Y-74826809D01*
X118359323Y-75017285D01*
X118311704Y-75112523D01*
X118216466Y-75207761D01*
X118073609Y-75255380D01*
X117835514Y-75255380D01*
X118787895Y-74350619D02*
X118835514Y-74303000D01*
X118930752Y-74255380D01*
X119168847Y-74255380D01*
X119264085Y-74303000D01*
X119311704Y-74350619D01*
X119359323Y-74445857D01*
X119359323Y-74541095D01*
X119311704Y-74683952D01*
X118740276Y-75255380D01*
X119359323Y-75255380D01*
X119930752Y-74683952D02*
X119835514Y-74636333D01*
X119787895Y-74588714D01*
X119740276Y-74493476D01*
X119740276Y-74445857D01*
X119787895Y-74350619D01*
X119835514Y-74303000D01*
X119930752Y-74255380D01*
X120121228Y-74255380D01*
X120216466Y-74303000D01*
X120264085Y-74350619D01*
X120311704Y-74445857D01*
X120311704Y-74493476D01*
X120264085Y-74588714D01*
X120216466Y-74636333D01*
X120121228Y-74683952D01*
X119930752Y-74683952D01*
X119835514Y-74731571D01*
X119787895Y-74779190D01*
X119740276Y-74874428D01*
X119740276Y-75064904D01*
X119787895Y-75160142D01*
X119835514Y-75207761D01*
X119930752Y-75255380D01*
X120121228Y-75255380D01*
X120216466Y-75207761D01*
X120264085Y-75160142D01*
X120311704Y-75064904D01*
X120311704Y-74874428D01*
X120264085Y-74779190D01*
X120216466Y-74731571D01*
X120121228Y-74683952D01*
X114956714Y-77058980D02*
X114385285Y-77058980D01*
X114671000Y-77058980D02*
X114671000Y-76058980D01*
X114575761Y-76201838D01*
X114480523Y-76297076D01*
X114385285Y-76344695D01*
%TO.C,D27*%
X105033914Y-75331580D02*
X105033914Y-74331580D01*
X105272009Y-74331580D01*
X105414866Y-74379200D01*
X105510104Y-74474438D01*
X105557723Y-74569676D01*
X105605342Y-74760152D01*
X105605342Y-74903009D01*
X105557723Y-75093485D01*
X105510104Y-75188723D01*
X105414866Y-75283961D01*
X105272009Y-75331580D01*
X105033914Y-75331580D01*
X105986295Y-74426819D02*
X106033914Y-74379200D01*
X106129152Y-74331580D01*
X106367247Y-74331580D01*
X106462485Y-74379200D01*
X106510104Y-74426819D01*
X106557723Y-74522057D01*
X106557723Y-74617295D01*
X106510104Y-74760152D01*
X105938676Y-75331580D01*
X106557723Y-75331580D01*
X106891057Y-74331580D02*
X107557723Y-74331580D01*
X107129152Y-75331580D01*
X102346714Y-77160380D02*
X101775285Y-77160380D01*
X102061000Y-77160380D02*
X102061000Y-76160380D01*
X101965761Y-76303238D01*
X101870523Y-76398476D01*
X101775285Y-76446095D01*
%TO.C,D26*%
X108539114Y-84450180D02*
X108539114Y-83450180D01*
X108777209Y-83450180D01*
X108920066Y-83497800D01*
X109015304Y-83593038D01*
X109062923Y-83688276D01*
X109110542Y-83878752D01*
X109110542Y-84021609D01*
X109062923Y-84212085D01*
X109015304Y-84307323D01*
X108920066Y-84402561D01*
X108777209Y-84450180D01*
X108539114Y-84450180D01*
X109491495Y-83545419D02*
X109539114Y-83497800D01*
X109634352Y-83450180D01*
X109872447Y-83450180D01*
X109967685Y-83497800D01*
X110015304Y-83545419D01*
X110062923Y-83640657D01*
X110062923Y-83735895D01*
X110015304Y-83878752D01*
X109443876Y-84450180D01*
X110062923Y-84450180D01*
X110920066Y-83450180D02*
X110729590Y-83450180D01*
X110634352Y-83497800D01*
X110586733Y-83545419D01*
X110491495Y-83688276D01*
X110443876Y-83878752D01*
X110443876Y-84259704D01*
X110491495Y-84354942D01*
X110539114Y-84402561D01*
X110634352Y-84450180D01*
X110824828Y-84450180D01*
X110920066Y-84402561D01*
X110967685Y-84354942D01*
X111015304Y-84259704D01*
X111015304Y-84021609D01*
X110967685Y-83926371D01*
X110920066Y-83878752D01*
X110824828Y-83831133D01*
X110634352Y-83831133D01*
X110539114Y-83878752D01*
X110491495Y-83926371D01*
X110443876Y-84021609D01*
X100947714Y-82951580D02*
X100376285Y-82951580D01*
X100662000Y-82951580D02*
X100662000Y-81951580D01*
X100566761Y-82094438D01*
X100471523Y-82189676D01*
X100376285Y-82237295D01*
%TO.C,D25*%
X105516714Y-89586180D02*
X105516714Y-88586180D01*
X105754809Y-88586180D01*
X105897666Y-88633800D01*
X105992904Y-88729038D01*
X106040523Y-88824276D01*
X106088142Y-89014752D01*
X106088142Y-89157609D01*
X106040523Y-89348085D01*
X105992904Y-89443323D01*
X105897666Y-89538561D01*
X105754809Y-89586180D01*
X105516714Y-89586180D01*
X106469095Y-88681419D02*
X106516714Y-88633800D01*
X106611952Y-88586180D01*
X106850047Y-88586180D01*
X106945285Y-88633800D01*
X106992904Y-88681419D01*
X107040523Y-88776657D01*
X107040523Y-88871895D01*
X106992904Y-89014752D01*
X106421476Y-89586180D01*
X107040523Y-89586180D01*
X107945285Y-88586180D02*
X107469095Y-88586180D01*
X107421476Y-89062371D01*
X107469095Y-89014752D01*
X107564333Y-88967133D01*
X107802428Y-88967133D01*
X107897666Y-89014752D01*
X107945285Y-89062371D01*
X107992904Y-89157609D01*
X107992904Y-89395704D01*
X107945285Y-89490942D01*
X107897666Y-89538561D01*
X107802428Y-89586180D01*
X107564333Y-89586180D01*
X107469095Y-89538561D01*
X107421476Y-89490942D01*
X102866714Y-91486180D02*
X102295285Y-91486180D01*
X102581000Y-91486180D02*
X102581000Y-90486180D01*
X102485761Y-90629038D01*
X102390523Y-90724276D01*
X102295285Y-90771895D01*
%TO.C,D24*%
X96575714Y-89586180D02*
X96575714Y-88586180D01*
X96813809Y-88586180D01*
X96956666Y-88633800D01*
X97051904Y-88729038D01*
X97099523Y-88824276D01*
X97147142Y-89014752D01*
X97147142Y-89157609D01*
X97099523Y-89348085D01*
X97051904Y-89443323D01*
X96956666Y-89538561D01*
X96813809Y-89586180D01*
X96575714Y-89586180D01*
X97528095Y-88681419D02*
X97575714Y-88633800D01*
X97670952Y-88586180D01*
X97909047Y-88586180D01*
X98004285Y-88633800D01*
X98051904Y-88681419D01*
X98099523Y-88776657D01*
X98099523Y-88871895D01*
X98051904Y-89014752D01*
X97480476Y-89586180D01*
X98099523Y-89586180D01*
X98956666Y-88919514D02*
X98956666Y-89586180D01*
X98718571Y-88538561D02*
X98480476Y-89252847D01*
X99099523Y-89252847D01*
X93925714Y-91486180D02*
X93354285Y-91486180D01*
X93640000Y-91486180D02*
X93640000Y-90486180D01*
X93544761Y-90629038D01*
X93449523Y-90724276D01*
X93354285Y-90771895D01*
%TO.C,D23*%
X88232914Y-89611380D02*
X88232914Y-88611380D01*
X88471009Y-88611380D01*
X88613866Y-88659000D01*
X88709104Y-88754238D01*
X88756723Y-88849476D01*
X88804342Y-89039952D01*
X88804342Y-89182809D01*
X88756723Y-89373285D01*
X88709104Y-89468523D01*
X88613866Y-89563761D01*
X88471009Y-89611380D01*
X88232914Y-89611380D01*
X89185295Y-88706619D02*
X89232914Y-88659000D01*
X89328152Y-88611380D01*
X89566247Y-88611380D01*
X89661485Y-88659000D01*
X89709104Y-88706619D01*
X89756723Y-88801857D01*
X89756723Y-88897095D01*
X89709104Y-89039952D01*
X89137676Y-89611380D01*
X89756723Y-89611380D01*
X90090057Y-88611380D02*
X90709104Y-88611380D01*
X90375771Y-88992333D01*
X90518628Y-88992333D01*
X90613866Y-89039952D01*
X90661485Y-89087571D01*
X90709104Y-89182809D01*
X90709104Y-89420904D01*
X90661485Y-89516142D01*
X90613866Y-89563761D01*
X90518628Y-89611380D01*
X90232914Y-89611380D01*
X90137676Y-89563761D01*
X90090057Y-89516142D01*
X85582914Y-91511380D02*
X85011485Y-91511380D01*
X85297200Y-91511380D02*
X85297200Y-90511380D01*
X85201961Y-90654238D01*
X85106723Y-90749476D01*
X85011485Y-90797095D01*
%TO.C,D22*%
X79735514Y-89535380D02*
X79735514Y-88535380D01*
X79973609Y-88535380D01*
X80116466Y-88583000D01*
X80211704Y-88678238D01*
X80259323Y-88773476D01*
X80306942Y-88963952D01*
X80306942Y-89106809D01*
X80259323Y-89297285D01*
X80211704Y-89392523D01*
X80116466Y-89487761D01*
X79973609Y-89535380D01*
X79735514Y-89535380D01*
X80687895Y-88630619D02*
X80735514Y-88583000D01*
X80830752Y-88535380D01*
X81068847Y-88535380D01*
X81164085Y-88583000D01*
X81211704Y-88630619D01*
X81259323Y-88725857D01*
X81259323Y-88821095D01*
X81211704Y-88963952D01*
X80640276Y-89535380D01*
X81259323Y-89535380D01*
X81640276Y-88630619D02*
X81687895Y-88583000D01*
X81783133Y-88535380D01*
X82021228Y-88535380D01*
X82116466Y-88583000D01*
X82164085Y-88630619D01*
X82211704Y-88725857D01*
X82211704Y-88821095D01*
X82164085Y-88963952D01*
X81592657Y-89535380D01*
X82211704Y-89535380D01*
X77085514Y-91435380D02*
X76514085Y-91435380D01*
X76799800Y-91435380D02*
X76799800Y-90435380D01*
X76704561Y-90578238D01*
X76609323Y-90673476D01*
X76514085Y-90721095D01*
%TO.C,D21*%
X79278314Y-80670780D02*
X79278314Y-79670780D01*
X79516409Y-79670780D01*
X79659266Y-79718400D01*
X79754504Y-79813638D01*
X79802123Y-79908876D01*
X79849742Y-80099352D01*
X79849742Y-80242209D01*
X79802123Y-80432685D01*
X79754504Y-80527923D01*
X79659266Y-80623161D01*
X79516409Y-80670780D01*
X79278314Y-80670780D01*
X80230695Y-79766019D02*
X80278314Y-79718400D01*
X80373552Y-79670780D01*
X80611647Y-79670780D01*
X80706885Y-79718400D01*
X80754504Y-79766019D01*
X80802123Y-79861257D01*
X80802123Y-79956495D01*
X80754504Y-80099352D01*
X80183076Y-80670780D01*
X80802123Y-80670780D01*
X81754504Y-80670780D02*
X81183076Y-80670780D01*
X81468790Y-80670780D02*
X81468790Y-79670780D01*
X81373552Y-79813638D01*
X81278314Y-79908876D01*
X81183076Y-79956495D01*
X76628314Y-82570780D02*
X76056885Y-82570780D01*
X76342600Y-82570780D02*
X76342600Y-81570780D01*
X76247361Y-81713638D01*
X76152123Y-81808876D01*
X76056885Y-81856495D01*
%TO.C,D20*%
X78527914Y-73812580D02*
X78527914Y-72812580D01*
X78766009Y-72812580D01*
X78908866Y-72860200D01*
X79004104Y-72955438D01*
X79051723Y-73050676D01*
X79099342Y-73241152D01*
X79099342Y-73384009D01*
X79051723Y-73574485D01*
X79004104Y-73669723D01*
X78908866Y-73764961D01*
X78766009Y-73812580D01*
X78527914Y-73812580D01*
X79480295Y-72907819D02*
X79527914Y-72860200D01*
X79623152Y-72812580D01*
X79861247Y-72812580D01*
X79956485Y-72860200D01*
X80004104Y-72907819D01*
X80051723Y-73003057D01*
X80051723Y-73098295D01*
X80004104Y-73241152D01*
X79432676Y-73812580D01*
X80051723Y-73812580D01*
X80670771Y-72812580D02*
X80766009Y-72812580D01*
X80861247Y-72860200D01*
X80908866Y-72907819D01*
X80956485Y-73003057D01*
X81004104Y-73193533D01*
X81004104Y-73431628D01*
X80956485Y-73622104D01*
X80908866Y-73717342D01*
X80861247Y-73764961D01*
X80766009Y-73812580D01*
X80670771Y-73812580D01*
X80575533Y-73764961D01*
X80527914Y-73717342D01*
X80480295Y-73622104D01*
X80432676Y-73431628D01*
X80432676Y-73193533D01*
X80480295Y-73003057D01*
X80527914Y-72907819D01*
X80575533Y-72860200D01*
X80670771Y-72812580D01*
X75877914Y-75712580D02*
X75306485Y-75712580D01*
X75592200Y-75712580D02*
X75592200Y-74712580D01*
X75496961Y-74855438D01*
X75401723Y-74950676D01*
X75306485Y-74998295D01*
%TO.C,D19*%
X66324314Y-74168380D02*
X66324314Y-73168380D01*
X66562409Y-73168380D01*
X66705266Y-73216000D01*
X66800504Y-73311238D01*
X66848123Y-73406476D01*
X66895742Y-73596952D01*
X66895742Y-73739809D01*
X66848123Y-73930285D01*
X66800504Y-74025523D01*
X66705266Y-74120761D01*
X66562409Y-74168380D01*
X66324314Y-74168380D01*
X67848123Y-74168380D02*
X67276695Y-74168380D01*
X67562409Y-74168380D02*
X67562409Y-73168380D01*
X67467171Y-73311238D01*
X67371933Y-73406476D01*
X67276695Y-73454095D01*
X68324314Y-74168380D02*
X68514790Y-74168380D01*
X68610028Y-74120761D01*
X68657647Y-74073142D01*
X68752885Y-73930285D01*
X68800504Y-73739809D01*
X68800504Y-73358857D01*
X68752885Y-73263619D01*
X68705266Y-73216000D01*
X68610028Y-73168380D01*
X68419552Y-73168380D01*
X68324314Y-73216000D01*
X68276695Y-73263619D01*
X68229076Y-73358857D01*
X68229076Y-73596952D01*
X68276695Y-73692190D01*
X68324314Y-73739809D01*
X68419552Y-73787428D01*
X68610028Y-73787428D01*
X68705266Y-73739809D01*
X68752885Y-73692190D01*
X68800504Y-73596952D01*
X63674314Y-76068380D02*
X63102885Y-76068380D01*
X63388600Y-76068380D02*
X63388600Y-75068380D01*
X63293361Y-75211238D01*
X63198123Y-75306476D01*
X63102885Y-75354095D01*
%TO.C,D18*%
X59999714Y-84297780D02*
X59999714Y-83297780D01*
X60237809Y-83297780D01*
X60380666Y-83345400D01*
X60475904Y-83440638D01*
X60523523Y-83535876D01*
X60571142Y-83726352D01*
X60571142Y-83869209D01*
X60523523Y-84059685D01*
X60475904Y-84154923D01*
X60380666Y-84250161D01*
X60237809Y-84297780D01*
X59999714Y-84297780D01*
X61523523Y-84297780D02*
X60952095Y-84297780D01*
X61237809Y-84297780D02*
X61237809Y-83297780D01*
X61142571Y-83440638D01*
X61047333Y-83535876D01*
X60952095Y-83583495D01*
X62094952Y-83726352D02*
X61999714Y-83678733D01*
X61952095Y-83631114D01*
X61904476Y-83535876D01*
X61904476Y-83488257D01*
X61952095Y-83393019D01*
X61999714Y-83345400D01*
X62094952Y-83297780D01*
X62285428Y-83297780D01*
X62380666Y-83345400D01*
X62428285Y-83393019D01*
X62475904Y-83488257D01*
X62475904Y-83535876D01*
X62428285Y-83631114D01*
X62380666Y-83678733D01*
X62285428Y-83726352D01*
X62094952Y-83726352D01*
X61999714Y-83773971D01*
X61952095Y-83821590D01*
X61904476Y-83916828D01*
X61904476Y-84107304D01*
X61952095Y-84202542D01*
X61999714Y-84250161D01*
X62094952Y-84297780D01*
X62285428Y-84297780D01*
X62380666Y-84250161D01*
X62428285Y-84202542D01*
X62475904Y-84107304D01*
X62475904Y-83916828D01*
X62428285Y-83821590D01*
X62380666Y-83773971D01*
X62285428Y-83726352D01*
X62009514Y-82621380D02*
X61438085Y-82621380D01*
X61723800Y-82621380D02*
X61723800Y-81621380D01*
X61628561Y-81764238D01*
X61533323Y-81859476D01*
X61438085Y-81907095D01*
%TO.C,D17*%
X66566714Y-89204980D02*
X66566714Y-88204980D01*
X66804809Y-88204980D01*
X66947666Y-88252600D01*
X67042904Y-88347838D01*
X67090523Y-88443076D01*
X67138142Y-88633552D01*
X67138142Y-88776409D01*
X67090523Y-88966885D01*
X67042904Y-89062123D01*
X66947666Y-89157361D01*
X66804809Y-89204980D01*
X66566714Y-89204980D01*
X68090523Y-89204980D02*
X67519095Y-89204980D01*
X67804809Y-89204980D02*
X67804809Y-88204980D01*
X67709571Y-88347838D01*
X67614333Y-88443076D01*
X67519095Y-88490695D01*
X68423857Y-88204980D02*
X69090523Y-88204980D01*
X68661952Y-89204980D01*
X63916714Y-91104980D02*
X63345285Y-91104980D01*
X63631000Y-91104980D02*
X63631000Y-90104980D01*
X63535761Y-90247838D01*
X63440523Y-90343076D01*
X63345285Y-90390695D01*
%TO.C,D16*%
X59020714Y-89128780D02*
X59020714Y-88128780D01*
X59258809Y-88128780D01*
X59401666Y-88176400D01*
X59496904Y-88271638D01*
X59544523Y-88366876D01*
X59592142Y-88557352D01*
X59592142Y-88700209D01*
X59544523Y-88890685D01*
X59496904Y-88985923D01*
X59401666Y-89081161D01*
X59258809Y-89128780D01*
X59020714Y-89128780D01*
X60544523Y-89128780D02*
X59973095Y-89128780D01*
X60258809Y-89128780D02*
X60258809Y-88128780D01*
X60163571Y-88271638D01*
X60068333Y-88366876D01*
X59973095Y-88414495D01*
X61401666Y-88128780D02*
X61211190Y-88128780D01*
X61115952Y-88176400D01*
X61068333Y-88224019D01*
X60973095Y-88366876D01*
X60925476Y-88557352D01*
X60925476Y-88938304D01*
X60973095Y-89033542D01*
X61020714Y-89081161D01*
X61115952Y-89128780D01*
X61306428Y-89128780D01*
X61401666Y-89081161D01*
X61449285Y-89033542D01*
X61496904Y-88938304D01*
X61496904Y-88700209D01*
X61449285Y-88604971D01*
X61401666Y-88557352D01*
X61306428Y-88509733D01*
X61115952Y-88509733D01*
X61020714Y-88557352D01*
X60973095Y-88604971D01*
X60925476Y-88700209D01*
X56370714Y-91028780D02*
X55799285Y-91028780D01*
X56085000Y-91028780D02*
X56085000Y-90028780D01*
X55989761Y-90171638D01*
X55894523Y-90266876D01*
X55799285Y-90314495D01*
%TO.C,D15*%
X51135114Y-89098380D02*
X51135114Y-88098380D01*
X51373209Y-88098380D01*
X51516066Y-88146000D01*
X51611304Y-88241238D01*
X51658923Y-88336476D01*
X51706542Y-88526952D01*
X51706542Y-88669809D01*
X51658923Y-88860285D01*
X51611304Y-88955523D01*
X51516066Y-89050761D01*
X51373209Y-89098380D01*
X51135114Y-89098380D01*
X52658923Y-89098380D02*
X52087495Y-89098380D01*
X52373209Y-89098380D02*
X52373209Y-88098380D01*
X52277971Y-88241238D01*
X52182733Y-88336476D01*
X52087495Y-88384095D01*
X53563685Y-88098380D02*
X53087495Y-88098380D01*
X53039876Y-88574571D01*
X53087495Y-88526952D01*
X53182733Y-88479333D01*
X53420828Y-88479333D01*
X53516066Y-88526952D01*
X53563685Y-88574571D01*
X53611304Y-88669809D01*
X53611304Y-88907904D01*
X53563685Y-89003142D01*
X53516066Y-89050761D01*
X53420828Y-89098380D01*
X53182733Y-89098380D01*
X53087495Y-89050761D01*
X53039876Y-89003142D01*
X48522114Y-90977980D02*
X47950685Y-90977980D01*
X48236400Y-90977980D02*
X48236400Y-89977980D01*
X48141161Y-90120838D01*
X48045923Y-90216076D01*
X47950685Y-90263695D01*
%TO.C,D14*%
X42995514Y-98806380D02*
X42995514Y-97806380D01*
X43233609Y-97806380D01*
X43376466Y-97854000D01*
X43471704Y-97949238D01*
X43519323Y-98044476D01*
X43566942Y-98234952D01*
X43566942Y-98377809D01*
X43519323Y-98568285D01*
X43471704Y-98663523D01*
X43376466Y-98758761D01*
X43233609Y-98806380D01*
X42995514Y-98806380D01*
X44519323Y-98806380D02*
X43947895Y-98806380D01*
X44233609Y-98806380D02*
X44233609Y-97806380D01*
X44138371Y-97949238D01*
X44043133Y-98044476D01*
X43947895Y-98092095D01*
X45376466Y-98139714D02*
X45376466Y-98806380D01*
X45138371Y-97758761D02*
X44900276Y-98473047D01*
X45519323Y-98473047D01*
X40345514Y-100706380D02*
X39774085Y-100706380D01*
X40059800Y-100706380D02*
X40059800Y-99706380D01*
X39964561Y-99849238D01*
X39869323Y-99944476D01*
X39774085Y-99992095D01*
%TO.C,D13*%
X43351114Y-83947180D02*
X43351114Y-82947180D01*
X43589209Y-82947180D01*
X43732066Y-82994800D01*
X43827304Y-83090038D01*
X43874923Y-83185276D01*
X43922542Y-83375752D01*
X43922542Y-83518609D01*
X43874923Y-83709085D01*
X43827304Y-83804323D01*
X43732066Y-83899561D01*
X43589209Y-83947180D01*
X43351114Y-83947180D01*
X44874923Y-83947180D02*
X44303495Y-83947180D01*
X44589209Y-83947180D02*
X44589209Y-82947180D01*
X44493971Y-83090038D01*
X44398733Y-83185276D01*
X44303495Y-83232895D01*
X45208257Y-82947180D02*
X45827304Y-82947180D01*
X45493971Y-83328133D01*
X45636828Y-83328133D01*
X45732066Y-83375752D01*
X45779685Y-83423371D01*
X45827304Y-83518609D01*
X45827304Y-83756704D01*
X45779685Y-83851942D01*
X45732066Y-83899561D01*
X45636828Y-83947180D01*
X45351114Y-83947180D01*
X45255876Y-83899561D01*
X45208257Y-83851942D01*
X40701114Y-85847180D02*
X40129685Y-85847180D01*
X40415400Y-85847180D02*
X40415400Y-84847180D01*
X40320161Y-84990038D01*
X40224923Y-85085276D01*
X40129685Y-85132895D01*
%TO.C,D12*%
X43362714Y-76733780D02*
X43362714Y-75733780D01*
X43600809Y-75733780D01*
X43743666Y-75781400D01*
X43838904Y-75876638D01*
X43886523Y-75971876D01*
X43934142Y-76162352D01*
X43934142Y-76305209D01*
X43886523Y-76495685D01*
X43838904Y-76590923D01*
X43743666Y-76686161D01*
X43600809Y-76733780D01*
X43362714Y-76733780D01*
X44886523Y-76733780D02*
X44315095Y-76733780D01*
X44600809Y-76733780D02*
X44600809Y-75733780D01*
X44505571Y-75876638D01*
X44410333Y-75971876D01*
X44315095Y-76019495D01*
X45267476Y-75829019D02*
X45315095Y-75781400D01*
X45410333Y-75733780D01*
X45648428Y-75733780D01*
X45743666Y-75781400D01*
X45791285Y-75829019D01*
X45838904Y-75924257D01*
X45838904Y-76019495D01*
X45791285Y-76162352D01*
X45219857Y-76733780D01*
X45838904Y-76733780D01*
X40712714Y-78633780D02*
X40141285Y-78633780D01*
X40427000Y-78633780D02*
X40427000Y-77633780D01*
X40331761Y-77776638D01*
X40236523Y-77871876D01*
X40141285Y-77919495D01*
%TO.C,D11*%
X43300314Y-69570780D02*
X43300314Y-68570780D01*
X43538409Y-68570780D01*
X43681266Y-68618400D01*
X43776504Y-68713638D01*
X43824123Y-68808876D01*
X43871742Y-68999352D01*
X43871742Y-69142209D01*
X43824123Y-69332685D01*
X43776504Y-69427923D01*
X43681266Y-69523161D01*
X43538409Y-69570780D01*
X43300314Y-69570780D01*
X44824123Y-69570780D02*
X44252695Y-69570780D01*
X44538409Y-69570780D02*
X44538409Y-68570780D01*
X44443171Y-68713638D01*
X44347933Y-68808876D01*
X44252695Y-68856495D01*
X45776504Y-69570780D02*
X45205076Y-69570780D01*
X45490790Y-69570780D02*
X45490790Y-68570780D01*
X45395552Y-68713638D01*
X45300314Y-68808876D01*
X45205076Y-68856495D01*
X40650314Y-71470780D02*
X40078885Y-71470780D01*
X40364600Y-71470780D02*
X40364600Y-70470780D01*
X40269361Y-70613638D01*
X40174123Y-70708876D01*
X40078885Y-70756495D01*
%TO.C,D10*%
X63327114Y-54935380D02*
X63327114Y-53935380D01*
X63565209Y-53935380D01*
X63708066Y-53983000D01*
X63803304Y-54078238D01*
X63850923Y-54173476D01*
X63898542Y-54363952D01*
X63898542Y-54506809D01*
X63850923Y-54697285D01*
X63803304Y-54792523D01*
X63708066Y-54887761D01*
X63565209Y-54935380D01*
X63327114Y-54935380D01*
X64850923Y-54935380D02*
X64279495Y-54935380D01*
X64565209Y-54935380D02*
X64565209Y-53935380D01*
X64469971Y-54078238D01*
X64374733Y-54173476D01*
X64279495Y-54221095D01*
X65469971Y-53935380D02*
X65565209Y-53935380D01*
X65660447Y-53983000D01*
X65708066Y-54030619D01*
X65755685Y-54125857D01*
X65803304Y-54316333D01*
X65803304Y-54554428D01*
X65755685Y-54744904D01*
X65708066Y-54840142D01*
X65660447Y-54887761D01*
X65565209Y-54935380D01*
X65469971Y-54935380D01*
X65374733Y-54887761D01*
X65327114Y-54840142D01*
X65279495Y-54744904D01*
X65231876Y-54554428D01*
X65231876Y-54316333D01*
X65279495Y-54125857D01*
X65327114Y-54030619D01*
X65374733Y-53983000D01*
X65469971Y-53935380D01*
X58885314Y-49753780D02*
X58313885Y-49753780D01*
X58599600Y-49753780D02*
X58599600Y-48753780D01*
X58504361Y-48896638D01*
X58409123Y-48991876D01*
X58313885Y-49039495D01*
%TO.C,D9*%
X69696104Y-54859180D02*
X69696104Y-53859180D01*
X69934200Y-53859180D01*
X70077057Y-53906800D01*
X70172295Y-54002038D01*
X70219914Y-54097276D01*
X70267533Y-54287752D01*
X70267533Y-54430609D01*
X70219914Y-54621085D01*
X70172295Y-54716323D01*
X70077057Y-54811561D01*
X69934200Y-54859180D01*
X69696104Y-54859180D01*
X70743723Y-54859180D02*
X70934200Y-54859180D01*
X71029438Y-54811561D01*
X71077057Y-54763942D01*
X71172295Y-54621085D01*
X71219914Y-54430609D01*
X71219914Y-54049657D01*
X71172295Y-53954419D01*
X71124676Y-53906800D01*
X71029438Y-53859180D01*
X70838961Y-53859180D01*
X70743723Y-53906800D01*
X70696104Y-53954419D01*
X70648485Y-54049657D01*
X70648485Y-54287752D01*
X70696104Y-54382990D01*
X70743723Y-54430609D01*
X70838961Y-54478228D01*
X71029438Y-54478228D01*
X71124676Y-54430609D01*
X71172295Y-54382990D01*
X71219914Y-54287752D01*
X66708514Y-49728380D02*
X66137085Y-49728380D01*
X66422800Y-49728380D02*
X66422800Y-48728380D01*
X66327561Y-48871238D01*
X66232323Y-48966476D01*
X66137085Y-49014095D01*
%TO.C,D8*%
X77812504Y-54986380D02*
X77812504Y-53986380D01*
X78050600Y-53986380D01*
X78193457Y-54034000D01*
X78288695Y-54129238D01*
X78336314Y-54224476D01*
X78383933Y-54414952D01*
X78383933Y-54557809D01*
X78336314Y-54748285D01*
X78288695Y-54843523D01*
X78193457Y-54938761D01*
X78050600Y-54986380D01*
X77812504Y-54986380D01*
X78955361Y-54414952D02*
X78860123Y-54367333D01*
X78812504Y-54319714D01*
X78764885Y-54224476D01*
X78764885Y-54176857D01*
X78812504Y-54081619D01*
X78860123Y-54034000D01*
X78955361Y-53986380D01*
X79145838Y-53986380D01*
X79241076Y-54034000D01*
X79288695Y-54081619D01*
X79336314Y-54176857D01*
X79336314Y-54224476D01*
X79288695Y-54319714D01*
X79241076Y-54367333D01*
X79145838Y-54414952D01*
X78955361Y-54414952D01*
X78860123Y-54462571D01*
X78812504Y-54510190D01*
X78764885Y-54605428D01*
X78764885Y-54795904D01*
X78812504Y-54891142D01*
X78860123Y-54938761D01*
X78955361Y-54986380D01*
X79145838Y-54986380D01*
X79241076Y-54938761D01*
X79288695Y-54891142D01*
X79336314Y-54795904D01*
X79336314Y-54605428D01*
X79288695Y-54510190D01*
X79241076Y-54462571D01*
X79145838Y-54414952D01*
X74711714Y-49754180D02*
X74140285Y-49754180D01*
X74426000Y-49754180D02*
X74426000Y-48754180D01*
X74330761Y-48897038D01*
X74235523Y-48992276D01*
X74140285Y-49039895D01*
%TO.C,D7*%
X85088504Y-54960780D02*
X85088504Y-53960780D01*
X85326600Y-53960780D01*
X85469457Y-54008400D01*
X85564695Y-54103638D01*
X85612314Y-54198876D01*
X85659933Y-54389352D01*
X85659933Y-54532209D01*
X85612314Y-54722685D01*
X85564695Y-54817923D01*
X85469457Y-54913161D01*
X85326600Y-54960780D01*
X85088504Y-54960780D01*
X85993266Y-53960780D02*
X86659933Y-53960780D01*
X86231361Y-54960780D01*
X81976114Y-49702980D02*
X81404685Y-49702980D01*
X81690400Y-49702980D02*
X81690400Y-48702980D01*
X81595161Y-48845838D01*
X81499923Y-48941076D01*
X81404685Y-48988695D01*
%TO.C,D6*%
X101990904Y-55316380D02*
X101990904Y-54316380D01*
X102229000Y-54316380D01*
X102371857Y-54364000D01*
X102467095Y-54459238D01*
X102514714Y-54554476D01*
X102562333Y-54744952D01*
X102562333Y-54887809D01*
X102514714Y-55078285D01*
X102467095Y-55173523D01*
X102371857Y-55268761D01*
X102229000Y-55316380D01*
X101990904Y-55316380D01*
X103419476Y-54316380D02*
X103229000Y-54316380D01*
X103133761Y-54364000D01*
X103086142Y-54411619D01*
X102990904Y-54554476D01*
X102943285Y-54744952D01*
X102943285Y-55125904D01*
X102990904Y-55221142D01*
X103038523Y-55268761D01*
X103133761Y-55316380D01*
X103324238Y-55316380D01*
X103419476Y-55268761D01*
X103467095Y-55221142D01*
X103514714Y-55125904D01*
X103514714Y-54887809D01*
X103467095Y-54792571D01*
X103419476Y-54744952D01*
X103324238Y-54697333D01*
X103133761Y-54697333D01*
X103038523Y-54744952D01*
X102990904Y-54792571D01*
X102943285Y-54887809D01*
X98864714Y-50109380D02*
X98293285Y-50109380D01*
X98579000Y-50109380D02*
X98579000Y-49109380D01*
X98483761Y-49252238D01*
X98388523Y-49347476D01*
X98293285Y-49395095D01*
%TO.C,D5*%
X111479304Y-55367180D02*
X111479304Y-54367180D01*
X111717400Y-54367180D01*
X111860257Y-54414800D01*
X111955495Y-54510038D01*
X112003114Y-54605276D01*
X112050733Y-54795752D01*
X112050733Y-54938609D01*
X112003114Y-55129085D01*
X111955495Y-55224323D01*
X111860257Y-55319561D01*
X111717400Y-55367180D01*
X111479304Y-55367180D01*
X112955495Y-54367180D02*
X112479304Y-54367180D01*
X112431685Y-54843371D01*
X112479304Y-54795752D01*
X112574542Y-54748133D01*
X112812638Y-54748133D01*
X112907876Y-54795752D01*
X112955495Y-54843371D01*
X113003114Y-54938609D01*
X113003114Y-55176704D01*
X112955495Y-55271942D01*
X112907876Y-55319561D01*
X112812638Y-55367180D01*
X112574542Y-55367180D01*
X112479304Y-55319561D01*
X112431685Y-55271942D01*
X108366714Y-50109380D02*
X107795285Y-50109380D01*
X108081000Y-50109380D02*
X108081000Y-49109380D01*
X107985761Y-49252238D01*
X107890523Y-49347476D01*
X107795285Y-49395095D01*
%TO.C,D4*%
X119935304Y-55290980D02*
X119935304Y-54290980D01*
X120173400Y-54290980D01*
X120316257Y-54338600D01*
X120411495Y-54433838D01*
X120459114Y-54529076D01*
X120506733Y-54719552D01*
X120506733Y-54862409D01*
X120459114Y-55052885D01*
X120411495Y-55148123D01*
X120316257Y-55243361D01*
X120173400Y-55290980D01*
X119935304Y-55290980D01*
X121363876Y-54624314D02*
X121363876Y-55290980D01*
X121125780Y-54243361D02*
X120887685Y-54957647D01*
X121506733Y-54957647D01*
X116822714Y-50135180D02*
X116251285Y-50135180D01*
X116537000Y-50135180D02*
X116537000Y-49135180D01*
X116441761Y-49278038D01*
X116346523Y-49373276D01*
X116251285Y-49420895D01*
%TO.C,D3*%
X145286704Y-55519580D02*
X145286704Y-54519580D01*
X145524800Y-54519580D01*
X145667657Y-54567200D01*
X145762895Y-54662438D01*
X145810514Y-54757676D01*
X145858133Y-54948152D01*
X145858133Y-55091009D01*
X145810514Y-55281485D01*
X145762895Y-55376723D01*
X145667657Y-55471961D01*
X145524800Y-55519580D01*
X145286704Y-55519580D01*
X146191466Y-54519580D02*
X146810514Y-54519580D01*
X146477180Y-54900533D01*
X146620038Y-54900533D01*
X146715276Y-54948152D01*
X146762895Y-54995771D01*
X146810514Y-55091009D01*
X146810514Y-55329104D01*
X146762895Y-55424342D01*
X146715276Y-55471961D01*
X146620038Y-55519580D01*
X146334323Y-55519580D01*
X146239085Y-55471961D01*
X146191466Y-55424342D01*
X142185714Y-50261980D02*
X141614285Y-50261980D01*
X141900000Y-50261980D02*
X141900000Y-49261980D01*
X141804761Y-49404838D01*
X141709523Y-49500076D01*
X141614285Y-49547695D01*
%TO.C,D2*%
X153389104Y-55392580D02*
X153389104Y-54392580D01*
X153627200Y-54392580D01*
X153770057Y-54440200D01*
X153865295Y-54535438D01*
X153912914Y-54630676D01*
X153960533Y-54821152D01*
X153960533Y-54964009D01*
X153912914Y-55154485D01*
X153865295Y-55249723D01*
X153770057Y-55344961D01*
X153627200Y-55392580D01*
X153389104Y-55392580D01*
X154341485Y-54487819D02*
X154389104Y-54440200D01*
X154484342Y-54392580D01*
X154722438Y-54392580D01*
X154817676Y-54440200D01*
X154865295Y-54487819D01*
X154912914Y-54583057D01*
X154912914Y-54678295D01*
X154865295Y-54821152D01*
X154293866Y-55392580D01*
X154912914Y-55392580D01*
X150415714Y-50211180D02*
X149844285Y-50211180D01*
X150130000Y-50211180D02*
X150130000Y-49211180D01*
X150034761Y-49354038D01*
X149939523Y-49449276D01*
X149844285Y-49496895D01*
%TD*%
M02*
