<?xml version="1.0" encoding="utf-8"?>
<!-- Generator: Fusion 360, Shaper Origin Export Add-In, Version 1.6.10  -->
<svg xmlns="http://www.w3.org/2000/svg" xmlns:xlink="http://www.w3.org/1999/xlink" xmlns:shaper="http://www.shapertools.com/namespaces/shaper" shaper:fusionaddin="version:1.6.10" width="3.556cm" height="0.3175cm" version="1.1" x="0cm" y="0cm" viewBox="0 0 3.556 0.3175" enable-background="new 0 0 3.556 0.3175" xml:space="preserve"><path d="M-0.5431956,0.1172308 A0.15875,0.15875 47.6005266 0,1 -0.7572844,0.1172308 A0.254,0.254 312.3994734 0,0 -0.9285555,0.0508 L-1.12776,0.0508 -1.12776,-0.0508 -0.9285555,-0.0508 A0.254,0.254 90 0,0 -0.7572844,-0.1172308 A0.15875,0.15875 227.6005266 0,1 -0.5431956,-0.1172308 A0.254,0.254 132.3994734 0,0 -0.3719245,-0.0508 L1.12776,-0.0508 1.12776,0.0508 -0.3719245,0.0508 A0.254,0.254 270 0,0 -0.5431956,0.1172308z" transform="matrix(1,0,0,-1,2.42824,0.15875)" fill="rgb(0,0,0)" stroke-linecap="round" stroke-linejoin="round" /><path d="M-1.12776,-0.0508 L-1.12776,0.0508 -1.95199,0.0508 -2.031365,0.130175 -2.42824,-0 -2.031365,-0.130175 -1.95199,-0.0508 -1.12776,-0.0508z" transform="matrix(1,0,0,-1,2.42824,0.15875)" fill="rgb(0,0,0)" stroke-linecap="round" stroke-linejoin="round" /><path d="M-0.69024,-0 a0.04,0.04 0 1,1 0.08,0 a0.04,0.04 0 1,1 -0.08,0z" transform="matrix(1,0,0,-1,2.42824,0.15875)" fill="rgb(255,255,255)" stroke="rgb(0,0,0)" stroke-width="0.0010cm" stroke-linecap="round" stroke-linejoin="round" /></svg>