<?xml version="1.0" encoding="utf-8"?>
<!-- Generator: Fusion 360, Shaper Origin Export Add-In, Version 1.6.10  -->
<svg xmlns="http://www.w3.org/2000/svg" xmlns:xlink="http://www.w3.org/1999/xlink" xmlns:shaper="http://www.shapertools.com/namespaces/shaper" shaper:fusionaddin="version:1.6.10" width="2.69875cm" height="1.905cm" version="1.1" x="0cm" y="0cm" viewBox="0 0 2.69875 1.905" enable-background="new 0 0 2.69875 1.905" xml:space="preserve"><path d="M0.2188092,-0.239039 A0.254,0.254 165.3667097 0,0 0.4645701,-0.0492074 L0.4647787,0.0515925 A0.254,0.254 270 0,0 0.2189739,0.2415925 A0.9525,0.9525 14.5940238 1,1 0.2188092,-0.239039z" transform="matrix(1,0,0,-1,1.6552941,0.9540926)" fill="rgb(0,0,0)" stroke-linecap="round" stroke-linejoin="round" /><path d="M0.4647787,0.0515925 L0.4645701,-0.0492074 0.9930559,-0.0492074 A0.0503999,0.0503999 270 0,1 0.9930559,0.0515925 L0.4647787,0.0515925z" transform="matrix(1,0,0,-1,1.6552941,0.9540926)" fill="rgb(0,0,0)" stroke-linecap="round" stroke-linejoin="round" /><path d="M-0.9409191,0.0015926 a0.238125,0.238125 0 1,1 0.47625,0 a0.238125,0.238125 0 1,1 -0.47625,0z" transform="matrix(1,0,0,-1,1.6552941,0.9540926)" fill="rgb(255,255,255)" stroke="rgb(0,0,0)" stroke-width="0.0010cm" stroke-linecap="round" stroke-linejoin="round" /></svg>