<?xml version="1.0" encoding="utf-8"?>
<!-- Generator: Fusion 360, Shaper Origin Export Add-In, Version 1.6.10  -->
<svg xmlns="http://www.w3.org/2000/svg" xmlns:xlink="http://www.w3.org/1999/xlink" xmlns:shaper="http://www.shapertools.com/namespaces/shaper" shaper:fusionaddin="version:1.6.10" width="8.255cm" height="8.255cm" version="1.1" x="0cm" y="0cm" viewBox="0 0 8.255 8.255" enable-background="new 0 0 8.255 8.255" xml:space="preserve"><path d="M-4.1275,-6.5484375 L-2.69875,-7.9771875 2.69875,-7.9771875 4.1275,-6.5484375 4.1275,-1.1509375 2.69875,0.2778125 -2.69875,0.2778125 -4.1275,-1.1509375 -4.1275,-6.5484375z" transform="matrix(1,0,0,-1,4.1275,0.2778125)" fill="rgb(0,0,0)" shaper:cutDepth="0.0015875" stroke-linecap="round" stroke-linejoin="round" /><path d="M-2.1404531,-7.7883684 A0.0381,0.0381 47.8625872 1,0 -2.1915765,-7.8448736 L-2.6661851,-7.4154686 A0.0381,0.0381 227.8625872 0,0 -2.6150617,-7.3589634 L-2.1404531,-7.7883684z" transform="matrix(1,0,0,-1,4.1275,0.2778125)" fill="rgb(104,104,104)" fill-rule="nonzero" shaper:cutDepth="0.0000762" stroke-linecap="round" stroke-linejoin="round" /><path d="M-2.3327053,-7.276745 L-2.2485977,-7.3108244 A0.9310459,0.9310459 337.9428441 0,1 -2.1845241,-6.8742274 A0.0381,0.0381 185.3592651 1,0 -2.1086572,-6.8671103 A1.0072459,1.0072459 5.3592643 0,0 -2.1779748,-7.3394399 L-2.1009334,-7.370656 A0.9717536,0.9717536 315.8893735 0,0 -2.3441989,-7.5532118 A1.6462559,1.6462559 352.7985381 0,1 -2.3327053,-7.276745z" transform="matrix(1,0,0,-1,4.1275,0.2778125)" fill="rgb(104,104,104)" fill-rule="nonzero" shaper:cutDepth="0.0000762" stroke-linecap="round" stroke-linejoin="round" /><path d="M-3.5836326,-5.8712186 L-3.5836326,-5.7579232 -3.5190412,-5.7579232 -3.5190412,-6.0613465 -3.5836326,-6.0613465 -3.5836326,-5.9483115 -3.9008598,-5.9483115 -3.9008598,-5.8712186 -3.5836326,-5.8712186z" transform="matrix(1,0,0,-1,4.1275,0.2778125)" fill="rgb(104,104,104)" fill-rule="nonzero" shaper:cutDepth="0.0000762" stroke-linecap="round" stroke-linejoin="round" /><path d="M-3.5190412,-5.4007707 L-3.5190412,-5.47578 -3.774021,-5.6320496 -3.5190412,-5.6320496 -3.5190412,-5.7036731 -3.9008598,-5.7036731 -3.9008598,-5.6263197 -3.6518703,-5.4723942 -3.9008598,-5.4723942 -3.9008598,-5.4007707 -3.5190412,-5.4007707z" transform="matrix(1,0,0,-1,4.1275,0.2778125)" fill="rgb(104,104,104)" fill-rule="nonzero" shaper:cutDepth="0.0000762" stroke-linecap="round" stroke-linejoin="round" /><path d="M-3.5190412,-5.2493731 L-3.5190412,-5.3264661 -3.9008598,-5.3264661 -3.9008598,-5.2493731 -3.5190412,-5.2493731z" transform="matrix(1,0,0,-1,4.1275,0.2778125)" fill="rgb(104,104,104)" fill-rule="nonzero" shaper:cutDepth="0.0000762" stroke-linecap="round" stroke-linejoin="round" /><path d="M-2.9787122,-7.384677 a0.08509,0.08509 0 1,1 0.17018,0 a0.08509,0.08509 0 1,1 -0.17018,0z" transform="matrix(1,0,0,-1,4.1275,0.2778125)" fill="rgb(255,255,255)" stroke="rgb(0,0,0)" stroke-width="0.0010cm" stroke-linecap="round" stroke-linejoin="round" shaper:cutDepth="0.0015875" /><path d="M-3.43789,-6.9611875 a0.32639,0.32639 0 1,1 0.65278,0 a0.32639,0.32639 0 1,1 -0.65278,0z" transform="matrix(1,0,0,-1,4.1275,0.2778125)" fill="rgb(255,255,255)" stroke="rgb(0,0,0)" stroke-width="0.0010cm" stroke-linecap="round" stroke-linejoin="round" shaper:cutDepth="0.0015875" /><path d="M-3.571875,-3.8496875 a3.571875,3.571875 0 1,1 7.14375,0 a3.571875,3.571875 0 1,1 -7.14375,0z" transform="matrix(1,0,0,-1,4.1275,0.2778125)" fill="rgb(255,255,255)" stroke="rgb(0,0,0)" stroke-width="0.0010cm" stroke-linecap="round" stroke-linejoin="round" shaper:cutDepth="0.0015875" /><path d="M2.8592909,-6.9032884 a0.19431,0.19431 0 1,1 0.38862,0 a0.19431,0.19431 0 1,1 -0.38862,0z" transform="matrix(1,0,0,-1,4.1275,0.2778125)" fill="rgb(255,255,255)" stroke="rgb(0,0,0)" stroke-width="0.0010cm" stroke-linecap="round" stroke-linejoin="round" shaper:cutDepth="0.0015875" /><path d="M-3.2479109,-0.7960866 a0.19431,0.19431 0 1,1 0.38862,0 a0.19431,0.19431 0 1,1 -0.38862,0z" transform="matrix(1,0,0,-1,4.1275,0.2778125)" fill="rgb(255,255,255)" stroke="rgb(0,0,0)" stroke-width="0.0010cm" stroke-linecap="round" stroke-linejoin="round" shaper:cutDepth="0.0015875" /><path d="M2.8592909,-0.7960866 a0.19431,0.19431 0 1,1 0.38862,0 a0.19431,0.19431 0 1,1 -0.38862,0z" transform="matrix(1,0,0,-1,4.1275,0.2778125)" fill="rgb(255,255,255)" stroke="rgb(0,0,0)" stroke-width="0.0010cm" stroke-linecap="round" stroke-linejoin="round" shaper:cutDepth="0.0015875" /></svg>