<?xml version="1.0" encoding="utf-8"?>
<!-- Generator: Fusion 360, Shaper Origin Export Add-In, Version 1.6.10  -->
<svg xmlns="http://www.w3.org/2000/svg" xmlns:xlink="http://www.w3.org/1999/xlink" xmlns:shaper="http://www.shapertools.com/namespaces/shaper" shaper:fusionaddin="version:1.6.10" width="4.9911cm" height="4.9911cm" version="1.1" x="0cm" y="0cm" viewBox="0 0 4.9911 4.9911" enable-background="new 0 0 4.9911 4.9911" xml:space="preserve"><path d="M2.4013484,2.7136329 L2.5034704,2.8353372 A2.49555,2.49555 47.8126069 1,0 2.357539,2.9577882 L2.255417,2.836084 2.4013484,2.7136329z" transform="matrix(1,0,0,-1,1.6679851,3.4818035)" fill="rgb(0,0,0)" shaper:cutDepth="0.0015875" stroke-linecap="round" stroke-linejoin="round" /><path d="M-1.3835051,1.0116535 L-1.3835051,0.9608535 -0.9491651,0.9608535 -0.9491651,1.0116535 -1.3835051,1.0116535z" transform="matrix(1,0,0,-1,1.6679851,3.4818035)" fill="rgb(104,104,104)" fill-rule="nonzero" shaper:cutDepth="0.0000762" stroke-linecap="round" stroke-linejoin="round" /><path d="M-0.9982064,-0.2611577 L-0.9690687,-0.3027706 -0.6132782,-0.0536434 -0.6424159,-0.0120305 -0.9982064,-0.2611577z" transform="matrix(1,0,0,-1,1.6679851,3.4818035)" fill="rgb(104,104,104)" fill-rule="nonzero" shaper:cutDepth="0.0000762" stroke-linecap="round" stroke-linejoin="round" /><path d="M-0.613141,-0.6911976 L-0.3339526,-0.3584738 -0.2950376,-0.3911275 -0.5742259,-0.7238512 -0.613141,-0.6911976z" transform="matrix(1,0,0,-1,1.6679851,3.4818035)" fill="rgb(104,104,104)" fill-rule="nonzero" shaper:cutDepth="0.0000762" stroke-linecap="round" stroke-linejoin="round" /><path d="M0.138459,-1.1148435 L0.1869078,-1.1301194 0.3175163,-0.715882 0.2690675,-0.7006061 0.138459,-1.1148435z" transform="matrix(1,0,0,-1,1.6679851,3.4818035)" fill="rgb(104,104,104)" fill-rule="nonzero" shaper:cutDepth="0.0000762" stroke-linecap="round" stroke-linejoin="round" /><path d="M0.8600527,-1.2247237 L0.9108353,-1.2233939 0.8994656,-0.7892028 0.848683,-0.7905326 0.8600527,-1.2247237z" transform="matrix(1,0,0,-1,1.6679851,3.4818035)" fill="rgb(104,104,104)" fill-rule="nonzero" shaper:cutDepth="0.0000762" stroke-linecap="round" stroke-linejoin="round" /><path d="M1.4866663,-1.1244481 L1.53498,-1.10875 1.4007615,-0.6956681 1.3524479,-0.7113662 1.4866663,-1.1244481z" transform="matrix(1,0,0,-1,1.6679851,3.4818035)" fill="rgb(104,104,104)" fill-rule="nonzero" shaper:cutDepth="0.0000762" stroke-linecap="round" stroke-linejoin="round" /><path d="M2.058996,-0.8503339 L2.1008616,-0.8215605 1.8548487,-0.4636095 1.8129831,-0.4923829 2.058996,-0.8503339z" transform="matrix(1,0,0,-1,1.6679851,3.4818035)" fill="rgb(104,104,104)" fill-rule="nonzero" shaper:cutDepth="0.0000762" stroke-linecap="round" stroke-linejoin="round" /><path d="M2.6573257,-0.2552985 L2.6853641,-0.2129371 2.3231741,0.0267912 2.2951357,-0.0155702 2.6573257,-0.2552985z" transform="matrix(1,0,0,-1,1.6679851,3.4818035)" fill="rgb(104,104,104)" fill-rule="nonzero" shaper:cutDepth="0.0000762" stroke-linecap="round" stroke-linejoin="round" /><path d="M3.0006332,0.5772911 L3.0094545,0.6273193 2.5817131,0.7027417 2.5728918,0.6527135 3.0006332,0.5772911z" transform="matrix(1,0,0,-1,1.6679851,3.4818035)" fill="rgb(104,104,104)" fill-rule="nonzero" shaper:cutDepth="0.0000762" stroke-linecap="round" stroke-linejoin="round" /><path d="M2.8422094,1.8976718 L2.8207404,1.9437123 2.4270947,1.7601523 2.4485637,1.7141118 2.8422094,1.8976718z" transform="matrix(1,0,0,-1,1.6679851,3.4818035)" fill="rgb(104,104,104)" fill-rule="nonzero" shaper:cutDepth="0.0000762" stroke-linecap="round" stroke-linejoin="round" /><path d="M-0.0838534,3.000898 L-0.1298938,2.9794289 0.0536662,2.5857832 0.0997066,2.6072522 -0.0838534,3.000898z" transform="matrix(1,0,0,-1,1.6679851,3.4818035)" fill="rgb(104,104,104)" fill-rule="nonzero" shaper:cutDepth="0.0000762" stroke-linecap="round" stroke-linejoin="round" /><path d="M0.5009789,-1.2006473 L0.5387081,-1.2059498 0.588198,-0.8538104 0.5504688,-0.848508 0.5009789,-1.2006473z" transform="matrix(1,0,0,-1,1.6679851,3.4818035)" fill="rgb(104,104,104)" fill-rule="nonzero" shaper:cutDepth="0.0000762" stroke-linecap="round" stroke-linejoin="round" /><path d="M1.1832337,-1.196106 L1.2207834,-1.1896538 1.1605627,-0.8391901 1.123013,-0.8456423 1.1832337,-1.196106z" transform="matrix(1,0,0,-1,1.6679851,3.4818035)" fill="rgb(104,104,104)" fill-rule="nonzero" shaper:cutDepth="0.0000762" stroke-linecap="round" stroke-linejoin="round" /><path d="M1.7884108,-1.0052205 L1.8225816,-0.9883693 1.6653038,-0.6694414 1.6311329,-0.6862926 1.7884108,-1.0052205z" transform="matrix(1,0,0,-1,1.6679851,3.4818035)" fill="rgb(104,104,104)" fill-rule="nonzero" shaper:cutDepth="0.0000762" stroke-linecap="round" stroke-linejoin="round" /><path d="M2.3912593,-0.5770934 L2.4179639,-0.5499185 2.1643321,-0.3006752 2.1376274,-0.32785 2.3912593,-0.5770934z" transform="matrix(1,0,0,-1,1.6679851,3.4818035)" fill="rgb(104,104,104)" fill-rule="nonzero" shaper:cutDepth="0.0000762" stroke-linecap="round" stroke-linejoin="round" /><path d="M2.8741688,0.1492312 L2.888287,0.1846189 2.5580023,0.3163891 2.5438841,0.2810015 2.8741688,0.1492312z" transform="matrix(1,0,0,-1,1.6679851,3.4818035)" fill="rgb(104,104,104)" fill-rule="nonzero" shaper:cutDepth="0.0000762" stroke-linecap="round" stroke-linejoin="round" /><path d="M3.0222055,1.255969 L3.0172324,1.2937431 2.6646746,1.247328 2.6696477,1.2095539 3.0222055,1.255969z" transform="matrix(1,0,0,-1,1.6679851,3.4818035)" fill="rgb(104,104,104)" fill-rule="nonzero" shaper:cutDepth="0.0000762" stroke-linecap="round" stroke-linejoin="round" /><path d="M2.4576312,2.4802673 L2.4316471,2.5081319 2.1715777,2.2656133 2.1975619,2.2377487 2.4576312,2.4802673z" transform="matrix(1,0,0,-1,1.6679851,3.4818035)" fill="rgb(104,104,104)" fill-rule="nonzero" shaper:cutDepth="0.0000762" stroke-linecap="round" stroke-linejoin="round" /><path d="M1.9161745,2.9108633 L1.8828514,2.9293345 1.7104531,2.6183197 1.7437762,2.5998485 1.9161745,2.9108633z" transform="matrix(1,0,0,-1,1.6679851,3.4818035)" fill="rgb(104,104,104)" fill-rule="nonzero" shaper:cutDepth="0.0000762" stroke-linecap="round" stroke-linejoin="round" /><path d="M1.268157,3.153065 L1.230757,3.1603348 1.1629053,2.8112682 1.2003053,2.8039984 1.268157,3.153065z" transform="matrix(1,0,0,-1,1.6679851,3.4818035)" fill="rgb(104,104,104)" fill-rule="nonzero" shaper:cutDepth="0.0000762" stroke-linecap="round" stroke-linejoin="round" /><path d="M0.5770113,3.1831641 L0.5391953,3.1785209 0.582532,2.8255715 0.620348,2.8302147 0.5770113,3.1831641z" transform="matrix(1,0,0,-1,1.6679851,3.4818035)" fill="rgb(104,104,104)" fill-rule="nonzero" shaper:cutDepth="0.0000762" stroke-linecap="round" stroke-linejoin="round" /><path d="M-0.6159723,2.6611845 L-0.6446174,2.6360634 -0.410154,2.3687092 -0.3815089,2.3938302 -0.6159723,2.6611845z" transform="matrix(1,0,0,-1,1.6679851,3.4818035)" fill="rgb(104,104,104)" fill-rule="nonzero" shaper:cutDepth="0.0000762" stroke-linecap="round" stroke-linejoin="round" /><path d="M-1.026997,2.1903271 L-1.0474681,2.1581939 -0.7475581,1.9671302 -0.727087,1.9992634 -1.026997,2.1903271z" transform="matrix(1,0,0,-1,1.6679851,3.4818035)" fill="rgb(104,104,104)" fill-rule="nonzero" shaper:cutDepth="0.0000762" stroke-linecap="round" stroke-linejoin="round" /><path d="M-1.2898417,1.623264 L-1.3005032,1.5866861 -0.9591095,1.4871789 -0.948448,1.5237568 -1.2898417,1.623264z" transform="matrix(1,0,0,-1,1.6679851,3.4818035)" fill="rgb(104,104,104)" fill-rule="nonzero" shaper:cutDepth="0.0000762" stroke-linecap="round" stroke-linejoin="round" /><path d="M-1.3606695,0.6687263 L-1.3548736,0.6310698 -1.0034122,0.6851648 -1.0092081,0.7228214 -1.3606695,0.6687263z" transform="matrix(1,0,0,-1,1.6679851,3.4818035)" fill="rgb(104,104,104)" fill-rule="nonzero" shaper:cutDepth="0.0000762" stroke-linecap="round" stroke-linejoin="round" /><path d="M-1.2868984,0.3395402 L-1.2754415,0.3032036 -0.9362998,0.4101346 -0.9477567,0.4464712 -1.2868984,0.3395402z" transform="matrix(1,0,0,-1,1.6679851,3.4818035)" fill="rgb(104,104,104)" fill-rule="nonzero" shaper:cutDepth="0.0000762" stroke-linecap="round" stroke-linejoin="round" /><path d="M-1.1639091,0.0254077 L-1.1470579,-0.0087632 -0.8281299,0.1485147 -0.8449811,0.1826855 -1.1639091,0.0254077z" transform="matrix(1,0,0,-1,1.6679851,3.4818035)" fill="rgb(104,104,104)" fill-rule="nonzero" shaper:cutDepth="0.0000762" stroke-linecap="round" stroke-linejoin="round" /><path d="M-0.1241388,-1.0096056 L-0.0896085,-1.0257073 0.0606746,-0.7034243 0.0261443,-0.6873225 -0.1241388,-1.0096056z" transform="matrix(1,0,0,-1,1.6679851,3.4818035)" fill="rgb(104,104,104)" fill-rule="nonzero" shaper:cutDepth="0.0000762" stroke-linecap="round" stroke-linejoin="round" /><path d="M-0.1223832,0.0746063 L-0.1224686,0.0745988 -0.1224686,0.0745988 -0.1240276,0.0830398 -0.1272752,0.0909829 -0.1320263,0.0981293 -0.1380249,0.104269 -0.1380249,0.104269 -0.1451395,0.1090721 -0.1529892,0.112541 -0.1613914,0.1142906 -0.1699733,0.1144175 -0.1784161,0.1128718 -0.1863742,0.1096578 -0.1935162,0.1048996 -0.1997281,0.0989746 -0.1997281,0.0989746 -0.2045398,0.0918494 -0.2079455,0.0839585 -0.2097556,0.0755555 -0.209818,0.0669592 -0.2082658,0.0585046 -0.2050389,0.0505371 -0.2002646,0.0433906 -0.1943215,0.0371774 -0.1943215,0.0371774 -0.187202,0.0323985 -0.1793,0.0290759 -0.1709107,0.0273151 -0.162336,0.027292 -0.1538993,0.0288135 -0.1459345,0.0319881 -0.138775,0.0367008 -0.1325803,0.042631 -0.1325803,0.042631 -0.1277804,0.0497405 -0.1243769,0.0576134 -0.1227533,0.0660381 -0.1223832,0.0746063z" transform="matrix(1,0,0,-1,1.6679851,3.4818035)" fill="rgb(104,104,104)" fill-rule="nonzero" shaper:cutDepth="0.0000762" stroke-linecap="round" stroke-linejoin="round" /><path d="M-0.6072848,0.022255 L-0.6072848,0.022255 -0.586804,0.0248257 -0.566524,0.0286799 -0.566524,0.0286799 -0.4935839,0.0463407 -0.4935839,0.0463407 -0.420843,0.0633083 -0.420843,0.0633083 -0.4329061,0.0653314 -0.4446656,0.0686905 -0.4502754,0.0711241 -0.4556175,0.0741022 -0.4655059,0.0812838 -0.4655059,0.0812838 -0.4728781,0.0881145 -0.4795844,0.0955999 -0.4854671,0.1037484 -0.4905738,0.1124047 -0.4947458,0.1215478 -0.4979576,0.1310709 -0.5000888,0.1408924 -0.5012738,0.1508724 -0.5012738,0.1508724 -0.5011119,0.1608425 -0.4997352,0.1707301 -0.4977234,0.1805044 -0.4948988,0.1900772 -0.4910855,0.1993004 -0.4863333,0.2080787 -0.4749118,0.2244414 -0.4749118,0.2244414 -0.465165,0.2345295 -0.4545044,0.2436483 -0.4428716,0.2514888 -0.4367983,0.2550051 -0.4304399,0.2579599 -0.4304399,0.2579599 -0.4155344,0.2630638 -0.4000712,0.2661266 -0.4000712,0.2661266 -0.3868066,0.2668755 -0.3735219,0.2665502 -0.3603427,0.2648883 -0.3474485,0.2616981 -0.3351409,0.2567037 -0.3233024,0.2506649 -0.3118499,0.2439228 -0.3013598,0.2357788 -0.3013598,0.2357788 -0.2935727,0.2288311 -0.2864934,0.2211491 -0.2798292,0.2131089 -0.2737629,0.2046053 -0.268543,0.1955603 -0.2642047,0.1860559 -0.2606868,0.1762237 -0.2577441,0.166201 -0.2577441,0.166201 -0.2558563,0.1528719 -0.2553584,0.1394203 -0.2564664,0.1260046 -0.2591067,0.1128048 -0.2633525,0.1000309 -0.2690101,0.0878164 -0.275925,0.0762672 -0.2840761,0.0655539 -0.2840761,0.0655539 -0.2911668,0.0577415 -0.2988494,0.0505113 -0.3071302,0.0439767 -0.3158138,0.0379834 -0.3158138,0.0379834 -0.3319115,0.0287856 -0.348602,0.0207088 -0.3656687,0.0134669 -0.3831208,0.0072043 -0.4184054,-0.0041995 -0.4539245,-0.0148508 -0.4539245,-0.0148508 -0.4946899,-0.0268279 -0.5357107,-0.0378983 -0.6072848,0.022255z M-0.3359358,0.1123195 L-0.3359358,0.1123195 -0.3306135,0.1210701 -0.3265865,0.1304932 -0.3247819,0.1405809 -0.3248708,0.1508366 -0.3248068,0.1508737 -0.3248068,0.1508737 -0.3270895,0.1610976 -0.331184,0.1707392 -0.3371336,0.179361 -0.3443366,0.1869534 -0.3443366,0.1869534 -0.3529529,0.1928132 -0.3624289,0.1971335 -0.3725642,0.1995479 -0.3829761,0.1998346 -0.3932609,0.1981724 -0.4029843,0.1944384 -0.4117145,0.1887576 -0.4192323,0.1815444 -0.4192323,0.1815444 -0.4249806,0.1729226 -0.4289703,0.1633615 -0.4308348,0.1531706 -0.4306426,0.1428107 -0.4284757,0.132678 -0.4243941,0.1231546 -0.4184514,0.1146676 -0.4112241,0.1072401 -0.4112241,0.1072401 -0.4025745,0.1013616 -0.3930693,0.0970127 -0.3829047,0.0945563 -0.3724562,0.0942175 -0.3621235,0.0958224 -0.3523374,0.0994987 -0.3435317,0.1051332 -0.3359358,0.1123195z" transform="matrix(1,0,0,-1,1.6679851,3.4818035)" fill="rgb(104,104,104)" fill-rule="nonzero" shaper:cutDepth="0.0000762" stroke-linecap="round" stroke-linejoin="round" /><path d="M-0.8950931,0.8993116 L-0.6666365,1.1715756 -0.6096422,1.1237517 -0.7935248,0.904609 -0.74273,0.8619871 -0.787304,0.8088659 -0.8950931,0.8993116z" transform="matrix(1,0,0,-1,1.6679851,3.4818035)" fill="rgb(104,104,104)" fill-rule="nonzero" shaper:cutDepth="0.0000762" stroke-linecap="round" stroke-linejoin="round" /><path d="M0.3256885,2.022171 L0.554145,2.2944349 0.6111393,2.2466111 0.4272568,2.0274684 0.4780515,1.9848465 0.4334775,1.9317252 0.3256885,2.022171z" transform="matrix(1,0,0,-1,1.6679851,3.4818035)" fill="rgb(104,104,104)" fill-rule="nonzero" shaper:cutDepth="0.0000762" stroke-linecap="round" stroke-linejoin="round" /><path d="M0.4443193,2.3817144 L0.4442339,2.3817069 0.4442339,2.3817069 0.4426749,2.3901479 0.4394273,2.3980911 0.4346762,2.4052374 0.4286775,2.4113771 0.4286775,2.4113771 0.421563,2.4161802 0.4137133,2.4196491 0.4053111,2.4213988 0.3967292,2.4215256 0.3882864,2.4199799 0.3803282,2.4167659 0.3731863,2.4120077 0.3669744,2.4060827 0.3669744,2.4060827 0.3621626,2.3989575 0.358757,2.3910666 0.3569469,2.3826636 0.3568845,2.3740674 0.3584367,2.3656127 0.3616636,2.3576452 0.3664379,2.3504987 0.372381,2.3442855 0.372381,2.3442855 0.3795004,2.3395066 0.3874025,2.336184 0.3957918,2.3344232 0.4043665,2.3344001 0.4128032,2.3359216 0.4207679,2.3390962 0.4279275,2.3438089 0.4341221,2.3497391 0.4341221,2.3497391 0.438922,2.3568486 0.4423256,2.3647215 0.4439492,2.3731462 0.4443193,2.3817144z" transform="matrix(1,0,0,-1,1.6679851,3.4818035)" fill="rgb(104,104,104)" fill-rule="nonzero" shaper:cutDepth="0.0000762" stroke-linecap="round" stroke-linejoin="round" /><path d="M-0.0436976,2.3331138 L0.0002257,2.3854596 0.0884108,2.3114635 0.1261703,2.3429645 0.1261703,2.3429645 0.121757,2.3459072 0.1176453,2.349289 0.109677,2.3563539 0.10192,2.3636526 0.0947484,2.3715264 0.088382,2.3800657 0.0826696,2.3890618 0.0776718,2.3984596 0.0732198,2.4081391 0.0732198,2.4081391 0.0688817,2.4223319 0.0665363,2.436988 0.0664245,2.4518266 0.067109,2.4592199 0.0684202,2.4665274 0.0724066,2.4808317 0.078131,2.4945327 0.0855563,2.5073919 0.0944213,2.5193048 0.0944213,2.5193048 0.1032472,2.5291244 0.1133492,2.5376463 0.123934,2.5455584 0.1352091,2.5524345 0.1473436,2.5576552 0.160026,2.5613463 0.1730148,2.5637776 0.186153,2.5651706 0.186153,2.5651706 0.1956409,2.5651127 0.2051007,2.5644368 0.2144864,2.5630577 0.2237368,2.5609739 0.2237368,2.5609739 0.2372391,2.5566133 0.2500669,2.5505427 0.2500669,2.5505427 0.2580568,2.5462757 0.2656273,2.5412937 0.2801522,2.5304602 0.2801522,2.5304602 0.2874728,2.5243023 0.2941034,2.5173923 0.3063389,2.5026557 0.3063389,2.5026557 0.3175059,2.485989 0.3222852,2.4771629 0.3262902,2.4679641 0.3295857,2.4584818 0.3323057,2.4488188 0.3365333,2.4291993 0.2853713,2.3863383 0.2805015,2.404079 0.2805015,2.404079 0.2776153,2.4138819 0.2739431,2.4234223 0.2700096,2.4328576 0.2654734,2.4420204 0.2600305,2.4506714 0.2538099,2.4587904 0.2469418,2.4663575 0.2396042,2.4734788 0.2396042,2.4734788 0.2350337,2.4773785 0.2299815,2.4806571 0.21949,2.4865329 0.21949,2.4865329 0.2111868,2.4896531 0.2025808,2.4917966 0.193757,2.4926943 0.184899,2.4922544 0.176253,2.4902807 0.1681605,2.4866521 0.1609095,2.4815477 0.1546163,2.4752955 0.1546163,2.4752955 0.1495727,2.46784 0.1457478,2.4596755 0.1433843,2.450977 0.1424551,2.4420049 0.1424551,2.4420049 0.1433114,2.4323316 0.1454597,2.4228611 0.1490088,2.4138215 0.15363,2.4052797 0.1590549,2.3972244 0.1651207,2.389641 0.171759,2.3825518 0.1790891,2.3761825 0.1790891,2.3761825 0.19161,2.3663687 0.204974,2.3577386 0.2189179,2.3500811 0.2331881,2.3430477 0.0886906,2.2220269 -0.0436976,2.3331138z" transform="matrix(1,0,0,-1,1.6679851,3.4818035)" fill="rgb(104,104,104)" fill-rule="nonzero" shaper:cutDepth="0.0000762" stroke-linecap="round" stroke-linejoin="round" /><path d="M2.1984056,1.7761302 L2.2402043,1.8259441 2.4219884,1.6734091 2.4097315,1.6588019 2.2567825,1.6294495 2.2567825,1.6294495 2.2121477,1.6197748 2.2121477,1.6197748 2.1923387,1.6138849 2.1730207,1.6065478 2.1637702,1.6019373 2.1549266,1.5965947 2.1466853,1.5903556 2.1394801,1.5829578 2.1394801,1.5829578 2.1343351,1.5754725 2.1304749,1.5672568 2.128441,1.5584069 2.1285874,1.549331 2.1307327,1.5405093 2.1346085,1.5322989 2.1400354,1.5250202 2.1465096,1.5186516 2.1465096,1.5186516 2.1521354,1.5143918 2.1582541,1.5108776 2.1648405,1.5083459 2.171719,1.506771 2.171719,1.506771 2.1803208,1.5069988 2.1887566,1.5086796 2.196696,1.511996 2.2038395,1.5167883 2.2104256,1.5223388 2.2165715,1.5283637 2.2278959,1.5413181 2.2845536,1.4938242 2.2845536,1.4938242 2.2710059,1.4788664 2.2563384,1.4650061 2.2483934,1.4587858 2.2400116,1.4531681 2.2221362,1.4438177 2.2221362,1.4438177 2.2108276,1.4395101 2.1990036,1.4368739 2.1870045,1.4352334 2.1749076,1.4348492 2.1628911,1.4363196 2.1511607,1.4393168 2.1397461,1.4433613 2.1287002,1.4483259 2.1287002,1.4483259 2.1212145,1.4524956 2.1140988,1.4572766 2.1003558,1.4675211 2.1003558,1.4675211 2.092411,1.4744517 2.0852565,1.4822075 2.0784048,1.4902308 2.0722292,1.4987852 2.0670182,1.5079606 2.0628157,1.5176408 2.0595579,1.5276754 2.0569303,1.5378953 2.0569303,1.5378953 2.0554379,1.5501642 2.0556371,1.5625402 2.0567681,1.5748595 2.0589886,1.5870245 2.0629783,1.5987309 2.068396,1.6098497 2.0748629,1.620395 2.0821564,1.630389 2.0821564,1.630389 2.094414,1.6431463 2.1084284,1.6539651 2.1236883,1.6629195 2.1398507,1.6701254 2.1565291,1.6760522 2.1734631,1.6812047 2.2077819,1.6898757 2.2077819,1.6898757 2.2504165,1.6986477 2.2504165,1.6986477 2.2864117,1.7042918 2.2864117,1.7042918 2.2668939,1.719144 2.2478704,1.7346243 2.1984056,1.7761302z" transform="matrix(1,0,0,-1,1.6679851,3.4818035)" fill="rgb(104,104,104)" fill-rule="nonzero" shaper:cutDepth="0.0000762" stroke-linecap="round" stroke-linejoin="round" /><path d="M2.5126277,0.7902227 L2.5126277,0.7902227 2.5204866,0.7994391 2.5239886,0.8043724 2.5269359,0.809667 2.5269359,0.809667 2.5305056,0.817336 2.5321379,0.8256585 2.5322541,0.8341261 2.5306031,0.8424202 2.5269677,0.8500622 2.5221276,0.8570154 2.5164774,0.8633326 2.5102983,0.8691302 2.5102983,0.8691302 2.5023207,0.8747015 2.4937222,0.8792519 2.4845139,0.8823761 2.4797072,0.8831198 2.4748367,0.8831756 2.4700376,0.8824148 2.4654136,0.88088 2.4565922,0.8767768 2.4484344,0.8714631 2.4417339,0.8644311 2.4417339,0.8644311 2.4352971,0.8549063 2.4327934,0.849727 2.4310383,0.8442503 2.4302043,0.8385616 2.4301763,0.8328109 2.4306956,0.8270823 2.4322311,0.821549 2.4322311,0.821549 2.4352103,0.8153253 2.4390079,0.8095649 2.4483645,0.7994311 2.4687769,0.7808462 2.4278016,0.7319664 2.4278016,0.7319664 2.4114733,0.7452057 2.4027962,0.7511501 2.3933408,0.7557204 2.3933408,0.7557204 2.3870291,0.7575164 2.3804678,0.7579903 2.3739072,0.7576226 2.3674697,0.7562652 2.3614647,0.7536073 2.3559563,0.7499971 2.3463357,0.7410563 2.3463357,0.7410563 2.3411733,0.7337616 2.3371412,0.7257898 2.334798,0.7171689 2.3343479,0.7082473 2.335909,0.6994522 2.3394093,0.6912341 2.3446695,0.684014 2.3510903,0.6777986 2.3510903,0.6777986 2.3564069,0.6741378 2.3620717,0.671078 2.3681514,0.6688864 2.3745077,0.6678554 2.3809483,0.6682557 2.3872681,0.6695298 2.3934366,0.6714088 2.3991591,0.6743632 2.3991591,0.6743632 2.4096853,0.6820618 2.4192165,0.6909755 2.4759449,0.642721 2.4759449,0.642721 2.4678678,0.6339928 2.4590702,0.6259835 2.4499161,0.6183864 2.4401841,0.6115561 2.4294984,0.6063434 2.418161,0.602766 2.4064941,0.600468 2.3946479,0.5993794 2.3946479,0.5993794 2.3828999,0.5997193 2.3712931,0.6016442 2.359881,0.6044908 2.3487968,0.6084297 2.3382096,0.6135541 2.3281106,0.6195932 2.3091697,0.6335358 2.3091697,0.6335358 2.3006429,0.641275 2.2926681,0.649585 2.2854577,0.6585665 2.2790117,0.6681139 2.2790117,0.6681139 2.2714801,0.6821985 2.2660662,0.6972264 2.2630783,0.7129143 2.262675,0.7288782 2.2634428,0.7368316 2.2649376,0.74468 2.267115,0.7523688 2.269881,0.7598633 2.2772288,0.7740437 2.2865411,0.7870238 2.2865411,0.7870238 2.299554,0.800074 2.3067642,0.8058267 2.3145287,0.8107934 2.3228584,0.8147464 2.331521,0.8178969 2.3403986,0.8203884 2.3495341,0.821539 2.3495341,0.821539 2.3602162,0.8215634 2.370833,0.8204916 2.370833,0.8204916 2.3663184,0.8305758 2.3625953,0.8409782 2.3625953,0.8409782 2.3606996,0.850531 2.360436,0.8602842 2.3608618,0.8700287 2.3623586,0.879669 2.3652877,0.8889719 2.3694372,0.8978062 2.3745158,0.9061314 2.380161,0.9140894 2.380161,0.9140894 2.387101,0.9218459 2.3950059,0.9286178 2.4033938,0.9347892 2.4123387,0.9401178 2.4219185,0.9441918 2.4319031,0.9471685 2.4421162,0.9491707 2.452452,0.9504576 2.452452,0.9504576 2.4653772,0.9505438 2.4782493,0.9493728 2.4909259,0.9468501 2.5032883,0.9430781 2.5152037,0.938069 2.5265751,0.9319237 2.5373122,0.9247283 2.5474577,0.9167189 2.5474577,0.9167189 2.5576566,0.907078 2.5671718,0.8967607 2.5758588,0.8857395 2.5833868,0.873898 2.5892141,0.8611412 2.593658,0.8478292 2.5969355,0.8341766 2.5977915,0.8272172 2.5980047,0.8201989 2.5980047,0.8201989 2.5977549,0.8084106 2.5963877,0.796696 2.5932876,0.7853162 2.58897,0.7743431 2.58897,0.7743431 2.5847614,0.7660261 2.5798885,0.7580803 2.5687164,0.7431586 2.5126277,0.7902227z" transform="matrix(1,0,0,-1,1.6679851,3.4818035)" fill="rgb(104,104,104)" fill-rule="nonzero" shaper:cutDepth="0.0000762" stroke-linecap="round" stroke-linejoin="round" /><path d="M2.1375782,0.2333193 L2.1770212,0.2803256 2.2111215,0.2517121 2.2593218,0.309155 2.3095448,0.267013 2.2613445,0.20957 2.3768929,0.1126134 2.3351515,0.0628679 2.078718,-0.0035032 2.0307466,0.0367496 2.1716785,0.2047058 2.1375782,0.2333193z M2.1652279,0.0760914 L2.1652279,0.0760914 2.2055833,0.0895694 2.2838221,0.1119398 2.2218387,0.16395 2.2218387,0.16395 2.1705626,0.103639 2.1705626,0.103639 2.1578935,0.0899135 2.1447524,0.0766391 2.1447524,0.0766391 2.1361457,0.0684521 2.1270623,0.0607973 2.1270623,0.0607973 2.1459568,0.0689141 2.1652279,0.0760914z" transform="matrix(1,0,0,-1,1.6679851,3.4818035)" fill="rgb(104,104,104)" fill-rule="nonzero" shaper:cutDepth="0.0000762" stroke-linecap="round" stroke-linejoin="round" /><path d="M1.6051166,-0.3918782 L1.6490399,-0.3395324 1.7372251,-0.4135285 1.7749846,-0.3820275 1.7749846,-0.3820275 1.7705712,-0.3790848 1.7664596,-0.3757029 1.7584912,-0.3686381 1.7507342,-0.3613393 1.7435627,-0.3534655 1.7371962,-0.3449263 1.7314838,-0.3359302 1.7264861,-0.3265324 1.722034,-0.3168529 1.722034,-0.3168529 1.7176959,-0.3026601 1.7153506,-0.288004 1.7152387,-0.2731654 1.7159232,-0.2657721 1.7172344,-0.2584646 1.7212208,-0.2441603 1.7269453,-0.2304593 1.7343705,-0.2176001 1.7432355,-0.2056872 1.7432355,-0.2056872 1.7520614,-0.1958676 1.7621634,-0.1873457 1.7727482,-0.1794336 1.7840234,-0.1725575 1.7961578,-0.1673367 1.8088402,-0.1636457 1.821829,-0.1612143 1.8349672,-0.1598213 1.8349672,-0.1598213 1.8444551,-0.1598793 1.8539149,-0.1605552 1.8633006,-0.1619343 1.872551,-0.1640181 1.872551,-0.1640181 1.8860533,-0.1683787 1.8988811,-0.1744492 1.8988811,-0.1744492 1.906871,-0.1787163 1.9144415,-0.1836982 1.9289664,-0.1945317 1.9289664,-0.1945317 1.9362871,-0.2006896 1.9429176,-0.2075997 1.9551532,-0.2223363 1.9551532,-0.2223363 1.9663201,-0.239003 1.9710994,-0.2478291 1.9751044,-0.2570279 1.9783999,-0.2665102 1.98112,-0.2761731 1.9853476,-0.2957927 1.9341856,-0.3386537 1.9293158,-0.3209129 1.9293158,-0.3209129 1.9264295,-0.3111101 1.9227573,-0.3015697 1.9188238,-0.2921344 1.9142876,-0.2829715 1.9088447,-0.2743206 1.9026241,-0.2662016 1.895756,-0.2586344 1.8884184,-0.2515131 1.8884184,-0.2515131 1.8838479,-0.2476135 1.8787957,-0.2443348 1.8683042,-0.238459 1.8683042,-0.238459 1.860001,-0.2353389 1.851395,-0.2331954 1.8425712,-0.2322977 1.8337132,-0.2327376 1.8250672,-0.2347113 1.8169747,-0.2383398 1.8097238,-0.2434443 1.8034306,-0.2496964 1.8034306,-0.2496964 1.7983869,-0.257152 1.7945621,-0.2653165 1.7921985,-0.274015 1.7912693,-0.2829871 1.7912693,-0.2829871 1.7921257,-0.2926603 1.7942739,-0.3021309 1.797823,-0.3111705 1.8024442,-0.3197122 1.8078691,-0.3277675 1.8139349,-0.335351 1.8205732,-0.3424402 1.8279033,-0.3488095 1.8279033,-0.3488095 1.8404242,-0.3586233 1.8537882,-0.3672534 1.8677321,-0.3749109 1.8820024,-0.3819442 1.7375048,-0.5029651 1.6051166,-0.3918782z" transform="matrix(1,0,0,-1,1.6679851,3.4818035)" fill="rgb(104,104,104)" fill-rule="nonzero" shaper:cutDepth="0.0000762" stroke-linecap="round" stroke-linejoin="round" /><path d="M1.1148559,-0.6374755 L1.1148559,-0.6374755 1.1353367,-0.6349048 1.1556167,-0.6310505 1.1556167,-0.6310505 1.2285568,-0.6133898 1.2285568,-0.6133898 1.3012977,-0.5964221 1.3012977,-0.5964221 1.2892346,-0.5943991 1.2774751,-0.59104 1.2718653,-0.5886064 1.2665231,-0.5856283 1.2566348,-0.5784467 1.2566348,-0.5784467 1.2492626,-0.5716159 1.2425563,-0.5641305 1.2366736,-0.555982 1.2315669,-0.5473258 1.2273949,-0.5381826 1.224183,-0.5286596 1.2220519,-0.5188381 1.2208669,-0.508858 1.2208669,-0.508858 1.2210288,-0.4988879 1.2224054,-0.4890003 1.2244173,-0.479226 1.2272419,-0.4696533 1.2310552,-0.46043 1.2358074,-0.4516518 1.2472289,-0.4352891 1.2472289,-0.4352891 1.2569756,-0.4252009 1.2676362,-0.4160821 1.279269,-0.4082416 1.2853424,-0.4047253 1.2917008,-0.4017705 1.2917008,-0.4017705 1.3066063,-0.3966666 1.3220695,-0.3936039 1.3220695,-0.3936039 1.335334,-0.392855 1.3486187,-0.3931802 1.3617979,-0.3948422 1.3746922,-0.3980323 1.3869998,-0.4030268 1.3988382,-0.4090655 1.4102908,-0.4158077 1.4207808,-0.4239517 1.4207808,-0.4239517 1.428568,-0.4308993 1.4356473,-0.4385813 1.4423115,-0.4466215 1.4483778,-0.4551251 1.4535976,-0.4641701 1.4579359,-0.4736746 1.4614539,-0.4835068 1.4643966,-0.4935295 1.4643966,-0.4935295 1.4662844,-0.5068585 1.4667823,-0.5203102 1.4656743,-0.5337259 1.463034,-0.5469257 1.4587882,-0.5596996 1.4531306,-0.5719141 1.4462157,-0.5834632 1.4380646,-0.5941766 1.4380646,-0.5941766 1.4309739,-0.6019889 1.4232913,-0.6092192 1.4150105,-0.6157538 1.4063268,-0.621747 1.4063268,-0.621747 1.3902291,-0.6309449 1.3735387,-0.6390216 1.356472,-0.6462636 1.3390198,-0.6525262 1.3037353,-0.66393 1.2682162,-0.6745813 1.2682162,-0.6745813 1.2274508,-0.6865583 1.18643,-0.6976288 1.1148559,-0.6374755z M1.3862049,-0.5474109 L1.3862049,-0.5474109 1.3915272,-0.5386604 1.3955542,-0.5292373 1.3973587,-0.5191496 1.3972699,-0.5088938 1.3973338,-0.5088568 1.3973338,-0.5088568 1.3950511,-0.4986329 1.3909567,-0.4889912 1.3850071,-0.4803695 1.377804,-0.472777 1.377804,-0.472777 1.3691877,-0.4669173 1.3597117,-0.4625969 1.3495765,-0.4601826 1.3391646,-0.4598958 1.3288798,-0.461558 1.3191564,-0.4652921 1.3104262,-0.4709729 1.3029084,-0.478186 1.3029084,-0.478186 1.29716,-0.4868079 1.2931704,-0.496369 1.2913059,-0.5065599 1.291498,-0.5169197 1.2936649,-0.5270524 1.2977466,-0.5365759 1.3036893,-0.5450628 1.3109166,-0.5524904 1.3109166,-0.5524904 1.3195661,-0.5583688 1.3290714,-0.5627178 1.3392359,-0.5651742 1.3496845,-0.565513 1.3600172,-0.563908 1.3698033,-0.5602317 1.3786089,-0.5545972 1.3862049,-0.5474109z" transform="matrix(1,0,0,-1,1.6679851,3.4818035)" fill="rgb(104,104,104)" fill-rule="nonzero" shaper:cutDepth="0.0000762" stroke-linecap="round" stroke-linejoin="round" /><path d="M0.6521803,-0.5959974 L0.6653797,-0.580267 0.9959163,-0.4202233 1.0606699,-0.4745581 0.7715284,-0.6112551 0.8878523,-0.7088624 0.8460535,-0.7586763 0.6521803,-0.5959974z" transform="matrix(1,0,0,-1,1.6679851,3.4818035)" fill="rgb(104,104,104)" fill-rule="nonzero" shaper:cutDepth="0.0000762" stroke-linecap="round" stroke-linejoin="round" /><path d="M0.3533102,-0.4821405 L0.3533102,-0.4821405 0.3457042,-0.4679659 0.3427641,-0.4604732 0.3404991,-0.45275 0.3404991,-0.45275 0.3385466,-0.4423451 0.338132,-0.4317665 0.3391288,-0.4212279 0.3415367,-0.4109184 0.3451389,-0.4009631 0.3496916,-0.3914056 0.3553043,-0.3824291 0.3617312,-0.3740162 0.3617312,-0.3740162 0.3675542,-0.3673723 0.3740913,-0.3614273 0.3809465,-0.3558483 0.3882339,-0.3508502 0.3960096,-0.3466465 0.4041756,-0.343267 0.4211372,-0.3383074 0.4211372,-0.3383074 0.4354132,-0.3366612 0.449782,-0.3363352 0.4640918,-0.3376113 0.4781104,-0.3407526 0.4915063,-0.3459412 0.5043859,-0.3523216 0.5168227,-0.3595216 0.5227243,-0.3636226 0.5281852,-0.3682897 0.5281852,-0.3682897 0.5384078,-0.3777528 0.5478765,-0.3879683 0.5562636,-0.3990874 0.5634724,-0.4109955 0.5634724,-0.4109955 0.5669674,-0.4181766 0.569558,-0.4257335 0.5729426,-0.4413448 0.574871,-0.4572071 0.5752275,-0.4651919 0.5747109,-0.4731629 0.5733543,-0.4810406 0.5712777,-0.4887555 0.5652961,-0.5035662 0.5575146,-0.5175229 0.5483648,-0.5306204 0.5483648,-0.5306204 0.5406433,-0.5386835 0.5323208,-0.5461301 0.5232901,-0.5526941 0.5135654,-0.5581701 0.5030961,-0.5620249 0.4922457,-0.5646556 0.4811867,-0.5662483 0.4756117,-0.5663706 0.4700488,-0.5658524 0.4700488,-0.5658524 0.4571821,-0.5633215 0.4446427,-0.5594467 0.4446427,-0.5594467 0.4482592,-0.565694 0.4511717,-0.572286 0.4511717,-0.572286 0.4540815,-0.5820851 0.4550878,-0.592279 0.4551036,-0.6025197 0.4538028,-0.612671 0.4507401,-0.6224345 0.4464213,-0.6317125 0.4411214,-0.6404723 0.4350948,-0.6487495 0.4350948,-0.6487495 0.4283042,-0.6562404 0.4205817,-0.6627816 0.4123719,-0.6686929 0.4036051,-0.6737554 0.3941806,-0.6774166 0.3843535,-0.6798802 0.3743493,-0.6813418 0.3642489,-0.6820285 0.3642489,-0.6820285 0.3511435,-0.6808519 0.3383042,-0.6780122 0.3260042,-0.6733541 0.3142677,-0.6674292 0.3142677,-0.6674292 0.3073293,-0.6638561 0.3008291,-0.6595141 0.2883265,-0.6501548 0.2883265,-0.6501548 0.27906,-0.6416114 0.2705365,-0.6323276 0.2628525,-0.6223378 0.2558183,-0.6118839 0.2558183,-0.6118839 0.2486496,-0.5941107 0.2486496,-0.5941107 0.2457881,-0.5828272 0.2446547,-0.5712218 0.2443909,-0.5595698 0.2453464,-0.5479622 0.2482757,-0.5366888 0.2528694,-0.5259817 0.2586726,-0.5158754 0.2654024,-0.5063606 0.2654024,-0.5063606 0.2715343,-0.4993389 0.2783589,-0.4929894 0.2859331,-0.4875563 0.2941057,-0.483073 0.3028224,-0.4797711 0.3118912,-0.4776151 0.3211572,-0.4766026 0.3304794,-0.4766531 0.3304794,-0.4766531 0.3420052,-0.4788686 0.3532723,-0.482168 0.3533102,-0.4821405z M0.4928806,-0.4881742 L0.4928806,-0.4881742 0.4958805,-0.4843119 0.4983172,-0.4800617 0.5022511,-0.4711044 0.5040399,-0.4614855 0.5039633,-0.4517011 0.5039838,-0.4517014 0.5039838,-0.4517014 0.5022618,-0.4421279 0.4986165,-0.4331096 0.4932454,-0.4250043 0.4863864,-0.4181035 0.4863864,-0.4181035 0.4783717,-0.4127097 0.4695211,-0.4088462 0.4600615,-0.4068962 0.4504026,-0.406906 0.4409128,-0.4087035 0.4319933,-0.4124105 0.4239934,-0.4178188 0.417094,-0.4245817 0.417094,-0.4245817 0.4116862,-0.4326218 0.4077942,-0.4414921 0.4057975,-0.4509719 0.4057484,-0.4606598 0.4074791,-0.4701919 0.4110915,-0.479181 0.4164647,-0.4872407 0.4231866,-0.4942196 0.4231866,-0.4942196 0.4312267,-0.4996435 0.4401105,-0.5035233 0.4495912,-0.5055586 0.4592872,-0.5056152 0.4688287,-0.5038886 0.477827,-0.500277 0.4858952,-0.4949014 0.4928806,-0.4881742z M0.3896644,-0.6000179 L0.3896644,-0.6000179 0.3941631,-0.5929916 0.3974465,-0.5853113 0.3990051,-0.5771056 0.3990212,-0.5687437 0.3990904,-0.5687339 0.3990904,-0.5687339 0.3973154,-0.560541 0.3941892,-0.5527462 0.3894442,-0.5458196 0.383615,-0.5397843 0.383615,-0.5397843 0.3766255,-0.535079 0.3688906,-0.5317478 0.3606687,-0.5299119 0.3522459,-0.5297947 0.3439443,-0.5312272 0.3360883,-0.5342658 0.3290483,-0.5388894 0.3229725,-0.544726 0.3229725,-0.544726 0.3184674,-0.551815 0.3152893,-0.5595871 0.3137566,-0.5678437 0.3138818,-0.5762409 0.3155794,-0.5844655 0.318849,-0.5922013 0.3235678,-0.5991464 0.3294056,-0.6051859 0.3294056,-0.6051859 0.3363537,-0.6098824 0.344036,-0.6132329 0.3522184,-0.6150648 0.3606017,-0.6150877 0.368853,-0.6135985 0.376619,-0.6104402 0.3836195,-0.6058299 0.3896644,-0.6000179z" transform="matrix(1,0,0,-1,1.6679851,3.4818035)" fill="rgb(104,104,104)" fill-rule="nonzero" shaper:cutDepth="0.0000762" stroke-linecap="round" stroke-linejoin="round" /><path d="M1.4277572,0.9796341 L1.3594495,0.8982282 1.3995053,0.8646174 1.5513446,1.0455724 1.5112888,1.0791832 1.4405827,0.994919 1.4499861,1.1306222 1.4002742,1.1723354 1.3920036,1.0175814 1.2512682,0.989003 1.2984044,0.9494511 1.4277572,0.9796341z" transform="matrix(1,0,0,-1,1.6679851,3.4818035)" fill="rgb(104,104,104)" fill-rule="nonzero" shaper:cutDepth="0.0000762" stroke-linecap="round" stroke-linejoin="round" /><path d="M1.2042032,1.0284952 L1.2147937,1.1667417 1.2147937,1.1667417 1.2188316,1.2011606 1.2219534,1.2182073 1.2260124,1.235054 1.2260124,1.235054 1.2134178,1.2171737 1.2002377,1.1997206 1.2002377,1.1997206 1.1800957,1.1742026 1.1190951,1.0999094 1.0828339,1.1303362 1.2346732,1.3112912 1.2691424,1.2823681 1.2578669,1.1385367 1.2578669,1.1385367 1.2539242,1.099934 1.2539242,1.099934 1.2505564,1.0784389 1.2505564,1.0784389 1.2676898,1.1020361 1.2676898,1.1020361 1.2836411,1.1226354 1.3544761,1.2107646 1.3917792,1.1794636 1.2399399,0.9985086 1.2042032,1.0284952z" transform="matrix(1,0,0,-1,1.6679851,3.4818035)" fill="rgb(104,104,104)" fill-rule="nonzero" shaper:cutDepth="0.0000762" stroke-linecap="round" stroke-linejoin="round" /><path d="M0.9563247,1.2281712 L0.9563247,1.2281712 0.9446789,1.2390606 0.9342233,1.2510982 0.9342233,1.2510982 0.9282654,1.2593451 0.923163,1.2681527 0.9184871,1.277193 0.9144224,1.2865198 0.911366,1.2962253 0.9092602,1.3061828 0.9079393,1.3162741 0.9072608,1.3264286 0.9072608,1.3264286 0.9078343,1.3376512 0.9097498,1.3487325 0.9123656,1.3596682 0.9158265,1.3703623 0.9204139,1.3806252 0.9259343,1.390419 0.9321681,1.3997769 0.9389375,1.4087538 0.9389375,1.4087538 0.9479457,1.4185521 0.9577831,1.4275251 0.9685793,1.4353149 0.9800458,1.4420794 0.9800458,1.4420794 0.988344,1.445851 0.9968926,1.4490115 1.0056548,1.4515229 1.0145905,1.4533188 1.0236529,1.4542918 1.032766,1.4544402 1.0418555,1.453769 1.0508483,1.4522829 1.059701,1.4501157 1.0683699,1.4472992 1.0768499,1.4439579 1.0850848,1.4400522 1.1007268,1.4307033 1.1152192,1.4196532 1.1152192,1.4196532 1.123241,1.4126164 1.1306366,1.4049136 1.1377137,1.3969167 1.1443137,1.3885252 1.1500512,1.379522 1.1549848,1.3700539 1.1591217,1.3602108 1.1625992,1.3501144 1.1625992,1.3501144 1.1642178,1.3433472 1.1650735,1.336438 1.1652585,1.322523 1.1642447,1.3086386 1.1616215,1.2949732 1.1569375,1.2818683 1.1506877,1.2694309 1.1433073,1.2576271 1.1350728,1.2463993 1.1350728,1.2463993 1.1257399,1.2362683 1.1156554,1.2268813 1.1046505,1.2185941 1.0929433,1.2113269 1.0929433,1.2113269 1.0847217,1.2072743 1.0762369,1.2038083 1.0675248,1.2009592 1.0586087,1.1988352 1.0495429,1.1974851 1.0403961,1.1968965 1.0312321,1.197068 1.0221164,1.1980259 1.0130965,1.1996546 1.0042208,1.2019418 0.9955445,1.2048975 0.9871001,1.2084614 0.9789287,1.2126139 0.9710561,1.2173081 0.9562943,1.2281654 0.9563247,1.2281712z M0.9593091,1.3239039 L0.9593091,1.3239039 0.9597945,1.3157951 0.9614919,1.3078414 0.9637138,1.300019 0.9666364,1.2924352 0.9706276,1.2853545 0.9754354,1.2788009 0.9808627,1.2727481 0.9867465,1.2671356 0.9867892,1.2671261 0.9867892,1.2671261 0.9918473,1.2631816 0.997301,1.2597902 1.0086992,1.2538873 1.0147438,1.2517289 1.0209796,1.2501827 1.0337132,1.2485806 1.0337132,1.2485806 1.0424573,1.2486857 1.0511053,1.2500581 1.0596231,1.2520742 1.0679061,1.2548878 1.0756442,1.2589717 1.0828051,1.2640016 1.0893662,1.2697948 1.0954241,1.2761125 1.0954241,1.2761125 1.1002256,1.2824197 1.1044681,1.2891182 1.1078554,1.296286 1.1105469,1.3037463 1.1105469,1.3037463 1.1131124,1.3149567 1.1139183,1.326426 1.1128526,1.3378715 1.1098309,1.3489639 1.1051254,1.3594573 1.0990278,1.3692055 1.0916882,1.3780591 1.0833276,1.38596 1.0833276,1.38596 1.0734697,1.3931592 1.0627315,1.3989506 1.0510398,1.4024265 1.0450177,1.4034441 1.0389234,1.4037245 1.0389234,1.4037245 1.0302156,1.4033443 1.0216169,1.4019246 1.0132429,1.3995077 1.0052406,1.3960545 0.9976448,1.3917805 0.9905294,1.3867473 0.9840095,1.3809635 0.978079,1.3745766 0.978079,1.3745766 0.9737951,1.3691745 0.9701485,1.3633178 0.9640299,1.3509624 0.9619085,1.3443983 0.9604867,1.337645 0.9593091,1.3239039z" transform="matrix(1,0,0,-1,1.6679851,3.4818035)" fill="rgb(104,104,104)" fill-rule="nonzero" shaper:cutDepth="0.0000762" stroke-linecap="round" stroke-linejoin="round" /><path d="M0.7318119,1.4254777 L0.7612057,1.4605078 0.8000994,1.4278721 0.92225,1.5734454 0.9601104,1.5416767 0.8383854,1.3966104 0.8772791,1.3639747 0.8474599,1.3284375 0.7318119,1.4254777z" transform="matrix(1,0,0,-1,1.6679851,3.4818035)" fill="rgb(104,104,104)" fill-rule="nonzero" shaper:cutDepth="0.0000762" stroke-linecap="round" stroke-linejoin="round" /><path d="M0.6706827,1.557962 L0.6222208,1.5503252 0.6222208,1.5503252 0.6238804,1.5316749 0.6260879,1.5225723 0.6292821,1.5137689 0.6292821,1.5137689 0.634034,1.5051255 0.6396382,1.4970118 0.646138,1.4895932 0.6532309,1.4827512 0.6532309,1.4827512 0.6605287,1.4769886 0.6686103,1.472364 0.6769622,1.4682525 0.6856989,1.4650666 0.6948569,1.4634289 0.7041585,1.4631322 0.7134286,1.4639682 0.7225697,1.4657179 0.7225697,1.4657179 0.7322015,1.4693897 0.7413044,1.4742469 0.7494089,1.4806299 0.7566337,1.4879996 0.7566337,1.4879996 0.7610963,1.4941822 0.7650524,1.5007001 0.7683254,1.5075838 0.7707162,1.5148212 0.771953,1.5223412 0.7724363,1.5299512 0.7723998,1.5375796 0.7712836,1.5451141 0.7712836,1.5451141 0.766043,1.5640154 0.7589156,1.5822897 0.7589156,1.5822897 0.7514154,1.5992683 0.7489258,1.6082016 0.748484,1.6174594 0.748484,1.6174594 0.7503127,1.624296 0.7540957,1.6302771 0.7540957,1.6302771 0.7580871,1.6340895 0.7626671,1.6371653 0.7678068,1.6391739 0.7732617,1.6400034 0.7787749,1.639766 0.7841397,1.6384749 0.7891661,1.6362001 0.793699,1.6330513 0.793699,1.6330513 0.7982561,1.6282799 0.8020636,1.6228934 0.8048802,1.616927 0.8066423,1.6105703 0.8084513,1.5975 0.8088741,1.5843125 0.8587568,1.5914725 0.8587568,1.5914725 0.8574729,1.6029172 0.8554658,1.6142601 0.8520518,1.6252591 0.8473596,1.6357779 0.8473596,1.6357779 0.8419587,1.6441197 0.835816,1.6519282 0.8290036,1.659162 0.8217262,1.6659231 0.8217262,1.6659231 0.812846,1.6725157 0.8034098,1.6782975 0.7932496,1.6826778 0.7826294,1.6857748 0.7826294,1.6857748 0.7724342,1.6870985 0.7621605,1.6868844 0.7621605,1.6868844 0.7546924,1.6861923 0.7473967,1.6844059 0.7402519,1.6820981 0.7333803,1.6790695 0.7269651,1.6751678 0.7210433,1.670546 0.7104108,1.6599479 0.7104108,1.6599479 0.7022696,1.6482324 0.6989915,1.6418872 0.6964936,1.6352031 0.6949815,1.6282274 0.6942588,1.621127 0.6941551,1.6139904 0.6950585,1.6069154 0.6950585,1.6069154 0.6974136,1.5962426 0.7010736,1.5859447 0.7101982,1.5660806 0.7101982,1.5660806 0.7152458,1.5548657 0.7191953,1.5432163 0.7202462,1.5371633 0.7199094,1.5310304 0.7181128,1.5251564 0.715111,1.5197932 0.715111,1.5197932 0.711811,1.5166712 0.7079633,1.5142643 0.7036882,1.5127317 0.69917,1.512286 0.6946515,1.5127344 0.6902911,1.5140024 0.6862136,1.515999 0.6825139,1.5186332 0.6825139,1.5186332 0.6757233,1.526869 0.6732318,1.5316027 0.6715793,1.5366836 0.6704166,1.5473 0.6702315,1.5526405 0.6706827,1.557962z" transform="matrix(1,0,0,-1,1.6679851,3.4818035)" fill="rgb(104,104,104)" fill-rule="nonzero" shaper:cutDepth="0.0000762" stroke-linecap="round" stroke-linejoin="round" /><path d="M1.4992085,1.1931976 L1.5102162,1.2758879 1.4294058,1.251769 1.3825273,1.2911048 1.5161711,1.3243092 1.5317908,1.4742211 1.5781542,1.4353176 1.5655355,1.3376301 1.6598053,1.3668042 1.7061687,1.3279007 1.5588079,1.2898572 1.5476324,1.1525651 1.4992085,1.1931976z" transform="matrix(1,0,0,-1,1.6679851,3.4818035)" fill="rgb(104,104,104)" fill-rule="nonzero" shaper:cutDepth="0.0000762" stroke-linecap="round" stroke-linejoin="round" /><path d="M1.2167395,1.4303773 L1.3684999,1.6112384 1.4063604,1.5794697 1.2842099,1.4338963 1.3179521,1.4055832 1.2883422,1.3702955 1.2167395,1.4303773z" transform="matrix(1,0,0,-1,1.6679851,3.4818035)" fill="rgb(104,104,104)" fill-rule="nonzero" shaper:cutDepth="0.0000762" stroke-linecap="round" stroke-linejoin="round" /><path d="M1.0824511,1.5348338 L1.0824511,1.5348338 1.0749361,1.5418786 1.0681588,1.5496443 1.0625747,1.558303 1.0582406,1.5676586 1.0582406,1.5676586 1.0560985,1.5737808 1.0546809,1.5801143 1.0536299,1.5930357 1.0544432,1.6059811 1.0569095,1.6187149 1.0610239,1.6310206 1.0662642,1.642892 1.0722984,1.6543812 1.0789955,1.6654984 1.0789955,1.6654984 1.0871039,1.6771405 1.0958895,1.6882806 1.0958895,1.6882806 1.1089016,1.7021235 1.1228675,1.7150175 1.138184,1.7262664 1.1547278,1.7356222 1.1547278,1.7356222 1.1672975,1.7404153 1.1804948,1.7430213 1.1804948,1.7430213 1.1876773,1.7439041 1.1949137,1.7441321 1.2021277,1.7435288 1.2092549,1.7422573 1.2092549,1.7422573 1.2182063,1.7392488 1.2267829,1.7352968 1.2267829,1.7352968 1.2357151,1.729911 1.2441271,1.7237278 1.2441271,1.7237278 1.2516978,1.7165869 1.2583477,1.7085848 1.2638165,1.6997331 1.2679855,1.6902016 1.2707541,1.680167 1.2721098,1.6698456 1.2721178,1.659436 1.2708552,1.649102 1.2708552,1.649102 1.2681165,1.6387622 1.2647746,1.6286051 1.2606684,1.6187269 1.2558282,1.6091901 1.2442538,1.5912104 1.2380643,1.582489 1.2313124,1.5742028 1.2313124,1.5742028 1.2219025,1.5636083 1.2119721,1.5535017 1.2015028,1.5439544 1.1903158,1.535262 1.1782688,1.5278133 1.1654769,1.5217284 1.1520295,1.5172998 1.1450789,1.515932 1.1380171,1.5153871 1.1380171,1.5153871 1.1304861,1.5153394 1.1230033,1.5162349 1.1155985,1.5176341 1.1083585,1.5197242 1.1014107,1.5226419 1.0947851,1.5262374 1.0823985,1.5348146 1.0824511,1.5348338z M1.1328744,1.6554685 L1.1328744,1.6554685 1.1252674,1.6459863 1.1182028,1.6360952 1.1118761,1.6257163 1.106615,1.6147612 1.102794,1.60323 1.101792,1.5972394 1.1016695,1.5911621 1.102654,1.585169 1.1048723,1.5795167 1.1082099,1.5744389 1.11243,1.5700686 1.1124794,1.5700905 1.1124794,1.5700905 1.1164677,1.5671683 1.120902,1.5649764 1.1256836,1.563736 1.1306122,1.563321 1.1306122,1.563321 1.1355057,1.5635943 1.1403176,1.5645287 1.149491,1.5679602 1.1579968,1.5728266 1.1659448,1.5785663 1.1804627,1.591737 1.1936335,1.6062636 1.1936335,1.6062636 1.2041148,1.6197021 1.213465,1.6339486 1.217505,1.6414531 1.2208425,1.649292 1.2232051,1.6574842 1.2239753,1.6659594 1.2239753,1.6659594 1.2232445,1.6727708 1.2211158,1.6792753 1.2173416,1.6849877 1.2124963,1.6898157 1.2124963,1.6898157 1.2093874,1.6922822 1.2059272,1.694231 1.1984635,1.6969013 1.1905399,1.6971301 1.1827383,1.6956717 1.1827383,1.6956717 1.1752595,1.6925689 1.1682099,1.688579 1.1615626,1.6839558 1.1553611,1.6787461 1.1436959,1.6675128 1.1328744,1.6554685z" transform="matrix(1,0,0,-1,1.6679851,3.4818035)" fill="rgb(104,104,104)" fill-rule="nonzero" shaper:cutDepth="0.0000762" stroke-linecap="round" stroke-linejoin="round" /><path d="M0.9322018,1.660908 L0.9322018,1.660908 0.9246867,1.6679528 0.9179094,1.6757185 0.9123253,1.6843772 0.9079913,1.6937328 0.9079913,1.6937328 0.9058492,1.6998549 0.9044316,1.7061884 0.9033806,1.7191099 0.9041939,1.7320552 0.9066602,1.7447891 0.9107746,1.7570947 0.9160149,1.7689662 0.9220491,1.7804554 0.9287462,1.7915726 0.9287462,1.7915726 0.9368545,1.8032147 0.9456401,1.8143548 0.9456401,1.8143548 0.9586523,1.8281977 0.9726181,1.8410917 0.9879347,1.8523405 1.0044784,1.8616964 1.0044784,1.8616964 1.0170482,1.8664895 1.0302455,1.8690955 1.0302455,1.8690955 1.0374279,1.8699782 1.0446643,1.8702062 1.0518784,1.8696029 1.0590056,1.8683315 1.0590056,1.8683315 1.067957,1.865323 1.0765335,1.8613709 1.0765335,1.8613709 1.0854658,1.8559852 1.0938777,1.849802 1.0938777,1.849802 1.1014485,1.8426611 1.1080984,1.8346589 1.1135672,1.8258073 1.1177362,1.8162757 1.1205048,1.8062411 1.1218605,1.7959197 1.1218685,1.7855101 1.1206059,1.7751762 1.1206059,1.7751762 1.1178672,1.7648364 1.1145253,1.7546793 1.1104191,1.7448011 1.1055788,1.7352642 1.0940044,1.7172845 1.087815,1.7085632 1.081063,1.700277 1.081063,1.700277 1.0716532,1.6896824 1.0617227,1.6795758 1.0512535,1.6700285 1.0400665,1.6613362 1.0280195,1.6538874 1.0152275,1.6478025 1.0017801,1.643374 0.9948295,1.6420062 0.9877677,1.6414613 0.9877677,1.6414613 0.9802368,1.6414135 0.972754,1.6423091 0.9653491,1.6437082 0.9581091,1.6457983 0.9511614,1.6487161 0.9445358,1.6523115 0.9321491,1.6608887 0.9322018,1.660908z M0.9826251,1.7815427 L0.9826251,1.7815427 0.9750181,1.7720605 0.9679535,1.7621694 0.9616268,1.7517904 0.9563657,1.7408354 0.9525446,1.7293042 0.9515427,1.7233135 0.9514202,1.7172362 0.9524046,1.7112431 0.954623,1.7055909 0.9579606,1.700513 0.9621806,1.6961428 0.9622301,1.6961647 0.9622301,1.6961647 0.9662184,1.6932425 0.9706526,1.6910505 0.9754343,1.6898101 0.9803629,1.6893951 0.9803629,1.6893951 0.9852563,1.6896684 0.9900683,1.6906029 0.9992417,1.6940344 1.0077475,1.6989007 1.0156955,1.7046405 1.0302133,1.7178112 1.0433842,1.7323378 1.0433842,1.7323378 1.0538655,1.7457763 1.0632157,1.7600228 1.0672557,1.7675272 1.0705932,1.7753662 1.0729558,1.7835583 1.0737259,1.7920336 1.0737259,1.7920336 1.0729952,1.7988449 1.0708665,1.8053495 1.0670922,1.8110619 1.062247,1.8158899 1.062247,1.8158899 1.0591381,1.8183564 1.0556779,1.8203052 1.0482141,1.8229755 1.0402906,1.8232042 1.0324889,1.8217459 1.0324889,1.8217459 1.0250102,1.8186431 1.0179606,1.8146532 1.0113133,1.81003 1.0051117,1.8048203 0.9934465,1.793587 0.9826251,1.7815427z" transform="matrix(1,0,0,-1,1.6679851,3.4818035)" fill="rgb(104,104,104)" fill-rule="nonzero" shaper:cutDepth="0.0000762" stroke-linecap="round" stroke-linejoin="round" /><path d="M0.7481899,0.9862535 a0.079375,0.079375 0 1,1 0.15875,0 a0.079375,0.079375 0 1,1 -0.15875,0z" transform="matrix(1,0,0,-1,1.6679851,3.4818035)" fill="rgb(255,255,255)" stroke="rgb(0,0,0)" stroke-width="0.0010cm" stroke-linecap="round" stroke-linejoin="round" shaper:cutDepth="0.0015875" /></svg>