<?xml version="1.0" encoding="utf-8"?>
<!-- Generator: Fusion 360, Shaper Origin Export Add-In, Version 1.6.10  -->
<svg xmlns="http://www.w3.org/2000/svg" xmlns:xlink="http://www.w3.org/1999/xlink" xmlns:shaper="http://www.shapertools.com/namespaces/shaper" shaper:fusionaddin="version:1.6.10" width="8.255cm" height="8.255cm" version="1.1" x="0cm" y="0cm" viewBox="0 0 8.255 8.255" enable-background="new 0 0 8.255 8.255" xml:space="preserve"><path d="M-0.28575,3.8099997 L-0.28575,-3.8100003 A0.3175,0.3175 180 0,1 0.03175,-4.1275003 L7.65175,-4.1275003 A0.3175,0.3175 270 0,1 7.96925,-3.8100003 L7.96925,3.8099997 A0.3175,0.3175 0 0,1 7.65175,4.1274997 L0.03175,4.1274997 A0.3175,0.3175 90 0,1 -0.28575,3.8099997z" transform="matrix(1,0,0,-1,0.28575,4.1274997)" fill="rgb(0,0,0)" shaper:cutDepth="0.0015875" stroke-linecap="round" stroke-linejoin="round" /><path d="M0.9101059,-2.9968917 L0.9101059,-2.9968917 0.9125451,-3.0072411 0.9160815,-3.0170248 0.9215938,-3.0257899 0.9284242,-3.0338755 0.9284242,-3.0338755 0.936952,-3.0391933 0.9459303,-3.0431503 0.9556033,-3.0450088 0.9656684,-3.0456825 0.9656684,-3.0456825 0.975677,-3.0452227 0.9853542,-3.0436655 0.9944269,-3.0401061 1.0030863,-3.0351777 1.0030863,-3.0351777 1.0081854,-3.0300104 1.0122523,-3.0243275 1.0145272,-3.0177497 1.0156746,-3.0106087 1.0156746,-3.0106087 1.0144157,-3.0024399 1.0103788,-2.9952422 1.0103788,-2.9952422 1.0062778,-2.9916443 1.0018604,-2.9885564 0.9918869,-2.9842165 0.9918869,-2.9842165 0.9714038,-2.9783243 0.950736,-2.973104 0.950736,-2.973104 0.9352506,-2.9689725 0.920251,-2.9637766 0.9061633,-2.9565827 0.8927426,-2.9479273 0.8927426,-2.9479273 0.8829602,-2.9369044 0.878732,-2.9310917 0.8752993,-2.9249174 0.8728498,-2.9182963 0.8712148,-2.911305 0.8693022,-2.8967056 0.8693022,-2.8967056 0.8701967,-2.8870503 0.8721144,-2.8777034 0.8757199,-2.8688654 0.8803279,-2.8603295 0.8803279,-2.8603295 0.8869098,-2.8522204 0.8942509,-2.8450385 0.9028188,-2.8393547 0.9121027,-2.8345451 0.9121027,-2.8345451 0.9243014,-2.8305652 0.9366864,-2.8275993 0.9493596,-2.8262012 0.9621957,-2.8256898 0.9621957,-2.8256898 0.9815804,-2.8266289 0.9910589,-2.8277825 1.0002807,-2.8297569 1.0091661,-2.8328073 1.0177349,-2.8368706 1.0343402,-2.8466993 1.0343402,-2.8466993 1.0449095,-2.8587823 1.0494627,-2.8651605 1.0531383,-2.8719426 1.0557709,-2.8792049 1.0575697,-2.8868509 1.0597774,-2.9027827 1.0083821,-2.90504 1.0083821,-2.90504 1.0065919,-2.8970687 1.0039096,-2.8895658 0.9996131,-2.8829102 0.994231,-2.8768246 0.994231,-2.8768246 0.9866391,-2.8727596 0.9787198,-2.8698416 0.9703265,-2.8685831 0.9616748,-2.8682298 0.9616748,-2.8682298 0.9523914,-2.8686814 0.9433714,-2.8700792 0.9348271,-2.8731844 0.926601,-2.8774323 0.926601,-2.8774323 0.9231747,-2.8806689 0.9205016,-2.8842932 0.9190904,-2.8885672 0.9184403,-2.8932329 0.9184403,-2.8932329 0.9191024,-2.8977028 0.9204599,-2.9018346 0.9229418,-2.9054199 0.9260801,-2.9086862 0.9260801,-2.9086862 0.9372656,-2.9145416 0.9488664,-2.9193271 0.9609608,-2.9228407 0.9733082,-2.9257023 0.9733082,-2.9257023 1.0015938,-2.9332526 1.0153108,-2.9382783 1.0287839,-2.9440205 1.0287839,-2.9440205 1.0370244,-2.9491794 1.0446122,-2.9550453 1.0510976,-2.9621054 1.0569124,-2.9698918 1.0569124,-2.9698918 1.0614412,-2.9795116 1.0648353,-2.9894258 1.066457,-2.9997996 1.06707,-3.0104351 1.06707,-3.0104351 1.0660877,-3.0212864 1.0639763,-3.0318044 1.0600004,-3.041772 1.0549156,-3.0514124 1.0549156,-3.0514124 1.0478626,-3.0603669 1.0399582,-3.0682958 1.030659,-3.0745446 1.0205364,-3.0798014 1.0205364,-3.0798014 1.0070252,-3.0840336 0.993319,-3.0871571 0.9793162,-3.0885953 0.9651475,-3.0890907 0.9651475,-3.0890907 0.9451821,-3.0879875 0.9354282,-3.0867197 0.925949,-3.0845927 0.9168278,-3.0813455 0.9080364,-3.0770663 0.8910063,-3.0667789 0.8910063,-3.0667789 0.8789341,-3.0526534 0.8736758,-3.0452093 0.8693492,-3.0373082 0.866078,-3.0288897 0.8636286,-3.0200682 0.8600996,-3.0017534 0.9101059,-2.9968917z" transform="matrix(1,0,0,-1,0.28575,4.1274997)" fill="rgb(104,104,104)" fill-rule="nonzero" shaper:cutDepth="0.0000762" stroke-linecap="round" stroke-linejoin="round" /><path d="M0.6358886,-2.8300306 L0.8246275,-2.8300306 0.8246275,-2.8730915 0.6872839,-2.8730915 0.6872839,-2.9295222 0.8150777,-2.9295222 0.8150777,-2.9724095 0.6872839,-2.9724095 0.6872839,-3.041689 0.8294892,-3.041689 0.8294892,-3.0845763 0.6358886,-3.0845763 0.6358886,-2.8300306z" transform="matrix(1,0,0,-1,0.28575,4.1274997)" fill="rgb(104,104,104)" fill-rule="nonzero" shaper:cutDepth="0.0000762" stroke-linecap="round" stroke-linejoin="round" /><path d="M1.1676544,-2.8730915 L1.0921241,-2.8730915 1.0921241,-2.8300306 1.2944064,-2.8300306 1.2944064,-2.8730915 1.2190497,-2.8730915 1.2190497,-3.0845763 1.1676544,-3.0845763 1.1676544,-2.8730915z" transform="matrix(1,0,0,-1,0.28575,4.1274997)" fill="rgb(104,104,104)" fill-rule="nonzero" shaper:cutDepth="0.0000762" stroke-linecap="round" stroke-linejoin="round" /><path d="M0.4759217,-2.8730915 L0.4003915,-2.8730915 0.4003915,-2.8300306 0.6026737,-2.8300306 0.6026737,-2.8730915 0.5273171,-2.8730915 0.5273171,-3.0845763 0.4759217,-3.0845763 0.4759217,-2.8730915z" transform="matrix(1,0,0,-1,0.28575,4.1274997)" fill="rgb(104,104,104)" fill-rule="nonzero" shaper:cutDepth="0.0000762" stroke-linecap="round" stroke-linejoin="round" /><path d="M0.28575,0 a3.556,3.556 0 1,1 7.112,0 a3.556,3.556 0 1,1 -7.112,0z" transform="matrix(1,0,0,-1,0.28575,4.1274997)" fill="rgb(255,255,255)" stroke="rgb(0,0,0)" stroke-width="0.0010cm" stroke-linecap="round" stroke-linejoin="round" shaper:cutDepth="0.0015875" /><path d="M1.09175,-3.4417003 a0.21,0.21 0 1,1 0.42,0 a0.21,0.21 0 1,1 -0.42,0z" transform="matrix(1,0,0,-1,0.28575,4.1274997)" fill="rgb(255,255,255)" stroke="rgb(0,0,0)" stroke-width="0.0010cm" stroke-linecap="round" stroke-linejoin="round" shaper:cutDepth="0.0015875" /><path d="M6.54304,-3.1115003 a0.41021,0.41021 0 1,1 0.82042,0 a0.41021,0.41021 0 1,1 -0.82042,0z" transform="matrix(1,0,0,-1,0.28575,4.1274997)" fill="rgb(255,255,255)" stroke="rgb(0,0,0)" stroke-width="0.0010cm" stroke-linecap="round" stroke-linejoin="round" shaper:cutDepth="0.0015875" /><path d="M7.436485,-3.8100003 a0.215265,0.215265 0 1,1 0.43053,0 a0.215265,0.215265 0 1,1 -0.43053,0z" transform="matrix(1,0,0,-1,0.28575,4.1274997)" fill="rgb(255,255,255)" stroke="rgb(0,0,0)" stroke-width="0.0010cm" stroke-linecap="round" stroke-linejoin="round" shaper:cutDepth="0.0015875" /><path d="M-0.183515,-3.8100003 a0.215265,0.215265 0 1,1 0.43053,0 a0.215265,0.215265 0 1,1 -0.43053,0z" transform="matrix(1,0,0,-1,0.28575,4.1274997)" fill="rgb(255,255,255)" stroke="rgb(0,0,0)" stroke-width="0.0010cm" stroke-linecap="round" stroke-linejoin="round" shaper:cutDepth="0.0015875" /><path d="M-0.183515,3.8099997 a0.215265,0.215265 0 1,1 0.43053,0 a0.215265,0.215265 0 1,1 -0.43053,0z" transform="matrix(1,0,0,-1,0.28575,4.1274997)" fill="rgb(255,255,255)" stroke="rgb(0,0,0)" stroke-width="0.0010cm" stroke-linecap="round" stroke-linejoin="round" shaper:cutDepth="0.0015875" /><path d="M7.436485,3.8099997 a0.215265,0.215265 0 1,1 0.43053,0 a0.215265,0.215265 0 1,1 -0.43053,0z" transform="matrix(1,0,0,-1,0.28575,4.1274997)" fill="rgb(255,255,255)" stroke="rgb(0,0,0)" stroke-width="0.0010cm" stroke-linecap="round" stroke-linejoin="round" shaper:cutDepth="0.0015875" /></svg>