<?xml version="1.0" encoding="utf-8"?>
<!-- Generator: Fusion 360, Shaper Origin Export Add-In, Version 1.6.10  -->
<svg xmlns="http://www.w3.org/2000/svg" xmlns:xlink="http://www.w3.org/1999/xlink" xmlns:shaper="http://www.shapertools.com/namespaces/shaper" shaper:fusionaddin="version:1.6.10" width="4.9911cm" height="4.9911cm" version="1.1" x="0cm" y="0cm" viewBox="0 0 4.9911 4.9911" enable-background="new 0 0 4.9911 4.9911" xml:space="preserve"><path d="M-0.5210693,-1.0930185 L-0.6005061,-1.2306071 A2.49555,2.49555 242.1873931 1,1 -0.765484,-1.1353571 L-0.6860472,-0.9977685 -0.5210693,-1.0930185z" transform="matrix(1,0,0,-1,1.9316793,3.4722028)" fill="rgb(0,0,0)" shaper:cutDepth="0.0015875" stroke-linecap="round" stroke-linejoin="round" /><path d="M-0.8882713,1.951429 L-1.0063813,1.7468565 -1.4199257,1.9856165 -1.3018157,2.190189 -0.8882713,1.951429z" transform="matrix(1,0,0,-1,1.9316793,3.4722028)" fill="rgb(104,104,104)" fill-rule="nonzero" shaper:cutDepth="0.0000762" stroke-linecap="round" stroke-linejoin="round" /><path d="M-0.6796932,2.8190714 L-0.7421126,2.7753649 -0.4682184,2.3842034 -0.405799,2.42791 -0.6796932,2.8190714z" transform="matrix(1,0,0,-1,1.9316793,3.4722028)" fill="rgb(104,104,104)" fill-rule="nonzero" shaper:cutDepth="0.0000762" stroke-linecap="round" stroke-linejoin="round" /><path d="M0.2154588,3.172004 L0.1404165,3.158772 0.223337,2.6885066 0.2983793,2.7017386 0.2154588,3.172004z" transform="matrix(1,0,0,-1,1.9316793,3.4722028)" fill="rgb(104,104,104)" fill-rule="nonzero" shaper:cutDepth="0.0000762" stroke-linecap="round" stroke-linejoin="round" /><path d="M1.1758978,3.1135619 L1.1022943,3.1332839 0.978703,2.672035 1.0523066,2.652313 1.1758978,3.1135619z" transform="matrix(1,0,0,-1,1.9316793,3.4722028)" fill="rgb(104,104,104)" fill-rule="nonzero" shaper:cutDepth="0.0000762" stroke-linecap="round" stroke-linejoin="round" /><path d="M2.0216525,2.6546963 L1.9632799,2.7036768 1.656336,2.3378752 1.7147086,2.2888948 2.0216525,2.6546963z" transform="matrix(1,0,0,-1,1.9316793,3.4722028)" fill="rgb(104,104,104)" fill-rule="nonzero" shaper:cutDepth="0.0000762" stroke-linecap="round" stroke-linejoin="round" /><path d="M2.5942416,1.8813915 L2.562038,1.9504522 2.1292579,1.7486435 2.1614615,1.6795829 2.5942416,1.8813915z" transform="matrix(1,0,0,-1,1.9316793,3.4722028)" fill="rgb(104,104,104)" fill-rule="nonzero" shaper:cutDepth="0.0000762" stroke-linecap="round" stroke-linejoin="round" /><path d="M2.7863707,0.9385528 L2.7863707,1.0147528 2.3088507,1.0147528 2.3088507,0.9385528 2.7863707,0.9385528z" transform="matrix(1,0,0,-1,1.9316793,3.4722028)" fill="rgb(104,104,104)" fill-rule="nonzero" shaper:cutDepth="0.0000762" stroke-linecap="round" stroke-linejoin="round" /><path d="M2.6393066,0.1807107 L2.6653686,0.2523153 2.2166465,0.4156367 2.1905846,0.3440322 2.3009668,0.3038563 A1.862836,1.862836 338.8280657 0,0 2.0150776,-0.1913184 L1.9250932,-0.1158125 1.8761128,-0.174185 2.2419143,-0.481129 2.2908947,-0.4227564 2.0757973,-0.2422682 A1.942084,1.942084 321.1241065 0,1 2.3754506,0.2767465 L2.6393066,0.1807107z" transform="matrix(1,0,0,-1,1.9316793,3.4722028)" fill="rgb(104,104,104)" fill-rule="nonzero" shaper:cutDepth="0.0000762" stroke-linecap="round" stroke-linejoin="round" /><path d="M1.6421252,-0.9671387 L1.7081163,-0.9290387 1.4693563,-0.5154942 1.4033652,-0.5535942 1.6421252,-0.9671387z" transform="matrix(1,0,0,-1,1.9316793,3.4722028)" fill="rgb(104,104,104)" fill-rule="nonzero" shaper:cutDepth="0.0000762" stroke-linecap="round" stroke-linejoin="round" /><path d="M0.7196194,-1.2407106 L0.7955294,-1.2340693 0.7539108,-0.7583664 0.6780007,-0.7650077 0.7196194,-1.2407106z" transform="matrix(1,0,0,-1,1.9316793,3.4722028)" fill="rgb(104,104,104)" fill-rule="nonzero" shaper:cutDepth="0.0000762" stroke-linecap="round" stroke-linejoin="round" /><path d="M-0.2320713,-1.0987831 L-0.1604667,-1.124845 0.0028547,-0.676123 -0.0687499,-0.6500611 -0.2320713,-1.0987831z" transform="matrix(1,0,0,-1,1.9316793,3.4722028)" fill="rgb(104,104,104)" fill-rule="nonzero" shaper:cutDepth="0.0000762" stroke-linecap="round" stroke-linejoin="round" /><path d="M-1.0346149,-0.5679513 L-0.9807333,-0.6218328 -0.6430757,-0.2841752 -0.6969572,-0.2302937 -1.0346149,-0.5679513z" transform="matrix(1,0,0,-1,1.9316793,3.4722028)" fill="rgb(104,104,104)" fill-rule="nonzero" shaper:cutDepth="0.0000762" stroke-linecap="round" stroke-linejoin="round" /><path d="M-1.5376271,0.2523153 L-1.5115651,0.1807107 -1.0628431,0.3440322 -1.0889051,0.4156367 -1.5376271,0.2523153z" transform="matrix(1,0,0,-1,1.9316793,3.4722028)" fill="rgb(104,104,104)" fill-rule="nonzero" shaper:cutDepth="0.0000762" stroke-linecap="round" stroke-linejoin="round" /><path d="M-1.6468513,1.2083114 L-1.6534926,1.1324014 -1.1777897,1.0907828 -1.1711485,1.1666928 -1.6468513,1.2083114z" transform="matrix(1,0,0,-1,1.9316793,3.4722028)" fill="rgb(104,104,104)" fill-rule="nonzero" shaper:cutDepth="0.0000762" stroke-linecap="round" stroke-linejoin="round" /><path d="M-1.0201766,-0.0776715 L-1.0611189,-0.013405 -1.3310379,-0.1853624 -1.2900956,-0.2496288 -1.0201766,-0.0776715z" transform="matrix(1,0,0,-1,1.9316793,3.4722028)" fill="rgb(104,104,104)" fill-rule="nonzero" shaper:cutDepth="0.0000762" stroke-linecap="round" stroke-linejoin="round" /><path d="M-0.4261871,-0.6483368 L-0.4904535,-0.6073946 -0.6624109,-0.8773136 -0.5981444,-0.9182558 -0.4261871,-0.6483368z" transform="matrix(1,0,0,-1,1.9316793,3.4722028)" fill="rgb(104,104,104)" fill-rule="nonzero" shaper:cutDepth="0.0000762" stroke-linecap="round" stroke-linejoin="round" /><path d="M0.3533239,-0.9145045 L0.2777758,-0.9045584 0.2360022,-1.2218604 0.3115503,-1.2318065 0.3533239,-0.9145045z" transform="matrix(1,0,0,-1,1.9316793,3.4722028)" fill="rgb(104,104,104)" fill-rule="nonzero" shaper:cutDepth="0.0000762" stroke-linecap="round" stroke-linejoin="round" /><path d="M1.1722881,-0.8262987 L1.0996149,-0.8492125 1.1958528,-1.15444 1.268526,-1.1315263 1.1722881,-0.8262987z" transform="matrix(1,0,0,-1,1.9316793,3.4722028)" fill="rgb(104,104,104)" fill-rule="nonzero" shaper:cutDepth="0.0000762" stroke-linecap="round" stroke-linejoin="round" /><path d="M1.8772444,-0.4002479 L1.8210638,-0.4517279 2.0372797,-0.6876861 2.0934602,-0.6362061 1.8772444,-0.4002479z" transform="matrix(1,0,0,-1,1.9316793,3.4722028)" fill="rgb(104,104,104)" fill-rule="nonzero" shaper:cutDepth="0.0000762" stroke-linecap="round" stroke-linejoin="round" /><path d="M2.4294812,0.6020819 L2.4129885,0.5276882 2.7254423,0.4584188 2.741935,0.5328126 2.4294812,0.6020819z" transform="matrix(1,0,0,-1,1.9316793,3.4722028)" fill="rgb(104,104,104)" fill-rule="nonzero" shaper:cutDepth="0.0000762" stroke-linecap="round" stroke-linejoin="round" /><path d="M2.4129885,1.4256174 L2.4294812,1.3512236 2.741935,1.4204929 2.7254423,1.4948867 2.4129885,1.4256174z" transform="matrix(1,0,0,-1,1.9316793,3.4722028)" fill="rgb(104,104,104)" fill-rule="nonzero" shaper:cutDepth="0.0000762" stroke-linecap="round" stroke-linejoin="round" /><path d="M2.0499999,2.1650238 L2.0963875,2.1045703 2.3502923,2.2993983 2.3039047,2.3598518 2.0499999,2.1650238z" transform="matrix(1,0,0,-1,1.9316793,3.4722028)" fill="rgb(104,104,104)" fill-rule="nonzero" shaper:cutDepth="0.0000762" stroke-linecap="round" stroke-linejoin="round" /><path d="M1.4085339,2.681748 L1.4761241,2.6465628 1.6239021,2.9304417 1.5563119,2.965627 1.4085339,2.681748z" transform="matrix(1,0,0,-1,1.9316793,3.4722028)" fill="rgb(104,104,104)" fill-rule="nonzero" shaper:cutDepth="0.0000762" stroke-linecap="round" stroke-linejoin="round" /><path d="M0.6087911,2.8789639 L0.6849186,2.8756402 0.6988786,3.1953755 0.6227511,3.1986993 0.6087911,2.8789639z" transform="matrix(1,0,0,-1,1.9316793,3.4722028)" fill="rgb(104,104,104)" fill-rule="nonzero" shaper:cutDepth="0.0000762" stroke-linecap="round" stroke-linejoin="round" /><path d="M-1.0054599,2.0522541 L-0.9836066,2.0834638 -1.245768,2.2670312 -1.2676213,2.2358216 -1.0054599,2.0522541z" transform="matrix(1,0,0,-1,1.9316793,3.4722028)" fill="rgb(104,104,104)" fill-rule="nonzero" shaper:cutDepth="0.0000762" stroke-linecap="round" stroke-linejoin="round" /><path d="M-0.9057433,2.1849373 L-0.8812531,2.2141236 -1.1264179,2.4198414 -1.1509081,2.3906551 -0.9057433,2.1849373z" transform="matrix(1,0,0,-1,1.9316793,3.4722028)" fill="rgb(104,104,104)" fill-rule="nonzero" shaper:cutDepth="0.0000762" stroke-linecap="round" stroke-linejoin="round" /><path d="M-0.794842,2.3084248 L-0.7679012,2.3353655 -0.9942037,2.561668 -1.0211445,2.5347272 -0.794842,2.3084248z" transform="matrix(1,0,0,-1,1.9316793,3.4722028)" fill="rgb(104,104,104)" fill-rule="nonzero" shaper:cutDepth="0.0000762" stroke-linecap="round" stroke-linejoin="round" /><path d="M-0.6736001,2.4217766 L-0.6444138,2.4462668 -0.8501316,2.6914316 -0.8793179,2.6669414 -0.6736001,2.4217766z" transform="matrix(1,0,0,-1,1.9316793,3.4722028)" fill="rgb(104,104,104)" fill-rule="nonzero" shaper:cutDepth="0.0000762" stroke-linecap="round" stroke-linejoin="round" /><path d="M-0.403857,2.6147065 L-0.3708615,2.6337565 -0.5308815,2.9109192 -0.563877,2.8918692 -0.403857,2.6147065z" transform="matrix(1,0,0,-1,1.9316793,3.4722028)" fill="rgb(104,104,104)" fill-rule="nonzero" shaper:cutDepth="0.0000762" stroke-linecap="round" stroke-linejoin="round" /><path d="M-0.2574088,2.6928162 L-0.2228784,2.708918 -0.3581332,2.9989727 -0.3926635,2.9828709 -0.2574088,2.6928162z" transform="matrix(1,0,0,-1,1.9316793,3.4722028)" fill="rgb(104,104,104)" fill-rule="nonzero" shaper:cutDepth="0.0000762" stroke-linecap="round" stroke-linejoin="round" /><path d="M-0.10471,2.7578649 L-0.0689078,2.7708959 -0.1783679,3.0716351 -0.2141702,3.0586041 -0.10471,2.7578649z" transform="matrix(1,0,0,-1,1.9316793,3.4722028)" fill="rgb(104,104,104)" fill-rule="nonzero" shaper:cutDepth="0.0000762" stroke-linecap="round" stroke-linejoin="round" /><path d="M0.053077,2.8093575 L0.0898787,2.8192185 0.0070463,3.1283534 -0.0297555,3.1184924 0.053077,2.8093575z" transform="matrix(1,0,0,-1,1.9316793,3.4722028)" fill="rgb(104,104,104)" fill-rule="nonzero" shaper:cutDepth="0.0000762" stroke-linecap="round" stroke-linejoin="round" /><path d="M-1.6215565,0.5719591 L-1.3063786,0.6275335 -1.3129946,0.6650546 -1.6281725,0.6094803 -1.6215565,0.5719591z" transform="matrix(1,0,0,-1,1.9316793,3.4722028)" fill="rgb(104,104,104)" fill-rule="nonzero" shaper:cutDepth="0.0000762" stroke-linecap="round" stroke-linejoin="round" /><path d="M-1.6485117,0.7639716 L-1.3296895,0.7918649 -1.3330101,0.82982 -1.6518323,0.8019266 -1.6485117,0.7639716z" transform="matrix(1,0,0,-1,1.9316793,3.4722028)" fill="rgb(104,104,104)" fill-rule="nonzero" shaper:cutDepth="0.0000762" stroke-linecap="round" stroke-linejoin="round" /><path d="M-1.6586293,0.9576028 L-1.3385893,0.9576028 -1.3385893,0.9957028 -1.6586293,0.9957028 -1.6586293,0.9576028z" transform="matrix(1,0,0,-1,1.9316793,3.4722028)" fill="rgb(104,104,104)" fill-rule="nonzero" shaper:cutDepth="0.0000762" stroke-linecap="round" stroke-linejoin="round" /><path d="M-1.6281725,1.3438253 L-1.3129946,1.2882509 -1.3063786,1.3257721 -1.6215565,1.3813464 -1.6281725,1.3438253z" transform="matrix(1,0,0,-1,1.9316793,3.4722028)" fill="rgb(104,104,104)" fill-rule="nonzero" shaper:cutDepth="0.0000762" stroke-linecap="round" stroke-linejoin="round" /><path d="M-1.5878299,1.5334772 L-1.278695,1.4506448 -1.268834,1.4874465 -1.5779689,1.570279 -1.5878299,1.5334772z" transform="matrix(1,0,0,-1,1.9316793,3.4722028)" fill="rgb(104,104,104)" fill-rule="nonzero" shaper:cutDepth="0.0000762" stroke-linecap="round" stroke-linejoin="round" /><path d="M-1.5311116,1.7188914 L-1.2303724,1.6094313 -1.2173414,1.6452336 -1.5180806,1.7546937 -1.5311116,1.7188914z" transform="matrix(1,0,0,-1,1.9316793,3.4722028)" fill="rgb(104,104,104)" fill-rule="nonzero" shaper:cutDepth="0.0000762" stroke-linecap="round" stroke-linejoin="round" /><path d="M-1.4584492,1.8986567 L-1.1683945,1.7634019 -1.1522927,1.7979323 -1.4423474,1.933187 -1.4584492,1.8986567z" transform="matrix(1,0,0,-1,1.9316793,3.4722028)" fill="rgb(104,104,104)" fill-rule="nonzero" shaper:cutDepth="0.0000762" stroke-linecap="round" stroke-linejoin="round" /><path d="M-1.5779689,0.3830266 L-1.268834,0.465859 -1.278695,0.5026608 -1.5878299,0.4198283 -1.5779689,0.3830266z" transform="matrix(1,0,0,-1,1.9316793,3.4722028)" fill="rgb(104,104,104)" fill-rule="nonzero" shaper:cutDepth="0.0000762" stroke-linecap="round" stroke-linejoin="round" /><path d="M-0.5284495,2.2379563 L-0.5283756,2.2379761 -0.5283756,2.2379761 -0.5256961,2.2307957 -0.5216089,2.2243149 -0.5163234,2.2187678 -0.5100969,2.2142992 -0.5100969,2.2142992 -0.5030964,2.211179 -0.4956564,2.2093458 -0.4879972,2.2091101 -0.4804315,2.2103291 -0.4732474,2.2129972 -0.4667482,2.2170571 -0.4612061,2.2223482 -0.4566626,2.2285212 -0.4566626,2.2285212 -0.4535364,2.2355324 -0.4517653,2.2429988 -0.4514764,2.2506681 -0.4527544,2.2582364 -0.45543,2.2654299 -0.4595027,2.2719353 -0.4648088,2.2774789 -0.4709978,2.2820208 -0.4709978,2.2820208 -0.4779988,2.285119 -0.4854622,2.2868154 -0.4931118,2.287063 -0.500655,2.2857538 -0.5078375,2.2831079 -0.5143486,2.2790816 -0.5199133,2.2738277 -0.5244408,2.2676529 -0.5244408,2.2676529 -0.527559,2.2606574 -0.5293311,2.2532071 -0.5294525,2.2455476 -0.5284495,2.2379563z" transform="matrix(1,0,0,-1,1.9316793,3.4722028)" fill="rgb(104,104,104)" fill-rule="nonzero" shaper:cutDepth="0.0000762" stroke-linecap="round" stroke-linejoin="round" /><path d="M-0.1068751,2.356354 L-0.1373807,2.3035168 -0.2263938,2.3549085 -0.2547114,2.3213556 -0.2547114,2.3213556 -0.2462349,2.3171162 -0.238133,2.3121395 -0.2301807,2.3069245 -0.222654,2.301113 -0.2157321,2.2945916 -0.2093145,2.287567 -0.1980475,2.2722576 -0.1980475,2.2722576 -0.1920326,2.2604506 -0.187698,2.2479272 -0.185299,2.2348971 -0.1847746,2.2216613 -0.186062,2.2084656 -0.1889712,2.1955309 -0.1935065,2.1830727 -0.1994544,2.1712233 -0.1994544,2.1712233 -0.2056925,2.1612206 -0.2132538,2.1521611 -0.2213342,2.143563 -0.2301823,2.1357687 -0.2400426,2.1292968 -0.2506219,2.1240849 -0.2616658,2.1199333 -0.2730022,2.1166714 -0.2730022,2.1166714 -0.2897766,2.114379 -0.2982431,2.1141364 -0.3067,2.1145345 -0.3067,2.1145345 -0.3192486,2.1162753 -0.3314692,2.1196242 -0.3314692,2.1196242 -0.3391562,2.1221375 -0.3465853,2.1253443 -0.3610366,2.1326181 -0.3610366,2.1326181 -0.3684283,2.1368977 -0.3753299,2.1419457 -0.3883733,2.1530064 -0.3883733,2.1530064 -0.4007764,2.1659299 -0.4063472,2.1729496 -0.411295,2.1804171 -0.4195528,2.1963188 -0.4263119,2.2129146 -0.3879709,2.2585343 -0.3809383,2.24369 -0.3809383,2.24369 -0.3768806,2.2355179 -0.3721725,2.2276984 -0.3618416,2.2126584 -0.3557144,2.2058956 -0.3489859,2.1997211 -0.3342176,2.1890081 -0.3342176,2.1890081 -0.3295942,2.1862878 -0.3246435,2.1841882 -0.3145074,2.1806483 -0.3145074,2.1806483 -0.3067227,2.1791922 -0.2988232,2.1786417 -0.2909253,2.1792204 -0.2832047,2.1809806 -0.2759084,2.1840566 -0.2693553,2.1885018 -0.263771,2.1941143 -0.2592068,2.2005875 -0.2592068,2.2005875 -0.2559279,2.2079251 -0.2538305,2.2156971 -0.2531009,2.2237121 -0.253675,2.2317452 -0.253675,2.2317452 -0.2559277,2.2401181 -0.259285,2.2481124 -0.2638072,2.2555106 -0.2691949,2.2623048 -0.2752139,2.2685467 -0.2817233,2.2742743 -0.2886594,2.2794785 -0.2960922,2.2839426 -0.2960922,2.2839426 -0.3086234,2.2906305 -0.3217122,2.2961468 -0.3351603,2.3007181 -0.3487985,2.30469 -0.2405063,2.4335061 -0.1068751,2.356354z" transform="matrix(1,0,0,-1,1.9316793,3.4722028)" fill="rgb(104,104,104)" fill-rule="nonzero" shaper:cutDepth="0.0000762" stroke-linecap="round" stroke-linejoin="round" /><path d="M-1.1702881,0.9683362 L-1.1702142,0.9683561 -1.1702142,0.9683561 -1.1675346,0.9611756 -1.1634475,0.9546948 -1.1581619,0.9491477 -1.1519354,0.9446792 -1.1519354,0.9446792 -1.1449349,0.9415589 -1.1374949,0.9397257 -1.1298357,0.93949 -1.12227,0.940709 -1.115086,0.9433771 -1.1085867,0.9474371 -1.1030446,0.9527282 -1.0985012,0.9589011 -1.0985012,0.9589011 -1.0953749,0.9659123 -1.0936038,0.9733787 -1.093315,0.981048 -1.094593,0.9886163 -1.0972686,0.9958098 -1.1013413,1.0023152 -1.1066473,1.0078589 -1.1128364,1.0124007 -1.1128364,1.0124007 -1.1198374,1.0154989 -1.1273007,1.0171953 -1.1349504,1.0174429 -1.1424936,1.0161337 -1.1496761,1.0134878 -1.1561872,1.0094615 -1.1617519,1.0042077 -1.1662794,0.9980328 -1.1662794,0.9980328 -1.1693976,0.9910373 -1.1711697,0.983587 -1.1712911,0.9759275 -1.1702881,0.9683362z" transform="matrix(1,0,0,-1,1.9316793,3.4722028)" fill="rgb(104,104,104)" fill-rule="nonzero" shaper:cutDepth="0.0000762" stroke-linecap="round" stroke-linejoin="round" /><path d="M-0.7487136,1.086734 L-0.7792192,1.0338967 -0.8682323,1.0852885 -0.89655,1.0517355 -0.89655,1.0517355 -0.8880734,1.0474961 -0.8799715,1.0425195 -0.8720192,1.0373044 -0.8644926,1.0314929 -0.8575707,1.0249715 -0.851153,1.017947 -0.8398861,1.0026376 -0.8398861,1.0026376 -0.8338711,0.9908305 -0.8295365,0.9783071 -0.8271376,0.965277 -0.8266131,0.9520413 -0.8279005,0.9388456 -0.8308098,0.9259108 -0.835345,0.9134526 -0.8412929,0.9016032 -0.8412929,0.9016032 -0.847531,0.8916006 -0.8550924,0.8825411 -0.8631728,0.8739429 -0.8720209,0.8661487 -0.8818812,0.8596767 -0.8924604,0.8544649 -0.9035044,0.8503132 -0.9148408,0.8470514 -0.9148408,0.8470514 -0.9316151,0.8447589 -0.9400817,0.8445164 -0.9485386,0.8449144 -0.9485386,0.8449144 -0.9610872,0.8466553 -0.9733077,0.8500042 -0.9733077,0.8500042 -0.9809948,0.8525174 -0.9884239,0.8557242 -1.0028752,0.862998 -1.0028752,0.862998 -1.0102669,0.8672776 -1.0171684,0.8723256 -1.0302119,0.8833863 -1.0302119,0.8833863 -1.042615,0.8963099 -1.0481858,0.9033296 -1.0531336,0.9107971 -1.0613913,0.9266987 -1.0681505,0.9432945 -1.0298094,0.9889142 -1.0227769,0.9740699 -1.0227769,0.9740699 -1.0187192,0.9658979 -1.014011,0.9580784 -1.0036802,0.9430383 -0.997553,0.9362755 -0.9908245,0.930101 -0.9760562,0.9193881 -0.9760562,0.9193881 -0.9714328,0.9166677 -0.9664821,0.9145682 -0.9563459,0.9110282 -0.9563459,0.9110282 -0.9485612,0.9095721 -0.9406618,0.9090216 -0.9327638,0.9096003 -0.9250433,0.9113605 -0.9177469,0.9144365 -0.9111938,0.9188817 -0.9056095,0.9244942 -0.9010453,0.9309674 -0.9010453,0.9309674 -0.8977664,0.938305 -0.8956691,0.946077 -0.8949395,0.954092 -0.8955135,0.9621252 -0.8955135,0.9621252 -0.8977663,0.970498 -0.9011235,0.9784923 -0.9056457,0.9858905 -0.9110335,0.9926847 -0.9170525,0.9989266 -0.9235618,1.0046542 -0.930498,1.0098584 -0.9379308,1.0143225 -0.9379308,1.0143225 -0.9504619,1.0210104 -0.9635508,1.0265268 -0.9769988,1.031098 -0.990637,1.0350699 -0.8823448,1.163886 -0.7487136,1.086734z" transform="matrix(1,0,0,-1,1.9316793,3.4722028)" fill="rgb(104,104,104)" fill-rule="nonzero" shaper:cutDepth="0.0000762" stroke-linecap="round" stroke-linejoin="round" /><path d="M0.5539332,2.6183038 L0.3152972,2.2049741 0.2287729,2.2549289 0.4208488,2.5876141 0.3437362,2.6321351 0.3902963,2.7127796 0.5539332,2.6183038z" transform="matrix(1,0,0,-1,1.9316793,3.4722028)" fill="rgb(104,104,104)" fill-rule="nonzero" shaper:cutDepth="0.0000762" stroke-linecap="round" stroke-linejoin="round" /><path d="M0.9896923,2.1619708 L0.9460311,2.0863473 0.6700608,2.2456788 0.6828638,2.2678544 0.8782877,2.3423371 0.8782877,2.3423371 0.9350593,2.3655395 0.9350593,2.3655395 0.9598823,2.3779479 0.9719691,2.384774 0.9837186,2.3921555 0.9948769,2.4004097 1.0053264,2.4095373 1.0147702,2.41971 1.0225738,2.4311734 1.0225738,2.4311734 1.0276324,2.4422721 1.0295269,2.4480673 1.0308215,2.4540372 1.0314832,2.4601121 1.0314477,2.466215 1.0306521,2.4722655 1.0291376,2.4781834 1.0269812,2.4838944 1.0242435,2.4893494 1.0209745,2.4945037 1.0172034,2.4993035 1.0083292,2.5076638 0.9982824,2.5145763 0.9982824,2.5145763 0.9898491,2.5188979 0.980938,2.5221185 0.9716373,2.5239307 0.9621736,2.5244095 0.9621736,2.5244095 0.9508513,2.5221024 0.9400872,2.5179125 0.930361,2.5116754 0.9220315,2.5036721 0.9146161,2.4947959 0.9078932,2.4853952 0.895938,2.4656228 0.8099359,2.5152198 0.8099359,2.5152198 0.8243641,2.5381599 0.8321522,2.5492561 0.8405292,2.5599098 0.8495857,2.5699885 0.8593603,2.5793722 0.8698585,2.5879394 0.8808194,2.5959059 0.8808194,2.5959059 0.8876381,2.6003439 0.8947701,2.6042395 0.9097921,2.6104829 0.9252778,2.6154504 0.93317,2.6174198 0.9411858,2.6187793 0.9574199,2.6196369 0.9736318,2.6184086 0.9896702,2.6157216 1.0054356,2.6117319 1.0054356,2.6117319 1.0163075,2.6079632 1.0268325,2.6032998 1.0473958,2.5929565 1.0473958,2.5929565 1.0595187,2.5856437 1.0707887,2.5770553 1.0817207,2.5680425 1.0918824,2.5581698 1.1009133,2.547251 1.1087282,2.5354292 1.1153763,2.5229185 1.1212344,2.510016 1.1212344,2.510016 1.1239927,2.5021762 1.1260689,2.4941388 1.1286913,2.4777257 1.1300683,2.4611702 1.1299686,2.4445648 1.1274221,2.4281531 1.1228501,2.4121858 1.116757,2.3967321 1.1094421,2.3818148 1.1094421,2.3818148 1.1031211,2.3717398 1.0962067,2.3620854 1.0884873,2.3530377 1.0801961,2.3445101 1.0713955,2.3365241 1.0621035,2.32911 1.0524323,2.3221957 1.0424098,2.3158116 1.0217354,2.3040845 1.0005425,2.2933219 0.9790014,2.2832761 0.9571793,2.2738522 0.9571793,2.2738522 0.9028423,2.2523099 0.9028423,2.2523099 0.8565565,2.2364523 0.8565565,2.2364523 0.8858312,2.2213621 0.9145986,2.2053262 0.9896923,2.1619708z" transform="matrix(1,0,0,-1,1.9316793,3.4722028)" fill="rgb(104,104,104)" fill-rule="nonzero" shaper:cutDepth="0.0000762" stroke-linecap="round" stroke-linejoin="round" /><path d="M1.9443115,1.4615765 L1.9031111,1.3902152 1.8513426,1.4201037 1.8009946,1.3328984 1.7247501,1.3769182 1.7750981,1.4641235 1.5996816,1.5654003 1.6432829,1.64092 1.9669282,1.7884892 2.0397546,1.7464428 1.8925431,1.491465 1.9443115,1.4615765z M1.8710829,1.663056 L1.8710829,1.663056 1.8208575,1.6358217 1.7226066,1.5879938 1.8167048,1.5336662 1.8167048,1.5336662 1.8704516,1.6253816 1.8704516,1.6253816 1.8840054,1.6464873 1.8982885,1.6671063 1.8982885,1.6671063 1.9077614,1.6799402 1.9179889,1.6921814 1.9179889,1.6921814 1.8948944,1.6770414 1.8710829,1.663056z" transform="matrix(1,0,0,-1,1.9316793,3.4722028)" fill="rgb(104,104,104)" fill-rule="nonzero" shaper:cutDepth="0.0000762" stroke-linecap="round" stroke-linejoin="round" /><path d="M2.1080606,0.3567536 L2.1080606,0.3567536 2.0815751,0.3485782 2.0556544,0.3387522 2.0556544,0.3387522 1.9633125,0.298388 1.9633125,0.298388 1.9173316,0.278362 1.8710725,0.2589871 1.8710725,0.2589871 1.8874971,0.2591246 1.8956978,0.2585874 1.9038319,0.2574244 1.911818,0.2555142 1.9195773,0.2528216 1.9270965,0.2495222 1.9343288,0.24563 1.9343288,0.24563 1.9456711,0.2383157 1.9562853,0.2299804 1.9659651,0.2205761 1.9747369,0.2103194 1.9823862,0.1992009 1.9888544,0.187356 1.993963,0.1748645 1.9978573,0.1619426 1.9978573,0.1619426 1.9999681,0.1487198 2.0004532,0.1353229 2.0000718,0.1219277 1.9985686,0.1086094 1.9956764,0.0955229 1.9914388,0.082806 1.9861133,0.0705073 1.9801499,0.0585037 1.9801499,0.0585037 1.9696126,0.0428897 1.9576408,0.0283446 1.9440852,0.0152633 1.9368735,0.009197 1.9291538,0.0038067 1.9291538,0.0038067 1.9200813,-0.0016582 1.910632,-0.0064187 1.8908969,-0.0140748 1.8908969,-0.0140748 1.8735297,-0.0181583 1.8558854,-0.020826 1.838069,-0.0217014 1.820273,-0.0204892 1.8028321,-0.0167542 1.7857681,-0.0115288 1.7690505,-0.0052832 1.7610204,-0.0013991 1.7532787,0.0030408 1.7532787,0.0030408 1.7413605,0.0104129 1.7302071,0.0189212 1.7195191,0.0280001 1.7095138,0.0378311 1.7005016,0.0485755 1.6925481,0.0601332 1.6856031,0.0723154 1.6793743,0.0848838 1.6793743,0.0848838 1.6737697,0.1020707 1.6699745,0.1197439 1.6683115,0.1377439 1.6687252,0.1558157 1.6713613,0.1736987 1.6759951,0.1911711 1.6824466,0.2080568 1.6907279,0.2241254 1.6907279,0.2241254 1.6982833,0.2361104 1.7067572,0.2474635 1.7161845,0.2580362 1.7262707,0.2679869 1.7262707,0.2679869 1.7454144,0.2839044 1.7656034,0.2984775 1.7864846,0.3120344 1.808104,0.3243859 1.8521071,0.3476948 1.8965958,0.3700632 1.8965958,0.3700632 1.9477134,0.3954082 1.9993801,0.4196138 2.1080606,0.3567536z M1.7702151,0.1743728 L1.7702151,0.1743728 1.767357,0.1681056 1.7652171,0.1615595 1.7633128,0.1549375 1.7620889,0.1481589 1.7616946,0.1412789 1.7620548,0.1343975 1.7645637,0.1208555 1.7644878,0.1207915 1.7644878,0.1207915 1.7698906,0.1078032 1.7734389,0.1017169 1.7775537,0.0960073 1.7822755,0.0907843 1.7874322,0.0859927 1.792857,0.0815042 1.7987284,0.0776317 1.7987284,0.0776317 1.8114894,0.0718916 1.8181632,0.0698032 1.8250285,0.0683878 1.8319965,0.0676247 1.8389949,0.0675583 1.8459588,0.0682383 1.852831,0.069607 1.8595529,0.0715886 1.8660446,0.0742035 1.8722241,0.0774889 1.8780327,0.0814089 1.8834089,0.08591 1.8882533,0.0909573 1.8965132,0.1022494 1.8965132,0.1022494 1.9021047,0.1149918 1.9040076,0.1216874 1.9051513,0.1285663 1.9055539,0.1355212 1.9052407,0.142478 1.9042382,0.1493706 1.9025708,0.1561337 1.9002634,0.162705 1.8973424,0.1690285 1.8938282,0.175043 1.8897239,0.180671 1.8850513,0.1858417 1.8798859,0.1905089 1.8685961,0.1986463 1.8685961,0.1986463 1.8557867,0.2044033 1.8490899,0.2065046 1.8422023,0.2079381 1.8352111,0.2087237 1.8281874,0.2088164 1.8211949,0.2081657 1.8142906,0.206828 1.8075328,0.2048783 1.8010004,0.2022961 1.794775,0.1990429 1.7889159,0.1951524 1.7834854,0.1906762 1.7785847,0.1856476 1.7702151,0.1743728z" transform="matrix(1,0,0,-1,1.9316793,3.4722028)" fill="rgb(104,104,104)" fill-rule="nonzero" shaper:cutDepth="0.0000762" stroke-linecap="round" stroke-linejoin="round" /><path d="M-0.7127518,0.5639319 L-0.9513879,0.1506022 -1.0379121,0.200557 -0.8458362,0.5332422 -0.9229488,0.5777632 -0.8763887,0.6584077 -0.7127518,0.5639319z" transform="matrix(1,0,0,-1,1.9316793,3.4722028)" fill="rgb(104,104,104)" fill-rule="nonzero" shaper:cutDepth="0.0000762" stroke-linecap="round" stroke-linejoin="round" /><path d="M-0.4362468,-0.2044038 L-0.479908,-0.2800273 -0.7558783,-0.1206958 -0.7430752,-0.0985202 -0.5476514,-0.0240375 -0.5476514,-0.0240375 -0.4908798,-0.0008351 -0.4908798,-0.0008351 -0.4660568,0.0115733 -0.4539699,0.0183994 -0.4422204,0.0257809 -0.4310622,0.0340351 -0.4206127,0.0431626 -0.4111689,0.0533354 -0.4033653,0.0647988 -0.4033653,0.0647988 -0.3983067,0.0758974 -0.3964122,0.0816927 -0.3951176,0.0876626 -0.3944559,0.0937375 -0.3944914,0.0998404 -0.3952869,0.1058909 -0.3968014,0.1118088 -0.3989579,0.1175198 -0.4016956,0.1229748 -0.4049646,0.1281291 -0.4087357,0.1329289 -0.4176098,0.1412892 -0.4276567,0.1482017 -0.4276567,0.1482017 -0.4360899,0.1525233 -0.4450011,0.1557439 -0.4543017,0.1575561 -0.4637654,0.1580349 -0.4637654,0.1580349 -0.4750878,0.1557278 -0.4858518,0.1515379 -0.4955781,0.1453007 -0.5039075,0.1372974 -0.511323,0.1284213 -0.5180459,0.1190206 -0.530001,0.0992482 -0.6160032,0.1488452 -0.6160032,0.1488452 -0.601575,0.1717853 -0.5937869,0.1828815 -0.5854098,0.1935352 -0.5763534,0.2036139 -0.5665788,0.2129976 -0.5560806,0.2215648 -0.5451196,0.2295313 -0.5451196,0.2295313 -0.538301,0.2339693 -0.531169,0.2378649 -0.516147,0.2441083 -0.5006613,0.2490758 -0.4927691,0.2510452 -0.4847533,0.2524047 -0.4685191,0.2532623 -0.4523072,0.252034 -0.4362689,0.249347 -0.4205034,0.2453572 -0.4205034,0.2453572 -0.4096316,0.2415886 -0.3991066,0.2369252 -0.3785432,0.2265819 -0.3785432,0.2265819 -0.3664204,0.2192691 -0.3551504,0.2106807 -0.3442184,0.2016679 -0.3340566,0.1917952 -0.3250258,0.1808763 -0.3172109,0.1690546 -0.3105627,0.1565439 -0.3047047,0.1436414 -0.3047047,0.1436414 -0.3019464,0.1358016 -0.2998701,0.1277642 -0.2972477,0.1113511 -0.2958707,0.0947956 -0.2959705,0.0781902 -0.298517,0.0617785 -0.3030889,0.0458112 -0.3091821,0.0303575 -0.316497,0.0154402 -0.316497,0.0154402 -0.3228179,0.0053652 -0.3297324,-0.0042892 -0.3374518,-0.0133369 -0.3457429,-0.0218645 -0.3545436,-0.0298505 -0.3638355,-0.0372646 -0.3735068,-0.0441789 -0.3835293,-0.050563 -0.4042036,-0.0622901 -0.4253966,-0.0730527 -0.4469376,-0.0830985 -0.4687598,-0.0925224 -0.4687598,-0.0925224 -0.5230967,-0.1140647 -0.5230967,-0.1140647 -0.5693826,-0.1299223 -0.5693826,-0.1299223 -0.5401079,-0.1450125 -0.5113405,-0.1610484 -0.4362468,-0.2044038z" transform="matrix(1,0,0,-1,1.9316793,3.4722028)" fill="rgb(104,104,104)" fill-rule="nonzero" shaper:cutDepth="0.0000762" stroke-linecap="round" stroke-linejoin="round" /><path d="M0.8273233,-0.5511219 L0.7861228,-0.6224832 0.7343544,-0.5925947 0.6840064,-0.6798 0.6077618,-0.6357802 0.6581098,-0.5485749 0.4826933,-0.4472981 0.5262946,-0.3717784 0.8499399,-0.2242092 0.9227664,-0.2662556 0.7755549,-0.5212334 0.8273233,-0.5511219z M0.7540946,-0.3496424 L0.7540946,-0.3496424 0.7038693,-0.3768767 0.6056183,-0.4247046 0.6997166,-0.4790323 0.6997166,-0.4790323 0.7534634,-0.3873168 0.7534634,-0.3873168 0.7670171,-0.3662112 0.7813002,-0.3455921 0.7813002,-0.3455921 0.7907731,-0.3327582 0.8010006,-0.320517 0.8010006,-0.320517 0.7779061,-0.335657 0.7540946,-0.3496424z" transform="matrix(1,0,0,-1,1.9316793,3.4722028)" fill="rgb(104,104,104)" fill-rule="nonzero" shaper:cutDepth="0.0000762" stroke-linecap="round" stroke-linejoin="round" /><path d="M-0.5965457,1.932605 L-0.5965457,1.932605 -0.5876023,1.9272677 -0.579112,1.9212183 -0.5708093,1.914918 -0.5628937,1.9081374 -0.5554896,1.9007986 -0.5487375,1.8928599 -0.5368252,1.8757562 -0.5368252,1.8757562 -0.5304116,1.8643202 -0.5253662,1.8522092 -0.52148,1.8396826 -0.5187381,1.8268541 -0.5168419,1.8138747 -0.5158129,1.8007971 -0.5155656,1.7876801 -0.5162529,1.7745809 -0.5178478,1.7615589 -0.5201242,1.7486386 -0.5263893,1.7231655 -0.5343691,1.6981747 -0.5437991,1.6736917 -0.5437991,1.6736917 -0.5558544,1.6476684 -0.5694343,1.6224067 -0.5694343,1.6224067 -0.5794944,1.6060452 -0.5904795,1.5902808 -0.6018436,1.5747862 -0.6137564,1.559709 -0.6265918,1.5454067 -0.6402998,1.5319383 -0.6548381,1.5193751 -0.6699508,1.5075053 -0.6699508,1.5075053 -0.6813472,1.5000623 -0.6932921,1.4935509 -0.7058037,1.4881988 -0.7186504,1.4837302 -0.7186504,1.4837302 -0.7326393,1.4794516 -0.7469655,1.4764575 -0.7615389,1.4751262 -0.776174,1.4751556 -0.776174,1.4751556 -0.7950505,1.4780026 -0.813512,1.4828597 -0.813512,1.4828597 -0.8235137,1.4862138 -0.8331848,1.490446 -0.8521017,1.4998027 -0.8521017,1.4998027 -0.8696802,1.5113612 -0.8779336,1.5178882 -0.8857278,1.5249576 -0.8929789,1.5325815 -0.8997222,1.5406596 -0.9058561,1.5492085 -0.9113678,1.5581715 -0.9162256,1.5675109 -0.9204019,1.5771765 -0.9238906,1.5871068 -0.926724,1.5972484 -0.9289179,1.607551 -0.930394,1.617969 -0.9315079,1.6389849 -0.9315079,1.6389849 -0.9296854,1.6605307 -0.9265978,1.6819245 -0.9218908,1.7030314 -0.9156025,1.7237163 -0.9077274,1.7438514 -0.8988717,1.7635732 -0.8896112,1.7831083 -0.8790782,1.8019746 -0.8790782,1.8019746 -0.8640641,1.8263693 -0.8478424,1.8499753 -0.8303516,1.8726571 -0.8209824,1.8834906 -0.8111319,1.8938887 -0.8007346,1.9037385 -0.7897636,1.9129466 -0.7783099,1.9215443 -0.7664334,1.9295507 -0.75409,1.9368119 -0.741217,1.9430875 -0.7278599,1.9482504 -0.7139926,1.9518141 -0.7139926,1.9518141 -0.6990168,1.9545527 -0.6838057,1.9553965 -0.668573,1.9552104 -0.653426,1.9535909 -0.6385702,1.9502212 -0.6241179,1.9453892 -0.6101159,1.939394 -0.5964477,1.9326619 -0.5965457,1.932605z M-0.6545817,1.674746 L-0.6545817,1.674746 -0.6427663,1.6962934 -0.6321742,1.7184645 -0.6232224,1.7413477 -0.619594,1.753085 -0.6165942,1.7650038 -0.6143332,1.7770776 -0.6130351,1.7893013 -0.6131433,1.8015792 -0.6150327,1.8137209 -0.6167645,1.8196167 -0.6190963,1.8253062 -0.6220127,1.8307184 -0.6254968,1.8357801 -0.6294898,1.8404568 -0.6339237,1.8447174 -0.643859,1.8519363 -0.6439499,1.8518754 -0.6439499,1.8518754 -0.6529155,1.8562929 -0.6625126,1.8591 -0.6724673,1.8598908 -0.6824248,1.8589869 -0.6824248,1.8589869 -0.6920707,1.8567251 -0.7013223,1.8531757 -0.7100862,1.8485511 -0.71838,1.8431241 -0.7262121,1.8370536 -0.7336051,1.8304504 -0.7474131,1.8162338 -0.7599869,1.800912 -0.7716918,1.7849174 -0.7825513,1.7683332 -0.792813,1.7513745 -0.792813,1.7513745 -0.8089618,1.7209421 -0.8161397,1.7052787 -0.8225752,1.6892979 -0.8279837,1.6729399 -0.8318763,1.6561626 -0.8337041,1.6390245 -0.8334031,1.6304272 -0.8322621,1.6218816 -0.8322621,1.6218816 -0.8284164,1.6085781 -0.8255404,1.6022663 -0.8218952,1.5963762 -0.8174077,1.591094 -0.8123763,1.5863289 -0.8069589,1.5820086 -0.8010357,1.5784181 -0.8010357,1.5784181 -0.7939806,1.5745991 -0.786408,1.5719342 -0.7785994,1.5700718 -0.7706119,1.5692381 -0.7626116,1.5698532 -0.7547574,1.5715641 -0.7397379,1.577206 -0.7397379,1.577206 -0.7259383,1.5860083 -0.7133046,1.5964259 -0.7016942,1.6079632 -0.6911769,1.6205116 -0.6718971,1.6469696 -0.662885,1.6606376 -0.6545817,1.674746z" transform="matrix(1,0,0,-1,1.9316793,3.4722028)" fill="rgb(104,104,104)" fill-rule="nonzero" shaper:cutDepth="0.0000762" stroke-linecap="round" stroke-linejoin="round" /><path d="M-0.3618449,2.0870668 L-0.4306362,1.9679168 -0.4306362,1.9679168 -0.4347572,1.9604222 -0.4381451,1.9525693 -0.4399474,1.9442289 -0.4397262,1.9356938 -0.4397262,1.9356938 -0.4385199,1.930589 -0.436479,1.9257452 -0.4340109,1.9211086 -0.4310193,1.9167898 -0.4235681,1.9094006 -0.4149373,1.9034171 -0.4149373,1.9034171 -0.4026141,1.8980616 -0.3960773,1.8964907 -0.3893758,1.8960585 -0.3827634,1.8972151 -0.3764428,1.8995089 -0.370534,1.9027241 -0.365546,1.9072165 -0.365546,1.9072165 -0.3596294,1.9143871 -0.3545593,1.9221956 -0.2849894,2.0426943 -0.2444887,2.0193112 -0.3064844,1.9120234 -0.3064844,1.9120234 -0.3160944,1.8962892 -0.3269558,1.8813918 -0.3330719,1.8744926 -0.339936,1.8683359 -0.3474192,1.8629504 -0.3554239,1.8583738 -0.3554239,1.8583738 -0.3656487,1.85467 -0.3762246,1.8521386 -0.3870415,1.8510583 -0.3978965,1.8516279 -0.4084887,1.854072 -0.418839,1.8574162 -0.4289876,1.8613267 -0.4385615,1.8664573 -0.4385615,1.8664573 -0.4495474,1.873488 -0.4596271,1.8817638 -0.4686729,1.8911589 -0.4764924,1.9015952 -0.4798658,1.9071796 -0.482694,1.9130577 -0.4849904,1.9191641 -0.4866222,1.9254802 -0.4881325,1.9384262 -0.4873461,1.951441 -0.4873461,1.951441 -0.4850204,1.9616065 -0.4813949,1.9713824 -0.4719155,1.9899512 -0.4023456,2.1104499 -0.3618449,2.0870668z" transform="matrix(1,0,0,-1,1.9316793,3.4722028)" fill="rgb(104,104,104)" fill-rule="nonzero" shaper:cutDepth="0.0000762" stroke-linecap="round" stroke-linejoin="round" /><path d="M-0.1601618,1.970572 L-0.1601618,1.970572 -0.1437568,1.9607816 -0.1437568,1.9607816 -0.1367365,1.9560993 -0.1300717,1.9509243 -0.123828,1.945248 -0.1180487,1.9390994 -0.1130707,1.9322867 -0.1091686,1.9248055 -0.106439,1.9168218 -0.1048234,1.9085391 -0.1048234,1.9085391 -0.1044047,1.9029807 -0.1047204,1.8974077 -0.1065857,1.8864138 -0.1103935,1.8759289 -0.1153812,1.8659489 -0.1153812,1.8659489 -0.1191164,1.8597992 -0.1235622,1.8541368 -0.1335174,1.8437499 -0.1393304,1.8395098 -0.1456124,1.835979 -0.1522138,1.8331198 -0.1590427,1.830831 -0.1590427,1.830831 -0.1677474,1.8294072 -0.1765648,1.8292434 -0.1853077,1.8303995 -0.1937427,1.8329773 -0.2098538,1.8401477 -0.2252471,1.8487507 -0.2395477,1.8570071 -0.2822632,1.7830216 -0.3227639,1.8064047 -0.2110039,1.9999787 -0.1601618,1.970572z M-0.1712412,1.9332257 L-0.189187,1.9435867 -0.2188301,1.8922434 -0.2017533,1.882331 -0.2017533,1.882331 -0.1944585,1.8783602 -0.1866538,1.8755267 -0.1866538,1.8755267 -0.1775141,1.8747515 -0.1729548,1.875341 -0.1686313,1.8768768 -0.1647675,1.8793619 -0.1613188,1.8823915 -0.1581762,1.8857408 -0.1557208,1.889611 -0.1557208,1.889611 -0.1520482,1.8982545 -0.1510055,1.9028443 -0.1508018,1.9075369 -0.1516571,1.9121597 -0.1532574,1.9165793 -0.1554558,1.9207306 -0.1584837,1.9243189 -0.1584837,1.9243189 -0.1646525,1.9290667 -0.1712412,1.9332257z" transform="matrix(1,0,0,-1,1.9316793,3.4722028)" fill="rgb(104,104,104)" fill-rule="nonzero" shaper:cutDepth="0.0000762" stroke-linecap="round" stroke-linejoin="round" /><path d="M-0.7654214,1.408613 L-0.7654214,1.408613 -0.7478151,1.398183 -0.7308557,1.3867311 -0.7227806,1.3804477 -0.7151837,1.3735935 -0.7081398,1.3661723 -0.7016268,1.3582809 -0.7016268,1.3582809 -0.6945495,1.3465931 -0.6891568,1.3340452 -0.6862253,1.3207029 -0.685404,1.3139176 -0.6853148,1.3070869 -0.6853148,1.3070869 -0.6863294,1.2910387 -0.6875407,1.2830856 -0.6893457,1.2752492 -0.6947946,1.2601246 -0.6980836,1.2527838 -0.7020079,1.2457687 -0.7020079,1.2457687 -0.709203,1.2347721 -0.717117,1.2242831 -0.7258901,1.2145012 -0.7356876,1.2057499 -0.7465698,1.198402 -0.7581602,1.1922136 -0.7703078,1.1872195 -0.7766352,1.1854499 -0.7831251,1.1844406 -0.7831251,1.1844406 -0.7948192,1.1839373 -0.8064914,1.1847775 -0.817979,1.1870133 -0.8291032,1.1906458 -0.8505011,1.2001454 -0.8709712,1.2115066 -0.9166626,1.2378865 -0.8049026,1.4314605 -0.7654214,1.408613z M-0.7350818,1.3317273 L-0.7350818,1.3317273 -0.7386867,1.3388472 -0.7432298,1.3454105 -0.7486102,1.3513038 -0.7546066,1.3565729 -0.767572,1.3658772 -0.7812932,1.3740336 -0.8551248,1.2461536 -0.8551248,1.2461536 -0.8424826,1.2388055 -0.8293007,1.2324761 -0.8224548,1.2299094 -0.8153543,1.2281658 -0.8081096,1.2271835 -0.8008001,1.2270138 -0.8008001,1.2270138 -0.7916809,1.2282666 -0.7829473,1.2312008 -0.774624,1.2351527 -0.766855,1.2400912 -0.7598927,1.2461183 -0.7537096,1.2529483 -0.7481599,1.2603022 -0.743153,1.2680356 -0.743153,1.2680356 -0.7392377,1.2753511 -0.7361582,1.2830689 -0.7335048,1.2909446 -0.7315248,1.2990098 -0.7307904,1.3072846 -0.7312691,1.3155753 -0.7327555,1.3237493 -0.7350818,1.3317273z" transform="matrix(1,0,0,-1,1.9316793,3.4722028)" fill="rgb(104,104,104)" fill-rule="nonzero" shaper:cutDepth="0.0000762" stroke-linecap="round" stroke-linejoin="round" /><path d="M-0.520974,1.274497 L-0.520974,1.274497 -0.5083325,1.2662631 -0.4966113,1.2567638 -0.4966113,1.2567638 -0.4897044,1.2500578 -0.4835024,1.2426888 -0.4776597,1.2350327 -0.4723395,1.2270093 -0.4678965,1.2184673 -0.4642981,1.2095343 -0.4614091,1.2003477 -0.4591084,1.1909966 -0.4591084,1.1909966 -0.4577988,1.1804445 -0.4577629,1.1698035 -0.4584037,1.1591831 -0.4598715,1.1486491 -0.4624601,1.1383317 -0.465995,1.1282981 -0.4702664,1.1185536 -0.4750996,1.1090761 -0.4750996,1.1090761 -0.481884,1.0984652 -0.4895767,1.0884873 -0.4983573,1.0794543 -0.507931,1.0712666 -0.507931,1.0712666 -0.515044,1.0663886 -0.5224909,1.0620388 -0.5302433,1.0582587 -0.5382751,1.0551169 -0.5465601,1.0527213 -0.5550279,1.0510855 -0.5636084,1.0502174 -0.5722325,1.0501247 -0.5808382,1.0506896 -0.5893791,1.0518898 -0.6061458,1.0558966 -0.6222582,1.0620382 -0.6375787,1.0699541 -0.6375787,1.0699541 -0.6462102,1.0751933 -0.6543675,1.0811562 -0.6698055,1.0941805 -0.6766314,1.1016275 -0.6827846,1.1096398 -0.6882569,1.1181324 -0.6931564,1.1269695 -0.6931564,1.1269695 -0.6957767,1.1330097 -0.6977093,1.1393075 -0.7001681,1.1522439 -0.7015048,1.1653488 -0.7013057,1.1785141 -0.6990942,1.1914957 -0.6953139,1.2041125 -0.6903758,1.2163247 -0.6845473,1.2281405 -0.6845473,1.2281405 -0.677515,1.2391147 -0.66966,1.2495191 -0.6607666,1.2590498 -0.6510513,1.2677454 -0.6510513,1.2677454 -0.6440558,1.2728729 -0.6367187,1.2774969 -0.6290683,1.2815833 -0.6211087,1.2850276 -0.6128825,1.2877753 -0.6044557,1.2898268 -0.5958879,1.2911727 -0.587236,1.2917779 -0.5785631,1.2917423 -0.5699163,1.2910693 -0.5613456,1.2897406 -0.5528909,1.2878071 -0.5364865,1.2821994 -0.5209466,1.2745075 -0.520974,1.274497z M-0.508025,1.1847971 L-0.508025,1.1847971 -0.5098097,1.1922736 -0.5126983,1.1994064 -0.5160541,1.2063308 -0.5200237,1.2129176 -0.5249063,1.21886 -0.5304634,1.2241771 -0.5365155,1.2289257 -0.5429205,1.233189 -0.5429619,1.2331908 -0.5429619,1.2331908 -0.5483235,1.2360354 -0.5539628,1.2382996 -0.5655543,1.2419275 -0.5715416,1.2429456 -0.5776066,1.2433618 -0.5897358,1.2427624 -0.5897358,1.2427624 -0.5978668,1.2412277 -0.6057,1.2385279 -0.6133062,1.2352496 -0.6205624,1.2312667 -0.6271023,1.2261896 -0.6329488,1.2203259 -0.6381109,1.2138493 -0.6427179,1.2069667 -0.6427179,1.2069667 -0.646156,1.2003003 -0.6490087,1.1933612 -0.6509875,1.1861251 -0.6522698,1.1787309 -0.6522698,1.1787309 -0.6528184,1.1678629 -0.6516849,1.1570427 -0.6488111,1.1465521 -0.6441727,1.1367121 -0.6380637,1.1277069 -0.6307798,1.1196248 -0.6224856,1.1125805 -0.6133964,1.1065917 -0.6133964,1.1065917 -0.6030273,1.1015028 -0.5920692,1.0978704 -0.580603,1.0965525 -0.574824,1.0965937 -0.569099,1.0973337 -0.569099,1.0973337 -0.561047,1.0991189 -0.5532675,1.1018547 -0.5458611,1.1054829 -0.5389716,1.1100156 -0.5325955,1.1152465 -0.526792,1.1211059 -0.5216667,1.1275669 -0.5171898,1.134493 -0.5171898,1.134493 -0.5140853,1.1402309 -0.5116496,1.1462878 -0.5079781,1.1588066 -0.5070798,1.1652721 -0.5068645,1.1717988 -0.508025,1.1847971z" transform="matrix(1,0,0,-1,1.9316793,3.4722028)" fill="rgb(104,104,104)" fill-rule="nonzero" shaper:cutDepth="0.0000762" stroke-linecap="round" stroke-linejoin="round" /><path d="M-0.3646022,1.177253 L-0.3974284,1.0593959 -0.3974284,1.0593959 -0.4066601,1.0299654 -0.4066601,1.0299654 -0.4159866,1.0061705 -0.4159866,1.0061705 -0.3998037,1.0260068 -0.3998037,1.0260068 -0.3745361,1.0550535 -0.298198,1.1389145 -0.2532855,1.1129842 -0.2924578,0.9873106 -0.2924578,0.9873106 -0.2995203,0.9655038 -0.2995203,0.9655038 -0.3083203,0.9432652 -0.3083203,0.9432652 -0.2865366,0.9694882 -0.2865366,0.9694882 -0.2649437,0.9928889 -0.1863302,1.0743276 -0.143622,1.04967 -0.3121425,0.8888667 -0.3559528,0.9141606 -0.3230474,1.0208635 -0.3230474,1.0208635 -0.3121447,1.0537407 -0.3121447,1.0537407 -0.301639,1.0820636 -0.301639,1.0820636 -0.3182502,1.0609331 -0.3182502,1.0609331 -0.338494,1.0379397 -0.4184996,0.950272 -0.463412,0.9762022 -0.408137,1.2023878 -0.3646022,1.177253z" transform="matrix(1,0,0,-1,1.9316793,3.4722028)" fill="rgb(104,104,104)" fill-rule="nonzero" shaper:cutDepth="0.0000762" stroke-linecap="round" stroke-linejoin="round" /><path d="M-0.0908389,1.0191957 L-0.0779922,0.888629 -0.0779922,0.888629 -0.0760995,0.8558919 -0.0762076,0.8394937 -0.0772219,0.8231281 -0.0772219,0.8231281 -0.0684234,0.8418594 -0.0590092,0.860289 -0.0590092,0.860289 -0.0444326,0.8873778 0.0002043,0.9666319 0.0389941,0.9442365 -0.0727659,0.7506625 -0.1096387,0.7719511 -0.1227649,0.9078347 -0.1227649,0.9078347 -0.1254337,0.9444548 -0.1254337,0.9444548 -0.1258273,0.9650387 -0.1258273,0.9650387 -0.1379159,0.9402341 -0.1379159,0.9402341 -0.1493956,0.9184174 -0.2009233,0.8246542 -0.2408277,0.847693 -0.1290677,1.041267 -0.0908389,1.0191957z" transform="matrix(1,0,0,-1,1.9316793,3.4722028)" fill="rgb(104,104,104)" fill-rule="nonzero" shaper:cutDepth="0.0000762" stroke-linecap="round" stroke-linejoin="round" /><path d="M0.367644,1.8028476 L0.307985,1.6995152 0.286354,1.7120039 0.3343729,1.7951752 0.3150948,1.8063054 0.3267348,1.8264666 0.367644,1.8028476z" transform="matrix(1,0,0,-1,1.9316793,3.4722028)" fill="rgb(104,104,104)" fill-rule="nonzero" shaper:cutDepth="0.0000762" stroke-linecap="round" stroke-linejoin="round" /><path d="M0.443646,1.7626446 L0.443646,1.7626446 0.452059,1.7565277 0.4555981,1.7527083 0.4585762,1.7484324 0.4585762,1.7484324 0.4614409,1.7425457 0.4630979,1.7362069 0.4638292,1.7296926 0.4637192,1.7231386 0.4627514,1.716653 0.4611852,1.7102847 0.4568327,1.6979163 0.4568327,1.6979163 0.4504239,1.685095 0.4504239,1.685095 0.4451626,1.6770635 0.4393434,1.6694206 0.4327075,1.6624779 0.4252948,1.6563697 0.4252948,1.6563697 0.4194595,1.6528811 0.4131199,1.6504259 0.4131199,1.6504259 0.4060411,1.6486077 0.398739,1.6482822 0.398739,1.6482822 0.3894045,1.6502083 0.3894045,1.6502083 0.379757,1.654444 0.379757,1.654444 0.3753624,1.6573337 0.3713505,1.6607327 0.3678519,1.6646583 0.3649405,1.6690362 0.362682,1.6737875 0.3611015,1.6788054 0.360184,1.6839856 0.3599055,1.6892396 0.3599055,1.6892396 0.361133,1.6999745 0.3638819,1.7104224 0.3680646,1.7203866 0.3730129,1.729987 0.3730129,1.729987 0.3808219,1.7419872 0.3899995,1.7529655 0.3953416,1.75773 0.4011741,1.761881 0.4074782,1.7652652 0.4142843,1.7674469 0.4142843,1.7674469 0.421831,1.7683425 0.429426,1.7678911 0.436753,1.7658406 0.4436705,1.7626588 0.443646,1.7626446z M0.429137,1.6981799 L0.429137,1.6981799 0.4347389,1.7091095 0.4369769,1.7148303 0.4386339,1.7207443 0.4395237,1.7268187 0.4390243,1.7329236 0.4380084,1.7358199 0.4364083,1.7384384 0.4318177,1.7424774 0.431795,1.7424622 0.431795,1.7424622 0.4271543,1.7442683 0.4221763,1.7442401 0.4221763,1.7442401 0.4174519,1.7427873 0.4131875,1.7402744 0.4059292,1.7335518 0.3998595,1.7257227 0.3945792,1.717337 0.3945792,1.717337 0.390542,1.7097289 0.3871387,1.7018178 0.3848134,1.693534 0.3843565,1.6892495 0.3847169,1.6849638 0.3847169,1.6849638 0.3856784,1.6816379 0.3873087,1.6785874 0.3896884,1.6760756 0.3925236,1.6740979 0.3925236,1.6740979 0.3961805,1.6724769 0.4001295,1.6718029 0.4040931,1.6723844 0.407848,1.6737948 0.407848,1.6737948 0.4144563,1.6785998 0.4199883,1.6846212 0.429137,1.6981799z" transform="matrix(1,0,0,-1,1.9316793,3.4722028)" fill="rgb(104,104,104)" fill-rule="nonzero" shaper:cutDepth="0.0000762" stroke-linecap="round" stroke-linejoin="round" /><path d="M0.5294889,1.7130832 L0.5294889,1.7130832 0.5379019,1.7069663 0.541441,1.7031469 0.544419,1.698871 0.544419,1.698871 0.5472838,1.6929843 0.5489408,1.6866455 0.5496721,1.6801312 0.5495621,1.6735772 0.5485943,1.6670916 0.547028,1.6607233 0.5426755,1.6483549 0.5426755,1.6483549 0.5362668,1.6355336 0.5362668,1.6355336 0.5310054,1.6275022 0.5251862,1.6198592 0.5185504,1.6129165 0.5111376,1.6068083 0.5111376,1.6068083 0.5053023,1.6033197 0.4989627,1.6008645 0.4989627,1.6008645 0.491884,1.5990463 0.4845818,1.5987208 0.4845818,1.5987208 0.4752473,1.6006469 0.4752473,1.6006469 0.4655999,1.6048826 0.4655999,1.6048826 0.4612053,1.6077723 0.4571934,1.6111713 0.4536948,1.6150969 0.4507834,1.6194748 0.4485248,1.6242261 0.4469443,1.6292441 0.4460268,1.6344242 0.4457484,1.6396782 0.4457484,1.6396782 0.4469759,1.6504131 0.4497247,1.660861 0.4539074,1.6708253 0.4588558,1.6804256 0.4588558,1.6804256 0.4666647,1.6924258 0.4758424,1.7034041 0.4811844,1.7081686 0.487017,1.7123196 0.4933211,1.7157038 0.5001272,1.7178855 0.5001272,1.7178855 0.5076739,1.7187811 0.5152688,1.7183297 0.5225958,1.7162793 0.5295134,1.7130974 0.5294889,1.7130832z M0.5149799,1.6486185 L0.5149799,1.6486185 0.5205818,1.6595481 0.5228197,1.6652689 0.5244768,1.6711829 0.5253666,1.6772573 0.5248672,1.6833622 0.5238512,1.6862585 0.5222511,1.688877 0.5176606,1.692916 0.5176379,1.6929008 0.5176379,1.6929008 0.5129972,1.694707 0.5080191,1.6946787 0.5080191,1.6946787 0.5032948,1.6932259 0.4990303,1.690713 0.4917721,1.6839904 0.4857024,1.6761613 0.4804221,1.6677756 0.4804221,1.6677756 0.4763849,1.6601675 0.4729815,1.6522564 0.4706563,1.6439726 0.4701993,1.6396881 0.4705598,1.6354024 0.4705598,1.6354024 0.4715212,1.6320765 0.4731515,1.629026 0.4755313,1.6265142 0.4783664,1.6245365 0.4783664,1.6245365 0.4820233,1.6229155 0.4859724,1.6222415 0.489936,1.622823 0.4936909,1.6242335 0.4936909,1.6242335 0.5002992,1.6290384 0.5058311,1.6350599 0.5149799,1.6486185z" transform="matrix(1,0,0,-1,1.9316793,3.4722028)" fill="rgb(104,104,104)" fill-rule="nonzero" shaper:cutDepth="0.0000762" stroke-linecap="round" stroke-linejoin="round" /><path d="M0.6153317,1.6635218 L0.6153317,1.6635218 0.6237447,1.6574049 0.6272838,1.6535855 0.6302619,1.6493096 0.6302619,1.6493096 0.6331266,1.6434229 0.6347836,1.6370841 0.6355149,1.6305698 0.635405,1.6240158 0.6344371,1.6175302 0.6328709,1.6111619 0.6285184,1.5987935 0.6285184,1.5987935 0.6221096,1.5859723 0.6221096,1.5859723 0.6168483,1.5779408 0.6110291,1.5702978 0.6043932,1.5633551 0.5969805,1.5572469 0.5969805,1.5572469 0.5911452,1.5537583 0.5848056,1.5513031 0.5848056,1.5513031 0.5777268,1.5494849 0.5704247,1.5491595 0.5704247,1.5491595 0.5610902,1.5510855 0.5610902,1.5510855 0.5514427,1.5553212 0.5514427,1.5553212 0.5470481,1.5582109 0.5430362,1.56161 0.5395376,1.5655355 0.5366262,1.5699135 0.5343677,1.5746647 0.5327872,1.5796827 0.5318697,1.5848628 0.5315912,1.5901168 0.5315912,1.5901168 0.5328187,1.6008517 0.5355676,1.6112997 0.5397503,1.6212639 0.5446986,1.6308642 0.5446986,1.6308642 0.5525076,1.6428644 0.5616852,1.6538427 0.5670273,1.6586072 0.5728598,1.6627582 0.5791639,1.6661424 0.58597,1.6683241 0.58597,1.6683241 0.5935167,1.6692197 0.6011117,1.6687683 0.6084387,1.6667179 0.6153562,1.663536 0.6153317,1.6635218z M0.6008228,1.5990571 L0.6008228,1.5990571 0.6064246,1.6099867 0.6086626,1.6157075 0.6103196,1.6216215 0.6112094,1.6276959 0.61071,1.6338008 0.6096941,1.6366971 0.608094,1.6393156 0.6035034,1.6433546 0.6034807,1.6433394 0.6034807,1.6433394 0.59884,1.6451456 0.593862,1.6451173 0.593862,1.6451173 0.5891376,1.6436645 0.5848732,1.6411516 0.5776149,1.634429 0.5715452,1.6265999 0.5662649,1.6182142 0.5662649,1.6182142 0.5622277,1.6106061 0.5588244,1.602695 0.5564991,1.5944112 0.5560422,1.5901267 0.5564026,1.585841 0.5564026,1.585841 0.5573641,1.5825151 0.5589944,1.5794646 0.5613741,1.5769528 0.5642093,1.5749751 0.5642093,1.5749751 0.5678662,1.5733541 0.5718152,1.5726801 0.5757788,1.5732616 0.5795337,1.5746721 0.5795337,1.5746721 0.586142,1.5794771 0.591674,1.5854985 0.6008228,1.5990571z" transform="matrix(1,0,0,-1,1.9316793,3.4722028)" fill="rgb(104,104,104)" fill-rule="nonzero" shaper:cutDepth="0.0000762" stroke-linecap="round" stroke-linejoin="round" /><path d="M0.7646724,1.5733265 L0.7532036,1.553462 0.7155302,1.5752127 0.704177,1.5555483 0.7418504,1.5337976 0.7303159,1.5138193 0.6926425,1.53557 0.6674685,1.4919673 0.6448056,1.5050517 0.7043362,1.6081616 0.7646724,1.5733265z" transform="matrix(1,0,0,-1,1.9316793,3.4722028)" fill="rgb(104,104,104)" fill-rule="nonzero" shaper:cutDepth="0.0000762" stroke-linecap="round" stroke-linejoin="round" /><path d="M0.8353457,1.5326237 L0.8237907,1.5126097 0.8015693,1.5254392 0.7535503,1.4422679 0.7319193,1.4547566 0.779771,1.5376382 0.7575496,1.5504678 0.7692719,1.5707714 0.8353457,1.5326237z" transform="matrix(1,0,0,-1,1.9316793,3.4722028)" fill="rgb(104,104,104)" fill-rule="nonzero" shaper:cutDepth="0.0000762" stroke-linecap="round" stroke-linejoin="round" /><path d="M0.9141445,1.4873686 L0.9141445,1.4873686 0.9229062,1.4821397 0.9229062,1.4821397 0.9302154,1.476875 0.9366367,1.4705594 0.9392954,1.4669209 0.9413795,1.4629252 0.9428373,1.4586612 0.9437002,1.4542375 0.9437002,1.4542375 0.9437552,1.4482923 0.942759,1.4424206 0.9407253,1.4368207 0.9380614,1.4314904 0.9380614,1.4314904 0.933692,1.4251817 0.928375,1.4196341 0.9219152,1.4154838 0.9147422,1.4127343 0.9147422,1.4127343 0.9100931,1.4119738 0.9053838,1.4118864 0.9007143,1.4125038 0.8962092,1.4138806 0.8876045,1.4177103 0.879383,1.422305 0.8717452,1.4267147 0.8489313,1.3871997 0.8273002,1.3996884 0.8869902,1.5030745 0.9141445,1.4873686z M0.9082271,1.4674224 L0.8986424,1.4729561 0.8828103,1.4455341 0.8919309,1.44024 0.8919309,1.44024 0.8958269,1.4381192 0.8999953,1.4366059 0.8999953,1.4366059 0.9048768,1.4361918 0.909621,1.4373269 0.9135265,1.4402723 0.9165164,1.4441281 0.9165164,1.4441281 0.9184779,1.4487446 0.9191436,1.4537022 0.9178321,1.4585316 0.9150408,1.4626653 0.9150408,1.4626653 0.9082271,1.4674224z" transform="matrix(1,0,0,-1,1.9316793,3.4722028)" fill="rgb(104,104,104)" fill-rule="nonzero" shaper:cutDepth="0.0000762" stroke-linecap="round" stroke-linejoin="round" /><path d="M1.0213911,1.4254066 L1.009751,1.4052455 0.973255,1.4263165 0.9615436,1.4060317 0.9971566,1.3854704 0.9860231,1.3661866 0.95041,1.3867479 0.936938,1.3634136 0.9732869,1.3424276 0.9615849,1.3221591 0.903605,1.3556339 0.963264,1.4589663 1.0213911,1.4254066z" transform="matrix(1,0,0,-1,1.9316793,3.4722028)" fill="rgb(104,104,104)" fill-rule="nonzero" shaper:cutDepth="0.0000762" stroke-linecap="round" stroke-linejoin="round" /><path d="M1.0631133,1.4013614 L1.0631133,1.4013614 1.071428,1.3963906 1.071428,1.3963906 1.07912,1.3909506 1.0858339,1.3843452 1.0885643,1.3805081 1.0905953,1.3762577 1.0919163,1.3717357 1.0925663,1.3670689 1.0925663,1.3670689 1.0923954,1.3618207 1.0914268,1.356663 1.0873207,1.3470187 1.0873207,1.3470187 1.0825204,1.3402711 1.0764614,1.3346254 1.0692671,1.3305423 1.0611981,1.3287173 1.0611981,1.3287173 1.054246,1.3292153 1.0475109,1.331087 1.0517657,1.2700932 1.0253872,1.2853229 1.0226293,1.3450572 0.997453,1.3014506 0.975822,1.3139393 1.035512,1.4173255 1.0631133,1.4013614z M1.0549517,1.3827109 L1.0471641,1.387207 1.0312499,1.3596426 1.0394634,1.3548917 1.0394634,1.3548917 1.0440632,1.3525304 1.0489548,1.3508551 1.0540918,1.3506191 1.0589583,1.3523227 1.0589583,1.3523227 1.0624993,1.3550387 1.0651734,1.3586132 1.0651734,1.3586132 1.0671462,1.3635904 1.0671587,1.3689354 1.0671587,1.3689354 1.0655023,1.37337 1.062583,1.3770919 1.0549517,1.3827109z" transform="matrix(1,0,0,-1,1.9316793,3.4722028)" fill="rgb(104,104,104)" fill-rule="nonzero" shaper:cutDepth="0.0000762" stroke-linecap="round" stroke-linejoin="round" /><path d="M1.1833656,1.2732858 L1.1932817,1.326237 1.1699864,1.3396866 1.0957294,1.2447107 1.1173605,1.232222 1.1501883,1.276473 1.1501883,1.276473 1.160506,1.2906284 1.160506,1.2906284 1.1676384,1.3022938 1.1676384,1.3022938 1.1648297,1.291283 1.1648297,1.291283 1.1615987,1.2758039 1.1505607,1.2130539 1.1647261,1.2048755 1.2100421,1.2434952 1.2100421,1.2434952 1.2335791,1.2652164 1.2335791,1.2652164 1.2275699,1.2544639 1.2275699,1.2544639 1.2204543,1.2390417 1.1979233,1.1857091 1.2195543,1.1732204 1.2647264,1.2849884 1.2416803,1.2982941 1.2037853,1.2660533 1.2037853,1.2660533 1.1890669,1.2532174 1.1890669,1.2532174 1.1760308,1.240816 1.1760308,1.240816 1.1787933,1.2510585 1.1787933,1.2510585 1.1833656,1.2732858z" transform="matrix(1,0,0,-1,1.9316793,3.4722028)" fill="rgb(104,104,104)" fill-rule="nonzero" shaper:cutDepth="0.0000762" stroke-linecap="round" stroke-linejoin="round" /><path d="M1.2562164,1.1520535 L1.3159064,1.2554396 1.2931683,1.2685675 1.2334783,1.1651814 1.2562164,1.1520535z" transform="matrix(1,0,0,-1,1.9316793,3.4722028)" fill="rgb(104,104,104)" fill-rule="nonzero" shaper:cutDepth="0.0000762" stroke-linecap="round" stroke-linejoin="round" /><path d="M1.3529731,1.2340392 L1.3598345,1.1643047 1.3598345,1.1643047 1.3608453,1.1468201 1.3602459,1.1293213 1.3602459,1.1293213 1.3699731,1.1491686 1.3699731,1.1491686 1.3777583,1.1636365 1.4015984,1.2059653 1.4223158,1.1940042 1.3626258,1.0906181 1.3429323,1.1019881 1.3359217,1.1745623 1.3359217,1.1745623 1.3344964,1.1941208 1.3344964,1.1941208 1.3342861,1.2051145 1.3342861,1.2051145 1.3278297,1.1918665 1.3278297,1.1918665 1.3216985,1.1802145 1.2941781,1.1301364 1.2728655,1.1424412 1.3325555,1.2458273 1.3529731,1.2340392z" transform="matrix(1,0,0,-1,1.9316793,3.4722028)" fill="rgb(104,104,104)" fill-rule="nonzero" shaper:cutDepth="0.0000762" stroke-linecap="round" stroke-linejoin="round" /><path d="M0.4844957,0.9766528 a0.079375,0.079375 0 1,1 0.15875,0 a0.079375,0.079375 0 1,1 -0.15875,0z" transform="matrix(1,0,0,-1,1.9316793,3.4722028)" fill="rgb(255,255,255)" stroke="rgb(0,0,0)" stroke-width="0.0010cm" stroke-linecap="round" stroke-linejoin="round" shaper:cutDepth="0.0015875" /></svg>