<?xml version="1.0" encoding="utf-8"?>
<!-- Generator: Fusion 360, Shaper Origin Export Add-In, Version 1.6.10  -->
<svg xmlns="http://www.w3.org/2000/svg" xmlns:xlink="http://www.w3.org/1999/xlink" xmlns:shaper="http://www.shapertools.com/namespaces/shaper" shaper:fusionaddin="version:1.6.10" width="4.9911cm" height="4.9892816cm" version="1.1" x="0cm" y="0cm" viewBox="0 0 4.9911 4.9892816" enable-background="new 0 0 4.9911 4.9892816" xml:space="preserve"><path d="M-0.09525,-3.645133 L-0.09525,-3.8040066 A2.49555,2.49555 267.8126069 1,0 0.09525,-3.8040066 L0.09525,-3.645133 -0.09525,-3.645133z" transform="matrix(1,0,0,-1,2.49555,1.185275)" fill="rgb(0,0,0)" shaper:cutDepth="0.0015875" stroke-linecap="round" stroke-linejoin="round" /><path d="M0.0254,0.900795 L0.0254,0.583295 -0.0254,0.583295 -0.0254,0.900795 0.0254,0.900795z" transform="matrix(1,0,0,-1,2.49555,1.185275)" fill="rgb(104,104,104)" fill-rule="nonzero" shaper:cutDepth="0.0000762" stroke-linecap="round" stroke-linejoin="round" /><path d="M1.3201834,0.4635885 L1.2790853,0.493448 1.0924635,0.2365851 1.1335616,0.2067256 1.3201834,0.4635885z" transform="matrix(1,0,0,-1,2.49555,1.185275)" fill="rgb(104,104,104)" fill-rule="nonzero" shaper:cutDepth="0.0000762" stroke-linecap="round" stroke-linejoin="round" /><path d="M2.1107016,-0.6511736 L2.0950035,-0.60286 1.7930431,-0.7009729 1.8087411,-0.7492865 2.1107016,-0.6511736z" transform="matrix(1,0,0,-1,2.49555,1.185275)" fill="rgb(104,104,104)" fill-rule="nonzero" shaper:cutDepth="0.0000762" stroke-linecap="round" stroke-linejoin="round" /><path d="M2.0950035,-2.01769 L2.1107016,-1.9693764 1.8087411,-1.8712635 1.7930431,-1.9195771 2.0950035,-2.01769z" transform="matrix(1,0,0,-1,2.49555,1.185275)" fill="rgb(104,104,104)" fill-rule="nonzero" shaper:cutDepth="0.0000762" stroke-linecap="round" stroke-linejoin="round" /><path d="M1.2790853,-3.113998 L1.3201834,-3.0841385 1.1335616,-2.8272756 1.0924635,-2.8571351 1.2790853,-3.113998z" transform="matrix(1,0,0,-1,2.49555,1.185275)" fill="rgb(104,104,104)" fill-rule="nonzero" shaper:cutDepth="0.0000762" stroke-linecap="round" stroke-linejoin="round" /><path d="M-0.0254,-3.203845 L-0.0254,-3.521345 0.0254,-3.521345 0.0254,-3.203845 -0.0254,-3.203845z" transform="matrix(1,0,0,-1,2.49555,1.185275)" fill="rgb(104,104,104)" fill-rule="nonzero" shaper:cutDepth="0.0000762" stroke-linecap="round" stroke-linejoin="round" /><path d="M-1.3201834,-3.0841385 L-1.2790853,-3.113998 -1.0924635,-2.8571351 -1.1335616,-2.8272756 -1.3201834,-3.0841385z" transform="matrix(1,0,0,-1,2.49555,1.185275)" fill="rgb(104,104,104)" fill-rule="nonzero" shaper:cutDepth="0.0000762" stroke-linecap="round" stroke-linejoin="round" /><path d="M-2.1107016,-1.9693764 L-2.0950035,-2.01769 -1.7930431,-1.9195771 -1.8087411,-1.8712635 -2.1107016,-1.9693764z" transform="matrix(1,0,0,-1,2.49555,1.185275)" fill="rgb(104,104,104)" fill-rule="nonzero" shaper:cutDepth="0.0000762" stroke-linecap="round" stroke-linejoin="round" /><path d="M-2.0950035,-0.60286 L-2.1107016,-0.6511736 -1.8087411,-0.7492865 -1.7930431,-0.7009729 -2.0950035,-0.60286z" transform="matrix(1,0,0,-1,2.49555,1.185275)" fill="rgb(104,104,104)" fill-rule="nonzero" shaper:cutDepth="0.0000762" stroke-linecap="round" stroke-linejoin="round" /><path d="M-1.2790853,0.493448 L-1.3201834,0.4635885 -1.1335616,0.2067256 -1.0924635,0.2365851 -1.2790853,0.493448z" transform="matrix(1,0,0,-1,2.49555,1.185275)" fill="rgb(104,104,104)" fill-rule="nonzero" shaper:cutDepth="0.0000762" stroke-linecap="round" stroke-linejoin="round" /><path d="M-0.5972237,0.4866926 L-0.5730669,0.4945416 -0.6295799,0.6684708 -0.6537368,0.6606218 -0.5972237,0.4866926z" transform="matrix(1,0,0,-1,2.49555,1.185275)" fill="rgb(104,104,104)" fill-rule="nonzero" shaper:cutDepth="0.0000762" stroke-linecap="round" stroke-linejoin="round" /><path d="M0.5730669,0.4945416 L0.5972237,0.4866926 0.6537368,0.6606218 0.6295799,0.6684708 0.5730669,0.4945416z" transform="matrix(1,0,0,-1,2.49555,1.185275)" fill="rgb(104,104,104)" fill-rule="nonzero" shaper:cutDepth="0.0000762" stroke-linecap="round" stroke-linejoin="round" /><path d="M1.5244654,-0.186988 L1.5393952,-0.207537 1.6873482,-0.1000428 1.6724185,-0.0794938 1.5244654,-0.186988z" transform="matrix(1,0,0,-1,2.49555,1.185275)" fill="rgb(104,104,104)" fill-rule="nonzero" shaper:cutDepth="0.0000762" stroke-linecap="round" stroke-linejoin="round" /><path d="M2.07645,-1.297575 L2.07645,-1.322975 1.89357,-1.322975 1.89357,-1.297575 2.07645,-1.297575z" transform="matrix(1,0,0,-1,2.49555,1.185275)" fill="rgb(104,104,104)" fill-rule="nonzero" shaper:cutDepth="0.0000762" stroke-linecap="round" stroke-linejoin="round" /><path d="M1.5393952,-2.413013 L1.5244654,-2.433562 1.6724185,-2.5410562 1.6873482,-2.5205072 1.5393952,-2.413013z" transform="matrix(1,0,0,-1,2.49555,1.185275)" fill="rgb(104,104,104)" fill-rule="nonzero" shaper:cutDepth="0.0000762" stroke-linecap="round" stroke-linejoin="round" /><path d="M0.5972237,-3.1072426 L0.5730669,-3.1150916 0.6295799,-3.2890208 0.6537368,-3.2811718 0.5972237,-3.1072426z" transform="matrix(1,0,0,-1,2.49555,1.185275)" fill="rgb(104,104,104)" fill-rule="nonzero" shaper:cutDepth="0.0000762" stroke-linecap="round" stroke-linejoin="round" /><path d="M-0.5730669,-3.1150916 L-0.5972237,-3.1072426 -0.6537368,-3.2811718 -0.6295799,-3.2890208 -0.5730669,-3.1150916z" transform="matrix(1,0,0,-1,2.49555,1.185275)" fill="rgb(104,104,104)" fill-rule="nonzero" shaper:cutDepth="0.0000762" stroke-linecap="round" stroke-linejoin="round" /><path d="M-1.5244654,-2.433562 L-1.5393952,-2.413013 -1.6873482,-2.5205072 -1.6724185,-2.5410562 -1.5244654,-2.433562z" transform="matrix(1,0,0,-1,2.49555,1.185275)" fill="rgb(104,104,104)" fill-rule="nonzero" shaper:cutDepth="0.0000762" stroke-linecap="round" stroke-linejoin="round" /><path d="M-1.89357,-1.322975 L-1.89357,-1.297575 -2.07645,-1.297575 -2.07645,-1.322975 -1.89357,-1.322975z" transform="matrix(1,0,0,-1,2.49555,1.185275)" fill="rgb(104,104,104)" fill-rule="nonzero" shaper:cutDepth="0.0000762" stroke-linecap="round" stroke-linejoin="round" /><path d="M-1.5393952,-0.207537 L-1.5244654,-0.186988 -1.6724185,-0.0794938 -1.6873482,-0.1000428 -1.5393952,-0.207537z" transform="matrix(1,0,0,-1,2.49555,1.185275)" fill="rgb(104,104,104)" fill-rule="nonzero" shaper:cutDepth="0.0000762" stroke-linecap="round" stroke-linejoin="round" /><path d="M0.1294991,0.4043579 L0.1294991,0.4043579 0.1345958,0.3840746 0.1387667,0.3635806 0.1387667,0.3635806 0.1415351,0.3464412 0.143398,0.3291793 0.1444351,0.3118486 0.1447357,0.2944895 0.1442809,0.2771333 0.1431189,0.2598105 0.1389611,0.2253405 0.1358306,0.2082629 0.1317606,0.1913845 0.1266107,0.1748036 0.1202981,0.1586305 0.1128701,0.1429373 0.1042353,0.1278762 0.0943985,0.1135694 0.0834358,0.100107 0.0834358,0.100107 0.0753201,0.0916851 0.06655,0.0839507 0.0571159,0.0770369 0.0470138,0.0711461 0.0362819,0.0665005 0.0250802,0.0631437 0.0135577,0.0611437 0.0018813,0.0604968 0.0018813,0.0604968 -0.0076722,0.060828 -0.0171687,0.0619331 -0.0265392,0.0638129 -0.0357168,0.0664944 -0.0445982,0.0700231 -0.0530879,0.0744174 -0.0611443,0.0795622 -0.0687003,0.0854159 -0.0757435,0.0918823 -0.0822346,0.0988954 -0.0881692,0.1063934 -0.0936151,0.1142477 -0.1031792,0.1307949 -0.1112408,0.1481335 -0.1183129,0.1658966 -0.124444,0.184008 -0.1296019,0.2024182 -0.1337941,0.2210744 -0.1370059,0.2399214 -0.1392611,0.2589094 -0.1406845,0.2779758 -0.1411805,0.2970899 -0.1408552,0.3162075 -0.1396812,0.3352915 -0.1376144,0.3542998 -0.134618,0.3731836 -0.1306727,0.3918923 -0.1257639,0.4103716 -0.1198685,0.4285598 -0.1130036,0.4464055 -0.1051425,0.4638345 -0.0958328,0.4805273 -0.0905313,0.4884814 -0.0846799,0.4960415 -0.0782796,0.5031423 -0.0712994,0.509672 -0.0638178,0.5156238 -0.0558141,0.5208488 -0.047359,0.5253074 -0.0385128,0.5289298 -0.029354,0.5316645 -0.0199801,0.5335352 -0.0104867,0.5346639 -0.0009333,0.5349962 -0.0009333,0.5349962 0.0114317,0.5343426 0.0236537,0.5323634 0.0355335,0.5288751 0.0468674,0.5238909 0.0574849,0.5175228 0.0672235,0.5098756 0.0760544,0.5011969 0.0839946,0.4916951 0.0982926,0.4714803 0.1048383,0.46097 0.1108548,0.4501485 0.1164094,0.439082 0.1213869,0.4277453 0.1257645,0.4161628 0.1294991,0.4043579z M0.0465715,0.158527 L0.0465715,0.158527 0.0516486,0.1673462 0.0561858,0.1764533 0.0635961,0.1954019 0.0693519,0.2149192 0.0735899,0.234823 0.07664,0.2549476 0.078531,0.2752111 0.079114,0.2955564 0.078605,0.3159028 0.0768815,0.3361827 0.0738185,0.3563041 0.0693583,0.3761617 0.0634761,0.3956473 0.0559582,0.4145543 0.0513606,0.423632 0.0461395,0.4323667 0.0403083,0.4407068 0.0337625,0.4484955 0.0265666,0.455692 0.0187688,0.4622287 0.0187688,0.4622287 0.0110736,0.4667576 0.0069124,0.4683935 0.0025677,0.4694368 0.0007142,0.4694368 0.0007142,0.4694368 -0.0066079,0.4675396 -0.0136626,0.4648138 -0.0203185,0.4612187 -0.0265207,0.4568919 -0.0321249,0.4518135 -0.0371879,0.4461907 -0.0416415,0.4400801 -0.0455916,0.4336256 -0.0525723,0.4202025 -0.0584798,0.4062756 -0.063294,0.3919319 -0.0671198,0.3772946 -0.0700868,0.3624591 -0.0724139,0.3475099 -0.0740359,0.3324681 -0.0749185,0.3173648 -0.074997,0.2871102 -0.0742403,0.272 -0.0725339,0.2569692 -0.0725339,0.2569692 -0.0701196,0.2436678 -0.0668277,0.2305521 -0.0589664,0.2046822 -0.0543118,0.1919874 -0.0489657,0.1795681 -0.0428565,0.1675057 -0.035897,0.1559124 -0.0278809,0.1450306 -0.0232752,0.1400828 -0.0182182,0.1355961 -0.012691,0.1317078 -0.0066808,0.128617 -0.0002743,0.1264609 0.0064025,0.1254475 0.0130852,0.1263781 0.0193278,0.1289626 0.0249286,0.1327505 0.0300027,0.1372167 0.038874,0.1474162 0.0465715,0.158527z" transform="matrix(1,0,0,-1,2.49555,1.185275)" fill="rgb(104,104,104)" fill-rule="nonzero" shaper:cutDepth="0.0000762" stroke-linecap="round" stroke-linejoin="round" /><path d="M1.0514887,-0.1136731 L1.0514887,-0.1136731 1.0522439,-0.1072201 1.0522439,0.301514 1.0522439,0.301514 1.0494075,0.3140684 1.0464387,0.3197756 1.0422212,0.3246485 1.0422212,0.3246485 1.0368622,0.3290437 1.0306838,0.3321763 1.0239618,0.3338567 1.0170349,0.3340587 1.0101968,0.3329334 1.0037367,0.3304291 0.9979599,0.3266052 0.9931374,0.321628 0.9931374,0.321628 0.990043,0.3172064 0.9881605,0.3121556 0.9864098,0.301514 0.9864098,-0.1072201 0.9864098,-0.1072201 0.9876246,-0.1145371 0.9884735,-0.1181556 0.9899109,-0.1215677 0.9899109,-0.1215677 0.9949024,-0.1291753 0.9980708,-0.1324504 1.0017232,-0.1351727 1.00576,-0.1372845 1.0100642,-0.1387782 1.014537,-0.1396438 1.0190866,-0.1398969 1.0190866,-0.1398969 1.0248063,-0.139564 1.0304265,-0.1384682 1.03578,-0.136429 1.0406007,-0.1333399 1.0446508,-0.1292942 1.0477335,-0.1244642 1.0499938,-0.1192047 1.0514887,-0.1136731z" transform="matrix(1,0,0,-1,2.49555,1.185275)" fill="rgb(104,104,104)" fill-rule="nonzero" shaper:cutDepth="0.0000762" stroke-linecap="round" stroke-linejoin="round" /><path d="M1.4502063,-0.975741 L1.4502063,-0.975741 1.4507887,-0.9821883 1.4525432,-0.9884184 1.4556141,-0.9941159 1.4597193,-0.9991212 1.464726,-1.0032242 1.4704321,-1.006279 1.4766426,-1.0080997 1.483089,-1.0086923 1.6943896,-1.0086923 1.6943896,-1.0086923 1.7008649,-1.0083217 1.7072061,-1.0069941 1.7131846,-1.004481 1.7182983,-1.0005049 1.7222272,-0.9953577 1.7247343,-0.9893763 1.7261058,-0.9830414 1.7265957,-0.9765744 1.7263739,-0.970094 1.7252361,-0.9637111 1.7228874,-0.9576696 1.7191176,-0.9524007 1.7141019,-0.9482991 1.7082662,-0.9454748 1.701996,-0.9438336 1.6955566,-0.9430642 1.5236604,-0.9430642 1.5236604,-0.9430642 1.5301133,-0.9234307 1.5301133,-0.9234307 1.5349218,-0.9115027 1.5404203,-0.8998765 1.546653,-0.8886268 1.5534367,-0.8777005 1.5683693,-0.8567627 1.5848263,-0.837002 1.5848263,-0.837002 1.5923964,-0.8292266 1.6004754,-0.8219813 1.6090022,-0.8152691 1.6179508,-0.8091298 1.6358384,-0.7968381 1.6529258,-0.7834561 1.6529258,-0.7834561 1.6631761,-0.774569 1.6729103,-0.7651197 1.6916436,-0.7454934 1.6916436,-0.7454934 1.7016105,-0.7334836 1.7101924,-0.7204508 1.7171199,-0.7064671 1.7221873,-0.6917081 1.7251194,-0.6763809 1.726115,-0.6608077 1.7252228,-0.6452273 1.7226171,-0.6298397 1.7184691,-0.6148018 1.7126017,-0.6003521 1.7048687,-0.5868084 1.6952771,-0.5745097 1.6898652,-0.5688896 1.6840224,-0.5637168 1.6713441,-0.5546353 1.6576268,-0.5472133 1.6431777,-0.5413323 1.6431777,-0.5413323 1.6301769,-0.537582 1.6168853,-0.535055 1.6033964,-0.5339992 1.5898741,-0.5344512 1.5765013,-0.5365062 1.5634586,-0.5401041 1.5508986,-0.5451357 1.5388978,-0.5513853 1.5275316,-0.5587263 1.5169878,-0.5672051 1.5074163,-0.5767682 1.499052,-0.5874025 1.4919628,-0.598926 1.4863148,-0.6112215 1.4820267,-0.6240533 1.4789701,-0.6372345 1.4789701,-0.6372345 1.4776755,-0.6546183 1.4774574,-0.6633363 1.4778031,-0.6720393 1.4778031,-0.6720393 1.4794249,-0.6791014 1.4825938,-0.6856154 1.4872615,-0.6911526 1.4931185,-0.6954223 1.4997108,-0.6984259 1.5068083,-0.6998889 1.5140499,-0.6997882 1.5211204,-0.6981945 1.5211204,-0.6981945 1.5261176,-0.6961354 1.5305756,-0.6930709 1.5344703,-0.6893251 1.5376535,-0.6849512 1.5402197,-0.6801917 1.5420144,-0.6750917 1.5428765,-0.6697533 1.542676,-0.6643507 1.542676,-0.6643507 1.5424014,-0.6613301 1.5424014,-0.6613301 1.5425016,-0.6532619 1.5436538,-0.6452795 1.5458043,-0.637503 1.5491945,-0.6301839 1.553666,-0.6234713 1.5591524,-0.6175552 1.5653409,-0.6123817 1.5721281,-0.6080184 1.5793198,-0.6043616 1.5868971,-0.6015917 1.5947816,-0.5998884 1.6028298,-0.5993395 1.6108553,-0.6001558 1.6186928,-0.6020628 1.6261519,-0.6051367 1.6332236,-0.6090199 1.6332236,-0.6090199 1.6435913,-0.6170746 1.6480869,-0.6218661 1.651985,-0.6271551 1.6551616,-0.6329059 1.6575909,-0.6390104 1.6592613,-0.6453647 1.6602035,-0.6518672 1.6604775,-0.6584319 1.6601385,-0.6649935 1.6590767,-0.6714773 1.6572953,-0.6778013 1.6548085,-0.6838829 1.651719,-0.6896814 1.6439328,-0.7002539 1.6439328,-0.7002539 1.6300584,-0.7146071 1.6156199,-0.7283921 1.6003159,-0.7412092 1.5841398,-0.7529074 1.5841398,-0.7529074 1.5720942,-0.7614767 1.560474,-0.7706146 1.5493664,-0.7803692 1.5387652,-0.7906717 1.5286848,-0.8014846 1.5191049,-0.8127431 1.5101014,-0.824468 1.5015984,-0.8365606 1.4936754,-0.8490408 1.486288,-0.8618456 1.4795005,-0.8749778 1.4733162,-0.8884052 1.4678559,-0.9021422 1.4630248,-0.9161134 1.4589376,-0.9303199 1.4555609,-0.9447118 1.4555609,-0.9447118 1.4502063,-0.975741z" transform="matrix(1,0,0,-1,2.49555,1.185275)" fill="rgb(104,104,104)" fill-rule="nonzero" shaper:cutDepth="0.0000762" stroke-linecap="round" stroke-linejoin="round" /><path d="M1.6678629,-1.8347561 L1.6678629,-1.8347561 1.6640525,-1.8268428 1.6596985,-1.8192157 1.6547398,-1.8119664 1.6491289,-1.8052099 1.6428821,-1.7990368 1.6360888,-1.7934704 1.6288078,-1.7885592 1.6211393,-1.7842779 1.613122,-1.7806924 1.6047702,-1.7779753 1.5962051,-1.7760338 1.5874863,-1.77498 1.5787044,-1.7748478 1.5699437,-1.7754688 1.561274,-1.7768716 1.5527392,-1.7789448 1.5527392,-1.7789448 1.5512975,-1.7794253 1.5512975,-1.7794253 1.546904,-1.7807983 1.546904,-1.7807983 1.541575,-1.7814753 1.5362078,-1.7812893 1.530968,-1.7801086 1.5260348,-1.7779837 1.5260348,-1.7779837 1.5206422,-1.7747156 1.5160735,-1.7703657 1.5125231,-1.7651553 1.5098338,-1.7594486 1.5098338,-1.7594486 1.5082548,-1.7527896 1.5082548,-1.7527896 1.5076352,-1.7460953 1.5084796,-1.7394339 1.5110318,-1.7332178 1.5151884,-1.7279388 1.6038824,-1.6183756 1.4943192,-1.6183756 1.4943192,-1.6183756 1.4871838,-1.6177297 1.480382,-1.6154916 1.4742248,-1.6118335 1.4690389,-1.606891 1.4649187,-1.6010308 1.4622968,-1.594366 1.4612957,-1.5872762 1.461917,-1.5801383 1.461917,-1.5801383 1.4631701,-1.5744169 1.4651983,-1.5689252 1.4681834,-1.5638878 1.4721641,-1.5595967 1.4770612,-1.5563912 1.4825234,-1.5542797 1.4882646,-1.5531389 1.4941132,-1.5528161 1.672737,-1.5528161 1.672737,-1.5528161 1.6786784,-1.5531543 1.6844924,-1.5544066 1.6899835,-1.5566946 1.6948647,-1.5600905 1.6987829,-1.5645662 1.7017647,-1.569713 1.7038092,-1.5752993 1.7051392,-1.5810994 1.7051392,-1.5810994 1.7055607,-1.5878104 1.7047525,-1.5944811 1.7022493,-1.6007199 1.6982057,-1.6060875 1.6120516,-1.7124242 1.6120516,-1.7124242 1.6261246,-1.7159253 1.6261246,-1.7159253 1.6287332,-1.7166118 1.6287332,-1.7166118 1.6397853,-1.7207397 1.6505244,-1.7256216 1.660933,-1.7311763 1.6708566,-1.7375553 1.6802679,-1.7446687 1.6891687,-1.7524118 1.6973808,-1.7608813 1.7049713,-1.7699126 1.7118938,-1.7794654 1.7181383,-1.7894743 1.7235631,-1.7999506 1.7282717,-1.8107672 1.7321216,-1.8219186 1.7351647,-1.8333171 1.7374761,-1.8448854 1.7389829,-1.8565864 1.7389829,-1.8565864 1.7396675,-1.8750551 1.7391042,-1.8842826 1.7379202,-1.8934512 1.7361711,-1.9025289 1.7338322,-1.911473 1.7275814,-1.9288642 1.7194307,-1.9454527 1.7095532,-1.9610722 1.6979463,-1.9754544 1.6847505,-1.9883918 1.6847505,-1.9883918 1.6738365,-1.9972124 1.662223,-2.0050873 1.6499565,-2.0119027 1.6370786,-2.0174753 1.6237417,-2.0218373 1.6100619,-2.0249618 1.5961408,-2.0267229 1.5821208,-2.0273156 1.5821208,-2.0273156 1.5682368,-2.0268141 1.5544394,-2.0251954 1.5408333,-2.0223871 1.5275269,-2.0183954 1.5146213,-2.013253 1.5022555,-2.0069219 1.490546,-1.999446 1.4794849,-1.9910402 1.4691513,-1.9817547 1.4596617,-1.9716084 1.4511298,-1.9606446 1.4436163,-1.9489593 1.4371369,-1.9366707 1.431818,-1.9238364 1.4275958,-1.9106014 1.4243662,-1.8970891 1.4243662,-1.8970891 1.4238857,-1.8864486 1.4238857,-1.8864486 1.4254154,-1.8806954 1.4276773,-1.8751945 1.4307625,-1.8701027 1.434842,-1.8657749 1.4397656,-1.862436 1.4452715,-1.8601795 1.4511006,-1.8589877 1.4570429,-1.8586459 1.4570429,-1.8586459 1.4616344,-1.8591787 1.4660913,-1.8604188 1.474617,-1.8640005 1.474617,-1.8640005 1.4796897,-1.8681497 1.4837389,-1.8733248 1.4871249,-1.8789506 1.4882662,-1.8820353 1.4887586,-1.8852815 1.4887586,-1.8852815 1.4906439,-1.8936654 1.4931546,-1.9019051 1.4965053,-1.9098305 1.5008408,-1.9172718 1.5008408,-1.9172718 1.5100791,-1.9295304 1.5152338,-1.935223 1.5208182,-1.940491 1.5267829,-1.9453279 1.5331631,-1.9495978 1.5398861,-1.9533073 1.5469338,-1.9563534 1.5542317,-1.9587397 1.5617102,-1.9604781 1.5693198,-1.9615005 1.5769901,-1.9618563 1.5923124,-1.9609623 1.6073835,-1.9580491 1.6073835,-1.9580491 1.6176917,-1.9545434 1.6273333,-1.9494698 1.6363212,-1.9433228 1.6446171,-1.9362633 1.6522321,-1.928474 1.6588967,-1.9198629 1.6644214,-1.9104728 1.6683435,-1.9003156 1.6683435,-1.9003156 1.6724624,-1.8866545 1.6724624,-1.8866545 1.673099,-1.860337 1.6729977,-1.8537592 1.6719308,-1.8472598 1.6701944,-1.8409134 1.6678629,-1.8347561z" transform="matrix(1,0,0,-1,2.49555,1.185275)" fill="rgb(104,104,104)" fill-rule="nonzero" shaper:cutDepth="0.0000762" stroke-linecap="round" stroke-linejoin="round" /><path d="M0.9811762,-2.6807215 L0.9811762,-2.6807215 0.9796925,-2.6882791 0.9799207,-2.6959737 0.9820303,-2.7033784 0.9858406,-2.7100707 0.9909423,-2.7158404 0.9972957,-2.7201878 1.0045425,-2.7227828 1.0122054,-2.7235583 1.1704406,-2.7235583 1.1704406,-2.7235583 1.1706465,-2.7759372 1.1706465,-2.7759372 1.1714337,-2.784328 1.1726232,-2.7883762 1.1743788,-2.792213 1.1767061,-2.795732 1.1795189,-2.7988766 1.1863679,-2.8037785 1.1941402,-2.8070689 1.2024813,-2.808343 1.2108746,-2.8075023 1.2188379,-2.804701 1.2188379,-2.804701 1.222688,-2.8024974 1.2262048,-2.7997948 1.2292768,-2.7965953 1.2318825,-2.7930067 1.2337742,-2.7889949 1.2350301,-2.78474 1.236,-2.7759372 1.236,-2.7235583 1.2959989,-2.7235583 1.2959989,-2.7235583 1.3024251,-2.723103 1.3086652,-2.721546 1.3144315,-2.7186658 1.3192422,-2.7144007 1.3230581,-2.7092119 1.3259204,-2.7034472 1.3276581,-2.6972501 1.3281951,-2.6908363 1.32763,-2.6844248 1.3258616,-2.6782367 1.3229797,-2.6724812 1.3191824,-2.6672787 1.3143939,-2.6629889 1.3086521,-2.6600577 1.3024262,-2.6584497 1.2959989,-2.6579988 1.236,-2.6579988 1.236,-2.5618907 1.236,-2.5618907 1.2353037,-2.5545756 1.2330339,-2.5475923 1.2291909,-2.5413335 1.2239865,-2.5361475 1.2239865,-2.5361475 1.2202074,-2.5334349 1.2160983,-2.5312585 1.2117261,-2.5296719 1.2071611,-2.5287868 1.202511,-2.5286811 1.1978958,-2.5292424 1.1891113,-2.5322674 1.1812401,-2.5371929 1.1778929,-2.5404212 1.1750638,-2.5441122 1.1729288,-2.5482435 1.1714901,-2.5526667 1.1704406,-2.5618907 1.1704406,-2.6579988 1.0571703,-2.6579988 1.1475119,-2.3769513 1.1475119,-2.3769513 1.1489629,-2.3716607 1.1496791,-2.3662255 1.1494991,-2.3607431 1.1482279,-2.3554103 1.1458666,-2.350463 1.1425355,-2.3461043 1.138554,-2.3423368 1.1340568,-2.3391945 1.1340568,-2.3391945 1.1274608,-2.3360956 1.1204007,-2.3342943 1.1131154,-2.3342379 1.1059761,-2.335698 1.0992959,-2.3386086 1.0934699,-2.3429826 1.0889204,-2.3486717 1.0856595,-2.3551896 1.0856595,-2.3551896 1.0851789,-2.3568372 0.9811762,-2.6807215z" transform="matrix(1,0,0,-1,2.49555,1.185275)" fill="rgb(104,104,104)" fill-rule="nonzero" shaper:cutDepth="0.0000762" stroke-linecap="round" stroke-linejoin="round" /><path d="M-1.1334853,-2.6562041 L-1.1334853,-2.6562041 -1.1270901,-2.6248518 -1.1232204,-2.6093276 -1.1183826,-2.5940771 -1.1183826,-2.5940771 -1.1105743,-2.5716862 -1.1012891,-2.5498673 -1.1012891,-2.5498673 -1.0886778,-2.5239433 -1.0744356,-2.498879 -1.0585201,-2.4748433 -1.0408273,-2.4520844 -1.0215146,-2.4306762 -1.0009954,-2.4104211 -0.9793117,-2.3914176 -0.956715,-2.373509 -0.9543809,-2.37193 -0.9543809,-2.37193 -0.9492588,-2.3689316 -0.9438031,-2.3666012 -0.9380172,-2.3652798 -0.9320868,-2.365254 -0.9263009,-2.3665584 -0.9209527,-2.3691306 -0.9161175,-2.372568 -0.9118512,-2.3766945 -0.908057,-2.3812591 -0.9049555,-2.3863177 -0.9027888,-2.3918404 -0.9017982,-2.3976891 -0.9023039,-2.4035991 -0.9040146,-2.4092803 -0.906707,-2.4145668 -0.9101026,-2.4194349 -0.9101026,-2.4194349 -0.9131887,-2.4227351 -0.9168301,-2.4254073 -0.9168301,-2.4254073 -0.9431304,-2.4464992 -0.968111,-2.4691385 -0.9798958,-2.4811944 -0.9909573,-2.4939171 -1.0013088,-2.507224 -1.0108788,-2.5211035 -1.0108788,-2.5211035 -1.0167139,-2.5298906 -1.0178809,-2.5320187 -1.0192539,-2.5343527 -1.0176063,-2.5338722 -1.0160274,-2.5335976 -1.0160274,-2.5335976 -0.9895437,-2.5309964 -0.976239,-2.5307069 -0.9629412,-2.5312257 -0.9497665,-2.533101 -0.936843,-2.5362772 -0.9242505,-2.5405829 -0.9119561,-2.5456798 -0.9119561,-2.5456798 -0.9018045,-2.5508685 -0.8920841,-2.5568258 -0.8829199,-2.563608 -0.8743368,-2.5711109 -0.8664397,-2.5793349 -0.8591512,-2.5881008 -0.8525732,-2.5974134 -0.8465787,-2.6071113 -0.8411979,-2.6171626 -0.8364896,-2.6275465 -0.8325386,-2.6382401 -0.829319,-2.6491781 -0.8270616,-2.6603519 -0.8255865,-2.6716575 -0.8251138,-2.6830481 -0.8255274,-2.6944414 -0.8255274,-2.6944414 -0.8262826,-2.701169 -0.8262826,-2.701169 -0.8311167,-2.7236714 -0.8379511,-2.7456485 -0.8424262,-2.7562536 -0.8479561,-2.7663493 -0.8543996,-2.7758872 -0.8617053,-2.784783 -0.8617053,-2.784783 -0.8763024,-2.7993444 -0.8841241,-2.8060661 -0.8923584,-2.8122733 -0.9009723,-2.8179433 -0.9099305,-2.8230517 -0.9192238,-2.8275204 -0.9287902,-2.8313713 -0.9386277,-2.8344638 -0.9486547,-2.8368719 -0.9588217,-2.8385963 -0.9690798,-2.8396532 -0.9793839,-2.8400564 -0.9896932,-2.8397849 -1.0101923,-2.8375738 -1.0101923,-2.8375738 -1.0249629,-2.8344848 -1.0393784,-2.8300327 -1.0532674,-2.8241326 -1.0664148,-2.8167297 -1.0786345,-2.8078792 -1.089833,-2.7977659 -1.0997871,-2.7864267 -1.1085541,-2.7741458 -1.1162398,-2.7611596 -1.1227583,-2.7475531 -1.1281824,-2.7334707 -1.1322038,-2.7189302 -1.1348518,-2.7040743 -1.1359402,-2.6890265 -1.1356936,-2.6739394 -1.1339658,-2.65895 -1.1334853,-2.6562041z M-0.9326193,-2.7608933 L-0.9326193,-2.7608933 -0.9233588,-2.7543566 -0.9149271,-2.7467835 -0.9075816,-2.7381519 -0.9014912,-2.728594 -0.8968438,-2.7182569 -0.893659,-2.7073801 -0.8918872,-2.6961843 -0.8912927,-2.684865 -0.8918283,-2.6735427 -0.8936044,-2.6623476 -0.8968023,-2.6514748 -0.9014027,-2.6411165 -0.9075051,-2.6315665 -0.9148986,-2.6229756 -0.9233345,-2.6154078 -0.9326193,-2.6089052 -0.9326193,-2.6089052 -0.9422566,-2.6036024 -0.9523823,-2.5993091 -0.9629575,-2.5962854 -0.973834,-2.5946504 -0.9848319,-2.5945675 -0.995752,-2.5958776 -1.006403,-2.5986219 -1.0167139,-2.6024522 -1.0167139,-2.6024522 -1.0248972,-2.6065291 -1.0326822,-2.6113226 -1.0398914,-2.6169442 -1.0465424,-2.6232169 -1.0523767,-2.6302555 -1.0574735,-2.6378448 -1.0617485,-2.6459264 -1.0652554,-2.6543695 -1.0679972,-2.6630913 -1.0698707,-2.6720397 -1.0708031,-2.6811343 -1.0707305,-2.6902761 -1.0696437,-2.6993532 -1.067581,-2.7082604 -1.0646838,-2.7169306 -1.0609236,-2.7252646 -1.0609236,-2.7252646 -1.0560705,-2.7348169 -1.049657,-2.7434077 -1.0420988,-2.7510042 -1.03368,-2.7576398 -1.024653,-2.7634195 -1.015098,-2.7682732 -1.0049984,-2.771866 -0.9944718,-2.7738679 -0.9944718,-2.7738679 -0.9864439,-2.7744614 -0.9783957,-2.7744549 -0.9703638,-2.7739129 -0.9624098,-2.772682 -0.954605,-2.7707148 -0.9469814,-2.7681319 -0.9396452,-2.7648207 -0.9326193,-2.7608933z" transform="matrix(1,0,0,-1,2.49555,1.185275)" fill="rgb(104,104,104)" fill-rule="nonzero" shaper:cutDepth="0.0000762" stroke-linecap="round" stroke-linejoin="round" /><path d="M-1.6283556,-2.0856571 L-1.6283556,-2.0856571 -1.6322483,-2.0899091 -1.6366973,-2.0935699 -1.641712,-2.096411 -1.647218,-2.0981044 -1.6529681,-2.0984796 -1.6586844,-2.0977624 -1.6641833,-2.0960321 -1.6693908,-2.0935608 -1.6743013,-2.090543 -1.678783,-2.0869162 -1.6825157,-2.0825287 -1.6853061,-2.0774873 -1.6868429,-2.0719348 -1.6871669,-2.0661815 -1.6864282,-2.0604668 -1.6849221,-2.0549025 -1.5683567,-1.6885933 -1.7219924,-1.6885933 -1.7219924,-1.6885933 -1.7283928,-1.6881405 -1.7346128,-1.6866022 -1.7403442,-1.6837141 -1.7451412,-1.6794685 -1.748912,-1.6742794 -1.7517022,-1.6685081 -1.753447,-1.6623387 -1.7539825,-1.6559504 -1.7534109,-1.6495655 -1.7516521,-1.6434003 -1.7488446,-1.6376364 -1.7450943,-1.6324334 -1.7403236,-1.6281558 -1.7346151,-1.6252265 -1.7283922,-1.6236937 -1.7219924,-1.6232398 -1.5236664,-1.6232398 -1.5236664,-1.6232398 -1.5159637,-1.6240382 -1.5086657,-1.6266216 -1.502255,-1.6309619 -1.4969577,-1.6366115 -1.4928734,-1.6431931 -1.4905957,-1.6505905 -1.4903978,-1.658328 -1.4921567,-1.6658706 -1.6225891,-2.0750165 -1.6225891,-2.0750165 -1.6250358,-2.0805705 -1.6283556,-2.0856571z" transform="matrix(1,0,0,-1,2.49555,1.185275)" fill="rgb(104,104,104)" fill-rule="nonzero" shaper:cutDepth="0.0000762" stroke-linecap="round" stroke-linejoin="round" /><path d="M-1.1228856,-0.2193546 L-1.1228856,-0.2193546 -1.1241723,-0.2145927 -1.1245548,-0.209667 -1.1235721,-0.1998584 -1.1235721,-0.1998584 -1.1223204,-0.1952171 -1.1200558,-0.1909648 -1.113824,-0.1836573 -1.113824,-0.1836573 -1.1082634,-0.1797444 -1.1082634,-0.1797444 -1.0642733,-0.1539239 -1.0431623,-0.1396221 -1.0232764,-0.1236584 -1.0232764,-0.1236584 -1.0117925,-0.1129556 -1.000946,-0.1016059 -0.9907449,-0.0896741 -0.9810575,-0.0773206 -0.9810575,-0.0773206 -0.9904837,-0.0785656 -0.9999718,-0.0791819 -1.0094796,-0.079158 -1.0189605,-0.0784363 -1.0283818,-0.0771555 -1.0376892,-0.0752122 -1.0558526,-0.0696001 -1.0732766,-0.0620042 -1.0897514,-0.0525244 -1.1048963,-0.0410377 -1.1119068,-0.0346146 -1.1184921,-0.0277563 -1.1184921,-0.0277563 -1.1280853,-0.0161705 -1.1365564,-0.0037434 -1.143874,0.0093988 -1.149776,0.0232324 -1.1542404,0.0375955 -1.1571034,0.0523613 -1.1585969,0.0673277 -1.1585854,0.082369 -1.1572698,0.0973527 -1.1546242,0.1121591 -1.1506124,0.1266551 -1.1451849,0.1406824 -1.1384283,0.15412 -1.1304102,0.1668458 -1.1212197,0.1787518 -1.111078,0.18986 -1.111078,0.18986 -1.0980373,0.2016332 -1.0838061,0.2119319 -1.0684126,0.2203963 -1.0520825,0.2268682 -1.0436458,0.2293253 -1.0350557,0.2311779 -1.0176214,0.2333331 -1.0000523,0.2334053 -0.9825615,0.2317347 -0.9652925,0.2284864 -0.9484454,0.2235036 -0.9322289,0.2167522 -0.9169089,0.2081588 -0.9027776,0.1977262 -0.8961902,0.1919103 -0.890025,0.1856484 -0.8787219,0.1721991 -0.8689542,0.1575951 -0.8689542,0.1575951 -0.8604914,0.1417187 -0.8538539,0.1249997 -0.8493467,0.1075837 -0.8480465,0.0986801 -0.8473555,0.089708 -0.8474756,0.0717119 -0.8494105,0.0538188 -0.8528873,0.0361612 -0.8578331,0.0188562 -0.8578331,0.0188562 -0.8764908,-0.0242915 -0.896911,-0.0666329 -0.9083271,-0.0871801 -0.9210507,-0.1069448 -0.9350697,-0.1258121 -0.9502342,-0.1437725 -0.9502342,-0.1437725 -0.9637895,-0.1580152 -0.9781737,-0.1714195 -0.9933113,-0.1839676 -1.0092213,-0.1955198 -1.0422376,-0.2168806 -1.0760672,-0.2369287 -1.0760672,-0.2369287 -1.0826664,-0.2395518 -1.0896381,-0.2408828 -1.0967356,-0.2407216 -1.103639,-0.2390658 -1.1099984,-0.2359108 -1.1154584,-0.2313736 -1.1197705,-0.225737 -1.1228856,-0.2193546z M-1.0848542,0.0392448 L-1.0848542,0.0392448 -1.0792443,0.0278099 -1.0757544,0.0224761 -1.0717194,0.0175396 -1.0625718,0.0086716 -1.0522001,0.0012698 -1.0409829,-0.0047942 -1.0291048,-0.0094251 -1.0166973,-0.0123676 -1.0039861,-0.01334 -1.0039861,-0.01334 -0.9938608,-0.0128648 -0.9838219,-0.0114783 -0.9740183,-0.0088991 -0.9646504,-0.0050336 -0.9646504,-0.0050336 -0.9535569,0.0014724 -0.9433155,0.0092495 -0.9342099,0.0183307 -0.9264035,0.0285503 -0.9201141,0.0397673 -0.9155397,0.0517861 -0.9129146,0.0643748 -0.9120656,0.0772075 -0.9120656,0.0772075 -0.9129361,0.0901073 -0.915529,0.1027749 -0.9200583,0.1148804 -0.9264306,0.1261242 -0.9343424,0.1363568 -0.9435267,0.145465 -0.9538884,0.1532068 -0.9652706,0.1593501 -0.9774002,0.1638419 -0.9900306,0.1666284 -1.0029256,0.167649 -1.015841,0.1669546 -1.0285244,0.1644671 -1.0406286,0.15993 -1.0518967,0.153593 -1.0622002,0.1457875 -1.0622002,0.1457875 -1.0724879,0.1354064 -1.076923,0.1295918 -1.080863,0.1234315 -1.0871011,0.1102142 -1.0912804,0.0962047 -1.0933901,0.0817416 -1.0935876,0.0744313 -1.0931515,0.0671318 -1.0920765,0.0598979 -1.0902634,0.052814 -1.0878985,0.0458938 -1.0848542,0.0392448z" transform="matrix(1,0,0,-1,2.49555,1.185275)" fill="rgb(104,104,104)" fill-rule="nonzero" shaper:cutDepth="0.0000762" stroke-linecap="round" stroke-linejoin="round" /><path d="M-0.2307997,-1.7226103 L-0.0672355,-2.1188503 -0.1608619,-2.1188503 -0.1918827,-2.035294 -0.357139,-2.035294 -0.3864678,-2.1188503 -0.4789661,-2.1188503 -0.3227341,-1.7226103 -0.2307997,-1.7226103z M-0.3024839,-1.8851536 L-0.3024839,-1.8851536 -0.3300663,-1.9628349 -0.2207227,-1.9628349 -0.2207227,-1.9628349 -0.2500164,-1.8822976 -0.2500164,-1.8822976 -0.2653887,-1.8370474 -0.2717833,-1.8140262 -0.2759646,-1.7904998 -0.2759646,-1.7904998 -0.2798813,-1.8147344 -0.2798813,-1.8147344 -0.2847971,-1.8325637 -0.2904198,-1.850184 -0.3024839,-1.8851536z" transform="matrix(1,0,0,-1,2.49555,1.185275)" fill="rgb(104,104,104)" fill-rule="nonzero" shaper:cutDepth="0.0000762" stroke-linecap="round" stroke-linejoin="round" /><path d="M0.0540179,-1.7226103 L0.0540179,-2.041169 0.1899454,-2.041169 0.1899454,-2.1188503 -0.0331289,-2.1188503 -0.0331289,-1.7226103 0.0540179,-1.7226103z" transform="matrix(1,0,0,-1,2.49555,1.185275)" fill="rgb(104,104,104)" fill-rule="nonzero" shaper:cutDepth="0.0000762" stroke-linecap="round" stroke-linejoin="round" /><path d="M0.468677,-1.7233801 L0.468677,-1.8000861 0.3835108,-1.8000861 0.3835108,-2.1188503 0.3006071,-2.1188503 0.3006071,-1.8011964 0.2154409,-1.8011964 0.2154409,-1.7233801 0.468677,-1.7233801z" transform="matrix(1,0,0,-1,2.49555,1.185275)" fill="rgb(104,104,104)" fill-rule="nonzero" shaper:cutDepth="0.0000762" stroke-linecap="round" stroke-linejoin="round" /><path d="M-0.2129092,-2.30802 L-0.2129092,-2.30802 -0.2119549,-2.3115021 -0.2099441,-2.3144864 -0.2068222,-2.3162665 -0.2032457,-2.3167508 -0.1996842,-2.3161866 -0.1966477,-2.3142723 -0.1947061,-2.3112403 -0.1937764,-2.3077498 -0.1937764,-2.2089956 -0.1937764,-2.2089956 -0.1947006,-2.2054828 -0.1966266,-2.2024127 -0.1996796,-2.2004823 -0.2032597,-2.1999113 -0.2068531,-2.2003973 -0.2099706,-2.2022192 -0.2119776,-2.2052313 -0.2129092,-2.2087423 -0.2129092,-2.30802z" transform="matrix(1,0,0,-1,2.49555,1.185275)" fill="rgb(104,104,104)" fill-rule="nonzero" shaper:cutDepth="0.0000762" stroke-linecap="round" stroke-linejoin="round" /><path d="M-0.1156073,-2.3130185 L-0.1156073,-2.3130185 -0.1137927,-2.315218 -0.1112064,-2.3164125 -0.1083511,-2.3165548 -0.1055385,-2.3160108 -0.1028855,-2.3149355 -0.1006624,-2.3131397 -0.0993042,-2.3106309 -0.0989062,-2.3078005 -0.0989062,-2.2094685 -0.0989062,-2.2094685 -0.0995706,-2.2058366 -0.1013794,-2.2026331 -0.1044584,-2.2006416 -0.1080966,-2.2000466 -0.1117607,-2.2004772 -0.1149709,-2.2022568 -0.117032,-2.2053 -0.1179376,-2.2088774 -0.1179376,-2.2791942 -0.1616745,-2.2051792 -0.1616745,-2.2051792 -0.1635453,-2.2027785 -0.1659368,-2.2009034 -0.168824,-2.199992 -0.1718416,-2.2002919 -0.1746542,-2.2014427 -0.1770191,-2.2033464 -0.1786198,-2.205924 -0.1794057,-2.2088605 -0.1794057,-2.30802 -0.1794057,-2.30802 -0.17847,-2.3114909 -0.1764681,-2.3144587 -0.1733743,-2.3162474 -0.169814,-2.3167164 -0.1662695,-2.3161541 -0.1632451,-2.3142431 -0.1613155,-2.311225 -0.1603911,-2.3077498 -0.1603911,-2.2376695 -0.1156073,-2.3130185z" transform="matrix(1,0,0,-1,2.49555,1.185275)" fill="rgb(104,104,104)" fill-rule="nonzero" shaper:cutDepth="0.0000762" stroke-linecap="round" stroke-linejoin="round" /><path d="M0.0345842,-2.2087423 L0.0345842,-2.2087423 0.0355342,-2.2051929 0.0375788,-2.202157 0.0407668,-2.2003656 0.0444163,-2.1999447 0.04804,-2.2005417 0.0511026,-2.2025378 0.0529119,-2.2057211 0.0535988,-2.2093334 0.0535988,-2.2447957 0.0953937,-2.2447957 0.0953937,-2.2087423 0.0953937,-2.2087423 0.0963272,-2.2052304 0.0983234,-2.2022106 0.1014495,-2.2003972 0.1050447,-2.1999113 0.1086263,-2.2004833 0.1116737,-2.2024252 0.1136002,-2.2054929 0.1145096,-2.2090125 0.1145096,-2.3077498 0.1145096,-2.3077498 0.1135875,-2.3112544 0.1116367,-2.3142922 0.1085789,-2.3161944 0.1050055,-2.3167508 0.1014208,-2.3162527 0.0983165,-2.3144269 0.0963232,-2.3114201 0.0953937,-2.3079187 0.0953937,-2.2628478 0.0535988,-2.2628478 0.0535988,-2.3074797 0.0535988,-2.3074797 0.0529007,-2.3110671 0.0510482,-2.3141986 0.0479751,-2.3161351 0.0443696,-2.3167 0.0407477,-2.3162397 0.037582,-2.3144555 0.035538,-2.3114449 0.0345842,-2.3079187 0.0345842,-2.2087423z" transform="matrix(1,0,0,-1,2.49555,1.185275)" fill="rgb(104,104,104)" fill-rule="nonzero" shaper:cutDepth="0.0000762" stroke-linecap="round" stroke-linejoin="round" /><path d="M0.1683955,-2.2703962 L0.1689697,-2.2704468 0.1812633,-2.2704468 0.1812633,-2.2861516 0.1807567,-2.2871986 0.1807567,-2.2871986 0.1768887,-2.2933883 0.1743178,-2.2959861 0.1712777,-2.2980125 0.1677718,-2.2989559 0.1642713,-2.2980163 0.1613817,-2.2957857 0.1590233,-2.2929908 0.1590233,-2.2929908 0.154794,-2.2866169 0.1516601,-2.2796392 0.1496618,-2.2722551 0.1487076,-2.2646637 0.1485658,-2.2570111 0.1491405,-2.2493797 0.1504647,-2.241842 0.1526063,-2.2344948 0.1526063,-2.2344948 0.1547242,-2.2293122 0.1575725,-2.224496 0.1614803,-2.220508 0.1665392,-2.2181863 0.1693234,-2.2179898 0.1720282,-2.2186727 0.1744121,-2.2201266 0.1764162,-2.2220772 0.1795467,-2.2267087 0.1818881,-2.2317929 0.1818881,-2.2317929 0.1848313,-2.2352076 0.1889871,-2.2369464 0.193472,-2.2366363 0.1973226,-2.2342921 0.1973226,-2.2342921 0.1989196,-2.2322526 0.1998646,-2.2298439 0.199977,-2.2272599 0.1993997,-2.2247342 0.198758,-2.2235521 0.1984372,-2.2227753 0.1979812,-2.2218465 0.1979812,-2.2218465 0.1943455,-2.2159184 0.1897842,-2.2106686 0.1844196,-2.2062404 0.1784815,-2.2026165 0.1719614,-2.2002248 0.1650333,-2.1998269 0.1582937,-2.2014998 0.1521335,-2.2047233 0.1521335,-2.2047233 0.1471753,-2.2086662 0.1428346,-2.2132803 0.1392205,-2.2184832 0.1363356,-2.2241243 0.1322564,-2.2361155 0.1301299,-2.248602 0.1298194,-2.2612701 0.1311243,-2.2738747 0.1341461,-2.2861768 0.1364359,-2.2920861 0.1394008,-2.2976853 0.1394008,-2.2976853 0.1446603,-2.3048703 0.1512291,-2.3108661 0.1550336,-2.3131819 0.1591423,-2.3149017 0.1634657,-2.3159734 0.1678992,-2.3163966 0.1723459,-2.3161584 0.1766976,-2.3152175 0.1808245,-2.3135427 0.1846333,-2.3112345 0.1911087,-2.3051377 0.1962081,-2.2978373 0.1967316,-2.296976 0.1972551,-2.2960979 0.1976435,-2.2952536 0.1980488,-2.294443 0.1985385,-2.2935818 0.1989607,-2.2927037 0.1993491,-2.2918087 0.2002272,-2.2899173 0.2002272,-2.2615306 0.2002272,-2.2615306 0.1993528,-2.257933 0.1970507,-2.2550148 0.1938565,-2.2531245 0.1901795,-2.2525637 0.1695438,-2.2525637 0.1689021,-2.2525806 0.168328,-2.2527157 0.168328,-2.2527157 0.1651646,-2.2535374 0.1625208,-2.2554376 0.1610288,-2.2583327 0.1606276,-2.2615785 0.1610453,-2.2648221 0.1625729,-2.2676981 0.1652266,-2.2695841 0.1683955,-2.2703962z" transform="matrix(1,0,0,-1,2.49555,1.185275)" fill="rgb(104,104,104)" fill-rule="nonzero" shaper:cutDepth="0.0000762" stroke-linecap="round" stroke-linejoin="round" /><path d="M0.9378158,-0.2946319 L0.9378158,-0.903875 -1.5457197,-0.903875 -1.5457197,-0.2946319 0.9378158,-0.2946319z" transform="matrix(1,0,0,-1,2.49555,1.185275)" fill="rgb(104,104,104)" fill-rule="nonzero" shaper:cutDepth="0.0000762" stroke-linecap="round" stroke-linejoin="round" /><path d="M0.0671692,-0.5340451 L0.0671692,-0.5340451 0.071421,-0.5509658 0.0749005,-0.5680625 0.0749005,-0.5680625 0.07721,-0.5823606 0.078764,-0.5967608 0.0796292,-0.6112185 0.07988,-0.6257 0.0785312,-0.65463 0.0750627,-0.6833857 0.0724511,-0.6976323 0.0690558,-0.7117127 0.0647596,-0.7255448 0.0594936,-0.7390368 0.0532969,-0.7521285 0.0460935,-0.7646928 0.0378874,-0.776628 0.0287421,-0.7878586 0.0287421,-0.7878586 0.0219718,-0.7948844 0.0146555,-0.8013366 0.0067854,-0.8071043 -0.001642,-0.8120185 -0.0105949,-0.815894 -0.0199396,-0.8186943 -0.0295519,-0.8203628 -0.0392927,-0.8209024 -0.0392927,-0.8209024 -0.0472624,-0.8206261 -0.0551846,-0.8197042 -0.0630017,-0.818136 -0.070658,-0.815899 -0.078067,-0.8129553 -0.0851493,-0.8092895 -0.0918702,-0.8049976 -0.0981735,-0.8001143 -0.1040492,-0.7947199 -0.1094643,-0.7888693 -0.1189581,-0.7760621 -0.1269367,-0.762258 -0.1336619,-0.7477938 -0.1395616,-0.7329753 -0.1446763,-0.7178663 -0.1489792,-0.7025081 -0.1524764,-0.6869446 -0.1551558,-0.671222 -0.1570372,-0.6553817 -0.1582246,-0.6394761 -0.1586383,-0.6235307 -0.1583669,-0.6075823 -0.1573876,-0.591662 -0.1556634,-0.5758048 -0.1531638,-0.5600514 -0.1498725,-0.5444441 -0.1457774,-0.5290283 -0.1408594,-0.5138552 -0.1351325,-0.4989679 -0.1285745,-0.4844282 -0.1208082,-0.4705026 -0.1115042,-0.4575603 -0.1061648,-0.4516367 -0.1003418,-0.4461894 -0.0941005,-0.4412243 -0.0874236,-0.4368654 -0.0803702,-0.433146 -0.0729904,-0.4301241 -0.0653499,-0.4278427 -0.05753,-0.4262821 -0.0496104,-0.4253406 -0.0416407,-0.4250633 -0.0416407,-0.4250633 -0.0313255,-0.4256086 -0.0211296,-0.4272597 -0.0112192,-0.4301698 -0.0017642,-0.4343276 0.0070932,-0.4396401 0.0152174,-0.4460196 0.0225844,-0.4532596 0.0292083,-0.4611862 0.041136,-0.4780499 0.0516157,-0.4958454 0.0604019,-0.5145347 0.0671692,-0.5340451z M-0.002011,-0.7391232 L-0.002011,-0.7391232 0.0060095,-0.7241686 0.0121914,-0.7083613 0.016993,-0.6920795 0.0205284,-0.6754752 0.0230729,-0.6586868 0.0246504,-0.6417825 0.0251368,-0.6248099 0.0247121,-0.6078364 0.0232744,-0.5909185 0.0207191,-0.5741327 0.0169983,-0.557567 0.0120913,-0.5413116 0.0058196,-0.525539 -0.0023714,-0.5106794 -0.0072359,-0.5037219 -0.0126966,-0.4972244 -0.0186996,-0.4912208 -0.0252047,-0.4857678 -0.0252047,-0.4857678 -0.0316242,-0.4819897 -0.03872,-0.4797546 -0.0402663,-0.4797546 -0.0402663,-0.4797546 -0.0463746,-0.4813373 -0.0522598,-0.4836112 -0.0578123,-0.4866104 -0.0629863,-0.4902199 -0.0676615,-0.4944564 -0.0718852,-0.4991471 -0.0788957,-0.5096292 -0.0847192,-0.5208271 -0.0896474,-0.5324453 -0.0936635,-0.5444111 -0.0968551,-0.5566219 -0.1012715,-0.581469 -0.1026247,-0.5940173 -0.1033609,-0.6066168 -0.1034264,-0.6318559 -0.1027952,-0.6444613 -0.1013716,-0.6570003 -0.1013716,-0.6570003 -0.0993576,-0.6680967 -0.0966114,-0.6790381 -0.0900534,-0.7006194 -0.0861704,-0.7112097 -0.0817105,-0.7215702 -0.076614,-0.7316329 -0.0708083,-0.7413044 -0.0641211,-0.7503823 -0.0560602,-0.7582527 -0.0514492,-0.7614965 -0.0464354,-0.7640749 -0.0410909,-0.7658735 -0.035521,-0.7667189 -0.0299461,-0.7659426 -0.0247384,-0.7637866 -0.0200661,-0.7606266 -0.0158331,-0.7569008 -0.0084324,-0.7483921 -0.002011,-0.7391232z" transform="matrix(1,0,0,-1,2.49555,1.185275)" fill="rgb(104,104,104)" fill-rule="nonzero" shaper:cutDepth="0.0000762" stroke-linecap="round" stroke-linejoin="round" /><path d="M0.4204923,-0.5340451 L0.4204923,-0.5340451 0.4247441,-0.5509658 0.4282235,-0.5680625 0.4282235,-0.5680625 0.4305331,-0.5823606 0.4320871,-0.5967608 0.4329523,-0.6112185 0.433203,-0.6257 0.4318543,-0.65463 0.4283857,-0.6833857 0.4257742,-0.6976323 0.4223789,-0.7117127 0.4180827,-0.7255448 0.4128166,-0.7390368 0.40662,-0.7521285 0.3994166,-0.7646928 0.3912105,-0.776628 0.3820652,-0.7878586 0.3820652,-0.7878586 0.3752949,-0.7948844 0.3679786,-0.8013366 0.3601084,-0.8071043 0.3516811,-0.8120185 0.3427282,-0.815894 0.3333835,-0.8186943 0.3237712,-0.8203628 0.3140304,-0.8209024 0.3140304,-0.8209024 0.3060606,-0.8206261 0.2981385,-0.8197042 0.2903213,-0.818136 0.2826651,-0.815899 0.275256,-0.8129553 0.2681737,-0.8092895 0.2614529,-0.8049976 0.2551495,-0.8001143 0.2492739,-0.7947199 0.2438588,-0.7888693 0.234365,-0.7760621 0.2263863,-0.762258 0.2196612,-0.7477938 0.2137615,-0.7329753 0.2086467,-0.7178663 0.2043439,-0.7025081 0.2008466,-0.6869446 0.1981672,-0.671222 0.1962859,-0.6553817 0.1950985,-0.6394761 0.1946848,-0.6235307 0.1949561,-0.6075823 0.1959355,-0.591662 0.1976597,-0.5758048 0.2001593,-0.5600514 0.2034506,-0.5444441 0.2075457,-0.5290283 0.2124637,-0.5138552 0.2181906,-0.4989679 0.2247485,-0.4844282 0.2325149,-0.4705026 0.2418189,-0.4575603 0.2471582,-0.4516367 0.2529813,-0.4461894 0.2592226,-0.4412243 0.2658995,-0.4368654 0.2729529,-0.433146 0.2803326,-0.4301241 0.2879731,-0.4278427 0.2957931,-0.4262821 0.3037127,-0.4253406 0.3116824,-0.4250633 0.3116824,-0.4250633 0.3219975,-0.4256086 0.3321935,-0.4272597 0.3421039,-0.4301698 0.3515589,-0.4343276 0.3604163,-0.4396401 0.3685405,-0.4460196 0.3759074,-0.4532596 0.3825314,-0.4611862 0.3944591,-0.4780499 0.4049388,-0.4958454 0.4137249,-0.5145347 0.4204923,-0.5340451z M0.3513121,-0.7391232 L0.3513121,-0.7391232 0.3593326,-0.7241686 0.3655144,-0.7083613 0.370316,-0.6920795 0.3738515,-0.6754752 0.3763959,-0.6586868 0.3779735,-0.6417825 0.3784598,-0.6248099 0.3780352,-0.6078364 0.3765974,-0.5909185 0.3740422,-0.5741327 0.3703214,-0.557567 0.3654143,-0.5413116 0.3591427,-0.525539 0.3509516,-0.5106794 0.3460872,-0.5037219 0.3406265,-0.4972244 0.3346235,-0.4912208 0.3281184,-0.4857678 0.3281184,-0.4857678 0.3216989,-0.4819897 0.314603,-0.4797546 0.3130568,-0.4797546 0.3130568,-0.4797546 0.3069485,-0.4813373 0.3010633,-0.4836112 0.2955108,-0.4866104 0.2903367,-0.4902199 0.2856616,-0.4944564 0.2814379,-0.4991471 0.2744273,-0.5096292 0.2686039,-0.5208271 0.2636757,-0.5324453 0.2596596,-0.5444111 0.256468,-0.5566219 0.2520515,-0.581469 0.2506984,-0.5940173 0.2499621,-0.6066168 0.2498967,-0.6318559 0.2505279,-0.6444613 0.2519514,-0.6570003 0.2519514,-0.6570003 0.2539655,-0.6680967 0.2567117,-0.6790381 0.2632697,-0.7006194 0.2671527,-0.7112097 0.2716126,-0.7215702 0.276709,-0.7316329 0.2825148,-0.7413044 0.289202,-0.7503823 0.2972629,-0.7582527 0.3018739,-0.7614965 0.3068877,-0.7640749 0.3122322,-0.7658735 0.3178021,-0.7667189 0.323377,-0.7659426 0.3285847,-0.7637866 0.333257,-0.7606266 0.33749,-0.7569008 0.3448906,-0.7483921 0.3513121,-0.7391232z" transform="matrix(1,0,0,-1,2.49555,1.185275)" fill="rgb(104,104,104)" fill-rule="nonzero" shaper:cutDepth="0.0000762" stroke-linecap="round" stroke-linejoin="round" /><path d="M0.7738154,-0.5340451 L0.7738154,-0.5340451 0.7780672,-0.5509658 0.7815466,-0.5680625 0.7815466,-0.5680625 0.7838561,-0.5823606 0.7854102,-0.5967608 0.7862754,-0.6112185 0.7865261,-0.6257 0.7851774,-0.65463 0.7817088,-0.6833857 0.7790972,-0.6976323 0.775702,-0.7117127 0.7714058,-0.7255448 0.7661397,-0.7390368 0.759943,-0.7521285 0.7527397,-0.7646928 0.7445336,-0.776628 0.7353883,-0.7878586 0.7353883,-0.7878586 0.728618,-0.7948844 0.7213017,-0.8013366 0.7134315,-0.8071043 0.7050041,-0.8120185 0.6960513,-0.815894 0.6867065,-0.8186943 0.6770942,-0.8203628 0.6673534,-0.8209024 0.6673534,-0.8209024 0.6593837,-0.8206261 0.6514615,-0.8197042 0.6436444,-0.818136 0.6359882,-0.815899 0.6285791,-0.8129553 0.6214968,-0.8092895 0.6147759,-0.8049976 0.6084726,-0.8001143 0.6025969,-0.7947199 0.5971819,-0.7888693 0.587688,-0.7760621 0.5797094,-0.762258 0.5729843,-0.7477938 0.5670845,-0.7329753 0.5619698,-0.7178663 0.5576669,-0.7025081 0.5541697,-0.6869446 0.5514903,-0.671222 0.549609,-0.6553817 0.5484216,-0.6394761 0.5480078,-0.6235307 0.5482792,-0.6075823 0.5492586,-0.591662 0.5509828,-0.5758048 0.5534824,-0.5600514 0.5567736,-0.5444441 0.5608687,-0.5290283 0.5657868,-0.5138552 0.5715137,-0.4989679 0.5780716,-0.4844282 0.5858379,-0.4705026 0.595142,-0.4575603 0.6004813,-0.4516367 0.6063043,-0.4461894 0.6125456,-0.4412243 0.6192226,-0.4368654 0.626276,-0.433146 0.6336557,-0.4301241 0.6412962,-0.4278427 0.6491162,-0.4262821 0.6570358,-0.4253406 0.6650054,-0.4250633 0.6650054,-0.4250633 0.6753206,-0.4256086 0.6855166,-0.4272597 0.6954269,-0.4301698 0.704882,-0.4343276 0.7137394,-0.4396401 0.7218635,-0.4460196 0.7292305,-0.4532596 0.7358544,-0.4611862 0.7477821,-0.4780499 0.7582619,-0.4958454 0.767048,-0.5145347 0.7738154,-0.5340451z M0.7046351,-0.7391232 L0.7046351,-0.7391232 0.7126556,-0.7241686 0.7188375,-0.7083613 0.7236391,-0.6920795 0.7271746,-0.6754752 0.729719,-0.6586868 0.7312966,-0.6417825 0.7317829,-0.6248099 0.7313583,-0.6078364 0.7299205,-0.5909185 0.7273653,-0.5741327 0.7236445,-0.557567 0.7187374,-0.5413116 0.7124657,-0.525539 0.7042747,-0.5106794 0.6994102,-0.5037219 0.6939496,-0.4972244 0.6879465,-0.4912208 0.6814415,-0.4857678 0.6814415,-0.4857678 0.6750219,-0.4819897 0.6679261,-0.4797546 0.6663799,-0.4797546 0.6663799,-0.4797546 0.6602716,-0.4813373 0.6543863,-0.4836112 0.6488338,-0.4866104 0.6436598,-0.4902199 0.6389847,-0.4944564 0.634761,-0.4991471 0.6277504,-0.5096292 0.6219269,-0.5208271 0.6169988,-0.5324453 0.6129827,-0.5444111 0.6097911,-0.5566219 0.6053746,-0.581469 0.6040214,-0.5940173 0.6032852,-0.6066168 0.6032197,-0.6318559 0.603851,-0.6444613 0.6052745,-0.6570003 0.6052745,-0.6570003 0.6072885,-0.6680967 0.6100347,-0.6790381 0.6165928,-0.7006194 0.6204758,-0.7112097 0.6249357,-0.7215702 0.6300321,-0.7316329 0.6358378,-0.7413044 0.6425251,-0.7503823 0.650586,-0.7582527 0.6551969,-0.7614965 0.6602107,-0.7640749 0.6655553,-0.7658735 0.6711252,-0.7667189 0.6767001,-0.7659426 0.6819077,-0.7637866 0.6865801,-0.7606266 0.690813,-0.7569008 0.6982137,-0.7483921 0.7046351,-0.7391232z" transform="matrix(1,0,0,-1,2.49555,1.185275)" fill="rgb(104,104,104)" fill-rule="nonzero" shaper:cutDepth="0.0000762" stroke-linecap="round" stroke-linejoin="round" /><path d="M0.5371,-2.3976089 L0.5371,-2.8725889 -0.5371,-2.8725889 -0.5371,-2.3976089 0.5371,-2.3976089z" transform="matrix(1,0,0,-1,2.49555,1.185275)" fill="rgb(255,255,255)" stroke="rgb(0,0,0)" stroke-width="0.0010cm" stroke-linecap="round" stroke-linejoin="round" shaper:cutDepth="0.0015875" /><path d="M-0.3728596,-0.3390819 L-0.8299496,-0.3390819 -0.8299496,-0.859425 -0.3728596,-0.859425 -0.3728596,-0.3390819z" transform="matrix(1,0,0,-1,2.49555,1.185275)" fill="rgb(255,255,255)" stroke="rgb(0,0,0)" stroke-width="0.0010cm" stroke-linecap="round" stroke-linejoin="round" shaper:cutDepth="0.0015875" /><path d="M-0.9899696,-0.3390819 L-1.4470596,-0.3390819 -1.4470596,-0.859425 -0.9899696,-0.859425 -0.9899696,-0.3390819z" transform="matrix(1,0,0,-1,2.49555,1.185275)" fill="rgb(255,255,255)" stroke="rgb(0,0,0)" stroke-width="0.0010cm" stroke-linecap="round" stroke-linejoin="round" shaper:cutDepth="0.0015875" /><path d="M-0.125,-1.310275 a0.125,0.125 0 1,1 0.25,0 a0.125,0.125 0 1,1 -0.25,0z" transform="matrix(1,0,0,-1,2.49555,1.185275)" fill="rgb(255,255,255)" stroke="rgb(0,0,0)" stroke-width="0.0010cm" stroke-linecap="round" stroke-linejoin="round" shaper:cutDepth="0.0015875" /></svg>