<?xml version="1.0" encoding="utf-8"?>
<!-- Generator: Fusion 360, Shaper Origin Export Add-In, Version 1.6.10  -->
<svg xmlns="http://www.w3.org/2000/svg" xmlns:xlink="http://www.w3.org/1999/xlink" xmlns:shaper="http://www.shapertools.com/namespaces/shaper" shaper:fusionaddin="version:1.6.10" width="9.6296313cm" height="4.6403919cm" version="1.1" x="0cm" y="0cm" viewBox="0 0 9.6296313 4.6403919" enable-background="new 0 0 9.6296313 4.6403919" xml:space="preserve"><path d="M-1.6621843,-1.1405541 A0.15875,0.15875 180 0,0 -1.5034343,-0.9818041 L4.8148157,-0.9818041 4.8148157,2.3201959 -1.0589343,2.3201959 -3.6941843,0.7961959 -3.6941843,-0.655868 A0.15875,0.15875 0 0,0 -3.7986386,-0.8050442 L-4.8148157,-1.1749024 -4.1535801,-2.3201959 A1.905,1.905 116.1774463 0,0 -3.3131843,-2.1248041 L-1.6621843,-2.1248041 -1.6621843,-1.1405541z" transform="matrix(1,0,0,-1,4.8148157,2.3201959)" fill="rgb(0,0,0)" shaper:cutDepth="0.0047625" stroke-linecap="round" stroke-linejoin="round" /><path d="M-1.2424493,-0.2198041 a0.215265,0.215265 0 1,1 0.43053,0 a0.215265,0.215265 0 1,1 -0.43053,0z" transform="matrix(1,0,0,-1,4.8148157,2.3201959)" fill="rgb(255,255,255)" stroke="rgb(0,0,0)" stroke-width="0.0010cm" stroke-linecap="round" stroke-linejoin="round" shaper:cutDepth="0.0047625" /><path d="M3.7613507,0.8914459 a0.215265,0.215265 0 1,1 0.43053,0 a0.215265,0.215265 0 1,1 -0.43053,0z" transform="matrix(1,0,0,-1,4.8148157,2.3201959)" fill="rgb(255,255,255)" stroke="rgb(0,0,0)" stroke-width="0.0010cm" stroke-linecap="round" stroke-linejoin="round" shaper:cutDepth="0.0047625" /><path d="M0.9667157,0.4151959 a0.9525,0.9525 0 1,1 1.905,0 a0.9525,0.9525 0 1,1 -1.905,0z" transform="matrix(1,0,0,-1,4.8148157,2.3201959)" fill="rgb(255,255,255)" stroke="rgb(0,0,0)" stroke-width="0.0010cm" stroke-linecap="round" stroke-linejoin="round" shaper:cutDepth="0.0047625" /></svg>