<?xml version="1.0" encoding="utf-8"?>
<!-- Generator: Fusion 360, Shaper Origin Export Add-In, Version 1.6.10  -->
<svg xmlns="http://www.w3.org/2000/svg" xmlns:xlink="http://www.w3.org/1999/xlink" xmlns:shaper="http://www.shapertools.com/namespaces/shaper" shaper:fusionaddin="version:1.6.10" width="9.6296313cm" height="4.6403919cm" version="1.1" x="0cm" y="0cm" viewBox="0 0 9.6296313 4.6403919" enable-background="new 0 0 9.6296313 4.6403919" xml:space="preserve"><path d="M-2.4659958,-2.3201959 A1.905,1.905 116.1774463 0,0 -1.6256001,-2.1248041 L0.0253999,-2.1248041 0.0253999,-1.1405541 A0.15875,0.15875 180 0,0 0.1841499,-0.9818041 L6.5023999,-0.9818041 6.5023999,2.3201959 0.6286499,2.3201959 -2.0066001,0.7961959 -2.0066001,-0.655868 A0.15875,0.15875 0 0,0 -2.1110544,-0.8050442 L-3.1272314,-1.1749024 -2.4659958,-2.3201959z" transform="matrix(1,0,0,-1,3.1272314,2.3201959)" fill="rgb(0,0,0)" shaper:cutDepth="0.003175" stroke-linecap="round" stroke-linejoin="round" /><path d="M3.43535,-0.8802041 L3.82905,-0.8802041 A0.15875,0.15875 270 0,1 3.9878,-0.7214541 L3.9878,-0.4039541 A0.15875,0.15875 0 0,1 3.82905,-0.2452041 L3.43535,-0.2452041 A0.15875,0.15875 90 0,1 3.2766,-0.4039541 L3.2766,-0.7214541 A0.15875,0.15875 180 0,1 3.43535,-0.8802041z" transform="matrix(1,0,0,-1,3.1272314,2.3201959)" fill="rgb(255,255,255)" stroke="rgb(0,0,0)" stroke-width="0.0010cm" stroke-linecap="round" stroke-linejoin="round" shaper:cutDepth="0.003175" /><path d="M1.70815,-0.8294041 L2.6868969,-0.8294041 A0.15875,0.15875 270 0,1 2.8456469,-0.6706541 L2.8456469,1.5264459 A0.15875,0.15875 0 0,1 2.6868969,1.6851959 L1.70815,1.6851959 A0.15875,0.15875 90 0,1 1.5494,1.5264459 L1.5494,-0.6706541 A0.15875,0.15875 180 0,1 1.70815,-0.8294041z" transform="matrix(1,0,0,-1,3.1272314,2.3201959)" fill="rgb(255,255,255)" stroke="rgb(0,0,0)" stroke-width="0.0010cm" stroke-linecap="round" stroke-linejoin="round" shaper:cutDepth="0.003175" /><path d="M3.82905,1.7359959 L3.43535,1.7359959 A0.15875,0.15875 90 0,1 3.2766,1.5772459 L3.2766,1.2597459 A0.15875,0.15875 180 0,1 3.43535,1.1009959 L3.82905,1.1009959 A0.15875,0.15875 270 0,1 3.9878,1.2597459 L3.9878,1.5772459 A0.15875,0.15875 0 0,1 3.82905,1.7359959z" transform="matrix(1,0,0,-1,3.1272314,2.3201959)" fill="rgb(255,255,255)" stroke="rgb(0,0,0)" stroke-width="0.0010cm" stroke-linecap="round" stroke-linejoin="round" shaper:cutDepth="0.003175" /><path d="M-1.39065,-2.074195 L-1.09855,-2.074195 A0.15875,0.15875 270 0,1 -0.9398,-1.915445 L-0.9398,0.8660459 A0.15875,0.15875 0 0,1 -1.09855,1.0247959 L-1.39065,1.0247959 A0.15875,0.15875 90 0,1 -1.5494,0.8660459 L-1.5494,-1.915445 A0.15875,0.15875 180 0,1 -1.39065,-2.074195z" transform="matrix(1,0,0,-1,3.1272314,2.3201959)" fill="rgb(255,255,255)" stroke="rgb(0,0,0)" stroke-width="0.0010cm" stroke-linecap="round" stroke-linejoin="round" shaper:cutDepth="0.003175" /><path d="M-0.55245,1.2533959 L0.17145,1.2533959 A0.15875,0.15875 270 0,1 0.3302,1.4121459 L0.3302,1.9899959 0.4910667,2.1106459 A0.15875,0.15875 126.8698976 0,0 0.5863167,2.1423959 L1.00965,2.1423959 A0.15875,0.15875 90 0,0 1.1684,1.9836459 L1.1684,0.7009459 A0.15875,0.15875 0 0,0 1.00965,0.5421959 L-0.55245,0.5421959 A0.15875,0.15875 270 0,0 -0.7112,0.7009459 L-0.7112,1.0946459 A0.15875,0.15875 180 0,0 -0.55245,1.2533959z" transform="matrix(1,0,0,-1,3.1272314,2.3201959)" fill="rgb(255,255,255)" stroke="rgb(0,0,0)" stroke-width="0.0010cm" stroke-linecap="round" stroke-linejoin="round" shaper:cutDepth="0.003175" /><path d="M5.0037999,-0.0864541 L5.0037999,0.9930459 A0.15875,0.15875 0 0,1 4.8450499,1.1517959 L4.4767499,1.1517959 A0.15875,0.15875 90 0,1 4.3179999,0.9930459 L4.3179999,-0.0864541 A0.15875,0.15875 180 0,1 4.4767499,-0.2452041 L4.8450499,-0.2452041 A0.15875,0.15875 270 0,1 5.0037999,-0.0864541z" transform="matrix(1,0,0,-1,3.1272314,2.3201959)" fill="rgb(255,255,255)" stroke="rgb(0,0,0)" stroke-width="0.0010cm" stroke-linecap="round" stroke-linejoin="round" shaper:cutDepth="0.003175" /><path d="M0.4451349,-0.2198041 a0.215265,0.215265 0 1,1 0.43053,0 a0.215265,0.215265 0 1,1 -0.43053,0z" transform="matrix(1,0,0,-1,3.1272314,2.3201959)" fill="rgb(255,255,255)" stroke="rgb(0,0,0)" stroke-width="0.0010cm" stroke-linecap="round" stroke-linejoin="round" shaper:cutDepth="0.003175" /><path d="M5.4489349,0.8914459 a0.215265,0.215265 0 1,1 0.43053,0 a0.215265,0.215265 0 1,1 -0.43053,0z" transform="matrix(1,0,0,-1,3.1272314,2.3201959)" fill="rgb(255,255,255)" stroke="rgb(0,0,0)" stroke-width="0.0010cm" stroke-linecap="round" stroke-linejoin="round" shaper:cutDepth="0.003175" /><path d="M2.9718009,0.4151978 a0.635,0.635 0 1,1 1.27,0 a0.635,0.635 0 1,1 -1.27,0z" transform="matrix(1,0,0,-1,3.1272314,2.3201959)" fill="rgb(255,255,255)" stroke="rgb(0,0,0)" stroke-width="0.0010cm" stroke-linecap="round" stroke-linejoin="round" shaper:cutDepth="0.003175" /></svg>