<?xml version="1.0" encoding="utf-8"?>
<!-- Generator: Fusion 360, Shaper Origin Export Add-In, Version 1.6.10  -->
<svg xmlns="http://www.w3.org/2000/svg" xmlns:xlink="http://www.w3.org/1999/xlink" xmlns:shaper="http://www.shapertools.com/namespaces/shaper" shaper:fusionaddin="version:1.6.10" width="9.6296313cm" height="4.6403919cm" version="1.1" x="0cm" y="0cm" viewBox="0 0 9.6296313 4.6403919" enable-background="new 0 0 9.6296313 4.6403919" xml:space="preserve"><path d="M-1.6621843,-1.1405541 A0.15875,0.15875 180 0,0 -1.5034343,-0.9818041 L4.8148157,-0.9818041 4.8148157,2.3201959 -1.0589343,2.3201959 -3.6941843,0.7961959 -3.6941843,-0.655868 A0.15875,0.15875 0 0,0 -3.7986386,-0.8050442 L-4.8148157,-1.1749024 -4.1535801,-2.3201959 A1.905,1.905 116.1774463 0,0 -3.3131843,-2.1248041 L-1.6621843,-2.1248041 -1.6621843,-1.1405541z" transform="matrix(1,0,0,-1,4.8148157,2.3201959)" fill="rgb(0,0,0)" shaper:cutDepth="0.0015875" stroke-linecap="round" stroke-linejoin="round" /><path d="M-3.5134081,-0.8757601 L-3.5116273,-0.9123351 -3.5116273,-0.9123351 -3.510722,-0.921871 -3.5090962,-0.9313086 -3.5067456,-0.940596 -3.5035156,-0.9496104 -3.4995279,-0.9583214 -3.4946089,-0.9665368 -3.4889517,-0.9742671 -3.4825419,-0.9813828 -3.4754907,-0.9878656 -3.4678105,-0.9935877 -3.4595831,-0.9984909 -3.4509071,-1.0025475 -3.4418388,-1.005631 -3.4325313,-1.0078886 -3.423042,-1.0091914 -3.4134831,-1.009798 -3.4134831,-1.009798 -3.401725,-1.009003 -3.3901235,-1.0069331 -3.3788579,-1.0034732 -3.3680457,-0.9987847 -3.3578573,-0.9928613 -3.3484568,-0.9857559 -3.3400327,-0.9775139 -3.3328534,-0.9681694 -3.3328534,-0.9681694 -3.326859,-0.9582927 -3.3223942,-0.9476218 -3.3189395,-0.9365964 -3.3164318,-0.9253092 -3.3033411,-0.8643329 -3.3033411,-0.8643329 -3.3008564,-0.8534212 -3.2971365,-0.8428731 -3.2971365,-0.8428731 -3.2927748,-0.8357631 -3.2874198,-0.8293667 -3.281275,-0.8237266 -3.2744075,-0.8189911 -3.2669562,-0.8152401 -3.2591063,-0.8124184 -3.2509353,-0.8107405 -3.242617,-0.8101121 -3.242617,-0.8101121 -3.2327792,-0.8110212 -3.2231575,-0.8132607 -3.2140461,-0.8170776 -3.2056016,-0.8222064 -3.1980778,-0.8286082 -3.1917281,-0.836175 -3.1868807,-0.8447823 -3.1836637,-0.8541218 -3.1836637,-0.8541218 -3.1820872,-0.8659455 -3.1813647,-0.877851 -3.1813206,-0.9117703 -3.1813206,-0.9117703 -3.1817136,-0.9234289 -3.1823849,-0.9292258 -3.1836637,-0.9349158 -3.1836637,-0.9349158 -3.1868986,-0.9427827 -3.191346,-0.9500336 -3.1969166,-0.9564619 -3.2033132,-0.9620697 -3.2104012,-0.9667741 -3.2181044,-0.9703802 -3.2262822,-0.9727231 -3.2347347,-0.9736706 -3.2347347,-0.9736706 -3.2398253,-0.9730959 -3.2443172,-0.9731027 -3.2443172,-0.9731027 -3.2488159,-0.9735068 -3.253211,-0.9745388 -3.2573353,-0.9763795 -3.2609929,-0.9790266 -3.2640411,-0.9823578 -3.2663545,-0.9862347 -3.2677472,-0.9905293 -3.2682346,-0.9950187 -3.2682346,-0.9950187 -3.2675168,-1.0007103 -3.2654906,-1.0060789 -3.2621657,-1.0107467 -3.2577538,-1.014417 -3.252702,-1.0171399 -3.2472693,-1.0189885 -3.2416134,-1.0199575 -3.2358842,-1.0203078 -3.2358842,-1.0203078 -3.2212749,-1.0191231 -3.2069681,-1.0159447 -3.1932814,-1.0107014 -3.1804793,-1.0035657 -3.1687545,-0.9947705 -3.1584418,-0.9843567 -3.1539142,-0.9785817 -3.1498813,-0.9724609 -3.1431025,-0.959466 -3.1431025,-0.959466 -3.1398356,-0.9479301 -3.1376143,-0.9361452 -3.1362496,-0.9242332 -3.1357128,-0.9122541 -3.1357128,-0.8754173 -3.1357128,-0.8754173 -3.1363325,-0.8646315 -3.1376257,-0.8539059 -3.1398058,-0.8433257 -3.1428373,-0.8329541 -3.1469129,-0.8229529 -3.151885,-0.8133592 -3.15784,-0.8043482 -3.1647325,-0.7960291 -3.1724418,-0.7884619 -3.1809194,-0.7817667 -3.1901132,-0.7760951 -3.1998951,-0.7715118 -3.2101209,-0.768029 -3.2206392,-0.7655622 -3.2313363,-0.7640588 -3.2421244,-0.7634749 -3.2421244,-0.7634749 -3.2516119,-0.7639258 -3.261041,-0.7650664 -3.2703441,-0.7669798 -3.2794678,-0.7696213 -3.2882878,-0.7731435 -3.296786,-0.777385 -3.3048064,-0.7824727 -3.3123596,-0.7882303 -3.3193645,-0.7946452 -3.3258042,-0.8016255 -3.3315389,-0.8091976 -3.3365914,-0.8172393 -3.3409361,-0.825686 -3.3446301,-0.8344359 -3.3500139,-0.8526439 -3.3625401,-0.9140371 -3.3625401,-0.9140371 -3.3647726,-0.9240434 -3.3677492,-0.9338484 -3.3677492,-0.9338484 -3.3711848,-0.9402813 -3.375597,-0.9460893 -3.3808132,-0.9511838 -3.3867842,-0.9553745 -3.3932617,-0.9587246 -3.4001312,-0.9611773 -3.4072746,-0.9626433 -3.4145505,-0.9631609 -3.4145505,-0.9631609 -3.4249262,-0.9621611 -3.4349298,-0.9592467 -3.4440843,-0.9542712 -3.451896,-0.9473709 -3.458179,-0.9390617 -3.4626322,-0.9296345 -3.4653372,-0.9195738 -3.4665247,-0.9092161 -3.4670304,-0.8808679 -3.4670304,-0.8780302 -3.4670304,-0.8780302 -3.4664854,-0.8677812 -3.4643928,-0.8577418 -3.4606193,-0.8481991 -3.4549121,-0.8396778 -3.4475555,-0.8325307 -3.4389574,-0.8269324 -3.4295177,-0.822916 -3.4196412,-0.8201292 -3.4196412,-0.8201292 -3.4120177,-0.8171926 -3.408524,-0.8150692 -3.4054239,-0.812403 -3.4029266,-0.80917 -3.4011792,-0.8054749 -3.4003517,-0.8014726 -3.4002638,-0.7973854 -3.4002638,-0.7973854 -3.4007179,-0.7926778 -3.402025,-0.7881347 -3.4042781,-0.7839784 -3.4073909,-0.7804191 -3.4111849,-0.7776002 -3.4155088,-0.775682 -3.4201027,-0.7745693 -3.424814,-0.7741489 -3.424814,-0.7741489 -3.435223,-0.7753377 -3.4453081,-0.7782315 -3.4549906,-0.7822384 -3.4642257,-0.7872041 -3.4642257,-0.7872041 -3.474898,-0.7943858 -3.4846078,-0.8028202 -3.4930954,-0.812486 -3.5002334,-0.8231856 -3.5059363,-0.8347156 -3.5100381,-0.8469054 -3.5125838,-0.8595136 -3.5134082,-0.8723497 -3.5134081,-0.8757601z" transform="matrix(1,0,0,-1,4.8148157,2.3201959)" fill="rgb(104,104,104)" fill-rule="nonzero" shaper:cutDepth="0.0000762" stroke-linecap="round" stroke-linejoin="round" /><path d="M-3.1652716,-0.6583771 L-3.1652716,-0.6583771 -3.1544145,-0.6590451 -3.1491084,-0.660265 -3.1440926,-0.662387 -3.1399755,-0.6659196 -3.1372904,-0.6706476 -3.1359899,-0.67593 -3.1357128,-0.6813672 -3.1357128,-0.6813672 -3.1359878,-0.6863985 -3.1371794,-0.6912893 -3.1394015,-0.695806 -3.142846,-0.6994788 -3.147113,-0.7021455 -3.1518726,-0.7037995 -3.1618615,-0.7050143 -3.4791693,-0.7050142 -3.4791693,-0.7050142 -3.4867811,-0.7049529 -3.4943262,-0.7039607 -3.5014846,-0.7013947 -3.504703,-0.6993382 -3.5074246,-0.6966793 -3.5094992,-0.6934755 -3.5109769,-0.6899622 -3.5127357,-0.6825512 -3.5134443,-0.67498 -3.5134081,-0.6673654 -3.5134082,-0.5748735 -3.5134082,-0.5748735 -3.513167,-0.5631932 -3.5122572,-0.5515457 -3.5100728,-0.5400703 -3.5066754,-0.5288932 -3.5066754,-0.5288932 -3.5035683,-0.5212229 -3.4998547,-0.513828 -3.4956519,-0.5066989 -3.4908612,-0.4999515 -3.4855776,-0.4935825 -3.4797548,-0.4877023 -3.4734737,-0.4823145 -3.466797,-0.4774257 -3.4524293,-0.4692301 -3.4369609,-0.4633729 -3.4207879,-0.4598978 -3.4042871,-0.4586911 -3.4042871,-0.4586911 -3.3950847,-0.4591308 -3.3859412,-0.4602463 -3.3768987,-0.4620143 -3.3680401,-0.4645373 -3.35938,-0.4676825 -3.3510597,-0.4716347 -3.3431189,-0.4763051 -3.3355514,-0.4815586 -3.3284318,-0.4874049 -3.3218594,-0.4938596 -3.3158731,-0.5008618 -3.3105209,-0.5083594 -3.3058218,-0.5162828 -3.3019121,-0.5246242 -3.2987191,-0.5332653 -3.2961512,-0.5421126 -3.2961512,-0.5421126 -3.2945743,-0.5509444 -3.2937775,-0.5598823 -3.2933595,-0.5778217 -3.2933595,-0.6583771 -3.1652716,-0.6583771z M-3.4667709,-0.6583771 L-3.3399967,-0.6583771 -3.3399967,-0.5731493 -3.3399967,-0.5731493 -3.3410776,-0.56008 -3.3440539,-0.5473134 -3.3494308,-0.5353586 -3.3529872,-0.5298472 -3.3571839,-0.5248062 -3.3618519,-0.5201959 -3.3670368,-0.5161785 -3.3726411,-0.5127693 -3.3786116,-0.510052 -3.3912253,-0.5064928 -3.4042871,-0.5053283 -3.4042871,-0.5053283 -3.4176019,-0.5065683 -3.4241059,-0.5081366 -3.4303995,-0.5104061 -3.4364071,-0.5133474 -3.4419537,-0.5170899 -3.447021,-0.5214564 -3.4515075,-0.5264188 -3.4554104,-0.5318535 -3.4587215,-0.5376673 -3.4613311,-0.5438257 -3.4633784,-0.5501983 -3.4659409,-0.5633205 -3.4667709,-0.5766709 -3.4667709,-0.6583771z" transform="matrix(1,0,0,-1,4.8148157,2.3201959)" fill="rgb(104,104,104)" fill-rule="nonzero" shaper:cutDepth="0.0000762" stroke-linecap="round" stroke-linejoin="round" /><path d="M-3.1781625,-0.1605581 L-3.1781625,-0.1605581 -3.1753708,-0.1583411 -3.1753708,-0.1583411 -3.1683546,-0.1538019 -3.1643489,-0.1525787 -3.1601809,-0.1521831 -3.1601809,-0.1521831 -3.1556413,-0.1526482 -3.1512981,-0.1540417 -3.1473313,-0.156294 -3.1439289,-0.159334 -3.1411988,-0.1629881 -3.1392584,-0.1671183 -3.1381123,-0.1715329 -3.1376834,-0.1760764 -3.1376834,-0.1760764 -3.138334,-0.182668 -3.1393688,-0.1858304 -3.1410339,-0.1886926 -3.1454776,-0.1935985 -3.150623,-0.1977686 -3.2933595,-0.3033455 -3.2933595,-0.3535933 -3.1664211,-0.3535933 -3.1664211,-0.3535933 -3.15541,-0.3543567 -3.1500437,-0.3556364 -3.1449634,-0.3578145 -3.1406258,-0.3612054 -3.1375496,-0.3657838 -3.1359726,-0.3710697 -3.1357128,-0.3765834 -3.1357128,-0.3765834 -3.1368113,-0.3842814 -3.13822,-0.3879155 -3.1401848,-0.3912797 -3.142659,-0.3942923 -3.1456938,-0.396733 -3.1491311,-0.3985697 -3.1528733,-0.3996557 -3.1528733,-0.3996557 -3.1607235,-0.4002166 -3.1686046,-0.4002305 -3.4807294,-0.4002304 -3.4807294,-0.4002304 -3.4876929,-0.4002139 -3.4945792,-0.3991957 -3.5010449,-0.3966235 -3.506468,-0.3922718 -3.5102432,-0.3864304 -3.5124181,-0.3798142 -3.5133506,-0.3729182 -3.5134081,-0.3659531 -3.5134082,-0.2698434 -3.5134082,-0.2698434 -3.5128679,-0.2587234 -3.511575,-0.2476688 -3.5095071,-0.2367275 -3.5064467,-0.2260269 -3.502365,-0.2156691 -3.4972955,-0.2057592 -3.4912141,-0.1964354 -3.4841629,-0.1878227 -3.4762794,-0.1799628 -3.4675894,-0.1730072 -3.4581586,-0.1670941 -3.4480919,-0.1623431 -3.4375872,-0.1586618 -3.4267548,-0.1560948 -3.4157281,-0.1545723 -3.4046155,-0.1539073 -3.4046155,-0.1539073 -3.3948752,-0.154343 -3.3851876,-0.1554404 -3.3756277,-0.1573559 -3.366261,-0.1600612 -3.3571501,-0.1635316 -3.3484078,-0.1678478 -3.3401644,-0.1730528 -3.332392,-0.1789387 -3.325168,-0.185486 -3.31864,-0.1927273 -3.3128302,-0.2005567 -3.3077458,-0.2088752 -3.303475,-0.2176397 -3.29997,-0.2267377 -3.2971958,-0.2360842 -3.2950251,-0.2455895 -3.1781625,-0.1605581z M-3.4667709,-0.3535933 L-3.3399967,-0.3535933 -3.3399967,-0.2721424 -3.3399967,-0.2721424 -3.3401244,-0.262801 -3.3409147,-0.2534979 -3.3428184,-0.2443555 -3.3464833,-0.2357687 -3.3464833,-0.2357687 -3.3509651,-0.2281015 -3.3564949,-0.2211528 -3.362958,-0.2150626 -3.370202,-0.2099248 -3.3780961,-0.2058565 -3.3864755,-0.2029141 -3.3951805,-0.2011592 -3.4040408,-0.2005445 -3.4040408,-0.2005445 -3.4130215,-0.2012535 -3.4218179,-0.2031926 -3.4302558,-0.2063471 -3.4381677,-0.210654 -3.4453869,-0.2160423 -3.4517684,-0.2224 -3.4572005,-0.2295856 -3.4615162,-0.237493 -3.4615162,-0.237493 -3.4643764,-0.2447909 -3.4660167,-0.2524568 -3.4667709,-0.2681143 -3.4667709,-0.3535933z" transform="matrix(1,0,0,-1,4.8148157,2.3201959)" fill="rgb(104,104,104)" fill-rule="nonzero" shaper:cutDepth="0.0000762" stroke-linecap="round" stroke-linejoin="round" /><path d="M-3.3715261,-0.0488095 L-3.3715261,0.0817418 -3.3715261,0.0817418 -3.3707062,0.0924479 -3.369232,0.0976227 -3.3667835,0.1024037 -3.3631853,0.1063962 -3.3585255,0.109062 -3.3533315,0.1104395 -3.3479612,0.1107258 -3.3479612,0.1107258 -3.3423598,0.1104769 -3.3369891,0.108884 -3.3323621,0.1057272 -3.3289529,0.1012904 -3.326803,0.0961083 -3.3255561,0.0906413 -3.3248888,0.079454 -3.3248888,-0.0488095 -3.18235,-0.0488095 -3.18235,0.132238 -3.18235,0.132238 -3.1823153,0.1400249 -3.1819251,0.1438999 -3.1807078,0.1475922 -3.1807078,0.1475922 -3.1773528,0.1538652 -3.1750407,0.156571 -3.1722702,0.1588331 -3.1658057,0.161784 -3.158785,0.1629463 -3.158785,0.1629463 -3.1529354,0.1626586 -3.147393,0.1607844 -3.1427734,0.1571941 -3.139516,0.1523376 -3.1374989,0.1468339 -3.1363347,0.1410919 -3.1357128,0.1293973 -3.1357128,-0.0656415 -3.1357128,-0.0656415 -3.1357774,-0.0720546 -3.1365995,-0.0784095 -3.1385762,-0.0845089 -3.1422496,-0.0897454 -3.1447861,-0.0917182 -3.147645,-0.093178 -3.1538318,-0.0948782 -3.1602047,-0.095522 -3.1666186,-0.0954467 -3.4831105,-0.0954466 -3.4831105,-0.0954466 -3.4895422,-0.0953823 -3.495913,-0.0945483 -3.502038,-0.0925889 -3.5048411,-0.0909984 -3.5072931,-0.0889121 -3.5107636,-0.0835118 -3.5126233,-0.0773598 -3.5133427,-0.0709709 -3.5134081,-0.0645409 -3.5134082,0.1317454 -3.5134082,0.1317454 -3.5125849,0.1423122 -3.5111928,0.1474271 -3.5088335,0.1521765 -3.5053387,0.1561561 -3.5008171,0.1589137 -3.4957118,0.1603372 -3.4904181,0.1606473 -3.4904181,0.1606473 -3.4847954,0.1603255 -3.4794057,0.1587012 -3.4747085,0.1556145 -3.4711813,0.1512265 -3.4688728,0.1460947 -3.467515,0.1406235 -3.4667709,0.1293973 -3.4667709,-0.0488095 -3.3715261,-0.0488095z" transform="matrix(1,0,0,-1,4.8148157,2.3201959)" fill="rgb(104,104,104)" fill-rule="nonzero" shaper:cutDepth="0.0000762" stroke-linecap="round" stroke-linejoin="round" /><path d="M-3.1987714,0.2858997 L-3.1518059,0.2677978 -3.1518059,0.2677978 -3.1452064,0.2641057 -3.1398278,0.2588014 -3.1379102,0.2555347 -3.1366008,0.2519801 -3.1357128,0.2444793 -3.1357128,0.2444793 -3.1360756,0.2399608 -3.1371213,0.2355512 -3.138977,0.2314163 -3.1415496,0.2276854 -3.1447575,0.2244838 -3.1485919,0.2220694 -3.1528882,0.2206308 -3.1573892,0.2200933 -3.1573892,0.2200933 -3.1617267,0.2204798 -3.1659154,0.2216892 -3.1741298,0.2246057 -3.4955087,0.3461286 -3.4955087,0.3461286 -3.5026489,0.3495771 -3.5058814,0.3518753 -3.5087278,0.3546405 -3.5110069,0.3578841 -3.5126081,0.3615126 -3.5133994,0.3653985 -3.5134082,0.3693651 -3.5134082,0.3693651 -3.51323,0.3741735 -3.5122339,0.3788831 -3.510247,0.383251 -3.5071147,0.3869092 -3.4990864,0.3921894 -3.4902603,0.396002 -3.1702801,0.5186369 -3.1702801,0.5186369 -3.1639046,0.5201774 -3.1573892,0.5209359 -3.1573892,0.5209359 -3.1528999,0.5203667 -3.1486224,0.5188937 -3.144838,0.5164128 -3.1416198,0.5132341 -3.1390706,0.5094932 -3.1371956,0.5053762 -3.1361531,0.5009718 -3.1357128,0.4964678 -3.1357128,0.4964678 -3.1358105,0.4923747 -3.1367088,0.4883811 -3.1384144,0.484659 -3.1408062,0.4813389 -3.1471874,0.4762372 -3.154527,0.4726195 -3.1987714,0.4561609 -3.1987714,0.2858997z M-3.2454087,0.3034934 L-3.2454087,0.4374322 -3.4226951,0.3704628 -3.2454087,0.3034934z" transform="matrix(1,0,0,-1,4.8148157,2.3201959)" fill="rgb(104,104,104)" fill-rule="nonzero" shaper:cutDepth="0.0000762" stroke-linecap="round" stroke-linejoin="round" /><path d="M-3.5134082,0.6853976 L-3.5134082,0.6853976 -3.5129709,0.6985793 -3.5113807,0.7116707 -3.5084967,0.7245403 -3.5043074,0.7370448 -3.4988347,0.7490439 -3.4920225,0.760336 -3.4841093,0.7708858 -3.475146,0.7805605 -3.475146,0.7805605 -3.4599851,0.7940387 -3.4518481,0.8000957 -3.4433515,0.8056551 -3.4255224,0.8153258 -3.406659,0.8227948 -3.3870897,0.8281319 -3.3670913,0.8315676 -3.346895,0.8334563 -3.3266132,0.8340126 -3.3266132,0.8340126 -3.2973535,0.8331209 -3.2827876,0.8316518 -3.2683403,0.8292917 -3.254125,0.8257964 -3.2402568,0.8211124 -3.226745,0.8154779 -3.2137151,0.8088055 -3.2137151,0.8088055 -3.197199,0.7990263 -3.18171,0.7876923 -3.1745372,0.7813152 -3.1678001,0.7744761 -3.1615428,0.7671977 -3.1559023,0.7594305 -3.1509721,0.7511956 -3.1466944,0.7426021 -3.1431393,0.7336862 -3.140278,0.7245236 -3.1381751,0.715158 -3.1367907,0.7056589 -3.135934,0.6960987 -3.1357128,0.6865018 -3.1357128,0.60641 -3.1357128,0.60641 -3.1359252,0.599691 -3.1369695,0.5930488 -3.1395095,0.5868341 -3.1414615,0.5840795 -3.143928,0.5818035 -3.1499905,0.5789035 -3.1565619,0.5774927 -3.1699902,0.5771796 -3.4840137,0.5771797 -3.4840137,0.5771797 -3.4901611,0.577268 -3.4962198,0.5782947 -3.5018876,0.5806657 -3.5067168,0.5844583 -3.5102048,0.5895115 -3.5122594,0.5953049 -3.5131883,0.6013797 -3.5134081,0.6075235 -3.5134082,0.6853976z M-3.4667709,0.6238169 L-3.18235,0.6238169 -3.18235,0.6865471 -3.18235,0.6865471 -3.1829698,0.7012919 -3.1840089,0.7085942 -3.1856407,0.7157943 -3.1880654,0.722759 -3.1913148,0.729385 -3.1954105,0.7355215 -3.2000852,0.7412309 -3.2000852,0.7412309 -3.2075635,0.7491111 -3.2157176,0.7562915 -3.2244711,0.762725 -3.2337358,0.7684018 -3.2433814,0.7733988 -3.2533993,0.7776071 -3.2636487,0.7812075 -3.2741464,0.784009 -3.2741464,0.784009 -3.28437,0.7863172 -3.2948096,0.7872403 -3.315775,0.7873754 -3.315775,0.7873754 -3.3562951,0.7870186 -3.3664061,0.7863896 -3.3763871,0.7846822 -3.38613,0.7818987 -3.3955837,0.7782614 -3.3955837,0.7782614 -3.4053786,0.7738841 -3.4148586,0.7688629 -3.4239413,0.763152 -3.432564,0.756769 -3.4406232,0.7496872 -3.4480281,0.7419267 -3.4545991,0.7334437 -3.4599561,0.7241525 -3.4599561,0.7241525 -3.4637431,0.7154011 -3.4658778,0.7061113 -3.4666612,0.6966073 -3.4667709,0.6870716 -3.4667709,0.6238169z" transform="matrix(1,0,0,-1,4.8148157,2.3201959)" fill="rgb(104,104,104)" fill-rule="nonzero" shaper:cutDepth="0.0000762" stroke-linecap="round" stroke-linejoin="round" /><path d="M2.8030783,0.0568369 L3.0174396,0.0568367 2.7907657,-0.0913644 2.7907657,-0.0913644 2.7854093,-0.0953212 2.7807105,-0.1000388 2.7788743,-0.1028288 2.7775754,-0.1059098 2.7766396,-0.1125 2.7766396,-0.1125 2.7775246,-0.1182159 2.7798996,-0.1234822 2.7836476,-0.1278968 2.7887094,-0.1306766 2.7887094,-0.1306766 2.7954161,-0.1316492 2.8022162,-0.1316824 3.080488,-0.1316825 3.080488,-0.1316825 3.088857,-0.1314944 3.0930072,-0.1309356 3.0969931,-0.1296708 3.0969931,-0.1296708 3.1012758,-0.1263235 3.1045507,-0.1219859 3.1064298,-0.1168882 3.1071231,-0.1114942 3.1071231,-0.1114942 3.1067322,-0.1070709 3.1055663,-0.1027882 3.1034068,-0.0989125 3.1002956,-0.0957474 3.0964854,-0.0934785 3.0922743,-0.0920565 3.0834864,-0.0908749 2.8658233,-0.0908749 3.0939984,0.0568367 3.0939984,0.0568367 3.0991035,0.0608711 3.1034181,0.0657317 3.1062403,0.0715943 3.1071231,0.0780309 3.1071231,0.0780309 3.1067889,0.0823259 3.1056405,0.0864758 3.1034764,0.0901972 3.1003889,0.0931945 3.0966341,0.0953034 3.0925357,0.096633 3.0839893,0.0976444 2.8012738,0.0976443 2.8012738,0.0976443 2.7921039,0.0969394 2.7876685,0.0957304 2.7835513,0.0936688 2.7801697,0.0905657 2.7778516,0.0865953 2.7767674,0.0821269 2.7766396,0.077528 2.7766396,0.077528 2.7768971,0.0726594 2.7780496,0.0679249 2.7804541,0.0636951 2.78414,0.0605131 2.7885932,0.0585454 2.7933568,0.0574847 2.8030783,0.0568369z" transform="matrix(1,0,0,-1,4.8148157,2.3201959)" fill="rgb(104,104,104)" fill-rule="nonzero" shaper:cutDepth="0.0000762" stroke-linecap="round" stroke-linejoin="round" /><path d="M2.7720416,0.2637483 L2.7720416,0.2637483 2.7725057,0.2726541 2.7738302,0.2814738 2.7759381,0.2901388 2.7787784,0.2985931 2.7822719,0.3067986 2.7864084,0.3146999 2.7911666,0.3222426 2.7964686,0.3294139 2.7964686,0.3294139 2.803118,0.3366458 2.8104486,0.3431919 2.8183388,0.3490417 2.8266447,0.3542968 2.8443309,0.3628404 2.8629434,0.369125 2.8821075,0.3734621 2.9015607,0.3762474 2.9211584,0.3776934 2.9408037,0.3781243 2.9408037,0.3781243 2.9593607,0.3776851 2.9778671,0.3762973 2.9962486,0.3736964 3.0143588,0.3696468 3.0320266,0.363949 3.0489345,0.3563095 3.0569828,0.3516707 3.0646657,0.3464553 3.0787446,0.3343712 3.0787446,0.3343712 3.0849768,0.3270665 3.0904559,0.3191815 3.0952411,0.3108566 3.0992285,0.302122 3.1025061,0.2930961 3.104956,0.2838126 3.1065006,0.2743353 3.1071231,0.2647541 3.1071231,0.2647541 3.1061353,0.2527724 3.1037773,0.2409827 3.1000769,0.2295437 3.0952252,0.2185426 3.0893505,0.208052 3.0824796,0.1981865 3.0746265,0.1890817 3.0657408,0.1809837 3.0657408,0.1809837 3.0512899,0.1719041 3.0357886,0.1647441 3.0196659,0.1591343 3.0031023,0.1550059 2.9862712,0.1521319 2.9693104,0.1501812 2.9522695,0.149146 2.9351999,0.1487975 2.9351999,0.1487975 2.9178503,0.1492745 2.9005494,0.1506391 2.8833795,0.1531746 2.8664303,0.1569071 2.8498442,0.1620202 2.8338914,0.1688419 2.8188557,0.1775154 2.8051618,0.1881681 2.8051618,0.1881681 2.7980646,0.1959808 2.7917041,0.2044042 2.7861973,0.2134088 2.7814632,0.2228432 2.7776157,0.2326716 2.7746281,0.2427952 2.7727531,0.2531824 2.7720417,0.2637127 2.7720416,0.2637483z M2.9382892,0.3373168 L2.9382892,0.3373168 2.9236704,0.3370608 2.90909,0.3360468 2.8945912,0.3341372 2.8802861,0.331144 2.8663106,0.3268396 2.8529296,0.3209724 2.8405079,0.3132567 2.8295888,0.30355 2.8295888,0.30355 2.8229459,0.294772 2.8177862,0.2850469 2.8142338,0.2746345 2.8128501,0.2637295 2.8128501,0.2637295 2.81458,0.2513099 2.8164222,0.2453131 2.8188396,0.2395034 2.8250332,0.2285877 2.8331092,0.2189893 2.8331092,0.2189893 2.8438482,0.2104885 2.8558763,0.203912 2.8686539,0.198967 2.8818604,0.195293 2.8953078,0.1926515 2.908904,0.1909031 2.922575,0.1899458 2.9362775,0.189605 2.9362775,0.189605 2.9628889,0.1905185 2.9761353,0.1918702 2.9892898,0.1939392 3.00227,0.1969024 3.0149317,0.2010172 3.0270698,0.2064921 3.0383682,0.2135291 3.0383682,0.2135291 3.0441561,0.2181954 3.0494139,0.2234501 3.0540948,0.2292268 3.058122,0.2354751 3.0614698,0.2421138 3.0640331,0.249091 3.0656688,0.2563433 3.0663156,0.2637483 3.0663156,0.2637483 3.065814,0.270232 3.06446,0.276596 3.0624706,0.2827865 3.0598304,0.2887331 3.0567181,0.2944438 3.053057,0.299821 3.0489683,0.3048796 3.0444031,0.3095131 3.0444031,0.3095131 3.0330744,0.317705 3.0206062,0.3240567 3.0074802,0.3288782 2.9939307,0.3323606 2.9801519,0.3347741 2.9662439,0.3362828 2.9382892,0.3373168z" transform="matrix(1,0,0,-1,4.8148157,2.3201959)" fill="rgb(104,104,104)" fill-rule="nonzero" shaper:cutDepth="0.0000762" stroke-linecap="round" stroke-linejoin="round" /><path d="M3.0699797,0.6435888 L3.0699797,0.6435888 3.0724224,0.6455286 3.0724224,0.6455286 3.0785615,0.6495004 3.0820665,0.6505707 3.0857135,0.6509169 3.0857135,0.6509169 3.0896856,0.6505099 3.0934859,0.6492906 3.0969569,0.6473199 3.099934,0.6446598 3.1023229,0.6414624 3.1040207,0.6378485 3.1050236,0.6339858 3.1053989,0.6300102 3.1053989,0.6300102 3.1048296,0.6242425 3.1039241,0.6214755 3.1024671,0.618971 3.0985789,0.6146784 3.0940767,0.6110295 2.9691823,0.5186497 2.9691823,0.474683 3.0802534,0.474683 3.0802534,0.474683 3.089888,0.474015 3.0945836,0.4728953 3.0990288,0.4709894 3.1028243,0.4680223 3.1055159,0.4640162 3.1068958,0.459391 3.1071231,0.4545666 3.1071231,0.4545666 3.1061619,0.4478308 3.1032101,0.4417073 3.1010452,0.4390713 3.0983897,0.4369357 3.0953821,0.4353286 3.0921077,0.4343783 3.0921077,0.4343783 3.0783428,0.4338754 2.8052336,0.4338754 2.8052336,0.4338754 2.7991405,0.4338899 2.793115,0.4347809 2.7874575,0.4370315 2.7827123,0.4408392 2.779409,0.4459505 2.777506,0.4517396 2.77669,0.4577737 2.7766397,0.4638681 2.7766396,0.5479641 2.7766396,0.5479641 2.7771124,0.5576941 2.7782437,0.5673669 2.7800531,0.5769405 2.782731,0.5863036 2.7863025,0.5953666 2.7907382,0.6040378 2.7960595,0.6121961 2.8022293,0.6197322 2.8091273,0.6266097 2.8167311,0.6326958 2.8249831,0.6378697 2.8337914,0.6420268 2.842983,0.645248 2.8524613,0.6474941 2.8621097,0.6488263 2.8718332,0.6494082 2.8718332,0.6494082 2.8888326,0.6480667 2.8971976,0.6463907 2.9053934,0.6440235 2.9133655,0.6409869 2.9210149,0.6372103 2.9282279,0.6326559 2.9350288,0.6275057 2.9413498,0.6217768 2.9470618,0.6154407 2.9521454,0.6085899 2.9565942,0.6013113 2.9603312,0.5936423 2.9633981,0.5856815 2.9677249,0.5691863 3.0699797,0.6435888z M2.8174473,0.474683 L2.9283747,0.474683 2.9283747,0.5459525 2.9283747,0.5459525 2.9275714,0.5622664 2.9259057,0.570266 2.922699,0.5777794 2.922699,0.5777794 2.9187774,0.5844882 2.9139388,0.5905684 2.9082835,0.5958973 2.9019451,0.6003928 2.8950377,0.6039526 2.8877057,0.6065273 2.8800889,0.6080628 2.8723361,0.6086006 2.8723361,0.6086006 2.864478,0.6079802 2.8567811,0.6062835 2.849398,0.6035234 2.842475,0.5997548 2.8361583,0.59504 2.8305745,0.5894771 2.8258214,0.5831897 2.8220452,0.5762707 2.8220452,0.5762707 2.8195424,0.569885 2.8181072,0.5631774 2.8174473,0.549477 2.8174473,0.474683z" transform="matrix(1,0,0,-1,4.8148157,2.3201959)" fill="rgb(104,104,104)" fill-rule="nonzero" shaper:cutDepth="0.0000762" stroke-linecap="round" stroke-linejoin="round" /><path d="M2.7897153,0.9094843 L2.932639,0.8244174 2.7916059,0.7394244 2.7916059,0.7394244 2.7864779,0.7362571 2.7817682,0.7324962 2.7798908,0.7301231 2.7785248,0.7274207 2.7776454,0.7214679 2.7776454,0.7214679 2.7778989,0.7166815 2.7791139,0.7120484 2.781512,0.7079104 2.7850782,0.7047043 2.7893305,0.7025197 2.7939666,0.7012718 2.8035094,0.7005613 3.0801278,0.7005612 3.0801278,0.7005612 3.0897587,0.7012212 3.0944581,0.7023281 3.0988956,0.7042334 3.1027569,0.7071277 3.1054892,0.7110945 3.1068956,0.7157114 3.1071231,0.720534 3.1071231,0.720534 3.1063402,0.7262534 3.1042076,0.7316046 3.1008128,0.7362886 3.0959873,0.739429 3.0959873,0.739429 3.0886666,0.7411835 3.0811155,0.7413688 2.875034,0.7413688 2.9783258,0.8030336 2.9783258,0.8030336 2.9840312,0.8067771 2.9891692,0.8112598 2.991158,0.8140384 2.992464,0.8172073 2.9931782,0.8239897 2.9931782,0.8239897 2.9930824,0.827824 2.9923795,0.8315827 2.9907691,0.8350707 2.9882677,0.8379609 2.9822608,0.8427131 2.9757919,0.8468361 2.875034,0.9074725 3.0821142,0.9074725 3.0821142,0.9074725 3.0896144,0.9076839 3.0969931,0.9089814 3.0969931,0.9089814 3.1014669,0.9124517 3.1046327,0.9171547 3.1063717,0.9225438 3.1071231,0.9281638 3.1071231,0.9281638 3.1067338,0.932429 3.1056428,0.9365691 3.1035989,0.9403298 3.1006531,0.943432 3.0969985,0.9456621 3.0929649,0.9471045 3.0844922,0.9482802 2.7982349,0.9482801 2.7982349,0.9482801 2.7898583,0.9476762 2.7858057,0.9465172 2.7821846,0.9443969 2.779323,0.9413147 2.7775521,0.9375018 2.7767374,0.9333772 2.7766396,0.9291696 2.7766396,0.9291696 2.7772954,0.9229519 2.7783942,0.9200138 2.7800574,0.9173554 2.7845779,0.9130455 2.7897153,0.9094843z" transform="matrix(1,0,0,-1,4.8148157,2.3201959)" fill="rgb(104,104,104)" fill-rule="nonzero" shaper:cutDepth="0.0000762" stroke-linecap="round" stroke-linejoin="round" /><path d="M0.7664416,-0.2242178 L0.7664416,-0.1099855 0.7664416,-0.1099855 0.767159,-0.1006176 0.7684489,-0.0960897 0.7705914,-0.0919063 0.7737398,-0.0884129 0.7778171,-0.0860803 0.7823619,-0.084875 0.7870609,-0.0846245 0.7870609,-0.0846245 0.7919621,-0.0848422 0.7966615,-0.0862361 0.8007102,-0.0889982 0.8036932,-0.0928805 0.8055744,-0.0974148 0.8066654,-0.1021984 0.8072492,-0.1119873 0.8072492,-0.2242178 0.9319707,-0.2242178 0.9319707,-0.0658013 0.9319707,-0.0658013 0.9320011,-0.0589877 0.9323425,-0.0555971 0.9334076,-0.0523664 0.9334076,-0.0523664 0.9363432,-0.0468775 0.9407906,-0.0425306 0.946447,-0.0399486 0.95259,-0.0389315 0.95259,-0.0389315 0.9577085,-0.0391833 0.9625581,-0.0408232 0.9666002,-0.0439647 0.9694504,-0.0482142 0.9712155,-0.0530298 0.9722341,-0.0580542 0.9727783,-0.0682869 0.9727783,-0.2389459 0.9727783,-0.2389459 0.9727218,-0.2445574 0.9720024,-0.2501178 0.9702728,-0.2554549 0.9670586,-0.2600367 0.9623376,-0.2630403 0.9569242,-0.2645279 0.9513478,-0.2650913 0.9457357,-0.2650254 0.6688053,-0.2650253 0.6688053,-0.2650253 0.6631776,-0.2649691 0.6576031,-0.2642393 0.6522437,-0.2625249 0.6476455,-0.2593077 0.6446088,-0.2545824 0.6429815,-0.2491994 0.6422948,-0.2379828 0.6422948,-0.0662323 0.6422948,-0.0662323 0.6430151,-0.0569864 0.6442332,-0.0525108 0.6462976,-0.0483551 0.6493556,-0.044873 0.653312,-0.0424601 0.6577792,-0.0412145 0.6624112,-0.0409432 0.6624112,-0.0409432 0.667331,-0.0412247 0.6720469,-0.042646 0.676157,-0.0453468 0.6792433,-0.0491864 0.6812633,-0.0536767 0.6824514,-0.058464 0.6831024,-0.0682869 0.6831024,-0.2242178 0.7664416,-0.2242178z" transform="matrix(1,0,0,-1,4.8148157,2.3201959)" fill="rgb(104,104,104)" fill-rule="nonzero" shaper:cutDepth="0.0000762" stroke-linecap="round" stroke-linejoin="round" /><path d="M0.6553704,0.2197796 L0.7982942,0.1347126 0.6572611,0.0497197 0.6572611,0.0497197 0.652133,0.0465523 0.6474234,0.0427915 0.6455459,0.0404183 0.6441799,0.0377159 0.6433006,0.0317632 0.6433006,0.0317632 0.643554,0.0269768 0.644769,0.0223437 0.6471672,0.0182056 0.6507334,0.0149996 0.6549857,0.012815 0.6596218,0.0115671 0.6691645,0.0108565 0.9457829,0.0108565 0.9457829,0.0108565 0.9554138,0.0115165 0.9601133,0.0126234 0.9645508,0.0145287 0.9684121,0.0174229 0.9711444,0.0213897 0.9725508,0.0260067 0.9727783,0.0308292 0.9727783,0.0308292 0.9719953,0.0365487 0.9698628,0.0418999 0.9664679,0.0465839 0.9616424,0.0497243 0.9616424,0.0497243 0.9543218,0.0514788 0.9467707,0.0516641 0.7406891,0.0516641 0.8439809,0.1133289 0.8439809,0.1133289 0.8496864,0.1170724 0.8548243,0.1215551 0.8568131,0.1243337 0.8581191,0.1275025 0.8588333,0.1342849 0.8588333,0.1342849 0.8587376,0.1381193 0.8580347,0.141878 0.8564243,0.1453659 0.8539229,0.1482562 0.8479159,0.1530084 0.841447,0.1571314 0.7406891,0.2177678 0.9477693,0.2177678 0.9477693,0.2177678 0.9552696,0.2179791 0.9626482,0.2192767 0.9626482,0.2192767 0.967122,0.222747 0.9702879,0.22745 0.9720268,0.232839 0.9727783,0.2384591 0.9727783,0.2384591 0.9723889,0.2427243 0.971298,0.2468644 0.969254,0.2506251 0.9663082,0.2537273 0.9626536,0.2559573 0.9586201,0.2573998 0.9501473,0.2585755 0.6638901,0.2585754 0.6638901,0.2585754 0.6555135,0.2579715 0.6514608,0.2568125 0.6478398,0.2546922 0.6449781,0.25161 0.6432072,0.2477971 0.6423926,0.2436725 0.6422948,0.2394649 0.6422948,0.2394649 0.6429506,0.2332471 0.6440493,0.2303091 0.6457125,0.2276507 0.6502331,0.2233408 0.6553704,0.2197796z" transform="matrix(1,0,0,-1,4.8148157,2.3201959)" fill="rgb(104,104,104)" fill-rule="nonzero" shaper:cutDepth="0.0000762" stroke-linecap="round" stroke-linejoin="round" /><path d="M0.7664416,0.3505361 L0.7664416,0.4647685 0.7664416,0.4647685 0.767159,0.4741363 0.7684489,0.4786643 0.7705914,0.4828476 0.7737398,0.4863411 0.7778171,0.4886737 0.7823619,0.4898789 0.7870609,0.4901295 0.7870609,0.4901295 0.7919621,0.4899117 0.7966615,0.4885179 0.8007102,0.4857557 0.8036932,0.4818735 0.8055744,0.4773392 0.8066654,0.4725556 0.8072492,0.4627666 0.8072492,0.3505361 0.9319707,0.3505361 0.9319707,0.5089527 0.9319707,0.5089527 0.9320011,0.5157662 0.9323425,0.5191568 0.9334076,0.5223875 0.9334076,0.5223875 0.9363432,0.5278764 0.9407906,0.5322233 0.946447,0.5348054 0.95259,0.5358224 0.95259,0.5358224 0.9577085,0.5355707 0.9625581,0.5339307 0.9666002,0.5307892 0.9694504,0.5265398 0.9712155,0.5217241 0.9722341,0.5166998 0.9727783,0.506467 0.9727783,0.335808 0.9727783,0.335808 0.9727218,0.3301966 0.9720024,0.3246361 0.9702728,0.3192991 0.9670586,0.3147172 0.9623376,0.3117137 0.9569242,0.310226 0.9513478,0.3096626 0.9457357,0.3097285 0.6688053,0.3097286 0.6688053,0.3097286 0.6631776,0.3097849 0.6576031,0.3105147 0.6522437,0.3122291 0.6476455,0.3154463 0.6446088,0.3201715 0.6429815,0.3255545 0.6422948,0.3367711 0.6422948,0.5085216 0.6422948,0.5085216 0.6430151,0.5177675 0.6442332,0.5222431 0.6462976,0.5263989 0.6493556,0.529881 0.653312,0.5322939 0.6577792,0.5335395 0.6624112,0.5338108 0.6624112,0.5338108 0.667331,0.5335292 0.6720469,0.532108 0.676157,0.5294071 0.6792433,0.5255675 0.6812633,0.5210773 0.6824514,0.51629 0.6831024,0.506467 0.6831024,0.3505361 0.7664416,0.3505361z" transform="matrix(1,0,0,-1,4.8148157,2.3201959)" fill="rgb(104,104,104)" fill-rule="nonzero" shaper:cutDepth="0.0000762" stroke-linecap="round" stroke-linejoin="round" /><path d="M0.9356348,0.7953238 L0.9356348,0.7953238 0.9380775,0.7972636 0.9380775,0.7972636 0.9442167,0.8012355 0.9477217,0.8023057 0.9513687,0.8026519 0.9513687,0.8026519 0.9553408,0.802245 0.9591411,0.8010256 0.9626121,0.7990549 0.9655892,0.7963948 0.967978,0.7931975 0.9696758,0.7895836 0.9706787,0.7857208 0.971054,0.7817453 0.971054,0.7817453 0.9704847,0.7759776 0.9695793,0.7732105 0.9681223,0.770706 0.9642341,0.7664134 0.9597318,0.7627646 0.8348374,0.6703848 0.8348374,0.626418 0.9459085,0.626418 0.9459085,0.626418 0.9555432,0.62575 0.9602387,0.6246303 0.964684,0.6227244 0.9684794,0.6197573 0.971171,0.6157513 0.9725509,0.6111261 0.9727783,0.6063016 0.9727783,0.6063016 0.9718171,0.5995659 0.9688653,0.5934424 0.9667004,0.5908064 0.9640449,0.5886707 0.9610372,0.5870636 0.9577628,0.5861134 0.9577628,0.5861134 0.9439979,0.5856104 0.6708888,0.5856105 0.6708888,0.5856105 0.6647956,0.585625 0.6587702,0.5865159 0.6531127,0.5887665 0.6483675,0.5925743 0.6450641,0.5976855 0.6431611,0.6034747 0.6423452,0.6095087 0.6422948,0.6156031 0.6422948,0.6996991 0.6422948,0.6996991 0.6427675,0.7094291 0.6438989,0.7191019 0.6457083,0.7286756 0.6483861,0.7380386 0.6519576,0.7471016 0.6563934,0.7557728 0.6617146,0.7639312 0.6678845,0.7714673 0.6747825,0.7783447 0.6823862,0.7844308 0.6906382,0.7896048 0.6994465,0.7937619 0.7086382,0.796983 0.7181165,0.7992292 0.7277649,0.8005614 0.7374884,0.8011432 0.7374884,0.8011432 0.7544878,0.7998018 0.7628527,0.7981257 0.7710486,0.7957585 0.7790207,0.792722 0.7866701,0.7889453 0.7938831,0.7843909 0.800684,0.7792408 0.8070049,0.7735118 0.8127169,0.7671757 0.8178005,0.760325 0.8222494,0.7530463 0.8259863,0.7453774 0.8290532,0.7374166 0.83338,0.7209213 0.9356348,0.7953238z M0.6831024,0.626418 L0.7940298,0.626418 0.7940298,0.6976875 0.7940298,0.6976875 0.7932266,0.7140015 0.7915608,0.722001 0.7883541,0.7295145 0.7883541,0.7295145 0.7844325,0.7362233 0.7795939,0.7423034 0.7739387,0.7476323 0.7676002,0.7521279 0.7606929,0.7556876 0.7533609,0.7582623 0.745744,0.7597978 0.7379913,0.7603357 0.7379913,0.7603357 0.7301331,0.7597153 0.7224363,0.7580185 0.7150531,0.7552584 0.7081302,0.7514898 0.7018134,0.7467751 0.6962296,0.7412121 0.6914765,0.7349247 0.6877003,0.7280058 0.6877003,0.7280058 0.6851976,0.7216201 0.6837624,0.7149124 0.6831024,0.7012121 0.6831024,0.626418z" transform="matrix(1,0,0,-1,4.8148157,2.3201959)" fill="rgb(104,104,104)" fill-rule="nonzero" shaper:cutDepth="0.0000762" stroke-linecap="round" stroke-linejoin="round" /><path d="M0.8256413,1.0002236 L0.8256413,1.0362175 0.8772989,1.0362175 0.8772989,1.0362175 0.8921645,1.0353165 0.8994304,1.0336552 0.9063224,1.0308292 0.9063224,1.0308292 0.9121753,1.0271607 0.9173934,1.022633 0.9219029,1.0174028 0.9255587,1.0115392 0.9284185,1.0052533 0.930368,0.9986237 0.9315322,0.9918159 0.9319707,0.9849208 0.9319707,0.9849208 0.9316,0.9768226 0.9303084,0.9688193 0.9280394,0.9610377 0.9247933,0.9536085 0.9206923,0.9466174 0.9158162,0.9401384 0.9103606,0.934144 0.9043826,0.9286667 0.9043826,0.9286667 0.8938592,0.920732 0.8827075,0.9137072 0.870946,0.9077594 0.8587533,0.9027544 0.8462154,0.8986902 0.8333774,0.8957099 0.8203394,0.8937786 0.8071773,0.8931038 0.8071773,0.8931038 0.7967836,0.8935229 0.7864491,0.8947058 0.7762358,0.8966787 0.7661956,0.8993991 0.7563865,0.9028605 0.7468693,0.9070587 0.7377643,0.9120886 0.7290826,0.9178182 0.7290826,0.9178182 0.7201645,0.9235668 0.7116834,0.9299377 0.7038424,0.9370867 0.6968422,0.9450581 0.6910149,0.9539213 0.6866361,0.9635809 0.6839623,0.9738468 0.6831023,0.9844179 0.6831023,0.9844179 0.6836302,0.9923575 0.6853642,1.000127 0.6882867,1.0075243 0.6923679,1.0143586 0.6972684,1.0206288 0.7027305,1.0264214 0.7148574,1.0367205 0.7148574,1.0367205 0.7247866,1.0452788 0.7284801,1.0507015 0.7293695,1.0538375 0.7296574,1.0571242 0.7296574,1.0571242 0.7290433,1.0613068 0.7274971,1.065243 0.7251585,1.068763 0.7221553,1.0717412 0.7186989,1.0741782 0.7148957,1.0760245 0.7108003,1.0770791 0.7065954,1.077528 0.7065954,1.077528 0.6989282,1.0763462 0.691932,1.0729607 0.6796538,1.0634465 0.6796538,1.0634465 0.6717232,1.0552473 0.6644477,1.0464644 0.6579858,1.0370633 0.6525072,1.0270608 0.6480711,1.0165517 0.6448626,1.0056081 0.6429107,0.9943697 0.6422948,0.982981 0.6422948,0.982981 0.6426623,0.9746171 0.6437434,0.966315 0.6454048,0.9581095 0.6477127,0.9500617 0.6505756,0.9421942 0.6540054,0.934557 0.6580763,0.9272413 0.6626985,0.9202609 0.6626985,0.9202609 0.6693702,0.9123328 0.6765383,0.90485 0.6841601,0.8978306 0.6922068,0.891302 0.7006386,0.8852795 0.7094117,0.8797652 0.727788,0.8702004 0.7470631,0.8626054 0.7670018,0.8569853 0.7874324,0.8535455 0.8081113,0.8522963 0.8081113,0.8522963 0.8237072,0.8530209 0.8391973,0.8549749 0.8544818,0.8581593 0.8694595,0.8625677 0.8840305,0.8681755 0.8981415,0.8748566 0.9116159,0.8827433 0.9244271,0.8916669 0.9244271,0.8916669 0.9345973,0.9002159 0.9439665,0.9096307 0.9523583,0.9199309 0.959586,0.9310767 0.9653357,0.9430504 0.9695174,0.9556585 0.9719517,0.9687171 0.9727783,0.9819752 0.9727783,0.9819752 0.9720352,0.9940602 0.9698984,1.0059761 0.9665008,1.0175978 0.961835,1.028769 0.9560023,1.0393797 0.9489805,1.0492409 0.9407618,1.0581317 0.9314678,1.0658892 0.9314678,1.0658892 0.9220396,1.071244 0.9118252,1.0748807 0.9011297,1.0766031 0.8903011,1.0770251 0.812525,1.077025 0.812525,1.077025 0.8011424,1.0763557 0.7956696,1.0747477 0.7908323,1.0717329 0.7874763,1.0671309 0.7856118,1.0617417 0.7848963,1.0560783 0.7848337,1.0503709 0.7848337,1.0021691 0.7848337,1.0021691 0.784969,0.993921 0.785442,0.9898226 0.7867735,0.9859266 0.7867735,0.9859266 0.7896989,0.980733 0.7940127,0.9766265 0.7993495,0.9739696 0.8052375,0.9730665 0.8052375,0.9730665 0.8101638,0.9737315 0.8148593,0.9753599 0.8189006,0.9782512 0.8221927,0.9819752 0.8221927,0.9819752 0.8244749,0.9861006 0.8253144,0.9907637 0.8256413,1.0002236z" transform="matrix(1,0,0,-1,4.8148157,2.3201959)" fill="rgb(104,104,104)" fill-rule="nonzero" shaper:cutDepth="0.0000762" stroke-linecap="round" stroke-linejoin="round" /><path d="M0.3306693,-0.7414983 L0.3893762,-0.7641257 0.3893762,-0.7641257 0.3976256,-0.7687409 0.4012491,-0.7717927 0.4043489,-0.7753712 0.4067458,-0.7794546 0.4083826,-0.7838978 0.4093085,-0.7885411 0.4094926,-0.7932739 0.4094926,-0.7932739 0.4090391,-0.798922 0.407732,-0.8044339 0.4054123,-0.8096026 0.4021965,-0.8142662 0.3981867,-0.8182682 0.3933937,-0.8212862 0.3880234,-0.8230844 0.3823971,-0.8237564 0.3823971,-0.8237564 0.3769753,-0.8232732 0.3717394,-0.8217614 0.3614713,-0.8181159 -0.0402523,-0.6662122 -0.0402523,-0.6662122 -0.0491775,-0.6619016 -0.0532182,-0.6590288 -0.0567762,-0.6555724 -0.059625,-0.6515179 -0.0616265,-0.6469822 -0.0626157,-0.6421248 -0.0626267,-0.6371666 -0.0626267,-0.6371666 -0.0624038,-0.6311561 -0.0611588,-0.6252691 -0.0586751,-0.6198092 -0.0547598,-0.6152365 -0.0499388,-0.6116562 -0.0447244,-0.6086362 -0.0336917,-0.6038705 0.3662834,-0.4505769 0.3662834,-0.4505769 0.3742528,-0.4486512 0.3823971,-0.4477031 0.3823971,-0.4477031 0.3880088,-0.4484146 0.3933555,-0.4502558 0.398086,-0.453357 0.4021089,-0.4573304 0.4052954,-0.4620065 0.407639,-0.4671528 0.4089422,-0.4726582 0.4094926,-0.4782882 0.4094926,-0.4782882 0.4093705,-0.4834046 0.4082476,-0.4883966 0.4061155,-0.4930492 0.4031258,-0.4971993 0.3993697,-0.5006764 0.3951494,-0.5035765 0.3859749,-0.5080986 0.3306693,-0.5286718 0.3306693,-0.7414983z M0.2723728,-0.7195063 L0.2723728,-0.5520827 0.0507647,-0.6357945 0.2723728,-0.7195063z" transform="matrix(1,0,0,-1,4.8148157,2.3201959)" fill="rgb(104,104,104)" fill-rule="nonzero" shaper:cutDepth="0.0000762" stroke-linecap="round" stroke-linejoin="round" /><path d="M-0.0299889,-0.126662 L0.2872161,-0.221762 -0.0327331,-0.3175339 -0.0327331,-0.3175339 -0.042872,-0.3209859 -0.0476004,-0.3235223 -0.0519122,-0.3267066 -0.0555174,-0.3306731 -0.0581185,-0.3353569 -0.0595055,-0.3405347 -0.0597529,-0.3458895 -0.0597529,-0.3458895 -0.0592156,-0.3516461 -0.0578598,-0.3572656 -0.0554807,-0.3625335 -0.0522131,-0.3673022 -0.0481159,-0.3713804 -0.0432366,-0.3744765 -0.0377777,-0.3763745 -0.0320416,-0.3770905 -0.0320416,-0.3770905 -0.0227267,-0.3760016 -0.01367,-0.3734983 0.3794409,-0.2558142 0.3794409,-0.2558142 0.3912026,-0.2514242 0.3967742,-0.248539 0.4018378,-0.2448172 0.4057269,-0.2399169 0.4082203,-0.2341563 0.4093119,-0.2279764 0.4094926,-0.2217016 0.4094926,-0.2217016 0.409297,-0.2150188 0.407902,-0.208482 0.4050962,-0.2024243 0.4006419,-0.1974534 0.3951106,-0.1937 0.3891191,-0.1907266 0.3765469,-0.1861901 -0.0164164,-0.0692363 -0.0164164,-0.0692363 -0.0241511,-0.067348 -0.0320416,-0.0663128 -0.0320416,-0.0663128 -0.0376019,-0.0670349 -0.0429462,-0.0687296 -0.0478032,-0.0715299 -0.0520258,-0.0752192 -0.0555374,-0.0795908 -0.0582137,-0.0845174 -0.0598069,-0.0898928 -0.0604713,-0.095461 -0.0604713,-0.095461 -0.060209,-0.1014241 -0.0585894,-0.107171 -0.0555994,-0.1123286 -0.0514791,-0.1166555 -0.0466059,-0.1200944 -0.0412791,-0.1228094 -0.0299889,-0.126662z" transform="matrix(1,0,0,-1,4.8148157,2.3201959)" fill="rgb(104,104,104)" fill-rule="nonzero" shaper:cutDepth="0.0000762" stroke-linecap="round" stroke-linejoin="round" /><path d="M-0.0626267,0.3982115 L-0.0626266,0.3981668 -0.0626266,0.3981668 -0.0615123,0.3791609 -0.0602375,0.3697248 -0.0583576,0.3603864 -0.0528794,0.3421538 -0.04526,0.3247083 -0.0354644,0.3083838 -0.0238586,0.2932902 -0.010756,0.2794805 0.0035727,0.2669418 0.0035727,0.2669418 0.0217891,0.2538093 0.0409219,0.2420529 0.0609503,0.231896 0.0817154,0.2233466 0.1030895,0.2164585 0.1249651,0.2113875 0.147205,0.208275 0.1696355,0.2072085 0.1696355,0.2072085 0.1922943,0.2080923 0.2148098,0.2107748 0.2370702,0.2150981 0.2588997,0.2212326 0.2801823,0.2290584 0.300779,0.2385418 0.3204708,0.2497853 0.3390853,0.2627338 0.3390853,0.2627338 0.3539683,0.2752092 0.3677574,0.2888805 0.3800465,0.3039162 0.3905942,0.3202215 0.3950392,0.3288563 0.3988907,0.3377751 0.40218,0.3469145 0.4048975,0.3562399 0.4070075,0.365727 0.408434,0.3753329 0.4094926,0.394722 0.4094926,0.394722 0.4085922,0.4108023 0.4061325,0.4267181 0.4020203,0.442289 0.3961128,0.4572718 0.3886884,0.4715619 0.3796955,0.4849241 0.3694412,0.4973414 0.3581753,0.5088517 0.3581753,0.5088517 0.349832,0.5163878 0.3410908,0.5234558 0.3314425,0.5292465 0.3260985,0.5309208 0.3205084,0.5316366 0.3205084,0.5316366 0.3147656,0.5311346 0.3091704,0.5297637 0.303944,0.527333 0.2993315,0.5238817 0.2955251,0.5195553 0.2927919,0.5144837 0.2912192,0.5089411 0.2906417,0.5032068 0.2906417,0.5032068 0.2913014,0.4954 0.2923359,0.491615 0.2939881,0.488052 0.2988822,0.481941 0.3049079,0.4769323 0.3049079,0.4769323 0.3141112,0.4694415 0.3228137,0.461378 0.3307927,0.4525929 0.337815,0.4430305 0.3436121,0.4326776 0.3479324,0.4216312 0.3505399,0.4100549 0.3511962,0.3982115 0.3511962,0.3982115 0.350672,0.3865983 0.3488258,0.3751206 0.3456442,0.3639406 0.3410938,0.3532423 0.3352596,0.3431899 0.32828,0.3338891 0.3205175,0.3252389 0.3119897,0.3173354 0.3119897,0.3173354 0.2970149,0.3057005 0.2810252,0.2955044 0.2642102,0.2867367 0.2467124,0.2794249 0.2286648,0.2736013 0.2102269,0.2691657 0.1914439,0.2665537 0.1725093,0.265505 0.1725093,0.265505 0.1574403,0.2663146 0.1424424,0.26796 0.1275767,0.2705648 0.1129242,0.274164 0.0985557,0.2787794 0.0845751,0.2844544 0.0710932,0.2912336 0.0581688,0.2990222 0.0458949,0.3077992 0.0343872,0.3175617 0.0238467,0.3283554 0.0145675,0.3402571 0.0068988,0.3532437 0.0011053,0.3671757 -0.002689,0.3817782 -0.0043302,0.3967746 -0.0043302,0.3967746 -0.003663,0.4074733 -0.0016135,0.4179972 0.0017191,0.4281826 0.0064295,0.4378149 0.0122211,0.4468337 0.0189646,0.4551703 0.0264751,0.4628182 0.0345683,0.4698505 0.0345683,0.4698505 0.042383,0.4761049 0.0494472,0.4831813 0.0523466,0.4872659 0.0543951,0.4918547 0.0553583,0.4967463 0.0556084,0.5017699 0.0556084,0.5017699 0.0549219,0.5075634 0.053162,0.5131239 0.0502938,0.5182026 0.0464677,0.5226064 0.0418806,0.5262089 0.0366571,0.5288069 0.0310369,0.5303631 0.0252286,0.5309181 0.0252286,0.5309181 0.0176962,0.5300659 0.010683,0.5271795 0.0044268,0.5228805 -0.0014564,0.5180888 -0.0014564,0.5180888 -0.0142486,0.5063124 -0.0260414,0.4935441 -0.0366788,0.4797855 -0.0457161,0.4649417 -0.0531228,0.4492079 -0.0584118,0.4326537 -0.0616214,0.4155657 -0.0626267,0.3982115z" transform="matrix(1,0,0,-1,4.8148157,2.3201959)" fill="rgb(104,104,104)" fill-rule="nonzero" shaper:cutDepth="0.0000762" stroke-linecap="round" stroke-linejoin="round" /><path d="M-0.0691953,0.7721095 L-0.0691953,0.7721095 -0.0685322,0.784832 -0.0666401,0.7974317 -0.0636288,0.8098103 -0.0595713,0.8218879 -0.0545805,0.83361 -0.0486713,0.8448975 -0.0418738,0.8556728 -0.0342995,0.8659175 -0.0342995,0.8659175 -0.0248005,0.8762488 -0.0143281,0.8856004 -0.0030564,0.8939573 0.0088091,0.9014645 0.021258,0.9079433 0.0340751,0.9136697 0.0472476,0.9185209 0.0606645,0.9226477 0.0880418,0.9288435 0.1158321,0.9328225 0.1438287,0.9348883 0.1718935,0.9355038 0.1718935,0.9355038 0.1984035,0.9348764 0.2248411,0.9328938 0.2511005,0.9291783 0.2641012,0.9265789 0.2769721,0.9233931 0.2896883,0.9196227 0.3022119,0.9152534 0.3144635,0.9101857 0.326366,0.9043398 0.3378636,0.8977129 0.3488391,0.8902624 0.3591282,0.8819169 0.3689519,0.8729993 0.3689519,0.8729993 0.377855,0.8625641 0.3856823,0.8512998 0.3925183,0.839407 0.3982147,0.826929 0.4028969,0.8140349 0.4063967,0.8007728 0.4086033,0.7872338 0.4094926,0.7735464 0.4094926,0.7735464 0.4080815,0.7564297 0.4047128,0.7395873 0.3994266,0.7232458 0.3924956,0.70753 0.3841032,0.6925434 0.3742876,0.6784498 0.3630689,0.665443 0.3503751,0.6538744 0.3503751,0.6538744 0.3402135,0.6471194 0.3297309,0.6409035 0.3188048,0.6354741 0.3075861,0.630675 0.2845537,0.622661 0.2608914,0.6167632 0.236847,0.6126576 0.2126174,0.6098708 0.1882732,0.608392 0.163888,0.6078941 0.163888,0.6078941 0.1391029,0.6085756 0.1143874,0.610525 0.0898588,0.6141472 0.0656457,0.6194792 0.0419514,0.6267837 0.0304165,0.6313279 0.0191616,0.636529 0.0082168,0.6423745 -0.002318,0.6489196 -0.0122907,0.6562685 -0.0218807,0.6641379 -0.0218807,0.6641379 -0.0320195,0.6752989 -0.0411059,0.6873322 -0.0489728,0.700196 -0.0557359,0.7136737 -0.0612323,0.7277143 -0.0655002,0.7421766 -0.0681789,0.7570154 -0.0691952,0.7720587 -0.0691953,0.7721095z M0.1683012,0.8772074 L0.1683012,0.8772074 0.1474173,0.8768417 0.1265881,0.875393 0.1058756,0.8726651 0.0854397,0.8683891 0.0654747,0.8622399 0.0557736,0.8583762 0.046359,0.8538582 0.0372715,0.84869 0.0286137,0.8428358 0.0205856,0.8361761 0.013015,0.8289691 0.013015,0.8289691 0.0035251,0.816429 -0.0004448,0.809647 -0.0038459,0.802536 -0.0067343,0.7952026 -0.0089207,0.7876613 -0.0102433,0.7799237 -0.0108974,0.7720827 -0.0108974,0.7720827 -0.0101753,0.7631404 -0.0084261,0.7543403 -0.005764,0.7457687 -0.002341,0.737474 0.0017636,0.7294982 0.0065071,0.7218801 0.011915,0.7147204 0.0180441,0.7081681 0.0180441,0.7081681 0.0255067,0.7018194 0.0333855,0.6960241 0.0418016,0.6910039 0.0505686,0.6866291 0.0688224,0.6795648 0.0876888,0.6743162 0.1068994,0.6705427 0.1263225,0.6680449 0.1458524,0.6666773 0.1654275,0.6661906 0.1654275,0.6661906 0.1844468,0.6665238 0.2034437,0.6674956 0.2223671,0.6694266 0.2411593,0.6723822 0.2597025,0.6766155 0.2777906,0.6824937 0.2865839,0.6861306 0.2951308,0.6903149 0.3112713,0.7003679 0.3112713,0.7003679 0.3195397,0.707034 0.3270509,0.7145407 0.3337378,0.7227932 0.3394911,0.7317193 0.3442735,0.7412031 0.3479354,0.7511705 0.3502721,0.761531 0.3511962,0.7721095 0.3511962,0.7721095 0.3504796,0.7813719 0.3485452,0.7904633 0.3457033,0.799307 0.3419316,0.8078022 0.3374854,0.8159603 0.3322553,0.8236419 0.3264143,0.8308685 0.3198926,0.8374878 0.3198926,0.8374878 0.3119843,0.8436086 0.3037087,0.8491906 0.2949522,0.85402 0.285897,0.8582644 0.2671455,0.8651522 0.2477891,0.8701271 0.2281051,0.873575 0.2082366,0.8757302 0.1882818,0.8768077 0.1683012,0.8772074z" transform="matrix(1,0,0,-1,4.8148157,2.3201959)" fill="rgb(104,104,104)" fill-rule="nonzero" shaper:cutDepth="0.0000762" stroke-linecap="round" stroke-linejoin="round" /><path d="M-0.0691953,1.1793637 L-0.0691953,1.1793637 -0.0685322,1.1920863 -0.0666401,1.2046859 -0.0636288,1.2170645 -0.0595713,1.2291421 -0.0545805,1.2408642 -0.0486713,1.2521517 -0.0418738,1.262927 -0.0342995,1.2731718 -0.0342995,1.2731718 -0.0248005,1.283503 -0.0143281,1.2928546 -0.0030564,1.3012115 0.0088091,1.3087187 0.021258,1.3151975 0.0340751,1.3209239 0.0472476,1.3257751 0.0606645,1.3299019 0.0880418,1.3360977 0.1158321,1.3400767 0.1438287,1.3421425 0.1718935,1.342758 0.1718935,1.342758 0.1984035,1.3421306 0.2248411,1.340148 0.2511005,1.3364325 0.2641012,1.3338331 0.2769721,1.3306473 0.2896883,1.3268769 0.3022119,1.3225076 0.3144635,1.3174399 0.326366,1.311594 0.3378636,1.3049671 0.3488391,1.2975166 0.3591282,1.2891711 0.3689519,1.2802535 0.3689519,1.2802535 0.377855,1.2698184 0.3856823,1.258554 0.3925183,1.2466613 0.3982147,1.2341833 0.4028969,1.2212891 0.4063967,1.208027 0.4086033,1.194488 0.4094926,1.1808006 0.4094926,1.1808006 0.4080815,1.1636839 0.4047128,1.1468415 0.3994266,1.1305 0.3924956,1.1147842 0.3841032,1.0997976 0.3742876,1.085704 0.3630689,1.0726972 0.3503751,1.0611286 0.3503751,1.0611286 0.3402135,1.0543736 0.3297309,1.0481577 0.3188048,1.0427283 0.3075861,1.0379292 0.2845537,1.0299152 0.2608914,1.0240175 0.236847,1.0199118 0.2126174,1.017125 0.1882732,1.0156462 0.163888,1.0151483 0.163888,1.0151483 0.1391029,1.0158298 0.1143874,1.0177792 0.0898588,1.0214014 0.0656457,1.0267334 0.0419514,1.034038 0.0304165,1.0385821 0.0191616,1.0437832 0.0082168,1.0496287 -0.002318,1.0561738 -0.0122907,1.0635227 -0.0218807,1.0713921 -0.0218807,1.0713921 -0.0320195,1.0825531 -0.0411059,1.0945864 -0.0489728,1.1074502 -0.0557359,1.1209279 -0.0612323,1.1349685 -0.0655002,1.1494308 -0.0681789,1.1642696 -0.0691952,1.1793129 -0.0691953,1.1793637z M0.1683012,1.2844616 L0.1683012,1.2844616 0.1474173,1.284096 0.1265881,1.2826473 0.1058756,1.2799193 0.0854397,1.2756433 0.0654747,1.2694941 0.0557736,1.2656304 0.046359,1.2611124 0.0372715,1.2559443 0.0286137,1.2500901 0.0205856,1.2434303 0.013015,1.2362233 0.013015,1.2362233 0.0035251,1.2236833 -0.0004448,1.2169012 -0.0038459,1.2097903 -0.0067343,1.2024569 -0.0089207,1.1949155 -0.0102433,1.187178 -0.0108974,1.1793369 -0.0108974,1.1793369 -0.0101753,1.1703946 -0.0084261,1.1615946 -0.005764,1.1530229 -0.002341,1.1447282 0.0017636,1.1367524 0.0065071,1.1291343 0.011915,1.1219747 0.0180441,1.1154223 0.0180441,1.1154223 0.0255067,1.1090736 0.0333855,1.1032783 0.0418016,1.0982582 0.0505686,1.0938833 0.0688224,1.086819 0.0876888,1.0815704 0.1068994,1.0777969 0.1263225,1.0752991 0.1458524,1.0739316 0.1654275,1.0734448 0.1654275,1.0734448 0.1844468,1.073778 0.2034437,1.0747498 0.2223671,1.0766808 0.2411593,1.0796364 0.2597025,1.0838697 0.2777906,1.0897479 0.2865839,1.0933849 0.2951308,1.0975691 0.3112713,1.1076221 0.3112713,1.1076221 0.3195397,1.1142882 0.3270509,1.121795 0.3337378,1.1300474 0.3394911,1.1389735 0.3442735,1.1484573 0.3479354,1.1584247 0.3502721,1.1687852 0.3511962,1.1793637 0.3511962,1.1793637 0.3504796,1.1886261 0.3485452,1.1977175 0.3457033,1.2065612 0.3419316,1.2150564 0.3374854,1.2232145 0.3322553,1.2308961 0.3264143,1.2381227 0.3198926,1.244742 0.3198926,1.244742 0.3119843,1.2508628 0.3037087,1.2564448 0.2949522,1.2612742 0.285897,1.2655187 0.2671455,1.2724064 0.2477891,1.2773813 0.2281051,1.2808292 0.2082366,1.2829845 0.1882818,1.284062 0.1683012,1.2844616z" transform="matrix(1,0,0,-1,4.8148157,2.3201959)" fill="rgb(104,104,104)" fill-rule="nonzero" shaper:cutDepth="0.0000762" stroke-linecap="round" stroke-linejoin="round" /><path d="M0.3577648,1.7176823 L0.3577648,1.480699 -0.0309248,1.480699 -0.0309248,1.480699 -0.0424877,1.4795287 -0.0480748,1.4778981 -0.0532054,1.4751735 -0.0575341,1.4712883 -0.0605503,1.466326 -0.062139,1.4607336 -0.0626267,1.4549377 -0.0626267,1.4549377 -0.0621289,1.4491773 -0.0604359,1.4436523 -0.0573247,1.438782 -0.0530906,1.4348538 -0.0479929,1.4321341 -0.0424728,1.4303942 -0.036786,1.4293807 -0.0310152,1.4289711 0.3745572,1.428971 0.3745572,1.428971 0.381504,1.4289037 0.3883851,1.4298188 0.3949444,1.4321023 0.4006936,1.4359847 0.405083,1.4413542 0.4077654,1.4477628 0.409121,1.4545685 0.4094926,1.4615063 0.4094926,1.7126799 0.4094926,1.7126799 0.4094837,1.7230698 0.4092736,1.728261 0.4080557,1.7332828 0.4080557,1.7332828 0.4043297,1.7406191 0.4017595,1.7438333 0.3986562,1.746567 0.3951308,1.7487263 0.391308,1.7502488 0.3832182,1.751757 0.3832182,1.751757 0.3753813,1.7503408 0.3717062,1.7488286 0.3682832,1.7467347 0.3651865,1.7441698 0.3626014,1.7411489 0.359099,1.7340013 0.359099,1.7340013 0.3580933,1.7300149 0.3577817,1.7259117 0.3577648,1.7176823z" transform="matrix(1,0,0,-1,4.8148157,2.3201959)" fill="rgb(104,104,104)" fill-rule="nonzero" shaper:cutDepth="0.0000762" stroke-linecap="round" stroke-linejoin="round" /><path d="M-3.3512843,-1.9660541 A0.0381,0.0381 180 0,1 -3.2750843,-1.9660541 L-3.2750843,-1.6485541 A0.0381,0.0381 0 0,1 -3.3512843,-1.6485541 L-3.3512843,-1.9660541z" transform="matrix(1,0,0,-1,4.8148157,2.3201959)" fill="rgb(104,104,104)" fill-rule="nonzero" shaper:cutDepth="0.0000762" stroke-linecap="round" stroke-linejoin="round" /><path d="M1.1318157,0.4151959 a0.7874,0.7874 0 1,0 1.5748,0 a0.7874,0.7874 0 1,0 -1.5748,0z M1.2080157,0.4151959 a0.7112,0.7112 0 1,1 1.4224,0 a0.7112,0.7112 0 1,1 -1.4224,0z" transform="matrix(1,0,0,-1,4.8148157,2.3201959)" fill="rgb(104,104,104)" fill-rule="nonzero" shaper:cutDepth="0.0000762" stroke-linecap="round" stroke-linejoin="round" /><path d="M3.7613507,0.8914459 a0.215265,0.215265 0 1,1 0.43053,0 a0.215265,0.215265 0 1,1 -0.43053,0z" transform="matrix(1,0,0,-1,4.8148157,2.3201959)" fill="rgb(255,255,255)" stroke="rgb(0,0,0)" stroke-width="0.0010cm" stroke-linecap="round" stroke-linejoin="round" shaper:cutDepth="0.0015875" /><path d="M-1.2424493,-0.2198041 a0.215265,0.215265 0 1,1 0.43053,0 a0.215265,0.215265 0 1,1 -0.43053,0z" transform="matrix(1,0,0,-1,4.8148157,2.3201959)" fill="rgb(255,255,255)" stroke="rgb(0,0,0)" stroke-width="0.0010cm" stroke-linecap="round" stroke-linejoin="round" shaper:cutDepth="0.0015875" /><path d="M1.2842157,0.4151959 a0.635,0.635 0 1,1 1.27,0 a0.635,0.635 0 1,1 -1.27,0z" transform="matrix(1,0,0,-1,4.8148157,2.3201959)" fill="rgb(255,255,255)" stroke="rgb(0,0,0)" stroke-width="0.0010cm" stroke-linecap="round" stroke-linejoin="round" shaper:cutDepth="0.0015875" /></svg>