M48
; DRILL file {KiCad (5.1.4)-1} date 12/7/2020 8:04:27 AM
; FORMAT={-:-/ absolute / inch / decimal}
; #@! TF.CreationDate,2020-12-07T08:04:27-07:00
; #@! TF.GenerationSoftware,Kicad,Pcbnew,(5.1.4)-1
FMAT,2
INCH
T1C0.0236
%
G90
G05
T1
X7.3709Y-5.7763
X7.4063Y-5.7763
X7.4418Y-5.7763
X7.8751Y-5.5533
X7.8751Y-5.5888
X7.8751Y-5.6242
X5.902Y-5.7762
X5.9375Y-5.7762
X5.9729Y-5.7762
X7.199Y-5.5263
X7.2344Y-5.5263
X7.2699Y-5.5263
X7.0271Y-5.7763
X7.0625Y-5.7763
X7.098Y-5.7763
X7.5313Y-5.5533
X7.5313Y-5.5888
X7.5313Y-5.6242
X6.3388Y-5.5262
X6.3743Y-5.5262
X6.4097Y-5.5262
X7.8866Y-5.6513
X7.922Y-5.6513
X7.9574Y-5.6513
X7.3594Y-5.5533
X7.3594Y-5.5888
X7.3594Y-5.6242
X6.4368Y-5.5532
X6.4368Y-5.5887
X6.4368Y-5.6241
X7.797Y-5.5533
X7.797Y-5.5888
X7.797Y-5.6242
X6.027Y-5.7762
X6.0625Y-5.7762
X6.0979Y-5.7762
X7.9689Y-5.6783
X7.9689Y-5.7138
X7.9689Y-5.7492
X6.2242Y-5.7387
X6.2493Y-5.7137
X6.2743Y-5.6886
X7.2813Y-5.5533
X7.2813Y-5.5888
X7.2813Y-5.6242
X6.0Y-5.5532
X6.0Y-5.5887
X6.0Y-5.6241
X7.1094Y-5.6783
X7.1094Y-5.7138
X7.1094Y-5.7492
X6.2242Y-5.5636
X6.2493Y-5.5887
X6.2743Y-5.6137
X7.0271Y-5.6513
X7.0625Y-5.6513
X7.098Y-5.6513
X6.125Y-5.6782
X6.125Y-5.7137
X6.125Y-5.7491
X6.5114Y-5.5263
X6.5469Y-5.5263
X6.5823Y-5.5263
X7.5313Y-5.6783
X7.5313Y-5.7138
X7.5313Y-5.7492
X7.3709Y-5.6513
X7.4063Y-5.6513
X7.4418Y-5.6513
X5.9124Y-5.5636
X5.9375Y-5.5887
X5.9625Y-5.6137
X6.3118Y-5.6782
X6.3118Y-5.7137
X6.3118Y-5.7491
X7.1876Y-5.6783
X7.1876Y-5.7138
X7.1876Y-5.7492
X6.8438Y-5.5533
X6.8438Y-5.5888
X6.8438Y-5.6242
X5.875Y-5.6782
X5.875Y-5.7137
X5.875Y-5.7491
X6.3492Y-5.6137
X6.3743Y-5.5887
X6.3993Y-5.5636
X6.6833Y-5.7763
X6.7188Y-5.7763
X6.7542Y-5.7763
X6.0374Y-5.6886
X6.0625Y-5.7137
X6.0875Y-5.7387
X7.0271Y-5.5263
X7.0625Y-5.5263
X7.098Y-5.5263
X7.8866Y-5.7763
X7.922Y-5.7763
X7.9574Y-5.7763
X6.3388Y-5.6512
X6.3743Y-5.6512
X6.4097Y-5.6512
X6.5938Y-5.6783
X6.5938Y-5.7138
X6.5938Y-5.7492
X7.7032Y-5.6783
X7.7032Y-5.7138
X7.7032Y-5.7492
X7.6251Y-5.6783
X7.6251Y-5.7138
X7.6251Y-5.7492
X6.125Y-5.5532
X6.125Y-5.5887
X6.125Y-5.6241
X6.6833Y-5.5263
X6.7188Y-5.5263
X6.7542Y-5.5263
X7.1876Y-5.5533
X7.1876Y-5.5888
X7.1876Y-5.6242
X7.199Y-5.7763
X7.2344Y-5.7763
X7.2699Y-5.7763
X6.9375Y-5.6783
X6.9375Y-5.7138
X6.9375Y-5.7492
X6.2138Y-5.6512
X6.2493Y-5.6512
X6.2847Y-5.6512
X7.5428Y-5.6513
X7.5782Y-5.6513
X7.6136Y-5.6513
X7.797Y-5.6783
X7.797Y-5.7138
X7.797Y-5.7492
X5.875Y-5.5532
X5.875Y-5.5887
X5.875Y-5.6241
X7.6251Y-5.5533
X7.6251Y-5.5888
X7.6251Y-5.6242
X6.027Y-5.6512
X6.0625Y-5.6512
X6.0979Y-5.6512
X6.1868Y-5.6782
X6.1868Y-5.7137
X6.1868Y-5.7491
X7.1094Y-5.5533
X7.1094Y-5.5888
X7.1094Y-5.6242
X6.027Y-5.5262
X6.0625Y-5.5262
X6.0979Y-5.5262
X6.8552Y-5.5263
X6.8907Y-5.5263
X6.9261Y-5.5263
X7.7147Y-5.7763
X7.7501Y-5.7763
X7.7855Y-5.7763
X6.8552Y-5.6513
X6.8907Y-5.6513
X6.9261Y-5.6513
X5.902Y-5.6512
X5.9375Y-5.6512
X5.9729Y-5.6512
X6.3492Y-5.6886
X6.3743Y-5.7137
X6.3993Y-5.7387
X7.0157Y-5.6783
X7.0157Y-5.7138
X7.0157Y-5.7492
X6.6719Y-5.5533
X6.6719Y-5.5888
X6.6719Y-5.6242
X6.1868Y-5.5532
X6.1868Y-5.5887
X6.1868Y-5.6241
X6.6719Y-5.6783
X6.6719Y-5.7138
X6.6719Y-5.7492
X7.7147Y-5.6513
X7.7501Y-5.6513
X7.7855Y-5.6513
X7.5428Y-5.5263
X7.5782Y-5.5263
X7.6136Y-5.5263
X7.5428Y-5.7763
X7.5782Y-5.7763
X7.6136Y-5.7763
X5.902Y-5.5262
X5.9375Y-5.5262
X5.9729Y-5.5262
X6.0374Y-5.6137
X6.0625Y-5.5887
X6.0875Y-5.5636
X6.5114Y-5.7763
X6.5469Y-5.7763
X6.5823Y-5.7763
X7.8751Y-5.6783
X7.8751Y-5.7138
X7.8751Y-5.7492
X6.7656Y-5.6783
X6.7656Y-5.7138
X6.7656Y-5.7492
X6.0Y-5.6782
X6.0Y-5.7137
X6.0Y-5.7491
X7.3709Y-5.5263
X7.4063Y-5.5263
X7.4418Y-5.5263
X7.3594Y-5.6783
X7.3594Y-5.7138
X7.3594Y-5.7492
X6.4368Y-5.6782
X6.4368Y-5.7137
X6.4368Y-5.7491
X7.7032Y-5.5533
X7.7032Y-5.5888
X7.7032Y-5.6242
X6.2138Y-5.5262
X6.2493Y-5.5262
X6.2847Y-5.5262
X7.199Y-5.6513
X7.2344Y-5.6513
X7.2699Y-5.6513
X6.3118Y-5.5532
X6.3118Y-5.5887
X6.3118Y-5.6241
X7.4532Y-5.5533
X7.4532Y-5.5888
X7.4532Y-5.6242
X7.4532Y-5.6783
X7.4532Y-5.7138
X7.4532Y-5.7492
X6.2138Y-5.7762
X6.2493Y-5.7762
X6.2847Y-5.7762
X6.9375Y-5.5533
X6.9375Y-5.5888
X6.9375Y-5.6242
X6.5Y-5.6783
X6.5Y-5.7138
X6.5Y-5.7492
X7.2813Y-5.6783
X7.2813Y-5.7138
X7.2813Y-5.7492
X6.8552Y-5.7763
X6.8907Y-5.7763
X6.9261Y-5.7763
X6.6833Y-5.6513
X6.7188Y-5.6513
X6.7542Y-5.6513
X6.5Y-5.5533
X6.5Y-5.5888
X6.5Y-5.6242
X6.8438Y-5.6783
X6.8438Y-5.7138
X6.8438Y-5.7492
X7.9689Y-5.5533
X7.9689Y-5.5888
X7.9689Y-5.6242
X5.9124Y-5.7387
X5.9375Y-5.7137
X5.9625Y-5.6886
X6.5938Y-5.5533
X6.5938Y-5.5888
X6.5938Y-5.6242
X7.8866Y-5.5263
X7.922Y-5.5263
X7.9574Y-5.5263
X7.0157Y-5.5533
X7.0157Y-5.5888
X7.0157Y-5.6242
X7.7147Y-5.5263
X7.7501Y-5.5263
X7.7855Y-5.5263
X6.7656Y-5.5533
X6.7656Y-5.5888
X6.7656Y-5.6242
X6.3388Y-5.7762
X6.3743Y-5.7762
X6.4097Y-5.7762
X6.5114Y-5.6513
X6.5469Y-5.6513
X6.5823Y-5.6513
T0
M30
