0
SECTION
2
HEADER
9
$INSUNITS
70
1
9
$ACADVER
1
AC1014
9
$HANDSEED
5
FFFF
0
ENDSEC
0
SECTION
2
TABLES
0
TABLE
2
VPORT
5
8
100
AcDbSymbolTable
0
ENDTAB
0
TABLE
2
LTYPE
5
5
100
AcDbSymbolTable
0
LTYPE
5
14
100
AcDbSymbolTableRecord
100
AcDbLinetypeTableRecord
2
BYBLOCK
70
0
0
LTYPE
5
15
100
AcDbSymbolTableRecord
100
AcDbLinetypeTableRecord
2
BYLAYER
70
0
0
ENDTAB
0
TABLE
2
LAYER
5
2
100
AcDbSymbolTable
70
2
0
LAYER
5
50
100
AcDbSymbolTableRecord
100
AcDbLayerTableRecord
2
0
70
0
6
CONTINUOUS
0
ENDTAB
0
TABLE
2
STYLE
5
3
100
AcDbSymbolTable
70
1
0
STYLE
5
11
100
AcDbSymbolTableRecord
100
AcDbTextStyleTableRecord
2
STANDARD
70
0
0
ENDTAB
0
TABLE
2
VIEW
5
6
100
AcDbSymbolTable
70
0
0
ENDTAB
0
TABLE
2
UCS
5
7
100
AcDbSymbolTable
70
0
0
ENDTAB
0
TABLE
2
APPID
5
9
100
AcDbSymbolTable
70
2
0
APPID
5
12
100
AcDbSymbolTableRecord
100
AcDbRegAppTableRecord
2
ACAD
70
0
0
ENDTAB
0
TABLE
2
DIMSTYLE
5
A
100
AcDbSymbolTable
70
1
0
ENDTAB
0
TABLE
2
BLOCK_RECORD
5
1
100
AcDbSymbolTable
70
1
0
BLOCK_RECORD
5
1F
100
AcDbSymbolTableRecord
100
AcDbBlockTableRecord
2
*MODEL_SPACE
0
BLOCK_RECORD
5
1B
100
AcDbSymbolTableRecord
100
AcDbBlockTableRecord
2
*PAPER_SPACE
0
ENDTAB
0
ENDSEC
0
SECTION
2
BLOCKS
0
BLOCK
5
20
100
AcDbEntity
100
AcDbBlockBegin
2
*MODEL_SPACE
0
ENDBLK
5
21
100
AcDbEntity
100
AcDbBlockEnd
0
BLOCK
5
1C
100
AcDbEntity
100
AcDbBlockBegin
2
*PAPER_SPACE
0
ENDBLK
5
1D
100
AcDbEntity
100
AcDbBlockEnd
0
ENDSEC
0
SECTION
2
ENTITIES
0
LWPOLYLINE
5
100
100
AcDbEntity
8
0
100
AcDbPolyline
90
8
70
1
43
0.0
10
-9.1064750379209496
20
-9.0654665813535544
10
-13.437183699338243
20
-9.0654665813535704
10
-13.437183699338265
20
9.8687654486468173
10
3.6730525206616855
20
9.8687654486467906
10
3.6730525206617051
20
-9.0654665813535349
10
-0.65765614075560497
20
-9.0654665813535544
10
-0.6576561407556123
20
-2.3725531955266668
10
-9.1064750379209531
20
-2.3725531955266557
0
CIRCLE
5
101
100
AcDbEntity
8
0
100
AcDbCircle
10
-9.5955695261100313
20
-0.65676339843964515
30
0
40
0.062499999999999667
210
0
220
-0
230
1
0
CIRCLE
5
102
100
AcDbEntity
8
0
100
AcDbCircle
10
-9.5955695261100313
20
2.2182366015603581
30
0
40
0.062499999999999667
210
0
220
-0
230
1
0
CIRCLE
5
103
100
AcDbEntity
8
0
100
AcDbCircle
10
-5.5955695261100304
20
-0.65676339843964515
30
0
40
0.062499999999999667
210
0
220
-0
230
1
0
CIRCLE
5
104
100
AcDbEntity
8
0
100
AcDbCircle
10
-5.5955695261100287
20
2.2182366015603581
30
0
40
0.062499999999999667
210
0
220
-0
230
1
0
LWPOLYLINE
5
105
100
AcDbEntity
8
0
100
AcDbPolyline
90
8
70
1
43
0.0
10
-5.9705695261100828
20
2.8432366015604709
10
-9.2205695261100811
20
2.8432366015604713
42
0.41421356237309914
10
-9.3455695261100811
20
2.7182366015604718
10
-9.3455695261100811
20
-0.53176339843952825
42
0.41421356237310036
10
-9.2205695261100811
20
-0.65676339843952802
10
-5.9705695261100828
20
-0.65676339843952836
42
0.41421356237309359
10
-5.8455695261100828
20
-0.53176339843952847
10
-5.8455695261100828
20
2.7182366015604709
42
0.41421356237309342
0
CIRCLE
5
106
100
AcDbEntity
8
0
100
AcDbCircle
10
-13.062183699338256
20
-8.0654665813535562
30
0
40
0.062500000000000597
210
-8.8956221134595548e-48
220
-1.2325951644078309e-32
230
1
0
CIRCLE
5
107
100
AcDbEntity
8
0
100
AcDbCircle
10
-13.062183699338268
20
0.40164943364661543
30
0
40
0.062500000000000597
210
-8.8956221134595548e-48
220
-1.2325951644078309e-32
230
1
0
CIRCLE
5
108
100
AcDbEntity
8
0
100
AcDbCircle
10
-13.062183699338256
20
8.8687654486466787
30
0
40
0.062500000000000597
210
-8.8956221134595548e-48
220
-1.2325951644078309e-32
230
1
0
CIRCLE
5
109
100
AcDbEntity
8
0
100
AcDbCircle
10
-13.062183699338254
20
4.6352074411466218
30
0
40
0.062500000000000597
210
-8.8956221134595548e-48
220
-1.2325951644078309e-32
230
1
0
CIRCLE
5
110
100
AcDbEntity
8
0
100
AcDbCircle
10
-13.062183699338261
20
-3.0654665813534896
30
0
40
0.062500000000000597
210
-8.8956221134595548e-48
220
-1.2325951644078309e-32
230
1
0
CIRCLE
5
111
100
AcDbEntity
8
0
100
AcDbCircle
10
-6.4954186076716258
20
3.4127247905366391
30
0
40
0.0624999999999995
210
0
220
-0
230
1
0
CIRCLE
5
112
100
AcDbEntity
8
0
100
AcDbCircle
10
-11.448830681004798
20
3.4127247905366977
30
0
40
0.062500000000000597
210
-8.8956221134595548e-48
220
-1.2325951644078309e-32
230
1
0
CIRCLE
5
113
100
AcDbEntity
8
0
100
AcDbCircle
10
-9.3564750379209372
20
-3.404705426497816
30
0
40
0.0624999999999995
210
0
220
-0
230
1
0
CIRCLE
5
114
100
AcDbEntity
8
0
100
AcDbCircle
10
-9.3564750379209354
20
-7.5333143503824243
30
0
40
0.0624999999999995
210
0
220
-0
230
1
0
CIRCLE
5
115
100
AcDbEntity
8
0
100
AcDbCircle
10
-4.8820655893382723
20
3.4127247905366307
30
0
40
0.0624999999999995
210
0
220
-0
230
1
0
CIRCLE
5
116
100
AcDbEntity
8
0
100
AcDbCircle
10
-4.8820655893382723
20
8.8687654486467835
30
0
40
0.062500000000000056
210
8.895622113459556e-48
220
1.2325951644078309e-32
230
1
0
CIRCLE
5
117
100
AcDbEntity
8
0
100
AcDbCircle
10
-4.8820655893382741
20
-0.87255319552663613
30
0
40
0.0624999999999995
210
0
220
-0
230
1
0
CIRCLE
5
118
100
AcDbEntity
8
0
100
AcDbCircle
10
-0.40765614075556139
20
-7.5333143503824243
30
0
40
0.06249999999999984
210
8.8956221134595572e-48
220
1.2325951644078309e-32
230
1
0
CIRCLE
5
119
100
AcDbEntity
8
0
100
AcDbCircle
10
-0.40765614075556744
20
-3.4047054264977836
30
0
40
0.06249999999999984
210
8.8956221134595572e-48
220
1.2325951644078309e-32
230
1
0
CIRCLE
5
120
100
AcDbEntity
8
0
100
AcDbCircle
10
1.6846995023284632
20
3.4127247905366587
30
0
40
0.062499999999999778
210
0
220
-0
230
1
0
CIRCLE
5
121
100
AcDbEntity
8
0
100
AcDbCircle
10
-3.268712571004933
20
3.4127247905366369
30
0
40
0.062500000000000056
210
8.895622113459556e-48
220
1.2325951644078309e-32
230
1
0
CIRCLE
5
122
100
AcDbEntity
8
0
100
AcDbCircle
10
3.2980525206617162
20
-3.0654665813534954
30
0
40
0.062500000000000056
210
8.895622113459556e-48
220
1.2325951644078309e-32
230
1
0
CIRCLE
5
123
100
AcDbEntity
8
0
100
AcDbCircle
10
3.2980525206617139
20
4.6352074411466111
30
0
40
0.062500000000000056
210
8.895622113459556e-48
220
1.2325951644078309e-32
230
1
0
CIRCLE
5
124
100
AcDbEntity
8
0
100
AcDbCircle
10
3.2980525206617091
20
8.8687654486467871
30
0
40
0.062500000000000056
210
8.895622113459556e-48
220
1.2325951644078309e-32
230
1
0
CIRCLE
5
125
100
AcDbEntity
8
0
100
AcDbCircle
10
3.2980525206617206
20
0.40164943364655858
30
0
40
0.062500000000000056
210
8.895622113459556e-48
220
1.2325951644078309e-32
230
1
0
CIRCLE
5
126
100
AcDbEntity
8
0
100
AcDbCircle
10
3.2980525206617268
20
-8.0654665813535242
30
0
40
0.062500000000000056
210
8.895622113459556e-48
220
1.2325951644078309e-32
230
1
0
CIRCLE
5
127
100
AcDbEntity
8
0
100
AcDbCircle
10
-4.8820655893382776
20
-2.1225531955266308
30
0
40
0.0624999999999995
210
0
220
-0
230
1
0
CIRCLE
5
128
100
AcDbEntity
8
0
100
AcDbCircle
10
-1.1576561407556105
20
-2.1225531955266348
30
0
40
0.062499999999999778
210
0
220
-0
230
1
0
CIRCLE
5
129
100
AcDbEntity
8
0
100
AcDbCircle
10
-8.6064750379209602
20
-2.1225531955266232
30
0
40
0.0624999999999995
210
0
220
-0
230
1
0
ENDSEC
0
SECTION
2
OBJECTS
0
DICTIONARY
5
C
100
AcDbDictionary
3
ACAD_GROUP
350
D
3
ACAD_MLINESTYLE
350
17
0
DICTIONARY
5
D
100
AcDbDictionary
0
DICTIONARY
5
1A
330
C
100
AcDbDictionary
0
DICTIONARY
5
17
100
AcDbDictionary
0
ENDSEC
0
EOF
