  0
SECTION
  2
HEADER
  9
$ACADVER
  1
AC1009
  9
$EXTMIN
 10
0.0
 20
0.0
 30
0.0
  9
$EXTMAX
 10
1000.0
 20
1000.0
 30
0.0
  9
$FILLMODE
 70
 0
  9
$SPLFRAME
 70
 1
  0
ENDSEC
  0
SECTION
  2
TABLES
  0
TABLE
  2
LAYER
 70
1
  0
LAYER
  2
0
 70
     0
 62
     7
  6
CONTINUOUS
  0
ENDTAB
  0
ENDSEC
  0
SECTION
  2
ENTITIES
  0
POLYLINE
  8
0
 62
     0
 66
     1
 10
0
 20
0
 30
0.0
 70
     1
 40
0
 41
0
  0
VERTEX
  8
0
 10
8.59793
 20
75.5061
 30
0.0
 40
0
 41
0
  0
VERTEX
  8
0
 10
8.61708
 20
75.4728
 30
0.0
 40
0
 41
0
  0
VERTEX
  8
0
 10
8.6659
 20
75.3676
 30
0.0
 40
0
 41
0
  0
VERTEX
  8
0
 10
8.71511
 20
75.2222
 30
0.0
 40
0
 41
0
  0
VERTEX
  8
0
 10
8.74501
 20
75.0714
 30
0.0
 40
0
 41
0
  0
VERTEX
  8
0
 10
8.7551
 20
74.956
 30
0.0
 40
0
 41
0
  0
VERTEX
  8
0
 10
8.7551
 20
74.9175
 30
0.0
 40
0
 41
0
  0
VERTEX
  8
0
 10
8.7551
 20
73.7869
 30
0.0
 40
0
 41
0
  0
VERTEX
  8
0
 10
8.7551
 20
73.7753
 30
0.0
 40
0
 41
0
  0
VERTEX
  8
0
 10
8.74599
 20
73.7401
 30
0.0
 40
0
 41
0
  0
VERTEX
  8
0
 10
8.72114
 20
73.7013
 30
0.0
 40
0
 41
0
  0
VERTEX
  8
0
 10
8.68386
 20
73.674
 30
0.0
 40
0
 41
0
  0
VERTEX
  8
0
 10
8.64942
 20
73.6628
 30
0.0
 40
0
 41
0
  0
VERTEX
  8
0
 10
8.63775
 20
73.6621
 30
0.0
 40
0
 41
0
  0
VERTEX
  8
0
 10
6.93251
 20
73.5574
 30
0.0
 40
0
 41
0
  0
VERTEX
  8
0
 10
6.92421
 20
73.5568
 30
0.0
 40
0
 41
0
  0
VERTEX
  8
0
 10
6.88531
 20
73.5449
 30
0.0
 40
0
 41
0
  0
VERTEX
  8
0
 10
6.852
 20
73.5217
 30
0.0
 40
0
 41
0
  0
VERTEX
  8
0
 10
6.84651
 20
73.5154
 30
0.0
 40
0
 41
0
  0
VERTEX
  8
0
 10
6.84099
 20
73.5092
 30
0.0
 40
0
 41
0
  0
VERTEX
  8
0
 10
6.82194
 20
73.4732
 30
0.0
 40
0
 41
0
  0
VERTEX
  8
0
 10
6.81483
 20
73.4332
 30
0.0
 40
0
 41
0
  0
VERTEX
  8
0
 10
6.81538
 20
73.4249
 30
0.0
 40
0
 41
0
  0
VERTEX
  8
0
 10
6.8221
 20
73.3153
 30
0.0
 40
0
 41
0
  0
VERTEX
  8
0
 10
6.82281
 20
73.3036
 30
0.0
 40
0
 41
0
  0
VERTEX
  8
0
 10
6.81592
 20
73.2681
 30
0.0
 40
0
 41
0
  0
VERTEX
  8
0
 10
6.79351
 20
73.2278
 30
0.0
 40
0
 41
0
  0
VERTEX
  8
0
 10
6.75803
 20
73.1983
 30
0.0
 40
0
 41
0
  0
VERTEX
  8
0
 10
6.72433
 20
73.185
 30
0.0
 40
0
 41
0
  0
VERTEX
  8
0
 10
6.71278
 20
73.1836
 30
0.0
 40
0
 41
0
  0
VERTEX
  8
0
 10
6.60303
 20
73.1699
 30
0.0
 40
0
 41
0
  0
VERTEX
  8
0
 10
6.59093
 20
73.1685
 30
0.0
 40
0
 41
0
  0
VERTEX
  8
0
 10
6.55593
 20
73.1542
 30
0.0
 40
0
 41
0
  0
VERTEX
  8
0
 10
6.51981
 20
73.1228
 30
0.0
 40
0
 41
0
  0
VERTEX
  8
0
 10
6.4981
 20
73.08
 30
0.0
 40
0
 41
0
  0
VERTEX
  8
0
 10
6.49283
 20
73.0426
 30
0.0
 40
0
 41
0
  0
VERTEX
  8
0
 10
6.49436
 20
73.0306
 30
0.0
 40
0
 41
0
  0
VERTEX
  8
0
 10
7.0504
 20
68.555
 30
0.0
 40
0
 41
0
  0
VERTEX
  8
0
 10
8.29476
 20
68.4917
 30
0.0
 40
0
 41
0
  0
VERTEX
  8
0
 10
8.31093
 20
68.4908
 30
0.0
 40
0
 41
0
  0
VERTEX
  8
0
 10
8.36003
 20
68.4969
 30
0.0
 40
0
 41
0
  0
VERTEX
  8
0
 10
8.42074
 20
68.5185
 30
0.0
 40
0
 41
0
  0
VERTEX
  8
0
 10
8.47396
 20
68.5549
 30
0.0
 40
0
 41
0
  0
VERTEX
  8
0
 10
8.50776
 20
68.5908
 30
0.0
 40
0
 41
0
  0
VERTEX
  8
0
 10
8.51665
 20
68.6044
 30
0.0
 40
0
 41
0
  0
VERTEX
  8
0
 10
8.5255
 20
68.6181
 30
0.0
 40
0
 41
0
  0
VERTEX
  8
0
 10
8.55931
 20
68.654
 30
0.0
 40
0
 41
0
  0
VERTEX
  8
0
 10
8.61247
 20
68.6904
 30
0.0
 40
0
 41
0
  0
VERTEX
  8
0
 10
8.67313
 20
68.7121
 30
0.0
 40
0
 41
0
  0
VERTEX
  8
0
 10
8.72211
 20
68.7181
 30
0.0
 40
0
 41
0
  0
VERTEX
  8
0
 10
8.73833
 20
68.7172
 30
0.0
 40
0
 41
0
  0
VERTEX
  8
0
 10
8.75054
 20
68.7164
 30
0.0
 40
0
 41
0
  0
VERTEX
  8
0
 10
8.78683
 20
68.7089
 30
0.0
 40
0
 41
0
  0
VERTEX
  8
0
 10
8.83236
 20
68.6911
 30
0.0
 40
0
 41
0
  0
VERTEX
  8
0
 10
8.87358
 20
68.665
 30
0.0
 40
0
 41
0
  0
VERTEX
  8
0
 10
8.90121
 20
68.6403
 30
0.0
 40
0
 41
0
  0
VERTEX
  8
0
 10
8.90924
 20
68.631
 30
0.0
 40
0
 41
0
  0
VERTEX
  8
0
 10
8.91721
 20
68.6217
 30
0.0
 40
0
 41
0
  0
VERTEX
  8
0
 10
8.9375
 20
68.5907
 30
0.0
 40
0
 41
0
  0
VERTEX
  8
0
 10
8.95714
 20
68.546
 30
0.0
 40
0
 41
0
  0
VERTEX
  8
0
 10
8.96778
 20
68.4983
 30
0.0
 40
0
 41
0
  0
VERTEX
  8
0
 10
8.96983
 20
68.4612
 30
0.0
 40
0
 41
0
  0
VERTEX
  8
0
 10
8.96892
 20
68.449
 30
0.0
 40
0
 41
0
  0
VERTEX
  8
0
 10
8.95469
 20
68.2625
 30
0.0
 40
0
 41
0
  0
VERTEX
  8
0
 10
8.95187
 20
68.2257
 30
0.0
 40
0
 41
0
  0
VERTEX
  8
0
 10
8.92557
 20
68.0435
 30
0.0
 40
0
 41
0
  0
VERTEX
  8
0
 10
8.88303
 20
67.8643
 30
0.0
 40
0
 41
0
  0
VERTEX
  8
0
 10
8.87213
 20
67.8292
 30
0.0
 40
0
 41
0
  0
VERTEX
  8
0
 10
8.09169
 20
65.3113
 30
0.0
 40
0
 41
0
  0
VERTEX
  8
0
 10
8.067
 20
65.2317
 30
0.0
 40
0
 41
0
  0
VERTEX
  8
0
 10
8.00608
 20
64.9885
 30
0.0
 40
0
 41
0
  0
VERTEX
  8
0
 10
7.94824
 20
64.6638
 30
0.0
 40
0
 41
0
  0
VERTEX
  8
0
 10
7.91758
 20
64.3388
 30
0.0
 40
0
 41
0
  0
VERTEX
  8
0
 10
7.91357
 20
64.0149
 30
0.0
 40
0
 41
0
  0
VERTEX
  8
0
 10
7.93565
 20
63.6936
 30
0.0
 40
0
 41
0
  0
VERTEX
  8
0
 10
7.98324
 20
63.3765
 30
0.0
 40
0
 41
0
  0
VERTEX
  8
0
 10
8.05583
 20
63.0651
 30
0.0
 40
0
 41
0
  0
VERTEX
  8
0
 10
8.15283
 20
62.761
 30
0.0
 40
0
 41
0
  0
VERTEX
  8
0
 10
8.27376
 20
62.4653
 30
0.0
 40
0
 41
0
  0
VERTEX
  8
0
 10
8.41803
 20
62.18
 30
0.0
 40
0
 41
0
  0
VERTEX
  8
0
 10
8.58513
 20
61.9063
 30
0.0
 40
0
 41
0
  0
VERTEX
  8
0
 10
8.77442
 20
61.6458
 30
0.0
 40
0
 41
0
  0
VERTEX
  8
0
 10
8.98546
 20
61.4001
 30
0.0
 40
0
 41
0
  0
VERTEX
  8
0
 10
9.21761
 20
61.1706
 30
0.0
 40
0
 41
0
  0
VERTEX
  8
0
 10
9.47038
 20
60.9587
 30
0.0
 40
0
 41
0
  0
VERTEX
  8
0
 10
9.67318
 20
60.8114
 30
0.0
 40
0
 41
0
  0
VERTEX
  8
0
 10
9.74328
 20
60.7661
 30
0.0
 40
0
 41
0
  0
VERTEX
  8
0
 10
21.1418
 20
53.4094
 30
0.0
 40
0
 41
0
  0
VERTEX
  8
0
 10
22.099
 20
53.1197
 30
0.0
 40
0
 41
0
  0
VERTEX
  8
0
 10
21.3181
 20
50.5394
 30
0.0
 40
0
 41
0
  0
VERTEX
  8
0
 10
0
 20
56.9914
 30
0.0
 40
0
 41
0
  0
VERTEX
  8
0
 10
0
 20
79.4321
 30
0.0
 40
0
 41
0
  0
VERTEX
  8
0
 10
0
 20
79.4815
 30
0.0
 40
0
 41
0
  0
VERTEX
  8
0
 10
0.0142144
 20
79.6297
 30
0.0
 40
0
 41
0
  0
VERTEX
  8
0
 10
0.0559353
 20
79.8204
 30
0.0
 40
0
 41
0
  0
VERTEX
  8
0
 10
0.123481
 20
80.0017
 30
0.0
 40
0
 41
0
  0
VERTEX
  8
0
 10
0.215332
 20
80.1708
 30
0.0
 40
0
 41
0
  0
VERTEX
  8
0
 10
0.329861
 20
80.3256
 30
0.0
 40
0
 41
0
  0
VERTEX
  8
0
 10
0.465494
 20
80.4633
 30
0.0
 40
0
 41
0
  0
VERTEX
  8
0
 10
0.620714
 20
80.5818
 30
0.0
 40
0
 41
0
  0
VERTEX
  8
0
 10
0.749078
 20
80.6574
 30
0.0
 40
0
 41
0
  0
VERTEX
  8
0
 10
0.793892
 20
80.6782
 30
0.0
 40
0
 41
0
  0
VERTEX
  8
0
 10
3.45958
 20
81.9213
 30
0.0
 40
0
 41
0
  0
VERTEX
  8
0
 10
3.51878
 20
81.9489
 30
0.0
 40
0
 41
0
  0
VERTEX
  8
0
 10
3.70692
 20
82.0092
 30
0.0
 40
0
 41
0
  0
VERTEX
  8
0
 10
3.95953
 20
82.0479
 30
0.0
 40
0
 41
0
  0
VERTEX
  8
0
 10
4.2111
 20
82.0396
 30
0.0
 40
0
 41
0
  0
VERTEX
  8
0
 10
4.45535
 20
81.9861
 30
0.0
 40
0
 41
0
  0
VERTEX
  8
0
 10
4.68593
 20
81.8894
 30
0.0
 40
0
 41
0
  0
VERTEX
  8
0
 10
4.89654
 20
81.7515
 30
0.0
 40
0
 41
0
  0
VERTEX
  8
0
 10
5.08089
 20
81.5744
 30
0.0
 40
0
 41
0
  0
VERTEX
  8
0
 10
5.20019
 20
81.4169
 30
0.0
 40
0
 41
0
  0
VERTEX
  8
0
 10
5.23275
 20
81.3603
 30
0.0
 40
0
 41
0
  0
VERTEX
  8
0
 10
8.59793
 20
75.5061
 30
0.0
 40
0
 41
0
  0
SEQEND
 8
0
  0
POLYLINE
  8
0
 62
     0
 66
     1
 10
0
 20
0
 30
0.0
 70
     1
 40
0
 41
0
  0
VERTEX
  8
0
 10
0.605469
 20
79.1807
 30
0.0
 40
0
 41
0
  0
VERTEX
  8
0
 10
0.605469
 20
79.209
 30
0.0
 40
0
 41
0
  0
VERTEX
  8
0
 10
0.613607
 20
79.2939
 30
0.0
 40
0
 41
0
  0
VERTEX
  8
0
 10
0.637478
 20
79.4032
 30
0.0
 40
0
 41
0
  0
VERTEX
  8
0
 10
0.676161
 20
79.5069
 30
0.0
 40
0
 41
0
  0
VERTEX
  8
0
 10
0.728787
 20
79.6038
 30
0.0
 40
0
 41
0
  0
VERTEX
  8
0
 10
0.794379
 20
79.6924
 30
0.0
 40
0
 41
0
  0
VERTEX
  8
0
 10
0.872071
 20
79.7714
 30
0.0
 40
0
 41
0
  0
VERTEX
  8
0
 10
0.960938
 20
79.839
 30
0.0
 40
0
 41
0
  0
VERTEX
  8
0
 10
1.03445
 20
79.8824
 30
0.0
 40
0
 41
0
  0
VERTEX
  8
0
 10
1.06011
 20
79.8943
 30
0.0
 40
0
 41
0
  0
VERTEX
  8
0
 10
1.39453
 20
80.0503
 30
0.0
 40
0
 41
0
  0
VERTEX
  8
0
 10
1.41585
 20
80.0603
 30
0.0
 40
0
 41
0
  0
VERTEX
  8
0
 10
1.52897
 20
80.0756
 30
0.0
 40
0
 41
0
  0
VERTEX
  8
0
 10
1.63921
 20
80.0456
 30
0.0
 40
0
 41
0
  0
VERTEX
  8
0
 10
1.65907
 20
80.0329
 30
0.0
 40
0
 41
0
  0
VERTEX
  8
0
 10
1.67356
 20
80.0238
 30
0.0
 40
0
 41
0
  0
VERTEX
  8
0
 10
1.71246
 20
79.9885
 30
0.0
 40
0
 41
0
  0
VERTEX
  8
0
 10
1.75261
 20
79.9331
 30
0.0
 40
0
 41
0
  0
VERTEX
  8
0
 10
1.77778
 20
79.8694
 30
0.0
 40
0
 41
0
  0
VERTEX
  8
0
 10
1.78657
 20
79.8178
 30
0.0
 40
0
 41
0
  0
VERTEX
  8
0
 10
1.78657
 20
79.8006
 30
0.0
 40
0
 41
0
  0
VERTEX
  8
0
 10
1.78657
 20
76.2957
 30
0.0
 40
0
 41
0
  0
VERTEX
  8
0
 10
1.78657
 20
76.2689
 30
0.0
 40
0
 41
0
  0
VERTEX
  8
0
 10
1.76486
 20
76.1885
 30
0.0
 40
0
 41
0
  0
VERTEX
  8
0
 10
1.70583
 20
76.1008
 30
0.0
 40
0
 41
0
  0
VERTEX
  8
0
 10
1.61822
 20
76.0418
 30
0.0
 40
0
 41
0
  0
VERTEX
  8
0
 10
1.53776
 20
76.0201
 30
0.0
 40
0
 41
0
  0
VERTEX
  8
0
 10
1.51096
 20
76.0201
 30
0.0
 40
0
 41
0
  0
VERTEX
  8
0
 10
0.881076
 20
76.0201
 30
0.0
 40
0
 41
0
  0
VERTEX
  8
0
 10
0.867512
 20
76.0201
 30
0.0
 40
0
 41
0
  0
VERTEX
  8
0
 10
0.826986
 20
76.0254
 30
0.0
 40
0
 41
0
  0
VERTEX
  8
0
 10
0.775553
 20
76.0411
 30
0.0
 40
0
 41
0
  0
VERTEX
  8
0
 10
0.728136
 20
76.0664
 30
0.0
 40
0
 41
0
  0
VERTEX
  8
0
 10
0.695692
 20
76.0912
 30
0.0
 40
0
 41
0
  0
VERTEX
  8
0
 10
0.686199
 20
76.1007
 30
0.0
 40
0
 41
0
  0
VERTEX
  8
0
 10
0.67665
 20
76.1103
 30
0.0
 40
0
 41
0
  0
VERTEX
  8
0
 10
0.651747
 20
76.1428
 30
0.0
 40
0
 41
0
  0
VERTEX
  8
0
 10
0.626411
 20
76.1903
 30
0.0
 40
0
 41
0
  0
VERTEX
  8
0
 10
0.610786
 20
76.2417
 30
0.0
 40
0
 41
0
  0
VERTEX
  8
0
 10
0.605469
 20
76.2822
 30
0.0
 40
0
 41
0
  0
VERTEX
  8
0
 10
0.605469
 20
76.2957
 30
0.0
 40
0
 41
0
  0
VERTEX
  8
0
 10
0.605469
 20
79.1807
 30
0.0
 40
0
 41
0
  0
SEQEND
 8
0
  0
POLYLINE
  8
0
 62
     0
 66
     1
 10
0
 20
0
 30
0.0
 70
     1
 40
0
 41
0
  0
VERTEX
  8
0
 10
3.69726
 20
58.7954
 30
0.0
 40
0
 41
0
  0
VERTEX
  8
0
 10
3.39947
 20
57.5057
 30
0.0
 40
0
 41
0
  0
VERTEX
  8
0
 10
3.39621
 20
57.4915
 30
0.0
 40
0
 41
0
  0
VERTEX
  8
0
 10
3.39714
 20
57.4469
 30
0.0
 40
0
 41
0
  0
VERTEX
  8
0
 10
3.41558
 20
57.3931
 30
0.0
 40
0
 41
0
  0
VERTEX
  8
0
 10
3.45199
 20
57.3493
 30
0.0
 40
0
 41
0
  0
VERTEX
  8
0
 10
3.48964
 20
57.3253
 30
0.0
 40
0
 41
0
  0
VERTEX
  8
0
 10
3.50336
 20
57.3207
 30
0.0
 40
0
 41
0
  0
VERTEX
  8
0
 10
6.01818
 20
56.4875
 30
0.0
 40
0
 41
0
  0
VERTEX
  8
0
 10
6.02869
 20
56.484
 30
0.0
 40
0
 41
0
  0
VERTEX
  8
0
 10
6.08279
 20
56.4803
 30
0.0
 40
0
 41
0
  0
VERTEX
  8
0
 10
6.13519
 20
56.4943
 30
0.0
 40
0
 41
0
  0
VERTEX
  8
0
 10
6.14486
 20
56.4997
 30
0.0
 40
0
 41
0
  0
VERTEX
  8
0
 10
6.15451
 20
56.5051
 30
0.0
 40
0
 41
0
  0
VERTEX
  8
0
 10
6.19374
 20
56.5426
 30
0.0
 40
0
 41
0
  0
VERTEX
  8
0
 10
6.21869
 20
56.5908
 30
0.0
 40
0
 41
0
  0
VERTEX
  8
0
 10
6.22119
 20
56.6015
 30
0.0
 40
0
 41
0
  0
VERTEX
  8
0
 10
6.82878
 20
59.2335
 30
0.0
 40
0
 41
0
  0
VERTEX
  8
0
 10
6.83479
 20
59.2596
 30
0.0
 40
0
 41
0
  0
VERTEX
  8
0
 10
6.83176
 20
59.3429
 30
0.0
 40
0
 41
0
  0
VERTEX
  8
0
 10
6.79394
 20
59.4415
 30
0.0
 40
0
 41
0
  0
VERTEX
  8
0
 10
6.7219
 20
59.5188
 30
0.0
 40
0
 41
0
  0
VERTEX
  8
0
 10
6.64839
 20
59.5581
 30
0.0
 40
0
 41
0
  0
VERTEX
  8
0
 10
6.62229
 20
59.564
 30
0.0
 40
0
 41
0
  0
VERTEX
  8
0
 10
3.03857
 20
60.3914
 30
0.0
 40
0
 41
0
  0
VERTEX
  8
0
 10
1.18235
 20
60.2085
 30
0.0
 40
0
 41
0
  0
VERTEX
  8
0
 10
1.16911
 20
60.2071
 30
0.0
 40
0
 41
0
  0
VERTEX
  8
0
 10
1.13037
 20
60.1942
 30
0.0
 40
0
 41
0
  0
VERTEX
  8
0
 10
1.08735
 20
60.164
 30
0.0
 40
0
 41
0
  0
VERTEX
  8
0
 10
1.05659
 20
60.1215
 30
0.0
 40
0
 41
0
  0
VERTEX
  8
0
 10
1.04286
 20
60.0831
 30
0.0
 40
0
 41
0
  0
VERTEX
  8
0
 10
1.04134
 20
60.0699
 30
0.0
 40
0
 41
0
  0
VERTEX
  8
0
 10
1.03982
 20
60.0567
 30
0.0
 40
0
 41
0
  0
VERTEX
  8
0
 10
1.04438
 20
60.0161
 30
0.0
 40
0
 41
0
  0
VERTEX
  8
0
 10
1.06462
 20
59.9676
 30
0.0
 40
0
 41
0
  0
VERTEX
  8
0
 10
1.09961
 20
59.9286
 30
0.0
 40
0
 41
0
  0
VERTEX
  8
0
 10
1.13433
 20
59.9069
 30
0.0
 40
0
 41
0
  0
VERTEX
  8
0
 10
1.14692
 20
59.9026
 30
0.0
 40
0
 41
0
  0
VERTEX
  8
0
 10
3.53435
 20
59.0883
 30
0.0
 40
0
 41
0
  0
VERTEX
  8
0
 10
3.55588
 20
59.081
 30
0.0
 40
0
 41
0
  0
VERTEX
  8
0
 10
3.61501
 20
59.0426
 30
0.0
 40
0
 41
0
  0
VERTEX
  8
0
 10
3.6721
 20
58.9732
 30
0.0
 40
0
 41
0
  0
VERTEX
  8
0
 10
3.70101
 20
58.8881
 30
0.0
 40
0
 41
0
  0
VERTEX
  8
0
 10
3.70236
 20
58.8176
 30
0.0
 40
0
 41
0
  0
VERTEX
  8
0
 10
3.69726
 20
58.7954
 30
0.0
 40
0
 41
0
  0
SEQEND
 8
0
  0
POLYLINE
  8
0
 62
     0
 66
     1
 10
0
 20
0
 30
0.0
 70
     1
 40
0
 41
0
  0
VERTEX
  8
0
 10
0.644422
 20
72.7579
 30
0.0
 40
0
 41
0
  0
VERTEX
  8
0
 10
2.16618
 20
70.361
 30
0.0
 40
0
 41
0
  0
VERTEX
  8
0
 10
2.17497
 20
70.3472
 30
0.0
 40
0
 41
0
  0
VERTEX
  8
0
 10
2.20817
 20
70.3097
 30
0.0
 40
0
 41
0
  0
VERTEX
  8
0
 10
2.26042
 20
70.2704
 30
0.0
 40
0
 41
0
  0
VERTEX
  8
0
 10
2.32047
 20
70.2446
 30
0.0
 40
0
 41
0
  0
VERTEX
  8
0
 10
2.36942
 20
70.2342
 30
0.0
 40
0
 41
0
  0
VERTEX
  8
0
 10
2.38585
 20
70.2335
 30
0.0
 40
0
 41
0
  0
VERTEX
  8
0
 10
2.40224
 20
70.2326
 30
0.0
 40
0
 41
0
  0
VERTEX
  8
0
 10
2.45193
 20
70.2383
 30
0.0
 40
0
 41
0
  0
VERTEX
  8
0
 10
2.51417
 20
70.2585
 30
0.0
 40
0
 41
0
  0
VERTEX
  8
0
 10
2.56993
 20
70.2926
 30
0.0
 40
0
 41
0
  0
VERTEX
  8
0
 10
2.6065
 20
70.3268
 30
0.0
 40
0
 41
0
  0
VERTEX
  8
0
 10
2.6166
 20
70.3397
 30
0.0
 40
0
 41
0
  0
VERTEX
  8
0
 10
4.93767
 20
73.3314
 30
0.0
 40
0
 41
0
  0
VERTEX
  8
0
 10
4.94938
 20
73.3465
 30
0.0
 40
0
 41
0
  0
VERTEX
  8
0
 10
4.97597
 20
73.3986
 30
0.0
 40
0
 41
0
  0
VERTEX
  8
0
 10
4.99403
 20
73.4722
 30
0.0
 40
0
 41
0
  0
VERTEX
  8
0
 10
4.99132
 20
73.5481
 30
0.0
 40
0
 41
0
  0
VERTEX
  8
0
 10
4.97581
 20
73.6044
 30
0.0
 40
0
 41
0
  0
VERTEX
  8
0
 10
4.96739
 20
73.6215
 30
0.0
 40
0
 41
0
  0
VERTEX
  8
0
 10
4.95899
 20
73.6388
 30
0.0
 40
0
 41
0
  0
VERTEX
  8
0
 10
4.92399
 20
73.6856
 30
0.0
 40
0
 41
0
  0
VERTEX
  8
0
 10
4.86572
 20
73.7343
 30
0.0
 40
0
 41
0
  0
VERTEX
  8
0
 10
4.79639
 20
73.7651
 30
0.0
 40
0
 41
0
  0
VERTEX
  8
0
 10
4.73899
 20
73.776
 30
0.0
 40
0
 41
0
  0
VERTEX
  8
0
 10
4.71989
 20
73.776
 30
0.0
 40
0
 41
0
  0
VERTEX
  8
0
 10
0.881076
 20
73.776
 30
0.0
 40
0
 41
0
  0
VERTEX
  8
0
 10
0.854221
 20
73.776
 30
0.0
 40
0
 41
0
  0
VERTEX
  8
0
 10
0.773762
 20
73.7543
 30
0.0
 40
0
 41
0
  0
VERTEX
  8
0
 10
0.686143
 20
73.6953
 30
0.0
 40
0
 41
0
  0
VERTEX
  8
0
 10
0.627115
 20
73.6076
 30
0.0
 40
0
 41
0
  0
VERTEX
  8
0
 10
0.605469
 20
73.5272
 30
0.0
 40
0
 41
0
  0
VERTEX
  8
0
 10
0.605469
 20
73.5004
 30
0.0
 40
0
 41
0
  0
VERTEX
  8
0
 10
0.605469
 20
72.8919
 30
0.0
 40
0
 41
0
  0
VERTEX
  8
0
 10
0.605469
 20
72.8746
 30
0.0
 40
0
 41
0
  0
VERTEX
  8
0
 10
0.615397
 20
72.8222
 30
0.0
 40
0
 41
0
  0
VERTEX
  8
0
 10
0.638021
 20
72.7681
 30
0.0
 40
0
 41
0
  0
VERTEX
  8
0
 10
0.644422
 20
72.7579
 30
0.0
 40
0
 41
0
  0
SEQEND
 8
0
  0
POLYLINE
  8
0
 62
     0
 66
     1
 10
0
 20
0
 30
0.0
 70
     1
 40
0
 41
0
  0
VERTEX
  8
0
 10
2.70437
 20
69.5132
 30
0.0
 40
0
 41
0
  0
VERTEX
  8
0
 10
2.69308
 20
69.531
 30
0.0
 40
0
 41
0
  0
VERTEX
  8
0
 10
2.67036
 20
69.5912
 30
0.0
 40
0
 41
0
  0
VERTEX
  8
0
 10
2.66168
 20
69.6739
 30
0.0
 40
0
 41
0
  0
VERTEX
  8
0
 10
2.67811
 20
69.7556
 30
0.0
 40
0
 41
0
  0
VERTEX
  8
0
 10
2.70637
 20
69.8133
 30
0.0
 40
0
 41
0
  0
VERTEX
  8
0
 10
2.71929
 20
69.8299
 30
0.0
 40
0
 41
0
  0
VERTEX
  8
0
 10
5.36501
 20
73.2401
 30
0.0
 40
0
 41
0
  0
VERTEX
  8
0
 10
5.37711
 20
73.2557
 30
0.0
 40
0
 41
0
  0
VERTEX
  8
0
 10
5.42269
 20
73.2956
 30
0.0
 40
0
 41
0
  0
VERTEX
  8
0
 10
5.49235
 20
73.3315
 30
0.0
 40
0
 41
0
  0
VERTEX
  8
0
 10
5.56928
 20
73.3464
 30
0.0
 40
0
 41
0
  0
VERTEX
  8
0
 10
5.62972
 20
73.3435
 30
0.0
 40
0
 41
0
  0
VERTEX
  8
0
 10
5.64893
 20
73.3386
 30
0.0
 40
0
 41
0
  0
VERTEX
  8
0
 10
5.66808
 20
73.3339
 30
0.0
 40
0
 41
0
  0
VERTEX
  8
0
 10
5.72293
 20
73.3085
 30
0.0
 40
0
 41
0
  0
VERTEX
  8
0
 10
5.78407
 20
73.2593
 30
0.0
 40
0
 41
0
  0
VERTEX
  8
0
 10
5.82894
 20
73.195
 30
0.0
 40
0
 41
0
  0
VERTEX
  8
0
 10
5.85069
 20
73.1386
 30
0.0
 40
0
 41
0
  0
VERTEX
  8
0
 10
5.85417
 20
73.119
 30
0.0
 40
0
 41
0
  0
VERTEX
  8
0
 10
6.72689
 20
68.1793
 30
0.0
 40
0
 41
0
  0
VERTEX
  8
0
 10
6.66238
 20
66.7935
 30
0.0
 40
0
 41
0
  0
VERTEX
  8
0
 10
4.83892
 20
66.1511
 30
0.0
 40
0
 41
0
  0
VERTEX
  8
0
 10
2.70437
 20
69.5132
 30
0.0
 40
0
 41
0
  0
SEQEND
 8
0
  0
POLYLINE
  8
0
 62
     0
 66
     1
 10
0
 20
0
 30
0.0
 70
     1
 40
0
 41
0
  0
VERTEX
  8
0
 10
17.1142
 20
54.5424
 30
0.0
 40
0
 41
0
  0
VERTEX
  8
0
 10
17.1311
 20
54.5444
 30
0.0
 40
0
 41
0
  0
VERTEX
  8
0
 10
17.1828
 20
54.5418
 30
0.0
 40
0
 41
0
  0
VERTEX
  8
0
 10
17.2481
 20
54.5246
 30
0.0
 40
0
 41
0
  0
VERTEX
  8
0
 10
17.3072
 20
54.4921
 30
0.0
 40
0
 41
0
  0
VERTEX
  8
0
 10
17.3464
 20
54.4583
 30
0.0
 40
0
 41
0
  0
VERTEX
  8
0
 10
17.3574
 20
54.4453
 30
0.0
 40
0
 41
0
  0
VERTEX
  8
0
 10
17.3722
 20
54.4275
 30
0.0
 40
0
 41
0
  0
VERTEX
  8
0
 10
17.4158
 20
54.3236
 30
0.0
 40
0
 41
0
  0
VERTEX
  8
0
 10
17.4162
 20
54.2111
 30
0.0
 40
0
 41
0
  0
VERTEX
  8
0
 10
17.4096
 20
54.1888
 30
0.0
 40
0
 41
0
  0
VERTEX
  8
0
 10
17.1367
 20
53.2872
 30
0.0
 40
0
 41
0
  0
VERTEX
  8
0
 10
17.1328
 20
53.2743
 30
0.0
 40
0
 41
0
  0
VERTEX
  8
0
 10
17.1158
 20
53.2371
 30
0.0
 40
0
 41
0
  0
VERTEX
  8
0
 10
17.0861
 20
53.1924
 30
0.0
 40
0
 41
0
  0
VERTEX
  8
0
 10
17.0481
 20
53.1543
 30
0.0
 40
0
 41
0
  0
VERTEX
  8
0
 10
17.0149
 20
53.1304
 30
0.0
 40
0
 41
0
  0
VERTEX
  8
0
 10
17.0029
 20
53.124
 30
0.0
 40
0
 41
0
  0
VERTEX
  8
0
 10
16.9911
 20
53.1178
 30
0.0
 40
0
 41
0
  0
VERTEX
  8
0
 10
16.9528
 20
53.1033
 30
0.0
 40
0
 41
0
  0
VERTEX
  8
0
 10
16.9
 20
53.0928
 30
0.0
 40
0
 41
0
  0
VERTEX
  8
0
 10
16.8463
 20
53.0928
 30
0.0
 40
0
 41
0
  0
VERTEX
  8
0
 10
16.806
 20
53.0994
 30
0.0
 40
0
 41
0
  0
VERTEX
  8
0
 10
16.7931
 20
53.1033
 30
0.0
 40
0
 41
0
  0
VERTEX
  8
0
 10
14.7128
 20
53.7329
 30
0.0
 40
0
 41
0
  0
VERTEX
  8
0
 10
14.6904
 20
53.7397
 30
0.0
 40
0
 41
0
  0
VERTEX
  8
0
 10
14.6279
 20
53.7757
 30
0.0
 40
0
 41
0
  0
VERTEX
  8
0
 10
14.5642
 20
53.8425
 30
0.0
 40
0
 41
0
  0
VERTEX
  8
0
 10
14.5261
 20
53.9267
 30
0.0
 40
0
 41
0
  0
VERTEX
  8
0
 10
14.5161
 20
53.9981
 30
0.0
 40
0
 41
0
  0
VERTEX
  8
0
 10
14.5182
 20
54.0214
 30
0.0
 40
0
 41
0
  0
VERTEX
  8
0
 10
14.5203
 20
54.0446
 30
0.0
 40
0
 41
0
  0
VERTEX
  8
0
 10
14.5428
 20
54.1131
 30
0.0
 40
0
 41
0
  0
VERTEX
  8
0
 10
14.5953
 20
54.189
 30
0.0
 40
0
 41
0
  0
VERTEX
  8
0
 10
14.6699
 20
54.2436
 30
0.0
 40
0
 41
0
  0
VERTEX
  8
0
 10
14.7378
 20
54.2679
 30
0.0
 40
0
 41
0
  0
VERTEX
  8
0
 10
14.761
 20
54.2706
 30
0.0
 40
0
 41
0
  0
VERTEX
  8
0
 10
17.1142
 20
54.5424
 30
0.0
 40
0
 41
0
  0
SEQEND
 8
0
  0
POLYLINE
  8
0
 62
     0
 66
     1
 10
0
 20
0
 30
0.0
 70
     1
 40
0
 41
0
  0
VERTEX
  8
0
 10
8.19362
 20
59.7543
 30
0.0
 40
0
 41
0
  0
VERTEX
  8
0
 10
8.19943
 20
59.7736
 30
0.0
 40
0
 41
0
  0
VERTEX
  8
0
 10
8.22846
 20
59.8281
 30
0.0
 40
0
 41
0
  0
VERTEX
  8
0
 10
8.28207
 20
59.8872
 30
0.0
 40
0
 41
0
  0
VERTEX
  8
0
 10
8.35032
 20
59.9285
 30
0.0
 40
0
 41
0
  0
VERTEX
  8
0
 10
8.40918
 20
59.9467
 30
0.0
 40
0
 41
0
  0
VERTEX
  8
0
 10
8.42925
 20
59.9486
 30
0.0
 40
0
 41
0
  0
VERTEX
  8
0
 10
8.44928
 20
59.9507
 30
0.0
 40
0
 41
0
  0
VERTEX
  8
0
 10
8.51058
 20
59.945
 30
0.0
 40
0
 41
0
  0
VERTEX
  8
0
 10
8.58583
 20
59.9183
 30
0.0
 40
0
 41
0
  0
VERTEX
  8
0
 10
8.65033
 20
59.8713
 30
0.0
 40
0
 41
0
  0
VERTEX
  8
0
 10
8.68978
 20
59.824
 30
0.0
 40
0
 41
0
  0
VERTEX
  8
0
 10
8.69943
 20
59.8062
 30
0.0
 40
0
 41
0
  0
VERTEX
  8
0
 10
11.017
 20
55.5503
 30
0.0
 40
0
 41
0
  0
VERTEX
  8
0
 10
11.0267
 20
55.5325
 30
0.0
 40
0
 41
0
  0
VERTEX
  8
0
 10
11.045
 20
55.4732
 30
0.0
 40
0
 41
0
  0
VERTEX
  8
0
 10
11.0494
 20
55.3931
 30
0.0
 40
0
 41
0
  0
VERTEX
  8
0
 10
11.0304
 20
55.3151
 30
0.0
 40
0
 41
0
  0
VERTEX
  8
0
 10
11.0015
 20
55.2603
 30
0.0
 40
0
 41
0
  0
VERTEX
  8
0
 10
10.9888
 20
55.2446
 30
0.0
 40
0
 41
0
  0
VERTEX
  8
0
 10
10.976
 20
55.2289
 30
0.0
 40
0
 41
0
  0
VERTEX
  8
0
 10
10.9281
 20
55.1893
 30
0.0
 40
0
 41
0
  0
VERTEX
  8
0
 10
10.8556
 20
55.155
 30
0.0
 40
0
 41
0
  0
VERTEX
  8
0
 10
10.7763
 20
55.1429
 30
0.0
 40
0
 41
0
  0
VERTEX
  8
0
 10
10.7145
 20
55.1487
 30
0.0
 40
0
 41
0
  0
VERTEX
  8
0
 10
10.6952
 20
55.1547
 30
0.0
 40
0
 41
0
  0
VERTEX
  8
0
 10
7.39199
 20
56.1544
 30
0.0
 40
0
 41
0
  0
VERTEX
  8
0
 10
7.36632
 20
56.1622
 30
0.0
 40
0
 41
0
  0
VERTEX
  8
0
 10
7.29557
 20
56.2064
 30
0.0
 40
0
 41
0
  0
VERTEX
  8
0
 10
7.22885
 20
56.2882
 30
0.0
 40
0
 41
0
  0
VERTEX
  8
0
 10
7.19769
 20
56.3892
 30
0.0
 40
0
 41
0
  0
VERTEX
  8
0
 10
7.20031
 20
56.4725
 30
0.0
 40
0
 41
0
  0
VERTEX
  8
0
 10
7.20806
 20
56.4981
 30
0.0
 40
0
 41
0
  0
VERTEX
  8
0
 10
8.19362
 20
59.7543
 30
0.0
 40
0
 41
0
  0
SEQEND
 8
0
  0
POLYLINE
  8
0
 62
     0
 66
     1
 10
0
 20
0
 30
0.0
 70
     1
 40
0
 41
0
  0
VERTEX
  8
0
 10
16.6238
 20
55.1756
 30
0.0
 40
0
 41
0
  0
VERTEX
  8
0
 10
16.6414
 20
55.1642
 30
0.0
 40
0
 41
0
  0
VERTEX
  8
0
 10
16.6874
 20
55.119
 30
0.0
 40
0
 41
0
  0
VERTEX
  8
0
 10
16.7299
 20
55.0474
 30
0.0
 40
0
 41
0
  0
VERTEX
  8
0
 10
16.749
 20
54.9664
 30
0.0
 40
0
 41
0
  0
VERTEX
  8
0
 10
16.7475
 20
54.9021
 30
0.0
 40
0
 41
0
  0
VERTEX
  8
0
 10
16.7428
 20
54.8815
 30
0.0
 40
0
 41
0
  0
VERTEX
  8
0
 10
16.7381
 20
54.8611
 30
0.0
 40
0
 41
0
  0
VERTEX
  8
0
 10
16.7108
 20
54.8026
 30
0.0
 40
0
 41
0
  0
VERTEX
  8
0
 10
16.6578
 20
54.7385
 30
0.0
 40
0
 41
0
  0
VERTEX
  8
0
 10
16.5881
 20
54.6931
 30
0.0
 40
0
 41
0
  0
VERTEX
  8
0
 10
16.5268
 20
54.6728
 30
0.0
 40
0
 41
0
  0
VERTEX
  8
0
 10
16.506
 20
54.6703
 30
0.0
 40
0
 41
0
  0
VERTEX
  8
0
 10
13.5103
 20
54.3242
 30
0.0
 40
0
 41
0
  0
VERTEX
  8
0
 10
13.5018
 20
54.3232
 30
0.0
 40
0
 41
0
  0
VERTEX
  8
0
 10
13.4174
 20
54.3307
 30
0.0
 40
0
 41
0
  0
VERTEX
  8
0
 10
13.4092
 20
54.3332
 30
0.0
 40
0
 41
0
  0
VERTEX
  8
0
 10
11.7049
 20
54.849
 30
0.0
 40
0
 41
0
  0
VERTEX
  8
0
 10
11.6933
 20
54.8525
 30
0.0
 40
0
 41
0
  0
VERTEX
  8
0
 10
11.6598
 20
54.8676
 30
0.0
 40
0
 41
0
  0
VERTEX
  8
0
 10
11.6195
 20
54.8944
 30
0.0
 40
0
 41
0
  0
VERTEX
  8
0
 10
11.5852
 20
54.9285
 30
0.0
 40
0
 41
0
  0
VERTEX
  8
0
 10
11.5635
 20
54.9581
 30
0.0
 40
0
 41
0
  0
VERTEX
  8
0
 10
11.5578
 20
54.9688
 30
0.0
 40
0
 41
0
  0
VERTEX
  8
0
 10
9.15588
 20
59.3797
 30
0.0
 40
0
 41
0
  0
VERTEX
  8
0
 10
9.14501
 20
59.3996
 30
0.0
 40
0
 41
0
  0
VERTEX
  8
0
 10
9.12597
 20
59.4665
 30
0.0
 40
0
 41
0
  0
VERTEX
  8
0
 10
9.12587
 20
59.556
 30
0.0
 40
0
 41
0
  0
VERTEX
  8
0
 10
9.15446
 20
59.6408
 30
0.0
 40
0
 41
0
  0
VERTEX
  8
0
 10
9.19385
 20
59.6982
 30
0.0
 40
0
 41
0
  0
VERTEX
  8
0
 10
9.21044
 20
59.7136
 30
0.0
 40
0
 41
0
  0
VERTEX
  8
0
 10
9.227
 20
59.7289
 30
0.0
 40
0
 41
0
  0
VERTEX
  8
0
 10
9.28711
 20
59.7639
 30
0.0
 40
0
 41
0
  0
VERTEX
  8
0
 10
9.37381
 20
59.7861
 30
0.0
 40
0
 41
0
  0
VERTEX
  8
0
 10
9.463
 20
59.7793
 30
0.0
 40
0
 41
0
  0
VERTEX
  8
0
 10
9.52832
 20
59.7554
 30
0.0
 40
0
 41
0
  0
VERTEX
  8
0
 10
9.54736
 20
59.7431
 30
0.0
 40
0
 41
0
  0
VERTEX
  8
0
 10
16.6238
 20
55.1756
 30
0.0
 40
0
 41
0
  0
SEQEND
 8
0
  0
POLYLINE
  8
0
 62
     0
 66
     1
 10
0
 20
0
 30
0.0
 70
     1
 40
0
 41
0
  0
VERTEX
  8
0
 10
0.737468
 20
65.2594
 30
0.0
 40
0
 41
0
  0
VERTEX
  8
0
 10
6.17681
 20
62.3469
 30
0.0
 40
0
 41
0
  0
VERTEX
  8
0
 10
6.19661
 20
62.3364
 30
0.0
 40
0
 41
0
  0
VERTEX
  8
0
 10
6.26324
 20
62.3179
 30
0.0
 40
0
 41
0
  0
VERTEX
  8
0
 10
6.35226
 20
62.3182
 30
0.0
 40
0
 41
0
  0
VERTEX
  8
0
 10
6.43653
 20
62.3468
 30
0.0
 40
0
 41
0
  0
VERTEX
  8
0
 10
6.49354
 20
62.386
 30
0.0
 40
0
 41
0
  0
VERTEX
  8
0
 10
6.50885
 20
62.4025
 30
0.0
 40
0
 41
0
  0
VERTEX
  8
0
 10
6.52414
 20
62.4189
 30
0.0
 40
0
 41
0
  0
VERTEX
  8
0
 10
6.55903
 20
62.4788
 30
0.0
 40
0
 41
0
  0
VERTEX
  8
0
 10
6.58132
 20
62.5649
 30
0.0
 40
0
 41
0
  0
VERTEX
  8
0
 10
6.57503
 20
62.6536
 30
0.0
 40
0
 41
0
  0
VERTEX
  8
0
 10
6.5516
 20
62.7188
 30
0.0
 40
0
 41
0
  0
VERTEX
  8
0
 10
6.53956
 20
62.7376
 30
0.0
 40
0
 41
0
  0
VERTEX
  8
0
 10
2.60547
 20
68.9344
 30
0.0
 40
0
 41
0
  0
VERTEX
  8
0
 10
2.59608
 20
68.9492
 30
0.0
 40
0
 41
0
  0
VERTEX
  8
0
 10
2.56039
 20
68.9886
 30
0.0
 40
0
 41
0
  0
VERTEX
  8
0
 10
2.50407
 20
69.029
 30
0.0
 40
0
 41
0
  0
VERTEX
  8
0
 10
2.43946
 20
69.0542
 30
0.0
 40
0
 41
0
  0
VERTEX
  8
0
 10
2.38693
 20
69.0625
 30
0.0
 40
0
 41
0
  0
VERTEX
  8
0
 10
2.36951
 20
69.0624
 30
0.0
 40
0
 41
0
  0
VERTEX
  8
0
 10
2.35206
 20
69.0622
 30
0.0
 40
0
 41
0
  0
VERTEX
  8
0
 10
2.29975
 20
69.0525
 30
0.0
 40
0
 41
0
  0
VERTEX
  8
0
 10
2.23574
 20
69.0258
 30
0.0
 40
0
 41
0
  0
VERTEX
  8
0
 10
2.18039
 20
68.9842
 30
0.0
 40
0
 41
0
  0
VERTEX
  8
0
 10
2.14567
 20
68.9439
 30
0.0
 40
0
 41
0
  0
VERTEX
  8
0
 10
2.13667
 20
68.9289
 30
0.0
 40
0
 41
0
  0
VERTEX
  8
0
 10
0.641276
 20
66.4447
 30
0.0
 40
0
 41
0
  0
VERTEX
  8
0
 10
0.635417
 20
66.435
 30
0.0
 40
0
 41
0
  0
VERTEX
  8
0
 10
0.614583
 20
66.3826
 30
0.0
 40
0
 41
0
  0
VERTEX
  8
0
 10
0.605469
 20
66.3325
 30
0.0
 40
0
 41
0
  0
VERTEX
  8
0
 10
0.605469
 20
66.3157
 30
0.0
 40
0
 41
0
  0
VERTEX
  8
0
 10
0.605469
 20
65.4799
 30
0.0
 40
0
 41
0
  0
VERTEX
  8
0
 10
0.605469
 20
65.4631
 30
0.0
 40
0
 41
0
  0
VERTEX
  8
0
 10
0.614637
 20
65.4126
 30
0.0
 40
0
 41
0
  0
VERTEX
  8
0
 10
0.64095
 20
65.3514
 30
0.0
 40
0
 41
0
  0
VERTEX
  8
0
 10
0.682508
 20
65.2993
 30
0.0
 40
0
 41
0
  0
VERTEX
  8
0
 10
0.722601
 20
65.2674
 30
0.0
 40
0
 41
0
  0
VERTEX
  8
0
 10
0.737468
 20
65.2594
 30
0.0
 40
0
 41
0
  0
SEQEND
 8
0
  0
POLYLINE
  8
0
 62
     0
 66
     1
 10
0
 20
0
 30
0.0
 70
     1
 40
0
 41
0
  0
VERTEX
  8
0
 10
2.37711
 20
79.6501
 30
0.0
 40
0
 41
0
  0
VERTEX
  8
0
 10
2.37711
 20
79.6676
 30
0.0
 40
0
 41
0
  0
VERTEX
  8
0
 10
2.38612
 20
79.7203
 30
0.0
 40
0
 41
0
  0
VERTEX
  8
0
 10
2.41217
 20
79.7847
 30
0.0
 40
0
 41
0
  0
VERTEX
  8
0
 10
2.4535
 20
79.8407
 30
0.0
 40
0
 41
0
  0
VERTEX
  8
0
 10
2.4936
 20
79.8758
 30
0.0
 40
0
 41
0
  0
VERTEX
  8
0
 10
2.50851
 20
79.885
 30
0.0
 40
0
 41
0
  0
VERTEX
  8
0
 10
2.52892
 20
79.8975
 30
0.0
 40
0
 41
0
  0
VERTEX
  8
0
 10
2.64154
 20
79.9256
 30
0.0
 40
0
 41
0
  0
VERTEX
  8
0
 10
2.75608
 20
79.9067
 30
0.0
 40
0
 41
0
  0
VERTEX
  8
0
 10
2.77746
 20
79.8958
 30
0.0
 40
0
 41
0
  0
VERTEX
  8
0
 10
5.73964
 20
78.3921
 30
0.0
 40
0
 41
0
  0
VERTEX
  8
0
 10
5.76112
 20
78.3813
 30
0.0
 40
0
 41
0
  0
VERTEX
  8
0
 10
5.81782
 20
78.3329
 30
0.0
 40
0
 41
0
  0
VERTEX
  8
0
 10
5.86919
 20
78.2526
 30
0.0
 40
0
 41
0
  0
VERTEX
  8
0
 10
5.89019
 20
78.1597
 30
0.0
 40
0
 41
0
  0
VERTEX
  8
0
 10
5.88471
 20
78.0853
 30
0.0
 40
0
 41
0
  0
VERTEX
  8
0
 10
5.87739
 20
78.0624
 30
0.0
 40
0
 41
0
  0
VERTEX
  8
0
 10
5.70367
 20
77.5199
 30
0.0
 40
0
 41
0
  0
VERTEX
  8
0
 10
5.66585
 20
77.4018
 30
0.0
 40
0
 41
0
  0
VERTEX
  8
0
 10
5.57226
 20
77.0411
 30
0.0
 40
0
 41
0
  0
VERTEX
  8
0
 10
5.48172
 20
76.5539
 30
0.0
 40
0
 41
0
  0
VERTEX
  8
0
 10
5.43229
 20
76.0607
 30
0.0
 40
0
 41
0
  0
VERTEX
  8
0
 10
5.42122
 20
75.6882
 30
0.0
 40
0
 41
0
  0
VERTEX
  8
0
 10
5.42449
 20
75.5643
 30
0.0
 40
0
 41
0
  0
VERTEX
  8
0
 10
5.43815
 20
75.0431
 30
0.0
 40
0
 41
0
  0
VERTEX
  8
0
 10
5.43847
 20
75.0293
 30
0.0
 40
0
 41
0
  0
VERTEX
  8
0
 10
5.43403
 20
74.9881
 30
0.0
 40
0
 41
0
  0
VERTEX
  8
0
 10
5.41928
 20
74.9354
 30
0.0
 40
0
 41
0
  0
VERTEX
  8
0
 10
5.39442
 20
74.8867
 30
0.0
 40
0
 41
0
  0
VERTEX
  8
0
 10
5.36963
 20
74.8533
 30
0.0
 40
0
 41
0
  0
VERTEX
  8
0
 10
5.36008
 20
74.8435
 30
0.0
 40
0
 41
0
  0
VERTEX
  8
0
 10
5.35047
 20
74.8336
 30
0.0
 40
0
 41
0
  0
VERTEX
  8
0
 10
5.31776
 20
74.8081
 30
0.0
 40
0
 41
0
  0
VERTEX
  8
0
 10
5.26975
 20
74.7819
 30
0.0
 40
0
 41
0
  0
VERTEX
  8
0
 10
5.2175
 20
74.7657
 30
0.0
 40
0
 41
0
  0
VERTEX
  8
0
 10
5.17632
 20
74.7601
 30
0.0
 40
0
 41
0
  0
VERTEX
  8
0
 10
5.16265
 20
74.7601
 30
0.0
 40
0
 41
0
  0
VERTEX
  8
0
 10
2.65272
 20
74.7601
 30
0.0
 40
0
 41
0
  0
VERTEX
  8
0
 10
2.62588
 20
74.7601
 30
0.0
 40
0
 41
0
  0
VERTEX
  8
0
 10
2.54542
 20
74.7819
 30
0.0
 40
0
 41
0
  0
VERTEX
  8
0
 10
2.45779
 20
74.841
 30
0.0
 40
0
 41
0
  0
VERTEX
  8
0
 10
2.39876
 20
74.9286
 30
0.0
 40
0
 41
0
  0
VERTEX
  8
0
 10
2.37711
 20
75.009
 30
0.0
 40
0
 41
0
  0
VERTEX
  8
0
 10
2.37711
 20
75.0358
 30
0.0
 40
0
 41
0
  0
VERTEX
  8
0
 10
2.37711
 20
79.6501
 30
0.0
 40
0
 41
0
  0
SEQEND
 8
0
  0
POLYLINE
  8
0
 62
     0
 66
     1
 10
0
 20
0
 30
0.0
 70
     1
 40
0
 41
0
  0
VERTEX
  8
0
 10
5.98133
 20
61.7818
 30
0.0
 40
0
 41
0
  0
VERTEX
  8
0
 10
6.0006
 20
61.7715
 30
0.0
 40
0
 41
0
  0
VERTEX
  8
0
 10
6.05171
 20
61.7281
 30
0.0
 40
0
 41
0
  0
VERTEX
  8
0
 10
6.10042
 20
61.6565
 30
0.0
 40
0
 41
0
  0
VERTEX
  8
0
 10
6.12462
 20
61.5735
 30
0.0
 40
0
 41
0
  0
VERTEX
  8
0
 10
6.12576
 20
61.5064
 30
0.0
 40
0
 41
0
  0
VERTEX
  8
0
 10
6.12153
 20
61.485
 30
0.0
 40
0
 41
0
  0
VERTEX
  8
0
 10
6.11724
 20
61.4636
 30
0.0
 40
0
 41
0
  0
VERTEX
  8
0
 10
6.0905
 20
61.4021
 30
0.0
 40
0
 41
0
  0
VERTEX
  8
0
 10
6.03629
 20
61.3346
 30
0.0
 40
0
 41
0
  0
VERTEX
  8
0
 10
5.96392
 20
61.2874
 30
0.0
 40
0
 41
0
  0
VERTEX
  8
0
 10
5.90001
 20
61.2668
 30
0.0
 40
0
 41
0
  0
VERTEX
  8
0
 10
5.87831
 20
61.2646
 30
0.0
 40
0
 41
0
  0
VERTEX
  8
0
 10
1.30181
 20
60.8136
 30
0.0
 40
0
 41
0
  0
VERTEX
  8
0
 10
1.28749
 20
60.8122
 30
0.0
 40
0
 41
0
  0
VERTEX
  8
0
 10
1.24409
 20
60.814
 30
0.0
 40
0
 41
0
  0
VERTEX
  8
0
 10
1.18831
 20
60.8263
 30
0.0
 40
0
 41
0
  0
VERTEX
  8
0
 10
1.13623
 20
60.8497
 30
0.0
 40
0
 41
0
  0
VERTEX
  8
0
 10
1.10026
 20
60.874
 30
0.0
 40
0
 41
0
  0
VERTEX
  8
0
 10
1.08968
 20
60.8837
 30
0.0
 40
0
 41
0
  0
VERTEX
  8
0
 10
1.07905
 20
60.8933
 30
0.0
 40
0
 41
0
  0
VERTEX
  8
0
 10
1.05122
 20
60.9267
 30
0.0
 40
0
 41
0
  0
VERTEX
  8
0
 10
1.02279
 20
60.9763
 30
0.0
 40
0
 41
0
  0
VERTEX
  8
0
 10
1.00521
 20
61.0306
 30
0.0
 40
0
 41
0
  0
VERTEX
  8
0
 10
0.999186
 20
61.0736
 30
0.0
 40
0
 41
0
  0
VERTEX
  8
0
 10
0.999186
 20
61.0879
 30
0.0
 40
0
 41
0
  0
VERTEX
  8
0
 10
0.999186
 20
63.9893
 30
0.0
 40
0
 41
0
  0
VERTEX
  8
0
 10
0.999186
 20
64.0069
 30
0.0
 40
0
 41
0
  0
VERTEX
  8
0
 10
1.00841
 20
64.0601
 30
0.0
 40
0
 41
0
  0
VERTEX
  8
0
 10
1.03499
 20
64.1251
 30
0.0
 40
0
 41
0
  0
VERTEX
  8
0
 10
1.07709
 20
64.1814
 30
0.0
 40
0
 41
0
  0
VERTEX
  8
0
 10
1.11795
 20
64.2167
 30
0.0
 40
0
 41
0
  0
VERTEX
  8
0
 10
1.13314
 20
64.2257
 30
0.0
 40
0
 41
0
  0
VERTEX
  8
0
 10
1.15392
 20
64.2382
 30
0.0
 40
0
 41
0
  0
VERTEX
  8
0
 10
1.26812
 20
64.2649
 30
0.0
 40
0
 41
0
  0
VERTEX
  8
0
 10
1.38346
 20
64.2437
 30
0.0
 40
0
 41
0
  0
VERTEX
  8
0
 10
1.40483
 20
64.2322
 30
0.0
 40
0
 41
0
  0
VERTEX
  8
0
 10
5.98133
 20
61.7818
 30
0.0
 40
0
 41
0
  0
SEQEND
 8
0
  0
POLYLINE
  8
0
 62
     0
 66
     1
 10
0
 20
0
 30
0.0
 70
     1
 40
0
 41
0
  0
VERTEX
  8
0
 10
0.605469
 20
71.1365
 30
0.0
 40
0
 41
0
  0
VERTEX
  8
0
 10
0.605469
 20
71.1586
 30
0.0
 40
0
 41
0
  0
VERTEX
  8
0
 10
0.619954
 20
71.2247
 30
0.0
 40
0
 41
0
  0
VERTEX
  8
0
 10
0.660644
 20
71.3019
 30
0.0
 40
0
 41
0
  0
VERTEX
  8
0
 10
0.723415
 20
71.3626
 30
0.0
 40
0
 41
0
  0
VERTEX
  8
0
 10
0.782932
 20
71.395
 30
0.0
 40
0
 41
0
  0
VERTEX
  8
0
 10
0.804144
 20
71.4011
 30
0.0
 40
0
 41
0
  0
VERTEX
  8
0
 10
0.825304
 20
71.4074
 30
0.0
 40
0
 41
0
  0
VERTEX
  8
0
 10
0.892904
 20
71.4119
 30
0.0
 40
0
 41
0
  0
VERTEX
  8
0
 10
0.978407
 20
71.3943
 30
0.0
 40
0
 41
0
  0
VERTEX
  8
0
 10
1.05414
 20
71.351
 30
0.0
 40
0
 41
0
  0
VERTEX
  8
0
 10
1.10189
 20
71.3028
 30
0.0
 40
0
 41
0
  0
VERTEX
  8
0
 10
1.11372
 20
71.2842
 30
0.0
 40
0
 41
0
  0
VERTEX
  8
0
 10
2.03933
 20
69.8261
 30
0.0
 40
0
 41
0
  0
VERTEX
  8
0
 10
2.04949
 20
69.8101
 30
0.0
 40
0
 41
0
  0
VERTEX
  8
0
 10
2.07107
 20
69.7563
 30
0.0
 40
0
 41
0
  0
VERTEX
  8
0
 10
2.08225
 20
69.6818
 30
0.0
 40
0
 41
0
  0
VERTEX
  8
0
 10
2.07286
 20
69.6069
 30
0.0
 40
0
 41
0
  0
VERTEX
  8
0
 10
2.05257
 20
69.5526
 30
0.0
 40
0
 41
0
  0
VERTEX
  8
0
 10
2.04281
 20
69.5364
 30
0.0
 40
0
 41
0
  0
VERTEX
  8
0
 10
1.11719
 20
67.9986
 30
0.0
 40
0
 41
0
  0
VERTEX
  8
0
 10
1.10569
 20
67.9796
 30
0.0
 40
0
 41
0
  0
VERTEX
  8
0
 10
1.05859
 20
67.9299
 30
0.0
 40
0
 41
0
  0
VERTEX
  8
0
 10
0.983018
 20
67.8847
 30
0.0
 40
0
 41
0
  0
VERTEX
  8
0
 10
0.897026
 20
67.8656
 30
0.0
 40
0
 41
0
  0
VERTEX
  8
0
 10
0.828722
 20
67.8693
 30
0.0
 40
0
 41
0
  0
VERTEX
  8
0
 10
0.807292
 20
67.8753
 30
0.0
 40
0
 41
0
  0
VERTEX
  8
0
 10
0.785807
 20
67.8813
 30
0.0
 40
0
 41
0
  0
VERTEX
  8
0
 10
0.725424
 20
67.9133
 30
0.0
 40
0
 41
0
  0
VERTEX
  8
0
 10
0.661621
 20
67.974
 30
0.0
 40
0
 41
0
  0
VERTEX
  8
0
 10
0.620226
 20
68.0517
 30
0.0
 40
0
 41
0
  0
VERTEX
  8
0
 10
0.605469
 20
68.1185
 30
0.0
 40
0
 41
0
  0
VERTEX
  8
0
 10
0.605469
 20
68.1407
 30
0.0
 40
0
 41
0
  0
VERTEX
  8
0
 10
0.605469
 20
71.1365
 30
0.0
 40
0
 41
0
  0
SEQEND
 8
0
  0
POLYLINE
  8
0
 62
     0
 66
     1
 10
0
 20
0
 30
0.0
 70
     1
 40
0
 41
0
  0
VERTEX
  8
0
 10
3.61654
 20
80.5738
 30
0.0
 40
0
 41
0
  0
VERTEX
  8
0
 10
4.55843
 20
80.0956
 30
0.0
 40
0
 41
0
  0
VERTEX
  8
0
 10
4.57058
 20
80.0894
 30
0.0
 40
0
 41
0
  0
VERTEX
  8
0
 10
4.60997
 20
80.0763
 30
0.0
 40
0
 41
0
  0
VERTEX
  8
0
 10
4.6639
 20
80.0686
 30
0.0
 40
0
 41
0
  0
VERTEX
  8
0
 10
4.71821
 20
80.0729
 30
0.0
 40
0
 41
0
  0
VERTEX
  8
0
 10
4.75831
 20
80.0836
 30
0.0
 40
0
 41
0
  0
VERTEX
  8
0
 10
4.77089
 20
80.089
 30
0.0
 40
0
 41
0
  0
VERTEX
  8
0
 10
4.78342
 20
80.0946
 30
0.0
 40
0
 41
0
  0
VERTEX
  8
0
 10
4.81874
 20
80.1164
 30
0.0
 40
0
 41
0
  0
VERTEX
  8
0
 10
4.859
 20
80.1531
 30
0.0
 40
0
 41
0
  0
VERTEX
  8
0
 10
4.89035
 20
80.1976
 30
0.0
 40
0
 41
0
  0
VERTEX
  8
0
 10
4.90771
 20
80.2354
 30
0.0
 40
0
 41
0
  0
VERTEX
  8
0
 10
4.91157
 20
80.2485
 30
0.0
 40
0
 41
0
  0
VERTEX
  8
0
 10
4.92128
 20
80.2819
 30
0.0
 40
0
 41
0
  0
VERTEX
  8
0
 10
4.93869
 20
80.3856
 30
0.0
 40
0
 41
0
  0
VERTEX
  8
0
 10
4.9414
 20
80.5219
 30
0.0
 40
0
 41
0
  0
VERTEX
  8
0
 10
4.92085
 20
80.655
 30
0.0
 40
0
 41
0
  0
VERTEX
  8
0
 10
4.87825
 20
80.7819
 30
0.0
 40
0
 41
0
  0
VERTEX
  8
0
 10
4.81489
 20
80.8997
 30
0.0
 40
0
 41
0
  0
VERTEX
  8
0
 10
4.73188
 20
81.0058
 30
0.0
 40
0
 41
0
  0
VERTEX
  8
0
 10
4.63053
 20
81.0972
 30
0.0
 40
0
 41
0
  0
VERTEX
  8
0
 10
4.54308
 20
81.1554
 30
0.0
 40
0
 41
0
  0
VERTEX
  8
0
 10
4.5121
 20
81.1711
 30
0.0
 40
0
 41
0
  0
VERTEX
  8
0
 10
4.48107
 20
81.1869
 30
0.0
 40
0
 41
0
  0
VERTEX
  8
0
 10
4.38243
 20
81.2232
 30
0.0
 40
0
 41
0
  0
VERTEX
  8
0
 10
4.24886
 20
81.251
 30
0.0
 40
0
 41
0
  0
VERTEX
  8
0
 10
4.11426
 20
81.2554
 30
0.0
 40
0
 41
0
  0
VERTEX
  8
0
 10
3.98172
 20
81.2369
 30
0.0
 40
0
 41
0
  0
VERTEX
  8
0
 10
3.85417
 20
81.1965
 30
0.0
 40
0
 41
0
  0
VERTEX
  8
0
 10
3.73465
 20
81.1346
 30
0.0
 40
0
 41
0
  0
VERTEX
  8
0
 10
3.62608
 20
81.0518
 30
0.0
 40
0
 41
0
  0
VERTEX
  8
0
 10
3.55268
 20
80.9767
 30
0.0
 40
0
 41
0
  0
VERTEX
  8
0
 10
3.53153
 20
80.949
 30
0.0
 40
0
 41
0
  0
VERTEX
  8
0
 10
3.52317
 20
80.9382
 30
0.0
 40
0
 41
0
  0
VERTEX
  8
0
 10
3.50293
 20
80.9019
 30
0.0
 40
0
 41
0
  0
VERTEX
  8
0
 10
3.48551
 20
80.8504
 30
0.0
 40
0
 41
0
  0
VERTEX
  8
0
 10
3.47971
 20
80.7963
 30
0.0
 40
0
 41
0
  0
VERTEX
  8
0
 10
3.48286
 20
80.7549
 30
0.0
 40
0
 41
0
  0
VERTEX
  8
0
 10
3.48589
 20
80.7414
 30
0.0
 40
0
 41
0
  0
VERTEX
  8
0
 10
3.48888
 20
80.7281
 30
0.0
 40
0
 41
0
  0
VERTEX
  8
0
 10
3.5039
 20
80.6893
 30
0.0
 40
0
 41
0
  0
VERTEX
  8
0
 10
3.5325
 20
80.6431
 30
0.0
 40
0
 41
0
  0
VERTEX
  8
0
 10
3.57042
 20
80.6039
 30
0.0
 40
0
 41
0
  0
VERTEX
  8
0
 10
3.60433
 20
80.5799
 30
0.0
 40
0
 41
0
  0
VERTEX
  8
0
 10
3.61654
 20
80.5738
 30
0.0
 40
0
 41
0
  0
SEQEND
 8
0
  0
POLYLINE
  8
0
 62
     0
 66
     1
 10
0
 20
0
 30
0.0
 70
     1
 40
0
 41
0
  0
VERTEX
  8
0
 10
8.64085
 20
68.4793
 30
0.0
 40
0
 41
0
  0
VERTEX
  8
0
 10
8.64085
 20
68.4871
 30
0.0
 40
0
 41
0
  0
VERTEX
  8
0
 10
8.64697
 20
68.51
 30
0.0
 40
0
 41
0
  0
VERTEX
  8
0
 10
8.66385
 20
68.535
 30
0.0
 40
0
 41
0
  0
VERTEX
  8
0
 10
8.68886
 20
68.5519
 30
0.0
 40
0
 41
0
  0
VERTEX
  8
0
 10
8.71186
 20
68.5581
 30
0.0
 40
0
 41
0
  0
VERTEX
  8
0
 10
8.71957
 20
68.5581
 30
0.0
 40
0
 41
0
  0
VERTEX
  8
0
 10
8.72721
 20
68.5581
 30
0.0
 40
0
 41
0
  0
VERTEX
  8
0
 10
8.75022
 20
68.5519
 30
0.0
 40
0
 41
0
  0
VERTEX
  8
0
 10
8.77522
 20
68.535
 30
0.0
 40
0
 41
0
  0
VERTEX
  8
0
 10
8.7921
 20
68.51
 30
0.0
 40
0
 41
0
  0
VERTEX
  8
0
 10
8.79829
 20
68.4871
 30
0.0
 40
0
 41
0
  0
VERTEX
  8
0
 10
8.79829
 20
68.4793
 30
0.0
 40
0
 41
0
  0
VERTEX
  8
0
 10
8.79829
 20
68.4717
 30
0.0
 40
0
 41
0
  0
VERTEX
  8
0
 10
8.7921
 20
68.4488
 30
0.0
 40
0
 41
0
  0
VERTEX
  8
0
 10
8.77522
 20
68.4237
 30
0.0
 40
0
 41
0
  0
VERTEX
  8
0
 10
8.75022
 20
68.4068
 30
0.0
 40
0
 41
0
  0
VERTEX
  8
0
 10
8.72721
 20
68.4006
 30
0.0
 40
0
 41
0
  0
VERTEX
  8
0
 10
8.71957
 20
68.4006
 30
0.0
 40
0
 41
0
  0
VERTEX
  8
0
 10
8.71186
 20
68.4006
 30
0.0
 40
0
 41
0
  0
VERTEX
  8
0
 10
8.68886
 20
68.4068
 30
0.0
 40
0
 41
0
  0
VERTEX
  8
0
 10
8.66385
 20
68.4237
 30
0.0
 40
0
 41
0
  0
VERTEX
  8
0
 10
8.64697
 20
68.4488
 30
0.0
 40
0
 41
0
  0
VERTEX
  8
0
 10
8.64085
 20
68.4717
 30
0.0
 40
0
 41
0
  0
VERTEX
  8
0
 10
8.64085
 20
68.4793
 30
0.0
 40
0
 41
0
  0
SEQEND
 8
0
  0
POLYLINE
  8
0
 62
     0
 66
     1
 10
0
 20
0
 30
0.0
 70
     1
 40
0
 41
0
  0
VERTEX
  8
0
 10
5.70199
 20
74.2854
 30
0.0
 40
0
 41
0
  0
VERTEX
  8
0
 10
5.70199
 20
74.2937
 30
0.0
 40
0
 41
0
  0
VERTEX
  8
0
 10
5.70861
 20
74.3185
 30
0.0
 40
0
 41
0
  0
VERTEX
  8
0
 10
5.72678
 20
74.3454
 30
0.0
 40
0
 41
0
  0
VERTEX
  8
0
 10
5.75369
 20
74.3636
 30
0.0
 40
0
 41
0
  0
VERTEX
  8
0
 10
5.77843
 20
74.3703
 30
0.0
 40
0
 41
0
  0
VERTEX
  8
0
 10
5.78674
 20
74.3703
 30
0.0
 40
0
 41
0
  0
VERTEX
  8
0
 10
5.79497
 20
74.3703
 30
0.0
 40
0
 41
0
  0
VERTEX
  8
0
 10
5.81972
 20
74.3636
 30
0.0
 40
0
 41
0
  0
VERTEX
  8
0
 10
5.84663
 20
74.3454
 30
0.0
 40
0
 41
0
  0
VERTEX
  8
0
 10
5.86481
 20
74.3185
 30
0.0
 40
0
 41
0
  0
VERTEX
  8
0
 10
5.87147
 20
74.2937
 30
0.0
 40
0
 41
0
  0
VERTEX
  8
0
 10
5.87147
 20
74.2854
 30
0.0
 40
0
 41
0
  0
VERTEX
  8
0
 10
5.87147
 20
74.2772
 30
0.0
 40
0
 41
0
  0
VERTEX
  8
0
 10
5.86481
 20
74.2525
 30
0.0
 40
0
 41
0
  0
VERTEX
  8
0
 10
5.84663
 20
74.2256
 30
0.0
 40
0
 41
0
  0
VERTEX
  8
0
 10
5.81972
 20
74.2074
 30
0.0
 40
0
 41
0
  0
VERTEX
  8
0
 10
5.79497
 20
74.2007
 30
0.0
 40
0
 41
0
  0
VERTEX
  8
0
 10
5.78674
 20
74.2007
 30
0.0
 40
0
 41
0
  0
VERTEX
  8
0
 10
5.77843
 20
74.2007
 30
0.0
 40
0
 41
0
  0
VERTEX
  8
0
 10
5.75369
 20
74.2074
 30
0.0
 40
0
 41
0
  0
VERTEX
  8
0
 10
5.72678
 20
74.2256
 30
0.0
 40
0
 41
0
  0
VERTEX
  8
0
 10
5.70861
 20
74.2525
 30
0.0
 40
0
 41
0
  0
VERTEX
  8
0
 10
5.70199
 20
74.2772
 30
0.0
 40
0
 41
0
  0
VERTEX
  8
0
 10
5.70199
 20
74.2854
 30
0.0
 40
0
 41
0
  0
SEQEND
 8
0
  0
POLYLINE
  8
0
 62
     0
 66
     1
 10
0
 20
0
 30
0.0
 70
     1
 40
0
 41
0
  0
VERTEX
  8
0
 10
4.91601
 20
74.1969
 30
0.0
 40
0
 41
0
  0
VERTEX
  8
0
 10
4.91601
 20
74.2053
 30
0.0
 40
0
 41
0
  0
VERTEX
  8
0
 10
4.92264
 20
74.23
 30
0.0
 40
0
 41
0
  0
VERTEX
  8
0
 10
4.94081
 20
74.2569
 30
0.0
 40
0
 41
0
  0
VERTEX
  8
0
 10
4.96772
 20
74.275
 30
0.0
 40
0
 41
0
  0
VERTEX
  8
0
 10
4.99246
 20
74.2817
 30
0.0
 40
0
 41
0
  0
VERTEX
  8
0
 10
5.00076
 20
74.2817
 30
0.0
 40
0
 41
0
  0
VERTEX
  8
0
 10
5.009
 20
74.2817
 30
0.0
 40
0
 41
0
  0
VERTEX
  8
0
 10
5.03375
 20
74.275
 30
0.0
 40
0
 41
0
  0
VERTEX
  8
0
 10
5.06065
 20
74.2569
 30
0.0
 40
0
 41
0
  0
VERTEX
  8
0
 10
5.07883
 20
74.23
 30
0.0
 40
0
 41
0
  0
VERTEX
  8
0
 10
5.0855
 20
74.2053
 30
0.0
 40
0
 41
0
  0
VERTEX
  8
0
 10
5.0855
 20
74.1969
 30
0.0
 40
0
 41
0
  0
VERTEX
  8
0
 10
5.0855
 20
74.1887
 30
0.0
 40
0
 41
0
  0
VERTEX
  8
0
 10
5.07883
 20
74.1639
 30
0.0
 40
0
 41
0
  0
VERTEX
  8
0
 10
5.06065
 20
74.1371
 30
0.0
 40
0
 41
0
  0
VERTEX
  8
0
 10
5.03375
 20
74.1189
 30
0.0
 40
0
 41
0
  0
VERTEX
  8
0
 10
5.009
 20
74.1122
 30
0.0
 40
0
 41
0
  0
VERTEX
  8
0
 10
5.00076
 20
74.1122
 30
0.0
 40
0
 41
0
  0
VERTEX
  8
0
 10
4.99246
 20
74.1122
 30
0.0
 40
0
 41
0
  0
VERTEX
  8
0
 10
4.96772
 20
74.1189
 30
0.0
 40
0
 41
0
  0
VERTEX
  8
0
 10
4.94081
 20
74.1371
 30
0.0
 40
0
 41
0
  0
VERTEX
  8
0
 10
4.92264
 20
74.1639
 30
0.0
 40
0
 41
0
  0
VERTEX
  8
0
 10
4.91601
 20
74.1887
 30
0.0
 40
0
 41
0
  0
VERTEX
  8
0
 10
4.91601
 20
74.1969
 30
0.0
 40
0
 41
0
  0
SEQEND
 8
0
  0
POLYLINE
  8
0
 62
     0
 66
     1
 10
0
 20
0
 30
0.0
 70
     1
 40
0
 41
0
  0
VERTEX
  8
0
 10
6.23383
 20
77.6728
 30
0.0
 40
0
 41
0
  0
VERTEX
  8
0
 10
6.23383
 20
77.6822
 30
0.0
 40
0
 41
0
  0
VERTEX
  8
0
 10
6.24143
 20
77.7106
 30
0.0
 40
0
 41
0
  0
VERTEX
  8
0
 10
6.26215
 20
77.7413
 30
0.0
 40
0
 41
0
  0
VERTEX
  8
0
 10
6.29286
 20
77.7619
 30
0.0
 40
0
 41
0
  0
VERTEX
  8
0
 10
6.32113
 20
77.7696
 30
0.0
 40
0
 41
0
  0
VERTEX
  8
0
 10
6.33057
 20
77.7696
 30
0.0
 40
0
 41
0
  0
VERTEX
  8
0
 10
6.33996
 20
77.7696
 30
0.0
 40
0
 41
0
  0
VERTEX
  8
0
 10
6.36822
 20
77.7619
 30
0.0
 40
0
 41
0
  0
VERTEX
  8
0
 10
6.39893
 20
77.7413
 30
0.0
 40
0
 41
0
  0
VERTEX
  8
0
 10
6.41965
 20
77.7106
 30
0.0
 40
0
 41
0
  0
VERTEX
  8
0
 10
6.42731
 20
77.6822
 30
0.0
 40
0
 41
0
  0
VERTEX
  8
0
 10
6.42731
 20
77.6728
 30
0.0
 40
0
 41
0
  0
VERTEX
  8
0
 10
6.42731
 20
77.6635
 30
0.0
 40
0
 41
0
  0
VERTEX
  8
0
 10
6.41965
 20
77.6351
 30
0.0
 40
0
 41
0
  0
VERTEX
  8
0
 10
6.39893
 20
77.6044
 30
0.0
 40
0
 41
0
  0
VERTEX
  8
0
 10
6.36822
 20
77.5837
 30
0.0
 40
0
 41
0
  0
VERTEX
  8
0
 10
6.33996
 20
77.5761
 30
0.0
 40
0
 41
0
  0
VERTEX
  8
0
 10
6.33057
 20
77.5761
 30
0.0
 40
0
 41
0
  0
VERTEX
  8
0
 10
6.32113
 20
77.5761
 30
0.0
 40
0
 41
0
  0
VERTEX
  8
0
 10
6.29286
 20
77.5837
 30
0.0
 40
0
 41
0
  0
VERTEX
  8
0
 10
6.26215
 20
77.6044
 30
0.0
 40
0
 41
0
  0
VERTEX
  8
0
 10
6.24143
 20
77.6351
 30
0.0
 40
0
 41
0
  0
VERTEX
  8
0
 10
6.23383
 20
77.6635
 30
0.0
 40
0
 41
0
  0
VERTEX
  8
0
 10
6.23383
 20
77.6728
 30
0.0
 40
0
 41
0
  0
SEQEND
 8
0
  0
POLYLINE
  8
0
 62
     0
 66
     1
 10
0
 20
0
 30
0.0
 70
     1
 40
0
 41
0
  0
VERTEX
  8
0
 10
18.6682
 20
61.5961
 30
0.0
 40
0
 41
0
  0
VERTEX
  8
0
 10
10.0432
 20
61.5961
 30
0.0
 40
0
 41
0
  0
VERTEX
  8
0
 10
10.0432
 20
68.7674
 30
0.0
 40
0
 41
0
  0
VERTEX
  8
0
 10
18.6682
 20
68.7674
 30
0.0
 40
0
 41
0
  0
VERTEX
  8
0
 10
18.6935
 20
68.7674
 30
0.0
 40
0
 41
0
  0
VERTEX
  8
0
 10
18.769
 20
68.7572
 30
0.0
 40
0
 41
0
  0
VERTEX
  8
0
 10
18.8629
 20
68.7281
 30
0.0
 40
0
 41
0
  0
VERTEX
  8
0
 10
18.9478
 20
68.6819
 30
0.0
 40
0
 41
0
  0
VERTEX
  8
0
 10
19.0218
 20
68.621
 30
0.0
 40
0
 41
0
  0
VERTEX
  8
0
 10
19.0828
 20
68.5469
 30
0.0
 40
0
 41
0
  0
VERTEX
  8
0
 10
19.1289
 20
68.4619
 30
0.0
 40
0
 41
0
  0
VERTEX
  8
0
 10
19.1581
 20
68.3682
 30
0.0
 40
0
 41
0
  0
VERTEX
  8
0
 10
19.1682
 20
68.2926
 30
0.0
 40
0
 41
0
  0
VERTEX
  8
0
 10
19.1682
 20
68.2674
 30
0.0
 40
0
 41
0
  0
VERTEX
  8
0
 10
19.1682
 20
62.0961
 30
0.0
 40
0
 41
0
  0
VERTEX
  8
0
 10
19.1682
 20
62.0717
 30
0.0
 40
0
 41
0
  0
VERTEX
  8
0
 10
19.1585
 20
61.9981
 30
0.0
 40
0
 41
0
  0
VERTEX
  8
0
 10
19.1301
 20
61.9047
 30
0.0
 40
0
 41
0
  0
VERTEX
  8
0
 10
19.0842
 20
61.8188
 30
0.0
 40
0
 41
0
  0
VERTEX
  8
0
 10
19.0392
 20
61.7599
 30
0.0
 40
0
 41
0
  0
VERTEX
  8
0
 10
19.0218
 20
61.7425
 30
0.0
 40
0
 41
0
  0
VERTEX
  8
0
 10
19.0044
 20
61.7251
 30
0.0
 40
0
 41
0
  0
VERTEX
  8
0
 10
18.9457
 20
61.6801
 30
0.0
 40
0
 41
0
  0
VERTEX
  8
0
 10
18.8596
 20
61.6342
 30
0.0
 40
0
 41
0
  0
VERTEX
  8
0
 10
18.7663
 20
61.6058
 30
0.0
 40
0
 41
0
  0
VERTEX
  8
0
 10
18.6928
 20
61.5961
 30
0.0
 40
0
 41
0
  0
VERTEX
  8
0
 10
18.6682
 20
61.5961
 30
0.0
 40
0
 41
0
  0
SEQEND
 8
0
  0
POLYLINE
  8
0
 62
     0
 66
     1
 10
0
 20
0
 30
0.0
 70
     1
 40
0
 41
0
  0
VERTEX
  8
0
 10
19.5803
 20
72.7253
 30
0.0
 40
0
 41
0
  0
VERTEX
  8
0
 10
19.6525
 20
72.6788
 30
0.0
 40
0
 41
0
  0
VERTEX
  8
0
 10
19.8637
 20
72.5306
 30
0.0
 40
0
 41
0
  0
VERTEX
  8
0
 10
20.1342
 20
72.3212
 30
0.0
 40
0
 41
0
  0
VERTEX
  8
0
 10
20.3908
 20
72.0979
 30
0.0
 40
0
 41
0
  0
VERTEX
  8
0
 10
20.6338
 20
71.8614
 30
0.0
 40
0
 41
0
  0
VERTEX
  8
0
 10
20.8619
 20
71.6124
 30
0.0
 40
0
 41
0
  0
VERTEX
  8
0
 10
21.0754
 20
71.3514
 30
0.0
 40
0
 41
0
  0
VERTEX
  8
0
 10
21.2736
 20
71.0792
 30
0.0
 40
0
 41
0
  0
VERTEX
  8
0
 10
21.4561
 20
70.7965
 30
0.0
 40
0
 41
0
  0
VERTEX
  8
0
 10
21.6225
 20
70.5042
 30
0.0
 40
0
 41
0
  0
VERTEX
  8
0
 10
21.7724
 20
70.2026
 30
0.0
 40
0
 41
0
  0
VERTEX
  8
0
 10
21.9053
 20
69.8929
 30
0.0
 40
0
 41
0
  0
VERTEX
  8
0
 10
22.0208
 20
69.5753
 30
0.0
 40
0
 41
0
  0
VERTEX
  8
0
 10
22.1186
 20
69.2507
 30
0.0
 40
0
 41
0
  0
VERTEX
  8
0
 10
22.1981
 20
68.9199
 30
0.0
 40
0
 41
0
  0
VERTEX
  8
0
 10
22.2589
 20
68.5833
 30
0.0
 40
0
 41
0
  0
VERTEX
  8
0
 10
22.2926
 20
68.3276
 30
0.0
 40
0
 41
0
  0
VERTEX
  8
0
 10
22.3007
 20
68.2419
 30
0.0
 40
0
 41
0
  0
VERTEX
  8
0
 10
23.6556
 20
52.7547
 30
0.0
 40
0
 41
0
  0
VERTEX
  8
0
 10
23.6592
 20
52.7133
 30
0.0
 40
0
 41
0
  0
VERTEX
  8
0
 10
23.6801
 20
52.5897
 30
0.0
 40
0
 41
0
  0
VERTEX
  8
0
 10
23.724
 20
52.4304
 30
0.0
 40
0
 41
0
  0
VERTEX
  8
0
 10
23.7862
 20
52.2788
 30
0.0
 40
0
 41
0
  0
VERTEX
  8
0
 10
23.8657
 20
52.1358
 30
0.0
 40
0
 41
0
  0
VERTEX
  8
0
 10
23.9615
 20
52.0035
 30
0.0
 40
0
 41
0
  0
VERTEX
  8
0
 10
24.0729
 20
51.8829
 30
0.0
 40
0
 41
0
  0
VERTEX
  8
0
 10
24.1986
 20
51.776
 30
0.0
 40
0
 41
0
  0
VERTEX
  8
0
 10
24.3018
 20
51.7046
 30
0.0
 40
0
 41
0
  0
VERTEX
  8
0
 10
24.3379
 20
51.6838
 30
0.0
 40
0
 41
0
  0
VERTEX
  8
0
 10
24.409
 20
51.6428
 30
0.0
 40
0
 41
0
  0
VERTEX
  8
0
 10
24.6428
 20
51.5539
 30
0.0
 40
0
 41
0
  0
VERTEX
  8
0
 10
24.9654
 20
51.501
 30
0.0
 40
0
 41
0
  0
VERTEX
  8
0
 10
25.2914
 20
51.5256
 30
0.0
 40
0
 41
0
  0
VERTEX
  8
0
 10
25.5319
 20
51.5938
 30
0.0
 40
0
 41
0
  0
VERTEX
  8
0
 10
25.6065
 20
51.6285
 30
0.0
 40
0
 41
0
  0
VERTEX
  8
0
 10
28.3693
 20
52.9168
 30
0.0
 40
0
 41
0
  0
VERTEX
  8
0
 10
28.414
 20
52.9376
 30
0.0
 40
0
 41
0
  0
VERTEX
  8
0
 10
28.5424
 20
53.0132
 30
0.0
 40
0
 41
0
  0
VERTEX
  8
0
 10
28.6976
 20
53.1317
 30
0.0
 40
0
 41
0
  0
VERTEX
  8
0
 10
28.8333
 20
53.2694
 30
0.0
 40
0
 41
0
  0
VERTEX
  8
0
 10
28.9479
 20
53.4242
 30
0.0
 40
0
 41
0
  0
VERTEX
  8
0
 10
29.0397
 20
53.5933
 30
0.0
 40
0
 41
0
  0
VERTEX
  8
0
 10
29.1072
 20
53.7746
 30
0.0
 40
0
 41
0
  0
VERTEX
  8
0
 10
29.1489
 20
53.9653
 30
0.0
 40
0
 41
0
  0
VERTEX
  8
0
 10
29.1632
 20
54.1136
 30
0.0
 40
0
 41
0
  0
VERTEX
  8
0
 10
29.1632
 20
54.1629
 30
0.0
 40
0
 41
0
  0
VERTEX
  8
0
 10
29.1632
 20
76.6035
 30
0.0
 40
0
 41
0
  0
VERTEX
  8
0
 10
7.84517
 20
83.0556
 30
0.0
 40
0
 41
0
  0
VERTEX
  8
0
 10
7.06424
 20
80.4753
 30
0.0
 40
0
 41
0
  0
VERTEX
  8
0
 10
8.02132
 20
80.1856
 30
0.0
 40
0
 41
0
  0
VERTEX
  8
0
 10
19.5803
 20
72.7253
 30
0.0
 40
0
 41
0
  0
SEQEND
 8
0
  0
POLYLINE
  8
0
 62
     0
 66
     1
 10
0
 20
0
 30
0.0
 70
     1
 40
0
 41
0
  0
VERTEX
  8
0
 10
25.795
 20
61.319
 30
0.0
 40
0
 41
0
  0
VERTEX
  8
0
 10
25.795
 20
61.2947
 30
0.0
 40
0
 41
0
  0
VERTEX
  8
0
 10
25.7753
 20
61.2217
 30
0.0
 40
0
 41
0
  0
VERTEX
  8
0
 10
25.7217
 20
61.1422
 30
0.0
 40
0
 41
0
  0
VERTEX
  8
0
 10
25.6422
 20
61.0888
 30
0.0
 40
0
 41
0
  0
VERTEX
  8
0
 10
25.5693
 20
61.069
 30
0.0
 40
0
 41
0
  0
VERTEX
  8
0
 10
25.545
 20
61.069
 30
0.0
 40
0
 41
0
  0
VERTEX
  8
0
 10
25.5206
 20
61.069
 30
0.0
 40
0
 41
0
  0
VERTEX
  8
0
 10
25.4476
 20
61.0888
 30
0.0
 40
0
 41
0
  0
VERTEX
  8
0
 10
25.3682
 20
61.1422
 30
0.0
 40
0
 41
0
  0
VERTEX
  8
0
 10
25.3146
 20
61.2217
 30
0.0
 40
0
 41
0
  0
VERTEX
  8
0
 10
25.295
 20
61.2947
 30
0.0
 40
0
 41
0
  0
VERTEX
  8
0
 10
25.295
 20
61.319
 30
0.0
 40
0
 41
0
  0
VERTEX
  8
0
 10
25.295
 20
61.3433
 30
0.0
 40
0
 41
0
  0
VERTEX
  8
0
 10
25.3146
 20
61.4164
 30
0.0
 40
0
 41
0
  0
VERTEX
  8
0
 10
25.3682
 20
61.4958
 30
0.0
 40
0
 41
0
  0
VERTEX
  8
0
 10
25.4476
 20
61.5493
 30
0.0
 40
0
 41
0
  0
VERTEX
  8
0
 10
25.5206
 20
61.569
 30
0.0
 40
0
 41
0
  0
VERTEX
  8
0
 10
25.545
 20
61.569
 30
0.0
 40
0
 41
0
  0
VERTEX
  8
0
 10
25.5693
 20
61.569
 30
0.0
 40
0
 41
0
  0
VERTEX
  8
0
 10
25.6422
 20
61.5493
 30
0.0
 40
0
 41
0
  0
VERTEX
  8
0
 10
25.7217
 20
61.4958
 30
0.0
 40
0
 41
0
  0
VERTEX
  8
0
 10
25.7753
 20
61.4164
 30
0.0
 40
0
 41
0
  0
VERTEX
  8
0
 10
25.795
 20
61.3433
 30
0.0
 40
0
 41
0
  0
VERTEX
  8
0
 10
25.795
 20
61.319
 30
0.0
 40
0
 41
0
  0
SEQEND
 8
0
  0
POLYLINE
  8
0
 62
     0
 66
     1
 10
0
 20
0
 30
0.0
 70
     1
 40
0
 41
0
  0
VERTEX
  8
0
 10
25.4085
 20
65.2862
 30
0.0
 40
0
 41
0
  0
VERTEX
  8
0
 10
25.4085
 20
65.2619
 30
0.0
 40
0
 41
0
  0
VERTEX
  8
0
 10
25.3889
 20
65.189
 30
0.0
 40
0
 41
0
  0
VERTEX
  8
0
 10
25.3353
 20
65.1094
 30
0.0
 40
0
 41
0
  0
VERTEX
  8
0
 10
25.2558
 20
65.056
 30
0.0
 40
0
 41
0
  0
VERTEX
  8
0
 10
25.1828
 20
65.0362
 30
0.0
 40
0
 41
0
  0
VERTEX
  8
0
 10
25.1585
 20
65.0362
 30
0.0
 40
0
 41
0
  0
VERTEX
  8
0
 10
25.1342
 20
65.0362
 30
0.0
 40
0
 41
0
  0
VERTEX
  8
0
 10
25.0613
 20
65.056
 30
0.0
 40
0
 41
0
  0
VERTEX
  8
0
 10
24.9817
 20
65.1094
 30
0.0
 40
0
 41
0
  0
VERTEX
  8
0
 10
24.9282
 20
65.189
 30
0.0
 40
0
 41
0
  0
VERTEX
  8
0
 10
24.9085
 20
65.2619
 30
0.0
 40
0
 41
0
  0
VERTEX
  8
0
 10
24.9085
 20
65.2862
 30
0.0
 40
0
 41
0
  0
VERTEX
  8
0
 10
24.9085
 20
65.3106
 30
0.0
 40
0
 41
0
  0
VERTEX
  8
0
 10
24.9282
 20
65.3836
 30
0.0
 40
0
 41
0
  0
VERTEX
  8
0
 10
24.9817
 20
65.4631
 30
0.0
 40
0
 41
0
  0
VERTEX
  8
0
 10
25.0613
 20
65.5167
 30
0.0
 40
0
 41
0
  0
VERTEX
  8
0
 10
25.1342
 20
65.5362
 30
0.0
 40
0
 41
0
  0
VERTEX
  8
0
 10
25.1585
 20
65.5362
 30
0.0
 40
0
 41
0
  0
VERTEX
  8
0
 10
25.1828
 20
65.5362
 30
0.0
 40
0
 41
0
  0
VERTEX
  8
0
 10
25.2558
 20
65.5167
 30
0.0
 40
0
 41
0
  0
VERTEX
  8
0
 10
25.3353
 20
65.4631
 30
0.0
 40
0
 41
0
  0
VERTEX
  8
0
 10
25.3889
 20
65.3836
 30
0.0
 40
0
 41
0
  0
VERTEX
  8
0
 10
25.4085
 20
65.3106
 30
0.0
 40
0
 41
0
  0
VERTEX
  8
0
 10
25.4085
 20
65.2862
 30
0.0
 40
0
 41
0
  0
SEQEND
 8
0
  0
POLYLINE
  8
0
 62
     0
 66
     1
 10
0
 20
0
 30
0.0
 70
     1
 40
0
 41
0
  0
VERTEX
  8
0
 10
24.7806
 20
62.6315
 30
0.0
 40
0
 41
0
  0
VERTEX
  8
0
 10
24.7806
 20
62.6208
 30
0.0
 40
0
 41
0
  0
VERTEX
  8
0
 10
24.7718
 20
62.5886
 30
0.0
 40
0
 41
0
  0
VERTEX
  8
0
 10
24.7481
 20
62.5533
 30
0.0
 40
0
 41
0
  0
VERTEX
  8
0
 10
24.7129
 20
62.5297
 30
0.0
 40
0
 41
0
  0
VERTEX
  8
0
 10
24.6807
 20
62.521
 30
0.0
 40
0
 41
0
  0
VERTEX
  8
0
 10
24.67
 20
62.521
 30
0.0
 40
0
 41
0
  0
VERTEX
  8
0
 10
24.6592
 20
62.521
 30
0.0
 40
0
 41
0
  0
VERTEX
  8
0
 10
24.6269
 20
62.5297
 30
0.0
 40
0
 41
0
  0
VERTEX
  8
0
 10
24.5918
 20
62.5533
 30
0.0
 40
0
 41
0
  0
VERTEX
  8
0
 10
24.5682
 20
62.5886
 30
0.0
 40
0
 41
0
  0
VERTEX
  8
0
 10
24.5596
 20
62.6208
 30
0.0
 40
0
 41
0
  0
VERTEX
  8
0
 10
24.5596
 20
62.6315
 30
0.0
 40
0
 41
0
  0
VERTEX
  8
0
 10
24.5596
 20
62.6424
 30
0.0
 40
0
 41
0
  0
VERTEX
  8
0
 10
24.5682
 20
62.6746
 30
0.0
 40
0
 41
0
  0
VERTEX
  8
0
 10
24.5918
 20
62.7096
 30
0.0
 40
0
 41
0
  0
VERTEX
  8
0
 10
24.6269
 20
62.7333
 30
0.0
 40
0
 41
0
  0
VERTEX
  8
0
 10
24.6592
 20
62.7419
 30
0.0
 40
0
 41
0
  0
VERTEX
  8
0
 10
24.67
 20
62.7419
 30
0.0
 40
0
 41
0
  0
VERTEX
  8
0
 10
24.6807
 20
62.7419
 30
0.0
 40
0
 41
0
  0
VERTEX
  8
0
 10
24.7129
 20
62.7333
 30
0.0
 40
0
 41
0
  0
VERTEX
  8
0
 10
24.7481
 20
62.7096
 30
0.0
 40
0
 41
0
  0
VERTEX
  8
0
 10
24.7718
 20
62.6746
 30
0.0
 40
0
 41
0
  0
VERTEX
  8
0
 10
24.7806
 20
62.6424
 30
0.0
 40
0
 41
0
  0
VERTEX
  8
0
 10
24.7806
 20
62.6315
 30
0.0
 40
0
 41
0
  0
SEQEND
 8
0
  0
POLYLINE
  8
0
 62
     0
 66
     1
 10
0
 20
0
 30
0.0
 70
     1
 40
0
 41
0
  0
VERTEX
  8
0
 10
24.7806
 20
60.0065
 30
0.0
 40
0
 41
0
  0
VERTEX
  8
0
 10
24.7806
 20
59.9958
 30
0.0
 40
0
 41
0
  0
VERTEX
  8
0
 10
24.7718
 20
59.9636
 30
0.0
 40
0
 41
0
  0
VERTEX
  8
0
 10
24.7481
 20
59.9283
 30
0.0
 40
0
 41
0
  0
VERTEX
  8
0
 10
24.7129
 20
59.9047
 30
0.0
 40
0
 41
0
  0
VERTEX
  8
0
 10
24.6807
 20
59.896
 30
0.0
 40
0
 41
0
  0
VERTEX
  8
0
 10
24.67
 20
59.896
 30
0.0
 40
0
 41
0
  0
VERTEX
  8
0
 10
24.6592
 20
59.896
 30
0.0
 40
0
 41
0
  0
VERTEX
  8
0
 10
24.6269
 20
59.9047
 30
0.0
 40
0
 41
0
  0
VERTEX
  8
0
 10
24.5918
 20
59.9283
 30
0.0
 40
0
 41
0
  0
VERTEX
  8
0
 10
24.5682
 20
59.9636
 30
0.0
 40
0
 41
0
  0
VERTEX
  8
0
 10
24.5596
 20
59.9958
 30
0.0
 40
0
 41
0
  0
VERTEX
  8
0
 10
24.5596
 20
60.0065
 30
0.0
 40
0
 41
0
  0
VERTEX
  8
0
 10
24.5596
 20
60.0174
 30
0.0
 40
0
 41
0
  0
VERTEX
  8
0
 10
24.5682
 20
60.0496
 30
0.0
 40
0
 41
0
  0
VERTEX
  8
0
 10
24.5918
 20
60.0846
 30
0.0
 40
0
 41
0
  0
VERTEX
  8
0
 10
24.6269
 20
60.1083
 30
0.0
 40
0
 41
0
  0
VERTEX
  8
0
 10
24.6592
 20
60.1169
 30
0.0
 40
0
 41
0
  0
VERTEX
  8
0
 10
24.67
 20
60.1169
 30
0.0
 40
0
 41
0
  0
VERTEX
  8
0
 10
24.6807
 20
60.1169
 30
0.0
 40
0
 41
0
  0
VERTEX
  8
0
 10
24.7129
 20
60.1083
 30
0.0
 40
0
 41
0
  0
VERTEX
  8
0
 10
24.7481
 20
60.0846
 30
0.0
 40
0
 41
0
  0
VERTEX
  8
0
 10
24.7718
 20
60.0496
 30
0.0
 40
0
 41
0
  0
VERTEX
  8
0
 10
24.7806
 20
60.0174
 30
0.0
 40
0
 41
0
  0
VERTEX
  8
0
 10
24.7806
 20
60.0065
 30
0.0
 40
0
 41
0
  0
SEQEND
 8
0
  0
POLYLINE
  8
0
 62
     0
 66
     1
 10
0
 20
0
 30
0.0
 70
     1
 40
0
 41
0
  0
VERTEX
  8
0
 10
26.7806
 20
61.319
 30
0.0
 40
0
 41
0
  0
VERTEX
  8
0
 10
26.7806
 20
61.3083
 30
0.0
 40
0
 41
0
  0
VERTEX
  8
0
 10
26.7718
 20
61.2761
 30
0.0
 40
0
 41
0
  0
VERTEX
  8
0
 10
26.7481
 20
61.2408
 30
0.0
 40
0
 41
0
  0
VERTEX
  8
0
 10
26.7129
 20
61.2172
 30
0.0
 40
0
 41
0
  0
VERTEX
  8
0
 10
26.6807
 20
61.2085
 30
0.0
 40
0
 41
0
  0
VERTEX
  8
0
 10
26.67
 20
61.2085
 30
0.0
 40
0
 41
0
  0
VERTEX
  8
0
 10
26.6592
 20
61.2085
 30
0.0
 40
0
 41
0
  0
VERTEX
  8
0
 10
26.6269
 20
61.2172
 30
0.0
 40
0
 41
0
  0
VERTEX
  8
0
 10
26.5918
 20
61.2408
 30
0.0
 40
0
 41
0
  0
VERTEX
  8
0
 10
26.5682
 20
61.2761
 30
0.0
 40
0
 41
0
  0
VERTEX
  8
0
 10
26.5596
 20
61.3083
 30
0.0
 40
0
 41
0
  0
VERTEX
  8
0
 10
26.5596
 20
61.319
 30
0.0
 40
0
 41
0
  0
VERTEX
  8
0
 10
26.5596
 20
61.3299
 30
0.0
 40
0
 41
0
  0
VERTEX
  8
0
 10
26.5682
 20
61.3621
 30
0.0
 40
0
 41
0
  0
VERTEX
  8
0
 10
26.5918
 20
61.3971
 30
0.0
 40
0
 41
0
  0
VERTEX
  8
0
 10
26.6269
 20
61.4208
 30
0.0
 40
0
 41
0
  0
VERTEX
  8
0
 10
26.6592
 20
61.4294
 30
0.0
 40
0
 41
0
  0
VERTEX
  8
0
 10
26.67
 20
61.4294
 30
0.0
 40
0
 41
0
  0
VERTEX
  8
0
 10
26.6807
 20
61.4294
 30
0.0
 40
0
 41
0
  0
VERTEX
  8
0
 10
26.7129
 20
61.4208
 30
0.0
 40
0
 41
0
  0
VERTEX
  8
0
 10
26.7481
 20
61.3971
 30
0.0
 40
0
 41
0
  0
VERTEX
  8
0
 10
26.7718
 20
61.3621
 30
0.0
 40
0
 41
0
  0
VERTEX
  8
0
 10
26.7806
 20
61.3299
 30
0.0
 40
0
 41
0
  0
VERTEX
  8
0
 10
26.7806
 20
61.319
 30
0.0
 40
0
 41
0
  0
SEQEND
 8
0
  0
POLYLINE
  8
0
 62
     0
 66
     1
 10
0
 20
0
 30
0.0
 70
     1
 40
0
 41
0
  0
VERTEX
  8
0
 10
24.9799
 20
64.2881
 30
0.0
 40
0
 41
0
  0
VERTEX
  8
0
 10
24.9799
 20
64.2774
 30
0.0
 40
0
 41
0
  0
VERTEX
  8
0
 10
24.9713
 20
64.2451
 30
0.0
 40
0
 41
0
  0
VERTEX
  8
0
 10
24.9475
 20
64.21
 30
0.0
 40
0
 41
0
  0
VERTEX
  8
0
 10
24.9124
 20
64.1863
 30
0.0
 40
0
 41
0
  0
VERTEX
  8
0
 10
24.8801
 20
64.1776
 30
0.0
 40
0
 41
0
  0
VERTEX
  8
0
 10
24.8694
 20
64.1776
 30
0.0
 40
0
 41
0
  0
VERTEX
  8
0
 10
24.8586
 20
64.1776
 30
0.0
 40
0
 41
0
  0
VERTEX
  8
0
 10
24.8264
 20
64.1863
 30
0.0
 40
0
 41
0
  0
VERTEX
  8
0
 10
24.7912
 20
64.21
 30
0.0
 40
0
 41
0
  0
VERTEX
  8
0
 10
24.7676
 20
64.2451
 30
0.0
 40
0
 41
0
  0
VERTEX
  8
0
 10
24.7589
 20
64.2774
 30
0.0
 40
0
 41
0
  0
VERTEX
  8
0
 10
24.7589
 20
64.2881
 30
0.0
 40
0
 41
0
  0
VERTEX
  8
0
 10
24.7589
 20
64.2989
 30
0.0
 40
0
 41
0
  0
VERTEX
  8
0
 10
24.7676
 20
64.3311
 30
0.0
 40
0
 41
0
  0
VERTEX
  8
0
 10
24.7912
 20
64.3663
 30
0.0
 40
0
 41
0
  0
VERTEX
  8
0
 10
24.8264
 20
64.3899
 30
0.0
 40
0
 41
0
  0
VERTEX
  8
0
 10
24.8586
 20
64.3986
 30
0.0
 40
0
 41
0
  0
VERTEX
  8
0
 10
24.8694
 20
64.3986
 30
0.0
 40
0
 41
0
  0
VERTEX
  8
0
 10
24.8801
 20
64.3986
 30
0.0
 40
0
 41
0
  0
VERTEX
  8
0
 10
24.9124
 20
64.3899
 30
0.0
 40
0
 41
0
  0
VERTEX
  8
0
 10
24.9475
 20
64.3663
 30
0.0
 40
0
 41
0
  0
VERTEX
  8
0
 10
24.9713
 20
64.3311
 30
0.0
 40
0
 41
0
  0
VERTEX
  8
0
 10
24.9799
 20
64.2989
 30
0.0
 40
0
 41
0
  0
VERTEX
  8
0
 10
24.9799
 20
64.2881
 30
0.0
 40
0
 41
0
  0
SEQEND
 8
0
  0
POLYLINE
  8
0
 62
     0
 66
     1
 10
0
 20
0
 30
0.0
 70
     1
 40
0
 41
0
  0
VERTEX
  8
0
 10
24.811
 20
66.219
 30
0.0
 40
0
 41
0
  0
VERTEX
  8
0
 10
24.811
 20
66.2083
 30
0.0
 40
0
 41
0
  0
VERTEX
  8
0
 10
24.8022
 20
66.1761
 30
0.0
 40
0
 41
0
  0
VERTEX
  8
0
 10
24.7786
 20
66.141
 30
0.0
 40
0
 41
0
  0
VERTEX
  8
0
 10
24.7435
 20
66.1174
 30
0.0
 40
0
 41
0
  0
VERTEX
  8
0
 10
24.7112
 20
66.1086
 30
0.0
 40
0
 41
0
  0
VERTEX
  8
0
 10
24.7006
 20
66.1086
 30
0.0
 40
0
 41
0
  0
VERTEX
  8
0
 10
24.6897
 20
66.1086
 30
0.0
 40
0
 41
0
  0
VERTEX
  8
0
 10
24.6575
 20
66.1174
 30
0.0
 40
0
 41
0
  0
VERTEX
  8
0
 10
24.6224
 20
66.141
 30
0.0
 40
0
 41
0
  0
VERTEX
  8
0
 10
24.5987
 20
66.1761
 30
0.0
 40
0
 41
0
  0
VERTEX
  8
0
 10
24.59
 20
66.2083
 30
0.0
 40
0
 41
0
  0
VERTEX
  8
0
 10
24.59
 20
66.219
 30
0.0
 40
0
 41
0
  0
VERTEX
  8
0
 10
24.59
 20
66.2299
 30
0.0
 40
0
 41
0
  0
VERTEX
  8
0
 10
24.5987
 20
66.2621
 30
0.0
 40
0
 41
0
  0
VERTEX
  8
0
 10
24.6224
 20
66.2972
 30
0.0
 40
0
 41
0
  0
VERTEX
  8
0
 10
24.6575
 20
66.321
 30
0.0
 40
0
 41
0
  0
VERTEX
  8
0
 10
24.6897
 20
66.3296
 30
0.0
 40
0
 41
0
  0
VERTEX
  8
0
 10
24.7006
 20
66.3296
 30
0.0
 40
0
 41
0
  0
VERTEX
  8
0
 10
24.7112
 20
66.3296
 30
0.0
 40
0
 41
0
  0
VERTEX
  8
0
 10
24.7435
 20
66.321
 30
0.0
 40
0
 41
0
  0
VERTEX
  8
0
 10
24.7786
 20
66.2972
 30
0.0
 40
0
 41
0
  0
VERTEX
  8
0
 10
24.8022
 20
66.2621
 30
0.0
 40
0
 41
0
  0
VERTEX
  8
0
 10
24.811
 20
66.2299
 30
0.0
 40
0
 41
0
  0
VERTEX
  8
0
 10
24.811
 20
66.219
 30
0.0
 40
0
 41
0
  0
SEQEND
 8
0
  0
POLYLINE
  8
0
 62
     0
 66
     1
 10
0
 20
0
 30
0.0
 70
     1
 40
0
 41
0
  0
VERTEX
  8
0
 10
26.2922
 20
65.3757
 30
0.0
 40
0
 41
0
  0
VERTEX
  8
0
 10
26.2922
 20
65.365
 30
0.0
 40
0
 41
0
  0
VERTEX
  8
0
 10
26.2835
 20
65.3328
 30
0.0
 40
0
 41
0
  0
VERTEX
  8
0
 10
26.2599
 20
65.2976
 30
0.0
 40
0
 41
0
  0
VERTEX
  8
0
 10
26.2247
 20
65.274
 30
0.0
 40
0
 41
0
  0
VERTEX
  8
0
 10
26.1925
 20
65.2653
 30
0.0
 40
0
 41
0
  0
VERTEX
  8
0
 10
26.1817
 20
65.2653
 30
0.0
 40
0
 41
0
  0
VERTEX
  8
0
 10
26.1708
 20
65.2653
 30
0.0
 40
0
 41
0
  0
VERTEX
  8
0
 10
26.1386
 20
65.274
 30
0.0
 40
0
 41
0
  0
VERTEX
  8
0
 10
26.1035
 20
65.2976
 30
0.0
 40
0
 41
0
  0
VERTEX
  8
0
 10
26.0799
 20
65.3328
 30
0.0
 40
0
 41
0
  0
VERTEX
  8
0
 10
26.0713
 20
65.365
 30
0.0
 40
0
 41
0
  0
VERTEX
  8
0
 10
26.0713
 20
65.3757
 30
0.0
 40
0
 41
0
  0
VERTEX
  8
0
 10
26.0713
 20
65.3865
 30
0.0
 40
0
 41
0
  0
VERTEX
  8
0
 10
26.0799
 20
65.4187
 30
0.0
 40
0
 41
0
  0
VERTEX
  8
0
 10
26.1035
 20
65.4539
 30
0.0
 40
0
 41
0
  0
VERTEX
  8
0
 10
26.1386
 20
65.4776
 30
0.0
 40
0
 41
0
  0
VERTEX
  8
0
 10
26.1708
 20
65.4862
 30
0.0
 40
0
 41
0
  0
VERTEX
  8
0
 10
26.1817
 20
65.4862
 30
0.0
 40
0
 41
0
  0
VERTEX
  8
0
 10
26.1925
 20
65.4862
 30
0.0
 40
0
 41
0
  0
VERTEX
  8
0
 10
26.2247
 20
65.4776
 30
0.0
 40
0
 41
0
  0
VERTEX
  8
0
 10
26.2599
 20
65.4539
 30
0.0
 40
0
 41
0
  0
VERTEX
  8
0
 10
26.2835
 20
65.4187
 30
0.0
 40
0
 41
0
  0
VERTEX
  8
0
 10
26.2922
 20
65.3865
 30
0.0
 40
0
 41
0
  0
VERTEX
  8
0
 10
26.2922
 20
65.3757
 30
0.0
 40
0
 41
0
  0
SEQEND
 8
0
  0
POLYLINE
  8
0
 62
     0
 66
     1
 10
0
 20
0
 30
0.0
 70
     1
 40
0
 41
0
  0
VERTEX
  8
0
 10
0
 20
54.1754
 30
0.0
 40
0
 41
0
  0
VERTEX
  8
0
 10
7.17128
 20
54.1754
 30
0.0
 40
0
 41
0
  0
VERTEX
  8
0
 10
7.17128
 20
49.3629
 30
0.0
 40
0
 41
0
  0
VERTEX
  8
0
 10
0
 20
49.3629
 30
0.0
 40
0
 41
0
  0
VERTEX
  8
0
 10
0
 20
54.1754
 30
0.0
 40
0
 41
0
  0
SEQEND
 8
0
  0
POLYLINE
  8
0
 62
     0
 66
     1
 10
0
 20
0
 30
0.0
 70
     1
 40
0
 41
0
  0
VERTEX
  8
0
 10
3.58561
 20
52.5504
 30
0.0
 40
0
 41
0
  0
VERTEX
  8
0
 10
3.59776
 20
52.5504
 30
0.0
 40
0
 41
0
  0
VERTEX
  8
0
 10
3.63428
 20
52.5407
 30
0.0
 40
0
 41
0
  0
VERTEX
  8
0
 10
3.67399
 20
52.5139
 30
0.0
 40
0
 41
0
  0
VERTEX
  8
0
 10
3.70079
 20
52.4742
 30
0.0
 40
0
 41
0
  0
VERTEX
  8
0
 10
3.71061
 20
52.4376
 30
0.0
 40
0
 41
0
  0
VERTEX
  8
0
 10
3.71061
 20
52.4254
 30
0.0
 40
0
 41
0
  0
VERTEX
  8
0
 10
3.71061
 20
52.4133
 30
0.0
 40
0
 41
0
  0
VERTEX
  8
0
 10
3.70079
 20
52.3768
 30
0.0
 40
0
 41
0
  0
VERTEX
  8
0
 10
3.67399
 20
52.3371
 30
0.0
 40
0
 41
0
  0
VERTEX
  8
0
 10
3.63428
 20
52.3103
 30
0.0
 40
0
 41
0
  0
VERTEX
  8
0
 10
3.59776
 20
52.3004
 30
0.0
 40
0
 41
0
  0
VERTEX
  8
0
 10
3.58561
 20
52.3004
 30
0.0
 40
0
 41
0
  0
VERTEX
  8
0
 10
3.5734
 20
52.3004
 30
0.0
 40
0
 41
0
  0
VERTEX
  8
0
 10
3.53694
 20
52.3103
 30
0.0
 40
0
 41
0
  0
VERTEX
  8
0
 10
3.49724
 20
52.3371
 30
0.0
 40
0
 41
0
  0
VERTEX
  8
0
 10
3.47043
 20
52.3768
 30
0.0
 40
0
 41
0
  0
VERTEX
  8
0
 10
3.46061
 20
52.4133
 30
0.0
 40
0
 41
0
  0
VERTEX
  8
0
 10
3.46061
 20
52.4254
 30
0.0
 40
0
 41
0
  0
VERTEX
  8
0
 10
3.46061
 20
52.4376
 30
0.0
 40
0
 41
0
  0
VERTEX
  8
0
 10
3.47043
 20
52.4742
 30
0.0
 40
0
 41
0
  0
VERTEX
  8
0
 10
3.49724
 20
52.5139
 30
0.0
 40
0
 41
0
  0
VERTEX
  8
0
 10
3.53694
 20
52.5407
 30
0.0
 40
0
 41
0
  0
VERTEX
  8
0
 10
3.5734
 20
52.5504
 30
0.0
 40
0
 41
0
  0
VERTEX
  8
0
 10
3.58561
 20
52.5504
 30
0.0
 40
0
 41
0
  0
SEQEND
 8
0
  0
POLYLINE
  8
0
 62
     0
 66
     1
 10
0
 20
0
 30
0.0
 70
     1
 40
0
 41
0
  0
VERTEX
  8
0
 10
7.04258
 20
24.2419
 30
0.0
 40
0
 41
0
  0
VERTEX
  8
0
 10
7.05057
 20
24.3276
 30
0.0
 40
0
 41
0
  0
VERTEX
  8
0
 10
7.08431
 20
24.5833
 30
0.0
 40
0
 41
0
  0
VERTEX
  8
0
 10
7.14518
 20
24.9199
 30
0.0
 40
0
 41
0
  0
VERTEX
  8
0
 10
7.22467
 20
25.2507
 30
0.0
 40
0
 41
0
  0
VERTEX
  8
0
 10
7.32238
 20
25.5753
 30
0.0
 40
0
 41
0
  0
VERTEX
  8
0
 10
7.43787
 20
25.8929
 30
0.0
 40
0
 41
0
  0
VERTEX
  8
0
 10
7.57081
 20
26.2026
 30
0.0
 40
0
 41
0
  0
VERTEX
  8
0
 10
7.72065
 20
26.5042
 30
0.0
 40
0
 41
0
  0
VERTEX
  8
0
 10
7.88704
 20
26.7965
 30
0.0
 40
0
 41
0
  0
VERTEX
  8
0
 10
8.06956
 20
27.0792
 30
0.0
 40
0
 41
0
  0
VERTEX
  8
0
 10
8.26774
 20
27.3514
 30
0.0
 40
0
 41
0
  0
VERTEX
  8
0
 10
8.48122
 20
27.6124
 30
0.0
 40
0
 41
0
  0
VERTEX
  8
0
 10
8.70953
 20
27.8614
 30
0.0
 40
0
 41
0
  0
VERTEX
  8
0
 10
8.95231
 20
28.0979
 30
0.0
 40
0
 41
0
  0
VERTEX
  8
0
 10
9.2091
 20
28.3213
 30
0.0
 40
0
 41
0
  0
VERTEX
  8
0
 10
9.47944
 20
28.5306
 30
0.0
 40
0
 41
0
  0
VERTEX
  8
0
 10
9.69075
 20
28.6786
 30
0.0
 40
0
 41
0
  0
VERTEX
  8
0
 10
9.76297
 20
28.7253
 30
0.0
 40
0
 41
0
  0
VERTEX
  8
0
 10
21.3219
 20
36.1856
 30
0.0
 40
0
 41
0
  0
VERTEX
  8
0
 10
22.279
 20
36.4753
 30
0.0
 40
0
 41
0
  0
VERTEX
  8
0
 10
21.4981
 20
39.0556
 30
0.0
 40
0
 41
0
  0
VERTEX
  8
0
 10
0.180067
 20
32.6035
 30
0.0
 40
0
 41
0
  0
VERTEX
  8
0
 10
0.180067
 20
10.1629
 30
0.0
 40
0
 41
0
  0
VERTEX
  8
0
 10
0.180067
 20
10.1136
 30
0.0
 40
0
 41
0
  0
VERTEX
  8
0
 10
0.194282
 20
9.96528
 30
0.0
 40
0
 41
0
  0
VERTEX
  8
0
 10
0.236003
 20
9.77458
 30
0.0
 40
0
 41
0
  0
VERTEX
  8
0
 10
0.303549
 20
9.59338
 30
0.0
 40
0
 41
0
  0
VERTEX
  8
0
 10
0.395344
 20
9.42415
 30
0.0
 40
0
 41
0
  0
VERTEX
  8
0
 10
0.509928
 20
9.26942
 30
0.0
 40
0
 41
0
  0
VERTEX
  8
0
 10
0.645562
 20
9.13162
 30
0.0
 40
0
 41
0
  0
VERTEX
  8
0
 10
0.800782
 20
9.01324
 30
0.0
 40
0
 41
0
  0
VERTEX
  8
0
 10
0.929144
 20
8.93767
 30
0.0
 40
0
 41
0
  0
VERTEX
  8
0
 10
0.973958
 20
8.91678
 30
0.0
 40
0
 41
0
  0
VERTEX
  8
0
 10
3.73676
 20
7.62842
 30
0.0
 40
0
 41
0
  0
VERTEX
  8
0
 10
3.81131
 20
7.59369
 30
0.0
 40
0
 41
0
  0
VERTEX
  8
0
 10
4.05186
 20
7.52561
 30
0.0
 40
0
 41
0
  0
VERTEX
  8
0
 10
4.37782
 20
7.50092
 30
0.0
 40
0
 41
0
  0
VERTEX
  8
0
 10
4.70042
 20
7.55393
 30
0.0
 40
0
 41
0
  0
VERTEX
  8
0
 10
4.93414
 20
7.64268
 30
0.0
 40
0
 41
0
  0
VERTEX
  8
0
 10
5.00537
 20
7.68381
 30
0.0
 40
0
 41
0
  0
VERTEX
  8
0
 10
5.04139
 20
7.70464
 30
0.0
 40
0
 41
0
  0
VERTEX
  8
0
 10
5.14458
 20
7.77593
 30
0.0
 40
0
 41
0
  0
VERTEX
  8
0
 10
5.27035
 20
7.88297
 30
0.0
 40
0
 41
0
  0
VERTEX
  8
0
 10
5.38162
 20
8.00342
 30
0.0
 40
0
 41
0
  0
VERTEX
  8
0
 10
5.47754
 20
8.13585
 30
0.0
 40
0
 41
0
  0
VERTEX
  8
0
 10
5.55701
 20
8.27869
 30
0.0
 40
0
 41
0
  0
VERTEX
  8
0
 10
5.61914
 20
8.43044
 30
0.0
 40
0
 41
0
  0
VERTEX
  8
0
 10
5.66303
 20
8.58968
 30
0.0
 40
0
 41
0
  0
VERTEX
  8
0
 10
5.68403
 20
8.71332
 30
0.0
 40
0
 41
0
  0
VERTEX
  8
0
 10
5.68767
 20
8.75478
 30
0.0
 40
0
 41
0
  0
VERTEX
  8
0
 10
7.04258
 20
24.2419
 30
0.0
 40
0
 41
0
  0
SEQEND
 8
0
  0
POLYLINE
  8
0
 62
     0
 66
     1
 10
0
 20
0
 30
0.0
 70
     1
 40
0
 41
0
  0
VERTEX
  8
0
 10
0.785536
 20
21.4542
 30
0.0
 40
0
 41
0
  0
VERTEX
  8
0
 10
0.785536
 20
21.4765
 30
0.0
 40
0
 41
0
  0
VERTEX
  8
0
 10
0.800293
 20
21.5433
 30
0.0
 40
0
 41
0
  0
VERTEX
  8
0
 10
0.841689
 20
21.621
 30
0.0
 40
0
 41
0
  0
VERTEX
  8
0
 10
0.90549
 20
21.6817
 30
0.0
 40
0
 41
0
  0
VERTEX
  8
0
 10
0.965875
 20
21.7138
 30
0.0
 40
0
 41
0
  0
VERTEX
  8
0
 10
0.987358
 20
21.7197
 30
0.0
 40
0
 41
0
  0
VERTEX
  8
0
 10
1.00879
 20
21.7257
 30
0.0
 40
0
 41
0
  0
VERTEX
  8
0
 10
1.07709
 20
21.7294
 30
0.0
 40
0
 41
0
  0
VERTEX
  8
0
 10
1.16309
 20
21.7103
 30
0.0
 40
0
 41
0
  0
VERTEX
  8
0
 10
1.23861
 20
21.665
 30
0.0
 40
0
 41
0
  0
VERTEX
  8
0
 10
1.2857
 20
21.6154
 30
0.0
 40
0
 41
0
  0
VERTEX
  8
0
 10
1.2972
 20
21.5964
 30
0.0
 40
0
 41
0
  0
VERTEX
  8
0
 10
2.22287
 20
20.0586
 30
0.0
 40
0
 41
0
  0
VERTEX
  8
0
 10
2.23264
 20
20.0424
 30
0.0
 40
0
 41
0
  0
VERTEX
  8
0
 10
2.25288
 20
19.9881
 30
0.0
 40
0
 41
0
  0
VERTEX
  8
0
 10
2.26232
 20
19.9132
 30
0.0
 40
0
 41
0
  0
VERTEX
  8
0
 10
2.25108
 20
19.8388
 30
0.0
 40
0
 41
0
  0
VERTEX
  8
0
 10
2.22954
 20
19.7849
 30
0.0
 40
0
 41
0
  0
VERTEX
  8
0
 10
2.2194
 20
19.7687
 30
0.0
 40
0
 41
0
  0
VERTEX
  8
0
 10
1.29378
 20
18.3108
 30
0.0
 40
0
 41
0
  0
VERTEX
  8
0
 10
1.28196
 20
18.2922
 30
0.0
 40
0
 41
0
  0
VERTEX
  8
0
 10
1.23421
 20
18.244
 30
0.0
 40
0
 41
0
  0
VERTEX
  8
0
 10
1.15848
 20
18.2007
 30
0.0
 40
0
 41
0
  0
VERTEX
  8
0
 10
1.07297
 20
18.1832
 30
0.0
 40
0
 41
0
  0
VERTEX
  8
0
 10
1.00537
 20
18.1878
 30
0.0
 40
0
 41
0
  0
VERTEX
  8
0
 10
0.984212
 20
18.1939
 30
0.0
 40
0
 41
0
  0
VERTEX
  8
0
 10
0.962999
 20
18.2
 30
0.0
 40
0
 41
0
  0
VERTEX
  8
0
 10
0.903483
 20
18.2324
 30
0.0
 40
0
 41
0
  0
VERTEX
  8
0
 10
0.840713
 20
18.2931
 30
0.0
 40
0
 41
0
  0
VERTEX
  8
0
 10
0.800022
 20
18.3703
 30
0.0
 40
0
 41
0
  0
VERTEX
  8
0
 10
0.785536
 20
18.4364
 30
0.0
 40
0
 41
0
  0
VERTEX
  8
0
 10
0.785536
 20
18.4585
 30
0.0
 40
0
 41
0
  0
VERTEX
  8
0
 10
0.785536
 20
21.4542
 30
0.0
 40
0
 41
0
  0
SEQEND
 8
0
  0
POLYLINE
  8
0
 62
     0
 66
     1
 10
0
 20
0
 30
0.0
 70
     1
 40
0
 41
0
  0
VERTEX
  8
0
 10
5.44069
 20
12.7211
 30
0.0
 40
0
 41
0
  0
VERTEX
  8
0
 10
5.43935
 20
12.7059
 30
0.0
 40
0
 41
0
  0
VERTEX
  8
0
 10
5.42301
 20
12.6612
 30
0.0
 40
0
 41
0
  0
VERTEX
  8
0
 10
5.38499
 20
12.6143
 30
0.0
 40
0
 41
0
  0
VERTEX
  8
0
 10
5.33219
 20
12.585
 30
0.0
 40
0
 41
0
  0
VERTEX
  8
0
 10
5.28532
 20
12.5767
 30
0.0
 40
0
 41
0
  0
VERTEX
  8
0
 10
5.27007
 20
12.578
 30
0.0
 40
0
 41
0
  0
VERTEX
  8
0
 10
5.23085
 20
12.5814
 30
0.0
 40
0
 41
0
  0
VERTEX
  8
0
 10
5.20031
 20
12.5841
 30
0.0
 40
0
 41
0
  0
VERTEX
  8
0
 10
5.10656
 20
12.5675
 30
0.0
 40
0
 41
0
  0
VERTEX
  8
0
 10
5.00092
 20
12.509
 30
0.0
 40
0
 41
0
  0
VERTEX
  8
0
 10
4.92497
 20
12.4151
 30
0.0
 40
0
 41
0
  0
VERTEX
  8
0
 10
4.89231
 20
12.3256
 30
0.0
 40
0
 41
0
  0
VERTEX
  8
0
 10
4.88965
 20
12.2951
 30
0.0
 40
0
 41
0
  0
VERTEX
  8
0
 10
4.88699
 20
12.2646
 30
0.0
 40
0
 41
0
  0
VERTEX
  8
0
 10
4.9036
 20
12.1708
 30
0.0
 40
0
 41
0
  0
VERTEX
  8
0
 10
4.96213
 20
12.0652
 30
0.0
 40
0
 41
0
  0
VERTEX
  8
0
 10
5.05593
 20
11.9893
 30
0.0
 40
0
 41
0
  0
VERTEX
  8
0
 10
5.1454
 20
11.9566
 30
0.0
 40
0
 41
0
  0
VERTEX
  8
0
 10
5.17594
 20
11.9539
 30
0.0
 40
0
 41
0
  0
VERTEX
  8
0
 10
5.21517
 20
11.9505
 30
0.0
 40
0
 41
0
  0
VERTEX
  8
0
 10
5.22553
 20
11.9496
 30
0.0
 40
0
 41
0
  0
VERTEX
  8
0
 10
5.27414
 20
11.9333
 30
0.0
 40
0
 41
0
  0
VERTEX
  8
0
 10
5.31538
 20
11.9028
 30
0.0
 40
0
 41
0
  0
VERTEX
  8
0
 10
5.3221
 20
11.8948
 30
0.0
 40
0
 41
0
  0
VERTEX
  8
0
 10
5.32878
 20
11.8868
 30
0.0
 40
0
 41
0
  0
VERTEX
  8
0
 10
5.35161
 20
11.8409
 30
0.0
 40
0
 41
0
  0
VERTEX
  8
0
 10
5.35921
 20
11.7903
 30
0.0
 40
0
 41
0
  0
VERTEX
  8
0
 10
5.35835
 20
11.7798
 30
0.0
 40
0
 41
0
  0
VERTEX
  8
0
 10
5.2915
 20
11.0161
 30
0.0
 40
0
 41
0
  0
VERTEX
  8
0
 10
5.29015
 20
11.0004
 30
0.0
 40
0
 41
0
  0
VERTEX
  8
0
 10
5.27794
 20
10.9539
 30
0.0
 40
0
 41
0
  0
VERTEX
  8
0
 10
5.24962
 20
10.8979
 30
0.0
 40
0
 41
0
  0
VERTEX
  8
0
 10
5.20828
 20
10.8508
 30
0.0
 40
0
 41
0
  0
VERTEX
  8
0
 10
5.16971
 20
10.8221
 30
0.0
 40
0
 41
0
  0
VERTEX
  8
0
 10
5.15565
 20
10.8149
 30
0.0
 40
0
 41
0
  0
VERTEX
  8
0
 10
2.95751
 20
9.69911
 30
0.0
 40
0
 41
0
  0
VERTEX
  8
0
 10
2.93614
 20
9.68826
 30
0.0
 40
0
 41
0
  0
VERTEX
  8
0
 10
2.82161
 20
9.66949
 30
0.0
 40
0
 41
0
  0
VERTEX
  8
0
 10
2.70899
 20
9.69743
 30
0.0
 40
0
 41
0
  0
VERTEX
  8
0
 10
2.68858
 20
9.70996
 30
0.0
 40
0
 41
0
  0
VERTEX
  8
0
 10
2.67361
 20
9.71912
 30
0.0
 40
0
 41
0
  0
VERTEX
  8
0
 10
2.63357
 20
9.75435
 30
0.0
 40
0
 41
0
  0
VERTEX
  8
0
 10
2.59224
 20
9.81028
 30
0.0
 40
0
 41
0
  0
VERTEX
  8
0
 10
2.56619
 20
9.87478
 30
0.0
 40
0
 41
0
  0
VERTEX
  8
0
 10
2.55718
 20
9.92736
 30
0.0
 40
0
 41
0
  0
VERTEX
  8
0
 10
2.55718
 20
9.94482
 30
0.0
 40
0
 41
0
  0
VERTEX
  8
0
 10
2.55718
 20
14.5592
 30
0.0
 40
0
 41
0
  0
VERTEX
  8
0
 10
2.55718
 20
14.5726
 30
0.0
 40
0
 41
0
  0
VERTEX
  8
0
 10
2.5625
 20
14.6132
 30
0.0
 40
0
 41
0
  0
VERTEX
  8
0
 10
2.57813
 20
14.6647
 30
0.0
 40
0
 41
0
  0
VERTEX
  8
0
 10
2.60346
 20
14.7121
 30
0.0
 40
0
 41
0
  0
VERTEX
  8
0
 10
2.62836
 20
14.7446
 30
0.0
 40
0
 41
0
  0
VERTEX
  8
0
 10
2.63792
 20
14.754
 30
0.0
 40
0
 41
0
  0
VERTEX
  8
0
 10
2.6474
 20
14.7636
 30
0.0
 40
0
 41
0
  0
VERTEX
  8
0
 10
2.67985
 20
14.7885
 30
0.0
 40
0
 41
0
  0
VERTEX
  8
0
 10
2.72726
 20
14.8137
 30
0.0
 40
0
 41
0
  0
VERTEX
  8
0
 10
2.77869
 20
14.8294
 30
0.0
 40
0
 41
0
  0
VERTEX
  8
0
 10
2.81922
 20
14.8347
 30
0.0
 40
0
 41
0
  0
VERTEX
  8
0
 10
2.83279
 20
14.8347
 30
0.0
 40
0
 41
0
  0
VERTEX
  8
0
 10
5.32487
 20
14.8347
 30
0.0
 40
0
 41
0
  0
VERTEX
  8
0
 10
5.33908
 20
14.8347
 30
0.0
 40
0
 41
0
  0
VERTEX
  8
0
 10
5.38183
 20
14.8289
 30
0.0
 40
0
 41
0
  0
VERTEX
  8
0
 10
5.43582
 20
14.8114
 30
0.0
 40
0
 41
0
  0
VERTEX
  8
0
 10
5.48514
 20
14.7833
 30
0.0
 40
0
 41
0
  0
VERTEX
  8
0
 10
5.51839
 20
14.7558
 30
0.0
 40
0
 41
0
  0
VERTEX
  8
0
 10
5.52806
 20
14.7453
 30
0.0
 40
0
 41
0
  0
VERTEX
  8
0
 10
5.53765
 20
14.7349
 30
0.0
 40
0
 41
0
  0
VERTEX
  8
0
 10
5.56212
 20
14.6993
 30
0.0
 40
0
 41
0
  0
VERTEX
  8
0
 10
5.58578
 20
14.6478
 30
0.0
 40
0
 41
0
  0
VERTEX
  8
0
 10
5.59842
 20
14.5925
 30
0.0
 40
0
 41
0
  0
VERTEX
  8
0
 10
5.60058
 20
14.5493
 30
0.0
 40
0
 41
0
  0
VERTEX
  8
0
 10
5.59939
 20
14.5351
 30
0.0
 40
0
 41
0
  0
VERTEX
  8
0
 10
5.44069
 20
12.7211
 30
0.0
 40
0
 41
0
  0
SEQEND
 8
0
  0
POLYLINE
  8
0
 62
     0
 66
     1
 10
0
 20
0
 30
0.0
 70
     1
 40
0
 41
0
  0
VERTEX
  8
0
 10
6.05832
 20
28.3304
 30
0.0
 40
0
 41
0
  0
VERTEX
  8
0
 10
6.08003
 20
28.3282
 30
0.0
 40
0
 41
0
  0
VERTEX
  8
0
 10
6.14393
 20
28.3076
 30
0.0
 40
0
 41
0
  0
VERTEX
  8
0
 10
6.21631
 20
28.2604
 30
0.0
 40
0
 41
0
  0
VERTEX
  8
0
 10
6.27056
 20
28.1929
 30
0.0
 40
0
 41
0
  0
VERTEX
  8
0
 10
6.29731
 20
28.1314
 30
0.0
 40
0
 41
0
  0
VERTEX
  8
0
 10
6.3016
 20
28.11
 30
0.0
 40
0
 41
0
  0
VERTEX
  8
0
 10
6.30583
 20
28.0886
 30
0.0
 40
0
 41
0
  0
VERTEX
  8
0
 10
6.30469
 20
28.0215
 30
0.0
 40
0
 41
0
  0
VERTEX
  8
0
 10
6.28049
 20
27.9385
 30
0.0
 40
0
 41
0
  0
VERTEX
  8
0
 10
6.23178
 20
27.8669
 30
0.0
 40
0
 41
0
  0
VERTEX
  8
0
 10
6.18067
 20
27.8235
 30
0.0
 40
0
 41
0
  0
VERTEX
  8
0
 10
6.1614
 20
27.8132
 30
0.0
 40
0
 41
0
  0
VERTEX
  8
0
 10
1.5849
 20
25.3628
 30
0.0
 40
0
 41
0
  0
VERTEX
  8
0
 10
1.56353
 20
25.3514
 30
0.0
 40
0
 41
0
  0
VERTEX
  8
0
 10
1.44819
 20
25.3301
 30
0.0
 40
0
 41
0
  0
VERTEX
  8
0
 10
1.33398
 20
25.3568
 30
0.0
 40
0
 41
0
  0
VERTEX
  8
0
 10
1.31321
 20
25.3693
 30
0.0
 40
0
 41
0
  0
VERTEX
  8
0
 10
1.29801
 20
25.3783
 30
0.0
 40
0
 41
0
  0
VERTEX
  8
0
 10
1.25716
 20
25.4136
 30
0.0
 40
0
 41
0
  0
VERTEX
  8
0
 10
1.21501
 20
25.4699
 30
0.0
 40
0
 41
0
  0
VERTEX
  8
0
 10
1.18842
 20
25.5349
 30
0.0
 40
0
 41
0
  0
VERTEX
  8
0
 10
1.1792
 20
25.5881
 30
0.0
 40
0
 41
0
  0
VERTEX
  8
0
 10
1.1792
 20
25.6057
 30
0.0
 40
0
 41
0
  0
VERTEX
  8
0
 10
1.1792
 20
28.5071
 30
0.0
 40
0
 41
0
  0
VERTEX
  8
0
 10
1.1792
 20
28.5214
 30
0.0
 40
0
 41
0
  0
VERTEX
  8
0
 10
1.18522
 20
28.5644
 30
0.0
 40
0
 41
0
  0
VERTEX
  8
0
 10
1.2028
 20
28.6188
 30
0.0
 40
0
 41
0
  0
VERTEX
  8
0
 10
1.23123
 20
28.6683
 30
0.0
 40
0
 41
0
  0
VERTEX
  8
0
 10
1.25912
 20
28.7017
 30
0.0
 40
0
 41
0
  0
VERTEX
  8
0
 10
1.26975
 20
28.7112
 30
0.0
 40
0
 41
0
  0
VERTEX
  8
0
 10
1.28033
 20
28.721
 30
0.0
 40
0
 41
0
  0
VERTEX
  8
0
 10
1.3163
 20
28.7453
 30
0.0
 40
0
 41
0
  0
VERTEX
  8
0
 10
1.36833
 20
28.7688
 30
0.0
 40
0
 41
0
  0
VERTEX
  8
0
 10
1.4241
 20
28.781
 30
0.0
 40
0
 41
0
  0
VERTEX
  8
0
 10
1.4675
 20
28.7828
 30
0.0
 40
0
 41
0
  0
VERTEX
  8
0
 10
1.48182
 20
28.7813
 30
0.0
 40
0
 41
0
  0
VERTEX
  8
0
 10
6.05832
 20
28.3304
 30
0.0
 40
0
 41
0
  0
SEQEND
 8
0
  0
POLYLINE
  8
0
 62
     0
 66
     1
 10
0
 20
0
 30
0.0
 70
     1
 40
0
 41
0
  0
VERTEX
  8
0
 10
16.9714
 20
36.4965
 30
0.0
 40
0
 41
0
  0
VERTEX
  8
0
 10
16.9971
 20
36.5044
 30
0.0
 40
0
 41
0
  0
VERTEX
  8
0
 10
17.0804
 20
36.5069
 30
0.0
 40
0
 41
0
  0
VERTEX
  8
0
 10
17.1813
 20
36.476
 30
0.0
 40
0
 41
0
  0
VERTEX
  8
0
 10
17.2632
 20
36.4092
 30
0.0
 40
0
 41
0
  0
VERTEX
  8
0
 10
17.3074
 20
36.3385
 30
0.0
 40
0
 41
0
  0
VERTEX
  8
0
 10
17.3151
 20
36.3128
 30
0.0
 40
0
 41
0
  0
VERTEX
  8
0
 10
17.5885
 20
35.4114
 30
0.0
 40
0
 41
0
  0
VERTEX
  8
0
 10
17.5953
 20
35.3892
 30
0.0
 40
0
 41
0
  0
VERTEX
  8
0
 10
17.5947
 20
35.2765
 30
0.0
 40
0
 41
0
  0
VERTEX
  8
0
 10
17.5512
 20
35.1726
 30
0.0
 40
0
 41
0
  0
VERTEX
  8
0
 10
17.5364
 20
35.1547
 30
0.0
 40
0
 41
0
  0
VERTEX
  8
0
 10
17.5254
 20
35.1418
 30
0.0
 40
0
 41
0
  0
VERTEX
  8
0
 10
17.4863
 20
35.1081
 30
0.0
 40
0
 41
0
  0
VERTEX
  8
0
 10
17.4271
 20
35.0756
 30
0.0
 40
0
 41
0
  0
VERTEX
  8
0
 10
17.3618
 20
35.0583
 30
0.0
 40
0
 41
0
  0
VERTEX
  8
0
 10
17.3101
 20
35.0557
 30
0.0
 40
0
 41
0
  0
VERTEX
  8
0
 10
17.2932
 20
35.0576
 30
0.0
 40
0
 41
0
  0
VERTEX
  8
0
 10
14.94
 20
35.3283
 30
0.0
 40
0
 41
0
  0
VERTEX
  8
0
 10
14.9167
 20
35.331
 30
0.0
 40
0
 41
0
  0
VERTEX
  8
0
 10
14.8489
 20
35.3551
 30
0.0
 40
0
 41
0
  0
VERTEX
  8
0
 10
14.7742
 20
35.4096
 30
0.0
 40
0
 41
0
  0
VERTEX
  8
0
 10
14.7215
 20
35.4856
 30
0.0
 40
0
 41
0
  0
VERTEX
  8
0
 10
14.699
 20
35.554
 30
0.0
 40
0
 41
0
  0
VERTEX
  8
0
 10
14.6969
 20
35.5774
 30
0.0
 40
0
 41
0
  0
VERTEX
  8
0
 10
14.6949
 20
35.6007
 30
0.0
 40
0
 41
0
  0
VERTEX
  8
0
 10
14.7049
 20
35.6719
 30
0.0
 40
0
 41
0
  0
VERTEX
  8
0
 10
14.7429
 20
35.7562
 30
0.0
 40
0
 41
0
  0
VERTEX
  8
0
 10
14.8067
 20
35.8231
 30
0.0
 40
0
 41
0
  0
VERTEX
  8
0
 10
14.869
 20
35.859
 30
0.0
 40
0
 41
0
  0
VERTEX
  8
0
 10
14.8914
 20
35.8658
 30
0.0
 40
0
 41
0
  0
VERTEX
  8
0
 10
16.9714
 20
36.4965
 30
0.0
 40
0
 41
0
  0
SEQEND
 8
0
  0
POLYLINE
  8
0
 62
     0
 66
     1
 10
0
 20
0
 30
0.0
 70
     1
 40
0
 41
0
  0
VERTEX
  8
0
 10
11.7371
 20
34.6283
 30
0.0
 40
0
 41
0
  0
VERTEX
  8
0
 10
9.33746
 20
30.2161
 30
0.0
 40
0
 41
0
  0
VERTEX
  8
0
 10
9.32667
 20
30.1962
 30
0.0
 40
0
 41
0
  0
VERTEX
  8
0
 10
9.30761
 20
30.1293
 30
0.0
 40
0
 41
0
  0
VERTEX
  8
0
 10
9.30761
 20
30.0399
 30
0.0
 40
0
 41
0
  0
VERTEX
  8
0
 10
9.33615
 20
29.9551
 30
0.0
 40
0
 41
0
  0
VERTEX
  8
0
 10
9.3756
 20
29.8978
 30
0.0
 40
0
 41
0
  0
VERTEX
  8
0
 10
9.39219
 20
29.8824
 30
0.0
 40
0
 41
0
  0
VERTEX
  8
0
 10
9.40875
 20
29.8669
 30
0.0
 40
0
 41
0
  0
VERTEX
  8
0
 10
9.46892
 20
29.8319
 30
0.0
 40
0
 41
0
  0
VERTEX
  8
0
 10
9.55561
 20
29.8099
 30
0.0
 40
0
 41
0
  0
VERTEX
  8
0
 10
9.64481
 20
29.8167
 30
0.0
 40
0
 41
0
  0
VERTEX
  8
0
 10
9.71013
 20
29.8407
 30
0.0
 40
0
 41
0
  0
VERTEX
  8
0
 10
9.72917
 20
29.8529
 30
0.0
 40
0
 41
0
  0
VERTEX
  8
0
 10
16.8032
 20
34.4242
 30
0.0
 40
0
 41
0
  0
VERTEX
  8
0
 10
16.8208
 20
34.4356
 30
0.0
 40
0
 41
0
  0
VERTEX
  8
0
 10
16.8667
 20
34.4808
 30
0.0
 40
0
 41
0
  0
VERTEX
  8
0
 10
16.9092
 20
34.5525
 30
0.0
 40
0
 41
0
  0
VERTEX
  8
0
 10
16.9283
 20
34.6335
 30
0.0
 40
0
 41
0
  0
VERTEX
  8
0
 10
16.9268
 20
34.6979
 30
0.0
 40
0
 41
0
  0
VERTEX
  8
0
 10
16.9221
 20
34.7183
 30
0.0
 40
0
 41
0
  0
VERTEX
  8
0
 10
16.9172
 20
34.7389
 30
0.0
 40
0
 41
0
  0
VERTEX
  8
0
 10
16.8901
 20
34.7972
 30
0.0
 40
0
 41
0
  0
VERTEX
  8
0
 10
16.8369
 20
34.8614
 30
0.0
 40
0
 41
0
  0
VERTEX
  8
0
 10
16.7672
 20
34.9068
 30
0.0
 40
0
 41
0
  0
VERTEX
  8
0
 10
16.706
 20
34.9271
 30
0.0
 40
0
 41
0
  0
VERTEX
  8
0
 10
16.6851
 20
34.9294
 30
0.0
 40
0
 41
0
  0
VERTEX
  8
0
 10
13.6893
 20
35.274
 30
0.0
 40
0
 41
0
  0
VERTEX
  8
0
 10
13.6808
 20
35.275
 30
0.0
 40
0
 41
0
  0
VERTEX
  8
0
 10
13.5963
 20
35.2674
 30
0.0
 40
0
 41
0
  0
VERTEX
  8
0
 10
13.5882
 20
35.2649
 30
0.0
 40
0
 41
0
  0
VERTEX
  8
0
 10
11.8842
 20
34.7482
 30
0.0
 40
0
 41
0
  0
VERTEX
  8
0
 10
11.8725
 20
34.7446
 30
0.0
 40
0
 41
0
  0
VERTEX
  8
0
 10
11.839
 20
34.7294
 30
0.0
 40
0
 41
0
  0
VERTEX
  8
0
 10
11.7988
 20
34.7028
 30
0.0
 40
0
 41
0
  0
VERTEX
  8
0
 10
11.7644
 20
34.6687
 30
0.0
 40
0
 41
0
  0
VERTEX
  8
0
 10
11.7428
 20
34.639
 30
0.0
 40
0
 41
0
  0
VERTEX
  8
0
 10
11.7371
 20
34.6283
 30
0.0
 40
0
 41
0
  0
SEQEND
 8
0
  0
POLYLINE
  8
0
 62
     0
 66
     1
 10
0
 20
0
 30
0.0
 70
     1
 40
0
 41
0
  0
VERTEX
  8
0
 10
2.95925
 20
21.2289
 30
0.0
 40
0
 41
0
  0
VERTEX
  8
0
 10
2.94835
 20
21.2439
 30
0.0
 40
0
 41
0
  0
VERTEX
  8
0
 10
2.92475
 20
21.2957
 30
0.0
 40
0
 41
0
  0
VERTEX
  8
0
 10
2.91168
 20
21.3681
 30
0.0
 40
0
 41
0
  0
VERTEX
  8
0
 10
2.92019
 20
21.441
 30
0.0
 40
0
 41
0
  0
VERTEX
  8
0
 10
2.94054
 20
21.494
 30
0.0
 40
0
 41
0
  0
VERTEX
  8
0
 10
2.95053
 20
21.5097
 30
0.0
 40
0
 41
0
  0
VERTEX
  8
0
 10
2.96044
 20
21.5254
 30
0.0
 40
0
 41
0
  0
VERTEX
  8
0
 10
2.99983
 20
21.5665
 30
0.0
 40
0
 41
0
  0
VERTEX
  8
0
 10
3.06228
 20
21.6053
 30
0.0
 40
0
 41
0
  0
VERTEX
  8
0
 10
3.13336
 20
21.6243
 30
0.0
 40
0
 41
0
  0
VERTEX
  8
0
 10
3.19015
 20
21.6249
 30
0.0
 40
0
 41
0
  0
VERTEX
  8
0
 10
3.20844
 20
21.6214
 30
0.0
 40
0
 41
0
  0
VERTEX
  8
0
 10
3.22661
 20
21.6179
 30
0.0
 40
0
 41
0
  0
VERTEX
  8
0
 10
3.28347
 20
21.6186
 30
0.0
 40
0
 41
0
  0
VERTEX
  8
0
 10
3.35454
 20
21.6375
 30
0.0
 40
0
 41
0
  0
VERTEX
  8
0
 10
3.41699
 20
21.6762
 30
0.0
 40
0
 41
0
  0
VERTEX
  8
0
 10
3.45637
 20
21.7172
 30
0.0
 40
0
 41
0
  0
VERTEX
  8
0
 10
3.46636
 20
21.7329
 30
0.0
 40
0
 41
0
  0
VERTEX
  8
0
 10
6.71962
 20
26.8572
 30
0.0
 40
0
 41
0
  0
VERTEX
  8
0
 10
6.73167
 20
26.8762
 30
0.0
 40
0
 41
0
  0
VERTEX
  8
0
 10
6.7551
 20
26.9414
 30
0.0
 40
0
 41
0
  0
VERTEX
  8
0
 10
6.76133
 20
27.0301
 30
0.0
 40
0
 41
0
  0
VERTEX
  8
0
 10
6.73904
 20
27.1163
 30
0.0
 40
0
 41
0
  0
VERTEX
  8
0
 10
6.70421
 20
27.1761
 30
0.0
 40
0
 41
0
  0
VERTEX
  8
0
 10
6.68892
 20
27.1925
 30
0.0
 40
0
 41
0
  0
VERTEX
  8
0
 10
6.67356
 20
27.209
 30
0.0
 40
0
 41
0
  0
VERTEX
  8
0
 10
6.6166
 20
27.2482
 30
0.0
 40
0
 41
0
  0
VERTEX
  8
0
 10
6.53228
 20
27.2768
 30
0.0
 40
0
 41
0
  0
VERTEX
  8
0
 10
6.44331
 20
27.2771
 30
0.0
 40
0
 41
0
  0
VERTEX
  8
0
 10
6.37663
 20
27.2586
 30
0.0
 40
0
 41
0
  0
VERTEX
  8
0
 10
6.35682
 20
27.2479
 30
0.0
 40
0
 41
0
  0
VERTEX
  8
0
 10
0.917535
 20
24.3356
 30
0.0
 40
0
 41
0
  0
VERTEX
  8
0
 10
0.902724
 20
24.3276
 30
0.0
 40
0
 41
0
  0
VERTEX
  8
0
 10
0.862576
 20
24.2957
 30
0.0
 40
0
 41
0
  0
VERTEX
  8
0
 10
0.821018
 20
24.2436
 30
0.0
 40
0
 41
0
  0
VERTEX
  8
0
 10
0.794706
 20
24.1824
 30
0.0
 40
0
 41
0
  0
VERTEX
  8
0
 10
0.785536
 20
24.1319
 30
0.0
 40
0
 41
0
  0
VERTEX
  8
0
 10
0.785536
 20
24.1151
 30
0.0
 40
0
 41
0
  0
VERTEX
  8
0
 10
0.785536
 20
23.2793
 30
0.0
 40
0
 41
0
  0
VERTEX
  8
0
 10
0.785536
 20
23.2625
 30
0.0
 40
0
 41
0
  0
VERTEX
  8
0
 10
0.79465
 20
23.2124
 30
0.0
 40
0
 41
0
  0
VERTEX
  8
0
 10
0.815483
 20
23.1601
 30
0.0
 40
0
 41
0
  0
VERTEX
  8
0
 10
0.821343
 20
23.1503
 30
0.0
 40
0
 41
0
  0
VERTEX
  8
0
 10
2.31674
 20
20.6661
 30
0.0
 40
0
 41
0
  0
VERTEX
  8
0
 10
2.32568
 20
20.6511
 30
0.0
 40
0
 41
0
  0
VERTEX
  8
0
 10
2.36046
 20
20.6108
 30
0.0
 40
0
 41
0
  0
VERTEX
  8
0
 10
2.41581
 20
20.5692
 30
0.0
 40
0
 41
0
  0
VERTEX
  8
0
 10
2.47982
 20
20.5425
 30
0.0
 40
0
 41
0
  0
VERTEX
  8
0
 10
2.53213
 20
20.5328
 30
0.0
 40
0
 41
0
  0
VERTEX
  8
0
 10
2.54958
 20
20.5326
 30
0.0
 40
0
 41
0
  0
VERTEX
  8
0
 10
2.567
 20
20.5325
 30
0.0
 40
0
 41
0
  0
VERTEX
  8
0
 10
2.61951
 20
20.5408
 30
0.0
 40
0
 41
0
  0
VERTEX
  8
0
 10
2.68414
 20
20.566
 30
0.0
 40
0
 41
0
  0
VERTEX
  8
0
 10
2.74046
 20
20.6064
 30
0.0
 40
0
 41
0
  0
VERTEX
  8
0
 10
2.77615
 20
20.6458
 30
0.0
 40
0
 41
0
  0
VERTEX
  8
0
 10
2.78554
 20
20.6604
 30
0.0
 40
0
 41
0
  0
VERTEX
  8
0
 10
2.96804
 20
20.9479
 30
0.0
 40
0
 41
0
  0
VERTEX
  8
0
 10
2.97797
 20
20.9636
 30
0.0
 40
0
 41
0
  0
VERTEX
  8
0
 10
2.99832
 20
21.0168
 30
0.0
 40
0
 41
0
  0
VERTEX
  8
0
 10
3.00683
 20
21.0897
 30
0.0
 40
0
 41
0
  0
VERTEX
  8
0
 10
2.99376
 20
21.1622
 30
0.0
 40
0
 41
0
  0
VERTEX
  8
0
 10
2.97017
 20
21.2139
 30
0.0
 40
0
 41
0
  0
VERTEX
  8
0
 10
2.95925
 20
21.2289
 30
0.0
 40
0
 41
0
  0
SEQEND
 8
0
  0
POLYLINE
  8
0
 62
     0
 66
     1
 10
0
 20
0
 30
0.0
 70
     1
 40
0
 41
0
  0
VERTEX
  8
0
 10
7.38813
 20
33.0967
 30
0.0
 40
0
 41
0
  0
VERTEX
  8
0
 10
7.38032
 20
33.1225
 30
0.0
 40
0
 41
0
  0
VERTEX
  8
0
 10
7.37771
 20
33.2057
 30
0.0
 40
0
 41
0
  0
VERTEX
  8
0
 10
7.40881
 20
33.3067
 30
0.0
 40
0
 41
0
  0
VERTEX
  8
0
 10
7.47553
 20
33.3886
 30
0.0
 40
0
 41
0
  0
VERTEX
  8
0
 10
7.54622
 20
33.4326
 30
0.0
 40
0
 41
0
  0
VERTEX
  8
0
 10
7.57189
 20
33.4404
 30
0.0
 40
0
 41
0
  0
VERTEX
  8
0
 10
10.8745
 20
34.4419
 30
0.0
 40
0
 41
0
  0
VERTEX
  8
0
 10
10.8939
 20
34.4479
 30
0.0
 40
0
 41
0
  0
VERTEX
  8
0
 10
10.9556
 20
34.4539
 30
0.0
 40
0
 41
0
  0
VERTEX
  8
0
 10
11.035
 20
34.4418
 30
0.0
 40
0
 41
0
  0
VERTEX
  8
0
 10
11.1075
 20
34.4075
 30
0.0
 40
0
 41
0
  0
VERTEX
  8
0
 10
11.1554
 20
34.3681
 30
0.0
 40
0
 41
0
  0
VERTEX
  8
0
 10
11.1682
 20
34.3522
 30
0.0
 40
0
 41
0
  0
VERTEX
  8
0
 10
11.1809
 20
34.3365
 30
0.0
 40
0
 41
0
  0
VERTEX
  8
0
 10
11.2099
 20
34.2818
 30
0.0
 40
0
 41
0
  0
VERTEX
  8
0
 10
11.2289
 20
34.2037
 30
0.0
 40
0
 41
0
  0
VERTEX
  8
0
 10
11.2246
 20
34.1236
 30
0.0
 40
0
 41
0
  0
VERTEX
  8
0
 10
11.2063
 20
34.0643
 30
0.0
 40
0
 41
0
  0
VERTEX
  8
0
 10
11.1966
 20
34.0465
 30
0.0
 40
0
 41
0
  0
VERTEX
  8
0
 10
8.88129
 20
29.7893
 30
0.0
 40
0
 41
0
  0
VERTEX
  8
0
 10
8.87164
 20
29.7717
 30
0.0
 40
0
 41
0
  0
VERTEX
  8
0
 10
8.83219
 20
29.7243
 30
0.0
 40
0
 41
0
  0
VERTEX
  8
0
 10
8.76774
 20
29.6772
 30
0.0
 40
0
 41
0
  0
VERTEX
  8
0
 10
8.69249
 20
29.6506
 30
0.0
 40
0
 41
0
  0
VERTEX
  8
0
 10
8.63118
 20
29.6449
 30
0.0
 40
0
 41
0
  0
VERTEX
  8
0
 10
8.61117
 20
29.6468
 30
0.0
 40
0
 41
0
  0
VERTEX
  8
0
 10
8.5911
 20
29.6489
 30
0.0
 40
0
 41
0
  0
VERTEX
  8
0
 10
8.53222
 20
29.6669
 30
0.0
 40
0
 41
0
  0
VERTEX
  8
0
 10
8.46392
 20
29.7083
 30
0.0
 40
0
 41
0
  0
VERTEX
  8
0
 10
8.41032
 20
29.7675
 30
0.0
 40
0
 41
0
  0
VERTEX
  8
0
 10
8.38124
 20
29.8218
 30
0.0
 40
0
 41
0
  0
VERTEX
  8
0
 10
8.37543
 20
29.841
 30
0.0
 40
0
 41
0
  0
VERTEX
  8
0
 10
7.38813
 20
33.0967
 30
0.0
 40
0
 41
0
  0
SEQEND
 8
0
  0
POLYLINE
  8
0
 62
     0
 66
     1
 10
0
 20
0
 30
0.0
 70
     1
 40
0
 41
0
  0
VERTEX
  8
0
 10
3.71442
 20
30.5067
 30
0.0
 40
0
 41
0
  0
VERTEX
  8
0
 10
1.32699
 20
29.6922
 30
0.0
 40
0
 41
0
  0
VERTEX
  8
0
 10
1.3144
 20
29.6881
 30
0.0
 40
0
 41
0
  0
VERTEX
  8
0
 10
1.27968
 20
29.6664
 30
0.0
 40
0
 41
0
  0
VERTEX
  8
0
 10
1.24468
 20
29.6274
 30
0.0
 40
0
 41
0
  0
VERTEX
  8
0
 10
1.22445
 20
29.5789
 30
0.0
 40
0
 41
0
  0
VERTEX
  8
0
 10
1.21989
 20
29.5383
 30
0.0
 40
0
 41
0
  0
VERTEX
  8
0
 10
1.22141
 20
29.5251
 30
0.0
 40
0
 41
0
  0
VERTEX
  8
0
 10
1.22293
 20
29.5119
 30
0.0
 40
0
 41
0
  0
VERTEX
  8
0
 10
1.23665
 20
29.4735
 30
0.0
 40
0
 41
0
  0
VERTEX
  8
0
 10
1.26742
 20
29.431
 30
0.0
 40
0
 41
0
  0
VERTEX
  8
0
 10
1.31044
 20
29.4008
 30
0.0
 40
0
 41
0
  0
VERTEX
  8
0
 10
1.34918
 20
29.3878
 30
0.0
 40
0
 41
0
  0
VERTEX
  8
0
 10
1.36241
 20
29.3865
 30
0.0
 40
0
 41
0
  0
VERTEX
  8
0
 10
6.98876
 20
28.8321
 30
0.0
 40
0
 41
0
  0
VERTEX
  8
0
 10
7.01085
 20
28.8299
 30
0.0
 40
0
 41
0
  0
VERTEX
  8
0
 10
7.11692
 20
28.85
 30
0.0
 40
0
 41
0
  0
VERTEX
  8
0
 10
7.20811
 20
28.9078
 30
0.0
 40
0
 41
0
  0
VERTEX
  8
0
 10
7.22276
 20
28.9244
 30
0.0
 40
0
 41
0
  0
VERTEX
  8
0
 10
7.23742
 20
28.9411
 30
0.0
 40
0
 41
0
  0
VERTEX
  8
0
 10
7.28299
 20
29.039
 30
0.0
 40
0
 41
0
  0
VERTEX
  8
0
 10
7.28928
 20
29.1468
 30
0.0
 40
0
 41
0
  0
VERTEX
  8
0
 10
7.28429
 20
29.1683
 30
0.0
 40
0
 41
0
  0
VERTEX
  8
0
 10
6.40121
 20
32.9933
 30
0.0
 40
0
 41
0
  0
VERTEX
  8
0
 10
6.39871
 20
33.0042
 30
0.0
 40
0
 41
0
  0
VERTEX
  8
0
 10
6.37381
 20
33.0524
 30
0.0
 40
0
 41
0
  0
VERTEX
  8
0
 10
6.33458
 20
33.0899
 30
0.0
 40
0
 41
0
  0
VERTEX
  8
0
 10
6.32493
 20
33.0953
 30
0.0
 40
0
 41
0
  0
VERTEX
  8
0
 10
6.31526
 20
33.1007
 30
0.0
 40
0
 41
0
  0
VERTEX
  8
0
 10
6.26286
 20
33.1147
 30
0.0
 40
0
 41
0
  0
VERTEX
  8
0
 10
6.20871
 20
33.111
 30
0.0
 40
0
 41
0
  0
VERTEX
  8
0
 10
6.19824
 20
33.1075
 30
0.0
 40
0
 41
0
  0
VERTEX
  8
0
 10
3.68343
 20
32.2742
 30
0.0
 40
0
 41
0
  0
VERTEX
  8
0
 10
3.66971
 20
32.2697
 30
0.0
 40
0
 41
0
  0
VERTEX
  8
0
 10
3.63206
 20
32.2457
 30
0.0
 40
0
 41
0
  0
VERTEX
  8
0
 10
3.59565
 20
32.2019
 30
0.0
 40
0
 41
0
  0
VERTEX
  8
0
 10
3.57721
 20
32.1481
 30
0.0
 40
0
 41
0
  0
VERTEX
  8
0
 10
3.57628
 20
32.1035
 30
0.0
 40
0
 41
0
  0
VERTEX
  8
0
 10
3.57954
 20
32.0893
 30
0.0
 40
0
 41
0
  0
VERTEX
  8
0
 10
3.87728
 20
30.7996
 30
0.0
 40
0
 41
0
  0
VERTEX
  8
0
 10
3.88238
 20
30.7774
 30
0.0
 40
0
 41
0
  0
VERTEX
  8
0
 10
3.88103
 20
30.7069
 30
0.0
 40
0
 41
0
  0
VERTEX
  8
0
 10
3.85215
 20
30.6218
 30
0.0
 40
0
 41
0
  0
VERTEX
  8
0
 10
3.79508
 20
30.5524
 30
0.0
 40
0
 41
0
  0
VERTEX
  8
0
 10
3.73594
 20
30.514
 30
0.0
 40
0
 41
0
  0
VERTEX
  8
0
 10
3.71442
 20
30.5067
 30
0.0
 40
0
 41
0
  0
SEQEND
 8
0
  0
POLYLINE
  8
0
 62
     0
 66
     1
 10
0
 20
0
 30
0.0
 70
     1
 40
0
 41
0
  0
VERTEX
  8
0
 10
3.7794
 20
21.025
 30
0.0
 40
0
 41
0
  0
VERTEX
  8
0
 10
4.60781
 20
20.4992
 30
0.0
 40
0
 41
0
  0
VERTEX
  8
0
 10
4.62831
 20
20.4861
 30
0.0
 40
0
 41
0
  0
VERTEX
  8
0
 10
4.67942
 20
20.4304
 30
0.0
 40
0
 41
0
  0
VERTEX
  8
0
 10
4.71778
 20
20.3426
 30
0.0
 40
0
 41
0
  0
VERTEX
  8
0
 10
4.72043
 20
20.2468
 30
0.0
 40
0
 41
0
  0
VERTEX
  8
0
 10
4.69792
 20
20.1746
 30
0.0
 40
0
 41
0
  0
VERTEX
  8
0
 10
4.6849
 20
20.154
 30
0.0
 40
0
 41
0
  0
VERTEX
  8
0
 10
4.67182
 20
20.1336
 30
0.0
 40
0
 41
0
  0
VERTEX
  8
0
 10
4.6161
 20
20.0825
 30
0.0
 40
0
 41
0
  0
VERTEX
  8
0
 10
4.52832
 20
20.0442
 30
0.0
 40
0
 41
0
  0
VERTEX
  8
0
 10
4.43251
 20
20.0415
 30
0.0
 40
0
 41
0
  0
VERTEX
  8
0
 10
4.36035
 20
20.064
 30
0.0
 40
0
 41
0
  0
VERTEX
  8
0
 10
4.33985
 20
20.0771
 30
0.0
 40
0
 41
0
  0
VERTEX
  8
0
 10
3.51144
 20
20.6029
 30
0.0
 40
0
 41
0
  0
VERTEX
  8
0
 10
3.50108
 20
20.6094
 30
0.0
 40
0
 41
0
  0
VERTEX
  8
0
 10
3.46744
 20
20.6251
 30
0.0
 40
0
 41
0
  0
VERTEX
  8
0
 10
3.42046
 20
20.6382
 30
0.0
 40
0
 41
0
  0
VERTEX
  8
0
 10
3.37181
 20
20.6418
 30
0.0
 40
0
 41
0
  0
VERTEX
  8
0
 10
3.3349
 20
20.6385
 30
0.0
 40
0
 41
0
  0
VERTEX
  8
0
 10
3.32297
 20
20.6358
 30
0.0
 40
0
 41
0
  0
VERTEX
  8
0
 10
3.31099
 20
20.6332
 30
0.0
 40
0
 41
0
  0
VERTEX
  8
0
 10
3.27615
 20
20.6206
 30
0.0
 40
0
 41
0
  0
VERTEX
  8
0
 10
3.23372
 20
20.5965
 30
0.0
 40
0
 41
0
  0
VERTEX
  8
0
 10
3.19672
 20
20.5647
 30
0.0
 40
0
 41
0
  0
VERTEX
  8
0
 10
3.17296
 20
20.5362
 30
0.0
 40
0
 41
0
  0
VERTEX
  8
0
 10
3.16639
 20
20.5258
 30
0.0
 40
0
 41
0
  0
VERTEX
  8
0
 10
2.88439
 20
20.0817
 30
0.0
 40
0
 41
0
  0
VERTEX
  8
0
 10
2.8731
 20
20.064
 30
0.0
 40
0
 41
0
  0
VERTEX
  8
0
 10
2.85042
 20
20.0038
 30
0.0
 40
0
 41
0
  0
VERTEX
  8
0
 10
2.84174
 20
19.921
 30
0.0
 40
0
 41
0
  0
VERTEX
  8
0
 10
2.85813
 20
19.8394
 30
0.0
 40
0
 41
0
  0
VERTEX
  8
0
 10
2.88639
 20
19.7817
 30
0.0
 40
0
 41
0
  0
VERTEX
  8
0
 10
2.89931
 20
19.765
 30
0.0
 40
0
 41
0
  0
VERTEX
  8
0
 10
5.30599
 20
16.6631
 30
0.0
 40
0
 41
0
  0
VERTEX
  8
0
 10
5.31853
 20
16.6469
 30
0.0
 40
0
 41
0
  0
VERTEX
  8
0
 10
5.36615
 20
16.606
 30
0.0
 40
0
 41
0
  0
VERTEX
  8
0
 10
5.43901
 20
16.5699
 30
0.0
 40
0
 41
0
  0
VERTEX
  8
0
 10
5.51921
 20
16.5565
 30
0.0
 40
0
 41
0
  0
VERTEX
  8
0
 10
5.58182
 20
16.5619
 30
0.0
 40
0
 41
0
  0
VERTEX
  8
0
 10
5.60151
 20
16.5676
 30
0.0
 40
0
 41
0
  0
VERTEX
  8
0
 10
5.62115
 20
16.5735
 30
0.0
 40
0
 41
0
  0
VERTEX
  8
0
 10
5.67671
 20
16.6029
 30
0.0
 40
0
 41
0
  0
VERTEX
  8
0
 10
5.73693
 20
16.6575
 30
0.0
 40
0
 41
0
  0
VERTEX
  8
0
 10
5.7786
 20
16.7274
 30
0.0
 40
0
 41
0
  0
VERTEX
  8
0
 10
5.79644
 20
16.7876
 30
0.0
 40
0
 41
0
  0
VERTEX
  8
0
 10
5.79824
 20
16.8081
 30
0.0
 40
0
 41
0
  0
VERTEX
  8
0
 10
6.49767
 20
24.8025
 30
0.0
 40
0
 41
0
  0
VERTEX
  8
0
 10
6.49962
 20
24.8251
 30
0.0
 40
0
 41
0
  0
VERTEX
  8
0
 10
6.49013
 20
24.8947
 30
0.0
 40
0
 41
0
  0
VERTEX
  8
0
 10
6.45383
 20
24.9772
 30
0.0
 40
0
 41
0
  0
VERTEX
  8
0
 10
6.3929
 20
25.0436
 30
0.0
 40
0
 41
0
  0
VERTEX
  8
0
 10
6.33306
 20
25.0803
 30
0.0
 40
0
 41
0
  0
VERTEX
  8
0
 10
6.31153
 20
25.0875
 30
0.0
 40
0
 41
0
  0
VERTEX
  8
0
 10
6.28993
 20
25.0949
 30
0.0
 40
0
 41
0
  0
VERTEX
  8
0
 10
6.22017
 20
25.1022
 30
0.0
 40
0
 41
0
  0
VERTEX
  8
0
 10
6.1314
 20
25.0864
 30
0.0
 40
0
 41
0
  0
VERTEX
  8
0
 10
6.0524
 20
25.0429
 30
0.0
 40
0
 41
0
  0
VERTEX
  8
0
 10
6.00265
 20
24.9935
 30
0.0
 40
0
 41
0
  0
VERTEX
  8
0
 10
5.99046
 20
24.9742
 30
0.0
 40
0
 41
0
  0
VERTEX
  8
0
 10
4.62468
 20
22.8228
 30
0.0
 40
0
 41
0
  0
VERTEX
  8
0
 10
4.6116
 20
22.8024
 30
0.0
 40
0
 41
0
  0
VERTEX
  8
0
 10
4.58903
 20
22.7301
 30
0.0
 40
0
 41
0
  0
VERTEX
  8
0
 10
4.59169
 20
22.6343
 30
0.0
 40
0
 41
0
  0
VERTEX
  8
0
 10
4.63004
 20
22.5465
 30
0.0
 40
0
 41
0
  0
VERTEX
  8
0
 10
4.68115
 20
22.4908
 30
0.0
 40
0
 41
0
  0
VERTEX
  8
0
 10
4.70171
 20
22.4778
 30
0.0
 40
0
 41
0
  0
VERTEX
  8
0
 10
4.77675
 20
22.4301
 30
0.0
 40
0
 41
0
  0
VERTEX
  8
0
 10
4.78706
 20
22.4236
 30
0.0
 40
0
 41
0
  0
VERTEX
  8
0
 10
4.81549
 20
22.3999
 30
0.0
 40
0
 41
0
  0
VERTEX
  8
0
 10
4.84728
 20
22.3628
 30
0.0
 40
0
 41
0
  0
VERTEX
  8
0
 10
4.87131
 20
22.3204
 30
0.0
 40
0
 41
0
  0
VERTEX
  8
0
 10
4.88406
 20
22.2856
 30
0.0
 40
0
 41
0
  0
VERTEX
  8
0
 10
4.88672
 20
22.2736
 30
0.0
 40
0
 41
0
  0
VERTEX
  8
0
 10
4.88938
 20
22.2617
 30
0.0
 40
0
 41
0
  0
VERTEX
  8
0
 10
4.89268
 20
22.2247
 30
0.0
 40
0
 41
0
  0
VERTEX
  8
0
 10
4.889
 20
22.1761
 30
0.0
 40
0
 41
0
  0
VERTEX
  8
0
 10
4.87597
 20
22.129
 30
0.0
 40
0
 41
0
  0
VERTEX
  8
0
 10
4.8604
 20
22.0954
 30
0.0
 40
0
 41
0
  0
VERTEX
  8
0
 10
4.85385
 20
22.0851
 30
0.0
 40
0
 41
0
  0
VERTEX
  8
0
 10
4.84728
 20
22.0747
 30
0.0
 40
0
 41
0
  0
VERTEX
  8
0
 10
4.82346
 20
22.0464
 30
0.0
 40
0
 41
0
  0
VERTEX
  8
0
 10
4.78646
 20
22.0146
 30
0.0
 40
0
 41
0
  0
VERTEX
  8
0
 10
4.74397
 20
21.9906
 30
0.0
 40
0
 41
0
  0
VERTEX
  8
0
 10
4.70921
 20
21.9778
 30
0.0
 40
0
 41
0
  0
VERTEX
  8
0
 10
4.69726
 20
21.9751
 30
0.0
 40
0
 41
0
  0
VERTEX
  8
0
 10
4.68528
 20
21.9725
 30
0.0
 40
0
 41
0
  0
VERTEX
  8
0
 10
4.64833
 20
21.9692
 30
0.0
 40
0
 41
0
  0
VERTEX
  8
0
 10
4.59972
 20
21.9729
 30
0.0
 40
0
 41
0
  0
VERTEX
  8
0
 10
4.55274
 20
21.9858
 30
0.0
 40
0
 41
0
  0
VERTEX
  8
0
 10
4.5191
 20
22.0015
 30
0.0
 40
0
 41
0
  0
VERTEX
  8
0
 10
4.50879
 20
22.0081
 30
0.0
 40
0
 41
0
  0
VERTEX
  8
0
 10
4.43371
 20
22.0557
 30
0.0
 40
0
 41
0
  0
VERTEX
  8
0
 10
4.41314
 20
22.0687
 30
0.0
 40
0
 41
0
  0
VERTEX
  8
0
 10
4.34099
 20
22.0912
 30
0.0
 40
0
 41
0
  0
VERTEX
  8
0
 10
4.24522
 20
22.0886
 30
0.0
 40
0
 41
0
  0
VERTEX
  8
0
 10
4.15739
 20
22.0503
 30
0.0
 40
0
 41
0
  0
VERTEX
  8
0
 10
4.10167
 20
21.9992
 30
0.0
 40
0
 41
0
  0
VERTEX
  8
0
 10
4.08865
 20
21.9786
 30
0.0
 40
0
 41
0
  0
VERTEX
  8
0
 10
3.70236
 20
21.3701
 30
0.0
 40
0
 41
0
  0
VERTEX
  8
0
 10
3.68929
 20
21.3496
 30
0.0
 40
0
 41
0
  0
VERTEX
  8
0
 10
3.66678
 20
21.2775
 30
0.0
 40
0
 41
0
  0
VERTEX
  8
0
 10
3.66943
 20
21.1817
 30
0.0
 40
0
 41
0
  0
VERTEX
  8
0
 10
3.70779
 20
21.0938
 30
0.0
 40
0
 41
0
  0
VERTEX
  8
0
 10
3.75885
 20
21.0382
 30
0.0
 40
0
 41
0
  0
VERTEX
  8
0
 10
3.7794
 20
21.025
 30
0.0
 40
0
 41
0
  0
SEQEND
 8
0
  0
POLYLINE
  8
0
 62
     0
 66
     1
 10
0
 20
0
 30
0.0
 70
     1
 40
0
 41
0
  0
VERTEX
  8
0
 10
0.785536
 20
13.2993
 30
0.0
 40
0
 41
0
  0
VERTEX
  8
0
 10
0.785536
 20
13.3128
 30
0.0
 40
0
 41
0
  0
VERTEX
  8
0
 10
0.790853
 20
13.3533
 30
0.0
 40
0
 41
0
  0
VERTEX
  8
0
 10
0.806478
 20
13.4048
 30
0.0
 40
0
 41
0
  0
VERTEX
  8
0
 10
0.831814
 20
13.4523
 30
0.0
 40
0
 41
0
  0
VERTEX
  8
0
 10
0.856717
 20
13.4847
 30
0.0
 40
0
 41
0
  0
VERTEX
  8
0
 10
0.866265
 20
13.4942
 30
0.0
 40
0
 41
0
  0
VERTEX
  8
0
 10
0.875814
 20
13.5038
 30
0.0
 40
0
 41
0
  0
VERTEX
  8
0
 10
0.908203
 20
13.5287
 30
0.0
 40
0
 41
0
  0
VERTEX
  8
0
 10
0.955621
 20
13.5539
 30
0.0
 40
0
 41
0
  0
VERTEX
  8
0
 10
1.00705
 20
13.5696
 30
0.0
 40
0
 41
0
  0
VERTEX
  8
0
 10
1.04758
 20
13.5749
 30
0.0
 40
0
 41
0
  0
VERTEX
  8
0
 10
1.06109
 20
13.5749
 30
0.0
 40
0
 41
0
  0
VERTEX
  8
0
 10
1.69103
 20
13.5749
 30
0.0
 40
0
 41
0
  0
VERTEX
  8
0
 10
1.71783
 20
13.5749
 30
0.0
 40
0
 41
0
  0
VERTEX
  8
0
 10
1.79829
 20
13.5533
 30
0.0
 40
0
 41
0
  0
VERTEX
  8
0
 10
1.8859
 20
13.4942
 30
0.0
 40
0
 41
0
  0
VERTEX
  8
0
 10
1.94493
 20
13.4066
 30
0.0
 40
0
 41
0
  0
VERTEX
  8
0
 10
1.96664
 20
13.3262
 30
0.0
 40
0
 41
0
  0
VERTEX
  8
0
 10
1.96664
 20
13.2993
 30
0.0
 40
0
 41
0
  0
VERTEX
  8
0
 10
1.96664
 20
9.79449
 30
0.0
 40
0
 41
0
  0
VERTEX
  8
0
 10
1.96664
 20
9.77729
 30
0.0
 40
0
 41
0
  0
VERTEX
  8
0
 10
1.95785
 20
9.72558
 30
0.0
 40
0
 41
0
  0
VERTEX
  8
0
 10
1.93261
 20
9.66194
 30
0.0
 40
0
 41
0
  0
VERTEX
  8
0
 10
1.89247
 20
9.6065
 30
0.0
 40
0
 41
0
  0
VERTEX
  8
0
 10
1.85357
 20
9.57129
 30
0.0
 40
0
 41
0
  0
VERTEX
  8
0
 10
1.83908
 20
9.56201
 30
0.0
 40
0
 41
0
  0
VERTEX
  8
0
 10
1.81922
 20
9.54937
 30
0.0
 40
0
 41
0
  0
VERTEX
  8
0
 10
1.70904
 20
9.51947
 30
0.0
 40
0
 41
0
  0
VERTEX
  8
0
 10
1.59586
 20
9.53478
 30
0.0
 40
0
 41
0
  0
VERTEX
  8
0
 10
1.57454
 20
9.54471
 30
0.0
 40
0
 41
0
  0
VERTEX
  8
0
 10
1.24018
 20
9.70063
 30
0.0
 40
0
 41
0
  0
VERTEX
  8
0
 10
1.21452
 20
9.71263
 30
0.0
 40
0
 41
0
  0
VERTEX
  8
0
 10
1.141
 20
9.75592
 30
0.0
 40
0
 41
0
  0
VERTEX
  8
0
 10
1.05214
 20
9.82368
 30
0.0
 40
0
 41
0
  0
VERTEX
  8
0
 10
0.974447
 20
9.90261
 30
0.0
 40
0
 41
0
  0
VERTEX
  8
0
 10
0.908854
 20
9.99121
 30
0.0
 40
0
 41
0
  0
VERTEX
  8
0
 10
0.856228
 20
10.0881
 30
0.0
 40
0
 41
0
  0
VERTEX
  8
0
 10
0.817546
 20
10.1919
 30
0.0
 40
0
 41
0
  0
VERTEX
  8
0
 10
0.793674
 20
10.3011
 30
0.0
 40
0
 41
0
  0
VERTEX
  8
0
 10
0.785536
 20
10.386
 30
0.0
 40
0
 41
0
  0
VERTEX
  8
0
 10
0.785536
 20
10.4143
 30
0.0
 40
0
 41
0
  0
VERTEX
  8
0
 10
0.785536
 20
13.2993
 30
0.0
 40
0
 41
0
  0
SEQEND
 8
0
  0
POLYLINE
  8
0
 62
     0
 66
     1
 10
0
 20
0
 30
0.0
 70
     1
 40
0
 41
0
  0
VERTEX
  8
0
 10
4.7385
 20
9.49935
 30
0.0
 40
0
 41
0
  0
VERTEX
  8
0
 10
3.7966
 20
9.02121
 30
0.0
 40
0
 41
0
  0
VERTEX
  8
0
 10
3.7844
 20
9.01503
 30
0.0
 40
0
 41
0
  0
VERTEX
  8
0
 10
3.75049
 20
8.99104
 30
0.0
 40
0
 41
0
  0
VERTEX
  8
0
 10
3.71251
 20
8.95199
 30
0.0
 40
0
 41
0
  0
VERTEX
  8
0
 10
3.68392
 20
8.90565
 30
0.0
 40
0
 41
0
  0
VERTEX
  8
0
 10
3.66889
 20
8.86692
 30
0.0
 40
0
 41
0
  0
VERTEX
  8
0
 10
3.6659
 20
8.85351
 30
0.0
 40
0
 41
0
  0
VERTEX
  8
0
 10
3.66287
 20
8.84017
 30
0.0
 40
0
 41
0
  0
VERTEX
  8
0
 10
3.65972
 20
8.79878
 30
0.0
 40
0
 41
0
  0
VERTEX
  8
0
 10
3.66558
 20
8.74462
 30
0.0
 40
0
 41
0
  0
VERTEX
  8
0
 10
3.683
 20
8.69303
 30
0.0
 40
0
 41
0
  0
VERTEX
  8
0
 10
3.70324
 20
8.65674
 30
0.0
 40
0
 41
0
  0
VERTEX
  8
0
 10
3.71158
 20
8.64589
 30
0.0
 40
0
 41
0
  0
VERTEX
  8
0
 10
3.73275
 20
8.61833
 30
0.0
 40
0
 41
0
  0
VERTEX
  8
0
 10
3.80615
 20
8.54312
 30
0.0
 40
0
 41
0
  0
VERTEX
  8
0
 10
3.91471
 20
8.46044
 30
0.0
 40
0
 41
0
  0
VERTEX
  8
0
 10
4.03424
 20
8.39849
 30
0.0
 40
0
 41
0
  0
VERTEX
  8
0
 10
4.16178
 20
8.35801
 30
0.0
 40
0
 41
0
  0
VERTEX
  8
0
 10
4.29432
 20
8.33963
 30
0.0
 40
0
 41
0
  0
VERTEX
  8
0
 10
4.42893
 20
8.34403
 30
0.0
 40
0
 41
0
  0
VERTEX
  8
0
 10
4.5625
 20
8.37185
 30
0.0
 40
0
 41
0
  0
VERTEX
  8
0
 10
4.66114
 20
8.4081
 30
0.0
 40
0
 41
0
  0
VERTEX
  8
0
 10
4.69217
 20
8.42383
 30
0.0
 40
0
 41
0
  0
VERTEX
  8
0
 10
4.72314
 20
8.43956
 30
0.0
 40
0
 41
0
  0
VERTEX
  8
0
 10
4.8106
 20
8.49783
 30
0.0
 40
0
 41
0
  0
VERTEX
  8
0
 10
4.91194
 20
8.58919
 30
0.0
 40
0
 41
0
  0
VERTEX
  8
0
 10
4.9949
 20
8.69526
 30
0.0
 40
0
 41
0
  0
VERTEX
  8
0
 10
5.05832
 20
8.8131
 30
0.0
 40
0
 41
0
  0
VERTEX
  8
0
 10
5.10086
 20
8.94
 30
0.0
 40
0
 41
0
  0
VERTEX
  8
0
 10
5.12142
 20
9.07303
 30
0.0
 40
0
 41
0
  0
VERTEX
  8
0
 10
5.11876
 20
9.20947
 30
0.0
 40
0
 41
0
  0
VERTEX
  8
0
 10
5.10135
 20
9.3131
 30
0.0
 40
0
 41
0
  0
VERTEX
  8
0
 10
5.09164
 20
9.34646
 30
0.0
 40
0
 41
0
  0
VERTEX
  8
0
 10
5.08778
 20
9.35965
 30
0.0
 40
0
 41
0
  0
VERTEX
  8
0
 10
5.07042
 20
9.3974
 30
0.0
 40
0
 41
0
  0
VERTEX
  8
0
 10
5.03907
 20
9.44189
 30
0.0
 40
0
 41
0
  0
VERTEX
  8
0
 10
4.99881
 20
9.47857
 30
0.0
 40
0
 41
0
  0
VERTEX
  8
0
 10
4.96349
 20
9.50043
 30
0.0
 40
0
 41
0
  0
VERTEX
  8
0
 10
4.95096
 20
9.50586
 30
0.0
 40
0
 41
0
  0
VERTEX
  8
0
 10
4.93837
 20
9.51133
 30
0.0
 40
0
 41
0
  0
VERTEX
  8
0
 10
4.89828
 20
9.52208
 30
0.0
 40
0
 41
0
  0
VERTEX
  8
0
 10
4.84397
 20
9.52636
 30
0.0
 40
0
 41
0
  0
VERTEX
  8
0
 10
4.79004
 20
9.51878
 30
0.0
 40
0
 41
0
  0
VERTEX
  8
0
 10
4.75065
 20
9.50558
 30
0.0
 40
0
 41
0
  0
VERTEX
  8
0
 10
4.7385
 20
9.49935
 30
0.0
 40
0
 41
0
  0
SEQEND
 8
0
  0
POLYLINE
  8
0
 62
     0
 66
     1
 10
0
 20
0
 30
0.0
 70
     1
 40
0
 41
0
  0
VERTEX
  8
0
 10
0.785536
 20
16.7029
 30
0.0
 40
0
 41
0
  0
VERTEX
  8
0
 10
0.785536
 20
16.0946
 30
0.0
 40
0
 41
0
  0
VERTEX
  8
0
 10
0.785536
 20
16.0678
 30
0.0
 40
0
 41
0
  0
VERTEX
  8
0
 10
0.807183
 20
15.9874
 30
0.0
 40
0
 41
0
  0
VERTEX
  8
0
 10
0.866211
 20
15.8997
 30
0.0
 40
0
 41
0
  0
VERTEX
  8
0
 10
0.953831
 20
15.8407
 30
0.0
 40
0
 41
0
  0
VERTEX
  8
0
 10
1.03423
 20
15.819
 30
0.0
 40
0
 41
0
  0
VERTEX
  8
0
 10
1.06109
 20
15.819
 30
0.0
 40
0
 41
0
  0
VERTEX
  8
0
 10
4.89996
 20
15.819
 30
0.0
 40
0
 41
0
  0
VERTEX
  8
0
 10
4.91906
 20
15.819
 30
0.0
 40
0
 41
0
  0
VERTEX
  8
0
 10
4.97646
 20
15.8299
 30
0.0
 40
0
 41
0
  0
VERTEX
  8
0
 10
5.04579
 20
15.8608
 30
0.0
 40
0
 41
0
  0
VERTEX
  8
0
 10
5.10406
 20
15.9094
 30
0.0
 40
0
 41
0
  0
VERTEX
  8
0
 10
5.13906
 20
15.9562
 30
0.0
 40
0
 41
0
  0
VERTEX
  8
0
 10
5.14746
 20
15.9733
 30
0.0
 40
0
 41
0
  0
VERTEX
  8
0
 10
5.15587
 20
15.9906
 30
0.0
 40
0
 41
0
  0
VERTEX
  8
0
 10
5.17139
 20
16.0469
 30
0.0
 40
0
 41
0
  0
VERTEX
  8
0
 10
5.1741
 20
16.1228
 30
0.0
 40
0
 41
0
  0
VERTEX
  8
0
 10
5.15603
 20
16.1964
 30
0.0
 40
0
 41
0
  0
VERTEX
  8
0
 10
5.12939
 20
16.2485
 30
0.0
 40
0
 41
0
  0
VERTEX
  8
0
 10
5.11768
 20
16.2635
 30
0.0
 40
0
 41
0
  0
VERTEX
  8
0
 10
2.7966
 20
19.2551
 30
0.0
 40
0
 41
0
  0
VERTEX
  8
0
 10
2.78651
 20
19.2682
 30
0.0
 40
0
 41
0
  0
VERTEX
  8
0
 10
2.74994
 20
19.3024
 30
0.0
 40
0
 41
0
  0
VERTEX
  8
0
 10
2.69422
 20
19.3365
 30
0.0
 40
0
 41
0
  0
VERTEX
  8
0
 10
2.632
 20
19.3567
 30
0.0
 40
0
 41
0
  0
VERTEX
  8
0
 10
2.58231
 20
19.3624
 30
0.0
 40
0
 41
0
  0
VERTEX
  8
0
 10
2.56592
 20
19.3615
 30
0.0
 40
0
 41
0
  0
VERTEX
  8
0
 10
2.54949
 20
19.3608
 30
0.0
 40
0
 41
0
  0
VERTEX
  8
0
 10
2.50049
 20
19.3506
 30
0.0
 40
0
 41
0
  0
VERTEX
  8
0
 10
2.44049
 20
19.3246
 30
0.0
 40
0
 41
0
  0
VERTEX
  8
0
 10
2.38818
 20
19.2853
 30
0.0
 40
0
 41
0
  0
VERTEX
  8
0
 10
2.35499
 20
19.2478
 30
0.0
 40
0
 41
0
  0
VERTEX
  8
0
 10
2.34619
 20
19.2339
 30
0.0
 40
0
 41
0
  0
VERTEX
  8
0
 10
0.82449
 20
16.8369
 30
0.0
 40
0
 41
0
  0
VERTEX
  8
0
 10
0.818088
 20
16.8269
 30
0.0
 40
0
 41
0
  0
VERTEX
  8
0
 10
0.795464
 20
16.7728
 30
0.0
 40
0
 41
0
  0
VERTEX
  8
0
 10
0.785536
 20
16.7204
 30
0.0
 40
0
 41
0
  0
VERTEX
  8
0
 10
0.785536
 20
16.7029
 30
0.0
 40
0
 41
0
  0
SEQEND
 8
0
  0
POLYLINE
  8
0
 62
     0
 66
     1
 10
0
 20
0
 30
0.0
 70
     1
 40
0
 41
0
  0
VERTEX
  8
0
 10
3.25831
 20
21.3757
 30
0.0
 40
0
 41
0
  0
VERTEX
  8
0
 10
3.25831
 20
21.3664
 30
0.0
 40
0
 41
0
  0
VERTEX
  8
0
 10
3.25065
 20
21.3381
 30
0.0
 40
0
 41
0
  0
VERTEX
  8
0
 10
3.22993
 20
21.3074
 30
0.0
 40
0
 41
0
  0
VERTEX
  8
0
 10
3.19922
 20
21.2867
 30
0.0
 40
0
 41
0
  0
VERTEX
  8
0
 10
3.17096
 20
21.279
 30
0.0
 40
0
 41
0
  0
VERTEX
  8
0
 10
3.16157
 20
21.279
 30
0.0
 40
0
 41
0
  0
VERTEX
  8
0
 10
3.15213
 20
21.279
 30
0.0
 40
0
 41
0
  0
VERTEX
  8
0
 10
3.12386
 20
21.2867
 30
0.0
 40
0
 41
0
  0
VERTEX
  8
0
 10
3.0931
 20
21.3074
 30
0.0
 40
0
 41
0
  0
VERTEX
  8
0
 10
3.07238
 20
21.3381
 30
0.0
 40
0
 41
0
  0
VERTEX
  8
0
 10
3.06478
 20
21.3664
 30
0.0
 40
0
 41
0
  0
VERTEX
  8
0
 10
3.06478
 20
21.3757
 30
0.0
 40
0
 41
0
  0
VERTEX
  8
0
 10
3.06478
 20
21.3851
 30
0.0
 40
0
 41
0
  0
VERTEX
  8
0
 10
3.07238
 20
21.4135
 30
0.0
 40
0
 41
0
  0
VERTEX
  8
0
 10
3.0931
 20
21.4442
 30
0.0
 40
0
 41
0
  0
VERTEX
  8
0
 10
3.12386
 20
21.465
 30
0.0
 40
0
 41
0
  0
VERTEX
  8
0
 10
3.15213
 20
21.4725
 30
0.0
 40
0
 41
0
  0
VERTEX
  8
0
 10
3.16157
 20
21.4725
 30
0.0
 40
0
 41
0
  0
VERTEX
  8
0
 10
3.17096
 20
21.4725
 30
0.0
 40
0
 41
0
  0
VERTEX
  8
0
 10
3.19922
 20
21.465
 30
0.0
 40
0
 41
0
  0
VERTEX
  8
0
 10
3.22993
 20
21.4442
 30
0.0
 40
0
 41
0
  0
VERTEX
  8
0
 10
3.25065
 20
21.4135
 30
0.0
 40
0
 41
0
  0
VERTEX
  8
0
 10
3.25831
 20
21.3851
 30
0.0
 40
0
 41
0
  0
VERTEX
  8
0
 10
3.25831
 20
21.3757
 30
0.0
 40
0
 41
0
  0
SEQEND
 8
0
  0
POLYLINE
  8
0
 62
     0
 66
     1
 10
0
 20
0
 30
0.0
 70
     1
 40
0
 41
0
  0
VERTEX
  8
0
 10
4.57058
 20
20.2881
 30
0.0
 40
0
 41
0
  0
VERTEX
  8
0
 10
4.57058
 20
20.2787
 30
0.0
 40
0
 41
0
  0
VERTEX
  8
0
 10
4.56293
 20
20.2504
 30
0.0
 40
0
 41
0
  0
VERTEX
  8
0
 10
4.54221
 20
20.2197
 30
0.0
 40
0
 41
0
  0
VERTEX
  8
0
 10
4.51144
 20
20.199
 30
0.0
 40
0
 41
0
  0
VERTEX
  8
0
 10
4.48318
 20
20.1914
 30
0.0
 40
0
 41
0
  0
VERTEX
  8
0
 10
4.47379
 20
20.1914
 30
0.0
 40
0
 41
0
  0
VERTEX
  8
0
 10
4.46436
 20
20.1914
 30
0.0
 40
0
 41
0
  0
VERTEX
  8
0
 10
4.43608
 20
20.199
 30
0.0
 40
0
 41
0
  0
VERTEX
  8
0
 10
4.40539
 20
20.2197
 30
0.0
 40
0
 41
0
  0
VERTEX
  8
0
 10
4.38465
 20
20.2504
 30
0.0
 40
0
 41
0
  0
VERTEX
  8
0
 10
4.37706
 20
20.2787
 30
0.0
 40
0
 41
0
  0
VERTEX
  8
0
 10
4.37706
 20
20.2881
 30
0.0
 40
0
 41
0
  0
VERTEX
  8
0
 10
4.37706
 20
20.2975
 30
0.0
 40
0
 41
0
  0
VERTEX
  8
0
 10
4.38465
 20
20.3258
 30
0.0
 40
0
 41
0
  0
VERTEX
  8
0
 10
4.40539
 20
20.3565
 30
0.0
 40
0
 41
0
  0
VERTEX
  8
0
 10
4.43608
 20
20.3772
 30
0.0
 40
0
 41
0
  0
VERTEX
  8
0
 10
4.46436
 20
20.3849
 30
0.0
 40
0
 41
0
  0
VERTEX
  8
0
 10
4.47379
 20
20.3849
 30
0.0
 40
0
 41
0
  0
VERTEX
  8
0
 10
4.48318
 20
20.3849
 30
0.0
 40
0
 41
0
  0
VERTEX
  8
0
 10
4.51144
 20
20.3772
 30
0.0
 40
0
 41
0
  0
VERTEX
  8
0
 10
4.54221
 20
20.3565
 30
0.0
 40
0
 41
0
  0
VERTEX
  8
0
 10
4.56293
 20
20.3258
 30
0.0
 40
0
 41
0
  0
VERTEX
  8
0
 10
4.57058
 20
20.2975
 30
0.0
 40
0
 41
0
  0
VERTEX
  8
0
 10
4.57058
 20
20.2881
 30
0.0
 40
0
 41
0
  0
SEQEND
 8
0
  0
POLYLINE
  8
0
 62
     0
 66
     1
 10
0
 20
0
 30
0.0
 70
     1
 40
0
 41
0
  0
VERTEX
  8
0
 10
4.73953
 20
22.219
 30
0.0
 40
0
 41
0
  0
VERTEX
  8
0
 10
4.73953
 20
22.2097
 30
0.0
 40
0
 41
0
  0
VERTEX
  8
0
 10
4.73188
 20
22.1814
 30
0.0
 40
0
 41
0
  0
VERTEX
  8
0
 10
4.71115
 20
22.1507
 30
0.0
 40
0
 41
0
  0
VERTEX
  8
0
 10
4.68039
 20
22.13
 30
0.0
 40
0
 41
0
  0
VERTEX
  8
0
 10
4.65213
 20
22.1224
 30
0.0
 40
0
 41
0
  0
VERTEX
  8
0
 10
4.64274
 20
22.1224
 30
0.0
 40
0
 41
0
  0
VERTEX
  8
0
 10
4.63331
 20
22.1224
 30
0.0
 40
0
 41
0
  0
VERTEX
  8
0
 10
4.60504
 20
22.13
 30
0.0
 40
0
 41
0
  0
VERTEX
  8
0
 10
4.57433
 20
22.1507
 30
0.0
 40
0
 41
0
  0
VERTEX
  8
0
 10
4.5536
 20
22.1814
 30
0.0
 40
0
 41
0
  0
VERTEX
  8
0
 10
4.54601
 20
22.2097
 30
0.0
 40
0
 41
0
  0
VERTEX
  8
0
 10
4.54601
 20
22.219
 30
0.0
 40
0
 41
0
  0
VERTEX
  8
0
 10
4.54601
 20
22.2285
 30
0.0
 40
0
 41
0
  0
VERTEX
  8
0
 10
4.5536
 20
22.2568
 30
0.0
 40
0
 41
0
  0
VERTEX
  8
0
 10
4.57433
 20
22.2875
 30
0.0
 40
0
 41
0
  0
VERTEX
  8
0
 10
4.60504
 20
22.3082
 30
0.0
 40
0
 41
0
  0
VERTEX
  8
0
 10
4.63331
 20
22.3158
 30
0.0
 40
0
 41
0
  0
VERTEX
  8
0
 10
4.64274
 20
22.3158
 30
0.0
 40
0
 41
0
  0
VERTEX
  8
0
 10
4.65213
 20
22.3158
 30
0.0
 40
0
 41
0
  0
VERTEX
  8
0
 10
4.68039
 20
22.3082
 30
0.0
 40
0
 41
0
  0
VERTEX
  8
0
 10
4.71115
 20
22.2875
 30
0.0
 40
0
 41
0
  0
VERTEX
  8
0
 10
4.73188
 20
22.2568
 30
0.0
 40
0
 41
0
  0
VERTEX
  8
0
 10
4.73953
 20
22.2285
 30
0.0
 40
0
 41
0
  0
VERTEX
  8
0
 10
4.73953
 20
22.219
 30
0.0
 40
0
 41
0
  0
SEQEND
 8
0
  0
POLYLINE
  8
0
 62
     0
 66
     1
 10
0
 20
0
 30
0.0
 70
     1
 40
0
 41
0
  0
VERTEX
  8
0
 10
13.3924
 20
23.2519
 30
0.0
 40
0
 41
0
  0
VERTEX
  8
0
 10
13.3924
 20
24.3826
 30
0.0
 40
0
 41
0
  0
VERTEX
  8
0
 10
13.3924
 20
24.4211
 30
0.0
 40
0
 41
0
  0
VERTEX
  8
0
 10
13.4025
 20
24.5365
 30
0.0
 40
0
 41
0
  0
VERTEX
  8
0
 10
13.4323
 20
24.6872
 30
0.0
 40
0
 41
0
  0
VERTEX
  8
0
 10
13.4815
 20
24.8328
 30
0.0
 40
0
 41
0
  0
VERTEX
  8
0
 10
13.5303
 20
24.9379
 30
0.0
 40
0
 41
0
  0
VERTEX
  8
0
 10
13.5495
 20
24.9713
 30
0.0
 40
0
 41
0
  0
VERTEX
  8
0
 10
16.9147
 20
30.8254
 30
0.0
 40
0
 41
0
  0
VERTEX
  8
0
 10
16.9472
 20
30.8821
 30
0.0
 40
0
 41
0
  0
VERTEX
  8
0
 10
17.0665
 20
31.0396
 30
0.0
 40
0
 41
0
  0
VERTEX
  8
0
 10
17.2508
 20
31.2167
 30
0.0
 40
0
 41
0
  0
VERTEX
  8
0
 10
17.4615
 20
31.3544
 30
0.0
 40
0
 41
0
  0
VERTEX
  8
0
 10
17.6921
 20
31.4511
 30
0.0
 40
0
 41
0
  0
VERTEX
  8
0
 10
17.9363
 20
31.5047
 30
0.0
 40
0
 41
0
  0
VERTEX
  8
0
 10
18.1879
 20
31.5131
 30
0.0
 40
0
 41
0
  0
VERTEX
  8
0
 10
18.4406
 20
31.4743
 30
0.0
 40
0
 41
0
  0
VERTEX
  8
0
 10
18.6288
 20
31.4139
 30
0.0
 40
0
 41
0
  0
VERTEX
  8
0
 10
18.6879
 20
31.3864
 30
0.0
 40
0
 41
0
  0
VERTEX
  8
0
 10
21.3536
 20
30.1433
 30
0.0
 40
0
 41
0
  0
VERTEX
  8
0
 10
21.3983
 20
30.1225
 30
0.0
 40
0
 41
0
  0
VERTEX
  8
0
 10
21.5267
 20
30.0469
 30
0.0
 40
0
 41
0
  0
VERTEX
  8
0
 10
21.6819
 20
29.9285
 30
0.0
 40
0
 41
0
  0
VERTEX
  8
0
 10
21.8175
 20
29.7907
 30
0.0
 40
0
 41
0
  0
VERTEX
  8
0
 10
21.9321
 20
29.636
 30
0.0
 40
0
 41
0
  0
VERTEX
  8
0
 10
22.0239
 20
29.4668
 30
0.0
 40
0
 41
0
  0
VERTEX
  8
0
 10
22.0915
 20
29.2856
 30
0.0
 40
0
 41
0
  0
VERTEX
  8
0
 10
22.1332
 20
29.0949
 30
0.0
 40
0
 41
0
  0
VERTEX
  8
0
 10
22.1475
 20
28.9467
 30
0.0
 40
0
 41
0
  0
VERTEX
  8
0
 10
22.1475
 20
28.8971
 30
0.0
 40
0
 41
0
  0
VERTEX
  8
0
 10
22.1475
 20
6.45654
 30
0.0
 40
0
 41
0
  0
VERTEX
  8
0
 10
0.829428
 20
0.00450304
 30
0.0
 40
0
 41
0
  0
VERTEX
  8
0
 10
0.0485026
 20
2.58479
 30
0.0
 40
0
 41
0
  0
VERTEX
  8
0
 10
1.00564
 20
2.87451
 30
0.0
 40
0
 41
0
  0
VERTEX
  8
0
 10
12.4042
 20
10.2313
 30
0.0
 40
0
 41
0
  0
VERTEX
  8
0
 10
12.4743
 20
10.2765
 30
0.0
 40
0
 41
0
  0
VERTEX
  8
0
 10
12.677
 20
10.4239
 30
0.0
 40
0
 41
0
  0
VERTEX
  8
0
 10
12.9298
 20
10.6357
 30
0.0
 40
0
 41
0
  0
VERTEX
  8
0
 10
13.162
 20
10.8652
 30
0.0
 40
0
 41
0
  0
VERTEX
  8
0
 10
13.373
 20
11.1109
 30
0.0
 40
0
 41
0
  0
VERTEX
  8
0
 10
13.5623
 20
11.3714
 30
0.0
 40
0
 41
0
  0
VERTEX
  8
0
 10
13.7294
 20
11.6451
 30
0.0
 40
0
 41
0
  0
VERTEX
  8
0
 10
13.8736
 20
11.9304
 30
0.0
 40
0
 41
0
  0
VERTEX
  8
0
 10
13.9946
 20
12.226
 30
0.0
 40
0
 41
0
  0
VERTEX
  8
0
 10
14.0915
 20
12.5303
 30
0.0
 40
0
 41
0
  0
VERTEX
  8
0
 10
14.1642
 20
12.8417
 30
0.0
 40
0
 41
0
  0
VERTEX
  8
0
 10
14.2118
 20
13.1587
 30
0.0
 40
0
 41
0
  0
VERTEX
  8
0
 10
14.2339
 20
13.48
 30
0.0
 40
0
 41
0
  0
VERTEX
  8
0
 10
14.2299
 20
13.8039
 30
0.0
 40
0
 41
0
  0
VERTEX
  8
0
 10
14.1992
 20
14.1289
 30
0.0
 40
0
 41
0
  0
VERTEX
  8
0
 10
14.1414
 20
14.4536
 30
0.0
 40
0
 41
0
  0
VERTEX
  8
0
 10
14.0804
 20
14.6967
 30
0.0
 40
0
 41
0
  0
VERTEX
  8
0
 10
14.0558
 20
14.7764
 30
0.0
 40
0
 41
0
  0
VERTEX
  8
0
 10
13.2753
 20
17.2942
 30
0.0
 40
0
 41
0
  0
VERTEX
  8
0
 10
13.2644
 20
17.3294
 30
0.0
 40
0
 41
0
  0
VERTEX
  8
0
 10
13.2218
 20
17.5086
 30
0.0
 40
0
 41
0
  0
VERTEX
  8
0
 10
13.1955
 20
17.6908
 30
0.0
 40
0
 41
0
  0
VERTEX
  8
0
 10
13.1928
 20
17.7276
 30
0.0
 40
0
 41
0
  0
VERTEX
  8
0
 10
13.1785
 20
17.9142
 30
0.0
 40
0
 41
0
  0
VERTEX
  8
0
 10
13.1776
 20
17.9264
 30
0.0
 40
0
 41
0
  0
VERTEX
  8
0
 10
13.1796
 20
17.9635
 30
0.0
 40
0
 41
0
  0
VERTEX
  8
0
 10
13.1903
 20
18.0111
 30
0.0
 40
0
 41
0
  0
VERTEX
  8
0
 10
13.2099
 20
18.0557
 30
0.0
 40
0
 41
0
  0
VERTEX
  8
0
 10
13.2302
 20
18.0868
 30
0.0
 40
0
 41
0
  0
VERTEX
  8
0
 10
13.2382
 20
18.0961
 30
0.0
 40
0
 41
0
  0
VERTEX
  8
0
 10
13.2462
 20
18.1054
 30
0.0
 40
0
 41
0
  0
VERTEX
  8
0
 10
13.2739
 20
18.1301
 30
0.0
 40
0
 41
0
  0
VERTEX
  8
0
 10
13.3151
 20
18.1563
 30
0.0
 40
0
 41
0
  0
VERTEX
  8
0
 10
13.3606
 20
18.1739
 30
0.0
 40
0
 41
0
  0
VERTEX
  8
0
 10
13.3969
 20
18.1815
 30
0.0
 40
0
 41
0
  0
VERTEX
  8
0
 10
13.4091
 20
18.1824
 30
0.0
 40
0
 41
0
  0
VERTEX
  8
0
 10
13.4253
 20
18.1832
 30
0.0
 40
0
 41
0
  0
VERTEX
  8
0
 10
13.4743
 20
18.1771
 30
0.0
 40
0
 41
0
  0
VERTEX
  8
0
 10
13.535
 20
18.1556
 30
0.0
 40
0
 41
0
  0
VERTEX
  8
0
 10
13.5881
 20
18.1192
 30
0.0
 40
0
 41
0
  0
VERTEX
  8
0
 10
13.6219
 20
18.0832
 30
0.0
 40
0
 41
0
  0
VERTEX
  8
0
 10
13.6308
 20
18.0696
 30
0.0
 40
0
 41
0
  0
VERTEX
  8
0
 10
13.6397
 20
18.056
 30
0.0
 40
0
 41
0
  0
VERTEX
  8
0
 10
13.6735
 20
18.0199
 30
0.0
 40
0
 41
0
  0
VERTEX
  8
0
 10
13.7267
 20
17.9836
 30
0.0
 40
0
 41
0
  0
VERTEX
  8
0
 10
13.7874
 20
17.9621
 30
0.0
 40
0
 41
0
  0
VERTEX
  8
0
 10
13.8365
 20
17.956
 30
0.0
 40
0
 41
0
  0
VERTEX
  8
0
 10
13.8528
 20
17.9568
 30
0.0
 40
0
 41
0
  0
VERTEX
  8
0
 10
15.0971
 20
18.0201
 30
0.0
 40
0
 41
0
  0
VERTEX
  8
0
 10
15.6531
 20
22.4956
 30
0.0
 40
0
 41
0
  0
VERTEX
  8
0
 10
15.654
 20
22.5039
 30
0.0
 40
0
 41
0
  0
VERTEX
  8
0
 10
15.6496
 20
22.5443
 30
0.0
 40
0
 41
0
  0
VERTEX
  8
0
 10
15.6328
 20
22.5814
 30
0.0
 40
0
 41
0
  0
VERTEX
  8
0
 10
15.6276
 20
22.5878
 30
0.0
 40
0
 41
0
  0
VERTEX
  8
0
 10
15.6225
 20
22.5944
 30
0.0
 40
0
 41
0
  0
VERTEX
  8
0
 10
15.5908
 20
22.6197
 30
0.0
 40
0
 41
0
  0
VERTEX
  8
0
 10
15.5526
 20
22.634
 30
0.0
 40
0
 41
0
  0
VERTEX
  8
0
 10
15.5444
 20
22.635
 30
0.0
 40
0
 41
0
  0
VERTEX
  8
0
 10
15.4347
 20
22.6486
 30
0.0
 40
0
 41
0
  0
VERTEX
  8
0
 10
15.4231
 20
22.6501
 30
0.0
 40
0
 41
0
  0
VERTEX
  8
0
 10
15.3894
 20
22.6635
 30
0.0
 40
0
 41
0
  0
VERTEX
  8
0
 10
15.3539
 20
22.6929
 30
0.0
 40
0
 41
0
  0
VERTEX
  8
0
 10
15.3315
 20
22.7332
 30
0.0
 40
0
 41
0
  0
VERTEX
  8
0
 10
15.3246
 20
22.7687
 30
0.0
 40
0
 41
0
  0
VERTEX
  8
0
 10
15.3254
 20
22.7804
 30
0.0
 40
0
 41
0
  0
VERTEX
  8
0
 10
15.3321
 20
22.89
 30
0.0
 40
0
 41
0
  0
VERTEX
  8
0
 10
15.3326
 20
22.8983
 30
0.0
 40
0
 41
0
  0
VERTEX
  8
0
 10
15.3256
 20
22.9383
 30
0.0
 40
0
 41
0
  0
VERTEX
  8
0
 10
15.3065
 20
22.9743
 30
0.0
 40
0
 41
0
  0
VERTEX
  8
0
 10
15.301
 20
22.9806
 30
0.0
 40
0
 41
0
  0
VERTEX
  8
0
 10
15.2954
 20
22.9868
 30
0.0
 40
0
 41
0
  0
VERTEX
  8
0
 10
15.2622
 20
23.01
 30
0.0
 40
0
 41
0
  0
VERTEX
  8
0
 10
15.2232
 20
23.0219
 30
0.0
 40
0
 41
0
  0
VERTEX
  8
0
 10
15.215
 20
23.0225
 30
0.0
 40
0
 41
0
  0
VERTEX
  8
0
 10
13.5097
 20
23.1272
 30
0.0
 40
0
 41
0
  0
VERTEX
  8
0
 10
13.498
 20
23.1279
 30
0.0
 40
0
 41
0
  0
VERTEX
  8
0
 10
13.4635
 20
23.1392
 30
0.0
 40
0
 41
0
  0
VERTEX
  8
0
 10
13.4263
 20
23.1664
 30
0.0
 40
0
 41
0
  0
VERTEX
  8
0
 10
13.4014
 20
23.2051
 30
0.0
 40
0
 41
0
  0
VERTEX
  8
0
 10
13.3924
 20
23.2403
 30
0.0
 40
0
 41
0
  0
VERTEX
  8
0
 10
13.3924
 20
23.2519
 30
0.0
 40
0
 41
0
  0
SEQEND
 8
0
  0
POLYLINE
  8
0
 62
     0
 66
     1
 10
0
 20
0
 30
0.0
 70
     1
 40
0
 41
0
  0
VERTEX
  8
0
 10
13.3492
 20
17.9444
 30
0.0
 40
0
 41
0
  0
VERTEX
  8
0
 10
13.3492
 20
17.9521
 30
0.0
 40
0
 41
0
  0
VERTEX
  8
0
 10
13.3554
 20
17.9751
 30
0.0
 40
0
 41
0
  0
VERTEX
  8
0
 10
13.3722
 20
18.0001
 30
0.0
 40
0
 41
0
  0
VERTEX
  8
0
 10
13.3972
 20
18.0171
 30
0.0
 40
0
 41
0
  0
VERTEX
  8
0
 10
13.4202
 20
18.0232
 30
0.0
 40
0
 41
0
  0
VERTEX
  8
0
 10
13.4279
 20
18.0232
 30
0.0
 40
0
 41
0
  0
VERTEX
  8
0
 10
13.4355
 20
18.0232
 30
0.0
 40
0
 41
0
  0
VERTEX
  8
0
 10
13.4586
 20
18.0171
 30
0.0
 40
0
 41
0
  0
VERTEX
  8
0
 10
13.4836
 20
18.0001
 30
0.0
 40
0
 41
0
  0
VERTEX
  8
0
 10
13.5004
 20
17.9751
 30
0.0
 40
0
 41
0
  0
VERTEX
  8
0
 10
13.5067
 20
17.9521
 30
0.0
 40
0
 41
0
  0
VERTEX
  8
0
 10
13.5067
 20
17.9444
 30
0.0
 40
0
 41
0
  0
VERTEX
  8
0
 10
13.5067
 20
17.9368
 30
0.0
 40
0
 41
0
  0
VERTEX
  8
0
 10
13.5004
 20
17.9138
 30
0.0
 40
0
 41
0
  0
VERTEX
  8
0
 10
13.4836
 20
17.8887
 30
0.0
 40
0
 41
0
  0
VERTEX
  8
0
 10
13.4586
 20
17.8719
 30
0.0
 40
0
 41
0
  0
VERTEX
  8
0
 10
13.4355
 20
17.8657
 30
0.0
 40
0
 41
0
  0
VERTEX
  8
0
 10
13.4279
 20
17.8657
 30
0.0
 40
0
 41
0
  0
VERTEX
  8
0
 10
13.4202
 20
17.8657
 30
0.0
 40
0
 41
0
  0
VERTEX
  8
0
 10
13.3972
 20
17.8719
 30
0.0
 40
0
 41
0
  0
VERTEX
  8
0
 10
13.3722
 20
17.8887
 30
0.0
 40
0
 41
0
  0
VERTEX
  8
0
 10
13.3554
 20
17.9138
 30
0.0
 40
0
 41
0
  0
VERTEX
  8
0
 10
13.3492
 20
17.9368
 30
0.0
 40
0
 41
0
  0
VERTEX
  8
0
 10
13.3492
 20
17.9444
 30
0.0
 40
0
 41
0
  0
SEQEND
 8
0
  0
POLYLINE
  8
0
 62
     0
 66
     1
 10
0
 20
0
 30
0.0
 70
     1
 40
0
 41
0
  0
VERTEX
  8
0
 10
17.419
 20
22.8758
 30
0.0
 40
0
 41
0
  0
VERTEX
  8
0
 10
17.419
 20
22.8854
 30
0.0
 40
0
 41
0
  0
VERTEX
  8
0
 10
17.4229
 20
22.9138
 30
0.0
 40
0
 41
0
  0
VERTEX
  8
0
 10
17.4337
 20
22.9489
 30
0.0
 40
0
 41
0
  0
VERTEX
  8
0
 10
17.4511
 20
22.9807
 30
0.0
 40
0
 41
0
  0
VERTEX
  8
0
 10
17.474
 20
23.0085
 30
0.0
 40
0
 41
0
  0
VERTEX
  8
0
 10
17.5017
 20
23.0314
 30
0.0
 40
0
 41
0
  0
VERTEX
  8
0
 10
17.5335
 20
23.0486
 30
0.0
 40
0
 41
0
  0
VERTEX
  8
0
 10
17.5687
 20
23.0596
 30
0.0
 40
0
 41
0
  0
VERTEX
  8
0
 10
17.5971
 20
23.0633
 30
0.0
 40
0
 41
0
  0
VERTEX
  8
0
 10
17.6065
 20
23.0633
 30
0.0
 40
0
 41
0
  0
VERTEX
  8
0
 10
17.616
 20
23.0633
 30
0.0
 40
0
 41
0
  0
VERTEX
  8
0
 10
17.6443
 20
23.0596
 30
0.0
 40
0
 41
0
  0
VERTEX
  8
0
 10
17.6796
 20
23.0486
 30
0.0
 40
0
 41
0
  0
VERTEX
  8
0
 10
17.7114
 20
23.0314
 30
0.0
 40
0
 41
0
  0
VERTEX
  8
0
 10
17.739
 20
23.0085
 30
0.0
 40
0
 41
0
  0
VERTEX
  8
0
 10
17.7619
 20
22.9807
 30
0.0
 40
0
 41
0
  0
VERTEX
  8
0
 10
17.7793
 20
22.9489
 30
0.0
 40
0
 41
0
  0
VERTEX
  8
0
 10
17.7901
 20
22.9138
 30
0.0
 40
0
 41
0
  0
VERTEX
  8
0
 10
17.794
 20
22.8854
 30
0.0
 40
0
 41
0
  0
VERTEX
  8
0
 10
17.794
 20
22.8758
 30
0.0
 40
0
 41
0
  0
VERTEX
  8
0
 10
17.794
 20
22.8664
 30
0.0
 40
0
 41
0
  0
VERTEX
  8
0
 10
17.7901
 20
22.8381
 30
0.0
 40
0
 41
0
  0
VERTEX
  8
0
 10
17.7793
 20
22.8029
 30
0.0
 40
0
 41
0
  0
VERTEX
  8
0
 10
17.7619
 20
22.7711
 30
0.0
 40
0
 41
0
  0
VERTEX
  8
0
 10
17.739
 20
22.7433
 30
0.0
 40
0
 41
0
  0
VERTEX
  8
0
 10
17.7114
 20
22.7204
 30
0.0
 40
0
 41
0
  0
VERTEX
  8
0
 10
17.6796
 20
22.7032
 30
0.0
 40
0
 41
0
  0
VERTEX
  8
0
 10
17.6443
 20
22.6922
 30
0.0
 40
0
 41
0
  0
VERTEX
  8
0
 10
17.616
 20
22.6883
 30
0.0
 40
0
 41
0
  0
VERTEX
  8
0
 10
17.6065
 20
22.6883
 30
0.0
 40
0
 41
0
  0
VERTEX
  8
0
 10
17.5971
 20
22.6883
 30
0.0
 40
0
 41
0
  0
VERTEX
  8
0
 10
17.5687
 20
22.6922
 30
0.0
 40
0
 41
0
  0
VERTEX
  8
0
 10
17.5335
 20
22.7032
 30
0.0
 40
0
 41
0
  0
VERTEX
  8
0
 10
17.5017
 20
22.7204
 30
0.0
 40
0
 41
0
  0
VERTEX
  8
0
 10
17.474
 20
22.7433
 30
0.0
 40
0
 41
0
  0
VERTEX
  8
0
 10
17.4511
 20
22.7711
 30
0.0
 40
0
 41
0
  0
VERTEX
  8
0
 10
17.4337
 20
22.8029
 30
0.0
 40
0
 41
0
  0
VERTEX
  8
0
 10
17.4229
 20
22.8381
 30
0.0
 40
0
 41
0
  0
VERTEX
  8
0
 10
17.419
 20
22.8664
 30
0.0
 40
0
 41
0
  0
VERTEX
  8
0
 10
17.419
 20
22.8758
 30
0.0
 40
0
 41
0
  0
SEQEND
 8
0
  0
POLYLINE
  8
0
 62
     0
 66
     1
 10
0
 20
0
 30
0.0
 70
     1
 40
0
 41
0
  0
VERTEX
  8
0
 10
16.276
 20
23.7506
 30
0.0
 40
0
 41
0
  0
VERTEX
  8
0
 10
16.276
 20
23.7589
 30
0.0
 40
0
 41
0
  0
VERTEX
  8
0
 10
16.2826
 20
23.7836
 30
0.0
 40
0
 41
0
  0
VERTEX
  8
0
 10
16.3008
 20
23.8106
 30
0.0
 40
0
 41
0
  0
VERTEX
  8
0
 10
16.3278
 20
23.8288
 30
0.0
 40
0
 41
0
  0
VERTEX
  8
0
 10
16.3525
 20
23.8353
 30
0.0
 40
0
 41
0
  0
VERTEX
  8
0
 10
16.3607
 20
23.8353
 30
0.0
 40
0
 41
0
  0
VERTEX
  8
0
 10
16.369
 20
23.8353
 30
0.0
 40
0
 41
0
  0
VERTEX
  8
0
 10
16.3937
 20
23.8288
 30
0.0
 40
0
 41
0
  0
VERTEX
  8
0
 10
16.4207
 20
23.8106
 30
0.0
 40
0
 41
0
  0
VERTEX
  8
0
 10
16.4389
 20
23.7836
 30
0.0
 40
0
 41
0
  0
VERTEX
  8
0
 10
16.4456
 20
23.7589
 30
0.0
 40
0
 41
0
  0
VERTEX
  8
0
 10
16.4456
 20
23.7506
 30
0.0
 40
0
 41
0
  0
VERTEX
  8
0
 10
16.4456
 20
23.7424
 30
0.0
 40
0
 41
0
  0
VERTEX
  8
0
 10
16.4389
 20
23.7176
 30
0.0
 40
0
 41
0
  0
VERTEX
  8
0
 10
16.4207
 20
23.6907
 30
0.0
 40
0
 41
0
  0
VERTEX
  8
0
 10
16.3937
 20
23.6725
 30
0.0
 40
0
 41
0
  0
VERTEX
  8
0
 10
16.369
 20
23.6658
 30
0.0
 40
0
 41
0
  0
VERTEX
  8
0
 10
16.3607
 20
23.6658
 30
0.0
 40
0
 41
0
  0
VERTEX
  8
0
 10
16.3525
 20
23.6658
 30
0.0
 40
0
 41
0
  0
VERTEX
  8
0
 10
16.3278
 20
23.6725
 30
0.0
 40
0
 41
0
  0
VERTEX
  8
0
 10
16.3008
 20
23.6907
 30
0.0
 40
0
 41
0
  0
VERTEX
  8
0
 10
16.2826
 20
23.7176
 30
0.0
 40
0
 41
0
  0
VERTEX
  8
0
 10
16.276
 20
23.7424
 30
0.0
 40
0
 41
0
  0
VERTEX
  8
0
 10
16.276
 20
23.7506
 30
0.0
 40
0
 41
0
  0
SEQEND
 8
0
  0
POLYLINE
  8
0
 62
     0
 66
     1
 10
0
 20
0
 30
0.0
 70
     1
 40
0
 41
0
  0
VERTEX
  8
0
 10
17.0619
 20
23.6621
 30
0.0
 40
0
 41
0
  0
VERTEX
  8
0
 10
17.0619
 20
23.6703
 30
0.0
 40
0
 41
0
  0
VERTEX
  8
0
 10
17.0686
 20
23.695
 30
0.0
 40
0
 41
0
  0
VERTEX
  8
0
 10
17.0868
 20
23.7219
 30
0.0
 40
0
 41
0
  0
VERTEX
  8
0
 10
17.1137
 20
23.7401
 30
0.0
 40
0
 41
0
  0
VERTEX
  8
0
 10
17.1385
 20
23.7468
 30
0.0
 40
0
 41
0
  0
VERTEX
  8
0
 10
17.1467
 20
23.7468
 30
0.0
 40
0
 41
0
  0
VERTEX
  8
0
 10
17.155
 20
23.7468
 30
0.0
 40
0
 41
0
  0
VERTEX
  8
0
 10
17.1797
 20
23.7401
 30
0.0
 40
0
 41
0
  0
VERTEX
  8
0
 10
17.2067
 20
23.7219
 30
0.0
 40
0
 41
0
  0
VERTEX
  8
0
 10
17.2247
 20
23.695
 30
0.0
 40
0
 41
0
  0
VERTEX
  8
0
 10
17.2314
 20
23.6703
 30
0.0
 40
0
 41
0
  0
VERTEX
  8
0
 10
17.2314
 20
23.6621
 30
0.0
 40
0
 41
0
  0
VERTEX
  8
0
 10
17.2314
 20
23.6537
 30
0.0
 40
0
 41
0
  0
VERTEX
  8
0
 10
17.2247
 20
23.629
 30
0.0
 40
0
 41
0
  0
VERTEX
  8
0
 10
17.2067
 20
23.6022
 30
0.0
 40
0
 41
0
  0
VERTEX
  8
0
 10
17.1797
 20
23.584
 30
0.0
 40
0
 41
0
  0
VERTEX
  8
0
 10
17.155
 20
23.5774
 30
0.0
 40
0
 41
0
  0
VERTEX
  8
0
 10
17.1467
 20
23.5774
 30
0.0
 40
0
 41
0
  0
VERTEX
  8
0
 10
17.1385
 20
23.5774
 30
0.0
 40
0
 41
0
  0
VERTEX
  8
0
 10
17.1137
 20
23.584
 30
0.0
 40
0
 41
0
  0
VERTEX
  8
0
 10
17.0868
 20
23.6022
 30
0.0
 40
0
 41
0
  0
VERTEX
  8
0
 10
17.0686
 20
23.629
 30
0.0
 40
0
 41
0
  0
VERTEX
  8
0
 10
17.0619
 20
23.6537
 30
0.0
 40
0
 41
0
  0
VERTEX
  8
0
 10
17.0619
 20
23.6621
 30
0.0
 40
0
 41
0
  0
SEQEND
 8
0
  0
POLYLINE
  8
0
 62
     0
 66
     1
 10
0
 20
0
 30
0.0
 70
     1
 40
0
 41
0
  0
VERTEX
  8
0
 10
15.7201
 20
27.1379
 30
0.0
 40
0
 41
0
  0
VERTEX
  8
0
 10
15.7201
 20
27.1474
 30
0.0
 40
0
 41
0
  0
VERTEX
  8
0
 10
15.7278
 20
27.1756
 30
0.0
 40
0
 41
0
  0
VERTEX
  8
0
 10
15.7485
 20
27.2064
 30
0.0
 40
0
 41
0
  0
VERTEX
  8
0
 10
15.7793
 20
27.2271
 30
0.0
 40
0
 41
0
  0
VERTEX
  8
0
 10
15.8075
 20
27.2346
 30
0.0
 40
0
 41
0
  0
VERTEX
  8
0
 10
15.8169
 20
27.2346
 30
0.0
 40
0
 41
0
  0
VERTEX
  8
0
 10
15.8262
 20
27.2346
 30
0.0
 40
0
 41
0
  0
VERTEX
  8
0
 10
15.8546
 20
27.2271
 30
0.0
 40
0
 41
0
  0
VERTEX
  8
0
 10
15.8853
 20
27.2064
 30
0.0
 40
0
 41
0
  0
VERTEX
  8
0
 10
15.906
 20
27.1756
 30
0.0
 40
0
 41
0
  0
VERTEX
  8
0
 10
15.9138
 20
27.1474
 30
0.0
 40
0
 41
0
  0
VERTEX
  8
0
 10
15.9138
 20
27.1379
 30
0.0
 40
0
 41
0
  0
VERTEX
  8
0
 10
15.9138
 20
27.1285
 30
0.0
 40
0
 41
0
  0
VERTEX
  8
0
 10
15.906
 20
27.1003
 30
0.0
 40
0
 41
0
  0
VERTEX
  8
0
 10
15.8853
 20
27.0696
 30
0.0
 40
0
 41
0
  0
VERTEX
  8
0
 10
15.8546
 20
27.0489
 30
0.0
 40
0
 41
0
  0
VERTEX
  8
0
 10
15.8262
 20
27.0411
 30
0.0
 40
0
 41
0
  0
VERTEX
  8
0
 10
15.8169
 20
27.0411
 30
0.0
 40
0
 41
0
  0
VERTEX
  8
0
 10
15.8075
 20
27.0411
 30
0.0
 40
0
 41
0
  0
VERTEX
  8
0
 10
15.7793
 20
27.0489
 30
0.0
 40
0
 41
0
  0
VERTEX
  8
0
 10
15.7485
 20
27.0696
 30
0.0
 40
0
 41
0
  0
VERTEX
  8
0
 10
15.7278
 20
27.1003
 30
0.0
 40
0
 41
0
  0
VERTEX
  8
0
 10
15.7201
 20
27.1285
 30
0.0
 40
0
 41
0
  0
VERTEX
  8
0
 10
15.7201
 20
27.1379
 30
0.0
 40
0
 41
0
  0
SEQEND
 8
0
  0
ENDSEC
  0
EOF
