0
SECTION
2
HEADER
9
$INSUNITS
70
1
9
$ACADVER
1
AC1014
9
$HANDSEED
5
FFFF
0
ENDSEC
0
SECTION
2
TABLES
0
TABLE
2
VPORT
5
8
100
AcDbSymbolTable
0
ENDTAB
0
TABLE
2
LTYPE
5
5
100
AcDbSymbolTable
0
LTYPE
5
14
100
AcDbSymbolTableRecord
100
AcDbLinetypeTableRecord
2
BYBLOCK
70
0
0
LTYPE
5
15
100
AcDbSymbolTableRecord
100
AcDbLinetypeTableRecord
2
BYLAYER
70
0
0
ENDTAB
0
TABLE
2
LAYER
5
2
100
AcDbSymbolTable
70
2
0
LAYER
5
50
100
AcDbSymbolTableRecord
100
AcDbLayerTableRecord
2
0
70
0
6
CONTINUOUS
0
ENDTAB
0
TABLE
2
STYLE
5
3
100
AcDbSymbolTable
70
1
0
STYLE
5
11
100
AcDbSymbolTableRecord
100
AcDbTextStyleTableRecord
2
STANDARD
70
0
0
ENDTAB
0
TABLE
2
VIEW
5
6
100
AcDbSymbolTable
70
0
0
ENDTAB
0
TABLE
2
UCS
5
7
100
AcDbSymbolTable
70
0
0
ENDTAB
0
TABLE
2
APPID
5
9
100
AcDbSymbolTable
70
2
0
APPID
5
12
100
AcDbSymbolTableRecord
100
AcDbRegAppTableRecord
2
ACAD
70
0
0
ENDTAB
0
TABLE
2
DIMSTYLE
5
A
100
AcDbSymbolTable
70
1
0
ENDTAB
0
TABLE
2
BLOCK_RECORD
5
1
100
AcDbSymbolTable
70
1
0
BLOCK_RECORD
5
1F
100
AcDbSymbolTableRecord
100
AcDbBlockTableRecord
2
*MODEL_SPACE
0
BLOCK_RECORD
5
1B
100
AcDbSymbolTableRecord
100
AcDbBlockTableRecord
2
*PAPER_SPACE
0
ENDTAB
0
ENDSEC
0
SECTION
2
BLOCKS
0
BLOCK
5
20
100
AcDbEntity
100
AcDbBlockBegin
2
*MODEL_SPACE
0
ENDBLK
5
21
100
AcDbEntity
100
AcDbBlockEnd
0
BLOCK
5
1C
100
AcDbEntity
100
AcDbBlockBegin
2
*PAPER_SPACE
0
ENDBLK
5
1D
100
AcDbEntity
100
AcDbBlockEnd
0
ENDSEC
0
SECTION
2
ENTITIES
0
LWPOLYLINE
5
100
100
AcDbEntity
8
0
100
AcDbPolyline
90
27
70
1
43
0.0
10
-3.1499616581738583
20
-8.4935076409358174
42
-0.13117251105619712
10
-3.307086614173226
20
-7.9048880170813849
10
-3.3070866141732189
20
-6.7742659841591495
42
-0.39635715833513985
10
-3.189750317253631
20
-6.6495011347219251
10
-1.4844942551011768
20
-6.5447554776286534
42
0.41421356237317652
10
-1.367393108744398
20
-6.4123269251109782
10
-1.3741283150974166
20
-6.30267797371617
42
-0.39609277220053107
10
-1.264775428083212
20
-6.1709680235571955
10
-1.1550115400115009
20
-6.1573305539988024
42
0.4142135623730655
10
-1.0463772553560136
20
-6.0178723444972393
10
-1.6024199981838747
20
-1.5424516569904494
10
-2.846751468247811
20
-1.4790321328824934
42
0.2666801973217891
10
-3.068693775962684
20
-1.5918570892480317
42
-0.26638020998048306
10
-3.2903563486302354
20
-1.7046961456935976
42
-0.41450481677260803
10
-3.5209160213047639
20
-1.4364303724297505
10
-3.5067266221962936
20
-1.2499480479237817
42
-0.056216386212920202
10
-3.4241467952827569
20
-0.81649002102357671
10
-2.6437087367843546
20
1.7013468889774424
42
0.33645374879302142
10
-4.295272988627949
20
6.2464169533606384
10
-15.693861829768188
20
13.60321198515609
10
-16.650985806575449
20
13.892890588130113
10
-15.870041618144384
20
16.473199936567163
10
5.4479889077862325
20
10.021185933631337
10
5.4479889077862378
20
-12.419424644238408
42
-0.2914734195860908
10
4.6540890176796887
20
-13.665597851413818
10
1.9884209768183796
20
-14.908619272966485
42
-0.38942202433674661
10
0.21524050320077542
20
-14.347697411228175
0
LWPOLYLINE
5
101
100
AcDbEntity
8
0
100
AcDbPolyline
90
8
70
1
43
0.0
10
4.8425196850393242
20
-12.168095039037487
42
-0.29147341958596323
10
4.3878883950718262
20
-12.881723217806348
10
4.053477473708452
20
-13.03766159140871
42
-0.54861878662748831
10
3.6614173228342213
20
-12.787891728840028
10
3.6614173228341582
20
-9.2830463474844223
42
-0.4142135623730378
10
3.93700787401457
20
-9.0074557963026951
10
4.5669291338571032
20
-9.0074557963027146
42
-0.41421356237427165
10
4.8425196850394281
20
-9.2830463474839178
0
CIRCLE
5
102
100
AcDbEntity
8
0
100
AcDbCircle
10
-3.2715742895278495
20
-1.4667328568681415
30
-2.4846012762866511e-30
40
0.078740157482979495
210
0
220
-0
230
1
0
LWPOLYLINE
5
103
100
AcDbEntity
8
0
100
AcDbPolyline
90
11
70
1
43
0.0
10
1.7507460814541933
20
8.2171675921460494
10
2.0485129109667115
20
9.5069374303417487
42
0.38721117869122124
10
1.9446003493412927
20
9.6918508390458644
10
-0.57020675357657657
20
10.525109951099607
42
0.44174155364542567
10
-0.77318240133233385
20
10.411047268172952
10
-1.3808095813942232
20
7.7791247971755171
42
0.41421356237306417
10
-1.1742767832411163
20
7.4486032289115736
10
2.4094397662161255
20
6.6212370716316755
10
4.2656543007213843
20
6.8041394598802061
42
0.80644287737024456
10
4.3010552372539506
20
7.1099077284238863
10
1.9136245450455305
20
7.924317821865424
42
-0.38468656752400116
0
LWPOLYLINE
5
104
100
AcDbEntity
8
0
100
AcDbPolyline
90
8
70
1
43
0.0
10
4.8035787579742326
20
-5.7453924355565071
10
3.2818288926435657
20
-3.3484043873601563
42
0.51937074532513461
10
2.8314238546557777
20
-3.3271786852481915
10
0.51035231967835049
20
-6.3188364675841635
42
0.62369311897700053
10
0.72809381269861273
20
-6.7633613081136783
10
4.5669291338582809
20
-6.7633613081136961
42
0.41421356237298729
10
4.8425196850392842
20
-6.4877707569326057
10
4.8425196850393259
20
-5.8793852254067502
42
0.14236468951974182
0
LWPOLYLINE
5
105
100
AcDbEntity
8
0
100
AcDbPolyline
90
7
70
1
43
0.0
10
2.7436319868774404
20
-2.5006622057517212
42
-0.31633441419983632
10
2.728709934929979
20
-2.8173050823366173
10
0.082957390626287958
20
-6.2274482295955975
42
-0.65049084438878779
10
-0.4061715599285502
20
-6.1064618264692871
10
-1.2789218097520239
20
-1.1666513358616972
10
-1.2143817692141929
20
0.21907707437817017
10
0.60908664090405062
20
0.86157215299398704
0
LWPOLYLINE
5
106
100
AcDbEntity
8
0
100
AcDbPolyline
90
6
70
1
43
0.0
10
-11.666203265529331
20
12.470187828204306
42
-0.53974956604173219
10
-11.961611940594254
20
12.823795137713791
10
-11.68871834255809
20
13.725387053204411
42
-0.41421356237320467
10
-11.34510720851179
20
13.909320987974688
10
-9.2648140662331802
20
13.279658420229062
42
-0.81389771400350286
10
-9.3130165252144259
20
12.742117175949444
0
LWPOLYLINE
5
107
100
AcDbEntity
8
0
100
AcDbPolyline
90
6
70
1
43
0.0
10
-2.7456669788951098
20
7.2582843069657628
42
-0.66559533500010681
10
-3.2514728338001095
20
7.2063275209880997
10
-5.5690252811516956
20
11.462355997532143
42
-0.67076812105618766
10
-5.2471533610168963
20
11.857923917556191
10
-1.9440053316157027
20
10.858127962088867
42
-0.41421356237293927
10
-1.7600713968454955
20
10.514516828042701
0
CIRCLE
5
108
100
AcDbEntity
8
0
100
AcDbCircle
10
-0.33873073565599904
20
-7.2728519078605114
30
0
40
0.084750000000000547
210
-4.9303806576313249e-32
220
5.4738221262687807e-47
230
1
0
CIRCLE
5
109
100
AcDbEntity
8
0
100
AcDbCircle
10
0.44723109432077146
20
-7.1843291402008944
30
-1.2423006381433256e-30
40
0.084750000000000547
210
-4.9303806576313249e-32
220
5.4738221262687807e-47
230
1
0
CIRCLE
5
110
100
AcDbEntity
8
0
100
AcDbCircle
10
0.11138738460343831
20
10.591539709204003
30
0
40
0.062500000000000472
210
4.9303806576313238e-32
220
-5.4738221262687778e-47
230
1
0
CIRCLE
5
111
100
AcDbEntity
8
0
100
AcDbCircle
10
-5.152794487835834
20
12.184772025560056
30
0
40
0.062500000000000111
210
4.9303806576313238e-32
220
-5.4738221262687778e-47
230
1
0
CIRCLE
5
112
100
AcDbEntity
8
0
100
AcDbCircle
10
-13.049067296494833
20
14.574620500094237
30
-1.2423006381433256e-30
40
0.062500000000001207
210
0
220
-0
230
1
0
CIRCLE
5
113
100
AcDbEntity
8
0
100
AcDbCircle
10
-15.21951643925046
20
14.307466094565806
30
1.2423006381433256e-30
40
0.062500000000001207
210
0
220
-0
230
1
0
CIRCLE
5
114
100
AcDbEntity
8
0
100
AcDbCircle
10
-12.541603412588721
20
13.496981639838673
30
0
40
0.062500000000001207
210
0
220
-0
230
1
0
CIRCLE
5
115
100
AcDbEntity
8
0
100
AcDbCircle
10
-7.9008603003931528
20
9.1496330508283084
30
0
40
0.062500000000000111
210
4.9303806576313238e-32
220
-5.4738221262687778e-47
230
1
0
CIRCLE
5
116
100
AcDbEntity
8
0
100
AcDbCircle
10
-1.5719571253641629
20
9.3079629609842591
30
-6.2115031907166279e-31
40
0.062500000000000513
210
0
220
-0
230
1
0
CIRCLE
5
117
100
AcDbEntity
8
0
100
AcDbCircle
10
2.3643852108475527
20
8.6629723555668541
30
0
40
0.062500000000000513
210
0
220
-0
230
1
0
CIRCLE
5
118
100
AcDbEntity
8
0
100
AcDbCircle
10
4.0922563225582937
20
8.0820182115466945
30
0
40
0.062500000000000666
210
4.9303806576313238e-32
220
-5.4738221262687778e-47
230
1
0
CIRCLE
5
119
100
AcDbEntity
8
0
100
AcDbCircle
10
1.250000000000058
20
-7.2554872923660954
30
1.8634509572149884e-30
40
0.062500000000000444
210
0
220
-0
230
1
0
CIRCLE
5
120
100
AcDbEntity
8
0
100
AcDbCircle
10
3.5531496062993124
20
-7.2554872923661025
30
0
40
0.062500000000000666
210
4.9303806576313238e-32
220
-5.4738221262687778e-47
230
1
0
CIRCLE
5
121
100
AcDbEntity
8
0
100
AcDbCircle
10
-1.1143142633297392
20
-11.115575695831659
30
1.2423006381433256e-30
40
0.068000000000000421
210
4.9303806576313238e-32
220
-5.4738221262687768e-47
230
1
0
CIRCLE
5
122
100
AcDbEntity
8
0
100
AcDbCircle
10
-1.3935176734965029
20
-10.660206056546921
30
0
40
0.068000000000000421
210
4.9303806576313238e-32
220
-5.4738221262687768e-47
230
1
0
CIRCLE
5
123
100
AcDbEntity
8
0
100
AcDbCircle
10
-1.0269649898684845
20
-6.5503473286928253
30
0
40
0.068000000000000421
210
4.9303806576313238e-32
220
-5.4738221262687768e-47
230
1
0
CIRCLE
5
124
100
AcDbEntity
8
0
100
AcDbCircle
10
-2.9010300443564034
20
-7.0114694573418932
30
0
40
0.068000000000000421
210
4.9303806576313238e-32
220
-5.4738221262687768e-47
230
1
0
CIRCLE
5
125
100
AcDbEntity
8
0
100
AcDbCircle
10
-0.88257109792084587
20
-10.660206056548818
30
-2.4846012762866511e-30
40
0.09675000000000053
210
4.9303806576313238e-32
220
-5.4738221262687788e-47
230
1
0
LWPOLYLINE
5
126
100
AcDbEntity
8
0
100
AcDbPolyline
90
8
70
1
43
0.0
10
-11.175834324454927
20
11.836991307417
42
-0.70390913000713418
10
-11.058019113500869
20
12.342307950559217
10
-8.0623366619363583
20
12.68848276157167
42
-0.10259800459525979
10
-7.9612131475259478
20
12.679414802401508
10
-6.2569424919881946
20
12.163566619619125
42
-0.1970542020730626
10
-6.1098087094950024
20
12.043844491785958
10
-3.7078809609233123
20
7.6328664756446756
42
-0.7771467497000687
10
-4.0993656330309713
20
7.2695231567580461
0
LWPOLYLINE
5
127
100
AcDbEntity
8
0
100
AcDbPolyline
90
8
70
1
43
0.0
10
4.7105276237375575
20
1.7531438271683244
10
-0.72880729611964901
20
4.6655673215298687
42
0.77132819749902826
10
-1.0915583325657903
20
4.2749031900859631
10
2.8425266237808002
20
-1.9218804179107229
42
0.55741780534596796
10
3.3113035740597923
20
-1.9163006867612475
10
4.8067082741431335
20
0.56795976376315926
42
0.13629805274446441
10
4.8425196850393002
20
0.69689094035635535
10
4.8425196850392913
20
1.5327484406372349
42
0.27654344686189636
0
LWPOLYLINE
5
128
100
AcDbEntity
8
0
100
AcDbPolyline
90
10
70
1
43
0.0
10
3.0708661417322256
20
-12.637517539696001
42
-0.55953534830736196
10
2.6705278591217039
20
-12.883257555573596
10
-0.29165875184500395
20
-11.379529892543054
42
-0.36812355550493697
10
-0.42937699368326709
20
-11.049755569522574
10
-0.25568678518853483
20
-10.50726558930516
42
0.084219864565381677
10
0.023523186218042218
20
-8.5516631584984459
10
0.009849590441772995
20
-8.030430967426808
42
-0.42191636166329671
10
0.2853453623750889
20
-7.747613276617642
10
2.7952755905511109
20
-7.7476132766176455
42
-0.41421356237308432
10
3.0708661417322038
20
-8.0232038277987332
0
LWPOLYLINE
5
129
100
AcDbEntity
8
0
100
AcDbPolyline
90
6
70
1
43
0.0
10
-0.53335944351195541
20
5.2307942032133337
42
-0.74135471939709174
10
-0.43029643408342727
20
5.7480120840079216
10
4.1462038644066954
20
6.1989582536742489
42
-0.44328247546272354
10
4.4488188976377252
20
5.9246959170872175
10
4.4488188976377492
20
3.0233202026917252
42
-0.56673085034205739
10
4.0431408549780423
20
2.7803646584842032
0
LWPOLYLINE
5
130
100
AcDbEntity
8
0
100
AcDbPolyline
90
6
70
1
43
0.0
10
4.8425196850393188
20
-4.1238881354756964
42
-0.75075439423888957
10
4.3342655888905721
20
-4.2715967227121716
10
3.4086294520527192
20
-2.8135786820817645
42
-0.28417691972881243
10
3.405179591709063
20
-2.5237412387583493
10
4.3308157285468871
20
-0.98601620272345758
42
-0.7601015817720016
10
4.8425196850393064
20
-1.1281450588104431
0
LWPOLYLINE
5
131
100
AcDbEntity
8
0
100
AcDbPolyline
90
4
70
1
43
0.0
10
1.8314485888649583
20
-13.561117473716058
10
0.88956768356410243
20
-13.082980016967849
42
0.46975894580238253
10
0.53640999103926446
20
-13.235879648771979
42
0.82949621268774532
10
1.9164552735313791
20
-13.936447350967155
42
0.46975894580239114
0
ENDSEC
0
SECTION
2
OBJECTS
0
DICTIONARY
5
C
100
AcDbDictionary
3
ACAD_GROUP
350
D
3
ACAD_MLINESTYLE
350
17
0
DICTIONARY
5
D
100
AcDbDictionary
0
DICTIONARY
5
1A
330
C
100
AcDbDictionary
0
DICTIONARY
5
17
100
AcDbDictionary
0
ENDSEC
0
EOF
