0
SECTION
2
HEADER
9
$INSUNITS
70
1
9
$ACADVER
1
AC1014
9
$HANDSEED
5
FFFF
0
ENDSEC
0
SECTION
2
TABLES
0
TABLE
2
VPORT
5
8
100
AcDbSymbolTable
0
ENDTAB
0
TABLE
2
LTYPE
5
5
100
AcDbSymbolTable
0
LTYPE
5
14
100
AcDbSymbolTableRecord
100
AcDbLinetypeTableRecord
2
BYBLOCK
70
0
0
LTYPE
5
15
100
AcDbSymbolTableRecord
100
AcDbLinetypeTableRecord
2
BYLAYER
70
0
0
ENDTAB
0
TABLE
2
LAYER
5
2
100
AcDbSymbolTable
70
2
0
LAYER
5
50
100
AcDbSymbolTableRecord
100
AcDbLayerTableRecord
2
0
70
0
6
CONTINUOUS
0
ENDTAB
0
TABLE
2
STYLE
5
3
100
AcDbSymbolTable
70
1
0
STYLE
5
11
100
AcDbSymbolTableRecord
100
AcDbTextStyleTableRecord
2
STANDARD
70
0
0
ENDTAB
0
TABLE
2
VIEW
5
6
100
AcDbSymbolTable
70
0
0
ENDTAB
0
TABLE
2
UCS
5
7
100
AcDbSymbolTable
70
0
0
ENDTAB
0
TABLE
2
APPID
5
9
100
AcDbSymbolTable
70
2
0
APPID
5
12
100
AcDbSymbolTableRecord
100
AcDbRegAppTableRecord
2
ACAD
70
0
0
ENDTAB
0
TABLE
2
DIMSTYLE
5
A
100
AcDbSymbolTable
70
1
0
ENDTAB
0
TABLE
2
BLOCK_RECORD
5
1
100
AcDbSymbolTable
70
1
0
BLOCK_RECORD
5
1F
100
AcDbSymbolTableRecord
100
AcDbBlockTableRecord
2
*MODEL_SPACE
0
BLOCK_RECORD
5
1B
100
AcDbSymbolTableRecord
100
AcDbBlockTableRecord
2
*PAPER_SPACE
0
ENDTAB
0
ENDSEC
0
SECTION
2
BLOCKS
0
BLOCK
5
20
100
AcDbEntity
100
AcDbBlockBegin
2
*MODEL_SPACE
0
ENDBLK
5
21
100
AcDbEntity
100
AcDbBlockEnd
0
BLOCK
5
1C
100
AcDbEntity
100
AcDbBlockBegin
2
*PAPER_SPACE
0
ENDBLK
5
1D
100
AcDbEntity
100
AcDbBlockEnd
0
ENDSEC
0
SECTION
2
ENTITIES
0
LWPOLYLINE
5
100
100
AcDbEntity
8
0
100
AcDbPolyline
90
16
70
1
43
0.0
10
-15.947434960864111
20
32.807304875309164
10
-15.954694884412451
20
22.063193778060473
42
-0.21342176528333667
10
-16.038154110167998
20
21.876911131786215
42
1.0572796962680415
10
-15.861770583100707
20
21.700289074650652
42
-0.21342176528337709
10
-15.675375318204861
20
21.783496477512845
10
-11.399437179219266
20
21.780607175298183
10
-11.400890377050242
20
19.629989632445994
10
-12.504533929331906
20
19.630735377509733
42
0.461006314427158
10
-12.628092620762454
20
19.48626452645507
10
-12.126508689330823
20
16.305479182287538
10
-12.502767445823634
20
14.680733053824223
10
-14.459682064914647
20
14.682055364287775
42
0.41421356237308987
10
-14.960019806632825
20
14.182393334299153
10
-14.967331525025051
20
3.3616299763074902
10
-20.529844511582279
20
3.3653886324359621
10
-20.509948175714758
20
32.810387819708104
0
CIRCLE
5
101
100
AcDbEntity
8
0
100
AcDbCircle
10
-16.701900239919432
20
26.199299388257252
30
3.8821894941978922e-30
40
0.062500000000001929
210
-0
220
0
230
1
0
CIRCLE
5
102
100
AcDbEntity
8
0
100
AcDbCircle
10
-16.700587058019263
20
28.142704456402022
30
3.5716143346620613e-30
40
0.062500000000001929
210
-0
220
0
230
1
0
CIRCLE
5
103
100
AcDbEntity
8
0
100
AcDbCircle
10
-14.00176165317977
20
15.931746227390262
30
0
40
0.25000000000000555
210
-0
220
0
230
1
0
CIRCLE
5
104
100
AcDbEntity
8
0
100
AcDbCircle
10
-11.899690456971161
20
21.405945116772862
30
-1.5528757976791567e-31
40
0.25000000000000555
210
-0
220
0
230
1
0
CIRCLE
5
105
100
AcDbEntity
8
0
100
AcDbCircle
10
-19.779337899005803
20
4.1148816774186585
30
-1.5528757976791567e-31
40
0.062500000000001957
210
-0
220
0
230
1
0
CIRCLE
5
106
100
AcDbEntity
8
0
100
AcDbCircle
10
-15.477525328995586
20
19.098147054171793
30
0
40
0.25000000000000555
210
-0
220
0
230
1
0
CIRCLE
5
107
100
AcDbEntity
8
0
100
AcDbCircle
10
-11.900636871005123
20
20.005327402700797
30
7.7643789883957837e-32
40
0.25000000000000555
210
-0
220
0
230
1
0
CIRCLE
5
108
100
AcDbEntity
8
0
100
AcDbCircle
10
-19.217835505283269
20
22.803273461468361
30
0
40
0.25000000000000555
210
-0
220
0
230
1
0
CIRCLE
5
109
100
AcDbEntity
8
0
100
AcDbCircle
10
-14.00235290094308
20
15.056746427146777
30
-7.7643789883957837e-32
40
0.25000000000000555
210
-0
220
0
230
1
0
CIRCLE
5
110
100
AcDbEntity
8
0
100
AcDbCircle
10
-13.023379480265868
20
16.6406823718374
30
-3.8821894941978924e-31
40
0.25000000000000555
210
-0
220
0
230
1
0
CIRCLE
5
111
100
AcDbEntity
8
0
100
AcDbCircle
10
-12.598201585697721
20
15.930797825173135
30
0
40
0.25000000000000555
210
-0
220
0
230
1
0
CIRCLE
5
112
100
AcDbEntity
8
0
100
AcDbCircle
10
-14.250452404631563
20
17.869414713004357
30
-1.5528757976791567e-31
40
0.062500000000001957
210
-0
220
0
230
1
0
CIRCLE
5
113
100
AcDbEntity
8
0
100
AcDbCircle
10
-19.212767667312821
20
30.303271749269328
30
-1.5528757976791567e-31
40
0.25000000000000344
210
-0
220
0
230
1
0
CIRCLE
5
114
100
AcDbEntity
8
0
100
AcDbCircle
10
-15.716824570008638
20
4.1121365888844466
30
7.7643789883957837e-32
40
0.062500000000001957
210
-0
220
0
230
1
0
CIRCLE
5
115
100
AcDbEntity
8
0
100
AcDbCircle
10
-16.699273876119346
20
30.086109524546519
30
2.329313696518735e-30
40
0.062500000000001929
210
-0
220
0
230
1
0
CIRCLE
5
116
100
AcDbEntity
8
0
100
AcDbCircle
10
-19.520041334481601
20
17.872975436866529
30
0
40
0.062500000000001957
210
-0
220
0
230
1
0
CIRCLE
5
117
100
AcDbEntity
8
0
100
AcDbCircle
10
-16.697941573442627
20
32.057811830325889
30
0
40
0.062499999999999757
210
-0
220
0
230
1
0
CIRCLE
5
118
100
AcDbEntity
8
0
100
AcDbCircle
10
-19.760455130732989
20
32.059881207130594
30
0
40
0.062499999999999757
210
-0
220
0
230
1
0
CIRCLE
5
119
100
AcDbEntity
8
0
100
AcDbCircle
10
-15.479184745797619
20
16.642341788639417
30
0
40
0.25000000000000555
210
-0
220
0
230
1
0
CIRCLE
5
120
100
AcDbEntity
8
0
100
AcDbCircle
10
-16.703213421819722
20
24.255894320112468
30
0
40
0.062500000000001929
210
-0
220
0
230
1
0
CIRCLE
5
121
100
AcDbEntity
8
0
100
AcDbCircle
10
-13.021720063463498
20
19.096487637369638
30
0
40
0.25000000000000555
210
-0
220
0
230
1
0
CIRCLE
5
122
100
AcDbEntity
8
0
100
AcDbCircle
10
-13.02563661417531
20
20.006087578396411
30
-3.1057515953583131e-31
40
0.25000000000000555
210
-0
220
0
230
1
0
CIRCLE
5
123
100
AcDbEntity
8
0
100
AcDbCircle
10
-12.800802454578303
20
15.055934525231226
30
-7.7643789883957837e-32
40
0.25000000000000555
210
-0
220
0
230
1
0
CIRCLE
5
124
100
AcDbEntity
8
0
100
AcDbCircle
10
-13.024690200141352
20
21.40670529246858
30
0
40
0.25000000000000555
210
-0
220
0
230
1
0
ENDSEC
0
SECTION
2
OBJECTS
0
DICTIONARY
5
C
100
AcDbDictionary
3
ACAD_GROUP
350
D
3
ACAD_MLINESTYLE
350
17
0
DICTIONARY
5
D
100
AcDbDictionary
0
DICTIONARY
5
1A
330
C
100
AcDbDictionary
0
DICTIONARY
5
17
100
AcDbDictionary
0
ENDSEC
0
EOF
