0
SECTION
2
HEADER
9
$INSUNITS
70
1
9
$ACADVER
1
AC1014
9
$HANDSEED
5
FFFF
0
ENDSEC
0
SECTION
2
TABLES
0
TABLE
2
VPORT
5
8
100
AcDbSymbolTable
0
ENDTAB
0
TABLE
2
LTYPE
5
5
100
AcDbSymbolTable
0
LTYPE
5
14
100
AcDbSymbolTableRecord
100
AcDbLinetypeTableRecord
2
BYBLOCK
70
0
0
LTYPE
5
15
100
AcDbSymbolTableRecord
100
AcDbLinetypeTableRecord
2
BYLAYER
70
0
0
ENDTAB
0
TABLE
2
LAYER
5
2
100
AcDbSymbolTable
70
2
0
LAYER
5
50
100
AcDbSymbolTableRecord
100
AcDbLayerTableRecord
2
0
70
0
6
CONTINUOUS
0
ENDTAB
0
TABLE
2
STYLE
5
3
100
AcDbSymbolTable
70
1
0
STYLE
5
11
100
AcDbSymbolTableRecord
100
AcDbTextStyleTableRecord
2
STANDARD
70
0
0
ENDTAB
0
TABLE
2
VIEW
5
6
100
AcDbSymbolTable
70
0
0
ENDTAB
0
TABLE
2
UCS
5
7
100
AcDbSymbolTable
70
0
0
ENDTAB
0
TABLE
2
APPID
5
9
100
AcDbSymbolTable
70
2
0
APPID
5
12
100
AcDbSymbolTableRecord
100
AcDbRegAppTableRecord
2
ACAD
70
0
0
ENDTAB
0
TABLE
2
DIMSTYLE
5
A
100
AcDbSymbolTable
70
1
0
ENDTAB
0
TABLE
2
BLOCK_RECORD
5
1
100
AcDbSymbolTable
70
1
0
BLOCK_RECORD
5
1F
100
AcDbSymbolTableRecord
100
AcDbBlockTableRecord
2
*MODEL_SPACE
0
BLOCK_RECORD
5
1B
100
AcDbSymbolTableRecord
100
AcDbBlockTableRecord
2
*PAPER_SPACE
0
ENDTAB
0
ENDSEC
0
SECTION
2
BLOCKS
0
BLOCK
5
20
100
AcDbEntity
100
AcDbBlockBegin
2
*MODEL_SPACE
0
ENDBLK
5
21
100
AcDbEntity
100
AcDbBlockEnd
0
BLOCK
5
1C
100
AcDbEntity
100
AcDbBlockBegin
2
*PAPER_SPACE
0
ENDBLK
5
1D
100
AcDbEntity
100
AcDbBlockEnd
0
ENDSEC
0
SECTION
2
ENTITIES
0
LWPOLYLINE
5
100
100
AcDbEntity
8
0
100
AcDbPolyline
90
16
70
1
43
0.0
10
14.910630237660859
20
13.357565738346791
42
-0.41421356237308626
10
15.410967979378974
20
12.857903708358165
10
15.418279697771082
20
2.0371403503667622
10
20.980792684328293
20
2.0408990064952235
10
20.960896348460892
20
31.485898193767053
10
16.398383133610331
20
31.48281524936808
10
16.405643057158574
20
20.738704152119407
42
0.21342176528342316
10
16.489102282914221
20
20.552421505845142
42
-1.0572796962672666
10
16.312718755846888
20
20.375799448709589
42
0.21342176528336732
10
16.126323490951041
20
20.459006851571797
10
11.850385351965436
20
20.45611754935716
10
11.851838549796497
20
18.305500006505085
10
12.955482102078051
20
18.306245751568728
42
-0.46100631442753237
10
13.07904079350868
20
18.161774900514029
10
12.57745686207711
20
14.980989556346627
10
12.953715618569866
20
13.356243427883268
0
CIRCLE
5
101
100
AcDbEntity
8
0
100
AcDbCircle
10
14.452709825926004
20
14.607256601449302
30
0
40
0.12499999999999975
210
0
220
-0
230
1
0
CIRCLE
5
102
100
AcDbEntity
8
0
100
AcDbCircle
10
13.049149758443846
20
14.606308199232227
30
0
40
0.12499999999999975
210
0
220
-0
230
1
0
CIRCLE
5
103
100
AcDbEntity
8
0
100
AcDbCircle
10
15.930132918543716
20
15.317852162698449
30
0
40
0.12499999999999975
210
0
220
-0
230
1
0
CIRCLE
5
104
100
AcDbEntity
8
0
100
AcDbCircle
10
13.251750627324604
20
13.73144489929034
30
0
40
0.12499999999999975
210
0
220
-0
230
1
0
CIRCLE
5
105
100
AcDbEntity
8
0
100
AcDbCircle
10
14.453301073689296
20
13.732256801205818
30
0
40
0.12499999999999975
210
0
220
-0
230
1
0
CIRCLE
5
106
100
AcDbEntity
8
0
100
AcDbCircle
10
13.47432765301197
20
15.316192745896361
30
0
40
0.12499999999999975
210
0
220
-0
230
1
0
CIRCLE
5
107
100
AcDbEntity
8
0
100
AcDbCircle
10
15.928473501741831
20
17.773657428230763
30
0
40
0.12499999999999975
210
0
220
-0
230
1
0
CIRCLE
5
108
100
AcDbEntity
8
0
100
AcDbCircle
10
13.472668236209756
20
17.7719980114287
30
0
40
0.12499999999999975
210
0
220
-0
230
1
0
CIRCLE
5
109
100
AcDbEntity
8
0
100
AcDbCircle
10
19.970989507227749
20
16.548485810925516
30
0
40
0.062500000000000958
210
0
220
-0
230
1
0
CIRCLE
5
110
100
AcDbEntity
8
0
100
AcDbCircle
10
17.14888974618875
20
30.733322204384866
30
0
40
0.062499999999998786
210
0
220
-0
230
1
0
CIRCLE
5
111
100
AcDbEntity
8
0
100
AcDbCircle
10
13.476584786921578
20
18.681597952455441
30
0
40
0.12499999999999975
210
0
220
-0
230
1
0
CIRCLE
5
112
100
AcDbEntity
8
0
100
AcDbCircle
10
19.283536625398245
20
16.478522378049366
30
0
40
0.12499999999999975
210
0
220
-0
230
1
0
CIRCLE
5
113
100
AcDbEntity
8
0
100
AcDbCircle
10
17.150222048865395
20
28.761619898605701
30
0
40
0.062500000000000958
210
0
220
-0
230
1
0
CIRCLE
5
114
100
AcDbEntity
8
0
100
AcDbCircle
10
17.151535230765372
20
26.818214830460875
30
0
40
0.062500000000000958
210
0
220
-0
230
1
0
CIRCLE
5
115
100
AcDbEntity
8
0
100
AcDbCircle
10
14.701400577377715
20
16.544925087063337
30
0
40
0.062500000000000958
210
0
220
-0
230
1
0
CIRCLE
5
116
100
AcDbEntity
8
0
100
AcDbCircle
10
12.351585043751454
20
18.680837776759713
30
0
40
0.12499999999999975
210
0
220
-0
230
1
0
CIRCLE
5
117
100
AcDbEntity
8
0
100
AcDbCircle
10
20.211403303479099
20
30.735391581189546
30
0
40
0.062499999999998786
210
0
220
-0
230
1
0
CIRCLE
5
118
100
AcDbEntity
8
0
100
AcDbCircle
10
13.47563837288763
20
20.0822156665275
30
0
40
0.12499999999999975
210
0
220
-0
230
1
0
CIRCLE
5
119
100
AcDbEntity
8
0
100
AcDbCircle
10
17.152848412665573
20
24.874809762316179
30
0
40
0.062500000000000958
210
0
220
-0
230
1
0
CIRCLE
5
120
100
AcDbEntity
8
0
100
AcDbCircle
10
16.16777274275481
20
2.7876469629437439
30
0
40
0.062500000000000958
210
0
220
-0
230
1
0
CIRCLE
5
121
100
AcDbEntity
8
0
100
AcDbCircle
10
17.154161594565803
20
22.931404694171452
30
0
40
0.062500000000000958
210
0
220
-0
230
1
0
CIRCLE
5
122
100
AcDbEntity
8
0
100
AcDbCircle
10
19.278468787427666
20
23.978520665850134
30
0
40
0.12500000000000194
210
0
220
-0
230
1
0
CIRCLE
5
123
100
AcDbEntity
8
0
100
AcDbCircle
10
20.230286071751795
20
2.7903920514778879
30
0
40
0.062500000000000958
210
0
220
-0
230
1
0
CIRCLE
5
124
100
AcDbEntity
8
0
100
AcDbCircle
10
12.350638629717452
20
20.08145549083191
30
0
40
0.12499999999999975
210
0
220
-0
230
1
0
ENDSEC
0
SECTION
2
OBJECTS
0
DICTIONARY
5
C
100
AcDbDictionary
3
ACAD_GROUP
350
D
3
ACAD_MLINESTYLE
350
17
0
DICTIONARY
5
D
100
AcDbDictionary
0
DICTIONARY
5
1A
330
C
100
AcDbDictionary
0
DICTIONARY
5
17
100
AcDbDictionary
0
ENDSEC
0
EOF
