G04 #@! TF.GenerationSoftware,KiCad,Pcbnew,9.0.4*
G04 #@! TF.CreationDate,2025-10-08T07:57:26+02:00*
G04 #@! TF.ProjectId,ABSIS_ALE,41425349-535f-4414-9c45-2e6b69636164,3*
G04 #@! TF.SameCoordinates,Original*
G04 #@! TF.FileFunction,AssemblyDrawing,Top*
%FSLAX46Y46*%
G04 Gerber Fmt 4.6, Leading zero omitted, Abs format (unit mm)*
G04 Created by KiCad (PCBNEW 9.0.4) date 2025-10-08 07:57:26*
%MOMM*%
%LPD*%
G01*
G04 APERTURE LIST*
%ADD10C,0.150000*%
%ADD11C,0.080000*%
%ADD12C,0.060000*%
%ADD13C,0.100000*%
G04 APERTURE END LIST*
D10*
X137113719Y-96268056D02*
X137113719Y-96172818D01*
X137113719Y-96172818D02*
X137161338Y-96077580D01*
X137161338Y-96077580D02*
X137208957Y-96029961D01*
X137208957Y-96029961D02*
X137304195Y-95982342D01*
X137304195Y-95982342D02*
X137494671Y-95934723D01*
X137494671Y-95934723D02*
X137732766Y-95934723D01*
X137732766Y-95934723D02*
X137923242Y-95982342D01*
X137923242Y-95982342D02*
X138018480Y-96029961D01*
X138018480Y-96029961D02*
X138066100Y-96077580D01*
X138066100Y-96077580D02*
X138113719Y-96172818D01*
X138113719Y-96172818D02*
X138113719Y-96268056D01*
X138113719Y-96268056D02*
X138066100Y-96363294D01*
X138066100Y-96363294D02*
X138018480Y-96410913D01*
X138018480Y-96410913D02*
X137923242Y-96458532D01*
X137923242Y-96458532D02*
X137732766Y-96506151D01*
X137732766Y-96506151D02*
X137494671Y-96506151D01*
X137494671Y-96506151D02*
X137304195Y-96458532D01*
X137304195Y-96458532D02*
X137208957Y-96410913D01*
X137208957Y-96410913D02*
X137161338Y-96363294D01*
X137161338Y-96363294D02*
X137113719Y-96268056D01*
X138018480Y-95506151D02*
X138066100Y-95458532D01*
X138066100Y-95458532D02*
X138113719Y-95506151D01*
X138113719Y-95506151D02*
X138066100Y-95553770D01*
X138066100Y-95553770D02*
X138018480Y-95506151D01*
X138018480Y-95506151D02*
X138113719Y-95506151D01*
X138113719Y-94506152D02*
X138113719Y-95077580D01*
X138113719Y-94791866D02*
X137113719Y-94791866D01*
X137113719Y-94791866D02*
X137256576Y-94887104D01*
X137256576Y-94887104D02*
X137351814Y-94982342D01*
X137351814Y-94982342D02*
X137399433Y-95077580D01*
X137447052Y-93649009D02*
X138113719Y-93649009D01*
X137447052Y-94077580D02*
X137970861Y-94077580D01*
X137970861Y-94077580D02*
X138066100Y-94029961D01*
X138066100Y-94029961D02*
X138113719Y-93934723D01*
X138113719Y-93934723D02*
X138113719Y-93791866D01*
X138113719Y-93791866D02*
X138066100Y-93696628D01*
X138066100Y-93696628D02*
X138018480Y-93649009D01*
X137589909Y-92839485D02*
X137589909Y-93172818D01*
X138113719Y-93172818D02*
X137113719Y-93172818D01*
X137113719Y-93172818D02*
X137113719Y-92696628D01*
D11*
X136158430Y-94708533D02*
X136182240Y-94732342D01*
X136182240Y-94732342D02*
X136206049Y-94803771D01*
X136206049Y-94803771D02*
X136206049Y-94851390D01*
X136206049Y-94851390D02*
X136182240Y-94922818D01*
X136182240Y-94922818D02*
X136134620Y-94970437D01*
X136134620Y-94970437D02*
X136087001Y-94994247D01*
X136087001Y-94994247D02*
X135991763Y-95018056D01*
X135991763Y-95018056D02*
X135920335Y-95018056D01*
X135920335Y-95018056D02*
X135825097Y-94994247D01*
X135825097Y-94994247D02*
X135777478Y-94970437D01*
X135777478Y-94970437D02*
X135729859Y-94922818D01*
X135729859Y-94922818D02*
X135706049Y-94851390D01*
X135706049Y-94851390D02*
X135706049Y-94803771D01*
X135706049Y-94803771D02*
X135729859Y-94732342D01*
X135729859Y-94732342D02*
X135753668Y-94708533D01*
X136206049Y-94232342D02*
X136206049Y-94518056D01*
X136206049Y-94375199D02*
X135706049Y-94375199D01*
X135706049Y-94375199D02*
X135777478Y-94422818D01*
X135777478Y-94422818D02*
X135825097Y-94470437D01*
X135825097Y-94470437D02*
X135848906Y-94518056D01*
D10*
X127833809Y-86864819D02*
X127833809Y-85864819D01*
X127833809Y-85864819D02*
X128167142Y-86579104D01*
X128167142Y-86579104D02*
X128500475Y-85864819D01*
X128500475Y-85864819D02*
X128500475Y-86864819D01*
X128929047Y-86579104D02*
X129405237Y-86579104D01*
X128833809Y-86864819D02*
X129167142Y-85864819D01*
X129167142Y-85864819D02*
X129500475Y-86864819D01*
X129738571Y-85864819D02*
X130405237Y-86864819D01*
X130405237Y-85864819D02*
X129738571Y-86864819D01*
X131214761Y-86198152D02*
X131214761Y-86864819D01*
X130976666Y-85817200D02*
X130738571Y-86531485D01*
X130738571Y-86531485D02*
X131357618Y-86531485D01*
X131881428Y-86293390D02*
X131786190Y-86245771D01*
X131786190Y-86245771D02*
X131738571Y-86198152D01*
X131738571Y-86198152D02*
X131690952Y-86102914D01*
X131690952Y-86102914D02*
X131690952Y-86055295D01*
X131690952Y-86055295D02*
X131738571Y-85960057D01*
X131738571Y-85960057D02*
X131786190Y-85912438D01*
X131786190Y-85912438D02*
X131881428Y-85864819D01*
X131881428Y-85864819D02*
X132071904Y-85864819D01*
X132071904Y-85864819D02*
X132167142Y-85912438D01*
X132167142Y-85912438D02*
X132214761Y-85960057D01*
X132214761Y-85960057D02*
X132262380Y-86055295D01*
X132262380Y-86055295D02*
X132262380Y-86102914D01*
X132262380Y-86102914D02*
X132214761Y-86198152D01*
X132214761Y-86198152D02*
X132167142Y-86245771D01*
X132167142Y-86245771D02*
X132071904Y-86293390D01*
X132071904Y-86293390D02*
X131881428Y-86293390D01*
X131881428Y-86293390D02*
X131786190Y-86341009D01*
X131786190Y-86341009D02*
X131738571Y-86388628D01*
X131738571Y-86388628D02*
X131690952Y-86483866D01*
X131690952Y-86483866D02*
X131690952Y-86674342D01*
X131690952Y-86674342D02*
X131738571Y-86769580D01*
X131738571Y-86769580D02*
X131786190Y-86817200D01*
X131786190Y-86817200D02*
X131881428Y-86864819D01*
X131881428Y-86864819D02*
X132071904Y-86864819D01*
X132071904Y-86864819D02*
X132167142Y-86817200D01*
X132167142Y-86817200D02*
X132214761Y-86769580D01*
X132214761Y-86769580D02*
X132262380Y-86674342D01*
X132262380Y-86674342D02*
X132262380Y-86483866D01*
X132262380Y-86483866D02*
X132214761Y-86388628D01*
X132214761Y-86388628D02*
X132167142Y-86341009D01*
X132167142Y-86341009D02*
X132071904Y-86293390D01*
X132595714Y-85864819D02*
X133262380Y-85864819D01*
X133262380Y-85864819D02*
X132833809Y-86864819D01*
X133643333Y-86341009D02*
X133976666Y-86341009D01*
X134119523Y-86864819D02*
X133643333Y-86864819D01*
X133643333Y-86864819D02*
X133643333Y-85864819D01*
X133643333Y-85864819D02*
X134119523Y-85864819D01*
X134548095Y-86341009D02*
X134881428Y-86341009D01*
X135024285Y-86864819D02*
X134548095Y-86864819D01*
X134548095Y-86864819D02*
X134548095Y-85864819D01*
X134548095Y-85864819D02*
X135024285Y-85864819D01*
X135405238Y-86817200D02*
X135548095Y-86864819D01*
X135548095Y-86864819D02*
X135786190Y-86864819D01*
X135786190Y-86864819D02*
X135881428Y-86817200D01*
X135881428Y-86817200D02*
X135929047Y-86769580D01*
X135929047Y-86769580D02*
X135976666Y-86674342D01*
X135976666Y-86674342D02*
X135976666Y-86579104D01*
X135976666Y-86579104D02*
X135929047Y-86483866D01*
X135929047Y-86483866D02*
X135881428Y-86436247D01*
X135881428Y-86436247D02*
X135786190Y-86388628D01*
X135786190Y-86388628D02*
X135595714Y-86341009D01*
X135595714Y-86341009D02*
X135500476Y-86293390D01*
X135500476Y-86293390D02*
X135452857Y-86245771D01*
X135452857Y-86245771D02*
X135405238Y-86150533D01*
X135405238Y-86150533D02*
X135405238Y-86055295D01*
X135405238Y-86055295D02*
X135452857Y-85960057D01*
X135452857Y-85960057D02*
X135500476Y-85912438D01*
X135500476Y-85912438D02*
X135595714Y-85864819D01*
X135595714Y-85864819D02*
X135833809Y-85864819D01*
X135833809Y-85864819D02*
X135976666Y-85912438D01*
X136357619Y-86579104D02*
X136833809Y-86579104D01*
X136262381Y-86864819D02*
X136595714Y-85864819D01*
X136595714Y-85864819D02*
X136929047Y-86864819D01*
X137262381Y-86483866D02*
X138024286Y-86483866D01*
X137643333Y-86864819D02*
X137643333Y-86102914D01*
X138357619Y-85864819D02*
X138929047Y-85864819D01*
X138643333Y-86864819D02*
X138643333Y-85864819D01*
X132563333Y-89275566D02*
X132563333Y-90068900D01*
X132563333Y-90068900D02*
X132610000Y-90162233D01*
X132610000Y-90162233D02*
X132656666Y-90208900D01*
X132656666Y-90208900D02*
X132750000Y-90255566D01*
X132750000Y-90255566D02*
X132936666Y-90255566D01*
X132936666Y-90255566D02*
X133030000Y-90208900D01*
X133030000Y-90208900D02*
X133076666Y-90162233D01*
X133076666Y-90162233D02*
X133123333Y-90068900D01*
X133123333Y-90068900D02*
X133123333Y-89275566D01*
X134103333Y-90255566D02*
X133543333Y-90255566D01*
X133823333Y-90255566D02*
X133823333Y-89275566D01*
X133823333Y-89275566D02*
X133730000Y-89415566D01*
X133730000Y-89415566D02*
X133636667Y-89508900D01*
X133636667Y-89508900D02*
X133543333Y-89555566D01*
X140453314Y-102048019D02*
X140453314Y-101048019D01*
X140453314Y-101048019D02*
X140834266Y-101048019D01*
X140834266Y-101048019D02*
X140929504Y-101095638D01*
X140929504Y-101095638D02*
X140977123Y-101143257D01*
X140977123Y-101143257D02*
X141024742Y-101238495D01*
X141024742Y-101238495D02*
X141024742Y-101381352D01*
X141024742Y-101381352D02*
X140977123Y-101476590D01*
X140977123Y-101476590D02*
X140929504Y-101524209D01*
X140929504Y-101524209D02*
X140834266Y-101571828D01*
X140834266Y-101571828D02*
X140453314Y-101571828D01*
X141453314Y-102048019D02*
X141453314Y-101381352D01*
X141453314Y-101571828D02*
X141500933Y-101476590D01*
X141500933Y-101476590D02*
X141548552Y-101428971D01*
X141548552Y-101428971D02*
X141643790Y-101381352D01*
X141643790Y-101381352D02*
X141739028Y-101381352D01*
X142215219Y-102048019D02*
X142119981Y-102000400D01*
X142119981Y-102000400D02*
X142072362Y-101952780D01*
X142072362Y-101952780D02*
X142024743Y-101857542D01*
X142024743Y-101857542D02*
X142024743Y-101571828D01*
X142024743Y-101571828D02*
X142072362Y-101476590D01*
X142072362Y-101476590D02*
X142119981Y-101428971D01*
X142119981Y-101428971D02*
X142215219Y-101381352D01*
X142215219Y-101381352D02*
X142358076Y-101381352D01*
X142358076Y-101381352D02*
X142453314Y-101428971D01*
X142453314Y-101428971D02*
X142500933Y-101476590D01*
X142500933Y-101476590D02*
X142548552Y-101571828D01*
X142548552Y-101571828D02*
X142548552Y-101857542D01*
X142548552Y-101857542D02*
X142500933Y-101952780D01*
X142500933Y-101952780D02*
X142453314Y-102000400D01*
X142453314Y-102000400D02*
X142358076Y-102048019D01*
X142358076Y-102048019D02*
X142215219Y-102048019D01*
X142977124Y-102048019D02*
X142977124Y-101048019D01*
X142977124Y-101048019D02*
X143310457Y-101762304D01*
X143310457Y-101762304D02*
X143643790Y-101048019D01*
X143643790Y-101048019D02*
X143643790Y-102048019D01*
X144119981Y-102048019D02*
X144119981Y-101381352D01*
X144119981Y-101048019D02*
X144072362Y-101095638D01*
X144072362Y-101095638D02*
X144119981Y-101143257D01*
X144119981Y-101143257D02*
X144167600Y-101095638D01*
X144167600Y-101095638D02*
X144119981Y-101048019D01*
X144119981Y-101048019D02*
X144119981Y-101143257D01*
X145024742Y-102000400D02*
X144929504Y-102048019D01*
X144929504Y-102048019D02*
X144739028Y-102048019D01*
X144739028Y-102048019D02*
X144643790Y-102000400D01*
X144643790Y-102000400D02*
X144596171Y-101952780D01*
X144596171Y-101952780D02*
X144548552Y-101857542D01*
X144548552Y-101857542D02*
X144548552Y-101571828D01*
X144548552Y-101571828D02*
X144596171Y-101476590D01*
X144596171Y-101476590D02*
X144643790Y-101428971D01*
X144643790Y-101428971D02*
X144739028Y-101381352D01*
X144739028Y-101381352D02*
X144929504Y-101381352D01*
X144929504Y-101381352D02*
X145024742Y-101428971D01*
X145453314Y-102048019D02*
X145453314Y-101381352D01*
X145453314Y-101571828D02*
X145500933Y-101476590D01*
X145500933Y-101476590D02*
X145548552Y-101428971D01*
X145548552Y-101428971D02*
X145643790Y-101381352D01*
X145643790Y-101381352D02*
X145739028Y-101381352D01*
X146215219Y-102048019D02*
X146119981Y-102000400D01*
X146119981Y-102000400D02*
X146072362Y-101952780D01*
X146072362Y-101952780D02*
X146024743Y-101857542D01*
X146024743Y-101857542D02*
X146024743Y-101571828D01*
X146024743Y-101571828D02*
X146072362Y-101476590D01*
X146072362Y-101476590D02*
X146119981Y-101428971D01*
X146119981Y-101428971D02*
X146215219Y-101381352D01*
X146215219Y-101381352D02*
X146358076Y-101381352D01*
X146358076Y-101381352D02*
X146453314Y-101428971D01*
X146453314Y-101428971D02*
X146500933Y-101476590D01*
X146500933Y-101476590D02*
X146548552Y-101571828D01*
X146548552Y-101571828D02*
X146548552Y-101857542D01*
X146548552Y-101857542D02*
X146500933Y-101952780D01*
X146500933Y-101952780D02*
X146453314Y-102000400D01*
X146453314Y-102000400D02*
X146358076Y-102048019D01*
X146358076Y-102048019D02*
X146215219Y-102048019D01*
X146739029Y-102143257D02*
X147500933Y-102143257D01*
X148215219Y-101048019D02*
X147739029Y-101048019D01*
X147739029Y-101048019D02*
X147691410Y-101524209D01*
X147691410Y-101524209D02*
X147739029Y-101476590D01*
X147739029Y-101476590D02*
X147834267Y-101428971D01*
X147834267Y-101428971D02*
X148072362Y-101428971D01*
X148072362Y-101428971D02*
X148167600Y-101476590D01*
X148167600Y-101476590D02*
X148215219Y-101524209D01*
X148215219Y-101524209D02*
X148262838Y-101619447D01*
X148262838Y-101619447D02*
X148262838Y-101857542D01*
X148262838Y-101857542D02*
X148215219Y-101952780D01*
X148215219Y-101952780D02*
X148167600Y-102000400D01*
X148167600Y-102000400D02*
X148072362Y-102048019D01*
X148072362Y-102048019D02*
X147834267Y-102048019D01*
X147834267Y-102048019D02*
X147739029Y-102000400D01*
X147739029Y-102000400D02*
X147691410Y-101952780D01*
X148548553Y-101048019D02*
X148881886Y-102048019D01*
X148881886Y-102048019D02*
X149215219Y-101048019D01*
X150262838Y-101000400D02*
X149405696Y-102286114D01*
X151119981Y-102048019D02*
X150548553Y-102048019D01*
X150834267Y-102048019D02*
X150834267Y-101048019D01*
X150834267Y-101048019D02*
X150739029Y-101190876D01*
X150739029Y-101190876D02*
X150643791Y-101286114D01*
X150643791Y-101286114D02*
X150548553Y-101333733D01*
X151977124Y-101048019D02*
X151786648Y-101048019D01*
X151786648Y-101048019D02*
X151691410Y-101095638D01*
X151691410Y-101095638D02*
X151643791Y-101143257D01*
X151643791Y-101143257D02*
X151548553Y-101286114D01*
X151548553Y-101286114D02*
X151500934Y-101476590D01*
X151500934Y-101476590D02*
X151500934Y-101857542D01*
X151500934Y-101857542D02*
X151548553Y-101952780D01*
X151548553Y-101952780D02*
X151596172Y-102000400D01*
X151596172Y-102000400D02*
X151691410Y-102048019D01*
X151691410Y-102048019D02*
X151881886Y-102048019D01*
X151881886Y-102048019D02*
X151977124Y-102000400D01*
X151977124Y-102000400D02*
X152024743Y-101952780D01*
X152024743Y-101952780D02*
X152072362Y-101857542D01*
X152072362Y-101857542D02*
X152072362Y-101619447D01*
X152072362Y-101619447D02*
X152024743Y-101524209D01*
X152024743Y-101524209D02*
X151977124Y-101476590D01*
X151977124Y-101476590D02*
X151881886Y-101428971D01*
X151881886Y-101428971D02*
X151691410Y-101428971D01*
X151691410Y-101428971D02*
X151596172Y-101476590D01*
X151596172Y-101476590D02*
X151548553Y-101524209D01*
X151548553Y-101524209D02*
X151500934Y-101619447D01*
X152500934Y-102048019D02*
X152500934Y-101048019D01*
X152500934Y-101524209D02*
X153072362Y-101524209D01*
X153072362Y-102048019D02*
X153072362Y-101048019D01*
X153453315Y-101381352D02*
X153977124Y-101381352D01*
X153977124Y-101381352D02*
X153453315Y-102048019D01*
X153453315Y-102048019D02*
X153977124Y-102048019D01*
X145834267Y-84748019D02*
X146500933Y-85748019D01*
X146500933Y-84748019D02*
X145834267Y-85748019D01*
X146881886Y-84748019D02*
X146881886Y-85557542D01*
X146881886Y-85557542D02*
X146929505Y-85652780D01*
X146929505Y-85652780D02*
X146977124Y-85700400D01*
X146977124Y-85700400D02*
X147072362Y-85748019D01*
X147072362Y-85748019D02*
X147262838Y-85748019D01*
X147262838Y-85748019D02*
X147358076Y-85700400D01*
X147358076Y-85700400D02*
X147405695Y-85652780D01*
X147405695Y-85652780D02*
X147453314Y-85557542D01*
X147453314Y-85557542D02*
X147453314Y-84748019D01*
X148453314Y-85748019D02*
X147881886Y-85748019D01*
X148167600Y-85748019D02*
X148167600Y-84748019D01*
X148167600Y-84748019D02*
X148072362Y-84890876D01*
X148072362Y-84890876D02*
X147977124Y-84986114D01*
X147977124Y-84986114D02*
X147881886Y-85033733D01*
X137380952Y-57954819D02*
X137952380Y-57954819D01*
X137666666Y-58954819D02*
X137666666Y-57954819D01*
X138285714Y-58954819D02*
X138285714Y-57954819D01*
X138285714Y-57954819D02*
X138666666Y-57954819D01*
X138666666Y-57954819D02*
X138761904Y-58002438D01*
X138761904Y-58002438D02*
X138809523Y-58050057D01*
X138809523Y-58050057D02*
X138857142Y-58145295D01*
X138857142Y-58145295D02*
X138857142Y-58288152D01*
X138857142Y-58288152D02*
X138809523Y-58383390D01*
X138809523Y-58383390D02*
X138761904Y-58431009D01*
X138761904Y-58431009D02*
X138666666Y-58478628D01*
X138666666Y-58478628D02*
X138285714Y-58478628D01*
X139238095Y-58907200D02*
X139380952Y-58954819D01*
X139380952Y-58954819D02*
X139619047Y-58954819D01*
X139619047Y-58954819D02*
X139714285Y-58907200D01*
X139714285Y-58907200D02*
X139761904Y-58859580D01*
X139761904Y-58859580D02*
X139809523Y-58764342D01*
X139809523Y-58764342D02*
X139809523Y-58669104D01*
X139809523Y-58669104D02*
X139761904Y-58573866D01*
X139761904Y-58573866D02*
X139714285Y-58526247D01*
X139714285Y-58526247D02*
X139619047Y-58478628D01*
X139619047Y-58478628D02*
X139428571Y-58431009D01*
X139428571Y-58431009D02*
X139333333Y-58383390D01*
X139333333Y-58383390D02*
X139285714Y-58335771D01*
X139285714Y-58335771D02*
X139238095Y-58240533D01*
X139238095Y-58240533D02*
X139238095Y-58145295D01*
X139238095Y-58145295D02*
X139285714Y-58050057D01*
X139285714Y-58050057D02*
X139333333Y-58002438D01*
X139333333Y-58002438D02*
X139428571Y-57954819D01*
X139428571Y-57954819D02*
X139666666Y-57954819D01*
X139666666Y-57954819D02*
X139809523Y-58002438D01*
X140714285Y-57954819D02*
X140238095Y-57954819D01*
X140238095Y-57954819D02*
X140190476Y-58431009D01*
X140190476Y-58431009D02*
X140238095Y-58383390D01*
X140238095Y-58383390D02*
X140333333Y-58335771D01*
X140333333Y-58335771D02*
X140571428Y-58335771D01*
X140571428Y-58335771D02*
X140666666Y-58383390D01*
X140666666Y-58383390D02*
X140714285Y-58431009D01*
X140714285Y-58431009D02*
X140761904Y-58526247D01*
X140761904Y-58526247D02*
X140761904Y-58764342D01*
X140761904Y-58764342D02*
X140714285Y-58859580D01*
X140714285Y-58859580D02*
X140666666Y-58907200D01*
X140666666Y-58907200D02*
X140571428Y-58954819D01*
X140571428Y-58954819D02*
X140333333Y-58954819D01*
X140333333Y-58954819D02*
X140238095Y-58907200D01*
X140238095Y-58907200D02*
X140190476Y-58859580D01*
X141619047Y-57954819D02*
X141428571Y-57954819D01*
X141428571Y-57954819D02*
X141333333Y-58002438D01*
X141333333Y-58002438D02*
X141285714Y-58050057D01*
X141285714Y-58050057D02*
X141190476Y-58192914D01*
X141190476Y-58192914D02*
X141142857Y-58383390D01*
X141142857Y-58383390D02*
X141142857Y-58764342D01*
X141142857Y-58764342D02*
X141190476Y-58859580D01*
X141190476Y-58859580D02*
X141238095Y-58907200D01*
X141238095Y-58907200D02*
X141333333Y-58954819D01*
X141333333Y-58954819D02*
X141523809Y-58954819D01*
X141523809Y-58954819D02*
X141619047Y-58907200D01*
X141619047Y-58907200D02*
X141666666Y-58859580D01*
X141666666Y-58859580D02*
X141714285Y-58764342D01*
X141714285Y-58764342D02*
X141714285Y-58526247D01*
X141714285Y-58526247D02*
X141666666Y-58431009D01*
X141666666Y-58431009D02*
X141619047Y-58383390D01*
X141619047Y-58383390D02*
X141523809Y-58335771D01*
X141523809Y-58335771D02*
X141333333Y-58335771D01*
X141333333Y-58335771D02*
X141238095Y-58383390D01*
X141238095Y-58383390D02*
X141190476Y-58431009D01*
X141190476Y-58431009D02*
X141142857Y-58526247D01*
X142333333Y-57954819D02*
X142428571Y-57954819D01*
X142428571Y-57954819D02*
X142523809Y-58002438D01*
X142523809Y-58002438D02*
X142571428Y-58050057D01*
X142571428Y-58050057D02*
X142619047Y-58145295D01*
X142619047Y-58145295D02*
X142666666Y-58335771D01*
X142666666Y-58335771D02*
X142666666Y-58573866D01*
X142666666Y-58573866D02*
X142619047Y-58764342D01*
X142619047Y-58764342D02*
X142571428Y-58859580D01*
X142571428Y-58859580D02*
X142523809Y-58907200D01*
X142523809Y-58907200D02*
X142428571Y-58954819D01*
X142428571Y-58954819D02*
X142333333Y-58954819D01*
X142333333Y-58954819D02*
X142238095Y-58907200D01*
X142238095Y-58907200D02*
X142190476Y-58859580D01*
X142190476Y-58859580D02*
X142142857Y-58764342D01*
X142142857Y-58764342D02*
X142095238Y-58573866D01*
X142095238Y-58573866D02*
X142095238Y-58335771D01*
X142095238Y-58335771D02*
X142142857Y-58145295D01*
X142142857Y-58145295D02*
X142190476Y-58050057D01*
X142190476Y-58050057D02*
X142238095Y-58002438D01*
X142238095Y-58002438D02*
X142333333Y-57954819D01*
X143047619Y-58050057D02*
X143095238Y-58002438D01*
X143095238Y-58002438D02*
X143190476Y-57954819D01*
X143190476Y-57954819D02*
X143428571Y-57954819D01*
X143428571Y-57954819D02*
X143523809Y-58002438D01*
X143523809Y-58002438D02*
X143571428Y-58050057D01*
X143571428Y-58050057D02*
X143619047Y-58145295D01*
X143619047Y-58145295D02*
X143619047Y-58240533D01*
X143619047Y-58240533D02*
X143571428Y-58383390D01*
X143571428Y-58383390D02*
X143000000Y-58954819D01*
X143000000Y-58954819D02*
X143619047Y-58954819D01*
X144238095Y-57954819D02*
X144333333Y-57954819D01*
X144333333Y-57954819D02*
X144428571Y-58002438D01*
X144428571Y-58002438D02*
X144476190Y-58050057D01*
X144476190Y-58050057D02*
X144523809Y-58145295D01*
X144523809Y-58145295D02*
X144571428Y-58335771D01*
X144571428Y-58335771D02*
X144571428Y-58573866D01*
X144571428Y-58573866D02*
X144523809Y-58764342D01*
X144523809Y-58764342D02*
X144476190Y-58859580D01*
X144476190Y-58859580D02*
X144428571Y-58907200D01*
X144428571Y-58907200D02*
X144333333Y-58954819D01*
X144333333Y-58954819D02*
X144238095Y-58954819D01*
X144238095Y-58954819D02*
X144142857Y-58907200D01*
X144142857Y-58907200D02*
X144095238Y-58859580D01*
X144095238Y-58859580D02*
X144047619Y-58764342D01*
X144047619Y-58764342D02*
X144000000Y-58573866D01*
X144000000Y-58573866D02*
X144000000Y-58335771D01*
X144000000Y-58335771D02*
X144047619Y-58145295D01*
X144047619Y-58145295D02*
X144095238Y-58050057D01*
X144095238Y-58050057D02*
X144142857Y-58002438D01*
X144142857Y-58002438D02*
X144238095Y-57954819D01*
X145190476Y-57954819D02*
X145285714Y-57954819D01*
X145285714Y-57954819D02*
X145380952Y-58002438D01*
X145380952Y-58002438D02*
X145428571Y-58050057D01*
X145428571Y-58050057D02*
X145476190Y-58145295D01*
X145476190Y-58145295D02*
X145523809Y-58335771D01*
X145523809Y-58335771D02*
X145523809Y-58573866D01*
X145523809Y-58573866D02*
X145476190Y-58764342D01*
X145476190Y-58764342D02*
X145428571Y-58859580D01*
X145428571Y-58859580D02*
X145380952Y-58907200D01*
X145380952Y-58907200D02*
X145285714Y-58954819D01*
X145285714Y-58954819D02*
X145190476Y-58954819D01*
X145190476Y-58954819D02*
X145095238Y-58907200D01*
X145095238Y-58907200D02*
X145047619Y-58859580D01*
X145047619Y-58859580D02*
X145000000Y-58764342D01*
X145000000Y-58764342D02*
X144952381Y-58573866D01*
X144952381Y-58573866D02*
X144952381Y-58335771D01*
X144952381Y-58335771D02*
X145000000Y-58145295D01*
X145000000Y-58145295D02*
X145047619Y-58050057D01*
X145047619Y-58050057D02*
X145095238Y-58002438D01*
X145095238Y-58002438D02*
X145190476Y-57954819D01*
D12*
X139195238Y-60781927D02*
X139195238Y-61105737D01*
X139195238Y-61105737D02*
X139214285Y-61143832D01*
X139214285Y-61143832D02*
X139233333Y-61162880D01*
X139233333Y-61162880D02*
X139271428Y-61181927D01*
X139271428Y-61181927D02*
X139347619Y-61181927D01*
X139347619Y-61181927D02*
X139385714Y-61162880D01*
X139385714Y-61162880D02*
X139404761Y-61143832D01*
X139404761Y-61143832D02*
X139423809Y-61105737D01*
X139423809Y-61105737D02*
X139423809Y-60781927D01*
X139595238Y-60820022D02*
X139614286Y-60800975D01*
X139614286Y-60800975D02*
X139652381Y-60781927D01*
X139652381Y-60781927D02*
X139747619Y-60781927D01*
X139747619Y-60781927D02*
X139785714Y-60800975D01*
X139785714Y-60800975D02*
X139804762Y-60820022D01*
X139804762Y-60820022D02*
X139823809Y-60858118D01*
X139823809Y-60858118D02*
X139823809Y-60896213D01*
X139823809Y-60896213D02*
X139804762Y-60953356D01*
X139804762Y-60953356D02*
X139576190Y-61181927D01*
X139576190Y-61181927D02*
X139823809Y-61181927D01*
D10*
X135833333Y-66550057D02*
X135880952Y-66502438D01*
X135880952Y-66502438D02*
X135976190Y-66454819D01*
X135976190Y-66454819D02*
X136214285Y-66454819D01*
X136214285Y-66454819D02*
X136309523Y-66502438D01*
X136309523Y-66502438D02*
X136357142Y-66550057D01*
X136357142Y-66550057D02*
X136404761Y-66645295D01*
X136404761Y-66645295D02*
X136404761Y-66740533D01*
X136404761Y-66740533D02*
X136357142Y-66883390D01*
X136357142Y-66883390D02*
X135785714Y-67454819D01*
X135785714Y-67454819D02*
X136404761Y-67454819D01*
X137023809Y-66454819D02*
X137119047Y-66454819D01*
X137119047Y-66454819D02*
X137214285Y-66502438D01*
X137214285Y-66502438D02*
X137261904Y-66550057D01*
X137261904Y-66550057D02*
X137309523Y-66645295D01*
X137309523Y-66645295D02*
X137357142Y-66835771D01*
X137357142Y-66835771D02*
X137357142Y-67073866D01*
X137357142Y-67073866D02*
X137309523Y-67264342D01*
X137309523Y-67264342D02*
X137261904Y-67359580D01*
X137261904Y-67359580D02*
X137214285Y-67407200D01*
X137214285Y-67407200D02*
X137119047Y-67454819D01*
X137119047Y-67454819D02*
X137023809Y-67454819D01*
X137023809Y-67454819D02*
X136928571Y-67407200D01*
X136928571Y-67407200D02*
X136880952Y-67359580D01*
X136880952Y-67359580D02*
X136833333Y-67264342D01*
X136833333Y-67264342D02*
X136785714Y-67073866D01*
X136785714Y-67073866D02*
X136785714Y-66835771D01*
X136785714Y-66835771D02*
X136833333Y-66645295D01*
X136833333Y-66645295D02*
X136880952Y-66550057D01*
X136880952Y-66550057D02*
X136928571Y-66502438D01*
X136928571Y-66502438D02*
X137023809Y-66454819D01*
X137785714Y-67454819D02*
X137785714Y-66454819D01*
X137880952Y-67073866D02*
X138166666Y-67454819D01*
X138166666Y-66788152D02*
X137785714Y-67169104D01*
D12*
X137433333Y-64181927D02*
X137300000Y-63991451D01*
X137204762Y-64181927D02*
X137204762Y-63781927D01*
X137204762Y-63781927D02*
X137357143Y-63781927D01*
X137357143Y-63781927D02*
X137395238Y-63800975D01*
X137395238Y-63800975D02*
X137414285Y-63820022D01*
X137414285Y-63820022D02*
X137433333Y-63858118D01*
X137433333Y-63858118D02*
X137433333Y-63915260D01*
X137433333Y-63915260D02*
X137414285Y-63953356D01*
X137414285Y-63953356D02*
X137395238Y-63972403D01*
X137395238Y-63972403D02*
X137357143Y-63991451D01*
X137357143Y-63991451D02*
X137204762Y-63991451D01*
X137585714Y-63820022D02*
X137604762Y-63800975D01*
X137604762Y-63800975D02*
X137642857Y-63781927D01*
X137642857Y-63781927D02*
X137738095Y-63781927D01*
X137738095Y-63781927D02*
X137776190Y-63800975D01*
X137776190Y-63800975D02*
X137795238Y-63820022D01*
X137795238Y-63820022D02*
X137814285Y-63858118D01*
X137814285Y-63858118D02*
X137814285Y-63896213D01*
X137814285Y-63896213D02*
X137795238Y-63953356D01*
X137795238Y-63953356D02*
X137566666Y-64181927D01*
X137566666Y-64181927D02*
X137814285Y-64181927D01*
D10*
X128071429Y-62954819D02*
X128404762Y-63954819D01*
X128404762Y-63954819D02*
X128738095Y-62954819D01*
X129642857Y-63954819D02*
X129309524Y-63478628D01*
X129071429Y-63954819D02*
X129071429Y-62954819D01*
X129071429Y-62954819D02*
X129452381Y-62954819D01*
X129452381Y-62954819D02*
X129547619Y-63002438D01*
X129547619Y-63002438D02*
X129595238Y-63050057D01*
X129595238Y-63050057D02*
X129642857Y-63145295D01*
X129642857Y-63145295D02*
X129642857Y-63288152D01*
X129642857Y-63288152D02*
X129595238Y-63383390D01*
X129595238Y-63383390D02*
X129547619Y-63431009D01*
X129547619Y-63431009D02*
X129452381Y-63478628D01*
X129452381Y-63478628D02*
X129071429Y-63478628D01*
X130071429Y-63431009D02*
X130404762Y-63431009D01*
X130547619Y-63954819D02*
X130071429Y-63954819D01*
X130071429Y-63954819D02*
X130071429Y-62954819D01*
X130071429Y-62954819D02*
X130547619Y-62954819D01*
X131500000Y-63002438D02*
X131404762Y-62954819D01*
X131404762Y-62954819D02*
X131261905Y-62954819D01*
X131261905Y-62954819D02*
X131119048Y-63002438D01*
X131119048Y-63002438D02*
X131023810Y-63097676D01*
X131023810Y-63097676D02*
X130976191Y-63192914D01*
X130976191Y-63192914D02*
X130928572Y-63383390D01*
X130928572Y-63383390D02*
X130928572Y-63526247D01*
X130928572Y-63526247D02*
X130976191Y-63716723D01*
X130976191Y-63716723D02*
X131023810Y-63811961D01*
X131023810Y-63811961D02*
X131119048Y-63907200D01*
X131119048Y-63907200D02*
X131261905Y-63954819D01*
X131261905Y-63954819D02*
X131357143Y-63954819D01*
X131357143Y-63954819D02*
X131500000Y-63907200D01*
X131500000Y-63907200D02*
X131547619Y-63859580D01*
X131547619Y-63859580D02*
X131547619Y-63526247D01*
X131547619Y-63526247D02*
X131357143Y-63526247D01*
X132738096Y-63954819D02*
X132738096Y-62954819D01*
X133214286Y-63954819D02*
X133214286Y-62954819D01*
X133214286Y-62954819D02*
X133785714Y-63954819D01*
X133785714Y-63954819D02*
X133785714Y-62954819D01*
X148134819Y-62571428D02*
X148134819Y-63142856D01*
X148134819Y-62857142D02*
X147134819Y-62857142D01*
X147134819Y-62857142D02*
X147277676Y-62952380D01*
X147277676Y-62952380D02*
X147372914Y-63047618D01*
X147372914Y-63047618D02*
X147420533Y-63142856D01*
X147134819Y-61952380D02*
X147134819Y-61857142D01*
X147134819Y-61857142D02*
X147182438Y-61761904D01*
X147182438Y-61761904D02*
X147230057Y-61714285D01*
X147230057Y-61714285D02*
X147325295Y-61666666D01*
X147325295Y-61666666D02*
X147515771Y-61619047D01*
X147515771Y-61619047D02*
X147753866Y-61619047D01*
X147753866Y-61619047D02*
X147944342Y-61666666D01*
X147944342Y-61666666D02*
X148039580Y-61714285D01*
X148039580Y-61714285D02*
X148087200Y-61761904D01*
X148087200Y-61761904D02*
X148134819Y-61857142D01*
X148134819Y-61857142D02*
X148134819Y-61952380D01*
X148134819Y-61952380D02*
X148087200Y-62047618D01*
X148087200Y-62047618D02*
X148039580Y-62095237D01*
X148039580Y-62095237D02*
X147944342Y-62142856D01*
X147944342Y-62142856D02*
X147753866Y-62190475D01*
X147753866Y-62190475D02*
X147515771Y-62190475D01*
X147515771Y-62190475D02*
X147325295Y-62142856D01*
X147325295Y-62142856D02*
X147230057Y-62095237D01*
X147230057Y-62095237D02*
X147182438Y-62047618D01*
X147182438Y-62047618D02*
X147134819Y-61952380D01*
X147468152Y-60761904D02*
X148134819Y-60761904D01*
X147468152Y-61190475D02*
X147991961Y-61190475D01*
X147991961Y-61190475D02*
X148087200Y-61142856D01*
X148087200Y-61142856D02*
X148134819Y-61047618D01*
X148134819Y-61047618D02*
X148134819Y-60904761D01*
X148134819Y-60904761D02*
X148087200Y-60809523D01*
X148087200Y-60809523D02*
X148039580Y-60761904D01*
X147611009Y-59952380D02*
X147611009Y-60285713D01*
X148134819Y-60285713D02*
X147134819Y-60285713D01*
X147134819Y-60285713D02*
X147134819Y-59809523D01*
D11*
X146179530Y-61583333D02*
X146203340Y-61607142D01*
X146203340Y-61607142D02*
X146227149Y-61678571D01*
X146227149Y-61678571D02*
X146227149Y-61726190D01*
X146227149Y-61726190D02*
X146203340Y-61797618D01*
X146203340Y-61797618D02*
X146155720Y-61845237D01*
X146155720Y-61845237D02*
X146108101Y-61869047D01*
X146108101Y-61869047D02*
X146012863Y-61892856D01*
X146012863Y-61892856D02*
X145941435Y-61892856D01*
X145941435Y-61892856D02*
X145846197Y-61869047D01*
X145846197Y-61869047D02*
X145798578Y-61845237D01*
X145798578Y-61845237D02*
X145750959Y-61797618D01*
X145750959Y-61797618D02*
X145727149Y-61726190D01*
X145727149Y-61726190D02*
X145727149Y-61678571D01*
X145727149Y-61678571D02*
X145750959Y-61607142D01*
X145750959Y-61607142D02*
X145774768Y-61583333D01*
X145893816Y-61154761D02*
X146227149Y-61154761D01*
X145703340Y-61273809D02*
X146060482Y-61392856D01*
X146060482Y-61392856D02*
X146060482Y-61083333D01*
D10*
X150634819Y-62571428D02*
X150634819Y-63142856D01*
X150634819Y-62857142D02*
X149634819Y-62857142D01*
X149634819Y-62857142D02*
X149777676Y-62952380D01*
X149777676Y-62952380D02*
X149872914Y-63047618D01*
X149872914Y-63047618D02*
X149920533Y-63142856D01*
X149634819Y-61952380D02*
X149634819Y-61857142D01*
X149634819Y-61857142D02*
X149682438Y-61761904D01*
X149682438Y-61761904D02*
X149730057Y-61714285D01*
X149730057Y-61714285D02*
X149825295Y-61666666D01*
X149825295Y-61666666D02*
X150015771Y-61619047D01*
X150015771Y-61619047D02*
X150253866Y-61619047D01*
X150253866Y-61619047D02*
X150444342Y-61666666D01*
X150444342Y-61666666D02*
X150539580Y-61714285D01*
X150539580Y-61714285D02*
X150587200Y-61761904D01*
X150587200Y-61761904D02*
X150634819Y-61857142D01*
X150634819Y-61857142D02*
X150634819Y-61952380D01*
X150634819Y-61952380D02*
X150587200Y-62047618D01*
X150587200Y-62047618D02*
X150539580Y-62095237D01*
X150539580Y-62095237D02*
X150444342Y-62142856D01*
X150444342Y-62142856D02*
X150253866Y-62190475D01*
X150253866Y-62190475D02*
X150015771Y-62190475D01*
X150015771Y-62190475D02*
X149825295Y-62142856D01*
X149825295Y-62142856D02*
X149730057Y-62095237D01*
X149730057Y-62095237D02*
X149682438Y-62047618D01*
X149682438Y-62047618D02*
X149634819Y-61952380D01*
X149968152Y-60761904D02*
X150634819Y-60761904D01*
X149968152Y-61190475D02*
X150491961Y-61190475D01*
X150491961Y-61190475D02*
X150587200Y-61142856D01*
X150587200Y-61142856D02*
X150634819Y-61047618D01*
X150634819Y-61047618D02*
X150634819Y-60904761D01*
X150634819Y-60904761D02*
X150587200Y-60809523D01*
X150587200Y-60809523D02*
X150539580Y-60761904D01*
X150111009Y-59952380D02*
X150111009Y-60285713D01*
X150634819Y-60285713D02*
X149634819Y-60285713D01*
X149634819Y-60285713D02*
X149634819Y-59809523D01*
D11*
X148679530Y-61583333D02*
X148703340Y-61607142D01*
X148703340Y-61607142D02*
X148727149Y-61678571D01*
X148727149Y-61678571D02*
X148727149Y-61726190D01*
X148727149Y-61726190D02*
X148703340Y-61797618D01*
X148703340Y-61797618D02*
X148655720Y-61845237D01*
X148655720Y-61845237D02*
X148608101Y-61869047D01*
X148608101Y-61869047D02*
X148512863Y-61892856D01*
X148512863Y-61892856D02*
X148441435Y-61892856D01*
X148441435Y-61892856D02*
X148346197Y-61869047D01*
X148346197Y-61869047D02*
X148298578Y-61845237D01*
X148298578Y-61845237D02*
X148250959Y-61797618D01*
X148250959Y-61797618D02*
X148227149Y-61726190D01*
X148227149Y-61726190D02*
X148227149Y-61678571D01*
X148227149Y-61678571D02*
X148250959Y-61607142D01*
X148250959Y-61607142D02*
X148274768Y-61583333D01*
X148227149Y-61416666D02*
X148227149Y-61107142D01*
X148227149Y-61107142D02*
X148417625Y-61273809D01*
X148417625Y-61273809D02*
X148417625Y-61202380D01*
X148417625Y-61202380D02*
X148441435Y-61154761D01*
X148441435Y-61154761D02*
X148465244Y-61130952D01*
X148465244Y-61130952D02*
X148512863Y-61107142D01*
X148512863Y-61107142D02*
X148631911Y-61107142D01*
X148631911Y-61107142D02*
X148679530Y-61130952D01*
X148679530Y-61130952D02*
X148703340Y-61154761D01*
X148703340Y-61154761D02*
X148727149Y-61202380D01*
X148727149Y-61202380D02*
X148727149Y-61345237D01*
X148727149Y-61345237D02*
X148703340Y-61392856D01*
X148703340Y-61392856D02*
X148679530Y-61416666D01*
D10*
X121054819Y-69004761D02*
X121054819Y-69195237D01*
X121054819Y-69195237D02*
X121102438Y-69290475D01*
X121102438Y-69290475D02*
X121150057Y-69338094D01*
X121150057Y-69338094D02*
X121292914Y-69433332D01*
X121292914Y-69433332D02*
X121483390Y-69480951D01*
X121483390Y-69480951D02*
X121864342Y-69480951D01*
X121864342Y-69480951D02*
X121959580Y-69433332D01*
X121959580Y-69433332D02*
X122007200Y-69385713D01*
X122007200Y-69385713D02*
X122054819Y-69290475D01*
X122054819Y-69290475D02*
X122054819Y-69099999D01*
X122054819Y-69099999D02*
X122007200Y-69004761D01*
X122007200Y-69004761D02*
X121959580Y-68957142D01*
X121959580Y-68957142D02*
X121864342Y-68909523D01*
X121864342Y-68909523D02*
X121626247Y-68909523D01*
X121626247Y-68909523D02*
X121531009Y-68957142D01*
X121531009Y-68957142D02*
X121483390Y-69004761D01*
X121483390Y-69004761D02*
X121435771Y-69099999D01*
X121435771Y-69099999D02*
X121435771Y-69290475D01*
X121435771Y-69290475D02*
X121483390Y-69385713D01*
X121483390Y-69385713D02*
X121531009Y-69433332D01*
X121531009Y-69433332D02*
X121626247Y-69480951D01*
X121054819Y-68290475D02*
X121054819Y-68195237D01*
X121054819Y-68195237D02*
X121102438Y-68099999D01*
X121102438Y-68099999D02*
X121150057Y-68052380D01*
X121150057Y-68052380D02*
X121245295Y-68004761D01*
X121245295Y-68004761D02*
X121435771Y-67957142D01*
X121435771Y-67957142D02*
X121673866Y-67957142D01*
X121673866Y-67957142D02*
X121864342Y-68004761D01*
X121864342Y-68004761D02*
X121959580Y-68052380D01*
X121959580Y-68052380D02*
X122007200Y-68099999D01*
X122007200Y-68099999D02*
X122054819Y-68195237D01*
X122054819Y-68195237D02*
X122054819Y-68290475D01*
X122054819Y-68290475D02*
X122007200Y-68385713D01*
X122007200Y-68385713D02*
X121959580Y-68433332D01*
X121959580Y-68433332D02*
X121864342Y-68480951D01*
X121864342Y-68480951D02*
X121673866Y-68528570D01*
X121673866Y-68528570D02*
X121435771Y-68528570D01*
X121435771Y-68528570D02*
X121245295Y-68480951D01*
X121245295Y-68480951D02*
X121150057Y-68433332D01*
X121150057Y-68433332D02*
X121102438Y-68385713D01*
X121102438Y-68385713D02*
X121054819Y-68290475D01*
X121054819Y-67338094D02*
X121054819Y-67242856D01*
X121054819Y-67242856D02*
X121102438Y-67147618D01*
X121102438Y-67147618D02*
X121150057Y-67099999D01*
X121150057Y-67099999D02*
X121245295Y-67052380D01*
X121245295Y-67052380D02*
X121435771Y-67004761D01*
X121435771Y-67004761D02*
X121673866Y-67004761D01*
X121673866Y-67004761D02*
X121864342Y-67052380D01*
X121864342Y-67052380D02*
X121959580Y-67099999D01*
X121959580Y-67099999D02*
X122007200Y-67147618D01*
X122007200Y-67147618D02*
X122054819Y-67242856D01*
X122054819Y-67242856D02*
X122054819Y-67338094D01*
X122054819Y-67338094D02*
X122007200Y-67433332D01*
X122007200Y-67433332D02*
X121959580Y-67480951D01*
X121959580Y-67480951D02*
X121864342Y-67528570D01*
X121864342Y-67528570D02*
X121673866Y-67576189D01*
X121673866Y-67576189D02*
X121435771Y-67576189D01*
X121435771Y-67576189D02*
X121245295Y-67528570D01*
X121245295Y-67528570D02*
X121150057Y-67480951D01*
X121150057Y-67480951D02*
X121102438Y-67433332D01*
X121102438Y-67433332D02*
X121054819Y-67338094D01*
X122054819Y-66576189D02*
X121388152Y-66576189D01*
X121483390Y-66576189D02*
X121435771Y-66528570D01*
X121435771Y-66528570D02*
X121388152Y-66433332D01*
X121388152Y-66433332D02*
X121388152Y-66290475D01*
X121388152Y-66290475D02*
X121435771Y-66195237D01*
X121435771Y-66195237D02*
X121531009Y-66147618D01*
X121531009Y-66147618D02*
X122054819Y-66147618D01*
X121531009Y-66147618D02*
X121435771Y-66099999D01*
X121435771Y-66099999D02*
X121388152Y-66004761D01*
X121388152Y-66004761D02*
X121388152Y-65861904D01*
X121388152Y-65861904D02*
X121435771Y-65766665D01*
X121435771Y-65766665D02*
X121531009Y-65719046D01*
X121531009Y-65719046D02*
X122054819Y-65719046D01*
X121054819Y-65385713D02*
X122054819Y-65052380D01*
X122054819Y-65052380D02*
X121054819Y-64719047D01*
X121578628Y-63766666D02*
X121531009Y-63814285D01*
X121531009Y-63814285D02*
X121483390Y-63909523D01*
X121483390Y-63909523D02*
X121483390Y-64004761D01*
X121483390Y-64004761D02*
X121531009Y-64099999D01*
X121531009Y-64099999D02*
X121578628Y-64147618D01*
X121578628Y-64147618D02*
X121673866Y-64195237D01*
X121673866Y-64195237D02*
X121769104Y-64195237D01*
X121769104Y-64195237D02*
X121864342Y-64147618D01*
X121864342Y-64147618D02*
X121911961Y-64099999D01*
X121911961Y-64099999D02*
X121959580Y-64004761D01*
X121959580Y-64004761D02*
X121959580Y-63909523D01*
X121959580Y-63909523D02*
X121911961Y-63814285D01*
X121911961Y-63814285D02*
X121864342Y-63766666D01*
X121483390Y-63766666D02*
X121864342Y-63766666D01*
X121864342Y-63766666D02*
X121911961Y-63719047D01*
X121911961Y-63719047D02*
X121911961Y-63671428D01*
X121911961Y-63671428D02*
X121864342Y-63576189D01*
X121864342Y-63576189D02*
X121769104Y-63528570D01*
X121769104Y-63528570D02*
X121531009Y-63528570D01*
X121531009Y-63528570D02*
X121388152Y-63623809D01*
X121388152Y-63623809D02*
X121292914Y-63766666D01*
X121292914Y-63766666D02*
X121245295Y-63957142D01*
X121245295Y-63957142D02*
X121292914Y-64147618D01*
X121292914Y-64147618D02*
X121388152Y-64290475D01*
X121388152Y-64290475D02*
X121531009Y-64385713D01*
X121531009Y-64385713D02*
X121721485Y-64433332D01*
X121721485Y-64433332D02*
X121911961Y-64385713D01*
X121911961Y-64385713D02*
X122054819Y-64290475D01*
X122054819Y-64290475D02*
X122150057Y-64147618D01*
X122150057Y-64147618D02*
X122197676Y-63957142D01*
X122197676Y-63957142D02*
X122150057Y-63766666D01*
X122150057Y-63766666D02*
X122054819Y-63623809D01*
X122054819Y-62576190D02*
X122054819Y-63147618D01*
X122054819Y-62861904D02*
X121054819Y-62861904D01*
X121054819Y-62861904D02*
X121197676Y-62957142D01*
X121197676Y-62957142D02*
X121292914Y-63052380D01*
X121292914Y-63052380D02*
X121340533Y-63147618D01*
X121769104Y-62195237D02*
X121769104Y-61719047D01*
X122054819Y-62290475D02*
X121054819Y-61957142D01*
X121054819Y-61957142D02*
X122054819Y-61623809D01*
X125302196Y-69174509D02*
X124302196Y-69174509D01*
X124302196Y-69174509D02*
X124302196Y-68936414D01*
X124302196Y-68936414D02*
X124349815Y-68793557D01*
X124349815Y-68793557D02*
X124445053Y-68698319D01*
X124445053Y-68698319D02*
X124540291Y-68650700D01*
X124540291Y-68650700D02*
X124730767Y-68603081D01*
X124730767Y-68603081D02*
X124873624Y-68603081D01*
X124873624Y-68603081D02*
X125064100Y-68650700D01*
X125064100Y-68650700D02*
X125159338Y-68698319D01*
X125159338Y-68698319D02*
X125254577Y-68793557D01*
X125254577Y-68793557D02*
X125302196Y-68936414D01*
X125302196Y-68936414D02*
X125302196Y-69174509D01*
X125302196Y-67650700D02*
X125302196Y-68222128D01*
X125302196Y-67936414D02*
X124302196Y-67936414D01*
X124302196Y-67936414D02*
X124445053Y-68031652D01*
X124445053Y-68031652D02*
X124540291Y-68126890D01*
X124540291Y-68126890D02*
X124587910Y-68222128D01*
X132134819Y-62071428D02*
X132134819Y-62642856D01*
X132134819Y-62357142D02*
X131134819Y-62357142D01*
X131134819Y-62357142D02*
X131277676Y-62452380D01*
X131277676Y-62452380D02*
X131372914Y-62547618D01*
X131372914Y-62547618D02*
X131420533Y-62642856D01*
X131134819Y-61452380D02*
X131134819Y-61357142D01*
X131134819Y-61357142D02*
X131182438Y-61261904D01*
X131182438Y-61261904D02*
X131230057Y-61214285D01*
X131230057Y-61214285D02*
X131325295Y-61166666D01*
X131325295Y-61166666D02*
X131515771Y-61119047D01*
X131515771Y-61119047D02*
X131753866Y-61119047D01*
X131753866Y-61119047D02*
X131944342Y-61166666D01*
X131944342Y-61166666D02*
X132039580Y-61214285D01*
X132039580Y-61214285D02*
X132087200Y-61261904D01*
X132087200Y-61261904D02*
X132134819Y-61357142D01*
X132134819Y-61357142D02*
X132134819Y-61452380D01*
X132134819Y-61452380D02*
X132087200Y-61547618D01*
X132087200Y-61547618D02*
X132039580Y-61595237D01*
X132039580Y-61595237D02*
X131944342Y-61642856D01*
X131944342Y-61642856D02*
X131753866Y-61690475D01*
X131753866Y-61690475D02*
X131515771Y-61690475D01*
X131515771Y-61690475D02*
X131325295Y-61642856D01*
X131325295Y-61642856D02*
X131230057Y-61595237D01*
X131230057Y-61595237D02*
X131182438Y-61547618D01*
X131182438Y-61547618D02*
X131134819Y-61452380D01*
X131468152Y-60261904D02*
X132134819Y-60261904D01*
X131468152Y-60690475D02*
X131991961Y-60690475D01*
X131991961Y-60690475D02*
X132087200Y-60642856D01*
X132087200Y-60642856D02*
X132134819Y-60547618D01*
X132134819Y-60547618D02*
X132134819Y-60404761D01*
X132134819Y-60404761D02*
X132087200Y-60309523D01*
X132087200Y-60309523D02*
X132039580Y-60261904D01*
X131611009Y-59452380D02*
X131611009Y-59785713D01*
X132134819Y-59785713D02*
X131134819Y-59785713D01*
X131134819Y-59785713D02*
X131134819Y-59309523D01*
D11*
X130179530Y-61083333D02*
X130203340Y-61107142D01*
X130203340Y-61107142D02*
X130227149Y-61178571D01*
X130227149Y-61178571D02*
X130227149Y-61226190D01*
X130227149Y-61226190D02*
X130203340Y-61297618D01*
X130203340Y-61297618D02*
X130155720Y-61345237D01*
X130155720Y-61345237D02*
X130108101Y-61369047D01*
X130108101Y-61369047D02*
X130012863Y-61392856D01*
X130012863Y-61392856D02*
X129941435Y-61392856D01*
X129941435Y-61392856D02*
X129846197Y-61369047D01*
X129846197Y-61369047D02*
X129798578Y-61345237D01*
X129798578Y-61345237D02*
X129750959Y-61297618D01*
X129750959Y-61297618D02*
X129727149Y-61226190D01*
X129727149Y-61226190D02*
X129727149Y-61178571D01*
X129727149Y-61178571D02*
X129750959Y-61107142D01*
X129750959Y-61107142D02*
X129774768Y-61083333D01*
X129774768Y-60892856D02*
X129750959Y-60869047D01*
X129750959Y-60869047D02*
X129727149Y-60821428D01*
X129727149Y-60821428D02*
X129727149Y-60702380D01*
X129727149Y-60702380D02*
X129750959Y-60654761D01*
X129750959Y-60654761D02*
X129774768Y-60630952D01*
X129774768Y-60630952D02*
X129822387Y-60607142D01*
X129822387Y-60607142D02*
X129870006Y-60607142D01*
X129870006Y-60607142D02*
X129941435Y-60630952D01*
X129941435Y-60630952D02*
X130227149Y-60916666D01*
X130227149Y-60916666D02*
X130227149Y-60607142D01*
D10*
X128952380Y-58954819D02*
X128619047Y-58478628D01*
X128380952Y-58954819D02*
X128380952Y-57954819D01*
X128380952Y-57954819D02*
X128761904Y-57954819D01*
X128761904Y-57954819D02*
X128857142Y-58002438D01*
X128857142Y-58002438D02*
X128904761Y-58050057D01*
X128904761Y-58050057D02*
X128952380Y-58145295D01*
X128952380Y-58145295D02*
X128952380Y-58288152D01*
X128952380Y-58288152D02*
X128904761Y-58383390D01*
X128904761Y-58383390D02*
X128857142Y-58431009D01*
X128857142Y-58431009D02*
X128761904Y-58478628D01*
X128761904Y-58478628D02*
X128380952Y-58478628D01*
X129333333Y-58669104D02*
X129809523Y-58669104D01*
X129238095Y-58954819D02*
X129571428Y-57954819D01*
X129571428Y-57954819D02*
X129904761Y-58954819D01*
X130142857Y-57954819D02*
X130380952Y-58954819D01*
X130380952Y-58954819D02*
X130571428Y-58240533D01*
X130571428Y-58240533D02*
X130761904Y-58954819D01*
X130761904Y-58954819D02*
X131000000Y-57954819D01*
X132142857Y-58431009D02*
X132476190Y-58431009D01*
X132619047Y-58954819D02*
X132142857Y-58954819D01*
X132142857Y-58954819D02*
X132142857Y-57954819D01*
X132142857Y-57954819D02*
X132619047Y-57954819D01*
X133047619Y-58954819D02*
X133047619Y-57954819D01*
X133047619Y-57954819D02*
X133619047Y-58954819D01*
X133619047Y-58954819D02*
X133619047Y-57954819D01*
X134428571Y-58431009D02*
X134571428Y-58478628D01*
X134571428Y-58478628D02*
X134619047Y-58526247D01*
X134619047Y-58526247D02*
X134666666Y-58621485D01*
X134666666Y-58621485D02*
X134666666Y-58764342D01*
X134666666Y-58764342D02*
X134619047Y-58859580D01*
X134619047Y-58859580D02*
X134571428Y-58907200D01*
X134571428Y-58907200D02*
X134476190Y-58954819D01*
X134476190Y-58954819D02*
X134095238Y-58954819D01*
X134095238Y-58954819D02*
X134095238Y-57954819D01*
X134095238Y-57954819D02*
X134428571Y-57954819D01*
X134428571Y-57954819D02*
X134523809Y-58002438D01*
X134523809Y-58002438D02*
X134571428Y-58050057D01*
X134571428Y-58050057D02*
X134619047Y-58145295D01*
X134619047Y-58145295D02*
X134619047Y-58240533D01*
X134619047Y-58240533D02*
X134571428Y-58335771D01*
X134571428Y-58335771D02*
X134523809Y-58383390D01*
X134523809Y-58383390D02*
X134428571Y-58431009D01*
X134428571Y-58431009D02*
X134095238Y-58431009D01*
X146809524Y-65454819D02*
X147142857Y-66454819D01*
X147142857Y-66454819D02*
X147476190Y-65454819D01*
X148380952Y-66359580D02*
X148333333Y-66407200D01*
X148333333Y-66407200D02*
X148190476Y-66454819D01*
X148190476Y-66454819D02*
X148095238Y-66454819D01*
X148095238Y-66454819D02*
X147952381Y-66407200D01*
X147952381Y-66407200D02*
X147857143Y-66311961D01*
X147857143Y-66311961D02*
X147809524Y-66216723D01*
X147809524Y-66216723D02*
X147761905Y-66026247D01*
X147761905Y-66026247D02*
X147761905Y-65883390D01*
X147761905Y-65883390D02*
X147809524Y-65692914D01*
X147809524Y-65692914D02*
X147857143Y-65597676D01*
X147857143Y-65597676D02*
X147952381Y-65502438D01*
X147952381Y-65502438D02*
X148095238Y-65454819D01*
X148095238Y-65454819D02*
X148190476Y-65454819D01*
X148190476Y-65454819D02*
X148333333Y-65502438D01*
X148333333Y-65502438D02*
X148380952Y-65550057D01*
X149380952Y-66359580D02*
X149333333Y-66407200D01*
X149333333Y-66407200D02*
X149190476Y-66454819D01*
X149190476Y-66454819D02*
X149095238Y-66454819D01*
X149095238Y-66454819D02*
X148952381Y-66407200D01*
X148952381Y-66407200D02*
X148857143Y-66311961D01*
X148857143Y-66311961D02*
X148809524Y-66216723D01*
X148809524Y-66216723D02*
X148761905Y-66026247D01*
X148761905Y-66026247D02*
X148761905Y-65883390D01*
X148761905Y-65883390D02*
X148809524Y-65692914D01*
X148809524Y-65692914D02*
X148857143Y-65597676D01*
X148857143Y-65597676D02*
X148952381Y-65502438D01*
X148952381Y-65502438D02*
X149095238Y-65454819D01*
X149095238Y-65454819D02*
X149190476Y-65454819D01*
X149190476Y-65454819D02*
X149333333Y-65502438D01*
X149333333Y-65502438D02*
X149380952Y-65550057D01*
X150571429Y-65931009D02*
X150904762Y-65931009D01*
X151047619Y-66454819D02*
X150571429Y-66454819D01*
X150571429Y-66454819D02*
X150571429Y-65454819D01*
X150571429Y-65454819D02*
X151047619Y-65454819D01*
X151476191Y-66454819D02*
X151476191Y-65454819D01*
X151476191Y-65454819D02*
X152047619Y-66454819D01*
X152047619Y-66454819D02*
X152047619Y-65454819D01*
X152857143Y-65931009D02*
X153000000Y-65978628D01*
X153000000Y-65978628D02*
X153047619Y-66026247D01*
X153047619Y-66026247D02*
X153095238Y-66121485D01*
X153095238Y-66121485D02*
X153095238Y-66264342D01*
X153095238Y-66264342D02*
X153047619Y-66359580D01*
X153047619Y-66359580D02*
X153000000Y-66407200D01*
X153000000Y-66407200D02*
X152904762Y-66454819D01*
X152904762Y-66454819D02*
X152523810Y-66454819D01*
X152523810Y-66454819D02*
X152523810Y-65454819D01*
X152523810Y-65454819D02*
X152857143Y-65454819D01*
X152857143Y-65454819D02*
X152952381Y-65502438D01*
X152952381Y-65502438D02*
X153000000Y-65550057D01*
X153000000Y-65550057D02*
X153047619Y-65645295D01*
X153047619Y-65645295D02*
X153047619Y-65740533D01*
X153047619Y-65740533D02*
X153000000Y-65835771D01*
X153000000Y-65835771D02*
X152952381Y-65883390D01*
X152952381Y-65883390D02*
X152857143Y-65931009D01*
X152857143Y-65931009D02*
X152523810Y-65931009D01*
X139928571Y-67454819D02*
X139357143Y-67454819D01*
X139642857Y-67454819D02*
X139642857Y-66454819D01*
X139642857Y-66454819D02*
X139547619Y-66597676D01*
X139547619Y-66597676D02*
X139452381Y-66692914D01*
X139452381Y-66692914D02*
X139357143Y-66740533D01*
X140547619Y-66454819D02*
X140642857Y-66454819D01*
X140642857Y-66454819D02*
X140738095Y-66502438D01*
X140738095Y-66502438D02*
X140785714Y-66550057D01*
X140785714Y-66550057D02*
X140833333Y-66645295D01*
X140833333Y-66645295D02*
X140880952Y-66835771D01*
X140880952Y-66835771D02*
X140880952Y-67073866D01*
X140880952Y-67073866D02*
X140833333Y-67264342D01*
X140833333Y-67264342D02*
X140785714Y-67359580D01*
X140785714Y-67359580D02*
X140738095Y-67407200D01*
X140738095Y-67407200D02*
X140642857Y-67454819D01*
X140642857Y-67454819D02*
X140547619Y-67454819D01*
X140547619Y-67454819D02*
X140452381Y-67407200D01*
X140452381Y-67407200D02*
X140404762Y-67359580D01*
X140404762Y-67359580D02*
X140357143Y-67264342D01*
X140357143Y-67264342D02*
X140309524Y-67073866D01*
X140309524Y-67073866D02*
X140309524Y-66835771D01*
X140309524Y-66835771D02*
X140357143Y-66645295D01*
X140357143Y-66645295D02*
X140404762Y-66550057D01*
X140404762Y-66550057D02*
X140452381Y-66502438D01*
X140452381Y-66502438D02*
X140547619Y-66454819D01*
X141785714Y-66454819D02*
X141309524Y-66454819D01*
X141309524Y-66454819D02*
X141261905Y-66931009D01*
X141261905Y-66931009D02*
X141309524Y-66883390D01*
X141309524Y-66883390D02*
X141404762Y-66835771D01*
X141404762Y-66835771D02*
X141642857Y-66835771D01*
X141642857Y-66835771D02*
X141738095Y-66883390D01*
X141738095Y-66883390D02*
X141785714Y-66931009D01*
X141785714Y-66931009D02*
X141833333Y-67026247D01*
X141833333Y-67026247D02*
X141833333Y-67264342D01*
X141833333Y-67264342D02*
X141785714Y-67359580D01*
X141785714Y-67359580D02*
X141738095Y-67407200D01*
X141738095Y-67407200D02*
X141642857Y-67454819D01*
X141642857Y-67454819D02*
X141404762Y-67454819D01*
X141404762Y-67454819D02*
X141309524Y-67407200D01*
X141309524Y-67407200D02*
X141261905Y-67359580D01*
X142261905Y-67454819D02*
X142261905Y-66454819D01*
X142357143Y-67073866D02*
X142642857Y-67454819D01*
X142642857Y-66788152D02*
X142261905Y-67169104D01*
D12*
X140933333Y-64181927D02*
X140800000Y-63991451D01*
X140704762Y-64181927D02*
X140704762Y-63781927D01*
X140704762Y-63781927D02*
X140857143Y-63781927D01*
X140857143Y-63781927D02*
X140895238Y-63800975D01*
X140895238Y-63800975D02*
X140914285Y-63820022D01*
X140914285Y-63820022D02*
X140933333Y-63858118D01*
X140933333Y-63858118D02*
X140933333Y-63915260D01*
X140933333Y-63915260D02*
X140914285Y-63953356D01*
X140914285Y-63953356D02*
X140895238Y-63972403D01*
X140895238Y-63972403D02*
X140857143Y-63991451D01*
X140857143Y-63991451D02*
X140704762Y-63991451D01*
X141314285Y-64181927D02*
X141085714Y-64181927D01*
X141200000Y-64181927D02*
X141200000Y-63781927D01*
X141200000Y-63781927D02*
X141161904Y-63839070D01*
X141161904Y-63839070D02*
X141123809Y-63877165D01*
X141123809Y-63877165D02*
X141085714Y-63896213D01*
D10*
X127550057Y-67833332D02*
X127502438Y-67785713D01*
X127502438Y-67785713D02*
X127454819Y-67690475D01*
X127454819Y-67690475D02*
X127454819Y-67452380D01*
X127454819Y-67452380D02*
X127502438Y-67357142D01*
X127502438Y-67357142D02*
X127550057Y-67309523D01*
X127550057Y-67309523D02*
X127645295Y-67261904D01*
X127645295Y-67261904D02*
X127740533Y-67261904D01*
X127740533Y-67261904D02*
X127883390Y-67309523D01*
X127883390Y-67309523D02*
X128454819Y-67880951D01*
X128454819Y-67880951D02*
X128454819Y-67261904D01*
X127454819Y-66642856D02*
X127454819Y-66547618D01*
X127454819Y-66547618D02*
X127502438Y-66452380D01*
X127502438Y-66452380D02*
X127550057Y-66404761D01*
X127550057Y-66404761D02*
X127645295Y-66357142D01*
X127645295Y-66357142D02*
X127835771Y-66309523D01*
X127835771Y-66309523D02*
X128073866Y-66309523D01*
X128073866Y-66309523D02*
X128264342Y-66357142D01*
X128264342Y-66357142D02*
X128359580Y-66404761D01*
X128359580Y-66404761D02*
X128407200Y-66452380D01*
X128407200Y-66452380D02*
X128454819Y-66547618D01*
X128454819Y-66547618D02*
X128454819Y-66642856D01*
X128454819Y-66642856D02*
X128407200Y-66738094D01*
X128407200Y-66738094D02*
X128359580Y-66785713D01*
X128359580Y-66785713D02*
X128264342Y-66833332D01*
X128264342Y-66833332D02*
X128073866Y-66880951D01*
X128073866Y-66880951D02*
X127835771Y-66880951D01*
X127835771Y-66880951D02*
X127645295Y-66833332D01*
X127645295Y-66833332D02*
X127550057Y-66785713D01*
X127550057Y-66785713D02*
X127502438Y-66738094D01*
X127502438Y-66738094D02*
X127454819Y-66642856D01*
X127454819Y-65690475D02*
X127454819Y-65595237D01*
X127454819Y-65595237D02*
X127502438Y-65499999D01*
X127502438Y-65499999D02*
X127550057Y-65452380D01*
X127550057Y-65452380D02*
X127645295Y-65404761D01*
X127645295Y-65404761D02*
X127835771Y-65357142D01*
X127835771Y-65357142D02*
X128073866Y-65357142D01*
X128073866Y-65357142D02*
X128264342Y-65404761D01*
X128264342Y-65404761D02*
X128359580Y-65452380D01*
X128359580Y-65452380D02*
X128407200Y-65499999D01*
X128407200Y-65499999D02*
X128454819Y-65595237D01*
X128454819Y-65595237D02*
X128454819Y-65690475D01*
X128454819Y-65690475D02*
X128407200Y-65785713D01*
X128407200Y-65785713D02*
X128359580Y-65833332D01*
X128359580Y-65833332D02*
X128264342Y-65880951D01*
X128264342Y-65880951D02*
X128073866Y-65928570D01*
X128073866Y-65928570D02*
X127835771Y-65928570D01*
X127835771Y-65928570D02*
X127645295Y-65880951D01*
X127645295Y-65880951D02*
X127550057Y-65833332D01*
X127550057Y-65833332D02*
X127502438Y-65785713D01*
X127502438Y-65785713D02*
X127454819Y-65690475D01*
X128454819Y-64928570D02*
X127788152Y-64928570D01*
X127883390Y-64928570D02*
X127835771Y-64880951D01*
X127835771Y-64880951D02*
X127788152Y-64785713D01*
X127788152Y-64785713D02*
X127788152Y-64642856D01*
X127788152Y-64642856D02*
X127835771Y-64547618D01*
X127835771Y-64547618D02*
X127931009Y-64499999D01*
X127931009Y-64499999D02*
X128454819Y-64499999D01*
X127931009Y-64499999D02*
X127835771Y-64452380D01*
X127835771Y-64452380D02*
X127788152Y-64357142D01*
X127788152Y-64357142D02*
X127788152Y-64214285D01*
X127788152Y-64214285D02*
X127835771Y-64119046D01*
X127835771Y-64119046D02*
X127931009Y-64071427D01*
X127931009Y-64071427D02*
X128454819Y-64071427D01*
X128169104Y-63642856D02*
X128169104Y-63166666D01*
X128454819Y-63738094D02*
X127454819Y-63404761D01*
X127454819Y-63404761D02*
X128454819Y-63071428D01*
D11*
X125965244Y-65666665D02*
X125965244Y-65833332D01*
X126227149Y-65833332D02*
X125727149Y-65833332D01*
X125727149Y-65833332D02*
X125727149Y-65595237D01*
X126227149Y-65142856D02*
X126227149Y-65428570D01*
X126227149Y-65285713D02*
X125727149Y-65285713D01*
X125727149Y-65285713D02*
X125798578Y-65333332D01*
X125798578Y-65333332D02*
X125846197Y-65380951D01*
X125846197Y-65380951D02*
X125870006Y-65428570D01*
D10*
X137134819Y-62642856D02*
X137134819Y-62547618D01*
X137134819Y-62547618D02*
X137182438Y-62452380D01*
X137182438Y-62452380D02*
X137230057Y-62404761D01*
X137230057Y-62404761D02*
X137325295Y-62357142D01*
X137325295Y-62357142D02*
X137515771Y-62309523D01*
X137515771Y-62309523D02*
X137753866Y-62309523D01*
X137753866Y-62309523D02*
X137944342Y-62357142D01*
X137944342Y-62357142D02*
X138039580Y-62404761D01*
X138039580Y-62404761D02*
X138087200Y-62452380D01*
X138087200Y-62452380D02*
X138134819Y-62547618D01*
X138134819Y-62547618D02*
X138134819Y-62642856D01*
X138134819Y-62642856D02*
X138087200Y-62738094D01*
X138087200Y-62738094D02*
X138039580Y-62785713D01*
X138039580Y-62785713D02*
X137944342Y-62833332D01*
X137944342Y-62833332D02*
X137753866Y-62880951D01*
X137753866Y-62880951D02*
X137515771Y-62880951D01*
X137515771Y-62880951D02*
X137325295Y-62833332D01*
X137325295Y-62833332D02*
X137230057Y-62785713D01*
X137230057Y-62785713D02*
X137182438Y-62738094D01*
X137182438Y-62738094D02*
X137134819Y-62642856D01*
X138039580Y-61880951D02*
X138087200Y-61833332D01*
X138087200Y-61833332D02*
X138134819Y-61880951D01*
X138134819Y-61880951D02*
X138087200Y-61928570D01*
X138087200Y-61928570D02*
X138039580Y-61880951D01*
X138039580Y-61880951D02*
X138134819Y-61880951D01*
X138134819Y-60880952D02*
X138134819Y-61452380D01*
X138134819Y-61166666D02*
X137134819Y-61166666D01*
X137134819Y-61166666D02*
X137277676Y-61261904D01*
X137277676Y-61261904D02*
X137372914Y-61357142D01*
X137372914Y-61357142D02*
X137420533Y-61452380D01*
X137468152Y-60023809D02*
X138134819Y-60023809D01*
X137468152Y-60452380D02*
X137991961Y-60452380D01*
X137991961Y-60452380D02*
X138087200Y-60404761D01*
X138087200Y-60404761D02*
X138134819Y-60309523D01*
X138134819Y-60309523D02*
X138134819Y-60166666D01*
X138134819Y-60166666D02*
X138087200Y-60071428D01*
X138087200Y-60071428D02*
X138039580Y-60023809D01*
X137611009Y-59214285D02*
X137611009Y-59547618D01*
X138134819Y-59547618D02*
X137134819Y-59547618D01*
X137134819Y-59547618D02*
X137134819Y-59071428D01*
D11*
X134909530Y-61083333D02*
X134933340Y-61107142D01*
X134933340Y-61107142D02*
X134957149Y-61178571D01*
X134957149Y-61178571D02*
X134957149Y-61226190D01*
X134957149Y-61226190D02*
X134933340Y-61297618D01*
X134933340Y-61297618D02*
X134885720Y-61345237D01*
X134885720Y-61345237D02*
X134838101Y-61369047D01*
X134838101Y-61369047D02*
X134742863Y-61392856D01*
X134742863Y-61392856D02*
X134671435Y-61392856D01*
X134671435Y-61392856D02*
X134576197Y-61369047D01*
X134576197Y-61369047D02*
X134528578Y-61345237D01*
X134528578Y-61345237D02*
X134480959Y-61297618D01*
X134480959Y-61297618D02*
X134457149Y-61226190D01*
X134457149Y-61226190D02*
X134457149Y-61178571D01*
X134457149Y-61178571D02*
X134480959Y-61107142D01*
X134480959Y-61107142D02*
X134504768Y-61083333D01*
X134457149Y-60630952D02*
X134457149Y-60869047D01*
X134457149Y-60869047D02*
X134695244Y-60892856D01*
X134695244Y-60892856D02*
X134671435Y-60869047D01*
X134671435Y-60869047D02*
X134647625Y-60821428D01*
X134647625Y-60821428D02*
X134647625Y-60702380D01*
X134647625Y-60702380D02*
X134671435Y-60654761D01*
X134671435Y-60654761D02*
X134695244Y-60630952D01*
X134695244Y-60630952D02*
X134742863Y-60607142D01*
X134742863Y-60607142D02*
X134861911Y-60607142D01*
X134861911Y-60607142D02*
X134909530Y-60630952D01*
X134909530Y-60630952D02*
X134933340Y-60654761D01*
X134933340Y-60654761D02*
X134957149Y-60702380D01*
X134957149Y-60702380D02*
X134957149Y-60821428D01*
X134957149Y-60821428D02*
X134933340Y-60869047D01*
X134933340Y-60869047D02*
X134909530Y-60892856D01*
D10*
X142833333Y-64454819D02*
X142261905Y-64454819D01*
X142547619Y-64454819D02*
X142547619Y-63454819D01*
X142547619Y-63454819D02*
X142452381Y-63597676D01*
X142452381Y-63597676D02*
X142357143Y-63692914D01*
X142357143Y-63692914D02*
X142261905Y-63740533D01*
X143452381Y-63454819D02*
X143547619Y-63454819D01*
X143547619Y-63454819D02*
X143642857Y-63502438D01*
X143642857Y-63502438D02*
X143690476Y-63550057D01*
X143690476Y-63550057D02*
X143738095Y-63645295D01*
X143738095Y-63645295D02*
X143785714Y-63835771D01*
X143785714Y-63835771D02*
X143785714Y-64073866D01*
X143785714Y-64073866D02*
X143738095Y-64264342D01*
X143738095Y-64264342D02*
X143690476Y-64359580D01*
X143690476Y-64359580D02*
X143642857Y-64407200D01*
X143642857Y-64407200D02*
X143547619Y-64454819D01*
X143547619Y-64454819D02*
X143452381Y-64454819D01*
X143452381Y-64454819D02*
X143357143Y-64407200D01*
X143357143Y-64407200D02*
X143309524Y-64359580D01*
X143309524Y-64359580D02*
X143261905Y-64264342D01*
X143261905Y-64264342D02*
X143214286Y-64073866D01*
X143214286Y-64073866D02*
X143214286Y-63835771D01*
X143214286Y-63835771D02*
X143261905Y-63645295D01*
X143261905Y-63645295D02*
X143309524Y-63550057D01*
X143309524Y-63550057D02*
X143357143Y-63502438D01*
X143357143Y-63502438D02*
X143452381Y-63454819D01*
X144642857Y-63788152D02*
X144642857Y-64454819D01*
X144214286Y-63788152D02*
X144214286Y-64311961D01*
X144214286Y-64311961D02*
X144261905Y-64407200D01*
X144261905Y-64407200D02*
X144357143Y-64454819D01*
X144357143Y-64454819D02*
X144500000Y-64454819D01*
X144500000Y-64454819D02*
X144595238Y-64407200D01*
X144595238Y-64407200D02*
X144642857Y-64359580D01*
X145119048Y-64454819D02*
X145119048Y-63454819D01*
X145119048Y-63931009D02*
X145690476Y-63931009D01*
X145690476Y-64454819D02*
X145690476Y-63454819D01*
D12*
X144181927Y-61066666D02*
X144181927Y-61257142D01*
X144181927Y-61257142D02*
X143781927Y-61257142D01*
X144181927Y-60723809D02*
X144181927Y-60952380D01*
X144181927Y-60838094D02*
X143781927Y-60838094D01*
X143781927Y-60838094D02*
X143839070Y-60876190D01*
X143839070Y-60876190D02*
X143877165Y-60914285D01*
X143877165Y-60914285D02*
X143896213Y-60952380D01*
D13*
X135353900Y-93625200D02*
X136603900Y-93625200D01*
X135353900Y-95625200D02*
X135353900Y-93625200D01*
X136603900Y-93625200D02*
X136603900Y-95625200D01*
X136603900Y-95625200D02*
X135353900Y-95625200D01*
X123060000Y-77310000D02*
X123060000Y-80710000D01*
X123060000Y-80710000D02*
X124460000Y-80710000D01*
X124460000Y-72110000D02*
X124460000Y-85910000D01*
X124460000Y-77310000D02*
X123060000Y-77310000D01*
X124460000Y-85910000D02*
X134060000Y-85910000D01*
X125270000Y-70110000D02*
X125270000Y-72110000D01*
X125270000Y-87910000D02*
X125270000Y-85910000D01*
X125310000Y-73160000D02*
X127785000Y-73160000D01*
X125310000Y-76460000D02*
X125310000Y-73160000D01*
X125310000Y-77360000D02*
X125310000Y-80660000D01*
X125310000Y-80660000D02*
X128610000Y-80660000D01*
X125310000Y-81560000D02*
X125310000Y-84860000D01*
X125310000Y-84860000D02*
X128610000Y-84860000D01*
X127785000Y-73160000D02*
X128610000Y-73985000D01*
X127785000Y-76460000D02*
X125310000Y-76460000D01*
X128270000Y-70110000D02*
X128270000Y-72110000D01*
X128270000Y-87910000D02*
X128270000Y-85910000D01*
X128610000Y-73985000D02*
X128610000Y-75635000D01*
X128610000Y-75635000D02*
X127785000Y-76460000D01*
X128610000Y-77360000D02*
X125310000Y-77360000D01*
X128610000Y-80660000D02*
X128610000Y-77360000D01*
X128610000Y-81560000D02*
X125310000Y-81560000D01*
X128610000Y-84860000D02*
X128610000Y-81560000D01*
X129510000Y-73160000D02*
X129510000Y-76460000D01*
X129510000Y-76460000D02*
X132810000Y-76460000D01*
X129510000Y-77360000D02*
X131985000Y-77360000D01*
X129510000Y-80660000D02*
X129510000Y-77360000D01*
X129510000Y-81560000D02*
X131985000Y-81560000D01*
X129510000Y-84860000D02*
X129510000Y-81560000D01*
X131985000Y-77360000D02*
X132810000Y-78185000D01*
X131985000Y-80660000D02*
X129510000Y-80660000D01*
X131985000Y-81560000D02*
X132810000Y-82385000D01*
X131985000Y-84860000D02*
X129510000Y-84860000D01*
X132810000Y-73160000D02*
X129510000Y-73160000D01*
X132810000Y-76460000D02*
X132810000Y-73160000D01*
X132810000Y-78185000D02*
X132810000Y-79835000D01*
X132810000Y-79835000D02*
X131985000Y-80660000D01*
X132810000Y-82385000D02*
X132810000Y-84035000D01*
X132810000Y-84035000D02*
X131985000Y-84860000D01*
X134060000Y-72110000D02*
X124460000Y-72110000D01*
X134060000Y-85910000D02*
X134060000Y-72110000D01*
X134410000Y-71760000D02*
X131560000Y-71760000D01*
X134410000Y-74610000D02*
X134410000Y-71760000D01*
X125270000Y-70110000D02*
G75*
G02*
X128270000Y-70110000I1500000J0D01*
G01*
X128270000Y-87910000D02*
G75*
G02*
X125270000Y-87910000I-1500000J0D01*
G01*
X123060000Y-100310000D02*
X123060000Y-103710000D01*
X123060000Y-103710000D02*
X124460000Y-103710000D01*
X124460000Y-95110000D02*
X124460000Y-108910000D01*
X124460000Y-100310000D02*
X123060000Y-100310000D01*
X124460000Y-108910000D02*
X134060000Y-108910000D01*
X125270000Y-93110000D02*
X125270000Y-95110000D01*
X125270000Y-110910000D02*
X125270000Y-108910000D01*
X125310000Y-96160000D02*
X127785000Y-96160000D01*
X125310000Y-99460000D02*
X125310000Y-96160000D01*
X125310000Y-100360000D02*
X125310000Y-103660000D01*
X125310000Y-103660000D02*
X128610000Y-103660000D01*
X125310000Y-104560000D02*
X125310000Y-107860000D01*
X125310000Y-107860000D02*
X128610000Y-107860000D01*
X127785000Y-96160000D02*
X128610000Y-96985000D01*
X127785000Y-99460000D02*
X125310000Y-99460000D01*
X128270000Y-93110000D02*
X128270000Y-95110000D01*
X128270000Y-110910000D02*
X128270000Y-108910000D01*
X128610000Y-96985000D02*
X128610000Y-98635000D01*
X128610000Y-98635000D02*
X127785000Y-99460000D01*
X128610000Y-100360000D02*
X125310000Y-100360000D01*
X128610000Y-103660000D02*
X128610000Y-100360000D01*
X128610000Y-104560000D02*
X125310000Y-104560000D01*
X128610000Y-107860000D02*
X128610000Y-104560000D01*
X129510000Y-96160000D02*
X129510000Y-99460000D01*
X129510000Y-99460000D02*
X132810000Y-99460000D01*
X129510000Y-100360000D02*
X131985000Y-100360000D01*
X129510000Y-103660000D02*
X129510000Y-100360000D01*
X129510000Y-104560000D02*
X131985000Y-104560000D01*
X129510000Y-107860000D02*
X129510000Y-104560000D01*
X131985000Y-100360000D02*
X132810000Y-101185000D01*
X131985000Y-103660000D02*
X129510000Y-103660000D01*
X131985000Y-104560000D02*
X132810000Y-105385000D01*
X131985000Y-107860000D02*
X129510000Y-107860000D01*
X132810000Y-96160000D02*
X129510000Y-96160000D01*
X132810000Y-99460000D02*
X132810000Y-96160000D01*
X132810000Y-101185000D02*
X132810000Y-102835000D01*
X132810000Y-102835000D02*
X131985000Y-103660000D01*
X132810000Y-105385000D02*
X132810000Y-107035000D01*
X132810000Y-107035000D02*
X131985000Y-107860000D01*
X134060000Y-95110000D02*
X124460000Y-95110000D01*
X134060000Y-108910000D02*
X134060000Y-95110000D01*
X134410000Y-94760000D02*
X131560000Y-94760000D01*
X134410000Y-97610000D02*
X134410000Y-94760000D01*
X125270000Y-93110000D02*
G75*
G02*
X128270000Y-93110000I1500000J0D01*
G01*
X128270000Y-110910000D02*
G75*
G02*
X125270000Y-110910000I-1500000J0D01*
G01*
X131360000Y-87360000D02*
X135260000Y-87360000D01*
X131360000Y-92260000D02*
X131360000Y-87360000D01*
X134285000Y-92260000D02*
X131360000Y-92260000D01*
X135260000Y-87360000D02*
X135260000Y-91285000D01*
X135260000Y-91285000D02*
X134285000Y-92260000D01*
X138277600Y-69993200D02*
X138277600Y-100593200D01*
X138277600Y-100593200D02*
X156057600Y-100593200D01*
X139802600Y-71053200D02*
X140802600Y-70053200D01*
X139802600Y-100533200D02*
X139802600Y-71053200D01*
X140802600Y-70053200D02*
X154532600Y-70053200D01*
X154532600Y-70053200D02*
X154532600Y-100533200D01*
X154532600Y-100533200D02*
X139802600Y-100533200D01*
X156057600Y-69993200D02*
X138277600Y-69993200D01*
X156057600Y-100593200D02*
X156057600Y-69993200D01*
X140300000Y-62050000D02*
X139900000Y-62450000D01*
X138700000Y-62450000D01*
X138700000Y-59550000D01*
X140300000Y-59550000D01*
X140300000Y-62050000D01*
X136700000Y-63587500D02*
X138300000Y-63587500D01*
X136700000Y-64412500D02*
X136700000Y-63587500D01*
X138300000Y-63587500D02*
X138300000Y-64412500D01*
X138300000Y-64412500D02*
X136700000Y-64412500D01*
X145375000Y-60500000D02*
X146625000Y-60500000D01*
X145375000Y-62500000D02*
X145375000Y-60500000D01*
X146625000Y-60500000D02*
X146625000Y-62500000D01*
X146625000Y-62500000D02*
X145375000Y-62500000D01*
X147875000Y-60500000D02*
X149125000Y-60500000D01*
X147875000Y-62500000D02*
X147875000Y-60500000D01*
X149125000Y-60500000D02*
X149125000Y-62500000D01*
X149125000Y-62500000D02*
X147875000Y-62500000D01*
X122800000Y-64600000D02*
X124200000Y-64600000D01*
X122800000Y-66400000D02*
X122800000Y-64600000D01*
X123150000Y-65700000D02*
X123500000Y-65200000D01*
X123500000Y-65200000D02*
X123500000Y-65000000D01*
X123500000Y-65200000D02*
X123850000Y-65700000D01*
X123500000Y-65700000D02*
X123500000Y-65950000D01*
X123850000Y-65200000D02*
X123150000Y-65200000D01*
X123850000Y-65700000D02*
X123150000Y-65700000D01*
X124200000Y-64600000D02*
X124200000Y-66400000D01*
X124200000Y-66400000D02*
X122800000Y-66400000D01*
X129375000Y-60000000D02*
X130625000Y-60000000D01*
X129375000Y-62000000D02*
X129375000Y-60000000D01*
X130625000Y-60000000D02*
X130625000Y-62000000D01*
X130625000Y-62000000D02*
X129375000Y-62000000D01*
X140200000Y-63587500D02*
X141800000Y-63587500D01*
X140200000Y-64412500D02*
X140200000Y-63587500D01*
X141800000Y-63587500D02*
X141800000Y-64412500D01*
X141800000Y-64412500D02*
X140200000Y-64412500D01*
X125400000Y-64500000D02*
X126600000Y-64500000D01*
X125400000Y-66500000D02*
X125400000Y-64500000D01*
X126600000Y-64500000D02*
X126600000Y-66500000D01*
X126600000Y-66500000D02*
X125400000Y-66500000D01*
X135375000Y-60000000D02*
X136625000Y-60000000D01*
X135375000Y-62000000D02*
X135375000Y-60000000D01*
X136625000Y-60000000D02*
X136625000Y-62000000D01*
X136625000Y-62000000D02*
X135375000Y-62000000D01*
X143600000Y-60200000D02*
X144400000Y-60200000D01*
X143600000Y-61800000D02*
X143600000Y-60200000D01*
X144400000Y-60200000D02*
X144400000Y-61800000D01*
X144400000Y-61800000D02*
X143600000Y-61800000D01*
M02*
