%TF.GenerationSoftware,KiCad,Pcbnew,(5.1.6)-1*%
%TF.CreationDate,2020-11-25T09:57:01+11:00*%
%TF.ProjectId,ELEC Panel Panel PCB V1,454c4543-2050-4616-9e65-6c2050616e65,rev?*%
%TF.SameCoordinates,Original*%
%TF.FileFunction,Soldermask,Top*%
%TF.FilePolarity,Negative*%
%FSLAX46Y46*%
G04 Gerber Fmt 4.6, Leading zero omitted, Abs format (unit mm)*
G04 Created by KiCad (PCBNEW (5.1.6)-1) date 2020-11-25 09:57:01*
%MOMM*%
%LPD*%
G01*
G04 APERTURE LIST*
%ADD10C,1.620000*%
%ADD11R,1.620000X1.620000*%
%ADD12R,1.600000X1.100000*%
%ADD13C,1.900000*%
%ADD14R,1.900000X1.900000*%
G04 APERTURE END LIST*
%TO.C,R1*%
G36*
G01*
X70175800Y-120169000D02*
X70175800Y-120419000D01*
G75*
G02*
X70050800Y-120544000I-125000J0D01*
G01*
X69740800Y-120544000D01*
G75*
G02*
X69615800Y-120419000I0J125000D01*
G01*
X69615800Y-120169000D01*
G75*
G02*
X69740800Y-120044000I125000J0D01*
G01*
X70050800Y-120044000D01*
G75*
G02*
X70175800Y-120169000I0J-125000D01*
G01*
G37*
G36*
G01*
X70815800Y-120169000D02*
X70815800Y-120419000D01*
G75*
G02*
X70690800Y-120544000I-125000J0D01*
G01*
X70380800Y-120544000D01*
G75*
G02*
X70255800Y-120419000I0J125000D01*
G01*
X70255800Y-120169000D01*
G75*
G02*
X70380800Y-120044000I125000J0D01*
G01*
X70690800Y-120044000D01*
G75*
G02*
X70815800Y-120169000I0J-125000D01*
G01*
G37*
%TD*%
D10*
%TO.C,J2*%
X131368999Y-121107001D03*
X128369000Y-121107001D03*
X131368999Y-124107000D03*
D11*
X128369000Y-124107000D03*
%TD*%
D10*
%TO.C,J1*%
X120954999Y-121107001D03*
X117955000Y-121107001D03*
X120954999Y-124107000D03*
D11*
X117955000Y-124107000D03*
%TD*%
D12*
%TO.C,D25*%
X140667000Y-123165000D03*
X140667000Y-126365000D03*
X145567000Y-123165000D03*
X145567000Y-126365000D03*
%TD*%
%TO.C,D24*%
X134622000Y-133147000D03*
X134622000Y-136347000D03*
X139522000Y-133147000D03*
X139522000Y-136347000D03*
%TD*%
%TO.C,D23*%
X143905000Y-144348000D03*
X143905000Y-147548000D03*
X148805000Y-144348000D03*
X148805000Y-147548000D03*
%TD*%
%TO.C,D22*%
X154180000Y-133452000D03*
X154180000Y-136652000D03*
X159080000Y-133452000D03*
X159080000Y-136652000D03*
%TD*%
%TO.C,D21*%
X148717000Y-123139000D03*
X148717000Y-126339000D03*
X153617000Y-123139000D03*
X153617000Y-126339000D03*
%TD*%
%TO.C,D20*%
X148705000Y-117094000D03*
X148705000Y-120294000D03*
X153605000Y-117094000D03*
X153605000Y-120294000D03*
%TD*%
%TO.C,D19*%
X140005000Y-117094000D03*
X140005000Y-120294000D03*
X144905000Y-117094000D03*
X144905000Y-120294000D03*
%TD*%
%TO.C,D18*%
X89918200Y-132969000D03*
X89918200Y-136169000D03*
X94818200Y-132969000D03*
X94818200Y-136169000D03*
%TD*%
%TO.C,D17*%
X82880200Y-132994000D03*
X82880200Y-136194000D03*
X87780200Y-132994000D03*
X87780200Y-136194000D03*
%TD*%
%TO.C,D16*%
X96443800Y-144450000D03*
X96443800Y-147650000D03*
X101343800Y-144450000D03*
X101343800Y-147650000D03*
%TD*%
%TO.C,D15*%
X103914000Y-144424000D03*
X103914000Y-147624000D03*
X108814000Y-144424000D03*
X108814000Y-147624000D03*
%TD*%
%TO.C,D14*%
X109793000Y-133172000D03*
X109793000Y-136372000D03*
X114693000Y-133172000D03*
X114693000Y-136372000D03*
%TD*%
%TO.C,D13*%
X99926000Y-122809000D03*
X99926000Y-126009000D03*
X104826000Y-122809000D03*
X104826000Y-126009000D03*
%TD*%
%TO.C,D12*%
X103304000Y-116789000D03*
X103304000Y-119989000D03*
X108204000Y-116789000D03*
X108204000Y-119989000D03*
%TD*%
%TO.C,D11*%
X95644800Y-116789000D03*
X95644800Y-119989000D03*
X100544800Y-116789000D03*
X100544800Y-119989000D03*
%TD*%
%TO.C,D10*%
X45392000Y-133172000D03*
X45392000Y-136372000D03*
X50292000Y-133172000D03*
X50292000Y-136372000D03*
%TD*%
%TO.C,D9*%
X55069400Y-144120000D03*
X55069400Y-147320000D03*
X59969400Y-144120000D03*
X59969400Y-147320000D03*
%TD*%
%TO.C,D8*%
X65331000Y-133731000D03*
X65331000Y-136931000D03*
X70231000Y-133731000D03*
X70231000Y-136931000D03*
%TD*%
%TO.C,D7*%
X55716000Y-123698000D03*
X55716000Y-126898000D03*
X60616000Y-123698000D03*
X60616000Y-126898000D03*
%TD*%
%TO.C,D6*%
X60680600Y-117551000D03*
X60680600Y-120751000D03*
X65580600Y-117551000D03*
X65580600Y-120751000D03*
%TD*%
%TO.C,D5*%
X51550400Y-117501000D03*
X51550400Y-120701000D03*
X56450400Y-117501000D03*
X56450400Y-120701000D03*
%TD*%
%TO.C,D4*%
X32311000Y-112802000D03*
X32311000Y-116002000D03*
X37211000Y-112802000D03*
X37211000Y-116002000D03*
%TD*%
%TO.C,D3*%
X32398800Y-106096000D03*
X32398800Y-109296000D03*
X37298800Y-106096000D03*
X37298800Y-109296000D03*
%TD*%
%TO.C,D2*%
X32373400Y-99467000D03*
X32373400Y-102667000D03*
X37273400Y-99467000D03*
X37273400Y-102667000D03*
%TD*%
D13*
%TO.C,D1*%
X76225400Y-120294000D03*
D14*
X73685400Y-120294000D03*
%TD*%
M02*
