%TF.GenerationSoftware,KiCad,Pcbnew,(6.0.9)*%
%TF.CreationDate,2022-12-26T18:23:53-09:00*%
%TF.ProjectId,PCB_ HUD VID RCD PANEL,5043422c-2048-4554-9420-564944205243,rev?*%
%TF.SameCoordinates,Original*%
%TF.FileFunction,Legend,Top*%
%TF.FilePolarity,Positive*%
%FSLAX46Y46*%
G04 Gerber Fmt 4.6, Leading zero omitted, Abs format (unit mm)*
G04 Created by KiCad (PCBNEW (6.0.9)) date 2022-12-26 18:23:53*
%MOMM*%
%LPD*%
G01*
G04 APERTURE LIST*
G04 Aperture macros list*
%AMRoundRect*
0 Rectangle with rounded corners*
0 $1 Rounding radius*
0 $2 $3 $4 $5 $6 $7 $8 $9 X,Y pos of 4 corners*
0 Add a 4 corners polygon primitive as box body*
4,1,4,$2,$3,$4,$5,$6,$7,$8,$9,$2,$3,0*
0 Add four circle primitives for the rounded corners*
1,1,$1+$1,$2,$3*
1,1,$1+$1,$4,$5*
1,1,$1+$1,$6,$7*
1,1,$1+$1,$8,$9*
0 Add four rect primitives between the rounded corners*
20,1,$1+$1,$2,$3,$4,$5,0*
20,1,$1+$1,$4,$5,$6,$7,0*
20,1,$1+$1,$6,$7,$8,$9,0*
20,1,$1+$1,$8,$9,$2,$3,0*%
G04 Aperture macros list end*
%ADD10C,0.150000*%
%ADD11C,0.120000*%
%ADD12RoundRect,0.250000X0.200000X0.275000X-0.200000X0.275000X-0.200000X-0.275000X0.200000X-0.275000X0*%
%ADD13RoundRect,0.300001X-1.099999X-1.399999X1.099999X-1.399999X1.099999X1.399999X-1.099999X1.399999X0*%
%ADD14O,2.800000X3.400000*%
%ADD15RoundRect,0.050000X-0.900000X-0.900000X0.900000X-0.900000X0.900000X0.900000X-0.900000X0.900000X0*%
%ADD16C,1.900000*%
%ADD17RoundRect,0.050000X-0.750000X-0.450000X0.750000X-0.450000X0.750000X0.450000X-0.750000X0.450000X0*%
%ADD18C,12.800000*%
%ADD19C,3.672000*%
%ADD20C,4.400000*%
G04 APERTURE END LIST*
D10*
X201628952Y-89495380D02*
X201628952Y-90209666D01*
X201581333Y-90352523D01*
X201486095Y-90447761D01*
X201343238Y-90495380D01*
X201248000Y-90495380D01*
X202581333Y-90495380D02*
X202105142Y-90495380D01*
X202105142Y-89495380D01*
X203486095Y-90400142D02*
X203438476Y-90447761D01*
X203295619Y-90495380D01*
X203200380Y-90495380D01*
X203057523Y-90447761D01*
X202962285Y-90352523D01*
X202914666Y-90257285D01*
X202867047Y-90066809D01*
X202867047Y-89923952D01*
X202914666Y-89733476D01*
X202962285Y-89638238D01*
X203057523Y-89543000D01*
X203200380Y-89495380D01*
X203295619Y-89495380D01*
X203438476Y-89543000D01*
X203486095Y-89590619D01*
X204200380Y-89495380D02*
X204200380Y-90209666D01*
X204152761Y-90352523D01*
X204057523Y-90447761D01*
X203914666Y-90495380D01*
X203819428Y-90495380D01*
X205152761Y-90495380D02*
X204676571Y-90495380D01*
X204676571Y-89495380D01*
X206057523Y-90400142D02*
X206009904Y-90447761D01*
X205867047Y-90495380D01*
X205771809Y-90495380D01*
X205628952Y-90447761D01*
X205533714Y-90352523D01*
X205486095Y-90257285D01*
X205438476Y-90066809D01*
X205438476Y-89923952D01*
X205486095Y-89733476D01*
X205533714Y-89638238D01*
X205628952Y-89543000D01*
X205771809Y-89495380D01*
X205867047Y-89495380D01*
X206009904Y-89543000D01*
X206057523Y-89590619D01*
X206771809Y-89495380D02*
X206771809Y-90209666D01*
X206724190Y-90352523D01*
X206628952Y-90447761D01*
X206486095Y-90495380D01*
X206390857Y-90495380D01*
X207724190Y-90495380D02*
X207248000Y-90495380D01*
X207248000Y-89495380D01*
X208628952Y-90400142D02*
X208581333Y-90447761D01*
X208438476Y-90495380D01*
X208343238Y-90495380D01*
X208200380Y-90447761D01*
X208105142Y-90352523D01*
X208057523Y-90257285D01*
X208009904Y-90066809D01*
X208009904Y-89923952D01*
X208057523Y-89733476D01*
X208105142Y-89638238D01*
X208200380Y-89543000D01*
X208343238Y-89495380D01*
X208438476Y-89495380D01*
X208581333Y-89543000D01*
X208628952Y-89590619D01*
X209343238Y-89495380D02*
X209343238Y-90209666D01*
X209295619Y-90352523D01*
X209200380Y-90447761D01*
X209057523Y-90495380D01*
X208962285Y-90495380D01*
X210295619Y-90495380D02*
X209819428Y-90495380D01*
X209819428Y-89495380D01*
X211200380Y-90400142D02*
X211152761Y-90447761D01*
X211009904Y-90495380D01*
X210914666Y-90495380D01*
X210771809Y-90447761D01*
X210676571Y-90352523D01*
X210628952Y-90257285D01*
X210581333Y-90066809D01*
X210581333Y-89923952D01*
X210628952Y-89733476D01*
X210676571Y-89638238D01*
X210771809Y-89543000D01*
X210914666Y-89495380D01*
X211009904Y-89495380D01*
X211152761Y-89543000D01*
X211200380Y-89590619D01*
%TO.C,R1*%
X177405333Y-84813380D02*
X177072000Y-84337190D01*
X176833904Y-84813380D02*
X176833904Y-83813380D01*
X177214857Y-83813380D01*
X177310095Y-83861000D01*
X177357714Y-83908619D01*
X177405333Y-84003857D01*
X177405333Y-84146714D01*
X177357714Y-84241952D01*
X177310095Y-84289571D01*
X177214857Y-84337190D01*
X176833904Y-84337190D01*
X178357714Y-84813380D02*
X177786285Y-84813380D01*
X178072000Y-84813380D02*
X178072000Y-83813380D01*
X177976761Y-83956238D01*
X177881523Y-84051476D01*
X177786285Y-84099095D01*
%TO.C,D16*%
X179125714Y-68224780D02*
X179125714Y-67224780D01*
X179363809Y-67224780D01*
X179506666Y-67272400D01*
X179601904Y-67367638D01*
X179649523Y-67462876D01*
X179697142Y-67653352D01*
X179697142Y-67796209D01*
X179649523Y-67986685D01*
X179601904Y-68081923D01*
X179506666Y-68177161D01*
X179363809Y-68224780D01*
X179125714Y-68224780D01*
X180649523Y-68224780D02*
X180078095Y-68224780D01*
X180363809Y-68224780D02*
X180363809Y-67224780D01*
X180268571Y-67367638D01*
X180173333Y-67462876D01*
X180078095Y-67510495D01*
X181506666Y-67224780D02*
X181316190Y-67224780D01*
X181220952Y-67272400D01*
X181173333Y-67320019D01*
X181078095Y-67462876D01*
X181030476Y-67653352D01*
X181030476Y-68034304D01*
X181078095Y-68129542D01*
X181125714Y-68177161D01*
X181220952Y-68224780D01*
X181411428Y-68224780D01*
X181506666Y-68177161D01*
X181554285Y-68129542D01*
X181601904Y-68034304D01*
X181601904Y-67796209D01*
X181554285Y-67700971D01*
X181506666Y-67653352D01*
X181411428Y-67605733D01*
X181220952Y-67605733D01*
X181125714Y-67653352D01*
X181078095Y-67700971D01*
X181030476Y-67796209D01*
X176475714Y-70124780D02*
X175904285Y-70124780D01*
X176190000Y-70124780D02*
X176190000Y-69124780D01*
X176094761Y-69267638D01*
X175999523Y-69362876D01*
X175904285Y-69410495D01*
%TO.C,D15*%
X171364714Y-68199180D02*
X171364714Y-67199180D01*
X171602809Y-67199180D01*
X171745666Y-67246800D01*
X171840904Y-67342038D01*
X171888523Y-67437276D01*
X171936142Y-67627752D01*
X171936142Y-67770609D01*
X171888523Y-67961085D01*
X171840904Y-68056323D01*
X171745666Y-68151561D01*
X171602809Y-68199180D01*
X171364714Y-68199180D01*
X172888523Y-68199180D02*
X172317095Y-68199180D01*
X172602809Y-68199180D02*
X172602809Y-67199180D01*
X172507571Y-67342038D01*
X172412333Y-67437276D01*
X172317095Y-67484895D01*
X173793285Y-67199180D02*
X173317095Y-67199180D01*
X173269476Y-67675371D01*
X173317095Y-67627752D01*
X173412333Y-67580133D01*
X173650428Y-67580133D01*
X173745666Y-67627752D01*
X173793285Y-67675371D01*
X173840904Y-67770609D01*
X173840904Y-68008704D01*
X173793285Y-68103942D01*
X173745666Y-68151561D01*
X173650428Y-68199180D01*
X173412333Y-68199180D01*
X173317095Y-68151561D01*
X173269476Y-68103942D01*
X168714714Y-70099180D02*
X168143285Y-70099180D01*
X168429000Y-70099180D02*
X168429000Y-69099180D01*
X168333761Y-69242038D01*
X168238523Y-69337276D01*
X168143285Y-69384895D01*
%TO.C,D14*%
X163682714Y-68275580D02*
X163682714Y-67275580D01*
X163920809Y-67275580D01*
X164063666Y-67323200D01*
X164158904Y-67418438D01*
X164206523Y-67513676D01*
X164254142Y-67704152D01*
X164254142Y-67847009D01*
X164206523Y-68037485D01*
X164158904Y-68132723D01*
X164063666Y-68227961D01*
X163920809Y-68275580D01*
X163682714Y-68275580D01*
X165206523Y-68275580D02*
X164635095Y-68275580D01*
X164920809Y-68275580D02*
X164920809Y-67275580D01*
X164825571Y-67418438D01*
X164730333Y-67513676D01*
X164635095Y-67561295D01*
X166063666Y-67608914D02*
X166063666Y-68275580D01*
X165825571Y-67227961D02*
X165587476Y-67942247D01*
X166206523Y-67942247D01*
X161032714Y-70175580D02*
X160461285Y-70175580D01*
X160747000Y-70175580D02*
X160747000Y-69175580D01*
X160651761Y-69318438D01*
X160556523Y-69413676D01*
X160461285Y-69461295D01*
%TO.C,D13*%
X154538714Y-68072380D02*
X154538714Y-67072380D01*
X154776809Y-67072380D01*
X154919666Y-67120000D01*
X155014904Y-67215238D01*
X155062523Y-67310476D01*
X155110142Y-67500952D01*
X155110142Y-67643809D01*
X155062523Y-67834285D01*
X155014904Y-67929523D01*
X154919666Y-68024761D01*
X154776809Y-68072380D01*
X154538714Y-68072380D01*
X156062523Y-68072380D02*
X155491095Y-68072380D01*
X155776809Y-68072380D02*
X155776809Y-67072380D01*
X155681571Y-67215238D01*
X155586333Y-67310476D01*
X155491095Y-67358095D01*
X156395857Y-67072380D02*
X157014904Y-67072380D01*
X156681571Y-67453333D01*
X156824428Y-67453333D01*
X156919666Y-67500952D01*
X156967285Y-67548571D01*
X157014904Y-67643809D01*
X157014904Y-67881904D01*
X156967285Y-67977142D01*
X156919666Y-68024761D01*
X156824428Y-68072380D01*
X156538714Y-68072380D01*
X156443476Y-68024761D01*
X156395857Y-67977142D01*
X151888714Y-69972380D02*
X151317285Y-69972380D01*
X151603000Y-69972380D02*
X151603000Y-68972380D01*
X151507761Y-69115238D01*
X151412523Y-69210476D01*
X151317285Y-69258095D01*
%TO.C,D12*%
X146511714Y-68072380D02*
X146511714Y-67072380D01*
X146749809Y-67072380D01*
X146892666Y-67120000D01*
X146987904Y-67215238D01*
X147035523Y-67310476D01*
X147083142Y-67500952D01*
X147083142Y-67643809D01*
X147035523Y-67834285D01*
X146987904Y-67929523D01*
X146892666Y-68024761D01*
X146749809Y-68072380D01*
X146511714Y-68072380D01*
X148035523Y-68072380D02*
X147464095Y-68072380D01*
X147749809Y-68072380D02*
X147749809Y-67072380D01*
X147654571Y-67215238D01*
X147559333Y-67310476D01*
X147464095Y-67358095D01*
X148416476Y-67167619D02*
X148464095Y-67120000D01*
X148559333Y-67072380D01*
X148797428Y-67072380D01*
X148892666Y-67120000D01*
X148940285Y-67167619D01*
X148987904Y-67262857D01*
X148987904Y-67358095D01*
X148940285Y-67500952D01*
X148368857Y-68072380D01*
X148987904Y-68072380D01*
X143861714Y-69972380D02*
X143290285Y-69972380D01*
X143576000Y-69972380D02*
X143576000Y-68972380D01*
X143480761Y-69115238D01*
X143385523Y-69210476D01*
X143290285Y-69258095D01*
%TO.C,D11*%
X159047714Y-82931180D02*
X159047714Y-81931180D01*
X159285809Y-81931180D01*
X159428666Y-81978800D01*
X159523904Y-82074038D01*
X159571523Y-82169276D01*
X159619142Y-82359752D01*
X159619142Y-82502609D01*
X159571523Y-82693085D01*
X159523904Y-82788323D01*
X159428666Y-82883561D01*
X159285809Y-82931180D01*
X159047714Y-82931180D01*
X160571523Y-82931180D02*
X160000095Y-82931180D01*
X160285809Y-82931180D02*
X160285809Y-81931180D01*
X160190571Y-82074038D01*
X160095333Y-82169276D01*
X160000095Y-82216895D01*
X161523904Y-82931180D02*
X160952476Y-82931180D01*
X161238190Y-82931180D02*
X161238190Y-81931180D01*
X161142952Y-82074038D01*
X161047714Y-82169276D01*
X160952476Y-82216895D01*
X156397714Y-84831180D02*
X155826285Y-84831180D01*
X156112000Y-84831180D02*
X156112000Y-83831180D01*
X156016761Y-83974038D01*
X155921523Y-84069276D01*
X155826285Y-84116895D01*
%TO.C,D10*%
X151998714Y-82956780D02*
X151998714Y-81956780D01*
X152236809Y-81956780D01*
X152379666Y-82004400D01*
X152474904Y-82099638D01*
X152522523Y-82194876D01*
X152570142Y-82385352D01*
X152570142Y-82528209D01*
X152522523Y-82718685D01*
X152474904Y-82813923D01*
X152379666Y-82909161D01*
X152236809Y-82956780D01*
X151998714Y-82956780D01*
X153522523Y-82956780D02*
X152951095Y-82956780D01*
X153236809Y-82956780D02*
X153236809Y-81956780D01*
X153141571Y-82099638D01*
X153046333Y-82194876D01*
X152951095Y-82242495D01*
X154141571Y-81956780D02*
X154236809Y-81956780D01*
X154332047Y-82004400D01*
X154379666Y-82052019D01*
X154427285Y-82147257D01*
X154474904Y-82337733D01*
X154474904Y-82575828D01*
X154427285Y-82766304D01*
X154379666Y-82861542D01*
X154332047Y-82909161D01*
X154236809Y-82956780D01*
X154141571Y-82956780D01*
X154046333Y-82909161D01*
X153998714Y-82861542D01*
X153951095Y-82766304D01*
X153903476Y-82575828D01*
X153903476Y-82337733D01*
X153951095Y-82147257D01*
X153998714Y-82052019D01*
X154046333Y-82004400D01*
X154141571Y-81956780D01*
X149348714Y-84856780D02*
X148777285Y-84856780D01*
X149063000Y-84856780D02*
X149063000Y-83856780D01*
X148967761Y-83999638D01*
X148872523Y-84094876D01*
X148777285Y-84142495D01*
%TO.C,D9*%
X155307904Y-77191180D02*
X155307904Y-76191180D01*
X155546000Y-76191180D01*
X155688857Y-76238800D01*
X155784095Y-76334038D01*
X155831714Y-76429276D01*
X155879333Y-76619752D01*
X155879333Y-76762609D01*
X155831714Y-76953085D01*
X155784095Y-77048323D01*
X155688857Y-77143561D01*
X155546000Y-77191180D01*
X155307904Y-77191180D01*
X156355523Y-77191180D02*
X156546000Y-77191180D01*
X156641238Y-77143561D01*
X156688857Y-77095942D01*
X156784095Y-76953085D01*
X156831714Y-76762609D01*
X156831714Y-76381657D01*
X156784095Y-76286419D01*
X156736476Y-76238800D01*
X156641238Y-76191180D01*
X156450761Y-76191180D01*
X156355523Y-76238800D01*
X156307904Y-76286419D01*
X156260285Y-76381657D01*
X156260285Y-76619752D01*
X156307904Y-76714990D01*
X156355523Y-76762609D01*
X156450761Y-76810228D01*
X156641238Y-76810228D01*
X156736476Y-76762609D01*
X156784095Y-76714990D01*
X156831714Y-76619752D01*
X152181714Y-79091180D02*
X151610285Y-79091180D01*
X151896000Y-79091180D02*
X151896000Y-78091180D01*
X151800761Y-78234038D01*
X151705523Y-78329276D01*
X151610285Y-78376895D01*
%TO.C,D8*%
X132013904Y-79171980D02*
X132013904Y-78171980D01*
X132252000Y-78171980D01*
X132394857Y-78219600D01*
X132490095Y-78314838D01*
X132537714Y-78410076D01*
X132585333Y-78600552D01*
X132585333Y-78743409D01*
X132537714Y-78933885D01*
X132490095Y-79029123D01*
X132394857Y-79124361D01*
X132252000Y-79171980D01*
X132013904Y-79171980D01*
X133156761Y-78600552D02*
X133061523Y-78552933D01*
X133013904Y-78505314D01*
X132966285Y-78410076D01*
X132966285Y-78362457D01*
X133013904Y-78267219D01*
X133061523Y-78219600D01*
X133156761Y-78171980D01*
X133347238Y-78171980D01*
X133442476Y-78219600D01*
X133490095Y-78267219D01*
X133537714Y-78362457D01*
X133537714Y-78410076D01*
X133490095Y-78505314D01*
X133442476Y-78552933D01*
X133347238Y-78600552D01*
X133156761Y-78600552D01*
X133061523Y-78648171D01*
X133013904Y-78695790D01*
X132966285Y-78791028D01*
X132966285Y-78981504D01*
X133013904Y-79076742D01*
X133061523Y-79124361D01*
X133156761Y-79171980D01*
X133347238Y-79171980D01*
X133442476Y-79124361D01*
X133490095Y-79076742D01*
X133537714Y-78981504D01*
X133537714Y-78791028D01*
X133490095Y-78695790D01*
X133442476Y-78648171D01*
X133347238Y-78600552D01*
X128887714Y-81071980D02*
X128316285Y-81071980D01*
X128602000Y-81071980D02*
X128602000Y-80071980D01*
X128506761Y-80214838D01*
X128411523Y-80310076D01*
X128316285Y-80357695D01*
%TO.C,D7*%
X121740904Y-81686780D02*
X121740904Y-80686780D01*
X121979000Y-80686780D01*
X122121857Y-80734400D01*
X122217095Y-80829638D01*
X122264714Y-80924876D01*
X122312333Y-81115352D01*
X122312333Y-81258209D01*
X122264714Y-81448685D01*
X122217095Y-81543923D01*
X122121857Y-81639161D01*
X121979000Y-81686780D01*
X121740904Y-81686780D01*
X122645666Y-80686780D02*
X123312333Y-80686780D01*
X122883761Y-81686780D01*
X118614714Y-83586780D02*
X118043285Y-83586780D01*
X118329000Y-83586780D02*
X118329000Y-82586780D01*
X118233761Y-82729638D01*
X118138523Y-82824876D01*
X118043285Y-82872495D01*
%TO.C,D6*%
X106816904Y-69773980D02*
X106816904Y-68773980D01*
X107055000Y-68773980D01*
X107197857Y-68821600D01*
X107293095Y-68916838D01*
X107340714Y-69012076D01*
X107388333Y-69202552D01*
X107388333Y-69345409D01*
X107340714Y-69535885D01*
X107293095Y-69631123D01*
X107197857Y-69726361D01*
X107055000Y-69773980D01*
X106816904Y-69773980D01*
X108245476Y-68773980D02*
X108055000Y-68773980D01*
X107959761Y-68821600D01*
X107912142Y-68869219D01*
X107816904Y-69012076D01*
X107769285Y-69202552D01*
X107769285Y-69583504D01*
X107816904Y-69678742D01*
X107864523Y-69726361D01*
X107959761Y-69773980D01*
X108150238Y-69773980D01*
X108245476Y-69726361D01*
X108293095Y-69678742D01*
X108340714Y-69583504D01*
X108340714Y-69345409D01*
X108293095Y-69250171D01*
X108245476Y-69202552D01*
X108150238Y-69154933D01*
X107959761Y-69154933D01*
X107864523Y-69202552D01*
X107816904Y-69250171D01*
X107769285Y-69345409D01*
X103690714Y-71673980D02*
X103119285Y-71673980D01*
X103405000Y-71673980D02*
X103405000Y-70673980D01*
X103309761Y-70816838D01*
X103214523Y-70912076D01*
X103119285Y-70959695D01*
%TO.C,D5*%
X94574304Y-79832380D02*
X94574304Y-78832380D01*
X94812400Y-78832380D01*
X94955257Y-78880000D01*
X95050495Y-78975238D01*
X95098114Y-79070476D01*
X95145733Y-79260952D01*
X95145733Y-79403809D01*
X95098114Y-79594285D01*
X95050495Y-79689523D01*
X94955257Y-79784761D01*
X94812400Y-79832380D01*
X94574304Y-79832380D01*
X96050495Y-78832380D02*
X95574304Y-78832380D01*
X95526685Y-79308571D01*
X95574304Y-79260952D01*
X95669542Y-79213333D01*
X95907638Y-79213333D01*
X96002876Y-79260952D01*
X96050495Y-79308571D01*
X96098114Y-79403809D01*
X96098114Y-79641904D01*
X96050495Y-79737142D01*
X96002876Y-79784761D01*
X95907638Y-79832380D01*
X95669542Y-79832380D01*
X95574304Y-79784761D01*
X95526685Y-79737142D01*
X91448114Y-81732380D02*
X90876685Y-81732380D01*
X91162400Y-81732380D02*
X91162400Y-80732380D01*
X91067161Y-80875238D01*
X90971923Y-80970476D01*
X90876685Y-81018095D01*
%TO.C,D4*%
X74027904Y-85318780D02*
X74027904Y-84318780D01*
X74266000Y-84318780D01*
X74408857Y-84366400D01*
X74504095Y-84461638D01*
X74551714Y-84556876D01*
X74599333Y-84747352D01*
X74599333Y-84890209D01*
X74551714Y-85080685D01*
X74504095Y-85175923D01*
X74408857Y-85271161D01*
X74266000Y-85318780D01*
X74027904Y-85318780D01*
X75456476Y-84652114D02*
X75456476Y-85318780D01*
X75218380Y-84271161D02*
X74980285Y-84985447D01*
X75599333Y-84985447D01*
X70901714Y-87218780D02*
X70330285Y-87218780D01*
X70616000Y-87218780D02*
X70616000Y-86218780D01*
X70520761Y-86361638D01*
X70425523Y-86456876D01*
X70330285Y-86504495D01*
%TO.C,D3*%
X70319504Y-68046780D02*
X70319504Y-67046780D01*
X70557600Y-67046780D01*
X70700457Y-67094400D01*
X70795695Y-67189638D01*
X70843314Y-67284876D01*
X70890933Y-67475352D01*
X70890933Y-67618209D01*
X70843314Y-67808685D01*
X70795695Y-67903923D01*
X70700457Y-67999161D01*
X70557600Y-68046780D01*
X70319504Y-68046780D01*
X71224266Y-67046780D02*
X71843314Y-67046780D01*
X71509980Y-67427733D01*
X71652838Y-67427733D01*
X71748076Y-67475352D01*
X71795695Y-67522971D01*
X71843314Y-67618209D01*
X71843314Y-67856304D01*
X71795695Y-67951542D01*
X71748076Y-67999161D01*
X71652838Y-68046780D01*
X71367123Y-68046780D01*
X71271885Y-67999161D01*
X71224266Y-67951542D01*
X67193314Y-69946780D02*
X66621885Y-69946780D01*
X66907600Y-69946780D02*
X66907600Y-68946780D01*
X66812361Y-69089638D01*
X66717123Y-69184876D01*
X66621885Y-69232495D01*
%TO.C,D2*%
X63410704Y-68097580D02*
X63410704Y-67097580D01*
X63648800Y-67097580D01*
X63791657Y-67145200D01*
X63886895Y-67240438D01*
X63934514Y-67335676D01*
X63982133Y-67526152D01*
X63982133Y-67669009D01*
X63934514Y-67859485D01*
X63886895Y-67954723D01*
X63791657Y-68049961D01*
X63648800Y-68097580D01*
X63410704Y-68097580D01*
X64363085Y-67192819D02*
X64410704Y-67145200D01*
X64505942Y-67097580D01*
X64744038Y-67097580D01*
X64839276Y-67145200D01*
X64886895Y-67192819D01*
X64934514Y-67288057D01*
X64934514Y-67383295D01*
X64886895Y-67526152D01*
X64315466Y-68097580D01*
X64934514Y-68097580D01*
X60284514Y-69997580D02*
X59713085Y-69997580D01*
X59998800Y-69997580D02*
X59998800Y-68997580D01*
X59903561Y-69140438D01*
X59808323Y-69235676D01*
X59713085Y-69283295D01*
%TO.C,D1*%
X59877904Y-85623580D02*
X59877904Y-84623580D01*
X60116000Y-84623580D01*
X60258857Y-84671200D01*
X60354095Y-84766438D01*
X60401714Y-84861676D01*
X60449333Y-85052152D01*
X60449333Y-85195009D01*
X60401714Y-85385485D01*
X60354095Y-85480723D01*
X60258857Y-85575961D01*
X60116000Y-85623580D01*
X59877904Y-85623580D01*
X61401714Y-85623580D02*
X60830285Y-85623580D01*
X61116000Y-85623580D02*
X61116000Y-84623580D01*
X61020761Y-84766438D01*
X60925523Y-84861676D01*
X60830285Y-84909295D01*
X56751714Y-87523580D02*
X56180285Y-87523580D01*
X56466000Y-87523580D02*
X56466000Y-86523580D01*
X56370761Y-86666438D01*
X56275523Y-86761676D01*
X56180285Y-86809295D01*
D11*
%TO.C,R1*%
X177809258Y-82408500D02*
X177334742Y-82408500D01*
X177809258Y-83453500D02*
X177334742Y-83453500D01*
%TO.C,D16*%
X176690000Y-68522400D02*
X183990000Y-68522400D01*
X176690000Y-74022400D02*
X183990000Y-74022400D01*
X183990000Y-74022400D02*
X183990000Y-72872400D01*
%TO.C,D15*%
X168929000Y-68496800D02*
X176229000Y-68496800D01*
X168929000Y-73996800D02*
X176229000Y-73996800D01*
X176229000Y-73996800D02*
X176229000Y-72846800D01*
%TO.C,D14*%
X161247000Y-68573200D02*
X168547000Y-68573200D01*
X161247000Y-74073200D02*
X168547000Y-74073200D01*
X168547000Y-74073200D02*
X168547000Y-72923200D01*
%TO.C,D13*%
X152103000Y-68370000D02*
X159403000Y-68370000D01*
X152103000Y-73870000D02*
X159403000Y-73870000D01*
X159403000Y-73870000D02*
X159403000Y-72720000D01*
%TO.C,D12*%
X144076000Y-68370000D02*
X151376000Y-68370000D01*
X144076000Y-73870000D02*
X151376000Y-73870000D01*
X151376000Y-73870000D02*
X151376000Y-72720000D01*
%TO.C,D11*%
X156612000Y-83228800D02*
X163912000Y-83228800D01*
X156612000Y-88728800D02*
X163912000Y-88728800D01*
X163912000Y-88728800D02*
X163912000Y-87578800D01*
%TO.C,D10*%
X149563000Y-83254400D02*
X156863000Y-83254400D01*
X149563000Y-88754400D02*
X156863000Y-88754400D01*
X156863000Y-88754400D02*
X156863000Y-87604400D01*
%TO.C,D9*%
X152396000Y-77488800D02*
X159696000Y-77488800D01*
X152396000Y-82988800D02*
X159696000Y-82988800D01*
X159696000Y-82988800D02*
X159696000Y-81838800D01*
%TO.C,D8*%
X129102000Y-79469600D02*
X136402000Y-79469600D01*
X129102000Y-84969600D02*
X136402000Y-84969600D01*
X136402000Y-84969600D02*
X136402000Y-83819600D01*
%TO.C,D7*%
X118829000Y-81984400D02*
X126129000Y-81984400D01*
X118829000Y-87484400D02*
X126129000Y-87484400D01*
X126129000Y-87484400D02*
X126129000Y-86334400D01*
%TO.C,D6*%
X103905000Y-70071600D02*
X111205000Y-70071600D01*
X103905000Y-75571600D02*
X111205000Y-75571600D01*
X111205000Y-75571600D02*
X111205000Y-74421600D01*
%TO.C,D5*%
X91662400Y-80130000D02*
X98962400Y-80130000D01*
X91662400Y-85630000D02*
X98962400Y-85630000D01*
X98962400Y-85630000D02*
X98962400Y-84480000D01*
%TO.C,D4*%
X71116000Y-85616400D02*
X78416000Y-85616400D01*
X71116000Y-91116400D02*
X78416000Y-91116400D01*
X78416000Y-91116400D02*
X78416000Y-89966400D01*
%TO.C,D3*%
X67407600Y-68344400D02*
X74707600Y-68344400D01*
X67407600Y-73844400D02*
X74707600Y-73844400D01*
X74707600Y-73844400D02*
X74707600Y-72694400D01*
%TO.C,D2*%
X60498800Y-68395200D02*
X67798800Y-68395200D01*
X60498800Y-73895200D02*
X67798800Y-73895200D01*
X67798800Y-73895200D02*
X67798800Y-72745200D01*
%TO.C,D1*%
X56966000Y-85921200D02*
X64266000Y-85921200D01*
X56966000Y-91421200D02*
X64266000Y-91421200D01*
X64266000Y-91421200D02*
X64266000Y-90271200D01*
%TD*%
%LPC*%
D12*
%TO.C,R1*%
X178397000Y-82931000D03*
X176747000Y-82931000D03*
%TD*%
D13*
%TO.C,J2*%
X187706000Y-79375000D03*
D14*
X191906000Y-79375000D03*
X187706000Y-73875000D03*
X191906000Y-73875000D03*
%TD*%
D13*
%TO.C,J1*%
X198619000Y-79414000D03*
D14*
X202819000Y-79414000D03*
X198619000Y-73914000D03*
X202819000Y-73914000D03*
%TD*%
D15*
%TO.C,D17*%
X180340000Y-82931000D03*
D16*
X182880000Y-82931000D03*
%TD*%
D17*
%TO.C,D16*%
X177890000Y-69622400D03*
X177890000Y-72922400D03*
X182790000Y-72922400D03*
X182790000Y-69622400D03*
%TD*%
%TO.C,D15*%
X170129000Y-69596800D03*
X170129000Y-72896800D03*
X175029000Y-72896800D03*
X175029000Y-69596800D03*
%TD*%
%TO.C,D14*%
X162447000Y-69673200D03*
X162447000Y-72973200D03*
X167347000Y-72973200D03*
X167347000Y-69673200D03*
%TD*%
%TO.C,D13*%
X153303000Y-69470000D03*
X153303000Y-72770000D03*
X158203000Y-72770000D03*
X158203000Y-69470000D03*
%TD*%
%TO.C,D12*%
X145276000Y-69470000D03*
X145276000Y-72770000D03*
X150176000Y-72770000D03*
X150176000Y-69470000D03*
%TD*%
%TO.C,D11*%
X157812000Y-84328800D03*
X157812000Y-87628800D03*
X162712000Y-87628800D03*
X162712000Y-84328800D03*
%TD*%
%TO.C,D10*%
X150763000Y-84354400D03*
X150763000Y-87654400D03*
X155663000Y-87654400D03*
X155663000Y-84354400D03*
%TD*%
%TO.C,D9*%
X153596000Y-78588800D03*
X153596000Y-81888800D03*
X158496000Y-81888800D03*
X158496000Y-78588800D03*
%TD*%
%TO.C,D8*%
X130302000Y-80569600D03*
X130302000Y-83869600D03*
X135202000Y-83869600D03*
X135202000Y-80569600D03*
%TD*%
%TO.C,D7*%
X120029000Y-83084400D03*
X120029000Y-86384400D03*
X124929000Y-86384400D03*
X124929000Y-83084400D03*
%TD*%
%TO.C,D6*%
X105105000Y-71171600D03*
X105105000Y-74471600D03*
X110005000Y-74471600D03*
X110005000Y-71171600D03*
%TD*%
%TO.C,D5*%
X92862400Y-81230000D03*
X92862400Y-84530000D03*
X97762400Y-84530000D03*
X97762400Y-81230000D03*
%TD*%
%TO.C,D4*%
X72316000Y-86716400D03*
X72316000Y-90016400D03*
X77216000Y-90016400D03*
X77216000Y-86716400D03*
%TD*%
%TO.C,D3*%
X68607600Y-69444400D03*
X68607600Y-72744400D03*
X73507600Y-72744400D03*
X73507600Y-69444400D03*
%TD*%
%TO.C,D2*%
X61698800Y-69495200D03*
X61698800Y-72795200D03*
X66598800Y-72795200D03*
X66598800Y-69495200D03*
%TD*%
%TO.C,D1*%
X58166000Y-87021200D03*
X58166000Y-90321200D03*
X63066000Y-90321200D03*
X63066000Y-87021200D03*
%TD*%
D18*
%TO.C,REF\u002A\u002A*%
X142494000Y-82423000D03*
X142494000Y-82423000D03*
D19*
X142494000Y-72898000D03*
%TD*%
%TO.C,REF\u002A\u002A*%
X117094000Y-82423000D03*
D18*
X107569000Y-82423000D03*
X107569000Y-82423000D03*
%TD*%
D20*
%TO.C,REF\u002A\u002A*%
X212344000Y-74168000D03*
%TD*%
%TO.C,REF\u002A\u002A*%
X171196000Y-83693000D03*
%TD*%
%TO.C,REF\u002A\u002A*%
X84074000Y-76073000D03*
%TD*%
M02*
