<?xml version="1.0" encoding="utf-8"?>
<!-- Generator: Fusion 360, Shaper Origin Export Add-In, Version 1.6.10  -->
<svg xmlns="http://www.w3.org/2000/svg" xmlns:xlink="http://www.w3.org/1999/xlink" xmlns:shaper="http://www.shapertools.com/namespaces/shaper" shaper:fusionaddin="version:1.6.10" width="9.04875cm" height="5.23875cm" version="1.1" x="0cm" y="0cm" viewBox="0 0 9.04875 5.23875" enable-background="new 0 0 9.04875 5.23875" xml:space="preserve"><path d="M4.111625,1.647825 A0.5588,0.5588 270 0,0 3.552825,2.206625 L3.552825,2.543175 A0.0762,0.0762 0 0,1 3.476625,2.619375 L-4.448175,2.619375 A0.0762,0.0762 90 0,1 -4.524375,2.543175 L-4.524375,-2.543175 A0.0762,0.0762 180 0,1 -4.448175,-2.619375 L4.448175,-2.619375 A0.0762,0.0762 270 0,1 4.524375,-2.543175 L4.524375,1.571625 A0.0762,0.0762 0 0,1 4.448175,1.647825 L4.111625,1.647825z" transform="matrix(1,0,0,-1,4.524375,2.619375)" fill="rgb(0,0,0)" shaper:cutDepth="0.0047625" stroke-linecap="round" stroke-linejoin="round" /><path d="M-2.619375,-0.079375 a0.9525,0.9525 0 1,1 1.905,0 a0.9525,0.9525 0 1,1 -1.905,0z" transform="matrix(1,0,0,-1,4.524375,2.619375)" fill="rgb(255,255,255)" stroke="rgb(0,0,0)" stroke-width="0.0010cm" stroke-linecap="round" stroke-linejoin="round" shaper:cutDepth="0.0047625" /><path d="M0.581025,-0.079375 a0.9525,0.9525 0 1,1 1.905,0 a0.9525,0.9525 0 1,1 -1.905,0z" transform="matrix(1,0,0,-1,4.524375,2.619375)" fill="rgb(255,255,255)" stroke="rgb(0,0,0)" stroke-width="0.0010cm" stroke-linecap="round" stroke-linejoin="round" shaper:cutDepth="0.0047625" /><path d="M3.51536,-0.028575 a0.215265,0.215265 0 1,1 0.43053,0 a0.215265,0.215265 0 1,1 -0.43053,0z" transform="matrix(1,0,0,-1,4.524375,2.619375)" fill="rgb(255,255,255)" stroke="rgb(0,0,0)" stroke-width="0.0010cm" stroke-linecap="round" stroke-linejoin="round" shaper:cutDepth="0.0047625" /><path d="M-3.94589,-0.028575 a0.215265,0.215265 0 1,1 0.43053,0 a0.215265,0.215265 0 1,1 -0.43053,0z" transform="matrix(1,0,0,-1,4.524375,2.619375)" fill="rgb(255,255,255)" stroke="rgb(0,0,0)" stroke-width="0.0010cm" stroke-linecap="round" stroke-linejoin="round" shaper:cutDepth="0.0047625" /></svg>