<?xml version="1.0" encoding="utf-8"?>
<!-- Generator: Fusion 360, Shaper Origin Export Add-In, Version 1.6.10  -->
<svg xmlns="http://www.w3.org/2000/svg" xmlns:xlink="http://www.w3.org/1999/xlink" xmlns:shaper="http://www.shapertools.com/namespaces/shaper" shaper:fusionaddin="version:1.6.10" width="16.66875cm" height="6.5379451cm" version="1.1" x="0cm" y="0cm" viewBox="0 0 16.66875 6.5379451" enable-background="new 0 0 16.66875 6.5379451" xml:space="preserve"><path d="M-5.7347417,0.8585275 A0.47625,0.47625 0 0,0 -6.2109917,0.3822775 L-6.5284917,0.3822775 -6.5284917,-3.2689725 10.1402583,-3.2689725 10.1402583,-0.3479725 7.4415083,-0.3479725 A0.47625,0.47625 270 0,0 6.9652583,0.1282775 L6.9652583,2.7200935 -5.7347417,3.2689725 -5.7347417,0.8585275z" transform="matrix(1,0,0,-1,6.5284917,3.2689725)" fill="rgb(0,0,0)" shaper:cutDepth="0.003175" stroke-linecap="round" stroke-linejoin="round" /><path d="M-1.5104352,1.8400271 A0.15875,0.15875 180 0,0 -1.3516852,1.9987771 L-0.751954,1.9987771 A0.15875,0.15875 90 0,0 -0.593204,1.8400271 L-0.593204,0.2221938 A0.15875,0.15875 0 0,0 -0.751954,0.0634438 L-1.3516852,0.0634438 A0.15875,0.15875 270 0,0 -1.5104352,0.2221938 L-1.5104352,1.8400271z" transform="matrix(1,0,0,-1,6.5284917,3.2689725)" fill="rgb(255,255,255)" stroke="rgb(0,0,0)" stroke-width="0.0010cm" stroke-linecap="round" stroke-linejoin="round" shaper:cutDepth="0.003175" /><path d="M-0.2143187,2.0899529 A0.15875,0.15875 90 0,1 -0.3730687,1.9312029 L-0.3730687,1.7462225 A0.15875,0.15875 180 0,1 -0.2143187,1.5874725 L0.3072839,1.5874725 A0.15875,0.15875 270 0,1 0.4660339,1.7462225 L0.4660339,1.9312029 A0.15875,0.15875 0 0,1 0.3072839,2.0899529 L-0.2143187,2.0899529z" transform="matrix(1,0,0,-1,6.5284917,3.2689725)" fill="rgb(255,255,255)" stroke="rgb(0,0,0)" stroke-width="0.0010cm" stroke-linecap="round" stroke-linejoin="round" shaper:cutDepth="0.003175" /><path d="M2.2750885,0.3306994 A0.15875,0.15875 0 0,0 2.218501,0.2091906 A0.13335,0.13335 130.0565297 0,1 2.1709674,0.1071232 L2.1709674,-0.2070196 A0.15875,0.15875 0 0,0 2.0122174,-0.3657696 L1.6691852,-0.3657696 A0.15875,0.15875 270 0,0 1.5104352,-0.2070196 L1.5104352,0.1552092 A0.15875,0.15875 180 0,0 1.6691852,0.3139592 L1.7930646,0.3139592 A0.15875,0.15875 270 0,1 1.9437703,0.4228157 A0.15875,0.15875 161.6820843 0,0 2.094476,0.5316723 L2.1163385,0.5316723 A0.15875,0.15875 90 0,0 2.2750885,0.3729223 L2.2750885,0.3306994z" transform="matrix(1,0,0,-1,6.5284917,3.2689725)" fill="rgb(255,255,255)" stroke="rgb(0,0,0)" stroke-width="0.0010cm" stroke-linecap="round" stroke-linejoin="round" shaper:cutDepth="0.003175" /><path d="M1.6773129,0.9390327 L1.6773129,0.6816303 A0.0889,0.0889 0 0,0 1.5884129,0.5927303 L1.1743123,0.5927303 A0.2032,0.2032 270 0,0 1.0301486,0.6527273 A0.15875,0.15875 44.8084659 0,1 0.9175208,0.6996 L0.4978955,0.6996 A0.15875,0.15875 90 0,1 0.40337,0.6683901 A0.15875,0.15875 306.5437421 0,0 0.3088445,0.6371803 L-0.1323603,0.6371803 A0.15875,0.15875 270 0,0 -0.2911103,0.7959303 L-0.2911103,1.1222593 A0.15875,0.15875 180 0,0 -0.1323603,1.2810093 L0.3244401,1.2810093 A0.13335,0.13335 270 0,1 0.3625463,1.2865698 A0.15875,0.15875 106.60434 0,0 0.4079109,1.2931896 L0.988126,1.2931896 A0.15875,0.15875 90 0,0 1.057766,1.2770994 A0.15875,0.15875 243.9804911 0,1 1.127406,1.2610093 L1.4546535,1.2610093 A0.13335,0.13335 270 0,1 1.552094,1.3033232 A0.1778,0.1778 136.9461521 0,0 1.8371853,1.2687455 A0.15875,0.15875 18.2416281 0,0 1.7612381,1.0790427 A0.15875,0.15875 118.1211369 0,1 1.6773129,0.9390327z" transform="matrix(1,0,0,-1,6.5284917,3.2689725)" fill="rgb(255,255,255)" stroke="rgb(0,0,0)" stroke-width="0.0010cm" stroke-linecap="round" stroke-linejoin="round" shaper:cutDepth="0.003175" /><path d="M4.8257013,0.7595139 L4.8257013,0.7425223 A0.15875,0.15875 180 0,1 5.0022031,0.584768 A0.3442806,0.3442806 96.4203688 0,0 5.384982,0.2426466 L5.384982,-0.8812347 A0.3442806,0.3442806 0 0,0 4.6964207,-0.8812347 L4.6964207,0.2426466 A0.3442806,0.3442806 180 0,0 4.6964519,0.2472834 A0.15875,0.15875 359.2283089 0,1 4.5377163,0.4081715 L4.3144513,0.4081715 A0.15875,0.15875 270 0,0 4.1557013,0.5669215 L4.1557013,0.6339033 A0.15875,0.15875 0 0,1 3.9969513,0.7926533 L3.8108644,0.7926533 A0.15875,0.15875 90 0,1 3.6521144,0.6339033 L3.6521144,0.5592488 A0.15875,0.15875 0 0,0 3.4933644,0.4004988 L3.1530383,0.4004988 A0.15875,0.15875 270 0,0 2.9942883,0.5592488 L2.9942883,0.9135408 A0.15875,0.15875 180 0,0 3.1530383,1.0722908 L3.4119513,1.0722908 A0.15875,0.15875 270 0,1 3.5707013,1.2310408 L3.5707013,1.2713862 A0.15875,0.15875 180 0,0 3.7294513,1.4301362 L4.0819513,1.4301362 A0.15875,0.15875 90 0,0 4.2407013,1.2713862 L4.2407013,1.2183681 A0.15875,0.15875 180 0,1 4.3994513,1.0596181 L4.5879966,1.0596181 A0.15875,0.15875 270 0,1 4.7298876,1.1471745 A0.15875,0.15875 153.3548698 0,0 4.8717785,1.234731 A0.15875,0.15875 84.0757773 0,0 5.0141434,1.0768288 L5.0141434,1.0496006 A0.15875,0.15875 0 0,0 4.9199224,0.9045572 A0.15875,0.15875 113.9839995 0,1 4.8257013,0.7595139z" transform="matrix(1,0,0,-1,6.5284917,3.2689725)" fill="rgb(255,255,255)" stroke="rgb(0,0,0)" stroke-width="0.0010cm" stroke-linecap="round" stroke-linejoin="round" shaper:cutDepth="0.003175" /><path d="M3.4857013,2.1117735 L1.2307013,2.1117735 A0.2903787,0.2903787 90 0,1 1.2307013,1.5310161 L3.4857013,1.5310161 A0.2903787,0.2903787 270 1,1 3.4857013,2.1117735z" transform="matrix(1,0,0,-1,6.5284917,3.2689725)" fill="rgb(255,255,255)" stroke="rgb(0,0,0)" stroke-width="0.0010cm" stroke-linecap="round" stroke-linejoin="round" shaper:cutDepth="0.003175" /><path d="M1.2209839,-1.2371934 L0.0303869,-1.2371934 A0.3167618,0.3167618 90 0,1 0.0303869,-1.870717 L1.2209839,-1.870717 A0.3167618,0.3167618 270 1,1 1.2209839,-1.2371934z" transform="matrix(1,0,0,-1,6.5284917,3.2689725)" fill="rgb(255,255,255)" stroke="rgb(0,0,0)" stroke-width="0.0010cm" stroke-linecap="round" stroke-linejoin="round" shaper:cutDepth="0.003175" /><path d="M4.6029306,-1.2236236 L3.4414209,-1.1982687 A0.3181149,0.3181149 88.7494746 0,1 3.4275358,-1.8343469 L4.5890455,-1.8597018 A0.3181149,0.3181149 268.7494746 1,1 4.6029306,-1.2236236z" transform="matrix(1,0,0,-1,6.5284917,3.2689725)" fill="rgb(255,255,255)" stroke="rgb(0,0,0)" stroke-width="0.0010cm" stroke-linecap="round" stroke-linejoin="round" shaper:cutDepth="0.003175" /><path d="M0.0755083,-0.4749725 a0.635,0.635 0 1,1 1.27,0 a0.635,0.635 0 1,1 -1.27,0z" transform="matrix(1,0,0,-1,6.5284917,3.2689725)" fill="rgb(255,255,255)" stroke="rgb(0,0,0)" stroke-width="0.0010cm" stroke-linecap="round" stroke-linejoin="round" shaper:cutDepth="0.003175" /><path d="M5.8927433,-0.4241725 a0.215265,0.215265 0 1,1 0.43053,0 a0.215265,0.215265 0 1,1 -0.43053,0z" transform="matrix(1,0,0,-1,6.5284917,3.2689725)" fill="rgb(255,255,255)" stroke="rgb(0,0,0)" stroke-width="0.0010cm" stroke-linecap="round" stroke-linejoin="round" shaper:cutDepth="0.003175" /><path d="M-1.5685067,-0.4241725 a0.215265,0.215265 0 1,1 0.43053,0 a0.215265,0.215265 0 1,1 -0.43053,0z" transform="matrix(1,0,0,-1,6.5284917,3.2689725)" fill="rgb(255,255,255)" stroke="rgb(0,0,0)" stroke-width="0.0010cm" stroke-linecap="round" stroke-linejoin="round" shaper:cutDepth="0.003175" /><path d="M-5.4737567,2.1920275 a0.215265,0.215265 0 1,1 0.43053,0 a0.215265,0.215265 0 1,1 -0.43053,0z" transform="matrix(1,0,0,-1,6.5284917,3.2689725)" fill="rgb(255,255,255)" stroke="rgb(0,0,0)" stroke-width="0.0010cm" stroke-linecap="round" stroke-linejoin="round" shaper:cutDepth="0.003175" /><path d="M-5.3150067,-2.6339725 a0.215265,0.215265 0 1,1 0.43053,0 a0.215265,0.215265 0 1,1 -0.43053,0z" transform="matrix(1,0,0,-1,6.5284917,3.2689725)" fill="rgb(255,255,255)" stroke="rgb(0,0,0)" stroke-width="0.0010cm" stroke-linecap="round" stroke-linejoin="round" shaper:cutDepth="0.003175" /><path d="M8.0199933,-2.6339725 a0.215265,0.215265 0 1,1 0.43053,0 a0.215265,0.215265 0 1,1 -0.43053,0z" transform="matrix(1,0,0,-1,6.5284917,3.2689725)" fill="rgb(255,255,255)" stroke="rgb(0,0,0)" stroke-width="0.0010cm" stroke-linecap="round" stroke-linejoin="round" shaper:cutDepth="0.003175" /><path d="M6.2737433,1.8110275 a0.215265,0.215265 0 1,1 0.43053,0 a0.215265,0.215265 0 1,1 -0.43053,0z" transform="matrix(1,0,0,-1,6.5284917,3.2689725)" fill="rgb(255,255,255)" stroke="rgb(0,0,0)" stroke-width="0.0010cm" stroke-linecap="round" stroke-linejoin="round" shaper:cutDepth="0.003175" /><path d="M3.7323082,0.4775275 a0.1786001,0.1786001 0 1,1 0.3572002,0 a0.1786001,0.1786001 0 1,1 -0.3572002,0z" transform="matrix(1,0,0,-1,6.5284917,3.2689725)" fill="rgb(255,255,255)" stroke="rgb(0,0,0)" stroke-width="0.0010cm" stroke-linecap="round" stroke-linejoin="round" shaper:cutDepth="0.003175" /><path d="M0.5319082,0.4775275 a0.1786001,0.1786001 0 1,1 0.3572002,0 a0.1786001,0.1786001 0 1,1 -0.3572002,0z" transform="matrix(1,0,0,-1,6.5284917,3.2689725)" fill="rgb(255,255,255)" stroke="rgb(0,0,0)" stroke-width="0.0010cm" stroke-linecap="round" stroke-linejoin="round" shaper:cutDepth="0.003175" /><path d="M3.2759083,-0.4749725 a0.635,0.635 0 1,1 1.27,0 a0.635,0.635 0 1,1 -1.27,0z" transform="matrix(1,0,0,-1,6.5284917,3.2689725)" fill="rgb(255,255,255)" stroke="rgb(0,0,0)" stroke-width="0.0010cm" stroke-linecap="round" stroke-linejoin="round" shaper:cutDepth="0.003175" /><path d="M1.5104352,-0.6117002 A0.15875,0.15875 180 0,0 1.6691852,-0.4529502 L2.0122174,-0.4529502 A0.15875,0.15875 90 0,0 2.1709674,-0.6117002 L2.1709674,-0.9755102 A0.15875,0.15875 0 0,0 2.0122174,-1.1342602 L1.6691852,-1.1342602 A0.15875,0.15875 270 0,0 1.5104352,-0.9755102 L1.5104352,-0.6117002z" transform="matrix(1,0,0,-1,6.5284917,3.2689725)" fill="rgb(255,255,255)" stroke="rgb(0,0,0)" stroke-width="0.0010cm" stroke-linecap="round" stroke-linejoin="round" shaper:cutDepth="0.003175" /></svg>