<?xml version="1.0" encoding="utf-8"?>
<!-- Generator: Fusion 360, Shaper Origin Export Add-In, Version 1.6.10  -->
<svg xmlns="http://www.w3.org/2000/svg" xmlns:xlink="http://www.w3.org/1999/xlink" xmlns:shaper="http://www.shapertools.com/namespaces/shaper" shaper:fusionaddin="version:1.6.10" width="9.04875cm" height="5.23875cm" version="1.1" x="0cm" y="0cm" viewBox="0 0 9.04875 5.23875" enable-background="new 0 0 9.04875 5.23875" xml:space="preserve"><path d="M4.111625,1.647825 A0.5588,0.5588 270 0,0 3.552825,2.206625 L3.552825,2.543175 A0.0762,0.0762 0 0,1 3.476625,2.619375 L-4.448175,2.619375 A0.0762,0.0762 90 0,1 -4.524375,2.543175 L-4.524375,-2.543175 A0.0762,0.0762 180 0,1 -4.448175,-2.619375 L4.448175,-2.619375 A0.0762,0.0762 270 0,1 4.524375,-2.543175 L4.524375,1.571625 A0.0762,0.0762 0 0,1 4.448175,1.647825 L4.111625,1.647825z" transform="matrix(1,0,0,-1,4.524375,2.619375)" fill="rgb(0,0,0)" shaper:cutDepth="0.0015875" stroke-linecap="round" stroke-linejoin="round" /><path d="M2.6501751,-0.1277637 L2.5423492,-0.1277637 2.5423492,-0.0891428 2.8017566,-0.0891428 2.8017566,-0.1277637 2.6934841,-0.1277637 2.6934841,-0.4164158 2.6501751,-0.4164158 2.6501751,-0.1277637z" transform="matrix(1,0,0,-1,4.524375,2.619375)" fill="rgb(104,104,104)" fill-rule="nonzero" shaper:cutDepth="0.0000762" stroke-linecap="round" stroke-linejoin="round" /><path d="M-0.4087963,0.3221979 L-0.4087963,0.1331118 -0.4087963,0.1331118 -0.4092687,0.1131676 -0.4109123,0.0934025 -0.4146985,0.0739654 -0.4199584,0.0547538 -0.4199584,0.0547538 -0.4272941,0.0406342 -0.4314381,0.0339772 -0.4361534,0.0278032 -0.4415468,0.0222027 -0.4474815,0.0170601 -0.4602536,0.0075381 -0.4602536,0.0075381 -0.4784265,-0.0007719 -0.4876846,-0.0042421 -0.4971476,-0.0068937 -0.5068364,-0.0086442 -0.516699,-0.0097005 -0.536714,-0.0106562 -0.536714,-0.0106562 -0.5562157,-0.0098229 -0.5658548,-0.0089024 -0.5753599,-0.0073771 -0.5846912,-0.0050671 -0.5938644,-0.0020443 -0.6119467,0.005194 -0.6119467,0.005194 -0.6251685,0.0141341 -0.6313067,0.0190333 -0.6368778,0.0244475 -0.6417514,0.030495 -0.6460509,0.0370638 -0.653693,0.0510703 -0.653693,0.0510703 -0.6595977,0.0711248 -0.6620287,0.0812376 -0.6638407,0.0914519 -0.6656749,0.112174 -0.6661945,0.1331118 -0.6661945,0.3221979 -0.6228855,0.3221979 -0.6228855,0.133335 -0.6228855,0.133335 -0.6226834,0.1173739 -0.6216078,0.1015357 -0.618889,0.0859288 -0.6149604,0.0704924 -0.6149604,0.0704924 -0.6100545,0.0610462 -0.6041059,0.0525099 -0.5964304,0.0454806 -0.5877249,0.0393501 -0.5877249,0.0393501 -0.576436,0.0344687 -0.5648531,0.0308125 -0.5528116,0.0290682 -0.5405092,0.0284112 -0.5405092,0.0284112 -0.5218829,0.0292183 -0.5128207,0.0303426 -0.5040597,0.0323317 -0.4956961,0.0354623 -0.4877195,0.0397039 -0.4724203,0.0500657 -0.4724203,0.0500657 -0.4620761,0.0694065 -0.4579643,0.0793743 -0.4550707,0.0896836 -0.4533243,0.1003146 -0.4524394,0.1111872 -0.4521053,0.133335 -0.4521053,0.3221979 -0.4087963,0.3221979z" transform="matrix(1,0,0,-1,4.524375,2.619375)" fill="rgb(104,104,104)" fill-rule="nonzero" shaper:cutDepth="0.0000762" stroke-linecap="round" stroke-linejoin="round" /><path d="M-0.5578342,-0.1335433 L-0.6656602,-0.1335433 -0.6656602,-0.0949224 -0.4062527,-0.0949224 -0.4062527,-0.1335433 -0.5145252,-0.1335433 -0.5145252,-0.4221954 -0.5578342,-0.4221954 -0.5578342,-0.1335433z" transform="matrix(1,0,0,-1,4.524375,2.619375)" fill="rgb(104,104,104)" fill-rule="nonzero" shaper:cutDepth="0.0000762" stroke-linecap="round" stroke-linejoin="round" /><path d="M2.5535172,0.3221369 L2.5535172,0.3221369 2.5657852,0.3323715 2.5782936,0.3420256 2.5912828,0.3505185 2.6049933,0.35727 2.6195625,0.361948 2.634819,0.3649662 2.6664777,0.3682364 2.6664777,0.3682364 2.6879315,0.3666603 2.6984856,0.3652264 2.7088322,0.3630176 2.718921,0.3598457 2.7287949,0.3558707 2.7481844,0.346582 2.7481844,0.346582 2.7651306,0.3343166 2.7730772,0.3276994 2.7803919,0.3205009 2.7869385,0.3125957 2.7928597,0.3041151 2.8036601,0.2861949 2.8036601,0.2861949 2.8119673,0.2650161 2.815503,0.2542898 2.8182975,0.2433995 2.820219,0.232316 2.8214471,0.221079 2.8227473,0.1983491 2.8227473,0.1983491 2.8213662,0.1752448 2.8200686,0.163832 2.8180423,0.1525864 2.8151006,0.141551 2.8113832,0.1306936 2.8026554,0.1092755 2.8026554,0.1092755 2.791548,0.0914005 2.7854667,0.0829698 2.7787524,0.0751473 2.7712547,0.0680774 2.7631071,0.0616319 2.7457287,0.0497815 2.7457287,0.0497815 2.7267526,0.0412274 2.717112,0.0375492 2.7072883,0.0345896 2.6972417,0.0325048 2.6870136,0.0311331 2.6662545,0.0295781 2.6662545,0.0295781 2.6445172,0.0311826 2.6338312,0.0326526 2.6233643,0.0349239 2.6131703,0.0381936 2.6032049,0.0422989 2.5836549,0.0519023 2.5836549,0.0519023 2.5668087,0.0643679 2.558908,0.0710735 2.551634,0.0783464 2.545125,0.0863118 2.5392408,0.0948427 2.5285141,0.1128474 2.5285141,0.1128474 2.5205961,0.1325324 2.5171881,0.1425014 2.5144411,0.1526222 2.5125014,0.1629284 2.5112216,0.1733861 2.5097617,0.194554 2.5097617,0.194554 2.5122694,0.2294696 2.5148941,0.2464363 2.5191639,0.2628139 2.5255524,0.2784325 2.533825,0.2933764 2.5433564,0.3078694 2.5535172,0.3221369z M2.5862222,0.1006807 L2.5862222,0.1006807 2.6036175,0.0862057 2.6127537,0.079991 2.6224161,0.0750038 2.6327162,0.0715038 2.6435337,0.0692108 2.6660312,0.0666363 2.6660312,0.0666363 2.6887531,0.069188 2.6996746,0.0714842 2.7100689,0.075005 2.7198106,0.0800411 2.7290111,0.0863343 2.7465101,0.1010156 2.7465101,0.1010156 2.7609235,0.1231798 2.7669448,0.1346667 2.7715491,0.1466374 2.7745913,0.1591415 2.7764294,0.1720567 2.7780988,0.1985724 2.7780988,0.1985724 2.777253,0.2165176 2.7750754,0.2341974 2.770572,0.2514136 2.7645927,0.2683356 2.7645927,0.2683356 2.7570774,0.2819192 2.7529217,0.2883689 2.7482883,0.2944081 2.7430619,0.2999378 2.7373419,0.3050432 2.7250788,0.3145467 2.7250788,0.3145467 2.7113079,0.321557 2.7042807,0.3245614 2.6970833,0.326965 2.6896809,0.3286446 2.6821129,0.3297396 2.666701,0.330955 2.666701,0.330955 2.644743,0.3284983 2.6341341,0.3263434 2.6239694,0.3230766 2.6143481,0.3184493 2.6051719,0.3127075 2.5875616,0.2993662 2.5875616,0.2993662 2.5793383,0.287585 2.571691,0.2756055 2.5651958,0.2632295 2.5604035,0.2502674 2.5573598,0.2367035 2.5556406,0.2226837 2.5544102,0.1938843 2.5544102,0.1938843 2.5562608,0.1684125 2.5581802,0.1560302 2.5612924,0.1440723 2.5659384,0.1326601 2.5719433,0.1217312 2.5862222,0.1006807z" transform="matrix(1,0,0,-1,4.524375,2.619375)" fill="rgb(104,104,104)" fill-rule="nonzero" shaper:cutDepth="0.0000762" stroke-linecap="round" stroke-linejoin="round" /><path d="M2.5633939,-0.5007691 L2.6067028,-0.5007691 2.6067028,-0.6351609 2.7768134,-0.6351609 2.7768134,-0.5007691 2.8201224,-0.5007691 2.8201224,-0.8280422 2.7768134,-0.8280422 2.7768134,-0.6737818 2.6067028,-0.6737818 2.6067028,-0.8280422 2.5633939,-0.8280422 2.5633939,-0.5007691z" transform="matrix(1,0,0,-1,4.524375,2.619375)" fill="rgb(104,104,104)" fill-rule="nonzero" shaper:cutDepth="0.0000762" stroke-linecap="round" stroke-linejoin="round" /><path d="M-0.5733821,0.7336815 L-0.5267245,0.7336815 -0.3927792,0.4064084 -0.4421157,0.4064084 -0.4802901,0.505528 -0.6171376,0.505528 -0.6530796,0.4064084 -0.6990675,0.4064084 -0.5733821,0.7336815z M-0.4936847,0.5408002 L-0.5278407,0.6314366 -0.5278407,0.6314366 -0.5401254,0.6651398 -0.5510579,0.6993022 -0.5510579,0.6993022 -0.5586577,0.6677049 -0.568694,0.6367944 -0.604636,0.5408002 -0.4936847,0.5408002z" transform="matrix(1,0,0,-1,4.524375,2.619375)" fill="rgb(104,104,104)" fill-rule="nonzero" shaper:cutDepth="0.0000762" stroke-linecap="round" stroke-linejoin="round" /><path d="M-0.6358899,-0.5381622 L-0.6358899,-0.5381622 -0.6236219,-0.5279276 -0.6111135,-0.5182736 -0.5981243,-0.5097806 -0.5844138,-0.5030291 -0.5698446,-0.4983511 -0.5545881,-0.4953329 -0.5229294,-0.4920627 -0.5229294,-0.4920627 -0.5014756,-0.4936389 -0.4909215,-0.4950727 -0.4805749,-0.4972815 -0.470486,-0.5004534 -0.4606122,-0.5044284 -0.4412227,-0.5137172 -0.4412227,-0.5137172 -0.4242765,-0.5259825 -0.41633,-0.5325997 -0.4090152,-0.5397982 -0.4024687,-0.5477035 -0.3965474,-0.5561841 -0.385747,-0.5741042 -0.385747,-0.5741042 -0.3774398,-0.5952831 -0.3739041,-0.6060093 -0.3711096,-0.6168996 -0.3691881,-0.6279831 -0.3679601,-0.6392201 -0.3666598,-0.66195 -0.3666598,-0.66195 -0.3680409,-0.6850543 -0.3693385,-0.6964671 -0.3713648,-0.7077127 -0.3743065,-0.7187481 -0.3780239,-0.7296056 -0.3867516,-0.7510236 -0.3867516,-0.7510236 -0.3978591,-0.7688986 -0.4039404,-0.7773293 -0.4106547,-0.7851518 -0.4181524,-0.7922217 -0.4263,-0.7986672 -0.4436784,-0.8105177 -0.4436784,-0.8105177 -0.4626545,-0.8190717 -0.4722951,-0.8227499 -0.4821188,-0.8257095 -0.4921654,-0.8277943 -0.5023935,-0.829166 -0.5231526,-0.8307211 -0.5231526,-0.8307211 -0.5448899,-0.8291166 -0.5555759,-0.8276466 -0.5660428,-0.8253753 -0.5762367,-0.8221055 -0.5862022,-0.8180002 -0.6057522,-0.8083969 -0.6057522,-0.8083969 -0.6225984,-0.7959312 -0.6304991,-0.7892256 -0.6377731,-0.7819527 -0.6442821,-0.7739874 -0.6501663,-0.7654564 -0.660893,-0.7474518 -0.660893,-0.7474518 -0.6688109,-0.7277667 -0.672219,-0.7177977 -0.674966,-0.7076769 -0.6769057,-0.6973707 -0.6781855,-0.686913 -0.6796454,-0.6657451 -0.6796454,-0.6657451 -0.6771377,-0.6308296 -0.674513,-0.6138628 -0.6702432,-0.5974853 -0.6638547,-0.5818666 -0.6555821,-0.5669227 -0.6460507,-0.5524298 -0.6358899,-0.5381622z M-0.6031849,-0.7596185 L-0.6031849,-0.7596185 -0.5857896,-0.7740935 -0.5766534,-0.7803081 -0.5669909,-0.7852953 -0.5566909,-0.7887953 -0.5458733,-0.7910884 -0.5233758,-0.7936629 -0.5233758,-0.7936629 -0.500654,-0.7911112 -0.4897325,-0.7888149 -0.4793382,-0.7852941 -0.4695965,-0.780258 -0.460396,-0.7739649 -0.442897,-0.7592836 -0.442897,-0.7592836 -0.4284836,-0.7371193 -0.4224623,-0.7256324 -0.417858,-0.7136617 -0.4148158,-0.7011576 -0.4129777,-0.6882424 -0.4113083,-0.6617267 -0.4113083,-0.6617267 -0.4121541,-0.6437815 -0.4143317,-0.6261017 -0.4188351,-0.6088855 -0.4248144,-0.5919636 -0.4248144,-0.5919636 -0.4323297,-0.5783799 -0.4364854,-0.5719302 -0.4411188,-0.565891 -0.4463452,-0.5603613 -0.4520652,-0.555256 -0.4643283,-0.5457524 -0.4643283,-0.5457524 -0.4780992,-0.5387422 -0.4851264,-0.5357378 -0.4923238,-0.5333342 -0.4997262,-0.5316545 -0.5072942,-0.5305595 -0.5227061,-0.5293441 -0.5227061,-0.5293441 -0.5446641,-0.5318008 -0.5552729,-0.5339557 -0.5654377,-0.5372225 -0.575059,-0.5418498 -0.5842352,-0.5475917 -0.6018455,-0.5609329 -0.6018455,-0.5609329 -0.6100688,-0.5727141 -0.6177161,-0.5846936 -0.6242113,-0.5970696 -0.6290036,-0.6100317 -0.6320473,-0.6235956 -0.6337665,-0.6376154 -0.6349969,-0.6664148 -0.6349969,-0.6664148 -0.6331463,-0.6918866 -0.6312269,-0.7042689 -0.6281147,-0.7162268 -0.6234687,-0.7276391 -0.6174638,-0.7385679 -0.6031849,-0.7596185z" transform="matrix(1,0,0,-1,4.524375,2.619375)" fill="rgb(104,104,104)" fill-rule="nonzero" shaper:cutDepth="0.0000762" stroke-linecap="round" stroke-linejoin="round" /><path d="M2.5629872,0.7669863 L2.6857704,0.7669863 2.6857704,0.7669863 2.7011689,0.7665325 2.7163856,0.7650467 2.731272,0.7616855 2.7459342,0.757052 2.7459342,0.757052 2.7564375,0.7512943 2.766055,0.7445101 2.7741894,0.736007 2.7814297,0.7264678 2.7814297,0.7264678 2.7867461,0.7162882 2.7909294,0.7057753 2.7931875,0.6946963 2.7942662,0.6832705 2.7942662,0.6832705 2.7933448,0.6728401 2.7913661,0.6627129 2.7876422,0.653086 2.7828808,0.6437566 2.7828808,0.6437566 2.7757845,0.6345774 2.7678435,0.6263567 2.7585595,0.6196602 2.7485015,0.6138422 2.7485015,0.6138422 2.7615818,0.6089435 2.7678462,0.6060767 2.7737798,0.602709 2.7792941,0.5987063 2.7844479,0.5941578 2.7941545,0.5841509 2.7941545,0.5841509 2.8010261,0.5727006 2.8039628,0.5668126 2.8063006,0.5607294 2.8079235,0.554413 2.808973,0.5479096 2.8101163,0.5345912 2.8101163,0.5345912 2.8093904,0.5235145 2.8077437,0.5126483 2.8045454,0.5021367 2.8004053,0.4918403 2.8004053,0.4918403 2.7956252,0.4832489 2.7902045,0.4751688 2.7836625,0.4679834 2.7764068,0.4613677 2.7764068,0.4613677 2.7680157,0.4560857 2.7593022,0.4515069 2.7500834,0.4480304 2.7405764,0.4451827 2.7405764,0.4451827 2.7275006,0.4426817 2.714353,0.4408408 2.6877796,0.4397132 2.5629872,0.4397132 2.5629872,0.7669863z M2.677064,0.6294691 L2.677064,0.6294691 2.697854,0.6300274 2.7081413,0.6313356 2.7183638,0.6332642 2.7183638,0.6332642 2.7255181,0.635943 2.7321829,0.6393551 2.7379915,0.64405 2.7432553,0.6495609 2.7432553,0.6495609 2.7469654,0.6562158 2.7497576,0.6631481 2.7511055,0.6705171 2.7516269,0.6781359 2.7516269,0.6781359 2.7510825,0.6856975 2.7497848,0.6930506 2.7471976,0.7000469 2.7438134,0.7068225 2.7438134,0.7068225 2.7393066,0.712472 2.7342093,0.7173476 2.7281384,0.7209472 2.7214892,0.7237889 2.7214892,0.7237889 2.7091711,0.7261417 2.6967715,0.7277226 2.6717062,0.7283654 2.6062962,0.7283654 2.6062962,0.6294691 2.677064,0.6294691z M2.6877796,0.4783341 L2.6877796,0.4783341 2.7025485,0.4785459 2.7172476,0.4798968 2.7172476,0.4798968 2.730179,0.4831808 2.7422507,0.4888265 2.7422507,0.4888265 2.7472097,0.4926151 2.751704,0.4968297 2.7587706,0.5070208 2.7587706,0.5070208 2.7615967,0.5136239 2.7637458,0.5203893 2.7648099,0.5274148 2.7652447,0.5345912 2.7652447,0.5345912 2.7645927,0.5430512 2.7630364,0.5512402 2.7599314,0.5589652 2.7558685,0.5664032 2.7558685,0.5664032 2.7504671,0.5726465 2.7444578,0.5780616 2.7374531,0.5821205 2.7298608,0.5853788 2.7298608,0.5853788 2.7180497,0.588027 2.7061409,0.589894 2.6819753,0.5908482 2.6062962,0.5908482 2.6062962,0.4783341 2.6877796,0.4783341z" transform="matrix(1,0,0,-1,4.524375,2.619375)" fill="rgb(104,104,104)" fill-rule="nonzero" shaper:cutDepth="0.0000762" stroke-linecap="round" stroke-linejoin="round" /><path d="M-2.2855976,0.9830631 L-2.2855976,0.9830631 -2.2854052,0.9718054 -2.2844476,0.9605896 -2.283305,0.9550744 -2.2815458,0.9497191 -2.2766171,0.9395974 -2.2766171,0.9395974 -2.2713746,0.9312542 -2.2651138,0.9236469 -2.2578614,0.9169779 -2.249717,0.9114325 -2.2409099,0.9070176 -2.2315398,0.9039659 -2.2218661,0.902106 -2.2120291,0.9015199 -2.2120291,0.9015199 -2.2010086,0.9023047 -2.1901775,0.9044765 -2.1798153,0.9083068 -2.1701425,0.9136427 -2.1613734,0.9203616 -2.1538221,0.9284244 -2.1476725,0.9376008 -2.1429149,0.9475721 -2.1429149,0.9475721 -2.1399387,0.9564743 -2.1385555,0.9657667 -2.137886,0.984537 -2.1379577,1.1641106 -2.1379577,1.1641106 -2.1372454,1.1739055 -2.1361356,1.1787051 -2.1342242,1.1832264 -2.1310832,1.1870039 -2.1269045,1.1895769 -2.1221755,1.1909157 -2.1172665,1.1911959 -2.1172665,1.1911959 -2.112378,1.1909176 -2.1076522,1.1896546 -2.1035275,1.1870168 -2.1005059,1.183192 -2.0986958,1.1786345 -2.0976817,1.1738464 -2.0970784,1.1640741 -2.0971502,0.9800457 -2.0971502,0.9800457 -2.0977557,0.9684767 -2.0991483,0.9569766 -2.1015197,0.945638 -2.1048222,0.9345326 -2.1092595,0.9238348 -2.1147232,0.9136182 -2.1212574,0.9040547 -2.1287669,0.8952341 -2.1371373,0.8872266 -2.1463089,0.880151 -2.1562264,0.8741659 -2.1667438,0.8693113 -2.1777055,0.8655669 -2.1889868,0.8629322 -2.2004619,0.8613521 -2.2120291,0.8607124 -2.2120291,0.8607124 -2.2206391,0.8610409 -2.2292037,0.86198 -2.246047,0.8655822 -2.2621343,0.8717278 -2.2697879,0.8756846 -2.2771006,0.8802409 -2.2840616,0.8853183 -2.2906053,0.8909231 -2.2966776,0.8970356 -2.3022375,0.9036174 -2.3072375,0.9106343 -2.3117262,0.917989 -2.315679,0.9256444 -2.319077,0.9335624 -2.319077,0.9335624 -2.3229675,0.9452753 -2.3253398,0.9573887 -2.3262543,0.9696956 -2.3264052,0.9820365 -2.326477,1.167631 -2.326477,1.167631 -2.3254338,1.1765059 -2.3240295,1.1807566 -2.3217384,1.1845922 -2.318548,1.1877265 -2.3145882,1.1897984 -2.3102486,1.190877 -2.3057858,1.1911959 -2.3057858,1.1911959 -2.301196,1.1910109 -2.2967537,1.1898562 -2.2927468,1.1876375 -2.2896834,1.1842096 -2.2875491,1.1801531 -2.2863281,1.1757224 -2.2855976,1.1665746 -2.2855976,0.9830631z" transform="matrix(1,0,0,-1,4.524375,2.619375)" fill="rgb(104,104,104)" fill-rule="nonzero" shaper:cutDepth="0.0000762" stroke-linecap="round" stroke-linejoin="round" /><path d="M-2.0051177,0.8865763 L-2.0051177,0.8865763 -2.0057293,0.8770668 -2.0067978,0.8724299 -2.0087006,0.8680526 -2.0117844,0.8644454 -2.015923,0.8620941 -2.0205466,0.8609551 -2.0253059,0.8607124 -2.0253059,0.8607124 -2.0297077,0.8609529 -2.0339865,0.8619952 -2.0379383,0.8639389 -2.0411519,0.8669519 -2.0434849,0.8706846 -2.0449359,0.8748481 -2.0459253,0.8835925 -2.0459971,1.1612368 -2.0459971,1.1612368 -2.0459429,1.1679058 -2.0450714,1.174516 -2.0428178,1.1807858 -2.0410117,1.1836024 -2.0386771,1.1859825 -2.0327837,1.1890763 -2.0262856,1.1906034 -2.0196547,1.191233 -2.0129825,1.1911958 -1.9321239,1.1911959 -1.9321239,1.1911959 -1.9117121,1.1901887 -1.9016711,1.1882774 -1.8918912,1.1853047 -1.8918912,1.1853047 -1.8787069,1.1793354 -1.8724679,1.1756571 -1.8665632,1.1714641 -1.8609896,1.1668399 -1.8558438,1.1617437 -1.8468478,1.1504048 -1.8429997,1.14427 -1.8396805,1.1378324 -1.8368186,1.1311808 -1.8345571,1.1242994 -1.8327405,1.1172901 -1.8315192,1.1101503 -1.8304643,1.0957149 -1.8304643,1.0957149 -1.831824,1.0796607 -1.833378,1.0717502 -1.8355174,1.063978 -1.838323,1.0564208 -1.8417909,1.0491435 -1.8458752,1.0421938 -1.8504729,1.035572 -1.8555886,1.029342 -1.8612365,1.02359 -1.8673652,1.0183537 -1.8739024,1.0136369 -1.8808557,1.0095587 -1.8881547,1.006137 -1.9034581,1.001096 -1.9034581,1.001096 -1.9111665,0.9997092 -1.9189706,0.9990221 -1.9346318,0.9986533 -2.0051177,0.9986533 -2.0051177,0.8865763z M-1.9336248,1.1503882 L-2.0051177,1.1503882 -2.0051177,1.0394608 -1.9306152,1.0394608 -1.9306152,1.0394608 -1.9191796,1.0404066 -1.9080088,1.0430108 -1.8975484,1.0477157 -1.8927259,1.0508275 -1.888315,1.0544996 -1.884281,1.0585841 -1.8807658,1.0631209 -1.8777828,1.0680246 -1.8754051,1.0732489 -1.8722908,1.0842858 -1.8712719,1.0957149 -1.8712719,1.0957149 -1.8723546,1.1073577 -1.8756462,1.1185704 -1.8782794,1.123794 -1.8815422,1.128649 -1.8853597,1.1330814 -1.889695,1.1370081 -1.8944448,1.1404241 -1.8995258,1.1433239 -1.9104796,1.1474045 -1.9219518,1.1496542 -1.9336248,1.1503882z" transform="matrix(1,0,0,-1,4.524375,2.619375)" fill="rgb(104,104,104)" fill-rule="nonzero" shaper:cutDepth="0.0000762" stroke-linecap="round" stroke-linejoin="round" /><path d="M-1.7384319,0.8865763 L-1.7384319,0.8865763 -1.7390435,0.8770668 -1.740112,0.8724299 -1.7420147,0.8680526 -1.7450985,0.8644454 -1.7492371,0.8620941 -1.7538608,0.8609551 -1.7586201,0.8607124 -1.7586201,0.8607124 -1.7630218,0.8609529 -1.7673006,0.8619952 -1.7712524,0.8639389 -1.7744661,0.8669519 -1.7767991,0.8706846 -1.7782501,0.8748481 -1.7792395,0.8835925 -1.7793112,1.1612368 -1.7793112,1.1612368 -1.7792571,1.1679058 -1.7783856,1.174516 -1.776132,1.1807858 -1.7743259,1.1836024 -1.7719913,1.1859825 -1.7660979,1.1890763 -1.7595998,1.1906034 -1.7529688,1.191233 -1.7462966,1.1911958 -1.6654381,1.1911959 -1.6654381,1.1911959 -1.6450262,1.1901887 -1.6349853,1.1882774 -1.6252053,1.1853047 -1.6252053,1.1853047 -1.6120211,1.1793354 -1.6057821,1.1756571 -1.5998773,1.1714641 -1.5943037,1.1668399 -1.589158,1.1617437 -1.580162,1.1504048 -1.5763139,1.14427 -1.5729946,1.1378324 -1.5701327,1.1311808 -1.5678713,1.1242994 -1.5660547,1.1172901 -1.5648333,1.1101503 -1.5637785,1.0957149 -1.5637785,1.0957149 -1.5651382,1.0796607 -1.5666922,1.0717502 -1.5688316,1.063978 -1.5716371,1.0564208 -1.575105,1.0491435 -1.5791894,1.0421938 -1.583787,1.035572 -1.5889028,1.029342 -1.5945507,1.02359 -1.6006793,1.0183537 -1.6072166,1.0136369 -1.6141699,1.0095587 -1.6214689,1.006137 -1.6367723,1.001096 -1.6367723,1.001096 -1.6444806,0.9997092 -1.6522848,0.9990221 -1.6679459,0.9986533 -1.7384319,0.9986533 -1.7384319,0.8865763z M-1.666939,1.1503882 L-1.7384319,1.1503882 -1.7384319,1.0394608 -1.6639294,1.0394608 -1.6639294,1.0394608 -1.6524938,1.0404066 -1.641323,1.0430108 -1.6308625,1.0477157 -1.6260401,1.0508275 -1.6216292,1.0544996 -1.6175952,1.0585841 -1.61408,1.0631209 -1.6110969,1.0680246 -1.6087193,1.0732489 -1.6056049,1.0842858 -1.604586,1.0957149 -1.604586,1.0957149 -1.6056688,1.1073577 -1.6089604,1.1185704 -1.6115936,1.123794 -1.6148564,1.128649 -1.6186739,1.1330814 -1.6230092,1.1370081 -1.627759,1.1404241 -1.63284,1.1433239 -1.6437938,1.1474045 -1.655266,1.1496542 -1.666939,1.1503882z" transform="matrix(1,0,0,-1,4.524375,2.619375)" fill="rgb(104,104,104)" fill-rule="nonzero" shaper:cutDepth="0.0000762" stroke-linecap="round" stroke-linejoin="round" /><path d="M-1.3575855,1.067049 L-1.3575855,1.067049 -1.3482177,1.0663317 -1.3436897,1.0650417 -1.3395064,1.0628992 -1.3360129,1.0597509 -1.3336803,1.0556735 -1.3324751,1.0511287 -1.3322245,1.0464297 -1.3322245,1.0464297 -1.332441,1.0415374 -1.3338284,1.0368454 -1.3365798,1.0328002 -1.340449,1.0298148 -1.3449719,1.0279296 -1.3497452,1.0268336 -1.3595155,1.0262414 -1.471746,1.0262414 -1.471746,0.9015199 -1.3134013,0.9015199 -1.3134013,0.9015199 -1.3065878,0.9014897 -1.3031972,0.9011482 -1.2999665,0.900083 -1.2999665,0.900083 -1.2944776,0.8971474 -1.2901307,0.8927001 -1.2875486,0.8870437 -1.2865316,0.8809006 -1.2865316,0.8809006 -1.2867819,0.875791 -1.2884147,0.8709484 -1.291545,0.8669088 -1.2957818,0.8640559 -1.3005866,0.8622871 -1.3056008,0.861264 -1.3158151,0.8607124 -1.486546,0.8607124 -1.486546,0.8607124 -1.4921575,0.8607689 -1.497718,0.8614883 -1.5030551,0.8632179 -1.5076369,0.8664322 -1.51064,0.8711533 -1.5121306,0.8765668 -1.5126827,0.8821431 -1.5125536,0.887755 -1.5126254,1.1646854 -1.5126254,1.1646854 -1.5125686,1.170322 -1.5118355,1.1759051 -1.5101136,1.1812715 -1.5068816,1.1858699 -1.5021412,1.1888998 -1.4967465,1.1905192 -1.485511,1.1911958 -1.3138324,1.1911959 -1.3138324,1.1911959 -1.3045822,1.1904769 -1.3001109,1.18925 -1.2959312,1.1872182 -1.2924687,1.1841459 -1.2900617,1.180181 -1.2888148,1.1757129 -1.2885432,1.1710795 -1.2885432,1.1710795 -1.2888237,1.1661672 -1.2902405,1.1614585 -1.2929222,1.1573403 -1.2967346,1.1542436 -1.301234,1.1522485 -1.3060069,1.1510472 -1.3158151,1.1503882 -1.471746,1.1503882 -1.471746,1.067049 -1.3575855,1.067049z" transform="matrix(1,0,0,-1,4.524375,2.619375)" fill="rgb(104,104,104)" fill-rule="nonzero" shaper:cutDepth="0.0000762" stroke-linecap="round" stroke-linejoin="round" /><path d="M-1.0270302,0.8978558 L-1.0270302,0.8978558 -1.0250904,0.8954131 -1.0250904,0.8954131 -1.0211185,0.889274 -1.0200483,0.885769 -1.0197021,0.882122 -1.0197021,0.882122 -1.020109,0.8781499 -1.0213284,0.8743496 -1.0232991,0.8708786 -1.0259591,0.8679015 -1.0291565,0.8655126 -1.0327704,0.8638148 -1.0366332,0.8628119 -1.0406087,0.8624366 -1.0406087,0.8624366 -1.0463657,0.8630035 -1.0491283,0.8639048 -1.0516304,0.8653554 -1.0559208,0.8692306 -1.0595176,0.8737588 -1.1518974,0.9986533 -1.1958642,0.9986533 -1.1958642,0.8875821 -1.1958642,0.8875821 -1.1965369,0.8779369 -1.19765,0.8732289 -1.1996009,0.8688048 -1.202573,0.8649912 -1.2065899,0.8623191 -1.211221,0.8609305 -1.2160524,0.8607124 -1.2160524,0.8607124 -1.2227822,0.8616941 -1.2289133,0.8646257 -1.2315485,0.8667913 -1.2336837,0.8694465 -1.2352906,0.8724538 -1.2362406,0.8757278 -1.2362406,0.8757278 -1.2367338,0.882597 -1.2366718,0.8894927 -1.2367435,1.1626019 -1.2367435,1.1626019 -1.2367285,1.168704 -1.2358336,1.1747379 -1.2335741,1.1804015 -1.2297529,1.1851471 -1.2246276,1.1884452 -1.2188266,1.1903412 -1.2127826,1.1911492 -1.206679,1.1911958 -1.1226549,1.1911959 -1.1226549,1.1911959 -1.1129249,1.1907231 -1.1032521,1.1895918 -1.0936784,1.1877824 -1.0843154,1.1851045 -1.0752524,1.181533 -1.0665812,1.1770973 -1.0584228,1.171776 -1.0508867,1.1656062 -1.0440093,1.1587082 -1.0379232,1.1511044 -1.0327492,1.1428525 -1.0285921,1.1340441 -1.025371,1.1248525 -1.0231248,1.1153742 -1.0217926,1.1057258 -1.0212108,1.0960023 -1.0212108,1.0960023 -1.0225496,1.0790099 -1.0242314,1.0706508 -1.0265278,1.0624374 -1.0296158,1.0544906 -1.0333958,1.0468461 -1.0379443,1.0396342 -1.0430901,1.0328347 -1.0488138,1.0265141 -1.0551444,1.0208017 -1.0619884,1.015715 -1.069244,1.0112369 -1.0769241,1.00753 -1.084878,1.0044571 -1.1013608,1.0001106 -1.0270302,0.8978558z M-1.1210701,1.1503882 L-1.1958642,1.1503882 -1.1958642,1.0394608 -1.1246665,1.0394608 -1.1246665,1.0394608 -1.1083525,1.0402641 -1.100353,1.0419298 -1.0928395,1.0451365 -1.0928395,1.0451365 -1.0861307,1.0490581 -1.0800506,1.0538967 -1.0747217,1.059552 -1.0702261,1.0658904 -1.0666664,1.0727978 -1.0640917,1.0801298 -1.0625562,1.0877466 -1.0620183,1.0954994 -1.0620183,1.0954994 -1.0626404,1.1033593 -1.0642694,1.1110734 -1.0670936,1.1184342 -1.0708633,1.1253591 -1.0755796,1.1316771 -1.0811101,1.1372962 -1.0874277,1.1420128 -1.0943482,1.1457903 -1.0943482,1.1457903 -1.1007168,1.1482878 -1.1074059,1.1497236 -1.1210701,1.1503882z" transform="matrix(1,0,0,-1,4.524375,2.619375)" fill="rgb(104,104,104)" fill-rule="nonzero" shaper:cutDepth="0.0000762" stroke-linecap="round" stroke-linejoin="round" /><path d="M-2.4967073,1.692101 L-2.4967073,1.692101 -2.5138218,1.6911051 -2.5307288,1.6882718 -2.54717,1.6833806 -2.5628592,1.676488 -2.5775476,1.66767 -2.5911533,1.657222 -2.6035894,1.6454247 -2.6148803,1.6325225 -2.6148803,1.6325225 -2.6266996,1.6161277 -2.6372803,1.5989081 -2.6464216,1.5808826 -2.654116,1.562194 -2.6603153,1.5429573 -2.6648792,1.5232693 -2.6676805,1.5032534 -2.6686403,1.4830659 -2.6686403,1.4830659 -2.6677521,1.4626789 -2.6654299,1.4424052 -2.6614522,1.4223906 -2.6560126,1.4027224 -2.6489744,1.3835686 -2.6404385,1.3650337 -2.6303202,1.3473126 -2.6186675,1.3305611 -2.6186675,1.3305611 -2.6074397,1.3171663 -2.5951355,1.3047562 -2.5816034,1.293696 -2.5669286,1.284203 -2.5511304,1.2767362 -2.5345121,1.2713301 -2.5259736,1.2694311 -2.5173283,1.2681473 -2.4998782,1.2671945 -2.4998782,1.2671945 -2.4854054,1.2680049 -2.4710807,1.2702188 -2.4570663,1.2739196 -2.443568,1.279202 -2.4307244,1.2859193 -2.4186968,1.2940108 -2.4075211,1.3032405 -2.3971615,1.3133801 -2.3971615,1.3133801 -2.3840093,1.3287657 -2.3787448,1.337435 -2.3772183,1.3422322 -2.3766551,1.3472803 -2.3766551,1.3472803 -2.3771069,1.3524498 -2.3783412,1.3574863 -2.3805298,1.3621904 -2.3836367,1.3663427 -2.3875326,1.3697668 -2.3920809,1.3722579 -2.3970804,1.3736393 -2.4022419,1.3741603 -2.4022419,1.3741603 -2.409268,1.3735666 -2.4158812,1.3711486 -2.4213811,1.3667439 -2.4258889,1.3613207 -2.4258889,1.3613207 -2.4326306,1.3530378 -2.4398878,1.3452055 -2.4477943,1.3380244 -2.4564005,1.3317043 -2.4657181,1.326487 -2.4756598,1.3225987 -2.4860785,1.3202519 -2.4967376,1.3196613 -2.4967376,1.3196613 -2.5071895,1.3201331 -2.5175194,1.3217946 -2.5275814,1.3246581 -2.5372099,1.3287535 -2.546257,1.3340042 -2.5546278,1.3402858 -2.5624129,1.3472721 -2.5695261,1.3549471 -2.5695261,1.3549471 -2.5799965,1.3684231 -2.5891724,1.3828123 -2.5970626,1.3979442 -2.6036434,1.4136904 -2.6088858,1.4299313 -2.6127884,1.4465447 -2.6152289,1.4634353 -2.6160811,1.4804795 -2.6160811,1.4804795 -2.6153546,1.4940409 -2.6138624,1.5075356 -2.6115844,1.5209266 -2.6083849,1.5341206 -2.60422,1.5470488 -2.599115,1.5596305 -2.5930127,1.5717627 -2.5860031,1.5833934 -2.5781039,1.5944386 -2.5693179,1.6047943 -2.5596039,1.6142795 -2.5488928,1.6226296 -2.5372056,1.6295304 -2.5246677,1.6347438 -2.5115265,1.6381581 -2.4980308,1.639635 -2.4980308,1.639635 -2.4884007,1.6390353 -2.4789246,1.6372107 -2.4697631,1.6341888 -2.4610945,1.6299487 -2.452967,1.6247471 -2.4454375,1.6187127 -2.4385961,1.6119069 -2.4322625,1.6046264 -2.4322625,1.6046264 -2.4266087,1.5976177 -2.4202661,1.5912301 -2.4165848,1.5886269 -2.4124564,1.5867829 -2.4080566,1.5859143 -2.4035351,1.5856903 -2.4035351,1.5856903 -2.3983203,1.5863092 -2.393303,1.5878572 -2.3887499,1.5904713 -2.3847848,1.5939139 -2.3815415,1.598043 -2.3792024,1.6027446 -2.3778014,1.6078037 -2.3773017,1.6130321 -2.3773017,1.6130321 -2.3780686,1.6198113 -2.3806664,1.6261231 -2.388848,1.6370486 -2.388848,1.6370486 -2.3994447,1.648559 -2.4109326,1.6591722 -2.4233436,1.6687097 -2.4366499,1.6769099 -2.4508308,1.6834812 -2.4657169,1.6883017 -2.4810919,1.6911941 -2.4967073,1.692101z" transform="matrix(1,0,0,-1,4.524375,2.619375)" fill="rgb(104,104,104)" fill-rule="nonzero" shaper:cutDepth="0.0000762" stroke-linecap="round" stroke-linejoin="round" /><path d="M-2.1602011,1.6980127 L-2.1602011,1.6980127 -2.1487545,1.6974145 -2.1374186,1.6957098 -2.1262882,1.6929768 -2.1154156,1.689347 -2.1048557,1.6848726 -2.0947141,1.6795385 -2.0850644,1.673368 -2.0758022,1.6666074 -2.0758022,1.6666074 -2.0665023,1.6580583 -2.0580939,1.6486265 -2.0505151,1.6385194 -2.0438023,1.6278164 -2.0379082,1.616641 -2.0328255,1.6050741 -2.0284594,1.5932178 -2.0247454,1.5811412 -2.0191711,1.5564994 -2.0155731,1.5314925 -2.0136587,1.5062978 -2.0131745,1.4810337 -2.0131745,1.4810337 -2.0137392,1.4571747 -2.0155235,1.4333809 -2.0188675,1.4097474 -2.0240742,1.3864629 -2.0313999,1.3637471 -2.0359608,1.3527207 -2.0412222,1.3420085 -2.0471863,1.3316606 -2.0538918,1.3217826 -2.0614028,1.3125225 -2.0694285,1.3036811 -2.0694285,1.3036811 -2.0788207,1.2956681 -2.088931,1.2885828 -2.0996587,1.2824719 -2.1108901,1.2773461 -2.1224948,1.2731309 -2.1344314,1.2699811 -2.1466169,1.2679949 -2.1589362,1.2671945 -2.1589362,1.2671945 -2.1743397,1.2684757 -2.1894991,1.2714974 -2.2041965,1.2762849 -2.2183532,1.2824927 -2.2318405,1.2900456 -2.244524,1.2988798 -2.2562297,1.3089763 -2.266641,1.3204003 -2.266641,1.3204003 -2.2783133,1.3389796 -2.2831985,1.3488129 -2.2875273,1.3589066 -2.2946876,1.3796493 -2.2999837,1.4009519 -2.30375,1.4225752 -2.3062404,1.4443849 -2.3075762,1.4662926 -2.3080233,1.4882387 -2.3080233,1.4882387 -2.3074099,1.5105452 -2.3056555,1.5327892 -2.3023955,1.5548649 -2.2975966,1.5766567 -2.2910226,1.5979816 -2.2869329,1.608363 -2.2822518,1.6184924 -2.2769909,1.6283427 -2.2711003,1.6378241 -2.2574039,1.6554305 -2.2574039,1.6554305 -2.2473526,1.6645608 -2.236484,1.6727012 -2.22492,1.6798258 -2.212787,1.6859162 -2.2001548,1.6908928 -2.1871101,1.6946812 -2.1737489,1.6971054 -2.1602011,1.6980127z M-2.1090558,1.6240243 L-2.1090558,1.6240243 -2.1202979,1.6325971 -2.1264002,1.6361689 -2.1328086,1.6391849 -2.1461794,1.6437534 -2.1531343,1.6450139 -2.1601828,1.6455466 -2.1602294,1.6455468 -2.1602294,1.6455468 -2.1682799,1.6448964 -2.1761999,1.6433052 -2.1839097,1.6408949 -2.1913914,1.6378489 -2.1985798,1.6341635 -2.2054314,1.6298846 -2.2118775,1.6250161 -2.2177766,1.6194981 -2.2177766,1.6194981 -2.2234902,1.6127822 -2.2287057,1.6056917 -2.2332237,1.5981177 -2.2371609,1.590228 -2.2435192,1.5738006 -2.2482404,1.5568217 -2.2516466,1.5395341 -2.2538572,1.522051 -2.2550162,1.5044688 -2.2554641,1.4868531 -2.2554641,1.4868531 -2.2542783,1.452645 -2.2525999,1.4356086 -2.2499887,1.4186931 -2.2461834,1.4020022 -2.240828,1.3857518 -2.2338237,1.3701271 -2.2247969,1.3555937 -2.2247969,1.3555937 -2.2187973,1.3481521 -2.2120413,1.341392 -2.2046141,1.3353738 -2.1965806,1.3301959 -2.1880452,1.3258917 -2.1790745,1.3225959 -2.1697501,1.3204929 -2.1602294,1.3196613 -2.1602294,1.3196613 -2.1518926,1.3203063 -2.1437098,1.3220475 -2.1357496,1.3246051 -2.1281046,1.3280017 -2.1207595,1.3320005 -2.1138168,1.3366648 -2.107347,1.3419648 -2.101389,1.3478345 -2.101389,1.3478345 -2.0908357,1.3623902 -2.0864399,1.3702439 -2.0826404,1.3784005 -2.0765029,1.3953058 -2.0720117,1.4127216 -2.0689119,1.4304401 -2.0669706,1.4483224 -2.0660011,1.4662831 -2.0656413,1.4842667 -2.0656413,1.4842667 -2.0659716,1.503063 -2.0672703,1.5218119 -2.0697426,1.5404495 -2.0735299,1.5588601 -2.0790614,1.5768249 -2.0866624,1.59401 -2.0913042,1.6021927 -2.0965739,1.609985 -2.1025699,1.6172102 -2.1090558,1.6240243z" transform="matrix(1,0,0,-1,4.524375,2.619375)" fill="rgb(104,104,104)" fill-rule="nonzero" shaper:cutDepth="0.0000762" stroke-linecap="round" stroke-linejoin="round" /><path d="M-1.6728791,1.6752903 L-1.7821585,1.4915312 -1.8914352,1.6728594 -1.8914352,1.6728594 -1.8955832,1.6794212 -1.9004183,1.6854913 -1.9034712,1.6879121 -1.9069498,1.689674 -1.9107114,1.690538 -1.9146145,1.6908087 -1.9146145,1.6908087 -1.9207685,1.6904828 -1.9267253,1.6889207 -1.9320456,1.6858373 -1.9361677,1.6812522 -1.9389765,1.6757849 -1.9405809,1.6698242 -1.9413553,1.6637187 -1.9414945,1.657555 -1.9414022,1.3019028 -1.9414022,1.3019028 -1.9406506,1.2895174 -1.9392209,1.283476 -1.9367725,1.2777712 -1.933051,1.2728072 -1.927951,1.2692948 -1.9220153,1.2674869 -1.9158153,1.2671945 -1.9158153,1.2671945 -1.9084555,1.2681787 -1.9015836,1.2709393 -1.8955606,1.2753071 -1.8915217,1.281512 -1.8915217,1.281512 -1.8900469,1.2861384 -1.8892317,1.2909253 -1.8889353,1.3006328 -1.8889353,1.5655949 -1.809652,1.4327911 -1.809652,1.4327911 -1.8049145,1.4254248 -1.7991528,1.418835 -1.7955811,1.4162909 -1.7915054,1.4146305 -1.7828008,1.4136952 -1.7828008,1.4136952 -1.7778694,1.4138147 -1.7730275,1.4147075 -1.7685527,1.416786 -1.7647912,1.419962 -1.758689,1.4277056 -1.7534268,1.436049 -1.6753733,1.5655949 -1.6753733,1.2993489 -1.6753733,1.2993489 -1.6751481,1.2897057 -1.6746562,1.2849035 -1.6735257,1.2802188 -1.6735257,1.2802188 -1.6690639,1.2744668 -1.6630172,1.2703964 -1.6560884,1.2681606 -1.6488626,1.2671945 -1.6488626,1.2671945 -1.6433769,1.2676956 -1.6380516,1.2690991 -1.6332108,1.2717248 -1.6291873,1.2754699 -1.6263762,1.2802126 -1.6245087,1.2853916 -1.6229987,1.2962914 -1.6229064,1.6643365 -1.6229064,1.6643365 -1.6237044,1.6751245 -1.6252321,1.6803172 -1.627991,1.6849669 -1.6319518,1.6886492 -1.6368434,1.6909553 -1.6421572,1.6919732 -1.6475694,1.6921019 -1.6475694,1.6921019 -1.6555581,1.6912382 -1.6593376,1.6898355 -1.6627658,1.6877127 -1.6682656,1.6818629 -1.6728791,1.6752903z" transform="matrix(1,0,0,-1,4.524375,2.619375)" fill="rgb(104,104,104)" fill-rule="nonzero" shaper:cutDepth="0.0000762" stroke-linecap="round" stroke-linejoin="round" /><path d="M-1.2886151,1.6752903 L-1.3978945,1.4915312 -1.5071711,1.6728594 -1.5071711,1.6728594 -1.5113191,1.6794212 -1.5161543,1.6854913 -1.5192072,1.6879121 -1.5226857,1.689674 -1.5264474,1.690538 -1.5303504,1.6908087 -1.5303504,1.6908087 -1.5365044,1.6904828 -1.5424612,1.6889207 -1.5477816,1.6858373 -1.5519036,1.6812522 -1.5547124,1.6757849 -1.5563168,1.6698242 -1.5570912,1.6637187 -1.5572304,1.657555 -1.5571381,1.3019028 -1.5571381,1.3019028 -1.5563865,1.2895174 -1.5549569,1.283476 -1.5525084,1.2777712 -1.5487869,1.2728072 -1.5436869,1.2692948 -1.5377512,1.2674869 -1.5315512,1.2671945 -1.5315512,1.2671945 -1.5241915,1.2681787 -1.5173196,1.2709393 -1.5112965,1.2753071 -1.5072576,1.281512 -1.5072576,1.281512 -1.5057829,1.2861384 -1.5049677,1.2909253 -1.5046712,1.3006328 -1.5046712,1.5655949 -1.4253879,1.4327911 -1.4253879,1.4327911 -1.4206505,1.4254248 -1.4148887,1.418835 -1.4113171,1.4162909 -1.4072414,1.4146305 -1.3985368,1.4136952 -1.3985368,1.4136952 -1.3936054,1.4138147 -1.3887634,1.4147075 -1.3842887,1.416786 -1.3805271,1.419962 -1.374425,1.4277056 -1.3691627,1.436049 -1.2911093,1.5655949 -1.2911093,1.2993489 -1.2911093,1.2993489 -1.290884,1.2897057 -1.2903921,1.2849035 -1.2892617,1.2802188 -1.2892617,1.2802188 -1.2847998,1.2744668 -1.2787531,1.2703964 -1.2718244,1.2681606 -1.2645986,1.2671945 -1.2645986,1.2671945 -1.2591128,1.2676956 -1.2537875,1.2690991 -1.2489468,1.2717248 -1.2449233,1.2754699 -1.2421121,1.2802126 -1.2402447,1.2853916 -1.2387346,1.2962914 -1.2386424,1.6643365 -1.2386424,1.6643365 -1.2394403,1.6751245 -1.2409681,1.6803172 -1.2437269,1.6849669 -1.2476878,1.6886492 -1.2525793,1.6909553 -1.2578931,1.6919732 -1.2633054,1.6921019 -1.2633054,1.6921019 -1.2712941,1.6912382 -1.2750736,1.6898355 -1.2785017,1.6877127 -1.2840016,1.6818629 -1.2886151,1.6752903z" transform="matrix(1,0,0,-1,4.524375,2.619375)" fill="rgb(104,104,104)" fill-rule="nonzero" shaper:cutDepth="0.0000762" stroke-linecap="round" stroke-linejoin="round" /><path d="M-0.8129959,1.2963838 L-0.8129959,1.2963838 -0.8132912,1.286914 -0.8140347,1.2822317 -0.8154899,1.2777248 -0.8154899,1.2777248 -0.8194394,1.2732628 -0.8244965,1.270082 -0.8300853,1.2680036 -0.8359963,1.2671945 -0.8359963,1.2671945 -0.8425904,1.2681474 -0.8487316,1.2707077 -0.8540701,1.2747091 -0.8577959,1.2802188 -0.8577959,1.2802188 -0.8591115,1.2840822 -0.859528,1.288146 -0.8595511,1.2963206 -0.8596434,1.6617117 -0.8596434,1.6617117 -0.8593322,1.6718717 -0.8585612,1.676896 -0.8565951,1.6815715 -0.8565951,1.6815715 -0.8524712,1.685907 -0.8475377,1.6892853 -0.8419347,1.6913777 -0.8359963,1.6921019 -0.8359963,1.6921019 -0.8307631,1.6917499 -0.8256986,1.6903991 -0.8212199,1.6876726 -0.8177379,1.6837689 -0.8153967,1.6790678 -0.8139248,1.6740371 -0.8129959,1.6635961 -0.8129959,1.2963838z" transform="matrix(1,0,0,-1,4.524375,2.619375)" fill="rgb(104,104,104)" fill-rule="nonzero" shaper:cutDepth="0.0000762" stroke-linecap="round" stroke-linejoin="round" /><path d="M-2.2071437,-1.2601795 L-2.2071437,-1.2601795 -2.2013831,-1.2601913 -2.1957205,-1.2611135 -2.1957205,-1.2611135 -2.1907132,-1.2635683 -2.1867997,-1.2675504 -2.1842161,-1.2724942 -2.1832914,-1.2779969 -2.1832914,-1.2779969 -2.1843472,-1.2836597 -2.1869245,-1.2888035 -2.1910879,-1.292775 -2.1962234,-1.2953832 -2.1962234,-1.2953832 -2.1997206,-1.2962345 -2.2033365,-1.296382 -2.2105736,-1.296389 -2.3864669,-1.296389 -2.3864669,-1.296389 -2.3913234,-1.2961288 -2.3960875,-1.2951799 -2.4005735,-1.2933022 -2.4043322,-1.2902295 -2.4070495,-1.286205 -2.4086502,-1.2816134 -2.4092829,-1.2767966 -2.4091698,-1.2719342 -2.4092415,-0.9880335 -2.4092415,-0.9880335 -2.4082454,-0.9800132 -2.4070275,-0.9761491 -2.4051237,-0.9725807 -2.4023739,-0.9696168 -2.3989647,-0.967439 -2.3950972,-0.966254 -2.391065,-0.9659055 -2.391065,-0.9659055 -2.3870046,-0.9662475 -2.3830875,-0.9673622 -2.3796028,-0.9694683 -2.3768625,-0.9724758 -2.3750035,-0.9761015 -2.3738241,-0.9800035 -2.3729602,-0.9880968 -2.3729602,-1.2601795 -2.2071437,-1.2601795z" transform="matrix(1,0,0,-1,4.524375,2.619375)" fill="rgb(104,104,104)" fill-rule="nonzero" shaper:cutDepth="0.0000762" stroke-linecap="round" stroke-linejoin="round" /><path d="M-2.0183869,-0.9613081 L-2.0183869,-0.9613081 -2.0094841,-0.9618556 -2.0006672,-0.9630993 -1.9920101,-0.9651951 -1.9835537,-0.9680482 -1.9753405,-0.9715361 -1.9674525,-0.975677 -1.9527432,-0.9857345 -1.9527432,-0.9857345 -1.94551,-0.9923838 -1.9389702,-0.9997196 -1.9330755,-1.0075807 -1.9278545,-1.0159053 -1.9232702,-1.0245973 -1.919317,-1.0335937 -1.9130325,-1.0522082 -1.9086968,-1.071374 -1.9058984,-1.0908239 -1.9044094,-1.1104197 -1.9040328,-1.1300696 -1.9040328,-1.1300696 -1.904472,-1.1486266 -1.9058598,-1.1671329 -1.9084607,-1.1855145 -1.9125104,-1.2036247 -1.9182081,-1.2212925 -1.9258477,-1.2382003 -1.9304865,-1.2462486 -1.9357018,-1.2539315 -1.947786,-1.2680105 -1.947786,-1.2680105 -1.955091,-1.2742428 -1.9629545,-1.2797537 -1.9712983,-1.2845066 -1.9800339,-1.2884933 -1.9890597,-1.2917718 -1.9983438,-1.2942216 -2.0078214,-1.2957664 -2.0174031,-1.296389 -2.0174031,-1.296389 -2.0293835,-1.2953925 -2.0411742,-1.2930423 -2.0526055,-1.2893187 -2.0636162,-1.2844904 -2.0741064,-1.2786159 -2.0839713,-1.2717448 -2.0930758,-1.263892 -2.1011734,-1.2550067 -2.1011734,-1.2550067 -2.1102519,-1.2405562 -2.1174184,-1.2250574 -2.1229875,-1.2089241 -2.1271067,-1.1923554 -2.130036,-1.1755373 -2.131973,-1.1585742 -2.1330119,-1.1415349 -2.1333597,-1.1244657 -2.1333597,-1.1244657 -2.1328826,-1.1071162 -2.131518,-1.0898153 -2.1289825,-1.0726453 -2.1252501,-1.0556962 -2.1201369,-1.0391101 -2.1133152,-1.0231573 -2.1046418,-1.0081215 -2.093989,-0.9944276 -2.093989,-0.9944276 -2.0861033,-0.9873963 -2.077718,-0.9809949 -2.0687484,-0.9754283 -2.059287,-0.9707166 -2.0494559,-0.9668521 -2.039316,-0.9638993 -2.028924,-0.9620138 -2.0183869,-0.9613081z M-1.9786072,-1.0188547 L-1.9786072,-1.0188547 -1.9873511,-1.012187 -1.9970816,-1.0070632 -2.0074811,-1.0035098 -2.0183726,-1.0021151 -2.0184089,-1.002115 -2.0184089,-1.002115 -2.0246704,-1.0026208 -2.0308303,-1.0038585 -2.0426459,-1.0081022 -2.053566,-1.0142967 -2.0585796,-1.0180833 -2.0631678,-1.0223751 -2.0631678,-1.0223751 -2.0716682,-1.0331134 -2.0782444,-1.0451407 -2.0831898,-1.0579175 -2.0868619,-1.0711234 -2.0895111,-1.0845693 -2.0912305,-1.0981672 -2.0924803,-1.1255434 -2.0924803,-1.1255434 -2.091558,-1.1521497 -2.0902526,-1.1654002 -2.0882217,-1.1785567 -2.085262,-1.1915385 -2.0810967,-1.2041777 -2.0756489,-1.2163303 -2.068628,-1.2276341 -2.068628,-1.2276341 -2.0639617,-1.2334219 -2.058707,-1.2386798 -2.0529303,-1.2433606 -2.046682,-1.2473879 -2.0400434,-1.2507356 -2.0330662,-1.253299 -2.0258138,-1.2549347 -2.0184089,-1.2555815 -2.0184089,-1.2555815 -2.0119247,-1.2550798 -2.0055603,-1.2537255 -1.999369,-1.2517363 -1.9934229,-1.2490945 -1.9877101,-1.2459844 -1.9823101,-1.2423565 -1.9726441,-1.233669 -1.9726441,-1.233669 -1.964436,-1.2223479 -1.9580618,-1.2098954 -1.9532883,-1.1967469 -1.9497951,-1.1832012 -1.9473842,-1.1694202 -1.9458742,-1.1555118 -1.9448404,-1.127555 -1.9448404,-1.127555 -1.9450972,-1.1129357 -1.9461074,-1.0983532 -1.9480303,-1.0838573 -1.9509759,-1.069538 -1.9552782,-1.0555653 -1.9611901,-1.0421991 -1.968899,-1.0297741 -1.9786072,-1.0188547z" transform="matrix(1,0,0,-1,4.524375,2.619375)" fill="rgb(104,104,104)" fill-rule="nonzero" shaper:cutDepth="0.0000762" stroke-linecap="round" stroke-linejoin="round" /><path d="M-1.6836866,-0.9844413 L-1.7452235,-1.1998703 -1.8068013,-0.9853412 -1.8068013,-0.9853412 -1.8093628,-0.978274 -1.8112087,-0.9749949 -1.8135665,-0.9720654 -1.8164702,-0.969676 -1.8198244,-0.9679776 -1.8234733,-0.9670666 -1.8272313,-0.9669113 -1.8272313,-0.9669113 -1.8312818,-0.9673912 -1.8351785,-0.9685932 -1.8387669,-0.9705305 -1.8419175,-0.9731201 -1.8444946,-0.9762812 -1.8464753,-0.9798453 -1.8475972,-0.9837665 -1.8480662,-0.987818 -1.8480662,-0.987818 -1.8477105,-0.9923373 -1.8465574,-0.9967267 -1.7675703,-1.27138 -1.7675703,-1.27138 -1.7631463,-1.286259 -1.7631463,-1.286259 -1.759856,-1.290485 -1.7555675,-1.2936926 -1.7505518,-1.2955658 -1.7452571,-1.296389 -1.7452571,-1.296389 -1.740969,-1.2961368 -1.7368287,-1.2949984 -1.7331052,-1.2928627 -1.7300407,-1.2898582 -1.7257208,-1.2824516 -1.7229135,-1.2743328 -1.6632853,-1.0647964 -1.6027007,-1.2753528 -1.6027007,-1.2753528 -1.6000986,-1.2833537 -1.5960198,-1.2906904 -1.5929808,-1.2935709 -1.5892007,-1.2954148 -1.5850809,-1.2962486 -1.5808774,-1.296389 -1.5808774,-1.296389 -1.5769313,-1.2961981 -1.5731325,-1.2951157 -1.5697529,-1.2930743 -1.5669354,-1.2903049 -1.5627345,-1.2836315 -1.5600426,-1.2762008 -1.4795451,-0.9945427 -1.4795451,-0.9945427 -1.4780683,-0.9845131 -1.4780683,-0.9845131 -1.4784761,-0.9806815 -1.4796323,-0.9770075 -1.4815492,-0.973667 -1.4841995,-0.9708706 -1.4873622,-0.9686718 -1.4908842,-0.9671095 -1.4984721,-0.9659055 -1.4984721,-0.9659055 -1.5022398,-0.9660527 -1.5059169,-0.96688 -1.5093171,-0.9685091 -1.5122902,-0.9708222 -1.5147004,-0.9737232 -1.5166132,-0.976973 -1.5193069,-0.9840102 -1.5813471,-1.1991997 -1.6434215,-0.9820331 -1.6434215,-0.9820331 -1.6458058,-0.9756501 -1.6497835,-0.9701403 -1.6524898,-0.9680668 -1.6556057,-0.9666884 -1.6589393,-0.9659733 -1.6623488,-0.9659055 -1.6623488,-0.9659055 -1.6700928,-0.9667115 -1.6737013,-0.9681913 -1.6767892,-0.970573 -1.6791414,-0.9736802 -1.6809826,-0.9771293 -1.6836866,-0.9844413z" transform="matrix(1,0,0,-1,4.524375,2.619375)" fill="rgb(104,104,104)" fill-rule="nonzero" shaper:cutDepth="0.0000762" stroke-linecap="round" stroke-linejoin="round" /><path d="M-1.2702229,-1.0900523 L-1.2702229,-1.0900523 -1.2608551,-1.0907697 -1.2563271,-1.0920596 -1.2521438,-1.0942021 -1.2486503,-1.0973505 -1.2463177,-1.1014279 -1.2451125,-1.1059726 -1.2448619,-1.1106716 -1.2448619,-1.1106716 -1.2450784,-1.1155639 -1.2464658,-1.120256 -1.2492172,-1.1243012 -1.2530864,-1.1272866 -1.2576093,-1.1291718 -1.2623826,-1.1302678 -1.2721529,-1.1308599 -1.3843834,-1.1308599 -1.3843834,-1.2555815 -1.2260387,-1.2555815 -1.2260387,-1.2555815 -1.2192252,-1.2556117 -1.2158346,-1.2559532 -1.2126039,-1.2570184 -1.2126039,-1.2570184 -1.207115,-1.2599539 -1.2027681,-1.2644013 -1.200186,-1.2700577 -1.199169,-1.2762008 -1.199169,-1.2762008 -1.1994193,-1.2813103 -1.2010521,-1.286153 -1.2041824,-1.2901926 -1.2084192,-1.2930455 -1.213224,-1.2948143 -1.2182382,-1.2958374 -1.2284525,-1.296389 -1.3991834,-1.296389 -1.3991834,-1.296389 -1.4047949,-1.2963325 -1.4103554,-1.2956131 -1.4156925,-1.2938835 -1.4202743,-1.2906691 -1.4232774,-1.2859481 -1.424768,-1.2805346 -1.4253201,-1.2749583 -1.425191,-1.2693464 -1.4252628,-0.992416 -1.4252628,-0.992416 -1.425206,-0.9867793 -1.4244729,-0.9811962 -1.422751,-0.9758299 -1.419519,-0.9712315 -1.4147786,-0.9682015 -1.4093839,-0.9665822 -1.3981484,-0.9659056 -1.2264698,-0.9659055 -1.2264698,-0.9659055 -1.2172197,-0.9666244 -1.2127483,-0.9678514 -1.2085686,-0.9698832 -1.2051061,-0.9729555 -1.2026991,-0.9769204 -1.2014522,-0.9813885 -1.2011806,-0.9860219 -1.2011806,-0.9860219 -1.2014611,-0.9909342 -1.2028779,-0.9956429 -1.2055596,-0.9997611 -1.209372,-1.0028578 -1.2138714,-1.0048529 -1.2186443,-1.0060541 -1.2284525,-1.0067132 -1.3843834,-1.0067132 -1.3843834,-1.0900523 -1.2702229,-1.0900523z" transform="matrix(1,0,0,-1,4.524375,2.619375)" fill="rgb(104,104,104)" fill-rule="nonzero" shaper:cutDepth="0.0000762" stroke-linecap="round" stroke-linejoin="round" /><path d="M-0.9396676,-1.2592455 L-0.9396676,-1.2592455 -0.9377278,-1.2616882 -0.9377278,-1.2616882 -0.9337559,-1.2678274 -0.9326857,-1.2713324 -0.9323395,-1.2749794 -0.9323395,-1.2749794 -0.9327464,-1.2789515 -0.9339658,-1.2827518 -0.9359365,-1.2862228 -0.9385966,-1.2891999 -0.9417939,-1.2915887 -0.9454078,-1.2932866 -0.9492706,-1.2942894 -0.9532461,-1.2946647 -0.9532461,-1.2946647 -0.9590031,-1.2940978 -0.9617657,-1.2931966 -0.9642678,-1.291746 -0.9685582,-1.2878708 -0.972155,-1.2833425 -1.0645348,-1.1584481 -1.1085016,-1.1584481 -1.1085016,-1.2695192 -1.1085016,-1.2695192 -1.1091743,-1.2791644 -1.1102874,-1.2838725 -1.1122383,-1.2882965 -1.1152104,-1.2921102 -1.1192273,-1.2947823 -1.1238584,-1.2961708 -1.1286898,-1.296389 -1.1286898,-1.296389 -1.1354196,-1.2954072 -1.1415507,-1.2924756 -1.1441859,-1.2903101 -1.1463211,-1.2876549 -1.147928,-1.2846475 -1.148878,-1.2813735 -1.148878,-1.2813735 -1.1493712,-1.2745043 -1.1493092,-1.2676086 -1.1493809,-0.9944995 -1.1493809,-0.9944995 -1.1493659,-0.9883974 -1.148471,-0.9823634 -1.1462115,-0.9766999 -1.1423903,-0.9719542 -1.137265,-0.9686561 -1.1314641,-0.9667602 -1.12542,-0.9659522 -1.1193164,-0.9659056 -1.0352923,-0.9659055 -1.0352923,-0.9659055 -1.0255623,-0.9663782 -1.0158895,-0.9675096 -1.0063158,-0.969319 -0.9969528,-0.9719968 -0.9878898,-0.9755683 -0.9792186,-0.9800041 -0.9710602,-0.9853254 -0.9635241,-0.9914952 -0.9566467,-0.9983932 -0.9505606,-1.005997 -0.9453866,-1.0142489 -0.9412295,-1.0230572 -0.9380084,-1.0322489 -0.9357622,-1.0417272 -0.93443,-1.0513756 -0.9338482,-1.0610991 -0.9338482,-1.0610991 -0.935187,-1.0780915 -0.9368688,-1.0864506 -0.9391652,-1.094664 -0.9422532,-1.1026108 -0.9460332,-1.1102553 -0.9505817,-1.1174671 -0.9557275,-1.1242667 -0.9614512,-1.1305873 -0.9677818,-1.1362996 -0.9746258,-1.1413864 -0.9818814,-1.1458644 -0.9895615,-1.1495714 -0.9975154,-1.1526442 -1.0139982,-1.1569907 -0.9396676,-1.2592455z M-1.0337075,-1.0067132 L-1.1085016,-1.0067132 -1.1085016,-1.1176405 -1.0373039,-1.1176405 -1.0373039,-1.1176405 -1.0209899,-1.1168373 -1.0129904,-1.1151716 -1.0054769,-1.1119648 -1.0054769,-1.1119648 -0.9987681,-1.1080432 -0.992688,-1.1032047 -0.9873591,-1.0975494 -0.9828635,-1.091211 -0.9793038,-1.0843036 -0.9767291,-1.0769716 -0.9751936,-1.0693547 -0.9746557,-1.061602 -0.9746557,-1.061602 -0.9752778,-1.0537421 -0.9769068,-1.046028 -0.979731,-1.0386672 -0.9835008,-1.0317423 -0.988217,-1.0254243 -0.9937475,-1.0198052 -1.0000651,-1.0150886 -1.0069856,-1.011311 -1.0069856,-1.011311 -1.0133542,-1.0088136 -1.0200433,-1.0073778 -1.0337075,-1.0067132z" transform="matrix(1,0,0,-1,4.524375,2.619375)" fill="rgb(104,104,104)" fill-rule="nonzero" shaper:cutDepth="0.0000762" stroke-linecap="round" stroke-linejoin="round" /><path d="M0.9148024,0.9830631 L0.9148024,0.9830631 0.9149948,0.9718054 0.9159524,0.9605896 0.917095,0.9550744 0.9188542,0.9497191 0.9237829,0.9395974 0.9237829,0.9395974 0.9290254,0.9312542 0.9352862,0.9236469 0.9425386,0.9169779 0.950683,0.9114325 0.9594901,0.9070176 0.9688602,0.9039659 0.9785339,0.902106 0.9883709,0.9015199 0.9883709,0.9015199 0.9993914,0.9023047 1.0102225,0.9044765 1.0205847,0.9083068 1.0302575,0.9136427 1.0390266,0.9203616 1.0465779,0.9284244 1.0527275,0.9376008 1.0574851,0.9475721 1.0574851,0.9475721 1.0604613,0.9564743 1.0618445,0.9657667 1.062514,0.984537 1.0624423,1.1641106 1.0624423,1.1641106 1.0631546,1.1739055 1.0642644,1.1787051 1.0661758,1.1832264 1.0693168,1.1870039 1.0734955,1.1895769 1.0782245,1.1909157 1.0831335,1.1911959 1.0831335,1.1911959 1.088022,1.1909176 1.0927478,1.1896546 1.0968725,1.1870168 1.0998941,1.183192 1.1017042,1.1786345 1.1027183,1.1738464 1.1033216,1.1640741 1.1032498,0.9800457 1.1032498,0.9800457 1.1026443,0.9684767 1.1012517,0.9569766 1.0988803,0.945638 1.0955778,0.9345326 1.0911405,0.9238348 1.0856768,0.9136182 1.0791426,0.9040547 1.0716331,0.8952341 1.0632627,0.8872266 1.0540911,0.880151 1.0441736,0.8741659 1.0336562,0.8693113 1.0226945,0.8655669 1.0114132,0.8629322 0.9999381,0.8613521 0.9883709,0.8607124 0.9883709,0.8607124 0.9797609,0.8610409 0.9711963,0.86198 0.954353,0.8655822 0.9382657,0.8717278 0.9306121,0.8756846 0.9232994,0.8802409 0.9163384,0.8853183 0.9097947,0.8909231 0.9037224,0.8970356 0.8981625,0.9036174 0.8931625,0.9106343 0.8886738,0.917989 0.884721,0.9256444 0.881323,0.9335624 0.881323,0.9335624 0.8774325,0.9452753 0.8750602,0.9573887 0.8741457,0.9696956 0.8739948,0.9820365 0.873923,1.167631 0.873923,1.167631 0.8749662,1.1765059 0.8763705,1.1807566 0.8786616,1.1845922 0.881852,1.1877265 0.8858118,1.1897984 0.8901514,1.190877 0.8946142,1.1911959 0.8946142,1.1911959 0.899204,1.1910109 0.9036463,1.1898562 0.9076532,1.1876375 0.9107166,1.1842096 0.9128509,1.1801531 0.9140719,1.1757224 0.9148024,1.1665746 0.9148024,0.9830631z" transform="matrix(1,0,0,-1,4.524375,2.619375)" fill="rgb(104,104,104)" fill-rule="nonzero" shaper:cutDepth="0.0000762" stroke-linecap="round" stroke-linejoin="round" /><path d="M1.1952823,0.8865763 L1.1952823,0.8865763 1.1946707,0.8770668 1.1936022,0.8724299 1.1916994,0.8680526 1.1886156,0.8644454 1.184477,0.8620941 1.1798534,0.8609551 1.1750941,0.8607124 1.1750941,0.8607124 1.1706923,0.8609529 1.1664135,0.8619952 1.1624617,0.8639389 1.1592481,0.8669519 1.1569151,0.8706846 1.1554641,0.8748481 1.1544747,0.8835925 1.1544029,1.1612368 1.1544029,1.1612368 1.1544571,1.1679058 1.1553286,1.174516 1.1575822,1.1807858 1.1593883,1.1836024 1.1617229,1.1859825 1.1676163,1.1890763 1.1741144,1.1906034 1.1807453,1.191233 1.1874175,1.1911958 1.2682761,1.1911959 1.2682761,1.1911959 1.2886879,1.1901887 1.2987289,1.1882774 1.3085088,1.1853047 1.3085088,1.1853047 1.3216931,1.1793354 1.3279321,1.1756571 1.3338368,1.1714641 1.3394104,1.1668399 1.3445562,1.1617437 1.3535522,1.1504048 1.3574003,1.14427 1.3607195,1.1378324 1.3635814,1.1311808 1.3658429,1.1242994 1.3676595,1.1172901 1.3688808,1.1101503 1.3699357,1.0957149 1.3699357,1.0957149 1.368576,1.0796607 1.367022,1.0717502 1.3648826,1.063978 1.362077,1.0564208 1.3586091,1.0491435 1.3545248,1.0421938 1.3499271,1.035572 1.3448114,1.029342 1.3391635,1.02359 1.3330348,1.0183537 1.3264976,1.0136369 1.3195443,1.0095587 1.3122453,1.006137 1.2969419,1.001096 1.2969419,1.001096 1.2892335,0.9997092 1.2814294,0.9990221 1.2657682,0.9986533 1.1952823,0.9986533 1.1952823,0.8865763z M1.2667752,1.1503882 L1.1952823,1.1503882 1.1952823,1.0394608 1.2697848,1.0394608 1.2697848,1.0394608 1.2812204,1.0404066 1.2923912,1.0430108 1.3028516,1.0477157 1.3076741,1.0508275 1.312085,1.0544996 1.316119,1.0585841 1.3196342,1.0631209 1.3226172,1.0680246 1.3249949,1.0732489 1.3281092,1.0842858 1.3291281,1.0957149 1.3291281,1.0957149 1.3280454,1.1073577 1.3247538,1.1185704 1.3221206,1.123794 1.3188578,1.128649 1.3150403,1.1330814 1.310705,1.1370081 1.3059552,1.1404241 1.3008742,1.1433239 1.2899204,1.1474045 1.2784482,1.1496542 1.2667752,1.1503882z" transform="matrix(1,0,0,-1,4.524375,2.619375)" fill="rgb(104,104,104)" fill-rule="nonzero" shaper:cutDepth="0.0000762" stroke-linecap="round" stroke-linejoin="round" /><path d="M1.4619681,0.8865763 L1.4619681,0.8865763 1.4613565,0.8770668 1.460288,0.8724299 1.4583853,0.8680526 1.4553015,0.8644454 1.4511629,0.8620941 1.4465392,0.8609551 1.4417799,0.8607124 1.4417799,0.8607124 1.4373782,0.8609529 1.4330994,0.8619952 1.4291476,0.8639389 1.4259339,0.8669519 1.4236009,0.8706846 1.4221499,0.8748481 1.4211605,0.8835925 1.4210888,1.1612368 1.4210888,1.1612368 1.4211429,1.1679058 1.4220144,1.174516 1.424268,1.1807858 1.4260741,1.1836024 1.4284087,1.1859825 1.4343021,1.1890763 1.4408002,1.1906034 1.4474312,1.191233 1.4541034,1.1911958 1.5349619,1.1911959 1.5349619,1.1911959 1.5553738,1.1901887 1.5654147,1.1882774 1.5751947,1.1853047 1.5751947,1.1853047 1.5883789,1.1793354 1.5946179,1.1756571 1.6005227,1.1714641 1.6060963,1.1668399 1.611242,1.1617437 1.620238,1.1504048 1.6240861,1.14427 1.6274054,1.1378324 1.6302673,1.1311808 1.6325287,1.1242994 1.6343453,1.1172901 1.6355667,1.1101503 1.6366215,1.0957149 1.6366215,1.0957149 1.6352618,1.0796607 1.6337078,1.0717502 1.6315684,1.063978 1.6287629,1.0564208 1.625295,1.0491435 1.6212106,1.0421938 1.616613,1.035572 1.6114972,1.029342 1.6058493,1.02359 1.5997207,1.0183537 1.5931834,1.0136369 1.5862301,1.0095587 1.5789311,1.006137 1.5636277,1.001096 1.5636277,1.001096 1.5559194,0.9997092 1.5481152,0.9990221 1.5324541,0.9986533 1.4619681,0.9986533 1.4619681,0.8865763z M1.533461,1.1503882 L1.4619681,1.1503882 1.4619681,1.0394608 1.5364706,1.0394608 1.5364706,1.0394608 1.5479062,1.0404066 1.559077,1.0430108 1.5695375,1.0477157 1.5743599,1.0508275 1.5787708,1.0544996 1.5828048,1.0585841 1.58632,1.0631209 1.5893031,1.0680246 1.5916807,1.0732489 1.5947951,1.0842858 1.595814,1.0957149 1.595814,1.0957149 1.5947312,1.1073577 1.5914396,1.1185704 1.5888064,1.123794 1.5855436,1.128649 1.5817261,1.1330814 1.5773908,1.1370081 1.572641,1.1404241 1.56756,1.1433239 1.5566062,1.1474045 1.545134,1.1496542 1.533461,1.1503882z" transform="matrix(1,0,0,-1,4.524375,2.619375)" fill="rgb(104,104,104)" fill-rule="nonzero" shaper:cutDepth="0.0000762" stroke-linecap="round" stroke-linejoin="round" /><path d="M1.8428145,1.067049 L1.8428145,1.067049 1.8521823,1.0663317 1.8567103,1.0650417 1.8608936,1.0628992 1.8643871,1.0597509 1.8667197,1.0556735 1.8679249,1.0511287 1.8681755,1.0464297 1.8681755,1.0464297 1.867959,1.0415374 1.8665716,1.0368454 1.8638202,1.0328002 1.859951,1.0298148 1.8554281,1.0279296 1.8506548,1.0268336 1.8408845,1.0262414 1.728654,1.0262414 1.728654,0.9015199 1.8869987,0.9015199 1.8869987,0.9015199 1.8938122,0.9014897 1.8972028,0.9011482 1.9004335,0.900083 1.9004335,0.900083 1.9059224,0.8971474 1.9102693,0.8927001 1.9128514,0.8870437 1.9138684,0.8809006 1.9138684,0.8809006 1.9136181,0.875791 1.9119853,0.8709484 1.908855,0.8669088 1.9046182,0.8640559 1.8998134,0.8622871 1.8947992,0.861264 1.8845849,0.8607124 1.713854,0.8607124 1.713854,0.8607124 1.7082425,0.8607689 1.702682,0.8614883 1.6973449,0.8632179 1.6927631,0.8664322 1.68976,0.8711533 1.6882694,0.8765668 1.6877173,0.8821431 1.6878464,0.887755 1.6877746,1.1646854 1.6877746,1.1646854 1.6878314,1.170322 1.6885645,1.1759051 1.6902864,1.1812715 1.6935184,1.1858699 1.6982588,1.1888998 1.7036535,1.1905192 1.714889,1.1911958 1.8865676,1.1911959 1.8865676,1.1911959 1.8958178,1.1904769 1.9002891,1.18925 1.9044688,1.1872182 1.9079313,1.1841459 1.9103383,1.180181 1.9115852,1.1757129 1.9118568,1.1710795 1.9118568,1.1710795 1.9115763,1.1661672 1.9101595,1.1614585 1.9074778,1.1573403 1.9036654,1.1542436 1.899166,1.1522485 1.8943931,1.1510472 1.8845849,1.1503882 1.728654,1.1503882 1.728654,1.067049 1.8428145,1.067049z" transform="matrix(1,0,0,-1,4.524375,2.619375)" fill="rgb(104,104,104)" fill-rule="nonzero" shaper:cutDepth="0.0000762" stroke-linecap="round" stroke-linejoin="round" /><path d="M2.1733698,0.8978558 L2.1733698,0.8978558 2.1753096,0.8954131 2.1753096,0.8954131 2.1792815,0.889274 2.1803517,0.885769 2.1806979,0.882122 2.1806979,0.882122 2.180291,0.8781499 2.1790716,0.8743496 2.1771009,0.8708786 2.1744409,0.8679015 2.1712435,0.8655126 2.1676296,0.8638148 2.1637668,0.8628119 2.1597913,0.8624366 2.1597913,0.8624366 2.1540343,0.8630035 2.1512717,0.8639048 2.1487696,0.8653554 2.1444792,0.8692306 2.1408824,0.8737588 2.0485026,0.9986533 2.0045358,0.9986533 2.0045358,0.8875821 2.0045358,0.8875821 2.0038631,0.8779369 2.00275,0.8732289 2.0007991,0.8688048 1.997827,0.8649912 1.9938101,0.8623191 1.989179,0.8609305 1.9843476,0.8607124 1.9843476,0.8607124 1.9776178,0.8616941 1.9714867,0.8646257 1.9688515,0.8667913 1.9667163,0.8694465 1.9651094,0.8724538 1.9641594,0.8757278 1.9641594,0.8757278 1.9636662,0.882597 1.9637282,0.8894927 1.9636565,1.1626019 1.9636565,1.1626019 1.9636715,1.168704 1.9645664,1.1747379 1.9668259,1.1804015 1.9706471,1.1851471 1.9757724,1.1884452 1.9815734,1.1903412 1.9876174,1.1911492 1.993721,1.1911958 2.0777451,1.1911959 2.0777451,1.1911959 2.0874751,1.1907231 2.0971479,1.1895918 2.1067216,1.1877824 2.1160846,1.1851045 2.1251476,1.181533 2.1338188,1.1770973 2.1419772,1.171776 2.1495133,1.1656062 2.1563907,1.1587082 2.1624768,1.1511044 2.1676508,1.1428525 2.1718079,1.1340441 2.175029,1.1248525 2.1772752,1.1153742 2.1786074,1.1057258 2.1791892,1.0960023 2.1791892,1.0960023 2.1778504,1.0790099 2.1761686,1.0706508 2.1738722,1.0624374 2.1707842,1.0544906 2.1670042,1.0468461 2.1624557,1.0396342 2.1573099,1.0328347 2.1515862,1.0265141 2.1452556,1.0208017 2.1384116,1.015715 2.131156,1.0112369 2.1234759,1.00753 2.115522,1.0044571 2.0990392,1.0001106 2.1733698,0.8978558z M2.0793299,1.1503882 L2.0045358,1.1503882 2.0045358,1.0394608 2.0757335,1.0394608 2.0757335,1.0394608 2.0920475,1.0402641 2.100047,1.0419298 2.1075605,1.0451365 2.1075605,1.0451365 2.1142693,1.0490581 2.1203494,1.0538967 2.1256783,1.059552 2.1301739,1.0658904 2.1337336,1.0727978 2.1363083,1.0801298 2.1378438,1.0877466 2.1383817,1.0954994 2.1383817,1.0954994 2.1377596,1.1033593 2.1361306,1.1110734 2.1333064,1.1184342 2.1295367,1.1253591 2.1248204,1.1316771 2.1192899,1.1372962 2.1129723,1.1420128 2.1060518,1.1457903 2.1060518,1.1457903 2.0996832,1.1482878 2.0929941,1.1497236 2.0793299,1.1503882z" transform="matrix(1,0,0,-1,4.524375,2.619375)" fill="rgb(104,104,104)" fill-rule="nonzero" shaper:cutDepth="0.0000762" stroke-linecap="round" stroke-linejoin="round" /><path d="M0.9932563,-1.2601795 L0.9932563,-1.2601795 0.9990169,-1.2601913 1.0046795,-1.2611135 1.0046795,-1.2611135 1.0096868,-1.2635683 1.0136003,-1.2675504 1.0161839,-1.2724942 1.0171086,-1.2779969 1.0171086,-1.2779969 1.0160528,-1.2836597 1.0134755,-1.2888035 1.0093121,-1.292775 1.0041766,-1.2953832 1.0041766,-1.2953832 1.0006794,-1.2962345 0.9970635,-1.296382 0.9898264,-1.296389 0.8139331,-1.296389 0.8139331,-1.296389 0.8090766,-1.2961288 0.8043125,-1.2951799 0.7998265,-1.2933022 0.7960678,-1.2902295 0.7933505,-1.286205 0.7917498,-1.2816134 0.7911171,-1.2767966 0.7912302,-1.2719342 0.7911585,-0.9880335 0.7911585,-0.9880335 0.7921546,-0.9800132 0.7933725,-0.9761491 0.7952763,-0.9725807 0.7980261,-0.9696168 0.8014353,-0.967439 0.8053028,-0.966254 0.809335,-0.9659055 0.809335,-0.9659055 0.8133954,-0.9662475 0.8173125,-0.9673622 0.8207972,-0.9694683 0.8235375,-0.9724758 0.8253965,-0.9761015 0.8265759,-0.9800035 0.8274398,-0.9880968 0.8274398,-1.2601795 0.9932563,-1.2601795z" transform="matrix(1,0,0,-1,4.524375,2.619375)" fill="rgb(104,104,104)" fill-rule="nonzero" shaper:cutDepth="0.0000762" stroke-linecap="round" stroke-linejoin="round" /><path d="M1.1820131,-0.9613081 L1.1820131,-0.9613081 1.1909159,-0.9618556 1.1997328,-0.9630993 1.2083899,-0.9651951 1.2168463,-0.9680482 1.2250595,-0.9715361 1.2329475,-0.975677 1.2476568,-0.9857345 1.2476568,-0.9857345 1.25489,-0.9923838 1.2614298,-0.9997196 1.2673245,-1.0075807 1.2725455,-1.0159053 1.2771298,-1.0245973 1.281083,-1.0335937 1.2873675,-1.0522082 1.2917032,-1.071374 1.2945016,-1.0908239 1.2959906,-1.1104197 1.2963672,-1.1300696 1.2963672,-1.1300696 1.295928,-1.1486266 1.2945402,-1.1671329 1.2919393,-1.1855145 1.2878896,-1.2036247 1.2821919,-1.2212925 1.2745523,-1.2382003 1.2699135,-1.2462486 1.2646982,-1.2539315 1.252614,-1.2680105 1.252614,-1.2680105 1.245309,-1.2742428 1.2374455,-1.2797537 1.2291017,-1.2845066 1.2203661,-1.2884933 1.2113403,-1.2917718 1.2020562,-1.2942216 1.1925786,-1.2957664 1.1829969,-1.296389 1.1829969,-1.296389 1.1710165,-1.2953925 1.1592258,-1.2930423 1.1477945,-1.2893187 1.1367838,-1.2844904 1.1262936,-1.2786159 1.1164287,-1.2717448 1.1073242,-1.263892 1.0992266,-1.2550067 1.0992266,-1.2550067 1.0901481,-1.2405562 1.0829816,-1.2250574 1.0774125,-1.2089241 1.0732933,-1.1923554 1.070364,-1.1755373 1.068427,-1.1585742 1.0673881,-1.1415349 1.0670403,-1.1244657 1.0670403,-1.1244657 1.0675174,-1.1071162 1.068882,-1.0898153 1.0714175,-1.0726453 1.0751499,-1.0556962 1.0802631,-1.0391101 1.0870848,-1.0231573 1.0957582,-1.0081215 1.106411,-0.9944276 1.106411,-0.9944276 1.1142967,-0.9873963 1.122682,-0.9809949 1.1316516,-0.9754283 1.141113,-0.9707166 1.1509441,-0.9668521 1.161084,-0.9638993 1.171476,-0.9620138 1.1820131,-0.9613081z M1.2217928,-1.0188547 L1.2217928,-1.0188547 1.2130489,-1.012187 1.2033184,-1.0070632 1.1929189,-1.0035098 1.1820274,-1.0021151 1.1819911,-1.002115 1.1819911,-1.002115 1.1757296,-1.0026208 1.1695697,-1.0038585 1.1577541,-1.0081022 1.146834,-1.0142967 1.1418204,-1.0180833 1.1372322,-1.0223751 1.1372322,-1.0223751 1.1287318,-1.0331134 1.1221556,-1.0451407 1.1172102,-1.0579175 1.1135381,-1.0711234 1.1108889,-1.0845693 1.1091695,-1.0981672 1.1079197,-1.1255434 1.1079197,-1.1255434 1.108842,-1.1521497 1.1101474,-1.1654002 1.1121783,-1.1785567 1.115138,-1.1915385 1.1193033,-1.2041777 1.1247511,-1.2163303 1.131772,-1.2276341 1.131772,-1.2276341 1.1364383,-1.2334219 1.141693,-1.2386798 1.1474697,-1.2433606 1.153718,-1.2473879 1.1603566,-1.2507356 1.1673338,-1.253299 1.1745862,-1.2549347 1.1819911,-1.2555815 1.1819911,-1.2555815 1.1884753,-1.2550798 1.1948397,-1.2537255 1.201031,-1.2517363 1.2069771,-1.2490945 1.2126899,-1.2459844 1.2180899,-1.2423565 1.2277559,-1.233669 1.2277559,-1.233669 1.235964,-1.2223479 1.2423382,-1.2098954 1.2471117,-1.1967469 1.2506049,-1.1832012 1.2530158,-1.1694202 1.2545258,-1.1555118 1.2555596,-1.127555 1.2555596,-1.127555 1.2553028,-1.1129357 1.2542926,-1.0983532 1.2523697,-1.0838573 1.2494241,-1.069538 1.2451218,-1.0555653 1.2392099,-1.0421991 1.231501,-1.0297741 1.2217928,-1.0188547z" transform="matrix(1,0,0,-1,4.524375,2.619375)" fill="rgb(104,104,104)" fill-rule="nonzero" shaper:cutDepth="0.0000762" stroke-linecap="round" stroke-linejoin="round" /><path d="M1.5167134,-0.9844413 L1.4551765,-1.1998703 1.3935987,-0.9853412 1.3935987,-0.9853412 1.3910372,-0.978274 1.3891913,-0.9749949 1.3868335,-0.9720654 1.3839298,-0.969676 1.3805756,-0.9679776 1.3769267,-0.9670666 1.3731687,-0.9669113 1.3731687,-0.9669113 1.3691182,-0.9673912 1.3652215,-0.9685932 1.3616331,-0.9705305 1.3584825,-0.9731201 1.3559054,-0.9762812 1.3539247,-0.9798453 1.3528028,-0.9837665 1.3523338,-0.987818 1.3523338,-0.987818 1.3526895,-0.9923373 1.3538426,-0.9967267 1.4328297,-1.27138 1.4328297,-1.27138 1.4372537,-1.286259 1.4372537,-1.286259 1.440544,-1.290485 1.4448325,-1.2936926 1.4498482,-1.2955658 1.4551429,-1.296389 1.4551429,-1.296389 1.459431,-1.2961368 1.4635713,-1.2949984 1.4672948,-1.2928627 1.4703593,-1.2898582 1.4746792,-1.2824516 1.4774865,-1.2743328 1.5371147,-1.0647964 1.5976993,-1.2753528 1.5976993,-1.2753528 1.6003014,-1.2833537 1.6043802,-1.2906904 1.6074192,-1.2935709 1.6111993,-1.2954148 1.6153191,-1.2962486 1.6195226,-1.296389 1.6195226,-1.296389 1.6234687,-1.2961981 1.6272675,-1.2951157 1.6306471,-1.2930743 1.6334646,-1.2903049 1.6376655,-1.2836315 1.6403574,-1.2762008 1.7208549,-0.9945427 1.7208549,-0.9945427 1.7223317,-0.9845131 1.7223317,-0.9845131 1.7219239,-0.9806815 1.7207677,-0.9770075 1.7188508,-0.973667 1.7162005,-0.9708706 1.7130378,-0.9686718 1.7095158,-0.9671095 1.7019279,-0.9659055 1.7019279,-0.9659055 1.6981602,-0.9660527 1.6944831,-0.96688 1.6910829,-0.9685091 1.6881098,-0.9708222 1.6856996,-0.9737232 1.6837868,-0.976973 1.6810931,-0.9840102 1.6190529,-1.1991997 1.5569785,-0.9820331 1.5569785,-0.9820331 1.5545942,-0.9756501 1.5506165,-0.9701403 1.5479102,-0.9680668 1.5447943,-0.9666884 1.5414607,-0.9659733 1.5380512,-0.9659055 1.5380512,-0.9659055 1.5303072,-0.9667115 1.5266987,-0.9681913 1.5236108,-0.970573 1.5212586,-0.9736802 1.5194174,-0.9771293 1.5167134,-0.9844413z" transform="matrix(1,0,0,-1,4.524375,2.619375)" fill="rgb(104,104,104)" fill-rule="nonzero" shaper:cutDepth="0.0000762" stroke-linecap="round" stroke-linejoin="round" /><path d="M1.9301771,-1.0900523 L1.9301771,-1.0900523 1.9395449,-1.0907697 1.9440729,-1.0920596 1.9482562,-1.0942021 1.9517497,-1.0973505 1.9540823,-1.1014279 1.9552875,-1.1059726 1.9555381,-1.1106716 1.9555381,-1.1106716 1.9553216,-1.1155639 1.9539342,-1.120256 1.9511828,-1.1243012 1.9473136,-1.1272866 1.9427907,-1.1291718 1.9380174,-1.1302678 1.9282471,-1.1308599 1.8160166,-1.1308599 1.8160166,-1.2555815 1.9743613,-1.2555815 1.9743613,-1.2555815 1.9811748,-1.2556117 1.9845654,-1.2559532 1.9877961,-1.2570184 1.9877961,-1.2570184 1.993285,-1.2599539 1.9976319,-1.2644013 2.000214,-1.2700577 2.001231,-1.2762008 2.001231,-1.2762008 2.0009807,-1.2813103 1.9993479,-1.286153 1.9962176,-1.2901926 1.9919808,-1.2930455 1.987176,-1.2948143 1.9821618,-1.2958374 1.9719475,-1.296389 1.8012166,-1.296389 1.8012166,-1.296389 1.7956051,-1.2963325 1.7900446,-1.2956131 1.7847075,-1.2938835 1.7801257,-1.2906691 1.7771226,-1.2859481 1.775632,-1.2805346 1.7750799,-1.2749583 1.775209,-1.2693464 1.7751372,-0.992416 1.7751372,-0.992416 1.775194,-0.9867793 1.7759271,-0.9811962 1.777649,-0.9758299 1.780881,-0.9712315 1.7856214,-0.9682015 1.7910161,-0.9665822 1.8022516,-0.9659056 1.9739302,-0.9659055 1.9739302,-0.9659055 1.9831803,-0.9666244 1.9876517,-0.9678514 1.9918314,-0.9698832 1.9952939,-0.9729555 1.9977009,-0.9769204 1.9989478,-0.9813885 1.9992194,-0.9860219 1.9992194,-0.9860219 1.9989389,-0.9909342 1.9975221,-0.9956429 1.9948404,-0.9997611 1.991028,-1.0028578 1.9865286,-1.0048529 1.9817557,-1.0060541 1.9719475,-1.0067132 1.8160166,-1.0067132 1.8160166,-1.0900523 1.9301771,-1.0900523z" transform="matrix(1,0,0,-1,4.524375,2.619375)" fill="rgb(104,104,104)" fill-rule="nonzero" shaper:cutDepth="0.0000762" stroke-linecap="round" stroke-linejoin="round" /><path d="M2.2607324,-1.2592455 L2.2607324,-1.2592455 2.2626722,-1.2616882 2.2626722,-1.2616882 2.2666441,-1.2678274 2.2677143,-1.2713324 2.2680605,-1.2749794 2.2680605,-1.2749794 2.2676536,-1.2789515 2.2664342,-1.2827518 2.2644635,-1.2862228 2.2618034,-1.2891999 2.2586061,-1.2915887 2.2549922,-1.2932866 2.2511294,-1.2942894 2.2471539,-1.2946647 2.2471539,-1.2946647 2.2413969,-1.2940978 2.2386343,-1.2931966 2.2361322,-1.291746 2.2318418,-1.2878708 2.228245,-1.2833425 2.1358652,-1.1584481 2.0918984,-1.1584481 2.0918984,-1.2695192 2.0918984,-1.2695192 2.0912257,-1.2791644 2.0901126,-1.2838725 2.0881617,-1.2882965 2.0851896,-1.2921102 2.0811727,-1.2947823 2.0765416,-1.2961708 2.0717102,-1.296389 2.0717102,-1.296389 2.0649804,-1.2954072 2.0588493,-1.2924756 2.0562141,-1.2903101 2.0540789,-1.2876549 2.052472,-1.2846475 2.051522,-1.2813735 2.051522,-1.2813735 2.0510288,-1.2745043 2.0510908,-1.2676086 2.0510191,-0.9944995 2.0510191,-0.9944995 2.0510341,-0.9883974 2.051929,-0.9823634 2.0541885,-0.9766999 2.0580097,-0.9719542 2.063135,-0.9686561 2.0689359,-0.9667602 2.07498,-0.9659522 2.0810836,-0.9659056 2.1651077,-0.9659055 2.1651077,-0.9659055 2.1748377,-0.9663782 2.1845105,-0.9675096 2.1940842,-0.969319 2.2034472,-0.9719968 2.2125102,-0.9755683 2.2211814,-0.9800041 2.2293398,-0.9853254 2.2368759,-0.9914952 2.2437533,-0.9983932 2.2498394,-1.005997 2.2550134,-1.0142489 2.2591705,-1.0230572 2.2623916,-1.0322489 2.2646378,-1.0417272 2.26597,-1.0513756 2.2665518,-1.0610991 2.2665518,-1.0610991 2.265213,-1.0780915 2.2635312,-1.0864506 2.2612348,-1.094664 2.2581468,-1.1026108 2.2543668,-1.1102553 2.2498183,-1.1174671 2.2446725,-1.1242667 2.2389488,-1.1305873 2.2326182,-1.1362996 2.2257742,-1.1413864 2.2185186,-1.1458644 2.2108385,-1.1495714 2.2028846,-1.1526442 2.1864018,-1.1569907 2.2607324,-1.2592455z M2.1666925,-1.0067132 L2.0918984,-1.0067132 2.0918984,-1.1176405 2.1630961,-1.1176405 2.1630961,-1.1176405 2.1794101,-1.1168373 2.1874096,-1.1151716 2.1949231,-1.1119648 2.1949231,-1.1119648 2.2016319,-1.1080432 2.207712,-1.1032047 2.2130409,-1.0975494 2.2175365,-1.091211 2.2210962,-1.0843036 2.2236709,-1.0769716 2.2252064,-1.0693547 2.2257443,-1.061602 2.2257443,-1.061602 2.2251222,-1.0537421 2.2234932,-1.046028 2.220669,-1.0386672 2.2168992,-1.0317423 2.212183,-1.0254243 2.2066525,-1.0198052 2.2003349,-1.0150886 2.1934144,-1.011311 2.1934144,-1.011311 2.1870458,-1.0088136 2.1803567,-1.0073778 2.1666925,-1.0067132z" transform="matrix(1,0,0,-1,4.524375,2.619375)" fill="rgb(104,104,104)" fill-rule="nonzero" shaper:cutDepth="0.0000762" stroke-linecap="round" stroke-linejoin="round" /><path d="M1.1902737,1.2963838 L1.1902737,1.2963838 1.1899785,1.286914 1.189235,1.2822317 1.1877797,1.2777248 1.1877797,1.2777248 1.1838302,1.2732628 1.1787731,1.270082 1.1731844,1.2680036 1.1672733,1.2671945 1.1672733,1.2671945 1.1606793,1.2681474 1.1545381,1.2707077 1.1491995,1.2747091 1.1454737,1.2802188 1.1454737,1.2802188 1.1441582,1.2840822 1.1437416,1.288146 1.1437186,1.2963206 1.1436263,1.6617117 1.1436263,1.6617117 1.1439375,1.6718717 1.1447084,1.676896 1.1466745,1.6815715 1.1466745,1.6815715 1.1507985,1.685907 1.155732,1.6892853 1.1613349,1.6913777 1.1672733,1.6921019 1.1672733,1.6921019 1.1725066,1.6917499 1.177571,1.6903991 1.1820498,1.6876726 1.1855318,1.6837689 1.1878729,1.6790678 1.1893449,1.6740371 1.1902737,1.6635961 1.1902737,1.2963838z" transform="matrix(1,0,0,-1,4.524375,2.619375)" fill="rgb(104,104,104)" fill-rule="nonzero" shaper:cutDepth="0.0000762" stroke-linecap="round" stroke-linejoin="round" /><path d="M1.4580578,1.5324845 L1.4580578,1.5324845 1.4708024,1.5316509 1.4770273,1.5301645 1.4828914,1.5276316 1.4879449,1.523721 1.4915623,1.5184643 1.4934346,1.5123559 1.4938054,1.505974 1.4938054,1.505974 1.4926684,1.4982578 1.4914275,1.4945542 1.4895661,1.4911108 1.4870834,1.4880806 1.4840863,1.4855741 1.4771786,1.4819574 1.4771786,1.4819574 1.472013,1.4808256 1.4667425,1.4802856 1.4561631,1.4800176 1.3144206,1.4800176 1.3144206,1.3016489 1.3144206,1.3016489 1.3142826,1.2927978 1.3138564,1.2883902 1.3124808,1.2841908 1.3124808,1.2841908 1.3110779,1.2804564 1.3091132,1.2769865 1.3063976,1.2740626 1.3032745,1.2715811 1.299771,1.2696364 1.295997,1.2683108 1.2880948,1.2671945 1.2880948,1.2671945 1.2806633,1.2683314 1.2737114,1.2711678 1.2706238,1.2733447 1.2679463,1.2759834 1.2638012,1.282251 1.2638012,1.282251 1.2624269,1.2869477 1.2619967,1.2918313 1.2619537,1.3016312 1.2618614,1.656539 1.2618614,1.656539 1.2623316,1.6640918 1.2637022,1.6715346 1.266539,1.6785445 1.2710187,1.6846368 1.2739194,1.6870779 1.2771836,1.6890042 1.2843597,1.6914084 1.2918618,1.6923401 1.2994289,1.6921018 1.5161592,1.6921019 1.5161592,1.6921019 1.5281836,1.6908551 1.5340248,1.6892479 1.5394262,1.6865441 1.5440486,1.6826369 1.547428,1.6776288 1.5493183,1.6718837 1.5499671,1.6658684 1.5499671,1.6658684 1.5494354,1.6598001 1.5475677,1.6540047 1.5443263,1.6488612 1.5396672,1.6449409 1.5341729,1.6423219 1.528298,1.6406918 1.5222708,1.6398474 1.5161801,1.6396349 1.3144206,1.6396349 1.3144206,1.5324845 1.4580578,1.5324845z" transform="matrix(1,0,0,-1,4.524375,2.619375)" fill="rgb(104,104,104)" fill-rule="nonzero" shaper:cutDepth="0.0000762" stroke-linecap="round" stroke-linejoin="round" /><path d="M1.812763,1.5324845 L1.812763,1.5324845 1.8255077,1.5316509 1.8317326,1.5301645 1.8375967,1.5276316 1.8426502,1.523721 1.8462676,1.5184643 1.8481399,1.5123559 1.8485107,1.505974 1.8485107,1.505974 1.8473736,1.4982578 1.8461328,1.4945542 1.8442714,1.4911108 1.8417886,1.4880806 1.8387915,1.4855741 1.8318839,1.4819574 1.8318839,1.4819574 1.8267183,1.4808256 1.8214478,1.4802856 1.8108683,1.4800176 1.6691259,1.4800176 1.6691259,1.3016489 1.6691259,1.3016489 1.6689879,1.2927978 1.6685617,1.2883902 1.6671861,1.2841908 1.6671861,1.2841908 1.6657832,1.2804564 1.6638184,1.2769865 1.6611029,1.2740626 1.6579798,1.2715811 1.6544763,1.2696364 1.6507023,1.2683108 1.6428001,1.2671945 1.6428001,1.2671945 1.6353686,1.2683314 1.6284167,1.2711678 1.6253291,1.2733447 1.6226516,1.2759834 1.6185065,1.282251 1.6185065,1.282251 1.6171322,1.2869477 1.616702,1.2918313 1.616659,1.3016312 1.6165667,1.656539 1.6165667,1.656539 1.6170369,1.6640918 1.6184075,1.6715346 1.6212443,1.6785445 1.625724,1.6846368 1.6286247,1.6870779 1.6318888,1.6890042 1.639065,1.6914084 1.6465671,1.6923401 1.6541342,1.6921018 1.8708645,1.6921019 1.8708645,1.6921019 1.8828889,1.6908551 1.8887301,1.6892479 1.8941315,1.6865441 1.8987538,1.6826369 1.9021333,1.6776288 1.9040236,1.6718837 1.9046724,1.6658684 1.9046724,1.6658684 1.9041407,1.6598001 1.9022729,1.6540047 1.8990315,1.6488612 1.8943724,1.6449409 1.8888782,1.6423219 1.8830033,1.6406918 1.8769761,1.6398474 1.8708854,1.6396349 1.6691259,1.6396349 1.6691259,1.5324845 1.812763,1.5324845z" transform="matrix(1,0,0,-1,4.524375,2.619375)" fill="rgb(104,104,104)" fill-rule="nonzero" shaper:cutDepth="0.0000762" stroke-linecap="round" stroke-linejoin="round" /><path d="M-1.2744316,2.078657 L-1.2971616,2.0199501 -1.2971616,2.0199501 -1.3017773,2.0116971 -1.3048351,2.0080791 -1.3083752,2.0049303 -1.3124858,2.0025804 -1.3169311,2.0009444 -1.3215758,2.0000181 -1.3263098,1.9998337 -1.3263098,1.9998337 -1.3319577,2.0002852 -1.3374593,2.001627 -1.342641,2.0039183 -1.3473049,2.0071312 -1.3513056,2.0111416 -1.3543228,2.0159341 -1.3561205,2.0213037 -1.3567923,2.0269292 -1.3567923,2.0269292 -1.3563072,2.03236 -1.3547915,2.0376043 -1.3510492,2.047855 -1.1992481,2.4495787 -1.1992481,2.4495787 -1.1949375,2.4585038 -1.1920647,2.4625445 -1.1886083,2.4661025 -1.1845538,2.4689513 -1.1800181,2.4709528 -1.1751608,2.471942 -1.1702025,2.471953 -1.1702025,2.471953 -1.1641861,2.4717295 -1.1582938,2.4704816 -1.1528287,2.4679924 -1.1482635,2.4640639 -1.1446195,2.4592767 -1.1416177,2.4540511 -1.1368038,2.4430181 -0.9836128,2.0430429 -0.9836128,2.0430429 -0.9816871,2.0350735 -0.980739,2.0269292 -0.980739,2.0269292 -0.9814505,2.0213176 -0.9832917,2.0159708 -0.9863929,2.0112403 -0.9903663,2.0072174 -0.9950424,2.0040309 -1.0001887,2.0016873 -1.0056942,2.0003842 -1.0113241,1.9998337 -1.0113241,1.9998337 -1.0164353,1.9999553 -1.0214227,2.0010753 -1.0260715,2.003203 -1.0302199,2.0061865 -1.0336953,2.0099366 -1.0365997,2.0141486 -1.0410319,2.0233515 -1.0616051,2.078657 -1.2744316,2.078657z M-1.085016,2.1369536 L-1.1687278,2.3585616 -1.2524395,2.1369536 -1.085016,2.1369536z" transform="matrix(1,0,0,-1,4.524375,2.619375)" fill="rgb(104,104,104)" fill-rule="nonzero" shaper:cutDepth="0.0000762" stroke-linecap="round" stroke-linejoin="round" /><path d="M-0.641121,2.4341835 L-0.6410186,2.127953 -0.8527345,2.4517729 -0.8527345,2.4517729 -0.8584644,2.4593884 -0.8652059,2.4661189 -0.8691949,2.46875 -0.873602,2.4706118 -0.8830309,2.471953 -0.8830309,2.471953 -0.8911964,2.4706888 -0.8950615,2.4692757 -0.8987197,2.4672959 -0.902119,2.4648641 -0.9050262,2.4619416 -0.9089974,2.4547104 -0.9089974,2.4547104 -0.9100787,2.4499816 -0.9103219,2.4451288 -0.9104343,2.4354151 -0.9103318,2.0378839 -0.9103318,2.0378839 -0.9101148,2.0259281 -0.9093723,2.0199971 -0.9075605,2.0143052 -0.9075605,2.0143052 -0.9027786,2.008187 -0.8965821,2.0035086 -0.8892996,2.0008242 -0.881594,1.9998337 -0.881594,1.9998337 -0.875268,2.0003935 -0.8691431,2.002063 -0.8635962,2.0051494 -0.8590407,2.0095571 -0.8558339,2.015043 -0.8537133,2.0210256 -0.85256,2.0272711 -0.8520352,2.0336005 -0.8520352,2.3445477 -0.6410186,2.0185834 -0.6410186,2.0185834 -0.6353208,2.0112584 -0.6283889,2.0051074 -0.6243578,2.0027627 -0.6200233,2.0010906 -0.6108438,1.9998337 -0.6108438,1.9998337 -0.6047081,2.0003112 -0.5987797,2.0019517 -0.5934633,2.0050433 -0.5891816,2.009454 -0.5861688,2.014818 -0.5842694,2.0206729 -0.5828246,2.0328821 -0.582722,2.4367614 -0.582722,2.4367614 -0.5829565,2.4433401 -0.5838109,2.449857 -0.5855055,2.4562258 -0.58847,2.4620837 -0.5929023,2.4669467 -0.5985971,2.4702193 -0.6049841,2.4717822 -0.6115623,2.471953 -0.6115623,2.471953 -0.6185174,2.4715852 -0.625281,2.4699387 -0.6313236,2.4665037 -0.6358692,2.4612381 -0.6386803,2.4548765 -0.6401955,2.4480713 -0.641121,2.4341835z" transform="matrix(1,0,0,-1,4.524375,2.619375)" fill="rgb(104,104,104)" fill-rule="nonzero" shaper:cutDepth="0.0000762" stroke-linecap="round" stroke-linejoin="round" /><path d="M-0.3199773,2.0358585 L-0.3199773,2.0358585 -0.32025,2.025259 -0.3211135,2.0200297 -0.322851,2.0150236 -0.322851,2.0150236 -0.327502,2.0085223 -0.3304513,2.0058222 -0.3338121,2.0036165 -0.3412886,2.0008064 -0.3492281,1.9998337 -0.3492281,1.9998337 -0.3584461,2.0012753 -0.3627722,2.0029884 -0.3668215,2.0053633 -0.3705174,2.0082166 -0.3736087,2.0117011 -0.3760415,2.0156804 -0.3776579,2.0200527 -0.3776579,2.0200527 -0.3783528,2.0296847 -0.3782738,2.0393478 -0.3782738,2.4136563 -0.4741345,2.4136565 -0.4741345,2.4136565 -0.4809984,2.4139883 -0.4877909,2.4149702 -0.4944044,2.4168678 -0.500455,2.4200827 -0.5056151,2.4246323 -0.5091195,2.4305202 -0.5111253,2.4370874 -0.5116988,2.4439338 -0.5116988,2.4439338 -0.5111129,2.4510219 -0.510208,2.454471 -0.5087341,2.4577117 -0.5042432,2.4632215 -0.4983197,2.4671409 -0.4916442,2.4696006 -0.4846872,2.4711095 -0.4704987,2.4719529 -0.2228849,2.471953 -0.2228849,2.471953 -0.2160979,2.4716231 -0.2093845,2.4706225 -0.2028674,2.4686837 -0.1968849,2.4654895 -0.1918646,2.4609116 -0.1884558,2.4550492 -0.1864969,2.4485492 -0.1859364,2.4417784 -0.1859364,2.4417784 -0.18648,2.4349438 -0.1887303,2.4284676 -0.1927415,2.4229273 -0.1982441,2.4188316 -0.2045536,2.4161612 -0.2112434,2.4146268 -0.2249147,2.4136563 -0.3199773,2.4136563 -0.3199773,2.0358585z" transform="matrix(1,0,0,-1,4.524375,2.619375)" fill="rgb(104,104,104)" fill-rule="nonzero" shaper:cutDepth="0.0000762" stroke-linecap="round" stroke-linejoin="round" /><path d="M0.2687827,2.4719529 L0.223064,2.4697269 0.223064,2.4697269 0.2111365,2.4686069 0.1993319,2.4665818 0.1877146,2.4636486 0.1764382,2.4596163 0.1655408,2.454635 0.1552623,2.4484894 0.1455909,2.4414185 0.136688,2.4334061 0.1285768,2.4245905 0.1214167,2.4149877 0.1152815,2.4046998 0.1102053,2.3938504 0.1063468,2.3825096 0.1035218,2.3708694 0.1018915,2.3590016 0.1011326,2.3470467 0.1011326,2.3470467 0.1021265,2.3323489 0.1047137,2.3178471 0.1090386,2.3037652 0.1148993,2.2902498 0.1223035,2.2775144 0.1311854,2.2657637 0.1414878,2.2552336 0.1531684,2.2462595 0.1531684,2.2462595 0.1655369,2.2388052 0.1788538,2.2331842 0.1926439,2.2288942 0.2067437,2.2257325 0.2830666,2.2093691 0.2830666,2.2093691 0.2966519,2.2062489 0.3033324,2.204239 0.3097888,2.2016134 0.3097888,2.2016134 0.318678,2.1961615 0.3267183,2.1895205 0.3337158,2.1817887 0.3396395,2.1732067 0.3443286,2.1638912 0.3478566,2.154078 0.3499544,2.1438631 0.35074,2.133464 0.35074,2.133464 0.3497058,2.1211515 0.3468074,2.1091453 0.3421141,2.0977153 0.3356356,2.0871976 0.3276185,2.0777976 0.3181974,2.069808 0.3129557,2.0665213 0.3074076,2.0637945 0.2957279,2.0597723 0.2957279,2.0597723 0.2809485,2.0578021 0.2660665,2.0568986 0.2237699,2.0568434 0.2237699,2.0568434 0.2091463,2.0573398 0.2018733,2.0581718 0.1947354,2.0597723 0.1947354,2.0597723 0.1849048,2.0638145 0.1758437,2.0693712 0.1678099,2.0763313 0.1608012,2.0843235 0.1549218,2.0931798 0.1504088,2.1028033 0.1475764,2.1130483 0.1463945,2.1236111 0.1463945,2.1236111 0.1470103,2.1299744 0.1471044,2.1355893 0.1471044,2.1355893 0.1465036,2.1412051 0.1452069,2.1467009 0.1429077,2.1518589 0.1395978,2.1564342 0.1354302,2.1602427 0.1306044,2.163174 0.125221,2.164876 0.1196069,2.165486 0.1196069,2.165486 0.1124922,2.1645888 0.1057815,2.162056 0.0999468,2.1578999 0.0953589,2.152385 0.0919553,2.1460702 0.0896445,2.1392794 0.0884333,2.1322095 0.0879954,2.125048 0.0879954,2.125048 0.0894742,2.1067875 0.0911651,2.097789 0.0935441,2.0889282 0.0964806,2.0802399 0.100008,2.0717869 0.1041782,2.0636301 0.1089264,2.0557858 0.1141738,2.048268 0.1199205,2.041132 0.1261817,2.0344414 0.1329369,2.0282428 0.1401554,2.0225841 0.1478056,2.0175435 0.1640476,2.0090708 0.1640476,2.0090708 0.1784675,2.0049872 0.1931986,2.0022106 0.2080887,2.0005048 0.2230626,1.9998337 0.2692112,1.9998337 0.2692112,1.9998337 0.2826867,2.0006161 0.2960872,2.0022384 0.3093031,2.0049745 0.3222712,2.0087343 0.334754,2.0138542 0.3467337,2.0200818 0.3579896,2.0275255 0.36838,2.0361418 0.3778314,2.0457774 0.3861931,2.0563723 0.3932759,2.0678613 0.3989995,2.0800845 0.403349,2.0928616 0.4064297,2.1060039 0.4083072,2.1193692 0.4090365,2.1328482 0.4090365,2.1328482 0.4084729,2.1447076 0.4070471,2.156494 0.4046554,2.1681229 0.4013536,2.1795275 0.3969508,2.1905525 0.391649,2.2011753 0.3852893,2.2112008 0.3780923,2.2206423 0.3700736,2.2293983 0.3613482,2.237448 0.3518832,2.2446164 0.3418311,2.250932 0.3312727,2.2563629 0.3203353,2.2609804 0.3090594,2.2646973 0.2975753,2.2677101 0.2209364,2.2833679 0.2209364,2.2833679 0.2083805,2.2861683 0.1960697,2.2898792 0.1960697,2.2898792 0.1880596,2.2942173 0.1807744,2.2996863 0.1744638,2.3062554 0.1691605,2.3136627 0.1649865,2.3217594 0.162011,2.3303712 0.160177,2.3392925 0.1595317,2.3483809 0.1595317,2.3483809 0.1607799,2.3613449 0.1622652,2.367681 0.1644203,2.3738436 0.1671691,2.3797643 0.1705562,2.3853241 0.1746056,2.390426 0.1791854,2.3950785 0.1841782,2.3992748 0.1895681,2.402926 0.1953227,2.4059817 0.2013485,2.4084871 0.2139188,2.4118652 0.22686,2.4133486 0.2623979,2.4139808 0.265945,2.4139808 0.265945,2.4139808 0.2787426,2.4132893 0.2912768,2.4106616 0.3031881,2.4059375 0.3086993,2.4026644 0.3138222,2.3987999 0.3185135,2.3944269 0.3227407,2.3896069 0.3297267,2.3788668 0.3347392,2.3670777 0.3382186,2.3547443 0.3382186,2.3547443 0.3418895,2.3452148 0.3445436,2.3408477 0.3478764,2.3369726 0.3519177,2.3338509 0.3565365,2.3316668 0.3615394,2.3306323 0.3666484,2.3305225 0.3666484,2.3305225 0.3725329,2.3310901 0.3782118,2.332724 0.3834071,2.3355403 0.3878563,2.3394314 0.3913799,2.3441738 0.3937776,2.3495787 0.3951686,2.3553211 0.395694,2.3612102 0.395694,2.3612102 0.3942081,2.3742214 0.3905909,2.3868278 0.3855822,2.398931 0.3793751,2.4104749 0.3793751,2.4104749 0.3703979,2.4238152 0.3598549,2.4359525 0.3477727,2.4465619 0.3343981,2.4554844 0.3199856,2.4626131 0.3047484,2.4677404 0.2889882,2.4709224 0.272943,2.471953 0.2687827,2.4719529z" transform="matrix(1,0,0,-1,4.524375,2.619375)" fill="rgb(104,104,104)" fill-rule="nonzero" shaper:cutDepth="0.0000762" stroke-linecap="round" stroke-linejoin="round" /><path d="M0.7035979,2.2946004 L0.7035979,2.2946004 0.71032,2.294442 0.7169805,2.2935755 0.723449,2.2917328 0.7294253,2.2886721 0.7344159,2.2841744 0.7377482,2.2783496 0.73947,2.2718571 0.7398279,2.2651442 0.7398279,2.2651442 0.7395186,2.2581552 0.7375366,2.2514523 0.7336061,2.2456734 0.7280787,2.2414086 0.7216174,2.2387154 0.7147984,2.2371498 0.7008408,2.2363038 0.5405115,2.2363038 0.5405115,2.0581302 0.7667182,2.0581302 0.7667182,2.0581302 0.7764518,2.058087 0.7812955,2.0575991 0.7859109,2.0560775 0.7859109,2.0560775 0.7937521,2.0518838 0.7971344,2.0489936 0.799962,2.0455304 0.802146,2.041635 0.8036506,2.0374498 0.8051036,2.028674 0.8051036,2.028674 0.804746,2.0213747 0.8038684,2.0178193 0.8024133,2.0144566 0.7979416,2.0086857 0.791889,2.0046101 0.785025,2.0020833 0.7778618,2.0006217 0.7632699,1.9998337 0.5193687,1.9998337 0.5193687,1.9998337 0.5113523,1.9999144 0.5034087,2.0009421 0.4957843,2.003413 0.4922989,2.0054069 0.4892388,2.0080049 0.4867725,2.0111756 0.4849487,2.0147493 0.4828192,2.0224829 0.4820306,2.030449 0.4822149,2.038466 0.4821124,2.4340808 0.4821124,2.4340808 0.4821935,2.4421332 0.4832408,2.4501091 0.4857007,2.4577752 0.4876984,2.4612811 0.4903178,2.4643445 0.4935148,2.4667989 0.4970898,2.4686729 0.5047966,2.4709863 0.5127967,2.4718755 0.5208472,2.4719529 0.7661024,2.471953 0.7661024,2.471953 0.7793169,2.4709259 0.7857045,2.4691732 0.7916756,2.4662706 0.796622,2.4618816 0.8000606,2.4562174 0.8018418,2.4498344 0.8022298,2.4432153 0.8022298,2.4432153 0.8018292,2.4361977 0.7998051,2.429471 0.7959741,2.4235878 0.7905279,2.419164 0.7841002,2.4163139 0.7772817,2.4145978 0.7703001,2.4138038 0.7632699,2.4136563 0.5405115,2.4136563 0.5405115,2.2946004 0.7035979,2.2946004z" transform="matrix(1,0,0,-1,4.524375,2.619375)" fill="rgb(104,104,104)" fill-rule="nonzero" shaper:cutDepth="0.0000762" stroke-linecap="round" stroke-linejoin="round" /><path d="M1.1715092,2.0515616 L1.1715092,2.0515616 1.1797386,2.0515447 1.1838417,2.051233 1.1878281,2.0502273 1.1878281,2.0502273 1.1949813,2.0467205 1.1979939,2.044127 1.200572,2.0410316 1.2027154,2.0376276 1.2042628,2.0339691 1.2055839,2.0261082 1.2055839,2.0261082 1.2040757,2.0180183 1.2025532,2.0141956 1.2003938,2.0106702 1.1976601,2.0075669 1.194446,2.0049966 1.1871096,2.0012706 1.1871096,2.0012706 1.1821136,2.0000544 1.176948,1.9998438 1.1666094,1.9998337 0.9153331,1.9998337 0.9153331,1.9998337 0.9083953,2.0002054 0.9015895,2.001561 0.8951808,2.0042434 0.8898114,2.008633 0.8859294,2.0143823 0.8836428,2.0209417 0.8827389,2.0278229 0.8829005,2.0347692 0.882798,2.4403415 0.882798,2.4403415 0.8832075,2.4461123 0.884221,2.4517992 0.885961,2.4573192 0.8886807,2.4624169 0.8926088,2.4666511 0.8974792,2.4697622 0.9030042,2.4714552 0.9087645,2.471953 0.9087645,2.471953 0.9145651,2.4714645 0.9201609,2.469872 0.925139,2.4668633 0.9290537,2.4625668 0.9317094,2.4573872 0.9333943,2.451813 0.9346285,2.4402511 0.9346285,2.0515616 1.1715092,2.0515616z" transform="matrix(1,0,0,-1,4.524375,2.619375)" fill="rgb(104,104,104)" fill-rule="nonzero" shaper:cutDepth="0.0000762" stroke-linecap="round" stroke-linejoin="round" /><path d="M-2.454275,-0.079375 a0.7874,0.7874 0 1,0 1.5748,0 a0.7874,0.7874 0 1,0 -1.5748,0z M-2.378075,-0.079375 a0.7112,0.7112 0 1,1 1.4224,0 a0.7112,0.7112 0 1,1 -1.4224,0z" transform="matrix(1,0,0,-1,4.524375,2.619375)" fill="rgb(104,104,104)" fill-rule="nonzero" shaper:cutDepth="0.0000762" stroke-linecap="round" stroke-linejoin="round" /><path d="M0.746125,-0.079375 a0.7874,0.7874 0 1,0 1.5748,0 a0.7874,0.7874 0 1,0 -1.5748,0z M0.822325,-0.079375 a0.7112,0.7112 0 1,1 1.4224,0 a0.7112,0.7112 0 1,1 -1.4224,0z" transform="matrix(1,0,0,-1,4.524375,2.619375)" fill="rgb(104,104,104)" fill-rule="nonzero" shaper:cutDepth="0.0000762" stroke-linecap="round" stroke-linejoin="round" /><path d="M-3.94589,-0.028575 a0.215265,0.215265 0 1,1 0.43053,0 a0.215265,0.215265 0 1,1 -0.43053,0z" transform="matrix(1,0,0,-1,4.524375,2.619375)" fill="rgb(255,255,255)" stroke="rgb(0,0,0)" stroke-width="0.0010cm" stroke-linecap="round" stroke-linejoin="round" shaper:cutDepth="0.0015875" /><path d="M3.51536,-0.028575 a0.215265,0.215265 0 1,1 0.43053,0 a0.215265,0.215265 0 1,1 -0.43053,0z" transform="matrix(1,0,0,-1,4.524375,2.619375)" fill="rgb(255,255,255)" stroke="rgb(0,0,0)" stroke-width="0.0010cm" stroke-linecap="round" stroke-linejoin="round" shaper:cutDepth="0.0015875" /><path d="M-2.301875,-0.079375 a0.635,0.635 0 1,1 1.27,0 a0.635,0.635 0 1,1 -1.27,0z" transform="matrix(1,0,0,-1,4.524375,2.619375)" fill="rgb(255,255,255)" stroke="rgb(0,0,0)" stroke-width="0.0010cm" stroke-linecap="round" stroke-linejoin="round" shaper:cutDepth="0.0015875" /><path d="M0.898525,-0.079375 a0.635,0.635 0 1,1 1.27,0 a0.635,0.635 0 1,1 -1.27,0z" transform="matrix(1,0,0,-1,4.524375,2.619375)" fill="rgb(255,255,255)" stroke="rgb(0,0,0)" stroke-width="0.0010cm" stroke-linecap="round" stroke-linejoin="round" shaper:cutDepth="0.0015875" /></svg>