G04 #@! TF.GenerationSoftware,KiCad,Pcbnew,(5.0.0)*
G04 #@! TF.CreationDate,2018-10-06T14:26:38-07:00*
G04 #@! TF.ProjectId,MEGA IO,4D45474120494F2E6B696361645F7063,-*
G04 #@! TF.SameCoordinates,Original*
G04 #@! TF.FileFunction,Soldermask,Top*
G04 #@! TF.FilePolarity,Negative*
%FSLAX46Y46*%
G04 Gerber Fmt 4.6, Leading zero omitted, Abs format (unit mm)*
G04 Created by KiCad (PCBNEW (5.0.0)) date 10/06/18 14:26:38*
%MOMM*%
%LPD*%
G01*
G04 APERTURE LIST*
%ADD10R,2.000000X2.600000*%
%ADD11O,2.000000X2.600000*%
%ADD12R,1.200000X0.750000*%
%ADD13R,1.600000X1.000000*%
%ADD14R,1.700000X1.700000*%
%ADD15O,1.700000X1.700000*%
%ADD16C,4.300000*%
%ADD17R,1.550000X0.600000*%
%ADD18R,1.800000X1.800000*%
%ADD19O,1.800000X1.800000*%
%ADD20C,1.727200*%
%ADD21O,1.727200X1.727200*%
%ADD22O,1.727200X2.032000*%
%ADD23R,1.250000X0.760000*%
%ADD24C,0.100000*%
%ADD25C,1.150000*%
G04 APERTURE END LIST*
D10*
G04 #@! TO.C,J1*
X136398000Y-126873000D03*
D11*
X133858000Y-126873000D03*
X131318000Y-126873000D03*
X128778000Y-126873000D03*
G04 #@! TD*
D12*
G04 #@! TO.C,C1*
X176200000Y-61306000D03*
X174300000Y-61306000D03*
G04 #@! TD*
D13*
G04 #@! TO.C,D2*
X126365000Y-55118000D03*
X126365000Y-58118000D03*
G04 #@! TD*
D14*
G04 #@! TO.C,J23*
X129667000Y-55372000D03*
D15*
X129667000Y-57912000D03*
X132207000Y-55372000D03*
X132207000Y-57912000D03*
X134747000Y-55372000D03*
X134747000Y-57912000D03*
G04 #@! TD*
D16*
G04 #@! TO.C,MK1*
X118110000Y-126746000D03*
G04 #@! TD*
D17*
G04 #@! TO.C,U1*
X170900000Y-63306000D03*
X170900000Y-64576000D03*
X170900000Y-65846000D03*
X170900000Y-67116000D03*
X176300000Y-67116000D03*
X176300000Y-65846000D03*
X176300000Y-64576000D03*
X176300000Y-63306000D03*
G04 #@! TD*
D18*
G04 #@! TO.C,Q2*
X140335000Y-65786000D03*
D19*
X142875000Y-65786000D03*
X145415000Y-65786000D03*
G04 #@! TD*
D20*
G04 #@! TO.C,P1*
X194818000Y-114046000D03*
D21*
X197358000Y-114046000D03*
X194818000Y-111506000D03*
X197358000Y-111506000D03*
X194818000Y-108966000D03*
X197358000Y-108966000D03*
X194818000Y-106426000D03*
X197358000Y-106426000D03*
X194818000Y-103886000D03*
X197358000Y-103886000D03*
X194818000Y-101346000D03*
X197358000Y-101346000D03*
X194818000Y-98806000D03*
X197358000Y-98806000D03*
X194818000Y-96266000D03*
X197358000Y-96266000D03*
X194818000Y-93726000D03*
X197358000Y-93726000D03*
X194818000Y-91186000D03*
X197358000Y-91186000D03*
X194818000Y-88646000D03*
X197358000Y-88646000D03*
X194818000Y-86106000D03*
X197358000Y-86106000D03*
X194818000Y-83566000D03*
X197358000Y-83566000D03*
X194818000Y-81026000D03*
X197358000Y-81026000D03*
X194818000Y-78486000D03*
X197358000Y-78486000D03*
X194818000Y-75946000D03*
X197358000Y-75946000D03*
X194818000Y-73406000D03*
X197358000Y-73406000D03*
X194818000Y-70866000D03*
X197358000Y-70866000D03*
G04 #@! TD*
D22*
G04 #@! TO.C,P2*
X128778000Y-119126000D03*
X131318000Y-119126000D03*
X133858000Y-119126000D03*
X136398000Y-119126000D03*
X138938000Y-119126000D03*
X141478000Y-119126000D03*
X144018000Y-119126000D03*
X146558000Y-119126000D03*
G04 #@! TD*
G04 #@! TO.C,P3*
X151638000Y-119126000D03*
X154178000Y-119126000D03*
X156718000Y-119126000D03*
X159258000Y-119126000D03*
X161798000Y-119126000D03*
X164338000Y-119126000D03*
X166878000Y-119126000D03*
X169418000Y-119126000D03*
G04 #@! TD*
G04 #@! TO.C,P4*
X174498000Y-119126000D03*
X177038000Y-119126000D03*
X179578000Y-119126000D03*
X182118000Y-119126000D03*
X184658000Y-119126000D03*
X187198000Y-119126000D03*
X189738000Y-119126000D03*
X192278000Y-119126000D03*
G04 #@! TD*
G04 #@! TO.C,P5*
X119634000Y-70866000D03*
X122174000Y-70866000D03*
X124714000Y-70866000D03*
X127254000Y-70866000D03*
X129794000Y-70866000D03*
X132334000Y-70866000D03*
X134874000Y-70866000D03*
X137414000Y-70866000D03*
X139954000Y-70866000D03*
X142494000Y-70866000D03*
G04 #@! TD*
G04 #@! TO.C,P6*
X146558000Y-70866000D03*
X149098000Y-70866000D03*
X151638000Y-70866000D03*
X154178000Y-70866000D03*
X156718000Y-70866000D03*
X159258000Y-70866000D03*
X161798000Y-70866000D03*
X164338000Y-70866000D03*
G04 #@! TD*
G04 #@! TO.C,P7*
X169418000Y-70866000D03*
X171958000Y-70866000D03*
X174498000Y-70866000D03*
X177038000Y-70866000D03*
X179578000Y-70866000D03*
X182118000Y-70866000D03*
X184658000Y-70866000D03*
X187198000Y-70866000D03*
G04 #@! TD*
D10*
G04 #@! TO.C,J2*
X170815000Y-57531000D03*
D11*
X173355000Y-57531000D03*
X175895000Y-57531000D03*
G04 #@! TD*
D10*
G04 #@! TO.C,J3*
X180340000Y-57531000D03*
D11*
X182880000Y-57531000D03*
X185420000Y-57531000D03*
G04 #@! TD*
D16*
G04 #@! TO.C,MK2*
X195580000Y-126746000D03*
G04 #@! TD*
G04 #@! TO.C,MK3*
X118110000Y-56896000D03*
G04 #@! TD*
G04 #@! TO.C,MK4*
X195580000Y-56896000D03*
G04 #@! TD*
D18*
G04 #@! TO.C,Q1*
X129540000Y-65786000D03*
D19*
X132080000Y-65786000D03*
X134620000Y-65786000D03*
G04 #@! TD*
D18*
G04 #@! TO.C,Q3*
X151130000Y-65786000D03*
D19*
X153670000Y-65786000D03*
X156210000Y-65786000D03*
G04 #@! TD*
D23*
G04 #@! TO.C,SW1*
X167540000Y-67056000D03*
X161390000Y-63246000D03*
X167540000Y-65786000D03*
X161390000Y-64516000D03*
X167540000Y-64516000D03*
X161390000Y-65786000D03*
X167540000Y-63246000D03*
X161390000Y-67056000D03*
G04 #@! TD*
D14*
G04 #@! TO.C,J4*
X119840000Y-76470000D03*
D15*
X119840000Y-79010000D03*
X122380000Y-76470000D03*
X122380000Y-79010000D03*
X124920000Y-76470000D03*
X124920000Y-79010000D03*
X127460000Y-76470000D03*
X127460000Y-79010000D03*
X130000000Y-76470000D03*
X130000000Y-79010000D03*
X132540000Y-76470000D03*
X132540000Y-79010000D03*
X135080000Y-76470000D03*
X135080000Y-79010000D03*
X137620000Y-76470000D03*
X137620000Y-79010000D03*
X140160000Y-76470000D03*
X140160000Y-79010000D03*
X142700000Y-76470000D03*
X142700000Y-79010000D03*
X145240000Y-76470000D03*
X145240000Y-79010000D03*
G04 #@! TD*
D14*
G04 #@! TO.C,J5*
X151384000Y-86106000D03*
D15*
X151384000Y-88646000D03*
X153924000Y-86106000D03*
X153924000Y-88646000D03*
X156464000Y-86106000D03*
X156464000Y-88646000D03*
X159004000Y-86106000D03*
X159004000Y-88646000D03*
X161544000Y-86106000D03*
X161544000Y-88646000D03*
X164084000Y-86106000D03*
X164084000Y-88646000D03*
X166624000Y-86106000D03*
X166624000Y-88646000D03*
X169164000Y-86106000D03*
X169164000Y-88646000D03*
X171704000Y-86106000D03*
X171704000Y-88646000D03*
X174244000Y-86106000D03*
X174244000Y-88646000D03*
X176784000Y-86106000D03*
X176784000Y-88646000D03*
X179324000Y-86106000D03*
X179324000Y-88646000D03*
X181864000Y-86106000D03*
X181864000Y-88646000D03*
X184404000Y-86106000D03*
X184404000Y-88646000D03*
X186944000Y-86106000D03*
X186944000Y-88646000D03*
X189484000Y-86106000D03*
X189484000Y-88646000D03*
G04 #@! TD*
D14*
G04 #@! TO.C,J6*
X151130000Y-99060000D03*
D15*
X151130000Y-101600000D03*
X153670000Y-99060000D03*
X153670000Y-101600000D03*
X156210000Y-99060000D03*
X156210000Y-101600000D03*
X158750000Y-99060000D03*
X158750000Y-101600000D03*
X161290000Y-99060000D03*
X161290000Y-101600000D03*
X163830000Y-99060000D03*
X163830000Y-101600000D03*
X166370000Y-99060000D03*
X166370000Y-101600000D03*
X168910000Y-99060000D03*
X168910000Y-101600000D03*
X171450000Y-99060000D03*
X171450000Y-101600000D03*
X173990000Y-99060000D03*
X173990000Y-101600000D03*
X176530000Y-99060000D03*
X176530000Y-101600000D03*
X179070000Y-99060000D03*
X179070000Y-101600000D03*
X181610000Y-99060000D03*
X181610000Y-101600000D03*
X184150000Y-99060000D03*
X184150000Y-101600000D03*
X186690000Y-99060000D03*
X186690000Y-101600000D03*
X189230000Y-99060000D03*
X189230000Y-101600000D03*
G04 #@! TD*
D14*
G04 #@! TO.C,J7*
X129032000Y-112522000D03*
D15*
X129032000Y-109982000D03*
X129032000Y-107442000D03*
G04 #@! TD*
D14*
G04 #@! TO.C,J8*
X132842000Y-112522000D03*
D15*
X132842000Y-109982000D03*
X132842000Y-107442000D03*
G04 #@! TD*
D14*
G04 #@! TO.C,J9*
X136652000Y-112522000D03*
D15*
X136652000Y-109982000D03*
X136652000Y-107442000D03*
G04 #@! TD*
D14*
G04 #@! TO.C,J10*
X140462000Y-112522000D03*
D15*
X140462000Y-109982000D03*
X140462000Y-107442000D03*
G04 #@! TD*
D14*
G04 #@! TO.C,J11*
X144272000Y-112522000D03*
D15*
X144272000Y-109982000D03*
X144272000Y-107442000D03*
G04 #@! TD*
D14*
G04 #@! TO.C,J12*
X148082000Y-112522000D03*
D15*
X148082000Y-109982000D03*
X148082000Y-107442000D03*
G04 #@! TD*
D14*
G04 #@! TO.C,J13*
X151892000Y-112522000D03*
D15*
X151892000Y-109982000D03*
X151892000Y-107442000D03*
G04 #@! TD*
D14*
G04 #@! TO.C,J14*
X155702000Y-112522000D03*
D15*
X155702000Y-109982000D03*
X155702000Y-107442000D03*
G04 #@! TD*
D14*
G04 #@! TO.C,J15*
X159512000Y-112522000D03*
D15*
X159512000Y-109982000D03*
X159512000Y-107442000D03*
G04 #@! TD*
D14*
G04 #@! TO.C,J16*
X163322000Y-112522000D03*
D15*
X163322000Y-109982000D03*
X163322000Y-107442000D03*
G04 #@! TD*
D14*
G04 #@! TO.C,J17*
X167132000Y-112522000D03*
D15*
X167132000Y-109982000D03*
X167132000Y-107442000D03*
G04 #@! TD*
D14*
G04 #@! TO.C,J18*
X170942000Y-112522000D03*
D15*
X170942000Y-109982000D03*
X170942000Y-107442000D03*
G04 #@! TD*
D14*
G04 #@! TO.C,J19*
X174752000Y-112522000D03*
D15*
X174752000Y-109982000D03*
X174752000Y-107442000D03*
G04 #@! TD*
D14*
G04 #@! TO.C,J20*
X178562000Y-112522000D03*
D15*
X178562000Y-109982000D03*
X178562000Y-107442000D03*
G04 #@! TD*
D14*
G04 #@! TO.C,J21*
X182372000Y-112522000D03*
D15*
X182372000Y-109982000D03*
X182372000Y-107442000D03*
G04 #@! TD*
D14*
G04 #@! TO.C,J22*
X186182000Y-112522000D03*
D15*
X186182000Y-109982000D03*
X186182000Y-107442000D03*
G04 #@! TD*
D14*
G04 #@! TO.C,J24*
X165354000Y-75438000D03*
D15*
X165354000Y-77978000D03*
X167894000Y-75438000D03*
X167894000Y-77978000D03*
X170434000Y-75438000D03*
X170434000Y-77978000D03*
X172974000Y-75438000D03*
X172974000Y-77978000D03*
X175514000Y-75438000D03*
X175514000Y-77978000D03*
X178054000Y-75438000D03*
X178054000Y-77978000D03*
X180594000Y-75438000D03*
X180594000Y-77978000D03*
G04 #@! TD*
D24*
G04 #@! TO.C,R1*
G36*
X180024505Y-63557204D02*
X180048773Y-63560804D01*
X180072572Y-63566765D01*
X180095671Y-63575030D01*
X180117850Y-63585520D01*
X180138893Y-63598132D01*
X180158599Y-63612747D01*
X180176777Y-63629223D01*
X180193253Y-63647401D01*
X180207868Y-63667107D01*
X180220480Y-63688150D01*
X180230970Y-63710329D01*
X180239235Y-63733428D01*
X180245196Y-63757227D01*
X180248796Y-63781495D01*
X180250000Y-63805999D01*
X180250000Y-64456001D01*
X180248796Y-64480505D01*
X180245196Y-64504773D01*
X180239235Y-64528572D01*
X180230970Y-64551671D01*
X180220480Y-64573850D01*
X180207868Y-64594893D01*
X180193253Y-64614599D01*
X180176777Y-64632777D01*
X180158599Y-64649253D01*
X180138893Y-64663868D01*
X180117850Y-64676480D01*
X180095671Y-64686970D01*
X180072572Y-64695235D01*
X180048773Y-64701196D01*
X180024505Y-64704796D01*
X180000001Y-64706000D01*
X179099999Y-64706000D01*
X179075495Y-64704796D01*
X179051227Y-64701196D01*
X179027428Y-64695235D01*
X179004329Y-64686970D01*
X178982150Y-64676480D01*
X178961107Y-64663868D01*
X178941401Y-64649253D01*
X178923223Y-64632777D01*
X178906747Y-64614599D01*
X178892132Y-64594893D01*
X178879520Y-64573850D01*
X178869030Y-64551671D01*
X178860765Y-64528572D01*
X178854804Y-64504773D01*
X178851204Y-64480505D01*
X178850000Y-64456001D01*
X178850000Y-63805999D01*
X178851204Y-63781495D01*
X178854804Y-63757227D01*
X178860765Y-63733428D01*
X178869030Y-63710329D01*
X178879520Y-63688150D01*
X178892132Y-63667107D01*
X178906747Y-63647401D01*
X178923223Y-63629223D01*
X178941401Y-63612747D01*
X178961107Y-63598132D01*
X178982150Y-63585520D01*
X179004329Y-63575030D01*
X179027428Y-63566765D01*
X179051227Y-63560804D01*
X179075495Y-63557204D01*
X179099999Y-63556000D01*
X180000001Y-63556000D01*
X180024505Y-63557204D01*
X180024505Y-63557204D01*
G37*
D25*
X179550000Y-64131000D03*
D24*
G36*
X180024505Y-65607204D02*
X180048773Y-65610804D01*
X180072572Y-65616765D01*
X180095671Y-65625030D01*
X180117850Y-65635520D01*
X180138893Y-65648132D01*
X180158599Y-65662747D01*
X180176777Y-65679223D01*
X180193253Y-65697401D01*
X180207868Y-65717107D01*
X180220480Y-65738150D01*
X180230970Y-65760329D01*
X180239235Y-65783428D01*
X180245196Y-65807227D01*
X180248796Y-65831495D01*
X180250000Y-65855999D01*
X180250000Y-66506001D01*
X180248796Y-66530505D01*
X180245196Y-66554773D01*
X180239235Y-66578572D01*
X180230970Y-66601671D01*
X180220480Y-66623850D01*
X180207868Y-66644893D01*
X180193253Y-66664599D01*
X180176777Y-66682777D01*
X180158599Y-66699253D01*
X180138893Y-66713868D01*
X180117850Y-66726480D01*
X180095671Y-66736970D01*
X180072572Y-66745235D01*
X180048773Y-66751196D01*
X180024505Y-66754796D01*
X180000001Y-66756000D01*
X179099999Y-66756000D01*
X179075495Y-66754796D01*
X179051227Y-66751196D01*
X179027428Y-66745235D01*
X179004329Y-66736970D01*
X178982150Y-66726480D01*
X178961107Y-66713868D01*
X178941401Y-66699253D01*
X178923223Y-66682777D01*
X178906747Y-66664599D01*
X178892132Y-66644893D01*
X178879520Y-66623850D01*
X178869030Y-66601671D01*
X178860765Y-66578572D01*
X178854804Y-66554773D01*
X178851204Y-66530505D01*
X178850000Y-66506001D01*
X178850000Y-65855999D01*
X178851204Y-65831495D01*
X178854804Y-65807227D01*
X178860765Y-65783428D01*
X178869030Y-65760329D01*
X178879520Y-65738150D01*
X178892132Y-65717107D01*
X178906747Y-65697401D01*
X178923223Y-65679223D01*
X178941401Y-65662747D01*
X178961107Y-65648132D01*
X178982150Y-65635520D01*
X179004329Y-65625030D01*
X179027428Y-65616765D01*
X179051227Y-65610804D01*
X179075495Y-65607204D01*
X179099999Y-65606000D01*
X180000001Y-65606000D01*
X180024505Y-65607204D01*
X180024505Y-65607204D01*
G37*
D25*
X179550000Y-66181000D03*
G04 #@! TD*
D24*
G04 #@! TO.C,R2*
G36*
X132615650Y-60634521D02*
X132639918Y-60638121D01*
X132663717Y-60644082D01*
X132686816Y-60652347D01*
X132708995Y-60662837D01*
X132730038Y-60675449D01*
X132749744Y-60690064D01*
X132767922Y-60706540D01*
X132784398Y-60724718D01*
X132799013Y-60744424D01*
X132811625Y-60765467D01*
X132822115Y-60787646D01*
X132830380Y-60810745D01*
X132836341Y-60834544D01*
X132839941Y-60858812D01*
X132841145Y-60883316D01*
X132841145Y-61783318D01*
X132839941Y-61807822D01*
X132836341Y-61832090D01*
X132830380Y-61855889D01*
X132822115Y-61878988D01*
X132811625Y-61901167D01*
X132799013Y-61922210D01*
X132784398Y-61941916D01*
X132767922Y-61960094D01*
X132749744Y-61976570D01*
X132730038Y-61991185D01*
X132708995Y-62003797D01*
X132686816Y-62014287D01*
X132663717Y-62022552D01*
X132639918Y-62028513D01*
X132615650Y-62032113D01*
X132591146Y-62033317D01*
X131941144Y-62033317D01*
X131916640Y-62032113D01*
X131892372Y-62028513D01*
X131868573Y-62022552D01*
X131845474Y-62014287D01*
X131823295Y-62003797D01*
X131802252Y-61991185D01*
X131782546Y-61976570D01*
X131764368Y-61960094D01*
X131747892Y-61941916D01*
X131733277Y-61922210D01*
X131720665Y-61901167D01*
X131710175Y-61878988D01*
X131701910Y-61855889D01*
X131695949Y-61832090D01*
X131692349Y-61807822D01*
X131691145Y-61783318D01*
X131691145Y-60883316D01*
X131692349Y-60858812D01*
X131695949Y-60834544D01*
X131701910Y-60810745D01*
X131710175Y-60787646D01*
X131720665Y-60765467D01*
X131733277Y-60744424D01*
X131747892Y-60724718D01*
X131764368Y-60706540D01*
X131782546Y-60690064D01*
X131802252Y-60675449D01*
X131823295Y-60662837D01*
X131845474Y-60652347D01*
X131868573Y-60644082D01*
X131892372Y-60638121D01*
X131916640Y-60634521D01*
X131941144Y-60633317D01*
X132591146Y-60633317D01*
X132615650Y-60634521D01*
X132615650Y-60634521D01*
G37*
D25*
X132266145Y-61333317D03*
D24*
G36*
X134665650Y-60634521D02*
X134689918Y-60638121D01*
X134713717Y-60644082D01*
X134736816Y-60652347D01*
X134758995Y-60662837D01*
X134780038Y-60675449D01*
X134799744Y-60690064D01*
X134817922Y-60706540D01*
X134834398Y-60724718D01*
X134849013Y-60744424D01*
X134861625Y-60765467D01*
X134872115Y-60787646D01*
X134880380Y-60810745D01*
X134886341Y-60834544D01*
X134889941Y-60858812D01*
X134891145Y-60883316D01*
X134891145Y-61783318D01*
X134889941Y-61807822D01*
X134886341Y-61832090D01*
X134880380Y-61855889D01*
X134872115Y-61878988D01*
X134861625Y-61901167D01*
X134849013Y-61922210D01*
X134834398Y-61941916D01*
X134817922Y-61960094D01*
X134799744Y-61976570D01*
X134780038Y-61991185D01*
X134758995Y-62003797D01*
X134736816Y-62014287D01*
X134713717Y-62022552D01*
X134689918Y-62028513D01*
X134665650Y-62032113D01*
X134641146Y-62033317D01*
X133991144Y-62033317D01*
X133966640Y-62032113D01*
X133942372Y-62028513D01*
X133918573Y-62022552D01*
X133895474Y-62014287D01*
X133873295Y-62003797D01*
X133852252Y-61991185D01*
X133832546Y-61976570D01*
X133814368Y-61960094D01*
X133797892Y-61941916D01*
X133783277Y-61922210D01*
X133770665Y-61901167D01*
X133760175Y-61878988D01*
X133751910Y-61855889D01*
X133745949Y-61832090D01*
X133742349Y-61807822D01*
X133741145Y-61783318D01*
X133741145Y-60883316D01*
X133742349Y-60858812D01*
X133745949Y-60834544D01*
X133751910Y-60810745D01*
X133760175Y-60787646D01*
X133770665Y-60765467D01*
X133783277Y-60744424D01*
X133797892Y-60724718D01*
X133814368Y-60706540D01*
X133832546Y-60690064D01*
X133852252Y-60675449D01*
X133873295Y-60662837D01*
X133895474Y-60652347D01*
X133918573Y-60644082D01*
X133942372Y-60638121D01*
X133966640Y-60634521D01*
X133991144Y-60633317D01*
X134641146Y-60633317D01*
X134665650Y-60634521D01*
X134665650Y-60634521D01*
G37*
D25*
X134316145Y-61333317D03*
G04 #@! TD*
D24*
G04 #@! TO.C,R3*
G36*
X138774505Y-60634521D02*
X138798773Y-60638121D01*
X138822572Y-60644082D01*
X138845671Y-60652347D01*
X138867850Y-60662837D01*
X138888893Y-60675449D01*
X138908599Y-60690064D01*
X138926777Y-60706540D01*
X138943253Y-60724718D01*
X138957868Y-60744424D01*
X138970480Y-60765467D01*
X138980970Y-60787646D01*
X138989235Y-60810745D01*
X138995196Y-60834544D01*
X138998796Y-60858812D01*
X139000000Y-60883316D01*
X139000000Y-61783318D01*
X138998796Y-61807822D01*
X138995196Y-61832090D01*
X138989235Y-61855889D01*
X138980970Y-61878988D01*
X138970480Y-61901167D01*
X138957868Y-61922210D01*
X138943253Y-61941916D01*
X138926777Y-61960094D01*
X138908599Y-61976570D01*
X138888893Y-61991185D01*
X138867850Y-62003797D01*
X138845671Y-62014287D01*
X138822572Y-62022552D01*
X138798773Y-62028513D01*
X138774505Y-62032113D01*
X138750001Y-62033317D01*
X138099999Y-62033317D01*
X138075495Y-62032113D01*
X138051227Y-62028513D01*
X138027428Y-62022552D01*
X138004329Y-62014287D01*
X137982150Y-62003797D01*
X137961107Y-61991185D01*
X137941401Y-61976570D01*
X137923223Y-61960094D01*
X137906747Y-61941916D01*
X137892132Y-61922210D01*
X137879520Y-61901167D01*
X137869030Y-61878988D01*
X137860765Y-61855889D01*
X137854804Y-61832090D01*
X137851204Y-61807822D01*
X137850000Y-61783318D01*
X137850000Y-60883316D01*
X137851204Y-60858812D01*
X137854804Y-60834544D01*
X137860765Y-60810745D01*
X137869030Y-60787646D01*
X137879520Y-60765467D01*
X137892132Y-60744424D01*
X137906747Y-60724718D01*
X137923223Y-60706540D01*
X137941401Y-60690064D01*
X137961107Y-60675449D01*
X137982150Y-60662837D01*
X138004329Y-60652347D01*
X138027428Y-60644082D01*
X138051227Y-60638121D01*
X138075495Y-60634521D01*
X138099999Y-60633317D01*
X138750001Y-60633317D01*
X138774505Y-60634521D01*
X138774505Y-60634521D01*
G37*
D25*
X138425000Y-61333317D03*
D24*
G36*
X136724505Y-60634521D02*
X136748773Y-60638121D01*
X136772572Y-60644082D01*
X136795671Y-60652347D01*
X136817850Y-60662837D01*
X136838893Y-60675449D01*
X136858599Y-60690064D01*
X136876777Y-60706540D01*
X136893253Y-60724718D01*
X136907868Y-60744424D01*
X136920480Y-60765467D01*
X136930970Y-60787646D01*
X136939235Y-60810745D01*
X136945196Y-60834544D01*
X136948796Y-60858812D01*
X136950000Y-60883316D01*
X136950000Y-61783318D01*
X136948796Y-61807822D01*
X136945196Y-61832090D01*
X136939235Y-61855889D01*
X136930970Y-61878988D01*
X136920480Y-61901167D01*
X136907868Y-61922210D01*
X136893253Y-61941916D01*
X136876777Y-61960094D01*
X136858599Y-61976570D01*
X136838893Y-61991185D01*
X136817850Y-62003797D01*
X136795671Y-62014287D01*
X136772572Y-62022552D01*
X136748773Y-62028513D01*
X136724505Y-62032113D01*
X136700001Y-62033317D01*
X136049999Y-62033317D01*
X136025495Y-62032113D01*
X136001227Y-62028513D01*
X135977428Y-62022552D01*
X135954329Y-62014287D01*
X135932150Y-62003797D01*
X135911107Y-61991185D01*
X135891401Y-61976570D01*
X135873223Y-61960094D01*
X135856747Y-61941916D01*
X135842132Y-61922210D01*
X135829520Y-61901167D01*
X135819030Y-61878988D01*
X135810765Y-61855889D01*
X135804804Y-61832090D01*
X135801204Y-61807822D01*
X135800000Y-61783318D01*
X135800000Y-60883316D01*
X135801204Y-60858812D01*
X135804804Y-60834544D01*
X135810765Y-60810745D01*
X135819030Y-60787646D01*
X135829520Y-60765467D01*
X135842132Y-60744424D01*
X135856747Y-60724718D01*
X135873223Y-60706540D01*
X135891401Y-60690064D01*
X135911107Y-60675449D01*
X135932150Y-60662837D01*
X135954329Y-60652347D01*
X135977428Y-60644082D01*
X136001227Y-60638121D01*
X136025495Y-60634521D01*
X136049999Y-60633317D01*
X136700001Y-60633317D01*
X136724505Y-60634521D01*
X136724505Y-60634521D01*
G37*
D25*
X136375000Y-61333317D03*
G04 #@! TD*
D24*
G04 #@! TO.C,R4*
G36*
X145332910Y-60588361D02*
X145357178Y-60591961D01*
X145380977Y-60597922D01*
X145404076Y-60606187D01*
X145426255Y-60616677D01*
X145447298Y-60629289D01*
X145467004Y-60643904D01*
X145485182Y-60660380D01*
X145501658Y-60678558D01*
X145516273Y-60698264D01*
X145528885Y-60719307D01*
X145539375Y-60741486D01*
X145547640Y-60764585D01*
X145553601Y-60788384D01*
X145557201Y-60812652D01*
X145558405Y-60837156D01*
X145558405Y-61737158D01*
X145557201Y-61761662D01*
X145553601Y-61785930D01*
X145547640Y-61809729D01*
X145539375Y-61832828D01*
X145528885Y-61855007D01*
X145516273Y-61876050D01*
X145501658Y-61895756D01*
X145485182Y-61913934D01*
X145467004Y-61930410D01*
X145447298Y-61945025D01*
X145426255Y-61957637D01*
X145404076Y-61968127D01*
X145380977Y-61976392D01*
X145357178Y-61982353D01*
X145332910Y-61985953D01*
X145308406Y-61987157D01*
X144658404Y-61987157D01*
X144633900Y-61985953D01*
X144609632Y-61982353D01*
X144585833Y-61976392D01*
X144562734Y-61968127D01*
X144540555Y-61957637D01*
X144519512Y-61945025D01*
X144499806Y-61930410D01*
X144481628Y-61913934D01*
X144465152Y-61895756D01*
X144450537Y-61876050D01*
X144437925Y-61855007D01*
X144427435Y-61832828D01*
X144419170Y-61809729D01*
X144413209Y-61785930D01*
X144409609Y-61761662D01*
X144408405Y-61737158D01*
X144408405Y-60837156D01*
X144409609Y-60812652D01*
X144413209Y-60788384D01*
X144419170Y-60764585D01*
X144427435Y-60741486D01*
X144437925Y-60719307D01*
X144450537Y-60698264D01*
X144465152Y-60678558D01*
X144481628Y-60660380D01*
X144499806Y-60643904D01*
X144519512Y-60629289D01*
X144540555Y-60616677D01*
X144562734Y-60606187D01*
X144585833Y-60597922D01*
X144609632Y-60591961D01*
X144633900Y-60588361D01*
X144658404Y-60587157D01*
X145308406Y-60587157D01*
X145332910Y-60588361D01*
X145332910Y-60588361D01*
G37*
D25*
X144983405Y-61287157D03*
D24*
G36*
X143282910Y-60588361D02*
X143307178Y-60591961D01*
X143330977Y-60597922D01*
X143354076Y-60606187D01*
X143376255Y-60616677D01*
X143397298Y-60629289D01*
X143417004Y-60643904D01*
X143435182Y-60660380D01*
X143451658Y-60678558D01*
X143466273Y-60698264D01*
X143478885Y-60719307D01*
X143489375Y-60741486D01*
X143497640Y-60764585D01*
X143503601Y-60788384D01*
X143507201Y-60812652D01*
X143508405Y-60837156D01*
X143508405Y-61737158D01*
X143507201Y-61761662D01*
X143503601Y-61785930D01*
X143497640Y-61809729D01*
X143489375Y-61832828D01*
X143478885Y-61855007D01*
X143466273Y-61876050D01*
X143451658Y-61895756D01*
X143435182Y-61913934D01*
X143417004Y-61930410D01*
X143397298Y-61945025D01*
X143376255Y-61957637D01*
X143354076Y-61968127D01*
X143330977Y-61976392D01*
X143307178Y-61982353D01*
X143282910Y-61985953D01*
X143258406Y-61987157D01*
X142608404Y-61987157D01*
X142583900Y-61985953D01*
X142559632Y-61982353D01*
X142535833Y-61976392D01*
X142512734Y-61968127D01*
X142490555Y-61957637D01*
X142469512Y-61945025D01*
X142449806Y-61930410D01*
X142431628Y-61913934D01*
X142415152Y-61895756D01*
X142400537Y-61876050D01*
X142387925Y-61855007D01*
X142377435Y-61832828D01*
X142369170Y-61809729D01*
X142363209Y-61785930D01*
X142359609Y-61761662D01*
X142358405Y-61737158D01*
X142358405Y-60837156D01*
X142359609Y-60812652D01*
X142363209Y-60788384D01*
X142369170Y-60764585D01*
X142377435Y-60741486D01*
X142387925Y-60719307D01*
X142400537Y-60698264D01*
X142415152Y-60678558D01*
X142431628Y-60660380D01*
X142449806Y-60643904D01*
X142469512Y-60629289D01*
X142490555Y-60616677D01*
X142512734Y-60606187D01*
X142535833Y-60597922D01*
X142559632Y-60591961D01*
X142583900Y-60588361D01*
X142608404Y-60587157D01*
X143258406Y-60587157D01*
X143282910Y-60588361D01*
X143282910Y-60588361D01*
G37*
D25*
X142933405Y-61287157D03*
G04 #@! TD*
D24*
G04 #@! TO.C,R5*
G36*
X147474505Y-60607204D02*
X147498773Y-60610804D01*
X147522572Y-60616765D01*
X147545671Y-60625030D01*
X147567850Y-60635520D01*
X147588893Y-60648132D01*
X147608599Y-60662747D01*
X147626777Y-60679223D01*
X147643253Y-60697401D01*
X147657868Y-60717107D01*
X147670480Y-60738150D01*
X147680970Y-60760329D01*
X147689235Y-60783428D01*
X147695196Y-60807227D01*
X147698796Y-60831495D01*
X147700000Y-60855999D01*
X147700000Y-61756001D01*
X147698796Y-61780505D01*
X147695196Y-61804773D01*
X147689235Y-61828572D01*
X147680970Y-61851671D01*
X147670480Y-61873850D01*
X147657868Y-61894893D01*
X147643253Y-61914599D01*
X147626777Y-61932777D01*
X147608599Y-61949253D01*
X147588893Y-61963868D01*
X147567850Y-61976480D01*
X147545671Y-61986970D01*
X147522572Y-61995235D01*
X147498773Y-62001196D01*
X147474505Y-62004796D01*
X147450001Y-62006000D01*
X146799999Y-62006000D01*
X146775495Y-62004796D01*
X146751227Y-62001196D01*
X146727428Y-61995235D01*
X146704329Y-61986970D01*
X146682150Y-61976480D01*
X146661107Y-61963868D01*
X146641401Y-61949253D01*
X146623223Y-61932777D01*
X146606747Y-61914599D01*
X146592132Y-61894893D01*
X146579520Y-61873850D01*
X146569030Y-61851671D01*
X146560765Y-61828572D01*
X146554804Y-61804773D01*
X146551204Y-61780505D01*
X146550000Y-61756001D01*
X146550000Y-60855999D01*
X146551204Y-60831495D01*
X146554804Y-60807227D01*
X146560765Y-60783428D01*
X146569030Y-60760329D01*
X146579520Y-60738150D01*
X146592132Y-60717107D01*
X146606747Y-60697401D01*
X146623223Y-60679223D01*
X146641401Y-60662747D01*
X146661107Y-60648132D01*
X146682150Y-60635520D01*
X146704329Y-60625030D01*
X146727428Y-60616765D01*
X146751227Y-60610804D01*
X146775495Y-60607204D01*
X146799999Y-60606000D01*
X147450001Y-60606000D01*
X147474505Y-60607204D01*
X147474505Y-60607204D01*
G37*
D25*
X147125000Y-61306000D03*
D24*
G36*
X149524505Y-60607204D02*
X149548773Y-60610804D01*
X149572572Y-60616765D01*
X149595671Y-60625030D01*
X149617850Y-60635520D01*
X149638893Y-60648132D01*
X149658599Y-60662747D01*
X149676777Y-60679223D01*
X149693253Y-60697401D01*
X149707868Y-60717107D01*
X149720480Y-60738150D01*
X149730970Y-60760329D01*
X149739235Y-60783428D01*
X149745196Y-60807227D01*
X149748796Y-60831495D01*
X149750000Y-60855999D01*
X149750000Y-61756001D01*
X149748796Y-61780505D01*
X149745196Y-61804773D01*
X149739235Y-61828572D01*
X149730970Y-61851671D01*
X149720480Y-61873850D01*
X149707868Y-61894893D01*
X149693253Y-61914599D01*
X149676777Y-61932777D01*
X149658599Y-61949253D01*
X149638893Y-61963868D01*
X149617850Y-61976480D01*
X149595671Y-61986970D01*
X149572572Y-61995235D01*
X149548773Y-62001196D01*
X149524505Y-62004796D01*
X149500001Y-62006000D01*
X148849999Y-62006000D01*
X148825495Y-62004796D01*
X148801227Y-62001196D01*
X148777428Y-61995235D01*
X148754329Y-61986970D01*
X148732150Y-61976480D01*
X148711107Y-61963868D01*
X148691401Y-61949253D01*
X148673223Y-61932777D01*
X148656747Y-61914599D01*
X148642132Y-61894893D01*
X148629520Y-61873850D01*
X148619030Y-61851671D01*
X148610765Y-61828572D01*
X148604804Y-61804773D01*
X148601204Y-61780505D01*
X148600000Y-61756001D01*
X148600000Y-60855999D01*
X148601204Y-60831495D01*
X148604804Y-60807227D01*
X148610765Y-60783428D01*
X148619030Y-60760329D01*
X148629520Y-60738150D01*
X148642132Y-60717107D01*
X148656747Y-60697401D01*
X148673223Y-60679223D01*
X148691401Y-60662747D01*
X148711107Y-60648132D01*
X148732150Y-60635520D01*
X148754329Y-60625030D01*
X148777428Y-60616765D01*
X148801227Y-60610804D01*
X148825495Y-60607204D01*
X148849999Y-60606000D01*
X149500001Y-60606000D01*
X149524505Y-60607204D01*
X149524505Y-60607204D01*
G37*
D25*
X149175000Y-61306000D03*
G04 #@! TD*
D24*
G04 #@! TO.C,R6*
G36*
X153224505Y-60607204D02*
X153248773Y-60610804D01*
X153272572Y-60616765D01*
X153295671Y-60625030D01*
X153317850Y-60635520D01*
X153338893Y-60648132D01*
X153358599Y-60662747D01*
X153376777Y-60679223D01*
X153393253Y-60697401D01*
X153407868Y-60717107D01*
X153420480Y-60738150D01*
X153430970Y-60760329D01*
X153439235Y-60783428D01*
X153445196Y-60807227D01*
X153448796Y-60831495D01*
X153450000Y-60855999D01*
X153450000Y-61756001D01*
X153448796Y-61780505D01*
X153445196Y-61804773D01*
X153439235Y-61828572D01*
X153430970Y-61851671D01*
X153420480Y-61873850D01*
X153407868Y-61894893D01*
X153393253Y-61914599D01*
X153376777Y-61932777D01*
X153358599Y-61949253D01*
X153338893Y-61963868D01*
X153317850Y-61976480D01*
X153295671Y-61986970D01*
X153272572Y-61995235D01*
X153248773Y-62001196D01*
X153224505Y-62004796D01*
X153200001Y-62006000D01*
X152549999Y-62006000D01*
X152525495Y-62004796D01*
X152501227Y-62001196D01*
X152477428Y-61995235D01*
X152454329Y-61986970D01*
X152432150Y-61976480D01*
X152411107Y-61963868D01*
X152391401Y-61949253D01*
X152373223Y-61932777D01*
X152356747Y-61914599D01*
X152342132Y-61894893D01*
X152329520Y-61873850D01*
X152319030Y-61851671D01*
X152310765Y-61828572D01*
X152304804Y-61804773D01*
X152301204Y-61780505D01*
X152300000Y-61756001D01*
X152300000Y-60855999D01*
X152301204Y-60831495D01*
X152304804Y-60807227D01*
X152310765Y-60783428D01*
X152319030Y-60760329D01*
X152329520Y-60738150D01*
X152342132Y-60717107D01*
X152356747Y-60697401D01*
X152373223Y-60679223D01*
X152391401Y-60662747D01*
X152411107Y-60648132D01*
X152432150Y-60635520D01*
X152454329Y-60625030D01*
X152477428Y-60616765D01*
X152501227Y-60610804D01*
X152525495Y-60607204D01*
X152549999Y-60606000D01*
X153200001Y-60606000D01*
X153224505Y-60607204D01*
X153224505Y-60607204D01*
G37*
D25*
X152875000Y-61306000D03*
D24*
G36*
X155274505Y-60607204D02*
X155298773Y-60610804D01*
X155322572Y-60616765D01*
X155345671Y-60625030D01*
X155367850Y-60635520D01*
X155388893Y-60648132D01*
X155408599Y-60662747D01*
X155426777Y-60679223D01*
X155443253Y-60697401D01*
X155457868Y-60717107D01*
X155470480Y-60738150D01*
X155480970Y-60760329D01*
X155489235Y-60783428D01*
X155495196Y-60807227D01*
X155498796Y-60831495D01*
X155500000Y-60855999D01*
X155500000Y-61756001D01*
X155498796Y-61780505D01*
X155495196Y-61804773D01*
X155489235Y-61828572D01*
X155480970Y-61851671D01*
X155470480Y-61873850D01*
X155457868Y-61894893D01*
X155443253Y-61914599D01*
X155426777Y-61932777D01*
X155408599Y-61949253D01*
X155388893Y-61963868D01*
X155367850Y-61976480D01*
X155345671Y-61986970D01*
X155322572Y-61995235D01*
X155298773Y-62001196D01*
X155274505Y-62004796D01*
X155250001Y-62006000D01*
X154599999Y-62006000D01*
X154575495Y-62004796D01*
X154551227Y-62001196D01*
X154527428Y-61995235D01*
X154504329Y-61986970D01*
X154482150Y-61976480D01*
X154461107Y-61963868D01*
X154441401Y-61949253D01*
X154423223Y-61932777D01*
X154406747Y-61914599D01*
X154392132Y-61894893D01*
X154379520Y-61873850D01*
X154369030Y-61851671D01*
X154360765Y-61828572D01*
X154354804Y-61804773D01*
X154351204Y-61780505D01*
X154350000Y-61756001D01*
X154350000Y-60855999D01*
X154351204Y-60831495D01*
X154354804Y-60807227D01*
X154360765Y-60783428D01*
X154369030Y-60760329D01*
X154379520Y-60738150D01*
X154392132Y-60717107D01*
X154406747Y-60697401D01*
X154423223Y-60679223D01*
X154441401Y-60662747D01*
X154461107Y-60648132D01*
X154482150Y-60635520D01*
X154504329Y-60625030D01*
X154527428Y-60616765D01*
X154551227Y-60610804D01*
X154575495Y-60607204D01*
X154599999Y-60606000D01*
X155250001Y-60606000D01*
X155274505Y-60607204D01*
X155274505Y-60607204D01*
G37*
D25*
X154925000Y-61306000D03*
G04 #@! TD*
D24*
G04 #@! TO.C,R7*
G36*
X159524505Y-60607204D02*
X159548773Y-60610804D01*
X159572572Y-60616765D01*
X159595671Y-60625030D01*
X159617850Y-60635520D01*
X159638893Y-60648132D01*
X159658599Y-60662747D01*
X159676777Y-60679223D01*
X159693253Y-60697401D01*
X159707868Y-60717107D01*
X159720480Y-60738150D01*
X159730970Y-60760329D01*
X159739235Y-60783428D01*
X159745196Y-60807227D01*
X159748796Y-60831495D01*
X159750000Y-60855999D01*
X159750000Y-61756001D01*
X159748796Y-61780505D01*
X159745196Y-61804773D01*
X159739235Y-61828572D01*
X159730970Y-61851671D01*
X159720480Y-61873850D01*
X159707868Y-61894893D01*
X159693253Y-61914599D01*
X159676777Y-61932777D01*
X159658599Y-61949253D01*
X159638893Y-61963868D01*
X159617850Y-61976480D01*
X159595671Y-61986970D01*
X159572572Y-61995235D01*
X159548773Y-62001196D01*
X159524505Y-62004796D01*
X159500001Y-62006000D01*
X158849999Y-62006000D01*
X158825495Y-62004796D01*
X158801227Y-62001196D01*
X158777428Y-61995235D01*
X158754329Y-61986970D01*
X158732150Y-61976480D01*
X158711107Y-61963868D01*
X158691401Y-61949253D01*
X158673223Y-61932777D01*
X158656747Y-61914599D01*
X158642132Y-61894893D01*
X158629520Y-61873850D01*
X158619030Y-61851671D01*
X158610765Y-61828572D01*
X158604804Y-61804773D01*
X158601204Y-61780505D01*
X158600000Y-61756001D01*
X158600000Y-60855999D01*
X158601204Y-60831495D01*
X158604804Y-60807227D01*
X158610765Y-60783428D01*
X158619030Y-60760329D01*
X158629520Y-60738150D01*
X158642132Y-60717107D01*
X158656747Y-60697401D01*
X158673223Y-60679223D01*
X158691401Y-60662747D01*
X158711107Y-60648132D01*
X158732150Y-60635520D01*
X158754329Y-60625030D01*
X158777428Y-60616765D01*
X158801227Y-60610804D01*
X158825495Y-60607204D01*
X158849999Y-60606000D01*
X159500001Y-60606000D01*
X159524505Y-60607204D01*
X159524505Y-60607204D01*
G37*
D25*
X159175000Y-61306000D03*
D24*
G36*
X157474505Y-60607204D02*
X157498773Y-60610804D01*
X157522572Y-60616765D01*
X157545671Y-60625030D01*
X157567850Y-60635520D01*
X157588893Y-60648132D01*
X157608599Y-60662747D01*
X157626777Y-60679223D01*
X157643253Y-60697401D01*
X157657868Y-60717107D01*
X157670480Y-60738150D01*
X157680970Y-60760329D01*
X157689235Y-60783428D01*
X157695196Y-60807227D01*
X157698796Y-60831495D01*
X157700000Y-60855999D01*
X157700000Y-61756001D01*
X157698796Y-61780505D01*
X157695196Y-61804773D01*
X157689235Y-61828572D01*
X157680970Y-61851671D01*
X157670480Y-61873850D01*
X157657868Y-61894893D01*
X157643253Y-61914599D01*
X157626777Y-61932777D01*
X157608599Y-61949253D01*
X157588893Y-61963868D01*
X157567850Y-61976480D01*
X157545671Y-61986970D01*
X157522572Y-61995235D01*
X157498773Y-62001196D01*
X157474505Y-62004796D01*
X157450001Y-62006000D01*
X156799999Y-62006000D01*
X156775495Y-62004796D01*
X156751227Y-62001196D01*
X156727428Y-61995235D01*
X156704329Y-61986970D01*
X156682150Y-61976480D01*
X156661107Y-61963868D01*
X156641401Y-61949253D01*
X156623223Y-61932777D01*
X156606747Y-61914599D01*
X156592132Y-61894893D01*
X156579520Y-61873850D01*
X156569030Y-61851671D01*
X156560765Y-61828572D01*
X156554804Y-61804773D01*
X156551204Y-61780505D01*
X156550000Y-61756001D01*
X156550000Y-60855999D01*
X156551204Y-60831495D01*
X156554804Y-60807227D01*
X156560765Y-60783428D01*
X156569030Y-60760329D01*
X156579520Y-60738150D01*
X156592132Y-60717107D01*
X156606747Y-60697401D01*
X156623223Y-60679223D01*
X156641401Y-60662747D01*
X156661107Y-60648132D01*
X156682150Y-60635520D01*
X156704329Y-60625030D01*
X156727428Y-60616765D01*
X156751227Y-60610804D01*
X156775495Y-60607204D01*
X156799999Y-60606000D01*
X157450001Y-60606000D01*
X157474505Y-60607204D01*
X157474505Y-60607204D01*
G37*
D25*
X157125000Y-61306000D03*
G04 #@! TD*
M02*
