<?xml version="1.0" encoding="utf-8"?>
<!-- Generator: Fusion 360, Shaper Origin Export Add-In, Version 1.6.10  -->
<svg xmlns="http://www.w3.org/2000/svg" xmlns:xlink="http://www.w3.org/1999/xlink" xmlns:shaper="http://www.shapertools.com/namespaces/shaper" shaper:fusionaddin="version:1.6.10" width="1.3462cm" height="0.7366cm" version="1.1" x="0cm" y="0cm" viewBox="0 0 1.3462 0.7366" enable-background="new 0 0 1.3462 0.7366" xml:space="preserve"><path d="M-0.330088,-0.2696279 L-0.330088,0.4669721 1.016112,0.4669721 1.016112,-0.2696279 -0.330088,-0.2696279z" transform="matrix(1,0,0,-1,0.330088,0.4669721)" fill="rgb(0,0,0)" shaper:cutDepth="0.000127" stroke-linecap="round" stroke-linejoin="round" /><path d="M0.619325,0.2398164 L0.619325,0.2398164 0.6220094,0.2468345 0.6239012,0.2500906 0.6263233,0.2529864 0.6293043,0.2553441 0.6327097,0.2569449 0.6401598,0.2579211 0.6401598,0.2579211 0.6477331,0.2567217 0.6512497,0.2551984 0.6544185,0.2529681 0.6570824,0.250135 0.6589994,0.2468197 0.6605636,0.2393135 0.6605636,0.2393135 0.6590868,0.2293558 0.5785893,-0.0523741 0.5785893,-0.0523741 0.5759158,-0.0597656 0.5717475,-0.0664285 0.5688761,-0.0692131 0.5655087,-0.0712108 0.5617384,-0.0721579 0.5577545,-0.0724905 0.5577545,-0.0724905 0.5535183,-0.0723208 0.549433,-0.0715228 0.5456765,-0.069623 0.5425357,-0.0667725 0.5402168,-0.0632764 0.5385127,-0.0594237 0.5359312,-0.0514543 0.4753466,0.1591021 0.4157184,-0.0505062 0.4157184,-0.0505062 0.4129282,-0.0585839 0.4110643,-0.0624353 0.4086369,-0.0659741 0.4055153,-0.068987 0.4018088,-0.0711125 0.3976951,-0.0721238 0.3933748,-0.0724905 0.3933748,-0.0724905 0.3880213,-0.0716615 0.3831936,-0.0698265 0.3791307,-0.0665291 0.3754856,-0.0624323 0.3754856,-0.0624323 0.3710616,-0.0474816 0.2920745,0.2271 0.2920745,0.2271 0.2909388,0.2314857 0.2905657,0.2360086 0.2905657,0.2360086 0.2921569,0.2439818 0.2940713,0.2475509 0.296719,0.2507114 0.2998705,0.2533698 0.303433,0.2552964 0.3114006,0.2569153 0.3114006,0.2569153 0.3188048,0.255849 0.3221701,0.2542 0.3250929,0.2517965 0.32744,0.2488625 0.3292567,0.2455815 0.3318306,0.2385573 0.3934084,0.0240281 0.4549454,0.2393853 0.4549454,0.2393853 0.4576166,0.2466866 0.4594231,0.2501637 0.4618202,0.2532275 0.4649385,0.2555984 0.4685498,0.2571182 0.4762831,0.2579211 0.4762831,0.2579211 0.4830584,0.2570654 0.486131,0.2557966 0.4888396,0.2537427 0.4910936,0.251125 0.4928203,0.2481848 0.4952104,0.2418654 0.5572848,0.0246987 0.619325,0.2398164z" transform="matrix(1,0,0,-1,0.330088,0.4669721)" fill="rgb(160,160,160)" fill-rule="nonzero" shaper:cutDepth="0.0000762" stroke-linecap="round" stroke-linejoin="round" /><path d="M0.1937197,0.1898846 L0.1937197,0.1898846 0.1834733,0.20084 0.1776169,0.2055335 0.1712958,0.2095793 0.1645541,0.212877 0.1574268,0.2152281 0.1500571,0.2166471 0.1425666,0.2171136 0.1425666,0.2171136 0.1320696,0.2159589 0.1218489,0.2133092 0.1120986,0.2092537 0.1030058,0.2038882 0.094677,0.1973935 0.0871203,0.190016 0.0802883,0.1819612 0.0741441,0.1733705 0.0686914,0.1643247 0.0639483,0.1548875 0.0599614,0.1451069 0.0567222,0.1350535 0.0542507,0.1247848 0.0524748,0.1143723 0.0507497,0.093326 0.0507497,0.093326 0.0514154,0.0800682 0.053323,0.0669341 0.0563461,0.0540097 0.0604236,0.0413783 0.0655419,0.0291318 0.071678,0.0173621 0.0788166,0.0061736 0.0869592,-0.0043103 0.0869592,-0.0043103 0.0924897,-0.0102767 0.0985411,-0.0157141 0.1050812,-0.0205526 0.1121263,-0.0246209 0.1195865,-0.0278659 0.1274102,-0.0300961 0.1354424,-0.0313881 0.1435724,-0.031683 0.1435724,-0.031683 0.1518611,-0.0312225 0.1599628,-0.029412 0.1677179,-0.02645 0.1749422,-0.0223605 0.1816206,-0.0174295 0.1878008,-0.011887 0.198677,0.0006469 0.198677,0.0006469 0.2022169,0.0049503 0.2063874,0.0081768 0.2114768,0.0098343 0.2170691,0.0106333 0.2170691,0.0106333 0.2249671,0.0091555 0.2284927,0.0072427 0.2315469,0.0045445 0.233997,0.0012985 0.2356866,-0.0023414 0.2369699,-0.0102734 0.2369699,-0.0102734 0.2353307,-0.0179662 0.2312402,-0.0246866 0.2210205,-0.0366402 0.2210205,-0.0366402 0.2129603,-0.0445237 0.2042718,-0.0517048 0.1949181,-0.0579956 0.1849322,-0.0632233 0.1744106,-0.0672674 0.1635292,-0.0702104 0.1523897,-0.0719254 0.1411297,-0.0724905 0.1411297,-0.0724905 0.1275587,-0.0717459 0.1141979,-0.0692811 0.1012592,-0.065135 0.0890006,-0.0592745 0.0775551,-0.0519509 0.067039,-0.0433439 0.05747,-0.0336947 0.048738,-0.0232772 0.048738,-0.0232772 0.0396742,-0.0102468 0.0318051,0.0035344 0.025166,0.0179502 0.0196926,0.0328475 0.0154608,0.0481444 0.0123677,0.0637115 0.0105616,0.0794792 0.0098703,0.0953376 0.0098703,0.0953376 0.010617,0.1110406 0.0127955,0.1266065 0.0163452,0.1419193 0.0211666,0.1568808 0.0271512,0.1714164 0.0342608,0.185436 0.0424899,0.1988287 0.0516836,0.2115816 0.0516836,0.2115816 0.0604692,0.2216195 0.0701436,0.2307981 0.080718,0.2389247 0.0921543,0.2457821 0.1043762,0.2511146 0.1171493,0.2549447 0.1303006,0.2571463 0.143613,0.2579929 0.143613,0.2579929 0.1557558,0.2572028 0.1677101,0.2549606 0.1793018,0.2512726 0.1903375,0.2461557 0.2006751,0.2397425 0.2103098,0.2323125 0.219243,0.2240534 0.2274865,0.215102 0.2274865,0.215102 0.2309639,0.2110573 0.2337075,0.2066403 0.2353804,0.2016801 0.236467,0.1964225 0.236467,0.1964225 0.2349649,0.1884332 0.2331702,0.1847954 0.2306429,0.1815484 0.2275559,0.1788184 0.2240164,0.1768398 0.2160633,0.1751566 0.2160633,0.1751566 0.2090708,0.1761298 0.2059125,0.1774183 0.2030809,0.179431 0.1937197,0.1898846z" transform="matrix(1,0,0,-1,0.330088,0.4669721)" fill="rgb(160,160,160)" fill-rule="nonzero" shaper:cutDepth="0.0000762" stroke-linecap="round" stroke-linejoin="round" /></svg>