<?xml version="1.0" encoding="utf-8"?>
<!-- Generator: Fusion 360, Shaper Origin Export Add-In, Version 1.6.10  -->
<svg xmlns="http://www.w3.org/2000/svg" xmlns:xlink="http://www.w3.org/1999/xlink" xmlns:shaper="http://www.shapertools.com/namespaces/shaper" shaper:fusionaddin="version:1.6.10" width="1.3462cm" height="0.7366cm" version="1.1" x="0cm" y="0cm" viewBox="0 0 1.3462 0.7366" enable-background="new 0 0 1.3462 0.7366" xml:space="preserve"><path d="M-0.3469069,-0.2433997 L-0.3469069,0.4932003 0.9992931,0.4932003 0.9992931,-0.2433997 -0.3469069,-0.2433997z" transform="matrix(1,0,0,-1,0.3469069,0.4932003)" fill="rgb(0,0,0)" shaper:cutDepth="0.000127" stroke-linecap="round" stroke-linejoin="round" /><path d="M0.1467231,-0.0126474 L0.2529838,0.2684873 0.2529838,0.2684873 0.2560047,0.2746783 0.2604088,0.2800826 0.2632438,0.2820702 0.2664084,0.2833016 0.2733158,0.2841494 0.2733158,0.2841494 0.2816301,0.2831261 0.2854214,0.2813118 0.2886864,0.2786138 0.2912623,0.2753014 0.2933157,0.2716318 0.2966949,0.2639668 0.4039286,-0.0160877 0.4039286,-0.0160877 0.4052757,-0.021664 0.4059402,-0.0273673 0.4059402,-0.0273673 0.4041232,-0.0350295 0.4020285,-0.03835 0.399195,-0.0411721 0.3959076,-0.0434171 0.3923,-0.044976 0.3845306,-0.0462623 0.3845306,-0.0462623 0.3774018,-0.0453055 0.37416,-0.0439825 0.3712776,-0.0418722 0.3668151,-0.036209 0.3637352,-0.0297999 0.349334,0.008914 0.2003554,0.008914 0.1844444,-0.0322527 0.1844444,-0.0322527 0.1811913,-0.0379892 0.1765717,-0.0427007 0.1736984,-0.0443597 0.1705967,-0.0454098 0.1640407,-0.0462623 0.1640407,-0.0462623 0.1562567,-0.0450107 0.1526373,-0.0434666 0.1493403,-0.0412273 0.1465067,-0.0383964 0.1444295,-0.0350596 0.1427029,-0.0273673 0.1427029,-0.0273673 0.1440788,-0.0198413 0.1467231,-0.0126474z M0.3329463,0.0497216 L0.2743481,0.2048472 0.2157499,0.0497216 0.3329463,0.0497216z" transform="matrix(1,0,0,-1,0.3469069,0.4932003)" fill="rgb(160,160,160)" fill-rule="nonzero" shaper:cutDepth="0.0000762" stroke-linecap="round" stroke-linejoin="round" /><path d="M0.4552253,-0.0236086 L0.4551535,0.2605126 0.4551535,0.2605126 0.4554644,0.2683584 0.4575244,0.2759591 0.4575244,0.2759591 0.4608075,0.2793277 0.464522,0.2819072 0.4688628,0.2833411 0.4735457,0.2841494 0.4735457,0.2841494 0.4776447,0.2838198 0.4815356,0.2828342 0.4849978,0.28071 0.4877606,0.2776579 0.4896238,0.2740373 0.4907054,0.2701147 0.4914349,0.2620501 0.4914349,-0.0236314 0.4914349,-0.0236314 0.4911807,-0.0309393 0.4894951,-0.038072 0.4894951,-0.038072 0.4862551,-0.0414754 0.4825675,-0.0440667 0.4782329,-0.0454844 0.4735457,-0.0462623 0.4735457,-0.0462623 0.4683719,-0.0454452 0.4637556,-0.0436159 0.459951,-0.0403131 0.4565904,-0.0362041 0.4565904,-0.0362041 0.4551812,-0.0299957 0.4552253,-0.0236086z" transform="matrix(1,0,0,-1,0.3469069,0.4932003)" fill="rgb(160,160,160)" fill-rule="nonzero" shaper:cutDepth="0.0000762" stroke-linecap="round" stroke-linejoin="round" /></svg>