<?xml version="1.0" encoding="utf-8"?>
<!-- Generator: Fusion 360, Shaper Origin Export Add-In, Version 1.6.10  -->
<svg xmlns="http://www.w3.org/2000/svg" xmlns:xlink="http://www.w3.org/1999/xlink" xmlns:shaper="http://www.shapertools.com/namespaces/shaper" shaper:fusionaddin="version:1.6.10" width="1.77292cm" height="1.77292cm" version="1.1" x="0cm" y="0cm" viewBox="0 0 1.77292 1.77292" enable-background="new 0 0 1.77292 1.77292" xml:space="preserve"><path d="M0.88646,-0.88646 L-0.88646,-0.88646 -0.88646,0.88646 0.88646,0.88646 0.88646,-0.88646z" transform="matrix(1,0,0,-1,0.88646,0.88646)" fill="rgb(0,0,0)" shaper:cutDepth="0.000127" stroke-linecap="round" stroke-linejoin="round" /><path d="M-0.4498282,0.1869198 L-0.4498282,0.1869198 -0.4488191,0.1934908 -0.4462904,0.1996326 -0.4422058,0.2048869 -0.4367065,0.2086058 -0.4367065,0.2086058 -0.4328091,0.209892 -0.4287184,0.2102695 -0.4204976,0.2102195 -0.055212,0.207124 -0.055212,0.207124 -0.0450551,0.206726 -0.0400379,0.2059093 -0.0353796,0.2039026 -0.0353796,0.2039026 -0.0310803,0.1997409 -0.0277451,0.1947782 -0.0257017,0.1891572 -0.0250294,0.1832127 -0.0250294,0.1832127 -0.0253336,0.1779813 -0.0268096,0.1729557 -0.0295016,0.1684739 -0.0334711,0.1650528 -0.0381597,0.1627257 -0.043211,0.1613183 -0.0536424,0.1604611 -0.4209331,0.1636664 -0.4209331,0.1636664 -0.4303558,0.1640359 -0.4350059,0.1648296 -0.4394773,0.1663223 -0.4394773,0.1663223 -0.4439622,0.1702679 -0.447116,0.1753589 -0.4491567,0.1809771 -0.4498282,0.1869198z" transform="matrix(1,0,0,-1,0.88646,0.88646)" fill="rgb(159,159,159)" fill-rule="nonzero" shaper:cutDepth="0.0000762" stroke-linecap="round" stroke-linejoin="round" /><path d="M0.0778264,-0.3638964 L0.0778264,-0.3638964 0.0786184,-0.3780779 0.081376,-0.3920061 0.0861075,-0.4053979 0.0928545,-0.4178924 0.1013948,-0.4292389 0.111675,-0.4390353 0.1234021,-0.4470428 0.1361663,-0.45327 0.1361663,-0.45327 0.1476007,-0.4572018 0.1595556,-0.4590832 0.1837268,-0.4601511 0.4145068,-0.4620729 0.4145068,-0.4620729 0.4270917,-0.4630985 0.43325,-0.4645792 0.4390413,-0.4670874 0.4438628,-0.4711681 0.4471239,-0.4765694 0.448792,-0.4826642 0.4490972,-0.4889787 0.4490972,-0.4889787 0.4486861,-0.4952496 0.4470168,-0.5013019 0.4435925,-0.5065709 0.4413091,-0.5087308 0.4386578,-0.5104149 0.4327968,-0.5127122 0.4266438,-0.5139673 0.4140936,-0.5146304 0.177403,-0.5124726 0.177403,-0.5124726 0.1625389,-0.5115645 0.147772,-0.5096458 0.1332238,-0.506471 0.1189855,-0.5021022 0.1052836,-0.4962798 0.0922117,-0.4891433 0.0799904,-0.4806389 0.0687361,-0.4708879 0.058532,-0.460043 0.0495995,-0.4481298 0.0420194,-0.4353131 0.0358245,-0.4217733 0.031221,-0.4076112 0.0279545,-0.393083 0.0260544,-0.3783143 0.0253616,-0.3634386 0.0253616,-0.3634386 0.0258832,-0.3523743 0.0270986,-0.3413648 0.0291627,-0.3304824 0.0319983,-0.3197751 0.0356013,-0.3093011 0.0399969,-0.2991344 0.0451705,-0.2893405 0.0511101,-0.2799914 0.0577156,-0.2711002 0.0649941,-0.262751 0.0729219,-0.2550161 0.0814801,-0.2479839 0.0905219,-0.241587 0.1000292,-0.2359027 0.1099142,-0.2309065 0.1201311,-0.2266273 0.1201311,-0.2266273 0.135263,-0.2217738 0.150881,-0.218836 0.1667367,-0.2178027 0.1826271,-0.2177504 0.4211479,-0.2197397 0.4211479,-0.2197397 0.4325464,-0.2211805 0.4379956,-0.2230336 0.4429012,-0.2260223 0.4468951,-0.2301592 0.4495144,-0.2352733 0.4508525,-0.2408648 0.4512124,-0.246606 0.4512124,-0.246606 0.4509242,-0.2524951 0.4493955,-0.2581845 0.4465177,-0.2633154 0.4421199,-0.2672385 0.4368638,-0.2698986 0.4311737,-0.2714382 0.4194235,-0.2722858 0.1833968,-0.2702261 0.1833968,-0.2702261 0.1689209,-0.2703472 0.1544904,-0.2714525 0.147387,-0.2728596 0.140482,-0.2750612 0.1274136,-0.2812843 0.1274136,-0.2812843 0.1166314,-0.2879287 0.106783,-0.2958895 0.098129,-0.3051353 0.0909108,-0.315541 0.0852083,-0.3268482 0.0811005,-0.3388283 0.0786937,-0.3512606 0.0778264,-0.3638964z" transform="matrix(1,0,0,-1,0.88646,0.88646)" fill="rgb(159,159,159)" fill-rule="nonzero" shaper:cutDepth="0.0000762" stroke-linecap="round" stroke-linejoin="round" /><path d="M-0.2098726,0.3312397 L-0.2098726,0.3312397 -0.2175758,0.3324399 -0.2212513,0.3337384 -0.2246671,0.3356505 -0.2276893,0.3381463 -0.2301899,0.3411396 -0.2337431,0.3480754 -0.2337431,0.3480754 -0.2348345,0.3532486 -0.2352768,0.3585253 -0.2354071,0.3691063 -0.2341702,0.5108433 -0.4126244,0.5124007 -0.4126244,0.5124007 -0.4214729,0.5126115 -0.4258711,0.5130972 -0.430065,0.5144928 -0.430065,0.5144928 -0.4337826,0.5159262 -0.4372318,0.5179173 -0.4401304,0.5206531 -0.4425813,0.5237933 -0.4444568,0.5273255 -0.4457083,0.5311241 -0.4467554,0.5390253 -0.4467554,0.5390253 -0.4456462,0.5464542 -0.4426801,0.5533381 -0.4378766,0.5591032 -0.4315799,0.5631874 -0.4315799,0.5631874 -0.4268433,0.5645093 -0.4219371,0.5649131 -0.4120919,0.5648649 -0.0572892,0.5618609 -0.0572892,0.5618609 -0.0497273,0.5614077 -0.0422916,0.5599771 -0.0352975,0.5570752 -0.0292871,0.5524785 -0.0268758,0.5495474 -0.0249635,0.5462731 -0.0226009,0.5390775 -0.0217469,0.5315568 -0.0219633,0.5239836 -0.0239468,0.3072624 -0.0239468,0.3072624 -0.0252961,0.2952431 -0.0269682,0.2894234 -0.0296664,0.2840073 -0.0336364,0.2794481 -0.0386899,0.2761241 -0.0444515,0.2742814 -0.0504743,0.2736848 -0.0504743,0.2736848 -0.0565372,0.2742693 -0.0623158,0.2761872 -0.0674306,0.2794729 -0.0713104,0.2841653 -0.0738802,0.2896816 -0.0754647,0.2955698 -0.0762399,0.3016041 -0.0763197,0.3076986 -0.074559,0.5094504 -0.1817053,0.5103855 -0.1829587,0.3667538 -0.1829587,0.3667538 -0.1839059,0.3540005 -0.1854532,0.3477839 -0.1880394,0.3419308 -0.1920425,0.3369466 -0.19735,0.3333819 -0.2034797,0.3315559 -0.2098726,0.3312397z" transform="matrix(1,0,0,-1,0.88646,0.88646)" fill="rgb(159,159,159)" fill-rule="nonzero" shaper:cutDepth="0.0000762" stroke-linecap="round" stroke-linejoin="round" /><path d="M-0.4256556,-0.1869467 L-0.4256556,-0.1869467 -0.4307549,-0.1863795 -0.4356246,-0.1847711 -0.4400633,-0.1822013 -0.4438599,-0.1787515 -0.4468972,-0.1746183 -0.4490344,-0.1699553 -0.4501955,-0.164959 -0.4506374,-0.1598477 -0.4506374,-0.1598477 -0.4499328,-0.1524277 -0.4487366,-0.1488798 -0.4468287,-0.1456765 -0.4417824,-0.1401959 -0.4358687,-0.1356642 -0.2742598,-0.0182961 -0.2737665,0.0382305 -0.4166592,0.0394775 -0.4166592,0.0394775 -0.4290419,0.040445 -0.4350726,0.0419433 -0.4407165,0.0445323 -0.4456085,0.0483644 -0.4490204,0.0535361 -0.4506605,0.059525 -0.4508858,0.0657335 -0.4508858,0.0657335 -0.4495721,0.0743725 -0.4480302,0.0784741 -0.4457952,0.0822379 -0.4429806,0.0855966 -0.439545,0.0883084 -0.4356633,0.0903377 -0.4314468,0.0915211 -0.4314468,0.0915211 -0.4225633,0.0920792 -0.4136526,0.0919202 -0.0626171,0.088949 -0.0626171,0.088949 -0.0547718,0.0888613 -0.0470239,0.0876429 -0.0397677,0.0846741 -0.036536,0.0824361 -0.0337093,0.0797076 -0.029526,0.0730808 -0.0271575,0.065601 -0.0261736,0.0578212 -0.0260999,0.0499745 -0.0271349,-0.0580516 -0.0271349,-0.0580516 -0.0278518,-0.0705558 -0.0294149,-0.0829791 -0.0318486,-0.0952673 -0.0353965,-0.107275 -0.0400899,-0.118887 -0.0458901,-0.1299854 -0.052823,-0.1404146 -0.0608399,-0.1500343 -0.0697856,-0.158799 -0.0796298,-0.1665384 -0.0902971,-0.1730978 -0.1016683,-0.1783436 -0.1135218,-0.1823818 -0.125733,-0.1851633 -0.1381525,-0.1867677 -0.1506602,-0.1874067 -0.1506602,-0.1874067 -0.1616071,-0.1868211 -0.1724891,-0.1854952 -0.1832161,-0.1832397 -0.1937489,-0.1801958 -0.2039302,-0.1761375 -0.2137152,-0.1711932 -0.2229355,-0.1652658 -0.2316192,-0.1585751 -0.2396809,-0.1511471 -0.2469542,-0.1429458 -0.2534174,-0.1340913 -0.259094,-0.1247147 -0.263774,-0.1148008 -0.2676378,-0.1045422 -0.2706686,-0.0940074 -0.2729531,-0.0832855 -0.4053449,-0.1777017 -0.4053449,-0.1777017 -0.4085072,-0.1801683 -0.4085072,-0.1801683 -0.4123033,-0.1829603 -0.4164447,-0.1852059 -0.4209629,-0.1865425 -0.4256556,-0.1869467z M-0.2152528,-0.0947454 L-0.2152528,-0.0947454 -0.2102872,-0.103414 -0.2040817,-0.1112423 -0.1969196,-0.1182054 -0.1888199,-0.1240536 -0.1799804,-0.1287072 -0.1705836,-0.1320987 -0.1608092,-0.1341579 -0.1508489,-0.1349362 -0.1508489,-0.1349362 -0.1407367,-0.1342247 -0.1308007,-0.1322169 -0.1213055,-0.1286685 -0.1123601,-0.1238995 -0.1041843,-0.1179069 -0.096898,-0.1108596 -0.0907632,-0.1027902 -0.0858288,-0.093935 -0.0858288,-0.093935 -0.082546,-0.0857746 -0.0806278,-0.0771899 -0.0795253,-0.0596321 -0.0786861,0.0365281 -0.2213016,0.0377726 -0.2221004,-0.0537637 -0.2221004,-0.0537637 -0.2220855,-0.0642698 -0.221353,-0.0747497 -0.2192887,-0.0850508 -0.2152528,-0.0947454z" transform="matrix(1,0,0,-1,0.88646,0.88646)" fill="rgb(159,159,159)" fill-rule="nonzero" shaper:cutDepth="0.0000762" stroke-linecap="round" stroke-linejoin="round" /><path d="M0.0590533,0.1262228 L0.4159194,0.1232008 0.4159194,0.1232008 0.4244948,0.1230562 0.4329857,0.1218608 0.4410223,0.118891 0.444626,0.1165364 0.4476537,0.1135047 0.4499479,0.1098678 0.4516042,0.1059012 0.4535194,0.0975435 0.4541854,0.0889946 0.4541585,0.0804181 0.453159,-0.0235381 0.453159,-0.0235381 0.452773,-0.0366756 0.4516352,-0.0497696 0.4490651,-0.0626574 0.4451335,-0.0751979 0.4451335,-0.0751979 0.4415622,-0.0837976 0.4373111,-0.0920815 0.432512,-0.1000614 0.427055,-0.1076059 0.4210472,-0.1147198 0.4144375,-0.1212784 0.407316,-0.1272768 0.3997585,-0.132717 0.3918281,-0.1375955 0.3835143,-0.1417908 0.3749305,-0.1453956 0.3660579,-0.1482258 0.3570259,-0.1504827 0.3478327,-0.1519729 0.3385707,-0.1529199 0.3292618,-0.153167 0.3292618,-0.153167 0.3189133,-0.1525817 0.3086368,-0.1512389 0.2984839,-0.1491521 0.2885155,-0.1463144 0.278831,-0.1426226 0.2695137,-0.1380824 0.2606246,-0.1327533 0.2521627,-0.126768 0.2442104,-0.1201209 0.2368787,-0.1127951 0.2302153,-0.104857 0.2242244,-0.0963994 0.2190592,-0.087414 0.214742,-0.0779915 0.2112347,-0.0682385 0.2084326,-0.0582599 0.2084326,-0.0582599 0.2067365,-0.0483342 0.2059376,-0.0382933 0.2057342,-0.0181544 0.206525,0.0724669 0.0623392,0.0737252 0.0623392,0.0737252 0.0501308,0.0746167 0.0441849,0.0760386 0.0385847,0.0785297 0.0339712,0.0825203 0.0310726,0.0879008 0.0296626,0.093853 0.0294057,0.0999699 0.0294057,0.0999699 0.0297704,0.1056292 0.0310714,0.1111467 0.0336961,0.1161683 0.0375976,0.12028 0.0424067,0.1232689 0.0477895,0.1250674 0.0533873,0.1259543 0.0590533,0.1262228z M0.4008032,-0.0211514 L0.4016054,0.0707645 0.2589899,0.0720091 0.258154,-0.0237762 0.258154,-0.0237762 0.2591388,-0.0384902 0.2605102,-0.0457403 0.2624704,-0.0528537 0.265071,-0.0597575 0.2683042,-0.0663899 0.2722546,-0.0726211 0.2769253,-0.0783305 0.2821279,-0.083564 0.2879524,-0.0880904 0.2942178,-0.0919863 0.300887,-0.0951404 0.3078706,-0.097522 0.3150433,-0.0992474 0.3297197,-0.1007022 0.3297197,-0.1007022 0.3447046,-0.0994578 0.3520273,-0.0977398 0.3591542,-0.095334 0.3659038,-0.0920121 0.3722048,-0.0879083 0.377912,-0.0830052 0.3830156,-0.0774827 0.3874598,-0.0714118 0.3912458,-0.0649118 0.3942468,-0.0580162 0.3966151,-0.0508731 0.3984264,-0.0435744 0.3996325,-0.0361471 0.4008032,-0.0211514z" transform="matrix(1,0,0,-1,0.88646,0.88646)" fill="rgb(159,159,159)" fill-rule="nonzero" shaper:cutDepth="0.0000762" stroke-linecap="round" stroke-linejoin="round" /><path d="M0.0329041,0.5008455 L0.0329041,0.5008455 0.0333529,0.5059186 0.0346045,0.5108514 0.0366297,0.5155245 0.0395479,0.5196954 0.0432276,0.5232136 0.04753,0.5259345 0.0523775,0.5274884 0.0574362,0.5280667 0.0574362,0.5280667 0.0623419,0.5275916 0.067071,0.5261769 0.0763159,0.5227329 0.4365688,0.3829629 0.4365688,0.3829629 0.4445673,0.3790134 0.4481812,0.3763962 0.4513562,0.3732576 0.4538882,0.3695864 0.4556538,0.3654887 0.4565059,0.3611095 0.4564769,0.3566472 0.4564769,0.3566472 0.4562298,0.3512448 0.4550655,0.3459616 0.4527939,0.3410689 0.4492361,0.3369935 0.444913,0.3337509 0.4401976,0.331093 0.4302665,0.3268159 0.069007,0.1920914 0.069007,0.1920914 0.0618197,0.1904209 0.0544827,0.1896316 0.0544827,0.1896316 0.049442,0.1903149 0.0446616,0.1920492 0.0404094,0.194839 0.0368213,0.1984446 0.0340014,0.2026769 0.032,0.2073555 0.0307881,0.2122934 0.0304302,0.2173692 0.0304302,0.2173692 0.030578,0.2219753 0.0315362,0.2264809 0.0335253,0.2306355 0.0362844,0.2343303 0.0396487,0.2374702 0.0434824,0.2400405 0.0518287,0.2439204 0.1017634,0.2620013 0.1034349,0.4535378 0.0506869,0.4744559 0.0506869,0.4744559 0.043309,0.4786669 0.0400747,0.4814356 0.037329,0.4846859 0.0352588,0.4884034 0.0338261,0.4924105 0.0330321,0.4965909 0.0329041,0.5008455z M0.3545093,0.3562097 L0.1557271,0.4332879 0.1544122,0.2826124 0.3545093,0.3562097z" transform="matrix(1,0,0,-1,0.88646,0.88646)" fill="rgb(159,159,159)" fill-rule="nonzero" shaper:cutDepth="0.0000762" stroke-linecap="round" stroke-linejoin="round" /><path d="M-0.2169919,-0.4845514 L-0.2169919,-0.4845514 -0.223279,-0.4842182 -0.2292956,-0.4823821 -0.2344653,-0.4787998 -0.2382605,-0.4737922 -0.2406322,-0.4679565 -0.241994,-0.4618078 -0.2425487,-0.4492386 -0.2412895,-0.3049478 -0.4016397,-0.3035484 -0.4034163,-0.5071267 -0.4034163,-0.5071267 -0.4036273,-0.5158851 -0.4041006,-0.5202407 -0.4055067,-0.5243825 -0.4055067,-0.5243825 -0.4093425,-0.5314064 -0.4119701,-0.5344277 -0.4151091,-0.5369452 -0.4186319,-0.5388802 -0.4224103,-0.5402014 -0.4303196,-0.54144 -0.4303196,-0.54144 -0.4368832,-0.5410612 -0.4430927,-0.5389127 -0.448216,-0.5348183 -0.4518437,-0.5293323 -0.4541018,-0.523161 -0.4553539,-0.5166981 -0.455854,-0.5035655 -0.4539384,-0.2840628 -0.4539384,-0.2840628 -0.4537916,-0.2768412 -0.4528809,-0.2696769 -0.4506078,-0.2628246 -0.4487724,-0.259704 -0.4464011,-0.2569733 -0.4435177,-0.2547846 -0.4402778,-0.253179 -0.4332881,-0.2513345 -0.4261022,-0.2506975 -0.4188789,-0.250929 -0.0629307,-0.2539431 -0.0629307,-0.2539431 -0.0556841,-0.2540793 -0.0485141,-0.2550846 -0.0416339,-0.2573589 -0.0384943,-0.2591845 -0.0357581,-0.2615662 -0.0335746,-0.2644629 -0.0319154,-0.2676953 -0.0298981,-0.2746497 -0.0291461,-0.2818566 -0.0290589,-0.2891014 -0.0310774,-0.5098218 -0.0310774,-0.5098218 -0.0312641,-0.515796 -0.0320842,-0.5217057 -0.0336854,-0.5274694 -0.036363,-0.5327982 -0.0403513,-0.5372441 -0.0454963,-0.5402581 -0.0512568,-0.5418259 -0.0572241,-0.5421095 -0.0572241,-0.5421095 -0.063534,-0.5416943 -0.0695712,-0.539823 -0.0748158,-0.5363154 -0.0787387,-0.5313556 -0.0813024,-0.5255834 -0.0827847,-0.5194276 -0.0834297,-0.5131433 -0.0834278,-0.5068156 -0.0816783,-0.3063407 -0.1888246,-0.3054056 -0.1901054,-0.4521778 -0.1901054,-0.4521778 -0.1903015,-0.4582344 -0.1911359,-0.4642304 -0.1928526,-0.4700423 -0.1956579,-0.4754073 -0.1997969,-0.4798216 -0.2050757,-0.4827772 -0.2109397,-0.4842809 -0.2169919,-0.4845514z" transform="matrix(1,0,0,-1,0.88646,0.88646)" fill="rgb(159,159,159)" fill-rule="nonzero" shaper:cutDepth="0.0000762" stroke-linecap="round" stroke-linejoin="round" /></svg>