<?xml version="1.0" encoding="utf-8"?>
<!-- Generator: Fusion 360, Shaper Origin Export Add-In, Version 1.6.10  -->
<svg xmlns="http://www.w3.org/2000/svg" xmlns:xlink="http://www.w3.org/1999/xlink" xmlns:shaper="http://www.shapertools.com/namespaces/shaper" shaper:fusionaddin="version:1.6.10" width="1.3462cm" height="0.7366cm" version="1.1" x="0cm" y="0cm" viewBox="0 0 1.3462 0.7366" enable-background="new 0 0 1.3462 0.7366" xml:space="preserve"><path d="M-0.3669574,-0.2510771 L-0.3669574,0.4855229 0.9792426,0.4855229 0.9792426,-0.2510771 -0.3669574,-0.2510771z" transform="matrix(1,0,0,-1,0.3669574,0.4855229)" fill="rgb(0,0,0)" shaper:cutDepth="0.000127" stroke-linecap="round" stroke-linejoin="round" /><path d="M0.4853191,-0.0203248 L0.5915798,0.2608099 0.5915798,0.2608099 0.5946007,0.2670009 0.5990048,0.2724052 0.6018397,0.2743928 0.6050044,0.2756242 0.6119117,0.276472 0.6119117,0.276472 0.6202261,0.2754487 0.6240174,0.2736345 0.6272824,0.2709364 0.6298583,0.267624 0.6319117,0.2639545 0.6352909,0.2562894 0.7425246,-0.0237651 0.7425246,-0.0237651 0.7438717,-0.0293414 0.7445362,-0.0350446 0.7445362,-0.0350446 0.7427192,-0.0427069 0.7406245,-0.0460274 0.737791,-0.0488495 0.7345035,-0.0510945 0.730896,-0.0526534 0.7231266,-0.0539397 0.7231266,-0.0539397 0.7159978,-0.0529829 0.712756,-0.0516599 0.7098736,-0.0495496 0.7054111,-0.0438864 0.7023312,-0.0374772 0.68793,0.0012366 0.5389514,0.0012366 0.5230404,-0.03993 0.5230404,-0.03993 0.5197873,-0.0456666 0.5151677,-0.0503781 0.5122944,-0.0520371 0.5091926,-0.0530872 0.5026366,-0.0539397 0.5026366,-0.0539397 0.4948527,-0.0526881 0.4912333,-0.051144 0.4879363,-0.0489047 0.4851027,-0.0460738 0.4830255,-0.042737 0.4812989,-0.0350446 0.4812989,-0.0350446 0.4826748,-0.0275187 0.4853191,-0.0203248z M0.6715423,0.0420442 L0.6129441,0.1971698 0.5543458,0.0420442 0.6715423,0.0420442z" transform="matrix(1,0,0,-1,0.3669574,0.4855229)" fill="rgb(160,160,160)" fill-rule="nonzero" shaper:cutDepth="0.0000762" stroke-linecap="round" stroke-linejoin="round" /><path d="M0.172653,-0.0203248 L0.2789137,0.2608099 0.2789137,0.2608099 0.2819345,0.2670009 0.2863387,0.2724052 0.2891736,0.2743928 0.2923382,0.2756242 0.2992456,0.276472 0.2992456,0.276472 0.30756,0.2754487 0.3113513,0.2736345 0.3146163,0.2709364 0.3171921,0.267624 0.3192456,0.2639545 0.3226247,0.2562894 0.4298584,-0.0237651 0.4298584,-0.0237651 0.4312056,-0.0293414 0.4318701,-0.0350446 0.4318701,-0.0350446 0.4300531,-0.0427069 0.4279584,-0.0460274 0.4251248,-0.0488495 0.4218374,-0.0510945 0.4182298,-0.0526534 0.4104605,-0.0539397 0.4104605,-0.0539397 0.4033317,-0.0529829 0.4000899,-0.0516599 0.3972075,-0.0495496 0.3927449,-0.0438864 0.3896651,-0.0374772 0.3752638,0.0012366 0.2262852,0.0012366 0.2103743,-0.03993 0.2103743,-0.03993 0.2071211,-0.0456666 0.2025016,-0.0503781 0.1996283,-0.0520371 0.1965265,-0.0530872 0.1899705,-0.0539397 0.1899705,-0.0539397 0.1821865,-0.0526881 0.1785672,-0.051144 0.1752701,-0.0489047 0.1724366,-0.0460738 0.1703594,-0.042737 0.1686328,-0.0350446 0.1686328,-0.0350446 0.1700087,-0.0275187 0.172653,-0.0203248z M0.3588762,0.0420442 L0.3002779,0.1971698 0.2416797,0.0420442 0.3588762,0.0420442z" transform="matrix(1,0,0,-1,0.3669574,0.4855229)" fill="rgb(160,160,160)" fill-rule="nonzero" shaper:cutDepth="0.0000762" stroke-linecap="round" stroke-linejoin="round" /><path d="M-0.1400132,-0.0203248 L-0.0337525,0.2608099 -0.0337525,0.2608099 -0.0307316,0.2670009 -0.0263275,0.2724052 -0.0234925,0.2743928 -0.0203279,0.2756242 -0.0134205,0.276472 -0.0134205,0.276472 -0.0051062,0.2754487 -0.0013148,0.2736345 0.0019502,0.2709364 0.004526,0.267624 0.0065795,0.2639545 0.0099586,0.2562894 0.1171923,-0.0237651 0.1171923,-0.0237651 0.1185394,-0.0293414 0.1192039,-0.0350446 0.1192039,-0.0350446 0.1173869,-0.0427069 0.1152922,-0.0460274 0.1124587,-0.0488495 0.1091713,-0.0510945 0.1055637,-0.0526534 0.0977943,-0.0539397 0.0977943,-0.0539397 0.0906655,-0.0529829 0.0874237,-0.0516599 0.0845413,-0.0495496 0.0800788,-0.0438864 0.0769989,-0.0374772 0.0625977,0.0012366 -0.0863809,0.0012366 -0.1022919,-0.03993 -0.1022919,-0.03993 -0.105545,-0.0456666 -0.1101646,-0.0503781 -0.1130378,-0.0520371 -0.1161396,-0.0530872 -0.1226956,-0.0539397 -0.1226956,-0.0539397 -0.1304796,-0.0526881 -0.134099,-0.051144 -0.137396,-0.0489047 -0.1402296,-0.0460738 -0.1423068,-0.042737 -0.1440334,-0.0350446 -0.1440334,-0.0350446 -0.1426574,-0.0275187 -0.1400132,-0.0203248z M0.04621,0.0420442 L-0.0123882,0.1971698 -0.0709864,0.0420442 0.04621,0.0420442z" transform="matrix(1,0,0,-1,0.3669574,0.4855229)" fill="rgb(160,160,160)" fill-rule="nonzero" shaper:cutDepth="0.0000762" stroke-linecap="round" stroke-linejoin="round" /></svg>