<?xml version="1.0" encoding="utf-8"?>
<!-- Generator: Fusion 360, Shaper Origin Export Add-In, Version 1.6.10  -->
<svg xmlns="http://www.w3.org/2000/svg" xmlns:xlink="http://www.w3.org/1999/xlink" xmlns:shaper="http://www.shapertools.com/namespaces/shaper" shaper:fusionaddin="version:1.6.10" width="1.3462cm" height="0.7366cm" version="1.1" x="0cm" y="0cm" viewBox="0 0 1.3462 0.7366" enable-background="new 0 0 1.3462 0.7366" xml:space="preserve"><path d="M-0.6110712,-0.1798118 L-0.6110712,0.5567882 0.7351288,0.5567882 0.7351288,-0.1798118 -0.6110712,-0.1798118z" transform="matrix(1,0,0,-1,0.6110712,0.5567882)" fill="rgb(0,0,0)" shaper:cutDepth="0.000127" stroke-linecap="round" stroke-linejoin="round" /><path d="M-0.098615,0.0399792 L-0.0986868,0.3241005 -0.0986868,0.3241005 -0.0983759,0.3319463 -0.0963159,0.339547 -0.0963159,0.339547 -0.0930328,0.3429156 -0.0893183,0.345495 -0.0849775,0.346929 -0.0802947,0.3477372 -0.0802947,0.3477372 -0.0761957,0.3474077 -0.0723047,0.3464221 -0.0688425,0.3442979 -0.0660797,0.3412457 -0.0642165,0.3376251 -0.0631349,0.3337026 -0.0624054,0.325638 -0.0624054,0.0399565 -0.0624054,0.0399565 -0.0626596,0.0326486 -0.0643452,0.0255158 -0.0643452,0.0255158 -0.0675853,0.0221125 -0.0712729,0.0195211 -0.0756074,0.0181034 -0.0802947,0.0173256 -0.0802947,0.0173256 -0.0854684,0.0181427 -0.0900847,0.0199719 -0.0938893,0.0232748 -0.0972499,0.0273838 -0.0972499,0.0273838 -0.0986592,0.0335922 -0.098615,0.0399792z" transform="matrix(1,0,0,-1,0.6110712,0.5567882)" fill="rgb(160,160,160)" fill-rule="nonzero" shaper:cutDepth="0.0000762" stroke-linecap="round" stroke-linejoin="round" /><path d="M0.188331,0.2487359 L0.188331,0.2487359 0.1812144,0.2496817 0.1780011,0.25104 0.1751784,0.2532224 0.1728263,0.2559891 0.1710063,0.2590802 0.1684301,0.2656911 0.1684301,0.2656911 0.1659917,0.2743249 0.1624844,0.2825799 0.1575936,0.2901001 0.1513803,0.2965689 0.1439081,0.3015214 0.1355735,0.3048392 0.1267918,0.3066715 0.1178386,0.3072285 0.1153556,0.3072285 0.0904791,0.3067142 0.0904791,0.3067142 0.0814232,0.3056713 0.0726159,0.3033177 0.0643837,0.2994089 0.0570962,0.2939366 0.0510794,0.2870872 0.0467629,0.2790676 0.0442285,0.2703083 0.0433493,0.2612368 0.0433493,0.2612368 0.0438271,0.2548753 0.045053,0.2486293 0.0471798,0.2426078 0.0500882,0.236936 0.0537966,0.2317519 0.0582199,0.2271408 0.063324,0.2233432 0.0689258,0.2202856 0.0689258,0.2202856 0.077532,0.2176731 0.0863326,0.2157995 0.1399798,0.2047672 0.1399798,0.2047672 0.1559116,0.2000554 0.1635698,0.1968266 0.1709576,0.1930195 0.1779973,0.1886034 0.1846204,0.1835819 0.1907294,0.1779486 0.1963422,0.1718191 0.2013822,0.1652104 0.2058256,0.1581892 0.2095549,0.1507602 0.2126347,0.1430423 0.2149418,0.1350587 0.2166091,0.1269159 0.2176068,0.1186655 0.2180026,0.1103639 0.2180026,0.1103639 0.2174872,0.1009306 0.2161824,0.0915746 0.2140231,0.0823772 0.2109535,0.0734438 0.2069715,0.0648781 0.202016,0.0568363 0.1961646,0.0494206 0.1895505,0.042676 0.1822794,0.0366453 0.1744024,0.0314327 0.1660131,0.0270893 0.1572582,0.0235406 0.1481999,0.0208609 0.1389346,0.019014 0.1201249,0.0173256 0.0878209,0.0173256 0.0878209,0.0173256 0.0773339,0.0177309 0.0669059,0.018909 0.0566077,0.0209324 0.0465104,0.0237916 0.0465104,0.0237916 0.0351162,0.0296695 0.0247472,0.0371979 0.0156055,0.0461798 0.0079173,0.0564344 0.0017053,0.0676454 -0.002846,0.0796271 -0.0056779,0.092125 -0.0067262,0.1049037 -0.0067262,0.1049037 -0.0055777,0.1148407 -0.0039626,0.1195928 -0.0015931,0.1240228 0.0016248,0.1278816 0.0057181,0.1308316 0.010412,0.1324894 0.0154019,0.1332103 0.0154019,0.1332103 0.0230906,0.1315965 0.0264735,0.1296186 0.0293809,0.1268892 0.0317115,0.1236704 0.0333337,0.1201002 0.0346502,0.1123545 0.0345843,0.1083522 0.0345843,0.1083522 0.0341532,0.1038979 0.0341532,0.1038979 0.0349806,0.0965034 0.0369634,0.0893319 0.0401227,0.0825953 0.044238,0.0763964 0.0491438,0.0708022 0.0547674,0.0659301 0.0611103,0.0620403 0.0679919,0.0592108 0.0679919,0.0592108 0.0780762,0.0574891 0.088316,0.0572324 0.1179236,0.0571991 0.1179236,0.0571991 0.1283401,0.0578265 0.1386866,0.0592108 0.1386866,0.0592108 0.146859,0.0620299 0.1543884,0.0662841 0.1610147,0.0718337 0.1666304,0.07841 0.171152,0.0857787 0.1744496,0.0937703 0.1764666,0.1021798 0.1771951,0.1107949 0.1771951,0.1107949 0.176643,0.1180757 0.1751731,0.125223 0.1727193,0.1321024 0.1694051,0.1386061 0.1652908,0.1446374 0.1604057,0.150066 0.1547537,0.1546821 0.1485293,0.1584995 0.1485293,0.1584995 0.1393502,0.1618247 0.1298237,0.1640004 0.0763976,0.1753829 0.0763976,0.1753829 0.0665484,0.1776672 0.0568743,0.1806008 0.0475836,0.1845868 0.0388949,0.1897517 0.0388949,0.1897517 0.0307243,0.1960423 0.0235046,0.203402 0.0172892,0.2116301 0.0121076,0.2205449 0.008004,0.2300048 0.0049759,0.239862 0.0031716,0.2500134 0.0024699,0.2603028 0.0024699,0.2603028 0.0030016,0.2686725 0.0041459,0.2769793 0.0061136,0.2851319 0.0088295,0.2930658 0.0123722,0.3006654 0.0166724,0.3078656 0.0216852,0.314588 0.0273634,0.3207589 0.0335966,0.3263681 0.0403679,0.3313166 0.0475605,0.3356265 0.0551648,0.3391619 0.0630847,0.3419181 0.0712132,0.343981 0.0878218,0.3462508 0.119825,0.347809 0.1227372,0.3477372 0.1227372,0.3477372 0.1339718,0.3470085 0.1450173,0.3448557 0.1556621,0.3411991 0.1657526,0.336212 0.1751151,0.329965 0.1835732,0.3225393 0.1909486,0.3140395 0.1972396,0.3047025 0.1972396,0.3047025 0.2015781,0.296619 0.2051009,0.2881501 0.207628,0.2793272 0.2086629,0.2702173 0.2086629,0.2702173 0.2073266,0.2620915 0.2056443,0.2583294 0.2031809,0.2549769 0.2000523,0.2522194 0.1964207,0.2502752 0.188331,0.2487359z" transform="matrix(1,0,0,-1,0.6110712,0.5567882)" fill="rgb(160,160,160)" fill-rule="nonzero" shaper:cutDepth="0.0000762" stroke-linecap="round" stroke-linejoin="round" /><path d="M-0.27884,0.0173256 L-0.3489921,0.0173256 -0.3489921,0.0173256 -0.3548651,0.0175179 -0.3606725,0.0184059 -0.366147,0.0206234 -0.3705683,0.0245066 -0.3730923,0.0298068 -0.374311,0.0355968 -0.3744969,0.0473183 -0.3745687,0.322017 -0.3745687,0.322017 -0.3743945,0.3273857 -0.3735372,0.3326922 -0.3715093,0.3376855 -0.3681375,0.3418862 -0.3636935,0.3449444 -0.3586213,0.3467442 -0.347946,0.347809 -0.279878,0.3477372 -0.279878,0.3477372 -0.268342,0.34735 -0.256886,0.3459637 -0.2456254,0.343437 -0.2346616,0.3398355 -0.2241898,0.334988 -0.2143088,0.3290261 -0.205082,0.3220968 -0.1966105,0.3142578 -0.1966105,0.3142578 -0.184817,0.3009886 -0.174653,0.2864394 -0.166191,0.2708382 -0.1596575,0.2543358 -0.1549836,0.2372125 -0.1519704,0.2197174 -0.1503286,0.2020408 -0.1498399,0.1842916 -0.1498399,0.1842916 -0.1506258,0.1586883 -0.1519077,0.1459431 -0.1539705,0.1333015 -0.157029,0.1208641 -0.1611261,0.1087286 -0.1660594,0.0969085 -0.1718961,0.0855058 -0.1718961,0.0855058 -0.1804463,0.0710633 -0.1903824,0.0575415 -0.201908,0.0453484 -0.2082745,0.0398789 -0.2150632,0.0349432 -0.2222618,0.0306273 -0.2297755,0.0268865 -0.2375689,0.0237715 -0.2455996,0.0213311 -0.262083,0.0182053 -0.27884,0.0173256z M-0.1906474,0.1748081 L-0.1906474,0.1748081 -0.1909466,0.2102643 -0.1915341,0.2191121 -0.1929569,0.2278586 -0.1954152,0.2363763 -0.1986221,0.2446407 -0.1986221,0.2446407 -0.2024555,0.2532101 -0.2068443,0.261508 -0.2118434,0.2694537 -0.2174282,0.2769987 -0.2236244,0.2840501 -0.2304135,0.2905321 -0.2378394,0.2962757 -0.2459675,0.3009666 -0.2459675,0.3009666 -0.2535849,0.3043336 -0.2617149,0.30614 -0.2783414,0.3070014 -0.3336893,0.3070014 -0.3336893,0.0581331 -0.2788721,0.0581331 -0.2788721,0.0581331 -0.2659802,0.0586622 -0.2532823,0.0609377 -0.24719,0.0630602 -0.2414136,0.0659498 -0.2360237,0.0694962 -0.2310239,0.0735796 -0.2310239,0.0735796 -0.2241347,0.0801291 -0.2178725,0.0872827 -0.2122143,0.0949216 -0.2072501,0.1030284 -0.2028698,0.1114653 -0.1991298,0.1202057 -0.1960505,0.1291994 -0.193593,0.1383831 -0.193593,0.1383831 -0.1915781,0.1473286 -0.190749,0.1564636 -0.1906474,0.1748081z" transform="matrix(1,0,0,-1,0.6110712,0.5567882)" fill="rgb(160,160,160)" fill-rule="nonzero" shaper:cutDepth="0.0000762" stroke-linecap="round" stroke-linejoin="round" /><path d="M0.3021703,0.347809 L0.3830289,0.3477372 0.3830289,0.3477372 0.4034407,0.3467282 0.4134806,0.3448165 0.4232616,0.341846 0.4232616,0.341846 0.4364464,0.3358793 0.4485929,0.3280111 0.4541592,0.3233758 0.4593127,0.3182886 0.4683139,0.3069513 0.4754866,0.2943791 0.4806045,0.2808421 0.4836353,0.2666912 0.4846885,0.2522562 0.4846885,0.2522562 0.48333,0.2362016 0.4817746,0.2282918 0.4796347,0.2205199 0.4768307,0.212962 0.4733603,0.2056862 0.4692801,0.1987338 0.4646791,0.1921142 0.4595644,0.1858836 0.4539159,0.1801324 0.4477893,0.1748935 0.4412494,0.1701796 0.4342973,0.1661 0.4269984,0.162678 0.4116947,0.1576374 0.4116947,0.1576374 0.4039854,0.1562507 0.3961827,0.1555614 0.380521,0.1552664 0.3100351,0.1552664 0.3100351,0.0431177 0.3100351,0.0431177 0.3094159,0.0336571 0.3083643,0.0290265 0.3064551,0.0246234 0.3034079,0.0210044 0.2992332,0.0186817 0.294587,0.0176172 0.2898469,0.0173256 0.2898469,0.0173256 0.2854238,0.0176204 0.2811597,0.0185393 0.2772431,0.020561 0.2739807,0.0235764 0.2716374,0.0273189 0.2701943,0.0314879 0.2692275,0.0402057 0.2691557,0.3177782 0.2691557,0.3177782 0.2692082,0.32444 0.2700826,0.3310371 0.2723117,0.3373451 0.274141,0.3401289 0.2765226,0.3424805 0.28238,0.3456772 0.2888774,0.3471918 0.3021703,0.347809z M0.3100351,0.196074 L0.3845376,0.196074 0.3845376,0.196074 0.3959714,0.196936 0.4071194,0.1996272 0.4176099,0.2042573 0.4224245,0.2073728 0.426839,0.211043 0.4308667,0.2151339 0.434374,0.2196712 0.4373336,0.2245926 0.4397517,0.2297958 0.4428356,0.240838 0.4438809,0.2522562 0.4438809,0.2522562 0.442788,0.2638939 0.4414414,0.2695912 0.4395063,0.2751119 0.4368895,0.2803458 0.4336256,0.2852036 0.4297877,0.2896204 0.4254552,0.2935535 0.420709,0.2969753 0.4156157,0.2998563 0.4046682,0.3039469 0.3931971,0.3062024 0.381528,0.3070014 0.3100351,0.3070014 0.3100351,0.196074z" transform="matrix(1,0,0,-1,0.6110712,0.5567882)" fill="rgb(160,160,160)" fill-rule="nonzero" shaper:cutDepth="0.0000762" stroke-linecap="round" stroke-linejoin="round" /></svg>