<?xml version="1.0" encoding="utf-8"?>
<!-- Generator: Fusion 360, Shaper Origin Export Add-In, Version 1.6.10  -->
<svg xmlns="http://www.w3.org/2000/svg" xmlns:xlink="http://www.w3.org/1999/xlink" xmlns:shaper="http://www.shapertools.com/namespaces/shaper" shaper:fusionaddin="version:1.6.10" width="1.3462cm" height="0.7366cm" version="1.1" x="0cm" y="0cm" viewBox="0 0 1.3462 0.7366" enable-background="new 0 0 1.3462 0.7366" xml:space="preserve"><path d="M-0.3619447,-0.2491577 L-0.3619447,0.4874423 0.9842553,0.4874423 0.9842553,-0.2491577 -0.3619447,-0.2491577z" transform="matrix(1,0,0,-1,0.3619447,0.4874423)" fill="rgb(0,0,0)" shaper:cutDepth="0.000127" stroke-linecap="round" stroke-linejoin="round" /><path d="M0.7022035,-0.0520203 L0.7022035,-0.0520203 0.696601,-0.0513135 0.6911737,-0.0496122 0.6865816,-0.0463875 0.6830211,-0.0419621 0.6830211,-0.0419621 0.6817337,-0.0345468 0.681584,-0.0270114 0.681584,0.1800688 0.6208758,0.0792391 0.6208758,0.0792391 0.6167852,0.0727879 0.6120813,0.0667694 0.6090643,0.0643457 0.6056218,0.0626933 0.5980293,0.0618528 0.5980293,0.0618528 0.5911896,0.0626469 0.5880969,0.0638697 0.5853418,0.0658525 0.5808001,0.0710702 0.5771451,0.076777 0.5154803,0.1800688 0.5154803,-0.0260846 0.5154803,-0.0260846 0.5152156,-0.0336118 0.5134686,-0.0409563 0.5134686,-0.0409563 0.5101801,-0.0457087 0.5057118,-0.0492631 0.5002622,-0.0512049 0.4945736,-0.0520203 0.4945736,-0.0520203 0.4897343,-0.0517189 0.4851275,-0.0503992 0.4811281,-0.0476372 0.4782188,-0.043788 0.4763412,-0.0393232 0.4752442,-0.0346292 0.4746727,-0.025025 0.4746009,0.2515216 0.4746009,0.2515216 0.4752786,0.2610488 0.4765407,0.265667 0.4787168,0.269955 0.4819276,0.273509 0.4860863,0.2759318 0.490719,0.277081 0.4955076,0.2773855 0.4955076,0.2773855 0.5015036,0.2763896 0.5041632,0.275168 0.5064894,0.2732906 0.5103318,0.2685386 0.5135359,0.2634968 0.5985289,0.1224638 0.683524,0.2653157 0.683524,0.2653157 0.6870815,0.2704135 0.6914611,0.2749697 0.6940715,0.2766705 0.6969493,0.2777151 0.7032093,0.2783913 0.7032093,0.2783913 0.7074209,0.2782508 0.7115185,0.2775109 0.7153324,0.2757012 0.7184672,0.2728749 0.720582,0.269254 0.7217708,0.2652001 0.7223916,0.2568679 0.7223199,-0.0294612 0.7223199,-0.0294612 0.7211583,-0.0379024 0.7197373,-0.0419453 0.7174914,-0.0455937 0.7143697,-0.048569 0.7106071,-0.0506126 0.7064884,-0.0516125 0.7022035,-0.0520203z" transform="matrix(1,0,0,-1,0.3619447,0.4874423)" fill="rgb(160,160,160)" fill-rule="nonzero" shaper:cutDepth="0.0000762" stroke-linecap="round" stroke-linejoin="round" /><path d="M0.1661705,-0.0184054 L0.2724312,0.2627293 0.2724312,0.2627293 0.2754521,0.2689203 0.2798562,0.2743246 0.2826911,0.2763122 0.2858558,0.2775435 0.2927631,0.2783913 0.2927631,0.2783913 0.3010775,0.2773681 0.3048688,0.2755538 0.3081338,0.2728558 0.3107097,0.2695433 0.3127631,0.2658738 0.3161423,0.2582087 0.423376,-0.0218457 0.423376,-0.0218457 0.4247231,-0.0274221 0.4253876,-0.0331253 0.4253876,-0.0331253 0.4235706,-0.0407875 0.4214759,-0.044108 0.4186424,-0.0469302 0.4153549,-0.0491751 0.4117474,-0.0507341 0.403978,-0.0520203 0.403978,-0.0520203 0.3968492,-0.0510636 0.3936074,-0.0497406 0.390725,-0.0476303 0.3862625,-0.041967 0.3831826,-0.0355579 0.3687814,0.003156 0.2198028,0.003156 0.2038918,-0.0380107 0.2038918,-0.0380107 0.2006387,-0.0437472 0.1960191,-0.0484587 0.1931458,-0.0501177 0.190044,-0.0511678 0.183488,-0.0520203 0.183488,-0.0520203 0.1757041,-0.0507687 0.1720847,-0.0492246 0.1687877,-0.0469853 0.1659541,-0.0441545 0.1638769,-0.0408176 0.1621503,-0.0331253 0.1621503,-0.0331253 0.1635262,-0.0255993 0.1661705,-0.0184054z M0.3523937,0.0439636 L0.2937955,0.1990892 0.2351972,0.0439636 0.3523937,0.0439636z" transform="matrix(1,0,0,-1,0.3619447,0.4874423)" fill="rgb(160,160,160)" fill-rule="nonzero" shaper:cutDepth="0.0000762" stroke-linecap="round" stroke-linejoin="round" /><path d="M0.08111,0.17939 L0.08111,0.17939 0.0739935,0.1803358 0.0707801,0.1816941 0.0679575,0.1838765 0.0656053,0.1866432 0.0637854,0.1897343 0.0612091,0.1963452 0.0612091,0.1963452 0.0587707,0.204979 0.0552635,0.213234 0.0503726,0.2207542 0.0441593,0.227223 0.0366871,0.2321755 0.0283525,0.2354933 0.0195709,0.2373256 0.0106176,0.2378826 0.0081346,0.2378826 -0.0167419,0.2373683 -0.0167419,0.2373683 -0.0257977,0.2363254 -0.0346051,0.2339718 -0.0428373,0.230063 -0.0501248,0.2245907 -0.0561416,0.2177413 -0.060458,0.2097217 -0.0629925,0.2009624 -0.0638717,0.1918909 -0.0638717,0.1918909 -0.0633938,0.1855294 -0.062168,0.1792834 -0.0600412,0.1732619 -0.0571327,0.1675901 -0.0534244,0.162406 -0.049001,0.1577949 -0.043897,0.1539973 -0.0382951,0.1509397 -0.0382951,0.1509397 -0.029689,0.1483272 -0.0208884,0.1464536 0.0327588,0.1354213 0.0327588,0.1354213 0.0486907,0.1307095 0.0563489,0.1274807 0.0637366,0.1236736 0.0707763,0.1192575 0.0773995,0.114236 0.0835084,0.1086027 0.0891213,0.1024732 0.0941612,0.0958645 0.0986046,0.0888433 0.1023339,0.0814143 0.1054138,0.0736964 0.1077208,0.0657128 0.1093881,0.05757 0.1103859,0.0493196 0.1107817,0.041018 0.1107817,0.041018 0.1102663,0.0315847 0.1089614,0.0222287 0.1068021,0.0130313 0.1037325,0.0040979 0.0997505,-0.0044678 0.0947951,-0.0125096 0.0889437,-0.0199253 0.0823296,-0.0266699 0.0750584,-0.0327006 0.0671814,-0.0379132 0.0587921,-0.0422566 0.0500372,-0.0458053 0.040979,-0.0484849 0.0317137,-0.0503319 0.0129039,-0.0520203 -0.0194001,-0.0520203 -0.0194001,-0.0520203 -0.029887,-0.051615 -0.0403151,-0.0504369 -0.0506133,-0.0484135 -0.0607105,-0.0455543 -0.0607105,-0.0455543 -0.0721028,-0.039673 -0.0824734,-0.0321472 -0.0916159,-0.023166 -0.099305,-0.0129121 -0.1055159,-0.0017007 -0.1100663,0.0102813 -0.1128954,0.0227797 -0.1139471,0.0355578 -0.1139471,0.0355578 -0.1127986,0.0454948 -0.1111835,0.0502469 -0.108814,0.0546769 -0.1055961,0.0585357 -0.1015029,0.0614857 -0.0968089,0.0631435 -0.0918191,0.0638644 -0.0918191,0.0638644 -0.0841303,0.0622506 -0.0807474,0.0602727 -0.0778401,0.0575433 -0.0755094,0.0543245 -0.0738873,0.0507543 -0.0725708,0.0430086 -0.0726367,0.0390063 -0.0726367,0.0390063 -0.0730677,0.034552 -0.0730677,0.034552 -0.0722403,0.0271575 -0.0702575,0.019986 -0.0670983,0.0132494 -0.0629829,0.0070505 -0.0580771,0.0014563 -0.0524535,-0.0034158 -0.0461107,-0.0073056 -0.0392291,-0.0101351 -0.0392291,-0.0101351 -0.0291448,-0.0118568 -0.018905,-0.0121135 0.0107026,-0.0121468 0.0107026,-0.0121468 0.0211191,-0.0115194 0.0314656,-0.0101351 0.0314656,-0.0101351 0.039638,-0.007316 0.0471674,-0.0030618 0.0537937,0.0024878 0.0594095,0.0090641 0.0639311,0.0164328 0.0672286,0.0244244 0.0692456,0.0328339 0.0699741,0.041449 0.0699741,0.041449 0.069422,0.0487298 0.0679521,0.0558771 0.0654984,0.0627565 0.0621841,0.0692602 0.0580699,0.0752915 0.0531848,0.0807201 0.0475327,0.0853362 0.0413083,0.0891536 0.0413083,0.0891536 0.0321292,0.0924788 0.0226028,0.0946545 -0.0308233,0.106037 -0.0308233,0.106037 -0.0406725,0.1083213 -0.0503466,0.1112549 -0.0596374,0.1152409 -0.068326,0.1204059 -0.068326,0.1204059 -0.0764967,0.1266964 -0.0837163,0.1340561 -0.0899318,0.1422842 -0.0951133,0.151199 -0.0992169,0.1606589 -0.102245,0.1705161 -0.1040493,0.1806675 -0.104751,0.1909569 -0.104751,0.1909569 -0.1042194,0.1993266 -0.103075,0.2076334 -0.1011074,0.215786 -0.0983915,0.2237199 -0.0948487,0.2313195 -0.0905485,0.2385197 -0.0855358,0.2452421 -0.0798576,0.251413 -0.0736244,0.2570222 -0.0668531,0.2619707 -0.0596604,0.2662806 -0.0520561,0.269816 -0.0441363,0.2725722 -0.0360077,0.2746351 -0.0193991,0.2769049 0.012604,0.2784631 0.0155162,0.2783913 0.0155162,0.2783913 0.0267508,0.2776626 0.0377964,0.2755098 0.0484412,0.2718532 0.0585316,0.2668661 0.0678942,0.2606191 0.0763522,0.2531934 0.0837276,0.2446936 0.0900187,0.2353566 0.0900187,0.2353566 0.0943632,0.2272774 0.0978694,0.2188005 0.1004124,0.2099867 0.1014419,0.2008714 0.1014419,0.2008714 0.1001057,0.1927456 0.0984233,0.1889835 0.0959599,0.185631 0.0928313,0.1828735 0.0891997,0.1809293 0.08111,0.17939z" transform="matrix(1,0,0,-1,0.3619447,0.4874423)" fill="rgb(160,160,160)" fill-rule="nonzero" shaper:cutDepth="0.0000762" stroke-linecap="round" stroke-linejoin="round" /></svg>