<?xml version="1.0" encoding="utf-8"?>
<!-- Generator: Fusion 360, Shaper Origin Export Add-In, Version 1.6.10  -->
<svg xmlns="http://www.w3.org/2000/svg" xmlns:xlink="http://www.w3.org/1999/xlink" xmlns:shaper="http://www.shapertools.com/namespaces/shaper" shaper:fusionaddin="version:1.6.10" width="1.3462cm" height="0.7366cm" version="1.1" x="0cm" y="0cm" viewBox="0 0 1.3462 0.7366" enable-background="new 0 0 1.3462 0.7366" xml:space="preserve"><path d="M-0.4756203,-0.3682686 L-0.4756203,0.3683314 0.8705797,0.3683314 0.8705797,-0.3682686 -0.4756203,-0.3682686z" transform="matrix(1,0,0,-1,0.4756203,0.3683314)" fill="rgb(0,0,0)" shaper:cutDepth="0.000127" stroke-linecap="round" stroke-linejoin="round" /><path d="M0.7117932,0.135659 L0.7117932,0.135659 0.7160962,0.1354326 0.7203144,0.1345547 0.7241195,0.1325396 0.7271353,0.1294772 0.7290539,0.1256201 0.7301043,0.1214391 0.7307659,0.1128512 0.7307395,-0.1497371 0.7307395,-0.1497371 0.7298648,-0.1577687 0.7285981,-0.1616104 0.7266316,-0.1651459 0.7237852,-0.1680128 0.7202135,-0.1699042 0.7162995,-0.1709181 0.7122601,-0.1711518 0.7122601,-0.1711518 0.706745,-0.1706525 0.7016241,-0.1685584 0.6974279,-0.1649548 0.6943371,-0.1603584 0.5941387,0.0399024 0.5941123,-0.1492701 0.5941123,-0.1492701 0.5931371,-0.1575398 0.591821,-0.1614971 0.5896788,-0.1650687 0.5866668,-0.1679464 0.582971,-0.1698673 0.5789248,-0.1708626 0.5747657,-0.1711518 0.5747657,-0.1711518 0.5702901,-0.1709021 0.5659544,-0.1697755 0.5621364,-0.1674396 0.5593706,-0.1639303 0.5577229,-0.1597585 0.556827,-0.1553672 0.5563266,-0.1464192 0.5562863,0.1119094 0.5562863,0.1119094 0.5566235,0.1218183 0.5577586,0.1266369 0.5608895,0.1304555 0.5608895,0.1304555 0.5636201,0.1327871 0.5667796,0.1344925 0.5702487,0.135415 0.5738317,0.135659 0.5738317,0.135659 0.5796419,0.1352575 0.5849896,0.1329604 0.5891954,0.1289377 0.5922942,0.1240026 0.6929537,-0.0748643 0.6929135,0.1111088 0.6929135,0.1111088 0.6934254,0.1201273 0.6943525,0.1245575 0.6960615,0.128736 0.6989501,0.1322054 0.7028901,0.1343979 0.707275,0.1354868 0.7117932,0.135659z" transform="matrix(1,0,0,-1,0.4756203,0.3683314)" fill="rgb(160,160,160)" fill-rule="nonzero" shaper:cutDepth="0.0000762" stroke-linecap="round" stroke-linejoin="round" /><path d="M0.1474667,0.1059053 L0.1474667,0.1059053 0.1572158,0.0928673 0.1654115,0.078797 0.172034,0.063927 0.1770136,0.0484244 0.1805151,0.0325253 0.1827934,0.0164007 0.184034,0.0001683 0.1843587,-0.0161119 0.1843587,-0.0161119 0.1836959,-0.0400982 0.1827143,-0.0520595 0.1810581,-0.0639424 0.1786452,-0.0756977 0.1754326,-0.0872581 0.1714836,-0.0985897 0.1668133,-0.1096429 0.1668133,-0.1096429 0.1606523,-0.121813 0.1534755,-0.1334124 0.1451237,-0.1441942 0.1353663,-0.153718 0.1299494,-0.1578686 0.1241802,-0.1615022 0.1180829,-0.1645673 0.111722,-0.1670243 0.1051741,-0.1689432 0.0984744,-0.1702215 0.084872,-0.1711518 0.032521,-0.1711518 0.032521,-0.1711518 0.027153,-0.1709276 0.0218697,-0.1699865 0.0169,-0.1679584 0.0147553,-0.1663303 0.0130316,-0.164268 0.0109561,-0.1593245 0.0100241,-0.1540287 0.0099458,-0.1433014 0.0099055,0.111776 0.0099055,0.111776 0.0099193,0.1166777 0.0105946,0.1215318 0.0123171,0.1261173 0.0151966,0.1300775 0.0191411,0.1329765 0.0237316,0.1346922 0.0334631,0.1357257 0.0838897,0.135659 0.0838897,0.135659 0.0929554,0.1352231 0.1019297,0.1338708 0.1106918,0.1315055 0.1191365,0.1281812 0.1270934,0.1238163 0.1344995,0.1185695 0.141323,0.1125866 0.1474667,0.1059053z M0.0477579,0.0978329 L0.0477579,-0.1332591 0.0843567,-0.1332591 0.0843567,-0.1332591 0.0943348,-0.1327156 0.0992401,-0.1317475 0.1039851,-0.1301742 0.1084196,-0.1278683 0.1124078,-0.1248535 0.1191806,-0.1175149 0.1191806,-0.1175149 0.1283614,-0.103948 0.1355653,-0.0892348 0.1409674,-0.073769 0.1446648,-0.0578072 0.1446648,-0.0578072 0.1460093,-0.0487381 0.146499,-0.0395857 0.1465327,-0.0212488 0.1465327,-0.0212488 0.1461611,0.0089067 0.1446941,0.0239078 0.1409956,0.0385256 0.1409956,0.0385256 0.135836,0.053431 0.1289709,0.0676315 0.1248621,0.0743691 0.1202305,0.0807544 0.1149634,0.086631 0.1089736,0.0917622 0.1089736,0.0917622 0.1034671,0.0948655 0.0974592,0.096826 0.084872,0.0978329 0.0477579,0.0978329z" transform="matrix(1,0,0,-1,0.4756203,0.3683314)" fill="rgb(160,160,160)" fill-rule="nonzero" shaper:cutDepth="0.0000762" stroke-linecap="round" stroke-linejoin="round" /><path d="M-0.0071969,0.0977663 L-0.0071969,0.0977663 -0.0010362,0.0888916 0.0010867,0.0839269 0.0016091,0.0785531 0.0016091,0.0785531 0.0003757,0.0710145 -0.001223,0.0675324 -0.0035337,0.0644788 -0.0064498,0.0619956 -0.0098352,0.0602052 -0.0135237,0.0591739 -0.0173372,0.0588062 -0.0173372,0.0588062 -0.0230011,0.0593348 -0.028148,0.0617585 -0.0321774,0.0657746 -0.0352829,0.0705476 -0.0352829,0.0705476 -0.0417539,0.0804675 -0.0497575,0.0891809 -0.054459,0.0927684 -0.0596776,0.0955785 -0.0653403,0.097286 -0.0712409,0.0977663 -0.0712409,0.0977663 -0.0800155,0.0963013 -0.088239,0.0928966 -0.0956519,0.0879697 -0.1022259,0.0819653 -0.1079358,0.0751342 -0.1129411,0.0677659 -0.1174394,0.0600816 -0.1213935,0.0521003 -0.1276986,0.0354527 -0.1321563,0.0182158 -0.1347373,0.0005959 -0.1358186,-0.0171793 -0.1358186,-0.0171793 -0.134738,-0.0349936 -0.1321749,-0.0526555 -0.1278639,-0.0699707 -0.1216852,-0.0867116 -0.1134616,-0.1025457 -0.1085453,-0.1099931 -0.1029082,-0.1169126 -0.0964595,-0.1230785 -0.08916,-0.1282051 -0.0809537,-0.1316948 -0.0721749,-0.1332591 -0.0721749,-0.1332591 -0.0654525,-0.1327409 -0.0590066,-0.1307616 -0.0531368,-0.1274421 -0.0479854,-0.1230903 -0.0434357,-0.1181064 -0.0393573,-0.1127328 -0.0320807,-0.1013705 -0.0320807,-0.1013705 -0.0291449,-0.0979423 -0.0252377,-0.0956504 -0.0209113,-0.09437 -0.0164032,-0.0939654 -0.0164032,-0.0939654 -0.009193,-0.0952791 -0.005924,-0.0969502 -0.0030896,-0.0992835 -0.0009676,-0.1022824 0.0004586,-0.1056654 0.0016091,-0.1129118 0.0016091,-0.1129118 0.0014851,-0.1167547 0.0004039,-0.120434 -0.0035419,-0.127024 -0.0122671,-0.1396635 -0.0122671,-0.1396635 -0.0178646,-0.1463897 -0.0242384,-0.1523844 -0.0311554,-0.1577447 -0.0386549,-0.1622524 -0.0465821,-0.1659603 -0.0548795,-0.1687356 -0.0634488,-0.1705099 -0.0721749,-0.1711518 -0.0721749,-0.1711518 -0.0819456,-0.1705149 -0.0915421,-0.1685654 -0.1008078,-0.165402 -0.1095762,-0.1610439 -0.1177373,-0.1556312 -0.1252909,-0.1494006 -0.1320666,-0.1423311 -0.1381536,-0.13466 -0.1381536,-0.13466 -0.1466265,-0.1214594 -0.153875,-0.1075465 -0.1599606,-0.0930896 -0.1648506,-0.0781834 -0.1686563,-0.0629656 -0.1713826,-0.0475166 -0.1730807,-0.0319225 -0.1736446,-0.0162453 -0.1736446,-0.0162453 -0.1729175,0.0003189 -0.1708608,0.016769 -0.1675764,0.0330218 -0.1630484,0.0489696 -0.1573383,0.0645371 -0.1503125,0.0795508 -0.1418288,0.0937984 -0.1316825,0.106906 -0.1316825,0.106906 -0.1255941,0.1129145 -0.1190831,0.1184614 -0.1120789,0.1233705 -0.1046601,0.1276296 -0.0968176,0.1310411 -0.0886366,0.1335363 -0.0802253,0.1350884 -0.0716959,0.1357257 -0.0717079,0.135659 -0.0717079,0.135659 -0.0619775,0.1350796 -0.0524215,0.1331502 -0.043262,0.1298265 -0.0347252,0.1251158 -0.0269053,0.1193018 -0.0197787,0.1126435 -0.0132288,0.105427 -0.0071969,0.0977663z" transform="matrix(1,0,0,-1,0.4756203,0.3683314)" fill="rgb(160,160,160)" fill-rule="nonzero" shaper:cutDepth="0.0000762" stroke-linecap="round" stroke-linejoin="round" /><path d="M0.5084294,0.1185806 L0.5084294,0.1185806 0.5145088,0.1119487 0.5199806,0.1048021 0.5247894,0.0972004 0.5290078,0.0892507 0.5356977,0.0725523 0.5405327,0.055221 0.5437645,0.0375195 0.5458615,0.0196458 0.5469563,0.0016827 0.5472561,-0.0163121 0.5472561,-0.0163121 0.5469277,-0.0334913 0.5459475,-0.0506461 0.5440011,-0.0677176 0.5409614,-0.0846274 0.5365317,-0.1012275 0.5304089,-0.1172797 0.5266241,-0.1249996 0.5222943,-0.1324272 0.5120319,-0.1462013 0.5120319,-0.1462013 0.5067368,-0.1515082 0.500989,-0.1563211 0.4947457,-0.1604703 0.4881624,-0.1640585 0.4812496,-0.1669562 0.4741033,-0.1692234 0.4667402,-0.1706298 0.4592623,-0.1711518 0.4592623,-0.1711518 0.4509459,-0.1705182 0.4427794,-0.1688127 0.4348668,-0.1661734 0.4272567,-0.1627565 0.4200022,-0.1586376 0.4131344,-0.1539018 0.4067381,-0.1485475 0.4008221,-0.1426655 0.4008221,-0.1426655 0.3954851,-0.1358837 0.3908281,-0.1286186 0.3834102,-0.1130437 0.3780179,-0.096652 0.3741912,-0.0798206 0.3714578,-0.0627751 0.3696641,-0.0456055 0.3683998,-0.0111085 0.3683998,-0.0111085 0.3687604,0.004888 0.3698807,0.0208445 0.3717935,0.0367333 0.3747081,0.05246 0.3788056,0.0679303 0.3843346,0.082935 0.3914496,0.0972708 0.4004219,0.1105084 0.4004219,0.1105084 0.4060899,0.1166467 0.4123777,0.1221466 0.4191445,0.1270478 0.426354,0.1312693 0.4339493,0.1347491 0.4418449,0.1374804 0.4500136,0.1392307 0.4583323,0.1399953 0.4583283,0.1399286 0.4583283,0.1399286 0.4652724,0.139476 0.4721274,0.1382704 0.4788273,0.1363921 0.4853153,0.1338708 0.4915685,0.1308179 0.4975127,0.1271965 0.5084294,0.1185806z M0.4583323,0.1021025 L0.4583283,0.1020359 0.4583283,0.1020359 0.4533602,0.1014067 0.4485679,0.0999379 0.4397322,0.0952411 0.4319475,0.088948 0.4255058,0.0812883 0.4255058,0.0812883 0.4198047,0.0704846 0.4156062,0.0589935 0.412389,0.0472047 0.4100225,0.0352062 0.407207,0.010924 0.4063593,-0.0135101 0.4063593,-0.0135101 0.4072153,-0.0396553 0.4101596,-0.0656472 0.4127456,-0.0784723 0.4163157,-0.0910545 0.4211638,-0.103209 0.4278407,-0.1144462 0.4278407,-0.1144462 0.4337991,-0.1214071 0.4407746,-0.1273326 0.4446737,-0.1297553 0.448884,-0.1315461 0.4533062,-0.1327696 0.4578613,-0.1332591 0.4578613,-0.1332591 0.4629569,-0.1326481 0.4678637,-0.1311343 0.476825,-0.1261525 0.4844583,-0.1193044 0.4906172,-0.1111105 0.4906172,-0.1111105 0.4962562,-0.1000888 0.5004995,-0.0884455 0.5036733,-0.0764775 0.5059695,-0.0643015 0.5085722,-0.0396713 0.5092967,-0.0149111 0.5092967,-0.0149111 0.5085194,0.0086938 0.5059416,0.032167 0.5037727,0.0437742 0.5008329,0.0552119 0.4970092,0.0663858 0.4920181,0.0770855 0.4920181,0.0770855 0.4858145,0.0860544 0.4780782,0.0937314 0.4736641,0.0969397 0.468888,0.0995744 0.4637353,0.1013698 0.4583323,0.1021025z" transform="matrix(1,0,0,-1,0.4756203,0.3683314)" fill="rgb(160,160,160)" fill-rule="nonzero" shaper:cutDepth="0.0000762" stroke-linecap="round" stroke-linejoin="round" /><path d="M0.3542995,-0.1371284 L0.3542995,-0.1371284 0.3585157,-0.1437896 0.3600604,-0.1474151 0.3603036,-0.1513382 0.3603036,-0.1513382 0.3599614,-0.1550616 0.358978,-0.158668 0.3571915,-0.1619503 0.3547399,-0.1647715 0.35169,-0.1669316 0.3482562,-0.16841 0.3408903,-0.1695507 0.3408903,-0.1695507 0.3359729,-0.1692332 0.3312999,-0.1676918 0.3275569,-0.1645 0.3248117,-0.1604069 0.2566412,-0.0430638 0.2313081,-0.0430638 0.2312816,-0.146268 0.2312816,-0.146268 0.23077,-0.1553382 0.2298376,-0.1597921 0.2281285,-0.1639997 0.2252688,-0.1675248 0.221349,-0.1698056 0.2169419,-0.1709111 0.212402,-0.1711518 0.212402,-0.1711518 0.2079906,-0.1707502 0.2037205,-0.1695814 0.1998699,-0.1673941 0.1966578,-0.1643471 0.1966578,-0.1643471 0.1942599,-0.159809 0.1935921,-0.1547157 0.1934959,-0.1444272 0.1934556,0.1091075 0.1934556,0.1091075 0.1934664,0.1145941 0.1941136,0.1200445 0.1959281,0.1252163 0.1991335,0.1296566 0.2037008,0.1326899 0.2088901,0.1344644 0.21978,0.1357257 0.2805822,0.135659 0.2805822,0.135659 0.288874,0.1351437 0.2970846,0.1338799 0.3051368,0.131838 0.3128894,0.1288526 0.3202408,0.1249869 0.3270768,0.1202648 0.33335,0.1148217 0.3389838,0.1087141 0.3439452,0.1020534 0.3481923,0.0949118 0.3517456,0.0874033 0.3545205,0.079573 0.3580875,0.0633535 0.3593696,0.046798 0.3593696,0.046798 0.3584109,0.0329021 0.3558074,0.0192229 0.3514222,0.006008 0.3451374,-0.0064171 0.3371074,-0.0177899 0.3324071,-0.0229248 0.3272581,-0.0276222 0.3216644,-0.0317653 0.3156683,-0.0353148 0.3093102,-0.0381559 0.3027015,-0.0403573 0.2990167,-0.0412595 0.3529403,-0.1348393 0.3542995,-0.1371284z M0.2313081,0.0978329 L0.2313081,-0.0051711 0.2791812,-0.0051711 0.2791812,-0.0051711 0.2868002,-0.0049174 0.2943008,-0.0035924 0.3011807,-0.000313 0.3068002,0.0048358 0.3068002,0.0048358 0.3104371,0.0091435 0.3135582,0.0138395 0.318114,0.0241377 0.3207222,0.0350954 0.3215436,0.046331 0.3215436,0.046331 0.3212776,0.0529274 0.3204119,0.0594693 0.3189544,0.0659097 0.3168273,0.0721563 0.314057,0.078149 0.3106112,0.0837775 0.3063259,0.0887977 0.301263,0.0930297 0.301263,0.0930297 0.2969161,0.0956227 0.292071,0.0970962 0.2819744,0.0978329 0.2313081,0.0978329z" transform="matrix(1,0,0,-1,0.4756203,0.3683314)" fill="rgb(160,160,160)" fill-rule="nonzero" shaper:cutDepth="0.0000762" stroke-linecap="round" stroke-linejoin="round" /><path d="M-0.1878117,-0.1371284 L-0.1878117,-0.1371284 -0.1835955,-0.1437896 -0.1820508,-0.1474151 -0.1818076,-0.1513382 -0.1818076,-0.1513382 -0.1821498,-0.1550616 -0.1831332,-0.158668 -0.1849196,-0.1619503 -0.1873713,-0.1647715 -0.1904212,-0.1669316 -0.193855,-0.16841 -0.2012209,-0.1695507 -0.2012209,-0.1695507 -0.2061383,-0.1692332 -0.2108113,-0.1676918 -0.2145543,-0.1645 -0.2172995,-0.1604069 -0.28547,-0.0430638 -0.3108031,-0.0430638 -0.3108296,-0.146268 -0.3108296,-0.146268 -0.3113412,-0.1553382 -0.3122736,-0.1597921 -0.3139827,-0.1639997 -0.3168424,-0.1675248 -0.3207621,-0.1698056 -0.3251693,-0.1709111 -0.3297092,-0.1711518 -0.3297092,-0.1711518 -0.3341206,-0.1707502 -0.3383907,-0.1695814 -0.3422413,-0.1673941 -0.3454534,-0.1643471 -0.3454534,-0.1643471 -0.3478513,-0.159809 -0.3485191,-0.1547157 -0.3486153,-0.1444272 -0.3486556,0.1091075 -0.3486556,0.1091075 -0.3486448,0.1145941 -0.3479975,0.1200445 -0.3461831,0.1252163 -0.3429777,0.1296566 -0.3384104,0.1326899 -0.3332211,0.1344644 -0.3223312,0.1357257 -0.261529,0.135659 -0.261529,0.135659 -0.2532372,0.1351437 -0.2450266,0.1338799 -0.2369744,0.131838 -0.2292218,0.1288526 -0.2218704,0.1249869 -0.2150344,0.1202648 -0.2087612,0.1148217 -0.2031274,0.1087141 -0.198166,0.1020534 -0.1939189,0.0949118 -0.1903656,0.0874033 -0.1875906,0.079573 -0.1840237,0.0633535 -0.1827416,0.046798 -0.1827416,0.046798 -0.1837003,0.0329021 -0.1863038,0.0192229 -0.190689,0.006008 -0.1969738,-0.0064171 -0.2050038,-0.0177899 -0.2097041,-0.0229248 -0.2148531,-0.0276222 -0.2204468,-0.0317653 -0.2264429,-0.0353148 -0.232801,-0.0381559 -0.2394097,-0.0403573 -0.2430945,-0.0412595 -0.1891709,-0.1348393 -0.1878117,-0.1371284z M-0.3108031,0.0978329 L-0.3108031,-0.0051711 -0.26293,-0.0051711 -0.26293,-0.0051711 -0.255311,-0.0049174 -0.2478104,-0.0035924 -0.2409305,-0.000313 -0.235311,0.0048358 -0.235311,0.0048358 -0.2316741,0.0091435 -0.228553,0.0138395 -0.2239972,0.0241377 -0.2213889,0.0350954 -0.2205675,0.046331 -0.2205675,0.046331 -0.2208336,0.0529274 -0.2216992,0.0594693 -0.2231568,0.0659097 -0.2252839,0.0721563 -0.2280542,0.078149 -0.2315,0.0837775 -0.2357853,0.0887977 -0.2408481,0.0930297 -0.2408481,0.0930297 -0.2451951,0.0956227 -0.2500402,0.0970962 -0.2601368,0.0978329 -0.3108031,0.0978329z" transform="matrix(1,0,0,-1,0.4756203,0.3683314)" fill="rgb(160,160,160)" fill-rule="nonzero" shaper:cutDepth="0.0000762" stroke-linecap="round" stroke-linejoin="round" /></svg>