  0
SECTION
  2
HEADER
  9
$ACADVER
  1
AC1009
  9
$DWGCODEPAGE
  3
ansi_1252
  9
$INSBASE
 10
0.0
 20
0.0
 30
0.0
  9
$EXTMIN
 10
-204.9232300924
 20
-205.1817647073
 30
0.0
  9
$EXTMAX
 10
187.8701847217
 20
407.7050075695
 30
0.0
  9
$LIMMIN
 10
0.0
 20
0.0
  9
$LIMMAX
 10
420.0
 20
297.0
  9
$ORTHOMODE
 70
     0
  9
$REGENMODE
 70
     1
  9
$FILLMODE
 70
     1
  9
$QTEXTMODE
 70
     0
  9
$MIRRTEXT
 70
     1
  9
$DRAGMODE
 70
     2
  9
$LTSCALE
 40
1.0
  9
$OSMODE
 70
    37
  9
$ATTMODE
 70
     1
  9
$TEXTSIZE
 40
3.5
  9
$TRACEWID
 40
1.0
  9
$TEXTSTYLE
  7
STANDARD
  9
$CLAYER
  8
0
  9
$CELTYPE
  6
BYLAYER
  9
$CECOLOR
 62
   256
  9
$DIMSCALE
 40
1.0
  9
$DIMASZ
 40
3.302
  9
$DIMEXO
 40
0.0
  9
$DIMDLI
 40
3.75
  9
$DIMRND
 40
0.0
  9
$DIMDLE
 40
0.0
  9
$DIMEXE
 40
3.175
  9
$DIMTP
 40
0.0
  9
$DIMTM
 40
0.0
  9
$DIMTXT
 40
3.5
  9
$DIMCEN
 40
2.5
  9
$DIMTSZ
 40
0.0
  9
$DIMTOL
 70
     0
  9
$DIMLIM
 70
     0
  9
$DIMTIH
 70
     1
  9
$DIMTOH
 70
     1
  9
$DIMSE1
 70
     0
  9
$DIMSE2
 70
     0
  9
$DIMTAD
 70
     1
  9
$DIMZIN
 70
     1
  9
$DIMBLK
  1

  9
$DIMASO
 70
     1
  9
$DIMSHO
 70
     1
  9
$DIMPOST
  1

  9
$DIMAPOST
  1

  9
$DIMALT
 70
     0
  9
$DIMALTD
 70
     3
  9
$DIMALTF
 40
0.0393700787
  9
$DIMLFAC
 40
1.0
  9
$DIMTOFL
 70
     1
  9
$DIMTVP
 40
0.0
  9
$DIMTIX
 70
     0
  9
$DIMSOXD
 70
     0
  9
$DIMSAH
 70
     0
  9
$DIMBLK1
  1

  9
$DIMBLK2
  1

  9
$DIMSTYLE
  2
ISO-25
  9
$DIMCLRD
 70
     0
  9
$DIMCLRE
 70
     0
  9
$DIMCLRT
 70
     0
  9
$DIMTFAC
 40
1.0
  9
$DIMGAP
 40
1.524
  9
$LUNITS
 70
     2
  9
$LUPREC
 70
     2
  9
$SKETCHINC
 40
1.0
  9
$FILLETRAD
 40
10.0
  9
$AUNITS
 70
     0
  9
$AUPREC
 70
     2
  9
$MENU
  1
.
  9
$ELEVATION
 40
0.0
  9
$PELEVATION
 40
0.0
  9
$THICKNESS
 40
0.0
  9
$LIMCHECK
 70
     0
  9
$CHAMFERA
 40
0.0
  9
$CHAMFERB
 40
0.0
  9
$SKPOLY
 70
     0
  9
$TDCREATE
 40
2459454.989642407
  9
$TDUPDATE
 40
2459454.989707211
  9
$TDINDWG
 40
0.0000000116
  9
$TDUSRTIMER
 40
0.0000000116
  9
$USRTIMER
 70
     1
  9
$ANGBASE
 50
0.0
  9
$ANGDIR
 70
     0
  9
$PDMODE
 70
     0
  9
$PDSIZE
 40
-1.0
  9
$PLINEWID
 40
0.0
  9
$COORDS
 70
     1
  9
$SPLFRAME
 70
     0
  9
$SPLINETYPE
 70
     6
  9
$SPLINESEGS
 70
     8
  9
$ATTDIA
 70
     0
  9
$ATTREQ
 70
     1
  9
$HANDLING
 70
     1
  9
$HANDSEED
  5
D3
  9
$SURFTAB1
 70
     6
  9
$SURFTAB2
 70
     6
  9
$SURFTYPE
 70
     6
  9
$SURFU
 70
     6
  9
$SURFV
 70
     6
  9
$UCSNAME
  2

  9
$UCSORG
 10
0.0
 20
0.0
 30
0.0
  9
$UCSXDIR
 10
1.0
 20
0.0
 30
0.0
  9
$UCSYDIR
 10
0.0
 20
1.0
 30
0.0
  9
$PUCSNAME
  2

  9
$PUCSORG
 10
0.0
 20
0.0
 30
0.0
  9
$PUCSXDIR
 10
1.0
 20
0.0
 30
0.0
  9
$PUCSYDIR
 10
0.0
 20
1.0
 30
0.0
  9
$USERI1
 70
     0
  9
$USERI2
 70
     0
  9
$USERI3
 70
     0
  9
$USERI4
 70
     0
  9
$USERI5
 70
     0
  9
$USERR1
 40
0.0
  9
$USERR2
 40
0.0
  9
$USERR3
 40
0.0
  9
$USERR4
 40
0.0
  9
$USERR5
 40
0.0
  9
$WORLDVIEW
 70
     1
  9
$SHADEDGE
 70
     3
  9
$SHADEDIF
 70
    70
  9
$TILEMODE
 70
     1
  9
$MAXACTVP
 70
    64
  9
$PLIMCHECK
 70
     0
  9
$PEXTMIN
 10
1.0000000000E+20
 20
1.0000000000E+20
 30
1.0000000000E+20
  9
$PEXTMAX
 10
-1.0000000000E+20
 20
-1.0000000000E+20
 30
-1.0000000000E+20
  9
$PLIMMIN
 10
0.0
 20
0.0
  9
$PLIMMAX
 10
420.0
 20
297.0
  9
$UNITMODE
 70
     0
  9
$VISRETAIN
 70
     1
  9
$PLINEGEN
 70
     0
  9
$PSLTSCALE
 70
     1
  0
ENDSEC
  0
SECTION
  2
TABLES
  0
TABLE
  2
VPORT
 70
     1
  0
VPORT
  2
*ACTIVE
 70
     0
 10
0.0
 20
0.0
 11
1.0
 21
1.0
 12
-8.5265226854
 22
101.2616214311
 13
0.0
 23
0.0
 14
10.0
 24
10.0
 15
10.0
 25
10.0
 16
0.0
 26
0.0
 36
1.0
 17
0.0
 27
0.0
 37
0.0
 40
625.1445077224
 41
0.6408906711
 42
50.0
 43
0.0
 44
0.0
 50
0.0
 51
0.0
 71
     0
 72
   100
 73
     1
 74
     3
 75
     0
 76
     0
 77
     0
 78
     0
  0
ENDTAB
  0
TABLE
  2
LTYPE
 70
     6
  0
LTYPE
  2
CONTINUOUS
 70
     0
  3
Solid line
 72
    65
 73
     0
 40
0.0
  0
LTYPE
  2
HIDDEN
 70
     0
  3
Hidden __ __ __ __ __ __ __ __ __ __ __ __ __ __
 72
    65
 73
     2
 40
1.905
 49
1.27
 49
-0.635
  0
LTYPE
  2
PHANTOM
 70
     0
  3
Phantom ______  __  __  ______  __  __  ______
 72
    65
 73
     6
 40
12.7
 49
6.35
 49
-1.27
 49
1.27
 49
-1.27
 49
1.27
 49
-1.27
  0
LTYPE
  2
CENTER
 70
     0
  3
Center ____ _ ____ _ ____ _ ____ _ ____ _ ____
 72
    65
 73
     4
 40
10.16
 49
6.35
 49
-1.27
 49
1.27
 49
-1.27
  0
LTYPE
  2
CENTERX2
 70
     0
  3
Center (2x) ________  __  ________  __  _____
 72
    65
 73
     4
 40
20.32
 49
12.7
 49
-2.54
 49
2.54
 49
-2.54
  0
LTYPE
  2
DOT2
 70
     0
  3
Dot (.5x) ........................................
 72
    65
 73
     2
 40
0.635
 49
0.0
 49
-0.635
  0
ENDTAB
  0
TABLE
  2
LAYER
 70
     1
  0
LAYER
  2
0
 70
     0
 62
     7
  6
CONTINUOUS
  0
ENDTAB
  0
TABLE
  2
STYLE
 70
     1
  0
STYLE
  2
STANDARD
 70
     0
 40
0.0
 41
1.0
 50
0.0
 71
     0
 42
3.5
  3
txt
  4

  0
ENDTAB
  0
TABLE
  2
VIEW
 70
     0
  0
ENDTAB
  0
TABLE
  2
UCS
 70
     0
  0
ENDTAB
  0
TABLE
  2
APPID
 70
     1
  0
APPID
  2
ACAD
 70
     0
  0
ENDTAB
  0
TABLE
  2
DIMSTYLE
 70
     1
  0
DIMSTYLE
  2
ISO-25
 70
     0
  3

  4

  5

  6

  7

 40
1.0
 41
2.5
 42
0.625
 43
3.75
 44
1.25
 45
0.0
 46
0.0
 47
0.0
 48
0.0
140
2.5
141
2.5
142
0.0
143
0.0393700787
144
1.0
145
0.0
146
1.0
147
0.625
 71
     0
 72
     0
 73
     0
 74
     0
 75
     0
 76
     0
 77
     1
 78
     8
170
     0
171
     3
172
     1
173
     0
174
     0
175
     0
176
     0
177
     0
178
     0
  0
ENDTAB
  0
ENDSEC
  0
SECTION
  2
BLOCKS
  0
BLOCK
  8
0
  2
$MODEL_SPACE
 70
     0
 10
0.0
 20
0.0
 30
0.0
  3
$MODEL_SPACE
  1

  0
ENDBLK
  5
21
  8
0
  0
BLOCK
 67
     1
  8
0
  2
$PAPER_SPACE
 70
     0
 10
0.0
 20
0.0
 30
0.0
  3
$PAPER_SPACE
  1

  0
ENDBLK
  5
1D
 67
     1
  8
0
  0
ENDSEC
  0
SECTION
  2
ENTITIES
  0
CIRCLE
  5
73
  8
0
  6
CONTINUOUS
 62
     7
 10
33.4815019763
 20
45.7444348558
 30
0.0
 40
9.714224568266955
  0
ARC
  5
74
  8
0
  6
CONTINUOUS
 62
     7
 10
160.2306892265
 20
107.6619219272
 30
0.0
 40
7.000000000000033
 50
7.6691932782
 51
97.6691932782
  0
ARC
  5
75
  8
0
  6
CONTINUOUS
 62
     7
 10
164.7020576483
 20
74.4565138114
 30
0.0
 40
7.000000000000044
 50
277.6691932782
 51
7.6691932782
  0
ARC
  5
76
  8
0
  6
CONTINUOUS
 62
     7
 10
96.8806760974
 20
65.3238332935
 30
0.0
 40
7.000000000000012
 50
187.6691932782
 51
277.6691932782
  0
ARC
  5
77
  8
0
  6
CONTINUOUS
 62
     7
 10
92.4093076756
 20
98.5292414093
 30
0.0
 40
7.000000000000058
 50
97.6691932782
 51
187.6691932782
  0
CIRCLE
  5
78
  8
0
  6
CONTINUOUS
 62
     7
 10
94.4843579287
 20
97.5950680609
 30
0.0
 40
4.358481830591685
  0
CIRCLE
  5
79
  8
0
  6
CONTINUOUS
 62
     7
 10
163.1956918438
 20
75.3906871598
 30
0.0
 40
4.869170870133205
  0
ARC
  5
7A
  8
0
  6
CONTINUOUS
 62
     7
 10
135.179660802
 20
62.3489042179
 30
0.0
 40
5.000000000000002
 50
283.2069616496
 51
0.0
  0
ARC
  5
7B
  8
0
  6
CONTINUOUS
 62
     7
 10
-93.9067820049
 20
89.3816510311
 30
0.0
 40
34.67965167198029
 50
212.9808698957
 51
243.6824651408
  0
ARC
  5
7C
  8
0
  6
CONTINUOUS
 62
     7
 10
-156.3849716972
 20
68.279406345
 30
0.0
 40
32.04207896197872
 50
153.0027746594
 51
294.1214670855
  0
ARC
  5
7D
  8
0
  6
CONTINUOUS
 62
     7
 10
-153.2190470899
 20
71.2969567904
 30
0.0
 40
30.23157226553487
 50
358.4959892758
 51
53.185472223
  0
ARC
  5
7E
  8
0
  6
CONTINUOUS
 62
     7
 10
-152.0368265857
 20
-2.7020406161
 30
0.0
 40
42.64387660546221
 50
58.431599623
 51
78.1642206942
  0
CIRCLE
  5
7F
  8
0
  6
CONTINUOUS
 62
     7
 10
-47.2379294218
 20
5.0964363651
 30
0.0
 40
4.064996070762387
  0
ARC
  5
80
  8
0
  6
CONTINUOUS
 62
     7
 10
-47.2379294218
 20
5.0964363651
 30
0.0
 40
24.07883973093412
 50
200.0087278272
 51
276.8544714187
  0
ARC
  5
81
  8
0
  6
CONTINUOUS
 62
     7
 10
-47.2379294218
 20
5.0964363651
 30
0.0
 40
24.07883973093383
 50
30.6162279672
 51
96.7487023143
  0
CIRCLE
  5
82
  8
0
  6
CONTINUOUS
 62
     7
 10
55.4288641387
 20
-52.680647535
 30
0.0
 40
5.290202756084207
  0
CIRCLE
  5
83
  8
0
  6
CONTINUOUS
 62
     7
 10
10.2824276186
 20
-64.066426302
 30
0.0
 40
9.714224568266953
  0
ARC
  5
84
  8
0
  6
CONTINUOUS
 62
     7
 10
53.5992446105
 20
-133.5264506873
 30
0.0
 40
7.000000000000073
 50
189.6691932782
 51
279.6691932782
  0
ARC
  5
85
  8
0
  6
CONTINUOUS
 62
     7
 10
47.9717479945
 20
-100.4973189164
 30
0.0
 40
7.000000000000036
 50
99.6691932782
 51
189.6691932782
  0
ARC
  5
86
  8
0
  6
CONTINUOUS
 62
     7
 10
115.4330886386
 20
-89.0032696989
 30
0.0
 40
7.000000000000012
 50
9.6691932782
 51
99.6691932782
  0
ARC
  5
87
  8
0
  6
CONTINUOUS
 62
     7
 10
121.0605852546
 20
-122.0324014698
 30
0.0
 40
7.000000000000073
 50
279.6691932782
 51
9.6691932782
  0
CIRCLE
  5
88
  8
0
  6
CONTINUOUS
 62
     7
 10
118.9541968864
 20
-121.171215404
 30
0.0
 40
4.358481830591701
  0
CIRCLE
  5
89
  8
0
  6
CONTINUOUS
 62
     7
 10
49.5097983413
 20
-101.3783517832
 30
0.0
 40
4.869170870133176
  0
ARC
  5
8A
  8
0
  6
CONTINUOUS
 62
     7
 10
77.0536111133
 20
-87.3667681601
 30
0.0
 40
4.999999999999986
 50
105.2069616496
 51
182.0
  0
ARC
  5
8B
  8
0
  6
CONTINUOUS
 62
     7
 10
-132.8287812751
 20
49.325219886
 30
0.0
 40
34.67965167198027
 50
246.6799966235
 51
277.3815918685
  0
ARC
  5
8C
  8
0
  6
CONTINUOUS
 62
     7
 10
-173.1001017944
 20
-2.8959411662
 30
0.0
 40
32.0420789619787
 50
186.7019013872
 51
327.8205938132
  0
ARC
  5
8D
  8
0
  6
CONTINUOUS
 62
     7
 10
-172.1404037799
 20
1.3711033649
 30
0.0
 40
30.2315722655349
 50
32.1951160035
 51
86.8845989507
  0
ARC
  5
8E
  8
0
  6
CONTINUOUS
 62
     7
 10
-130.0998475405
 20
-59.5373598694
 30
0.0
 40
42.6438766054622
 50
92.1307263507
 51
111.8633474219
  0
CIRCLE
  5
8F
  8
0
  6
CONTINUOUS
 62
     7
 10
-47.2379294218
 20
5.0964363651
 30
0.0
 40
4.064996070762396
  0
ARC
  5
90
  8
0
  6
CONTINUOUS
 62
     7
 10
-47.2379294218
 20
5.0964363651
 30
0.0
 40
24.07883973093412
 50
233.707854555
 51
310.5535981465
  0
ARC
  5
91
  8
0
  6
CONTINUOUS
 62
     7
 10
-47.2379294218
 20
5.0964363651
 30
0.0
 40
24.07883973093384
 50
64.315354695
 51
130.447829042
  0
CIRCLE
  5
92
  8
0
  6
CONTINUOUS
 62
     7
 10
70.2335613008
 20
13.9908611028
 30
0.0
 40
5.290202756084219
  0
ARC
  5
93
  8
0
  6
CONTINUOUS
 62
     7
 10
-118.9904879054
 20
69.3891230702
 30
0.0
 40
34.67965167198026
 50
232.1461033083
 51
262.8476985534
  0
ARC
  5
94
  8
0
  6
CONTINUOUS
 62
     7
 10
-171.0781400295
 20
28.9452679842
 30
0.0
 40
32.04207896197872
 50
172.168008072
 51
313.286700498
  0
ARC
  5
95
  8
0
  6
CONTINUOUS
 62
     7
 10
-169.0783267578
 20
32.8349255768
 30
0.0
 40
30.23157226553488
 50
17.6612226883
 51
72.3507056356
  0
ARC
  5
96
  8
0
  6
CONTINUOUS
 62
     7
 10
-143.6682366241
 20
-36.6746175225
 30
0.0
 40
42.6438766054622
 50
77.5968330356
 51
97.3294541068
  0
CIRCLE
  5
97
  8
0
  6
CONTINUOUS
 62
     7
 10
-47.2379294218
 20
5.0964363651
 30
0.0
 40
4.064996070762398
  0
ARC
  5
98
  8
0
  6
CONTINUOUS
 62
     7
 10
-47.2379294218
 20
5.0964363651
 30
0.0
 40
24.0788397309341
 50
219.1739612398
 51
296.0197048313
  0
ARC
  5
99
  8
0
  6
CONTINUOUS
 62
     7
 10
-47.2379294218
 20
5.0964363651
 30
0.0
 40
24.07883973093384
 50
49.7814613798
 51
115.9139357269
  0
CIRCLE
  5
9A
  8
0
  6
CONTINUOUS
 62
     7
 10
68.7064778825
 20
-15.7735501911
 30
0.0
 40
5.290202756084192
  0
CIRCLE
  5
9B
  8
0
  6
CONTINUOUS
 62
     7
 10
178.1559601534
 20
-35.4744506199
 30
0.0
 40
9.714224568266934
  0
LINE
  5
9C
  8
0
  6
CENTERX2
 62
     7
 10
-47.2379294218
 20
5.0964363651
 30
0.0
 11
68.7064778825
 21
-15.7735501911
 31
0.0
  0
LINE
  5
9D
  8
0
  6
CENTERX2
 62
     7
 10
68.7064778825
 20
-15.7735501911
 30
0.0
 11
178.1559601534
 21
-35.4744506199
 31
0.0
  0
LINE
  5
9E
  8
0
  6
CONTINUOUS
 62
     7
 10
97.8148494459
 20
58.3864476076
 30
0.0
 11
165.6362309967
 21
67.5191281255
 31
0.0
  0
LINE
  5
9F
  8
0
  6
CONTINUOUS
 62
     7
 10
89.9432904115
 20
64.3896599451
 30
0.0
 11
85.4719219897
 21
97.5950680609
 31
0.0
  0
LINE
  5
A0
  8
0
  6
CONTINUOUS
 62
     7
 10
171.6394433342
 20
75.3906871598
 30
0.0
 11
167.1680749124
 21
108.5960952757
 31
0.0
  0
LINE
  5
A1
  8
0
  6
CONTINUOUS
 62
     7
 10
91.4751343272
 20
105.4666270952
 30
0.0
 11
159.2965158781
 21
114.5993076131
 31
0.0
  0
LINE
  5
A2
  8
0
  6
CENTERX2
 62
     7
 10
90.8774637599
 20
57.4522742592
 30
0.0
 11
166.233901564
 21
115.5334809616
 31
0.0
  0
LINE
  5
A3
  8
0
  6
CENTERX2
 62
     7
 10
172.5736166827
 20
68.4533014739
 30
0.0
 11
84.5377486413
 21
104.5324537468
 31
0.0
  0
LINE
  5
A4
  8
0
  6
CONTINUOUS
 62
     7
 10
140.179660802
 20
70.5215162897
 30
0.0
 11
140.179660802
 21
62.3489042179
 31
0.0
  0
LINE
  5
A5
  8
0
  6
CONTINUOUS
 62
     7
 10
136.3220066113
 20
57.4811484669
 30
0.0
 11
100.3953543355
 21
49.0500227551
 31
0.0
  0
LINE
  5
A6
  8
0
  6
CONTINUOUS
 62
     7
 10
-35.2678364897
 20
35.2145535454
 30
0.0
 11
152.26287035
 21
399.4379385095
 31
0.0
  0
LINE
  5
A7
  8
0
  6
CONTINUOUS
 62
     7
 10
-35.2678364897
 20
35.2145535454
 30
0.0
 11
-51.3241929526
 21
43.4816226053
 31
0.0
  0
LINE
  5
A8
  8
0
  6
CONTINUOUS
 62
     7
 10
152.26287035
 20
399.4379385095
 30
0.0
 11
136.2065138871
 21
407.7050075695
 31
0.0
  0
LINE
  5
A9
  8
0
  6
CONTINUOUS
 62
     7
 10
-51.3241929526
 20
43.4816226053
 30
0.0
 11
136.2065138871
 21
407.7050075695
 31
0.0
  0
LINE
  5
AA
  8
0
  6
CENTERX2
 62
     7
 10
-35.2678364897
 20
35.2145535454
 30
0.0
 11
136.2065138871
 21
407.7050075695
 31
0.0
  0
LINE
  5
AB
  8
0
  6
CENTERX2
 62
     7
 10
152.26287035
 20
399.4379385095
 30
0.0
 11
-51.3241929526
 21
43.4816226053
 31
0.0
  0
LINE
  5
AC
  8
0
  6
CONTINUOUS
 62
     7
 10
-72.0337589491
 20
-36.1924653646
 30
0.0
 11
-159.0426772732
 21
-205.1817647073
 31
0.0
  0
LINE
  5
AD
  8
0
  6
CONTINUOUS
 62
     7
 10
-72.0337589491
 20
-36.1924653646
 30
0.0
 11
-88.090115412
 21
-27.9253963046
 31
0.0
  0
LINE
  5
AE
  8
0
  6
CONTINUOUS
 62
     7
 10
-159.0426772732
 20
-205.1817647073
 30
0.0
 11
-175.0990337362
 21
-196.9146956473
 31
0.0
  0
LINE
  5
AF
  8
0
  6
CONTINUOUS
 62
     7
 10
-88.090115412
 20
-27.9253963046
 30
0.0
 11
-175.0990337362
 21
-196.9146956473
 31
0.0
  0
LINE
  5
B0
  8
0
  6
CENTERX2
 62
     7
 10
-72.0337589491
 20
-36.1924653646
 30
0.0
 11
-175.0990337362
 21
-196.9146956473
 31
0.0
  0
LINE
  5
B1
  8
0
  6
CENTERX2
 62
     7
 10
-159.0426772732
 20
-205.1817647073
 30
0.0
 11
-88.090115412
 21
-27.9253963046
 31
0.0
  0
LINE
  5
B2
  8
0
  6
CONTINUOUS
 62
     7
 10
120.2064199286
 20
-55.2110513007
 30
0.0
 11
-26.515732539
 21
17.3594327012
 31
0.0
  0
LINE
  5
B3
  8
0
  6
CONTINUOUS
 62
     7
 10
-135.103484504
 20
95.4997325371
 30
0.0
 11
-184.9353775244
 21
82.8248231939
 31
0.0
  0
LINE
  5
B4
  8
0
  6
CONTINUOUS
 62
     7
 10
120.2064199286
 20
-55.2110513007
 30
0.0
 11
112.9443063643
 21
-70.985341454
 31
0.0
  0
LINE
  5
B5
  8
0
  6
CONTINUOUS
 62
     7
 10
112.9443063643
 20
-70.985341454
 30
0.0
 11
47.7497733643
 21
-75.4091693158
 31
0.0
  0
LINE
  5
B6
  8
0
  6
CONTINUOUS
 62
     7
 10
47.7497733643
 20
-75.4091693158
 30
0.0
 11
-44.3641696822
 21
-18.8102996678
 31
0.0
  0
LINE
  5
B7
  8
0
  6
CONTINUOUS
 62
     7
 10
-50.0675519981
 20
29.0084366759
 30
0.0
 11
-109.2818506145
 21
58.2965178427
 31
0.0
  0
LINE
  5
B8
  8
0
  6
CONTINUOUS
 62
     7
 10
-69.8633826713
 20
-3.1424584663
 30
0.0
 11
-129.7120712976
 21
33.6312156826
 31
0.0
  0
LINE
  5
B9
  8
0
  6
CONTINUOUS
 62
     7
 10
114.2573730945
 20
-82.1027122606
 30
0.0
 11
46.7960324504
 21
-93.5967614781
 31
0.0
  0
LINE
  5
BA
  8
0
  6
CONTINUOUS
 62
     7
 10
122.3336460769
 20
-87.8275541548
 30
0.0
 11
127.9611426929
 21
-120.8566859256
 31
0.0
  0
LINE
  5
BB
  8
0
  6
CONTINUOUS
 62
     7
 10
41.0711905562
 20
-101.6730344605
 30
0.0
 11
46.6986871722
 21
-134.7021662314
 31
0.0
  0
LINE
  5
BC
  8
0
  6
CONTINUOUS
 62
     7
 10
122.2363007988
 20
-128.9329589081
 30
0.0
 11
54.7749601547
 21
-140.4270081256
 31
0.0
  0
LINE
  5
BD
  8
0
  6
CENTERX2
 62
     7
 10
121.1579305328
 20
-80.9269967165
 30
0.0
 11
47.8744027164
 21
-141.6027236697
 31
0.0
  0
LINE
  5
BE
  8
0
  6
CENTERX2
 62
     7
 10
39.8954750121
 20
-94.7724770222
 30
0.0
 11
129.1368582371
 21
-127.7572433639
 31
0.0
  0
LINE
  5
BF
  8
0
  6
CONTINUOUS
 62
     7
 10
72.3418770262
 20
-95.708899181
 30
0.0
 11
72.0566569782
 21
-87.5412656437
 31
0.0
  0
LINE
  5
C0
  8
0
  6
CONTINUOUS
 62
     7
 10
75.7420789643
 20
-82.5418450082
 30
0.0
 11
111.3526036503
 21
-72.8620332278
 31
0.0
  0
LINE
  5
C1
  8
0
  6
CONTINUOUS
 62
     7
 10
125.5300119988
 20
47.8263043174
 30
0.0
 11
-36.80173675
 21
26.796123121
 31
0.0
  0
LINE
  5
C2
  8
0
  6
CONTINUOUS
 62
     7
 10
-170.4974019707
 20
31.5579963269
 30
0.0
 11
-204.9232300924
 21
-6.6353702044
 31
0.0
  0
LINE
  5
C3
  8
0
  6
CONTINUOUS
 62
     7
 10
125.5300119988
 20
47.8263043174
 30
0.0
 11
128.2402822374
 21
30.6734340476
 31
0.0
  0
LINE
  5
C4
  8
0
  6
CONTINUOUS
 62
     7
 10
128.2402822374
 20
30.6734340476
 30
0.0
 11
76.4553505886
 21
-9.1790218386
 31
0.0
  0
LINE
  5
C5
  8
0
  6
CONTINUOUS
 62
     7
 10
76.4553505886
 20
-9.1790218386
 30
0.0
 11
-31.5828527359
 21
-13.1986202554
 31
0.0
  0
LINE
  5
C6
  8
0
  6
CONTINUOUS
 62
     7
 10
-62.8592064279
 20
23.4203613673
 30
0.0
 11
-128.3732442449
 21
14.9329761403
 31
0.0
  0
LINE
  5
C7
  8
0
  6
CONTINUOUS
 62
     7
 10
-61.490259437
 20
-14.3113355814
 30
0.0
 11
-131.6853306354
 21
-16.9229672855
 31
0.0
  0
LINE
  5
C8
  8
0
  6
CONTINUOUS
 62
     7
 10
130.7245014416
 20
3.1023453147
 30
0.0
 11
-31.6901073242
 21
23.4827288356
 31
0.0
  0
LINE
  5
C9
  8
0
  6
CONTINUOUS
 62
     7
 10
-159.9124207358
 20
61.6435029183
 30
0.0
 11
-202.8213275079
 21
33.3116020205
 31
0.0
  0
LINE
  5
CA
  8
0
  6
CONTINUOUS
 62
     7
 10
130.7245014416
 20
3.1023453147
 30
0.0
 11
129.0434827383
 21
-14.1817716538
 31
0.0
  0
LINE
  5
CB
  8
0
  6
CONTINUOUS
 62
     7
 10
129.0434827383
 20
-14.1817716538
 30
0.0
 11
68.9146219841
 21
-39.7633566408
 31
0.0
  0
LINE
  5
CC
  8
0
  6
CONTINUOUS
 62
     7
 10
68.9146219841
 20
-39.7633566408
 30
0.0
 11
-36.6750184974
 21
-16.5418499717
 31
0.0
  0
LINE
  5
CD
  8
0
  6
CONTINUOUS
 62
     7
 10
-57.7608776804
 20
26.754185157
 30
0.0
 11
-123.3083562404
 21
34.9793242749
 31
0.0
  0
LINE
  5
CE
  8
0
  6
CONTINUOUS
 62
     7
 10
-65.9046078846
 20
-10.1136141922
 30
0.0
 11
-134.5087877334
 21
4.9739683834
 31
0.0
  0
POINT
  5
CF
  8
0
  6
CONTINUOUS
 62
     7
 10
50.4815806411
 20
221.4138765425
 30
0.0
  0
POINT
  5
D0
  8
0
  6
CONTINUOUS
 62
     7
 10
-123.5541544002
 20
-116.5994845208
 30
0.0
  0
POINT
  5
D1
  8
0
  6
CONTINUOUS
 62
     7
 10
128.555682662
 20
86.4928776104
 30
0.0
  0
POINT
  5
D2
  8
0
  6
CONTINUOUS
 62
     7
 10
84.5161666246
 20
-111.2648601931
 30
0.0
  0
ENDSEC
  0
EOF
