%TF.GenerationSoftware,KiCad,Pcbnew,7.0.1*%
%TF.CreationDate,2023-04-10T12:22:30-08:00*%
%TF.ProjectId,ANT SEL PANEL,414e5420-5345-44c2-9050-414e454c2e6b,4*%
%TF.SameCoordinates,Original*%
%TF.FileFunction,Copper,L1,Top*%
%TF.FilePolarity,Positive*%
%FSLAX46Y46*%
G04 Gerber Fmt 4.6, Leading zero omitted, Abs format (unit mm)*
G04 Created by KiCad (PCBNEW 7.0.1) date 2023-04-10 12:22:30*
%MOMM*%
%LPD*%
G01*
G04 APERTURE LIST*
G04 Aperture macros list*
%AMRoundRect*
0 Rectangle with rounded corners*
0 $1 Rounding radius*
0 $2 $3 $4 $5 $6 $7 $8 $9 X,Y pos of 4 corners*
0 Add a 4 corners polygon primitive as box body*
4,1,4,$2,$3,$4,$5,$6,$7,$8,$9,$2,$3,0*
0 Add four circle primitives for the rounded corners*
1,1,$1+$1,$2,$3*
1,1,$1+$1,$4,$5*
1,1,$1+$1,$6,$7*
1,1,$1+$1,$8,$9*
0 Add four rect primitives between the rounded corners*
20,1,$1+$1,$2,$3,$4,$5,0*
20,1,$1+$1,$4,$5,$6,$7,0*
20,1,$1+$1,$6,$7,$8,$9,0*
20,1,$1+$1,$8,$9,$2,$3,0*%
G04 Aperture macros list end*
%TA.AperFunction,ComponentPad*%
%ADD10C,1.500000*%
%TD*%
%TA.AperFunction,ComponentPad*%
%ADD11R,1.800000X1.800000*%
%TD*%
%TA.AperFunction,ComponentPad*%
%ADD12C,1.800000*%
%TD*%
%TA.AperFunction,SMDPad,CuDef*%
%ADD13RoundRect,0.225000X-0.250000X0.225000X-0.250000X-0.225000X0.250000X-0.225000X0.250000X0.225000X0*%
%TD*%
%TA.AperFunction,SMDPad,CuDef*%
%ADD14R,1.500000X0.900000*%
%TD*%
%TA.AperFunction,SMDPad,CuDef*%
%ADD15R,0.900000X1.500000*%
%TD*%
%TA.AperFunction,SMDPad,CuDef*%
%ADD16RoundRect,0.200000X-0.275000X0.200000X-0.275000X-0.200000X0.275000X-0.200000X0.275000X0.200000X0*%
%TD*%
%TA.AperFunction,SMDPad,CuDef*%
%ADD17RoundRect,0.225000X0.225000X0.250000X-0.225000X0.250000X-0.225000X-0.250000X0.225000X-0.250000X0*%
%TD*%
%TA.AperFunction,SMDPad,CuDef*%
%ADD18RoundRect,0.225000X-0.225000X-0.250000X0.225000X-0.250000X0.225000X0.250000X-0.225000X0.250000X0*%
%TD*%
%TA.AperFunction,ComponentPad*%
%ADD19O,3.300000X2.700000*%
%TD*%
%TA.AperFunction,ComponentPad*%
%ADD20RoundRect,0.250001X-1.399999X1.099999X-1.399999X-1.099999X1.399999X-1.099999X1.399999X1.099999X0*%
%TD*%
%TA.AperFunction,ViaPad*%
%ADD21C,0.800000*%
%TD*%
%TA.AperFunction,ViaPad*%
%ADD22C,1.500000*%
%TD*%
%TA.AperFunction,Conductor*%
%ADD23C,0.250000*%
%TD*%
G04 APERTURE END LIST*
D10*
%TO.P,TP4,1,1*%
%TO.N,DATA OUT*%
X87900000Y-71450000D03*
%TD*%
%TO.P,TP3,1,1*%
%TO.N,GND*%
X138400000Y-40700000D03*
%TD*%
%TO.P,TP2,1,1*%
%TO.N,DATA IN*%
X94650000Y-45500000D03*
%TD*%
%TO.P,TP1,1,1*%
%TO.N,+5V*%
X135750000Y-40700000D03*
%TD*%
D11*
%TO.P,D1,1,K*%
%TO.N,Net-(D1-K)*%
X95625000Y-41750000D03*
D12*
%TO.P,D1,2,A*%
%TO.N,+5V*%
X98165000Y-41750000D03*
%TD*%
D13*
%TO.P,C4,2*%
%TO.N,GND*%
X144150000Y-50250000D03*
%TO.P,C4,1*%
%TO.N,+5V*%
X144150000Y-48700000D03*
%TD*%
%TO.P,C2,1*%
%TO.N,+5V*%
X130050000Y-41875000D03*
%TO.P,C2,2*%
%TO.N,GND*%
X130050000Y-43425000D03*
%TD*%
D14*
%TO.P,D2,1,VDD*%
%TO.N,+5V*%
X107950000Y-40150000D03*
%TO.P,D2,2,DOUT*%
%TO.N,Net-(D2-DOUT)*%
X107950000Y-43450000D03*
%TO.P,D2,3,VSS*%
%TO.N,GND*%
X112850000Y-43450000D03*
%TO.P,D2,4,DIN*%
%TO.N,DATA IN*%
X112850000Y-40150000D03*
%TD*%
%TO.P,D3,1,VDD*%
%TO.N,+5V*%
X115600000Y-40150000D03*
%TO.P,D3,2,DOUT*%
%TO.N,Net-(D3-DOUT)*%
X115600000Y-43450000D03*
%TO.P,D3,3,VSS*%
%TO.N,GND*%
X120500000Y-43450000D03*
%TO.P,D3,4,DIN*%
%TO.N,Net-(D2-DOUT)*%
X120500000Y-40150000D03*
%TD*%
%TO.P,D4,1,VDD*%
%TO.N,+5V*%
X123150000Y-40150000D03*
%TO.P,D4,2,DOUT*%
%TO.N,Net-(D4-DOUT)*%
X123150000Y-43450000D03*
%TO.P,D4,3,VSS*%
%TO.N,GND*%
X128050000Y-43450000D03*
%TO.P,D4,4,DIN*%
%TO.N,Net-(D3-DOUT)*%
X128050000Y-40150000D03*
%TD*%
D15*
%TO.P,D6,4,DIN*%
%TO.N,Net-(D5-DOUT)*%
X101042200Y-47600000D03*
%TO.P,D6,3,VSS*%
%TO.N,GND*%
X104342200Y-47600000D03*
%TO.P,D6,2,DOUT*%
%TO.N,Net-(D6-DOUT)*%
X104342200Y-52500000D03*
%TO.P,D6,1,VDD*%
%TO.N,+5V*%
X101042200Y-52500000D03*
%TD*%
%TO.P,D7,4,DIN*%
%TO.N,Net-(D6-DOUT)*%
X107189200Y-48200000D03*
%TO.P,D7,3,VSS*%
%TO.N,GND*%
X110489200Y-48200000D03*
%TO.P,D7,2,DOUT*%
%TO.N,/DATA1*%
X110489200Y-53100000D03*
%TO.P,D7,1,VDD*%
%TO.N,+5V*%
X107189200Y-53100000D03*
%TD*%
%TO.P,D8,4,DIN*%
%TO.N,/DATA1*%
X127175000Y-50200000D03*
%TO.P,D8,3,VSS*%
%TO.N,GND*%
X130475000Y-50200000D03*
%TO.P,D8,2,DOUT*%
%TO.N,Net-(D8-DOUT)*%
X130475000Y-55100000D03*
%TO.P,D8,1,VDD*%
%TO.N,+5V*%
X127175000Y-55100000D03*
%TD*%
%TO.P,D9,4,DIN*%
%TO.N,Net-(D8-DOUT)*%
X133000000Y-46450000D03*
%TO.P,D9,3,VSS*%
%TO.N,GND*%
X136300000Y-46450000D03*
%TO.P,D9,2,DOUT*%
%TO.N,Net-(D10-DIN)*%
X136300000Y-51350000D03*
%TO.P,D9,1,VDD*%
%TO.N,+5V*%
X133000000Y-51350000D03*
%TD*%
%TO.P,D10,4,DIN*%
%TO.N,Net-(D10-DIN)*%
X138850000Y-50225000D03*
%TO.P,D10,3,VSS*%
%TO.N,GND*%
X142150000Y-50225000D03*
%TO.P,D10,2,DOUT*%
%TO.N,Net-(D10-DOUT)*%
X142150000Y-55125000D03*
%TO.P,D10,1,VDD*%
%TO.N,+5V*%
X138850000Y-55125000D03*
%TD*%
D14*
%TO.P,D18,1,VDD*%
%TO.N,+5V*%
X96200000Y-73903500D03*
%TO.P,D18,2,DOUT*%
%TO.N,DATA OUT*%
X96200000Y-77203500D03*
%TO.P,D18,3,VSS*%
%TO.N,GND*%
X101100000Y-77203500D03*
%TO.P,D18,4,DIN*%
%TO.N,Net-(D17-DOUT)*%
X101100000Y-73903500D03*
%TD*%
%TO.P,D17,1,VDD*%
%TO.N,+5V*%
X103750000Y-73900000D03*
%TO.P,D17,2,DOUT*%
%TO.N,Net-(D17-DOUT)*%
X103750000Y-77200000D03*
%TO.P,D17,3,VSS*%
%TO.N,GND*%
X108650000Y-77200000D03*
%TO.P,D17,4,DIN*%
%TO.N,/DATA3*%
X108650000Y-73900000D03*
%TD*%
%TO.P,D14,4,DIN*%
%TO.N,Net-(D13-DOUT)*%
X133300000Y-73457600D03*
%TO.P,D14,3,VSS*%
%TO.N,GND*%
X133300000Y-76757600D03*
%TO.P,D14,2,DOUT*%
%TO.N,Net-(D14-DOUT)*%
X128400000Y-76757600D03*
%TO.P,D14,1,VDD*%
%TO.N,+5V*%
X128400000Y-73457600D03*
%TD*%
%TO.P,D13,1,VDD*%
%TO.N,+5V*%
X136050000Y-73457600D03*
%TO.P,D13,2,DOUT*%
%TO.N,Net-(D13-DOUT)*%
X136050000Y-76757600D03*
%TO.P,D13,3,VSS*%
%TO.N,GND*%
X140950000Y-76757600D03*
%TO.P,D13,4,DIN*%
%TO.N,/DATA2*%
X140950000Y-73457600D03*
%TD*%
D16*
%TO.P,R1,1*%
%TO.N,GND*%
X93327220Y-40125000D03*
%TO.P,R1,2*%
%TO.N,Net-(D1-K)*%
X93327220Y-41775000D03*
%TD*%
D13*
%TO.P,C3,2*%
%TO.N,GND*%
X112400000Y-48525000D03*
%TO.P,C3,1*%
%TO.N,+5V*%
X112400000Y-46975000D03*
%TD*%
%TO.P,C6,1*%
%TO.N,+5V*%
X143100000Y-75225000D03*
%TO.P,C6,2*%
%TO.N,GND*%
X143100000Y-76775000D03*
%TD*%
%TO.P,C8,1*%
%TO.N,+5V*%
X94314020Y-73882500D03*
%TO.P,C8,2*%
%TO.N,GND*%
X94314020Y-75432500D03*
%TD*%
D15*
%TO.P,D12,1,VDD*%
%TO.N,+5V*%
X144350000Y-70400000D03*
%TO.P,D12,2,DOUT*%
%TO.N,/DATA2*%
X147650000Y-70400000D03*
%TO.P,D12,3,VSS*%
%TO.N,GND*%
X147650000Y-65500000D03*
%TO.P,D12,4,DIN*%
%TO.N,Net-(D11-DOUT)*%
X144350000Y-65500000D03*
%TD*%
%TO.P,D5,4,DIN*%
%TO.N,Net-(D4-DOUT)*%
X94600000Y-48100000D03*
%TO.P,D5,3,VSS*%
%TO.N,GND*%
X97900000Y-48100000D03*
%TO.P,D5,2,DOUT*%
%TO.N,Net-(D5-DOUT)*%
X97900000Y-53000000D03*
%TO.P,D5,1,VDD*%
%TO.N,+5V*%
X94600000Y-53000000D03*
%TD*%
D17*
%TO.P,C7,2*%
%TO.N,GND*%
X115675000Y-56025000D03*
%TO.P,C7,1*%
%TO.N,+5V*%
X117225000Y-56025000D03*
%TD*%
D15*
%TO.P,D16,4,DIN*%
%TO.N,Net-(D15-DOUT)*%
X112350000Y-65500000D03*
%TO.P,D16,3,VSS*%
%TO.N,GND*%
X115650000Y-65500000D03*
%TO.P,D16,2,DOUT*%
%TO.N,/DATA3*%
X115650000Y-70400000D03*
%TO.P,D16,1,VDD*%
%TO.N,+5V*%
X112350000Y-70400000D03*
%TD*%
%TO.P,D11,4,DIN*%
%TO.N,Net-(D10-DOUT)*%
X144350000Y-57950000D03*
%TO.P,D11,3,VSS*%
%TO.N,GND*%
X147650000Y-57950000D03*
%TO.P,D11,2,DOUT*%
%TO.N,Net-(D11-DOUT)*%
X147650000Y-62850000D03*
%TO.P,D11,1,VDD*%
%TO.N,+5V*%
X144350000Y-62850000D03*
%TD*%
D18*
%TO.P,C5,2*%
%TO.N,GND*%
X147575000Y-55900000D03*
%TO.P,C5,1*%
%TO.N,+5V*%
X146025000Y-55900000D03*
%TD*%
D15*
%TO.P,D15,4,DIN*%
%TO.N,Net-(D14-DOUT)*%
X112350000Y-57950000D03*
%TO.P,D15,3,VSS*%
%TO.N,GND*%
X115650000Y-57950000D03*
%TO.P,D15,2,DOUT*%
%TO.N,Net-(D15-DOUT)*%
X115650000Y-62850000D03*
%TO.P,D15,1,VDD*%
%TO.N,+5V*%
X112350000Y-62850000D03*
%TD*%
D19*
%TO.P,J1,4,Pin_4*%
%TO.N,DATA IN*%
X87905220Y-46137940D03*
%TO.P,J1,3,Pin_2*%
%TO.N,GND*%
X87905220Y-41937940D03*
%TO.P,J1,2,Pin_3*%
%TO.N,+5V*%
X82405220Y-46137940D03*
D20*
%TO.P,J1,1,Pin_1*%
X82405220Y-41937940D03*
%TD*%
D19*
%TO.P,J2,4,Pin_4*%
%TO.N,DATA OUT*%
X87930620Y-56889760D03*
%TO.P,J2,3,Pin_2*%
%TO.N,GND*%
X87930620Y-52689760D03*
%TO.P,J2,2,Pin_3*%
%TO.N,+5V*%
X82430620Y-56889760D03*
D20*
%TO.P,J2,1,Pin_1*%
X82430620Y-52689760D03*
%TD*%
D21*
%TO.N,GND*%
X117400000Y-65350000D03*
X149300000Y-65300000D03*
X147650000Y-54450000D03*
D22*
%TO.N,+5V*%
X113309400Y-52677060D03*
D21*
%TO.N,GND*%
X91450000Y-40150000D03*
X138150000Y-46400000D03*
X115700000Y-54650000D03*
X102600000Y-46100000D03*
X131700000Y-43400000D03*
X145900000Y-50225000D03*
X133300000Y-78450000D03*
X97950000Y-46350000D03*
X92589800Y-75207500D03*
X120500000Y-44850000D03*
X112850000Y-44950000D03*
X113800000Y-49050000D03*
X144250000Y-76750000D03*
X101100000Y-78450000D03*
X110877780Y-77147860D03*
X130500000Y-48150000D03*
%TD*%
D23*
%TO.N,DATA IN*%
X87967280Y-46200000D02*
X93950000Y-46200000D01*
X93950000Y-46200000D02*
X94650000Y-45500000D01*
X87905220Y-46137940D02*
X87967280Y-46200000D01*
X110700000Y-42250000D02*
X112850000Y-40100000D01*
X107000000Y-42250000D02*
X110700000Y-42250000D01*
X104650000Y-44600000D02*
X107000000Y-42250000D01*
X95550000Y-44600000D02*
X104650000Y-44600000D01*
X94650000Y-45500000D02*
X95550000Y-44600000D01*
%TO.N,Net-(D1-K)*%
X93352220Y-41750000D02*
X93327220Y-41775000D01*
X95625000Y-41750000D02*
X93352220Y-41750000D01*
%TO.N,DATA OUT*%
X87900000Y-71543005D02*
X87900000Y-71450000D01*
X93560495Y-77203500D02*
X87900000Y-71543005D01*
X96200000Y-77203500D02*
X93560495Y-77203500D01*
X87930620Y-71419380D02*
X87930620Y-56889760D01*
X87900000Y-71450000D02*
X87930620Y-71419380D01*
%TO.N,GND*%
X91475000Y-40125000D02*
X91450000Y-40150000D01*
X93327220Y-40125000D02*
X91475000Y-40125000D01*
%TO.N,Net-(D14-DOUT)*%
X116425000Y-61275000D02*
X113100000Y-57950000D01*
X113100000Y-57950000D02*
X112350000Y-57950000D01*
X128400000Y-75324695D02*
X116425000Y-63349695D01*
X116425000Y-63349695D02*
X116425000Y-61275000D01*
X128400000Y-76757600D02*
X128400000Y-75324695D01*
%TO.N,GND*%
X133300000Y-78450000D02*
X133300000Y-76757600D01*
%TO.N,Net-(D17-DOUT)*%
X103750000Y-77200000D02*
X103750000Y-76553500D01*
X103750000Y-76553500D02*
X101100000Y-73903500D01*
%TO.N,Net-(D3-DOUT)*%
X125900000Y-42250000D02*
X128050000Y-40100000D01*
X117836396Y-43400000D02*
X118986396Y-42250000D01*
X118986396Y-42250000D02*
X125900000Y-42250000D01*
X115600000Y-43400000D02*
X117836396Y-43400000D01*
%TO.N,Net-(D2-DOUT)*%
X118650000Y-41950000D02*
X120500000Y-40100000D01*
X110186396Y-43400000D02*
X111636396Y-41950000D01*
X107950000Y-43400000D02*
X110186396Y-43400000D01*
X111636396Y-41950000D02*
X118650000Y-41950000D01*
%TO.N,Net-(D6-DOUT)*%
X104342200Y-51047000D02*
X107189200Y-48200000D01*
X104342200Y-52700000D02*
X104342200Y-51047000D01*
%TO.N,Net-(D5-DOUT)*%
X101042200Y-49857800D02*
X101042200Y-47600000D01*
X97900000Y-53000000D02*
X101042200Y-49857800D01*
%TO.N,GND*%
X102642200Y-46100000D02*
X104342200Y-47800000D01*
X102600000Y-46100000D02*
X102642200Y-46100000D01*
%TO.N,Net-(D4-DOUT)*%
X107200000Y-45050000D02*
X97650000Y-45050000D01*
X108012348Y-45862348D02*
X107200000Y-45050000D01*
X120687652Y-45862348D02*
X108012348Y-45862348D01*
X123150000Y-43400000D02*
X120687652Y-45862348D01*
X97650000Y-45050000D02*
X94600000Y-48100000D01*
%TO.N,GND*%
X92589800Y-75207500D02*
X94089020Y-75207500D01*
X101100000Y-77203500D02*
X101100000Y-78450000D01*
X144225000Y-76775000D02*
X144250000Y-76750000D01*
X142816580Y-76775000D02*
X144225000Y-76775000D01*
X140841200Y-76757600D02*
X142799180Y-76757600D01*
X149250000Y-65350000D02*
X149300000Y-65300000D01*
X147650000Y-65350000D02*
X149250000Y-65350000D01*
X147575000Y-55900000D02*
X147575000Y-54525000D01*
X147575000Y-54525000D02*
X147650000Y-54450000D01*
X147650000Y-57950000D02*
X147650000Y-55975000D01*
X145875000Y-50250000D02*
X145900000Y-50225000D01*
X144150000Y-50250000D02*
X145875000Y-50250000D01*
X142150000Y-50225000D02*
X144125000Y-50225000D01*
X138100000Y-46450000D02*
X138150000Y-46400000D01*
X136300000Y-46450000D02*
X138100000Y-46450000D01*
X130475000Y-48175000D02*
X130500000Y-48150000D01*
X130475000Y-50200000D02*
X130475000Y-48175000D01*
X112925000Y-49050000D02*
X113800000Y-49050000D01*
X112075000Y-48200000D02*
X112925000Y-49050000D01*
X110489200Y-48200000D02*
X112075000Y-48200000D01*
X131675000Y-43375000D02*
X131700000Y-43400000D01*
X130050000Y-43375000D02*
X131675000Y-43375000D01*
X128050000Y-43400000D02*
X130025000Y-43400000D01*
X120500000Y-43400000D02*
X120500000Y-44850000D01*
X112850000Y-43400000D02*
X112850000Y-44950000D01*
X97900000Y-46400000D02*
X97950000Y-46350000D01*
X97900000Y-48100000D02*
X97900000Y-46400000D01*
X115675000Y-54675000D02*
X115700000Y-54650000D01*
X115675000Y-56025000D02*
X115675000Y-54675000D01*
X115650000Y-57950000D02*
X115650000Y-56050000D01*
X115650000Y-65350000D02*
X117400000Y-65350000D01*
X110825640Y-77200000D02*
X110877780Y-77147860D01*
X108650000Y-77200000D02*
X110825640Y-77200000D01*
%TO.N,/DATA3*%
X111669400Y-73900000D02*
X108650000Y-73900000D01*
X115689800Y-69879600D02*
X111669400Y-73900000D01*
%TO.N,Net-(D15-DOUT)*%
X114850000Y-62850000D02*
X112350000Y-65350000D01*
X115650000Y-62850000D02*
X114850000Y-62850000D01*
%TO.N,Net-(D13-DOUT)*%
X135941200Y-75669600D02*
X133729200Y-73457600D01*
X135941200Y-76757600D02*
X135941200Y-75669600D01*
%TO.N,/DATA2*%
X144442400Y-73457600D02*
X140841200Y-73457600D01*
X147650000Y-70250000D02*
X144442400Y-73457600D01*
%TO.N,Net-(D11-DOUT)*%
X146850000Y-62850000D02*
X144350000Y-65350000D01*
X147650000Y-62850000D02*
X146850000Y-62850000D01*
%TO.N,Net-(D10-DOUT)*%
X142150000Y-55750000D02*
X144350000Y-57950000D01*
%TO.N,Net-(D10-DIN)*%
X136300000Y-51350000D02*
X137725000Y-51350000D01*
X137725000Y-51350000D02*
X138850000Y-50225000D01*
%TO.N,Net-(D8-DOUT)*%
X133000000Y-49500000D02*
X133000000Y-46450000D01*
X130475000Y-52025000D02*
X133000000Y-49500000D01*
X130475000Y-55100000D02*
X130475000Y-52025000D01*
%TO.N,/DATA1*%
X110489200Y-53100000D02*
X113389200Y-50200000D01*
X113389200Y-50200000D02*
X127175000Y-50200000D01*
%TD*%
%TA.AperFunction,Conductor*%
%TO.N,+5V*%
G36*
X140198124Y-38924999D02*
G01*
X140244943Y-38934123D01*
X140285017Y-38959996D01*
X162181637Y-59929799D01*
X162274649Y-60018874D01*
X162303381Y-60060401D01*
X162313500Y-60109875D01*
X162313500Y-69944446D01*
X162296540Y-70007582D01*
X162250227Y-70053722D01*
X143151942Y-81016633D01*
X143089109Y-81033357D01*
X83316781Y-80982917D01*
X83268752Y-80973360D01*
X83227995Y-80946215D01*
X78137608Y-75878957D01*
X78110146Y-75838010D01*
X78100500Y-75789659D01*
X78100500Y-67881858D01*
X78114360Y-67824407D01*
X78152891Y-67779595D01*
X78207616Y-67757281D01*
X78266495Y-67762374D01*
X78316576Y-67793754D01*
X78538013Y-68020145D01*
X78845527Y-68283376D01*
X78884506Y-68316741D01*
X79255840Y-68581542D01*
X79255845Y-68581545D01*
X79255848Y-68581547D01*
X79649144Y-68812501D01*
X79649153Y-68812506D01*
X80061307Y-69007788D01*
X80061310Y-69007789D01*
X80061314Y-69007791D01*
X80489130Y-69165890D01*
X80929245Y-69285559D01*
X81378214Y-69365863D01*
X81832523Y-69406173D01*
X82174526Y-69406173D01*
X82174533Y-69406173D01*
X82516218Y-69391044D01*
X82968299Y-69330679D01*
X83413277Y-69230594D01*
X83847667Y-69091574D01*
X83847667Y-69091573D01*
X83847670Y-69091573D01*
X84268070Y-68914707D01*
X84461197Y-68812506D01*
X84671199Y-68701375D01*
X85053895Y-68453251D01*
X85413164Y-68172275D01*
X85746194Y-67860646D01*
X86050380Y-67520803D01*
X86323339Y-67155406D01*
X86562937Y-66767315D01*
X86767298Y-66359567D01*
X86934822Y-65935353D01*
X87000736Y-65712530D01*
X87050296Y-65544992D01*
X87088761Y-65485376D01*
X87153339Y-65455994D01*
X87223554Y-65466162D01*
X87277145Y-65512655D01*
X87297120Y-65580733D01*
X87297120Y-70270205D01*
X87282883Y-70328385D01*
X87243391Y-70373418D01*
X87087958Y-70482253D01*
X86932253Y-70637958D01*
X86805943Y-70818347D01*
X86712879Y-71017925D01*
X86655885Y-71230624D01*
X86636693Y-71450000D01*
X86655885Y-71669375D01*
X86712879Y-71882074D01*
X86805943Y-72081653D01*
X86932253Y-72262041D01*
X87087958Y-72417746D01*
X87087961Y-72417748D01*
X87087962Y-72417749D01*
X87268346Y-72544056D01*
X87467924Y-72637120D01*
X87561707Y-72662249D01*
X87680624Y-72694114D01*
X87680625Y-72694114D01*
X87680629Y-72694115D01*
X87900000Y-72713307D01*
X88093795Y-72696352D01*
X88147868Y-72703472D01*
X88193868Y-72732778D01*
X93053249Y-77592159D01*
X93066328Y-77608483D01*
X93118144Y-77657141D01*
X93120955Y-77659865D01*
X93140725Y-77679635D01*
X93143938Y-77682127D01*
X93152928Y-77689806D01*
X93185174Y-77720086D01*
X93202921Y-77729842D01*
X93219445Y-77740696D01*
X93235454Y-77753114D01*
X93276037Y-77770675D01*
X93286688Y-77775893D01*
X93325435Y-77797195D01*
X93345055Y-77802232D01*
X93363762Y-77808637D01*
X93370375Y-77811498D01*
X93382349Y-77816681D01*
X93393000Y-77818367D01*
X93426025Y-77823598D01*
X93437620Y-77825998D01*
X93480465Y-77837000D01*
X93500719Y-77837000D01*
X93520429Y-77838551D01*
X93540437Y-77841720D01*
X93540437Y-77841719D01*
X93540438Y-77841720D01*
X93584456Y-77837558D01*
X93596314Y-77837000D01*
X94889101Y-77837000D01*
X94945501Y-77850328D01*
X94989970Y-77887492D01*
X94999110Y-77899702D01*
X94999111Y-77899704D01*
X95028510Y-77938976D01*
X95086739Y-78016762D01*
X95203794Y-78104388D01*
X95203795Y-78104388D01*
X95203796Y-78104389D01*
X95340799Y-78155489D01*
X95401362Y-78162000D01*
X96998638Y-78162000D01*
X97059201Y-78155489D01*
X97196204Y-78104389D01*
X97313261Y-78016761D01*
X97400889Y-77899704D01*
X97451989Y-77762701D01*
X97458500Y-77702138D01*
X99841500Y-77702138D01*
X99848011Y-77762701D01*
X99860877Y-77797195D01*
X99899111Y-77899705D01*
X99986738Y-78016761D01*
X100103797Y-78104390D01*
X100127374Y-78113184D01*
X100179340Y-78149629D01*
X100206945Y-78206784D01*
X100204584Y-78246558D01*
X100207842Y-78246901D01*
X100186496Y-78449999D01*
X100206458Y-78639929D01*
X100265472Y-78821556D01*
X100360958Y-78986942D01*
X100360960Y-78986944D01*
X100488747Y-79128866D01*
X100643248Y-79241118D01*
X100817712Y-79318794D01*
X101004513Y-79358500D01*
X101195485Y-79358500D01*
X101195487Y-79358500D01*
X101382288Y-79318794D01*
X101556752Y-79241118D01*
X101711253Y-79128866D01*
X101839040Y-78986944D01*
X101934527Y-78821556D01*
X101993542Y-78639928D01*
X102013504Y-78450000D01*
X101993542Y-78260072D01*
X101993540Y-78260068D01*
X101992157Y-78246901D01*
X101995419Y-78246558D01*
X101993045Y-78206823D01*
X102020646Y-78149643D01*
X102072626Y-78113183D01*
X102096204Y-78104389D01*
X102213261Y-78016761D01*
X102300888Y-77899706D01*
X102300992Y-77899427D01*
X102307596Y-77881720D01*
X102341786Y-77831717D01*
X102395361Y-77803447D01*
X102455938Y-77803446D01*
X102509514Y-77831714D01*
X102543707Y-77881718D01*
X102549110Y-77896204D01*
X102636738Y-78013261D01*
X102753794Y-78100888D01*
X102753795Y-78100888D01*
X102753796Y-78100889D01*
X102890799Y-78151989D01*
X102951362Y-78158500D01*
X104548638Y-78158500D01*
X104609201Y-78151989D01*
X104746204Y-78100889D01*
X104863261Y-78013261D01*
X104950889Y-77896204D01*
X105001989Y-77759201D01*
X105008500Y-77698638D01*
X107391500Y-77698638D01*
X107398011Y-77759201D01*
X107402290Y-77770672D01*
X107449111Y-77896205D01*
X107536738Y-78013261D01*
X107653794Y-78100888D01*
X107653795Y-78100888D01*
X107653796Y-78100889D01*
X107790799Y-78151989D01*
X107851362Y-78158500D01*
X109448638Y-78158500D01*
X109509201Y-78151989D01*
X109646204Y-78100889D01*
X109705688Y-78056360D01*
X109763260Y-78013262D01*
X109763261Y-78013261D01*
X109850889Y-77896204D01*
X109850889Y-77896201D01*
X109860030Y-77883992D01*
X109904499Y-77846828D01*
X109960899Y-77833500D01*
X110234911Y-77833500D01*
X110273847Y-77839667D01*
X110308972Y-77857564D01*
X110421028Y-77938978D01*
X110595492Y-78016654D01*
X110782293Y-78056360D01*
X110973265Y-78056360D01*
X110973267Y-78056360D01*
X111160068Y-78016654D01*
X111334532Y-77938978D01*
X111489033Y-77826726D01*
X111616820Y-77684804D01*
X111712307Y-77519416D01*
X111771322Y-77337788D01*
X111791284Y-77147860D01*
X111771322Y-76957932D01*
X111712307Y-76776304D01*
X111712307Y-76776303D01*
X111616821Y-76610917D01*
X111489032Y-76468993D01*
X111346005Y-76365078D01*
X111334532Y-76356742D01*
X111160068Y-76279066D01*
X110973267Y-76239360D01*
X110782293Y-76239360D01*
X110687585Y-76259491D01*
X110595491Y-76279066D01*
X110421026Y-76356743D01*
X110266527Y-76468993D01*
X110216269Y-76524811D01*
X110173882Y-76555607D01*
X110122633Y-76566500D01*
X109960899Y-76566500D01*
X109904499Y-76553172D01*
X109860030Y-76516008D01*
X109850889Y-76503797D01*
X109850889Y-76503796D01*
X109766451Y-76391000D01*
X109763260Y-76386737D01*
X109646205Y-76299111D01*
X109577702Y-76273560D01*
X109509201Y-76248011D01*
X109448638Y-76241500D01*
X107851362Y-76241500D01*
X107790799Y-76248011D01*
X107653794Y-76299111D01*
X107536738Y-76386738D01*
X107449111Y-76503794D01*
X107398010Y-76640799D01*
X107398011Y-76640799D01*
X107391500Y-76701362D01*
X107391500Y-77698638D01*
X105008500Y-77698638D01*
X105008500Y-76701362D01*
X105001989Y-76640799D01*
X104950889Y-76503796D01*
X104950888Y-76503794D01*
X104863261Y-76386738D01*
X104746205Y-76299111D01*
X104677702Y-76273560D01*
X104609201Y-76248011D01*
X104548638Y-76241500D01*
X104373345Y-76241500D01*
X104310916Y-76224947D01*
X104264891Y-76179638D01*
X104254542Y-76162138D01*
X104240212Y-76147808D01*
X104227378Y-76132781D01*
X104215472Y-76116393D01*
X104200615Y-76104102D01*
X104181394Y-76088200D01*
X104172616Y-76080212D01*
X103165500Y-75073095D01*
X103134762Y-75022936D01*
X103130146Y-74964289D01*
X103152659Y-74909939D01*
X103197392Y-74871733D01*
X103254595Y-74858000D01*
X103496000Y-74858000D01*
X103496000Y-74154000D01*
X104004000Y-74154000D01*
X104004000Y-74858000D01*
X104548589Y-74858000D01*
X104609093Y-74851494D01*
X104745962Y-74800445D01*
X104862904Y-74712904D01*
X104950445Y-74595962D01*
X105001494Y-74459093D01*
X105007995Y-74398638D01*
X107391500Y-74398638D01*
X107398011Y-74459201D01*
X107409289Y-74489437D01*
X107449111Y-74596205D01*
X107536738Y-74713261D01*
X107653794Y-74800888D01*
X107653795Y-74800888D01*
X107653796Y-74800889D01*
X107790799Y-74851989D01*
X107851362Y-74858500D01*
X109448638Y-74858500D01*
X109509201Y-74851989D01*
X109646204Y-74800889D01*
X109758586Y-74716761D01*
X109763260Y-74713262D01*
X109763528Y-74712904D01*
X109850889Y-74596204D01*
X109850889Y-74596201D01*
X109860030Y-74583992D01*
X109904499Y-74546828D01*
X109960899Y-74533500D01*
X111585547Y-74533500D01*
X111606335Y-74535795D01*
X111609307Y-74535701D01*
X111609309Y-74535702D01*
X111677385Y-74533562D01*
X111681345Y-74533500D01*
X111709252Y-74533500D01*
X111709256Y-74533500D01*
X111713265Y-74532993D01*
X111725099Y-74532061D01*
X111769289Y-74530673D01*
X111788738Y-74525021D01*
X111808098Y-74521012D01*
X111828197Y-74518474D01*
X111869315Y-74502193D01*
X111880517Y-74498357D01*
X111922993Y-74486018D01*
X111940439Y-74475699D01*
X111958180Y-74467009D01*
X111977017Y-74459552D01*
X112012792Y-74433558D01*
X112022703Y-74427048D01*
X112060762Y-74404542D01*
X112075091Y-74390212D01*
X112090119Y-74377377D01*
X112106507Y-74365472D01*
X112134703Y-74331386D01*
X112142672Y-74322630D01*
X114831440Y-71633862D01*
X114870932Y-71607133D01*
X114917534Y-71596996D01*
X114964561Y-71604904D01*
X115090799Y-71651989D01*
X115151362Y-71658500D01*
X116148638Y-71658500D01*
X116209201Y-71651989D01*
X116346204Y-71600889D01*
X116463261Y-71513261D01*
X116550889Y-71396204D01*
X116601989Y-71259201D01*
X116608500Y-71198638D01*
X116608500Y-69601362D01*
X116601989Y-69540799D01*
X116550889Y-69403796D01*
X116541343Y-69391044D01*
X116463261Y-69286738D01*
X116346205Y-69199111D01*
X116257133Y-69165889D01*
X116209201Y-69148011D01*
X116148638Y-69141500D01*
X115151362Y-69141500D01*
X115090799Y-69148011D01*
X114953794Y-69199111D01*
X114836738Y-69286738D01*
X114749111Y-69403794D01*
X114698011Y-69540799D01*
X114691500Y-69601362D01*
X114691500Y-69929805D01*
X114681909Y-69978023D01*
X114654595Y-70018900D01*
X113523095Y-71150399D01*
X113472936Y-71181137D01*
X113414289Y-71185753D01*
X113359939Y-71163240D01*
X113321733Y-71118507D01*
X113308000Y-71061304D01*
X113308000Y-70654000D01*
X112604000Y-70654000D01*
X112604000Y-71658000D01*
X112711304Y-71658000D01*
X112768507Y-71671733D01*
X112813240Y-71709939D01*
X112835753Y-71764289D01*
X112831137Y-71822936D01*
X112800399Y-71873095D01*
X111443900Y-73229595D01*
X111403023Y-73256909D01*
X111354805Y-73266500D01*
X109960899Y-73266500D01*
X109904499Y-73253172D01*
X109860030Y-73216008D01*
X109850889Y-73203797D01*
X109850889Y-73203796D01*
X109766148Y-73090595D01*
X109763260Y-73086737D01*
X109646205Y-72999111D01*
X109577702Y-72973560D01*
X109509201Y-72948011D01*
X109448638Y-72941500D01*
X107851362Y-72941500D01*
X107790799Y-72948011D01*
X107653794Y-72999111D01*
X107536738Y-73086738D01*
X107449111Y-73203794D01*
X107412942Y-73300767D01*
X107398011Y-73340799D01*
X107391500Y-73401362D01*
X107391500Y-74398638D01*
X105007995Y-74398638D01*
X105008000Y-74398589D01*
X105008000Y-74154000D01*
X104004000Y-74154000D01*
X103496000Y-74154000D01*
X103496000Y-72942000D01*
X104004000Y-72942000D01*
X104004000Y-73646000D01*
X105008000Y-73646000D01*
X105008000Y-73401411D01*
X105001494Y-73340906D01*
X104950445Y-73204037D01*
X104862904Y-73087095D01*
X104745962Y-72999554D01*
X104609093Y-72948505D01*
X104548589Y-72942000D01*
X104004000Y-72942000D01*
X103496000Y-72942000D01*
X102951411Y-72942000D01*
X102890906Y-72948505D01*
X102754037Y-72999554D01*
X102637095Y-73087095D01*
X102549552Y-73204039D01*
X102542669Y-73222495D01*
X102508477Y-73272499D01*
X102454902Y-73300768D01*
X102394326Y-73300767D01*
X102340750Y-73272499D01*
X102306558Y-73222495D01*
X102300888Y-73207293D01*
X102213261Y-73090238D01*
X102096205Y-73002611D01*
X102027702Y-72977061D01*
X101959201Y-72951511D01*
X101898638Y-72945000D01*
X100301362Y-72945000D01*
X100240799Y-72951511D01*
X100103794Y-73002611D01*
X99986738Y-73090238D01*
X99899111Y-73207294D01*
X99874791Y-73272499D01*
X99848011Y-73344299D01*
X99841500Y-73404862D01*
X99841500Y-74402138D01*
X99848011Y-74462701D01*
X99868943Y-74518820D01*
X99899111Y-74599705D01*
X99986738Y-74716761D01*
X100103794Y-74804388D01*
X100103795Y-74804388D01*
X100103796Y-74804389D01*
X100240799Y-74855489D01*
X100301362Y-74862000D01*
X101110406Y-74862000D01*
X101158624Y-74871591D01*
X101199501Y-74898905D01*
X102581197Y-76280602D01*
X102612119Y-76331332D01*
X102616357Y-76390592D01*
X102592970Y-76445206D01*
X102549109Y-76503796D01*
X102542402Y-76521780D01*
X102508210Y-76571784D01*
X102454634Y-76600053D01*
X102394058Y-76600052D01*
X102340483Y-76571783D01*
X102306291Y-76521779D01*
X102300888Y-76507294D01*
X102213261Y-76390238D01*
X102096205Y-76302611D01*
X102027702Y-76277061D01*
X101959201Y-76251511D01*
X101898638Y-76245000D01*
X100301362Y-76245000D01*
X100240799Y-76251511D01*
X100103794Y-76302611D01*
X99986738Y-76390238D01*
X99899111Y-76507294D01*
X99875723Y-76570000D01*
X99848011Y-76644299D01*
X99841500Y-76704862D01*
X99841500Y-77702138D01*
X97458500Y-77702138D01*
X97458500Y-76704862D01*
X97451989Y-76644299D01*
X97400889Y-76507296D01*
X97398269Y-76503796D01*
X97313261Y-76390238D01*
X97196205Y-76302611D01*
X97127702Y-76277061D01*
X97059201Y-76251511D01*
X96998638Y-76245000D01*
X95401362Y-76245000D01*
X95340797Y-76251511D01*
X95319402Y-76259491D01*
X95257900Y-76266217D01*
X95200611Y-76242857D01*
X95161347Y-76195044D01*
X95149575Y-76134306D01*
X95168131Y-76075289D01*
X95233322Y-75969601D01*
X95287256Y-75806836D01*
X95297520Y-75706372D01*
X95297520Y-75158628D01*
X95287256Y-75058164D01*
X95276972Y-75027131D01*
X95272044Y-74968332D01*
X95294427Y-74913736D01*
X95339212Y-74875316D01*
X95396578Y-74861500D01*
X95946000Y-74861500D01*
X95946000Y-74157500D01*
X96454000Y-74157500D01*
X96454000Y-74861500D01*
X96998589Y-74861500D01*
X97059093Y-74854994D01*
X97195962Y-74803945D01*
X97312904Y-74716404D01*
X97400445Y-74599462D01*
X97451494Y-74462593D01*
X97458000Y-74402089D01*
X97458000Y-74157500D01*
X96454000Y-74157500D01*
X95946000Y-74157500D01*
X94975191Y-74157500D01*
X94926973Y-74147909D01*
X94909899Y-74136500D01*
X93331020Y-74136500D01*
X93331020Y-74156339D01*
X93341276Y-74256739D01*
X93381211Y-74377251D01*
X93385484Y-74439917D01*
X93358972Y-74496860D01*
X93308264Y-74533927D01*
X93245961Y-74541909D01*
X93187546Y-74518820D01*
X93078945Y-74439917D01*
X93046552Y-74416382D01*
X92872088Y-74338706D01*
X92685287Y-74299000D01*
X92494313Y-74299000D01*
X92383195Y-74322619D01*
X92307511Y-74338706D01*
X92263078Y-74358489D01*
X92133682Y-74416100D01*
X92133046Y-74416383D01*
X91978545Y-74528635D01*
X91974043Y-74533635D01*
X91917246Y-74569816D01*
X91849926Y-74571578D01*
X91791315Y-74538416D01*
X90881399Y-73628500D01*
X93331020Y-73628500D01*
X94060020Y-73628500D01*
X94060020Y-72924500D01*
X94568020Y-72924500D01*
X94568020Y-73628500D01*
X95263829Y-73628500D01*
X95312047Y-73638091D01*
X95329121Y-73649500D01*
X95946000Y-73649500D01*
X95946000Y-72945500D01*
X96454000Y-72945500D01*
X96454000Y-73649500D01*
X97458000Y-73649500D01*
X97458000Y-73404911D01*
X97451494Y-73344406D01*
X97400445Y-73207537D01*
X97312904Y-73090595D01*
X97195962Y-73003054D01*
X97059093Y-72952005D01*
X96998589Y-72945500D01*
X96454000Y-72945500D01*
X95946000Y-72945500D01*
X95401411Y-72945500D01*
X95340906Y-72952005D01*
X95204037Y-73003054D01*
X95135013Y-73054725D01*
X95089965Y-73076120D01*
X95040144Y-73078361D01*
X94993357Y-73061098D01*
X94875904Y-72988652D01*
X94713259Y-72934756D01*
X94612859Y-72924500D01*
X94568020Y-72924500D01*
X94060020Y-72924500D01*
X94015181Y-72924500D01*
X93914780Y-72934756D01*
X93752134Y-72988652D01*
X93606288Y-73078611D01*
X93485131Y-73199768D01*
X93395172Y-73345614D01*
X93341276Y-73508260D01*
X93331020Y-73608661D01*
X93331020Y-73628500D01*
X90881399Y-73628500D01*
X90482494Y-73229595D01*
X89148672Y-71895772D01*
X89116060Y-71839287D01*
X89116060Y-71774067D01*
X89144115Y-71669371D01*
X89163307Y-71450000D01*
X89144115Y-71230629D01*
X89132090Y-71185753D01*
X89087120Y-71017925D01*
X89086907Y-71017469D01*
X88994056Y-70818347D01*
X88867749Y-70637962D01*
X88867748Y-70637961D01*
X88867746Y-70637958D01*
X88712041Y-70482253D01*
X88617849Y-70416299D01*
X88578357Y-70371266D01*
X88564120Y-70313086D01*
X88564120Y-64627751D01*
X95343802Y-64627751D01*
X95353847Y-65171240D01*
X95353847Y-65171250D01*
X95353848Y-65171253D01*
X95380233Y-65455994D01*
X95404006Y-65712540D01*
X95493998Y-66248625D01*
X95623337Y-66776604D01*
X95791319Y-67293596D01*
X95791320Y-67293597D01*
X95997022Y-67796769D01*
X96108250Y-68020145D01*
X96239322Y-68283375D01*
X96259138Y-68316741D01*
X96516900Y-68750759D01*
X96516903Y-68750763D01*
X96828231Y-69196360D01*
X96828236Y-69196366D01*
X97171631Y-69617763D01*
X97545210Y-70012649D01*
X97816985Y-70260405D01*
X97946931Y-70378867D01*
X98374602Y-70714416D01*
X98825891Y-71017469D01*
X99298315Y-71286355D01*
X99298319Y-71286357D01*
X99555140Y-71408369D01*
X99789320Y-71519625D01*
X100296205Y-71715994D01*
X100486845Y-71774064D01*
X100816213Y-71874392D01*
X101346496Y-71993954D01*
X101884162Y-72074027D01*
X102426272Y-72114173D01*
X102833909Y-72114173D01*
X102833910Y-72114173D01*
X103241294Y-72099109D01*
X103692599Y-72048862D01*
X103781543Y-72038960D01*
X103781544Y-72038959D01*
X103781551Y-72038959D01*
X104315890Y-71939074D01*
X104841394Y-71799999D01*
X105355191Y-71622494D01*
X105854477Y-71407529D01*
X106336522Y-71156277D01*
X106560711Y-71017465D01*
X106798691Y-70870115D01*
X107096147Y-70654000D01*
X111392000Y-70654000D01*
X111392000Y-71198589D01*
X111398505Y-71259093D01*
X111449554Y-71395962D01*
X111537095Y-71512904D01*
X111654037Y-71600445D01*
X111790906Y-71651494D01*
X111851411Y-71658000D01*
X112096000Y-71658000D01*
X112096000Y-70654000D01*
X111392000Y-70654000D01*
X107096147Y-70654000D01*
X107238474Y-70550593D01*
X107441431Y-70378867D01*
X107653454Y-70199470D01*
X107707921Y-70146000D01*
X111392000Y-70146000D01*
X112096000Y-70146000D01*
X112096000Y-69142000D01*
X112604000Y-69142000D01*
X112604000Y-70146000D01*
X113308000Y-70146000D01*
X113308000Y-69601411D01*
X113301494Y-69540906D01*
X113250445Y-69404037D01*
X113162904Y-69287095D01*
X113045962Y-69199554D01*
X112909093Y-69148505D01*
X112848589Y-69142000D01*
X112604000Y-69142000D01*
X112096000Y-69142000D01*
X111851411Y-69142000D01*
X111790906Y-69148505D01*
X111654037Y-69199554D01*
X111537095Y-69287095D01*
X111449554Y-69404037D01*
X111398505Y-69540906D01*
X111392000Y-69601411D01*
X111392000Y-70146000D01*
X107707921Y-70146000D01*
X108041369Y-69818658D01*
X108400101Y-69410238D01*
X108727690Y-68976439D01*
X109022348Y-68519632D01*
X109058523Y-68453251D01*
X109282460Y-68042319D01*
X109282464Y-68042312D01*
X109506619Y-67547084D01*
X109693588Y-67036655D01*
X109842350Y-66513811D01*
X109886703Y-66298638D01*
X111391500Y-66298638D01*
X111398011Y-66359200D01*
X111449111Y-66496205D01*
X111536738Y-66613261D01*
X111653794Y-66700888D01*
X111653795Y-66700888D01*
X111653796Y-66700889D01*
X111790799Y-66751989D01*
X111851362Y-66758500D01*
X112848638Y-66758500D01*
X112909201Y-66751989D01*
X113046204Y-66700889D01*
X113163261Y-66613261D01*
X113250889Y-66496204D01*
X113301989Y-66359201D01*
X113308500Y-66298638D01*
X113308500Y-65339594D01*
X113318091Y-65291376D01*
X113345405Y-65250499D01*
X113974771Y-64621133D01*
X114646543Y-63949360D01*
X114691604Y-63920401D01*
X114744625Y-63912778D01*
X114796022Y-63927870D01*
X114836505Y-63962949D01*
X114836739Y-63963262D01*
X114953793Y-64050888D01*
X114970030Y-64056944D01*
X115020034Y-64091136D01*
X115048302Y-64144712D01*
X115048302Y-64205288D01*
X115020034Y-64258864D01*
X114970030Y-64293056D01*
X114953793Y-64299111D01*
X114836738Y-64386738D01*
X114749111Y-64503794D01*
X114698011Y-64640799D01*
X114691500Y-64701362D01*
X114691500Y-66298638D01*
X114698011Y-66359200D01*
X114749111Y-66496205D01*
X114836738Y-66613261D01*
X114953794Y-66700888D01*
X114953795Y-66700888D01*
X114953796Y-66700889D01*
X115090799Y-66751989D01*
X115151362Y-66758500D01*
X116148638Y-66758500D01*
X116209201Y-66751989D01*
X116346204Y-66700889D01*
X116463261Y-66613261D01*
X116550889Y-66496204D01*
X116601989Y-66359201D01*
X116608500Y-66298638D01*
X116608500Y-66145198D01*
X116627067Y-66079363D01*
X116677297Y-66032931D01*
X116744386Y-66019586D01*
X116808561Y-66043262D01*
X116943248Y-66141118D01*
X117117712Y-66218794D01*
X117304513Y-66258500D01*
X117495485Y-66258500D01*
X117495487Y-66258500D01*
X117682288Y-66218794D01*
X117856752Y-66141118D01*
X118011253Y-66028866D01*
X118015751Y-66023870D01*
X118072547Y-65987685D01*
X118139870Y-65985920D01*
X118198484Y-66019083D01*
X127729595Y-75550194D01*
X127756909Y-75591071D01*
X127766500Y-75639289D01*
X127766500Y-75673100D01*
X127749619Y-75736100D01*
X127703500Y-75782219D01*
X127640500Y-75799100D01*
X127601362Y-75799100D01*
X127540799Y-75805611D01*
X127403794Y-75856711D01*
X127286738Y-75944338D01*
X127199111Y-76061394D01*
X127148011Y-76198399D01*
X127141500Y-76258962D01*
X127141500Y-77256238D01*
X127148011Y-77316800D01*
X127199111Y-77453805D01*
X127286738Y-77570861D01*
X127403794Y-77658488D01*
X127403795Y-77658488D01*
X127403796Y-77658489D01*
X127540799Y-77709589D01*
X127601362Y-77716100D01*
X129198638Y-77716100D01*
X129259201Y-77709589D01*
X129396204Y-77658489D01*
X129513261Y-77570861D01*
X129600889Y-77453804D01*
X129651989Y-77316801D01*
X129658500Y-77256238D01*
X132041500Y-77256238D01*
X132048011Y-77316800D01*
X132099111Y-77453805D01*
X132186738Y-77570861D01*
X132303794Y-77658488D01*
X132303795Y-77658488D01*
X132303796Y-77658489D01*
X132440799Y-77709589D01*
X132472237Y-77712968D01*
X132535607Y-77738387D01*
X132576415Y-77793132D01*
X132582673Y-77861125D01*
X132563840Y-77899427D01*
X132567581Y-77901587D01*
X132465472Y-78078443D01*
X132406458Y-78260070D01*
X132386496Y-78450000D01*
X132406458Y-78639929D01*
X132465472Y-78821556D01*
X132560958Y-78986942D01*
X132560960Y-78986944D01*
X132688747Y-79128866D01*
X132843248Y-79241118D01*
X133017712Y-79318794D01*
X133204513Y-79358500D01*
X133395485Y-79358500D01*
X133395487Y-79358500D01*
X133582288Y-79318794D01*
X133756752Y-79241118D01*
X133911253Y-79128866D01*
X134039040Y-78986944D01*
X134134527Y-78821556D01*
X134193542Y-78639928D01*
X134213504Y-78450000D01*
X134193542Y-78260072D01*
X134145815Y-78113184D01*
X134134527Y-78078443D01*
X134032419Y-77901587D01*
X134036175Y-77899418D01*
X134017353Y-77861275D01*
X134023548Y-77793227D01*
X134064351Y-77738418D01*
X134127761Y-77712968D01*
X134159201Y-77709589D01*
X134296204Y-77658489D01*
X134413261Y-77570861D01*
X134500889Y-77453804D01*
X134551989Y-77316801D01*
X134551989Y-77316797D01*
X134556944Y-77303514D01*
X134591136Y-77253510D01*
X134644712Y-77225241D01*
X134705288Y-77225241D01*
X134758864Y-77253510D01*
X134793056Y-77303514D01*
X134798010Y-77316798D01*
X134798011Y-77316801D01*
X134831952Y-77407799D01*
X134849111Y-77453805D01*
X134936738Y-77570861D01*
X135053794Y-77658488D01*
X135053795Y-77658488D01*
X135053796Y-77658489D01*
X135190799Y-77709589D01*
X135251362Y-77716100D01*
X136848638Y-77716100D01*
X136909201Y-77709589D01*
X137046204Y-77658489D01*
X137163261Y-77570861D01*
X137250889Y-77453804D01*
X137301989Y-77316801D01*
X137308500Y-77256238D01*
X139691500Y-77256238D01*
X139698011Y-77316800D01*
X139749111Y-77453805D01*
X139836738Y-77570861D01*
X139953794Y-77658488D01*
X139953795Y-77658488D01*
X139953796Y-77658489D01*
X140090799Y-77709589D01*
X140151362Y-77716100D01*
X141748638Y-77716100D01*
X141809201Y-77709589D01*
X141946204Y-77658489D01*
X142052012Y-77579282D01*
X142063260Y-77570862D01*
X142063261Y-77570861D01*
X142113233Y-77504106D01*
X142153714Y-77469029D01*
X142205111Y-77453937D01*
X142258132Y-77461560D01*
X142303195Y-77490521D01*
X142391956Y-77579282D01*
X142391958Y-77579283D01*
X142391960Y-77579285D01*
X142537899Y-77669302D01*
X142700664Y-77723236D01*
X142801128Y-77733500D01*
X143398868Y-77733500D01*
X143398872Y-77733500D01*
X143499336Y-77723236D01*
X143662101Y-77669302D01*
X143781155Y-77595867D01*
X143838878Y-77577390D01*
X143898550Y-77588000D01*
X143967712Y-77618794D01*
X144154513Y-77658500D01*
X144345485Y-77658500D01*
X144345487Y-77658500D01*
X144532288Y-77618794D01*
X144706752Y-77541118D01*
X144861253Y-77428866D01*
X144989040Y-77286944D01*
X145084527Y-77121556D01*
X145143542Y-76939928D01*
X145163504Y-76750000D01*
X145143542Y-76560072D01*
X145112931Y-76465862D01*
X145084527Y-76378443D01*
X144989041Y-76213057D01*
X144861252Y-76071133D01*
X144784002Y-76015008D01*
X144706752Y-75958882D01*
X144532288Y-75881206D01*
X144345487Y-75841500D01*
X144166955Y-75841500D01*
X144109589Y-75827683D01*
X144064804Y-75789264D01*
X144042421Y-75734667D01*
X144047351Y-75675867D01*
X144072743Y-75599239D01*
X144083000Y-75498839D01*
X144083000Y-75479000D01*
X142117000Y-75479000D01*
X142117000Y-75498839D01*
X142127256Y-75599234D01*
X142174166Y-75740799D01*
X142178371Y-75803819D01*
X142151467Y-75860963D01*
X142100213Y-75897871D01*
X142037487Y-75905270D01*
X141979052Y-75881300D01*
X141946205Y-75856711D01*
X141838395Y-75816500D01*
X141809201Y-75805611D01*
X141748638Y-75799100D01*
X140151362Y-75799100D01*
X140090799Y-75805611D01*
X139953794Y-75856711D01*
X139836738Y-75944338D01*
X139749111Y-76061394D01*
X139698011Y-76198399D01*
X139691500Y-76258962D01*
X139691500Y-77256238D01*
X137308500Y-77256238D01*
X137308500Y-76258962D01*
X137301989Y-76198399D01*
X137250889Y-76061396D01*
X137250888Y-76061394D01*
X137163261Y-75944338D01*
X137046205Y-75856711D01*
X136938395Y-75816500D01*
X136909201Y-75805611D01*
X136848638Y-75799100D01*
X136701185Y-75799100D01*
X136639332Y-75782873D01*
X136593410Y-75738373D01*
X136575247Y-75677060D01*
X136574762Y-75661635D01*
X136574700Y-75657675D01*
X136574700Y-75629748D01*
X136574700Y-75629744D01*
X136574192Y-75625724D01*
X136573261Y-75613895D01*
X136571873Y-75569710D01*
X136566220Y-75550256D01*
X136562212Y-75530899D01*
X136559674Y-75510803D01*
X136543397Y-75469692D01*
X136539558Y-75458482D01*
X136527218Y-75416006D01*
X136516900Y-75398561D01*
X136508208Y-75380816D01*
X136500752Y-75361983D01*
X136500751Y-75361981D01*
X136474764Y-75326213D01*
X136468246Y-75316290D01*
X136465914Y-75312347D01*
X136445742Y-75278237D01*
X136431413Y-75263908D01*
X136418576Y-75248877D01*
X136406673Y-75232493D01*
X136372606Y-75204311D01*
X136363826Y-75196321D01*
X135778648Y-74611143D01*
X135746036Y-74554659D01*
X135746036Y-74489437D01*
X135778648Y-74432953D01*
X135796000Y-74415601D01*
X135796000Y-73711600D01*
X136304000Y-73711600D01*
X136304000Y-74415600D01*
X136848589Y-74415600D01*
X136909093Y-74409094D01*
X137045962Y-74358045D01*
X137162904Y-74270504D01*
X137250445Y-74153562D01*
X137301494Y-74016693D01*
X137307995Y-73956238D01*
X139691500Y-73956238D01*
X139698011Y-74016801D01*
X139712613Y-74055950D01*
X139749111Y-74153805D01*
X139836738Y-74270861D01*
X139953794Y-74358488D01*
X139953795Y-74358488D01*
X139953796Y-74358489D01*
X140090799Y-74409589D01*
X140151362Y-74416100D01*
X141748638Y-74416100D01*
X141809201Y-74409589D01*
X141946204Y-74358489D01*
X142063261Y-74270861D01*
X142150889Y-74153804D01*
X142150889Y-74153801D01*
X142160030Y-74141592D01*
X142204499Y-74104428D01*
X142260899Y-74091100D01*
X142483012Y-74091100D01*
X142545376Y-74107616D01*
X142591391Y-74152835D01*
X142608993Y-74214901D01*
X142593567Y-74277544D01*
X142549159Y-74324341D01*
X142392268Y-74421111D01*
X142271111Y-74542268D01*
X142181152Y-74688114D01*
X142127256Y-74850760D01*
X142117000Y-74951161D01*
X142117000Y-74971000D01*
X144083000Y-74971000D01*
X144083000Y-74951161D01*
X144072743Y-74850760D01*
X144018847Y-74688114D01*
X143928888Y-74542268D01*
X143807731Y-74421111D01*
X143650841Y-74324341D01*
X143606433Y-74277544D01*
X143591007Y-74214901D01*
X143608609Y-74152835D01*
X143654624Y-74107616D01*
X143716988Y-74091100D01*
X144358547Y-74091100D01*
X144379335Y-74093395D01*
X144382307Y-74093301D01*
X144382309Y-74093302D01*
X144450385Y-74091162D01*
X144454345Y-74091100D01*
X144482252Y-74091100D01*
X144482256Y-74091100D01*
X144486265Y-74090593D01*
X144498099Y-74089661D01*
X144542289Y-74088273D01*
X144561738Y-74082621D01*
X144581098Y-74078612D01*
X144601197Y-74076074D01*
X144642315Y-74059793D01*
X144653517Y-74055957D01*
X144695993Y-74043618D01*
X144713439Y-74033299D01*
X144731180Y-74024609D01*
X144750017Y-74017152D01*
X144785792Y-73991158D01*
X144795703Y-73984648D01*
X144833762Y-73962142D01*
X144848091Y-73947812D01*
X144863119Y-73934977D01*
X144879507Y-73923072D01*
X144907703Y-73888986D01*
X144915672Y-73880230D01*
X147100498Y-71695405D01*
X147141375Y-71668091D01*
X147189593Y-71658500D01*
X148148638Y-71658500D01*
X148209201Y-71651989D01*
X148346204Y-71600889D01*
X148463261Y-71513261D01*
X148550889Y-71396204D01*
X148601989Y-71259201D01*
X148608500Y-71198638D01*
X148608500Y-69601362D01*
X148601989Y-69540799D01*
X148550889Y-69403796D01*
X148541343Y-69391044D01*
X148463261Y-69286738D01*
X148346205Y-69199111D01*
X148257133Y-69165889D01*
X148209201Y-69148011D01*
X148148638Y-69141500D01*
X147151362Y-69141500D01*
X147090799Y-69148011D01*
X146953794Y-69199111D01*
X146836738Y-69286738D01*
X146749111Y-69403794D01*
X146698011Y-69540799D01*
X146691500Y-69601362D01*
X146691500Y-70260405D01*
X146681909Y-70308623D01*
X146654595Y-70349500D01*
X145431119Y-71572975D01*
X145377522Y-71604776D01*
X145315240Y-71607000D01*
X145259510Y-71579104D01*
X145223968Y-71527911D01*
X145217307Y-71465946D01*
X145241157Y-71408369D01*
X145250446Y-71395960D01*
X145301494Y-71259093D01*
X145308000Y-71198589D01*
X145308000Y-70654000D01*
X144604000Y-70654000D01*
X144604000Y-71658000D01*
X144848589Y-71658000D01*
X144909093Y-71651494D01*
X145045960Y-71600446D01*
X145058369Y-71591157D01*
X145115946Y-71567307D01*
X145177911Y-71573968D01*
X145229104Y-71609510D01*
X145257000Y-71665240D01*
X145254776Y-71727522D01*
X145222975Y-71781119D01*
X144216900Y-72787195D01*
X144176023Y-72814509D01*
X144127805Y-72824100D01*
X142260899Y-72824100D01*
X142204499Y-72810772D01*
X142160030Y-72773608D01*
X142150889Y-72761397D01*
X142150889Y-72761396D01*
X142094854Y-72686542D01*
X142063260Y-72644337D01*
X141946205Y-72556711D01*
X141877702Y-72531161D01*
X141809201Y-72505611D01*
X141748638Y-72499100D01*
X140151362Y-72499100D01*
X140090799Y-72505611D01*
X139953794Y-72556711D01*
X139836738Y-72644338D01*
X139749111Y-72761394D01*
X139725723Y-72824100D01*
X139698011Y-72898399D01*
X139691500Y-72958962D01*
X139691500Y-73956238D01*
X137307995Y-73956238D01*
X137308000Y-73956189D01*
X137308000Y-73711600D01*
X136304000Y-73711600D01*
X135796000Y-73711600D01*
X135796000Y-72499600D01*
X136304000Y-72499600D01*
X136304000Y-73203600D01*
X137308000Y-73203600D01*
X137308000Y-72959011D01*
X137301494Y-72898506D01*
X137250445Y-72761637D01*
X137162904Y-72644695D01*
X137045962Y-72557154D01*
X136909093Y-72506105D01*
X136848589Y-72499600D01*
X136304000Y-72499600D01*
X135796000Y-72499600D01*
X135251411Y-72499600D01*
X135190906Y-72506105D01*
X135054037Y-72557154D01*
X134937095Y-72644695D01*
X134849554Y-72761636D01*
X134793322Y-72912402D01*
X134759130Y-72962406D01*
X134705554Y-72990675D01*
X134644977Y-72990674D01*
X134591402Y-72962405D01*
X134557210Y-72912401D01*
X134551989Y-72898404D01*
X134551989Y-72898399D01*
X134500889Y-72761396D01*
X134479466Y-72732778D01*
X134413261Y-72644338D01*
X134296205Y-72556711D01*
X134227702Y-72531161D01*
X134159201Y-72505611D01*
X134098638Y-72499100D01*
X132501362Y-72499100D01*
X132440799Y-72505611D01*
X132303794Y-72556711D01*
X132186738Y-72644338D01*
X132099111Y-72761394D01*
X132075723Y-72824100D01*
X132048011Y-72898399D01*
X132041500Y-72958962D01*
X132041500Y-73956238D01*
X132048011Y-74016801D01*
X132062613Y-74055950D01*
X132099111Y-74153805D01*
X132186738Y-74270861D01*
X132303794Y-74358488D01*
X132303795Y-74358488D01*
X132303796Y-74358489D01*
X132440799Y-74409589D01*
X132501362Y-74416100D01*
X133739606Y-74416100D01*
X133787824Y-74425691D01*
X133828701Y-74453005D01*
X135053120Y-75677424D01*
X135082081Y-75722487D01*
X135089704Y-75775508D01*
X135074613Y-75826904D01*
X135039534Y-75867387D01*
X134936738Y-75944338D01*
X134849111Y-76061394D01*
X134837711Y-76091960D01*
X134799263Y-76195044D01*
X134793056Y-76211685D01*
X134758864Y-76261689D01*
X134705288Y-76289958D01*
X134644712Y-76289958D01*
X134591136Y-76261689D01*
X134556944Y-76211685D01*
X134550737Y-76195044D01*
X134500889Y-76061396D01*
X134500888Y-76061394D01*
X134413261Y-75944338D01*
X134296205Y-75856711D01*
X134188395Y-75816500D01*
X134159201Y-75805611D01*
X134098638Y-75799100D01*
X132501362Y-75799100D01*
X132440799Y-75805611D01*
X132303794Y-75856711D01*
X132186738Y-75944338D01*
X132099111Y-76061394D01*
X132048011Y-76198399D01*
X132041500Y-76258962D01*
X132041500Y-77256238D01*
X129658500Y-77256238D01*
X129658500Y-76258962D01*
X129651989Y-76198399D01*
X129600889Y-76061396D01*
X129600888Y-76061394D01*
X129513261Y-75944338D01*
X129396205Y-75856711D01*
X129288395Y-75816500D01*
X129259201Y-75805611D01*
X129198638Y-75799100D01*
X129159500Y-75799100D01*
X129096500Y-75782219D01*
X129050381Y-75736100D01*
X129033500Y-75673100D01*
X129033500Y-75408544D01*
X129035794Y-75387759D01*
X129033562Y-75316728D01*
X129033500Y-75312770D01*
X129033500Y-75284843D01*
X129033500Y-75284839D01*
X129032992Y-75280819D01*
X129032061Y-75268990D01*
X129030673Y-75224805D01*
X129025020Y-75205351D01*
X129021012Y-75185994D01*
X129018474Y-75165898D01*
X129002197Y-75124787D01*
X128998358Y-75113577D01*
X128986018Y-75071101D01*
X128975700Y-75053656D01*
X128967008Y-75035911D01*
X128959552Y-75017078D01*
X128959551Y-75017076D01*
X128933564Y-74981308D01*
X128927046Y-74971385D01*
X128915086Y-74951161D01*
X128904542Y-74933332D01*
X128890213Y-74919003D01*
X128877376Y-74903972D01*
X128865473Y-74887588D01*
X128831406Y-74859406D01*
X128822626Y-74851416D01*
X128601905Y-74630695D01*
X128571167Y-74580536D01*
X128566551Y-74521889D01*
X128589064Y-74467539D01*
X128633797Y-74429333D01*
X128691000Y-74415600D01*
X129198589Y-74415600D01*
X129259093Y-74409094D01*
X129395962Y-74358045D01*
X129512904Y-74270504D01*
X129600445Y-74153562D01*
X129651494Y-74016693D01*
X129658000Y-73956189D01*
X129658000Y-73711600D01*
X128272000Y-73711600D01*
X128209000Y-73694719D01*
X128162881Y-73648600D01*
X128146000Y-73585600D01*
X128146000Y-72499600D01*
X128654000Y-72499600D01*
X128654000Y-73203600D01*
X129658000Y-73203600D01*
X129658000Y-72959011D01*
X129651494Y-72898506D01*
X129600445Y-72761637D01*
X129512904Y-72644695D01*
X129395962Y-72557154D01*
X129259093Y-72506105D01*
X129198589Y-72499600D01*
X128654000Y-72499600D01*
X128146000Y-72499600D01*
X127601411Y-72499600D01*
X127540906Y-72506105D01*
X127404037Y-72557154D01*
X127287095Y-72644695D01*
X127199554Y-72761637D01*
X127142975Y-72913334D01*
X127139864Y-72912173D01*
X127123120Y-72953104D01*
X127066228Y-72993740D01*
X126996431Y-72997791D01*
X126935220Y-72964010D01*
X118598961Y-64627751D01*
X127347802Y-64627751D01*
X127357847Y-65171240D01*
X127357847Y-65171250D01*
X127357848Y-65171253D01*
X127384233Y-65455994D01*
X127408006Y-65712540D01*
X127497998Y-66248625D01*
X127627337Y-66776604D01*
X127795319Y-67293596D01*
X127795320Y-67293597D01*
X128001022Y-67796769D01*
X128112250Y-68020145D01*
X128243322Y-68283375D01*
X128263138Y-68316741D01*
X128520900Y-68750759D01*
X128520903Y-68750763D01*
X128832231Y-69196360D01*
X128832236Y-69196366D01*
X129175631Y-69617763D01*
X129549210Y-70012649D01*
X129820985Y-70260405D01*
X129950931Y-70378867D01*
X130378602Y-70714416D01*
X130829891Y-71017469D01*
X131302315Y-71286355D01*
X131302319Y-71286357D01*
X131559140Y-71408369D01*
X131793320Y-71519625D01*
X132300205Y-71715994D01*
X132490845Y-71774064D01*
X132820213Y-71874392D01*
X133350496Y-71993954D01*
X133888162Y-72074027D01*
X134430272Y-72114173D01*
X134837909Y-72114173D01*
X134837910Y-72114173D01*
X135245294Y-72099109D01*
X135696599Y-72048862D01*
X135785543Y-72038960D01*
X135785544Y-72038959D01*
X135785551Y-72038959D01*
X136319890Y-71939074D01*
X136845394Y-71799999D01*
X137359191Y-71622494D01*
X137858477Y-71407529D01*
X138340522Y-71156277D01*
X138564711Y-71017465D01*
X138802691Y-70870115D01*
X139100147Y-70654000D01*
X143392000Y-70654000D01*
X143392000Y-71198589D01*
X143398505Y-71259093D01*
X143449554Y-71395962D01*
X143537095Y-71512904D01*
X143654037Y-71600445D01*
X143790906Y-71651494D01*
X143851411Y-71658000D01*
X144096000Y-71658000D01*
X144096000Y-70654000D01*
X143392000Y-70654000D01*
X139100147Y-70654000D01*
X139242474Y-70550593D01*
X139445431Y-70378867D01*
X139657454Y-70199470D01*
X139711921Y-70146000D01*
X143392000Y-70146000D01*
X144096000Y-70146000D01*
X144096000Y-69142000D01*
X144604000Y-69142000D01*
X144604000Y-70146000D01*
X145308000Y-70146000D01*
X145308000Y-69601411D01*
X145301494Y-69540906D01*
X145250445Y-69404037D01*
X145162904Y-69287095D01*
X145045962Y-69199554D01*
X144909093Y-69148505D01*
X144848589Y-69142000D01*
X144604000Y-69142000D01*
X144096000Y-69142000D01*
X143851411Y-69142000D01*
X143790906Y-69148505D01*
X143654037Y-69199554D01*
X143537095Y-69287095D01*
X143449554Y-69404037D01*
X143398505Y-69540906D01*
X143392000Y-69601411D01*
X143392000Y-70146000D01*
X139711921Y-70146000D01*
X140045369Y-69818658D01*
X140404101Y-69410238D01*
X140731690Y-68976439D01*
X141026348Y-68519632D01*
X141062523Y-68453251D01*
X141286460Y-68042319D01*
X141286464Y-68042312D01*
X141510619Y-67547084D01*
X141697588Y-67036655D01*
X141846350Y-66513811D01*
X141890703Y-66298638D01*
X143391500Y-66298638D01*
X143398011Y-66359200D01*
X143449111Y-66496205D01*
X143536738Y-66613261D01*
X143653794Y-66700888D01*
X143653795Y-66700888D01*
X143653796Y-66700889D01*
X143790799Y-66751989D01*
X143851362Y-66758500D01*
X144848638Y-66758500D01*
X144909201Y-66751989D01*
X145046204Y-66700889D01*
X145163261Y-66613261D01*
X145250889Y-66496204D01*
X145301989Y-66359201D01*
X145308500Y-66298638D01*
X145308500Y-65339594D01*
X145318091Y-65291376D01*
X145345405Y-65250499D01*
X145974771Y-64621133D01*
X146646543Y-63949360D01*
X146691604Y-63920401D01*
X146744625Y-63912778D01*
X146796022Y-63927870D01*
X146836505Y-63962949D01*
X146836739Y-63963262D01*
X146953793Y-64050888D01*
X146970030Y-64056944D01*
X147020034Y-64091136D01*
X147048302Y-64144712D01*
X147048302Y-64205288D01*
X147020034Y-64258864D01*
X146970030Y-64293056D01*
X146953793Y-64299111D01*
X146836738Y-64386738D01*
X146749111Y-64503794D01*
X146698011Y-64640799D01*
X146691500Y-64701362D01*
X146691500Y-66298638D01*
X146698011Y-66359200D01*
X146749111Y-66496205D01*
X146836738Y-66613261D01*
X146953794Y-66700888D01*
X146953795Y-66700888D01*
X146953796Y-66700889D01*
X147090799Y-66751989D01*
X147151362Y-66758500D01*
X148148638Y-66758500D01*
X148209201Y-66751989D01*
X148346204Y-66700889D01*
X148463261Y-66613261D01*
X148550889Y-66496204D01*
X148601989Y-66359201D01*
X148608500Y-66298638D01*
X148608500Y-66167852D01*
X148627067Y-66102017D01*
X148677297Y-66055585D01*
X148744386Y-66042240D01*
X148808560Y-66065915D01*
X148843248Y-66091118D01*
X149017712Y-66168794D01*
X149204513Y-66208500D01*
X149395485Y-66208500D01*
X149395487Y-66208500D01*
X149582288Y-66168794D01*
X149756752Y-66091118D01*
X149911253Y-65978866D01*
X150039040Y-65836944D01*
X150134527Y-65671556D01*
X150193542Y-65489928D01*
X150213504Y-65300000D01*
X150193542Y-65110072D01*
X150134527Y-64928444D01*
X150134527Y-64928443D01*
X150039041Y-64763057D01*
X149911252Y-64621133D01*
X149756753Y-64508883D01*
X149756752Y-64508882D01*
X149582288Y-64431206D01*
X149395487Y-64391500D01*
X149204513Y-64391500D01*
X149079979Y-64417970D01*
X149017711Y-64431206D01*
X148877696Y-64493544D01*
X148854672Y-64503796D01*
X148843246Y-64508883D01*
X148748877Y-64577446D01*
X148695858Y-64599740D01*
X148638455Y-64596148D01*
X148588628Y-64567419D01*
X148556762Y-64519542D01*
X148550889Y-64503796D01*
X148550887Y-64503794D01*
X148550887Y-64503792D01*
X148463261Y-64386738D01*
X148440522Y-64369716D01*
X151518785Y-64369716D01*
X151549035Y-64824819D01*
X151619386Y-65275450D01*
X151729290Y-65718104D01*
X151877886Y-66149313D01*
X152064007Y-66565694D01*
X152286208Y-66964012D01*
X152414473Y-67152568D01*
X152542738Y-67341125D01*
X152831593Y-67694090D01*
X152831595Y-67694092D01*
X153150511Y-68020144D01*
X153176417Y-68042319D01*
X153458027Y-68283376D01*
X153497006Y-68316741D01*
X153868340Y-68581542D01*
X153868345Y-68581545D01*
X153868348Y-68581547D01*
X154261644Y-68812501D01*
X154261653Y-68812506D01*
X154673807Y-69007788D01*
X154673810Y-69007789D01*
X154673814Y-69007791D01*
X155101630Y-69165890D01*
X155541745Y-69285559D01*
X155990714Y-69365863D01*
X156445023Y-69406173D01*
X156787026Y-69406173D01*
X156787033Y-69406173D01*
X157128718Y-69391044D01*
X157580799Y-69330679D01*
X158025777Y-69230594D01*
X158460167Y-69091574D01*
X158460167Y-69091573D01*
X158460170Y-69091573D01*
X158880570Y-68914707D01*
X159073697Y-68812506D01*
X159283699Y-68701375D01*
X159666395Y-68453251D01*
X160025664Y-68172275D01*
X160358694Y-67860646D01*
X160662880Y-67520803D01*
X160935839Y-67155406D01*
X161175437Y-66767315D01*
X161379798Y-66359567D01*
X161547322Y-65935353D01*
X161676698Y-65497993D01*
X161766915Y-65050910D01*
X161817265Y-64597604D01*
X161823869Y-64299111D01*
X161827354Y-64141629D01*
X161825152Y-64108500D01*
X161797105Y-63686532D01*
X161726753Y-63235896D01*
X161699019Y-63124195D01*
X161616849Y-62793241D01*
X161468253Y-62362032D01*
X161282132Y-61945651D01*
X161282129Y-61945644D01*
X161059932Y-61547335D01*
X161017672Y-61485211D01*
X160977778Y-61426564D01*
X160803402Y-61170221D01*
X160514547Y-60817256D01*
X160329064Y-60627623D01*
X160195628Y-60491201D01*
X159849133Y-60194604D01*
X159477799Y-59929803D01*
X159084486Y-59698839D01*
X158672332Y-59503557D01*
X158244512Y-59345456D01*
X158005174Y-59280379D01*
X157804395Y-59225787D01*
X157418860Y-59156829D01*
X157355421Y-59145482D01*
X156963603Y-59110717D01*
X156901117Y-59105173D01*
X156559107Y-59105173D01*
X156217422Y-59120302D01*
X155765341Y-59180667D01*
X155765335Y-59180668D01*
X155765337Y-59180668D01*
X155320362Y-59280751D01*
X154885969Y-59419772D01*
X154465569Y-59596638D01*
X154062439Y-59809971D01*
X153679745Y-60058094D01*
X153320479Y-60339068D01*
X152987448Y-60650697D01*
X152683254Y-60990549D01*
X152410305Y-61355933D01*
X152170702Y-61744032D01*
X151966341Y-62151780D01*
X151798819Y-62575990D01*
X151669439Y-63013362D01*
X151579225Y-63460429D01*
X151528874Y-63913745D01*
X151518785Y-64369716D01*
X148440522Y-64369716D01*
X148346204Y-64299110D01*
X148329971Y-64293056D01*
X148279966Y-64258864D01*
X148251697Y-64205288D01*
X148251697Y-64144712D01*
X148279966Y-64091136D01*
X148329971Y-64056944D01*
X148346204Y-64050889D01*
X148463261Y-63963261D01*
X148500328Y-63913745D01*
X148550889Y-63846204D01*
X148601989Y-63709201D01*
X148608500Y-63648638D01*
X148608500Y-62051362D01*
X148601989Y-61990799D01*
X148550889Y-61853796D01*
X148550888Y-61853794D01*
X148463261Y-61736738D01*
X148346205Y-61649111D01*
X148277702Y-61623561D01*
X148209201Y-61598011D01*
X148148638Y-61591500D01*
X147151362Y-61591500D01*
X147090799Y-61598011D01*
X146953794Y-61649111D01*
X146836738Y-61736738D01*
X146749111Y-61853794D01*
X146698011Y-61990799D01*
X146691500Y-62051362D01*
X146691500Y-62141752D01*
X146680064Y-62194203D01*
X146647831Y-62237133D01*
X146600655Y-62262747D01*
X146597724Y-62263599D01*
X146596406Y-62263982D01*
X146578964Y-62274297D01*
X146561217Y-62282990D01*
X146542384Y-62290446D01*
X146506611Y-62316437D01*
X146496693Y-62322951D01*
X146458639Y-62345457D01*
X146444312Y-62359783D01*
X146429283Y-62372618D01*
X146412894Y-62384525D01*
X146384701Y-62418604D01*
X146376714Y-62427380D01*
X145523093Y-63281001D01*
X145472936Y-63311738D01*
X145414289Y-63316354D01*
X145359939Y-63293841D01*
X145321733Y-63249108D01*
X145308000Y-63191905D01*
X145308000Y-63104000D01*
X143392000Y-63104000D01*
X143392000Y-63648589D01*
X143398505Y-63709093D01*
X143449554Y-63845962D01*
X143537095Y-63962904D01*
X143654036Y-64050444D01*
X143670745Y-64056677D01*
X143720748Y-64090869D01*
X143749017Y-64144444D01*
X143749018Y-64205020D01*
X143720749Y-64258596D01*
X143670746Y-64292788D01*
X143653795Y-64299110D01*
X143536738Y-64386738D01*
X143449111Y-64503794D01*
X143398011Y-64640799D01*
X143391500Y-64701362D01*
X143391500Y-66298638D01*
X141890703Y-66298638D01*
X141956092Y-65981408D01*
X142026216Y-65442355D01*
X142056337Y-64899595D01*
X142046292Y-64356093D01*
X141996135Y-63814816D01*
X141936644Y-63460429D01*
X141906141Y-63278720D01*
X141776802Y-62750741D01*
X141726523Y-62596000D01*
X143392000Y-62596000D01*
X144096000Y-62596000D01*
X144096000Y-61592000D01*
X144604000Y-61592000D01*
X144604000Y-62596000D01*
X145308000Y-62596000D01*
X145308000Y-62051411D01*
X145301494Y-61990906D01*
X145250445Y-61854037D01*
X145162904Y-61737095D01*
X145045962Y-61649554D01*
X144909093Y-61598505D01*
X144848589Y-61592000D01*
X144604000Y-61592000D01*
X144096000Y-61592000D01*
X143851411Y-61592000D01*
X143790906Y-61598505D01*
X143654037Y-61649554D01*
X143537095Y-61737095D01*
X143449554Y-61854037D01*
X143398505Y-61990906D01*
X143392000Y-62051411D01*
X143392000Y-62596000D01*
X141726523Y-62596000D01*
X141692306Y-62490691D01*
X141608820Y-62233749D01*
X141403118Y-61730577D01*
X141160817Y-61243970D01*
X140883240Y-60776587D01*
X140577555Y-60339068D01*
X140571908Y-60330985D01*
X140571904Y-60330980D01*
X140228509Y-59909583D01*
X139854930Y-59514697D01*
X139453209Y-59148479D01*
X139449390Y-59145483D01*
X139025537Y-58812929D01*
X138574248Y-58509876D01*
X138101824Y-58240990D01*
X137610819Y-58007720D01*
X137103934Y-57811351D01*
X136583924Y-57652952D01*
X136497180Y-57633394D01*
X136435782Y-57599559D01*
X136401969Y-57538149D01*
X136406209Y-57468173D01*
X136447185Y-57411298D01*
X136553239Y-57328210D01*
X136791607Y-57089842D01*
X136999506Y-56824479D01*
X137173903Y-56535991D01*
X137312255Y-56228586D01*
X137412544Y-55906745D01*
X137473309Y-55575162D01*
X137485175Y-55379000D01*
X137892000Y-55379000D01*
X137892000Y-55923589D01*
X137898505Y-55984093D01*
X137949554Y-56120962D01*
X138037095Y-56237904D01*
X138154037Y-56325445D01*
X138290906Y-56376494D01*
X138351411Y-56383000D01*
X138596000Y-56383000D01*
X138596000Y-55379000D01*
X139104000Y-55379000D01*
X139104000Y-56383000D01*
X139348589Y-56383000D01*
X139409093Y-56376494D01*
X139545962Y-56325445D01*
X139662904Y-56237904D01*
X139750445Y-56120962D01*
X139801494Y-55984093D01*
X139807995Y-55923638D01*
X141191500Y-55923638D01*
X141198011Y-55984200D01*
X141249111Y-56121205D01*
X141336738Y-56238261D01*
X141453794Y-56325888D01*
X141453795Y-56325888D01*
X141453796Y-56325889D01*
X141590799Y-56376989D01*
X141651362Y-56383500D01*
X141835406Y-56383500D01*
X141883624Y-56393091D01*
X141924501Y-56420405D01*
X143354595Y-57850500D01*
X143381909Y-57891377D01*
X143391500Y-57939595D01*
X143391500Y-58748638D01*
X143398011Y-58809201D01*
X143403488Y-58823884D01*
X143449111Y-58946205D01*
X143536738Y-59063261D01*
X143653794Y-59150888D01*
X143653795Y-59150888D01*
X143653796Y-59150889D01*
X143790799Y-59201989D01*
X143851362Y-59208500D01*
X144848638Y-59208500D01*
X144909201Y-59201989D01*
X145046204Y-59150889D01*
X145163261Y-59063261D01*
X145250889Y-58946204D01*
X145301989Y-58809201D01*
X145308500Y-58748638D01*
X145308500Y-57151362D01*
X145301989Y-57090799D01*
X145250889Y-56953796D01*
X145244558Y-56936821D01*
X145247074Y-56935882D01*
X145232512Y-56897890D01*
X145245320Y-56830271D01*
X145291746Y-56779469D01*
X145357941Y-56760638D01*
X145424156Y-56779397D01*
X145488114Y-56818847D01*
X145650760Y-56872743D01*
X145751161Y-56883000D01*
X145771000Y-56883000D01*
X146279000Y-56883000D01*
X146298839Y-56883000D01*
X146399239Y-56872743D01*
X146575867Y-56814214D01*
X146576299Y-56815519D01*
X146616921Y-56802746D01*
X146677660Y-56814518D01*
X146725474Y-56853783D01*
X146748833Y-56911073D01*
X146742106Y-56972576D01*
X146698011Y-57090799D01*
X146691500Y-57151362D01*
X146691500Y-58748638D01*
X146698011Y-58809201D01*
X146703488Y-58823884D01*
X146749111Y-58946205D01*
X146836738Y-59063261D01*
X146953794Y-59150888D01*
X146953795Y-59150888D01*
X146953796Y-59150889D01*
X147090799Y-59201989D01*
X147151362Y-59208500D01*
X148148638Y-59208500D01*
X148209201Y-59201989D01*
X148346204Y-59150889D01*
X148463261Y-59063261D01*
X148550889Y-58946204D01*
X148601989Y-58809201D01*
X148608500Y-58748638D01*
X148608500Y-57151362D01*
X148601989Y-57090799D01*
X148550889Y-56953796D01*
X148550888Y-56953794D01*
X148463262Y-56836739D01*
X148413120Y-56799204D01*
X148400852Y-56790020D01*
X148365772Y-56749533D01*
X148350682Y-56698129D01*
X148358313Y-56645103D01*
X148373364Y-56621692D01*
X148371553Y-56620575D01*
X148392200Y-56587101D01*
X148469302Y-56462101D01*
X148523236Y-56299336D01*
X148533500Y-56198872D01*
X148533500Y-55601128D01*
X148523236Y-55500664D01*
X148469302Y-55337899D01*
X148379285Y-55191960D01*
X148371830Y-55184505D01*
X148339806Y-55130142D01*
X148338154Y-55067066D01*
X148367287Y-55011101D01*
X148389040Y-54986944D01*
X148484527Y-54821556D01*
X148543542Y-54639928D01*
X148563504Y-54450000D01*
X148543542Y-54260072D01*
X148500966Y-54129037D01*
X148484527Y-54078443D01*
X148389041Y-53913057D01*
X148297435Y-53811318D01*
X148261253Y-53771134D01*
X148220465Y-53741500D01*
X148153359Y-53692744D01*
X148106752Y-53658882D01*
X147932288Y-53581206D01*
X147745487Y-53541500D01*
X147554513Y-53541500D01*
X147429978Y-53567970D01*
X147367711Y-53581206D01*
X147236455Y-53639645D01*
X147206754Y-53652869D01*
X147193246Y-53658883D01*
X147038747Y-53771133D01*
X146910958Y-53913057D01*
X146815472Y-54078443D01*
X146756458Y-54260070D01*
X146736496Y-54450000D01*
X146756458Y-54639929D01*
X146815472Y-54821556D01*
X146849245Y-54880052D01*
X146866124Y-54943785D01*
X146848505Y-55007317D01*
X146801212Y-55053254D01*
X146737194Y-55069018D01*
X146673979Y-55050293D01*
X146561884Y-54981152D01*
X146399239Y-54927256D01*
X146298839Y-54917000D01*
X146279000Y-54917000D01*
X146279000Y-56883000D01*
X145771000Y-56883000D01*
X145771000Y-56154000D01*
X145067000Y-56154000D01*
X145067000Y-56198839D01*
X145077256Y-56299239D01*
X145131152Y-56461885D01*
X145193867Y-56563561D01*
X145212424Y-56622582D01*
X145200651Y-56683320D01*
X145161386Y-56731132D01*
X145104096Y-56754491D01*
X145042594Y-56747764D01*
X144964554Y-56718657D01*
X144909201Y-56698011D01*
X144848638Y-56691500D01*
X144039595Y-56691500D01*
X143991377Y-56681909D01*
X143950499Y-56654595D01*
X143145404Y-55849499D01*
X143118091Y-55808622D01*
X143108500Y-55760404D01*
X143108500Y-55646000D01*
X145067000Y-55646000D01*
X145771000Y-55646000D01*
X145771000Y-54917000D01*
X145751161Y-54917000D01*
X145650760Y-54927256D01*
X145488114Y-54981152D01*
X145342268Y-55071111D01*
X145221111Y-55192268D01*
X145131152Y-55338114D01*
X145077256Y-55500760D01*
X145067000Y-55601161D01*
X145067000Y-55646000D01*
X143108500Y-55646000D01*
X143108500Y-54326362D01*
X143107257Y-54314799D01*
X143101989Y-54265799D01*
X143050889Y-54128796D01*
X143039107Y-54113057D01*
X142963261Y-54011738D01*
X142846205Y-53924111D01*
X142754669Y-53889970D01*
X142709201Y-53873011D01*
X142648638Y-53866500D01*
X141651362Y-53866500D01*
X141590799Y-53873011D01*
X141453794Y-53924111D01*
X141336738Y-54011738D01*
X141249111Y-54128794D01*
X141198011Y-54265799D01*
X141191500Y-54326362D01*
X141191500Y-55923638D01*
X139807995Y-55923638D01*
X139808000Y-55923589D01*
X139808000Y-55379000D01*
X139104000Y-55379000D01*
X138596000Y-55379000D01*
X137892000Y-55379000D01*
X137485175Y-55379000D01*
X137493663Y-55238673D01*
X137473309Y-54902184D01*
X137467594Y-54871000D01*
X137892000Y-54871000D01*
X138596000Y-54871000D01*
X138596000Y-53867000D01*
X139104000Y-53867000D01*
X139104000Y-54871000D01*
X139808000Y-54871000D01*
X139808000Y-54326411D01*
X139801494Y-54265906D01*
X139750445Y-54129037D01*
X139662904Y-54012095D01*
X139545962Y-53924554D01*
X139409093Y-53873505D01*
X139348589Y-53867000D01*
X139104000Y-53867000D01*
X138596000Y-53867000D01*
X138351411Y-53867000D01*
X138290906Y-53873505D01*
X138154037Y-53924554D01*
X138037095Y-54012095D01*
X137949554Y-54129037D01*
X137898505Y-54265906D01*
X137892000Y-54326411D01*
X137892000Y-54871000D01*
X137467594Y-54871000D01*
X137412544Y-54570601D01*
X137312255Y-54248760D01*
X137173903Y-53941355D01*
X136999506Y-53652867D01*
X136791607Y-53387504D01*
X136791605Y-53387502D01*
X136791602Y-53387498D01*
X136553244Y-53149140D01*
X136477239Y-53089594D01*
X136287876Y-52941237D01*
X136124259Y-52842327D01*
X136079325Y-52795734D01*
X136063454Y-52732978D01*
X136080837Y-52670623D01*
X136126885Y-52625128D01*
X136189445Y-52608500D01*
X136798638Y-52608500D01*
X136859201Y-52601989D01*
X136996204Y-52550889D01*
X137113261Y-52463261D01*
X137200889Y-52346204D01*
X137251989Y-52209201D01*
X137258500Y-52148638D01*
X137258500Y-52109500D01*
X137275381Y-52046500D01*
X137321500Y-52000381D01*
X137384500Y-51983500D01*
X137641147Y-51983500D01*
X137661935Y-51985795D01*
X137664907Y-51985701D01*
X137664909Y-51985702D01*
X137732985Y-51983562D01*
X137736945Y-51983500D01*
X137764852Y-51983500D01*
X137764856Y-51983500D01*
X137768865Y-51982993D01*
X137780699Y-51982061D01*
X137824889Y-51980673D01*
X137844338Y-51975021D01*
X137863698Y-51971012D01*
X137883797Y-51968474D01*
X137924915Y-51952193D01*
X137936117Y-51948357D01*
X137978593Y-51936018D01*
X137996039Y-51925699D01*
X138013780Y-51917009D01*
X138032617Y-51909552D01*
X138068392Y-51883558D01*
X138078303Y-51877048D01*
X138116362Y-51854542D01*
X138130691Y-51840212D01*
X138145719Y-51827377D01*
X138162107Y-51815472D01*
X138190298Y-51781393D01*
X138198268Y-51772634D01*
X138450499Y-51520404D01*
X138491377Y-51493091D01*
X138539595Y-51483500D01*
X139348638Y-51483500D01*
X139409201Y-51476989D01*
X139546204Y-51425889D01*
X139663261Y-51338261D01*
X139750889Y-51221204D01*
X139801989Y-51084201D01*
X139808500Y-51023638D01*
X141191500Y-51023638D01*
X141198011Y-51084201D01*
X141201589Y-51093793D01*
X141249111Y-51221205D01*
X141336738Y-51338261D01*
X141453794Y-51425888D01*
X141453795Y-51425888D01*
X141453796Y-51425889D01*
X141590799Y-51476989D01*
X141651362Y-51483500D01*
X142648638Y-51483500D01*
X142709201Y-51476989D01*
X142846204Y-51425889D01*
X142963261Y-51338261D01*
X143050889Y-51221204D01*
X143101989Y-51084201D01*
X143108500Y-51023638D01*
X143109222Y-51016923D01*
X143110412Y-51017050D01*
X143122233Y-50967813D01*
X143160439Y-50923080D01*
X143214789Y-50900567D01*
X143273436Y-50905183D01*
X143323595Y-50935921D01*
X143441956Y-51054282D01*
X143441958Y-51054283D01*
X143441960Y-51054285D01*
X143587899Y-51144302D01*
X143750664Y-51198236D01*
X143851128Y-51208500D01*
X144448868Y-51208500D01*
X144448872Y-51208500D01*
X144549336Y-51198236D01*
X144712101Y-51144302D01*
X144858040Y-51054285D01*
X144921200Y-50991125D01*
X144989699Y-50922627D01*
X144992082Y-50925010D01*
X145018767Y-50899472D01*
X145080165Y-50883500D01*
X145219777Y-50883500D01*
X145258713Y-50889667D01*
X145293834Y-50907562D01*
X145443248Y-51016118D01*
X145617712Y-51093794D01*
X145804513Y-51133500D01*
X145995485Y-51133500D01*
X145995487Y-51133500D01*
X146182288Y-51093794D01*
X146356752Y-51016118D01*
X146511253Y-50903866D01*
X146639040Y-50761944D01*
X146734527Y-50596556D01*
X146793542Y-50414928D01*
X146813504Y-50225000D01*
X146793542Y-50035072D01*
X146746654Y-49890766D01*
X146734527Y-49853443D01*
X146639041Y-49688057D01*
X146564803Y-49605607D01*
X146511253Y-49546134D01*
X146492143Y-49532250D01*
X146410918Y-49473236D01*
X146356752Y-49433882D01*
X146182288Y-49356206D01*
X145995487Y-49316500D01*
X145804513Y-49316500D01*
X145690196Y-49340799D01*
X145617711Y-49356206D01*
X145443246Y-49433883D01*
X145288747Y-49546133D01*
X145262926Y-49574811D01*
X145220539Y-49605607D01*
X145169290Y-49616500D01*
X145080165Y-49616500D01*
X145018767Y-49600528D01*
X144992086Y-49574992D01*
X144989702Y-49577377D01*
X144979286Y-49566961D01*
X144979285Y-49566960D01*
X144976068Y-49563743D01*
X144943456Y-49507260D01*
X144943456Y-49442034D01*
X144976070Y-49385548D01*
X144978891Y-49382726D01*
X145068847Y-49236885D01*
X145122743Y-49074239D01*
X145133000Y-48973839D01*
X145133000Y-48954000D01*
X143167000Y-48954000D01*
X143167000Y-48973842D01*
X143169918Y-49002408D01*
X143162438Y-49059745D01*
X143130135Y-49107704D01*
X143079812Y-49136183D01*
X143022067Y-49139186D01*
X142969061Y-49116080D01*
X142846205Y-49024111D01*
X142754669Y-48989970D01*
X142709201Y-48973011D01*
X142648638Y-48966500D01*
X141651362Y-48966500D01*
X141590799Y-48973011D01*
X141453794Y-49024111D01*
X141336738Y-49111738D01*
X141249111Y-49228794D01*
X141201589Y-49356206D01*
X141198011Y-49365799D01*
X141191500Y-49426362D01*
X141191500Y-51023638D01*
X139808500Y-51023638D01*
X139808500Y-49426362D01*
X139801989Y-49365799D01*
X139750889Y-49228796D01*
X139750888Y-49228794D01*
X139663261Y-49111738D01*
X139546205Y-49024111D01*
X139454669Y-48989970D01*
X139409201Y-48973011D01*
X139348638Y-48966500D01*
X138351362Y-48966500D01*
X138290799Y-48973011D01*
X138153794Y-49024111D01*
X138036738Y-49111738D01*
X137949111Y-49228794D01*
X137898011Y-49365799D01*
X137891500Y-49426362D01*
X137891500Y-50235405D01*
X137881909Y-50283623D01*
X137854595Y-50324500D01*
X137499500Y-50679595D01*
X137458623Y-50706909D01*
X137410405Y-50716500D01*
X137384500Y-50716500D01*
X137321500Y-50699619D01*
X137275381Y-50653500D01*
X137258500Y-50590500D01*
X137258500Y-50551362D01*
X137257252Y-50539758D01*
X137251989Y-50490799D01*
X137200889Y-50353796D01*
X137200888Y-50353794D01*
X137113261Y-50236738D01*
X136996205Y-50149111D01*
X136927702Y-50123560D01*
X136859201Y-50098011D01*
X136798638Y-50091500D01*
X135801362Y-50091500D01*
X135740799Y-50098011D01*
X135603794Y-50149111D01*
X135486738Y-50236738D01*
X135399111Y-50353794D01*
X135376309Y-50414929D01*
X135348011Y-50490799D01*
X135341500Y-50551362D01*
X135341500Y-52148638D01*
X135348011Y-52209201D01*
X135363415Y-52250499D01*
X135396524Y-52339268D01*
X135402646Y-52404649D01*
X135375039Y-52464232D01*
X135321201Y-52501832D01*
X135255756Y-52507236D01*
X135038559Y-52467433D01*
X134786268Y-52452173D01*
X134786267Y-52452173D01*
X134617873Y-52452173D01*
X134617872Y-52452173D01*
X134365581Y-52467433D01*
X134036030Y-52527826D01*
X133970585Y-52522422D01*
X133916747Y-52484822D01*
X133889140Y-52425239D01*
X133895262Y-52359857D01*
X133951494Y-52209091D01*
X133958000Y-52148589D01*
X133958000Y-51604000D01*
X133254000Y-51604000D01*
X133254000Y-52608001D01*
X133267928Y-52621929D01*
X133278082Y-52624628D01*
X133324130Y-52670123D01*
X133341513Y-52732478D01*
X133325642Y-52795234D01*
X133280707Y-52841827D01*
X133116264Y-52941237D01*
X133116087Y-52941376D01*
X132850895Y-53149140D01*
X132612537Y-53387498D01*
X132527561Y-53495962D01*
X132404634Y-53652867D01*
X132400009Y-53660518D01*
X132230236Y-53941356D01*
X132091886Y-54248756D01*
X131991595Y-54570602D01*
X131930830Y-54902184D01*
X131910477Y-55238673D01*
X131930830Y-55575161D01*
X131991595Y-55906743D01*
X132091886Y-56228589D01*
X132196982Y-56462101D01*
X132230237Y-56535991D01*
X132404634Y-56824479D01*
X132520661Y-56972576D01*
X132612537Y-57089847D01*
X132850896Y-57328206D01*
X132850900Y-57328209D01*
X132850901Y-57328210D01*
X132892874Y-57361094D01*
X132958581Y-57412572D01*
X132999163Y-57468356D01*
X133004289Y-57537150D01*
X132972420Y-57598333D01*
X132913110Y-57633563D01*
X132558751Y-57727344D01*
X132044946Y-57904852D01*
X131545662Y-58119816D01*
X131063615Y-58371070D01*
X130601448Y-58657230D01*
X130161665Y-58976752D01*
X129746691Y-59327870D01*
X129368804Y-59698839D01*
X129358771Y-59708688D01*
X129051874Y-60058094D01*
X129000034Y-60117114D01*
X128672449Y-60550907D01*
X128377789Y-61007716D01*
X128117679Y-61485026D01*
X127893518Y-61980268D01*
X127706553Y-62490684D01*
X127598776Y-62869484D01*
X127557790Y-63013535D01*
X127465673Y-63460436D01*
X127448047Y-63545945D01*
X127377923Y-64084993D01*
X127347802Y-64627751D01*
X118598961Y-64627751D01*
X117095405Y-63124195D01*
X117068091Y-63083318D01*
X117058500Y-63035100D01*
X117058500Y-61358853D01*
X117060795Y-61338064D01*
X117058562Y-61267014D01*
X117058500Y-61263055D01*
X117058500Y-61235149D01*
X117058500Y-61235144D01*
X117057992Y-61231131D01*
X117057061Y-61219297D01*
X117055673Y-61175110D01*
X117050020Y-61155656D01*
X117046012Y-61136298D01*
X117043474Y-61116203D01*
X117027195Y-61075090D01*
X117023353Y-61063869D01*
X117011018Y-61021407D01*
X117011017Y-61021406D01*
X117011017Y-61021404D01*
X117000707Y-61003971D01*
X116992008Y-60986215D01*
X116984552Y-60967383D01*
X116958565Y-60931616D01*
X116952047Y-60921693D01*
X116929542Y-60883638D01*
X116915212Y-60869308D01*
X116902378Y-60854281D01*
X116890472Y-60837893D01*
X116890471Y-60837892D01*
X116856394Y-60809700D01*
X116847616Y-60801712D01*
X115469499Y-59423595D01*
X115438761Y-59373436D01*
X115434145Y-59314789D01*
X115456658Y-59260439D01*
X115501391Y-59222233D01*
X115558594Y-59208500D01*
X116148638Y-59208500D01*
X116209201Y-59201989D01*
X116346204Y-59150889D01*
X116463261Y-59063261D01*
X116550889Y-58946204D01*
X116601989Y-58809201D01*
X116608500Y-58748638D01*
X116608500Y-57151362D01*
X116603351Y-57103474D01*
X116612204Y-57041831D01*
X116649503Y-56991953D01*
X116706135Y-56966033D01*
X116768263Y-56970405D01*
X116850762Y-56997743D01*
X116951161Y-57008000D01*
X116971000Y-57008000D01*
X116971000Y-56279000D01*
X117479000Y-56279000D01*
X117479000Y-57008000D01*
X117498839Y-57008000D01*
X117599239Y-56997743D01*
X117761885Y-56943847D01*
X117907731Y-56853888D01*
X118028888Y-56732731D01*
X118118847Y-56586885D01*
X118172743Y-56424239D01*
X118183000Y-56323839D01*
X118183000Y-56279000D01*
X117479000Y-56279000D01*
X116971000Y-56279000D01*
X116971000Y-55042000D01*
X117479000Y-55042000D01*
X117479000Y-55771000D01*
X118183000Y-55771000D01*
X118183000Y-55726161D01*
X118172743Y-55625760D01*
X118118847Y-55463114D01*
X118051545Y-55354000D01*
X126217000Y-55354000D01*
X126217000Y-55898589D01*
X126223505Y-55959093D01*
X126274554Y-56095962D01*
X126362095Y-56212904D01*
X126479037Y-56300445D01*
X126615906Y-56351494D01*
X126676411Y-56358000D01*
X126921000Y-56358000D01*
X126921000Y-55354000D01*
X127429000Y-55354000D01*
X127429000Y-56358000D01*
X127673589Y-56358000D01*
X127734093Y-56351494D01*
X127870962Y-56300445D01*
X127987904Y-56212904D01*
X128075445Y-56095962D01*
X128126494Y-55959093D01*
X128132995Y-55898638D01*
X129516500Y-55898638D01*
X129523011Y-55959201D01*
X129532335Y-55984200D01*
X129574111Y-56096205D01*
X129661738Y-56213261D01*
X129778794Y-56300888D01*
X129778795Y-56300888D01*
X129778796Y-56300889D01*
X129915799Y-56351989D01*
X129976362Y-56358500D01*
X130973638Y-56358500D01*
X131034201Y-56351989D01*
X131171204Y-56300889D01*
X131288261Y-56213261D01*
X131375889Y-56096204D01*
X131426989Y-55959201D01*
X131433500Y-55898638D01*
X131433500Y-54301362D01*
X131426989Y-54240799D01*
X131375889Y-54103796D01*
X131375888Y-54103794D01*
X131288262Y-53986739D01*
X131226269Y-53940332D01*
X131171204Y-53899111D01*
X131171202Y-53899110D01*
X131158992Y-53889970D01*
X131121828Y-53845501D01*
X131108500Y-53789101D01*
X131108500Y-52339594D01*
X131118091Y-52291376D01*
X131145405Y-52250499D01*
X131826905Y-51568999D01*
X131877064Y-51538261D01*
X131935711Y-51533645D01*
X131990061Y-51556158D01*
X132028267Y-51600891D01*
X132042000Y-51658094D01*
X132042000Y-52148589D01*
X132048505Y-52209093D01*
X132099554Y-52345962D01*
X132187095Y-52462904D01*
X132304037Y-52550445D01*
X132440906Y-52601494D01*
X132501411Y-52608000D01*
X132746000Y-52608000D01*
X132746000Y-51222000D01*
X132762881Y-51159000D01*
X132809000Y-51112881D01*
X132872000Y-51096000D01*
X133958000Y-51096000D01*
X133958000Y-50551411D01*
X133951494Y-50490906D01*
X133900445Y-50354037D01*
X133812904Y-50237095D01*
X133695962Y-50149554D01*
X133549899Y-50095076D01*
X133499358Y-50060278D01*
X133471246Y-50005734D01*
X133472232Y-49944379D01*
X133502082Y-49890766D01*
X133516586Y-49875321D01*
X133526343Y-49857570D01*
X133537199Y-49841043D01*
X133549613Y-49825041D01*
X133567172Y-49784461D01*
X133572392Y-49773809D01*
X133593694Y-49735061D01*
X133593695Y-49735060D01*
X133598732Y-49715439D01*
X133605138Y-49696730D01*
X133613181Y-49678145D01*
X133620096Y-49634477D01*
X133622504Y-49622853D01*
X133623964Y-49617167D01*
X133633500Y-49580030D01*
X133633500Y-49559776D01*
X133635051Y-49540066D01*
X133638220Y-49520057D01*
X133634059Y-49476039D01*
X133633500Y-49464181D01*
X133633500Y-48446000D01*
X143167000Y-48446000D01*
X143896000Y-48446000D01*
X143896000Y-47742000D01*
X144404000Y-47742000D01*
X144404000Y-48446000D01*
X145133000Y-48446000D01*
X145133000Y-48426161D01*
X145122743Y-48325760D01*
X145068847Y-48163114D01*
X144978888Y-48017268D01*
X144857731Y-47896111D01*
X144711885Y-47806152D01*
X144549239Y-47752256D01*
X144448839Y-47742000D01*
X144404000Y-47742000D01*
X143896000Y-47742000D01*
X143851161Y-47742000D01*
X143750760Y-47752256D01*
X143588114Y-47806152D01*
X143442268Y-47896111D01*
X143321111Y-48017268D01*
X143231152Y-48163114D01*
X143177256Y-48325760D01*
X143167000Y-48426161D01*
X143167000Y-48446000D01*
X133633500Y-48446000D01*
X133633500Y-47760899D01*
X133646828Y-47704499D01*
X133683992Y-47660030D01*
X133696201Y-47650889D01*
X133696204Y-47650889D01*
X133813261Y-47563261D01*
X133900889Y-47446204D01*
X133951989Y-47309201D01*
X133958500Y-47248638D01*
X135341500Y-47248638D01*
X135348011Y-47309201D01*
X135355748Y-47329945D01*
X135399111Y-47446205D01*
X135486738Y-47563261D01*
X135603794Y-47650888D01*
X135603795Y-47650888D01*
X135603796Y-47650889D01*
X135740799Y-47701989D01*
X135801362Y-47708500D01*
X136798638Y-47708500D01*
X136859201Y-47701989D01*
X136996204Y-47650889D01*
X137113261Y-47563261D01*
X137200889Y-47446204D01*
X137251989Y-47309201D01*
X137258500Y-47248638D01*
X137258500Y-47209500D01*
X137275381Y-47146500D01*
X137321500Y-47100381D01*
X137384500Y-47083500D01*
X137504185Y-47083500D01*
X137543121Y-47089667D01*
X137578246Y-47107564D01*
X137579807Y-47108698D01*
X137693248Y-47191118D01*
X137867712Y-47268794D01*
X138054513Y-47308500D01*
X138245485Y-47308500D01*
X138245487Y-47308500D01*
X138432288Y-47268794D01*
X138606752Y-47191118D01*
X138761253Y-47078866D01*
X138889040Y-46936944D01*
X138984527Y-46771556D01*
X139043542Y-46589928D01*
X139063504Y-46400000D01*
X139043542Y-46210072D01*
X138998845Y-46072509D01*
X138984527Y-46028443D01*
X138889041Y-45863057D01*
X138761252Y-45721133D01*
X138606753Y-45608883D01*
X138606752Y-45608882D01*
X138432288Y-45531206D01*
X138245487Y-45491500D01*
X138054513Y-45491500D01*
X137929978Y-45517970D01*
X137867711Y-45531206D01*
X137693246Y-45608883D01*
X137538748Y-45721132D01*
X137518658Y-45743444D01*
X137490414Y-45774812D01*
X137448030Y-45805607D01*
X137396781Y-45816500D01*
X137384500Y-45816500D01*
X137321500Y-45799619D01*
X137275381Y-45753500D01*
X137258500Y-45690500D01*
X137258500Y-45651362D01*
X137257666Y-45643602D01*
X137251989Y-45590799D01*
X137200889Y-45453796D01*
X137200888Y-45453794D01*
X137113261Y-45336738D01*
X136996205Y-45249111D01*
X136890545Y-45209702D01*
X136859201Y-45198011D01*
X136798638Y-45191500D01*
X135801362Y-45191500D01*
X135740799Y-45198011D01*
X135603794Y-45249111D01*
X135486738Y-45336738D01*
X135399111Y-45453794D01*
X135381876Y-45500004D01*
X135348011Y-45590799D01*
X135341500Y-45651362D01*
X135341500Y-47248638D01*
X133958500Y-47248638D01*
X133958500Y-45651362D01*
X133951989Y-45590799D01*
X133900889Y-45453796D01*
X133900888Y-45453794D01*
X133813261Y-45336738D01*
X133696205Y-45249111D01*
X133590545Y-45209702D01*
X133559201Y-45198011D01*
X133498638Y-45191500D01*
X132501362Y-45191500D01*
X132440799Y-45198011D01*
X132303794Y-45249111D01*
X132186738Y-45336738D01*
X132099111Y-45453794D01*
X132081876Y-45500004D01*
X132048011Y-45590799D01*
X132041500Y-45651362D01*
X132041500Y-47248638D01*
X132048011Y-47309201D01*
X132055748Y-47329945D01*
X132099111Y-47446205D01*
X132186737Y-47563260D01*
X132235814Y-47599998D01*
X132303796Y-47650889D01*
X132303797Y-47650889D01*
X132316008Y-47660030D01*
X132353172Y-47704499D01*
X132366500Y-47760899D01*
X132366500Y-49185405D01*
X132356909Y-49233623D01*
X132329595Y-49274500D01*
X131648595Y-49955500D01*
X131598436Y-49986238D01*
X131539789Y-49990854D01*
X131485439Y-49968341D01*
X131447233Y-49923608D01*
X131433500Y-49866405D01*
X131433500Y-49401362D01*
X131431496Y-49382726D01*
X131426989Y-49340799D01*
X131375889Y-49203796D01*
X131374917Y-49202497D01*
X131288262Y-49086739D01*
X131204600Y-49024111D01*
X131171204Y-48999111D01*
X131171202Y-48999110D01*
X131158992Y-48989970D01*
X131121828Y-48945501D01*
X131108500Y-48889101D01*
X131108500Y-48880290D01*
X131116869Y-48835135D01*
X131140862Y-48795980D01*
X131239040Y-48686944D01*
X131334527Y-48521556D01*
X131393542Y-48339928D01*
X131413504Y-48150000D01*
X131393542Y-47960072D01*
X131355165Y-47841960D01*
X131334527Y-47778443D01*
X131239041Y-47613057D01*
X131111252Y-47471133D01*
X130956753Y-47358883D01*
X130956752Y-47358882D01*
X130782288Y-47281206D01*
X130595487Y-47241500D01*
X130404513Y-47241500D01*
X130279978Y-47267970D01*
X130217711Y-47281206D01*
X130043246Y-47358883D01*
X129888747Y-47471133D01*
X129760958Y-47613057D01*
X129665472Y-47778443D01*
X129606458Y-47960070D01*
X129586496Y-48150000D01*
X129606458Y-48339929D01*
X129665472Y-48521556D01*
X129760958Y-48686942D01*
X129760960Y-48686944D01*
X129809137Y-48740451D01*
X129833131Y-48779604D01*
X129841500Y-48824759D01*
X129841500Y-48889101D01*
X129828172Y-48945501D01*
X129791008Y-48989970D01*
X129778797Y-48999110D01*
X129778796Y-48999111D01*
X129774392Y-49002408D01*
X129661737Y-49086739D01*
X129574111Y-49203794D01*
X129523010Y-49340799D01*
X129523011Y-49340799D01*
X129516500Y-49401362D01*
X129516500Y-50998638D01*
X129523011Y-51059201D01*
X129543033Y-51112881D01*
X129574111Y-51196205D01*
X129661738Y-51313261D01*
X129778794Y-51400888D01*
X129778795Y-51400888D01*
X129778796Y-51400889D01*
X129907344Y-51448835D01*
X129957882Y-51483630D01*
X129985994Y-51538172D01*
X129985010Y-51599524D01*
X129965140Y-51635218D01*
X129966080Y-51635735D01*
X129948652Y-51667434D01*
X129937801Y-51683952D01*
X129925385Y-51699959D01*
X129907824Y-51740539D01*
X129902604Y-51751195D01*
X129881304Y-51789940D01*
X129876267Y-51809559D01*
X129869864Y-51828261D01*
X129861818Y-51846855D01*
X129854901Y-51890524D01*
X129852495Y-51902144D01*
X129841500Y-51944970D01*
X129841500Y-51965224D01*
X129839949Y-51984934D01*
X129836779Y-52004942D01*
X129840941Y-52048961D01*
X129841500Y-52060819D01*
X129841500Y-53789101D01*
X129828172Y-53845501D01*
X129791008Y-53889970D01*
X129778797Y-53899110D01*
X129778796Y-53899111D01*
X129745536Y-53924009D01*
X129661737Y-53986739D01*
X129574111Y-54103794D01*
X129551398Y-54164691D01*
X129523011Y-54240799D01*
X129516500Y-54301362D01*
X129516500Y-55898638D01*
X128132995Y-55898638D01*
X128133000Y-55898589D01*
X128133000Y-55354000D01*
X127429000Y-55354000D01*
X126921000Y-55354000D01*
X126217000Y-55354000D01*
X118051545Y-55354000D01*
X118028888Y-55317268D01*
X117907731Y-55196111D01*
X117761885Y-55106152D01*
X117599239Y-55052256D01*
X117498839Y-55042000D01*
X117479000Y-55042000D01*
X116971000Y-55042000D01*
X116951161Y-55042000D01*
X116850763Y-55052256D01*
X116721626Y-55095048D01*
X116653115Y-55098089D01*
X116593158Y-55064797D01*
X116559518Y-55005035D01*
X116562161Y-54936507D01*
X116565167Y-54927256D01*
X116591569Y-54846000D01*
X126217000Y-54846000D01*
X126921000Y-54846000D01*
X126921000Y-53842000D01*
X127429000Y-53842000D01*
X127429000Y-54846000D01*
X128133000Y-54846000D01*
X128133000Y-54301411D01*
X128126494Y-54240906D01*
X128075445Y-54104037D01*
X127987904Y-53987095D01*
X127870962Y-53899554D01*
X127734093Y-53848505D01*
X127673589Y-53842000D01*
X127429000Y-53842000D01*
X126921000Y-53842000D01*
X126676411Y-53842000D01*
X126615906Y-53848505D01*
X126479037Y-53899554D01*
X126362095Y-53987095D01*
X126274554Y-54104037D01*
X126223505Y-54240906D01*
X126217000Y-54301411D01*
X126217000Y-54846000D01*
X116591569Y-54846000D01*
X116593542Y-54839928D01*
X116613504Y-54650000D01*
X116593542Y-54460072D01*
X116546340Y-54314799D01*
X116534527Y-54278443D01*
X116439041Y-54113057D01*
X116325304Y-53986739D01*
X116311253Y-53971134D01*
X116294827Y-53959200D01*
X116188257Y-53881772D01*
X116156752Y-53858882D01*
X115982288Y-53781206D01*
X115795487Y-53741500D01*
X115604513Y-53741500D01*
X115479978Y-53767970D01*
X115417711Y-53781206D01*
X115243246Y-53858883D01*
X115088747Y-53971133D01*
X114960958Y-54113057D01*
X114865472Y-54278443D01*
X114806458Y-54460070D01*
X114786496Y-54650000D01*
X114806458Y-54839929D01*
X114865472Y-55021555D01*
X114927175Y-55128427D01*
X114943576Y-55180445D01*
X114936458Y-55234521D01*
X114907152Y-55280522D01*
X114870716Y-55316958D01*
X114857667Y-55338114D01*
X114780698Y-55462899D01*
X114726764Y-55625664D01*
X114716500Y-55726128D01*
X114716500Y-56323872D01*
X114726764Y-56424336D01*
X114780698Y-56587101D01*
X114822329Y-56654595D01*
X114845409Y-56692013D01*
X114862672Y-56738801D01*
X114860431Y-56788621D01*
X114839036Y-56833669D01*
X114749111Y-56953794D01*
X114698011Y-57090799D01*
X114691500Y-57151362D01*
X114691500Y-58341405D01*
X114677767Y-58398608D01*
X114639561Y-58443341D01*
X114585211Y-58465854D01*
X114526564Y-58461238D01*
X114476405Y-58430500D01*
X113607244Y-57561339D01*
X113594171Y-57545021D01*
X113585789Y-57537150D01*
X113542348Y-57496356D01*
X113539537Y-57493632D01*
X113519770Y-57473865D01*
X113516575Y-57471386D01*
X113507553Y-57463681D01*
X113475320Y-57433413D01*
X113457567Y-57423653D01*
X113441041Y-57412797D01*
X113425041Y-57400386D01*
X113384466Y-57382828D01*
X113384725Y-57382228D01*
X113346132Y-57357005D01*
X113318288Y-57315879D01*
X113308500Y-57267188D01*
X113308500Y-57151362D01*
X113303352Y-57103480D01*
X113301989Y-57090799D01*
X113250889Y-56953796D01*
X113250888Y-56953794D01*
X113163261Y-56836738D01*
X113046205Y-56749111D01*
X112977702Y-56723560D01*
X112909201Y-56698011D01*
X112848638Y-56691500D01*
X111851362Y-56691500D01*
X111790799Y-56698011D01*
X111653794Y-56749111D01*
X111536738Y-56836738D01*
X111449111Y-56953794D01*
X111416275Y-57041831D01*
X111398011Y-57090799D01*
X111391500Y-57151362D01*
X111391500Y-58748638D01*
X111398011Y-58809201D01*
X111403488Y-58823884D01*
X111449111Y-58946205D01*
X111536738Y-59063261D01*
X111653794Y-59150888D01*
X111653795Y-59150888D01*
X111653796Y-59150889D01*
X111790799Y-59201989D01*
X111851362Y-59208500D01*
X112848638Y-59208500D01*
X112909201Y-59201989D01*
X113046204Y-59150889D01*
X113163261Y-59063261D01*
X113163261Y-59063259D01*
X113163983Y-59062720D01*
X113218598Y-59039332D01*
X113277858Y-59043570D01*
X113328588Y-59074492D01*
X115630500Y-61376405D01*
X115661238Y-61426564D01*
X115665854Y-61485211D01*
X115643341Y-61539561D01*
X115598608Y-61577767D01*
X115541405Y-61591500D01*
X115151362Y-61591500D01*
X115090799Y-61598011D01*
X114953794Y-61649111D01*
X114836738Y-61736738D01*
X114749111Y-61853794D01*
X114698011Y-61990799D01*
X114691500Y-62051362D01*
X114691500Y-62141752D01*
X114680064Y-62194203D01*
X114647831Y-62237133D01*
X114600655Y-62262747D01*
X114597724Y-62263599D01*
X114596406Y-62263982D01*
X114578964Y-62274297D01*
X114561217Y-62282990D01*
X114542384Y-62290446D01*
X114506611Y-62316437D01*
X114496693Y-62322951D01*
X114458639Y-62345457D01*
X114444312Y-62359783D01*
X114429283Y-62372618D01*
X114412894Y-62384525D01*
X114384701Y-62418604D01*
X114376714Y-62427380D01*
X113523093Y-63281001D01*
X113472936Y-63311738D01*
X113414289Y-63316354D01*
X113359939Y-63293841D01*
X113321733Y-63249108D01*
X113308000Y-63191905D01*
X113308000Y-63104000D01*
X111392000Y-63104000D01*
X111392000Y-63648589D01*
X111398505Y-63709093D01*
X111449554Y-63845962D01*
X111537095Y-63962904D01*
X111654036Y-64050444D01*
X111670745Y-64056677D01*
X111720748Y-64090869D01*
X111749017Y-64144444D01*
X111749018Y-64205020D01*
X111720749Y-64258596D01*
X111670746Y-64292788D01*
X111653795Y-64299110D01*
X111536738Y-64386738D01*
X111449111Y-64503794D01*
X111398011Y-64640799D01*
X111391500Y-64701362D01*
X111391500Y-66298638D01*
X109886703Y-66298638D01*
X109952092Y-65981408D01*
X110022216Y-65442355D01*
X110052337Y-64899595D01*
X110042292Y-64356093D01*
X109992135Y-63814816D01*
X109932644Y-63460429D01*
X109902141Y-63278720D01*
X109772802Y-62750741D01*
X109722523Y-62596000D01*
X111392000Y-62596000D01*
X112096000Y-62596000D01*
X112096000Y-61592000D01*
X112604000Y-61592000D01*
X112604000Y-62596000D01*
X113308000Y-62596000D01*
X113308000Y-62051411D01*
X113301494Y-61990906D01*
X113250445Y-61854037D01*
X113162904Y-61737095D01*
X113045962Y-61649554D01*
X112909093Y-61598505D01*
X112848589Y-61592000D01*
X112604000Y-61592000D01*
X112096000Y-61592000D01*
X111851411Y-61592000D01*
X111790906Y-61598505D01*
X111654037Y-61649554D01*
X111537095Y-61737095D01*
X111449554Y-61854037D01*
X111398505Y-61990906D01*
X111392000Y-62051411D01*
X111392000Y-62596000D01*
X109722523Y-62596000D01*
X109688306Y-62490691D01*
X109604820Y-62233749D01*
X109399118Y-61730577D01*
X109156817Y-61243970D01*
X108879240Y-60776587D01*
X108573555Y-60339068D01*
X108567908Y-60330985D01*
X108567904Y-60330980D01*
X108224509Y-59909583D01*
X107850930Y-59514697D01*
X107449209Y-59148479D01*
X107445390Y-59145483D01*
X107021537Y-58812929D01*
X106570248Y-58509876D01*
X106097824Y-58240990D01*
X105606819Y-58007720D01*
X105099934Y-57811351D01*
X104579924Y-57652952D01*
X104493180Y-57633394D01*
X104431782Y-57599559D01*
X104397969Y-57538149D01*
X104402209Y-57468173D01*
X104443185Y-57411298D01*
X104549239Y-57328210D01*
X104787607Y-57089842D01*
X104995506Y-56824479D01*
X105169903Y-56535991D01*
X105308255Y-56228586D01*
X105408544Y-55906745D01*
X105469309Y-55575162D01*
X105489663Y-55238673D01*
X105469309Y-54902184D01*
X105408544Y-54570601D01*
X105308255Y-54248760D01*
X105169903Y-53941355D01*
X105087894Y-53805696D01*
X105069902Y-53747200D01*
X105081595Y-53687124D01*
X105120216Y-53639645D01*
X105155462Y-53613260D01*
X105243088Y-53496205D01*
X105243087Y-53496205D01*
X105243089Y-53496204D01*
X105294189Y-53359201D01*
X105294748Y-53354000D01*
X106231200Y-53354000D01*
X106231200Y-53898589D01*
X106237705Y-53959093D01*
X106288754Y-54095962D01*
X106376295Y-54212904D01*
X106493237Y-54300445D01*
X106630106Y-54351494D01*
X106690611Y-54358000D01*
X106935200Y-54358000D01*
X106935200Y-53354000D01*
X107443200Y-53354000D01*
X107443200Y-54358000D01*
X107687789Y-54358000D01*
X107748293Y-54351494D01*
X107885162Y-54300445D01*
X108002104Y-54212904D01*
X108089645Y-54095962D01*
X108140694Y-53959093D01*
X108147195Y-53898638D01*
X109530700Y-53898638D01*
X109537211Y-53959201D01*
X109556807Y-54011739D01*
X109588311Y-54096205D01*
X109675938Y-54213261D01*
X109792994Y-54300888D01*
X109792995Y-54300888D01*
X109792996Y-54300889D01*
X109929999Y-54351989D01*
X109990562Y-54358500D01*
X110987838Y-54358500D01*
X111048401Y-54351989D01*
X111185404Y-54300889D01*
X111302461Y-54213261D01*
X111390089Y-54096204D01*
X111441189Y-53959201D01*
X111447700Y-53898638D01*
X111447700Y-53089594D01*
X111457291Y-53041376D01*
X111484605Y-53000499D01*
X113614699Y-50870405D01*
X113655576Y-50843091D01*
X113703794Y-50833500D01*
X126090500Y-50833500D01*
X126153500Y-50850381D01*
X126199619Y-50896500D01*
X126216500Y-50959500D01*
X126216500Y-50998638D01*
X126223011Y-51059201D01*
X126243033Y-51112881D01*
X126274111Y-51196205D01*
X126361738Y-51313261D01*
X126478794Y-51400888D01*
X126478795Y-51400888D01*
X126478796Y-51400889D01*
X126615799Y-51451989D01*
X126676362Y-51458500D01*
X127673638Y-51458500D01*
X127734201Y-51451989D01*
X127871204Y-51400889D01*
X127988261Y-51313261D01*
X128075889Y-51196204D01*
X128126989Y-51059201D01*
X128133500Y-50998638D01*
X128133500Y-49401362D01*
X128126989Y-49340799D01*
X128075889Y-49203796D01*
X128074917Y-49202497D01*
X127988261Y-49086738D01*
X127871205Y-48999111D01*
X127764202Y-48959201D01*
X127734201Y-48948011D01*
X127673638Y-48941500D01*
X126676362Y-48941500D01*
X126615799Y-48948011D01*
X126478794Y-48999111D01*
X126361738Y-49086738D01*
X126274111Y-49203794D01*
X126223011Y-49340799D01*
X126216500Y-49401362D01*
X126216500Y-49440500D01*
X126199619Y-49503500D01*
X126153500Y-49549619D01*
X126090500Y-49566500D01*
X114760856Y-49566500D01*
X114703653Y-49552767D01*
X114658920Y-49514561D01*
X114636407Y-49460211D01*
X114641023Y-49401564D01*
X114673734Y-49300889D01*
X114693542Y-49239928D01*
X114713504Y-49050000D01*
X114693542Y-48860072D01*
X114662931Y-48765862D01*
X114634527Y-48678443D01*
X114539041Y-48513057D01*
X114411252Y-48371133D01*
X114256753Y-48258883D01*
X114256752Y-48258882D01*
X114082288Y-48181206D01*
X113895487Y-48141500D01*
X113704513Y-48141500D01*
X113517712Y-48181206D01*
X113517708Y-48181207D01*
X113504759Y-48183960D01*
X113503942Y-48180118D01*
X113459159Y-48186447D01*
X113395849Y-48158470D01*
X113356871Y-48101277D01*
X113319302Y-47987899D01*
X113229285Y-47841960D01*
X113226068Y-47838743D01*
X113193456Y-47782260D01*
X113193456Y-47717034D01*
X113226070Y-47660548D01*
X113228891Y-47657726D01*
X113318847Y-47511885D01*
X113372743Y-47349239D01*
X113383000Y-47248839D01*
X113383000Y-47229000D01*
X111472028Y-47229000D01*
X111415628Y-47215672D01*
X111371160Y-47178509D01*
X111302461Y-47086738D01*
X111185405Y-46999111D01*
X111084705Y-46961552D01*
X111048401Y-46948011D01*
X110987838Y-46941500D01*
X109990562Y-46941500D01*
X109929999Y-46948011D01*
X109792994Y-46999111D01*
X109675938Y-47086738D01*
X109588311Y-47203794D01*
X109541377Y-47329629D01*
X109537211Y-47340799D01*
X109530700Y-47401362D01*
X109530700Y-48998638D01*
X109537211Y-49059201D01*
X109556807Y-49111739D01*
X109588311Y-49196205D01*
X109675938Y-49313261D01*
X109792994Y-49400888D01*
X109792995Y-49400888D01*
X109792996Y-49400889D01*
X109929999Y-49451989D01*
X109990562Y-49458500D01*
X110987838Y-49458500D01*
X111048401Y-49451989D01*
X111185404Y-49400889D01*
X111302461Y-49313261D01*
X111359636Y-49236885D01*
X111375208Y-49216083D01*
X111415690Y-49181005D01*
X111467087Y-49165913D01*
X111520108Y-49173536D01*
X111565171Y-49202497D01*
X111691956Y-49329282D01*
X111691958Y-49329283D01*
X111691960Y-49329285D01*
X111837899Y-49419302D01*
X112000664Y-49473236D01*
X112101128Y-49483500D01*
X112410406Y-49483500D01*
X112458624Y-49493091D01*
X112499501Y-49520405D01*
X112505230Y-49526134D01*
X112508418Y-49528607D01*
X112517446Y-49536317D01*
X112549679Y-49566586D01*
X112567432Y-49576346D01*
X112583955Y-49587200D01*
X112589401Y-49591424D01*
X112599960Y-49599614D01*
X112640539Y-49617174D01*
X112651188Y-49622391D01*
X112689935Y-49643693D01*
X112689937Y-49643693D01*
X112689940Y-49643695D01*
X112709574Y-49648736D01*
X112728259Y-49655134D01*
X112746855Y-49663181D01*
X112747133Y-49663225D01*
X112749839Y-49664472D01*
X112761466Y-49669504D01*
X112761347Y-49669777D01*
X112809255Y-49691859D01*
X112847261Y-49748734D01*
X112849948Y-49817086D01*
X112816524Y-49876769D01*
X110888697Y-51804597D01*
X110847823Y-51831909D01*
X110799605Y-51841500D01*
X109990562Y-51841500D01*
X109929999Y-51848011D01*
X109792994Y-51899111D01*
X109675938Y-51986738D01*
X109588311Y-52103794D01*
X109545556Y-52218426D01*
X109537211Y-52240799D01*
X109530700Y-52301362D01*
X109530700Y-53898638D01*
X108147195Y-53898638D01*
X108147200Y-53898589D01*
X108147200Y-53354000D01*
X107443200Y-53354000D01*
X106935200Y-53354000D01*
X106231200Y-53354000D01*
X105294748Y-53354000D01*
X105300700Y-53298638D01*
X105300700Y-52846000D01*
X106231200Y-52846000D01*
X106935200Y-52846000D01*
X106935200Y-51842000D01*
X107443200Y-51842000D01*
X107443200Y-52846000D01*
X108147200Y-52846000D01*
X108147200Y-52301411D01*
X108140694Y-52240906D01*
X108089645Y-52104037D01*
X108002104Y-51987095D01*
X107885162Y-51899554D01*
X107748293Y-51848505D01*
X107687789Y-51842000D01*
X107443200Y-51842000D01*
X106935200Y-51842000D01*
X106690611Y-51842000D01*
X106630106Y-51848505D01*
X106493237Y-51899554D01*
X106376295Y-51987095D01*
X106288754Y-52104037D01*
X106237705Y-52240906D01*
X106231200Y-52301411D01*
X106231200Y-52846000D01*
X105300700Y-52846000D01*
X105300700Y-51701362D01*
X105294189Y-51640799D01*
X105243089Y-51503796D01*
X105243088Y-51503794D01*
X105155461Y-51386738D01*
X105124838Y-51363814D01*
X105082291Y-51306978D01*
X105077227Y-51236163D01*
X105111249Y-51173854D01*
X106789702Y-49495402D01*
X106830577Y-49468091D01*
X106878795Y-49458500D01*
X107687838Y-49458500D01*
X107748401Y-49451989D01*
X107885404Y-49400889D01*
X108002461Y-49313261D01*
X108090089Y-49196204D01*
X108141189Y-49059201D01*
X108147700Y-48998638D01*
X108147700Y-47401362D01*
X108141189Y-47340799D01*
X108090089Y-47203796D01*
X108090088Y-47203794D01*
X108002461Y-47086738D01*
X107885405Y-46999111D01*
X107784705Y-46961552D01*
X107748401Y-46948011D01*
X107687838Y-46941500D01*
X106690562Y-46941500D01*
X106629999Y-46948011D01*
X106492994Y-46999111D01*
X106375938Y-47086738D01*
X106288311Y-47203794D01*
X106237211Y-47340799D01*
X106230700Y-47401362D01*
X106230700Y-48210406D01*
X106221109Y-48258624D01*
X106193797Y-48299498D01*
X104322699Y-50170595D01*
X103953536Y-50539758D01*
X103937215Y-50552834D01*
X103888570Y-50604635D01*
X103885820Y-50607473D01*
X103866068Y-50627226D01*
X103866064Y-50627230D01*
X103866065Y-50627230D01*
X103863579Y-50630433D01*
X103855887Y-50639439D01*
X103825613Y-50671678D01*
X103815852Y-50689434D01*
X103805001Y-50705952D01*
X103792585Y-50721959D01*
X103775024Y-50762539D01*
X103769804Y-50773195D01*
X103748504Y-50811940D01*
X103743467Y-50831559D01*
X103737064Y-50850261D01*
X103729018Y-50868855D01*
X103722101Y-50912524D01*
X103719695Y-50924144D01*
X103708700Y-50966970D01*
X103708700Y-50987224D01*
X103707149Y-51006934D01*
X103703979Y-51026942D01*
X103708141Y-51070961D01*
X103708700Y-51082819D01*
X103708700Y-51189101D01*
X103695372Y-51245501D01*
X103658208Y-51289970D01*
X103645997Y-51299110D01*
X103645996Y-51299111D01*
X103642272Y-51301899D01*
X103528937Y-51386739D01*
X103441311Y-51503794D01*
X103390211Y-51640799D01*
X103383700Y-51701362D01*
X103383700Y-52380228D01*
X103371805Y-52433669D01*
X103338367Y-52477021D01*
X103289698Y-52502097D01*
X103234988Y-52504164D01*
X103034558Y-52467433D01*
X102782268Y-52452173D01*
X102782267Y-52452173D01*
X102613873Y-52452173D01*
X102613872Y-52452173D01*
X102361581Y-52467433D01*
X102148912Y-52506407D01*
X102094202Y-52504340D01*
X102045533Y-52479264D01*
X102012095Y-52435912D01*
X102000200Y-52382471D01*
X102000200Y-51701411D01*
X101993694Y-51640904D01*
X101942645Y-51504037D01*
X101855104Y-51387095D01*
X101738162Y-51299554D01*
X101601293Y-51248505D01*
X101540789Y-51242000D01*
X101296200Y-51242000D01*
X101296200Y-52628000D01*
X101279319Y-52691000D01*
X101233200Y-52737119D01*
X101170200Y-52754000D01*
X100084200Y-52754000D01*
X100084200Y-53298589D01*
X100090705Y-53359093D01*
X100141754Y-53495962D01*
X100229293Y-53612902D01*
X100272526Y-53645265D01*
X100311146Y-53692744D01*
X100322840Y-53752819D01*
X100304846Y-53811318D01*
X100226235Y-53941358D01*
X100087886Y-54248756D01*
X99987595Y-54570602D01*
X99926830Y-54902184D01*
X99906477Y-55238672D01*
X99926830Y-55575161D01*
X99987595Y-55906743D01*
X100087886Y-56228589D01*
X100192982Y-56462101D01*
X100226237Y-56535991D01*
X100400634Y-56824479D01*
X100516661Y-56972576D01*
X100608537Y-57089847D01*
X100846896Y-57328206D01*
X100846900Y-57328209D01*
X100846901Y-57328210D01*
X100888874Y-57361094D01*
X100954581Y-57412572D01*
X100995163Y-57468356D01*
X101000289Y-57537150D01*
X100968420Y-57598333D01*
X100909110Y-57633563D01*
X100554751Y-57727344D01*
X100040946Y-57904852D01*
X99541662Y-58119816D01*
X99059615Y-58371070D01*
X98597448Y-58657230D01*
X98157665Y-58976752D01*
X97742691Y-59327870D01*
X97364804Y-59698839D01*
X97354771Y-59708688D01*
X97047874Y-60058094D01*
X96996034Y-60117114D01*
X96668449Y-60550907D01*
X96373789Y-61007716D01*
X96113679Y-61485026D01*
X95889518Y-61980268D01*
X95702553Y-62490684D01*
X95594776Y-62869484D01*
X95553790Y-63013535D01*
X95461673Y-63460436D01*
X95444047Y-63545945D01*
X95373923Y-64084993D01*
X95343802Y-64627751D01*
X88564120Y-64627751D01*
X88564120Y-58820543D01*
X88576693Y-58765676D01*
X88611903Y-58721760D01*
X88662723Y-58697558D01*
X88683818Y-58692858D01*
X88767484Y-58674221D01*
X89021583Y-58577037D01*
X89258823Y-58443891D01*
X89258822Y-58443891D01*
X89258825Y-58443890D01*
X89391546Y-58341405D01*
X89474149Y-58277621D01*
X89662972Y-58081772D01*
X89764691Y-57939595D01*
X89821266Y-57860518D01*
X89945658Y-57618572D01*
X89965183Y-57561339D01*
X90033498Y-57361094D01*
X90082912Y-57093570D01*
X90092848Y-56821702D01*
X90063093Y-56551285D01*
X89994283Y-56288082D01*
X89887883Y-56037702D01*
X89887882Y-56037699D01*
X89746161Y-55805481D01*
X89596515Y-55625664D01*
X89572139Y-55596373D01*
X89369524Y-55414829D01*
X89166519Y-55280522D01*
X89142635Y-55264720D01*
X88896309Y-55149248D01*
X88635790Y-55070869D01*
X88366647Y-55031260D01*
X88366645Y-55031260D01*
X87562700Y-55031260D01*
X87522019Y-55034237D01*
X87359292Y-55046147D01*
X87093757Y-55105298D01*
X86839656Y-55202482D01*
X86602414Y-55335629D01*
X86387095Y-55501895D01*
X86198262Y-55697754D01*
X86039973Y-55919001D01*
X85915581Y-56160947D01*
X85827742Y-56418424D01*
X85778328Y-56685948D01*
X85768391Y-56957818D01*
X85798147Y-57228235D01*
X85866914Y-57491276D01*
X85866957Y-57491438D01*
X85885940Y-57536109D01*
X85973357Y-57741820D01*
X86115078Y-57974038D01*
X86204467Y-58081449D01*
X86289101Y-58183147D01*
X86491716Y-58364691D01*
X86718604Y-58514799D01*
X86964931Y-58630272D01*
X87207422Y-58703226D01*
X87254053Y-58729026D01*
X87285849Y-58771796D01*
X87297120Y-58823884D01*
X87297120Y-62942044D01*
X87282704Y-63000567D01*
X87242755Y-63045699D01*
X87186414Y-63067112D01*
X87126574Y-63059907D01*
X87076926Y-63025731D01*
X87048833Y-62972406D01*
X87004349Y-62793241D01*
X86855753Y-62362032D01*
X86669632Y-61945651D01*
X86669629Y-61945644D01*
X86447432Y-61547335D01*
X86405172Y-61485211D01*
X86365278Y-61426564D01*
X86190902Y-61170221D01*
X85902047Y-60817256D01*
X85716564Y-60627623D01*
X85583128Y-60491201D01*
X85236633Y-60194604D01*
X84865299Y-59929803D01*
X84471986Y-59698839D01*
X84059832Y-59503557D01*
X83632012Y-59345456D01*
X83392674Y-59280379D01*
X83191895Y-59225787D01*
X82806360Y-59156829D01*
X82742921Y-59145482D01*
X82351103Y-59110717D01*
X82288617Y-59105173D01*
X81946607Y-59105173D01*
X81604922Y-59120302D01*
X81152841Y-59180667D01*
X81152835Y-59180668D01*
X81152837Y-59180668D01*
X80707862Y-59280751D01*
X80273469Y-59419772D01*
X79853069Y-59596638D01*
X79449939Y-59809971D01*
X79067245Y-60058094D01*
X78707979Y-60339068D01*
X78374948Y-60650697D01*
X78320385Y-60711657D01*
X78270699Y-60745617D01*
X78210929Y-60752657D01*
X78154712Y-60731173D01*
X78114873Y-60686064D01*
X78100500Y-60627623D01*
X78100500Y-57143760D01*
X80289354Y-57143760D01*
X80298639Y-57228142D01*
X80367431Y-57491276D01*
X80473801Y-57741587D01*
X80615488Y-57973749D01*
X80789461Y-58182799D01*
X80992018Y-58364290D01*
X81218849Y-58514362D01*
X81465109Y-58629803D01*
X81725559Y-58708161D01*
X81994630Y-58747760D01*
X82176620Y-58747760D01*
X82176620Y-57143760D01*
X82684620Y-57143760D01*
X82684620Y-58747760D01*
X82798524Y-58747760D01*
X83001874Y-58732876D01*
X83267338Y-58673741D01*
X83521370Y-58576583D01*
X83758549Y-58443472D01*
X83973810Y-58277251D01*
X84162588Y-58081449D01*
X84320840Y-57860252D01*
X84445197Y-57618376D01*
X84533012Y-57360968D01*
X84573133Y-57143760D01*
X82684620Y-57143760D01*
X82176620Y-57143760D01*
X80289354Y-57143760D01*
X78100500Y-57143760D01*
X78100500Y-56635760D01*
X80288107Y-56635760D01*
X82176620Y-56635760D01*
X82176620Y-55031760D01*
X82684620Y-55031760D01*
X82684620Y-56635760D01*
X84571885Y-56635760D01*
X84571885Y-56635759D01*
X84562600Y-56551377D01*
X84493808Y-56288243D01*
X84387438Y-56037932D01*
X84245751Y-55805770D01*
X84071778Y-55596720D01*
X83869221Y-55415229D01*
X83642390Y-55265157D01*
X83396130Y-55149716D01*
X83135680Y-55071358D01*
X82866610Y-55031760D01*
X82684620Y-55031760D01*
X82176620Y-55031760D01*
X82062716Y-55031760D01*
X81859365Y-55046643D01*
X81593901Y-55105778D01*
X81339869Y-55202936D01*
X81102690Y-55336047D01*
X80887429Y-55502268D01*
X80698651Y-55698070D01*
X80540399Y-55919267D01*
X80416042Y-56161143D01*
X80328227Y-56418551D01*
X80288107Y-56635760D01*
X78100500Y-56635760D01*
X78100500Y-52943760D01*
X80272621Y-52943760D01*
X80272621Y-53840263D01*
X80283226Y-53944083D01*
X80338964Y-54112289D01*
X80431985Y-54263099D01*
X80557280Y-54388394D01*
X80708090Y-54481415D01*
X80876296Y-54537153D01*
X80980118Y-54547760D01*
X82176620Y-54547760D01*
X82176620Y-52943760D01*
X82684620Y-52943760D01*
X82684620Y-54547759D01*
X83881123Y-54547759D01*
X83984943Y-54537153D01*
X84153149Y-54481415D01*
X84303959Y-54388394D01*
X84429254Y-54263099D01*
X84522275Y-54112289D01*
X84578013Y-53944083D01*
X84588620Y-53840262D01*
X84588620Y-52943760D01*
X82684620Y-52943760D01*
X82176620Y-52943760D01*
X80272621Y-52943760D01*
X78100500Y-52943760D01*
X78100500Y-52757818D01*
X85768391Y-52757818D01*
X85798147Y-53028235D01*
X85866956Y-53291435D01*
X85973357Y-53541820D01*
X86115078Y-53774038D01*
X86269083Y-53959093D01*
X86289101Y-53983147D01*
X86491716Y-54164691D01*
X86718604Y-54314799D01*
X86964931Y-54430272D01*
X87225445Y-54508649D01*
X87225446Y-54508649D01*
X87225449Y-54508650D01*
X87494593Y-54548260D01*
X87494595Y-54548260D01*
X88298539Y-54548260D01*
X88298540Y-54548260D01*
X88501944Y-54533373D01*
X88767484Y-54474221D01*
X89021583Y-54377037D01*
X89158055Y-54300445D01*
X89258825Y-54243890D01*
X89407875Y-54128796D01*
X89474149Y-54077621D01*
X89662972Y-53881772D01*
X89679348Y-53858882D01*
X89821266Y-53660518D01*
X89945658Y-53418572D01*
X89965913Y-53359200D01*
X90001803Y-53254000D01*
X93642000Y-53254000D01*
X93642000Y-53798589D01*
X93648505Y-53859093D01*
X93699554Y-53995962D01*
X93787095Y-54112904D01*
X93904037Y-54200445D01*
X94040906Y-54251494D01*
X94101411Y-54258000D01*
X94346000Y-54258000D01*
X94346000Y-53254000D01*
X94854000Y-53254000D01*
X94854000Y-54258000D01*
X95098589Y-54258000D01*
X95159093Y-54251494D01*
X95295962Y-54200445D01*
X95412904Y-54112904D01*
X95500445Y-53995962D01*
X95551494Y-53859093D01*
X95558000Y-53798589D01*
X95558000Y-53254000D01*
X94854000Y-53254000D01*
X94346000Y-53254000D01*
X93642000Y-53254000D01*
X90001803Y-53254000D01*
X90033498Y-53161094D01*
X90082912Y-52893570D01*
X90088305Y-52746000D01*
X93642000Y-52746000D01*
X94346000Y-52746000D01*
X94346000Y-51742000D01*
X94854000Y-51742000D01*
X94854000Y-52746000D01*
X95558000Y-52746000D01*
X95558000Y-52201411D01*
X95551494Y-52140906D01*
X95500445Y-52004037D01*
X95412904Y-51887095D01*
X95295962Y-51799554D01*
X95159093Y-51748505D01*
X95098589Y-51742000D01*
X94854000Y-51742000D01*
X94346000Y-51742000D01*
X94101411Y-51742000D01*
X94040906Y-51748505D01*
X93904037Y-51799554D01*
X93787095Y-51887095D01*
X93699554Y-52004037D01*
X93648505Y-52140906D01*
X93642000Y-52201411D01*
X93642000Y-52746000D01*
X90088305Y-52746000D01*
X90092848Y-52621702D01*
X90063093Y-52351285D01*
X89994283Y-52088082D01*
X89908873Y-51887095D01*
X89887882Y-51837699D01*
X89746161Y-51605481D01*
X89572138Y-51396372D01*
X89507282Y-51338261D01*
X89369524Y-51214829D01*
X89172080Y-51084201D01*
X89142635Y-51064720D01*
X88896309Y-50949248D01*
X88635790Y-50870869D01*
X88366647Y-50831260D01*
X88366645Y-50831260D01*
X87562700Y-50831260D01*
X87522019Y-50834237D01*
X87359292Y-50846147D01*
X87093757Y-50905298D01*
X86839656Y-51002482D01*
X86602414Y-51135629D01*
X86387095Y-51301895D01*
X86387091Y-51301898D01*
X86387091Y-51301899D01*
X86327397Y-51363814D01*
X86198262Y-51497754D01*
X86039973Y-51719001D01*
X85915581Y-51960947D01*
X85827742Y-52218424D01*
X85778328Y-52485948D01*
X85768391Y-52757818D01*
X78100500Y-52757818D01*
X78100500Y-52435760D01*
X80272620Y-52435760D01*
X82176620Y-52435760D01*
X82176620Y-50831761D01*
X80980117Y-50831761D01*
X80876296Y-50842366D01*
X80708090Y-50898104D01*
X80557280Y-50991125D01*
X80431985Y-51116420D01*
X80338964Y-51267230D01*
X80283226Y-51435436D01*
X80272620Y-51539258D01*
X80272620Y-52435760D01*
X78100500Y-52435760D01*
X78100500Y-50831760D01*
X82684620Y-50831760D01*
X82684620Y-52435760D01*
X84588619Y-52435760D01*
X84588619Y-51539257D01*
X84578013Y-51435436D01*
X84522275Y-51267230D01*
X84429254Y-51116420D01*
X84303959Y-50991125D01*
X84153149Y-50898104D01*
X83984943Y-50842366D01*
X83881122Y-50831760D01*
X82684620Y-50831760D01*
X78100500Y-50831760D01*
X78100500Y-46391940D01*
X80263954Y-46391940D01*
X80273239Y-46476322D01*
X80342031Y-46739456D01*
X80448401Y-46989767D01*
X80590088Y-47221929D01*
X80764061Y-47430979D01*
X80966618Y-47612470D01*
X81193449Y-47762542D01*
X81439709Y-47877983D01*
X81700159Y-47956341D01*
X81969230Y-47995940D01*
X82151220Y-47995940D01*
X82151220Y-46391940D01*
X82659220Y-46391940D01*
X82659220Y-47995940D01*
X82773124Y-47995940D01*
X82976474Y-47981056D01*
X83241938Y-47921921D01*
X83495970Y-47824763D01*
X83733149Y-47691652D01*
X83948410Y-47525431D01*
X84137188Y-47329629D01*
X84295440Y-47108432D01*
X84419797Y-46866556D01*
X84507612Y-46609148D01*
X84547733Y-46391940D01*
X82659220Y-46391940D01*
X82151220Y-46391940D01*
X80263954Y-46391940D01*
X78100500Y-46391940D01*
X78100500Y-46205998D01*
X85742991Y-46205998D01*
X85772747Y-46476415D01*
X85841556Y-46739615D01*
X85947957Y-46990000D01*
X86089678Y-47222218D01*
X86238764Y-47401362D01*
X86263701Y-47431327D01*
X86466316Y-47612871D01*
X86693204Y-47762979D01*
X86939531Y-47878452D01*
X87200045Y-47956829D01*
X87200046Y-47956829D01*
X87200049Y-47956830D01*
X87469193Y-47996440D01*
X87469195Y-47996440D01*
X88273139Y-47996440D01*
X88273140Y-47996440D01*
X88476544Y-47981553D01*
X88742084Y-47922401D01*
X88996183Y-47825217D01*
X89215753Y-47701988D01*
X89233425Y-47692070D01*
X89336509Y-47612470D01*
X89448749Y-47525801D01*
X89637572Y-47329952D01*
X89681327Y-47268794D01*
X89795866Y-47108698D01*
X89902194Y-46901888D01*
X89948612Y-46851947D01*
X90014251Y-46833500D01*
X93649736Y-46833500D01*
X93715954Y-46852303D01*
X93762409Y-46903101D01*
X93775234Y-46970731D01*
X93750604Y-47035009D01*
X93699111Y-47103794D01*
X93659685Y-47209500D01*
X93648011Y-47240799D01*
X93641500Y-47301362D01*
X93641500Y-48898638D01*
X93648011Y-48959201D01*
X93662897Y-48999111D01*
X93699111Y-49096205D01*
X93786738Y-49213261D01*
X93903794Y-49300888D01*
X93903795Y-49300888D01*
X93903796Y-49300889D01*
X94040799Y-49351989D01*
X94101362Y-49358500D01*
X95098638Y-49358500D01*
X95159201Y-49351989D01*
X95296204Y-49300889D01*
X95413261Y-49213261D01*
X95500889Y-49096204D01*
X95551989Y-48959201D01*
X95558500Y-48898638D01*
X95558500Y-48089594D01*
X95568091Y-48041376D01*
X95595402Y-48000501D01*
X96911107Y-46684795D01*
X96959696Y-46654581D01*
X97016644Y-46648972D01*
X97070200Y-46669129D01*
X97109317Y-46710894D01*
X97157786Y-46794844D01*
X97174568Y-46852846D01*
X97162436Y-46911997D01*
X97124177Y-46958711D01*
X97086739Y-46986737D01*
X96999111Y-47103794D01*
X96959685Y-47209500D01*
X96948011Y-47240799D01*
X96941500Y-47301362D01*
X96941500Y-48898638D01*
X96948011Y-48959201D01*
X96962897Y-48999111D01*
X96999111Y-49096205D01*
X97086738Y-49213261D01*
X97203794Y-49300888D01*
X97203795Y-49300888D01*
X97203796Y-49300889D01*
X97340799Y-49351989D01*
X97401362Y-49358500D01*
X98398638Y-49358500D01*
X98459201Y-49351989D01*
X98596204Y-49300889D01*
X98713261Y-49213261D01*
X98800889Y-49096204D01*
X98851989Y-48959201D01*
X98858500Y-48898638D01*
X98858500Y-47301362D01*
X98851989Y-47240799D01*
X98800889Y-47103796D01*
X98798333Y-47100381D01*
X98716864Y-46991551D01*
X98695770Y-46947687D01*
X98692876Y-46899100D01*
X98708611Y-46853045D01*
X98784527Y-46721556D01*
X98843542Y-46539928D01*
X98863504Y-46350000D01*
X98843542Y-46160072D01*
X98800773Y-46028443D01*
X98784527Y-45978443D01*
X98723361Y-45872500D01*
X98706480Y-45809500D01*
X98723361Y-45746500D01*
X98769480Y-45700381D01*
X98832480Y-45683500D01*
X101606652Y-45683500D01*
X101663855Y-45697233D01*
X101708588Y-45735439D01*
X101731101Y-45789789D01*
X101726485Y-45848436D01*
X101706458Y-45910070D01*
X101686496Y-46100000D01*
X101697529Y-46204977D01*
X101690967Y-46260277D01*
X101661209Y-46307347D01*
X101614069Y-46336994D01*
X101558754Y-46343425D01*
X101540844Y-46341500D01*
X101540838Y-46341500D01*
X100543562Y-46341500D01*
X100482999Y-46348011D01*
X100345994Y-46399111D01*
X100228938Y-46486738D01*
X100141311Y-46603794D01*
X100097596Y-46721000D01*
X100090211Y-46740799D01*
X100083700Y-46801362D01*
X100083700Y-48398638D01*
X100090211Y-48459201D01*
X100113468Y-48521556D01*
X100141311Y-48596205D01*
X100228937Y-48713260D01*
X100265256Y-48740448D01*
X100345996Y-48800889D01*
X100345997Y-48800889D01*
X100358208Y-48810030D01*
X100395372Y-48854499D01*
X100408700Y-48910899D01*
X100408700Y-49543206D01*
X100399109Y-49591424D01*
X100371795Y-49632301D01*
X98299500Y-51704595D01*
X98258623Y-51731909D01*
X98210405Y-51741500D01*
X97401362Y-51741500D01*
X97340799Y-51748011D01*
X97203794Y-51799111D01*
X97086738Y-51886738D01*
X96999111Y-52003794D01*
X96959685Y-52109500D01*
X96948011Y-52140799D01*
X96941500Y-52201362D01*
X96941500Y-53798638D01*
X96948011Y-53859201D01*
X96972221Y-53924111D01*
X96999111Y-53996205D01*
X97086738Y-54113261D01*
X97203794Y-54200888D01*
X97203795Y-54200888D01*
X97203796Y-54200889D01*
X97340799Y-54251989D01*
X97401362Y-54258500D01*
X98398638Y-54258500D01*
X98459201Y-54251989D01*
X98596204Y-54200889D01*
X98713261Y-54113261D01*
X98800889Y-53996204D01*
X98851989Y-53859201D01*
X98858500Y-53798638D01*
X98858500Y-52989594D01*
X98868091Y-52941376D01*
X98895405Y-52900499D01*
X99869105Y-51926799D01*
X99919264Y-51896061D01*
X99977911Y-51891445D01*
X100032261Y-51913958D01*
X100070467Y-51958691D01*
X100084200Y-52015894D01*
X100084200Y-52246000D01*
X100788200Y-52246000D01*
X100788200Y-51241999D01*
X100760147Y-51213946D01*
X100727535Y-51157462D01*
X100727535Y-51092240D01*
X100760145Y-51035758D01*
X101430859Y-50365044D01*
X101447180Y-50351969D01*
X101449214Y-50349801D01*
X101449218Y-50349800D01*
X101495860Y-50300129D01*
X101498551Y-50297352D01*
X101518335Y-50277570D01*
X101520821Y-50274364D01*
X101528510Y-50265361D01*
X101558786Y-50233121D01*
X101568542Y-50215371D01*
X101579395Y-50198850D01*
X101591814Y-50182841D01*
X101609375Y-50142254D01*
X101614588Y-50131613D01*
X101635895Y-50092860D01*
X101640933Y-50073234D01*
X101647337Y-50054532D01*
X101655381Y-50035944D01*
X101655520Y-50035070D01*
X101662296Y-49992281D01*
X101664704Y-49980653D01*
X101675700Y-49937830D01*
X101675700Y-49917576D01*
X101677251Y-49897866D01*
X101680420Y-49877857D01*
X101676259Y-49833839D01*
X101675700Y-49821981D01*
X101675700Y-48910899D01*
X101689028Y-48854499D01*
X101726192Y-48810030D01*
X101738401Y-48800889D01*
X101738404Y-48800889D01*
X101855461Y-48713261D01*
X101881526Y-48678443D01*
X101943088Y-48596205D01*
X101943087Y-48596205D01*
X101943089Y-48596204D01*
X101994189Y-48459201D01*
X102000700Y-48398638D01*
X102000700Y-47021674D01*
X102015969Y-46961552D01*
X102058076Y-46916001D01*
X102116814Y-46896062D01*
X102177946Y-46906566D01*
X102317712Y-46968794D01*
X102504513Y-47008500D01*
X102602605Y-47008500D01*
X102650823Y-47018091D01*
X102691701Y-47045405D01*
X103346796Y-47700501D01*
X103374109Y-47741378D01*
X103383700Y-47789596D01*
X103383700Y-48398638D01*
X103390211Y-48459201D01*
X103413468Y-48521556D01*
X103441311Y-48596205D01*
X103528938Y-48713261D01*
X103645994Y-48800888D01*
X103645995Y-48800888D01*
X103645996Y-48800889D01*
X103782999Y-48851989D01*
X103843562Y-48858500D01*
X104840838Y-48858500D01*
X104901401Y-48851989D01*
X105038404Y-48800889D01*
X105155461Y-48713261D01*
X105243089Y-48596204D01*
X105294189Y-48459201D01*
X105300700Y-48398638D01*
X105300700Y-46801362D01*
X105294189Y-46740799D01*
X105243089Y-46603796D01*
X105243088Y-46603794D01*
X105155461Y-46486738D01*
X105038405Y-46399111D01*
X104969902Y-46373560D01*
X104901401Y-46348011D01*
X104840838Y-46341500D01*
X103843562Y-46341500D01*
X103836809Y-46341500D01*
X103836809Y-46340225D01*
X103790352Y-46334805D01*
X103743186Y-46305081D01*
X103542165Y-46104060D01*
X103517534Y-46069209D01*
X103505950Y-46028134D01*
X103493542Y-45910070D01*
X103473516Y-45848436D01*
X103468900Y-45789789D01*
X103491413Y-45735439D01*
X103536146Y-45697233D01*
X103593349Y-45683500D01*
X106885406Y-45683500D01*
X106933624Y-45693091D01*
X106974501Y-45720405D01*
X107505099Y-46251003D01*
X107518183Y-46267333D01*
X107520348Y-46269366D01*
X107542244Y-46289928D01*
X107570014Y-46316005D01*
X107572857Y-46318761D01*
X107592578Y-46338482D01*
X107595766Y-46340955D01*
X107604792Y-46348664D01*
X107624203Y-46366891D01*
X107637027Y-46378934D01*
X107654780Y-46388694D01*
X107671303Y-46399548D01*
X107687305Y-46411960D01*
X107687308Y-46411962D01*
X107727887Y-46429522D01*
X107738536Y-46434739D01*
X107777283Y-46456041D01*
X107777285Y-46456041D01*
X107777288Y-46456043D01*
X107796922Y-46461084D01*
X107815607Y-46467482D01*
X107834203Y-46475529D01*
X107877878Y-46482446D01*
X107889473Y-46484846D01*
X107932318Y-46495848D01*
X107952572Y-46495848D01*
X107972282Y-46497399D01*
X107992290Y-46500568D01*
X107992290Y-46500567D01*
X107992291Y-46500568D01*
X108036309Y-46496406D01*
X108048167Y-46495848D01*
X111298446Y-46495848D01*
X111365112Y-46514929D01*
X111411586Y-46566393D01*
X111423794Y-46634653D01*
X111417000Y-46701160D01*
X111417000Y-46721000D01*
X113383000Y-46721000D01*
X113383000Y-46701160D01*
X113376206Y-46634653D01*
X113388414Y-46566393D01*
X113434888Y-46514929D01*
X113501554Y-46495848D01*
X120603799Y-46495848D01*
X120624587Y-46498143D01*
X120627559Y-46498049D01*
X120627561Y-46498050D01*
X120695637Y-46495910D01*
X120699597Y-46495848D01*
X120727504Y-46495848D01*
X120727508Y-46495848D01*
X120731517Y-46495341D01*
X120743351Y-46494409D01*
X120787541Y-46493021D01*
X120806990Y-46487369D01*
X120826350Y-46483360D01*
X120846449Y-46480822D01*
X120887567Y-46464541D01*
X120898769Y-46460705D01*
X120941245Y-46448366D01*
X120958691Y-46438047D01*
X120976432Y-46429357D01*
X120995269Y-46421900D01*
X121031044Y-46395906D01*
X121040955Y-46389396D01*
X121079014Y-46366890D01*
X121093343Y-46352560D01*
X121108371Y-46339725D01*
X121124759Y-46327820D01*
X121152950Y-46293741D01*
X121160920Y-46284982D01*
X123000500Y-44445404D01*
X123041378Y-44418091D01*
X123089596Y-44408500D01*
X123948638Y-44408500D01*
X124009201Y-44401989D01*
X124146204Y-44350889D01*
X124263261Y-44263261D01*
X124350889Y-44146204D01*
X124401989Y-44009201D01*
X124408500Y-43948638D01*
X126791500Y-43948638D01*
X126798011Y-44009201D01*
X126815037Y-44054850D01*
X126849111Y-44146205D01*
X126936738Y-44263261D01*
X127053794Y-44350888D01*
X127053795Y-44350888D01*
X127053796Y-44350889D01*
X127190799Y-44401989D01*
X127251362Y-44408500D01*
X128848638Y-44408500D01*
X128909201Y-44401989D01*
X129046204Y-44350889D01*
X129163261Y-44263261D01*
X129168099Y-44256798D01*
X129215918Y-44218017D01*
X129276405Y-44206524D01*
X129335116Y-44225063D01*
X129341958Y-44229283D01*
X129341960Y-44229285D01*
X129487899Y-44319302D01*
X129650664Y-44373236D01*
X129751128Y-44383500D01*
X130348868Y-44383500D01*
X130348872Y-44383500D01*
X130449336Y-44373236D01*
X130612101Y-44319302D01*
X130758040Y-44229285D01*
X130879285Y-44108040D01*
X130886807Y-44095844D01*
X130927742Y-44054850D01*
X130982699Y-44036506D01*
X131040054Y-44044694D01*
X131087682Y-44077684D01*
X131088745Y-44078864D01*
X131088747Y-44078866D01*
X131243248Y-44191118D01*
X131417712Y-44268794D01*
X131604513Y-44308500D01*
X131795485Y-44308500D01*
X131795487Y-44308500D01*
X131982288Y-44268794D01*
X132156752Y-44191118D01*
X132311253Y-44078866D01*
X132439040Y-43936944D01*
X132534527Y-43771556D01*
X132593542Y-43589928D01*
X132613504Y-43400000D01*
X132593542Y-43210072D01*
X132554022Y-43088442D01*
X132534527Y-43028443D01*
X132439041Y-42863057D01*
X132311252Y-42721133D01*
X132234002Y-42665007D01*
X132156752Y-42608882D01*
X131982288Y-42531206D01*
X131795487Y-42491500D01*
X131604513Y-42491500D01*
X131479979Y-42517970D01*
X131417711Y-42531206D01*
X131243246Y-42608883D01*
X131191012Y-42646833D01*
X131093834Y-42717437D01*
X131058713Y-42735333D01*
X131019777Y-42741500D01*
X130991297Y-42741500D01*
X130927505Y-42724158D01*
X130881273Y-42676906D01*
X130865327Y-42612751D01*
X130884056Y-42549353D01*
X130968847Y-42411884D01*
X131022743Y-42249239D01*
X131033000Y-42148839D01*
X131033000Y-42129000D01*
X129067000Y-42129000D01*
X129067000Y-42148839D01*
X129077256Y-42249235D01*
X129112319Y-42355048D01*
X129115043Y-42424872D01*
X129080145Y-42485410D01*
X129018357Y-42518044D01*
X128948682Y-42512737D01*
X128909201Y-42498011D01*
X128848638Y-42491500D01*
X127251362Y-42491500D01*
X127190799Y-42498011D01*
X127053794Y-42549111D01*
X126936738Y-42636738D01*
X126849111Y-42753794D01*
X126812409Y-42852197D01*
X126798011Y-42890799D01*
X126791500Y-42951362D01*
X126791500Y-43948638D01*
X124408500Y-43948638D01*
X124408500Y-43009500D01*
X124425381Y-42946500D01*
X124471500Y-42900381D01*
X124534500Y-42883500D01*
X125816147Y-42883500D01*
X125836935Y-42885795D01*
X125839907Y-42885701D01*
X125839909Y-42885702D01*
X125907985Y-42883562D01*
X125911945Y-42883500D01*
X125939852Y-42883500D01*
X125939856Y-42883500D01*
X125943865Y-42882993D01*
X125955699Y-42882061D01*
X125999889Y-42880673D01*
X126019338Y-42875021D01*
X126038698Y-42871012D01*
X126058797Y-42868474D01*
X126099915Y-42852193D01*
X126111117Y-42848357D01*
X126153593Y-42836018D01*
X126171039Y-42825699D01*
X126188780Y-42817009D01*
X126207617Y-42809552D01*
X126243392Y-42783558D01*
X126253303Y-42777048D01*
X126291362Y-42754542D01*
X126305691Y-42740212D01*
X126320719Y-42727377D01*
X126337107Y-42715472D01*
X126365303Y-42681386D01*
X126373262Y-42672640D01*
X127294705Y-41751198D01*
X135058012Y-41751198D01*
X135118595Y-41793620D01*
X135318094Y-41886649D01*
X135530715Y-41943619D01*
X135749999Y-41962804D01*
X135969284Y-41943619D01*
X136181904Y-41886649D01*
X136381405Y-41793619D01*
X136441986Y-41751198D01*
X136441986Y-41751197D01*
X135750000Y-41059210D01*
X135749999Y-41059210D01*
X135058012Y-41751196D01*
X135058012Y-41751198D01*
X127294705Y-41751198D01*
X127900501Y-41145402D01*
X127941376Y-41118091D01*
X127989594Y-41108500D01*
X128848638Y-41108500D01*
X128909201Y-41101989D01*
X129042596Y-41052234D01*
X129104095Y-41045508D01*
X129161386Y-41068866D01*
X129200651Y-41116678D01*
X129212424Y-41177417D01*
X129193867Y-41236437D01*
X129131153Y-41338112D01*
X129077256Y-41500760D01*
X129067000Y-41601161D01*
X129067000Y-41621000D01*
X129796000Y-41621000D01*
X129796000Y-40917000D01*
X130304000Y-40917000D01*
X130304000Y-41621000D01*
X131033000Y-41621000D01*
X131033000Y-41601161D01*
X131022743Y-41500760D01*
X130968847Y-41338114D01*
X130878888Y-41192268D01*
X130757731Y-41071111D01*
X130611885Y-40981152D01*
X130449239Y-40927256D01*
X130348839Y-40917000D01*
X130304000Y-40917000D01*
X129796000Y-40917000D01*
X129751161Y-40917000D01*
X129650760Y-40927256D01*
X129488115Y-40981152D01*
X129424155Y-41020603D01*
X129357938Y-41039361D01*
X129291743Y-41020528D01*
X129245317Y-40969722D01*
X129232513Y-40902101D01*
X129247075Y-40864117D01*
X129244558Y-40863179D01*
X129269836Y-40795405D01*
X129301989Y-40709201D01*
X129302978Y-40700000D01*
X134487195Y-40700000D01*
X134506380Y-40919284D01*
X134563350Y-41131905D01*
X134656379Y-41331403D01*
X134698800Y-41391986D01*
X134698802Y-41391986D01*
X135390789Y-40700000D01*
X136109210Y-40700000D01*
X136801196Y-41391986D01*
X136801198Y-41391986D01*
X136843619Y-41331405D01*
X136936649Y-41131904D01*
X136953034Y-41070753D01*
X136985644Y-41014269D01*
X137042128Y-40981657D01*
X137107350Y-40981656D01*
X137163835Y-41014266D01*
X137196447Y-41070750D01*
X137200501Y-41085879D01*
X137212880Y-41132076D01*
X137219095Y-41145404D01*
X137305943Y-41331653D01*
X137432253Y-41512041D01*
X137587958Y-41667746D01*
X137587961Y-41667748D01*
X137587962Y-41667749D01*
X137768346Y-41794056D01*
X137967924Y-41887120D01*
X138061707Y-41912249D01*
X138180624Y-41944114D01*
X138180625Y-41944114D01*
X138180629Y-41944115D01*
X138400000Y-41963307D01*
X138619371Y-41944115D01*
X138832076Y-41887120D01*
X139031654Y-41794056D01*
X139212038Y-41667749D01*
X139367749Y-41512038D01*
X139494056Y-41331654D01*
X139587120Y-41132076D01*
X139644115Y-40919371D01*
X139663307Y-40700000D01*
X139644115Y-40480629D01*
X139639394Y-40463012D01*
X139587120Y-40267925D01*
X139579070Y-40250662D01*
X139494056Y-40068347D01*
X139367749Y-39887962D01*
X139367748Y-39887961D01*
X139367746Y-39887958D01*
X139212041Y-39732253D01*
X139031653Y-39605943D01*
X138832074Y-39512879D01*
X138619375Y-39455885D01*
X138443874Y-39440531D01*
X138400000Y-39436693D01*
X138399999Y-39436693D01*
X138180624Y-39455885D01*
X137967925Y-39512879D01*
X137768347Y-39605943D01*
X137587958Y-39732253D01*
X137432253Y-39887958D01*
X137305943Y-40068347D01*
X137212879Y-40267924D01*
X137196447Y-40329249D01*
X137163835Y-40385733D01*
X137107350Y-40418343D01*
X137042128Y-40418342D01*
X136985645Y-40385730D01*
X136953034Y-40329246D01*
X136936649Y-40268096D01*
X136843620Y-40068597D01*
X136801198Y-40008012D01*
X136801197Y-40008012D01*
X136109210Y-40699999D01*
X136109210Y-40700000D01*
X135390789Y-40700000D01*
X135390789Y-40699999D01*
X134698800Y-40008011D01*
X134656378Y-40068598D01*
X134563351Y-40268092D01*
X134506380Y-40480715D01*
X134487195Y-40700000D01*
X129302978Y-40700000D01*
X129308500Y-40648638D01*
X129308500Y-39651362D01*
X129308225Y-39648801D01*
X135058011Y-39648801D01*
X135749999Y-40340789D01*
X135750000Y-40340789D01*
X136441986Y-39648801D01*
X136441986Y-39648800D01*
X136381403Y-39606379D01*
X136181905Y-39513350D01*
X135969284Y-39456380D01*
X135750000Y-39437195D01*
X135530715Y-39456380D01*
X135318092Y-39513351D01*
X135118598Y-39606378D01*
X135058011Y-39648801D01*
X129308225Y-39648801D01*
X129301989Y-39590799D01*
X129250889Y-39453796D01*
X129238086Y-39436693D01*
X129163261Y-39336738D01*
X129046205Y-39249111D01*
X128958771Y-39216500D01*
X128909201Y-39198011D01*
X128848638Y-39191500D01*
X127251362Y-39191500D01*
X127190799Y-39198011D01*
X127053794Y-39249111D01*
X126936738Y-39336738D01*
X126849111Y-39453794D01*
X126798011Y-39590799D01*
X126791500Y-39651362D01*
X126791500Y-40410405D01*
X126781909Y-40458623D01*
X126754595Y-40499500D01*
X125674500Y-41579595D01*
X125633623Y-41606909D01*
X125585405Y-41616500D01*
X120183595Y-41616500D01*
X120126392Y-41602767D01*
X120081659Y-41564561D01*
X120059146Y-41510211D01*
X120063762Y-41451564D01*
X120094500Y-41401404D01*
X120157791Y-41338114D01*
X120350500Y-41145404D01*
X120391378Y-41118091D01*
X120439596Y-41108500D01*
X121298638Y-41108500D01*
X121359201Y-41101989D01*
X121496204Y-41050889D01*
X121613261Y-40963261D01*
X121646182Y-40919284D01*
X121700888Y-40846206D01*
X121700979Y-40845962D01*
X121707210Y-40829256D01*
X121741400Y-40779253D01*
X121794975Y-40750982D01*
X121855552Y-40750981D01*
X121909128Y-40779249D01*
X121943321Y-40829253D01*
X121949553Y-40845961D01*
X122037095Y-40962904D01*
X122154037Y-41050445D01*
X122290906Y-41101494D01*
X122351411Y-41108000D01*
X122896000Y-41108000D01*
X122896000Y-40404000D01*
X123404000Y-40404000D01*
X123404000Y-41108000D01*
X123948589Y-41108000D01*
X124009093Y-41101494D01*
X124145962Y-41050445D01*
X124262904Y-40962904D01*
X124350445Y-40845962D01*
X124401494Y-40709093D01*
X124408000Y-40648589D01*
X124408000Y-40404000D01*
X123404000Y-40404000D01*
X122896000Y-40404000D01*
X122896000Y-39192000D01*
X123404000Y-39192000D01*
X123404000Y-39896000D01*
X124408000Y-39896000D01*
X124408000Y-39651411D01*
X124401494Y-39590906D01*
X124350445Y-39454037D01*
X124262904Y-39337095D01*
X124145962Y-39249554D01*
X124009093Y-39198505D01*
X123948589Y-39192000D01*
X123404000Y-39192000D01*
X122896000Y-39192000D01*
X122351411Y-39192000D01*
X122290906Y-39198505D01*
X122154037Y-39249554D01*
X122037095Y-39337095D01*
X121949554Y-39454037D01*
X121943321Y-39470748D01*
X121909128Y-39520751D01*
X121855551Y-39549018D01*
X121794975Y-39549017D01*
X121741400Y-39520747D01*
X121707210Y-39470743D01*
X121706520Y-39468893D01*
X121700889Y-39453796D01*
X121688086Y-39436693D01*
X121613261Y-39336738D01*
X121496205Y-39249111D01*
X121408771Y-39216500D01*
X121359201Y-39198011D01*
X121298638Y-39191500D01*
X119701362Y-39191500D01*
X119640799Y-39198011D01*
X119503794Y-39249111D01*
X119386738Y-39336738D01*
X119299111Y-39453794D01*
X119248011Y-39590799D01*
X119241500Y-39651362D01*
X119241500Y-40410405D01*
X119231909Y-40458623D01*
X119204595Y-40499501D01*
X118424499Y-41279596D01*
X118383622Y-41306909D01*
X118335404Y-41316500D01*
X116581014Y-41316500D01*
X116514414Y-41297460D01*
X116467942Y-41246094D01*
X116455643Y-41177926D01*
X116481235Y-41113558D01*
X116536982Y-41072444D01*
X116595962Y-41050445D01*
X116712904Y-40962904D01*
X116800445Y-40845962D01*
X116851494Y-40709093D01*
X116858000Y-40648589D01*
X116858000Y-40404000D01*
X115472000Y-40404000D01*
X115409000Y-40387119D01*
X115362881Y-40341000D01*
X115346000Y-40278000D01*
X115346000Y-39192000D01*
X115854000Y-39192000D01*
X115854000Y-39896000D01*
X116858000Y-39896000D01*
X116858000Y-39651411D01*
X116851494Y-39590906D01*
X116800445Y-39454037D01*
X116712904Y-39337095D01*
X116595962Y-39249554D01*
X116459093Y-39198505D01*
X116398589Y-39192000D01*
X115854000Y-39192000D01*
X115346000Y-39192000D01*
X114801411Y-39192000D01*
X114740906Y-39198505D01*
X114604037Y-39249554D01*
X114487095Y-39337095D01*
X114399554Y-39454036D01*
X114343322Y-39604802D01*
X114309130Y-39654806D01*
X114255554Y-39683075D01*
X114194977Y-39683074D01*
X114141402Y-39654805D01*
X114107210Y-39604801D01*
X114101989Y-39590804D01*
X114101989Y-39590799D01*
X114050889Y-39453796D01*
X114038086Y-39436693D01*
X113963261Y-39336738D01*
X113846205Y-39249111D01*
X113758771Y-39216500D01*
X113709201Y-39198011D01*
X113648638Y-39191500D01*
X112051362Y-39191500D01*
X111990799Y-39198011D01*
X111853794Y-39249111D01*
X111736738Y-39336738D01*
X111649111Y-39453794D01*
X111598011Y-39590799D01*
X111591500Y-39651362D01*
X111591500Y-40410405D01*
X111581909Y-40458623D01*
X111554595Y-40499500D01*
X110474500Y-41579595D01*
X110433623Y-41606909D01*
X110385405Y-41616500D01*
X107083853Y-41616500D01*
X107063063Y-41614204D01*
X106992001Y-41616438D01*
X106988043Y-41616500D01*
X106960142Y-41616500D01*
X106956134Y-41617006D01*
X106944313Y-41617936D01*
X106900108Y-41619325D01*
X106880651Y-41624978D01*
X106861301Y-41628986D01*
X106841202Y-41631525D01*
X106800093Y-41647802D01*
X106788865Y-41651646D01*
X106746408Y-41663981D01*
X106728964Y-41674297D01*
X106711217Y-41682990D01*
X106692384Y-41690446D01*
X106656611Y-41716437D01*
X106646693Y-41722951D01*
X106608639Y-41745457D01*
X106594312Y-41759783D01*
X106579283Y-41772618D01*
X106562894Y-41784525D01*
X106534701Y-41818604D01*
X106526713Y-41827381D01*
X104424500Y-43929595D01*
X104383623Y-43956909D01*
X104335405Y-43966500D01*
X95633853Y-43966500D01*
X95613064Y-43964204D01*
X95542014Y-43966438D01*
X95538055Y-43966500D01*
X95510139Y-43966500D01*
X95506123Y-43967007D01*
X95494303Y-43967937D01*
X95450110Y-43969326D01*
X95430657Y-43974978D01*
X95411303Y-43978986D01*
X95391204Y-43981525D01*
X95350096Y-43997801D01*
X95338870Y-44001644D01*
X95296408Y-44013981D01*
X95278964Y-44024297D01*
X95261215Y-44032991D01*
X95242384Y-44040446D01*
X95206625Y-44066427D01*
X95196706Y-44072943D01*
X95158636Y-44095457D01*
X95144309Y-44109785D01*
X95129279Y-44122622D01*
X95112894Y-44134526D01*
X95084711Y-44168593D01*
X95076723Y-44177370D01*
X95022422Y-44231671D01*
X94965940Y-44264282D01*
X94900718Y-44264283D01*
X94869376Y-44255885D01*
X94650000Y-44236693D01*
X94430624Y-44255885D01*
X94217925Y-44312879D01*
X94018347Y-44405943D01*
X93837958Y-44532253D01*
X93682253Y-44687958D01*
X93555943Y-44868347D01*
X93462879Y-45067925D01*
X93405885Y-45280624D01*
X93390938Y-45451481D01*
X93370689Y-45509738D01*
X93325217Y-45551405D01*
X93265417Y-45566500D01*
X90065094Y-45566500D01*
X90017231Y-45557055D01*
X89976543Y-45530136D01*
X89949130Y-45489779D01*
X89862482Y-45285879D01*
X89720761Y-45053661D01*
X89581825Y-44886713D01*
X89546739Y-44844553D01*
X89344124Y-44663009D01*
X89173958Y-44550428D01*
X89117235Y-44512900D01*
X88870909Y-44397428D01*
X88610390Y-44319049D01*
X88341247Y-44279440D01*
X88341245Y-44279440D01*
X87537300Y-44279440D01*
X87496619Y-44282417D01*
X87333892Y-44294327D01*
X87068357Y-44353478D01*
X86814256Y-44450662D01*
X86577014Y-44583809D01*
X86361695Y-44750075D01*
X86361691Y-44750078D01*
X86361691Y-44750079D01*
X86286161Y-44828418D01*
X86172862Y-44945934D01*
X86014573Y-45167181D01*
X85890181Y-45409127D01*
X85802342Y-45666604D01*
X85752928Y-45934128D01*
X85742991Y-46205998D01*
X78100500Y-46205998D01*
X78100500Y-45883940D01*
X80262707Y-45883940D01*
X82151220Y-45883940D01*
X82151220Y-44279940D01*
X82659220Y-44279940D01*
X82659220Y-45883940D01*
X84546485Y-45883940D01*
X84546485Y-45883939D01*
X84537200Y-45799557D01*
X84468408Y-45536423D01*
X84362038Y-45286112D01*
X84220351Y-45053950D01*
X84046378Y-44844900D01*
X83843821Y-44663409D01*
X83616990Y-44513337D01*
X83370730Y-44397896D01*
X83110280Y-44319538D01*
X82841210Y-44279940D01*
X82659220Y-44279940D01*
X82151220Y-44279940D01*
X82037316Y-44279940D01*
X81833965Y-44294823D01*
X81568501Y-44353958D01*
X81314469Y-44451116D01*
X81077290Y-44584227D01*
X80862029Y-44750448D01*
X80673251Y-44946250D01*
X80514999Y-45167447D01*
X80390642Y-45409323D01*
X80302827Y-45666731D01*
X80262707Y-45883940D01*
X78100500Y-45883940D01*
X78100500Y-42191940D01*
X80247221Y-42191940D01*
X80247221Y-43088443D01*
X80257826Y-43192263D01*
X80313564Y-43360469D01*
X80406585Y-43511279D01*
X80531880Y-43636574D01*
X80682690Y-43729595D01*
X80850896Y-43785333D01*
X80954718Y-43795940D01*
X82151220Y-43795940D01*
X82151220Y-42191940D01*
X82659220Y-42191940D01*
X82659220Y-43795939D01*
X83855723Y-43795939D01*
X83959543Y-43785333D01*
X84127749Y-43729595D01*
X84278559Y-43636574D01*
X84403854Y-43511279D01*
X84496875Y-43360469D01*
X84552613Y-43192263D01*
X84563220Y-43088442D01*
X84563220Y-42191940D01*
X82659220Y-42191940D01*
X82151220Y-42191940D01*
X80247221Y-42191940D01*
X78100500Y-42191940D01*
X78100500Y-42005998D01*
X85742991Y-42005998D01*
X85772747Y-42276415D01*
X85841556Y-42539615D01*
X85947957Y-42790000D01*
X86089678Y-43022218D01*
X86233460Y-43194989D01*
X86263701Y-43231327D01*
X86466316Y-43412871D01*
X86693204Y-43562979D01*
X86939531Y-43678452D01*
X87200045Y-43756829D01*
X87200046Y-43756829D01*
X87200049Y-43756830D01*
X87469193Y-43796440D01*
X87469195Y-43796440D01*
X88273139Y-43796440D01*
X88273140Y-43796440D01*
X88476544Y-43781553D01*
X88742084Y-43722401D01*
X88996183Y-43625217D01*
X89233423Y-43492071D01*
X89233422Y-43492071D01*
X89233425Y-43492070D01*
X89352658Y-43400000D01*
X89448749Y-43325801D01*
X89637572Y-43129952D01*
X89658365Y-43100889D01*
X89795866Y-42908698D01*
X89920258Y-42666752D01*
X89940001Y-42608882D01*
X90008098Y-42409274D01*
X90057512Y-42141750D01*
X90067448Y-41869882D01*
X90037693Y-41599465D01*
X89968883Y-41336262D01*
X89882113Y-41132075D01*
X89862482Y-41085879D01*
X89720761Y-40853661D01*
X89579248Y-40683616D01*
X89546739Y-40644553D01*
X89344124Y-40463009D01*
X89141946Y-40329249D01*
X89117235Y-40312900D01*
X88870909Y-40197428D01*
X88713266Y-40150000D01*
X90536496Y-40150000D01*
X90556458Y-40339929D01*
X90615472Y-40521556D01*
X90710958Y-40686942D01*
X90730903Y-40709093D01*
X90838747Y-40828866D01*
X90993248Y-40941118D01*
X91167712Y-41018794D01*
X91354513Y-41058500D01*
X91545485Y-41058500D01*
X91545487Y-41058500D01*
X91732288Y-41018794D01*
X91906752Y-40941118D01*
X92061253Y-40828866D01*
X92087073Y-40800189D01*
X92129461Y-40769393D01*
X92180710Y-40758500D01*
X92431558Y-40758500D01*
X92479776Y-40768091D01*
X92520653Y-40795405D01*
X92586153Y-40860905D01*
X92618765Y-40917389D01*
X92618765Y-40982611D01*
X92586153Y-41039095D01*
X92490405Y-41134842D01*
X92401393Y-41282087D01*
X92350206Y-41446351D01*
X92343720Y-41517735D01*
X92343720Y-42032264D01*
X92350206Y-42103648D01*
X92377719Y-42191940D01*
X92401393Y-42267913D01*
X92406533Y-42276415D01*
X92490405Y-42415157D01*
X92612062Y-42536814D01*
X92612064Y-42536815D01*
X92612065Y-42536816D01*
X92759307Y-42625827D01*
X92923571Y-42677013D01*
X92994955Y-42683500D01*
X93659484Y-42683499D01*
X93730869Y-42677013D01*
X93895133Y-42625827D01*
X94025315Y-42547128D01*
X94088597Y-42528971D01*
X94152398Y-42545209D01*
X94199301Y-42591408D01*
X94216500Y-42654957D01*
X94216500Y-42698638D01*
X94223011Y-42759201D01*
X94229667Y-42777045D01*
X94274111Y-42896205D01*
X94361738Y-43013261D01*
X94478794Y-43100888D01*
X94478795Y-43100888D01*
X94478796Y-43100889D01*
X94615799Y-43151989D01*
X94676362Y-43158500D01*
X96573638Y-43158500D01*
X96634201Y-43151989D01*
X96771204Y-43100889D01*
X96888261Y-43013261D01*
X96965166Y-42910528D01*
X97363680Y-42910528D01*
X97363681Y-42910529D01*
X97392254Y-42932768D01*
X97597474Y-43043828D01*
X97818169Y-43119592D01*
X98048332Y-43158000D01*
X98281668Y-43158000D01*
X98511830Y-43119592D01*
X98732525Y-43043828D01*
X98937744Y-42932770D01*
X98966317Y-42910529D01*
X98966317Y-42910528D01*
X98165000Y-42109210D01*
X98164999Y-42109210D01*
X97363680Y-42910528D01*
X96965166Y-42910528D01*
X96975889Y-42896204D01*
X97026989Y-42759201D01*
X97033500Y-42698638D01*
X97033500Y-42574479D01*
X97043091Y-42526261D01*
X97070405Y-42485383D01*
X97805789Y-41750000D01*
X98524210Y-41750000D01*
X99324202Y-42549990D01*
X99407544Y-42422428D01*
X99501275Y-42208742D01*
X99558555Y-41982548D01*
X99577825Y-41750000D01*
X99558555Y-41517451D01*
X99501276Y-41291260D01*
X99407543Y-41077569D01*
X99324202Y-40950007D01*
X98524210Y-41749999D01*
X98524210Y-41750000D01*
X97805789Y-41750000D01*
X97070405Y-41014617D01*
X97043091Y-40973739D01*
X97033500Y-40925521D01*
X97033500Y-40801362D01*
X97033374Y-40800189D01*
X97026989Y-40740799D01*
X96975889Y-40603796D01*
X96965165Y-40589470D01*
X97363680Y-40589470D01*
X98164999Y-41390789D01*
X98165000Y-41390789D01*
X98966318Y-40589470D01*
X98966317Y-40589469D01*
X98937745Y-40567230D01*
X98732525Y-40456171D01*
X98580555Y-40404000D01*
X106692000Y-40404000D01*
X106692000Y-40648589D01*
X106698505Y-40709093D01*
X106749554Y-40845962D01*
X106837095Y-40962904D01*
X106954037Y-41050445D01*
X107090906Y-41101494D01*
X107151411Y-41108000D01*
X107696000Y-41108000D01*
X107696000Y-40404000D01*
X108204000Y-40404000D01*
X108204000Y-41108000D01*
X108748589Y-41108000D01*
X108809093Y-41101494D01*
X108945962Y-41050445D01*
X109062904Y-40962904D01*
X109150445Y-40845962D01*
X109201494Y-40709093D01*
X109208000Y-40648589D01*
X109208000Y-40404000D01*
X108204000Y-40404000D01*
X107696000Y-40404000D01*
X106692000Y-40404000D01*
X98580555Y-40404000D01*
X98511830Y-40380407D01*
X98281668Y-40342000D01*
X98048332Y-40342000D01*
X97818169Y-40380407D01*
X97597474Y-40456171D01*
X97392255Y-40567230D01*
X97363681Y-40589469D01*
X97363680Y-40589470D01*
X96965165Y-40589470D01*
X96965164Y-40589469D01*
X96888261Y-40486738D01*
X96771205Y-40399111D01*
X96678677Y-40364600D01*
X96634201Y-40348011D01*
X96573638Y-40341500D01*
X94676362Y-40341500D01*
X94615799Y-40348011D01*
X94480751Y-40398381D01*
X94421016Y-40405343D01*
X94364858Y-40383824D01*
X94325071Y-40338727D01*
X94310719Y-40280328D01*
X94310719Y-39896000D01*
X106692000Y-39896000D01*
X107696000Y-39896000D01*
X107696000Y-39192000D01*
X108204000Y-39192000D01*
X108204000Y-39896000D01*
X109208000Y-39896000D01*
X109208000Y-39651411D01*
X109201494Y-39590906D01*
X109150445Y-39454037D01*
X109062904Y-39337095D01*
X108945962Y-39249554D01*
X108809093Y-39198505D01*
X108748589Y-39192000D01*
X108204000Y-39192000D01*
X107696000Y-39192000D01*
X107151411Y-39192000D01*
X107090906Y-39198505D01*
X106954037Y-39249554D01*
X106837095Y-39337095D01*
X106749554Y-39454037D01*
X106698505Y-39590906D01*
X106692000Y-39651411D01*
X106692000Y-39896000D01*
X94310719Y-39896000D01*
X94310719Y-39867736D01*
X94304233Y-39796351D01*
X94253047Y-39632087D01*
X94164036Y-39484845D01*
X94164035Y-39484844D01*
X94164034Y-39484842D01*
X94042377Y-39363185D01*
X93998628Y-39336738D01*
X93895133Y-39274173D01*
X93816127Y-39249554D01*
X93730868Y-39222986D01*
X93665970Y-39217089D01*
X93659484Y-39216500D01*
X92994955Y-39216500D01*
X92923572Y-39222986D01*
X92759307Y-39274173D01*
X92612062Y-39363185D01*
X92520653Y-39454595D01*
X92479776Y-39481909D01*
X92431558Y-39491500D01*
X92130223Y-39491500D01*
X92091287Y-39485333D01*
X92056165Y-39467437D01*
X91906752Y-39358882D01*
X91732288Y-39281206D01*
X91545487Y-39241500D01*
X91354513Y-39241500D01*
X91229978Y-39267970D01*
X91167711Y-39281206D01*
X90993246Y-39358883D01*
X90838747Y-39471133D01*
X90710958Y-39613057D01*
X90615472Y-39778443D01*
X90556458Y-39960070D01*
X90536496Y-40150000D01*
X88713266Y-40150000D01*
X88610390Y-40119049D01*
X88341247Y-40079440D01*
X88341245Y-40079440D01*
X87537300Y-40079440D01*
X87496619Y-40082417D01*
X87333892Y-40094327D01*
X87068357Y-40153478D01*
X86814256Y-40250662D01*
X86577014Y-40383809D01*
X86361695Y-40550075D01*
X86172862Y-40745934D01*
X86014573Y-40967181D01*
X85890181Y-41209127D01*
X85802342Y-41466604D01*
X85752928Y-41734128D01*
X85742991Y-42005998D01*
X78100500Y-42005998D01*
X78100500Y-41683940D01*
X80247220Y-41683940D01*
X82151220Y-41683940D01*
X82151220Y-40079941D01*
X80954717Y-40079941D01*
X80850896Y-40090546D01*
X80682690Y-40146284D01*
X80531880Y-40239305D01*
X80406585Y-40364600D01*
X80313564Y-40515410D01*
X80257826Y-40683616D01*
X80247220Y-40787438D01*
X80247220Y-41683940D01*
X78100500Y-41683940D01*
X78100500Y-40079940D01*
X82659220Y-40079940D01*
X82659220Y-41683940D01*
X84563219Y-41683940D01*
X84563219Y-40787437D01*
X84552613Y-40683616D01*
X84496875Y-40515410D01*
X84403854Y-40364600D01*
X84278559Y-40239305D01*
X84127749Y-40146284D01*
X83959543Y-40090546D01*
X83855722Y-40079940D01*
X82659220Y-40079940D01*
X78100500Y-40079940D01*
X78100500Y-38927748D01*
X78117423Y-38864676D01*
X78163645Y-38818545D01*
X78226750Y-38801748D01*
X140198124Y-38924999D01*
G37*
%TD.AperFunction*%
%TD*%
M02*
