<?xml version="1.0" encoding="utf-8"?>
<!-- Generator: Fusion 360, Shaper Origin Export Add-In, Version 1.6.10  -->
<svg xmlns="http://www.w3.org/2000/svg" xmlns:xlink="http://www.w3.org/1999/xlink" xmlns:shaper="http://www.shapertools.com/namespaces/shaper" shaper:fusionaddin="version:1.6.10" width="12.3825cm" height="1.8415cm" version="1.1" x="0cm" y="0cm" viewBox="0 0 12.3825 1.8415" enable-background="new 0 0 12.3825 1.8415" xml:space="preserve"><path d="M-6.19125,0.92075 L-6.19125,-0.92075 6.19125,-0.92075 6.19125,0.92075 -6.19125,0.92075z" transform="matrix(1,0,0,-1,6.19125,0.92075)" fill="rgb(0,0,0)" shaper:cutDepth="0.0015875" stroke-linecap="round" stroke-linejoin="round" /><path d="M-4.6338584,-0.2415655 L-4.6338987,-0.2414732 -4.6338987,-0.2414732 -4.6509991,-0.2425676 -4.6678969,-0.2454065 -4.6843071,-0.250337 -4.7000089,-0.2571942 -4.7147017,-0.2660104 -4.7282865,-0.2764559 -4.7407159,-0.2882486 -4.7520012,-0.3011449 -4.7520012,-0.3011449 -4.7638205,-0.3175397 -4.7744012,-0.3347592 -4.7835424,-0.3527848 -4.7912369,-0.3714734 -4.7974362,-0.3907101 -4.8020001,-0.4103981 -4.8048014,-0.430414 -4.8057612,-0.4506015 -4.8057612,-0.4506015 -4.8049658,-0.4709944 -4.8025515,-0.4912584 -4.7986605,-0.5112927 -4.7931395,-0.5309393 -4.7860962,-0.5500936 -4.7775612,-0.5686306 -4.767442,-0.5863533 -4.7557884,-0.6031063 -4.7557884,-0.6031063 -4.7445639,-0.616498 -4.7322621,-0.6289026 -4.7187403,-0.6399713 -4.7040253,-0.6493867 -4.6882615,-0.6569235 -4.6716255,-0.662252 -4.6544444,-0.6654279 -4.6369991,-0.6663805 -4.6369991,-0.6663805 -4.6225238,-0.6656613 -4.6082011,-0.6634491 -4.5942117,-0.659663 -4.5806965,-0.6544313 -4.5678389,-0.6477451 -4.5558141,-0.6396537 -4.5446402,-0.6304253 -4.5342823,-0.6202873 -4.5342823,-0.6202873 -4.5211386,-0.6049113 -4.5159269,-0.5962278 -4.5144201,-0.5914182 -4.5137759,-0.5863871 -4.5137759,-0.5863871 -4.5142308,-0.5812187 -4.5154314,-0.5761723 -4.517643,-0.5714809 -4.5207536,-0.5673307 -4.5246469,-0.5639035 -4.5292119,-0.5614428 -4.534201,-0.560027 -4.5393627,-0.5595071 -4.5393627,-0.5595071 -4.5463889,-0.5601008 -4.553002,-0.5625188 -4.558502,-0.5669235 -4.5630098,-0.5723467 -4.5630098,-0.5723467 -4.5697501,-0.580624 -4.5769951,-0.5884635 -4.5849411,-0.5955892 -4.5935298,-0.6019303 -4.6028182,-0.6071874 -4.612785,-0.6109938 -4.6232046,-0.613322 -4.6338584,-0.6139137 -4.6338584,-0.6139137 -4.6443113,-0.6135346 -4.6546387,-0.6118733 -4.664696,-0.6090064 -4.6742891,-0.6048339 -4.6833453,-0.5996044 -4.6917561,-0.5933821 -4.6995351,-0.5863924 -4.7066469,-0.5787203 -4.7066469,-0.5787203 -4.7171182,-0.5652431 -4.7262947,-0.5508526 -4.7341855,-0.5357193 -4.7407662,-0.5199715 -4.7460076,-0.5037289 -4.7499827,-0.4871309 -4.7523503,-0.4702288 -4.7532944,-0.4531879 -4.7532944,-0.4531879 -4.7525654,-0.4396257 -4.7510858,-0.4261271 -4.7487365,-0.4127493 -4.7455185,-0.3995556 -4.7413652,-0.3866249 -4.736237,-0.3740496 -4.7301401,-0.3619142 -4.7231292,-0.3502824 -4.7152302,-0.3392357 -4.7064438,-0.3288786 -4.6967295,-0.319392 -4.6860178,-0.3110406 -4.6743299,-0.3041386 -4.661791,-0.2989244 -4.6486486,-0.2955095 -4.6351516,-0.2940323 -4.6351516,-0.2940323 -4.6255229,-0.2946328 -4.6160514,-0.2964774 -4.6068845,-0.2994767 -4.5982154,-0.3037161 -4.5900985,-0.3089285 -4.5825956,-0.3149976 -4.5757125,-0.3217571 -4.5693834,-0.329041 -4.5693834,-0.329041 -4.5637307,-0.3360506 -4.5573868,-0.342437 -4.5537059,-0.3450405 -4.5495774,-0.3468845 -4.5451774,-0.347753 -4.5406559,-0.3479771 -4.5406559,-0.3479771 -4.5354425,-0.3473594 -4.5304387,-0.345776 -4.5258684,-0.3431952 -4.521905,-0.3397528 -4.5186638,-0.3356249 -4.5163547,-0.3309096 -4.5149203,-0.3258625 -4.5144225,-0.3206352 -4.5144225,-0.3206352 -4.5151724,-0.3138535 -4.5177893,-0.3075472 -4.5259689,-0.2966187 -4.5259689,-0.2966187 -4.5365687,-0.2851055 -4.5480595,-0.2744884 -4.5604495,-0.2649256 -4.5737678,-0.2567167 -4.5879529,-0.2501082 -4.6028592,-0.2453614 -4.6182384,-0.2424702 -4.6338584,-0.2415655z" transform="matrix(1,0,0,-1,6.19125,0.92075)" fill="rgb(104,104,104)" fill-rule="nonzero" shaper:cutDepth="0.0000762" stroke-linecap="round" stroke-linejoin="round" /><path d="M-4.1968506,-0.2696387 L-4.1968506,-0.4070024 -4.3985891,-0.4070024 -4.3985891,-0.2710344 -4.3985891,-0.2710344 -4.3996151,-0.2603198 -4.4011135,-0.2551512 -4.4035578,-0.2503532 -4.4070451,-0.2462559 -4.4115945,-0.2433921 -4.4167716,-0.2419233 -4.4221437,-0.2415655 -4.4221437,-0.2415655 -4.4291154,-0.2425804 -4.4355584,-0.2453949 -4.4383317,-0.2476014 -4.4406323,-0.2502689 -4.443851,-0.2565296 -4.443851,-0.2565296 -4.4450776,-0.2644171 -4.4451441,-0.2724175 -4.4451442,-0.6372493 -4.4451442,-0.6372493 -4.444358,-0.6480695 -4.4429569,-0.6533179 -4.4405155,-0.6581638 -4.436869,-0.6621784 -4.4321952,-0.6649288 -4.4269245,-0.6662195 -4.4214971,-0.6663805 -4.4214971,-0.6663805 -4.4161485,-0.6662082 -4.4109769,-0.664847 -4.4064344,-0.662032 -4.4029486,-0.6579783 -4.4006717,-0.6531407 -4.3993619,-0.6479469 -4.3985891,-0.6372836 -4.3985891,-0.4535574 -4.1968506,-0.4535574 -4.1968506,-0.6346712 -4.1968506,-0.6346712 -4.1968063,-0.6428273 -4.1964828,-0.6468937 -4.1955573,-0.6508622 -4.1955573,-0.6508622 -4.1926742,-0.6574506 -4.1903789,-0.6602168 -4.1875499,-0.6624938 -4.1843805,-0.6642364 -4.1809837,-0.6653972 -4.17385,-0.6663805 -4.17385,-0.6663805 -4.1682036,-0.6660333 -4.1627132,-0.6646836 -4.1578643,-0.661785 -4.1543128,-0.6574015 -4.1521832,-0.6521595 -4.1509802,-0.6466296 -4.1502954,-0.6353438 -4.1502955,-0.2710344 -4.1502955,-0.2710344 -4.1510723,-0.2603224 -4.1524115,-0.2551168 -4.1546482,-0.2502265 -4.1581038,-0.2461232 -4.1626664,-0.2432947 -4.167835,-0.2418309 -4.1732034,-0.2415655 -4.1732034,-0.2415655 -4.1782737,-0.2420691 -4.1831718,-0.2434642 -4.1876445,-0.2459008 -4.1914396,-0.2492978 -4.1943365,-0.2534874 -4.1962129,-0.2582232 -4.1969767,-0.2632583 -4.1968505,-0.2683532 -4.1968506,-0.2696387z" transform="matrix(1,0,0,-1,6.19125,0.92075)" fill="rgb(104,104,104)" fill-rule="nonzero" shaper:cutDepth="0.0000762" stroke-linecap="round" stroke-linejoin="round" /><path d="M-4.0102178,-0.5954395 L-4.0305823,-0.6483681 -4.0305823,-0.6483681 -4.0347285,-0.6557794 -4.0374635,-0.6590429 -4.0407232,-0.6617728 -4.0443984,-0.6639173 -4.0483913,-0.6653854 -4.0525634,-0.6662156 -4.0568158,-0.6663805 -4.0568158,-0.6663805 -4.0618927,-0.6659742 -4.0668452,-0.6647962 -4.0715247,-0.6627866 -4.0757208,-0.6599026 -4.0792719,-0.6562542 -4.0820308,-0.6519753 -4.0836275,-0.6471409 -4.08425,-0.6420869 -4.08425,-0.6420869 -4.0838194,-0.6371851 -4.0824494,-0.6324513 -4.0791736,-0.6231614 -3.9424603,-0.2617024 -3.9424603,-0.2617024 -3.9385807,-0.2536698 -3.9359952,-0.2500332 -3.9328844,-0.2468309 -3.9292354,-0.244267 -3.9251532,-0.2424657 -3.9207816,-0.2415754 -3.9163192,-0.2415655 -3.9163192,-0.2415655 -3.9109203,-0.2417649 -3.905632,-0.2428803 -3.9007243,-0.2451042 -3.8966114,-0.2486143 -3.8933878,-0.2529389 -3.890674,-0.2576217 -3.8863527,-0.2675146 -3.7483884,-0.6275846 -3.7483884,-0.6275846 -3.7466553,-0.6347571 -3.745802,-0.6420869 -3.745802,-0.6420869 -3.7464413,-0.6471334 -3.7481338,-0.6519288 -3.7508864,-0.6562052 -3.7544605,-0.6598245 -3.7586681,-0.6626813 -3.7633291,-0.6647235 -3.7682561,-0.6659784 -3.7733286,-0.6663805 -3.7733286,-0.6663805 -3.7779405,-0.6662726 -3.7824585,-0.6653512 -3.7866334,-0.6633941 -3.790354,-0.6606624 -3.7935245,-0.65732 -3.7961241,-0.6535016 -3.800158,-0.6452145 -3.8186739,-0.5954395 -4.0102178,-0.5954395z M-3.9904249,-0.5429726 L-3.8397437,-0.5429726 -3.9150843,-0.3435254 -3.9904249,-0.5429726z" transform="matrix(1,0,0,-1,6.19125,0.92075)" fill="rgb(104,104,104)" fill-rule="nonzero" shaper:cutDepth="0.0000762" stroke-linecap="round" stroke-linejoin="round" /><path d="M-3.4401458,-0.2755581 L-3.440146,-0.5510732 -3.6306903,-0.2596353 -3.6306903,-0.2596353 -3.6357892,-0.2527647 -3.6418876,-0.2467778 -3.6454577,-0.2443954 -3.6493942,-0.2426803 -3.6578647,-0.2415655 -3.6578647,-0.2415655 -3.6652336,-0.2426163 -3.6719752,-0.2457461 -3.6750326,-0.2479489 -3.6776561,-0.2505718 -3.6812346,-0.2570839 -3.6812346,-0.2570839 -3.6822026,-0.2613405 -3.682485,-0.2657067 -3.6825278,-0.2744497 -3.6825279,-0.6321353 -3.6825279,-0.6321353 -3.6822894,-0.6429418 -3.6815724,-0.6483012 -3.6799414,-0.6534486 -3.6799414,-0.6534486 -3.6756471,-0.6589445 -3.6700345,-0.6630844 -3.6634935,-0.6654928 -3.6565715,-0.6663805 -3.6565715,-0.6663805 -3.6508949,-0.6658796 -3.6453979,-0.6643868 -3.6404206,-0.6616217 -3.6363533,-0.6576355 -3.6334225,-0.6527554 -3.6315703,-0.6473626 -3.630061,-0.6360828 -3.630061,-0.3561379 -3.440146,-0.6495058 -3.440146,-0.6495058 -3.4350028,-0.6561218 -3.4287075,-0.6616188 -3.4250772,-0.6637675 -3.4211887,-0.6653289 -3.4128964,-0.6663805 -3.4128964,-0.6663805 -3.4073799,-0.6659522 -3.4020491,-0.6644804 -3.3972308,-0.6617735 -3.3933882,-0.6577971 -3.390693,-0.6529714 -3.3889983,-0.6477002 -3.387679,-0.6367294 -3.3876791,-0.2731456 -3.3876791,-0.2731456 -3.3885959,-0.2613741 -3.3901701,-0.2556913 -3.3927837,-0.2503811 -3.3967936,-0.2460773 -3.4019031,-0.2431171 -3.4076396,-0.241729 -3.4135429,-0.2415655 -3.4135429,-0.2415655 -3.419803,-0.2418966 -3.4258906,-0.2433787 -3.4313294,-0.2464706 -3.4354184,-0.2512109 -3.4379619,-0.2569327 -3.4393268,-0.2630554 -3.4401458,-0.2755581z" transform="matrix(1,0,0,-1,6.19125,0.92075)" fill="rgb(104,104,104)" fill-rule="nonzero" shaper:cutDepth="0.0000762" stroke-linecap="round" stroke-linejoin="round" /><path d="M-2.9620327,-0.6372836 L-2.9620327,-0.2699789 -2.9620327,-0.2699789 -2.9629923,-0.259573 -2.9643699,-0.2545096 -2.9667516,-0.2498709 -2.9701906,-0.2459097 -2.9746787,-0.2432508 -2.9797126,-0.2418231 -2.9849407,-0.2415655 -2.9849407,-0.2415655 -2.9908791,-0.2422896 -2.9964821,-0.2443821 -3.0014155,-0.2477604 -3.0055395,-0.2520958 -3.0055395,-0.2520958 -3.0075055,-0.2567715 -3.0082784,-0.2617957 -3.0085877,-0.2719556 -3.0085878,-0.6372544 -3.0085878,-0.6372544 -3.0084704,-0.6454749 -3.008061,-0.6495624 -3.0067403,-0.6534486 -3.0067403,-0.6534486 -3.0029737,-0.6589152 -2.9976839,-0.6629538 -2.9915202,-0.6654288 -2.9849407,-0.6663805 -2.9849407,-0.6663805 -2.979004,-0.6656572 -2.9734039,-0.6635675 -2.9683406,-0.6603694 -2.9644343,-0.6558502 -2.9644343,-0.6558502 -2.9629776,-0.6513683 -2.9622652,-0.6467098 -2.9620327,-0.6372836z" transform="matrix(1,0,0,-1,6.19125,0.92075)" fill="rgb(104,104,104)" fill-rule="nonzero" shaper:cutDepth="0.0000762" stroke-linecap="round" stroke-linejoin="round" /><path d="M-4.2685305,0.2339095 L-4.2685305,0.3410599 -4.0667709,0.3410599 -4.0667709,0.3410599 -4.0606667,0.3411864 -4.0546306,0.3420083 -4.0487376,0.3436278 -4.043258,0.3462812 -4.0385613,0.3501839 -4.035298,0.3553193 -4.033425,0.3611235 -4.0328916,0.3672011 -4.0328916,0.3672011 -4.0335404,0.3732156 -4.0355103,0.3789345 -4.0388001,0.3840004 -4.043404,0.3879226 -4.048842,0.3905604 -4.0546789,0.3921726 -4.0666995,0.3934345 -4.2835221,0.3935268 -4.2835221,0.3935268 -4.291087,0.3936732 -4.2985911,0.3927435 -4.3057473,0.3903003 -4.3090211,0.3883851 -4.3119361,0.3859682 -4.3164115,0.3798747 -4.3192515,0.3728689 -4.3206104,0.3654274 -4.3209973,0.3578716 -4.3209974,0.0030562 -4.3209974,0.0030562 -4.3208639,-0.0067887 -4.3204211,-0.0116914 -4.3190575,-0.0164164 -4.3190575,-0.0164164 -4.3149185,-0.0226773 -4.3091117,-0.0274302 -4.3022021,-0.0303361 -4.2947639,-0.0313805 -4.2947639,-0.0313805 -4.2868755,-0.0302657 -4.2830953,-0.0289779 -4.279577,-0.0270766 -4.2764535,-0.024605 -4.2738031,-0.0216335 -4.2717786,-0.0182045 -4.2703779,-0.0144766 -4.2703779,-0.0144766 -4.2690194,-0.0102708 -4.2685683,-0.0058688 -4.2685305,0.0029816 -4.2685305,0.1814426 -4.126788,0.1814426 -4.126788,0.1814426 -4.1161627,0.1816589 -4.1108697,0.1821616 -4.1056801,0.1832901 -4.1056801,0.1832901 -4.0987797,0.1868992 -4.095846,0.1894543 -4.093397,0.1925177 -4.0914843,0.1959341 -4.0901802,0.1995968 -4.0890533,0.2073066 -4.0890533,0.2073066 -4.0894253,0.2136965 -4.0913048,0.21981 -4.0949156,0.2250862 -4.0999345,0.2290457 -4.10581,0.2315806 -4.1120399,0.2330737 -4.1248009,0.2339095 -4.2685305,0.2339095z" transform="matrix(1,0,0,-1,6.19125,0.92075)" fill="rgb(104,104,104)" fill-rule="nonzero" shaper:cutDepth="0.0000762" stroke-linecap="round" stroke-linejoin="round" /><path d="M-3.7943893,0.3934345 L-3.7944295,0.3935268 -3.7944295,0.3935268 -3.8115299,0.3924324 -3.8284278,0.3895935 -3.8448379,0.384663 -3.8605397,0.3778058 -3.8752325,0.3689896 -3.8888173,0.3585441 -3.9012467,0.3467514 -3.912532,0.3338551 -3.912532,0.3338551 -3.9243513,0.3174603 -3.934932,0.3002408 -3.9440733,0.2822152 -3.9517677,0.2635266 -3.957967,0.2442899 -3.9625309,0.2246019 -3.9653322,0.204586 -3.966292,0.1843985 -3.966292,0.1843985 -3.9654966,0.1640056 -3.9630823,0.1437416 -3.9591913,0.1237073 -3.9536703,0.1040607 -3.9466271,0.0849064 -3.9380921,0.0663694 -3.9279729,0.0486467 -3.9163192,0.0318937 -3.9163192,0.0318937 -3.9050948,0.018502 -3.8927929,0.0060974 -3.8792711,-0.0049713 -3.8645562,-0.0143867 -3.8487923,-0.0219235 -3.8321563,-0.027252 -3.8149752,-0.0304279 -3.7975299,-0.0313805 -3.7975299,-0.0313805 -3.7830546,-0.0306613 -3.7687319,-0.0284491 -3.7547426,-0.024663 -3.7412273,-0.0194313 -3.7283697,-0.0127451 -3.716345,-0.0046537 -3.7051711,0.0045747 -3.6948132,0.0147127 -3.6948132,0.0147127 -3.6816694,0.0300887 -3.6764578,0.0387722 -3.6749509,0.0435818 -3.6743068,0.0486129 -3.6743068,0.0486129 -3.6747616,0.0537813 -3.6759623,0.0588277 -3.6781738,0.0635191 -3.6812845,0.0676693 -3.6851777,0.0710965 -3.6897427,0.0735572 -3.6947318,0.074973 -3.6998936,0.0754929 -3.6998936,0.0754929 -3.7069197,0.0748992 -3.7135329,0.0724812 -3.7190328,0.0680765 -3.7235406,0.0626533 -3.7235406,0.0626533 -3.7302809,0.054376 -3.737526,0.0465365 -3.7454719,0.0394108 -3.7540606,0.0330697 -3.763349,0.0278126 -3.7733159,0.0240062 -3.7837355,0.021678 -3.7943893,0.0210863 -3.7943893,0.0210863 -3.8048421,0.0214654 -3.8151695,0.0231267 -3.8252269,0.0259936 -3.8348199,0.0301661 -3.8438762,0.0353956 -3.8522869,0.0416179 -3.8600659,0.0486076 -3.8671778,0.0562797 -3.8671778,0.0562797 -3.877649,0.0697569 -3.8868255,0.0841474 -3.8947163,0.0992807 -3.901297,0.1150285 -3.9065384,0.1312711 -3.9105135,0.1478691 -3.9128812,0.1647712 -3.9138252,0.1818121 -3.9138252,0.1818121 -3.9130963,0.1953743 -3.9116167,0.2088729 -3.9092673,0.2222507 -3.9060493,0.2354444 -3.901896,0.2483751 -3.8967678,0.2609504 -3.890671,0.2730858 -3.88366,0.2847176 -3.875761,0.2957643 -3.8669747,0.3061214 -3.8572603,0.315608 -3.8465487,0.3239594 -3.8348607,0.3308614 -3.8223218,0.3360756 -3.8091794,0.3394905 -3.7956825,0.3409677 -3.7956825,0.3409677 -3.7860537,0.3403672 -3.7765822,0.3385226 -3.7674153,0.3355233 -3.7587462,0.3312839 -3.7506293,0.3260715 -3.7431264,0.3200024 -3.7362433,0.3132429 -3.7299142,0.305959 -3.7299142,0.305959 -3.7242615,0.2989494 -3.7179176,0.292563 -3.7142367,0.2899595 -3.7101082,0.2881155 -3.7057082,0.287247 -3.7011868,0.2870229 -3.7011868,0.2870229 -3.6959734,0.2876406 -3.6909696,0.289224 -3.6863992,0.2918048 -3.6824359,0.2952472 -3.6791947,0.2993751 -3.6768855,0.3040904 -3.6754511,0.3091375 -3.6749534,0.3143648 -3.6749534,0.3143648 -3.6757032,0.3211465 -3.6783201,0.3274528 -3.6864997,0.3383813 -3.6864997,0.3383813 -3.6970995,0.3498945 -3.7085903,0.3605116 -3.7209803,0.3700744 -3.7342986,0.3782833 -3.7484837,0.3848918 -3.76339,0.3896386 -3.7787693,0.3925298 -3.7943893,0.3934345z" transform="matrix(1,0,0,-1,6.19125,0.92075)" fill="rgb(104,104,104)" fill-rule="nonzero" shaper:cutDepth="0.0000762" stroke-linecap="round" stroke-linejoin="round" /><path d="M-3.4430588,0.3935268 L-3.4842056,0.3915234 -3.4842056,0.3915234 -3.4949255,0.390417 -3.5055444,0.3885852 -3.5159902,0.3859333 -3.5261643,0.3823824 -3.5359349,0.3778359 -3.5451725,0.3722888 -3.5538719,0.3659275 -3.5618782,0.3587158 -3.5691727,0.3507831 -3.5756113,0.3421424 -3.5811284,0.3328859 -3.585693,0.3231248 -3.5891626,0.3129219 -3.5917029,0.3024501 -3.5931689,0.2917736 -3.5938515,0.2810188 -3.5938515,0.2810188 -3.592957,0.2677908 -3.5906285,0.2547392 -3.5867361,0.2420654 -3.5814614,0.2299016 -3.5747976,0.2184397 -3.566804,0.2078641 -3.5575318,0.198387 -3.5470193,0.1903103 -3.5470193,0.1903103 -3.5358714,0.1836315 -3.5239016,0.1785485 -3.511473,0.1747462 -3.4988015,0.1718361 -3.4302032,0.1572014 -3.4302032,0.1572014 -3.4179137,0.1543903 -3.4060609,0.1501288 -3.4060609,0.1501288 -3.3980605,0.1452221 -3.3908224,0.1392478 -3.3845269,0.1322868 -3.3791954,0.1245631 -3.3749752,0.1161791 -3.3717999,0.1073471 -3.3699119,0.0981536 -3.3692048,0.0887944 -3.3692048,0.0887944 -3.3702272,0.0777284 -3.372746,0.0669057 -3.3770386,0.0566563 -3.3828079,0.0471585 -3.3900038,0.0386892 -3.3985644,0.0316094 -3.4082111,0.0260919 -3.4187157,0.0224719 -3.4187157,0.0224719 -3.4320174,0.0206984 -3.445411,0.0198855 -3.4835703,0.0199282 -3.4835703,0.0199282 -3.4966867,0.0202751 -3.5032079,0.0210339 -3.509609,0.0224719 -3.509609,0.0224719 -3.5184592,0.0261112 -3.5266164,0.0311145 -3.5338484,0.0373814 -3.5401571,0.0445776 -3.5454496,0.0525516 -3.5495064,0.0612176 -3.5521421,0.0704177 -3.5532082,0.0799267 -3.5532082,0.0799267 -3.5525616,0.0856538 -3.5525692,0.0907995 -3.5525692,0.0907995 -3.5530376,0.0958478 -3.5541777,0.1007879 -3.5562788,0.1054005 -3.559263,0.1094988 -3.5630068,0.1129158 -3.5673622,0.115508 -3.5721846,0.1170678 -3.5772247,0.1176142 -3.5772247,0.1176142 -3.5836278,0.1168067 -3.5896675,0.1145272 -3.5949187,0.1107867 -3.5990478,0.1058233 -3.6021111,0.10014 -3.6041907,0.0940282 -3.6052809,0.0876654 -3.605675,0.0812199 -3.605675,0.0812199 -3.6043301,0.0647933 -3.6028703,0.056681 -3.6007706,0.0487019 -3.59484,0.033325 -3.5868516,0.0189092 -3.5769667,0.0057207 -3.5713043,-0.0002673 -3.5652096,-0.0058274 -3.5587353,-0.0109488 -3.5518772,-0.0155154 -3.5372279,-0.0230671 -3.5372279,-0.0230671 -3.5242477,-0.0267483 -3.5110038,-0.0293371 -3.4975983,-0.0308659 -3.4841145,-0.0313805 -3.4426732,-0.0313805 -3.4426732,-0.0313805 -3.4305406,-0.0306858 -3.4184795,-0.0292183 -3.4065568,-0.0268575 -3.394914,-0.0233858 -3.3836426,-0.0188435 -3.3728417,-0.0132755 -3.3627092,-0.0065701 -3.3533523,0.0011825 -3.3448412,0.0098551 -3.3373116,0.0193916 -3.3309328,0.0297333 -3.3258093,0.0407514 -3.3218573,0.0522411 -3.3190861,0.0640735 -3.3173945,0.0761055 -3.316738,0.0882401 -3.316738,0.0882401 -3.3172453,0.0989138 -3.318528,0.1095219 -3.3206828,0.1199874 -3.3236239,0.130261 -3.3276136,0.1401724 -3.3323858,0.1497329 -3.3381095,0.1587561 -3.3445868,0.1672537 -3.3518036,0.1751343 -3.3596565,0.1823792 -3.3681751,0.188831 -3.3772222,0.1945152 -3.3867249,0.1994031 -3.3965687,0.203559 -3.4067171,0.2069043 -3.4170531,0.2096159 -3.4861204,0.2238002 -3.4861204,0.2238002 -3.4973877,0.2262187 -3.5084081,0.229568 -3.5084081,0.229568 -3.5156452,0.2334332 -3.5221792,0.2383969 -3.5279105,0.2442651 -3.5326249,0.2509824 -3.5363939,0.2582697 -3.5391531,0.2659978 -3.5408024,0.2740342 -3.5413846,0.2822196 -3.5413846,0.2822196 -3.5402599,0.2938922 -3.5389295,0.2996014 -3.5369812,0.3051463 -3.5344682,0.3104572 -3.5313837,0.3154451 -3.5277353,0.3200383 -3.5236209,0.3242332 -3.5191273,0.3280135 -3.5142731,0.3313016 -3.5036675,0.3363114 -3.4923492,0.3393545 -3.4806968,0.3406905 -3.4488051,0.3413518 -3.4456127,0.3413518 -3.4456127,0.3413518 -3.4340858,0.3406507 -3.4227881,0.3382924 -3.412053,0.3340439 -3.4070579,0.3311356 -3.4024237,0.3276834 -3.3944343,0.3193518 -3.3881285,0.3096833 -3.3836103,0.2990596 -3.3804741,0.2879466 -3.3804741,0.2879466 -3.3771703,0.2793701 -3.3747815,0.2754397 -3.3717821,0.2719521 -3.3681449,0.2691426 -3.3639879,0.2671769 -3.3594854,0.2662459 -3.3548873,0.266147 -3.3548873,0.266147 -3.3495912,0.2666579 -3.3444802,0.2681284 -3.3398044,0.2706631 -3.3358002,0.274165 -3.3326289,0.2784332 -3.330471,0.2832977 -3.3292191,0.2884658 -3.3287462,0.293766 -3.3287462,0.293766 -3.3300685,0.3054783 -3.3333403,0.3168202 -3.3378462,0.3277142 -3.3434332,0.3381042 -3.3434332,0.3381042 -3.3515136,0.3501116 -3.3610034,0.3610361 -3.3718789,0.3705849 -3.3839172,0.3786166 -3.3968914,0.3850281 -3.4105775,0.38973 -3.42478,0.392507 -3.4392221,0.3934345 -3.4430588,0.3935268z" transform="matrix(1,0,0,-1,6.19125,0.92075)" fill="rgb(104,104,104)" fill-rule="nonzero" shaper:cutDepth="0.0000762" stroke-linecap="round" stroke-linejoin="round" /><path d="M-1.7285305,0.2339095 L-1.7285305,0.3410599 -1.5267709,0.3410599 -1.5267709,0.3410599 -1.5206667,0.3411864 -1.5146306,0.3420083 -1.5087376,0.3436278 -1.503258,0.3462812 -1.4985613,0.3501839 -1.495298,0.3553193 -1.493425,0.3611235 -1.4928916,0.3672011 -1.4928916,0.3672011 -1.4935404,0.3732156 -1.4955103,0.3789345 -1.4988001,0.3840004 -1.503404,0.3879226 -1.508842,0.3905604 -1.5146789,0.3921726 -1.5266995,0.3934345 -1.7435221,0.3935268 -1.7435221,0.3935268 -1.751087,0.3936732 -1.7585911,0.3927435 -1.7657473,0.3903003 -1.7690211,0.3883851 -1.7719361,0.3859682 -1.7764115,0.3798747 -1.7792515,0.3728689 -1.7806104,0.3654274 -1.7809973,0.3578716 -1.7809974,0.0030562 -1.7809974,0.0030562 -1.7808639,-0.0067887 -1.7804211,-0.0116914 -1.7790575,-0.0164164 -1.7790575,-0.0164164 -1.7749185,-0.0226773 -1.7691117,-0.0274302 -1.7622021,-0.0303361 -1.7547639,-0.0313805 -1.7547639,-0.0313805 -1.7468755,-0.0302657 -1.7430953,-0.0289779 -1.739577,-0.0270766 -1.7364535,-0.024605 -1.7338031,-0.0216335 -1.7317786,-0.0182045 -1.7303779,-0.0144766 -1.7303779,-0.0144766 -1.7290194,-0.0102708 -1.7285683,-0.0058688 -1.7285305,0.0029816 -1.7285305,0.1814426 -1.586788,0.1814426 -1.586788,0.1814426 -1.5761627,0.1816589 -1.5708697,0.1821616 -1.5656801,0.1832901 -1.5656801,0.1832901 -1.5587797,0.1868992 -1.555846,0.1894543 -1.553397,0.1925177 -1.5514843,0.1959341 -1.5501802,0.1995968 -1.5490533,0.2073066 -1.5490533,0.2073066 -1.5494253,0.2136965 -1.5513048,0.21981 -1.5549156,0.2250862 -1.5599345,0.2290457 -1.56581,0.2315806 -1.5720399,0.2330737 -1.5848009,0.2339095 -1.7285305,0.2339095z" transform="matrix(1,0,0,-1,6.19125,0.92075)" fill="rgb(104,104,104)" fill-rule="nonzero" shaper:cutDepth="0.0000762" stroke-linecap="round" stroke-linejoin="round" /><path d="M-1.2543893,0.3934345 L-1.2544295,0.3935268 -1.2544295,0.3935268 -1.2715299,0.3924324 -1.2884278,0.3895935 -1.3048379,0.384663 -1.3205397,0.3778058 -1.3352325,0.3689896 -1.3488173,0.3585441 -1.3612467,0.3467514 -1.372532,0.3338551 -1.372532,0.3338551 -1.3843513,0.3174603 -1.394932,0.3002408 -1.4040733,0.2822152 -1.4117677,0.2635266 -1.417967,0.2442899 -1.4225309,0.2246019 -1.4253322,0.204586 -1.426292,0.1843985 -1.426292,0.1843985 -1.4254966,0.1640056 -1.4230823,0.1437416 -1.4191913,0.1237073 -1.4136703,0.1040607 -1.4066271,0.0849064 -1.3980921,0.0663694 -1.3879729,0.0486467 -1.3763192,0.0318937 -1.3763192,0.0318937 -1.3650948,0.018502 -1.3527929,0.0060974 -1.3392711,-0.0049713 -1.3245562,-0.0143867 -1.3087923,-0.0219235 -1.2921563,-0.027252 -1.2749752,-0.0304279 -1.2575299,-0.0313805 -1.2575299,-0.0313805 -1.2430546,-0.0306613 -1.2287319,-0.0284491 -1.2147426,-0.024663 -1.2012273,-0.0194313 -1.1883697,-0.0127451 -1.176345,-0.0046537 -1.1651711,0.0045747 -1.1548132,0.0147127 -1.1548132,0.0147127 -1.1416694,0.0300887 -1.1364578,0.0387722 -1.1349509,0.0435818 -1.1343068,0.0486129 -1.1343068,0.0486129 -1.1347616,0.0537813 -1.1359623,0.0588277 -1.1381738,0.0635191 -1.1412845,0.0676693 -1.1451777,0.0710965 -1.1497427,0.0735572 -1.1547318,0.074973 -1.1598936,0.0754929 -1.1598936,0.0754929 -1.1669197,0.0748992 -1.1735329,0.0724812 -1.1790328,0.0680765 -1.1835406,0.0626533 -1.1835406,0.0626533 -1.1902809,0.054376 -1.197526,0.0465365 -1.2054719,0.0394108 -1.2140606,0.0330697 -1.223349,0.0278126 -1.2333159,0.0240062 -1.2437355,0.021678 -1.2543893,0.0210863 -1.2543893,0.0210863 -1.2648421,0.0214654 -1.2751695,0.0231267 -1.2852269,0.0259936 -1.2948199,0.0301661 -1.3038762,0.0353956 -1.3122869,0.0416179 -1.3200659,0.0486076 -1.3271778,0.0562797 -1.3271778,0.0562797 -1.337649,0.0697569 -1.3468255,0.0841474 -1.3547163,0.0992807 -1.361297,0.1150285 -1.3665384,0.1312711 -1.3705135,0.1478691 -1.3728812,0.1647712 -1.3738252,0.1818121 -1.3738252,0.1818121 -1.3730963,0.1953743 -1.3716167,0.2088729 -1.3692673,0.2222507 -1.3660493,0.2354444 -1.361896,0.2483751 -1.3567678,0.2609504 -1.350671,0.2730858 -1.34366,0.2847176 -1.335761,0.2957643 -1.3269747,0.3061214 -1.3172603,0.315608 -1.3065487,0.3239594 -1.2948607,0.3308614 -1.2823218,0.3360756 -1.2691794,0.3394905 -1.2556825,0.3409677 -1.2556825,0.3409677 -1.2460537,0.3403672 -1.2365822,0.3385226 -1.2274153,0.3355233 -1.2187462,0.3312839 -1.2106293,0.3260715 -1.2031264,0.3200024 -1.1962433,0.3132429 -1.1899142,0.305959 -1.1899142,0.305959 -1.1842615,0.2989494 -1.1779176,0.292563 -1.1742367,0.2899595 -1.1701082,0.2881155 -1.1657082,0.287247 -1.1611868,0.2870229 -1.1611868,0.2870229 -1.1559734,0.2876406 -1.1509696,0.289224 -1.1463992,0.2918048 -1.1424359,0.2952472 -1.1391947,0.2993751 -1.1368855,0.3040904 -1.1354511,0.3091375 -1.1349534,0.3143648 -1.1349534,0.3143648 -1.1357032,0.3211465 -1.1383201,0.3274528 -1.1464997,0.3383813 -1.1464997,0.3383813 -1.1570995,0.3498945 -1.1685903,0.3605116 -1.1809803,0.3700744 -1.1942986,0.3782833 -1.2084837,0.3848918 -1.22339,0.3896386 -1.2387693,0.3925298 -1.2543893,0.3934345z" transform="matrix(1,0,0,-1,6.19125,0.92075)" fill="rgb(104,104,104)" fill-rule="nonzero" shaper:cutDepth="0.0000762" stroke-linecap="round" stroke-linejoin="round" /><path d="M-0.9030588,0.3935268 L-0.9442056,0.3915234 -0.9442056,0.3915234 -0.9549255,0.390417 -0.9655444,0.3885852 -0.9759902,0.3859333 -0.9861643,0.3823824 -0.9959349,0.3778359 -1.0051725,0.3722888 -1.0138719,0.3659275 -1.0218782,0.3587158 -1.0291727,0.3507831 -1.0356113,0.3421424 -1.0411284,0.3328859 -1.045693,0.3231248 -1.0491626,0.3129219 -1.0517029,0.3024501 -1.0531689,0.2917736 -1.0538515,0.2810188 -1.0538515,0.2810188 -1.052957,0.2677908 -1.0506285,0.2547392 -1.0467361,0.2420654 -1.0414614,0.2299016 -1.0347976,0.2184397 -1.026804,0.2078641 -1.0175318,0.198387 -1.0070193,0.1903103 -1.0070193,0.1903103 -0.9958714,0.1836315 -0.9839016,0.1785485 -0.971473,0.1747462 -0.9588015,0.1718361 -0.8902032,0.1572014 -0.8902032,0.1572014 -0.8779137,0.1543903 -0.8660609,0.1501288 -0.8660609,0.1501288 -0.8580605,0.1452221 -0.8508224,0.1392478 -0.8445269,0.1322868 -0.8391954,0.1245631 -0.8349752,0.1161791 -0.8317999,0.1073471 -0.8299119,0.0981536 -0.8292048,0.0887944 -0.8292048,0.0887944 -0.8302272,0.0777284 -0.832746,0.0669057 -0.8370386,0.0566563 -0.8428079,0.0471585 -0.8500038,0.0386892 -0.8585644,0.0316094 -0.8682111,0.0260919 -0.8787157,0.0224719 -0.8787157,0.0224719 -0.8920174,0.0206984 -0.905411,0.0198855 -0.9435703,0.0199282 -0.9435703,0.0199282 -0.9566867,0.0202751 -0.9632079,0.0210339 -0.969609,0.0224719 -0.969609,0.0224719 -0.9784592,0.0261112 -0.9866164,0.0311145 -0.9938484,0.0373814 -1.0001571,0.0445776 -1.0054496,0.0525516 -1.0095064,0.0612176 -1.0121421,0.0704177 -1.0132082,0.0799267 -1.0132082,0.0799267 -1.0125616,0.0856538 -1.0125692,0.0907995 -1.0125692,0.0907995 -1.0130376,0.0958478 -1.0141777,0.1007879 -1.0162788,0.1054005 -1.019263,0.1094988 -1.0230068,0.1129158 -1.0273622,0.115508 -1.0321846,0.1170678 -1.0372247,0.1176142 -1.0372247,0.1176142 -1.0436278,0.1168067 -1.0496675,0.1145272 -1.0549187,0.1107867 -1.0590478,0.1058233 -1.0621111,0.10014 -1.0641907,0.0940282 -1.0652809,0.0876654 -1.065675,0.0812199 -1.065675,0.0812199 -1.0643301,0.0647933 -1.0628703,0.056681 -1.0607706,0.0487019 -1.05484,0.033325 -1.0468516,0.0189092 -1.0369667,0.0057207 -1.0313043,-0.0002673 -1.0252096,-0.0058274 -1.0187353,-0.0109488 -1.0118772,-0.0155154 -0.9972279,-0.0230671 -0.9972279,-0.0230671 -0.9842477,-0.0267483 -0.9710038,-0.0293371 -0.9575983,-0.0308659 -0.9441145,-0.0313805 -0.9026732,-0.0313805 -0.9026732,-0.0313805 -0.8905406,-0.0306858 -0.8784795,-0.0292183 -0.8665568,-0.0268575 -0.854914,-0.0233858 -0.8436426,-0.0188435 -0.8328417,-0.0132755 -0.8227092,-0.0065701 -0.8133523,0.0011825 -0.8048412,0.0098551 -0.7973116,0.0193916 -0.7909328,0.0297333 -0.7858093,0.0407514 -0.7818573,0.0522411 -0.7790861,0.0640735 -0.7773945,0.0761055 -0.776738,0.0882401 -0.776738,0.0882401 -0.7772453,0.0989138 -0.778528,0.1095219 -0.7806828,0.1199874 -0.7836239,0.130261 -0.7876136,0.1401724 -0.7923858,0.1497329 -0.7981095,0.1587561 -0.8045868,0.1672537 -0.8118036,0.1751343 -0.8196565,0.1823792 -0.8281751,0.188831 -0.8372222,0.1945152 -0.8467249,0.1994031 -0.8565687,0.203559 -0.8667171,0.2069043 -0.8770531,0.2096159 -0.9461204,0.2238002 -0.9461204,0.2238002 -0.9573877,0.2262187 -0.9684081,0.229568 -0.9684081,0.229568 -0.9756452,0.2334332 -0.9821792,0.2383969 -0.9879105,0.2442651 -0.9926249,0.2509824 -0.9963939,0.2582697 -0.9991531,0.2659978 -1.0008024,0.2740342 -1.0013846,0.2822196 -1.0013846,0.2822196 -1.0002599,0.2938922 -0.9989295,0.2996014 -0.9969812,0.3051463 -0.9944682,0.3104572 -0.9913837,0.3154451 -0.9877353,0.3200383 -0.9836209,0.3242332 -0.9791273,0.3280135 -0.9742731,0.3313016 -0.9636675,0.3363114 -0.9523492,0.3393545 -0.9406968,0.3406905 -0.9088051,0.3413518 -0.9056127,0.3413518 -0.9056127,0.3413518 -0.8940858,0.3406507 -0.8827881,0.3382924 -0.872053,0.3340439 -0.8670579,0.3311356 -0.8624237,0.3276834 -0.8544343,0.3193518 -0.8481285,0.3096833 -0.8436103,0.2990596 -0.8404741,0.2879466 -0.8404741,0.2879466 -0.8371703,0.2793701 -0.8347815,0.2754397 -0.8317821,0.2719521 -0.8281449,0.2691426 -0.8239879,0.2671769 -0.8194854,0.2662459 -0.8148873,0.266147 -0.8148873,0.266147 -0.8095912,0.2666579 -0.8044802,0.2681284 -0.7998044,0.2706631 -0.7958002,0.274165 -0.7926289,0.2784332 -0.790471,0.2832977 -0.7892191,0.2884658 -0.7887462,0.293766 -0.7887462,0.293766 -0.7900685,0.3054783 -0.7933403,0.3168202 -0.7978462,0.3277142 -0.8034332,0.3381042 -0.8034332,0.3381042 -0.8115136,0.3501116 -0.8210034,0.3610361 -0.8318789,0.3705849 -0.8439172,0.3786166 -0.8568914,0.3850281 -0.8705775,0.38973 -0.88478,0.392507 -0.8992221,0.3934345 -0.9030588,0.3935268z" transform="matrix(1,0,0,-1,6.19125,0.92075)" fill="rgb(104,104,104)" fill-rule="nonzero" shaper:cutDepth="0.0000762" stroke-linecap="round" stroke-linejoin="round" /><path d="M-2.0938584,-0.2415655 L-2.0938987,-0.2414732 -2.0938987,-0.2414732 -2.1109991,-0.2425676 -2.1278969,-0.2454065 -2.1443071,-0.250337 -2.1600089,-0.2571942 -2.1747017,-0.2660104 -2.1882865,-0.2764559 -2.2007159,-0.2882486 -2.2120012,-0.3011449 -2.2120012,-0.3011449 -2.2238205,-0.3175397 -2.2344012,-0.3347592 -2.2435424,-0.3527848 -2.2512369,-0.3714734 -2.2574362,-0.3907101 -2.2620001,-0.4103981 -2.2648014,-0.430414 -2.2657612,-0.4506015 -2.2657612,-0.4506015 -2.2649658,-0.4709944 -2.2625515,-0.4912584 -2.2586605,-0.5112927 -2.2531395,-0.5309393 -2.2460962,-0.5500936 -2.2375612,-0.5686306 -2.227442,-0.5863533 -2.2157884,-0.6031063 -2.2157884,-0.6031063 -2.2045639,-0.616498 -2.1922621,-0.6289026 -2.1787403,-0.6399713 -2.1640253,-0.6493867 -2.1482615,-0.6569235 -2.1316255,-0.662252 -2.1144444,-0.6654279 -2.0969991,-0.6663805 -2.0969991,-0.6663805 -2.0825238,-0.6656613 -2.0682011,-0.6634491 -2.0542117,-0.659663 -2.0406965,-0.6544313 -2.0278389,-0.6477451 -2.0158141,-0.6396537 -2.0046402,-0.6304253 -1.9942823,-0.6202873 -1.9942823,-0.6202873 -1.9811386,-0.6049113 -1.9759269,-0.5962278 -1.9744201,-0.5914182 -1.9737759,-0.5863871 -1.9737759,-0.5863871 -1.9742308,-0.5812187 -1.9754314,-0.5761723 -1.977643,-0.5714809 -1.9807536,-0.5673307 -1.9846469,-0.5639035 -1.9892119,-0.5614428 -1.994201,-0.560027 -1.9993627,-0.5595071 -1.9993627,-0.5595071 -2.0063889,-0.5601008 -2.013002,-0.5625188 -2.018502,-0.5669235 -2.0230098,-0.5723467 -2.0230098,-0.5723467 -2.0297501,-0.580624 -2.0369951,-0.5884635 -2.0449411,-0.5955892 -2.0535298,-0.6019303 -2.0628182,-0.6071874 -2.072785,-0.6109938 -2.0832046,-0.613322 -2.0938584,-0.6139137 -2.0938584,-0.6139137 -2.1043113,-0.6135346 -2.1146387,-0.6118733 -2.124696,-0.6090064 -2.1342891,-0.6048339 -2.1433453,-0.5996044 -2.1517561,-0.5933821 -2.1595351,-0.5863924 -2.1666469,-0.5787203 -2.1666469,-0.5787203 -2.1771182,-0.5652431 -2.1862947,-0.5508526 -2.1941855,-0.5357193 -2.2007662,-0.5199715 -2.2060076,-0.5037289 -2.2099827,-0.4871309 -2.2123503,-0.4702288 -2.2132944,-0.4531879 -2.2132944,-0.4531879 -2.2125654,-0.4396257 -2.2110858,-0.4261271 -2.2087365,-0.4127493 -2.2055185,-0.3995556 -2.2013652,-0.3866249 -2.196237,-0.3740496 -2.1901401,-0.3619142 -2.1831292,-0.3502824 -2.1752302,-0.3392357 -2.1664438,-0.3288786 -2.1567295,-0.319392 -2.1460178,-0.3110406 -2.1343299,-0.3041386 -2.121791,-0.2989244 -2.1086486,-0.2955095 -2.0951516,-0.2940323 -2.0951516,-0.2940323 -2.0855229,-0.2946328 -2.0760514,-0.2964774 -2.0668845,-0.2994767 -2.0582154,-0.3037161 -2.0500985,-0.3089285 -2.0425956,-0.3149976 -2.0357125,-0.3217571 -2.0293834,-0.329041 -2.0293834,-0.329041 -2.0237307,-0.3360506 -2.0173868,-0.342437 -2.0137059,-0.3450405 -2.0095774,-0.3468845 -2.0051774,-0.347753 -2.0006559,-0.3479771 -2.0006559,-0.3479771 -1.9954425,-0.3473594 -1.9904387,-0.345776 -1.9858684,-0.3431952 -1.981905,-0.3397528 -1.9786638,-0.3356249 -1.9763547,-0.3309096 -1.9749203,-0.3258625 -1.9744225,-0.3206352 -1.9744225,-0.3206352 -1.9751724,-0.3138535 -1.9777893,-0.3075472 -1.9859689,-0.2966187 -1.9859689,-0.2966187 -1.9965687,-0.2851055 -2.0080595,-0.2744884 -2.0204495,-0.2649256 -2.0337678,-0.2567167 -2.0479529,-0.2501082 -2.0628592,-0.2453614 -2.0782384,-0.2424702 -2.0938584,-0.2415655z" transform="matrix(1,0,0,-1,6.19125,0.92075)" fill="rgb(104,104,104)" fill-rule="nonzero" shaper:cutDepth="0.0000762" stroke-linecap="round" stroke-linejoin="round" /><path d="M-1.6568506,-0.2696387 L-1.6568506,-0.4070024 -1.8585891,-0.4070024 -1.8585891,-0.2710344 -1.8585891,-0.2710344 -1.8596151,-0.2603198 -1.8611135,-0.2551512 -1.8635578,-0.2503532 -1.8670451,-0.2462559 -1.8715945,-0.2433921 -1.8767716,-0.2419233 -1.8821437,-0.2415655 -1.8821437,-0.2415655 -1.8891154,-0.2425804 -1.8955584,-0.2453949 -1.8983317,-0.2476014 -1.9006323,-0.2502689 -1.903851,-0.2565296 -1.903851,-0.2565296 -1.9050776,-0.2644171 -1.9051441,-0.2724175 -1.9051442,-0.6372493 -1.9051442,-0.6372493 -1.904358,-0.6480695 -1.9029569,-0.6533179 -1.9005155,-0.6581638 -1.896869,-0.6621784 -1.8921952,-0.6649288 -1.8869245,-0.6662195 -1.8814971,-0.6663805 -1.8814971,-0.6663805 -1.8761485,-0.6662082 -1.8709769,-0.664847 -1.8664344,-0.662032 -1.8629486,-0.6579783 -1.8606717,-0.6531407 -1.8593619,-0.6479469 -1.8585891,-0.6372836 -1.8585891,-0.4535574 -1.6568506,-0.4535574 -1.6568506,-0.6346712 -1.6568506,-0.6346712 -1.6568063,-0.6428273 -1.6564828,-0.6468937 -1.6555573,-0.6508622 -1.6555573,-0.6508622 -1.6526742,-0.6574506 -1.6503789,-0.6602168 -1.6475499,-0.6624938 -1.6443805,-0.6642364 -1.6409837,-0.6653972 -1.63385,-0.6663805 -1.63385,-0.6663805 -1.6282036,-0.6660333 -1.6227132,-0.6646836 -1.6178643,-0.661785 -1.6143128,-0.6574015 -1.6121832,-0.6521595 -1.6109802,-0.6466296 -1.6102954,-0.6353438 -1.6102955,-0.2710344 -1.6102955,-0.2710344 -1.6110723,-0.2603224 -1.6124115,-0.2551168 -1.6146482,-0.2502265 -1.6181038,-0.2461232 -1.6226664,-0.2432947 -1.627835,-0.2418309 -1.6332034,-0.2415655 -1.6332034,-0.2415655 -1.6382737,-0.2420691 -1.6431718,-0.2434642 -1.6476445,-0.2459008 -1.6514396,-0.2492978 -1.6543365,-0.2534874 -1.6562129,-0.2582232 -1.6569767,-0.2632583 -1.6568505,-0.2683532 -1.6568506,-0.2696387z" transform="matrix(1,0,0,-1,6.19125,0.92075)" fill="rgb(104,104,104)" fill-rule="nonzero" shaper:cutDepth="0.0000762" stroke-linecap="round" stroke-linejoin="round" /><path d="M-1.4702178,-0.5954395 L-1.4905823,-0.6483681 -1.4905823,-0.6483681 -1.4947285,-0.6557794 -1.4974635,-0.6590429 -1.5007232,-0.6617728 -1.5043984,-0.6639173 -1.5083913,-0.6653854 -1.5125634,-0.6662156 -1.5168158,-0.6663805 -1.5168158,-0.6663805 -1.5218927,-0.6659742 -1.5268452,-0.6647962 -1.5315247,-0.6627866 -1.5357208,-0.6599026 -1.5392719,-0.6562542 -1.5420308,-0.6519753 -1.5436275,-0.6471409 -1.54425,-0.6420869 -1.54425,-0.6420869 -1.5438194,-0.6371851 -1.5424494,-0.6324513 -1.5391736,-0.6231614 -1.4024603,-0.2617024 -1.4024603,-0.2617024 -1.3985807,-0.2536698 -1.3959952,-0.2500332 -1.3928844,-0.2468309 -1.3892354,-0.244267 -1.3851532,-0.2424657 -1.3807816,-0.2415754 -1.3763192,-0.2415655 -1.3763192,-0.2415655 -1.3709203,-0.2417649 -1.365632,-0.2428803 -1.3607243,-0.2451042 -1.3566114,-0.2486143 -1.3533878,-0.2529389 -1.350674,-0.2576217 -1.3463527,-0.2675146 -1.2083884,-0.6275846 -1.2083884,-0.6275846 -1.2066553,-0.6347571 -1.205802,-0.6420869 -1.205802,-0.6420869 -1.2064413,-0.6471334 -1.2081338,-0.6519288 -1.2108864,-0.6562052 -1.2144605,-0.6598245 -1.2186681,-0.6626813 -1.2233291,-0.6647235 -1.2282561,-0.6659784 -1.2333286,-0.6663805 -1.2333286,-0.6663805 -1.2379405,-0.6662726 -1.2424585,-0.6653512 -1.2466334,-0.6633941 -1.250354,-0.6606624 -1.2535245,-0.65732 -1.2561241,-0.6535016 -1.260158,-0.6452145 -1.2786739,-0.5954395 -1.4702178,-0.5954395z M-1.4504249,-0.5429726 L-1.2997437,-0.5429726 -1.3750843,-0.3435254 -1.4504249,-0.5429726z" transform="matrix(1,0,0,-1,6.19125,0.92075)" fill="rgb(104,104,104)" fill-rule="nonzero" shaper:cutDepth="0.0000762" stroke-linecap="round" stroke-linejoin="round" /><path d="M-0.9001458,-0.2755581 L-0.900146,-0.5510732 -1.0906903,-0.2596353 -1.0906903,-0.2596353 -1.0957892,-0.2527647 -1.1018876,-0.2467778 -1.1054577,-0.2443954 -1.1093942,-0.2426803 -1.1178647,-0.2415655 -1.1178647,-0.2415655 -1.1252336,-0.2426163 -1.1319752,-0.2457461 -1.1350326,-0.2479489 -1.1376561,-0.2505718 -1.1412346,-0.2570839 -1.1412346,-0.2570839 -1.1422026,-0.2613405 -1.142485,-0.2657067 -1.1425278,-0.2744497 -1.1425279,-0.6321353 -1.1425279,-0.6321353 -1.1422894,-0.6429418 -1.1415724,-0.6483012 -1.1399414,-0.6534486 -1.1399414,-0.6534486 -1.1356471,-0.6589445 -1.1300345,-0.6630844 -1.1234935,-0.6654928 -1.1165715,-0.6663805 -1.1165715,-0.6663805 -1.1108949,-0.6658796 -1.1053979,-0.6643868 -1.1004206,-0.6616217 -1.0963533,-0.6576355 -1.0934225,-0.6527554 -1.0915703,-0.6473626 -1.090061,-0.6360828 -1.090061,-0.3561379 -0.900146,-0.6495058 -0.900146,-0.6495058 -0.8950028,-0.6561218 -0.8887075,-0.6616188 -0.8850772,-0.6637675 -0.8811887,-0.6653289 -0.8728964,-0.6663805 -0.8728964,-0.6663805 -0.8673799,-0.6659522 -0.8620491,-0.6644804 -0.8572308,-0.6617735 -0.8533882,-0.6577971 -0.850693,-0.6529714 -0.8489983,-0.6477002 -0.847679,-0.6367294 -0.8476791,-0.2731456 -0.8476791,-0.2731456 -0.8485959,-0.2613741 -0.8501701,-0.2556913 -0.8527837,-0.2503811 -0.8567936,-0.2460773 -0.8619031,-0.2431171 -0.8676396,-0.241729 -0.8735429,-0.2415655 -0.8735429,-0.2415655 -0.879803,-0.2418966 -0.8858906,-0.2433787 -0.8913294,-0.2464706 -0.8954184,-0.2512109 -0.8979619,-0.2569327 -0.8993268,-0.2630554 -0.9001458,-0.2755581z" transform="matrix(1,0,0,-1,6.19125,0.92075)" fill="rgb(104,104,104)" fill-rule="nonzero" shaper:cutDepth="0.0000762" stroke-linecap="round" stroke-linejoin="round" /><path d="M-0.3580195,-0.6139137 L-0.5101446,-0.6139137 -0.5101446,-0.6139137 -0.5026127,-0.5910353 -0.4981243,-0.5798599 -0.4930612,-0.5689252 -0.4874759,-0.5582496 -0.4813608,-0.5478724 -0.4747002,-0.5378353 -0.4675165,-0.5281638 -0.4598424,-0.5188775 -0.4517101,-0.509991 -0.4341875,-0.4934655 -0.4248415,-0.4858592 -0.4151133,-0.47876 -0.3947832,-0.4658427 -0.3947832,-0.4658427 -0.3801965,-0.4566362 -0.3732779,-0.451486 -0.3667947,-0.4457982 -0.3667947,-0.4457982 -0.3578196,-0.4370066 -0.3498941,-0.4272583 -0.343071,-0.4167095 -0.3374362,-0.4054804 -0.33306,-0.3937036 -0.3299031,-0.3815427 -0.3280478,-0.3691173 -0.3274446,-0.3565676 -0.3274446,-0.3565676 -0.3281751,-0.3449044 -0.3297173,-0.3333212 -0.332285,-0.321921 -0.3358862,-0.3108038 -0.3405959,-0.3001099 -0.3463804,-0.2899566 -0.3531587,-0.2804382 -0.3608086,-0.2716046 -0.3692595,-0.2635339 -0.378471,-0.2563442 -0.3883566,-0.2501137 -0.3988538,-0.2449806 -0.4098367,-0.2409902 -0.4211633,-0.2381176 -0.4327267,-0.2364325 -0.4443865,-0.2356538 -0.4443865,-0.2356538 -0.4559671,-0.236434 -0.4674535,-0.2381038 -0.4787049,-0.2409509 -0.4896617,-0.2447817 -0.5001237,-0.2498068 -0.5100659,-0.2557949 -0.5193381,-0.262777 -0.5279614,-0.2705456 -0.5358208,-0.2790869 -0.5428637,-0.2883122 -0.5488619,-0.2982488 -0.5538339,-0.3087366 -0.5577432,-0.3196644 -0.5605323,-0.3309323 -0.5623267,-0.3423983 -0.5630835,-0.3539812 -0.5630835,-0.3539812 -0.5627627,-0.3643916 -0.5611437,-0.3746724 -0.5611437,-0.3746724 -0.5571663,-0.3814973 -0.5544057,-0.3843195 -0.5512102,-0.386714 -0.5440902,-0.3901435 -0.5362958,-0.3914839 -0.5362958,-0.3914839 -0.5308105,-0.39091 -0.5254869,-0.3894715 -0.5206599,-0.3868094 -0.516615,-0.3830704 -0.5136461,-0.3784199 -0.5116301,-0.3732903 -0.5105469,-0.3678814 -0.5100624,-0.362387 -0.5101446,-0.3585074 -0.5101446,-0.3585074 -0.510709,-0.3539812 -0.510709,-0.3539812 -0.5102279,-0.3451242 -0.5081667,-0.3364745 -0.5050727,-0.3281587 -0.5008253,-0.3203581 -0.5008253,-0.3203581 -0.4959903,-0.3134655 -0.4903607,-0.3072079 -0.4840464,-0.3016384 -0.4770508,-0.2969567 -0.4695272,-0.2931787 -0.4615835,-0.2903935 -0.45334,-0.2886856 -0.4449407,-0.2881206 -0.4449407,-0.2881206 -0.4319967,-0.2895478 -0.425675,-0.2911254 -0.4195649,-0.2934148 -0.4137518,-0.2963645 -0.4082745,-0.2998992 -0.4031656,-0.3039482 -0.3984734,-0.3084713 -0.3942433,-0.3134292 -0.390502,-0.3187681 -0.3872823,-0.3244361 -0.3846426,-0.3303958 -0.38263,-0.3365993 -0.3812502,-0.3429666 -0.3799114,-0.355921 -0.3799114,-0.355921 -0.3804306,-0.3657562 -0.3822279,-0.3754381 -0.3855347,-0.3847125 -0.3904081,-0.3932672 -0.3967116,-0.4008303 -0.4039742,-0.407488 -0.4118356,-0.4134139 -0.4201853,-0.418641 -0.4201853,-0.418641 -0.4402331,-0.4312938 -0.4594466,-0.4451785 -0.4775718,-0.460458 -0.4943956,-0.4771588 -0.5096432,-0.4953093 -0.5233501,-0.5146504 -0.5353689,-0.5350833 -0.54581,-0.5563665 -0.54581,-0.5563665 -0.5539615,-0.57688 -0.5607683,-0.5978733 -0.5661242,-0.6192814 -0.5679871,-0.6301627 -0.5688105,-0.6411632 -0.5688105,-0.6411632 -0.5684475,-0.6477688 -0.566638,-0.6541296 -0.5650327,-0.6570302 -0.5628479,-0.6595133 -0.5572188,-0.6629727 -0.5508758,-0.6648439 -0.5443373,-0.6658866 -0.531123,-0.6663805 -0.3642968,-0.6663805 -0.3642968,-0.6663805 -0.3551749,-0.6660117 -0.3461036,-0.6651797 -0.3461036,-0.6651797 -0.338666,-0.6612868 -0.3355791,-0.6584278 -0.3329655,-0.65513 -0.3308554,-0.6514668 -0.3293555,-0.6475288 -0.3279988,-0.6392234 -0.3279988,-0.6392234 -0.3285077,-0.63367 -0.3300367,-0.6283099 -0.3328089,-0.6234769 -0.3367769,-0.6195619 -0.3416299,-0.6168352 -0.3469607,-0.6151692 -0.3524479,-0.6142186 -0.3580195,-0.6139137z" transform="matrix(1,0,0,-1,6.19125,0.92075)" fill="rgb(104,104,104)" fill-rule="nonzero" shaper:cutDepth="0.0000762" stroke-linecap="round" stroke-linejoin="round" /><path d="M0.9304865,0.3935268 L0.8893397,0.3915234 0.8893397,0.3915234 0.8786198,0.390417 0.8680009,0.3885852 0.8575551,0.3859333 0.847381,0.3823824 0.8376104,0.3778359 0.8283728,0.3722888 0.8196734,0.3659275 0.8116672,0.3587158 0.8043727,0.3507831 0.797934,0.3421424 0.7924169,0.3328859 0.7878523,0.3231248 0.7843827,0.3129219 0.7818424,0.3024501 0.7803764,0.2917736 0.7796938,0.2810188 0.7796938,0.2810188 0.7805883,0.2677908 0.7829168,0.2547392 0.7868092,0.2420654 0.7920839,0.2299016 0.7987477,0.2184397 0.8067413,0.2078641 0.8160135,0.198387 0.826526,0.1903103 0.826526,0.1903103 0.8376739,0.1836315 0.8496437,0.1785485 0.8620723,0.1747462 0.8747438,0.1718361 0.9433421,0.1572014 0.9433421,0.1572014 0.9556316,0.1543903 0.9674844,0.1501288 0.9674844,0.1501288 0.9754848,0.1452221 0.9827229,0.1392478 0.9890184,0.1322868 0.9943499,0.1245631 0.9985701,0.1161791 1.0017454,0.1073471 1.0036334,0.0981536 1.0043405,0.0887944 1.0043405,0.0887944 1.0033181,0.0777284 1.0007994,0.0669057 0.9965067,0.0566563 0.9907374,0.0471585 0.9835415,0.0386892 0.9749809,0.0316094 0.9653342,0.0260919 0.9548296,0.0224719 0.9548296,0.0224719 0.9415279,0.0206984 0.9281343,0.0198855 0.889975,0.0199282 0.889975,0.0199282 0.8768586,0.0202751 0.8703374,0.0210339 0.8639363,0.0224719 0.8639363,0.0224719 0.8550861,0.0261112 0.8469289,0.0311145 0.8396969,0.0373814 0.8333882,0.0445776 0.8280957,0.0525516 0.8240389,0.0612176 0.8214032,0.0704177 0.8203372,0.0799267 0.8203372,0.0799267 0.8209838,0.0856538 0.8209761,0.0907995 0.8209761,0.0907995 0.8205077,0.0958478 0.8193676,0.1007879 0.8172666,0.1054005 0.8142823,0.1094988 0.8105385,0.1129158 0.8061831,0.115508 0.8013607,0.1170678 0.7963207,0.1176142 0.7963207,0.1176142 0.7899175,0.1168067 0.7838778,0.1145272 0.7786266,0.1107867 0.7744975,0.1058233 0.7714342,0.10014 0.7693546,0.0940282 0.7682644,0.0876654 0.7678703,0.0812199 0.7678703,0.0812199 0.7692152,0.0647933 0.770675,0.056681 0.7727747,0.0487019 0.7787053,0.033325 0.7866937,0.0189092 0.7965786,0.0057207 0.802241,-0.0002673 0.8083357,-0.0058274 0.8148101,-0.0109488 0.8216681,-0.0155154 0.8363174,-0.0230671 0.8363174,-0.0230671 0.8492976,-0.0267483 0.8625415,-0.0293371 0.875947,-0.0308659 0.8894308,-0.0313805 0.9308722,-0.0313805 0.9308722,-0.0313805 0.9430048,-0.0306858 0.9550658,-0.0292183 0.9669885,-0.0268575 0.9786313,-0.0233858 0.9899028,-0.0188435 1.0007036,-0.0132755 1.0108361,-0.0065701 1.0201931,0.0011825 1.0287041,0.0098551 1.0362337,0.0193916 1.0426125,0.0297333 1.047736,0.0407514 1.051688,0.0522411 1.0544592,0.0640735 1.0561508,0.0761055 1.0568073,0.0882401 1.0568073,0.0882401 1.0563,0.0989138 1.0550173,0.1095219 1.0528625,0.1199874 1.0499214,0.130261 1.0459317,0.1401724 1.0411595,0.1497329 1.0354358,0.1587561 1.0289586,0.1672537 1.0217417,0.1751343 1.0138888,0.1823792 1.0053702,0.188831 0.9963231,0.1945152 0.9868204,0.1994031 0.9769766,0.203559 0.9668282,0.2069043 0.9564923,0.2096159 0.8874249,0.2238002 0.8874249,0.2238002 0.8761576,0.2262187 0.8651372,0.229568 0.8651372,0.229568 0.8579002,0.2334332 0.8513661,0.2383969 0.8456348,0.2442651 0.8409204,0.2509824 0.8371514,0.2582697 0.8343922,0.2659978 0.8327429,0.2740342 0.8321607,0.2822196 0.8321607,0.2822196 0.8332854,0.2938922 0.8346158,0.2996014 0.8365642,0.3051463 0.8390772,0.3104572 0.8421616,0.3154451 0.84581,0.3200383 0.8499244,0.3242332 0.854418,0.3280135 0.8592722,0.3313016 0.8698778,0.3363114 0.8811961,0.3393545 0.8928485,0.3406905 0.9247402,0.3413518 0.9279326,0.3413518 0.9279326,0.3413518 0.9394595,0.3406507 0.9507572,0.3382924 0.9614923,0.3340439 0.9664874,0.3311356 0.9711216,0.3276834 0.979111,0.3193518 0.9854168,0.3096833 0.989935,0.2990596 0.9930712,0.2879466 0.9930712,0.2879466 0.996375,0.2793701 0.9987638,0.2754397 1.0017632,0.2719521 1.0054004,0.2691426 1.0095574,0.2671769 1.0140599,0.2662459 1.0186581,0.266147 1.0186581,0.266147 1.0239541,0.2666579 1.0290651,0.2681284 1.0337409,0.2706631 1.0377452,0.274165 1.0409164,0.2784332 1.0430743,0.2832977 1.0443262,0.2884658 1.0447991,0.293766 1.0447991,0.293766 1.0434768,0.3054783 1.040205,0.3168202 1.0356991,0.3277142 1.0301121,0.3381042 1.0301121,0.3381042 1.0220317,0.3501116 1.0125419,0.3610361 1.0016664,0.3705849 0.9896281,0.3786166 0.9766539,0.3850281 0.9629678,0.38973 0.9487653,0.392507 0.9343232,0.3934345 0.9304865,0.3935268z" transform="matrix(1,0,0,-1,6.19125,0.92075)" fill="rgb(104,104,104)" fill-rule="nonzero" shaper:cutDepth="0.0000762" stroke-linecap="round" stroke-linejoin="round" /><path d="M1.1750424,0.0017807 L1.1750424,0.0017807 1.1742925,-0.0104227 1.1729235,-0.0163883 1.1705409,-0.0220249 1.1665812,-0.0266669 1.1612283,-0.02961 1.1552907,-0.0310706 1.1491785,-0.0313805 1.1491785,-0.0313805 1.1435154,-0.0310652 1.1379861,-0.0298119 1.1329412,-0.0272302 1.1287957,-0.0233636 1.1257643,-0.0185796 1.123924,-0.0132113 1.1225755,-0.0019632 1.1225756,0.3549157 1.1225756,0.3549157 1.1226448,0.363481 1.1237617,0.3719715 1.1266507,0.3800257 1.1289651,0.3836492 1.13196,0.386705 1.1355671,0.3890348 1.1395083,0.3907397 1.1478312,0.3927438 1.1563661,0.3934718 1.1649306,0.3935268 1.2689839,0.3934345 1.2689839,0.3934345 1.2821243,0.3931631 1.2952278,0.3921396 1.3081375,0.3896821 1.3207118,0.38586 1.3207118,0.38586 1.3293408,0.3823646 1.3376601,0.3781868 1.3456804,0.3734586 1.3532712,0.3680691 1.3604364,0.3621251 1.3670515,0.3555744 1.3731128,0.3485081 1.3786127,0.3409969 1.3834996,0.3330722 1.3878328,0.3248332 1.3914388,0.3162492 1.3944221,0.3074313 1.396676,0.2983975 1.3983316,0.2892366 1.3996891,0.2706732 1.3996891,0.2706732 1.3991945,0.2603206 1.3979395,0.2500341 1.3959505,0.2398613 1.3931122,0.2298954 1.3895738,0.2201528 1.3851276,0.2107924 1.3798734,0.2018589 1.3739632,0.1933456 1.3673862,0.185336 1.3601245,0.1779421 1.3522471,0.1712075 1.3438124,0.1651862 1.3348984,0.1598998 1.3255144,0.1555013 1.3157932,0.1519092 1.30584,0.1490204 1.30584,0.1490204 1.2959044,0.1472468 1.2858495,0.1463472 1.2656672,0.145972 1.1750424,0.145972 1.1750424,0.0017807z M1.1750424,0.3410599 L1.1750424,0.1984389 1.2709237,0.1984389 1.2709237,0.1984389 1.2856286,0.1995522 1.2928665,0.2009867 1.2999625,0.2030089 1.3068433,0.2056696 1.3134473,0.2089606 1.3196437,0.2129652 1.3253122,0.2176856 1.3305,0.2229337 1.3349755,0.2287974 1.3388165,0.2350966 1.3419123,0.241793 1.3442329,0.2487972 1.3458957,0.2559847 1.3472223,0.2706732 1.3472223,0.2706732 1.345844,0.2856564 1.3440632,0.2929698 1.3415091,0.3000506 1.3382053,0.3068136 1.3340311,0.3130761 1.3290742,0.3187423 1.3234986,0.3237962 1.3173821,0.328186 1.3108415,0.3319118 1.3039124,0.3348479 1.2967424,0.3371509 1.2894217,0.3388931 1.2819782,0.3400299 1.2669619,0.3410599 1.1750424,0.3410599z" transform="matrix(1,0,0,-1,6.19125,0.92075)" fill="rgb(104,104,104)" fill-rule="nonzero" shaper:cutDepth="0.0000762" stroke-linecap="round" stroke-linejoin="round" /><path d="M1.5872026,0.3934345 L1.5872026,0.3934345 1.6020331,0.3929421 1.6167625,0.3911545 1.6312399,0.3879039 1.6453376,0.3832752 1.6588021,0.3770423 1.6715063,0.3693769 1.6833758,0.3604739 1.6942608,0.3503895 1.6942608,0.3503895 1.7094239,0.3333334 1.7162381,0.3241792 1.7224924,0.3146204 1.7282283,0.304749 1.7333721,0.2945626 1.7378789,0.2840741 1.7417738,0.2733409 1.7450739,0.2624127 1.7477823,0.2513261 1.7516565,0.2288297 1.7537671,0.206107 1.7543944,0.1832901 1.7543944,0.1832901 1.7542072,0.1668215 1.7533839,0.1503736 1.751736,0.1339863 1.7490839,0.1177328 1.7451511,0.1017408 1.7398816,0.086139 1.7335429,0.0709383 1.7260365,0.0562797 1.7260365,0.0562797 1.7150349,0.0377032 1.7088965,0.0288189 1.7022525,0.0203086 1.6950923,0.0122258 1.6874241,0.004625 1.6792321,-0.0024089 1.6704969,-0.008755 1.6612343,-0.0143018 1.6515679,-0.0191127 1.6415403,-0.0231154 1.6312073,-0.0262467 1.6206734,-0.0286169 1.6100016,-0.030259 1.5992393,-0.0311281 1.5884447,-0.0313805 1.4983415,-0.0313805 1.4983415,-0.0313805 1.4907746,-0.0311439 1.4833008,-0.0299546 1.4762699,-0.0271684 1.4731703,-0.024971 1.470622,-0.0221762 1.4673748,-0.0153425 1.4657996,-0.0079393 1.4652992,-0.000388 1.4654573,0.0071816 1.4654574,0.3603656 1.4654574,0.3603656 1.4655569,0.3672821 1.4667121,0.3740986 1.46938,0.3804752 1.4736476,0.3859082 1.4793332,0.3898325 1.4858518,0.3921401 1.492686,0.393196 1.4995942,0.3935268 1.5872026,0.3934345z M1.5179242,0.3410599 L1.5179242,0.0210863 1.5884958,0.0210863 1.5884958,0.0210863 1.6050735,0.0217653 1.6132962,0.0228975 1.6213989,0.0246917 1.6292366,0.0274163 1.6366489,0.0311449 1.6435923,0.0356908 1.650015,0.0409461 1.650015,0.0409461 1.6588776,0.0493607 1.6669147,0.0585701 1.6742012,0.0683798 1.6805824,0.0788059 1.6862049,0.0896557 1.6909386,0.1009256 1.6949889,0.1124556 1.6981404,0.1242649 1.6981404,0.1242649 1.7007371,0.1357665 1.7017754,0.147511 1.7019276,0.1710971 1.7019276,0.1710971 1.7015261,0.216683 1.7008188,0.2280582 1.6989071,0.2392894 1.695774,0.2502486 1.6916744,0.2608819 1.6916744,0.2608819 1.6867498,0.2719012 1.681101,0.2825662 1.6746762,0.2927842 1.6674953,0.3024847 1.6595283,0.3115513 1.6507978,0.3198818 1.6412544,0.3272743 1.6308018,0.3333009 1.6308018,0.3333009 1.6209877,0.3376366 1.6105112,0.339958 1.5998164,0.3408386 1.5890858,0.3410599 1.5179242,0.3410599z" transform="matrix(1,0,0,-1,6.19125,0.92075)" fill="rgb(104,104,104)" fill-rule="nonzero" shaper:cutDepth="0.0000762" stroke-linecap="round" stroke-linejoin="round" /><path d="M0.9467009,-0.2415655 L0.9467009,-0.2415655 0.9576062,-0.2422095 0.9684482,-0.2435519 0.9791158,-0.2459002 0.9895479,-0.2491473 0.9995987,-0.2534228 1.0091786,-0.258674 1.0181683,-0.2648794 1.0264785,-0.2719696 1.0340555,-0.2798389 1.0407817,-0.288446 1.0465447,-0.2977256 1.0512729,-0.307573 1.0549405,-0.3178623 1.0575054,-0.3284814 1.0590785,-0.339291 1.0597632,-0.350194 1.0597632,-0.350194 1.0592304,-0.3629043 1.0570985,-0.3754447 1.0533978,-0.3876147 1.0480737,-0.3991664 1.0411658,-0.4098487 1.0330096,-0.4196102 1.0237278,-0.4283091 1.01367,-0.4360992 1.01367,-0.4360992 1.0237081,-0.4462135 1.0329485,-0.4570552 1.0412353,-0.4686506 1.0481495,-0.4811038 1.0535223,-0.4943011 1.0571262,-0.5080837 1.0592238,-0.5221761 1.0597632,-0.5364143 1.0597632,-0.5364143 1.0593534,-0.5465791 1.0582581,-0.5566918 1.0564546,-0.5667043 1.0538663,-0.576541 1.0506005,-0.5861762 1.0465193,-0.595493 1.041738,-0.6044726 1.0361989,-0.6130042 1.0299915,-0.6210635 1.0231702,-0.6286098 1.0157561,-0.6355747 1.0077534,-0.6418545 0.9992747,-0.6474746 0.990352,-0.6523605 0.9810811,-0.656547 0.9715488,-0.6600993 0.9715488,-0.6600993 0.9593935,-0.6634674 0.9469414,-0.6654693 0.9343516,-0.6662373 0.92174,-0.6663805 0.8037103,-0.6663805 0.8037103,-0.6663805 0.7966779,-0.6664571 0.7897023,-0.6655993 0.7830512,-0.6633246 0.7773081,-0.6592845 0.7732636,-0.6535456 0.7710043,-0.6468907 0.7702223,-0.6399056 0.7704204,-0.6328758 0.7704567,-0.2738031 0.7704567,-0.2738031 0.7705558,-0.2671087 0.7715465,-0.2604853 0.7739907,-0.2542599 0.7779413,-0.2488604 0.783399,-0.2449933 0.7896717,-0.242665 0.7962898,-0.2416529 0.8029828,-0.2414732 0.9467009,-0.2415655z M0.8234142,-0.4594692 L0.8234142,-0.6139137 0.9211141,-0.6139137 0.9211141,-0.6139137 0.9334421,-0.6136604 0.9457165,-0.6125094 0.9577276,-0.6097214 0.9690547,-0.6048613 0.9690547,-0.6048613 0.9773688,-0.5990414 0.9848134,-0.5921442 0.9913866,-0.584413 0.9968635,-0.5758684 1.0013153,-0.5667484 1.0045445,-0.5571271 1.0065742,-0.5471841 1.0072964,-0.5370609 1.0072964,-0.5370609 1.0063211,-0.5251355 1.0035068,-0.5135087 0.9991012,-0.502384 0.9929794,-0.4921059 0.9855441,-0.4827301 0.9766869,-0.4746902 0.9666404,-0.4681933 0.9556609,-0.4634411 0.9556609,-0.4634411 0.9486924,-0.461206 0.9414754,-0.4599917 0.9268479,-0.4594692 0.8234142,-0.4594692z M0.8278835,-0.2939401 L0.8278835,-0.4070023 0.9421747,-0.4070023 0.9421747,-0.4070023 0.9588644,-0.4062744 0.9670515,-0.4046161 0.9747817,-0.40146 0.9747817,-0.40146 0.9817357,-0.3974972 0.988143,-0.3927016 0.9937676,-0.387008 0.9984879,-0.3805446 1.0022936,-0.3735039 1.005101,-0.366009 1.0067604,-0.3581799 1.0072964,-0.350194 1.0072964,-0.350194 1.0064323,-0.3407845 1.0041565,-0.3316153 1.0002691,-0.3230041 0.9949833,-0.3151728 0.9884554,-0.3083423 0.9808989,-0.3026713 0.9723813,-0.2985833 0.9633277,-0.2958798 0.9633277,-0.2958798 0.9578252,-0.2946026 0.9521952,-0.2941104 0.9408944,-0.2939401 0.8278835,-0.2939401z" transform="matrix(1,0,0,-1,6.19125,0.92075)" fill="rgb(104,104,104)" fill-rule="nonzero" shaper:cutDepth="0.0000762" stroke-linecap="round" stroke-linejoin="round" /><path d="M1.3951629,-0.618717 L1.3951629,-0.618717 1.397657,-0.6218576 1.397657,-0.6218576 1.400482,-0.6256293 1.4027637,-0.6297508 1.4041397,-0.6342573 1.4045848,-0.6389463 1.4045848,-0.6389463 1.4040621,-0.6440503 1.4024962,-0.6489339 1.3999653,-0.6533948 1.3965488,-0.6572214 1.3924422,-0.6602946 1.3877981,-0.6624724 1.3828121,-0.663677 1.3777048,-0.6641636 1.3777048,-0.6641636 1.3702653,-0.6635207 1.3667016,-0.6623502 1.3634787,-0.6604622 1.3579515,-0.6554474 1.353301,-0.6496065 1.234527,-0.489028 1.1779983,-0.489028 1.1779983,-0.6319261 1.1779983,-0.6319261 1.177145,-0.6443031 1.1756912,-0.6503307 1.1732103,-0.6560246 1.1694257,-0.6609257 1.1642979,-0.6644079 1.1583319,-0.6660901 1.1521344,-0.6663805 1.1521344,-0.6663805 1.1434843,-0.6651422 1.1393693,-0.6636362 1.1355862,-0.6614341 1.1322031,-0.658649 1.1294614,-0.6552371 1.1273982,-0.6513733 1.1261781,-0.6471673 1.1261781,-0.6471673 1.1255456,-0.6382892 1.1255314,-0.6293772 1.1255315,-0.2783292 1.1255315,-0.2783292 1.1255502,-0.2704949 1.1266958,-0.2627476 1.1295897,-0.2554735 1.1317912,-0.2522239 1.1344858,-0.2493726 1.1410578,-0.2451249 1.1485014,-0.2426821 1.1562595,-0.2416206 1.1640935,-0.2414732 1.2722169,-0.2415655 1.2722169,-0.2415655 1.2847269,-0.2421733 1.2971634,-0.2436279 1.3094723,-0.2459543 1.3215105,-0.2493972 1.333163,-0.2539892 1.3443116,-0.2596923 1.354801,-0.2665339 1.3644902,-0.2744666 1.3733326,-0.2833354 1.3811576,-0.2931117 1.3878099,-0.3037214 1.3931547,-0.3150463 1.3972962,-0.3268642 1.4001841,-0.3390506 1.4018969,-0.3514557 1.402645,-0.3639573 1.402645,-0.3639573 1.402155,-0.3749139 1.4009207,-0.3858111 1.3987663,-0.3965649 1.3957235,-0.4071013 1.3918202,-0.4173501 1.3869657,-0.4271843 1.3811115,-0.4364575 1.3744912,-0.4452009 1.3671271,-0.4533276 1.3589824,-0.4606717 1.350176,-0.4672079 1.3408196,-0.4729285 1.3309612,-0.4777334 1.320728,-0.4816791 1.3102138,-0.4847966 1.2995026,-0.4871542 1.3951629,-0.618717z M1.1779983,-0.2939401 L1.1779983,-0.4365611 1.2696305,-0.4365611 1.2696305,-0.4365611 1.280136,-0.4364545 1.2906092,-0.4356305 1.3008919,-0.4334764 1.3105509,-0.4293561 1.3105509,-0.4293561 1.3191759,-0.424315 1.3269497,-0.4180414 1.3338501,-0.4108188 1.3396273,-0.4026684 1.3442036,-0.3937886 1.347513,-0.3843626 1.3494868,-0.3745706 1.3501782,-0.3646039 1.3501782,-0.3646039 1.3493805,-0.3545005 1.347199,-0.3446046 1.3436503,-0.335112 1.338805,-0.3262111 1.3327431,-0.3180895 1.3255908,-0.3109103 1.3175069,-0.3047992 1.3086111,-0.2999441 1.3086111,-0.2999441 1.3004004,-0.2967258 1.2917755,-0.2948834 1.2741621,-0.2939401 1.1779983,-0.2939401z" transform="matrix(1,0,0,-1,6.19125,0.92075)" fill="rgb(104,104,104)" fill-rule="nonzero" shaper:cutDepth="0.0000762" stroke-linecap="round" stroke-linejoin="round" /><path d="M1.6633164,-0.2520958 L1.5208801,-0.3960256 1.5208801,-0.273789 1.5208801,-0.273789 1.5206655,-0.2677968 1.5198025,-0.2618721 1.5181412,-0.2561086 1.5154171,-0.2507744 1.5113235,-0.2464109 1.5061582,-0.2433807 1.5003523,-0.2419079 1.4943696,-0.2415655 1.4943696,-0.2415655 1.4874996,-0.2422741 1.4809605,-0.2444742 1.4753462,-0.248489 1.4709997,-0.2538509 1.4709997,-0.2538509 1.4692585,-0.2592848 1.4685993,-0.2649616 1.4684133,-0.2763894 1.4684132,-0.6366388 1.4684132,-0.6366388 1.46978,-0.6479194 1.4716211,-0.6533069 1.4746111,-0.6581396 1.4787571,-0.6620313 1.4838156,-0.6646269 1.48934,-0.6659788 1.4950162,-0.6663805 1.4950162,-0.6663805 1.5005651,-0.6660634 1.5059442,-0.6646841 1.5108924,-0.6621649 1.5149134,-0.6583369 1.5177544,-0.6535656 1.5195351,-0.6483009 1.5208801,-0.6372836 1.5208801,-0.4725844 1.5770663,-0.4153261 1.6945465,-0.6469324 1.6945465,-0.6469324 1.6994109,-0.6544209 1.7054255,-0.6610008 1.7091098,-0.6635351 1.7132393,-0.6652169 1.7176025,-0.666181 1.7220645,-0.6663805 1.7220645,-0.6663805 1.7269796,-0.6660003 1.7317668,-0.6648467 1.736312,-0.662935 1.7404156,-0.6602132 1.7439539,-0.6567785 1.7465903,-0.6526215 1.7482978,-0.6479992 1.7488521,-0.643103 1.7488521,-0.643103 1.7485812,-0.6380131 1.7473716,-0.6330544 1.7431251,-0.6237974 1.6160136,-0.3754384 1.6996544,-0.2911595 1.7022083,-0.288586 1.7022083,-0.288586 1.7067309,-0.2847952 1.7067309,-0.2847952 1.7099115,-0.2810849 1.7124481,-0.2769149 1.7140571,-0.2722988 1.7143977,-0.2674294 1.7143977,-0.2674294 1.7138314,-0.2623307 1.712468,-0.2573877 1.7101189,-0.2528276 1.7068013,-0.2489179 1.7027662,-0.2457519 1.6982078,-0.2434029 1.6932753,-0.2420013 1.6881643,-0.2415655 1.6881643,-0.2415655 1.6812553,-0.2420556 1.6746749,-0.2441988 1.6687742,-0.2478287 1.6633164,-0.2520958z" transform="matrix(1,0,0,-1,6.19125,0.92075)" fill="rgb(104,104,104)" fill-rule="nonzero" shaper:cutDepth="0.0000762" stroke-linecap="round" stroke-linejoin="round" /><path d="M2.9972261,0.0151746 L2.7839411,0.0151746 2.7839411,0.3649952 2.7839411,0.3649952 2.7828753,0.3753823 2.7813897,0.3803907 2.7789758,0.3850256 2.7754581,0.388879 2.7709866,0.3915729 2.7659624,0.392997 2.7607559,0.3934345 2.7607559,0.3934345 2.7555698,0.3929861 2.7505964,0.3914606 2.746202,0.3886687 2.7426461,0.3848853 2.7402422,0.3802637 2.7386652,0.3753014 2.737386,0.3649842 2.7373859,0.0000614 2.7373859,0.0000614 2.737318,-0.006195 2.7381523,-0.0123885 2.7401752,-0.0183078 2.743648,-0.0235003 2.7485244,-0.0274031 2.7542905,-0.0298255 2.7604205,-0.0310452 2.7666677,-0.0313805 2.9927239,-0.0313805 2.9927239,-0.0313805 3.0020743,-0.031384 3.0067473,-0.031275 3.0112665,-0.0301797 3.0112665,-0.0301797 3.0178669,-0.0268299 3.0207337,-0.0244956 3.0231784,-0.021687 3.0251419,-0.0185254 3.0265394,-0.0151039 3.0278933,-0.0078259 3.0278933,-0.0078259 3.0266187,-0.0007727 3.0233733,0.0056156 3.0210648,0.0084026 3.018346,0.0107292 3.0119131,0.0138814 3.0119131,0.0138814 3.0046324,0.015109 2.9972261,0.0151746z" transform="matrix(1,0,0,-1,6.19125,0.92075)" fill="rgb(104,104,104)" fill-rule="nonzero" shaper:cutDepth="0.0000762" stroke-linecap="round" stroke-linejoin="round" /><path d="M3.1664006,0.0395605 L3.146036,-0.0133681 3.146036,-0.0133681 3.1418899,-0.0207794 3.1391548,-0.0240429 3.1358952,-0.0267728 3.13222,-0.0289173 3.128227,-0.0303854 3.124055,-0.0312156 3.1198026,-0.0313805 3.1198026,-0.0313805 3.1147257,-0.0309742 3.1097732,-0.0297962 3.1050937,-0.0277866 3.1008976,-0.0249026 3.0973465,-0.0212542 3.0945876,-0.0169753 3.0929909,-0.0121409 3.0923684,-0.0070869 3.0923684,-0.0070869 3.092799,-0.0021851 3.094169,0.0025487 3.0974448,0.0118386 3.2341581,0.3732976 3.2341581,0.3732976 3.2380377,0.3813302 3.2406232,0.3849668 3.243734,0.3881691 3.247383,0.390733 3.2514652,0.3925343 3.2558368,0.3934246 3.2602992,0.3934345 3.2602992,0.3934345 3.2656981,0.3932351 3.2709863,0.3921197 3.2758941,0.3898958 3.280007,0.3863857 3.2832306,0.3820611 3.2859443,0.3773783 3.2902657,0.3674854 3.42823,0.0074154 3.42823,0.0074154 3.4299631,0.0002429 3.4308164,-0.0070869 3.4308164,-0.0070869 3.4301771,-0.0121334 3.4284846,-0.0169288 3.425732,-0.0212052 3.4221578,-0.0248245 3.4179503,-0.0276813 3.4132893,-0.0297235 3.4083622,-0.0309784 3.4032897,-0.0313805 3.4032897,-0.0313805 3.3986779,-0.0312726 3.3941599,-0.0303512 3.389985,-0.0283941 3.3862644,-0.0256624 3.3830939,-0.02232 3.3804943,-0.0185016 3.3764604,-0.0102145 3.3579445,0.0395605 3.1664006,0.0395605z M3.1861935,0.0920274 L3.3368747,0.0920274 3.2615341,0.2914746 3.1861935,0.0920274z" transform="matrix(1,0,0,-1,6.19125,0.92075)" fill="rgb(104,104,104)" fill-rule="nonzero" shaper:cutDepth="0.0000762" stroke-linecap="round" stroke-linejoin="round" /><path d="M3.5465574,0.1258352 L3.5465574,0.361871 3.5465574,0.361871 3.5456135,0.3735992 3.5440172,0.3792594 3.5413787,0.3845276 3.537407,0.3888554 3.5322739,0.3917228 3.5265751,0.3931856 3.5206935,0.3934345 3.5206935,0.3934345 3.5149557,0.3930245 3.5093761,0.3916377 3.504285,0.3889739 3.5001831,0.384944 3.4972373,0.3800126 3.4954319,0.3745474 3.4940906,0.3631367 3.4940905,0.1246077 3.4940905,0.1246077 3.494379,0.1087161 3.4955502,0.0928682 3.4985386,0.077255 3.5036048,0.0621915 3.5036048,0.0621915 3.507973,0.0520122 3.5130554,0.0421711 3.5188226,0.0327136 3.5252982,0.0237279 3.5324049,0.0152314 3.5402088,0.0073713 3.5486213,0.0001659 3.55757,-0.0063617 3.5669707,-0.0122196 3.5768096,-0.0173073 3.587014,-0.0216153 3.5975109,-0.0251503 3.6082498,-0.0278657 3.6191494,-0.0298365 3.6301693,-0.0309554 3.6412379,-0.0313805 3.6412379,-0.0313805 3.6561064,-0.030558 3.6708575,-0.0285293 3.6853562,-0.0251363 3.699477,-0.0204097 3.7129619,-0.0140974 3.7257116,-0.0064063 3.7375463,0.0026292 3.7483018,0.0129268 3.7579533,0.0242654 3.7663552,0.0365579 3.7733569,0.0496994 3.7790055,0.0634768 3.783334,0.0777238 3.786369,0.0923031 3.7881617,0.1070845 3.7889394,0.1219556 3.7889393,0.358656 3.7889393,0.358656 3.7882641,0.3712027 3.7869486,0.3773438 3.7846014,0.383184 3.7828939,0.3858202 3.780714,0.3880843 3.7754156,0.3914621 3.7693493,0.3930782 3.7630754,0.3934345 3.7630754,0.3934345 3.7567614,0.3930735 3.7506707,0.3913832 3.7453118,0.3880415 3.7412792,0.3831843 3.7387572,0.3773869 3.7373296,0.3712212 3.7364726,0.3586106 3.7364724,0.1278226 3.7364724,0.1278226 3.7357111,0.1036484 3.7338584,0.0916967 3.7300989,0.0802039 3.7300989,0.0802039 3.7239852,0.0673862 3.7160204,0.0556321 3.7063677,0.0452187 3.6950956,0.0365823 3.6826619,0.0297274 3.6693128,0.0248803 3.6554105,0.0220018 3.6412379,0.0210863 3.6412379,0.0210863 3.6285948,0.0218443 3.6161365,0.0241183 3.6041282,0.0281429 3.5927715,0.0337475 3.5823027,0.0408745 3.5729814,0.0494477 3.5649346,0.0592265 3.5581962,0.0699507 3.5581962,0.0699507 3.5517844,0.0829322 3.5495729,0.0898367 3.54814,0.0969395 3.5467934,0.1113543 3.5465574,0.1258352z" transform="matrix(1,0,0,-1,6.19125,0.92075)" fill="rgb(104,104,104)" fill-rule="nonzero" shaper:cutDepth="0.0000762" stroke-linecap="round" stroke-linejoin="round" /><path d="M4.0970896,0.3594419 L4.0970894,0.0839268 3.9065451,0.3753647 3.9065451,0.3753647 3.9014462,0.3822353 3.8953479,0.3882222 3.8917777,0.3906046 3.8878412,0.3923197 3.8793707,0.3934345 3.8793707,0.3934345 3.8720018,0.3923837 3.8652602,0.3892539 3.8622028,0.3870511 3.8595793,0.3844282 3.8560008,0.3779161 3.8560008,0.3779161 3.8550328,0.3736595 3.8547504,0.3692933 3.8547076,0.3605503 3.8547076,0.0028647 3.8547076,0.0028647 3.854946,-0.0079418 3.855663,-0.0133012 3.857294,-0.0184486 3.857294,-0.0184486 3.8615883,-0.0239445 3.867201,-0.0280844 3.8737419,-0.0304928 3.8806639,-0.0313805 3.8806639,-0.0313805 3.8863405,-0.0308796 3.8918375,-0.0293868 3.8968148,-0.0266217 3.9008821,-0.0226355 3.9038129,-0.0177554 3.9056651,-0.0123626 3.9071745,-0.0010828 3.9071745,0.2788621 4.0970894,-0.0145058 4.0970894,-0.0145058 4.1022326,-0.0211218 4.1085279,-0.0266188 4.1121582,-0.0287675 4.1160467,-0.0303289 4.1243391,-0.0313805 4.1243391,-0.0313805 4.1298555,-0.0309522 4.1351863,-0.0294804 4.1400046,-0.0267735 4.1438473,-0.0227971 4.1465425,-0.0179714 4.1482371,-0.0127002 4.1495564,-0.0017294 4.1495563,0.3618544 4.1495563,0.3618544 4.1486395,0.3736259 4.1470653,0.3793087 4.1444518,0.3846189 4.1404419,0.3889227 4.1353324,0.3918829 4.1295958,0.393271 4.1236925,0.3934345 4.1236925,0.3934345 4.1174324,0.3931034 4.1113448,0.3916213 4.105906,0.3885294 4.101817,0.3837891 4.0992735,0.3780673 4.0979086,0.3719446 4.0970896,0.3594419z" transform="matrix(1,0,0,-1,6.19125,0.92075)" fill="rgb(104,104,104)" fill-rule="nonzero" shaper:cutDepth="0.0000762" stroke-linecap="round" stroke-linejoin="round" /><path d="M4.3872274,0.3934345 L4.3871872,0.3935268 4.3871872,0.3935268 4.3700868,0.3924324 4.3531889,0.3895935 4.3367788,0.384663 4.321077,0.3778058 4.3063842,0.3689896 4.2927994,0.3585441 4.28037,0.3467514 4.2690847,0.3338551 4.2690847,0.3338551 4.2572654,0.3174603 4.2466847,0.3002408 4.2375434,0.2822152 4.229849,0.2635266 4.2236497,0.2442899 4.2190858,0.2246019 4.2162845,0.204586 4.2153247,0.1843985 4.2153247,0.1843985 4.2161201,0.1640056 4.2185344,0.1437416 4.2224254,0.1237073 4.2279464,0.1040607 4.2349896,0.0849064 4.2435246,0.0663694 4.2536438,0.0486467 4.2652975,0.0318937 4.2652975,0.0318937 4.2765219,0.018502 4.2888238,0.0060974 4.3023456,-0.0049713 4.3170605,-0.0143867 4.3328244,-0.0219235 4.3494604,-0.027252 4.3666415,-0.0304279 4.3840868,-0.0313805 4.3840868,-0.0313805 4.3985621,-0.0306613 4.4128848,-0.0284491 4.4268741,-0.024663 4.4403894,-0.0194313 4.453247,-0.0127451 4.4652717,-0.0046537 4.4764456,0.0045747 4.4868035,0.0147127 4.4868035,0.0147127 4.4999473,0.0300887 4.5051589,0.0387722 4.5066658,0.0435818 4.5073099,0.0486129 4.5073099,0.0486129 4.5068551,0.0537813 4.5056544,0.0588277 4.5034429,0.0635191 4.5003322,0.0676693 4.496439,0.0710965 4.491874,0.0735572 4.4868849,0.074973 4.4817231,0.0754929 4.4817231,0.0754929 4.474697,0.0748992 4.4680838,0.0724812 4.4625839,0.0680765 4.4580761,0.0626533 4.4580761,0.0626533 4.4513358,0.054376 4.4440907,0.0465365 4.4361448,0.0394108 4.4275561,0.0330697 4.4182677,0.0278126 4.4083008,0.0240062 4.3978812,0.021678 4.3872274,0.0210863 4.3872274,0.0210863 4.3767746,0.0214654 4.3664472,0.0231267 4.3563898,0.0259936 4.3467968,0.0301661 4.3377405,0.0353956 4.3293298,0.0416179 4.3215508,0.0486076 4.3144389,0.0562797 4.3144389,0.0562797 4.3039677,0.0697569 4.2947912,0.0841474 4.2869004,0.0992807 4.2803197,0.1150285 4.2750783,0.1312711 4.2711032,0.1478691 4.2687355,0.1647712 4.2677915,0.1818121 4.2677915,0.1818121 4.2685204,0.1953743 4.27,0.2088729 4.2723494,0.2222507 4.2755673,0.2354444 4.2797207,0.2483751 4.2848489,0.2609504 4.2909457,0.2730858 4.2979567,0.2847176 4.3058557,0.2957643 4.314642,0.3061214 4.3243564,0.315608 4.335068,0.3239594 4.346756,0.3308614 4.3592949,0.3360756 4.3724373,0.3394905 4.3859342,0.3409677 4.3859342,0.3409677 4.395563,0.3403672 4.4050345,0.3385226 4.4142014,0.3355233 4.4228705,0.3312839 4.4309874,0.3260715 4.4384903,0.3200024 4.4453734,0.3132429 4.4517025,0.305959 4.4517025,0.305959 4.4573552,0.2989494 4.4636991,0.292563 4.46738,0.2899595 4.4715085,0.2881155 4.4759085,0.287247 4.4804299,0.2870229 4.4804299,0.2870229 4.4856433,0.2876406 4.4906471,0.289224 4.4952175,0.2918048 4.4991808,0.2952472 4.502422,0.2993751 4.5047312,0.3040904 4.5061656,0.3091375 4.5066633,0.3143648 4.5066633,0.3143648 4.5059135,0.3211465 4.5032966,0.3274528 4.495117,0.3383813 4.495117,0.3383813 4.4845172,0.3498945 4.4730264,0.3605116 4.4606364,0.3700744 4.4473181,0.3782833 4.433133,0.3848918 4.4182267,0.3896386 4.4028474,0.3925298 4.3872274,0.3934345z" transform="matrix(1,0,0,-1,6.19125,0.92075)" fill="rgb(104,104,104)" fill-rule="nonzero" shaper:cutDepth="0.0000762" stroke-linecap="round" stroke-linejoin="round" /><path d="M4.8242352,0.3653613 L4.8242352,0.2279976 4.6224968,0.2279976 4.6224968,0.3639656 4.6224968,0.3639656 4.6214708,0.3746802 4.6199724,0.3798488 4.617528,0.3846468 4.6140408,0.3887441 4.6094913,0.3916079 4.6043143,0.3930767 4.5989421,0.3934345 4.5989421,0.3934345 4.5919704,0.3924196 4.5855275,0.3896051 4.5827542,0.3873986 4.5804535,0.3847311 4.5772349,0.3784704 4.5772349,0.3784704 4.5760082,0.3705829 4.5759417,0.3625825 4.5759416,-0.0022493 4.5759416,-0.0022493 4.5767278,-0.0130695 4.578129,-0.0183179 4.5805704,-0.0231638 4.5842169,-0.0271784 4.5888907,-0.0299288 4.5941614,-0.0312195 4.5995887,-0.0313805 4.5995887,-0.0313805 4.6049374,-0.0312082 4.610109,-0.029847 4.6146514,-0.027032 4.6181373,-0.0229783 4.6204141,-0.0181407 4.621724,-0.0129469 4.6224968,-0.0022836 4.6224968,0.1814426 4.8242352,0.1814426 4.8242352,0.0003288 4.8242352,0.0003288 4.8242796,-0.0078273 4.8246031,-0.0118937 4.8255286,-0.0158622 4.8255286,-0.0158622 4.8284117,-0.0224506 4.830707,-0.0252168 4.833536,-0.0274938 4.8367054,-0.0292364 4.8401021,-0.0303972 4.8472358,-0.0313805 4.8472358,-0.0313805 4.8528822,-0.0310333 4.8583726,-0.0296836 4.8632216,-0.026785 4.8667731,-0.0224015 4.8689026,-0.0171595 4.8701057,-0.0116296 4.8707905,-0.0003438 4.8707904,0.3639656 4.8707904,0.3639656 4.8700135,0.3746776 4.8686744,0.3798832 4.8664377,0.3847735 4.8629821,0.3888768 4.8584195,0.3917053 4.8532508,0.3931691 4.8478824,0.3934345 4.8478824,0.3934345 4.8428121,0.3929309 4.8379141,0.3915358 4.8334414,0.3890992 4.8296463,0.3857022 4.8267494,0.3815126 4.824873,0.3767768 4.8241091,0.3717417 4.8242354,0.3666468 4.8242352,0.3653613z" transform="matrix(1,0,0,-1,6.19125,0.92075)" fill="rgb(104,104,104)" fill-rule="nonzero" shaper:cutDepth="0.0000762" stroke-linecap="round" stroke-linejoin="round" /><path d="M3.460098,-0.2415655 L3.460098,-0.2415655 3.4710033,-0.2422095 3.4818453,-0.2435519 3.4925129,-0.2459002 3.502945,-0.2491473 3.5129958,-0.2534228 3.5225757,-0.258674 3.5315654,-0.2648794 3.5398756,-0.2719696 3.5474526,-0.2798389 3.5541788,-0.288446 3.5599418,-0.2977256 3.56467,-0.307573 3.5683376,-0.3178623 3.5709025,-0.3284814 3.5724756,-0.339291 3.5731603,-0.350194 3.5731603,-0.350194 3.5726275,-0.3629043 3.5704956,-0.3754447 3.566795,-0.3876147 3.5614708,-0.3991664 3.5545629,-0.4098487 3.5464067,-0.4196102 3.5371249,-0.4283091 3.5270671,-0.4360992 3.5270671,-0.4360992 3.5371052,-0.4462135 3.5463456,-0.4570552 3.5546324,-0.4686506 3.5615466,-0.4811038 3.5669194,-0.4943011 3.5705233,-0.5080837 3.5726209,-0.5221761 3.5731603,-0.5364143 3.5731603,-0.5364143 3.5727505,-0.5465791 3.5716552,-0.5566918 3.5698517,-0.5667043 3.5672634,-0.576541 3.5639976,-0.5861762 3.5599164,-0.595493 3.5551351,-0.6044726 3.549596,-0.6130042 3.5433886,-0.6210635 3.5365673,-0.6286098 3.5291532,-0.6355747 3.5211505,-0.6418545 3.5126718,-0.6474746 3.5037491,-0.6523605 3.4944782,-0.656547 3.4849459,-0.6600993 3.4849459,-0.6600993 3.4727906,-0.6634674 3.4603385,-0.6654693 3.4477487,-0.6662373 3.4351371,-0.6663805 3.3171074,-0.6663805 3.3171074,-0.6663805 3.310075,-0.6664571 3.3030994,-0.6655993 3.2964483,-0.6633246 3.2907052,-0.6592845 3.2866607,-0.6535456 3.2844014,-0.6468907 3.2836194,-0.6399056 3.2838175,-0.6328758 3.2838538,-0.2738031 3.2838538,-0.2738031 3.2839529,-0.2671087 3.2849436,-0.2604853 3.2873878,-0.2542599 3.2913384,-0.2488604 3.2967961,-0.2449933 3.3030688,-0.242665 3.3096869,-0.2416529 3.3163799,-0.2414732 3.460098,-0.2415655z M3.3368113,-0.4594692 L3.3368113,-0.6139137 3.4345112,-0.6139137 3.4345112,-0.6139137 3.4468392,-0.6136604 3.4591136,-0.6125094 3.4711247,-0.6097214 3.4824518,-0.6048613 3.4824518,-0.6048613 3.4907659,-0.5990414 3.4982105,-0.5921442 3.5047837,-0.584413 3.5102606,-0.5758684 3.5147124,-0.5667484 3.5179416,-0.5571271 3.5199713,-0.5471841 3.5206935,-0.5370609 3.5206935,-0.5370609 3.5197182,-0.5251355 3.5169039,-0.5135087 3.5124983,-0.502384 3.5063765,-0.4921059 3.4989412,-0.4827301 3.490084,-0.4746902 3.4800375,-0.4681933 3.469058,-0.4634411 3.469058,-0.4634411 3.4620895,-0.461206 3.4548725,-0.4599917 3.440245,-0.4594692 3.3368113,-0.4594692z M3.3412806,-0.2939401 L3.3412806,-0.4070023 3.4555718,-0.4070023 3.4555718,-0.4070023 3.4722615,-0.4062744 3.4804486,-0.4046161 3.4881789,-0.40146 3.4881789,-0.40146 3.4951328,-0.3974972 3.5015401,-0.3927016 3.5071647,-0.387008 3.511885,-0.3805446 3.5156907,-0.3735039 3.5184981,-0.366009 3.5201575,-0.3581799 3.5206935,-0.350194 3.5206935,-0.350194 3.5198294,-0.3407845 3.5175536,-0.3316153 3.5136662,-0.3230041 3.5083804,-0.3151728 3.5018525,-0.3083423 3.494296,-0.3026713 3.4857784,-0.2985833 3.4767248,-0.2958798 3.4767248,-0.2958798 3.4712223,-0.2946026 3.4655923,-0.2941104 3.4542915,-0.2939401 3.3412806,-0.2939401z" transform="matrix(1,0,0,-1,6.19125,0.92075)" fill="rgb(104,104,104)" fill-rule="nonzero" shaper:cutDepth="0.0000762" stroke-linecap="round" stroke-linejoin="round" /><path d="M3.713238,-0.5954395 L3.6928734,-0.6483681 3.6928734,-0.6483681 3.6887272,-0.6557794 3.6859922,-0.6590429 3.6827325,-0.6617728 3.6790573,-0.6639173 3.6750644,-0.6653854 3.6708923,-0.6662156 3.6666399,-0.6663805 3.6666399,-0.6663805 3.661563,-0.6659742 3.6566106,-0.6647962 3.651931,-0.6627866 3.6477349,-0.6599026 3.6441838,-0.6562542 3.6414249,-0.6519753 3.6398282,-0.6471409 3.6392057,-0.6420869 3.6392057,-0.6420869 3.6396363,-0.6371851 3.6410063,-0.6324513 3.6442822,-0.6231614 3.7809955,-0.2617024 3.7809955,-0.2617024 3.784875,-0.2536698 3.7874605,-0.2500332 3.7905713,-0.2468309 3.7942203,-0.244267 3.7983025,-0.2424657 3.8026741,-0.2415754 3.8071365,-0.2415655 3.8071365,-0.2415655 3.8125354,-0.2417649 3.8178237,-0.2428803 3.8227314,-0.2451042 3.8268444,-0.2486143 3.8300679,-0.2529389 3.8327817,-0.2576217 3.837103,-0.2675146 3.9750673,-0.6275846 3.9750673,-0.6275846 3.9768004,-0.6347571 3.9776537,-0.6420869 3.9776537,-0.6420869 3.9770144,-0.6471334 3.9753219,-0.6519288 3.9725693,-0.6562052 3.9689952,-0.6598245 3.9647876,-0.6626813 3.9601266,-0.6647235 3.9551996,-0.6659784 3.9501271,-0.6663805 3.9501271,-0.6663805 3.9455152,-0.6662726 3.9409972,-0.6653512 3.9368223,-0.6633941 3.9331017,-0.6606624 3.9299312,-0.65732 3.9273316,-0.6535016 3.9232977,-0.6452145 3.9047818,-0.5954395 3.713238,-0.5954395z M3.7330308,-0.5429726 L3.883712,-0.5429726 3.8083714,-0.3435254 3.7330308,-0.5429726z" transform="matrix(1,0,0,-1,6.19125,0.92075)" fill="rgb(104,104,104)" fill-rule="nonzero" shaper:cutDepth="0.0000762" stroke-linecap="round" stroke-linejoin="round" /><path d="M4.3105594,-0.618717 L4.3105594,-0.618717 4.3130534,-0.6218576 4.3130534,-0.6218576 4.3158784,-0.6256293 4.3181601,-0.6297508 4.3195361,-0.6342573 4.3199812,-0.6389463 4.3199812,-0.6389463 4.3194585,-0.6440503 4.3178927,-0.6489339 4.3153617,-0.6533948 4.3119452,-0.6572214 4.3078387,-0.6602946 4.3031945,-0.6624724 4.2982085,-0.663677 4.2931012,-0.6641636 4.2931012,-0.6641636 4.2856617,-0.6635207 4.282098,-0.6623502 4.2788751,-0.6604622 4.273348,-0.6554474 4.2686974,-0.6496065 4.1499235,-0.489028 4.0933947,-0.489028 4.0933947,-0.6319261 4.0933947,-0.6319261 4.0925414,-0.6443031 4.0910876,-0.6503307 4.0886068,-0.6560246 4.0848221,-0.6609257 4.0796943,-0.6644079 4.0737283,-0.6660901 4.0675308,-0.6663805 4.0675308,-0.6663805 4.0588807,-0.6651422 4.0547658,-0.6636362 4.0509826,-0.6614341 4.0475995,-0.658649 4.0448578,-0.6552371 4.0427947,-0.6513733 4.0415745,-0.6471673 4.0415745,-0.6471673 4.040942,-0.6382892 4.0409278,-0.6293772 4.0409279,-0.2783292 4.0409279,-0.2783292 4.0409466,-0.2704949 4.0420922,-0.2627476 4.0449861,-0.2554735 4.0471877,-0.2522239 4.0498822,-0.2493726 4.0564542,-0.2451249 4.0638979,-0.2426821 4.071656,-0.2416206 4.0794899,-0.2414732 4.1876133,-0.2415655 4.1876133,-0.2415655 4.2001233,-0.2421733 4.2125598,-0.2436279 4.2248687,-0.2459543 4.2369069,-0.2493972 4.2485594,-0.2539892 4.259708,-0.2596923 4.2701974,-0.2665339 4.2798867,-0.2744666 4.2887291,-0.2833354 4.296554,-0.2931117 4.3032063,-0.3037214 4.3085512,-0.3150463 4.3126927,-0.3268642 4.3155805,-0.3390506 4.3172933,-0.3514557 4.3180414,-0.3639573 4.3180414,-0.3639573 4.3175514,-0.3749139 4.3163171,-0.3858111 4.3141627,-0.3965649 4.3111199,-0.4071013 4.3072167,-0.4173501 4.3023622,-0.4271843 4.2965079,-0.4364575 4.2898876,-0.4452009 4.2825235,-0.4533276 4.2743789,-0.4606717 4.2655724,-0.4672079 4.256216,-0.4729285 4.2463576,-0.4777334 4.2361244,-0.4816791 4.2256102,-0.4847966 4.214899,-0.4871542 4.3105594,-0.618717z M4.0933947,-0.2939401 L4.0933947,-0.4365611 4.1850269,-0.4365611 4.1850269,-0.4365611 4.1955325,-0.4364545 4.2060056,-0.4356305 4.2162883,-0.4334764 4.2259474,-0.4293561 4.2259474,-0.4293561 4.2345723,-0.424315 4.2423461,-0.4180414 4.2492465,-0.4108188 4.2550238,-0.4026684 4.2596,-0.3937886 4.2629094,-0.3843626 4.2648832,-0.3745706 4.2655746,-0.3646039 4.2655746,-0.3646039 4.2647769,-0.3545005 4.2625954,-0.3446046 4.2590467,-0.335112 4.2542014,-0.3262111 4.2481395,-0.3180895 4.2409872,-0.3109103 4.2329034,-0.3047992 4.2240076,-0.2999441 4.2240076,-0.2999441 4.2157968,-0.2967258 4.2071719,-0.2948834 4.1895585,-0.2939401 4.0933947,-0.2939401z" transform="matrix(1,0,0,-1,6.19125,0.92075)" fill="rgb(104,104,104)" fill-rule="nonzero" shaper:cutDepth="0.0000762" stroke-linecap="round" stroke-linejoin="round" /><path d="M-5.643245,-0.127 a0.245745,0.245745 0 1,1 0.49149,0 a0.245745,0.245745 0 1,1 -0.49149,0z" transform="matrix(1,0,0,-1,6.19125,0.92075)" fill="rgb(255,255,255)" stroke="rgb(0,0,0)" stroke-width="0.0010cm" stroke-linecap="round" stroke-linejoin="round" shaper:cutDepth="0.0015875" /><path d="M5.151755,-0.127 a0.245745,0.245745 0 1,1 0.49149,0 a0.245745,0.245745 0 1,1 -0.49149,0z" transform="matrix(1,0,0,-1,6.19125,0.92075)" fill="rgb(255,255,255)" stroke="rgb(0,0,0)" stroke-width="0.0010cm" stroke-linecap="round" stroke-linejoin="round" shaper:cutDepth="0.0015875" /></svg>