<?xml version="1.0" encoding="utf-8"?>
<!-- Generator: Fusion 360, Shaper Origin Export Add-In, Version 1.6.10  -->
<svg xmlns="http://www.w3.org/2000/svg" xmlns:xlink="http://www.w3.org/1999/xlink" xmlns:shaper="http://www.shapertools.com/namespaces/shaper" shaper:fusionaddin="version:1.6.10" width="9.0996338cm" height="5.5606884cm" version="1.1" x="0cm" y="0cm" viewBox="0 0 9.0996338 5.5606884" enable-background="new 0 0 9.0996338 5.5606884" xml:space="preserve"><path d="M2.413,0.0136558 A1.905,1.905 180 0,0 3.2576338,1.5962639 L2.5740047,2.7803442 0.381,1.9821558 -1.5525762,1.9821558 -5.842,-0.4943442 -5.842,-2.7803442 2.413,-2.7803442 2.413,0.0136558z" transform="matrix(1,0,0,-1,5.842,2.7803442)" fill="rgb(0,0,0)" shaper:cutDepth="0.003175" stroke-linecap="round" stroke-linejoin="round" /><path d="M0.127,0.9979057 L0.127,-1.9865942 A0.15875,0.15875 180 0,1 0.28575,-2.1453442 L0.85725,-2.1453442 A0.15875,0.15875 270 0,1 1.016,-1.9865942 L1.016,0.9979057 A0.15875,0.15875 0 0,1 0.85725,1.1566557 L0.28575,1.1566557 A0.15875,0.15875 90 0,1 0.127,0.9979057z" transform="matrix(1,0,0,-1,5.842,2.7803442)" fill="rgb(255,255,255)" stroke="rgb(0,0,0)" stroke-width="0.0010cm" stroke-linecap="round" stroke-linejoin="round" shaper:cutDepth="0.003175" /><path d="M-3.99415,-0.0625443 L-4.3370499,-0.0625443 A0.15875,0.15875 90 0,1 -4.4957999,-0.2212943 L-4.4957999,-2.0881942 A0.15875,0.15875 180 0,1 -4.3370499,-2.2469442 L-3.8322337,-2.2469442 A0.15875,0.15875 270 0,1 -3.7886217,-2.2408362 L-3.6535782,-2.2022523 A0.15875,0.15875 105.9453959 0,0 -3.6099662,-2.1961442 L-2.69875,-2.1961442 A0.15875,0.15875 270 0,1 -2.54,-2.0373942 L-2.54,-0.7710099 A0.15875,0.15875 0 0,1 -2.566662,-0.6829512 L-2.614938,-0.6105373 A0.15875,0.15875 213.6900675 0,0 -2.6416,-0.5224786 L-2.6416,-0.1196943 A0.15875,0.15875 0 0,1 -2.80035,0.0390557 L-3.32105,0.0390557 A0.15875,0.15875 90 0,1 -3.4798,-0.1196943 L-3.4798,-0.5387942 A0.15875,0.15875 0 0,0 -3.63855,-0.6975442 L-3.67665,-0.6975442 A0.15875,0.15875 270 0,0 -3.8354,-0.5387942 L-3.8354,-0.2212943 A0.15875,0.15875 0 0,1 -3.99415,-0.0625443z" transform="matrix(1,0,0,-1,5.842,2.7803442)" fill="rgb(255,255,255)" stroke="rgb(0,0,0)" stroke-width="0.0010cm" stroke-linecap="round" stroke-linejoin="round" shaper:cutDepth="0.003175" /><path d="M1.397,0.4137057 L1.397,-0.1831942 A0.15875,0.15875 180 0,1 1.55575,-0.3419442 L1.94945,-0.3419442 A0.15875,0.15875 270 0,1 2.1082,-0.1831942 L2.1082,0.4137057 A0.15875,0.15875 0 0,1 1.94945,0.5724557 L1.55575,0.5724557 A0.15875,0.15875 90 0,1 1.397,0.4137057z" transform="matrix(1,0,0,-1,5.842,2.7803442)" fill="rgb(255,255,255)" stroke="rgb(0,0,0)" stroke-width="0.0010cm" stroke-linecap="round" stroke-linejoin="round" shaper:cutDepth="0.003175" /><path d="M-0.2032,1.3535057 L-0.2032,0.9047724 A0.15875,0.15875 180 0,1 -0.17145,0.8095224 L-0.08255,0.6909891 A0.15875,0.15875 36.8698976 0,0 -0.0508,0.5957391 L-0.0508,-2.3421942 A0.15875,0.15875 0 0,0 -0.20955,-2.5009442 L-0.55245,-2.5009442 A0.15875,0.15875 270 0,0 -0.7112,-2.3421942 L-0.7112,0.5890078 A0.15875,0.15875 0 0,1 -0.7504784,0.6935454 L-0.8497215,0.8069661 A0.15875,0.15875 221.1859252 0,0 -0.889,0.9115037 L-0.889,1.3535057 A0.15875,0.15875 180 0,0 -0.73025,1.5122557 L-0.36195,1.5122557 A0.15875,0.15875 90 0,0 -0.2032,1.3535057z" transform="matrix(1,0,0,-1,5.842,2.7803442)" fill="rgb(255,255,255)" stroke="rgb(0,0,0)" stroke-width="0.0010cm" stroke-linecap="round" stroke-linejoin="round" shaper:cutDepth="0.003175" /><path d="M-2.4892,0.5661057 L-2.4892,0.0235392 A0.15875,0.15875 180 0,1 -2.4879741,0.0038486 L-2.4650259,-0.1797372 A0.15875,0.15875 7.1250163 0,0 -2.4638,-0.1994277 L-2.4638,-2.0373942 A0.15875,0.15875 180 0,1 -2.30505,-2.1961442 L-1.17475,-2.1961442 A0.15875,0.15875 270 0,1 -1.016,-2.0373942 L-1.016,0.9979057 A0.15875,0.15875 0 0,1 -1.17475,1.1566557 L-1.77165,1.1566557 A0.15875,0.15875 90 0,1 -1.9304,0.9979057 L-1.9304,0.8836057 A0.15875,0.15875 0 0,0 -2.08915,0.7248557 L-2.33045,0.7248557 A0.15875,0.15875 90 0,1 -2.4892,0.5661057z" transform="matrix(1,0,0,-1,5.842,2.7803442)" fill="rgb(255,255,255)" stroke="rgb(0,0,0)" stroke-width="0.0010cm" stroke-linecap="round" stroke-linejoin="round" shaper:cutDepth="0.003175" /><path d="M2.0828,1.4932057 A0.15875,0.15875 180 0,1 2.24155,1.3344557 L2.7432,1.3344557 2.7432,1.9123057 A0.15875,0.15875 0 0,1 2.58445,2.0710557 L2.24155,2.0710557 A0.15875,0.15875 90 0,1 2.0828,1.9123057 L2.0828,1.4932057z" transform="matrix(1,0,0,-1,5.842,2.7803442)" fill="rgb(255,255,255)" stroke="rgb(0,0,0)" stroke-width="0.0010cm" stroke-linecap="round" stroke-linejoin="round" shaper:cutDepth="0.003175" /><path d="M1.403985,-2.0500942 a0.215265,0.215265 0 1,1 0.43053,0 a0.215265,0.215265 0 1,1 -0.43053,0z" transform="matrix(1,0,0,-1,5.842,2.7803442)" fill="rgb(255,255,255)" stroke="rgb(0,0,0)" stroke-width="0.0010cm" stroke-linecap="round" stroke-linejoin="round" shaper:cutDepth="0.003175" /><path d="M-5.295265,-0.8753442 a0.215265,0.215265 0 1,1 0.43053,0 a0.215265,0.215265 0 1,1 -0.43053,0z" transform="matrix(1,0,0,-1,5.842,2.7803442)" fill="rgb(255,255,255)" stroke="rgb(0,0,0)" stroke-width="0.0010cm" stroke-linecap="round" stroke-linejoin="round" shaper:cutDepth="0.003175" /></svg>