<?xml version="1.0" encoding="utf-8"?>
<!-- Generator: Fusion 360, Shaper Origin Export Add-In, Version 1.6.10  -->
<svg xmlns="http://www.w3.org/2000/svg" xmlns:xlink="http://www.w3.org/1999/xlink" xmlns:shaper="http://www.shapertools.com/namespaces/shaper" shaper:fusionaddin="version:1.6.10" width="9.0996338cm" height="5.5606884cm" version="1.1" x="0cm" y="0cm" viewBox="0 0 9.0996338 5.5606884" enable-background="new 0 0 9.0996338 5.5606884" xml:space="preserve"><path d="M3.7051831,0.0136558 A1.905,1.905 180 0,0 4.5498169,1.5962639 L3.8661878,2.7803442 1.6731831,1.9821558 -0.2603931,1.9821558 -4.5498169,-0.4943442 -4.5498169,-2.7803442 3.7051831,-2.7803442 3.7051831,0.0136558z" transform="matrix(1,0,0,-1,4.5498169,2.7803442)" fill="rgb(0,0,0)" shaper:cutDepth="0.0047625" stroke-linecap="round" stroke-linejoin="round" /><path d="M-4.0030819,-0.8753442 a0.215265,0.215265 0 1,1 0.43053,0 a0.215265,0.215265 0 1,1 -0.43053,0z" transform="matrix(1,0,0,-1,4.5498169,2.7803442)" fill="rgb(255,255,255)" stroke="rgb(0,0,0)" stroke-width="0.0010cm" stroke-linecap="round" stroke-linejoin="round" shaper:cutDepth="0.0047625" /><path d="M2.6961681,-2.0500942 a0.215265,0.215265 0 1,1 0.43053,0 a0.215265,0.215265 0 1,1 -0.43053,0z" transform="matrix(1,0,0,-1,4.5498169,2.7803442)" fill="rgb(255,255,255)" stroke="rgb(0,0,0)" stroke-width="0.0010cm" stroke-linecap="round" stroke-linejoin="round" shaper:cutDepth="0.0047625" /></svg>