<?xml version="1.0" encoding="UTF-8" standalone="no"?>
<svg xmlns="http://www.w3.org/2000/svg" xmlns:xlink="http://www.w3.org/1999/xlink" width="624.840mm" height="569.522mm" viewBox="-162.420013 -184.760773 624.840027 569.521545">
    <path transform="matrix(-1,0,0,1,462.420013,-184.760773)" style="stroke:#000000;stroke-width:0.050000mm;fill:none" d="M414.655029,25.400024C412.901489,25.400024,411.480011,23.978546,411.480011,22.225006L411.480011,0L213.360016,0L213.360016,22.225006C213.360016,23.978546,211.938522,25.400024,210.185013,25.400024L0,25.400024L0,565.123535L0,569.521545L624.840027,569.521545L624.840027,565.123535L624.840027,25.400024L414.655029,25.400024z"/>
    <path transform="matrix(-1,0,0,1,462.420013,-184.760773)" style="stroke:#000000;stroke-width:0.050000mm;fill:none" d="M8.533142,85.204742C8.532623,85.559448,8.721558,85.887451,9.028656,86.064941C9.335754,86.242432,9.714264,86.242432,10.021362,86.064941C10.328461,85.887451,10.517395,85.559448,10.516876,85.204742C10.517395,84.850037,10.328461,84.522049,10.021362,84.344543C9.714264,84.167053,9.335754,84.167053,9.028656,84.344543C8.721558,84.522049,8.532623,84.850037,8.533142,85.204742z"/>
    <path transform="matrix(-1,0,0,1,462.420013,-184.760773)" style="stroke:#000000;stroke-width:0.050000mm;fill:none" d="M8.533142,476.195679C8.532623,476.550415,8.721558,476.878387,9.028656,477.055878C9.335754,477.233398,9.714264,477.233398,10.021362,477.055878C10.328461,476.878387,10.517395,476.550415,10.516876,476.195679C10.517395,475.840973,10.328461,475.513,10.021362,475.33551C9.714264,475.15799,9.335754,475.15799,9.028656,475.33551C8.721558,475.513,8.532623,475.840973,8.533142,476.195679z"/>
    <path transform="matrix(-1,0,0,1,462.420013,-184.760773)" style="stroke:#000000;stroke-width:0.050000mm;fill:none" d="M614.32312,289.77179C614.322632,290.126495,614.511597,290.454468,614.818665,290.631958C615.125732,290.809479,615.504272,290.809479,615.811401,290.631958C616.118469,290.454468,616.307373,290.126495,616.306885,289.77179C616.307373,289.417084,616.118469,289.089081,615.811401,288.911591C615.504272,288.7341,615.125732,288.7341,614.818665,288.911591C614.511597,289.089081,614.322632,289.417084,614.32312,289.77179z"/>
    <path transform="matrix(-1,0,0,1,462.420013,-184.760773)" style="stroke:#000000;stroke-width:0.050000mm;fill:none" d="M596.463379,38.100006C596.463196,39.163574,597.030518,40.146439,597.951538,40.678284C598.872559,41.210129,600.007446,41.210129,600.928467,40.678284C601.849487,40.146439,602.41687,39.163574,602.416626,38.100006C602.41687,37.036438,601.849487,36.053574,600.928467,35.521729C600.007446,34.989883,598.872559,34.989883,597.951538,35.521729C597.030518,36.053574,596.463196,37.036438,596.463379,38.100006z"/>
    <path transform="matrix(-1,0,0,1,462.420013,-184.760773)" style="stroke:#000000;stroke-width:0.050000mm;fill:none" d="M433.903381,38.100006C433.903198,39.163574,434.47049,40.146439,435.391541,40.678284C436.312592,41.210129,437.447449,41.210129,438.368469,40.678284C439.28952,40.146439,439.856842,39.163574,439.856628,38.100006C439.856842,37.036438,439.28952,36.053574,438.368469,35.521729C437.447449,34.989883,436.312592,34.989883,435.391541,35.521729C434.47049,36.053574,433.903198,37.036438,433.903381,38.100006z"/>
    <path transform="matrix(-1,0,0,1,462.420013,-184.760773)" style="stroke:#000000;stroke-width:0.050000mm;fill:none" d="M136.525009,69.823486C136.521439,76.631775,140.151566,82.924408,146.047119,86.329605C151.942688,89.734772,159.207336,89.734772,165.10289,86.329605C170.998444,82.924408,174.628586,76.631775,174.625,69.823486C174.628586,63.015198,170.998444,56.722565,165.10289,53.317368C159.207336,49.912201,151.942688,49.912201,146.047119,53.317368C140.151566,56.722565,136.521439,63.015198,136.525009,69.823486z"/>
    <path transform="matrix(-1,0,0,1,462.420013,-184.760773)" style="stroke:#000000;stroke-width:0.050000mm;fill:none" d="M507.36499,69.823486C507.36142,76.631775,510.991547,82.924408,516.887085,86.329605C522.782654,89.734772,530.047363,89.734772,535.942871,86.329605C541.83844,82.924408,545.468567,76.631775,545.464966,69.823486C545.468567,63.015198,541.83844,56.722565,535.942871,53.317368C530.047363,49.912201,522.782654,49.912201,516.887085,53.317368C510.991547,56.722565,507.36142,63.015198,507.36499,69.823486z"/>
    <path transform="matrix(-1,0,0,1,462.420013,-184.760773)" style="stroke:#000000;stroke-width:0.050000mm;fill:none" d="M100.293396,38.100006C100.293213,39.163574,100.860504,40.146439,101.781555,40.678284C102.702606,41.210129,103.837433,41.210129,104.758499,40.678284C105.679535,40.146439,106.246841,39.163574,106.246643,38.100006C106.246841,37.036438,105.679535,36.053574,104.758499,35.521729C103.837433,34.989883,102.702606,34.989883,101.781555,35.521729C100.860504,36.053574,100.293213,37.036438,100.293396,38.100006z"/>
    <path transform="matrix(-1,0,0,1,462.420013,-184.760773)" style="stroke:#000000;stroke-width:0.050000mm;fill:none" d="M214.246704,325.398895C214.245621,326.168671,214.655685,326.880463,215.322159,327.265656C215.988632,327.650879,216.810074,327.650879,217.476547,327.265656C218.143021,326.880463,218.553085,326.168671,218.552002,325.398895C218.553085,324.62912,218.143021,323.917358,217.476547,323.532135C216.810074,323.146942,215.988632,323.146942,215.322159,323.532135C214.655685,323.917358,214.245621,324.62912,214.246704,325.398895z"/>
    <path transform="matrix(-1,0,0,1,462.420013,-184.760773)" style="stroke:#000000;stroke-width:0.050000mm;fill:none" d="M406.288025,449.905945C406.286926,450.67572,406.697021,451.387512,407.363464,451.772705C408.029968,452.157898,408.851379,452.157898,409.517883,451.772705C410.184326,451.387512,410.594421,450.67572,410.593323,449.905945C410.594421,449.136169,410.184326,448.424377,409.517883,448.039185C408.851379,447.653992,408.029968,447.653992,407.363464,448.039185C406.697021,448.424377,406.286926,449.136169,406.288025,449.905945z"/>
    <path transform="matrix(-1,0,0,1,462.420013,-184.760773)" style="stroke:#000000;stroke-width:0.050000mm;fill:none" d="M214.246704,449.905945C214.245621,450.67572,214.655685,451.387512,215.322159,451.772705C215.988632,452.157898,216.810074,452.157898,217.476547,451.772705C218.143021,451.387512,218.553085,450.67572,218.552002,449.905945C218.553085,449.136169,218.143021,448.424377,217.476547,448.039185C216.810074,447.653992,215.988632,447.653992,215.322159,448.039185C214.655685,448.424377,214.245621,449.136169,214.246704,449.905945z"/>
    <path transform="matrix(-1,0,0,1,462.420013,-184.760773)" style="stroke:#000000;stroke-width:0.050000mm;fill:none" d="M239.47757,76.118637C239.476959,76.997009,239.945206,77.808929,240.705795,78.248291C241.466385,78.687637,242.403641,78.687637,243.16423,78.248291C243.92482,77.808929,244.393066,76.997009,244.392456,76.118637C244.393066,75.240265,243.92482,74.428345,243.16423,73.988983C242.403641,73.549622,241.466385,73.549622,240.705795,73.988983C239.945206,74.428345,239.476959,75.240265,239.47757,76.118637z"/>
    <path transform="matrix(-1,0,0,1,462.420013,-184.760773)" style="stroke:#000000;stroke-width:0.050000mm;fill:none" d="M239.47757,25.318634C239.476959,26.196991,239.945206,27.008942,240.705795,27.448273C241.466385,27.887634,242.403641,27.887634,243.16423,27.448273C243.92482,27.008942,244.393066,26.196991,244.392456,25.318634C244.393066,24.440277,243.92482,23.628326,243.16423,23.188995C242.403641,22.749634,241.466385,22.749634,240.705795,23.188995C239.945206,23.628326,239.476959,24.440277,239.47757,25.318634z"/>
    <path transform="matrix(-1,0,0,1,462.420013,-184.760773)" style="stroke:#000000;stroke-width:0.050000mm;fill:none" d="M380.447571,76.118637C380.44696,76.997009,380.915222,77.808929,381.675781,78.248291C382.436401,78.687637,383.373657,78.687637,384.134216,78.248291C384.894836,77.808929,385.363068,76.997009,385.362457,76.118637C385.363068,75.240265,384.894836,74.428345,384.134216,73.988983C383.373657,73.549622,382.436401,73.549622,381.675781,73.988983C380.915222,74.428345,380.44696,75.240265,380.447571,76.118637z"/>
    <path transform="matrix(-1,0,0,1,462.420013,-184.760773)" style="stroke:#000000;stroke-width:0.050000mm;fill:none" d="M380.447571,25.318634C380.44696,26.196991,380.915222,27.008942,381.675781,27.448273C382.436401,27.887634,383.373657,27.887634,384.134216,27.448273C384.894836,27.008942,385.363068,26.196991,385.362457,25.318634C385.363068,24.440277,384.894836,23.628326,384.134216,23.188995C383.373657,22.749634,382.436401,22.749634,381.675781,23.188995C380.915222,23.628326,380.44696,24.440277,380.447571,25.318634z"/>
    <path transform="matrix(-1,0,0,1,462.420013,-184.760773)" style="stroke:#000000;stroke-width:0.050000mm;fill:none" d="M546.760376,192.735214C546.760376,195.148041,548.716431,197.104019,551.129211,197.104019C553.541992,197.104019,555.498047,195.148041,555.498047,192.735214C555.498047,190.322388,553.541992,188.366425,551.129211,188.366425C548.716431,188.366425,546.760376,190.322388,546.760376,192.735214z"/>
    <path transform="matrix(-1,0,0,1,462.420013,-184.760773)" style="stroke:#000000;stroke-width:0.050000mm;fill:none" d="M71.90741,192.735214C71.90741,195.148041,73.863403,197.104019,76.276215,197.104019C78.689026,197.104019,80.64502,195.148041,80.64502,192.735214C80.64502,190.322388,78.689026,188.366425,76.276215,188.366425C73.863403,188.366425,71.90741,190.322388,71.90741,192.735214z"/>
    <path transform="matrix(-1,0,0,1,462.420013,-184.760773)" style="stroke:#000000;stroke-width:0.050000mm;fill:none" d="M406.288025,325.398895C406.286926,326.168671,406.697021,326.880463,407.363464,327.265656C408.029968,327.650879,408.851379,327.650879,409.517883,327.265656C410.184326,326.880463,410.594421,326.168671,410.593323,325.398895C410.594421,324.62912,410.184326,323.917358,409.517883,323.532135C408.851379,323.146942,408.029968,323.146942,407.363464,323.532135C406.697021,323.917358,406.286926,324.62912,406.288025,325.398895z"/>
    <path transform="matrix(-1,0,0,1,462.420013,-184.760773)" style="stroke:#000000;stroke-width:0.050000mm;fill:none" d="M202.445892,38.100006C202.445694,39.163574,203.013,40.146439,203.934052,40.678284C204.855103,41.210129,205.989929,41.210129,206.91098,40.678284C207.832031,40.146439,208.399323,39.163574,208.399139,38.100006C208.399323,37.036438,207.832031,36.053574,206.91098,35.521729C205.989929,34.989883,204.855103,34.989883,203.934052,35.521729C203.013,36.053574,202.445694,37.036438,202.445892,38.100006z"/>
    <path transform="matrix(-1,0,0,1,462.420013,-184.760773)" style="stroke:#000000;stroke-width:0.050000mm;fill:none" d="M43.143402,38.100006C43.143219,39.163574,43.71051,40.146439,44.631561,40.678284C45.552612,41.210129,46.687439,41.210129,47.60849,40.678284C48.529541,40.146439,49.096832,39.163574,49.096649,38.100006C49.096832,37.036438,48.529541,36.053574,47.60849,35.521729C46.687439,34.989883,45.552612,34.989883,44.631561,35.521729C43.71051,36.053574,43.143219,37.036438,43.143402,38.100006z"/>
    <path transform="matrix(-1,0,0,1,462.420013,-184.760773)" style="stroke:#000000;stroke-width:0.050000mm;fill:none" d="M450.215027,69.823486C450.215027,80.344513,458.743988,88.873489,469.265015,88.873489C479.786041,88.873474,488.315002,80.344498,488.315002,69.823486C488.318604,63.015198,484.688477,56.722565,478.792908,53.317368C472.897339,49.912201,465.63269,49.912201,459.737122,53.317368C453.841583,56.722565,450.211426,63.015198,450.215027,69.823486L450.215027,69.823486z"/>
    <path transform="matrix(-1,0,0,1,462.420013,-184.760773)" style="stroke:#000000;stroke-width:0.050000mm;fill:none" d="M79.375,69.823486C79.371429,76.631775,83.001541,82.924408,88.897095,86.329605C94.792664,89.734772,102.057327,89.734772,107.952881,86.329605C113.84845,82.924408,117.478577,76.631775,117.475006,69.823486C117.478577,63.015198,113.84845,56.722565,107.952881,53.317368C102.057327,49.912201,94.792664,49.912201,88.897095,53.317368C83.001541,56.722565,79.371429,63.015198,79.375,69.823486z"/>
    <path transform="matrix(-1,0,0,1,462.420013,-184.760773)" style="stroke:#000000;stroke-width:0.050000mm;fill:none" d="M515.18335,38.100006C515.183228,39.163574,515.750488,40.146439,516.671509,40.678284C517.59259,41.210129,518.727417,41.210129,519.648499,40.678284C520.569519,40.146439,521.136841,39.163574,521.136597,38.100006C521.136841,37.036438,520.569519,36.053574,519.648499,35.521729C518.727417,34.989883,517.59259,34.989883,516.671509,35.521729C515.750488,36.053574,515.183228,37.036438,515.18335,38.100006z"/>
    <path transform="matrix(-1,0,0,1,462.420013,-184.760773)" style="stroke:#000000;stroke-width:0.050000mm;fill:none" d="M614.32312,85.204742C614.322632,85.559448,614.511597,85.887451,614.818665,86.064941C615.125732,86.242432,615.504272,86.242432,615.811401,86.064941C616.118469,85.887451,616.307373,85.559448,616.306885,85.204742C616.307373,84.850037,616.118469,84.522049,615.811401,84.344543C615.504272,84.167053,615.125732,84.167053,614.818665,84.344543C614.511597,84.522049,614.322632,84.850037,614.32312,85.204742z"/>
    <path transform="matrix(-1,0,0,1,462.420013,-184.760773)" style="stroke:#000000;stroke-width:0.050000mm;fill:none" d="M614.32312,476.195679C614.322632,476.550415,614.511597,476.878387,614.818665,477.055878C615.125732,477.233398,615.504272,477.233398,615.811401,477.055878C616.118469,476.878387,616.307373,476.550415,616.306885,476.195679C616.307373,475.840973,616.118469,475.513,615.811401,475.33551C615.504272,475.15799,615.125732,475.15799,614.818665,475.33551C614.511597,475.513,614.322632,475.840973,614.32312,476.195679z"/>
    <path transform="matrix(-1,0,0,1,462.420013,-184.760773)" style="stroke:#000000;stroke-width:0.050000mm;fill:none" d="M8.533142,289.77179C8.532623,290.126495,8.721558,290.454468,9.028656,290.631958C9.335754,290.809479,9.714264,290.809479,10.021362,290.631958C10.328461,290.454468,10.517395,290.126495,10.516876,289.77179C10.517395,289.417084,10.328461,289.089081,10.021362,288.911591C9.714264,288.7341,9.335754,288.7341,9.028656,288.911591C8.721558,289.089081,8.532623,289.417084,8.533142,289.77179z"/>
    <path transform="matrix(-1,0,0,1,462.420013,-184.760773)" style="stroke:#000000;stroke-width:0.050000mm;fill:none" d="M348.056213,177.773499C348.056213,179.134216,349.159302,180.237305,350.52002,180.237305C351.880737,180.237305,352.983826,179.134216,352.983826,177.773499C352.984253,176.892975,352.514771,176.079132,351.752289,175.638733C350.989807,175.198334,350.050232,175.198334,349.28775,175.638733C348.525269,176.079132,348.055756,176.892975,348.056213,177.773499L348.056213,177.773499z"/>
    <path transform="matrix(-1,0,0,1,462.420013,-184.760773)" style="stroke:#000000;stroke-width:0.050000mm;fill:none" d="M348.056213,101.573502C348.056213,102.934219,349.159302,104.037292,350.52002,104.037292C351.880737,104.037292,352.983826,102.934219,352.983826,101.573502C352.984253,100.692963,352.514771,99.87912,351.752289,99.438736C350.989807,98.998352,350.050232,98.998352,349.28775,99.438736C348.525269,99.87912,348.055756,100.692963,348.056213,101.573502L348.056213,101.573502z"/>
    <path transform="matrix(-1,0,0,1,462.420013,-184.760773)" style="stroke:#000000;stroke-width:0.050000mm;fill:none" d="M271.856201,101.573502C271.855774,102.454025,272.325256,103.267868,273.087738,103.708252C273.85025,104.148651,274.789795,104.148651,275.552277,103.708252C276.314758,103.267868,276.784271,102.454025,276.783813,101.573502C276.784271,100.692963,276.314758,99.87912,275.552277,99.438736C274.789795,98.998352,273.85025,98.998352,273.087738,99.438736C272.325256,99.87912,271.855774,100.692963,271.856201,101.573502z"/>
    <path transform="matrix(-1,0,0,1,462.420013,-184.760773)" style="stroke:#000000;stroke-width:0.050000mm;fill:none" d="M271.856201,177.773499C271.855774,178.654022,272.325256,179.467865,273.087738,179.908264C273.85025,180.348663,274.789795,180.348663,275.552277,179.908264C276.314758,179.467865,276.784271,178.654022,276.783813,177.773499C276.784271,176.892975,276.314758,176.079132,275.552277,175.638733C274.789795,175.198334,273.85025,175.198334,273.087738,175.638733C272.325256,176.079132,271.855774,176.892975,271.856201,177.773499z"/>
    <path transform="matrix(-1,0,0,1,462.420013,-184.760773)" style="stroke:#000000;stroke-width:0.050000mm;fill:none" d="M276.436676,171.786652C275.168121,171.33815,274.320007,170.138733,274.320007,168.793243L274.320007,110.553757C274.320007,109.208237,275.168121,108.008835,276.436676,107.560333C278.245026,106.920975,279.667511,105.498505,280.306854,103.690155C280.755371,102.4216,281.954773,101.573486,283.300262,101.573502L341.539764,101.573502C342.885254,101.573486,344.084656,102.4216,344.533173,103.690155C345.172516,105.49852,346.595001,106.920975,348.403351,107.560333C349.671906,108.008835,350.52002,109.208237,350.52002,110.553757L350.52002,168.793243C350.52002,170.138733,349.671906,171.33815,348.403351,171.786652C346.595001,172.425995,345.172516,173.848465,344.533173,175.65683C344.084686,176.925385,342.885284,177.773499,341.539764,177.773499L283.300262,177.773499C281.954742,177.773499,280.755341,176.925385,280.306854,175.65683C279.667511,173.848465,278.245026,172.425995,276.436676,171.786652z"/>
    <path transform="matrix(-1,0,0,1,462.420013,-184.760773)" style="stroke:#000000;stroke-width:0.050000mm;fill:none" d="M461.856689,171.786652C460.588135,171.33815,459.740021,170.138748,459.740021,168.793243L459.740021,110.553757C459.740021,109.208237,460.588135,108.008835,461.856689,107.560333C463.665039,106.920975,465.087524,105.49852,465.726868,103.690155C466.175354,102.4216,467.374756,101.573486,468.720276,101.573502L526.959717,101.573502C528.305298,101.573486,529.5047,102.421585,529.953186,103.690155C530.592529,105.49852,532.015015,106.92099,533.823364,107.560333C535.091919,108.008835,535.940002,109.208237,535.940002,110.553757L535.940002,168.793243C535.940002,170.138748,535.091919,171.33815,533.823364,171.786652C532.015015,172.42601,530.592529,173.84848,529.953186,175.65683C529.5047,176.925385,528.305298,177.773499,526.959717,177.773499L468.720276,177.773499C467.374756,177.773499,466.175354,176.925385,465.726868,175.65683C465.087524,173.848465,463.665039,172.425995,461.856689,171.786652z"/>
    <path transform="matrix(-1,0,0,1,462.420013,-184.760773)" style="stroke:#000000;stroke-width:0.050000mm;fill:none" d="M97.88028,152.373505C96.53476,152.373505,95.335342,151.525391,94.886841,150.256821C94.247498,148.448486,92.825012,147.026001,91.016678,146.386658C89.748123,145.938156,88.900024,144.738754,88.900024,143.39325L88.900024,110.553757C88.900024,109.208237,89.748123,108.008835,91.016678,107.560333C92.825043,106.92099,94.247498,105.49852,94.886841,103.690155C95.335342,102.421585,96.53476,101.573486,97.88028,101.573502L156.119751,101.573502C157.465271,101.573486,158.664673,102.4216,159.113174,103.690155C159.752533,105.49852,161.174988,106.920975,162.983353,107.560333C164.251907,108.008835,165.100006,109.208237,165.100006,110.553757L165.100006,143.39325C165.100006,144.738754,164.251907,145.938156,162.983353,146.386658C161.174988,147.026001,159.752518,148.448471,159.113174,150.256821C158.664673,151.525391,157.465271,152.373505,156.119751,152.373505L97.88028,152.373505z"/>
    <path transform="matrix(-1,0,0,1,462.420013,-184.760773)" style="stroke:#000000;stroke-width:0.050000mm;fill:none" d="M457.276215,101.573502C457.275238,102.454376,457.744629,103.268768,458.507324,103.709473C459.27002,104.150208,460.209991,104.150208,460.972717,103.709473C461.735413,103.268768,462.204773,102.454376,462.203796,101.573502C462.204773,100.692627,461.735413,99.878235,460.972717,99.437515C460.209991,98.99678,459.27002,98.99678,458.507324,99.437515C457.744629,99.878235,457.275238,100.692627,457.276215,101.573502z"/>
    <path transform="matrix(-1,0,0,1,462.420013,-184.760773)" style="stroke:#000000;stroke-width:0.050000mm;fill:none" d="M533.476196,177.773499C533.47522,178.654373,533.94458,179.46875,534.707336,179.909485C535.470032,180.350204,536.410034,180.350204,537.172668,179.909485C537.935425,179.46875,538.404785,178.654373,538.403809,177.773499C538.404785,176.892609,537.935425,176.078232,537.172668,175.637512C536.410034,175.196793,535.470032,175.196793,534.707336,175.637512C533.94458,176.078232,533.47522,176.892609,533.476196,177.773499z"/>
    <path transform="matrix(-1,0,0,1,462.420013,-184.760773)" style="stroke:#000000;stroke-width:0.050000mm;fill:none" d="M86.436218,101.573502C86.435242,102.454376,86.904633,103.268768,87.667343,103.709473C88.430023,104.150208,89.37001,104.150208,90.132706,103.709473C90.895416,103.268768,91.364792,102.454376,91.363815,101.573502C91.364792,100.692627,90.895416,99.878235,90.132706,99.437515C89.37001,98.99678,88.430023,98.99678,87.667343,99.437515C86.904633,99.878235,86.435242,100.692627,86.436218,101.573502z"/>
    <path transform="matrix(-1,0,0,1,462.420013,-184.760773)" style="stroke:#000000;stroke-width:0.050000mm;fill:none" d="M162.636215,152.373505C162.635239,153.254379,163.104614,154.068756,163.867325,154.509476C164.63002,154.950195,165.570007,154.950195,166.332703,154.509476C167.095398,154.068756,167.564789,153.254379,167.563812,152.373505C167.564789,151.492615,167.095398,150.678238,166.332703,150.237518C165.570007,149.796799,164.63002,149.796799,163.867325,150.237518C163.104614,150.678238,162.635239,151.492615,162.636215,152.373505z"/>
    <path transform="matrix(-1,0,0,1,462.420013,-184.760773)" style="stroke:#000000;stroke-width:0.050000mm;fill:none" d="M86.436218,152.373505C86.435242,153.254379,86.904633,154.068756,87.667343,154.509476C88.430023,154.950195,89.37001,154.950195,90.132706,154.509476C90.895416,154.068756,91.364792,153.254379,91.363815,152.373505C91.364792,151.492615,90.895416,150.678238,90.132706,150.237518C89.37001,149.796799,88.430023,149.796799,87.667343,150.237518C86.904633,150.678238,86.435242,151.492615,86.436218,152.373505z"/>
    <path transform="matrix(-1,0,0,1,462.420013,-184.760773)" style="stroke:#000000;stroke-width:0.050000mm;fill:none" d="M162.636215,101.573502C162.635239,102.454376,163.104614,103.268768,163.867325,103.709473C164.63002,104.150208,165.570007,104.150208,166.332703,103.709473C167.095398,103.268768,167.564789,102.454376,167.563812,101.573502C167.564789,100.692627,167.095398,99.878235,166.332703,99.437515C165.570007,98.99678,164.63002,98.99678,163.867325,99.437515C163.104614,99.878235,162.635239,100.692627,162.636215,101.573502z"/>
    <path transform="matrix(-1,0,0,1,462.420013,-184.760773)" style="stroke:#000000;stroke-width:0.050000mm;fill:none" d="M457.276215,177.773499C457.275238,178.654373,457.744629,179.46875,458.507324,179.909485C459.27002,180.350204,460.209991,180.350204,460.972717,179.909485C461.735413,179.46875,462.204773,178.654373,462.203796,177.773499C462.204773,176.892609,461.735413,176.078232,460.972717,175.637512C460.209991,175.196793,459.27002,175.196793,458.507324,175.637512C457.744629,176.078232,457.275238,176.892609,457.276215,177.773499z"/>
    <path transform="matrix(-1,0,0,1,462.420013,-184.760773)" style="stroke:#000000;stroke-width:0.050000mm;fill:none" d="M533.476196,101.573502C533.47522,102.454376,533.94458,103.268768,534.707336,103.709473C535.470032,104.150208,536.410034,104.150208,537.172668,103.709473C537.935425,103.268768,538.404785,102.454376,538.403809,101.573502C538.404785,100.692627,537.935425,99.878235,537.172668,99.437515C536.410034,98.99678,535.470032,98.99678,534.707336,99.437515C533.94458,99.878235,533.47522,100.692627,533.476196,101.573502z"/>
</svg>
