<?xml version="1.0" encoding="utf-8"?>
<!-- Generator: Fusion 360, Shaper Origin Export Add-In, Version 1.6.10  -->
<svg xmlns="http://www.w3.org/2000/svg" xmlns:xlink="http://www.w3.org/1999/xlink" xmlns:shaper="http://www.shapertools.com/namespaces/shaper" shaper:fusionaddin="version:1.6.10" width="54.0272221cm" height="17.122379cm" version="1.1" x="0cm" y="0cm" viewBox="0 0 54.0272221 17.122379" enable-background="new 0 0 54.0272221 17.122379" xml:space="preserve"><path d="M-23.8547074,3.2394318 L-25.1247074,3.2394318 -25.8778443,3.2394318 -25.8778443,-7.1240855 -15.2145802,-8.0570003 -7.5025824,-7.2464366 11.4299662,-1.4581756 A20.32,20.32 107 0,0 21.9419646,-1.0910886 L26.1495629,-2.0624892 28.1493778,6.5996607 17.4691797,9.0653787 -2.0805793,4.0983823 -2.222072,3.4855098 A0.3175,0.3175 347 0,0 -2.5314345,3.2394318 L-23.8547074,3.2394318z" transform="matrix(1,0,0,-1,25.8778443,9.0653787)" fill="rgb(0,0,0)" shaper:cutDepth="0.0127" stroke-linecap="round" stroke-linejoin="round" /><path d="M16.8425374,7.9858425 a0.245745,0.245745 0 1,1 0.49149,0 a0.245745,0.245745 0 1,1 -0.49149,0z" transform="matrix(1,0,0,-1,25.8778443,9.0653787)" fill="rgb(255,255,255)" stroke="rgb(0,0,0)" stroke-width="0.0010cm" stroke-linecap="round" stroke-linejoin="round" shaper:cutDepth="0.0127" /><path d="M-24.5360893,-0.5705682 a0.245745,0.245745 0 1,1 0.49149,0 a0.245745,0.245745 0 1,1 -0.49149,0z" transform="matrix(1,0,0,-1,25.8778443,9.0653787)" fill="rgb(255,255,255)" stroke="rgb(0,0,0)" stroke-width="0.0010cm" stroke-linecap="round" stroke-linejoin="round" shaper:cutDepth="0.0127" /><path d="M-24.5360893,-5.6505682 a0.245745,0.245745 0 1,1 0.49149,0 a0.245745,0.245745 0 1,1 -0.49149,0z" transform="matrix(1,0,0,-1,25.8778443,9.0653787)" fill="rgb(255,255,255)" stroke="rgb(0,0,0)" stroke-width="0.0010cm" stroke-linecap="round" stroke-linejoin="round" shaper:cutDepth="0.0127" /><path d="M9.1305334,3.5439526 a0.12192,0.12192 0 1,1 0.24384,0 a0.12192,0.12192 0 1,1 -0.24384,0z" transform="matrix(1,0,0,-1,25.8778443,9.0653787)" fill="rgb(255,255,255)" stroke="rgb(0,0,0)" stroke-width="0.0010cm" stroke-linecap="round" stroke-linejoin="round" shaper:cutDepth="0.0127" /><path d="M9.4627822,4.4189886 a0.12192,0.12192 0 1,1 0.24384,0 a0.12192,0.12192 0 1,1 -0.24384,0z" transform="matrix(1,0,0,-1,25.8778443,9.0653787)" fill="rgb(255,255,255)" stroke="rgb(0,0,0)" stroke-width="0.0010cm" stroke-linecap="round" stroke-linejoin="round" shaper:cutDepth="0.0127" /><path d="M14.4329706,5.515383 a0.12192,0.12192 0 1,1 0.24384,0 a0.12192,0.12192 0 1,1 -0.24384,0z" transform="matrix(1,0,0,-1,25.8778443,9.0653787)" fill="rgb(255,255,255)" stroke="rgb(0,0,0)" stroke-width="0.0010cm" stroke-linecap="round" stroke-linejoin="round" shaper:cutDepth="0.0127" /><path d="M14.6634543,4.6082146 a0.12192,0.12192 0 1,1 0.24384,0 a0.12192,0.12192 0 1,1 -0.24384,0z" transform="matrix(1,0,0,-1,25.8778443,9.0653787)" fill="rgb(255,255,255)" stroke="rgb(0,0,0)" stroke-width="0.0010cm" stroke-linecap="round" stroke-linejoin="round" shaper:cutDepth="0.0127" /><path d="M10.3404486,5.3293677 a0.163195,0.163195 0 1,1 0.32639,0 a0.163195,0.163195 0 1,1 -0.32639,0z" transform="matrix(1,0,0,-1,25.8778443,9.0653787)" fill="rgb(255,255,255)" stroke="rgb(0,0,0)" stroke-width="0.0010cm" stroke-linecap="round" stroke-linejoin="round" shaper:cutDepth="0.0127" /><path d="M13.5823556,6.5244481 a0.163195,0.163195 0 1,1 0.32639,0 a0.163195,0.163195 0 1,1 -0.32639,0z" transform="matrix(1,0,0,-1,25.8778443,9.0653787)" fill="rgb(255,255,255)" stroke="rgb(0,0,0)" stroke-width="0.0010cm" stroke-linecap="round" stroke-linejoin="round" shaper:cutDepth="0.0127" /><path d="M16.9854496,1.4854114 a0.189865,0.189865 0 1,1 0.37973,0 a0.189865,0.189865 0 1,1 -0.37973,0z" transform="matrix(1,0,0,-1,25.8778443,9.0653787)" fill="rgb(255,255,255)" stroke="rgb(0,0,0)" stroke-width="0.0010cm" stroke-linecap="round" stroke-linejoin="round" shaper:cutDepth="0.0127" /><path d="M6.8420221,2.0654788 a0.189865,0.189865 0 1,1 0.37973,0 a0.189865,0.189865 0 1,1 -0.37973,0z" transform="matrix(1,0,0,-1,25.8778443,9.0653787)" fill="rgb(255,255,255)" stroke="rgb(0,0,0)" stroke-width="0.0010cm" stroke-linecap="round" stroke-linejoin="round" shaper:cutDepth="0.0127" /><path d="M20.0178289,0.2940375 a0.15875,0.15875 0 1,1 0.3175,0 a0.15875,0.15875 0 1,1 -0.3175,0z" transform="matrix(1,0,0,-1,25.8778443,9.0653787)" fill="rgb(255,255,255)" stroke="rgb(0,0,0)" stroke-width="0.0010cm" stroke-linecap="round" stroke-linejoin="round" shaper:cutDepth="0.0127" /><path d="M24.3489038,-0.7058699 a0.15875,0.15875 0 1,1 0.3175,0 a0.15875,0.15875 0 1,1 -0.3175,0z" transform="matrix(1,0,0,-1,25.8778443,9.0653787)" fill="rgb(255,255,255)" stroke="rgb(0,0,0)" stroke-width="0.0010cm" stroke-linecap="round" stroke-linejoin="round" shaper:cutDepth="0.0127" /><path d="M-22.566149,1.8106818 a0.245745,0.245745 0 1,1 0.49149,0 a0.245745,0.245745 0 1,1 -0.49149,0z" transform="matrix(1,0,0,-1,25.8778443,9.0653787)" fill="rgb(255,255,255)" stroke="rgb(0,0,0)" stroke-width="0.0010cm" stroke-linecap="round" stroke-linejoin="round" shaper:cutDepth="0.0127" /><path d="M-6.8108786,1.8106818 a0.245745,0.245745 0 1,1 0.49149,0 a0.245745,0.245745 0 1,1 -0.49149,0z" transform="matrix(1,0,0,-1,25.8778443,9.0653787)" fill="rgb(255,255,255)" stroke="rgb(0,0,0)" stroke-width="0.0010cm" stroke-linecap="round" stroke-linejoin="round" shaper:cutDepth="0.0127" /><path d="M-1.4946607,3.3269208 a0.245745,0.245745 0 1,1 0.49149,0 a0.245745,0.245745 0 1,1 -0.49149,0z" transform="matrix(1,0,0,-1,25.8778443,9.0653787)" fill="rgb(255,255,255)" stroke="rgb(0,0,0)" stroke-width="0.0010cm" stroke-linecap="round" stroke-linejoin="round" shaper:cutDepth="0.0127" /><path d="M26.0233852,4.1010861 a0.245745,0.245745 0 1,1 0.49149,0 a0.245745,0.245745 0 1,1 -0.49149,0z" transform="matrix(1,0,0,-1,25.8778443,9.0653787)" fill="rgb(255,255,255)" stroke="rgb(0,0,0)" stroke-width="0.0010cm" stroke-linecap="round" stroke-linejoin="round" shaper:cutDepth="0.0127" /><path d="M-12.1105088,-0.5157714 a0.245745,0.245745 0 1,1 0.49149,0 a0.245745,0.245745 0 1,1 -0.49149,0z" transform="matrix(1,0,0,-1,25.8778443,9.0653787)" fill="rgb(255,255,255)" stroke="rgb(0,0,0)" stroke-width="0.0010cm" stroke-linecap="round" stroke-linejoin="round" shaper:cutDepth="0.0127" /><path d="M-13.5487367,-2.1621963 a0.245745,0.245745 0 1,1 0.49149,0 a0.245745,0.245745 0 1,1 -0.49149,0z" transform="matrix(1,0,0,-1,25.8778443,9.0653787)" fill="rgb(255,255,255)" stroke="rgb(0,0,0)" stroke-width="0.0010cm" stroke-linecap="round" stroke-linejoin="round" shaper:cutDepth="0.0127" /></svg>