<?xml version="1.0" encoding="utf-8"?>
<!-- Generator: Fusion 360, Shaper Origin Export Add-In, Version 1.7.0  -->
<svg xmlns="http://www.w3.org/2000/svg" xmlns:xlink="http://www.w3.org/1999/xlink" xmlns:shaper="http://www.shapertools.com/namespaces/shaper" shaper:fusionaddin="version:1.7.0" width="59.0613143cm" height="49.9314302cm" version="1.1" x="0cm" y="0cm" viewBox="0 0 59.0613143 49.9314302" enable-background="new 0 0 59.0613143 49.9314302" xml:space="preserve"><path d="M28.9018369,11.4491403 A0.3556,0.3556 277.9999988 0,0 28.802857,12.153419 L27.0022062,24.9657151 -29.5306571,20.723529 -29.5306571,-24.9657151 29.5306571,-24.9657151 29.5306571,11.5375153 28.9018369,11.4491403z" transform="matrix(1,0,0,-1,29.5306571,24.9657151)" fill="rgb(0,0,0)" shaper:cutDepth="1.27cm" stroke-linecap="round" stroke-linejoin="round" /><path d="M8.4753786,8.8162956 a0.2032,0.2032 0 1,1 0.4064,0 a0.2032,0.2032 0 1,1 -0.4064,0z" transform="matrix(1,0,0,-1,29.5306571,24.9657151)" fill="rgb(255,255,255)" stroke="rgb(0,0,0)" stroke-width="0.0010cm" stroke-linecap="round" stroke-linejoin="round" shaper:cutDepth="1.27cm" /><path d="M22.8553346,8.8162956 a0.2032,0.2032 0 1,1 0.4064,0 a0.2032,0.2032 0 1,1 -0.4064,0z" transform="matrix(1,0,0,-1,29.5306571,24.9657151)" fill="rgb(255,255,255)" stroke="rgb(0,0,0)" stroke-width="0.0010cm" stroke-linecap="round" stroke-linejoin="round" shaper:cutDepth="1.27cm" /><path d="M4.3021429,4.3077849 a0.2032,0.2032 0 1,1 0.4064,0 a0.2032,0.2032 0 1,1 -0.4064,0z" transform="matrix(1,0,0,-1,29.5306571,24.9657151)" fill="rgb(255,255,255)" stroke="rgb(0,0,0)" stroke-width="0.0010cm" stroke-linecap="round" stroke-linejoin="round" shaper:cutDepth="1.27cm" /><path d="M4.3021429,-2.1184151 a0.2032,0.2032 0 1,1 0.4064,0 a0.2032,0.2032 0 1,1 -0.4064,0z" transform="matrix(1,0,0,-1,29.5306571,24.9657151)" fill="rgb(255,255,255)" stroke="rgb(0,0,0)" stroke-width="0.0010cm" stroke-linecap="round" stroke-linejoin="round" shaper:cutDepth="1.27cm" /><path d="M-8.5248571,4.3077849 a0.2032,0.2032 0 1,1 0.4064,0 a0.2032,0.2032 0 1,1 -0.4064,0z" transform="matrix(1,0,0,-1,29.5306571,24.9657151)" fill="rgb(255,255,255)" stroke="rgb(0,0,0)" stroke-width="0.0010cm" stroke-linecap="round" stroke-linejoin="round" shaper:cutDepth="1.27cm" /><path d="M-8.5248571,-2.1184151 a0.2032,0.2032 0 1,1 0.4064,0 a0.2032,0.2032 0 1,1 -0.4064,0z" transform="matrix(1,0,0,-1,29.5306571,24.9657151)" fill="rgb(255,255,255)" stroke="rgb(0,0,0)" stroke-width="0.0010cm" stroke-linecap="round" stroke-linejoin="round" shaper:cutDepth="1.27cm" /><path d="M-26.7784255,-18.0774493 a0.1526098,0.1526098 0 1,1 0.3052196,0 a0.1526098,0.1526098 0 1,1 -0.3052196,0z" transform="matrix(1,0,0,-1,29.5306571,24.9657151)" fill="rgb(255,255,255)" stroke="rgb(0,0,0)" stroke-width="0.0010cm" stroke-linecap="round" stroke-linejoin="round" shaper:cutDepth="1.27cm" /><path d="M-13.6880086,-19.1749484 a0.1598656,0.1598656 0 1,1 0.3197313,0 a0.1598656,0.1598656 0 1,1 -0.3197313,0z" transform="matrix(1,0,0,-1,29.5306571,24.9657151)" fill="rgb(255,255,255)" stroke="rgb(0,0,0)" stroke-width="0.0010cm" stroke-linecap="round" stroke-linejoin="round" shaper:cutDepth="1.27cm" /><path d="M5.0356999,-21.0415689 a0.1605179,0.1605179 0 1,1 0.3210359,0 a0.1605179,0.1605179 0 1,1 -0.3210359,0z" transform="matrix(1,0,0,-1,29.5306571,24.9657151)" fill="rgb(255,255,255)" stroke="rgb(0,0,0)" stroke-width="0.0010cm" stroke-linecap="round" stroke-linejoin="round" shaper:cutDepth="1.27cm" /><path d="M4.41148,-16.1896582 a0.1602677,0.1602677 0 1,1 0.3205354,0 a0.1602677,0.1602677 0 1,1 -0.3205354,0z" transform="matrix(1,0,0,-1,29.5306571,24.9657151)" fill="rgb(255,255,255)" stroke="rgb(0,0,0)" stroke-width="0.0010cm" stroke-linecap="round" stroke-linejoin="round" shaper:cutDepth="1.27cm" /><path d="M-13.6875117,-22.9746029 a0.1598214,0.1598214 0 1,1 0.3196429,0 a0.1598214,0.1598214 0 1,1 -0.3196429,0z" transform="matrix(1,0,0,-1,29.5306571,24.9657151)" fill="rgb(255,255,255)" stroke="rgb(0,0,0)" stroke-width="0.0010cm" stroke-linecap="round" stroke-linejoin="round" shaper:cutDepth="1.27cm" /><path d="M-26.7677747,-11.5448199 a0.1523207,0.1523207 0 1,1 0.3046415,0 a0.1523207,0.1523207 0 1,1 -0.3046415,0z" transform="matrix(1,0,0,-1,29.5306571,24.9657151)" fill="rgb(255,255,255)" stroke="rgb(0,0,0)" stroke-width="0.0010cm" stroke-linecap="round" stroke-linejoin="round" shaper:cutDepth="1.27cm" /><path d="M-18.3877219,-19.1746967 a0.1598096,0.1598096 0 1,1 0.3196191,0 a0.1598096,0.1598096 0 1,1 -0.3196191,0z" transform="matrix(1,0,0,-1,29.5306571,24.9657151)" fill="rgb(255,255,255)" stroke="rgb(0,0,0)" stroke-width="0.0010cm" stroke-linecap="round" stroke-linejoin="round" shaper:cutDepth="1.27cm" /><path d="M-12.9197283,-18.0664872 a0.1527878,0.1527878 0 1,1 0.3055757,0 a0.1527878,0.1527878 0 1,1 -0.3055757,0z" transform="matrix(1,0,0,-1,29.5306571,24.9657151)" fill="rgb(255,255,255)" stroke="rgb(0,0,0)" stroke-width="0.0010cm" stroke-linecap="round" stroke-linejoin="round" shaper:cutDepth="1.27cm" /><path d="M-3.2110215,-21.041641 a0.1601064,0.1601064 0 1,1 0.3202129,0 a0.1601064,0.1601064 0 1,1 -0.3202129,0z" transform="matrix(1,0,0,-1,29.5306571,24.9657151)" fill="rgb(255,255,255)" stroke="rgb(0,0,0)" stroke-width="0.0010cm" stroke-linecap="round" stroke-linejoin="round" shaper:cutDepth="1.27cm" /><path d="M-3.0853655,-16.1897571 a0.1604979,0.1604979 0 1,1 0.3209958,0 a0.1604979,0.1604979 0 1,1 -0.3209958,0z" transform="matrix(1,0,0,-1,29.5306571,24.9657151)" fill="rgb(255,255,255)" stroke="rgb(0,0,0)" stroke-width="0.0010cm" stroke-linecap="round" stroke-linejoin="round" shaper:cutDepth="1.27cm" /><path d="M-18.3879802,-22.9747959 a0.1598903,0.1598903 0 1,1 0.3197806,0 a0.1598903,0.1598903 0 1,1 -0.3197806,0z" transform="matrix(1,0,0,-1,29.5306571,24.9657151)" fill="rgb(255,255,255)" stroke="rgb(0,0,0)" stroke-width="0.0010cm" stroke-linecap="round" stroke-linejoin="round" shaper:cutDepth="1.27cm" /><path d="M-12.9182715,-11.5495398 a0.1521111,0.1521111 0 1,1 0.3042221,0 a0.1521111,0.1521111 0 1,1 -0.3042221,0z" transform="matrix(1,0,0,-1,29.5306571,24.9657151)" fill="rgb(255,255,255)" stroke="rgb(0,0,0)" stroke-width="0.0010cm" stroke-linecap="round" stroke-linejoin="round" shaper:cutDepth="1.27cm" /><path d="M8.4753786,-5.3061044 a0.2032,0.2032 0 1,1 0.4064,0 a0.2032,0.2032 0 1,1 -0.4064,0z" transform="matrix(1,0,0,-1,29.5306571,24.9657151)" fill="rgb(255,255,255)" stroke="rgb(0,0,0)" stroke-width="0.0010cm" stroke-linecap="round" stroke-linejoin="round" shaper:cutDepth="1.27cm" /><path d="M22.8555886,-5.3061044 a0.2032,0.2032 0 1,1 0.4064,0 a0.2032,0.2032 0 1,1 -0.4064,0z" transform="matrix(1,0,0,-1,29.5306571,24.9657151)" fill="rgb(255,255,255)" stroke="rgb(0,0,0)" stroke-width="0.0010cm" stroke-linecap="round" stroke-linejoin="round" shaper:cutDepth="1.27cm" /><path d="M10.1568429,-9.7257151 a5.715,5.715 0 1,1 11.43,0 a5.715,5.715 0 1,1 -11.43,0z" transform="matrix(1,0,0,-1,29.5306571,24.9657151)" fill="rgb(255,255,255)" stroke="rgb(0,0,0)" stroke-width="0.0010cm" stroke-linecap="round" stroke-linejoin="round" shaper:cutDepth="1.27cm" /><path d="M-7.6231571,-9.7257151 a5.715,5.715 0 1,1 11.43,0 a5.715,5.715 0 1,1 -11.43,0z" transform="matrix(1,0,0,-1,29.5306571,24.9657151)" fill="rgb(255,255,255)" stroke="rgb(0,0,0)" stroke-width="0.0010cm" stroke-linecap="round" stroke-linejoin="round" shaper:cutDepth="1.27cm" /><path d="M-25.4031571,-9.7257151 a5.715,5.715 0 1,1 11.43,0 a5.715,5.715 0 1,1 -11.43,0z" transform="matrix(1,0,0,-1,29.5306571,24.9657151)" fill="rgb(255,255,255)" stroke="rgb(0,0,0)" stroke-width="0.0010cm" stroke-linecap="round" stroke-linejoin="round" shaper:cutDepth="1.27cm" /><path d="M27.0560979,17.8840747 a0.245745,0.245745 0 1,1 0.49149,0 a0.245745,0.245745 0 1,1 -0.49149,0z" transform="matrix(1,0,0,-1,29.5306571,24.9657151)" fill="rgb(255,255,255)" stroke="rgb(0,0,0)" stroke-width="0.0010cm" stroke-linecap="round" stroke-linejoin="round" shaper:cutDepth="1.27cm" /><path d="M15.7726559,1.7042849 a0.099187,0.099187 0 1,1 0.198374,0 a0.099187,0.099187 0 1,1 -0.198374,0z" transform="matrix(1,0,0,-1,29.5306571,24.9657151)" fill="rgb(255,255,255)" stroke="rgb(0,0,0)" stroke-width="0.0010cm" stroke-linecap="round" stroke-linejoin="round" shaper:cutDepth="1.27cm" /><path d="M15.7726559,-21.1557151 a0.099187,0.099187 0 1,1 0.198374,0 a0.099187,0.099187 0 1,1 -0.198374,0z" transform="matrix(1,0,0,-1,29.5306571,24.9657151)" fill="rgb(255,255,255)" stroke="rgb(0,0,0)" stroke-width="0.0010cm" stroke-linecap="round" stroke-linejoin="round" shaper:cutDepth="1.27cm" /><path d="M-2.0073441,-21.1557151 a0.099187,0.099187 0 1,1 0.198374,0 a0.099187,0.099187 0 1,1 -0.198374,0z" transform="matrix(1,0,0,-1,29.5306571,24.9657151)" fill="rgb(255,255,255)" stroke="rgb(0,0,0)" stroke-width="0.0010cm" stroke-linecap="round" stroke-linejoin="round" shaper:cutDepth="1.27cm" /><path d="M-2.0073441,1.7042849 a0.099187,0.099187 0 1,1 0.198374,0 a0.099187,0.099187 0 1,1 -0.198374,0z" transform="matrix(1,0,0,-1,29.5306571,24.9657151)" fill="rgb(255,255,255)" stroke="rgb(0,0,0)" stroke-width="0.0010cm" stroke-linecap="round" stroke-linejoin="round" shaper:cutDepth="1.27cm" /><path d="M-19.7873441,-21.1557151 a0.099187,0.099187 0 1,1 0.198374,0 a0.099187,0.099187 0 1,1 -0.198374,0z" transform="matrix(1,0,0,-1,29.5306571,24.9657151)" fill="rgb(255,255,255)" stroke="rgb(0,0,0)" stroke-width="0.0010cm" stroke-linecap="round" stroke-linejoin="round" shaper:cutDepth="1.27cm" /><path d="M-19.7873441,1.7042849 a0.099187,0.099187 0 1,1 0.198374,0 a0.099187,0.099187 0 1,1 -0.198374,0z" transform="matrix(1,0,0,-1,29.5306571,24.9657151)" fill="rgb(255,255,255)" stroke="rgb(0,0,0)" stroke-width="0.0010cm" stroke-linecap="round" stroke-linejoin="round" shaper:cutDepth="1.27cm" /><path d="M16.5385065,22.525635 a0.099187,0.099187 0 1,1 0.198374,0 a0.099187,0.099187 0 1,1 -0.198374,0z" transform="matrix(1,0,0,-1,29.5306571,24.9657151)" fill="rgb(255,255,255)" stroke="rgb(0,0,0)" stroke-width="0.0010cm" stroke-linecap="round" stroke-linejoin="round" shaper:cutDepth="1.27cm" /><path d="M10.7362727,21.1860838 a0.099187,0.099187 0 1,1 0.198374,0 a0.099187,0.099187 0 1,1 -0.198374,0z" transform="matrix(1,0,0,-1,29.5306571,24.9657151)" fill="rgb(255,255,255)" stroke="rgb(0,0,0)" stroke-width="0.0010cm" stroke-linecap="round" stroke-linejoin="round" shaper:cutDepth="1.27cm" /><path d="M2.7807601,19.349409 a0.099187,0.099187 0 1,1 0.198374,0 a0.099187,0.099187 0 1,1 -0.198374,0z" transform="matrix(1,0,0,-1,29.5306571,24.9657151)" fill="rgb(255,255,255)" stroke="rgb(0,0,0)" stroke-width="0.0010cm" stroke-linecap="round" stroke-linejoin="round" shaper:cutDepth="1.27cm" /><path d="M-6.667427,17.1681231 a0.099187,0.099187 0 1,1 0.198374,0 a0.099187,0.099187 0 1,1 -0.198374,0z" transform="matrix(1,0,0,-1,29.5306571,24.9657151)" fill="rgb(255,255,255)" stroke="rgb(0,0,0)" stroke-width="0.0010cm" stroke-linecap="round" stroke-linejoin="round" shaper:cutDepth="1.27cm" /><path d="M-15.1530751,15.2090569 a0.099187,0.099187 0 1,1 0.198374,0 a0.099187,0.099187 0 1,1 -0.198374,0z" transform="matrix(1,0,0,-1,29.5306571,24.9657151)" fill="rgb(255,255,255)" stroke="rgb(0,0,0)" stroke-width="0.0010cm" stroke-linecap="round" stroke-linejoin="round" shaper:cutDepth="1.27cm" /><path d="M-25.0627679,12.921224 a0.099187,0.099187 0 1,1 0.198374,0 a0.099187,0.099187 0 1,1 -0.198374,0z" transform="matrix(1,0,0,-1,29.5306571,24.9657151)" fill="rgb(255,255,255)" stroke="rgb(0,0,0)" stroke-width="0.0010cm" stroke-linecap="round" stroke-linejoin="round" shaper:cutDepth="1.27cm" /><path d="M27.3780429,2.6567849 a0.2413,0.2413 0 1,1 0.4826,0 a0.2413,0.2413 0 1,1 -0.4826,0z" transform="matrix(1,0,0,-1,29.5306571,24.9657151)" fill="rgb(255,255,255)" stroke="rgb(0,0,0)" stroke-width="0.0010cm" stroke-linecap="round" stroke-linejoin="round" shaper:cutDepth="1.27cm" /><path d="M26.4255429,8.0542849 a0.2413,0.2413 0 1,1 0.4826,0 a0.2413,0.2413 0 1,1 -0.4826,0z" transform="matrix(1,0,0,-1,29.5306571,24.9657151)" fill="rgb(255,255,255)" stroke="rgb(0,0,0)" stroke-width="0.0010cm" stroke-linecap="round" stroke-linejoin="round" shaper:cutDepth="1.27cm" /><path d="M11.4268429,13.7692849 a4.445,4.445 0 1,1 8.89,0 a4.445,4.445 0 1,1 -8.89,0z" transform="matrix(1,0,0,-1,29.5306571,24.9657151)" fill="rgb(255,255,255)" stroke="rgb(0,0,0)" stroke-width="0.0010cm" stroke-linecap="round" stroke-linejoin="round" shaper:cutDepth="1.27cm" /><path d="M-6.1851774,12.4992849 a3.81,3.81 0 1,1 7.62,0 a3.81,3.81 0 1,1 -7.62,0z" transform="matrix(1,0,0,-1,29.5306571,24.9657151)" fill="rgb(255,255,255)" stroke="rgb(0,0,0)" stroke-width="0.0010cm" stroke-linecap="round" stroke-linejoin="round" shaper:cutDepth="1.27cm" /><path d="M-28.6773441,18.2142849 a0.099187,0.099187 0 1,1 0.198374,0 a0.099187,0.099187 0 1,1 -0.198374,0z" transform="matrix(1,0,0,-1,29.5306571,24.9657151)" fill="rgb(255,255,255)" stroke="rgb(0,0,0)" stroke-width="0.0010cm" stroke-linecap="round" stroke-linejoin="round" shaper:cutDepth="1.27cm" /><path d="M-10.8973441,18.2142849 a0.099187,0.099187 0 1,1 0.198374,0 a0.099187,0.099187 0 1,1 -0.198374,0z" transform="matrix(1,0,0,-1,29.5306571,24.9657151)" fill="rgb(255,255,255)" stroke="rgb(0,0,0)" stroke-width="0.0010cm" stroke-linecap="round" stroke-linejoin="round" shaper:cutDepth="1.27cm" /><path d="M6.8826559,18.2142849 a0.099187,0.099187 0 1,1 0.198374,0 a0.099187,0.099187 0 1,1 -0.198374,0z" transform="matrix(1,0,0,-1,29.5306571,24.9657151)" fill="rgb(255,255,255)" stroke="rgb(0,0,0)" stroke-width="0.0010cm" stroke-linecap="round" stroke-linejoin="round" shaper:cutDepth="1.27cm" /><path d="M24.6626559,18.2142849 a0.099187,0.099187 0 1,1 0.198374,0 a0.099187,0.099187 0 1,1 -0.198374,0z" transform="matrix(1,0,0,-1,29.5306571,24.9657151)" fill="rgb(255,255,255)" stroke="rgb(0,0,0)" stroke-width="0.0010cm" stroke-linecap="round" stroke-linejoin="round" shaper:cutDepth="1.27cm" /><path d="M-28.6773441,8.0542849 a0.099187,0.099187 0 1,1 0.198374,0 a0.099187,0.099187 0 1,1 -0.198374,0z" transform="matrix(1,0,0,-1,29.5306571,24.9657151)" fill="rgb(255,255,255)" stroke="rgb(0,0,0)" stroke-width="0.0010cm" stroke-linecap="round" stroke-linejoin="round" shaper:cutDepth="1.27cm" /><path d="M-10.8973441,8.0542849 a0.099187,0.099187 0 1,1 0.198374,0 a0.099187,0.099187 0 1,1 -0.198374,0z" transform="matrix(1,0,0,-1,29.5306571,24.9657151)" fill="rgb(255,255,255)" stroke="rgb(0,0,0)" stroke-width="0.0010cm" stroke-linecap="round" stroke-linejoin="round" shaper:cutDepth="1.27cm" /><path d="M6.8826559,8.0542849 a0.099187,0.099187 0 1,1 0.198374,0 a0.099187,0.099187 0 1,1 -0.198374,0z" transform="matrix(1,0,0,-1,29.5306571,24.9657151)" fill="rgb(255,255,255)" stroke="rgb(0,0,0)" stroke-width="0.0010cm" stroke-linecap="round" stroke-linejoin="round" shaper:cutDepth="1.27cm" /><path d="M24.6626559,8.0542849 a0.099187,0.099187 0 1,1 0.198374,0 a0.099187,0.099187 0 1,1 -0.198374,0z" transform="matrix(1,0,0,-1,29.5306571,24.9657151)" fill="rgb(255,255,255)" stroke="rgb(0,0,0)" stroke-width="0.0010cm" stroke-linecap="round" stroke-linejoin="round" shaper:cutDepth="1.27cm" /><path d="M-28.6773441,-2.1057151 a0.099187,0.099187 0 1,1 0.198374,0 a0.099187,0.099187 0 1,1 -0.198374,0z" transform="matrix(1,0,0,-1,29.5306571,24.9657151)" fill="rgb(255,255,255)" stroke="rgb(0,0,0)" stroke-width="0.0010cm" stroke-linecap="round" stroke-linejoin="round" shaper:cutDepth="1.27cm" /><path d="M-10.8973441,-2.1057151 a0.099187,0.099187 0 1,1 0.198374,0 a0.099187,0.099187 0 1,1 -0.198374,0z" transform="matrix(1,0,0,-1,29.5306571,24.9657151)" fill="rgb(255,255,255)" stroke="rgb(0,0,0)" stroke-width="0.0010cm" stroke-linecap="round" stroke-linejoin="round" shaper:cutDepth="1.27cm" /><path d="M6.8826559,-2.1057151 a0.099187,0.099187 0 1,1 0.198374,0 a0.099187,0.099187 0 1,1 -0.198374,0z" transform="matrix(1,0,0,-1,29.5306571,24.9657151)" fill="rgb(255,255,255)" stroke="rgb(0,0,0)" stroke-width="0.0010cm" stroke-linecap="round" stroke-linejoin="round" shaper:cutDepth="1.27cm" /><path d="M24.6626559,-2.1057151 a0.099187,0.099187 0 1,1 0.198374,0 a0.099187,0.099187 0 1,1 -0.198374,0z" transform="matrix(1,0,0,-1,29.5306571,24.9657151)" fill="rgb(255,255,255)" stroke="rgb(0,0,0)" stroke-width="0.0010cm" stroke-linecap="round" stroke-linejoin="round" shaper:cutDepth="1.27cm" /><path d="M-28.6773441,-12.2657151 a0.099187,0.099187 0 1,1 0.198374,0 a0.099187,0.099187 0 1,1 -0.198374,0z" transform="matrix(1,0,0,-1,29.5306571,24.9657151)" fill="rgb(255,255,255)" stroke="rgb(0,0,0)" stroke-width="0.0010cm" stroke-linecap="round" stroke-linejoin="round" shaper:cutDepth="1.27cm" /><path d="M-10.8973441,-12.2657151 a0.099187,0.099187 0 1,1 0.198374,0 a0.099187,0.099187 0 1,1 -0.198374,0z" transform="matrix(1,0,0,-1,29.5306571,24.9657151)" fill="rgb(255,255,255)" stroke="rgb(0,0,0)" stroke-width="0.0010cm" stroke-linecap="round" stroke-linejoin="round" shaper:cutDepth="1.27cm" /><path d="M6.8826559,-12.2657151 a0.099187,0.099187 0 1,1 0.198374,0 a0.099187,0.099187 0 1,1 -0.198374,0z" transform="matrix(1,0,0,-1,29.5306571,24.9657151)" fill="rgb(255,255,255)" stroke="rgb(0,0,0)" stroke-width="0.0010cm" stroke-linecap="round" stroke-linejoin="round" shaper:cutDepth="1.27cm" /><path d="M24.6626559,-12.2657151 a0.099187,0.099187 0 1,1 0.198374,0 a0.099187,0.099187 0 1,1 -0.198374,0z" transform="matrix(1,0,0,-1,29.5306571,24.9657151)" fill="rgb(255,255,255)" stroke="rgb(0,0,0)" stroke-width="0.0010cm" stroke-linecap="round" stroke-linejoin="round" shaper:cutDepth="1.27cm" /><path d="M-28.6773441,-22.4257151 a0.099187,0.099187 0 1,1 0.198374,0 a0.099187,0.099187 0 1,1 -0.198374,0z" transform="matrix(1,0,0,-1,29.5306571,24.9657151)" fill="rgb(255,255,255)" stroke="rgb(0,0,0)" stroke-width="0.0010cm" stroke-linecap="round" stroke-linejoin="round" shaper:cutDepth="1.27cm" /><path d="M-10.8973441,-22.4257151 a0.099187,0.099187 0 1,1 0.198374,0 a0.099187,0.099187 0 1,1 -0.198374,0z" transform="matrix(1,0,0,-1,29.5306571,24.9657151)" fill="rgb(255,255,255)" stroke="rgb(0,0,0)" stroke-width="0.0010cm" stroke-linecap="round" stroke-linejoin="round" shaper:cutDepth="1.27cm" /><path d="M6.8826559,-22.4257151 a0.099187,0.099187 0 1,1 0.198374,0 a0.099187,0.099187 0 1,1 -0.198374,0z" transform="matrix(1,0,0,-1,29.5306571,24.9657151)" fill="rgb(255,255,255)" stroke="rgb(0,0,0)" stroke-width="0.0010cm" stroke-linecap="round" stroke-linejoin="round" shaper:cutDepth="1.27cm" /><path d="M24.6626559,-22.4257151 a0.099187,0.099187 0 1,1 0.198374,0 a0.099187,0.099187 0 1,1 -0.198374,0z" transform="matrix(1,0,0,-1,29.5306571,24.9657151)" fill="rgb(255,255,255)" stroke="rgb(0,0,0)" stroke-width="0.0010cm" stroke-linecap="round" stroke-linejoin="round" shaper:cutDepth="1.27cm" /></svg>