<?xml version="1.0" encoding="utf-8"?>
<!-- Generator: Fusion 360, Shaper Origin Export Add-In, Version 1.6.10  -->
<svg xmlns="http://www.w3.org/2000/svg" xmlns:xlink="http://www.w3.org/1999/xlink" xmlns:shaper="http://www.shapertools.com/namespaces/shaper" shaper:fusionaddin="version:1.6.10" width="55.9776413cm" height="14.0229539cm" version="1.1" x="0cm" y="0cm" viewBox="0 0 55.9776413 14.0229539" enable-background="new 0 0 55.9776413 14.0229539" xml:space="preserve"><path d="M27.9888207,-7.0814367 L27.9888207,0.26817 27.9888207,0.26817 27.6213367,0.4118821 27.2532483,0.5540404 26.8845352,0.6946447 26.5151766,0.8336946 26.1451523,0.9711897 25.7744416,1.1071298 25.4030241,1.2415144 25.0308793,1.3743432 24.6579866,1.5056159 24.2843256,1.635332 23.9098757,1.7634914 23.5346166,1.8900935 23.1585276,2.0151381 22.7815883,2.1386248 22.4037781,2.2605533 22.0250767,2.3809232 21.6454634,2.4997342 21.2649178,2.6169859 20.8834194,2.7326779 20.5009477,2.84681 20.1174821,2.9593818 19.7330023,3.0703929 19.3474876,3.1798429 18.9609176,3.2877316 18.5732718,3.3940586 18.1845297,3.4988235 17.7946708,3.602026 17.4036746,3.7036657 17.0115205,3.8037423 16.6181882,3.9022555 16.2236571,3.9992048 15.8279066,4.09459 15.4309164,4.1884107 15.0326658,4.2806665 14.6331345,4.3713571 14.2323019,4.4604822 13.8301474,4.5480413 13.4266507,4.6340342 13.0217912,4.7184605 12.6155484,4.8013199 12.2079018,4.8826119 11.7988309,4.9623363 11.3883152,5.0404928 10.9763343,5.1170808 10.5628675,5.1921002 10.1478945,5.2655506 9.7313947,5.3374316 9.3133476,5.4077428 8.8937327,5.4764839 8.4725295,5.5436546 8.0497176,5.6092546 7.6252764,5.6732834 7.1991854,5.7357407 6.7714241,5.7966262 6.3419721,5.8559395 5.9108088,5.9136803 5.4779137,5.9698482 5.0432663,6.0244429 4.6068462,6.077464 4.1686328,6.1289112 3.9488472,6.1540445 3.7286057,6.1787842 3.5079055,6.2031302 3.2867442,6.2270825 3.0651193,6.2506411 2.8430281,6.2738059 2.620468,6.2965768 2.3974366,6.3189539 2.1739313,6.3409371 1.9499494,6.3625263 1.7254885,6.3837215 1.5005459,6.4045227 1.2751192,6.4249298 1.0492057,6.4449427 0.8228029,6.4645615 0.5959082,6.4837861 0.3685191,6.5026163 0.140633,6.5210523 -0.0877527,6.5390939 -0.3166405,6.5567412 -0.546033,6.573994 -0.7759327,6.5908523 -1.0063423,6.6073161 -1.2372642,6.6233853 -1.4687011,6.6390599 -1.7006555,6.6543398 -1.9331299,6.6692251 -2.166127,6.6837156 -2.3996492,6.6978113 -2.6336992,6.7115122 -2.8682795,6.7248182 -3.1033927,6.7377293 -3.3390413,6.7502455 -3.5752279,6.7623666 -3.8119551,6.7740927 -4.0492254,6.7854237 -4.2870414,6.7963596 -4.5254057,6.8069002 -4.7643207,6.8170457 -5.0037891,6.8267959 -5.2438135,6.8361508 -5.4843963,6.8451103 -5.7255402,6.8536744 -5.9672478,6.8618431 -6.2095215,6.8696164 -6.452364,6.876994 -6.6957777,6.8839761 -6.9397183,6.8905606 -7.4281698,6.9024979 -7.917169,6.9128032 -8.4066434,6.9214971 -8.8965204,6.9286002 -9.3867275,6.9341332 -9.8771921,6.9381166 -10.3678416,6.9405711 -10.8586036,6.9415172 -11.3494054,6.9409756 -11.8401745,6.9389669 -12.3308383,6.9355116 -12.8213243,6.9306305 -13.31156,6.9243441 -13.8014727,6.9166729 -14.29099,6.9076377 -14.7800392,6.8972591 -15.2685478,6.8855576 -15.7564433,6.8725538 -16.243653,6.8582684 -16.7301045,6.8427219 -17.2157252,6.825935 -17.7004426,6.8079284 -18.184184,6.7887225 -18.6668769,6.768338 -19.1484488,6.7467955 -19.6288271,6.7241157 -20.1079393,6.7003191 -20.5857128,6.6754263 -21.062075,6.6494579 -21.5369534,6.6224347 -22.0102755,6.5943771 -22.4819686,6.5653057 -22.9519603,6.5352413 -23.4201779,6.5042043 -23.886549,6.4722155 -24.3510009,6.4392953 -24.8134611,6.4054645 -25.2738571,6.3707436 -25.7321163,6.3351533 -26.1881661,6.2987141 -26.4153398,6.2801826 -26.641934,6.2614466 -26.8679395,6.2425087 -27.0933474,6.2233715 -27.3181485,6.2040376 -27.5423338,6.1845094 -27.7658942,6.1647897 -27.9888207,6.1448809 -27.9888207,-7.0814367 27.9888207,-7.0814367z" transform="matrix(1,0,0,-1,27.9888207,6.9415172)" fill="rgb(0,0,0)" shaper:cutDepth="0.01905" stroke-linecap="round" stroke-linejoin="round" /><path d="M26.7905757,-1.9405686 a0.245745,0.245745 0 1,1 0.49149,0 a0.245745,0.245745 0 1,1 -0.49149,0z" transform="matrix(1,0,0,-1,27.9888207,6.9415172)" fill="rgb(255,255,255)" stroke="rgb(0,0,0)" stroke-width="0.0010cm" stroke-linecap="round" stroke-linejoin="round" shaper:cutDepth="0.01905" /><path d="M26.7905757,-5.7505788 a0.245745,0.245745 0 1,1 0.49149,0 a0.245745,0.245745 0 1,1 -0.49149,0z" transform="matrix(1,0,0,-1,27.9888207,6.9415172)" fill="rgb(255,255,255)" stroke="rgb(0,0,0)" stroke-width="0.0010cm" stroke-linecap="round" stroke-linejoin="round" shaper:cutDepth="0.01905" /><path d="M-14.0188207,-0.7314367 a3.81,3.81 0 1,1 7.62,0 a3.81,3.81 0 1,1 -7.62,0z" transform="matrix(1,0,0,-1,27.9888207,6.9415172)" fill="rgb(255,255,255)" stroke="rgb(0,0,0)" stroke-width="0.0010cm" stroke-linecap="round" stroke-linejoin="round" shaper:cutDepth="0.01905" /><path d="M1.8561793,-1.2394367 a3.175,3.175 0 1,1 6.35,0 a3.175,3.175 0 1,1 -6.35,0z" transform="matrix(1,0,0,-1,27.9888207,6.9415172)" fill="rgb(255,255,255)" stroke="rgb(0,0,0)" stroke-width="0.0010cm" stroke-linecap="round" stroke-linejoin="round" shaper:cutDepth="0.01905" /><path d="M15.1911793,-2.9539367 a2.54,2.54 0 1,1 5.08,0 a2.54,2.54 0 1,1 -5.08,0z" transform="matrix(1,0,0,-1,27.9888207,6.9415172)" fill="rgb(255,255,255)" stroke="rgb(0,0,0)" stroke-width="0.0010cm" stroke-linecap="round" stroke-linejoin="round" shaper:cutDepth="0.01905" /></svg>