<?xml version="1.0" encoding="UTF-8" standalone="no"?>
<svg
   viewBox="0 0 3504.1398 217.00001"
   width="3504.1399"
   height="217"
   version="1.1"
   id="svg8"
   sodipodi:docname="MDF_.750_OH2A1A1-19_SUBFLOOR BRACE B_-_v41.svg"
   inkscape:version="1.4.2 (f4327f4, 2025-05-13)"
   xmlns:inkscape="http://www.inkscape.org/namespaces/inkscape"
   xmlns:sodipodi="http://sodipodi.sourceforge.net/DTD/sodipodi-0.dtd"
   xmlns="http://www.w3.org/2000/svg"
   xmlns:svg="http://www.w3.org/2000/svg">
  <sodipodi:namedview
     id="namedview8"
     pagecolor="#ffffff"
     bordercolor="#000000"
     borderopacity="0.25"
     inkscape:showpageshadow="2"
     inkscape:pageopacity="0.0"
     inkscape:pagecheckerboard="0"
     inkscape:deskcolor="#d1d1d1"
     inkscape:zoom="0.45254834"
     inkscape:cx="1856.1553"
     inkscape:cy="-144.73592"
     inkscape:window-width="2304"
     inkscape:window-height="1447"
     inkscape:window-x="-9"
     inkscape:window-y="-9"
     inkscape:window-maximized="1"
     inkscape:current-layer="g8" />
  <desc
     id="desc1">MDF_.750_OH2A1A1-19_SUBFLOOR BRACE B_-_v40.dxf - scale = 25.400000, origin = (0.000000, 0.000000), method = file</desc>
  <defs
     id="defs4">
    <marker
       id="DistanceX"
       orient="auto"
       refX="0"
       refY="0"
       style="overflow:visible">
      <path
         d="M 3,-3 -3,3 M 0,-5 V 5"
         style="stroke:#000000;stroke-width:0.5"
         id="path1" />
    </marker>
    <pattern
       id="Hatch"
       patternUnits="userSpaceOnUse"
       width="8"
       height="8"
       x="0"
       y="0">
      <path
         d="M8 4 l-4,4"
         stroke="#000000"
         stroke-width="0.25"
         linecap="square"
         id="path2" />
      <path
         d="M6 2 l-4,4"
         stroke="#000000"
         stroke-width="0.25"
         linecap="square"
         id="path3" />
      <path
         d="M4 0 l-4,4"
         stroke="#000000"
         stroke-width="0.25"
         linecap="square"
         id="path4" />
    </pattern>
    <symbol
       id="*MODEL_SPACE" />
    <symbol
       id="*PAPER_SPACE" />
  </defs>
  <g
     inkscape:groupmode="layer"
     inkscape:label="0"
     id="g8"
     style="display:inline"
     transform="translate(1364.5699,-482.36971)">
    <path
       d="m -697.3,607.04551 a 48,48 0 0 0 -96,0 48,48 0 0 0 96,0 z"
       style="fill:none;stroke:#000000"
       id="path5" />
    <path
       d="m 1568.3,607.04551 a 48,48 0 0 0 -96,0 48,48 0 0 0 96,0 z"
       style="fill:none;stroke:#000000"
       id="path6" />
    <path
       d="m -1364.0699,698.86971 h 3503.1398 v -216 h -3503.1398 z"
       style="fill:none;stroke:#000000"
       id="path7" />
    <path
       d="m 205.39562,607.04551 a 48,48 0 0 0 -96,0 48,48 0 0 0 96,0 z"
       style="fill:none;stroke:#000000"
       id="path8" />
  </g>
</svg>
