<?xml version="1.0" encoding="utf-8"?>
<!-- Generator: Fusion 360, Shaper Origin Export Add-In, Version 1.6.10  -->
<svg xmlns="http://www.w3.org/2000/svg" xmlns:xlink="http://www.w3.org/1999/xlink" xmlns:shaper="http://www.shapertools.com/namespaces/shaper" shaper:fusionaddin="version:1.6.10" width="53.34cm" height="30.48cm" version="1.1" x="0cm" y="0cm" viewBox="0 0 53.34 30.48" enable-background="new 0 0 53.34 30.48" xml:space="preserve"><path d="M26.67,15.24 L-26.67,15.24 -26.67,-15.24 26.67,-15.24 26.67,15.24z" transform="matrix(1,0,0,-1,26.67,15.24)" fill="rgb(0,0,0)" shaper:cutDepth="0.01905" stroke-linecap="round" stroke-linejoin="round" /><path d="M16.728313,-11.43 a0.099187,0.099187 0 1,1 0.198374,0 a0.099187,0.099187 0 1,1 -0.198374,0z" transform="matrix(1,0,0,-1,26.67,15.24)" fill="rgb(255,255,255)" stroke="rgb(0,0,0)" stroke-width="0.0010cm" stroke-linecap="round" stroke-linejoin="round" shaper:cutDepth="0.01905" /><path d="M16.728313,11.43 a0.099187,0.099187 0 1,1 0.198374,0 a0.099187,0.099187 0 1,1 -0.198374,0z" transform="matrix(1,0,0,-1,26.67,15.24)" fill="rgb(255,255,255)" stroke="rgb(0,0,0)" stroke-width="0.0010cm" stroke-linecap="round" stroke-linejoin="round" shaper:cutDepth="0.01905" /><path d="M-1.051687,-11.43 a0.099187,0.099187 0 1,1 0.198374,0 a0.099187,0.099187 0 1,1 -0.198374,0z" transform="matrix(1,0,0,-1,26.67,15.24)" fill="rgb(255,255,255)" stroke="rgb(0,0,0)" stroke-width="0.0010cm" stroke-linecap="round" stroke-linejoin="round" shaper:cutDepth="0.01905" /><path d="M-1.051687,11.43 a0.099187,0.099187 0 1,1 0.198374,0 a0.099187,0.099187 0 1,1 -0.198374,0z" transform="matrix(1,0,0,-1,26.67,15.24)" fill="rgb(255,255,255)" stroke="rgb(0,0,0)" stroke-width="0.0010cm" stroke-linecap="round" stroke-linejoin="round" shaper:cutDepth="0.01905" /><path d="M-18.831687,11.43 a0.099187,0.099187 0 1,1 0.198374,0 a0.099187,0.099187 0 1,1 -0.198374,0z" transform="matrix(1,0,0,-1,26.67,15.24)" fill="rgb(255,255,255)" stroke="rgb(0,0,0)" stroke-width="0.0010cm" stroke-linecap="round" stroke-linejoin="round" shaper:cutDepth="0.01905" /><path d="M-18.831687,-11.43 a0.099187,0.099187 0 1,1 0.198374,0 a0.099187,0.099187 0 1,1 -0.198374,0z" transform="matrix(1,0,0,-1,26.67,15.24)" fill="rgb(255,255,255)" stroke="rgb(0,0,0)" stroke-width="0.0010cm" stroke-linecap="round" stroke-linejoin="round" shaper:cutDepth="0.01905" /><path d="M-25.0626626,13.335 a0.2976626,0.2976626 0 1,1 0.5953252,0 a0.2976626,0.2976626 0 1,1 -0.5953252,0z" transform="matrix(1,0,0,-1,26.67,15.24)" fill="rgb(255,255,255)" stroke="rgb(0,0,0)" stroke-width="0.0010cm" stroke-linecap="round" stroke-linejoin="round" shaper:cutDepth="0.01905" /><path d="M-25.0626626,0.635 a0.2976626,0.2976626 0 1,1 0.5953252,0 a0.2976626,0.2976626 0 1,1 -0.5953252,0z" transform="matrix(1,0,0,-1,26.67,15.24)" fill="rgb(255,255,255)" stroke="rgb(0,0,0)" stroke-width="0.0010cm" stroke-linecap="round" stroke-linejoin="round" shaper:cutDepth="0.01905" /><path d="M-25.0626626,-12.065 a0.2976626,0.2976626 0 1,1 0.5953252,0 a0.2976626,0.2976626 0 1,1 -0.5953252,0z" transform="matrix(1,0,0,-1,26.67,15.24)" fill="rgb(255,255,255)" stroke="rgb(0,0,0)" stroke-width="0.0010cm" stroke-linecap="round" stroke-linejoin="round" shaper:cutDepth="0.01905" /></svg>