<?xml version="1.0" encoding="utf-8"?>
<!-- Generator: Fusion 360, Shaper Origin Export Add-In, Version 1.6.10  -->
<svg xmlns="http://www.w3.org/2000/svg" xmlns:xlink="http://www.w3.org/1999/xlink" xmlns:shaper="http://www.shapertools.com/namespaces/shaper" shaper:fusionaddin="version:1.6.10" width="62.484cm" height="56.9521521cm" version="1.1" x="0cm" y="0cm" viewBox="0 0 62.484 56.9521521" enable-background="new 0 0 62.484 56.9521521" xml:space="preserve"><path d="M9.906,-26.0336741 A0.3175,0.3175 180 0,0 10.2235,-25.7161741 L31.242,-25.7161741 31.242,28.695978 -31.242,28.695978 -31.242,-25.7161741 -10.2235,-25.7161741 A0.3175,0.3175 90 0,0 -9.906,-26.0336741 L-9.906,-28.2561741 3.556,-28.2561741 3.556,-27.9468116 A0.3175,0.3175 180 0,0 3.8735,-27.6293116 L9.906,-27.6293116 9.906,-26.0336741z" transform="matrix(1,0,0,-1,31.242,28.695978)" fill="rgb(0,0,0)" shaper:cutDepth="0.01905" stroke-linecap="round" stroke-linejoin="round" /><path d="M-14.97838,-13.0188259 a0.24638,0.24638 0 1,1 0.49276,0 a0.24638,0.24638 0 1,1 -0.49276,0z" transform="matrix(1,0,0,-1,31.242,28.695978)" fill="rgb(255,255,255)" stroke="rgb(0,0,0)" stroke-width="0.0010cm" stroke-linecap="round" stroke-linejoin="round" shaper:cutDepth="0.01905" /><path d="M-22.59838,-13.0188259 a0.24638,0.24638 0 1,1 0.49276,0 a0.24638,0.24638 0 1,1 -0.49276,0z" transform="matrix(1,0,0,-1,31.242,28.695978)" fill="rgb(255,255,255)" stroke="rgb(0,0,0)" stroke-width="0.0010cm" stroke-linecap="round" stroke-linejoin="round" shaper:cutDepth="0.01905" /><path d="M-22.59838,-18.0988259 a0.24638,0.24638 0 1,1 0.49276,0 a0.24638,0.24638 0 1,1 -0.49276,0z" transform="matrix(1,0,0,-1,31.242,28.695978)" fill="rgb(255,255,255)" stroke="rgb(0,0,0)" stroke-width="0.0010cm" stroke-linecap="round" stroke-linejoin="round" shaper:cutDepth="0.01905" /><path d="M-14.97838,-18.0988259 a0.24638,0.24638 0 1,1 0.49276,0 a0.24638,0.24638 0 1,1 -0.49276,0z" transform="matrix(1,0,0,-1,31.242,28.695978)" fill="rgb(255,255,255)" stroke="rgb(0,0,0)" stroke-width="0.0010cm" stroke-linecap="round" stroke-linejoin="round" shaper:cutDepth="0.01905" /><path d="M-7.294245,-20.6443116 a0.245745,0.245745 0 1,1 0.49149,0 a0.245745,0.245745 0 1,1 -0.49149,0z" transform="matrix(1,0,0,-1,31.242,28.695978)" fill="rgb(255,255,255)" stroke="rgb(0,0,0)" stroke-width="0.0010cm" stroke-linecap="round" stroke-linejoin="round" shaper:cutDepth="0.01905" /><path d="M-7.294245,-25.7243116 a0.245745,0.245745 0 1,1 0.49149,0 a0.245745,0.245745 0 1,1 -0.49149,0z" transform="matrix(1,0,0,-1,31.242,28.695978)" fill="rgb(255,255,255)" stroke="rgb(0,0,0)" stroke-width="0.0010cm" stroke-linecap="round" stroke-linejoin="round" shaper:cutDepth="0.01905" /><path d="M-4.05638,-18.0988259 a0.24638,0.24638 0 1,1 0.49276,0 a0.24638,0.24638 0 1,1 -0.49276,0z" transform="matrix(1,0,0,-1,31.242,28.695978)" fill="rgb(255,255,255)" stroke="rgb(0,0,0)" stroke-width="0.0010cm" stroke-linecap="round" stroke-linejoin="round" shaper:cutDepth="0.01905" /><path d="M-4.05638,-10.4788259 a0.24638,0.24638 0 1,1 0.49276,0 a0.24638,0.24638 0 1,1 -0.49276,0z" transform="matrix(1,0,0,-1,31.242,28.695978)" fill="rgb(255,255,255)" stroke="rgb(0,0,0)" stroke-width="0.0010cm" stroke-linecap="round" stroke-linejoin="round" shaper:cutDepth="0.01905" /><path d="M3.56362,-10.4788259 a0.24638,0.24638 0 1,1 0.49276,0 a0.24638,0.24638 0 1,1 -0.49276,0z" transform="matrix(1,0,0,-1,31.242,28.695978)" fill="rgb(255,255,255)" stroke="rgb(0,0,0)" stroke-width="0.0010cm" stroke-linecap="round" stroke-linejoin="round" shaper:cutDepth="0.01905" /><path d="M22.10562,-10.4788259 a0.24638,0.24638 0 1,1 0.49276,0 a0.24638,0.24638 0 1,1 -0.49276,0z" transform="matrix(1,0,0,-1,31.242,28.695978)" fill="rgb(255,255,255)" stroke="rgb(0,0,0)" stroke-width="0.0010cm" stroke-linecap="round" stroke-linejoin="round" shaper:cutDepth="0.01905" /><path d="M14.48562,-10.4788259 a0.24638,0.24638 0 1,1 0.49276,0 a0.24638,0.24638 0 1,1 -0.49276,0z" transform="matrix(1,0,0,-1,31.242,28.695978)" fill="rgb(255,255,255)" stroke="rgb(0,0,0)" stroke-width="0.0010cm" stroke-linecap="round" stroke-linejoin="round" shaper:cutDepth="0.01905" /><path d="M22.10562,-18.0988259 a0.24638,0.24638 0 1,1 0.49276,0 a0.24638,0.24638 0 1,1 -0.49276,0z" transform="matrix(1,0,0,-1,31.242,28.695978)" fill="rgb(255,255,255)" stroke="rgb(0,0,0)" stroke-width="0.0010cm" stroke-linecap="round" stroke-linejoin="round" shaper:cutDepth="0.01905" /><path d="M14.48562,-18.0988259 a0.24638,0.24638 0 1,1 0.49276,0 a0.24638,0.24638 0 1,1 -0.49276,0z" transform="matrix(1,0,0,-1,31.242,28.695978)" fill="rgb(255,255,255)" stroke="rgb(0,0,0)" stroke-width="0.0010cm" stroke-linecap="round" stroke-linejoin="round" shaper:cutDepth="0.01905" /><path d="M6.802755,-25.7243116 a0.245745,0.245745 0 1,1 0.49149,0 a0.245745,0.245745 0 1,1 -0.49149,0z" transform="matrix(1,0,0,-1,31.242,28.695978)" fill="rgb(255,255,255)" stroke="rgb(0,0,0)" stroke-width="0.0010cm" stroke-linecap="round" stroke-linejoin="round" shaper:cutDepth="0.01905" /><path d="M3.56362,-18.0988259 a0.24638,0.24638 0 1,1 0.49276,0 a0.24638,0.24638 0 1,1 -0.49276,0z" transform="matrix(1,0,0,-1,31.242,28.695978)" fill="rgb(255,255,255)" stroke="rgb(0,0,0)" stroke-width="0.0010cm" stroke-linecap="round" stroke-linejoin="round" shaper:cutDepth="0.01905" /><path d="M6.802755,-20.6443116 a0.245745,0.245745 0 1,1 0.49149,0 a0.245745,0.245745 0 1,1 -0.49149,0z" transform="matrix(1,0,0,-1,31.242,28.695978)" fill="rgb(255,255,255)" stroke="rgb(0,0,0)" stroke-width="0.0010cm" stroke-linecap="round" stroke-linejoin="round" shaper:cutDepth="0.01905" /><path d="M-24.05126,-8.9826541 a0.43688,0.43688 0 1,1 0.87376,0 a0.43688,0.43688 0 1,1 -0.87376,0z" transform="matrix(1,0,0,-1,31.242,28.695978)" fill="rgb(255,255,255)" stroke="rgb(0,0,0)" stroke-width="0.0010cm" stroke-linecap="round" stroke-linejoin="round" shaper:cutDepth="0.01905" /><path d="M23.43404,-8.9826541 a0.43688,0.43688 0 1,1 0.87376,0 a0.43688,0.43688 0 1,1 -0.87376,0z" transform="matrix(1,0,0,-1,31.242,28.695978)" fill="rgb(255,255,255)" stroke="rgb(0,0,0)" stroke-width="0.0010cm" stroke-linecap="round" stroke-linejoin="round" shaper:cutDepth="0.01905" /><path d="M-15.6300256,-18.0988259 A0.3175,0.3175 270 0,1 -15.3306837,-17.8871592 A0.635,0.635 160.5287794 0,0 -14.9436667,-17.5001422 A0.3175,0.3175 289.4712206 0,1 -14.732,-17.2008003 L-14.732,-13.9168515 A0.3175,0.3175 0 0,1 -14.9436667,-13.6175097 A0.635,0.635 250.5287794 0,0 -15.3306837,-13.2304926 A0.3175,0.3175 19.4712206 0,1 -15.6300256,-13.0188259 L-21.4539744,-13.0188259 A0.3175,0.3175 90 0,1 -21.7533163,-13.2304926 A0.635,0.635 340.5287794 0,0 -22.1403333,-13.6175097 A0.3175,0.3175 109.4712206 0,1 -22.352,-13.9168515 L-22.352,-17.2008003 A0.3175,0.3175 180 0,1 -22.1403333,-17.5001422 A0.635,0.635 70.5287794 0,0 -21.7533163,-17.8871592 A0.3175,0.3175 199.4712206 0,1 -21.4539744,-18.0988259 L-15.6300256,-18.0988259z" transform="matrix(1,0,0,-1,31.242,28.695978)" fill="rgb(255,255,255)" stroke="rgb(0,0,0)" stroke-width="0.0010cm" stroke-linecap="round" stroke-linejoin="round" shaper:cutDepth="0.01905" /><path d="M22.352,-11.3768515 A0.3175,0.3175 0 0,1 22.1403333,-11.0775097 A0.635,0.635 250.5287794 0,0 21.7533163,-10.6904926 A0.3175,0.3175 19.4712206 0,1 21.4539744,-10.4788259 L15.6300256,-10.4788259 A0.3175,0.3175 90 0,1 15.3306837,-10.6904926 A0.635,0.635 340.5287794 0,0 14.9436667,-11.0775097 A0.3175,0.3175 109.4712206 0,1 14.732,-11.3768515 L14.732,-17.2008003 A0.3175,0.3175 180 0,1 14.9436667,-17.5001422 A0.635,0.635 70.5287794 0,0 15.3306837,-17.8871592 A0.3175,0.3175 199.4712206 0,1 15.6300256,-18.0988259 L21.4539744,-18.0988259 A0.3175,0.3175 270 0,1 21.7533163,-17.8871592 A0.635,0.635 160.5287794 0,0 22.1403333,-17.5001422 A0.3175,0.3175 289.4712206 0,1 22.352,-17.2008003 L22.352,-11.3768515z" transform="matrix(1,0,0,-1,31.242,28.695978)" fill="rgb(255,255,255)" stroke="rgb(0,0,0)" stroke-width="0.0010cm" stroke-linecap="round" stroke-linejoin="round" shaper:cutDepth="0.01905" /><path d="M-9.8173306,16.7344185 a0.215265,0.215265 0 1,1 0.43053,0 a0.215265,0.215265 0 1,1 -0.43053,0z" transform="matrix(1,0,0,-1,31.242,28.695978)" fill="rgb(255,255,255)" stroke="rgb(0,0,0)" stroke-width="0.0010cm" stroke-linecap="round" stroke-linejoin="round" shaper:cutDepth="0.01905" /><path d="M9.3868006,16.7344185 a0.215265,0.215265 0 1,1 0.43053,0 a0.215265,0.215265 0 1,1 -0.43053,0z" transform="matrix(1,0,0,-1,31.242,28.695978)" fill="rgb(255,255,255)" stroke="rgb(0,0,0)" stroke-width="0.0010cm" stroke-linecap="round" stroke-linejoin="round" shaper:cutDepth="0.01905" /><path d="M9.3868006,4.2837149 a0.215265,0.215265 0 1,1 0.43053,0 a0.215265,0.215265 0 1,1 -0.43053,0z" transform="matrix(1,0,0,-1,31.242,28.695978)" fill="rgb(255,255,255)" stroke="rgb(0,0,0)" stroke-width="0.0010cm" stroke-linecap="round" stroke-linejoin="round" shaper:cutDepth="0.01905" /><path d="M-9.8173306,4.2837149 a0.215265,0.215265 0 1,1 0.43053,0 a0.215265,0.215265 0 1,1 -0.43053,0z" transform="matrix(1,0,0,-1,31.242,28.695978)" fill="rgb(255,255,255)" stroke="rgb(0,0,0)" stroke-width="0.0010cm" stroke-linecap="round" stroke-linejoin="round" shaper:cutDepth="0.01905" /><path d="M-3.81,-11.3768515 A0.3175,0.3175 180 0,0 -3.5983333,-11.0775097 A0.635,0.635 289.4712206 0,1 -3.2113163,-10.6904926 A0.3175,0.3175 160.5287794 0,0 -2.9119744,-10.4788259 L2.9119744,-10.4788259 A0.3175,0.3175 90 0,0 3.2113163,-10.6904926 A0.635,0.635 199.4712206 0,1 3.5983333,-11.0775097 A0.3175,0.3175 70.5287794 0,0 3.81,-11.3768515 L3.81,-17.2008003 A0.3175,0.3175 0 0,0 3.5983333,-17.5001422 A0.635,0.635 109.4712206 0,1 3.2113163,-17.8871592 A0.3175,0.3175 340.5287794 0,0 2.9119744,-18.0988259 L-2.9119744,-18.0988259 A0.3175,0.3175 270 0,0 -3.2113163,-17.8871592 A0.635,0.635 19.4712206 0,1 -3.5983333,-17.5001422 A0.3175,0.3175 250.5287794 0,0 -3.81,-17.2008003 L-3.81,-11.3768515z" transform="matrix(1,0,0,-1,31.242,28.695978)" fill="rgb(255,255,255)" stroke="rgb(0,0,0)" stroke-width="0.0010cm" stroke-linecap="round" stroke-linejoin="round" shaper:cutDepth="0.01905" /><path d="M-10.9974126,-24.4461741 a0.2976626,0.2976626 0 1,1 0.5953252,0 a0.2976626,0.2976626 0 1,1 -0.5953252,0z" transform="matrix(1,0,0,-1,31.242,28.695978)" fill="rgb(255,255,255)" stroke="rgb(0,0,0)" stroke-width="0.0010cm" stroke-linecap="round" stroke-linejoin="round" shaper:cutDepth="0.01905" /><path d="M-21.2126626,-24.4461741 a0.2976626,0.2976626 0 1,1 0.5953252,0 a0.2976626,0.2976626 0 1,1 -0.5953252,0z" transform="matrix(1,0,0,-1,31.242,28.695978)" fill="rgb(255,255,255)" stroke="rgb(0,0,0)" stroke-width="0.0010cm" stroke-linecap="round" stroke-linejoin="round" shaper:cutDepth="0.01905" /><path d="M-26.9276626,-24.4461741 a0.2976626,0.2976626 0 1,1 0.5953252,0 a0.2976626,0.2976626 0 1,1 -0.5953252,0z" transform="matrix(1,0,0,-1,31.242,28.695978)" fill="rgb(255,255,255)" stroke="rgb(0,0,0)" stroke-width="0.0010cm" stroke-linecap="round" stroke-linejoin="round" shaper:cutDepth="0.01905" /><path d="M19.4945,-21.2738259 a1.905,1.905 0 1,1 3.81,0 a1.905,1.905 0 1,1 -3.81,0z" transform="matrix(1,0,0,-1,31.242,28.695978)" fill="rgb(255,255,255)" stroke="rgb(0,0,0)" stroke-width="0.0010cm" stroke-linecap="round" stroke-linejoin="round" shaper:cutDepth="0.01905" /><path d="M13.7795,-21.2738259 a1.905,1.905 0 1,1 3.81,0 a1.905,1.905 0 1,1 -3.81,0z" transform="matrix(1,0,0,-1,31.242,28.695978)" fill="rgb(255,255,255)" stroke="rgb(0,0,0)" stroke-width="0.0010cm" stroke-linecap="round" stroke-linejoin="round" shaper:cutDepth="0.01905" /><path d="M-17.5895,-21.2738259 a1.905,1.905 0 1,1 3.81,0 a1.905,1.905 0 1,1 -3.81,0z" transform="matrix(1,0,0,-1,31.242,28.695978)" fill="rgb(255,255,255)" stroke="rgb(0,0,0)" stroke-width="0.0010cm" stroke-linecap="round" stroke-linejoin="round" shaper:cutDepth="0.01905" /><path d="M-23.3045,-21.2738259 a1.905,1.905 0 1,1 3.81,0 a1.905,1.905 0 1,1 -3.81,0z" transform="matrix(1,0,0,-1,31.242,28.695978)" fill="rgb(255,255,255)" stroke="rgb(0,0,0)" stroke-width="0.0010cm" stroke-linecap="round" stroke-linejoin="round" shaper:cutDepth="0.01905" /><path d="M30.190313,-19.7357001 a0.099187,0.099187 0 1,1 0.198374,0 a0.099187,0.099187 0 1,1 -0.198374,0z" transform="matrix(1,0,0,-1,31.242,28.695978)" fill="rgb(255,255,255)" stroke="rgb(0,0,0)" stroke-width="0.0010cm" stroke-linecap="round" stroke-linejoin="round" shaper:cutDepth="0.01905" /><path d="M30.190313,0.7210022 a0.099187,0.099187 0 1,1 0.198374,0 a0.099187,0.099187 0 1,1 -0.198374,0z" transform="matrix(1,0,0,-1,31.242,28.695978)" fill="rgb(255,255,255)" stroke="rgb(0,0,0)" stroke-width="0.0010cm" stroke-linecap="round" stroke-linejoin="round" shaper:cutDepth="0.01905" /><path d="M30.190313,19.3633935 a0.099187,0.099187 0 1,1 0.198374,0 a0.099187,0.099187 0 1,1 -0.198374,0z" transform="matrix(1,0,0,-1,31.242,28.695978)" fill="rgb(255,255,255)" stroke="rgb(0,0,0)" stroke-width="0.0010cm" stroke-linecap="round" stroke-linejoin="round" shaper:cutDepth="0.01905" /><path d="M-30.388687,19.3633935 a0.099187,0.099187 0 1,1 0.198374,0 a0.099187,0.099187 0 1,1 -0.198374,0z" transform="matrix(1,0,0,-1,31.242,28.695978)" fill="rgb(255,255,255)" stroke="rgb(0,0,0)" stroke-width="0.0010cm" stroke-linecap="round" stroke-linejoin="round" shaper:cutDepth="0.01905" /><path d="M-30.388687,0.7210022 a0.099187,0.099187 0 1,1 0.198374,0 a0.099187,0.099187 0 1,1 -0.198374,0z" transform="matrix(1,0,0,-1,31.242,28.695978)" fill="rgb(255,255,255)" stroke="rgb(0,0,0)" stroke-width="0.0010cm" stroke-linecap="round" stroke-linejoin="round" shaper:cutDepth="0.01905" /><path d="M-30.388687,-19.7357001 a0.099187,0.099187 0 1,1 0.198374,0 a0.099187,0.099187 0 1,1 -0.198374,0z" transform="matrix(1,0,0,-1,31.242,28.695978)" fill="rgb(255,255,255)" stroke="rgb(0,0,0)" stroke-width="0.0010cm" stroke-linecap="round" stroke-linejoin="round" shaper:cutDepth="0.01905" /><path d="M12.1483374,-24.4461741 a0.2976626,0.2976626 0 1,1 0.5953252,0 a0.2976626,0.2976626 0 1,1 -0.5953252,0z" transform="matrix(1,0,0,-1,31.242,28.695978)" fill="rgb(255,255,255)" stroke="rgb(0,0,0)" stroke-width="0.0010cm" stroke-linecap="round" stroke-linejoin="round" shaper:cutDepth="0.01905" /><path d="M20.2763374,-24.4461741 a0.2976626,0.2976626 0 1,1 0.5953252,0 a0.2976626,0.2976626 0 1,1 -0.5953252,0z" transform="matrix(1,0,0,-1,31.242,28.695978)" fill="rgb(255,255,255)" stroke="rgb(0,0,0)" stroke-width="0.0010cm" stroke-linecap="round" stroke-linejoin="round" shaper:cutDepth="0.01905" /><path d="M28.4043374,-24.4461741 a0.2976626,0.2976626 0 1,1 0.5953252,0 a0.2976626,0.2976626 0 1,1 -0.5953252,0z" transform="matrix(1,0,0,-1,31.242,28.695978)" fill="rgb(255,255,255)" stroke="rgb(0,0,0)" stroke-width="0.0010cm" stroke-linecap="round" stroke-linejoin="round" shaper:cutDepth="0.01905" /></svg>