<?xml version="1.0" encoding="utf-8"?>
<!-- Generator: Fusion 360, Shaper Origin Export Add-In, Version 1.6.10  -->
<svg xmlns="http://www.w3.org/2000/svg" xmlns:xlink="http://www.w3.org/1999/xlink" xmlns:shaper="http://www.shapertools.com/namespaces/shaper" shaper:fusionaddin="version:1.6.10" width="14.605cm" height="7.62cm" version="1.1" x="0cm" y="0cm" viewBox="0 0 14.605 7.62" enable-background="new 0 0 14.605 7.62" xml:space="preserve"><path d="M-7.3025,-3.81 L-7.3025,3.81 7.3025,3.81 7.3025,-3.81 -7.3025,-3.81z" transform="matrix(1,0,0,-1,7.3025,3.81)" fill="rgb(0,0,0)" shaper:cutDepth="0.003175" stroke-linecap="round" stroke-linejoin="round" /><path d="M-4.9700031,3.3571032 L-4.9359967,3.3230968 A0.15875,0.15875 225 0,1 -4.8237434,3.2766 L-4.5719999,3.2766 A0.0635,0.0635 270 0,1 -4.5084999,3.3401 L-4.5084999,3.39725 A0.15875,0.15875 180 0,0 -4.3497499,3.556 L-3.7782499,3.556 A0.15875,0.15875 90 0,0 -3.6194999,3.39725 L-3.6194999,2.44475 A0.15875,0.15875 0 0,0 -3.7782499,2.286 L-4.3433999,2.286 A0.0635,0.0635 90 0,1 -4.4068999,2.2225 L-4.4068999,2.21615 A0.15875,0.15875 0 0,0 -4.5656499,2.0574 L-4.9339499,2.0574 A0.15875,0.15875 270 0,0 -5.0926999,2.21615 L-5.0926999,2.2479 A0.0635,0.0635 0 0,1 -5.1561999,2.3114 L-5.2634273,2.3114 A0.0635,0.0635 270 0,0 -5.3269273,2.3749 L-5.3269273,2.45745 A0.15875,0.15875 0 0,1 -5.4856773,2.6162 L-5.8737498,2.6162 A0.15875,0.15875 270 0,0 -6.0324998,2.77495 L-6.0324998,3.24485 A0.15875,0.15875 180 0,0 -5.8737498,3.4036 L-5.0822563,3.4036 A0.15875,0.15875 90 0,0 -4.9700031,3.3571032z" transform="matrix(1,0,0,-1,7.3025,3.81)" fill="rgb(255,255,255)" stroke="rgb(0,0,0)" stroke-width="0.0010cm" stroke-linecap="round" stroke-linejoin="round" shaper:cutDepth="0.003175" /><path d="M-4.8196499,-1.8753438 L-5.3657498,-1.8753438 A0.15875,0.15875 90 0,1 -5.5244998,-2.0340938 L-5.5244998,-2.4729891 A0.15875,0.15875 180 0,1 -5.3657498,-2.6317391 L-4.8196499,-2.6317391 A0.15875,0.15875 270 0,1 -4.6608999,-2.4729891 L-4.6608999,-2.0340938 A0.15875,0.15875 0 0,1 -4.8196499,-1.8753438z" transform="matrix(1,0,0,-1,7.3025,3.81)" fill="rgb(255,255,255)" stroke="rgb(0,0,0)" stroke-width="0.0010cm" stroke-linecap="round" stroke-linejoin="round" shaper:cutDepth="0.003175" /><path d="M-0.676787,-1.5045674 L-1.2321184,-1.5045674 A0.0635,0.0635 90 0,1 -1.2956184,-1.5680674 L-1.2956184,-2.2386172 A0.0635,0.0635 180 0,1 -1.2321184,-2.3021172 L-0.676787,-2.3021172 A0.0635,0.0635 270 0,1 -0.613287,-2.2386172 L-0.613287,-1.5680674 A0.0635,0.0635 0 0,1 -0.676787,-1.5045674z" transform="matrix(1,0,0,-1,7.3025,3.81)" fill="rgb(255,255,255)" stroke="rgb(0,0,0)" stroke-width="0.0010cm" stroke-linecap="round" stroke-linejoin="round" shaper:cutDepth="0.003175" /><path d="M6.9569608,0.9227516 L6.3563066,0.9227516 A0.15875,0.15875 90 0,1 6.1975566,0.7640016 L6.1975566,-0.7881183 A0.15875,0.15875 180 0,1 6.3563066,-0.9468683 L6.9569608,-0.9468683 A0.15875,0.15875 270 0,1 7.1157108,-0.7881183 L7.1157108,0.7640016 A0.15875,0.15875 0 0,1 6.9569608,0.9227516z" transform="matrix(1,0,0,-1,7.3025,3.81)" fill="rgb(255,255,255)" stroke="rgb(0,0,0)" stroke-width="0.0010cm" stroke-linecap="round" stroke-linejoin="round" shaper:cutDepth="0.003175" /><path d="M2.7716363,-0.5587999 L2.8257501,-0.5587999 A0.15875,0.15875 270 0,1 2.9845001,-0.4000499 L2.9845001,-0.18415 A0.15875,0.15875 0 0,1 2.8257501,-0.0254 L2.5590501,-0.0254 A0.15875,0.15875 270 0,0 2.4003001,0.13335 L2.4003001,0.62865 A0.15875,0.15875 180 0,0 2.5590501,0.7874 L3.58775,0.7874 A0.15875,0.15875 270 0,1 3.7465,0.94615 L3.7465,1.0646834 A0.15875,0.15875 180 0,0 3.7766802,1.1578035 A0.15875,0.15875 142.1751282 0,0 3.902075,1.2192 L4.32435,1.2192 A0.15875,0.15875 90 0,0 4.4831,1.06045 L4.4831,0.81915 A0.15875,0.15875 180 0,1 4.64185,0.6604 L5.6307612,0.6604 A0.15875,0.15875 90 0,0 5.7895112,0.50165 L5.7895112,0.03175 A0.15875,0.15875 0 0,0 5.6307612,-0.127 L5.2092564,-0.127 A0.15875,0.15875 270 0,0 5.0970032,-0.0805032 L5.0629968,-0.0464968 A0.15875,0.15875 45 0,1 4.9507436,0 L4.54025,0 A0.15875,0.15875 270 0,0 4.3815,0.15875 L4.3815,0.40005 A0.15875,0.15875 0 0,1 4.22275,0.5588 L4.05765,0.5588 A0.15875,0.15875 90 0,1 3.8989,0.40005 L3.8989,-0.5841999 4.12115,-0.5841999 A0.15875,0.15875 90 0,0 4.2799,-0.7429499 L4.2799,-1.1112499 A0.15875,0.15875 0 0,0 4.12115,-1.2699999 L2.8517924,-1.2699999 A0.15875,0.15875 270 0,0 2.7337945,-1.2174481 L2.569279,-1.0346531 A0.15875,0.15875 221.9872125 0,0 2.528527,-0.928455 L2.528527,-0.7644163 A0.15875,0.15875 180 0,0 2.6101811,-0.6256438 L2.6945405,-0.5787775 A0.15875,0.15875 119.0546041 0,0 2.7716363,-0.5587999z" transform="matrix(1,0,0,-1,7.3025,3.81)" fill="rgb(255,255,255)" stroke="rgb(0,0,0)" stroke-width="0.0010cm" stroke-linecap="round" stroke-linejoin="round" shaper:cutDepth="0.003175" /><path d="M5.2734618,-1.3006154 L4.9300328,-1.3006154 A0.15875,0.15875 90 0,1 4.7712828,-1.4593654 L4.7712828,-2.0811209 A0.1016,0.1016 180 0,1 4.7797047,-2.1216229 L4.8342399,-2.2470852 A0.1016,0.1016 23.493303 0,0 4.8426618,-2.2875873 L4.8426618,-2.7962293 A0.15875,0.15875 0 0,0 4.6839118,-2.9549793 L4.4730892,-2.9549793 A0.15875,0.15875 90 0,1 4.3143392,-3.1137293 L4.3143392,-3.4980641 A0.15875,0.15875 180 0,1 4.4730892,-3.6568141 L4.8673742,-3.6568141 A0.15875,0.15875 270 0,1 5.0261242,-3.4980641 L5.0261242,-3.1071642 A0.15875,0.15875 180 0,0 5.1848742,-2.9484142 L5.3680666,-2.9484142 A0.15875,0.15875 270 0,1 5.5268166,-2.7896642 L5.5268166,-2.4998012 A0.15875,0.15875 180 0,0 5.6855666,-2.3410512 L5.9867823,-2.3410512 A0.15875,0.15875 270 0,1 6.1455323,-2.1823012 L6.1455323,-1.733502 A0.15875,0.15875 0 0,1 5.9867823,-1.574752 L5.5909618,-1.574752 A0.15875,0.15875 270 0,0 5.4322118,-1.416002 L5.4322118,-1.4593654 A0.15875,0.15875 0 0,1 5.2734618,-1.3006154z" transform="matrix(1,0,0,-1,7.3025,3.81)" fill="rgb(255,255,255)" stroke="rgb(0,0,0)" stroke-width="0.0010cm" stroke-linecap="round" stroke-linejoin="round" shaper:cutDepth="0.003175" /><path d="M0.9525001,-2.6096277 L0.9525001,-1.9049999 A0.0635,0.0635 0 0,1 0.9170394,-1.8480259 L0.7340047,-1.7579467 A0.0635,0.0635 243.7962385 0,0 0.6985441,-1.7009726 L0.6985441,-1.0819213 A0.0635,0.0635 180 0,0 0.7620441,-1.0184213 L2.0224566,-1.0184213 A0.0635,0.0635 90 0,0 2.0859566,-1.0819213 L2.0859566,-1.7432671 A0.0635,0.0635 0 0,0 2.0224566,-1.8067671 L1.7146312,-1.8067671 A0.0635,0.0635 90 0,1 1.6511312,-1.8702671 L1.6511312,-2.6096277 A0.0635,0.0635 0 0,0 1.5876312,-2.6731277 L1.0160001,-2.6731277 A0.0635,0.0635 270 0,0 0.9525001,-2.6096277z" transform="matrix(1,0,0,-1,7.3025,3.81)" fill="rgb(255,255,255)" stroke="rgb(0,0,0)" stroke-width="0.0010cm" stroke-linecap="round" stroke-linejoin="round" shaper:cutDepth="0.003175" /><path d="M-1.3842999,1.3744323 L-1.3842999,1.92405 A0.15875,0.15875 0 0,1 -1.5430499,2.0828 L-2.6733499,2.0828 A0.15875,0.15875 90 0,1 -2.8320999,1.92405 L-2.8320999,1.3744323 A0.15875,0.15875 180 0,1 -2.6733499,1.2156823 L-1.5430499,1.2156823 A0.15875,0.15875 270 0,1 -1.3842999,1.3744323z" transform="matrix(1,0,0,-1,7.3025,3.81)" fill="rgb(255,255,255)" stroke="rgb(0,0,0)" stroke-width="0.0010cm" stroke-linecap="round" stroke-linejoin="round" shaper:cutDepth="0.003175" /><path d="M-0.8054017,-2.688991 L-0.8054017,-3.3609849 A0.0635,0.0635 180 0,1 -0.7419017,-3.4244849 L0.8186372,-3.4244849 A0.0635,0.0635 270 0,1 0.8821372,-3.3609849 L0.8821372,-2.688991 A0.0635,0.0635 0 0,1 0.8186372,-2.625491 L-0.7419017,-2.625491 A0.0635,0.0635 90 0,1 -0.8054017,-2.688991z" transform="matrix(1,0,0,-1,7.3025,3.81)" fill="rgb(255,255,255)" stroke="rgb(0,0,0)" stroke-width="0.0010cm" stroke-linecap="round" stroke-linejoin="round" shaper:cutDepth="0.003175" /><path d="M-2.5082499,-1.2699999 L-2.9273499,-1.2699999 A0.15875,0.15875 90 0,1 -3.0860999,-1.4287499 L-3.0860999,-1.9240499 A0.15875,0.15875 180 0,1 -2.9273499,-2.0827999 L-2.5082499,-2.0827999 A0.15875,0.15875 270 0,1 -2.3494999,-1.9240499 L-2.3494999,-1.4287499 A0.15875,0.15875 0 0,1 -2.5082499,-1.2699999z" transform="matrix(1,0,0,-1,7.3025,3.81)" fill="rgb(255,255,255)" stroke="rgb(0,0,0)" stroke-width="0.0010cm" stroke-linecap="round" stroke-linejoin="round" shaper:cutDepth="0.003175" /><path d="M-3.2321499,3.048 L-2.8384499,3.048 A0.15875,0.15875 270 0,1 -2.6796999,3.20675 L-2.6796999,3.34645 A0.15875,0.15875 180 0,0 -2.5209499,3.5052 L-2.1526499,3.5052 A0.15875,0.15875 90 0,0 -1.9938999,3.34645 L-1.9938999,2.85115 A0.15875,0.15875 0 0,0 -2.1526499,2.6924 L-2.5463499,2.6924 A0.15875,0.15875 90 0,1 -2.7050999,2.53365 L-2.7050999,2.41935 A0.15875,0.15875 0 0,0 -2.8638499,2.2606 L-3.2321499,2.2606 A0.15875,0.15875 270 0,0 -3.3908999,2.41935 L-3.3908999,2.88925 A0.15875,0.15875 180 0,0 -3.2321499,3.048z" transform="matrix(1,0,0,-1,7.3025,3.81)" fill="rgb(255,255,255)" stroke="rgb(0,0,0)" stroke-width="0.0010cm" stroke-linecap="round" stroke-linejoin="round" shaper:cutDepth="0.003175" /><path d="M-6.4418647,1.6614021 L-6.4418647,1.3420245 A0.15875,0.15875 180 0,1 -6.2831147,1.1832745 L-5.8412053,1.1832745 A0.0635,0.0635 270 0,1 -5.79988,1.1985617 L-5.7371952,1.2522916 A0.0635,0.0635 130.6012946 0,0 -5.69587,1.2675788 L-5.117713,1.2675788 A0.15875,0.15875 270 0,1 -4.958963,1.4263288 L-4.958963,1.775422 A0.15875,0.15875 0 0,1 -5.117713,1.934172 L-5.1406365,1.934172 A0.15875,0.15875 270 0,0 -5.2369568,1.9667318 L-5.3364221,2.0426531 A0.15875,0.15875 52.6457096 0,1 -5.4327424,2.0752129 L-5.6018826,2.0752129 A0.15875,0.15875 90 0,1 -5.7398373,1.9950126 L-5.7937357,1.9003524 A0.15875,0.15875 330.3433344 0,0 -5.9316904,1.8201521 L-6.2831147,1.8201521 A0.15875,0.15875 90 0,1 -6.4418647,1.6614021z" transform="matrix(1,0,0,-1,7.3025,3.81)" fill="rgb(255,255,255)" stroke="rgb(0,0,0)" stroke-width="0.0010cm" stroke-linecap="round" stroke-linejoin="round" shaper:cutDepth="0.003175" /><path d="M-4.1782999,-3.6004499 L-4.1782999,-3.1051499 A0.15875,0.15875 0 0,1 -4.3370499,-2.9463999 L-5.3657498,-2.9463999 A0.15875,0.15875 90 0,1 -5.5244998,-3.1051499 L-5.5244998,-3.6004499 A0.15875,0.15875 180 0,1 -5.3657498,-3.7591999 L-4.3370499,-3.7591999 A0.15875,0.15875 270 0,1 -4.1782999,-3.6004499z" transform="matrix(1,0,0,-1,7.3025,3.81)" fill="rgb(255,255,255)" stroke="rgb(0,0,0)" stroke-width="0.0010cm" stroke-linecap="round" stroke-linejoin="round" shaper:cutDepth="0.003175" /><path d="M0.437348,-1.2329692 L0.437348,-0.7592804 A0.0635,0.0635 0 0,1 0.373848,-0.6957804 L-0.3726982,-0.6957804 A0.0635,0.0635 90 0,1 -0.4361982,-0.7592804 L-0.4361982,-1.2329692 A0.0635,0.0635 180 0,1 -0.3726982,-1.2964692 L0.373848,-1.2964692 A0.0635,0.0635 270 0,1 0.437348,-1.2329692z" transform="matrix(1,0,0,-1,7.3025,3.81)" fill="rgb(255,255,255)" stroke="rgb(0,0,0)" stroke-width="0.0010cm" stroke-linecap="round" stroke-linejoin="round" shaper:cutDepth="0.003175" /><path d="M4.7148076,1.4799152 L4.7148076,1.6091103 A0.15875,0.15875 0 0,1 4.5560576,1.7678603 L4.1067329,1.7678603 A0.15875,0.15875 270 0,0 3.9479838,1.9260765 L3.9470456,2.2050598 A0.15875,0.15875 180.1926884 0,0 4.1057947,2.3643436 L4.5560576,2.3643436 A0.15875,0.15875 90 0,0 4.7148076,2.2055936 L4.7148076,2.2654602 A0.15875,0.15875 180 0,1 4.8735576,2.1067102 L5.954865,2.1067102 A0.15875,0.15875 90 0,0 6.113615,1.9479602 L6.113615,1.4799152 A0.15875,0.15875 0 0,0 5.954865,1.3211652 L4.8735576,1.3211652 A0.15875,0.15875 270 0,0 4.7148076,1.4799152z" transform="matrix(1,0,0,-1,7.3025,3.81)" fill="rgb(255,255,255)" stroke="rgb(0,0,0)" stroke-width="0.0010cm" stroke-linecap="round" stroke-linejoin="round" shaper:cutDepth="0.003175" /><path d="M2.5745451,-1.9364673 L2.5745451,-2.561991 A0.0635,0.0635 180 0,1 2.6380451,-2.625491 L3.3926207,-2.625491 A0.0635,0.0635 270 0,1 3.4561207,-2.561991 L3.4561207,-1.9364673 A0.0635,0.0635 0 0,1 3.3926207,-1.8729673 L2.6380451,-1.8729673 A0.0635,0.0635 90 0,1 2.5745451,-1.9364673z" transform="matrix(1,0,0,-1,7.3025,3.81)" fill="rgb(255,255,255)" stroke="rgb(0,0,0)" stroke-width="0.0010cm" stroke-linecap="round" stroke-linejoin="round" shaper:cutDepth="0.003175" /><path d="M3.1464964,-3.6615729 L3.874768,-3.6615729 A0.0635,0.0635 270 0,1 3.938268,-3.5980729 L3.938268,-3.0148072 A0.0635,0.0635 0 0,1 3.874768,-2.9513072 L3.1464964,-2.9513072 A0.0635,0.0635 90 0,1 3.0829964,-3.0148072 L3.0829964,-3.5980729 A0.0635,0.0635 180 0,1 3.1464964,-3.6615729z" transform="matrix(1,0,0,-1,7.3025,3.81)" fill="rgb(255,255,255)" stroke="rgb(0,0,0)" stroke-width="0.0010cm" stroke-linecap="round" stroke-linejoin="round" shaper:cutDepth="0.003175" /><path d="M1.6758534,-0.0421986 L2.0637501,-0.0421986 A0.15875,0.15875 270 0,1 2.2225001,0.1165514 L2.2225001,0.62865 A0.15875,0.15875 0 0,1 2.0637501,0.7874 L1.4323657,0.7874 A0.15875,0.15875 270 0,0 1.344307,0.8140621 L1.3480931,0.811538 A0.15875,0.15875 56.3099325 0,1 1.2600344,0.8382 L0.5778501,0.8382 A0.15875,0.15875 90 0,1 0.4191001,0.67945 L0.4191001,0.4419181 A0.15875,0.15875 180 0,1 0.4598521,0.33572 L0.6004034,0.1795519 A0.15875,0.15875 221.9872125 0,1 0.7184014,0.127 L1.3861455,0.127 A0.15875,0.15875 90 0,0 1.5081007,0.0698793 L1.5538983,0.0149222 A0.15875,0.15875 219.8055711 0,1 1.6758534,-0.0421986z" transform="matrix(1,0,0,-1,7.3025,3.81)" fill="rgb(255,255,255)" stroke="rgb(0,0,0)" stroke-width="0.0010cm" stroke-linecap="round" stroke-linejoin="round" shaper:cutDepth="0.003175" /><path d="M-1.2890499,0.8636 L-3.2321499,0.8636 A0.15875,0.15875 90 0,1 -3.3908999,0.70485 L-3.3908999,-0.5524499 A0.15875,0.15875 180 0,1 -3.2321499,-0.7111999 L-1.2890499,-0.7111999 A0.15875,0.15875 270 0,1 -1.1302999,-0.5524499 L-1.1302999,0.70485 A0.15875,0.15875 0 0,1 -1.2890499,0.8636z" transform="matrix(1,0,0,-1,7.3025,3.81)" fill="rgb(255,255,255)" stroke="rgb(0,0,0)" stroke-width="0.0010cm" stroke-linecap="round" stroke-linejoin="round" shaper:cutDepth="0.003175" /><path d="M-2.7368499,-2.1843999 L-3.0394642,-2.1843999 A0.15875,0.15875 90 0,1 -3.1589357,-2.2386123 L-3.2500214,-2.3427103 A0.15875,0.15875 138.8140748 0,1 -3.2892999,-2.4472479 L-3.2892999,-2.7319019 A0.15875,0.15875 0 0,0 -3.3632785,-2.8661233 L-3.6979213,-3.0774766 A0.15875,0.15875 122.2756443 0,1 -3.7718999,-3.2116979 L-3.7718999,-3.6004499 A0.15875,0.15875 180 0,1 -3.6131499,-3.7591999 L-2.5590499,-3.7591999 A0.15875,0.15875 270 0,1 -2.4002999,-3.6004499 L-2.4002999,-3.2226146 A0.15875,0.15875 0 0,1 -2.4557368,-3.1020826 L-2.522663,-3.0447172 A0.15875,0.15875 229.3987054 0,0 -2.5780999,-2.9241852 L-2.5780999,-2.3431499 A0.15875,0.15875 0 0,1 -2.7368499,-2.1843999z" transform="matrix(1,0,0,-1,7.3025,3.81)" fill="rgb(255,255,255)" stroke="rgb(0,0,0)" stroke-width="0.0010cm" stroke-linecap="round" stroke-linejoin="round" shaper:cutDepth="0.003175" /><path d="M-4.9602206,-0.5707867 L-4.9602206,-0.28575 A0.15875,0.15875 0 0,1 -5.1189706,-0.127 L-5.6197498,-0.127 A0.15875,0.15875 270 0,0 -5.7784998,0.03175 L-5.7784998,0.3722396 A0.15875,0.15875 180 0,0 -5.7078085,0.5043276 L-5.3919912,0.7148725 A0.15875,0.15875 303.6900675 0,1 -5.3212998,0.8469605 L-5.3212998,1.00965 A0.15875,0.15875 180 0,0 -5.1625498,1.1684 L-4.5656499,1.1684 A0.15875,0.15875 90 0,0 -4.4068999,1.00965 L-4.4068999,0.79375 A0.15875,0.15875 180 0,1 -4.2481499,0.635 L-3.7782499,0.635 A0.15875,0.15875 90 0,0 -3.6194999,0.47625 L-3.6194999,0.0508992 A0.15875,0.15875 180 0,1 -3.5599202,-0.0730637 L-3.5520795,-0.0793362 A0.15875,0.15875 51.3401917 0,0 -3.4924999,-0.2032991 L-3.4924999,-0.6454435 A0.15875,0.15875 0 0,0 -3.5389967,-0.7576967 L-3.5476031,-0.7663031 A0.15875,0.15875 135 0,1 -3.5940999,-0.8785563 L-3.5940999,-1.2636499 A0.15875,0.15875 0 0,0 -3.7528499,-1.4223999 L-4.1941432,-1.4223999 A0.15875,0.15875 270 0,0 -4.299611,-1.3823012 L-4.4298176,-1.2665619 A0.15875,0.15875 228.3664607 0,0 -4.4830999,-1.1479107 L-4.4830999,-0.8882867 A0.15875,0.15875 0 0,1 -4.6418499,-0.7295367 L-4.8014706,-0.7295367 A0.15875,0.15875 270 0,0 -4.9602206,-0.5707867z" transform="matrix(1,0,0,-1,7.3025,3.81)" fill="rgb(255,255,255)" stroke="rgb(0,0,0)" stroke-width="0.0010cm" stroke-linecap="round" stroke-linejoin="round" shaper:cutDepth="0.003175" /><path d="M1.1811001,1.45415 L1.1811001,1.5141228 A0.0635,0.0635 0 0,1 1.1176001,1.5776228 L-0.7188321,1.5776228 A0.15875,0.15875 270 0,0 -0.8775821,1.7363728 L-0.8775821,2.2663115 A0.15875,0.15875 180 0,0 -0.7188321,2.4250615 L1.0223501,2.4250615 A0.15875,0.15875 90 0,0 1.1811001,2.2663115 L1.1811001,2.1926336 A0.15875,0.15875 180 0,1 1.3398501,2.0338836 L1.4795501,2.0338836 A0.15875,0.15875 90 0,0 1.6383001,1.8751336 L1.6383001,1.45415 A0.15875,0.15875 0 0,0 1.4795501,1.2954 L1.3398501,1.2954 A0.15875,0.15875 270 0,0 1.1811001,1.45415z" transform="matrix(1,0,0,-1,7.3025,3.81)" fill="rgb(255,255,255)" stroke="rgb(0,0,0)" stroke-width="0.0010cm" stroke-linecap="round" stroke-linejoin="round" shaper:cutDepth="0.003175" /><path d="M-1.9017741,-3.3682402 a0.155,0.155 0 1,1 0.31,0 a0.155,0.155 0 1,1 -0.31,0z" transform="matrix(1,0,0,-1,7.3025,3.81)" fill="rgb(255,255,255)" stroke="rgb(0,0,0)" stroke-width="0.0010cm" stroke-linecap="round" stroke-linejoin="round" shaper:cutDepth="0.003175" /><path d="M-1.9017741,-0.9682402 a0.155,0.155 0 1,1 0.31,0 a0.155,0.155 0 1,1 -0.31,0z" transform="matrix(1,0,0,-1,7.3025,3.81)" fill="rgb(255,255,255)" stroke="rgb(0,0,0)" stroke-width="0.0010cm" stroke-linecap="round" stroke-linejoin="round" shaper:cutDepth="0.003175" /><path d="M2.0982259,-0.4682402 a0.155,0.155 0 1,1 0.31,0 a0.155,0.155 0 1,1 -0.31,0z" transform="matrix(1,0,0,-1,7.3025,3.81)" fill="rgb(255,255,255)" stroke="rgb(0,0,0)" stroke-width="0.0010cm" stroke-linecap="round" stroke-linejoin="round" shaper:cutDepth="0.003175" /><path d="M2.0982259,-3.3682402 a0.155,0.155 0 1,1 0.31,0 a0.155,0.155 0 1,1 -0.31,0z" transform="matrix(1,0,0,-1,7.3025,3.81)" fill="rgb(255,255,255)" stroke="rgb(0,0,0)" stroke-width="0.0010cm" stroke-linecap="round" stroke-linejoin="round" shaper:cutDepth="0.003175" /><path d="M3.96875,-3.1599492 a0.15875,0.15875 0 1,1 0.3175,0 a0.15875,0.15875 0 1,1 -0.3175,0z" transform="matrix(1,0,0,-1,7.3025,3.81)" fill="rgb(255,255,255)" stroke="rgb(0,0,0)" stroke-width="0.0010cm" stroke-linecap="round" stroke-linejoin="round" shaper:cutDepth="0.003175" /><path d="M-4.1257931,-3.1599492 a0.15875,0.15875 0 1,1 0.3175,0 a0.15875,0.15875 0 1,1 -0.3175,0z" transform="matrix(1,0,0,-1,7.3025,3.81)" fill="rgb(255,255,255)" stroke="rgb(0,0,0)" stroke-width="0.0010cm" stroke-linecap="round" stroke-linejoin="round" shaper:cutDepth="0.003175" /><path d="M-3.18135,1.5875 a0.15875,0.15875 0 1,1 0.3175,0 a0.15875,0.15875 0 1,1 -0.3175,0z" transform="matrix(1,0,0,-1,7.3025,3.81)" fill="rgb(255,255,255)" stroke="rgb(0,0,0)" stroke-width="0.0010cm" stroke-linecap="round" stroke-linejoin="round" shaper:cutDepth="0.003175" /><path d="M4.28625,1.5875 a0.15875,0.15875 0 1,1 0.3175,0 a0.15875,0.15875 0 1,1 -0.3175,0z" transform="matrix(1,0,0,-1,7.3025,3.81)" fill="rgb(255,255,255)" stroke="rgb(0,0,0)" stroke-width="0.0010cm" stroke-linecap="round" stroke-linejoin="round" shaper:cutDepth="0.003175" /><path d="M3.01625,1.5875 a0.47625,0.47625 0 1,1 0.9525,0 a0.47625,0.47625 0 1,1 -0.9525,0z" transform="matrix(1,0,0,-1,7.3025,3.81)" fill="rgb(255,255,255)" stroke="rgb(0,0,0)" stroke-width="0.0010cm" stroke-linecap="round" stroke-linejoin="round" shaper:cutDepth="0.003175" /><path d="M-4.45135,1.5875 a0.47625,0.47625 0 1,1 0.9525,0 a0.47625,0.47625 0 1,1 -0.9525,0z" transform="matrix(1,0,0,-1,7.3025,3.81)" fill="rgb(255,255,255)" stroke="rgb(0,0,0)" stroke-width="0.0010cm" stroke-linecap="round" stroke-linejoin="round" shaper:cutDepth="0.003175" /><path d="M3.4925,-2.2225 a0.635,0.635 0 1,1 1.27,0 a0.635,0.635 0 1,1 -1.27,0z" transform="matrix(1,0,0,-1,7.3025,3.81)" fill="rgb(255,255,255)" stroke="rgb(0,0,0)" stroke-width="0.0010cm" stroke-linecap="round" stroke-linejoin="round" shaper:cutDepth="0.003175" /><path d="M-0.5715,-1.9558 a0.635,0.635 0 1,1 1.27,0 a0.635,0.635 0 1,1 -1.27,0z" transform="matrix(1,0,0,-1,7.3025,3.81)" fill="rgb(255,255,255)" stroke="rgb(0,0,0)" stroke-width="0.0010cm" stroke-linecap="round" stroke-linejoin="round" shaper:cutDepth="0.003175" /><path d="M-4.6101,-2.2225 a0.635,0.635 0 1,1 1.27,0 a0.635,0.635 0 1,1 -1.27,0z" transform="matrix(1,0,0,-1,7.3025,3.81)" fill="rgb(255,255,255)" stroke="rgb(0,0,0)" stroke-width="0.0010cm" stroke-linecap="round" stroke-linejoin="round" shaper:cutDepth="0.003175" /><path d="M6.598285,-2.38125 a0.215265,0.215265 0 1,1 0.43053,0 a0.215265,0.215265 0 1,1 -0.43053,0z" transform="matrix(1,0,0,-1,7.3025,3.81)" fill="rgb(255,255,255)" stroke="rgb(0,0,0)" stroke-width="0.0010cm" stroke-linecap="round" stroke-linejoin="round" shaper:cutDepth="0.003175" /><path d="M6.598285,2.38125 a0.215265,0.215265 0 1,1 0.43053,0 a0.215265,0.215265 0 1,1 -0.43053,0z" transform="matrix(1,0,0,-1,7.3025,3.81)" fill="rgb(255,255,255)" stroke="rgb(0,0,0)" stroke-width="0.0010cm" stroke-linecap="round" stroke-linejoin="round" shaper:cutDepth="0.003175" /><path d="M-7.028815,2.38125 a0.215265,0.215265 0 1,1 0.43053,0 a0.215265,0.215265 0 1,1 -0.43053,0z" transform="matrix(1,0,0,-1,7.3025,3.81)" fill="rgb(255,255,255)" stroke="rgb(0,0,0)" stroke-width="0.0010cm" stroke-linecap="round" stroke-linejoin="round" shaper:cutDepth="0.003175" /><path d="M-7.028815,-2.38125 a0.215265,0.215265 0 1,1 0.43053,0 a0.215265,0.215265 0 1,1 -0.43053,0z" transform="matrix(1,0,0,-1,7.3025,3.81)" fill="rgb(255,255,255)" stroke="rgb(0,0,0)" stroke-width="0.0010cm" stroke-linecap="round" stroke-linejoin="round" shaper:cutDepth="0.003175" /><path d="M-5.714365,-0.762 a0.215265,0.215265 0 1,1 0.43053,0 a0.215265,0.215265 0 1,1 -0.43053,0z" transform="matrix(1,0,0,-1,7.3025,3.81)" fill="rgb(255,255,255)" stroke="rgb(0,0,0)" stroke-width="0.0010cm" stroke-linecap="round" stroke-linejoin="round" shaper:cutDepth="0.003175" /><path d="M5.283835,-0.762 a0.215265,0.215265 0 1,1 0.43053,0 a0.215265,0.215265 0 1,1 -0.43053,0z" transform="matrix(1,0,0,-1,7.3025,3.81)" fill="rgb(255,255,255)" stroke="rgb(0,0,0)" stroke-width="0.0010cm" stroke-linecap="round" stroke-linejoin="round" shaper:cutDepth="0.003175" /></svg>