<?xml version="1.0" encoding="utf-8"?>
<!-- Generator: Fusion 360, Shaper Origin Export Add-In, Version 1.6.10  -->
<svg xmlns="http://www.w3.org/2000/svg" xmlns:xlink="http://www.w3.org/1999/xlink" xmlns:shaper="http://www.shapertools.com/namespaces/shaper" shaper:fusionaddin="version:1.6.10" width="14.44625cm" height="9.36625cm" version="1.1" x="0cm" y="0cm" viewBox="0 0 14.44625 9.36625" enable-background="new 0 0 14.44625 9.36625" xml:space="preserve"><path d="M-6.17855,3.33375 A0.635,0.635 0 0,0 -6.81355,2.69875 L-7.070725,2.69875 A0.1524,0.1524 90 0,1 -7.223125,2.54635 L-7.223125,-2.54635 A0.1524,0.1524 180 0,1 -7.070725,-2.69875 L-6.81355,-2.69875 A0.635,0.635 90 0,0 -6.17855,-3.33375 L-6.17855,-4.530725 A0.1524,0.1524 180 0,1 -6.02615,-4.683125 L6.02615,-4.683125 A0.1524,0.1524 270 0,1 6.17855,-4.530725 L6.17855,-3.33375 A0.635,0.635 180 0,0 6.81355,-2.69875 L7.070725,-2.69875 A0.1524,0.1524 270 0,1 7.223125,-2.54635 L7.223125,2.54635 A0.1524,0.1524 0 0,1 7.070725,2.69875 L6.81355,2.69875 A0.635,0.635 270 0,0 6.17855,3.33375 L6.17855,4.530725 A0.1524,0.1524 0 0,1 6.02615,4.683125 L-6.02615,4.683125 A0.1524,0.1524 90 0,1 -6.17855,4.530725 L-6.17855,3.33375z" transform="matrix(1,0,0,-1,7.223125,4.683125)" fill="rgb(0,0,0)" shaper:cutDepth="0.0047625" stroke-linecap="round" stroke-linejoin="round" /><path d="M-0.10795,2.667 a0.9525,0.9525 0 1,1 1.905,0 a0.9525,0.9525 0 1,1 -1.905,0z" transform="matrix(1,0,0,-1,7.223125,4.683125)" fill="rgb(255,255,255)" stroke="rgb(0,0,0)" stroke-width="0.0010cm" stroke-linecap="round" stroke-linejoin="round" shaper:cutDepth="0.0047625" /><path d="M3.2258,2.667 a0.9525,0.9525 0 1,1 1.905,0 a0.9525,0.9525 0 1,1 -1.905,0z" transform="matrix(1,0,0,-1,7.223125,4.683125)" fill="rgb(255,255,255)" stroke="rgb(0,0,0)" stroke-width="0.0010cm" stroke-linecap="round" stroke-linejoin="round" shaper:cutDepth="0.0047625" /><path d="M-4.953,-1.905 a0.9525,0.9525 0 1,1 1.905,0 a0.9525,0.9525 0 1,1 -1.905,0z" transform="matrix(1,0,0,-1,7.223125,4.683125)" fill="rgb(255,255,255)" stroke="rgb(0,0,0)" stroke-width="0.0010cm" stroke-linecap="round" stroke-linejoin="round" shaper:cutDepth="0.0047625" /><path d="M3.2512,-1.905 a0.9525,0.9525 0 1,1 1.905,0 a0.9525,0.9525 0 1,1 -1.905,0z" transform="matrix(1,0,0,-1,7.223125,4.683125)" fill="rgb(255,255,255)" stroke="rgb(0,0,0)" stroke-width="0.0010cm" stroke-linecap="round" stroke-linejoin="round" shaper:cutDepth="0.0047625" /><path d="M-3.65125,2.6035 a0.47625,0.47625 0 1,1 0.9525,0 a0.47625,0.47625 0 1,1 -0.9525,0z" transform="matrix(1,0,0,-1,7.223125,4.683125)" fill="rgb(255,255,255)" stroke="rgb(0,0,0)" stroke-width="0.0010cm" stroke-linecap="round" stroke-linejoin="round" shaper:cutDepth="0.0047625" /><path d="M-0.635,-2.0701 a0.635,0.635 0 1,1 1.27,0 a0.635,0.635 0 1,1 -1.27,0z" transform="matrix(1,0,0,-1,7.223125,4.683125)" fill="rgb(255,255,255)" stroke="rgb(0,0,0)" stroke-width="0.0010cm" stroke-linecap="round" stroke-linejoin="round" shaper:cutDepth="0.0047625" /><path d="M2.388235,-3.4925 a0.215265,0.215265 0 1,1 0.43053,0 a0.215265,0.215265 0 1,1 -0.43053,0z" transform="matrix(1,0,0,-1,7.223125,4.683125)" fill="rgb(255,255,255)" stroke="rgb(0,0,0)" stroke-width="0.0010cm" stroke-linecap="round" stroke-linejoin="round" shaper:cutDepth="0.0047625" /><path d="M-2.691765,-3.4925 a0.215265,0.215265 0 1,1 0.43053,0 a0.215265,0.215265 0 1,1 -0.43053,0z" transform="matrix(1,0,0,-1,7.223125,4.683125)" fill="rgb(255,255,255)" stroke="rgb(0,0,0)" stroke-width="0.0010cm" stroke-linecap="round" stroke-linejoin="round" shaper:cutDepth="0.0047625" /><path d="M-1.485265,3.81 a0.215265,0.215265 0 1,1 0.43053,0 a0.215265,0.215265 0 1,1 -0.43053,0z" transform="matrix(1,0,0,-1,7.223125,4.683125)" fill="rgb(255,255,255)" stroke="rgb(0,0,0)" stroke-width="0.0010cm" stroke-linecap="round" stroke-linejoin="round" shaper:cutDepth="0.0047625" /><path d="M2.388235,3.81 a0.215265,0.215265 0 1,1 0.43053,0 a0.215265,0.215265 0 1,1 -0.43053,0z" transform="matrix(1,0,0,-1,7.223125,4.683125)" fill="rgb(255,255,255)" stroke="rgb(0,0,0)" stroke-width="0.0010cm" stroke-linecap="round" stroke-linejoin="round" shaper:cutDepth="0.0047625" /></svg>