<?xml version="1.0" encoding="utf-8"?>
<!-- Generator: Fusion 360, Shaper Origin Export Add-In, Version 1.6.10  -->
<svg xmlns="http://www.w3.org/2000/svg" xmlns:xlink="http://www.w3.org/1999/xlink" xmlns:shaper="http://www.shapertools.com/namespaces/shaper" shaper:fusionaddin="version:1.6.10" width="14.605cm" height="9.525cm" version="1.1" x="0cm" y="0cm" viewBox="0 0 14.605 9.525" enable-background="new 0 0 14.605 9.525" xml:space="preserve"><path d="M7.3253,3.80106 L7.3253,-5.72394 -7.2797,-5.72394 -7.2797,3.80106 7.3253,3.80106z" transform="matrix(1,0,0,-1,7.2797,3.80106)" fill="rgb(0,0,0)" shaper:cutDepth="0.003175" stroke-linecap="round" stroke-linejoin="round" /><path d="M-0.98812,-3.03154 a0.12192,0.12192 0 1,1 0.24384,0 a0.12192,0.12192 0 1,1 -0.24384,0z" transform="matrix(1,0,0,-1,7.2797,3.80106)" fill="rgb(255,255,255)" stroke="rgb(0,0,0)" stroke-width="0.0010cm" stroke-linecap="round" stroke-linejoin="round" shaper:cutDepth="0.003175" /><path d="M0.78988,-3.03154 a0.12192,0.12192 0 1,1 0.24384,0 a0.12192,0.12192 0 1,1 -0.24384,0z" transform="matrix(1,0,0,-1,7.2797,3.80106)" fill="rgb(255,255,255)" stroke="rgb(0,0,0)" stroke-width="0.0010cm" stroke-linecap="round" stroke-linejoin="round" shaper:cutDepth="0.003175" /><path d="M-4.796215,-0.58044 a0.215265,0.215265 0 1,1 0.43053,0 a0.215265,0.215265 0 1,1 -0.43053,0z" transform="matrix(1,0,0,-1,7.2797,3.80106)" fill="rgb(255,255,255)" stroke="rgb(0,0,0)" stroke-width="0.0010cm" stroke-linecap="round" stroke-linejoin="round" shaper:cutDepth="0.003175" /><path d="M-1.938715,-0.58044 a0.215265,0.215265 0 1,1 0.43053,0 a0.215265,0.215265 0 1,1 -0.43053,0z" transform="matrix(1,0,0,-1,7.2797,3.80106)" fill="rgb(255,255,255)" stroke="rgb(0,0,0)" stroke-width="0.0010cm" stroke-linecap="round" stroke-linejoin="round" shaper:cutDepth="0.003175" /><path d="M4.90214,1.985 L4.90214,1.57225 A0.15875,0.15875 180 0,1 5.06089,1.4135 L5.40379,1.4135 A0.15875,0.15875 270 0,1 5.56254,1.57225 L5.56254,1.9827436 A0.15875,0.15875 0 0,1 5.5160432,2.0949968 L5.3550368,2.2560032 A0.15875,0.15875 45 0,1 5.2427836,2.3025 L5.1525444,2.3025 A0.15875,0.15875 90 0,1 5.0150628,2.223125 L4.9234085,2.064375 A0.15875,0.15875 150 0,1 4.90214,1.985z" transform="matrix(1,0,0,-1,7.2797,3.80106)" fill="rgb(255,255,255)" stroke="rgb(0,0,0)" stroke-width="0.0010cm" stroke-linecap="round" stroke-linejoin="round" shaper:cutDepth="0.003175" /><path d="M7.08908,-1.42495 L7.08908,-0.43185 A0.15875,0.15875 0 0,1 6.93033,-0.2731 L6.36645,-0.2731 A0.15875,0.15875 90 0,1 6.2077,-0.43185 L6.2077,-1.42495 A0.15875,0.15875 180 0,1 6.36645,-1.5837 L6.93033,-1.5837 A0.15875,0.15875 270 0,1 7.08908,-1.42495z" transform="matrix(1,0,0,-1,7.2797,3.80106)" fill="rgb(255,255,255)" stroke="rgb(0,0,0)" stroke-width="0.0010cm" stroke-linecap="round" stroke-linejoin="round" shaper:cutDepth="0.003175" /><path d="M2.1637,-3.24179 L1.6137,-3.24179 A0.15875,0.15875 90 0,1 1.45495,-3.40054 L1.45495,-3.82054 A0.15875,0.15875 180 0,1 1.6137,-3.97929 L2.1637,-3.97929 A0.15875,0.15875 270 0,1 2.32245,-3.82054 L2.32245,-3.40054 A0.15875,0.15875 0 0,1 2.1637,-3.24179z" transform="matrix(1,0,0,-1,7.2797,3.80106)" fill="rgb(255,255,255)" stroke="rgb(0,0,0)" stroke-width="0.0010cm" stroke-linecap="round" stroke-linejoin="round" shaper:cutDepth="0.003175" /><path d="M-1.2828,1.65095 A0.15875,0.15875 180 0,1 -1.12405,1.4922 L0.00375,1.4922 A0.15875,0.15875 270 0,1 0.1625,1.65095 L0.1625,1.96845 A0.15875,0.15875 0 0,1 0.00375,2.1272 L-0.0737,2.1272 -0.1720032,2.2255032 A0.15875,0.15875 45 0,1 -0.2842564,2.272 L-1.12405,2.272 A0.15875,0.15875 90 0,1 -1.2828,2.11325 L-1.2828,1.65095z" transform="matrix(1,0,0,-1,7.2797,3.80106)" fill="rgb(255,255,255)" stroke="rgb(0,0,0)" stroke-width="0.0010cm" stroke-linecap="round" stroke-linejoin="round" shaper:cutDepth="0.003175" /><path d="M-2.97565,0.2197 L-3.5512436,0.2197 A0.15875,0.15875 90 0,1 -3.6634968,0.1732032 L-4.0933112,-0.2566112 A0.15875,0.15875 97.3690176 0,1 -4.2317,-0.41405 L-4.2317,-0.87125 A0.15875,0.15875 180 0,1 -4.07295,-1.03 L-2.23145,-1.03 A0.15875,0.15875 270 0,1 -2.0727,-0.87125 L-2.0727,-0.4633564 A0.15875,0.15875 0 0,1 -2.1191968,-0.3511032 L-2.1659032,-0.3043968 A0.15875,0.15875 45 0,1 -2.2781564,-0.2579 L-2.578775,-0.2579 -2.8169,-0.019775 -2.8169,0.06095 A0.15875,0.15875 0 0,1 -2.97565,0.2197z" transform="matrix(1,0,0,-1,7.2797,3.80106)" fill="rgb(255,255,255)" stroke="rgb(0,0,0)" stroke-width="0.0010cm" stroke-linecap="round" stroke-linejoin="round" shaper:cutDepth="0.003175" /><path d="M1.70809,-5.03814 L1.17226,-5.03814 A0.3175,0.3175 90 0,1 0.85476,-5.35564 L0.85476,-5.44833 A0.15875,0.15875 0 0,0 0.69601,-5.60708 L-0.3884386,-5.60708 A0.15875,0.15875 270 0,0 -0.5006918,-5.5605832 L-0.6458232,-5.4154518 A0.15875,0.15875 225 0,0 -0.69232,-5.3031986 L-0.69232,-5.18927 -0.85107,-5.03052 -1.2805436,-5.03052 A0.15875,0.15875 270 0,0 -1.3927968,-4.9840232 L-1.4903032,-4.8865168 A0.15875,0.15875 225 0,0 -1.5368,-4.7742636 L-1.5368,-4.55427 A0.15875,0.15875 180 0,0 -1.37805,-4.39552 L-0.58426,-4.39552 -0.5113768,-4.3226368 A0.15875,0.15875 135 0,0 -0.3991236,-4.27614 L1.4200836,-4.27614 A0.15875,0.15875 90 0,0 1.5323368,-4.3226368 L1.61284,-4.40314 1.70809,-4.40314 A0.15875,0.15875 90 0,0 1.86684,-4.56189 L1.86684,-4.87939 A0.15875,0.15875 0 0,0 1.70809,-5.03814z" transform="matrix(1,0,0,-1,7.2797,3.80106)" fill="rgb(255,255,255)" stroke="rgb(0,0,0)" stroke-width="0.0010cm" stroke-linecap="round" stroke-linejoin="round" shaper:cutDepth="0.003175" /><path d="M-4.8464,-5.0145476 A0.15875,0.15875 180 0,1 -4.7999032,-5.1268008 L-4.6785208,-5.2481832 A0.15875,0.15875 225 0,1 -4.5662676,-5.29468 L-3.34145,-5.29468 A0.15875,0.15875 270 0,1 -3.1827,-5.13593 L-3.1827,-5.01138 -2.9485968,-4.7772768 A0.15875,0.15875 315 0,1 -2.9021,-4.6650236 L-2.9021,-4.25453 A0.15875,0.15875 0 0,1 -3.06085,-4.09578 L-3.1434,-4.09578 -3.2366032,-4.0025768 A0.15875,0.15875 45 0,1 -3.3488564,-3.95608 L-3.6006,-3.95608 -3.6006,-3.91925 A0.15875,0.15875 0 0,1 -3.75935,-3.7605 L-4.2587436,-3.7605 A0.15875,0.15875 90 0,1 -4.3709968,-3.8069968 L-4.66488,-4.10088 -5.01525,-4.10088 A0.15875,0.15875 90 0,1 -5.174,-4.25963 L-5.174,-4.4161236 A0.15875,0.15875 180 0,1 -5.1275032,-4.5283768 L-4.8464,-4.80948 -4.8464,-5.0145476z" transform="matrix(1,0,0,-1,7.2797,3.80106)" fill="rgb(255,255,255)" stroke="rgb(0,0,0)" stroke-width="0.0010cm" stroke-linecap="round" stroke-linejoin="round" shaper:cutDepth="0.003175" /><path d="M-6.0529,0.17265 A0.15875,0.15875 180 0,1 -5.89415,0.0139 L-4.82985,0.0139 A0.15875,0.15875 270 0,1 -4.6711,0.17265 L-4.6711,0.48765 A0.15875,0.15875 0 0,1 -4.82985,0.6464 L-4.9099,0.6464 -5.0056032,0.7421032 A0.15875,0.15875 45 0,1 -5.1178564,0.7886 L-5.89415,0.7886 A0.15875,0.15875 90 0,1 -6.0529,0.62985 L-6.0529,0.17265z" transform="matrix(1,0,0,-1,7.2797,3.80106)" fill="rgb(255,255,255)" stroke="rgb(0,0,0)" stroke-width="0.0010cm" stroke-linecap="round" stroke-linejoin="round" shaper:cutDepth="0.003175" /><path d="M1.5976,2.2309646 L1.5976,1.23185 A0.15875,0.15875 180 0,1 1.75635,1.0731 L2.10433,1.0731 A0.15875,0.15875 270 0,1 2.26308,1.23185 L2.26308,2.19955 A0.15875,0.15875 0 0,1 2.10433,2.3583 L2.00908,2.3583 1.65602,2.71136 1.65602,2.89045 A0.15875,0.15875 0 0,1 1.49727,3.0492 L1.40712,3.0492 1.3215168,3.1348032 A0.15875,0.15875 45 0,1 1.2092636,3.1813 L0.42285,3.1813 A0.15875,0.15875 90 0,1 0.2641,3.02255 L0.2641,2.56535 A0.15875,0.15875 180 0,1 0.42285,2.4066 L1.4219646,2.4066 1.5976,2.2309646z" transform="matrix(1,0,0,-1,7.2797,3.80106)" fill="rgb(255,255,255)" stroke="rgb(0,0,0)" stroke-width="0.0010cm" stroke-linecap="round" stroke-linejoin="round" shaper:cutDepth="0.003175" /><path d="M4.9841968,-1.3482968 A0.15875,0.15875 45 0,1 4.8719436,-1.3018 L3.19399,-1.3018 A0.15875,0.15875 90 0,1 3.03524,-1.46055 L3.03524,-1.92535 A0.15875,0.15875 180 0,1 3.19399,-2.0841 L5.15995,-2.0841 A0.15875,0.15875 270 0,1 5.3187,-1.92535 L5.3187,-1.57485 A0.15875,0.15875 0 0,1 5.15995,-1.4161 L5.052,-1.4161 4.9841968,-1.3482968z" transform="matrix(1,0,0,-1,7.2797,3.80106)" fill="rgb(255,255,255)" stroke="rgb(0,0,0)" stroke-width="0.0010cm" stroke-linecap="round" stroke-linejoin="round" shaper:cutDepth="0.003175" /><path d="M5.42919,-0.7709 L5.79749,-0.7709 A0.15875,0.15875 270 0,1 5.95624,-0.61215 L5.95624,-0.10415 A0.15875,0.15875 0 0,1 5.79749,0.0546 L5.42919,0.0546 A0.15875,0.15875 90 0,1 5.27044,-0.10415 L5.27044,-0.61215 A0.15875,0.15875 180 0,1 5.42919,-0.7709z" transform="matrix(1,0,0,-1,7.2797,3.80106)" fill="rgb(255,255,255)" stroke="rgb(0,0,0)" stroke-width="0.0010cm" stroke-linecap="round" stroke-linejoin="round" shaper:cutDepth="0.003175" /><path d="M4.6322968,3.2288032 L4.6765032,3.1845968 A0.15875,0.15875 225 0,1 4.7887564,3.1381 L4.80805,3.1381 A0.15875,0.15875 90 0,0 4.9668,2.97935 L4.9668,2.66185 A0.15875,0.15875 0 0,0 4.80805,2.5031 L3.74009,2.5031 A0.15875,0.15875 270 0,0 3.58134,2.66185 L3.58134,3.11655 A0.15875,0.15875 180 0,0 3.74009,3.2753 L4.5200436,3.2753 A0.15875,0.15875 90 0,0 4.6322968,3.2288032z" transform="matrix(1,0,0,-1,7.2797,3.80106)" fill="rgb(255,255,255)" stroke="rgb(0,0,0)" stroke-width="0.0010cm" stroke-linecap="round" stroke-linejoin="round" shaper:cutDepth="0.003175" /><path d="M4.444636,1.0147 L3.8089194,1.0147 A0.15875,0.15875 90 0,1 3.6754326,0.9418735 L3.2840232,0.3337978 A0.15875,0.15875 147.23121 0,1 3.25876,0.2478743 L3.25876,-0.02035 A0.15875,0.15875 180 0,1 3.41751,-0.1791 L4.85261,-0.1791 A0.15875,0.15875 270 0,1 5.01136,-0.02035 L5.01136,0.3956716 A0.15875,0.15875 0 0,1 4.9714101,0.5009717 L4.5634361,0.9612501 A0.15875,0.15875 41.5526131 0,1 4.444636,1.0147z" transform="matrix(1,0,0,-1,7.2797,3.80106)" fill="rgb(255,255,255)" stroke="rgb(0,0,0)" stroke-width="0.0010cm" stroke-linecap="round" stroke-linejoin="round" shaper:cutDepth="0.003175" /><path d="M5.13455,-2.1654 A0.15875,0.15875 90 0,1 4.9758,-2.32415 L4.9758,-3.46715 A0.15875,0.15875 180 0,1 5.13455,-3.6259 L5.47745,-3.6259 A0.15875,0.15875 270 0,1 5.6362,-3.46715 L5.6362,-2.46385 A0.15875,0.15875 0 0,1 5.47745,-2.3051 L5.3949,-2.3051 5.3016968,-2.2118968 A0.15875,0.15875 45 0,1 5.1894436,-2.1654 L5.13455,-2.1654z" transform="matrix(1,0,0,-1,7.2797,3.80106)" fill="rgb(255,255,255)" stroke="rgb(0,0,0)" stroke-width="0.0010cm" stroke-linecap="round" stroke-linejoin="round" shaper:cutDepth="0.003175" /><path d="M1.45495,-2.3254 L1.45495,-2.7454 A0.15875,0.15875 180 0,1 1.6137,-2.90415 L2.1637,-2.90415 A0.15875,0.15875 270 0,1 2.32245,-2.7454 L2.32245,-2.3254 A0.15875,0.15875 0 0,1 2.1637,-2.16665 L1.6137,-2.16665 A0.15875,0.15875 90 0,1 1.45495,-2.3254z" transform="matrix(1,0,0,-1,7.2797,3.80106)" fill="rgb(255,255,255)" stroke="rgb(0,0,0)" stroke-width="0.0010cm" stroke-linecap="round" stroke-linejoin="round" shaper:cutDepth="0.003175" /><path d="M-3.5644968,2.9788968 A0.15875,0.15875 225 0,1 -3.4522436,2.9324 L-3.01635,2.9324 A0.15875,0.15875 270 0,1 -2.8576,3.09115 L-2.8576,3.40865 A0.15875,0.15875 0 0,1 -3.01635,3.5674 L-3.57515,3.5674 A0.15875,0.15875 90 0,1 -3.7339,3.40865 L-3.7339,3.2140564 A0.15875,0.15875 180 0,1 -3.6874032,3.1018032 L-3.5644968,2.9788968z" transform="matrix(1,0,0,-1,7.2797,3.80106)" fill="rgb(255,255,255)" stroke="rgb(0,0,0)" stroke-width="0.0010cm" stroke-linecap="round" stroke-linejoin="round" shaper:cutDepth="0.003175" /><path d="M-2.98325,-1.4364 L-3.0734,-1.4364 -3.1590032,-1.3507968 A0.15875,0.15875 45 0,1 -3.2712564,-1.3043 L-4.86035,-1.3043 A0.15875,0.15875 90 0,1 -5.0191,-1.46305 L-5.0191,-1.91265 A0.15875,0.15875 180 0,1 -4.86035,-2.0714 L-2.98325,-2.0714 A0.15875,0.15875 270 0,1 -2.8245,-1.91265 L-2.8245,-1.59515 A0.15875,0.15875 0 0,1 -2.98325,-1.4364z" transform="matrix(1,0,0,-1,7.2797,3.80106)" fill="rgb(255,255,255)" stroke="rgb(0,0,0)" stroke-width="0.0010cm" stroke-linecap="round" stroke-linejoin="round" shaper:cutDepth="0.003175" /><path d="M3.5101128,-3.646855 L3.3219385,-3.9727825 A0.15875,0.15875 150 0,1 3.30067,-4.0521575 L3.30067,-4.3043636 A0.15875,0.15875 180 0,1 3.3471668,-4.4166168 L3.49752,-4.56697 3.49752,-4.64317 A0.15875,0.15875 180 0,1 3.65627,-4.80192 L4.85515,-4.80192 A0.15875,0.15875 270 0,1 5.0139,-4.64317 L5.0139,-4.1183764 A0.15875,0.15875 0 0,1 4.9674032,-4.0061232 L4.5752568,-3.6139768 A0.15875,0.15875 45 0,1 4.4630036,-3.56748 L3.6475944,-3.56748 A0.15875,0.15875 90 0,1 3.5101128,-3.646855z" transform="matrix(1,0,0,-1,7.2797,3.80106)" fill="rgb(255,255,255)" stroke="rgb(0,0,0)" stroke-width="0.0010cm" stroke-linecap="round" stroke-linejoin="round" shaper:cutDepth="0.003175" /><path d="M-2.99595,-2.25938 A0.15875,0.15875 90 0,1 -3.1547,-2.41813 L-3.1547,-3.64495 A0.15875,0.15875 180 0,1 -2.99595,-3.8037 L-2.60995,-3.8037 A0.15875,0.15875 270 0,1 -2.4512,-3.64495 L-2.4512,-2.55783 A0.15875,0.15875 0 0,1 -2.60995,-2.39908 L-2.6925,-2.39908 -2.7857032,-2.3058768 A0.15875,0.15875 45 0,1 -2.8979564,-2.25938 L-2.99595,-2.25938z" transform="matrix(1,0,0,-1,7.2797,3.80106)" fill="rgb(255,255,255)" stroke="rgb(0,0,0)" stroke-width="0.0010cm" stroke-linecap="round" stroke-linejoin="round" shaper:cutDepth="0.003175" /><path d="M-5.6947,1.57225 A0.15875,0.15875 180 0,1 -5.53595,1.4135 L-5.16765,1.4135 A0.15875,0.15875 270 0,1 -5.0089,1.57225 L-5.0089,1.88975 A0.15875,0.15875 0 0,1 -5.16765,2.0485 L-5.2502,2.0485 -5.3434032,2.1417032 A0.15875,0.15875 45 0,1 -5.4556564,2.1882 L-5.53595,2.1882 A0.15875,0.15875 90 0,1 -5.6947,2.02945 L-5.6947,1.57225z" transform="matrix(1,0,0,-1,7.2797,3.80106)" fill="rgb(255,255,255)" stroke="rgb(0,0,0)" stroke-width="0.0010cm" stroke-linecap="round" stroke-linejoin="round" shaper:cutDepth="0.003175" /><path d="M-1.0787832,-1.6211032 A0.15875,0.15875 135 0,1 -1.12528,-1.7333564 L-1.12528,-1.9193436 A0.15875,0.15875 180 0,1 -1.0787832,-2.0315968 L-0.9812768,-2.1291032 A0.15875,0.15875 225 0,1 -0.8690236,-2.1756 L0.3302,-2.1756 0.3319032,-2.1773032 A0.15875,0.15875 225 0,1 0.4441564,-2.2238 L0.9476436,-2.2238 A0.15875,0.15875 270 0,1 1.0598968,-2.1773032 L1.38305,-1.85415 1.9373,-1.85415 A0.15875,0.15875 270 0,1 2.09605,-1.6954 L2.09605,-1.0173 3.50133,-1.0173 A0.15875,0.15875 270 0,1 3.66008,-0.85855 L3.66008,-0.54105 A0.15875,0.15875 0 0,1 3.50133,-0.3823 L3.41878,-0.3823 3.3255768,-0.2890968 A0.15875,0.15875 45 0,1 3.2133236,-0.2426 L1.36011,-0.2426 1.20136,-0.08385 1.20136,0.80005 A0.15875,0.15875 0 0,1 1.04261,0.9588 L0.51175,0.9588 A0.15875,0.15875 90 0,1 0.353,0.80005 L0.353,0.1333 0,-0.2197 -0.3216,-0.2197 -0.3258032,-0.2154968 A0.15875,0.15875 45 0,1 -0.4380564,-0.169 L-0.6009,-0.169 -0.6941032,-0.0757968 A0.15875,0.15875 45 0,1 -0.8063564,-0.0293 L-0.87395,-0.0293 A0.15875,0.15875 90 0,1 -1.0327,-0.18805 L-1.0327,-0.8698411 A0.15875,0.15875 140.247945 0,1 -1.0694,-0.9713564 L-1.0694,-1.61172 -1.0787832,-1.6211032z" transform="matrix(1,0,0,-1,7.2797,3.80106)" fill="rgb(255,255,255)" stroke="rgb(0,0,0)" stroke-width="0.0010cm" stroke-linecap="round" stroke-linejoin="round" shaper:cutDepth="0.003175" /><path d="M3.06953,-2.44226 A0.15875,0.15875 90 0,1 2.91078,-2.60101 L2.91078,-3.05821 A0.15875,0.15875 180 0,1 3.06953,-3.21696 L3.41243,-3.21696 A0.15875,0.15875 270 0,1 3.57118,-3.05821 L3.57118,-2.74071 A0.15875,0.15875 0 0,1 3.41243,-2.58196 L3.32988,-2.58196 3.2366768,-2.4887568 A0.15875,0.15875 45 0,1 3.1244236,-2.44226 L3.06953,-2.44226z" transform="matrix(1,0,0,-1,7.2797,3.80106)" fill="rgb(255,255,255)" stroke="rgb(0,0,0)" stroke-width="0.0010cm" stroke-linecap="round" stroke-linejoin="round" shaper:cutDepth="0.003175" /><path d="M4.308415,-0.7736272 L4.39414,-0.8231205 A0.15875,0.15875 180.0254578 0,1 4.55289,-0.9818 L4.92119,-0.9818 A0.15875,0.15875 270 0,1 5.07994,-0.82305 L5.07994,-0.50555 A0.15875,0.15875 0 0,1 4.92119,-0.3468 L4.4366769,-0.3468 A0.15875,0.15875 90 0,1 4.3573019,-0.3680685 L4.308415,-0.3962934 A0.15875,0.15875 120 0,1 4.22904,-0.5337749 L4.22904,-0.6361456 A0.15875,0.15875 180 0,1 4.308415,-0.7736272z" transform="matrix(1,0,0,-1,7.2797,3.80106)" fill="rgb(255,255,255)" stroke="rgb(0,0,0)" stroke-width="0.0010cm" stroke-linecap="round" stroke-linejoin="round" shaper:cutDepth="0.003175" /><path d="M2.8383819,2.0145315 L2.764095,1.971642 A0.15875,0.15875 120 0,1 2.68472,1.8341604 L2.68472,1.7205564 A0.15875,0.15875 180 0,1 2.7312168,1.6083032 L2.8922232,1.4472968 A0.15875,0.15875 225 0,1 3.0044764,1.4008 L3.35147,1.4008 A0.15875,0.15875 270 0,1 3.51022,1.55955 L3.51022,1.87705 A0.15875,0.15875 0 0,1 3.35147,2.0358 L2.9177569,2.0358 A0.15875,0.15875 90 0,1 2.8383819,2.0145315z" transform="matrix(1,0,0,-1,7.2797,3.80106)" fill="rgb(255,255,255)" stroke="rgb(0,0,0)" stroke-width="0.0010cm" stroke-linecap="round" stroke-linejoin="round" shaper:cutDepth="0.003175" /><path d="M-0.48139,-3.03154 a0.50419,0.50419 0 1,1 1.00838,0 a0.50419,0.50419 0 1,1 -1.00838,0z" transform="matrix(1,0,0,-1,7.2797,3.80106)" fill="rgb(255,255,255)" stroke="rgb(0,0,0)" stroke-width="0.0010cm" stroke-linecap="round" stroke-linejoin="round" shaper:cutDepth="0.003175" /><path d="M2.411035,-4.45394 a0.215265,0.215265 0 1,1 0.43053,0 a0.215265,0.215265 0 1,1 -0.43053,0z" transform="matrix(1,0,0,-1,7.2797,3.80106)" fill="rgb(255,255,255)" stroke="rgb(0,0,0)" stroke-width="0.0010cm" stroke-linecap="round" stroke-linejoin="round" shaper:cutDepth="0.003175" /><path d="M-2.668965,-4.45394 a0.215265,0.215265 0 1,1 0.43053,0 a0.215265,0.215265 0 1,1 -0.43053,0z" transform="matrix(1,0,0,-1,7.2797,3.80106)" fill="rgb(255,255,255)" stroke="rgb(0,0,0)" stroke-width="0.0010cm" stroke-linecap="round" stroke-linejoin="round" shaper:cutDepth="0.003175" /><path d="M-1.462465,2.84856 a0.215265,0.215265 0 1,1 0.43053,0 a0.215265,0.215265 0 1,1 -0.43053,0z" transform="matrix(1,0,0,-1,7.2797,3.80106)" fill="rgb(255,255,255)" stroke="rgb(0,0,0)" stroke-width="0.0010cm" stroke-linecap="round" stroke-linejoin="round" shaper:cutDepth="0.003175" /><path d="M2.411035,2.84856 a0.215265,0.215265 0 1,1 0.43053,0 a0.215265,0.215265 0 1,1 -0.43053,0z" transform="matrix(1,0,0,-1,7.2797,3.80106)" fill="rgb(255,255,255)" stroke="rgb(0,0,0)" stroke-width="0.0010cm" stroke-linecap="round" stroke-linejoin="round" shaper:cutDepth="0.003175" /><path d="M6.621085,2.37231 a0.215265,0.215265 0 1,1 0.43053,0 a0.215265,0.215265 0 1,1 -0.43053,0z" transform="matrix(1,0,0,-1,7.2797,3.80106)" fill="rgb(255,255,255)" stroke="rgb(0,0,0)" stroke-width="0.0010cm" stroke-linecap="round" stroke-linejoin="round" shaper:cutDepth="0.003175" /><path d="M-7.006015,2.37231 a0.215265,0.215265 0 1,1 0.43053,0 a0.215265,0.215265 0 1,1 -0.43053,0z" transform="matrix(1,0,0,-1,7.2797,3.80106)" fill="rgb(255,255,255)" stroke="rgb(0,0,0)" stroke-width="0.0010cm" stroke-linecap="round" stroke-linejoin="round" shaper:cutDepth="0.003175" /><path d="M-7.006015,-4.29519 a0.215265,0.215265 0 1,1 0.43053,0 a0.215265,0.215265 0 1,1 -0.43053,0z" transform="matrix(1,0,0,-1,7.2797,3.80106)" fill="rgb(255,255,255)" stroke="rgb(0,0,0)" stroke-width="0.0010cm" stroke-linecap="round" stroke-linejoin="round" shaper:cutDepth="0.003175" /><path d="M6.621085,-4.29519 a0.215265,0.215265 0 1,1 0.43053,0 a0.215265,0.215265 0 1,1 -0.43053,0z" transform="matrix(1,0,0,-1,7.2797,3.80106)" fill="rgb(255,255,255)" stroke="rgb(0,0,0)" stroke-width="0.0010cm" stroke-linecap="round" stroke-linejoin="round" shaper:cutDepth="0.003175" /><path d="M3.5915,-2.86644 a0.635,0.635 0 1,1 1.27,0 a0.635,0.635 0 1,1 -1.27,0z" transform="matrix(1,0,0,-1,7.2797,3.80106)" fill="rgb(255,255,255)" stroke="rgb(0,0,0)" stroke-width="0.0010cm" stroke-linecap="round" stroke-linejoin="round" shaper:cutDepth="0.003175" /><path d="M-4.6127,-2.86644 a0.635,0.635 0 1,1 1.27,0 a0.635,0.635 0 1,1 -1.27,0z" transform="matrix(1,0,0,-1,7.2797,3.80106)" fill="rgb(255,255,255)" stroke="rgb(0,0,0)" stroke-width="0.0010cm" stroke-linecap="round" stroke-linejoin="round" shaper:cutDepth="0.003175" /><path d="M0.23235,1.70556 a0.635,0.635 0 1,1 1.27,0 a0.635,0.635 0 1,1 -1.27,0z" transform="matrix(1,0,0,-1,7.2797,3.80106)" fill="rgb(255,255,255)" stroke="rgb(0,0,0)" stroke-width="0.0010cm" stroke-linecap="round" stroke-linejoin="round" shaper:cutDepth="0.003175" /><path d="M3.5661,1.70556 a0.635,0.635 0 1,1 1.27,0 a0.635,0.635 0 1,1 -1.27,0z" transform="matrix(1,0,0,-1,7.2797,3.80106)" fill="rgb(255,255,255)" stroke="rgb(0,0,0)" stroke-width="0.0010cm" stroke-linecap="round" stroke-linejoin="round" shaper:cutDepth="0.003175" /><path d="M-3.62845,1.64206 a0.47625,0.47625 0 1,1 0.9525,0 a0.47625,0.47625 0 1,1 -0.9525,0z" transform="matrix(1,0,0,-1,7.2797,3.80106)" fill="rgb(255,255,255)" stroke="rgb(0,0,0)" stroke-width="0.0010cm" stroke-linecap="round" stroke-linejoin="round" shaper:cutDepth="0.003175" /><path d="M-5.748715,-0.58044 a0.215265,0.215265 0 1,1 0.43053,0 a0.215265,0.215265 0 1,1 -0.43053,0z" transform="matrix(1,0,0,-1,7.2797,3.80106)" fill="rgb(255,255,255)" stroke="rgb(0,0,0)" stroke-width="0.0010cm" stroke-linecap="round" stroke-linejoin="round" shaper:cutDepth="0.003175" /><path d="M-4.796215,1.95956 a0.215265,0.215265 0 1,1 0.43053,0 a0.215265,0.215265 0 1,1 -0.43053,0z" transform="matrix(1,0,0,-1,7.2797,3.80106)" fill="rgb(255,255,255)" stroke="rgb(0,0,0)" stroke-width="0.0010cm" stroke-linecap="round" stroke-linejoin="round" shaper:cutDepth="0.003175" /><path d="M-4.796215,3.0374428 a0.215265,0.215265 0 1,1 0.43053,0 a0.215265,0.215265 0 1,1 -0.43053,0z" transform="matrix(1,0,0,-1,7.2797,3.80106)" fill="rgb(255,255,255)" stroke="rgb(0,0,0)" stroke-width="0.0010cm" stroke-linecap="round" stroke-linejoin="round" shaper:cutDepth="0.003175" /><path d="M-1.938715,1.95956 a0.215265,0.215265 0 1,1 0.43053,0 a0.215265,0.215265 0 1,1 -0.43053,0z" transform="matrix(1,0,0,-1,7.2797,3.80106)" fill="rgb(255,255,255)" stroke="rgb(0,0,0)" stroke-width="0.0010cm" stroke-linecap="round" stroke-linejoin="round" shaper:cutDepth="0.003175" /><path d="M2.222045,0.3746 a0.135255,0.135255 0 1,1 0.27051,0 a0.135255,0.135255 0 1,1 -0.27051,0z" transform="matrix(1,0,0,-1,7.2797,3.80106)" fill="rgb(255,255,255)" stroke="rgb(0,0,0)" stroke-width="0.0010cm" stroke-linecap="round" stroke-linejoin="round" shaper:cutDepth="0.003175" /></svg>