M48
; DRILL file {KiCad (5.1.6)-1} date 02/10/21 20:40:56
; FORMAT={-:-/ absolute / inch / decimal}
; #@! TF.CreationDate,2021-02-10T20:40:56+11:00
; #@! TF.GenerationSoftware,Kicad,Pcbnew,(5.1.6)-1
FMAT,2
INCH
T1C0.0157
T2C0.0295
T3C0.0354
T4C0.0551
T5C0.1693
T6C0.5000
%
G90
G05
T1
X1.7921Y-4.6043
X1.9008Y-5.137
X3.6898Y-4.6657
T2
X1.5394Y-4.0846
X1.5886Y-4.5669
X1.6004Y-4.3031
X1.9327Y-5.4902
X2.2953Y-4.7854
X2.4852Y-5.8002
X2.5157Y-4.9961
X2.6555Y-4.7972
X2.8937Y-5.3898
X3.1048Y-5.0131
X3.4567Y-5.4862
X3.6701Y-5.5165
X3.8425Y-4.8425
X4.0591Y-5.8898
X4.25Y-4.9606
X4.375Y-4.7234
X4.4094Y-5.813
X4.5157Y-5.4961
X5.4197Y-5.087
X5.4437Y-5.5362
X5.7776Y-4.7697
X5.972Y-5.8083
X6.1713Y-4.9744
X6.1732Y-4.7343
X6.335Y-5.4224
T3
X4.6657Y-5.3724
X4.7657Y-5.3724
T4
X5.0657Y-4.7906
X5.0657Y-5.0071
X5.2311Y-4.7906
X5.2311Y-5.0071
X4.6291Y-4.7906
X4.6291Y-5.0071
X4.7945Y-4.7906
X4.7945Y-5.0071
T5
X1.591Y-4.952
X5.051Y-5.5145
T6
X4.026Y-5.307
X4.026Y-5.307
X2.276Y-5.3142
X2.276Y-5.3142
X5.776Y-5.307
X5.776Y-5.307
T0
M30
