<?xml version="1.0" encoding="utf-8"?>
<!-- Generator: Fusion 360, Shaper Origin Export Add-In, Version 1.6.10  -->
<svg xmlns="http://www.w3.org/2000/svg" xmlns:xlink="http://www.w3.org/1999/xlink" xmlns:shaper="http://www.shapertools.com/namespaces/shaper" shaper:fusionaddin="version:1.6.10" width="18.0975cm" height="14.605cm" version="1.1" x="0cm" y="0cm" viewBox="0 0 18.0975 14.605" enable-background="new 0 0 18.0975 14.605" xml:space="preserve"><path d="M9.04875,-7.3025 L-9.04875,-7.3025 -9.04875,7.3025 9.04875,7.3025 9.04875,-7.3025z" transform="matrix(1,0,0,-1,9.04875,7.3025)" fill="rgb(0,0,0)" shaper:cutDepth="0.003175" stroke-linecap="round" stroke-linejoin="round" /><path d="M6.34873,-1.5875 a0.635,0.635 0 1,1 1.27,0 a0.635,0.635 0 1,1 -1.27,0z" transform="matrix(1,0,0,-1,9.04875,7.3025)" fill="rgb(255,255,255)" stroke="rgb(0,0,0)" stroke-width="0.0010cm" stroke-linecap="round" stroke-linejoin="round" shaper:cutDepth="0.003175" /><path d="M6.34873,4.7625 a0.635,0.635 0 1,1 1.27,0 a0.635,0.635 0 1,1 -1.27,0z" transform="matrix(1,0,0,-1,9.04875,7.3025)" fill="rgb(255,255,255)" stroke="rgb(0,0,0)" stroke-width="0.0010cm" stroke-linecap="round" stroke-linejoin="round" shaper:cutDepth="0.003175" /><path d="M6.34873,1.5875 a0.635,0.635 0 1,1 1.27,0 a0.635,0.635 0 1,1 -1.27,0z" transform="matrix(1,0,0,-1,9.04875,7.3025)" fill="rgb(255,255,255)" stroke="rgb(0,0,0)" stroke-width="0.0010cm" stroke-linecap="round" stroke-linejoin="round" shaper:cutDepth="0.003175" /><path d="M6.34873,-4.7625 a0.635,0.635 0 1,1 1.27,0 a0.635,0.635 0 1,1 -1.27,0z" transform="matrix(1,0,0,-1,9.04875,7.3025)" fill="rgb(255,255,255)" stroke="rgb(0,0,0)" stroke-width="0.0010cm" stroke-linecap="round" stroke-linejoin="round" shaper:cutDepth="0.003175" /><path d="M2.53873,-1.5875 a0.635,0.635 0 1,1 1.27,0 a0.635,0.635 0 1,1 -1.27,0z" transform="matrix(1,0,0,-1,9.04875,7.3025)" fill="rgb(255,255,255)" stroke="rgb(0,0,0)" stroke-width="0.0010cm" stroke-linecap="round" stroke-linejoin="round" shaper:cutDepth="0.003175" /><path d="M2.53873,1.5875 a0.635,0.635 0 1,1 1.27,0 a0.635,0.635 0 1,1 -1.27,0z" transform="matrix(1,0,0,-1,9.04875,7.3025)" fill="rgb(255,255,255)" stroke="rgb(0,0,0)" stroke-width="0.0010cm" stroke-linecap="round" stroke-linejoin="round" shaper:cutDepth="0.003175" /><path d="M2.53873,-4.7625 a0.635,0.635 0 1,1 1.27,0 a0.635,0.635 0 1,1 -1.27,0z" transform="matrix(1,0,0,-1,9.04875,7.3025)" fill="rgb(255,255,255)" stroke="rgb(0,0,0)" stroke-width="0.0010cm" stroke-linecap="round" stroke-linejoin="round" shaper:cutDepth="0.003175" /><path d="M3.487372,3.8941998 L3.487372,3.9840094 A0.15875,0.15875 0 0,1 3.2976436,4.1397076 A0.635,0.635 281.2528716 0,0 3.0591328,4.1379262 A0.15875,0.15875 79.602973 0,1 2.8717334,3.9817827 L2.8717334,3.7932205 A0.15875,0.15875 0 0,0 2.7129834,3.6344705 L1.5744458,3.6344705 A0.15875,0.15875 270 0,0 1.4156958,3.7932205 L1.4156958,4.2489696 A0.15875,0.15875 180 0,0 1.5744458,4.4077196 L2.4045674,4.4077196 A0.15875,0.15875 270 0,1 2.5583999,4.6056757 A0.635,0.635 194.2981315 1,0 3.7850203,4.5906012 A0.15875,0.15875 164.2936702 0,1 3.9238268,4.3894964 L4.6554233,4.3246507 A0.15875,0.15875 84.9347694 0,0 4.8001573,4.1665206 L4.8001573,3.6252047 A0.15875,0.15875 0 0,0 4.5969331,3.4728118 L3.5810398,3.7692888 A0.1301217,0.1301217 253.7307109 0,0 3.487372,3.8941998z" transform="matrix(1,0,0,-1,9.04875,7.3025)" fill="rgb(255,255,255)" stroke="rgb(0,0,0)" stroke-width="0.0010cm" stroke-linecap="round" stroke-linejoin="round" shaper:cutDepth="0.003175" /><path d="M-3.0800261,4.9444119 L-4.159637,4.9444119 A0.15875,0.15875 90 0,1 -4.2608281,4.9079808 L-4.3786823,4.8104833 A0.15875,0.15875 309.6000266 0,0 -4.6386234,4.9328022 L-4.6386234,5.1411254 A0.635,0.635 0 0,1 -4.7966791,5.5603499 A0.3175,0.3175 221.3148281 0,0 -4.4672876,6.0741659 A0.635,0.635 253.3598166 0,1 -4.2657522,6.0478789 A0.15875,0.15875 91.7774934 0,0 -4.1035169,5.8678804 A0.3175,0.3175 172.2801072 0,1 -3.819833,5.5092415 A0.635,0.635 264.407998 0,1 -3.757956,5.5062196 L-3.0800261,5.5062196 A0.15875,0.15875 90 0,0 -2.9212761,5.3474696 L-2.9212761,5.1031619 A0.15875,0.15875 0 0,0 -3.0800261,4.9444119z" transform="matrix(1,0,0,-1,9.04875,7.3025)" fill="rgb(255,255,255)" stroke="rgb(0,0,0)" stroke-width="0.0010cm" stroke-linecap="round" stroke-linejoin="round" shaper:cutDepth="0.003175" /><path d="M-4.9475841,2.1529905 L-4.9475841,1.3962108 A0.15875,0.15875 180 0,1 -4.7888341,1.2374608 L-4.5489547,1.2374608 A0.15875,0.15875 90 0,0 -4.3902047,1.0787108 L-4.3902047,0.6579888 A0.15875,0.15875 0 0,0 -4.5489547,0.4992388 L-4.8449831,0.4992388 A0.15875,0.15875 270 0,0 -5.0031288,0.6441505 L-5.0102616,0.725665 A0.15875,0.15875 5.0008401 0,1 -5.1563273,0.8701164 L-6.0399239,0.8701164 A0.15875,0.15875 90 0,1 -6.1219801,0.8472647 L-6.5080105,0.6141773 A0.15875,0.15875 301.123825 0,0 -6.5900667,0.5913256 L-7.2357222,0.5913256 A0.15875,0.15875 270 0,0 -7.3944722,0.7500756 L-7.3944722,0.9926103 A0.15875,0.15875 180 0,0 -7.2357222,1.1513603 L-6.7534554,1.1513603 A0.15875,0.15875 270 0,1 -6.5947054,1.3101103 L-6.5947054,1.5591018 A0.15875,0.15875 0 0,1 -6.7534554,1.7178518 L-6.7831719,1.7178518 A0.15875,0.15875 270 0,0 -6.9419219,1.8766018 L-6.9419219,1.9579071 A0.15875,0.15875 0 0,1 -7.1006719,2.1166571 L-7.4107194,2.1166571 A0.15875,0.15875 90 0,1 -7.433421,2.1150256 L-8.0975182,2.019072 A0.15875,0.15875 278.2216049 0,0 -8.1202198,2.0174405 L-8.5878431,2.0174405 A0.15875,0.15875 270 0,0 -8.7465931,2.1761905 L-8.7465931,2.5996806 A0.15875,0.15875 180 0,0 -8.6246544,2.7541037 L-7.8616411,2.9359906 A0.15875,0.15875 103.4079271 0,0 -7.8248298,2.9403175 L-6.3489608,2.9403175 A0.15875,0.15875 90 0,0 -6.1902108,2.7815675 L-6.1902108,2.4704905 A0.15875,0.15875 180 0,1 -6.0314608,2.3117405 L-5.1063341,2.3117405 A0.15875,0.15875 90 0,0 -4.9475841,2.1529905z" transform="matrix(1,0,0,-1,9.04875,7.3025)" fill="rgb(255,255,255)" stroke="rgb(0,0,0)" stroke-width="0.0010cm" stroke-linecap="round" stroke-linejoin="round" shaper:cutDepth="0.003175" /><path d="M-4.7944803,4.0902196 A0.15875,0.15875 0 0,1 -4.9532303,4.2489696 L-6.0314608,4.2489696 A0.15875,0.15875 90 0,1 -6.1902108,4.0902196 L-6.1902108,3.620849 A0.15875,0.15875 180 0,1 -6.0314608,3.462099 L-4.9532303,3.462099 A0.15875,0.15875 270 0,1 -4.7944803,3.620849 L-4.7944803,4.0902196z" transform="matrix(1,0,0,-1,9.04875,7.3025)" fill="rgb(255,255,255)" stroke="rgb(0,0,0)" stroke-width="0.0010cm" stroke-linecap="round" stroke-linejoin="round" shaper:cutDepth="0.003175" /><path d="M-6.2807301,4.877626 L-7.4161284,4.877626 A0.15875,0.15875 90 0,1 -7.5738847,4.7366104 L-7.5719699,4.7536438 A0.15875,0.15875 353.58595 0,0 -7.8884543,4.7740159 L-7.8799293,5.2870226 A0.15875,0.15875 179.0479686 0,0 -7.7212012,5.443135 L-6.2807301,5.443135 A0.15875,0.15875 90 0,0 -6.1219801,5.284385 L-6.1219801,5.036376 A0.15875,0.15875 0 0,0 -6.2807301,4.877626z" transform="matrix(1,0,0,-1,9.04875,7.3025)" fill="rgb(255,255,255)" stroke="rgb(0,0,0)" stroke-width="0.0010cm" stroke-linecap="round" stroke-linejoin="round" shaper:cutDepth="0.003175" /><path d="M-3.5677068,1.7178518 L-3.5677068,2.0681569 A0.15875,0.15875 0 0,1 -3.7264568,2.2269069 L-4.7118595,2.2269069 A0.15875,0.15875 270 0,0 -4.8706095,2.3856569 L-4.8706095,2.8474879 A0.15875,0.15875 180 0,0 -4.7118595,3.0062379 L-2.8892223,3.0062379 A0.15875,0.15875 90 0,0 -2.7604426,2.9403175 L-2.6621841,2.8040067 A0.15875,0.15875 215.7856108 0,1 -2.5334044,2.7380864 L0.9847355,2.7380864 A0.15875,0.15875 90 0,0 1.1434855,2.5793364 L1.1434855,2.1494701 A0.15875,0.15875 0 0,0 0.9847355,1.9907201 L-2.4703982,1.9907201 A0.15875,0.15875 90 0,1 -2.5826514,1.9442233 L-2.9212761,1.6055986 A0.15875,0.15875 315 0,0 -3.0335293,1.5591018 L-3.4089568,1.5591018 A0.15875,0.15875 270 0,0 -3.5677068,1.7178518z" transform="matrix(1,0,0,-1,9.04875,7.3025)" fill="rgb(255,255,255)" stroke="rgb(0,0,0)" stroke-width="0.0010cm" stroke-linecap="round" stroke-linejoin="round" shaper:cutDepth="0.003175" /><path d="M-0.775884,1.1903561 A0.15875,0.15875 90 0,1 -0.934634,1.0316061 L-0.934634,0.7500756 A0.15875,0.15875 180 0,1 -0.775884,0.5913256 L-0.2723609,0.5913256 A0.15875,0.15875 270 0,1 -0.1136109,0.7500756 L-0.1136109,1.0316061 A0.15875,0.15875 0 0,1 -0.2723609,1.1903561 L-0.775884,1.1903561z" transform="matrix(1,0,0,-1,9.04875,7.3025)" fill="rgb(255,255,255)" stroke="rgb(0,0,0)" stroke-width="0.0010cm" stroke-linecap="round" stroke-linejoin="round" shaper:cutDepth="0.003175" /><path d="M0.9643891,3.1044791 A0.15875,0.15875 270 0,1 1.1231391,3.2632291 L1.1231391,5.9738272 A0.15875,0.15875 0 0,1 0.9643891,6.1325772 L0.6476047,6.1325772 A0.15875,0.15875 90 0,1 0.4888547,5.9738272 L0.4888547,3.2632291 A0.15875,0.15875 180 0,1 0.6476047,3.1044791 L0.9643891,3.1044791z" transform="matrix(1,0,0,-1,9.04875,7.3025)" fill="rgb(255,255,255)" stroke="rgb(0,0,0)" stroke-width="0.0010cm" stroke-linecap="round" stroke-linejoin="round" shaper:cutDepth="0.003175" /><path d="M-0.2669789,-3.8938646 L-0.3551469,-3.8316273 A0.15875,0.15875 54.7819508 0,1 -0.4466964,-3.8025702 L-1.4519764,-3.8025702 A0.15875,0.15875 270 0,0 -1.5850003,-3.7304585 L-2.0107048,-3.076834 A0.15875,0.15875 213.0761245 0,0 -2.0364308,-2.9901958 L-2.0364308,-2.5412411 A0.15875,0.15875 180 0,0 -1.8793081,-2.3824995 L0.293107,-2.360229 A0.15875,0.15875 90.5873453 0,0 0.4534844,-2.5189707 L0.4534844,-3.7641717 A0.15875,0.15875 0 0,0 0.2947344,-3.9229217 L-0.1754294,-3.9229217 A0.15875,0.15875 270 0,0 -0.2669789,-3.8938646z" transform="matrix(1,0,0,-1,9.04875,7.3025)" fill="rgb(255,255,255)" stroke="rgb(0,0,0)" stroke-width="0.0010cm" stroke-linecap="round" stroke-linejoin="round" shaper:cutDepth="0.003175" /><path d="M-7.6428582,-5.5338188 A0.15875,0.15875 90 0,1 -7.8016082,-5.6925688 L-7.8016082,-6.1121101 A0.15875,0.15875 180 0,1 -7.6428582,-6.2708601 L-6.559212,-6.2708601 A0.15875,0.15875 270 0,1 -6.400462,-6.1121101 L-6.400462,-5.6925688 A0.15875,0.15875 0 0,1 -6.559212,-5.5338188 L-7.6428582,-5.5338188z" transform="matrix(1,0,0,-1,9.04875,7.3025)" fill="rgb(255,255,255)" stroke="rgb(0,0,0)" stroke-width="0.0010cm" stroke-linecap="round" stroke-linejoin="round" shaper:cutDepth="0.003175" /><path d="M-3.490716,-5.6778431 A0.15875,0.15875 13.3926424 0,1 -3.6451489,-5.5558633 L-4.0303481,-5.5558633 A0.15875,0.15875 90 0,1 -4.1890981,-5.7146133 L-4.1890981,-6.8407485 A0.15875,0.15875 180 0,1 -4.0303481,-6.9994985 L-3.3770185,-6.9994985 A0.15875,0.15875 270 0,1 -3.2225856,-6.8039784 L-3.490716,-5.6778431z" transform="matrix(1,0,0,-1,9.04875,7.3025)" fill="rgb(255,255,255)" stroke="rgb(0,0,0)" stroke-width="0.0010cm" stroke-linecap="round" stroke-linejoin="round" shaper:cutDepth="0.003175" /><path d="M-1.1630468,-5.5107333 A0.15875,0.15875 90 0,1 -1.3217968,-5.6694833 L-1.3217968,-6.0721574 A0.15875,0.15875 180 0,1 -1.1630468,-6.2309074 L0.0845324,-6.2309074 A0.15875,0.15875 270 0,1 0.2432824,-6.0721574 L0.2432824,-5.6694833 A0.15875,0.15875 0 0,1 0.0845324,-5.5107333 L-1.1630468,-5.5107333z" transform="matrix(1,0,0,-1,9.04875,7.3025)" fill="rgb(255,255,255)" stroke="rgb(0,0,0)" stroke-width="0.0010cm" stroke-linecap="round" stroke-linejoin="round" shaper:cutDepth="0.003175" /><path d="M-0.4311109,-1.762794 A0.15875,0.15875 270 0,1 -0.2723609,-1.604044 L-0.2723609,-1.1823928 A0.15875,0.15875 0 0,1 -0.4311109,-1.0236428 L-0.7382857,-1.0236428 A0.15875,0.15875 90 0,1 -0.8970357,-1.1823928 L-0.8970357,-1.604044 A0.15875,0.15875 180 0,1 -0.7382857,-1.762794 L-0.4311109,-1.762794z" transform="matrix(1,0,0,-1,9.04875,7.3025)" fill="rgb(255,255,255)" stroke="rgb(0,0,0)" stroke-width="0.0010cm" stroke-linecap="round" stroke-linejoin="round" shaper:cutDepth="0.003175" /><path d="M-7.4694257,0.3206559 L-7.4694257,-0.2243784 A0.15875,0.15875 180 0,1 -7.3106757,-0.3831284 L-7.2538949,-0.3831284 A0.15875,0.15875 90 0,0 -7.0951449,-0.5418784 L-7.0951449,-0.8689471 A0.15875,0.15875 180 0,1 -6.9363949,-1.0276971 L-6.2374148,-1.0276971 A0.15875,0.15875 90 0,0 -6.0786648,-1.1864471 L-6.0786648,-1.7300331 A0.15875,0.15875 0 0,0 -6.2374148,-1.8887831 L-7.2188527,-1.8887831 A0.15875,0.15875 270 0,0 -7.3664575,-1.7884659 L-8.0369569,-0.0947428 A0.15875,0.15875 201.5972804 0,0 -8.0481021,-0.03631 L-8.0481021,0.3206559 A0.15875,0.15875 180 0,0 -7.8893521,0.4794059 L-7.6281757,0.4794059 A0.15875,0.15875 90 0,0 -7.4694257,0.3206559z" transform="matrix(1,0,0,-1,9.04875,7.3025)" fill="rgb(255,255,255)" stroke="rgb(0,0,0)" stroke-width="0.0010cm" stroke-linecap="round" stroke-linejoin="round" shaper:cutDepth="0.003175" /><path d="M-4.6849064,-1.0153892 L-4.5799878,-0.9104706 A0.15875,0.15875 315 0,1 -4.5334963,-0.7969191 L-4.5420333,0.2469249 A0.15875,0.15875 180.468579 0,0 -4.3832886,0.4069732 L-4.0038084,0.4069732 A0.15875,0.15875 90 0,0 -3.8450584,0.2482232 L-3.8450584,-1.3607551 A0.15875,0.15875 0 0,0 -3.8700351,-1.4462318 L-4.0877372,-1.7869411 A0.15875,0.15875 327.4227565 0,0 -4.2215105,-1.8602144 L-4.5726532,-1.8602144 A0.15875,0.15875 270 0,0 -4.7314032,-1.7014644 L-4.7314032,-1.1276424 A0.15875,0.15875 180 0,0 -4.6849064,-1.0153892z" transform="matrix(1,0,0,-1,9.04875,7.3025)" fill="rgb(255,255,255)" stroke="rgb(0,0,0)" stroke-width="0.0010cm" stroke-linecap="round" stroke-linejoin="round" shaper:cutDepth="0.003175" /><path d="M2.6210532,6.3257782 A0.15875,0.15875 90 0,1 2.4623032,6.1670282 L2.4623032,5.7492202 A0.15875,0.15875 180 0,1 2.6210532,5.5904702 L4.0615312,5.5904702 A0.15875,0.15875 270 0,1 4.2202812,5.7492202 L4.2202812,6.1670282 A0.15875,0.15875 0 0,1 4.0615312,6.3257782 L2.6210532,6.3257782z" transform="matrix(1,0,0,-1,9.04875,7.3025)" fill="rgb(255,255,255)" stroke="rgb(0,0,0)" stroke-width="0.0010cm" stroke-linecap="round" stroke-linejoin="round" shaper:cutDepth="0.003175" /><path d="M5.5539264,6.9763446 A0.15875,0.15875 0 0,1 5.3951764,7.1350946 L5.0449104,7.1350946 A0.15875,0.15875 90 0,1 4.8861604,6.9763446 L4.8861604,6.5760742 A0.15875,0.15875 180 0,1 5.0449104,6.4173242 L5.3951764,6.4173242 A0.15875,0.15875 270 0,1 5.5539264,6.5760742 L5.5539264,6.9763446z" transform="matrix(1,0,0,-1,9.04875,7.3025)" fill="rgb(255,255,255)" stroke="rgb(0,0,0)" stroke-width="0.0010cm" stroke-linecap="round" stroke-linejoin="round" shaper:cutDepth="0.003175" /><path d="M6.7309891,-5.6179795 A0.15875,0.15875 0 0,1 6.5722391,-5.4592295 L6.2219731,-5.4592295 A0.15875,0.15875 90 0,1 6.0632231,-5.6179795 L6.0632231,-6.0182498 A0.15875,0.15875 180 0,1 6.2219731,-6.1769998 L6.5722391,-6.1769998 A0.15875,0.15875 270 0,1 6.7309891,-6.0182498 L6.7309891,-5.6179795z" transform="matrix(1,0,0,-1,9.04875,7.3025)" fill="rgb(255,255,255)" stroke="rgb(0,0,0)" stroke-width="0.0010cm" stroke-linecap="round" stroke-linejoin="round" shaper:cutDepth="0.003175" /><path d="M6.6452109,4.1006362 A0.254,0.254 90 0,0 6.7327159,4.0850872 A0.7234345,0.7234345 249.8482473 0,1 7.2311736,4.0850872 A0.254,0.254 110.1517527 0,0 7.3186786,4.1006362 L7.7386685,4.1006362 A0.254,0.254 90 0,0 7.9926685,3.8466362 L7.9926685,3.662466 A0.254,0.254 0 0,0 7.9829526,3.5928867 L7.711709,2.6405858 A0.254,0.254 344.1014718 0,0 7.467425,2.4561652 L6.4253114,2.4561652 A0.254,0.254 270 0,0 6.176807,2.6576148 L5.9796073,3.5901491 A0.254,0.254 191.9402265 0,0 5.9741117,3.6426994 L5.9741117,3.8466362 A0.254,0.254 180 0,0 6.2281117,4.1006362 L6.6452109,4.1006362z" transform="matrix(1,0,0,-1,9.04875,7.3025)" fill="rgb(255,255,255)" stroke="rgb(0,0,0)" stroke-width="0.0010cm" stroke-linecap="round" stroke-linejoin="round" shaper:cutDepth="0.003175" /><path d="M6.6845962,-2.2646459 A0.254,0.254 90 0,0 6.7721011,-2.2801949 A0.7234345,0.7234345 249.8482473 0,1 7.2705588,-2.2801949 A0.254,0.254 110.1517527 0,0 7.3580638,-2.2646459 L7.7780538,-2.2646459 A0.254,0.254 90 0,0 8.0320538,-2.5186459 L8.0320538,-2.7028161 A0.254,0.254 0 0,0 8.0223378,-2.7723954 L7.7510943,-3.7246963 A0.254,0.254 344.1014718 0,0 7.5068102,-3.9091169 L6.4646966,-3.9091169 A0.254,0.254 270 0,0 6.2161922,-3.7076673 L6.0189925,-2.775133 A0.254,0.254 191.9402265 0,0 6.013497,-2.7225826 L6.013497,-2.5186459 A0.254,0.254 180 0,0 6.267497,-2.2646459 L6.6845962,-2.2646459z" transform="matrix(1,0,0,-1,9.04875,7.3025)" fill="rgb(255,255,255)" stroke="rgb(0,0,0)" stroke-width="0.0010cm" stroke-linecap="round" stroke-linejoin="round" shaper:cutDepth="0.003175" /><path d="M7.5392909,-0.8803097 A0.15875,0.15875 270 0,0 7.4587303,-0.8583499 A0.8619265,0.8619265 59.504664 0,1 6.5839296,-0.8583499 A0.15875,0.15875 300.495336 0,0 6.5033691,-0.8803097 L6.1009051,-0.8803097 A0.15875,0.15875 270 0,0 5.9421551,-0.7215597 L5.9421551,0.737277 A0.15875,0.15875 180 0,0 6.1009051,0.896027 L6.5721292,0.896027 A0.15875,0.15875 90 0,0 6.6409447,0.8803364 A0.7866505,0.7866505 244.311162 0,1 7.3229448,0.8803364 A0.15875,0.15875 115.688838 0,0 7.3917603,0.896027 L7.8680311,0.896027 A0.15875,0.15875 90 0,0 8.0267811,0.737277 L8.0267811,-0.7215597 A0.15875,0.15875 0 0,0 7.8680311,-0.8803097 L7.5392909,-0.8803097z" transform="matrix(1,0,0,-1,9.04875,7.3025)" fill="rgb(255,255,255)" stroke="rgb(0,0,0)" stroke-width="0.0010cm" stroke-linecap="round" stroke-linejoin="round" shaper:cutDepth="0.003175" /><path d="M7.9579849,-5.6226172 A0.15875,0.15875 0 0,1 7.7992349,-5.4638672 L7.4489689,-5.4638672 A0.15875,0.15875 90 0,1 7.2902189,-5.6226172 L7.2902189,-6.0228875 A0.15875,0.15875 180 0,1 7.4489689,-6.1816375 L7.7992349,-6.1816375 A0.15875,0.15875 270 0,1 7.9579849,-6.0228875 L7.9579849,-5.6226172z" transform="matrix(1,0,0,-1,9.04875,7.3025)" fill="rgb(255,255,255)" stroke="rgb(0,0,0)" stroke-width="0.0010cm" stroke-linecap="round" stroke-linejoin="round" shaper:cutDepth="0.003175" /><path d="M2.0649722,5.8434053 A0.15875,0.15875 0 0,1 1.9062222,6.0021553 L1.5559562,6.0021553 A0.15875,0.15875 90 0,1 1.3972062,5.8434053 L1.3972062,5.443135 A0.15875,0.15875 180 0,1 1.5559562,5.284385 L1.9062222,5.284385 A0.15875,0.15875 270 0,1 2.0649722,5.443135 L2.0649722,5.8434053z" transform="matrix(1,0,0,-1,9.04875,7.3025)" fill="rgb(255,255,255)" stroke="rgb(0,0,0)" stroke-width="0.0010cm" stroke-linecap="round" stroke-linejoin="round" shaper:cutDepth="0.003175" /><path d="M1.461411,6.8507679 A0.15875,0.15875 0 0,1 1.302661,7.0095179 L0.952395,7.0095179 A0.15875,0.15875 90 0,1 0.793645,6.8507679 L0.793645,6.4504976 A0.15875,0.15875 180 0,1 0.952395,6.2917476 L1.302661,6.2917476 A0.15875,0.15875 270 0,1 1.461411,6.4504976 L1.461411,6.8507679z" transform="matrix(1,0,0,-1,9.04875,7.3025)" fill="rgb(255,255,255)" stroke="rgb(0,0,0)" stroke-width="0.0010cm" stroke-linecap="round" stroke-linejoin="round" shaper:cutDepth="0.003175" /><path d="M0.9477225,-6.1460686 A0.15875,0.15875 90 0,1 0.7889725,-6.3048186 L0.7889725,-6.5856785 A0.15875,0.15875 180 0,1 0.9477225,-6.7444285 L1.4608957,-6.7444285 A0.15875,0.15875 270 0,1 1.6196457,-6.5856785 L1.6196457,-6.3048186 A0.15875,0.15875 0 0,1 1.4608957,-6.1460686 L0.9477225,-6.1460686z" transform="matrix(1,0,0,-1,9.04875,7.3025)" fill="rgb(255,255,255)" stroke="rgb(0,0,0)" stroke-width="0.0010cm" stroke-linecap="round" stroke-linejoin="round" shaper:cutDepth="0.003175" /><path d="M2.9087887,-5.5870482 A0.15875,0.15875 0 0,1 2.7500387,-5.4282982 L2.3997727,-5.4282982 A0.15875,0.15875 90 0,1 2.2410227,-5.5870482 L2.2410227,-5.9873186 A0.15875,0.15875 180 0,1 2.3997727,-6.1460686 L2.7500387,-6.1460686 A0.15875,0.15875 270 0,1 2.9087887,-5.9873186 L2.9087887,-5.5870482z" transform="matrix(1,0,0,-1,9.04875,7.3025)" fill="rgb(255,255,255)" stroke="rgb(0,0,0)" stroke-width="0.0010cm" stroke-linecap="round" stroke-linejoin="round" shaper:cutDepth="0.003175" /><path d="M4.1448102,-5.5558633 A0.15875,0.15875 0 0,1 3.9860602,-5.3971133 L3.6357942,-5.3971133 A0.15875,0.15875 90 0,1 3.4770442,-5.5558633 L3.4770442,-5.9561336 A0.15875,0.15875 180 0,1 3.6357942,-6.1148836 L3.9860602,-6.1148836 A0.15875,0.15875 270 0,1 4.1448102,-5.9561336 L4.1448102,-5.5558633z" transform="matrix(1,0,0,-1,9.04875,7.3025)" fill="rgb(255,255,255)" stroke="rgb(0,0,0)" stroke-width="0.0010cm" stroke-linecap="round" stroke-linejoin="round" shaper:cutDepth="0.003175" /><path d="M2.8905295,-2.3033196 A0.1831289,0.1831289 90 0,0 2.9478249,-2.3125133 A0.7441892,0.7441892 251.7677749 0,1 3.4134926,-2.3125133 A0.1831289,0.1831289 108.2322251 0,0 3.470788,-2.3033196 L4.2592687,-2.3033196 A0.254,0.254 90 0,0 4.5132687,-2.5573196 L4.5132687,-2.7620534 A0.254,0.254 0 0,0 4.5035527,-2.8316328 L4.2703084,-3.6505234 A0.254,0.254 344.1014718 0,0 4.0260243,-3.834944 L2.5519903,-3.834944 A0.254,0.254 270 0,0 2.3034859,-3.6334943 L2.0984683,-2.6639903 A0.254,0.254 191.9402265 0,0 2.0929728,-2.6114399 L2.0929728,-2.5573196 A0.254,0.254 180 0,0 2.3469728,-2.3033196 L2.8905295,-2.3033196z" transform="matrix(1,0,0,-1,9.04875,7.3025)" fill="rgb(255,255,255)" stroke="rgb(0,0,0)" stroke-width="0.0010cm" stroke-linecap="round" stroke-linejoin="round" shaper:cutDepth="0.003175" /><path d="M3.5866313,-0.7578672 A0.15875,0.15875 270 0,0 3.525121,-0.7454663 A0.9115012,0.9115012 67.2030465 0,1 2.8187685,-0.7454663 A0.15875,0.15875 292.7969535 0,0 2.7572582,-0.7578672 L2.43168,-0.7578672 A0.15875,0.15875 270 0,0 2.27293,-0.5991172 L2.27293,0.7869105 A0.15875,0.15875 180 0,0 2.43168,0.9456605 L2.7755422,0.9456605 A0.15875,0.15875 90 0,0 2.8458611,0.929237 A0.736158,0.736158 243.7075286 0,1 3.4980285,0.929237 A0.15875,0.15875 116.2924714 0,0 3.5683473,0.9456605 L4.1232317,0.9456605 A0.15875,0.15875 90 0,0 4.2819817,0.7869105 L4.2819817,-0.5991172 A0.15875,0.15875 0 0,0 4.1232317,-0.7578672 L3.5866313,-0.7578672z" transform="matrix(1,0,0,-1,9.04875,7.3025)" fill="rgb(255,255,255)" stroke="rgb(0,0,0)" stroke-width="0.0010cm" stroke-linecap="round" stroke-linejoin="round" shaper:cutDepth="0.003175" /><path d="M3.9522628,2.4068978 L3.5854586,2.5661974 A0.15875,0.15875 66.5251524 0,1 3.5222211,2.5793364 L2.7003939,2.5793364 A0.15875,0.15875 270 0,0 2.5416439,2.7380864 L2.5416439,3.0295687 A0.15875,0.15875 180 0,0 2.7003939,3.1883187 L4.0155003,3.1883187 A0.15875,0.15875 90 0,0 4.1742503,3.0295687 L4.1742503,2.5525089 A0.15875,0.15875 0 0,0 3.9522628,2.4068978z" transform="matrix(1,0,0,-1,9.04875,7.3025)" fill="rgb(255,255,255)" stroke="rgb(0,0,0)" stroke-width="0.0010cm" stroke-linecap="round" stroke-linejoin="round" shaper:cutDepth="0.003175" /><path d="M1.525724,1.9252884 a0.155,0.155 0 1,1 0.31,0 a0.155,0.155 0 1,1 -0.31,0z" transform="matrix(1,0,0,-1,9.04875,7.3025)" fill="rgb(255,255,255)" stroke="rgb(0,0,0)" stroke-width="0.0010cm" stroke-linecap="round" stroke-linejoin="round" shaper:cutDepth="0.003175" /><path d="M5.525724,-2.0747116 a0.155,0.155 0 1,1 0.31,0 a0.155,0.155 0 1,1 -0.31,0z" transform="matrix(1,0,0,-1,9.04875,7.3025)" fill="rgb(255,255,255)" stroke="rgb(0,0,0)" stroke-width="0.0010cm" stroke-linecap="round" stroke-linejoin="round" shaper:cutDepth="0.003175" /><path d="M5.5257243,1.9252884 a0.1549997,0.1549997 0 1,1 0.3099994,0 a0.1549997,0.1549997 0 1,1 -0.3099994,0z" transform="matrix(1,0,0,-1,9.04875,7.3025)" fill="rgb(255,255,255)" stroke="rgb(0,0,0)" stroke-width="0.0010cm" stroke-linecap="round" stroke-linejoin="round" shaper:cutDepth="0.003175" /><path d="M-7.5499761,-2.3902662 L-7.2778035,-2.4786818 A0.15875,0.15875 252.0035601 0,1 -7.2287564,-2.4864485 L-5.7251337,-2.4864485 A0.15875,0.15875 90 0,0 -5.5663837,-2.6451985 L-5.5663837,-3.7095613 A0.15875,0.15875 0 0,0 -5.7251337,-3.8683113 L-8.1713598,-3.8683113 A0.15875,0.15875 270 0,0 -8.3301098,-3.7095613 L-8.3301098,-2.5412495 A0.15875,0.15875 180 0,0 -8.1713598,-2.3824995 L-7.5990232,-2.3824995 A0.15875,0.15875 90 0,0 -7.5499761,-2.3902662z" transform="matrix(1,0,0,-1,9.04875,7.3025)" fill="rgb(255,255,255)" stroke="rgb(0,0,0)" stroke-width="0.0010cm" stroke-linecap="round" stroke-linejoin="round" shaper:cutDepth="0.003175" /><path d="M1.525724,-2.0747116 a0.155,0.155 0 1,1 0.31,0 a0.155,0.155 0 1,1 -0.31,0z" transform="matrix(1,0,0,-1,9.04875,7.3025)" fill="rgb(255,255,255)" stroke="rgb(0,0,0)" stroke-width="0.0010cm" stroke-linecap="round" stroke-linejoin="round" shaper:cutDepth="0.003175" /><path d="M-2.474276,-2.0747116 a0.155,0.155 0 1,1 0.31,0 a0.155,0.155 0 1,1 -0.31,0z" transform="matrix(1,0,0,-1,9.04875,7.3025)" fill="rgb(255,255,255)" stroke="rgb(0,0,0)" stroke-width="0.0010cm" stroke-linecap="round" stroke-linejoin="round" shaper:cutDepth="0.003175" /><path d="M-2.1232532,-4.526183 A0.15875,0.15875 0 0,1 -2.2820032,-4.367433 L-2.6016926,-4.367433 A0.15875,0.15875 90 0,1 -2.7604426,-4.526183 L-2.7604426,-4.9717841 A0.15875,0.15875 180 0,1 -2.6016926,-5.1305341 L-2.2820032,-5.1305341 A0.15875,0.15875 270 0,1 -2.1232532,-4.9717841 L-2.1232532,-4.526183z" transform="matrix(1,0,0,-1,9.04875,7.3025)" fill="rgb(255,255,255)" stroke="rgb(0,0,0)" stroke-width="0.0010cm" stroke-linecap="round" stroke-linejoin="round" shaper:cutDepth="0.003175" /><path d="M0.9884621,-5.7941609 A0.15875,0.15875 270 0,1 1.1472121,-5.6354109 L1.1472121,-5.1877685 A0.15875,0.15875 0 0,1 0.9884621,-5.0290185 L0.6985568,-5.0290185 A0.15875,0.15875 90 0,1 0.5398068,-5.1877685 L0.5398068,-5.6354109 A0.15875,0.15875 180 0,1 0.6985568,-5.7941609 L0.9884621,-5.7941609z" transform="matrix(1,0,0,-1,9.04875,7.3025)" fill="rgb(255,255,255)" stroke="rgb(0,0,0)" stroke-width="0.0010cm" stroke-linecap="round" stroke-linejoin="round" shaper:cutDepth="0.003175" /><path d="M1.2137572,-1.9143891 L1.2137572,-4.2207027 A0.15875,0.15875 180 0,1 1.2238502,-4.2764043 L1.2958691,-4.4686087 A0.15875,0.15875 20.5409337 0,0 1.1472121,-4.6830604 L0.7190245,-4.6830604 A0.15875,0.15875 270 0,0 0.5602745,-4.5243104 L0.5602745,-1.9143891 A0.15875,0.15875 180 0,0 0.7190245,-1.7556391 L1.0550072,-1.7556391 A0.15875,0.15875 90 0,0 1.2137572,-1.9143891z" transform="matrix(1,0,0,-1,9.04875,7.3025)" fill="rgb(255,255,255)" stroke="rgb(0,0,0)" stroke-width="0.0010cm" stroke-linecap="round" stroke-linejoin="round" shaper:cutDepth="0.003175" /><path d="M1.0550072,-1.2484135 A0.15875,0.15875 270 0,1 1.2137572,-1.0896635 L1.2137572,1.5591018 A0.15875,0.15875 0 0,1 1.0550072,1.7178518 L0.7114222,1.7178518 A0.15875,0.15875 90 0,1 0.5526722,1.5591018 L0.5526722,-1.0896635 A0.15875,0.15875 180 0,1 0.7114222,-1.2484135 L1.0550072,-1.2484135z" transform="matrix(1,0,0,-1,9.04875,7.3025)" fill="rgb(255,255,255)" stroke="rgb(0,0,0)" stroke-width="0.0010cm" stroke-linecap="round" stroke-linejoin="round" shaper:cutDepth="0.003175" /><path d="M-1.9239511,3.6105086 A0.15875,0.15875 180 0,1 -1.7652011,3.4517586 L-0.9244966,3.4517586 A0.15875,0.15875 270 0,1 -0.7657466,3.6105086 L-0.7657466,5.4849825 A0.15875,0.15875 0 0,1 -0.9244966,5.6437325 L-1.7652011,5.6437325 A0.15875,0.15875 90 0,1 -1.9239511,5.4849825 L-1.9239511,3.6105086z" transform="matrix(1,0,0,-1,9.04875,7.3025)" fill="rgb(255,255,255)" stroke="rgb(0,0,0)" stroke-width="0.0010cm" stroke-linecap="round" stroke-linejoin="round" shaper:cutDepth="0.003175" /><path d="M-6.3757422,-5.3938023 a0.15875,0.15875 0 1,1 0.3175,0 a0.15875,0.15875 0 1,1 -0.3175,0z" transform="matrix(1,0,0,-1,9.04875,7.3025)" fill="rgb(255,255,255)" stroke="rgb(0,0,0)" stroke-width="0.0010cm" stroke-linecap="round" stroke-linejoin="round" shaper:cutDepth="0.003175" /><path d="M-5.1287322,-5.1131941 L-5.1563273,-5.0780976 A0.15875,0.15875 38.17672 0,1 -5.283565,-5.017488 L-6.0348131,-5.0290504 A0.15875,0.15875 270.8817636 0,0 -6.1958611,-4.8635356 L-6.1831115,-4.5654405 A0.15875,0.15875 177.5509228 0,0 -6.0245065,-4.4134742 L-5.0389518,-4.4134742 A0.1937643,0.1937643 90 0,0 -4.8451875,-4.6072385 L-4.8451875,-5.0150725 A0.15875,0.15875 0 0,0 -5.1287322,-5.1131941z" transform="matrix(1,0,0,-1,9.04875,7.3025)" fill="rgb(255,255,255)" stroke="rgb(0,0,0)" stroke-width="0.0010cm" stroke-linecap="round" stroke-linejoin="round" shaper:cutDepth="0.003175" /><path d="M-2.5858565,-3.8769564 L-4.2336082,-3.8769564 A0.15875,0.15875 90 0,1 -4.2854393,-3.8856561 L-4.6696208,-4.0183617 A0.15875,0.15875 289.0561524 0,0 -4.8802018,-3.8683113 L-4.8802018,-3.3893524 A0.15875,0.15875 0 0,1 -4.9379527,-3.266875 L-5.0539,-3.1712608 A0.15875,0.15875 230.4898165 0,0 -5.1116508,-3.0487833 L-5.1116508,-2.6902748 A0.15875,0.15875 180 0,0 -4.9529008,-2.5315248 L-2.540627,-2.5315248 A0.15875,0.15875 90 0,0 -2.3820305,-2.6972532 L-2.42726,-3.7251847 A0.15875,0.15875 357.4805827 0,0 -2.5858565,-3.8769564z" transform="matrix(1,0,0,-1,9.04875,7.3025)" fill="rgb(255,255,255)" stroke="rgb(0,0,0)" stroke-width="0.0010cm" stroke-linecap="round" stroke-linejoin="round" shaper:cutDepth="0.003175" /><path d="M6.3252245,5.9223522 A0.15875,0.15875 180 0,1 6.4839745,5.7636022 L7.0145351,5.7636022 A0.15875,0.15875 270 0,1 7.1732851,5.9223522 L7.1732851,6.1670282 A0.15875,0.15875 0 0,1 7.0145351,6.3257782 L6.4839745,6.3257782 A0.15875,0.15875 90 0,1 6.3252245,6.1670282 L6.3252245,5.9223522z" transform="matrix(1,0,0,-1,9.04875,7.3025)" fill="rgb(255,255,255)" stroke="rgb(0,0,0)" stroke-width="0.0010cm" stroke-linecap="round" stroke-linejoin="round" shaper:cutDepth="0.003175" /><path d="M-7.4003703,0.0061796 a0.1984375,0.1984375 0 1,1 0.396875,0 a0.1984375,0.1984375 0 1,1 -0.396875,0z" transform="matrix(1,0,0,-1,9.04875,7.3025)" fill="rgb(255,255,255)" stroke="rgb(0,0,0)" stroke-width="0.0010cm" stroke-linecap="round" stroke-linejoin="round" shaper:cutDepth="0.003175" /><path d="M-1.23825,-0.2159 a0.635,0.635 0 1,1 1.27,0 a0.635,0.635 0 1,1 -1.27,0z" transform="matrix(1,0,0,-1,9.04875,7.3025)" fill="rgb(255,255,255)" stroke="rgb(0,0,0)" stroke-width="0.0010cm" stroke-linecap="round" stroke-linejoin="round" shaper:cutDepth="0.003175" /><path d="M-1.23825,-4.6863 a0.635,0.635 0 1,1 1.27,0 a0.635,0.635 0 1,1 -1.27,0z" transform="matrix(1,0,0,-1,9.04875,7.3025)" fill="rgb(255,255,255)" stroke="rgb(0,0,0)" stroke-width="0.0010cm" stroke-linecap="round" stroke-linejoin="round" shaper:cutDepth="0.003175" /><path d="M-4.47675,-4.6863 a0.635,0.635 0 1,1 1.27,0 a0.635,0.635 0 1,1 -1.27,0z" transform="matrix(1,0,0,-1,9.04875,7.3025)" fill="rgb(255,255,255)" stroke="rgb(0,0,0)" stroke-width="0.0010cm" stroke-linecap="round" stroke-linejoin="round" shaper:cutDepth="0.003175" /><path d="M-4.47675,3.9243 a0.635,0.635 0 1,1 1.27,0 a0.635,0.635 0 1,1 -1.27,0z" transform="matrix(1,0,0,-1,9.04875,7.3025)" fill="rgb(255,255,255)" stroke="rgb(0,0,0)" stroke-width="0.0010cm" stroke-linecap="round" stroke-linejoin="round" shaper:cutDepth="0.003175" /><path d="M-7.71525,3.9243 a0.635,0.635 0 1,1 1.27,0 a0.635,0.635 0 1,1 -1.27,0z" transform="matrix(1,0,0,-1,9.04875,7.3025)" fill="rgb(255,255,255)" stroke="rgb(0,0,0)" stroke-width="0.0010cm" stroke-linecap="round" stroke-linejoin="round" shaper:cutDepth="0.003175" /><path d="M-7.71525,-4.6863 a0.635,0.635 0 1,1 1.27,0 a0.635,0.635 0 1,1 -1.27,0z" transform="matrix(1,0,0,-1,9.04875,7.3025)" fill="rgb(255,255,255)" stroke="rgb(0,0,0)" stroke-width="0.0010cm" stroke-linecap="round" stroke-linejoin="round" shaper:cutDepth="0.003175" /><path d="M-6.53415,-0.3429 a0.635,0.635 0 1,1 1.27,0 a0.635,0.635 0 1,1 -1.27,0z" transform="matrix(1,0,0,-1,9.04875,7.3025)" fill="rgb(255,255,255)" stroke="rgb(0,0,0)" stroke-width="0.0010cm" stroke-linecap="round" stroke-linejoin="round" shaper:cutDepth="0.003175" /><path d="M5.023485,4.7625 a0.215265,0.215265 0 1,1 0.43053,0 a0.215265,0.215265 0 1,1 -0.43053,0z" transform="matrix(1,0,0,-1,9.04875,7.3025)" fill="rgb(255,255,255)" stroke="rgb(0,0,0)" stroke-width="0.0010cm" stroke-linecap="round" stroke-linejoin="round" shaper:cutDepth="0.003175" /><path d="M5.023485,0 a0.215265,0.215265 0 1,1 0.43053,0 a0.215265,0.215265 0 1,1 -0.43053,0z" transform="matrix(1,0,0,-1,9.04875,7.3025)" fill="rgb(255,255,255)" stroke="rgb(0,0,0)" stroke-width="0.0010cm" stroke-linecap="round" stroke-linejoin="round" shaper:cutDepth="0.003175" /><path d="M5.023485,-5.3975 a0.215265,0.215265 0 1,1 0.43053,0 a0.215265,0.215265 0 1,1 -0.43053,0z" transform="matrix(1,0,0,-1,9.04875,7.3025)" fill="rgb(255,255,255)" stroke="rgb(0,0,0)" stroke-width="0.0010cm" stroke-linecap="round" stroke-linejoin="round" shaper:cutDepth="0.003175" /><path d="M-5.771515,4.7625 a0.215265,0.215265 0 1,1 0.43053,0 a0.215265,0.215265 0 1,1 -0.43053,0z" transform="matrix(1,0,0,-1,9.04875,7.3025)" fill="rgb(255,255,255)" stroke="rgb(0,0,0)" stroke-width="0.0010cm" stroke-linecap="round" stroke-linejoin="round" shaper:cutDepth="0.003175" /><path d="M-3.0993111,0 a0.215265,0.215265 0 1,1 0.43053,0 a0.215265,0.215265 0 1,1 -0.43053,0z" transform="matrix(1,0,0,-1,9.04875,7.3025)" fill="rgb(255,255,255)" stroke="rgb(0,0,0)" stroke-width="0.0010cm" stroke-linecap="round" stroke-linejoin="round" shaper:cutDepth="0.003175" /><path d="M-5.771515,-5.3975 a0.215265,0.215265 0 1,1 0.43053,0 a0.215265,0.215265 0 1,1 -0.43053,0z" transform="matrix(1,0,0,-1,9.04875,7.3025)" fill="rgb(255,255,255)" stroke="rgb(0,0,0)" stroke-width="0.0010cm" stroke-linecap="round" stroke-linejoin="round" shaper:cutDepth="0.003175" /><path d="M-7.835265,6.81355 a0.215265,0.215265 0 1,1 0.43053,0 a0.215265,0.215265 0 1,1 -0.43053,0z" transform="matrix(1,0,0,-1,9.04875,7.3025)" fill="rgb(255,255,255)" stroke="rgb(0,0,0)" stroke-width="0.0010cm" stroke-linecap="round" stroke-linejoin="round" shaper:cutDepth="0.003175" /><path d="M-7.835265,-6.81355 a0.215265,0.215265 0 1,1 0.43053,0 a0.215265,0.215265 0 1,1 -0.43053,0z" transform="matrix(1,0,0,-1,9.04875,7.3025)" fill="rgb(255,255,255)" stroke="rgb(0,0,0)" stroke-width="0.0010cm" stroke-linecap="round" stroke-linejoin="round" shaper:cutDepth="0.003175" /><path d="M-0.215265,6.81355 a0.215265,0.215265 0 1,1 0.43053,0 a0.215265,0.215265 0 1,1 -0.43053,0z" transform="matrix(1,0,0,-1,9.04875,7.3025)" fill="rgb(255,255,255)" stroke="rgb(0,0,0)" stroke-width="0.0010cm" stroke-linecap="round" stroke-linejoin="round" shaper:cutDepth="0.003175" /><path d="M-0.215265,-6.81355 a0.215265,0.215265 0 1,1 0.43053,0 a0.215265,0.215265 0 1,1 -0.43053,0z" transform="matrix(1,0,0,-1,9.04875,7.3025)" fill="rgb(255,255,255)" stroke="rgb(0,0,0)" stroke-width="0.0010cm" stroke-linecap="round" stroke-linejoin="round" shaper:cutDepth="0.003175" /><path d="M7.404735,-6.81355 a0.215265,0.215265 0 1,1 0.43053,0 a0.215265,0.215265 0 1,1 -0.43053,0z" transform="matrix(1,0,0,-1,9.04875,7.3025)" fill="rgb(255,255,255)" stroke="rgb(0,0,0)" stroke-width="0.0010cm" stroke-linecap="round" stroke-linejoin="round" shaper:cutDepth="0.003175" /><path d="M7.404735,6.81355 a0.215265,0.215265 0 1,1 0.43053,0 a0.215265,0.215265 0 1,1 -0.43053,0z" transform="matrix(1,0,0,-1,9.04875,7.3025)" fill="rgb(255,255,255)" stroke="rgb(0,0,0)" stroke-width="0.0010cm" stroke-linecap="round" stroke-linejoin="round" shaper:cutDepth="0.003175" /></svg>