G04 #@! TF.GenerationSoftware,KiCad,Pcbnew,(5.1.4-0-10_14)*
G04 #@! TF.CreationDate,2019-11-05T08:19:09+01:00*
G04 #@! TF.ProjectId,AP,41502e6b-6963-4616-945f-706362585858,rev?*
G04 #@! TF.SameCoordinates,Original*
G04 #@! TF.FileFunction,Copper,L2,Bot*
G04 #@! TF.FilePolarity,Positive*
%FSLAX46Y46*%
G04 Gerber Fmt 4.6, Leading zero omitted, Abs format (unit mm)*
G04 Created by KiCad (PCBNEW (5.1.4-0-10_14)) date 2019-11-05 08:19:09*
%MOMM*%
%LPD*%
G04 APERTURE LIST*
%ADD10R,3.150000X1.000000*%
%ADD11C,0.600000*%
%ADD12C,0.250000*%
%ADD13C,0.254000*%
G04 APERTURE END LIST*
D10*
X153315000Y-95755000D03*
X148265000Y-95755000D03*
X153315000Y-98295000D03*
X148265000Y-98295000D03*
X153315000Y-100835000D03*
X148265000Y-100835000D03*
X153315000Y-103375000D03*
X148265000Y-103375000D03*
D11*
X193170000Y-102616000D03*
X176230000Y-102692200D03*
X159300000Y-102895400D03*
X142370000Y-102689200D03*
X125430000Y-102692200D03*
X108500000Y-102641400D03*
X91567000Y-102616000D03*
X146050000Y-95885000D03*
X151765000Y-97155000D03*
X147955000Y-99695000D03*
X155575000Y-104140000D03*
X147955000Y-102235000D03*
X151130000Y-103505000D03*
X147955000Y-104775000D03*
D12*
X146050000Y-95885000D02*
X148135000Y-95885000D01*
X148135000Y-95885000D02*
X148265000Y-95755000D01*
X151765000Y-97155000D02*
X152175000Y-97155000D01*
X152175000Y-97155000D02*
X153315000Y-98295000D01*
X147955000Y-99695000D02*
X147955000Y-98605000D01*
X147955000Y-98605000D02*
X148265000Y-98295000D01*
X155575000Y-104140000D02*
X155575000Y-102020000D01*
X155575000Y-102020000D02*
X154390000Y-100835000D01*
X154390000Y-100835000D02*
X153315000Y-100835000D01*
X147955000Y-102235000D02*
X147955000Y-101145000D01*
X147955000Y-101145000D02*
X148265000Y-100835000D01*
X151130000Y-103505000D02*
X153185000Y-103505000D01*
X153185000Y-103505000D02*
X153315000Y-103375000D01*
X147955000Y-104775000D02*
X147955000Y-103685000D01*
X147955000Y-103685000D02*
X148265000Y-103375000D01*
D13*
G36*
X198959002Y-95511617D02*
G01*
X198959001Y-102818144D01*
X196820265Y-104956880D01*
X156035408Y-104956880D01*
X156171028Y-104866262D01*
X156301262Y-104736028D01*
X156403586Y-104582889D01*
X156474068Y-104412729D01*
X156510000Y-104232089D01*
X156510000Y-104047911D01*
X156474068Y-103867271D01*
X156403586Y-103697111D01*
X156335000Y-103594465D01*
X156335000Y-102057322D01*
X156338676Y-102019999D01*
X156335000Y-101982676D01*
X156335000Y-101982667D01*
X156324003Y-101871014D01*
X156280546Y-101727753D01*
X156233091Y-101638972D01*
X156209974Y-101595723D01*
X156138799Y-101508997D01*
X156115001Y-101479999D01*
X156086003Y-101456201D01*
X155528072Y-100898270D01*
X155528072Y-100335000D01*
X155515812Y-100210518D01*
X155479502Y-100090820D01*
X155420537Y-99980506D01*
X155341185Y-99883815D01*
X155244494Y-99804463D01*
X155134180Y-99745498D01*
X155014482Y-99709188D01*
X154890000Y-99696928D01*
X151740000Y-99696928D01*
X151615518Y-99709188D01*
X151495820Y-99745498D01*
X151385506Y-99804463D01*
X151288815Y-99883815D01*
X151209463Y-99980506D01*
X151150498Y-100090820D01*
X151114188Y-100210518D01*
X151101928Y-100335000D01*
X151101928Y-101335000D01*
X151114188Y-101459482D01*
X151150498Y-101579180D01*
X151209463Y-101689494D01*
X151288815Y-101786185D01*
X151385506Y-101865537D01*
X151495820Y-101924502D01*
X151615518Y-101960812D01*
X151740000Y-101973072D01*
X154453270Y-101973072D01*
X154717126Y-102236928D01*
X151740000Y-102236928D01*
X151615518Y-102249188D01*
X151495820Y-102285498D01*
X151385506Y-102344463D01*
X151288815Y-102423815D01*
X151209463Y-102520506D01*
X151183007Y-102570000D01*
X151037911Y-102570000D01*
X150857271Y-102605932D01*
X150687111Y-102676414D01*
X150533972Y-102778738D01*
X150474453Y-102838257D01*
X150465812Y-102750518D01*
X150429502Y-102630820D01*
X150370537Y-102520506D01*
X150291185Y-102423815D01*
X150194494Y-102344463D01*
X150084180Y-102285498D01*
X149964482Y-102249188D01*
X149840000Y-102236928D01*
X148890000Y-102236928D01*
X148890000Y-102142911D01*
X148856216Y-101973072D01*
X149840000Y-101973072D01*
X149964482Y-101960812D01*
X150084180Y-101924502D01*
X150194494Y-101865537D01*
X150291185Y-101786185D01*
X150370537Y-101689494D01*
X150429502Y-101579180D01*
X150465812Y-101459482D01*
X150478072Y-101335000D01*
X150478072Y-100335000D01*
X150465812Y-100210518D01*
X150429502Y-100090820D01*
X150370537Y-99980506D01*
X150291185Y-99883815D01*
X150194494Y-99804463D01*
X150084180Y-99745498D01*
X149964482Y-99709188D01*
X149840000Y-99696928D01*
X148890000Y-99696928D01*
X148890000Y-99602911D01*
X148856216Y-99433072D01*
X149840000Y-99433072D01*
X149964482Y-99420812D01*
X150084180Y-99384502D01*
X150194494Y-99325537D01*
X150291185Y-99246185D01*
X150370537Y-99149494D01*
X150429502Y-99039180D01*
X150465812Y-98919482D01*
X150478072Y-98795000D01*
X150478072Y-97795000D01*
X150465812Y-97670518D01*
X150429502Y-97550820D01*
X150370537Y-97440506D01*
X150291185Y-97343815D01*
X150194494Y-97264463D01*
X150084180Y-97205498D01*
X149964482Y-97169188D01*
X149840000Y-97156928D01*
X146690000Y-97156928D01*
X146565518Y-97169188D01*
X146445820Y-97205498D01*
X146335506Y-97264463D01*
X146238815Y-97343815D01*
X146159463Y-97440506D01*
X146100498Y-97550820D01*
X146064188Y-97670518D01*
X146051928Y-97795000D01*
X146051928Y-98795000D01*
X146064188Y-98919482D01*
X146100498Y-99039180D01*
X146159463Y-99149494D01*
X146238815Y-99246185D01*
X146335506Y-99325537D01*
X146445820Y-99384502D01*
X146565518Y-99420812D01*
X146690000Y-99433072D01*
X147053784Y-99433072D01*
X147020000Y-99602911D01*
X147020000Y-99696928D01*
X146690000Y-99696928D01*
X146565518Y-99709188D01*
X146445820Y-99745498D01*
X146335506Y-99804463D01*
X146238815Y-99883815D01*
X146159463Y-99980506D01*
X146100498Y-100090820D01*
X146064188Y-100210518D01*
X146051928Y-100335000D01*
X146051928Y-101335000D01*
X146064188Y-101459482D01*
X146100498Y-101579180D01*
X146159463Y-101689494D01*
X146238815Y-101786185D01*
X146335506Y-101865537D01*
X146445820Y-101924502D01*
X146565518Y-101960812D01*
X146690000Y-101973072D01*
X147053784Y-101973072D01*
X147020000Y-102142911D01*
X147020000Y-102236928D01*
X146690000Y-102236928D01*
X146565518Y-102249188D01*
X146445820Y-102285498D01*
X146335506Y-102344463D01*
X146238815Y-102423815D01*
X146159463Y-102520506D01*
X146100498Y-102630820D01*
X146064188Y-102750518D01*
X146051928Y-102875000D01*
X146051928Y-103875000D01*
X146064188Y-103999482D01*
X146100498Y-104119180D01*
X146159463Y-104229494D01*
X146238815Y-104326185D01*
X146335506Y-104405537D01*
X146445820Y-104464502D01*
X146565518Y-104500812D01*
X146690000Y-104513072D01*
X147053784Y-104513072D01*
X147020000Y-104682911D01*
X147020000Y-104867089D01*
X147037861Y-104956880D01*
X87913736Y-104956880D01*
X85775000Y-102818144D01*
X85775000Y-97062911D01*
X150830000Y-97062911D01*
X150830000Y-97247089D01*
X150865932Y-97427729D01*
X150936414Y-97597889D01*
X151038738Y-97751028D01*
X151101928Y-97814218D01*
X151101928Y-98795000D01*
X151114188Y-98919482D01*
X151150498Y-99039180D01*
X151209463Y-99149494D01*
X151288815Y-99246185D01*
X151385506Y-99325537D01*
X151495820Y-99384502D01*
X151615518Y-99420812D01*
X151740000Y-99433072D01*
X154890000Y-99433072D01*
X155014482Y-99420812D01*
X155134180Y-99384502D01*
X155244494Y-99325537D01*
X155341185Y-99246185D01*
X155420537Y-99149494D01*
X155479502Y-99039180D01*
X155515812Y-98919482D01*
X155528072Y-98795000D01*
X155528072Y-97795000D01*
X155515812Y-97670518D01*
X155479502Y-97550820D01*
X155420537Y-97440506D01*
X155341185Y-97343815D01*
X155244494Y-97264463D01*
X155134180Y-97205498D01*
X155014482Y-97169188D01*
X154890000Y-97156928D01*
X153251730Y-97156928D01*
X152984907Y-96890106D01*
X153029250Y-96890000D01*
X153188000Y-96731250D01*
X153188000Y-95882000D01*
X153442000Y-95882000D01*
X153442000Y-96731250D01*
X153600750Y-96890000D01*
X154890000Y-96893072D01*
X155014482Y-96880812D01*
X155134180Y-96844502D01*
X155244494Y-96785537D01*
X155341185Y-96706185D01*
X155420537Y-96609494D01*
X155479502Y-96499180D01*
X155515812Y-96379482D01*
X155528072Y-96255000D01*
X155525000Y-96040750D01*
X155366250Y-95882000D01*
X153442000Y-95882000D01*
X153188000Y-95882000D01*
X151263750Y-95882000D01*
X151105000Y-96040750D01*
X151101928Y-96255000D01*
X151114188Y-96379482D01*
X151138403Y-96459307D01*
X151038738Y-96558972D01*
X150936414Y-96712111D01*
X150865932Y-96882271D01*
X150830000Y-97062911D01*
X85775000Y-97062911D01*
X85775000Y-95792911D01*
X145115000Y-95792911D01*
X145115000Y-95977089D01*
X145150932Y-96157729D01*
X145221414Y-96327889D01*
X145323738Y-96481028D01*
X145453972Y-96611262D01*
X145607111Y-96713586D01*
X145777271Y-96784068D01*
X145957911Y-96820000D01*
X146142089Y-96820000D01*
X146322729Y-96784068D01*
X146330031Y-96781044D01*
X146335506Y-96785537D01*
X146445820Y-96844502D01*
X146565518Y-96880812D01*
X146690000Y-96893072D01*
X149840000Y-96893072D01*
X149964482Y-96880812D01*
X150084180Y-96844502D01*
X150194494Y-96785537D01*
X150291185Y-96706185D01*
X150370537Y-96609494D01*
X150429502Y-96499180D01*
X150465812Y-96379482D01*
X150478072Y-96255000D01*
X150478072Y-95255000D01*
X151101928Y-95255000D01*
X151105000Y-95469250D01*
X151263750Y-95628000D01*
X153188000Y-95628000D01*
X153188000Y-94778750D01*
X153442000Y-94778750D01*
X153442000Y-95628000D01*
X155366250Y-95628000D01*
X155525000Y-95469250D01*
X155528072Y-95255000D01*
X155515812Y-95130518D01*
X155479502Y-95010820D01*
X155420537Y-94900506D01*
X155341185Y-94803815D01*
X155244494Y-94724463D01*
X155134180Y-94665498D01*
X155014482Y-94629188D01*
X154890000Y-94616928D01*
X153600750Y-94620000D01*
X153442000Y-94778750D01*
X153188000Y-94778750D01*
X153029250Y-94620000D01*
X151740000Y-94616928D01*
X151615518Y-94629188D01*
X151495820Y-94665498D01*
X151385506Y-94724463D01*
X151288815Y-94803815D01*
X151209463Y-94900506D01*
X151150498Y-95010820D01*
X151114188Y-95130518D01*
X151101928Y-95255000D01*
X150478072Y-95255000D01*
X150465812Y-95130518D01*
X150429502Y-95010820D01*
X150370537Y-94900506D01*
X150291185Y-94803815D01*
X150194494Y-94724463D01*
X150084180Y-94665498D01*
X149964482Y-94629188D01*
X149840000Y-94616928D01*
X146690000Y-94616928D01*
X146565518Y-94629188D01*
X146445820Y-94665498D01*
X146335506Y-94724463D01*
X146238815Y-94803815D01*
X146159463Y-94900506D01*
X146133007Y-94950000D01*
X145957911Y-94950000D01*
X145777271Y-94985932D01*
X145607111Y-95056414D01*
X145453972Y-95158738D01*
X145323738Y-95288972D01*
X145221414Y-95442111D01*
X145150932Y-95612271D01*
X145115000Y-95792911D01*
X85775000Y-95792911D01*
X85775000Y-95511616D01*
X87913736Y-93372880D01*
X196820265Y-93372880D01*
X198959002Y-95511617D01*
X198959002Y-95511617D01*
G37*
X198959002Y-95511617D02*
X198959001Y-102818144D01*
X196820265Y-104956880D01*
X156035408Y-104956880D01*
X156171028Y-104866262D01*
X156301262Y-104736028D01*
X156403586Y-104582889D01*
X156474068Y-104412729D01*
X156510000Y-104232089D01*
X156510000Y-104047911D01*
X156474068Y-103867271D01*
X156403586Y-103697111D01*
X156335000Y-103594465D01*
X156335000Y-102057322D01*
X156338676Y-102019999D01*
X156335000Y-101982676D01*
X156335000Y-101982667D01*
X156324003Y-101871014D01*
X156280546Y-101727753D01*
X156233091Y-101638972D01*
X156209974Y-101595723D01*
X156138799Y-101508997D01*
X156115001Y-101479999D01*
X156086003Y-101456201D01*
X155528072Y-100898270D01*
X155528072Y-100335000D01*
X155515812Y-100210518D01*
X155479502Y-100090820D01*
X155420537Y-99980506D01*
X155341185Y-99883815D01*
X155244494Y-99804463D01*
X155134180Y-99745498D01*
X155014482Y-99709188D01*
X154890000Y-99696928D01*
X151740000Y-99696928D01*
X151615518Y-99709188D01*
X151495820Y-99745498D01*
X151385506Y-99804463D01*
X151288815Y-99883815D01*
X151209463Y-99980506D01*
X151150498Y-100090820D01*
X151114188Y-100210518D01*
X151101928Y-100335000D01*
X151101928Y-101335000D01*
X151114188Y-101459482D01*
X151150498Y-101579180D01*
X151209463Y-101689494D01*
X151288815Y-101786185D01*
X151385506Y-101865537D01*
X151495820Y-101924502D01*
X151615518Y-101960812D01*
X151740000Y-101973072D01*
X154453270Y-101973072D01*
X154717126Y-102236928D01*
X151740000Y-102236928D01*
X151615518Y-102249188D01*
X151495820Y-102285498D01*
X151385506Y-102344463D01*
X151288815Y-102423815D01*
X151209463Y-102520506D01*
X151183007Y-102570000D01*
X151037911Y-102570000D01*
X150857271Y-102605932D01*
X150687111Y-102676414D01*
X150533972Y-102778738D01*
X150474453Y-102838257D01*
X150465812Y-102750518D01*
X150429502Y-102630820D01*
X150370537Y-102520506D01*
X150291185Y-102423815D01*
X150194494Y-102344463D01*
X150084180Y-102285498D01*
X149964482Y-102249188D01*
X149840000Y-102236928D01*
X148890000Y-102236928D01*
X148890000Y-102142911D01*
X148856216Y-101973072D01*
X149840000Y-101973072D01*
X149964482Y-101960812D01*
X150084180Y-101924502D01*
X150194494Y-101865537D01*
X150291185Y-101786185D01*
X150370537Y-101689494D01*
X150429502Y-101579180D01*
X150465812Y-101459482D01*
X150478072Y-101335000D01*
X150478072Y-100335000D01*
X150465812Y-100210518D01*
X150429502Y-100090820D01*
X150370537Y-99980506D01*
X150291185Y-99883815D01*
X150194494Y-99804463D01*
X150084180Y-99745498D01*
X149964482Y-99709188D01*
X149840000Y-99696928D01*
X148890000Y-99696928D01*
X148890000Y-99602911D01*
X148856216Y-99433072D01*
X149840000Y-99433072D01*
X149964482Y-99420812D01*
X150084180Y-99384502D01*
X150194494Y-99325537D01*
X150291185Y-99246185D01*
X150370537Y-99149494D01*
X150429502Y-99039180D01*
X150465812Y-98919482D01*
X150478072Y-98795000D01*
X150478072Y-97795000D01*
X150465812Y-97670518D01*
X150429502Y-97550820D01*
X150370537Y-97440506D01*
X150291185Y-97343815D01*
X150194494Y-97264463D01*
X150084180Y-97205498D01*
X149964482Y-97169188D01*
X149840000Y-97156928D01*
X146690000Y-97156928D01*
X146565518Y-97169188D01*
X146445820Y-97205498D01*
X146335506Y-97264463D01*
X146238815Y-97343815D01*
X146159463Y-97440506D01*
X146100498Y-97550820D01*
X146064188Y-97670518D01*
X146051928Y-97795000D01*
X146051928Y-98795000D01*
X146064188Y-98919482D01*
X146100498Y-99039180D01*
X146159463Y-99149494D01*
X146238815Y-99246185D01*
X146335506Y-99325537D01*
X146445820Y-99384502D01*
X146565518Y-99420812D01*
X146690000Y-99433072D01*
X147053784Y-99433072D01*
X147020000Y-99602911D01*
X147020000Y-99696928D01*
X146690000Y-99696928D01*
X146565518Y-99709188D01*
X146445820Y-99745498D01*
X146335506Y-99804463D01*
X146238815Y-99883815D01*
X146159463Y-99980506D01*
X146100498Y-100090820D01*
X146064188Y-100210518D01*
X146051928Y-100335000D01*
X146051928Y-101335000D01*
X146064188Y-101459482D01*
X146100498Y-101579180D01*
X146159463Y-101689494D01*
X146238815Y-101786185D01*
X146335506Y-101865537D01*
X146445820Y-101924502D01*
X146565518Y-101960812D01*
X146690000Y-101973072D01*
X147053784Y-101973072D01*
X147020000Y-102142911D01*
X147020000Y-102236928D01*
X146690000Y-102236928D01*
X146565518Y-102249188D01*
X146445820Y-102285498D01*
X146335506Y-102344463D01*
X146238815Y-102423815D01*
X146159463Y-102520506D01*
X146100498Y-102630820D01*
X146064188Y-102750518D01*
X146051928Y-102875000D01*
X146051928Y-103875000D01*
X146064188Y-103999482D01*
X146100498Y-104119180D01*
X146159463Y-104229494D01*
X146238815Y-104326185D01*
X146335506Y-104405537D01*
X146445820Y-104464502D01*
X146565518Y-104500812D01*
X146690000Y-104513072D01*
X147053784Y-104513072D01*
X147020000Y-104682911D01*
X147020000Y-104867089D01*
X147037861Y-104956880D01*
X87913736Y-104956880D01*
X85775000Y-102818144D01*
X85775000Y-97062911D01*
X150830000Y-97062911D01*
X150830000Y-97247089D01*
X150865932Y-97427729D01*
X150936414Y-97597889D01*
X151038738Y-97751028D01*
X151101928Y-97814218D01*
X151101928Y-98795000D01*
X151114188Y-98919482D01*
X151150498Y-99039180D01*
X151209463Y-99149494D01*
X151288815Y-99246185D01*
X151385506Y-99325537D01*
X151495820Y-99384502D01*
X151615518Y-99420812D01*
X151740000Y-99433072D01*
X154890000Y-99433072D01*
X155014482Y-99420812D01*
X155134180Y-99384502D01*
X155244494Y-99325537D01*
X155341185Y-99246185D01*
X155420537Y-99149494D01*
X155479502Y-99039180D01*
X155515812Y-98919482D01*
X155528072Y-98795000D01*
X155528072Y-97795000D01*
X155515812Y-97670518D01*
X155479502Y-97550820D01*
X155420537Y-97440506D01*
X155341185Y-97343815D01*
X155244494Y-97264463D01*
X155134180Y-97205498D01*
X155014482Y-97169188D01*
X154890000Y-97156928D01*
X153251730Y-97156928D01*
X152984907Y-96890106D01*
X153029250Y-96890000D01*
X153188000Y-96731250D01*
X153188000Y-95882000D01*
X153442000Y-95882000D01*
X153442000Y-96731250D01*
X153600750Y-96890000D01*
X154890000Y-96893072D01*
X155014482Y-96880812D01*
X155134180Y-96844502D01*
X155244494Y-96785537D01*
X155341185Y-96706185D01*
X155420537Y-96609494D01*
X155479502Y-96499180D01*
X155515812Y-96379482D01*
X155528072Y-96255000D01*
X155525000Y-96040750D01*
X155366250Y-95882000D01*
X153442000Y-95882000D01*
X153188000Y-95882000D01*
X151263750Y-95882000D01*
X151105000Y-96040750D01*
X151101928Y-96255000D01*
X151114188Y-96379482D01*
X151138403Y-96459307D01*
X151038738Y-96558972D01*
X150936414Y-96712111D01*
X150865932Y-96882271D01*
X150830000Y-97062911D01*
X85775000Y-97062911D01*
X85775000Y-95792911D01*
X145115000Y-95792911D01*
X145115000Y-95977089D01*
X145150932Y-96157729D01*
X145221414Y-96327889D01*
X145323738Y-96481028D01*
X145453972Y-96611262D01*
X145607111Y-96713586D01*
X145777271Y-96784068D01*
X145957911Y-96820000D01*
X146142089Y-96820000D01*
X146322729Y-96784068D01*
X146330031Y-96781044D01*
X146335506Y-96785537D01*
X146445820Y-96844502D01*
X146565518Y-96880812D01*
X146690000Y-96893072D01*
X149840000Y-96893072D01*
X149964482Y-96880812D01*
X150084180Y-96844502D01*
X150194494Y-96785537D01*
X150291185Y-96706185D01*
X150370537Y-96609494D01*
X150429502Y-96499180D01*
X150465812Y-96379482D01*
X150478072Y-96255000D01*
X150478072Y-95255000D01*
X151101928Y-95255000D01*
X151105000Y-95469250D01*
X151263750Y-95628000D01*
X153188000Y-95628000D01*
X153188000Y-94778750D01*
X153442000Y-94778750D01*
X153442000Y-95628000D01*
X155366250Y-95628000D01*
X155525000Y-95469250D01*
X155528072Y-95255000D01*
X155515812Y-95130518D01*
X155479502Y-95010820D01*
X155420537Y-94900506D01*
X155341185Y-94803815D01*
X155244494Y-94724463D01*
X155134180Y-94665498D01*
X155014482Y-94629188D01*
X154890000Y-94616928D01*
X153600750Y-94620000D01*
X153442000Y-94778750D01*
X153188000Y-94778750D01*
X153029250Y-94620000D01*
X151740000Y-94616928D01*
X151615518Y-94629188D01*
X151495820Y-94665498D01*
X151385506Y-94724463D01*
X151288815Y-94803815D01*
X151209463Y-94900506D01*
X151150498Y-95010820D01*
X151114188Y-95130518D01*
X151101928Y-95255000D01*
X150478072Y-95255000D01*
X150465812Y-95130518D01*
X150429502Y-95010820D01*
X150370537Y-94900506D01*
X150291185Y-94803815D01*
X150194494Y-94724463D01*
X150084180Y-94665498D01*
X149964482Y-94629188D01*
X149840000Y-94616928D01*
X146690000Y-94616928D01*
X146565518Y-94629188D01*
X146445820Y-94665498D01*
X146335506Y-94724463D01*
X146238815Y-94803815D01*
X146159463Y-94900506D01*
X146133007Y-94950000D01*
X145957911Y-94950000D01*
X145777271Y-94985932D01*
X145607111Y-95056414D01*
X145453972Y-95158738D01*
X145323738Y-95288972D01*
X145221414Y-95442111D01*
X145150932Y-95612271D01*
X145115000Y-95792911D01*
X85775000Y-95792911D01*
X85775000Y-95511616D01*
X87913736Y-93372880D01*
X196820265Y-93372880D01*
X198959002Y-95511617D01*
M02*
