  0
SECTION
  2
HEADER
  9
$ANGBASE
  50
0.0
  9
$ANGDIR
  70
1
  9
$MEASUREMENT
  70
0
  0
ENDSEC
  0
SECTION
  2
TABLES
  0
TABLE
  2
LTYPE
  70
4
  0
LTYPE
  5
40F
  2
CONTINUOUS
  70
0
  3
Solid line
  72
65
  73
0
  40
0.0
  0
LTYPE
  5
410
  2
DASHDOT
 70
0
  3
Dash Dot ____ _ ____ _
 72
65
 73
4
 40
2.0
 49
1.25
 49
-0.25
 49
0.25
 49
-0.25
  0
LTYPE
  5
411
  2
DASHED
 70
0
  3
Dashed __ __ __ __ __
 72
65
 73
2
 40
0.75
 49
0.5
 49
-0.25
  0
LTYPE
  5
43B
  2
DOTTED
 70
0
  3
Dotted .  .  .  .
 72
65
 73
2
 40
0.2
 49
0.0
 49
-0.2
  0
ENDTAB
  0
TABLE
  2
STYLE
  70
4
  0
STYLE
  2
KICAD
  70
0
  40
0
  41
1
  42
1
  50
0
  71
0
  3
isocp.shx
  0
STYLE
  2
KICADB
  70
0
  40
0
  41
1
  42
1
  50
0
  71
0
  3
isocp.shx
  0
STYLE
  2
KICADI
  70
0
  40
0
  41
1
  42
1
  50
15
  71
0
  3
isocp.shx
  0
STYLE
  2
KICADBI
  70
0
  40
0
  41
1
  42
1
  50
15
  71
0
  3
isocp.shx
  0
ENDTAB
  0
TABLE
  2
LAYER
  70
1
  0
LAYER
  2
BLACK
  70
0
  62
7
  6
CONTINUOUS
  0
ENDTAB
  0
ENDSEC
  0
SECTION
  2
ENTITIES
0
CIRCLE
8
BLACK
10
7.8
20
-3.924
40
0.0846457
0
CIRCLE
8
BLACK
10
3.75
20
-2.499
40
0.0846457
0
LINE
8
BLACK
6
CONTINUOUS
10
6.44213
20
-3.06339
11
6.44213
21
-3.20118
0
ARC
8
BLACK
10
9.07913
20
-2.71417
40
0.0393701
50
-180
51
-90
0
ARC
8
BLACK
10
4.40039
20
-1.89961
40
0.0393701
50
-90
51
-0
0
LINE
8
BLACK
6
CONTINUOUS
10
3.44764
20
-1.96142
11
3.25472
21
-1.96142
0
LINE
8
BLACK
6
CONTINUOUS
10
7.13079
20
-3.82709
11
7.04222
21
-3.72154
0
ARC
8
BLACK
10
5.64173
20
-1.77165
40
0.0393701
50
90
51
180
0
LINE
8
BLACK
6
CONTINUOUS
10
5.26962
20
-2.44401
11
5.48137
21
-2.52108
0
ARC
8
BLACK
10
3.87953
20
-2.12756
40
0.0393701
50
90
51
180
0
LINE
8
BLACK
6
CONTINUOUS
10
5.60236
20
-1.90945
11
5.60236
21
-1.77165
0
ARC
8
BLACK
10
6.67906
20
-3.57223
40
0.0393712
50
50.0015
51
140.001
0
ARC
8
BLACK
10
6.9189
20
-2.32047
40
0.0393701
50
-180
51
-90
0
ARC
8
BLACK
10
6.19646
20
-3.29004
40
0.0393701
50
-0
51
90
0
LINE
8
BLACK
6
CONTINUOUS
10
4.65236
20
-1.70591
11
4.65236
21
-2.04449
0
ARC
8
BLACK
10
6.07402
20
-2.9622
40
0.0393701
50
-0
51
90
0
ARC
8
BLACK
10
8.595
20
-2.71417
40
0.0393701
50
-180
51
-90
0
LINE
8
BLACK
6
CONTINUOUS
10
4.6921
20
-3.69447
11
4.88412
21
-3.5836
0
LINE
8
BLACK
6
CONTINUOUS
10
3.60669
20
-2.53622
11
3.4689
21
-2.53622
0
LINE
8
BLACK
6
CONTINUOUS
10
5.84646
20
-3.90354
11
5.65354
21
-3.90354
0
LINE
8
BLACK
6
CONTINUOUS
10
5.88583
20
-3.72638
11
5.88583
21
-3.86417
0
LINE
8
BLACK
6
CONTINUOUS
10
8.07146
20
-1.94882
11
7.87854
21
-1.94882
0
ARC
8
BLACK
10
7.39921
20
-3.18071
40
0.0393701
50
90
51
180
0
ARC
8
BLACK
10
8.595
20
-2.57638
40
0.0393701
50
90
51
180
0
LINE
8
BLACK
6
CONTINUOUS
10
4.51417
20
-3.11339
11
4.51417
21
-2.97559
0
LINE
8
BLACK
6
CONTINUOUS
10
3.03346
20
-1.78425
11
3.03346
21
-1.92205
0
ARC
8
BLACK
10
5.84646
20
-3.86417
40
0.0393701
50
-90
51
-0
0
ARC
8
BLACK
10
6.19646
20
-3.48296
40
0.0393701
50
-90
51
-0
0
LINE
8
BLACK
6
CONTINUOUS
10
7.39921
20
-3.6437
11
7.59213
21
-3.6437
0
ARC
8
BLACK
10
7.87854
20
-1.90945
40
0.0393701
50
-180
51
-90
0
ARC
8
BLACK
10
7.87854
20
-1.77165
40
0.0393701
50
90
51
180
0
LINE
8
BLACK
6
CONTINUOUS
10
7.59213
20
-3.14134
11
7.39921
21
-3.14134
0
ARC
8
BLACK
10
3.25472
20
-1.92205
40
0.0393701
50
-180
51
-90
0
ARC
8
BLACK
10
6.38772
20
-2.42537
40
0.0393686
50
49.9979
51
140.005
0
ARC
8
BLACK
10
6.35984
20
-1.76181
40
0.0393701
50
90
51
180
0
LINE
8
BLACK
6
CONTINUOUS
10
5.8811
20
-2.92283
11
6.07402
21
-2.92283
0
ARC
8
BLACK
10
7.65157
20
-2.54094
40
0.0393701
50
90
51
180
0
ARC
8
BLACK
10
6.72435
20
-2.54938
40
0.0393715
50
-229.998
51
-140.005
0
ARC
8
BLACK
10
6.9607
20
-2.53093
40
0.0393685
50
-50.0023
51
39.9984
0
ARC
8
BLACK
10
7.43354
20
-1.90945
40
0.0393701
50
-180
51
-90
0
ARC
8
BLACK
10
5.65354
20
-3.72638
40
0.0393701
50
90
51
180
0
LINE
8
BLACK
6
CONTINUOUS
10
6.40276
20
-3.76226
11
6.20984
21
-3.76226
0
LINE
8
BLACK
6
CONTINUOUS
10
7.6122
20
-2.67874
11
7.6122
21
-2.54094
0
LINE
8
BLACK
6
CONTINUOUS
10
6.69904
20
-2.51922
11
6.84682
21
-2.39522
0
ARC
8
BLACK
10
5.15512
20
-2.32047
40
0.0393701
50
-90
51
-0
0
ARC
8
BLACK
10
5.8248
20
-2.12756
40
0.0393701
50
90
51
180
0
LINE
8
BLACK
6
CONTINUOUS
10
5.29843
20
-3.25067
11
5.43622
21
-3.25067
0
LINE
8
BLACK
6
CONTINUOUS
10
5.47559
20
-3.29004
11
5.47559
21
-3.48296
0
LINE
8
BLACK
6
CONTINUOUS
10
7.88386
20
-2.54094
11
7.88386
21
-2.67874
0
ARC
8
BLACK
10
6.05866
20
-3.29004
40
0.0393701
50
90
51
180
0
ARC
8
BLACK
10
9.07913
20
-2.57638
40
0.0393701
50
90
51
180
0
ARC
8
BLACK
10
3.60669
20
-2.02323
40
0.0393701
50
-0
51
90
0
ARC
8
BLACK
10
4.51932
20
-3.8479
40
0.0393689
50
-119.999
51
-89.9979
0
ARC
8
BLACK
10
5.17854
20
-1.90945
40
0.0393701
50
-180
51
-90
0
ARC
8
BLACK
10
6.40276
20
-3.06339
40
0.0393701
50
-0
51
90
0
LINE
8
BLACK
6
CONTINUOUS
10
5.8248
20
-2.08819
11
5.9626
21
-2.08819
0
LINE
8
BLACK
6
CONTINUOUS
10
5.80838
20
-2.64749
11
5.59663
21
-2.72456
0
ARC
8
BLACK
10
5.29843
20
-3.29004
40
0.0393701
50
90
51
180
0
LINE
8
BLACK
6
CONTINUOUS
10
5.01732
20
-2.08819
11
5.15512
21
-2.08819
0
ARC
8
BLACK
10
8.64173
20
-2.12756
40
0.0393701
50
-0
51
90
0
ARC
8
BLACK
10
3.35487
20
-2.50022
40
0.0393693
50
14.9989
51
105.001
0
LINE
8
BLACK
6
CONTINUOUS
10
4.78068
20
-3.88727
11
4.51932
21
-3.88727
0
LINE
8
BLACK
6
CONTINUOUS
10
4.69173
20
-2.77559
11
5.08543
21
-2.77559
0
ARC
8
BLACK
10
5.49483
20
-2.4841
40
0.0393589
50
-110.004
51
-89.9987
0
ARC
8
BLACK
10
5.20902
20
-2.61049
40
0.0393703
50
-200
51
-109.999
0
ARC
8
BLACK
10
6.32795
20
-2.32047
40
0.0393701
50
-90
51
-0
0
ARC
8
BLACK
10
5.42717
20
-3.1
40
0.0393701
50
-180
51
-90
0
LINE
8
BLACK
6
CONTINUOUS
10
3.10874
20
-2.52149
11
3.11371
21
-2.52184
0
LINE
8
BLACK
6
CONTINUOUS
10
8.11083
20
-1.77165
11
8.11083
21
-1.90945
0
LINE
8
BLACK
6
CONTINUOUS
10
4.94331
20
-3.49724
11
5.0811
21
-3.49724
0
LINE
8
BLACK
6
CONTINUOUS
10
9.07913
20
-2.53701
11
9.27205
21
-2.53701
0
LINE
8
BLACK
6
CONTINUOUS
10
8.09016
20
-2.08819
11
8.22795
21
-2.08819
0
LINE
8
BLACK
6
CONTINUOUS
10
3.93937
20
-2.71417
11
3.93937
21
-2.57638
0
ARC
8
BLACK
10
6.87212
20
-2.42538
40
0.0393695
50
39.9992
51
129.998
0
LINE
8
BLACK
6
CONTINUOUS
10
8.6811
20
-2.12756
11
8.6811
21
-2.32047
0
LINE
8
BLACK
6
CONTINUOUS
10
5.1248
20
-2.73622
11
5.1248
21
-1.70591
0
LINE
8
BLACK
6
CONTINUOUS
10
6.01929
20
-3.48296
11
6.01929
21
-3.29004
0
CIRCLE
8
BLACK
10
3.75
20
-1.624
40
0.0846457
0
ARC
8
BLACK
10
5.17854
20
-1.77165
40
0.0393701
50
90
51
180
0
LINE
8
BLACK
6
CONTINUOUS
10
5.43622
20
-3.52233
11
5.29843
21
-3.52233
0
ARC
8
BLACK
10
5.25615
20
-2.48101
40
0.0393706
50
70.0009
51
160
0
ARC
8
BLACK
10
7.22015
20
-3.57223
40
0.0393695
50
39.9992
51
129.998
0
LINE
8
BLACK
6
CONTINUOUS
10
3.64606
20
-2.02323
11
3.64606
21
-2.49685
0
ARC
8
BLACK
10
4.40039
20
-1.76181
40
0.0393701
50
-0
51
90
0
LINE
8
BLACK
6
CONTINUOUS
10
7.04917
20
-3.04331
11
7.04917
21
-2.90551
0
LINE
8
BLACK
6
CONTINUOUS
10
6.78276
20
-2.68024
11
6.69418
21
-2.57469
0
LINE
8
BLACK
6
CONTINUOUS
10
6.70436
20
-3.54207
11
6.85214
21
-3.66607
0
LINE
8
BLACK
6
CONTINUOUS
10
5.41083
20
-1.77165
11
5.41083
21
-1.90945
0
ARC
8
BLACK
10
4.74646
20
-2.97559
40
0.0393701
50
-0
51
90
0
LINE
8
BLACK
6
CONTINUOUS
10
4.65236
20
-2.39782
11
4.65236
21
-2.73622
0
LINE
8
BLACK
6
CONTINUOUS
10
8.05079
20
-2.32047
11
8.05079
21
-2.12756
0
LINE
8
BLACK
6
CONTINUOUS
10
8.46457
20
-2.32047
11
8.46457
21
-2.12756
0
ARC
8
BLACK
10
2.80118
20
-1.78425
40
0.0393701
50
90
51
180
0
LINE
8
BLACK
6
CONTINUOUS
10
6.94685
20
-1.76181
11
6.94685
21
-1.89961
0
ARC
8
BLACK
10
5.58316
20
-2.68756
40
0.0393708
50
-90.0006
51
-70.0011
0
ARC
8
BLACK
10
7.62646
20
-1.90945
40
0.0393701
50
-90
51
-0
0
ARC
8
BLACK
10
3.44764
20
-1.78425
40
0.0393701
50
-0
51
90
0
LINE
8
BLACK
6
CONTINUOUS
10
4.43976
20
-1.76181
11
4.43976
21
-1.89961
0
ARC
8
BLACK
10
4.61299
20
-2.39781
40
0.0393695
50
-0.000859437
51
90.2581
0
ARC
8
BLACK
10
4.69173
20
-1.70591
40
0.0393701
50
90
51
180
0
LINE
8
BLACK
6
CONTINUOUS
10
6.9189
20
-2.08819
11
7.05669
21
-2.08819
0
ARC
8
BLACK
10
4.35433
20
-3.29004
40
0.0393701
50
-0
51
90
0
ARC
8
BLACK
10
3.39053
20
-2.63332
40
0.0393686
50
-75.0022
51
15.0028
0
ARC
8
BLACK
10
5.83465
20
-1.77165
40
0.0393701
50
-0
51
90
0
LINE
8
BLACK
6
CONTINUOUS
10
6.90748
20
-1.93898
11
6.35984
21
-1.93898
0
LINE
8
BLACK
6
CONTINUOUS
10
6.81146
20
-3.08268
11
6.61854
21
-3.08268
0
LINE
8
BLACK
6
CONTINUOUS
10
7.47835
20
-2.12756
11
7.47835
21
-2.32047
0
ARC
8
BLACK
10
4.60422
20
-2.31911
40
0.03937
50
-179.836
51
-89.7404
0
ARC
8
BLACK
10
5.37146
20
-1.77165
40
0.0393701
50
-0
51
90
0
ARC
8
BLACK
10
8.50394
20
-2.12756
40
0.0393701
50
90
51
180
0
LINE
8
BLACK
6
CONTINUOUS
10
4.2932
20
-3.71734
11
4.36209
21
-3.59801
0
ARC
8
BLACK
10
5.08543
20
-1.70591
40
0.0393701
50
-0
51
90
0
ARC
8
BLACK
10
5.8811
20
-2.9622
40
0.0393701
50
90
51
180
0
LINE
8
BLACK
6
CONTINUOUS
10
5.42717
20
-2.92283
11
5.62008
21
-2.92283
0
LINE
8
BLACK
6
CONTINUOUS
10
4.78583
20
-2.97559
11
4.78583
21
-3.11339
0
ARC
8
BLACK
10
4.32729
20
-3.73703
40
0.0393655
50
-210.007
51
-119.995
0
ARC
8
BLACK
10
4.21654
20
-3.48296
40
0.0393701
50
-180
51
-90
0
LINE
8
BLACK
6
CONTINUOUS
10
5.12047
20
-3.45787
11
5.12047
21
-3.26496
0
ARC
8
BLACK
10
3.87953
20
-2.32047
40
0.0393701
50
-180
51
-90
0
LINE
8
BLACK
6
CONTINUOUS
10
6.35984
20
-1.72244
11
6.90748
21
-1.72244
0
ARC
8
BLACK
10
7.84449
20
-2.67874
40
0.0393701
50
-90
51
-0
0
ARC
8
BLACK
10
5.08543
20
-2.73622
40
0.0393701
50
-90
51
-0
0
ARC
8
BLACK
10
7.59213
20
-3.18071
40
0.0393701
50
-0
51
90
0
ARC
8
BLACK
10
3.25472
20
-1.78425
40
0.0393701
50
90
51
180
0
ARC
8
BLACK
10
7.43354
20
-1.77165
40
0.0393701
50
90
51
180
0
ARC
8
BLACK
10
4.90381
20
-3.61769
40
0.0393689
50
29.9983
51
120.003
0
ARC
8
BLACK
10
6.20984
20
-3.20118
40
0.0393701
50
-180
51
-90
0
LINE
8
BLACK
6
CONTINUOUS
10
6.44213
20
-3.58509
11
6.44213
21
-3.72289
0
ARC
8
BLACK
10
3.17207
20
-2.69185
40
0.0393719
50
-92.6801
51
-74.9989
0
LINE
8
BLACK
6
CONTINUOUS
10
4.41588
20
-3.5836
11
4.6079
21
-3.69447
0
LINE
8
BLACK
6
CONTINUOUS
10
6.857
20
-3.72154
11
6.76842
21
-3.82709
0
LINE
8
BLACK
6
CONTINUOUS
10
8.595
20
-2.53701
11
8.78791
21
-2.53701
0
LINE
8
BLACK
6
CONTINUOUS
10
7.39417
20
-1.90945
11
7.39417
21
-1.77165
0
ARC
8
BLACK
10
5.9626
20
-2.32047
40
0.0393701
50
-90
51
-0
0
ARC
8
BLACK
10
7.05669
20
-2.12756
40
0.0393701
50
-0
51
90
0
LINE
8
BLACK
6
CONTINUOUS
10
6.42162
20
-2.6851
11
6.27384
21
-2.56109
0
LINE
8
BLACK
6
CONTINUOUS
10
3.17023
20
-2.73118
11
3.03518
21
-2.72485
0
LINE
8
BLACK
6
CONTINUOUS
10
4.17717
20
-3.48296
11
4.17717
21
-3.29004
0
LINE
8
BLACK
6
CONTINUOUS
10
6.00197
20
-2.12756
11
6.00197
21
-2.32047
0
LINE
8
BLACK
6
CONTINUOUS
10
5.19449
20
-2.12756
11
5.19449
21
-2.32047
0
LINE
8
BLACK
6
CONTINUOUS
10
5.84173
20
-3.1
11
5.84173
21
-2.9622
0
LINE
8
BLACK
6
CONTINUOUS
10
8.67362
20
-1.74685
11
9.15945
21
-1.74685
0
LINE
8
BLACK
6
CONTINUOUS
10
2.80118
20
-1.74488
11
2.99409
21
-1.74488
0
ARC
8
BLACK
10
8.64173
20
-2.32047
40
0.0393701
50
-90
51
-0
0
ARC
8
BLACK
10
4.35433
20
-3.48296
40
0.0393701
50
-90
51
-0
0
ARC
8
BLACK
10
5.29843
20
-3.48296
40
0.0393701
50
-180
51
-90
0
LINE
8
BLACK
6
CONTINUOUS
10
2.78738
20
-2.59467
11
2.83451
21
-2.46518
0
LINE
8
BLACK
6
CONTINUOUS
10
4.20748
20
-1.72244
11
4.40039
21
-1.72244
0
LINE
8
BLACK
6
CONTINUOUS
10
7.65157
20
-2.50157
11
7.84449
21
-2.50157
0
ARC
8
BLACK
10
4.20748
20
-1.89961
40
0.0393701
50
-180
51
-90
0
LINE
8
BLACK
6
CONTINUOUS
10
8.26732
20
-2.12756
11
8.26732
21
-2.32047
0
ARC
8
BLACK
10
4.17165
20
-2.57638
40
0.0393701
50
-0
51
90
0
ARC
8
BLACK
10
3.11153
20
-2.48223
40
0.0393525
50
-110.002
51
-94.0629
0
LINE
8
BLACK
6
CONTINUOUS
10
9.19882
20
-1.78622
11
9.19882
21
-1.92402
0
LINE
8
BLACK
6
CONTINUOUS
10
5.40731
20
-2.72456
11
5.19556
21
-2.64749
0
LINE
8
BLACK
6
CONTINUOUS
10
7.32083
20
-2.90551
11
7.32083
21
-3.04331
0
ARC
8
BLACK
10
6.35984
20
-1.89961
40
0.0393701
50
-180
51
-90
0
LINE
8
BLACK
6
CONTINUOUS
10
6.20984
20
-3.54572
11
6.40276
21
-3.54572
0
LINE
8
BLACK
6
CONTINUOUS
10
3.40072
20
-2.67135
11
3.18227
21
-2.72988
0
ARC
8
BLACK
10
9.27205
20
-2.57638
40
0.0393701
50
-0
51
90
0
ARC
8
BLACK
10
6.81146
20
-2.90551
40
0.0393701
50
-0
51
90
0
ARC
8
BLACK
10
7.43898
20
-2.32047
40
0.0393701
50
-90
51
-0
0
ARC
8
BLACK
10
3.1165
20
-2.48257
40
0.0393715
50
-94.0669
51
-74.9998
0
ARC
8
BLACK
10
5.8248
20
-2.32047
40
0.0393701
50
-180
51
-90
0
ARC
8
BLACK
10
6.90748
20
-1.76181
40
0.0393701
50
-0
51
90
0
ARC
8
BLACK
10
3.60669
20
-2.49685
40
0.0393701
50
-90
51
-0
0
LINE
8
BLACK
6
CONTINUOUS
10
7.62646
20
-1.94882
11
7.43354
21
-1.94882
0
LINE
8
BLACK
6
CONTINUOUS
10
3.97874
20
-2.53701
11
4.17165
21
-2.53701
0
LINE
8
BLACK
6
CONTINUOUS
10
3.84016
20
-2.32047
11
3.84016
21
-2.12756
0
LINE
8
BLACK
6
CONTINUOUS
10
4.01732
20
-2.35984
11
3.87953
21
-2.35984
0
ARC
8
BLACK
10
9.15945
20
-1.92402
40
0.0393701
50
-90
51
-0
0
ARC
8
BLACK
10
7.62646
20
-1.77165
40
0.0393701
50
-0
51
90
0
ARC
8
BLACK
10
7.30118
20
-2.12756
40
0.0393701
50
90
51
180
0
ARC
8
BLACK
10
5.62008
20
-3.1
40
0.0393701
50
-90
51
-0
0
ARC
8
BLACK
10
6.40276
20
-3.58509
40
0.0393701
50
-0
51
90
0
LINE
8
BLACK
6
CONTINUOUS
10
9.31142
20
-2.57638
11
9.31142
21
-2.71417
0
ARC
8
BLACK
10
4.01732
20
-2.12756
40
0.0393701
50
-0
51
90
0
LINE
8
BLACK
6
CONTINUOUS
10
4.05669
20
-2.12756
11
4.05669
21
-2.32047
0
ARC
8
BLACK
10
6.07402
20
-3.1
40
0.0393701
50
-90
51
-0
0
ARC
8
BLACK
10
5.43622
20
-3.29004
40
0.0393701
50
-0
51
90
0
ARC
8
BLACK
10
7.84449
20
-2.54094
40
0.0393701
50
-0
51
90
0
ARC
8
BLACK
10
6.61854
20
-2.90551
40
0.0393701
50
90
51
180
0
ARC
8
BLACK
10
4.62759
20
-3.66038
40
0.0393594
50
-120.006
51
-89.9979
0
LINE
8
BLACK
6
CONTINUOUS
10
5.78543
20
-2.32047
11
5.78543
21
-2.12756
0
ARC
8
BLACK
10
6.90748
20
-1.89961
40
0.0393701
50
-90
51
-0
0
LINE
8
BLACK
6
CONTINUOUS
10
7.33403
20
-3.70794
11
7.18625
21
-3.83195
0
LINE
8
BLACK
6
CONTINUOUS
10
8.82728
20
-2.57638
11
8.82728
21
-2.71417
0
ARC
8
BLACK
10
4.94331
20
-3.26496
40
0.0393701
50
90
51
180
0
LINE
8
BLACK
6
CONTINUOUS
10
5.3878
20
-3.1
11
5.3878
21
-2.9622
0
LINE
8
BLACK
6
CONTINUOUS
10
4.49964
20
-3.88199
11
4.30761
21
-3.77112
0
LINE
8
BLACK
6
CONTINUOUS
10
5.25906
20
-3.48296
11
5.25906
21
-3.29004
0
ARC
8
BLACK
10
6.05866
20
-3.48296
40
0.0393701
50
-180
51
-90
0
ARC
8
BLACK
10
5.74778
20
-2.48101
40
0.0393703
50
20.0004
51
109.999
0
ARC
8
BLACK
10
7.16095
20
-3.80178
40
0.0393725
50
-139.996
51
-50.0052
0
LINE
8
BLACK
6
CONTINUOUS
10
3.42953
20
-2.49685
11
3.42953
21
-2.02323
0
LINE
8
BLACK
6
CONTINUOUS
10
8.22795
20
-2.35984
11
8.09016
21
-2.35984
0
LINE
8
BLACK
6
CONTINUOUS
10
4.21102
20
-2.57638
11
4.21102
21
-2.71417
0
ARC
8
BLACK
10
7.30118
20
-2.32047
40
0.0393701
50
-180
51
-90
0
LINE
8
BLACK
6
CONTINUOUS
10
8.64173
20
-2.35984
11
8.50394
21
-2.35984
0
LINE
8
BLACK
6
CONTINUOUS
10
4.35433
20
-3.52233
11
4.21654
21
-3.52233
0
LINE
8
BLACK
6
CONTINUOUS
10
4.40039
20
-1.93898
11
4.20748
21
-1.93898
0
LINE
8
BLACK
6
CONTINUOUS
10
3.02355
20
-2.72252
11
2.81091
21
-2.64513
0
LINE
8
BLACK
6
CONTINUOUS
10
6.19646
20
-3.52233
11
6.05866
21
-3.52233
0
ARC
8
BLACK
10
4.97271
20
-3.73703
40
0.0393679
50
-60.0031
51
29.9988
0
LINE
8
BLACK
6
CONTINUOUS
10
5.87402
20
-1.77165
11
5.87402
21
-1.90945
0
ARC
8
BLACK
10
7.07237
20
-3.69623
40
0.0393685
50
-230.002
51
-140.002
0
LINE
8
BLACK
6
CONTINUOUS
10
5.64173
20
-1.73228
11
5.83465
21
-1.73228
0
ARC
8
BLACK
10
7.08854
20
-3.04331
40
0.0393701
50
-180
51
-90
0
ARC
8
BLACK
10
6.20984
20
-3.72289
40
0.0393701
50
-180
51
-90
0
LINE
8
BLACK
6
CONTINUOUS
10
4.17165
20
-2.75354
11
3.97874
21
-2.75354
0
LINE
8
BLACK
6
CONTINUOUS
10
5.0811
20
-3.22559
11
4.94331
21
-3.22559
0
LINE
8
BLACK
6
CONTINUOUS
10
4.93791
20
-3.59801
11
5.0068
21
-3.71734
0
ARC
8
BLACK
10
5.64173
20
-1.90945
40
0.0393701
50
-180
51
-90
0
ARC
8
BLACK
10
4.60366
20
-2.12323
40
0.0393713
50
-269.998
51
-179.836
0
LINE
8
BLACK
6
CONTINUOUS
10
7.08854
20
-2.86614
11
7.28146
21
-2.86614
0
LINE
8
BLACK
6
CONTINUOUS
10
4.16811
20
-1.89961
11
4.16811
21
-1.76181
0
LINE
8
BLACK
6
CONTINUOUS
10
7.35984
20
-3.18071
11
7.35984
21
-3.60433
0
LINE
8
BLACK
6
CONTINUOUS
10
4.55354
20
-2.93622
11
4.74646
21
-2.93622
0
LINE
8
BLACK
6
CONTINUOUS
10
3.87953
20
-2.08819
11
4.01732
21
-2.08819
0
ARC
8
BLACK
10
4.69173
20
-2.73622
40
0.0393701
50
-180
51
-90
0
LINE
8
BLACK
6
CONTINUOUS
10
5.08543
20
-1.66654
11
4.69173
21
-1.66654
0
LINE
8
BLACK
6
CONTINUOUS
10
4.61299
20
-2.08386
11
4.60366
21
-2.08386
0
LINE
8
BLACK
6
CONTINUOUS
10
5.78478
20
-2.46754
11
5.83191
21
-2.59703
0
LINE
8
BLACK
6
CONTINUOUS
10
6.56566
20
-2.57469
11
6.47709
21
-2.68024
0
ARC
8
BLACK
10
3.97874
20
-2.57638
40
0.0393701
50
90
51
180
0
ARC
8
BLACK
10
2.80118
20
-1.92205
40
0.0393701
50
-180
51
-90
0
ARC
8
BLACK
10
5.42078
20
-2.68756
40
0.039371
50
-109.999
51
-89.9994
0
LINE
8
BLACK
6
CONTINUOUS
10
4.3937
20
-3.29004
11
4.3937
21
-3.48296
0
LINE
8
BLACK
6
CONTINUOUS
10
3.25472
20
-1.74488
11
3.44764
21
-1.74488
0
LINE
8
BLACK
6
CONTINUOUS
10
7.09606
20
-2.12756
11
7.09606
21
-2.32047
0
ARC
8
BLACK
10
6.81292
20
-2.65493
40
0.0393725
50
-139.996
51
-50.0052
0
ARC
8
BLACK
10
4.55354
20
-2.97559
40
0.0393701
50
90
51
180
0
ARC
8
BLACK
10
8.07146
20
-1.77165
40
0.0393701
50
-0
51
90
0
LINE
8
BLACK
6
CONTINUOUS
10
6.11339
20
-2.9622
11
6.11339
21
-3.1
0
LINE
8
BLACK
6
CONTINUOUS
10
6.05866
20
-3.25067
11
6.19646
21
-3.25067
0
ARC
8
BLACK
10
6.5355
20
-2.54938
40
0.0393712
50
-39.9984
51
50.0023
0
LINE
8
BLACK
6
CONTINUOUS
10
6.17047
20
-3.20118
11
6.17047
21
-3.06339
0
ARC
8
BLACK
10
6.61854
20
-3.04331
40
0.0393701
50
-180
51
-90
0
LINE
8
BLACK
6
CONTINUOUS
10
8.78791
20
-2.75354
11
8.595
21
-2.75354
0
ARC
8
BLACK
10
7.08854
20
-2.90551
40
0.0393701
50
90
51
180
0
ARC
8
BLACK
10
7.30873
20
-3.67778
40
0.0393685
50
-50.0023
51
39.9984
0
LINE
8
BLACK
6
CONTINUOUS
10
4.74646
20
-3.15276
11
4.55354
21
-3.15276
0
ARC
8
BLACK
10
6.32795
20
-2.12756
40
0.0393701
50
-0
51
90
0
ARC
8
BLACK
10
5.79491
20
-2.61049
40
0.0393692
50
-70.0012
51
19.9996
0
ARC
8
BLACK
10
4.61299
20
-2.04449
40
0.0393701
50
-90
51
-0
0
LINE
8
BLACK
6
CONTINUOUS
10
5.62008
20
-3.13937
11
5.42717
21
-3.13937
0
LINE
8
BLACK
6
CONTINUOUS
10
5.58316
20
-2.72693
11
5.42078
21
-2.72693
0
ARC
8
BLACK
10
6.59048
20
-3.67778
40
0.0393712
50
-219.998
51
-129.998
0
LINE
8
BLACK
6
CONTINUOUS
10
4.62759
20
-3.69974
11
4.67241
21
-3.69974
0
ARC
8
BLACK
10
6.81146
20
-3.04331
40
0.0393701
50
-90
51
-0
0
LINE
8
BLACK
6
CONTINUOUS
10
6.32795
20
-2.35984
11
6.19016
21
-2.35984
0
LINE
8
BLACK
6
CONTINUOUS
10
7.83917
20
-1.90945
11
7.83917
21
-1.77165
0
LINE
8
BLACK
6
CONTINUOUS
10
6.17047
20
-3.72289
11
6.17047
21
-3.58509
0
LINE
8
BLACK
6
CONTINUOUS
10
6.26899
20
-2.50563
11
6.35756
21
-2.40007
0
LINE
8
BLACK
6
CONTINUOUS
10
5.15512
20
-2.35984
11
5.01732
21
-2.35984
0
LINE
8
BLACK
6
CONTINUOUS
10
5.83465
20
-1.94882
11
5.64173
21
-1.94882
0
ARC
8
BLACK
10
5.62008
20
-2.9622
40
0.0393701
50
-0
51
90
0
ARC
8
BLACK
10
6.82684
20
-3.69623
40
0.0393657
50
-40.0065
51
50.003
0
LINE
8
BLACK
6
CONTINUOUS
10
6.61854
20
-2.86614
11
6.81146
21
-2.86614
0
LINE
8
BLACK
6
CONTINUOUS
10
6.32047
20
-1.89961
11
6.32047
21
-1.76181
0
ARC
8
BLACK
10
8.50394
20
-2.32047
40
0.0393701
50
-180
51
-90
0
LINE
8
BLACK
6
CONTINUOUS
10
4.90394
20
-3.26496
11
4.90394
21
-3.45787
0
LINE
8
BLACK
6
CONTINUOUS
10
5.37146
20
-1.94882
11
5.17854
21
-1.94882
0
LINE
8
BLACK
6
CONTINUOUS
10
6.41303
20
-2.39522
11
6.56081
21
-2.51922
0
ARC
8
BLACK
10
8.07146
20
-1.90945
40
0.0393701
50
-90
51
-0
0
ARC
8
BLACK
10
8.09016
20
-2.32047
40
0.0393701
50
-180
51
-90
0
LINE
8
BLACK
6
CONTINUOUS
10
2.99409
20
-1.96142
11
2.80118
21
-1.96142
0
ARC
8
BLACK
10
8.09016
20
-2.12756
40
0.0393701
50
90
51
180
0
CIRCLE
8
BLACK
10
8.4
20
-2.499
40
0.0846457
0
LINE
8
BLACK
6
CONTINUOUS
10
7.30118
20
-2.08819
11
7.43898
21
-2.08819
0
ARC
8
BLACK
10
4.20748
20
-1.76181
40
0.0393701
50
90
51
180
0
ARC
8
BLACK
10
8.78791
20
-2.71417
40
0.0393701
50
-90
51
-0
0
LINE
8
BLACK
6
CONTINUOUS
10
2.88497
20
-2.44165
11
3.09807
21
-2.51921
0
LINE
8
BLACK
6
CONTINUOUS
10
8.55563
20
-2.71417
11
8.55563
21
-2.57638
0
LINE
8
BLACK
6
CONTINUOUS
10
3.39289
20
-2.49003
11
3.42856
21
-2.62313
0
LINE
8
BLACK
6
CONTINUOUS
10
7.04707
20
-3.66607
11
7.19485
21
-3.54207
0
ARC
8
BLACK
10
4.01732
20
-2.32047
40
0.0393701
50
-90
51
-0
0
LINE
8
BLACK
6
CONTINUOUS
10
5.65945
20
-2.9622
11
5.65945
21
-3.1
0
ARC
8
BLACK
10
7.43898
20
-2.12756
40
0.0393701
50
-0
51
90
0
ARC
8
BLACK
10
7.65157
20
-2.67874
40
0.0393701
50
-180
51
-90
0
ARC
8
BLACK
10
4.55354
20
-3.11339
40
0.0393701
50
-180
51
-90
0
LINE
8
BLACK
6
CONTINUOUS
10
3.21535
20
-1.92205
11
3.21535
21
-1.78425
0
ARC
8
BLACK
10
9.27205
20
-2.71417
40
0.0393701
50
-90
51
-0
0
ARC
8
BLACK
10
8.67362
20
-1.92402
40
0.0393701
50
-180
51
-90
0
LINE
8
BLACK
6
CONTINUOUS
10
2.76181
20
-1.92205
11
2.76181
21
-1.78425
0
LINE
8
BLACK
6
CONTINUOUS
10
9.03976
20
-2.71417
11
9.03976
21
-2.57638
0
LINE
8
BLACK
6
CONTINUOUS
10
6.57917
20
-3.04331
11
6.57917
21
-2.90551
0
ARC
8
BLACK
10
4.94331
20
-3.45787
40
0.0393701
50
-180
51
-90
0
ARC
8
BLACK
10
9.15945
20
-1.78622
40
0.0393701
50
-0
51
90
0
LINE
8
BLACK
6
CONTINUOUS
10
6.71296
20
-3.83195
11
6.56518
21
-3.70794
0
LINE
8
BLACK
6
CONTINUOUS
10
7.43898
20
-2.35984
11
7.30118
21
-2.35984
0
LINE
8
BLACK
6
CONTINUOUS
10
7.05669
20
-2.35984
11
6.9189
21
-2.35984
0
LINE
8
BLACK
6
CONTINUOUS
10
6.986
20
-2.56109
11
6.83822
21
-2.6851
0
ARC
8
BLACK
10
5.0811
20
-3.45787
40
0.0393701
50
-90
51
-0
0
LINE
8
BLACK
6
CONTINUOUS
10
6.23583
20
-3.29004
11
6.23583
21
-3.48296
0
ARC
8
BLACK
10
3.03702
20
-2.68552
40
0.0393719
50
-109.999
51
-92.6819
0
ARC
8
BLACK
10
3.44764
20
-1.92205
40
0.0393701
50
-90
51
-0
0
ARC
8
BLACK
10
6.73826
20
-3.80179
40
0.0393712
50
-129.998
51
-39.9992
0
ARC
8
BLACK
10
7.28146
20
-2.90551
40
0.0393701
50
-0
51
90
0
ARC
8
BLACK
10
2.82438
20
-2.60813
40
0.0393703
50
-200
51
-109.999
0
LINE
8
BLACK
6
CONTINUOUS
10
5.13917
20
-1.90945
11
5.13917
21
-1.77165
0
LINE
8
BLACK
6
CONTINUOUS
10
6.19016
20
-2.08819
11
6.32795
21
-2.08819
0
LINE
8
BLACK
6
CONTINUOUS
10
5.52257
20
-2.52108
11
5.73432
21
-2.44401
0
LINE
8
BLACK
6
CONTINUOUS
10
6.85083
20
-2.90551
11
6.85083
21
-3.04331
0
ARC
8
BLACK
10
3.97874
20
-2.71417
40
0.0393701
50
-180
51
-90
0
ARC
8
BLACK
10
6.44693
20
-2.65494
40
0.0393712
50
-129.998
51
-39.9992
0
ARC
8
BLACK
10
5.42717
20
-2.9622
40
0.0393701
50
90
51
180
0
LINE
8
BLACK
6
CONTINUOUS
10
7.26181
20
-2.32047
11
7.26181
21
-2.12756
0
ARC
8
BLACK
10
6.9189
20
-2.12756
40
0.0393701
50
90
51
180
0
LINE
8
BLACK
6
CONTINUOUS
10
3.4689
20
-1.98386
11
3.60669
21
-1.98386
0
ARC
8
BLACK
10
6.40276
20
-3.20118
40
0.0393701
50
-90
51
-0
0
ARC
8
BLACK
10
2.87151
20
-2.47865
40
0.0393706
50
70.0009
51
160
0
LINE
8
BLACK
6
CONTINUOUS
10
7.84449
20
-2.71811
11
7.65157
21
-2.71811
0
LINE
8
BLACK
6
CONTINUOUS
10
5.61417
20
-3.86417
11
5.61417
21
-3.72638
0
LINE
8
BLACK
6
CONTINUOUS
10
5.9626
20
-2.35984
11
5.8248
21
-2.35984
0
ARC
8
BLACK
10
8.22795
20
-2.12756
40
0.0393701
50
-0
51
90
0
ARC
8
BLACK
10
3.4689
20
-2.49685
40
0.0393701
50
-180
51
-90
0
LINE
8
BLACK
6
CONTINUOUS
10
7.28146
20
-3.08268
11
7.08854
21
-3.08268
0
LINE
8
BLACK
6
CONTINUOUS
10
4.21654
20
-3.25067
11
4.35433
21
-3.25067
0
ARC
8
BLACK
10
8.78791
20
-2.57638
40
0.0393701
50
-0
51
90
0
ARC
8
BLACK
10
7.59213
20
-3.60433
40
0.0393701
50
-90
51
-0
0
ARC
8
BLACK
10
7.05669
20
-2.32047
40
0.0393701
50
-90
51
-0
0
ARC
8
BLACK
10
5.84646
20
-3.72638
40
0.0393701
50
-0
51
90
0
LINE
8
BLACK
6
CONTINUOUS
10
5.17854
20
-1.73228
11
5.37146
21
-1.73228
0
ARC
8
BLACK
10
6.19016
20
-2.32047
40
0.0393701
50
-180
51
-90
0
ARC
8
BLACK
10
5.43622
20
-3.48296
40
0.0393701
50
-90
51
-0
0
ARC
8
BLACK
10
4.74646
20
-3.11339
40
0.0393701
50
-90
51
-0
0
LINE
8
BLACK
6
CONTINUOUS
10
5.49484
20
-2.52346
11
5.5091
21
-2.52346
0
ARC
8
BLACK
10
6.20984
20
-3.06339
40
0.0393701
50
90
51
180
0
ARC
8
BLACK
10
6.19016
20
-2.12756
40
0.0393701
50
90
51
180
0
LINE
8
BLACK
6
CONTINUOUS
10
6.15079
20
-2.32047
11
6.15079
21
-2.12756
0
LINE
8
BLACK
6
CONTINUOUS
10
5.65354
20
-3.68701
11
5.84646
21
-3.68701
0
ARC
8
BLACK
10
6.40276
20
-3.72289
40
0.0393701
50
-90
51
-0
0
ARC
8
BLACK
10
4.39619
20
-3.6177
40
0.0393697
50
59.9994
51
149.997
0
ARC
8
BLACK
10
2.99409
20
-1.92205
40
0.0393701
50
-90
51
-0
0
LINE
8
BLACK
6
CONTINUOUS
10
4.60439
20
-2.35848
11
4.61281
21
-2.35845
0
LINE
8
BLACK
6
CONTINUOUS
10
6.90228
20
-2.40007
11
6.99086
21
-2.50563
0
LINE
8
BLACK
6
CONTINUOUS
10
7.6315
20
-3.60433
11
7.6315
21
-3.18071
0
LINE
8
BLACK
6
CONTINUOUS
10
6.20984
20
-3.02402
11
6.40276
21
-3.02402
0
ARC
8
BLACK
10
2.99409
20
-1.78425
40
0.0393701
50
-0
51
90
0
LINE
8
BLACK
6
CONTINUOUS
10
7.25031
20
-3.54692
11
7.33889
21
-3.65248
0
LINE
8
BLACK
6
CONTINUOUS
10
6.36732
20
-2.12756
11
6.36732
21
-2.32047
0
LINE
8
BLACK
6
CONTINUOUS
10
8.50394
20
-2.08819
11
8.64173
21
-2.08819
0
LINE
8
BLACK
6
CONTINUOUS
10
7.43354
20
-1.73228
11
7.62646
21
-1.73228
0
ARC
8
BLACK
10
4.17165
20
-2.71417
40
0.0393701
50
-90
51
-0
0
LINE
8
BLACK
6
CONTINUOUS
10
6.40276
20
-3.24055
11
6.20984
21
-3.24055
0
ARC
8
BLACK
10
4.67241
20
-3.66037
40
0.0393704
50
-90.0021
51
-60.0027
0
LINE
8
BLACK
6
CONTINUOUS
10
4.99239
20
-3.77112
11
4.80036
21
-3.88199
0
LINE
8
BLACK
6
CONTINUOUS
10
6.56033
20
-3.65248
11
6.6489
21
-3.54692
0
ARC
8
BLACK
10
8.22795
20
-2.32047
40
0.0393701
50
-90
51
-0
0
ARC
8
BLACK
10
7.39921
20
-3.60433
40
0.0393701
50
-180
51
-90
0
ARC
8
BLACK
10
8.67362
20
-1.78622
40
0.0393701
50
90
51
180
0
LINE
8
BLACK
6
CONTINUOUS
10
7.66583
20
-1.77165
11
7.66583
21
-1.90945
0
ARC
8
BLACK
10
5.5091
20
-2.48409
40
0.0393703
50
-90.0013
51
-70.0015
0
ARC
8
BLACK
10
5.37146
20
-1.90945
40
0.0393701
50
-90
51
-0
0
ARC
8
BLACK
10
5.8811
20
-3.1
40
0.0393701
50
-180
51
-90
0
ARC
8
BLACK
10
6.29914
20
-2.53094
40
0.0393657
50
-220.006
51
-129.997
0
LINE
8
BLACK
6
CONTINUOUS
10
6.87953
20
-2.32047
11
6.87953
21
-2.12756
0
ARC
8
BLACK
10
6.20984
20
-3.58509
40
0.0393701
50
90
51
180
0
LINE
8
BLACK
6
CONTINUOUS
10
9.15945
20
-1.96339
11
8.67362
21
-1.96339
0
ARC
8
BLACK
10
5.15512
20
-2.12756
40
0.0393701
50
-0
51
90
0
CIRCLE
8
BLACK
10
8.4
20
-1.624
40
0.0846457
0
ARC
8
BLACK
10
4.78068
20
-3.8479
40
0.0393683
50
-90.0021
51
-60.001
0
ARC
8
BLACK
10
3.4689
20
-2.02323
40
0.0393701
50
90
51
180
0
LINE
8
BLACK
6
CONTINUOUS
10
9.27205
20
-2.75354
11
9.07913
21
-2.75354
0
LINE
8
BLACK
6
CONTINUOUS
10
4.56429
20
-2.12334
11
4.56485
21
-2.31923
0
LINE
8
BLACK
6
CONTINUOUS
10
8.63425
20
-1.92402
11
8.63425
21
-1.78622
0
LINE
8
BLACK
6
CONTINUOUS
10
7.87854
20
-1.73228
11
8.07146
21
-1.73228
0
ARC
8
BLACK
10
5.65354
20
-3.86417
40
0.0393701
50
-180
51
-90
0
ARC
8
BLACK
10
5.9626
20
-2.12756
40
0.0393701
50
-0
51
90
0
LINE
8
BLACK
6
CONTINUOUS
10
6.07402
20
-3.13937
11
5.8811
21
-3.13937
0
LINE
8
BLACK
6
CONTINUOUS
10
5.17203
20
-2.59703
11
5.21916
21
-2.46754
0
ARC
8
BLACK
10
5.83465
20
-1.90945
40
0.0393701
50
-90
51
-0
0
ARC
8
BLACK
10
4.21654
20
-3.29004
40
0.0393701
50
90
51
180
0
LINE
8
BLACK
6
CONTINUOUS
10
3.12669
20
-2.5206
11
3.34468
21
-2.46219
0
ARC
8
BLACK
10
7.28146
20
-3.04331
40
0.0393701
50
-90
51
-0
0
ARC
8
BLACK
10
5.0811
20
-3.26496
40
0.0393701
50
-0
51
90
0
LINE
8
BLACK
6
CONTINUOUS
10
3.48701
20
-1.78425
11
3.48701
21
-1.92205
  0
ENDSEC
  0
EOF
