<?xml version="1.0" encoding="utf-8"?>
<!-- Generator: Fusion 360, Shaper Origin Export Add-In, Version 1.6.10  -->
<svg xmlns="http://www.w3.org/2000/svg" xmlns:xlink="http://www.w3.org/1999/xlink" xmlns:shaper="http://www.shapertools.com/namespaces/shaper" shaper:fusionaddin="version:1.6.10" width="14.605cm" height="7.62cm" version="1.1" x="0cm" y="0cm" viewBox="0 0 14.605 7.62" enable-background="new 0 0 14.605 7.62" xml:space="preserve"><path d="M-11.0295438,-3.81 L-11.0295438,3.81 3.5754562,3.81 3.5754562,-3.81 -11.0295438,-3.81z" transform="matrix(1,0,0,-1,11.0295438,3.81)" fill="rgb(0,0,0)" shaper:cutDepth="0.003175" stroke-linecap="round" stroke-linejoin="round" /><path d="M-7.4845892,-0.4242334 A0.15875,0.15875 0 0,1 -7.5206348,-0.32351 L-7.8959484,0.1337089 A0.15875,0.15875 39.3812706 0,1 -8.0186528,0.1917356 L-8.6697548,0.1917356 A0.15875,0.15875 90 0,1 -8.7635715,0.161048 L-9.2711661,-0.2108083 A0.15875,0.15875 126.2259545 0,1 -9.3360994,-0.3388708 L-9.3360994,-0.7641186 A0.15875,0.15875 180 0,1 -9.1773494,-0.9228686 L-7.6433392,-0.9228686 A0.15875,0.15875 270 0,1 -7.4845892,-0.7641186 L-7.4845892,-0.4242334z" transform="matrix(1,0,0,-1,11.0295438,3.81)" fill="rgb(255,255,255)" stroke="rgb(0,0,0)" stroke-width="0.0010cm" stroke-linecap="round" stroke-linejoin="round" shaper:cutDepth="0.003175" /><path d="M1.7291037,3.5596149 A0.15875,0.15875 0 0,1 1.5703537,3.7183649 L-1.2957758,3.7183649 A0.15875,0.15875 90 0,1 -1.4545258,3.5596149 L-1.4545258,3.3115528 A0.15875,0.15875 180 0,1 -1.2957758,3.1528028 L1.5703537,3.1528028 A0.15875,0.15875 270 0,1 1.7291037,3.3115528 L1.7291037,3.5596149z" transform="matrix(1,0,0,-1,11.0295438,3.81)" fill="rgb(255,255,255)" stroke="rgb(0,0,0)" stroke-width="0.0010cm" stroke-linecap="round" stroke-linejoin="round" shaper:cutDepth="0.003175" /><path d="M-8.9664537,2.2865884 A0.15875,0.15875 180 0,1 -8.8077037,2.1278384 L-8.1127117,2.1278384 A0.15875,0.15875 270 0,1 -7.9539617,2.2865884 L-7.9539617,2.5716982 A0.15875,0.15875 0 0,1 -8.1127117,2.7304482 L-8.8077037,2.7304482 A0.15875,0.15875 90 0,1 -8.9664537,2.5716982 L-8.9664537,2.2865884z" transform="matrix(1,0,0,-1,11.0295438,3.81)" fill="rgb(255,255,255)" stroke="rgb(0,0,0)" stroke-width="0.0010cm" stroke-linecap="round" stroke-linejoin="round" shaper:cutDepth="0.003175" /><path d="M-0.8616268,-2.1572455 A0.15875,0.15875 180 0,1 -0.7028768,-2.3159955 L1.180586,-2.3159955 A0.15875,0.15875 270 0,1 1.339336,-2.1572455 L1.339336,-1.3319529 A0.15875,0.15875 0 0,1 1.180586,-1.1732029 L-0.7028768,-1.1732029 A0.15875,0.15875 90 0,1 -0.8616268,-1.3319529 L-0.8616268,-2.1572455z" transform="matrix(1,0,0,-1,11.0295438,3.81)" fill="rgb(255,255,255)" stroke="rgb(0,0,0)" stroke-width="0.0010cm" stroke-linecap="round" stroke-linejoin="round" shaper:cutDepth="0.003175" /><path d="M-5.5767803,-2.1628415 L-5.5767803,-2.4479096 A0.15875,0.15875 180 0,1 -5.4180303,-2.6066596 L-4.3116266,-2.6066596 A0.15875,0.15875 90 0,0 -4.1528766,-2.7654096 L-4.1528766,-3.080193 A0.15875,0.15875 0 0,0 -4.3116266,-3.238943 L-5.6515463,-3.238943 A0.15875,0.15875 270 0,0 -5.7715104,-3.184165 L-6.5665724,-2.2668135 A0.15875,0.15875 220.9152391 0,0 -6.4466083,-2.0040915 L-5.7355303,-2.0040915 A0.15875,0.15875 90 0,0 -5.5767803,-2.1628415z" transform="matrix(1,0,0,-1,11.0295438,3.81)" fill="rgb(255,255,255)" stroke="rgb(0,0,0)" stroke-width="0.0010cm" stroke-linecap="round" stroke-linejoin="round" shaper:cutDepth="0.003175" /><path d="M-4.993492,-1.6428754 L-4.993492,-0.8205527 A0.15875,0.15875 0 0,1 -5.0319809,-0.7169244 L-5.1750471,-0.5508955 A0.15875,0.15875 220.7512861 0,0 -5.1752507,-0.3438756 L-5.0317772,-0.1767101 A0.15875,0.15875 319.3614387 0,1 -4.993492,-0.0733186 L-4.993492,0.4585119 A0.15875,0.15875 180 0,0 -4.834742,0.6172619 L-3.7342062,0.6172619 A0.15875,0.15875 90 0,0 -3.5754562,0.4585119 L-3.5754562,-1.6428754 A0.15875,0.15875 0 0,0 -3.7342062,-1.8016254 L-4.834742,-1.8016254 A0.15875,0.15875 270 0,0 -4.993492,-1.6428754z" transform="matrix(1,0,0,-1,11.0295438,3.81)" fill="rgb(255,255,255)" stroke="rgb(0,0,0)" stroke-width="0.0010cm" stroke-linecap="round" stroke-linejoin="round" shaper:cutDepth="0.003175" /><path d="M-3.457181,1.258297 L-2.1102057,1.258297 A0.15875,0.15875 270 0,1 -1.9718189,1.339261 L-1.9214433,1.4288827 A0.15875,0.15875 150.6600291 0,0 -1.6475944,1.4338708 L-1.5929778,1.3444892 A0.15875,0.15875 211.4269977 0,1 -1.4575156,1.2685134 L-1.3740525,1.2685134 A0.15875,0.15875 90 0,0 -1.2153025,1.1097634 L-1.2153025,0.8379952 A0.15875,0.15875 0 0,0 -1.3740525,0.6792452 L-3.2973599,0.6792452 A0.15875,0.15875 270 0,0 -3.4328221,0.7552211 L-3.5926432,1.0167729 A0.15875,0.15875 211.4269977 0,0 -3.457181,1.258297z" transform="matrix(1,0,0,-1,11.0295438,3.81)" fill="rgb(255,255,255)" stroke="rgb(0,0,0)" stroke-width="0.0010cm" stroke-linecap="round" stroke-linejoin="round" shaper:cutDepth="0.003175" /><path d="M-10.1247093,1.1289356 A0.15875,0.15875 0 0,1 -10.2834593,1.2876856 L-10.6307487,1.2876856 A0.15875,0.15875 90 0,1 -10.7894987,1.1289356 L-10.7894987,-0.8661249 A0.15875,0.15875 180 0,1 -10.6307487,-1.0248749 L-10.2834593,-1.0248749 A0.15875,0.15875 270 0,1 -10.1247093,-0.8661249 L-10.1247093,1.1289356z" transform="matrix(1,0,0,-1,11.0295438,3.81)" fill="rgb(255,255,255)" stroke="rgb(0,0,0)" stroke-width="0.0010cm" stroke-linecap="round" stroke-linejoin="round" shaper:cutDepth="0.003175" /><path d="M-6.3111828,1.8591816 a0.155,0.155 0 1,1 0.31,0 a0.155,0.155 0 1,1 -0.31,0z" transform="matrix(1,0,0,-1,11.0295438,3.81)" fill="rgb(255,255,255)" stroke="rgb(0,0,0)" stroke-width="0.0010cm" stroke-linecap="round" stroke-linejoin="round" shaper:cutDepth="0.003175" /><path d="M-2.310392,1.8591816 a0.155,0.155 0 1,1 0.31,0 a0.155,0.155 0 1,1 -0.31,0z" transform="matrix(1,0,0,-1,11.0295438,3.81)" fill="rgb(255,255,255)" stroke="rgb(0,0,0)" stroke-width="0.0010cm" stroke-linecap="round" stroke-linejoin="round" shaper:cutDepth="0.003175" /><path d="M-6.3111828,-3.1402363 a0.155,0.155 0 1,1 0.31,0 a0.155,0.155 0 1,1 -0.31,0z" transform="matrix(1,0,0,-1,11.0295438,3.81)" fill="rgb(255,255,255)" stroke="rgb(0,0,0)" stroke-width="0.0010cm" stroke-linecap="round" stroke-linejoin="round" shaper:cutDepth="0.003175" /><path d="M-2.310392,-3.1402363 a0.155,0.155 0 1,1 0.31,0 a0.155,0.155 0 1,1 -0.31,0z" transform="matrix(1,0,0,-1,11.0295438,3.81)" fill="rgb(255,255,255)" stroke="rgb(0,0,0)" stroke-width="0.0010cm" stroke-linecap="round" stroke-linejoin="round" shaper:cutDepth="0.003175" /><path d="M-4.6492259,1.8864735 A0.15875,0.15875 180 0,1 -4.4904759,1.7277235 L-2.6847362,1.7277235 A0.15875,0.15875 270 0,1 -2.5259862,1.8864735 L-2.5259862,2.424655 A0.15875,0.15875 0 0,1 -2.6847362,2.583405 L-4.4904759,2.583405 A0.15875,0.15875 90 0,1 -4.6492259,2.424655 L-4.6492259,1.8864735z" transform="matrix(1,0,0,-1,11.0295438,3.81)" fill="rgb(255,255,255)" stroke="rgb(0,0,0)" stroke-width="0.0010cm" stroke-linecap="round" stroke-linejoin="round" shaper:cutDepth="0.003175" /><path d="M-5.9170284,1.0344654 A0.15875,0.15875 180 0,1 -5.7582784,0.8757154 L-5.1010758,0.8757154 A0.15875,0.15875 270 0,1 -4.9423258,1.0344654 L-4.9423258,1.0575856 A0.15875,0.15875 0 0,1 -5.1010758,1.2163356 L-5.7582784,1.2163356 A0.15875,0.15875 90 0,1 -5.9170284,1.0575856 L-5.9170284,1.0344654z" transform="matrix(1,0,0,-1,11.0295438,3.81)" fill="rgb(255,255,255)" stroke="rgb(0,0,0)" stroke-width="0.0010cm" stroke-linecap="round" stroke-linejoin="round" shaper:cutDepth="0.003175" /><path d="M-2.1578806,-2.6083388 L-2.585051,-2.6083388 A0.15875,0.15875 90 0,1 -2.743801,-2.7670888 L-2.743801,-3.0966948 A0.15875,0.15875 0 0,0 -2.902551,-3.2554448 L-3.5446777,-3.2554448 A0.15875,0.15875 270 0,0 -3.7034277,-3.0966948 L-3.7034277,-2.5762846 A0.15875,0.15875 180 0,0 -3.6823798,-2.4972927 L-3.4452109,-2.0838496 A0.15875,0.15875 150.1595462 0,0 -3.3075088,-2.0040915 L-2.1578806,-2.0040915 A0.15875,0.15875 90 0,0 -1.9991306,-2.1628415 L-1.9991306,-2.4495888 A0.15875,0.15875 0 0,0 -2.1578806,-2.6083388z" transform="matrix(1,0,0,-1,11.0295438,3.81)" fill="rgb(255,255,255)" stroke="rgb(0,0,0)" stroke-width="0.0010cm" stroke-linecap="round" stroke-linejoin="round" shaper:cutDepth="0.003175" /><path d="M0.0689862,-0.508 a0.17272,0.17272 0 1,1 0.34544,0 a0.17272,0.17272 0 1,1 -0.34544,0z" transform="matrix(1,0,0,-1,11.0295438,3.81)" fill="rgb(255,255,255)" stroke="rgb(0,0,0)" stroke-width="0.0010cm" stroke-linecap="round" stroke-linejoin="round" shaper:cutDepth="0.003175" /><path d="M0.0689862,2.413 a0.17272,0.17272 0 1,1 0.34544,0 a0.17272,0.17272 0 1,1 -0.34544,0z" transform="matrix(1,0,0,-1,11.0295438,3.81)" fill="rgb(255,255,255)" stroke="rgb(0,0,0)" stroke-width="0.0010cm" stroke-linecap="round" stroke-linejoin="round" shaper:cutDepth="0.003175" /><path d="M-10.7558588,-2.38125 a0.215265,0.215265 0 1,1 0.43053,0 a0.215265,0.215265 0 1,1 -0.43053,0z" transform="matrix(1,0,0,-1,11.0295438,3.81)" fill="rgb(255,255,255)" stroke="rgb(0,0,0)" stroke-width="0.0010cm" stroke-linecap="round" stroke-linejoin="round" shaper:cutDepth="0.003175" /><path d="M-10.7558588,2.38125 a0.215265,0.215265 0 1,1 0.43053,0 a0.215265,0.215265 0 1,1 -0.43053,0z" transform="matrix(1,0,0,-1,11.0295438,3.81)" fill="rgb(255,255,255)" stroke="rgb(0,0,0)" stroke-width="0.0010cm" stroke-linecap="round" stroke-linejoin="round" shaper:cutDepth="0.003175" /><path d="M2.8712412,-2.38125 a0.215265,0.215265 0 1,1 0.43053,0 a0.215265,0.215265 0 1,1 -0.43053,0z" transform="matrix(1,0,0,-1,11.0295438,3.81)" fill="rgb(255,255,255)" stroke="rgb(0,0,0)" stroke-width="0.0010cm" stroke-linecap="round" stroke-linejoin="round" shaper:cutDepth="0.003175" /><path d="M2.8712412,2.38125 a0.215265,0.215265 0 1,1 0.43053,0 a0.215265,0.215265 0 1,1 -0.43053,0z" transform="matrix(1,0,0,-1,11.0295438,3.81)" fill="rgb(255,255,255)" stroke="rgb(0,0,0)" stroke-width="0.0010cm" stroke-linecap="round" stroke-linejoin="round" shaper:cutDepth="0.003175" /><path d="M-7.7523088,-2.794 a0.215265,0.215265 0 1,1 0.43053,0 a0.215265,0.215265 0 1,1 -0.43053,0z" transform="matrix(1,0,0,-1,11.0295438,3.81)" fill="rgb(255,255,255)" stroke="rgb(0,0,0)" stroke-width="0.0010cm" stroke-linecap="round" stroke-linejoin="round" shaper:cutDepth="0.003175" /><path d="M-6.6413128,2.794 a0.215265,0.215265 0 1,1 0.43053,0 a0.215265,0.215265 0 1,1 -0.43053,0z" transform="matrix(1,0,0,-1,11.0295438,3.81)" fill="rgb(255,255,255)" stroke="rgb(0,0,0)" stroke-width="0.0010cm" stroke-linecap="round" stroke-linejoin="round" shaper:cutDepth="0.003175" /><path d="M-0.1323088,-2.794 a0.215265,0.215265 0 1,1 0.43053,0 a0.215265,0.215265 0 1,1 -0.43053,0z" transform="matrix(1,0,0,-1,11.0295438,3.81)" fill="rgb(255,255,255)" stroke="rgb(0,0,0)" stroke-width="0.0010cm" stroke-linecap="round" stroke-linejoin="round" shaper:cutDepth="0.003175" /><path d="M-6.5845438,-0.7366 a0.635,0.635 0 1,1 1.27,0 a0.635,0.635 0 1,1 -1.27,0z" transform="matrix(1,0,0,-1,11.0295438,3.81)" fill="rgb(255,255,255)" stroke="rgb(0,0,0)" stroke-width="0.0010cm" stroke-linecap="round" stroke-linejoin="round" shaper:cutDepth="0.003175" /><path d="M-8.9657938,0.9525 a0.635,0.635 0 1,1 1.27,0 a0.635,0.635 0 1,1 -1.27,0z" transform="matrix(1,0,0,-1,11.0295438,3.81)" fill="rgb(255,255,255)" stroke="rgb(0,0,0)" stroke-width="0.0010cm" stroke-linecap="round" stroke-linejoin="round" shaper:cutDepth="0.003175" /><path d="M-3.2825438,-0.7366 a0.635,0.635 0 1,1 1.27,0 a0.635,0.635 0 1,1 -1.27,0z" transform="matrix(1,0,0,-1,11.0295438,3.81)" fill="rgb(255,255,255)" stroke="rgb(0,0,0)" stroke-width="0.0010cm" stroke-linecap="round" stroke-linejoin="round" shaper:cutDepth="0.003175" /><path d="M-0.3932938,0.9525 a0.635,0.635 0 1,1 1.27,0 a0.635,0.635 0 1,1 -1.27,0z" transform="matrix(1,0,0,-1,11.0295438,3.81)" fill="rgb(255,255,255)" stroke="rgb(0,0,0)" stroke-width="0.0010cm" stroke-linecap="round" stroke-linejoin="round" shaper:cutDepth="0.003175" /><path d="M-6.1082938,-1.7018 a0.15875,0.15875 0 1,1 0.3175,0 a0.15875,0.15875 0 1,1 -0.3175,0z" transform="matrix(1,0,0,-1,11.0295438,3.81)" fill="rgb(255,255,255)" stroke="rgb(0,0,0)" stroke-width="0.0010cm" stroke-linecap="round" stroke-linejoin="round" shaper:cutDepth="0.003175" /><path d="M-8.4895438,1.9177 a0.15875,0.15875 0 1,1 0.3175,0 a0.15875,0.15875 0 1,1 -0.3175,0z" transform="matrix(1,0,0,-1,11.0295438,3.81)" fill="rgb(255,255,255)" stroke="rgb(0,0,0)" stroke-width="0.0010cm" stroke-linecap="round" stroke-linejoin="round" shaper:cutDepth="0.003175" /><path d="M-2.8062938,-1.7018 a0.15875,0.15875 0 1,1 0.3175,0 a0.15875,0.15875 0 1,1 -0.3175,0z" transform="matrix(1,0,0,-1,11.0295438,3.81)" fill="rgb(255,255,255)" stroke="rgb(0,0,0)" stroke-width="0.0010cm" stroke-linecap="round" stroke-linejoin="round" shaper:cutDepth="0.003175" /><path d="M0.0829562,-0.0127 a0.15875,0.15875 0 1,1 0.3175,0 a0.15875,0.15875 0 1,1 -0.3175,0z" transform="matrix(1,0,0,-1,11.0295438,3.81)" fill="rgb(255,255,255)" stroke="rgb(0,0,0)" stroke-width="0.0010cm" stroke-linecap="round" stroke-linejoin="round" shaper:cutDepth="0.003175" /></svg>