<?xml version="1.0" encoding="utf-8"?>
<!-- Generator: Fusion 360, Shaper Origin Export Add-In, Version 1.6.10  -->
<svg xmlns="http://www.w3.org/2000/svg" xmlns:xlink="http://www.w3.org/1999/xlink" xmlns:shaper="http://www.shapertools.com/namespaces/shaper" shaper:fusionaddin="version:1.6.10" width="14.44625cm" height="7.46125cm" version="1.1" x="0cm" y="0cm" viewBox="0 0 14.44625 7.46125" enable-background="new 0 0 14.44625 7.46125" xml:space="preserve"><path d="M-6.17855,2.38125 A0.635,0.635 0 0,0 -6.81355,1.74625 L-7.223125,1.74625 -7.223125,-1.74625 -6.81355,-1.74625 A0.635,0.635 90 0,0 -6.17855,-2.38125 L-6.17855,-3.730625 6.17855,-3.730625 6.17855,-2.38125 A0.635,0.635 180 0,0 6.81355,-1.74625 L7.223125,-1.74625 7.223125,1.74625 6.81355,1.74625 A0.635,0.635 270 0,0 6.17855,2.38125 L6.17855,3.730625 -6.17855,3.730625 -6.17855,2.38125z" transform="matrix(1,0,0,-1,7.223125,3.730625)" fill="rgb(0,0,0)" shaper:cutDepth="0.0047625" stroke-linecap="round" stroke-linejoin="round" /><path d="M3.65125,-0.9525 a0.9525,0.9525 0 1,1 1.905,0 a0.9525,0.9525 0 1,1 -1.905,0z" transform="matrix(1,0,0,-1,7.223125,3.730625)" fill="rgb(255,255,255)" stroke="rgb(0,0,0)" stroke-width="0.0010cm" stroke-linecap="round" stroke-linejoin="round" shaper:cutDepth="0.0047625" /><path d="M1.27,0.7366 a0.9525,0.9525 0 1,1 1.905,0 a0.9525,0.9525 0 1,1 -1.905,0z" transform="matrix(1,0,0,-1,7.223125,3.730625)" fill="rgb(255,255,255)" stroke="rgb(0,0,0)" stroke-width="0.0010cm" stroke-linecap="round" stroke-linejoin="round" shaper:cutDepth="0.0047625" /><path d="M-2.032,0.7366 a0.9525,0.9525 0 1,1 1.905,0 a0.9525,0.9525 0 1,1 -1.905,0z" transform="matrix(1,0,0,-1,7.223125,3.730625)" fill="rgb(255,255,255)" stroke="rgb(0,0,0)" stroke-width="0.0010cm" stroke-linecap="round" stroke-linejoin="round" shaper:cutDepth="0.0047625" /><path d="M-4.92125,-0.9525 a0.9525,0.9525 0 1,1 1.905,0 a0.9525,0.9525 0 1,1 -1.905,0z" transform="matrix(1,0,0,-1,7.223125,3.730625)" fill="rgb(255,255,255)" stroke="rgb(0,0,0)" stroke-width="0.0010cm" stroke-linecap="round" stroke-linejoin="round" shaper:cutDepth="0.0047625" /><path d="M-4.025265,2.794 a0.215265,0.215265 0 1,1 0.43053,0 a0.215265,0.215265 0 1,1 -0.43053,0z" transform="matrix(1,0,0,-1,7.223125,3.730625)" fill="rgb(255,255,255)" stroke="rgb(0,0,0)" stroke-width="0.0010cm" stroke-linecap="round" stroke-linejoin="round" shaper:cutDepth="0.0047625" /><path d="M3.594735,2.794 a0.215265,0.215265 0 1,1 0.43053,0 a0.215265,0.215265 0 1,1 -0.43053,0z" transform="matrix(1,0,0,-1,7.223125,3.730625)" fill="rgb(255,255,255)" stroke="rgb(0,0,0)" stroke-width="0.0010cm" stroke-linecap="round" stroke-linejoin="round" shaper:cutDepth="0.0047625" /><path d="M2.483739,-2.794 a0.215265,0.215265 0 1,1 0.43053,0 a0.215265,0.215265 0 1,1 -0.43053,0z" transform="matrix(1,0,0,-1,7.223125,3.730625)" fill="rgb(255,255,255)" stroke="rgb(0,0,0)" stroke-width="0.0010cm" stroke-linecap="round" stroke-linejoin="round" shaper:cutDepth="0.0047625" /><path d="M-4.14147,0.508 a0.17272,0.17272 0 1,1 0.34544,0 a0.17272,0.17272 0 1,1 -0.34544,0z" transform="matrix(1,0,0,-1,7.223125,3.730625)" fill="rgb(255,255,255)" stroke="rgb(0,0,0)" stroke-width="0.0010cm" stroke-linecap="round" stroke-linejoin="round" shaper:cutDepth="0.0047625" /><path d="M-4.14147,-2.413 a0.17272,0.17272 0 1,1 0.34544,0 a0.17272,0.17272 0 1,1 -0.34544,0z" transform="matrix(1,0,0,-1,7.223125,3.730625)" fill="rgb(255,255,255)" stroke="rgb(0,0,0)" stroke-width="0.0010cm" stroke-linecap="round" stroke-linejoin="round" shaper:cutDepth="0.0047625" /></svg>