<?xml version="1.0" encoding="utf-8"?>
<!-- Generator: Fusion 360, Shaper Origin Export Add-In, Version 1.6.10  -->
<svg xmlns="http://www.w3.org/2000/svg" xmlns:xlink="http://www.w3.org/1999/xlink" xmlns:shaper="http://www.shapertools.com/namespaces/shaper" shaper:fusionaddin="version:1.6.10" width="25.4cm" height="7.62cm" version="1.1" x="0cm" y="0cm" viewBox="0 0 25.4 7.62" enable-background="new 0 0 25.4 7.62" xml:space="preserve"><path d="M12.065,-3.81 L12.7,-3.175 12.7,3.175 12.065,3.81 -12.065,3.81 -12.7,3.175 -12.7,-3.175 -12.065,-3.81 12.065,-3.81z" transform="matrix(1,0,0,-1,12.7,3.81)" fill="rgb(0,0,0)" shaper:cutDepth="0.0127" stroke-linecap="round" stroke-linejoin="round" /><path d="M-8.715,-0 a0.29,0.29 0 1,1 0.58,0 a0.29,0.29 0 1,1 -0.58,0z" transform="matrix(1,0,0,-1,12.7,3.81)" fill="rgb(255,255,255)" stroke="rgb(0,0,0)" stroke-width="0.0010cm" stroke-linecap="round" stroke-linejoin="round" shaper:cutDepth="0.0127" /><path d="M7.835,-2.5 a0.29,0.29 0 1,1 0.58,0 a0.29,0.29 0 1,1 -0.58,0z" transform="matrix(1,0,0,-1,12.7,3.81)" fill="rgb(255,255,255)" stroke="rgb(0,0,0)" stroke-width="0.0010cm" stroke-linecap="round" stroke-linejoin="round" shaper:cutDepth="0.0127" /><path d="M7.835,2.5 a0.29,0.29 0 1,1 0.58,0 a0.29,0.29 0 1,1 -0.58,0z" transform="matrix(1,0,0,-1,12.7,3.81)" fill="rgb(255,255,255)" stroke="rgb(0,0,0)" stroke-width="0.0010cm" stroke-linecap="round" stroke-linejoin="round" shaper:cutDepth="0.0127" /><path d="M8.135,-0 a0.29,0.29 0 1,1 0.58,0 a0.29,0.29 0 1,1 -0.58,0z" transform="matrix(1,0,0,-1,12.7,3.81)" fill="rgb(255,255,255)" stroke="rgb(0,0,0)" stroke-width="0.0010cm" stroke-linecap="round" stroke-linejoin="round" shaper:cutDepth="0.0127" /><path d="M-8.415,2.5 a0.29,0.29 0 1,1 0.58,0 a0.29,0.29 0 1,1 -0.58,0z" transform="matrix(1,0,0,-1,12.7,3.81)" fill="rgb(255,255,255)" stroke="rgb(0,0,0)" stroke-width="0.0010cm" stroke-linecap="round" stroke-linejoin="round" shaper:cutDepth="0.0127" /><path d="M-8.415,-2.5 a0.29,0.29 0 1,1 0.58,0 a0.29,0.29 0 1,1 -0.58,0z" transform="matrix(1,0,0,-1,12.7,3.81)" fill="rgb(255,255,255)" stroke="rgb(0,0,0)" stroke-width="0.0010cm" stroke-linecap="round" stroke-linejoin="round" shaper:cutDepth="0.0127" /><path d="M-4.13639,-1.42875 a0.32639,0.32639 0 1,1 0.65278,0 a0.32639,0.32639 0 1,1 -0.65278,0z" transform="matrix(1,0,0,-1,12.7,3.81)" fill="rgb(255,255,255)" stroke="rgb(0,0,0)" stroke-width="0.0010cm" stroke-linecap="round" stroke-linejoin="round" shaper:cutDepth="0.0127" /><path d="M-0.32639,1.42875 a0.32639,0.32639 0 1,1 0.65278,0 a0.32639,0.32639 0 1,1 -0.65278,0z" transform="matrix(1,0,0,-1,12.7,3.81)" fill="rgb(255,255,255)" stroke="rgb(0,0,0)" stroke-width="0.0010cm" stroke-linecap="round" stroke-linejoin="round" shaper:cutDepth="0.0127" /><path d="M3.48361,-1.42875 a0.32639,0.32639 0 1,1 0.65278,0 a0.32639,0.32639 0 1,1 -0.65278,0z" transform="matrix(1,0,0,-1,12.7,3.81)" fill="rgb(255,255,255)" stroke="rgb(0,0,0)" stroke-width="0.0010cm" stroke-linecap="round" stroke-linejoin="round" shaper:cutDepth="0.0127" /><path d="M-12.07389,-2.8575 a0.32639,0.32639 0 1,1 0.65278,0 a0.32639,0.32639 0 1,1 -0.65278,0z" transform="matrix(1,0,0,-1,12.7,3.81)" fill="rgb(255,255,255)" stroke="rgb(0,0,0)" stroke-width="0.0010cm" stroke-linecap="round" stroke-linejoin="round" shaper:cutDepth="0.0127" /><path d="M-12.07389,2.8575 a0.32639,0.32639 0 1,1 0.65278,0 a0.32639,0.32639 0 1,1 -0.65278,0z" transform="matrix(1,0,0,-1,12.7,3.81)" fill="rgb(255,255,255)" stroke="rgb(0,0,0)" stroke-width="0.0010cm" stroke-linecap="round" stroke-linejoin="round" shaper:cutDepth="0.0127" /><path d="M11.42111,-2.8575 a0.32639,0.32639 0 1,1 0.65278,0 a0.32639,0.32639 0 1,1 -0.65278,0z" transform="matrix(1,0,0,-1,12.7,3.81)" fill="rgb(255,255,255)" stroke="rgb(0,0,0)" stroke-width="0.0010cm" stroke-linecap="round" stroke-linejoin="round" shaper:cutDepth="0.0127" /><path d="M11.42111,2.8575 a0.32639,0.32639 0 1,1 0.65278,0 a0.32639,0.32639 0 1,1 -0.65278,0z" transform="matrix(1,0,0,-1,12.7,3.81)" fill="rgb(255,255,255)" stroke="rgb(0,0,0)" stroke-width="0.0010cm" stroke-linecap="round" stroke-linejoin="round" shaper:cutDepth="0.0127" /></svg>