  0
SECTION
  2
HEADER
  9
$ACADVER
  1
AC1024
  9
$ACADMAINTVER
 70
     6
  9
$DWGCODEPAGE
  3
UNDEFINED
  9
$INSBASE
 10
0.0
 20
0.0
 30
0.0
  9
$EXTMIN
 10
1.000000000000000E+20
 20
1.000000000000000E+20
 30
1.000000000000000E+20
  9
$EXTMAX
 10
-1.000000000000000E+20
 20
-1.000000000000000E+20
 30
-1.000000000000000E+20
  9
$LIMMIN
 10
0.0
 20
0.0
  9
$LIMMAX
 10
12.0
 20
9.0
  9
$ORTHOMODE
 70
     0
  9
$REGENMODE
 70
     1
  9
$FILLMODE
 70
     1
  9
$QTEXTMODE
 70
     0
  9
$MIRRTEXT
 70
     1
  9
$LTSCALE
 40
1.0
  9
$ATTMODE
 70
     1
  9
$TEXTSIZE
 40
0.2
  9
$TRACEWID
 40
0.05
  9
$TEXTSTYLE
  7
Standard
  9
$CLAYER
  8
0
  9
$CELTYPE
  6
ByLayer
  9
$CECOLOR
 62
   256
  9
$CELTSCALE
 40
1.0
  9
$DISPSILH
 70
     0
  9
$DIMSCALE
 40
1.0
  9
$DIMASZ
 40
0.18
  9
$DIMEXO
 40
0.0625
  9
$DIMDLI
 40
0.38
  9
$DIMRND
 40
0.0
  9
$DIMDLE
 40
0.0
  9
$DIMEXE
 40
0.18
  9
$DIMTP
 40
0.0
  9
$DIMTM
 40
0.0
  9
$DIMTXT
 40
0.18
  9
$DIMCEN
 40
0.09
  9
$DIMTSZ
 40
0.0
  9
$DIMTOL
 70
     0
  9
$DIMLIM
 70
     0
  9
$DIMTIH
 70
     1
  9
$DIMTOH
 70
     1
  9
$DIMSE1
 70
     0
  9
$DIMSE2
 70
     0
  9
$DIMTAD
 70
     0
  9
$DIMZIN
 70
     0
  9
$DIMBLK
  1

  9
$DIMASO
 70
     1
  9
$DIMSHO
 70
     1
  9
$DIMPOST
  1

  9
$DIMAPOST
  1

  9
$DIMALT
 70
     0
  9
$DIMALTD
 70
     2
  9
$DIMALTF
 40
25.4
  9
$DIMLFAC
 40
1.0
  9
$DIMTOFL
 70
     0
  9
$DIMTVP
 40
0.0
  9
$DIMTIX
 70
     0
  9
$DIMSOXD
 70
     0
  9
$DIMSAH
 70
     0
  9
$DIMBLK1
  1

  9
$DIMBLK2
  1

  9
$DIMSTYLE
  2
Standard
  9
$DIMCLRD
 70
     0
  9
$DIMCLRE
 70
     0
  9
$DIMCLRT
 70
     0
  9
$DIMTFAC
 40
1.0
  9
$DIMGAP
 40
0.09
  9
$DIMJUST
 70
     0
  9
$DIMSD1
 70
     0
  9
$DIMSD2
 70
     0
  9
$DIMTOLJ
 70
     1
  9
$DIMTZIN
 70
     0
  9
$DIMALTZ
 70
     0
  9
$DIMALTTZ
 70
     0
  9
$DIMUPT
 70
     0
  9
$DIMDEC
 70
     4
  9
$DIMTDEC
 70
     4
  9
$DIMALTU
 70
     2
  9
$DIMALTTD
 70
     2
  9
$DIMTXSTY
  7
Standard
  9
$DIMAUNIT
 70
     0
  9
$DIMADEC
 70
     0
  9
$DIMALTRND
 40
0.0
  9
$DIMAZIN
 70
     0
  9
$DIMDSEP
 70
    46
  9
$DIMATFIT
 70
     3
  9
$DIMFRAC
 70
     0
  9
$DIMLDRBLK
  1

  9
$DIMLUNIT
 70
     2
  9
$DIMLWD
 70
    -2
  9
$DIMLWE
 70
    -2
  9
$DIMTMOVE
 70
     0
  9
$DIMFXL
 40
1.0
  9
$DIMFXLON
 70
     0
  9
$DIMJOGANG
 40
0.7853981633974483
  9
$DIMTFILL
 70
     0
  9
$DIMTFILLCLR
 70
     0
  9
$DIMARCSYM
 70
     0
  9
$DIMLTYPE
  6

  9
$DIMLTEX1
  6

  9
$DIMLTEX2
  6

  9
$DIMTXTDIRECTION
 70
     0
  9
$LUNITS
 70
     2
  9
$LUPREC
 70
     4
  9
$SKETCHINC
 40
0.1
  9
$FILLETRAD
 40
0.5
  9
$AUNITS
 70
     0
  9
$AUPREC
 70
     0
  9
$MENU
  1
.
  9
$ELEVATION
 40
0.0
  9
$PELEVATION
 40
0.0
  9
$THICKNESS
 40
0.0
  9
$LIMCHECK
 70
     0
  9
$CHAMFERA
 40
0.5
  9
$CHAMFERB
 40
0.5
  9
$CHAMFERC
 40
1.0
  9
$CHAMFERD
 40
0.0
  9
$SKPOLY
 70
     0
  9
$TDCREATE
 40
2458843.936006933
  9
$TDUCREATE
 40
2458843.894340278
  9
$TDUPDATE
 40
2458843.936006933
  9
$TDUUPDATE
 40
2458843.894340278
  9
$TDINDWG
 40
0.0000000116
  9
$TDUSRTIMER
 40
0.0000000116
  9
$USRTIMER
 70
     1
  9
$ANGBASE
 50
0.0
  9
$ANGDIR
 70
     0
  9
$PDMODE
 70
     0
  9
$PDSIZE
 40
0.0
  9
$PLINEWID
 40
0.0
  9
$SPLFRAME
 70
     0
  9
$SPLINETYPE
 70
     6
  9
$SPLINESEGS
 70
     8
  9
$HANDSEED
  5
83
  9
$SURFTAB1
 70
     6
  9
$SURFTAB2
 70
     6
  9
$SURFTYPE
 70
     6
  9
$SURFU
 70
     6
  9
$SURFV
 70
     6
  9
$UCSBASE
  2

  9
$UCSNAME
  2

  9
$UCSORG
 10
0.0
 20
0.0
 30
0.0
  9
$UCSXDIR
 10
1.0
 20
0.0
 30
0.0
  9
$UCSYDIR
 10
0.0
 20
1.0
 30
0.0
  9
$UCSORTHOREF
  2

  9
$UCSORTHOVIEW
 70
     0
  9
$UCSORGTOP
 10
0.0
 20
0.0
 30
0.0
  9
$UCSORGBOTTOM
 10
0.0
 20
0.0
 30
0.0
  9
$UCSORGLEFT
 10
0.0
 20
0.0
 30
0.0
  9
$UCSORGRIGHT
 10
0.0
 20
0.0
 30
0.0
  9
$UCSORGFRONT
 10
0.0
 20
0.0
 30
0.0
  9
$UCSORGBACK
 10
0.0
 20
0.0
 30
0.0
  9
$PUCSBASE
  2

  9
$PUCSNAME
  2

  9
$PUCSORG
 10
0.0
 20
0.0
 30
0.0
  9
$PUCSXDIR
 10
1.0
 20
0.0
 30
0.0
  9
$PUCSYDIR
 10
0.0
 20
1.0
 30
0.0
  9
$PUCSORTHOREF
  2

  9
$PUCSORTHOVIEW
 70
     0
  9
$PUCSORGTOP
 10
0.0
 20
0.0
 30
0.0
  9
$PUCSORGBOTTOM
 10
0.0
 20
0.0
 30
0.0
  9
$PUCSORGLEFT
 10
0.0
 20
0.0
 30
0.0
  9
$PUCSORGRIGHT
 10
0.0
 20
0.0
 30
0.0
  9
$PUCSORGFRONT
 10
0.0
 20
0.0
 30
0.0
  9
$PUCSORGBACK
 10
0.0
 20
0.0
 30
0.0
  9
$USERI1
 70
     0
  9
$USERI2
 70
     0
  9
$USERI3
 70
     0
  9
$USERI4
 70
     0
  9
$USERI5
 70
     0
  9
$USERR1
 40
0.0
  9
$USERR2
 40
0.0
  9
$USERR3
 40
0.0
  9
$USERR4
 40
0.0
  9
$USERR5
 40
0.0
  9
$WORLDVIEW
 70
     1
  9
$SHADEDGE
 70
     3
  9
$SHADEDIF
 70
    70
  9
$TILEMODE
 70
     1
  9
$MAXACTVP
 70
    64
  9
$PINSBASE
 10
0.0
 20
0.0
 30
0.0
  9
$PLIMCHECK
 70
     0
  9
$PEXTMIN
 10
1.000000000000000E+20
 20
1.000000000000000E+20
 30
1.000000000000000E+20
  9
$PEXTMAX
 10
-1.000000000000000E+20
 20
-1.000000000000000E+20
 30
-1.000000000000000E+20
  9
$PLIMMIN
 10
0.0
 20
0.0
  9
$PLIMMAX
 10
12.0
 20
9.0
  9
$UNITMODE
 70
     0
  9
$VISRETAIN
 70
     1
  9
$PLINEGEN
 70
     0
  9
$PSLTSCALE
 70
     1
  9
$TREEDEPTH
 70
  3020
  9
$CMLSTYLE
  2
Standard
  9
$CMLJUST
 70
     0
  9
$CMLSCALE
 40
1.0
  9
$PROXYGRAPHICS
 70
     1
  9
$MEASUREMENT
 70
     0
  9
$CELWEIGHT
370
    -1
  9
$ENDCAPS
280
     0
  9
$JOINSTYLE
280
     0
  9
$LWDISPLAY
290
     1
  9
$INSUNITS
 70
     1
  9
$HYPERLINKBASE
  1

  9
$STYLESHEET
  1

  9
$XEDIT
290
     1
  9
$CEPSNTYPE
380
     0
  9
$PSTYLEMODE
290
     1
  9
$FINGERPRINTGUID
  2
{6A220439-55A9-72A7-D413-2FEA2662A387}
  9
$VERSIONGUID
  2
{FAEB1C32-E019-11D5-929B-00C0DF256EC4}
  9
$EXTNAMES
290
     1
  9
$PSVPSCALE
 40
0.0
  9
$OLESTARTUP
290
     0
  9
$SORTENTS
280
   127
  9
$INDEXCTL
280
     0
  9
$HIDETEXT
280
     1
  9
$XCLIPFRAME
280
     2
  9
$HALOGAP
280
     0
  9
$OBSCOLOR
 70
   257
  9
$OBSLTYPE
280
     0
  9
$INTERSECTIONDISPLAY
280
     0
  9
$INTERSECTIONCOLOR
 70
   257
  9
$DIMASSOC
280
     2
  9
$PROJECTNAME
  1

  9
$CAMERADISPLAY
290
     0
  9
$LENSLENGTH
 40
50.0
  9
$CAMERAHEIGHT
 40
0.0
  9
$STEPSPERSEC
 40
2.0
  9
$STEPSIZE
 40
6.0
  9
$3DDWFPREC
 40
2.0
  9
$PSOLWIDTH
 40
0.25
  9
$PSOLHEIGHT
 40
4.0
  9
$LOFTANG1
 40
1.570796326794897
  9
$LOFTANG2
 40
1.570796326794897
  9
$LOFTMAG1
 40
0.0
  9
$LOFTMAG2
 40
0.0
  9
$LOFTPARAM
 70
     7
  9
$LOFTNORMALS
280
     1
  9
$LATITUDE
 40
37.795
  9
$LONGITUDE
 40
-122.394
  9
$NORTHDIRECTION
 40
0.0
  9
$TIMEZONE
 70
 -8000
  9
$LIGHTGLYPHDISPLAY
280
     1
  9
$TILEMODELIGHTSYNCH
280
     1
  9
$CMATERIAL
347
3C
  9
$SOLIDHIST
280
     1
  9
$SHOWHIST
280
     1
  9
$DWFFRAME
280
     2
  9
$DGNFRAME
280
     2
  9
$REALWORLDSCALE
290
     1
  9
$INTERFERECOLOR
 62
   256
  9
$CSHADOW
280
     0
  9
$SHADOWPLANELOCATION
 40
0.0
  0
ENDSEC
  0
SECTION
  2
CLASSES
  0
CLASS
  1
ACDBDICTIONARYWDFLT
  2
AcDbDictionaryWithDefault
  3
ObjectDBX Classes
 90
        0
 91
        4
280
     0
281
     0
  0
CLASS
  1
VISUALSTYLE
  2
AcDbVisualStyle
  3
ObjectDBX Classes
 90
     4095
 91
        4
280
     0
281
     0
  0
CLASS
  1
MATERIAL
  2
AcDbMaterial
  3
ObjectDBX Classes
 90
     1153
 91
        4
280
     0
281
     0
  0
CLASS
  1
SUN
  2
AcDbSun
  3
SCENEOE
 90
     1024
 91
        4
280
     0
281
     0
  0
ENDSEC
  0
SECTION
  2
TABLES
  0
TABLE
  2
VPORT
  5
8
330
0
100
AcDbSymbolTable
 70
     1
  0
VPORT
  5
29
330
8
100
AcDbSymbolTableRecord
100
AcDbViewportTableRecord
  2
*Active
 70
     0
 10
0.0
 20
0.0
 11
1.0
 21
1.0
 12
0.0
 22
0.0
 13
0.0
 23
0.0
 14
0.5
 24
0.5
 15
0.5
 25
0.5
 16
0.0
 26
0.0
 36
1.0
 17
105.0007777515276
 27
148.5000416295416
 37
0.0
 40
24.99999999375009
 41
0.9999999999999869
 42
50.0
 43
0.0
 44
0.0
 50
0.0
 51
0.0
 71
     0
 72
   100
 73
     1
 74
     3
 75
     0
 76
     0
 77
     0
 78
     0
281
     0
 65
     1
110
0.0
120
0.0
130
0.0
111
1.0
121
0.0
131
0.0
112
0.0
122
1.0
132
0.0
 79
     0
146
0.0
 60
     3
 61
     5
292
     1
282
     1
141
0.0
142
0.0
 63
   250
361
3F
  0
ENDTAB
  0
TABLE
  2
LTYPE
  5
5
330
0
100
AcDbSymbolTable
 70
     1
  0
LTYPE
  5
14
330
5
100
AcDbSymbolTableRecord
100
AcDbLinetypeTableRecord
  2
ByBlock
 70
     0
  3

 72
    65
 73
     0
 40
0.0
  0
LTYPE
  5
15
330
5
100
AcDbSymbolTableRecord
100
AcDbLinetypeTableRecord
  2
ByLayer
 70
     0
  3

 72
    65
 73
     0
 40
0.0
  0
LTYPE
  5
16
330
5
100
AcDbSymbolTableRecord
100
AcDbLinetypeTableRecord
  2
Continuous
 70
     0
  3
Solid line
 72
    65
 73
     0
 40
0.0
  0
ENDTAB
  0
TABLE
  2
LAYER
  5
2
330
0
100
AcDbSymbolTable
 70
     1
  0
LAYER
  5
10
330
2
100
AcDbSymbolTableRecord
100
AcDbLayerTableRecord
  2
0
 70
     0
 62
     7
  6
Continuous
370
    -3
390
F
347
3E
  0
ENDTAB
  0
TABLE
  2
STYLE
  5
3
330
0
100
AcDbSymbolTable
 70
     1
  0
STYLE
  5
11
330
3
100
AcDbSymbolTableRecord
100
AcDbTextStyleTableRecord
  2
Standard
 70
     0
 40
0.0
 41
1.0
 50
0.0
 71
     0
 42
0.2
  3
txt
  4

  0
ENDTAB
  0
TABLE
  2
VIEW
  5
6
330
0
100
AcDbSymbolTable
 70
     0
  0
ENDTAB
  0
TABLE
  2
UCS
  5
7
330
0
100
AcDbSymbolTable
 70
     0
  0
ENDTAB
  0
TABLE
  2
APPID
  5
9
330
0
100
AcDbSymbolTable
 70
     1
  0
APPID
  5
12
330
9
100
AcDbSymbolTableRecord
100
AcDbRegAppTableRecord
  2
ACAD
 70
     0
  0
ENDTAB
  0
TABLE
  2
DIMSTYLE
  5
A
330
0
100
AcDbSymbolTable
 70
     1
100
AcDbDimStyleTable
  0
DIMSTYLE
105
27
330
A
100
AcDbSymbolTableRecord
100
AcDbDimStyleTableRecord
  2
Standard
 70
     0
178
     0
340
11
  0
ENDTAB
  0
TABLE
  2
BLOCK_RECORD
  5
1
330
0
100
AcDbSymbolTable
 70
    11
  0
BLOCK_RECORD
  5
1F
330
1
100
AcDbSymbolTableRecord
100
AcDbBlockTableRecord
  2
*Model_Space
340
22
 70
     0
280
     1
281
     0
  0
BLOCK_RECORD
  5
1B
330
1
100
AcDbSymbolTableRecord
100
AcDbBlockTableRecord
  2
*Paper_Space
340
1E
 70
     0
280
     1
281
     0
  0
BLOCK_RECORD
  5
23
330
1
100
AcDbSymbolTableRecord
100
AcDbBlockTableRecord
  2
*Paper_Space0
340
26
 70
     0
280
     1
281
     0
  0
BLOCK_RECORD
  5
40
330
1
100
AcDbSymbolTableRecord
100
AcDbBlockTableRecord
  2
block 2
340
0
102
{BLKREFS
331
41
102
}
 70
     0
280
     1
281
     0
  0
BLOCK_RECORD
  5
4C
330
1
100
AcDbSymbolTableRecord
100
AcDbBlockTableRecord
  2
block 3
340
0
102
{BLKREFS
331
4D
102
}
 70
     0
280
     1
281
     0
  0
BLOCK_RECORD
  5
51
330
1
100
AcDbSymbolTableRecord
100
AcDbBlockTableRecord
  2
block 4
340
0
102
{BLKREFS
331
52
102
}
 70
     0
280
     1
281
     0
  0
BLOCK_RECORD
  5
56
330
1
100
AcDbSymbolTableRecord
100
AcDbBlockTableRecord
  2
block 5
340
0
102
{BLKREFS
331
57
102
}
 70
     0
280
     1
281
     0
  0
BLOCK_RECORD
  5
5B
330
1
100
AcDbSymbolTableRecord
100
AcDbBlockTableRecord
  2
block 6
340
0
102
{BLKREFS
331
5C
102
}
 70
     0
280
     1
281
     0
  0
BLOCK_RECORD
  5
60
330
1
100
AcDbSymbolTableRecord
100
AcDbBlockTableRecord
  2
block 7
340
0
102
{BLKREFS
331
61
102
}
 70
     0
280
     1
281
     0
  0
BLOCK_RECORD
  5
65
330
1
100
AcDbSymbolTableRecord
100
AcDbBlockTableRecord
  2
block 8
340
0
102
{BLKREFS
331
66
102
}
 70
     0
280
     1
281
     0
  0
BLOCK_RECORD
  5
6A
330
1
100
AcDbSymbolTableRecord
100
AcDbBlockTableRecord
  2
block 9
340
0
102
{BLKREFS
331
6B
102
}
 70
     0
280
     1
281
     0
  0
BLOCK_RECORD
  5
70
330
1
100
AcDbSymbolTableRecord
100
AcDbBlockTableRecord
  2
block 10
340
0
102
{BLKREFS
331
71
102
}
 70
     0
280
     1
281
     0
  0
BLOCK_RECORD
  5
76
330
1
100
AcDbSymbolTableRecord
100
AcDbBlockTableRecord
  2
block 11
340
0
102
{BLKREFS
331
77
102
}
 70
     0
280
     1
281
     0
  0
ENDTAB
  0
ENDSEC
  0
SECTION
  2
BLOCKS
  0
BLOCK
  5
20
330
1F
100
AcDbEntity
  8
0
100
AcDbBlockBegin
  2
*Model_Space
 70
     0
 10
0.0
 20
0.0
 30
0.0
  3
*Model_Space
  1

  0
ENDBLK
  5
21
330
1F
100
AcDbEntity
  8
0
100
AcDbBlockEnd
  0
BLOCK
  5
1C
330
1B
100
AcDbEntity
 67
     1
  8
0
100
AcDbBlockBegin
  2
*Paper_Space
 70
     0
 10
0.0
 20
0.0
 30
0.0
  3
*Paper_Space
  1

  0
ENDBLK
  5
1D
330
1B
100
AcDbEntity
 67
     1
  8
0
100
AcDbBlockEnd
  0
BLOCK
  5
24
330
23
100
AcDbEntity
  8
0
100
AcDbBlockBegin
  2
*Paper_Space0
 70
     0
 10
0.0
 20
0.0
 30
0.0
  3
*Paper_Space0
  1

  0
ENDBLK
  5
25
330
23
100
AcDbEntity
  8
0
100
AcDbBlockEnd
  0
BLOCK
  5
42
330
40
100
AcDbEntity
  8
0
100
AcDbBlockBegin
  2
block 2
 70
     0
 10
0.0
 20
0.0
 30
0.0
  3
block 2
  1

  0
POLYLINE
  5
44
330
40
100
AcDbEntity
  8
0
 62
     7
420
 16777215
370
     5
100
AcDb2dPolyline
 66
     1
 10
0.0
 20
0.0
 30
0.0
  0
VERTEX
  5
45
330
44
100
AcDbEntity
  8
0
 62
     7
420
 16777215
370
     5
100
AcDbVertex
100
AcDb2dVertex
 10
98.39677775166163
 20
152.3788332964612
 30
0.0
  0
VERTEX
  5
46
330
44
100
AcDbEntity
  8
0
 62
     7
420
 16777215
370
     5
100
AcDbVertex
100
AcDb2dVertex
 10
98.39677775133116
 20
145.0128332964607
 30
0.0
  0
VERTEX
  5
47
330
44
100
AcDbEntity
  8
0
 62
     7
420
 16777215
370
     5
100
AcDbVertex
100
AcDb2dVertex
 10
111.8587777513307
 20
145.0128332958562
 30
0.0
  0
VERTEX
  5
48
330
44
100
AcDbEntity
  8
0
 62
     7
420
 16777215
370
     5
100
AcDbVertex
100
AcDb2dVertex
 10
111.8587777516618
 20
152.3788332958571
 30
0.0
  0
VERTEX
  5
49
330
44
100
AcDbEntity
  8
0
 62
     7
420
 16777215
370
     5
100
AcDbVertex
100
AcDb2dVertex
 10
98.39677775166163
 20
152.3788332964612
 30
0.0
  0
SEQEND
  5
4B
330
44
100
AcDbEntity
  8
0
 62
     7
420
 16777215
370
     5
  0
HATCH
  5
4A
330
40
100
AcDbEntity
  8
0
 62
     7
420
 16777215
100
AcDbHatch
 10
0.0
 20
0.0
 30
0.0
210
0.0
220
0.0
230
1.0
  2
SOLID
 70
     1
 71
     0
 91
        1
 92
        1
 93
        4
 72
     1
 10
98.39677775166163
 20
152.3788332964612
 11
98.39677775133116
 21
145.0128332964607
 72
     1
 10
98.39677775133116
 20
145.0128332964607
 11
111.8587777513307
 21
145.0128332958562
 72
     1
 10
111.8587777513307
 20
145.0128332958562
 11
111.8587777516618
 21
152.3788332958571
 72
     1
 10
111.8587777516618
 20
152.3788332958571
 11
98.39677775166163
 21
152.3788332964612
 97
        0
 75
     2
 76
     1
 98
        0
  0
ENDBLK
  5
43
330
40
100
AcDbEntity
  8
0
100
AcDbBlockEnd
  0
BLOCK
  5
4E
330
4C
100
AcDbEntity
  8
0
100
AcDbBlockBegin
  2
block 3
 70
     0
 10
0.0
 20
0.0
 30
0.0
  3
block 3
  1

  0
SPLINE
  5
50
330
4C
100
AcDbEntity
  8
0
 62
     7
420
 16777215
370
     5
100
AcDbSpline
210
0.0
220
0.0
230
1.0
 70
    11
 71
     3
 72
   197
 73
   193
 74
     0
 42
0.0000000001
 43
0.0000000001
 12
1.0
 22
0.0
 32
0.0
 13
1.0
 23
0.0
 33
0.0
 40
0.0
 40
0.0
 40
0.0
 40
0.0
 40
1.0
 40
1.0
 40
1.0
 40
2.0
 40
2.0
 40
2.0
 40
3.0
 40
3.0
 40
3.0
 40
4.0
 40
4.0
 40
4.0
 40
5.0
 40
5.0
 40
5.0
 40
6.0
 40
6.0
 40
6.0
 40
7.0
 40
7.0
 40
7.0
 40
8.0
 40
8.0
 40
8.0
 40
9.0
 40
9.0
 40
9.0
 40
10.0
 40
10.0
 40
10.0
 40
11.0
 40
11.0
 40
11.0
 40
12.0
 40
12.0
 40
12.0
 40
13.0
 40
13.0
 40
13.0
 40
14.0
 40
14.0
 40
14.0
 40
15.0
 40
15.0
 40
15.0
 40
16.0
 40
16.0
 40
16.0
 40
17.0
 40
17.0
 40
17.0
 40
18.0
 40
18.0
 40
18.0
 40
19.0
 40
19.0
 40
19.0
 40
20.0
 40
20.0
 40
20.0
 40
21.0
 40
21.0
 40
21.0
 40
22.0
 40
22.0
 40
22.0
 40
23.0
 40
23.0
 40
23.0
 40
24.0
 40
24.0
 40
24.0
 40
25.0
 40
25.0
 40
25.0
 40
26.0
 40
26.0
 40
26.0
 40
27.0
 40
27.0
 40
27.0
 40
28.0
 40
28.0
 40
28.0
 40
29.0
 40
29.0
 40
29.0
 40
30.0
 40
30.0
 40
30.0
 40
31.0
 40
31.0
 40
31.0
 40
32.0
 40
32.0
 40
32.0
 40
33.0
 40
33.0
 40
33.0
 40
34.0
 40
34.0
 40
34.0
 40
35.0
 40
35.0
 40
35.0
 40
36.0
 40
36.0
 40
36.0
 40
37.0
 40
37.0
 40
37.0
 40
38.0
 40
38.0
 40
38.0
 40
39.0
 40
39.0
 40
39.0
 40
40.0
 40
40.0
 40
40.0
 40
41.0
 40
41.0
 40
41.0
 40
42.0
 40
42.0
 40
42.0
 40
43.0
 40
43.0
 40
43.0
 40
44.0
 40
44.0
 40
44.0
 40
45.0
 40
45.0
 40
45.0
 40
46.0
 40
46.0
 40
46.0
 40
47.0
 40
47.0
 40
47.0
 40
48.0
 40
48.0
 40
48.0
 40
49.0
 40
49.0
 40
49.0
 40
50.0
 40
50.0
 40
50.0
 40
51.0
 40
51.0
 40
51.0
 40
52.0
 40
52.0
 40
52.0
 40
53.0
 40
53.0
 40
53.0
 40
54.0
 40
54.0
 40
54.0
 40
55.0
 40
55.0
 40
55.0
 40
56.0
 40
56.0
 40
56.0
 40
57.0
 40
57.0
 40
57.0
 40
58.0
 40
58.0
 40
58.0
 40
59.0
 40
59.0
 40
59.0
 40
60.0
 40
60.0
 40
60.0
 40
61.0
 40
61.0
 40
61.0
 40
62.0
 40
62.0
 40
62.0
 40
63.0
 40
63.0
 40
63.0
 40
64.0
 40
64.0
 40
64.0
 40
64.0
 10
109.8745781044333
 20
147.2883912579456
 30
0.0
 10
109.8615482804329
 20
147.2886346119467
 30
0.0
 10
109.8485184566141
 20
147.2888779669527
 30
0.0
 10
109.8356282621761
 20
147.2906492197718
 30
0.0
 10
109.824274636924
 20
147.2922093312822
 30
0.0
 10
109.813029336245
 20
147.2949547870033
 30
0.0
 10
109.8023233244228
 20
147.299116576955
 30
0.0
 10
109.7927230611234
 20
147.3028485249489
 30
0.0
 10
109.7835564407815
 20
147.3077193493659
 30
0.0
 10
109.775227781938
 20
147.3137933289793
 30
0.0
 10
109.7671358577813
 20
147.3196946611499
 30
0.0
 10
109.759834935523
 20
147.3267317233572
 30
0.0
 10
109.7537771441373
 20
147.3346794761142
 30
0.0
 10
109.7472318220283
 20
147.3432668635827
 30
0.0
 10
109.7421377767899
 20
147.3529174248141
 30
0.0
 10
109.7379714109574
 20
147.3629039997117
 30
0.0
 10
109.7330270326029
 20
147.3747554325255
 30
0.0
 10
109.7293891455023
 20
147.3870800879989
 30
0.0
 10
109.7266816016249
 20
147.3995958798751
 30
0.0
 10
109.7235060698195
 20
147.414274975383
 30
0.0
 10
109.7216102879775
 20
147.4292169919282
 30
0.0
 10
109.7204722063089
 20
147.4441906272233
 30
0.0
 10
109.7191196257717
 20
147.4619864043113
 30
0.0
 10
109.7188372744417
 20
147.4798268419532
 30
0.0
 10
109.7185549234422
 20
147.4976672789533
 30
0.0
 10
109.7185549234422
 20
147.4976672789533
 30
0.0
 10
109.7182142445405
 20
149.683524316953
 30
0.0
 10
109.7182142445405
 20
149.683524316953
 30
0.0
 10
109.718136961541
 20
149.6951898579529
 30
0.0
 10
109.7180596782837
 20
149.7068553986259
 30
0.0
 10
109.7182142448575
 20
149.7185227262319
 30
0.0
 10
109.7183464683903
 20
149.7285035081853
 30
0.0
 10
109.7186483572647
 20
149.7384855977982
 30
0.0
 10
109.7193432257199
 20
149.748440721372
 30
0.0
 10
109.7198959744232
 20
149.7563597477861
 30
0.0
 10
109.7206973913307
 20
149.7642617107274
 30
0.0
 10
109.7216011877097
 20
149.7721493210556
 30
0.0
 10
109.7222950101474
 20
149.7782044471306
 30
0.0
 10
109.723049167453
 20
149.7842511148396
 30
0.0
 10
109.7244236399514
 20
149.7902130161137
 30
0.0
 10
109.7266859928317
 20
149.8000261804553
 30
0.0
 10
109.7306289327224
 20
149.8096096915968
 30
0.0
 10
109.7362779396172
 20
149.8178730489294
 30
0.0
 10
109.7420517852126
 20
149.8263190200932
 30
0.0
 10
109.7496079365477
 20
149.8333858439519
 30
0.0
 10
109.7571640865481
 20
149.8404526679514
 30
0.0
 10
109.764610453548
 20
149.8473901959515
 30
0.0
 10
109.7720568195258
 20
149.8543277245555
 30
0.0
 10
109.780308196122
 20
149.8602098342547
 30
0.0
 10
109.7883218969328
 20
149.8659225134316
 30
0.0
 10
109.7970949006099
 20
149.8706396994048
 30
0.0
 10
109.8062747580242
 20
149.8743220963066
 30
0.0
 10
109.8155479157978
 20
149.8780419196016
 30
0.0
 10
109.8252362395302
 20
149.8807058125766
 30
0.0
 10
109.8350637717003
 20
149.8822249625889
 30
0.0
 10
109.84549634262
 20
149.883837640113
 30
0.0
 10
109.8560857905496
 20
149.8841602819469
 30
0.0
 10
109.8666752375494
 20
149.884482923946
 30
0.0
 10
109.8832192085496
 20
149.8844807379456
 30
0.0
 10
109.8997631796415
 20
149.8844785520918
 30
0.0
 10
109.9157859084172
 20
149.8810959813732
 30
0.0
 10
109.9306965982299
 20
149.8779481740635
 30
0.0
 10
109.9451558873989
 20
149.8718729223412
 30
0.0
 10
109.9581226937981
 20
149.8635967772436
 30
0.0
 10
109.9716974051599
 20
149.85493263301
 30
0.0
 10
109.9836364134066
 20
149.8438563951681
 30
0.0
 10
109.9936855934046
 20
149.8314208200986
 30
0.0
 10
110.0050275898734
 20
149.8173854213336
 30
0.0
 10
110.0139622315456
 20
149.8016184329399
 30
0.0
 10
110.0228968725448
 20
149.7858514449396
 30
0.0
 10
110.0228968725448
 20
149.7858514449396
 30
0.0
 10
110.8746308528798
 20
148.1031318179017
 30
0.0
 10
110.8746308528798
 20
148.1031318179017
 30
0.0
 10
110.8746308528798
 20
148.1031318179017
 30
0.0
 10
110.8742907255402
 20
149.6767504319011
 30
0.0
 10
110.8742907255402
 20
149.6767504319011
 30
0.0
 10
110.8743975715413
 20
149.6946576809012
 30
0.0
 10
110.8745044187076
 20
149.7125649293286
 30
0.0
 10
110.8759841964556
 20
149.7303770262115
 30
0.0
 10
110.8772436382255
 20
149.7455369371164
 30
0.0
 10
110.8794975960062
 20
149.7606279226614
 30
0.0
 10
110.8827580823153
 20
149.7755362634291
 30
0.0
 10
110.8854991300928
 20
149.7880695086166
 30
0.0
 10
110.8889515462206
 20
149.8004736688255
 30
0.0
 10
110.894047891327
 20
149.8122281438678
 30
0.0
 10
110.8983147618707
 20
149.8220694756965
 30
0.0
 10
110.9037339822021
 20
149.8314553957813
 30
0.0
 10
110.9104181148319
 20
149.8398881768849
 30
0.0
 10
110.9165630008859
 20
149.8476406381054
 30
0.0
 10
110.923776936812
 20
149.8545875469507
 30
0.0
 10
110.9318687529566
 20
149.8602098340256
 30
0.0
 10
110.9405103842999
 20
149.8662141390354
 30
0.0
 10
110.9501532476403
 20
149.870707698419
 30
0.0
 10
110.96009327606
 20
149.8743220959152
 30
0.0
 10
110.9710903801702
 20
149.8783208677378
 30
0.0
 10
110.9824512143393
 20
149.8812435454028
 30
0.0
 10
110.9939627042718
 20
149.8827894528597
 30
0.0
 10
111.0071897089146
 20
149.8845657411794
 30
0.0
 10
111.0206156185496
 20
149.8845243328948
 30
0.0
 10
111.0340415275493
 20
149.884482923894
 30
0.0
 10
111.0472321695498
 20
149.884122769893
 30
0.0
 10
111.0604228105081
 20
149.8837626156536
 30
0.0
 10
111.0735558605505
 20
149.882224962568
 30
0.0
 10
111.084872203281
 20
149.8809000144969
 30
0.0
 10
111.0961457862798
 20
149.8787008046792
 30
0.0
 10
111.1068607979958
 20
149.8748865866538
 30
0.0
 10
111.1166169976533
 20
149.8714136765366
 30
0.0
 10
111.1259101187648
 20
149.8666018582473
 30
0.0
 10
111.134520830952
 20
149.8607743247405
 30
0.0
 10
111.1426197824395
 20
149.855293139196
 30
0.0
 10
111.150115029798
 20
149.8489133847002
 30
0.0
 10
111.1565359596044
 20
149.8415816486987
 30
0.0
 10
111.1633513291394
 20
149.8337995218593
 30
0.0
 10
111.1689563356603
 20
149.824944859994
 30
0.0
 10
111.1734706736654
 20
149.8156150869177
 30
0.0
 10
111.1786961132024
 20
149.8048156817652
 30
0.0
 10
111.1824602160627
 20
149.7933796969116
 30
0.0
 10
111.1853249732478
 20
149.7817456586735
 30
0.0
 10
111.1886589004693
 20
149.7682062784568
 30
0.0
 10
111.190774782938
 20
149.754398661128
 30
0.0
 10
111.1920988592282
 20
149.7405378549508
 30
0.0
 10
111.193655861445
 20
149.7242387141024
 30
0.0
 10
111.1941179715419
 20
149.7078660248871
 30
0.0
 10
111.1945800815412
 20
149.6914933348871
 30
0.0
 10
111.1945800815412
 20
149.6914933348871
 30
0.0
 10
111.194356820441
 20
147.4695926978874
 30
0.0
 10
111.194356820441
 20
147.4695926978874
 30
0.0
 10
111.1938455344402
 20
147.4552517008875
 30
0.0
 10
111.1933342477804
 20
147.4409107034319
 30
0.0
 10
111.1915343684964
 20
147.426691422308
 30
0.0
 10
111.1899399839693
 20
147.4140955765695
 30
0.0
 10
111.1873344507462
 20
147.4015952406974
 30
0.0
 10
111.18363150195
 20
147.3894350516816
 30
0.0
 10
111.1803803425542
 20
147.3787585030877
 30
0.0
 10
111.1762832184814
 20
147.3683441634801
 30
0.0
 10
111.1712127117866
 20
147.358388076085
 30
0.0
 10
111.1665118731025
 20
147.349157842581
 30
0.0
 10
111.1609744080211
 20
147.3403214787523
 30
0.0
 10
111.1542779976268
 20
147.3324215142944
 30
0.0
 10
111.1478883536876
 20
147.3248834518032
 30
0.0
 10
111.1404435161792
 20
147.3181979598206
 30
0.0
 10
111.132262869145
 20
147.3126643477659
 30
0.0
 10
111.1240243341299
 20
147.3070915787083
 30
0.0
 10
111.1150395392583
 20
147.302687049145
 30
0.0
 10
111.1057318168709
 20
147.2991165766457
 30
0.0
 10
111.0955067755352
 20
147.2951942176218
 30
0.0
 10
111.0848920180945
 20
147.2922784172027
 30
0.0
 10
111.0741203512291
 20
147.290649219723
 30
0.0
 10
111.0622058678899
 20
147.2888471730684
 30
0.0
 10
111.0500994144333
 20
147.2886192148929
 30
0.0
 10
111.0379929604333
 20
147.2883912578942
 30
0.0
 10
111.0218133244332
 20
147.2888767068945
 30
0.0
 10
111.0056336878646
 20
147.2893621559897
 30
0.0
 10
110.9900112711709
 20
147.2929071813618
 30
0.0
 10
110.9755694018869
 20
147.2961843179296
 30
0.0
 10
110.9616037189976
 20
147.3020760931045
 30
0.0
 10
110.9488034666666
 20
147.3098418953111
 30
0.0
 10
110.9359080134594
 20
147.3176654550631
 30
0.0
 10
110.9241953908732
 20
147.3273910213676
 30
0.0
 10
110.9143695480451
 20
147.3386309094743
 30
0.0
 10
110.9034802813359
 20
147.3510872596827
 30
0.0
 10
110.8949082964366
 20
147.3654034509002
 30
0.0
 10
110.8863363124376
 20
147.3797196419008
 30
0.0
 10
110.8863363124376
 20
147.3797196419008
 30
0.0
 10
110.038504152513
 20
149.0742340329385
 30
0.0
 10
110.038504152513
 20
149.0742340329385
 30
0.0
 10
110.038504152513
 20
149.0742340329385
 30
0.0
 10
110.038280340441
 20
147.4735441319393
 30
0.0
 10
110.038280340441
 20
147.4735441319393
 30
0.0
 10
110.037528254441
 20
147.4590164639393
 30
0.0
 10
110.0367761689571
 20
147.4444887958969
 30
0.0
 10
110.0348933976901
 20
147.4300783657442
 30
0.0
 10
110.0332248172949
 20
147.4173073182696
 30
0.0
 10
110.0306681794114
 20
147.4046283511832
 30
0.0
 10
110.026990531188
 20
147.3922575041812
 30
0.0
 10
110.0236880043013
 20
147.3811484876687
 30
0.0
 10
110.0194814908591
 20
147.3702879402405
 30
0.0
 10
110.0140072501792
 20
147.360081547375
 30
0.0
 10
110.0090165930175
 20
147.3507767669275
 30
0.0
 10
110.0029722927746
 20
147.3420156723825
 30
0.0
 10
109.9959435549305
 20
147.3341149857025
 30
0.0
 10
109.9890996819699
 20
147.3264220972872
 30
0.0
 10
109.9813224743758
 20
147.3195449522532
 30
0.0
 10
109.9727994456286
 20
147.3137933289087
 30
0.0
 10
109.9642065606538
 20
147.3079945642595
 30
0.0
 10
109.9548555786635
 20
147.3033398468519
 30
0.0
 10
109.9451394128143
 20
147.299681067323
 30
0.0
 10
109.9345579140297
 20
147.2956964326715
 30
0.0
 10
109.9235432873968
 20
147.2928930343211
 30
0.0
 10
109.9123989658801
 20
147.2912137098241
 30
0.0
 10
109.8999007598565
 20
147.2893303700862
 30
0.0
 10
109.887239432433
 20
147.2888608139459
 30
0.0
 10
109.8745781044333
 20
147.2883912579456
 30
0.0
  0
ENDBLK
  5
4F
330
4C
100
AcDbEntity
  8
0
100
AcDbBlockEnd
  0
BLOCK
  5
53
330
51
100
AcDbEntity
  8
0
100
AcDbBlockBegin
  2
block 4
 70
     0
 10
0.0
 20
0.0
 30
0.0
  3
block 4
  1

  0
SPLINE
  5
55
330
51
100
AcDbEntity
  8
0
 62
     7
420
 16777215
370
     5
100
AcDbSpline
210
0.0
220
0.0
230
1.0
 70
    11
 71
     3
 72
   293
 73
   289
 74
     0
 42
0.0000000001
 43
0.0000000001
 12
1.0
 22
0.0
 32
0.0
 13
1.0
 23
0.0
 33
0.0
 40
0.0
 40
0.0
 40
0.0
 40
0.0
 40
1.0
 40
1.0
 40
1.0
 40
2.0
 40
2.0
 40
2.0
 40
3.0
 40
3.0
 40
3.0
 40
4.0
 40
4.0
 40
4.0
 40
5.0
 40
5.0
 40
5.0
 40
6.0
 40
6.0
 40
6.0
 40
7.0
 40
7.0
 40
7.0
 40
8.0
 40
8.0
 40
8.0
 40
9.0
 40
9.0
 40
9.0
 40
10.0
 40
10.0
 40
10.0
 40
11.0
 40
11.0
 40
11.0
 40
12.0
 40
12.0
 40
12.0
 40
13.0
 40
13.0
 40
13.0
 40
14.0
 40
14.0
 40
14.0
 40
15.0
 40
15.0
 40
15.0
 40
16.0
 40
16.0
 40
16.0
 40
17.0
 40
17.0
 40
17.0
 40
18.0
 40
18.0
 40
18.0
 40
19.0
 40
19.0
 40
19.0
 40
20.0
 40
20.0
 40
20.0
 40
21.0
 40
21.0
 40
21.0
 40
22.0
 40
22.0
 40
22.0
 40
23.0
 40
23.0
 40
23.0
 40
24.0
 40
24.0
 40
24.0
 40
25.0
 40
25.0
 40
25.0
 40
26.0
 40
26.0
 40
26.0
 40
27.0
 40
27.0
 40
27.0
 40
28.0
 40
28.0
 40
28.0
 40
29.0
 40
29.0
 40
29.0
 40
30.0
 40
30.0
 40
30.0
 40
31.0
 40
31.0
 40
31.0
 40
32.0
 40
32.0
 40
32.0
 40
33.0
 40
33.0
 40
33.0
 40
34.0
 40
34.0
 40
34.0
 40
35.0
 40
35.0
 40
35.0
 40
36.0
 40
36.0
 40
36.0
 40
37.0
 40
37.0
 40
37.0
 40
38.0
 40
38.0
 40
38.0
 40
39.0
 40
39.0
 40
39.0
 40
40.0
 40
40.0
 40
40.0
 40
41.0
 40
41.0
 40
41.0
 40
42.0
 40
42.0
 40
42.0
 40
43.0
 40
43.0
 40
43.0
 40
44.0
 40
44.0
 40
44.0
 40
45.0
 40
45.0
 40
45.0
 40
46.0
 40
46.0
 40
46.0
 40
47.0
 40
47.0
 40
47.0
 40
48.0
 40
48.0
 40
48.0
 40
49.0
 40
49.0
 40
49.0
 40
50.0
 40
50.0
 40
50.0
 40
51.0
 40
51.0
 40
51.0
 40
52.0
 40
52.0
 40
52.0
 40
53.0
 40
53.0
 40
53.0
 40
54.0
 40
54.0
 40
54.0
 40
55.0
 40
55.0
 40
55.0
 40
56.0
 40
56.0
 40
56.0
 40
57.0
 40
57.0
 40
57.0
 40
58.0
 40
58.0
 40
58.0
 40
59.0
 40
59.0
 40
59.0
 40
60.0
 40
60.0
 40
60.0
 40
61.0
 40
61.0
 40
61.0
 40
62.0
 40
62.0
 40
62.0
 40
63.0
 40
63.0
 40
63.0
 40
64.0
 40
64.0
 40
64.0
 40
65.0
 40
65.0
 40
65.0
 40
66.0
 40
66.0
 40
66.0
 40
67.0
 40
67.0
 40
67.0
 40
68.0
 40
68.0
 40
68.0
 40
69.0
 40
69.0
 40
69.0
 40
70.0
 40
70.0
 40
70.0
 40
71.0
 40
71.0
 40
71.0
 40
72.0
 40
72.0
 40
72.0
 40
73.0
 40
73.0
 40
73.0
 40
74.0
 40
74.0
 40
74.0
 40
75.0
 40
75.0
 40
75.0
 40
76.0
 40
76.0
 40
76.0
 40
77.0
 40
77.0
 40
77.0
 40
78.0
 40
78.0
 40
78.0
 40
79.0
 40
79.0
 40
79.0
 40
80.0
 40
80.0
 40
80.0
 40
81.0
 40
81.0
 40
81.0
 40
82.0
 40
82.0
 40
82.0
 40
83.0
 40
83.0
 40
83.0
 40
84.0
 40
84.0
 40
84.0
 40
85.0
 40
85.0
 40
85.0
 40
86.0
 40
86.0
 40
86.0
 40
87.0
 40
87.0
 40
87.0
 40
88.0
 40
88.0
 40
88.0
 40
89.0
 40
89.0
 40
89.0
 40
90.0
 40
90.0
 40
90.0
 40
91.0
 40
91.0
 40
91.0
 40
92.0
 40
92.0
 40
92.0
 40
93.0
 40
93.0
 40
93.0
 40
94.0
 40
94.0
 40
94.0
 40
95.0
 40
95.0
 40
95.0
 40
96.0
 40
96.0
 40
96.0
 40
96.0
 10
105.5443717174479
 20
147.6090218441409
 30
0.0
 10
105.5655548444473
 20
147.6103489421399
 30
0.0
 10
105.5867379718689
 20
147.6116760400196
 30
0.0
 10
105.6075946494105
 20
147.6152312393542
 30
0.0
 10
105.6281402323795
 20
147.6187334099532
 30
0.0
 10
105.6483690313784
 20
147.6243977097733
 30
0.0
 10
105.6679951294369
 20
147.6316014628508
 30
0.0
 10
105.6878774569759
 20
147.6388992648795
 30
0.0
 10
105.7071412436636
 20
147.6477769793772
 30
0.0
 10
105.7255731580994
 20
147.6581325147783
 30
0.0
 10
105.7447365724565
 20
147.6688990261188
 30
0.0
 10
105.7630007759877
 20
147.6812629853299
 30
0.0
 10
105.7803287336399
 20
147.6948243951702
 30
0.0
 10
105.7981874403546
 20
147.7088011860764
 30
0.0
 10
105.8150516690862
 20
147.7240499059874
 30
0.0
 10
105.8305683852392
 20
147.7405481235162
 30
0.0
 10
105.8463359358986
 20
147.7573130419503
 30
0.0
 10
105.8607120555851
 20
147.7753681818749
 30
0.0
 10
105.8740341513689
 20
147.7941747181115
 30
0.0
 10
105.8877300681864
 20
147.8135089700274
 30
0.0
 10
105.9003119788861
 20
147.8336373785922
 30
0.0
 10
105.9112905221371
 20
147.854575197776
 30
0.0
 10
105.9228179884814
 20
147.8765599001607
 30
0.0
 10
105.9325777434608
 20
147.899436977123
 30
0.0
 10
105.942337497461
 20
147.9223140541226
 30
0.0
 10
105.9508679324624
 20
147.9471704641221
 30
0.0
 10
105.9593983677705
 20
147.9720268742025
 30
0.0
 10
105.9660460975127
 20
147.9973912863375
 30
0.0
 10
105.9737113754953
 20
148.0266381536752
 30
0.0
 10
105.9788734767395
 20
148.0565604420402
 30
0.0
 10
105.9829808118977
 20
148.0865807805694
 30
0.0
 10
105.9876770936979
 20
148.1209057051312
 30
0.0
 10
105.9909944393085
 20
148.1553588144382
 30
0.0
 10
105.9931416403132
 20
148.1898825366854
 30
0.0
 10
105.9955695914857
 20
148.2289202940712
 30
0.0
 10
105.9965013964775
 20
148.2680483371203
 30
0.0
 10
105.9974332004784
 20
148.3071763791202
 30
0.0
 10
105.9974332004784
 20
148.3071763791202
 30
0.0
 10
105.9970930735405
 20
149.6795728841203
 30
0.0
 10
105.9970930735405
 20
149.6795728841203
 30
0.0
 10
105.9974742635417
 20
149.6969065021202
 30
0.0
 10
105.9978554538189
 20
149.7142401203704
 30
0.0
 10
105.9993510349997
 20
149.731506007465
 30
0.0
 10
106.0006327349491
 20
149.7463027212081
 30
0.0
 10
106.002732881423
 20
149.7610496908909
 30
0.0
 10
106.0061249206701
 20
149.7755362637294
 30
0.0
 10
106.0089792617176
 20
149.7877264586184
 30
0.0
 10
106.0127483823384
 20
149.7997322684577
 30
0.0
 10
106.0179792210329
 20
149.8110991636949
 30
0.0
 10
106.0225048067304
 20
149.8209335060469
 30
0.0
 10
106.0281245265138
 20
149.8302896041629
 30
0.0
 10
106.0349139350598
 20
149.8387591967695
 30
0.0
 10
106.041266631484
 20
149.846684003518
 30
0.0
 10
106.0486433813862
 20
149.8538326815405
 30
0.0
 10
106.056929063154
 20
149.8596453436236
 30
0.0
 10
106.0654074609598
 20
149.8655932019688
 30
0.0
 10
106.0748375638969
 20
149.8701421730354
 30
0.0
 10
106.0845890960858
 20
149.8737576053566
 30
0.0
 10
106.0953808269364
 20
149.8777586968532
 30
0.0
 10
106.1065662183332
 20
149.8806164656112
 30
0.0
 10
106.1178940338609
 20
149.8822249628305
 30
0.0
 10
106.1307549255069
 20
149.8840511497413
 30
0.0
 10
106.1437994005494
 20
149.8842670371132
 30
0.0
 10
106.1568438765493
 20
149.8844829241132
 30
0.0
 10
106.1700474305497
 20
149.8841858631126
 30
0.0
 10
106.1832509845372
 20
149.883888801178
 30
0.0
 10
106.1963582091335
 20
149.8822249627895
 30
0.0
 10
106.2076939946537
 20
149.8807859918631
 30
0.0
 10
106.2189577290822
 20
149.8783247188526
 30
0.0
 10
106.2296631464562
 20
149.8743220961215
 30
0.0
 10
106.2394562543291
 20
149.8706605745946
 30
0.0
 10
106.2487821493695
 20
149.8657092153968
 30
0.0
 10
106.2573231794438
 20
149.8596453438254
 30
0.0
 10
106.2654953971111
 20
149.8538433178454
 30
0.0
 10
106.2729490692463
 20
149.8470227844418
 30
0.0
 10
106.2793383076368
 20
149.8393236867274
 30
0.0
 10
106.2861523043472
 20
149.8311127508858
 30
0.0
 10
106.2917556352199
 20
149.821902553415
 30
0.0
 10
106.296273021572
 20
149.8122281445987
 30
0.0
 10
106.3014971807038
 20
149.8010401152356
 30
0.0
 10
106.3052690076492
 20
149.7892312539014
 30
0.0
 10
106.3081273217345
 20
149.7772297357645
 30
0.0
 10
106.3114869822182
 20
149.7631231592912
 30
0.0
 10
106.3135845665816
 20
149.7487504151923
 30
0.0
 10
106.3149012077643
 20
149.7343284596175
 30
0.0
 10
106.3164325451606
 20
149.7175548084578
 30
0.0
 10
106.3169074875416
 20
149.7007145881059
 30
0.0
 10
106.3173824295409
 20
149.6838743681063
 30
0.0
 10
106.3173824295409
 20
149.6838743681063
 30
0.0
 10
106.3171591694769
 20
148.2598793551059
 30
0.0
 10
106.3171591694769
 20
148.2598793551059
 30
0.0
 10
106.3161844224757
 20
148.2244712781057
 30
0.0
 10
106.3152096756902
 20
148.1890632006734
 30
0.0
 10
106.3126432455525
 20
148.153755146797
 30
0.0
 10
106.3102002481892
 20
148.1201452381402
 30
0.0
 10
106.306314990101
 20
148.0866259631173
 30
0.0
 10
106.301353436313
 20
148.0532758435791
 30
0.0
 10
106.2965941005607
 20
148.0212849747849
 30
0.0
 10
106.2908444144016
 20
147.9894497539262
 30
0.0
 10
106.2838542315882
 20
147.9578769537925
 30
0.0
 10
106.2771637229899
 20
147.9276577025335
 30
0.0
 10
106.2693367998147
 20
147.8976788539694
 30
0.0
 10
106.2601456316444
 20
147.8681229698857
 30
0.0
 10
106.2512355675709
 20
147.8394710274963
 30
0.0
 10
106.2410434309563
 20
147.8112165732024
 30
0.0
 10
106.229663145878
 20
147.7834493988082
 30
0.0
 10
106.2185800239675
 20
147.7564072837125
 30
0.0
 10
106.2063699935725
 20
147.729827332959
 30
0.0
 10
106.1929712655696
 20
147.7038562432437
 30
0.0
 10
106.1798267377696
 20
147.6783778761424
 30
0.0
 10
106.1655381883671
 20
147.6534854866501
 30
0.0
 10
106.1500699899144
 20
147.6293435011837
 30
0.0
 10
106.1348528536678
 20
147.6055933609694
 30
0.0
 10
106.1184940510466
 20
147.5825694630602
 30
0.0
 10
106.1009593194951
 20
147.560475664055
 30
0.0
 10
106.0837971553957
 20
147.5388513008291
 30
0.0
 10
106.0655085023547
 20
147.5181179320363
 30
0.0
 10
106.0462037434285
 20
147.4983817116463
 30
0.0
 10
106.0275735905152
 20
147.4793351747185
 30
0.0
 10
106.0079971066603
 20
147.4612173130443
 30
0.0
 10
105.9874967351478
 20
147.4441906274146
 30
0.0
 10
105.9675077812632
 20
147.4275887022422
 30
0.0
 10
105.9466404607356
 20
147.4120241896092
 30
0.0
 10
105.9248382936006
 20
147.3979024092562
 30
0.0
 10
105.903263402997
 20
147.3839278412994
 30
0.0
 10
105.8807730547989
 20
147.3713660829014
 30
0.0
 10
105.8576639268558
 20
147.3600815473044
 30
0.0
 10
105.8345331254084
 20
147.3487864282114
 30
0.0
 10
105.8107823829948
 20
147.3387709287976
 30
0.0
 10
105.7865381286312
 20
147.3301635529033
 30
0.0
 10
105.7619556329386
 20
147.3214360920508
 30
0.0
 10
105.7368657588722
 20
147.3141563193896
 30
0.0
 10
105.7114608955114
 20
147.3081484244048
 30
0.0
 10
105.6852130508409
 20
147.3019411761266
 30
0.0
 10
105.6586289661833
 20
147.2970916125142
 30
0.0
 10
105.6318677405925
 20
147.2940361625047
 30
0.0
 10
105.6041462647133
 20
147.2908710763815
 30
0.0
 10
105.5762347074334
 20
147.2896311671398
 30
0.0
 10
105.5483231504332
 20
147.2883912581406
 30
0.0
 10
105.5211771884337
 20
147.2899382211415
 30
0.0
 10
105.4940312257232
 20
147.2914851837701
 30
0.0
 10
105.4670365229646
 20
147.2946006529753
 30
0.0
 10
105.4408545645601
 20
147.2976223230363
 30
0.0
 10
105.4148148950856
 20
147.3021194736909
 30
0.0
 10
105.3891368384405
 20
147.3081484245627
 30
0.0
 10
105.3640801117012
 20
147.314031493387
 30
0.0
 10
105.339367709678
 20
147.3213731295858
 30
0.0
 10
105.315188586873
 20
147.3301635528699
 30
0.0
 10
105.2913332525783
 20
147.3388362614589
 30
0.0
 10
105.2679970105892
 20
147.3489192148178
 30
0.0
 10
105.2451917688517
 20
147.3600815476689
 30
0.0
 10
105.2221792932124
 20
147.3713453139462
 30
0.0
 10
105.1997075121961
 20
147.3837081657426
 30
0.0
 10
105.178017402732
 20
147.3973379182466
 30
0.0
 10
105.1560786327923
 20
147.4111239254125
 30
0.0
 10
105.1349395596679
 20
147.4262060478847
 30
0.0
 10
105.1147944699864
 20
147.4424971560655
 30
0.0
 10
105.0940696602967
 20
147.4592570773195
 30
0.0
 10
105.0743968653885
 20
147.4772965680129
 30
0.0
 10
105.0555229709739
 20
147.4961237502218
 30
0.0
 10
105.0359944305917
 20
147.5156039581718
 30
0.0
 10
105.0173211719793
 20
147.5359274478532
 30
0.0
 10
104.9996384143586
 20
147.557088721684
 30
0.0
 10
104.981630771299
 20
147.5786387917595
 30
0.0
 10
104.9646503605557
 20
147.6010577140206
 30
0.0
 10
104.9488342723271
 20
147.6242630866269
 30
0.0
 10
104.9330352447866
 20
147.6474434277805
 30
0.0
 10
104.9183980292249
 20
147.671408523519
 30
0.0
 10
104.9048040158086
 20
147.6959533760076
 30
0.0
 10
104.8910575549685
 20
147.7207734819777
 30
0.0
 10
104.8783778250424
 20
147.7461864207467
 30
0.0
 10
104.8669831544558
 20
147.7721595894449
 30
0.0
 10
104.8553994220711
 20
147.798563708201
 30
0.0
 10
104.8451437465298
 20
147.8255468019277
 30
0.0
 10
104.8359361786462
 20
147.8528817271097
 30
0.0
 10
104.826484153117
 20
147.8809423848106
 30
0.0
 10
104.8181366278089
 20
147.909373803969
 30
0.0
 10
104.8110985982005
 20
147.9381197875938
 30
0.0
 10
104.8038409363301
 20
147.9677628327212
 30
0.0
 10
104.7979757749587
 20
147.9977403815649
 30
0.0
 10
104.7930349033137
 20
148.027873771896
 30
0.0
 10
104.7879376035793
 20
148.0589611859364
 30
0.0
 10
104.7838240460997
 20
148.0902144655616
 30
0.0
 10
104.7811806032436
 20
148.1215791906171
 30
0.0
 10
104.7784122226498
 20
148.1544263149331
 30
0.0
 10
104.7772562054732
 20
148.1873956681752
 30
0.0
 10
104.7761001894748
 20
148.2203650221749
 30
0.0
 10
104.7760460744757
 20
148.235806587175
 30
0.0
 10
104.7759919603775
 20
148.25124815193
 30
0.0
 10
104.7766646796156
 20
148.2666532407343
 30
0.0
 10
104.7772410149907
 20
148.2798511651215
 30
0.0
 10
104.7783508298201
 20
148.2930223169742
 30
0.0
 10
104.7800516223549
 20
148.3061675733727
 30
0.0
 10
104.7814331915699
 20
148.3168455844603
 30
0.0
 10
104.7832047150813
 20
148.3275065085347
 30
0.0
 10
104.7862610174052
 20
148.3377790395542
 30
0.0
 10
104.7887180644962
 20
148.3460374151323
 30
0.0
 10
104.7920054644812
 20
148.3540447721748
 30
0.0
 10
104.7952928644809
 20
148.362052130174
 30
0.0
 10
104.802813666482
 20
148.3747435731739
 30
0.0
 10
104.81033446774
 20
148.3874350167888
 30
0.0
 10
104.8201304455182
 20
148.3981795197924
 30
0.0
 10
104.8295665942574
 20
148.4085293522203
 30
0.0
 10
104.8411138442826
 20
148.4170726484115
 30
0.0
 10
104.8534353832663
 20
148.4241460815319
 30
0.0
 10
104.8664339799186
 20
148.4316081935464
 30
0.0
 10
104.8802942964082
 20
148.437434469027
 30
0.0
 10
104.8946431874858
 20
148.4410807956612
 30
0.0
 10
104.9106100960672
 20
148.4451382913741
 30
0.0
 10
104.9271819774847
 20
148.4464964861682
 30
0.0
 10
104.9437538584851
 20
148.4478546811674
 30
0.0
 10
104.9591946844854
 20
148.4468335281668
 30
0.0
 10
104.9746355112364
 20
148.4458123759116
 30
0.0
 10
104.9894775865354
 20
148.4422097765711
 30
0.0
 10
105.0039986715586
 20
148.4386850908197
 30
0.0
 10
105.0179466235289
 20
148.4326894087252
 30
0.0
 10
105.0312498813018
 20
148.4252750625682
 30
0.0
 10
105.043612257478
 20
148.4183851008868
 30
0.0
 10
105.0554179074575
 20
148.4102700507033
 30
0.0
 10
105.0645548186265
 20
148.3998729912608
 30
0.0
 10
105.07247862612
 20
148.3908563448264
 30
0.0
 10
105.0783953054826
 20
148.3801234251614
 30
0.0
 10
105.0843119854816
 20
148.3693905061612
 30
0.0
 10
105.0868127254813
 20
148.361543498161
 30
0.0
 10
105.0893134658422
 20
148.3536964899903
 30
0.0
 10
105.0910858709083
 20
148.3456819063264
 30
0.0
 10
105.0932148770104
 20
148.336054819464
 30
0.0
 10
105.0942929884077
 20
148.3261859425923
 30
0.0
 10
105.0950373039636
 20
148.3163284019194
 30
0.0
 10
105.0955062944888
 20
148.310117201386
 30
0.0
 10
105.0958427609113
 20
148.3039105015657
 30
0.0
 10
105.0961662850827
 20
148.2977002163217
 30
0.0
 10
105.0965679802468
 20
148.2899893811705
 30
0.0
 10
105.0969497232656
 20
148.2822730186268
 30
0.0
 10
105.0972952656268
 20
148.2745561073317
 30
0.0
 10
105.097716494865
 20
148.265148899916
 30
0.0
 10
105.0980839279913
 20
148.2557408770256
 30
0.0
 10
105.0984242463942
 20
148.2463315834685
 30
0.0
 10
105.0988257317074
 20
148.2352311165546
 30
0.0
 10
105.0991894794753
 20
148.2241288811607
 30
0.0
 10
105.0995532274748
 20
148.2130266461606
 30
0.0
 10
105.1004452104742
 20
148.1921256691603
 30
0.0
 10
105.1013371926387
 20
148.1712246929574
 30
0.0
 10
105.1029401707826
 20
148.1503682042695
 30
0.0
 10
105.1044928044638
 20
148.1301667517769
 30
0.0
 10
105.1067124751829
 20
148.1100070362574
 30
0.0
 10
105.1097140562952
 20
148.0899677233421
 30
0.0
 10
105.1126064617785
 20
148.0706572944812
 30
0.0
 10
105.1162249317078
 20
148.051458668776
 30
0.0
 10
105.1204393751628
 20
148.0323896960091
 30
0.0
 10
105.1245082118872
 20
148.013979545891
 30
0.0
 10
105.129132552406
 20
147.9956902445954
 30
0.0
 10
105.1345516369019
 20
147.9776341205187
 30
0.0
 10
105.1398212195119
 20
147.9600761293991
 30
0.0
 10
105.1458423001298
 20
147.9427386271692
 30
0.0
 10
105.1526153318484
 20
147.9257009970877
 30
0.0
 10
105.1592447849932
 20
147.9090245403649
 30
0.0
 10
105.1665946465775
 20
147.8926353768272
 30
0.0
 10
105.1746304596769
 20
147.8765903267827
 30
0.0
 10
105.1826286134022
 20
147.860620470938
 30
0.0
 10
105.1913063043639
 20
147.8449915108096
 30
0.0
 10
105.20059702137
 20
147.8297376178508
 30
0.0
 10
105.2097751132
 20
147.8146686376778
 30
0.0
 10
105.2195514585471
 20
147.7999656864126
 30
0.0
 10
105.2299505260795
 20
147.7857073610117
 30
0.0
 10
105.2400506485987
 20
147.7718589238293
 30
0.0
 10
105.2507382047753
 20
147.7584299163768
 30
0.0
 10
105.2621264827433
 20
147.7456285376522
 30
0.0
 10
105.2730053895583
 20
147.7333997347868
 30
0.0
 10
105.2845237366957
 20
147.7217436715181
 30
0.0
 10
105.2965604009406
 20
147.7106301285221
 30
0.0
 10
105.3080600219005
 20
147.7000124416464
 30
0.0
 10
105.3200327399781
 20
147.6898899434738
 30
0.0
 10
105.3326877914431
 20
147.6807121333393
 30
0.0
 10
105.3449405780398
 20
147.6718260573479
 30
0.0
 10
105.3578330089298
 20
147.6638255665015
 30
0.0
 10
105.3710731431905
 20
147.6564390435768
 30
0.0
 10
105.3842476609035
 20
147.6490891273903
 30
0.0
 10
105.3977664441718
 20
147.6423471086976
 30
0.0
 10
105.4117164572634
 20
147.636681877414
 30
0.0
 10
105.4254923416089
 20
147.6310873614494
 30
0.0
 10
105.4396887574548
 20
147.626542919022
 30
0.0
 10
105.4540532421681
 20
147.6225696153766
 30
0.0
 10
105.4685583847671
 20
147.6185574049075
 30
0.0
 10
105.483234903829
 20
147.615127573235
 30
0.0
 10
105.4980834989
 20
147.6129732774433
 30
0.0
 10
105.5133909875104
 20
147.6107524034729
 30
0.0
 10
105.5288813524477
 20
147.6098871241406
 30
0.0
 10
105.5443717174479
 20
147.6090218441409
 30
0.0
  0
ENDBLK
  5
54
330
51
100
AcDbEntity
  8
0
100
AcDbBlockEnd
  0
BLOCK
  5
58
330
56
100
AcDbEntity
  8
0
100
AcDbBlockBegin
  2
block 5
 70
     0
 10
0.0
 20
0.0
 30
0.0
  3
block 5
  1

  0
SPLINE
  5
5A
330
56
100
AcDbEntity
  8
0
 62
     7
420
 16777215
370
     5
100
AcDbSpline
210
0.0
220
0.0
230
1.0
 70
    11
 71
     3
 72
   587
 73
   583
 74
     0
 42
0.0000000001
 43
0.0000000001
 12
1.0
 22
0.0
 32
0.0
 13
1.0
 23
0.0
 33
0.0
 40
0.0
 40
0.0
 40
0.0
 40
0.0
 40
1.0
 40
1.0
 40
1.0
 40
2.0
 40
2.0
 40
2.0
 40
3.0
 40
3.0
 40
3.0
 40
4.0
 40
4.0
 40
4.0
 40
5.0
 40
5.0
 40
5.0
 40
6.0
 40
6.0
 40
6.0
 40
7.0
 40
7.0
 40
7.0
 40
8.0
 40
8.0
 40
8.0
 40
9.0
 40
9.0
 40
9.0
 40
10.0
 40
10.0
 40
10.0
 40
11.0
 40
11.0
 40
11.0
 40
12.0
 40
12.0
 40
12.0
 40
13.0
 40
13.0
 40
13.0
 40
14.0
 40
14.0
 40
14.0
 40
15.0
 40
15.0
 40
15.0
 40
16.0
 40
16.0
 40
16.0
 40
17.0
 40
17.0
 40
17.0
 40
18.0
 40
18.0
 40
18.0
 40
19.0
 40
19.0
 40
19.0
 40
20.0
 40
20.0
 40
20.0
 40
21.0
 40
21.0
 40
21.0
 40
22.0
 40
22.0
 40
22.0
 40
23.0
 40
23.0
 40
23.0
 40
24.0
 40
24.0
 40
24.0
 40
25.0
 40
25.0
 40
25.0
 40
26.0
 40
26.0
 40
26.0
 40
27.0
 40
27.0
 40
27.0
 40
28.0
 40
28.0
 40
28.0
 40
29.0
 40
29.0
 40
29.0
 40
30.0
 40
30.0
 40
30.0
 40
31.0
 40
31.0
 40
31.0
 40
32.0
 40
32.0
 40
32.0
 40
33.0
 40
33.0
 40
33.0
 40
34.0
 40
34.0
 40
34.0
 40
35.0
 40
35.0
 40
35.0
 40
36.0
 40
36.0
 40
36.0
 40
37.0
 40
37.0
 40
37.0
 40
38.0
 40
38.0
 40
38.0
 40
39.0
 40
39.0
 40
39.0
 40
40.0
 40
40.0
 40
40.0
 40
41.0
 40
41.0
 40
41.0
 40
42.0
 40
42.0
 40
42.0
 40
43.0
 40
43.0
 40
43.0
 40
44.0
 40
44.0
 40
44.0
 40
45.0
 40
45.0
 40
45.0
 40
46.0
 40
46.0
 40
46.0
 40
47.0
 40
47.0
 40
47.0
 40
48.0
 40
48.0
 40
48.0
 40
49.0
 40
49.0
 40
49.0
 40
50.0
 40
50.0
 40
50.0
 40
51.0
 40
51.0
 40
51.0
 40
52.0
 40
52.0
 40
52.0
 40
53.0
 40
53.0
 40
53.0
 40
54.0
 40
54.0
 40
54.0
 40
55.0
 40
55.0
 40
55.0
 40
56.0
 40
56.0
 40
56.0
 40
57.0
 40
57.0
 40
57.0
 40
58.0
 40
58.0
 40
58.0
 40
59.0
 40
59.0
 40
59.0
 40
60.0
 40
60.0
 40
60.0
 40
61.0
 40
61.0
 40
61.0
 40
62.0
 40
62.0
 40
62.0
 40
63.0
 40
63.0
 40
63.0
 40
64.0
 40
64.0
 40
64.0
 40
65.0
 40
65.0
 40
65.0
 40
66.0
 40
66.0
 40
66.0
 40
67.0
 40
67.0
 40
67.0
 40
68.0
 40
68.0
 40
68.0
 40
69.0
 40
69.0
 40
69.0
 40
70.0
 40
70.0
 40
70.0
 40
71.0
 40
71.0
 40
71.0
 40
72.0
 40
72.0
 40
72.0
 40
73.0
 40
73.0
 40
73.0
 40
74.0
 40
74.0
 40
74.0
 40
75.0
 40
75.0
 40
75.0
 40
76.0
 40
76.0
 40
76.0
 40
77.0
 40
77.0
 40
77.0
 40
78.0
 40
78.0
 40
78.0
 40
79.0
 40
79.0
 40
79.0
 40
80.0
 40
80.0
 40
80.0
 40
81.0
 40
81.0
 40
81.0
 40
82.0
 40
82.0
 40
82.0
 40
83.0
 40
83.0
 40
83.0
 40
84.0
 40
84.0
 40
84.0
 40
85.0
 40
85.0
 40
85.0
 40
86.0
 40
86.0
 40
86.0
 40
87.0
 40
87.0
 40
87.0
 40
88.0
 40
88.0
 40
88.0
 40
89.0
 40
89.0
 40
89.0
 40
90.0
 40
90.0
 40
90.0
 40
91.0
 40
91.0
 40
91.0
 40
92.0
 40
92.0
 40
92.0
 40
93.0
 40
93.0
 40
93.0
 40
94.0
 40
94.0
 40
94.0
 40
95.0
 40
95.0
 40
95.0
 40
96.0
 40
96.0
 40
96.0
 40
97.0
 40
97.0
 40
97.0
 40
98.0
 40
98.0
 40
98.0
 40
99.0
 40
99.0
 40
99.0
 40
100.0
 40
100.0
 40
100.0
 40
101.0
 40
101.0
 40
101.0
 40
102.0
 40
102.0
 40
102.0
 40
103.0
 40
103.0
 40
103.0
 40
104.0
 40
104.0
 40
104.0
 40
105.0
 40
105.0
 40
105.0
 40
106.0
 40
106.0
 40
106.0
 40
107.0
 40
107.0
 40
107.0
 40
108.0
 40
108.0
 40
108.0
 40
109.0
 40
109.0
 40
109.0
 40
110.0
 40
110.0
 40
110.0
 40
111.0
 40
111.0
 40
111.0
 40
112.0
 40
112.0
 40
112.0
 40
113.0
 40
113.0
 40
113.0
 40
114.0
 40
114.0
 40
114.0
 40
115.0
 40
115.0
 40
115.0
 40
116.0
 40
116.0
 40
116.0
 40
117.0
 40
117.0
 40
117.0
 40
118.0
 40
118.0
 40
118.0
 40
119.0
 40
119.0
 40
119.0
 40
120.0
 40
120.0
 40
120.0
 40
121.0
 40
121.0
 40
121.0
 40
122.0
 40
122.0
 40
122.0
 40
123.0
 40
123.0
 40
123.0
 40
124.0
 40
124.0
 40
124.0
 40
125.0
 40
125.0
 40
125.0
 40
126.0
 40
126.0
 40
126.0
 40
127.0
 40
127.0
 40
127.0
 40
128.0
 40
128.0
 40
128.0
 40
129.0
 40
129.0
 40
129.0
 40
130.0
 40
130.0
 40
130.0
 40
131.0
 40
131.0
 40
131.0
 40
132.0
 40
132.0
 40
132.0
 40
133.0
 40
133.0
 40
133.0
 40
134.0
 40
134.0
 40
134.0
 40
135.0
 40
135.0
 40
135.0
 40
136.0
 40
136.0
 40
136.0
 40
137.0
 40
137.0
 40
137.0
 40
138.0
 40
138.0
 40
138.0
 40
139.0
 40
139.0
 40
139.0
 40
140.0
 40
140.0
 40
140.0
 40
141.0
 40
141.0
 40
141.0
 40
142.0
 40
142.0
 40
142.0
 40
143.0
 40
143.0
 40
143.0
 40
144.0
 40
144.0
 40
144.0
 40
145.0
 40
145.0
 40
145.0
 40
146.0
 40
146.0
 40
146.0
 40
147.0
 40
147.0
 40
147.0
 40
148.0
 40
148.0
 40
148.0
 40
149.0
 40
149.0
 40
149.0
 40
150.0
 40
150.0
 40
150.0
 40
151.0
 40
151.0
 40
151.0
 40
152.0
 40
152.0
 40
152.0
 40
153.0
 40
153.0
 40
153.0
 40
154.0
 40
154.0
 40
154.0
 40
155.0
 40
155.0
 40
155.0
 40
156.0
 40
156.0
 40
156.0
 40
157.0
 40
157.0
 40
157.0
 40
158.0
 40
158.0
 40
158.0
 40
159.0
 40
159.0
 40
159.0
 40
160.0
 40
160.0
 40
160.0
 40
161.0
 40
161.0
 40
161.0
 40
162.0
 40
162.0
 40
162.0
 40
163.0
 40
163.0
 40
163.0
 40
164.0
 40
164.0
 40
164.0
 40
165.0
 40
165.0
 40
165.0
 40
166.0
 40
166.0
 40
166.0
 40
167.0
 40
167.0
 40
167.0
 40
168.0
 40
168.0
 40
168.0
 40
169.0
 40
169.0
 40
169.0
 40
170.0
 40
170.0
 40
170.0
 40
171.0
 40
171.0
 40
171.0
 40
172.0
 40
172.0
 40
172.0
 40
173.0
 40
173.0
 40
173.0
 40
174.0
 40
174.0
 40
174.0
 40
175.0
 40
175.0
 40
175.0
 40
176.0
 40
176.0
 40
176.0
 40
177.0
 40
177.0
 40
177.0
 40
178.0
 40
178.0
 40
178.0
 40
179.0
 40
179.0
 40
179.0
 40
180.0
 40
180.0
 40
180.0
 40
181.0
 40
181.0
 40
181.0
 40
182.0
 40
182.0
 40
182.0
 40
183.0
 40
183.0
 40
183.0
 40
184.0
 40
184.0
 40
184.0
 40
185.0
 40
185.0
 40
185.0
 40
186.0
 40
186.0
 40
186.0
 40
187.0
 40
187.0
 40
187.0
 40
188.0
 40
188.0
 40
188.0
 40
189.0
 40
189.0
 40
189.0
 40
190.0
 40
190.0
 40
190.0
 40
191.0
 40
191.0
 40
191.0
 40
192.0
 40
192.0
 40
192.0
 40
193.0
 40
193.0
 40
193.0
 40
194.0
 40
194.0
 40
194.0
 40
194.0
 10
101.904178854433
 20
147.2883912583036
 30
0.0
 10
101.904178854433
 20
147.2883912583036
 30
0.0
 10
101.6996271334328
 20
147.2844398243134
 30
0.0
 10
101.6996271334328
 20
147.2844398243134
 30
0.0
 10
101.6768200294327
 20
147.285078499314
 30
0.0
 10
101.6540129250047
 20
147.2857171738141
 30
0.0
 10
101.631323786511
 20
147.2878267678638
 30
0.0
 10
101.6097373904669
 20
147.289833830965
 30
0.0
 10
101.5882577722016
 20
147.2931723082832
 30
0.0
 10
101.566971872468
 20
147.2974231057304
 30
0.0
 10
101.5462337817377
 20
147.3015645056361
 30
0.0
 10
101.5256795668549
 20
147.3065718714074
 30
0.0
 10
101.5054424122678
 20
147.3126643481021
 30
0.0
 10
101.4857189086516
 20
147.3186021881071
 30
0.0
 10
101.4662965746075
 20
147.3255707544298
 30
0.0
 10
101.4472998937749
 20
147.3335504956426
 30
0.0
 10
101.4285908644889
 20
147.3414094060145
 30
0.0
 10
101.4102946953592
 20
147.3502491003011
 30
0.0
 10
101.3925443183204
 20
147.3600815475444
 30
0.0
 10
101.3746342371049
 20
147.3700024595496
 30
0.0
 10
101.3572798133933
 20
147.380934068922
 30
0.0
 10
101.3406111951359
 20
147.3928219948072
 30
0.0
 10
101.3239277861757
 20
147.4047204693031
 30
0.0
 10
101.3079314002935
 20
147.4175769582193
 30
0.0
 10
101.2926295053185
 20
147.4312073466945
 30
0.0
 10
101.2768244842249
 20
147.445285902177
 30
0.0
 10
101.2617603745533
 20
147.4601900854931
 30
0.0
 10
101.2474702679918
 20
147.475802093469
 30
0.0
 10
101.2331169952924
 20
147.491483110744
 30
0.0
 10
101.2195445834322
 20
147.5078782240613
 30
0.0
 10
101.2068269539151
 20
147.5249127649292
 30
0.0
 10
101.194083423155
 20
147.5419819990374
 30
0.0
 10
101.1821981600526
 20
147.5596932679169
 30
0.0
 10
101.1712640545416
 20
147.5779748681233
 30
0.0
 10
101.1603282410978
 20
147.5962593239572
 30
0.0
 10
101.1503438824137
 20
147.6151142893051
 30
0.0
 10
101.1413460594897
 20
147.6344239159061
 30
0.0
 10
101.1320745749816
 20
147.654320829349
 30
0.0
 10
101.1238505481933
 20
147.6747004809334
 30
0.0
 10
101.1165084787187
 20
147.6953888864058
 30
0.0
 10
101.1090006543928
 20
147.7165443541411
 30
0.0
 10
101.1024150591
 20
147.7380226740092
 30
0.0
 10
101.0967513125091
 20
147.7597407991968
 30
0.0
 10
101.0908733663438
 20
147.7822802911451
 30
0.0
 10
101.0859883149625
 20
147.8050780700023
 30
0.0
 10
101.0820745603405
 20
147.8280441460076
 30
0.0
 10
101.0780266585837
 20
147.8517974030171
 30
0.0
 10
101.0750177786736
 20
147.8757306919416
 30
0.0
 10
101.0730427130286
 20
147.8997344363175
 30
0.0
 10
101.0709569012475
 20
147.9250841217573
 30
0.0
 10
101.0700240904631
 20
147.9505123853415
 30
0.0
 10
101.0690912794638
 20
147.9759406493416
 30
0.0
 10
101.0697053954653
 20
147.9931225853409
 30
0.0
 10
101.0703195122233
 20
148.0103045216803
 30
0.0
 10
101.0724782224193
 20
148.0273092818566
 30
0.0
 10
101.074386174332
 20
148.0423387493432
 30
0.0
 10
101.0775007179884
 20
148.0572298119315
 30
0.0
 10
101.0815100699327
 20
148.0719040290008
 30
0.0
 10
101.0850501042646
 20
148.0848605449018
 30
0.0
 10
101.0892877227144
 20
148.0976480100781
 30
0.0
 10
101.0950578409688
 20
148.1097248902852
 30
0.0
 10
101.1003003003093
 20
148.1206973783094
 30
0.0
 10
101.1068077905714
 20
148.1310833005433
 30
0.0
 10
101.1142505169907
 20
148.1407718660653
 30
0.0
 10
101.1212520450611
 20
148.149886101849
 30
0.0
 10
101.1290812157493
 20
148.158383207798
 30
0.0
 10
101.137959116529
 20
148.1656094470031
 30
0.0
 10
101.1468705460284
 20
148.1728629771823
 30
0.0
 10
101.1568386419502
 20
148.1788360232546
 30
0.0
 10
101.167312621159
 20
148.183673141965
 30
0.0
 10
101.1781619720677
 20
148.1886836157524
 30
0.0
 10
101.1895541162172
 20
148.1924752833297
 30
0.0
 10
101.201182049329
 20
148.1949629514951
 30
0.0
 10
101.2141577493023
 20
148.19773895953
 30
0.0
 10
101.2274270654742
 20
148.1988911623343
 30
0.0
 10
101.240696382474
 20
148.2000433653336
 30
0.0
 10
101.2524182284742
 20
148.1993613973334
 30
0.0
 10
101.264140075494
 20
148.1986794287611
 30
0.0
 10
101.2756947908045
 20
148.1966564227425
 30
0.0
 10
101.2861422330847
 20
148.1948272787048
 30
0.0
 10
101.2964530408823
 20
148.1919018019708
 30
0.0
 10
101.3061772766857
 20
148.1876245749318
 30
0.0
 10
101.3154752412332
 20
148.1835348442663
 30
0.0
 10
101.3242369325343
 20
148.1782092763415
 30
0.0
 10
101.3321438378949
 20
148.1718188422485
 30
0.0
 10
101.3400370989324
 20
148.1654394356241
 30
0.0
 10
101.3470785215591
 20
148.1579988347732
 30
0.0
 10
101.3530299849791
 20
148.1498037138244
 30
0.0
 10
101.3593741785458
 20
148.1410678063812
 30
0.0
 10
101.3644798163694
 20
148.1314745134574
 30
0.0
 10
101.3688357183047
 20
148.1215791902834
 30
0.0
 10
101.3737394596449
 20
148.1104393377244
 30
0.0
 10
101.3776930180623
 20
148.0989167050545
 30
0.0
 10
101.38069001802
 20
148.0871452717421
 30
0.0
 10
101.3840809400679
 20
148.0738266153137
 30
0.0
 10
101.3862473202018
 20
148.0601894558061
 30
0.0
 10
101.387463903881
 20
148.0465019575961
 30
0.0
 10
101.3888481760042
 20
148.0309278359563
 30
0.0
 10
101.3890027754657
 20
148.0152885423276
 30
0.0
 10
101.389157375465
 20
147.9996492493278
 30
0.0
 10
101.3897817814639
 20
147.9700384453265
 30
0.0
 10
101.3904061872003
 20
147.9404276420684
 30
0.0
 10
101.3936732992406
 20
147.9110242456782
 30
0.0
 10
101.3966608754992
 20
147.8841366189665
 30
0.0
 10
101.4018582816477
 20
147.8574224257904
 30
0.0
 10
101.4094790321928
 20
147.8314310893873
 30
0.0
 10
101.4165965690225
 20
147.8071560139859
 30
0.0
 10
101.4258279798337
 20
147.7835114837627
 30
0.0
 10
101.4371390655115
 20
147.7608697806451
 30
0.0
 10
101.4479624321771
 20
147.7392043577376
 30
0.0
 10
101.4606899946374
 20
147.7184571452596
 30
0.0
 10
101.4755244170522
 20
147.6993403199764
 30
0.0
 10
101.4827261611047
 20
147.6900595755728
 30
0.0
 10
101.4904244628925
 20
147.6811630908674
 30
0.0
 10
101.498668526451
 20
147.6728092676035
 30
0.0
 10
101.5063418140851
 20
147.6650338194526
 30
0.0
 10
101.5144879081826
 20
147.6577284918753
 30
0.0
 10
101.5229416166582
 20
147.6507941391243
 30
0.0
 10
101.5310678936949
 20
147.6441283696936
 30
0.0
 10
101.5394784173749
 20
147.6378053942188
 30
0.0
 10
101.5483436874288
 20
147.6321659533741
 30
0.0
 10
101.5571561321902
 20
147.6265601161442
 30
0.0
 10
101.5664179200977
 20
147.6216296918884
 30
0.0
 10
101.5760037202246
 20
147.6174892011791
 30
0.0
 10
101.5853497585418
 20
147.6134522731907
 30
0.0
 10
101.5950038032774
 20
147.6101662570111
 30
0.0
 10
101.6047927340014
 20
147.6073283730574
 30
0.0
 10
101.614628406233
 20
147.6044769383939
 30
0.0
 10
101.6246002556732
 20
147.6020779257774
 30
0.0
 10
101.6347107292291
 20
147.600554487566
 30
0.0
 10
101.6451563168483
 20
147.5989805546296
 30
0.0
 10
101.655749870335
 20
147.5983412002533
 30
0.0
 10
101.6663221952508
 20
147.5982965258284
 30
0.0
 10
101.6776248722905
 20
147.5982487652277
 30
0.0
 10
101.688903286447
 20
147.598880685314
 30
0.0
 10
101.7001817014473
 20
147.5995126053132
 30
0.0
 10
101.7001817014473
 20
147.5995126053132
 30
0.0
 10
101.892118383447
 20
147.5994255063051
 30
0.0
 10
101.892118383447
 20
147.5994255063051
 30
0.0
 10
101.9140254044469
 20
147.6002259573028
 30
0.0
 10
101.935932425375
 20
147.6010264087497
 30
0.0
 10
101.9575992778628
 20
147.6039414302155
 30
0.0
 10
101.9769015014663
 20
147.6065383185339
 30
0.0
 10
101.9960131180149
 20
147.6108134122044
 30
0.0
 10
102.0146128150081
 20
147.6169247111679
 30
0.0
 10
102.0315685019825
 20
147.622495838065
 30
0.0
 10
102.0480987661551
 20
147.6295929148682
 30
0.0
 10
102.0631589949573
 20
147.6389398395881
 30
0.0
 10
102.0776089772982
 20
147.6479080232009
 30
0.0
 10
102.0907056434497
 20
147.6589474192961
 30
0.0
 10
102.1038023094505
 20
147.6699868152951
 30
0.0
 10
102.1139932534507
 20
147.6805143532943
 30
0.0
 10
102.1241841975048
 20
147.691041892016
 30
0.0
 10
102.1337203038805
 20
147.7021627719639
 30
0.0
 10
102.1435218917241
 20
147.7135932528542
 30
0.0
 10
102.152631673512
 20
147.7256505716104
 30
0.0
 10
102.1608158460208
 20
147.7382901615014
 30
0.0
 10
102.1691526872378
 20
147.7511655320832
 30
0.0
 10
102.1765290641925
 20
147.7646450999515
 30
0.0
 10
102.1833954650849
 20
147.7783689847853
 30
0.0
 10
102.1905989291841
 20
147.7927665583143
 30
0.0
 10
102.1972411201273
 20
147.8074330239812
 30
0.0
 10
102.2031526313311
 20
147.822399241659
 30
0.0
 10
102.2092095554663
 20
147.8377336023567
 30
0.0
 10
102.2144994108355
 20
147.8533826431962
 30
0.0
 10
102.218958364846
 20
147.8692519507269
 30
0.0
 10
102.2234529158148
 20
147.8852479469559
 30
0.0
 10
102.2271032458782
 20
147.9014677408046
 30
0.0
 10
102.2302481743004
 20
147.9177981309835
 30
0.0
 10
102.2334166139081
 20
147.9342506056047
 30
0.0
 10
102.2360720669606
 20
147.9508153363529
 30
0.0
 10
102.2375865502157
 20
147.9674732918439
 30
0.0
 10
102.2391543544045
 20
147.9847177297198
 30
0.0
 10
102.2394994334648
 20
148.0020620722882
 30
0.0
 10
102.2398445124654
 20
148.019406415289
 30
0.0
 10
102.2393571084667
 20
148.0361677592887
 30
0.0
 10
102.2388697054948
 20
148.0529291029354
 30
0.0
 10
102.2375865500479
 20
148.0696460673427
 30
0.0
 10
102.2363235183379
 20
148.086100859456
 30
0.0
 10
102.2342894980177
 20
148.1025126534151
 30
0.0
 10
102.2313771551054
 20
148.1187567381739
 30
0.0
 10
102.2285169743577
 20
148.1347098796414
 30
0.0
 10
102.2248096520421
 20
148.150501265695
 30
0.0
 10
102.2206518361149
 20
148.1661739372325
 30
0.0
 10
102.2165131237843
 20
148.1817745987589
 30
0.0
 10
102.2119280480276
 20
148.1972576341593
 30
0.0
 10
102.2065395742802
 20
148.2124621560082
 30
0.0
 10
102.2012401906913
 20
148.2274152943833
 30
0.0
 10
102.1951637554067
 20
148.2420990526634
 30
0.0
 10
102.1884758794845
 20
148.2564924126092
 30
0.0
 10
102.1821248590056
 20
148.2701608067062
 30
0.0
 10
102.1752224408764
 20
148.2835673193546
 30
0.0
 10
102.1675897322649
 20
148.2965712356826
 30
0.0
 10
102.160239084727
 20
148.3090946019477
 30
0.0
 10
102.1522111240942
 20
148.3212445773951
 30
0.0
 10
102.1433166419448
 20
148.3326986254241
 30
0.0
 10
102.1346456464098
 20
148.3438648740774
 30
0.0
 10
102.125151127481
 20
148.354369728294
 30
0.0
 10
102.1156566084817
 20
148.3648745822944
 30
0.0
 10
102.1071313554821
 20
148.3735474352947
 30
0.0
 10
102.0986061015308
 20
148.3822202879073
 30
0.0
 10
102.0891255570976
 20
148.3897121632579
 30
0.0
 10
102.0785426210002
 20
148.3980751890992
 30
0.0
 10
102.0667693169061
 20
148.4049666232464
 30
0.0
 10
102.0546916384761
 20
148.4111628007547
 30
0.0
 10
102.0411427091418
 20
148.4181137699879
 30
0.0
 10
102.0272107336931
 20
148.4241897792694
 30
0.0
 10
102.0129193436025
 20
148.4292264956152
 30
0.0
 10
101.9969706399176
 20
148.4348472991927
 30
0.0
 10
101.9805743284847
 20
148.4391737883007
 30
0.0
 10
101.964178017485
 20
148.4435002763012
 30
0.0
 10
101.964178017485
 20
148.4435002763012
 30
0.0
 10
101.6200339774891
 20
148.5297057993166
 30
0.0
 10
101.6200339774891
 20
148.5297057993166
 30
0.0
 10
101.5933893444895
 20
148.537041167318
 30
0.0
 10
101.5667447119934
 20
148.5443765348326
 30
0.0
 10
101.5404408213593
 20
148.5528499086592
 30
0.0
 10
101.518845826457
 20
148.5598063877266
 30
0.0
 10
101.4974804949202
 20
148.5675298942367
 30
0.0
 10
101.4766533982708
 20
148.5765585083547
 30
0.0
 10
101.4582648736856
 20
148.5845299935542
 30
0.0
 10
101.440295922696
 20
148.5935188574196
 30
0.0
 10
101.4230268035067
 20
148.6036540504622
 30
0.0
 10
101.4060156990465
 20
148.6136378154525
 30
0.0
 10
101.3896836704932
 20
148.6247339113272
 30
0.0
 10
101.3733516424936
 20
148.6358300073278
 30
0.0
 10
101.3546421654948
 20
148.6515334803287
 30
0.0
 10
101.3359326891537
 20
148.6672369526705
 30
0.0
 10
101.3185960667202
 20
148.6843761882264
 30
0.0
 10
101.300869739912
 20
148.7019006911603
 30
0.0
 10
101.284578680587
 20
148.7209262309075
 30
0.0
 10
101.2694853960564
 20
148.740825234877
 30
0.0
 10
101.2538839263843
 20
148.761394230732
 30
0.0
 10
101.2395622465994
 20
148.7828964994215
 30
0.0
 10
101.2265841202684
 20
148.8051771479596
 30
0.0
 10
101.2129858025958
 20
148.8285225314967
 30
0.0
 10
101.2008625165103
 20
148.8527224659716
 30
0.0
 10
101.1898922401544
 20
148.8774319279249
 30
0.0
 10
101.1785957209999
 20
148.9028762195013
 30
0.0
 10
101.1685218095327
 20
148.9288607946473
 30
0.0
 10
101.1599742451051
 20
148.9553316123982
 30
0.0
 10
101.151418861413
 20
148.9818266455059
 30
0.0
 10
101.1443926186243
 20
149.0088088112495
 30
0.0
 10
101.1385236072265
 20
149.0360537502368
 30
0.0
 10
101.1326155862735
 20
149.0634797781443
 30
0.0
 10
101.1278802313752
 20
149.0911720840536
 30
0.0
 10
101.1249758361131
 20
149.1190338489863
 30
0.0
 10
101.1220067037813
 20
149.1475166344254
 30
0.0
 10
101.1209510625183
 20
149.1761765173392
 30
0.0
 10
101.119895421519
 20
149.204836400339
 30
0.0
 10
101.1206162485202
 20
149.2283870523391
 30
0.0
 10
101.1213370751904
 20
149.2519377046264
 30
0.0
 10
101.1232823645034
 20
149.275397709354
 30
0.0
 10
101.125131366268
 20
149.2976964953621
 30
0.0
 10
101.1280866142249
 20
149.3199133854303
 30
0.0
 10
101.1317497212317
 20
149.3420075843119
 30
0.0
 10
101.1353009601923
 20
149.3634270459136
 30
0.0
 10
101.1395174836005
 20
149.3847311956626
 30
0.0
 10
101.1447330020012
 20
149.405795006837
 30
0.0
 10
101.1498274942292
 20
149.4263700319977
 30
0.0
 10
101.1558751559971
 20
149.4467157432879
 30
0.0
 10
101.1627966972156
 20
149.4667599777929
 30
0.0
 10
101.1694719180026
 20
149.4860908878663
 30
0.0
 10
101.1769599265929
 20
149.5051413969602
 30
0.0
 10
101.1853763163686
 20
149.5237735158587
 30
0.0
 10
101.1937268344255
 20
149.5422598086122
 30
0.0
 10
101.2029912583999
 20
149.5603342346866
 30
0.0
 10
101.2130363490607
 20
149.5779646002088
 30
0.0
 10
101.222964895504
 20
149.5953904163434
 30
0.0
 10
101.2336560989607
 20
149.6123824162268
 30
0.0
 10
101.2452123058819
 20
149.6287687426102
 30
0.0
 10
101.2568005434809
 20
149.6452004874532
 30
0.0
 10
101.2692585863002
 20
149.6610231966166
 30
0.0
 10
101.2824686766585
 20
149.6761859416008
 30
0.0
 10
101.2954998698608
 20
149.6911433456764
 30
0.0
 10
101.3092628793734
 20
149.7054585396166
 30
0.0
 10
101.3236764808465
 20
149.719087217067
 30
0.0
 10
101.337740593994
 20
149.732385438339
 30
0.0
 10
101.3524241316363
 20
149.7450300315984
 30
0.0
 10
101.3677067374988
 20
149.7569080791513
 30
0.0
 10
101.3827562963341
 20
149.7686049963592
 30
0.0
 10
101.3983867921111
 20
149.7795585679793
 30
0.0
 10
101.4145594458897
 20
149.7896485259633
 30
0.0
 10
101.4307864275685
 20
149.7997723785844
 30
0.0
 10
101.4475592158515
 20
149.809026805645
 30
0.0
 10
101.4647990983528
 20
149.8173085587712
 30
0.0
 10
101.4820681845067
 20
149.8256043408466
 30
0.0
 10
101.4998059486961
 20
149.8329241508577
 30
0.0
 10
101.5178612025294
 20
149.8393236868484
 30
0.0
 10
101.53638371343
 20
149.8458888382569
 30
0.0
 10
101.5552403594191
 20
149.8514854672345
 30
0.0
 10
101.5743102489454
 20
149.8562584010483
 30
0.0
 10
101.5938689900535
 20
149.86115368776
 30
0.0
 10
101.6136520477137
 20
149.8651825076077
 30
0.0
 10
101.6335817481203
 20
149.868112700863
 30
0.0
 10
101.6543423343609
 20
149.8711650563197
 30
0.0
 10
101.6752620455493
 20
149.8730252703144
 30
0.0
 10
101.6961817565491
 20
149.8748854843136
 30
0.0
 10
101.6961817565491
 20
149.8748854843136
 30
0.0
 10
101.9001789105499
 20
149.8850468643041
 30
0.0
 10
101.9001789105499
 20
149.8850468643041
 30
0.0
 10
101.9001789105499
 20
149.8850468643041
 30
0.0
 10
101.9197784165498
 20
149.8844829243031
 30
0.0
 10
101.9197784165498
 20
149.8844829243031
 30
0.0
 10
101.9429923835497
 20
149.8841187923022
 30
0.0
 10
101.9662063513398
 20
149.883754659427
 30
0.0
 10
101.9892107437446
 20
149.8810959822212
 30
0.0
 10
102.0126955409692
 20
149.8783817833861
 30
0.0
 10
102.0359619182123
 20
149.8732762047981
 30
0.0
 10
102.058643071783
 20
149.8664192297568
 30
0.0
 10
102.0822303065586
 20
149.8592883278979
 30
0.0
 10
102.1051846259303
 20
149.8502633027356
 30
0.0
 10
102.1275109086583
 20
149.8398881776469
 30
0.0
 10
102.1510478372561
 20
149.8289504599196
 30
0.0
 10
102.1738867717995
 20
149.8165122537563
 30
0.0
 10
102.1958142554684
 20
149.8026318063118
 30
0.0
 10
102.2184706586366
 20
149.7882899411797
 30
0.0
 10
102.2401540063268
 20
149.7724083542489
 30
0.0
 10
102.2607306594527
 20
149.7552146072394
 30
0.0
 10
102.281272787978
 20
149.7380497088126
 30
0.0
 10
102.3007119325649
 20
149.7195770498365
 30
0.0
 10
102.3188731775874
 20
149.6998945416582
 30
0.0
 10
102.3376858284196
 20
149.6795060631491
 30
0.0
 10
102.3551272644989
 20
149.6578193894465
 30
0.0
 10
102.37080630091
 20
149.6349781373932
 30
0.0
 10
102.3869107768201
 20
149.6115171042156
 30
0.0
 10
102.4011559125364
 20
149.5868379852815
 30
0.0
 10
102.415401047535
 20
149.562158867281
 30
0.0
 10
102.4275148345342
 20
149.5377699212804
 30
0.0
 10
102.4396286212844
 20
149.5133809758993
 30
0.0
 10
102.4498349666833
 20
149.4882106158807
 30
0.0
 10
102.4598186966814
 20
149.4635892584265
 30
0.0
 10
102.4679772860838
 20
149.4382202021897
 30
0.0
 10
102.4752370378897
 20
149.4125688929425
 30
0.0
 10
102.4820276468165
 20
149.388575233899
 30
0.0
 10
102.4880318347066
 20
149.3643346228962
 30
0.0
 10
102.4916072615403
 20
149.3397496221992
 30
0.0
 10
102.4947018412234
 20
149.3184709757008
 30
0.0
 10
102.4959770035231
 20
149.2969343422773
 30
0.0
 10
102.4972521655218
 20
149.2753977082775
 30
0.0
 10
102.4964782455215
 20
149.2627544302775
 30
0.0
 10
102.4957043252966
 20
149.2501111517204
 30
0.0
 10
102.4938652233318
 20
149.237576847681
 30
0.0
 10
102.4922073805765
 20
149.2262779063859
 30
0.0
 10
102.489683974655
 20
149.2150675174244
 30
0.0
 10
102.4859623565423
 20
149.2042719095918
 30
0.0
 10
102.4825845511661
 20
149.1944736280181
 30
0.0
 10
102.4782196953056
 20
149.1850170304279
 30
0.0
 10
102.4729790759878
 20
149.1760473861922
 30
0.0
 10
102.4681415091109
 20
149.1677675911487
 30
0.0
 10
102.462557707334
 20
149.1599027273119
 30
0.0
 10
102.4560443619865
 20
149.1529032768788
 30
0.0
 10
102.449494527032
 20
149.1458646135413
 30
0.0
 10
102.4420047042014
 20
149.1397010873517
 30
0.0
 10
102.4340292336965
 20
149.1342750916876
 30
0.0
 10
102.4258560628373
 20
149.128714593455
 30
0.0
 10
102.4171728688847
 20
149.1239286435656
 30
0.0
 10
102.4080626720914
 20
149.1201628295833
 30
0.0
 10
102.3980953989696
 20
149.1160427323631
 30
0.0
 10
102.3876169998578
 20
149.1131437464009
 30
0.0
 10
102.3770156956814
 20
149.111130982122
 30
0.0
 10
102.3652621124519
 20
149.1088994460699
 30
0.0
 10
102.3533574545151
 20
149.1077572522842
 30
0.0
 10
102.3414527965142
 20
149.1066150582841
 30
0.0
 10
102.3262803035149
 20
149.107387719285
 30
0.0
 10
102.3111078110277
 20
149.1081603797142
 30
0.0
 10
102.2962935586991
 20
149.1111309819885
 30
0.0
 10
102.283241037925
 20
149.1137483160964
 30
0.0
 10
102.2704666188091
 20
149.1180719113773
 30
0.0
 10
102.2584726973544
 20
149.1241142626948
 30
0.0
 10
102.2470567860374
 20
149.1298654214829
 30
0.0
 10
102.236347957691
 20
149.137173667735
 30
0.0
 10
102.2274257216346
 20
149.1461293908545
 30
0.0
 10
102.2182681270431
 20
149.1553213558607
 30
0.0
 10
102.2109926245174
 20
149.1662488612905
 30
0.0
 10
102.2037171225179
 20
149.1771763672904
 30
0.0
 10
102.2029569145185
 20
149.1798084922907
 30
0.0
 10
102.2021967073218
 20
149.1824406178791
 30
0.0
 10
102.2014591600474
 20
149.1850792336263
 30
0.0
 10
102.2003528391284
 20
149.1890371572762
 30
0.0
 10
102.1992975030366
 20
149.1930096837836
 30
0.0
 10
102.1980722176213
 20
149.1969335332674
 30
0.0
 10
102.1971317773183
 20
149.1999451958182
 30
0.0
 10
102.1960912201187
 20
149.2029281828056
 30
0.0
 10
102.1952497650202
 20
149.2059653810375
 30
0.0
 10
102.1939103419296
 20
149.2107999746502
 30
0.0
 10
102.1930754052952
 20
149.2157719291363
 30
0.0
 10
102.1918628219684
 20
149.2206421334298
 30
0.0
 10
102.1902958453204
 20
149.2269357185685
 30
0.0
 10
102.1880982199064
 20
149.2330593865989
 30
0.0
 10
102.1862179174273
 20
149.2392703186435
 30
0.0
 10
102.1837976135074
 20
149.2472649595808
 30
0.0
 10
102.1819030675213
 20
149.2554041842916
 30
0.0
 10
102.1800085225214
 20
149.2635434092916
 30
0.0
 10
102.1739069725225
 20
149.2881425992919
 30
0.0
 10
102.1678054220558
 20
149.3127417888367
 30
0.0
 10
102.1602513556868
 20
149.3369271697233
 30
0.0
 10
102.1535921839701
 20
149.3582474224833
 30
0.0
 10
102.1458042571395
 20
149.3792461031085
 30
0.0
 10
102.1365427560035
 20
149.3995856114732
 30
0.0
 10
102.1283715252905
 20
149.4175307386191
 30
0.0
 10
102.1190532396437
 20
149.4349627550314
 30
0.0
 10
102.1083182325645
 20
149.4515187348198
 30
0.0
 10
102.0988228855622
 20
149.4661628586561
 30
0.0
 10
102.0882191259068
 20
149.4801215901107
 30
0.0
 10
102.0761422761356
 20
149.4927265393605
 30
0.0
 10
102.064756029954
 20
149.5046106861356
 30
0.0
 10
102.0520603512396
 20
149.5152914534021
 30
0.0
 10
102.038321414735
 20
149.5243380053421
 30
0.0
 10
102.0245294268096
 20
149.5334194895656
 30
0.0
 10
102.0096861086833
 20
149.5408541134045
 30
0.0
 10
101.9942911582668
 20
149.5469176241072
 30
0.0
 10
101.9782246536811
 20
149.5532456355577
 30
0.0
 10
101.9615573408345
 20
149.5580803042259
 30
0.0
 10
101.9446159967044
 20
149.561029885852
 30
0.0
 10
101.9260237187762
 20
149.5642669041755
 30
0.0
 10
101.9071013985353
 20
149.5652335303037
 30
0.0
 10
101.8881790775359
 20
149.5662001553048
 30
0.0
 10
101.8881790775359
 20
149.5662001553048
 30
0.0
 10
101.8721793005355
 20
149.5662001553054
 30
0.0
 10
101.8721793005355
 20
149.5662001553054
 30
0.0
 10
101.8721793005355
 20
149.5662001553054
 30
0.0
 10
101.7120459235346
 20
149.5621588673128
 30
0.0
 10
101.7120459235346
 20
149.5621588673128
 30
0.0
 10
101.6980436855352
 20
149.5604662573131
 30
0.0
 10
101.6840414476467
 20
149.5587736467988
 30
0.0
 10
101.6702736285718
 20
149.555949471557
 30
0.0
 10
101.6553592876149
 20
149.5528901117374
 30
0.0
 10
101.6407200338033
 20
149.5485028767924
 30
0.0
 10
101.6262433722313
 20
149.5435306811115
 30
0.0
 10
101.6124750308212
 20
149.538801767103
 30
0.0
 10
101.5988537601315
 20
149.5335437343765
 30
0.0
 10
101.5861645494493
 20
149.5265959672665
 30
0.0
 10
101.5755706109284
 20
149.5207954317204
 30
0.0
 10
101.5656263375328
 20
149.5138171163193
 30
0.0
 10
101.5556820635321
 20
149.5068388013193
 30
0.0
 10
101.5465371585321
 20
149.4978779653199
 30
0.0
 10
101.5373922533579
 20
149.488917130037
 30
0.0
 10
101.52915101191
 20
149.4791787678267
 30
0.0
 10
101.5208963737764
 20
149.4694245752614
 30
0.0
 10
101.5135483396887
 20
149.4588903258708
 30
0.0
 10
101.5065713933432
 20
149.4481317926064
 30
0.0
 10
101.4994451905348
 20
149.4371431041218
 30
0.0
 10
101.4927061225135
 20
149.4259204329967
 30
0.0
 10
101.4868142269404
 20
149.4142623639525
 30
0.0
 10
101.4808110396074
 20
149.4023840861487
 30
0.0
 10
101.4756873313945
 20
149.3900538066551
 30
0.0
 10
101.4710084937923
 20
149.3775704833707
 30
0.0
 10
101.4661374461426
 20
149.3645743360994
 30
0.0
 10
101.4617485710931
 20
149.3514123124567
 30
0.0
 10
101.4580252130083
 20
149.3380561509531
 30
0.0
 10
101.4540898002762
 20
149.3239393223186
 30
0.0
 10
101.4508978689157
 20
149.3096056128367
 30
0.0
 10
101.4484288748805
 20
149.2951548754449
 30
0.0
 10
101.4458414106492
 20
149.2800107456506
 30
0.0
 10
101.4440479258935
 20
149.2647380877588
 30
0.0
 10
101.4427839702214
 20
149.2494311470725
 30
0.0
 10
101.4414498549943
 20
149.2332745498773
 30
0.0
 10
101.4407056865197
 20
149.2170797583243
 30
0.0
 10
101.4399615175189
 20
149.2008849673251
 30
0.0
 10
101.4411142675176
 20
149.1767109043247
 30
0.0
 10
101.4422670172089
 20
149.1525368422953
 30
0.0
 10
101.445606422148
 20
149.128630186617
 30
0.0
 10
101.4488056332126
 20
149.1057271728261
 30
0.0
 10
101.4540117544442
 20
149.0830695843374
 30
0.0
 10
101.4608476652041
 20
149.0608913308236
 30
0.0
 10
101.4674320158905
 20
149.0395292323592
 30
0.0
 10
101.4755284113849
 20
149.0186118391453
 30
0.0
 10
101.4856852456635
 20
148.9987973792505
 30
0.0
 10
101.4958007491035
 20
148.9790635496213
 30
0.0
 10
101.5079599565078
 20
148.9604236953217
 30
0.0
 10
101.5201191645077
 20
148.941783841321
 30
0.0
 10
101.5286531835066
 20
148.9310864993207
 30
0.0
 10
101.5371872028046
 20
148.9203891574932
 30
0.0
 10
101.5472147069315
 20
148.9113013558623
 30
0.0
 10
101.5583013986292
 20
148.9012536257773
 30
0.0
 10
101.5712137467858
 20
148.8931734198337
 30
0.0
 10
101.5844710779994
 20
148.8858992847459
 30
0.0
 10
101.5996210707267
 20
148.877586669492
 30
0.0
 10
101.6152215796439
 20
148.870326708746
 30
0.0
 10
101.6313237866823
 20
148.8644486471753
 30
0.0
 10
101.6498344770249
 20
148.8576913761193
 30
0.0
 10
101.6690081725034
 20
148.8527603153147
 30
0.0
 10
101.6881818685032
 20
148.8478292543137
 30
0.0
 10
101.6881818685032
 20
148.8478292543137
 30
0.0
 10
102.0321120194993
 20
148.7611468912983
 30
0.0
 10
102.0321120194993
 20
148.7611468912983
 30
0.0
 10
102.052135223499
 20
148.7551912542976
 30
0.0
 10
102.0721584276398
 20
148.749235617585
 30
0.0
 10
102.0919480090608
 20
148.7425187058151
 30
0.0
 10
102.1110812366794
 20
148.7360245713999
 30
0.0
 10
102.1299960815439
 20
148.7288188223664
 30
0.0
 10
102.1483970559619
 20
148.7205035778383
 30
0.0
 10
102.1664912117657
 20
148.7123269820442
 30
0.0
 10
102.1840884908481
 20
148.7030775818374
 30
0.0
 10
102.2014591601921
 20
148.6934080354272
 30
0.0
 10
102.2185919661572
 20
148.6838708979031
 30
0.0
 10
102.2355043260032
 20
148.6739250418466
 30
0.0
 10
102.2516988120869
 20
148.6629255496945
 30
0.0
 10
102.2676910424641
 20
148.6520634320813
 30
0.0
 10
102.2829832184002
 20
148.6401738321099
 30
0.0
 10
102.2979870308421
 20
148.6279271403284
 30
0.0
 10
102.3129801911671
 20
148.6156891432162
 30
0.0
 10
102.3276853973056
 20
148.6030945611571
 30
0.0
 10
102.3414527961016
 20
148.5895417890671
 30
0.0
 10
102.3553990675051
 20
148.5758129329026
 30
0.0
 10
102.3683830043798
 20
148.5611008264383
 30
0.0
 10
102.3809671294699
 20
148.5460760225803
 30
0.0
 10
102.3937157748029
 20
148.53085478994
 30
0.0
 10
102.4060540860292
 20
148.5153126302776
 30
0.0
 10
102.4176590099509
 20
148.4992233138592
 30
0.0
 10
102.4293528696961
 20
148.4830106948991
 30
0.0
 10
102.4403020582481
 20
148.4662425006355
 30
0.0
 10
102.4503994571059
 20
148.4489836624017
 30
0.0
 10
102.4606036627164
 20
148.4315422662164
 30
0.0
 10
102.4699379634624
 20
148.4135997914437
 30
0.0
 10
102.478623980507
 20
148.3953570675099
 30
0.0
 10
102.4873569746732
 20
148.3770156803262
 30
0.0
 10
102.4954346538703
 20
148.3583707874863
 30
0.0
 10
102.5028970704871
 20
148.3394725116769
 30
0.0
 10
102.5104407153916
 20
148.3203685284284
 30
0.0
 10
102.5173556305714
 20
148.3010056160494
 30
0.0
 10
102.5232187277956
 20
148.2813299924246
 30
0.0
 10
102.5292529309715
 20
148.2610801643835
 30
0.0
 10
102.5341730288319
 20
148.2404991067226
 30
0.0
 10
102.5384599703028
 20
148.2198005320338
 30
0.0
 10
102.5428784980316
 20
148.1984666214118
 30
0.0
 10
102.5466244037808
 20
148.177007868748
 30
0.0
 10
102.549749779394
 20
148.1554486182655
 30
0.0
 10
102.5529554314075
 20
148.1333356106514
 30
0.0
 10
102.555508266816
 20
148.1111168762712
 30
0.0
 10
102.5570881556217
 20
148.0888387428949
 30
0.0
 10
102.5587264367767
 20
148.0657372145268
 30
0.0
 10
102.5593185224667
 20
148.042571815275
 30
0.0
 10
102.5599106074656
 20
148.0194064152749
 30
0.0
 10
102.559037704465
 20
147.9928422972748
 30
0.0
 10
102.5581648014875
 20
147.9662781789654
 30
0.0
 10
102.5559591746384
 20
147.9398132588993
 30
0.0
 10
102.5538488448759
 20
147.9144917914574
 30
0.0
 10
102.5505184675989
 20
147.8892611354539
 30
0.0
 10
102.5463628364878
 20
147.8641715361123
 30
0.0
 10
102.5423745686685
 20
147.8400923917015
 30
0.0
 10
102.5376261807764
 20
147.816143170953
 30
0.0
 10
102.5316860846522
 20
147.7924812461759
 30
0.0
 10
102.5259892080527
 20
147.7697881680236
 30
0.0
 10
102.5191962151969
 20
147.7473593406116
 30
0.0
 10
102.5113644279649
 20
147.7253068813601
 30
0.0
 10
102.5036789177691
 20
147.7036663036264
 30
0.0
 10
102.4949930546738
 20
147.6823881662257
 30
0.0
 10
102.4853978659006
 20
147.6615194584391
 30
0.0
 10
102.4760059521543
 20
147.641092856299
 30
0.0
 10
102.4657428329263
 20
147.6210585199126
 30
0.0
 10
102.4543508900149
 20
147.6016834682789
 30
0.0
 10
102.4431328187341
 20
147.5826041319443
 30
0.0
 10
102.4308201185707
 20
147.5641641090328
 30
0.0
 10
102.4176590095223
 20
147.5463634025
 30
0.0
 10
102.4043747551556
 20
147.5283961390545
 30
0.0
 10
102.3902261409137
 20
147.5110802118154
 30
0.0
 10
102.3753222245803
 20
147.4944302792231
 30
0.0
 10
102.360672237676
 20
147.478064024277
 30
0.0
 10
102.3452924667466
 20
147.4623412631858
 30
0.0
 10
102.3290340065805
 20
147.4475775708829
 30
0.0
 10
102.313081791043
 20
147.4330919677346
 30
0.0
 10
102.2962836765243
 20
147.4195296435784
 30
0.0
 10
102.2787943542304
 20
147.4069342567138
 30
0.0
 10
102.2615462476225
 20
147.3945125875522
 30
0.0
 10
102.2436258682633
 20
147.3830313672904
 30
0.0
 10
102.2251677593483
 20
147.3725003378606
 30
0.0
 10
102.2066691470037
 20
147.3619461997344
 30
0.0
 10
102.1876304425883
 20
147.3523464271044
 30
0.0
 10
102.1681542227061
 20
147.3437113238823
 30
0.0
 10
102.1482692477793
 20
147.3348949923716
 30
0.0
 10
102.1279282000571
 20
147.3270842469644
 30
0.0
 10
102.107189252202
 20
147.3205672146684
 30
0.0
 10
102.0860714649861
 20
147.3139311354279
 30
0.0
 10
102.0645411079426
 20
147.3086364656305
 30
0.0
 10
102.042837337729
 20
147.3041969912628
 30
0.0
 10
102.0204206165727
 20
147.2996116838274
 30
0.0
 10
101.9978189021634
 20
147.2959386795646
 30
0.0
 10
101.9750984827204
 20
147.2934716724126
 30
0.0
 10
101.9515436625497
 20
147.2909140651477
 30
0.0
 10
101.927861258433
 20
147.2896526613034
 30
0.0
 10
101.904178854433
 20
147.2883912583036
 30
0.0
  0
ENDBLK
  5
59
330
56
100
AcDbEntity
  8
0
100
AcDbBlockEnd
  0
BLOCK
  5
5D
330
5B
100
AcDbEntity
  8
0
100
AcDbBlockBegin
  2
block 6
 70
     0
 10
0.0
 20
0.0
 30
0.0
  3
block 6
  1

  0
SPLINE
  5
5F
330
5B
100
AcDbEntity
  8
0
 62
     7
420
 16777215
370
     5
100
AcDbSpline
210
0.0
220
0.0
230
1.0
 70
    11
 71
     3
 72
   182
 73
   178
 74
     0
 42
0.0000000001
 43
0.0000000001
 12
1.0
 22
0.0
 32
0.0
 13
1.0
 23
0.0
 33
0.0
 40
0.0
 40
0.0
 40
0.0
 40
0.0
 40
1.0
 40
1.0
 40
1.0
 40
2.0
 40
2.0
 40
2.0
 40
3.0
 40
3.0
 40
3.0
 40
4.0
 40
4.0
 40
4.0
 40
5.0
 40
5.0
 40
5.0
 40
6.0
 40
6.0
 40
6.0
 40
7.0
 40
7.0
 40
7.0
 40
8.0
 40
8.0
 40
8.0
 40
9.0
 40
9.0
 40
9.0
 40
10.0
 40
10.0
 40
10.0
 40
11.0
 40
11.0
 40
11.0
 40
12.0
 40
12.0
 40
12.0
 40
13.0
 40
13.0
 40
13.0
 40
14.0
 40
14.0
 40
14.0
 40
15.0
 40
15.0
 40
15.0
 40
16.0
 40
16.0
 40
16.0
 40
17.0
 40
17.0
 40
17.0
 40
18.0
 40
18.0
 40
18.0
 40
19.0
 40
19.0
 40
19.0
 40
20.0
 40
20.0
 40
20.0
 40
21.0
 40
21.0
 40
21.0
 40
22.0
 40
22.0
 40
22.0
 40
23.0
 40
23.0
 40
23.0
 40
24.0
 40
24.0
 40
24.0
 40
25.0
 40
25.0
 40
25.0
 40
26.0
 40
26.0
 40
26.0
 40
27.0
 40
27.0
 40
27.0
 40
28.0
 40
28.0
 40
28.0
 40
29.0
 40
29.0
 40
29.0
 40
30.0
 40
30.0
 40
30.0
 40
31.0
 40
31.0
 40
31.0
 40
32.0
 40
32.0
 40
32.0
 40
33.0
 40
33.0
 40
33.0
 40
34.0
 40
34.0
 40
34.0
 40
35.0
 40
35.0
 40
35.0
 40
36.0
 40
36.0
 40
36.0
 40
37.0
 40
37.0
 40
37.0
 40
38.0
 40
38.0
 40
38.0
 40
39.0
 40
39.0
 40
39.0
 40
40.0
 40
40.0
 40
40.0
 40
41.0
 40
41.0
 40
41.0
 40
42.0
 40
42.0
 40
42.0
 40
43.0
 40
43.0
 40
43.0
 40
44.0
 40
44.0
 40
44.0
 40
45.0
 40
45.0
 40
45.0
 40
46.0
 40
46.0
 40
46.0
 40
47.0
 40
47.0
 40
47.0
 40
48.0
 40
48.0
 40
48.0
 40
49.0
 40
49.0
 40
49.0
 40
50.0
 40
50.0
 40
50.0
 40
51.0
 40
51.0
 40
51.0
 40
52.0
 40
52.0
 40
52.0
 40
53.0
 40
53.0
 40
53.0
 40
54.0
 40
54.0
 40
54.0
 40
55.0
 40
55.0
 40
55.0
 40
56.0
 40
56.0
 40
56.0
 40
57.0
 40
57.0
 40
57.0
 40
58.0
 40
58.0
 40
58.0
 40
59.0
 40
59.0
 40
59.0
 40
59.0
 10
99.97212863754312
 20
149.7378157323908
 30
0.0
 10
99.97212863754312
 20
149.7378157323908
 30
0.0
 10
100.6429009754443
 20
147.5367670643601
 30
0.0
 10
100.6429009754443
 20
147.5367670643601
 30
0.0
 10
100.6461189914441
 20
147.5254867543603
 30
0.0
 10
100.6493370074606
 20
147.5142064439473
 30
0.0
 10
100.6524973136754
 20
147.5028976362163
 30
0.0
 10
100.6547957228098
 20
147.4946730322692
 30
0.0
 10
100.657063607628
 20
147.4864333553006
 30
0.0
 10
100.6587067087417
 20
147.4780600559408
 30
0.0
 10
100.6600234442722
 20
147.4713499267346
 30
0.0
 10
100.6609389453443
 20
147.4645539855788
 30
0.0
 10
100.6615291610116
 20
147.4577383988171
 30
0.0
 10
100.662130881214
 20
147.4507899620581
 30
0.0
 10
100.6623945114397
 20
147.44382110636
 30
0.0
 10
100.6626581414402
 20
147.4368522513601
 30
0.0
 10
100.6619515134394
 20
147.4262536453604
 30
0.0
 10
100.6612448856606
 20
147.4156550388255
 30
0.0
 10
100.659271199043
 20
147.4052407850245
 30
0.0
 10
100.6573980741919
 20
147.3953571502945
 30
0.0
 10
100.6543837176012
 20
147.3856395608841
 30
0.0
 10
100.6502393513371
 20
147.3764517710231
 30
0.0
 10
100.6462766658883
 20
147.3676667556846
 30
0.0
 10
100.6412808739202
 20
147.3593661073224
 30
0.0
 10
100.6355625992596
 20
147.3516141901405
 30
0.0
 10
100.6296994805786
 20
147.3436659167295
 30
0.0
 10
100.623076814648
 20
147.3362945253133
 30
0.0
 10
100.6158054330737
 20
147.3295990622042
 30
0.0
 10
100.608367804506
 20
147.3227505194341
 30
0.0
 10
100.6002514577735
 20
147.3166091660521
 30
0.0
 10
100.591532342733
 20
147.3115353671826
 30
0.0
 10
100.5827950375685
 20
147.3064509831743
 30
0.0
 10
100.5734524464384
 20
147.3024386126655
 30
0.0
 10
100.5638723097139
 20
147.2991165765841
 30
0.0
 10
100.5537496611887
 20
147.2956064175314
 30
0.0
 10
100.5433618014498
 20
147.2928669923298
 30
0.0
 10
100.5328253339229
 20
147.2912137100653
 30
0.0
 10
100.5214625810775
 20
147.2894307749677
 30
0.0
 10
100.5099269984327
 20
147.2889110163668
 30
0.0
 10
100.4983914154329
 20
147.2883912583665
 30
0.0
 10
100.488596541433
 20
147.2885161493681
 30
0.0
 10
100.4788016681588
 20
147.288641040376
 30
0.0
 10
100.4690379108331
 20
147.2895202388625
 30
0.0
 10
100.4602775722776
 20
147.2903090823537
 30
0.0
 10
100.4515422827501
 20
147.2917051600682
 30
0.0
 10
100.4430713494378
 20
147.2940361625688
 30
0.0
 10
100.4349171993409
 20
147.2962799937458
 30
0.0
 10
100.4270080031696
 20
147.2993901313766
 30
0.0
 10
100.4193627498482
 20
147.3030680103985
 30
0.0
 10
100.4120403421207
 20
147.306590579061
 30
0.0
 10
100.404960056227
 20
147.3106339520833
 30
0.0
 10
100.3984766022898
 20
147.3154868006133
 30
0.0
 10
100.3918701051504
 20
147.3204317466635
 30
0.0
 10
100.3858833083176
 20
147.3262171842722
 30
0.0
 10
100.3804129073728
 20
147.3324215147577
 30
0.0
 10
100.3748007590702
 20
147.3387866099611
 30
0.0
 10
100.3697321147554
 20
147.3455925877404
 30
0.0
 10
100.3651716646956
 20
147.3527431715246
 30
0.0
 10
100.360140093108
 20
147.3606324530026
 30
0.0
 10
100.3557271382405
 20
147.368941217845
 30
0.0
 10
100.3521883837227
 20
147.3775807522827
 30
0.0
 10
100.3483868686328
 20
147.3868617918037
 30
0.0
 10
100.3455941964378
 20
147.3965245453745
 30
0.0
 10
100.3428015244385
 20
147.4061872993741
 30
0.0
 10
100.3428015244385
 20
147.4061872993741
 30
0.0
 10
100.2452560284528
 20
147.7219193873782
 30
0.0
 10
100.2452560284528
 20
147.7219193873782
 30
0.0
 10
100.2452560284528
 20
147.7219193873782
 30
0.0
 10
99.37124837945296
 20
147.721919387418
 30
0.0
 10
99.37124837945296
 20
147.721919387418
 30
0.0
 10
99.37124837945296
 20
147.721919387418
 30
0.0
 10
99.26949566443713
 20
147.3866125994219
 30
0.0
 10
99.26949566443713
 20
147.3866125994219
 30
0.0
 10
99.26303867943669
 20
147.3712336644223
 30
0.0
 10
99.2565816947154
 20
147.3558547285385
 30
0.0
 10
99.24691604582735
 20
147.3425823431925
 30
0.0
 10
99.23817794282564
 20
147.3305836174391
 30
0.0
 10
99.22681745421148
 20
147.3203065389321
 30
0.0
 10
99.21417559876032
 20
147.3120998581115
 30
0.0
 10
99.20081156145856
 20
147.3034243603531
 30
0.0
 10
99.18601557632077
 20
147.2970625649638
 30
0.0
 10
99.17070983266912
 20
147.2934716726333
 30
0.0
 10
99.15327524915456
 20
147.2893813315395
 30
0.0
 10
99.13517924343324
 20
147.2888862944287
 30
0.0
 10
99.11708323743277
 20
147.2883912584294
 30
0.0
 10
99.10612091043303
 20
147.2889487744298
 30
0.0
 10
99.09515858245406
 20
147.2895062903904
 30
0.0
 10
99.0843427904697
 20
147.2912137106518
 30
0.0
 10
99.07397843423956
 20
147.2928498656237
 30
0.0
 10
99.06374863687756
 20
147.2955419374161
 30
0.0
 10
99.0538603052263
 20
147.2991165773451
 30
0.0
 10
99.04450087052402
 20
147.302500020598
 30
0.0
 10
99.03544735048165
 20
147.3066741450872
 30
0.0
 10
99.02676476293267
 20
147.3115353677345
 30
0.0
 10
99.01800775185808
 20
147.3164382587572
 30
0.0
 10
99.00962805948949
 20
147.3220400774597
 30
0.0
 10
99.00192718222077
 20
147.3284700817916
 30
0.0
 10
98.99446208112599
 20
147.3347032200041
 30
0.0
 10
98.98763486516064
 20
147.341714607399
 30
0.0
 10
98.98160552532809
 20
147.3493562287712
 30
0.0
 10
98.97567541718303
 20
147.3568720833086
 30
0.0
 10
98.97051713818583
 20
147.3649975975827
 30
0.0
 10
98.96636428273752
 20
147.3736293188058
 30
0.0
 10
98.96238080217498
 20
147.381908993874
 30
0.0
 10
98.95932240488565
 20
147.3906544264642
 30
0.0
 10
98.95733243499829
 20
147.3995958803038
 30
0.0
 10
98.9551885955121
 20
147.4092287103934
 30
0.0
 10
98.95428479843878
 20
147.4190890474364
 30
0.0
 10
98.95338100143924
 20
147.4289493854368
 30
0.0
 10
98.95356846744025
 20
147.4355554834368
 30
0.0
 10
98.95375593343934
 20
147.4421615812674
 30
0.0
 10
98.95450998296131
 20
147.4487065513031
 30
0.0
 10
98.95540849033684
 20
147.4565053810509
 30
0.0
 10
98.95711146334352
 20
147.464217418279
 30
0.0
 10
98.95902590639938
 20
147.4718506606274
 30
0.0
 10
98.9603042115292
 20
147.4769475021458
 30
0.0
 10
98.96167679958086
 20
147.4820092133407
 30
0.0
 10
98.96297733940786
 20
147.4870919030236
 30
0.0
 10
98.96470755743043
 20
147.4938538345744
 30
0.0
 10
98.96631025565179
 20
147.500652896432
 30
0.0
 10
98.96805775375422
 20
147.5074135602153
 30
0.0
 10
98.97030884367418
 20
147.5161225036329
 30
0.0
 10
98.97280021516656
 20
147.524767729112
 30
0.0
 10
98.97539613015716
 20
147.5333801214796
 30
0.0
 10
98.97848795642844
 20
147.5436377844094
 30
0.0
 10
98.98172808444536
 20
147.5538488714355
 30
0.0
 10
98.98496821244561
 20
147.5640599584347
 30
0.0
 10
98.98496821244561
 20
147.5640599584347
 30
0.0
 10
99.64826876954429
 20
149.773278302405
 30
0.0
 10
99.64826876954429
 20
149.773278302405
 30
0.0
 10
99.65116300954497
 20
149.7824334494052
 30
0.0
 10
99.65405725004877
 20
149.7915885957374
 30
0.0
 10
99.65786510735504
 20
149.8003738451247
 30
0.0
 10
99.66144591864688
 20
149.808635268197
 30
0.0
 10
99.66583464483375
 20
149.8165695899598
 30
0.0
 10
99.67084838798402
 20
149.8240824448979
 30
0.0
 10
99.6753942445711
 20
149.8308941941421
 30
0.0
 10
99.68045390707736
 20
149.8373594693516
 30
0.0
 10
99.68608963065289
 20
149.8432751204815
 30
0.0
 10
99.69160904782048
 20
149.8490686882396
 30
0.0
 10
99.69768099465452
 20
149.8543350834035
 30
0.0
 10
99.70415332601134
 20
149.8590808536666
 30
0.0
 10
99.71070570846473
 20
149.8638853205715
 30
0.0
 10
99.71766844076227
 20
149.8681562045465
 30
0.0
 10
99.72503947342152
 20
149.871499643799
 30
0.0
 10
99.73262033662162
 20
149.8749382604437
 30
0.0
 10
99.74063307715842
 20
149.8773958778216
 30
0.0
 10
99.74874807282505
 20
149.879402510601
 30
0.0
 10
99.75730639256685
 20
149.8815187661901
 30
0.0
 10
99.76597844505713
 20
149.8831334164503
 30
0.0
 10
99.77471463404386
 20
149.8839184342005
 30
0.0
 10
99.78444608069091
 20
149.8847928839588
 30
0.0
 10
99.79425710954955
 20
149.8846379043987
 30
0.0
 10
99.80406813855
 20
149.8844829243984
 30
0.0
 10
99.81481517454984
 20
149.8844508383982
 30
0.0
 10
99.82556221116185
 20
149.8844187514573
 30
0.0
 10
99.83624409525929
 20
149.8833539437227
 30
0.0
 10
99.84597757478002
 20
149.8823836762881
 30
0.0
 10
99.85565695748481
 20
149.8805559299611
 30
0.0
 10
99.8650331090246
 20
149.8777090390122
 30
0.0
 10
99.8734430353123
 20
149.8751555240736
 30
0.0
 10
99.88160900701995
 20
149.8717820901171
 30
0.0
 10
99.88930619908295
 20
149.8675482107959
 30
0.0
 10
99.896543325216
 20
149.8635673930598
 30
0.0
 10
99.90336603547551
 20
149.8588259146974
 30
0.0
 10
99.90962785617006
 20
149.8534359490687
 30
0.0
 10
99.91629846071318
 20
149.8476941159869
 30
0.0
 10
99.92233255340355
 20
149.8412163629357
 30
0.0
 10
99.92769155141043
 20
149.834243273317
 30
0.0
 10
99.93393293694143
 20
149.8261220274067
 30
0.0
 10
99.93925860918398
 20
149.8173288960737
 30
0.0
 10
99.94406177503957
 20
149.8082767116319
 30
0.0
 10
99.94959555326001
 20
149.7978475941212
 30
0.0
 10
99.95443577802858
 20
149.7870746201877
 30
0.0
 10
99.95873852694034
 20
149.7761007547083
 30
0.0
 10
99.96367319030243
 20
149.7635152348379
 30
0.0
 10
99.96790091454426
 20
149.750665483391
 30
0.0
 10
99.97212863754312
 20
149.7378157323908
 30
0.0
  0
ENDBLK
  5
5E
330
5B
100
AcDbEntity
  8
0
100
AcDbBlockEnd
  0
BLOCK
  5
62
330
60
100
AcDbEntity
  8
0
100
AcDbBlockBegin
  2
block 7
 70
     0
 10
0.0
 20
0.0
 30
0.0
  3
block 7
  1

  0
SPLINE
  5
64
330
60
100
AcDbEntity
  8
0
 62
     7
420
 16777215
370
     5
100
AcDbSpline
210
0.0
220
0.0
230
1.0
 70
    11
 71
     3
 72
   185
 73
   181
 74
     0
 42
0.0000000001
 43
0.0000000001
 12
1.0
 22
0.0
 32
0.0
 13
1.0
 23
0.0
 33
0.0
 40
0.0
 40
0.0
 40
0.0
 40
0.0
 40
1.0
 40
1.0
 40
1.0
 40
2.0
 40
2.0
 40
2.0
 40
3.0
 40
3.0
 40
3.0
 40
4.0
 40
4.0
 40
4.0
 40
5.0
 40
5.0
 40
5.0
 40
6.0
 40
6.0
 40
6.0
 40
7.0
 40
7.0
 40
7.0
 40
8.0
 40
8.0
 40
8.0
 40
9.0
 40
9.0
 40
9.0
 40
10.0
 40
10.0
 40
10.0
 40
11.0
 40
11.0
 40
11.0
 40
12.0
 40
12.0
 40
12.0
 40
13.0
 40
13.0
 40
13.0
 40
14.0
 40
14.0
 40
14.0
 40
15.0
 40
15.0
 40
15.0
 40
16.0
 40
16.0
 40
16.0
 40
17.0
 40
17.0
 40
17.0
 40
18.0
 40
18.0
 40
18.0
 40
19.0
 40
19.0
 40
19.0
 40
20.0
 40
20.0
 40
20.0
 40
21.0
 40
21.0
 40
21.0
 40
22.0
 40
22.0
 40
22.0
 40
23.0
 40
23.0
 40
23.0
 40
24.0
 40
24.0
 40
24.0
 40
25.0
 40
25.0
 40
25.0
 40
26.0
 40
26.0
 40
26.0
 40
27.0
 40
27.0
 40
27.0
 40
28.0
 40
28.0
 40
28.0
 40
29.0
 40
29.0
 40
29.0
 40
30.0
 40
30.0
 40
30.0
 40
31.0
 40
31.0
 40
31.0
 40
32.0
 40
32.0
 40
32.0
 40
33.0
 40
33.0
 40
33.0
 40
34.0
 40
34.0
 40
34.0
 40
35.0
 40
35.0
 40
35.0
 40
36.0
 40
36.0
 40
36.0
 40
37.0
 40
37.0
 40
37.0
 40
38.0
 40
38.0
 40
38.0
 40
39.0
 40
39.0
 40
39.0
 40
40.0
 40
40.0
 40
40.0
 40
41.0
 40
41.0
 40
41.0
 40
42.0
 40
42.0
 40
42.0
 40
43.0
 40
43.0
 40
43.0
 40
44.0
 40
44.0
 40
44.0
 40
45.0
 40
45.0
 40
45.0
 40
46.0
 40
46.0
 40
46.0
 40
47.0
 40
47.0
 40
47.0
 40
48.0
 40
48.0
 40
48.0
 40
49.0
 40
49.0
 40
49.0
 40
50.0
 40
50.0
 40
50.0
 40
51.0
 40
51.0
 40
51.0
 40
52.0
 40
52.0
 40
52.0
 40
53.0
 40
53.0
 40
53.0
 40
54.0
 40
54.0
 40
54.0
 40
55.0
 40
55.0
 40
55.0
 40
56.0
 40
56.0
 40
56.0
 40
57.0
 40
57.0
 40
57.0
 40
58.0
 40
58.0
 40
58.0
 40
59.0
 40
59.0
 40
59.0
 40
60.0
 40
60.0
 40
60.0
 40
60.0
 10
104.3662801085156
 20
149.1342750911934
 30
0.0
 10
104.3650615735143
 20
149.1005425751934
 30
0.0
 10
104.363843038932
 20
149.0668100588767
 30
0.0
 10
104.3606352036857
 20
149.0332312972899
 30
0.0
 10
104.3575580294891
 20
149.0010202606226
 30
0.0
 10
104.3526503099871
 20
148.9689507083496
 30
0.0
 10
104.3459584519258
 20
148.9372679175335
 30
0.0
 10
104.3393888731818
 20
148.9061640616003
 30
0.0
 10
104.3310997627525
 20
148.875432961794
 30
0.0
 10
104.3211208715527
 20
148.8452559717983
 30
0.0
 10
104.3112757301188
 20
148.8154834521274
 30
0.0
 10
104.299785801523
 20
148.7862502880448
 30
0.0
 10
104.2866869527811
 20
148.7577599486395
 30
0.0
 10
104.2738827017955
 20
148.7299103670773
 30
0.0
 10
104.2595410872161
 20
148.7027705731435
 30
0.0
 10
104.2437856769712
 20
148.6764733213659
 30
0.0
 10
104.228461062616
 20
148.6508951081766
 30
0.0
 10
104.2117989096657
 20
148.6261139922477
 30
0.0
 10
104.1935460247617
 20
148.6025250695035
 30
0.0
 10
104.1756670190651
 20
148.5794193255985
 30
0.0
 10
104.1562617808595
 20
148.5574574349941
 30
0.0
 10
104.1354035068105
 20
148.5370441752264
 30
0.0
 10
104.1145452325831
 20
148.5166309152847
 30
0.0
 10
104.0922339224873
 20
148.4977662862057
 30
0.0
 10
104.0699226124871
 20
148.4789016572068
 30
0.0
 10
104.056772299486
 20
148.4693484652072
 30
0.0
 10
104.0436219864709
 20
148.45979527312
 30
0.0
 10
104.0298437890864
 20
148.4512416241072
 30
0.0
 10
104.0165489571119
 20
148.4429880533951
 30
0.0
 10
104.0026695227651
 20
148.4356651241854
 30
0.0
 10
103.9886359844268
 20
148.4286620050839
 30
0.0
 10
103.9747531298312
 20
148.4217340812874
 30
0.0
 10
103.960719462829
 20
148.4151191366111
 30
0.0
 10
103.9462991994024
 20
148.4094693292221
 30
0.0
 10
103.9322888090192
 20
148.403980108619
 30
0.0
 10
103.9179134866605
 20
148.3994019400449
 30
0.0
 10
103.9033979241588
 20
148.3953570672882
 30
0.0
 10
103.888303180155
 20
148.3911508011661
 30
0.0
 10
103.8730567813696
 20
148.3875212376869
 30
0.0
 10
103.8576741959687
 20
148.3846317487437
 30
0.0
 10
103.8408613963524
 20
148.3814736061221
 30
0.0
 10
103.8238859086195
 20
148.3791995542883
 30
0.0
 10
103.8068700533809
 20
148.3772933727925
 30
0.0
 10
103.7882844858376
 20
148.3752113460925
 30
0.0
 10
103.7696507594564
 20
148.3735681923912
 30
0.0
 10
103.7509854972437
 20
148.3727774485722
 30
0.0
 10
103.7307073974726
 20
148.3719183777558
 30
0.0
 10
103.7103920764814
 20
148.372065392223
 30
0.0
 10
103.6900767554819
 20
148.3722124072238
 30
0.0
 10
103.6900767554819
 20
148.3722124072238
 30
0.0
 10
103.2826822194819
 20
148.3722124072421
 30
0.0
 10
103.2826822194819
 20
148.3722124072421
 30
0.0
 10
103.2826822194819
 20
148.3722124072421
 30
0.0
 10
103.2824584084421
 20
147.4910433362412
 30
0.0
 10
103.2824584084421
 20
147.4910433362412
 30
0.0
 10
103.282011856441
 20
147.4737209102413
 30
0.0
 10
103.2815653043617
 20
147.4563984837858
 30
0.0
 10
103.2802004463733
 20
147.4391102134494
 30
0.0
 10
103.2790329368469
 20
147.4243217002982
 30
0.0
 10
103.2771934829609
 20
147.4095581799205
 30
0.0
 10
103.2739910513525
 20
147.3950799563113
 30
0.0
 10
103.2713038513534
 20
147.3829310996838
 30
0.0
 10
103.2676569656802
 20
147.3709831232444
 30
0.0
 10
103.2627012417807
 20
147.359517057025
 30
0.0
 10
103.2585349015655
 20
147.3498773890828
 30
0.0
 10
103.2534434772261
 20
147.3405783342745
 30
0.0
 10
103.2468955083742
 20
147.3324215146294
 30
0.0
 10
103.2408079625841
 20
147.3248382450338
 30
0.0
 10
103.2334615057779
 20
147.3182422246541
 30
0.0
 10
103.2254448707892
 20
147.3126643481278
 30
0.0
 10
103.217046839092
 20
147.3068211004392
 30
0.0
 10
103.2079133439597
 20
147.3020951788484
 30
0.0
 10
103.1983493281221
 20
147.2985520862687
 30
0.0
 10
103.1876334586149
 20
147.2945822771032
 30
0.0
 10
103.1763771232022
 20
147.292097364587
 30
0.0
 10
103.1650443906441
 20
147.290649219954
 30
0.0
 10
103.1521272779786
 20
147.2889986165097
 30
0.0
 10
103.1391109134327
 20
147.2886949372482
 30
0.0
 10
103.1260945484331
 20
147.2883912582485
 30
0.0
 10
103.1130630484329
 20
147.2884413402493
 30
0.0
 10
103.1000315486925
 20
147.2884914221642
 30
0.0
 10
103.0871447060527
 20
147.2900847293524
 30
0.0
 10
103.0756486085319
 20
147.291506087192
 30
0.0
 10
103.0642676301639
 20
147.2941555547114
 30
0.0
 10
103.0532752780199
 20
147.2979875959585
 30
0.0
 10
103.0433801664108
 20
147.3014371284473
 30
0.0
 10
103.0337999689929
 20
147.3058449319578
 30
0.0
 10
103.0250507543679
 20
147.3115353670632
 30
0.0
 10
103.0165467454557
 20
147.3170663218884
 30
0.0
 10
103.0088277937492
 20
147.3238090216305
 30
0.0
 10
103.0019066451225
 20
147.3312925332568
 30
0.0
 10
102.994921487256
 20
147.3388452550545
 30
0.0
 10
102.9887489574408
 20
147.3471525546825
 30
0.0
 10
102.9838429499963
 20
147.3561301139495
 30
0.0
 10
102.9784174891328
 20
147.3660582269832
 30
0.0
 10
102.9745409509157
 20
147.37680604945
 30
0.0
 10
102.9714241595223
 20
147.387741580593
 30
0.0
 10
102.9679394808132
 20
147.3999678760771
 30
0.0
 10
102.96540448563
 20
147.4124288074057
 30
0.0
 10
102.9640857838599
 20
147.4249979512412
 30
0.0
 10
102.9625859800325
 20
147.4392932608109
 30
0.0
 10
102.9626594854408
 20
147.4537285462571
 30
0.0
 10
102.9627329914414
 20
147.4681638322564
 30
0.0
 10
102.9627329914414
 20
147.4681638322564
 30
0.0
 10
102.962392312539
 20
149.6490903992565
 30
0.0
 10
102.962392312539
 20
149.6490903992565
 30
0.0
 10
102.9617640075399
 20
149.6701888402567
 30
0.0
 10
102.9611357029521
 20
149.6912872806867
 30
0.0
 10
102.9623923123555
 20
149.7123133318136
 30
0.0
 10
102.9634347813651
 20
149.7297563070325
 30
0.0
 10
102.9657744811202
 20
149.7471494626682
 30
0.0
 10
102.9697306884061
 20
149.7642464550884
 30
0.0
 10
102.973070379757
 20
149.7786791360832
 30
0.0
 10
102.9775620176319
 20
149.7929007669091
 30
0.0
 10
102.9844074408129
 20
149.8060187498635
 30
0.0
 10
102.9902724555009
 20
149.8172579619117
 30
0.0
 10
102.9978653138858
 20
149.8276870189241
 30
0.0
 10
103.0069870595648
 20
149.8365012349234
 30
0.0
 10
103.0162501117756
 20
149.8454519934606
 30
0.0
 10
103.02708978669
 20
149.8527374919007
 30
0.0
 10
103.0385985256321
 20
149.8585163628568
 30
0.0
 10
103.0522003846919
 20
149.8653462500116
 30
0.0
 10
103.066736807098
 20
149.8700716467679
 30
0.0
 10
103.0814998014102
 20
149.8737576055491
 30
0.0
 10
103.0993142198488
 20
149.8782054303389
 30
0.0
 10
103.117458552066
 20
149.8811397183711
 30
0.0
 10
103.1356908864075
 20
149.8827894532973
 30
0.0
 10
103.1572929004718
 20
149.8847440903946
 30
0.0
 10
103.1790184515496
 20
149.8848954772467
 30
0.0
 10
103.2007440025496
 20
149.8850468642458
 30
0.0
 10
103.2007440025496
 20
149.8850468642458
 30
0.0
 10
103.7052617695496
 20
149.8844829242232
 30
0.0
 10
103.7052617695496
 20
149.8844829242232
 30
0.0
 10
103.7293940355498
 20
149.8837058262219
 30
0.0
 10
103.7535263016224
 20
149.8829287283588
 30
0.0
 10
103.7775165500523
 20
149.8805314911451
 30
0.0
 10
103.8004384646669
 20
149.8782410077065
 30
0.0
 10
103.8232307286634
 20
149.8744714681214
 30
0.0
 10
103.8458198961636
 20
149.8698061724672
 30
0.0
 10
103.867693027349
 20
149.8652887583629
 30
0.0
 10
103.8893757335641
 20
149.8599314758935
 30
0.0
 10
103.910736300368
 20
149.8534359489712
 30
0.0
 10
103.9316479609106
 20
149.8470769297895
 30
0.0
 10
103.952250879708
 20
149.8396270053409
 30
0.0
 10
103.9722657609719
 20
149.8308563303576
 30
0.0
 10
103.9920018084214
 20
149.8222078424976
 30
0.0
 10
104.0111660884953
 20
149.8122751473788
 30
0.0
 10
104.0298437888278
 20
149.8015028259952
 30
0.0
 10
104.0484872598588
 20
149.7907502462845
 30
0.0
 10
104.0666459329566
 20
149.7791611149367
 30
0.0
 10
104.0840348736993
 20
149.7665044168266
 30
0.0
 10
104.1015498470223
 20
149.753755984761
 30
0.0
 10
104.1182838897336
 20
149.7399244547074
 30
0.0
 10
104.1342745256599
 20
149.7252966122652
 30
0.0
 10
104.1506791789622
 20
149.7102900368595
 30
0.0
 10
104.1663014316867
 20
149.6944453802249
 30
0.0
 10
104.181127234664
 20
149.6778794127125
 30
0.0
 10
104.1961269083482
 20
149.6611191665845
 30
0.0
 10
104.2103113418993
 20
149.6436205919186
 30
0.0
 10
104.2234640199663
 20
149.6253817992414
 30
0.0
 10
104.2366865422276
 20
149.6070461537571
 30
0.0
 10
104.2488663221214
 20
149.5879624078826
 30
0.0
 10
104.260155900174
 20
149.5683682617137
 30
0.0
 10
104.2716744110171
 20
149.5483767807156
 30
0.0
 10
104.2822662505052
 20
149.5278539895031
 30
0.0
 10
104.2917673664947
 20
149.5068388012587
 30
0.0
 10
104.3015145756483
 20
149.4852792880979
 30
0.0
 10
104.3101138267986
 20
149.4632015399181
 30
0.0
 10
104.317733928404
 20
149.4407934155836
 30
0.0
 10
104.3255602439973
 20
149.4177788861185
 30
0.0
 10
104.3323536977898
 20
149.3944158573751
 30
0.0
 10
104.3380555853243
 20
149.3707965979139
 30
0.0
 10
104.343996647365
 20
149.3461865920214
 30
0.0
 10
104.3487526476472
 20
149.321298408581
 30
0.0
 10
104.3527323372575
 20
149.2962838557544
 30
0.0
 10
104.3569040691326
 20
149.2700622109521
 30
0.0
 10
104.3602227599606
 20
149.2437017064417
 30
0.0
 10
104.3623286751484
 20
149.2172551897529
 30
0.0
 10
104.3645262494784
 20
149.1896575986793
 30
0.0
 10
104.3654031795171
 20
149.1619663451934
 30
0.0
 10
104.3662801085156
 20
149.1342750911934
 30
0.0
  0
ENDBLK
  5
63
330
60
100
AcDbEntity
  8
0
100
AcDbBlockEnd
  0
BLOCK
  5
67
330
65
100
AcDbEntity
  8
0
100
AcDbBlockBegin
  2
block 8
 70
     0
 10
0.0
 20
0.0
 30
0.0
  3
block 8
  1

  0
SPLINE
  5
69
330
65
100
AcDbEntity
  8
0
 62
     7
420
 16777215
370
     5
100
AcDbSpline
210
0.0
220
0.0
230
1.0
 70
    11
 71
     3
 72
   248
 73
   244
 74
     0
 42
0.0000000001
 43
0.0000000001
 12
1.0
 22
0.0
 32
0.0
 13
1.0
 23
0.0
 33
0.0
 40
0.0
 40
0.0
 40
0.0
 40
0.0
 40
1.0
 40
1.0
 40
1.0
 40
2.0
 40
2.0
 40
2.0
 40
3.0
 40
3.0
 40
3.0
 40
4.0
 40
4.0
 40
4.0
 40
5.0
 40
5.0
 40
5.0
 40
6.0
 40
6.0
 40
6.0
 40
7.0
 40
7.0
 40
7.0
 40
8.0
 40
8.0
 40
8.0
 40
9.0
 40
9.0
 40
9.0
 40
10.0
 40
10.0
 40
10.0
 40
11.0
 40
11.0
 40
11.0
 40
12.0
 40
12.0
 40
12.0
 40
13.0
 40
13.0
 40
13.0
 40
14.0
 40
14.0
 40
14.0
 40
15.0
 40
15.0
 40
15.0
 40
16.0
 40
16.0
 40
16.0
 40
17.0
 40
17.0
 40
17.0
 40
18.0
 40
18.0
 40
18.0
 40
19.0
 40
19.0
 40
19.0
 40
20.0
 40
20.0
 40
20.0
 40
21.0
 40
21.0
 40
21.0
 40
22.0
 40
22.0
 40
22.0
 40
23.0
 40
23.0
 40
23.0
 40
24.0
 40
24.0
 40
24.0
 40
25.0
 40
25.0
 40
25.0
 40
26.0
 40
26.0
 40
26.0
 40
27.0
 40
27.0
 40
27.0
 40
28.0
 40
28.0
 40
28.0
 40
29.0
 40
29.0
 40
29.0
 40
30.0
 40
30.0
 40
30.0
 40
31.0
 40
31.0
 40
31.0
 40
32.0
 40
32.0
 40
32.0
 40
33.0
 40
33.0
 40
33.0
 40
34.0
 40
34.0
 40
34.0
 40
35.0
 40
35.0
 40
35.0
 40
36.0
 40
36.0
 40
36.0
 40
37.0
 40
37.0
 40
37.0
 40
38.0
 40
38.0
 40
38.0
 40
39.0
 40
39.0
 40
39.0
 40
40.0
 40
40.0
 40
40.0
 40
41.0
 40
41.0
 40
41.0
 40
42.0
 40
42.0
 40
42.0
 40
43.0
 40
43.0
 40
43.0
 40
44.0
 40
44.0
 40
44.0
 40
45.0
 40
45.0
 40
45.0
 40
46.0
 40
46.0
 40
46.0
 40
47.0
 40
47.0
 40
47.0
 40
48.0
 40
48.0
 40
48.0
 40
49.0
 40
49.0
 40
49.0
 40
50.0
 40
50.0
 40
50.0
 40
51.0
 40
51.0
 40
51.0
 40
52.0
 40
52.0
 40
52.0
 40
53.0
 40
53.0
 40
53.0
 40
54.0
 40
54.0
 40
54.0
 40
55.0
 40
55.0
 40
55.0
 40
56.0
 40
56.0
 40
56.0
 40
57.0
 40
57.0
 40
57.0
 40
58.0
 40
58.0
 40
58.0
 40
59.0
 40
59.0
 40
59.0
 40
60.0
 40
60.0
 40
60.0
 40
61.0
 40
61.0
 40
61.0
 40
62.0
 40
62.0
 40
62.0
 40
63.0
 40
63.0
 40
63.0
 40
64.0
 40
64.0
 40
64.0
 40
65.0
 40
65.0
 40
65.0
 40
66.0
 40
66.0
 40
66.0
 40
67.0
 40
67.0
 40
67.0
 40
68.0
 40
68.0
 40
68.0
 40
69.0
 40
69.0
 40
69.0
 40
70.0
 40
70.0
 40
70.0
 40
71.0
 40
71.0
 40
71.0
 40
72.0
 40
72.0
 40
72.0
 40
73.0
 40
73.0
 40
73.0
 40
74.0
 40
74.0
 40
74.0
 40
75.0
 40
75.0
 40
75.0
 40
76.0
 40
76.0
 40
76.0
 40
77.0
 40
77.0
 40
77.0
 40
78.0
 40
78.0
 40
78.0
 40
79.0
 40
79.0
 40
79.0
 40
80.0
 40
80.0
 40
80.0
 40
81.0
 40
81.0
 40
81.0
 40
81.0
 10
108.077240451444
 20
147.5294286880271
 30
0.0
 10
108.0661567224444
 20
147.5428426490271
 30
0.0
 10
108.0550729938594
 20
147.5562566106906
 30
0.0
 10
108.0445000039964
 20
147.5700720017136
 30
0.0
 10
108.0335855777265
 20
147.5843335368738
 30
0.0
 10
108.02321540965
 20
147.5990228469586
 30
0.0
 10
108.0134530284858
 20
147.6141022588081
 30
0.0
 10
108.003225863721
 20
147.6298995962558
 30
0.0
 10
107.9936657365783
 20
147.646125064925
 30
0.0
 10
107.9846640144009
 20
147.6626484390673
 30
0.0
 10
107.9752826571868
 20
147.6798686633912
 30
0.0
 10
107.9665077980215
 20
147.6974124505398
 30
0.0
 10
107.9581329628385
 20
147.7151460517882
 30
0.0
 10
107.9493522299549
 20
147.7337391359772
 30
0.0
 10
107.9410112361106
 20
147.7525408793317
 30
0.0
 10
107.9332953815869
 20
147.7715950993554
 30
0.0
 10
107.9251616117892
 20
147.7916813566675
 30
0.0
 10
107.917722534328
 20
147.8120481812077
 30
0.0
 10
107.9107157630766
 20
147.8325600700155
 30
0.0
 10
107.9034425353419
 20
147.8538519936732
 30
0.0
 10
107.8966351188509
 20
147.8753002245159
 30
0.0
 10
107.8903941058624
 20
147.8969119832044
 30
0.0
 10
107.8838097033142
 20
147.9197128521094
 30
0.0
 10
107.8778557476545
 20
147.942695738997
 30
0.0
 10
107.8723304109833
 20
147.9657798207451
 30
0.0
 10
107.8605773540346
 20
148.0148824444522
 30
0.0
 10
107.8507636444179
 20
148.0644429386495
 30
0.0
 10
107.8424124163011
 20
148.1142408137784
 30
0.0
 10
107.8333965895197
 20
148.1680016511002
 30
0.0
 10
107.8260852776535
 20
148.2220391547187
 30
0.0
 10
107.8203972880875
 20
148.2762495786985
 30
0.0
 10
107.8142535153339
 20
148.3348039276263
 30
0.0
 10
107.8100036443917
 20
148.3935600197229
 30
0.0
 10
107.8074140073417
 20
148.4523706049334
 30
0.0
 10
107.8046236508935
 20
148.5157395220527
 30
0.0
 10
107.8037608674913
 20
148.5791717070392
 30
0.0
 10
107.8028980834943
 20
148.642603893039
 30
0.0
 10
107.8036553984969
 20
148.698149116039
 30
0.0
 10
107.8044127139397
 20
148.7536943390562
 30
0.0
 10
107.8074140074765
 20
148.8091285810724
 30
0.0
 10
107.8102315577446
 20
148.8611690634613
 30
0.0
 10
107.8150267378831
 20
148.913111737702
 30
0.0
 10
107.820961778589
 20
148.9649279501891
 30
0.0
 10
107.8265242371132
 20
149.0134913126215
 30
0.0
 10
107.8330879349596
 20
149.0619435926249
 30
0.0
 10
107.8418479259318
 20
149.1100020014251
 30
0.0
 10
107.8500412615455
 20
149.1549516678829
 30
0.0
 10
107.8601559382666
 20
149.1995567715288
 30
0.0
 10
107.871765920632
 20
149.2437862420626
 30
0.0
 10
107.8827145381636
 20
149.2854961724673
 30
0.0
 10
107.8949929529192
 20
149.3268720468396
 30
0.0
 10
107.9095867818407
 20
149.3674096545163
 30
0.0
 10
107.9233264511502
 20
149.4055746437773
 30
0.0
 10
107.9391184294342
 20
149.442996620281
 30
0.0
 10
107.9564394910883
 20
149.4797432584636
 30
0.0
 10
107.9727566129037
 20
149.5143600379351
 30
0.0
 10
107.990430701642
 20
149.5483774964141
 30
0.0
 10
108.0106305764552
 20
149.5807870525391
 30
0.0
 10
108.0301349821874
 20
149.612080767875
 30
0.0
 10
108.0519942455391
 20
149.6418753930277
 30
0.0
 10
108.0738535085404
 20
149.671670018027
 30
0.0
 10
108.0899916345408
 20
149.6899655550264
 30
0.0
 10
108.1061297608588
 20
149.708261091822
 30
0.0
 10
108.1235286695112
 20
149.7252966125684
 30
0.0
 10
108.1407691470901
 20
149.7421770111814
 30
0.0
 10
108.1592475506654
 20
149.7578202361908
 30
0.0
 10
108.178284245207
 20
149.7727138117849
 30
0.0
 10
108.1974275887581
 20
149.7876908254499
 30
0.0
 10
108.2171354962083
 20
149.8019097666704
 30
0.0
 10
108.237555744781
 20
149.8150505964518
 30
0.0
 10
108.2583231908992
 20
149.8284148546524
 30
0.0
 10
108.2798274073875
 20
149.8406640283249
 30
0.0
 10
108.3019076586655
 20
149.8517424773452
 30
0.0
 10
108.3236044159347
 20
149.862628513753
 30
0.0
 10
108.3458573723942
 20
149.872384139092
 30
0.0
 10
108.3685175331614
 20
149.8810959812921
 30
0.0
 10
108.3899679687993
 20
149.8893427370106
 30
0.0
 10
108.4117832916321
 20
149.8966541806631
 30
0.0
 10
108.4339984281342
 20
149.9025466194309
 30
0.0
 10
108.4555206490765
 20
149.9082552662824
 30
0.0
 10
108.4774181313691
 20
149.9126320484929
 30
0.0
 10
108.4994793226244
 20
149.9155299001792
 30
0.0
 10
108.5208388620386
 20
149.9183355862637
 30
0.0
 10
108.5423518625512
 20
149.9197549200061
 30
0.0
 10
108.5638648625518
 20
149.9211742540052
 30
0.0
 10
108.5638648625518
 20
149.9211742540052
 30
0.0
 10
108.5638312355514
 20
149.9206103140048
 30
0.0
 10
108.5638312355514
 20
149.9206103140048
 30
0.0
 10
108.5821208705518
 20
149.9198790450041
 30
0.0
 10
108.6004105061585
 20
149.9191477758083
 30
0.0
 10
108.6185868113537
 20
149.9172233719108
 30
0.0
 10
108.6369735860436
 20
149.9152766846994
 30
0.0
 10
108.6552443905435
 20
149.9121090714011
 30
0.0
 10
108.6733423870334
 20
149.9081915243673
 30
0.0
 10
108.6920073067861
 20
149.9041512594098
 30
0.0
 10
108.710488422469
 20
149.8993133411896
 30
0.0
 10
108.728662452666
 20
149.8935147718765
 30
0.0
 10
108.7476068710602
 20
149.887470404063
 30
0.0
 10
108.7662176177714
 20
149.8803822159363
 30
0.0
 10
108.7845470093262
 20
149.8726286243039
 30
0.0
 10
108.8031653909655
 20
149.864752785782
 30
0.0
 10
108.8214934755456
 20
149.8561903961975
 30
0.0
 10
108.8393025845451
 20
149.8466620631872
 30
0.0
 10
108.8570838571493
 20
149.8371486233672
 30
0.0
 10
108.8743477752684
 20
149.8266722573823
 30
0.0
 10
108.89123570731
 20
149.8156150870836
 30
0.0
 10
108.9082874759214
 20
149.8044506467626
 30
0.0
 10
108.9249559278877
 20
149.7926940782346
 30
0.0
 10
108.9409108686806
 20
149.7800521872548
 30
0.0
 10
108.9570129250982
 20
149.7672937292695
 30
0.0
 10
108.9723882515437
 20
149.7536335469868
 30
0.0
 10
108.9877635775432
 20
149.7399733639857
 30
0.0
 10
109.0015521235426
 20
149.725697511985
 30
0.0
 10
109.0153406700649
 20
149.7114216599129
 30
0.0
 10
109.0284068917662
 20
149.6965075984989
 30
0.0
 10
109.0416279838986
 20
149.681416764704
 30
0.0
 10
109.054109526687
 20
149.6656725028576
 30
0.0
 10
109.0662277532373
 20
149.6496548892632
 30
0.0
 10
109.078615634345
 20
149.6332808520222
 30
0.0
 10
109.0906238503054
 20
149.616621162446
 30
0.0
 10
109.1017906528162
 20
149.5994152372173
 30
0.0
 10
109.1132242804465
 20
149.5817981850741
 30
0.0
 10
109.1237758039237
 20
149.5636084813554
 30
0.0
 10
109.1339666090571
 20
149.5452241529849
 30
0.0
 10
109.1444587249921
 20
149.5262962565035
 30
0.0
 10
109.154568476575
 20
149.5071620563226
 30
0.0
 10
109.1638846044163
 20
149.4876461245357
 30
0.0
 10
109.1734305710856
 20
149.4676487138586
 30
0.0
 10
109.1821432718745
 20
149.4472505037776
 30
0.0
 10
109.1904156562303
 20
149.4266811537627
 30
0.0
 10
109.1990386836789
 20
149.4052399268888
 30
0.0
 10
109.2071832760414
 20
149.3836127443197
 30
0.0
 10
109.2146887463996
 20
149.361764749841
 30
0.0
 10
109.2224418250093
 20
149.3391959819215
 30
0.0
 10
109.2295129162728
 20
149.3163915924354
 30
0.0
 10
109.2361393839526
 20
149.2934614034515
 30
0.0
 10
109.2430590692642
 20
149.2695165659322
 30
0.0
 10
109.2494939117039
 20
149.2454345494773
 30
0.0
 10
109.2553320599084
 20
149.2212066236736
 30
0.0
 10
109.2614188752012
 20
149.1959467460335
 30
0.0
 10
109.2668570831569
 20
149.170528264759
 30
0.0
 10
109.2717022836585
 20
149.1450004096876
 30
0.0
 10
109.2767903170753
 20
149.1181931434821
 30
0.0
 10
109.2812244125214
 20
149.0912652655058
 30
0.0
 10
109.2852500549969
 20
149.0642782731096
 30
0.0
 10
109.2894513670859
 20
149.036113631541
 30
0.0
 10
109.293207800546
 20
149.0078846037546
 30
0.0
 10
109.2965398643871
 20
148.9796047027097
 30
0.0
 10
109.3000366427853
 20
148.9499268358421
 30
0.0
 10
109.3030660586657
 20
148.9201929417452
 30
0.0
 10
109.3055717118671
 20
148.8904152085253
 30
0.0
 10
109.3081808395166
 20
148.8594077622299
 30
0.0
 10
109.3102220522436
 20
148.828352781252
 30
0.0
 10
109.3117811071028
 20
148.7972742810267
 30
0.0
 10
109.3134036904756
 20
148.7649293911342
 30
0.0
 10
109.3145040213728
 20
148.7325590262131
 30
0.0
 10
109.3151680499544
 20
148.7001819200809
 30
0.0
 10
109.3158625840248
 20
148.6663174089368
 30
0.0
 10
109.3160798074936
 20
148.6324455229712
 30
0.0
 10
109.3162970304921
 20
148.5985736359711
 30
0.0
 10
109.3161065524906
 20
148.5671460449711
 30
0.0
 10
109.3159160748837
 20
148.5357184534953
 30
0.0
 10
109.3151680495983
 20
148.5043037273486
 30
0.0
 10
109.3144464506222
 20
148.4739988236456
 30
0.0
 10
109.313206002302
 20
148.4437058923135
 30
0.0
 10
109.3117811066665
 20
148.4134207627224
 30
0.0
 10
109.3104167845423
 20
148.3844230794622
 30
0.0
 10
109.3088833637956
 20
148.3554325487248
 30
0.0
 10
109.3067006925845
 20
148.3264892295884
 30
0.0
 10
109.3045972854446
 20
148.2985969919382
 30
0.0
 10
109.3018909268937
 20
148.2707485991572
 30
0.0
 10
109.2987978261016
 20
148.2429446410777
 30
0.0
 10
109.2958196681914
 20
148.2161739073532
 30
0.0
 10
109.2924829774686
 20
148.1894443672121
 30
0.0
 10
109.2886369975822
 20
148.1627869941557
 30
0.0
 10
109.2849617845733
 20
148.137313245682
 30
0.0
 10
109.2808215046455
 20
148.111905397931
 30
0.0
 10
109.2762182071915
 20
148.086580780717
 30
0.0
 10
109.2717894682654
 20
148.0622164811685
 30
0.0
 10
109.2669321615646
 20
148.0379292195815
 30
0.0
 10
109.2615414551833
 20
148.0137615101306
 30
0.0
 10
109.2563948852158
 20
147.9906883173376
 30
0.0
 10
109.25076213517
 20
147.9677240932411
 30
0.0
 10
109.2446067411705
 20
147.9448936729146
 30
0.0
 10
109.2328773925782
 20
147.9013893970664
 30
0.0
 10
109.2192502808615
 20
147.8583709737035
 30
0.0
 10
109.2033989370954
 20
147.8161898458785
 30
0.0
 10
109.1883663826924
 20
147.776187552813
 30
0.0
 10
109.1713334437287
 20
147.7369382895713
 30
0.0
 10
109.1520303041877
 20
147.6987758290693
 30
0.0
 10
109.1335843058582
 20
147.662307943567
 30
0.0
 10
109.1130652437702
 20
147.626832486395
 30
0.0
 10
109.0899363528417
 20
147.5932161113973
 30
0.0
 10
109.0676543874697
 20
147.5608306889409
 30
0.0
 10
109.0429502254442
 20
147.5301706909831
 30
0.0
 10
109.018246063443
 20
147.4995106929842
 30
0.0
 10
109.0030952164424
 20
147.4837950309851
 30
0.0
 10
108.9879443701168
 20
147.4680793688231
 30
0.0
 10
108.9719578448413
 20
147.4532224746129
 30
0.0
 10
108.9561957891266
 20
147.4385741886172
 30
0.0
 10
108.9396213575277
 20
147.4247607236653
 30
0.0
 10
108.9222826836639
 20
147.4120146706803
 30
0.0
 10
108.9048698955522
 20
147.3992141346271
 30
0.0
 10
108.8866863176962
 20
147.3874901553579
 30
0.0
 10
108.8680915983791
 20
147.3764517710565
 30
0.0
 10
108.8491829187892
 20
147.3652270105002
 30
0.0
 10
108.8298490967924
 20
147.3547111920508
 30
0.0
 10
108.8099490803092
 20
147.34540479532
 30
0.0
 10
108.7904538370574
 20
147.3362876939227
 30
0.0
 10
108.7704151982515
 20
147.3283313145039
 30
0.0
 10
108.7501130903639
 20
147.3211317048926
 30
0.0
 10
108.7306312595481
 20
147.3142229850112
 30
0.0
 10
108.7109068197206
 20
147.3080111179617
 30
0.0
 10
108.6908415912827
 20
147.3030680097042
 30
0.0
 10
108.6711563185694
 20
147.2982185042824
 30
0.0
 10
108.6511430414138
 20
147.2945901620931
 30
0.0
 10
108.6310056011469
 20
147.2923426907474
 30
0.0
 10
108.6113274770995
 20
147.2901464821275
 30
0.0
 10
108.5915307894334
 20
147.2892688700032
 30
0.0
 10
108.5717341024334
 20
147.2883912580046
 30
0.0
 10
108.5504168524335
 20
147.2893729780053
 30
0.0
 10
108.5290996025087
 20
147.2903546986144
 30
0.0
 10
108.507946679445
 20
147.2929071816763
 30
0.0
 10
108.4860837082523
 20
147.2955453448983
 30
0.0
 10
108.4643962811216
 20
147.2998614932092
 30
0.0
 10
108.4430302753664
 20
147.3053259719437
 30
0.0
 10
108.4210406052038
 20
147.3109499564351
 30
0.0
 10
108.3993913945761
 20
147.3177902882925
 30
0.0
 10
108.3781138711595
 20
147.3256476287272
 30
0.0
 10
108.3556475055634
 20
147.3339439834927
 30
0.0
 10
108.3335955221824
 20
147.3433741686796
 30
0.0
 10
108.3120684864855
 20
147.3538721519218
 30
0.0
 10
108.2902613693509
 20
147.3645067210958
 30
0.0
 10
108.2689929486187
 20
147.3762370546448
 30
0.0
 10
108.2482810630601
 20
147.3888705609902
 30
0.0
 10
108.2275567139518
 20
147.4015116696519
 30
0.0
 10
108.207389570019
 20
147.4150570384203
 30
0.0
 10
108.1878805828194
 20
147.4295138753723
 30
0.0
 10
108.1681054022928
 20
147.4441679708247
 30
0.0
 10
108.149006461672
 20
147.4597585774857
 30
0.0
 10
108.1308670460771
 20
147.476366584122
 30
0.0
 10
108.1123229721817
 20
147.4933450860326
 30
0.0
 10
108.0947817114432
 20
147.511386887026
 30
0.0
 10
108.077240451444
 20
147.5294286880271
 30
0.0
  0
ENDBLK
  5
68
330
65
100
AcDbEntity
  8
0
100
AcDbBlockEnd
  0
BLOCK
  5
6C
330
6A
100
AcDbEntity
  8
0
100
AcDbBlockBegin
  2
block 9
 70
     0
 10
0.0
 20
0.0
 30
0.0
  3
block 9
  1

  0
SPLINE
  5
6E
330
6A
100
AcDbEntity
  8
0
 62
     7
420
 16777215
370
     5
100
AcDbSpline
210
0.0
220
0.0
230
1.0
 70
    11
 71
     3
 72
   200
 73
   196
 74
     0
 42
0.0000000001
 43
0.0000000001
 12
1.0
 22
0.0
 32
0.0
 13
1.0
 23
0.0
 33
0.0
 40
0.0
 40
0.0
 40
0.0
 40
0.0
 40
1.0
 40
1.0
 40
1.0
 40
2.0
 40
2.0
 40
2.0
 40
3.0
 40
3.0
 40
3.0
 40
4.0
 40
4.0
 40
4.0
 40
5.0
 40
5.0
 40
5.0
 40
6.0
 40
6.0
 40
6.0
 40
7.0
 40
7.0
 40
7.0
 40
8.0
 40
8.0
 40
8.0
 40
9.0
 40
9.0
 40
9.0
 40
10.0
 40
10.0
 40
10.0
 40
11.0
 40
11.0
 40
11.0
 40
12.0
 40
12.0
 40
12.0
 40
13.0
 40
13.0
 40
13.0
 40
14.0
 40
14.0
 40
14.0
 40
15.0
 40
15.0
 40
15.0
 40
16.0
 40
16.0
 40
16.0
 40
17.0
 40
17.0
 40
17.0
 40
18.0
 40
18.0
 40
18.0
 40
19.0
 40
19.0
 40
19.0
 40
20.0
 40
20.0
 40
20.0
 40
21.0
 40
21.0
 40
21.0
 40
22.0
 40
22.0
 40
22.0
 40
23.0
 40
23.0
 40
23.0
 40
24.0
 40
24.0
 40
24.0
 40
25.0
 40
25.0
 40
25.0
 40
26.0
 40
26.0
 40
26.0
 40
27.0
 40
27.0
 40
27.0
 40
28.0
 40
28.0
 40
28.0
 40
29.0
 40
29.0
 40
29.0
 40
30.0
 40
30.0
 40
30.0
 40
31.0
 40
31.0
 40
31.0
 40
32.0
 40
32.0
 40
32.0
 40
33.0
 40
33.0
 40
33.0
 40
34.0
 40
34.0
 40
34.0
 40
35.0
 40
35.0
 40
35.0
 40
36.0
 40
36.0
 40
36.0
 40
37.0
 40
37.0
 40
37.0
 40
38.0
 40
38.0
 40
38.0
 40
39.0
 40
39.0
 40
39.0
 40
40.0
 40
40.0
 40
40.0
 40
41.0
 40
41.0
 40
41.0
 40
42.0
 40
42.0
 40
42.0
 40
43.0
 40
43.0
 40
43.0
 40
44.0
 40
44.0
 40
44.0
 40
45.0
 40
45.0
 40
45.0
 40
46.0
 40
46.0
 40
46.0
 40
47.0
 40
47.0
 40
47.0
 40
48.0
 40
48.0
 40
48.0
 40
49.0
 40
49.0
 40
49.0
 40
50.0
 40
50.0
 40
50.0
 40
51.0
 40
51.0
 40
51.0
 40
52.0
 40
52.0
 40
52.0
 40
53.0
 40
53.0
 40
53.0
 40
54.0
 40
54.0
 40
54.0
 40
55.0
 40
55.0
 40
55.0
 40
56.0
 40
56.0
 40
56.0
 40
57.0
 40
57.0
 40
57.0
 40
58.0
 40
58.0
 40
58.0
 40
59.0
 40
59.0
 40
59.0
 40
60.0
 40
60.0
 40
60.0
 40
61.0
 40
61.0
 40
61.0
 40
62.0
 40
62.0
 40
62.0
 40
63.0
 40
63.0
 40
63.0
 40
64.0
 40
64.0
 40
64.0
 40
65.0
 40
65.0
 40
65.0
 40
65.0
 10
108.563864862537
 20
149.6005431160052
 30
0.0
 10
108.5765321465369
 20
149.5994685760044
 30
0.0
 10
108.5891994302924
 20
149.5983940351948
 30
0.0
 10
108.6016520974269
 20
149.5960282946724
 30
0.0
 10
108.6147445417519
 20
149.5935410101625
 30
0.0
 10
108.6275997503642
 20
149.5896264425197
 30
0.0
 10
108.6400374492917
 20
149.5847384854112
 30
0.0
 10
108.6533006192985
 20
149.5795261220556
 30
0.0
 10
108.6660890216236
 20
149.57320687693
 30
0.0
 10
108.6784228008523
 20
149.5661102997733
 30
0.0
 10
108.6917286385904
 20
149.5584544221707
 30
0.0
 10
108.7045053692134
 20
149.5498938569033
 30
0.0
 10
108.7168081525766
 20
149.5407082291358
 30
0.0
 10
108.7297704748363
 20
149.5310301698082
 30
0.0
 10
108.7422066721514
 20
149.5206582337565
 30
0.0
 10
108.7540645234109
 20
149.5096612533236
 30
0.0
 10
108.7661680398456
 20
149.4984364428171
 30
0.0
 10
108.7776689982058
 20
149.486560420922
 30
0.0
 10
108.7884984419804
 20
149.4740983535076
 30
0.0
 10
108.7997627533528
 20
149.4611358587926
 30
0.0
 10
108.8103005365809
 20
149.4475393070189
 30
0.0
 10
108.8201099083724
 20
149.4334550398037
 30
0.0
 10
108.8302223210716
 20
149.4189356673437
 30
0.0
 10
108.8395606215283
 20
149.4038979799926
 30
0.0
 10
108.8488989225272
 20
149.388860292992
 30
0.0
 10
108.8606219085266
 20
149.3655341559916
 30
0.0
 10
108.8723448945574
 20
149.3422080194298
 30
0.0
 10
108.8827683505831
 20
149.3182989839552
 30
0.0
 10
108.8938546913099
 20
149.2928694418674
 30
0.0
 10
108.90347095776
 20
149.2667805039253
 30
0.0
 10
108.9121218549679
 20
149.2403992996211
 30
0.0
 10
108.9214044339737
 20
149.2120917602601
 30
0.0
 10
108.9295755155494
 20
149.1834477141032
 30
0.0
 10
108.9369594357389
 20
149.1545967481176
 30
0.0
 10
108.9448955244967
 20
149.123588310736
 30
0.0
 10
108.9519223223928
 20
149.0923408495496
 30
0.0
 10
108.9578455831645
 20
149.0608913299759
 30
0.0
 10
108.9641555420951
 20
149.0273886387093
 30
0.0
 10
108.9692131724005
 20
148.9936566452313
 30
0.0
 10
108.9736513161936
 20
148.959847536846
 30
0.0
 10
108.9784069901815
 20
148.9236195314528
 30
0.0
 10
108.9824513634194
 20
148.8873029819341
 30
0.0
 10
108.9855056158947
 20
148.8509008756662
 30
0.0
 10
108.988751961043
 20
148.8122093130038
 30
0.0
 10
108.9908797245635
 20
148.7734210932352
 30
0.0
 10
108.9922795015767
 20
148.7346158388577
 30
0.0
 10
108.9937722645155
 20
148.693232786405
 30
0.0
 10
108.9944371094942
 20
148.6518303609855
 30
0.0
 10
108.9951019534925
 20
148.6104279359854
 30
0.0
 10
108.9947654344907
 20
148.5660077169854
 30
0.0
 10
108.9944289150912
 20
148.521587498384
 30
0.0
 10
108.9928439922053
 20
148.4772081852619
 30
0.0
 10
108.9913641570471
 20
148.4357714261203
 30
0.0
 10
108.9887959799049
 20
148.3943703278461
 30
0.0
 10
108.9855056159069
 20
148.3530202819834
 30
0.0
 10
108.9824437687316
 20
148.3145420099294
 30
0.0
 10
108.9787565635555
 20
148.2761079453185
 30
0.0
 10
108.9736513161551
 20
148.2378642264499
 30
0.0
 10
108.968908013141
 20
148.2023318550053
 30
0.0
 10
108.9629406089511
 20
148.1669637963314
 30
0.0
 10
108.9561521117383
 20
148.1317400182728
 30
0.0
 10
108.9498338043808
 20
148.0989559352752
 30
0.0
 10
108.9428042072401
 20
148.0662968385137
 30
0.0
 10
108.9341369832559
 20
148.0340831670708
 30
0.0
 10
108.9261455250666
 20
148.0043811299591
 30
0.0
 10
108.9167618497512
 20
147.9750577680968
 30
0.0
 10
108.9064769501361
 20
147.9460226538765
 30
0.0
 10
108.896910924585
 20
147.9190169800337
 30
0.0
 10
108.8865652559117
 20
147.8922606672997
 30
0.0
 10
108.8743009933331
 20
147.8664294976164
 30
0.0
 10
108.8629733601981
 20
147.8425710705993
 30
0.0
 10
108.8500089914569
 20
147.8195018749919
 30
0.0
 10
108.8370446224565
 20
147.7964326799929
 30
0.0
 10
108.8285764774555
 20
147.7829795369933
 30
0.0
 10
108.8201083330372
 20
147.7695263938847
 30
0.0
 10
108.8105135703056
 20
147.7569183471207
 30
0.0
 10
108.8011572877888
 20
147.7446236764941
 30
0.0
 10
108.7907296957099
 20
147.7331326141386
 30
0.0
 10
108.780031085095
 20
147.7219199382191
 30
0.0
 10
108.7693562403442
 20
147.7107321701032
 30
0.0
 10
108.758411579799
 20
147.6998215529844
 30
0.0
 10
108.7467261475784
 20
147.6897439809291
 30
0.0
 10
108.7351313554794
 20
147.6797445773459
 30
0.0
 10
108.7228072389875
 20
147.6705653456248
 30
0.0
 10
108.7100342670287
 20
147.6620839479036
 30
0.0
 10
108.6976548261128
 20
147.6538638592409
 30
0.0
 10
108.6848537618381
 20
147.6462992669171
 30
0.0
 10
108.6716489153288
 20
147.6395043295146
 30
0.0
 10
108.659582592878
 20
147.6332952527419
 30
0.0
 10
108.6471791148517
 20
147.627728832892
 30
0.0
 10
108.6343925441839
 20
147.6231341058562
 30
0.0
 10
108.6220874298323
 20
147.6187123853618
 30
0.0
 10
108.6094275290893
 20
147.6151905604773
 30
0.0
 10
108.5965716827891
 20
147.6129732770698
 30
0.0
 10
108.5844570570861
 20
147.6108838340294
 30
0.0
 10
108.5721684294478
 20
147.6099528390043
 30
0.0
 10
108.5598798024473
 20
147.6090218440048
 30
0.0
 10
108.5483344454478
 20
147.6097463930062
 30
0.0
 10
108.5367890890278
 20
147.6104709427852
 30
0.0
 10
108.5254458837752
 20
147.6124087870085
 30
0.0
 10
108.5141799316079
 20
147.6143334335103
 30
0.0
 10
108.503113386477
 20
147.6174549044099
 30
0.0
 10
108.4921409461701
 20
147.6208761439312
 30
0.0
 10
108.4807915667735
 20
147.6244149141828
 30
0.0
 10
108.4695428688744
 20
147.628274402887
 30
0.0
 10
108.4588360084495
 20
147.6332949342153
 30
0.0
 10
108.4478690244614
 20
147.6384374395365
 30
0.0
 10
108.4374705256887
 20
147.6447980879312
 30
0.0
 10
108.4272245423764
 20
147.651358629002
 30
0.0
 10
108.4163837732157
 20
147.6583000136566
 30
0.0
 10
108.405713740711
 20
147.6654651723935
 30
0.0
 10
108.3956130761679
 20
147.6733737574619
 30
0.0
 10
108.3849192755679
 20
147.6817467542478
 30
0.0
 10
108.3748636756932
 20
147.6909530526175
 30
0.0
 10
108.3651305902874
 20
147.7004693002362
 30
0.0
 10
108.3547435644164
 20
147.7106249195597
 30
0.0
 10
108.3447238466919
 20
147.7211335366392
 30
0.0
 10
108.3352125954658
 20
147.7320807664036
 30
0.0
 10
108.325040365311
 20
147.7437887675978
 30
0.0
 10
108.315449728454
 20
147.7559984620159
 30
0.0
 10
108.3058590914545
 20
147.7682081560168
 30
0.0
 10
108.2913359094557
 20
147.790069832017
 30
0.0
 10
108.2768127273022
 20
147.8119315075846
 30
0.0
 10
108.2640867966232
 20
147.8348180312578
 30
0.0
 10
108.2499840031541
 20
147.8601807276885
 30
0.0
 10
108.238088401281
 20
147.8868020327006
 30
0.0
 10
108.2273949160876
 20
147.9138466971126
 30
0.0
 10
108.2156736219143
 20
147.9434907712057
 30
0.0
 10
108.2053966337207
 20
147.9736434985148
 30
0.0
 10
108.1963479403408
 20
148.0041651725464
 30
0.0
 10
108.1863080013359
 20
148.0380303653109
 30
0.0
 10
108.1777802058839
 20
148.0723497653266
 30
0.0
 10
108.1703813784886
 20
148.1069024380063
 30
0.0
 10
108.1622944054976
 20
148.1446687644491
 30
0.0
 10
108.1555561712948
 20
148.1827137736137
 30
0.0
 10
108.1500597217891
 20
148.2209295125474
 30
0.0
 10
108.1441550363277
 20
148.2619836362822
 30
0.0
 10
108.1396834470998
 20
148.3032347927159
 30
0.0
 10
108.135947460052
 20
148.344552925362
 30
0.0
 10
108.1319213506448
 20
148.3890796649962
 30
0.0
 10
108.1287495275121
 20
148.4336841869705
 30
0.0
 10
108.1269156129332
 20
148.4783371664564
 30
0.0
 10
108.124946516573
 20
148.5262816129304
 30
0.0
 10
108.1245198384905
 20
148.5742819240245
 30
0.0
 10
108.1240931604926
 20
148.6222822360247
 30
0.0
 10
108.1246390934949
 20
148.6653856180246
 30
0.0
 10
108.1251850261365
 20
148.7084889996744
 30
0.0
 10
108.126915612622
 20
148.7515505537118
 30
0.0
 10
108.1285509915443
 20
148.7922430925799
 30
0.0
 10
108.1312442632253
 20
148.8328982794999
 30
0.0
 10
108.1348184790683
 20
148.8734804944072
 30
0.0
 10
108.1381919931399
 20
148.9117839094922
 30
0.0
 10
108.14235029436
 20
148.9500223176223
 30
0.0
 10
108.1478017600989
 20
148.9880720592577
 30
0.0
 10
108.1529475816592
 20
149.0239884880208
 30
0.0
 10
108.1592456265129
 20
149.059736812938
 30
0.0
 10
108.1664299453229
 20
149.0953252491406
 30
0.0
 10
108.1730897477431
 20
149.1283154267474
 30
0.0
 10
108.1805111370976
 20
149.1611682098671
 30
0.0
 10
108.1895740543559
 20
149.1935465905881
 30
0.0
 10
108.1978308723225
 20
149.2230450829672
 30
0.0
 10
108.2074501938922
 20
149.2521498111121
 30
0.0
 10
108.2177985778944
 20
149.2810426132883
 30
0.0
 10
108.2272026612631
 20
149.30729891769
 30
0.0
 10
108.2372088223979
 20
149.3333802083914
 30
0.0
 10
108.2494100446932
 20
149.358377807522
 30
0.0
 10
108.2604439180467
 20
149.3809837675023
 30
0.0
 10
108.273272921528
 20
149.4027034800178
 30
0.0
 10
108.2861019245294
 20
149.4244231920177
 30
0.0
 10
108.2948649755294
 20
149.4364978040169
 30
0.0
 10
108.3036280256144
 20
149.4485724159134
 30
0.0
 10
108.3131974672844
 20
149.4599860919479
 30
0.0
 10
108.3228549825132
 20
149.4715048151828
 30
0.0
 10
108.333333801087
 20
149.4823503805585
 30
0.0
 10
108.3442444432596
 20
149.4927265392003
 30
0.0
 10
108.3550822641694
 20
149.5030334439005
 30
0.0
 10
108.3663461636448
 20
149.5128771869105
 30
0.0
 10
108.3781138712192
 20
149.5220800433317
 30
0.0
 10
108.3902437466124
 20
149.5315661306553
 30
0.0
 10
108.4029089181173
 20
149.5403712759702
 30
0.0
 10
108.415934732589
 20
149.5486110951348
 30
0.0
 10
108.4285495590355
 20
149.5565909330898
 30
0.0
 10
108.441502629598
 20
149.5640405562292
 30
0.0
 10
108.4548845751516
 20
149.5706262235274
 30
0.0
 10
108.467144820974
 20
149.5766598678623
 30
0.0
 10
108.4797650568992
 20
149.5819683229028
 30
0.0
 10
108.4927054367498
 20
149.5864319567262
 30
0.0
 10
108.5045060054805
 20
149.5905024259339
 30
0.0
 10
108.5165728042735
 20
149.5938703461087
 30
0.0
 10
108.5288328266717
 20
149.5960282944347
 30
0.0
 10
108.5403846002124
 20
149.5980615803095
 30
0.0
 10
108.552107917537
 20
149.5990206540055
 30
0.0
 10
108.5638312355367
 20
149.5999797280049
 30
0.0
 10
108.5638312355367
 20
149.5999797280049
 30
0.0
 10
108.563864862537
 20
149.6005431160052
 30
0.0
 10
108.563864862537
 20
149.6005431160052
 30
0.0
  0
HATCH
  5
6F
330
6A
100
AcDbEntity
  8
0
 62
     7
420
 16777215
100
AcDbHatch
 10
0.0
 20
0.0
 30
0.0
210
0.0
220
0.0
230
1.0
  2
SOLID
 70
     1
 71
     0
 91
        1
 92
        1
 93
        1
 72
     4
 94
        3
 73
     0
 74
     1
 95
      200
 96
      196
 40
0.0
 40
0.0
 40
0.0
 40
0.0
 40
1.0
 40
1.0
 40
1.0
 40
2.0
 40
2.0
 40
2.0
 40
3.0
 40
3.0
 40
3.0
 40
4.0
 40
4.0
 40
4.0
 40
5.0
 40
5.0
 40
5.0
 40
6.0
 40
6.0
 40
6.0
 40
7.0
 40
7.0
 40
7.0
 40
8.0
 40
8.0
 40
8.0
 40
9.0
 40
9.0
 40
9.0
 40
10.0
 40
10.0
 40
10.0
 40
11.0
 40
11.0
 40
11.0
 40
12.0
 40
12.0
 40
12.0
 40
13.0
 40
13.0
 40
13.0
 40
14.0
 40
14.0
 40
14.0
 40
15.0
 40
15.0
 40
15.0
 40
16.0
 40
16.0
 40
16.0
 40
17.0
 40
17.0
 40
17.0
 40
18.0
 40
18.0
 40
18.0
 40
19.0
 40
19.0
 40
19.0
 40
20.0
 40
20.0
 40
20.0
 40
21.0
 40
21.0
 40
21.0
 40
22.0
 40
22.0
 40
22.0
 40
23.0
 40
23.0
 40
23.0
 40
24.0
 40
24.0
 40
24.0
 40
25.0
 40
25.0
 40
25.0
 40
26.0
 40
26.0
 40
26.0
 40
27.0
 40
27.0
 40
27.0
 40
28.0
 40
28.0
 40
28.0
 40
29.0
 40
29.0
 40
29.0
 40
30.0
 40
30.0
 40
30.0
 40
31.0
 40
31.0
 40
31.0
 40
32.0
 40
32.0
 40
32.0
 40
33.0
 40
33.0
 40
33.0
 40
34.0
 40
34.0
 40
34.0
 40
35.0
 40
35.0
 40
35.0
 40
36.0
 40
36.0
 40
36.0
 40
37.0
 40
37.0
 40
37.0
 40
38.0
 40
38.0
 40
38.0
 40
39.0
 40
39.0
 40
39.0
 40
40.0
 40
40.0
 40
40.0
 40
41.0
 40
41.0
 40
41.0
 40
42.0
 40
42.0
 40
42.0
 40
43.0
 40
43.0
 40
43.0
 40
44.0
 40
44.0
 40
44.0
 40
45.0
 40
45.0
 40
45.0
 40
46.0
 40
46.0
 40
46.0
 40
47.0
 40
47.0
 40
47.0
 40
48.0
 40
48.0
 40
48.0
 40
49.0
 40
49.0
 40
49.0
 40
50.0
 40
50.0
 40
50.0
 40
51.0
 40
51.0
 40
51.0
 40
52.0
 40
52.0
 40
52.0
 40
53.0
 40
53.0
 40
53.0
 40
54.0
 40
54.0
 40
54.0
 40
55.0
 40
55.0
 40
55.0
 40
56.0
 40
56.0
 40
56.0
 40
57.0
 40
57.0
 40
57.0
 40
58.0
 40
58.0
 40
58.0
 40
59.0
 40
59.0
 40
59.0
 40
60.0
 40
60.0
 40
60.0
 40
61.0
 40
61.0
 40
61.0
 40
62.0
 40
62.0
 40
62.0
 40
63.0
 40
63.0
 40
63.0
 40
64.0
 40
64.0
 40
64.0
 40
65.0
 40
65.0
 40
65.0
 40
65.0
 10
108.563864862537
 20
149.6005431160052
 10
108.5765321465369
 20
149.5994685760044
 10
108.5891994302924
 20
149.5983940351948
 10
108.6016520974269
 20
149.5960282946724
 10
108.6147445417519
 20
149.5935410101625
 10
108.6275997503642
 20
149.5896264425197
 10
108.6400374492917
 20
149.5847384854112
 10
108.6533006192985
 20
149.5795261220556
 10
108.6660890216236
 20
149.57320687693
 10
108.6784228008523
 20
149.5661102997733
 10
108.6917286385904
 20
149.5584544221707
 10
108.7045053692134
 20
149.5498938569033
 10
108.7168081525766
 20
149.5407082291358
 10
108.7297704748363
 20
149.5310301698082
 10
108.7422066721514
 20
149.5206582337565
 10
108.7540645234109
 20
149.5096612533236
 10
108.7661680398456
 20
149.4984364428171
 10
108.7776689982058
 20
149.486560420922
 10
108.7884984419804
 20
149.4740983535076
 10
108.7997627533528
 20
149.4611358587926
 10
108.8103005365809
 20
149.4475393070189
 10
108.8201099083724
 20
149.4334550398037
 10
108.8302223210716
 20
149.4189356673437
 10
108.8395606215283
 20
149.4038979799926
 10
108.8488989225272
 20
149.388860292992
 10
108.8606219085266
 20
149.3655341559916
 10
108.8723448945574
 20
149.3422080194298
 10
108.8827683505831
 20
149.3182989839552
 10
108.8938546913099
 20
149.2928694418674
 10
108.90347095776
 20
149.2667805039253
 10
108.9121218549679
 20
149.2403992996211
 10
108.9214044339737
 20
149.2120917602601
 10
108.9295755155494
 20
149.1834477141032
 10
108.9369594357389
 20
149.1545967481176
 10
108.9448955244967
 20
149.123588310736
 10
108.9519223223928
 20
149.0923408495496
 10
108.9578455831645
 20
149.0608913299759
 10
108.9641555420951
 20
149.0273886387093
 10
108.9692131724005
 20
148.9936566452313
 10
108.9736513161936
 20
148.959847536846
 10
108.9784069901815
 20
148.9236195314528
 10
108.9824513634194
 20
148.8873029819341
 10
108.9855056158947
 20
148.8509008756662
 10
108.988751961043
 20
148.8122093130038
 10
108.9908797245635
 20
148.7734210932352
 10
108.9922795015767
 20
148.7346158388577
 10
108.9937722645155
 20
148.693232786405
 10
108.9944371094942
 20
148.6518303609855
 10
108.9951019534925
 20
148.6104279359854
 10
108.9947654344907
 20
148.5660077169854
 10
108.9944289150912
 20
148.521587498384
 10
108.9928439922053
 20
148.4772081852619
 10
108.9913641570471
 20
148.4357714261203
 10
108.9887959799049
 20
148.3943703278461
 10
108.9855056159069
 20
148.3530202819834
 10
108.9824437687316
 20
148.3145420099294
 10
108.9787565635555
 20
148.2761079453185
 10
108.9736513161551
 20
148.2378642264499
 10
108.968908013141
 20
148.2023318550053
 10
108.9629406089511
 20
148.1669637963314
 10
108.9561521117383
 20
148.1317400182728
 10
108.9498338043808
 20
148.0989559352752
 10
108.9428042072401
 20
148.0662968385137
 10
108.9341369832559
 20
148.0340831670708
 10
108.9261455250666
 20
148.0043811299591
 10
108.9167618497512
 20
147.9750577680968
 10
108.9064769501361
 20
147.9460226538765
 10
108.896910924585
 20
147.9190169800337
 10
108.8865652559117
 20
147.8922606672997
 10
108.8743009933331
 20
147.8664294976164
 10
108.8629733601981
 20
147.8425710705993
 10
108.8500089914569
 20
147.8195018749919
 10
108.8370446224565
 20
147.7964326799929
 10
108.8285764774555
 20
147.7829795369933
 10
108.8201083330372
 20
147.7695263938847
 10
108.8105135703056
 20
147.7569183471207
 10
108.8011572877888
 20
147.7446236764941
 10
108.7907296957099
 20
147.7331326141386
 10
108.780031085095
 20
147.7219199382191
 10
108.7693562403442
 20
147.7107321701032
 10
108.758411579799
 20
147.6998215529844
 10
108.7467261475784
 20
147.6897439809291
 10
108.7351313554794
 20
147.6797445773459
 10
108.7228072389875
 20
147.6705653456248
 10
108.7100342670287
 20
147.6620839479036
 10
108.6976548261128
 20
147.6538638592409
 10
108.6848537618381
 20
147.6462992669171
 10
108.6716489153288
 20
147.6395043295146
 10
108.659582592878
 20
147.6332952527419
 10
108.6471791148517
 20
147.627728832892
 10
108.6343925441839
 20
147.6231341058562
 10
108.6220874298323
 20
147.6187123853618
 10
108.6094275290893
 20
147.6151905604773
 10
108.5965716827891
 20
147.6129732770698
 10
108.5844570570861
 20
147.6108838340294
 10
108.5721684294478
 20
147.6099528390043
 10
108.5598798024473
 20
147.6090218440048
 10
108.5483344454478
 20
147.6097463930062
 10
108.5367890890278
 20
147.6104709427852
 10
108.5254458837752
 20
147.6124087870085
 10
108.5141799316079
 20
147.6143334335103
 10
108.503113386477
 20
147.6174549044099
 10
108.4921409461701
 20
147.6208761439312
 10
108.4807915667735
 20
147.6244149141828
 10
108.4695428688744
 20
147.628274402887
 10
108.4588360084495
 20
147.6332949342153
 10
108.4478690244614
 20
147.6384374395365
 10
108.4374705256887
 20
147.6447980879312
 10
108.4272245423764
 20
147.651358629002
 10
108.4163837732157
 20
147.6583000136566
 10
108.405713740711
 20
147.6654651723935
 10
108.3956130761679
 20
147.6733737574619
 10
108.3849192755679
 20
147.6817467542478
 10
108.3748636756932
 20
147.6909530526175
 10
108.3651305902874
 20
147.7004693002362
 10
108.3547435644164
 20
147.7106249195597
 10
108.3447238466919
 20
147.7211335366392
 10
108.3352125954658
 20
147.7320807664036
 10
108.325040365311
 20
147.7437887675978
 10
108.315449728454
 20
147.7559984620159
 10
108.3058590914545
 20
147.7682081560168
 10
108.2913359094557
 20
147.790069832017
 10
108.2768127273022
 20
147.8119315075846
 10
108.2640867966232
 20
147.8348180312578
 10
108.2499840031541
 20
147.8601807276885
 10
108.238088401281
 20
147.8868020327006
 10
108.2273949160876
 20
147.9138466971126
 10
108.2156736219143
 20
147.9434907712057
 10
108.2053966337207
 20
147.9736434985148
 10
108.1963479403408
 20
148.0041651725464
 10
108.1863080013359
 20
148.0380303653109
 10
108.1777802058839
 20
148.0723497653266
 10
108.1703813784886
 20
148.1069024380063
 10
108.1622944054976
 20
148.1446687644491
 10
108.1555561712948
 20
148.1827137736137
 10
108.1500597217891
 20
148.2209295125474
 10
108.1441550363277
 20
148.2619836362822
 10
108.1396834470998
 20
148.3032347927159
 10
108.135947460052
 20
148.344552925362
 10
108.1319213506448
 20
148.3890796649962
 10
108.1287495275121
 20
148.4336841869705
 10
108.1269156129332
 20
148.4783371664564
 10
108.124946516573
 20
148.5262816129304
 10
108.1245198384905
 20
148.5742819240245
 10
108.1240931604926
 20
148.6222822360247
 10
108.1246390934949
 20
148.6653856180246
 10
108.1251850261365
 20
148.7084889996744
 10
108.126915612622
 20
148.7515505537118
 10
108.1285509915443
 20
148.7922430925799
 10
108.1312442632253
 20
148.8328982794999
 10
108.1348184790683
 20
148.8734804944072
 10
108.1381919931399
 20
148.9117839094922
 10
108.14235029436
 20
148.9500223176223
 10
108.1478017600989
 20
148.9880720592577
 10
108.1529475816592
 20
149.0239884880208
 10
108.1592456265129
 20
149.059736812938
 10
108.1664299453229
 20
149.0953252491406
 10
108.1730897477431
 20
149.1283154267474
 10
108.1805111370976
 20
149.1611682098671
 10
108.1895740543559
 20
149.1935465905881
 10
108.1978308723225
 20
149.2230450829672
 10
108.2074501938922
 20
149.2521498111121
 10
108.2177985778944
 20
149.2810426132883
 10
108.2272026612631
 20
149.30729891769
 10
108.2372088223979
 20
149.3333802083914
 10
108.2494100446932
 20
149.358377807522
 10
108.2604439180467
 20
149.3809837675023
 10
108.273272921528
 20
149.4027034800178
 10
108.2861019245294
 20
149.4244231920177
 10
108.2948649755294
 20
149.4364978040169
 10
108.3036280256144
 20
149.4485724159134
 10
108.3131974672844
 20
149.4599860919479
 10
108.3228549825132
 20
149.4715048151828
 10
108.333333801087
 20
149.4823503805585
 10
108.3442444432596
 20
149.4927265392003
 10
108.3550822641694
 20
149.5030334439005
 10
108.3663461636448
 20
149.5128771869105
 10
108.3781138712192
 20
149.5220800433317
 10
108.3902437466124
 20
149.5315661306553
 10
108.4029089181173
 20
149.5403712759702
 10
108.415934732589
 20
149.5486110951348
 10
108.4285495590355
 20
149.5565909330898
 10
108.441502629598
 20
149.5640405562292
 10
108.4548845751516
 20
149.5706262235274
 10
108.467144820974
 20
149.5766598678623
 10
108.4797650568992
 20
149.5819683229028
 10
108.4927054367498
 20
149.5864319567262
 10
108.5045060054805
 20
149.5905024259339
 10
108.5165728042735
 20
149.5938703461087
 10
108.5288328266717
 20
149.5960282944347
 10
108.5403846002124
 20
149.5980615803095
 10
108.552107917537
 20
149.5990206540055
 10
108.5638312355367
 20
149.5999797280049
 10
108.5638312355367
 20
149.5999797280049
 10
108.563864862537
 20
149.6005431160052
 10
108.563864862537
 20
149.6005431160052
 97
        0
 97
        0
 75
     2
 76
     1
 98
        0
  0
ENDBLK
  5
6D
330
6A
100
AcDbEntity
  8
0
100
AcDbBlockEnd
  0
BLOCK
  5
72
330
70
100
AcDbEntity
  8
0
100
AcDbBlockBegin
  2
block 10
 70
     0
 10
0.0
 20
0.0
 30
0.0
  3
block 10
  1

  0
SPLINE
  5
74
330
70
100
AcDbEntity
  8
0
 62
     7
420
 16777215
370
     5
100
AcDbSpline
210
0.0
220
0.0
230
1.0
 70
    11
 71
     3
 72
    86
 73
    82
 74
     0
 42
0.0000000001
 43
0.0000000001
 12
1.0
 22
0.0
 32
0.0
 13
1.0
 23
0.0
 33
0.0
 40
0.0
 40
0.0
 40
0.0
 40
0.0
 40
1.0
 40
1.0
 40
1.0
 40
2.0
 40
2.0
 40
2.0
 40
3.0
 40
3.0
 40
3.0
 40
4.0
 40
4.0
 40
4.0
 40
5.0
 40
5.0
 40
5.0
 40
6.0
 40
6.0
 40
6.0
 40
7.0
 40
7.0
 40
7.0
 40
8.0
 40
8.0
 40
8.0
 40
9.0
 40
9.0
 40
9.0
 40
10.0
 40
10.0
 40
10.0
 40
11.0
 40
11.0
 40
11.0
 40
12.0
 40
12.0
 40
12.0
 40
13.0
 40
13.0
 40
13.0
 40
14.0
 40
14.0
 40
14.0
 40
15.0
 40
15.0
 40
15.0
 40
16.0
 40
16.0
 40
16.0
 40
17.0
 40
17.0
 40
17.0
 40
18.0
 40
18.0
 40
18.0
 40
19.0
 40
19.0
 40
19.0
 40
20.0
 40
20.0
 40
20.0
 40
21.0
 40
21.0
 40
21.0
 40
22.0
 40
22.0
 40
22.0
 40
23.0
 40
23.0
 40
23.0
 40
24.0
 40
24.0
 40
24.0
 40
25.0
 40
25.0
 40
25.0
 40
26.0
 40
26.0
 40
26.0
 40
27.0
 40
27.0
 40
27.0
 40
27.0
 10
104.0462140125157
 20
149.1303236582078
 30
0.0
 10
104.0450835605171
 20
149.1627753772079
 30
0.0
 10
104.0439531077088
 20
149.1952270958807
 30
0.0
 10
104.0400046178465
 20
149.2274160184842
 30
0.0
 10
104.0364731297433
 20
149.2562054547512
 30
0.0
 10
104.0306874017029
 20
149.2847846718541
 30
0.0
 10
104.0225054131686
 20
149.3126540798857
 30
0.0
 10
104.0150437985332
 20
149.3380697575033
 30
0.0
 10
104.0055893003303
 20
149.3628951124759
 30
0.0
 10
103.9937163991614
 20
149.3866023309136
 30
0.0
 10
103.9825877799098
 20
149.4088234042429
 30
0.0
 10
103.9693344610896
 20
149.4300621333375
 30
0.0
 10
103.953637576027
 20
149.4492607730135
 30
0.0
 10
103.9460488369071
 20
149.4585424532563
 30
0.0
 10
103.9378889659022
 20
149.4673473057808
 30
0.0
 10
103.9293644858987
 20
149.4757918250527
 30
0.0
 10
103.9211186977362
 20
149.4839602666507
 30
0.0
 10
103.9125317512767
 20
149.4917915506941
 30
0.0
 10
103.9033979243244
 20
149.4989359340716
 30
0.0
 10
103.8941066883475
 20
149.5062034411316
 30
0.0
 10
103.8842495599787
 20
149.5127601679298
 30
0.0
 10
103.8740444197933
 20
149.518693100466
 30
0.0
 10
103.8639963312471
 20
149.5245347283494
 30
0.0
 10
103.853610859894
 20
149.5297716139539
 30
0.0
 10
103.8429974436698
 20
149.5344988338006
 30
0.0
 10
103.8319471925147
 20
149.5394206201015
 30
0.0
 10
103.8206498464892
 20
149.54378992284
 30
0.0
 10
103.8091280157641
 20
149.5474821148053
 30
0.0
 10
103.7974730124538
 20
149.5512169821727
 30
0.0
 10
103.7855883051381
 20
149.5542589958319
 30
0.0
 10
103.7735651161641
 20
149.5565139624579
 30
0.0
 10
103.7606939257233
 20
149.558927972996
 30
0.0
 10
103.7476640303811
 20
149.5604399996616
 30
0.0
 10
103.7346152735661
 20
149.5615943766034
 30
0.0
 10
103.7210883650994
 20
149.5627910539154
 30
0.0
 10
103.7075411875348
 20
149.563603390223
 30
0.0
 10
103.6939940105359
 20
149.5644157262236
 30
0.0
 10
103.6939940105359
 20
149.5644157262236
 30
0.0
 10
103.2826822195355
 20
149.5644157262422
 30
0.0
 10
103.2826822195355
 20
149.5644157262422
 30
0.0
 10
103.2826822195355
 20
149.5644157262422
 30
0.0
 10
103.2826822194964
 20
148.692843544242
 30
0.0
 10
103.2826822194964
 20
148.692843544242
 30
0.0
 10
103.2826822194964
 20
148.692843544242
 30
0.0
 10
103.7131646364964
 20
148.6928435442225
 30
0.0
 10
103.7131646364964
 20
148.6928435442225
 30
0.0
 10
103.7256114854964
 20
148.6932884792224
 30
0.0
 10
103.7380583353954
 20
148.6937334141496
 30
0.0
 10
103.7504210072909
 20
148.6951015066528
 30
0.0
 10
103.7621941892517
 20
148.6964043643295
 30
0.0
 10
103.7738910295442
 20
148.6985444405986
 30
0.0
 10
103.7854194160577
 20
148.7013109014702
 30
0.0
 10
103.7964849346966
 20
148.7039662881806
 30
0.0
 10
103.8073952549333
 20
148.7071987702264
 30
0.0
 10
103.8181598634366
 20
148.7109072397949
 30
0.0
 10
103.8289421381345
 20
148.7146217954684
 30
0.0
 10
103.8395782224421
 20
148.718813902268
 30
0.0
 10
103.8497713299261
 20
148.7238905204136
 30
0.0
 10
103.8597337686677
 20
148.7288522553288
 30
0.0
 10
103.8692730527519
 20
148.7346589217984
 30
0.0
 10
103.8785603433892
 20
148.740825234534
 30
0.0
 10
103.8881040639373
 20
148.7471618043542
 30
0.0
 10
103.897381683427
 20
148.7538781548934
 30
0.0
 10
103.9062203762786
 20
148.761146891606
 30
0.0
 10
103.915168368921
 20
148.7685055139406
 30
0.0
 10
103.9236665122201
 20
148.7764302685992
 30
0.0
 10
103.9316224472905
 20
148.7848554912925
 30
0.0
 10
103.939880267446
 20
148.7936004060203
 30
0.0
 10
103.9475539509115
 20
148.8028844895129
 30
0.0
 10
103.9547665562442
 20
148.8125155239237
 30
0.0
 10
103.9697133015726
 20
148.8324740010557
 30
0.0
 10
103.9826799636121
 20
148.8539224463004
 30
0.0
 10
103.9937163990805
 20
148.8763029470073
 30
0.0
 10
104.005512110247
 20
148.9002231631717
 30
0.0
 10
104.0151028706676
 20
148.9252080918501
 30
0.0
 10
104.0225054131128
 20
148.9508156888934
 30
0.0
 10
104.0305074872643
 20
148.9784972445098
 30
0.0
 10
104.0359525426711
 20
149.0069064125933
 30
0.0
 10
104.0394401272501
 20
149.0354892589801
 30
0.0
 10
104.0432801268602
 20
149.0669603578218
 30
0.0
 10
104.0447470695147
 20
149.0986420082078
 30
0.0
 10
104.0462140125157
 20
149.1303236582078
 30
0.0
  0
HATCH
  5
75
330
70
100
AcDbEntity
  8
0
 62
     7
420
 16777215
100
AcDbHatch
 10
0.0
 20
0.0
 30
0.0
210
0.0
220
0.0
230
1.0
  2
SOLID
 70
     1
 71
     0
 91
        1
 92
        1
 93
        1
 72
     4
 94
        3
 73
     0
 74
     1
 95
       86
 96
       82
 40
0.0
 40
0.0
 40
0.0
 40
0.0
 40
1.0
 40
1.0
 40
1.0
 40
2.0
 40
2.0
 40
2.0
 40
3.0
 40
3.0
 40
3.0
 40
4.0
 40
4.0
 40
4.0
 40
5.0
 40
5.0
 40
5.0
 40
6.0
 40
6.0
 40
6.0
 40
7.0
 40
7.0
 40
7.0
 40
8.0
 40
8.0
 40
8.0
 40
9.0
 40
9.0
 40
9.0
 40
10.0
 40
10.0
 40
10.0
 40
11.0
 40
11.0
 40
11.0
 40
12.0
 40
12.0
 40
12.0
 40
13.0
 40
13.0
 40
13.0
 40
14.0
 40
14.0
 40
14.0
 40
15.0
 40
15.0
 40
15.0
 40
16.0
 40
16.0
 40
16.0
 40
17.0
 40
17.0
 40
17.0
 40
18.0
 40
18.0
 40
18.0
 40
19.0
 40
19.0
 40
19.0
 40
20.0
 40
20.0
 40
20.0
 40
21.0
 40
21.0
 40
21.0
 40
22.0
 40
22.0
 40
22.0
 40
23.0
 40
23.0
 40
23.0
 40
24.0
 40
24.0
 40
24.0
 40
25.0
 40
25.0
 40
25.0
 40
26.0
 40
26.0
 40
26.0
 40
27.0
 40
27.0
 40
27.0
 40
27.0
 10
104.0462140125157
 20
149.1303236582078
 10
104.0450835605171
 20
149.1627753772079
 10
104.0439531077088
 20
149.1952270958807
 10
104.0400046178465
 20
149.2274160184842
 10
104.0364731297433
 20
149.2562054547512
 10
104.0306874017029
 20
149.2847846718541
 10
104.0225054131686
 20
149.3126540798857
 10
104.0150437985332
 20
149.3380697575033
 10
104.0055893003303
 20
149.3628951124759
 10
103.9937163991614
 20
149.3866023309136
 10
103.9825877799098
 20
149.4088234042429
 10
103.9693344610896
 20
149.4300621333375
 10
103.953637576027
 20
149.4492607730135
 10
103.9460488369071
 20
149.4585424532563
 10
103.9378889659022
 20
149.4673473057808
 10
103.9293644858987
 20
149.4757918250527
 10
103.9211186977362
 20
149.4839602666507
 10
103.9125317512767
 20
149.4917915506941
 10
103.9033979243244
 20
149.4989359340716
 10
103.8941066883475
 20
149.5062034411316
 10
103.8842495599787
 20
149.5127601679298
 10
103.8740444197933
 20
149.518693100466
 10
103.8639963312471
 20
149.5245347283494
 10
103.853610859894
 20
149.5297716139539
 10
103.8429974436698
 20
149.5344988338006
 10
103.8319471925147
 20
149.5394206201015
 10
103.8206498464892
 20
149.54378992284
 10
103.8091280157641
 20
149.5474821148053
 10
103.7974730124538
 20
149.5512169821727
 10
103.7855883051381
 20
149.5542589958319
 10
103.7735651161641
 20
149.5565139624579
 10
103.7606939257233
 20
149.558927972996
 10
103.7476640303811
 20
149.5604399996616
 10
103.7346152735661
 20
149.5615943766034
 10
103.7210883650994
 20
149.5627910539154
 10
103.7075411875348
 20
149.563603390223
 10
103.6939940105359
 20
149.5644157262236
 10
103.6939940105359
 20
149.5644157262236
 10
103.2826822195355
 20
149.5644157262422
 10
103.2826822195355
 20
149.5644157262422
 10
103.2826822195355
 20
149.5644157262422
 10
103.2826822194964
 20
148.692843544242
 10
103.2826822194964
 20
148.692843544242
 10
103.2826822194964
 20
148.692843544242
 10
103.7131646364964
 20
148.6928435442225
 10
103.7131646364964
 20
148.6928435442225
 10
103.7256114854964
 20
148.6932884792224
 10
103.7380583353954
 20
148.6937334141496
 10
103.7504210072909
 20
148.6951015066528
 10
103.7621941892517
 20
148.6964043643295
 10
103.7738910295442
 20
148.6985444405986
 10
103.7854194160577
 20
148.7013109014702
 10
103.7964849346966
 20
148.7039662881806
 10
103.8073952549333
 20
148.7071987702264
 10
103.8181598634366
 20
148.7109072397949
 10
103.8289421381345
 20
148.7146217954684
 10
103.8395782224421
 20
148.718813902268
 10
103.8497713299261
 20
148.7238905204136
 10
103.8597337686677
 20
148.7288522553288
 10
103.8692730527519
 20
148.7346589217984
 10
103.8785603433892
 20
148.740825234534
 10
103.8881040639373
 20
148.7471618043542
 10
103.897381683427
 20
148.7538781548934
 10
103.9062203762786
 20
148.761146891606
 10
103.915168368921
 20
148.7685055139406
 10
103.9236665122201
 20
148.7764302685992
 10
103.9316224472905
 20
148.7848554912925
 10
103.939880267446
 20
148.7936004060203
 10
103.9475539509115
 20
148.8028844895129
 10
103.9547665562442
 20
148.8125155239237
 10
103.9697133015726
 20
148.8324740010557
 10
103.9826799636121
 20
148.8539224463004
 10
103.9937163990805
 20
148.8763029470073
 10
104.005512110247
 20
148.9002231631717
 10
104.0151028706676
 20
148.9252080918501
 10
104.0225054131128
 20
148.9508156888934
 10
104.0305074872643
 20
148.9784972445098
 10
104.0359525426711
 20
149.0069064125933
 10
104.0394401272501
 20
149.0354892589801
 10
104.0432801268602
 20
149.0669603578218
 10
104.0447470695147
 20
149.0986420082078
 10
104.0462140125157
 20
149.1303236582078
 97
        0
 97
        0
 75
     2
 76
     1
 98
        0
  0
ENDBLK
  5
73
330
70
100
AcDbEntity
  8
0
100
AcDbBlockEnd
  0
BLOCK
  5
78
330
76
100
AcDbEntity
  8
0
100
AcDbBlockBegin
  2
block 11
 70
     0
 10
0.0
 20
0.0
 30
0.0
  3
block 11
  1

  0
POLYLINE
  5
7A
330
76
100
AcDbEntity
  8
0
 62
     7
420
 16777215
370
     5
100
AcDb2dPolyline
 66
     1
 10
0.0
 20
0.0
 30
0.0
  0
VERTEX
  5
7B
330
7A
100
AcDbEntity
  8
0
 62
     7
420
 16777215
370
     5
100
AcDbVertex
100
AcDb2dVertex
 10
99.47269569546671
 20
148.0425505244131
 30
0.0
  0
VERTEX
  5
7C
330
7A
100
AcDbEntity
  8
0
 62
     7
420
 16777215
370
     5
100
AcDbVertex
100
AcDb2dVertex
 10
100.1438087114669
 20
148.0425505243836
 30
0.0
  0
VERTEX
  5
7D
330
7A
100
AcDbEntity
  8
0
 62
     7
420
 16777215
370
     5
100
AcDbVertex
100
AcDb2dVertex
 10
99.80825220351748
 20
149.1661103693982
 30
0.0
  0
VERTEX
  5
7E
330
7A
100
AcDbEntity
  8
0
 62
     7
420
 16777215
370
     5
100
AcDbVertex
100
AcDb2dVertex
 10
99.47269569546671
 20
148.0425505244131
 30
0.0
  0
SEQEND
  5
80
330
7A
100
AcDbEntity
  8
0
 62
     7
420
 16777215
370
     5
  0
HATCH
  5
7F
330
76
100
AcDbEntity
  8
0
 62
     7
420
 16777215
100
AcDbHatch
 10
0.0
 20
0.0
 30
0.0
210
0.0
220
0.0
230
1.0
  2
SOLID
 70
     1
 71
     0
 91
        1
 92
        1
 93
        3
 72
     1
 10
99.47269569546671
 20
148.0425505244131
 11
100.1438087114669
 21
148.0425505243836
 72
     1
 10
100.1438087114669
 20
148.0425505243836
 11
99.80825220351748
 21
149.1661103693982
 72
     1
 10
99.80825220351748
 20
149.1661103693982
 11
99.47269569546671
 21
148.0425505244131
 97
        0
 75
     2
 76
     1
 98
        0
  0
ENDBLK
  5
79
330
76
100
AcDbEntity
  8
0
100
AcDbBlockEnd
  0
ENDSEC
  0
SECTION
  2
ENTITIES
  0
INSERT
  5
41
330
1F
100
AcDbEntity
  8
0
100
AcDbBlockReference
  2
block 2
 10
0.0
 20
0.0
 30
0.0
  0
INSERT
  5
4D
330
1F
100
AcDbEntity
  8
0
100
AcDbBlockReference
  2
block 3
 10
0.0
 20
0.0
 30
0.0
  0
INSERT
  5
52
330
1F
100
AcDbEntity
  8
0
100
AcDbBlockReference
  2
block 4
 10
0.0
 20
0.0
 30
0.0
  0
INSERT
  5
57
330
1F
100
AcDbEntity
  8
0
100
AcDbBlockReference
  2
block 5
 10
0.0
 20
0.0
 30
0.0
  0
INSERT
  5
5C
330
1F
100
AcDbEntity
  8
0
100
AcDbBlockReference
  2
block 6
 10
0.0
 20
0.0
 30
0.0
  0
INSERT
  5
61
330
1F
100
AcDbEntity
  8
0
100
AcDbBlockReference
  2
block 7
 10
0.0
 20
0.0
 30
0.0
  0
INSERT
  5
66
330
1F
100
AcDbEntity
  8
0
100
AcDbBlockReference
  2
block 8
 10
0.0
 20
0.0
 30
0.0
  0
INSERT
  5
6B
330
1F
100
AcDbEntity
  8
0
100
AcDbBlockReference
  2
block 9
 10
0.0
 20
0.0
 30
0.0
  0
INSERT
  5
71
330
1F
100
AcDbEntity
  8
0
100
AcDbBlockReference
  2
block 10
 10
0.0
 20
0.0
 30
0.0
  0
INSERT
  5
77
330
1F
100
AcDbEntity
  8
0
100
AcDbBlockReference
  2
block 11
 10
0.0
 20
0.0
 30
0.0
  0
ENDSEC
  0
SECTION
  2
OBJECTS
  0
DICTIONARY
  5
C
330
0
100
AcDbDictionary
281
     1
  3
ACAD_GROUP
350
D
  3
ACAD_LAYOUT
350
1A
  3
ACAD_MATERIAL
350
3B
  3
ACAD_MLEADERSTYLE
350
82
  3
ACAD_MLINESTYLE
350
17
  3
ACAD_PLOTSETTINGS
350
19
  3
ACAD_PLOTSTYLENAME
350
E
  3
ACAD_TABLESTYLE
350
81
  3
ACAD_VISUALSTYLE
350
2A
  0
SUN
  5
3F
330
29
100
AcDbSun
 90
        1
290
     0
 63
     7
421
 16777215
 40
1.0
291
     1
 91
  2455826
 92
 54000000
292
     0
 70
     2
 71
   256
280
     1
  0
DICTIONARY
  5
D
102
{ACAD_REACTORS
330
C
102
}
330
C
100
AcDbDictionary
281
     1
  0
DICTIONARY
  5
1A
102
{ACAD_REACTORS
330
C
102
}
330
C
100
AcDbDictionary
281
     1
  3
Layout1
350
1E
  3
Layout2
350
26
  3
Model
350
22
  0
DICTIONARY
  5
3B
102
{ACAD_REACTORS
330
C
102
}
330
C
100
AcDbDictionary
281
     1
  3
ByBlock
350
3D
  3
ByLayer
350
3C
  3
Global
350
3E
  0
DICTIONARY
  5
82
102
{ACAD_REACTORS
330
C
102
}
330
C
100
AcDbDictionary
281
     1
  0
DICTIONARY
  5
17
102
{ACAD_REACTORS
330
C
102
}
330
C
100
AcDbDictionary
281
     1
  3
Standard
350
18
  0
DICTIONARY
  5
19
102
{ACAD_REACTORS
330
C
102
}
330
C
100
AcDbDictionary
281
     1
  0
ACDBDICTIONARYWDFLT
  5
E
102
{ACAD_REACTORS
330
C
102
}
330
C
100
AcDbDictionary
281
     1
  3
Normal
350
F
100
AcDbDictionaryWithDefault
340
F
  0
DICTIONARY
  5
81
102
{ACAD_REACTORS
330
C
102
}
330
C
100
AcDbDictionary
281
     1
  0
DICTIONARY
  5
2A
102
{ACAD_REACTORS
330
C
102
}
330
C
100
AcDbDictionary
281
     1
  3
2dWireframe
350
2F
  3
3D Hidden
350
31
  3
3dWireframe
350
30
  3
Basic
350
32
  3
Brighten
350
36
  3
ColorChange
350
3A
  3
Conceptual
350
34
  3
Dim
350
35
  3
Facepattern
350
39
  3
Flat
350
2B
  3
FlatWithEdges
350
2C
  3
Gouraud
350
2D
  3
GouraudWithEdges
350
2E
  3
Linepattern
350
38
  3
Realistic
350
33
  3
Thicken
350
37
  0
LAYOUT
  5
1E
102
{ACAD_REACTORS
330
1A
102
}
330
1A
100
AcDbPlotSettings
  1

  2
none_device
  4

  6

 40
0.0
 41
0.0
 42
0.0
 43
0.0
 44
0.0
 45
0.0
 46
0.0
 47
0.0
 48
0.0
 49
0.0
140
0.0
141
0.0
142
1.0
143
1.0
 70
   688
 72
     0
 73
     0
 74
     5
  7

 75
    16
 76
     0
 77
     2
 78
   300
147
1.0
148
0.0
149
0.0
100
AcDbLayout
  1
Layout1
 70
     1
 71
     1
 10
0.0
 20
0.0
 11
12.0
 21
9.0
 12
0.0
 22
0.0
 32
0.0
 14
1.000000000000000E+20
 24
1.000000000000000E+20
 34
1.000000000000000E+20
 15
-1.000000000000000E+20
 25
-1.000000000000000E+20
 35
-1.000000000000000E+20
146
0.0
 13
0.0
 23
0.0
 33
0.0
 16
1.0
 26
0.0
 36
0.0
 17
0.0
 27
1.0
 37
0.0
 76
     0
330
1B
  0
LAYOUT
  5
26
102
{ACAD_REACTORS
330
1A
102
}
330
1A
100
AcDbPlotSettings
  1

  2
none_device
  4

  6

 40
0.0
 41
0.0
 42
0.0
 43
0.0
 44
0.0
 45
0.0
 46
0.0
 47
0.0
 48
0.0
 49
0.0
140
0.0
141
0.0
142
1.0
143
1.0
 70
   688
 72
     0
 73
     0
 74
     5
  7

 75
    16
 76
     0
 77
     2
 78
   300
147
1.0
148
0.0
149
0.0
100
AcDbLayout
  1
Layout2
 70
     1
 71
     2
 10
0.0
 20
0.0
 11
0.0
 21
0.0
 12
0.0
 22
0.0
 32
0.0
 14
0.0
 24
0.0
 34
0.0
 15
0.0
 25
0.0
 35
0.0
146
0.0
 13
0.0
 23
0.0
 33
0.0
 16
1.0
 26
0.0
 36
0.0
 17
0.0
 27
1.0
 37
0.0
 76
     0
330
23
  0
LAYOUT
  5
22
102
{ACAD_REACTORS
330
1A
102
}
330
1A
100
AcDbPlotSettings
  1

  2
none_device
  4

  6

 40
0.0
 41
0.0
 42
0.0
 43
0.0
 44
0.0
 45
0.0
 46
0.0
 47
0.0
 48
0.0
 49
0.0
140
0.0
141
0.0
142
1.0
143
1.0
 70
  1712
 72
     0
 73
     0
 74
     0
  7

 75
     0
 76
     0
 77
     2
 78
   300
147
1.0
148
0.0
149
0.0
100
AcDbLayout
  1
Model
 70
     1
 71
     0
 10
0.0
 20
0.0
 11
12.0
 21
9.0
 12
0.0
 22
0.0
 32
0.0
 14
1.000000000000000E+20
 24
1.000000000000000E+20
 34
1.000000000000000E+20
 15
-1.000000000000000E+20
 25
-1.000000000000000E+20
 35
-1.000000000000000E+20
146
0.0
 13
0.0
 23
0.0
 33
0.0
 16
1.0
 26
0.0
 36
0.0
 17
0.0
 27
1.0
 37
0.0
 76
     0
330
1F
331
29
  0
MATERIAL
  5
3D
102
{ACAD_REACTORS
330
3B
102
}
330
3B
100
AcDbMaterial
  1
ByBlock
 72
     1
 94
      127
  0
MATERIAL
  5
3C
102
{ACAD_REACTORS
330
3B
102
}
330
3B
100
AcDbMaterial
  1
ByLayer
 72
     1
 94
      127
  0
MATERIAL
  5
3E
102
{ACAD_REACTORS
330
3B
102
}
330
3B
100
AcDbMaterial
  1
Global
 72
     1
 94
      127
  0
MLINESTYLE
  5
18
102
{ACAD_REACTORS
330
17
102
}
330
17
100
AcDbMlineStyle
  2
Standard
 70
     0
  3

 62
   256
 51
90.0
 52
90.0
 71
     2
 49
0.5
 62
   256
  6
BYLAYER
 49
-0.5
 62
   256
  6
BYLAYER
  0
ACDBPLACEHOLDER
  5
F
102
{ACAD_REACTORS
330
E
102
}
330
E
  0
VISUALSTYLE
  5
2F
102
{ACAD_REACTORS
330
2A
102
}
330
2A
100
AcDbVisualStyle
  2
2dWireframe
 70
     4
177
     2
291
     0
 71
     0
176
     1
 72
     2
176
     1
 73
     0
176
     1
 90
        0
176
     1
 40
-0.6
176
     1
 41
-30.0
176
     1
 62
     5
 63
     7
421
 16777215
176
     1
 74
     1
176
     1
 91
        4
176
     1
 64
     7
176
     1
 65
   257
176
     1
 75
     1
176
     1
175
     1
176
     1
 42
1.0
176
     1
 92
        0
176
     1
 66
   257
176
     1
 43
1.0
176
     1
 76
     1
176
     1
 77
     6
176
     1
 78
     2
176
     1
 67
     7
176
     1
 79
     5
176
     1
170
     0
176
     1
171
     0
176
     1
290
     0
176
     1
 93
        1
176
     1
 44
0.0
176
     1
173
     0
176
     1
  0
VISUALSTYLE
  5
31
102
{ACAD_REACTORS
330
2A
102
}
330
2A
100
AcDbVisualStyle
  2
3D Hidden
 70
     6
177
     2
291
     0
 71
     1
176
     1
 72
     2
176
     1
 73
     2
176
     1
 90
        0
176
     1
 40
-0.6
176
     1
 41
-30.0
176
     1
 62
     5
 63
     7
421
 16777215
176
     1
 74
     2
176
     1
 91
        2
176
     1
 64
     7
176
     1
 65
   257
176
     1
 75
     2
176
     1
175
     1
176
     1
 42
40.0
176
     1
 92
        0
176
     1
 66
   257
176
     1
 43
1.0
176
     1
 76
     1
176
     1
 77
     6
176
     1
 78
     2
176
     1
 67
     7
176
     1
 79
     3
176
     1
170
     0
176
     1
171
     0
176
     1
290
     0
176
     1
 93
        1
176
     1
 44
0.0
176
     1
173
     0
176
     1
  0
VISUALSTYLE
  5
30
102
{ACAD_REACTORS
330
2A
102
}
330
2A
100
AcDbVisualStyle
  2
3dWireframe
 70
     5
177
     2
291
     0
 71
     0
176
     1
 72
     2
176
     1
 73
     0
176
     1
 90
        0
176
     1
 40
-0.6
176
     1
 41
-30.0
176
     1
 62
     5
 63
     7
421
 16777215
176
     1
 74
     1
176
     1
 91
        4
176
     1
 64
     7
176
     1
 65
   257
176
     1
 75
     1
176
     1
175
     1
176
     1
 42
1.0
176
     1
 92
        0
176
     1
 66
   257
176
     1
 43
1.0
176
     1
 76
     1
176
     1
 77
     6
176
     1
 78
     2
176
     1
 67
     7
176
     1
 79
     5
176
     1
170
     0
176
     1
171
     0
176
     1
290
     0
176
     1
 93
        1
176
     1
 44
0.0
176
     1
173
     0
176
     1
  0
VISUALSTYLE
  5
32
102
{ACAD_REACTORS
330
2A
102
}
330
2A
100
AcDbVisualStyle
  2
Basic
 70
     7
177
     2
291
     1
 71
     1
176
     1
 72
     0
176
     1
 73
     1
176
     1
 90
        0
176
     1
 40
-0.6
176
     1
 41
-30.0
176
     1
 62
     5
 63
     7
421
 16777215
176
     1
 74
     0
176
     1
 91
        4
176
     1
 64
     7
176
     1
 65
   257
176
     1
 75
     1
176
     1
175
     1
176
     1
 42
1.0
176
     1
 92
        8
176
     1
 66
     7
176
     1
 43
1.0
176
     1
 76
     1
176
     1
 77
     6
176
     1
 78
     2
176
     1
 67
     7
176
     1
 79
     5
176
     1
170
     0
176
     1
171
     0
176
     1
290
     0
176
     1
 93
        1
176
     1
 44
0.0
176
     1
173
     0
176
     1
  0
VISUALSTYLE
  5
36
102
{ACAD_REACTORS
330
2A
102
}
330
2A
100
AcDbVisualStyle
  2
Brighten
 70
    12
177
     2
291
     1
 71
     2
176
     1
 72
     2
176
     1
 73
     0
176
     1
 90
        0
176
     1
 40
-0.6
176
     1
 41
-30.0
176
     1
 62
     5
 63
     7
421
 16777215
176
     1
 74
     1
176
     1
 91
        4
176
     1
 64
     7
176
     1
 65
   257
176
     1
 75
     1
176
     1
175
     1
176
     1
 42
1.0
176
     1
 92
        8
176
     1
 66
     7
176
     1
 43
1.0
176
     1
 76
     1
176
     1
 77
     6
176
     1
 78
     2
176
     1
 67
     7
176
     1
 79
     5
176
     1
170
     0
176
     1
171
     0
176
     1
290
     0
176
     1
 93
        1
176
     1
 44
50.0
176
     1
173
     0
176
     1
  0
VISUALSTYLE
  5
3A
102
{ACAD_REACTORS
330
2A
102
}
330
2A
100
AcDbVisualStyle
  2
ColorChange
 70
    16
177
     2
291
     1
 71
     2
176
     1
 72
     2
176
     1
 73
     3
176
     1
 90
        0
176
     1
 40
-0.6
176
     1
 41
-30.0
176
     1
 62
     5
 63
     8
421
  8421504
176
     1
 74
     1
176
     1
 91
        4
176
     1
 64
     7
176
     1
 65
   257
176
     1
 75
     1
176
     1
175
     1
176
     1
 42
1.0
176
     1
 92
        8
176
     1
 66
     8
424
  8421504
176
     1
 43
1.0
176
     1
 76
     1
176
     1
 77
     6
176
     1
 78
     2
176
     1
 67
     7
176
     1
 79
     5
176
     1
170
     0
176
     1
171
     0
176
     1
290
     0
176
     1
 93
        1
176
     1
 44
0.0
176
     1
173
     0
176
     1
  0
VISUALSTYLE
  5
34
102
{ACAD_REACTORS
330
2A
102
}
330
2A
100
AcDbVisualStyle
  2
Conceptual
 70
     9
177
     2
291
     0
 71
     3
176
     1
 72
     2
176
     1
 73
     0
176
     1
 90
        0
176
     1
 40
-0.6
176
     1
 41
-30.0
176
     1
 62
     5
 63
     7
421
 16777215
176
     1
 74
     2
176
     1
 91
        2
176
     1
 64
     7
176
     1
 65
   257
176
     1
 75
     1
176
     1
175
     1
176
     1
 42
40.0
176
     1
 92
        8
176
     1
 66
     7
176
     1
 43
1.0
176
     1
 76
     1
176
     1
 77
     6
176
     1
 78
     2
176
     1
 67
     7
176
     1
 79
     3
176
     1
170
     0
176
     1
171
     0
176
     1
290
     0
176
     1
 93
        1
176
     1
 44
0.0
176
     1
173
     0
176
     1
  0
VISUALSTYLE
  5
35
102
{ACAD_REACTORS
330
2A
102
}
330
2A
100
AcDbVisualStyle
  2
Dim
 70
    11
177
     2
291
     1
 71
     2
176
     1
 72
     2
176
     1
 73
     0
176
     1
 90
        0
176
     1
 40
-0.6
176
     1
 41
-30.0
176
     1
 62
     5
 63
     7
421
 16777215
176
     1
 74
     1
176
     1
 91
        4
176
     1
 64
     7
176
     1
 65
   257
176
     1
 75
     1
176
     1
175
     1
176
     1
 42
1.0
176
     1
 92
        8
176
     1
 66
     7
176
     1
 43
1.0
176
     1
 76
     1
176
     1
 77
     6
176
     1
 78
     2
176
     1
 67
     7
176
     1
 79
     5
176
     1
170
     0
176
     1
171
     0
176
     1
290
     0
176
     1
 93
        1
176
     1
 44
-50.0
176
     1
173
     0
176
     1
  0
VISUALSTYLE
  5
39
102
{ACAD_REACTORS
330
2A
102
}
330
2A
100
AcDbVisualStyle
  2
Facepattern
 70
    15
177
     2
291
     1
 71
     2
176
     1
 72
     2
176
     1
 73
     0
176
     1
 90
        0
176
     1
 40
-0.6
176
     1
 41
-30.0
176
     1
 62
     5
 63
     7
421
 16777215
176
     1
 74
     1
176
     1
 91
        4
176
     1
 64
     7
176
     1
 65
   257
176
     1
 75
     1
176
     1
175
     1
176
     1
 42
1.0
176
     1
 92
        8
176
     1
 66
     7
176
     1
 43
1.0
176
     1
 76
     1
176
     1
 77
     6
176
     1
 78
     2
176
     1
 67
     7
176
     1
 79
     5
176
     1
170
     0
176
     1
171
     0
176
     1
290
     0
176
     1
 93
        1
176
     1
 44
0.0
176
     1
173
     0
176
     1
  0
VISUALSTYLE
  5
2B
102
{ACAD_REACTORS
330
2A
102
}
330
2A
100
AcDbVisualStyle
  2
Flat
 70
     0
177
     2
291
     1
 71
     2
176
     1
 72
     1
176
     1
 73
     1
176
     1
 90
        2
176
     1
 40
-0.6
176
     1
 41
30.0
176
     1
 62
     5
 63
     7
421
 16777215
176
     1
 74
     0
176
     1
 91
        4
176
     1
 64
     7
176
     1
 65
   257
176
     1
 75
     1
176
     1
175
     1
176
     1
 42
1.0
176
     1
 92
        8
176
     1
 66
     7
176
     1
 43
1.0
176
     1
 76
     1
176
     1
 77
     6
176
     1
 78
     2
176
     1
 67
     7
176
     1
 79
     5
176
     1
170
     0
176
     1
171
     0
176
     1
290
     0
176
     1
 93
       13
176
     1
 44
0.0
176
     1
173
     0
176
     1
  0
VISUALSTYLE
  5
2C
102
{ACAD_REACTORS
330
2A
102
}
330
2A
100
AcDbVisualStyle
  2
FlatWithEdges
 70
     1
177
     2
291
     1
 71
     2
176
     1
 72
     1
176
     1
 73
     1
176
     1
 90
        2
176
     1
 40
-0.6
176
     1
 41
30.0
176
     1
 62
     5
 63
     7
421
 16777215
176
     1
 74
     1
176
     1
 91
        4
176
     1
 64
     7
176
     1
 65
   257
176
     1
 75
     1
176
     1
175
     1
176
     1
 42
1.0
176
     1
 92
        0
176
     1
 66
   257
176
     1
 43
1.0
176
     1
 76
     1
176
     1
 77
     6
176
     1
 78
     2
176
     1
 67
     7
176
     1
 79
     5
176
     1
170
     0
176
     1
171
     0
176
     1
290
     0
176
     1
 93
       13
176
     1
 44
0.0
176
     1
173
     0
176
     1
  0
VISUALSTYLE
  5
2D
102
{ACAD_REACTORS
330
2A
102
}
330
2A
100
AcDbVisualStyle
  2
Gouraud
 70
     2
177
     2
291
     1
 71
     2
176
     1
 72
     2
176
     1
 73
     1
176
     1
 90
        2
176
     1
 40
-0.6
176
     1
 41
30.0
176
     1
 62
     5
 63
     7
421
 16777215
176
     1
 74
     0
176
     1
 91
        4
176
     1
 64
     7
176
     1
 65
   257
176
     1
 75
     1
176
     1
175
     1
176
     1
 42
1.0
176
     1
 92
        0
176
     1
 66
     7
176
     1
 43
1.0
176
     1
 76
     1
176
     1
 77
     6
176
     1
 78
     2
176
     1
 67
     7
176
     1
 79
     5
176
     1
170
     0
176
     1
171
     0
176
     1
290
     0
176
     1
 93
       13
176
     1
 44
0.0
176
     1
173
     0
176
     1
  0
VISUALSTYLE
  5
2E
102
{ACAD_REACTORS
330
2A
102
}
330
2A
100
AcDbVisualStyle
  2
GouraudWithEdges
 70
     3
177
     2
291
     1
 71
     2
176
     1
 72
     2
176
     1
 73
     1
176
     1
 90
        2
176
     1
 40
-0.6
176
     1
 41
30.0
176
     1
 62
     5
 63
     7
421
 16777215
176
     1
 74
     1
176
     1
 91
        4
176
     1
 64
     7
176
     1
 65
   257
176
     1
 75
     1
176
     1
175
     1
176
     1
 42
1.0
176
     1
 92
        0
176
     1
 66
   257
176
     1
 43
1.0
176
     1
 76
     1
176
     1
 77
     6
176
     1
 78
     2
176
     1
 67
     7
176
     1
 79
     5
176
     1
170
     0
176
     1
171
     0
176
     1
290
     0
176
     1
 93
       13
176
     1
 44
0.0
176
     1
173
     0
176
     1
  0
VISUALSTYLE
  5
38
102
{ACAD_REACTORS
330
2A
102
}
330
2A
100
AcDbVisualStyle
  2
Linepattern
 70
    14
177
     2
291
     1
 71
     2
176
     1
 72
     2
176
     1
 73
     0
176
     1
 90
        0
176
     1
 40
-0.6
176
     1
 41
-30.0
176
     1
 62
     5
 63
     7
421
 16777215
176
     1
 74
     1
176
     1
 91
        4
176
     1
 64
     7
176
     1
 65
   257
176
     1
 75
     7
176
     1
175
     7
176
     1
 42
1.0
176
     1
 92
        8
176
     1
 66
     7
176
     1
 43
1.0
176
     1
 76
     1
176
     1
 77
     6
176
     1
 78
     2
176
     1
 67
     7
176
     1
 79
     5
176
     1
170
     0
176
     1
171
     0
176
     1
290
     0
176
     1
 93
        1
176
     1
 44
0.0
176
     1
173
     0
176
     1
  0
VISUALSTYLE
  5
33
102
{ACAD_REACTORS
330
2A
102
}
330
2A
100
AcDbVisualStyle
  2
Realistic
 70
     8
177
     2
291
     0
 71
     2
176
     1
 72
     2
176
     1
 73
     0
176
     1
 90
        0
176
     1
 40
-0.6
176
     1
 41
-30.0
176
     1
 62
     5
 63
     7
421
 16777215
176
     1
 74
     1
176
     1
 91
        0
176
     1
 64
     7
176
     1
 65
   257
176
     1
 75
     1
176
     1
175
     1
176
     1
 42
1.0
176
     1
 92
        8
176
     1
 66
     8
424
  7895160
176
     1
 43
1.0
176
     1
 76
     1
176
     1
 77
     6
176
     1
 78
     2
176
     1
 67
     7
176
     1
 79
     5
176
     1
170
     0
176
     1
171
     0
176
     1
290
     0
176
     1
 93
       13
176
     1
 44
0.0
176
     1
173
     0
176
     1
  0
VISUALSTYLE
  5
37
102
{ACAD_REACTORS
330
2A
102
}
330
2A
100
AcDbVisualStyle
  2
Thicken
 70
    13
177
     2
291
     1
 71
     2
176
     1
 72
     2
176
     1
 73
     0
176
     1
 90
        0
176
     1
 40
-0.6
176
     1
 41
-30.0
176
     1
 62
     5
 63
     7
421
 16777215
176
     1
 74
     1
176
     1
 91
        4
176
     1
 64
     7
176
     1
 65
   257
176
     1
 75
     1
176
     1
175
     1
176
     1
 42
1.0
176
     1
 92
       12
176
     1
 66
     7
176
     1
 43
1.0
176
     1
 76
     1
176
     1
 77
     6
176
     1
 78
     2
176
     1
 67
     7
176
     1
 79
     5
176
     1
170
     0
176
     1
171
     0
176
     1
290
     0
176
     1
 93
        1
176
     1
 44
0.0
176
     1
173
     0
176
     1
  0
ENDSEC
  0
EOF
