  0
SECTION
  2
HEADER
  9
$ACADVER
  1
AC1024
  9
$ACADMAINTVER
 70
     6
  9
$DWGCODEPAGE
  3
UNDEFINED
  9
$INSBASE
 10
0.0
 20
0.0
 30
0.0
  9
$EXTMIN
 10
1.000000000000000E+20
 20
1.000000000000000E+20
 30
1.000000000000000E+20
  9
$EXTMAX
 10
-1.000000000000000E+20
 20
-1.000000000000000E+20
 30
-1.000000000000000E+20
  9
$LIMMIN
 10
0.0
 20
0.0
  9
$LIMMAX
 10
12.0
 20
9.0
  9
$ORTHOMODE
 70
     0
  9
$REGENMODE
 70
     1
  9
$FILLMODE
 70
     1
  9
$QTEXTMODE
 70
     0
  9
$MIRRTEXT
 70
     1
  9
$LTSCALE
 40
1.0
  9
$ATTMODE
 70
     1
  9
$TEXTSIZE
 40
0.2
  9
$TRACEWID
 40
0.05
  9
$TEXTSTYLE
  7
Standard
  9
$CLAYER
  8
0
  9
$CELTYPE
  6
ByLayer
  9
$CECOLOR
 62
   256
  9
$CELTSCALE
 40
1.0
  9
$DISPSILH
 70
     0
  9
$DIMSCALE
 40
1.0
  9
$DIMASZ
 40
0.18
  9
$DIMEXO
 40
0.0625
  9
$DIMDLI
 40
0.38
  9
$DIMRND
 40
0.0
  9
$DIMDLE
 40
0.0
  9
$DIMEXE
 40
0.18
  9
$DIMTP
 40
0.0
  9
$DIMTM
 40
0.0
  9
$DIMTXT
 40
0.18
  9
$DIMCEN
 40
0.09
  9
$DIMTSZ
 40
0.0
  9
$DIMTOL
 70
     0
  9
$DIMLIM
 70
     0
  9
$DIMTIH
 70
     1
  9
$DIMTOH
 70
     1
  9
$DIMSE1
 70
     0
  9
$DIMSE2
 70
     0
  9
$DIMTAD
 70
     0
  9
$DIMZIN
 70
     0
  9
$DIMBLK
  1

  9
$DIMASO
 70
     1
  9
$DIMSHO
 70
     1
  9
$DIMPOST
  1

  9
$DIMAPOST
  1

  9
$DIMALT
 70
     0
  9
$DIMALTD
 70
     2
  9
$DIMALTF
 40
25.4
  9
$DIMLFAC
 40
1.0
  9
$DIMTOFL
 70
     0
  9
$DIMTVP
 40
0.0
  9
$DIMTIX
 70
     0
  9
$DIMSOXD
 70
     0
  9
$DIMSAH
 70
     0
  9
$DIMBLK1
  1

  9
$DIMBLK2
  1

  9
$DIMSTYLE
  2
Standard
  9
$DIMCLRD
 70
     0
  9
$DIMCLRE
 70
     0
  9
$DIMCLRT
 70
     0
  9
$DIMTFAC
 40
1.0
  9
$DIMGAP
 40
0.09
  9
$DIMJUST
 70
     0
  9
$DIMSD1
 70
     0
  9
$DIMSD2
 70
     0
  9
$DIMTOLJ
 70
     1
  9
$DIMTZIN
 70
     0
  9
$DIMALTZ
 70
     0
  9
$DIMALTTZ
 70
     0
  9
$DIMUPT
 70
     0
  9
$DIMDEC
 70
     4
  9
$DIMTDEC
 70
     4
  9
$DIMALTU
 70
     2
  9
$DIMALTTD
 70
     2
  9
$DIMTXSTY
  7
Standard
  9
$DIMAUNIT
 70
     0
  9
$DIMADEC
 70
     0
  9
$DIMALTRND
 40
0.0
  9
$DIMAZIN
 70
     0
  9
$DIMDSEP
 70
    46
  9
$DIMATFIT
 70
     3
  9
$DIMFRAC
 70
     0
  9
$DIMLDRBLK
  1

  9
$DIMLUNIT
 70
     2
  9
$DIMLWD
 70
    -2
  9
$DIMLWE
 70
    -2
  9
$DIMTMOVE
 70
     0
  9
$DIMFXL
 40
1.0
  9
$DIMFXLON
 70
     0
  9
$DIMJOGANG
 40
0.7853981633974483
  9
$DIMTFILL
 70
     0
  9
$DIMTFILLCLR
 70
     0
  9
$DIMARCSYM
 70
     0
  9
$DIMLTYPE
  6

  9
$DIMLTEX1
  6

  9
$DIMLTEX2
  6

  9
$DIMTXTDIRECTION
 70
     0
  9
$LUNITS
 70
     2
  9
$LUPREC
 70
     4
  9
$SKETCHINC
 40
0.1
  9
$FILLETRAD
 40
0.5
  9
$AUNITS
 70
     0
  9
$AUPREC
 70
     0
  9
$MENU
  1
.
  9
$ELEVATION
 40
0.0
  9
$PELEVATION
 40
0.0
  9
$THICKNESS
 40
0.0
  9
$LIMCHECK
 70
     0
  9
$CHAMFERA
 40
0.5
  9
$CHAMFERB
 40
0.5
  9
$CHAMFERC
 40
1.0
  9
$CHAMFERD
 40
0.0
  9
$SKPOLY
 70
     0
  9
$TDCREATE
 40
2458843.934074062
  9
$TDUCREATE
 40
2458843.892407408
  9
$TDUPDATE
 40
2458843.934074062
  9
$TDUUPDATE
 40
2458843.892407408
  9
$TDINDWG
 40
0.0000000116
  9
$TDUSRTIMER
 40
0.0000000116
  9
$USRTIMER
 70
     1
  9
$ANGBASE
 50
0.0
  9
$ANGDIR
 70
     0
  9
$PDMODE
 70
     0
  9
$PDSIZE
 40
0.0
  9
$PLINEWID
 40
0.0
  9
$SPLFRAME
 70
     0
  9
$SPLINETYPE
 70
     6
  9
$SPLINESEGS
 70
     8
  9
$HANDSEED
  5
84
  9
$SURFTAB1
 70
     6
  9
$SURFTAB2
 70
     6
  9
$SURFTYPE
 70
     6
  9
$SURFU
 70
     6
  9
$SURFV
 70
     6
  9
$UCSBASE
  2

  9
$UCSNAME
  2

  9
$UCSORG
 10
0.0
 20
0.0
 30
0.0
  9
$UCSXDIR
 10
1.0
 20
0.0
 30
0.0
  9
$UCSYDIR
 10
0.0
 20
1.0
 30
0.0
  9
$UCSORTHOREF
  2

  9
$UCSORTHOVIEW
 70
     0
  9
$UCSORGTOP
 10
0.0
 20
0.0
 30
0.0
  9
$UCSORGBOTTOM
 10
0.0
 20
0.0
 30
0.0
  9
$UCSORGLEFT
 10
0.0
 20
0.0
 30
0.0
  9
$UCSORGRIGHT
 10
0.0
 20
0.0
 30
0.0
  9
$UCSORGFRONT
 10
0.0
 20
0.0
 30
0.0
  9
$UCSORGBACK
 10
0.0
 20
0.0
 30
0.0
  9
$PUCSBASE
  2

  9
$PUCSNAME
  2

  9
$PUCSORG
 10
0.0
 20
0.0
 30
0.0
  9
$PUCSXDIR
 10
1.0
 20
0.0
 30
0.0
  9
$PUCSYDIR
 10
0.0
 20
1.0
 30
0.0
  9
$PUCSORTHOREF
  2

  9
$PUCSORTHOVIEW
 70
     0
  9
$PUCSORGTOP
 10
0.0
 20
0.0
 30
0.0
  9
$PUCSORGBOTTOM
 10
0.0
 20
0.0
 30
0.0
  9
$PUCSORGLEFT
 10
0.0
 20
0.0
 30
0.0
  9
$PUCSORGRIGHT
 10
0.0
 20
0.0
 30
0.0
  9
$PUCSORGFRONT
 10
0.0
 20
0.0
 30
0.0
  9
$PUCSORGBACK
 10
0.0
 20
0.0
 30
0.0
  9
$USERI1
 70
     0
  9
$USERI2
 70
     0
  9
$USERI3
 70
     0
  9
$USERI4
 70
     0
  9
$USERI5
 70
     0
  9
$USERR1
 40
0.0
  9
$USERR2
 40
0.0
  9
$USERR3
 40
0.0
  9
$USERR4
 40
0.0
  9
$USERR5
 40
0.0
  9
$WORLDVIEW
 70
     1
  9
$SHADEDGE
 70
     3
  9
$SHADEDIF
 70
    70
  9
$TILEMODE
 70
     1
  9
$MAXACTVP
 70
    64
  9
$PINSBASE
 10
0.0
 20
0.0
 30
0.0
  9
$PLIMCHECK
 70
     0
  9
$PEXTMIN
 10
1.000000000000000E+20
 20
1.000000000000000E+20
 30
1.000000000000000E+20
  9
$PEXTMAX
 10
-1.000000000000000E+20
 20
-1.000000000000000E+20
 30
-1.000000000000000E+20
  9
$PLIMMIN
 10
0.0
 20
0.0
  9
$PLIMMAX
 10
12.0
 20
9.0
  9
$UNITMODE
 70
     0
  9
$VISRETAIN
 70
     1
  9
$PLINEGEN
 70
     0
  9
$PSLTSCALE
 70
     1
  9
$TREEDEPTH
 70
  3020
  9
$CMLSTYLE
  2
Standard
  9
$CMLJUST
 70
     0
  9
$CMLSCALE
 40
1.0
  9
$PROXYGRAPHICS
 70
     1
  9
$MEASUREMENT
 70
     0
  9
$CELWEIGHT
370
    -1
  9
$ENDCAPS
280
     0
  9
$JOINSTYLE
280
     0
  9
$LWDISPLAY
290
     1
  9
$INSUNITS
 70
     1
  9
$HYPERLINKBASE
  1

  9
$STYLESHEET
  1

  9
$XEDIT
290
     1
  9
$CEPSNTYPE
380
     0
  9
$PSTYLEMODE
290
     1
  9
$FINGERPRINTGUID
  2
{6997EEC6-87DD-BB28-5EA8-F478D19DD969}
  9
$VERSIONGUID
  2
{FAEB1C32-E019-11D5-929B-00C0DF256EC4}
  9
$EXTNAMES
290
     1
  9
$PSVPSCALE
 40
0.0
  9
$OLESTARTUP
290
     0
  9
$SORTENTS
280
   127
  9
$INDEXCTL
280
     0
  9
$HIDETEXT
280
     1
  9
$XCLIPFRAME
280
     2
  9
$HALOGAP
280
     0
  9
$OBSCOLOR
 70
   257
  9
$OBSLTYPE
280
     0
  9
$INTERSECTIONDISPLAY
280
     0
  9
$INTERSECTIONCOLOR
 70
   257
  9
$DIMASSOC
280
     2
  9
$PROJECTNAME
  1

  9
$CAMERADISPLAY
290
     0
  9
$LENSLENGTH
 40
50.0
  9
$CAMERAHEIGHT
 40
0.0
  9
$STEPSPERSEC
 40
2.0
  9
$STEPSIZE
 40
6.0
  9
$3DDWFPREC
 40
2.0
  9
$PSOLWIDTH
 40
0.25
  9
$PSOLHEIGHT
 40
4.0
  9
$LOFTANG1
 40
1.570796326794897
  9
$LOFTANG2
 40
1.570796326794897
  9
$LOFTMAG1
 40
0.0
  9
$LOFTMAG2
 40
0.0
  9
$LOFTPARAM
 70
     7
  9
$LOFTNORMALS
280
     1
  9
$LATITUDE
 40
37.795
  9
$LONGITUDE
 40
-122.394
  9
$NORTHDIRECTION
 40
0.0
  9
$TIMEZONE
 70
 -8000
  9
$LIGHTGLYPHDISPLAY
280
     1
  9
$TILEMODELIGHTSYNCH
280
     1
  9
$CMATERIAL
347
3C
  9
$SOLIDHIST
280
     1
  9
$SHOWHIST
280
     1
  9
$DWFFRAME
280
     2
  9
$DGNFRAME
280
     2
  9
$REALWORLDSCALE
290
     1
  9
$INTERFERECOLOR
 62
   256
  9
$CSHADOW
280
     0
  9
$SHADOWPLANELOCATION
 40
0.0
  0
ENDSEC
  0
SECTION
  2
CLASSES
  0
CLASS
  1
ACDBDICTIONARYWDFLT
  2
AcDbDictionaryWithDefault
  3
ObjectDBX Classes
 90
        0
 91
        4
280
     0
281
     0
  0
CLASS
  1
VISUALSTYLE
  2
AcDbVisualStyle
  3
ObjectDBX Classes
 90
     4095
 91
        4
280
     0
281
     0
  0
CLASS
  1
MATERIAL
  2
AcDbMaterial
  3
ObjectDBX Classes
 90
     1153
 91
        4
280
     0
281
     0
  0
CLASS
  1
SUN
  2
AcDbSun
  3
SCENEOE
 90
     1024
 91
        4
280
     0
281
     0
  0
ENDSEC
  0
SECTION
  2
TABLES
  0
TABLE
  2
VPORT
  5
8
330
0
100
AcDbSymbolTable
 70
     1
  0
VPORT
  5
29
330
8
100
AcDbSymbolTableRecord
100
AcDbViewportTableRecord
  2
*Active
 70
     0
 10
0.0
 20
0.0
 11
1.0
 21
1.0
 12
0.0
 22
0.0
 13
0.0
 23
0.0
 14
0.5
 24
0.5
 15
0.5
 25
0.5
 16
0.0
 26
0.0
 36
1.0
 17
105.0007777515276
 27
148.5000416295416
 37
0.0
 40
24.99999999375009
 41
0.9999999999999869
 42
50.0
 43
0.0
 44
0.0
 50
0.0
 51
0.0
 71
     0
 72
   100
 73
     1
 74
     3
 75
     0
 76
     0
 77
     0
 78
     0
281
     0
 65
     1
110
0.0
120
0.0
130
0.0
111
1.0
121
0.0
131
0.0
112
0.0
122
1.0
132
0.0
 79
     0
146
0.0
 60
     3
 61
     5
292
     1
282
     1
141
0.0
142
0.0
 63
   250
361
3F
  0
ENDTAB
  0
TABLE
  2
LTYPE
  5
5
330
0
100
AcDbSymbolTable
 70
     1
  0
LTYPE
  5
14
330
5
100
AcDbSymbolTableRecord
100
AcDbLinetypeTableRecord
  2
ByBlock
 70
     0
  3

 72
    65
 73
     0
 40
0.0
  0
LTYPE
  5
15
330
5
100
AcDbSymbolTableRecord
100
AcDbLinetypeTableRecord
  2
ByLayer
 70
     0
  3

 72
    65
 73
     0
 40
0.0
  0
LTYPE
  5
16
330
5
100
AcDbSymbolTableRecord
100
AcDbLinetypeTableRecord
  2
Continuous
 70
     0
  3
Solid line
 72
    65
 73
     0
 40
0.0
  0
ENDTAB
  0
TABLE
  2
LAYER
  5
2
330
0
100
AcDbSymbolTable
 70
     1
  0
LAYER
  5
10
330
2
100
AcDbSymbolTableRecord
100
AcDbLayerTableRecord
  2
0
 70
     0
 62
     7
  6
Continuous
370
    -3
390
F
347
3E
  0
ENDTAB
  0
TABLE
  2
STYLE
  5
3
330
0
100
AcDbSymbolTable
 70
     1
  0
STYLE
  5
11
330
3
100
AcDbSymbolTableRecord
100
AcDbTextStyleTableRecord
  2
Standard
 70
     0
 40
0.0
 41
1.0
 50
0.0
 71
     0
 42
0.2
  3
txt
  4

  0
ENDTAB
  0
TABLE
  2
VIEW
  5
6
330
0
100
AcDbSymbolTable
 70
     0
  0
ENDTAB
  0
TABLE
  2
UCS
  5
7
330
0
100
AcDbSymbolTable
 70
     0
  0
ENDTAB
  0
TABLE
  2
APPID
  5
9
330
0
100
AcDbSymbolTable
 70
     1
  0
APPID
  5
12
330
9
100
AcDbSymbolTableRecord
100
AcDbRegAppTableRecord
  2
ACAD
 70
     0
  0
ENDTAB
  0
TABLE
  2
DIMSTYLE
  5
A
330
0
100
AcDbSymbolTable
 70
     1
100
AcDbDimStyleTable
  0
DIMSTYLE
105
27
330
A
100
AcDbSymbolTableRecord
100
AcDbDimStyleTableRecord
  2
Standard
 70
     0
178
     0
340
11
  0
ENDTAB
  0
TABLE
  2
BLOCK_RECORD
  5
1
330
0
100
AcDbSymbolTable
 70
    12
  0
BLOCK_RECORD
  5
1F
330
1
100
AcDbSymbolTableRecord
100
AcDbBlockTableRecord
  2
*Model_Space
340
22
 70
     0
280
     1
281
     0
  0
BLOCK_RECORD
  5
1B
330
1
100
AcDbSymbolTableRecord
100
AcDbBlockTableRecord
  2
*Paper_Space
340
1E
 70
     0
280
     1
281
     0
  0
BLOCK_RECORD
  5
23
330
1
100
AcDbSymbolTableRecord
100
AcDbBlockTableRecord
  2
*Paper_Space0
340
26
 70
     0
280
     1
281
     0
  0
BLOCK_RECORD
  5
40
330
1
100
AcDbSymbolTableRecord
100
AcDbBlockTableRecord
  2
block 2
340
0
102
{BLKREFS
331
41
102
}
 70
     0
280
     1
281
     0
  0
BLOCK_RECORD
  5
4C
330
1
100
AcDbSymbolTableRecord
100
AcDbBlockTableRecord
  2
block 3
340
0
102
{BLKREFS
331
4D
102
}
 70
     0
280
     1
281
     0
  0
BLOCK_RECORD
  5
51
330
1
100
AcDbSymbolTableRecord
100
AcDbBlockTableRecord
  2
block 4
340
0
102
{BLKREFS
331
52
102
}
 70
     0
280
     1
281
     0
  0
BLOCK_RECORD
  5
56
330
1
100
AcDbSymbolTableRecord
100
AcDbBlockTableRecord
  2
block 5
340
0
102
{BLKREFS
331
57
102
}
 70
     0
280
     1
281
     0
  0
BLOCK_RECORD
  5
5B
330
1
100
AcDbSymbolTableRecord
100
AcDbBlockTableRecord
  2
block 6
340
0
102
{BLKREFS
331
5C
102
}
 70
     0
280
     1
281
     0
  0
BLOCK_RECORD
  5
60
330
1
100
AcDbSymbolTableRecord
100
AcDbBlockTableRecord
  2
block 7
340
0
102
{BLKREFS
331
61
102
}
 70
     0
280
     1
281
     0
  0
BLOCK_RECORD
  5
65
330
1
100
AcDbSymbolTableRecord
100
AcDbBlockTableRecord
  2
block 8
340
0
102
{BLKREFS
331
66
102
}
 70
     0
280
     1
281
     0
  0
BLOCK_RECORD
  5
6A
330
1
100
AcDbSymbolTableRecord
100
AcDbBlockTableRecord
  2
block 9
340
0
102
{BLKREFS
331
6B
102
}
 70
     0
280
     1
281
     0
  0
BLOCK_RECORD
  5
70
330
1
100
AcDbSymbolTableRecord
100
AcDbBlockTableRecord
  2
block 10
340
0
102
{BLKREFS
331
71
102
}
 70
     0
280
     1
281
     0
  0
BLOCK_RECORD
  5
76
330
1
100
AcDbSymbolTableRecord
100
AcDbBlockTableRecord
  2
block 11
340
0
102
{BLKREFS
331
77
102
}
 70
     0
280
     1
281
     0
  0
BLOCK_RECORD
  5
7C
330
1
100
AcDbSymbolTableRecord
100
AcDbBlockTableRecord
  2
block 12
340
0
102
{BLKREFS
331
7D
102
}
 70
     0
280
     1
281
     0
  0
ENDTAB
  0
ENDSEC
  0
SECTION
  2
BLOCKS
  0
BLOCK
  5
20
330
1F
100
AcDbEntity
  8
0
100
AcDbBlockBegin
  2
*Model_Space
 70
     0
 10
0.0
 20
0.0
 30
0.0
  3
*Model_Space
  1

  0
ENDBLK
  5
21
330
1F
100
AcDbEntity
  8
0
100
AcDbBlockEnd
  0
BLOCK
  5
1C
330
1B
100
AcDbEntity
 67
     1
  8
0
100
AcDbBlockBegin
  2
*Paper_Space
 70
     0
 10
0.0
 20
0.0
 30
0.0
  3
*Paper_Space
  1

  0
ENDBLK
  5
1D
330
1B
100
AcDbEntity
 67
     1
  8
0
100
AcDbBlockEnd
  0
BLOCK
  5
24
330
23
100
AcDbEntity
  8
0
100
AcDbBlockBegin
  2
*Paper_Space0
 70
     0
 10
0.0
 20
0.0
 30
0.0
  3
*Paper_Space0
  1

  0
ENDBLK
  5
25
330
23
100
AcDbEntity
  8
0
100
AcDbBlockEnd
  0
BLOCK
  5
42
330
40
100
AcDbEntity
  8
0
100
AcDbBlockBegin
  2
block 2
 70
     0
 10
0.0
 20
0.0
 30
0.0
  3
block 2
  1

  0
POLYLINE
  5
44
330
40
100
AcDbEntity
  8
0
 62
     7
420
 16777215
370
     5
100
AcDb2dPolyline
 66
     1
 10
0.0
 20
0.0
 30
0.0
  0
VERTEX
  5
45
330
44
100
AcDbEntity
  8
0
 62
     7
420
 16777215
370
     5
100
AcDbVertex
100
AcDb2dVertex
 10
98.39677775166163
 20
152.3788332964612
 30
0.0
  0
VERTEX
  5
46
330
44
100
AcDbEntity
  8
0
 62
     7
420
 16777215
370
     5
100
AcDbVertex
100
AcDb2dVertex
 10
98.39677775133116
 20
145.0128332964607
 30
0.0
  0
VERTEX
  5
47
330
44
100
AcDbEntity
  8
0
 62
     7
420
 16777215
370
     5
100
AcDbVertex
100
AcDb2dVertex
 10
111.8587777513307
 20
145.0128332958562
 30
0.0
  0
VERTEX
  5
48
330
44
100
AcDbEntity
  8
0
 62
     7
420
 16777215
370
     5
100
AcDbVertex
100
AcDb2dVertex
 10
111.8587777516618
 20
152.3788332958571
 30
0.0
  0
VERTEX
  5
49
330
44
100
AcDbEntity
  8
0
 62
     7
420
 16777215
370
     5
100
AcDbVertex
100
AcDb2dVertex
 10
98.39677775166163
 20
152.3788332964612
 30
0.0
  0
SEQEND
  5
4B
330
44
100
AcDbEntity
  8
0
 62
     7
420
 16777215
370
     5
  0
HATCH
  5
4A
330
40
100
AcDbEntity
  8
0
 62
     7
420
 16777215
100
AcDbHatch
 10
0.0
 20
0.0
 30
0.0
210
0.0
220
0.0
230
1.0
  2
SOLID
 70
     1
 71
     0
 91
        1
 92
        1
 93
        4
 72
     1
 10
98.39677775166163
 20
152.3788332964612
 11
98.39677775133116
 21
145.0128332964607
 72
     1
 10
98.39677775133116
 20
145.0128332964607
 11
111.8587777513307
 21
145.0128332958562
 72
     1
 10
111.8587777513307
 20
145.0128332958562
 11
111.8587777516618
 21
152.3788332958571
 72
     1
 10
111.8587777516618
 20
152.3788332958571
 11
98.39677775166163
 21
152.3788332964612
 97
        0
 75
     2
 76
     1
 98
        0
  0
ENDBLK
  5
43
330
40
100
AcDbEntity
  8
0
100
AcDbBlockEnd
  0
BLOCK
  5
4E
330
4C
100
AcDbEntity
  8
0
100
AcDbBlockBegin
  2
block 3
 70
     0
 10
0.0
 20
0.0
 30
0.0
  3
block 3
  1

  0
SPLINE
  5
50
330
4C
100
AcDbEntity
  8
0
 62
     7
420
 16777215
370
     5
100
AcDbSpline
210
0.0
220
0.0
230
1.0
 70
    11
 71
     3
 72
   224
 73
   220
 74
     0
 42
0.0000000001
 43
0.0000000001
 12
1.0
 22
0.0
 32
0.0
 13
1.0
 23
0.0
 33
0.0
 40
0.0
 40
0.0
 40
0.0
 40
0.0
 40
1.0
 40
1.0
 40
1.0
 40
2.0
 40
2.0
 40
2.0
 40
3.0
 40
3.0
 40
3.0
 40
4.0
 40
4.0
 40
4.0
 40
5.0
 40
5.0
 40
5.0
 40
6.0
 40
6.0
 40
6.0
 40
7.0
 40
7.0
 40
7.0
 40
8.0
 40
8.0
 40
8.0
 40
9.0
 40
9.0
 40
9.0
 40
10.0
 40
10.0
 40
10.0
 40
11.0
 40
11.0
 40
11.0
 40
12.0
 40
12.0
 40
12.0
 40
13.0
 40
13.0
 40
13.0
 40
14.0
 40
14.0
 40
14.0
 40
15.0
 40
15.0
 40
15.0
 40
16.0
 40
16.0
 40
16.0
 40
17.0
 40
17.0
 40
17.0
 40
18.0
 40
18.0
 40
18.0
 40
19.0
 40
19.0
 40
19.0
 40
20.0
 40
20.0
 40
20.0
 40
21.0
 40
21.0
 40
21.0
 40
22.0
 40
22.0
 40
22.0
 40
23.0
 40
23.0
 40
23.0
 40
24.0
 40
24.0
 40
24.0
 40
25.0
 40
25.0
 40
25.0
 40
26.0
 40
26.0
 40
26.0
 40
27.0
 40
27.0
 40
27.0
 40
28.0
 40
28.0
 40
28.0
 40
29.0
 40
29.0
 40
29.0
 40
30.0
 40
30.0
 40
30.0
 40
31.0
 40
31.0
 40
31.0
 40
32.0
 40
32.0
 40
32.0
 40
33.0
 40
33.0
 40
33.0
 40
34.0
 40
34.0
 40
34.0
 40
35.0
 40
35.0
 40
35.0
 40
36.0
 40
36.0
 40
36.0
 40
37.0
 40
37.0
 40
37.0
 40
38.0
 40
38.0
 40
38.0
 40
39.0
 40
39.0
 40
39.0
 40
40.0
 40
40.0
 40
40.0
 40
41.0
 40
41.0
 40
41.0
 40
42.0
 40
42.0
 40
42.0
 40
43.0
 40
43.0
 40
43.0
 40
44.0
 40
44.0
 40
44.0
 40
45.0
 40
45.0
 40
45.0
 40
46.0
 40
46.0
 40
46.0
 40
47.0
 40
47.0
 40
47.0
 40
48.0
 40
48.0
 40
48.0
 40
49.0
 40
49.0
 40
49.0
 40
50.0
 40
50.0
 40
50.0
 40
51.0
 40
51.0
 40
51.0
 40
52.0
 40
52.0
 40
52.0
 40
53.0
 40
53.0
 40
53.0
 40
54.0
 40
54.0
 40
54.0
 40
55.0
 40
55.0
 40
55.0
 40
56.0
 40
56.0
 40
56.0
 40
57.0
 40
57.0
 40
57.0
 40
58.0
 40
58.0
 40
58.0
 40
59.0
 40
59.0
 40
59.0
 40
60.0
 40
60.0
 40
60.0
 40
61.0
 40
61.0
 40
61.0
 40
62.0
 40
62.0
 40
62.0
 40
63.0
 40
63.0
 40
63.0
 40
64.0
 40
64.0
 40
64.0
 40
65.0
 40
65.0
 40
65.0
 40
66.0
 40
66.0
 40
66.0
 40
67.0
 40
67.0
 40
67.0
 40
68.0
 40
68.0
 40
68.0
 40
69.0
 40
69.0
 40
69.0
 40
70.0
 40
70.0
 40
70.0
 40
71.0
 40
71.0
 40
71.0
 40
72.0
 40
72.0
 40
72.0
 40
73.0
 40
73.0
 40
73.0
 40
73.0
 10
107.8582181494335
 20
147.2883912580367
 30
0.0
 10
107.8397414644335
 20
147.2884150970379
 30
0.0
 10
107.8212647803844
 20
147.2884389354565
 30
0.0
 10
107.8028980835039
 20
147.2900847290483
 30
0.0
 10
107.7873149555904
 20
147.2914810940129
 30
0.0
 10
107.7718110028781
 20
147.2940450372409
 30
0.0
 10
107.756609864847
 20
147.2979875956928
 30
0.0
 10
107.7441195186799
 20
147.3012270847186
 30
0.0
 10
107.7318336161853
 20
147.3053973382534
 30
0.0
 10
107.7204824745369
 20
147.3115353669452
 30
0.0
 10
107.7106506949268
 20
147.316851814156
 30
0.0
 10
107.7015201860206
 20
147.3236445139014
 30
0.0
 10
107.6939514227261
 20
147.3318570242152
 30
0.0
 10
107.6864695348063
 20
147.3399752701298
 30
0.0
 10
107.6805137463649
 20
147.3494809200811
 30
0.0
 10
107.6758877281743
 20
147.3595170571046
 30
0.0
 10
107.6703376319788
 20
147.3715579794736
 30
0.0
 10
107.66670162846
 20
147.384362493464
 30
0.0
 10
107.6640334280888
 20
147.3973379185071
 30
0.0
 10
107.6608565357339
 20
147.4127871063094
 30
0.0
 10
107.6590516466567
 20
147.4284785856633
 30
0.0
 10
107.6583885233937
 20
147.4441906270732
 30
0.0
 10
107.6575919920548
 20
147.4630636392145
 30
0.0
 10
107.6584428424422
 20
147.4819663190455
 30
0.0
 10
107.6592936924426
 20
147.500868998046
 30
0.0
 10
107.6592936924426
 20
147.500868998046
 30
0.0
 10
107.6589530135403
 20
149.6761859410454
 30
0.0
 10
107.6589530135403
 20
149.6761859410454
 30
0.0
 10
107.6586444065409
 20
149.6946343680454
 30
0.0
 10
107.6583357993651
 20
149.713082794051
 30
0.0
 10
107.6595175042208
 20
149.731506007045
 30
0.0
 10
107.660504828305
 20
149.7468987523615
 30
0.0
 10
107.6625325003698
 20
149.7622738971314
 30
0.0
 10
107.6662913898149
 20
149.7772297356057
 30
0.0
 10
107.6694721140012
 20
149.7898851748931
 30
0.0
 10
107.6738924466161
 20
149.8022403771185
 30
0.0
 10
107.6798391612495
 20
149.813921616159
 30
0.0
 10
107.6849577846123
 20
149.8239762205496
 30
0.0
 10
107.691207285033
 20
149.8335314941727
 30
0.0
 10
107.6990318374036
 20
149.8415816485058
 30
0.0
 10
107.7068255323976
 20
149.8496000557662
 30
0.0
 10
107.7161818808991
 20
149.8561251916857
 30
0.0
 10
107.7261273801407
 20
149.8613388153533
 30
0.0
 10
107.7375707035245
 20
149.8673376274975
 30
0.0
 10
107.7497939963601
 20
149.8716001446311
 30
0.0
 10
107.7622547696178
 20
149.8748865867349
 30
0.0
 10
107.777060638629
 20
149.8787915315
 30
0.0
 10
107.7922017860837
 20
149.8813184388119
 30
0.0
 10
107.8074140072686
 20
149.8827894528539
 30
0.0
 10
107.825604362746
 20
149.8845484509652
 30
0.0
 10
107.8438963445494
 20
149.8847976570372
 30
0.0
 10
107.8621883255495
 20
149.8850468640366
 30
0.0
 10
107.8621883255495
 20
149.8850468640366
 30
0.0
 10
108.9347014735495
 20
149.8844829239884
 30
0.0
 10
108.9347014735495
 20
149.8844829239884
 30
0.0
 10
108.9501574365501
 20
149.8845733289878
 30
0.0
 10
108.9656134000199
 20
149.8846637339587
 30
0.0
 10
108.9809896921859
 20
149.8833539431751
 30
0.0
 10
108.9944881144778
 20
149.8822041140146
 30
0.0
 10
109.0079251372878
 20
149.8799752100978
 30
0.0
 10
109.0210685158227
 20
149.8765800580013
 30
0.0
 10
109.0324995738128
 20
149.873627226627
 30
0.0
 10
109.043708515538
 20
149.8697922302949
 30
0.0
 10
109.0543734534682
 20
149.8647257582042
 30
0.0
 10
109.0640128710644
 20
149.8601464685225
 30
0.0
 10
109.073207875558
 20
149.8545611491626
 30
0.0
 10
109.0814689957496
 20
149.8477910438121
 30
0.0
 10
109.0894213878302
 20
149.8412739455337
 30
0.0
 10
109.0965083921249
 20
149.8336589603703
 30
0.0
 10
109.1023551427267
 20
149.8252114251866
 30
0.0
 10
109.1082577506168
 20
149.8166831859597
 30
0.0
 10
109.1128962939379
 20
149.8073064130903
 30
0.0
 10
109.1164674047109
 20
149.7975513923319
 30
0.0
 10
109.1203408181681
 20
149.7869705867847
 30
0.0
 10
109.1229584286388
 20
149.7759447837245
 30
0.0
 10
109.1243702714324
 20
149.7648109449629
 30
0.0
 10
109.1259808892216
 20
149.7521095600445
 30
0.0
 10
109.1260223155431
 20
149.7392675769792
 30
0.0
 10
109.1260637425428
 20
149.7264255929797
 30
0.0
 10
109.1260539555422
 20
149.7132086029796
 30
0.0
 10
109.1260441680661
 20
149.6999916126167
 30
0.0
 10
109.1243702716031
 20
149.6869112603641
 30
0.0
 10
109.122892702521
 20
149.6753650718744
 30
0.0
 10
109.120118491175
 20
149.6639253492166
 30
0.0
 10
109.1159029140714
 20
149.6530418318414
 30
0.0
 10
109.1120296657612
 20
149.6430421178611
 30
0.0
 10
109.1069396409694
 20
149.6335119429297
 30
0.0
 10
109.1006616711658
 20
149.6248173084149
 30
0.0
 10
109.0944100037844
 20
149.61615910127
 30
0.0
 10
109.0869803246589
 20
149.6083294479853
 30
0.0
 10
109.0786465429676
 20
149.6016731995722
 30
0.0
 10
109.069856754741
 20
149.5946527356209
 30
0.0
 10
109.0600612159472
 20
149.5889376021259
 30
0.0
 10
109.0498575295957
 20
149.5841739948192
 30
0.0
 10
109.0386100873796
 20
149.5789231084161
 30
0.0
 10
109.0268667263962
 20
149.5748283717531
 30
0.0
 10
109.0148591204638
 20
149.571755204426
 30
0.0
 10
109.0009959338853
 20
149.568207128958
 30
0.0
 10
108.9867805224677
 20
149.5660207525307
 30
0.0
 10
108.9725223350957
 20
149.5649813192137
 30
0.0
 10
108.9562133104955
 20
149.5637923782155
 30
0.0
 10
108.9398483195354
 20
149.5641040519882
 30
0.0
 10
108.9234833285356
 20
149.5644157259887
 30
0.0
 10
108.9234833285356
 20
149.5644157259887
 30
0.0
 10
107.9792429215353
 20
149.5644157260314
 30
0.0
 10
107.9792429215353
 20
149.5644157260314
 30
0.0
 10
107.9792429215353
 20
149.5644157260314
 30
0.0
 10
107.9792429215057
 20
148.9096078850314
 30
0.0
 10
107.9792429215057
 20
148.9096078850314
 30
0.0
 10
107.9792429215057
 20
148.9096078850314
 30
0.0
 10
108.6620525775059
 20
148.9096078850006
 30
0.0
 10
108.6620525775059
 20
148.9096078850006
 30
0.0
 10
108.6773249115058
 20
148.9095121649999
 30
0.0
 10
108.6925972466627
 20
148.9094164459379
 30
0.0
 10
108.7077763054977
 20
148.9079144130608
 30
0.0
 10
108.7211091650347
 20
148.9065950695105
 30
0.0
 10
108.7343700584121
 20
148.9041907024156
 30
0.0
 10
108.7472906382673
 20
148.9005760370839
 30
0.0
 10
108.7585480459218
 20
148.89742666131
 30
0.0
 10
108.7695471133815
 20
148.8933585189811
 30
0.0
 10
108.7800310852669
 20
148.8881572470174
 30
0.0
 10
108.7896882559798
 20
148.8833661647998
 30
0.0
 10
108.7989083718464
 20
148.8776136303327
 30
0.0
 10
108.8071266279898
 20
148.8706580424546
 30
0.0
 10
108.8150696908098
 20
148.8639353666825
 30
0.0
 10
108.822076866304
 20
148.8560888584875
 30
0.0
 10
108.8280127748777
 20
148.847513933121
 30
0.0
 10
108.834070053268
 20
148.8387636787186
 30
0.0
 10
108.8390118091024
 20
148.8292549151435
 30
0.0
 10
108.8426895271568
 20
148.8192894094045
 30
0.0
 10
108.84664669978
 20
148.8085666661433
 30
0.0
 10
108.849140438264
 20
148.7973151316655
 30
0.0
 10
108.8505923937936
 20
148.7859844720105
 30
0.0
 10
108.8522473409244
 20
148.7730697220126
 30
0.0
 10
108.8525488484992
 20
148.7600521759922
 30
0.0
 10
108.8528503554991
 20
148.7470346289919
 30
0.0
 10
108.8528513314977
 20
148.734188812992
 30
0.0
 10
108.852852308016
 20
148.721342997504
 30
0.0
 10
108.8511568844798
 20
148.7086492778195
 30
0.0
 10
108.84966466128
 20
148.6974769290854
 30
0.0
 10
108.8468583047285
 20
148.6864224028934
 30
0.0
 10
108.8426895271529
 20
148.6759088305664
 30
0.0
 10
108.8387964396901
 20
148.6660905431021
 30
0.0
 10
108.8337151723037
 20
148.6567440264856
 30
0.0
 10
108.8274482846907
 20
148.6482487975207
 30
0.0
 10
108.8211904134432
 20
148.6397657909057
 30
0.0
 10
108.8137503310928
 20
148.6321316241564
 30
0.0
 10
108.8054331564803
 20
148.6256691785564
 30
0.0
 10
108.7966241893658
 20
148.6188246101285
 30
0.0
 10
108.7868313388842
 20
148.6132944267417
 30
0.0
 10
108.7766441422697
 20
148.6087344642872
 30
0.0
 10
108.7653738792722
 20
148.6036897029005
 30
0.0
 10
108.7536209618294
 20
148.5998324298842
 30
0.0
 10
108.7416457330511
 20
148.5968801645569
 30
0.0
 10
108.7277507291605
 20
148.5934546151195
 30
0.0
 10
108.713556422102
 20
148.5912474995879
 30
0.0
 10
108.6993089479911
 20
148.5901062792641
 30
0.0
 10
108.6830375085314
 20
148.5888029396499
 30
0.0
 10
108.6666967234916
 20
148.5888898430004
 30
0.0
 10
108.6503559374918
 20
148.5889767470012
 30
0.0
 10
108.6503559374918
 20
148.5889767470012
 30
0.0
 10
107.9792429214916
 20
148.5889767470314
 30
0.0
 10
107.9792429214916
 20
148.5889767470314
 30
0.0
 10
107.9792429214916
 20
148.5889767470314
 30
0.0
 10
107.9792429214473
 20
147.6090218440318
 30
0.0
 10
107.9792429214473
 20
147.6090218440318
 30
0.0
 10
107.9792429214473
 20
147.6090218440318
 30
0.0
 10
108.9386529074473
 20
147.6090218439882
 30
0.0
 10
108.9386529074473
 20
147.6090218439882
 30
0.0
 10
108.9546696334475
 20
147.6091101859878
 30
0.0
 10
108.9706863594964
 20
147.6091985279001
 30
0.0
 10
108.9866345970639
 20
147.6078928628608
 30
0.0
 10
109.0005113005776
 20
147.6067567920845
 30
0.0
 10
109.0143361521812
 20
147.6045653332734
 30
0.0
 10
109.027842401352
 20
147.6011189775734
 30
0.0
 10
109.0398530278196
 20
147.5980542561652
 30
0.0
 10
109.0516117062996
 20
147.5939971733892
 30
0.0
 10
109.0628408103459
 20
147.5887001871494
 30
0.0
 10
109.0728823954957
 20
147.5839633766126
 30
0.0
 10
109.0825004924103
 20
147.578235044402
 30
0.0
 10
109.0910653333884
 20
147.5712009823726
 30
0.0
 10
109.0992038174602
 20
147.5645170752313
 30
0.0
 10
109.1063912975319
 20
147.5566542008187
 30
0.0
 10
109.1125159713629
 20
147.5480568733127
 30
0.0
 10
109.118741725678
 20
147.5393176571063
 30
0.0
 10
109.1238693035537
 20
147.5298195452051
 30
0.0
 10
109.1277572141056
 20
147.5198323500733
 30
0.0
 10
109.1319887493229
 20
147.5089624580426
 30
0.0
 10
109.134751802822
 20
147.4975132091406
 30
0.0
 10
109.1362245709185
 20
147.4859629218692
 30
0.0
 10
109.1378930284855
 20
147.47287792618
 30
0.0
 10
109.1379055354411
 20
147.4596632579793
 30
0.0
 10
109.1379180424403
 20
147.446448588979
 30
0.0
 10
109.13796578744
 20
147.4335938169799
 30
0.0
 10
109.1380135320419
 20
147.4207390451246
 30
0.0
 10
109.1362245713055
 20
147.4080632369466
 30
0.0
 10
109.1346432360858
 20
147.3968585740796
 30
0.0
 10
109.1316267889879
 20
147.3857937446909
 30
0.0
 10
109.1271927237825
 20
147.3753227902075
 30
0.0
 10
109.122996541999
 20
147.3654135925711
 30
0.0
 10
109.1175307696403
 20
147.3560362574822
 30
0.0
 10
109.1108225001909
 20
147.3476627572501
 30
0.0
 10
109.1041557426836
 20
147.3393410736982
 30
0.0
 10
109.0962618180831
 20
147.3320108396315
 30
0.0
 10
109.0876783910656
 20
147.32564762845
 30
0.0
 10
109.078233478278
 20
147.3186457660788
 30
0.0
 10
109.0679537120153
 20
147.3128147805568
 30
0.0
 10
109.0571959058831
 20
147.3081484240018
 30
0.0
 10
109.0452295841614
 20
147.3029578560449
 30
0.0
 10
109.0326717851954
 20
147.2992082798918
 30
0.0
 10
109.0199395345239
 20
147.2962941242795
 30
0.0
 10
109.005250245578
 20
147.2929320420416
 30
0.0
 10
108.9903287543913
 20
147.2906819381616
 30
0.0
 10
108.9753447870948
 20
147.2895202389485
 30
0.0
 10
108.958112720509
 20
147.2881842457649
 30
0.0
 10
108.9407980244337
 20
147.2882877519881
 30
0.0
 10
108.9234833284329
 20
147.2883912579892
 30
0.0
 10
108.9234833284329
 20
147.2883912579892
 30
0.0
 10
107.8582181494335
 20
147.2883912580367
 30
0.0
 10
107.8582181494335
 20
147.2883912580367
 30
0.0
  0
ENDBLK
  5
4F
330
4C
100
AcDbEntity
  8
0
100
AcDbBlockEnd
  0
BLOCK
  5
53
330
51
100
AcDbEntity
  8
0
100
AcDbBlockBegin
  2
block 4
 70
     0
 10
0.0
 20
0.0
 30
0.0
  3
block 4
  1

  0
SPLINE
  5
55
330
51
100
AcDbEntity
  8
0
 62
     7
420
 16777215
370
     5
100
AcDbSpline
210
0.0
220
0.0
230
1.0
 70
    11
 71
     3
 72
   149
 73
   145
 74
     0
 42
0.0000000001
 43
0.0000000001
 12
1.0
 22
0.0
 32
0.0
 13
1.0
 23
0.0
 33
0.0
 40
0.0
 40
0.0
 40
0.0
 40
0.0
 40
1.0
 40
1.0
 40
1.0
 40
2.0
 40
2.0
 40
2.0
 40
3.0
 40
3.0
 40
3.0
 40
4.0
 40
4.0
 40
4.0
 40
5.0
 40
5.0
 40
5.0
 40
6.0
 40
6.0
 40
6.0
 40
7.0
 40
7.0
 40
7.0
 40
8.0
 40
8.0
 40
8.0
 40
9.0
 40
9.0
 40
9.0
 40
10.0
 40
10.0
 40
10.0
 40
11.0
 40
11.0
 40
11.0
 40
12.0
 40
12.0
 40
12.0
 40
13.0
 40
13.0
 40
13.0
 40
14.0
 40
14.0
 40
14.0
 40
15.0
 40
15.0
 40
15.0
 40
16.0
 40
16.0
 40
16.0
 40
17.0
 40
17.0
 40
17.0
 40
18.0
 40
18.0
 40
18.0
 40
19.0
 40
19.0
 40
19.0
 40
20.0
 40
20.0
 40
20.0
 40
21.0
 40
21.0
 40
21.0
 40
22.0
 40
22.0
 40
22.0
 40
23.0
 40
23.0
 40
23.0
 40
24.0
 40
24.0
 40
24.0
 40
25.0
 40
25.0
 40
25.0
 40
26.0
 40
26.0
 40
26.0
 40
27.0
 40
27.0
 40
27.0
 40
28.0
 40
28.0
 40
28.0
 40
29.0
 40
29.0
 40
29.0
 40
30.0
 40
30.0
 40
30.0
 40
31.0
 40
31.0
 40
31.0
 40
32.0
 40
32.0
 40
32.0
 40
33.0
 40
33.0
 40
33.0
 40
34.0
 40
34.0
 40
34.0
 40
35.0
 40
35.0
 40
35.0
 40
36.0
 40
36.0
 40
36.0
 40
37.0
 40
37.0
 40
37.0
 40
38.0
 40
38.0
 40
38.0
 40
39.0
 40
39.0
 40
39.0
 40
40.0
 40
40.0
 40
40.0
 40
41.0
 40
41.0
 40
41.0
 40
42.0
 40
42.0
 40
42.0
 40
43.0
 40
43.0
 40
43.0
 40
44.0
 40
44.0
 40
44.0
 40
45.0
 40
45.0
 40
45.0
 40
46.0
 40
46.0
 40
46.0
 40
47.0
 40
47.0
 40
47.0
 40
48.0
 40
48.0
 40
48.0
 40
48.0
 10
103.9050908444418
 20
147.4805363162146
 30
0.0
 10
103.9050908444418
 20
147.4805363162146
 30
0.0
 10
103.9045269045419
 20
149.7106198602143
 30
0.0
 10
103.9045269045419
 20
149.7106198602143
 30
0.0
 10
103.9052372935427
 20
149.7245980232142
 30
0.0
 10
103.9059476818505
 20
149.7385761864452
 30
0.0
 10
103.907913847543
 20
149.7523921546397
 30
0.0
 10
103.9096229693368
 20
149.7644019117122
 30
0.0
 10
103.9122809867759
 20
149.7762891103079
 30
0.0
 10
103.9158167139398
 20
149.7879550546042
 30
0.0
 10
103.919011271385
 20
149.7984953275011
 30
0.0
 10
103.9229223265685
 20
149.808854984642
 30
0.0
 10
103.9282355043799
 20
149.8184375398906
 30
0.0
 10
103.93306573703
 20
149.8271490818108
 30
0.0
 10
103.9390547827799
 20
149.8352183718797
 30
0.0
 10
103.9457347090623
 20
149.8427106298232
 30
0.0
 10
103.9521601833108
 20
149.8499174923621
 30
0.0
 10
103.9592249064621
 20
149.8565904461638
 30
0.0
 10
103.967185347015
 20
149.8619033056321
 30
0.0
 10
103.9754948245207
 20
149.8674491150569
 30
0.0
 10
103.984780289487
 20
149.871512944773
 30
0.0
 10
103.994280889566
 20
149.874886586752
 30
0.0
 10
104.0044112083227
 20
149.8784838404343
 30
0.0
 10
104.0147861265125
 20
149.8812963801421
 30
0.0
 10
104.0253278655906
 20
149.8827894531828
 30
0.0
 10
104.0372285922192
 20
149.8844750056288
 30
0.0
 10
104.0493419235498
 20
149.8844789652074
 30
0.0
 10
104.0614552555497
 20
149.8844829242072
 30
0.0
 10
104.0737437165496
 20
149.8844440632066
 30
0.0
 10
104.0860321777056
 20
149.8844052020183
 30
0.0
 10
104.0981471358305
 20
149.8827894528796
 30
0.0
 10
104.1090751463814
 20
149.8813320047021
 30
0.0
 10
104.1198619859466
 20
149.8785915194345
 30
0.0
 10
104.1303230927875
 20
149.8748865865341
 30
0.0
 10
104.1398095992843
 20
149.8715268206356
 30
0.0
 10
104.1490282390769
 20
149.8673739400487
 30
0.0
 10
104.1574186347834
 20
149.8619033055044
 30
0.0
 10
104.1655747498019
 20
149.8565854246654
 30
0.0
 10
104.1729482282454
 20
149.8500223523893
 30
0.0
 10
104.179433763124
 20
149.8427106297292
 30
0.0
 10
104.1860059361173
 20
149.8353012321849
 30
0.0
 10
104.1916662836021
 20
149.8271230487106
 30
0.0
 10
104.196368477663
 20
149.8184375396628
 30
0.0
 10
104.2015978869575
 20
149.8087782016721
 30
0.0
 10
104.205642239287
 20
149.7984913966292
 30
0.0
 10
104.2087872676718
 20
149.7879550545628
 30
0.0
 10
104.2122568752467
 20
149.7763313209175
 30
0.0
 10
104.214631952663
 20
149.7644038860319
 30
0.0
 10
104.2161256437744
 20
149.7523921547379
 30
0.0
 10
104.2178450946711
 20
149.7385649437516
 30
0.0
 10
104.2183965955425
 20
149.7246260292005
 30
0.0
 10
104.2189480965423
 20
149.7106871142002
 30
0.0
 10
104.2189480965423
 20
149.7106871142002
 30
0.0
 10
104.2189480964461
 20
147.5728944542005
 30
0.0
 10
104.2189480964461
 20
147.5728944542005
 30
0.0
 10
104.2189480964461
 20
147.5728944542005
 30
0.0
 10
105.2254346024457
 20
147.5728944541542
 30
0.0
 10
105.2254346024457
 20
147.5728944541542
 30
0.0
 10
105.2357950504457
 20
147.5728838451545
 30
0.0
 10
105.246155498311
 20
147.5728732356067
 30
0.0
 10
105.2564815783407
 20
147.5723299639005
 30
0.0
 10
105.2651490937666
 20
147.5718739519504
 30
0.0
 10
105.2737923949744
 20
147.5710426472993
 30
0.0
 10
105.2824481396436
 20
147.5700720021872
 30
0.0
 10
105.2894748006134
 20
147.5692840406216
 30
0.0
 10
105.2965096618944
 20
147.5684042529078
 30
0.0
 10
105.3033342870031
 20
147.5666850592477
 30
0.0
 10
105.3086891540535
 20
147.5653361128466
 30
0.0
 10
105.3139145874456
 20
147.5634703791512
 30
0.0
 10
105.3191400204455
 20
147.5616046451503
 30
0.0
 10
105.3308086004449
 20
147.5561541891505
 30
0.0
 10
105.342477181084
 20
147.5507037331122
 30
0.0
 10
105.3524449573467
 20
147.5429764596234
 30
0.0
 10
105.3632086934812
 20
147.5346321378137
 30
0.0
 10
105.3719891502758
 20
147.5236328575185
 30
0.0
 10
105.3795405000972
 20
147.5119294834621
 30
0.0
 10
105.3875458235752
 20
147.4995225234696
 30
0.0
 10
105.3941698144115
 20
147.4863242672634
 30
0.0
 10
105.3981686857428
 20
147.4724151509774
 30
0.0
 10
105.4022465670049
 20
147.4582312175691
 30
0.0
 10
105.4035945694397
 20
147.4433080561463
 30
0.0
 10
105.4049425714395
 20
147.4283848941473
 30
0.0
 10
105.4032222124386
 20
147.4122694541472
 30
0.0
 10
105.4015018527787
 20
147.3961540149505
 30
0.0
 10
105.3964752142525
 20
147.3809676947332
 30
0.0
 10
105.3914915629633
 20
147.3659112461878
 30
0.0
 10
105.3832579408422
 20
147.3517680931333
 30
0.0
 10
105.3733311052619
 20
147.3391953998564
 30
0.0
 10
105.3685158826793
 20
147.3330967477646
 30
0.0
 10
105.363302256925
 20
147.3273676156274
 30
0.0
 10
105.3575253722744
 20
147.322260685721
 30
0.0
 10
105.3517811694381
 20
147.3171826474643
 30
0.0
 10
105.3454800627746
 20
147.3127197913316
 30
0.0
 10
105.3388971866487
 20
147.3087129144468
 30
0.0
 10
105.3324038776209
 20
147.304760555423
 30
0.0
 10
105.3256364145185
 20
147.301251851885
 30
0.0
 10
105.3185755293184
 20
147.2985520862186
 30
0.0
 10
105.311081194714
 20
147.2956865889479
 30
0.0
 10
105.303256307433
 20
147.293732395152
 30
0.0
 10
105.295431420433
 20
147.291778201152
 30
0.0
 10
105.2913046044329
 20
147.2909486131524
 30
0.0
 10
105.2871777883667
 20
147.2901190264143
 30
0.0
 10
105.2830126301554
 20
147.2895202389344
 30
0.0
 10
105.2785266174684
 20
147.2888753250816
 30
0.0
 10
105.2739961278934
 20
147.2884981383673
 30
0.0
 10
105.2694648591372
 20
147.2883912578095
 30
0.0
 10
105.2664544480177
 20
147.2883202502327
 30
0.0
 10
105.263443692984
 20
147.2883685502007
 30
0.0
 10
105.2604330116662
 20
147.2883912578314
 30
0.0
 10
105.2559169896895
 20
147.2884253192767
 30
0.0
 10
105.251401133574
 20
147.2884017979627
 30
0.0
 10
105.2468852400827
 20
147.28839125773
 30
0.0
 10
105.2406758865517
 20
147.2883767649122
 30
0.0
 10
105.234466462358
 20
147.2883868144544
 30
0.0
 10
105.2282570544679
 20
147.2883912579225
 30
0.0
 10
105.2208741949267
 20
147.2883965411154
 30
0.0
 10
105.2134913584334
 20
147.2883938991557
 30
0.0
 10
105.2061085214332
 20
147.2883912581561
 30
0.0
 10
105.2061085214332
 20
147.2883912581561
 30
0.0
 10
104.0941957024332
 20
147.2883912582061
 30
0.0
 10
104.0941957024332
 20
147.2883912582061
 30
0.0
 10
104.0779792994332
 20
147.289108170206
 30
0.0
 10
104.0617628962587
 20
147.2898250831838
 30
0.0
 10
104.0456495226816
 20
147.2917782006464
 30
0.0
 10
104.0315368538621
 20
147.2934888107668
 30
0.0
 10
104.0175032178385
 20
147.2961476988593
 30
0.0
 10
104.0038772276713
 20
147.3002455578219
 30
0.0
 10
103.9921470145628
 20
147.3037732837579
 30
0.0
 10
103.9807189069977
 20
147.3083674281785
 30
0.0
 10
103.9700077995564
 20
147.3143578196258
 30
0.0
 10
103.9603512679501
 20
147.3197584193924
 30
0.0
 10
103.9512775004748
 20
147.326293862315
 30
0.0
 10
103.9434767475412
 20
147.3341149858155
 30
0.0
 10
103.9358622188748
 20
147.34174939875
 30
0.0
 10
103.9294606499055
 20
147.3506088398922
 30
0.0
 10
103.924284071535
 20
147.3600815476625
 30
0.0
 10
103.9186375843504
 20
147.3704141494715
 30
0.0
 10
103.9144485813907
 20
147.3814764111118
 30
0.0
 10
103.9113007908297
 20
147.3928219948534
 30
0.0
 10
103.9076680199461
 20
147.4059155935128
 30
0.0
 10
103.905422016673
 20
147.4193865425686
 30
0.0
 10
103.9045269051445
 20
147.4329008182515
 30
0.0
 10
103.9034778282954
 20
147.4487396420028
 30
0.0
 10
103.9042843364412
 20
147.4646379792139
 30
0.0
 10
103.9050908444418
 20
147.4805363162146
 30
0.0
  0
ENDBLK
  5
54
330
51
100
AcDbEntity
  8
0
100
AcDbBlockEnd
  0
BLOCK
  5
58
330
56
100
AcDbEntity
  8
0
100
AcDbBlockBegin
  2
block 5
 70
     0
 10
0.0
 20
0.0
 30
0.0
  3
block 5
  1

  0
SPLINE
  5
5A
330
56
100
AcDbEntity
  8
0
 62
     7
420
 16777215
370
     5
100
AcDbSpline
210
0.0
220
0.0
230
1.0
 70
    11
 71
     3
 72
   257
 73
   253
 74
     0
 42
0.0000000001
 43
0.0000000001
 12
1.0
 22
0.0
 32
0.0
 13
1.0
 23
0.0
 33
0.0
 40
0.0
 40
0.0
 40
0.0
 40
0.0
 40
1.0
 40
1.0
 40
1.0
 40
2.0
 40
2.0
 40
2.0
 40
3.0
 40
3.0
 40
3.0
 40
4.0
 40
4.0
 40
4.0
 40
5.0
 40
5.0
 40
5.0
 40
6.0
 40
6.0
 40
6.0
 40
7.0
 40
7.0
 40
7.0
 40
8.0
 40
8.0
 40
8.0
 40
9.0
 40
9.0
 40
9.0
 40
10.0
 40
10.0
 40
10.0
 40
11.0
 40
11.0
 40
11.0
 40
12.0
 40
12.0
 40
12.0
 40
13.0
 40
13.0
 40
13.0
 40
14.0
 40
14.0
 40
14.0
 40
15.0
 40
15.0
 40
15.0
 40
16.0
 40
16.0
 40
16.0
 40
17.0
 40
17.0
 40
17.0
 40
18.0
 40
18.0
 40
18.0
 40
19.0
 40
19.0
 40
19.0
 40
20.0
 40
20.0
 40
20.0
 40
21.0
 40
21.0
 40
21.0
 40
22.0
 40
22.0
 40
22.0
 40
23.0
 40
23.0
 40
23.0
 40
24.0
 40
24.0
 40
24.0
 40
25.0
 40
25.0
 40
25.0
 40
26.0
 40
26.0
 40
26.0
 40
27.0
 40
27.0
 40
27.0
 40
28.0
 40
28.0
 40
28.0
 40
29.0
 40
29.0
 40
29.0
 40
30.0
 40
30.0
 40
30.0
 40
31.0
 40
31.0
 40
31.0
 40
32.0
 40
32.0
 40
32.0
 40
33.0
 40
33.0
 40
33.0
 40
34.0
 40
34.0
 40
34.0
 40
35.0
 40
35.0
 40
35.0
 40
36.0
 40
36.0
 40
36.0
 40
37.0
 40
37.0
 40
37.0
 40
38.0
 40
38.0
 40
38.0
 40
39.0
 40
39.0
 40
39.0
 40
40.0
 40
40.0
 40
40.0
 40
41.0
 40
41.0
 40
41.0
 40
42.0
 40
42.0
 40
42.0
 40
43.0
 40
43.0
 40
43.0
 40
44.0
 40
44.0
 40
44.0
 40
45.0
 40
45.0
 40
45.0
 40
46.0
 40
46.0
 40
46.0
 40
47.0
 40
47.0
 40
47.0
 40
48.0
 40
48.0
 40
48.0
 40
49.0
 40
49.0
 40
49.0
 40
50.0
 40
50.0
 40
50.0
 40
51.0
 40
51.0
 40
51.0
 40
52.0
 40
52.0
 40
52.0
 40
53.0
 40
53.0
 40
53.0
 40
54.0
 40
54.0
 40
54.0
 40
55.0
 40
55.0
 40
55.0
 40
56.0
 40
56.0
 40
56.0
 40
57.0
 40
57.0
 40
57.0
 40
58.0
 40
58.0
 40
58.0
 40
59.0
 40
59.0
 40
59.0
 40
60.0
 40
60.0
 40
60.0
 40
61.0
 40
61.0
 40
61.0
 40
62.0
 40
62.0
 40
62.0
 40
63.0
 40
63.0
 40
63.0
 40
64.0
 40
64.0
 40
64.0
 40
65.0
 40
65.0
 40
65.0
 40
66.0
 40
66.0
 40
66.0
 40
67.0
 40
67.0
 40
67.0
 40
68.0
 40
68.0
 40
68.0
 40
69.0
 40
69.0
 40
69.0
 40
70.0
 40
70.0
 40
70.0
 40
71.0
 40
71.0
 40
71.0
 40
72.0
 40
72.0
 40
72.0
 40
73.0
 40
73.0
 40
73.0
 40
74.0
 40
74.0
 40
74.0
 40
75.0
 40
75.0
 40
75.0
 40
76.0
 40
76.0
 40
76.0
 40
77.0
 40
77.0
 40
77.0
 40
78.0
 40
78.0
 40
78.0
 40
79.0
 40
79.0
 40
79.0
 40
80.0
 40
80.0
 40
80.0
 40
81.0
 40
81.0
 40
81.0
 40
82.0
 40
82.0
 40
82.0
 40
83.0
 40
83.0
 40
83.0
 40
84.0
 40
84.0
 40
84.0
 40
84.0
 10
99.15998451343576
 20
147.3459692864272
 30
0.0
 10
99.15446749143614
 20
147.3542025644269
 30
0.0
 10
99.14895046939994
 20
147.3624358424099
 30
0.0
 10
99.14474327071042
 20
147.3713713573749
 30
0.0
 10
99.14063500605181
 20
147.3800967499813
 30
0.0
 10
99.13777568695413
 20
147.3894917410983
 30
0.0
 10
99.13627591377234
 20
147.3990313901321
 30
0.0
 10
99.13533526307164
 20
147.4050146132275
 30
0.0
 10
99.13492942232183
 20
147.4110547409783
 30
0.0
 10
99.13458244260354
 20
147.4170950851601
 30
0.0
 10
99.13409615303337
 20
147.4255605839341
 30
0.0
 10
99.13372547724332
 20
147.4340265078171
 30
0.0
 10
99.1334534612297
 20
147.4424971562657
 30
0.0
 10
99.1331091944417
 20
147.4532177123435
 30
0.0
 10
99.13292295834161
 20
147.4639458361091
 30
0.0
 10
99.13288897088032
 20
147.4746731127806
 30
0.0
 10
99.13284688279582
 20
147.4879571451091
 30
0.0
 10
99.13303826644261
 20
147.5012398784284
 30
0.0
 10
99.13322964944322
 20
147.5145226124291
 30
0.0
 10
99.13322964944322
 20
147.5145226124291
 30
0.0
 10
99.13288897153934
 20
149.6598157184282
 30
0.0
 10
99.13288897153934
 20
149.6598157184282
 30
0.0
 10
99.13256366854039
 20
149.6782621724283
 30
0.0
 10
99.13223836669457
 20
149.6967086259598
 30
0.0
 10
99.1334534614036
 20
149.7151357838654
 30
0.0
 10
99.1344950645328
 20
149.730931906744
 30
0.0
 10
99.13666859052132
 20
149.7467138507022
 30
0.0
 10
99.14079183743564
 20
149.7619884930276
 30
0.0
 10
99.14438268636417
 20
149.7752908574423
 30
0.0
 10
99.14945226240607
 20
149.7882084690085
 30
0.0
 10
99.1560330800365
 20
149.8003738450923
 30
0.0
 10
99.16202444737138
 20
149.8114495564987
 30
0.0
 10
99.16926845414227
 20
149.8219017542084
 30
0.0
 10
99.17804820848106
 20
149.8308563301343
 30
0.0
 10
99.18709019002776
 20
149.8400783547087
 30
0.0
 10
99.19776102625595
 20
149.8477119618219
 30
0.0
 10
99.20909518452174
 20
149.8540004395067
 30
0.0
 10
99.2216138225276
 20
149.8609460965108
 30
0.0
 10
99.23494166830321
 20
149.8662507871034
 30
0.0
 10
99.24860951719442
 20
149.8703706629815
 30
0.0
 10
99.26463560233718
 20
149.8752013779041
 30
0.0
 10
99.28112913994272
 20
149.878403153183
 30
0.0
 10
99.29772018814053
 20
149.8805314917089
 30
0.0
 10
99.31693737092341
 20
149.8829967169323
 30
0.0
 10
99.33628537655001
 20
149.8840217904191
 30
0.0
 10
99.35563338154968
 20
149.8850468644184
 30
0.0
 10
99.35563338154968
 20
149.8850468644184
 30
0.0
 10
99.87011352355
 20
149.8844829243952
 30
0.0
 10
99.87011352355
 20
149.8844829243952
 30
0.0
 10
99.89405432054969
 20
149.8834510323944
 30
0.0
 10
99.91799511736006
 20
149.8824191398946
 30
0.0
 10
99.94180381349861
 20
149.8799670011484
 30
0.0
 10
99.9649050731719
 20
149.8775877236944
 30
0.0
 10
99.9878819658551
 20
149.8738713466711
 30
0.0
 10
100.0106716497707
 20
149.8692416821563
 30
0.0
 10
100.0325623624124
 20
149.8647946412974
 30
0.0
 10
100.0542803444138
 20
149.8595049436845
 30
0.0
 10
100.0755880540905
 20
149.8528714583231
 30
0.0
 10
100.0965105422014
 20
149.8463578995821
 30
0.0
 10
100.1170374584969
 20
149.8385487024882
 30
0.0
 10
100.1371175151821
 20
149.8297273492612
 30
0.0
 10
100.1570123818239
 20
149.8209873517208
 30
0.0
 10
100.1764685932516
 20
149.8112537813506
 30
0.0
 10
100.1952600331892
 20
149.8003738452467
 30
0.0
 10
100.2139609184821
 20
149.7895463387993
 30
0.0
 10
100.2320034238236
 20
149.7775834885109
 30
0.0
 10
100.2494511189244
 20
149.764810945227
 30
0.0
 10
100.2672732591746
 20
149.7517642902706
 30
0.0
 10
100.2844747847716
 20
149.7378728157369
 30
0.0
 10
100.3008197512469
 20
149.7230386509058
 30
0.0
 10
100.3174730962946
 20
149.7079246116202
 30
0.0
 10
100.3332372561174
 20
149.6918319752223
 30
0.0
 10
100.3482369508073
 20
149.6750569606996
 30
0.0
 10
100.3634094785918
 20
149.6580886570644
 30
0.0
 10
100.3777998227381
 20
149.6404221593845
 30
0.0
 10
100.3911382265542
 20
149.6219948564806
 30
0.0
 10
100.4045440100869
 20
149.6034744669934
 30
0.0
 10
100.416887198571
 20
149.5841855663646
 30
0.0
 10
100.4283945968283
 20
149.5644168292603
 30
0.0
 10
100.4400453347093
 20
149.544401846803
 30
0.0
 10
100.4508393309719
 20
149.5238949994428
 30
0.0
 10
100.4605705535241
 20
149.5028873684819
 30
0.0
 10
100.4705456979902
 20
149.4813531622118
 30
0.0
 10
100.4794041222331
 20
149.4592927525094
 30
0.0
 10
100.4871016061601
 20
149.4368419826473
 30
0.0
 10
100.4949842405999
 20
149.4138511958644
 30
0.0
 10
100.5016494139641
 20
149.3904510441091
 30
0.0
 10
100.507423262705
 20
149.366845165234
 30
0.0
 10
100.5134043029328
 20
149.3423922019633
 30
0.0
 10
100.5184289013636
 20
149.3177184818428
 30
0.0
 10
100.5226645055972
 20
149.2928969141038
 30
0.0
 10
100.5270716024808
 20
149.2670703619023
 30
0.0
 10
100.5306245216078
 20
149.2410837475016
 30
0.0
 10
100.5328253342168
 20
149.2149972283198
 30
0.0
 10
100.5351368247512
 20
149.1875988292335
 30
0.0
 10
100.5359567955169
 20
149.1600902243653
 30
0.0
 10
100.5367767675159
 20
149.1325816203654
 30
0.0
 10
100.5358754595149
 20
149.1099894653653
 30
0.0
 10
100.5349741515626
 20
149.0873973099507
 30
0.0
 10
100.5333898241478
 20
149.0648427638244
 30
0.0
 10
100.531852055654
 20
149.0429510322978
 30
0.0
 10
100.5296708218756
 20
149.0210947320768
 30
0.0
 10
100.5266159384189
 20
148.9993618689418
 30
0.0
 10
100.5236356421705
 20
148.9781596295102
 30
0.0
 10
100.5198238370246
 20
148.9570748731351
 30
0.0
 10
100.5153261294496
 20
148.9361389372442
 30
0.0
 10
100.510925191988
 20
148.9156534470221
 30
0.0
 10
100.5058675495551
 20
148.8953104423014
 30
0.0
 10
100.5000848867281
 20
148.8751739658099
 30
0.0
 10
100.4944012934563
 20
148.8553824708283
 30
0.0
 10
100.4880173093328
 20
148.8357904881413
 30
0.0
 10
100.4808922107531
 20
148.8164669580782
 30
0.0
 10
100.4739144463793
 20
148.7975430038113
 30
0.0
 10
100.4662259004825
 20
148.7788765147207
 30
0.0
 10
100.4577481017567
 20
148.7605824015621
 30
0.0
 10
100.4492206096718
 20
148.7421810558554
 30
0.0
 10
100.4398945850929
 20
148.7241564643026
 30
0.0
 10
100.4300880684598
 20
148.7063913162439
 30
0.0
 10
100.4203357272572
 20
148.6887243105283
 30
0.0
 10
100.4101081882279
 20
148.67131388967
 30
0.0
 10
100.3990410931558
 20
148.6544581929159
 30
0.0
 10
100.3882386933084
 20
148.6380056392102
 30
0.0
 10
100.3766364170173
 20
148.6220815919074
 30
0.0
 10
100.364607174594
 20
148.6064765033267
 30
0.0
 10
100.3529331977398
 20
148.5913322875482
 30
0.0
 10
100.340857101946
 20
148.5764884687648
 30
0.0
 10
100.3279152936329
 20
148.5624462467247
 30
0.0
 10
100.3153868325713
 20
148.5488525179519
 30
0.0
 10
100.3020470757116
 20
148.5360099993741
 30
0.0
 10
100.2884009611142
 20
148.5234964047017
 30
0.0
 10
100.2751039608335
 20
148.5113029506105
 30
0.0
 10
100.2615160776595
 20
148.4994218057102
 30
0.0
 10
100.2471931563372
 20
148.4884979953673
 30
0.0
 10
100.2330905282461
 20
148.4777421983387
 30
0.0
 10
100.2182752985894
 20
148.467914513826
 30
0.0
 10
100.2031628999113
 20
148.4585800002875
 30
0.0
 10
100.1880956016385
 20
148.4492733440308
 30
0.0
 10
100.1727329054023
 20
148.4404569195685
 30
0.0
 10
100.1568746818589
 20
148.4326134385329
 30
0.0
 10
100.1409287984997
 20
148.424726600932
 30
0.0
 10
100.1244818944211
 20
148.4178234928037
 30
0.0
 10
100.1077640103603
 20
148.4117272911866
 30
0.0
 10
100.0911143208031
 20
148.4056559567981
 30
0.0
 10
100.0741958574828
 20
148.4003849593861
 30
0.0
 10
100.0572773944828
 20
148.395113962387
 30
0.0
 10
100.0572773944828
 20
148.395113962387
 30
0.0
 10
100.0260981164821
 20
148.3874801103882
 30
0.0
 10
100.0260981164821
 20
148.3874801103882
 30
0.0
 10
100.0260981164821
 20
148.3874801103882
 30
0.0
 10
100.4823745494468
 20
147.5956504763677
 30
0.0
 10
100.4823745494468
 20
147.5956504763677
 30
0.0
 10
100.4823745494468
 20
147.5956504763677
 30
0.0
 10
100.4938754914456
 20
147.5762813973671
 30
0.0
 10
100.4938754914456
 20
147.5762813973671
 30
0.0
 10
100.4993279904457
 20
147.5680006493666
 30
0.0
 10
100.5047804887907
 20
147.5597199016958
 30
0.0
 10
100.5102457154247
 20
147.5514438166732
 30
0.0
 10
100.5146762045049
 20
147.5447346522076
 30
0.0
 10
100.5191150584137
 20
147.5380285519602
 30
0.0
 10
100.5232289962097
 20
147.5311221595995
 30
0.0
 10
100.5264185475637
 20
147.5257676077825
 30
0.0
 10
100.5294127931788
 20
147.5202926612016
 30
0.0
 10
100.5322608435215
 20
147.5147519360901
 30
0.0
 10
100.5342609033139
 20
147.5108609299012
 30
0.0
 10
100.5361888649818
 20
147.5069374841625
 30
0.0
 10
100.537905748259
 20
147.5028976362549
 30
0.0
 10
100.5407550292175
 20
147.4961932423853
 30
0.0
 10
100.5430229667237
 20
147.4891682584311
 30
0.0
 10
100.5441151435794
 20
147.4820114890211
 30
0.0
 10
100.5454169915253
 20
147.4734807959335
 30
0.0
 10
100.5450483124415
 20
147.4647628613652
 30
0.0
 10
100.5446796334405
 20
147.4560449273653
 30
0.0
 10
100.5439964854398
 20
147.4445084043651
 30
0.0
 10
100.5433133366704
 20
147.432971881189
 30
0.0
 10
100.5412926909893
 20
147.4216110090576
 30
0.0
 10
100.5394360148367
 20
147.4111720387064
 30
0.0
 10
100.5364501025348
 20
147.4008813688905
 30
0.0
 10
100.5322608433643
 20
147.3911285236673
 30
0.0
 10
100.5283305194506
 20
147.3819784951638
 30
0.0
 10
100.5233410075126
 20
147.3733018608114
 30
0.0
 10
100.5175840910339
 20
147.3651619617124
 30
0.0
 10
100.511793252571
 20
147.356974099173
 30
0.0
 10
100.5052259392332
 20
147.3493293158275
 30
0.0
 10
100.4978269248243
 20
147.3425823430346
 30
0.0
 10
100.4904475799515
 20
147.3358533063922
 30
0.0
 10
100.4822409501177
 20
147.3300173131702
 30
0.0
 10
100.4735538343469
 20
147.3250831382707
 30
0.0
 10
100.4647515507749
 20
147.3200835494759
 30
0.0
 10
100.455455956914
 20
147.3160098488753
 30
0.0
 10
100.4458938013337
 20
147.3126643481419
 30
0.0
 10
100.4357901520545
 20
147.3091293956107
 30
0.0
 10
100.4253888960813
 20
147.3064074523713
 30
0.0
 10
100.4148468256382
 20
147.3047614818067
 30
0.0
 10
100.4034780306458
 20
147.3029864318285
 30
0.0
 10
100.3919454694338
 20
147.302462730372
 30
0.0
 10
100.3804129074338
 20
147.3019390293725
 30
0.0
 10
100.3650839184334
 20
147.3022395153727
 30
0.0
 10
100.3497549293925
 20
147.3025400013011
 30
0.0
 10
100.3346891793707
 20
147.3053259724326
 30
0.0
 10
100.3223113679437
 20
147.3076148877042
 30
0.0
 10
100.3101112438514
 20
147.3115815149036
 30
0.0
 10
100.2991262798682
 20
147.317744762419
 30
0.0
 10
100.2882503996767
 20
147.3238468071467
 30
0.0
 10
100.2785656656556
 20
147.3321020626801
 30
0.0
 10
100.270337266126
 20
147.3414533621729
 30
0.0
 10
100.260208109158
 20
147.3529648086078
 30
0.0
 10
100.2522858234371
 20
147.3661371563783
 30
0.0
 10
100.2443635374376
 20
147.3793095043785
 30
0.0
 10
100.2443635374376
 20
147.3793095043785
 30
0.0
 10
99.66753641648165
 20
148.3722124074044
 30
0.0
 10
99.66753641648165
 20
148.3722124074044
 30
0.0
 10
99.66753641648165
 20
148.3722124074044
 30
0.0
 10
99.45317887848194
 20
148.3722124074144
 30
0.0
 10
99.45317887848194
 20
148.3722124074144
 30
0.0
 10
99.45317887848194
 20
148.3722124074144
 30
0.0
 10
99.45295506644263
 20
147.4989462034132
 30
0.0
 10
99.45295506644263
 20
147.4989462034132
 30
0.0
 10
99.45282989044202
 20
147.4810427164138
 30
0.0
 10
99.45270471397554
 20
147.4631392290833
 30
0.0
 10
99.45126159522955
 20
147.4453196085253
 30
0.0
 10
99.45001833679629
 20
147.429967861757
 30
0.0
 10
99.44779690668977
 20
147.4146783605835
 30
0.0
 10
99.44448771002881
 20
147.3995958809326
 30
0.0
 10
99.44173931562001
 20
147.3870693958055
 30
0.0
 10
99.43824059751965
 20
147.3746857107621
 30
0.0
 10
99.43319790053012
 20
147.3629040003996
 30
0.0
 10
99.4289119688484
 20
147.352890389465
 30
0.0
 10
99.42351070018819
 20
147.3433116320293
 30
0.0
 10
99.41682767660613
 20
147.3346794764556
 30
0.0
 10
99.41069542989474
 20
147.3267587341498
 30
0.0
 10
99.40348399235837
 20
147.3196349960336
 30
0.0
 10
99.39537703866817
 20
147.3137933291705
 30
0.0
 10
99.3867628758959
 20
147.3075861802042
 30
0.0
 10
99.37713763622415
 20
147.3028265457493
 30
0.0
 10
99.36715251531835
 20
147.2991165771411
 30
0.0
 10
99.35619457829789
 20
147.2950451590036
 30
0.0
 10
99.3448032200815
 20
147.2922379007707
 30
0.0
 10
99.33328308728689
 20
147.2906492197666
 30
0.0
 10
99.32003698074799
 20
147.2888225187885
 30
0.0
 10
99.30662062243293
 20
147.2886068884203
 30
0.0
 10
99.29320426443294
 20
147.2883912584204
 30
0.0
 10
99.27958427543315
 20
147.2891839304215
 30
0.0
 10
99.26596428701218
 20
147.2899766027666
 30
0.0
 10
99.2525609499398
 20
147.2923426912287
 30
0.0
 10
99.24019125788384
 20
147.2945263105386
 30
0.0
 10
99.22800609001098
 20
147.298050024553
 30
0.0
 10
99.21643356024514
 20
147.3030680100725
 30
0.0
 10
99.20555290370157
 20
147.3077859911959
 30
0.0
 10
99.19521382089592
 20
147.3138249123575
 30
0.0
 10
99.18595107531745
 20
147.3211317053431
 30
0.0
 10
99.17655759907278
 20
147.3285416234648
 30
0.0
 10
99.16827105643554
 20
147.3372554544268
 30
0.0
 10
99.15998451343576
 20
147.3459692864272
 30
0.0
  0
ENDBLK
  5
59
330
56
100
AcDbEntity
  8
0
100
AcDbBlockEnd
  0
BLOCK
  5
5D
330
5B
100
AcDbEntity
  8
0
100
AcDbBlockBegin
  2
block 6
 70
     0
 10
0.0
 20
0.0
 30
0.0
  3
block 6
  1

  0
SPLINE
  5
5F
330
5B
100
AcDbEntity
  8
0
 62
     7
420
 16777215
370
     5
100
AcDbSpline
210
0.0
220
0.0
230
1.0
 70
    11
 71
     3
 72
   212
 73
   208
 74
     0
 42
0.0000000001
 43
0.0000000001
 12
1.0
 22
0.0
 32
0.0
 13
1.0
 23
0.0
 33
0.0
 40
0.0
 40
0.0
 40
0.0
 40
0.0
 40
1.0
 40
1.0
 40
1.0
 40
2.0
 40
2.0
 40
2.0
 40
3.0
 40
3.0
 40
3.0
 40
4.0
 40
4.0
 40
4.0
 40
5.0
 40
5.0
 40
5.0
 40
6.0
 40
6.0
 40
6.0
 40
7.0
 40
7.0
 40
7.0
 40
8.0
 40
8.0
 40
8.0
 40
9.0
 40
9.0
 40
9.0
 40
10.0
 40
10.0
 40
10.0
 40
11.0
 40
11.0
 40
11.0
 40
12.0
 40
12.0
 40
12.0
 40
13.0
 40
13.0
 40
13.0
 40
14.0
 40
14.0
 40
14.0
 40
15.0
 40
15.0
 40
15.0
 40
16.0
 40
16.0
 40
16.0
 40
17.0
 40
17.0
 40
17.0
 40
18.0
 40
18.0
 40
18.0
 40
19.0
 40
19.0
 40
19.0
 40
20.0
 40
20.0
 40
20.0
 40
21.0
 40
21.0
 40
21.0
 40
22.0
 40
22.0
 40
22.0
 40
23.0
 40
23.0
 40
23.0
 40
24.0
 40
24.0
 40
24.0
 40
25.0
 40
25.0
 40
25.0
 40
26.0
 40
26.0
 40
26.0
 40
27.0
 40
27.0
 40
27.0
 40
28.0
 40
28.0
 40
28.0
 40
29.0
 40
29.0
 40
29.0
 40
30.0
 40
30.0
 40
30.0
 40
31.0
 40
31.0
 40
31.0
 40
32.0
 40
32.0
 40
32.0
 40
33.0
 40
33.0
 40
33.0
 40
34.0
 40
34.0
 40
34.0
 40
35.0
 40
35.0
 40
35.0
 40
36.0
 40
36.0
 40
36.0
 40
37.0
 40
37.0
 40
37.0
 40
38.0
 40
38.0
 40
38.0
 40
39.0
 40
39.0
 40
39.0
 40
40.0
 40
40.0
 40
40.0
 40
41.0
 40
41.0
 40
41.0
 40
42.0
 40
42.0
 40
42.0
 40
43.0
 40
43.0
 40
43.0
 40
44.0
 40
44.0
 40
44.0
 40
45.0
 40
45.0
 40
45.0
 40
46.0
 40
46.0
 40
46.0
 40
47.0
 40
47.0
 40
47.0
 40
48.0
 40
48.0
 40
48.0
 40
49.0
 40
49.0
 40
49.0
 40
50.0
 40
50.0
 40
50.0
 40
51.0
 40
51.0
 40
51.0
 40
52.0
 40
52.0
 40
52.0
 40
53.0
 40
53.0
 40
53.0
 40
54.0
 40
54.0
 40
54.0
 40
55.0
 40
55.0
 40
55.0
 40
56.0
 40
56.0
 40
56.0
 40
57.0
 40
57.0
 40
57.0
 40
58.0
 40
58.0
 40
58.0
 40
59.0
 40
59.0
 40
59.0
 40
60.0
 40
60.0
 40
60.0
 40
61.0
 40
61.0
 40
61.0
 40
62.0
 40
62.0
 40
62.0
 40
63.0
 40
63.0
 40
63.0
 40
64.0
 40
64.0
 40
64.0
 40
65.0
 40
65.0
 40
65.0
 40
66.0
 40
66.0
 40
66.0
 40
67.0
 40
67.0
 40
67.0
 40
68.0
 40
68.0
 40
68.0
 40
69.0
 40
69.0
 40
69.0
 40
69.0
 10
102.23915819355
 20
149.8850468642891
 30
0.0
 10
102.23915819355
 20
149.8850468642891
 30
0.0
 10
102.9138461315496
 20
149.8844829242585
 30
0.0
 10
102.9138461315496
 20
149.8844829242585
 30
0.0
 10
102.9345735375498
 20
149.8833320192576
 30
0.0
 10
102.9553009430674
 20
149.8821811133338
 30
0.0
 10
102.9759400833306
 20
149.8799670009311
 30
0.0
 10
102.995845051317
 20
149.8778316485892
 30
0.0
 10
103.0156679218786
 20
149.8747073848637
 30
0.0
 10
103.0352115821988
 20
149.8703706632173
 30
0.0
 10
103.0542919948097
 20
149.8661367358447
 30
0.0
 10
103.0731062766701
 20
149.860747147658
 30
0.0
 10
103.0916606291693
 20
149.8545649300017
 30
0.0
 10
103.1098763860958
 20
149.8484955307
 30
0.0
 10
103.1278416139226
 20
149.841662167117
 30
0.0
 10
103.1452872241996
 20
149.8336787820522
 30
0.0
 10
103.1627412243817
 20
149.8256915576353
 30
0.0
 10
103.1796751071074
 20
149.816553205338
 30
0.0
 10
103.1960913664685
 20
149.8065832398786
 30
0.0
 10
103.2124293341695
 20
149.7966608227157
 30
0.0
 10
103.2282546039816
 20
149.7859147056568
 30
0.0
 10
103.2435085660373
 20
149.7744072832716
 30
0.0
 10
103.2591888044828
 20
149.7625782826337
 30
0.0
 10
103.2742653582927
 20
149.7499448323404
 30
0.0
 10
103.2886678038164
 20
149.7365864218326
 30
0.0
 10
103.3035035166495
 20
149.722826151615
 30
0.0
 10
103.3176239528785
 20
149.7082966472992
 30
0.0
 10
103.3310045887231
 20
149.6931206559775
 30
0.0
 10
103.3445549671242
 20
149.6777521467809
 30
0.0
 10
103.3573466563358
 20
149.6617206442778
 30
0.0
 10
103.3693899405057
 20
149.6451389658697
 30
0.0
 10
103.3812962487532
 20
149.6287458814242
 30
0.0
 10
103.3924710793187
 20
149.611815064903
 30
0.0
 10
103.4026948784047
 20
149.5943348231077
 30
0.0
 10
103.4129780941277
 20
149.576752993126
 30
0.0
 10
103.4222991922201
 20
149.5586153332329
 30
0.0
 10
103.430919401768
 20
149.5401437385342
 30
0.0
 10
103.4397043204339
 20
149.5213192011312
 30
0.0
 10
103.4477613104612
 20
149.5021478458063
 30
0.0
 10
103.4546280013448
 20
149.4825657114272
 30
0.0
 10
103.46163988158
 20
149.4625695322848
 30
0.0
 10
103.4674105951424
 20
149.4421450194115
 30
0.0
 10
103.4726916967212
 20
149.4216007399913
 30
0.0
 10
103.4781177377564
 20
149.4004926242817
 30
0.0
 10
103.4830269232878
 20
149.3792580778459
 30
0.0
 10
103.4868039582511
 20
149.3578133173652
 30
0.0
 10
103.4907183644614
 20
149.3355886081951
 30
0.0
 10
103.4934167695877
 20
149.3131381158884
 30
0.0
 10
103.4952713148812
 20
149.290638950896
 30
0.0
 10
103.49719166315
 20
149.2673414705503
 30
0.0
 10
103.4982072055208
 20
149.2439918022324
 30
0.0
 10
103.4992227485198
 20
149.2206421332321
 30
0.0
 10
103.4990308775192
 20
149.1953940182322
 30
0.0
 10
103.498839006939
 20
149.1701459035136
 30
0.0
 10
103.4969647863869
 20
149.1450004106286
 30
0.0
 10
103.4951595695766
 20
149.1207807069217
 30
0.0
 10
103.4917936015161
 20
149.0966562076361
 30
0.0
 10
103.4873684485864
 20
149.0727456301269
 30
0.0
 10
103.4830042282749
 20
149.0491642918811
 30
0.0
 10
103.4776097913916
 20
149.0257910247332
 30
0.0
 10
103.4709982245058
 20
149.0027488121329
 30
0.0
 10
103.464512611621
 20
148.980145566408
 30
0.0
 10
103.4568558010047
 20
148.9578608818337
 30
0.0
 10
103.4478541152081
 20
148.9361389367988
 30
0.0
 10
103.4388943483211
 20
148.914518146182
 30
0.0
 10
103.4286022026764
 20
148.8934548661945
 30
0.0
 10
103.4173716299044
 20
148.8729160041259
 30
0.0
 10
103.4059394667016
 20
148.8520084664649
 30
0.0
 10
103.3935348841932
 20
148.8316443424519
 30
0.0
 10
103.3801152595735
 20
148.8119510335008
 30
0.0
 10
103.366501029043
 20
148.7919721402341
 30
0.0
 10
103.3518421034899
 20
148.7726836588709
 30
0.0
 10
103.3360850032414
 20
148.7543730057539
 30
0.0
 10
103.3197884144638
 20
148.7354354360628
 30
0.0
 10
103.3023171654969
 20
148.7175437982412
 30
0.0
 10
103.2848459164966
 20
148.6996521592417
 30
0.0
 10
103.2848459164966
 20
148.6996521592417
 30
0.0
 10
103.2809440964963
 20
148.699652159242
 30
0.0
 10
103.2809440964963
 20
148.699652159242
 30
0.0
 10
103.2809440964963
 20
148.699652159242
 30
0.0
 10
103.2649592034965
 20
148.6956659972429
 30
0.0
 10
103.2649592034965
 20
148.6956659972429
 30
0.0
 10
103.284771781495
 20
148.6717213822417
 30
0.0
 10
103.3045843587862
 20
148.6477767668452
 30
0.0
 10
103.3231017218847
 20
148.622846726428
 30
0.0
 10
103.3405556540627
 20
148.5993483896328
 30
0.0
 10
103.3568588656673
 20
148.5749745614706
 30
0.0
 10
103.3722123926274
 20
148.5500274556093
 30
0.0
 10
103.3867039711879
 20
148.5264808825389
 30
0.0
 10
103.4003495027382
 20
148.5024235926886
 30
0.0
 10
103.4128557063217
 20
148.4777726759908
 30
0.0
 10
103.4247099823691
 20
148.4544067704693
 30
0.0
 10
103.4355406170152
 20
148.4305075145554
 30
0.0
 10
103.4450316635661
 20
148.4060823864821
 30
0.0
 10
103.4544321577132
 20
148.3818902942555
 30
0.0
 10
103.4625185033742
 20
148.3571823165078
 30
0.0
 10
103.4693047535841
 20
148.3321341349817
 30
0.0
 10
103.4762076276822
 20
148.3066554924192
 30
0.0
 10
103.4817653372492
 20
148.280824852582
 30
0.0
 10
103.4862394673441
 20
148.2547989406803
 30
0.0
 10
103.490932419161
 20
148.2275001478582
 30
0.0
 10
103.4944332076902
 20
148.1999865150605
 30
0.0
 10
103.4964002960214
 20
148.1723833321666
 30
0.0
 10
103.4984339340848
 20
148.1438462896191
 30
0.0
 10
103.4988283414704
 20
148.1152135352322
 30
0.0
 10
103.4992227484691
 20
148.0865807812317
 30
0.0
 10
103.4982966304677
 20
148.0515183962321
 30
0.0
 10
103.4973705120088
 20
148.0164560112403
 30
0.0
 10
103.4941423340695
 20
147.9815855541189
 30
0.0
 10
103.4910581713153
 20
147.9482707347105
 30
0.0
 10
103.4858727660133
 20
147.9151311006132
 30
0.0
 10
103.4794655815639
 20
147.8822352308194
 30
0.0
 10
103.4732027331466
 20
147.8500804134097
 30
0.0
 10
103.4657725321253
 20
147.818158501344
 30
0.0
 10
103.4563214727748
 20
147.7868363416219
 30
0.0
 10
103.4471233405271
 20
147.7563524184189
 30
0.0
 10
103.4360110661285
 20
147.7264365762263
 30
0.0
 10
103.4235810255037
 20
147.6970823572428
 30
0.0
 10
103.4115916450245
 20
147.6687687812297
 30
0.0
 10
103.3983762750136
 20
147.6409777138096
 30
0.0
 10
103.3835022020889
 20
147.6141022581087
 30
0.0
 10
103.3691696005427
 20
147.5882051685953
 30
0.0
 10
103.3532968637858
 20
147.5631582408769
 30
0.0
 10
103.3360850027826
 20
147.539025025723
 30
0.0
 10
103.3195946134251
 20
147.51590340545
 30
0.0
 10
103.3018750113835
 20
147.4936205027752
 30
0.0
 10
103.2824584083657
 20
147.4729796414404
 30
0.0
 10
103.2634133645272
 20
147.4527337668826
 30
0.0
 10
103.2427356464393
 20
147.4340676902441
 30
0.0
 10
103.2220579284388
 20
147.415401613245
 30
0.0
 10
103.2070243684382
 20
147.404357649246
 30
0.0
 10
103.1919908094983
 20
147.3933136849287
 30
0.0
 10
103.1763342001748
 20
147.3832256564889
 30
0.0
 10
103.161530747876
 20
147.3736873430079
 30
0.0
 10
103.1461702974241
 20
147.3650036225617
 30
0.0
 10
103.1306104720476
 20
147.3566946047525
 30
0.0
 10
103.1154514579071
 20
147.3485996219733
 30
0.0
 10
103.1001032080919
 20
147.3408602862572
 30
0.0
 10
103.0843222536178
 20
147.3341149861325
 30
0.0
 10
103.069219411761
 20
147.3276595336929
 30
0.0
 10
103.0537202531925
 20
147.322114524229
 30
0.0
 10
103.0380340347671
 20
147.3171802722473
 30
0.0
 10
103.0220411632832
 20
147.3121495595758
 30
0.0
 10
103.0058538467123
 20
147.3077537174433
 30
0.0
 10
102.989487854789
 20
147.3041969915786
 30
0.0
 10
102.971958238313
 20
147.3003873819546
 30
0.0
 10
102.9542236355489
 20
147.2975404531207
 30
0.0
 10
102.9364257502691
 20
147.2951651437976
 30
0.0
 10
102.9171099304394
 20
147.2925872506255
 30
0.0
 10
102.897719573384
 20
147.2905648538523
 30
0.0
 10
102.8782832321292
 20
147.2895202390332
 30
0.0
 10
102.857765494517
 20
147.2884175040831
 30
0.0
 10
102.8371965134332
 20
147.288404381262
 30
0.0
 10
102.8166275324331
 20
147.2883912582626
 30
0.0
 10
102.8166275324331
 20
147.2883912582626
 30
0.0
 10
102.2387155314329
 20
147.2883912582882
 30
0.0
 10
102.2387155314329
 20
147.2883912582882
 30
0.0
 10
102.2217549674329
 20
147.2886851672905
 30
0.0
 10
102.2047944039686
 20
147.2889790774798
 30
0.0
 10
102.1879113887508
 20
147.2906492200387
 30
0.0
 10
102.1734290435368
 20
147.2920818776992
 30
0.0
 10
102.1590037606842
 20
147.29452720907
 30
0.0
 10
102.1450101132765
 20
147.2985520863778
 30
0.0
 10
102.1330725445205
 20
147.3019855907532
 30
0.0
 10
102.1214490895664
 20
147.3065685771401
 30
0.0
 10
102.1105761944118
 20
147.3126643480264
 30
0.0
 10
102.1010429972525
 20
147.3180090317443
 30
0.0
 10
102.0920867950931
 20
147.3245166728878
 30
0.0
 10
102.0846096329749
 20
147.3324215143419
 30
0.0
 10
102.0769675583232
 20
147.3405007010126
 30
0.0
 10
102.0708704851145
 20
147.3500393995515
 30
0.0
 10
102.0659814473209
 20
147.3600815474161
 30
0.0
 10
102.0604589307322
 20
147.371424869048
 30
0.0
 10
102.0564777842649
 20
147.3834105573981
 30
0.0
 10
102.0535626571825
 20
147.3956444470027
 30
0.0
 10
102.050078257436
 20
147.4102673984636
 30
0.0
 10
102.0481168792964
 20
147.4252449549877
 30
0.0
 10
102.0473532619243
 20
147.4402391938748
 30
0.0
 10
102.0464559676975
 20
147.4578582849178
 30
0.0
 10
102.0472124934411
 20
147.4755004102971
 30
0.0
 10
102.0479690194427
 20
147.4931425352978
 30
0.0
 10
102.0479690194427
 20
147.4931425352978
 30
0.0
 10
102.047917752541
 20
149.6874757512978
 30
0.0
 10
102.047917752541
 20
149.6874757512978
 30
0.0
 10
102.0479349645414
 20
149.7038895202977
 30
0.0
 10
102.0479521765735
 20
149.7203032895079
 30
0.0
 10
102.0496112240784
 20
149.7365864221627
 30
0.0
 10
102.051046547041
 20
149.7506737548929
 30
0.0
 10
102.0537107550437
 20
149.7646633084541
 30
0.0
 10
102.0575140906504
 20
149.7783587168836
 30
0.0
 10
102.0607591226206
 20
149.7900437330878
 30
0.0
 10
102.0648333961077
 20
149.8015146228376
 30
0.0
 10
102.0704973715213
 20
149.812228144891
 30
0.0
 10
102.0754875138838
 20
149.8216670983376
 30
0.0
 10
102.0817116099126
 20
149.8305181700999
 30
0.0
 10
102.0891255571445
 20
149.8381947063318
 30
0.0
 10
102.0965913709564
 20
149.8459249461675
 30
0.0
 10
102.1052637421555
 20
149.8524641593299
 30
0.0
 10
102.1145276279581
 20
149.8579518730045
 30
0.0
 10
102.1250047383784
 20
149.864158273142
 30
0.0
 10
102.1362384414676
 20
149.8690197245714
 30
0.0
 10
102.1478325655773
 20
149.8726286248298
 30
0.0
 10
102.1614101794843
 20
149.8768549254858
 30
0.0
 10
102.1754820826057
 20
149.8793634502743
 30
0.0
 10
102.1896048605292
 20
149.8810959815802
 30
0.0
 10
102.2060765016392
 20
149.8831166629244
 30
0.0
 10
102.2226173475497
 20
149.8840817632895
 30
0.0
 10
102.23915819355
 20
149.8850468642891
 30
0.0
  0
ENDBLK
  5
5E
330
5B
100
AcDbEntity
  8
0
100
AcDbBlockEnd
  0
BLOCK
  5
62
330
60
100
AcDbEntity
  8
0
100
AcDbBlockBegin
  2
block 7
 70
     0
 10
0.0
 20
0.0
 30
0.0
  3
block 7
  1

  0
SPLINE
  5
64
330
60
100
AcDbEntity
  8
0
 62
     7
420
 16777215
370
     5
100
AcDbSpline
210
0.0
220
0.0
230
1.0
 70
    11
 71
     3
 72
   224
 73
   220
 74
     0
 42
0.0000000001
 43
0.0000000001
 12
1.0
 22
0.0
 32
0.0
 13
1.0
 23
0.0
 33
0.0
 40
0.0
 40
0.0
 40
0.0
 40
0.0
 40
1.0
 40
1.0
 40
1.0
 40
2.0
 40
2.0
 40
2.0
 40
3.0
 40
3.0
 40
3.0
 40
4.0
 40
4.0
 40
4.0
 40
5.0
 40
5.0
 40
5.0
 40
6.0
 40
6.0
 40
6.0
 40
7.0
 40
7.0
 40
7.0
 40
8.0
 40
8.0
 40
8.0
 40
9.0
 40
9.0
 40
9.0
 40
10.0
 40
10.0
 40
10.0
 40
11.0
 40
11.0
 40
11.0
 40
12.0
 40
12.0
 40
12.0
 40
13.0
 40
13.0
 40
13.0
 40
14.0
 40
14.0
 40
14.0
 40
15.0
 40
15.0
 40
15.0
 40
16.0
 40
16.0
 40
16.0
 40
17.0
 40
17.0
 40
17.0
 40
18.0
 40
18.0
 40
18.0
 40
19.0
 40
19.0
 40
19.0
 40
20.0
 40
20.0
 40
20.0
 40
21.0
 40
21.0
 40
21.0
 40
22.0
 40
22.0
 40
22.0
 40
23.0
 40
23.0
 40
23.0
 40
24.0
 40
24.0
 40
24.0
 40
25.0
 40
25.0
 40
25.0
 40
26.0
 40
26.0
 40
26.0
 40
27.0
 40
27.0
 40
27.0
 40
28.0
 40
28.0
 40
28.0
 40
29.0
 40
29.0
 40
29.0
 40
30.0
 40
30.0
 40
30.0
 40
31.0
 40
31.0
 40
31.0
 40
32.0
 40
32.0
 40
32.0
 40
33.0
 40
33.0
 40
33.0
 40
34.0
 40
34.0
 40
34.0
 40
35.0
 40
35.0
 40
35.0
 40
36.0
 40
36.0
 40
36.0
 40
37.0
 40
37.0
 40
37.0
 40
38.0
 40
38.0
 40
38.0
 40
39.0
 40
39.0
 40
39.0
 40
40.0
 40
40.0
 40
40.0
 40
41.0
 40
41.0
 40
41.0
 40
42.0
 40
42.0
 40
42.0
 40
43.0
 40
43.0
 40
43.0
 40
44.0
 40
44.0
 40
44.0
 40
45.0
 40
45.0
 40
45.0
 40
46.0
 40
46.0
 40
46.0
 40
47.0
 40
47.0
 40
47.0
 40
48.0
 40
48.0
 40
48.0
 40
49.0
 40
49.0
 40
49.0
 40
50.0
 40
50.0
 40
50.0
 40
51.0
 40
51.0
 40
51.0
 40
52.0
 40
52.0
 40
52.0
 40
53.0
 40
53.0
 40
53.0
 40
54.0
 40
54.0
 40
54.0
 40
55.0
 40
55.0
 40
55.0
 40
56.0
 40
56.0
 40
56.0
 40
57.0
 40
57.0
 40
57.0
 40
58.0
 40
58.0
 40
58.0
 40
59.0
 40
59.0
 40
59.0
 40
60.0
 40
60.0
 40
60.0
 40
61.0
 40
61.0
 40
61.0
 40
62.0
 40
62.0
 40
62.0
 40
63.0
 40
63.0
 40
63.0
 40
64.0
 40
64.0
 40
64.0
 40
65.0
 40
65.0
 40
65.0
 40
66.0
 40
66.0
 40
66.0
 40
67.0
 40
67.0
 40
67.0
 40
68.0
 40
68.0
 40
68.0
 40
69.0
 40
69.0
 40
69.0
 40
70.0
 40
70.0
 40
70.0
 40
71.0
 40
71.0
 40
71.0
 40
72.0
 40
72.0
 40
72.0
 40
73.0
 40
73.0
 40
73.0
 40
73.0
 10
105.9795938684333
 20
147.2883912581214
 30
0.0
 10
105.9611171844336
 20
147.2884150971213
 30
0.0
 10
105.942640499843
 20
147.2884389355412
 30
0.0
 10
105.9242738029272
 20
147.290084729133
 30
0.0
 10
105.9086906749836
 20
147.2914810940976
 30
0.0
 10
105.8931867226036
 20
147.2940450373256
 30
0.0
 10
105.8779855847226
 20
147.2979875957775
 30
0.0
 10
105.86549523868
 20
147.3012270848034
 30
0.0
 10
105.8532093361855
 20
147.3053973383381
 30
0.0
 10
105.8418581945371
 20
147.3115353670299
 30
0.0
 10
105.832026414927
 20
147.3168518142394
 30
0.0
 10
105.8228959060207
 20
147.3236445139861
 30
0.0
 10
105.8153271425672
 20
147.3318570242999
 30
0.0
 10
105.8078452544914
 20
147.3399752702145
 30
0.0
 10
105.8018894657382
 20
147.3494809201658
 30
0.0
 10
105.7972634473781
 20
147.3595170571893
 30
0.0
 10
105.7917133509792
 20
147.3715579795584
 30
0.0
 10
105.7880773474604
 20
147.3843624935475
 30
0.0
 10
105.7854091470892
 20
147.3973379185905
 30
0.0
 10
105.7822322547343
 20
147.4127871063928
 30
0.0
 10
105.7804273656571
 20
147.428478585748
 30
0.0
 10
105.7797642423941
 20
147.4441906271579
 30
0.0
 10
105.7789677110545
 20
147.4630636392992
 30
0.0
 10
105.7798185614419
 20
147.4819663191302
 30
0.0
 10
105.7806694124428
 20
147.5008689981308
 30
0.0
 10
105.7806694124428
 20
147.5008689981308
 30
0.0
 10
105.7803287335405
 20
149.6761859411298
 30
0.0
 10
105.7803287335405
 20
149.6761859411298
 30
0.0
 10
105.7800201265411
 20
149.6946343681298
 30
0.0
 10
105.7797115188205
 20
149.7130827941358
 30
0.0
 10
105.7808932236421
 20
149.7315060071294
 30
0.0
 10
105.7818805476981
 20
149.7468987524459
 30
0.0
 10
105.7839082200921
 20
149.7622738972161
 30
0.0
 10
105.7876671096874
 20
149.7772297356901
 30
0.0
 10
105.7908478340014
 20
149.7898851749775
 30
0.0
 10
105.7952681666162
 20
149.8022403772029
 30
0.0
 10
105.801214881052
 20
149.8139216162433
 30
0.0
 10
105.8063335042447
 20
149.8239762206339
 30
0.0
 10
105.8125830043485
 20
149.8335314942574
 30
0.0
 10
105.8204075565606
 20
149.8415816485902
 30
0.0
 10
105.828201251398
 20
149.8496000558506
 30
0.0
 10
105.8375575998988
 20
149.8561251917701
 30
0.0
 10
105.8475030992726
 20
149.8613388154376
 30
0.0
 10
105.8589464228092
 20
149.8673376275819
 30
0.0
 10
105.8711697159714
 20
149.8716001447155
 30
0.0
 10
105.8836304894062
 20
149.8748865868193
 30
0.0
 10
105.8984363586292
 20
149.8787915315844
 30
0.0
 10
105.9135775060832
 20
149.8813184388962
 30
0.0
 10
105.9287897270608
 20
149.882789452938
 30
0.0
 10
105.9469800822905
 20
149.8845484510495
 30
0.0
 10
105.9652720635498
 20
149.8847976571216
 30
0.0
 10
105.9835640445499
 20
149.8850468641213
 30
0.0
 10
105.9835640445499
 20
149.8850468641213
 30
0.0
 10
107.0560771935496
 20
149.8844829240728
 30
0.0
 10
107.0560771935496
 20
149.8844829240728
 30
0.0
 10
107.0715331565497
 20
149.8845733290722
 30
0.0
 10
107.0869891194875
 20
149.8846637340428
 30
0.0
 10
107.1023654114038
 20
149.8833539432594
 30
0.0
 10
107.1158638334775
 20
149.882204114099
 30
0.0
 10
107.1293008562869
 20
149.8799752101818
 30
0.0
 10
107.1424442348224
 20
149.8765800580857
 30
0.0
 10
107.1538752928126
 20
149.8736272267114
 30
0.0
 10
107.1650842345384
 20
149.869792230379
 30
0.0
 10
107.1757491724686
 20
149.8647257582886
 30
0.0
 10
107.1853885900642
 20
149.8601464686069
 30
0.0
 10
107.1945835945578
 20
149.854561149247
 30
0.0
 10
107.2028447149233
 20
149.8477910438965
 30
0.0
 10
107.2107971071713
 20
149.8412739456181
 30
0.0
 10
107.2178841117933
 20
149.8336589604546
 30
0.0
 10
107.2237308623996
 20
149.825211425271
 30
0.0
 10
107.2296334702949
 20
149.8166831860437
 30
0.0
 10
107.2342720132905
 20
149.8073064131747
 30
0.0
 10
107.2378431238942
 20
149.7975513924162
 30
0.0
 10
107.2417165371679
 20
149.7869705868691
 30
0.0
 10
107.2443341476392
 20
149.7759447838086
 30
0.0
 10
107.2457459906503
 20
149.7648109450473
 30
0.0
 10
107.2473566086879
 20
149.7521095601288
 30
0.0
 10
107.2473980355432
 20
149.7392675770639
 30
0.0
 10
107.2474394625423
 20
149.7264255930641
 30
0.0
 10
107.247429674542
 20
149.713208603064
 30
0.0
 10
107.2474198870665
 20
149.6999916127008
 30
0.0
 10
107.2457459908005
 20
149.6869112604482
 30
0.0
 10
107.2442684218916
 20
149.6753650719585
 30
0.0
 10
107.2414942108736
 20
149.663925349301
 30
0.0
 10
107.2372786339279
 20
149.6530418319258
 30
0.0
 10
107.2334053857614
 20
149.6430421179455
 30
0.0
 10
107.2283153609689
 20
149.6335119430141
 30
0.0
 10
107.222037391166
 20
149.624817308499
 30
0.0
 10
107.215785723784
 20
149.6161591013544
 30
0.0
 10
107.2083560446584
 20
149.6083294480694
 30
0.0
 10
107.2000222628164
 20
149.6016731996563
 30
0.0
 10
107.1912324744299
 20
149.5946527357053
 30
0.0
 10
107.1814369353089
 20
149.5889376022099
 30
0.0
 10
107.1712332487854
 20
149.5841739949036
 30
0.0
 10
107.1599858063794
 20
149.5789231085005
 30
0.0
 10
107.1482424453966
 20
149.5748283718375
 30
0.0
 10
107.1362348395976
 20
149.5717552045104
 30
0.0
 10
107.1223716531732
 20
149.568207129042
 30
0.0
 10
107.1081562420874
 20
149.5660207526151
 30
0.0
 10
107.0938980546749
 20
149.5649813192978
 30
0.0
 10
107.0775890300285
 20
149.5637923782995
 30
0.0
 10
107.0612240385352
 20
149.5641040520726
 30
0.0
 10
107.0448590475353
 20
149.5644157260731
 30
0.0
 10
107.0448590475353
 20
149.5644157260731
 30
0.0
 10
106.1006186405357
 20
149.5644157261155
 30
0.0
 10
106.1006186405357
 20
149.5644157261155
 30
0.0
 10
106.1006186405357
 20
149.5644157261155
 30
0.0
 10
106.1006186405061
 20
148.9096078851155
 30
0.0
 10
106.1006186405061
 20
148.9096078851155
 30
0.0
 10
106.1006186405061
 20
148.9096078851155
 30
0.0
 10
106.7834282965056
 20
148.909607885085
 30
0.0
 10
106.7834282965056
 20
148.909607885085
 30
0.0
 10
106.7987006315053
 20
148.9095121650843
 30
0.0
 10
106.8139729661309
 20
148.9094164460223
 30
0.0
 10
106.8291520247163
 20
148.9079144131449
 30
0.0
 10
106.8424848840351
 20
148.9065950695945
 30
0.0
 10
106.8557457774125
 20
148.9041907025
 30
0.0
 10
106.8686663574666
 20
148.9005760371683
 30
0.0
 10
106.8799237652957
 20
148.8974266613944
 30
0.0
 10
106.8909228330813
 20
148.8933585190658
 30
0.0
 10
106.9014068049379
 20
148.8881572471018
 30
0.0
 10
106.9110639756238
 20
148.8833661648841
 30
0.0
 10
106.9202840911625
 20
148.8776136304171
 30
0.0
 10
106.9285023473175
 20
148.870658042539
 30
0.0
 10
106.9364454101477
 20
148.8639353667668
 30
0.0
 10
106.9434525859699
 20
148.8560888585716
 30
0.0
 10
106.94938849455
 20
148.8475139332054
 30
0.0
 10
106.9554457729474
 20
148.838763678803
 30
0.0
 10
106.9603875284545
 20
148.8292549152278
 30
0.0
 10
106.9640652463394
 20
148.8192894094885
 30
0.0
 10
106.9680224187798
 20
148.808566666228
 30
0.0
 10
106.9705161572644
 20
148.7973151317499
 30
0.0
 10
106.971968112794
 20
148.7859844720946
 30
0.0
 10
106.9736230599241
 20
148.773069722097
 30
0.0
 10
106.973924567499
 20
148.7600521760763
 30
0.0
 10
106.9742260754986
 20
148.7470346290763
 30
0.0
 10
106.9742270514979
 20
148.7341888130763
 30
0.0
 10
106.9742280274849
 20
148.7213429975884
 30
0.0
 10
106.9725326038961
 20
148.7086492779036
 30
0.0
 10
106.9710403806506
 20
148.6974769291697
 30
0.0
 10
106.9682340244245
 20
148.6864224029778
 30
0.0
 10
106.9640652468258
 20
148.6759088306508
 30
0.0
 10
106.9601721593419
 20
148.6660905431862
 30
0.0
 10
106.9550908916288
 20
148.65674402657
 30
0.0
 10
106.9488240038534
 20
148.6482487976051
 30
0.0
 10
106.9425661324436
 20
148.6397657909901
 30
0.0
 10
106.9351260500932
 20
148.6321316242408
 30
0.0
 10
106.9268088756302
 20
148.6256691786408
 30
0.0
 10
106.9179999086755
 20
148.6188246102129
 30
0.0
 10
106.9082070585211
 20
148.6132944268257
 30
0.0
 10
106.8980198619387
 20
148.6087344643716
 30
0.0
 10
106.8867495989772
 20
148.6036897029846
 30
0.0
 10
106.8749966812078
 20
148.5998324299686
 30
0.0
 10
106.8630214523871
 20
148.5968801646413
 30
0.0
 10
106.8491264484478
 20
148.5934546152038
 30
0.0
 10
106.8349321417223
 20
148.5912474996722
 30
0.0
 10
106.8206846675703
 20
148.5901062793484
 30
0.0
 10
106.8044132280644
 20
148.5888029397343
 30
0.0
 10
106.788072442492
 20
148.5888898430848
 30
0.0
 10
106.771731657492
 20
148.5889767470856
 30
0.0
 10
106.771731657492
 20
148.5889767470856
 30
0.0
 10
106.100618640492
 20
148.5889767471155
 30
0.0
 10
106.100618640492
 20
148.5889767471155
 30
0.0
 10
106.100618640492
 20
148.5889767471155
 30
0.0
 10
106.1006186404471
 20
147.6090218441152
 30
0.0
 10
106.1006186404471
 20
147.6090218441152
 30
0.0
 10
106.1006186404471
 20
147.6090218441152
 30
0.0
 10
107.0600286264477
 20
147.6090218440729
 30
0.0
 10
107.0600286264477
 20
147.6090218440729
 30
0.0
 10
107.0760453524472
 20
147.6091101860712
 30
0.0
 10
107.0920620784961
 20
147.6091985279848
 30
0.0
 10
107.1080103160636
 20
147.6078928629454
 30
0.0
 10
107.1218870195774
 20
147.6067567921692
 30
0.0
 10
107.1357118711809
 20
147.6045653333581
 30
0.0
 10
107.1492181203524
 20
147.6011189776581
 30
0.0
 10
107.16122874682
 20
147.5980542562486
 30
0.0
 10
107.1729874253
 20
147.5939971734739
 30
0.0
 10
107.1842165295382
 20
147.5887001872341
 30
0.0
 10
107.1942581148599
 20
147.5839633766973
 30
0.0
 10
107.2038762121011
 20
147.5782350444855
 30
0.0
 10
107.2124410530619
 20
147.5712009824573
 30
0.0
 10
107.220579537117
 20
147.564517075316
 30
0.0
 10
107.2277670168634
 20
147.5566542009021
 30
0.0
 10
107.2338916905302
 20
147.5480568733974
 30
0.0
 10
107.2401174446778
 20
147.539317657191
 30
0.0
 10
107.2452450225541
 20
147.5298195452898
 30
0.0
 10
107.2491329332497
 20
147.519832350158
 30
0.0
 10
107.2533644686243
 20
147.5089624581273
 30
0.0
 10
107.2561275224507
 20
147.4975132092253
 30
0.0
 10
107.2576002905016
 20
147.4859629219539
 30
0.0
 10
107.2592687480166
 20
147.4728779262647
 30
0.0
 10
107.2592812544409
 20
147.459663258064
 30
0.0
 10
107.2592937614407
 20
147.4464485890637
 30
0.0
 10
107.2593415064398
 20
147.4335938170633
 30
0.0
 10
107.259389251041
 20
147.4207390452093
 30
0.0
 10
107.2576002903059
 20
147.4080632370301
 30
0.0
 10
107.2560189550855
 20
147.396858574163
 30
0.0
 10
107.2530025079883
 20
147.3857937447756
 30
0.0
 10
107.2485684427823
 20
147.3753227902922
 30
0.0
 10
107.2443722609981
 20
147.3654135926545
 30
0.0
 10
107.2389064886407
 20
147.3560362575669
 30
0.0
 10
107.2321982191913
 20
147.3476627573335
 30
0.0
 10
107.225531461684
 20
147.3393410737829
 30
0.0
 10
107.2176375370835
 20
147.3320108397149
 30
0.0
 10
107.209054110066
 20
147.3256476285347
 30
0.0
 10
107.1996091972778
 20
147.3186457661635
 30
0.0
 10
107.189329431015
 20
147.3128147806403
 30
0.0
 10
107.1785716248835
 20
147.3081484240865
 30
0.0
 10
107.1666053031619
 20
147.3029578561297
 30
0.0
 10
107.1540475041958
 20
147.2992082799765
 30
0.0
 10
107.1413152536572
 20
147.2962941243629
 30
0.0
 10
107.1266259648646
 20
147.292932042125
 30
0.0
 10
107.1117044740103
 20
147.2906819382463
 30
0.0
 10
107.0967205066753
 20
147.2895202390332
 30
0.0
 10
107.0794884400446
 20
147.2881842458496
 30
0.0
 10
107.0621737434329
 20
147.2882877520728
 30
0.0
 10
107.0448590474333
 20
147.2883912580726
 30
0.0
 10
107.0448590474333
 20
147.2883912580726
 30
0.0
 10
105.9795938684333
 20
147.2883912581214
 30
0.0
 10
105.9795938684333
 20
147.2883912581214
 30
0.0
  0
ENDBLK
  5
63
330
60
100
AcDbEntity
  8
0
100
AcDbBlockEnd
  0
BLOCK
  5
67
330
65
100
AcDbEntity
  8
0
100
AcDbBlockBegin
  2
block 8
 70
     0
 10
0.0
 20
0.0
 30
0.0
  3
block 8
  1

  0
SPLINE
  5
69
330
65
100
AcDbEntity
  8
0
 62
     7
420
 16777215
370
     5
100
AcDbSpline
210
0.0
220
0.0
230
1.0
 70
    11
 71
     3
 72
   182
 73
   178
 74
     0
 42
0.0000000001
 43
0.0000000001
 12
1.0
 22
0.0
 32
0.0
 13
1.0
 23
0.0
 33
0.0
 40
0.0
 40
0.0
 40
0.0
 40
0.0
 40
1.0
 40
1.0
 40
1.0
 40
2.0
 40
2.0
 40
2.0
 40
3.0
 40
3.0
 40
3.0
 40
4.0
 40
4.0
 40
4.0
 40
5.0
 40
5.0
 40
5.0
 40
6.0
 40
6.0
 40
6.0
 40
7.0
 40
7.0
 40
7.0
 40
8.0
 40
8.0
 40
8.0
 40
9.0
 40
9.0
 40
9.0
 40
10.0
 40
10.0
 40
10.0
 40
11.0
 40
11.0
 40
11.0
 40
12.0
 40
12.0
 40
12.0
 40
13.0
 40
13.0
 40
13.0
 40
14.0
 40
14.0
 40
14.0
 40
15.0
 40
15.0
 40
15.0
 40
16.0
 40
16.0
 40
16.0
 40
17.0
 40
17.0
 40
17.0
 40
18.0
 40
18.0
 40
18.0
 40
19.0
 40
19.0
 40
19.0
 40
20.0
 40
20.0
 40
20.0
 40
21.0
 40
21.0
 40
21.0
 40
22.0
 40
22.0
 40
22.0
 40
23.0
 40
23.0
 40
23.0
 40
24.0
 40
24.0
 40
24.0
 40
25.0
 40
25.0
 40
25.0
 40
26.0
 40
26.0
 40
26.0
 40
27.0
 40
27.0
 40
27.0
 40
28.0
 40
28.0
 40
28.0
 40
29.0
 40
29.0
 40
29.0
 40
30.0
 40
30.0
 40
30.0
 40
31.0
 40
31.0
 40
31.0
 40
32.0
 40
32.0
 40
32.0
 40
33.0
 40
33.0
 40
33.0
 40
34.0
 40
34.0
 40
34.0
 40
35.0
 40
35.0
 40
35.0
 40
36.0
 40
36.0
 40
36.0
 40
37.0
 40
37.0
 40
37.0
 40
38.0
 40
38.0
 40
38.0
 40
39.0
 40
39.0
 40
39.0
 40
40.0
 40
40.0
 40
40.0
 40
41.0
 40
41.0
 40
41.0
 40
42.0
 40
42.0
 40
42.0
 40
43.0
 40
43.0
 40
43.0
 40
44.0
 40
44.0
 40
44.0
 40
45.0
 40
45.0
 40
45.0
 40
46.0
 40
46.0
 40
46.0
 40
47.0
 40
47.0
 40
47.0
 40
48.0
 40
48.0
 40
48.0
 40
49.0
 40
49.0
 40
49.0
 40
50.0
 40
50.0
 40
50.0
 40
51.0
 40
51.0
 40
51.0
 40
52.0
 40
52.0
 40
52.0
 40
53.0
 40
53.0
 40
53.0
 40
54.0
 40
54.0
 40
54.0
 40
55.0
 40
55.0
 40
55.0
 40
56.0
 40
56.0
 40
56.0
 40
57.0
 40
57.0
 40
57.0
 40
58.0
 40
58.0
 40
58.0
 40
59.0
 40
59.0
 40
59.0
 40
59.0
 10
109.7289395634331
 20
147.288391257952
 30
0.0
 10
109.7108168944333
 20
147.2887105789536
 30
0.0
 10
109.6926942261355
 20
147.2890298994097
 30
0.0
 10
109.6747484782792
 20
147.2912137100538
 30
0.0
 10
109.659663014543
 20
147.2930494539048
 30
0.0
 10
109.6447025687139
 20
147.2962027089368
 30
0.0
 10
109.6301537310818
 20
147.3008100478665
 30
0.0
 10
109.6181434903279
 20
147.3046134616629
 30
0.0
 10
109.6064137482715
 20
147.3094077902193
 30
0.0
 10
109.5957198124584
 20
147.3160512907169
 30
0.0
 10
109.5861736914252
 20
147.3219817227801
 30
0.0
 10
109.5774529566837
 20
147.3293856747987
 30
0.0
 10
109.5703177412777
 20
147.3380664188522
 30
0.0
 10
109.5628569374996
 20
147.3471432755911
 30
0.0
 10
109.5571296527036
 20
147.3576161059905
 30
0.0
 10
109.5528185373364
 20
147.3685489042361
 30
0.0
 10
109.5476627793392
 20
147.3816236789019
 30
0.0
 10
109.5445324687621
 20
147.3953563131892
 30
0.0
 10
109.5420932184304
 20
147.4091922181742
 30
0.0
 10
109.5390618137013
 20
147.4263869387204
 30
0.0
 10
109.5370977200402
 20
147.4437411561514
 30
0.0
 10
109.5364483137596
 20
147.4611253410315
 30
0.0
 10
109.5356658761549
 20
147.4820706881446
 30
0.0
 10
109.5367919244431
 20
147.5030595379621
 30
0.0
 10
109.5379179734435
 20
147.5240483879617
 30
0.0
 10
109.5379179734435
 20
147.5240483879617
 30
0.0
 10
109.5375772945405
 20
149.682395336961
 30
0.0
 10
109.5375772945405
 20
149.682395336961
 30
0.0
 10
109.5372380065414
 20
149.6985946219615
 30
0.0
 10
109.5368987186615
 20
149.7147939070986
 30
0.0
 10
109.5381417852544
 20
149.7309415170155
 30
0.0
 10
109.5392277070788
 20
149.7450477942854
 30
0.0
 10
109.5415211983389
 20
149.7591146357541
 30
0.0
 10
109.545480161307
 20
149.7727138115773
 30
0.0
 10
109.5490227332506
 20
149.7848826697113
 30
0.0
 10
109.5538988626699
 20
149.7966770639538
 30
0.0
 10
109.5601569134288
 20
149.8077122207464
 30
0.0
 10
109.5660770146174
 20
149.8181514529244
 30
0.0
 10
109.5732338131291
 20
149.8279112347644
 30
0.0
 10
109.5816075513411
 20
149.8365012344421
 30
0.0
 10
109.5899564108909
 20
149.8450657129373
 30
0.0
 10
109.5995149897435
 20
149.8524673498697
 30
0.0
 10
109.6098320747897
 20
149.8585163625604
 30
0.0
 10
109.6209839133903
 20
149.8650547998153
 30
0.0
 10
109.6330219648768
 20
149.8700128768252
 30
0.0
 10
109.6453949741421
 20
149.8737576052867
 30
0.0
 10
109.6592018928891
 20
149.8779363107652
 30
0.0
 10
109.6734259046646
 20
149.880604141586
 30
0.0
 10
109.6877317592541
 20
149.8822249626604
 30
0.0
 10
109.7040537440958
 20
149.8840742067472
 30
0.0
 10
109.7204822655497
 20
149.8845605349531
 30
0.0
 10
109.7369107865493
 20
149.8850468639525
 30
0.0
 10
109.7369107865493
 20
149.8850468639525
 30
0.0
 10
110.1635972245498
 20
149.8844829239332
 30
0.0
 10
110.1635972245498
 20
149.8844829239332
 30
0.0
 10
110.1901715915494
 20
149.883744134932
 30
0.0
 10
110.2167459574589
 20
149.8830053462112
 30
0.0
 10
110.2431903803703
 20
149.8805314909257
 30
0.0
 10
110.268782489576
 20
149.8781373689272
 30
0.0
 10
110.2942528970226
 20
149.8741182216784
 30
0.0
 10
110.319396594391
 20
149.8686771912412
 30
0.0
 10
110.3438180109505
 20
149.8633924604844
 30
0.0
 10
110.3679312180586
 20
149.8567663635829
 30
0.0
 10
110.3916513737797
 20
149.8489200247593
 30
0.0
 10
110.4150862608844
 20
149.841168049322
 30
0.0
 10
110.4381374937577
 20
149.8322250057626
 30
0.0
 10
110.460519211065
 20
149.8218244820694
 30
0.0
 10
110.4830547072253
 20
149.8113524991321
 30
0.0
 10
110.5049114560863
 20
149.7994029393375
 30
0.0
 10
110.5260001054134
 20
149.7862615824549
 30
0.0
 10
110.5474511374842
 20
149.7728944073668
 30
0.0
 10
110.5681074455069
 20
149.7582941241124
 30
0.0
 10
110.5880940571226
 20
149.7427958162511
 30
0.0
 10
110.6085664215124
 20
149.7269208389378
 30
0.0
 10
110.6283361414389
 20
149.7101036555567
 30
0.0
 10
110.6468010656343
 20
149.6919916746521
 30
0.0
 10
110.6659925945858
 20
149.6731669775003
 30
0.0
 10
110.6837746185387
 20
149.6529435759099
 30
0.0
 10
110.7015566415386
 20
149.632720174909
 30
0.0
 10
110.7277303035369
 20
149.5995827949079
 30
0.0
 10
110.7539039661236
 20
149.5664454147747
 30
0.0
 10
110.7777628546891
 20
149.5316763813796
 30
0.0
 10
110.8014884683256
 20
149.4971015666073
 30
0.0
 10
110.8229250962076
 20
149.4609132763777
 30
0.0
 10
110.8426792587671
 20
149.4238587016561
 30
0.0
 10
110.8625757809725
 20
149.3865370907548
 30
0.0
 10
110.8807655008893
 20
149.348336664501
 30
0.0
 10
110.8968703436906
 20
149.3092671361216
 30
0.0
 10
110.9132249231678
 20
149.2695917592891
 30
0.0
 10
110.9274294641029
 20
149.22902011713
 30
0.0
 10
110.9397716190826
 20
149.1879016858394
 30
0.0
 10
110.9526621974614
 20
149.1449561579123
 30
0.0
 10
110.9635212025025
 20
149.1014141681092
 30
0.0
 10
110.9725120663595
 20
149.0575043870727
 30
0.0
 10
110.982112832391
 20
149.0106159522241
 30
0.0
 10
110.9895834070374
 20
148.9633081348775
 30
0.0
 10
110.9956561756107
 20
148.9158172799062
 30
0.0
 10
111.0021307694424
 20
148.8651840319977
 30
0.0
 10
111.0070164561238
 20
148.8143427224726
 30
0.0
 10
111.0097684373215
 20
148.7634048529471
 30
0.0
 10
111.01270239027
 20
148.7090987724441
 30
0.0
 10
111.0132111304941
 20
148.654682939895
 30
0.0
 10
111.0137198704923
 20
148.6002671078949
 30
0.0
 10
111.0135362684898
 20
148.559236264895
 30
0.0
 10
111.0133526658674
 20
148.518205421969
 30
0.0
 10
111.0120263995732
 20
148.4772081855587
 30
0.0
 10
111.0108079179137
 20
148.439542762824
 30
0.0
 10
111.0086249524322
 20
148.4019057062144
 30
0.0
 10
111.0058170039935
 20
148.3643100909909
 30
0.0
 10
111.0032252768302
 20
148.3296094619353
 30
0.0
 10
111.0001011123599
 20
148.2949441377466
 30
0.0
 10
110.9956561756915
 20
148.2604438450799
 30
0.0
 10
110.9915889414139
 20
148.2288751674243
 30
0.0
 10
110.9864158598887
 20
148.1974446662499
 30
0.0
 10
110.9804149330541
 20
148.1661739371876
 30
0.0
 10
110.9746743215923
 20
148.1362597071611
 30
0.0
 10
110.9681761295454
 20
148.1064916883288
 30
0.0
 10
110.9606577662894
 20
148.0769844426682
 30
0.0
 10
110.9529679609216
 20
148.0468043398504
 30
0.0
 10
110.9442109277084
 20
148.0168970386848
 30
0.0
 10
110.9346912050655
 20
147.9872304583763
 30
0.0
 10
110.9250501191583
 20
147.9571856703026
 30
0.0
 10
110.9146267733977
 20
147.9273877799243
 30
0.0
 10
110.903079739045
 20
147.898040963984
 30
0.0
 10
110.8912579810457
 20
147.8679959372277
 30
0.0
 10
110.878258429458
 20
147.8384237039012
 30
0.0
 10
110.8652588774564
 20
147.8088514699022
 30
0.0
 10
110.8549646354554
 20
147.787088714902
 30
0.0
 10
110.8446703936282
 20
147.7653259596707
 30
0.0
 10
110.8336474112691
 20
147.7439350656973
 30
0.0
 10
110.8231175149823
 20
147.7235010408871
 30
0.0
 10
110.8119226167937
 20
147.7034063528266
 30
0.0
 10
110.8003424738161
 20
147.6835345854809
 30
0.0
 10
110.7893218930362
 20
147.6646230385615
 30
0.0
 10
110.7779523986592
 20
147.645913389425
 30
0.0
 10
110.7659085552646
 20
147.627650029379
 30
0.0
 10
110.7543859063289
 20
147.6101770118973
 30
0.0
 10
110.7422460101057
 20
147.5931124931655
 30
0.0
 10
110.7297811650912
 20
147.5762813970386
 30
0.0
 10
110.717812104351
 20
147.5601197510948
 30
0.0
 10
110.7055434301633
 20
147.5441733284511
 30
0.0
 10
110.6925247938924
 20
147.5288641974294
 30
0.0
 10
110.6801051607476
 20
147.5142594579545
 30
0.0
 10
110.6670029911431
 20
147.5002347141573
 30
0.0
 10
110.653574951548
 20
147.4865274125221
 30
0.0
 10
110.6406213842918
 20
147.4733044507963
 30
0.0
 10
110.6273645690608
 20
147.4603768942801
 30
0.0
 10
110.6134961284335
 20
147.4481420604295
 30
0.0
 10
110.6000569120459
 20
147.4362858911607
 30
0.0
 10
110.5860433436557
 20
147.4250802289718
 30
0.0
 10
110.5717238339725
 20
147.4142726321766
 30
0.0
 10
110.5577970430336
 20
147.4037614383982
 30
0.0
 10
110.5435808618313
 20
147.3936267751892
 30
0.0
 10
110.5288225580003
 20
147.3843546371004
 30
0.0
 10
110.5142024275549
 20
147.3751693086313
 30
0.0
 10
110.4990502781169
 20
147.366830430248
 30
0.0
 10
110.4836633208231
 20
147.3589525660744
 30
0.0
 10
110.4681381816046
 20
147.3510039550693
 30
0.0
 10
110.4523739982289
 20
147.3435246756895
 30
0.0
 10
110.4362461212685
 20
147.3369374375643
 30
0.0
 10
110.4201624937427
 20
147.3303682725898
 30
0.0
 10
110.4037171655986
 20
147.3246862606659
 30
0.0
 10
110.3871354505675
 20
147.3194382333651
 30
0.0
 10
110.37036527339
 20
147.3141305587666
 30
0.0
 10
110.3534555914528
 20
147.3092667898973
 30
0.0
 10
110.3363313080291
 20
147.3053259717755
 30
0.0
 10
110.3188188894126
 20
147.3012958319491
 30
0.0
 10
110.3010820308422
 20
147.298230955817
 30
0.0
 10
110.2832692033346
 20
147.2957296339269
 30
0.0
 10
110.2650854369911
 20
147.2931762238756
 30
0.0
 10
110.2468225047748
 20
147.2912100836431
 30
0.0
 10
110.2285136283422
 20
147.2900847290996
 30
0.0
 10
110.2096778786528
 20
147.288926990308
 30
0.0
 10
110.1907935024335
 20
147.2886591239323
 30
0.0
 10
110.1719091264336
 20
147.2883912579327
 30
0.0
 10
110.1719091264336
 20
147.2883912579327
 30
0.0
 10
109.7289395634331
 20
147.288391257952
 30
0.0
 10
109.7289395634331
 20
147.288391257952
 30
0.0
  0
ENDBLK
  5
68
330
65
100
AcDbEntity
  8
0
100
AcDbBlockEnd
  0
BLOCK
  5
6C
330
6A
100
AcDbEntity
  8
0
100
AcDbBlockBegin
  2
block 9
 70
     0
 10
0.0
 20
0.0
 30
0.0
  3
block 9
  1

  0
SPLINE
  5
6E
330
6A
100
AcDbEntity
  8
0
 62
     7
420
 16777215
370
     5
100
AcDbSpline
210
0.0
220
0.0
230
1.0
 70
    11
 71
     3
 72
   152
 73
   148
 74
     0
 42
0.0000000001
 43
0.0000000001
 12
1.0
 22
0.0
 32
0.0
 13
1.0
 23
0.0
 33
0.0
 40
0.0
 40
0.0
 40
0.0
 40
0.0
 40
1.0
 40
1.0
 40
1.0
 40
2.0
 40
2.0
 40
2.0
 40
3.0
 40
3.0
 40
3.0
 40
4.0
 40
4.0
 40
4.0
 40
5.0
 40
5.0
 40
5.0
 40
6.0
 40
6.0
 40
6.0
 40
7.0
 40
7.0
 40
7.0
 40
8.0
 40
8.0
 40
8.0
 40
9.0
 40
9.0
 40
9.0
 40
10.0
 40
10.0
 40
10.0
 40
11.0
 40
11.0
 40
11.0
 40
12.0
 40
12.0
 40
12.0
 40
13.0
 40
13.0
 40
13.0
 40
14.0
 40
14.0
 40
14.0
 40
15.0
 40
15.0
 40
15.0
 40
16.0
 40
16.0
 40
16.0
 40
17.0
 40
17.0
 40
17.0
 40
18.0
 40
18.0
 40
18.0
 40
19.0
 40
19.0
 40
19.0
 40
20.0
 40
20.0
 40
20.0
 40
21.0
 40
21.0
 40
21.0
 40
22.0
 40
22.0
 40
22.0
 40
23.0
 40
23.0
 40
23.0
 40
24.0
 40
24.0
 40
24.0
 40
25.0
 40
25.0
 40
25.0
 40
26.0
 40
26.0
 40
26.0
 40
27.0
 40
27.0
 40
27.0
 40
28.0
 40
28.0
 40
28.0
 40
29.0
 40
29.0
 40
29.0
 40
30.0
 40
30.0
 40
30.0
 40
31.0
 40
31.0
 40
31.0
 40
32.0
 40
32.0
 40
32.0
 40
33.0
 40
33.0
 40
33.0
 40
34.0
 40
34.0
 40
34.0
 40
35.0
 40
35.0
 40
35.0
 40
36.0
 40
36.0
 40
36.0
 40
37.0
 40
37.0
 40
37.0
 40
38.0
 40
38.0
 40
38.0
 40
39.0
 40
39.0
 40
39.0
 40
40.0
 40
40.0
 40
40.0
 40
41.0
 40
41.0
 40
41.0
 40
42.0
 40
42.0
 40
42.0
 40
43.0
 40
43.0
 40
43.0
 40
44.0
 40
44.0
 40
44.0
 40
45.0
 40
45.0
 40
45.0
 40
46.0
 40
46.0
 40
46.0
 40
47.0
 40
47.0
 40
47.0
 40
48.0
 40
48.0
 40
48.0
 40
49.0
 40
49.0
 40
49.0
 40
49.0
 10
110.6778480414761
 20
148.24746056391
 30
0.0
 10
110.6810704574765
 20
148.2666203079096
 30
0.0
 10
110.68429287345
 20
148.2857800518614
 30
0.0
 10
110.6868798894976
 20
148.3050385923758
 30
0.0
 10
110.6891711559833
 20
148.3220954824918
 30
0.0
 10
110.6909639971226
 20
148.3392298713757
 30
0.0
 10
110.6919603035758
 20
148.3564072250198
 30
0.0
 10
110.6925490513617
 20
148.3665578457372
 30
0.0
 10
110.6928596502269
 20
148.3767234696954
 30
0.0
 10
110.6930892844375
 20
148.3868897100341
 30
0.0
 10
110.6934207782735
 20
148.4015654240384
 30
0.0
 10
110.6935835495323
 20
148.4162424225206
 30
0.0
 10
110.6936537750057
 20
148.4309199667388
 30
0.0
 10
110.6937438002654
 20
148.4497357847324
 30
0.0
 10
110.6936817371364
 20
148.4685524995803
 30
0.0
 10
110.6936537747895
 20
148.4873690135039
 30
0.0
 10
110.6936193811026
 20
148.5105133256959
 30
0.0
 10
110.6936365784892
 20
148.5336573339092
 30
0.0
 10
110.6936537744905
 20
148.5568013409095
 30
0.0
 10
110.6936352614911
 20
148.5758057379099
 30
0.0
 10
110.6936167476159
 20
148.5948101339099
 30
0.0
 10
110.693653775204
 20
148.6138148790414
 30
0.0
 10
110.6936875033034
 20
148.6311261320609
 30
0.0
 10
110.6937673154094
 20
148.6484376747623
 30
0.0
 10
110.6936537747901
 20
148.6657480021133
 30
0.0
 10
110.6935500999227
 20
148.6815542035148
 30
0.0
 10
110.6932852140247
 20
148.697359391597
 30
0.0
 10
110.6930892845563
 20
148.7131652016083
 30
0.0
 10
110.69291434438
 20
148.727277786224
 30
0.0
 10
110.6927943778282
 20
148.7413908666553
 30
0.0
 10
110.6925247938347
 20
148.7555019859005
 30
0.0
 10
110.6922838796035
 20
148.7681124135371
 30
0.0
 10
110.6919234788473
 20
148.7807212749435
 30
0.0
 10
110.6913958126412
 20
148.7933228475934
 30
0.0
 10
110.6909307582173
 20
148.8044291436716
 30
0.0
 10
110.6903357780399
 20
148.8155297781065
 30
0.0
 10
110.6897023413196
 20
148.8266277851545
 30
0.0
 10
110.6891652590053
 20
148.836037633232
 30
0.0
 10
110.6886005298521
 20
148.8454455924517
 30
0.0
 10
110.6880088700347
 20
148.854852308513
 30
0.0
 10
110.6875115040037
 20
148.8627598609369
 30
0.0
 10
110.6869951072551
 20
148.8706665348752
 30
0.0
 10
110.686315398667
 20
148.8785609086866
 30
0.0
 10
110.6837331679636
 20
148.9085518412184
 30
0.0
 10
110.6787939228453
 20
148.9383652509454
 30
0.0
 10
110.6722031372019
 20
148.9677504026691
 30
0.0
 10
110.6650373147423
 20
148.9996993677207
 30
0.0
 10
110.6559191905114
 20
149.0311420849111
 30
0.0
 10
110.6468010665128
 20
149.0625848019116
 30
0.0
 10
110.6394452835139
 20
149.0869811979116
 30
0.0
 10
110.6320895007004
 20
149.1113775942511
 30
0.0
 10
110.6236569572052
 20
149.1354040718059
 30
0.0
 10
110.6154895383995
 20
149.1586751411712
 30
0.0
 10
110.6063120026401
 20
149.1815991870589
 30
0.0
 10
110.5965614143315
 20
149.2042719094394
 30
0.0
 10
110.5870450948938
 20
149.2263998941177
 30
0.0
 10
110.5769829285745
 20
149.2482884868717
 30
0.0
 10
110.5660789288615
 20
149.2697528032243
 30
0.0
 10
110.5553599866093
 20
149.290852837482
 30
0.0
 10
110.5438275428731
 20
149.3115428743645
 30
0.0
 10
110.5316450106899
 20
149.3318467549473
 30
0.0
 10
110.5200932883869
 20
149.3510993033207
 30
0.0
 10
110.5079570576334
 20
149.3700046502925
 30
0.0
 10
110.4949531300696
 20
149.3882958022113
 30
0.0
 10
110.482913762115
 20
149.4052302173859
 30
0.0
 10
110.4701306453346
 20
149.4216381734977
 30
0.0
 10
110.4565677782503
 20
149.4374064725934
 30
0.0
 10
110.4441451693577
 20
149.4518490982834
 30
0.0
 10
110.4310684092301
 20
149.4657551003568
 30
0.0
 10
110.4170534454628
 20
149.4786142772399
 30
0.0
 10
110.4038708878865
 20
149.4907096948558
 30
0.0
 10
110.3898582645322
 20
149.5018789449229
 30
0.0
 10
110.375845640533
 20
149.5130481959236
 30
0.0
 10
110.3620084435331
 20
149.5216699849242
 30
0.0
 10
110.3481712458357
 20
149.5302917747163
 30
0.0
 10
110.3335088560787
 20
149.5373212858405
 30
0.0
 10
110.3196129606397
 20
149.5439833206918
 30
0.0
 10
110.3049758938983
 20
149.549215202112
 30
0.0
 10
110.2900430896153
 20
149.5531270191866
 30
0.0
 10
110.282214541338
 20
149.5551777960021
 30
0.0
 10
110.2743047125952
 20
149.5568657665148
 30
0.0
 10
110.2663344900969
 20
149.5582074330498
 30
0.0
 10
110.2571743941049
 20
149.5597493968086
 30
0.0
 10
110.2479345259827
 20
149.560833938999
 30
0.0
 10
110.2386744571273
 20
149.5615943759036
 30
0.0
 10
110.2281549164243
 20
149.5624582406435
 30
0.0
 10
110.2176093062499
 20
149.5629038406593
 30
0.0
 10
110.207062990786
 20
149.5632878474947
 30
0.0
 10
110.1953456164678
 20
149.5637144943024
 30
0.0
 10
110.1836273715354
 20
149.5640651099324
 30
0.0
 10
110.171909126535
 20
149.5644157259329
 30
0.0
 10
110.171909126535
 20
149.5644157259329
 30
0.0
 10
109.8578672025348
 20
149.564415725947
 30
0.0
 10
109.8578672025348
 20
149.564415725947
 30
0.0
 10
109.8578672025348
 20
149.564415725947
 30
0.0
 10
109.8578672024476
 20
147.6090218439471
 30
0.0
 10
109.8578672024476
 20
147.6090218439471
 30
0.0
 10
109.8578672024476
 20
147.6090218439471
 30
0.0
 10
110.1675486574472
 20
147.609021843933
 30
0.0
 10
110.1675486574472
 20
147.609021843933
 30
0.0
 10
110.184119516447
 20
147.6090935709327
 30
0.0
 10
110.2006903746972
 20
147.6091652985793
 30
0.0
 10
110.2172238188775
 20
147.6101508251041
 30
0.0
 10
110.2323451331121
 20
147.611052177304
 30
0.0
 10
110.247435151453
 20
147.6127178984436
 30
0.0
 10
110.2623830564891
 20
147.6152312390641
 30
0.0
 10
110.2758967575004
 20
147.6175034326315
 30
0.0
 10
110.2892943075813
 20
147.6204683958946
 30
0.0
 10
110.3024618799424
 20
147.6242630865037
 30
0.0
 10
110.314765887643
 20
147.6278089111401
 30
0.0
 10
110.3268690935781
 20
147.6320792003702
 30
0.0
 10
110.3385892697962
 20
147.6372463672199
 30
0.0
 10
110.3499229597937
 20
147.6422431408297
 30
0.0
 10
110.3608984652434
 20
147.6480786162172
 30
0.0
 10
110.3713297170821
 20
147.6547455718709
 30
0.0
 10
110.3824327445854
 20
147.6618418814164
 30
0.0
 10
110.3929191610586
 20
147.6698802148517
 30
0.0
 10
110.4029411834362
 20
147.6784541716749
 30
0.0
 10
110.4134718523922
 20
147.6874632815677
 30
0.0
 10
110.4234897923582
 20
147.6970637634061
 30
0.0
 10
110.4328591783039
 20
147.7072431854915
 30
0.0
 10
110.4431669984481
 20
147.7184421746931
 30
0.0
 10
110.4526898404529
 20
147.7303418849204
 30
0.0
 10
110.4622126824539
 20
147.7422415949192
 30
0.0
 10
110.475186506454
 20
147.7598003429191
 30
0.0
 10
110.4881603302102
 20
147.7773590908779
 30
0.0
 10
110.5005980345273
 20
147.7953036984574
 30
0.0
 10
110.5130878386075
 20
147.8133234734277
 30
0.0
 10
110.525037022387
 20
147.8317323474105
 30
0.0
 10
110.5361609343692
 20
147.8506237651166
 30
0.0
 10
110.5474390839147
 20
147.8697771200109
 30
0.0
 10
110.5578689175465
 20
147.8894264927271
 30
0.0
 10
110.5677724003589
 20
147.9093307737618
 30
0.0
 10
110.5779382378162
 20
147.9297623420826
 30
0.0
 10
110.5875494677945
 20
147.9504625032401
 30
0.0
 10
110.596561414429
 20
147.9714247256558
 30
0.0
 10
110.6056709155043
 20
147.9926138644037
 30
0.0
 10
110.6141680885096
 20
148.0140707687509
 30
0.0
 10
110.6219634850251
 20
148.0357766386792
 30
0.0
 10
110.629989019447
 20
148.0581233154515
 30
0.0
 10
110.6372707296441
 20
148.0807338748587
 30
0.0
 10
110.6439786135178
 20
148.1035154950783
 30
0.0
 10
110.6508515219796
 20
148.1268575793124
 30
0.0
 10
110.6571220227394
 20
148.150379244627
 30
0.0
 10
110.6626067989144
 20
148.1740768032658
 30
0.0
 10
110.668239705554
 20
148.1984143753255
 30
0.0
 10
110.6730438734749
 20
148.2229374699105
 30
0.0
 10
110.6778480414761
 20
148.24746056391
 30
0.0
  0
HATCH
  5
6F
330
6A
100
AcDbEntity
  8
0
 62
     7
420
 16777215
100
AcDbHatch
 10
0.0
 20
0.0
 30
0.0
210
0.0
220
0.0
230
1.0
  2
SOLID
 70
     1
 71
     0
 91
        1
 92
        1
 93
        1
 72
     4
 94
        3
 73
     0
 74
     1
 95
      152
 96
      148
 40
0.0
 40
0.0
 40
0.0
 40
0.0
 40
1.0
 40
1.0
 40
1.0
 40
2.0
 40
2.0
 40
2.0
 40
3.0
 40
3.0
 40
3.0
 40
4.0
 40
4.0
 40
4.0
 40
5.0
 40
5.0
 40
5.0
 40
6.0
 40
6.0
 40
6.0
 40
7.0
 40
7.0
 40
7.0
 40
8.0
 40
8.0
 40
8.0
 40
9.0
 40
9.0
 40
9.0
 40
10.0
 40
10.0
 40
10.0
 40
11.0
 40
11.0
 40
11.0
 40
12.0
 40
12.0
 40
12.0
 40
13.0
 40
13.0
 40
13.0
 40
14.0
 40
14.0
 40
14.0
 40
15.0
 40
15.0
 40
15.0
 40
16.0
 40
16.0
 40
16.0
 40
17.0
 40
17.0
 40
17.0
 40
18.0
 40
18.0
 40
18.0
 40
19.0
 40
19.0
 40
19.0
 40
20.0
 40
20.0
 40
20.0
 40
21.0
 40
21.0
 40
21.0
 40
22.0
 40
22.0
 40
22.0
 40
23.0
 40
23.0
 40
23.0
 40
24.0
 40
24.0
 40
24.0
 40
25.0
 40
25.0
 40
25.0
 40
26.0
 40
26.0
 40
26.0
 40
27.0
 40
27.0
 40
27.0
 40
28.0
 40
28.0
 40
28.0
 40
29.0
 40
29.0
 40
29.0
 40
30.0
 40
30.0
 40
30.0
 40
31.0
 40
31.0
 40
31.0
 40
32.0
 40
32.0
 40
32.0
 40
33.0
 40
33.0
 40
33.0
 40
34.0
 40
34.0
 40
34.0
 40
35.0
 40
35.0
 40
35.0
 40
36.0
 40
36.0
 40
36.0
 40
37.0
 40
37.0
 40
37.0
 40
38.0
 40
38.0
 40
38.0
 40
39.0
 40
39.0
 40
39.0
 40
40.0
 40
40.0
 40
40.0
 40
41.0
 40
41.0
 40
41.0
 40
42.0
 40
42.0
 40
42.0
 40
43.0
 40
43.0
 40
43.0
 40
44.0
 40
44.0
 40
44.0
 40
45.0
 40
45.0
 40
45.0
 40
46.0
 40
46.0
 40
46.0
 40
47.0
 40
47.0
 40
47.0
 40
48.0
 40
48.0
 40
48.0
 40
49.0
 40
49.0
 40
49.0
 40
49.0
 10
110.6778480414761
 20
148.24746056391
 10
110.6810704574765
 20
148.2666203079096
 10
110.68429287345
 20
148.2857800518614
 10
110.6868798894976
 20
148.3050385923758
 10
110.6891711559833
 20
148.3220954824918
 10
110.6909639971226
 20
148.3392298713757
 10
110.6919603035758
 20
148.3564072250198
 10
110.6925490513617
 20
148.3665578457372
 10
110.6928596502269
 20
148.3767234696954
 10
110.6930892844375
 20
148.3868897100341
 10
110.6934207782735
 20
148.4015654240384
 10
110.6935835495323
 20
148.4162424225206
 10
110.6936537750057
 20
148.4309199667388
 10
110.6937438002654
 20
148.4497357847324
 10
110.6936817371364
 20
148.4685524995803
 10
110.6936537747895
 20
148.4873690135039
 10
110.6936193811026
 20
148.5105133256959
 10
110.6936365784892
 20
148.5336573339092
 10
110.6936537744905
 20
148.5568013409095
 10
110.6936352614911
 20
148.5758057379099
 10
110.6936167476159
 20
148.5948101339099
 10
110.693653775204
 20
148.6138148790414
 10
110.6936875033034
 20
148.6311261320609
 10
110.6937673154094
 20
148.6484376747623
 10
110.6936537747901
 20
148.6657480021133
 10
110.6935500999227
 20
148.6815542035148
 10
110.6932852140247
 20
148.697359391597
 10
110.6930892845563
 20
148.7131652016083
 10
110.69291434438
 20
148.727277786224
 10
110.6927943778282
 20
148.7413908666553
 10
110.6925247938347
 20
148.7555019859005
 10
110.6922838796035
 20
148.7681124135371
 10
110.6919234788473
 20
148.7807212749435
 10
110.6913958126412
 20
148.7933228475934
 10
110.6909307582173
 20
148.8044291436716
 10
110.6903357780399
 20
148.8155297781065
 10
110.6897023413196
 20
148.8266277851545
 10
110.6891652590053
 20
148.836037633232
 10
110.6886005298521
 20
148.8454455924517
 10
110.6880088700347
 20
148.854852308513
 10
110.6875115040037
 20
148.8627598609369
 10
110.6869951072551
 20
148.8706665348752
 10
110.686315398667
 20
148.8785609086866
 10
110.6837331679636
 20
148.9085518412184
 10
110.6787939228453
 20
148.9383652509454
 10
110.6722031372019
 20
148.9677504026691
 10
110.6650373147423
 20
148.9996993677207
 10
110.6559191905114
 20
149.0311420849111
 10
110.6468010665128
 20
149.0625848019116
 10
110.6394452835139
 20
149.0869811979116
 10
110.6320895007004
 20
149.1113775942511
 10
110.6236569572052
 20
149.1354040718059
 10
110.6154895383995
 20
149.1586751411712
 10
110.6063120026401
 20
149.1815991870589
 10
110.5965614143315
 20
149.2042719094394
 10
110.5870450948938
 20
149.2263998941177
 10
110.5769829285745
 20
149.2482884868717
 10
110.5660789288615
 20
149.2697528032243
 10
110.5553599866093
 20
149.290852837482
 10
110.5438275428731
 20
149.3115428743645
 10
110.5316450106899
 20
149.3318467549473
 10
110.5200932883869
 20
149.3510993033207
 10
110.5079570576334
 20
149.3700046502925
 10
110.4949531300696
 20
149.3882958022113
 10
110.482913762115
 20
149.4052302173859
 10
110.4701306453346
 20
149.4216381734977
 10
110.4565677782503
 20
149.4374064725934
 10
110.4441451693577
 20
149.4518490982834
 10
110.4310684092301
 20
149.4657551003568
 10
110.4170534454628
 20
149.4786142772399
 10
110.4038708878865
 20
149.4907096948558
 10
110.3898582645322
 20
149.5018789449229
 10
110.375845640533
 20
149.5130481959236
 10
110.3620084435331
 20
149.5216699849242
 10
110.3481712458357
 20
149.5302917747163
 10
110.3335088560787
 20
149.5373212858405
 10
110.3196129606397
 20
149.5439833206918
 10
110.3049758938983
 20
149.549215202112
 10
110.2900430896153
 20
149.5531270191866
 10
110.282214541338
 20
149.5551777960021
 10
110.2743047125952
 20
149.5568657665148
 10
110.2663344900969
 20
149.5582074330498
 10
110.2571743941049
 20
149.5597493968086
 10
110.2479345259827
 20
149.560833938999
 10
110.2386744571273
 20
149.5615943759036
 10
110.2281549164243
 20
149.5624582406435
 10
110.2176093062499
 20
149.5629038406593
 10
110.207062990786
 20
149.5632878474947
 10
110.1953456164678
 20
149.5637144943024
 10
110.1836273715354
 20
149.5640651099324
 10
110.171909126535
 20
149.5644157259329
 10
110.171909126535
 20
149.5644157259329
 10
109.8578672025348
 20
149.564415725947
 10
109.8578672025348
 20
149.564415725947
 10
109.8578672025348
 20
149.564415725947
 10
109.8578672024476
 20
147.6090218439471
 10
109.8578672024476
 20
147.6090218439471
 10
109.8578672024476
 20
147.6090218439471
 10
110.1675486574472
 20
147.609021843933
 10
110.1675486574472
 20
147.609021843933
 10
110.184119516447
 20
147.6090935709327
 10
110.2006903746972
 20
147.6091652985793
 10
110.2172238188775
 20
147.6101508251041
 10
110.2323451331121
 20
147.611052177304
 10
110.247435151453
 20
147.6127178984436
 10
110.2623830564891
 20
147.6152312390641
 10
110.2758967575004
 20
147.6175034326315
 10
110.2892943075813
 20
147.6204683958946
 10
110.3024618799424
 20
147.6242630865037
 10
110.314765887643
 20
147.6278089111401
 10
110.3268690935781
 20
147.6320792003702
 10
110.3385892697962
 20
147.6372463672199
 10
110.3499229597937
 20
147.6422431408297
 10
110.3608984652434
 20
147.6480786162172
 10
110.3713297170821
 20
147.6547455718709
 10
110.3824327445854
 20
147.6618418814164
 10
110.3929191610586
 20
147.6698802148517
 10
110.4029411834362
 20
147.6784541716749
 10
110.4134718523922
 20
147.6874632815677
 10
110.4234897923582
 20
147.6970637634061
 10
110.4328591783039
 20
147.7072431854915
 10
110.4431669984481
 20
147.7184421746931
 10
110.4526898404529
 20
147.7303418849204
 10
110.4622126824539
 20
147.7422415949192
 10
110.475186506454
 20
147.7598003429191
 10
110.4881603302102
 20
147.7773590908779
 10
110.5005980345273
 20
147.7953036984574
 10
110.5130878386075
 20
147.8133234734277
 10
110.525037022387
 20
147.8317323474105
 10
110.5361609343692
 20
147.8506237651166
 10
110.5474390839147
 20
147.8697771200109
 10
110.5578689175465
 20
147.8894264927271
 10
110.5677724003589
 20
147.9093307737618
 10
110.5779382378162
 20
147.9297623420826
 10
110.5875494677945
 20
147.9504625032401
 10
110.596561414429
 20
147.9714247256558
 10
110.6056709155043
 20
147.9926138644037
 10
110.6141680885096
 20
148.0140707687509
 10
110.6219634850251
 20
148.0357766386792
 10
110.629989019447
 20
148.0581233154515
 10
110.6372707296441
 20
148.0807338748587
 10
110.6439786135178
 20
148.1035154950783
 10
110.6508515219796
 20
148.1268575793124
 10
110.6571220227394
 20
148.150379244627
 10
110.6626067989144
 20
148.1740768032658
 10
110.668239705554
 20
148.1984143753255
 10
110.6730438734749
 20
148.2229374699105
 10
110.6778480414761
 20
148.24746056391
 97
        0
 97
        0
 75
     2
 76
     1
 98
        0
  0
ENDBLK
  5
6D
330
6A
100
AcDbEntity
  8
0
100
AcDbBlockEnd
  0
BLOCK
  5
72
330
70
100
AcDbEntity
  8
0
100
AcDbBlockBegin
  2
block 10
 70
     0
 10
0.0
 20
0.0
 30
0.0
  3
block 10
  1

  0
SPLINE
  5
74
330
70
100
AcDbEntity
  8
0
 62
     7
420
 16777215
370
     5
100
AcDbSpline
210
0.0
220
0.0
230
1.0
 70
    11
 71
     3
 72
    74
 73
    70
 74
     0
 42
0.0000000001
 43
0.0000000001
 12
1.0
 22
0.0
 32
0.0
 13
1.0
 23
0.0
 33
0.0
 40
0.0
 40
0.0
 40
0.0
 40
0.0
 40
1.0
 40
1.0
 40
1.0
 40
2.0
 40
2.0
 40
2.0
 40
3.0
 40
3.0
 40
3.0
 40
4.0
 40
4.0
 40
4.0
 40
5.0
 40
5.0
 40
5.0
 40
6.0
 40
6.0
 40
6.0
 40
7.0
 40
7.0
 40
7.0
 40
8.0
 40
8.0
 40
8.0
 40
9.0
 40
9.0
 40
9.0
 40
10.0
 40
10.0
 40
10.0
 40
11.0
 40
11.0
 40
11.0
 40
12.0
 40
12.0
 40
12.0
 40
13.0
 40
13.0
 40
13.0
 40
14.0
 40
14.0
 40
14.0
 40
15.0
 40
15.0
 40
15.0
 40
16.0
 40
16.0
 40
16.0
 40
17.0
 40
17.0
 40
17.0
 40
18.0
 40
18.0
 40
18.0
 40
19.0
 40
19.0
 40
19.0
 40
20.0
 40
20.0
 40
20.0
 40
21.0
 40
21.0
 40
21.0
 40
22.0
 40
22.0
 40
22.0
 40
23.0
 40
23.0
 40
23.0
 40
23.0
 10
103.1791566525198
 20
149.2206421332466
 30
0.0
 10
103.177443426521
 20
149.2488036062468
 30
0.0
 10
103.1757302005253
 20
149.2769650799137
 30
0.0
 10
103.1712537859421
 20
149.3047512128533
 30
0.0
 10
103.1670822577877
 20
149.3306448457354
 30
0.0
 10
103.160511121746
 20
149.3562125252704
 30
0.0
 10
103.1514966193744
 20
149.3809574262018
 30
0.0
 10
103.1429398275244
 20
149.4044459070833
 30
0.0
 10
103.1321814935223
 20
149.4271930411782
 30
0.0
 10
103.1187561723927
 20
149.4481317923719
 30
0.0
 10
103.105449734933
 20
149.4688851271028
 30
0.0
 10
103.089523334532
 20
149.4878619642508
 30
0.0
 10
103.0735969345327
 20
149.5068388012513
 30
0.0
 10
103.0626107725327
 20
149.5169611992521
 30
0.0
 10
103.0516246109697
 20
149.5270835971573
 30
0.0
 10
103.0391630158987
 20
149.5350633247689
 30
0.0
 10
103.0273555929159
 20
149.5426241561601
 30
0.0
 10
103.0142235764479
 20
149.5482613718152
 30
0.0
 10
103.0007776640778
 20
149.5525625287965
 30
0.0
 10
102.9935338016135
 20
149.5548797378303
 30
0.0
 10
102.9861988334628
 20
149.5568091668965
 30
0.0
 10
102.9787625361479
 20
149.5582074333719
 30
0.0
 10
102.9700112192135
 20
149.5598529664339
 30
0.0
 10
102.9611195666989
 20
149.5607628671531
 30
0.0
 10
102.952231484049
 20
149.5615943764055
 30
0.0
 10
102.9420740995604
 20
149.5625446330036
 30
0.0
 10
102.9319213773637
 20
149.5633925093004
 30
0.0
 10
102.9217489986991
 20
149.5638523383485
 30
0.0
 10
102.9101365066174
 20
149.5643772658367
 30
0.0
 10
102.8984983985356
 20
149.5643964962591
 30
0.0
 10
102.8868602905354
 20
149.5644157262599
 30
0.0
 10
102.8868602905354
 20
149.5644157262599
 30
0.0
 10
102.3679182485359
 20
149.5644157262833
 30
0.0
 10
102.3679182485359
 20
149.5644157262833
 30
0.0
 10
102.3679182485359
 20
149.5644157262833
 30
0.0
 10
102.3679182485045
 20
148.8734804952832
 30
0.0
 10
102.3679182485045
 20
148.8734804952832
 30
0.0
 10
102.3679182485045
 20
148.8734804952832
 30
0.0
 10
102.8907020225044
 20
148.8734804952597
 30
0.0
 10
102.8907020225044
 20
148.8734804952597
 30
0.0
 10
102.9023699315041
 20
148.8735449342592
 30
0.0
 10
102.9140378402927
 20
148.8736093733986
 30
0.0
 10
102.9257004316158
 20
148.8740449851471
 30
0.0
 10
102.9358846774004
 20
148.8744253789188
 30
0.0
 10
102.9460648683587
 20
148.8750888099096
 30
0.0
 10
102.9561829168368
 20
148.8763029471321
 30
0.0
 10
102.9650916199943
 20
148.8773719663346
 30
0.0
 10
102.9739521478955
 20
148.87886791434
 30
0.0
 10
102.9827139688939
 20
148.88081887109
 30
0.0
 10
102.9901609668317
 20
148.8824770618804
 30
0.0
 10
102.9975366595642
 20
148.8844639479432
 30
0.0
 10
103.0047290975663
 20
148.887028266198
 30
0.0
 10
103.0183859433872
 20
148.8918973382745
 30
0.0
 10
103.0313820900531
 20
148.8988482609081
 30
0.0
 10
103.0431144492803
 20
148.9073499231308
 30
0.0
 10
103.0555369893289
 20
148.9163517135968
 30
0.0
 10
103.0665426785066
 20
148.9270920612516
 30
0.0
 10
103.0775483675072
 20
148.937832408251
 30
0.0
 10
103.0930988745081
 20
148.9566344762506
 30
0.0
 10
103.1086493816208
 20
148.9754365440872
 30
0.0
 10
103.1215786247024
 20
148.9959749263684
 30
0.0
 10
103.13455888614
 20
149.0165943524128
 30
0.0
 10
103.144897155893
 20
149.0389638228141
 30
0.0
 10
103.1531900905021
 20
149.062020311088
 30
0.0
 10
103.1619667404299
 20
149.0864216521906
 30
0.0
 10
103.168452493424
 20
149.1115924941464
 30
0.0
 10
103.1723827665099
 20
149.1370975434833
 30
0.0
 10
103.176633944192
 20
149.1646850658106
 30
0.0
 10
103.1778952985189
 20
149.1926635992467
 30
0.0
 10
103.1791566525198
 20
149.2206421332466
 30
0.0
  0
HATCH
  5
75
330
70
100
AcDbEntity
  8
0
 62
     7
420
 16777215
100
AcDbHatch
 10
0.0
 20
0.0
 30
0.0
210
0.0
220
0.0
230
1.0
  2
SOLID
 70
     1
 71
     0
 91
        1
 92
        1
 93
        1
 72
     4
 94
        3
 73
     0
 74
     1
 95
       74
 96
       70
 40
0.0
 40
0.0
 40
0.0
 40
0.0
 40
1.0
 40
1.0
 40
1.0
 40
2.0
 40
2.0
 40
2.0
 40
3.0
 40
3.0
 40
3.0
 40
4.0
 40
4.0
 40
4.0
 40
5.0
 40
5.0
 40
5.0
 40
6.0
 40
6.0
 40
6.0
 40
7.0
 40
7.0
 40
7.0
 40
8.0
 40
8.0
 40
8.0
 40
9.0
 40
9.0
 40
9.0
 40
10.0
 40
10.0
 40
10.0
 40
11.0
 40
11.0
 40
11.0
 40
12.0
 40
12.0
 40
12.0
 40
13.0
 40
13.0
 40
13.0
 40
14.0
 40
14.0
 40
14.0
 40
15.0
 40
15.0
 40
15.0
 40
16.0
 40
16.0
 40
16.0
 40
17.0
 40
17.0
 40
17.0
 40
18.0
 40
18.0
 40
18.0
 40
19.0
 40
19.0
 40
19.0
 40
20.0
 40
20.0
 40
20.0
 40
21.0
 40
21.0
 40
21.0
 40
22.0
 40
22.0
 40
22.0
 40
23.0
 40
23.0
 40
23.0
 40
23.0
 10
103.1791566525198
 20
149.2206421332466
 10
103.177443426521
 20
149.2488036062468
 10
103.1757302005253
 20
149.2769650799137
 10
103.1712537859421
 20
149.3047512128533
 10
103.1670822577877
 20
149.3306448457354
 10
103.160511121746
 20
149.3562125252704
 10
103.1514966193744
 20
149.3809574262018
 10
103.1429398275244
 20
149.4044459070833
 10
103.1321814935223
 20
149.4271930411782
 10
103.1187561723927
 20
149.4481317923719
 10
103.105449734933
 20
149.4688851271028
 10
103.089523334532
 20
149.4878619642508
 10
103.0735969345327
 20
149.5068388012513
 10
103.0626107725327
 20
149.5169611992521
 10
103.0516246109697
 20
149.5270835971573
 10
103.0391630158987
 20
149.5350633247689
 10
103.0273555929159
 20
149.5426241561601
 10
103.0142235764479
 20
149.5482613718152
 10
103.0007776640778
 20
149.5525625287965
 10
102.9935338016135
 20
149.5548797378303
 10
102.9861988334628
 20
149.5568091668965
 10
102.9787625361479
 20
149.5582074333719
 10
102.9700112192135
 20
149.5598529664339
 10
102.9611195666989
 20
149.5607628671531
 10
102.952231484049
 20
149.5615943764055
 10
102.9420740995604
 20
149.5625446330036
 10
102.9319213773637
 20
149.5633925093004
 10
102.9217489986991
 20
149.5638523383485
 10
102.9101365066174
 20
149.5643772658367
 10
102.8984983985356
 20
149.5643964962591
 10
102.8868602905354
 20
149.5644157262599
 10
102.8868602905354
 20
149.5644157262599
 10
102.3679182485359
 20
149.5644157262833
 10
102.3679182485359
 20
149.5644157262833
 10
102.3679182485359
 20
149.5644157262833
 10
102.3679182485045
 20
148.8734804952832
 10
102.3679182485045
 20
148.8734804952832
 10
102.3679182485045
 20
148.8734804952832
 10
102.8907020225044
 20
148.8734804952597
 10
102.8907020225044
 20
148.8734804952597
 10
102.9023699315041
 20
148.8735449342592
 10
102.9140378402927
 20
148.8736093733986
 10
102.9257004316158
 20
148.8740449851471
 10
102.9358846774004
 20
148.8744253789188
 10
102.9460648683587
 20
148.8750888099096
 10
102.9561829168368
 20
148.8763029471321
 10
102.9650916199943
 20
148.8773719663346
 10
102.9739521478955
 20
148.87886791434
 10
102.9827139688939
 20
148.88081887109
 10
102.9901609668317
 20
148.8824770618804
 10
102.9975366595642
 20
148.8844639479432
 10
103.0047290975663
 20
148.887028266198
 10
103.0183859433872
 20
148.8918973382745
 10
103.0313820900531
 20
148.8988482609081
 10
103.0431144492803
 20
148.9073499231308
 10
103.0555369893289
 20
148.9163517135968
 10
103.0665426785066
 20
148.9270920612516
 10
103.0775483675072
 20
148.937832408251
 10
103.0930988745081
 20
148.9566344762506
 10
103.1086493816208
 20
148.9754365440872
 10
103.1215786247024
 20
148.9959749263684
 10
103.13455888614
 20
149.0165943524128
 10
103.144897155893
 20
149.0389638228141
 10
103.1531900905021
 20
149.062020311088
 10
103.1619667404299
 20
149.0864216521906
 10
103.168452493424
 20
149.1115924941464
 10
103.1723827665099
 20
149.1370975434833
 10
103.176633944192
 20
149.1646850658106
 10
103.1778952985189
 20
149.1926635992467
 10
103.1791566525198
 20
149.2206421332466
 97
        0
 97
        0
 75
     2
 76
     1
 98
        0
  0
ENDBLK
  5
73
330
70
100
AcDbEntity
  8
0
100
AcDbBlockEnd
  0
BLOCK
  5
78
330
76
100
AcDbEntity
  8
0
100
AcDbBlockBegin
  2
block 11
 70
     0
 10
0.0
 20
0.0
 30
0.0
  3
block 11
  1

  0
SPLINE
  5
7A
330
76
100
AcDbEntity
  8
0
 62
     7
420
 16777215
370
     5
100
AcDbSpline
210
0.0
220
0.0
230
1.0
 70
    11
 71
     3
 72
    98
 73
    94
 74
     0
 42
0.0000000001
 43
0.0000000001
 12
1.0
 22
0.0
 32
0.0
 13
1.0
 23
0.0
 33
0.0
 40
0.0
 40
0.0
 40
0.0
 40
0.0
 40
1.0
 40
1.0
 40
1.0
 40
2.0
 40
2.0
 40
2.0
 40
3.0
 40
3.0
 40
3.0
 40
4.0
 40
4.0
 40
4.0
 40
5.0
 40
5.0
 40
5.0
 40
6.0
 40
6.0
 40
6.0
 40
7.0
 40
7.0
 40
7.0
 40
8.0
 40
8.0
 40
8.0
 40
9.0
 40
9.0
 40
9.0
 40
10.0
 40
10.0
 40
10.0
 40
11.0
 40
11.0
 40
11.0
 40
12.0
 40
12.0
 40
12.0
 40
13.0
 40
13.0
 40
13.0
 40
14.0
 40
14.0
 40
14.0
 40
15.0
 40
15.0
 40
15.0
 40
16.0
 40
16.0
 40
16.0
 40
17.0
 40
17.0
 40
17.0
 40
18.0
 40
18.0
 40
18.0
 40
19.0
 40
19.0
 40
19.0
 40
20.0
 40
20.0
 40
20.0
 40
21.0
 40
21.0
 40
21.0
 40
22.0
 40
22.0
 40
22.0
 40
23.0
 40
23.0
 40
23.0
 40
24.0
 40
24.0
 40
24.0
 40
25.0
 40
25.0
 40
25.0
 40
26.0
 40
26.0
 40
26.0
 40
27.0
 40
27.0
 40
27.0
 40
28.0
 40
28.0
 40
28.0
 40
29.0
 40
29.0
 40
29.0
 40
30.0
 40
30.0
 40
30.0
 40
31.0
 40
31.0
 40
31.0
 40
31.0
 10
103.1791566524691
 20
148.078677914247
 30
0.0
 10
103.1784129484698
 20
148.0999661252472
 30
0.0
 10
103.1776692449132
 20
148.1212543356466
 30
0.0
 10
103.1757697093974
 20
148.1424653374607
 30
0.0
 10
103.1739037741097
 20
148.1633011451925
 30
0.0
 10
103.1709225354415
 20
148.1840624516126
 30
0.0
 10
103.1667378622409
 20
148.2045592892895
 30
0.0
 10
103.162656403232
 20
148.2245505762532
 30
0.0
 10
103.157430142557
 20
148.2442902797275
 30
0.0
 10
103.1514966197106
 20
148.2638307880752
 30
0.0
 10
103.1456283232974
 20
148.283156490194
 30
0.0
 10
103.1390682289223
 20
148.3022873525651
 30
0.0
 10
103.1311749627474
 20
148.3208443255459
 30
0.0
 10
103.1235371061535
 20
148.3388008336994
 30
0.0
 10
103.1146509591837
 20
148.3562199913013
 30
0.0
 10
103.1052084008304
 20
148.3733419391716
 30
0.0
 10
103.0962174097597
 20
148.3896450717178
 30
0.0
 10
103.0867219528241
 20
148.4056787414731
 30
0.0
 10
103.0758548968819
 20
148.4207591383951
 30
0.0
 10
103.0654747389765
 20
148.4351638586934
 30
0.0
 10
103.0538431374843
 20
148.4486988151858
 30
0.0
 10
103.0414209780057
 20
148.461402452559
 30
0.0
 10
103.0293146071037
 20
148.4737831457962
 30
0.0
 10
103.016457361487
 20
148.4853742492539
 30
0.0
 10
103.0036001164877
 20
148.4969653522547
 30
0.0
 10
102.9908027354884
 20
148.5066162932554
 30
0.0
 10
102.9780053539809
 20
148.5162672335644
 30
0.0
 10
102.9640857835583
 20
148.5240608943083
 30
0.0
 10
102.9512939268761
 20
148.5312231405721
 30
0.0
 10
102.937554347065
 20
148.5368168569958
 30
0.0
 10
102.9234424695965
 20
148.5409956082159
 30
0.0
 10
102.9083271301651
 20
148.5454715004726
 30
0.0
 10
102.8927846642338
 20
148.5483240434427
 30
0.0
 10
102.8771542516826
 20
148.5500274557087
 30
0.0
 10
102.8583640181591
 20
148.5520752272669
 30
0.0
 10
102.83944668549
 20
148.5524622922619
 30
0.0
 10
102.8205293524903
 20
148.5528493572626
 30
0.0
 10
102.8205293524903
 20
148.5528493572626
 30
0.0
 10
102.3484091494901
 20
148.5528493572838
 30
0.0
 10
102.3484091494901
 20
148.5528493572838
 30
0.0
 10
102.3484091494901
 20
148.5528493572838
 30
0.0
 10
102.3484091494477
 20
147.6090218442846
 30
0.0
 10
102.3484091494477
 20
147.6090218442846
 30
0.0
 10
102.3484091494477
 20
147.6090218442846
 30
0.0
 10
102.793045171448
 20
147.6090218442641
 30
0.0
 10
102.793045171448
 20
147.6090218442641
 30
0.0
 10
102.808851510448
 20
147.6092523452632
 30
0.0
 10
102.8246578492632
 20
147.6094828454742
 30
0.0
 10
102.8404623708519
 20
147.6101508251977
 30
0.0
 10
102.8546146237897
 20
147.6107489716164
 30
0.0
 10
102.8687654195997
 20
147.6116979072016
 30
0.0
 10
102.8827991562674
 20
147.6135377679896
 30
0.0
 10
102.895127870024
 20
147.6151540956663
 30
0.0
 10
102.9073662408388
 20
147.6174580142708
 30
0.0
 10
102.9194910368967
 20
147.6203116535568
 30
0.0
 10
102.9304019810798
 20
147.6228796059445
 30
0.0
 10
102.9412209528453
 20
147.6258927201012
 30
0.0
 10
102.951666993287
 20
147.6299079918392
 30
0.0
 10
102.9614071501303
 20
147.6336519345049
 30
0.0
 10
102.9708230738673
 20
147.6382671707425
 30
0.0
 10
102.9798915169526
 20
147.6434557629235
 30
0.0
 10
102.9890974794731
 20
147.6487230380986
 30
0.0
 10
102.9979453426153
 20
147.6545811905103
 30
0.0
 10
103.0064225689642
 20
147.6609549677605
 30
0.0
 10
103.0151760842491
 20
147.6675364785382
 30
0.0
 10
103.0235344095221
 20
147.6746677722563
 30
0.0
 10
103.0312601493642
 20
147.6824056054983
 30
0.0
 10
103.0394486055369
 20
147.6906068793783
 30
0.0
 10
103.0469264324516
 20
147.6994895232527
 30
0.0
 10
103.0544042584524
 20
147.7083721672516
 30
0.0
 10
103.064226473453
 20
147.7210051372521
 30
0.0
 10
103.0740486888488
 20
147.7336381076312
 30
0.0
 10
103.0831932726226
 20
147.7467575186923
 30
0.0
 10
103.0923277253354
 20
147.7598623950802
 30
0.0
 10
103.100786047056
 20
147.7734526349157
 30
0.0
 10
103.1085953436152
 20
147.7874008325341
 30
0.0
 10
103.1164105958788
 20
147.801359667645
 30
0.0
 10
103.1235758326546
 20
147.8156770067376
 30
0.0
 10
103.1300459814377
 20
147.8303021082239
 30
0.0
 10
103.1365790028429
 20
147.8450693267645
 30
0.0
 10
103.1424033618097
 20
147.860150318024
 30
0.0
 10
103.1475451862427
 20
147.8754613460095
 30
0.0
 10
103.1527808049463
 20
147.8910516691576
 30
0.0
 10
103.1573087611795
 20
147.9068804979792
 30
0.0
 10
103.1610929575208
 20
147.9228785447768
 30
0.0
 10
103.1649752957449
 20
147.9392914956358
 30
0.0
 10
103.1680747954847
 20
147.9558825555138
 30
0.0
 10
103.1706892953007
 20
147.9725537062391
 30
0.0
 10
103.1733921324376
 20
147.9897881328874
 30
0.0
 10
103.1755766421422
 20
148.0071081539469
 30
0.0
 10
103.17689869024
 20
148.0244868295186
 30
0.0
 10
103.1782696509467
 20
148.0425084744064
 30
0.0
 10
103.1787131514673
 20
148.0605931942465
 30
0.0
 10
103.1791566524691
 20
148.078677914247
 30
0.0
  0
HATCH
  5
7B
330
76
100
AcDbEntity
  8
0
 62
     7
420
 16777215
100
AcDbHatch
 10
0.0
 20
0.0
 30
0.0
210
0.0
220
0.0
230
1.0
  2
SOLID
 70
     1
 71
     0
 91
        1
 92
        1
 93
        1
 72
     4
 94
        3
 73
     0
 74
     1
 95
       98
 96
       94
 40
0.0
 40
0.0
 40
0.0
 40
0.0
 40
1.0
 40
1.0
 40
1.0
 40
2.0
 40
2.0
 40
2.0
 40
3.0
 40
3.0
 40
3.0
 40
4.0
 40
4.0
 40
4.0
 40
5.0
 40
5.0
 40
5.0
 40
6.0
 40
6.0
 40
6.0
 40
7.0
 40
7.0
 40
7.0
 40
8.0
 40
8.0
 40
8.0
 40
9.0
 40
9.0
 40
9.0
 40
10.0
 40
10.0
 40
10.0
 40
11.0
 40
11.0
 40
11.0
 40
12.0
 40
12.0
 40
12.0
 40
13.0
 40
13.0
 40
13.0
 40
14.0
 40
14.0
 40
14.0
 40
15.0
 40
15.0
 40
15.0
 40
16.0
 40
16.0
 40
16.0
 40
17.0
 40
17.0
 40
17.0
 40
18.0
 40
18.0
 40
18.0
 40
19.0
 40
19.0
 40
19.0
 40
20.0
 40
20.0
 40
20.0
 40
21.0
 40
21.0
 40
21.0
 40
22.0
 40
22.0
 40
22.0
 40
23.0
 40
23.0
 40
23.0
 40
24.0
 40
24.0
 40
24.0
 40
25.0
 40
25.0
 40
25.0
 40
26.0
 40
26.0
 40
26.0
 40
27.0
 40
27.0
 40
27.0
 40
28.0
 40
28.0
 40
28.0
 40
29.0
 40
29.0
 40
29.0
 40
30.0
 40
30.0
 40
30.0
 40
31.0
 40
31.0
 40
31.0
 40
31.0
 10
103.1791566524691
 20
148.078677914247
 10
103.1784129484698
 20
148.0999661252472
 10
103.1776692449132
 20
148.1212543356466
 10
103.1757697093974
 20
148.1424653374607
 10
103.1739037741097
 20
148.1633011451925
 10
103.1709225354415
 20
148.1840624516126
 10
103.1667378622409
 20
148.2045592892895
 10
103.162656403232
 20
148.2245505762532
 10
103.157430142557
 20
148.2442902797275
 10
103.1514966197106
 20
148.2638307880752
 10
103.1456283232974
 20
148.283156490194
 10
103.1390682289223
 20
148.3022873525651
 10
103.1311749627474
 20
148.3208443255459
 10
103.1235371061535
 20
148.3388008336994
 10
103.1146509591837
 20
148.3562199913013
 10
103.1052084008304
 20
148.3733419391716
 10
103.0962174097597
 20
148.3896450717178
 10
103.0867219528241
 20
148.4056787414731
 10
103.0758548968819
 20
148.4207591383951
 10
103.0654747389765
 20
148.4351638586934
 10
103.0538431374843
 20
148.4486988151858
 10
103.0414209780057
 20
148.461402452559
 10
103.0293146071037
 20
148.4737831457962
 10
103.016457361487
 20
148.4853742492539
 10
103.0036001164877
 20
148.4969653522547
 10
102.9908027354884
 20
148.5066162932554
 10
102.9780053539809
 20
148.5162672335644
 10
102.9640857835583
 20
148.5240608943083
 10
102.9512939268761
 20
148.5312231405721
 10
102.937554347065
 20
148.5368168569958
 10
102.9234424695965
 20
148.5409956082159
 10
102.9083271301651
 20
148.5454715004726
 10
102.8927846642338
 20
148.5483240434427
 10
102.8771542516826
 20
148.5500274557087
 10
102.8583640181591
 20
148.5520752272669
 10
102.83944668549
 20
148.5524622922619
 10
102.8205293524903
 20
148.5528493572626
 10
102.8205293524903
 20
148.5528493572626
 10
102.3484091494901
 20
148.5528493572838
 10
102.3484091494901
 20
148.5528493572838
 10
102.3484091494901
 20
148.5528493572838
 10
102.3484091494477
 20
147.6090218442846
 10
102.3484091494477
 20
147.6090218442846
 10
102.3484091494477
 20
147.6090218442846
 10
102.793045171448
 20
147.6090218442641
 10
102.793045171448
 20
147.6090218442641
 10
102.808851510448
 20
147.6092523452632
 10
102.8246578492632
 20
147.6094828454742
 10
102.8404623708519
 20
147.6101508251977
 10
102.8546146237897
 20
147.6107489716164
 10
102.8687654195997
 20
147.6116979072016
 10
102.8827991562674
 20
147.6135377679896
 10
102.895127870024
 20
147.6151540956663
 10
102.9073662408388
 20
147.6174580142708
 10
102.9194910368967
 20
147.6203116535568
 10
102.9304019810798
 20
147.6228796059445
 10
102.9412209528453
 20
147.6258927201012
 10
102.951666993287
 20
147.6299079918392
 10
102.9614071501303
 20
147.6336519345049
 10
102.9708230738673
 20
147.6382671707425
 10
102.9798915169526
 20
147.6434557629235
 10
102.9890974794731
 20
147.6487230380986
 10
102.9979453426153
 20
147.6545811905103
 10
103.0064225689642
 20
147.6609549677605
 10
103.0151760842491
 20
147.6675364785382
 10
103.0235344095221
 20
147.6746677722563
 10
103.0312601493642
 20
147.6824056054983
 10
103.0394486055369
 20
147.6906068793783
 10
103.0469264324516
 20
147.6994895232527
 10
103.0544042584524
 20
147.7083721672516
 10
103.064226473453
 20
147.7210051372521
 10
103.0740486888488
 20
147.7336381076312
 10
103.0831932726226
 20
147.7467575186923
 10
103.0923277253354
 20
147.7598623950802
 10
103.100786047056
 20
147.7734526349157
 10
103.1085953436152
 20
147.7874008325341
 10
103.1164105958788
 20
147.801359667645
 10
103.1235758326546
 20
147.8156770067376
 10
103.1300459814377
 20
147.8303021082239
 10
103.1365790028429
 20
147.8450693267645
 10
103.1424033618097
 20
147.860150318024
 10
103.1475451862427
 20
147.8754613460095
 10
103.1527808049463
 20
147.8910516691576
 10
103.1573087611795
 20
147.9068804979792
 10
103.1610929575208
 20
147.9228785447768
 10
103.1649752957449
 20
147.9392914956358
 10
103.1680747954847
 20
147.9558825555138
 10
103.1706892953007
 20
147.9725537062391
 10
103.1733921324376
 20
147.9897881328874
 10
103.1755766421422
 20
148.0071081539469
 10
103.17689869024
 20
148.0244868295186
 10
103.1782696509467
 20
148.0425084744064
 10
103.1787131514673
 20
148.0605931942465
 10
103.1791566524691
 20
148.078677914247
 97
        0
 97
        0
 75
     2
 76
     1
 98
        0
  0
ENDBLK
  5
79
330
76
100
AcDbEntity
  8
0
100
AcDbBlockEnd
  0
BLOCK
  5
7E
330
7C
100
AcDbEntity
  8
0
100
AcDbBlockBegin
  2
block 12
 70
     0
 10
0.0
 20
0.0
 30
0.0
  3
block 12
  1

  0
SPLINE
  5
80
330
7C
100
AcDbEntity
  8
0
 62
     7
420
 16777215
370
     5
100
AcDbSpline
210
0.0
220
0.0
230
1.0
 70
    11
 71
     3
 72
    92
 73
    88
 74
     0
 42
0.0000000001
 43
0.0000000001
 12
1.0
 22
0.0
 32
0.0
 13
1.0
 23
0.0
 33
0.0
 40
0.0
 40
0.0
 40
0.0
 40
0.0
 40
1.0
 40
1.0
 40
1.0
 40
2.0
 40
2.0
 40
2.0
 40
3.0
 40
3.0
 40
3.0
 40
4.0
 40
4.0
 40
4.0
 40
5.0
 40
5.0
 40
5.0
 40
6.0
 40
6.0
 40
6.0
 40
7.0
 40
7.0
 40
7.0
 40
8.0
 40
8.0
 40
8.0
 40
9.0
 40
9.0
 40
9.0
 40
10.0
 40
10.0
 40
10.0
 40
11.0
 40
11.0
 40
11.0
 40
12.0
 40
12.0
 40
12.0
 40
13.0
 40
13.0
 40
13.0
 40
14.0
 40
14.0
 40
14.0
 40
15.0
 40
15.0
 40
15.0
 40
16.0
 40
16.0
 40
16.0
 40
17.0
 40
17.0
 40
17.0
 40
18.0
 40
18.0
 40
18.0
 40
19.0
 40
19.0
 40
19.0
 40
20.0
 40
20.0
 40
20.0
 40
21.0
 40
21.0
 40
21.0
 40
22.0
 40
22.0
 40
22.0
 40
23.0
 40
23.0
 40
23.0
 40
24.0
 40
24.0
 40
24.0
 40
25.0
 40
25.0
 40
25.0
 40
26.0
 40
26.0
 40
26.0
 40
27.0
 40
27.0
 40
27.0
 40
28.0
 40
28.0
 40
28.0
 40
29.0
 40
29.0
 40
29.0
 40
29.0
 10
100.0919582774999
 20
148.7775171153853
 30
0.0
 10
100.1018087205004
 20
148.788603549385
 30
0.0
 10
100.1116591627477
 20
148.7996899843264
 30
0.0
 10
100.1207472916829
 20
148.8113865435364
 30
0.0
 10
100.1299663802189
 20
148.8232516497301
 30
0.0
 10
100.1384010273384
 20
148.8357445906185
 30
0.0
 10
100.1461493625613
 20
148.8486429145366
 30
0.0
 10
100.1540462378358
 20
148.861788506758
 30
0.0
 10
100.1612302349987
 20
148.8753551738442
 30
0.0
 10
100.1676000007624
 20
148.889286228157
 30
0.0
 10
100.1741670868945
 20
148.9036488337817
 30
0.0
 10
100.1798687143292
 20
148.9183987520238
 30
0.0
 10
100.1850992054076
 20
148.9333164848209
 30
0.0
 10
100.1904413555414
 20
148.9485526771909
 30
0.0
 10
100.1952920392365
 20
148.9639639255091
 30
0.0
 10
100.1992114668971
 20
148.9796047029032
 30
0.0
 10
100.2031746498725
 20
148.9954200892443
 30
0.0
 10
100.2061856682261
 20
149.0114701580545
 30
0.0
 10
100.2088078050858
 20
149.027586392453
 30
0.0
 10
100.2114904866651
 20
149.0440747481197
 30
0.0
 10
100.213766120999
 20
149.0606323601559
 30
0.0
 10
100.2150171999089
 20
149.0772615540693
 30
0.0
 10
100.2163016363049
 20
149.0943341317559
 30
0.0
 10
100.2165061535149
 20
149.1114821593798
 30
0.0
 10
100.216710671516
 20
149.1286301863799
 30
0.0
 10
100.2162439475164
 20
149.1495543853798
 30
0.0
 10
100.215777224247
 20
149.1704785835383
 30
0.0
 10
100.2138882192268
 20
149.1912886289901
 30
0.0
 10
100.2120489060449
 20
149.2115512490067
 30
0.0
 10
100.2088611554909
 20
149.2317056430861
 30
0.0
 10
100.2048563717975
 20
149.2516891091589
 30
0.0
 10
100.2010408158553
 20
149.270728347868
 30
0.0
 10
100.1964836129973
 20
149.2896124297997
 30
0.0
 10
100.1907441099558
 20
149.3081381557604
 30
0.0
 10
100.1850352091622
 20
149.3265651050758
 30
0.0
 10
100.1781565823001
 20
149.3446375096433
 30
0.0
 10
100.1704224529868
 20
149.3623292406778
 30
0.0
 10
100.1630007010531
 20
149.3793064120854
 30
0.0
 10
100.1547911576585
 20
149.395933039368
 30
0.0
 10
100.1455848724494
 20
149.4120044024346
 30
0.0
 10
100.1369427331975
 20
149.4270909389078
 30
0.0
 10
100.127422266715
 20
149.4416881774767
 30
0.0
 10
100.116795858396
 20
149.4554701684514
 30
0.0
 10
100.1065332118229
 20
149.4687803762087
 30
0.0
 10
100.0952390443459
 20
149.4813301959357
 30
0.0
 10
100.0829264303915
 20
149.4927265391878
 30
0.0
 10
100.0709607205151
 20
149.5038017940051
 30
0.0
 10
100.0580331445329
 20
149.5137876543869
 30
0.0
 10
100.045105568534
 20
149.5237735153873
 30
0.0
 10
100.0346478495335
 20
149.5308585483877
 30
0.0
 10
100.0241901297297
 20
149.5379435822688
 30
0.0
 10
100.012929612322
 20
149.5435306815103
 30
0.0
 10
100.0018543510133
 20
149.5490258627553
 30
0.0
 10
99.99000248979064
 20
149.5530719914528
 30
0.0
 10
99.97793120294494
 20
149.5559494720598
 30
0.0
 10
99.96402230389846
 20
149.559264991588
 30
0.0
 10
99.94982208793209
 20
149.5610289741629
 30
0.0
 10
99.93559441796705
 20
149.5621588673792
 30
0.0
 10
99.91772314079425
 20
149.5635781183807
 30
0.0
 10
99.89980854753482
 20
149.563996922394
 30
0.0
 10
99.88189395453593
 20
149.5644157263949
 30
0.0
 10
99.88189395453593
 20
149.5644157263949
 30
0.0
 10
99.45317887853584
 20
149.5644157264142
 30
0.0
 10
99.45317887853584
 20
149.5644157264142
 30
0.0
 10
99.45317887853584
 20
149.5644157264142
 30
0.0
 10
99.45317887849669
 20
148.692843544414
 30
0.0
 10
99.45317887849669
 20
148.692843544414
 30
0.0
 10
99.45317887849669
 20
148.692843544414
 30
0.0
 10
99.85825922349659
 20
148.6928435443957
 30
0.0
 10
99.85825922349659
 20
148.6928435443957
 30
0.0
 10
99.87257122649653
 20
148.6927794763955
 30
0.0
 10
99.88688322877584
 20
148.6927154079262
 30
0.0
 10
99.90116049934171
 20
148.6934080353724
 30
0.0
 10
99.91379631544558
 20
148.6940210316023
 30
0.0
 10
99.92640492694518
 20
148.6952267314854
 30
0.0
 10
99.93898136093287
 20
148.6967949782939
 30
0.0
 10
99.95016930749566
 20
148.6981900845316
 30
0.0
 10
99.9613317893807
 20
148.699872103595
 30
0.0
 10
99.97228629847248
 20
148.7024398827445
 30
0.0
 10
99.98166706058778
 20
148.704638769538
 30
0.0
 10
99.99089531319179
 20
148.7074871972451
 30
0.0
 10
99.99994633131314
 20
148.7109072400378
 30
0.0
 10
100.0171723927446
 20
148.7174163273531
 30
0.0
 10
100.0337564685043
 20
148.725995941182
 30
0.0
 10
100.048492511528
 20
148.7368738013635
 30
0.0
 10
100.0644204885149
 20
148.748631524
 30
0.0
 10
100.0781893834989
 20
148.7630743193858
 30
0.0
 10
100.0919582774999
 20
148.7775171153853
 30
0.0
  0
HATCH
  5
81
330
7C
100
AcDbEntity
  8
0
 62
     7
420
 16777215
100
AcDbHatch
 10
0.0
 20
0.0
 30
0.0
210
0.0
220
0.0
230
1.0
  2
SOLID
 70
     1
 71
     0
 91
        1
 92
        1
 93
        1
 72
     4
 94
        3
 73
     0
 74
     1
 95
       92
 96
       88
 40
0.0
 40
0.0
 40
0.0
 40
0.0
 40
1.0
 40
1.0
 40
1.0
 40
2.0
 40
2.0
 40
2.0
 40
3.0
 40
3.0
 40
3.0
 40
4.0
 40
4.0
 40
4.0
 40
5.0
 40
5.0
 40
5.0
 40
6.0
 40
6.0
 40
6.0
 40
7.0
 40
7.0
 40
7.0
 40
8.0
 40
8.0
 40
8.0
 40
9.0
 40
9.0
 40
9.0
 40
10.0
 40
10.0
 40
10.0
 40
11.0
 40
11.0
 40
11.0
 40
12.0
 40
12.0
 40
12.0
 40
13.0
 40
13.0
 40
13.0
 40
14.0
 40
14.0
 40
14.0
 40
15.0
 40
15.0
 40
15.0
 40
16.0
 40
16.0
 40
16.0
 40
17.0
 40
17.0
 40
17.0
 40
18.0
 40
18.0
 40
18.0
 40
19.0
 40
19.0
 40
19.0
 40
20.0
 40
20.0
 40
20.0
 40
21.0
 40
21.0
 40
21.0
 40
22.0
 40
22.0
 40
22.0
 40
23.0
 40
23.0
 40
23.0
 40
24.0
 40
24.0
 40
24.0
 40
25.0
 40
25.0
 40
25.0
 40
26.0
 40
26.0
 40
26.0
 40
27.0
 40
27.0
 40
27.0
 40
28.0
 40
28.0
 40
28.0
 40
29.0
 40
29.0
 40
29.0
 40
29.0
 10
100.0919582774999
 20
148.7775171153853
 10
100.1018087205004
 20
148.788603549385
 10
100.1116591627477
 20
148.7996899843264
 10
100.1207472916829
 20
148.8113865435364
 10
100.1299663802189
 20
148.8232516497301
 10
100.1384010273384
 20
148.8357445906185
 10
100.1461493625613
 20
148.8486429145366
 10
100.1540462378358
 20
148.861788506758
 10
100.1612302349987
 20
148.8753551738442
 10
100.1676000007624
 20
148.889286228157
 10
100.1741670868945
 20
148.9036488337817
 10
100.1798687143292
 20
148.9183987520238
 10
100.1850992054076
 20
148.9333164848209
 10
100.1904413555414
 20
148.9485526771909
 10
100.1952920392365
 20
148.9639639255091
 10
100.1992114668971
 20
148.9796047029032
 10
100.2031746498725
 20
148.9954200892443
 10
100.2061856682261
 20
149.0114701580545
 10
100.2088078050858
 20
149.027586392453
 10
100.2114904866651
 20
149.0440747481197
 10
100.213766120999
 20
149.0606323601559
 10
100.2150171999089
 20
149.0772615540693
 10
100.2163016363049
 20
149.0943341317559
 10
100.2165061535149
 20
149.1114821593798
 10
100.216710671516
 20
149.1286301863799
 10
100.2162439475164
 20
149.1495543853798
 10
100.215777224247
 20
149.1704785835383
 10
100.2138882192268
 20
149.1912886289901
 10
100.2120489060449
 20
149.2115512490067
 10
100.2088611554909
 20
149.2317056430861
 10
100.2048563717975
 20
149.2516891091589
 10
100.2010408158553
 20
149.270728347868
 10
100.1964836129973
 20
149.2896124297997
 10
100.1907441099558
 20
149.3081381557604
 10
100.1850352091622
 20
149.3265651050758
 10
100.1781565823001
 20
149.3446375096433
 10
100.1704224529868
 20
149.3623292406778
 10
100.1630007010531
 20
149.3793064120854
 10
100.1547911576585
 20
149.395933039368
 10
100.1455848724494
 20
149.4120044024346
 10
100.1369427331975
 20
149.4270909389078
 10
100.127422266715
 20
149.4416881774767
 10
100.116795858396
 20
149.4554701684514
 10
100.1065332118229
 20
149.4687803762087
 10
100.0952390443459
 20
149.4813301959357
 10
100.0829264303915
 20
149.4927265391878
 10
100.0709607205151
 20
149.5038017940051
 10
100.0580331445329
 20
149.5137876543869
 10
100.045105568534
 20
149.5237735153873
 10
100.0346478495335
 20
149.5308585483877
 10
100.0241901297297
 20
149.5379435822688
 10
100.012929612322
 20
149.5435306815103
 10
100.0018543510133
 20
149.5490258627553
 10
99.99000248979064
 20
149.5530719914528
 10
99.97793120294494
 20
149.5559494720598
 10
99.96402230389846
 20
149.559264991588
 10
99.94982208793209
 20
149.5610289741629
 10
99.93559441796705
 20
149.5621588673792
 10
99.91772314079425
 20
149.5635781183807
 10
99.89980854753482
 20
149.563996922394
 10
99.88189395453593
 20
149.5644157263949
 10
99.88189395453593
 20
149.5644157263949
 10
99.45317887853584
 20
149.5644157264142
 10
99.45317887853584
 20
149.5644157264142
 10
99.45317887853584
 20
149.5644157264142
 10
99.45317887849669
 20
148.692843544414
 10
99.45317887849669
 20
148.692843544414
 10
99.45317887849669
 20
148.692843544414
 10
99.85825922349659
 20
148.6928435443957
 10
99.85825922349659
 20
148.6928435443957
 10
99.87257122649653
 20
148.6927794763955
 10
99.88688322877584
 20
148.6927154079262
 10
99.90116049934171
 20
148.6934080353724
 10
99.91379631544558
 20
148.6940210316023
 10
99.92640492694518
 20
148.6952267314854
 10
99.93898136093287
 20
148.6967949782939
 10
99.95016930749566
 20
148.6981900845316
 10
99.9613317893807
 20
148.699872103595
 10
99.97228629847248
 20
148.7024398827445
 10
99.98166706058778
 20
148.704638769538
 10
99.99089531319179
 20
148.7074871972451
 10
99.99994633131314
 20
148.7109072400378
 10
100.0171723927446
 20
148.7174163273531
 10
100.0337564685043
 20
148.725995941182
 10
100.048492511528
 20
148.7368738013635
 10
100.0644204885149
 20
148.748631524
 10
100.0781893834989
 20
148.7630743193858
 10
100.0919582774999
 20
148.7775171153853
 97
        0
 97
        0
 75
     2
 76
     1
 98
        0
  0
ENDBLK
  5
7F
330
7C
100
AcDbEntity
  8
0
100
AcDbBlockEnd
  0
ENDSEC
  0
SECTION
  2
ENTITIES
  0
INSERT
  5
41
330
1F
100
AcDbEntity
  8
0
100
AcDbBlockReference
  2
block 2
 10
0.0
 20
0.0
 30
0.0
  0
INSERT
  5
4D
330
1F
100
AcDbEntity
  8
0
100
AcDbBlockReference
  2
block 3
 10
0.0
 20
0.0
 30
0.0
  0
INSERT
  5
52
330
1F
100
AcDbEntity
  8
0
100
AcDbBlockReference
  2
block 4
 10
0.0
 20
0.0
 30
0.0
  0
INSERT
  5
57
330
1F
100
AcDbEntity
  8
0
100
AcDbBlockReference
  2
block 5
 10
0.0
 20
0.0
 30
0.0
  0
INSERT
  5
5C
330
1F
100
AcDbEntity
  8
0
100
AcDbBlockReference
  2
block 6
 10
0.0
 20
0.0
 30
0.0
  0
INSERT
  5
61
330
1F
100
AcDbEntity
  8
0
100
AcDbBlockReference
  2
block 7
 10
0.0
 20
0.0
 30
0.0
  0
INSERT
  5
66
330
1F
100
AcDbEntity
  8
0
100
AcDbBlockReference
  2
block 8
 10
0.0
 20
0.0
 30
0.0
  0
INSERT
  5
6B
330
1F
100
AcDbEntity
  8
0
100
AcDbBlockReference
  2
block 9
 10
0.0
 20
0.0
 30
0.0
  0
INSERT
  5
71
330
1F
100
AcDbEntity
  8
0
100
AcDbBlockReference
  2
block 10
 10
0.0
 20
0.0
 30
0.0
  0
INSERT
  5
77
330
1F
100
AcDbEntity
  8
0
100
AcDbBlockReference
  2
block 11
 10
0.0
 20
0.0
 30
0.0
  0
INSERT
  5
7D
330
1F
100
AcDbEntity
  8
0
100
AcDbBlockReference
  2
block 12
 10
0.0
 20
0.0
 30
0.0
  0
ENDSEC
  0
SECTION
  2
OBJECTS
  0
DICTIONARY
  5
C
330
0
100
AcDbDictionary
281
     1
  3
ACAD_GROUP
350
D
  3
ACAD_LAYOUT
350
1A
  3
ACAD_MATERIAL
350
3B
  3
ACAD_MLEADERSTYLE
350
83
  3
ACAD_MLINESTYLE
350
17
  3
ACAD_PLOTSETTINGS
350
19
  3
ACAD_PLOTSTYLENAME
350
E
  3
ACAD_TABLESTYLE
350
82
  3
ACAD_VISUALSTYLE
350
2A
  0
SUN
  5
3F
330
29
100
AcDbSun
 90
        1
290
     0
 63
     7
421
 16777215
 40
1.0
291
     1
 91
  2455826
 92
 54000000
292
     0
 70
     2
 71
   256
280
     1
  0
DICTIONARY
  5
D
102
{ACAD_REACTORS
330
C
102
}
330
C
100
AcDbDictionary
281
     1
  0
DICTIONARY
  5
1A
102
{ACAD_REACTORS
330
C
102
}
330
C
100
AcDbDictionary
281
     1
  3
Layout1
350
1E
  3
Layout2
350
26
  3
Model
350
22
  0
DICTIONARY
  5
3B
102
{ACAD_REACTORS
330
C
102
}
330
C
100
AcDbDictionary
281
     1
  3
ByBlock
350
3D
  3
ByLayer
350
3C
  3
Global
350
3E
  0
DICTIONARY
  5
83
102
{ACAD_REACTORS
330
C
102
}
330
C
100
AcDbDictionary
281
     1
  0
DICTIONARY
  5
17
102
{ACAD_REACTORS
330
C
102
}
330
C
100
AcDbDictionary
281
     1
  3
Standard
350
18
  0
DICTIONARY
  5
19
102
{ACAD_REACTORS
330
C
102
}
330
C
100
AcDbDictionary
281
     1
  0
ACDBDICTIONARYWDFLT
  5
E
102
{ACAD_REACTORS
330
C
102
}
330
C
100
AcDbDictionary
281
     1
  3
Normal
350
F
100
AcDbDictionaryWithDefault
340
F
  0
DICTIONARY
  5
82
102
{ACAD_REACTORS
330
C
102
}
330
C
100
AcDbDictionary
281
     1
  0
DICTIONARY
  5
2A
102
{ACAD_REACTORS
330
C
102
}
330
C
100
AcDbDictionary
281
     1
  3
2dWireframe
350
2F
  3
3D Hidden
350
31
  3
3dWireframe
350
30
  3
Basic
350
32
  3
Brighten
350
36
  3
ColorChange
350
3A
  3
Conceptual
350
34
  3
Dim
350
35
  3
Facepattern
350
39
  3
Flat
350
2B
  3
FlatWithEdges
350
2C
  3
Gouraud
350
2D
  3
GouraudWithEdges
350
2E
  3
Linepattern
350
38
  3
Realistic
350
33
  3
Thicken
350
37
  0
LAYOUT
  5
1E
102
{ACAD_REACTORS
330
1A
102
}
330
1A
100
AcDbPlotSettings
  1

  2
none_device
  4

  6

 40
0.0
 41
0.0
 42
0.0
 43
0.0
 44
0.0
 45
0.0
 46
0.0
 47
0.0
 48
0.0
 49
0.0
140
0.0
141
0.0
142
1.0
143
1.0
 70
   688
 72
     0
 73
     0
 74
     5
  7

 75
    16
 76
     0
 77
     2
 78
   300
147
1.0
148
0.0
149
0.0
100
AcDbLayout
  1
Layout1
 70
     1
 71
     1
 10
0.0
 20
0.0
 11
12.0
 21
9.0
 12
0.0
 22
0.0
 32
0.0
 14
1.000000000000000E+20
 24
1.000000000000000E+20
 34
1.000000000000000E+20
 15
-1.000000000000000E+20
 25
-1.000000000000000E+20
 35
-1.000000000000000E+20
146
0.0
 13
0.0
 23
0.0
 33
0.0
 16
1.0
 26
0.0
 36
0.0
 17
0.0
 27
1.0
 37
0.0
 76
     0
330
1B
  0
LAYOUT
  5
26
102
{ACAD_REACTORS
330
1A
102
}
330
1A
100
AcDbPlotSettings
  1

  2
none_device
  4

  6

 40
0.0
 41
0.0
 42
0.0
 43
0.0
 44
0.0
 45
0.0
 46
0.0
 47
0.0
 48
0.0
 49
0.0
140
0.0
141
0.0
142
1.0
143
1.0
 70
   688
 72
     0
 73
     0
 74
     5
  7

 75
    16
 76
     0
 77
     2
 78
   300
147
1.0
148
0.0
149
0.0
100
AcDbLayout
  1
Layout2
 70
     1
 71
     2
 10
0.0
 20
0.0
 11
0.0
 21
0.0
 12
0.0
 22
0.0
 32
0.0
 14
0.0
 24
0.0
 34
0.0
 15
0.0
 25
0.0
 35
0.0
146
0.0
 13
0.0
 23
0.0
 33
0.0
 16
1.0
 26
0.0
 36
0.0
 17
0.0
 27
1.0
 37
0.0
 76
     0
330
23
  0
LAYOUT
  5
22
102
{ACAD_REACTORS
330
1A
102
}
330
1A
100
AcDbPlotSettings
  1

  2
none_device
  4

  6

 40
0.0
 41
0.0
 42
0.0
 43
0.0
 44
0.0
 45
0.0
 46
0.0
 47
0.0
 48
0.0
 49
0.0
140
0.0
141
0.0
142
1.0
143
1.0
 70
  1712
 72
     0
 73
     0
 74
     0
  7

 75
     0
 76
     0
 77
     2
 78
   300
147
1.0
148
0.0
149
0.0
100
AcDbLayout
  1
Model
 70
     1
 71
     0
 10
0.0
 20
0.0
 11
12.0
 21
9.0
 12
0.0
 22
0.0
 32
0.0
 14
1.000000000000000E+20
 24
1.000000000000000E+20
 34
1.000000000000000E+20
 15
-1.000000000000000E+20
 25
-1.000000000000000E+20
 35
-1.000000000000000E+20
146
0.0
 13
0.0
 23
0.0
 33
0.0
 16
1.0
 26
0.0
 36
0.0
 17
0.0
 27
1.0
 37
0.0
 76
     0
330
1F
331
29
  0
MATERIAL
  5
3D
102
{ACAD_REACTORS
330
3B
102
}
330
3B
100
AcDbMaterial
  1
ByBlock
 72
     1
 94
      127
  0
MATERIAL
  5
3C
102
{ACAD_REACTORS
330
3B
102
}
330
3B
100
AcDbMaterial
  1
ByLayer
 72
     1
 94
      127
  0
MATERIAL
  5
3E
102
{ACAD_REACTORS
330
3B
102
}
330
3B
100
AcDbMaterial
  1
Global
 72
     1
 94
      127
  0
MLINESTYLE
  5
18
102
{ACAD_REACTORS
330
17
102
}
330
17
100
AcDbMlineStyle
  2
Standard
 70
     0
  3

 62
   256
 51
90.0
 52
90.0
 71
     2
 49
0.5
 62
   256
  6
BYLAYER
 49
-0.5
 62
   256
  6
BYLAYER
  0
ACDBPLACEHOLDER
  5
F
102
{ACAD_REACTORS
330
E
102
}
330
E
  0
VISUALSTYLE
  5
2F
102
{ACAD_REACTORS
330
2A
102
}
330
2A
100
AcDbVisualStyle
  2
2dWireframe
 70
     4
177
     2
291
     0
 71
     0
176
     1
 72
     2
176
     1
 73
     0
176
     1
 90
        0
176
     1
 40
-0.6
176
     1
 41
-30.0
176
     1
 62
     5
 63
     7
421
 16777215
176
     1
 74
     1
176
     1
 91
        4
176
     1
 64
     7
176
     1
 65
   257
176
     1
 75
     1
176
     1
175
     1
176
     1
 42
1.0
176
     1
 92
        0
176
     1
 66
   257
176
     1
 43
1.0
176
     1
 76
     1
176
     1
 77
     6
176
     1
 78
     2
176
     1
 67
     7
176
     1
 79
     5
176
     1
170
     0
176
     1
171
     0
176
     1
290
     0
176
     1
 93
        1
176
     1
 44
0.0
176
     1
173
     0
176
     1
  0
VISUALSTYLE
  5
31
102
{ACAD_REACTORS
330
2A
102
}
330
2A
100
AcDbVisualStyle
  2
3D Hidden
 70
     6
177
     2
291
     0
 71
     1
176
     1
 72
     2
176
     1
 73
     2
176
     1
 90
        0
176
     1
 40
-0.6
176
     1
 41
-30.0
176
     1
 62
     5
 63
     7
421
 16777215
176
     1
 74
     2
176
     1
 91
        2
176
     1
 64
     7
176
     1
 65
   257
176
     1
 75
     2
176
     1
175
     1
176
     1
 42
40.0
176
     1
 92
        0
176
     1
 66
   257
176
     1
 43
1.0
176
     1
 76
     1
176
     1
 77
     6
176
     1
 78
     2
176
     1
 67
     7
176
     1
 79
     3
176
     1
170
     0
176
     1
171
     0
176
     1
290
     0
176
     1
 93
        1
176
     1
 44
0.0
176
     1
173
     0
176
     1
  0
VISUALSTYLE
  5
30
102
{ACAD_REACTORS
330
2A
102
}
330
2A
100
AcDbVisualStyle
  2
3dWireframe
 70
     5
177
     2
291
     0
 71
     0
176
     1
 72
     2
176
     1
 73
     0
176
     1
 90
        0
176
     1
 40
-0.6
176
     1
 41
-30.0
176
     1
 62
     5
 63
     7
421
 16777215
176
     1
 74
     1
176
     1
 91
        4
176
     1
 64
     7
176
     1
 65
   257
176
     1
 75
     1
176
     1
175
     1
176
     1
 42
1.0
176
     1
 92
        0
176
     1
 66
   257
176
     1
 43
1.0
176
     1
 76
     1
176
     1
 77
     6
176
     1
 78
     2
176
     1
 67
     7
176
     1
 79
     5
176
     1
170
     0
176
     1
171
     0
176
     1
290
     0
176
     1
 93
        1
176
     1
 44
0.0
176
     1
173
     0
176
     1
  0
VISUALSTYLE
  5
32
102
{ACAD_REACTORS
330
2A
102
}
330
2A
100
AcDbVisualStyle
  2
Basic
 70
     7
177
     2
291
     1
 71
     1
176
     1
 72
     0
176
     1
 73
     1
176
     1
 90
        0
176
     1
 40
-0.6
176
     1
 41
-30.0
176
     1
 62
     5
 63
     7
421
 16777215
176
     1
 74
     0
176
     1
 91
        4
176
     1
 64
     7
176
     1
 65
   257
176
     1
 75
     1
176
     1
175
     1
176
     1
 42
1.0
176
     1
 92
        8
176
     1
 66
     7
176
     1
 43
1.0
176
     1
 76
     1
176
     1
 77
     6
176
     1
 78
     2
176
     1
 67
     7
176
     1
 79
     5
176
     1
170
     0
176
     1
171
     0
176
     1
290
     0
176
     1
 93
        1
176
     1
 44
0.0
176
     1
173
     0
176
     1
  0
VISUALSTYLE
  5
36
102
{ACAD_REACTORS
330
2A
102
}
330
2A
100
AcDbVisualStyle
  2
Brighten
 70
    12
177
     2
291
     1
 71
     2
176
     1
 72
     2
176
     1
 73
     0
176
     1
 90
        0
176
     1
 40
-0.6
176
     1
 41
-30.0
176
     1
 62
     5
 63
     7
421
 16777215
176
     1
 74
     1
176
     1
 91
        4
176
     1
 64
     7
176
     1
 65
   257
176
     1
 75
     1
176
     1
175
     1
176
     1
 42
1.0
176
     1
 92
        8
176
     1
 66
     7
176
     1
 43
1.0
176
     1
 76
     1
176
     1
 77
     6
176
     1
 78
     2
176
     1
 67
     7
176
     1
 79
     5
176
     1
170
     0
176
     1
171
     0
176
     1
290
     0
176
     1
 93
        1
176
     1
 44
50.0
176
     1
173
     0
176
     1
  0
VISUALSTYLE
  5
3A
102
{ACAD_REACTORS
330
2A
102
}
330
2A
100
AcDbVisualStyle
  2
ColorChange
 70
    16
177
     2
291
     1
 71
     2
176
     1
 72
     2
176
     1
 73
     3
176
     1
 90
        0
176
     1
 40
-0.6
176
     1
 41
-30.0
176
     1
 62
     5
 63
     8
421
  8421504
176
     1
 74
     1
176
     1
 91
        4
176
     1
 64
     7
176
     1
 65
   257
176
     1
 75
     1
176
     1
175
     1
176
     1
 42
1.0
176
     1
 92
        8
176
     1
 66
     8
424
  8421504
176
     1
 43
1.0
176
     1
 76
     1
176
     1
 77
     6
176
     1
 78
     2
176
     1
 67
     7
176
     1
 79
     5
176
     1
170
     0
176
     1
171
     0
176
     1
290
     0
176
     1
 93
        1
176
     1
 44
0.0
176
     1
173
     0
176
     1
  0
VISUALSTYLE
  5
34
102
{ACAD_REACTORS
330
2A
102
}
330
2A
100
AcDbVisualStyle
  2
Conceptual
 70
     9
177
     2
291
     0
 71
     3
176
     1
 72
     2
176
     1
 73
     0
176
     1
 90
        0
176
     1
 40
-0.6
176
     1
 41
-30.0
176
     1
 62
     5
 63
     7
421
 16777215
176
     1
 74
     2
176
     1
 91
        2
176
     1
 64
     7
176
     1
 65
   257
176
     1
 75
     1
176
     1
175
     1
176
     1
 42
40.0
176
     1
 92
        8
176
     1
 66
     7
176
     1
 43
1.0
176
     1
 76
     1
176
     1
 77
     6
176
     1
 78
     2
176
     1
 67
     7
176
     1
 79
     3
176
     1
170
     0
176
     1
171
     0
176
     1
290
     0
176
     1
 93
        1
176
     1
 44
0.0
176
     1
173
     0
176
     1
  0
VISUALSTYLE
  5
35
102
{ACAD_REACTORS
330
2A
102
}
330
2A
100
AcDbVisualStyle
  2
Dim
 70
    11
177
     2
291
     1
 71
     2
176
     1
 72
     2
176
     1
 73
     0
176
     1
 90
        0
176
     1
 40
-0.6
176
     1
 41
-30.0
176
     1
 62
     5
 63
     7
421
 16777215
176
     1
 74
     1
176
     1
 91
        4
176
     1
 64
     7
176
     1
 65
   257
176
     1
 75
     1
176
     1
175
     1
176
     1
 42
1.0
176
     1
 92
        8
176
     1
 66
     7
176
     1
 43
1.0
176
     1
 76
     1
176
     1
 77
     6
176
     1
 78
     2
176
     1
 67
     7
176
     1
 79
     5
176
     1
170
     0
176
     1
171
     0
176
     1
290
     0
176
     1
 93
        1
176
     1
 44
-50.0
176
     1
173
     0
176
     1
  0
VISUALSTYLE
  5
39
102
{ACAD_REACTORS
330
2A
102
}
330
2A
100
AcDbVisualStyle
  2
Facepattern
 70
    15
177
     2
291
     1
 71
     2
176
     1
 72
     2
176
     1
 73
     0
176
     1
 90
        0
176
     1
 40
-0.6
176
     1
 41
-30.0
176
     1
 62
     5
 63
     7
421
 16777215
176
     1
 74
     1
176
     1
 91
        4
176
     1
 64
     7
176
     1
 65
   257
176
     1
 75
     1
176
     1
175
     1
176
     1
 42
1.0
176
     1
 92
        8
176
     1
 66
     7
176
     1
 43
1.0
176
     1
 76
     1
176
     1
 77
     6
176
     1
 78
     2
176
     1
 67
     7
176
     1
 79
     5
176
     1
170
     0
176
     1
171
     0
176
     1
290
     0
176
     1
 93
        1
176
     1
 44
0.0
176
     1
173
     0
176
     1
  0
VISUALSTYLE
  5
2B
102
{ACAD_REACTORS
330
2A
102
}
330
2A
100
AcDbVisualStyle
  2
Flat
 70
     0
177
     2
291
     1
 71
     2
176
     1
 72
     1
176
     1
 73
     1
176
     1
 90
        2
176
     1
 40
-0.6
176
     1
 41
30.0
176
     1
 62
     5
 63
     7
421
 16777215
176
     1
 74
     0
176
     1
 91
        4
176
     1
 64
     7
176
     1
 65
   257
176
     1
 75
     1
176
     1
175
     1
176
     1
 42
1.0
176
     1
 92
        8
176
     1
 66
     7
176
     1
 43
1.0
176
     1
 76
     1
176
     1
 77
     6
176
     1
 78
     2
176
     1
 67
     7
176
     1
 79
     5
176
     1
170
     0
176
     1
171
     0
176
     1
290
     0
176
     1
 93
       13
176
     1
 44
0.0
176
     1
173
     0
176
     1
  0
VISUALSTYLE
  5
2C
102
{ACAD_REACTORS
330
2A
102
}
330
2A
100
AcDbVisualStyle
  2
FlatWithEdges
 70
     1
177
     2
291
     1
 71
     2
176
     1
 72
     1
176
     1
 73
     1
176
     1
 90
        2
176
     1
 40
-0.6
176
     1
 41
30.0
176
     1
 62
     5
 63
     7
421
 16777215
176
     1
 74
     1
176
     1
 91
        4
176
     1
 64
     7
176
     1
 65
   257
176
     1
 75
     1
176
     1
175
     1
176
     1
 42
1.0
176
     1
 92
        0
176
     1
 66
   257
176
     1
 43
1.0
176
     1
 76
     1
176
     1
 77
     6
176
     1
 78
     2
176
     1
 67
     7
176
     1
 79
     5
176
     1
170
     0
176
     1
171
     0
176
     1
290
     0
176
     1
 93
       13
176
     1
 44
0.0
176
     1
173
     0
176
     1
  0
VISUALSTYLE
  5
2D
102
{ACAD_REACTORS
330
2A
102
}
330
2A
100
AcDbVisualStyle
  2
Gouraud
 70
     2
177
     2
291
     1
 71
     2
176
     1
 72
     2
176
     1
 73
     1
176
     1
 90
        2
176
     1
 40
-0.6
176
     1
 41
30.0
176
     1
 62
     5
 63
     7
421
 16777215
176
     1
 74
     0
176
     1
 91
        4
176
     1
 64
     7
176
     1
 65
   257
176
     1
 75
     1
176
     1
175
     1
176
     1
 42
1.0
176
     1
 92
        0
176
     1
 66
     7
176
     1
 43
1.0
176
     1
 76
     1
176
     1
 77
     6
176
     1
 78
     2
176
     1
 67
     7
176
     1
 79
     5
176
     1
170
     0
176
     1
171
     0
176
     1
290
     0
176
     1
 93
       13
176
     1
 44
0.0
176
     1
173
     0
176
     1
  0
VISUALSTYLE
  5
2E
102
{ACAD_REACTORS
330
2A
102
}
330
2A
100
AcDbVisualStyle
  2
GouraudWithEdges
 70
     3
177
     2
291
     1
 71
     2
176
     1
 72
     2
176
     1
 73
     1
176
     1
 90
        2
176
     1
 40
-0.6
176
     1
 41
30.0
176
     1
 62
     5
 63
     7
421
 16777215
176
     1
 74
     1
176
     1
 91
        4
176
     1
 64
     7
176
     1
 65
   257
176
     1
 75
     1
176
     1
175
     1
176
     1
 42
1.0
176
     1
 92
        0
176
     1
 66
   257
176
     1
 43
1.0
176
     1
 76
     1
176
     1
 77
     6
176
     1
 78
     2
176
     1
 67
     7
176
     1
 79
     5
176
     1
170
     0
176
     1
171
     0
176
     1
290
     0
176
     1
 93
       13
176
     1
 44
0.0
176
     1
173
     0
176
     1
  0
VISUALSTYLE
  5
38
102
{ACAD_REACTORS
330
2A
102
}
330
2A
100
AcDbVisualStyle
  2
Linepattern
 70
    14
177
     2
291
     1
 71
     2
176
     1
 72
     2
176
     1
 73
     0
176
     1
 90
        0
176
     1
 40
-0.6
176
     1
 41
-30.0
176
     1
 62
     5
 63
     7
421
 16777215
176
     1
 74
     1
176
     1
 91
        4
176
     1
 64
     7
176
     1
 65
   257
176
     1
 75
     7
176
     1
175
     7
176
     1
 42
1.0
176
     1
 92
        8
176
     1
 66
     7
176
     1
 43
1.0
176
     1
 76
     1
176
     1
 77
     6
176
     1
 78
     2
176
     1
 67
     7
176
     1
 79
     5
176
     1
170
     0
176
     1
171
     0
176
     1
290
     0
176
     1
 93
        1
176
     1
 44
0.0
176
     1
173
     0
176
     1
  0
VISUALSTYLE
  5
33
102
{ACAD_REACTORS
330
2A
102
}
330
2A
100
AcDbVisualStyle
  2
Realistic
 70
     8
177
     2
291
     0
 71
     2
176
     1
 72
     2
176
     1
 73
     0
176
     1
 90
        0
176
     1
 40
-0.6
176
     1
 41
-30.0
176
     1
 62
     5
 63
     7
421
 16777215
176
     1
 74
     1
176
     1
 91
        0
176
     1
 64
     7
176
     1
 65
   257
176
     1
 75
     1
176
     1
175
     1
176
     1
 42
1.0
176
     1
 92
        8
176
     1
 66
     8
424
  7895160
176
     1
 43
1.0
176
     1
 76
     1
176
     1
 77
     6
176
     1
 78
     2
176
     1
 67
     7
176
     1
 79
     5
176
     1
170
     0
176
     1
171
     0
176
     1
290
     0
176
     1
 93
       13
176
     1
 44
0.0
176
     1
173
     0
176
     1
  0
VISUALSTYLE
  5
37
102
{ACAD_REACTORS
330
2A
102
}
330
2A
100
AcDbVisualStyle
  2
Thicken
 70
    13
177
     2
291
     1
 71
     2
176
     1
 72
     2
176
     1
 73
     0
176
     1
 90
        0
176
     1
 40
-0.6
176
     1
 41
-30.0
176
     1
 62
     5
 63
     7
421
 16777215
176
     1
 74
     1
176
     1
 91
        4
176
     1
 64
     7
176
     1
 65
   257
176
     1
 75
     1
176
     1
175
     1
176
     1
 42
1.0
176
     1
 92
       12
176
     1
 66
     7
176
     1
 43
1.0
176
     1
 76
     1
176
     1
 77
     6
176
     1
 78
     2
176
     1
 67
     7
176
     1
 79
     5
176
     1
170
     0
176
     1
171
     0
176
     1
290
     0
176
     1
 93
        1
176
     1
 44
0.0
176
     1
173
     0
176
     1
  0
ENDSEC
  0
EOF
