  0
SECTION
  2
HEADER
  9
$ACADVER
  1
AC1024
  9
$ACADMAINTVER
 70
     6
  9
$DWGCODEPAGE
  3
UNDEFINED
  9
$INSBASE
 10
0.0
 20
0.0
 30
0.0
  9
$EXTMIN
 10
1.000000000000000E+20
 20
1.000000000000000E+20
 30
1.000000000000000E+20
  9
$EXTMAX
 10
-1.000000000000000E+20
 20
-1.000000000000000E+20
 30
-1.000000000000000E+20
  9
$LIMMIN
 10
0.0
 20
0.0
  9
$LIMMAX
 10
12.0
 20
9.0
  9
$ORTHOMODE
 70
     0
  9
$REGENMODE
 70
     1
  9
$FILLMODE
 70
     1
  9
$QTEXTMODE
 70
     0
  9
$MIRRTEXT
 70
     1
  9
$LTSCALE
 40
1.0
  9
$ATTMODE
 70
     1
  9
$TEXTSIZE
 40
0.2
  9
$TRACEWID
 40
0.05
  9
$TEXTSTYLE
  7
Standard
  9
$CLAYER
  8
0
  9
$CELTYPE
  6
ByLayer
  9
$CECOLOR
 62
   256
  9
$CELTSCALE
 40
1.0
  9
$DISPSILH
 70
     0
  9
$DIMSCALE
 40
1.0
  9
$DIMASZ
 40
0.18
  9
$DIMEXO
 40
0.0625
  9
$DIMDLI
 40
0.38
  9
$DIMRND
 40
0.0
  9
$DIMDLE
 40
0.0
  9
$DIMEXE
 40
0.18
  9
$DIMTP
 40
0.0
  9
$DIMTM
 40
0.0
  9
$DIMTXT
 40
0.18
  9
$DIMCEN
 40
0.09
  9
$DIMTSZ
 40
0.0
  9
$DIMTOL
 70
     0
  9
$DIMLIM
 70
     0
  9
$DIMTIH
 70
     1
  9
$DIMTOH
 70
     1
  9
$DIMSE1
 70
     0
  9
$DIMSE2
 70
     0
  9
$DIMTAD
 70
     0
  9
$DIMZIN
 70
     0
  9
$DIMBLK
  1

  9
$DIMASO
 70
     1
  9
$DIMSHO
 70
     1
  9
$DIMPOST
  1

  9
$DIMAPOST
  1

  9
$DIMALT
 70
     0
  9
$DIMALTD
 70
     2
  9
$DIMALTF
 40
25.4
  9
$DIMLFAC
 40
1.0
  9
$DIMTOFL
 70
     0
  9
$DIMTVP
 40
0.0
  9
$DIMTIX
 70
     0
  9
$DIMSOXD
 70
     0
  9
$DIMSAH
 70
     0
  9
$DIMBLK1
  1

  9
$DIMBLK2
  1

  9
$DIMSTYLE
  2
Standard
  9
$DIMCLRD
 70
     0
  9
$DIMCLRE
 70
     0
  9
$DIMCLRT
 70
     0
  9
$DIMTFAC
 40
1.0
  9
$DIMGAP
 40
0.09
  9
$DIMJUST
 70
     0
  9
$DIMSD1
 70
     0
  9
$DIMSD2
 70
     0
  9
$DIMTOLJ
 70
     1
  9
$DIMTZIN
 70
     0
  9
$DIMALTZ
 70
     0
  9
$DIMALTTZ
 70
     0
  9
$DIMUPT
 70
     0
  9
$DIMDEC
 70
     4
  9
$DIMTDEC
 70
     4
  9
$DIMALTU
 70
     2
  9
$DIMALTTD
 70
     2
  9
$DIMTXSTY
  7
Standard
  9
$DIMAUNIT
 70
     0
  9
$DIMADEC
 70
     0
  9
$DIMALTRND
 40
0.0
  9
$DIMAZIN
 70
     0
  9
$DIMDSEP
 70
    46
  9
$DIMATFIT
 70
     3
  9
$DIMFRAC
 70
     0
  9
$DIMLDRBLK
  1

  9
$DIMLUNIT
 70
     2
  9
$DIMLWD
 70
    -2
  9
$DIMLWE
 70
    -2
  9
$DIMTMOVE
 70
     0
  9
$DIMFXL
 40
1.0
  9
$DIMFXLON
 70
     0
  9
$DIMJOGANG
 40
0.7853981633974483
  9
$DIMTFILL
 70
     0
  9
$DIMTFILLCLR
 70
     0
  9
$DIMARCSYM
 70
     0
  9
$DIMLTYPE
  6

  9
$DIMLTEX1
  6

  9
$DIMLTEX2
  6

  9
$DIMTXTDIRECTION
 70
     0
  9
$LUNITS
 70
     2
  9
$LUPREC
 70
     4
  9
$SKETCHINC
 40
0.1
  9
$FILLETRAD
 40
0.5
  9
$AUNITS
 70
     0
  9
$AUPREC
 70
     0
  9
$MENU
  1
.
  9
$ELEVATION
 40
0.0
  9
$PELEVATION
 40
0.0
  9
$THICKNESS
 40
0.0
  9
$LIMCHECK
 70
     0
  9
$CHAMFERA
 40
0.5
  9
$CHAMFERB
 40
0.5
  9
$CHAMFERC
 40
1.0
  9
$CHAMFERD
 40
0.0
  9
$SKPOLY
 70
     0
  9
$TDCREATE
 40
2458843.933796296
  9
$TDUCREATE
 40
2458843.89212963
  9
$TDUPDATE
 40
2458843.933796296
  9
$TDUUPDATE
 40
2458843.89212963
  9
$TDINDWG
 40
0.0000000116
  9
$TDUSRTIMER
 40
0.0000000116
  9
$USRTIMER
 70
     1
  9
$ANGBASE
 50
0.0
  9
$ANGDIR
 70
     0
  9
$PDMODE
 70
     0
  9
$PDSIZE
 40
0.0
  9
$PLINEWID
 40
0.0
  9
$SPLFRAME
 70
     0
  9
$SPLINETYPE
 70
     6
  9
$SPLINESEGS
 70
     8
  9
$HANDSEED
  5
63
  9
$SURFTAB1
 70
     6
  9
$SURFTAB2
 70
     6
  9
$SURFTYPE
 70
     6
  9
$SURFU
 70
     6
  9
$SURFV
 70
     6
  9
$UCSBASE
  2

  9
$UCSNAME
  2

  9
$UCSORG
 10
0.0
 20
0.0
 30
0.0
  9
$UCSXDIR
 10
1.0
 20
0.0
 30
0.0
  9
$UCSYDIR
 10
0.0
 20
1.0
 30
0.0
  9
$UCSORTHOREF
  2

  9
$UCSORTHOVIEW
 70
     0
  9
$UCSORGTOP
 10
0.0
 20
0.0
 30
0.0
  9
$UCSORGBOTTOM
 10
0.0
 20
0.0
 30
0.0
  9
$UCSORGLEFT
 10
0.0
 20
0.0
 30
0.0
  9
$UCSORGRIGHT
 10
0.0
 20
0.0
 30
0.0
  9
$UCSORGFRONT
 10
0.0
 20
0.0
 30
0.0
  9
$UCSORGBACK
 10
0.0
 20
0.0
 30
0.0
  9
$PUCSBASE
  2

  9
$PUCSNAME
  2

  9
$PUCSORG
 10
0.0
 20
0.0
 30
0.0
  9
$PUCSXDIR
 10
1.0
 20
0.0
 30
0.0
  9
$PUCSYDIR
 10
0.0
 20
1.0
 30
0.0
  9
$PUCSORTHOREF
  2

  9
$PUCSORTHOVIEW
 70
     0
  9
$PUCSORGTOP
 10
0.0
 20
0.0
 30
0.0
  9
$PUCSORGBOTTOM
 10
0.0
 20
0.0
 30
0.0
  9
$PUCSORGLEFT
 10
0.0
 20
0.0
 30
0.0
  9
$PUCSORGRIGHT
 10
0.0
 20
0.0
 30
0.0
  9
$PUCSORGFRONT
 10
0.0
 20
0.0
 30
0.0
  9
$PUCSORGBACK
 10
0.0
 20
0.0
 30
0.0
  9
$USERI1
 70
     0
  9
$USERI2
 70
     0
  9
$USERI3
 70
     0
  9
$USERI4
 70
     0
  9
$USERI5
 70
     0
  9
$USERR1
 40
0.0
  9
$USERR2
 40
0.0
  9
$USERR3
 40
0.0
  9
$USERR4
 40
0.0
  9
$USERR5
 40
0.0
  9
$WORLDVIEW
 70
     1
  9
$SHADEDGE
 70
     3
  9
$SHADEDIF
 70
    70
  9
$TILEMODE
 70
     1
  9
$MAXACTVP
 70
    64
  9
$PINSBASE
 10
0.0
 20
0.0
 30
0.0
  9
$PLIMCHECK
 70
     0
  9
$PEXTMIN
 10
1.000000000000000E+20
 20
1.000000000000000E+20
 30
1.000000000000000E+20
  9
$PEXTMAX
 10
-1.000000000000000E+20
 20
-1.000000000000000E+20
 30
-1.000000000000000E+20
  9
$PLIMMIN
 10
0.0
 20
0.0
  9
$PLIMMAX
 10
12.0
 20
9.0
  9
$UNITMODE
 70
     0
  9
$VISRETAIN
 70
     1
  9
$PLINEGEN
 70
     0
  9
$PSLTSCALE
 70
     1
  9
$TREEDEPTH
 70
  3020
  9
$CMLSTYLE
  2
Standard
  9
$CMLJUST
 70
     0
  9
$CMLSCALE
 40
1.0
  9
$PROXYGRAPHICS
 70
     1
  9
$MEASUREMENT
 70
     0
  9
$CELWEIGHT
370
    -1
  9
$ENDCAPS
280
     0
  9
$JOINSTYLE
280
     0
  9
$LWDISPLAY
290
     1
  9
$INSUNITS
 70
     1
  9
$HYPERLINKBASE
  1

  9
$STYLESHEET
  1

  9
$XEDIT
290
     1
  9
$CEPSNTYPE
380
     0
  9
$PSTYLEMODE
290
     1
  9
$FINGERPRINTGUID
  2
{CA033562-47CA-A71F-5787-99E32CA7ABAD}
  9
$VERSIONGUID
  2
{FAEB1C32-E019-11D5-929B-00C0DF256EC4}
  9
$EXTNAMES
290
     1
  9
$PSVPSCALE
 40
0.0
  9
$OLESTARTUP
290
     0
  9
$SORTENTS
280
   127
  9
$INDEXCTL
280
     0
  9
$HIDETEXT
280
     1
  9
$XCLIPFRAME
280
     2
  9
$HALOGAP
280
     0
  9
$OBSCOLOR
 70
   257
  9
$OBSLTYPE
280
     0
  9
$INTERSECTIONDISPLAY
280
     0
  9
$INTERSECTIONCOLOR
 70
   257
  9
$DIMASSOC
280
     2
  9
$PROJECTNAME
  1

  9
$CAMERADISPLAY
290
     0
  9
$LENSLENGTH
 40
50.0
  9
$CAMERAHEIGHT
 40
0.0
  9
$STEPSPERSEC
 40
2.0
  9
$STEPSIZE
 40
6.0
  9
$3DDWFPREC
 40
2.0
  9
$PSOLWIDTH
 40
0.25
  9
$PSOLHEIGHT
 40
4.0
  9
$LOFTANG1
 40
1.570796326794897
  9
$LOFTANG2
 40
1.570796326794897
  9
$LOFTMAG1
 40
0.0
  9
$LOFTMAG2
 40
0.0
  9
$LOFTPARAM
 70
     7
  9
$LOFTNORMALS
280
     1
  9
$LATITUDE
 40
37.795
  9
$LONGITUDE
 40
-122.394
  9
$NORTHDIRECTION
 40
0.0
  9
$TIMEZONE
 70
 -8000
  9
$LIGHTGLYPHDISPLAY
280
     1
  9
$TILEMODELIGHTSYNCH
280
     1
  9
$CMATERIAL
347
3C
  9
$SOLIDHIST
280
     1
  9
$SHOWHIST
280
     1
  9
$DWFFRAME
280
     2
  9
$DGNFRAME
280
     2
  9
$REALWORLDSCALE
290
     1
  9
$INTERFERECOLOR
 62
   256
  9
$CSHADOW
280
     0
  9
$SHADOWPLANELOCATION
 40
0.0
  0
ENDSEC
  0
SECTION
  2
CLASSES
  0
CLASS
  1
ACDBDICTIONARYWDFLT
  2
AcDbDictionaryWithDefault
  3
ObjectDBX Classes
 90
        0
 91
        4
280
     0
281
     0
  0
CLASS
  1
VISUALSTYLE
  2
AcDbVisualStyle
  3
ObjectDBX Classes
 90
     4095
 91
        4
280
     0
281
     0
  0
CLASS
  1
MATERIAL
  2
AcDbMaterial
  3
ObjectDBX Classes
 90
     1153
 91
        4
280
     0
281
     0
  0
CLASS
  1
SUN
  2
AcDbSun
  3
SCENEOE
 90
     1024
 91
        4
280
     0
281
     0
  0
ENDSEC
  0
SECTION
  2
TABLES
  0
TABLE
  2
VPORT
  5
8
330
0
100
AcDbSymbolTable
 70
     1
  0
VPORT
  5
29
330
8
100
AcDbSymbolTableRecord
100
AcDbViewportTableRecord
  2
*Active
 70
     0
 10
0.0
 20
0.0
 11
1.0
 21
1.0
 12
0.0
 22
0.0
 13
0.0
 23
0.0
 14
0.5
 24
0.5
 15
0.5
 25
0.5
 16
0.0
 26
0.0
 36
1.0
 17
105.0007777515276
 27
148.5000416295416
 37
0.0
 40
24.99999999375009
 41
0.9999999999999869
 42
50.0
 43
0.0
 44
0.0
 50
0.0
 51
0.0
 71
     0
 72
   100
 73
     1
 74
     3
 75
     0
 76
     0
 77
     0
 78
     0
281
     0
 65
     1
110
0.0
120
0.0
130
0.0
111
1.0
121
0.0
131
0.0
112
0.0
122
1.0
132
0.0
 79
     0
146
0.0
 60
     3
 61
     5
292
     1
282
     1
141
0.0
142
0.0
 63
   250
361
3F
  0
ENDTAB
  0
TABLE
  2
LTYPE
  5
5
330
0
100
AcDbSymbolTable
 70
     1
  0
LTYPE
  5
14
330
5
100
AcDbSymbolTableRecord
100
AcDbLinetypeTableRecord
  2
ByBlock
 70
     0
  3

 72
    65
 73
     0
 40
0.0
  0
LTYPE
  5
15
330
5
100
AcDbSymbolTableRecord
100
AcDbLinetypeTableRecord
  2
ByLayer
 70
     0
  3

 72
    65
 73
     0
 40
0.0
  0
LTYPE
  5
16
330
5
100
AcDbSymbolTableRecord
100
AcDbLinetypeTableRecord
  2
Continuous
 70
     0
  3
Solid line
 72
    65
 73
     0
 40
0.0
  0
ENDTAB
  0
TABLE
  2
LAYER
  5
2
330
0
100
AcDbSymbolTable
 70
     1
  0
LAYER
  5
10
330
2
100
AcDbSymbolTableRecord
100
AcDbLayerTableRecord
  2
0
 70
     0
 62
     7
  6
Continuous
370
    -3
390
F
347
3E
  0
ENDTAB
  0
TABLE
  2
STYLE
  5
3
330
0
100
AcDbSymbolTable
 70
     1
  0
STYLE
  5
11
330
3
100
AcDbSymbolTableRecord
100
AcDbTextStyleTableRecord
  2
Standard
 70
     0
 40
0.0
 41
1.0
 50
0.0
 71
     0
 42
0.2
  3
txt
  4

  0
ENDTAB
  0
TABLE
  2
VIEW
  5
6
330
0
100
AcDbSymbolTable
 70
     0
  0
ENDTAB
  0
TABLE
  2
UCS
  5
7
330
0
100
AcDbSymbolTable
 70
     0
  0
ENDTAB
  0
TABLE
  2
APPID
  5
9
330
0
100
AcDbSymbolTable
 70
     1
  0
APPID
  5
12
330
9
100
AcDbSymbolTableRecord
100
AcDbRegAppTableRecord
  2
ACAD
 70
     0
  0
ENDTAB
  0
TABLE
  2
DIMSTYLE
  5
A
330
0
100
AcDbSymbolTable
 70
     1
100
AcDbDimStyleTable
  0
DIMSTYLE
105
27
330
A
100
AcDbSymbolTableRecord
100
AcDbDimStyleTableRecord
  2
Standard
 70
     0
178
     0
340
11
  0
ENDTAB
  0
TABLE
  2
BLOCK_RECORD
  5
1
330
0
100
AcDbSymbolTable
 70
     6
  0
BLOCK_RECORD
  5
1F
330
1
100
AcDbSymbolTableRecord
100
AcDbBlockTableRecord
  2
*Model_Space
340
22
 70
     0
280
     1
281
     0
  0
BLOCK_RECORD
  5
1B
330
1
100
AcDbSymbolTableRecord
100
AcDbBlockTableRecord
  2
*Paper_Space
340
1E
 70
     0
280
     1
281
     0
  0
BLOCK_RECORD
  5
23
330
1
100
AcDbSymbolTableRecord
100
AcDbBlockTableRecord
  2
*Paper_Space0
340
26
 70
     0
280
     1
281
     0
  0
BLOCK_RECORD
  5
40
330
1
100
AcDbSymbolTableRecord
100
AcDbBlockTableRecord
  2
block 2
340
0
102
{BLKREFS
331
41
102
}
 70
     0
280
     1
281
     0
  0
BLOCK_RECORD
  5
4C
330
1
100
AcDbSymbolTableRecord
100
AcDbBlockTableRecord
  2
block 3
340
0
102
{BLKREFS
331
4D
102
}
 70
     0
280
     1
281
     0
  0
BLOCK_RECORD
  5
51
330
1
100
AcDbSymbolTableRecord
100
AcDbBlockTableRecord
  2
block 4
340
0
102
{BLKREFS
331
52
102
}
 70
     0
280
     1
281
     0
  0
BLOCK_RECORD
  5
56
330
1
100
AcDbSymbolTableRecord
100
AcDbBlockTableRecord
  2
block 5
340
0
102
{BLKREFS
331
57
102
}
 70
     0
280
     1
281
     0
  0
BLOCK_RECORD
  5
5B
330
1
100
AcDbSymbolTableRecord
100
AcDbBlockTableRecord
  2
block 6
340
0
102
{BLKREFS
331
5C
102
}
 70
     0
280
     1
281
     0
  0
ENDTAB
  0
ENDSEC
  0
SECTION
  2
BLOCKS
  0
BLOCK
  5
20
330
1F
100
AcDbEntity
  8
0
100
AcDbBlockBegin
  2
*Model_Space
 70
     0
 10
0.0
 20
0.0
 30
0.0
  3
*Model_Space
  1

  0
ENDBLK
  5
21
330
1F
100
AcDbEntity
  8
0
100
AcDbBlockEnd
  0
BLOCK
  5
1C
330
1B
100
AcDbEntity
 67
     1
  8
0
100
AcDbBlockBegin
  2
*Paper_Space
 70
     0
 10
0.0
 20
0.0
 30
0.0
  3
*Paper_Space
  1

  0
ENDBLK
  5
1D
330
1B
100
AcDbEntity
 67
     1
  8
0
100
AcDbBlockEnd
  0
BLOCK
  5
24
330
23
100
AcDbEntity
  8
0
100
AcDbBlockBegin
  2
*Paper_Space0
 70
     0
 10
0.0
 20
0.0
 30
0.0
  3
*Paper_Space0
  1

  0
ENDBLK
  5
25
330
23
100
AcDbEntity
  8
0
100
AcDbBlockEnd
  0
BLOCK
  5
42
330
40
100
AcDbEntity
  8
0
100
AcDbBlockBegin
  2
block 2
 70
     0
 10
0.0
 20
0.0
 30
0.0
  3
block 2
  1

  0
POLYLINE
  5
44
330
40
100
AcDbEntity
  8
0
 62
     7
420
 16777215
370
     5
100
AcDb2dPolyline
 66
     1
 10
0.0
 20
0.0
 30
0.0
  0
VERTEX
  5
45
330
44
100
AcDbEntity
  8
0
 62
     7
420
 16777215
370
     5
100
AcDbVertex
100
AcDb2dVertex
 10
98.39677775166163
 20
152.3788332964612
 30
0.0
  0
VERTEX
  5
46
330
44
100
AcDbEntity
  8
0
 62
     7
420
 16777215
370
     5
100
AcDbVertex
100
AcDb2dVertex
 10
98.39677775133116
 20
145.0128332964607
 30
0.0
  0
VERTEX
  5
47
330
44
100
AcDbEntity
  8
0
 62
     7
420
 16777215
370
     5
100
AcDbVertex
100
AcDb2dVertex
 10
111.8587777513307
 20
145.0128332958562
 30
0.0
  0
VERTEX
  5
48
330
44
100
AcDbEntity
  8
0
 62
     7
420
 16777215
370
     5
100
AcDbVertex
100
AcDb2dVertex
 10
111.8587777516618
 20
152.3788332958571
 30
0.0
  0
VERTEX
  5
49
330
44
100
AcDbEntity
  8
0
 62
     7
420
 16777215
370
     5
100
AcDbVertex
100
AcDb2dVertex
 10
98.39677775166163
 20
152.3788332964612
 30
0.0
  0
SEQEND
  5
4B
330
44
100
AcDbEntity
  8
0
 62
     7
420
 16777215
370
     5
  0
HATCH
  5
4A
330
40
100
AcDbEntity
  8
0
 62
     7
420
 16777215
100
AcDbHatch
 10
0.0
 20
0.0
 30
0.0
210
0.0
220
0.0
230
1.0
  2
SOLID
 70
     1
 71
     0
 91
        1
 92
        1
 93
        4
 72
     1
 10
98.39677775166163
 20
152.3788332964612
 11
98.39677775133116
 21
145.0128332964607
 72
     1
 10
98.39677775133116
 20
145.0128332964607
 11
111.8587777513307
 21
145.0128332958562
 72
     1
 10
111.8587777513307
 20
145.0128332958562
 11
111.8587777516618
 21
152.3788332958571
 72
     1
 10
111.8587777516618
 20
152.3788332958571
 11
98.39677775166163
 21
152.3788332964612
 97
        0
 75
     2
 76
     1
 98
        0
  0
ENDBLK
  5
43
330
40
100
AcDbEntity
  8
0
100
AcDbBlockEnd
  0
BLOCK
  5
4E
330
4C
100
AcDbEntity
  8
0
100
AcDbBlockBegin
  2
block 3
 70
     0
 10
0.0
 20
0.0
 30
0.0
  3
block 3
  1

  0
SPLINE
  5
50
330
4C
100
AcDbEntity
  8
0
 62
     7
420
 16777215
370
     5
100
AcDbSpline
210
0.0
220
0.0
230
1.0
 70
    11
 71
     3
 72
   404
 73
   400
 74
     0
 42
0.0000000001
 43
0.0000000001
 12
1.0
 22
0.0
 32
0.0
 13
1.0
 23
0.0
 33
0.0
 40
0.0
 40
0.0
 40
0.0
 40
0.0
 40
1.0
 40
1.0
 40
1.0
 40
2.0
 40
2.0
 40
2.0
 40
3.0
 40
3.0
 40
3.0
 40
4.0
 40
4.0
 40
4.0
 40
5.0
 40
5.0
 40
5.0
 40
6.0
 40
6.0
 40
6.0
 40
7.0
 40
7.0
 40
7.0
 40
8.0
 40
8.0
 40
8.0
 40
9.0
 40
9.0
 40
9.0
 40
10.0
 40
10.0
 40
10.0
 40
11.0
 40
11.0
 40
11.0
 40
12.0
 40
12.0
 40
12.0
 40
13.0
 40
13.0
 40
13.0
 40
14.0
 40
14.0
 40
14.0
 40
15.0
 40
15.0
 40
15.0
 40
16.0
 40
16.0
 40
16.0
 40
17.0
 40
17.0
 40
17.0
 40
18.0
 40
18.0
 40
18.0
 40
19.0
 40
19.0
 40
19.0
 40
20.0
 40
20.0
 40
20.0
 40
21.0
 40
21.0
 40
21.0
 40
22.0
 40
22.0
 40
22.0
 40
23.0
 40
23.0
 40
23.0
 40
24.0
 40
24.0
 40
24.0
 40
25.0
 40
25.0
 40
25.0
 40
26.0
 40
26.0
 40
26.0
 40
27.0
 40
27.0
 40
27.0
 40
28.0
 40
28.0
 40
28.0
 40
29.0
 40
29.0
 40
29.0
 40
30.0
 40
30.0
 40
30.0
 40
31.0
 40
31.0
 40
31.0
 40
32.0
 40
32.0
 40
32.0
 40
33.0
 40
33.0
 40
33.0
 40
34.0
 40
34.0
 40
34.0
 40
35.0
 40
35.0
 40
35.0
 40
36.0
 40
36.0
 40
36.0
 40
37.0
 40
37.0
 40
37.0
 40
38.0
 40
38.0
 40
38.0
 40
39.0
 40
39.0
 40
39.0
 40
40.0
 40
40.0
 40
40.0
 40
41.0
 40
41.0
 40
41.0
 40
42.0
 40
42.0
 40
42.0
 40
43.0
 40
43.0
 40
43.0
 40
44.0
 40
44.0
 40
44.0
 40
45.0
 40
45.0
 40
45.0
 40
46.0
 40
46.0
 40
46.0
 40
47.0
 40
47.0
 40
47.0
 40
48.0
 40
48.0
 40
48.0
 40
49.0
 40
49.0
 40
49.0
 40
50.0
 40
50.0
 40
50.0
 40
51.0
 40
51.0
 40
51.0
 40
52.0
 40
52.0
 40
52.0
 40
53.0
 40
53.0
 40
53.0
 40
54.0
 40
54.0
 40
54.0
 40
55.0
 40
55.0
 40
55.0
 40
56.0
 40
56.0
 40
56.0
 40
57.0
 40
57.0
 40
57.0
 40
58.0
 40
58.0
 40
58.0
 40
59.0
 40
59.0
 40
59.0
 40
60.0
 40
60.0
 40
60.0
 40
61.0
 40
61.0
 40
61.0
 40
62.0
 40
62.0
 40
62.0
 40
63.0
 40
63.0
 40
63.0
 40
64.0
 40
64.0
 40
64.0
 40
65.0
 40
65.0
 40
65.0
 40
66.0
 40
66.0
 40
66.0
 40
67.0
 40
67.0
 40
67.0
 40
68.0
 40
68.0
 40
68.0
 40
69.0
 40
69.0
 40
69.0
 40
70.0
 40
70.0
 40
70.0
 40
71.0
 40
71.0
 40
71.0
 40
72.0
 40
72.0
 40
72.0
 40
73.0
 40
73.0
 40
73.0
 40
74.0
 40
74.0
 40
74.0
 40
75.0
 40
75.0
 40
75.0
 40
76.0
 40
76.0
 40
76.0
 40
77.0
 40
77.0
 40
77.0
 40
78.0
 40
78.0
 40
78.0
 40
79.0
 40
79.0
 40
79.0
 40
80.0
 40
80.0
 40
80.0
 40
81.0
 40
81.0
 40
81.0
 40
82.0
 40
82.0
 40
82.0
 40
83.0
 40
83.0
 40
83.0
 40
84.0
 40
84.0
 40
84.0
 40
85.0
 40
85.0
 40
85.0
 40
86.0
 40
86.0
 40
86.0
 40
87.0
 40
87.0
 40
87.0
 40
88.0
 40
88.0
 40
88.0
 40
89.0
 40
89.0
 40
89.0
 40
90.0
 40
90.0
 40
90.0
 40
91.0
 40
91.0
 40
91.0
 40
92.0
 40
92.0
 40
92.0
 40
93.0
 40
93.0
 40
93.0
 40
94.0
 40
94.0
 40
94.0
 40
95.0
 40
95.0
 40
95.0
 40
96.0
 40
96.0
 40
96.0
 40
97.0
 40
97.0
 40
97.0
 40
98.0
 40
98.0
 40
98.0
 40
99.0
 40
99.0
 40
99.0
 40
100.0
 40
100.0
 40
100.0
 40
101.0
 40
101.0
 40
101.0
 40
102.0
 40
102.0
 40
102.0
 40
103.0
 40
103.0
 40
103.0
 40
104.0
 40
104.0
 40
104.0
 40
105.0
 40
105.0
 40
105.0
 40
106.0
 40
106.0
 40
106.0
 40
107.0
 40
107.0
 40
107.0
 40
108.0
 40
108.0
 40
108.0
 40
109.0
 40
109.0
 40
109.0
 40
110.0
 40
110.0
 40
110.0
 40
111.0
 40
111.0
 40
111.0
 40
112.0
 40
112.0
 40
112.0
 40
113.0
 40
113.0
 40
113.0
 40
114.0
 40
114.0
 40
114.0
 40
115.0
 40
115.0
 40
115.0
 40
116.0
 40
116.0
 40
116.0
 40
117.0
 40
117.0
 40
117.0
 40
118.0
 40
118.0
 40
118.0
 40
119.0
 40
119.0
 40
119.0
 40
120.0
 40
120.0
 40
120.0
 40
121.0
 40
121.0
 40
121.0
 40
122.0
 40
122.0
 40
122.0
 40
123.0
 40
123.0
 40
123.0
 40
124.0
 40
124.0
 40
124.0
 40
125.0
 40
125.0
 40
125.0
 40
126.0
 40
126.0
 40
126.0
 40
127.0
 40
127.0
 40
127.0
 40
128.0
 40
128.0
 40
128.0
 40
129.0
 40
129.0
 40
129.0
 40
130.0
 40
130.0
 40
130.0
 40
131.0
 40
131.0
 40
131.0
 40
132.0
 40
132.0
 40
132.0
 40
133.0
 40
133.0
 40
133.0
 40
133.0
 10
107.5082340584626
 20
147.9415067300521
 30
0.0
 10
107.5197591134623
 20
147.9405564790518
 30
0.0
 10
107.5312841680443
 20
147.9396062274343
 30
0.0
 10
107.5426679770218
 20
147.9375552971912
 30
0.0
 10
107.5528803040999
 20
147.9357154235166
 30
0.0
 10
107.5629789603104
 20
147.9329897516978
 30
0.0
 10
107.5725859722957
 20
147.9290879399284
 30
0.0
 10
107.5814810698429
 20
147.925475266564
 30
0.0
 10
107.5899546886162
 20
147.9208543071295
 30
0.0
 10
107.5979880430041
 20
147.9155401688378
 30
0.0
 10
107.6057127905248
 20
147.9104301768475
 30
0.0
 10
107.6130304500548
 20
147.9046792409218
 30
0.0
 10
107.6194386807855
 20
147.8980409643151
 30
0.0
 10
107.6259722516538
 20
147.8912728480458
 30
0.0
 10
107.6315604703319
 20
147.8835823402094
 30
0.0
 10
107.6363733950159
 20
147.8754613456707
 30
0.0
 10
107.641368645107
 20
147.8670327079119
 30
0.0
 10
107.6455287485125
 20
147.8581403498832
 30
0.0
 10
107.6487921856612
 20
147.8489302934236
 30
0.0
 10
107.6524222102936
 20
147.8386856555482
 30
0.0
 10
107.6549428060507
 20
147.828047935175
 30
0.0
 10
107.6566950520766
 20
147.8173188269161
 30
0.0
 10
107.6586494133752
 20
147.8053521546368
 30
0.0
 10
107.6596479494561
 20
147.7932717960449
 30
0.0
 10
107.6606464854554
 20
147.7811914370449
 30
0.0
 10
107.660858471455
 20
147.7688541390454
 30
0.0
 10
107.661070457896
 20
147.75651684058
 30
0.0
 10
107.658953013831
 20
147.7444995570586
 30
0.0
 10
107.6567399578911
 20
147.7319396405473
 30
0.0
 10
107.6519823539447
 20
147.7197292916193
 30
0.0
 10
107.6459697328029
 20
147.7083721669154
 30
0.0
 10
107.6418455547075
 20
147.7005820860435
 30
0.0
 10
107.6371309079954
 20
147.6931934356299
 30
0.0
 10
107.6324219616904
 20
147.6857925481105
 30
0.0
 10
107.6253376540416
 20
147.6746583875863
 30
0.0
 10
107.6182662482775
 20
147.6634965304845
 30
0.0
 10
107.6109713242414
 20
147.6524876104503
 30
0.0
 10
107.6012545149791
 20
147.6378237735637
 30
0.0
 10
107.5911411366462
 20
147.6234312796396
 30
0.0
 10
107.5810533293532
 20
147.609021843983
 30
0.0
 10
107.5684196376203
 20
147.5909758640337
 30
0.0
 10
107.5558260524457
 20
147.5729033120497
 30
0.0
 10
107.543232467445
 20
147.5548307590506
 30
0.0
 10
107.5277545714439
 20
147.5351644490514
 30
0.0
 10
107.5122766753446
 20
147.5154981395335
 30
0.0
 10
107.4952507777033
 20
147.4972527313223
 30
0.0
 10
107.4783767030696
 20
147.4791700207138
 30
0.0
 10
107.4599821114221
 20
147.4624829835275
 30
0.0
 10
107.4410596931148
 20
147.4464485892241
 30
0.0
 10
107.4219903213164
 20
147.4302896701265
 30
0.0
 10
107.4023848927087
 20
147.4147935702601
 30
0.0
 10
107.3817881935536
 20
147.400724860887
 30
0.0
 10
107.3608252376618
 20
147.3864059774648
 30
0.0
 10
107.3388354436275
 20
147.3735657004717
 30
0.0
 10
107.3163072991423
 20
147.3617750186869
 30
0.0
 10
107.293901296294
 20
147.3500482628604
 30
0.0
 10
107.270962764758
 20
147.3393597518413
 30
0.0
 10
107.2474394623588
 20
147.3301635523206
 30
0.0
 10
107.2247744536818
 20
147.3213028941372
 30
0.0
 10
107.201566568657
 20
147.3138276343524
 30
0.0
 10
107.1780071346221
 20
147.3075839336697
 30
0.0
 10
107.154787437879
 20
147.3014302698679
 30
0.0
 10
107.1312262580017
 20
147.2964729020336
 30
0.0
 10
107.1074458258471
 20
147.2934716720917
 30
0.0
 10
107.083880758636
 20
147.290497622469
 30
0.0
 10
107.0601003924333
 20
147.2894444400719
 30
0.0
 10
107.0363200264333
 20
147.2883912580739
 30
0.0
 10
107.0095238234334
 20
147.2893394110751
 30
0.0
 10
106.9827276206016
 20
147.2902875635654
 30
0.0
 10
106.9561623799933
 20
147.2934716718787
 30
0.0
 10
106.9299086418009
 20
147.2966184435288
 30
0.0
 10
106.9038804810903
 20
147.3019490410723
 30
0.0
 10
106.8782626948096
 20
147.3087129147959
 30
0.0
 10
106.8525679366046
 20
147.3154971114437
 30
0.0
 10
106.8272860225782
 20
147.3237232101351
 30
0.0
 10
106.802620972903
 20
147.3335504955989
 30
0.0
 10
106.7774332431578
 20
147.3435860322655
 30
0.0
 10
106.75288879887
 20
147.355291336627
 30
0.0
 10
106.7292372115796
 20
147.3685489047302
 30
0.0
 10
106.7052314050634
 20
147.3820050254905
 30
0.0
 10
106.682145399648
 20
147.397060253278
 30
0.0
 10
106.6598048839506
 20
147.4131436513713
 30
0.0
 10
106.6370834262662
 20
147.4295012974602
 30
0.0
 10
106.615133098671
 20
147.4469224767417
 30
0.0
 10
106.5943239895631
 20
147.4656412648687
 30
0.0
 10
106.5729460621031
 20
147.4848717322886
 30
0.0
 10
106.5527725964183
 20
147.5054717185805
 30
0.0
 10
106.5339235091292
 20
147.5271707260431
 30
0.0
 10
106.5143425055974
 20
147.5497123130823
 30
0.0
 10
106.4961907294461
 20
147.5734399290982
 30
0.0
 10
106.4780389524472
 20
147.597167544099
 30
0.0
 10
106.4548089534487
 20
147.6317710100992
 30
0.0
 10
106.4315789545548
 20
147.6663744761853
 30
0.0
 10
106.4103000962097
 20
147.7021627715789
 30
0.0
 10
106.3885402603388
 20
147.7387600091386
 30
0.0
 10
106.3688207672595
 20
147.7765962440317
 30
0.0
 10
106.3504641070063
 20
147.8150608646484
 30
0.0
 10
106.3318290274038
 20
147.8541088863035
 30
0.0
 10
106.3145984348873
 20
147.8938044999578
 30
0.0
 10
106.2990954741872
 20
147.9341683544955
 30
0.0
 10
106.2830728790344
 20
147.9758851408924
 30
0.0
 10
106.2688956715746
 20
148.0183157156624
 30
0.0
 10
106.2561941984928
 20
148.0611787099387
 30
0.0
 10
106.2433262678178
 20
148.1046034399141
 30
0.0
 10
106.2319730050896
 20
148.1484719977048
 30
0.0
 10
106.2223247705788
 20
148.1927049884154
 30
0.0
 10
106.2126657918853
 20
148.2369872365692
 30
0.0
 10
106.2047156409316
 20
148.2816347297526
 30
0.0
 10
106.1980516804608
 20
148.3264892301345
 30
0.0
 10
106.191369883129
 20
148.3714637887707
 30
0.0
 10
106.1859811707703
 20
148.4166464642457
 30
0.0
 10
106.1828104376533
 20
148.4619669428128
 30
0.0
 10
106.1796180078164
 20
148.5075975407301
 30
0.0
 10
106.1786740154904
 20
148.553367834112
 30
0.0
 10
106.1777300234917
 20
148.599138127112
 30
0.0
 10
106.1790725454946
 20
148.6485047291118
 30
0.0
 10
106.1804150678665
 20
148.6978713305901
 30
0.0
 10
106.1845039089601
 20
148.7470346290571
 30
0.0
 10
106.188560884304
 20
148.7958147809777
 30
0.0
 10
106.1953215391516
 20
148.8443947863605
 30
0.0
 10
106.2036965852168
 20
148.8926731701574
 30
0.0
 10
106.2120852858766
 20
148.9410302665614
 30
0.0
 10
106.2220936462211
 20
148.9890847570559
 30
0.0
 10
106.2341790706316
 20
149.0366182403138
 30
0.0
 10
106.2463252664861
 20
149.0843907452506
 30
0.0
 10
106.2605694679229
 20
149.131636990016
 30
0.0
 10
106.2765158556711
 20
149.1783053478644
 30
0.0
 10
106.2920481337195
 20
149.2237617811099
 30
0.0
 10
106.3091953382883
 20
149.2686699518638
 30
0.0
 10
106.3284489783294
 20
149.3126540795141
 30
0.0
 10
106.3467053560161
 20
149.3543600034273
 30
0.0
 10
106.3668556103416
 20
149.3952351287373
 30
0.0
 10
106.3888494586138
 20
149.435148511166
 30
0.0
 10
106.4095086462731
 20
149.4726398154395
 30
0.0
 10
106.4317944659084
 20
149.5092825588216
 30
0.0
 10
106.4565883149706
 20
149.5440951713287
 30
0.0
 10
106.4804426780275
 20
149.5775886678647
 30
0.0
 10
106.5066186035376
 20
149.6093881000973
 30
0.0
 10
106.5327945285389
 20
149.641187532096
 30
0.0
 10
106.5516726315392
 20
149.6603349610951
 30
0.0
 10
106.5705507344927
 20
149.6794823895679
 30
0.0
 10
106.5903725566682
 20
149.6976365793466
 30
0.0
 10
106.6092947872818
 20
149.7149668612221
 30
0.0
 10
106.6290770215792
 20
149.7313920127198
 30
0.0
 10
106.649644055845
 20
149.7467472501178
 30
0.0
 10
106.6693057205502
 20
149.7614265434609
 30
0.0
 10
106.689684611553
 20
149.7751280455707
 30
0.0
 10
106.7106090260803
 20
149.7879550542535
 30
0.0
 10
106.7309395019346
 20
149.8004179688057
 30
0.0
 10
106.7517849715191
 20
149.8120553302693
 30
0.0
 10
106.7732674681511
 20
149.8223889729665
 30
0.0
 10
106.794182026996
 20
149.8324494227341
 30
0.0
 10
106.8157003756588
 20
149.8412741759672
 30
0.0
 10
106.8376193819431
 20
149.8489200247855
 30
0.0
 10
106.8592773519719
 20
149.8564748182101
 30
0.0
 10
106.8813264934802
 20
149.8628786194672
 30
0.0
 10
106.9036647668135
 20
149.868112701076
 30
0.0
 10
106.9258194565212
 20
149.8733037671996
 30
0.0
 10
106.9482585452123
 20
149.8773442609888
 30
0.0
 10
106.970839132298
 20
149.8799670008096
 30
0.0
 10
106.9939185066183
 20
149.8826476748696
 30
0.0
 10
107.0171456995496
 20
149.8838472690744
 30
0.0
 10
107.0403728915499
 20
149.8850468640734
 30
0.0
 10
107.0403728915499
 20
149.8850468640734
 30
0.0
 10
107.0402714595496
 20
149.8844829240734
 30
0.0
 10
107.0402714595496
 20
149.8844829240734
 30
0.0
 10
107.0666850915497
 20
149.8837129050722
 30
0.0
 10
107.0930987226335
 20
149.8829428860153
 30
0.0
 10
107.1193001255713
 20
149.8799670007608
 30
0.0
 10
107.1444025221583
 20
149.8771159377071
 30
0.0
 10
107.1693101208496
 20
149.8722401757529
 30
0.0
 10
107.1938128674542
 20
149.8658547390506
 30
0.0
 10
107.2180364004363
 20
149.859542065657
 30
0.0
 10
107.2418642555007
 20
149.8517539275655
 30
0.0
 10
107.2649386663245
 20
149.8421461393163
 30
0.0
 10
107.2880920804517
 20
149.8325054554489
 30
0.0
 10
107.3104868821468
 20
149.8210326396777
 30
0.0
 10
107.3321130325462
 20
149.8082767107657
 30
0.0
 10
107.3546619345855
 20
149.7949765077179
 30
0.0
 10
107.376375191805
 20
149.7802813589316
 30
0.0
 10
107.3970294359715
 20
149.7642464543709
 30
0.0
 10
107.41935976891
 20
149.7469103197449
 30
0.0
 10
107.4404522373827
 20
149.7280081646992
 30
0.0
 10
107.4608168590793
 20
149.7083618983034
 30
0.0
 10
107.4828700342995
 20
149.6870866415519
 30
0.0
 10
107.5040696584212
 20
149.6649387601209
 30
0.0
 10
107.5240397916303
 20
149.6417520232905
 30
0.0
 10
107.5457022427673
 20
149.6166003856739
 30
0.0
 10
107.5659179935369
 20
149.5902263620497
 30
0.0
 10
107.5861337435352
 20
149.5638523380491
 30
0.0
 10
107.5934786085351
 20
149.5540773520488
 30
0.0
 10
107.6008234734664
 20
149.5443023661998
 30
0.0
 10
107.6081488718187
 20
149.5344988340278
 30
0.0
 10
107.6143718259518
 20
149.5261706956644
 30
0.0
 10
107.6205807318952
 20
149.5178219566519
 30
0.0
 10
107.6262125668056
 20
149.5090967628969
 30
0.0
 10
107.6308305052289
 20
149.5019423615132
 30
0.0
 10
107.6350604490192
 20
149.49453485018
 30
0.0
 10
107.6391958476124
 20
149.4870816340483
 30
0.0
 10
107.642382140771
 20
149.4813389877156
 30
0.0
 10
107.6455123063678
 20
149.4755692083396
 30
0.0
 10
107.6482276948992
 20
149.4695824296267
 30
0.0
 10
107.6530290521482
 20
149.4589965915266
 30
0.0
 10
107.6565335920304
 20
149.4477322961723
 30
0.0
 10
107.6583885234553
 20
149.4362774920887
 30
0.0
 10
107.6602568129963
 20
149.4247401973023
 30
0.0
 10
107.6604516495287
 20
149.4130096400455
 30
0.0
 10
107.6606464855279
 20
149.4012790830454
 30
0.0
 10
107.6599495125276
 20
149.3891771820456
 30
0.0
 10
107.6592525399194
 20
149.3770752809493
 30
0.0
 10
107.6572595422919
 20
149.3651516929945
 30
0.0
 10
107.6554620754677
 20
149.3543979151259
 30
0.0
 10
107.6526104120976
 20
149.343789178514
 30
0.0
 10
107.648792185332
 20
149.3335402268538
 30
0.0
 10
107.6450514271042
 20
149.3234992176103
 30
0.0
 10
107.6403829290776
 20
149.3138035419683
 30
0.0
 10
107.6346799237309
 20
149.3047512128183
 30
0.0
 10
107.6291757283665
 20
149.2960144529665
 30
0.0
 10
107.6227078955054
 20
149.2878769665959
 30
0.0
 10
107.6154872478822
 20
149.2804781229139
 30
0.0
 10
107.6082858489817
 20
149.2730990029888
 30
0.0
 10
107.60033564366
 20
149.2664545928703
 30
0.0
 10
107.5917786478434
 20
149.2607209564615
 30
0.0
 10
107.5834464747556
 20
149.2551379630835
 30
0.0
 10
107.5745389773968
 20
149.2504185135897
 30
0.0
 10
107.565247596102
 20
149.2466086948809
 30
0.0
 10
107.5552502787427
 20
149.2425094156127
 30
0.0
 10
107.544808528351
 20
149.239463241022
 30
0.0
 10
107.5342006203706
 20
149.2375768472552
 30
0.0
 10
107.5230335677576
 20
149.2355910213518
 30
0.0
 10
107.5116823795206
 20
149.2348904630523
 30
0.0
 10
107.5003311925207
 20
149.234189904053
 30
0.0
 10
107.4849160605206
 20
149.2344828630537
 30
0.0
 10
107.4695009288593
 20
149.2347758212543
 30
0.0
 10
107.454607464405
 20
149.2381413376283
 30
0.0
 10
107.4402474145797
 20
149.2413863168589
 30
0.0
 10
107.4263723337374
 20
149.2474877060664
 30
0.0
 10
107.4139641507294
 20
149.2556405422149
 30
0.0
 10
107.4006331661337
 20
149.2643997080847
 30
0.0
 10
107.388995380292
 20
149.275526801237
 30
0.0
 10
107.3789657414056
 20
149.2878164987484
 30
0.0
 10
107.367372476547
 20
149.3020221665596
 30
0.0
 10
107.3579278665247
 20
149.317781197059
 30
0.0
 10
107.348483255525
 20
149.3335402270594
 30
0.0
 10
107.3372174165258
 20
149.3519189170598
 30
0.0
 10
107.3259515765653
 20
149.370297606817
 30
0.0
 10
107.3140493373957
 20
149.3882958021071
 30
0.0
 10
107.3031210904056
 20
149.4048211567674
 30
0.0
 10
107.2916563390128
 20
149.4210257427134
 30
0.0
 10
107.2790509281912
 20
149.4362774920027
 30
0.0
 10
107.2676058372371
 20
149.4501253276902
 30
0.0
 10
107.2552204158684
 20
149.4631876692459
 30
0.0
 10
107.2423590475029
 20
149.4757918253283
 30
0.0
 10
107.2305291933171
 20
149.4873850963029
 30
0.0
 10
107.2182966749309
 20
149.4985907298129
 30
0.0
 10
107.2051026764909
 20
149.5085322726479
 30
0.0
 10
107.192813920335
 20
149.5177917246836
 30
0.0
 10
107.1796910926905
 20
149.525954594438
 30
0.0
 10
107.1661528342747
 20
149.5333698530858
 30
0.0
 10
107.1534198507612
 20
149.5403440415824
 30
0.0
 10
107.1403193874948
 20
149.5466569118422
 30
0.0
 10
107.1266385015725
 20
149.5514335478811
 30
0.0
 10
107.1134886933595
 20
149.5560247598959
 30
0.0
 10
107.0998026506475
 20
149.559196692738
 30
0.0
 10
107.0859951877885
 20
149.5610298858645
 30
0.0
 10
107.0721524503303
 20
149.5628677623385
 30
0.0
 10
107.0581876715353
 20
149.5633600500727
 30
0.0
 10
107.0442228935354
 20
149.5638523380728
 30
0.0
 10
107.0262410605358
 20
149.5619966390742
 30
0.0
 10
107.0082592269157
 20
149.5601409408908
 30
0.0
 10
106.9905962984851
 20
149.5565139620806
 30
0.0
 10
106.9728815754475
 20
149.5528763475509
 30
0.0
 10
106.9554876306497
 20
149.5474570489901
 30
0.0
 10
106.9386631755168
 20
149.5407082287922
 30
0.0
 10
106.9212935891698
 20
149.5337407392514
 30
0.0
 10
106.9045309945642
 20
149.5253561763143
 30
0.0
 10
106.888423524137
 20
149.515870648155
 30
0.0
 10
106.8717286771089
 20
149.5060392197927
 30
0.0
 10
106.8557376050743
 20
149.4950250663583
 30
0.0
 10
106.8404418341206
 20
149.4831302007813
 30
0.0
 10
106.8240115923871
 20
149.4703531058958
 30
0.0
 10
106.8083836160617
 20
149.4565598111125
 30
0.0
 10
106.7935891251977
 20
149.4419223970229
 30
0.0
 10
106.7777609371023
 20
149.4262622607222
 30
0.0
 10
106.7628867753902
 20
149.4096359262967
 30
0.0
 10
106.748994378178
 20
149.3922472355605
 30
0.0
 10
106.7339314269234
 20
149.3733933979593
 30
0.0
 10
106.7200226544367
 20
149.3536433215275
 30
0.0
 10
106.7066575930346
 20
149.3335402270957
 30
0.0
 10
106.6921946708589
 20
149.3117857823155
 30
0.0
 10
106.678368453843
 20
149.2896179408102
 30
0.0
 10
106.6654497885861
 20
149.2669303514639
 30
0.0
 10
106.6519160375414
 20
149.2431625565773
 30
0.0
 10
106.6393783166349
 20
149.2188243429706
 30
0.0
 10
106.6276289271226
 20
149.1941110812581
 30
0.0
 10
106.6158268307934
 20
149.1692869578374
 30
0.0
 10
106.6048201545048
 20
149.144084413893
 30
0.0
 10
106.5948884799529
 20
149.1184693586215
 30
0.0
 10
106.5847352092113
 20
149.0922827785154
 30
0.0
 10
106.5757054463947
 20
149.0656650737612
 30
0.0
 10
106.5672284469826
 20
149.038876202108
 30
0.0
 10
106.5586009866752
 20
149.0116118464473
 30
0.0
 10
106.5505460862526
 20
148.984170193774
 30
0.0
 10
106.5435198469849
 20
148.9564605935834
 30
0.0
 10
106.5362809840915
 20
148.9279124629285
 30
0.0
 10
106.5301339817417
 20
148.8990799224652
 30
0.0
 10
106.5248916614234
 20
148.8700935516859
 30
0.0
 10
106.5195058976564
 20
148.8403140388061
 30
0.0
 10
106.5150750021485
 20
148.8103721620448
 30
0.0
 10
106.5113438903956
 20
148.7803395678009
 30
0.0
 10
106.5075204871183
 20
148.7495640974126
 30
0.0
 10
106.5044319149927
 20
148.718693366122
 30
0.0
 10
106.5023120428598
 20
148.6877631301026
 30
0.0
 10
106.5001097269784
 20
148.6556299891578
 30
0.0
 10
106.4989529234927
 20
148.6234326250977
 30
0.0
 10
106.4977961194917
 20
148.5912352600979
 30
0.0
 10
106.4989603254898
 20
148.5590385750979
 30
0.0
 10
106.5001245316118
 20
148.5268418895018
 30
0.0
 10
106.5023120429625
 20
148.4947073902408
 30
0.0
 10
106.504430383234
 20
148.463589012784
 30
0.0
 10
106.5075083362531
 20
148.4325289510651
 30
0.0
 10
106.511343890669
 20
148.4015664625538
 30
0.0
 10
106.5150872672701
 20
148.371348078868
 30
0.0
 10
106.5195522687759
 20
148.341222634895
 30
0.0
 10
106.5248916617994
 20
148.3112479875278
 30
0.0
 10
106.5300502236928
 20
148.2822885022526
 30
0.0
 10
106.5360249533708
 20
148.2534697723814
 30
0.0
 10
106.5429553568453
 20
148.2248809458854
 30
0.0
 10
106.549764430929
 20
148.1967926190944
 30
0.0
 10
106.5574960100778
 20
148.168926216382
 30
0.0
 10
106.5660994662043
 20
148.1413363567336
 30
0.0
 10
106.5745148258149
 20
148.1143496914756
 30
0.0
 10
106.5837643556273
 20
148.0876276093966
 30
0.0
 10
106.5937594991406
 20
148.0611787102134
 30
0.0
 10
106.6036327530057
 20
148.0350523523714
 30
0.0
 10
106.6142335461044
 20
148.0091925551824
 30
0.0
 10
106.6259354561829
 20
147.9838435154188
 30
0.0
 10
106.6374330929767
 20
147.9589369787664
 30
0.0
 10
106.6499937391999
 20
147.9345235232041
 30
0.0
 10
106.6631918264942
 20
147.910459755101
 30
0.0
 10
106.6758138658709
 20
147.8874462818751
 30
0.0
 10
106.6890189167337
 20
147.8647526371243
 30
0.0
 10
106.7032706499411
 20
147.8427208987352
 30
0.0
 10
106.7164597603792
 20
147.822331867694
 30
0.0
 10
106.7305452887586
 20
147.8025097180389
 30
0.0
 10
106.7456074351217
 20
147.7834493987671
 30
0.0
 10
106.7594214937537
 20
147.7659684659958
 30
0.0
 10
106.7740570259277
 20
147.749128340084
 30
0.0
 10
106.7896376914924
 20
147.7332097472282
 30
0.0
 10
106.8040822270141
 20
147.7184519258105
 30
0.0
 10
106.8193390846155
 20
147.7044861424876
 30
0.0
 10
106.8353614195458
 20
147.6914374528647
 30
0.0
 10
106.8504366438952
 20
147.6791600960135
 30
0.0
 10
106.8661895226855
 20
147.667694615093
 30
0.0
 10
106.8827786191678
 20
147.6575680244283
 30
0.0
 10
106.8984461907002
 20
147.6480039662668
 30
0.0
 10
106.914859656481
 20
147.6396341791068
 30
0.0
 10
106.9318892900735
 20
147.6327304440437
 30
0.0
 10
106.9485200902242
 20
147.6259883942221
 30
0.0
 10
106.965738534894
 20
147.6206445308382
 30
0.0
 10
106.9832579222753
 20
147.6169247108765
 30
0.0
 10
107.0007453922735
 20
147.6132116678035
 30
0.0
 10
107.0185327094478
 20
147.6111167560742
 30
0.0
 10
107.0363200264474
 20
147.6090218440742
 30
0.0
 10
107.051993943447
 20
147.6094071820731
 30
0.0
 10
107.0676678600847
 20
147.6097925202865
 30
0.0
 10
107.0831727355141
 20
147.6118442965943
 30
0.0
 10
107.0985050974887
 20
147.6138732440174
 30
0.0
 10
107.113672158969
 20
147.6175317529213
 30
0.0
 10
107.1283319735037
 20
147.6225696155165
 30
0.0
 10
107.1427777326075
 20
147.6275339177097
 30
0.0
 10
107.1567309497601
 20
147.6338375863868
 30
0.0
 10
107.1701042680212
 20
147.6411978008598
 30
0.0
 10
107.184157972647
 20
147.6489324765909
 30
0.0
 10
107.1975712710234
 20
147.6578339393972
 30
0.0
 10
107.2101830912563
 20
147.6677288525974
 30
0.0
 10
107.2242317056173
 20
147.678751037906
 30
0.0
 10
107.2372858237908
 20
147.691005923866
 30
0.0
 10
107.24969742385
 20
147.703856242552
 30
0.0
 10
107.2640758268301
 20
147.7187428856602
 30
0.0
 10
107.2775919442104
 20
147.7344286238483
 30
0.0
 10
107.2903407375847
 20
147.7507089520319
 30
0.0
 10
107.3051505200694
 20
147.7696211825545
 30
0.0
 10
107.3189248314566
 20
147.7893357869761
 30
0.0
 10
107.3321130324416
 20
147.8094159604538
 30
0.0
 10
107.3471066669136
 20
147.8322450621324
 30
0.0
 10
107.3613427324589
 20
147.8555466750588
 30
0.0
 10
107.3755787984597
 20
147.8788482880583
 30
0.0
 10
107.3823755574597
 20
147.8882567290589
 30
0.0
 10
107.3891723169974
 20
147.8976651701352
 30
0.0
 10
107.3975939265013
 20
147.9053793401745
 30
0.0
 10
107.406276776124
 20
147.9133328054095
 30
0.0
 10
107.4166868456146
 20
147.9194852559907
 30
0.0
 10
107.4275119213337
 20
147.924572016199
 30
0.0
 10
107.4393089787475
 20
147.9301155157348
 30
0.0
 10
107.4515989149359
 20
147.9343933567627
 30
0.0
 10
107.4642038023595
 20
147.9369908066833
 30
0.0
 10
107.4786064240989
 20
147.939958710119
 30
0.0
 10
107.493420241462
 20
147.9407327200528
 30
0.0
 10
107.5082340584626
 20
147.9415067300521
 30
0.0
  0
ENDBLK
  5
4F
330
4C
100
AcDbEntity
  8
0
100
AcDbBlockEnd
  0
BLOCK
  5
53
330
51
100
AcDbEntity
  8
0
100
AcDbBlockBegin
  2
block 4
 70
     0
 10
0.0
 20
0.0
 30
0.0
  3
block 4
  1

  0
SPLINE
  5
55
330
51
100
AcDbEntity
  8
0
 62
     7
420
 16777215
370
     5
100
AcDbSpline
210
0.0
220
0.0
230
1.0
 70
    11
 71
     3
 72
   257
 73
   253
 74
     0
 42
0.0000000001
 43
0.0000000001
 12
1.0
 22
0.0
 32
0.0
 13
1.0
 23
0.0
 33
0.0
 40
0.0
 40
0.0
 40
0.0
 40
0.0
 40
1.0
 40
1.0
 40
1.0
 40
2.0
 40
2.0
 40
2.0
 40
3.0
 40
3.0
 40
3.0
 40
4.0
 40
4.0
 40
4.0
 40
5.0
 40
5.0
 40
5.0
 40
6.0
 40
6.0
 40
6.0
 40
7.0
 40
7.0
 40
7.0
 40
8.0
 40
8.0
 40
8.0
 40
9.0
 40
9.0
 40
9.0
 40
10.0
 40
10.0
 40
10.0
 40
11.0
 40
11.0
 40
11.0
 40
12.0
 40
12.0
 40
12.0
 40
13.0
 40
13.0
 40
13.0
 40
14.0
 40
14.0
 40
14.0
 40
15.0
 40
15.0
 40
15.0
 40
16.0
 40
16.0
 40
16.0
 40
17.0
 40
17.0
 40
17.0
 40
18.0
 40
18.0
 40
18.0
 40
19.0
 40
19.0
 40
19.0
 40
20.0
 40
20.0
 40
20.0
 40
21.0
 40
21.0
 40
21.0
 40
22.0
 40
22.0
 40
22.0
 40
23.0
 40
23.0
 40
23.0
 40
24.0
 40
24.0
 40
24.0
 40
25.0
 40
25.0
 40
25.0
 40
26.0
 40
26.0
 40
26.0
 40
27.0
 40
27.0
 40
27.0
 40
28.0
 40
28.0
 40
28.0
 40
29.0
 40
29.0
 40
29.0
 40
30.0
 40
30.0
 40
30.0
 40
31.0
 40
31.0
 40
31.0
 40
32.0
 40
32.0
 40
32.0
 40
33.0
 40
33.0
 40
33.0
 40
34.0
 40
34.0
 40
34.0
 40
35.0
 40
35.0
 40
35.0
 40
36.0
 40
36.0
 40
36.0
 40
37.0
 40
37.0
 40
37.0
 40
38.0
 40
38.0
 40
38.0
 40
39.0
 40
39.0
 40
39.0
 40
40.0
 40
40.0
 40
40.0
 40
41.0
 40
41.0
 40
41.0
 40
42.0
 40
42.0
 40
42.0
 40
43.0
 40
43.0
 40
43.0
 40
44.0
 40
44.0
 40
44.0
 40
45.0
 40
45.0
 40
45.0
 40
46.0
 40
46.0
 40
46.0
 40
47.0
 40
47.0
 40
47.0
 40
48.0
 40
48.0
 40
48.0
 40
49.0
 40
49.0
 40
49.0
 40
50.0
 40
50.0
 40
50.0
 40
51.0
 40
51.0
 40
51.0
 40
52.0
 40
52.0
 40
52.0
 40
53.0
 40
53.0
 40
53.0
 40
54.0
 40
54.0
 40
54.0
 40
55.0
 40
55.0
 40
55.0
 40
56.0
 40
56.0
 40
56.0
 40
57.0
 40
57.0
 40
57.0
 40
58.0
 40
58.0
 40
58.0
 40
59.0
 40
59.0
 40
59.0
 40
60.0
 40
60.0
 40
60.0
 40
61.0
 40
61.0
 40
61.0
 40
62.0
 40
62.0
 40
62.0
 40
63.0
 40
63.0
 40
63.0
 40
64.0
 40
64.0
 40
64.0
 40
65.0
 40
65.0
 40
65.0
 40
66.0
 40
66.0
 40
66.0
 40
67.0
 40
67.0
 40
67.0
 40
68.0
 40
68.0
 40
68.0
 40
69.0
 40
69.0
 40
69.0
 40
70.0
 40
70.0
 40
70.0
 40
71.0
 40
71.0
 40
71.0
 40
72.0
 40
72.0
 40
72.0
 40
73.0
 40
73.0
 40
73.0
 40
74.0
 40
74.0
 40
74.0
 40
75.0
 40
75.0
 40
75.0
 40
76.0
 40
76.0
 40
76.0
 40
77.0
 40
77.0
 40
77.0
 40
78.0
 40
78.0
 40
78.0
 40
79.0
 40
79.0
 40
79.0
 40
80.0
 40
80.0
 40
80.0
 40
81.0
 40
81.0
 40
81.0
 40
82.0
 40
82.0
 40
82.0
 40
83.0
 40
83.0
 40
83.0
 40
84.0
 40
84.0
 40
84.0
 40
84.0
 10
102.5198317844358
 20
147.345969286277
 30
0.0
 10
102.5143147624362
 20
147.3542025642767
 30
0.0
 10
102.5087977404
 20
147.3624358422584
 30
0.0
 10
102.5045905417108
 20
147.3713713572234
 30
0.0
 10
102.5004822770518
 20
147.3800967498298
 30
0.0
 10
102.4976229579542
 20
147.3894917409482
 30
0.0
 10
102.4961231847717
 20
147.399031389982
 30
0.0
 10
102.4951825340717
 20
147.405014613076
 30
0.0
 10
102.4947766933219
 20
147.4110547408269
 30
0.0
 10
102.494429713703
 20
147.4170950850087
 30
0.0
 10
102.4939434242728
 20
147.425560583784
 30
0.0
 10
102.493572748819
 20
147.4340265076669
 30
0.0
 10
102.4933007328772
 20
147.4424971561142
 30
0.0
 10
102.4929564661803
 20
147.4532177121921
 30
0.0
 10
102.4927702297504
 20
147.4639458359576
 30
0.0
 10
102.4927362421065
 20
147.4746731126291
 30
0.0
 10
102.4926941537952
 20
147.4879571449577
 30
0.0
 10
102.4928855374426
 20
147.5012398782782
 30
0.0
 10
102.4930769204433
 20
147.5145226122776
 30
0.0
 10
102.4930769204433
 20
147.5145226122776
 30
0.0
 10
102.4927362425394
 20
149.6598157182775
 30
0.0
 10
102.4927362425394
 20
149.6598157182775
 30
0.0
 10
102.4924109405402
 20
149.6782621722775
 30
0.0
 10
102.492085638156
 20
149.6967086258087
 30
0.0
 10
102.4933007326167
 20
149.7151357837146
 30
0.0
 10
102.4943423355322
 20
149.7309319065932
 30
0.0
 10
102.4965158615214
 20
149.7467138505513
 30
0.0
 10
102.5006391084357
 20
149.7619884928768
 30
0.0
 10
102.5042299573642
 20
149.7752908572915
 30
0.0
 10
102.5092995334061
 20
149.7882084688577
 30
0.0
 10
102.5158803510359
 20
149.8003738449416
 30
0.0
 10
102.5218717183714
 20
149.8114495563483
 30
0.0
 10
102.5291157251423
 20
149.8219017540576
 30
0.0
 10
102.5378954794811
 20
149.8308563299834
 30
0.0
 10
102.5469374610278
 20
149.8400783545578
 30
0.0
 10
102.557608297256
 20
149.8477119616712
 30
0.0
 10
102.5689424555218
 20
149.8540004393559
 30
0.0
 10
102.5814610935276
 20
149.86094609636
 30
0.0
 10
102.5947889393026
 20
149.8662507869526
 30
0.0
 10
102.6084567881948
 20
149.8703706628307
 30
0.0
 10
102.6244828733372
 20
149.8752013777533
 30
0.0
 10
102.6409764109427
 20
149.8784031530319
 30
0.0
 10
102.6575674591406
 20
149.8805314915581
 30
0.0
 10
102.6767846419234
 20
149.8829967167815
 30
0.0
 10
102.6961326475494
 20
149.8840217902683
 30
0.0
 10
102.7154806535495
 20
149.8850468642676
 30
0.0
 10
102.7154806535495
 20
149.8850468642676
 30
0.0
 10
103.22996079455
 20
149.8844829242444
 30
0.0
 10
103.22996079455
 20
149.8844829242444
 30
0.0
 10
103.25390159155
 20
149.8834510322436
 30
0.0
 10
103.2778423883601
 20
149.8824191397432
 30
0.0
 10
103.3016510844986
 20
149.8799670009976
 30
0.0
 10
103.3247523441719
 20
149.8775877235439
 30
0.0
 10
103.3477292368545
 20
149.8738713465203
 30
0.0
 10
103.3705189209466
 20
149.8692416820049
 30
0.0
 10
103.3924096337564
 20
149.8647946411463
 30
0.0
 10
103.4141276160889
 20
149.8595049435334
 30
0.0
 10
103.4354353257586
 20
149.852871458172
 30
0.0
 10
103.456357813863
 20
149.846357899431
 30
0.0
 10
103.4768847298261
 20
149.8385487023374
 30
0.0
 10
103.4969647863458
 20
149.8297273491108
 30
0.0
 10
103.516859652824
 20
149.82098735157
 30
0.0
 10
103.5363158642516
 20
149.8112537811998
 30
0.0
 10
103.5551073041892
 20
149.8003738450959
 30
0.0
 10
103.5738081894821
 20
149.7895463386485
 30
0.0
 10
103.5918506948237
 20
149.7775834883598
 30
0.0
 10
103.6092983899244
 20
149.7648109450762
 30
0.0
 10
103.6271205301747
 20
149.7517642901198
 30
0.0
 10
103.6443220557717
 20
149.7378728155858
 30
0.0
 10
103.6606670222469
 20
149.723038650755
 30
0.0
 10
103.6773203672949
 20
149.7079246114695
 30
0.0
 10
103.6930845271174
 20
149.6918319750712
 30
0.0
 10
103.7080842218073
 20
149.6750569605488
 30
0.0
 10
103.7232567495918
 20
149.6580886569136
 30
0.0
 10
103.7376470937382
 20
149.6404221592337
 30
0.0
 10
103.7509854977192
 20
149.6219948563298
 30
0.0
 10
103.7643912814177
 20
149.6034744668423
 30
0.0
 10
103.7767344702346
 20
149.5841855662141
 30
0.0
 10
103.7882418686587
 20
149.5644168291095
 30
0.0
 10
103.7998926067091
 20
149.5444018466519
 30
0.0
 10
103.8106866029717
 20
149.523894999292
 30
0.0
 10
103.8204178253638
 20
149.5028873683307
 30
0.0
 10
103.8303929696646
 20
149.481353162061
 30
0.0
 10
103.8392513935746
 20
149.4592927523589
 30
0.0
 10
103.8469488773328
 20
149.4368419824965
 30
0.0
 10
103.8548315116
 20
149.4138511957133
 30
0.0
 10
103.8614966849641
 20
149.3904510439583
 30
0.0
 10
103.867270533705
 20
149.3668451650832
 30
0.0
 10
103.8732515739328
 20
149.3423922018125
 30
0.0
 10
103.8782761723637
 20
149.3177184816917
 30
0.0
 10
103.8825117765972
 20
149.292896913953
 30
0.0
 10
103.8869188734809
 20
149.2670703617515
 30
0.0
 10
103.8904717926078
 20
149.2410837473508
 30
0.0
 10
103.8926726054542
 20
149.2149972281687
 30
0.0
 10
103.8949840962389
 20
149.1875988290827
 30
0.0
 10
103.8958040675167
 20
149.1600902242145
 30
0.0
 10
103.896624038516
 20
149.1325816202146
 30
0.0
 10
103.8957227305149
 20
149.1099894652145
 30
0.0
 10
103.8948214230696
 20
149.0873973097996
 30
0.0
 10
103.8932370959057
 20
149.0648427636736
 30
0.0
 10
103.8916993276538
 20
149.042951032147
 30
0.0
 10
103.8895180938754
 20
149.021094731926
 30
0.0
 10
103.8864632102461
 20
148.9993618687913
 30
0.0
 10
103.8834829138289
 20
148.9781596293594
 30
0.0
 10
103.8796711083506
 20
148.9570748729843
 30
0.0
 10
103.8751734006107
 20
148.9361389370934
 30
0.0
 10
103.870772462988
 20
148.915653446871
 30
0.0
 10
103.8657148205555
 20
148.8953104421506
 30
0.0
 10
103.8599321578995
 20
148.8751739656591
 30
0.0
 10
103.8542485647958
 20
148.8553824706775
 30
0.0
 10
103.847864581006
 20
148.8357904879902
 30
0.0
 10
103.8407394824211
 20
148.8164669579271
 30
0.0
 10
103.8337617180415
 20
148.7975430036602
 30
0.0
 10
103.8260731718146
 20
148.7788765145699
 30
0.0
 10
103.8175953730898
 20
148.7605824014113
 30
0.0
 10
103.8090678810049
 20
148.7421810557045
 30
0.0
 10
103.79974185676
 20
148.7241564641518
 30
0.0
 10
103.7899353401253
 20
148.7063913160931
 30
0.0
 10
103.7801829989194
 20
148.6887243103775
 30
0.0
 10
103.7699554595552
 20
148.6713138895192
 30
0.0
 10
103.7588883643175
 20
148.6544581927651
 30
0.0
 10
103.7480859643085
 20
148.6380056390594
 30
0.0
 10
103.736483688017
 20
148.6220815917566
 30
0.0
 10
103.724454445594
 20
148.6064765030013
 30
0.0
 10
103.7127804687395
 20
148.5913322870538
 30
0.0
 10
103.700704372946
 20
148.5764884679367
 30
0.0
 10
103.6877625646329
 20
148.5624462459068
 30
0.0
 10
103.6752341035713
 20
148.5488525171446
 30
0.0
 10
103.6618943467116
 20
148.5360099988992
 30
0.0
 10
103.6482482322869
 20
148.5234964043911
 30
0.0
 10
103.6349512321743
 20
148.5113029504594
 30
0.0
 10
103.6213633493327
 20
148.4994218055597
 30
0.0
 10
103.6070404280052
 20
148.4884979952165
 30
0.0
 10
103.592937799909
 20
148.4777421981879
 30
0.0
 10
103.5781225699199
 20
148.4679145136749
 30
0.0
 10
103.5630101710763
 20
148.4585800001367
 30
0.0
 10
103.5479428726386
 20
148.4492733438797
 30
0.0
 10
103.5325801764017
 20
148.4404569194177
 30
0.0
 10
103.5167219528589
 20
148.4326134383821
 30
0.0
 10
103.5007760694997
 20
148.4247266007812
 30
0.0
 10
103.4843291654211
 20
148.4178234926529
 30
0.0
 10
103.4676112816119
 20
148.4117272910358
 30
0.0
 10
103.4509615923043
 20
148.4056559566473
 30
0.0
 10
103.4340431294833
 20
148.4003849592353
 30
0.0
 10
103.4171246654828
 20
148.3951139622362
 30
0.0
 10
103.4171246654828
 20
148.3951139622362
 30
0.0
 10
103.3859453874821
 20
148.3874801102377
 30
0.0
 10
103.3859453874821
 20
148.3874801102377
 30
0.0
 10
103.3859453874821
 20
148.3874801102377
 30
0.0
 10
103.8422218204469
 20
147.5956504762163
 30
0.0
 10
103.8422218204469
 20
147.5956504762163
 30
0.0
 10
103.8422218204469
 20
147.5956504762163
 30
0.0
 10
103.8537227624456
 20
147.5762813972157
 30
0.0
 10
103.8537227624456
 20
147.5762813972157
 30
0.0
 10
103.8591752614457
 20
147.5680006492164
 30
0.0
 10
103.8646277597907
 20
147.5597199015457
 30
0.0
 10
103.8700929864248
 20
147.551443816523
 30
0.0
 10
103.8745234755049
 20
147.5447346520575
 30
0.0
 10
103.8789623294137
 20
147.5380285518088
 30
0.0
 10
103.8830762672097
 20
147.5311221594494
 30
0.0
 10
103.8862658185637
 20
147.5257676076324
 30
0.0
 10
103.8892600641788
 20
147.5202926610514
 30
0.0
 10
103.8921081145215
 20
147.5147519359386
 30
0.0
 10
103.8941081743133
 20
147.5108609297497
 30
0.0
 10
103.8960361359818
 20
147.5069374840111
 30
0.0
 10
103.897753019259
 20
147.5028976361034
 30
0.0
 10
103.9006023002176
 20
147.4961932422339
 30
0.0
 10
103.9028702377241
 20
147.4891682582797
 30
0.0
 10
103.9039624145795
 20
147.4820114888697
 30
0.0
 10
103.9052642625247
 20
147.4734807957834
 30
0.0
 10
103.9048955834415
 20
147.4647628612137
 30
0.0
 10
103.9045269044405
 20
147.4560449272139
 30
0.0
 10
103.9038437564398
 20
147.4445084042136
 30
0.0
 10
103.9031606076698
 20
147.4329718810388
 30
0.0
 10
103.9011399619893
 20
147.4216110089075
 30
0.0
 10
103.8992832858367
 20
147.4111720385549
 30
0.0
 10
103.8962973735345
 20
147.4008813687391
 30
0.0
 10
103.8921081145434
 20
147.3911285235158
 30
0.0
 10
103.8881777907978
 20
147.3819784950136
 30
0.0
 10
103.8831882791851
 20
147.3733018606613
 30
0.0
 10
103.8774313627045
 20
147.3651619615623
 30
0.0
 10
103.8716405242391
 20
147.3569740990228
 30
0.0
 10
103.8650732105662
 20
147.349329315676
 30
0.0
 10
103.8576741959912
 20
147.3425823428845
 30
0.0
 10
103.8502948509516
 20
147.3358533062407
 30
0.0
 10
103.8420882211177
 20
147.33001731302
 30
0.0
 10
103.8334011055083
 20
147.3250831381193
 30
0.0
 10
103.824598822099
 20
147.3200835493245
 30
0.0
 10
103.8153032285673
 20
147.3160098487239
 30
0.0
 10
103.805741073155
 20
147.3126643479904
 30
0.0
 10
103.7956374240543
 20
147.3091293954593
 30
0.0
 10
103.7852361680811
 20
147.3064074522212
 30
0.0
 10
103.7746940974063
 20
147.3047614816565
 30
0.0
 10
103.763325302165
 20
147.3029864316784
 30
0.0
 10
103.7517927404338
 20
147.3024627302219
 30
0.0
 10
103.7402601784338
 20
147.301939029221
 30
0.0
 10
103.7249311894334
 20
147.3022395152226
 30
0.0
 10
103.7096022003919
 20
147.3025400011497
 30
0.0
 10
103.6945364503708
 20
147.3053259722812
 30
0.0
 10
103.6821586389437
 20
147.3076148875527
 30
0.0
 10
103.6699585148515
 20
147.3115815147534
 30
0.0
 10
103.6589735508676
 20
147.3177447622675
 30
0.0
 10
103.6480976706768
 20
147.3238468069952
 30
0.0
 10
103.6384129366557
 20
147.3321020625287
 30
0.0
 10
103.6301845371261
 20
147.3414533620227
 30
0.0
 10
103.6200553801581
 20
147.3529648084564
 30
0.0
 10
103.6121330944365
 20
147.3661371562268
 30
0.0
 10
103.6042108094374
 20
147.3793095042283
 30
0.0
 10
103.6042108094374
 20
147.3793095042283
 30
0.0
 10
103.0273836874817
 20
148.3722124072533
 30
0.0
 10
103.0273836874817
 20
148.3722124072533
 30
0.0
 10
103.0273836874817
 20
148.3722124072533
 30
0.0
 10
102.8130261498227
 20
148.372212407263
 30
0.0
 10
102.8130261498227
 20
148.372212407263
 30
0.0
 10
102.8130261498227
 20
148.372212407263
 30
0.0
 10
102.8128023384424
 20
147.4989462032631
 30
0.0
 10
102.8128023384424
 20
147.4989462032631
 30
0.0
 10
102.812677161442
 20
147.4810427162624
 30
0.0
 10
102.8125519855127
 20
147.4631392289332
 30
0.0
 10
102.8111088668071
 20
147.4453196083752
 30
0.0
 10
102.8098656084079
 20
147.4299678616056
 30
0.0
 10
102.807644177967
 20
147.4146783604321
 30
0.0
 10
102.8043349811553
 20
147.3995958807812
 30
0.0
 10
102.80158658662
 20
147.3870693956553
 30
0.0
 10
102.7980878685197
 20
147.3746857106106
 30
0.0
 10
102.7930451715302
 20
147.3629040002482
 30
0.0
 10
102.7887592398484
 20
147.3528903893148
 30
0.0
 10
102.7833579711882
 20
147.3433116318792
 30
0.0
 10
102.7766749477865
 20
147.3346794763054
 30
0.0
 10
102.7705427012406
 20
147.3267587339983
 30
0.0
 10
102.7633312640213
 20
147.3196349958821
 30
0.0
 10
102.7552243103446
 20
147.3137933290191
 30
0.0
 10
102.7466101475858
 20
147.307586180054
 30
0.0
 10
102.7369849075848
 20
147.3028265455979
 30
0.0
 10
102.726999786507
 20
147.2991165769896
 30
0.0
 10
102.7160418492973
 20
147.2950451588535
 30
0.0
 10
102.7046504910815
 20
147.2922379006205
 30
0.0
 10
102.6931303582869
 20
147.2906492196152
 30
0.0
 10
102.679884251748
 20
147.2888225186371
 30
0.0
 10
102.666467893433
 20
147.2886068882689
 30
0.0
 10
102.653051535433
 20
147.2883912582703
 30
0.0
 10
102.6394315464332
 20
147.2891839302713
 30
0.0
 10
102.6258115585326
 20
147.2899766026151
 30
0.0
 10
102.6124082215231
 20
147.2923426910772
 30
0.0
 10
102.6000385295256
 20
147.2945263103872
 30
0.0
 10
102.5878533613222
 20
147.2980500244029
 30
0.0
 10
102.576280831396
 20
147.3030680099224
 30
0.0
 10
102.5654001747016
 20
147.3077859910445
 30
0.0
 10
102.555061091896
 20
147.3138249122073
 30
0.0
 10
102.5457983463175
 20
147.3211317051916
 30
0.0
 10
102.5364048700728
 20
147.3285416233146
 30
0.0
 10
102.5281183274356
 20
147.3372554542754
 30
0.0
 10
102.5198317844358
 20
147.345969286277
 30
0.0
  0
ENDBLK
  5
54
330
51
100
AcDbEntity
  8
0
100
AcDbBlockEnd
  0
BLOCK
  5
58
330
56
100
AcDbEntity
  8
0
100
AcDbBlockBegin
  2
block 5
 70
     0
 10
0.0
 20
0.0
 30
0.0
  3
block 5
  1

  0
SPLINE
  5
5A
330
56
100
AcDbEntity
  8
0
 62
     7
420
 16777215
370
     5
100
AcDbSpline
210
0.0
220
0.0
230
1.0
 70
    11
 71
     3
 72
   224
 73
   220
 74
     0
 42
0.0000000001
 43
0.0000000001
 12
1.0
 22
0.0
 32
0.0
 13
1.0
 23
0.0
 33
0.0
 40
0.0
 40
0.0
 40
0.0
 40
0.0
 40
1.0
 40
1.0
 40
1.0
 40
2.0
 40
2.0
 40
2.0
 40
3.0
 40
3.0
 40
3.0
 40
4.0
 40
4.0
 40
4.0
 40
5.0
 40
5.0
 40
5.0
 40
6.0
 40
6.0
 40
6.0
 40
7.0
 40
7.0
 40
7.0
 40
8.0
 40
8.0
 40
8.0
 40
9.0
 40
9.0
 40
9.0
 40
10.0
 40
10.0
 40
10.0
 40
11.0
 40
11.0
 40
11.0
 40
12.0
 40
12.0
 40
12.0
 40
13.0
 40
13.0
 40
13.0
 40
14.0
 40
14.0
 40
14.0
 40
15.0
 40
15.0
 40
15.0
 40
16.0
 40
16.0
 40
16.0
 40
17.0
 40
17.0
 40
17.0
 40
18.0
 40
18.0
 40
18.0
 40
19.0
 40
19.0
 40
19.0
 40
20.0
 40
20.0
 40
20.0
 40
21.0
 40
21.0
 40
21.0
 40
22.0
 40
22.0
 40
22.0
 40
23.0
 40
23.0
 40
23.0
 40
24.0
 40
24.0
 40
24.0
 40
25.0
 40
25.0
 40
25.0
 40
26.0
 40
26.0
 40
26.0
 40
27.0
 40
27.0
 40
27.0
 40
28.0
 40
28.0
 40
28.0
 40
29.0
 40
29.0
 40
29.0
 40
30.0
 40
30.0
 40
30.0
 40
31.0
 40
31.0
 40
31.0
 40
32.0
 40
32.0
 40
32.0
 40
33.0
 40
33.0
 40
33.0
 40
34.0
 40
34.0
 40
34.0
 40
35.0
 40
35.0
 40
35.0
 40
36.0
 40
36.0
 40
36.0
 40
37.0
 40
37.0
 40
37.0
 40
38.0
 40
38.0
 40
38.0
 40
39.0
 40
39.0
 40
39.0
 40
40.0
 40
40.0
 40
40.0
 40
41.0
 40
41.0
 40
41.0
 40
42.0
 40
42.0
 40
42.0
 40
43.0
 40
43.0
 40
43.0
 40
44.0
 40
44.0
 40
44.0
 40
45.0
 40
45.0
 40
45.0
 40
46.0
 40
46.0
 40
46.0
 40
47.0
 40
47.0
 40
47.0
 40
48.0
 40
48.0
 40
48.0
 40
49.0
 40
49.0
 40
49.0
 40
50.0
 40
50.0
 40
50.0
 40
51.0
 40
51.0
 40
51.0
 40
52.0
 40
52.0
 40
52.0
 40
53.0
 40
53.0
 40
53.0
 40
54.0
 40
54.0
 40
54.0
 40
55.0
 40
55.0
 40
55.0
 40
56.0
 40
56.0
 40
56.0
 40
57.0
 40
57.0
 40
57.0
 40
58.0
 40
58.0
 40
58.0
 40
59.0
 40
59.0
 40
59.0
 40
60.0
 40
60.0
 40
60.0
 40
61.0
 40
61.0
 40
61.0
 40
62.0
 40
62.0
 40
62.0
 40
63.0
 40
63.0
 40
63.0
 40
64.0
 40
64.0
 40
64.0
 40
65.0
 40
65.0
 40
65.0
 40
66.0
 40
66.0
 40
66.0
 40
67.0
 40
67.0
 40
67.0
 40
68.0
 40
68.0
 40
68.0
 40
69.0
 40
69.0
 40
69.0
 40
70.0
 40
70.0
 40
70.0
 40
71.0
 40
71.0
 40
71.0
 40
72.0
 40
72.0
 40
72.0
 40
73.0
 40
73.0
 40
73.0
 40
73.0
 10
104.4983708784329
 20
147.2883912581869
 30
0.0
 10
104.4798941934328
 20
147.2884150971881
 30
0.0
 10
104.4614175093844
 20
147.288438935608
 30
0.0
 10
104.4430508125032
 20
147.2900847291984
 30
0.0
 10
104.4274676845898
 20
147.2914810941644
 30
0.0
 10
104.4119637318781
 20
147.2940450373923
 30
0.0
 10
104.3967625938463
 20
147.297987595843
 30
0.0
 10
104.3842722476805
 20
147.3012270848688
 30
0.0
 10
104.3719863451853
 20
147.3053973384035
 30
0.0
 10
104.3606352035369
 20
147.3115353670966
 30
0.0
 10
104.3508034239268
 20
147.3168518143062
 30
0.0
 10
104.3416729150206
 20
147.3236445140528
 30
0.0
 10
104.3341041515669
 20
147.3318570243666
 30
0.0
 10
104.3266222634918
 20
147.3399752702812
 30
0.0
 10
104.3206664747386
 20
147.3494809202325
 30
0.0
 10
104.316040456503
 20
147.359517057256
 30
0.0
 10
104.3104903602549
 20
147.3715579796251
 30
0.0
 10
104.3068543570666
 20
147.3843624936142
 30
0.0
 10
104.3041861568751
 20
147.3973379186572
 30
0.0
 10
104.3010092647338
 20
147.4127871064596
 30
0.0
 10
104.2992043756567
 20
147.4284785858147
 30
0.0
 10
104.2985412523943
 20
147.4441906272246
 30
0.0
 10
104.2977447210548
 20
147.4630636393646
 30
0.0
 10
104.2985955714421
 20
147.4819663191969
 30
0.0
 10
104.2994464214426
 20
147.5008689981962
 30
0.0
 10
104.2994464214426
 20
147.5008689981962
 30
0.0
 10
104.2991057425402
 20
149.6761859411965
 30
0.0
 10
104.2991057425402
 20
149.6761859411965
 30
0.0
 10
104.2987971355415
 20
149.6946343681965
 30
0.0
 10
104.2984885283651
 20
149.7130827942022
 30
0.0
 10
104.2996702332208
 20
149.7315060071961
 30
0.0
 10
104.3006575573043
 20
149.7468987525123
 30
0.0
 10
104.3026852293691
 20
149.7622738972825
 30
0.0
 10
104.3064441188142
 20
149.7772297357565
 30
0.0
 10
104.3096248430005
 20
149.7898851750442
 30
0.0
 10
104.314045175616
 20
149.8022403772693
 30
0.0
 10
104.3199918900522
 20
149.8139216163101
 30
0.0
 10
104.3251105132445
 20
149.8239762207004
 30
0.0
 10
104.3313600133483
 20
149.8335314943235
 30
0.0
 10
104.3391845657205
 20
149.8415816486566
 30
0.0
 10
104.3469782607161
 20
149.849600055917
 30
0.0
 10
104.3563346095345
 20
149.8561251918365
 30
0.0
 10
104.3662801089449
 20
149.8613388155044
 30
0.0
 10
104.3777234325251
 20
149.8673376276487
 30
0.0
 10
104.3899467253601
 20
149.8716001447819
 30
0.0
 10
104.4024074986178
 20
149.8748865868857
 30
0.0
 10
104.4172133676296
 20
149.8787915316508
 30
0.0
 10
104.4323545150836
 20
149.8813184389627
 30
0.0
 10
104.4475667360613
 20
149.8827894530044
 30
0.0
 10
104.465757091291
 20
149.8845484511159
 30
0.0
 10
104.4840490725496
 20
149.8847976571884
 30
0.0
 10
104.5023410545494
 20
149.8850468641874
 30
0.0
 10
104.5023410545494
 20
149.8850468641874
 30
0.0
 10
105.5748542025494
 20
149.8844829241392
 30
0.0
 10
105.5748542025494
 20
149.8844829241392
 30
0.0
 10
105.5903101655501
 20
149.8845733291386
 30
0.0
 10
105.6057661290199
 20
149.8846637341098
 30
0.0
 10
105.6211424211858
 20
149.8833539433262
 30
0.0
 10
105.6346408434777
 20
149.8822041141657
 30
0.0
 10
105.6480778662877
 20
149.8799752102483
 30
0.0
 10
105.6612212446218
 20
149.8765800581521
 30
0.0
 10
105.6726523024361
 20
149.8736272267778
 30
0.0
 10
105.683861243834
 20
149.8697922304457
 30
0.0
 10
105.6945261817982
 20
149.8647257583553
 30
0.0
 10
105.7041655994252
 20
149.8601464686733
 30
0.0
 10
105.7133606042442
 20
149.8545611493138
 30
0.0
 10
105.7216217245956
 20
149.8477910439629
 30
0.0
 10
105.7295741168302
 20
149.8412739456845
 30
0.0
 10
105.7366611211249
 20
149.833658960521
 30
0.0
 10
105.7425078717266
 20
149.8252114253378
 30
0.0
 10
105.7484104796168
 20
149.8166831861105
 30
0.0
 10
105.7530490229378
 20
149.8073064132411
 30
0.0
 10
105.7566201335665
 20
149.797551392483
 30
0.0
 10
105.7604935468665
 20
149.7869705869355
 30
0.0
 10
105.7631111570112
 20
149.7759447838753
 30
0.0
 10
105.7645229998491
 20
149.7648109451137
 30
0.0
 10
105.7661336176883
 20
149.7521095601953
 30
0.0
 10
105.766175044543
 20
149.7392675771304
 30
0.0
 10
105.7662164715428
 20
149.7264255931308
 30
0.0
 10
105.7662066845422
 20
149.7132086031301
 30
0.0
 10
105.7661968965354
 20
149.6999916127675
 30
0.0
 10
105.7645230000198
 20
149.6869112605146
 30
0.0
 10
105.7630454308921
 20
149.6753650720252
 30
0.0
 10
105.7602712198734
 20
149.6639253493674
 30
0.0
 10
105.7560556429277
 20
149.6530418319929
 30
0.0
 10
105.7521823947612
 20
149.6430421180119
 30
0.0
 10
105.7470923699693
 20
149.6335119430805
 30
0.0
 10
105.7408144001657
 20
149.6248173085654
 30
0.0
 10
105.7345627327844
 20
149.6161591014211
 30
0.0
 10
105.7271330536589
 20
149.6083294481361
 30
0.0
 10
105.7187992719676
 20
149.6016731997227
 30
0.0
 10
105.7100094837409
 20
149.5946527357717
 30
0.0
 10
105.7002139449472
 20
149.5889376022767
 30
0.0
 10
105.6900102585957
 20
149.58417399497
 30
0.0
 10
105.6787628163796
 20
149.578923108567
 30
0.0
 10
105.6670194553962
 20
149.5748283719039
 30
0.0
 10
105.6550118494637
 20
149.5717552045768
 30
0.0
 10
105.6411486628853
 20
149.5682071291088
 30
0.0
 10
105.6269332514677
 20
149.5660207526815
 30
0.0
 10
105.6126750640957
 20
149.5649813193645
 30
0.0
 10
105.5963660394955
 20
149.5637923783659
 30
0.0
 10
105.5800010485354
 20
149.564104052139
 30
0.0
 10
105.5636360575355
 20
149.5644157261399
 30
0.0
 10
105.5636360575355
 20
149.5644157261399
 30
0.0
 10
104.6193956505359
 20
149.5644157261822
 30
0.0
 10
104.6193956505359
 20
149.5644157261822
 30
0.0
 10
104.6193956505359
 20
149.5644157261822
 30
0.0
 10
104.6193956505063
 20
148.9096078851822
 30
0.0
 10
104.6193956505063
 20
148.9096078851822
 30
0.0
 10
104.6193956505063
 20
148.9096078851822
 30
0.0
 10
105.3022053065058
 20
148.9096078851514
 30
0.0
 10
105.3022053065058
 20
148.9096078851514
 30
0.0
 10
105.3174776405058
 20
148.9095121651507
 30
0.0
 10
105.3327499751307
 20
148.9094164460888
 30
0.0
 10
105.3479290337161
 20
148.9079144132116
 30
0.0
 10
105.3612618930349
 20
148.9065950696613
 30
0.0
 10
105.3745227864123
 20
148.9041907025664
 30
0.0
 10
105.3874433664671
 20
148.9005760372347
 30
0.0
 10
105.3987007742955
 20
148.8974266614611
 30
0.0
 10
105.4096998420818
 20
148.8933585191319
 30
0.0
 10
105.4201838139377
 20
148.8881572471685
 30
0.0
 10
105.4298409846242
 20
148.8833661649509
 30
0.0
 10
105.4390611001623
 20
148.8776136304835
 30
0.0
 10
105.4472793563173
 20
148.8706580426054
 30
0.0
 10
105.4552224191482
 20
148.8639353668333
 30
0.0
 10
105.4622295949703
 20
148.8560888586383
 30
0.0
 10
105.4681655037089
 20
148.8475139332718
 30
0.0
 10
105.474222782268
 20
148.8387636788694
 30
0.0
 10
105.4791645381024
 20
148.8292549152943
 30
0.0
 10
105.4828422561567
 20
148.8192894095553
 30
0.0
 10
105.48679942878
 20
148.808566666294
 30
0.0
 10
105.489293167264
 20
148.797315131816
 30
0.0
 10
105.4907451227935
 20
148.7859844721613
 30
0.0
 10
105.4924000699243
 20
148.7730697221637
 30
0.0
 10
105.4927015774992
 20
148.7600521761427
 30
0.0
 10
105.4930030844991
 20
148.7470346291431
 30
0.0
 10
105.4930040604977
 20
148.7341888131431
 30
0.0
 10
105.4930050364847
 20
148.7213429976548
 30
0.0
 10
105.4913096128959
 20
148.7086492779703
 30
0.0
 10
105.4898173896504
 20
148.6974769292361
 30
0.0
 10
105.4870110334243
 20
148.6864224030442
 30
0.0
 10
105.4828422560065
 20
148.6759088307172
 30
0.0
 10
105.4789491686907
 20
148.6660905432526
 30
0.0
 10
105.4738679013037
 20
148.6567440266364
 30
0.0
 10
105.4676010136906
 20
148.6482487976715
 30
0.0
 10
105.4613431424432
 20
148.6397657910568
 30
0.0
 10
105.4539030600928
 20
148.6321316243075
 30
0.0
 10
105.4455858854803
 20
148.6256691787072
 30
0.0
 10
105.4367769183658
 20
148.6188246102793
 30
0.0
 10
105.4269840678841
 20
148.6132944268925
 30
0.0
 10
105.4167968712696
 20
148.608734464438
 30
0.0
 10
105.4055266082721
 20
148.6036897030513
 30
0.0
 10
105.3937736908294
 20
148.599832430035
 30
0.0
 10
105.3817984620511
 20
148.596880164708
 30
0.0
 10
105.3679034581605
 20
148.5934546152702
 30
0.0
 10
105.353709151102
 20
148.591247499739
 30
0.0
 10
105.339461676991
 20
148.5901062794149
 30
0.0
 10
105.3231902375314
 20
148.5888029398007
 30
0.0
 10
105.3068494524916
 20
148.5888898431515
 30
0.0
 10
105.2905086664917
 20
148.588976747152
 30
0.0
 10
105.2905086664917
 20
148.588976747152
 30
0.0
 10
104.6193956504916
 20
148.5889767471822
 30
0.0
 10
104.6193956504916
 20
148.5889767471822
 30
0.0
 10
104.6193956504916
 20
148.5889767471822
 30
0.0
 10
104.619395650448
 20
147.609021844182
 30
0.0
 10
104.619395650448
 20
147.609021844182
 30
0.0
 10
104.619395650448
 20
147.609021844182
 30
0.0
 10
105.5788056354475
 20
147.6090218441396
 30
0.0
 10
105.5788056354475
 20
147.6090218441396
 30
0.0
 10
105.594822361447
 20
147.6091101861379
 30
0.0
 10
105.6108390880304
 20
147.6091985280515
 30
0.0
 10
105.6267873256448
 20
147.6078928630122
 30
0.0
 10
105.6406640291996
 20
147.6067567922346
 30
0.0
 10
105.6544888804734
 20
147.6045653334236
 30
0.0
 10
105.6679951296871
 20
147.6011189777235
 30
0.0
 10
105.680005756192
 20
147.5980542563153
 30
0.0
 10
105.6917644350031
 20
147.5939971735406
 30
0.0
 10
105.702993539206
 20
147.5887001873008
 30
0.0
 10
105.7130351244956
 20
147.583963376764
 30
0.0
 10
105.7226532214102
 20
147.5782350445522
 30
0.0
 10
105.731218062389
 20
147.5712009825241
 30
0.0
 10
105.7393565464601
 20
147.5645170753828
 30
0.0
 10
105.7465440265318
 20
147.5566542009689
 30
0.0
 10
105.7526687003629
 20
147.5480568734642
 30
0.0
 10
105.758894454678
 20
147.5393176572577
 30
0.0
 10
105.7640220325537
 20
147.5298195453566
 30
0.0
 10
105.7679099431056
 20
147.5198323502247
 30
0.0
 10
105.7721414783229
 20
147.5089624581928
 30
0.0
 10
105.774904531822
 20
147.497513209292
 30
0.0
 10
105.7763772999185
 20
147.4859629220206
 30
0.0
 10
105.7780457574855
 20
147.4728779263314
 30
0.0
 10
105.7780582644411
 20
147.4596632581307
 30
0.0
 10
105.7780707714402
 20
147.4464485891304
 30
0.0
 10
105.77811851644
 20
147.4335938171301
 30
0.0
 10
105.7781662610418
 20
147.420739045276
 30
0.0
 10
105.7763773003055
 20
147.4080632370968
 30
0.0
 10
105.7747959650857
 20
147.3968585742298
 30
0.0
 10
105.7717795179878
 20
147.3857937448423
 30
0.0
 10
105.7673454527825
 20
147.375322790359
 30
0.0
 10
105.763149270999
 20
147.3654135927212
 30
0.0
 10
105.7576834986403
 20
147.3560362576324
 30
0.0
 10
105.7509752290286
 20
147.3476627574003
 30
0.0
 10
105.7443084713602
 20
147.3393410738484
 30
0.0
 10
105.7364145464375
 20
147.3320108397816
 30
0.0
 10
105.7278311192512
 20
147.3256476286015
 30
0.0
 10
105.7183862062776
 20
147.3186457662303
 30
0.0
 10
105.7081064400148
 20
147.312814780707
 30
0.0
 10
105.6973486340232
 20
147.3081484241532
 30
0.0
 10
105.6853823124568
 20
147.3029578561951
 30
0.0
 10
105.6728245138174
 20
147.2992082800432
 30
0.0
 10
105.6600922633211
 20
147.2962941244297
 30
0.0
 10
105.645402974578
 20
147.2929320421918
 30
0.0
 10
105.6304814833913
 20
147.290681938313
 30
0.0
 10
105.6154975160948
 20
147.2895202390999
 30
0.0
 10
105.598265449509
 20
147.288184245915
 30
0.0
 10
105.5809507534337
 20
147.2882877521395
 30
0.0
 10
105.5636360574329
 20
147.2883912581394
 30
0.0
 10
105.5636360574329
 20
147.2883912581394
 30
0.0
 10
104.4983708784329
 20
147.2883912581869
 30
0.0
 10
104.4983708784329
 20
147.2883912581869
 30
0.0
  0
ENDBLK
  5
59
330
56
100
AcDbEntity
  8
0
100
AcDbBlockEnd
  0
BLOCK
  5
5D
330
5B
100
AcDbEntity
  8
0
100
AcDbBlockBegin
  2
block 6
 70
     0
 10
0.0
 20
0.0
 30
0.0
  3
block 6
  1

  0
SPLINE
  5
5F
330
5B
100
AcDbEntity
  8
0
 62
     7
420
 16777215
370
     5
100
AcDbSpline
210
0.0
220
0.0
230
1.0
 70
    11
 71
     3
 72
    92
 73
    88
 74
     0
 42
0.0000000001
 43
0.0000000001
 12
1.0
 22
0.0
 32
0.0
 13
1.0
 23
0.0
 33
0.0
 40
0.0
 40
0.0
 40
0.0
 40
0.0
 40
1.0
 40
1.0
 40
1.0
 40
2.0
 40
2.0
 40
2.0
 40
3.0
 40
3.0
 40
3.0
 40
4.0
 40
4.0
 40
4.0
 40
5.0
 40
5.0
 40
5.0
 40
6.0
 40
6.0
 40
6.0
 40
7.0
 40
7.0
 40
7.0
 40
8.0
 40
8.0
 40
8.0
 40
9.0
 40
9.0
 40
9.0
 40
10.0
 40
10.0
 40
10.0
 40
11.0
 40
11.0
 40
11.0
 40
12.0
 40
12.0
 40
12.0
 40
13.0
 40
13.0
 40
13.0
 40
14.0
 40
14.0
 40
14.0
 40
15.0
 40
15.0
 40
15.0
 40
16.0
 40
16.0
 40
16.0
 40
17.0
 40
17.0
 40
17.0
 40
18.0
 40
18.0
 40
18.0
 40
19.0
 40
19.0
 40
19.0
 40
20.0
 40
20.0
 40
20.0
 40
21.0
 40
21.0
 40
21.0
 40
22.0
 40
22.0
 40
22.0
 40
23.0
 40
23.0
 40
23.0
 40
24.0
 40
24.0
 40
24.0
 40
25.0
 40
25.0
 40
25.0
 40
26.0
 40
26.0
 40
26.0
 40
27.0
 40
27.0
 40
27.0
 40
28.0
 40
28.0
 40
28.0
 40
29.0
 40
29.0
 40
29.0
 40
29.0
 10
103.4518055484999
 20
148.7775171152345
 30
0.0
 10
103.4616559915005
 20
148.7886035492342
 30
0.0
 10
103.4715064337477
 20
148.7996899841756
 30
0.0
 10
103.480594562846
 20
148.8113865433856
 30
0.0
 10
103.4898136515468
 20
148.8232516495793
 30
0.0
 10
103.4982482989994
 20
148.8357445904677
 30
0.0
 10
103.5059966342288
 20
148.8486429143855
 30
0.0
 10
103.5138935095103
 20
148.8617885066066
 30
0.0
 10
103.5210775063414
 20
148.8753551736927
 30
0.0
 10
103.5274472719363
 20
148.8892862280059
 30
0.0
 10
103.5340143578946
 20
148.9036488336313
 30
0.0
 10
103.5397159853292
 20
148.918398751873
 30
0.0
 10
103.5449464764077
 20
148.9333164846701
 30
0.0
 10
103.5502886265411
 20
148.9485526770402
 30
0.0
 10
103.5551393102366
 20
148.9639639253583
 30
0.0
 10
103.5590587378971
 20
148.9796047027524
 30
0.0
 10
103.5630219208725
 20
148.9954200890935
 30
0.0
 10
103.5660329392261
 20
149.0114701579037
 30
0.0
 10
103.5686550760858
 20
149.0275863923022
 30
0.0
 10
103.5713377576651
 20
149.0440747479689
 30
0.0
 10
103.573613391999
 20
149.0606323600051
 30
0.0
 10
103.5748644711528
 20
149.0772615539185
 30
0.0
 10
103.5761489077984
 20
149.0943341316054
 30
0.0
 10
103.5763534255153
 20
149.111482159229
 30
0.0
 10
103.576557942516
 20
149.1286301862291
 30
0.0
 10
103.5760912185164
 20
149.149554385229
 30
0.0
 10
103.575624495247
 20
149.1704785833875
 30
0.0
 10
103.5737354902269
 20
149.1912886288393
 30
0.0
 10
103.5718961770449
 20
149.2115512488562
 30
0.0
 10
103.5687084264909
 20
149.2317056429353
 30
0.0
 10
103.5647036427976
 20
149.2516891090078
 30
0.0
 10
103.5608880868553
 20
149.2707283477172
 30
0.0
 10
103.5563308839974
 20
149.2896124296485
 30
0.0
 10
103.5505913809558
 20
149.3081381556096
 30
0.0
 10
103.5448824801622
 20
149.3265651049251
 30
0.0
 10
103.5380038533002
 20
149.3446375094925
 30
0.0
 10
103.5302697239868
 20
149.362329240527
 30
0.0
 10
103.5228479720531
 20
149.3793064119346
 30
0.0
 10
103.5146384286586
 20
149.3959330392172
 30
0.0
 10
103.5054321434494
 20
149.4120044022839
 30
0.0
 10
103.4967900041975
 20
149.427090938757
 30
0.0
 10
103.487269537715
 20
149.4416881773256
 30
0.0
 10
103.476643129396
 20
149.4554701683003
 30
0.0
 10
103.466380482823
 20
149.4687803760582
 30
0.0
 10
103.4550863153462
 20
149.4813301957849
 30
0.0
 10
103.4427737013915
 20
149.492726539037
 30
0.0
 10
103.4308079915151
 20
149.5038017938543
 30
0.0
 10
103.4178804155329
 20
149.5137876542362
 30
0.0
 10
103.4049528395337
 20
149.5237735152365
 30
0.0
 10
103.3944951205336
 20
149.5308585482369
 30
0.0
 10
103.38403740073
 20
149.537943582118
 30
0.0
 10
103.372776883322
 20
149.5435306813595
 30
0.0
 10
103.361701622013
 20
149.5490258626045
 30
0.0
 10
103.3498497607907
 20
149.5530719913019
 30
0.0
 10
103.3377784739447
 20
149.5559494719089
 30
0.0
 10
103.3238695748985
 20
149.5592649914372
 30
0.0
 10
103.3096693589321
 20
149.5610289740121
 30
0.0
 10
103.2954416889671
 20
149.5621588672284
 30
0.0
 10
103.2775704117943
 20
149.5635781182295
 30
0.0
 10
103.2596558185349
 20
149.5639969222432
 30
0.0
 10
103.2417412255353
 20
149.5644157262438
 30
0.0
 10
103.2417412255353
 20
149.5644157262438
 30
0.0
 10
102.8130261495359
 20
149.5644157262631
 30
0.0
 10
102.8130261495359
 20
149.5644157262631
 30
0.0
 10
102.8130261495359
 20
149.5644157262631
 30
0.0
 10
102.8130261494967
 20
148.6928435442629
 30
0.0
 10
102.8130261494967
 20
148.6928435442629
 30
0.0
 10
102.8130261494967
 20
148.6928435442629
 30
0.0
 10
103.2181064944966
 20
148.6928435442449
 30
0.0
 10
103.2181064944966
 20
148.6928435442449
 30
0.0
 10
103.2324184974966
 20
148.6927794762444
 30
0.0
 10
103.2467304997759
 20
148.6927154077754
 30
0.0
 10
103.2610077703417
 20
148.6934080352212
 30
0.0
 10
103.2736435864456
 20
148.6940210314515
 30
0.0
 10
103.2862521979452
 20
148.6952267313343
 30
0.0
 10
103.2988286319329
 20
148.6967949781431
 30
0.0
 10
103.3100165784957
 20
148.6981900843808
 30
0.0
 10
103.3211790603807
 20
148.6998721034439
 30
0.0
 10
103.3321335694725
 20
148.7024398825938
 30
0.0
 10
103.3415143315878
 20
148.7046387693872
 30
0.0
 10
103.3507425841918
 20
148.7074871970943
 30
0.0
 10
103.3597936023132
 20
148.710907239887
 30
0.0
 10
103.3770196637446
 20
148.7174163272024
 30
0.0
 10
103.3936037395044
 20
148.7259959410312
 30
0.0
 10
103.4083397825281
 20
148.7368738012127
 30
0.0
 10
103.4242677595149
 20
148.7486315238492
 30
0.0
 10
103.438036654499
 20
148.7630743192353
 30
0.0
 10
103.4518055484999
 20
148.7775171152345
 30
0.0
  0
HATCH
  5
60
330
5B
100
AcDbEntity
  8
0
 62
     7
420
 16777215
100
AcDbHatch
 10
0.0
 20
0.0
 30
0.0
210
0.0
220
0.0
230
1.0
  2
SOLID
 70
     1
 71
     0
 91
        1
 92
        1
 93
        1
 72
     4
 94
        3
 73
     0
 74
     1
 95
       92
 96
       88
 40
0.0
 40
0.0
 40
0.0
 40
0.0
 40
1.0
 40
1.0
 40
1.0
 40
2.0
 40
2.0
 40
2.0
 40
3.0
 40
3.0
 40
3.0
 40
4.0
 40
4.0
 40
4.0
 40
5.0
 40
5.0
 40
5.0
 40
6.0
 40
6.0
 40
6.0
 40
7.0
 40
7.0
 40
7.0
 40
8.0
 40
8.0
 40
8.0
 40
9.0
 40
9.0
 40
9.0
 40
10.0
 40
10.0
 40
10.0
 40
11.0
 40
11.0
 40
11.0
 40
12.0
 40
12.0
 40
12.0
 40
13.0
 40
13.0
 40
13.0
 40
14.0
 40
14.0
 40
14.0
 40
15.0
 40
15.0
 40
15.0
 40
16.0
 40
16.0
 40
16.0
 40
17.0
 40
17.0
 40
17.0
 40
18.0
 40
18.0
 40
18.0
 40
19.0
 40
19.0
 40
19.0
 40
20.0
 40
20.0
 40
20.0
 40
21.0
 40
21.0
 40
21.0
 40
22.0
 40
22.0
 40
22.0
 40
23.0
 40
23.0
 40
23.0
 40
24.0
 40
24.0
 40
24.0
 40
25.0
 40
25.0
 40
25.0
 40
26.0
 40
26.0
 40
26.0
 40
27.0
 40
27.0
 40
27.0
 40
28.0
 40
28.0
 40
28.0
 40
29.0
 40
29.0
 40
29.0
 40
29.0
 10
103.4518055484999
 20
148.7775171152345
 10
103.4616559915005
 20
148.7886035492342
 10
103.4715064337477
 20
148.7996899841756
 10
103.480594562846
 20
148.8113865433856
 10
103.4898136515468
 20
148.8232516495793
 10
103.4982482989994
 20
148.8357445904677
 10
103.5059966342288
 20
148.8486429143855
 10
103.5138935095103
 20
148.8617885066066
 10
103.5210775063414
 20
148.8753551736927
 10
103.5274472719363
 20
148.8892862280059
 10
103.5340143578946
 20
148.9036488336313
 10
103.5397159853292
 20
148.918398751873
 10
103.5449464764077
 20
148.9333164846701
 10
103.5502886265411
 20
148.9485526770402
 10
103.5551393102366
 20
148.9639639253583
 10
103.5590587378971
 20
148.9796047027524
 10
103.5630219208725
 20
148.9954200890935
 10
103.5660329392261
 20
149.0114701579037
 10
103.5686550760858
 20
149.0275863923022
 10
103.5713377576651
 20
149.0440747479689
 10
103.573613391999
 20
149.0606323600051
 10
103.5748644711528
 20
149.0772615539185
 10
103.5761489077984
 20
149.0943341316054
 10
103.5763534255153
 20
149.111482159229
 10
103.576557942516
 20
149.1286301862291
 10
103.5760912185164
 20
149.149554385229
 10
103.575624495247
 20
149.1704785833875
 10
103.5737354902269
 20
149.1912886288393
 10
103.5718961770449
 20
149.2115512488562
 10
103.5687084264909
 20
149.2317056429353
 10
103.5647036427976
 20
149.2516891090078
 10
103.5608880868553
 20
149.2707283477172
 10
103.5563308839974
 20
149.2896124296485
 10
103.5505913809558
 20
149.3081381556096
 10
103.5448824801622
 20
149.3265651049251
 10
103.5380038533002
 20
149.3446375094925
 10
103.5302697239868
 20
149.362329240527
 10
103.5228479720531
 20
149.3793064119346
 10
103.5146384286586
 20
149.3959330392172
 10
103.5054321434494
 20
149.4120044022839
 10
103.4967900041975
 20
149.427090938757
 10
103.487269537715
 20
149.4416881773256
 10
103.476643129396
 20
149.4554701683003
 10
103.466380482823
 20
149.4687803760582
 10
103.4550863153462
 20
149.4813301957849
 10
103.4427737013915
 20
149.492726539037
 10
103.4308079915151
 20
149.5038017938543
 10
103.4178804155329
 20
149.5137876542362
 10
103.4049528395337
 20
149.5237735152365
 10
103.3944951205336
 20
149.5308585482369
 10
103.38403740073
 20
149.537943582118
 10
103.372776883322
 20
149.5435306813595
 10
103.361701622013
 20
149.5490258626045
 10
103.3498497607907
 20
149.5530719913019
 10
103.3377784739447
 20
149.5559494719089
 10
103.3238695748985
 20
149.5592649914372
 10
103.3096693589321
 20
149.5610289740121
 10
103.2954416889671
 20
149.5621588672284
 10
103.2775704117943
 20
149.5635781182295
 10
103.2596558185349
 20
149.5639969222432
 10
103.2417412255353
 20
149.5644157262438
 10
103.2417412255353
 20
149.5644157262438
 10
102.8130261495359
 20
149.5644157262631
 10
102.8130261495359
 20
149.5644157262631
 10
102.8130261495359
 20
149.5644157262631
 10
102.8130261494967
 20
148.6928435442629
 10
102.8130261494967
 20
148.6928435442629
 10
102.8130261494967
 20
148.6928435442629
 10
103.2181064944966
 20
148.6928435442449
 10
103.2181064944966
 20
148.6928435442449
 10
103.2324184974966
 20
148.6927794762444
 10
103.2467304997759
 20
148.6927154077754
 10
103.2610077703417
 20
148.6934080352212
 10
103.2736435864456
 20
148.6940210314515
 10
103.2862521979452
 20
148.6952267313343
 10
103.2988286319329
 20
148.6967949781431
 10
103.3100165784957
 20
148.6981900843808
 10
103.3211790603807
 20
148.6998721034439
 10
103.3321335694725
 20
148.7024398825938
 10
103.3415143315878
 20
148.7046387693872
 10
103.3507425841918
 20
148.7074871970943
 10
103.3597936023132
 20
148.710907239887
 10
103.3770196637446
 20
148.7174163272024
 10
103.3936037395044
 20
148.7259959410312
 10
103.4083397825281
 20
148.7368738012127
 10
103.4242677595149
 20
148.7486315238492
 10
103.438036654499
 20
148.7630743192353
 10
103.4518055484999
 20
148.7775171152345
 97
        0
 97
        0
 75
     2
 76
     1
 98
        0
  0
ENDBLK
  5
5E
330
5B
100
AcDbEntity
  8
0
100
AcDbBlockEnd
  0
ENDSEC
  0
SECTION
  2
ENTITIES
  0
INSERT
  5
41
330
1F
100
AcDbEntity
  8
0
100
AcDbBlockReference
  2
block 2
 10
0.0
 20
0.0
 30
0.0
  0
INSERT
  5
4D
330
1F
100
AcDbEntity
  8
0
100
AcDbBlockReference
  2
block 3
 10
0.0
 20
0.0
 30
0.0
  0
INSERT
  5
52
330
1F
100
AcDbEntity
  8
0
100
AcDbBlockReference
  2
block 4
 10
0.0
 20
0.0
 30
0.0
  0
INSERT
  5
57
330
1F
100
AcDbEntity
  8
0
100
AcDbBlockReference
  2
block 5
 10
0.0
 20
0.0
 30
0.0
  0
INSERT
  5
5C
330
1F
100
AcDbEntity
  8
0
100
AcDbBlockReference
  2
block 6
 10
0.0
 20
0.0
 30
0.0
  0
ENDSEC
  0
SECTION
  2
OBJECTS
  0
DICTIONARY
  5
C
330
0
100
AcDbDictionary
281
     1
  3
ACAD_GROUP
350
D
  3
ACAD_LAYOUT
350
1A
  3
ACAD_MATERIAL
350
3B
  3
ACAD_MLEADERSTYLE
350
62
  3
ACAD_MLINESTYLE
350
17
  3
ACAD_PLOTSETTINGS
350
19
  3
ACAD_PLOTSTYLENAME
350
E
  3
ACAD_TABLESTYLE
350
61
  3
ACAD_VISUALSTYLE
350
2A
  0
SUN
  5
3F
330
29
100
AcDbSun
 90
        1
290
     0
 63
     7
421
 16777215
 40
1.0
291
     1
 91
  2455826
 92
 54000000
292
     0
 70
     2
 71
   256
280
     1
  0
DICTIONARY
  5
D
102
{ACAD_REACTORS
330
C
102
}
330
C
100
AcDbDictionary
281
     1
  0
DICTIONARY
  5
1A
102
{ACAD_REACTORS
330
C
102
}
330
C
100
AcDbDictionary
281
     1
  3
Layout1
350
1E
  3
Layout2
350
26
  3
Model
350
22
  0
DICTIONARY
  5
3B
102
{ACAD_REACTORS
330
C
102
}
330
C
100
AcDbDictionary
281
     1
  3
ByBlock
350
3D
  3
ByLayer
350
3C
  3
Global
350
3E
  0
DICTIONARY
  5
62
102
{ACAD_REACTORS
330
C
102
}
330
C
100
AcDbDictionary
281
     1
  0
DICTIONARY
  5
17
102
{ACAD_REACTORS
330
C
102
}
330
C
100
AcDbDictionary
281
     1
  3
Standard
350
18
  0
DICTIONARY
  5
19
102
{ACAD_REACTORS
330
C
102
}
330
C
100
AcDbDictionary
281
     1
  0
ACDBDICTIONARYWDFLT
  5
E
102
{ACAD_REACTORS
330
C
102
}
330
C
100
AcDbDictionary
281
     1
  3
Normal
350
F
100
AcDbDictionaryWithDefault
340
F
  0
DICTIONARY
  5
61
102
{ACAD_REACTORS
330
C
102
}
330
C
100
AcDbDictionary
281
     1
  0
DICTIONARY
  5
2A
102
{ACAD_REACTORS
330
C
102
}
330
C
100
AcDbDictionary
281
     1
  3
2dWireframe
350
2F
  3
3D Hidden
350
31
  3
3dWireframe
350
30
  3
Basic
350
32
  3
Brighten
350
36
  3
ColorChange
350
3A
  3
Conceptual
350
34
  3
Dim
350
35
  3
Facepattern
350
39
  3
Flat
350
2B
  3
FlatWithEdges
350
2C
  3
Gouraud
350
2D
  3
GouraudWithEdges
350
2E
  3
Linepattern
350
38
  3
Realistic
350
33
  3
Thicken
350
37
  0
LAYOUT
  5
1E
102
{ACAD_REACTORS
330
1A
102
}
330
1A
100
AcDbPlotSettings
  1

  2
none_device
  4

  6

 40
0.0
 41
0.0
 42
0.0
 43
0.0
 44
0.0
 45
0.0
 46
0.0
 47
0.0
 48
0.0
 49
0.0
140
0.0
141
0.0
142
1.0
143
1.0
 70
   688
 72
     0
 73
     0
 74
     5
  7

 75
    16
 76
     0
 77
     2
 78
   300
147
1.0
148
0.0
149
0.0
100
AcDbLayout
  1
Layout1
 70
     1
 71
     1
 10
0.0
 20
0.0
 11
12.0
 21
9.0
 12
0.0
 22
0.0
 32
0.0
 14
1.000000000000000E+20
 24
1.000000000000000E+20
 34
1.000000000000000E+20
 15
-1.000000000000000E+20
 25
-1.000000000000000E+20
 35
-1.000000000000000E+20
146
0.0
 13
0.0
 23
0.0
 33
0.0
 16
1.0
 26
0.0
 36
0.0
 17
0.0
 27
1.0
 37
0.0
 76
     0
330
1B
  0
LAYOUT
  5
26
102
{ACAD_REACTORS
330
1A
102
}
330
1A
100
AcDbPlotSettings
  1

  2
none_device
  4

  6

 40
0.0
 41
0.0
 42
0.0
 43
0.0
 44
0.0
 45
0.0
 46
0.0
 47
0.0
 48
0.0
 49
0.0
140
0.0
141
0.0
142
1.0
143
1.0
 70
   688
 72
     0
 73
     0
 74
     5
  7

 75
    16
 76
     0
 77
     2
 78
   300
147
1.0
148
0.0
149
0.0
100
AcDbLayout
  1
Layout2
 70
     1
 71
     2
 10
0.0
 20
0.0
 11
0.0
 21
0.0
 12
0.0
 22
0.0
 32
0.0
 14
0.0
 24
0.0
 34
0.0
 15
0.0
 25
0.0
 35
0.0
146
0.0
 13
0.0
 23
0.0
 33
0.0
 16
1.0
 26
0.0
 36
0.0
 17
0.0
 27
1.0
 37
0.0
 76
     0
330
23
  0
LAYOUT
  5
22
102
{ACAD_REACTORS
330
1A
102
}
330
1A
100
AcDbPlotSettings
  1

  2
none_device
  4

  6

 40
0.0
 41
0.0
 42
0.0
 43
0.0
 44
0.0
 45
0.0
 46
0.0
 47
0.0
 48
0.0
 49
0.0
140
0.0
141
0.0
142
1.0
143
1.0
 70
  1712
 72
     0
 73
     0
 74
     0
  7

 75
     0
 76
     0
 77
     2
 78
   300
147
1.0
148
0.0
149
0.0
100
AcDbLayout
  1
Model
 70
     1
 71
     0
 10
0.0
 20
0.0
 11
12.0
 21
9.0
 12
0.0
 22
0.0
 32
0.0
 14
1.000000000000000E+20
 24
1.000000000000000E+20
 34
1.000000000000000E+20
 15
-1.000000000000000E+20
 25
-1.000000000000000E+20
 35
-1.000000000000000E+20
146
0.0
 13
0.0
 23
0.0
 33
0.0
 16
1.0
 26
0.0
 36
0.0
 17
0.0
 27
1.0
 37
0.0
 76
     0
330
1F
331
29
  0
MATERIAL
  5
3D
102
{ACAD_REACTORS
330
3B
102
}
330
3B
100
AcDbMaterial
  1
ByBlock
 72
     1
 94
      127
  0
MATERIAL
  5
3C
102
{ACAD_REACTORS
330
3B
102
}
330
3B
100
AcDbMaterial
  1
ByLayer
 72
     1
 94
      127
  0
MATERIAL
  5
3E
102
{ACAD_REACTORS
330
3B
102
}
330
3B
100
AcDbMaterial
  1
Global
 72
     1
 94
      127
  0
MLINESTYLE
  5
18
102
{ACAD_REACTORS
330
17
102
}
330
17
100
AcDbMlineStyle
  2
Standard
 70
     0
  3

 62
   256
 51
90.0
 52
90.0
 71
     2
 49
0.5
 62
   256
  6
BYLAYER
 49
-0.5
 62
   256
  6
BYLAYER
  0
ACDBPLACEHOLDER
  5
F
102
{ACAD_REACTORS
330
E
102
}
330
E
  0
VISUALSTYLE
  5
2F
102
{ACAD_REACTORS
330
2A
102
}
330
2A
100
AcDbVisualStyle
  2
2dWireframe
 70
     4
177
     2
291
     0
 71
     0
176
     1
 72
     2
176
     1
 73
     0
176
     1
 90
        0
176
     1
 40
-0.6
176
     1
 41
-30.0
176
     1
 62
     5
 63
     7
421
 16777215
176
     1
 74
     1
176
     1
 91
        4
176
     1
 64
     7
176
     1
 65
   257
176
     1
 75
     1
176
     1
175
     1
176
     1
 42
1.0
176
     1
 92
        0
176
     1
 66
   257
176
     1
 43
1.0
176
     1
 76
     1
176
     1
 77
     6
176
     1
 78
     2
176
     1
 67
     7
176
     1
 79
     5
176
     1
170
     0
176
     1
171
     0
176
     1
290
     0
176
     1
 93
        1
176
     1
 44
0.0
176
     1
173
     0
176
     1
  0
VISUALSTYLE
  5
31
102
{ACAD_REACTORS
330
2A
102
}
330
2A
100
AcDbVisualStyle
  2
3D Hidden
 70
     6
177
     2
291
     0
 71
     1
176
     1
 72
     2
176
     1
 73
     2
176
     1
 90
        0
176
     1
 40
-0.6
176
     1
 41
-30.0
176
     1
 62
     5
 63
     7
421
 16777215
176
     1
 74
     2
176
     1
 91
        2
176
     1
 64
     7
176
     1
 65
   257
176
     1
 75
     2
176
     1
175
     1
176
     1
 42
40.0
176
     1
 92
        0
176
     1
 66
   257
176
     1
 43
1.0
176
     1
 76
     1
176
     1
 77
     6
176
     1
 78
     2
176
     1
 67
     7
176
     1
 79
     3
176
     1
170
     0
176
     1
171
     0
176
     1
290
     0
176
     1
 93
        1
176
     1
 44
0.0
176
     1
173
     0
176
     1
  0
VISUALSTYLE
  5
30
102
{ACAD_REACTORS
330
2A
102
}
330
2A
100
AcDbVisualStyle
  2
3dWireframe
 70
     5
177
     2
291
     0
 71
     0
176
     1
 72
     2
176
     1
 73
     0
176
     1
 90
        0
176
     1
 40
-0.6
176
     1
 41
-30.0
176
     1
 62
     5
 63
     7
421
 16777215
176
     1
 74
     1
176
     1
 91
        4
176
     1
 64
     7
176
     1
 65
   257
176
     1
 75
     1
176
     1
175
     1
176
     1
 42
1.0
176
     1
 92
        0
176
     1
 66
   257
176
     1
 43
1.0
176
     1
 76
     1
176
     1
 77
     6
176
     1
 78
     2
176
     1
 67
     7
176
     1
 79
     5
176
     1
170
     0
176
     1
171
     0
176
     1
290
     0
176
     1
 93
        1
176
     1
 44
0.0
176
     1
173
     0
176
     1
  0
VISUALSTYLE
  5
32
102
{ACAD_REACTORS
330
2A
102
}
330
2A
100
AcDbVisualStyle
  2
Basic
 70
     7
177
     2
291
     1
 71
     1
176
     1
 72
     0
176
     1
 73
     1
176
     1
 90
        0
176
     1
 40
-0.6
176
     1
 41
-30.0
176
     1
 62
     5
 63
     7
421
 16777215
176
     1
 74
     0
176
     1
 91
        4
176
     1
 64
     7
176
     1
 65
   257
176
     1
 75
     1
176
     1
175
     1
176
     1
 42
1.0
176
     1
 92
        8
176
     1
 66
     7
176
     1
 43
1.0
176
     1
 76
     1
176
     1
 77
     6
176
     1
 78
     2
176
     1
 67
     7
176
     1
 79
     5
176
     1
170
     0
176
     1
171
     0
176
     1
290
     0
176
     1
 93
        1
176
     1
 44
0.0
176
     1
173
     0
176
     1
  0
VISUALSTYLE
  5
36
102
{ACAD_REACTORS
330
2A
102
}
330
2A
100
AcDbVisualStyle
  2
Brighten
 70
    12
177
     2
291
     1
 71
     2
176
     1
 72
     2
176
     1
 73
     0
176
     1
 90
        0
176
     1
 40
-0.6
176
     1
 41
-30.0
176
     1
 62
     5
 63
     7
421
 16777215
176
     1
 74
     1
176
     1
 91
        4
176
     1
 64
     7
176
     1
 65
   257
176
     1
 75
     1
176
     1
175
     1
176
     1
 42
1.0
176
     1
 92
        8
176
     1
 66
     7
176
     1
 43
1.0
176
     1
 76
     1
176
     1
 77
     6
176
     1
 78
     2
176
     1
 67
     7
176
     1
 79
     5
176
     1
170
     0
176
     1
171
     0
176
     1
290
     0
176
     1
 93
        1
176
     1
 44
50.0
176
     1
173
     0
176
     1
  0
VISUALSTYLE
  5
3A
102
{ACAD_REACTORS
330
2A
102
}
330
2A
100
AcDbVisualStyle
  2
ColorChange
 70
    16
177
     2
291
     1
 71
     2
176
     1
 72
     2
176
     1
 73
     3
176
     1
 90
        0
176
     1
 40
-0.6
176
     1
 41
-30.0
176
     1
 62
     5
 63
     8
421
  8421504
176
     1
 74
     1
176
     1
 91
        4
176
     1
 64
     7
176
     1
 65
   257
176
     1
 75
     1
176
     1
175
     1
176
     1
 42
1.0
176
     1
 92
        8
176
     1
 66
     8
424
  8421504
176
     1
 43
1.0
176
     1
 76
     1
176
     1
 77
     6
176
     1
 78
     2
176
     1
 67
     7
176
     1
 79
     5
176
     1
170
     0
176
     1
171
     0
176
     1
290
     0
176
     1
 93
        1
176
     1
 44
0.0
176
     1
173
     0
176
     1
  0
VISUALSTYLE
  5
34
102
{ACAD_REACTORS
330
2A
102
}
330
2A
100
AcDbVisualStyle
  2
Conceptual
 70
     9
177
     2
291
     0
 71
     3
176
     1
 72
     2
176
     1
 73
     0
176
     1
 90
        0
176
     1
 40
-0.6
176
     1
 41
-30.0
176
     1
 62
     5
 63
     7
421
 16777215
176
     1
 74
     2
176
     1
 91
        2
176
     1
 64
     7
176
     1
 65
   257
176
     1
 75
     1
176
     1
175
     1
176
     1
 42
40.0
176
     1
 92
        8
176
     1
 66
     7
176
     1
 43
1.0
176
     1
 76
     1
176
     1
 77
     6
176
     1
 78
     2
176
     1
 67
     7
176
     1
 79
     3
176
     1
170
     0
176
     1
171
     0
176
     1
290
     0
176
     1
 93
        1
176
     1
 44
0.0
176
     1
173
     0
176
     1
  0
VISUALSTYLE
  5
35
102
{ACAD_REACTORS
330
2A
102
}
330
2A
100
AcDbVisualStyle
  2
Dim
 70
    11
177
     2
291
     1
 71
     2
176
     1
 72
     2
176
     1
 73
     0
176
     1
 90
        0
176
     1
 40
-0.6
176
     1
 41
-30.0
176
     1
 62
     5
 63
     7
421
 16777215
176
     1
 74
     1
176
     1
 91
        4
176
     1
 64
     7
176
     1
 65
   257
176
     1
 75
     1
176
     1
175
     1
176
     1
 42
1.0
176
     1
 92
        8
176
     1
 66
     7
176
     1
 43
1.0
176
     1
 76
     1
176
     1
 77
     6
176
     1
 78
     2
176
     1
 67
     7
176
     1
 79
     5
176
     1
170
     0
176
     1
171
     0
176
     1
290
     0
176
     1
 93
        1
176
     1
 44
-50.0
176
     1
173
     0
176
     1
  0
VISUALSTYLE
  5
39
102
{ACAD_REACTORS
330
2A
102
}
330
2A
100
AcDbVisualStyle
  2
Facepattern
 70
    15
177
     2
291
     1
 71
     2
176
     1
 72
     2
176
     1
 73
     0
176
     1
 90
        0
176
     1
 40
-0.6
176
     1
 41
-30.0
176
     1
 62
     5
 63
     7
421
 16777215
176
     1
 74
     1
176
     1
 91
        4
176
     1
 64
     7
176
     1
 65
   257
176
     1
 75
     1
176
     1
175
     1
176
     1
 42
1.0
176
     1
 92
        8
176
     1
 66
     7
176
     1
 43
1.0
176
     1
 76
     1
176
     1
 77
     6
176
     1
 78
     2
176
     1
 67
     7
176
     1
 79
     5
176
     1
170
     0
176
     1
171
     0
176
     1
290
     0
176
     1
 93
        1
176
     1
 44
0.0
176
     1
173
     0
176
     1
  0
VISUALSTYLE
  5
2B
102
{ACAD_REACTORS
330
2A
102
}
330
2A
100
AcDbVisualStyle
  2
Flat
 70
     0
177
     2
291
     1
 71
     2
176
     1
 72
     1
176
     1
 73
     1
176
     1
 90
        2
176
     1
 40
-0.6
176
     1
 41
30.0
176
     1
 62
     5
 63
     7
421
 16777215
176
     1
 74
     0
176
     1
 91
        4
176
     1
 64
     7
176
     1
 65
   257
176
     1
 75
     1
176
     1
175
     1
176
     1
 42
1.0
176
     1
 92
        8
176
     1
 66
     7
176
     1
 43
1.0
176
     1
 76
     1
176
     1
 77
     6
176
     1
 78
     2
176
     1
 67
     7
176
     1
 79
     5
176
     1
170
     0
176
     1
171
     0
176
     1
290
     0
176
     1
 93
       13
176
     1
 44
0.0
176
     1
173
     0
176
     1
  0
VISUALSTYLE
  5
2C
102
{ACAD_REACTORS
330
2A
102
}
330
2A
100
AcDbVisualStyle
  2
FlatWithEdges
 70
     1
177
     2
291
     1
 71
     2
176
     1
 72
     1
176
     1
 73
     1
176
     1
 90
        2
176
     1
 40
-0.6
176
     1
 41
30.0
176
     1
 62
     5
 63
     7
421
 16777215
176
     1
 74
     1
176
     1
 91
        4
176
     1
 64
     7
176
     1
 65
   257
176
     1
 75
     1
176
     1
175
     1
176
     1
 42
1.0
176
     1
 92
        0
176
     1
 66
   257
176
     1
 43
1.0
176
     1
 76
     1
176
     1
 77
     6
176
     1
 78
     2
176
     1
 67
     7
176
     1
 79
     5
176
     1
170
     0
176
     1
171
     0
176
     1
290
     0
176
     1
 93
       13
176
     1
 44
0.0
176
     1
173
     0
176
     1
  0
VISUALSTYLE
  5
2D
102
{ACAD_REACTORS
330
2A
102
}
330
2A
100
AcDbVisualStyle
  2
Gouraud
 70
     2
177
     2
291
     1
 71
     2
176
     1
 72
     2
176
     1
 73
     1
176
     1
 90
        2
176
     1
 40
-0.6
176
     1
 41
30.0
176
     1
 62
     5
 63
     7
421
 16777215
176
     1
 74
     0
176
     1
 91
        4
176
     1
 64
     7
176
     1
 65
   257
176
     1
 75
     1
176
     1
175
     1
176
     1
 42
1.0
176
     1
 92
        0
176
     1
 66
     7
176
     1
 43
1.0
176
     1
 76
     1
176
     1
 77
     6
176
     1
 78
     2
176
     1
 67
     7
176
     1
 79
     5
176
     1
170
     0
176
     1
171
     0
176
     1
290
     0
176
     1
 93
       13
176
     1
 44
0.0
176
     1
173
     0
176
     1
  0
VISUALSTYLE
  5
2E
102
{ACAD_REACTORS
330
2A
102
}
330
2A
100
AcDbVisualStyle
  2
GouraudWithEdges
 70
     3
177
     2
291
     1
 71
     2
176
     1
 72
     2
176
     1
 73
     1
176
     1
 90
        2
176
     1
 40
-0.6
176
     1
 41
30.0
176
     1
 62
     5
 63
     7
421
 16777215
176
     1
 74
     1
176
     1
 91
        4
176
     1
 64
     7
176
     1
 65
   257
176
     1
 75
     1
176
     1
175
     1
176
     1
 42
1.0
176
     1
 92
        0
176
     1
 66
   257
176
     1
 43
1.0
176
     1
 76
     1
176
     1
 77
     6
176
     1
 78
     2
176
     1
 67
     7
176
     1
 79
     5
176
     1
170
     0
176
     1
171
     0
176
     1
290
     0
176
     1
 93
       13
176
     1
 44
0.0
176
     1
173
     0
176
     1
  0
VISUALSTYLE
  5
38
102
{ACAD_REACTORS
330
2A
102
}
330
2A
100
AcDbVisualStyle
  2
Linepattern
 70
    14
177
     2
291
     1
 71
     2
176
     1
 72
     2
176
     1
 73
     0
176
     1
 90
        0
176
     1
 40
-0.6
176
     1
 41
-30.0
176
     1
 62
     5
 63
     7
421
 16777215
176
     1
 74
     1
176
     1
 91
        4
176
     1
 64
     7
176
     1
 65
   257
176
     1
 75
     7
176
     1
175
     7
176
     1
 42
1.0
176
     1
 92
        8
176
     1
 66
     7
176
     1
 43
1.0
176
     1
 76
     1
176
     1
 77
     6
176
     1
 78
     2
176
     1
 67
     7
176
     1
 79
     5
176
     1
170
     0
176
     1
171
     0
176
     1
290
     0
176
     1
 93
        1
176
     1
 44
0.0
176
     1
173
     0
176
     1
  0
VISUALSTYLE
  5
33
102
{ACAD_REACTORS
330
2A
102
}
330
2A
100
AcDbVisualStyle
  2
Realistic
 70
     8
177
     2
291
     0
 71
     2
176
     1
 72
     2
176
     1
 73
     0
176
     1
 90
        0
176
     1
 40
-0.6
176
     1
 41
-30.0
176
     1
 62
     5
 63
     7
421
 16777215
176
     1
 74
     1
176
     1
 91
        0
176
     1
 64
     7
176
     1
 65
   257
176
     1
 75
     1
176
     1
175
     1
176
     1
 42
1.0
176
     1
 92
        8
176
     1
 66
     8
424
  7895160
176
     1
 43
1.0
176
     1
 76
     1
176
     1
 77
     6
176
     1
 78
     2
176
     1
 67
     7
176
     1
 79
     5
176
     1
170
     0
176
     1
171
     0
176
     1
290
     0
176
     1
 93
       13
176
     1
 44
0.0
176
     1
173
     0
176
     1
  0
VISUALSTYLE
  5
37
102
{ACAD_REACTORS
330
2A
102
}
330
2A
100
AcDbVisualStyle
  2
Thicken
 70
    13
177
     2
291
     1
 71
     2
176
     1
 72
     2
176
     1
 73
     0
176
     1
 90
        0
176
     1
 40
-0.6
176
     1
 41
-30.0
176
     1
 62
     5
 63
     7
421
 16777215
176
     1
 74
     1
176
     1
 91
        4
176
     1
 64
     7
176
     1
 65
   257
176
     1
 75
     1
176
     1
175
     1
176
     1
 42
1.0
176
     1
 92
       12
176
     1
 66
     7
176
     1
 43
1.0
176
     1
 76
     1
176
     1
 77
     6
176
     1
 78
     2
176
     1
 67
     7
176
     1
 79
     5
176
     1
170
     0
176
     1
171
     0
176
     1
290
     0
176
     1
 93
        1
176
     1
 44
0.0
176
     1
173
     0
176
     1
  0
ENDSEC
  0
EOF
