  0
SECTION
  2
HEADER
  9
$ACADVER
  1
AC1024
  9
$ACADMAINTVER
 70
     6
  9
$DWGCODEPAGE
  3
UNDEFINED
  9
$INSBASE
 10
0.0
 20
0.0
 30
0.0
  9
$EXTMIN
 10
1.000000000000000E+20
 20
1.000000000000000E+20
 30
1.000000000000000E+20
  9
$EXTMAX
 10
-1.000000000000000E+20
 20
-1.000000000000000E+20
 30
-1.000000000000000E+20
  9
$LIMMIN
 10
0.0
 20
0.0
  9
$LIMMAX
 10
12.0
 20
9.0
  9
$ORTHOMODE
 70
     0
  9
$REGENMODE
 70
     1
  9
$FILLMODE
 70
     1
  9
$QTEXTMODE
 70
     0
  9
$MIRRTEXT
 70
     1
  9
$LTSCALE
 40
1.0
  9
$ATTMODE
 70
     1
  9
$TEXTSIZE
 40
0.2
  9
$TRACEWID
 40
0.05
  9
$TEXTSTYLE
  7
Standard
  9
$CLAYER
  8
0
  9
$CELTYPE
  6
ByLayer
  9
$CECOLOR
 62
   256
  9
$CELTSCALE
 40
1.0
  9
$DISPSILH
 70
     0
  9
$DIMSCALE
 40
1.0
  9
$DIMASZ
 40
0.18
  9
$DIMEXO
 40
0.0625
  9
$DIMDLI
 40
0.38
  9
$DIMRND
 40
0.0
  9
$DIMDLE
 40
0.0
  9
$DIMEXE
 40
0.18
  9
$DIMTP
 40
0.0
  9
$DIMTM
 40
0.0
  9
$DIMTXT
 40
0.18
  9
$DIMCEN
 40
0.09
  9
$DIMTSZ
 40
0.0
  9
$DIMTOL
 70
     0
  9
$DIMLIM
 70
     0
  9
$DIMTIH
 70
     1
  9
$DIMTOH
 70
     1
  9
$DIMSE1
 70
     0
  9
$DIMSE2
 70
     0
  9
$DIMTAD
 70
     0
  9
$DIMZIN
 70
     0
  9
$DIMBLK
  1

  9
$DIMASO
 70
     1
  9
$DIMSHO
 70
     1
  9
$DIMPOST
  1

  9
$DIMAPOST
  1

  9
$DIMALT
 70
     0
  9
$DIMALTD
 70
     2
  9
$DIMALTF
 40
25.4
  9
$DIMLFAC
 40
1.0
  9
$DIMTOFL
 70
     0
  9
$DIMTVP
 40
0.0
  9
$DIMTIX
 70
     0
  9
$DIMSOXD
 70
     0
  9
$DIMSAH
 70
     0
  9
$DIMBLK1
  1

  9
$DIMBLK2
  1

  9
$DIMSTYLE
  2
Standard
  9
$DIMCLRD
 70
     0
  9
$DIMCLRE
 70
     0
  9
$DIMCLRT
 70
     0
  9
$DIMTFAC
 40
1.0
  9
$DIMGAP
 40
0.09
  9
$DIMJUST
 70
     0
  9
$DIMSD1
 70
     0
  9
$DIMSD2
 70
     0
  9
$DIMTOLJ
 70
     1
  9
$DIMTZIN
 70
     0
  9
$DIMALTZ
 70
     0
  9
$DIMALTTZ
 70
     0
  9
$DIMUPT
 70
     0
  9
$DIMDEC
 70
     4
  9
$DIMTDEC
 70
     4
  9
$DIMALTU
 70
     2
  9
$DIMALTTD
 70
     2
  9
$DIMTXSTY
  7
Standard
  9
$DIMAUNIT
 70
     0
  9
$DIMADEC
 70
     0
  9
$DIMALTRND
 40
0.0
  9
$DIMAZIN
 70
     0
  9
$DIMDSEP
 70
    46
  9
$DIMATFIT
 70
     3
  9
$DIMFRAC
 70
     0
  9
$DIMLDRBLK
  1

  9
$DIMLUNIT
 70
     2
  9
$DIMLWD
 70
    -2
  9
$DIMLWE
 70
    -2
  9
$DIMTMOVE
 70
     0
  9
$DIMFXL
 40
1.0
  9
$DIMFXLON
 70
     0
  9
$DIMJOGANG
 40
0.7853981633974483
  9
$DIMTFILL
 70
     0
  9
$DIMTFILLCLR
 70
     0
  9
$DIMARCSYM
 70
     0
  9
$DIMLTYPE
  6

  9
$DIMLTEX1
  6

  9
$DIMLTEX2
  6

  9
$DIMTXTDIRECTION
 70
     0
  9
$LUNITS
 70
     2
  9
$LUPREC
 70
     4
  9
$SKETCHINC
 40
0.1
  9
$FILLETRAD
 40
0.5
  9
$AUNITS
 70
     0
  9
$AUPREC
 70
     0
  9
$MENU
  1
.
  9
$ELEVATION
 40
0.0
  9
$PELEVATION
 40
0.0
  9
$THICKNESS
 40
0.0
  9
$LIMCHECK
 70
     0
  9
$CHAMFERA
 40
0.5
  9
$CHAMFERB
 40
0.5
  9
$CHAMFERC
 40
1.0
  9
$CHAMFERD
 40
0.0
  9
$SKPOLY
 70
     0
  9
$TDCREATE
 40
2458843.934340266
  9
$TDUCREATE
 40
2458843.892673611
  9
$TDUPDATE
 40
2458843.934340266
  9
$TDUUPDATE
 40
2458843.892673611
  9
$TDINDWG
 40
0.0000000116
  9
$TDUSRTIMER
 40
0.0000000116
  9
$USRTIMER
 70
     1
  9
$ANGBASE
 50
0.0
  9
$ANGDIR
 70
     0
  9
$PDMODE
 70
     0
  9
$PDSIZE
 40
0.0
  9
$PLINEWID
 40
0.0
  9
$SPLFRAME
 70
     0
  9
$SPLINETYPE
 70
     6
  9
$SPLINESEGS
 70
     8
  9
$HANDSEED
  5
6E
  9
$SURFTAB1
 70
     6
  9
$SURFTAB2
 70
     6
  9
$SURFTYPE
 70
     6
  9
$SURFU
 70
     6
  9
$SURFV
 70
     6
  9
$UCSBASE
  2

  9
$UCSNAME
  2

  9
$UCSORG
 10
0.0
 20
0.0
 30
0.0
  9
$UCSXDIR
 10
1.0
 20
0.0
 30
0.0
  9
$UCSYDIR
 10
0.0
 20
1.0
 30
0.0
  9
$UCSORTHOREF
  2

  9
$UCSORTHOVIEW
 70
     0
  9
$UCSORGTOP
 10
0.0
 20
0.0
 30
0.0
  9
$UCSORGBOTTOM
 10
0.0
 20
0.0
 30
0.0
  9
$UCSORGLEFT
 10
0.0
 20
0.0
 30
0.0
  9
$UCSORGRIGHT
 10
0.0
 20
0.0
 30
0.0
  9
$UCSORGFRONT
 10
0.0
 20
0.0
 30
0.0
  9
$UCSORGBACK
 10
0.0
 20
0.0
 30
0.0
  9
$PUCSBASE
  2

  9
$PUCSNAME
  2

  9
$PUCSORG
 10
0.0
 20
0.0
 30
0.0
  9
$PUCSXDIR
 10
1.0
 20
0.0
 30
0.0
  9
$PUCSYDIR
 10
0.0
 20
1.0
 30
0.0
  9
$PUCSORTHOREF
  2

  9
$PUCSORTHOVIEW
 70
     0
  9
$PUCSORGTOP
 10
0.0
 20
0.0
 30
0.0
  9
$PUCSORGBOTTOM
 10
0.0
 20
0.0
 30
0.0
  9
$PUCSORGLEFT
 10
0.0
 20
0.0
 30
0.0
  9
$PUCSORGRIGHT
 10
0.0
 20
0.0
 30
0.0
  9
$PUCSORGFRONT
 10
0.0
 20
0.0
 30
0.0
  9
$PUCSORGBACK
 10
0.0
 20
0.0
 30
0.0
  9
$USERI1
 70
     0
  9
$USERI2
 70
     0
  9
$USERI3
 70
     0
  9
$USERI4
 70
     0
  9
$USERI5
 70
     0
  9
$USERR1
 40
0.0
  9
$USERR2
 40
0.0
  9
$USERR3
 40
0.0
  9
$USERR4
 40
0.0
  9
$USERR5
 40
0.0
  9
$WORLDVIEW
 70
     1
  9
$SHADEDGE
 70
     3
  9
$SHADEDIF
 70
    70
  9
$TILEMODE
 70
     1
  9
$MAXACTVP
 70
    64
  9
$PINSBASE
 10
0.0
 20
0.0
 30
0.0
  9
$PLIMCHECK
 70
     0
  9
$PEXTMIN
 10
1.000000000000000E+20
 20
1.000000000000000E+20
 30
1.000000000000000E+20
  9
$PEXTMAX
 10
-1.000000000000000E+20
 20
-1.000000000000000E+20
 30
-1.000000000000000E+20
  9
$PLIMMIN
 10
0.0
 20
0.0
  9
$PLIMMAX
 10
12.0
 20
9.0
  9
$UNITMODE
 70
     0
  9
$VISRETAIN
 70
     1
  9
$PLINEGEN
 70
     0
  9
$PSLTSCALE
 70
     1
  9
$TREEDEPTH
 70
  3020
  9
$CMLSTYLE
  2
Standard
  9
$CMLJUST
 70
     0
  9
$CMLSCALE
 40
1.0
  9
$PROXYGRAPHICS
 70
     1
  9
$MEASUREMENT
 70
     0
  9
$CELWEIGHT
370
    -1
  9
$ENDCAPS
280
     0
  9
$JOINSTYLE
280
     0
  9
$LWDISPLAY
290
     1
  9
$INSUNITS
 70
     1
  9
$HYPERLINKBASE
  1

  9
$STYLESHEET
  1

  9
$XEDIT
290
     1
  9
$CEPSNTYPE
380
     0
  9
$PSTYLEMODE
290
     1
  9
$FINGERPRINTGUID
  2
{7FD31052-07C4-6F3C-A4E3-A29353F37F24}
  9
$VERSIONGUID
  2
{FAEB1C32-E019-11D5-929B-00C0DF256EC4}
  9
$EXTNAMES
290
     1
  9
$PSVPSCALE
 40
0.0
  9
$OLESTARTUP
290
     0
  9
$SORTENTS
280
   127
  9
$INDEXCTL
280
     0
  9
$HIDETEXT
280
     1
  9
$XCLIPFRAME
280
     2
  9
$HALOGAP
280
     0
  9
$OBSCOLOR
 70
   257
  9
$OBSLTYPE
280
     0
  9
$INTERSECTIONDISPLAY
280
     0
  9
$INTERSECTIONCOLOR
 70
   257
  9
$DIMASSOC
280
     2
  9
$PROJECTNAME
  1

  9
$CAMERADISPLAY
290
     0
  9
$LENSLENGTH
 40
50.0
  9
$CAMERAHEIGHT
 40
0.0
  9
$STEPSPERSEC
 40
2.0
  9
$STEPSIZE
 40
6.0
  9
$3DDWFPREC
 40
2.0
  9
$PSOLWIDTH
 40
0.25
  9
$PSOLHEIGHT
 40
4.0
  9
$LOFTANG1
 40
1.570796326794897
  9
$LOFTANG2
 40
1.570796326794897
  9
$LOFTMAG1
 40
0.0
  9
$LOFTMAG2
 40
0.0
  9
$LOFTPARAM
 70
     7
  9
$LOFTNORMALS
280
     1
  9
$LATITUDE
 40
37.795
  9
$LONGITUDE
 40
-122.394
  9
$NORTHDIRECTION
 40
0.0
  9
$TIMEZONE
 70
 -8000
  9
$LIGHTGLYPHDISPLAY
280
     1
  9
$TILEMODELIGHTSYNCH
280
     1
  9
$CMATERIAL
347
3C
  9
$SOLIDHIST
280
     1
  9
$SHOWHIST
280
     1
  9
$DWFFRAME
280
     2
  9
$DGNFRAME
280
     2
  9
$REALWORLDSCALE
290
     1
  9
$INTERFERECOLOR
 62
   256
  9
$CSHADOW
280
     0
  9
$SHADOWPLANELOCATION
 40
0.0
  0
ENDSEC
  0
SECTION
  2
CLASSES
  0
CLASS
  1
ACDBDICTIONARYWDFLT
  2
AcDbDictionaryWithDefault
  3
ObjectDBX Classes
 90
        0
 91
        4
280
     0
281
     0
  0
CLASS
  1
VISUALSTYLE
  2
AcDbVisualStyle
  3
ObjectDBX Classes
 90
     4095
 91
        4
280
     0
281
     0
  0
CLASS
  1
MATERIAL
  2
AcDbMaterial
  3
ObjectDBX Classes
 90
     1153
 91
        4
280
     0
281
     0
  0
CLASS
  1
SUN
  2
AcDbSun
  3
SCENEOE
 90
     1024
 91
        4
280
     0
281
     0
  0
ENDSEC
  0
SECTION
  2
TABLES
  0
TABLE
  2
VPORT
  5
8
330
0
100
AcDbSymbolTable
 70
     1
  0
VPORT
  5
29
330
8
100
AcDbSymbolTableRecord
100
AcDbViewportTableRecord
  2
*Active
 70
     0
 10
0.0
 20
0.0
 11
1.0
 21
1.0
 12
0.0
 22
0.0
 13
0.0
 23
0.0
 14
0.5
 24
0.5
 15
0.5
 25
0.5
 16
0.0
 26
0.0
 36
1.0
 17
105.0007777515276
 27
148.5000416295416
 37
0.0
 40
24.99999999375009
 41
0.9999999999999869
 42
50.0
 43
0.0
 44
0.0
 50
0.0
 51
0.0
 71
     0
 72
   100
 73
     1
 74
     3
 75
     0
 76
     0
 77
     0
 78
     0
281
     0
 65
     1
110
0.0
120
0.0
130
0.0
111
1.0
121
0.0
131
0.0
112
0.0
122
1.0
132
0.0
 79
     0
146
0.0
 60
     3
 61
     5
292
     1
282
     1
141
0.0
142
0.0
 63
   250
361
3F
  0
ENDTAB
  0
TABLE
  2
LTYPE
  5
5
330
0
100
AcDbSymbolTable
 70
     1
  0
LTYPE
  5
14
330
5
100
AcDbSymbolTableRecord
100
AcDbLinetypeTableRecord
  2
ByBlock
 70
     0
  3

 72
    65
 73
     0
 40
0.0
  0
LTYPE
  5
15
330
5
100
AcDbSymbolTableRecord
100
AcDbLinetypeTableRecord
  2
ByLayer
 70
     0
  3

 72
    65
 73
     0
 40
0.0
  0
LTYPE
  5
16
330
5
100
AcDbSymbolTableRecord
100
AcDbLinetypeTableRecord
  2
Continuous
 70
     0
  3
Solid line
 72
    65
 73
     0
 40
0.0
  0
ENDTAB
  0
TABLE
  2
LAYER
  5
2
330
0
100
AcDbSymbolTable
 70
     1
  0
LAYER
  5
10
330
2
100
AcDbSymbolTableRecord
100
AcDbLayerTableRecord
  2
0
 70
     0
 62
     7
  6
Continuous
370
    -3
390
F
347
3E
  0
ENDTAB
  0
TABLE
  2
STYLE
  5
3
330
0
100
AcDbSymbolTable
 70
     1
  0
STYLE
  5
11
330
3
100
AcDbSymbolTableRecord
100
AcDbTextStyleTableRecord
  2
Standard
 70
     0
 40
0.0
 41
1.0
 50
0.0
 71
     0
 42
0.2
  3
txt
  4

  0
ENDTAB
  0
TABLE
  2
VIEW
  5
6
330
0
100
AcDbSymbolTable
 70
     0
  0
ENDTAB
  0
TABLE
  2
UCS
  5
7
330
0
100
AcDbSymbolTable
 70
     0
  0
ENDTAB
  0
TABLE
  2
APPID
  5
9
330
0
100
AcDbSymbolTable
 70
     1
  0
APPID
  5
12
330
9
100
AcDbSymbolTableRecord
100
AcDbRegAppTableRecord
  2
ACAD
 70
     0
  0
ENDTAB
  0
TABLE
  2
DIMSTYLE
  5
A
330
0
100
AcDbSymbolTable
 70
     1
100
AcDbDimStyleTable
  0
DIMSTYLE
105
27
330
A
100
AcDbSymbolTableRecord
100
AcDbDimStyleTableRecord
  2
Standard
 70
     0
178
     0
340
11
  0
ENDTAB
  0
TABLE
  2
BLOCK_RECORD
  5
1
330
0
100
AcDbSymbolTable
 70
     8
  0
BLOCK_RECORD
  5
1F
330
1
100
AcDbSymbolTableRecord
100
AcDbBlockTableRecord
  2
*Model_Space
340
22
 70
     0
280
     1
281
     0
  0
BLOCK_RECORD
  5
1B
330
1
100
AcDbSymbolTableRecord
100
AcDbBlockTableRecord
  2
*Paper_Space
340
1E
 70
     0
280
     1
281
     0
  0
BLOCK_RECORD
  5
23
330
1
100
AcDbSymbolTableRecord
100
AcDbBlockTableRecord
  2
*Paper_Space0
340
26
 70
     0
280
     1
281
     0
  0
BLOCK_RECORD
  5
40
330
1
100
AcDbSymbolTableRecord
100
AcDbBlockTableRecord
  2
block 2
340
0
102
{BLKREFS
331
41
102
}
 70
     0
280
     1
281
     0
  0
BLOCK_RECORD
  5
4C
330
1
100
AcDbSymbolTableRecord
100
AcDbBlockTableRecord
  2
block 3
340
0
102
{BLKREFS
331
4D
102
}
 70
     0
280
     1
281
     0
  0
BLOCK_RECORD
  5
51
330
1
100
AcDbSymbolTableRecord
100
AcDbBlockTableRecord
  2
block 4
340
0
102
{BLKREFS
331
52
102
}
 70
     0
280
     1
281
     0
  0
BLOCK_RECORD
  5
56
330
1
100
AcDbSymbolTableRecord
100
AcDbBlockTableRecord
  2
block 5
340
0
102
{BLKREFS
331
57
102
}
 70
     0
280
     1
281
     0
  0
BLOCK_RECORD
  5
5B
330
1
100
AcDbSymbolTableRecord
100
AcDbBlockTableRecord
  2
block 6
340
0
102
{BLKREFS
331
5C
102
}
 70
     0
280
     1
281
     0
  0
BLOCK_RECORD
  5
60
330
1
100
AcDbSymbolTableRecord
100
AcDbBlockTableRecord
  2
block 7
340
0
102
{BLKREFS
331
61
102
}
 70
     0
280
     1
281
     0
  0
BLOCK_RECORD
  5
66
330
1
100
AcDbSymbolTableRecord
100
AcDbBlockTableRecord
  2
block 8
340
0
102
{BLKREFS
331
67
102
}
 70
     0
280
     1
281
     0
  0
ENDTAB
  0
ENDSEC
  0
SECTION
  2
BLOCKS
  0
BLOCK
  5
20
330
1F
100
AcDbEntity
  8
0
100
AcDbBlockBegin
  2
*Model_Space
 70
     0
 10
0.0
 20
0.0
 30
0.0
  3
*Model_Space
  1

  0
ENDBLK
  5
21
330
1F
100
AcDbEntity
  8
0
100
AcDbBlockEnd
  0
BLOCK
  5
1C
330
1B
100
AcDbEntity
 67
     1
  8
0
100
AcDbBlockBegin
  2
*Paper_Space
 70
     0
 10
0.0
 20
0.0
 30
0.0
  3
*Paper_Space
  1

  0
ENDBLK
  5
1D
330
1B
100
AcDbEntity
 67
     1
  8
0
100
AcDbBlockEnd
  0
BLOCK
  5
24
330
23
100
AcDbEntity
  8
0
100
AcDbBlockBegin
  2
*Paper_Space0
 70
     0
 10
0.0
 20
0.0
 30
0.0
  3
*Paper_Space0
  1

  0
ENDBLK
  5
25
330
23
100
AcDbEntity
  8
0
100
AcDbBlockEnd
  0
BLOCK
  5
42
330
40
100
AcDbEntity
  8
0
100
AcDbBlockBegin
  2
block 2
 70
     0
 10
0.0
 20
0.0
 30
0.0
  3
block 2
  1

  0
POLYLINE
  5
44
330
40
100
AcDbEntity
  8
0
 62
     7
420
 16777215
370
     5
100
AcDb2dPolyline
 66
     1
 10
0.0
 20
0.0
 30
0.0
  0
VERTEX
  5
45
330
44
100
AcDbEntity
  8
0
 62
     7
420
 16777215
370
     5
100
AcDbVertex
100
AcDb2dVertex
 10
98.39677775166163
 20
152.3788332964612
 30
0.0
  0
VERTEX
  5
46
330
44
100
AcDbEntity
  8
0
 62
     7
420
 16777215
370
     5
100
AcDbVertex
100
AcDb2dVertex
 10
98.39677775133116
 20
145.0128332964607
 30
0.0
  0
VERTEX
  5
47
330
44
100
AcDbEntity
  8
0
 62
     7
420
 16777215
370
     5
100
AcDbVertex
100
AcDb2dVertex
 10
111.8587777513307
 20
145.0128332958562
 30
0.0
  0
VERTEX
  5
48
330
44
100
AcDbEntity
  8
0
 62
     7
420
 16777215
370
     5
100
AcDbVertex
100
AcDb2dVertex
 10
111.8587777516618
 20
152.3788332958571
 30
0.0
  0
VERTEX
  5
49
330
44
100
AcDbEntity
  8
0
 62
     7
420
 16777215
370
     5
100
AcDbVertex
100
AcDb2dVertex
 10
98.39677775166163
 20
152.3788332964612
 30
0.0
  0
SEQEND
  5
4B
330
44
100
AcDbEntity
  8
0
 62
     7
420
 16777215
370
     5
  0
HATCH
  5
4A
330
40
100
AcDbEntity
  8
0
 62
     7
420
 16777215
100
AcDbHatch
 10
0.0
 20
0.0
 30
0.0
210
0.0
220
0.0
230
1.0
  2
SOLID
 70
     1
 71
     0
 91
        1
 92
        1
 93
        4
 72
     1
 10
98.39677775166163
 20
152.3788332964612
 11
98.39677775133116
 21
145.0128332964607
 72
     1
 10
98.39677775133116
 20
145.0128332964607
 11
111.8587777513307
 21
145.0128332958562
 72
     1
 10
111.8587777513307
 20
145.0128332958562
 11
111.8587777516618
 21
152.3788332958571
 72
     1
 10
111.8587777516618
 20
152.3788332958571
 11
98.39677775166163
 21
152.3788332964612
 97
        0
 75
     2
 76
     1
 98
        0
  0
ENDBLK
  5
43
330
40
100
AcDbEntity
  8
0
100
AcDbBlockEnd
  0
BLOCK
  5
4E
330
4C
100
AcDbEntity
  8
0
100
AcDbBlockBegin
  2
block 3
 70
     0
 10
0.0
 20
0.0
 30
0.0
  3
block 3
  1

  0
SPLINE
  5
50
330
4C
100
AcDbEntity
  8
0
 62
     7
420
 16777215
370
     5
100
AcDbSpline
210
0.0
220
0.0
230
1.0
 70
    11
 71
     3
 72
   455
 73
   451
 74
     0
 42
0.0000000001
 43
0.0000000001
 12
1.0
 22
0.0
 32
0.0
 13
1.0
 23
0.0
 33
0.0
 40
0.0
 40
0.0
 40
0.0
 40
0.0
 40
1.0
 40
1.0
 40
1.0
 40
2.0
 40
2.0
 40
2.0
 40
3.0
 40
3.0
 40
3.0
 40
4.0
 40
4.0
 40
4.0
 40
5.0
 40
5.0
 40
5.0
 40
6.0
 40
6.0
 40
6.0
 40
7.0
 40
7.0
 40
7.0
 40
8.0
 40
8.0
 40
8.0
 40
9.0
 40
9.0
 40
9.0
 40
10.0
 40
10.0
 40
10.0
 40
11.0
 40
11.0
 40
11.0
 40
12.0
 40
12.0
 40
12.0
 40
13.0
 40
13.0
 40
13.0
 40
14.0
 40
14.0
 40
14.0
 40
15.0
 40
15.0
 40
15.0
 40
16.0
 40
16.0
 40
16.0
 40
17.0
 40
17.0
 40
17.0
 40
18.0
 40
18.0
 40
18.0
 40
19.0
 40
19.0
 40
19.0
 40
20.0
 40
20.0
 40
20.0
 40
21.0
 40
21.0
 40
21.0
 40
22.0
 40
22.0
 40
22.0
 40
23.0
 40
23.0
 40
23.0
 40
24.0
 40
24.0
 40
24.0
 40
25.0
 40
25.0
 40
25.0
 40
26.0
 40
26.0
 40
26.0
 40
27.0
 40
27.0
 40
27.0
 40
28.0
 40
28.0
 40
28.0
 40
29.0
 40
29.0
 40
29.0
 40
30.0
 40
30.0
 40
30.0
 40
31.0
 40
31.0
 40
31.0
 40
32.0
 40
32.0
 40
32.0
 40
33.0
 40
33.0
 40
33.0
 40
34.0
 40
34.0
 40
34.0
 40
35.0
 40
35.0
 40
35.0
 40
36.0
 40
36.0
 40
36.0
 40
37.0
 40
37.0
 40
37.0
 40
38.0
 40
38.0
 40
38.0
 40
39.0
 40
39.0
 40
39.0
 40
40.0
 40
40.0
 40
40.0
 40
41.0
 40
41.0
 40
41.0
 40
42.0
 40
42.0
 40
42.0
 40
43.0
 40
43.0
 40
43.0
 40
44.0
 40
44.0
 40
44.0
 40
45.0
 40
45.0
 40
45.0
 40
46.0
 40
46.0
 40
46.0
 40
47.0
 40
47.0
 40
47.0
 40
48.0
 40
48.0
 40
48.0
 40
49.0
 40
49.0
 40
49.0
 40
50.0
 40
50.0
 40
50.0
 40
51.0
 40
51.0
 40
51.0
 40
52.0
 40
52.0
 40
52.0
 40
53.0
 40
53.0
 40
53.0
 40
54.0
 40
54.0
 40
54.0
 40
55.0
 40
55.0
 40
55.0
 40
56.0
 40
56.0
 40
56.0
 40
57.0
 40
57.0
 40
57.0
 40
58.0
 40
58.0
 40
58.0
 40
59.0
 40
59.0
 40
59.0
 40
60.0
 40
60.0
 40
60.0
 40
61.0
 40
61.0
 40
61.0
 40
62.0
 40
62.0
 40
62.0
 40
63.0
 40
63.0
 40
63.0
 40
64.0
 40
64.0
 40
64.0
 40
65.0
 40
65.0
 40
65.0
 40
66.0
 40
66.0
 40
66.0
 40
67.0
 40
67.0
 40
67.0
 40
68.0
 40
68.0
 40
68.0
 40
69.0
 40
69.0
 40
69.0
 40
70.0
 40
70.0
 40
70.0
 40
71.0
 40
71.0
 40
71.0
 40
72.0
 40
72.0
 40
72.0
 40
73.0
 40
73.0
 40
73.0
 40
74.0
 40
74.0
 40
74.0
 40
75.0
 40
75.0
 40
75.0
 40
76.0
 40
76.0
 40
76.0
 40
77.0
 40
77.0
 40
77.0
 40
78.0
 40
78.0
 40
78.0
 40
79.0
 40
79.0
 40
79.0
 40
80.0
 40
80.0
 40
80.0
 40
81.0
 40
81.0
 40
81.0
 40
82.0
 40
82.0
 40
82.0
 40
83.0
 40
83.0
 40
83.0
 40
84.0
 40
84.0
 40
84.0
 40
85.0
 40
85.0
 40
85.0
 40
86.0
 40
86.0
 40
86.0
 40
87.0
 40
87.0
 40
87.0
 40
88.0
 40
88.0
 40
88.0
 40
89.0
 40
89.0
 40
89.0
 40
90.0
 40
90.0
 40
90.0
 40
91.0
 40
91.0
 40
91.0
 40
92.0
 40
92.0
 40
92.0
 40
93.0
 40
93.0
 40
93.0
 40
94.0
 40
94.0
 40
94.0
 40
95.0
 40
95.0
 40
95.0
 40
96.0
 40
96.0
 40
96.0
 40
97.0
 40
97.0
 40
97.0
 40
98.0
 40
98.0
 40
98.0
 40
99.0
 40
99.0
 40
99.0
 40
100.0
 40
100.0
 40
100.0
 40
101.0
 40
101.0
 40
101.0
 40
102.0
 40
102.0
 40
102.0
 40
103.0
 40
103.0
 40
103.0
 40
104.0
 40
104.0
 40
104.0
 40
105.0
 40
105.0
 40
105.0
 40
106.0
 40
106.0
 40
106.0
 40
107.0
 40
107.0
 40
107.0
 40
108.0
 40
108.0
 40
108.0
 40
109.0
 40
109.0
 40
109.0
 40
110.0
 40
110.0
 40
110.0
 40
111.0
 40
111.0
 40
111.0
 40
112.0
 40
112.0
 40
112.0
 40
113.0
 40
113.0
 40
113.0
 40
114.0
 40
114.0
 40
114.0
 40
115.0
 40
115.0
 40
115.0
 40
116.0
 40
116.0
 40
116.0
 40
117.0
 40
117.0
 40
117.0
 40
118.0
 40
118.0
 40
118.0
 40
119.0
 40
119.0
 40
119.0
 40
120.0
 40
120.0
 40
120.0
 40
121.0
 40
121.0
 40
121.0
 40
122.0
 40
122.0
 40
122.0
 40
123.0
 40
123.0
 40
123.0
 40
124.0
 40
124.0
 40
124.0
 40
125.0
 40
125.0
 40
125.0
 40
126.0
 40
126.0
 40
126.0
 40
127.0
 40
127.0
 40
127.0
 40
128.0
 40
128.0
 40
128.0
 40
129.0
 40
129.0
 40
129.0
 40
130.0
 40
130.0
 40
130.0
 40
131.0
 40
131.0
 40
131.0
 40
132.0
 40
132.0
 40
132.0
 40
133.0
 40
133.0
 40
133.0
 40
134.0
 40
134.0
 40
134.0
 40
135.0
 40
135.0
 40
135.0
 40
136.0
 40
136.0
 40
136.0
 40
137.0
 40
137.0
 40
137.0
 40
138.0
 40
138.0
 40
138.0
 40
139.0
 40
139.0
 40
139.0
 40
140.0
 40
140.0
 40
140.0
 40
141.0
 40
141.0
 40
141.0
 40
142.0
 40
142.0
 40
142.0
 40
143.0
 40
143.0
 40
143.0
 40
144.0
 40
144.0
 40
144.0
 40
145.0
 40
145.0
 40
145.0
 40
146.0
 40
146.0
 40
146.0
 40
147.0
 40
147.0
 40
147.0
 40
148.0
 40
148.0
 40
148.0
 40
149.0
 40
149.0
 40
149.0
 40
150.0
 40
150.0
 40
150.0
 40
150.0
 10
106.6694012215496
 20
149.8844829240901
 30
0.0
 10
106.69353483655
 20
149.8837601380888
 30
0.0
 10
106.7176684511539
 20
149.883037351495
 30
0.0
 10
106.741656002008
 20
149.8805314914458
 30
0.0
 10
106.7652216327868
 20
149.8780697072856
 30
0.0
 10
106.7886462928946
 20
149.873887023438
 30
0.0
 10
106.8116528198253
 20
149.8681127011713
 30
0.0
 10
106.8342996879374
 20
149.8624286483278
 30
0.0
 10
106.8565413939574
 20
149.8552023319481
 30
0.0
 10
106.8782626957221
 20
149.8466620628599
 30
0.0
 10
106.9002906628921
 20
149.8380012206539
 30
0.0
 10
106.9217834277496
 20
149.8279890625769
 30
0.0
 10
106.9426146089873
 20
149.816744068194
 30
0.0
 10
106.9642709962063
 20
149.8050536148369
 30
0.0
 10
106.9852123456853
 20
149.7920307154208
 30
0.0
 10
107.0052730510112
 20
149.7777942258954
 30
0.0
 10
107.02667910625
 20
149.7626029813073
 30
0.0
 10
107.0470824376435
 20
149.7460299121356
 30
0.0
 10
107.0668025123627
 20
149.7286835549419
 30
0.0
 10
107.0878031180411
 20
149.7102108050881
 30
0.0
 10
107.1080288509276
 20
149.6908610790256
 30
0.0
 10
107.1272029927144
 20
149.6705410368495
 30
0.0
 10
107.1479707610028
 20
149.6485321285908
 30
0.0
 10
107.1675048715386
 20
149.6253849090677
 30
0.0
 10
107.1870389815367
 20
149.6022376900666
 30
0.0
 10
107.1969691745364
 20
149.5895481150662
 30
0.0
 10
107.2068993679706
 20
149.5768585408374
 30
0.0
 10
107.2163924862745
 20
149.5638523381947
 30
0.0
 10
107.2247598135473
 20
149.552388544044
 30
0.0
 10
107.2327875844983
 20
149.5406787666008
 30
0.0
 10
107.2406655764297
 20
149.5288539288703
 30
0.0
 10
107.2473282544015
 20
149.518853273049
 30
0.0
 10
107.2538838007802
 20
149.5087703187058
 30
0.0
 10
107.2598582525845
 20
149.4983714436016
 30
0.0
 10
107.2649252871125
 20
149.4895519801706
 30
0.0
 10
107.2695743388297
 20
149.4805052741301
 30
0.0
 10
107.2739705140656
 20
149.4712759013753
 30
0.0
 10
107.2812436423966
 20
149.456006625508
 30
0.0
 10
107.2878246195733
 20
149.4402373704559
 30
0.0
 10
107.2914697185305
 20
149.423858701882
 30
0.0
 10
107.2947066285641
 20
149.4093141648883
 30
0.0
 10
107.295628380528
 20
149.3942890600619
 30
0.0
 10
107.2965501325265
 20
149.3792639550618
 30
0.0
 10
107.2958769375263
 20
149.3665975890618
 30
0.0
 10
107.2952037426736
 20
149.3539312237454
 30
0.0
 10
107.2931631898828
 20
149.3414430934774
 30
0.0
 10
107.2912795101934
 20
149.329915022533
 30
0.0
 10
107.2882306300198
 20
149.3185388354211
 30
0.0
 10
107.2841313422886
 20
149.3075736656144
 30
0.0
 10
107.2801748706413
 20
149.2969905140277
 30
0.0
 10
107.2752399072901
 20
149.286790239564
 30
0.0
 10
107.2694545901129
 20
149.2770911800023
 30
0.0
 10
107.2637202316791
 20
149.2674775525588
 30
0.0
 10
107.2571504337672
 20
149.2583563492143
 30
0.0
 10
107.2496974238744
 20
149.2499956373811
 30
0.0
 10
107.2424142476248
 20
149.2418254432277
 30
0.0
 10
107.2342876527333
 20
149.2343814764481
 30
0.0
 10
107.2254243334407
 20
149.2279805088515
 30
0.0
 10
107.2168077289041
 20
149.2217577152662
 30
0.0
 10
107.2074948432972
 20
149.2165206642265
 30
0.0
 10
107.1977643007091
 20
149.2121747758747
 30
0.0
 10
107.1877863830489
 20
149.2077184040178
 30
0.0
 10
107.1773693026728
 20
149.2041990820445
 30
0.0
 10
107.166717325072
 20
149.2020139474239
 30
0.0
 10
107.1554156362739
 20
149.1996955317844
 30
0.0
 10
107.1438495215188
 20
149.1988790230685
 30
0.0
 10
107.1322834065186
 20
149.1980625140695
 30
0.0
 10
107.1183696615188
 20
149.1988537130697
 30
0.0
 10
107.1044559164799
 20
149.1996449123279
 30
0.0
 10
107.0910756019558
 20
149.2031429286161
 30
0.0
 10
107.078865618152
 20
149.2063349852864
 30
0.0
 10
107.0670998311085
 20
149.2117810550326
 30
0.0
 10
107.0566416835557
 20
149.2189486616494
 30
0.0
 10
107.0509956984242
 20
149.2228181997476
 30
0.0
 10
107.0457308299734
 20
149.2271894865493
 30
0.0
 10
107.0408359501255
 20
149.2319319423227
 30
0.0
 10
107.0351929847142
 20
149.2373991886544
 30
0.0
 10
107.0300417406366
 20
149.2433597250504
 30
0.0
 10
107.0250302170906
 20
149.2494311467671
 30
0.0
 10
107.0192954582
 20
149.2563787624657
 30
0.0
 10
107.0137436571411
 20
149.2634715775665
 30
0.0
 10
107.0086599938904
 20
149.2708817844005
 30
0.0
 10
107.0027866748796
 20
149.2794430337468
 30
0.0
 10
106.9975382225225
 20
149.2884279350753
 30
0.0
 10
106.9922897705234
 20
149.2974128370757
 30
0.0
 10
106.9785915755242
 20
149.3201299700763
 30
0.0
 10
106.9648933802792
 20
149.3428471029851
 30
0.0
 10
106.950517475472
 20
149.365151692862
 30
0.0
 10
106.937844906913
 20
149.3848135122879
 30
0.0
 10
106.9246457120641
 20
149.4041547578002
 30
0.0
 10
106.9104386522446
 20
149.4227297206801
 30
0.0
 10
106.8981875334161
 20
149.4387473964262
 30
0.0
 10
106.8851869598001
 20
149.4541952595452
 30
0.0
 10
106.8714888098379
 20
149.4690179392209
 30
0.0
 10
106.8597377737194
 20
149.481733659572
 30
0.0
 10
106.8474733797177
 20
149.4939892971659
 30
0.0
 10
106.8342324386885
 20
149.5051453293015
 30
0.0
 10
106.8225628251572
 20
149.514977454018
 30
0.0
 10
106.8101346892325
 20
149.5239554720299
 30
0.0
 10
106.796976067792
 20
149.53167638142
 30
0.0
 10
106.7844079518005
 20
149.5390508077775
 30
0.0
 10
106.7711734416475
 20
149.5452784217364
 30
0.0
 10
106.7574617348594
 20
149.5503045668776
 30
0.0
 10
106.744096687603
 20
149.5552036409587
 30
0.0
 10
106.7302782676783
 20
149.5589612293651
 30
0.0
 10
106.7162539306759
 20
149.5610298859669
 30
0.0
 10
106.7020934616501
 20
149.5631186226921
 30
0.0
 10
106.6877230585356
 20
149.5634854800892
 30
0.0
 10
106.6733526555354
 20
149.5638523380898
 30
0.0
 10
106.6553347225352
 20
149.5618941930908
 30
0.0
 10
106.6373167898269
 20
149.5599360487278
 30
0.0
 10
106.6197260612449
 20
149.5559494716003
 30
0.0
 10
106.6021735274868
 20
149.5519715505446
 30
0.0
 10
106.5850463446878
 20
149.5459739958523
 30
0.0
 10
106.568357427888
 20
149.5390147571935
 30
0.0
 10
106.5512209793206
 20
149.5318688988505
 30
0.0
 10
106.534546617088
 20
149.5237090877533
 30
0.0
 10
106.5186822672933
 20
149.5141771769137
 30
0.0
 10
106.5020373470596
 20
149.5041762693655
 30
0.0
 10
106.4862841099966
 20
149.4926649180374
 30
0.0
 10
106.4712650667716
 20
149.4803077482858
 30
0.0
 10
106.4552039500668
 20
149.467093195098
 30
0.0
 10
106.4399824435032
 20
149.4529113800095
 30
0.0
 10
106.4255413391096
 20
149.4379709638007
 30
0.0
 10
106.4099612769666
 20
149.4218522095409
 30
0.0
 10
106.3952895706873
 20
149.4048504749374
 30
0.0
 10
106.3815110825163
 20
149.3871668216063
 30
0.0
 10
106.366649764105
 20
149.3680934370979
 30
0.0
 10
106.3528275737287
 20
149.3482267403387
 30
0.0
 10
106.3397387877505
 20
149.3278953221407
 30
0.0
 10
106.3255317499869
 20
149.305826871588
 30
0.0
 10
106.312188788033
 20
149.2832108997019
 30
0.0
 10
106.2996599648144
 20
149.2601564653565
 30
0.0
 10
106.28659977961
 20
149.2361242655981
 30
0.0
 10
106.2744242546821
 20
149.2116156233079
 30
0.0
 10
106.2629680844816
 20
149.186772705029
 30
0.0
 10
106.2514176698329
 20
149.1617254159108
 30
0.0
 10
106.2405984941702
 20
149.1363383283245
 30
0.0
 10
106.2307921274886
 20
149.1105664920947
 30
0.0
 10
106.2208247392415
 20
149.0843714796233
 30
0.0
 10
106.2119036939064
 20
149.0577789795474
 30
0.0
 10
106.2036965846181
 20
149.0309733353454
 30
0.0
 10
106.1954084883261
 20
149.003903175496
 30
0.0
 10
106.1878484877118
 20
148.9766156441922
 30
0.0
 10
106.1811169660449
 20
148.9491222180092
 30
0.0
 10
106.1742530091891
 20
148.9210878892969
 30
0.0
 10
106.1682504507532
 20
148.8928394845068
 30
0.0
 10
106.1630532711106
 20
148.8644486464726
 30
0.0
 10
106.157738451658
 20
148.8354151728136
 30
0.0
 10
106.1532658836484
 20
148.8062327448906
 30
0.0
 10
106.1495055002131
 20
148.7769526247458
 30
0.0
 10
106.1456265366957
 20
148.7467491841162
 30
0.0
 10
106.1425053820589
 20
148.7164417928589
 30
0.0
 10
106.1404736525907
 20
148.6860696589752
 30
0.0
 10
106.1383997881908
 20
148.6550676539421
 30
0.0
 10
106.1374610034925
 20
148.6239981931139
 30
0.0
 10
106.1365222194917
 20
148.5929287311137
 30
0.0
 10
106.1376033194901
 20
148.5499694281137
 30
0.0
 10
106.1386844204067
 20
148.5070101238178
 30
0.0
 10
106.1421671240399
 20
148.4642249042784
 30
0.0
 10
106.1455988359985
 20
148.4220661204852
 30
0.0
 10
106.151362339829
 20
148.3800763610762
 30
0.0
 10
106.1585373474108
 20
148.3383435301468
 30
0.0
 10
106.1656148576417
 20
148.2971777843991
 30
0.0
 10
106.1740657719089
 20
148.2562620320435
 30
0.0
 10
106.1845039092411
 20
148.2158490989397
 30
0.0
 10
106.1948932474444
 20
148.1756250995388
 30
0.0
 10
106.207251271291
 20
148.1358992289397
 30
0.0
 10
106.2211957899243
 20
148.0967416090376
 30
0.0
 10
106.2348241995575
 20
148.058471655204
 30
0.0
 10
106.2499679905947
 20
148.0207444806767
 30
0.0
 10
106.2669195171365
 20
147.9838435156358
 30
0.0
 10
106.2831176013204
 20
147.9485826831253
 30
0.0
 10
106.3009662958527
 20
147.914076247441
 30
0.0
 10
106.3205461116644
 20
147.8805417600209
 30
0.0
 10
106.3393247594311
 20
147.8483794387148
 30
0.0
 10
106.3596957586292
 20
147.8171111525212
 30
0.0
 10
106.3820755727579
 20
147.7874008322851
 30
0.0
 10
106.4039412923238
 20
147.7583729982405
 30
0.0
 10
106.4277245964525
 20
147.7308323751006
 30
0.0
 10
106.4515079004523
 20
147.7032917521006
 30
0.0
 10
106.4671881884517
 20
147.6892447110996
 30
0.0
 10
106.4828684767091
 20
147.6751976693247
 30
0.0
 10
106.5000540808963
 20
147.6632129292659
 30
0.0
 10
106.5167433562928
 20
147.6515743144562
 30
0.0
 10
106.5348522546328
 20
147.641880600896
 30
0.0
 10
106.5536806758073
 20
147.6338594249067
 30
0.0
 10
106.5722659309356
 20
147.6259418411206
 30
0.0
 10
106.5915522438642
 20
147.6196538727643
 30
0.0
 10
106.6112587037242
 20
147.6157957298608
 30
0.0
 10
106.6316565896243
 20
147.6118022191396
 30
0.0
 10
106.652504622448
 20
147.6104120320913
 30
0.0
 10
106.6733526554475
 20
147.6090218440896
 30
0.0
 10
106.6966870144478
 20
147.610556326089
 30
0.0
 10
106.7200213733737
 20
147.6120908088905
 30
0.0
 10
106.7427849829237
 20
147.6169247109227
 30
0.0
 10
106.7634298603486
 20
147.6213086955775
 30
0.0
 10
106.7836052894342
 20
147.6284064928868
 30
0.0
 10
106.8026209720604
 20
147.637810858159
 30
0.0
 10
106.8210824725983
 20
147.6469411480322
 30
0.0
 10
106.8384508396222
 20
147.6582455223543
 30
0.0
 10
106.853989604963
 20
147.6716802865043
 30
0.0
 10
106.8698417145905
 20
147.6853859670678
 30
0.0
 10
106.8837896895117
 20
147.7013088237789
 30
0.0
 10
106.8957618995266
 20
147.7185329950601
 30
0.0
 10
106.9088657455185
 20
147.7373852276467
 30
0.0
 10
106.9196026682664
 20
147.7577964066915
 30
0.0
 10
106.9285023467753
 20
147.7789334754638
 30
0.0
 10
106.9384921094169
 20
147.8026595347552
 30
0.0
 10
106.9461669914536
 20
147.8273001964807
 30
0.0
 10
106.9522109464079
 20
147.8523172362283
 30
0.0
 10
106.9590767626958
 20
147.8807361109996
 30
0.0
 10
106.9638379455576
 20
147.909640683613
 30
0.0
 10
106.9668876987351
 20
147.9386842775139
 30
0.0
 10
106.9703717736638
 20
147.9718640305787
 30
0.0
 10
106.9716222524651
 20
148.0052252210758
 30
0.0
 10
106.9728727314667
 20
148.0385864120759
 30
0.0
 10
106.9728727314667
 20
148.0385864120759
 30
0.0
 10
106.9728727314846
 20
148.4444671870758
 30
0.0
 10
106.9728727314846
 20
148.4444671870758
 30
0.0
 10
106.9728727314846
 20
148.4444671870758
 30
0.0
 10
106.7783478824846
 20
148.4439032480855
 30
0.0
 10
106.7783478824846
 20
148.4439032480855
 30
0.0
 10
106.7642412334849
 20
148.4442183010861
 30
0.0
 10
106.7501345852103
 20
148.444533355382
 30
0.0
 10
106.7360110973668
 20
148.4450322288041
 30
0.0
 10
106.7256302084084
 20
148.4453989051985
 30
0.0
 10
106.7152402220737
 20
148.4458648876793
 30
0.0
 10
106.7049641214737
 20
148.4472901904808
 30
0.0
 10
106.6967776115575
 20
148.4484256654995
 30
0.0
 10
106.6886633803219
 20
148.4501699824197
 30
0.0
 10
106.6806910312273
 20
148.4523706048455
 30
0.0
 10
106.6728856608492
 20
148.454525135825
 30
0.0
 10
106.6652162914852
 20
148.4571170580901
 30
0.0
 10
106.6575469224857
 20
148.4597089810906
 30
0.0
 10
106.6458746834857
 20
148.4671595550909
 30
0.0
 10
106.6342024452352
 20
148.4746101297956
 30
0.0
 10
106.6242419845803
 20
148.4839820712843
 30
0.0
 10
106.6144179428448
 20
148.4932256542391
 30
0.0
 10
106.6062591106364
 20
148.5043383341386
 30
0.0
 10
106.5994044040943
 20
148.5161580279102
 30
0.0
 10
106.5923670472971
 20
148.5282926688027
 30
0.0
 10
106.5867042414729
 20
148.5411725036822
 30
0.0
 10
106.5830341801953
 20
148.5545433794753
 30
0.0
 10
106.5789124233184
 20
148.5695598860358
 30
0.0
 10
106.5773041134909
 20
148.5851957420943
 30
0.0
 10
106.5756958044918
 20
148.6008315980941
 30
0.0
 10
106.5772143564923
 20
148.6160560850943
 30
0.0
 10
106.5787329085671
 20
148.6312805715475
 30
0.0
 10
106.5824696897214
 20
148.6459908356538
 30
0.0
 10
106.5861581930034
 20
148.6605110484219
 30
0.0
 10
106.5920079781755
 20
148.674530240147
 30
0.0
 10
106.5994044039852
 20
148.6877631304215
 30
0.0
 10
106.6064812964474
 20
148.7004243459642
 30
0.0
 10
106.6149740830964
 20
148.7123657306512
 30
0.0
 10
106.6253709654709
 20
148.7221970491303
 30
0.0
 10
106.635006085696
 20
148.7313080433784
 30
0.0
 10
106.6462765034982
 20
148.7386068460912
 30
0.0
 10
106.6575469224985
 20
148.7459056490905
 30
0.0
 10
106.6644097194987
 20
148.7492088270903
 30
0.0
 10
106.6712725173319
 20
148.7525120057947
 30
0.0
 10
106.6784330690219
 20
148.7549374961758
 30
0.0
 10
106.6878743088262
 20
148.7581355229926
 30
0.0
 10
106.697833182259
 20
148.759807722408
 30
0.0
 10
106.7077865738611
 20
148.7611468910865
 30
0.0
 10
106.7200106946662
 20
148.7627915726549
 30
0.0
 10
106.7322265471234
 20
148.7639339377717
 30
0.0
 10
106.7444784546129
 20
148.7645338340312
 30
0.0
 10
106.7596559825638
 20
148.7652769789053
 30
0.0
 10
106.7748888404998
 20
148.7651876520854
 30
0.0
 10
106.7901216984993
 20
148.7650983240847
 30
0.0
 10
106.7901216984993
 20
148.7650983240847
 30
0.0
 10
107.0893821304989
 20
148.7650983240713
 30
0.0
 10
107.0893821304989
 20
148.7650983240713
 30
0.0
 10
107.1080513734993
 20
148.7649075270702
 30
0.0
 10
107.1267206165163
 20
148.7647167297246
 30
0.0
 10
107.1452666873324
 20
148.7628403626888
 30
0.0
 10
107.1606861571769
 20
148.7612803241659
 30
0.0
 10
107.1760204842547
 20
148.7585551358304
 30
0.0
 10
107.1909904153858
 20
148.7543730057639
 30
0.0
 10
107.2037124106208
 20
148.7508188786057
 30
0.0
 10
107.2161712310022
 20
148.7462125157404
 30
0.0
 10
107.2276822958701
 20
148.7396962532503
 30
0.0
 10
107.2375177251447
 20
148.7341285460405
 30
0.0
 10
107.246661240677
 20
148.7271665068767
 30
0.0
 10
107.2542133480479
 20
148.7188101057092
 30
0.0
 10
107.261882744181
 20
148.7103239246132
 30
0.0
 10
107.2679109172564
 20
148.7003997346351
 30
0.0
 10
107.2728415334175
 20
148.6900210917462
 30
0.0
 10
107.2785913413602
 20
148.6779181006863
 30
0.0
 10
107.2828485908891
 20
148.6651971029355
 30
0.0
 10
107.2858248142178
 20
148.6522002306203
 30
0.0
 10
107.2894258351889
 20
148.6364749289204
 30
0.0
 10
107.2911515236594
 20
148.6203457662091
 30
0.0
 10
107.2920342093798
 20
148.6042185408228
 30
0.0
 10
107.2930686505227
 20
148.5853186480743
 30
0.0
 10
107.2929453054903
 20
148.5664214160622
 30
0.0
 10
107.2928219594902
 20
148.5475241830623
 30
0.0
 10
107.2928219594902
 20
148.5475241830623
 30
0.0
 10
107.2925986994622
 20
147.9358618260616
 30
0.0
 10
107.2925986994622
 20
147.9358618260616
 30
0.0
 10
107.2923255814614
 20
147.9183613800617
 30
0.0
 10
107.2920524628093
 20
147.9008609336743
 30
0.0
 10
107.2914697184009
 20
147.8833642121715
 30
0.0
 10
107.2909300512503
 20
147.8671608720945
 30
0.0
 10
107.2901248423462
 20
147.8509607265595
 30
0.0
 10
107.2886472663697
 20
147.8348180318712
 30
0.0
 10
107.2872984484021
 20
147.8200820338729
 30
0.0
 10
107.2853893396505
 20
147.8053939102897
 30
0.0
 10
107.2830023617638
 20
147.7907877755737
 30
0.0
 10
107.280835514163
 20
147.7775286380916
 30
0.0
 10
107.278274872716
 20
147.7643370645289
 30
0.0
 10
107.2750994948536
 20
147.7512734423678
 30
0.0
 10
107.2689381868369
 20
147.7259255929355
 30
0.0
 10
107.2604624493184
 20
147.7010594694747
 30
0.0
 10
107.2496974235189
 20
147.6773251911571
 30
0.0
 10
107.2383961678253
 20
147.6524086556144
 30
0.0
 10
107.2245718744485
 20
147.6287395330647
 30
0.0
 10
107.2107475814472
 20
147.6050704110657
 30
0.0
 10
107.1942074984463
 20
147.5809096540671
 30
0.0
 10
107.1776674152439
 20
147.5567488973676
 30
0.0
 10
107.1593789491183
 20
147.5339446121557
 30
0.0
 10
107.1418070803162
 20
147.5120338676964
 30
0.0
 10
107.1226211581279
 20
147.4913753760322
 30
0.0
 10
107.1023654111747
 20
147.4718506604452
 30
0.0
 10
107.0823568648388
 20
147.4525642239875
 30
0.0
 10
107.0613044466308
 20
147.4343840593185
 30
0.0
 10
107.0391424790048
 20
147.4176595750828
 30
0.0
 10
107.0170161864868
 20
147.400962012994
 30
0.0
 10
106.9937839138594
 20
147.3857154485629
 30
0.0
 10
106.9697101509267
 20
147.3719358469729
 30
0.0
 10
106.946024654941
 20
147.3583784858312
 30
0.0
 10
106.9215245932443
 20
147.3462411501181
 30
0.0
 10
106.8963263901738
 20
147.3358084569759
 30
0.0
 10
106.8715243480252
 20
147.3255397844697
 30
0.0
 10
106.8460459440076
 20
147.3169225758055
 30
0.0
 10
106.8201201770983
 20
147.3098418956474
 30
0.0
 10
106.7945234219043
 20
147.3028510730716
 30
0.0
 10
106.768490586316
 20
147.2973580277363
 30
0.0
 10
106.7422204925146
 20
147.2940361626137
 30
0.0
 10
106.7154770372585
 20
147.2906544407224
 30
0.0
 10
106.6884876964331
 20
147.2895228490889
 30
0.0
 10
106.6614983554332
 20
147.2883912580906
 30
0.0
 10
106.6333880944331
 20
147.2892904640922
 30
0.0
 10
106.6052778344463
 20
147.2901896699539
 30
0.0
 10
106.5773892754726
 20
147.2934716724075
 30
0.0
 10
106.5499454579858
 20
147.2967013364589
 30
0.0
 10
106.5227163269197
 20
147.3022384057044
 30
0.0
 10
106.4961026479686
 20
147.3098418957346
 30
0.0
 10
106.4694470656308
 20
147.3174573575024
 30
0.0
 10
106.4434088749986
 20
147.3271457523581
 30
0.0
 10
106.4182029635659
 20
147.3386309093716
 30
0.0
 10
106.3922919036452
 20
147.3504373696297
 30
0.0
 10
106.367260341178
 20
147.3641425289565
 30
0.0
 10
106.3431257306502
 20
147.3792742231891
 30
0.0
 10
106.3179707234325
 20
147.3950456762724
 30
0.0
 10
106.2937901166651
 20
147.4123668403211
 30
0.0
 10
106.2708709507988
 20
147.4312073465636
 30
0.0
 10
106.2465937016034
 20
147.4511642537087
 30
0.0
 10
106.2237318167343
 20
147.4728258960861
 30
0.0
 10
106.2020031132453
 20
147.4955592601092
 30
0.0
 10
106.1788405367557
 20
147.5197927944906
 30
0.0
 10
106.1569656331052
 20
147.5452441629121
 30
0.0
 10
106.1365222189463
 20
147.5717654731718
 30
0.0
 10
106.114531853461
 20
147.6002936486124
 30
0.0
 10
106.0941978154481
 20
147.6300598171158
 30
0.0
 10
106.0738637774498
 20
147.6598259861172
 30
0.0
 10
106.0539655384512
 20
147.6926539921178
 30
0.0
 10
106.034067299473
 20
147.7254819978002
 30
0.0
 10
106.0157212587164
 20
147.759176308422
 30
0.0
 10
105.9970924020448
 20
147.7933900383231
 30
0.0
 10
105.9800639687132
 20
147.8284969883212
 30
0.0
 10
105.9643526256746
 20
147.8641715365795
 30
0.0
 10
105.9482761656647
 20
147.9006751280953
 30
0.0
 10
105.9335787231508
 20
147.9377730053154
 30
0.0
 10
105.920322369834
 20
147.9753761587875
 30
0.0
 10
105.9066881192957
 20
148.0140512606959
 30
0.0
 10
105.8945782909475
 20
148.0532608571613
 30
0.0
 10
105.883630489292
 20
148.0927901760779
 30
0.0
 10
105.872566766648
 20
148.1327380518828
 30
0.0
 10
105.8626898092585
 20
148.1730124567585
 30
0.0
 10
105.8542769847275
 20
148.2135911367849
 30
0.0
 10
105.8459054584296
 20
148.2539706176285
 30
0.0
 10
105.8389837255283
 20
148.2946513936055
 30
0.0
 10
105.8333908374822
 20
148.3355210775355
 30
0.0
 10
105.827824331121
 20
148.3761979789314
 30
0.0
 10
105.8235741628444
 20
148.4170620103242
 30
0.0
 10
105.8209720470082
 20
148.4580155093962
 30
0.0
 10
105.8183575988041
 20
148.4991631018985
 30
0.0
 10
105.817406861489
 20
148.5404010121284
 30
0.0
 10
105.8164561234918
 20
148.5816389221283
 30
0.0
 10
105.8182364114937
 20
148.6377866611282
 30
0.0
 10
105.8200166996778
 20
148.693934399455
 30
0.0
 10
105.8249234805402
 20
148.7498570814454
 30
0.0
 10
105.8297562075676
 20
148.8049357703643
 30
0.0
 10
105.8376217684597
 20
148.8597961448499
 30
0.0
 10
105.8480675897574
 20
148.9141238091423
 30
0.0
 10
105.8584477686354
 20
148.9681100738215
 30
0.0
 10
105.8713758806641
 20
149.0215703024636
 30
0.0
 10
105.8864529413578
 20
149.0744391014167
 30
0.0
 10
105.9015876155862
 20
149.1275099263762
 30
0.0
 10
105.918887693287
 20
149.1799847929854
 30
0.0
 10
105.9389505550092
 20
149.2313674517214
 30
0.0
 10
105.9488902205867
 20
149.2568237625596
 30
0.0
 10
105.9595080033027
 20
149.282011994217
 30
0.0
 10
105.9705620212896
 20
149.3070091745325
 30
0.0
 10
105.9813217791121
 20
149.3313409249205
 30
0.0
 10
105.9924948559976
 20
149.3554916602318
 30
0.0
 10
106.0044314491657
 20
149.3792639550221
 30
0.0
 10
106.0161437363968
 20
149.4025895338376
 30
0.0
 10
106.0285911143615
 20
149.425550761394
 30
0.0
 10
106.0416878203331
 20
149.4481317920517
 30
0.0
 10
106.0544487193732
 20
149.470133832341
 30
0.0
 10
106.067826075041
 20
149.4917749227021
 30
0.0
 10
106.0817666442651
 20
149.5130481961087
 30
0.0
 10
106.0953292679164
 20
149.5337447255285
 30
0.0
 10
106.1094249803046
 20
149.5540931115615
 30
0.0
 10
106.1241034288246
 20
149.5740131661066
 30
0.0
 10
106.1385745294526
 20
149.5936518297869
 30
0.0
 10
106.1536120190223
 20
149.6128741777379
 30
0.0
 10
106.1692626665953
 20
149.6315911943908
 30
0.0
 10
106.1848236461176
 20
149.6502009746879
 30
0.0
 10
106.2009907777744
 20
149.6683111975396
 30
0.0
 10
106.2178088468552
 20
149.6857822792935
 30
0.0
 10
106.2343250410859
 20
149.7029397649885
 30
0.0
 10
106.2514690145422
 20
149.7194808481088
 30
0.0
 10
106.2686129885427
 20
149.7360219311084
 30
0.0
 10
106.2823300735433
 20
149.7472148911073
 30
0.0
 10
106.2960471581409
 20
149.7584078515945
 30
0.0
 10
106.3103852837256
 20
149.7687623782197
 30
0.0
 10
106.3250640297341
 20
149.779362889805
 30
0.0
 10
106.3403936744592
 20
149.7890846582227
 30
0.0
 10
106.3561090115269
 20
149.7981158826835
 30
0.0
 10
106.3717358971436
 20
149.8070962762325
 30
0.0
 10
106.3877441456968
 20
149.815393877199
 30
0.0
 10
106.4040907012615
 20
149.8229534633701
 30
0.0
 10
106.4210906578597
 20
149.8308152197068
 30
0.0
 10
106.4384565074706
 20
149.8378787825492
 30
0.0
 10
106.4560238244217
 20
149.8444041011816
 30
0.0
 10
106.4734924601347
 20
149.8508927650113
 30
0.0
 10
106.4911603061321
 20
149.8568492146273
 30
0.0
 10
106.5090859282319
 20
149.8619033054424
 30
0.0
 10
106.5267461075987
 20
149.8668825552473
 30
0.0
 10
106.5446564852913
 20
149.8709859726552
 30
0.0
 10
106.5627125233386
 20
149.8743220961234
 30
0.0
 10
106.5802835402256
 20
149.8775686046681
 30
0.0
 10
106.597992497116
 20
149.8800884877074
 30
0.0
 10
106.6157746274581
 20
149.881660472338
 30
0.0
 10
106.6336011329469
 20
149.8832363798423
 30
0.0
 10
106.6515011775498
 20
149.8838596520909
 30
0.0
 10
106.6694012215496
 20
149.8844829240901
 30
0.0
  0
ENDBLK
  5
4F
330
4C
100
AcDbEntity
  8
0
100
AcDbBlockEnd
  0
BLOCK
  5
53
330
51
100
AcDbEntity
  8
0
100
AcDbBlockBegin
  2
block 4
 70
     0
 10
0.0
 20
0.0
 30
0.0
  3
block 4
  1

  0
SPLINE
  5
55
330
51
100
AcDbEntity
  8
0
 62
     7
420
 16777215
370
     5
100
AcDbSpline
210
0.0
220
0.0
230
1.0
 70
    11
 71
     3
 72
   197
 73
   193
 74
     0
 42
0.0000000001
 43
0.0000000001
 12
1.0
 22
0.0
 32
0.0
 13
1.0
 23
0.0
 33
0.0
 40
0.0
 40
0.0
 40
0.0
 40
0.0
 40
1.0
 40
1.0
 40
1.0
 40
2.0
 40
2.0
 40
2.0
 40
3.0
 40
3.0
 40
3.0
 40
4.0
 40
4.0
 40
4.0
 40
5.0
 40
5.0
 40
5.0
 40
6.0
 40
6.0
 40
6.0
 40
7.0
 40
7.0
 40
7.0
 40
8.0
 40
8.0
 40
8.0
 40
9.0
 40
9.0
 40
9.0
 40
10.0
 40
10.0
 40
10.0
 40
11.0
 40
11.0
 40
11.0
 40
12.0
 40
12.0
 40
12.0
 40
13.0
 40
13.0
 40
13.0
 40
14.0
 40
14.0
 40
14.0
 40
15.0
 40
15.0
 40
15.0
 40
16.0
 40
16.0
 40
16.0
 40
17.0
 40
17.0
 40
17.0
 40
18.0
 40
18.0
 40
18.0
 40
19.0
 40
19.0
 40
19.0
 40
20.0
 40
20.0
 40
20.0
 40
21.0
 40
21.0
 40
21.0
 40
22.0
 40
22.0
 40
22.0
 40
23.0
 40
23.0
 40
23.0
 40
24.0
 40
24.0
 40
24.0
 40
25.0
 40
25.0
 40
25.0
 40
26.0
 40
26.0
 40
26.0
 40
27.0
 40
27.0
 40
27.0
 40
28.0
 40
28.0
 40
28.0
 40
29.0
 40
29.0
 40
29.0
 40
30.0
 40
30.0
 40
30.0
 40
31.0
 40
31.0
 40
31.0
 40
32.0
 40
32.0
 40
32.0
 40
33.0
 40
33.0
 40
33.0
 40
34.0
 40
34.0
 40
34.0
 40
35.0
 40
35.0
 40
35.0
 40
36.0
 40
36.0
 40
36.0
 40
37.0
 40
37.0
 40
37.0
 40
38.0
 40
38.0
 40
38.0
 40
39.0
 40
39.0
 40
39.0
 40
40.0
 40
40.0
 40
40.0
 40
41.0
 40
41.0
 40
41.0
 40
42.0
 40
42.0
 40
42.0
 40
43.0
 40
43.0
 40
43.0
 40
44.0
 40
44.0
 40
44.0
 40
45.0
 40
45.0
 40
45.0
 40
46.0
 40
46.0
 40
46.0
 40
47.0
 40
47.0
 40
47.0
 40
48.0
 40
48.0
 40
48.0
 40
49.0
 40
49.0
 40
49.0
 40
50.0
 40
50.0
 40
50.0
 40
51.0
 40
51.0
 40
51.0
 40
52.0
 40
52.0
 40
52.0
 40
53.0
 40
53.0
 40
53.0
 40
54.0
 40
54.0
 40
54.0
 40
55.0
 40
55.0
 40
55.0
 40
56.0
 40
56.0
 40
56.0
 40
57.0
 40
57.0
 40
57.0
 40
58.0
 40
58.0
 40
58.0
 40
59.0
 40
59.0
 40
59.0
 40
60.0
 40
60.0
 40
60.0
 40
61.0
 40
61.0
 40
61.0
 40
62.0
 40
62.0
 40
62.0
 40
63.0
 40
63.0
 40
63.0
 40
64.0
 40
64.0
 40
64.0
 40
64.0
 10
101.095622331433
 20
147.2883912583396
 30
0.0
 10
101.0825925074327
 20
147.2886346123407
 30
0.0
 10
101.0695626836145
 20
147.2888779673467
 30
0.0
 10
101.0566724891752
 20
147.2906492201658
 30
0.0
 10
101.0453188639247
 20
147.2922093316762
 30
0.0
 10
101.0340735632447
 20
147.2949547873985
 30
0.0
 10
101.0233675514225
 20
147.299116577349
 30
0.0
 10
101.0137672881231
 20
147.3028485253429
 30
0.0
 10
101.0046006677819
 20
147.3077193497599
 30
0.0
 10
100.9962720089383
 20
147.3137933293733
 30
0.0
 10
100.988180084781
 20
147.3196946615439
 30
0.0
 10
100.9808791625228
 20
147.3267317237512
 30
0.0
 10
100.9748213711377
 20
147.3346794765082
 30
0.0
 10
100.9682760490287
 20
147.3432668639767
 30
0.0
 10
100.9631820037902
 20
147.3529174252093
 30
0.0
 10
100.9590156379565
 20
147.3629040001057
 30
0.0
 10
100.9540712596033
 20
147.3747554329195
 30
0.0
 10
100.9504333725021
 20
147.3870800883929
 30
0.0
 10
100.9477258286246
 20
147.3995958802691
 30
0.0
 10
100.9445502968199
 20
147.414274975777
 30
0.0
 10
100.9426545149779
 20
147.4292169923222
 30
0.0
 10
100.9415164333093
 20
147.4441906276174
 30
0.0
 10
100.9401638527715
 20
147.4619864047053
 30
0.0
 10
100.9398815014421
 20
147.4798268423472
 30
0.0
 10
100.9395991504426
 20
147.4976672793474
 30
0.0
 10
100.9395991504426
 20
147.4976672793474
 30
0.0
 10
100.9392584715409
 20
149.6835243173473
 30
0.0
 10
100.9392584715409
 20
149.6835243173473
 30
0.0
 10
100.9391811885414
 20
149.6951898583472
 30
0.0
 10
100.9391039052834
 20
149.7068553990203
 30
0.0
 10
100.9392584718572
 20
149.7185227266265
 30
0.0
 10
100.9393906953907
 20
149.7285035085796
 30
0.0
 10
100.939692584265
 20
149.7384855981925
 30
0.0
 10
100.9403874527196
 20
149.748440721766
 30
0.0
 10
100.9409402014236
 20
149.7563597481801
 30
0.0
 10
100.9417416183311
 20
149.7642617111214
 30
0.0
 10
100.9426454147101
 20
149.7721493214499
 30
0.0
 10
100.9433392371465
 20
149.7782044475246
 30
0.0
 10
100.9440933944527
 20
149.7842511152336
 30
0.0
 10
100.9454678669511
 20
149.790213016508
 30
0.0
 10
100.9477302198315
 20
149.8000261808493
 30
0.0
 10
100.9516731597221
 20
149.8096096919911
 30
0.0
 10
100.957322166617
 20
149.8178730493233
 30
0.0
 10
100.9630960122123
 20
149.8263190204875
 30
0.0
 10
100.9706521635474
 20
149.8333858443459
 30
0.0
 10
100.9782083135478
 20
149.8404526683454
 30
0.0
 10
100.9856546805478
 20
149.8473901963452
 30
0.0
 10
100.9931010465255
 20
149.8543277249495
 30
0.0
 10
101.0013524231224
 20
149.860209834649
 30
0.0
 10
101.0093661239326
 20
149.8659225138259
 30
0.0
 10
101.0181391276096
 20
149.8706396997992
 30
0.0
 10
101.0273189850239
 20
149.8743220967006
 30
0.0
 10
101.0365921427975
 20
149.8780419199956
 30
0.0
 10
101.0462804665305
 20
149.8807058129709
 30
0.0
 10
101.0561079987
 20
149.8822249629832
 30
0.0
 10
101.0665405696204
 20
149.8838376405073
 30
0.0
 10
101.07713001755
 20
149.8841602823412
 30
0.0
 10
101.0877194645498
 20
149.8844829243407
 30
0.0
 10
101.10426343555
 20
149.88448073834
 30
0.0
 10
101.1208074066413
 20
149.8844785524859
 30
0.0
 10
101.1368301354176
 20
149.8810959817673
 30
0.0
 10
101.1517408252303
 20
149.8779481744579
 30
0.0
 10
101.1662001143992
 20
149.8718729227355
 30
0.0
 10
101.1791669207979
 20
149.8635967776376
 30
0.0
 10
101.1927416321596
 20
149.854932633404
 30
0.0
 10
101.2046806404064
 20
149.8438563955625
 30
0.0
 10
101.2147298204043
 20
149.8314208204926
 30
0.0
 10
101.2260718168737
 20
149.8173854217279
 30
0.0
 10
101.2350064585463
 20
149.8016184333339
 30
0.0
 10
101.2439410995452
 20
149.7858514453336
 30
0.0
 10
101.2439410995452
 20
149.7858514453336
 30
0.0
 10
102.0956750798799
 20
148.1031318182957
 30
0.0
 10
102.0956750798799
 20
148.1031318182957
 30
0.0
 10
102.0956750798799
 20
148.1031318182957
 30
0.0
 10
102.09533495254
 20
149.6767504322954
 30
0.0
 10
102.09533495254
 20
149.6767504322954
 30
0.0
 10
102.0954417985416
 20
149.6946576812956
 30
0.0
 10
102.0955486457083
 20
149.712564929723
 30
0.0
 10
102.097028423456
 20
149.7303770266058
 30
0.0
 10
102.0982878652252
 20
149.7455369375105
 30
0.0
 10
102.1005418230066
 20
149.7606279230554
 30
0.0
 10
102.1038023093151
 20
149.7755362638234
 30
0.0
 10
102.1065433570932
 20
149.7880695090106
 30
0.0
 10
102.1099957732203
 20
149.8004736692198
 30
0.0
 10
102.1150921183273
 20
149.8122281442618
 30
0.0
 10
102.1193589888711
 20
149.8220694760909
 30
0.0
 10
102.1247782092018
 20
149.831455396176
 30
0.0
 10
102.1314623418323
 20
149.8398881772792
 30
0.0
 10
102.1376072278856
 20
149.847640638499
 30
0.0
 10
102.1448211638124
 20
149.854587547345
 30
0.0
 10
102.1529129799564
 20
149.8602098344199
 30
0.0
 10
102.1615546113003
 20
149.8662141394297
 30
0.0
 10
102.17119747464
 20
149.870707698813
 30
0.0
 10
102.1811375030604
 20
149.8743220963095
 30
0.0
 10
102.1921346071693
 20
149.8783208681322
 30
0.0
 10
102.2034954413397
 20
149.8812435457971
 30
0.0
 10
102.2150069312716
 20
149.8827894532537
 30
0.0
 10
102.2282339359146
 20
149.884565741573
 30
0.0
 10
102.2416598455499
 20
149.8845243332888
 30
0.0
 10
102.2550857545497
 20
149.8844829242884
 30
0.0
 10
102.2682763965495
 20
149.8841227702876
 30
0.0
 10
102.2814670375085
 20
149.8837626160479
 30
0.0
 10
102.2946000875503
 20
149.8822249629621
 30
0.0
 10
102.3059164302813
 20
149.8809000148913
 30
0.0
 10
102.3171900132795
 20
149.8787008050735
 30
0.0
 10
102.3279050249962
 20
149.8748865870478
 30
0.0
 10
102.3376612246536
 20
149.8714136769306
 30
0.0
 10
102.3469543457652
 20
149.8666018586413
 30
0.0
 10
102.3555650579517
 20
149.8607743251348
 30
0.0
 10
102.3636640094399
 20
149.85529313959
 30
0.0
 10
102.3711592567977
 20
149.8489133850941
 30
0.0
 10
102.3775801866048
 20
149.8415816490926
 30
0.0
 10
102.3843955561385
 20
149.8337995222533
 30
0.0
 10
102.3900005626607
 20
149.8249448603884
 30
0.0
 10
102.3945149006651
 20
149.8156150873117
 30
0.0
 10
102.3997403402021
 20
149.8048156821592
 30
0.0
 10
102.4035044430624
 20
149.7933796973059
 30
0.0
 10
102.4063692002482
 20
149.7817456590675
 30
0.0
 10
102.4097031274691
 20
149.7682062788508
 30
0.0
 10
102.4118190099377
 20
149.7543986615223
 30
0.0
 10
102.4131430862286
 20
149.7405378553447
 30
0.0
 10
102.4147000884453
 20
149.7242387144967
 30
0.0
 10
102.4151621985422
 20
149.7078660252808
 30
0.0
 10
102.4156243085409
 20
149.6914933352808
 30
0.0
 10
102.4156243085409
 20
149.6914933352808
 30
0.0
 10
102.4154010474413
 20
147.4695926982814
 30
0.0
 10
102.4154010474413
 20
147.4695926982814
 30
0.0
 10
102.4148897614406
 20
147.4552517012815
 30
0.0
 10
102.4143784747801
 20
147.4409107038259
 30
0.0
 10
102.4125785954968
 20
147.426691422702
 30
0.0
 10
102.41098421097
 20
147.4140955769635
 30
0.0
 10
102.4083786777459
 20
147.4015952410927
 30
0.0
 10
102.4046757289498
 20
147.3894350520756
 30
0.0
 10
102.4014245695546
 20
147.3787585034817
 30
0.0
 10
102.3973274454811
 20
147.3683441638741
 30
0.0
 10
102.392256938787
 20
147.358388076479
 30
0.0
 10
102.3875561001029
 20
147.349157842975
 30
0.0
 10
102.3820186350214
 20
147.3403214791464
 30
0.0
 10
102.3753222246265
 20
147.3324215146884
 30
0.0
 10
102.3689325806873
 20
147.3248834521972
 30
0.0
 10
102.3614877431789
 20
147.3181979602146
 30
0.0
 10
102.3533070961447
 20
147.3126643481599
 30
0.0
 10
102.3450685611303
 20
147.3070915791023
 30
0.0
 10
102.336083766258
 20
147.3026870495403
 30
0.0
 10
102.3267760438707
 20
147.2991165770397
 30
0.0
 10
102.3165510025349
 20
147.2951942180158
 30
0.0
 10
102.3059362450942
 20
147.2922784175979
 30
0.0
 10
102.2951645782288
 20
147.290649220117
 30
0.0
 10
102.2832500948896
 20
147.2888471734624
 30
0.0
 10
102.2711436414331
 20
147.2886192152869
 30
0.0
 10
102.2590371884328
 20
147.2883912582882
 30
0.0
 10
102.242857551433
 20
147.2888767072885
 30
0.0
 10
102.2266779148644
 20
147.2893621563837
 30
0.0
 10
102.2110554981713
 20
147.2929071817558
 30
0.0
 10
102.1966136288866
 20
147.2961843183236
 30
0.0
 10
102.1826479459974
 20
147.3020760934985
 30
0.0
 10
102.169847693667
 20
147.3098418957051
 30
0.0
 10
102.1569522404591
 20
147.3176654554571
 30
0.0
 10
102.1452396178729
 20
147.3273910217616
 30
0.0
 10
102.1354137750448
 20
147.3386309098683
 30
0.0
 10
102.1245245083363
 20
147.3510872600767
 30
0.0
 10
102.115952523437
 20
147.3654034512942
 30
0.0
 10
102.1073805394373
 20
147.3797196422948
 30
0.0
 10
102.1073805394373
 20
147.3797196422948
 30
0.0
 10
101.2595483795134
 20
149.0742340333331
 30
0.0
 10
101.2595483795134
 20
149.0742340333331
 30
0.0
 10
101.2595483795134
 20
149.0742340333331
 30
0.0
 10
101.2593245674413
 20
147.4735441323333
 30
0.0
 10
101.2593245674413
 20
147.4735441323333
 30
0.0
 10
101.2585724814408
 20
147.4590164643333
 30
0.0
 10
101.2578203959568
 20
147.4444887962909
 30
0.0
 10
101.2559376246898
 20
147.4300783661382
 30
0.0
 10
101.2542690442946
 20
147.4173073186636
 30
0.0
 10
101.2517124064105
 20
147.4046283515772
 30
0.0
 10
101.2480347581881
 20
147.3922575045752
 30
0.0
 10
101.2447322313011
 20
147.3811484880627
 30
0.0
 10
101.2405257178595
 20
147.3702879406345
 30
0.0
 10
101.2350514771796
 20
147.3600815477703
 30
0.0
 10
101.2300608200179
 20
147.3507767673215
 30
0.0
 10
101.2240165197744
 20
147.3420156727765
 30
0.0
 10
101.2169877819299
 20
147.3341149860966
 30
0.0
 10
101.2101439089696
 20
147.3264220976812
 30
0.0
 10
101.2023667013756
 20
147.3195449526472
 30
0.0
 10
101.1938436726284
 20
147.313793329304
 30
0.0
 10
101.1852507876542
 20
147.3079945646535
 30
0.0
 10
101.1758998056632
 20
147.3033398472459
 30
0.0
 10
101.166183639814
 20
147.299681067717
 30
0.0
 10
101.1556021410294
 20
147.2956964330654
 30
0.0
 10
101.1445875143971
 20
147.2928930347151
 30
0.0
 10
101.1334431928805
 20
147.291213710218
 30
0.0
 10
101.1209449868563
 20
147.2893303704802
 30
0.0
 10
101.1082836594328
 20
147.2888608143399
 30
0.0
 10
101.095622331433
 20
147.2883912583396
 30
0.0
  0
ENDBLK
  5
54
330
51
100
AcDbEntity
  8
0
100
AcDbBlockEnd
  0
BLOCK
  5
58
330
56
100
AcDbEntity
  8
0
100
AcDbBlockBegin
  2
block 5
 70
     0
 10
0.0
 20
0.0
 30
0.0
  3
block 5
  1

  0
SPLINE
  5
5A
330
56
100
AcDbEntity
  8
0
 62
     7
420
 16777215
370
     5
100
AcDbSpline
210
0.0
220
0.0
230
1.0
 70
    11
 71
     3
 72
   248
 73
   244
 74
     0
 42
0.0000000001
 43
0.0000000001
 12
1.0
 22
0.0
 32
0.0
 13
1.0
 23
0.0
 33
0.0
 40
0.0
 40
0.0
 40
0.0
 40
0.0
 40
1.0
 40
1.0
 40
1.0
 40
2.0
 40
2.0
 40
2.0
 40
3.0
 40
3.0
 40
3.0
 40
4.0
 40
4.0
 40
4.0
 40
5.0
 40
5.0
 40
5.0
 40
6.0
 40
6.0
 40
6.0
 40
7.0
 40
7.0
 40
7.0
 40
8.0
 40
8.0
 40
8.0
 40
9.0
 40
9.0
 40
9.0
 40
10.0
 40
10.0
 40
10.0
 40
11.0
 40
11.0
 40
11.0
 40
12.0
 40
12.0
 40
12.0
 40
13.0
 40
13.0
 40
13.0
 40
14.0
 40
14.0
 40
14.0
 40
15.0
 40
15.0
 40
15.0
 40
16.0
 40
16.0
 40
16.0
 40
17.0
 40
17.0
 40
17.0
 40
18.0
 40
18.0
 40
18.0
 40
19.0
 40
19.0
 40
19.0
 40
20.0
 40
20.0
 40
20.0
 40
21.0
 40
21.0
 40
21.0
 40
22.0
 40
22.0
 40
22.0
 40
23.0
 40
23.0
 40
23.0
 40
24.0
 40
24.0
 40
24.0
 40
25.0
 40
25.0
 40
25.0
 40
26.0
 40
26.0
 40
26.0
 40
27.0
 40
27.0
 40
27.0
 40
28.0
 40
28.0
 40
28.0
 40
29.0
 40
29.0
 40
29.0
 40
30.0
 40
30.0
 40
30.0
 40
31.0
 40
31.0
 40
31.0
 40
32.0
 40
32.0
 40
32.0
 40
33.0
 40
33.0
 40
33.0
 40
34.0
 40
34.0
 40
34.0
 40
35.0
 40
35.0
 40
35.0
 40
36.0
 40
36.0
 40
36.0
 40
37.0
 40
37.0
 40
37.0
 40
38.0
 40
38.0
 40
38.0
 40
39.0
 40
39.0
 40
39.0
 40
40.0
 40
40.0
 40
40.0
 40
41.0
 40
41.0
 40
41.0
 40
42.0
 40
42.0
 40
42.0
 40
43.0
 40
43.0
 40
43.0
 40
44.0
 40
44.0
 40
44.0
 40
45.0
 40
45.0
 40
45.0
 40
46.0
 40
46.0
 40
46.0
 40
47.0
 40
47.0
 40
47.0
 40
48.0
 40
48.0
 40
48.0
 40
49.0
 40
49.0
 40
49.0
 40
50.0
 40
50.0
 40
50.0
 40
51.0
 40
51.0
 40
51.0
 40
52.0
 40
52.0
 40
52.0
 40
53.0
 40
53.0
 40
53.0
 40
54.0
 40
54.0
 40
54.0
 40
55.0
 40
55.0
 40
55.0
 40
56.0
 40
56.0
 40
56.0
 40
57.0
 40
57.0
 40
57.0
 40
58.0
 40
58.0
 40
58.0
 40
59.0
 40
59.0
 40
59.0
 40
60.0
 40
60.0
 40
60.0
 40
61.0
 40
61.0
 40
61.0
 40
62.0
 40
62.0
 40
62.0
 40
63.0
 40
63.0
 40
63.0
 40
64.0
 40
64.0
 40
64.0
 40
65.0
 40
65.0
 40
65.0
 40
66.0
 40
66.0
 40
66.0
 40
67.0
 40
67.0
 40
67.0
 40
68.0
 40
68.0
 40
68.0
 40
69.0
 40
69.0
 40
69.0
 40
70.0
 40
70.0
 40
70.0
 40
71.0
 40
71.0
 40
71.0
 40
72.0
 40
72.0
 40
72.0
 40
73.0
 40
73.0
 40
73.0
 40
74.0
 40
74.0
 40
74.0
 40
75.0
 40
75.0
 40
75.0
 40
76.0
 40
76.0
 40
76.0
 40
77.0
 40
77.0
 40
77.0
 40
78.0
 40
78.0
 40
78.0
 40
79.0
 40
79.0
 40
79.0
 40
80.0
 40
80.0
 40
80.0
 40
81.0
 40
81.0
 40
81.0
 40
81.0
 10
103.0916606294439
 20
147.5294286882504
 30
0.0
 10
103.0805769014448
 20
147.5428426492517
 30
0.0
 10
103.0694931728598
 20
147.5562566109151
 30
0.0
 10
103.0589201828382
 20
147.5700720019369
 30
0.0
 10
103.0480057564053
 20
147.5843335370984
 30
0.0
 10
103.037635587997
 20
147.5990228471819
 30
0.0
 10
103.0278732066634
 20
147.6141022590314
 30
0.0
 10
103.0176460417216
 20
147.6298995964791
 30
0.0
 10
103.0080859145776
 20
147.6461250651496
 30
0.0
 10
102.9990841924002
 20
147.6626484392906
 30
0.0
 10
102.9897028351867
 20
147.6798686636158
 30
0.0
 10
102.9809279760214
 20
147.6974124507632
 30
0.0
 10
102.9725531409937
 20
147.7151460520115
 30
0.0
 10
102.9637724082718
 20
147.7337391362018
 30
0.0
 10
102.9554314147605
 20
147.7525408795563
 30
0.0
 10
102.9477155602523
 20
147.77159509958
 30
0.0
 10
102.9395817904706
 20
147.7916813568908
 30
0.0
 10
102.9321427126751
 20
147.8120481814323
 30
0.0
 10
102.9251359414102
 20
147.8325600702388
 30
0.0
 10
102.9178627136607
 20
147.8538519938965
 30
0.0
 10
102.9110552975008
 20
147.8753002247392
 30
0.0
 10
102.9048142845701
 20
147.8969119834277
 30
0.0
 10
102.898229882081
 20
147.9197128523327
 30
0.0
 10
102.8922759261761
 20
147.9426957392203
 30
0.0
 10
102.8867505893387
 20
147.9657798209697
 30
0.0
 10
102.8749975320351
 20
148.0148824446768
 30
0.0
 10
102.8651838224188
 20
148.0644429388728
 30
0.0
 10
102.856832594301
 20
148.1142408140017
 30
0.0
 10
102.8478167675203
 20
148.1680016513241
 30
0.0
 10
102.8405054556541
 20
148.2220391549427
 30
0.0
 10
102.8348174660868
 20
148.2762495789221
 30
0.0
 10
102.8286736933338
 20
148.33480392785
 30
0.0
 10
102.8244238223923
 20
148.3935600199472
 30
0.0
 10
102.8218341853417
 20
148.452370605157
 30
0.0
 10
102.8190438288935
 20
148.5157395222766
 30
0.0
 10
102.8181810454912
 20
148.5791717072632
 30
0.0
 10
102.8173182614942
 20
148.6426038932629
 30
0.0
 10
102.8180755764968
 20
148.6981491162629
 30
0.0
 10
102.818832891939
 20
148.7536943392802
 30
0.0
 10
102.8218341854764
 20
148.809128581296
 30
0.0
 10
102.8246517357438
 20
148.8611690636852
 30
0.0
 10
102.829446915883
 20
148.9131117379257
 30
0.0
 10
102.8353819565889
 20
148.9649279504127
 30
0.0
 10
102.8409444151132
 20
149.0134913128455
 30
0.0
 10
102.8475081129598
 20
149.0619435928488
 30
0.0
 10
102.8562681039317
 20
149.1100020016488
 30
0.0
 10
102.8644614395454
 20
149.1549516681065
 30
0.0
 10
102.8745761162666
 20
149.1995567717528
 30
0.0
 10
102.8861860988142
 20
149.2437862422859
 30
0.0
 10
102.8971347165165
 20
149.2854961726913
 30
0.0
 10
102.9094131316057
 20
149.3268720470635
 30
0.0
 10
102.9240069605067
 20
149.3674096547405
 30
0.0
 10
102.9377466297963
 20
149.4055746440013
 30
0.0
 10
102.9535386077473
 20
149.442996620505
 30
0.0
 10
102.9708596692413
 20
149.4797432586869
 30
0.0
 10
102.9871767909036
 20
149.5143600381591
 30
0.0
 10
103.0048508796419
 20
149.5483774966381
 30
0.0
 10
103.0250507544558
 20
149.580787052763
 30
0.0
 10
103.0445551601867
 20
149.612080768099
 30
0.0
 10
103.066414423539
 20
149.6418753932517
 30
0.0
 10
103.0882736865403
 20
149.671670018251
 30
0.0
 10
103.1044118135405
 20
149.6899655552503
 30
0.0
 10
103.1205499398591
 20
149.7082610920459
 30
0.0
 10
103.1379488483428
 20
149.7252966127927
 30
0.0
 10
103.1551893257555
 20
149.7421770114054
 30
0.0
 10
103.173667728999
 20
149.7578202364151
 30
0.0
 10
103.1927044233744
 20
149.7727138120085
 30
0.0
 10
103.2118477667581
 20
149.7876908256739
 30
0.0
 10
103.2315556742089
 20
149.8019097668944
 30
0.0
 10
103.2519759227809
 20
149.8150505966758
 30
0.0
 10
103.2727433688991
 20
149.8284148548763
 30
0.0
 10
103.2942475853874
 20
149.8406640285489
 30
0.0
 10
103.3163278368387
 20
149.8517424775691
 30
0.0
 10
103.3380245942779
 20
149.8626285139769
 30
0.0
 10
103.360277551075
 20
149.872384139316
 30
0.0
 10
103.3829377118268
 20
149.881095981516
 30
0.0
 10
103.4043881474492
 20
149.8893427372346
 30
0.0
 10
103.4262034699522
 20
149.8966541808871
 30
0.0
 10
103.448418606292
 20
149.9025466196548
 30
0.0
 10
103.4699408270765
 20
149.9082552665063
 30
0.0
 10
103.491838309369
 20
149.9126320487165
 30
0.0
 10
103.5138995006243
 20
149.9155299004032
 30
0.0
 10
103.5352590400379
 20
149.9183355864873
 30
0.0
 10
103.5567720405512
 20
149.9197549202294
 30
0.0
 10
103.578285040551
 20
149.9211742542286
 30
0.0
 10
103.578285040551
 20
149.9211742542286
 30
0.0
 10
103.5782514135507
 20
149.9206103142285
 30
0.0
 10
103.5782514135507
 20
149.9206103142285
 30
0.0
 10
103.5965410495508
 20
149.9198790452284
 30
0.0
 10
103.6148306846615
 20
149.919147776032
 30
0.0
 10
103.6330069896065
 20
149.9172233721347
 30
0.0
 10
103.6513937640429
 20
149.915276684923
 30
0.0
 10
103.6696645685434
 20
149.9121090716251
 30
0.0
 10
103.687762565034
 20
149.9081915245909
 30
0.0
 10
103.706427484786
 20
149.9041512596334
 30
0.0
 10
103.724908600469
 20
149.8993133414135
 30
0.0
 10
103.7430826306665
 20
149.8935147721001
 30
0.0
 10
103.7620270490601
 20
149.8874704042869
 30
0.0
 10
103.7806377957713
 20
149.8803822161605
 30
0.0
 10
103.7989671873261
 20
149.8726286245276
 30
0.0
 10
103.8175855689661
 20
149.8647527860059
 30
0.0
 10
103.8359136535455
 20
149.8561903964211
 30
0.0
 10
103.8537227627113
 20
149.8466620634111
 30
0.0
 10
103.8715040354822
 20
149.8371486235909
 30
0.0
 10
103.8887679539324
 20
149.8266722576062
 30
0.0
 10
103.9056558861416
 20
149.8156150873075
 30
0.0
 10
103.9227076549211
 20
149.8044506469862
 30
0.0
 10
103.9393761068868
 20
149.7926940784585
 30
0.0
 10
103.9553310474339
 20
149.780052187479
 30
0.0
 10
103.9714331036012
 20
149.7672937294932
 30
0.0
 10
103.9868084295442
 20
149.7536335472104
 30
0.0
 10
104.0021837565435
 20
149.7399733642096
 30
0.0
 10
104.0159723025429
 20
149.725697512209
 30
0.0
 10
104.0297608485679
 20
149.7114216601365
 30
0.0
 10
104.0428270700196
 20
149.6965075987226
 30
0.0
 10
104.0560481618991
 20
149.6814167649279
 30
0.0
 10
104.0685297046876
 20
149.6656725030815
 30
0.0
 10
104.0806479312373
 20
149.6496548894872
 30
0.0
 10
104.0930358123449
 20
149.6332808522458
 30
0.0
 10
104.1050440283053
 20
149.6166211626699
 30
0.0
 10
104.1162108309765
 20
149.5994152374412
 30
0.0
 10
104.1276444587717
 20
149.5817981852981
 30
0.0
 10
104.1381959825814
 20
149.5636084815793
 30
0.0
 10
104.1483867877243
 20
149.5452241532088
 30
0.0
 10
104.1588789036677
 20
149.5262962567277
 30
0.0
 10
104.1689886549169
 20
149.5071620565466
 30
0.0
 10
104.1783047825895
 20
149.4876461247593
 30
0.0
 10
104.1878507490861
 20
149.4676487140823
 30
0.0
 10
104.1965634498744
 20
149.4472505040012
 30
0.0
 10
104.2048358342308
 20
149.4266811539866
 30
0.0
 10
104.2134588616781
 20
149.4052399271128
 30
0.0
 10
104.2216034540413
 20
149.3836127445433
 30
0.0
 10
104.2291089245574
 20
149.3617647500647
 30
0.0
 10
104.2368620033301
 20
149.3391959821451
 30
0.0
 10
104.243933094926
 20
149.316391592659
 30
0.0
 10
104.2505595626192
 20
149.2934614036751
 30
0.0
 10
104.2574792479456
 20
149.2695165661558
 30
0.0
 10
104.2639140900516
 20
149.245434549701
 30
0.0
 10
104.2697522380861
 20
149.2212066238979
 30
0.0
 10
104.2758390532011
 20
149.1959467462574
 30
0.0
 10
104.2812772611568
 20
149.1705282649833
 30
0.0
 10
104.2861224616578
 20
149.1450004099112
 30
0.0
 10
104.2912104950753
 20
149.118193143706
 30
0.0
 10
104.2956445905213
 20
149.0912652657297
 30
0.0
 10
104.2996702329968
 20
149.0642782733332
 30
0.0
 10
104.3038715450858
 20
149.0361136317649
 30
0.0
 10
104.3076279785466
 20
149.0078846039785
 30
0.0
 10
104.310960042387
 20
148.9796047029337
 30
0.0
 10
104.3144568207852
 20
148.9499268360654
 30
0.0
 10
104.317486236665
 20
148.9201929419692
 30
0.0
 10
104.319991889867
 20
148.8904152087489
 30
0.0
 10
104.3226010175166
 20
148.8594077624535
 30
0.0
 10
104.3246422302442
 20
148.828352781476
 30
0.0
 10
104.3262012851027
 20
148.7972742812509
 30
0.0
 10
104.3278238684762
 20
148.7649293913578
 30
0.0
 10
104.3289241993721
 20
148.7325590264367
 30
0.0
 10
104.3295882279543
 20
148.7001819203045
 30
0.0
 10
104.3302827620253
 20
148.6663174091604
 30
0.0
 10
104.3304999854936
 20
148.6324455231951
 30
0.0
 10
104.3307172094918
 20
148.5985736361951
 30
0.0
 10
104.3305267314909
 20
148.5671460451951
 30
0.0
 10
104.3303362533751
 20
148.5357184537193
 30
0.0
 10
104.329588228016
 20
148.5043037275722
 30
0.0
 10
104.3288666289686
 20
148.4739988238693
 30
0.0
 10
104.3276261809827
 20
148.4437058925375
 30
0.0
 10
104.3262012853325
 20
148.4134207629463
 30
0.0
 10
104.3248369631948
 20
148.3844230796862
 30
0.0
 10
104.3233035421158
 20
148.3554325489488
 30
0.0
 10
104.3211208707416
 20
148.326489229812
 30
0.0
 10
104.3190174634445
 20
148.2985969921625
 30
0.0
 10
104.3163111048937
 20
148.2707485993808
 30
0.0
 10
104.3132180041016
 20
148.2429446413013
 30
0.0
 10
104.3102398461914
 20
148.2161739075772
 30
0.0
 10
104.3069031554685
 20
148.1894443674358
 30
0.0
 10
104.3030571757598
 20
148.162786994379
 30
0.0
 10
104.2993819629211
 20
148.1373132459053
 30
0.0
 10
104.295241683325
 20
148.1119053981543
 30
0.0
 10
104.2906383858582
 20
148.0865807809404
 30
0.0
 10
104.2862096469172
 20
148.0622164813918
 30
0.0
 10
104.2813523398835
 20
148.0379292198048
 30
0.0
 10
104.2759616333392
 20
148.0137615103552
 30
0.0
 10
104.2708150632158
 20
147.9906883175609
 30
0.0
 10
104.26518231317
 20
147.9677240934644
 30
0.0
 10
104.2590269191704
 20
147.9448936731379
 30
0.0
 10
104.2472975705787
 20
147.901389397291
 30
0.0
 10
104.2336704588614
 20
147.8583709739268
 30
0.0
 10
104.2178191152753
 20
147.8161898461018
 30
0.0
 10
104.2027865610421
 20
147.7761875530363
 30
0.0
 10
104.185753622412
 20
147.7369382897946
 30
0.0
 10
104.1664504828547
 20
147.6987758292927
 30
0.0
 10
104.1480044845107
 20
147.6623079437903
 30
0.0
 10
104.1274854220897
 20
147.6268324866196
 30
0.0
 10
104.1043565309989
 20
147.5932161116206
 30
0.0
 10
104.082074565469
 20
147.5608306891642
 30
0.0
 10
104.0573704034441
 20
147.5301706912077
 30
0.0
 10
104.0326662414423
 20
147.4995106932088
 30
0.0
 10
104.0175153944416
 20
147.4837950312098
 30
0.0
 10
104.0023645481173
 20
147.4680793690477
 30
0.0
 10
103.9863780228412
 20
147.4532224748362
 30
0.0
 10
103.9706159671265
 20
147.4385741888418
 30
0.0
 10
103.9540415355283
 20
147.4247607238886
 30
0.0
 10
103.9367028616638
 20
147.4120146709036
 30
0.0
 10
103.9192900735521
 20
147.3992141348504
 30
0.0
 10
103.9011064956961
 20
147.3874901555824
 30
0.0
 10
103.8825117763784
 20
147.3764517712798
 30
0.0
 10
103.8636030967891
 20
147.3652270107248
 30
0.0
 10
103.8442692747923
 20
147.3547111922753
 30
0.0
 10
103.8243692583091
 20
147.3454047955433
 30
0.0
 10
103.804874015058
 20
147.3362876941472
 30
0.0
 10
103.7848353762514
 20
147.3283313147273
 30
0.0
 10
103.7645332683639
 20
147.3211317051159
 30
0.0
 10
103.7450514375487
 20
147.3142229852345
 30
0.0
 10
103.7253269977206
 20
147.308011118185
 30
0.0
 10
103.7052617692826
 20
147.3030680099288
 30
0.0
 10
103.6855764965693
 20
147.298218504507
 30
0.0
 10
103.6655632194144
 20
147.2945901623164
 30
0.0
 10
103.6454257794038
 20
147.292342690972
 30
0.0
 10
103.625747655605
 20
147.2901464823508
 30
0.0
 10
103.6059509684331
 20
147.2892688702278
 30
0.0
 10
103.5861542804327
 20
147.2883912582279
 30
0.0
 10
103.5648370304328
 20
147.2893729782299
 30
0.0
 10
103.543519780508
 20
147.2903546988377
 30
0.0
 10
103.5223668574449
 20
147.2929071819009
 30
0.0
 10
103.5005038862523
 20
147.2955453451216
 30
0.0
 10
103.4788164591215
 20
147.2998614934338
 30
0.0
 10
103.4574504533657
 20
147.3053259721682
 30
0.0
 10
103.4354607832031
 20
147.3109499566584
 30
0.0
 10
103.4138115725754
 20
147.3177902885158
 30
0.0
 10
103.3925340491595
 20
147.3256476289505
 30
0.0
 10
103.3700676835633
 20
147.333943983716
 30
0.0
 10
103.3480157001823
 20
147.3433741689029
 30
0.0
 10
103.3264886646497
 20
147.3538721521451
 30
0.0
 10
103.3046815476813
 20
147.3645067213204
 30
0.0
 10
103.2834131272834
 20
147.3762370548681
 30
0.0
 10
103.2627012418917
 20
147.3888705612135
 30
0.0
 10
103.2419768929522
 20
147.4015116698752
 30
0.0
 10
103.2218097490187
 20
147.4150570386436
 30
0.0
 10
103.2023007616568
 20
147.4295138755969
 30
0.0
 10
103.1825255809652
 20
147.444167971048
 30
0.0
 10
103.1634266400114
 20
147.459758577709
 30
0.0
 10
103.1452872244929
 20
147.4763665843453
 30
0.0
 10
103.1267431506763
 20
147.4933450862559
 30
0.0
 10
103.1092018904435
 20
147.5113868872506
 30
0.0
 10
103.0916606294439
 20
147.5294286882504
 30
0.0
  0
ENDBLK
  5
59
330
56
100
AcDbEntity
  8
0
100
AcDbBlockEnd
  0
BLOCK
  5
5D
330
5B
100
AcDbEntity
  8
0
100
AcDbBlockBegin
  2
block 6
 70
     0
 10
0.0
 20
0.0
 30
0.0
  3
block 6
  1

  0
SPLINE
  5
5F
330
5B
100
AcDbEntity
  8
0
 62
     7
420
 16777215
370
     5
100
AcDbSpline
210
0.0
220
0.0
230
1.0
 70
    11
 71
     3
 72
   248
 73
   244
 74
     0
 42
0.0000000001
 43
0.0000000001
 12
1.0
 22
0.0
 32
0.0
 13
1.0
 23
0.0
 33
0.0
 40
0.0
 40
0.0
 40
0.0
 40
0.0
 40
1.0
 40
1.0
 40
1.0
 40
2.0
 40
2.0
 40
2.0
 40
3.0
 40
3.0
 40
3.0
 40
4.0
 40
4.0
 40
4.0
 40
5.0
 40
5.0
 40
5.0
 40
6.0
 40
6.0
 40
6.0
 40
7.0
 40
7.0
 40
7.0
 40
8.0
 40
8.0
 40
8.0
 40
9.0
 40
9.0
 40
9.0
 40
10.0
 40
10.0
 40
10.0
 40
11.0
 40
11.0
 40
11.0
 40
12.0
 40
12.0
 40
12.0
 40
13.0
 40
13.0
 40
13.0
 40
14.0
 40
14.0
 40
14.0
 40
15.0
 40
15.0
 40
15.0
 40
16.0
 40
16.0
 40
16.0
 40
17.0
 40
17.0
 40
17.0
 40
18.0
 40
18.0
 40
18.0
 40
19.0
 40
19.0
 40
19.0
 40
20.0
 40
20.0
 40
20.0
 40
21.0
 40
21.0
 40
21.0
 40
22.0
 40
22.0
 40
22.0
 40
23.0
 40
23.0
 40
23.0
 40
24.0
 40
24.0
 40
24.0
 40
25.0
 40
25.0
 40
25.0
 40
26.0
 40
26.0
 40
26.0
 40
27.0
 40
27.0
 40
27.0
 40
28.0
 40
28.0
 40
28.0
 40
29.0
 40
29.0
 40
29.0
 40
30.0
 40
30.0
 40
30.0
 40
31.0
 40
31.0
 40
31.0
 40
32.0
 40
32.0
 40
32.0
 40
33.0
 40
33.0
 40
33.0
 40
34.0
 40
34.0
 40
34.0
 40
35.0
 40
35.0
 40
35.0
 40
36.0
 40
36.0
 40
36.0
 40
37.0
 40
37.0
 40
37.0
 40
38.0
 40
38.0
 40
38.0
 40
39.0
 40
39.0
 40
39.0
 40
40.0
 40
40.0
 40
40.0
 40
41.0
 40
41.0
 40
41.0
 40
42.0
 40
42.0
 40
42.0
 40
43.0
 40
43.0
 40
43.0
 40
44.0
 40
44.0
 40
44.0
 40
45.0
 40
45.0
 40
45.0
 40
46.0
 40
46.0
 40
46.0
 40
47.0
 40
47.0
 40
47.0
 40
48.0
 40
48.0
 40
48.0
 40
49.0
 40
49.0
 40
49.0
 40
50.0
 40
50.0
 40
50.0
 40
51.0
 40
51.0
 40
51.0
 40
52.0
 40
52.0
 40
52.0
 40
53.0
 40
53.0
 40
53.0
 40
54.0
 40
54.0
 40
54.0
 40
55.0
 40
55.0
 40
55.0
 40
56.0
 40
56.0
 40
56.0
 40
57.0
 40
57.0
 40
57.0
 40
58.0
 40
58.0
 40
58.0
 40
59.0
 40
59.0
 40
59.0
 40
60.0
 40
60.0
 40
60.0
 40
61.0
 40
61.0
 40
61.0
 40
62.0
 40
62.0
 40
62.0
 40
63.0
 40
63.0
 40
63.0
 40
64.0
 40
64.0
 40
64.0
 40
65.0
 40
65.0
 40
65.0
 40
66.0
 40
66.0
 40
66.0
 40
67.0
 40
67.0
 40
67.0
 40
68.0
 40
68.0
 40
68.0
 40
69.0
 40
69.0
 40
69.0
 40
70.0
 40
70.0
 40
70.0
 40
71.0
 40
71.0
 40
71.0
 40
72.0
 40
72.0
 40
72.0
 40
73.0
 40
73.0
 40
73.0
 40
74.0
 40
74.0
 40
74.0
 40
75.0
 40
75.0
 40
75.0
 40
76.0
 40
76.0
 40
76.0
 40
77.0
 40
77.0
 40
77.0
 40
78.0
 40
78.0
 40
78.0
 40
79.0
 40
79.0
 40
79.0
 40
80.0
 40
80.0
 40
80.0
 40
81.0
 40
81.0
 40
81.0
 40
81.0
 10
107.9688582814443
 20
147.529428688031
 30
0.0
 10
107.9577745524441
 20
147.5428426490322
 30
0.0
 10
107.9466908238597
 20
147.5562566106957
 30
0.0
 10
107.9361178339961
 20
147.5700720017188
 30
0.0
 10
107.9252034077261
 20
147.584333536879
 30
0.0
 10
107.9148332396496
 20
147.5990228469624
 30
0.0
 10
107.9050708584861
 20
147.6141022588133
 30
0.0
 10
107.8948436937213
 20
147.6298995962609
 30
0.0
 10
107.885283566578
 20
147.6461250649302
 30
0.0
 10
107.8762818442446
 20
147.6626484390724
 30
0.0
 10
107.8669004868681
 20
147.6798686633963
 30
0.0
 10
107.8581256273704
 20
147.697412450545
 30
0.0
 10
107.849750792172
 20
147.7151460517933
 30
0.0
 10
107.8409700592724
 20
147.7337391359823
 30
0.0
 10
107.8326290657605
 20
147.7525408793368
 30
0.0
 10
107.8249132114062
 20
147.7715950993606
 30
0.0
 10
107.8167794417889
 20
147.7916813566713
 30
0.0
 10
107.8093403643276
 20
147.8120481812128
 30
0.0
 10
107.8023335930762
 20
147.8325600700194
 30
0.0
 10
107.7950603653415
 20
147.8538519936783
 30
0.0
 10
107.7882529488511
 20
147.8753002245198
 30
0.0
 10
107.7820119358627
 20
147.8969119832095
 30
0.0
 10
107.7754275333145
 20
147.9197128521145
 30
0.0
 10
107.7694735776541
 20
147.9426957390009
 30
0.0
 10
107.7639482409836
 20
147.9657798207502
 30
0.0
 10
107.7521951840349
 20
148.0148824444573
 30
0.0
 10
107.7423814744175
 20
148.0644429386533
 30
0.0
 10
107.7340302463013
 20
148.1142408137836
 30
0.0
 10
107.72501441952
 20
148.168001651105
 30
0.0
 10
107.7177031076538
 20
148.2220391547238
 30
0.0
 10
107.7120151180878
 20
148.2762495787033
 30
0.0
 10
107.7058713453335
 20
148.3348039276312
 30
0.0
 10
107.701621474392
 20
148.3935600197277
 30
0.0
 10
107.6990318373414
 20
148.4523706049382
 30
0.0
 10
107.6962414808938
 20
148.5157395220575
 30
0.0
 10
107.695378697491
 20
148.579171707044
 30
0.0
 10
107.6945159134939
 20
148.6426038930438
 30
0.0
 10
107.6952732284965
 20
148.6981491160438
 30
0.0
 10
107.6960305439393
 20
148.7536943390611
 30
0.0
 10
107.6990318374761
 20
148.8091285810772
 30
0.0
 10
107.7018493877448
 20
148.8611690634661
 30
0.0
 10
107.7066445678834
 20
148.9131117377069
 30
0.0
 10
107.7125796085893
 20
148.9649279501939
 30
0.0
 10
107.7181420671135
 20
149.0134913126263
 30
0.0
 10
107.7247057649592
 20
149.0619435926297
 30
0.0
 10
107.7334657559314
 20
149.11000200143
 30
0.0
 10
107.7416590915457
 20
149.1549516678877
 30
0.0
 10
107.7517737682663
 20
149.1995567715336
 30
0.0
 10
107.7633837506323
 20
149.2437862420671
 30
0.0
 10
107.7743323681633
 20
149.2854961724721
 30
0.0
 10
107.7866107829195
 20
149.3268720468447
 30
0.0
 10
107.801204611841
 20
149.3674096545211
 30
0.0
 10
107.8149442811498
 20
149.4055746437824
 30
0.0
 10
107.8307362594339
 20
149.4429966202858
 30
0.0
 10
107.8480573210886
 20
149.4797432584681
 30
0.0
 10
107.8643744429039
 20
149.5143600379403
 30
0.0
 10
107.8820485316422
 20
149.5483774964189
 30
0.0
 10
107.9022484064548
 20
149.5807870525442
 30
0.0
 10
107.9217528121871
 20
149.6120807678802
 30
0.0
 10
107.9436120755387
 20
149.6418753930328
 30
0.0
 10
107.96547133854
 20
149.6716700180318
 30
0.0
 10
107.9816094645411
 20
149.6899655550312
 30
0.0
 10
107.9977475908584
 20
149.7082610918271
 30
0.0
 10
108.0151464995108
 20
149.7252966125735
 30
0.0
 10
108.0323869770904
 20
149.7421770111862
 30
0.0
 10
108.0508653806657
 20
149.757820236196
 30
0.0
 10
108.0699020752072
 20
149.7727138117897
 30
0.0
 10
108.0890454187578
 20
149.7876908254547
 30
0.0
 10
108.1087533262086
 20
149.8019097666752
 30
0.0
 10
108.1291735746163
 20
149.815050596457
 30
0.0
 10
108.1499410205677
 20
149.8284148546575
 30
0.0
 10
108.1714452367185
 20
149.8406640283304
 30
0.0
 10
108.1935254880029
 20
149.8517424773503
 30
0.0
 10
108.2152222452785
 20
149.8626285137581
 30
0.0
 10
108.2374752020749
 20
149.8723841390972
 30
0.0
 10
108.2601353630057
 20
149.8810959812969
 30
0.0
 10
108.2815857987989
 20
149.8893427370154
 30
0.0
 10
108.3034011216324
 20
149.896654180668
 30
0.0
 10
108.3256162579599
 20
149.902546619436
 30
0.0
 10
108.3471384787322
 20
149.9082552662872
 30
0.0
 10
108.3690359606917
 20
149.9126320484977
 30
0.0
 10
108.3910971517834
 20
149.9155299001844
 30
0.0
 10
108.4124566910385
 20
149.9183355862685
 30
0.0
 10
108.4339696915511
 20
149.9197549200109
 30
0.0
 10
108.4554826925514
 20
149.9211742540097
 30
0.0
 10
108.4554826925514
 20
149.9211742540097
 30
0.0
 10
108.4554490655511
 20
149.9206103140097
 30
0.0
 10
108.4554490655511
 20
149.9206103140097
 30
0.0
 10
108.4737387005514
 20
149.9198790450089
 30
0.0
 10
108.4920283361588
 20
149.9191477758131
 30
0.0
 10
108.5102046413534
 20
149.9172233719156
 30
0.0
 10
108.5285914160433
 20
149.9152766847042
 30
0.0
 10
108.5468622205431
 20
149.9121090714062
 30
0.0
 10
108.5649602170337
 20
149.9081915243721
 30
0.0
 10
108.5836251367864
 20
149.9041512594146
 30
0.0
 10
108.6021062524687
 20
149.8993133411944
 30
0.0
 10
108.6202802826662
 20
149.8935147718813
 30
0.0
 10
108.6392247010604
 20
149.8874704040678
 30
0.0
 10
108.6578354477716
 20
149.8803822159414
 30
0.0
 10
108.6761648393258
 20
149.8726286243088
 30
0.0
 10
108.6947832209651
 20
149.8647527857868
 30
0.0
 10
108.7131113055452
 20
149.8561903962026
 30
0.0
 10
108.7309204145448
 20
149.846662063192
 30
0.0
 10
108.7487016871489
 20
149.8371486233721
 30
0.0
 10
108.765965605268
 20
149.8266722573874
 30
0.0
 10
108.7828535373097
 20
149.8156150870884
 30
0.0
 10
108.7999053059217
 20
149.8044506467674
 30
0.0
 10
108.8165737578873
 20
149.7926940782394
 30
0.0
 10
108.8325286986809
 20
149.7800521872596
 30
0.0
 10
108.8486307550978
 20
149.7672937292743
 30
0.0
 10
108.864006081544
 20
149.7536335469916
 30
0.0
 10
108.8793814075435
 20
149.7399733639908
 30
0.0
 10
108.8931699535429
 20
149.7256975119902
 30
0.0
 10
108.9069584995679
 20
149.7114216599177
 30
0.0
 10
108.9200247211825
 20
149.6965075985038
 30
0.0
 10
108.933245813227
 20
149.6814167647088
 30
0.0
 10
108.9457273563472
 20
149.6656725028624
 30
0.0
 10
108.9578455830656
 20
149.6496548892683
 30
0.0
 10
108.9702334643453
 20
149.633280852027
 30
0.0
 10
108.9822416803057
 20
149.6166211624511
 30
0.0
 10
108.9934084828158
 20
149.5994152372227
 30
0.0
 10
109.0048421104468
 20
149.581798185079
 30
0.0
 10
109.015393633924
 20
149.5636084813605
 30
0.0
 10
109.0255844388982
 20
149.5452241529897
 30
0.0
 10
109.0360765546677
 20
149.5262962565086
 30
0.0
 10
109.0461863059168
 20
149.5071620563274
 30
0.0
 10
109.0555024337492
 20
149.4876461245405
 30
0.0
 10
109.0650484004095
 20
149.4676487138634
 30
0.0
 10
109.0737611015295
 20
149.4472505037821
 30
0.0
 10
109.0820334860547
 20
149.4266811537675
 30
0.0
 10
109.0906565136791
 20
149.405239926894
 30
0.0
 10
109.0988011060411
 20
149.3836127443245
 30
0.0
 10
109.1063065763999
 20
149.3617647498458
 30
0.0
 10
109.1140596550089
 20
149.3391959819263
 30
0.0
 10
109.1211307462725
 20
149.3163915924402
 30
0.0
 10
109.1277572139522
 20
149.2934614034566
 30
0.0
 10
109.1346768992644
 20
149.269516565937
 30
0.0
 10
109.1411117417042
 20
149.2454345494822
 30
0.0
 10
109.1469498899081
 20
149.2212066236784
 30
0.0
 10
109.1530367052008
 20
149.1959467460383
 30
0.0
 10
109.1584749131565
 20
149.1705282647641
 30
0.0
 10
109.1633201136582
 20
149.1450004096924
 30
0.0
 10
109.168408147075
 20
149.1181931434869
 30
0.0
 10
109.172842242521
 20
149.0912652655109
 30
0.0
 10
109.1768678849972
 20
149.0642782731144
 30
0.0
 10
109.1810691970856
 20
149.0361136315458
 30
0.0
 10
109.1848256305456
 20
149.0078846037594
 30
0.0
 10
109.1881576943874
 20
148.9796047027145
 30
0.0
 10
109.1916544727849
 20
148.9499268358469
 30
0.0
 10
109.194683888666
 20
148.92019294175
 30
0.0
 10
109.1971895418674
 20
148.8904152085298
 30
0.0
 10
109.1997986695163
 20
148.8594077622347
 30
0.0
 10
109.2018398822439
 20
148.8283527812568
 30
0.0
 10
109.2033989371025
 20
148.7972742810318
 30
0.0
 10
109.2050215204753
 20
148.764929391139
 30
0.0
 10
109.2061218513731
 20
148.7325590262179
 30
0.0
 10
109.2067858799541
 20
148.7001819200857
 30
0.0
 10
109.2074804140244
 20
148.6663174089416
 30
0.0
 10
109.2076976374939
 20
148.6324455229763
 30
0.0
 10
109.2079148604924
 20
148.5985736359763
 30
0.0
 10
109.2077243824909
 20
148.5671460449763
 30
0.0
 10
109.2075339048833
 20
148.5357184535001
 30
0.0
 10
109.2067858795986
 20
148.5043037273531
 30
0.0
 10
109.2060642806225
 20
148.4739988236504
 30
0.0
 10
109.2048238323022
 20
148.4437058923183
 30
0.0
 10
109.2033989366667
 20
148.4134207627272
 30
0.0
 10
109.2020346145419
 20
148.384423079467
 30
0.0
 10
109.2005011937953
 20
148.3554325487303
 30
0.0
 10
109.1983185225848
 20
148.3264892295932
 30
0.0
 10
109.1962151154443
 20
148.298596991943
 30
0.0
 10
109.193508756894
 20
148.270748599162
 30
0.0
 10
109.1904156561019
 20
148.2429446410821
 30
0.0
 10
109.1874374981911
 20
148.2161739073584
 30
0.0
 10
109.1841008074682
 20
148.189444367217
 30
0.0
 10
109.1802548275824
 20
148.1627869941608
 30
0.0
 10
109.176579614573
 20
148.1373132456871
 30
0.0
 10
109.1724393346451
 20
148.1119053979349
 30
0.0
 10
109.1678360371918
 20
148.0865807807222
 30
0.0
 10
109.163407298265
 20
148.0622164811736
 30
0.0
 10
109.1585499915649
 20
148.0379292195854
 30
0.0
 10
109.1531592851829
 20
148.0137615101358
 30
0.0
 10
109.1480127152155
 20
147.9906883173427
 30
0.0
 10
109.1423799651703
 20
147.967724093245
 30
0.0
 10
109.1362245710976
 20
147.9448936729197
 30
0.0
 10
109.1244952223667
 20
147.9013893970716
 30
0.0
 10
109.1108681102451
 20
147.8583709737086
 30
0.0
 10
109.0950167664617
 20
147.8161898458836
 30
0.0
 10
109.079984212042
 20
147.7761875528182
 30
0.0
 10
109.062951273412
 20
147.7369382895764
 30
0.0
 10
109.0436481340321
 20
147.6987758290732
 30
0.0
 10
109.0252021358584
 20
147.6623079435721
 30
0.0
 10
109.0046830737698
 20
147.6268324864001
 30
0.0
 10
108.9815541828414
 20
147.5932161114024
 30
0.0
 10
108.9592722174694
 20
147.560830688946
 30
0.0
 10
108.9345680554438
 20
147.5301706909882
 30
0.0
 10
108.9098638934427
 20
147.4995106929894
 30
0.0
 10
108.894713046442
 20
147.4837950309903
 30
0.0
 10
108.879562200117
 20
147.4680793688282
 30
0.0
 10
108.8635756748416
 20
147.453222474618
 30
0.0
 10
108.8478136191268
 20
147.4385741886223
 30
0.0
 10
108.831239187528
 20
147.4247607236705
 30
0.0
 10
108.8139005136642
 20
147.4120146706841
 30
0.0
 10
108.7964877255518
 20
147.3992141346322
 30
0.0
 10
108.7783041476965
 20
147.387490155363
 30
0.0
 10
108.7597094283787
 20
147.3764517710616
 30
0.0
 10
108.7408007487895
 20
147.3652270105054
 30
0.0
 10
108.7214669267927
 20
147.3547111920559
 30
0.0
 10
108.7015669103088
 20
147.3454047953251
 30
0.0
 10
108.6820716670577
 20
147.3362876939278
 30
0.0
 10
108.6620330282518
 20
147.3283313145091
 30
0.0
 10
108.6417309203636
 20
147.3211317048965
 30
0.0
 10
108.6222490895484
 20
147.3142229850164
 30
0.0
 10
108.6025246497203
 20
147.3080111179668
 30
0.0
 10
108.582459421283
 20
147.3030680097093
 30
0.0
 10
108.5627741485696
 20
147.2982185042875
 30
0.0
 10
108.5427608714141
 20
147.294590162097
 30
0.0
 10
108.5226234311472
 20
147.2923426907525
 30
0.0
 10
108.5029453070991
 20
147.2901464821314
 30
0.0
 10
108.483148619433
 20
147.2892688700083
 30
0.0
 10
108.463351932433
 20
147.2883912580097
 30
0.0
 10
108.4420346824331
 20
147.2893729780104
 30
0.0
 10
108.420717432509
 20
147.2903546986195
 30
0.0
 10
108.3995645094447
 20
147.2929071816814
 30
0.0
 10
108.377701538252
 20
147.2955453449034
 30
0.0
 10
108.3560141111219
 20
147.2998614932143
 30
0.0
 10
108.3346481053661
 20
147.3053259719488
 30
0.0
 10
108.3126584352034
 20
147.310949956439
 30
0.0
 10
108.2910092245764
 20
147.3177902882976
 30
0.0
 10
108.2697317011598
 20
147.3256476287311
 30
0.0
 10
108.247265335563
 20
147.3339439834978
 30
0.0
 10
108.2252133521827
 20
147.3433741686847
 30
0.0
 10
108.2036863164858
 20
147.3538721519269
 30
0.0
 10
108.1818791993512
 20
147.364506721101
 30
0.0
 10
108.160610778619
 20
147.3762370546499
 30
0.0
 10
108.1398988930598
 20
147.3888705609953
 30
0.0
 10
108.1191745439521
 20
147.401511669657
 30
0.0
 10
108.0990074000193
 20
147.4150570384242
 30
0.0
 10
108.0794984128197
 20
147.4295138753774
 30
0.0
 10
108.0597232322924
 20
147.4441679708285
 30
0.0
 10
108.0406242916716
 20
147.4597585774895
 30
0.0
 10
108.0224848760768
 20
147.4763665841271
 30
0.0
 10
108.0039408021819
 20
147.4933450860377
 30
0.0
 10
107.9863995414435
 20
147.5113868870311
 30
0.0
 10
107.9688582814443
 20
147.529428688031
 30
0.0
  0
ENDBLK
  5
5E
330
5B
100
AcDbEntity
  8
0
100
AcDbBlockEnd
  0
BLOCK
  5
62
330
60
100
AcDbEntity
  8
0
100
AcDbBlockBegin
  2
block 7
 70
     0
 10
0.0
 20
0.0
 30
0.0
  3
block 7
  1

  0
SPLINE
  5
64
330
60
100
AcDbEntity
  8
0
 62
     7
420
 16777215
370
     5
100
AcDbSpline
210
0.0
220
0.0
230
1.0
 70
    11
 71
     3
 72
   200
 73
   196
 74
     0
 42
0.0000000001
 43
0.0000000001
 12
1.0
 22
0.0
 32
0.0
 13
1.0
 23
0.0
 33
0.0
 40
0.0
 40
0.0
 40
0.0
 40
0.0
 40
1.0
 40
1.0
 40
1.0
 40
2.0
 40
2.0
 40
2.0
 40
3.0
 40
3.0
 40
3.0
 40
4.0
 40
4.0
 40
4.0
 40
5.0
 40
5.0
 40
5.0
 40
6.0
 40
6.0
 40
6.0
 40
7.0
 40
7.0
 40
7.0
 40
8.0
 40
8.0
 40
8.0
 40
9.0
 40
9.0
 40
9.0
 40
10.0
 40
10.0
 40
10.0
 40
11.0
 40
11.0
 40
11.0
 40
12.0
 40
12.0
 40
12.0
 40
13.0
 40
13.0
 40
13.0
 40
14.0
 40
14.0
 40
14.0
 40
15.0
 40
15.0
 40
15.0
 40
16.0
 40
16.0
 40
16.0
 40
17.0
 40
17.0
 40
17.0
 40
18.0
 40
18.0
 40
18.0
 40
19.0
 40
19.0
 40
19.0
 40
20.0
 40
20.0
 40
20.0
 40
21.0
 40
21.0
 40
21.0
 40
22.0
 40
22.0
 40
22.0
 40
23.0
 40
23.0
 40
23.0
 40
24.0
 40
24.0
 40
24.0
 40
25.0
 40
25.0
 40
25.0
 40
26.0
 40
26.0
 40
26.0
 40
27.0
 40
27.0
 40
27.0
 40
28.0
 40
28.0
 40
28.0
 40
29.0
 40
29.0
 40
29.0
 40
30.0
 40
30.0
 40
30.0
 40
31.0
 40
31.0
 40
31.0
 40
32.0
 40
32.0
 40
32.0
 40
33.0
 40
33.0
 40
33.0
 40
34.0
 40
34.0
 40
34.0
 40
35.0
 40
35.0
 40
35.0
 40
36.0
 40
36.0
 40
36.0
 40
37.0
 40
37.0
 40
37.0
 40
38.0
 40
38.0
 40
38.0
 40
39.0
 40
39.0
 40
39.0
 40
40.0
 40
40.0
 40
40.0
 40
41.0
 40
41.0
 40
41.0
 40
42.0
 40
42.0
 40
42.0
 40
43.0
 40
43.0
 40
43.0
 40
44.0
 40
44.0
 40
44.0
 40
45.0
 40
45.0
 40
45.0
 40
46.0
 40
46.0
 40
46.0
 40
47.0
 40
47.0
 40
47.0
 40
48.0
 40
48.0
 40
48.0
 40
49.0
 40
49.0
 40
49.0
 40
50.0
 40
50.0
 40
50.0
 40
51.0
 40
51.0
 40
51.0
 40
52.0
 40
52.0
 40
52.0
 40
53.0
 40
53.0
 40
53.0
 40
54.0
 40
54.0
 40
54.0
 40
55.0
 40
55.0
 40
55.0
 40
56.0
 40
56.0
 40
56.0
 40
57.0
 40
57.0
 40
57.0
 40
58.0
 40
58.0
 40
58.0
 40
59.0
 40
59.0
 40
59.0
 40
60.0
 40
60.0
 40
60.0
 40
61.0
 40
61.0
 40
61.0
 40
62.0
 40
62.0
 40
62.0
 40
63.0
 40
63.0
 40
63.0
 40
64.0
 40
64.0
 40
64.0
 40
65.0
 40
65.0
 40
65.0
 40
65.0
 10
103.5782850405369
 20
149.6005431162288
 30
0.0
 10
103.5909523245369
 20
149.5994685762284
 30
0.0
 10
103.603619608293
 20
149.5983940354187
 30
0.0
 10
103.6160722754274
 20
149.5960282948964
 30
0.0
 10
103.6291647197524
 20
149.5935410103858
 30
0.0
 10
103.6420199283642
 20
149.5896264427433
 30
0.0
 10
103.6544576272916
 20
149.5847384856351
 30
0.0
 10
103.6677207972984
 20
149.5795261222796
 30
0.0
 10
103.6805091996236
 20
149.573206877154
 30
0.0
 10
103.6928429788529
 20
149.5661102999969
 30
0.0
 10
103.7061488165903
 20
149.5584544223947
 30
0.0
 10
103.7189255472143
 20
149.5498938571269
 30
0.0
 10
103.7312283307318
 20
149.5407082293598
 30
0.0
 10
103.7441906531558
 20
149.5310301700319
 30
0.0
 10
103.7566268508078
 20
149.5206582339802
 30
0.0
 10
103.768484702238
 20
149.5096612535472
 30
0.0
 10
103.7805882188453
 20
149.4984364430411
 30
0.0
 10
103.7920891772055
 20
149.4865604211457
 30
0.0
 10
103.8029186208229
 20
149.4740983537312
 30
0.0
 10
103.814182932031
 20
149.4611358590163
 30
0.0
 10
103.8247207149254
 20
149.4475393072429
 30
0.0
 10
103.8345300867901
 20
149.4334550400277
 30
0.0
 10
103.8446424995637
 20
149.4189356675676
 30
0.0
 10
103.853980800528
 20
149.4038979802166
 30
0.0
 10
103.8633191005272
 20
149.3888602932159
 30
0.0
 10
103.8750420865265
 20
149.3655341562155
 30
0.0
 10
103.8867650730418
 20
149.3422080196534
 30
0.0
 10
103.8971885291657
 20
149.3182989841791
 30
0.0
 10
103.9082748699977
 20
149.292869442091
 30
0.0
 10
103.9178911361161
 20
149.2667805041492
 30
0.0
 10
103.926542033152
 20
149.240399299845
 30
0.0
 10
103.9358246119736
 20
149.2120917604837
 30
0.0
 10
103.9439956935493
 20
149.1834477143268
 30
0.0
 10
103.9513796137388
 20
149.1545967483409
 30
0.0
 10
103.9593157024972
 20
149.1235883109599
 30
0.0
 10
103.9663425003928
 20
149.0923408497736
 30
0.0
 10
103.9722657611637
 20
149.0608913301996
 30
0.0
 10
103.9785757200953
 20
149.0273886389329
 30
0.0
 10
103.9836333504004
 20
148.9936566454552
 30
0.0
 10
103.9880714941935
 20
148.9598475370703
 30
0.0
 10
103.992827168182
 20
148.9236195316765
 30
0.0
 10
103.9968715414193
 20
148.8873029821581
 30
0.0
 10
103.9999257938953
 20
148.8509008758899
 30
0.0
 10
104.0031721390429
 20
148.8122093132278
 30
0.0
 10
104.0052999025635
 20
148.7734210934594
 30
0.0
 10
104.0066996795767
 20
148.734615839081
 30
0.0
 10
104.008192442516
 20
148.6932327866287
 30
0.0
 10
104.0088572874948
 20
148.6518303612095
 30
0.0
 10
104.0095221324928
 20
148.6104279362094
 30
0.0
 10
104.0091856124907
 20
148.5660077172094
 30
0.0
 10
104.0088490930917
 20
148.5215874986079
 30
0.0
 10
104.0072641702052
 20
148.4772081854855
 30
0.0
 10
104.005784335047
 20
148.4357714263446
 30
0.0
 10
104.0032161579055
 20
148.3943703280697
 30
0.0
 10
103.9999257939069
 20
148.353020282207
 30
0.0
 10
103.9968639467315
 20
148.3145420101533
 30
0.0
 10
103.9931767415548
 20
148.2761079455422
 30
0.0
 10
103.988071494155
 20
148.2378642266738
 30
0.0
 10
103.9833281911416
 20
148.2023318552293
 30
0.0
 10
103.977360786951
 20
148.1669637965554
 30
0.0
 10
103.9705722897383
 20
148.1317400184962
 30
0.0
 10
103.9642539823808
 20
148.0989559354985
 30
0.0
 10
103.9572243852406
 20
148.0662968387383
 30
0.0
 10
103.9485571612552
 20
148.0340831672954
 30
0.0
 10
103.9405657030659
 20
148.0043811301824
 30
0.0
 10
103.9311820277505
 20
147.9750577683201
 30
0.0
 10
103.920897128136
 20
147.9460226541011
 30
0.0
 10
103.9113311025843
 20
147.919016980257
 30
0.0
 10
103.9009854339117
 20
147.8922606675243
 30
0.0
 10
103.8887211713337
 20
147.8664294978397
 30
0.0
 10
103.8773935381987
 20
147.8425710708239
 30
0.0
 10
103.8644291694569
 20
147.8195018752165
 30
0.0
 10
103.8514648004558
 20
147.7964326802162
 30
0.0
 10
103.8429966564552
 20
147.7829795372166
 30
0.0
 10
103.8345285115306
 20
147.7695263941093
 30
0.0
 10
103.8249337487214
 20
147.756918347344
 30
0.0
 10
103.8155774661282
 20
147.7446236767174
 30
0.0
 10
103.8051498743792
 20
147.7331326143619
 30
0.0
 10
103.7944512637635
 20
147.7219199384424
 30
0.0
 10
103.7837764190089
 20
147.7107321703265
 30
0.0
 10
103.7728317581307
 20
147.6998215532077
 30
0.0
 10
103.7611463257426
 20
147.6897439811536
 30
0.0
 10
103.7495515334793
 20
147.6797445775692
 30
0.0
 10
103.7372274169875
 20
147.6705653458494
 30
0.0
 10
103.7244544450286
 20
147.6620839481269
 30
0.0
 10
103.7120750041127
 20
147.6538638594643
 30
0.0
 10
103.6992739398374
 20
147.6462992671417
 30
0.0
 10
103.6860690933287
 20
147.6395043297379
 30
0.0
 10
103.6740027708773
 20
147.6332952529665
 30
0.0
 10
103.6615992928516
 20
147.6277288331153
 30
0.0
 10
103.6488127221839
 20
147.6231341060808
 30
0.0
 10
103.6365076078316
 20
147.6187123855864
 30
0.0
 10
103.6238477070892
 20
147.6151905607006
 30
0.0
 10
103.6109918610541
 20
147.6129732772931
 30
0.0
 10
103.5988772356013
 20
147.6108838342527
 30
0.0
 10
103.5865886084475
 20
147.6099528392289
 30
0.0
 10
103.5742999804479
 20
147.6090218442295
 30
0.0
 10
103.5627546244475
 20
147.6097463932295
 30
0.0
 10
103.5512092675263
 20
147.6104709430099
 30
0.0
 10
103.5398660620228
 20
147.6124087872318
 30
0.0
 10
103.5286001096078
 20
147.6143334337349
 30
0.0
 10
103.5175335644769
 20
147.6174549046332
 30
0.0
 10
103.5065611241707
 20
147.6208761441558
 30
0.0
 10
103.4952117447741
 20
147.6244149144061
 30
0.0
 10
103.4839630468737
 20
147.6282744031103
 30
0.0
 10
103.4732561864494
 20
147.6332949344399
 30
0.0
 10
103.4622892024614
 20
147.6384374397599
 30
0.0
 10
103.4518907036893
 20
147.6447980881558
 30
0.0
 10
103.441644720377
 20
147.6513586292266
 30
0.0
 10
103.4308039512156
 20
147.6583000138799
 30
0.0
 10
103.420133918711
 20
147.665465172618
 30
0.0
 10
103.4100332543206
 20
147.6733737576853
 30
0.0
 10
103.399339453881
 20
147.6817467544724
 30
0.0
 10
103.389283854338
 20
147.6909530528409
 30
0.0
 10
103.3795507689534
 20
147.7004693004608
 30
0.0
 10
103.3691637431043
 20
147.710624919783
 30
0.0
 10
103.359144025048
 20
147.7211335368638
 30
0.0
 10
103.3496327736493
 20
147.7320807666282
 30
0.0
 10
103.3394605433115
 20
147.7437887678211
 30
0.0
 10
103.3298699064539
 20
147.7559984622405
 30
0.0
 10
103.3202792694554
 20
147.7682081562401
 30
0.0
 10
103.3057560874556
 20
147.7900698322416
 30
0.0
 10
103.2912329053021
 20
147.8119315078079
 30
0.0
 10
103.2785069746231
 20
147.8348180314823
 30
0.0
 10
103.264404181154
 20
147.8601807279118
 30
0.0
 10
103.2525085792809
 20
147.8868020329239
 30
0.0
 10
103.2418150940875
 20
147.9138466973359
 30
0.0
 10
103.2300937999142
 20
147.943490771429
 30
0.0
 10
103.2198168117212
 20
147.9736434987382
 30
0.0
 10
103.2107681184832
 20
148.0041651727697
 30
0.0
 10
103.2007281796374
 20
148.0380303655355
 30
0.0
 10
103.1922003845191
 20
148.0723497655512
 30
0.0
 10
103.1848015571521
 20
148.1069024382309
 30
0.0
 10
103.1767145841918
 20
148.1446687646724
 30
0.0
 10
103.1699763496541
 20
148.1827137738373
 30
0.0
 10
103.1644799001246
 20
148.2209295127711
 30
0.0
 10
103.1585752146363
 20
148.2619836365062
 30
0.0
 10
103.1541036257411
 20
148.3032347929402
 30
0.0
 10
103.1503676387173
 20
148.3445529255856
 30
0.0
 10
103.1463415293352
 20
148.3890796652202
 30
0.0
 10
103.1431697058694
 20
148.4336841871942
 30
0.0
 10
103.1413357911186
 20
148.4783371666803
 30
0.0
 10
103.1393666945736
 20
148.5262816131543
 30
0.0
 10
103.138940016491
 20
148.5742819242485
 30
0.0
 10
103.1385133384932
 20
148.6222822362487
 30
0.0
 10
103.1390592714955
 20
148.6653856182485
 30
0.0
 10
103.1396052041364
 20
148.7084889998987
 30
0.0
 10
103.1413357908036
 20
148.7515505539358
 30
0.0
 10
103.1429711698965
 20
148.7922430928035
 30
0.0
 10
103.1456644419112
 20
148.8328982797238
 30
0.0
 10
103.1492386577343
 20
148.8734804946309
 30
0.0
 10
103.1526121717873
 20
148.9117839097161
 30
0.0
 10
103.156770472675
 20
148.9500223178456
 30
0.0
 10
103.1622219384345
 20
148.9880720594819
 30
0.0
 10
103.167367760014
 20
149.0239884882447
 30
0.0
 10
103.1736658052027
 20
149.059736813162
 30
0.0
 10
103.1808501241744
 20
149.0953252493646
 30
0.0
 10
103.1875099267428
 20
149.1283154269714
 30
0.0
 10
103.1949313160973
 20
149.1611682100911
 30
0.0
 10
103.2039942333556
 20
149.1935465908121
 30
0.0
 10
103.2122510513225
 20
149.2230450831911
 30
0.0
 10
103.2218703728925
 20
149.2521498113357
 30
0.0
 10
103.2322187567029
 20
149.2810426135123
 30
0.0
 10
103.241622839897
 20
149.3072989179136
 30
0.0
 10
103.2516290006981
 20
149.3333802086154
 30
0.0
 10
103.2638302228362
 20
149.3583778077457
 30
0.0
 10
103.2748640960467
 20
149.3809837677266
 30
0.0
 10
103.287693099528
 20
149.4027034802417
 30
0.0
 10
103.3005221035291
 20
149.4244231922413
 30
0.0
 10
103.30928515353
 20
149.4364978042408
 30
0.0
 10
103.3180482041117
 20
149.4485724161371
 30
0.0
 10
103.327617645867
 20
149.4599860921715
 30
0.0
 10
103.3372751611812
 20
149.4715048154068
 30
0.0
 10
103.34775397942
 20
149.4823503807824
 30
0.0
 10
103.3586646214257
 20
149.4927265394243
 30
0.0
 10
103.3695024421687
 20
149.5030334441245
 30
0.0
 10
103.3807663416448
 20
149.5128771871344
 30
0.0
 10
103.3925340493821
 20
149.5220800435553
 30
0.0
 10
103.4046639249428
 20
149.5315661308793
 30
0.0
 10
103.4173290967878
 20
149.5403712761941
 30
0.0
 10
103.4303549112486
 20
149.5486110953587
 30
0.0
 10
103.4429697376855
 20
149.5565909333134
 30
0.0
 10
103.4559228079085
 20
149.5640405564528
 30
0.0
 10
103.4693047533004
 20
149.5706262237513
 30
0.0
 10
103.481564998974
 20
149.5766598680866
 30
0.0
 10
103.4941852348992
 20
149.5819683231265
 30
0.0
 10
103.5071256147504
 20
149.5864319569499
 30
0.0
 10
103.5189261834804
 20
149.5905024261579
 30
0.0
 10
103.5309929822734
 20
149.5938703463326
 30
0.0
 10
103.5432530049373
 20
149.5960282946583
 30
0.0
 10
103.5548047787269
 20
149.5980615805335
 30
0.0
 10
103.5665280965367
 20
149.5990206542294
 30
0.0
 10
103.5782514135366
 20
149.5999797282286
 30
0.0
 10
103.5782514135366
 20
149.5999797282286
 30
0.0
 10
103.5782850405369
 20
149.6005431162288
 30
0.0
 10
103.5782850405369
 20
149.6005431162288
 30
0.0
  0
HATCH
  5
65
330
60
100
AcDbEntity
  8
0
 62
     7
420
 16777215
100
AcDbHatch
 10
0.0
 20
0.0
 30
0.0
210
0.0
220
0.0
230
1.0
  2
SOLID
 70
     1
 71
     0
 91
        1
 92
        1
 93
        1
 72
     4
 94
        3
 73
     0
 74
     1
 95
      200
 96
      196
 40
0.0
 40
0.0
 40
0.0
 40
0.0
 40
1.0
 40
1.0
 40
1.0
 40
2.0
 40
2.0
 40
2.0
 40
3.0
 40
3.0
 40
3.0
 40
4.0
 40
4.0
 40
4.0
 40
5.0
 40
5.0
 40
5.0
 40
6.0
 40
6.0
 40
6.0
 40
7.0
 40
7.0
 40
7.0
 40
8.0
 40
8.0
 40
8.0
 40
9.0
 40
9.0
 40
9.0
 40
10.0
 40
10.0
 40
10.0
 40
11.0
 40
11.0
 40
11.0
 40
12.0
 40
12.0
 40
12.0
 40
13.0
 40
13.0
 40
13.0
 40
14.0
 40
14.0
 40
14.0
 40
15.0
 40
15.0
 40
15.0
 40
16.0
 40
16.0
 40
16.0
 40
17.0
 40
17.0
 40
17.0
 40
18.0
 40
18.0
 40
18.0
 40
19.0
 40
19.0
 40
19.0
 40
20.0
 40
20.0
 40
20.0
 40
21.0
 40
21.0
 40
21.0
 40
22.0
 40
22.0
 40
22.0
 40
23.0
 40
23.0
 40
23.0
 40
24.0
 40
24.0
 40
24.0
 40
25.0
 40
25.0
 40
25.0
 40
26.0
 40
26.0
 40
26.0
 40
27.0
 40
27.0
 40
27.0
 40
28.0
 40
28.0
 40
28.0
 40
29.0
 40
29.0
 40
29.0
 40
30.0
 40
30.0
 40
30.0
 40
31.0
 40
31.0
 40
31.0
 40
32.0
 40
32.0
 40
32.0
 40
33.0
 40
33.0
 40
33.0
 40
34.0
 40
34.0
 40
34.0
 40
35.0
 40
35.0
 40
35.0
 40
36.0
 40
36.0
 40
36.0
 40
37.0
 40
37.0
 40
37.0
 40
38.0
 40
38.0
 40
38.0
 40
39.0
 40
39.0
 40
39.0
 40
40.0
 40
40.0
 40
40.0
 40
41.0
 40
41.0
 40
41.0
 40
42.0
 40
42.0
 40
42.0
 40
43.0
 40
43.0
 40
43.0
 40
44.0
 40
44.0
 40
44.0
 40
45.0
 40
45.0
 40
45.0
 40
46.0
 40
46.0
 40
46.0
 40
47.0
 40
47.0
 40
47.0
 40
48.0
 40
48.0
 40
48.0
 40
49.0
 40
49.0
 40
49.0
 40
50.0
 40
50.0
 40
50.0
 40
51.0
 40
51.0
 40
51.0
 40
52.0
 40
52.0
 40
52.0
 40
53.0
 40
53.0
 40
53.0
 40
54.0
 40
54.0
 40
54.0
 40
55.0
 40
55.0
 40
55.0
 40
56.0
 40
56.0
 40
56.0
 40
57.0
 40
57.0
 40
57.0
 40
58.0
 40
58.0
 40
58.0
 40
59.0
 40
59.0
 40
59.0
 40
60.0
 40
60.0
 40
60.0
 40
61.0
 40
61.0
 40
61.0
 40
62.0
 40
62.0
 40
62.0
 40
63.0
 40
63.0
 40
63.0
 40
64.0
 40
64.0
 40
64.0
 40
65.0
 40
65.0
 40
65.0
 40
65.0
 10
103.5782850405369
 20
149.6005431162288
 10
103.5909523245369
 20
149.5994685762284
 10
103.603619608293
 20
149.5983940354187
 10
103.6160722754274
 20
149.5960282948964
 10
103.6291647197524
 20
149.5935410103858
 10
103.6420199283642
 20
149.5896264427433
 10
103.6544576272916
 20
149.5847384856351
 10
103.6677207972984
 20
149.5795261222796
 10
103.6805091996236
 20
149.573206877154
 10
103.6928429788529
 20
149.5661102999969
 10
103.7061488165903
 20
149.5584544223947
 10
103.7189255472143
 20
149.5498938571269
 10
103.7312283307318
 20
149.5407082293598
 10
103.7441906531558
 20
149.5310301700319
 10
103.7566268508078
 20
149.5206582339802
 10
103.768484702238
 20
149.5096612535472
 10
103.7805882188453
 20
149.4984364430411
 10
103.7920891772055
 20
149.4865604211457
 10
103.8029186208229
 20
149.4740983537312
 10
103.814182932031
 20
149.4611358590163
 10
103.8247207149254
 20
149.4475393072429
 10
103.8345300867901
 20
149.4334550400277
 10
103.8446424995637
 20
149.4189356675676
 10
103.853980800528
 20
149.4038979802166
 10
103.8633191005272
 20
149.3888602932159
 10
103.8750420865265
 20
149.3655341562155
 10
103.8867650730418
 20
149.3422080196534
 10
103.8971885291657
 20
149.3182989841791
 10
103.9082748699977
 20
149.292869442091
 10
103.9178911361161
 20
149.2667805041492
 10
103.926542033152
 20
149.240399299845
 10
103.9358246119736
 20
149.2120917604837
 10
103.9439956935493
 20
149.1834477143268
 10
103.9513796137388
 20
149.1545967483409
 10
103.9593157024972
 20
149.1235883109599
 10
103.9663425003928
 20
149.0923408497736
 10
103.9722657611637
 20
149.0608913301996
 10
103.9785757200953
 20
149.0273886389329
 10
103.9836333504004
 20
148.9936566454552
 10
103.9880714941935
 20
148.9598475370703
 10
103.992827168182
 20
148.9236195316765
 10
103.9968715414193
 20
148.8873029821581
 10
103.9999257938953
 20
148.8509008758899
 10
104.0031721390429
 20
148.8122093132278
 10
104.0052999025635
 20
148.7734210934594
 10
104.0066996795767
 20
148.734615839081
 10
104.008192442516
 20
148.6932327866287
 10
104.0088572874948
 20
148.6518303612095
 10
104.0095221324928
 20
148.6104279362094
 10
104.0091856124907
 20
148.5660077172094
 10
104.0088490930917
 20
148.5215874986079
 10
104.0072641702052
 20
148.4772081854855
 10
104.005784335047
 20
148.4357714263446
 10
104.0032161579055
 20
148.3943703280697
 10
103.9999257939069
 20
148.353020282207
 10
103.9968639467315
 20
148.3145420101533
 10
103.9931767415548
 20
148.2761079455422
 10
103.988071494155
 20
148.2378642266738
 10
103.9833281911416
 20
148.2023318552293
 10
103.977360786951
 20
148.1669637965554
 10
103.9705722897383
 20
148.1317400184962
 10
103.9642539823808
 20
148.0989559354985
 10
103.9572243852406
 20
148.0662968387383
 10
103.9485571612552
 20
148.0340831672954
 10
103.9405657030659
 20
148.0043811301824
 10
103.9311820277505
 20
147.9750577683201
 10
103.920897128136
 20
147.9460226541011
 10
103.9113311025843
 20
147.919016980257
 10
103.9009854339117
 20
147.8922606675243
 10
103.8887211713337
 20
147.8664294978397
 10
103.8773935381987
 20
147.8425710708239
 10
103.8644291694569
 20
147.8195018752165
 10
103.8514648004558
 20
147.7964326802162
 10
103.8429966564552
 20
147.7829795372166
 10
103.8345285115306
 20
147.7695263941093
 10
103.8249337487214
 20
147.756918347344
 10
103.8155774661282
 20
147.7446236767174
 10
103.8051498743792
 20
147.7331326143619
 10
103.7944512637635
 20
147.7219199384424
 10
103.7837764190089
 20
147.7107321703265
 10
103.7728317581307
 20
147.6998215532077
 10
103.7611463257426
 20
147.6897439811536
 10
103.7495515334793
 20
147.6797445775692
 10
103.7372274169875
 20
147.6705653458494
 10
103.7244544450286
 20
147.6620839481269
 10
103.7120750041127
 20
147.6538638594643
 10
103.6992739398374
 20
147.6462992671417
 10
103.6860690933287
 20
147.6395043297379
 10
103.6740027708773
 20
147.6332952529665
 10
103.6615992928516
 20
147.6277288331153
 10
103.6488127221839
 20
147.6231341060808
 10
103.6365076078316
 20
147.6187123855864
 10
103.6238477070892
 20
147.6151905607006
 10
103.6109918610541
 20
147.6129732772931
 10
103.5988772356013
 20
147.6108838342527
 10
103.5865886084475
 20
147.6099528392289
 10
103.5742999804479
 20
147.6090218442295
 10
103.5627546244475
 20
147.6097463932295
 10
103.5512092675263
 20
147.6104709430099
 10
103.5398660620228
 20
147.6124087872318
 10
103.5286001096078
 20
147.6143334337349
 10
103.5175335644769
 20
147.6174549046332
 10
103.5065611241707
 20
147.6208761441558
 10
103.4952117447741
 20
147.6244149144061
 10
103.4839630468737
 20
147.6282744031103
 10
103.4732561864494
 20
147.6332949344399
 10
103.4622892024614
 20
147.6384374397599
 10
103.4518907036893
 20
147.6447980881558
 10
103.441644720377
 20
147.6513586292266
 10
103.4308039512156
 20
147.6583000138799
 10
103.420133918711
 20
147.665465172618
 10
103.4100332543206
 20
147.6733737576853
 10
103.399339453881
 20
147.6817467544724
 10
103.389283854338
 20
147.6909530528409
 10
103.3795507689534
 20
147.7004693004608
 10
103.3691637431043
 20
147.710624919783
 10
103.359144025048
 20
147.7211335368638
 10
103.3496327736493
 20
147.7320807666282
 10
103.3394605433115
 20
147.7437887678211
 10
103.3298699064539
 20
147.7559984622405
 10
103.3202792694554
 20
147.7682081562401
 10
103.3057560874556
 20
147.7900698322416
 10
103.2912329053021
 20
147.8119315078079
 10
103.2785069746231
 20
147.8348180314823
 10
103.264404181154
 20
147.8601807279118
 10
103.2525085792809
 20
147.8868020329239
 10
103.2418150940875
 20
147.9138466973359
 10
103.2300937999142
 20
147.943490771429
 10
103.2198168117212
 20
147.9736434987382
 10
103.2107681184832
 20
148.0041651727697
 10
103.2007281796374
 20
148.0380303655355
 10
103.1922003845191
 20
148.0723497655512
 10
103.1848015571521
 20
148.1069024382309
 10
103.1767145841918
 20
148.1446687646724
 10
103.1699763496541
 20
148.1827137738373
 10
103.1644799001246
 20
148.2209295127711
 10
103.1585752146363
 20
148.2619836365062
 10
103.1541036257411
 20
148.3032347929402
 10
103.1503676387173
 20
148.3445529255856
 10
103.1463415293352
 20
148.3890796652202
 10
103.1431697058694
 20
148.4336841871942
 10
103.1413357911186
 20
148.4783371666803
 10
103.1393666945736
 20
148.5262816131543
 10
103.138940016491
 20
148.5742819242485
 10
103.1385133384932
 20
148.6222822362487
 10
103.1390592714955
 20
148.6653856182485
 10
103.1396052041364
 20
148.7084889998987
 10
103.1413357908036
 20
148.7515505539358
 10
103.1429711698965
 20
148.7922430928035
 10
103.1456644419112
 20
148.8328982797238
 10
103.1492386577343
 20
148.8734804946309
 10
103.1526121717873
 20
148.9117839097161
 10
103.156770472675
 20
148.9500223178456
 10
103.1622219384345
 20
148.9880720594819
 10
103.167367760014
 20
149.0239884882447
 10
103.1736658052027
 20
149.059736813162
 10
103.1808501241744
 20
149.0953252493646
 10
103.1875099267428
 20
149.1283154269714
 10
103.1949313160973
 20
149.1611682100911
 10
103.2039942333556
 20
149.1935465908121
 10
103.2122510513225
 20
149.2230450831911
 10
103.2218703728925
 20
149.2521498113357
 10
103.2322187567029
 20
149.2810426135123
 10
103.241622839897
 20
149.3072989179136
 10
103.2516290006981
 20
149.3333802086154
 10
103.2638302228362
 20
149.3583778077457
 10
103.2748640960467
 20
149.3809837677266
 10
103.287693099528
 20
149.4027034802417
 10
103.3005221035291
 20
149.4244231922413
 10
103.30928515353
 20
149.4364978042408
 10
103.3180482041117
 20
149.4485724161371
 10
103.327617645867
 20
149.4599860921715
 10
103.3372751611812
 20
149.4715048154068
 10
103.34775397942
 20
149.4823503807824
 10
103.3586646214257
 20
149.4927265394243
 10
103.3695024421687
 20
149.5030334441245
 10
103.3807663416448
 20
149.5128771871344
 10
103.3925340493821
 20
149.5220800435553
 10
103.4046639249428
 20
149.5315661308793
 10
103.4173290967878
 20
149.5403712761941
 10
103.4303549112486
 20
149.5486110953587
 10
103.4429697376855
 20
149.5565909333134
 10
103.4559228079085
 20
149.5640405564528
 10
103.4693047533004
 20
149.5706262237513
 10
103.481564998974
 20
149.5766598680866
 10
103.4941852348992
 20
149.5819683231265
 10
103.5071256147504
 20
149.5864319569499
 10
103.5189261834804
 20
149.5905024261579
 10
103.5309929822734
 20
149.5938703463326
 10
103.5432530049373
 20
149.5960282946583
 10
103.5548047787269
 20
149.5980615805335
 10
103.5665280965367
 20
149.5990206542294
 10
103.5782514135366
 20
149.5999797282286
 10
103.5782514135366
 20
149.5999797282286
 10
103.5782850405369
 20
149.6005431162288
 10
103.5782850405369
 20
149.6005431162288
 97
        0
 97
        0
 75
     2
 76
     1
 98
        0
  0
ENDBLK
  5
63
330
60
100
AcDbEntity
  8
0
100
AcDbBlockEnd
  0
BLOCK
  5
68
330
66
100
AcDbEntity
  8
0
100
AcDbBlockBegin
  2
block 8
 70
     0
 10
0.0
 20
0.0
 30
0.0
  3
block 8
  1

  0
SPLINE
  5
6A
330
66
100
AcDbEntity
  8
0
 62
     7
420
 16777215
370
     5
100
AcDbSpline
210
0.0
220
0.0
230
1.0
 70
    11
 71
     3
 72
   200
 73
   196
 74
     0
 42
0.0000000001
 43
0.0000000001
 12
1.0
 22
0.0
 32
0.0
 13
1.0
 23
0.0
 33
0.0
 40
0.0
 40
0.0
 40
0.0
 40
0.0
 40
1.0
 40
1.0
 40
1.0
 40
2.0
 40
2.0
 40
2.0
 40
3.0
 40
3.0
 40
3.0
 40
4.0
 40
4.0
 40
4.0
 40
5.0
 40
5.0
 40
5.0
 40
6.0
 40
6.0
 40
6.0
 40
7.0
 40
7.0
 40
7.0
 40
8.0
 40
8.0
 40
8.0
 40
9.0
 40
9.0
 40
9.0
 40
10.0
 40
10.0
 40
10.0
 40
11.0
 40
11.0
 40
11.0
 40
12.0
 40
12.0
 40
12.0
 40
13.0
 40
13.0
 40
13.0
 40
14.0
 40
14.0
 40
14.0
 40
15.0
 40
15.0
 40
15.0
 40
16.0
 40
16.0
 40
16.0
 40
17.0
 40
17.0
 40
17.0
 40
18.0
 40
18.0
 40
18.0
 40
19.0
 40
19.0
 40
19.0
 40
20.0
 40
20.0
 40
20.0
 40
21.0
 40
21.0
 40
21.0
 40
22.0
 40
22.0
 40
22.0
 40
23.0
 40
23.0
 40
23.0
 40
24.0
 40
24.0
 40
24.0
 40
25.0
 40
25.0
 40
25.0
 40
26.0
 40
26.0
 40
26.0
 40
27.0
 40
27.0
 40
27.0
 40
28.0
 40
28.0
 40
28.0
 40
29.0
 40
29.0
 40
29.0
 40
30.0
 40
30.0
 40
30.0
 40
31.0
 40
31.0
 40
31.0
 40
32.0
 40
32.0
 40
32.0
 40
33.0
 40
33.0
 40
33.0
 40
34.0
 40
34.0
 40
34.0
 40
35.0
 40
35.0
 40
35.0
 40
36.0
 40
36.0
 40
36.0
 40
37.0
 40
37.0
 40
37.0
 40
38.0
 40
38.0
 40
38.0
 40
39.0
 40
39.0
 40
39.0
 40
40.0
 40
40.0
 40
40.0
 40
41.0
 40
41.0
 40
41.0
 40
42.0
 40
42.0
 40
42.0
 40
43.0
 40
43.0
 40
43.0
 40
44.0
 40
44.0
 40
44.0
 40
45.0
 40
45.0
 40
45.0
 40
46.0
 40
46.0
 40
46.0
 40
47.0
 40
47.0
 40
47.0
 40
48.0
 40
48.0
 40
48.0
 40
49.0
 40
49.0
 40
49.0
 40
50.0
 40
50.0
 40
50.0
 40
51.0
 40
51.0
 40
51.0
 40
52.0
 40
52.0
 40
52.0
 40
53.0
 40
53.0
 40
53.0
 40
54.0
 40
54.0
 40
54.0
 40
55.0
 40
55.0
 40
55.0
 40
56.0
 40
56.0
 40
56.0
 40
57.0
 40
57.0
 40
57.0
 40
58.0
 40
58.0
 40
58.0
 40
59.0
 40
59.0
 40
59.0
 40
60.0
 40
60.0
 40
60.0
 40
61.0
 40
61.0
 40
61.0
 40
62.0
 40
62.0
 40
62.0
 40
63.0
 40
63.0
 40
63.0
 40
64.0
 40
64.0
 40
64.0
 40
65.0
 40
65.0
 40
65.0
 40
65.0
 10
108.4554826925366
 20
149.6005431160097
 30
0.0
 10
108.4681499765372
 20
149.5994685760092
 30
0.0
 10
108.4808172602927
 20
149.5983940351996
 30
0.0
 10
108.4932699274271
 20
149.5960282946776
 30
0.0
 10
108.5063623717521
 20
149.5935410101673
 30
0.0
 10
108.5192175803645
 20
149.5896264425245
 30
0.0
 10
108.5316552792913
 20
149.584738485416
 30
0.0
 10
108.5449184492988
 20
149.5795261220607
 30
0.0
 10
108.5577068516239
 20
149.5732068769355
 30
0.0
 10
108.5700406308526
 20
149.5661102997781
 30
0.0
 10
108.5833464685907
 20
149.5584544221755
 30
0.0
 10
108.5961231992137
 20
149.5498938569077
 30
0.0
 10
108.6084259825763
 20
149.5407082291409
 30
0.0
 10
108.6213883048359
 20
149.5310301698131
 30
0.0
 10
108.6338245021517
 20
149.5206582337613
 30
0.0
 10
108.6456823534112
 20
149.5096612533281
 30
0.0
 10
108.6577858698453
 20
149.4984364428223
 30
0.0
 10
108.6692868282054
 20
149.4865604209268
 30
0.0
 10
108.6801162719807
 20
149.4740983535121
 30
0.0
 10
108.6913805833531
 20
149.4611358587974
 30
0.0
 10
108.7019183665806
 20
149.4475393070237
 30
0.0
 10
108.7117277383727
 20
149.4334550398086
 30
0.0
 10
108.7218401510718
 20
149.4189356673488
 30
0.0
 10
108.7311784515286
 20
149.4038979799978
 30
0.0
 10
108.7405167525269
 20
149.3888602929971
 30
0.0
 10
108.7522397385262
 20
149.3655341559964
 30
0.0
 10
108.763962724557
 20
149.3422080194346
 30
0.0
 10
108.7743861805834
 20
149.3182989839603
 30
0.0
 10
108.7854725213095
 20
149.2928694418722
 30
0.0
 10
108.7950887877597
 20
149.2667805039301
 30
0.0
 10
108.8037396849682
 20
149.2403992996262
 30
0.0
 10
108.8130222639739
 20
149.2120917602649
 30
0.0
 10
108.821193345549
 20
149.1834477141083
 30
0.0
 10
108.8285772657385
 20
149.1545967481224
 30
0.0
 10
108.8365133544969
 20
149.1235883107411
 30
0.0
 10
108.8435401523931
 20
149.0923408495551
 30
0.0
 10
108.8494634131641
 20
149.0608913299811
 30
0.0
 10
108.8557733720947
 20
149.0273886387141
 30
0.0
 10
108.8608310024002
 20
148.9936566452361
 30
0.0
 10
108.8652691461939
 20
148.9598475368511
 30
0.0
 10
108.8700248201811
 20
148.9236195314576
 30
0.0
 10
108.874069193419
 20
148.8873029819389
 30
0.0
 10
108.8771234458944
 20
148.850900875671
 30
0.0
 10
108.8803697910426
 20
148.8122093130089
 30
0.0
 10
108.8824975545638
 20
148.77342109324
 30
0.0
 10
108.883897331577
 20
148.7346158388622
 30
0.0
 10
108.8853900945157
 20
148.6932327864099
 30
0.0
 10
108.8860549394945
 20
148.6518303609907
 30
0.0
 10
108.8867197834927
 20
148.6104279359905
 30
0.0
 10
108.8863832644904
 20
148.5660077169906
 30
0.0
 10
108.8860467450914
 20
148.5215874983891
 30
0.0
 10
108.8844618222056
 20
148.4772081852667
 30
0.0
 10
108.8829819870467
 20
148.4357714261251
 30
0.0
 10
108.8804138099046
 20
148.3943703278506
 30
0.0
 10
108.8771234459066
 20
148.3530202819882
 30
0.0
 10
108.8740615987319
 20
148.3145420099342
 30
0.0
 10
108.8703743935551
 20
148.2761079453233
 30
0.0
 10
108.8652691461548
 20
148.237864226455
 30
0.0
 10
108.8605258431413
 20
148.2023318550104
 30
0.0
 10
108.8545584389514
 20
148.1669637963362
 30
0.0
 10
108.847769941738
 20
148.131740018278
 30
0.0
 10
108.8414516343811
 20
148.0989559352791
 30
0.0
 10
108.8344220372397
 20
148.0662968385188
 30
0.0
 10
108.8257548132556
 20
148.0340831670759
 30
0.0
 10
108.8177633550662
 20
148.0043811299629
 30
0.0
 10
108.8083796797515
 20
147.9750577681019
 30
0.0
 10
108.7980947801358
 20
147.9460226538816
 30
0.0
 10
108.7885287545853
 20
147.9190169800388
 30
0.0
 10
108.7781830859114
 20
147.8922606673048
 30
0.0
 10
108.7659188233334
 20
147.8664294976215
 30
0.0
 10
108.7545911901984
 20
147.8425710706044
 30
0.0
 10
108.7416268214566
 20
147.8195018749971
 30
0.0
 10
108.7286624524561
 20
147.7964326799968
 30
0.0
 10
108.7201943074558
 20
147.7829795369985
 30
0.0
 10
108.7117261630375
 20
147.7695263938898
 30
0.0
 10
108.7021314003059
 20
147.7569183471258
 30
0.0
 10
108.6927751177891
 20
147.7446236764992
 30
0.0
 10
108.6823475257096
 20
147.7331326141438
 30
0.0
 10
108.6716489150952
 20
147.721919938223
 30
0.0
 10
108.6609740703439
 20
147.7107321701083
 30
0.0
 10
108.6500294097993
 20
147.6998215529896
 30
0.0
 10
108.6383439775781
 20
147.6897439809342
 30
0.0
 10
108.6267491854796
 20
147.6797445773498
 30
0.0
 10
108.6144250689872
 20
147.6705653456299
 30
0.0
 10
108.601652097029
 20
147.6620839479074
 30
0.0
 10
108.5892726561131
 20
147.6538638592461
 30
0.0
 10
108.5764715918377
 20
147.6462992669222
 30
0.0
 10
108.5632667453284
 20
147.6395043295197
 30
0.0
 10
108.5512004228776
 20
147.633295252747
 30
0.0
 10
108.538796944852
 20
147.6277288328971
 30
0.0
 10
108.5260103741836
 20
147.6231341058614
 30
0.0
 10
108.5137052598326
 20
147.618712385367
 30
0.0
 10
108.5010453590889
 20
147.6151905604825
 30
0.0
 10
108.4881895127894
 20
147.6129732770736
 30
0.0
 10
108.4760748870864
 20
147.6108838340345
 30
0.0
 10
108.4637862594474
 20
147.6099528390094
 30
0.0
 10
108.4514976324476
 20
147.60902184401
 30
0.0
 10
108.4399522754475
 20
147.6097463930113
 30
0.0
 10
108.4284069190275
 20
147.6104709427904
 30
0.0
 10
108.4170637137748
 20
147.6124087870124
 30
0.0
 10
108.4057977616081
 20
147.6143334335155
 30
0.0
 10
108.3947312164766
 20
147.617454904415
 30
0.0
 10
108.3837587761704
 20
147.6208761439364
 30
0.0
 10
108.3724093967738
 20
147.6244149141879
 30
0.0
 10
108.361160698874
 20
147.6282744028922
 30
0.0
 10
108.3504538384498
 20
147.6332949342204
 30
0.0
 10
108.3394868544611
 20
147.6384374395417
 30
0.0
 10
108.329088355689
 20
147.6447980879363
 30
0.0
 10
108.3188423723761
 20
147.6513586290071
 30
0.0
 10
108.3080016032153
 20
147.6583000136618
 30
0.0
 10
108.2973315707113
 20
147.6654651723986
 30
0.0
 10
108.2872309061676
 20
147.6733737574671
 30
0.0
 10
108.2765371055675
 20
147.6817467542529
 30
0.0
 10
108.2664815056929
 20
147.6909530526227
 30
0.0
 10
108.256748420287
 20
147.7004693002413
 30
0.0
 10
108.2463613944161
 20
147.7106249195635
 30
0.0
 10
108.2363416766916
 20
147.7211335366443
 30
0.0
 10
108.2268304254661
 20
147.7320807664088
 30
0.0
 10
108.2166581953113
 20
147.743788767603
 30
0.0
 10
108.2070675584542
 20
147.755998462021
 30
0.0
 10
108.1974769214548
 20
147.7682081560219
 30
0.0
 10
108.1829537394559
 20
147.7900698320221
 30
0.0
 10
108.1684305573018
 20
147.8119315075897
 30
0.0
 10
108.1557046266228
 20
147.8348180312629
 30
0.0
 10
108.1416018331537
 20
147.8601807276923
 30
0.0
 10
108.1297062312813
 20
147.8868020327044
 30
0.0
 10
108.1190127460872
 20
147.9138466971177
 30
0.0
 10
108.1072914519139
 20
147.9434907712108
 30
0.0
 10
108.0970144637209
 20
147.97364349852
 30
0.0
 10
108.0879657703404
 20
148.0041651725515
 30
0.0
 10
108.0779258313361
 20
148.0380303653161
 30
0.0
 10
108.0693980358842
 20
148.0723497653317
 30
0.0
 10
108.0619992084883
 20
148.1069024380114
 30
0.0
 10
108.0539122354978
 20
148.1446687644542
 30
0.0
 10
108.0471740012945
 20
148.1827137736182
 30
0.0
 10
108.0416775517894
 20
148.2209295125522
 30
0.0
 10
108.0357728663274
 20
148.2619836362873
 30
0.0
 10
108.0313012771001
 20
148.3032347927211
 30
0.0
 10
108.0275652899034
 20
148.3445529253668
 30
0.0
 10
108.0235391803358
 20
148.389079665001
 30
0.0
 10
108.02036735687
 20
148.433684186975
 30
0.0
 10
108.0185334423509
 20
148.4783371664612
 30
0.0
 10
108.0165643460554
 20
148.5262816129352
 30
0.0
 10
108.0161376684907
 20
148.5742819240293
 30
0.0
 10
108.0157109904929
 20
148.6222822360295
 30
0.0
 10
108.0162569234945
 20
148.6653856180294
 30
0.0
 10
108.0168028561361
 20
148.7084889996792
 30
0.0
 10
108.0185334426217
 20
148.7515505537166
 30
0.0
 10
108.0201688215445
 20
148.7922430925847
 30
0.0
 10
108.0228620932255
 20
148.8328982795047
 30
0.0
 10
108.0264363090685
 20
148.873480494412
 30
0.0
 10
108.0298098231402
 20
148.911783909497
 30
0.0
 10
108.0339681243603
 20
148.9500223176268
 30
0.0
 10
108.0394195900992
 20
148.9880720592625
 30
0.0
 10
108.0445654116595
 20
149.0239884880256
 30
0.0
 10
108.0508634565132
 20
149.0597368129432
 30
0.0
 10
108.0580477753232
 20
149.0953252491458
 30
0.0
 10
108.0647075777428
 20
149.1283154267526
 30
0.0
 10
108.0721289670979
 20
149.1611682098722
 30
0.0
 10
108.0811918843555
 20
149.1935465905929
 30
0.0
 10
108.0894487023222
 20
149.223045082972
 30
0.0
 10
108.0990680238918
 20
149.2521498111169
 30
0.0
 10
108.1094164078947
 20
149.2810426132932
 30
0.0
 10
108.1188204912634
 20
149.3072989176948
 30
0.0
 10
108.1288266523981
 20
149.3333802083966
 30
0.0
 10
108.1410278746935
 20
149.3583778075268
 30
0.0
 10
108.152061748047
 20
149.3809837675071
 30
0.0
 10
108.1648907515277
 20
149.4027034800229
 30
0.0
 10
108.177719754529
 20
149.4244231920225
 30
0.0
 10
108.1864828055291
 20
149.4364978040223
 30
0.0
 10
108.1952458556147
 20
149.4485724159179
 30
0.0
 10
108.2048152972847
 20
149.4599860919527
 30
0.0
 10
108.2144728125135
 20
149.471504815188
 30
0.0
 10
108.2249516310873
 20
149.4823503805633
 30
0.0
 10
108.2358622732599
 20
149.4927265392055
 30
0.0
 10
108.2467000941691
 20
149.5030334439053
 30
0.0
 10
108.2579639936445
 20
149.5128771869156
 30
0.0
 10
108.2697317012188
 20
149.5220800433365
 30
0.0
 10
108.2818615766121
 20
149.5315661306601
 30
0.0
 10
108.2945267481176
 20
149.540371275975
 30
0.0
 10
108.3075525625893
 20
149.5486110951399
 30
0.0
 10
108.3201673890358
 20
149.5565909330946
 30
0.0
 10
108.3331204595983
 20
149.564040556234
 30
0.0
 10
108.3465024051513
 20
149.5706262235322
 30
0.0
 10
108.3587626509743
 20
149.5766598678671
 30
0.0
 10
108.3713828868989
 20
149.5819683229077
 30
0.0
 10
108.3843232667501
 20
149.5864319567311
 30
0.0
 10
108.3961238354808
 20
149.5905024259387
 30
0.0
 10
108.4081906342738
 20
149.5938703461138
 30
0.0
 10
108.4204506566713
 20
149.5960282944395
 30
0.0
 10
108.432002430212
 20
149.5980615803143
 30
0.0
 10
108.4437257475373
 20
149.5990206540106
 30
0.0
 10
108.455449065537
 20
149.5999797280097
 30
0.0
 10
108.455449065537
 20
149.5999797280097
 30
0.0
 10
108.4554826925366
 20
149.6005431160097
 30
0.0
 10
108.4554826925366
 20
149.6005431160097
 30
0.0
  0
HATCH
  5
6B
330
66
100
AcDbEntity
  8
0
 62
     7
420
 16777215
100
AcDbHatch
 10
0.0
 20
0.0
 30
0.0
210
0.0
220
0.0
230
1.0
  2
SOLID
 70
     1
 71
     0
 91
        1
 92
        1
 93
        1
 72
     4
 94
        3
 73
     0
 74
     1
 95
      200
 96
      196
 40
0.0
 40
0.0
 40
0.0
 40
0.0
 40
1.0
 40
1.0
 40
1.0
 40
2.0
 40
2.0
 40
2.0
 40
3.0
 40
3.0
 40
3.0
 40
4.0
 40
4.0
 40
4.0
 40
5.0
 40
5.0
 40
5.0
 40
6.0
 40
6.0
 40
6.0
 40
7.0
 40
7.0
 40
7.0
 40
8.0
 40
8.0
 40
8.0
 40
9.0
 40
9.0
 40
9.0
 40
10.0
 40
10.0
 40
10.0
 40
11.0
 40
11.0
 40
11.0
 40
12.0
 40
12.0
 40
12.0
 40
13.0
 40
13.0
 40
13.0
 40
14.0
 40
14.0
 40
14.0
 40
15.0
 40
15.0
 40
15.0
 40
16.0
 40
16.0
 40
16.0
 40
17.0
 40
17.0
 40
17.0
 40
18.0
 40
18.0
 40
18.0
 40
19.0
 40
19.0
 40
19.0
 40
20.0
 40
20.0
 40
20.0
 40
21.0
 40
21.0
 40
21.0
 40
22.0
 40
22.0
 40
22.0
 40
23.0
 40
23.0
 40
23.0
 40
24.0
 40
24.0
 40
24.0
 40
25.0
 40
25.0
 40
25.0
 40
26.0
 40
26.0
 40
26.0
 40
27.0
 40
27.0
 40
27.0
 40
28.0
 40
28.0
 40
28.0
 40
29.0
 40
29.0
 40
29.0
 40
30.0
 40
30.0
 40
30.0
 40
31.0
 40
31.0
 40
31.0
 40
32.0
 40
32.0
 40
32.0
 40
33.0
 40
33.0
 40
33.0
 40
34.0
 40
34.0
 40
34.0
 40
35.0
 40
35.0
 40
35.0
 40
36.0
 40
36.0
 40
36.0
 40
37.0
 40
37.0
 40
37.0
 40
38.0
 40
38.0
 40
38.0
 40
39.0
 40
39.0
 40
39.0
 40
40.0
 40
40.0
 40
40.0
 40
41.0
 40
41.0
 40
41.0
 40
42.0
 40
42.0
 40
42.0
 40
43.0
 40
43.0
 40
43.0
 40
44.0
 40
44.0
 40
44.0
 40
45.0
 40
45.0
 40
45.0
 40
46.0
 40
46.0
 40
46.0
 40
47.0
 40
47.0
 40
47.0
 40
48.0
 40
48.0
 40
48.0
 40
49.0
 40
49.0
 40
49.0
 40
50.0
 40
50.0
 40
50.0
 40
51.0
 40
51.0
 40
51.0
 40
52.0
 40
52.0
 40
52.0
 40
53.0
 40
53.0
 40
53.0
 40
54.0
 40
54.0
 40
54.0
 40
55.0
 40
55.0
 40
55.0
 40
56.0
 40
56.0
 40
56.0
 40
57.0
 40
57.0
 40
57.0
 40
58.0
 40
58.0
 40
58.0
 40
59.0
 40
59.0
 40
59.0
 40
60.0
 40
60.0
 40
60.0
 40
61.0
 40
61.0
 40
61.0
 40
62.0
 40
62.0
 40
62.0
 40
63.0
 40
63.0
 40
63.0
 40
64.0
 40
64.0
 40
64.0
 40
65.0
 40
65.0
 40
65.0
 40
65.0
 10
108.4554826925366
 20
149.6005431160097
 10
108.4681499765372
 20
149.5994685760092
 10
108.4808172602927
 20
149.5983940351996
 10
108.4932699274271
 20
149.5960282946776
 10
108.5063623717521
 20
149.5935410101673
 10
108.5192175803645
 20
149.5896264425245
 10
108.5316552792913
 20
149.584738485416
 10
108.5449184492988
 20
149.5795261220607
 10
108.5577068516239
 20
149.5732068769355
 10
108.5700406308526
 20
149.5661102997781
 10
108.5833464685907
 20
149.5584544221755
 10
108.5961231992137
 20
149.5498938569077
 10
108.6084259825763
 20
149.5407082291409
 10
108.6213883048359
 20
149.5310301698131
 10
108.6338245021517
 20
149.5206582337613
 10
108.6456823534112
 20
149.5096612533281
 10
108.6577858698453
 20
149.4984364428223
 10
108.6692868282054
 20
149.4865604209268
 10
108.6801162719807
 20
149.4740983535121
 10
108.6913805833531
 20
149.4611358587974
 10
108.7019183665806
 20
149.4475393070237
 10
108.7117277383727
 20
149.4334550398086
 10
108.7218401510718
 20
149.4189356673488
 10
108.7311784515286
 20
149.4038979799978
 10
108.7405167525269
 20
149.3888602929971
 10
108.7522397385262
 20
149.3655341559964
 10
108.763962724557
 20
149.3422080194346
 10
108.7743861805834
 20
149.3182989839603
 10
108.7854725213095
 20
149.2928694418722
 10
108.7950887877597
 20
149.2667805039301
 10
108.8037396849682
 20
149.2403992996262
 10
108.8130222639739
 20
149.2120917602649
 10
108.821193345549
 20
149.1834477141083
 10
108.8285772657385
 20
149.1545967481224
 10
108.8365133544969
 20
149.1235883107411
 10
108.8435401523931
 20
149.0923408495551
 10
108.8494634131641
 20
149.0608913299811
 10
108.8557733720947
 20
149.0273886387141
 10
108.8608310024002
 20
148.9936566452361
 10
108.8652691461939
 20
148.9598475368511
 10
108.8700248201811
 20
148.9236195314576
 10
108.874069193419
 20
148.8873029819389
 10
108.8771234458944
 20
148.850900875671
 10
108.8803697910426
 20
148.8122093130089
 10
108.8824975545638
 20
148.77342109324
 10
108.883897331577
 20
148.7346158388622
 10
108.8853900945157
 20
148.6932327864099
 10
108.8860549394945
 20
148.6518303609907
 10
108.8867197834927
 20
148.6104279359905
 10
108.8863832644904
 20
148.5660077169906
 10
108.8860467450914
 20
148.5215874983891
 10
108.8844618222056
 20
148.4772081852667
 10
108.8829819870467
 20
148.4357714261251
 10
108.8804138099046
 20
148.3943703278506
 10
108.8771234459066
 20
148.3530202819882
 10
108.8740615987319
 20
148.3145420099342
 10
108.8703743935551
 20
148.2761079453233
 10
108.8652691461548
 20
148.237864226455
 10
108.8605258431413
 20
148.2023318550104
 10
108.8545584389514
 20
148.1669637963362
 10
108.847769941738
 20
148.131740018278
 10
108.8414516343811
 20
148.0989559352791
 10
108.8344220372397
 20
148.0662968385188
 10
108.8257548132556
 20
148.0340831670759
 10
108.8177633550662
 20
148.0043811299629
 10
108.8083796797515
 20
147.9750577681019
 10
108.7980947801358
 20
147.9460226538816
 10
108.7885287545853
 20
147.9190169800388
 10
108.7781830859114
 20
147.8922606673048
 10
108.7659188233334
 20
147.8664294976215
 10
108.7545911901984
 20
147.8425710706044
 10
108.7416268214566
 20
147.8195018749971
 10
108.7286624524561
 20
147.7964326799968
 10
108.7201943074558
 20
147.7829795369985
 10
108.7117261630375
 20
147.7695263938898
 10
108.7021314003059
 20
147.7569183471258
 10
108.6927751177891
 20
147.7446236764992
 10
108.6823475257096
 20
147.7331326141438
 10
108.6716489150952
 20
147.721919938223
 10
108.6609740703439
 20
147.7107321701083
 10
108.6500294097993
 20
147.6998215529896
 10
108.6383439775781
 20
147.6897439809342
 10
108.6267491854796
 20
147.6797445773498
 10
108.6144250689872
 20
147.6705653456299
 10
108.601652097029
 20
147.6620839479074
 10
108.5892726561131
 20
147.6538638592461
 10
108.5764715918377
 20
147.6462992669222
 10
108.5632667453284
 20
147.6395043295197
 10
108.5512004228776
 20
147.633295252747
 10
108.538796944852
 20
147.6277288328971
 10
108.5260103741836
 20
147.6231341058614
 10
108.5137052598326
 20
147.618712385367
 10
108.5010453590889
 20
147.6151905604825
 10
108.4881895127894
 20
147.6129732770736
 10
108.4760748870864
 20
147.6108838340345
 10
108.4637862594474
 20
147.6099528390094
 10
108.4514976324476
 20
147.60902184401
 10
108.4399522754475
 20
147.6097463930113
 10
108.4284069190275
 20
147.6104709427904
 10
108.4170637137748
 20
147.6124087870124
 10
108.4057977616081
 20
147.6143334335155
 10
108.3947312164766
 20
147.617454904415
 10
108.3837587761704
 20
147.6208761439364
 10
108.3724093967738
 20
147.6244149141879
 10
108.361160698874
 20
147.6282744028922
 10
108.3504538384498
 20
147.6332949342204
 10
108.3394868544611
 20
147.6384374395417
 10
108.329088355689
 20
147.6447980879363
 10
108.3188423723761
 20
147.6513586290071
 10
108.3080016032153
 20
147.6583000136618
 10
108.2973315707113
 20
147.6654651723986
 10
108.2872309061676
 20
147.6733737574671
 10
108.2765371055675
 20
147.6817467542529
 10
108.2664815056929
 20
147.6909530526227
 10
108.256748420287
 20
147.7004693002413
 10
108.2463613944161
 20
147.7106249195635
 10
108.2363416766916
 20
147.7211335366443
 10
108.2268304254661
 20
147.7320807664088
 10
108.2166581953113
 20
147.743788767603
 10
108.2070675584542
 20
147.755998462021
 10
108.1974769214548
 20
147.7682081560219
 10
108.1829537394559
 20
147.7900698320221
 10
108.1684305573018
 20
147.8119315075897
 10
108.1557046266228
 20
147.8348180312629
 10
108.1416018331537
 20
147.8601807276923
 10
108.1297062312813
 20
147.8868020327044
 10
108.1190127460872
 20
147.9138466971177
 10
108.1072914519139
 20
147.9434907712108
 10
108.0970144637209
 20
147.97364349852
 10
108.0879657703404
 20
148.0041651725515
 10
108.0779258313361
 20
148.0380303653161
 10
108.0693980358842
 20
148.0723497653317
 10
108.0619992084883
 20
148.1069024380114
 10
108.0539122354978
 20
148.1446687644542
 10
108.0471740012945
 20
148.1827137736182
 10
108.0416775517894
 20
148.2209295125522
 10
108.0357728663274
 20
148.2619836362873
 10
108.0313012771001
 20
148.3032347927211
 10
108.0275652899034
 20
148.3445529253668
 10
108.0235391803358
 20
148.389079665001
 10
108.02036735687
 20
148.433684186975
 10
108.0185334423509
 20
148.4783371664612
 10
108.0165643460554
 20
148.5262816129352
 10
108.0161376684907
 20
148.5742819240293
 10
108.0157109904929
 20
148.6222822360295
 10
108.0162569234945
 20
148.6653856180294
 10
108.0168028561361
 20
148.7084889996792
 10
108.0185334426217
 20
148.7515505537166
 10
108.0201688215445
 20
148.7922430925847
 10
108.0228620932255
 20
148.8328982795047
 10
108.0264363090685
 20
148.873480494412
 10
108.0298098231402
 20
148.911783909497
 10
108.0339681243603
 20
148.9500223176268
 10
108.0394195900992
 20
148.9880720592625
 10
108.0445654116595
 20
149.0239884880256
 10
108.0508634565132
 20
149.0597368129432
 10
108.0580477753232
 20
149.0953252491458
 10
108.0647075777428
 20
149.1283154267526
 10
108.0721289670979
 20
149.1611682098722
 10
108.0811918843555
 20
149.1935465905929
 10
108.0894487023222
 20
149.223045082972
 10
108.0990680238918
 20
149.2521498111169
 10
108.1094164078947
 20
149.2810426132932
 10
108.1188204912634
 20
149.3072989176948
 10
108.1288266523981
 20
149.3333802083966
 10
108.1410278746935
 20
149.3583778075268
 10
108.152061748047
 20
149.3809837675071
 10
108.1648907515277
 20
149.4027034800229
 10
108.177719754529
 20
149.4244231920225
 10
108.1864828055291
 20
149.4364978040223
 10
108.1952458556147
 20
149.4485724159179
 10
108.2048152972847
 20
149.4599860919527
 10
108.2144728125135
 20
149.471504815188
 10
108.2249516310873
 20
149.4823503805633
 10
108.2358622732599
 20
149.4927265392055
 10
108.2467000941691
 20
149.5030334439053
 10
108.2579639936445
 20
149.5128771869156
 10
108.2697317012188
 20
149.5220800433365
 10
108.2818615766121
 20
149.5315661306601
 10
108.2945267481176
 20
149.540371275975
 10
108.3075525625893
 20
149.5486110951399
 10
108.3201673890358
 20
149.5565909330946
 10
108.3331204595983
 20
149.564040556234
 10
108.3465024051513
 20
149.5706262235322
 10
108.3587626509743
 20
149.5766598678671
 10
108.3713828868989
 20
149.5819683229077
 10
108.3843232667501
 20
149.5864319567311
 10
108.3961238354808
 20
149.5905024259387
 10
108.4081906342738
 20
149.5938703461138
 10
108.4204506566713
 20
149.5960282944395
 10
108.432002430212
 20
149.5980615803143
 10
108.4437257475373
 20
149.5990206540106
 10
108.455449065537
 20
149.5999797280097
 10
108.455449065537
 20
149.5999797280097
 10
108.4554826925366
 20
149.6005431160097
 10
108.4554826925366
 20
149.6005431160097
 97
        0
 97
        0
 75
     2
 76
     1
 98
        0
  0
ENDBLK
  5
69
330
66
100
AcDbEntity
  8
0
100
AcDbBlockEnd
  0
ENDSEC
  0
SECTION
  2
ENTITIES
  0
INSERT
  5
41
330
1F
100
AcDbEntity
  8
0
100
AcDbBlockReference
  2
block 2
 10
0.0
 20
0.0
 30
0.0
  0
INSERT
  5
4D
330
1F
100
AcDbEntity
  8
0
100
AcDbBlockReference
  2
block 3
 10
0.0
 20
0.0
 30
0.0
  0
INSERT
  5
52
330
1F
100
AcDbEntity
  8
0
100
AcDbBlockReference
  2
block 4
 10
0.0
 20
0.0
 30
0.0
  0
INSERT
  5
57
330
1F
100
AcDbEntity
  8
0
100
AcDbBlockReference
  2
block 5
 10
0.0
 20
0.0
 30
0.0
  0
INSERT
  5
5C
330
1F
100
AcDbEntity
  8
0
100
AcDbBlockReference
  2
block 6
 10
0.0
 20
0.0
 30
0.0
  0
INSERT
  5
61
330
1F
100
AcDbEntity
  8
0
100
AcDbBlockReference
  2
block 7
 10
0.0
 20
0.0
 30
0.0
  0
INSERT
  5
67
330
1F
100
AcDbEntity
  8
0
100
AcDbBlockReference
  2
block 8
 10
0.0
 20
0.0
 30
0.0
  0
ENDSEC
  0
SECTION
  2
OBJECTS
  0
DICTIONARY
  5
C
330
0
100
AcDbDictionary
281
     1
  3
ACAD_GROUP
350
D
  3
ACAD_LAYOUT
350
1A
  3
ACAD_MATERIAL
350
3B
  3
ACAD_MLEADERSTYLE
350
6D
  3
ACAD_MLINESTYLE
350
17
  3
ACAD_PLOTSETTINGS
350
19
  3
ACAD_PLOTSTYLENAME
350
E
  3
ACAD_TABLESTYLE
350
6C
  3
ACAD_VISUALSTYLE
350
2A
  0
SUN
  5
3F
330
29
100
AcDbSun
 90
        1
290
     0
 63
     7
421
 16777215
 40
1.0
291
     1
 91
  2455826
 92
 54000000
292
     0
 70
     2
 71
   256
280
     1
  0
DICTIONARY
  5
D
102
{ACAD_REACTORS
330
C
102
}
330
C
100
AcDbDictionary
281
     1
  0
DICTIONARY
  5
1A
102
{ACAD_REACTORS
330
C
102
}
330
C
100
AcDbDictionary
281
     1
  3
Layout1
350
1E
  3
Layout2
350
26
  3
Model
350
22
  0
DICTIONARY
  5
3B
102
{ACAD_REACTORS
330
C
102
}
330
C
100
AcDbDictionary
281
     1
  3
ByBlock
350
3D
  3
ByLayer
350
3C
  3
Global
350
3E
  0
DICTIONARY
  5
6D
102
{ACAD_REACTORS
330
C
102
}
330
C
100
AcDbDictionary
281
     1
  0
DICTIONARY
  5
17
102
{ACAD_REACTORS
330
C
102
}
330
C
100
AcDbDictionary
281
     1
  3
Standard
350
18
  0
DICTIONARY
  5
19
102
{ACAD_REACTORS
330
C
102
}
330
C
100
AcDbDictionary
281
     1
  0
ACDBDICTIONARYWDFLT
  5
E
102
{ACAD_REACTORS
330
C
102
}
330
C
100
AcDbDictionary
281
     1
  3
Normal
350
F
100
AcDbDictionaryWithDefault
340
F
  0
DICTIONARY
  5
6C
102
{ACAD_REACTORS
330
C
102
}
330
C
100
AcDbDictionary
281
     1
  0
DICTIONARY
  5
2A
102
{ACAD_REACTORS
330
C
102
}
330
C
100
AcDbDictionary
281
     1
  3
2dWireframe
350
2F
  3
3D Hidden
350
31
  3
3dWireframe
350
30
  3
Basic
350
32
  3
Brighten
350
36
  3
ColorChange
350
3A
  3
Conceptual
350
34
  3
Dim
350
35
  3
Facepattern
350
39
  3
Flat
350
2B
  3
FlatWithEdges
350
2C
  3
Gouraud
350
2D
  3
GouraudWithEdges
350
2E
  3
Linepattern
350
38
  3
Realistic
350
33
  3
Thicken
350
37
  0
LAYOUT
  5
1E
102
{ACAD_REACTORS
330
1A
102
}
330
1A
100
AcDbPlotSettings
  1

  2
none_device
  4

  6

 40
0.0
 41
0.0
 42
0.0
 43
0.0
 44
0.0
 45
0.0
 46
0.0
 47
0.0
 48
0.0
 49
0.0
140
0.0
141
0.0
142
1.0
143
1.0
 70
   688
 72
     0
 73
     0
 74
     5
  7

 75
    16
 76
     0
 77
     2
 78
   300
147
1.0
148
0.0
149
0.0
100
AcDbLayout
  1
Layout1
 70
     1
 71
     1
 10
0.0
 20
0.0
 11
12.0
 21
9.0
 12
0.0
 22
0.0
 32
0.0
 14
1.000000000000000E+20
 24
1.000000000000000E+20
 34
1.000000000000000E+20
 15
-1.000000000000000E+20
 25
-1.000000000000000E+20
 35
-1.000000000000000E+20
146
0.0
 13
0.0
 23
0.0
 33
0.0
 16
1.0
 26
0.0
 36
0.0
 17
0.0
 27
1.0
 37
0.0
 76
     0
330
1B
  0
LAYOUT
  5
26
102
{ACAD_REACTORS
330
1A
102
}
330
1A
100
AcDbPlotSettings
  1

  2
none_device
  4

  6

 40
0.0
 41
0.0
 42
0.0
 43
0.0
 44
0.0
 45
0.0
 46
0.0
 47
0.0
 48
0.0
 49
0.0
140
0.0
141
0.0
142
1.0
143
1.0
 70
   688
 72
     0
 73
     0
 74
     5
  7

 75
    16
 76
     0
 77
     2
 78
   300
147
1.0
148
0.0
149
0.0
100
AcDbLayout
  1
Layout2
 70
     1
 71
     2
 10
0.0
 20
0.0
 11
0.0
 21
0.0
 12
0.0
 22
0.0
 32
0.0
 14
0.0
 24
0.0
 34
0.0
 15
0.0
 25
0.0
 35
0.0
146
0.0
 13
0.0
 23
0.0
 33
0.0
 16
1.0
 26
0.0
 36
0.0
 17
0.0
 27
1.0
 37
0.0
 76
     0
330
23
  0
LAYOUT
  5
22
102
{ACAD_REACTORS
330
1A
102
}
330
1A
100
AcDbPlotSettings
  1

  2
none_device
  4

  6

 40
0.0
 41
0.0
 42
0.0
 43
0.0
 44
0.0
 45
0.0
 46
0.0
 47
0.0
 48
0.0
 49
0.0
140
0.0
141
0.0
142
1.0
143
1.0
 70
  1712
 72
     0
 73
     0
 74
     0
  7

 75
     0
 76
     0
 77
     2
 78
   300
147
1.0
148
0.0
149
0.0
100
AcDbLayout
  1
Model
 70
     1
 71
     0
 10
0.0
 20
0.0
 11
12.0
 21
9.0
 12
0.0
 22
0.0
 32
0.0
 14
1.000000000000000E+20
 24
1.000000000000000E+20
 34
1.000000000000000E+20
 15
-1.000000000000000E+20
 25
-1.000000000000000E+20
 35
-1.000000000000000E+20
146
0.0
 13
0.0
 23
0.0
 33
0.0
 16
1.0
 26
0.0
 36
0.0
 17
0.0
 27
1.0
 37
0.0
 76
     0
330
1F
331
29
  0
MATERIAL
  5
3D
102
{ACAD_REACTORS
330
3B
102
}
330
3B
100
AcDbMaterial
  1
ByBlock
 72
     1
 94
      127
  0
MATERIAL
  5
3C
102
{ACAD_REACTORS
330
3B
102
}
330
3B
100
AcDbMaterial
  1
ByLayer
 72
     1
 94
      127
  0
MATERIAL
  5
3E
102
{ACAD_REACTORS
330
3B
102
}
330
3B
100
AcDbMaterial
  1
Global
 72
     1
 94
      127
  0
MLINESTYLE
  5
18
102
{ACAD_REACTORS
330
17
102
}
330
17
100
AcDbMlineStyle
  2
Standard
 70
     0
  3

 62
   256
 51
90.0
 52
90.0
 71
     2
 49
0.5
 62
   256
  6
BYLAYER
 49
-0.5
 62
   256
  6
BYLAYER
  0
ACDBPLACEHOLDER
  5
F
102
{ACAD_REACTORS
330
E
102
}
330
E
  0
VISUALSTYLE
  5
2F
102
{ACAD_REACTORS
330
2A
102
}
330
2A
100
AcDbVisualStyle
  2
2dWireframe
 70
     4
177
     2
291
     0
 71
     0
176
     1
 72
     2
176
     1
 73
     0
176
     1
 90
        0
176
     1
 40
-0.6
176
     1
 41
-30.0
176
     1
 62
     5
 63
     7
421
 16777215
176
     1
 74
     1
176
     1
 91
        4
176
     1
 64
     7
176
     1
 65
   257
176
     1
 75
     1
176
     1
175
     1
176
     1
 42
1.0
176
     1
 92
        0
176
     1
 66
   257
176
     1
 43
1.0
176
     1
 76
     1
176
     1
 77
     6
176
     1
 78
     2
176
     1
 67
     7
176
     1
 79
     5
176
     1
170
     0
176
     1
171
     0
176
     1
290
     0
176
     1
 93
        1
176
     1
 44
0.0
176
     1
173
     0
176
     1
  0
VISUALSTYLE
  5
31
102
{ACAD_REACTORS
330
2A
102
}
330
2A
100
AcDbVisualStyle
  2
3D Hidden
 70
     6
177
     2
291
     0
 71
     1
176
     1
 72
     2
176
     1
 73
     2
176
     1
 90
        0
176
     1
 40
-0.6
176
     1
 41
-30.0
176
     1
 62
     5
 63
     7
421
 16777215
176
     1
 74
     2
176
     1
 91
        2
176
     1
 64
     7
176
     1
 65
   257
176
     1
 75
     2
176
     1
175
     1
176
     1
 42
40.0
176
     1
 92
        0
176
     1
 66
   257
176
     1
 43
1.0
176
     1
 76
     1
176
     1
 77
     6
176
     1
 78
     2
176
     1
 67
     7
176
     1
 79
     3
176
     1
170
     0
176
     1
171
     0
176
     1
290
     0
176
     1
 93
        1
176
     1
 44
0.0
176
     1
173
     0
176
     1
  0
VISUALSTYLE
  5
30
102
{ACAD_REACTORS
330
2A
102
}
330
2A
100
AcDbVisualStyle
  2
3dWireframe
 70
     5
177
     2
291
     0
 71
     0
176
     1
 72
     2
176
     1
 73
     0
176
     1
 90
        0
176
     1
 40
-0.6
176
     1
 41
-30.0
176
     1
 62
     5
 63
     7
421
 16777215
176
     1
 74
     1
176
     1
 91
        4
176
     1
 64
     7
176
     1
 65
   257
176
     1
 75
     1
176
     1
175
     1
176
     1
 42
1.0
176
     1
 92
        0
176
     1
 66
   257
176
     1
 43
1.0
176
     1
 76
     1
176
     1
 77
     6
176
     1
 78
     2
176
     1
 67
     7
176
     1
 79
     5
176
     1
170
     0
176
     1
171
     0
176
     1
290
     0
176
     1
 93
        1
176
     1
 44
0.0
176
     1
173
     0
176
     1
  0
VISUALSTYLE
  5
32
102
{ACAD_REACTORS
330
2A
102
}
330
2A
100
AcDbVisualStyle
  2
Basic
 70
     7
177
     2
291
     1
 71
     1
176
     1
 72
     0
176
     1
 73
     1
176
     1
 90
        0
176
     1
 40
-0.6
176
     1
 41
-30.0
176
     1
 62
     5
 63
     7
421
 16777215
176
     1
 74
     0
176
     1
 91
        4
176
     1
 64
     7
176
     1
 65
   257
176
     1
 75
     1
176
     1
175
     1
176
     1
 42
1.0
176
     1
 92
        8
176
     1
 66
     7
176
     1
 43
1.0
176
     1
 76
     1
176
     1
 77
     6
176
     1
 78
     2
176
     1
 67
     7
176
     1
 79
     5
176
     1
170
     0
176
     1
171
     0
176
     1
290
     0
176
     1
 93
        1
176
     1
 44
0.0
176
     1
173
     0
176
     1
  0
VISUALSTYLE
  5
36
102
{ACAD_REACTORS
330
2A
102
}
330
2A
100
AcDbVisualStyle
  2
Brighten
 70
    12
177
     2
291
     1
 71
     2
176
     1
 72
     2
176
     1
 73
     0
176
     1
 90
        0
176
     1
 40
-0.6
176
     1
 41
-30.0
176
     1
 62
     5
 63
     7
421
 16777215
176
     1
 74
     1
176
     1
 91
        4
176
     1
 64
     7
176
     1
 65
   257
176
     1
 75
     1
176
     1
175
     1
176
     1
 42
1.0
176
     1
 92
        8
176
     1
 66
     7
176
     1
 43
1.0
176
     1
 76
     1
176
     1
 77
     6
176
     1
 78
     2
176
     1
 67
     7
176
     1
 79
     5
176
     1
170
     0
176
     1
171
     0
176
     1
290
     0
176
     1
 93
        1
176
     1
 44
50.0
176
     1
173
     0
176
     1
  0
VISUALSTYLE
  5
3A
102
{ACAD_REACTORS
330
2A
102
}
330
2A
100
AcDbVisualStyle
  2
ColorChange
 70
    16
177
     2
291
     1
 71
     2
176
     1
 72
     2
176
     1
 73
     3
176
     1
 90
        0
176
     1
 40
-0.6
176
     1
 41
-30.0
176
     1
 62
     5
 63
     8
421
  8421504
176
     1
 74
     1
176
     1
 91
        4
176
     1
 64
     7
176
     1
 65
   257
176
     1
 75
     1
176
     1
175
     1
176
     1
 42
1.0
176
     1
 92
        8
176
     1
 66
     8
424
  8421504
176
     1
 43
1.0
176
     1
 76
     1
176
     1
 77
     6
176
     1
 78
     2
176
     1
 67
     7
176
     1
 79
     5
176
     1
170
     0
176
     1
171
     0
176
     1
290
     0
176
     1
 93
        1
176
     1
 44
0.0
176
     1
173
     0
176
     1
  0
VISUALSTYLE
  5
34
102
{ACAD_REACTORS
330
2A
102
}
330
2A
100
AcDbVisualStyle
  2
Conceptual
 70
     9
177
     2
291
     0
 71
     3
176
     1
 72
     2
176
     1
 73
     0
176
     1
 90
        0
176
     1
 40
-0.6
176
     1
 41
-30.0
176
     1
 62
     5
 63
     7
421
 16777215
176
     1
 74
     2
176
     1
 91
        2
176
     1
 64
     7
176
     1
 65
   257
176
     1
 75
     1
176
     1
175
     1
176
     1
 42
40.0
176
     1
 92
        8
176
     1
 66
     7
176
     1
 43
1.0
176
     1
 76
     1
176
     1
 77
     6
176
     1
 78
     2
176
     1
 67
     7
176
     1
 79
     3
176
     1
170
     0
176
     1
171
     0
176
     1
290
     0
176
     1
 93
        1
176
     1
 44
0.0
176
     1
173
     0
176
     1
  0
VISUALSTYLE
  5
35
102
{ACAD_REACTORS
330
2A
102
}
330
2A
100
AcDbVisualStyle
  2
Dim
 70
    11
177
     2
291
     1
 71
     2
176
     1
 72
     2
176
     1
 73
     0
176
     1
 90
        0
176
     1
 40
-0.6
176
     1
 41
-30.0
176
     1
 62
     5
 63
     7
421
 16777215
176
     1
 74
     1
176
     1
 91
        4
176
     1
 64
     7
176
     1
 65
   257
176
     1
 75
     1
176
     1
175
     1
176
     1
 42
1.0
176
     1
 92
        8
176
     1
 66
     7
176
     1
 43
1.0
176
     1
 76
     1
176
     1
 77
     6
176
     1
 78
     2
176
     1
 67
     7
176
     1
 79
     5
176
     1
170
     0
176
     1
171
     0
176
     1
290
     0
176
     1
 93
        1
176
     1
 44
-50.0
176
     1
173
     0
176
     1
  0
VISUALSTYLE
  5
39
102
{ACAD_REACTORS
330
2A
102
}
330
2A
100
AcDbVisualStyle
  2
Facepattern
 70
    15
177
     2
291
     1
 71
     2
176
     1
 72
     2
176
     1
 73
     0
176
     1
 90
        0
176
     1
 40
-0.6
176
     1
 41
-30.0
176
     1
 62
     5
 63
     7
421
 16777215
176
     1
 74
     1
176
     1
 91
        4
176
     1
 64
     7
176
     1
 65
   257
176
     1
 75
     1
176
     1
175
     1
176
     1
 42
1.0
176
     1
 92
        8
176
     1
 66
     7
176
     1
 43
1.0
176
     1
 76
     1
176
     1
 77
     6
176
     1
 78
     2
176
     1
 67
     7
176
     1
 79
     5
176
     1
170
     0
176
     1
171
     0
176
     1
290
     0
176
     1
 93
        1
176
     1
 44
0.0
176
     1
173
     0
176
     1
  0
VISUALSTYLE
  5
2B
102
{ACAD_REACTORS
330
2A
102
}
330
2A
100
AcDbVisualStyle
  2
Flat
 70
     0
177
     2
291
     1
 71
     2
176
     1
 72
     1
176
     1
 73
     1
176
     1
 90
        2
176
     1
 40
-0.6
176
     1
 41
30.0
176
     1
 62
     5
 63
     7
421
 16777215
176
     1
 74
     0
176
     1
 91
        4
176
     1
 64
     7
176
     1
 65
   257
176
     1
 75
     1
176
     1
175
     1
176
     1
 42
1.0
176
     1
 92
        8
176
     1
 66
     7
176
     1
 43
1.0
176
     1
 76
     1
176
     1
 77
     6
176
     1
 78
     2
176
     1
 67
     7
176
     1
 79
     5
176
     1
170
     0
176
     1
171
     0
176
     1
290
     0
176
     1
 93
       13
176
     1
 44
0.0
176
     1
173
     0
176
     1
  0
VISUALSTYLE
  5
2C
102
{ACAD_REACTORS
330
2A
102
}
330
2A
100
AcDbVisualStyle
  2
FlatWithEdges
 70
     1
177
     2
291
     1
 71
     2
176
     1
 72
     1
176
     1
 73
     1
176
     1
 90
        2
176
     1
 40
-0.6
176
     1
 41
30.0
176
     1
 62
     5
 63
     7
421
 16777215
176
     1
 74
     1
176
     1
 91
        4
176
     1
 64
     7
176
     1
 65
   257
176
     1
 75
     1
176
     1
175
     1
176
     1
 42
1.0
176
     1
 92
        0
176
     1
 66
   257
176
     1
 43
1.0
176
     1
 76
     1
176
     1
 77
     6
176
     1
 78
     2
176
     1
 67
     7
176
     1
 79
     5
176
     1
170
     0
176
     1
171
     0
176
     1
290
     0
176
     1
 93
       13
176
     1
 44
0.0
176
     1
173
     0
176
     1
  0
VISUALSTYLE
  5
2D
102
{ACAD_REACTORS
330
2A
102
}
330
2A
100
AcDbVisualStyle
  2
Gouraud
 70
     2
177
     2
291
     1
 71
     2
176
     1
 72
     2
176
     1
 73
     1
176
     1
 90
        2
176
     1
 40
-0.6
176
     1
 41
30.0
176
     1
 62
     5
 63
     7
421
 16777215
176
     1
 74
     0
176
     1
 91
        4
176
     1
 64
     7
176
     1
 65
   257
176
     1
 75
     1
176
     1
175
     1
176
     1
 42
1.0
176
     1
 92
        0
176
     1
 66
     7
176
     1
 43
1.0
176
     1
 76
     1
176
     1
 77
     6
176
     1
 78
     2
176
     1
 67
     7
176
     1
 79
     5
176
     1
170
     0
176
     1
171
     0
176
     1
290
     0
176
     1
 93
       13
176
     1
 44
0.0
176
     1
173
     0
176
     1
  0
VISUALSTYLE
  5
2E
102
{ACAD_REACTORS
330
2A
102
}
330
2A
100
AcDbVisualStyle
  2
GouraudWithEdges
 70
     3
177
     2
291
     1
 71
     2
176
     1
 72
     2
176
     1
 73
     1
176
     1
 90
        2
176
     1
 40
-0.6
176
     1
 41
30.0
176
     1
 62
     5
 63
     7
421
 16777215
176
     1
 74
     1
176
     1
 91
        4
176
     1
 64
     7
176
     1
 65
   257
176
     1
 75
     1
176
     1
175
     1
176
     1
 42
1.0
176
     1
 92
        0
176
     1
 66
   257
176
     1
 43
1.0
176
     1
 76
     1
176
     1
 77
     6
176
     1
 78
     2
176
     1
 67
     7
176
     1
 79
     5
176
     1
170
     0
176
     1
171
     0
176
     1
290
     0
176
     1
 93
       13
176
     1
 44
0.0
176
     1
173
     0
176
     1
  0
VISUALSTYLE
  5
38
102
{ACAD_REACTORS
330
2A
102
}
330
2A
100
AcDbVisualStyle
  2
Linepattern
 70
    14
177
     2
291
     1
 71
     2
176
     1
 72
     2
176
     1
 73
     0
176
     1
 90
        0
176
     1
 40
-0.6
176
     1
 41
-30.0
176
     1
 62
     5
 63
     7
421
 16777215
176
     1
 74
     1
176
     1
 91
        4
176
     1
 64
     7
176
     1
 65
   257
176
     1
 75
     7
176
     1
175
     7
176
     1
 42
1.0
176
     1
 92
        8
176
     1
 66
     7
176
     1
 43
1.0
176
     1
 76
     1
176
     1
 77
     6
176
     1
 78
     2
176
     1
 67
     7
176
     1
 79
     5
176
     1
170
     0
176
     1
171
     0
176
     1
290
     0
176
     1
 93
        1
176
     1
 44
0.0
176
     1
173
     0
176
     1
  0
VISUALSTYLE
  5
33
102
{ACAD_REACTORS
330
2A
102
}
330
2A
100
AcDbVisualStyle
  2
Realistic
 70
     8
177
     2
291
     0
 71
     2
176
     1
 72
     2
176
     1
 73
     0
176
     1
 90
        0
176
     1
 40
-0.6
176
     1
 41
-30.0
176
     1
 62
     5
 63
     7
421
 16777215
176
     1
 74
     1
176
     1
 91
        0
176
     1
 64
     7
176
     1
 65
   257
176
     1
 75
     1
176
     1
175
     1
176
     1
 42
1.0
176
     1
 92
        8
176
     1
 66
     8
424
  7895160
176
     1
 43
1.0
176
     1
 76
     1
176
     1
 77
     6
176
     1
 78
     2
176
     1
 67
     7
176
     1
 79
     5
176
     1
170
     0
176
     1
171
     0
176
     1
290
     0
176
     1
 93
       13
176
     1
 44
0.0
176
     1
173
     0
176
     1
  0
VISUALSTYLE
  5
37
102
{ACAD_REACTORS
330
2A
102
}
330
2A
100
AcDbVisualStyle
  2
Thicken
 70
    13
177
     2
291
     1
 71
     2
176
     1
 72
     2
176
     1
 73
     0
176
     1
 90
        0
176
     1
 40
-0.6
176
     1
 41
-30.0
176
     1
 62
     5
 63
     7
421
 16777215
176
     1
 74
     1
176
     1
 91
        4
176
     1
 64
     7
176
     1
 65
   257
176
     1
 75
     1
176
     1
175
     1
176
     1
 42
1.0
176
     1
 92
       12
176
     1
 66
     7
176
     1
 43
1.0
176
     1
 76
     1
176
     1
 77
     6
176
     1
 78
     2
176
     1
 67
     7
176
     1
 79
     5
176
     1
170
     0
176
     1
171
     0
176
     1
290
     0
176
     1
 93
        1
176
     1
 44
0.0
176
     1
173
     0
176
     1
  0
ENDSEC
  0
EOF
