  0
SECTION
  2
HEADER
  9
$ACADVER
  1
AC1024
  9
$ACADMAINTVER
 70
     6
  9
$DWGCODEPAGE
  3
UNDEFINED
  9
$INSBASE
 10
0.0
 20
0.0
 30
0.0
  9
$EXTMIN
 10
1.000000000000000E+20
 20
1.000000000000000E+20
 30
1.000000000000000E+20
  9
$EXTMAX
 10
-1.000000000000000E+20
 20
-1.000000000000000E+20
 30
-1.000000000000000E+20
  9
$LIMMIN
 10
0.0
 20
0.0
  9
$LIMMAX
 10
12.0
 20
9.0
  9
$ORTHOMODE
 70
     0
  9
$REGENMODE
 70
     1
  9
$FILLMODE
 70
     1
  9
$QTEXTMODE
 70
     0
  9
$MIRRTEXT
 70
     1
  9
$LTSCALE
 40
1.0
  9
$ATTMODE
 70
     1
  9
$TEXTSIZE
 40
0.2
  9
$TRACEWID
 40
0.05
  9
$TEXTSTYLE
  7
Standard
  9
$CLAYER
  8
0
  9
$CELTYPE
  6
ByLayer
  9
$CECOLOR
 62
   256
  9
$CELTSCALE
 40
1.0
  9
$DISPSILH
 70
     0
  9
$DIMSCALE
 40
1.0
  9
$DIMASZ
 40
0.18
  9
$DIMEXO
 40
0.0625
  9
$DIMDLI
 40
0.38
  9
$DIMRND
 40
0.0
  9
$DIMDLE
 40
0.0
  9
$DIMEXE
 40
0.18
  9
$DIMTP
 40
0.0
  9
$DIMTM
 40
0.0
  9
$DIMTXT
 40
0.18
  9
$DIMCEN
 40
0.09
  9
$DIMTSZ
 40
0.0
  9
$DIMTOL
 70
     0
  9
$DIMLIM
 70
     0
  9
$DIMTIH
 70
     1
  9
$DIMTOH
 70
     1
  9
$DIMSE1
 70
     0
  9
$DIMSE2
 70
     0
  9
$DIMTAD
 70
     0
  9
$DIMZIN
 70
     0
  9
$DIMBLK
  1

  9
$DIMASO
 70
     1
  9
$DIMSHO
 70
     1
  9
$DIMPOST
  1

  9
$DIMAPOST
  1

  9
$DIMALT
 70
     0
  9
$DIMALTD
 70
     2
  9
$DIMALTF
 40
25.4
  9
$DIMLFAC
 40
1.0
  9
$DIMTOFL
 70
     0
  9
$DIMTVP
 40
0.0
  9
$DIMTIX
 70
     0
  9
$DIMSOXD
 70
     0
  9
$DIMSAH
 70
     0
  9
$DIMBLK1
  1

  9
$DIMBLK2
  1

  9
$DIMSTYLE
  2
Standard
  9
$DIMCLRD
 70
     0
  9
$DIMCLRE
 70
     0
  9
$DIMCLRT
 70
     0
  9
$DIMTFAC
 40
1.0
  9
$DIMGAP
 40
0.09
  9
$DIMJUST
 70
     0
  9
$DIMSD1
 70
     0
  9
$DIMSD2
 70
     0
  9
$DIMTOLJ
 70
     1
  9
$DIMTZIN
 70
     0
  9
$DIMALTZ
 70
     0
  9
$DIMALTTZ
 70
     0
  9
$DIMUPT
 70
     0
  9
$DIMDEC
 70
     4
  9
$DIMTDEC
 70
     4
  9
$DIMALTU
 70
     2
  9
$DIMALTTD
 70
     2
  9
$DIMTXSTY
  7
Standard
  9
$DIMAUNIT
 70
     0
  9
$DIMADEC
 70
     0
  9
$DIMALTRND
 40
0.0
  9
$DIMAZIN
 70
     0
  9
$DIMDSEP
 70
    46
  9
$DIMATFIT
 70
     3
  9
$DIMFRAC
 70
     0
  9
$DIMLDRBLK
  1

  9
$DIMLUNIT
 70
     2
  9
$DIMLWD
 70
    -2
  9
$DIMLWE
 70
    -2
  9
$DIMTMOVE
 70
     0
  9
$DIMFXL
 40
1.0
  9
$DIMFXLON
 70
     0
  9
$DIMJOGANG
 40
0.7853981633974483
  9
$DIMTFILL
 70
     0
  9
$DIMTFILLCLR
 70
     0
  9
$DIMARCSYM
 70
     0
  9
$DIMLTYPE
  6

  9
$DIMLTEX1
  6

  9
$DIMLTEX2
  6

  9
$DIMTXTDIRECTION
 70
     0
  9
$LUNITS
 70
     2
  9
$LUPREC
 70
     4
  9
$SKETCHINC
 40
0.1
  9
$FILLETRAD
 40
0.5
  9
$AUNITS
 70
     0
  9
$AUPREC
 70
     0
  9
$MENU
  1
.
  9
$ELEVATION
 40
0.0
  9
$PELEVATION
 40
0.0
  9
$THICKNESS
 40
0.0
  9
$LIMCHECK
 70
     0
  9
$CHAMFERA
 40
0.5
  9
$CHAMFERB
 40
0.5
  9
$CHAMFERC
 40
1.0
  9
$CHAMFERD
 40
0.0
  9
$SKPOLY
 70
     0
  9
$TDCREATE
 40
2458843.935474526
  9
$TDUCREATE
 40
2458843.89380787
  9
$TDUPDATE
 40
2458843.935474526
  9
$TDUUPDATE
 40
2458843.89380787
  9
$TDINDWG
 40
0.0000000116
  9
$TDUSRTIMER
 40
0.0000000116
  9
$USRTIMER
 70
     1
  9
$ANGBASE
 50
0.0
  9
$ANGDIR
 70
     0
  9
$PDMODE
 70
     0
  9
$PDSIZE
 40
0.0
  9
$PLINEWID
 40
0.0
  9
$SPLFRAME
 70
     0
  9
$SPLINETYPE
 70
     6
  9
$SPLINESEGS
 70
     8
  9
$HANDSEED
  5
5E
  9
$SURFTAB1
 70
     6
  9
$SURFTAB2
 70
     6
  9
$SURFTYPE
 70
     6
  9
$SURFU
 70
     6
  9
$SURFV
 70
     6
  9
$UCSBASE
  2

  9
$UCSNAME
  2

  9
$UCSORG
 10
0.0
 20
0.0
 30
0.0
  9
$UCSXDIR
 10
1.0
 20
0.0
 30
0.0
  9
$UCSYDIR
 10
0.0
 20
1.0
 30
0.0
  9
$UCSORTHOREF
  2

  9
$UCSORTHOVIEW
 70
     0
  9
$UCSORGTOP
 10
0.0
 20
0.0
 30
0.0
  9
$UCSORGBOTTOM
 10
0.0
 20
0.0
 30
0.0
  9
$UCSORGLEFT
 10
0.0
 20
0.0
 30
0.0
  9
$UCSORGRIGHT
 10
0.0
 20
0.0
 30
0.0
  9
$UCSORGFRONT
 10
0.0
 20
0.0
 30
0.0
  9
$UCSORGBACK
 10
0.0
 20
0.0
 30
0.0
  9
$PUCSBASE
  2

  9
$PUCSNAME
  2

  9
$PUCSORG
 10
0.0
 20
0.0
 30
0.0
  9
$PUCSXDIR
 10
1.0
 20
0.0
 30
0.0
  9
$PUCSYDIR
 10
0.0
 20
1.0
 30
0.0
  9
$PUCSORTHOREF
  2

  9
$PUCSORTHOVIEW
 70
     0
  9
$PUCSORGTOP
 10
0.0
 20
0.0
 30
0.0
  9
$PUCSORGBOTTOM
 10
0.0
 20
0.0
 30
0.0
  9
$PUCSORGLEFT
 10
0.0
 20
0.0
 30
0.0
  9
$PUCSORGRIGHT
 10
0.0
 20
0.0
 30
0.0
  9
$PUCSORGFRONT
 10
0.0
 20
0.0
 30
0.0
  9
$PUCSORGBACK
 10
0.0
 20
0.0
 30
0.0
  9
$USERI1
 70
     0
  9
$USERI2
 70
     0
  9
$USERI3
 70
     0
  9
$USERI4
 70
     0
  9
$USERI5
 70
     0
  9
$USERR1
 40
0.0
  9
$USERR2
 40
0.0
  9
$USERR3
 40
0.0
  9
$USERR4
 40
0.0
  9
$USERR5
 40
0.0
  9
$WORLDVIEW
 70
     1
  9
$SHADEDGE
 70
     3
  9
$SHADEDIF
 70
    70
  9
$TILEMODE
 70
     1
  9
$MAXACTVP
 70
    64
  9
$PINSBASE
 10
0.0
 20
0.0
 30
0.0
  9
$PLIMCHECK
 70
     0
  9
$PEXTMIN
 10
1.000000000000000E+20
 20
1.000000000000000E+20
 30
1.000000000000000E+20
  9
$PEXTMAX
 10
-1.000000000000000E+20
 20
-1.000000000000000E+20
 30
-1.000000000000000E+20
  9
$PLIMMIN
 10
0.0
 20
0.0
  9
$PLIMMAX
 10
12.0
 20
9.0
  9
$UNITMODE
 70
     0
  9
$VISRETAIN
 70
     1
  9
$PLINEGEN
 70
     0
  9
$PSLTSCALE
 70
     1
  9
$TREEDEPTH
 70
  3020
  9
$CMLSTYLE
  2
Standard
  9
$CMLJUST
 70
     0
  9
$CMLSCALE
 40
1.0
  9
$PROXYGRAPHICS
 70
     1
  9
$MEASUREMENT
 70
     0
  9
$CELWEIGHT
370
    -1
  9
$ENDCAPS
280
     0
  9
$JOINSTYLE
280
     0
  9
$LWDISPLAY
290
     1
  9
$INSUNITS
 70
     1
  9
$HYPERLINKBASE
  1

  9
$STYLESHEET
  1

  9
$XEDIT
290
     1
  9
$CEPSNTYPE
380
     0
  9
$PSTYLEMODE
290
     1
  9
$FINGERPRINTGUID
  2
{02603373-B5FD-814B-7EFA-DE38AB42C089}
  9
$VERSIONGUID
  2
{FAEB1C32-E019-11D5-929B-00C0DF256EC4}
  9
$EXTNAMES
290
     1
  9
$PSVPSCALE
 40
0.0
  9
$OLESTARTUP
290
     0
  9
$SORTENTS
280
   127
  9
$INDEXCTL
280
     0
  9
$HIDETEXT
280
     1
  9
$XCLIPFRAME
280
     2
  9
$HALOGAP
280
     0
  9
$OBSCOLOR
 70
   257
  9
$OBSLTYPE
280
     0
  9
$INTERSECTIONDISPLAY
280
     0
  9
$INTERSECTIONCOLOR
 70
   257
  9
$DIMASSOC
280
     2
  9
$PROJECTNAME
  1

  9
$CAMERADISPLAY
290
     0
  9
$LENSLENGTH
 40
50.0
  9
$CAMERAHEIGHT
 40
0.0
  9
$STEPSPERSEC
 40
2.0
  9
$STEPSIZE
 40
6.0
  9
$3DDWFPREC
 40
2.0
  9
$PSOLWIDTH
 40
0.25
  9
$PSOLHEIGHT
 40
4.0
  9
$LOFTANG1
 40
1.570796326794897
  9
$LOFTANG2
 40
1.570796326794897
  9
$LOFTMAG1
 40
0.0
  9
$LOFTMAG2
 40
0.0
  9
$LOFTPARAM
 70
     7
  9
$LOFTNORMALS
280
     1
  9
$LATITUDE
 40
37.795
  9
$LONGITUDE
 40
-122.394
  9
$NORTHDIRECTION
 40
0.0
  9
$TIMEZONE
 70
 -8000
  9
$LIGHTGLYPHDISPLAY
280
     1
  9
$TILEMODELIGHTSYNCH
280
     1
  9
$CMATERIAL
347
3C
  9
$SOLIDHIST
280
     1
  9
$SHOWHIST
280
     1
  9
$DWFFRAME
280
     2
  9
$DGNFRAME
280
     2
  9
$REALWORLDSCALE
290
     1
  9
$INTERFERECOLOR
 62
   256
  9
$CSHADOW
280
     0
  9
$SHADOWPLANELOCATION
 40
0.0
  0
ENDSEC
  0
SECTION
  2
CLASSES
  0
CLASS
  1
ACDBDICTIONARYWDFLT
  2
AcDbDictionaryWithDefault
  3
ObjectDBX Classes
 90
        0
 91
        4
280
     0
281
     0
  0
CLASS
  1
VISUALSTYLE
  2
AcDbVisualStyle
  3
ObjectDBX Classes
 90
     4095
 91
        4
280
     0
281
     0
  0
CLASS
  1
MATERIAL
  2
AcDbMaterial
  3
ObjectDBX Classes
 90
     1153
 91
        4
280
     0
281
     0
  0
CLASS
  1
SUN
  2
AcDbSun
  3
SCENEOE
 90
     1024
 91
        4
280
     0
281
     0
  0
ENDSEC
  0
SECTION
  2
TABLES
  0
TABLE
  2
VPORT
  5
8
330
0
100
AcDbSymbolTable
 70
     1
  0
VPORT
  5
29
330
8
100
AcDbSymbolTableRecord
100
AcDbViewportTableRecord
  2
*Active
 70
     0
 10
0.0
 20
0.0
 11
1.0
 21
1.0
 12
0.0
 22
0.0
 13
0.0
 23
0.0
 14
0.5
 24
0.5
 15
0.5
 25
0.5
 16
0.0
 26
0.0
 36
1.0
 17
105.0007777515276
 27
148.5000416295416
 37
0.0
 40
24.99999999375009
 41
0.9999999999999869
 42
50.0
 43
0.0
 44
0.0
 50
0.0
 51
0.0
 71
     0
 72
   100
 73
     1
 74
     3
 75
     0
 76
     0
 77
     0
 78
     0
281
     0
 65
     1
110
0.0
120
0.0
130
0.0
111
1.0
121
0.0
131
0.0
112
0.0
122
1.0
132
0.0
 79
     0
146
0.0
 60
     3
 61
     5
292
     1
282
     1
141
0.0
142
0.0
 63
   250
361
3F
  0
ENDTAB
  0
TABLE
  2
LTYPE
  5
5
330
0
100
AcDbSymbolTable
 70
     1
  0
LTYPE
  5
14
330
5
100
AcDbSymbolTableRecord
100
AcDbLinetypeTableRecord
  2
ByBlock
 70
     0
  3

 72
    65
 73
     0
 40
0.0
  0
LTYPE
  5
15
330
5
100
AcDbSymbolTableRecord
100
AcDbLinetypeTableRecord
  2
ByLayer
 70
     0
  3

 72
    65
 73
     0
 40
0.0
  0
LTYPE
  5
16
330
5
100
AcDbSymbolTableRecord
100
AcDbLinetypeTableRecord
  2
Continuous
 70
     0
  3
Solid line
 72
    65
 73
     0
 40
0.0
  0
ENDTAB
  0
TABLE
  2
LAYER
  5
2
330
0
100
AcDbSymbolTable
 70
     1
  0
LAYER
  5
10
330
2
100
AcDbSymbolTableRecord
100
AcDbLayerTableRecord
  2
0
 70
     0
 62
     7
  6
Continuous
370
    -3
390
F
347
3E
  0
ENDTAB
  0
TABLE
  2
STYLE
  5
3
330
0
100
AcDbSymbolTable
 70
     1
  0
STYLE
  5
11
330
3
100
AcDbSymbolTableRecord
100
AcDbTextStyleTableRecord
  2
Standard
 70
     0
 40
0.0
 41
1.0
 50
0.0
 71
     0
 42
0.2
  3
txt
  4

  0
ENDTAB
  0
TABLE
  2
VIEW
  5
6
330
0
100
AcDbSymbolTable
 70
     0
  0
ENDTAB
  0
TABLE
  2
UCS
  5
7
330
0
100
AcDbSymbolTable
 70
     0
  0
ENDTAB
  0
TABLE
  2
APPID
  5
9
330
0
100
AcDbSymbolTable
 70
     1
  0
APPID
  5
12
330
9
100
AcDbSymbolTableRecord
100
AcDbRegAppTableRecord
  2
ACAD
 70
     0
  0
ENDTAB
  0
TABLE
  2
DIMSTYLE
  5
A
330
0
100
AcDbSymbolTable
 70
     1
100
AcDbDimStyleTable
  0
DIMSTYLE
105
27
330
A
100
AcDbSymbolTableRecord
100
AcDbDimStyleTableRecord
  2
Standard
 70
     0
178
     0
340
11
  0
ENDTAB
  0
TABLE
  2
BLOCK_RECORD
  5
1
330
0
100
AcDbSymbolTable
 70
     5
  0
BLOCK_RECORD
  5
1F
330
1
100
AcDbSymbolTableRecord
100
AcDbBlockTableRecord
  2
*Model_Space
340
22
 70
     0
280
     1
281
     0
  0
BLOCK_RECORD
  5
1B
330
1
100
AcDbSymbolTableRecord
100
AcDbBlockTableRecord
  2
*Paper_Space
340
1E
 70
     0
280
     1
281
     0
  0
BLOCK_RECORD
  5
23
330
1
100
AcDbSymbolTableRecord
100
AcDbBlockTableRecord
  2
*Paper_Space0
340
26
 70
     0
280
     1
281
     0
  0
BLOCK_RECORD
  5
40
330
1
100
AcDbSymbolTableRecord
100
AcDbBlockTableRecord
  2
block 2
340
0
102
{BLKREFS
331
41
102
}
 70
     0
280
     1
281
     0
  0
BLOCK_RECORD
  5
4C
330
1
100
AcDbSymbolTableRecord
100
AcDbBlockTableRecord
  2
block 3
340
0
102
{BLKREFS
331
4D
102
}
 70
     0
280
     1
281
     0
  0
BLOCK_RECORD
  5
51
330
1
100
AcDbSymbolTableRecord
100
AcDbBlockTableRecord
  2
block 4
340
0
102
{BLKREFS
331
52
102
}
 70
     0
280
     1
281
     0
  0
BLOCK_RECORD
  5
56
330
1
100
AcDbSymbolTableRecord
100
AcDbBlockTableRecord
  2
block 5
340
0
102
{BLKREFS
331
57
102
}
 70
     0
280
     1
281
     0
  0
ENDTAB
  0
ENDSEC
  0
SECTION
  2
BLOCKS
  0
BLOCK
  5
20
330
1F
100
AcDbEntity
  8
0
100
AcDbBlockBegin
  2
*Model_Space
 70
     0
 10
0.0
 20
0.0
 30
0.0
  3
*Model_Space
  1

  0
ENDBLK
  5
21
330
1F
100
AcDbEntity
  8
0
100
AcDbBlockEnd
  0
BLOCK
  5
1C
330
1B
100
AcDbEntity
 67
     1
  8
0
100
AcDbBlockBegin
  2
*Paper_Space
 70
     0
 10
0.0
 20
0.0
 30
0.0
  3
*Paper_Space
  1

  0
ENDBLK
  5
1D
330
1B
100
AcDbEntity
 67
     1
  8
0
100
AcDbBlockEnd
  0
BLOCK
  5
24
330
23
100
AcDbEntity
  8
0
100
AcDbBlockBegin
  2
*Paper_Space0
 70
     0
 10
0.0
 20
0.0
 30
0.0
  3
*Paper_Space0
  1

  0
ENDBLK
  5
25
330
23
100
AcDbEntity
  8
0
100
AcDbBlockEnd
  0
BLOCK
  5
42
330
40
100
AcDbEntity
  8
0
100
AcDbBlockBegin
  2
block 2
 70
     0
 10
0.0
 20
0.0
 30
0.0
  3
block 2
  1

  0
POLYLINE
  5
44
330
40
100
AcDbEntity
  8
0
 62
     7
420
 16777215
370
     5
100
AcDb2dPolyline
 66
     1
 10
0.0
 20
0.0
 30
0.0
  0
VERTEX
  5
45
330
44
100
AcDbEntity
  8
0
 62
     7
420
 16777215
370
     5
100
AcDbVertex
100
AcDb2dVertex
 10
98.39677775166163
 20
152.3788332964612
 30
0.0
  0
VERTEX
  5
46
330
44
100
AcDbEntity
  8
0
 62
     7
420
 16777215
370
     5
100
AcDbVertex
100
AcDb2dVertex
 10
98.39677775133116
 20
145.0128332964607
 30
0.0
  0
VERTEX
  5
47
330
44
100
AcDbEntity
  8
0
 62
     7
420
 16777215
370
     5
100
AcDbVertex
100
AcDb2dVertex
 10
111.8587777513307
 20
145.0128332958562
 30
0.0
  0
VERTEX
  5
48
330
44
100
AcDbEntity
  8
0
 62
     7
420
 16777215
370
     5
100
AcDbVertex
100
AcDb2dVertex
 10
111.8587777516618
 20
152.3788332958571
 30
0.0
  0
VERTEX
  5
49
330
44
100
AcDbEntity
  8
0
 62
     7
420
 16777215
370
     5
100
AcDbVertex
100
AcDb2dVertex
 10
98.39677775166163
 20
152.3788332964612
 30
0.0
  0
SEQEND
  5
4B
330
44
100
AcDbEntity
  8
0
 62
     7
420
 16777215
370
     5
  0
HATCH
  5
4A
330
40
100
AcDbEntity
  8
0
 62
     7
420
 16777215
100
AcDbHatch
 10
0.0
 20
0.0
 30
0.0
210
0.0
220
0.0
230
1.0
  2
SOLID
 70
     1
 71
     0
 91
        1
 92
        1
 93
        4
 72
     1
 10
98.39677775166163
 20
152.3788332964612
 11
98.39677775133116
 21
145.0128332964607
 72
     1
 10
98.39677775133116
 20
145.0128332964607
 11
111.8587777513307
 21
145.0128332958562
 72
     1
 10
111.8587777513307
 20
145.0128332958562
 11
111.8587777516618
 21
152.3788332958571
 72
     1
 10
111.8587777516618
 20
152.3788332958571
 11
98.39677775166163
 21
152.3788332964612
 97
        0
 75
     2
 76
     1
 98
        0
  0
ENDBLK
  5
43
330
40
100
AcDbEntity
  8
0
100
AcDbBlockEnd
  0
BLOCK
  5
4E
330
4C
100
AcDbEntity
  8
0
100
AcDbBlockBegin
  2
block 3
 70
     0
 10
0.0
 20
0.0
 30
0.0
  3
block 3
  1

  0
SPLINE
  5
50
330
4C
100
AcDbEntity
  8
0
 62
     7
420
 16777215
370
     5
100
AcDbSpline
210
0.0
220
0.0
230
1.0
 70
    11
 71
     3
 72
   248
 73
   244
 74
     0
 42
0.0000000001
 43
0.0000000001
 12
1.0
 22
0.0
 32
0.0
 13
1.0
 23
0.0
 33
0.0
 40
0.0
 40
0.0
 40
0.0
 40
0.0
 40
1.0
 40
1.0
 40
1.0
 40
2.0
 40
2.0
 40
2.0
 40
3.0
 40
3.0
 40
3.0
 40
4.0
 40
4.0
 40
4.0
 40
5.0
 40
5.0
 40
5.0
 40
6.0
 40
6.0
 40
6.0
 40
7.0
 40
7.0
 40
7.0
 40
8.0
 40
8.0
 40
8.0
 40
9.0
 40
9.0
 40
9.0
 40
10.0
 40
10.0
 40
10.0
 40
11.0
 40
11.0
 40
11.0
 40
12.0
 40
12.0
 40
12.0
 40
13.0
 40
13.0
 40
13.0
 40
14.0
 40
14.0
 40
14.0
 40
15.0
 40
15.0
 40
15.0
 40
16.0
 40
16.0
 40
16.0
 40
17.0
 40
17.0
 40
17.0
 40
18.0
 40
18.0
 40
18.0
 40
19.0
 40
19.0
 40
19.0
 40
20.0
 40
20.0
 40
20.0
 40
21.0
 40
21.0
 40
21.0
 40
22.0
 40
22.0
 40
22.0
 40
23.0
 40
23.0
 40
23.0
 40
24.0
 40
24.0
 40
24.0
 40
25.0
 40
25.0
 40
25.0
 40
26.0
 40
26.0
 40
26.0
 40
27.0
 40
27.0
 40
27.0
 40
28.0
 40
28.0
 40
28.0
 40
29.0
 40
29.0
 40
29.0
 40
30.0
 40
30.0
 40
30.0
 40
31.0
 40
31.0
 40
31.0
 40
32.0
 40
32.0
 40
32.0
 40
33.0
 40
33.0
 40
33.0
 40
34.0
 40
34.0
 40
34.0
 40
35.0
 40
35.0
 40
35.0
 40
36.0
 40
36.0
 40
36.0
 40
37.0
 40
37.0
 40
37.0
 40
38.0
 40
38.0
 40
38.0
 40
39.0
 40
39.0
 40
39.0
 40
40.0
 40
40.0
 40
40.0
 40
41.0
 40
41.0
 40
41.0
 40
42.0
 40
42.0
 40
42.0
 40
43.0
 40
43.0
 40
43.0
 40
44.0
 40
44.0
 40
44.0
 40
45.0
 40
45.0
 40
45.0
 40
46.0
 40
46.0
 40
46.0
 40
47.0
 40
47.0
 40
47.0
 40
48.0
 40
48.0
 40
48.0
 40
49.0
 40
49.0
 40
49.0
 40
50.0
 40
50.0
 40
50.0
 40
51.0
 40
51.0
 40
51.0
 40
52.0
 40
52.0
 40
52.0
 40
53.0
 40
53.0
 40
53.0
 40
54.0
 40
54.0
 40
54.0
 40
55.0
 40
55.0
 40
55.0
 40
56.0
 40
56.0
 40
56.0
 40
57.0
 40
57.0
 40
57.0
 40
58.0
 40
58.0
 40
58.0
 40
59.0
 40
59.0
 40
59.0
 40
60.0
 40
60.0
 40
60.0
 40
61.0
 40
61.0
 40
61.0
 40
62.0
 40
62.0
 40
62.0
 40
63.0
 40
63.0
 40
63.0
 40
64.0
 40
64.0
 40
64.0
 40
65.0
 40
65.0
 40
65.0
 40
66.0
 40
66.0
 40
66.0
 40
67.0
 40
67.0
 40
67.0
 40
68.0
 40
68.0
 40
68.0
 40
69.0
 40
69.0
 40
69.0
 40
70.0
 40
70.0
 40
70.0
 40
71.0
 40
71.0
 40
71.0
 40
72.0
 40
72.0
 40
72.0
 40
73.0
 40
73.0
 40
73.0
 40
74.0
 40
74.0
 40
74.0
 40
75.0
 40
75.0
 40
75.0
 40
76.0
 40
76.0
 40
76.0
 40
77.0
 40
77.0
 40
77.0
 40
78.0
 40
78.0
 40
78.0
 40
79.0
 40
79.0
 40
79.0
 40
80.0
 40
80.0
 40
80.0
 40
81.0
 40
81.0
 40
81.0
 40
81.0
 10
105.5302594554438
 20
147.5294286881413
 30
0.0
 10
105.5191757264449
 20
147.5428426491413
 30
0.0
 10
105.5080919978599
 20
147.5562566108061
 30
0.0
 10
105.4975190079962
 20
147.5700720018279
 30
0.0
 10
105.4866045817263
 20
147.5843335369881
 30
0.0
 10
105.4762344136497
 20
147.5990228470728
 30
0.0
 10
105.4664720324856
 20
147.6141022589223
 30
0.0
 10
105.4562448677215
 20
147.62989959637
 30
0.0
 10
105.4466847405781
 20
147.6461250650393
 30
0.0
 10
105.4376830184007
 20
147.6626484391815
 30
0.0
 10
105.4283016611865
 20
147.6798686635054
 30
0.0
 10
105.4195268020213
 20
147.6974124506541
 30
0.0
 10
105.4111519668389
 20
147.7151460519025
 30
0.0
 10
105.4023712339546
 20
147.7337391360914
 30
0.0
 10
105.3940302401103
 20
147.7525408794472
 30
0.0
 10
105.3863143855867
 20
147.7715950994697
 30
0.0
 10
105.378180615789
 20
147.7916813567817
 30
0.0
 10
105.3707415383278
 20
147.812048181322
 30
0.0
 10
105.3637347672336
 20
147.8325600701297
 30
0.0
 10
105.3564615396612
 20
147.8538519937874
 30
0.0
 10
105.349654123502
 20
147.8753002246301
 30
0.0
 10
105.34341311057
 20
147.8969119833186
 30
0.0
 10
105.3368287080815
 20
147.9197128522236
 30
0.0
 10
105.330874752176
 20
147.9426957391112
 30
0.0
 10
105.3253494153386
 20
147.9657798208593
 30
0.0
 10
105.313596358035
 20
148.0148824445664
 30
0.0
 10
105.3037826484183
 20
148.0644429387637
 30
0.0
 10
105.2954314203008
 20
148.1142408138926
 30
0.0
 10
105.2864155935201
 20
148.1680016512144
 30
0.0
 10
105.279104281654
 20
148.2220391548329
 30
0.0
 10
105.2734162920873
 20
148.2762495788127
 30
0.0
 10
105.2672725193343
 20
148.3348039277406
 30
0.0
 10
105.2630226483921
 20
148.3935600198375
 30
0.0
 10
105.2604330113415
 20
148.4523706050479
 30
0.0
 10
105.257642654894
 20
148.5157395221669
 30
0.0
 10
105.2567798714911
 20
148.5791717071537
 30
0.0
 10
105.255917087494
 20
148.6426038931535
 30
0.0
 10
105.2566744024967
 20
148.6981491161535
 30
0.0
 10
105.2574317179395
 20
148.7536943391705
 30
0.0
 10
105.2604330114763
 20
148.8091285811866
 30
0.0
 10
105.2632505617443
 20
148.8611690635758
 30
0.0
 10
105.2680457418829
 20
148.9131117378163
 30
0.0
 10
105.2739807825888
 20
148.9649279503033
 30
0.0
 10
105.2795432411137
 20
149.0134913127357
 30
0.0
 10
105.28610693896
 20
149.0619435927391
 30
0.0
 10
105.2948669299316
 20
149.1100020015394
 30
0.0
 10
105.3030602655452
 20
149.1549516679971
 30
0.0
 10
105.3131749422664
 20
149.1995567716434
 30
0.0
 10
105.3247849246318
 20
149.2437862421765
 30
0.0
 10
105.3357335421634
 20
149.2854961725816
 30
0.0
 10
105.3480119569196
 20
149.3268720469538
 30
0.0
 10
105.3626057858405
 20
149.3674096546308
 30
0.0
 10
105.37634545515
 20
149.4055746438918
 30
0.0
 10
105.392137433434
 20
149.4429966203956
 30
0.0
 10
105.4094584950881
 20
149.4797432585775
 30
0.0
 10
105.4257756169034
 20
149.5143600380497
 30
0.0
 10
105.4434497056417
 20
149.5483774965287
 30
0.0
 10
105.4636495804556
 20
149.5807870526536
 30
0.0
 10
105.4831539861872
 20
149.6120807679896
 30
0.0
 10
105.5050132495389
 20
149.6418753931422
 30
0.0
 10
105.5268725125402
 20
149.6716700181416
 30
0.0
 10
105.543010639541
 20
149.6899655551406
 30
0.0
 10
105.559148765859
 20
149.7082610919365
 30
0.0
 10
105.5765476743426
 20
149.7252966126829
 30
0.0
 10
105.5937881517553
 20
149.7421770112957
 30
0.0
 10
105.6122665549989
 20
149.7578202363054
 30
0.0
 10
105.6313032493749
 20
149.7727138118991
 30
0.0
 10
105.6504465927579
 20
149.7876908255641
 30
0.0
 10
105.6701545002088
 20
149.8019097667849
 30
0.0
 10
105.6905747487808
 20
149.8150505965664
 30
0.0
 10
105.7113421948996
 20
149.8284148547669
 30
0.0
 10
105.7328464113872
 20
149.8406640284395
 30
0.0
 10
105.7549266626652
 20
149.8517424774597
 30
0.0
 10
105.7766234199351
 20
149.8626285138675
 30
0.0
 10
105.798876376394
 20
149.8723841392069
 30
0.0
 10
105.8215365371618
 20
149.8810959814063
 30
0.0
 10
105.842986972799
 20
149.8893427371248
 30
0.0
 10
105.8648022956319
 20
149.8966541807774
 30
0.0
 10
105.8870174321346
 20
149.9025466195451
 30
0.0
 10
105.9085396530769
 20
149.9082552663966
 30
0.0
 10
105.9304371353689
 20
149.9126320486072
 30
0.0
 10
105.9524983266248
 20
149.9155299002938
 30
0.0
 10
105.9738578660384
 20
149.9183355863779
 30
0.0
 10
105.9953708665517
 20
149.9197549201203
 30
0.0
 10
106.0168838665515
 20
149.9211742541191
 30
0.0
 10
106.0168838665515
 20
149.9211742541191
 30
0.0
 10
106.0168502395512
 20
149.9206103141191
 30
0.0
 10
106.0168502395512
 20
149.9206103141191
 30
0.0
 10
106.0351398755513
 20
149.9198790451187
 30
0.0
 10
106.0534295106614
 20
149.9191477759225
 30
0.0
 10
106.071605815607
 20
149.9172233720253
 30
0.0
 10
106.0899925900434
 20
149.9152766848136
 30
0.0
 10
106.1082633945439
 20
149.9121090715153
 30
0.0
 10
106.1263613910332
 20
149.9081915244815
 30
0.0
 10
106.1450263107865
 20
149.904151259524
 30
0.0
 10
106.1635074264688
 20
149.8993133413042
 30
0.0
 10
106.1816814566664
 20
149.8935147719907
 30
0.0
 10
106.2006258750599
 20
149.8874704041772
 30
0.0
 10
106.2192366217711
 20
149.8803822160508
 30
0.0
 10
106.2375660133259
 20
149.8726286244182
 30
0.0
 10
106.2561843949659
 20
149.8647527858965
 30
0.0
 10
106.2745124795453
 20
149.8561903963117
 30
0.0
 10
106.2923215885456
 20
149.8466620633017
 30
0.0
 10
106.3101028611497
 20
149.8371486234815
 30
0.0
 10
106.3273667792681
 20
149.8266722574972
 30
0.0
 10
106.3442547114747
 20
149.8156150871978
 30
0.0
 10
106.3613064802517
 20
149.8044506468768
 30
0.0
 10
106.377974932551
 20
149.7926940783491
 30
0.0
 10
106.3939298732643
 20
149.7800521873693
 30
0.0
 10
106.4100319296004
 20
149.7672937293838
 30
0.0
 10
106.4254072555441
 20
149.753633547101
 30
0.0
 10
106.440782581543
 20
149.7399733641002
 30
0.0
 10
106.4545711285428
 20
149.7256975120996
 30
0.0
 10
106.4683596745684
 20
149.7114216600271
 30
0.0
 10
106.4814258960194
 20
149.6965075986132
 30
0.0
 10
106.494646987899
 20
149.6814167648182
 30
0.0
 10
106.5071285306868
 20
149.6656725029721
 30
0.0
 10
106.5192467572378
 20
149.6496548893778
 30
0.0
 10
106.5316346383448
 20
149.6332808521364
 30
0.0
 10
106.5436428543058
 20
149.6166211625602
 30
0.0
 10
106.5548096568166
 20
149.5994152373318
 30
0.0
 10
106.5662432844463
 20
149.5817981851884
 30
0.0
 10
106.5767948079235
 20
149.5636084814699
 30
0.0
 10
106.5869856130575
 20
149.5452241530991
 30
0.0
 10
106.5974777289919
 20
149.526296256618
 30
0.0
 10
106.6075874805747
 20
149.5071620564368
 30
0.0
 10
106.6169036084161
 20
149.4876461246499
 30
0.0
 10
106.626449575086
 20
149.4676487139728
 30
0.0
 10
106.6351622758742
 20
149.4472505038918
 30
0.0
 10
106.6434346602307
 20
149.4266811538769
 30
0.0
 10
106.6520576876786
 20
149.4052399270034
 30
0.0
 10
106.6602022800412
 20
149.3836127444339
 30
0.0
 10
106.6677077503994
 20
149.3617647499552
 30
0.0
 10
106.6754608290091
 20
149.3391959820357
 30
0.0
 10
106.6825319202726
 20
149.3163915925496
 30
0.0
 10
106.6891583879524
 20
149.2934614035657
 30
0.0
 10
106.6960780732646
 20
149.2695165660464
 30
0.0
 10
106.7025129157037
 20
149.2454345495916
 30
0.0
 10
106.7083510639089
 20
149.2212066237878
 30
0.0
 10
106.714437879201
 20
149.195946746148
 30
0.0
 10
106.7198760871567
 20
149.1705282648736
 30
0.0
 10
106.7247212876583
 20
149.1450004098018
 30
0.0
 10
106.7298093210751
 20
149.1181931435963
 30
0.0
 10
106.7342434165218
 20
149.0912652656203
 30
0.0
 10
106.7382690589967
 20
149.0642782732238
 30
0.0
 10
106.7424703710857
 20
149.0361136316555
 30
0.0
 10
106.7462268045464
 20
149.0078846038688
 30
0.0
 10
106.7495588683869
 20
148.9796047028243
 30
0.0
 10
106.7530556467851
 20
148.9499268359563
 30
0.0
 10
106.7560850626655
 20
148.9201929418597
 30
0.0
 10
106.7585907158675
 20
148.8904152086392
 30
0.0
 10
106.7611998435164
 20
148.8594077623441
 30
0.0
 10
106.763241056244
 20
148.8283527813665
 30
0.0
 10
106.7648001111026
 20
148.7972742811412
 30
0.0
 10
106.766422694476
 20
148.7649293912484
 30
0.0
 10
106.7675230253726
 20
148.7325590263273
 30
0.0
 10
106.7681870539542
 20
148.7001819201951
 30
0.0
 10
106.7688815880252
 20
148.666317409051
 30
0.0
 10
106.7690988114934
 20
148.6324455230857
 30
0.0
 10
106.7693160344919
 20
148.5985736360857
 30
0.0
 10
106.7691255574901
 20
148.5671460450857
 30
0.0
 10
106.7689350793744
 20
148.5357184536095
 30
0.0
 10
106.7681870540164
 20
148.5043037274625
 30
0.0
 10
106.7674654549685
 20
148.4739988237598
 30
0.0
 10
106.7662250069826
 20
148.4437058924277
 30
0.0
 10
106.7648001113323
 20
148.4134207628366
 30
0.0
 10
106.7634357891947
 20
148.3844230795767
 30
0.0
 10
106.7619023681156
 20
148.3554325488394
 30
0.0
 10
106.7597196967421
 20
148.3264892297026
 30
0.0
 10
106.7576162894444
 20
148.2985969920524
 30
0.0
 10
106.7549099308935
 20
148.2707485992714
 30
0.0
 10
106.7518168301014
 20
148.2429446411916
 30
0.0
 10
106.7488386721919
 20
148.2161739074681
 30
0.0
 10
106.745501981469
 20
148.1894443673267
 30
0.0
 10
106.7416560015826
 20
148.1627869942699
 30
0.0
 10
106.7379807885731
 20
148.1373132457962
 30
0.0
 10
106.7338405086453
 20
148.1119053980453
 30
0.0
 10
106.7292372111913
 20
148.0865807808312
 30
0.0
 10
106.7248084722651
 20
148.0622164812827
 30
0.0
 10
106.7199511655644
 20
148.0379292196957
 30
0.0
 10
106.7145604591831
 20
148.0137615102448
 30
0.0
 10
106.7094138892163
 20
147.9906883174518
 30
0.0
 10
106.7037811391698
 20
147.9677240933553
 30
0.0
 10
106.6976257451702
 20
147.9448936730288
 30
0.0
 10
106.6858963965786
 20
147.9013893971807
 30
0.0
 10
106.6722692848619
 20
147.8583709738177
 30
0.0
 10
106.6564179410952
 20
147.8161898459927
 30
0.0
 10
106.6413853866922
 20
147.7761875529272
 30
0.0
 10
106.6243524477291
 20
147.7369382896855
 30
0.0
 10
106.6050493081875
 20
147.6987758291836
 30
0.0
 10
106.5866033098586
 20
147.6623079436812
 30
0.0
 10
106.56608424777
 20
147.6268324865105
 30
0.0
 10
106.5429553568415
 20
147.5932161115115
 30
0.0
 10
106.5206733914695
 20
147.5608306890551
 30
0.0
 10
106.495969229444
 20
147.5301706910986
 30
0.0
 10
106.4712650674428
 20
147.4995106930984
 30
0.0
 10
106.4561142204421
 20
147.4837950310994
 30
0.0
 10
106.4409633741172
 20
147.4680793689373
 30
0.0
 10
106.4249768488417
 20
147.4532224747271
 30
0.0
 10
106.4092147931263
 20
147.4385741887327
 30
0.0
 10
106.3926403615282
 20
147.4247607237795
 30
0.0
 10
106.3753016876643
 20
147.4120146707945
 30
0.0
 10
106.357888899552
 20
147.3992141347413
 30
0.0
 10
106.3397053216966
 20
147.3874901554721
 30
0.0
 10
106.3211106023789
 20
147.3764517711707
 30
0.0
 10
106.302201922789
 20
147.3652270106144
 30
0.0
 10
106.2828681007922
 20
147.354711192165
 30
0.0
 10
106.2629680843096
 20
147.3454047954342
 30
0.0
 10
106.2434728410572
 20
147.3362876940369
 30
0.0
 10
106.2234342022519
 20
147.3283313146181
 30
0.0
 10
106.2031320943637
 20
147.3211317050068
 30
0.0
 10
106.1836502635485
 20
147.3142229851254
 30
0.0
 10
106.1639258237204
 20
147.3080111180759
 30
0.0
 10
106.1438605952831
 20
147.3030680098184
 30
0.0
 10
106.1241753225698
 20
147.2982185043979
 30
0.0
 10
106.1041620454136
 20
147.2945901622073
 30
0.0
 10
106.0840246051467
 20
147.2923426908616
 30
0.0
 10
106.0643464810999
 20
147.2901464822418
 30
0.0
 10
106.0445497934332
 20
147.2892688701174
 30
0.0
 10
106.0247531064332
 20
147.2883912581188
 30
0.0
 10
106.0034358564333
 20
147.2893729781195
 30
0.0
 10
105.9821186065085
 20
147.2903546987286
 30
0.0
 10
105.9609656834448
 20
147.2929071817905
 30
0.0
 10
105.9391027122521
 20
147.2955453450125
 30
0.0
 10
105.9174152851214
 20
147.2998614933234
 30
0.0
 10
105.8960492793669
 20
147.3053259720592
 30
0.0
 10
105.8740596092036
 20
147.3109499565494
 30
0.0
 10
105.8524103985759
 20
147.3177902884067
 30
0.0
 10
105.8311328751593
 20
147.3256476288415
 30
0.0
 10
105.8086665095638
 20
147.333943983607
 30
0.0
 10
105.7866145261822
 20
147.3433741687938
 30
0.0
 10
105.7650874906496
 20
147.353872152036
 30
0.0
 10
105.7432803736812
 20
147.36450672121
 30
0.0
 10
105.7220119532833
 20
147.376237054759
 30
0.0
 10
105.701300067726
 20
147.3888705611044
 30
0.0
 10
105.6805757186203
 20
147.4015116697661
 30
0.0
 10
105.6604085743551
 20
147.4150570385345
 30
0.0
 10
105.6408995869886
 20
147.4295138754865
 30
0.0
 10
105.6211244062932
 20
147.4441679709389
 30
0.0
 10
105.6020254656717
 20
147.4597585775999
 30
0.0
 10
105.5838860500776
 20
147.4763665842362
 30
0.0
 10
105.5653419761814
 20
147.4933450861468
 30
0.0
 10
105.547800715443
 20
147.5113868871402
 30
0.0
 10
105.5302594554438
 20
147.5294286881413
 30
0.0
  0
ENDBLK
  5
4F
330
4C
100
AcDbEntity
  8
0
100
AcDbBlockEnd
  0
BLOCK
  5
53
330
51
100
AcDbEntity
  8
0
100
AcDbBlockBegin
  2
block 4
 70
     0
 10
0.0
 20
0.0
 30
0.0
  3
block 4
  1

  0
SPLINE
  5
55
330
51
100
AcDbEntity
  8
0
 62
     7
420
 16777215
370
     5
100
AcDbSpline
210
0.0
220
0.0
230
1.0
 70
    11
 71
     3
 72
   455
 73
   451
 74
     0
 42
0.0000000001
 43
0.0000000001
 12
1.0
 22
0.0
 32
0.0
 13
1.0
 23
0.0
 33
0.0
 40
0.0
 40
0.0
 40
0.0
 40
0.0
 40
1.0
 40
1.0
 40
1.0
 40
2.0
 40
2.0
 40
2.0
 40
3.0
 40
3.0
 40
3.0
 40
4.0
 40
4.0
 40
4.0
 40
5.0
 40
5.0
 40
5.0
 40
6.0
 40
6.0
 40
6.0
 40
7.0
 40
7.0
 40
7.0
 40
8.0
 40
8.0
 40
8.0
 40
9.0
 40
9.0
 40
9.0
 40
10.0
 40
10.0
 40
10.0
 40
11.0
 40
11.0
 40
11.0
 40
12.0
 40
12.0
 40
12.0
 40
13.0
 40
13.0
 40
13.0
 40
14.0
 40
14.0
 40
14.0
 40
15.0
 40
15.0
 40
15.0
 40
16.0
 40
16.0
 40
16.0
 40
17.0
 40
17.0
 40
17.0
 40
18.0
 40
18.0
 40
18.0
 40
19.0
 40
19.0
 40
19.0
 40
20.0
 40
20.0
 40
20.0
 40
21.0
 40
21.0
 40
21.0
 40
22.0
 40
22.0
 40
22.0
 40
23.0
 40
23.0
 40
23.0
 40
24.0
 40
24.0
 40
24.0
 40
25.0
 40
25.0
 40
25.0
 40
26.0
 40
26.0
 40
26.0
 40
27.0
 40
27.0
 40
27.0
 40
28.0
 40
28.0
 40
28.0
 40
29.0
 40
29.0
 40
29.0
 40
30.0
 40
30.0
 40
30.0
 40
31.0
 40
31.0
 40
31.0
 40
32.0
 40
32.0
 40
32.0
 40
33.0
 40
33.0
 40
33.0
 40
34.0
 40
34.0
 40
34.0
 40
35.0
 40
35.0
 40
35.0
 40
36.0
 40
36.0
 40
36.0
 40
37.0
 40
37.0
 40
37.0
 40
38.0
 40
38.0
 40
38.0
 40
39.0
 40
39.0
 40
39.0
 40
40.0
 40
40.0
 40
40.0
 40
41.0
 40
41.0
 40
41.0
 40
42.0
 40
42.0
 40
42.0
 40
43.0
 40
43.0
 40
43.0
 40
44.0
 40
44.0
 40
44.0
 40
45.0
 40
45.0
 40
45.0
 40
46.0
 40
46.0
 40
46.0
 40
47.0
 40
47.0
 40
47.0
 40
48.0
 40
48.0
 40
48.0
 40
49.0
 40
49.0
 40
49.0
 40
50.0
 40
50.0
 40
50.0
 40
51.0
 40
51.0
 40
51.0
 40
52.0
 40
52.0
 40
52.0
 40
53.0
 40
53.0
 40
53.0
 40
54.0
 40
54.0
 40
54.0
 40
55.0
 40
55.0
 40
55.0
 40
56.0
 40
56.0
 40
56.0
 40
57.0
 40
57.0
 40
57.0
 40
58.0
 40
58.0
 40
58.0
 40
59.0
 40
59.0
 40
59.0
 40
60.0
 40
60.0
 40
60.0
 40
61.0
 40
61.0
 40
61.0
 40
62.0
 40
62.0
 40
62.0
 40
63.0
 40
63.0
 40
63.0
 40
64.0
 40
64.0
 40
64.0
 40
65.0
 40
65.0
 40
65.0
 40
66.0
 40
66.0
 40
66.0
 40
67.0
 40
67.0
 40
67.0
 40
68.0
 40
68.0
 40
68.0
 40
69.0
 40
69.0
 40
69.0
 40
70.0
 40
70.0
 40
70.0
 40
71.0
 40
71.0
 40
71.0
 40
72.0
 40
72.0
 40
72.0
 40
73.0
 40
73.0
 40
73.0
 40
74.0
 40
74.0
 40
74.0
 40
75.0
 40
75.0
 40
75.0
 40
76.0
 40
76.0
 40
76.0
 40
77.0
 40
77.0
 40
77.0
 40
78.0
 40
78.0
 40
78.0
 40
79.0
 40
79.0
 40
79.0
 40
80.0
 40
80.0
 40
80.0
 40
81.0
 40
81.0
 40
81.0
 40
82.0
 40
82.0
 40
82.0
 40
83.0
 40
83.0
 40
83.0
 40
84.0
 40
84.0
 40
84.0
 40
85.0
 40
85.0
 40
85.0
 40
86.0
 40
86.0
 40
86.0
 40
87.0
 40
87.0
 40
87.0
 40
88.0
 40
88.0
 40
88.0
 40
89.0
 40
89.0
 40
89.0
 40
90.0
 40
90.0
 40
90.0
 40
91.0
 40
91.0
 40
91.0
 40
92.0
 40
92.0
 40
92.0
 40
93.0
 40
93.0
 40
93.0
 40
94.0
 40
94.0
 40
94.0
 40
95.0
 40
95.0
 40
95.0
 40
96.0
 40
96.0
 40
96.0
 40
97.0
 40
97.0
 40
97.0
 40
98.0
 40
98.0
 40
98.0
 40
99.0
 40
99.0
 40
99.0
 40
100.0
 40
100.0
 40
100.0
 40
101.0
 40
101.0
 40
101.0
 40
102.0
 40
102.0
 40
102.0
 40
103.0
 40
103.0
 40
103.0
 40
104.0
 40
104.0
 40
104.0
 40
105.0
 40
105.0
 40
105.0
 40
106.0
 40
106.0
 40
106.0
 40
107.0
 40
107.0
 40
107.0
 40
108.0
 40
108.0
 40
108.0
 40
109.0
 40
109.0
 40
109.0
 40
110.0
 40
110.0
 40
110.0
 40
111.0
 40
111.0
 40
111.0
 40
112.0
 40
112.0
 40
112.0
 40
113.0
 40
113.0
 40
113.0
 40
114.0
 40
114.0
 40
114.0
 40
115.0
 40
115.0
 40
115.0
 40
116.0
 40
116.0
 40
116.0
 40
117.0
 40
117.0
 40
117.0
 40
118.0
 40
118.0
 40
118.0
 40
119.0
 40
119.0
 40
119.0
 40
120.0
 40
120.0
 40
120.0
 40
121.0
 40
121.0
 40
121.0
 40
122.0
 40
122.0
 40
122.0
 40
123.0
 40
123.0
 40
123.0
 40
124.0
 40
124.0
 40
124.0
 40
125.0
 40
125.0
 40
125.0
 40
126.0
 40
126.0
 40
126.0
 40
127.0
 40
127.0
 40
127.0
 40
128.0
 40
128.0
 40
128.0
 40
129.0
 40
129.0
 40
129.0
 40
130.0
 40
130.0
 40
130.0
 40
131.0
 40
131.0
 40
131.0
 40
132.0
 40
132.0
 40
132.0
 40
133.0
 40
133.0
 40
133.0
 40
134.0
 40
134.0
 40
134.0
 40
135.0
 40
135.0
 40
135.0
 40
136.0
 40
136.0
 40
136.0
 40
137.0
 40
137.0
 40
137.0
 40
138.0
 40
138.0
 40
138.0
 40
139.0
 40
139.0
 40
139.0
 40
140.0
 40
140.0
 40
140.0
 40
141.0
 40
141.0
 40
141.0
 40
142.0
 40
142.0
 40
142.0
 40
143.0
 40
143.0
 40
143.0
 40
144.0
 40
144.0
 40
144.0
 40
145.0
 40
145.0
 40
145.0
 40
146.0
 40
146.0
 40
146.0
 40
147.0
 40
147.0
 40
147.0
 40
148.0
 40
148.0
 40
148.0
 40
149.0
 40
149.0
 40
149.0
 40
150.0
 40
150.0
 40
150.0
 40
150.0
 10
104.2308023965495
 20
149.8844829241995
 30
0.0
 10
104.2549360105495
 20
149.8837601381986
 30
0.0
 10
104.279069625154
 20
149.8830373516047
 30
0.0
 10
104.3030571760088
 20
149.8805314915549
 30
0.0
 10
104.326622806787
 20
149.8780697073957
 30
0.0
 10
104.3500474668947
 20
149.8738870235474
 30
0.0
 10
104.3730539938254
 20
149.8681127012807
 30
0.0
 10
104.3957008619376
 20
149.8624286484369
 30
0.0
 10
104.4179425679576
 20
149.8552023320575
 30
0.0
 10
104.4396638697225
 20
149.8466620629693
 30
0.0
 10
104.4616918368929
 20
149.8380012207633
 30
0.0
 10
104.4831846017491
 20
149.8279890626863
 30
0.0
 10
104.5040157829874
 20
149.8167440683034
 30
0.0
 10
104.5256721702058
 20
149.8050536149463
 30
0.0
 10
104.5466135196854
 20
149.7920307155302
 30
0.0
 10
104.5666742250107
 20
149.7777942260045
 30
0.0
 10
104.5880802802502
 20
149.7626029814167
 30
0.0
 10
104.6084836116437
 20
149.7460299122451
 30
0.0
 10
104.6282036863628
 20
149.7286835550513
 30
0.0
 10
104.6492042920412
 20
149.7102108051978
 30
0.0
 10
104.6694300249277
 20
149.690861079135
 30
0.0
 10
104.6886041667146
 20
149.670541036959
 30
0.0
 10
104.7093719350023
 20
149.6485321287002
 30
0.0
 10
104.7289060455381
 20
149.6253849091771
 30
0.0
 10
104.7484401565366
 20
149.6022376901764
 30
0.0
 10
104.7583703495364
 20
149.5895481151756
 30
0.0
 10
104.7683005424386
 20
149.5768585409468
 30
0.0
 10
104.7777936604941
 20
149.5638523383045
 30
0.0
 10
104.7861609875474
 20
149.5523885441534
 30
0.0
 10
104.7941887584985
 20
149.5406787667103
 30
0.0
 10
104.8020667504292
 20
149.5288539289797
 30
0.0
 10
104.8087294284016
 20
149.5188532731585
 30
0.0
 10
104.8152849747804
 20
149.5087703188152
 30
0.0
 10
104.8212594265846
 20
149.498371443711
 30
0.0
 10
104.8263264611127
 20
149.489551980281
 30
0.0
 10
104.8309755128298
 20
149.4805052742395
 30
0.0
 10
104.8353716880657
 20
149.4712759014847
 30
0.0
 10
104.8426448163961
 20
149.4560066256177
 30
0.0
 10
104.8492257935728
 20
149.4402373705656
 30
0.0
 10
104.8528708925313
 20
149.4238587019914
 30
0.0
 10
104.8561078025642
 20
149.409314164998
 30
0.0
 10
104.8570295545281
 20
149.3942890601713
 30
0.0
 10
104.8579513075271
 20
149.3792639551712
 30
0.0
 10
104.8572781125268
 20
149.3665975891715
 30
0.0
 10
104.8566049171547
 20
149.3539312238548
 30
0.0
 10
104.8545643642982
 20
149.3414430935868
 30
0.0
 10
104.852680684549
 20
149.3299150226424
 30
0.0
 10
104.8496318047027
 20
149.3185388355305
 30
0.0
 10
104.8455325169594
 20
149.3075736657238
 30
0.0
 10
104.8415760452992
 20
149.2969905141375
 30
0.0
 10
104.8366410816181
 20
149.2867902396731
 30
0.0
 10
104.8308557642754
 20
149.2770911801118
 30
0.0
 10
104.8251214056792
 20
149.2674775526682
 30
0.0
 10
104.8185516077674
 20
149.2583563493237
 30
0.0
 10
104.8110985980475
 20
149.2499956374902
 30
0.0
 10
104.8038154219663
 20
149.2418254433368
 30
0.0
 10
104.7956888274085
 20
149.2343814765576
 30
0.0
 10
104.7868255081101
 20
149.2279805089606
 30
0.0
 10
104.7782089035671
 20
149.2217577153759
 30
0.0
 10
104.7688960176336
 20
149.2165206643359
 30
0.0
 10
104.7591654748793
 20
149.2121747759838
 30
0.0
 10
104.7491875570491
 20
149.2077184041275
 30
0.0
 10
104.7387704766723
 20
149.2041990821542
 30
0.0
 10
104.7281184990722
 20
149.2020139475333
 30
0.0
 10
104.7168168102744
 20
149.1996955318938
 30
0.0
 10
104.7052506955189
 20
149.1988790231782
 30
0.0
 10
104.6936845805187
 20
149.1980625141786
 30
0.0
 10
104.679770835519
 20
149.1988537131791
 30
0.0
 10
104.6658570910033
 20
149.1996449124373
 30
0.0
 10
104.6524767765104
 20
149.2031429287255
 30
0.0
 10
104.6402667927355
 20
149.2063349853954
 30
0.0
 10
104.6285010053133
 20
149.211781055142
 30
0.0
 10
104.618042857928
 20
149.2189486617588
 30
0.0
 10
104.6123968728864
 20
149.2228181998573
 30
0.0
 10
104.6071320046859
 20
149.2271894866584
 30
0.0
 10
104.6022371248373
 20
149.2319319424321
 30
0.0
 10
104.5965941594266
 20
149.2373991887638
 30
0.0
 10
104.5914429150166
 20
149.2433597251608
 30
0.0
 10
104.5864313912928
 20
149.2494311468768
 30
0.0
 10
104.5806966321995
 20
149.2563787625751
 30
0.0
 10
104.5751448311406
 20
149.263471577676
 30
0.0
 10
104.5700611678906
 20
149.2708817845103
 30
0.0
 10
104.56418784888
 20
149.2794430338562
 30
0.0
 10
104.5589393965226
 20
149.2884279351847
 30
0.0
 10
104.5536909445236
 20
149.2974128371851
 30
0.0
 10
104.5399927495243
 20
149.3201299701857
 30
0.0
 10
104.5262945542797
 20
149.3428471030948
 30
0.0
 10
104.5119186494728
 20
149.3651516929714
 30
0.0
 10
104.4992460809131
 20
149.3848135123976
 30
0.0
 10
104.4860468860642
 20
149.4041547579096
 30
0.0
 10
104.4718398262454
 20
149.4227297207895
 30
0.0
 10
104.4595887074162
 20
149.438747396536
 30
0.0
 10
104.4465881338003
 20
149.4541952596546
 30
0.0
 10
104.4328899838381
 20
149.4690179393303
 30
0.0
 10
104.4211389477196
 20
149.4817336596815
 30
0.0
 10
104.4088745537178
 20
149.4939892972754
 30
0.0
 10
104.395633612688
 20
149.5051453294113
 30
0.0
 10
104.3839639991573
 20
149.5149774541277
 30
0.0
 10
104.3715358632326
 20
149.5239554721393
 30
0.0
 10
104.3583772419693
 20
149.5316763815291
 30
0.0
 10
104.3458091261472
 20
149.5390508078872
 30
0.0
 10
104.3325746163247
 20
149.5452784218455
 30
0.0
 10
104.3188629095302
 20
149.550304566987
 30
0.0
 10
104.3054978622654
 20
149.5552036410684
 30
0.0
 10
104.2916794420108
 20
149.5589612294744
 30
0.0
 10
104.2776551048429
 20
149.5610298860766
 30
0.0
 10
104.2634946356496
 20
149.5631186228018
 30
0.0
 10
104.2491242325351
 20
149.5634854801989
 30
0.0
 10
104.2347538295349
 20
149.5638523381996
 30
0.0
 10
104.2167358965347
 20
149.5618941932002
 30
0.0
 10
104.1987179638271
 20
149.5599360488375
 30
0.0
 10
104.1811272352444
 20
149.5559494717097
 30
0.0
 10
104.163574701487
 20
149.5519715506544
 30
0.0
 10
104.1464475186873
 20
149.5459739959614
 30
0.0
 10
104.1297586018882
 20
149.5390147573025
 30
0.0
 10
104.1126221533208
 20
149.5318688989603
 30
0.0
 10
104.0959477910882
 20
149.5237090878627
 30
0.0
 10
104.0800834412934
 20
149.5141771770231
 30
0.0
 10
104.0634385210595
 20
149.5041762694749
 30
0.0
 10
104.0476852839961
 20
149.4926649181471
 30
0.0
 10
104.0326662407718
 20
149.4803077483952
 30
0.0
 10
104.0166051240669
 20
149.4670931952075
 30
0.0
 10
104.001383617504
 20
149.4529113801189
 30
0.0
 10
103.9869425131101
 20
149.4379709639101
 30
0.0
 10
103.9713624509674
 20
149.4218522096503
 30
0.0
 10
103.9566907446874
 20
149.4048504750468
 30
0.0
 10
103.942912256664
 20
149.3871668217157
 30
0.0
 10
103.9280509384125
 20
149.3680934372073
 30
0.0
 10
103.914228748368
 20
149.3482267404481
 30
0.0
 10
103.9011399624141
 20
149.3278953222501
 30
0.0
 10
103.8869329246755
 20
149.3058268716974
 30
0.0
 10
103.8735899623848
 20
149.2832108998113
 30
0.0
 10
103.8610611389936
 20
149.2601564654659
 30
0.0
 10
103.8480009536102
 20
149.2361242657078
 30
0.0
 10
103.8358254286823
 20
149.2116156234173
 30
0.0
 10
103.8243692584814
 20
149.1867727051384
 30
0.0
 10
103.8128188438324
 20
149.1617254160212
 30
0.0
 10
103.801999668171
 20
149.1363383284339
 30
0.0
 10
103.7921933014888
 20
149.1105664922038
 30
0.0
 10
103.7822259132416
 20
149.0843714797328
 30
0.0
 10
103.7733048679065
 20
149.0577789796568
 30
0.0
 10
103.7650977586183
 20
149.0309733354547
 30
0.0
 10
103.7568096623256
 20
149.0039031756055
 30
0.0
 10
103.7492496617113
 20
148.9766156443019
 30
0.0
 10
103.7425181400444
 20
148.9491222181186
 30
0.0
 10
103.7356541831892
 20
148.9210878894063
 30
0.0
 10
103.729651624754
 20
148.8928394846162
 30
0.0
 10
103.7244544451108
 20
148.864448646582
 30
0.0
 10
103.7191396256581
 20
148.8354151729233
 30
0.0
 10
103.7146670576486
 20
148.806232745
 30
0.0
 10
103.7109066742133
 20
148.7769526248553
 30
0.0
 10
103.7070277106952
 20
148.7467491842256
 30
0.0
 10
103.703906556059
 20
148.7164417929683
 30
0.0
 10
103.7018748265902
 20
148.6860696590849
 30
0.0
 10
103.6998009621903
 20
148.6550676540515
 30
0.0
 10
103.6988621774933
 20
148.6239981932237
 30
0.0
 10
103.6979233934922
 20
148.5929287312234
 30
0.0
 10
103.6990044934902
 20
148.5499694282231
 30
0.0
 10
103.7000855944068
 20
148.5070101239272
 30
0.0
 10
103.7035682980407
 20
148.4642249043878
 30
0.0
 10
103.7070000099986
 20
148.4220661205946
 30
0.0
 10
103.7127635138291
 20
148.380076361186
 30
0.0
 10
103.7199385214115
 20
148.3383435302565
 30
0.0
 10
103.7270160316419
 20
148.2971777845088
 30
0.0
 10
103.735466945909
 20
148.2562620321529
 30
0.0
 10
103.7459050832413
 20
148.2158490990491
 30
0.0
 10
103.7562944214439
 20
148.1756250996483
 30
0.0
 10
103.7686524452911
 20
148.1358992290488
 30
0.0
 10
103.7825969639238
 20
148.0967416091467
 30
0.0
 10
103.7962253735576
 20
148.0584716553132
 30
0.0
 10
103.8113691645948
 20
148.0207444807858
 30
0.0
 10
103.8283206911366
 20
147.9838435157448
 30
0.0
 10
103.8445187753199
 20
147.9485826832344
 30
0.0
 10
103.8623674698522
 20
147.9140762475501
 30
0.0
 10
103.8819472856645
 20
147.88054176013
 30
0.0
 10
103.9007259334306
 20
147.8483794388239
 30
0.0
 10
103.9210969326287
 20
147.8171111526303
 30
0.0
 10
103.943476746758
 20
147.7874008323942
 30
0.0
 10
103.9653424663239
 20
147.7583729983509
 30
0.0
 10
103.9891257704527
 20
147.730832375211
 30
0.0
 10
104.0129090754515
 20
147.7032917522097
 30
0.0
 10
104.028589363451
 20
147.6892447112087
 30
0.0
 10
104.0442696512021
 20
147.6751976694338
 30
0.0
 10
104.061455255139
 20
147.663212929375
 30
0.0
 10
104.078144530293
 20
147.6515743145653
 30
0.0
 10
104.0962534286329
 20
147.6418806010051
 30
0.0
 10
104.1150818498068
 20
147.6338594250158
 30
0.0
 10
104.1336671049351
 20
147.625941841231
 30
0.0
 10
104.1529534178637
 20
147.6196538728734
 30
0.0
 10
104.1726598777243
 20
147.6157957299698
 30
0.0
 10
104.1930577636245
 20
147.6118022192487
 30
0.0
 10
104.2139057964475
 20
147.6104120322004
 30
0.0
 10
104.2347538294476
 20
147.6090218441999
 30
0.0
 10
104.258088188448
 20
147.6105563261981
 30
0.0
 10
104.2814225473739
 20
147.6120908089996
 30
0.0
 10
104.3041861569238
 20
147.6169247110331
 30
0.0
 10
104.3248310343494
 20
147.6213086956865
 30
0.0
 10
104.3450064634343
 20
147.6284064929959
 30
0.0
 10
104.3640221460605
 20
147.6378108582681
 30
0.0
 10
104.3824836465978
 20
147.6469411481413
 30
0.0
 10
104.3998520136223
 20
147.6582455224634
 30
0.0
 10
104.4153907789631
 20
147.6716802866134
 30
0.0
 10
104.4312428885906
 20
147.6853859671769
 30
0.0
 10
104.4451908635119
 20
147.7013088238893
 30
0.0
 10
104.4571630735262
 20
147.7185329951692
 30
0.0
 10
104.4702669195186
 20
147.7373852277557
 30
0.0
 10
104.4810038422665
 20
147.7577964068006
 30
0.0
 10
104.489903520914
 20
147.7789334755729
 30
0.0
 10
104.4998932837109
 20
147.8026595348642
 30
0.0
 10
104.5075681660782
 20
147.8273001965911
 30
0.0
 10
104.5136121210722
 20
147.8523172363374
 30
0.0
 10
104.520477937405
 20
147.8807361111087
 30
0.0
 10
104.5252391199357
 20
147.9096406837221
 30
0.0
 10
104.5282888729367
 20
147.938684277623
 30
0.0
 10
104.5317729476639
 20
147.9718640306878
 30
0.0
 10
104.5330234264653
 20
148.0052252211861
 30
0.0
 10
104.5342739054668
 20
148.0385864121863
 30
0.0
 10
104.5342739054668
 20
148.0385864121863
 30
0.0
 10
104.5342739054848
 20
148.4444671871862
 30
0.0
 10
104.5342739054848
 20
148.4444671871862
 30
0.0
 10
104.5342739054848
 20
148.4444671871862
 30
0.0
 10
104.3397490564847
 20
148.4439032481946
 30
0.0
 10
104.3397490564847
 20
148.4439032481946
 30
0.0
 10
104.325642407485
 20
148.4442183011952
 30
0.0
 10
104.3115357592104
 20
148.4445333554914
 30
0.0
 10
104.297412271367
 20
148.4450322289136
 30
0.0
 10
104.2870313824089
 20
148.4453989053079
 30
0.0
 10
104.2766413960739
 20
148.445864887789
 30
0.0
 10
104.2663652954732
 20
148.4472901905902
 30
0.0
 10
104.258178785557
 20
148.4484256656089
 30
0.0
 10
104.2500645543221
 20
148.4501699825291
 30
0.0
 10
104.2420922052281
 20
148.4523706049552
 30
0.0
 10
104.2342868348487
 20
148.4545251359348
 30
0.0
 10
104.2266174654853
 20
148.4571170581998
 30
0.0
 10
104.2189480964858
 20
148.4597089812
 30
0.0
 10
104.2072758574865
 20
148.4671595552004
 30
0.0
 10
104.1956036192347
 20
148.474610129905
 30
0.0
 10
104.1856431585805
 20
148.4839820713937
 30
0.0
 10
104.175819116845
 20
148.4932256543485
 30
0.0
 10
104.1676602846359
 20
148.504338334248
 30
0.0
 10
104.1608055780944
 20
148.5161580280199
 30
0.0
 10
104.1537682212972
 20
148.5282926689118
 30
0.0
 10
104.1481054154731
 20
148.541172503792
 30
0.0
 10
104.1444353541955
 20
148.5545433795848
 30
0.0
 10
104.1403135973185
 20
148.5695598861456
 30
0.0
 10
104.138705287491
 20
148.5851957422038
 30
0.0
 10
104.137096978492
 20
148.6008315982035
 30
0.0
 10
104.1386155304924
 20
148.6160560852038
 30
0.0
 10
104.1401340825673
 20
148.6312805716569
 30
0.0
 10
104.1438708637216
 20
148.6459908357632
 30
0.0
 10
104.1475593670029
 20
148.6605110485314
 30
0.0
 10
104.153409152175
 20
148.6745302402564
 30
0.0
 10
104.1608055779853
 20
148.687763130531
 30
0.0
 10
104.1678824704475
 20
148.7004243460736
 30
0.0
 10
104.1763752570959
 20
148.712365730761
 30
0.0
 10
104.1867721394711
 20
148.7221970492397
 30
0.0
 10
104.1964072596961
 20
148.7313080434878
 30
0.0
 10
104.2076776774984
 20
148.7386068462006
 30
0.0
 10
104.2189480964987
 20
148.7459056492002
 30
0.0
 10
104.2258108944987
 20
148.7492088271997
 30
0.0
 10
104.2326736923325
 20
148.7525120059041
 30
0.0
 10
104.2398342439121
 20
148.7549374962849
 30
0.0
 10
104.2492754835719
 20
148.758135523102
 30
0.0
 10
104.2592343566699
 20
148.7598077225175
 30
0.0
 10
104.2691877480877
 20
148.7611468911959
 30
0.0
 10
104.2814118686657
 20
148.7627915727643
 30
0.0
 10
104.2936277211242
 20
148.7639339378811
 30
0.0
 10
104.3058796286131
 20
148.7645338341409
 30
0.0
 10
104.321057156564
 20
148.7652769790147
 30
0.0
 10
104.3362900145003
 20
148.7651876521945
 30
0.0
 10
104.3515228724994
 20
148.7650983241942
 30
0.0
 10
104.3515228724994
 20
148.7650983241942
 30
0.0
 10
104.6507833044997
 20
148.7650983241807
 30
0.0
 10
104.6507833044997
 20
148.7650983241807
 30
0.0
 10
104.6694525474994
 20
148.76490752718
 30
0.0
 10
104.6881217905165
 20
148.764716729834
 30
0.0
 10
104.7066678613325
 20
148.7628403627982
 30
0.0
 10
104.722087331177
 20
148.7612803242753
 30
0.0
 10
104.7374216582549
 20
148.7585551359398
 30
0.0
 10
104.7523915893859
 20
148.754373005873
 30
0.0
 10
104.765113584621
 20
148.7508188787152
 30
0.0
 10
104.7775724050017
 20
148.7462125158502
 30
0.0
 10
104.7890834698702
 20
148.7396962533597
 30
0.0
 10
104.7989188991442
 20
148.7341285461502
 30
0.0
 10
104.8080624146771
 20
148.7271665069862
 30
0.0
 10
104.8156145220474
 20
148.7188101058186
 30
0.0
 10
104.8232839181811
 20
148.7103239247226
 30
0.0
 10
104.8293120912566
 20
148.7003997347445
 30
0.0
 10
104.834242707417
 20
148.690021091856
 30
0.0
 10
104.8399925153604
 20
148.6779181007957
 30
0.0
 10
104.8442497648892
 20
148.6651971030449
 30
0.0
 10
104.847225988218
 20
148.6522002307297
 30
0.0
 10
104.850827009189
 20
148.6364749290298
 30
0.0
 10
104.8525526976589
 20
148.6203457663185
 30
0.0
 10
104.8534353833799
 20
148.6042185409322
 30
0.0
 10
104.8544698245228
 20
148.5853186481837
 30
0.0
 10
104.8543464794904
 20
148.5664214161716
 30
0.0
 10
104.8542231344895
 20
148.5475241831716
 30
0.0
 10
104.8542231344895
 20
148.5475241831716
 30
0.0
 10
104.8539998734624
 20
147.9358618261707
 30
0.0
 10
104.8539998734624
 20
147.9358618261707
 30
0.0
 10
104.8537267554609
 20
147.9183613801708
 30
0.0
 10
104.8534536373286
 20
147.9008609337834
 30
0.0
 10
104.8528708929824
 20
147.8833642122806
 30
0.0
 10
104.8523312258896
 20
147.8671608722048
 30
0.0
 10
104.8515260166518
 20
147.8509607266699
 30
0.0
 10
104.8500484405158
 20
147.8348180319803
 30
0.0
 10
104.8486996224016
 20
147.8200820339833
 30
0.0
 10
104.8467905136506
 20
147.8053939103988
 30
0.0
 10
104.8444035357633
 20
147.7907877756828
 30
0.0
 10
104.8422366881625
 20
147.7775286382007
 30
0.0
 10
104.8396760467168
 20
147.764337064638
 30
0.0
 10
104.8365006689224
 20
147.7512734424769
 30
0.0
 10
104.8303393610373
 20
147.7259255930446
 30
0.0
 10
104.8218636239089
 20
147.701059469585
 30
0.0
 10
104.8110985983083
 20
147.6773251912661
 30
0.0
 10
104.7997973428258
 20
147.6524086557235
 30
0.0
 10
104.7859730494484
 20
147.6287395331738
 30
0.0
 10
104.7721487554473
 20
147.6050704111748
 30
0.0
 10
104.7556086724464
 20
147.5809096541762
 30
0.0
 10
104.7390685892441
 20
147.5567488974766
 30
0.0
 10
104.720780123293
 20
147.533944612266
 30
0.0
 10
104.7032082546603
 20
147.5120338678068
 30
0.0
 10
104.6840223328011
 20
147.4913753761413
 30
0.0
 10
104.6637665858435
 20
147.4718506605555
 30
0.0
 10
104.6437580395025
 20
147.4525642240966
 30
0.0
 10
104.6227056209614
 20
147.4343840594289
 30
0.0
 10
104.6005436531699
 20
147.4176595751918
 30
0.0
 10
104.578417360487
 20
147.4009620131044
 30
0.0
 10
104.5551850878589
 20
147.385715448672
 30
0.0
 10
104.5311113250975
 20
147.3719358470832
 30
0.0
 10
104.5074258292799
 20
147.3583784859403
 30
0.0
 10
104.482925767916
 20
147.3462411502272
 30
0.0
 10
104.4577275648407
 20
147.335808457085
 30
0.0
 10
104.432925522687
 20
147.3255397845788
 30
0.0
 10
104.4074471183363
 20
147.3169225759146
 30
0.0
 10
104.3815213512615
 20
147.3098418957565
 30
0.0
 10
104.3559245959044
 20
147.3028510731807
 30
0.0
 10
104.3298917603155
 20
147.2973580278467
 30
0.0
 10
104.3036216665148
 20
147.2940361627228
 30
0.0
 10
104.276878211258
 20
147.2906544408315
 30
0.0
 10
104.2498888704326
 20
147.2895228491992
 30
0.0
 10
104.222899529433
 20
147.2883912581997
 30
0.0
 10
104.1947892694331
 20
147.2892904642013
 30
0.0
 10
104.1666790089419
 20
147.290189670063
 30
0.0
 10
104.1387904497185
 20
147.2934716725165
 30
0.0
 10
104.111346631986
 20
147.296701336568
 30
0.0
 10
104.0841175009198
 20
147.3022384058135
 30
0.0
 10
104.0575038219688
 20
147.3098418958438
 30
0.0
 10
104.0308482396303
 20
147.3174573576115
 30
0.0
 10
104.0048100489981
 20
147.3271457524672
 30
0.0
 10
103.9796041375654
 20
147.338630909482
 30
0.0
 10
103.9536930776454
 20
147.3504373697388
 30
0.0
 10
103.9286615151781
 20
147.3641425290656
 30
0.0
 10
103.9045269046503
 20
147.3792742232982
 30
0.0
 10
103.8793718974326
 20
147.3950456763828
 30
0.0
 10
103.8551912906652
 20
147.4123668404302
 30
0.0
 10
103.832272124799
 20
147.4312073466739
 30
0.0
 10
103.8079948756036
 20
147.4511642538191
 30
0.0
 10
103.7851329907345
 20
147.4728258961952
 30
0.0
 10
103.7634042873956
 20
147.4955592602196
 30
0.0
 10
103.7402417110664
 20
147.5197927945997
 30
0.0
 10
103.7183668077477
 20
147.5452441630224
 30
0.0
 10
103.6979233935291
 20
147.5717654732809
 30
0.0
 10
103.675933027979
 20
147.6002936487227
 30
0.0
 10
103.6555989894482
 20
147.6300598172249
 30
0.0
 10
103.6352649514493
 20
147.6598259862263
 30
0.0
 10
103.6153667124513
 20
147.6926539922269
 30
0.0
 10
103.5954684739692
 20
147.7254819979093
 30
0.0
 10
103.5771224334622
 20
147.759176308531
 30
0.0
 10
103.5584935770457
 20
147.7933900384335
 30
0.0
 10
103.5414651437131
 20
147.8284969884303
 30
0.0
 10
103.5257538005141
 20
147.8641715366886
 30
0.0
 10
103.5096773403402
 20
147.9006751282043
 30
0.0
 10
103.494979897493
 20
147.9377730054246
 30
0.0
 10
103.4817235440074
 20
147.9753761588966
 30
0.0
 10
103.4680892932959
 20
148.014051260805
 30
0.0
 10
103.4559794649477
 20
148.0532608572704
 30
0.0
 10
103.4450316632928
 20
148.0927901761883
 30
0.0
 10
103.4339679406475
 20
148.1327380519919
 30
0.0
 10
103.4240909832587
 20
148.173012456868
 30
0.0
 10
103.4156781587276
 20
148.2135911368943
 30
0.0
 10
103.4073066324298
 20
148.253970617738
 30
0.0
 10
103.4003848995284
 20
148.2946513937146
 30
0.0
 10
103.3947920114823
 20
148.3355210776449
 30
0.0
 10
103.3892255051208
 20
148.3761979790409
 30
0.0
 10
103.3849753368445
 20
148.4170620104336
 30
0.0
 10
103.3823732210083
 20
148.4580155095056
 30
0.0
 10
103.3797587728042
 20
148.4991631020079
 30
0.0
 10
103.3788080354895
 20
148.5404010122375
 30
0.0
 10
103.3778572974913
 20
148.5816389222377
 30
0.0
 10
103.3796375854938
 20
148.6377866612377
 30
0.0
 10
103.3814178736779
 20
148.6939343995645
 30
0.0
 10
103.3863246545404
 20
148.7498570815548
 30
0.0
 10
103.3911573815678
 20
148.804935770474
 30
0.0
 10
103.3990229424598
 20
148.859796144959
 30
0.0
 10
103.4094687637575
 20
148.9141238092517
 30
0.0
 10
103.4198489426349
 20
148.9681100739319
 30
0.0
 10
103.4327770546649
 20
149.0215703025733
 30
0.0
 10
103.447854115358
 20
149.0744391015261
 30
0.0
 10
103.4629887895863
 20
149.1275099264857
 30
0.0
 10
103.4802888672881
 20
149.1799847930948
 30
0.0
 10
103.5003517290094
 20
149.2313674518308
 30
0.0
 10
103.5102913945862
 20
149.256823762669
 30
0.0
 10
103.5209091773022
 20
149.2820119943262
 30
0.0
 10
103.5319631954623
 20
149.3070091746419
 30
0.0
 10
103.5427229534536
 20
149.3313409250302
 30
0.0
 10
103.5538960306715
 20
149.3554916603412
 30
0.0
 10
103.5658326238326
 20
149.3792639551311
 30
0.0
 10
103.5775449110566
 20
149.4025895339471
 30
0.0
 10
103.5899922886864
 20
149.4255507615035
 30
0.0
 10
103.603088994493
 20
149.4481317921611
 30
0.0
 10
103.6158498933727
 20
149.4701338324504
 30
0.0
 10
103.6292272490405
 20
149.4917749228115
 30
0.0
 10
103.6431678182646
 20
149.5130481962182
 30
0.0
 10
103.6567304419165
 20
149.5337447256379
 30
0.0
 10
103.6708261543047
 20
149.5540931116705
 30
0.0
 10
103.6855046028241
 20
149.574013166216
 30
0.0
 10
103.6999757034527
 20
149.5936518298964
 30
0.0
 10
103.7150131930225
 20
149.6128741778473
 30
0.0
 10
103.7306638405955
 20
149.6315911945003
 30
0.0
 10
103.7462248201177
 20
149.6502009747973
 30
0.0
 10
103.7623919517746
 20
149.6683111976493
 30
0.0
 10
103.7792100211101
 20
149.6857822794029
 30
0.0
 10
103.7957262155904
 20
149.7029397650976
 30
0.0
 10
103.8128701895421
 20
149.7194808482188
 30
0.0
 10
103.8300141635433
 20
149.7360219312175
 30
0.0
 10
103.8437312475434
 20
149.7472148912167
 30
0.0
 10
103.857448332141
 20
149.7584078517042
 30
0.0
 10
103.8717864577258
 20
149.7687623783295
 30
0.0
 10
103.8864652037349
 20
149.7793628899148
 30
0.0
 10
103.9017948484593
 20
149.7890846583324
 30
0.0
 10
103.917510185527
 20
149.7981158827929
 30
0.0
 10
103.9331370711431
 20
149.8070962763422
 30
0.0
 10
103.9491453196963
 20
149.8153938773084
 30
0.0
 10
103.9654918754217
 20
149.8229534634791
 30
0.0
 10
103.9824918321852
 20
149.8308152198162
 30
0.0
 10
103.9998576821343
 20
149.8378787826585
 30
0.0
 10
104.0174249992541
 20
149.844404101291
 30
0.0
 10
104.0348936351346
 20
149.8508927651208
 30
0.0
 10
104.0525614811327
 20
149.8568492147367
 30
0.0
 10
104.0704871030604
 20
149.8619033055519
 30
0.0
 10
104.0881472822591
 20
149.8668825553568
 30
0.0
 10
104.1060576596168
 20
149.8709859727649
 30
0.0
 10
104.1241136974992
 20
149.8743220962332
 30
0.0
 10
104.1416847142251
 20
149.8775686047778
 30
0.0
 10
104.1593936711161
 20
149.8800884878168
 30
0.0
 10
104.1771758014582
 20
149.8816604724477
 30
0.0
 10
104.195002306947
 20
149.8832363799518
 30
0.0
 10
104.21290235155
 20
149.8838596522006
 30
0.0
 10
104.2308023965495
 20
149.8844829241995
 30
0.0
  0
ENDBLK
  5
54
330
51
100
AcDbEntity
  8
0
100
AcDbBlockEnd
  0
BLOCK
  5
58
330
56
100
AcDbEntity
  8
0
100
AcDbBlockBegin
  2
block 5
 70
     0
 10
0.0
 20
0.0
 30
0.0
  3
block 5
  1

  0
SPLINE
  5
5A
330
56
100
AcDbEntity
  8
0
 62
     7
420
 16777215
370
     5
100
AcDbSpline
210
0.0
220
0.0
230
1.0
 70
    11
 71
     3
 72
   200
 73
   196
 74
     0
 42
0.0000000001
 43
0.0000000001
 12
1.0
 22
0.0
 32
0.0
 13
1.0
 23
0.0
 33
0.0
 40
0.0
 40
0.0
 40
0.0
 40
0.0
 40
1.0
 40
1.0
 40
1.0
 40
2.0
 40
2.0
 40
2.0
 40
3.0
 40
3.0
 40
3.0
 40
4.0
 40
4.0
 40
4.0
 40
5.0
 40
5.0
 40
5.0
 40
6.0
 40
6.0
 40
6.0
 40
7.0
 40
7.0
 40
7.0
 40
8.0
 40
8.0
 40
8.0
 40
9.0
 40
9.0
 40
9.0
 40
10.0
 40
10.0
 40
10.0
 40
11.0
 40
11.0
 40
11.0
 40
12.0
 40
12.0
 40
12.0
 40
13.0
 40
13.0
 40
13.0
 40
14.0
 40
14.0
 40
14.0
 40
15.0
 40
15.0
 40
15.0
 40
16.0
 40
16.0
 40
16.0
 40
17.0
 40
17.0
 40
17.0
 40
18.0
 40
18.0
 40
18.0
 40
19.0
 40
19.0
 40
19.0
 40
20.0
 40
20.0
 40
20.0
 40
21.0
 40
21.0
 40
21.0
 40
22.0
 40
22.0
 40
22.0
 40
23.0
 40
23.0
 40
23.0
 40
24.0
 40
24.0
 40
24.0
 40
25.0
 40
25.0
 40
25.0
 40
26.0
 40
26.0
 40
26.0
 40
27.0
 40
27.0
 40
27.0
 40
28.0
 40
28.0
 40
28.0
 40
29.0
 40
29.0
 40
29.0
 40
30.0
 40
30.0
 40
30.0
 40
31.0
 40
31.0
 40
31.0
 40
32.0
 40
32.0
 40
32.0
 40
33.0
 40
33.0
 40
33.0
 40
34.0
 40
34.0
 40
34.0
 40
35.0
 40
35.0
 40
35.0
 40
36.0
 40
36.0
 40
36.0
 40
37.0
 40
37.0
 40
37.0
 40
38.0
 40
38.0
 40
38.0
 40
39.0
 40
39.0
 40
39.0
 40
40.0
 40
40.0
 40
40.0
 40
41.0
 40
41.0
 40
41.0
 40
42.0
 40
42.0
 40
42.0
 40
43.0
 40
43.0
 40
43.0
 40
44.0
 40
44.0
 40
44.0
 40
45.0
 40
45.0
 40
45.0
 40
46.0
 40
46.0
 40
46.0
 40
47.0
 40
47.0
 40
47.0
 40
48.0
 40
48.0
 40
48.0
 40
49.0
 40
49.0
 40
49.0
 40
50.0
 40
50.0
 40
50.0
 40
51.0
 40
51.0
 40
51.0
 40
52.0
 40
52.0
 40
52.0
 40
53.0
 40
53.0
 40
53.0
 40
54.0
 40
54.0
 40
54.0
 40
55.0
 40
55.0
 40
55.0
 40
56.0
 40
56.0
 40
56.0
 40
57.0
 40
57.0
 40
57.0
 40
58.0
 40
58.0
 40
58.0
 40
59.0
 40
59.0
 40
59.0
 40
60.0
 40
60.0
 40
60.0
 40
61.0
 40
61.0
 40
61.0
 40
62.0
 40
62.0
 40
62.0
 40
63.0
 40
63.0
 40
63.0
 40
64.0
 40
64.0
 40
64.0
 40
65.0
 40
65.0
 40
65.0
 40
65.0
 10
106.0168838665368
 20
149.6005431161191
 30
0.0
 10
106.0295511505367
 20
149.5994685761186
 30
0.0
 10
106.0422184342929
 20
149.5983940353093
 30
0.0
 10
106.0546711014273
 20
149.5960282947869
 30
0.0
 10
106.0677635457516
 20
149.5935410102767
 30
0.0
 10
106.0806187543647
 20
149.5896264426339
 30
0.0
 10
106.0930564532921
 20
149.5847384855254
 30
0.0
 10
106.1063196232983
 20
149.5795261221702
 30
0.0
 10
106.1191080256234
 20
149.5732068770446
 30
0.0
 10
106.1314418048521
 20
149.5661102998875
 30
0.0
 10
106.1447476425902
 20
149.558454422285
 30
0.0
 10
106.1575243732138
 20
149.5498938570172
 30
0.0
 10
106.1698271567317
 20
149.5407082292504
 30
0.0
 10
106.1827894791556
 20
149.5310301699224
 30
0.0
 10
106.1952256768083
 20
149.5206582338711
 30
0.0
 10
106.2070835280768
 20
149.5096612534378
 30
0.0
 10
106.2191870445205
 20
149.4984364429314
 30
0.0
 10
106.2306880025502
 20
149.4865604210363
 30
0.0
 10
106.241517446156
 20
149.4740983536218
 30
0.0
 10
106.2527817573526
 20
149.4611358589068
 30
0.0
 10
106.2633195405813
 20
149.4475393071335
 30
0.0
 10
106.2731289123728
 20
149.433455039918
 30
0.0
 10
106.2832413250714
 20
149.4189356674582
 30
0.0
 10
106.2925796255281
 20
149.4038979801075
 30
0.0
 10
106.3019179265277
 20
149.3888602931065
 30
0.0
 10
106.3136409125264
 20
149.3655341561061
 30
0.0
 10
106.3253638985572
 20
149.342208019544
 30
0.0
 10
106.3357873545829
 20
149.3182989840697
 30
0.0
 10
106.3468736953097
 20
149.2928694419819
 30
0.0
 10
106.3564899617598
 20
149.2667805040398
 30
0.0
 10
106.3651408589677
 20
149.2403992997353
 30
0.0
 10
106.3744234379735
 20
149.2120917603743
 30
0.0
 10
106.3825945195492
 20
149.1834477142174
 30
0.0
 10
106.3899784397387
 20
149.1545967482318
 30
0.0
 10
106.3979145284964
 20
149.1235883108505
 30
0.0
 10
106.4049413263926
 20
149.0923408496642
 30
0.0
 10
106.4108645871642
 20
149.0608913300902
 30
0.0
 10
106.4171745460955
 20
149.0273886388235
 30
0.0
 10
106.4222321764003
 20
148.9936566453455
 30
0.0
 10
106.4266703201934
 20
148.9598475369606
 30
0.0
 10
106.4314259941819
 20
148.923619531567
 30
0.0
 10
106.4354703674192
 20
148.8873029820487
 30
0.0
 10
106.4385246198952
 20
148.8509008757804
 30
0.0
 10
106.4417709650428
 20
148.8122093131184
 30
0.0
 10
106.4438987285633
 20
148.7734210933494
 30
0.0
 10
106.4452985055772
 20
148.7346158389716
 30
0.0
 10
106.4467912685159
 20
148.6932327865193
 30
0.0
 10
106.447456113494
 20
148.6518303611001
 30
0.0
 10
106.4481209584926
 20
148.6104279360999
 30
0.0
 10
106.4477844384905
 20
148.5660077171
 30
0.0
 10
106.4474479190909
 20
148.5215874984985
 30
0.0
 10
106.4458629962051
 20
148.4772081853761
 30
0.0
 10
106.4443831610469
 20
148.4357714262342
 30
0.0
 10
106.4418149839053
 20
148.3943703279603
 30
0.0
 10
106.4385246199067
 20
148.3530202820976
 30
0.0
 10
106.4354627727314
 20
148.3145420100439
 30
0.0
 10
106.4317755675553
 20
148.2761079454331
 30
0.0
 10
106.4266703201549
 20
148.2378642265645
 30
0.0
 10
106.4219270171414
 20
148.2023318551195
 30
0.0
 10
106.4159596129509
 20
148.1669637964456
 30
0.0
 10
106.4091711157388
 20
148.1317400183871
 30
0.0
 10
106.4028528083806
 20
148.0989559353894
 30
0.0
 10
106.3958232112405
 20
148.0662968386292
 30
0.0
 10
106.3871559872557
 20
148.034083167185
 30
0.0
 10
106.3791645290664
 20
148.0043811300733
 30
0.0
 10
106.369780853751
 20
147.975057768211
 30
0.0
 10
106.3594959541365
 20
147.9460226539907
 30
0.0
 10
106.3499299285848
 20
147.9190169801479
 30
0.0
 10
106.3395842599115
 20
147.8922606674139
 30
0.0
 10
106.3273199973329
 20
147.8664294977306
 30
0.0
 10
106.3159923641986
 20
147.8425710707135
 30
0.0
 10
106.3030279954574
 20
147.8195018751061
 30
0.0
 10
106.2900636264563
 20
147.7964326801071
 30
0.0
 10
106.2815954824551
 20
147.7829795371076
 30
0.0
 10
106.2731273375311
 20
147.7695263939989
 30
0.0
 10
106.2635325745499
 20
147.7569183472349
 30
0.0
 10
106.2541762917886
 20
147.7446236766083
 30
0.0
 10
106.2437486997097
 20
147.7331326142528
 30
0.0
 10
106.2330500890954
 20
147.7219199383333
 30
0.0
 10
106.222375244344
 20
147.7107321702174
 30
0.0
 10
106.2114305837994
 20
147.6998215530986
 30
0.0
 10
106.1997451515782
 20
147.6897439810433
 30
0.0
 10
106.1881503594791
 20
147.6797445774602
 30
0.0
 10
106.1758262429873
 20
147.670565345739
 30
0.0
 10
106.1630532710285
 20
147.6620839480178
 30
0.0
 10
106.1506738301132
 20
147.6538638593551
 30
0.0
 10
106.1378727658378
 20
147.6462992670326
 30
0.0
 10
106.1246679193286
 20
147.6395043296288
 30
0.0
 10
106.1126015968778
 20
147.6332952528561
 30
0.0
 10
106.1001981188521
 20
147.6277288330062
 30
0.0
 10
106.0874115481837
 20
147.6231341059705
 30
0.0
 10
106.0751064338321
 20
147.618712385476
 30
0.0
 10
106.0624465330897
 20
147.6151905605915
 30
0.0
 10
106.0495906867889
 20
147.612973277184
 30
0.0
 10
106.0374760610866
 20
147.6108838341436
 30
0.0
 10
106.0251874334476
 20
147.6099528391185
 30
0.0
 10
106.0128988064471
 20
147.6090218441191
 30
0.0
 10
106.0013534494476
 20
147.6097463931204
 30
0.0
 10
105.9898080930276
 20
147.6104709428995
 30
0.0
 10
105.9784648877749
 20
147.6124087871227
 30
0.0
 10
105.9671989356076
 20
147.6143334336258
 30
0.0
 10
105.9561323904774
 20
147.6174549045241
 30
0.0
 10
105.9451599501699
 20
147.6208761440454
 30
0.0
 10
105.9338105707733
 20
147.624414914297
 30
0.0
 10
105.9225618728742
 20
147.6282744030013
 30
0.0
 10
105.9118550124499
 20
147.6332949343295
 30
0.0
 10
105.9008880284612
 20
147.6384374396508
 30
0.0
 10
105.8904895296891
 20
147.6447980880454
 30
0.0
 10
105.8802435463768
 20
147.6513586291175
 30
0.0
 10
105.8694027772154
 20
147.6583000137709
 30
0.0
 10
105.8587327447108
 20
147.6654651725077
 30
0.0
 10
105.8486320803205
 20
147.6733737575762
 30
0.0
 10
105.8379382798808
 20
147.6817467543633
 30
0.0
 10
105.8278826803385
 20
147.6909530527318
 30
0.0
 10
105.8181495949539
 20
147.7004693003504
 30
0.0
 10
105.8077625691041
 20
147.7106249196739
 30
0.0
 10
105.7977428510479
 20
147.7211335367534
 30
0.0
 10
105.7882315996498
 20
147.7320807665178
 30
0.0
 10
105.7780593693114
 20
147.743788767712
 30
0.0
 10
105.7684687324537
 20
147.7559984621301
 30
0.0
 10
105.7588780954549
 20
147.768208156131
 30
0.0
 10
105.7443549134554
 20
147.7900698321312
 30
0.0
 10
105.729831731302
 20
147.8119315076989
 30
0.0
 10
105.717105800623
 20
147.834818031372
 30
0.0
 10
105.7030030071545
 20
147.8601807278027
 30
0.0
 10
105.6911074052808
 20
147.8868020328148
 30
0.0
 10
105.6804139200874
 20
147.9138466972268
 30
0.0
 10
105.6686926259141
 20
147.9434907713199
 30
0.0
 10
105.6584156377211
 20
147.9736434986291
 30
0.0
 10
105.6493669444837
 20
148.0041651726606
 30
0.0
 10
105.6393270056372
 20
148.0380303654252
 30
0.0
 10
105.630799210519
 20
148.0723497654408
 30
0.0
 10
105.6234003831513
 20
148.1069024381218
 30
0.0
 10
105.6153134101917
 20
148.1446687645633
 30
0.0
 10
105.608575175654
 20
148.1827137737276
 30
0.0
 10
105.603078725975
 20
148.220929512662
 30
0.0
 10
105.5971740403275
 20
148.2619836363967
 30
0.0
 10
105.5927024510996
 20
148.3032347928305
 30
0.0
 10
105.5889664640517
 20
148.3445529254762
 30
0.0
 10
105.5849403546446
 20
148.3890796651108
 30
0.0
 10
105.5817685315119
 20
148.4336841870844
 30
0.0
 10
105.579934616933
 20
148.4783371665706
 30
0.0
 10
105.5779655205734
 20
148.5262816130449
 30
0.0
 10
105.5775388424902
 20
148.5742819241391
 30
0.0
 10
105.5771121644931
 20
148.6222822361392
 30
0.0
 10
105.5776580974953
 20
148.6653856181391
 30
0.0
 10
105.5782040301363
 20
148.708488999789
 30
0.0
 10
105.5799346166218
 20
148.751550553826
 30
0.0
 10
105.581569995544
 20
148.7922430926941
 30
0.0
 10
105.5842632672257
 20
148.8328982796147
 30
0.0
 10
105.5878374830687
 20
148.8734804945215
 30
0.0
 10
105.5912109971397
 20
148.9117839096067
 30
0.0
 10
105.5953692983598
 20
148.9500223177362
 30
0.0
 10
105.6008207640987
 20
148.9880720593722
 30
0.0
 10
105.605966585659
 20
149.0239884881353
 30
0.0
 10
105.6122646305127
 20
149.0597368130526
 30
0.0
 10
105.6194489495101
 20
149.0953252492552
 30
0.0
 10
105.6261087521035
 20
149.1283154268616
 30
0.0
 10
105.633530141793
 20
149.1611682099817
 30
0.0
 10
105.6425930592104
 20
149.1935465907027
 30
0.0
 10
105.6508498773221
 20
149.2230450830814
 30
0.0
 10
105.6604691988924
 20
149.2521498112263
 30
0.0
 10
105.6708175827027
 20
149.2810426134029
 30
0.0
 10
105.6802216658969
 20
149.3072989178039
 30
0.0
 10
105.6902278266986
 20
149.333380208506
 30
0.0
 10
105.7024290488367
 20
149.3583778076363
 30
0.0
 10
105.7134629220465
 20
149.3809837676169
 30
0.0
 10
105.7262919255278
 20
149.4027034801323
 30
0.0
 10
105.7391209295289
 20
149.4244231921319
 30
0.0
 10
105.7478839795299
 20
149.4364978041314
 30
0.0
 10
105.7566470296142
 20
149.4485724160276
 30
0.0
 10
105.7662164712842
 20
149.4599860920621
 30
0.0
 10
105.775873986513
 20
149.4715048152974
 30
0.0
 10
105.7863528050874
 20
149.4823503806727
 30
0.0
 10
105.7972634472594
 20
149.4927265393149
 30
0.0
 10
105.8081012681692
 20
149.503033444015
 30
0.0
 10
105.8193651676446
 20
149.512877187025
 30
0.0
 10
105.8311328753813
 20
149.5220800434456
 30
0.0
 10
105.8432627509427
 20
149.5315661307699
 30
0.0
 10
105.8559279227877
 20
149.5403712760847
 30
0.0
 10
105.8689537372491
 20
149.5486110952493
 30
0.0
 10
105.8815685636854
 20
149.556590933204
 30
0.0
 10
105.894521633909
 20
149.5640405563434
 30
0.0
 10
105.9079035793003
 20
149.5706262236416
 30
0.0
 10
105.9201638249745
 20
149.5766598679768
 30
0.0
 10
105.932784060899
 20
149.5819683230174
 30
0.0
 10
105.9457244407503
 20
149.5864319568408
 30
0.0
 10
105.9575250094802
 20
149.5905024260481
 30
0.0
 10
105.9695918082733
 20
149.5938703462232
 30
0.0
 10
105.9818518309365
 20
149.5960282945486
 30
0.0
 10
105.9934036047268
 20
149.5980615804241
 30
0.0
 10
106.0051269225365
 20
149.59902065412
 30
0.0
 10
106.0168502395365
 20
149.5999797281192
 30
0.0
 10
106.0168502395365
 20
149.5999797281192
 30
0.0
 10
106.0168838665368
 20
149.6005431161191
 30
0.0
 10
106.0168838665368
 20
149.6005431161191
 30
0.0
  0
HATCH
  5
5B
330
56
100
AcDbEntity
  8
0
 62
     7
420
 16777215
100
AcDbHatch
 10
0.0
 20
0.0
 30
0.0
210
0.0
220
0.0
230
1.0
  2
SOLID
 70
     1
 71
     0
 91
        1
 92
        1
 93
        1
 72
     4
 94
        3
 73
     0
 74
     1
 95
      200
 96
      196
 40
0.0
 40
0.0
 40
0.0
 40
0.0
 40
1.0
 40
1.0
 40
1.0
 40
2.0
 40
2.0
 40
2.0
 40
3.0
 40
3.0
 40
3.0
 40
4.0
 40
4.0
 40
4.0
 40
5.0
 40
5.0
 40
5.0
 40
6.0
 40
6.0
 40
6.0
 40
7.0
 40
7.0
 40
7.0
 40
8.0
 40
8.0
 40
8.0
 40
9.0
 40
9.0
 40
9.0
 40
10.0
 40
10.0
 40
10.0
 40
11.0
 40
11.0
 40
11.0
 40
12.0
 40
12.0
 40
12.0
 40
13.0
 40
13.0
 40
13.0
 40
14.0
 40
14.0
 40
14.0
 40
15.0
 40
15.0
 40
15.0
 40
16.0
 40
16.0
 40
16.0
 40
17.0
 40
17.0
 40
17.0
 40
18.0
 40
18.0
 40
18.0
 40
19.0
 40
19.0
 40
19.0
 40
20.0
 40
20.0
 40
20.0
 40
21.0
 40
21.0
 40
21.0
 40
22.0
 40
22.0
 40
22.0
 40
23.0
 40
23.0
 40
23.0
 40
24.0
 40
24.0
 40
24.0
 40
25.0
 40
25.0
 40
25.0
 40
26.0
 40
26.0
 40
26.0
 40
27.0
 40
27.0
 40
27.0
 40
28.0
 40
28.0
 40
28.0
 40
29.0
 40
29.0
 40
29.0
 40
30.0
 40
30.0
 40
30.0
 40
31.0
 40
31.0
 40
31.0
 40
32.0
 40
32.0
 40
32.0
 40
33.0
 40
33.0
 40
33.0
 40
34.0
 40
34.0
 40
34.0
 40
35.0
 40
35.0
 40
35.0
 40
36.0
 40
36.0
 40
36.0
 40
37.0
 40
37.0
 40
37.0
 40
38.0
 40
38.0
 40
38.0
 40
39.0
 40
39.0
 40
39.0
 40
40.0
 40
40.0
 40
40.0
 40
41.0
 40
41.0
 40
41.0
 40
42.0
 40
42.0
 40
42.0
 40
43.0
 40
43.0
 40
43.0
 40
44.0
 40
44.0
 40
44.0
 40
45.0
 40
45.0
 40
45.0
 40
46.0
 40
46.0
 40
46.0
 40
47.0
 40
47.0
 40
47.0
 40
48.0
 40
48.0
 40
48.0
 40
49.0
 40
49.0
 40
49.0
 40
50.0
 40
50.0
 40
50.0
 40
51.0
 40
51.0
 40
51.0
 40
52.0
 40
52.0
 40
52.0
 40
53.0
 40
53.0
 40
53.0
 40
54.0
 40
54.0
 40
54.0
 40
55.0
 40
55.0
 40
55.0
 40
56.0
 40
56.0
 40
56.0
 40
57.0
 40
57.0
 40
57.0
 40
58.0
 40
58.0
 40
58.0
 40
59.0
 40
59.0
 40
59.0
 40
60.0
 40
60.0
 40
60.0
 40
61.0
 40
61.0
 40
61.0
 40
62.0
 40
62.0
 40
62.0
 40
63.0
 40
63.0
 40
63.0
 40
64.0
 40
64.0
 40
64.0
 40
65.0
 40
65.0
 40
65.0
 40
65.0
 10
106.0168838665368
 20
149.6005431161191
 10
106.0295511505367
 20
149.5994685761186
 10
106.0422184342929
 20
149.5983940353093
 10
106.0546711014273
 20
149.5960282947869
 10
106.0677635457516
 20
149.5935410102767
 10
106.0806187543647
 20
149.5896264426339
 10
106.0930564532921
 20
149.5847384855254
 10
106.1063196232983
 20
149.5795261221702
 10
106.1191080256234
 20
149.5732068770446
 10
106.1314418048521
 20
149.5661102998875
 10
106.1447476425902
 20
149.558454422285
 10
106.1575243732138
 20
149.5498938570172
 10
106.1698271567317
 20
149.5407082292504
 10
106.1827894791556
 20
149.5310301699224
 10
106.1952256768083
 20
149.5206582338711
 10
106.2070835280768
 20
149.5096612534378
 10
106.2191870445205
 20
149.4984364429314
 10
106.2306880025502
 20
149.4865604210363
 10
106.241517446156
 20
149.4740983536218
 10
106.2527817573526
 20
149.4611358589068
 10
106.2633195405813
 20
149.4475393071335
 10
106.2731289123728
 20
149.433455039918
 10
106.2832413250714
 20
149.4189356674582
 10
106.2925796255281
 20
149.4038979801075
 10
106.3019179265277
 20
149.3888602931065
 10
106.3136409125264
 20
149.3655341561061
 10
106.3253638985572
 20
149.342208019544
 10
106.3357873545829
 20
149.3182989840697
 10
106.3468736953097
 20
149.2928694419819
 10
106.3564899617598
 20
149.2667805040398
 10
106.3651408589677
 20
149.2403992997353
 10
106.3744234379735
 20
149.2120917603743
 10
106.3825945195492
 20
149.1834477142174
 10
106.3899784397387
 20
149.1545967482318
 10
106.3979145284964
 20
149.1235883108505
 10
106.4049413263926
 20
149.0923408496642
 10
106.4108645871642
 20
149.0608913300902
 10
106.4171745460955
 20
149.0273886388235
 10
106.4222321764003
 20
148.9936566453455
 10
106.4266703201934
 20
148.9598475369606
 10
106.4314259941819
 20
148.923619531567
 10
106.4354703674192
 20
148.8873029820487
 10
106.4385246198952
 20
148.8509008757804
 10
106.4417709650428
 20
148.8122093131184
 10
106.4438987285633
 20
148.7734210933494
 10
106.4452985055772
 20
148.7346158389716
 10
106.4467912685159
 20
148.6932327865193
 10
106.447456113494
 20
148.6518303611001
 10
106.4481209584926
 20
148.6104279360999
 10
106.4477844384905
 20
148.5660077171
 10
106.4474479190909
 20
148.5215874984985
 10
106.4458629962051
 20
148.4772081853761
 10
106.4443831610469
 20
148.4357714262342
 10
106.4418149839053
 20
148.3943703279603
 10
106.4385246199067
 20
148.3530202820976
 10
106.4354627727314
 20
148.3145420100439
 10
106.4317755675553
 20
148.2761079454331
 10
106.4266703201549
 20
148.2378642265645
 10
106.4219270171414
 20
148.2023318551195
 10
106.4159596129509
 20
148.1669637964456
 10
106.4091711157388
 20
148.1317400183871
 10
106.4028528083806
 20
148.0989559353894
 10
106.3958232112405
 20
148.0662968386292
 10
106.3871559872557
 20
148.034083167185
 10
106.3791645290664
 20
148.0043811300733
 10
106.369780853751
 20
147.975057768211
 10
106.3594959541365
 20
147.9460226539907
 10
106.3499299285848
 20
147.9190169801479
 10
106.3395842599115
 20
147.8922606674139
 10
106.3273199973329
 20
147.8664294977306
 10
106.3159923641986
 20
147.8425710707135
 10
106.3030279954574
 20
147.8195018751061
 10
106.2900636264563
 20
147.7964326801071
 10
106.2815954824551
 20
147.7829795371076
 10
106.2731273375311
 20
147.7695263939989
 10
106.2635325745499
 20
147.7569183472349
 10
106.2541762917886
 20
147.7446236766083
 10
106.2437486997097
 20
147.7331326142528
 10
106.2330500890954
 20
147.7219199383333
 10
106.222375244344
 20
147.7107321702174
 10
106.2114305837994
 20
147.6998215530986
 10
106.1997451515782
 20
147.6897439810433
 10
106.1881503594791
 20
147.6797445774602
 10
106.1758262429873
 20
147.670565345739
 10
106.1630532710285
 20
147.6620839480178
 10
106.1506738301132
 20
147.6538638593551
 10
106.1378727658378
 20
147.6462992670326
 10
106.1246679193286
 20
147.6395043296288
 10
106.1126015968778
 20
147.6332952528561
 10
106.1001981188521
 20
147.6277288330062
 10
106.0874115481837
 20
147.6231341059705
 10
106.0751064338321
 20
147.618712385476
 10
106.0624465330897
 20
147.6151905605915
 10
106.0495906867889
 20
147.612973277184
 10
106.0374760610866
 20
147.6108838341436
 10
106.0251874334476
 20
147.6099528391185
 10
106.0128988064471
 20
147.6090218441191
 10
106.0013534494476
 20
147.6097463931204
 10
105.9898080930276
 20
147.6104709428995
 10
105.9784648877749
 20
147.6124087871227
 10
105.9671989356076
 20
147.6143334336258
 10
105.9561323904774
 20
147.6174549045241
 10
105.9451599501699
 20
147.6208761440454
 10
105.9338105707733
 20
147.624414914297
 10
105.9225618728742
 20
147.6282744030013
 10
105.9118550124499
 20
147.6332949343295
 10
105.9008880284612
 20
147.6384374396508
 10
105.8904895296891
 20
147.6447980880454
 10
105.8802435463768
 20
147.6513586291175
 10
105.8694027772154
 20
147.6583000137709
 10
105.8587327447108
 20
147.6654651725077
 10
105.8486320803205
 20
147.6733737575762
 10
105.8379382798808
 20
147.6817467543633
 10
105.8278826803385
 20
147.6909530527318
 10
105.8181495949539
 20
147.7004693003504
 10
105.8077625691041
 20
147.7106249196739
 10
105.7977428510479
 20
147.7211335367534
 10
105.7882315996498
 20
147.7320807665178
 10
105.7780593693114
 20
147.743788767712
 10
105.7684687324537
 20
147.7559984621301
 10
105.7588780954549
 20
147.768208156131
 10
105.7443549134554
 20
147.7900698321312
 10
105.729831731302
 20
147.8119315076989
 10
105.717105800623
 20
147.834818031372
 10
105.7030030071545
 20
147.8601807278027
 10
105.6911074052808
 20
147.8868020328148
 10
105.6804139200874
 20
147.9138466972268
 10
105.6686926259141
 20
147.9434907713199
 10
105.6584156377211
 20
147.9736434986291
 10
105.6493669444837
 20
148.0041651726606
 10
105.6393270056372
 20
148.0380303654252
 10
105.630799210519
 20
148.0723497654408
 10
105.6234003831513
 20
148.1069024381218
 10
105.6153134101917
 20
148.1446687645633
 10
105.608575175654
 20
148.1827137737276
 10
105.603078725975
 20
148.220929512662
 10
105.5971740403275
 20
148.2619836363967
 10
105.5927024510996
 20
148.3032347928305
 10
105.5889664640517
 20
148.3445529254762
 10
105.5849403546446
 20
148.3890796651108
 10
105.5817685315119
 20
148.4336841870844
 10
105.579934616933
 20
148.4783371665706
 10
105.5779655205734
 20
148.5262816130449
 10
105.5775388424902
 20
148.5742819241391
 10
105.5771121644931
 20
148.6222822361392
 10
105.5776580974953
 20
148.6653856181391
 10
105.5782040301363
 20
148.708488999789
 10
105.5799346166218
 20
148.751550553826
 10
105.581569995544
 20
148.7922430926941
 10
105.5842632672257
 20
148.8328982796147
 10
105.5878374830687
 20
148.8734804945215
 10
105.5912109971397
 20
148.9117839096067
 10
105.5953692983598
 20
148.9500223177362
 10
105.6008207640987
 20
148.9880720593722
 10
105.605966585659
 20
149.0239884881353
 10
105.6122646305127
 20
149.0597368130526
 10
105.6194489495101
 20
149.0953252492552
 10
105.6261087521035
 20
149.1283154268616
 10
105.633530141793
 20
149.1611682099817
 10
105.6425930592104
 20
149.1935465907027
 10
105.6508498773221
 20
149.2230450830814
 10
105.6604691988924
 20
149.2521498112263
 10
105.6708175827027
 20
149.2810426134029
 10
105.6802216658969
 20
149.3072989178039
 10
105.6902278266986
 20
149.333380208506
 10
105.7024290488367
 20
149.3583778076363
 10
105.7134629220465
 20
149.3809837676169
 10
105.7262919255278
 20
149.4027034801323
 10
105.7391209295289
 20
149.4244231921319
 10
105.7478839795299
 20
149.4364978041314
 10
105.7566470296142
 20
149.4485724160276
 10
105.7662164712842
 20
149.4599860920621
 10
105.775873986513
 20
149.4715048152974
 10
105.7863528050874
 20
149.4823503806727
 10
105.7972634472594
 20
149.4927265393149
 10
105.8081012681692
 20
149.503033444015
 10
105.8193651676446
 20
149.512877187025
 10
105.8311328753813
 20
149.5220800434456
 10
105.8432627509427
 20
149.5315661307699
 10
105.8559279227877
 20
149.5403712760847
 10
105.8689537372491
 20
149.5486110952493
 10
105.8815685636854
 20
149.556590933204
 10
105.894521633909
 20
149.5640405563434
 10
105.9079035793003
 20
149.5706262236416
 10
105.9201638249745
 20
149.5766598679768
 10
105.932784060899
 20
149.5819683230174
 10
105.9457244407503
 20
149.5864319568408
 10
105.9575250094802
 20
149.5905024260481
 10
105.9695918082733
 20
149.5938703462232
 10
105.9818518309365
 20
149.5960282945486
 10
105.9934036047268
 20
149.5980615804241
 10
106.0051269225365
 20
149.59902065412
 10
106.0168502395365
 20
149.5999797281192
 10
106.0168502395365
 20
149.5999797281192
 10
106.0168838665368
 20
149.6005431161191
 10
106.0168838665368
 20
149.6005431161191
 97
        0
 97
        0
 75
     2
 76
     1
 98
        0
  0
ENDBLK
  5
59
330
56
100
AcDbEntity
  8
0
100
AcDbBlockEnd
  0
ENDSEC
  0
SECTION
  2
ENTITIES
  0
INSERT
  5
41
330
1F
100
AcDbEntity
  8
0
100
AcDbBlockReference
  2
block 2
 10
0.0
 20
0.0
 30
0.0
  0
INSERT
  5
4D
330
1F
100
AcDbEntity
  8
0
100
AcDbBlockReference
  2
block 3
 10
0.0
 20
0.0
 30
0.0
  0
INSERT
  5
52
330
1F
100
AcDbEntity
  8
0
100
AcDbBlockReference
  2
block 4
 10
0.0
 20
0.0
 30
0.0
  0
INSERT
  5
57
330
1F
100
AcDbEntity
  8
0
100
AcDbBlockReference
  2
block 5
 10
0.0
 20
0.0
 30
0.0
  0
ENDSEC
  0
SECTION
  2
OBJECTS
  0
DICTIONARY
  5
C
330
0
100
AcDbDictionary
281
     1
  3
ACAD_GROUP
350
D
  3
ACAD_LAYOUT
350
1A
  3
ACAD_MATERIAL
350
3B
  3
ACAD_MLEADERSTYLE
350
5D
  3
ACAD_MLINESTYLE
350
17
  3
ACAD_PLOTSETTINGS
350
19
  3
ACAD_PLOTSTYLENAME
350
E
  3
ACAD_TABLESTYLE
350
5C
  3
ACAD_VISUALSTYLE
350
2A
  0
SUN
  5
3F
330
29
100
AcDbSun
 90
        1
290
     0
 63
     7
421
 16777215
 40
1.0
291
     1
 91
  2455826
 92
 54000000
292
     0
 70
     2
 71
   256
280
     1
  0
DICTIONARY
  5
D
102
{ACAD_REACTORS
330
C
102
}
330
C
100
AcDbDictionary
281
     1
  0
DICTIONARY
  5
1A
102
{ACAD_REACTORS
330
C
102
}
330
C
100
AcDbDictionary
281
     1
  3
Layout1
350
1E
  3
Layout2
350
26
  3
Model
350
22
  0
DICTIONARY
  5
3B
102
{ACAD_REACTORS
330
C
102
}
330
C
100
AcDbDictionary
281
     1
  3
ByBlock
350
3D
  3
ByLayer
350
3C
  3
Global
350
3E
  0
DICTIONARY
  5
5D
102
{ACAD_REACTORS
330
C
102
}
330
C
100
AcDbDictionary
281
     1
  0
DICTIONARY
  5
17
102
{ACAD_REACTORS
330
C
102
}
330
C
100
AcDbDictionary
281
     1
  3
Standard
350
18
  0
DICTIONARY
  5
19
102
{ACAD_REACTORS
330
C
102
}
330
C
100
AcDbDictionary
281
     1
  0
ACDBDICTIONARYWDFLT
  5
E
102
{ACAD_REACTORS
330
C
102
}
330
C
100
AcDbDictionary
281
     1
  3
Normal
350
F
100
AcDbDictionaryWithDefault
340
F
  0
DICTIONARY
  5
5C
102
{ACAD_REACTORS
330
C
102
}
330
C
100
AcDbDictionary
281
     1
  0
DICTIONARY
  5
2A
102
{ACAD_REACTORS
330
C
102
}
330
C
100
AcDbDictionary
281
     1
  3
2dWireframe
350
2F
  3
3D Hidden
350
31
  3
3dWireframe
350
30
  3
Basic
350
32
  3
Brighten
350
36
  3
ColorChange
350
3A
  3
Conceptual
350
34
  3
Dim
350
35
  3
Facepattern
350
39
  3
Flat
350
2B
  3
FlatWithEdges
350
2C
  3
Gouraud
350
2D
  3
GouraudWithEdges
350
2E
  3
Linepattern
350
38
  3
Realistic
350
33
  3
Thicken
350
37
  0
LAYOUT
  5
1E
102
{ACAD_REACTORS
330
1A
102
}
330
1A
100
AcDbPlotSettings
  1

  2
none_device
  4

  6

 40
0.0
 41
0.0
 42
0.0
 43
0.0
 44
0.0
 45
0.0
 46
0.0
 47
0.0
 48
0.0
 49
0.0
140
0.0
141
0.0
142
1.0
143
1.0
 70
   688
 72
     0
 73
     0
 74
     5
  7

 75
    16
 76
     0
 77
     2
 78
   300
147
1.0
148
0.0
149
0.0
100
AcDbLayout
  1
Layout1
 70
     1
 71
     1
 10
0.0
 20
0.0
 11
12.0
 21
9.0
 12
0.0
 22
0.0
 32
0.0
 14
1.000000000000000E+20
 24
1.000000000000000E+20
 34
1.000000000000000E+20
 15
-1.000000000000000E+20
 25
-1.000000000000000E+20
 35
-1.000000000000000E+20
146
0.0
 13
0.0
 23
0.0
 33
0.0
 16
1.0
 26
0.0
 36
0.0
 17
0.0
 27
1.0
 37
0.0
 76
     0
330
1B
  0
LAYOUT
  5
26
102
{ACAD_REACTORS
330
1A
102
}
330
1A
100
AcDbPlotSettings
  1

  2
none_device
  4

  6

 40
0.0
 41
0.0
 42
0.0
 43
0.0
 44
0.0
 45
0.0
 46
0.0
 47
0.0
 48
0.0
 49
0.0
140
0.0
141
0.0
142
1.0
143
1.0
 70
   688
 72
     0
 73
     0
 74
     5
  7

 75
    16
 76
     0
 77
     2
 78
   300
147
1.0
148
0.0
149
0.0
100
AcDbLayout
  1
Layout2
 70
     1
 71
     2
 10
0.0
 20
0.0
 11
0.0
 21
0.0
 12
0.0
 22
0.0
 32
0.0
 14
0.0
 24
0.0
 34
0.0
 15
0.0
 25
0.0
 35
0.0
146
0.0
 13
0.0
 23
0.0
 33
0.0
 16
1.0
 26
0.0
 36
0.0
 17
0.0
 27
1.0
 37
0.0
 76
     0
330
23
  0
LAYOUT
  5
22
102
{ACAD_REACTORS
330
1A
102
}
330
1A
100
AcDbPlotSettings
  1

  2
none_device
  4

  6

 40
0.0
 41
0.0
 42
0.0
 43
0.0
 44
0.0
 45
0.0
 46
0.0
 47
0.0
 48
0.0
 49
0.0
140
0.0
141
0.0
142
1.0
143
1.0
 70
  1712
 72
     0
 73
     0
 74
     0
  7

 75
     0
 76
     0
 77
     2
 78
   300
147
1.0
148
0.0
149
0.0
100
AcDbLayout
  1
Model
 70
     1
 71
     0
 10
0.0
 20
0.0
 11
12.0
 21
9.0
 12
0.0
 22
0.0
 32
0.0
 14
1.000000000000000E+20
 24
1.000000000000000E+20
 34
1.000000000000000E+20
 15
-1.000000000000000E+20
 25
-1.000000000000000E+20
 35
-1.000000000000000E+20
146
0.0
 13
0.0
 23
0.0
 33
0.0
 16
1.0
 26
0.0
 36
0.0
 17
0.0
 27
1.0
 37
0.0
 76
     0
330
1F
331
29
  0
MATERIAL
  5
3D
102
{ACAD_REACTORS
330
3B
102
}
330
3B
100
AcDbMaterial
  1
ByBlock
 72
     1
 94
      127
  0
MATERIAL
  5
3C
102
{ACAD_REACTORS
330
3B
102
}
330
3B
100
AcDbMaterial
  1
ByLayer
 72
     1
 94
      127
  0
MATERIAL
  5
3E
102
{ACAD_REACTORS
330
3B
102
}
330
3B
100
AcDbMaterial
  1
Global
 72
     1
 94
      127
  0
MLINESTYLE
  5
18
102
{ACAD_REACTORS
330
17
102
}
330
17
100
AcDbMlineStyle
  2
Standard
 70
     0
  3

 62
   256
 51
90.0
 52
90.0
 71
     2
 49
0.5
 62
   256
  6
BYLAYER
 49
-0.5
 62
   256
  6
BYLAYER
  0
ACDBPLACEHOLDER
  5
F
102
{ACAD_REACTORS
330
E
102
}
330
E
  0
VISUALSTYLE
  5
2F
102
{ACAD_REACTORS
330
2A
102
}
330
2A
100
AcDbVisualStyle
  2
2dWireframe
 70
     4
177
     2
291
     0
 71
     0
176
     1
 72
     2
176
     1
 73
     0
176
     1
 90
        0
176
     1
 40
-0.6
176
     1
 41
-30.0
176
     1
 62
     5
 63
     7
421
 16777215
176
     1
 74
     1
176
     1
 91
        4
176
     1
 64
     7
176
     1
 65
   257
176
     1
 75
     1
176
     1
175
     1
176
     1
 42
1.0
176
     1
 92
        0
176
     1
 66
   257
176
     1
 43
1.0
176
     1
 76
     1
176
     1
 77
     6
176
     1
 78
     2
176
     1
 67
     7
176
     1
 79
     5
176
     1
170
     0
176
     1
171
     0
176
     1
290
     0
176
     1
 93
        1
176
     1
 44
0.0
176
     1
173
     0
176
     1
  0
VISUALSTYLE
  5
31
102
{ACAD_REACTORS
330
2A
102
}
330
2A
100
AcDbVisualStyle
  2
3D Hidden
 70
     6
177
     2
291
     0
 71
     1
176
     1
 72
     2
176
     1
 73
     2
176
     1
 90
        0
176
     1
 40
-0.6
176
     1
 41
-30.0
176
     1
 62
     5
 63
     7
421
 16777215
176
     1
 74
     2
176
     1
 91
        2
176
     1
 64
     7
176
     1
 65
   257
176
     1
 75
     2
176
     1
175
     1
176
     1
 42
40.0
176
     1
 92
        0
176
     1
 66
   257
176
     1
 43
1.0
176
     1
 76
     1
176
     1
 77
     6
176
     1
 78
     2
176
     1
 67
     7
176
     1
 79
     3
176
     1
170
     0
176
     1
171
     0
176
     1
290
     0
176
     1
 93
        1
176
     1
 44
0.0
176
     1
173
     0
176
     1
  0
VISUALSTYLE
  5
30
102
{ACAD_REACTORS
330
2A
102
}
330
2A
100
AcDbVisualStyle
  2
3dWireframe
 70
     5
177
     2
291
     0
 71
     0
176
     1
 72
     2
176
     1
 73
     0
176
     1
 90
        0
176
     1
 40
-0.6
176
     1
 41
-30.0
176
     1
 62
     5
 63
     7
421
 16777215
176
     1
 74
     1
176
     1
 91
        4
176
     1
 64
     7
176
     1
 65
   257
176
     1
 75
     1
176
     1
175
     1
176
     1
 42
1.0
176
     1
 92
        0
176
     1
 66
   257
176
     1
 43
1.0
176
     1
 76
     1
176
     1
 77
     6
176
     1
 78
     2
176
     1
 67
     7
176
     1
 79
     5
176
     1
170
     0
176
     1
171
     0
176
     1
290
     0
176
     1
 93
        1
176
     1
 44
0.0
176
     1
173
     0
176
     1
  0
VISUALSTYLE
  5
32
102
{ACAD_REACTORS
330
2A
102
}
330
2A
100
AcDbVisualStyle
  2
Basic
 70
     7
177
     2
291
     1
 71
     1
176
     1
 72
     0
176
     1
 73
     1
176
     1
 90
        0
176
     1
 40
-0.6
176
     1
 41
-30.0
176
     1
 62
     5
 63
     7
421
 16777215
176
     1
 74
     0
176
     1
 91
        4
176
     1
 64
     7
176
     1
 65
   257
176
     1
 75
     1
176
     1
175
     1
176
     1
 42
1.0
176
     1
 92
        8
176
     1
 66
     7
176
     1
 43
1.0
176
     1
 76
     1
176
     1
 77
     6
176
     1
 78
     2
176
     1
 67
     7
176
     1
 79
     5
176
     1
170
     0
176
     1
171
     0
176
     1
290
     0
176
     1
 93
        1
176
     1
 44
0.0
176
     1
173
     0
176
     1
  0
VISUALSTYLE
  5
36
102
{ACAD_REACTORS
330
2A
102
}
330
2A
100
AcDbVisualStyle
  2
Brighten
 70
    12
177
     2
291
     1
 71
     2
176
     1
 72
     2
176
     1
 73
     0
176
     1
 90
        0
176
     1
 40
-0.6
176
     1
 41
-30.0
176
     1
 62
     5
 63
     7
421
 16777215
176
     1
 74
     1
176
     1
 91
        4
176
     1
 64
     7
176
     1
 65
   257
176
     1
 75
     1
176
     1
175
     1
176
     1
 42
1.0
176
     1
 92
        8
176
     1
 66
     7
176
     1
 43
1.0
176
     1
 76
     1
176
     1
 77
     6
176
     1
 78
     2
176
     1
 67
     7
176
     1
 79
     5
176
     1
170
     0
176
     1
171
     0
176
     1
290
     0
176
     1
 93
        1
176
     1
 44
50.0
176
     1
173
     0
176
     1
  0
VISUALSTYLE
  5
3A
102
{ACAD_REACTORS
330
2A
102
}
330
2A
100
AcDbVisualStyle
  2
ColorChange
 70
    16
177
     2
291
     1
 71
     2
176
     1
 72
     2
176
     1
 73
     3
176
     1
 90
        0
176
     1
 40
-0.6
176
     1
 41
-30.0
176
     1
 62
     5
 63
     8
421
  8421504
176
     1
 74
     1
176
     1
 91
        4
176
     1
 64
     7
176
     1
 65
   257
176
     1
 75
     1
176
     1
175
     1
176
     1
 42
1.0
176
     1
 92
        8
176
     1
 66
     8
424
  8421504
176
     1
 43
1.0
176
     1
 76
     1
176
     1
 77
     6
176
     1
 78
     2
176
     1
 67
     7
176
     1
 79
     5
176
     1
170
     0
176
     1
171
     0
176
     1
290
     0
176
     1
 93
        1
176
     1
 44
0.0
176
     1
173
     0
176
     1
  0
VISUALSTYLE
  5
34
102
{ACAD_REACTORS
330
2A
102
}
330
2A
100
AcDbVisualStyle
  2
Conceptual
 70
     9
177
     2
291
     0
 71
     3
176
     1
 72
     2
176
     1
 73
     0
176
     1
 90
        0
176
     1
 40
-0.6
176
     1
 41
-30.0
176
     1
 62
     5
 63
     7
421
 16777215
176
     1
 74
     2
176
     1
 91
        2
176
     1
 64
     7
176
     1
 65
   257
176
     1
 75
     1
176
     1
175
     1
176
     1
 42
40.0
176
     1
 92
        8
176
     1
 66
     7
176
     1
 43
1.0
176
     1
 76
     1
176
     1
 77
     6
176
     1
 78
     2
176
     1
 67
     7
176
     1
 79
     3
176
     1
170
     0
176
     1
171
     0
176
     1
290
     0
176
     1
 93
        1
176
     1
 44
0.0
176
     1
173
     0
176
     1
  0
VISUALSTYLE
  5
35
102
{ACAD_REACTORS
330
2A
102
}
330
2A
100
AcDbVisualStyle
  2
Dim
 70
    11
177
     2
291
     1
 71
     2
176
     1
 72
     2
176
     1
 73
     0
176
     1
 90
        0
176
     1
 40
-0.6
176
     1
 41
-30.0
176
     1
 62
     5
 63
     7
421
 16777215
176
     1
 74
     1
176
     1
 91
        4
176
     1
 64
     7
176
     1
 65
   257
176
     1
 75
     1
176
     1
175
     1
176
     1
 42
1.0
176
     1
 92
        8
176
     1
 66
     7
176
     1
 43
1.0
176
     1
 76
     1
176
     1
 77
     6
176
     1
 78
     2
176
     1
 67
     7
176
     1
 79
     5
176
     1
170
     0
176
     1
171
     0
176
     1
290
     0
176
     1
 93
        1
176
     1
 44
-50.0
176
     1
173
     0
176
     1
  0
VISUALSTYLE
  5
39
102
{ACAD_REACTORS
330
2A
102
}
330
2A
100
AcDbVisualStyle
  2
Facepattern
 70
    15
177
     2
291
     1
 71
     2
176
     1
 72
     2
176
     1
 73
     0
176
     1
 90
        0
176
     1
 40
-0.6
176
     1
 41
-30.0
176
     1
 62
     5
 63
     7
421
 16777215
176
     1
 74
     1
176
     1
 91
        4
176
     1
 64
     7
176
     1
 65
   257
176
     1
 75
     1
176
     1
175
     1
176
     1
 42
1.0
176
     1
 92
        8
176
     1
 66
     7
176
     1
 43
1.0
176
     1
 76
     1
176
     1
 77
     6
176
     1
 78
     2
176
     1
 67
     7
176
     1
 79
     5
176
     1
170
     0
176
     1
171
     0
176
     1
290
     0
176
     1
 93
        1
176
     1
 44
0.0
176
     1
173
     0
176
     1
  0
VISUALSTYLE
  5
2B
102
{ACAD_REACTORS
330
2A
102
}
330
2A
100
AcDbVisualStyle
  2
Flat
 70
     0
177
     2
291
     1
 71
     2
176
     1
 72
     1
176
     1
 73
     1
176
     1
 90
        2
176
     1
 40
-0.6
176
     1
 41
30.0
176
     1
 62
     5
 63
     7
421
 16777215
176
     1
 74
     0
176
     1
 91
        4
176
     1
 64
     7
176
     1
 65
   257
176
     1
 75
     1
176
     1
175
     1
176
     1
 42
1.0
176
     1
 92
        8
176
     1
 66
     7
176
     1
 43
1.0
176
     1
 76
     1
176
     1
 77
     6
176
     1
 78
     2
176
     1
 67
     7
176
     1
 79
     5
176
     1
170
     0
176
     1
171
     0
176
     1
290
     0
176
     1
 93
       13
176
     1
 44
0.0
176
     1
173
     0
176
     1
  0
VISUALSTYLE
  5
2C
102
{ACAD_REACTORS
330
2A
102
}
330
2A
100
AcDbVisualStyle
  2
FlatWithEdges
 70
     1
177
     2
291
     1
 71
     2
176
     1
 72
     1
176
     1
 73
     1
176
     1
 90
        2
176
     1
 40
-0.6
176
     1
 41
30.0
176
     1
 62
     5
 63
     7
421
 16777215
176
     1
 74
     1
176
     1
 91
        4
176
     1
 64
     7
176
     1
 65
   257
176
     1
 75
     1
176
     1
175
     1
176
     1
 42
1.0
176
     1
 92
        0
176
     1
 66
   257
176
     1
 43
1.0
176
     1
 76
     1
176
     1
 77
     6
176
     1
 78
     2
176
     1
 67
     7
176
     1
 79
     5
176
     1
170
     0
176
     1
171
     0
176
     1
290
     0
176
     1
 93
       13
176
     1
 44
0.0
176
     1
173
     0
176
     1
  0
VISUALSTYLE
  5
2D
102
{ACAD_REACTORS
330
2A
102
}
330
2A
100
AcDbVisualStyle
  2
Gouraud
 70
     2
177
     2
291
     1
 71
     2
176
     1
 72
     2
176
     1
 73
     1
176
     1
 90
        2
176
     1
 40
-0.6
176
     1
 41
30.0
176
     1
 62
     5
 63
     7
421
 16777215
176
     1
 74
     0
176
     1
 91
        4
176
     1
 64
     7
176
     1
 65
   257
176
     1
 75
     1
176
     1
175
     1
176
     1
 42
1.0
176
     1
 92
        0
176
     1
 66
     7
176
     1
 43
1.0
176
     1
 76
     1
176
     1
 77
     6
176
     1
 78
     2
176
     1
 67
     7
176
     1
 79
     5
176
     1
170
     0
176
     1
171
     0
176
     1
290
     0
176
     1
 93
       13
176
     1
 44
0.0
176
     1
173
     0
176
     1
  0
VISUALSTYLE
  5
2E
102
{ACAD_REACTORS
330
2A
102
}
330
2A
100
AcDbVisualStyle
  2
GouraudWithEdges
 70
     3
177
     2
291
     1
 71
     2
176
     1
 72
     2
176
     1
 73
     1
176
     1
 90
        2
176
     1
 40
-0.6
176
     1
 41
30.0
176
     1
 62
     5
 63
     7
421
 16777215
176
     1
 74
     1
176
     1
 91
        4
176
     1
 64
     7
176
     1
 65
   257
176
     1
 75
     1
176
     1
175
     1
176
     1
 42
1.0
176
     1
 92
        0
176
     1
 66
   257
176
     1
 43
1.0
176
     1
 76
     1
176
     1
 77
     6
176
     1
 78
     2
176
     1
 67
     7
176
     1
 79
     5
176
     1
170
     0
176
     1
171
     0
176
     1
290
     0
176
     1
 93
       13
176
     1
 44
0.0
176
     1
173
     0
176
     1
  0
VISUALSTYLE
  5
38
102
{ACAD_REACTORS
330
2A
102
}
330
2A
100
AcDbVisualStyle
  2
Linepattern
 70
    14
177
     2
291
     1
 71
     2
176
     1
 72
     2
176
     1
 73
     0
176
     1
 90
        0
176
     1
 40
-0.6
176
     1
 41
-30.0
176
     1
 62
     5
 63
     7
421
 16777215
176
     1
 74
     1
176
     1
 91
        4
176
     1
 64
     7
176
     1
 65
   257
176
     1
 75
     7
176
     1
175
     7
176
     1
 42
1.0
176
     1
 92
        8
176
     1
 66
     7
176
     1
 43
1.0
176
     1
 76
     1
176
     1
 77
     6
176
     1
 78
     2
176
     1
 67
     7
176
     1
 79
     5
176
     1
170
     0
176
     1
171
     0
176
     1
290
     0
176
     1
 93
        1
176
     1
 44
0.0
176
     1
173
     0
176
     1
  0
VISUALSTYLE
  5
33
102
{ACAD_REACTORS
330
2A
102
}
330
2A
100
AcDbVisualStyle
  2
Realistic
 70
     8
177
     2
291
     0
 71
     2
176
     1
 72
     2
176
     1
 73
     0
176
     1
 90
        0
176
     1
 40
-0.6
176
     1
 41
-30.0
176
     1
 62
     5
 63
     7
421
 16777215
176
     1
 74
     1
176
     1
 91
        0
176
     1
 64
     7
176
     1
 65
   257
176
     1
 75
     1
176
     1
175
     1
176
     1
 42
1.0
176
     1
 92
        8
176
     1
 66
     8
424
  7895160
176
     1
 43
1.0
176
     1
 76
     1
176
     1
 77
     6
176
     1
 78
     2
176
     1
 67
     7
176
     1
 79
     5
176
     1
170
     0
176
     1
171
     0
176
     1
290
     0
176
     1
 93
       13
176
     1
 44
0.0
176
     1
173
     0
176
     1
  0
VISUALSTYLE
  5
37
102
{ACAD_REACTORS
330
2A
102
}
330
2A
100
AcDbVisualStyle
  2
Thicken
 70
    13
177
     2
291
     1
 71
     2
176
     1
 72
     2
176
     1
 73
     0
176
     1
 90
        0
176
     1
 40
-0.6
176
     1
 41
-30.0
176
     1
 62
     5
 63
     7
421
 16777215
176
     1
 74
     1
176
     1
 91
        4
176
     1
 64
     7
176
     1
 65
   257
176
     1
 75
     1
176
     1
175
     1
176
     1
 42
1.0
176
     1
 92
       12
176
     1
 66
     7
176
     1
 43
1.0
176
     1
 76
     1
176
     1
 77
     6
176
     1
 78
     2
176
     1
 67
     7
176
     1
 79
     5
176
     1
170
     0
176
     1
171
     0
176
     1
290
     0
176
     1
 93
        1
176
     1
 44
0.0
176
     1
173
     0
176
     1
  0
ENDSEC
  0
EOF
