  0
SECTION
  2
HEADER
  9
$ACADVER
  1
AC1024
  9
$ACADMAINTVER
 70
     6
  9
$DWGCODEPAGE
  3
UNDEFINED
  9
$INSBASE
 10
0.0
 20
0.0
 30
0.0
  9
$EXTMIN
 10
1.000000000000000E+20
 20
1.000000000000000E+20
 30
1.000000000000000E+20
  9
$EXTMAX
 10
-1.000000000000000E+20
 20
-1.000000000000000E+20
 30
-1.000000000000000E+20
  9
$LIMMIN
 10
0.0
 20
0.0
  9
$LIMMAX
 10
12.0
 20
9.0
  9
$ORTHOMODE
 70
     0
  9
$REGENMODE
 70
     1
  9
$FILLMODE
 70
     1
  9
$QTEXTMODE
 70
     0
  9
$MIRRTEXT
 70
     1
  9
$LTSCALE
 40
1.0
  9
$ATTMODE
 70
     1
  9
$TEXTSIZE
 40
0.2
  9
$TRACEWID
 40
0.05
  9
$TEXTSTYLE
  7
Standard
  9
$CLAYER
  8
0
  9
$CELTYPE
  6
ByLayer
  9
$CECOLOR
 62
   256
  9
$CELTSCALE
 40
1.0
  9
$DISPSILH
 70
     0
  9
$DIMSCALE
 40
1.0
  9
$DIMASZ
 40
0.18
  9
$DIMEXO
 40
0.0625
  9
$DIMDLI
 40
0.38
  9
$DIMRND
 40
0.0
  9
$DIMDLE
 40
0.0
  9
$DIMEXE
 40
0.18
  9
$DIMTP
 40
0.0
  9
$DIMTM
 40
0.0
  9
$DIMTXT
 40
0.18
  9
$DIMCEN
 40
0.09
  9
$DIMTSZ
 40
0.0
  9
$DIMTOL
 70
     0
  9
$DIMLIM
 70
     0
  9
$DIMTIH
 70
     1
  9
$DIMTOH
 70
     1
  9
$DIMSE1
 70
     0
  9
$DIMSE2
 70
     0
  9
$DIMTAD
 70
     0
  9
$DIMZIN
 70
     0
  9
$DIMBLK
  1

  9
$DIMASO
 70
     1
  9
$DIMSHO
 70
     1
  9
$DIMPOST
  1

  9
$DIMAPOST
  1

  9
$DIMALT
 70
     0
  9
$DIMALTD
 70
     2
  9
$DIMALTF
 40
25.4
  9
$DIMLFAC
 40
1.0
  9
$DIMTOFL
 70
     0
  9
$DIMTVP
 40
0.0
  9
$DIMTIX
 70
     0
  9
$DIMSOXD
 70
     0
  9
$DIMSAH
 70
     0
  9
$DIMBLK1
  1

  9
$DIMBLK2
  1

  9
$DIMSTYLE
  2
Standard
  9
$DIMCLRD
 70
     0
  9
$DIMCLRE
 70
     0
  9
$DIMCLRT
 70
     0
  9
$DIMTFAC
 40
1.0
  9
$DIMGAP
 40
0.09
  9
$DIMJUST
 70
     0
  9
$DIMSD1
 70
     0
  9
$DIMSD2
 70
     0
  9
$DIMTOLJ
 70
     1
  9
$DIMTZIN
 70
     0
  9
$DIMALTZ
 70
     0
  9
$DIMALTTZ
 70
     0
  9
$DIMUPT
 70
     0
  9
$DIMDEC
 70
     4
  9
$DIMTDEC
 70
     4
  9
$DIMALTU
 70
     2
  9
$DIMALTTD
 70
     2
  9
$DIMTXSTY
  7
Standard
  9
$DIMAUNIT
 70
     0
  9
$DIMADEC
 70
     0
  9
$DIMALTRND
 40
0.0
  9
$DIMAZIN
 70
     0
  9
$DIMDSEP
 70
    46
  9
$DIMATFIT
 70
     3
  9
$DIMFRAC
 70
     0
  9
$DIMLDRBLK
  1

  9
$DIMLUNIT
 70
     2
  9
$DIMLWD
 70
    -2
  9
$DIMLWE
 70
    -2
  9
$DIMTMOVE
 70
     0
  9
$DIMFXL
 40
1.0
  9
$DIMFXLON
 70
     0
  9
$DIMJOGANG
 40
0.7853981633974483
  9
$DIMTFILL
 70
     0
  9
$DIMTFILLCLR
 70
     0
  9
$DIMARCSYM
 70
     0
  9
$DIMLTYPE
  6

  9
$DIMLTEX1
  6

  9
$DIMLTEX2
  6

  9
$DIMTXTDIRECTION
 70
     0
  9
$LUNITS
 70
     2
  9
$LUPREC
 70
     4
  9
$SKETCHINC
 40
0.1
  9
$FILLETRAD
 40
0.5
  9
$AUNITS
 70
     0
  9
$AUPREC
 70
     0
  9
$MENU
  1
.
  9
$ELEVATION
 40
0.0
  9
$PELEVATION
 40
0.0
  9
$THICKNESS
 40
0.0
  9
$LIMCHECK
 70
     0
  9
$CHAMFERA
 40
0.5
  9
$CHAMFERB
 40
0.5
  9
$CHAMFERC
 40
1.0
  9
$CHAMFERD
 40
0.0
  9
$SKPOLY
 70
     0
  9
$TDCREATE
 40
2458843.934965266
  9
$TDUCREATE
 40
2458843.893298611
  9
$TDUPDATE
 40
2458843.934965266
  9
$TDUUPDATE
 40
2458843.893298611
  9
$TDINDWG
 40
0.0000000116
  9
$TDUSRTIMER
 40
0.0000000116
  9
$USRTIMER
 70
     1
  9
$ANGBASE
 50
0.0
  9
$ANGDIR
 70
     0
  9
$PDMODE
 70
     0
  9
$PDSIZE
 40
0.0
  9
$PLINEWID
 40
0.0
  9
$SPLFRAME
 70
     0
  9
$SPLINETYPE
 70
     6
  9
$SPLINESEGS
 70
     8
  9
$HANDSEED
  5
7E
  9
$SURFTAB1
 70
     6
  9
$SURFTAB2
 70
     6
  9
$SURFTYPE
 70
     6
  9
$SURFU
 70
     6
  9
$SURFV
 70
     6
  9
$UCSBASE
  2

  9
$UCSNAME
  2

  9
$UCSORG
 10
0.0
 20
0.0
 30
0.0
  9
$UCSXDIR
 10
1.0
 20
0.0
 30
0.0
  9
$UCSYDIR
 10
0.0
 20
1.0
 30
0.0
  9
$UCSORTHOREF
  2

  9
$UCSORTHOVIEW
 70
     0
  9
$UCSORGTOP
 10
0.0
 20
0.0
 30
0.0
  9
$UCSORGBOTTOM
 10
0.0
 20
0.0
 30
0.0
  9
$UCSORGLEFT
 10
0.0
 20
0.0
 30
0.0
  9
$UCSORGRIGHT
 10
0.0
 20
0.0
 30
0.0
  9
$UCSORGFRONT
 10
0.0
 20
0.0
 30
0.0
  9
$UCSORGBACK
 10
0.0
 20
0.0
 30
0.0
  9
$PUCSBASE
  2

  9
$PUCSNAME
  2

  9
$PUCSORG
 10
0.0
 20
0.0
 30
0.0
  9
$PUCSXDIR
 10
1.0
 20
0.0
 30
0.0
  9
$PUCSYDIR
 10
0.0
 20
1.0
 30
0.0
  9
$PUCSORTHOREF
  2

  9
$PUCSORTHOVIEW
 70
     0
  9
$PUCSORGTOP
 10
0.0
 20
0.0
 30
0.0
  9
$PUCSORGBOTTOM
 10
0.0
 20
0.0
 30
0.0
  9
$PUCSORGLEFT
 10
0.0
 20
0.0
 30
0.0
  9
$PUCSORGRIGHT
 10
0.0
 20
0.0
 30
0.0
  9
$PUCSORGFRONT
 10
0.0
 20
0.0
 30
0.0
  9
$PUCSORGBACK
 10
0.0
 20
0.0
 30
0.0
  9
$USERI1
 70
     0
  9
$USERI2
 70
     0
  9
$USERI3
 70
     0
  9
$USERI4
 70
     0
  9
$USERI5
 70
     0
  9
$USERR1
 40
0.0
  9
$USERR2
 40
0.0
  9
$USERR3
 40
0.0
  9
$USERR4
 40
0.0
  9
$USERR5
 40
0.0
  9
$WORLDVIEW
 70
     1
  9
$SHADEDGE
 70
     3
  9
$SHADEDIF
 70
    70
  9
$TILEMODE
 70
     1
  9
$MAXACTVP
 70
    64
  9
$PINSBASE
 10
0.0
 20
0.0
 30
0.0
  9
$PLIMCHECK
 70
     0
  9
$PEXTMIN
 10
1.000000000000000E+20
 20
1.000000000000000E+20
 30
1.000000000000000E+20
  9
$PEXTMAX
 10
-1.000000000000000E+20
 20
-1.000000000000000E+20
 30
-1.000000000000000E+20
  9
$PLIMMIN
 10
0.0
 20
0.0
  9
$PLIMMAX
 10
12.0
 20
9.0
  9
$UNITMODE
 70
     0
  9
$VISRETAIN
 70
     1
  9
$PLINEGEN
 70
     0
  9
$PSLTSCALE
 70
     1
  9
$TREEDEPTH
 70
  3020
  9
$CMLSTYLE
  2
Standard
  9
$CMLJUST
 70
     0
  9
$CMLSCALE
 40
1.0
  9
$PROXYGRAPHICS
 70
     1
  9
$MEASUREMENT
 70
     0
  9
$CELWEIGHT
370
    -1
  9
$ENDCAPS
280
     0
  9
$JOINSTYLE
280
     0
  9
$LWDISPLAY
290
     1
  9
$INSUNITS
 70
     1
  9
$HYPERLINKBASE
  1

  9
$STYLESHEET
  1

  9
$XEDIT
290
     1
  9
$CEPSNTYPE
380
     0
  9
$PSTYLEMODE
290
     1
  9
$FINGERPRINTGUID
  2
{E678B734-CDF0-21A0-6C8A-62E3E4D8BD63}
  9
$VERSIONGUID
  2
{FAEB1C32-E019-11D5-929B-00C0DF256EC4}
  9
$EXTNAMES
290
     1
  9
$PSVPSCALE
 40
0.0
  9
$OLESTARTUP
290
     0
  9
$SORTENTS
280
   127
  9
$INDEXCTL
280
     0
  9
$HIDETEXT
280
     1
  9
$XCLIPFRAME
280
     2
  9
$HALOGAP
280
     0
  9
$OBSCOLOR
 70
   257
  9
$OBSLTYPE
280
     0
  9
$INTERSECTIONDISPLAY
280
     0
  9
$INTERSECTIONCOLOR
 70
   257
  9
$DIMASSOC
280
     2
  9
$PROJECTNAME
  1

  9
$CAMERADISPLAY
290
     0
  9
$LENSLENGTH
 40
50.0
  9
$CAMERAHEIGHT
 40
0.0
  9
$STEPSPERSEC
 40
2.0
  9
$STEPSIZE
 40
6.0
  9
$3DDWFPREC
 40
2.0
  9
$PSOLWIDTH
 40
0.25
  9
$PSOLHEIGHT
 40
4.0
  9
$LOFTANG1
 40
1.570796326794897
  9
$LOFTANG2
 40
1.570796326794897
  9
$LOFTMAG1
 40
0.0
  9
$LOFTMAG2
 40
0.0
  9
$LOFTPARAM
 70
     7
  9
$LOFTNORMALS
280
     1
  9
$LATITUDE
 40
37.795
  9
$LONGITUDE
 40
-122.394
  9
$NORTHDIRECTION
 40
0.0
  9
$TIMEZONE
 70
 -8000
  9
$LIGHTGLYPHDISPLAY
280
     1
  9
$TILEMODELIGHTSYNCH
280
     1
  9
$CMATERIAL
347
3C
  9
$SOLIDHIST
280
     1
  9
$SHOWHIST
280
     1
  9
$DWFFRAME
280
     2
  9
$DGNFRAME
280
     2
  9
$REALWORLDSCALE
290
     1
  9
$INTERFERECOLOR
 62
   256
  9
$CSHADOW
280
     0
  9
$SHADOWPLANELOCATION
 40
0.0
  0
ENDSEC
  0
SECTION
  2
CLASSES
  0
CLASS
  1
ACDBDICTIONARYWDFLT
  2
AcDbDictionaryWithDefault
  3
ObjectDBX Classes
 90
        0
 91
        4
280
     0
281
     0
  0
CLASS
  1
VISUALSTYLE
  2
AcDbVisualStyle
  3
ObjectDBX Classes
 90
     4095
 91
        4
280
     0
281
     0
  0
CLASS
  1
MATERIAL
  2
AcDbMaterial
  3
ObjectDBX Classes
 90
     1153
 91
        4
280
     0
281
     0
  0
CLASS
  1
SUN
  2
AcDbSun
  3
SCENEOE
 90
     1024
 91
        4
280
     0
281
     0
  0
ENDSEC
  0
SECTION
  2
TABLES
  0
TABLE
  2
VPORT
  5
8
330
0
100
AcDbSymbolTable
 70
     1
  0
VPORT
  5
29
330
8
100
AcDbSymbolTableRecord
100
AcDbViewportTableRecord
  2
*Active
 70
     0
 10
0.0
 20
0.0
 11
1.0
 21
1.0
 12
0.0
 22
0.0
 13
0.0
 23
0.0
 14
0.5
 24
0.5
 15
0.5
 25
0.5
 16
0.0
 26
0.0
 36
1.0
 17
105.0007777515276
 27
148.5000416295416
 37
0.0
 40
24.99999999375009
 41
0.9999999999999869
 42
50.0
 43
0.0
 44
0.0
 50
0.0
 51
0.0
 71
     0
 72
   100
 73
     1
 74
     3
 75
     0
 76
     0
 77
     0
 78
     0
281
     0
 65
     1
110
0.0
120
0.0
130
0.0
111
1.0
121
0.0
131
0.0
112
0.0
122
1.0
132
0.0
 79
     0
146
0.0
 60
     3
 61
     5
292
     1
282
     1
141
0.0
142
0.0
 63
   250
361
3F
  0
ENDTAB
  0
TABLE
  2
LTYPE
  5
5
330
0
100
AcDbSymbolTable
 70
     1
  0
LTYPE
  5
14
330
5
100
AcDbSymbolTableRecord
100
AcDbLinetypeTableRecord
  2
ByBlock
 70
     0
  3

 72
    65
 73
     0
 40
0.0
  0
LTYPE
  5
15
330
5
100
AcDbSymbolTableRecord
100
AcDbLinetypeTableRecord
  2
ByLayer
 70
     0
  3

 72
    65
 73
     0
 40
0.0
  0
LTYPE
  5
16
330
5
100
AcDbSymbolTableRecord
100
AcDbLinetypeTableRecord
  2
Continuous
 70
     0
  3
Solid line
 72
    65
 73
     0
 40
0.0
  0
ENDTAB
  0
TABLE
  2
LAYER
  5
2
330
0
100
AcDbSymbolTable
 70
     1
  0
LAYER
  5
10
330
2
100
AcDbSymbolTableRecord
100
AcDbLayerTableRecord
  2
0
 70
     0
 62
     7
  6
Continuous
370
    -3
390
F
347
3E
  0
ENDTAB
  0
TABLE
  2
STYLE
  5
3
330
0
100
AcDbSymbolTable
 70
     1
  0
STYLE
  5
11
330
3
100
AcDbSymbolTableRecord
100
AcDbTextStyleTableRecord
  2
Standard
 70
     0
 40
0.0
 41
1.0
 50
0.0
 71
     0
 42
0.2
  3
txt
  4

  0
ENDTAB
  0
TABLE
  2
VIEW
  5
6
330
0
100
AcDbSymbolTable
 70
     0
  0
ENDTAB
  0
TABLE
  2
UCS
  5
7
330
0
100
AcDbSymbolTable
 70
     0
  0
ENDTAB
  0
TABLE
  2
APPID
  5
9
330
0
100
AcDbSymbolTable
 70
     1
  0
APPID
  5
12
330
9
100
AcDbSymbolTableRecord
100
AcDbRegAppTableRecord
  2
ACAD
 70
     0
  0
ENDTAB
  0
TABLE
  2
DIMSTYLE
  5
A
330
0
100
AcDbSymbolTable
 70
     1
100
AcDbDimStyleTable
  0
DIMSTYLE
105
27
330
A
100
AcDbSymbolTableRecord
100
AcDbDimStyleTableRecord
  2
Standard
 70
     0
178
     0
340
11
  0
ENDTAB
  0
TABLE
  2
BLOCK_RECORD
  5
1
330
0
100
AcDbSymbolTable
 70
    11
  0
BLOCK_RECORD
  5
1F
330
1
100
AcDbSymbolTableRecord
100
AcDbBlockTableRecord
  2
*Model_Space
340
22
 70
     0
280
     1
281
     0
  0
BLOCK_RECORD
  5
1B
330
1
100
AcDbSymbolTableRecord
100
AcDbBlockTableRecord
  2
*Paper_Space
340
1E
 70
     0
280
     1
281
     0
  0
BLOCK_RECORD
  5
23
330
1
100
AcDbSymbolTableRecord
100
AcDbBlockTableRecord
  2
*Paper_Space0
340
26
 70
     0
280
     1
281
     0
  0
BLOCK_RECORD
  5
40
330
1
100
AcDbSymbolTableRecord
100
AcDbBlockTableRecord
  2
block 2
340
0
102
{BLKREFS
331
41
102
}
 70
     0
280
     1
281
     0
  0
BLOCK_RECORD
  5
4C
330
1
100
AcDbSymbolTableRecord
100
AcDbBlockTableRecord
  2
block 3
340
0
102
{BLKREFS
331
4D
102
}
 70
     0
280
     1
281
     0
  0
BLOCK_RECORD
  5
51
330
1
100
AcDbSymbolTableRecord
100
AcDbBlockTableRecord
  2
block 4
340
0
102
{BLKREFS
331
52
102
}
 70
     0
280
     1
281
     0
  0
BLOCK_RECORD
  5
56
330
1
100
AcDbSymbolTableRecord
100
AcDbBlockTableRecord
  2
block 5
340
0
102
{BLKREFS
331
57
102
}
 70
     0
280
     1
281
     0
  0
BLOCK_RECORD
  5
5B
330
1
100
AcDbSymbolTableRecord
100
AcDbBlockTableRecord
  2
block 6
340
0
102
{BLKREFS
331
5C
102
}
 70
     0
280
     1
281
     0
  0
BLOCK_RECORD
  5
60
330
1
100
AcDbSymbolTableRecord
100
AcDbBlockTableRecord
  2
block 7
340
0
102
{BLKREFS
331
61
102
}
 70
     0
280
     1
281
     0
  0
BLOCK_RECORD
  5
65
330
1
100
AcDbSymbolTableRecord
100
AcDbBlockTableRecord
  2
block 8
340
0
102
{BLKREFS
331
66
102
}
 70
     0
280
     1
281
     0
  0
BLOCK_RECORD
  5
6A
330
1
100
AcDbSymbolTableRecord
100
AcDbBlockTableRecord
  2
block 9
340
0
102
{BLKREFS
331
6B
102
}
 70
     0
280
     1
281
     0
  0
BLOCK_RECORD
  5
70
330
1
100
AcDbSymbolTableRecord
100
AcDbBlockTableRecord
  2
block 10
340
0
102
{BLKREFS
331
71
102
}
 70
     0
280
     1
281
     0
  0
BLOCK_RECORD
  5
76
330
1
100
AcDbSymbolTableRecord
100
AcDbBlockTableRecord
  2
block 11
340
0
102
{BLKREFS
331
77
102
}
 70
     0
280
     1
281
     0
  0
ENDTAB
  0
ENDSEC
  0
SECTION
  2
BLOCKS
  0
BLOCK
  5
20
330
1F
100
AcDbEntity
  8
0
100
AcDbBlockBegin
  2
*Model_Space
 70
     0
 10
0.0
 20
0.0
 30
0.0
  3
*Model_Space
  1

  0
ENDBLK
  5
21
330
1F
100
AcDbEntity
  8
0
100
AcDbBlockEnd
  0
BLOCK
  5
1C
330
1B
100
AcDbEntity
 67
     1
  8
0
100
AcDbBlockBegin
  2
*Paper_Space
 70
     0
 10
0.0
 20
0.0
 30
0.0
  3
*Paper_Space
  1

  0
ENDBLK
  5
1D
330
1B
100
AcDbEntity
 67
     1
  8
0
100
AcDbBlockEnd
  0
BLOCK
  5
24
330
23
100
AcDbEntity
  8
0
100
AcDbBlockBegin
  2
*Paper_Space0
 70
     0
 10
0.0
 20
0.0
 30
0.0
  3
*Paper_Space0
  1

  0
ENDBLK
  5
25
330
23
100
AcDbEntity
  8
0
100
AcDbBlockEnd
  0
BLOCK
  5
42
330
40
100
AcDbEntity
  8
0
100
AcDbBlockBegin
  2
block 2
 70
     0
 10
0.0
 20
0.0
 30
0.0
  3
block 2
  1

  0
POLYLINE
  5
44
330
40
100
AcDbEntity
  8
0
 62
     7
420
 16777215
370
     5
100
AcDb2dPolyline
 66
     1
 10
0.0
 20
0.0
 30
0.0
  0
VERTEX
  5
45
330
44
100
AcDbEntity
  8
0
 62
     7
420
 16777215
370
     5
100
AcDbVertex
100
AcDb2dVertex
 10
98.39677775166163
 20
152.3788332964612
 30
0.0
  0
VERTEX
  5
46
330
44
100
AcDbEntity
  8
0
 62
     7
420
 16777215
370
     5
100
AcDbVertex
100
AcDb2dVertex
 10
98.39677775133116
 20
145.0128332964607
 30
0.0
  0
VERTEX
  5
47
330
44
100
AcDbEntity
  8
0
 62
     7
420
 16777215
370
     5
100
AcDbVertex
100
AcDb2dVertex
 10
111.8587777513307
 20
145.0128332958562
 30
0.0
  0
VERTEX
  5
48
330
44
100
AcDbEntity
  8
0
 62
     7
420
 16777215
370
     5
100
AcDbVertex
100
AcDb2dVertex
 10
111.8587777516618
 20
152.3788332958571
 30
0.0
  0
VERTEX
  5
49
330
44
100
AcDbEntity
  8
0
 62
     7
420
 16777215
370
     5
100
AcDbVertex
100
AcDb2dVertex
 10
98.39677775166163
 20
152.3788332964612
 30
0.0
  0
SEQEND
  5
4B
330
44
100
AcDbEntity
  8
0
 62
     7
420
 16777215
370
     5
  0
HATCH
  5
4A
330
40
100
AcDbEntity
  8
0
 62
     7
420
 16777215
100
AcDbHatch
 10
0.0
 20
0.0
 30
0.0
210
0.0
220
0.0
230
1.0
  2
SOLID
 70
     1
 71
     0
 91
        1
 92
        1
 93
        4
 72
     1
 10
98.39677775166163
 20
152.3788332964612
 11
98.39677775133116
 21
145.0128332964607
 72
     1
 10
98.39677775133116
 20
145.0128332964607
 11
111.8587777513307
 21
145.0128332958562
 72
     1
 10
111.8587777513307
 20
145.0128332958562
 11
111.8587777516618
 21
152.3788332958571
 72
     1
 10
111.8587777516618
 20
152.3788332958571
 11
98.39677775166163
 21
152.3788332964612
 97
        0
 75
     2
 76
     1
 98
        0
  0
ENDBLK
  5
43
330
40
100
AcDbEntity
  8
0
100
AcDbBlockEnd
  0
BLOCK
  5
4E
330
4C
100
AcDbEntity
  8
0
100
AcDbBlockBegin
  2
block 3
 70
     0
 10
0.0
 20
0.0
 30
0.0
  3
block 3
  1

  0
SPLINE
  5
50
330
4C
100
AcDbEntity
  8
0
 62
     7
420
 16777215
370
     5
100
AcDbSpline
210
0.0
220
0.0
230
1.0
 70
    11
 71
     3
 72
   182
 73
   178
 74
     0
 42
0.0000000001
 43
0.0000000001
 12
1.0
 22
0.0
 32
0.0
 13
1.0
 23
0.0
 33
0.0
 40
0.0
 40
0.0
 40
0.0
 40
0.0
 40
1.0
 40
1.0
 40
1.0
 40
2.0
 40
2.0
 40
2.0
 40
3.0
 40
3.0
 40
3.0
 40
4.0
 40
4.0
 40
4.0
 40
5.0
 40
5.0
 40
5.0
 40
6.0
 40
6.0
 40
6.0
 40
7.0
 40
7.0
 40
7.0
 40
8.0
 40
8.0
 40
8.0
 40
9.0
 40
9.0
 40
9.0
 40
10.0
 40
10.0
 40
10.0
 40
11.0
 40
11.0
 40
11.0
 40
12.0
 40
12.0
 40
12.0
 40
13.0
 40
13.0
 40
13.0
 40
14.0
 40
14.0
 40
14.0
 40
15.0
 40
15.0
 40
15.0
 40
16.0
 40
16.0
 40
16.0
 40
17.0
 40
17.0
 40
17.0
 40
18.0
 40
18.0
 40
18.0
 40
19.0
 40
19.0
 40
19.0
 40
20.0
 40
20.0
 40
20.0
 40
21.0
 40
21.0
 40
21.0
 40
22.0
 40
22.0
 40
22.0
 40
23.0
 40
23.0
 40
23.0
 40
24.0
 40
24.0
 40
24.0
 40
25.0
 40
25.0
 40
25.0
 40
26.0
 40
26.0
 40
26.0
 40
27.0
 40
27.0
 40
27.0
 40
28.0
 40
28.0
 40
28.0
 40
29.0
 40
29.0
 40
29.0
 40
30.0
 40
30.0
 40
30.0
 40
31.0
 40
31.0
 40
31.0
 40
32.0
 40
32.0
 40
32.0
 40
33.0
 40
33.0
 40
33.0
 40
34.0
 40
34.0
 40
34.0
 40
35.0
 40
35.0
 40
35.0
 40
36.0
 40
36.0
 40
36.0
 40
37.0
 40
37.0
 40
37.0
 40
38.0
 40
38.0
 40
38.0
 40
39.0
 40
39.0
 40
39.0
 40
40.0
 40
40.0
 40
40.0
 40
41.0
 40
41.0
 40
41.0
 40
42.0
 40
42.0
 40
42.0
 40
43.0
 40
43.0
 40
43.0
 40
44.0
 40
44.0
 40
44.0
 40
45.0
 40
45.0
 40
45.0
 40
46.0
 40
46.0
 40
46.0
 40
47.0
 40
47.0
 40
47.0
 40
48.0
 40
48.0
 40
48.0
 40
49.0
 40
49.0
 40
49.0
 40
50.0
 40
50.0
 40
50.0
 40
51.0
 40
51.0
 40
51.0
 40
52.0
 40
52.0
 40
52.0
 40
53.0
 40
53.0
 40
53.0
 40
54.0
 40
54.0
 40
54.0
 40
55.0
 40
55.0
 40
55.0
 40
56.0
 40
56.0
 40
56.0
 40
57.0
 40
57.0
 40
57.0
 40
58.0
 40
58.0
 40
58.0
 40
59.0
 40
59.0
 40
59.0
 40
59.0
 10
109.7650669534332
 20
147.2883912579507
 30
0.0
 10
109.7469442844334
 20
147.2887105789523
 30
0.0
 10
109.7288216161356
 20
147.2890298994072
 30
0.0
 10
109.7108758682794
 20
147.2912137100525
 30
0.0
 10
109.6957904045431
 20
147.2930494539035
 30
0.0
 10
109.6808299587133
 20
147.2962027089355
 30
0.0
 10
109.6662811210813
 20
147.3008100478652
 30
0.0
 10
109.6542708803281
 20
147.3046134616617
 30
0.0
 10
109.6425411382709
 20
147.309407790218
 30
0.0
 10
109.6318472024585
 20
147.3160512907156
 30
0.0
 10
109.6223010814259
 20
147.3219817227788
 30
0.0
 10
109.6135803466832
 20
147.3293856747961
 30
0.0
 10
109.6064451312778
 20
147.3380664188509
 30
0.0
 10
109.5989843274997
 20
147.3471432755898
 30
0.0
 10
109.5932570427031
 20
147.3576161059892
 30
0.0
 10
109.5889459273366
 20
147.3685489042336
 30
0.0
 10
109.5837901693394
 20
147.3816236789006
 30
0.0
 10
109.5806598587616
 20
147.3953563131879
 30
0.0
 10
109.5782206084298
 20
147.4091922181729
 30
0.0
 10
109.5751892037021
 20
147.4263869387178
 30
0.0
 10
109.5732251100403
 20
147.4437411561488
 30
0.0
 10
109.5725757037591
 20
147.4611253410302
 30
0.0
 10
109.5717932661544
 20
147.4820706881434
 30
0.0
 10
109.5729193144426
 20
147.5030595379595
 30
0.0
 10
109.5740453634443
 20
147.5240483879591
 30
0.0
 10
109.5740453634443
 20
147.5240483879591
 30
0.0
 10
109.5737046845406
 20
149.6823953369594
 30
0.0
 10
109.5737046845406
 20
149.6823953369594
 30
0.0
 10
109.5733653965415
 20
149.6985946219596
 30
0.0
 10
109.573026108661
 20
149.714793907097
 30
0.0
 10
109.5742691752545
 20
149.7309415170139
 30
0.0
 10
109.5753550970789
 20
149.7450477942841
 30
0.0
 10
109.5776485883383
 20
149.7591146357525
 30
0.0
 10
109.5816075513071
 20
149.7727138115757
 30
0.0
 10
109.5851501232507
 20
149.7848826697097
 30
0.0
 10
109.59002625267
 20
149.7966770639522
 30
0.0
 10
109.5962843034283
 20
149.8077122207448
 30
0.0
 10
109.6022044046182
 20
149.8181514529228
 30
0.0
 10
109.6093612031292
 20
149.8279112347628
 30
0.0
 10
109.6177349413406
 20
149.8365012344405
 30
0.0
 10
109.6260838008904
 20
149.8450657129357
 30
0.0
 10
109.6356423797443
 20
149.8524673498681
 30
0.0
 10
109.6459594647892
 20
149.8585163625588
 30
0.0
 10
109.6571113033905
 20
149.8650547998137
 30
0.0
 10
109.669149354877
 20
149.8700128768236
 30
0.0
 10
109.6815223641422
 20
149.873757605285
 30
0.0
 10
109.6953292828899
 20
149.8779363107636
 30
0.0
 10
109.7095532946647
 20
149.8806041415845
 30
0.0
 10
109.7238591492542
 20
149.8822249626589
 30
0.0
 10
109.7401811340959
 20
149.8840742067456
 30
0.0
 10
109.7566096555498
 20
149.8845605349515
 30
0.0
 10
109.7730381765501
 20
149.8850468639506
 30
0.0
 10
109.7730381765501
 20
149.8850468639506
 30
0.0
 10
110.1997246145499
 20
149.8844829239316
 30
0.0
 10
110.1997246145499
 20
149.8844829239316
 30
0.0
 10
110.2262989815502
 20
149.8837441349304
 30
0.0
 10
110.2528733474583
 20
149.8830053462096
 30
0.0
 10
110.2793177703698
 20
149.8805314909241
 30
0.0
 10
110.3049098795755
 20
149.8781373689256
 30
0.0
 10
110.3303802870227
 20
149.8741182216768
 30
0.0
 10
110.3555239843911
 20
149.8686771912396
 30
0.0
 10
110.3799454009512
 20
149.8633924604829
 30
0.0
 10
110.4040586080587
 20
149.8567663635813
 30
0.0
 10
110.4277787637791
 20
149.8489200247579
 30
0.0
 10
110.4512136508838
 20
149.8411680493204
 30
0.0
 10
110.4742648837578
 20
149.832225005761
 30
0.0
 10
110.4966466010658
 20
149.8218244820678
 30
0.0
 10
110.5191820972254
 20
149.8113524991305
 30
0.0
 10
110.5410388460865
 20
149.7994029393356
 30
0.0
 10
110.5621274954135
 20
149.7862615824536
 30
0.0
 10
110.5835785274843
 20
149.7728944073648
 30
0.0
 10
110.6042348355064
 20
149.7582941241108
 30
0.0
 10
110.6242214471221
 20
149.7427958162495
 30
0.0
 10
110.6446938115119
 20
149.7269208389362
 30
0.0
 10
110.664463531439
 20
149.7101036555551
 30
0.0
 10
110.6829284556338
 20
149.6919916746505
 30
0.0
 10
110.7021199845859
 20
149.6731669774987
 30
0.0
 10
110.7199020085394
 20
149.652943575908
 30
0.0
 10
110.7376840315387
 20
149.6327201749074
 30
0.0
 10
110.763857693537
 20
149.5995827949063
 30
0.0
 10
110.7900313561243
 20
149.5664454147731
 30
0.0
 10
110.8138902446893
 20
149.531676381378
 30
0.0
 10
110.8376158583251
 20
149.4971015666053
 30
0.0
 10
110.859052486207
 20
149.460913276376
 30
0.0
 10
110.8788066487672
 20
149.4238587016545
 30
0.0
 10
110.8987031709726
 20
149.3865370907529
 30
0.0
 10
110.9168928908888
 20
149.3483366644991
 30
0.0
 10
110.9329977336913
 20
149.30926713612
 30
0.0
 10
110.9493523131686
 20
149.2695917592875
 30
0.0
 10
110.963556854103
 20
149.2290201171284
 30
0.0
 10
110.9758990090828
 20
149.1879016858378
 30
0.0
 10
110.9887895874615
 20
149.1449561579107
 30
0.0
 10
110.9996485925019
 20
149.101414168108
 30
0.0
 10
111.0086394563603
 20
149.0575043870711
 30
0.0
 10
111.0182402223911
 20
149.0106159522225
 30
0.0
 10
111.0257107970375
 20
148.9633081348759
 30
0.0
 10
111.0317835656108
 20
148.9158172799046
 30
0.0
 10
111.0382581594425
 20
148.8651840319955
 30
0.0
 10
111.0431438461232
 20
148.8143427224713
 30
0.0
 10
111.0458958273216
 20
148.7634048529455
 30
0.0
 10
111.0488297802695
 20
148.7090987724425
 30
0.0
 10
111.0493385204949
 20
148.6546829398934
 30
0.0
 10
111.0498472604918
 20
148.6002671078933
 30
0.0
 10
111.0496636584899
 20
148.5592362648935
 30
0.0
 10
111.0494800558668
 20
148.5182054219674
 30
0.0
 10
111.0481537895726
 20
148.4772081855567
 30
0.0
 10
111.0469353079138
 20
148.4395427628224
 30
0.0
 10
111.0447523424329
 20
148.4019057062132
 30
0.0
 10
111.0419443939936
 20
148.3643100909896
 30
0.0
 10
111.0393526668304
 20
148.3296094619337
 30
0.0
 10
111.03622850236
 20
148.2949441377449
 30
0.0
 10
111.031783565691
 20
148.2604438450783
 30
0.0
 10
111.0277163314133
 20
148.2288751674227
 30
0.0
 10
111.0225432498888
 20
148.1974446662483
 30
0.0
 10
111.0165423232288
 20
148.1661739371863
 30
0.0
 10
111.0108017119332
 20
148.1362597071598
 30
0.0
 10
111.0043035202122
 20
148.1064916883262
 30
0.0
 10
110.9967851569595
 20
148.0769844426669
 30
0.0
 10
110.9890953515942
 20
148.0468043398491
 30
0.0
 10
110.9803383180467
 20
148.0168970386835
 30
0.0
 10
110.9708185952363
 20
147.9872304583737
 30
0.0
 10
110.9611775091584
 20
147.9571856703013
 30
0.0
 10
110.9507541633984
 20
147.9273877799231
 30
0.0
 10
110.9392071290445
 20
147.8980409639827
 30
0.0
 10
110.9273853710458
 20
147.8679959372265
 30
0.0
 10
110.9143858194581
 20
147.8384237038987
 30
0.0
 10
110.9013862674559
 20
147.8088514698997
 30
0.0
 10
110.8910920254555
 20
147.7870887149007
 30
0.0
 10
110.8807977836284
 20
147.7653259596694
 30
0.0
 10
110.8697748012692
 20
147.743935065696
 30
0.0
 10
110.8592449049824
 20
147.7235010408845
 30
0.0
 10
110.8480500067932
 20
147.703406352824
 30
0.0
 10
110.8364698638156
 20
147.6835345854796
 30
0.0
 10
110.8254492830357
 20
147.6646230385603
 30
0.0
 10
110.8140797886594
 20
147.6459133894224
 30
0.0
 10
110.8020359452647
 20
147.6276500293777
 30
0.0
 10
110.790513296329
 20
147.610177011896
 30
0.0
 10
110.7783734001052
 20
147.5931124931643
 30
0.0
 10
110.7659085550913
 20
147.5762813970373
 30
0.0
 10
110.7539394943505
 20
147.5601197510936
 30
0.0
 10
110.7416708201635
 20
147.5441733284499
 30
0.0
 10
110.7286521838926
 20
147.5288641974268
 30
0.0
 10
110.7162325507477
 20
147.5142594579519
 30
0.0
 10
110.7031303811433
 20
147.5002347141547
 30
0.0
 10
110.6897023415481
 20
147.4865274125208
 30
0.0
 10
110.676748774292
 20
147.4733044507938
 30
0.0
 10
110.6634919590609
 20
147.4603768942788
 30
0.0
 10
110.649623518433
 20
147.4481420604282
 30
0.0
 10
110.6361843020461
 20
147.4362858911594
 30
0.0
 10
110.6221707336565
 20
147.4250802289706
 30
0.0
 10
110.607851223972
 20
147.4142726321753
 30
0.0
 10
110.5939244330337
 20
147.4037614383969
 30
0.0
 10
110.5797082518314
 20
147.3936267751879
 30
0.0
 10
110.5649499479998
 20
147.3843546370991
 30
0.0
 10
110.550329817555
 20
147.37516930863
 30
0.0
 10
110.535177668117
 20
147.3668304302467
 30
0.0
 10
110.5197907108232
 20
147.3589525660718
 30
0.0
 10
110.5042655716041
 20
147.3510039550681
 30
0.0
 10
110.488501388229
 20
147.3435246756882
 30
0.0
 10
110.4723735112686
 20
147.3369374375631
 30
0.0
 10
110.4562898837422
 20
147.3303682725885
 30
0.0
 10
110.4398445555988
 20
147.3246862606646
 30
0.0
 10
110.4232628405682
 20
147.3194382333638
 30
0.0
 10
110.4064926633901
 20
147.3141305587654
 30
0.0
 10
110.3895829814529
 20
147.3092667898947
 30
0.0
 10
110.3724586980285
 20
147.305325971773
 30
0.0
 10
110.3549462794134
 20
147.3012958319478
 30
0.0
 10
110.3372094208423
 20
147.2982309558157
 30
0.0
 10
110.3193965933341
 20
147.2957296339243
 30
0.0
 10
110.3012128269918
 20
147.293176223873
 30
0.0
 10
110.2829498947743
 20
147.2912100836418
 30
0.0
 10
110.2646410183429
 20
147.2900847290983
 30
0.0
 10
110.2458052686522
 20
147.2889269903067
 30
0.0
 10
110.2269208924329
 20
147.2886591239311
 30
0.0
 10
110.2080365164331
 20
147.2883912579315
 30
0.0
 10
110.2080365164331
 20
147.2883912579315
 30
0.0
 10
109.7650669534332
 20
147.2883912579507
 30
0.0
 10
109.7650669534332
 20
147.2883912579507
 30
0.0
  0
ENDBLK
  5
4F
330
4C
100
AcDbEntity
  8
0
100
AcDbBlockEnd
  0
BLOCK
  5
53
330
51
100
AcDbEntity
  8
0
100
AcDbBlockBegin
  2
block 4
 70
     0
 10
0.0
 20
0.0
 30
0.0
  3
block 4
  1

  0
SPLINE
  5
55
330
51
100
AcDbEntity
  8
0
 62
     7
420
 16777215
370
     5
100
AcDbSpline
210
0.0
220
0.0
230
1.0
 70
    11
 71
     3
 72
   224
 73
   220
 74
     0
 42
0.0000000001
 43
0.0000000001
 12
1.0
 22
0.0
 32
0.0
 13
1.0
 23
0.0
 33
0.0
 40
0.0
 40
0.0
 40
0.0
 40
0.0
 40
1.0
 40
1.0
 40
1.0
 40
2.0
 40
2.0
 40
2.0
 40
3.0
 40
3.0
 40
3.0
 40
4.0
 40
4.0
 40
4.0
 40
5.0
 40
5.0
 40
5.0
 40
6.0
 40
6.0
 40
6.0
 40
7.0
 40
7.0
 40
7.0
 40
8.0
 40
8.0
 40
8.0
 40
9.0
 40
9.0
 40
9.0
 40
10.0
 40
10.0
 40
10.0
 40
11.0
 40
11.0
 40
11.0
 40
12.0
 40
12.0
 40
12.0
 40
13.0
 40
13.0
 40
13.0
 40
14.0
 40
14.0
 40
14.0
 40
15.0
 40
15.0
 40
15.0
 40
16.0
 40
16.0
 40
16.0
 40
17.0
 40
17.0
 40
17.0
 40
18.0
 40
18.0
 40
18.0
 40
19.0
 40
19.0
 40
19.0
 40
20.0
 40
20.0
 40
20.0
 40
21.0
 40
21.0
 40
21.0
 40
22.0
 40
22.0
 40
22.0
 40
23.0
 40
23.0
 40
23.0
 40
24.0
 40
24.0
 40
24.0
 40
25.0
 40
25.0
 40
25.0
 40
26.0
 40
26.0
 40
26.0
 40
27.0
 40
27.0
 40
27.0
 40
28.0
 40
28.0
 40
28.0
 40
29.0
 40
29.0
 40
29.0
 40
30.0
 40
30.0
 40
30.0
 40
31.0
 40
31.0
 40
31.0
 40
32.0
 40
32.0
 40
32.0
 40
33.0
 40
33.0
 40
33.0
 40
34.0
 40
34.0
 40
34.0
 40
35.0
 40
35.0
 40
35.0
 40
36.0
 40
36.0
 40
36.0
 40
37.0
 40
37.0
 40
37.0
 40
38.0
 40
38.0
 40
38.0
 40
39.0
 40
39.0
 40
39.0
 40
40.0
 40
40.0
 40
40.0
 40
41.0
 40
41.0
 40
41.0
 40
42.0
 40
42.0
 40
42.0
 40
43.0
 40
43.0
 40
43.0
 40
44.0
 40
44.0
 40
44.0
 40
45.0
 40
45.0
 40
45.0
 40
46.0
 40
46.0
 40
46.0
 40
47.0
 40
47.0
 40
47.0
 40
48.0
 40
48.0
 40
48.0
 40
49.0
 40
49.0
 40
49.0
 40
50.0
 40
50.0
 40
50.0
 40
51.0
 40
51.0
 40
51.0
 40
52.0
 40
52.0
 40
52.0
 40
53.0
 40
53.0
 40
53.0
 40
54.0
 40
54.0
 40
54.0
 40
55.0
 40
55.0
 40
55.0
 40
56.0
 40
56.0
 40
56.0
 40
57.0
 40
57.0
 40
57.0
 40
58.0
 40
58.0
 40
58.0
 40
59.0
 40
59.0
 40
59.0
 40
60.0
 40
60.0
 40
60.0
 40
61.0
 40
61.0
 40
61.0
 40
62.0
 40
62.0
 40
62.0
 40
63.0
 40
63.0
 40
63.0
 40
64.0
 40
64.0
 40
64.0
 40
65.0
 40
65.0
 40
65.0
 40
66.0
 40
66.0
 40
66.0
 40
67.0
 40
67.0
 40
67.0
 40
68.0
 40
68.0
 40
68.0
 40
69.0
 40
69.0
 40
69.0
 40
70.0
 40
70.0
 40
70.0
 40
71.0
 40
71.0
 40
71.0
 40
72.0
 40
72.0
 40
72.0
 40
73.0
 40
73.0
 40
73.0
 40
73.0
 10
106.0157212584334
 20
147.2883912581188
 30
0.0
 10
105.9972445744331
 20
147.2884150971201
 30
0.0
 10
105.9787678898438
 20
147.2884389355399
 30
0.0
 10
105.9604011929266
 20
147.2900847291304
 30
0.0
 10
105.944818064983
 20
147.2914810940964
 30
0.0
 10
105.9293141126044
 20
147.2940450373243
 30
0.0
 10
105.9141129747234
 20
147.2979875957749
 30
0.0
 10
105.9016226286802
 20
147.3012270848008
 30
0.0
 10
105.8893367261856
 20
147.3053973383355
 30
0.0
 10
105.8779855845365
 20
147.3115353670286
 30
0.0
 10
105.8681538049271
 20
147.3168518142382
 30
0.0
 10
105.8590232960202
 20
147.3236445139848
 30
0.0
 10
105.8514545325679
 20
147.3318570242986
 30
0.0
 10
105.8439726444915
 20
147.3399752702132
 30
0.0
 10
105.8380168557383
 20
147.3494809201645
 30
0.0
 10
105.8333908373782
 20
147.359517057188
 30
0.0
 10
105.8278407409787
 20
147.3715579795571
 30
0.0
 10
105.8242047374599
 20
147.3843624935462
 30
0.0
 10
105.8215365370893
 20
147.3973379185892
 30
0.0
 10
105.8183596447337
 20
147.4127871063915
 30
0.0
 10
105.8165547556566
 20
147.4284785857467
 30
0.0
 10
105.8158916323936
 20
147.4441906271566
 30
0.0
 10
105.8150951010553
 20
147.4630636392966
 30
0.0
 10
105.8159459514421
 20
147.4819663191289
 30
0.0
 10
105.8167968024423
 20
147.5008689981282
 30
0.0
 10
105.8167968024423
 20
147.5008689981282
 30
0.0
 10
105.8164561235406
 20
149.6761859411282
 30
0.0
 10
105.8164561235406
 20
149.6761859411282
 30
0.0
 10
105.8161475165412
 20
149.6946343681282
 30
0.0
 10
105.8158389093654
 20
149.7130827941338
 30
0.0
 10
105.8170206142204
 20
149.7315060071278
 30
0.0
 10
105.8180079383046
 20
149.7468987524443
 30
0.0
 10
105.8200356103701
 20
149.7622738972145
 30
0.0
 10
105.8237944998145
 20
149.7772297356885
 30
0.0
 10
105.8269752240008
 20
149.7898851749759
 30
0.0
 10
105.8313955566157
 20
149.8022403772013
 30
0.0
 10
105.8373422710515
 20
149.8139216162417
 30
0.0
 10
105.8424608942442
 20
149.8239762206323
 30
0.0
 10
105.8487103943486
 20
149.8335314942555
 30
0.0
 10
105.8565349465607
 20
149.8415816485886
 30
0.0
 10
105.8643286413975
 20
149.8496000558486
 30
0.0
 10
105.8736849898989
 20
149.8561251917685
 30
0.0
 10
105.8836304892727
 20
149.8613388154361
 30
0.0
 10
105.8950738128093
 20
149.8673376275803
 30
0.0
 10
105.9072971059716
 20
149.8716001447136
 30
0.0
 10
105.919757879407
 20
149.8748865868177
 30
0.0
 10
105.9345637486293
 20
149.8787915315828
 30
0.0
 10
105.9497048960833
 20
149.8813184388947
 30
0.0
 10
105.9649171170616
 20
149.8827894529364
 30
0.0
 10
105.9831074722913
 20
149.8845484510479
 30
0.0
 10
106.0013994535493
 20
149.88479765712
 30
0.0
 10
106.0196914345493
 20
149.8850468641193
 30
0.0
 10
106.0196914345493
 20
149.8850468641193
 30
0.0
 10
107.0922045835498
 20
149.8844829240712
 30
0.0
 10
107.0922045835498
 20
149.8844829240712
 30
0.0
 10
107.1076605465498
 20
149.8845733290703
 30
0.0
 10
107.1231165094876
 20
149.8846637340412
 30
0.0
 10
107.1384928014046
 20
149.8833539432578
 30
0.0
 10
107.1519912234777
 20
149.8822041140974
 30
0.0
 10
107.1654282462876
 20
149.8799752101802
 30
0.0
 10
107.1785716248232
 20
149.876580058084
 30
0.0
 10
107.1900026828127
 20
149.8736272267098
 30
0.0
 10
107.2012116245379
 20
149.8697922303774
 30
0.0
 10
107.2118765624681
 20
149.864725758287
 30
0.0
 10
107.2215159800643
 20
149.8601464686053
 30
0.0
 10
107.2307109845579
 20
149.8545611492454
 30
0.0
 10
107.2389721049228
 20
149.8477910438949
 30
0.0
 10
107.2469244971715
 20
149.8412739456168
 30
0.0
 10
107.2540115017934
 20
149.833658960453
 30
0.0
 10
107.2598582523997
 20
149.8252114252694
 30
0.0
 10
107.2657608602943
 20
149.8166831860422
 30
0.0
 10
107.27039940329
 20
149.8073064131731
 30
0.0
 10
107.2739705138949
 20
149.7975513924146
 30
0.0
 10
107.277843927168
 20
149.7869705868675
 30
0.0
 10
107.2804615376387
 20
149.7759447838066
 30
0.0
 10
107.2818733806511
 20
149.7648109450457
 30
0.0
 10
107.2834839986886
 20
149.7521095601272
 30
0.0
 10
107.2835254255433
 20
149.7392675770623
 30
0.0
 10
107.2835668525431
 20
149.7264255930625
 30
0.0
 10
107.2835570645421
 20
149.7132086030624
 30
0.0
 10
107.283547277066
 20
149.6999916126995
 30
0.0
 10
107.2818733808
 20
149.6869112604466
 30
0.0
 10
107.2803958118918
 20
149.6753650719569
 30
0.0
 10
107.2776216008737
 20
149.6639253492994
 30
0.0
 10
107.2734060239273
 20
149.6530418319242
 30
0.0
 10
107.2695327757609
 20
149.6430421179439
 30
0.0
 10
107.264442750969
 20
149.6335119430128
 30
0.0
 10
107.2581647811661
 20
149.6248173084971
 30
0.0
 10
107.2519131137841
 20
149.6161591013527
 30
0.0
 10
107.2444834346585
 20
149.6083294480677
 30
0.0
 10
107.2361496528158
 20
149.6016731996547
 30
0.0
 10
107.22735986443
 20
149.5946527357037
 30
0.0
 10
107.217564325309
 20
149.5889376022086
 30
0.0
 10
107.2073606387849
 20
149.5841739949023
 30
0.0
 10
107.1961131963802
 20
149.5789231084989
 30
0.0
 10
107.1843698353961
 20
149.5748283718359
 30
0.0
 10
107.1723622295971
 20
149.5717552045085
 30
0.0
 10
107.1584990431727
 20
149.5682071290404
 30
0.0
 10
107.1442836320881
 20
149.5660207526131
 30
0.0
 10
107.130025444675
 20
149.5649813192962
 30
0.0
 10
107.1137164200287
 20
149.5637923782979
 30
0.0
 10
107.0973514285353
 20
149.564104052071
 30
0.0
 10
107.0809864375354
 20
149.5644157260718
 30
0.0
 10
107.0809864375354
 20
149.5644157260718
 30
0.0
 10
106.1367460305351
 20
149.5644157261142
 30
0.0
 10
106.1367460305351
 20
149.5644157261142
 30
0.0
 10
106.1367460305351
 20
149.5644157261142
 30
0.0
 10
106.1367460305056
 20
148.9096078851139
 30
0.0
 10
106.1367460305056
 20
148.9096078851139
 30
0.0
 10
106.1367460305056
 20
148.9096078851139
 30
0.0
 10
106.8195556865058
 20
148.9096078850834
 30
0.0
 10
106.8195556865058
 20
148.9096078850834
 30
0.0
 10
106.8348280215061
 20
148.9095121650826
 30
0.0
 10
106.8501003561304
 20
148.9094164460207
 30
0.0
 10
106.8652794147158
 20
148.9079144131433
 30
0.0
 10
106.8786122740352
 20
148.9065950695933
 30
0.0
 10
106.891873167412
 20
148.9041907024984
 30
0.0
 10
106.9047937474674
 20
148.9005760371667
 30
0.0
 10
106.9160511552958
 20
148.8974266613928
 30
0.0
 10
106.9270502230814
 20
148.8933585190638
 30
0.0
 10
106.937534194938
 20
148.8881572471002
 30
0.0
 10
106.9471913656246
 20
148.8833661648825
 30
0.0
 10
106.9564114811626
 20
148.8776136304155
 30
0.0
 10
106.964629737317
 20
148.8706580425374
 30
0.0
 10
106.9725728001485
 20
148.8639353667649
 30
0.0
 10
106.97957997597
 20
148.8560888585703
 30
0.0
 10
106.9855158845501
 20
148.8475139332038
 30
0.0
 10
106.9915731629481
 20
148.8387636788014
 30
0.0
 10
106.996514918454
 20
148.8292549152262
 30
0.0
 10
107.0001926363395
 20
148.8192894094873
 30
0.0
 10
107.0041498087806
 20
148.808566666226
 30
0.0
 10
107.0066435472639
 20
148.7973151317483
 30
0.0
 10
107.0080955027935
 20
148.785984472093
 30
0.0
 10
107.0097504499243
 20
148.7730697220954
 30
0.0
 10
107.0100519574991
 20
148.7600521760747
 30
0.0
 10
107.0103534654988
 20
148.7470346290747
 30
0.0
 10
107.010354441498
 20
148.7341888130747
 30
0.0
 10
107.0103554174844
 20
148.7213429975868
 30
0.0
 10
107.0086599938955
 20
148.708649277902
 30
0.0
 10
107.0071677706501
 20
148.6974769291681
 30
0.0
 10
107.0043614144246
 20
148.6864224029762
 30
0.0
 10
107.0001926368259
 20
148.6759088306489
 30
0.0
 10
106.996299549342
 20
148.6660905431846
 30
0.0
 10
106.9912182816296
 20
148.6567440265684
 30
0.0
 10
106.9849513938529
 20
148.6482487976035
 30
0.0
 10
106.9786935224437
 20
148.6397657909885
 30
0.0
 10
106.9712534400934
 20
148.6321316242392
 30
0.0
 10
106.9629362656303
 20
148.6256691786392
 30
0.0
 10
106.954127298675
 20
148.6188246102113
 30
0.0
 10
106.9443344485213
 20
148.6132944268242
 30
0.0
 10
106.9341472519395
 20
148.60873446437
 30
0.0
 10
106.9228769889779
 20
148.603689702983
 30
0.0
 10
106.9111240712079
 20
148.599832429967
 30
0.0
 10
106.8991488423872
 20
148.5968801646397
 30
0.0
 10
106.8852538384479
 20
148.5934546152025
 30
0.0
 10
106.8710595317218
 20
148.5912474996706
 30
0.0
 10
106.8568120575698
 20
148.5901062793468
 30
0.0
 10
106.8405406180639
 20
148.588802939733
 30
0.0
 10
106.8241998324915
 20
148.5888898430832
 30
0.0
 10
106.8078590474914
 20
148.5889767470837
 30
0.0
 10
106.8078590474914
 20
148.5889767470837
 30
0.0
 10
106.1367460304915
 20
148.5889767471138
 30
0.0
 10
106.1367460304915
 20
148.5889767471138
 30
0.0
 10
106.1367460304915
 20
148.5889767471138
 30
0.0
 10
106.1367460304479
 20
147.609021844114
 30
0.0
 10
106.1367460304479
 20
147.609021844114
 30
0.0
 10
106.1367460304479
 20
147.609021844114
 30
0.0
 10
107.0961560164472
 20
147.6090218440716
 30
0.0
 10
107.0961560164472
 20
147.6090218440716
 30
0.0
 10
107.1121727424473
 20
147.6091101860699
 30
0.0
 10
107.1281894684962
 20
147.6091985279835
 30
0.0
 10
107.1441377060638
 20
147.6078928629442
 30
0.0
 10
107.1580144095775
 20
147.6067567921666
 30
0.0
 10
107.171839261181
 20
147.6045653333555
 30
0.0
 10
107.1853455103519
 20
147.6011189776555
 30
0.0
 10
107.1973561368195
 20
147.5980542562473
 30
0.0
 10
107.2091148152995
 20
147.5939971734726
 30
0.0
 10
107.2203439195383
 20
147.5887001872328
 30
0.0
 10
107.23038550486
 20
147.583963376696
 30
0.0
 10
107.2400036021006
 20
147.5782350444842
 30
0.0
 10
107.2485684430614
 20
147.571200982456
 30
0.0
 10
107.2567069271171
 20
147.5645170753147
 30
0.0
 10
107.2638944068628
 20
147.5566542009009
 30
0.0
 10
107.2700190805297
 20
147.5480568733961
 30
0.0
 10
107.2762448346779
 20
147.5393176571897
 30
0.0
 10
107.2813724125536
 20
147.5298195452885
 30
0.0
 10
107.2852603232492
 20
147.5198323501567
 30
0.0
 10
107.2894918586238
 20
147.5089624581248
 30
0.0
 10
107.2922549124508
 20
147.497513209224
 30
0.0
 10
107.2937276807212
 20
147.4859629219526
 30
0.0
 10
107.2953961384852
 20
147.4728779262634
 30
0.0
 10
107.2954086454407
 20
147.4596632580627
 30
0.0
 10
107.2954211514402
 20
147.4464485890624
 30
0.0
 10
107.2954688964399
 20
147.433593817062
 30
0.0
 10
107.2955166410417
 20
147.420739045208
 30
0.0
 10
107.293727680306
 20
147.4080632370288
 30
0.0
 10
107.2921463450857
 20
147.3968585741618
 30
0.0
 10
107.2891298979877
 20
147.3857937447743
 30
0.0
 10
107.2846958327824
 20
147.3753227902897
 30
0.0
 10
107.2804996509989
 20
147.3654135926532
 30
0.0
 10
107.2750338786402
 20
147.3560362575643
 30
0.0
 10
107.2683256091908
 20
147.3476627573322
 30
0.0
 10
107.2616588516835
 20
147.3393410737803
 30
0.0
 10
107.253764927083
 20
147.3320108397136
 30
0.0
 10
107.2451815000654
 20
147.3256476285335
 30
0.0
 10
107.2357365872779
 20
147.3186457661623
 30
0.0
 10
107.2254568210151
 20
147.312814780639
 30
0.0
 10
107.214699014883
 20
147.3081484240852
 30
0.0
 10
107.202732693162
 20
147.3029578561271
 30
0.0
 10
107.1901748941953
 20
147.2992082799752
 30
0.0
 10
107.1774426436573
 20
147.2962941243617
 30
0.0
 10
107.1627533548654
 20
147.2929320421238
 30
0.0
 10
107.1478318640098
 20
147.290681938245
 30
0.0
 10
107.1328478966748
 20
147.2895202390319
 30
0.0
 10
107.1156158300441
 20
147.288184245847
 30
0.0
 10
107.0983011334336
 20
147.2882877520702
 30
0.0
 10
107.0809864374334
 20
147.2883912580714
 30
0.0
 10
107.0809864374334
 20
147.2883912580714
 30
0.0
 10
106.0157212584334
 20
147.2883912581188
 30
0.0
 10
106.0157212584334
 20
147.2883912581188
 30
0.0
  0
ENDBLK
  5
54
330
51
100
AcDbEntity
  8
0
100
AcDbBlockEnd
  0
BLOCK
  5
58
330
56
100
AcDbEntity
  8
0
100
AcDbBlockBegin
  2
block 5
 70
     0
 10
0.0
 20
0.0
 30
0.0
  3
block 5
  1

  0
SPLINE
  5
5A
330
56
100
AcDbEntity
  8
0
 62
     7
420
 16777215
370
     5
100
AcDbSpline
210
0.0
220
0.0
230
1.0
 70
    11
 71
     3
 72
   212
 73
   208
 74
     0
 42
0.0000000001
 43
0.0000000001
 12
1.0
 22
0.0
 32
0.0
 13
1.0
 23
0.0
 33
0.0
 40
0.0
 40
0.0
 40
0.0
 40
0.0
 40
1.0
 40
1.0
 40
1.0
 40
2.0
 40
2.0
 40
2.0
 40
3.0
 40
3.0
 40
3.0
 40
4.0
 40
4.0
 40
4.0
 40
5.0
 40
5.0
 40
5.0
 40
6.0
 40
6.0
 40
6.0
 40
7.0
 40
7.0
 40
7.0
 40
8.0
 40
8.0
 40
8.0
 40
9.0
 40
9.0
 40
9.0
 40
10.0
 40
10.0
 40
10.0
 40
11.0
 40
11.0
 40
11.0
 40
12.0
 40
12.0
 40
12.0
 40
13.0
 40
13.0
 40
13.0
 40
14.0
 40
14.0
 40
14.0
 40
15.0
 40
15.0
 40
15.0
 40
16.0
 40
16.0
 40
16.0
 40
17.0
 40
17.0
 40
17.0
 40
18.0
 40
18.0
 40
18.0
 40
19.0
 40
19.0
 40
19.0
 40
20.0
 40
20.0
 40
20.0
 40
21.0
 40
21.0
 40
21.0
 40
22.0
 40
22.0
 40
22.0
 40
23.0
 40
23.0
 40
23.0
 40
24.0
 40
24.0
 40
24.0
 40
25.0
 40
25.0
 40
25.0
 40
26.0
 40
26.0
 40
26.0
 40
27.0
 40
27.0
 40
27.0
 40
28.0
 40
28.0
 40
28.0
 40
29.0
 40
29.0
 40
29.0
 40
30.0
 40
30.0
 40
30.0
 40
31.0
 40
31.0
 40
31.0
 40
32.0
 40
32.0
 40
32.0
 40
33.0
 40
33.0
 40
33.0
 40
34.0
 40
34.0
 40
34.0
 40
35.0
 40
35.0
 40
35.0
 40
36.0
 40
36.0
 40
36.0
 40
37.0
 40
37.0
 40
37.0
 40
38.0
 40
38.0
 40
38.0
 40
39.0
 40
39.0
 40
39.0
 40
40.0
 40
40.0
 40
40.0
 40
41.0
 40
41.0
 40
41.0
 40
42.0
 40
42.0
 40
42.0
 40
43.0
 40
43.0
 40
43.0
 40
44.0
 40
44.0
 40
44.0
 40
45.0
 40
45.0
 40
45.0
 40
46.0
 40
46.0
 40
46.0
 40
47.0
 40
47.0
 40
47.0
 40
48.0
 40
48.0
 40
48.0
 40
49.0
 40
49.0
 40
49.0
 40
50.0
 40
50.0
 40
50.0
 40
51.0
 40
51.0
 40
51.0
 40
52.0
 40
52.0
 40
52.0
 40
53.0
 40
53.0
 40
53.0
 40
54.0
 40
54.0
 40
54.0
 40
55.0
 40
55.0
 40
55.0
 40
56.0
 40
56.0
 40
56.0
 40
57.0
 40
57.0
 40
57.0
 40
58.0
 40
58.0
 40
58.0
 40
59.0
 40
59.0
 40
59.0
 40
60.0
 40
60.0
 40
60.0
 40
61.0
 40
61.0
 40
61.0
 40
62.0
 40
62.0
 40
62.0
 40
63.0
 40
63.0
 40
63.0
 40
64.0
 40
64.0
 40
64.0
 40
65.0
 40
65.0
 40
65.0
 40
66.0
 40
66.0
 40
66.0
 40
67.0
 40
67.0
 40
67.0
 40
68.0
 40
68.0
 40
68.0
 40
69.0
 40
69.0
 40
69.0
 40
69.0
 10
102.2752855835495
 20
149.8850468642878
 30
0.0
 10
102.2752855835495
 20
149.8850468642878
 30
0.0
 10
102.94997352155
 20
149.8844829242569
 30
0.0
 10
102.94997352155
 20
149.8844829242569
 30
0.0
 10
102.9707009275499
 20
149.8833320192559
 30
0.0
 10
102.9914283330675
 20
149.8821811133319
 30
0.0
 10
103.0120674733308
 20
149.8799670009296
 30
0.0
 10
103.0319724413171
 20
149.8778316485876
 30
0.0
 10
103.0517953118788
 20
149.8747073848621
 30
0.0
 10
103.0713389721989
 20
149.8703706632157
 30
0.0
 10
103.0904193848098
 20
149.8661367358432
 30
0.0
 10
103.1092336666702
 20
149.8607471476564
 30
0.0
 10
103.127788019169
 20
149.8545649300001
 30
0.0
 10
103.146003776096
 20
149.8484955306984
 30
0.0
 10
103.1639690039227
 20
149.8416621671154
 30
0.0
 10
103.1814146141997
 20
149.8336787820506
 30
0.0
 10
103.1988686143818
 20
149.8256915576333
 30
0.0
 10
103.2158024971069
 20
149.8165532053363
 30
0.0
 10
103.2322187564686
 20
149.806583239877
 30
0.0
 10
103.2485567241686
 20
149.7966608227141
 30
0.0
 10
103.2643819939817
 20
149.7859147056552
 30
0.0
 10
103.2796359560374
 20
149.77440728327
 30
0.0
 10
103.2953161944829
 20
149.7625782826321
 30
0.0
 10
103.3103927482922
 20
149.7499448323388
 30
0.0
 10
103.3247951938165
 20
149.7365864218309
 30
0.0
 10
103.3396309066497
 20
149.7228261516134
 30
0.0
 10
103.3537513428786
 20
149.7082966472976
 30
0.0
 10
103.3671319787232
 20
149.6931206559759
 30
0.0
 10
103.3806823571243
 20
149.6777521467793
 30
0.0
 10
103.3934740463359
 20
149.6617206442762
 30
0.0
 10
103.4055173305059
 20
149.6451389658681
 30
0.0
 10
103.4174236387533
 20
149.6287458814226
 30
0.0
 10
103.4285984693188
 20
149.6118150649014
 30
0.0
 10
103.4388222684045
 20
149.5943348231058
 30
0.0
 10
103.4491054841272
 20
149.5767529931241
 30
0.0
 10
103.4584265822206
 20
149.5586153332313
 30
0.0
 10
103.4670467917681
 20
149.5401437385326
 30
0.0
 10
103.4758317104341
 20
149.5213192011296
 30
0.0
 10
103.483888700461
 20
149.502147845805
 30
0.0
 10
103.4907553913449
 20
149.4825657114252
 30
0.0
 10
103.4977672715801
 20
149.4625695322832
 30
0.0
 10
103.5035379851425
 20
149.4421450194099
 30
0.0
 10
103.5088190867207
 20
149.42160073999
 30
0.0
 10
103.5142451277559
 20
149.4004926242801
 30
0.0
 10
103.5191543132883
 20
149.3792580778443
 30
0.0
 10
103.5229313482512
 20
149.3578133173632
 30
0.0
 10
103.5268457544615
 20
149.3355886081935
 30
0.0
 10
103.5295441595882
 20
149.3131381158871
 30
0.0
 10
103.5313987048813
 20
149.2906389508944
 30
0.0
 10
103.5333190531501
 20
149.2673414705487
 30
0.0
 10
103.5343345955209
 20
149.2439918022308
 30
0.0
 10
103.5353501385196
 20
149.2206421332305
 30
0.0
 10
103.5351582675187
 20
149.1953940182306
 30
0.0
 10
103.5349663969391
 20
149.1701459035123
 30
0.0
 10
103.533092176387
 20
149.145000410627
 30
0.0
 10
103.5312869595761
 20
149.1207807069201
 30
0.0
 10
103.5279209915156
 20
149.0966562076345
 30
0.0
 10
103.5234958385865
 20
149.0727456301253
 30
0.0
 10
103.519131618275
 20
149.0491642918794
 30
0.0
 10
103.5137371813918
 20
149.0257910247316
 30
0.0
 10
103.5071256145059
 20
149.0027488121312
 30
0.0
 10
103.5006400016205
 20
148.980145566406
 30
0.0
 10
103.4929831910049
 20
148.9578608818321
 30
0.0
 10
103.4839815053741
 20
148.9361389367972
 30
0.0
 10
103.4750217386536
 20
148.9145181461804
 30
0.0
 10
103.4647295933393
 20
148.8934548661929
 30
0.0
 10
103.4534990205722
 20
148.8729160041242
 30
0.0
 10
103.4420668573736
 20
148.8520084664633
 30
0.0
 10
103.4296622745321
 20
148.8316443424505
 30
0.0
 10
103.4162426497443
 20
148.8119510334988
 30
0.0
 10
103.4026284190431
 20
148.7919721402325
 30
0.0
 10
103.38796949349
 20
148.7726836588693
 30
0.0
 10
103.3722123932415
 20
148.7543730057523
 30
0.0
 10
103.3559158044639
 20
148.7354354360612
 30
0.0
 10
103.338444555497
 20
148.7175437982396
 30
0.0
 10
103.3209733064968
 20
148.6996521592401
 30
0.0
 10
103.3209733064968
 20
148.6996521592401
 30
0.0
 10
103.3170714864964
 20
148.6996521592404
 30
0.0
 10
103.3170714864964
 20
148.6996521592404
 30
0.0
 10
103.3170714864964
 20
148.6996521592404
 30
0.0
 10
103.3010865934966
 20
148.6956659972412
 30
0.0
 10
103.3010865934966
 20
148.6956659972412
 30
0.0
 10
103.3208991714951
 20
148.6717213822401
 30
0.0
 10
103.3407117487863
 20
148.6477767668433
 30
0.0
 10
103.3592291118849
 20
148.6228467264264
 30
0.0
 10
103.3766830440629
 20
148.5993483896312
 30
0.0
 10
103.3929862556667
 20
148.574974561469
 30
0.0
 10
103.4083397826275
 20
148.5500274556077
 30
0.0
 10
103.422831361188
 20
148.5264808825373
 30
0.0
 10
103.4364768927383
 20
148.5024235926866
 30
0.0
 10
103.4489830963211
 20
148.4777726759889
 30
0.0
 10
103.4608373723692
 20
148.4544067704674
 30
0.0
 10
103.4716680070154
 20
148.4305075145538
 30
0.0
 10
103.4811590535662
 20
148.4060823864805
 30
0.0
 10
103.4905595477133
 20
148.3818902942539
 30
0.0
 10
103.4986458933743
 20
148.3571823165059
 30
0.0
 10
103.5054321435842
 20
148.33213413498
 30
0.0
 10
103.5123350176817
 20
148.3066554924176
 30
0.0
 10
103.5178927272493
 20
148.2808248525804
 30
0.0
 10
103.5223668573442
 20
148.2547989406787
 30
0.0
 10
103.5270598091608
 20
148.2275001478566
 30
0.0
 10
103.5305605976903
 20
148.199986515059
 30
0.0
 10
103.5325276860215
 20
148.1723833321651
 30
0.0
 10
103.5345613240849
 20
148.1438462896178
 30
0.0
 10
103.5349557314699
 20
148.1152135352309
 30
0.0
 10
103.5353501384686
 20
148.0865807812304
 30
0.0
 10
103.5344240204678
 20
148.0515183962308
 30
0.0
 10
103.5334979020089
 20
148.0164560112389
 30
0.0
 10
103.5302697240696
 20
147.9815855541176
 30
0.0
 10
103.5271855613154
 20
147.9482707347092
 30
0.0
 10
103.5220001560134
 20
147.9151311006119
 30
0.0
 10
103.515592971564
 20
147.8822352308169
 30
0.0
 10
103.5093301231467
 20
147.8500804134084
 30
0.0
 10
103.5018999221254
 20
147.8181585013427
 30
0.0
 10
103.4924488627749
 20
147.7868363416207
 30
0.0
 10
103.4832507305272
 20
147.7563524184176
 30
0.0
 10
103.4721384561286
 20
147.726436576225
 30
0.0
 10
103.4597084155038
 20
147.6970823572402
 30
0.0
 10
103.4477190350247
 20
147.6687687812284
 30
0.0
 10
103.4345036650137
 20
147.6409777138084
 30
0.0
 10
103.419629592089
 20
147.6141022581074
 30
0.0
 10
103.4052969905422
 20
147.588205168594
 30
0.0
 10
103.3894242537859
 20
147.5631582408756
 30
0.0
 10
103.3722123927827
 20
147.5390250257217
 30
0.0
 10
103.3557220034252
 20
147.5159034054487
 30
0.0
 10
103.3380024013836
 20
147.4936205027739
 30
0.0
 10
103.3185857983658
 20
147.4729796414391
 30
0.0
 10
103.2995407545267
 20
147.4527337668814
 30
0.0
 10
103.2788630364395
 20
147.4340676902428
 30
0.0
 10
103.2581853184389
 20
147.4154016132437
 30
0.0
 10
103.2431517584383
 20
147.4043576492434
 30
0.0
 10
103.2281181994988
 20
147.3933136854407
 30
0.0
 10
103.212461590175
 20
147.3832256570715
 30
0.0
 10
103.1976581378755
 20
147.3736873436573
 30
0.0
 10
103.1822976874242
 20
147.3650036228813
 30
0.0
 10
103.1667378620477
 20
147.3566946049091
 30
0.0
 10
103.1515788479072
 20
147.348599621972
 30
0.0
 10
103.1362305980913
 20
147.3408602862559
 30
0.0
 10
103.120449643618
 20
147.3341149861312
 30
0.0
 10
103.1053468017611
 20
147.3276595336916
 30
0.0
 10
103.089847643192
 20
147.3221145242277
 30
0.0
 10
103.0741614247672
 20
147.317180272246
 30
0.0
 10
103.0581685532834
 20
147.3121495595732
 30
0.0
 10
103.0419812367124
 20
147.3077537174407
 30
0.0
 10
103.0256152447885
 20
147.304196991576
 30
0.0
 10
103.0080856283131
 20
147.3003873819533
 30
0.0
 10
102.9903510255493
 20
147.2975404531195
 30
0.0
 10
102.9725531402692
 20
147.2951651437951
 30
0.0
 10
102.9532373204395
 20
147.2925872506229
 30
0.0
 10
102.9338469633841
 20
147.2905648538511
 30
0.0
 10
102.9144106221293
 20
147.2895202390307
 30
0.0
 10
102.8938928845165
 20
147.2884175040818
 30
0.0
 10
102.8733239034327
 20
147.2884043812608
 30
0.0
 10
102.852754922433
 20
147.2883912582613
 30
0.0
 10
102.852754922433
 20
147.2883912582613
 30
0.0
 10
102.274842921433
 20
147.288391258287
 30
0.0
 10
102.274842921433
 20
147.288391258287
 30
0.0
 10
102.257882357433
 20
147.2886851672879
 30
0.0
 10
102.2409217939688
 20
147.2889790774785
 30
0.0
 10
102.2240387787509
 20
147.2906492200362
 30
0.0
 10
102.2095564335369
 20
147.2920818776979
 30
0.0
 10
102.1951311506843
 20
147.2945272090674
 30
0.0
 10
102.1811375032767
 20
147.2985520863765
 30
0.0
 10
102.1691999345206
 20
147.3019855907519
 30
0.0
 10
102.1575764795665
 20
147.3065685771376
 30
0.0
 10
102.146703584412
 20
147.3126643480251
 30
0.0
 10
102.1371703872526
 20
147.318009031743
 30
0.0
 10
102.1282141850932
 20
147.3245166728852
 30
0.0
 10
102.120737022975
 20
147.3324215143406
 30
0.0
 10
102.1130949483236
 20
147.3405007010101
 30
0.0
 10
102.106997875114
 20
147.3500393995502
 30
0.0
 10
102.1021088373204
 20
147.3600815474148
 30
0.0
 10
102.0965863207323
 20
147.3714248690466
 30
0.0
 10
102.092605174265
 20
147.3834105573968
 30
0.0
 10
102.0896900471823
 20
147.3956444470014
 30
0.0
 10
102.0862056474361
 20
147.410267398461
 30
0.0
 10
102.0842442692959
 20
147.4252449549852
 30
0.0
 10
102.0834806519244
 20
147.4402391938722
 30
0.0
 10
102.0825833576976
 20
147.4578582849165
 30
0.0
 10
102.0833398834412
 20
147.4755004102958
 30
0.0
 10
102.0840964094431
 20
147.4931425352952
 30
0.0
 10
102.0840964094431
 20
147.4931425352952
 30
0.0
 10
102.0840451425408
 20
149.6874757512958
 30
0.0
 10
102.0840451425408
 20
149.6874757512958
 30
0.0
 10
102.0840623545415
 20
149.7038895202958
 30
0.0
 10
102.0840795665736
 20
149.7203032895059
 30
0.0
 10
102.0857386140785
 20
149.7365864221611
 30
0.0
 10
102.0871739370411
 20
149.7506737548913
 30
0.0
 10
102.0898381450438
 20
149.7646633084525
 30
0.0
 10
102.0936414806509
 20
149.778358716882
 30
0.0
 10
102.0968865126207
 20
149.7900437330859
 30
0.0
 10
102.1009607861078
 20
149.801514622836
 30
0.0
 10
102.1066247615215
 20
149.8122281448894
 30
0.0
 10
102.1116149038839
 20
149.821667098336
 30
0.0
 10
102.1178389999127
 20
149.8305181700983
 30
0.0
 10
102.1252529471446
 20
149.8381947063299
 30
0.0
 10
102.1327187609565
 20
149.8459249461659
 30
0.0
 10
102.141391132155
 20
149.8524641593283
 30
0.0
 10
102.1506550179582
 20
149.8579518730028
 30
0.0
 10
102.1611321283779
 20
149.8641582731404
 30
0.0
 10
102.1723658314671
 20
149.8690197245698
 30
0.0
 10
102.1839599555774
 20
149.8726286248279
 30
0.0
 10
102.1975375694844
 20
149.8768549254841
 30
0.0
 10
102.2116094726058
 20
149.8793634502727
 30
0.0
 10
102.2257322505293
 20
149.8810959815786
 30
0.0
 10
102.2422038916394
 20
149.8831166629227
 30
0.0
 10
102.2587447375498
 20
149.884081763288
 30
0.0
 10
102.2752855835495
 20
149.8850468642878
 30
0.0
  0
ENDBLK
  5
59
330
56
100
AcDbEntity
  8
0
100
AcDbBlockEnd
  0
BLOCK
  5
5D
330
5B
100
AcDbEntity
  8
0
100
AcDbBlockBegin
  2
block 6
 70
     0
 10
0.0
 20
0.0
 30
0.0
  3
block 6
  1

  0
SPLINE
  5
5F
330
5B
100
AcDbEntity
  8
0
 62
     7
420
 16777215
370
     5
100
AcDbSpline
210
0.0
220
0.0
230
1.0
 70
    11
 71
     3
 72
   149
 73
   145
 74
     0
 42
0.0000000001
 43
0.0000000001
 12
1.0
 22
0.0
 32
0.0
 13
1.0
 23
0.0
 33
0.0
 40
0.0
 40
0.0
 40
0.0
 40
0.0
 40
1.0
 40
1.0
 40
1.0
 40
2.0
 40
2.0
 40
2.0
 40
3.0
 40
3.0
 40
3.0
 40
4.0
 40
4.0
 40
4.0
 40
5.0
 40
5.0
 40
5.0
 40
6.0
 40
6.0
 40
6.0
 40
7.0
 40
7.0
 40
7.0
 40
8.0
 40
8.0
 40
8.0
 40
9.0
 40
9.0
 40
9.0
 40
10.0
 40
10.0
 40
10.0
 40
11.0
 40
11.0
 40
11.0
 40
12.0
 40
12.0
 40
12.0
 40
13.0
 40
13.0
 40
13.0
 40
14.0
 40
14.0
 40
14.0
 40
15.0
 40
15.0
 40
15.0
 40
16.0
 40
16.0
 40
16.0
 40
17.0
 40
17.0
 40
17.0
 40
18.0
 40
18.0
 40
18.0
 40
19.0
 40
19.0
 40
19.0
 40
20.0
 40
20.0
 40
20.0
 40
21.0
 40
21.0
 40
21.0
 40
22.0
 40
22.0
 40
22.0
 40
23.0
 40
23.0
 40
23.0
 40
24.0
 40
24.0
 40
24.0
 40
25.0
 40
25.0
 40
25.0
 40
26.0
 40
26.0
 40
26.0
 40
27.0
 40
27.0
 40
27.0
 40
28.0
 40
28.0
 40
28.0
 40
29.0
 40
29.0
 40
29.0
 40
30.0
 40
30.0
 40
30.0
 40
31.0
 40
31.0
 40
31.0
 40
32.0
 40
32.0
 40
32.0
 40
33.0
 40
33.0
 40
33.0
 40
34.0
 40
34.0
 40
34.0
 40
35.0
 40
35.0
 40
35.0
 40
36.0
 40
36.0
 40
36.0
 40
37.0
 40
37.0
 40
37.0
 40
38.0
 40
38.0
 40
38.0
 40
39.0
 40
39.0
 40
39.0
 40
40.0
 40
40.0
 40
40.0
 40
41.0
 40
41.0
 40
41.0
 40
42.0
 40
42.0
 40
42.0
 40
43.0
 40
43.0
 40
43.0
 40
44.0
 40
44.0
 40
44.0
 40
45.0
 40
45.0
 40
45.0
 40
46.0
 40
46.0
 40
46.0
 40
47.0
 40
47.0
 40
47.0
 40
48.0
 40
48.0
 40
48.0
 40
48.0
 10
99.10014797244173
 20
147.4805363164302
 30
0.0
 10
99.10014797244173
 20
147.4805363164302
 30
0.0
 10
99.09958403354251
 20
149.7106198604302
 30
0.0
 10
99.09958403354251
 20
149.7106198604302
 30
0.0
 10
99.1002944215426
 20
149.7245980234298
 30
0.0
 10
99.10100481038491
 20
149.7385761866608
 30
0.0
 10
99.10297097632704
 20
149.7523921548556
 30
0.0
 10
99.10468009833649
 20
149.7644019119278
 30
0.0
 10
99.10733811577556
 20
149.7762891105239
 30
0.0
 10
99.11087384294045
 20
149.7879550548198
 30
0.0
 10
99.11406840038535
 20
149.7984953277167
 30
0.0
 10
99.1179794555688
 20
149.8088549848579
 30
0.0
 10
99.12329263319148
 20
149.8184375401065
 30
0.0
 10
99.12812286567096
 20
149.8271490820264
 30
0.0
 10
99.13411191109422
 20
149.835218372095
 30
0.0
 10
99.14079183721618
 20
149.8427106300388
 30
0.0
 10
99.14721731131064
 20
149.849917492578
 30
0.0
 10
99.15428203446199
 20
149.856590446379
 30
0.0
 10
99.16224247516955
 20
149.8619033058477
 30
0.0
 10
99.1705519528376
 20
149.8674491152728
 30
0.0
 10
99.17983741813504
 20
149.871512944989
 30
0.0
 10
99.18933801823577
 20
149.8748865869682
 30
0.0
 10
99.19946833701658
 20
149.8784838406499
 30
0.0
 10
99.20984325488072
 20
149.881296380358
 30
0.0
 10
99.22038499400631
 20
149.8827894533984
 30
0.0
 10
99.2322857206894
 20
149.8844750058448
 30
0.0
 10
99.24439905255005
 20
149.8844789654234
 30
0.0
 10
99.25651238354955
 20
149.8844829244228
 30
0.0
 10
99.26880084454953
 20
149.8844440634222
 30
0.0
 10
99.28108930570609
 20
149.8844052022343
 30
0.0
 10
99.29320426383039
 20
149.8827894530952
 30
0.0
 10
99.3041322743813
 20
149.8813320049177
 30
0.0
 10
99.31491911394647
 20
149.8785915196501
 30
0.0
 10
99.3253802209754
 20
149.8748865867497
 30
0.0
 10
99.33486672764292
 20
149.8715268208512
 30
0.0
 10
99.34408536776087
 20
149.8673739402644
 30
0.0
 10
99.35247576362774
 20
149.8619033057203
 30
0.0
 10
99.36063187880156
 20
149.8565854248813
 30
0.0
 10
99.36800535724504
 20
149.8500223526055
 30
0.0
 10
99.37449089196578
 20
149.8427106299451
 30
0.0
 10
99.38106306479936
 20
149.8353012324005
 30
0.0
 10
99.38672341196069
 20
149.8271230489262
 30
0.0
 10
99.39142560599339
 20
149.8184375398784
 30
0.0
 10
99.39665501525707
 20
149.808778201888
 30
0.0
 10
99.40069936791957
 20
149.7984913968448
 30
0.0
 10
99.40384439633779
 20
149.7879550547787
 30
0.0
 10
99.40731400395053
 20
149.7763313211331
 30
0.0
 10
99.40968908103956
 20
149.7644038862478
 30
0.0
 10
99.41118277197583
 20
149.7523921549535
 30
0.0
 10
99.41290222267162
 20
149.7385649439669
 30
0.0
 10
99.41345372354242
 20
149.7246260294158
 30
0.0
 10
99.41400522454221
 20
149.7106871144154
 30
0.0
 10
99.41400522454221
 20
149.7106871144154
 30
0.0
 10
99.41400522444594
 20
147.5728944544161
 30
0.0
 10
99.41400522444594
 20
147.5728944544161
 30
0.0
 10
99.41400522444594
 20
147.5728944544161
 30
0.0
 10
100.4204917304456
 20
147.5728944543712
 30
0.0
 10
100.4204917304456
 20
147.5728944543712
 30
0.0
 10
100.4308521784456
 20
147.5728838453701
 30
0.0
 10
100.4412126263108
 20
147.5728732358224
 30
0.0
 10
100.4515387063406
 20
147.5723299641161
 30
0.0
 10
100.4602062217668
 20
147.571873952166
 30
0.0
 10
100.4688495229743
 20
147.5710426475149
 30
0.0
 10
100.4775052678688
 20
147.5700720024041
 30
0.0
 10
100.4845319290214
 20
147.5692840408372
 30
0.0
 10
100.4915667906342
 20
147.5684042531234
 30
0.0
 10
100.4983914155748
 20
147.5666850594633
 30
0.0
 10
100.5037462824936
 20
147.5653361130622
 30
0.0
 10
100.5089717154461
 20
147.5634703793668
 30
0.0
 10
100.5141971484454
 20
147.5616046453659
 30
0.0
 10
100.5258657294452
 20
147.5561541893661
 30
0.0
 10
100.5375343100843
 20
147.5507037333278
 30
0.0
 10
100.5475020861981
 20
147.5429764598391
 30
0.0
 10
100.5582658221716
 20
147.5346321380293
 30
0.0
 10
100.5670462786318
 20
147.5236328577341
 30
0.0
 10
100.5745976282799
 20
147.5119294836777
 30
0.0
 10
100.5826029515754
 20
147.4995225236852
 30
0.0
 10
100.5892269424114
 20
147.486324267479
 30
0.0
 10
100.5932258137426
 20
147.472415151193
 30
0.0
 10
100.5973036950048
 20
147.4582312177847
 30
0.0
 10
100.5986516974403
 20
147.443308056362
 30
0.0
 10
100.5999996994394
 20
147.4283848943629
 30
0.0
 10
100.5982793404385
 20
147.4122694543628
 30
0.0
 10
100.5965589812811
 20
147.3961540151661
 30
0.0
 10
100.5915323428017
 20
147.3809676949501
 30
0.0
 10
100.5865486915593
 20
147.3659112464034
 30
0.0
 10
100.5783150690365
 20
147.3517680933489
 30
0.0
 10
100.5683882333253
 20
147.339195400072
 30
0.0
 10
100.5635730106792
 20
147.3330967479814
 30
0.0
 10
100.5583593849248
 20
147.327367615843
 30
0.0
 10
100.5525825002749
 20
147.3222606859366
 30
0.0
 10
100.546838297438
 20
147.3171826476799
 30
0.0
 10
100.5405371907751
 20
147.3127197915472
 30
0.0
 10
100.5339543148148
 20
147.3087129146624
 30
0.0
 10
100.52746100595
 20
147.3047605556386
 30
0.0
 10
100.5206935431735
 20
147.3012518521018
 30
0.0
 10
100.5136326581403
 20
147.2985520864343
 30
0.0
 10
100.5061383237136
 20
147.2956865891647
 30
0.0
 10
100.4983134364339
 20
147.2937323953676
 30
0.0
 10
100.4904885484336
 20
147.2917782013676
 30
0.0
 10
100.4863617324328
 20
147.290948613368
 30
0.0
 10
100.4822349163666
 20
147.2901190266299
 30
0.0
 10
100.4780697581552
 20
147.28952023915
 30
0.0
 10
100.4735837454677
 20
147.2888753252972
 30
0.0
 10
100.4690532558926
 20
147.288498138583
 30
0.0
 10
100.4645219871371
 20
147.2883912580264
 30
0.0
 10
100.4615115760176
 20
147.2883202504483
 30
0.0
 10
100.4585008209842
 20
147.2883685504163
 30
0.0
 10
100.4554901396661
 20
147.288391258047
 30
0.0
 10
100.4509741176894
 20
147.2884253194923
 30
0.0
 10
100.4464582615732
 20
147.2884017981783
 30
0.0
 10
100.4419423681879
 20
147.2883912579456
 30
0.0
 10
100.4357330148005
 20
147.2883767651279
 30
0.0
 10
100.4295235909502
 20
147.28838681467
 30
0.0
 10
100.4233141830377
 20
147.2883912581381
 30
0.0
 10
100.4159313234701
 20
147.288396541331
 30
0.0
 10
100.4085484864327
 20
147.2883938993713
 30
0.0
 10
100.4011656494331
 20
147.2883912583717
 30
0.0
 10
100.4011656494331
 20
147.2883912583717
 30
0.0
 10
99.28925283043304
 20
147.2883912584217
 30
0.0
 10
99.28925283043304
 20
147.2883912584217
 30
0.0
 10
99.27303642743308
 20
147.2891081704216
 30
0.0
 10
99.25682002425859
 20
147.2898250833994
 30
0.0
 10
99.24070665068145
 20
147.291778200862
 30
0.0
 10
99.22659398186198
 20
147.2934888109824
 30
0.0
 10
99.21256034583843
 20
147.2961476990749
 30
0.0
 10
99.19893435567114
 20
147.3002455580375
 30
0.0
 10
99.18720414256266
 20
147.3037732839735
 30
0.0
 10
99.17577603499757
 20
147.3083674283941
 30
0.0
 10
99.16506492755626
 20
147.3143578198414
 30
0.0
 10
99.15540839594998
 20
147.319758419608
 30
0.0
 10
99.1463346284747
 20
147.3262938625306
 30
0.0
 10
99.13853387554079
 20
147.3341149860311
 30
0.0
 10
99.13091934687499
 20
147.3417493989657
 30
0.0
 10
99.12451777790534
 20
147.3506088401078
 30
0.0
 10
99.1193411995349
 20
147.3600815478781
 30
0.0
 10
99.11369471235027
 20
147.3704141496871
 30
0.0
 10
99.10950570939059
 20
147.3814764113274
 30
0.0
 10
99.10635791882956
 20
147.392821995069
 30
0.0
 10
99.10272514794599
 20
147.4059155937285
 30
0.0
 10
99.10047914467293
 20
147.4193865427842
 30
0.0
 10
99.09958403314434
 20
147.4329008184671
 30
0.0
 10
99.09853495629531
 20
147.4487396422184
 30
0.0
 10
99.09934146444104
 20
147.4646379794295
 30
0.0
 10
99.10014797244173
 20
147.4805363164302
 30
0.0
  0
ENDBLK
  5
5E
330
5B
100
AcDbEntity
  8
0
100
AcDbBlockEnd
  0
BLOCK
  5
62
330
60
100
AcDbEntity
  8
0
100
AcDbBlockBegin
  2
block 7
 70
     0
 10
0.0
 20
0.0
 30
0.0
  3
block 7
  1

  0
SPLINE
  5
64
330
60
100
AcDbEntity
  8
0
 62
     7
420
 16777215
370
     5
100
AcDbSpline
210
0.0
220
0.0
230
1.0
 70
    11
 71
     3
 72
   149
 73
   145
 74
     0
 42
0.0000000001
 43
0.0000000001
 12
1.0
 22
0.0
 32
0.0
 13
1.0
 23
0.0
 33
0.0
 40
0.0
 40
0.0
 40
0.0
 40
0.0
 40
1.0
 40
1.0
 40
1.0
 40
2.0
 40
2.0
 40
2.0
 40
3.0
 40
3.0
 40
3.0
 40
4.0
 40
4.0
 40
4.0
 40
5.0
 40
5.0
 40
5.0
 40
6.0
 40
6.0
 40
6.0
 40
7.0
 40
7.0
 40
7.0
 40
8.0
 40
8.0
 40
8.0
 40
9.0
 40
9.0
 40
9.0
 40
10.0
 40
10.0
 40
10.0
 40
11.0
 40
11.0
 40
11.0
 40
12.0
 40
12.0
 40
12.0
 40
13.0
 40
13.0
 40
13.0
 40
14.0
 40
14.0
 40
14.0
 40
15.0
 40
15.0
 40
15.0
 40
16.0
 40
16.0
 40
16.0
 40
17.0
 40
17.0
 40
17.0
 40
18.0
 40
18.0
 40
18.0
 40
19.0
 40
19.0
 40
19.0
 40
20.0
 40
20.0
 40
20.0
 40
21.0
 40
21.0
 40
21.0
 40
22.0
 40
22.0
 40
22.0
 40
23.0
 40
23.0
 40
23.0
 40
24.0
 40
24.0
 40
24.0
 40
25.0
 40
25.0
 40
25.0
 40
26.0
 40
26.0
 40
26.0
 40
27.0
 40
27.0
 40
27.0
 40
28.0
 40
28.0
 40
28.0
 40
29.0
 40
29.0
 40
29.0
 40
30.0
 40
30.0
 40
30.0
 40
31.0
 40
31.0
 40
31.0
 40
32.0
 40
32.0
 40
32.0
 40
33.0
 40
33.0
 40
33.0
 40
34.0
 40
34.0
 40
34.0
 40
35.0
 40
35.0
 40
35.0
 40
36.0
 40
36.0
 40
36.0
 40
37.0
 40
37.0
 40
37.0
 40
38.0
 40
38.0
 40
38.0
 40
39.0
 40
39.0
 40
39.0
 40
40.0
 40
40.0
 40
40.0
 40
41.0
 40
41.0
 40
41.0
 40
42.0
 40
42.0
 40
42.0
 40
43.0
 40
43.0
 40
43.0
 40
44.0
 40
44.0
 40
44.0
 40
45.0
 40
45.0
 40
45.0
 40
46.0
 40
46.0
 40
46.0
 40
47.0
 40
47.0
 40
47.0
 40
48.0
 40
48.0
 40
48.0
 40
48.0
 10
103.941218234442
 20
147.480536316212
 30
0.0
 10
103.941218234442
 20
147.480536316212
 30
0.0
 10
103.940654294542
 20
149.7106198602127
 30
0.0
 10
103.940654294542
 20
149.7106198602127
 30
0.0
 10
103.9413646835428
 20
149.7245980232126
 30
0.0
 10
103.94207507185
 20
149.7385761864436
 30
0.0
 10
103.9440412375431
 20
149.7523921546381
 30
0.0
 10
103.945750359337
 20
149.7644019117106
 30
0.0
 10
103.9484083767754
 20
149.7762891103067
 30
0.0
 10
103.95194410394
 20
149.7879550546026
 30
0.0
 10
103.9551386613852
 20
149.7984953274995
 30
0.0
 10
103.9590497165686
 20
149.8088549846404
 30
0.0
 10
103.96436289438
 20
149.818437539889
 30
0.0
 10
103.9691931270301
 20
149.8271490818092
 30
0.0
 10
103.97518217278
 20
149.8352183718781
 30
0.0
 10
103.9818620990624
 20
149.8427106298216
 30
0.0
 10
103.9882875733112
 20
149.8499174923605
 30
0.0
 10
103.9953522964616
 20
149.8565904461618
 30
0.0
 10
104.0033127370145
 20
149.8619033056304
 30
0.0
 10
104.0116222145208
 20
149.8674491150553
 30
0.0
 10
104.0209076794872
 20
149.8715129447714
 30
0.0
 10
104.0304082795654
 20
149.8748865867503
 30
0.0
 10
104.0405385983225
 20
149.878483840433
 30
0.0
 10
104.0509135165126
 20
149.8812963801404
 30
0.0
 10
104.0614552555901
 20
149.8827894531812
 30
0.0
 10
104.0733559822193
 20
149.8844750056276
 30
0.0
 10
104.0854693135499
 20
149.8844789652058
 30
0.0
 10
104.0975826455498
 20
149.8844829242056
 30
0.0
 10
104.1098711065498
 20
149.884444063205
 30
0.0
 10
104.1221595677057
 20
149.8844052020168
 30
0.0
 10
104.1342745258306
 20
149.882789452878
 30
0.0
 10
104.1452025363809
 20
149.8813320047005
 30
0.0
 10
104.1559893759467
 20
149.8785915194329
 30
0.0
 10
104.1664504827876
 20
149.8748865865325
 30
0.0
 10
104.1759369892844
 20
149.871526820634
 30
0.0
 10
104.185155629077
 20
149.8673739400468
 30
0.0
 10
104.1935460247835
 20
149.8619033055028
 30
0.0
 10
104.2017021398014
 20
149.8565854246638
 30
0.0
 10
104.2090756182455
 20
149.8500223523877
 30
0.0
 10
104.2155611531235
 20
149.8427106297276
 30
0.0
 10
104.2221333261175
 20
149.8353012321829
 30
0.0
 10
104.2277936736016
 20
149.8271230487087
 30
0.0
 10
104.2324958676625
 20
149.8184375396612
 30
0.0
 10
104.2377252769579
 20
149.8087782016705
 30
0.0
 10
104.2417696292871
 20
149.7984913966276
 30
0.0
 10
104.2449146576719
 20
149.7879550545612
 30
0.0
 10
104.2483842652468
 20
149.7763313209159
 30
0.0
 10
104.2507593426631
 20
149.7644038860302
 30
0.0
 10
104.2522530337746
 20
149.7523921547362
 30
0.0
 10
104.2539724846712
 20
149.73856494375
 30
0.0
 10
104.2545239855427
 20
149.7246260291986
 30
0.0
 10
104.2550754865418
 20
149.7106871141985
 30
0.0
 10
104.2550754865418
 20
149.7106871141985
 30
0.0
 10
104.2550754864455
 20
147.5728944541979
 30
0.0
 10
104.2550754864455
 20
147.5728944541979
 30
0.0
 10
104.2550754864455
 20
147.5728944541979
 30
0.0
 10
105.2615619924458
 20
147.572894454153
 30
0.0
 10
105.2615619924458
 20
147.572894454153
 30
0.0
 10
105.2719224404458
 20
147.5728838451532
 30
0.0
 10
105.2822828883111
 20
147.5728732356042
 30
0.0
 10
105.2926089683402
 20
147.5723299638992
 30
0.0
 10
105.3012764837668
 20
147.5718739519491
 30
0.0
 10
105.3099197849739
 20
147.571042647298
 30
0.0
 10
105.3185755296437
 20
147.5700720021859
 30
0.0
 10
105.3256021906136
 20
147.5692840406203
 30
0.0
 10
105.3326370518945
 20
147.5684042529064
 30
0.0
 10
105.3394616770026
 20
147.5666850592464
 30
0.0
 10
105.3448165440536
 20
147.5653361128441
 30
0.0
 10
105.350041977445
 20
147.5634703791499
 30
0.0
 10
105.3552674104456
 20
147.561604645149
 30
0.0
 10
105.366935990445
 20
147.5561541891492
 30
0.0
 10
105.3786045710841
 20
147.5507037331109
 30
0.0
 10
105.3885723473468
 20
147.5429764596221
 30
0.0
 10
105.399336083482
 20
147.5346321378124
 30
0.0
 10
105.4081165402765
 20
147.5236328575172
 30
0.0
 10
105.4156678900973
 20
147.5119294834595
 30
0.0
 10
105.4236732135753
 20
147.4995225234684
 30
0.0
 10
105.430297204411
 20
147.4863242672609
 30
0.0
 10
105.4342960757422
 20
147.4724151509762
 30
0.0
 10
105.438373957005
 20
147.4582312175679
 30
0.0
 10
105.4397219594399
 20
147.4433080561451
 30
0.0
 10
105.441069961439
 20
147.4283848941448
 30
0.0
 10
105.4393496024388
 20
147.4122694541446
 30
0.0
 10
105.4376292427789
 20
147.3961540149492
 30
0.0
 10
105.4326026042526
 20
147.380967694732
 30
0.0
 10
105.4276189529634
 20
147.3659112461865
 30
0.0
 10
105.4193853308417
 20
147.3517680931321
 30
0.0
 10
105.4094584952613
 20
147.3391953998551
 30
0.0
 10
105.40464327268
 20
147.3330967477633
 30
0.0
 10
105.3994296469251
 20
147.3273676156248
 30
0.0
 10
105.3936527622752
 20
147.3222606857197
 30
0.0
 10
105.3879085594382
 20
147.317182647463
 30
0.0
 10
105.3816074527753
 20
147.3127197913304
 30
0.0
 10
105.3750245768144
 20
147.3087129144442
 30
0.0
 10
105.3685312679502
 20
147.3047605554217
 30
0.0
 10
105.3617638051731
 20
147.3012518518836
 30
0.0
 10
105.354702919905
 20
147.2985520862161
 30
0.0
 10
105.3472085852287
 20
147.2956865889466
 30
0.0
 10
105.3393836974337
 20
147.2937323951494
 30
0.0
 10
105.3315588104332
 20
147.2917782011495
 30
0.0
 10
105.3274319944337
 20
147.2909486131498
 30
0.0
 10
105.3233051783669
 20
147.290119026413
 30
0.0
 10
105.3191400201555
 20
147.2895202389331
 30
0.0
 10
105.3146540074679
 20
147.288875325079
 30
0.0
 10
105.3101235178929
 20
147.288498138366
 30
0.0
 10
105.3055922491373
 20
147.2883912578083
 30
0.0
 10
105.3025818380178
 20
147.2883202502301
 30
0.0
 10
105.2995710829835
 20
147.2883685501994
 30
0.0
 10
105.2965604016657
 20
147.2883912578288
 30
0.0
 10
105.2920443796896
 20
147.2884253192754
 30
0.0
 10
105.2875285235735
 20
147.2884017979601
 30
0.0
 10
105.2830126300829
 20
147.2883912577287
 30
0.0
 10
105.2768032765518
 20
147.288376764911
 30
0.0
 10
105.2705938523587
 20
147.2883868144518
 30
0.0
 10
105.2643844444681
 20
147.2883912579212
 30
0.0
 10
105.2570015849269
 20
147.2883965411128
 30
0.0
 10
105.2496187484329
 20
147.2883938991544
 30
0.0
 10
105.2422359114333
 20
147.2883912581535
 30
0.0
 10
105.2422359114333
 20
147.2883912581535
 30
0.0
 10
104.1303230924326
 20
147.2883912582035
 30
0.0
 10
104.1303230924326
 20
147.2883912582035
 30
0.0
 10
104.1141066894327
 20
147.2891081702047
 30
0.0
 10
104.0978902862582
 20
147.2898250831825
 30
0.0
 10
104.0817769126817
 20
147.2917782006438
 30
0.0
 10
104.0676642438616
 20
147.2934888107642
 30
0.0
 10
104.0536306078387
 20
147.296147698858
 30
0.0
 10
104.0400046176714
 20
147.3002455578206
 30
0.0
 10
104.0282744045623
 20
147.3037732837566
 30
0.0
 10
104.0168462969972
 20
147.3083674281771
 30
0.0
 10
104.0061351895565
 20
147.3143578196245
 30
0.0
 10
103.9964786579502
 20
147.3197584193911
 30
0.0
 10
103.9874048904749
 20
147.3262938623137
 30
0.0
 10
103.979604137541
 20
147.3341149858142
 30
0.0
 10
103.9719896088749
 20
147.3417493987488
 30
0.0
 10
103.9655880399056
 20
147.350608839891
 30
0.0
 10
103.9604114615351
 20
147.3600815476613
 30
0.0
 10
103.9547649743502
 20
147.370414149469
 30
0.0
 10
103.9505759713902
 20
147.3814764111105
 30
0.0
 10
103.9474281808298
 20
147.3928219948521
 30
0.0
 10
103.9437954099462
 20
147.4059155935103
 30
0.0
 10
103.9415494066732
 20
147.419386542566
 30
0.0
 10
103.9406542951439
 20
147.4329008182502
 30
0.0
 10
103.9396052182955
 20
147.4487396420016
 30
0.0
 10
103.9404117264413
 20
147.4646379792127
 30
0.0
 10
103.941218234442
 20
147.480536316212
 30
0.0
  0
ENDBLK
  5
63
330
60
100
AcDbEntity
  8
0
100
AcDbBlockEnd
  0
BLOCK
  5
67
330
65
100
AcDbEntity
  8
0
100
AcDbBlockBegin
  2
block 8
 70
     0
 10
0.0
 20
0.0
 30
0.0
  3
block 8
  1

  0
SPLINE
  5
69
330
65
100
AcDbEntity
  8
0
 62
     7
420
 16777215
370
     5
100
AcDbSpline
210
0.0
220
0.0
230
1.0
 70
    11
 71
     3
 72
   224
 73
   220
 74
     0
 42
0.0000000001
 43
0.0000000001
 12
1.0
 22
0.0
 32
0.0
 13
1.0
 23
0.0
 33
0.0
 40
0.0
 40
0.0
 40
0.0
 40
0.0
 40
1.0
 40
1.0
 40
1.0
 40
2.0
 40
2.0
 40
2.0
 40
3.0
 40
3.0
 40
3.0
 40
4.0
 40
4.0
 40
4.0
 40
5.0
 40
5.0
 40
5.0
 40
6.0
 40
6.0
 40
6.0
 40
7.0
 40
7.0
 40
7.0
 40
8.0
 40
8.0
 40
8.0
 40
9.0
 40
9.0
 40
9.0
 40
10.0
 40
10.0
 40
10.0
 40
11.0
 40
11.0
 40
11.0
 40
12.0
 40
12.0
 40
12.0
 40
13.0
 40
13.0
 40
13.0
 40
14.0
 40
14.0
 40
14.0
 40
15.0
 40
15.0
 40
15.0
 40
16.0
 40
16.0
 40
16.0
 40
17.0
 40
17.0
 40
17.0
 40
18.0
 40
18.0
 40
18.0
 40
19.0
 40
19.0
 40
19.0
 40
20.0
 40
20.0
 40
20.0
 40
21.0
 40
21.0
 40
21.0
 40
22.0
 40
22.0
 40
22.0
 40
23.0
 40
23.0
 40
23.0
 40
24.0
 40
24.0
 40
24.0
 40
25.0
 40
25.0
 40
25.0
 40
26.0
 40
26.0
 40
26.0
 40
27.0
 40
27.0
 40
27.0
 40
28.0
 40
28.0
 40
28.0
 40
29.0
 40
29.0
 40
29.0
 40
30.0
 40
30.0
 40
30.0
 40
31.0
 40
31.0
 40
31.0
 40
32.0
 40
32.0
 40
32.0
 40
33.0
 40
33.0
 40
33.0
 40
34.0
 40
34.0
 40
34.0
 40
35.0
 40
35.0
 40
35.0
 40
36.0
 40
36.0
 40
36.0
 40
37.0
 40
37.0
 40
37.0
 40
38.0
 40
38.0
 40
38.0
 40
39.0
 40
39.0
 40
39.0
 40
40.0
 40
40.0
 40
40.0
 40
41.0
 40
41.0
 40
41.0
 40
42.0
 40
42.0
 40
42.0
 40
43.0
 40
43.0
 40
43.0
 40
44.0
 40
44.0
 40
44.0
 40
45.0
 40
45.0
 40
45.0
 40
46.0
 40
46.0
 40
46.0
 40
47.0
 40
47.0
 40
47.0
 40
48.0
 40
48.0
 40
48.0
 40
49.0
 40
49.0
 40
49.0
 40
50.0
 40
50.0
 40
50.0
 40
51.0
 40
51.0
 40
51.0
 40
52.0
 40
52.0
 40
52.0
 40
53.0
 40
53.0
 40
53.0
 40
54.0
 40
54.0
 40
54.0
 40
55.0
 40
55.0
 40
55.0
 40
56.0
 40
56.0
 40
56.0
 40
57.0
 40
57.0
 40
57.0
 40
58.0
 40
58.0
 40
58.0
 40
59.0
 40
59.0
 40
59.0
 40
60.0
 40
60.0
 40
60.0
 40
61.0
 40
61.0
 40
61.0
 40
62.0
 40
62.0
 40
62.0
 40
63.0
 40
63.0
 40
63.0
 40
64.0
 40
64.0
 40
64.0
 40
65.0
 40
65.0
 40
65.0
 40
66.0
 40
66.0
 40
66.0
 40
67.0
 40
67.0
 40
67.0
 40
68.0
 40
68.0
 40
68.0
 40
69.0
 40
69.0
 40
69.0
 40
70.0
 40
70.0
 40
70.0
 40
71.0
 40
71.0
 40
71.0
 40
72.0
 40
72.0
 40
72.0
 40
73.0
 40
73.0
 40
73.0
 40
73.0
 10
107.894345539433
 20
147.2883912580354
 30
0.0
 10
107.875868854433
 20
147.2884150970354
 30
0.0
 10
107.8573921703845
 20
147.2884389354552
 30
0.0
 10
107.839025473504
 20
147.290084729047
 30
0.0
 10
107.8234423455899
 20
147.2914810940117
 30
0.0
 10
107.8079383928776
 20
147.2940450372396
 30
0.0
 10
107.7927372548464
 20
147.2979875956915
 30
0.0
 10
107.7802469086806
 20
147.3012270847174
 30
0.0
 10
107.7679610061854
 20
147.3053973382521
 30
0.0
 10
107.756609864537
 20
147.3115353669439
 30
0.0
 10
107.7467780849269
 20
147.3168518141534
 30
0.0
 10
107.7376475760201
 20
147.3236445139001
 30
0.0
 10
107.7300788127256
 20
147.3318570242139
 30
0.0
 10
107.7225969248064
 20
147.3399752701285
 30
0.0
 10
107.7166411363644
 20
147.3494809200798
 30
0.0
 10
107.7120151181744
 20
147.3595170571033
 30
0.0
 10
107.7064650219789
 20
147.3715579794724
 30
0.0
 10
107.7028290184601
 20
147.3843624934615
 30
0.0
 10
107.7001608180896
 20
147.3973379185045
 30
0.0
 10
107.696983925734
 20
147.4127871063081
 30
0.0
 10
107.6951790366568
 20
147.428478585662
 30
0.0
 10
107.6945159133944
 20
147.4441906270719
 30
0.0
 10
107.6937193820549
 20
147.4630636392132
 30
0.0
 10
107.6945702324417
 20
147.4819663190441
 30
0.0
 10
107.6954210824421
 20
147.5008689980448
 30
0.0
 10
107.6954210824421
 20
147.5008689980448
 30
0.0
 10
107.6950804035404
 20
149.6761859410438
 30
0.0
 10
107.6950804035404
 20
149.6761859410438
 30
0.0
 10
107.6947717965411
 20
149.6946343680441
 30
0.0
 10
107.6944631893653
 20
149.7130827940495
 30
0.0
 10
107.6956448942209
 20
149.7315060070434
 30
0.0
 10
107.6966322183045
 20
149.7468987523599
 30
0.0
 10
107.6986598903699
 20
149.7622738971301
 30
0.0
 10
107.7024187798144
 20
149.7772297356041
 30
0.0
 10
107.7055995040007
 20
149.7898851748919
 30
0.0
 10
107.7100198366155
 20
149.8022403771172
 30
0.0
 10
107.7159665512496
 20
149.8139216161573
 30
0.0
 10
107.7210851746124
 20
149.823976220548
 30
0.0
 10
107.7273346750332
 20
149.8335314941711
 30
0.0
 10
107.7351592274031
 20
149.8415816485042
 30
0.0
 10
107.7429529223984
 20
149.8496000557646
 30
0.0
 10
107.7523092708985
 20
149.8561251916841
 30
0.0
 10
107.7622547701401
 20
149.861338815352
 30
0.0
 10
107.7736980935253
 20
149.8673376274959
 30
0.0
 10
107.7859213863603
 20
149.8716001446295
 30
0.0
 10
107.7983821596173
 20
149.8748865867333
 30
0.0
 10
107.8131880286291
 20
149.8787915314984
 30
0.0
 10
107.8283291760832
 20
149.8813184388103
 30
0.0
 10
107.8435413972687
 20
149.8827894528523
 30
0.0
 10
107.8617317527467
 20
149.8845484509635
 30
0.0
 10
107.8800237345502
 20
149.8847976570356
 30
0.0
 10
107.8983157155496
 20
149.885046864035
 30
0.0
 10
107.8983157155496
 20
149.885046864035
 30
0.0
 10
108.9708288635496
 20
149.8844829239868
 30
0.0
 10
108.9708288635496
 20
149.8844829239868
 30
0.0
 10
108.9862848265496
 20
149.8845733289862
 30
0.0
 10
109.00174079002
 20
149.8846637339568
 30
0.0
 10
109.017117082186
 20
149.8833539431735
 30
0.0
 10
109.0306155044773
 20
149.882204114013
 30
0.0
 10
109.0440525272872
 20
149.8799752100962
 30
0.0
 10
109.0571959058228
 20
149.8765800579997
 30
0.0
 10
109.0686269638123
 20
149.8736272266254
 30
0.0
 10
109.0798359055381
 20
149.8697922302933
 30
0.0
 10
109.0905008434689
 20
149.8647257582029
 30
0.0
 10
109.1001402610639
 20
149.860146468521
 30
0.0
 10
109.1093352655575
 20
149.854561149161
 30
0.0
 10
109.1175963857491
 20
149.8477910438105
 30
0.0
 10
109.1255487778303
 20
149.8412739455321
 30
0.0
 10
109.1326357821244
 20
149.8336589603686
 30
0.0
 10
109.1384825327261
 20
149.825211425185
 30
0.0
 10
109.1443851406169
 20
149.8166831859581
 30
0.0
 10
109.149023683938
 20
149.8073064130887
 30
0.0
 10
109.152594794711
 20
149.7975513923303
 30
0.0
 10
109.1564682081676
 20
149.7869705867831
 30
0.0
 10
109.1590858186395
 20
149.7759447837226
 30
0.0
 10
109.1604976614325
 20
149.7648109449613
 30
0.0
 10
109.1621082792211
 20
149.7521095600428
 30
0.0
 10
109.1621497055432
 20
149.7392675769779
 30
0.0
 10
109.1621911325429
 20
149.7264255929784
 30
0.0
 10
109.1621813455417
 20
149.713208602978
 30
0.0
 10
109.1621715580669
 20
149.6999916126151
 30
0.0
 10
109.1604976616032
 20
149.6869112603622
 30
0.0
 10
109.1590200925205
 20
149.6753650718725
 30
0.0
 10
109.1562458811745
 20
149.663925349215
 30
0.0
 10
109.1520303042557
 20
149.6530418318398
 30
0.0
 10
109.1481570561136
 20
149.6430421178595
 30
0.0
 10
109.1430670316465
 20
149.6335119429281
 30
0.0
 10
109.1367890618403
 20
149.624817308413
 30
0.0
 10
109.1305373944558
 20
149.6161591012684
 30
0.0
 10
109.1231077150036
 20
149.6083294479837
 30
0.0
 10
109.1147739331442
 20
149.6016731995703
 30
0.0
 10
109.1059841447404
 20
149.5946527356193
 30
0.0
 10
109.096188605948
 20
149.5889376021242
 30
0.0
 10
109.0859849195958
 20
149.5841739948176
 30
0.0
 10
109.0747374773798
 20
149.5789231084145
 30
0.0
 10
109.0629941163963
 20
149.5748283717516
 30
0.0
 10
109.0509865104639
 20
149.5717552044244
 30
0.0
 10
109.0371233238848
 20
149.5682071289564
 30
0.0
 10
109.0229079124679
 20
149.5660207525291
 30
0.0
 10
109.0086497250952
 20
149.5649813192118
 30
0.0
 10
108.992340700495
 20
149.5637923782135
 30
0.0
 10
108.9759757095355
 20
149.5641040519866
 30
0.0
 10
108.959610718535
 20
149.5644157259871
 30
0.0
 10
108.959610718535
 20
149.5644157259871
 30
0.0
 10
108.0153703115354
 20
149.5644157260295
 30
0.0
 10
108.0153703115354
 20
149.5644157260295
 30
0.0
 10
108.0153703115354
 20
149.5644157260295
 30
0.0
 10
108.0153703115059
 20
148.9096078850295
 30
0.0
 10
108.0153703115059
 20
148.9096078850295
 30
0.0
 10
108.0153703115059
 20
148.9096078850295
 30
0.0
 10
108.6981799675054
 20
148.909607884999
 30
0.0
 10
108.6981799675054
 20
148.909607884999
 30
0.0
 10
108.7134523015059
 20
148.9095121649983
 30
0.0
 10
108.7287246366628
 20
148.9094164459364
 30
0.0
 10
108.7439036954972
 20
148.9079144130592
 30
0.0
 10
108.7572365550355
 20
148.9065950695089
 30
0.0
 10
108.7704974484122
 20
148.904190702414
 30
0.0
 10
108.7834180282668
 20
148.9005760370823
 30
0.0
 10
108.7946754359219
 20
148.8974266613087
 30
0.0
 10
108.8056745033816
 20
148.8933585189795
 30
0.0
 10
108.8161584752664
 20
148.8881572470158
 30
0.0
 10
108.8258156459799
 20
148.8833661647981
 30
0.0
 10
108.8350357618459
 20
148.8776136303311
 30
0.0
 10
108.8432540179893
 20
148.870658042453
 30
0.0
 10
108.8511970808093
 20
148.8639353666808
 30
0.0
 10
108.8582042563041
 20
148.8560888584859
 30
0.0
 10
108.8641401648778
 20
148.8475139331194
 30
0.0
 10
108.8701974432688
 20
148.8387636787167
 30
0.0
 10
108.8751391991019
 20
148.8292549151418
 30
0.0
 10
108.8788169171575
 20
148.8192894094029
 30
0.0
 10
108.8827740897801
 20
148.8085666661416
 30
0.0
 10
108.8852678282635
 20
148.7973151316639
 30
0.0
 10
108.8867197837943
 20
148.7859844720089
 30
0.0
 10
108.8883747309239
 20
148.773069722011
 30
0.0
 10
108.8886762384987
 20
148.7600521759903
 30
0.0
 10
108.8889777454986
 20
148.7470346289903
 30
0.0
 10
108.8889787214985
 20
148.7341888129907
 30
0.0
 10
108.8889796980168
 20
148.7213429975024
 30
0.0
 10
108.8872842744793
 20
148.7086492778176
 30
0.0
 10
108.8857920512801
 20
148.6974769290837
 30
0.0
 10
108.8829856947292
 20
148.6864224028918
 30
0.0
 10
108.8788169171537
 20
148.6759088305648
 30
0.0
 10
108.8749238296909
 20
148.6660905431002
 30
0.0
 10
108.8698425623038
 20
148.656744026484
 30
0.0
 10
108.8635756746908
 20
148.6482487975191
 30
0.0
 10
108.857317803444
 20
148.6397657909041
 30
0.0
 10
108.8498777210936
 20
148.6321316241551
 30
0.0
 10
108.8415605464798
 20
148.6256691785548
 30
0.0
 10
108.8327515793653
 20
148.6188246101269
 30
0.0
 10
108.8229587288836
 20
148.6132944267398
 30
0.0
 10
108.8127715322698
 20
148.6087344642856
 30
0.0
 10
108.8015012692729
 20
148.6036897028986
 30
0.0
 10
108.7897483518296
 20
148.5998324298826
 30
0.0
 10
108.7777731230506
 20
148.5968801645556
 30
0.0
 10
108.7638781191613
 20
148.5934546151178
 30
0.0
 10
108.7496838121021
 20
148.5912474995859
 30
0.0
 10
108.7354363379905
 20
148.5901062792624
 30
0.0
 10
108.7191648985309
 20
148.5888029396483
 30
0.0
 10
108.7028241134917
 20
148.5888898429991
 30
0.0
 10
108.6864833274913
 20
148.5889767469996
 30
0.0
 10
108.6864833274913
 20
148.5889767469996
 30
0.0
 10
108.0153703114917
 20
148.5889767470294
 30
0.0
 10
108.0153703114917
 20
148.5889767470294
 30
0.0
 10
108.0153703114917
 20
148.5889767470294
 30
0.0
 10
108.0153703114475
 20
147.6090218440292
 30
0.0
 10
108.0153703114475
 20
147.6090218440292
 30
0.0
 10
108.0153703114475
 20
147.6090218440292
 30
0.0
 10
108.9747802974475
 20
147.6090218439869
 30
0.0
 10
108.9747802974475
 20
147.6090218439869
 30
0.0
 10
108.9907970234476
 20
147.6091101859852
 30
0.0
 10
109.0068137494958
 20
147.6091985278988
 30
0.0
 10
109.0227619870634
 20
147.6078928628594
 30
0.0
 10
109.0366386905777
 20
147.6067567920832
 30
0.0
 10
109.0504635421813
 20
147.6045653332721
 30
0.0
 10
109.0639697913521
 20
147.6011189775721
 30
0.0
 10
109.0759804178197
 20
147.5980542561626
 30
0.0
 10
109.0877390962997
 20
147.5939971733879
 30
0.0
 10
109.0989682003461
 20
147.5887001871481
 30
0.0
 10
109.1090097854951
 20
147.5839633766113
 30
0.0
 10
109.1186278824104
 20
147.5782350443995
 30
0.0
 10
109.1271927233885
 20
147.5712009823714
 30
0.0
 10
109.1353312074603
 20
147.56451707523
 30
0.0
 10
109.142518687532
 20
147.5566542008162
 30
0.0
 10
109.1486433613631
 20
147.5480568733114
 30
0.0
 10
109.1548691156775
 20
147.539317657105
 30
0.0
 10
109.1599966935538
 20
147.5298195452038
 30
0.0
 10
109.1638846041051
 20
147.519832350072
 30
0.0
 10
109.1681161393231
 20
147.5089624580414
 30
0.0
 10
109.1708791928221
 20
147.4975132091393
 30
0.0
 10
109.1723519609187
 20
147.4859629218679
 30
0.0
 10
109.1740204184857
 20
147.4728779261787
 30
0.0
 10
109.1740329254406
 20
147.459663257978
 30
0.0
 10
109.1740454324404
 20
147.4464485889777
 30
0.0
 10
109.1740931774395
 20
147.4335938169773
 30
0.0
 10
109.1741409220413
 20
147.4207390451233
 30
0.0
 10
109.1723519613063
 20
147.4080632369441
 30
0.0
 10
109.1707706260853
 20
147.396858574077
 30
0.0
 10
109.167754178988
 20
147.3857937446896
 30
0.0
 10
109.163320113782
 20
147.3753227902062
 30
0.0
 10
109.1591239319985
 20
147.3654135925685
 30
0.0
 10
109.1536581596405
 20
147.3560362574809
 30
0.0
 10
109.1469498901911
 20
147.3476627572475
 30
0.0
 10
109.1402831326837
 20
147.3393410736969
 30
0.0
 10
109.1323892080832
 20
147.3320108396289
 30
0.0
 10
109.1238057810657
 20
147.3256476284487
 30
0.0
 10
109.1143608682782
 20
147.3186457660776
 30
0.0
 10
109.1040811020147
 20
147.3128147805542
 30
0.0
 10
109.0933232958833
 20
147.3081484240005
 30
0.0
 10
109.0813569741622
 20
147.3029578560437
 30
0.0
 10
109.0687991751955
 20
147.2992082798905
 30
0.0
 10
109.0560669245234
 20
147.296294124277
 30
0.0
 10
109.0413776355775
 20
147.2929320420391
 30
0.0
 10
109.0264561443908
 20
147.2906819381603
 30
0.0
 10
109.0114721770956
 20
147.2895202389472
 30
0.0
 10
108.9942401105092
 20
147.2881842457636
 30
0.0
 10
108.9769254144332
 20
147.2882877519868
 30
0.0
 10
108.9596107184337
 20
147.2883912579866
 30
0.0
 10
108.9596107184337
 20
147.2883912579866
 30
0.0
 10
107.894345539433
 20
147.2883912580354
 30
0.0
 10
107.894345539433
 20
147.2883912580354
 30
0.0
  0
ENDBLK
  5
68
330
65
100
AcDbEntity
  8
0
100
AcDbBlockEnd
  0
BLOCK
  5
6C
330
6A
100
AcDbEntity
  8
0
100
AcDbBlockBegin
  2
block 9
 70
     0
 10
0.0
 20
0.0
 30
0.0
  3
block 9
  1

  0
SPLINE
  5
6E
330
6A
100
AcDbEntity
  8
0
 62
     7
420
 16777215
370
     5
100
AcDbSpline
210
0.0
220
0.0
230
1.0
 70
    11
 71
     3
 72
   152
 73
   148
 74
     0
 42
0.0000000001
 43
0.0000000001
 12
1.0
 22
0.0
 32
0.0
 13
1.0
 23
0.0
 33
0.0
 40
0.0
 40
0.0
 40
0.0
 40
0.0
 40
1.0
 40
1.0
 40
1.0
 40
2.0
 40
2.0
 40
2.0
 40
3.0
 40
3.0
 40
3.0
 40
4.0
 40
4.0
 40
4.0
 40
5.0
 40
5.0
 40
5.0
 40
6.0
 40
6.0
 40
6.0
 40
7.0
 40
7.0
 40
7.0
 40
8.0
 40
8.0
 40
8.0
 40
9.0
 40
9.0
 40
9.0
 40
10.0
 40
10.0
 40
10.0
 40
11.0
 40
11.0
 40
11.0
 40
12.0
 40
12.0
 40
12.0
 40
13.0
 40
13.0
 40
13.0
 40
14.0
 40
14.0
 40
14.0
 40
15.0
 40
15.0
 40
15.0
 40
16.0
 40
16.0
 40
16.0
 40
17.0
 40
17.0
 40
17.0
 40
18.0
 40
18.0
 40
18.0
 40
19.0
 40
19.0
 40
19.0
 40
20.0
 40
20.0
 40
20.0
 40
21.0
 40
21.0
 40
21.0
 40
22.0
 40
22.0
 40
22.0
 40
23.0
 40
23.0
 40
23.0
 40
24.0
 40
24.0
 40
24.0
 40
25.0
 40
25.0
 40
25.0
 40
26.0
 40
26.0
 40
26.0
 40
27.0
 40
27.0
 40
27.0
 40
28.0
 40
28.0
 40
28.0
 40
29.0
 40
29.0
 40
29.0
 40
30.0
 40
30.0
 40
30.0
 40
31.0
 40
31.0
 40
31.0
 40
32.0
 40
32.0
 40
32.0
 40
33.0
 40
33.0
 40
33.0
 40
34.0
 40
34.0
 40
34.0
 40
35.0
 40
35.0
 40
35.0
 40
36.0
 40
36.0
 40
36.0
 40
37.0
 40
37.0
 40
37.0
 40
38.0
 40
38.0
 40
38.0
 40
39.0
 40
39.0
 40
39.0
 40
40.0
 40
40.0
 40
40.0
 40
41.0
 40
41.0
 40
41.0
 40
42.0
 40
42.0
 40
42.0
 40
43.0
 40
43.0
 40
43.0
 40
44.0
 40
44.0
 40
44.0
 40
45.0
 40
45.0
 40
45.0
 40
46.0
 40
46.0
 40
46.0
 40
47.0
 40
47.0
 40
47.0
 40
48.0
 40
48.0
 40
48.0
 40
49.0
 40
49.0
 40
49.0
 40
49.0
 10
110.7139754314762
 20
148.2474605639087
 30
0.0
 10
110.7171978474773
 20
148.2666203079077
 30
0.0
 10
110.7204202634502
 20
148.2857800518598
 30
0.0
 10
110.7230072794978
 20
148.3050385923742
 30
0.0
 10
110.7252985459834
 20
148.3220954824906
 30
0.0
 10
110.7270913871227
 20
148.3392298713741
 30
0.0
 10
110.7280876935759
 20
148.3564072250182
 30
0.0
 10
110.7286764413611
 20
148.3665578457356
 30
0.0
 10
110.7289870402264
 20
148.3767234696938
 30
0.0
 10
110.7292166744377
 20
148.3868897100325
 30
0.0
 10
110.7295481682737
 20
148.4015654240367
 30
0.0
 10
110.7297109395325
 20
148.416242422519
 30
0.0
 10
110.7297811651194
 20
148.4309199667375
 30
0.0
 10
110.7298711905247
 20
148.4497357847308
 30
0.0
 10
110.7298091277281
 20
148.4685524995787
 30
0.0
 10
110.7297811653627
 20
148.4873690135022
 30
0.0
 10
110.7297467716539
 20
148.5105133256942
 30
0.0
 10
110.7297639684894
 20
148.5336573339079
 30
0.0
 10
110.7297811644899
 20
148.5568013409079
 30
0.0
 10
110.7297626514906
 20
148.575805737908
 30
0.0
 10
110.729744137616
 20
148.5948101339083
 30
0.0
 10
110.7297811652035
 20
148.6138148790398
 30
0.0
 10
110.7298148933035
 20
148.6311261320593
 30
0.0
 10
110.7298947054089
 20
148.6484376747607
 30
0.0
 10
110.7297811647903
 20
148.6657480021117
 30
0.0
 10
110.7296774899228
 20
148.6815542035128
 30
0.0
 10
110.7294126040242
 20
148.6973593915955
 30
0.0
 10
110.7292166745564
 20
148.7131652016067
 30
0.0
 10
110.7290417343801
 20
148.7272777862227
 30
0.0
 10
110.7289217678283
 20
148.7413908666536
 30
0.0
 10
110.7286521840312
 20
148.7555019858989
 30
0.0
 10
110.7284112699764
 20
148.7681124135358
 30
0.0
 10
110.7280508695533
 20
148.7807212749419
 30
0.0
 10
110.7275232033016
 20
148.7933228475918
 30
0.0
 10
110.7270581488367
 20
148.8044291436697
 30
0.0
 10
110.7264631683243
 20
148.8155297781049
 30
0.0
 10
110.72582973145
 20
148.8266277851529
 30
0.0
 10
110.7252926490054
 20
148.8360376332304
 30
0.0
 10
110.7247279198529
 20
148.8454455924501
 30
0.0
 10
110.7241362600348
 20
148.8548523085111
 30
0.0
 10
110.7236388940045
 20
148.8627598609353
 30
0.0
 10
110.7231224972559
 20
148.8706665348736
 30
0.0
 10
110.7224427886665
 20
148.8785609086849
 30
0.0
 10
110.7198605579643
 20
148.9085518412168
 30
0.0
 10
110.7149213128454
 20
148.9383652509438
 30
0.0
 10
110.7083305272014
 20
148.9677504026675
 30
0.0
 10
110.7011647047424
 20
148.9996993677191
 30
0.0
 10
110.6920465805115
 20
149.0311420849098
 30
0.0
 10
110.6829284565129
 20
149.0625848019097
 30
0.0
 10
110.6755726735134
 20
149.08698119791
 30
0.0
 10
110.6682168907006
 20
149.1113775942492
 30
0.0
 10
110.6597843472053
 20
149.1354040718043
 30
0.0
 10
110.6516169283996
 20
149.1586751411697
 30
0.0
 10
110.6424393926409
 20
149.1815991870573
 30
0.0
 10
110.6326888043316
 20
149.2042719094378
 30
0.0
 10
110.6231724848933
 20
149.2263998941161
 30
0.0
 10
110.6131103185746
 20
149.2482884868701
 30
0.0
 10
110.6022063188623
 20
149.2697528032227
 30
0.0
 10
110.5914873766088
 20
149.2908528374805
 30
0.0
 10
110.5799549328732
 20
149.3115428743629
 30
0.0
 10
110.5677724006894
 20
149.3318467549457
 30
0.0
 10
110.5562206783864
 20
149.3510993033194
 30
0.0
 10
110.5440844476335
 20
149.370004650291
 30
0.0
 10
110.5310805200691
 20
149.3882958022097
 30
0.0
 10
110.5190411521158
 20
149.4052302173843
 30
0.0
 10
110.5062580353348
 20
149.4216381734961
 30
0.0
 10
110.4926951682511
 20
149.4374064725918
 30
0.0
 10
110.4802725593578
 20
149.4518490982815
 30
0.0
 10
110.4671957992309
 20
149.4657551003552
 30
0.0
 10
110.4531808354622
 20
149.4786142772383
 30
0.0
 10
110.4399982778866
 20
149.4907096948545
 30
0.0
 10
110.4259856545323
 20
149.5018789449213
 30
0.0
 10
110.4119730305331
 20
149.513048195922
 30
0.0
 10
110.3981358335332
 20
149.5216699849226
 30
0.0
 10
110.3842986358359
 20
149.530291774715
 30
0.0
 10
110.3696362460788
 20
149.5373212858389
 30
0.0
 10
110.3557403506405
 20
149.5439833206902
 30
0.0
 10
110.3411032838984
 20
149.5492152021104
 30
0.0
 10
110.3261704796155
 20
149.5531270191847
 30
0.0
 10
110.3183419313381
 20
149.5551777960004
 30
0.0
 10
110.3104321025953
 20
149.5568657665129
 30
0.0
 10
110.3024618800971
 20
149.5582074330476
 30
0.0
 10
110.293301784105
 20
149.559749396807
 30
0.0
 10
110.2840619159822
 20
149.5608339389973
 30
0.0
 10
110.2748018471268
 20
149.561594375902
 30
0.0
 10
110.2642823064244
 20
149.5624582406419
 30
0.0
 10
110.2537366962494
 20
149.5629038406577
 30
0.0
 10
110.2431903807861
 20
149.5632878474931
 30
0.0
 10
110.231473006468
 20
149.5637144943008
 30
0.0
 10
110.2197547615349
 20
149.5640651099308
 30
0.0
 10
110.2080365165357
 20
149.5644157259313
 30
0.0
 10
110.2080365165357
 20
149.5644157259313
 30
0.0
 10
109.8939945925356
 20
149.5644157259454
 30
0.0
 10
109.8939945925356
 20
149.5644157259454
 30
0.0
 10
109.8939945925356
 20
149.5644157259454
 30
0.0
 10
109.8939945924471
 20
147.6090218439458
 30
0.0
 10
109.8939945924471
 20
147.6090218439458
 30
0.0
 10
109.8939945924471
 20
147.6090218439458
 30
0.0
 10
110.2036760474474
 20
147.6090218439317
 30
0.0
 10
110.2036760474474
 20
147.6090218439317
 30
0.0
 10
110.2202469064477
 20
147.6090935709302
 30
0.0
 10
110.2368177646973
 20
147.609165298578
 30
0.0
 10
110.2533512088776
 20
147.6101508251027
 30
0.0
 10
110.2684725231129
 20
147.6110521773028
 30
0.0
 10
110.2835625414531
 20
147.6127178984424
 30
0.0
 10
110.2985104464892
 20
147.6152312390628
 30
0.0
 10
110.3120241474999
 20
147.6175034326302
 30
0.0
 10
110.3254216975814
 20
147.6204683958933
 30
0.0
 10
110.3385892699425
 20
147.6242630865024
 30
0.0
 10
110.3508932776431
 20
147.6278089111389
 30
0.0
 10
110.3629964835783
 20
147.6320792003676
 30
0.0
 10
110.374716659797
 20
147.6372463672174
 30
0.0
 10
110.3860503497932
 20
147.6422431408284
 30
0.0
 10
110.3970258552435
 20
147.6480786162159
 30
0.0
 10
110.4074571070822
 20
147.6547455718696
 30
0.0
 10
110.4185601345855
 20
147.6618418814151
 30
0.0
 10
110.4290465510581
 20
147.6698802148491
 30
0.0
 10
110.4390685734363
 20
147.6784541716736
 30
0.0
 10
110.4495992423917
 20
147.6874632815665
 30
0.0
 10
110.4596171823589
 20
147.6970637634048
 30
0.0
 10
110.468986568304
 20
147.7072431854902
 30
0.0
 10
110.4792943884488
 20
147.7184421746918
 30
0.0
 10
110.488817230453
 20
147.7303418849178
 30
0.0
 10
110.4983400724534
 20
147.742241594918
 30
0.0
 10
110.5113138964547
 20
147.7598003429178
 30
0.0
 10
110.5242877202097
 20
147.7773590908766
 30
0.0
 10
110.5367254245274
 20
147.7953036984561
 30
0.0
 10
110.5492152286077
 20
147.8133234734264
 30
0.0
 10
110.5611644123871
 20
147.8317323474093
 30
0.0
 10
110.5722883243694
 20
147.8506237651153
 30
0.0
 10
110.5835664739141
 20
147.8697771200096
 30
0.0
 10
110.5939963075466
 20
147.8894264927258
 30
0.0
 10
110.603899790359
 20
147.9093307737605
 30
0.0
 10
110.6140656278163
 20
147.9297623420801
 30
0.0
 10
110.6236768577946
 20
147.9504625032389
 30
0.0
 10
110.6326888044285
 20
147.9714247256533
 30
0.0
 10
110.6417983055038
 20
147.9926138644011
 30
0.0
 10
110.6502954785104
 20
148.0140707687497
 30
0.0
 10
110.6580908750258
 20
148.0357766386766
 30
0.0
 10
110.6661164094465
 20
148.0581233154502
 30
0.0
 10
110.6733981196449
 20
148.0807338748575
 30
0.0
 10
110.6801060035179
 20
148.103515495077
 30
0.0
 10
110.6869789119803
 20
148.1268575793111
 30
0.0
 10
110.6932494127395
 20
148.1503792446257
 30
0.0
 10
110.6987341889145
 20
148.1740768032642
 30
0.0
 10
110.7043670955541
 20
148.1984143753239
 30
0.0
 10
110.709171263475
 20
148.2229374699089
 30
0.0
 10
110.7139754314762
 20
148.2474605639087
 30
0.0
  0
HATCH
  5
6F
330
6A
100
AcDbEntity
  8
0
 62
     7
420
 16777215
100
AcDbHatch
 10
0.0
 20
0.0
 30
0.0
210
0.0
220
0.0
230
1.0
  2
SOLID
 70
     1
 71
     0
 91
        1
 92
        1
 93
        1
 72
     4
 94
        3
 73
     0
 74
     1
 95
      152
 96
      148
 40
0.0
 40
0.0
 40
0.0
 40
0.0
 40
1.0
 40
1.0
 40
1.0
 40
2.0
 40
2.0
 40
2.0
 40
3.0
 40
3.0
 40
3.0
 40
4.0
 40
4.0
 40
4.0
 40
5.0
 40
5.0
 40
5.0
 40
6.0
 40
6.0
 40
6.0
 40
7.0
 40
7.0
 40
7.0
 40
8.0
 40
8.0
 40
8.0
 40
9.0
 40
9.0
 40
9.0
 40
10.0
 40
10.0
 40
10.0
 40
11.0
 40
11.0
 40
11.0
 40
12.0
 40
12.0
 40
12.0
 40
13.0
 40
13.0
 40
13.0
 40
14.0
 40
14.0
 40
14.0
 40
15.0
 40
15.0
 40
15.0
 40
16.0
 40
16.0
 40
16.0
 40
17.0
 40
17.0
 40
17.0
 40
18.0
 40
18.0
 40
18.0
 40
19.0
 40
19.0
 40
19.0
 40
20.0
 40
20.0
 40
20.0
 40
21.0
 40
21.0
 40
21.0
 40
22.0
 40
22.0
 40
22.0
 40
23.0
 40
23.0
 40
23.0
 40
24.0
 40
24.0
 40
24.0
 40
25.0
 40
25.0
 40
25.0
 40
26.0
 40
26.0
 40
26.0
 40
27.0
 40
27.0
 40
27.0
 40
28.0
 40
28.0
 40
28.0
 40
29.0
 40
29.0
 40
29.0
 40
30.0
 40
30.0
 40
30.0
 40
31.0
 40
31.0
 40
31.0
 40
32.0
 40
32.0
 40
32.0
 40
33.0
 40
33.0
 40
33.0
 40
34.0
 40
34.0
 40
34.0
 40
35.0
 40
35.0
 40
35.0
 40
36.0
 40
36.0
 40
36.0
 40
37.0
 40
37.0
 40
37.0
 40
38.0
 40
38.0
 40
38.0
 40
39.0
 40
39.0
 40
39.0
 40
40.0
 40
40.0
 40
40.0
 40
41.0
 40
41.0
 40
41.0
 40
42.0
 40
42.0
 40
42.0
 40
43.0
 40
43.0
 40
43.0
 40
44.0
 40
44.0
 40
44.0
 40
45.0
 40
45.0
 40
45.0
 40
46.0
 40
46.0
 40
46.0
 40
47.0
 40
47.0
 40
47.0
 40
48.0
 40
48.0
 40
48.0
 40
49.0
 40
49.0
 40
49.0
 40
49.0
 10
110.7139754314762
 20
148.2474605639087
 10
110.7171978474773
 20
148.2666203079077
 10
110.7204202634502
 20
148.2857800518598
 10
110.7230072794978
 20
148.3050385923742
 10
110.7252985459834
 20
148.3220954824906
 10
110.7270913871227
 20
148.3392298713741
 10
110.7280876935759
 20
148.3564072250182
 10
110.7286764413611
 20
148.3665578457356
 10
110.7289870402264
 20
148.3767234696938
 10
110.7292166744377
 20
148.3868897100325
 10
110.7295481682737
 20
148.4015654240367
 10
110.7297109395325
 20
148.416242422519
 10
110.7297811651194
 20
148.4309199667375
 10
110.7298711905247
 20
148.4497357847308
 10
110.7298091277281
 20
148.4685524995787
 10
110.7297811653627
 20
148.4873690135022
 10
110.7297467716539
 20
148.5105133256942
 10
110.7297639684894
 20
148.5336573339079
 10
110.7297811644899
 20
148.5568013409079
 10
110.7297626514906
 20
148.575805737908
 10
110.729744137616
 20
148.5948101339083
 10
110.7297811652035
 20
148.6138148790398
 10
110.7298148933035
 20
148.6311261320593
 10
110.7298947054089
 20
148.6484376747607
 10
110.7297811647903
 20
148.6657480021117
 10
110.7296774899228
 20
148.6815542035128
 10
110.7294126040242
 20
148.6973593915955
 10
110.7292166745564
 20
148.7131652016067
 10
110.7290417343801
 20
148.7272777862227
 10
110.7289217678283
 20
148.7413908666536
 10
110.7286521840312
 20
148.7555019858989
 10
110.7284112699764
 20
148.7681124135358
 10
110.7280508695533
 20
148.7807212749419
 10
110.7275232033016
 20
148.7933228475918
 10
110.7270581488367
 20
148.8044291436697
 10
110.7264631683243
 20
148.8155297781049
 10
110.72582973145
 20
148.8266277851529
 10
110.7252926490054
 20
148.8360376332304
 10
110.7247279198529
 20
148.8454455924501
 10
110.7241362600348
 20
148.8548523085111
 10
110.7236388940045
 20
148.8627598609353
 10
110.7231224972559
 20
148.8706665348736
 10
110.7224427886665
 20
148.8785609086849
 10
110.7198605579643
 20
148.9085518412168
 10
110.7149213128454
 20
148.9383652509438
 10
110.7083305272014
 20
148.9677504026675
 10
110.7011647047424
 20
148.9996993677191
 10
110.6920465805115
 20
149.0311420849098
 10
110.6829284565129
 20
149.0625848019097
 10
110.6755726735134
 20
149.08698119791
 10
110.6682168907006
 20
149.1113775942492
 10
110.6597843472053
 20
149.1354040718043
 10
110.6516169283996
 20
149.1586751411697
 10
110.6424393926409
 20
149.1815991870573
 10
110.6326888043316
 20
149.2042719094378
 10
110.6231724848933
 20
149.2263998941161
 10
110.6131103185746
 20
149.2482884868701
 10
110.6022063188623
 20
149.2697528032227
 10
110.5914873766088
 20
149.2908528374805
 10
110.5799549328732
 20
149.3115428743629
 10
110.5677724006894
 20
149.3318467549457
 10
110.5562206783864
 20
149.3510993033194
 10
110.5440844476335
 20
149.370004650291
 10
110.5310805200691
 20
149.3882958022097
 10
110.5190411521158
 20
149.4052302173843
 10
110.5062580353348
 20
149.4216381734961
 10
110.4926951682511
 20
149.4374064725918
 10
110.4802725593578
 20
149.4518490982815
 10
110.4671957992309
 20
149.4657551003552
 10
110.4531808354622
 20
149.4786142772383
 10
110.4399982778866
 20
149.4907096948545
 10
110.4259856545323
 20
149.5018789449213
 10
110.4119730305331
 20
149.513048195922
 10
110.3981358335332
 20
149.5216699849226
 10
110.3842986358359
 20
149.530291774715
 10
110.3696362460788
 20
149.5373212858389
 10
110.3557403506405
 20
149.5439833206902
 10
110.3411032838984
 20
149.5492152021104
 10
110.3261704796155
 20
149.5531270191847
 10
110.3183419313381
 20
149.5551777960004
 10
110.3104321025953
 20
149.5568657665129
 10
110.3024618800971
 20
149.5582074330476
 10
110.293301784105
 20
149.559749396807
 10
110.2840619159822
 20
149.5608339389973
 10
110.2748018471268
 20
149.561594375902
 10
110.2642823064244
 20
149.5624582406419
 10
110.2537366962494
 20
149.5629038406577
 10
110.2431903807861
 20
149.5632878474931
 10
110.231473006468
 20
149.5637144943008
 10
110.2197547615349
 20
149.5640651099308
 10
110.2080365165357
 20
149.5644157259313
 10
110.2080365165357
 20
149.5644157259313
 10
109.8939945925356
 20
149.5644157259454
 10
109.8939945925356
 20
149.5644157259454
 10
109.8939945925356
 20
149.5644157259454
 10
109.8939945924471
 20
147.6090218439458
 10
109.8939945924471
 20
147.6090218439458
 10
109.8939945924471
 20
147.6090218439458
 10
110.2036760474474
 20
147.6090218439317
 10
110.2036760474474
 20
147.6090218439317
 10
110.2202469064477
 20
147.6090935709302
 10
110.2368177646973
 20
147.609165298578
 10
110.2533512088776
 20
147.6101508251027
 10
110.2684725231129
 20
147.6110521773028
 10
110.2835625414531
 20
147.6127178984424
 10
110.2985104464892
 20
147.6152312390628
 10
110.3120241474999
 20
147.6175034326302
 10
110.3254216975814
 20
147.6204683958933
 10
110.3385892699425
 20
147.6242630865024
 10
110.3508932776431
 20
147.6278089111389
 10
110.3629964835783
 20
147.6320792003676
 10
110.374716659797
 20
147.6372463672174
 10
110.3860503497932
 20
147.6422431408284
 10
110.3970258552435
 20
147.6480786162159
 10
110.4074571070822
 20
147.6547455718696
 10
110.4185601345855
 20
147.6618418814151
 10
110.4290465510581
 20
147.6698802148491
 10
110.4390685734363
 20
147.6784541716736
 10
110.4495992423917
 20
147.6874632815665
 10
110.4596171823589
 20
147.6970637634048
 10
110.468986568304
 20
147.7072431854902
 10
110.4792943884488
 20
147.7184421746918
 10
110.488817230453
 20
147.7303418849178
 10
110.4983400724534
 20
147.742241594918
 10
110.5113138964547
 20
147.7598003429178
 10
110.5242877202097
 20
147.7773590908766
 10
110.5367254245274
 20
147.7953036984561
 10
110.5492152286077
 20
147.8133234734264
 10
110.5611644123871
 20
147.8317323474093
 10
110.5722883243694
 20
147.8506237651153
 10
110.5835664739141
 20
147.8697771200096
 10
110.5939963075466
 20
147.8894264927258
 10
110.603899790359
 20
147.9093307737605
 10
110.6140656278163
 20
147.9297623420801
 10
110.6236768577946
 20
147.9504625032389
 10
110.6326888044285
 20
147.9714247256533
 10
110.6417983055038
 20
147.9926138644011
 10
110.6502954785104
 20
148.0140707687497
 10
110.6580908750258
 20
148.0357766386766
 10
110.6661164094465
 20
148.0581233154502
 10
110.6733981196449
 20
148.0807338748575
 10
110.6801060035179
 20
148.103515495077
 10
110.6869789119803
 20
148.1268575793111
 10
110.6932494127395
 20
148.1503792446257
 10
110.6987341889145
 20
148.1740768032642
 10
110.7043670955541
 20
148.1984143753239
 10
110.709171263475
 20
148.2229374699089
 10
110.7139754314762
 20
148.2474605639087
 97
        0
 97
        0
 75
     2
 76
     1
 98
        0
  0
ENDBLK
  5
6D
330
6A
100
AcDbEntity
  8
0
100
AcDbBlockEnd
  0
BLOCK
  5
72
330
70
100
AcDbEntity
  8
0
100
AcDbBlockBegin
  2
block 10
 70
     0
 10
0.0
 20
0.0
 30
0.0
  3
block 10
  1

  0
SPLINE
  5
74
330
70
100
AcDbEntity
  8
0
 62
     7
420
 16777215
370
     5
100
AcDbSpline
210
0.0
220
0.0
230
1.0
 70
    11
 71
     3
 72
    98
 73
    94
 74
     0
 42
0.0000000001
 43
0.0000000001
 12
1.0
 22
0.0
 32
0.0
 13
1.0
 23
0.0
 33
0.0
 40
0.0
 40
0.0
 40
0.0
 40
0.0
 40
1.0
 40
1.0
 40
1.0
 40
2.0
 40
2.0
 40
2.0
 40
3.0
 40
3.0
 40
3.0
 40
4.0
 40
4.0
 40
4.0
 40
5.0
 40
5.0
 40
5.0
 40
6.0
 40
6.0
 40
6.0
 40
7.0
 40
7.0
 40
7.0
 40
8.0
 40
8.0
 40
8.0
 40
9.0
 40
9.0
 40
9.0
 40
10.0
 40
10.0
 40
10.0
 40
11.0
 40
11.0
 40
11.0
 40
12.0
 40
12.0
 40
12.0
 40
13.0
 40
13.0
 40
13.0
 40
14.0
 40
14.0
 40
14.0
 40
15.0
 40
15.0
 40
15.0
 40
16.0
 40
16.0
 40
16.0
 40
17.0
 40
17.0
 40
17.0
 40
18.0
 40
18.0
 40
18.0
 40
19.0
 40
19.0
 40
19.0
 40
20.0
 40
20.0
 40
20.0
 40
21.0
 40
21.0
 40
21.0
 40
22.0
 40
22.0
 40
22.0
 40
23.0
 40
23.0
 40
23.0
 40
24.0
 40
24.0
 40
24.0
 40
25.0
 40
25.0
 40
25.0
 40
26.0
 40
26.0
 40
26.0
 40
27.0
 40
27.0
 40
27.0
 40
28.0
 40
28.0
 40
28.0
 40
29.0
 40
29.0
 40
29.0
 40
30.0
 40
30.0
 40
30.0
 40
31.0
 40
31.0
 40
31.0
 40
31.0
 10
103.2152840424686
 20
148.0786779142445
 30
0.0
 10
103.2145403384693
 20
148.0999661252446
 30
0.0
 10
103.2137966349133
 20
148.1212543356441
 30
0.0
 10
103.2118970993976
 20
148.1424653374594
 30
0.0
 10
103.2100311641098
 20
148.1633011451899
 30
0.0
 10
103.2070499254417
 20
148.184062451611
 30
0.0
 10
103.202865252241
 20
148.2045592892879
 30
0.0
 10
103.1987837932324
 20
148.2245505762513
 30
0.0
 10
103.1935575325571
 20
148.2442902797262
 30
0.0
 10
103.1876240097107
 20
148.2638307880736
 30
0.0
 10
103.1817557132969
 20
148.2831564901924
 30
0.0
 10
103.1751956189224
 20
148.3022873525635
 30
0.0
 10
103.1673023527478
 20
148.3208443255442
 30
0.0
 10
103.1596644961536
 20
148.3388008336978
 30
0.0
 10
103.1507783491838
 20
148.3562199912997
 30
0.0
 10
103.1413357908305
 20
148.3733419391703
 30
0.0
 10
103.1323447997598
 20
148.3896450717162
 30
0.0
 10
103.1228493428243
 20
148.4056787414715
 30
0.0
 10
103.111982286882
 20
148.4207591383935
 30
0.0
 10
103.101602128977
 20
148.4351638586919
 30
0.0
 10
103.0899705274845
 20
148.4486988151842
 30
0.0
 10
103.0775483680058
 20
148.4614024525575
 30
0.0
 10
103.0654419971038
 20
148.4737831457949
 30
0.0
 10
103.0525847514871
 20
148.4853742492519
 30
0.0
 10
103.0397275064878
 20
148.4969653522531
 30
0.0
 10
103.0269301254879
 20
148.5066162932538
 30
0.0
 10
103.014132743981
 20
148.5162672335631
 30
0.0
 10
103.0002131735584
 20
148.5240608943064
 30
0.0
 10
102.9874213168762
 20
148.5312231405708
 30
0.0
 10
102.9736817370651
 20
148.5368168569942
 30
0.0
 10
102.959569859596
 20
148.5409956082143
 30
0.0
 10
102.9444545201652
 20
148.5454715004709
 30
0.0
 10
102.928912054234
 20
148.5483240434411
 30
0.0
 10
102.9132816416831
 20
148.5500274557071
 30
0.0
 10
102.8944914081593
 20
148.5520752272653
 30
0.0
 10
102.8755740754901
 20
148.5524622922603
 30
0.0
 10
102.8566567424898
 20
148.552849357261
 30
0.0
 10
102.8566567424898
 20
148.552849357261
 30
0.0
 10
102.3845365394902
 20
148.5528493572822
 30
0.0
 10
102.3845365394902
 20
148.5528493572822
 30
0.0
 10
102.3845365394902
 20
148.5528493572822
 30
0.0
 10
102.3845365394478
 20
147.6090218442821
 30
0.0
 10
102.3845365394478
 20
147.6090218442821
 30
0.0
 10
102.3845365394478
 20
147.6090218442821
 30
0.0
 10
102.8291725614475
 20
147.6090218442628
 30
0.0
 10
102.8291725614475
 20
147.6090218442628
 30
0.0
 10
102.8449789004478
 20
147.6092523452619
 30
0.0
 10
102.8607852392633
 20
147.609482845473
 30
0.0
 10
102.876589760852
 20
147.6101508251965
 30
0.0
 10
102.8907420137898
 20
147.6107489716151
 30
0.0
 10
102.9048928095999
 20
147.6116979072004
 30
0.0
 10
102.9189265462675
 20
147.6135377679884
 30
0.0
 10
102.9312552600241
 20
147.615154095665
 30
0.0
 10
102.943493630839
 20
147.6174580142682
 30
0.0
 10
102.9556184268968
 20
147.6203116535555
 30
0.0
 10
102.9665293710799
 20
147.6228796059419
 30
0.0
 10
102.9773483428454
 20
147.6258927201
 30
0.0
 10
102.9877943832872
 20
147.6299079918379
 30
0.0
 10
102.9975345401305
 20
147.6336519345024
 30
0.0
 10
103.0069504638674
 20
147.6382671707412
 30
0.0
 10
103.0160189069527
 20
147.6434557629209
 30
0.0
 10
103.0252248694732
 20
147.648723038096
 30
0.0
 10
103.0340727326148
 20
147.654581190509
 30
0.0
 10
103.0425499589643
 20
147.6609549677592
 30
0.0
 10
103.0513034742486
 20
147.6675364785369
 30
0.0
 10
103.0596617995222
 20
147.674667772255
 30
0.0
 10
103.0673875393644
 20
147.682405605497
 30
0.0
 10
103.0755759955371
 20
147.690606879377
 30
0.0
 10
103.0830538224517
 20
147.6994895232514
 30
0.0
 10
103.0905316484519
 20
147.7083721672504
 30
0.0
 10
103.1003538634531
 20
147.7210051372496
 30
0.0
 10
103.1101760788489
 20
147.7336381076287
 30
0.0
 10
103.1193206626227
 20
147.746757518691
 30
0.0
 10
103.1284551153355
 20
147.7598623950776
 30
0.0
 10
103.1369134370562
 20
147.7734526349144
 30
0.0
 10
103.1447227336154
 20
147.7874008325328
 30
0.0
 10
103.152537985879
 20
147.8013596676437
 30
0.0
 10
103.1597032226547
 20
147.815677006735
 30
0.0
 10
103.1661733714381
 20
147.8303021082227
 30
0.0
 10
103.172706392843
 20
147.8450693267619
 30
0.0
 10
103.1785307518101
 20
147.8601503180227
 30
0.0
 10
103.1836725762428
 20
147.8754613460069
 30
0.0
 10
103.1889081949464
 20
147.8910516691563
 30
0.0
 10
103.1934361511796
 20
147.9068804979779
 30
0.0
 10
103.1972203475209
 20
147.9228785447755
 30
0.0
 10
103.201102685745
 20
147.9392914956345
 30
0.0
 10
103.2042021854849
 20
147.9558825555125
 30
0.0
 10
103.2068166853008
 20
147.9725537062378
 30
0.0
 10
103.2095195224371
 20
147.9897881328849
 30
0.0
 10
103.2117040321423
 20
148.0071081539443
 30
0.0
 10
103.2130260802401
 20
148.0244868295161
 30
0.0
 10
103.2143970409462
 20
148.0425084744051
 30
0.0
 10
103.2148405414674
 20
148.0605931942452
 30
0.0
 10
103.2152840424686
 20
148.0786779142445
 30
0.0
  0
HATCH
  5
75
330
70
100
AcDbEntity
  8
0
 62
     7
420
 16777215
100
AcDbHatch
 10
0.0
 20
0.0
 30
0.0
210
0.0
220
0.0
230
1.0
  2
SOLID
 70
     1
 71
     0
 91
        1
 92
        1
 93
        1
 72
     4
 94
        3
 73
     0
 74
     1
 95
       98
 96
       94
 40
0.0
 40
0.0
 40
0.0
 40
0.0
 40
1.0
 40
1.0
 40
1.0
 40
2.0
 40
2.0
 40
2.0
 40
3.0
 40
3.0
 40
3.0
 40
4.0
 40
4.0
 40
4.0
 40
5.0
 40
5.0
 40
5.0
 40
6.0
 40
6.0
 40
6.0
 40
7.0
 40
7.0
 40
7.0
 40
8.0
 40
8.0
 40
8.0
 40
9.0
 40
9.0
 40
9.0
 40
10.0
 40
10.0
 40
10.0
 40
11.0
 40
11.0
 40
11.0
 40
12.0
 40
12.0
 40
12.0
 40
13.0
 40
13.0
 40
13.0
 40
14.0
 40
14.0
 40
14.0
 40
15.0
 40
15.0
 40
15.0
 40
16.0
 40
16.0
 40
16.0
 40
17.0
 40
17.0
 40
17.0
 40
18.0
 40
18.0
 40
18.0
 40
19.0
 40
19.0
 40
19.0
 40
20.0
 40
20.0
 40
20.0
 40
21.0
 40
21.0
 40
21.0
 40
22.0
 40
22.0
 40
22.0
 40
23.0
 40
23.0
 40
23.0
 40
24.0
 40
24.0
 40
24.0
 40
25.0
 40
25.0
 40
25.0
 40
26.0
 40
26.0
 40
26.0
 40
27.0
 40
27.0
 40
27.0
 40
28.0
 40
28.0
 40
28.0
 40
29.0
 40
29.0
 40
29.0
 40
30.0
 40
30.0
 40
30.0
 40
31.0
 40
31.0
 40
31.0
 40
31.0
 10
103.2152840424686
 20
148.0786779142445
 10
103.2145403384693
 20
148.0999661252446
 10
103.2137966349133
 20
148.1212543356441
 10
103.2118970993976
 20
148.1424653374594
 10
103.2100311641098
 20
148.1633011451899
 10
103.2070499254417
 20
148.184062451611
 10
103.202865252241
 20
148.2045592892879
 10
103.1987837932324
 20
148.2245505762513
 10
103.1935575325571
 20
148.2442902797262
 10
103.1876240097107
 20
148.2638307880736
 10
103.1817557132969
 20
148.2831564901924
 10
103.1751956189224
 20
148.3022873525635
 10
103.1673023527478
 20
148.3208443255442
 10
103.1596644961536
 20
148.3388008336978
 10
103.1507783491838
 20
148.3562199912997
 10
103.1413357908305
 20
148.3733419391703
 10
103.1323447997598
 20
148.3896450717162
 10
103.1228493428243
 20
148.4056787414715
 10
103.111982286882
 20
148.4207591383935
 10
103.101602128977
 20
148.4351638586919
 10
103.0899705274845
 20
148.4486988151842
 10
103.0775483680058
 20
148.4614024525575
 10
103.0654419971038
 20
148.4737831457949
 10
103.0525847514871
 20
148.4853742492519
 10
103.0397275064878
 20
148.4969653522531
 10
103.0269301254879
 20
148.5066162932538
 10
103.014132743981
 20
148.5162672335631
 10
103.0002131735584
 20
148.5240608943064
 10
102.9874213168762
 20
148.5312231405708
 10
102.9736817370651
 20
148.5368168569942
 10
102.959569859596
 20
148.5409956082143
 10
102.9444545201652
 20
148.5454715004709
 10
102.928912054234
 20
148.5483240434411
 10
102.9132816416831
 20
148.5500274557071
 10
102.8944914081593
 20
148.5520752272653
 10
102.8755740754901
 20
148.5524622922603
 10
102.8566567424898
 20
148.552849357261
 10
102.8566567424898
 20
148.552849357261
 10
102.3845365394902
 20
148.5528493572822
 10
102.3845365394902
 20
148.5528493572822
 10
102.3845365394902
 20
148.5528493572822
 10
102.3845365394478
 20
147.6090218442821
 10
102.3845365394478
 20
147.6090218442821
 10
102.3845365394478
 20
147.6090218442821
 10
102.8291725614475
 20
147.6090218442628
 10
102.8291725614475
 20
147.6090218442628
 10
102.8449789004478
 20
147.6092523452619
 10
102.8607852392633
 20
147.609482845473
 10
102.876589760852
 20
147.6101508251965
 10
102.8907420137898
 20
147.6107489716151
 10
102.9048928095999
 20
147.6116979072004
 10
102.9189265462675
 20
147.6135377679884
 10
102.9312552600241
 20
147.615154095665
 10
102.943493630839
 20
147.6174580142682
 10
102.9556184268968
 20
147.6203116535555
 10
102.9665293710799
 20
147.6228796059419
 10
102.9773483428454
 20
147.6258927201
 10
102.9877943832872
 20
147.6299079918379
 10
102.9975345401305
 20
147.6336519345024
 10
103.0069504638674
 20
147.6382671707412
 10
103.0160189069527
 20
147.6434557629209
 10
103.0252248694732
 20
147.648723038096
 10
103.0340727326148
 20
147.654581190509
 10
103.0425499589643
 20
147.6609549677592
 10
103.0513034742486
 20
147.6675364785369
 10
103.0596617995222
 20
147.674667772255
 10
103.0673875393644
 20
147.682405605497
 10
103.0755759955371
 20
147.690606879377
 10
103.0830538224517
 20
147.6994895232514
 10
103.0905316484519
 20
147.7083721672504
 10
103.1003538634531
 20
147.7210051372496
 10
103.1101760788489
 20
147.7336381076287
 10
103.1193206626227
 20
147.746757518691
 10
103.1284551153355
 20
147.7598623950776
 10
103.1369134370562
 20
147.7734526349144
 10
103.1447227336154
 20
147.7874008325328
 10
103.152537985879
 20
147.8013596676437
 10
103.1597032226547
 20
147.815677006735
 10
103.1661733714381
 20
147.8303021082227
 10
103.172706392843
 20
147.8450693267619
 10
103.1785307518101
 20
147.8601503180227
 10
103.1836725762428
 20
147.8754613460069
 10
103.1889081949464
 20
147.8910516691563
 10
103.1934361511796
 20
147.9068804979779
 10
103.1972203475209
 20
147.9228785447755
 10
103.201102685745
 20
147.9392914956345
 10
103.2042021854849
 20
147.9558825555125
 10
103.2068166853008
 20
147.9725537062378
 10
103.2095195224371
 20
147.9897881328849
 10
103.2117040321423
 20
148.0071081539443
 10
103.2130260802401
 20
148.0244868295161
 10
103.2143970409462
 20
148.0425084744051
 10
103.2148405414674
 20
148.0605931942452
 10
103.2152840424686
 20
148.0786779142445
 97
        0
 97
        0
 75
     2
 76
     1
 98
        0
  0
ENDBLK
  5
73
330
70
100
AcDbEntity
  8
0
100
AcDbBlockEnd
  0
BLOCK
  5
78
330
76
100
AcDbEntity
  8
0
100
AcDbBlockBegin
  2
block 11
 70
     0
 10
0.0
 20
0.0
 30
0.0
  3
block 11
  1

  0
SPLINE
  5
7A
330
76
100
AcDbEntity
  8
0
 62
     7
420
 16777215
370
     5
100
AcDbSpline
210
0.0
220
0.0
230
1.0
 70
    11
 71
     3
 72
    74
 73
    70
 74
     0
 42
0.0000000001
 43
0.0000000001
 12
1.0
 22
0.0
 32
0.0
 13
1.0
 23
0.0
 33
0.0
 40
0.0
 40
0.0
 40
0.0
 40
0.0
 40
1.0
 40
1.0
 40
1.0
 40
2.0
 40
2.0
 40
2.0
 40
3.0
 40
3.0
 40
3.0
 40
4.0
 40
4.0
 40
4.0
 40
5.0
 40
5.0
 40
5.0
 40
6.0
 40
6.0
 40
6.0
 40
7.0
 40
7.0
 40
7.0
 40
8.0
 40
8.0
 40
8.0
 40
9.0
 40
9.0
 40
9.0
 40
10.0
 40
10.0
 40
10.0
 40
11.0
 40
11.0
 40
11.0
 40
12.0
 40
12.0
 40
12.0
 40
13.0
 40
13.0
 40
13.0
 40
14.0
 40
14.0
 40
14.0
 40
15.0
 40
15.0
 40
15.0
 40
16.0
 40
16.0
 40
16.0
 40
17.0
 40
17.0
 40
17.0
 40
18.0
 40
18.0
 40
18.0
 40
19.0
 40
19.0
 40
19.0
 40
20.0
 40
20.0
 40
20.0
 40
21.0
 40
21.0
 40
21.0
 40
22.0
 40
22.0
 40
22.0
 40
23.0
 40
23.0
 40
23.0
 40
23.0
 10
103.2152840425196
 20
149.220642133245
 30
0.0
 10
103.2135708165211
 20
149.2488036062452
 30
0.0
 10
103.2118575905255
 20
149.2769650799121
 30
0.0
 10
103.2073811759422
 20
149.3047512128517
 30
0.0
 10
103.2032096477878
 20
149.3306448457338
 30
0.0
 10
103.1966385117461
 20
149.3562125252684
 30
0.0
 10
103.1876240093745
 20
149.3809574262002
 30
0.0
 10
103.1790672175245
 20
149.4044459070817
 30
0.0
 10
103.1683088835224
 20
149.4271930411763
 30
0.0
 10
103.1548835623928
 20
149.4481317923703
 30
0.0
 10
103.1415771249331
 20
149.4688851271009
 30
0.0
 10
103.1256507245318
 20
149.4878619642492
 30
0.0
 10
103.1097243245322
 20
149.5068388012497
 30
0.0
 10
103.0987381625332
 20
149.5169611992498
 30
0.0
 10
103.0877520009699
 20
149.5270835971557
 30
0.0
 10
103.0752904058985
 20
149.535063324767
 30
0.0
 10
103.0634829829161
 20
149.5426241561586
 30
0.0
 10
103.0503509664481
 20
149.5482613718137
 30
0.0
 10
103.0369050540773
 20
149.5525625287949
 30
0.0
 10
103.0296611916136
 20
149.5548797378287
 30
0.0
 10
103.022326223463
 20
149.5568091668949
 30
0.0
 10
103.014889926148
 20
149.5582074333703
 30
0.0
 10
103.0061386092136
 20
149.559852966432
 30
0.0
 10
102.9972469566983
 20
149.5607628671515
 30
0.0
 10
102.9883588740495
 20
149.5615943764039
 30
0.0
 10
102.9782014895605
 20
149.5625446330019
 30
0.0
 10
102.9680487673638
 20
149.5633925092988
 30
0.0
 10
102.9578763886992
 20
149.5638523383468
 30
0.0
 10
102.9462638966175
 20
149.5643772658351
 30
0.0
 10
102.9346257885357
 20
149.5643964962575
 30
0.0
 10
102.9229876805355
 20
149.5644157262582
 30
0.0
 10
102.9229876805355
 20
149.5644157262582
 30
0.0
 10
102.4040456385354
 20
149.5644157262817
 30
0.0
 10
102.4040456385354
 20
149.5644157262817
 30
0.0
 10
102.4040456385354
 20
149.5644157262817
 30
0.0
 10
102.4040456385039
 20
148.8734804952815
 30
0.0
 10
102.4040456385039
 20
148.8734804952815
 30
0.0
 10
102.4040456385039
 20
148.8734804952815
 30
0.0
 10
102.9268294125039
 20
148.8734804952581
 30
0.0
 10
102.9268294125039
 20
148.8734804952581
 30
0.0
 10
102.9384973215042
 20
148.8735449342576
 30
0.0
 10
102.9501652302928
 20
148.873609373397
 30
0.0
 10
102.961827821616
 20
148.8740449851452
 30
0.0
 10
102.9720120674005
 20
148.8744253789172
 30
0.0
 10
102.9821922583585
 20
148.875088809908
 30
0.0
 10
102.992310307039
 20
148.8763029471305
 30
0.0
 10
103.001219010375
 20
148.877371966333
 30
0.0
 10
103.0100795386112
 20
148.8788679143385
 30
0.0
 10
103.0188413596076
 20
148.880818871088
 30
0.0
 10
103.0262883575434
 20
148.8824770618788
 30
0.0
 10
103.0336640500302
 20
148.8844639479416
 30
0.0
 10
103.0408564878712
 20
148.8870282661964
 30
0.0
 10
103.0545133333867
 20
148.8918973382729
 30
0.0
 10
103.0675094800525
 20
148.8988482609065
 30
0.0
 10
103.0792418392805
 20
148.9073499231288
 30
0.0
 10
103.0916643793284
 20
148.9163517135949
 30
0.0
 10
103.1026700685067
 20
148.9270920612501
 30
0.0
 10
103.1136757575073
 20
148.9378324082494
 30
0.0
 10
103.1292262645083
 20
148.956634476249
 30
0.0
 10
103.1447767716202
 20
148.9754365440856
 30
0.0
 10
103.1577060148649
 20
148.9959749263668
 30
0.0
 10
103.1706862764661
 20
149.0165943524112
 30
0.0
 10
103.1810245465471
 20
149.0389638228125
 30
0.0
 10
103.1893174811722
 20
149.0620203110867
 30
0.0
 10
103.198094131118
 20
149.086421652189
 30
0.0
 10
103.2045798837815
 20
149.1115924941448
 30
0.0
 10
103.2085101566961
 20
149.1370975434816
 30
0.0
 10
103.2127613341921
 20
149.164685065809
 30
0.0
 10
103.214022688519
 20
149.1926635992451
 30
0.0
 10
103.2152840425196
 20
149.220642133245
 30
0.0
  0
HATCH
  5
7B
330
76
100
AcDbEntity
  8
0
 62
     7
420
 16777215
100
AcDbHatch
 10
0.0
 20
0.0
 30
0.0
210
0.0
220
0.0
230
1.0
  2
SOLID
 70
     1
 71
     0
 91
        1
 92
        1
 93
        1
 72
     4
 94
        3
 73
     0
 74
     1
 95
       74
 96
       70
 40
0.0
 40
0.0
 40
0.0
 40
0.0
 40
1.0
 40
1.0
 40
1.0
 40
2.0
 40
2.0
 40
2.0
 40
3.0
 40
3.0
 40
3.0
 40
4.0
 40
4.0
 40
4.0
 40
5.0
 40
5.0
 40
5.0
 40
6.0
 40
6.0
 40
6.0
 40
7.0
 40
7.0
 40
7.0
 40
8.0
 40
8.0
 40
8.0
 40
9.0
 40
9.0
 40
9.0
 40
10.0
 40
10.0
 40
10.0
 40
11.0
 40
11.0
 40
11.0
 40
12.0
 40
12.0
 40
12.0
 40
13.0
 40
13.0
 40
13.0
 40
14.0
 40
14.0
 40
14.0
 40
15.0
 40
15.0
 40
15.0
 40
16.0
 40
16.0
 40
16.0
 40
17.0
 40
17.0
 40
17.0
 40
18.0
 40
18.0
 40
18.0
 40
19.0
 40
19.0
 40
19.0
 40
20.0
 40
20.0
 40
20.0
 40
21.0
 40
21.0
 40
21.0
 40
22.0
 40
22.0
 40
22.0
 40
23.0
 40
23.0
 40
23.0
 40
23.0
 10
103.2152840425196
 20
149.220642133245
 10
103.2135708165211
 20
149.2488036062452
 10
103.2118575905255
 20
149.2769650799121
 10
103.2073811759422
 20
149.3047512128517
 10
103.2032096477878
 20
149.3306448457338
 10
103.1966385117461
 20
149.3562125252684
 10
103.1876240093745
 20
149.3809574262002
 10
103.1790672175245
 20
149.4044459070817
 10
103.1683088835224
 20
149.4271930411763
 10
103.1548835623928
 20
149.4481317923703
 10
103.1415771249331
 20
149.4688851271009
 10
103.1256507245318
 20
149.4878619642492
 10
103.1097243245322
 20
149.5068388012497
 10
103.0987381625332
 20
149.5169611992498
 10
103.0877520009699
 20
149.5270835971557
 10
103.0752904058985
 20
149.535063324767
 10
103.0634829829161
 20
149.5426241561586
 10
103.0503509664481
 20
149.5482613718137
 10
103.0369050540773
 20
149.5525625287949
 10
103.0296611916136
 20
149.5548797378287
 10
103.022326223463
 20
149.5568091668949
 10
103.014889926148
 20
149.5582074333703
 10
103.0061386092136
 20
149.559852966432
 10
102.9972469566983
 20
149.5607628671515
 10
102.9883588740495
 20
149.5615943764039
 10
102.9782014895605
 20
149.5625446330019
 10
102.9680487673638
 20
149.5633925092988
 10
102.9578763886992
 20
149.5638523383468
 10
102.9462638966175
 20
149.5643772658351
 10
102.9346257885357
 20
149.5643964962575
 10
102.9229876805355
 20
149.5644157262582
 10
102.9229876805355
 20
149.5644157262582
 10
102.4040456385354
 20
149.5644157262817
 10
102.4040456385354
 20
149.5644157262817
 10
102.4040456385354
 20
149.5644157262817
 10
102.4040456385039
 20
148.8734804952815
 10
102.4040456385039
 20
148.8734804952815
 10
102.4040456385039
 20
148.8734804952815
 10
102.9268294125039
 20
148.8734804952581
 10
102.9268294125039
 20
148.8734804952581
 10
102.9384973215042
 20
148.8735449342576
 10
102.9501652302928
 20
148.873609373397
 10
102.961827821616
 20
148.8740449851452
 10
102.9720120674005
 20
148.8744253789172
 10
102.9821922583585
 20
148.875088809908
 10
102.992310307039
 20
148.8763029471305
 10
103.001219010375
 20
148.877371966333
 10
103.0100795386112
 20
148.8788679143385
 10
103.0188413596076
 20
148.880818871088
 10
103.0262883575434
 20
148.8824770618788
 10
103.0336640500302
 20
148.8844639479416
 10
103.0408564878712
 20
148.8870282661964
 10
103.0545133333867
 20
148.8918973382729
 10
103.0675094800525
 20
148.8988482609065
 10
103.0792418392805
 20
148.9073499231288
 10
103.0916643793284
 20
148.9163517135949
 10
103.1026700685067
 20
148.9270920612501
 10
103.1136757575073
 20
148.9378324082494
 10
103.1292262645083
 20
148.956634476249
 10
103.1447767716202
 20
148.9754365440856
 10
103.1577060148649
 20
148.9959749263668
 10
103.1706862764661
 20
149.0165943524112
 10
103.1810245465471
 20
149.0389638228125
 10
103.1893174811722
 20
149.0620203110867
 10
103.198094131118
 20
149.086421652189
 10
103.2045798837815
 20
149.1115924941448
 10
103.2085101566961
 20
149.1370975434816
 10
103.2127613341921
 20
149.164685065809
 10
103.214022688519
 20
149.1926635992451
 10
103.2152840425196
 20
149.220642133245
 97
        0
 97
        0
 75
     2
 76
     1
 98
        0
  0
ENDBLK
  5
79
330
76
100
AcDbEntity
  8
0
100
AcDbBlockEnd
  0
ENDSEC
  0
SECTION
  2
ENTITIES
  0
INSERT
  5
41
330
1F
100
AcDbEntity
  8
0
100
AcDbBlockReference
  2
block 2
 10
0.0
 20
0.0
 30
0.0
  0
INSERT
  5
4D
330
1F
100
AcDbEntity
  8
0
100
AcDbBlockReference
  2
block 3
 10
0.0
 20
0.0
 30
0.0
  0
INSERT
  5
52
330
1F
100
AcDbEntity
  8
0
100
AcDbBlockReference
  2
block 4
 10
0.0
 20
0.0
 30
0.0
  0
INSERT
  5
57
330
1F
100
AcDbEntity
  8
0
100
AcDbBlockReference
  2
block 5
 10
0.0
 20
0.0
 30
0.0
  0
INSERT
  5
5C
330
1F
100
AcDbEntity
  8
0
100
AcDbBlockReference
  2
block 6
 10
0.0
 20
0.0
 30
0.0
  0
INSERT
  5
61
330
1F
100
AcDbEntity
  8
0
100
AcDbBlockReference
  2
block 7
 10
0.0
 20
0.0
 30
0.0
  0
INSERT
  5
66
330
1F
100
AcDbEntity
  8
0
100
AcDbBlockReference
  2
block 8
 10
0.0
 20
0.0
 30
0.0
  0
INSERT
  5
6B
330
1F
100
AcDbEntity
  8
0
100
AcDbBlockReference
  2
block 9
 10
0.0
 20
0.0
 30
0.0
  0
INSERT
  5
71
330
1F
100
AcDbEntity
  8
0
100
AcDbBlockReference
  2
block 10
 10
0.0
 20
0.0
 30
0.0
  0
INSERT
  5
77
330
1F
100
AcDbEntity
  8
0
100
AcDbBlockReference
  2
block 11
 10
0.0
 20
0.0
 30
0.0
  0
ENDSEC
  0
SECTION
  2
OBJECTS
  0
DICTIONARY
  5
C
330
0
100
AcDbDictionary
281
     1
  3
ACAD_GROUP
350
D
  3
ACAD_LAYOUT
350
1A
  3
ACAD_MATERIAL
350
3B
  3
ACAD_MLEADERSTYLE
350
7D
  3
ACAD_MLINESTYLE
350
17
  3
ACAD_PLOTSETTINGS
350
19
  3
ACAD_PLOTSTYLENAME
350
E
  3
ACAD_TABLESTYLE
350
7C
  3
ACAD_VISUALSTYLE
350
2A
  0
SUN
  5
3F
330
29
100
AcDbSun
 90
        1
290
     0
 63
     7
421
 16777215
 40
1.0
291
     1
 91
  2455826
 92
 54000000
292
     0
 70
     2
 71
   256
280
     1
  0
DICTIONARY
  5
D
102
{ACAD_REACTORS
330
C
102
}
330
C
100
AcDbDictionary
281
     1
  0
DICTIONARY
  5
1A
102
{ACAD_REACTORS
330
C
102
}
330
C
100
AcDbDictionary
281
     1
  3
Layout1
350
1E
  3
Layout2
350
26
  3
Model
350
22
  0
DICTIONARY
  5
3B
102
{ACAD_REACTORS
330
C
102
}
330
C
100
AcDbDictionary
281
     1
  3
ByBlock
350
3D
  3
ByLayer
350
3C
  3
Global
350
3E
  0
DICTIONARY
  5
7D
102
{ACAD_REACTORS
330
C
102
}
330
C
100
AcDbDictionary
281
     1
  0
DICTIONARY
  5
17
102
{ACAD_REACTORS
330
C
102
}
330
C
100
AcDbDictionary
281
     1
  3
Standard
350
18
  0
DICTIONARY
  5
19
102
{ACAD_REACTORS
330
C
102
}
330
C
100
AcDbDictionary
281
     1
  0
ACDBDICTIONARYWDFLT
  5
E
102
{ACAD_REACTORS
330
C
102
}
330
C
100
AcDbDictionary
281
     1
  3
Normal
350
F
100
AcDbDictionaryWithDefault
340
F
  0
DICTIONARY
  5
7C
102
{ACAD_REACTORS
330
C
102
}
330
C
100
AcDbDictionary
281
     1
  0
DICTIONARY
  5
2A
102
{ACAD_REACTORS
330
C
102
}
330
C
100
AcDbDictionary
281
     1
  3
2dWireframe
350
2F
  3
3D Hidden
350
31
  3
3dWireframe
350
30
  3
Basic
350
32
  3
Brighten
350
36
  3
ColorChange
350
3A
  3
Conceptual
350
34
  3
Dim
350
35
  3
Facepattern
350
39
  3
Flat
350
2B
  3
FlatWithEdges
350
2C
  3
Gouraud
350
2D
  3
GouraudWithEdges
350
2E
  3
Linepattern
350
38
  3
Realistic
350
33
  3
Thicken
350
37
  0
LAYOUT
  5
1E
102
{ACAD_REACTORS
330
1A
102
}
330
1A
100
AcDbPlotSettings
  1

  2
none_device
  4

  6

 40
0.0
 41
0.0
 42
0.0
 43
0.0
 44
0.0
 45
0.0
 46
0.0
 47
0.0
 48
0.0
 49
0.0
140
0.0
141
0.0
142
1.0
143
1.0
 70
   688
 72
     0
 73
     0
 74
     5
  7

 75
    16
 76
     0
 77
     2
 78
   300
147
1.0
148
0.0
149
0.0
100
AcDbLayout
  1
Layout1
 70
     1
 71
     1
 10
0.0
 20
0.0
 11
12.0
 21
9.0
 12
0.0
 22
0.0
 32
0.0
 14
1.000000000000000E+20
 24
1.000000000000000E+20
 34
1.000000000000000E+20
 15
-1.000000000000000E+20
 25
-1.000000000000000E+20
 35
-1.000000000000000E+20
146
0.0
 13
0.0
 23
0.0
 33
0.0
 16
1.0
 26
0.0
 36
0.0
 17
0.0
 27
1.0
 37
0.0
 76
     0
330
1B
  0
LAYOUT
  5
26
102
{ACAD_REACTORS
330
1A
102
}
330
1A
100
AcDbPlotSettings
  1

  2
none_device
  4

  6

 40
0.0
 41
0.0
 42
0.0
 43
0.0
 44
0.0
 45
0.0
 46
0.0
 47
0.0
 48
0.0
 49
0.0
140
0.0
141
0.0
142
1.0
143
1.0
 70
   688
 72
     0
 73
     0
 74
     5
  7

 75
    16
 76
     0
 77
     2
 78
   300
147
1.0
148
0.0
149
0.0
100
AcDbLayout
  1
Layout2
 70
     1
 71
     2
 10
0.0
 20
0.0
 11
0.0
 21
0.0
 12
0.0
 22
0.0
 32
0.0
 14
0.0
 24
0.0
 34
0.0
 15
0.0
 25
0.0
 35
0.0
146
0.0
 13
0.0
 23
0.0
 33
0.0
 16
1.0
 26
0.0
 36
0.0
 17
0.0
 27
1.0
 37
0.0
 76
     0
330
23
  0
LAYOUT
  5
22
102
{ACAD_REACTORS
330
1A
102
}
330
1A
100
AcDbPlotSettings
  1

  2
none_device
  4

  6

 40
0.0
 41
0.0
 42
0.0
 43
0.0
 44
0.0
 45
0.0
 46
0.0
 47
0.0
 48
0.0
 49
0.0
140
0.0
141
0.0
142
1.0
143
1.0
 70
  1712
 72
     0
 73
     0
 74
     0
  7

 75
     0
 76
     0
 77
     2
 78
   300
147
1.0
148
0.0
149
0.0
100
AcDbLayout
  1
Model
 70
     1
 71
     0
 10
0.0
 20
0.0
 11
12.0
 21
9.0
 12
0.0
 22
0.0
 32
0.0
 14
1.000000000000000E+20
 24
1.000000000000000E+20
 34
1.000000000000000E+20
 15
-1.000000000000000E+20
 25
-1.000000000000000E+20
 35
-1.000000000000000E+20
146
0.0
 13
0.0
 23
0.0
 33
0.0
 16
1.0
 26
0.0
 36
0.0
 17
0.0
 27
1.0
 37
0.0
 76
     0
330
1F
331
29
  0
MATERIAL
  5
3D
102
{ACAD_REACTORS
330
3B
102
}
330
3B
100
AcDbMaterial
  1
ByBlock
 72
     1
 94
      127
  0
MATERIAL
  5
3C
102
{ACAD_REACTORS
330
3B
102
}
330
3B
100
AcDbMaterial
  1
ByLayer
 72
     1
 94
      127
  0
MATERIAL
  5
3E
102
{ACAD_REACTORS
330
3B
102
}
330
3B
100
AcDbMaterial
  1
Global
 72
     1
 94
      127
  0
MLINESTYLE
  5
18
102
{ACAD_REACTORS
330
17
102
}
330
17
100
AcDbMlineStyle
  2
Standard
 70
     0
  3

 62
   256
 51
90.0
 52
90.0
 71
     2
 49
0.5
 62
   256
  6
BYLAYER
 49
-0.5
 62
   256
  6
BYLAYER
  0
ACDBPLACEHOLDER
  5
F
102
{ACAD_REACTORS
330
E
102
}
330
E
  0
VISUALSTYLE
  5
2F
102
{ACAD_REACTORS
330
2A
102
}
330
2A
100
AcDbVisualStyle
  2
2dWireframe
 70
     4
177
     2
291
     0
 71
     0
176
     1
 72
     2
176
     1
 73
     0
176
     1
 90
        0
176
     1
 40
-0.6
176
     1
 41
-30.0
176
     1
 62
     5
 63
     7
421
 16777215
176
     1
 74
     1
176
     1
 91
        4
176
     1
 64
     7
176
     1
 65
   257
176
     1
 75
     1
176
     1
175
     1
176
     1
 42
1.0
176
     1
 92
        0
176
     1
 66
   257
176
     1
 43
1.0
176
     1
 76
     1
176
     1
 77
     6
176
     1
 78
     2
176
     1
 67
     7
176
     1
 79
     5
176
     1
170
     0
176
     1
171
     0
176
     1
290
     0
176
     1
 93
        1
176
     1
 44
0.0
176
     1
173
     0
176
     1
  0
VISUALSTYLE
  5
31
102
{ACAD_REACTORS
330
2A
102
}
330
2A
100
AcDbVisualStyle
  2
3D Hidden
 70
     6
177
     2
291
     0
 71
     1
176
     1
 72
     2
176
     1
 73
     2
176
     1
 90
        0
176
     1
 40
-0.6
176
     1
 41
-30.0
176
     1
 62
     5
 63
     7
421
 16777215
176
     1
 74
     2
176
     1
 91
        2
176
     1
 64
     7
176
     1
 65
   257
176
     1
 75
     2
176
     1
175
     1
176
     1
 42
40.0
176
     1
 92
        0
176
     1
 66
   257
176
     1
 43
1.0
176
     1
 76
     1
176
     1
 77
     6
176
     1
 78
     2
176
     1
 67
     7
176
     1
 79
     3
176
     1
170
     0
176
     1
171
     0
176
     1
290
     0
176
     1
 93
        1
176
     1
 44
0.0
176
     1
173
     0
176
     1
  0
VISUALSTYLE
  5
30
102
{ACAD_REACTORS
330
2A
102
}
330
2A
100
AcDbVisualStyle
  2
3dWireframe
 70
     5
177
     2
291
     0
 71
     0
176
     1
 72
     2
176
     1
 73
     0
176
     1
 90
        0
176
     1
 40
-0.6
176
     1
 41
-30.0
176
     1
 62
     5
 63
     7
421
 16777215
176
     1
 74
     1
176
     1
 91
        4
176
     1
 64
     7
176
     1
 65
   257
176
     1
 75
     1
176
     1
175
     1
176
     1
 42
1.0
176
     1
 92
        0
176
     1
 66
   257
176
     1
 43
1.0
176
     1
 76
     1
176
     1
 77
     6
176
     1
 78
     2
176
     1
 67
     7
176
     1
 79
     5
176
     1
170
     0
176
     1
171
     0
176
     1
290
     0
176
     1
 93
        1
176
     1
 44
0.0
176
     1
173
     0
176
     1
  0
VISUALSTYLE
  5
32
102
{ACAD_REACTORS
330
2A
102
}
330
2A
100
AcDbVisualStyle
  2
Basic
 70
     7
177
     2
291
     1
 71
     1
176
     1
 72
     0
176
     1
 73
     1
176
     1
 90
        0
176
     1
 40
-0.6
176
     1
 41
-30.0
176
     1
 62
     5
 63
     7
421
 16777215
176
     1
 74
     0
176
     1
 91
        4
176
     1
 64
     7
176
     1
 65
   257
176
     1
 75
     1
176
     1
175
     1
176
     1
 42
1.0
176
     1
 92
        8
176
     1
 66
     7
176
     1
 43
1.0
176
     1
 76
     1
176
     1
 77
     6
176
     1
 78
     2
176
     1
 67
     7
176
     1
 79
     5
176
     1
170
     0
176
     1
171
     0
176
     1
290
     0
176
     1
 93
        1
176
     1
 44
0.0
176
     1
173
     0
176
     1
  0
VISUALSTYLE
  5
36
102
{ACAD_REACTORS
330
2A
102
}
330
2A
100
AcDbVisualStyle
  2
Brighten
 70
    12
177
     2
291
     1
 71
     2
176
     1
 72
     2
176
     1
 73
     0
176
     1
 90
        0
176
     1
 40
-0.6
176
     1
 41
-30.0
176
     1
 62
     5
 63
     7
421
 16777215
176
     1
 74
     1
176
     1
 91
        4
176
     1
 64
     7
176
     1
 65
   257
176
     1
 75
     1
176
     1
175
     1
176
     1
 42
1.0
176
     1
 92
        8
176
     1
 66
     7
176
     1
 43
1.0
176
     1
 76
     1
176
     1
 77
     6
176
     1
 78
     2
176
     1
 67
     7
176
     1
 79
     5
176
     1
170
     0
176
     1
171
     0
176
     1
290
     0
176
     1
 93
        1
176
     1
 44
50.0
176
     1
173
     0
176
     1
  0
VISUALSTYLE
  5
3A
102
{ACAD_REACTORS
330
2A
102
}
330
2A
100
AcDbVisualStyle
  2
ColorChange
 70
    16
177
     2
291
     1
 71
     2
176
     1
 72
     2
176
     1
 73
     3
176
     1
 90
        0
176
     1
 40
-0.6
176
     1
 41
-30.0
176
     1
 62
     5
 63
     8
421
  8421504
176
     1
 74
     1
176
     1
 91
        4
176
     1
 64
     7
176
     1
 65
   257
176
     1
 75
     1
176
     1
175
     1
176
     1
 42
1.0
176
     1
 92
        8
176
     1
 66
     8
424
  8421504
176
     1
 43
1.0
176
     1
 76
     1
176
     1
 77
     6
176
     1
 78
     2
176
     1
 67
     7
176
     1
 79
     5
176
     1
170
     0
176
     1
171
     0
176
     1
290
     0
176
     1
 93
        1
176
     1
 44
0.0
176
     1
173
     0
176
     1
  0
VISUALSTYLE
  5
34
102
{ACAD_REACTORS
330
2A
102
}
330
2A
100
AcDbVisualStyle
  2
Conceptual
 70
     9
177
     2
291
     0
 71
     3
176
     1
 72
     2
176
     1
 73
     0
176
     1
 90
        0
176
     1
 40
-0.6
176
     1
 41
-30.0
176
     1
 62
     5
 63
     7
421
 16777215
176
     1
 74
     2
176
     1
 91
        2
176
     1
 64
     7
176
     1
 65
   257
176
     1
 75
     1
176
     1
175
     1
176
     1
 42
40.0
176
     1
 92
        8
176
     1
 66
     7
176
     1
 43
1.0
176
     1
 76
     1
176
     1
 77
     6
176
     1
 78
     2
176
     1
 67
     7
176
     1
 79
     3
176
     1
170
     0
176
     1
171
     0
176
     1
290
     0
176
     1
 93
        1
176
     1
 44
0.0
176
     1
173
     0
176
     1
  0
VISUALSTYLE
  5
35
102
{ACAD_REACTORS
330
2A
102
}
330
2A
100
AcDbVisualStyle
  2
Dim
 70
    11
177
     2
291
     1
 71
     2
176
     1
 72
     2
176
     1
 73
     0
176
     1
 90
        0
176
     1
 40
-0.6
176
     1
 41
-30.0
176
     1
 62
     5
 63
     7
421
 16777215
176
     1
 74
     1
176
     1
 91
        4
176
     1
 64
     7
176
     1
 65
   257
176
     1
 75
     1
176
     1
175
     1
176
     1
 42
1.0
176
     1
 92
        8
176
     1
 66
     7
176
     1
 43
1.0
176
     1
 76
     1
176
     1
 77
     6
176
     1
 78
     2
176
     1
 67
     7
176
     1
 79
     5
176
     1
170
     0
176
     1
171
     0
176
     1
290
     0
176
     1
 93
        1
176
     1
 44
-50.0
176
     1
173
     0
176
     1
  0
VISUALSTYLE
  5
39
102
{ACAD_REACTORS
330
2A
102
}
330
2A
100
AcDbVisualStyle
  2
Facepattern
 70
    15
177
     2
291
     1
 71
     2
176
     1
 72
     2
176
     1
 73
     0
176
     1
 90
        0
176
     1
 40
-0.6
176
     1
 41
-30.0
176
     1
 62
     5
 63
     7
421
 16777215
176
     1
 74
     1
176
     1
 91
        4
176
     1
 64
     7
176
     1
 65
   257
176
     1
 75
     1
176
     1
175
     1
176
     1
 42
1.0
176
     1
 92
        8
176
     1
 66
     7
176
     1
 43
1.0
176
     1
 76
     1
176
     1
 77
     6
176
     1
 78
     2
176
     1
 67
     7
176
     1
 79
     5
176
     1
170
     0
176
     1
171
     0
176
     1
290
     0
176
     1
 93
        1
176
     1
 44
0.0
176
     1
173
     0
176
     1
  0
VISUALSTYLE
  5
2B
102
{ACAD_REACTORS
330
2A
102
}
330
2A
100
AcDbVisualStyle
  2
Flat
 70
     0
177
     2
291
     1
 71
     2
176
     1
 72
     1
176
     1
 73
     1
176
     1
 90
        2
176
     1
 40
-0.6
176
     1
 41
30.0
176
     1
 62
     5
 63
     7
421
 16777215
176
     1
 74
     0
176
     1
 91
        4
176
     1
 64
     7
176
     1
 65
   257
176
     1
 75
     1
176
     1
175
     1
176
     1
 42
1.0
176
     1
 92
        8
176
     1
 66
     7
176
     1
 43
1.0
176
     1
 76
     1
176
     1
 77
     6
176
     1
 78
     2
176
     1
 67
     7
176
     1
 79
     5
176
     1
170
     0
176
     1
171
     0
176
     1
290
     0
176
     1
 93
       13
176
     1
 44
0.0
176
     1
173
     0
176
     1
  0
VISUALSTYLE
  5
2C
102
{ACAD_REACTORS
330
2A
102
}
330
2A
100
AcDbVisualStyle
  2
FlatWithEdges
 70
     1
177
     2
291
     1
 71
     2
176
     1
 72
     1
176
     1
 73
     1
176
     1
 90
        2
176
     1
 40
-0.6
176
     1
 41
30.0
176
     1
 62
     5
 63
     7
421
 16777215
176
     1
 74
     1
176
     1
 91
        4
176
     1
 64
     7
176
     1
 65
   257
176
     1
 75
     1
176
     1
175
     1
176
     1
 42
1.0
176
     1
 92
        0
176
     1
 66
   257
176
     1
 43
1.0
176
     1
 76
     1
176
     1
 77
     6
176
     1
 78
     2
176
     1
 67
     7
176
     1
 79
     5
176
     1
170
     0
176
     1
171
     0
176
     1
290
     0
176
     1
 93
       13
176
     1
 44
0.0
176
     1
173
     0
176
     1
  0
VISUALSTYLE
  5
2D
102
{ACAD_REACTORS
330
2A
102
}
330
2A
100
AcDbVisualStyle
  2
Gouraud
 70
     2
177
     2
291
     1
 71
     2
176
     1
 72
     2
176
     1
 73
     1
176
     1
 90
        2
176
     1
 40
-0.6
176
     1
 41
30.0
176
     1
 62
     5
 63
     7
421
 16777215
176
     1
 74
     0
176
     1
 91
        4
176
     1
 64
     7
176
     1
 65
   257
176
     1
 75
     1
176
     1
175
     1
176
     1
 42
1.0
176
     1
 92
        0
176
     1
 66
     7
176
     1
 43
1.0
176
     1
 76
     1
176
     1
 77
     6
176
     1
 78
     2
176
     1
 67
     7
176
     1
 79
     5
176
     1
170
     0
176
     1
171
     0
176
     1
290
     0
176
     1
 93
       13
176
     1
 44
0.0
176
     1
173
     0
176
     1
  0
VISUALSTYLE
  5
2E
102
{ACAD_REACTORS
330
2A
102
}
330
2A
100
AcDbVisualStyle
  2
GouraudWithEdges
 70
     3
177
     2
291
     1
 71
     2
176
     1
 72
     2
176
     1
 73
     1
176
     1
 90
        2
176
     1
 40
-0.6
176
     1
 41
30.0
176
     1
 62
     5
 63
     7
421
 16777215
176
     1
 74
     1
176
     1
 91
        4
176
     1
 64
     7
176
     1
 65
   257
176
     1
 75
     1
176
     1
175
     1
176
     1
 42
1.0
176
     1
 92
        0
176
     1
 66
   257
176
     1
 43
1.0
176
     1
 76
     1
176
     1
 77
     6
176
     1
 78
     2
176
     1
 67
     7
176
     1
 79
     5
176
     1
170
     0
176
     1
171
     0
176
     1
290
     0
176
     1
 93
       13
176
     1
 44
0.0
176
     1
173
     0
176
     1
  0
VISUALSTYLE
  5
38
102
{ACAD_REACTORS
330
2A
102
}
330
2A
100
AcDbVisualStyle
  2
Linepattern
 70
    14
177
     2
291
     1
 71
     2
176
     1
 72
     2
176
     1
 73
     0
176
     1
 90
        0
176
     1
 40
-0.6
176
     1
 41
-30.0
176
     1
 62
     5
 63
     7
421
 16777215
176
     1
 74
     1
176
     1
 91
        4
176
     1
 64
     7
176
     1
 65
   257
176
     1
 75
     7
176
     1
175
     7
176
     1
 42
1.0
176
     1
 92
        8
176
     1
 66
     7
176
     1
 43
1.0
176
     1
 76
     1
176
     1
 77
     6
176
     1
 78
     2
176
     1
 67
     7
176
     1
 79
     5
176
     1
170
     0
176
     1
171
     0
176
     1
290
     0
176
     1
 93
        1
176
     1
 44
0.0
176
     1
173
     0
176
     1
  0
VISUALSTYLE
  5
33
102
{ACAD_REACTORS
330
2A
102
}
330
2A
100
AcDbVisualStyle
  2
Realistic
 70
     8
177
     2
291
     0
 71
     2
176
     1
 72
     2
176
     1
 73
     0
176
     1
 90
        0
176
     1
 40
-0.6
176
     1
 41
-30.0
176
     1
 62
     5
 63
     7
421
 16777215
176
     1
 74
     1
176
     1
 91
        0
176
     1
 64
     7
176
     1
 65
   257
176
     1
 75
     1
176
     1
175
     1
176
     1
 42
1.0
176
     1
 92
        8
176
     1
 66
     8
424
  7895160
176
     1
 43
1.0
176
     1
 76
     1
176
     1
 77
     6
176
     1
 78
     2
176
     1
 67
     7
176
     1
 79
     5
176
     1
170
     0
176
     1
171
     0
176
     1
290
     0
176
     1
 93
       13
176
     1
 44
0.0
176
     1
173
     0
176
     1
  0
VISUALSTYLE
  5
37
102
{ACAD_REACTORS
330
2A
102
}
330
2A
100
AcDbVisualStyle
  2
Thicken
 70
    13
177
     2
291
     1
 71
     2
176
     1
 72
     2
176
     1
 73
     0
176
     1
 90
        0
176
     1
 40
-0.6
176
     1
 41
-30.0
176
     1
 62
     5
 63
     7
421
 16777215
176
     1
 74
     1
176
     1
 91
        4
176
     1
 64
     7
176
     1
 65
   257
176
     1
 75
     1
176
     1
175
     1
176
     1
 42
1.0
176
     1
 92
       12
176
     1
 66
     7
176
     1
 43
1.0
176
     1
 76
     1
176
     1
 77
     6
176
     1
 78
     2
176
     1
 67
     7
176
     1
 79
     5
176
     1
170
     0
176
     1
171
     0
176
     1
290
     0
176
     1
 93
        1
176
     1
 44
0.0
176
     1
173
     0
176
     1
  0
ENDSEC
  0
EOF
