<?xml version="1.0" encoding="utf-8"?>
<!-- Generator: Fusion 360, Shaper Origin Export Add-In, Version 1.6.10  -->
<svg xmlns="http://www.w3.org/2000/svg" xmlns:xlink="http://www.w3.org/1999/xlink" xmlns:shaper="http://www.shapertools.com/namespaces/shaper" shaper:fusionaddin="version:1.6.10" width="4.041775cm" height="1.4176375cm" version="1.1" x="0cm" y="0cm" viewBox="0 0 4.041775 1.4176375" enable-background="new 0 0 4.041775 1.4176375" xml:space="preserve"><path d="M-2.0208875,1.0366375 L-2.0208875,-0.1778 2.0208875,-0.1778 2.0208875,1.0366375 A0.2032,0.2032 0 0,1 1.8176875,1.2398375 L-1.8176875,1.2398375 A0.2032,0.2032 90 0,1 -2.0208875,1.0366375z" transform="matrix(1,0,0,-1,2.0208875,1.2398375)" fill="rgb(0,0,0)" shaper:cutDepth="0.0015875" stroke-linecap="round" stroke-linejoin="round" /><path d="M1.2382325,0.4957481 L1.1424128,0.4957481 1.1424128,0.4957481 1.1339164,0.4963038 1.1297665,0.4972947 1.1258571,0.4989833 1.122488,0.5015904 1.1200765,0.5050949 1.1188282,0.5091671 1.118581,0.5134218 1.118581,0.5134218 1.1193351,0.5185632 1.1214485,0.5233015 1.1250634,0.5270247 1.1296656,0.5294328 1.1296656,0.5294328 1.1366539,0.530552 1.1437375,0.530726 1.2382325,0.530726 1.2382325,0.6496384 1.2382325,0.6496384 1.2382606,0.6555394 1.2385474,0.6584777 1.2394641,0.6612772 1.2394641,0.6612772 1.2417514,0.6660537 1.2456071,0.6696857 1.2504556,0.6718647 1.2557214,0.6726081 1.2557214,0.6726081 1.2606758,0.6718502 1.2653104,0.6699592 1.2691538,0.6667488 1.2719172,0.6625704 1.2719172,0.6625704 1.2728337,0.6594391 1.2731179,0.6561833 1.2732104,0.6496502 1.2732104,0.4130451 1.2732104,0.4130451 1.2729524,0.4080078 1.2720465,0.4030466 1.270153,0.398376 1.2671692,0.3943137 1.2630432,0.3914258 1.2582721,0.3897957 1.2532694,0.3891818 1.2482269,0.3893365 1.1036785,0.3893365 1.1036785,0.3893365 1.0956689,0.3901793 1.0917729,0.3912446 1.088173,0.3930386 1.0850847,0.3956383 1.0828838,0.3990048 1.0815721,0.4028171 1.0811399,0.4068254 1.0811399,0.4068254 1.0814955,0.4108774 1.0827445,0.4147472 1.0849203,0.418171 1.0880519,0.4207726 1.0917054,0.4225422 1.0956346,0.423618 1.1037261,0.4243145 1.2382325,0.4243145 1.2382325,0.4957481z" transform="matrix(1,0,0,-1,2.0208875,1.2398375)" fill="rgb(104,104,104)" fill-rule="nonzero" shaper:cutDepth="0.0000762" stroke-linecap="round" stroke-linejoin="round" /><path d="M1.4747027,0.4957481 L1.378883,0.4957481 1.378883,0.4957481 1.3703866,0.4963038 1.3662366,0.4972947 1.3623272,0.4989833 1.3589582,0.5015904 1.3565466,0.5050949 1.3552984,0.5091671 1.3550512,0.5134218 1.3550512,0.5134218 1.3558053,0.5185632 1.3579187,0.5233015 1.3615336,0.5270247 1.3661358,0.5294328 1.3661358,0.5294328 1.3731241,0.530552 1.3802077,0.530726 1.4747027,0.530726 1.4747027,0.6496384 1.4747027,0.6496384 1.4747308,0.6555394 1.4750176,0.6584777 1.4759343,0.6612772 1.4759343,0.6612772 1.4782216,0.6660537 1.4820773,0.6696857 1.4869258,0.6718647 1.4921916,0.6726081 1.4921916,0.6726081 1.497146,0.6718502 1.5017805,0.6699592 1.505624,0.6667488 1.5083874,0.6625704 1.5083874,0.6625704 1.5093039,0.6594391 1.5095881,0.6561833 1.5096806,0.6496502 1.5096806,0.4130451 1.5096806,0.4130451 1.5094226,0.4080078 1.5085167,0.4030466 1.5066232,0.398376 1.5036394,0.3943137 1.4995134,0.3914258 1.4947423,0.3897957 1.4897396,0.3891818 1.4846971,0.3893365 1.3401487,0.3893365 1.3401487,0.3893365 1.3321391,0.3901793 1.3282431,0.3912446 1.3246432,0.3930386 1.3215549,0.3956383 1.319354,0.3990048 1.3180423,0.4028171 1.3176101,0.4068254 1.3176101,0.4068254 1.3179657,0.4108774 1.3192147,0.4147472 1.3213905,0.418171 1.3245221,0.4207726 1.3281756,0.4225422 1.3321047,0.423618 1.3401963,0.4243145 1.4747027,0.4243145 1.4747027,0.4957481z" transform="matrix(1,0,0,-1,2.0208875,1.2398375)" fill="rgb(104,104,104)" fill-rule="nonzero" shaper:cutDepth="0.0000762" stroke-linecap="round" stroke-linejoin="round" /><path d="M1.6555038,0.3853953 L1.6555038,0.3853953 1.6478703,0.3857932 1.6403105,0.3869284 1.6328834,0.3887352 1.6256368,0.3911697 1.6186036,0.3941642 1.611831,0.3977097 1.599219,0.4063328 1.599219,0.4063328 1.5930203,0.4120322 1.5874093,0.4183156 1.5823952,0.4250786 1.5778908,0.432198 1.5705677,0.4473576 1.5651809,0.4633112 1.5614635,0.4797376 1.559076,0.4964117 1.5578366,0.5132097 1.5574672,0.5300486 1.5574672,0.5300486 1.5578437,0.5459546 1.5590333,0.5618172 1.5612626,0.5775728 1.5647337,0.5930958 1.5696175,0.6082396 1.5761657,0.6227321 1.5846121,0.636216 1.5949699,0.6482837 1.5949699,0.6482837 1.6012311,0.6536255 1.6079897,0.6583219 1.6151253,0.6624235 1.6226121,0.6658413 1.6303486,0.6686506 1.6383059,0.6707505 1.6464292,0.6720745 1.6546417,0.6726081 1.6546417,0.6726081 1.6649117,0.6717614 1.6750172,0.6697402 1.6848221,0.6665685 1.6942516,0.6624098 1.7032435,0.6573744 1.7116996,0.651485 1.7195038,0.6447538 1.7264449,0.6371375 1.7264449,0.6371375 1.7342275,0.624751 1.7403645,0.6114642 1.745173,0.5976447 1.7487116,0.5834473 1.751175,0.5690207 1.752847,0.5544829 1.7540331,0.5252453 1.7540331,0.5252453 1.7536242,0.5103742 1.7524546,0.4955449 1.7502813,0.4808278 1.747082,0.4662999 1.7426993,0.4520833 1.7368521,0.4384095 1.7294178,0.4255217 1.7202868,0.4137841 1.7202868,0.4137841 1.7135902,0.4077008 1.7063702,0.4022489 1.6986519,0.3975288 1.6905653,0.393471 1.682141,0.3901731 1.6734636,0.3876124 1.6645603,0.3860052 1.6555343,0.3853954 1.6555038,0.3853953z M1.5924451,0.5278932 L1.5924451,0.5278932 1.5926645,0.5153629 1.5935337,0.5028654 1.5951705,0.4904379 1.5977361,0.4781763 1.6014256,0.4661973 1.6064546,0.4547279 1.613068,0.4440807 1.6213881,0.4347215 1.6213881,0.4347215 1.6289121,0.4290276 1.6372479,0.424605 1.6461728,0.4215601 1.6555199,0.4203741 1.6555199,0.4203741 1.6661653,0.4218568 1.6762852,0.4255079 1.6856415,0.4308167 1.6938687,0.437739 1.6938687,0.437739 1.7011551,0.4469438 1.7067921,0.4572536 1.7110306,0.4682059 1.7141798,0.4795258 1.7164439,0.4910521 1.7179426,0.502706 1.7190552,0.526169 1.7190552,0.526169 1.7182722,0.5489787 1.7171136,0.5603328 1.7153402,0.5716081 1.7128003,0.582734 1.7092733,0.5935869 1.7045806,0.603991 1.6985488,0.6136753 1.6985488,0.6136753 1.6945491,0.6186363 1.6900451,0.623143 1.6850936,0.6271552 1.679738,0.6306071 1.6740477,0.6334766 1.6680673,0.6356738 1.661851,0.6370758 1.6555038,0.6376302 1.6555038,0.6376302 1.6499464,0.6372002 1.6444915,0.6360396 1.6340882,0.6320715 1.6245844,0.6262656 1.6162769,0.6188481 1.6162769,0.6188481 1.6092552,0.6091377 1.6038109,0.5984507 1.5996782,0.5871998 1.5966933,0.575586 1.5946246,0.5637756 1.5933314,0.5518545 1.5924451,0.5278932z" transform="matrix(1,0,0,-1,2.0208875,1.2398375)" fill="rgb(104,104,104)" fill-rule="nonzero" shaper:cutDepth="0.0000762" stroke-linecap="round" stroke-linejoin="round" /><path d="M0.9544353,0.2067388 L0.9544353,0.2067388 0.9549194,0.214748 0.9559095,0.2186477 0.9576544,0.2222592 0.9602937,0.2252887 0.9637579,0.2273071 0.967661,0.2282498 0.9716779,0.2283537 0.9716779,0.2283537 0.9756496,0.2279797 0.979498,0.2269385 0.9830125,0.2250528 0.9860263,0.2224419 0.9860263,0.2224419 0.9883454,0.2184628 0.9891729,0.2139031 0.9894133,0.2046452 0.9894133,-0.0199399 1.0319655,-0.01994 1.0319655,-0.01994 1.0398888,-0.0207567 1.043697,-0.0219577 1.0471321,-0.0239703 1.049967,-0.0267762 1.0518753,-0.0302738 1.0528841,-0.0341306 1.0532109,-0.0381064 1.0532109,-0.0381064 1.0528941,-0.0421647 1.051687,-0.0460468 1.0493343,-0.0493699 1.0461106,-0.0518344 1.0423433,-0.0533893 1.0383898,-0.0543635 1.0302759,-0.0549178 0.9113903,-0.0549179 0.9113903,-0.0549179 0.9035775,-0.0540784 0.8998381,-0.0528463 0.8964558,-0.0508423 0.8937219,-0.0480164 0.8918731,-0.0445456 0.8908951,-0.0407358 0.890576,-0.0368132 0.890576,-0.0368132 0.8909383,-0.0329148 0.8920729,-0.0291708 0.89422,-0.0258979 0.8971838,-0.0233526 0.9007235,-0.0216743 0.9045038,-0.0206547 0.9122957,-0.0199399 0.9544353,-0.0199399 0.9544353,0.2067388z" transform="matrix(1,0,0,-1,2.0208875,1.2398375)" fill="rgb(104,104,104)" fill-rule="nonzero" shaper:cutDepth="0.0000762" stroke-linecap="round" stroke-linejoin="round" /><path d="M1.1269847,0.0554349 L1.2228043,0.0554349 1.2228043,-0.0352104 1.2228043,-0.0352104 1.2235375,-0.0427381 1.2246929,-0.0463485 1.2265436,-0.0496524 1.2292531,-0.0522923 1.2326191,-0.0540243 1.2363206,-0.0548233 1.2401085,-0.0549179 1.2401085,-0.0549179 1.2439836,-0.0547721 1.247755,-0.053889 1.2512084,-0.0521423 1.2538689,-0.0493296 1.2555518,-0.0458441 1.2564742,-0.0420752 1.2570433,-0.0343499 1.2570433,0.2089329 1.2570433,0.2089329 1.2564972,0.2164151 1.255463,0.2200341 1.2536459,0.2233172 1.250936,0.2259163 1.2475567,0.2275527 1.2438661,0.2282587 1.2401085,0.2283537 1.2401085,0.2283537 1.2363045,0.2282646 1.2325631,0.2275785 1.2291167,0.2259749 1.2263174,0.2234045 1.2243935,0.2201263 1.2233127,0.2164769 1.2228043,0.2088942 1.2228043,0.0864716 1.1269847,0.0864716 1.1269847,0.2072142 1.1269847,0.2072142 1.1265009,0.215116 1.1256514,0.2189929 1.1240701,0.2226187 1.1213965,0.2255333 1.1178713,0.2273281 1.1140114,0.2282111 1.1100499,0.2283537 1.1100499,0.2283537 1.1022202,0.2274057 1.0986714,0.2256724 1.0958794,0.2228934 1.0941637,0.2193295 1.0932313,0.2154887 1.0927457,0.207601 1.0927457,-0.0352104 1.0927457,-0.0352104 1.0932902,-0.0427401 1.0942626,-0.0463966 1.096023,-0.0497358 1.0987555,-0.0523357 1.1021411,-0.0540079 1.105842,-0.0547705 1.1096189,-0.0549179 1.1096189,-0.0549179 1.1166859,-0.0538604 1.1199777,-0.0524396 1.122854,-0.0503031 1.1250576,-0.0474777 1.1264806,-0.0441905 1.1269847,-0.0370595 1.1269847,-0.0361409 1.1269847,0.0554349z" transform="matrix(1,0,0,-1,2.0208875,1.2398375)" fill="rgb(104,104,104)" fill-rule="nonzero" shaper:cutDepth="0.0000762" stroke-linecap="round" stroke-linejoin="round" /><path d="M1.3573583,0.1022362 L1.336199,0.1022363 1.336199,0.1465142 1.336199,0.1465142 1.3365533,0.1545676 1.3375081,0.1625667 1.3393682,0.1704138 1.3424217,0.1778664 1.3470172,0.1844882 1.3499558,0.1872462 1.3533076,0.1894939 1.3608135,0.1924198 1.3688124,0.1933758 1.3688124,0.1933758 1.3755022,0.1925919 1.3819288,0.1905786 1.3878259,0.1873266 1.3930136,0.1830302 1.3930136,0.1830302 1.4013408,0.1728495 1.4084507,0.1617837 1.4142418,0.149973 1.418974,0.1377003 1.4226614,0.1250736 1.425297,0.1121859 1.4268266,0.0991218 1.4273757,0.0859789 1.4273757,0.0859789 1.4264016,0.0696994 1.4239476,0.053575 1.4199176,0.0377727 1.4141765,0.0225107 1.4066231,0.0080609 1.4021072,0.0012682 1.3969434,-0.0050444 1.3910434,-0.0106731 1.3843319,-0.0152949 1.3768261,-0.0184938 1.3688124,-0.01994 1.3688124,-0.01994 1.3628833,-0.0194069 1.3572521,-0.0174556 1.3522045,-0.0142983 1.3478171,-0.0102646 1.3404041,-0.0009358 1.3340192,0.0091261 1.3340192,0.0091261 1.3313174,0.0132738 1.3279874,0.016933 1.3236535,0.0193104 1.3187472,0.0199643 1.3187472,0.0199643 1.3150554,0.0195455 1.3115084,0.0184434 1.3083354,0.0165111 1.3056395,0.0139566 1.3035264,0.0109 1.3020007,0.0075124 1.3008272,0.0001969 1.3008272,0.0001969 1.3019251,-0.0065883 1.3048824,-0.0128244 1.3127739,-0.0241275 1.3127739,-0.0241275 1.3241282,-0.0363318 1.3305165,-0.0416887 1.3374172,-0.0463713 1.3448524,-0.0501399 1.3527337,-0.0528583 1.3609201,-0.0544381 1.3692434,-0.0549179 1.3692434,-0.0549179 1.3810644,-0.0537869 1.3924909,-0.0505568 1.4032625,-0.0455607 1.4129658,-0.0387222 1.4129658,-0.0387222 1.424836,-0.0260774 1.4349258,-0.0119684 1.4432698,0.0032394 1.450027,0.0192201 1.4552999,0.0357559 1.4591685,0.0526734 1.4614544,0.0698759 1.462292,0.0872105 1.462292,0.0872105 1.4618164,0.1004222 1.4605183,0.1135783 1.4583197,0.1266146 1.4552558,0.1394746 1.4513899,0.1521173 1.4466105,0.1644427 1.4408692,0.1763514 1.4342112,0.1877719 1.4342112,0.1877719 1.4285027,0.1958895 1.4222133,0.2035624 1.4151944,0.2105791 1.4074132,0.2167331 1.3988868,0.2218113 1.3896792,0.2254951 1.3800045,0.2277048 1.3701056,0.2283537 1.3701056,0.2283537 1.3611128,0.2277051 1.3522972,0.2258094 1.3437971,0.2228042 1.3357426,0.2187505 1.3282713,0.2137033 1.3214841,0.2077661 1.3154465,0.2010706 1.3101875,0.1937453 1.3101875,0.1937453 1.3057407,0.1854206 1.3028572,0.1764364 1.3015627,0.1670928 1.3012583,0.1576589 1.3012955,0.0909937 1.3012955,0.0909937 1.301716,0.0813253 1.3029048,0.0766267 1.3052903,0.0724194 1.3091844,0.0695563 1.3137743,0.0680201 1.3234273,0.0672584 1.3561355,0.0672584 1.3561355,0.0672584 1.3634746,0.0674561 1.3671159,0.0679785 1.3705366,0.0692905 1.3705366,0.0692905 1.3743197,0.0721448 1.3770885,0.0760075 1.3788431,0.0804108 1.3794658,0.0851168 1.3794658,0.0851168 1.3787784,0.0897197 1.3770887,0.0940477 1.3742824,0.0977581 1.3705366,0.100512 1.3705366,0.100512 1.3640408,0.1020275 1.3573583,0.1022362z" transform="matrix(1,0,0,-1,2.0208875,1.2398375)" fill="rgb(104,104,104)" fill-rule="nonzero" shaper:cutDepth="0.0000762" stroke-linecap="round" stroke-linejoin="round" /><path d="M1.5065686,0.2088942 L1.5065686,0.2088942 1.5072151,0.2163023 1.5083003,0.2198721 1.5101061,0.2231242 1.5127449,0.2257521 1.5160818,0.2273994 1.5197181,0.2282017 1.5234417,0.2283537 1.5234417,0.2283537 1.5274839,0.2280071 1.5314013,0.2269556 1.534967,0.2250215 1.5380979,0.2224419 1.5380979,0.2224419 1.539932,0.2194579 1.5405675,0.2159845 1.5408075,0.2089362 1.5408075,-0.0346578 1.5408075,-0.0346578 1.540185,-0.0423666 1.5391264,-0.0461012 1.5372711,-0.0494911 1.5345435,-0.0522427 1.531101,-0.0540074 1.5273153,-0.0548209 1.5234417,-0.0549179 1.5234417,-0.0549179 1.5197696,-0.0547713 1.5161801,-0.0539968 1.5128707,-0.052407 1.5101995,-0.0498896 1.5083519,-0.0467187 1.5072284,-0.0432167 1.5065686,-0.0359141 1.5065686,0.2088942z" transform="matrix(1,0,0,-1,2.0208875,1.2398375)" fill="rgb(104,104,104)" fill-rule="nonzero" shaper:cutDepth="0.0000762" stroke-linecap="round" stroke-linejoin="round" /><path d="M1.6199388,-0.0322562 L1.6199633,0.1394729 1.7128797,-0.0440965 1.7128797,-0.0440965 1.7156697,-0.0487 1.7195695,-0.052394 1.7244952,-0.0545467 1.7298605,-0.0549179 1.7298605,-0.0549179 1.7331664,-0.0546941 1.7363573,-0.0538096 1.7392881,-0.0522659 1.7418071,-0.0501146 1.7418071,-0.0501146 1.7446972,-0.0465898 1.745745,-0.0421418 1.7460562,-0.0329951 1.7460806,0.2055236 1.7460806,0.2055236 1.7455555,0.2137715 1.744728,0.2178177 1.7431905,0.2216573 1.7406331,0.2248874 1.7371072,0.2270296 1.7331249,0.2281251 1.7289983,0.2283537 1.7289983,0.2283537 1.725156,0.2280855 1.721417,0.2271666 1.7180285,0.2253412 1.7152405,0.2226894 1.7132595,0.2193894 1.7120417,0.2157342 1.7111399,0.2080936 1.7111771,0.0335345 1.6186863,0.2183906 1.6186863,0.2183906 1.6157609,0.2225841 1.6119157,0.2259492 1.6071665,0.2278317 1.6020804,0.2283537 1.6020804,0.2283537 1.5983477,0.2281368 1.5947306,0.2271994 1.5914568,0.2254002 1.5888134,0.222763 1.5869839,0.2195052 1.5858362,0.215945 1.5850225,0.2085247 1.5850597,-0.0338029 1.5850597,-0.0338029 1.5855978,-0.0417449 1.5865651,-0.0456121 1.5883295,-0.0491798 1.5911063,-0.0520248 1.5946482,-0.0538378 1.5985326,-0.0547125 1.6025114,-0.0549179 1.6025114,-0.0549179 1.606682,-0.054759 1.6107297,-0.0537538 1.6143665,-0.0517299 1.6170329,-0.0485274 1.6186105,-0.0446704 1.6194663,-0.0405809 1.6199388,-0.0322562z" transform="matrix(1,0,0,-1,2.0208875,1.2398375)" fill="rgb(104,104,104)" fill-rule="nonzero" shaper:cutDepth="0.0000762" stroke-linecap="round" stroke-linejoin="round" /><path d="M-1.0355987,-0.0549179 L-1.0355987,-0.0549179 -1.045485,-0.0545899 -1.0553035,-0.0533973 -1.0649557,-0.0512343 -1.0743341,-0.0480923 -1.0833334,-0.0439878 -1.0918025,-0.0388786 -1.0997148,-0.0329437 -1.1069708,-0.0262213 -1.1069708,-0.0262213 -1.1170795,-0.0148506 -1.1257918,-0.0023754 -1.1330449,0.0109965 -1.1386466,0.025144 -1.1426494,0.039821 -1.1452262,0.0548198 -1.1466427,0.069967 -1.1470599,0.0851784 -1.1470599,0.0851784 -1.1463912,0.1071231 -1.1452893,0.1180475 -1.1435193,0.128883 -1.1408978,0.1395445 -1.1373848,0.1499457 -1.1331589,0.1600795 -1.1281546,0.1698519 -1.1281546,0.1698519 -1.1208202,0.182239 -1.1123197,0.1938557 -1.1024075,0.2042882 -1.0911234,0.2132115 -1.078502,0.2201175 -1.0649432,0.2249297 -1.0507947,0.2275453 -1.0364268,0.2283537 -0.976358,0.2283537 -0.976358,0.2283537 -0.9713188,0.2281944 -0.9663371,0.2274112 -0.9616761,0.2255061 -0.9579031,0.2221922 -0.9557281,0.2176454 -0.95467,0.2127169 -0.9544352,0.2026456 -0.9544352,-0.032872 -0.9544352,-0.032872 -0.9545015,-0.0374826 -0.9552715,-0.0420266 -0.9570498,-0.0462774 -0.9598942,-0.0498993 -0.9636841,-0.0525154 -0.9680292,-0.0540563 -0.9771931,-0.0549179 -1.0355987,-0.0549179z M-0.9894131,-0.0199399 L-0.9894131,0.1933758 -1.0364608,0.1933758 -1.0364608,0.1933758 -1.0475194,0.1929109 -1.0583962,0.1909078 -1.0636197,0.1890892 -1.0685893,0.1866522 -1.0774736,0.1800743 -1.0774736,0.1800743 -1.0833838,0.1744656 -1.0887691,0.16835 -1.0935942,0.1617849 -1.0978518,0.1548364 -1.1015996,0.1476022 -1.1047558,0.1400888 -1.1074561,0.1324017 -1.1095572,0.1245285 -1.1095572,0.1245285 -1.1112884,0.1168608 -1.1119807,0.109031 -1.112082,0.093307 -1.112082,0.093307 -1.1118144,0.0629169 -1.1113427,0.0553337 -1.1100622,0.0478479 -1.1079745,0.0405407 -1.1052466,0.0334505 -1.1052466,0.0334505 -1.0981976,0.0189943 -1.0939145,0.0121823 -1.0891272,0.0057153 -1.0838159,-0.0003291 -1.0779955,-0.0058828 -1.0716332,-0.0108111 -1.0646648,-0.0148288 -1.0646648,-0.0148288 -1.0581013,-0.0176691 -1.051134,-0.0192701 -1.0368542,-0.0199399 -0.9894131,-0.0199399z" transform="matrix(1,0,0,-1,2.0208875,1.2398375)" fill="rgb(104,104,104)" fill-rule="nonzero" shaper:cutDepth="0.0000762" stroke-linecap="round" stroke-linejoin="round" /><path d="M-1.240445,0.1810597 L-1.2268686,0.2162838 -1.2268686,0.2162838 -1.2240995,0.2212334 -1.2201213,0.2252674 -1.2150053,0.2276876 -1.2093797,0.2283537 -1.2093797,0.2283537 -1.2026837,0.2272973 -1.1995824,0.2259055 -1.1967843,0.223976 -1.1943831,0.2215701 -1.1925723,0.2186943 -1.1914933,0.2154721 -1.1910902,0.2120963 -1.1910902,0.2120963 -1.1913801,0.2088433 -1.1922871,0.2057017 -1.1944745,0.1995409 -1.2856167,-0.0414933 -1.2856167,-0.0414933 -1.288203,-0.0468484 -1.2920006,-0.0514076 -1.2971547,-0.0543178 -1.303044,-0.0549179 -1.303044,-0.0549179 -1.3066504,-0.0547842 -1.3101825,-0.0540372 -1.3134585,-0.052547 -1.3162021,-0.0501978 -1.3201623,-0.0441765 -1.3230217,-0.0375569 -1.4149979,0.2024282 -1.4149979,0.2024282 -1.4167221,0.2120963 -1.4167221,0.2120963 -1.4162953,0.2154634 -1.4151905,0.2186714 -1.4133298,0.2215097 -1.4109458,0.2239234 -1.4050523,0.2272415 -1.3983711,0.2283537 -1.3983711,0.2283537 -1.3953013,0.2282804 -1.392306,0.2276067 -1.3870244,0.2245336 -1.3831981,0.2197477 -1.3804849,0.214243 -1.3681409,0.1810597 -1.240445,0.1810597z M-1.2536402,0.1460817 L-1.3540944,0.1460817 -1.3038673,0.0131169 -1.2536402,0.1460817z" transform="matrix(1,0,0,-1,2.0208875,1.2398375)" fill="rgb(104,104,104)" fill-rule="nonzero" shaper:cutDepth="0.0000762" stroke-linecap="round" stroke-linejoin="round" /><path d="M-1.6165518,-0.0428481 L-1.5550075,0.0731946 -1.4943117,-0.0410689 -1.4943117,-0.0410689 -1.4910879,-0.0463273 -1.4869375,-0.0508872 -1.4816658,-0.0540406 -1.4786759,-0.0548104 -1.4755934,-0.0549179 -1.4755934,-0.0549179 -1.4688438,-0.0537249 -1.4657362,-0.0522558 -1.4629672,-0.0502189 -1.4606333,-0.0476958 -1.4588199,-0.044776 -1.4577272,-0.0415177 -1.4573039,-0.0381064 -1.4573039,-0.0381064 -1.4574917,-0.0352177 -1.4585035,-0.0325034 -1.4611219,-0.0273297 -1.4619621,-0.0256046 -1.5377283,0.1161508 -1.5377283,0.2085067 -1.5377283,0.2085067 -1.5385137,0.2161151 -1.5396834,0.2197736 -1.5416696,0.2230412 -1.5444681,0.2256594 -1.5478936,0.2273739 -1.5516319,0.2282107 -1.5554636,0.2283537 -1.5554636,0.2283537 -1.5599771,0.2280652 -1.5642961,0.2267715 -1.5681911,0.2244524 -1.5710436,0.220964 -1.5710436,0.220964 -1.5721118,0.2176351 -1.5725671,0.2141664 -1.5727063,0.2071699 -1.5727063,0.1161508 -1.6463442,-0.0238864 -1.6471955,-0.0251751 -1.6471955,-0.0251751 -1.6493743,-0.029054 -1.6493743,-0.029054 -1.651551,-0.0335858 -1.6523302,-0.0385374 -1.6523302,-0.0385374 -1.6519116,-0.0419235 -1.6508657,-0.0451698 -1.6490712,-0.0480712 -1.6467002,-0.0505218 -1.6407628,-0.0538338 -1.6340407,-0.0549179 -1.6340407,-0.0549179 -1.6284364,-0.0543551 -1.6234523,-0.0516993 -1.6195552,-0.0476309 -1.6165518,-0.0428481z" transform="matrix(1,0,0,-1,2.0208875,1.2398375)" fill="rgb(104,104,104)" fill-rule="nonzero" shaper:cutDepth="0.0000762" stroke-linecap="round" stroke-linejoin="round" /><path d="M0.9287034,0.5585544 L0.6827028,0.5585544 0.5884319,0.5976027 A0.6223,0.6223 341.0101013 0,1 0.6223,0.8001 L0.3175,0.8001 A0.3175,0.3175 0 0,0 -0.3175,0.8001 L-0.6223,0.8001 A0.6223,0.6223 180 0,1 -0.2728969,0.2408286 L-0.3253068,0.1143 -0.7647727,0.1143 -0.7647727,0.0381 -0.2743915,0.0381 -0.2024973,0.2116681 A0.6223,0.6223 251.0101013 0,1 0.2024974,0.2116681 L0.2743916,0.0381 0.7647728,0.0381 0.7647728,0.1143 0.3253068,0.1143 0.272897,0.2408286 A0.6223,0.6223 296.0101013 0,1 0.5592714,0.527203 L0.6675457,0.4823544 0.9287034,0.4823544 0.9287034,0.5585544z" transform="matrix(1,0,0,-1,2.0208875,1.2398375)" fill="rgb(104,104,104)" fill-rule="nonzero" shaper:cutDepth="0.0000762" stroke-linecap="round" stroke-linejoin="round" /><path d="M-0.3175,0.8001 a0.3175,0.3175 0 1,1 0.635,0 a0.3175,0.3175 0 1,1 -0.635,0z" transform="matrix(1,0,0,-1,2.0208875,1.2398375)" fill="rgb(255,255,255)" stroke="rgb(0,0,0)" stroke-width="0.0010cm" stroke-linecap="round" stroke-linejoin="round" shaper:cutDepth="0.0015875" /></svg>