<?xml version="1.0" encoding="utf-8"?>
<!-- Generator: Fusion 360, Shaper Origin Export Add-In, Version 1.6.10  -->
<svg xmlns="http://www.w3.org/2000/svg" xmlns:xlink="http://www.w3.org/1999/xlink" xmlns:shaper="http://www.shapertools.com/namespaces/shaper" shaper:fusionaddin="version:1.6.10" width="1.5875cm" height="2.8720934cm" version="1.1" x="0cm" y="0cm" viewBox="0 0 1.5875 2.8720934" enable-background="new 0 0 1.5875 2.8720934" xml:space="preserve"><path d="M-0.3322108,0.4621418 A3.8898332,3.8898332 355.4974647 0,0 -0.7132255,-0.936341 A0.79375,0.79375 154.0220159 1,1 0.7137007,-0.9359788 A3.8898332,3.8898332 206.0070685 0,0 0.3319761,0.4623103 A0.3320935,0.3320935 0.0145422 0,1 -0.3322108,0.4621418z" transform="matrix(1,0,0,-1,0.7934241,0.7943195)" fill="rgb(0,0,0)" shaper:cutDepth="0.0015875" stroke-linecap="round" stroke-linejoin="round" /><path d="M-0.1592627,-0.3638119 L0.1052676,-0.3637448 0.1052845,-0.4302885 0.1052845,-0.4302885 0.105891,-0.4398606 0.1069712,-0.4445425 0.1088406,-0.4489583 0.1117089,-0.4528089 0.1155876,-0.4556154 0.1201211,-0.4571891 0.1249051,-0.4575684 0.1249051,-0.4575684 0.1296445,-0.4571748 0.1341942,-0.4558025 0.1382972,-0.4534153 0.1415009,-0.4499002 0.1437358,-0.4457119 0.1450917,-0.4411496 0.1460207,-0.4316991 0.1460485,-0.2583694 0.1460485,-0.2583694 0.14538,-0.2484397 0.1443277,-0.2435696 0.1426037,-0.2388968 0.1398594,-0.2347506 0.1360016,-0.2316075 0.131318,-0.2299433 0.1263559,-0.2295344 0.1263559,-0.2295344 0.1215636,-0.229937 0.1169669,-0.2313422 0.112846,-0.2337964 0.1096622,-0.2374092 0.1074128,-0.2416452 0.1060857,-0.246275 0.1051685,-0.2558347 0.1052573,-0.3229372 -0.1567587,-0.3230037 -0.1567587,-0.3230037 -0.170337,-0.3234383 -0.170337,-0.3234383 -0.1733986,-0.3245711 -0.1761846,-0.3262758 -0.1786238,-0.3284423 -0.1806205,-0.3310292 -0.1834151,-0.336908 -0.1844134,-0.3433427 -0.1844134,-0.3433427 -0.1837987,-0.3489064 -0.1818329,-0.3541372 -0.1783977,-0.358551 -0.1738476,-0.361804 -0.1738476,-0.361804 -0.170343,-0.3630193 -0.1666824,-0.3636229 -0.1592627,-0.3638119z" transform="matrix(1,0,0,-1,0.7934241,0.7943195)" fill="rgb(104,104,104)" fill-rule="nonzero" shaper:cutDepth="0.0000762" stroke-linecap="round" stroke-linejoin="round" /><path d="M0.1195077,-0.1389405 L-0.0947817,-0.1390666 0.1318546,0.009192 0.1318546,0.009192 0.1371711,0.0132135 0.1418395,0.017959 0.1450349,0.0238046 0.1459034,0.0304031 0.1459034,0.0304031 0.1450847,0.0361342 0.1426491,0.0413771 0.1388946,0.0457946 0.133829,0.0485766 0.133829,0.0485766 0.1271217,0.0495021 0.120322,0.049579 -0.157878,0.0494366 -0.157878,0.0494366 -0.1662829,0.0492846 -0.1704528,0.0487656 -0.1744544,0.0474925 -0.1744544,0.0474925 -0.1787282,0.0441514 -0.181947,0.0397852 -0.1838189,0.0346974 -0.184508,0.0293134 -0.184508,0.0293134 -0.1841163,0.0248935 -0.1829515,0.0206135 -0.1807985,0.0167359 -0.1777235,0.0135488 -0.1738972,0.0112949 -0.169726,0.0097928 -0.1609378,0.0086282 0.0567971,0.0086835 -0.1713405,-0.139086 -0.1713405,-0.139086 -0.1765072,-0.1430417 -0.1807728,-0.1479309 -0.1836466,-0.1537727 -0.1844599,-0.1602117 -0.1844599,-0.1602117 -0.1841257,-0.1645022 -0.1829798,-0.1686481 -0.1808735,-0.1723951 -0.17778,-0.1753831 -0.1740262,-0.1774784 -0.1699261,-0.1787954 -0.1613929,-0.1798193 0.1213945,-0.1798193 0.1213945,-0.1798193 0.1305465,-0.1790459 0.1349892,-0.1778449 0.1391021,-0.1757968 0.1424714,-0.1726769 0.1447455,-0.1686864 0.145834,-0.1642221 0.1459517,-0.1596249 0.1459517,-0.1596249 0.1456929,-0.1547561 0.144539,-0.1500215 0.142133,-0.145792 0.1384454,-0.1426126 0.1339945,-0.1406354 0.1292322,-0.139575 0.1195077,-0.1389405z" transform="matrix(1,0,0,-1,0.7934241,0.7943195)" fill="rgb(104,104,104)" fill-rule="nonzero" shaper:cutDepth="0.0000762" stroke-linecap="round" stroke-linejoin="round" /><path d="M0.1504534,0.2197138 L0.1504534,0.2197138 0.1499915,0.2108079 0.1486693,0.2019878 0.1465636,0.1933222 0.1437254,0.1848672 0.140234,0.1766609 0.1360995,0.1687586 0.1313432,0.1612147 0.126043,0.154042 0.126043,0.154042 0.1193955,0.146807 0.1120614,0.1402654 0.1042018,0.1343687 0.0958786,0.1291455 0.0871877,0.124559 0.0781923,0.1206035 0.0595794,0.1143143 0.0404147,0.1099738 0.0209655,0.1071705 0.0013701,0.1056765 -0.0182797,0.1052949 -0.0182797,0.1052949 -0.0368368,0.1057294 -0.0553435,0.1071125 -0.0737257,0.1097087 -0.0918369,0.1137538 -0.1095062,0.1194471 -0.126416,0.1270823 -0.1344655,0.1317191 -0.1421497,0.1369325 -0.1562317,0.1490131 -0.1562317,0.1490131 -0.1624648,0.1563149 -0.1679266,0.16421 -0.1727326,0.1725213 -0.1767216,0.1812532 -0.1800061,0.1902757 -0.1823862,0.1995746 -0.1840011,0.2090397 -0.184556,0.218623 -0.184556,0.218623 -0.1836327,0.2306071 -0.181218,0.2423841 -0.1775665,0.2538359 -0.1727379,0.2648451 -0.1668663,0.275335 -0.1599986,0.2852002 -0.1521489,0.2943051 -0.1432669,0.3024038 -0.1432669,0.3024038 -0.1288186,0.3114859 -0.1133216,0.3186563 -0.0971898,0.3242295 -0.0806222,0.3283529 -0.0638048,0.3312865 -0.0468422,0.3332278 -0.0298031,0.3342711 -0.012734,0.3346232 -0.012734,0.3346232 0.0046156,0.3341505 0.0219168,0.3327904 0.0390875,0.3302592 0.0560376,0.326531 0.0726249,0.3214221 0.0885795,0.3146044 0.1036174,0.3059348 0.117314,0.2952855 0.117314,0.2952855 0.1244189,0.2874679 0.1307536,0.279014 0.136299,0.2700225 0.1410379,0.2605808 0.1448877,0.2507435 0.1478604,0.2406064 0.1497447,0.230212 0.1505252,0.2196775 0.1504534,0.2197138z M0.0929163,0.1798975 L0.0929163,0.1798975 0.0995843,0.1886469 0.1047004,0.1983855 0.1082589,0.2087812 0.1092981,0.2141839 0.1097176,0.2196672 0.1096459,0.2197034 0.1096459,0.2197034 0.1091384,0.2259656 0.1078987,0.2321258 0.1036502,0.243941 0.0975033,0.2548923 0.0936684,0.2598699 0.0893744,0.2644573 0.0893744,0.2644573 0.0786414,0.27295 0.0666211,0.2795207 0.0538522,0.2844622 0.0406545,0.2881299 0.027218,0.290782 0.0136296,0.2925039 -0.0137295,0.2937435 -0.0137295,0.2937435 -0.0403538,0.2928191 -0.0536119,0.2915047 -0.0667774,0.289471 -0.0797692,0.2865167 -0.0924162,0.2823461 -0.1045761,0.2768933 -0.1158859,0.2698653 -0.1158859,0.2698653 -0.1216714,0.2651987 -0.1269268,0.2599441 -0.1316059,0.2541679 -0.1356291,0.2479198 -0.1389839,0.2412848 -0.1414744,0.2342857 -0.1431727,0.2270471 -0.1437488,0.2196391 -0.1437488,0.2196391 -0.1432514,0.2131563 -0.1419561,0.2067843 -0.1373277,0.1946438 -0.1305835,0.1835396 -0.1218965,0.1738799 -0.1218965,0.1738799 -0.1105733,0.1656747 -0.0981192,0.1593037 -0.0849695,0.1545335 -0.0714229,0.1510437 -0.0576413,0.1486363 -0.0437325,0.1471299 -0.0157755,0.1461031 -0.0157755,0.1461031 -0.0011562,0.1463637 0.013426,0.1473775 0.0279214,0.1493041 0.04224,0.1522534 0.0562116,0.1565592 0.0695763,0.1624745 0.0819993,0.1701866 0.0929163,0.1798975z" transform="matrix(1,0,0,-1,0.7934241,0.7943195)" fill="rgb(104,104,104)" fill-rule="nonzero" shaper:cutDepth="0.0000762" stroke-linecap="round" stroke-linejoin="round" /><path d="M0.1457889,0.4814412 L0.1458607,0.4814007 0.1458607,0.4814007 0.1450126,0.4947102 0.142807,0.5078624 0.1389722,0.5206352 0.1336367,0.5328566 0.1267755,0.5442922 0.118645,0.5548647 0.1094653,0.5645372 0.0994261,0.5733182 0.0994261,0.5733182 0.0866723,0.5825078 0.0732772,0.5907338 0.0592555,0.5978401 0.0447184,0.603821 0.0297553,0.6086389 0.0144415,0.6121847 -0.001127,0.6143595 -0.0168285,0.6151021 -0.0168285,0.6151021 -0.0326849,0.6144072 -0.0484528,0.6125971 -0.064019,0.6094994 -0.0793154,0.6052646 -0.0942114,0.5997867 -0.1086258,0.593144 -0.1224068,0.5852708 -0.1354335,0.5762042 -0.1354335,0.5762042 -0.1458471,0.5674715 -0.1554926,0.5579009 -0.164099,0.5473818 -0.1714192,0.5359349 -0.177278,0.5236727 -0.1814191,0.5107325 -0.1838859,0.4973688 -0.1846233,0.4838 -0.1846233,0.4838 -0.184061,0.4725412 -0.1823376,0.4614014 -0.1793901,0.4505211 -0.1753449,0.4399997 -0.1701147,0.4300142 -0.1638207,0.4206619 -0.1566401,0.4119728 -0.1487528,0.4039183 -0.1487528,0.4039183 -0.1367835,0.3936919 -0.1300397,0.3895991 -0.1263083,0.3884127 -0.1223819,0.3879756 -0.1223819,0.3879756 -0.1144359,0.3892657 -0.1107872,0.3909875 -0.1075591,0.3934082 -0.1048956,0.3964387 -0.1029584,0.3999772 -0.1018846,0.4038665 -0.1014803,0.4078818 -0.1014803,0.4078818 -0.1019434,0.4133464 -0.1038254,0.4184895 -0.1072524,0.4227664 -0.1114713,0.4262714 -0.1114713,0.4262714 -0.1240093,0.4371457 -0.1295531,0.4433245 -0.1344868,0.4500033 -0.1385775,0.4572266 -0.14154,0.4649778 -0.1433529,0.4730815 -0.1438152,0.4813677 -0.1438152,0.4813677 -0.1435224,0.4894977 -0.1422323,0.4975305 -0.1400045,0.5053535 -0.1367611,0.5128155 -0.1326955,0.5198603 -0.1278576,0.5264033 -0.1224227,0.532455 -0.1164569,0.5379879 -0.1164569,0.5379879 -0.1059778,0.5461342 -0.0947881,0.5532737 -0.0830205,0.5594135 -0.0707749,0.564535 -0.0581444,0.5686158 -0.0452207,0.5716412 -0.032086,0.5735558 -0.0188298,0.5742222 -0.0188298,0.5742222 0.0022147,0.5725026 0.0126294,0.5707296 0.022897,0.5682604 0.0329523,0.5650238 0.0427335,0.5610397 0.0521722,0.5562993 0.0612195,0.5508488 0.069812,0.5447073 0.0778683,0.5378757 0.0852477,0.5303222 0.0917444,0.521993 0.0971141,0.5129043 0.1011715,0.5031535 0.1038298,0.4929331 0.1049812,0.4824367 0.1049812,0.4824367 0.1045166,0.4749465 0.1030994,0.4675758 0.1007508,0.4604496 0.0974547,0.4537065 0.0934105,0.4473841 0.0887186,0.4415266 0.0777652,0.4312766 0.0777652,0.4312766 0.0723334,0.4268593 0.0673448,0.4219449 0.0653252,0.4190773 0.0638914,0.4158669 0.0630428,0.4089294 0.0630428,0.4089294 0.063525,0.4048741 0.0647297,0.4009726 0.0667632,0.3974322 0.0694408,0.394349 0.0726526,0.391828 0.0763209,0.3900323 0.0802473,0.3889172 0.0843139,0.388531 0.0843139,0.388531 0.0895884,0.3891155 0.0944928,0.3911521 0.1029911,0.3975163 0.1029911,0.3975163 0.1119438,0.4057633 0.1202007,0.4147024 0.1276318,0.4243438 0.1340436,0.4346877 0.139158,0.4457316 0.1428417,0.4573294 0.1450884,0.4692916 0.1457889,0.4814412z" transform="matrix(1,0,0,-1,0.7934241,0.7943195)" fill="rgb(104,104,104)" fill-rule="nonzero" shaper:cutDepth="0.0000762" stroke-linecap="round" stroke-linejoin="round" /><path d="M-0.7108741,-1.2840239 a0.7112,0.7112 0 1,0 1.4224,0 a0.7112,0.7112 0 1,0 -1.4224,0z" transform="matrix(1,0,0,-1,0.7934241,0.7943195)" fill="rgb(104,104,104)" fill-rule="nonzero" shaper:cutDepth="0.0000762" stroke-linecap="round" stroke-linejoin="round" /><path d="M-0.4362366,-1.2840239 a0.4365625,0.4365625 0 1,1 0.873125,0 a0.4365625,0.4365625 0 1,1 -0.873125,0z" transform="matrix(1,0,0,-1,0.7934241,0.7943195)" fill="rgb(255,255,255)" stroke="rgb(0,0,0)" stroke-width="0.0010cm" stroke-linecap="round" stroke-linejoin="round" shaper:cutDepth="0.0015875" /></svg>