<?xml version="1.0" encoding="utf-8"?>
<!-- Generator: Fusion 360, Shaper Origin Export Add-In, Version 1.6.10  -->
<svg xmlns="http://www.w3.org/2000/svg" xmlns:xlink="http://www.w3.org/1999/xlink" xmlns:shaper="http://www.shapertools.com/namespaces/shaper" shaper:fusionaddin="version:1.6.10" width="1.5875cm" height="2.8720935cm" version="1.1" x="0cm" y="0cm" viewBox="0 0 1.5875 2.8720935" enable-background="new 0 0 1.5875 2.8720935" xml:space="preserve"><path d="M-0.3321508,0.5658809 A3.8898332,3.8898332 355.4887217 0,0 -0.7133789,-0.8325436 A0.79375,0.79375 154.0132729 1,1 0.7135474,-0.8323992 A3.8898332,3.8898332 205.9983255 0,0 0.3320362,0.5659482 A0.3320935,0.3320935 0.0057992 1,1 -0.3321508,0.5658809z" transform="matrix(1,0,0,-1,0.7936305,0.898008)" fill="rgb(0,0,0)" shaper:cutDepth="0.0015875" stroke-linecap="round" stroke-linejoin="round" /><path d="M-0.1582436,-0.069425 L-0.1582436,-0.069425 -0.1567003,-0.0525103 -0.1548747,-0.0442131 -0.1523501,-0.036099 -0.1490255,-0.0282814 -0.1449419,-0.0208299 -0.1401162,-0.0138375 -0.1346023,-0.0073734 -0.1284823,-0.0014796 -0.1217884,0.0037526 -0.1145714,0.0082357 -0.1069127,0.0119139 -0.0989102,0.0147673 -0.0906511,0.0167631 -0.0822438,0.0179874 -0.0737637,0.0185209 -0.0737637,0.0185209 -0.0638779,0.0181075 -0.0541241,0.0164503 -0.0446582,0.013573 -0.0356731,0.0094329 -0.0273641,0.0040609 -0.0197712,-0.002282 -0.0130047,-0.0095005 -0.0069449,-0.0173226 -0.0069449,-0.0173226 0.0009549,-0.0095512 0.0093572,-0.002328 0.0183893,0.004093 0.0280626,0.0094949 0.0383226,0.0136798 0.0490416,0.0164827 0.0600012,0.018115 0.0710743,0.0185355 0.0710743,0.0185355 0.0868475,0.017377 0.0946335,0.0159657 0.1022847,0.0139526 0.1097779,0.0114106 0.1170387,0.0082676 0.1240095,0.0045245 0.1306445,0.0002142 0.1369139,-0.0046125 0.1427839,-0.0099176 0.1482018,-0.0156836 0.1530869,-0.0219075 0.157459,-0.0285018 0.16126,-0.0354414 0.1672807,-0.050066 0.1672807,-0.050066 0.1699023,-0.0595204 0.1714519,-0.0692063 0.1722419,-0.0888056 0.1722511,-0.1806064 0.1722511,-0.1806064 0.1723193,-0.18607 0.1715923,-0.1914775 0.1698172,-0.1966434 0.166692,-0.2011122 0.1622435,-0.2042663 0.1570789,-0.2060342 0.1516547,-0.2066528 0.1461945,-0.2065013 -0.1331561,-0.2065013 -0.1331561,-0.2065013 -0.1383625,-0.2064248 -0.1435139,-0.2056549 -0.1483559,-0.2037546 -0.1525558,-0.2006827 -0.1555638,-0.1964385 -0.1573776,-0.1915604 -0.1581577,-0.1864131 -0.1582322,-0.1812057 -0.1582436,-0.069425z M0.0113186,-0.1652975 L0.1314421,-0.1652854 0.1314344,-0.0892965 0.1314344,-0.0892965 0.1311957,-0.0797094 0.1302702,-0.0701634 0.128099,-0.0608207 0.124318,-0.0520101 0.124318,-0.0520101 0.1197906,-0.0455439 0.1144253,-0.039754 0.1084113,-0.034642 0.1017648,-0.0303828 0.0946708,-0.0269209 0.0871931,-0.0243924 0.0794552,-0.0228331 0.0715813,-0.0222719 0.0715813,-0.0222719 0.0623072,-0.0230312 0.0532654,-0.0252206 0.044614,-0.0286472 0.0366215,-0.0334087 0.0293281,-0.0391895 0.02312,-0.0461168 0.0180207,-0.0538999 0.0143255,-0.0624387 0.0143255,-0.0624387 0.012588,-0.0678585 0.011642,-0.0734716 0.0113104,-0.0848491 0.0113186,-0.1652975z M-0.1174266,-0.1618344 L-0.0294894,-0.1618255 -0.0294984,-0.0729323 -0.0294984,-0.0729323 -0.0301299,-0.0599507 -0.0313735,-0.0535625 -0.0338834,-0.0475718 -0.0338834,-0.0475718 -0.0369664,-0.0421632 -0.0406971,-0.0371798 -0.0451263,-0.0328054 -0.0501541,-0.0291345 -0.055631,-0.0261751 -0.0614537,-0.0239731 -0.067548,-0.0227033 -0.0737596,-0.0222866 -0.0737596,-0.0222866 -0.0810743,-0.0229706 -0.088207,-0.0247288 -0.0948873,-0.0277839 -0.1009956,-0.0318655 -0.1063073,-0.0369404 -0.1106668,-0.0428528 -0.1139003,-0.0494486 -0.1160005,-0.0564888 -0.1160005,-0.0564888 -0.1169931,-0.0607685 -0.1173783,-0.0651473 -0.1174355,-0.073937 -0.1174266,-0.1618344z" transform="matrix(1,0,0,-1,0.7936305,0.898008)" fill="rgb(104,104,104)" fill-rule="nonzero" shaper:cutDepth="0.0000762" stroke-linecap="round" stroke-linejoin="round" /><path d="M0.1350611,0.2794085 L0.1350611,0.2794085 0.1375036,0.2813485 0.1375036,0.2813485 0.1436424,0.285321 0.1471473,0.2863916 0.1507943,0.2867382 0.1507943,0.2867382 0.1547664,0.2863316 0.1585668,0.2851126 0.162038,0.2831423 0.1650154,0.2804825 0.1674045,0.2772854 0.1691027,0.2736717 0.170106,0.269809 0.1704817,0.2658335 0.1704817,0.2658335 0.169913,0.2600658 0.1690078,0.2572986 0.1675511,0.254794 0.1636633,0.250501 0.1591614,0.2468516 0.0342764,0.1544592 0.0342808,0.1104925 0.1453519,0.1105037 0.1453519,0.1105037 0.1549867,0.1098367 0.1596823,0.1087174 0.1641278,0.106812 0.1679235,0.1038453 0.1706155,0.0998395 0.1719959,0.0952145 0.1722237,0.09039 0.1722237,0.09039 0.1712632,0.0836542 0.168312,0.0775304 0.1661474,0.0748942 0.1634921,0.0727583 0.1604846,0.0711508 0.1572103,0.0702003 0.1572103,0.0702003 0.1434455,0.0696959 -0.1296637,0.0696683 -0.1296637,0.0696683 -0.1357568,0.0696822 -0.1417824,0.0705725 -0.1474401,0.0728226 -0.1521857,0.0766298 -0.1554896,0.0817408 -0.1573931,0.0875297 -0.1582097,0.0935637 -0.1582607,0.0996581 -0.1582692,0.1837541 -0.1582692,0.1837541 -0.1577975,0.1934841 -0.1566671,0.2031571 -0.1548587,0.2127309 -0.1521818,0.2220942 -0.1486112,0.2311576 -0.1441763,0.2398292 -0.1388559,0.2479881 -0.1326868,0.2555248 -0.1257895,0.2624029 -0.1181863,0.2684898 -0.1099349,0.2736646 -0.101127,0.2778226 -0.0919357,0.2810447 -0.0824576,0.2832918 -0.0728093,0.284625 -0.0630859,0.2852078 -0.0630859,0.2852078 -0.0460864,0.2838681 -0.0377213,0.2821929 -0.0295252,0.2798265 -0.0215528,0.2767908 -0.0139029,0.2730149 -0.0066895,0.2684612 0.0001119,0.2633118 0.0064334,0.2575835 0.0121461,0.251248 0.0172304,0.2443977 0.02168,0.2371195 0.0254177,0.2294509 0.0284854,0.2214904 0.0328139,0.2049956 0.1350611,0.2794085z M-0.1174542,0.1104771 L-0.0065268,0.1104883 -0.006534,0.1817578 -0.006534,0.1817578 -0.0073389,0.1980717 -0.0090054,0.2060711 -0.0122129,0.2135842 -0.0122129,0.2135842 -0.0161352,0.2202926 -0.0209744,0.2263723 -0.0266302,0.2317006 -0.0329691,0.2361955 -0.0398768,0.2397546 -0.0472091,0.2423285 -0.0548261,0.2438633 -0.0625789,0.2444003 -0.0625789,0.2444003 -0.070437,0.2437791 -0.0781336,0.2420816 -0.0855165,0.2393208 -0.0924391,0.2355515 -0.0987554,0.230836 -0.1043386,0.2252726 -0.1090911,0.2189847 -0.1128665,0.2120653 -0.1128665,0.2120653 -0.1153687,0.2056794 -0.1168032,0.1989716 -0.1174617,0.1852712 -0.1174542,0.1104771z" transform="matrix(1,0,0,-1,0.7936305,0.898008)" fill="rgb(104,104,104)" fill-rule="nonzero" shaper:cutDepth="0.0000762" stroke-linecap="round" stroke-linejoin="round" /><path d="M0.1469681,0.4691503 L0.1469681,0.4691503 0.1543878,0.4689976 0.15805,0.4684309 0.1615526,0.467212 0.1615526,0.467212 0.1661039,0.4639568 0.1695384,0.4595401 0.171506,0.4543067 0.1721874,0.4487491 0.1721874,0.4487491 0.1711992,0.4422901 0.1683206,0.4364359 0.1663224,0.4338481 0.1638835,0.4316829 0.1610975,0.429979 0.1580361,0.4288468 0.1580361,0.4288468 0.1445296,0.4283425 -0.1174863,0.428316 -0.1174797,0.3612853 -0.1174797,0.3612853 -0.1183969,0.3517219 -0.1197334,0.3470969 -0.121949,0.3428357 -0.125151,0.3392444 -0.1292799,0.336796 -0.1338775,0.3353904 -0.1386711,0.3349882 -0.1386711,0.3349882 -0.1436239,0.3353962 -0.1483002,0.3370536 -0.152155,0.3401857 -0.1549014,0.3443195 -0.1566272,0.3489813 -0.1576875,0.3538411 -0.1582874,0.3637544 -0.158305,0.5371559 -0.158305,0.5371559 -0.1573789,0.5466009 -0.1559987,0.5511452 -0.1537847,0.5553492 -0.1505536,0.5588206 -0.1464787,0.5612557 -0.1419129,0.5625579 -0.1371854,0.563022 -0.1371854,0.563022 -0.1324021,0.5625713 -0.1278503,0.5610534 -0.1239868,0.5581981 -0.1211077,0.5543654 -0.1192517,0.5499289 -0.1181653,0.5452498 -0.1174972,0.5356673 -0.1174905,0.4691235 0.1469681,0.4691503z" transform="matrix(1,0,0,-1,0.7936305,0.898008)" fill="rgb(104,104,104)" fill-rule="nonzero" shaper:cutDepth="0.0000762" stroke-linecap="round" stroke-linejoin="round" /><path d="M-0.7110805,-1.1803354 a0.7112,0.7112 0 1,0 1.4224,0 a0.7112,0.7112 0 1,0 -1.4224,0z" transform="matrix(1,0,0,-1,0.7936305,0.898008)" fill="rgb(104,104,104)" fill-rule="nonzero" shaper:cutDepth="0.0000762" stroke-linecap="round" stroke-linejoin="round" /><path d="M-0.436443,-1.1803354 a0.4365625,0.4365625 0 1,1 0.873125,0 a0.4365625,0.4365625 0 1,1 -0.873125,0z" transform="matrix(1,0,0,-1,0.7936305,0.898008)" fill="rgb(255,255,255)" stroke="rgb(0,0,0)" stroke-width="0.0010cm" stroke-linecap="round" stroke-linejoin="round" shaper:cutDepth="0.0015875" /></svg>