<?xml version="1.0" encoding="utf-8"?>
<!-- Generator: Fusion 360, Shaper Origin Export Add-In, Version 1.6.10  -->
<svg xmlns="http://www.w3.org/2000/svg" xmlns:xlink="http://www.w3.org/1999/xlink" xmlns:shaper="http://www.shapertools.com/namespaces/shaper" shaper:fusionaddin="version:1.6.10" width="1.33985cm" height="0.6731cm" version="1.1" x="0cm" y="0cm" viewBox="0 0 1.33985 0.6731" enable-background="new 0 0 1.33985 0.6731" xml:space="preserve"><path d="M0.3101611,-0.4463089 L-1.0296889,-0.4463089 -1.0296889,0.2267911 0.3101611,0.2267911 0.3101611,-0.4463089z" transform="matrix(1,0,0,-1,1.0296889,0.2267911)" fill="rgb(0,0,0)" shaper:cutDepth="0.000127" stroke-linecap="round" stroke-linejoin="round" /><path d="M-0.7913939,-0.0829937 L-0.7913939,-0.0829937 -0.7824454,-0.0835281 -0.7780863,-0.084616 -0.7740264,-0.0865189 -0.7706388,-0.0894591 -0.7683694,-0.0933222 -0.7672176,-0.0976578 -0.7669771,-0.1021402 -0.7669771,-0.1021402 -0.7672837,-0.106697 -0.7684949,-0.1110972 -0.7709036,-0.1149689 -0.7745238,-0.117724 -0.7787767,-0.1194103 -0.7832398,-0.1203477 -0.7923583,-0.1208865 -0.8702883,-0.1208865 -0.870248,-0.2497083 -0.870248,-0.2497083 -0.8708145,-0.2586889 -0.8717631,-0.2630879 -0.8734686,-0.2672561 -0.8762775,-0.2707551 -0.8801043,-0.2731125 -0.8844344,-0.2743316 -0.8889275,-0.2745921 -0.8889275,-0.2745921 -0.893448,-0.2742698 -0.8978329,-0.2731367 -0.9016851,-0.2707574 -0.9045998,-0.2673007 -0.9064581,-0.263166 -0.9075161,-0.2587587 -0.9081408,-0.2497211 -0.9081407,0.0066012 -0.9081407,0.0066012 -0.9079813,0.0119185 -0.9071399,0.0171651 -0.9053544,0.0221766 -0.9023335,0.026544 -0.8981188,0.0297756 -0.8931605,0.0316886 -0.8878906,0.0323885 -0.8825732,0.0322854 -0.757704,0.0322855 -0.757704,0.0322855 -0.7493971,0.0313348 -0.7453872,0.0301075 -0.7417571,0.028042 -0.7387301,0.0251466 -0.7366421,0.0215241 -0.7354597,0.0175098 -0.7350885,0.0133391 -0.7350885,0.0133391 -0.7353821,0.0091246 -0.7364951,0.0050525 -0.738543,0.0013635 -0.7415863,-0.0015607 -0.7452995,-0.003567 -0.7493385,-0.0048139 -0.7577337,-0.0056074 -0.870248,-0.0056074 -0.870248,-0.0829937 -0.7913939,-0.0829937z" transform="matrix(1,0,0,-1,1.0296889,0.2267911)" fill="rgb(120,120,120)" fill-rule="nonzero" shaper:cutDepth="0.0000254" stroke-linecap="round" stroke-linejoin="round" /><path d="M-0.529614,-0.240969 L-0.529614,-0.240969 -0.5240142,-0.2411381 -0.5185397,-0.2422365 -0.5185397,-0.2422365 -0.5142637,-0.2447131 -0.5111217,-0.2485547 -0.5091347,-0.253082 -0.5083994,-0.2579807 -0.5083994,-0.2579807 -0.5093469,-0.2634864 -0.5120242,-0.2683862 -0.5161349,-0.2721471 -0.5213416,-0.2741251 -0.5213416,-0.2741251 -0.5319647,-0.2745921 -0.6633058,-0.2745921 -0.6633058,-0.2745921 -0.6725777,-0.2735181 -0.6769887,-0.2719684 -0.6808661,-0.2693673 -0.6836227,-0.2656031 -0.6851702,-0.2611937 -0.6857698,-0.2565599 -0.6857213,-0.251884 -0.6857212,0.011738 -0.6857212,0.011738 -0.6847506,0.0195885 -0.6834528,0.0233272 -0.6814328,0.0267353 -0.6785247,0.0294112 -0.6749917,0.0311948 -0.6711284,0.0320578 -0.6671752,0.0322855 -0.6671752,0.0322855 -0.6592943,0.0312421 -0.6557413,0.0294426 -0.6527953,0.0267666 -0.6507083,0.0233706 -0.6494167,0.0196007 -0.6486291,0.0116793 -0.6486291,-0.240969 -0.529614,-0.240969z" transform="matrix(1,0,0,-1,1.0296889,0.2267911)" fill="rgb(120,120,120)" fill-rule="nonzero" shaper:cutDepth="0.0000254" stroke-linecap="round" stroke-linejoin="round" /><path d="M-0.4145845,-0.2233569 L-0.4265431,-0.2629174 -0.4265431,-0.2629174 -0.4291696,-0.2680625 -0.4334236,-0.2719627 -0.4387999,-0.2740517 -0.4445555,-0.2745921 -0.4445555,-0.2745921 -0.4515363,-0.2734889 -0.4547835,-0.2720811 -0.4577375,-0.2701315 -0.4603174,-0.2677047 -0.4622546,-0.2647465 -0.4634914,-0.2614294 -0.4639021,-0.2579139 -0.4639021,-0.2579139 -0.4624785,-0.2498811 -0.4602358,-0.242013 -0.381779,0.0191431 -0.381779,0.0191431 -0.3793339,0.0248046 -0.3751401,0.0293086 -0.372466,0.0308568 -0.369513,0.0317786 -0.3633664,0.0322855 -0.3633664,0.0322855 -0.3561692,0.0314873 -0.3528468,0.0300274 -0.3499941,0.0277815 -0.3460774,0.0216923 -0.3435714,0.0148854 -0.2642316,-0.2451719 -0.2642316,-0.2451719 -0.2626185,-0.2509947 -0.2618967,-0.25698 -0.2618967,-0.25698 -0.2622665,-0.2606235 -0.2633631,-0.2641155 -0.2652138,-0.2672733 -0.2677393,-0.2699252 -0.2707293,-0.2720345 -0.2740953,-0.2734812 -0.28131,-0.2745921 -0.28131,-0.2745921 -0.287585,-0.2739936 -0.2905492,-0.2729074 -0.2932294,-0.271239 -0.2955245,-0.2690743 -0.2973252,-0.2664772 -0.2997646,-0.2606707 -0.3112927,-0.2233569 -0.4145845,-0.2233569z M-0.3232819,-0.1854642 L-0.3629386,-0.0526798 -0.4025953,-0.1854642 -0.3232819,-0.1854642z" transform="matrix(1,0,0,-1,1.0296889,0.2267911)" fill="rgb(120,120,120)" fill-rule="nonzero" shaper:cutDepth="0.0000254" stroke-linecap="round" stroke-linejoin="round" /><path d="M-0.1743031,-0.2505756 L-0.1743031,-0.2505756 -0.1748522,-0.2593685 -0.1757574,-0.2636784 -0.1774469,-0.2677517 -0.1802894,-0.2710957 -0.1841133,-0.2732744 -0.1883828,-0.2743525 -0.1927825,-0.2745921 -0.1927825,-0.2745921 -0.1969339,-0.2744411 -0.2009993,-0.2735937 -0.2047345,-0.2717833 -0.2078681,-0.2690644 -0.2100695,-0.2655469 -0.2113718,-0.2616 -0.2121556,-0.2533462 -0.2121291,0.0044664 -0.2121291,0.0044664 -0.2121892,0.0103961 -0.211628,0.0162966 -0.2099824,0.0219915 -0.208546,0.0245941 -0.2066141,0.0268474 -0.201556,0.0299146 -0.1958417,0.0315061 -0.1899577,0.0322002 -0.184027,0.0322854 -0.1243355,0.0322855 -0.1243355,0.0322855 -0.1160625,0.0318447 -0.1078756,0.0305819 -0.0998444,0.0285513 -0.0921101,0.0255835 -0.0847573,0.0217694 -0.0779186,0.0170953 -0.0716911,0.0116329 -0.0660854,0.0055325 -0.0611738,-0.001136 -0.0569867,-0.0082874 -0.0535774,-0.0158331 -0.0508771,-0.0236696 -0.048812,-0.0316883 -0.0474259,-0.0398596 -0.0462151,-0.0563754 -0.0462151,-0.0563754 -0.0467947,-0.067354 -0.0483278,-0.0782391 -0.0510258,-0.088897 -0.0548729,-0.0991942 -0.0597971,-0.1090241 -0.0658513,-0.1181972 -0.0730121,-0.1265397 -0.0812392,-0.1338287 -0.0812392,-0.1338287 -0.09136,-0.1400858 -0.096846,-0.1424038 -0.1025452,-0.144137 -0.1142973,-0.1460332 -0.1261968,-0.1465041 -0.1743434,-0.1465041 -0.1743031,-0.2505756z M-0.1743434,-0.1086113 L-0.1234015,-0.1086113 -0.1234015,-0.1086113 -0.1143894,-0.1074965 -0.1100562,-0.1061192 -0.1059573,-0.104146 -0.0986555,-0.0987518 -0.0929546,-0.0916776 -0.0887976,-0.0835884 -0.0860829,-0.0748993 -0.0846022,-0.0659261 -0.0840411,-0.0568424 -0.0840411,-0.0568424 -0.0845454,-0.0475099 -0.0860465,-0.0382904 -0.0889328,-0.0294022 -0.0934257,-0.021209 -0.0997093,-0.0143202 -0.1034513,-0.0115233 -0.1075581,-0.0093015 -0.1119055,-0.0075916 -0.116436,-0.0064548 -0.1257338,-0.0056074 -0.1743434,-0.0056074 -0.1743434,-0.1086113z" transform="matrix(1,0,0,-1,1.0296889,0.2267911)" fill="rgb(120,120,120)" fill-rule="nonzero" shaper:cutDepth="0.0000254" stroke-linecap="round" stroke-linejoin="round" /><path d="M0.0977691,0.0322854 L0.0736604,0.0310845 0.0736604,0.0310845 0.0664549,0.0303687 0.0593534,0.0289572 0.0524214,0.026866 0.045755,0.0240411 0.0394655,0.0204546 0.0336197,0.0161827 0.02825,0.0113257 0.0233902,0.0059582 0.0191084,0.00012 0.015431,-0.0061182 0.012355,-0.0126722 0.0099003,-0.0194851 0.0067399,-0.0336069 0.0056205,-0.0480364 0.0056205,-0.0480364 0.0061601,-0.0575277 0.0075223,-0.066936 0.0099107,-0.0761372 0.0131748,-0.0850663 0.0173045,-0.0936284 0.0223629,-0.1016769 0.0284954,-0.1089399 0.0355744,-0.1152826 0.0355744,-0.1152826 0.042303,-0.1195774 0.0495103,-0.1230124 0.0647278,-0.1278245 0.1053326,-0.1380792 0.1053326,-0.1380792 0.1102885,-0.139411 0.115047,-0.1413115 0.1195009,-0.1438692 0.1233014,-0.1473046 0.1233014,-0.1473046 0.1268907,-0.1515321 0.1298789,-0.1562073 0.1343889,-0.1663276 0.1370851,-0.1770821 0.1379781,-0.1881327 0.1379781,-0.1881327 0.1369754,-0.1994433 0.134026,-0.210411 0.1290441,-0.2206133 0.1257503,-0.2252469 0.1219004,-0.2294277 0.1219004,-0.2294277 0.1164902,-0.2334596 0.1102463,-0.2360446 0.1036261,-0.2373548 0.0968832,-0.2377668 0.0741331,-0.2378232 0.0741331,-0.2378232 0.0656575,-0.2374975 0.0615504,-0.2364034 0.0576523,-0.2347205 0.0508947,-0.2295996 0.0455618,-0.2229997 0.0416335,-0.2154594 0.0390482,-0.2073651 0.0377904,-0.1989602 0.0374424,-0.1904676 0.0374424,-0.1904676 0.036865,-0.1820865 0.0358098,-0.1780184 0.0341025,-0.1741735 0.0315375,-0.1708522 0.0280856,-0.1684601 0.0240806,-0.1671933 0.019897,-0.1667847 0.019897,-0.1667847 0.0152361,-0.1673832 0.0107988,-0.1689239 0.00692,-0.1715678 0.0039201,-0.1751813 0.0018811,-0.179412 0.0005851,-0.1839336 -0.0003836,-0.1932695 -0.0003836,-0.1932695 0.0008227,-0.2087119 0.0042664,-0.2238126 0.0069795,-0.2310655 0.0103929,-0.238024 0.0144738,-0.2446077 0.0192296,-0.2507247 0.0245866,-0.2563216 0.0305127,-0.2613121 0.0369852,-0.2655693 0.0439205,-0.2690217 0.0512039,-0.2716624 0.0587277,-0.2735116 0.0663949,-0.2746221 0.0741343,-0.2749923 0.0982418,-0.2745921 0.0982418,-0.2745921 0.1063409,-0.274028 0.1143649,-0.2727934 0.1222212,-0.2707476 0.1298272,-0.267911 0.1370139,-0.2641339 0.1437735,-0.2596399 0.1499507,-0.2543727 0.1554978,-0.2484446 0.1604457,-0.2420077 0.1646835,-0.2350852 0.1681851,-0.2277587 0.1710084,-0.2201482 0.173088,-0.2123003 0.1745442,-0.204312 0.1758041,-0.1881327 0.1758041,-0.1881327 0.1748199,-0.1736362 0.1720143,-0.1593824 0.1671311,-0.145703 0.1638957,-0.1391927 0.1600946,-0.1329986 0.1509082,-0.1217474 0.14557,-0.1168166 0.1398132,-0.1123783 0.1336195,-0.1085757 0.127121,-0.10532 0.1134279,-0.1004724 0.0727149,-0.0902949 0.0727149,-0.0902949 0.0671508,-0.0886505 0.0618122,-0.086406 0.0568644,-0.0833589 0.0529197,-0.0791244 0.0529197,-0.0791244 0.0487273,-0.0721488 0.0457095,-0.0645896 0.0440592,-0.0566201 0.0434465,-0.0485034 0.0434465,-0.0485034 0.0442495,-0.0386077 0.0466249,-0.0289776 0.0484636,-0.0243627 0.0508523,-0.0200133 0.0537087,-0.015949 0.0571226,-0.0123452 0.0571226,-0.0123452 0.0613128,-0.0097015 0.0659195,-0.0078523 0.0706947,-0.0065214 0.0756019,-0.0058074 0.0944601,-0.0053965 0.096351,-0.0053965 0.096351,-0.0053965 0.1031527,-0.0059519 0.1096899,-0.0079079 0.1156026,-0.0113002 0.1204463,-0.0161013 0.1241761,-0.0218175 0.1270322,-0.0280168 0.1309066,-0.0410983 0.1309066,-0.0410983 0.1337085,-0.0513053 0.1337085,-0.0513053 0.1366421,-0.0551061 0.1406067,-0.0578167 0.1452005,-0.05921 0.1499864,-0.0596444 0.1499864,-0.0596444 0.1574681,-0.0581986 0.1608496,-0.056428 0.1637425,-0.0539388 0.1658956,-0.0507844 0.1673363,-0.0472497 0.168399,-0.0396973 0.168399,-0.0396973 0.1675381,-0.0308632 0.1654277,-0.0222328 0.1624489,-0.0138701 0.1587257,-0.0058074 0.1587257,-0.0058074 0.1539701,0.0020434 0.1483327,0.0092817 0.1418566,0.0157879 0.1346081,0.0214143 0.1266895,0.0260537 0.1182337,0.0296165 0.1093112,0.0317638 0.1001521,0.0322855 0.0977691,0.0322854z" transform="matrix(1,0,0,-1,1.0296889,0.2267911)" fill="rgb(120,120,120)" fill-rule="nonzero" shaper:cutDepth="0.0000254" stroke-linecap="round" stroke-linejoin="round" /></svg>