<?xml version="1.0" encoding="utf-8"?>
<!-- Generator: Fusion 360, Shaper Origin Export Add-In, Version 1.6.10  -->
<svg xmlns="http://www.w3.org/2000/svg" xmlns:xlink="http://www.w3.org/1999/xlink" xmlns:shaper="http://www.shapertools.com/namespaces/shaper" shaper:fusionaddin="version:1.6.10" width="16.51cm" height="12.065cm" version="1.1" x="0cm" y="0cm" viewBox="0 0 16.51 12.065" enable-background="new 0 0 16.51 12.065" xml:space="preserve"><path d="M8.255,-5.3975 L8.255,5.3975 A0.635,0.635 0 0,1 7.62,6.0325 L-7.62,6.0325 A0.635,0.635 90 0,1 -8.255,5.3975 L-8.255,-5.3975 A0.635,0.635 180 0,1 -7.62,-6.0325 L7.62,-6.0325 A0.635,0.635 270 0,1 8.255,-5.3975z" transform="matrix(1,0,0,-1,8.255,6.0325)" fill="rgb(0,0,0)" shaper:cutDepth="0.003175" stroke-linecap="round" stroke-linejoin="round" /><path d="M-5.432332,1.2494813 A0.2587982,0.2587982 90 1,1 -5.432332,0.731885 L-4.3204584,0.731885 A0.2587982,0.2587982 270 0,1 -4.3204584,1.2494813 L-5.432332,1.2494813z" transform="matrix(1,0,0,-1,8.255,6.0325)" fill="rgb(255,255,255)" stroke="rgb(0,0,0)" stroke-width="0.0010cm" stroke-linecap="round" stroke-linejoin="round" shaper:cutDepth="0.003175" /><path d="M1.668026,-4.3637932 A0.2843565,0.2843565 89.9947579 0,1 1.667974,-4.9325063 L5.951974,-4.9328982 A0.2843565,0.2843565 269.9947579 0,1 5.952026,-4.3641852 L1.668026,-4.3637932z" transform="matrix(1,0,0,-1,8.255,6.0325)" fill="rgb(255,255,255)" stroke="rgb(0,0,0)" stroke-width="0.0010cm" stroke-linecap="round" stroke-linejoin="round" shaper:cutDepth="0.003175" /><path d="M-4.2875353,-5.0248724 A0.3072268,0.3072268 270 0,1 -4.2875353,-4.4104188 L-5.3136647,-4.4104188 A0.3072268,0.3072268 90 0,1 -5.3136647,-5.0248724 L-4.2875353,-5.0248724z" transform="matrix(1,0,0,-1,8.255,6.0325)" fill="rgb(255,255,255)" stroke="rgb(0,0,0)" stroke-width="0.0010cm" stroke-linecap="round" stroke-linejoin="round" shaper:cutDepth="0.003175" /><path d="M-5.9078,-5.9241005 A0.4068005,0.4068005 270 1,1 -5.9078,-5.1104995 L-6.4686856,-5.1104995 A0.4068005,0.4068005 90 0,1 -6.4686856,-5.9241005 L-5.9078,-5.9241005z" transform="matrix(1,0,0,-1,8.255,6.0325)" fill="rgb(255,255,255)" stroke="rgb(0,0,0)" stroke-width="0.0010cm" stroke-linecap="round" stroke-linejoin="round" shaper:cutDepth="0.003175" /><path d="M-4.3507346,-5.9192893 A0.4019893,0.4019893 270 1,1 -4.3507346,-5.1153107 L-4.9132725,-5.1153107 A0.4019893,0.4019893 90 0,1 -4.9132725,-5.9192893 L-4.3507346,-5.9192893z" transform="matrix(1,0,0,-1,8.255,6.0325)" fill="rgb(255,255,255)" stroke="rgb(0,0,0)" stroke-width="0.0010cm" stroke-linecap="round" stroke-linejoin="round" shaper:cutDepth="0.003175" /><path d="M-2.3899718,-5.6980669 A0.3249076,0.3249076 270 0,1 -2.3899718,-5.0482517 L-3.2041709,-5.0482517 A0.3249076,0.3249076 90 0,1 -3.2041709,-5.6980669 L-2.3899718,-5.6980669z" transform="matrix(1,0,0,-1,8.255,6.0325)" fill="rgb(255,255,255)" stroke="rgb(0,0,0)" stroke-width="0.0010cm" stroke-linecap="round" stroke-linejoin="round" shaper:cutDepth="0.003175" /><path d="M-0.2286,-4.97205 A0.3175,0.3175 0 0,0 -0.8636,-4.97205 L-0.8636,-4.6609 -1.1684,-4.6609 -1.1684,-4.97205 A0.3175,0.3175 0 0,0 -1.8034,-4.97205 L-1.8034,-4.6609 -1.87325,-4.6609 A0.15875,0.15875 270 0,0 -2.032,-4.50215 L-2.032,-3.48615 A0.15875,0.15875 180 0,0 -1.87325,-3.3274 L-0.15875,-3.3274 A0.15875,0.15875 90 0,0 -0,-3.48615 L-0,-4.50215 A0.15875,0.15875 0 0,0 -0.15875,-4.6609 L-0.2286,-4.6609 -0.2286,-4.97205z" transform="matrix(1,0,0,-1,8.255,6.0325)" fill="rgb(255,255,255)" stroke="rgb(0,0,0)" stroke-width="0.0010cm" stroke-linecap="round" stroke-linejoin="round" shaper:cutDepth="0.003175" /><path d="M-1.8034,4.66725 A0.3175,0.3175 180 0,0 -1.1684,4.66725 L-1.1684,4.3561 -0.8636,4.3561 -0.8636,4.66725 A0.3175,0.3175 180 0,0 -0.2286,4.66725 L-0.2286,4.3561 -0.15875,4.3561 A0.15875,0.15875 90 0,0 0,4.19735 L-0,3.18135 A0.15875,0.15875 0 0,0 -0.15875,3.0226 L-1.87325,3.0226 A0.15875,0.15875 270 0,0 -2.032,3.18135 L-2.032,4.19735 A0.15875,0.15875 180 0,0 -1.87325,4.3561 L-1.8034,4.3561 -1.8034,4.66725z" transform="matrix(1,0,0,-1,8.255,6.0325)" fill="rgb(255,255,255)" stroke="rgb(0,0,0)" stroke-width="0.0010cm" stroke-linecap="round" stroke-linejoin="round" shaper:cutDepth="0.003175" /><path d="M-2.032,-1.96215 A0.15875,0.15875 180 0,0 -1.87325,-1.8034 L-0.15875,-1.8034 A0.15875,0.15875 90 0,0 0,-1.96215 L-0,-2.91465 A0.15875,0.15875 0 0,0 -0.15875,-3.0734 L-1.87325,-3.0734 A0.15875,0.15875 270 0,0 -2.032,-2.91465 L-2.032,-1.96215z" transform="matrix(1,0,0,-1,8.255,6.0325)" fill="rgb(255,255,255)" stroke="rgb(0,0,0)" stroke-width="0.0010cm" stroke-linecap="round" stroke-linejoin="round" shaper:cutDepth="0.003175" /><path d="M-2.032,-0.43815 A0.15875,0.15875 180 0,0 -1.87325,-0.2794 L-0.15875,-0.2794 A0.15875,0.15875 90 0,0 0,-0.43815 L-0,-1.39065 A0.15875,0.15875 0 0,0 -0.15875,-1.5494 L-1.87325,-1.5494 A0.15875,0.15875 270 0,0 -2.032,-1.39065 L-2.032,-0.43815z" transform="matrix(1,0,0,-1,8.255,6.0325)" fill="rgb(255,255,255)" stroke="rgb(0,0,0)" stroke-width="0.0010cm" stroke-linecap="round" stroke-linejoin="round" shaper:cutDepth="0.003175" /><path d="M-2.032,1.08585 A0.15875,0.15875 180 0,0 -1.87325,1.2446 L-0.15875,1.2446 A0.15875,0.15875 90 0,0 0,1.08585 L-0,0.13335 A0.15875,0.15875 0 0,0 -0.15875,-0.0254 L-1.87325,-0.0254 A0.15875,0.15875 270 0,0 -2.032,0.13335 L-2.032,1.08585z" transform="matrix(1,0,0,-1,8.255,6.0325)" fill="rgb(255,255,255)" stroke="rgb(0,0,0)" stroke-width="0.0010cm" stroke-linecap="round" stroke-linejoin="round" shaper:cutDepth="0.003175" /><path d="M-2.032,2.60985 A0.15875,0.15875 180 0,0 -1.87325,2.7686 L-0.15875,2.7686 A0.15875,0.15875 90 0,0 0,2.60985 L-0,1.65735 A0.15875,0.15875 0 0,0 -0.15875,1.4986 L-1.87325,1.4986 A0.15875,0.15875 270 0,0 -2.032,1.65735 L-2.032,2.60985z" transform="matrix(1,0,0,-1,8.255,6.0325)" fill="rgb(255,255,255)" stroke="rgb(0,0,0)" stroke-width="0.0010cm" stroke-linecap="round" stroke-linejoin="round" shaper:cutDepth="0.003175" /><path d="M7.404735,-5.3975 a0.215265,0.215265 0 1,1 0.43053,0 a0.215265,0.215265 0 1,1 -0.43053,0z" transform="matrix(1,0,0,-1,8.255,6.0325)" fill="rgb(255,255,255)" stroke="rgb(0,0,0)" stroke-width="0.0010cm" stroke-linecap="round" stroke-linejoin="round" shaper:cutDepth="0.003175" /><path d="M-7.835265,-5.3975 a0.215265,0.215265 0 1,1 0.43053,0 a0.215265,0.215265 0 1,1 -0.43053,0z" transform="matrix(1,0,0,-1,8.255,6.0325)" fill="rgb(255,255,255)" stroke="rgb(0,0,0)" stroke-width="0.0010cm" stroke-linecap="round" stroke-linejoin="round" shaper:cutDepth="0.003175" /><path d="M-7.835265,5.3975 a0.215265,0.215265 0 1,1 0.43053,0 a0.215265,0.215265 0 1,1 -0.43053,0z" transform="matrix(1,0,0,-1,8.255,6.0325)" fill="rgb(255,255,255)" stroke="rgb(0,0,0)" stroke-width="0.0010cm" stroke-linecap="round" stroke-linejoin="round" shaper:cutDepth="0.003175" /><path d="M7.404735,5.3975 a0.215265,0.215265 0 1,1 0.43053,0 a0.215265,0.215265 0 1,1 -0.43053,0z" transform="matrix(1,0,0,-1,8.255,6.0325)" fill="rgb(255,255,255)" stroke="rgb(0,0,0)" stroke-width="0.0010cm" stroke-linecap="round" stroke-linejoin="round" shaper:cutDepth="0.003175" /><path d="M-3.3677564,4.318 A0.15875,0.15875 90 0,0 -3.2555032,4.2715032 L-2.7134968,3.7294968 A0.15875,0.15875 45 0,0 -2.667,3.6172436 L-2.667,1.55575 A0.15875,0.15875 0 0,0 -2.82575,1.397 L-6.82625,1.397 A0.15875,0.15875 270 0,0 -6.985,1.55575 L-6.985,3.6172436 A0.15875,0.15875 180 0,0 -6.9385032,3.7294968 L-6.3964968,4.2715032 A0.15875,0.15875 135 0,0 -6.2842436,4.318 L-3.3677564,4.318z" transform="matrix(1,0,0,-1,8.255,6.0325)" fill="rgb(255,255,255)" stroke="rgb(0,0,0)" stroke-width="0.0010cm" stroke-linecap="round" stroke-linejoin="round" shaper:cutDepth="0.003175" /><path d="M-6.2842436,-4.318 A0.15875,0.15875 270 0,0 -6.3964968,-4.2715032 L-6.9385032,-3.7294968 A0.15875,0.15875 225 0,0 -6.985,-3.6172436 L-6.985,0.4445 A0.15875,0.15875 180 0,0 -6.82625,0.60325 L-2.82575,0.60325 A0.15875,0.15875 90 0,0 -2.667,0.4445 L-2.667,-3.6172436 A0.15875,0.15875 0 0,0 -2.7134968,-3.7294968 L-3.2555032,-4.2715032 A0.15875,0.15875 315 0,0 -3.3677564,-4.318 L-6.2842436,-4.318z" transform="matrix(1,0,0,-1,8.255,6.0325)" fill="rgb(255,255,255)" stroke="rgb(0,0,0)" stroke-width="0.0010cm" stroke-linecap="round" stroke-linejoin="round" shaper:cutDepth="0.003175" /><path d="M6.985,-3.6172436 A0.15875,0.15875 0 0,0 6.9385032,-3.7294968 L6.3964968,-4.2715032 A0.15875,0.15875 315 0,0 6.2842436,-4.318 L1.3357564,-4.318 A0.15875,0.15875 270 0,0 1.2235032,-4.2715032 L0.6814968,-3.7294968 A0.15875,0.15875 225 0,0 0.635,-3.6172436 L0.635,3.6172436 A0.15875,0.15875 180 0,0 0.6814968,3.7294968 L1.2235032,4.2715032 A0.15875,0.15875 135 0,0 1.3357564,4.318 L6.2842436,4.318 A0.15875,0.15875 90 0,0 6.3964968,4.2715032 L6.9385032,3.7294968 A0.15875,0.15875 45 0,0 6.985,3.6172436 L6.985,-3.6172436z" transform="matrix(1,0,0,-1,8.255,6.0325)" fill="rgb(255,255,255)" stroke="rgb(0,0,0)" stroke-width="0.0010cm" stroke-linecap="round" stroke-linejoin="round" shaper:cutDepth="0.003175" /></svg>