<?xml version="1.0" encoding="utf-8"?>
<!-- Generator: Fusion 360, Shaper Origin Export Add-In, Version 1.6.10  -->
<svg xmlns="http://www.w3.org/2000/svg" xmlns:xlink="http://www.w3.org/1999/xlink" xmlns:shaper="http://www.shapertools.com/namespaces/shaper" shaper:fusionaddin="version:1.6.10" width="16.51cm" height="12.065cm" version="1.1" x="0cm" y="0cm" viewBox="0 0 16.51 12.065" enable-background="new 0 0 16.51 12.065" xml:space="preserve"><path d="M-6.985,5.3975 A0.635,0.635 0 0,0 -7.62,4.7625 L-8.255,4.7625 -8.255,-4.7625 -7.62,-4.7625 A0.635,0.635 90 0,0 -6.985,-5.3975 L-6.985,-6.0325 6.985,-6.0325 6.985,-5.3975 A0.635,0.635 180 0,0 7.62,-4.7625 L8.255,-4.7625 8.255,4.7625 7.62,4.7625 A0.635,0.635 270 0,0 6.985,5.3975 L6.985,6.0325 -6.985,6.0325 -6.985,5.3975z" transform="matrix(1,0,0,-1,8.255,6.0325)" fill="rgb(0,0,0)" shaper:cutDepth="0.0047625" stroke-linecap="round" stroke-linejoin="round" /><path d="M-6.985,3.6172436 L-6.985,-3.6172436 A0.15875,0.15875 180 0,1 -6.9385032,-3.7294968 L-6.3964968,-4.2715032 A0.15875,0.15875 225 0,1 -6.2842436,-4.318 L-1.3357564,-4.318 A0.15875,0.15875 270 0,1 -1.2235032,-4.2715032 L-0.6814968,-3.7294968 A0.15875,0.15875 315 0,1 -0.635,-3.6172436 L-0.635,3.6172436 A0.15875,0.15875 0 0,1 -0.6814968,3.7294968 L-1.2235032,4.2715032 A0.15875,0.15875 45 0,1 -1.3357564,4.318 L-6.2842436,4.318 A0.15875,0.15875 90 0,1 -6.3964968,4.2715032 L-6.9385032,3.7294968 A0.15875,0.15875 135 0,1 -6.985,3.6172436z" transform="matrix(1,0,0,-1,8.255,6.0325)" fill="rgb(255,255,255)" stroke="rgb(0,0,0)" stroke-width="0.0010cm" stroke-linecap="round" stroke-linejoin="round" shaper:cutDepth="0.0047625" /><path d="M6.2842436,4.318 L3.3677564,4.318 A0.15875,0.15875 90 0,1 3.2555032,4.2715032 L2.7134968,3.7294968 A0.15875,0.15875 135 0,1 2.667,3.6172436 L2.667,-0.4445 A0.15875,0.15875 180 0,1 2.82575,-0.60325 L6.82625,-0.60325 A0.15875,0.15875 270 0,1 6.985,-0.4445 L6.985,3.6172436 A0.15875,0.15875 0 0,1 6.9385032,3.7294968 L6.3964968,4.2715032 A0.15875,0.15875 45 0,1 6.2842436,4.318z" transform="matrix(1,0,0,-1,8.255,6.0325)" fill="rgb(255,255,255)" stroke="rgb(0,0,0)" stroke-width="0.0010cm" stroke-linecap="round" stroke-linejoin="round" shaper:cutDepth="0.0047625" /><path d="M0,4.50215 L0,3.48615 A0.15875,0.15875 180 0,1 0.15875,3.3274 L1.87325,3.3274 A0.15875,0.15875 270 0,1 2.032,3.48615 L2.032,4.50215 A0.15875,0.15875 0 0,1 1.87325,4.6609 L0.15875,4.6609 A0.15875,0.15875 90 0,1 0,4.50215z" transform="matrix(1,0,0,-1,8.255,6.0325)" fill="rgb(255,255,255)" stroke="rgb(0,0,0)" stroke-width="0.0010cm" stroke-linecap="round" stroke-linejoin="round" shaper:cutDepth="0.0047625" /><path d="M0,2.91465 L0,1.96215 A0.15875,0.15875 180 0,1 0.15875,1.8034 L1.87325,1.8034 A0.15875,0.15875 270 0,1 2.032,1.96215 L2.032,2.91465 A0.15875,0.15875 0 0,1 1.87325,3.0734 L0.15875,3.0734 A0.15875,0.15875 90 0,1 0,2.91465z" transform="matrix(1,0,0,-1,8.255,6.0325)" fill="rgb(255,255,255)" stroke="rgb(0,0,0)" stroke-width="0.0010cm" stroke-linecap="round" stroke-linejoin="round" shaper:cutDepth="0.0047625" /><path d="M0,1.39065 L0,0.43815 A0.15875,0.15875 180 0,1 0.15875,0.2794 L1.87325,0.2794 A0.15875,0.15875 270 0,1 2.032,0.43815 L2.032,1.39065 A0.15875,0.15875 0 0,1 1.87325,1.5494 L0.15875,1.5494 A0.15875,0.15875 90 0,1 0,1.39065z" transform="matrix(1,0,0,-1,8.255,6.0325)" fill="rgb(255,255,255)" stroke="rgb(0,0,0)" stroke-width="0.0010cm" stroke-linecap="round" stroke-linejoin="round" shaper:cutDepth="0.0047625" /><path d="M0,-0.13335 L0,-1.08585 A0.15875,0.15875 180 0,1 0.15875,-1.2446 L1.87325,-1.2446 A0.15875,0.15875 270 0,1 2.032,-1.08585 L2.032,-0.13335 A0.15875,0.15875 0 0,1 1.87325,0.0254 L0.15875,0.0254 A0.15875,0.15875 90 0,1 0,-0.13335z" transform="matrix(1,0,0,-1,8.255,6.0325)" fill="rgb(255,255,255)" stroke="rgb(0,0,0)" stroke-width="0.0010cm" stroke-linecap="round" stroke-linejoin="round" shaper:cutDepth="0.0047625" /><path d="M0,-1.65735 L0,-2.60985 A0.15875,0.15875 180 0,1 0.15875,-2.7686 L1.87325,-2.7686 A0.15875,0.15875 270 0,1 2.032,-2.60985 L2.032,-1.65735 A0.15875,0.15875 0 0,1 1.87325,-1.4986 L0.15875,-1.4986 A0.15875,0.15875 90 0,1 0,-1.65735z" transform="matrix(1,0,0,-1,8.255,6.0325)" fill="rgb(255,255,255)" stroke="rgb(0,0,0)" stroke-width="0.0010cm" stroke-linecap="round" stroke-linejoin="round" shaper:cutDepth="0.0047625" /><path d="M0.39878,4.97205 a0.14732,0.14732 0 1,1 0.29464,0 a0.14732,0.14732 0 1,1 -0.29464,0z" transform="matrix(1,0,0,-1,8.255,6.0325)" fill="rgb(255,255,255)" stroke="rgb(0,0,0)" stroke-width="0.0010cm" stroke-linecap="round" stroke-linejoin="round" shaper:cutDepth="0.0047625" /><path d="M1.33858,4.97205 a0.14732,0.14732 0 1,1 0.29464,0 a0.14732,0.14732 0 1,1 -0.29464,0z" transform="matrix(1,0,0,-1,8.255,6.0325)" fill="rgb(255,255,255)" stroke="rgb(0,0,0)" stroke-width="0.0010cm" stroke-linecap="round" stroke-linejoin="round" shaper:cutDepth="0.0047625" /><path d="M1.33858,-4.66725 a0.14732,0.14732 0 1,1 0.29464,0 a0.14732,0.14732 0 1,1 -0.29464,0z" transform="matrix(1,0,0,-1,8.255,6.0325)" fill="rgb(255,255,255)" stroke="rgb(0,0,0)" stroke-width="0.0010cm" stroke-linecap="round" stroke-linejoin="round" shaper:cutDepth="0.0047625" /><path d="M0.39878,-4.66725 a0.14732,0.14732 0 1,1 0.29464,0 a0.14732,0.14732 0 1,1 -0.29464,0z" transform="matrix(1,0,0,-1,8.255,6.0325)" fill="rgb(255,255,255)" stroke="rgb(0,0,0)" stroke-width="0.0010cm" stroke-linecap="round" stroke-linejoin="round" shaper:cutDepth="0.0047625" /><path d="M0,-3.18135 L0,-4.19735 A0.15875,0.15875 180 0,1 0.15875,-4.3561 L1.87325,-4.3561 A0.15875,0.15875 270 0,1 2.032,-4.19735 L2.032,-3.18135 A0.15875,0.15875 0 0,1 1.87325,-3.0226 L0.15875,-3.0226 A0.15875,0.15875 90 0,1 0,-3.18135z" transform="matrix(1,0,0,-1,8.255,6.0325)" fill="rgb(255,255,255)" stroke="rgb(0,0,0)" stroke-width="0.0010cm" stroke-linecap="round" stroke-linejoin="round" shaper:cutDepth="0.0047625" /><path d="M3.3677564,-4.318 L6.2842436,-4.318 A0.15875,0.15875 270 0,1 6.3964968,-4.2715032 L6.9385032,-3.7294968 A0.15875,0.15875 315 0,1 6.985,-3.6172436 L6.985,-1.55575 A0.15875,0.15875 0 0,1 6.82625,-1.397 L2.82575,-1.397 A0.15875,0.15875 90 0,1 2.667,-1.55575 L2.667,-3.6172436 A0.15875,0.15875 180 0,1 2.7134968,-3.7294968 L3.2555032,-4.2715032 A0.15875,0.15875 225 0,1 3.3677564,-4.318z" transform="matrix(1,0,0,-1,8.255,6.0325)" fill="rgb(255,255,255)" stroke="rgb(0,0,0)" stroke-width="0.0010cm" stroke-linecap="round" stroke-linejoin="round" shaper:cutDepth="0.0047625" /></svg>