<?xml version="1.0" encoding="utf-8"?>
<!-- Generator: Fusion 360, Shaper Origin Export Add-In, Version 1.6.10  -->
<svg xmlns="http://www.w3.org/2000/svg" xmlns:xlink="http://www.w3.org/1999/xlink" xmlns:shaper="http://www.shapertools.com/namespaces/shaper" shaper:fusionaddin="version:1.6.10" width="1.2573cm" height="1.2573cm" version="1.1" x="0cm" y="0cm" viewBox="0 0 1.2573 1.2573" enable-background="new 0 0 1.2573 1.2573" xml:space="preserve"><path d="M-0.62865,0.62865 L0.62865,0.62865 0.62865,-0.62865 -0.62865,-0.62865 -0.62865,0.62865z" transform="matrix(1,0,0,-1,0.62865,0.62865)" fill="rgb(0,0,0)" shaper:cutDepth="0.000762" stroke-linecap="round" stroke-linejoin="round" /><path d="M0.1562515,0.0529902 L0.1535163,0.0512352 0.1535163,0.0512352 0.1453075,0.0460814 0.1408532,0.0442066 0.1360274,0.0438455 0.1360274,0.0438455 0.1314411,0.0442673 0.1269993,0.0454797 0.1229573,0.047682 0.1194842,0.050704 0.1168247,0.054462 0.1149587,0.0586716 0.1138784,0.063146 0.1135298,0.0677389 0.1135298,0.0677389 0.1139822,0.0737843 0.1158921,0.0795288 0.1198115,0.0841418 0.1247837,0.08761 0.269206,0.1715121 0.269206,0.2026914 0.1422675,0.2026418 0.1422675,0.2026418 0.1310822,0.2032741 0.1255928,0.2044292 0.1204016,0.2065396 0.1160988,0.2101107 0.1132729,0.2149413 0.1118558,0.2203619 0.1115593,0.2259604 0.1115593,0.2259604 0.1120485,0.2313743 0.1135106,0.2366039 0.1161587,0.2413512 0.1199342,0.2452557 0.1199342,0.2452557 0.1254934,0.2482356 0.1317793,0.2490279 0.1444511,0.2492294 0.4565758,0.2491969 0.4565758,0.2491969 0.4633263,0.2492702 0.4700108,0.2483975 0.4764031,0.2462321 0.4818303,0.2422455 0.4856034,0.236668 0.487766,0.2302706 0.4888672,0.2236187 0.4892546,0.2168798 0.4892547,0.1419642 0.4892547,0.1419642 0.4886205,0.1317594 0.4870652,0.1216545 0.4845523,0.1117444 0.4808783,0.1022031 0.4761209,0.0931555 0.4703096,0.0847421 0.4636109,0.0770215 0.4560946,0.0700871 0.4478966,0.0639831 0.4391111,0.0587463 0.4298545,0.0544148 0.4202069,0.051018 0.410323,0.048413 0.4002615,0.0465757 0.3901037,0.0454333 0.3798872,0.044995 0.3798872,0.044995 0.3627695,0.0461769 0.3459192,0.049387 0.3376853,0.0518022 0.3296423,0.0547944 0.3218574,0.0584016 0.3143437,0.0625483 0.307131,0.0671966 0.300326,0.0724226 0.293988,0.0782097 0.2882531,0.0845876 0.283111,0.0914616 0.2787719,0.0988588 0.275228,0.1066757 0.2725371,0.1148225 0.2714267,0.1193577 0.1562515,0.0529902z M0.4426174,0.2026914 L0.3158432,0.2026914 0.3158432,0.1436885 0.3158432,0.1436885 0.3162419,0.1343125 0.3178684,0.1250805 0.3195636,0.1206906 0.3219042,0.1166125 0.3282415,0.1096959 0.3282415,0.1096959 0.3335419,0.1052206 0.3393202,0.1013807 0.3455059,0.0982407 0.3519948,0.0957865 0.3654804,0.0925638 0.3793125,0.0915501 0.3793125,0.0915501 0.3954801,0.092964 0.4033888,0.0948017 0.4110878,0.0973822 0.4184819,0.1007438 0.4253351,0.1050871 0.4315721,0.1102944 0.4367879,0.1165108 0.4367879,0.1165108 0.439987,0.1218789 0.4418022,0.127863 0.4426174,0.1403328 0.4426174,0.2026914z" transform="matrix(1,0,0,-1,0.62865,0.62865)" fill="rgb(106,106,106)" fill-rule="nonzero" shaper:cutDepth="0.0000508" stroke-linecap="round" stroke-linejoin="round" /><path d="M0.4945096,-0.1241468 L0.4945096,-0.1241468 0.4939525,-0.1326934 0.4924687,-0.1411303 0.4901569,-0.1493764 0.4870538,-0.1573616 0.4832964,-0.1650579 0.4788393,-0.1723738 0.473814,-0.1793096 0.4682351,-0.1858097 0.4682351,-0.1858097 0.4600735,-0.1932914 0.4512784,-0.2000254 0.4419235,-0.2059437 0.4321401,-0.2111353 0.4219875,-0.2155575 0.4115908,-0.2193713 0.3902385,-0.2252313 0.3684709,-0.2293053 0.3464662,-0.2318064 0.3243591,-0.2331479 0.3022133,-0.2335143 0.3022133,-0.2335143 0.2810685,-0.2331668 0.2599613,-0.2318913 0.2389402,-0.2295891 0.2181291,-0.225848 0.1976992,-0.220396 0.1877135,-0.2169108 0.1779437,-0.2128607 0.1684428,-0.2082025 0.1593016,-0.2028737 0.1506518,-0.1968032 0.1423496,-0.1902436 0.1423496,-0.1902436 0.1358163,-0.1837247 0.1298916,-0.1766481 0.1247827,-0.1689621 0.1203732,-0.1608543 0.1167277,-0.1523744 0.1140283,-0.143551 0.1122082,-0.1345011 0.1115593,-0.1252964 0.1115593,-0.1252964 0.1123358,-0.1150582 0.1145206,-0.1050204 0.1177372,-0.0952699 0.1219757,-0.085914 0.1270349,-0.076976 0.1328314,-0.0684982 0.1394618,-0.060655 0.1467014,-0.05337 0.1467014,-0.05337 0.1550483,-0.0468013 0.1639899,-0.0410696 0.1734216,-0.036184 0.183159,-0.0319399 0.2033334,-0.0253033 0.224049,-0.0205935 0.2450281,-0.0172293 0.2661599,-0.0150217 0.287375,-0.0138815 0.3086178,-0.0134657 0.3086178,-0.0134657 0.3283062,-0.0139204 0.347954,-0.0152213 0.3675048,-0.0176035 0.3868572,-0.0212357 0.4058948,-0.0262817 0.4243903,-0.0330273 0.4333412,-0.0371465 0.442014,-0.0418188 0.4583001,-0.0528774 0.4583001,-0.0528774 0.4658469,-0.0598473 0.4726497,-0.0675438 0.4786411,-0.0758889 0.4838273,-0.0847563 0.4881413,-0.0940796 0.4914795,-0.1037936 0.4936522,-0.1138346 0.4945095,-0.1240696 0.4945096,-0.1241468z M0.3039376,-0.1868771 L0.3039376,-0.1868771 0.3329898,-0.1859205 0.3474675,-0.1846437 0.3618799,-0.1827479 0.3761657,-0.1800785 0.3902428,-0.1764601 0.4039953,-0.1717541 0.4171641,-0.1656112 0.4171641,-0.1656112 0.4281723,-0.1579285 0.433155,-0.1534249 0.4376665,-0.1484446 0.4416174,-0.1430131 0.4448509,-0.1371216 0.4470645,-0.130776 0.4478695,-0.1241123 0.4478695,-0.1241123 0.4470967,-0.1180007 0.4453031,-0.1121039 0.4426952,-0.1065215 0.4395022,-0.101246 0.4317568,-0.0916746 0.4223369,-0.0837499 0.4223369,-0.0837499 0.4090487,-0.0767058 0.3949141,-0.0715231 0.380385,-0.0676142 0.3656191,-0.064698 0.3507229,-0.0625571 0.3357398,-0.0611365 0.3056619,-0.0601028 0.3056619,-0.0601028 0.2734783,-0.0611838 0.2574415,-0.0626308 0.2414952,-0.0648708 0.2257096,-0.0680459 0.2102164,-0.0724252 0.1952592,-0.078394 0.1814329,-0.0866236 0.1814329,-0.0866236 0.1728539,-0.0939615 0.1654858,-0.1025086 0.1625577,-0.107336 0.1603287,-0.1125223 0.1587975,-0.1179596 0.1581964,-0.1235721 0.1581964,-0.1235721 0.1589516,-0.1298474 0.1608547,-0.1358778 0.1636425,-0.141554 0.16702,-0.1469 0.1709701,-0.1518375 0.1754113,-0.1563418 0.1802723,-0.1603839 0.1855383,-0.163887 0.1855383,-0.163887 0.1991035,-0.1708276 0.2134343,-0.1760483 0.2281617,-0.1799662 0.2431476,-0.1827902 0.2582652,-0.1847441 0.2734632,-0.1859862 0.3039376,-0.1868771z" transform="matrix(1,0,0,-1,0.62865,0.62865)" fill="rgb(106,106,106)" fill-rule="nonzero" shaper:cutDepth="0.0000508" stroke-linecap="round" stroke-linejoin="round" /></svg>