<?xml version="1.0" encoding="utf-8"?>
<!-- Generator: Fusion 360, Shaper Origin Export Add-In, Version 1.6.10  -->
<svg xmlns="http://www.w3.org/2000/svg" xmlns:xlink="http://www.w3.org/1999/xlink" xmlns:shaper="http://www.shapertools.com/namespaces/shaper" shaper:fusionaddin="version:1.6.10" width="1.2573cm" height="1.2573cm" version="1.1" x="0cm" y="0cm" viewBox="0 0 1.2573 1.2573" enable-background="new 0 0 1.2573 1.2573" xml:space="preserve"><path d="M-0.62865,0.62865 L0.62865,0.62865 0.62865,-0.62865 -0.62865,-0.62865 -0.62865,0.62865z" transform="matrix(1,0,0,-1,0.62865,0.62865)" fill="rgb(0,0,0)" shaper:cutDepth="0.000762" stroke-linecap="round" stroke-linejoin="round" /><path d="M0.1529415,0.0619092 L0.1529415,0.2083894 0.4638932,0.2083894 0.4638932,0.2083894 0.4736427,0.2093588 0.4782825,0.2109484 0.4824622,0.213517 0.4857558,0.2171428 0.4879706,0.2215158 0.4889769,0.2263177 0.4892547,0.2312153 0.4892547,0.2312153 0.4889745,0.2360808 0.4879123,0.2408356 0.4857171,0.2451839 0.4824237,0.2487632 0.4782292,0.2512493 0.4736277,0.2528466 0.4639655,0.2540412 0.1395076,0.2540413 0.1395076,0.2540413 0.1337527,0.254101 0.1280496,0.253363 0.1226226,0.2514584 0.1179897,0.2480656 0.1147884,0.2432935 0.112881,0.2378646 0.111901,0.2321979 0.1115593,0.226453 0.1115593,0.0648024 0.1115593,0.0648024 0.111583,0.0582465 0.112134,0.0517279 0.112134,0.0517279 0.1145684,0.0453196 0.1191973,0.0402602 0.1220638,0.0383264 0.1252278,0.0369651 0.1320041,0.035799 0.1320041,0.035799 0.1380331,0.036704 0.1436052,0.0391495 0.1483334,0.0430166 0.1513815,0.0482793 0.1513815,0.0482793 0.1527334,0.0550172 0.1529415,0.0619092z" transform="matrix(1,0,0,-1,0.62865,0.62865)" fill="rgb(106,106,106)" fill-rule="nonzero" shaper:cutDepth="0.0000508" stroke-linecap="round" stroke-linejoin="round" /><path d="M0.4945096,-0.1294017 L0.4945096,-0.1294017 0.4939525,-0.1379483 0.4924687,-0.1463852 0.4901569,-0.1546313 0.4870538,-0.1626165 0.4832964,-0.1703128 0.4788393,-0.1776287 0.473814,-0.1845645 0.4682351,-0.1910646 0.4682351,-0.1910646 0.4600735,-0.1985463 0.4512784,-0.2052803 0.4419235,-0.2111986 0.4321401,-0.2163902 0.4219875,-0.2208124 0.4115908,-0.2246262 0.3902385,-0.2304862 0.3684709,-0.2345602 0.3464662,-0.2370613 0.3243591,-0.2384028 0.3022133,-0.2387692 0.3022133,-0.2387692 0.2810685,-0.2384217 0.2599613,-0.2371462 0.2389402,-0.234844 0.2181291,-0.2311029 0.1976992,-0.2256509 0.1877135,-0.2221657 0.1779437,-0.2181156 0.1684428,-0.2134574 0.1593016,-0.2081286 0.1506518,-0.2020581 0.1423496,-0.1954984 0.1423496,-0.1954984 0.1358163,-0.1889796 0.1298916,-0.181903 0.1247827,-0.174217 0.1203732,-0.1661092 0.1167277,-0.1576293 0.1140283,-0.1488059 0.1122082,-0.139756 0.1115593,-0.1305513 0.1115593,-0.1305513 0.1123358,-0.1203131 0.1145206,-0.1102753 0.1177372,-0.1005248 0.1219757,-0.0911689 0.1270349,-0.0822309 0.1328314,-0.0737531 0.1394618,-0.0659099 0.1467014,-0.0586249 0.1467014,-0.0586249 0.1550483,-0.0520562 0.1639899,-0.0463245 0.1734216,-0.0414389 0.183159,-0.0371948 0.2033334,-0.0305582 0.224049,-0.0258484 0.2450281,-0.0224842 0.2661599,-0.0202766 0.287375,-0.0191364 0.3086178,-0.0187206 0.3086178,-0.0187206 0.3283062,-0.0191753 0.347954,-0.0204762 0.3675048,-0.0228584 0.3868572,-0.0264905 0.4058948,-0.0315366 0.4243903,-0.0382822 0.4333412,-0.0424014 0.442014,-0.0470737 0.4583001,-0.0581323 0.4583001,-0.0581323 0.4658469,-0.0651021 0.4726497,-0.0727987 0.4786411,-0.0811438 0.4838273,-0.0900112 0.4881413,-0.0993345 0.4914795,-0.1090485 0.4936522,-0.1190895 0.4945095,-0.1293245 0.4945096,-0.1294017z M0.3039376,-0.192132 L0.3039376,-0.192132 0.3329898,-0.1911754 0.3474675,-0.1898985 0.3618799,-0.1880028 0.3761657,-0.1853334 0.3902428,-0.181715 0.4039953,-0.177009 0.4171641,-0.1708661 0.4171641,-0.1708661 0.4281723,-0.1631834 0.433155,-0.1586798 0.4376665,-0.1536995 0.4416174,-0.1482679 0.4448509,-0.1423765 0.4470645,-0.1360309 0.4478695,-0.1293672 0.4478695,-0.1293672 0.4470967,-0.1232556 0.4453031,-0.1173588 0.4426952,-0.1117764 0.4395022,-0.1065009 0.4317568,-0.0969295 0.4223369,-0.0890048 0.4223369,-0.0890048 0.4090487,-0.0819607 0.3949141,-0.076778 0.380385,-0.0728691 0.3656191,-0.0699529 0.3507229,-0.067812 0.3357398,-0.0663914 0.3056619,-0.0653577 0.3056619,-0.0653577 0.2734783,-0.0664387 0.2574415,-0.0678857 0.2414952,-0.0701257 0.2257096,-0.0733008 0.2102164,-0.0776801 0.1952592,-0.0836489 0.1814329,-0.0918785 0.1814329,-0.0918785 0.1728539,-0.0992164 0.1654858,-0.1077635 0.1625577,-0.1125908 0.1603287,-0.1177772 0.1587975,-0.1232145 0.1581964,-0.128827 0.1581964,-0.128827 0.1589516,-0.1351023 0.1608547,-0.1411327 0.1636425,-0.1468089 0.16702,-0.1521549 0.1709701,-0.1570924 0.1754113,-0.1615967 0.1802723,-0.1656388 0.1855383,-0.1691419 0.1855383,-0.1691419 0.1991035,-0.1760825 0.2134343,-0.1813032 0.2281617,-0.1852211 0.2431476,-0.1880451 0.2582652,-0.189999 0.2734632,-0.1912411 0.3039376,-0.192132z" transform="matrix(1,0,0,-1,0.62865,0.62865)" fill="rgb(106,106,106)" fill-rule="nonzero" shaper:cutDepth="0.0000508" stroke-linecap="round" stroke-linejoin="round" /></svg>