<?xml version="1.0" encoding="utf-8"?>
<!-- Generator: Fusion 360, Shaper Origin Export Add-In, Version 1.6.10  -->
<svg xmlns="http://www.w3.org/2000/svg" xmlns:xlink="http://www.w3.org/1999/xlink" xmlns:shaper="http://www.shapertools.com/namespaces/shaper" shaper:fusionaddin="version:1.6.10" width="1.33985cm" height="0.6731cm" version="1.1" x="0cm" y="0cm" viewBox="0 0 1.33985 0.6731" enable-background="new 0 0 1.33985 0.6731" xml:space="preserve"><path d="M0.669925,-0.33655 L-0.669925,-0.33655 -0.669925,0.33655 0.669925,0.33655 0.669925,-0.33655z" transform="matrix(1,0,0,-1,0.669925,0.33655)" fill="rgb(0,0,0)" shaper:cutDepth="0.000127" stroke-linecap="round" stroke-linejoin="round" /><path d="M-0.2921341,0.1174942 L-0.2921606,-0.0685456 -0.3928201,0.1303212 -0.3928201,0.1303212 -0.3958426,0.1353083 -0.4000674,0.1393101 -0.4054036,0.1416423 -0.4112159,0.1420444 -0.4112159,0.1420444 -0.4147973,0.141802 -0.4182542,0.1408438 -0.4214292,0.1391714 -0.4241581,0.1368408 -0.4241581,0.1368408 -0.427289,0.1330223 -0.4284241,0.1282036 -0.4287613,0.1182947 -0.4287878,-0.1401005 -0.4287878,-0.1401005 -0.4282189,-0.1490358 -0.4273224,-0.1534192 -0.4256567,-0.1575788 -0.4228863,-0.161078 -0.4190666,-0.1633987 -0.4147523,-0.1645855 -0.4102819,-0.1648331 -0.4102819,-0.1648331 -0.4061194,-0.1645427 -0.4020688,-0.1635472 -0.3983979,-0.1615696 -0.3953776,-0.1586969 -0.3932315,-0.1551218 -0.3919123,-0.151162 -0.3909353,-0.1428847 -0.3909756,0.046221 -0.2907772,-0.1540398 -0.2907772,-0.1540398 -0.287608,-0.1585828 -0.2834424,-0.1622283 -0.2782974,-0.1642676 -0.2727875,-0.1648331 -0.2727875,-0.1648331 -0.2687438,-0.1645983 -0.2648252,-0.1635826 -0.2612786,-0.1616336 -0.258415,-0.1587765 -0.2564329,-0.1552473 -0.2551896,-0.1513904 -0.2543081,-0.1433517 -0.2543484,0.1191698 -0.2543484,0.1191698 -0.2549313,0.1277736 -0.2559792,0.1319631 -0.2578907,0.1358281 -0.2608989,0.1389101 -0.264736,0.1408743 -0.268944,0.1418219 -0.2732544,0.1420444 -0.2732544,0.1420444 -0.2777726,0.1418722 -0.2821575,0.1407833 -0.2860975,0.1385908 -0.2889861,0.1351214 -0.2906951,0.1309429 -0.2916222,0.1265126 -0.2921341,0.1174942z" transform="matrix(1,0,0,-1,0.669925,0.33655)" fill="rgb(119,119,119)" fill-rule="nonzero" shaper:cutDepth="0.0000254" stroke-linecap="round" stroke-linejoin="round" /><path d="M-0.1168803,0.146314 L-0.1168803,0.146314 -0.1099363,0.1458614 -0.1030812,0.1446558 -0.0963813,0.1427774 -0.0898933,0.1402562 -0.0836401,0.1372033 -0.0776959,0.1335819 -0.0667792,0.124966 -0.0667792,0.124966 -0.0607003,0.1183347 -0.055229,0.1111887 -0.0504203,0.1035878 -0.0462022,0.0956388 -0.0395105,0.0789425 -0.0347492,0.0615937 -0.031439,0.0439075 -0.0294069,0.0260288 -0.028317,0.0080668 -0.0280193,-0.0099267 -0.0280193,-0.0099267 -0.0283016,-0.0271069 -0.0293379,-0.0442565 -0.0312085,-0.0613361 -0.0342481,-0.0782451 -0.0386779,-0.0948444 -0.0448003,-0.1108958 -0.0485851,-0.1186153 -0.0529147,-0.1260425 -0.0631767,-0.139816 -0.0631767,-0.139816 -0.0684733,-0.1451243 -0.074223,-0.1499381 -0.0804679,-0.1540891 -0.0870555,-0.1576719 -0.0939454,-0.1606338 -0.1011145,-0.1628271 -0.1084675,-0.1643059 -0.1159463,-0.1648331 -0.1159463,-0.1648331 -0.1242648,-0.1642022 -0.1324206,-0.1624271 -0.1403428,-0.1598136 -0.1479445,-0.1563698 -0.1552066,-0.1522592 -0.1620948,-0.1475496 -0.1684674,-0.1421623 -0.1743865,-0.1362802 -0.1743865,-0.1362802 -0.1797235,-0.1294983 -0.1843805,-0.1222332 -0.1917985,-0.1066583 -0.1971907,-0.0902666 -0.2010174,-0.0734353 -0.2037508,-0.0563897 -0.2055445,-0.0392201 -0.2068088,-0.0047231 -0.2068088,-0.0047231 -0.2064393,0.0112737 -0.2053823,0.0272376 -0.2034468,0.0431226 -0.2004957,0.0588465 -0.1963957,0.0743145 -0.190915,0.089342 -0.1837718,0.1036613 -0.1747868,0.1168938 -0.1747868,0.1168938 -0.1691237,0.1230256 -0.1628703,0.1285528 -0.1560899,0.1334208 -0.1488851,0.1376346 -0.14131,0.1411397 -0.1334173,0.1438521 -0.125259,0.1456173 -0.1169431,0.1463139 -0.1168803,0.146314z M-0.065912,-0.0085257 L-0.065912,-0.0085257 -0.0666892,0.0150792 -0.069267,0.0385524 -0.0714359,0.0501596 -0.0743758,0.0615972 -0.0781994,0.0727711 -0.0831905,0.0834708 -0.0831905,0.0834708 -0.0894947,0.0923942 -0.0971384,0.100129 -0.1015438,0.1033416 -0.1063383,0.1059663 -0.1114941,0.1077648 -0.1169084,0.1084189 -0.1169084,0.1084189 -0.1218672,0.107707 -0.1266652,0.1063337 -0.1354872,0.1016205 -0.143264,0.0953273 -0.1497029,0.0876737 -0.1497029,0.0876737 -0.1554261,0.076877 -0.1596371,0.0653927 -0.1628131,0.0535878 -0.1651825,0.0415905 -0.1680763,0.0173135 -0.1689161,-0.0071248 -0.1689161,-0.0071248 -0.1680378,-0.0332739 -0.1668621,-0.0463038 -0.1650421,-0.0592602 -0.1624624,-0.072086 -0.1589041,-0.0846742 -0.1540545,-0.0968269 -0.1473679,-0.1080608 -0.1473679,-0.1080608 -0.1414059,-0.1150313 -0.1344614,-0.1210178 -0.1305392,-0.1233969 -0.1263253,-0.125208 -0.1219075,-0.1264521 -0.1173473,-0.1269404 -0.1173473,-0.1269404 -0.1122486,-0.1263269 -0.1073489,-0.1247806 -0.0983934,-0.1197713 -0.0907219,-0.1129534 -0.0845915,-0.1047252 -0.0845915,-0.1047252 -0.0789522,-0.0937034 -0.0747104,-0.0820597 -0.0715271,-0.0700937 -0.0692326,-0.0579177 -0.0666359,-0.0332862 -0.065912,-0.0085257z" transform="matrix(1,0,0,-1,0.669925,0.33655)" fill="rgb(119,119,119)" fill-rule="nonzero" shaper:cutDepth="0.0000254" stroke-linecap="round" stroke-linejoin="round" /><path d="M0.115965,0.1420443 L0.0918562,0.1408434 0.0918562,0.1408434 0.0846508,0.1401276 0.0775492,0.1387161 0.0706173,0.136625 0.0639509,0.1338 0.0576614,0.1302135 0.0518156,0.1259417 0.0464458,0.1210846 0.0415861,0.1157171 0.0373042,0.1098789 0.0336269,0.1036407 0.0305508,0.0970867 0.0280961,0.0902738 0.0249358,0.076152 0.0238164,0.0617225 0.0238164,0.0617225 0.024356,0.0522313 0.0257182,0.0428229 0.0281066,0.0336217 0.0313706,0.0246926 0.0355003,0.0161305 0.0405587,0.0080821 0.0466912,0.000819 0.0537703,-0.0055237 0.0537703,-0.0055237 0.0604989,-0.0098185 0.0677062,-0.0132535 0.0829236,-0.0180656 0.1235285,-0.0283203 0.1235285,-0.0283203 0.1284844,-0.0296521 0.1332428,-0.0315526 0.1376967,-0.0341103 0.1414972,-0.0375457 0.1414972,-0.0375457 0.1450866,-0.0417732 0.1480748,-0.0464484 0.1525848,-0.0565687 0.1552809,-0.0673231 0.156174,-0.0783737 0.156174,-0.0783737 0.1551713,-0.0896844 0.1522218,-0.1006521 0.14724,-0.1108544 0.1439462,-0.1154879 0.1400963,-0.1196688 0.1400963,-0.1196688 0.134686,-0.1237007 0.1284421,-0.1262857 0.1218219,-0.1275959 0.1150791,-0.1280078 0.0923289,-0.1280643 0.0923289,-0.1280643 0.0838534,-0.1277386 0.0797462,-0.1266444 0.0758482,-0.1249616 0.0690905,-0.1198407 0.0637576,-0.1132408 0.0598293,-0.1057005 0.057244,-0.0976062 0.0559863,-0.0892013 0.0556382,-0.0807087 0.0556382,-0.0807087 0.0550609,-0.0723275 0.0540057,-0.0682595 0.0522983,-0.0644146 0.0497334,-0.0610932 0.0462815,-0.0587012 0.0422764,-0.0574344 0.0380928,-0.0570257 0.0380928,-0.0570257 0.0334319,-0.0576242 0.0289947,-0.059165 0.0251159,-0.0618089 0.022116,-0.0654224 0.020077,-0.0696531 0.018781,-0.0741747 0.0178122,-0.0835106 0.0178122,-0.0835106 0.0190185,-0.098953 0.0224622,-0.1140537 0.0251754,-0.1213066 0.0285888,-0.1282651 0.0326697,-0.1348487 0.0374255,-0.1409658 0.0427824,-0.1465626 0.0487086,-0.1515532 0.055181,-0.1558104 0.0621163,-0.1592628 0.0693998,-0.1619034 0.0769236,-0.1637527 0.0845908,-0.1648632 0.0923301,-0.1652334 0.1164377,-0.1648331 0.1164377,-0.1648331 0.1245368,-0.1642691 0.1325608,-0.1630345 0.140417,-0.1609887 0.1480231,-0.1581521 0.1552098,-0.1543749 0.1619693,-0.149881 0.1681466,-0.1446137 0.1736937,-0.1386857 0.1786416,-0.1322488 0.1828793,-0.1253263 0.186381,-0.1179998 0.1892042,-0.1103893 0.1912839,-0.1025414 0.1927401,-0.0945531 0.194,-0.0783737 0.194,-0.0783737 0.1930157,-0.0638773 0.1902101,-0.0496235 0.1853269,-0.0359441 0.1820915,-0.0294338 0.1782905,-0.0232396 0.1691041,-0.0119884 0.1637658,-0.0070577 0.158009,-0.0026193 0.1518154,0.0011832 0.1453169,0.0044389 0.1316238,0.0092865 0.0909108,0.0194641 0.0909108,0.0194641 0.0853467,0.0211084 0.080008,0.0233529 0.0750603,0.0264 0.0711155,0.0306345 0.0711155,0.0306345 0.0669232,0.0376102 0.0639053,0.0451694 0.0622551,0.0531389 0.0616424,0.0612555 0.0616424,0.0612555 0.0624454,0.0711512 0.0648207,0.0807813 0.0666594,0.0853962 0.0690481,0.0897456 0.0719046,0.09381 0.0753184,0.0974137 0.0753184,0.0974137 0.0795087,0.1000574 0.0841154,0.1019066 0.0888905,0.1032375 0.0937978,0.1039516 0.1126559,0.1043624 0.1145468,0.1043624 0.1145468,0.1043624 0.1213486,0.103807 0.1278858,0.101851 0.1337985,0.0984587 0.1386422,0.0936576 0.142372,0.0879414 0.1452281,0.0817421 0.1491025,0.0686606 0.1491025,0.0686606 0.1519044,0.0584536 0.1519044,0.0584536 0.154838,0.0546528 0.1588025,0.0519422 0.1633964,0.050549 0.1681822,0.0501146 0.1681822,0.0501146 0.175664,0.0515604 0.1790455,0.053331 0.1819383,0.0558201 0.1840915,0.0589745 0.1855321,0.0625092 0.1865949,0.0700616 0.1865949,0.0700616 0.1857339,0.0788957 0.1836236,0.0875261 0.1806448,0.0958888 0.1769216,0.1039516 0.1769216,0.1039516 0.172166,0.1118023 0.1665285,0.1190406 0.1600525,0.1255468 0.152804,0.1311732 0.1448854,0.1358126 0.1364296,0.1393755 0.1275071,0.1415228 0.118348,0.1420444 0.115965,0.1420443z" transform="matrix(1,0,0,-1,0.669925,0.33655)" fill="rgb(119,119,119)" fill-rule="nonzero" shaper:cutDepth="0.0000254" stroke-linecap="round" stroke-linejoin="round" /><path d="M0.3601141,0.0267652 L0.3601141,0.0267652 0.3686068,0.0260709 0.3726964,0.0248379 0.3764393,0.0227972 0.3794947,0.0198205 0.3814423,0.0160285 0.3824416,0.0118822 0.382663,0.0076187 0.382663,0.0076187 0.3824804,0.0032177 0.3813597,-0.0010389 0.3790734,-0.004797 0.3757233,-0.0076446 0.371721,-0.0094857 0.3674487,-0.0105562 0.3586651,-0.0111276 0.2793517,-0.0111276 0.2793517,-0.1269404 0.3928033,-0.1269404 0.3928033,-0.1269404 0.4015786,-0.1274942 0.4058407,-0.1286114 0.4097815,-0.1305692 0.4129815,-0.1335827 0.4151502,-0.1374098 0.4161851,-0.1416869 0.4163528,-0.1460869 0.4163528,-0.1460869 0.4161506,-0.1506381 0.4148562,-0.1550019 0.4122913,-0.1587614 0.4086862,-0.1615314 0.4044757,-0.1632781 0.4000337,-0.1642912 0.3909438,-0.1648331 0.2651155,-0.1648331 0.2651155,-0.1648331 0.2547955,-0.1640968 0.2498558,-0.1625442 0.2456394,-0.1595607 0.2430293,-0.1550972 0.2417921,-0.1500734 0.2415395,-0.1397221 0.241566,0.1174275 0.241566,0.1174275 0.2420644,0.1276442 0.2434968,0.1325541 0.2462156,0.1368836 0.250435,0.139759 0.2553238,0.1412777 0.265518,0.1420443 0.3923363,0.1420444 0.3923363,0.1420444 0.4008168,0.1414951 0.4049279,0.1403733 0.4086885,0.1383987 0.4118055,0.1355002 0.4138213,0.1317607 0.4147856,0.1276182 0.4149518,0.1233649 0.4149518,0.1233649 0.4147778,0.1189092 0.4137083,0.1145833 0.4114716,0.110732 0.4081543,0.1077649 0.4041468,0.1058068 0.3998383,0.1046637 0.3909438,0.1041516 0.2793517,0.1041516 0.2793517,0.0267652 0.3601141,0.0267652z" transform="matrix(1,0,0,-1,0.669925,0.33655)" fill="rgb(119,119,119)" fill-rule="nonzero" shaper:cutDepth="0.0000254" stroke-linecap="round" stroke-linejoin="round" /></svg>