<?xml version="1.0" encoding="utf-8"?>
<!-- Generator: Fusion 360, Shaper Origin Export Add-In, Version 1.6.10  -->
<svg xmlns="http://www.w3.org/2000/svg" xmlns:xlink="http://www.w3.org/1999/xlink" xmlns:shaper="http://www.shapertools.com/namespaces/shaper" shaper:fusionaddin="version:1.6.10" width="16.51cm" height="2.54cm" version="1.1" x="0cm" y="0cm" viewBox="0 0 16.51 2.54" enable-background="new 0 0 16.51 2.54" xml:space="preserve"><path d="M8.255,-0.1162131 L8.255,1.11125 A0.15875,0.15875 0 0,1 8.09625,1.27 L-8.09625,1.27 A0.15875,0.15875 90 0,1 -8.255,1.11125 L-8.255,-1.11125 A0.15875,0.15875 180 0,1 -8.09625,-1.27 L7.5217652,-1.27 A0.15875,0.15875 270 0,1 7.6592467,-1.190625 L8.2337315,-0.1955881 A0.15875,0.15875 330 0,1 8.255,-0.1162131z" transform="matrix(1,0,0,-1,8.255,1.27)" fill="rgb(0,0,0)" shaper:cutDepth="0.003175" stroke-linecap="round" stroke-linejoin="round" /><path d="M-7.883925,-0.5805862 L-7.5793424,-0.5805862 A0.15875,0.15875 270 0,1 -7.4315175,-0.3639626 A0.65,0.65 201.3803779 0,0 -6.2430629,0.1600414 A0.15875,0.15875 206.2061529 0,1 -6.0982045,0.0714143 A0.1984375,0.1984375 90.8756842 1,0 -6.0982045,-0.3254143 A0.15875,0.15875 89.1243158 0,1 -6.2430629,-0.4140414 A0.15875,0.15875 188.8644093 0,1 -6.086209,-0.5483286 L-5.8436308,-0.5483286 -5.8436308,-1.1571911 -6.4565255,-1.1571911 -6.4565255,-0.9077473 A0.15875,0.15875 0 0,1 -6.6566878,-0.754494 A0.65,0.65 285.1213898 0,0 -7.0334502,-0.743091 A0.15875,0.15875 71.4114689 0,1 -7.2428049,-0.8935593 L-7.2428049,-1.1571911 -7.883925,-1.1571911 -7.883925,-0.5805862z" transform="matrix(1,0,0,-1,8.255,1.27)" fill="rgb(255,255,255)" stroke="rgb(0,0,0)" stroke-width="0.0010cm" stroke-linecap="round" stroke-linejoin="round" shaper:cutDepth="0.003175" /><path d="M3.9575454,-0.0635086 L3.9575454,-0.553791 4.7941265,-0.553791 4.7941265,-0.0635086 3.9575454,-0.0635086z" transform="matrix(1,0,0,-1,8.255,1.27)" fill="rgb(255,255,255)" stroke="rgb(0,0,0)" stroke-width="0.0010cm" stroke-linecap="round" stroke-linejoin="round" shaper:cutDepth="0.003175" /><path d="M4.966107,0.8061394 L4.966107,-0.2078361 6.853222,-0.2078361 6.853222,0.8061394 4.966107,0.8061394z" transform="matrix(1,0,0,-1,8.255,1.27)" fill="rgb(255,255,255)" stroke="rgb(0,0,0)" stroke-width="0.0010cm" stroke-linecap="round" stroke-linejoin="round" shaper:cutDepth="0.003175" /><path d="M0.8501696,1.1653573 L0.8501696,0.5685914 4.7989494,0.5685914 4.7989494,1.1653573 0.8501696,1.1653573z" transform="matrix(1,0,0,-1,8.255,1.27)" fill="rgb(255,255,255)" stroke="rgb(0,0,0)" stroke-width="0.0010cm" stroke-linecap="round" stroke-linejoin="round" shaper:cutDepth="0.003175" /><path d="M-0.6578723,0.0508449 L-0.6578723,-0.5232122 -0.0428111,-0.5232122 -0.0428111,0.0508449 -0.6578723,0.0508449z" transform="matrix(1,0,0,-1,8.255,1.27)" fill="rgb(255,255,255)" stroke="rgb(0,0,0)" stroke-width="0.0010cm" stroke-linecap="round" stroke-linejoin="round" shaper:cutDepth="0.003175" /><path d="M-1.6670284,-0.1951796 L-1.6670284,-0.7692367 -1.0633572,-0.7692367 -1.0633572,-0.1951796 -1.6670284,-0.1951796z" transform="matrix(1,0,0,-1,8.255,1.27)" fill="rgb(255,255,255)" stroke="rgb(0,0,0)" stroke-width="0.0010cm" stroke-linecap="round" stroke-linejoin="round" shaper:cutDepth="0.003175" /><path d="M-3.2025384,1.0242302 L-3.2025384,0.4234321 -2.5412573,0.4234321 -2.5412573,1.0242302 -3.2025384,1.0242302z" transform="matrix(1,0,0,-1,8.255,1.27)" fill="rgb(255,255,255)" stroke="rgb(0,0,0)" stroke-width="0.0010cm" stroke-linecap="round" stroke-linejoin="round" shaper:cutDepth="0.003175" /><path d="M-7.5290913,1.1653573 L-7.5290913,0.5685914 -6.1662069,0.5685914 -6.1662069,1.1653573 -7.5290913,1.1653573z" transform="matrix(1,0,0,-1,8.255,1.27)" fill="rgb(255,255,255)" stroke="rgb(0,0,0)" stroke-width="0.0010cm" stroke-linecap="round" stroke-linejoin="round" shaper:cutDepth="0.003175" /><path d="M-4.43236,0.0000509 L-4.43236,-0.6047794 -3.7710789,-0.6047794 -3.7710789,0.0000509 -4.43236,0.0000509z" transform="matrix(1,0,0,-1,8.255,1.27)" fill="rgb(255,255,255)" stroke="rgb(0,0,0)" stroke-width="0.0010cm" stroke-linecap="round" stroke-linejoin="round" shaper:cutDepth="0.003175" /><path d="M1.6100412,0.3290387 L1.3664039,-0.2312998 1.2948133,-0.9556637 2.7817373,-0.9556637 2.7817373,-0.3668418 2.4070324,0.3290387 1.6100412,0.3290387z" transform="matrix(1,0,0,-1,8.255,1.27)" fill="rgb(255,255,255)" stroke="rgb(0,0,0)" stroke-width="0.0010cm" stroke-linecap="round" stroke-linejoin="round" shaper:cutDepth="0.003175" /><path d="M7.404735,0.5715 a0.215265,0.215265 0 1,1 0.43053,0 a0.215265,0.215265 0 1,1 -0.43053,0z" transform="matrix(1,0,0,-1,8.255,1.27)" fill="rgb(255,255,255)" stroke="rgb(0,0,0)" stroke-width="0.0010cm" stroke-linecap="round" stroke-linejoin="round" shaper:cutDepth="0.003175" /><path d="M3.277235,-0.381 a0.215265,0.215265 0 1,1 0.43053,0 a0.215265,0.215265 0 1,1 -0.43053,0z" transform="matrix(1,0,0,-1,8.255,1.27)" fill="rgb(255,255,255)" stroke="rgb(0,0,0)" stroke-width="0.0010cm" stroke-linecap="round" stroke-linejoin="round" shaper:cutDepth="0.003175" /><path d="M-5.422265,0.381 a0.215265,0.215265 0 1,1 0.43053,0 a0.215265,0.215265 0 1,1 -0.43053,0z" transform="matrix(1,0,0,-1,8.255,1.27)" fill="rgb(255,255,255)" stroke="rgb(0,0,0)" stroke-width="0.0010cm" stroke-linecap="round" stroke-linejoin="round" shaper:cutDepth="0.003175" /><path d="M0.5020346,0.6837541 a0.1389126,0.1389126 0 1,1 0.2778252,0 a0.1389126,0.1389126 0 1,1 -0.2778252,0z" transform="matrix(1,0,0,-1,8.255,1.27)" fill="rgb(255,255,255)" stroke="rgb(0,0,0)" stroke-width="0.0010cm" stroke-linecap="round" stroke-linejoin="round" shaper:cutDepth="0.003175" /><path d="M-2.0515718,-0.254 a0.1389126,0.1389126 0 1,1 0.2778252,0 a0.1389126,0.1389126 0 1,1 -0.2778252,0z" transform="matrix(1,0,0,-1,8.255,1.27)" fill="rgb(255,255,255)" stroke="rgb(0,0,0)" stroke-width="0.0010cm" stroke-linecap="round" stroke-linejoin="round" shaper:cutDepth="0.003175" /><path d="M-3.4925,-0.254 a0.635,0.635 0 1,1 1.27,0 a0.635,0.635 0 1,1 -1.27,0z" transform="matrix(1,0,0,-1,8.255,1.27)" fill="rgb(255,255,255)" stroke="rgb(0,0,0)" stroke-width="0.0010cm" stroke-linecap="round" stroke-linejoin="round" shaper:cutDepth="0.003175" /><path d="M0,-0.254 a0.635,0.635 0 1,1 1.27,0 a0.635,0.635 0 1,1 -1.27,0z" transform="matrix(1,0,0,-1,8.255,1.27)" fill="rgb(255,255,255)" stroke="rgb(0,0,0)" stroke-width="0.0010cm" stroke-linecap="round" stroke-linejoin="round" shaper:cutDepth="0.003175" /></svg>