<?xml version="1.0" encoding="utf-8"?>
<!-- Generator: Fusion 360, Shaper Origin Export Add-In, Version 1.6.10  -->
<svg xmlns="http://www.w3.org/2000/svg" xmlns:xlink="http://www.w3.org/1999/xlink" xmlns:shaper="http://www.shapertools.com/namespaces/shaper" shaper:fusionaddin="version:1.6.10" width="1.33985cm" height="0.6731cm" version="1.1" x="0cm" y="0cm" viewBox="0 0 1.33985 0.6731" enable-background="new 0 0 1.33985 0.6731" xml:space="preserve"><path d="M0.9792042,-0.1691789 L-0.3606458,-0.1691789 -0.3606458,0.5039211 0.9792042,0.5039211 0.9792042,-0.1691789z" transform="matrix(1,0,0,-1,0.3606458,0.5039211)" fill="rgb(0,0,0)" shaper:cutDepth="0.000127" stroke-linecap="round" stroke-linejoin="round" /><path d="M0.0015094,0.0388504 L0.0029353,0.0366281 0.0029353,0.0366281 0.0071228,0.0299584 0.0086461,0.0263393 0.0089395,0.0224183 0.0089395,0.0224183 0.0085968,0.018692 0.0076117,0.015083 0.0058223,0.0117989 0.0033669,0.008977 0.0003136,0.0068162 -0.0031068,0.0053 -0.0067422,0.0044223 -0.0104739,0.0041391 -0.0104739,0.0041391 -0.0153858,0.0045066 -0.0200533,0.0060584 -0.0238013,0.0092429 -0.0266192,0.0132829 -0.0947896,0.1306259 -0.1201228,0.1306259 -0.1200825,0.0274885 -0.1200825,0.0274885 -0.1205963,0.0184004 -0.1215348,0.0139402 -0.1232495,0.0097224 -0.126151,0.0062263 -0.1300759,0.0039303 -0.1344801,0.0027789 -0.1390289,0.002538 -0.1390289,0.002538 -0.1434277,0.0029355 -0.1476768,0.0041235 -0.1515339,0.006275 -0.1547063,0.0093427 -0.1547063,0.0093427 -0.1571275,0.0138594 -0.1577712,0.0189668 -0.157935,0.0292626 -0.1579085,0.282864 -0.1579085,0.282864 -0.1579681,0.2883487 -0.157259,0.2937799 -0.1554996,0.2989736 -0.1522605,0.3033832 -0.1477288,0.3064488 -0.1425309,0.308206 -0.1316509,0.3094155 -0.070782,0.3094155 -0.070782,0.3094155 -0.0624905,0.3089003 -0.0542803,0.3076365 -0.0462284,0.3055948 -0.0384761,0.3026097 -0.0311249,0.2987443 -0.024289,0.2940227 -0.0180161,0.28858 -0.0123818,0.282473 -0.0074223,0.275812 -0.0031674,0.2686739 0.0003519,0.2611529 0.0031118,0.2533142 0.0052284,0.2452836 0.0067212,0.2371086 0.0080055,0.2205545 0.0080055,0.2205545 0.0070452,0.2066463 0.004437,0.1929555 0.0000435,0.1797305 -0.0062566,0.1673003 -0.0142794,0.1559109 -0.0189814,0.1507613 -0.0241635,0.1461017 -0.0297486,0.1419237 -0.0357588,0.1383982 -0.0421101,0.1355189 -0.0487293,0.1333325 -0.0524142,0.1324303 0.0015094,0.0388504z M-0.0694565,0.2715227 L-0.1201228,0.2715227 -0.1201228,0.1685187 -0.072183,0.1685187 -0.072183,0.1685187 -0.064565,0.1688426 -0.057064,0.1701641 -0.0501837,0.1734433 -0.044564,0.1785923 -0.044564,0.1785923 -0.0409278,0.1828989 -0.0378079,0.1875938 -0.0352566,0.1926196 -0.0332626,0.1978919 -0.0306441,0.2088489 -0.0298205,0.2200875 -0.0298205,0.2200875 -0.0309693,0.2332237 -0.0324624,0.2396495 -0.0345591,0.2459049 -0.0372904,0.2519126 -0.0408193,0.2574808 -0.0450502,0.2625484 -0.0501011,0.2667862 -0.0501011,0.2667862 -0.0544627,0.2693855 -0.0593247,0.2708604 -0.0694565,0.2715227z" transform="matrix(1,0,0,-1,0.3606458,0.5039211)" fill="rgb(120,120,120)" fill-rule="nonzero" shaper:cutDepth="0.0000254" stroke-linecap="round" stroke-linejoin="round" /><path d="M0.0929972,0.0236191 L0.0929972,0.0236191 0.0922969,0.0155936 0.0911212,0.0117263 0.0891649,0.0082033 0.0863062,0.0053564 0.0826912,0.0035717 0.0787519,0.0027027 0.074718,0.002538 0.074718,0.002538 0.0703389,0.0029134 0.0660951,0.0040526 0.0622323,0.0061478 0.0588404,0.0089424 0.0588404,0.0089424 0.0568535,0.0121751 0.056165,0.0159379 0.055905,0.0235735 0.0559051,0.2874671 0.0559051,0.2874671 0.0565794,0.2958183 0.0577263,0.2998641 0.0597361,0.3035365 0.062691,0.3065174 0.0664204,0.3084292 0.0705216,0.3093104 0.074718,0.3094155 0.074718,0.3094155 0.0786961,0.3092567 0.0825847,0.3084177 0.0861699,0.3066954 0.0890637,0.3039682 0.0910653,0.3005331 0.0922824,0.2967393 0.0929972,0.2888281 0.0929972,0.0236191z" transform="matrix(1,0,0,-1,0.3606458,0.5039211)" fill="rgb(120,120,120)" fill-rule="nonzero" shaper:cutDepth="0.0000254" stroke-linecap="round" stroke-linejoin="round" /><path d="M0.2546416,0.1391652 L0.2775642,0.1391651 0.2775642,0.0911974 0.2775642,0.0911974 0.2771804,0.0824729 0.2761461,0.0738072 0.2741309,0.0653062 0.270823,0.0572326 0.2658445,0.0500589 0.262661,0.0470711 0.2590299,0.0446361 0.2550726,0.0427574 0.2508986,0.0414664 0.2422331,0.0404307 0.2422331,0.0404307 0.2349858,0.0412799 0.2280237,0.043461 0.2216352,0.046984 0.2160151,0.0516384 0.2160151,0.0516384 0.2069939,0.0626675 0.1992916,0.0746555 0.1930179,0.0874504 0.1878913,0.1007458 0.1838967,0.1144247 0.1810414,0.1283864 0.1793843,0.1425392 0.1787895,0.1567773 0.1787895,0.1567773 0.1798448,0.1744135 0.1825033,0.1918815 0.1868691,0.2090007 0.1930886,0.2255346 0.2012715,0.2411885 0.2061637,0.2485473 0.2117578,0.2553859 0.2181495,0.2614837 0.2254202,0.2664906 0.2335516,0.2699561 0.2422331,0.2715228 0.2422331,0.2715228 0.2486563,0.2709453 0.2547568,0.2688314 0.260225,0.265411 0.264978,0.2610411 0.2730087,0.2509349 0.2799257,0.2400345 0.2799257,0.2400345 0.2828526,0.2355412 0.2864601,0.231577 0.2911552,0.2290015 0.2964704,0.2282931 0.2964704,0.2282931 0.3004698,0.2287469 0.3043124,0.2299408 0.3077498,0.2320341 0.3106703,0.2348015 0.3129596,0.2381128 0.3146124,0.2417827 0.315553,0.2456953 0.3158837,0.2497078 0.3158837,0.2497078 0.3146943,0.2570585 0.3114906,0.2638143 0.3029415,0.2760593 0.3029415,0.2760593 0.290641,0.2892806 0.2837203,0.2950839 0.2762446,0.3001567 0.2681898,0.3042394 0.2596517,0.3071843 0.2507831,0.3088958 0.2417661,0.3094155 0.2417661,0.3094155 0.2289601,0.3081903 0.2165814,0.304691 0.2049121,0.2992786 0.1994717,0.2958357 0.1944002,0.2918701 0.1944002,0.2918701 0.1877359,0.2852413 0.1815408,0.2781717 0.1706102,0.2628869 0.1615709,0.2464118 0.1542506,0.2290994 0.1485383,0.2111856 0.1443473,0.1928583 0.141871,0.1742222 0.1409635,0.1554431 0.1409635,0.1554431 0.1414787,0.1411304 0.142885,0.1268779 0.1452668,0.1127553 0.148586,0.0988236 0.1527741,0.0851274 0.1579518,0.0717749 0.1641715,0.0588738 0.1713844,0.0465015 0.1713844,0.0465015 0.1775685,0.0377075 0.1843821,0.0293952 0.191986,0.0217937 0.2004155,0.015127 0.2096525,0.0096256 0.2196274,0.0056348 0.2301082,0.0032409 0.2408321,0.002538 0.2408321,0.002538 0.2505743,0.0032406 0.2601246,0.0052943 0.269333,0.0085499 0.2780587,0.0129414 0.2861526,0.0184092 0.2935054,0.0248412 0.3000462,0.0320947 0.3057434,0.0400304 0.3057434,0.0400304 0.3105607,0.0490488 0.3136845,0.0587817 0.3150869,0.068904 0.3154167,0.079124 0.3153764,0.1513446 0.3153764,0.1513446 0.3149208,0.1618187 0.313633,0.1669088 0.3110487,0.1714668 0.3068301,0.1745685 0.3018577,0.1762327 0.2914002,0.1770579 0.2559664,0.1770579 0.2559664,0.1770579 0.2480157,0.1768437 0.244071,0.1762778 0.2403652,0.1748564 0.2403652,0.1748564 0.2362668,0.1717643 0.2332673,0.1675797 0.2313665,0.1628094 0.2306918,0.1577113 0.2306918,0.1577113 0.2314366,0.1527248 0.2332671,0.1480361 0.2363072,0.1440166 0.2403652,0.1410332 0.2403652,0.1410332 0.2474023,0.1393913 0.2546416,0.1391652z" transform="matrix(1,0,0,-1,0.3606458,0.5039211)" fill="rgb(120,120,120)" fill-rule="nonzero" shaper:cutDepth="0.0000254" stroke-linecap="round" stroke-linejoin="round" /><path d="M0.5042131,0.1898667 L0.5042131,0.2890738 0.5042131,0.2900689 0.5042131,0.2900689 0.5047592,0.2977942 0.5063007,0.3013553 0.508688,0.3044162 0.511804,0.3067307 0.5153701,0.3082699 0.5191503,0.3091481 0.5230261,0.3094155 0.5230261,0.3094155 0.5271177,0.3092558 0.531127,0.3084297 0.5347947,0.3066181 0.5377549,0.3038016 0.539662,0.3001841 0.5407155,0.2962229 0.5413053,0.2880658 0.5413053,0.0250201 0.5413053,0.0250201 0.5407793,0.0164751 0.5397691,0.0123142 0.5379105,0.0084533 0.5348858,0.0054427 0.5310413,0.0035649 0.5268368,0.0027486 0.5225591,0.002538 0.5225591,0.002538 0.5182674,0.0026925 0.5140859,0.0036491 0.5102669,0.0055934 0.5073705,0.0087509 0.5056575,0.0126788 0.5047372,0.0168788 0.5042131,0.0254391 0.5042131,0.1562436 0.4004085,0.1562436 0.4004085,0.0236191 0.4004085,0.0236191 0.3998578,0.0154045 0.3986869,0.011451 0.3966027,0.0078996 0.3935701,0.005115 0.3898364,0.0033777 0.3857833,0.0026344 0.3816623,0.002538 0.3816623,0.002538 0.3775916,0.0026409 0.3735935,0.0034058 0.3699325,0.0051785 0.3669968,0.0079942 0.3650283,0.0115509 0.3639079,0.0154715 0.3633162,0.0235772 0.3633163,0.2871336 0.3633163,0.2871336 0.3639327,0.2955026 0.3649321,0.2995856 0.3667552,0.3033615 0.3696374,0.3064086 0.3733786,0.3083009 0.3774643,0.3092576 0.3816623,0.3094155 0.3816623,0.3094155 0.3857658,0.3093131 0.3897758,0.3084475 0.3934223,0.3065711 0.3963576,0.3037112 0.3983625,0.300132 0.3996142,0.2962207 0.4004085,0.2880658 0.4004085,0.1898667 0.5042131,0.1898667z" transform="matrix(1,0,0,-1,0.3606458,0.5039211)" fill="rgb(120,120,120)" fill-rule="nonzero" shaper:cutDepth="0.0000254" stroke-linecap="round" stroke-linejoin="round" /><path d="M0.6911416,0.0259541 L0.6911416,0.0259541 0.6906172,0.0172775 0.6895446,0.0130528 0.6876542,0.0091404 0.684795,0.0058584 0.6810421,0.0036718 0.6768137,0.0026505 0.6724621,0.002538 0.6724621,0.002538 0.6681594,0.0029432 0.6639903,0.0040711 0.660183,0.0061139 0.6569181,0.0089424 0.6569181,0.0089424 0.6544057,0.0132531 0.6535091,0.0181928 0.6532488,0.0282222 0.6532488,0.2715227 0.6071505,0.2715228 0.6071505,0.2715228 0.598567,0.2724075 0.5944415,0.2737087 0.5907201,0.2758889 0.5876489,0.2789287 0.5855816,0.2827177 0.5844887,0.286896 0.5841347,0.291203 0.5841347,0.291203 0.5844779,0.2955996 0.5857856,0.2998052 0.5883343,0.3034052 0.5918267,0.3060751 0.5959079,0.3077596 0.6001909,0.3088149 0.6089809,0.3094155 0.7377736,0.3094155 0.7377736,0.3094155 0.7462376,0.3085061 0.7502886,0.3071713 0.7539527,0.3050003 0.7569145,0.3019389 0.7589173,0.2981789 0.7599768,0.2940516 0.7603225,0.2898021 0.7603225,0.2898021 0.75993,0.2855788 0.7587009,0.2815229 0.7563748,0.2779772 0.753164,0.2752198 0.7493294,0.2734016 0.7452341,0.2722971 0.7367929,0.2715227 0.6911416,0.2715227 0.6911416,0.0259541z" transform="matrix(1,0,0,-1,0.3606458,0.5039211)" fill="rgb(120,120,120)" fill-rule="nonzero" shaper:cutDepth="0.0000254" stroke-linecap="round" stroke-linejoin="round" /></svg>