<?xml version="1.0" encoding="utf-8"?>
<!-- Generator: Fusion 360, Shaper Origin Export Add-In, Version 1.6.10  -->
<svg xmlns="http://www.w3.org/2000/svg" xmlns:xlink="http://www.w3.org/1999/xlink" xmlns:shaper="http://www.shapertools.com/namespaces/shaper" shaper:fusionaddin="version:1.6.10" width="4.064cm" height="3.556cm" version="1.1" x="0cm" y="0cm" viewBox="0 0 4.064 3.556" enable-background="new 0 0 4.064 3.556" xml:space="preserve"><path d="M0.6262426,-1.61925 L0.6262426,1.61925 A0.15875,0.15875 0 0,1 0.4674926,1.778 L-3.2790074,1.778 A0.15875,0.15875 90 0,1 -3.4377574,1.61925 L-3.4377574,-1.61925 A0.15875,0.15875 180 0,1 -3.2790074,-1.778 L0.4674926,-1.778 A0.15875,0.15875 270 0,1 0.6262426,-1.61925z" transform="matrix(1,0,0,-1,3.4377574,1.778)" fill="rgb(0,0,0)" shaper:cutDepth="0.003175" stroke-linecap="round" stroke-linejoin="round" /><path d="M-0.3510224,0.381 a0.215265,0.215265 0 1,1 0.43053,0 a0.215265,0.215265 0 1,1 -0.43053,0z" transform="matrix(1,0,0,-1,3.4377574,1.778)" fill="rgb(255,255,255)" stroke="rgb(0,0,0)" stroke-width="0.0010cm" stroke-linecap="round" stroke-linejoin="round" shaper:cutDepth="0.003175" /><path d="M-2.8002228,-0.1840521 L-2.8002228,-1.6131626 0.0190224,-1.6131626 0.0190224,-0.1840521 -0.6262426,-0.1840521 -0.6262426,1.1238005 -2.2459011,1.1238005 -2.2459011,-0.1840521 -2.8002228,-0.1840521z" transform="matrix(1,0,0,-1,3.4377574,1.778)" fill="rgb(255,255,255)" stroke="rgb(0,0,0)" stroke-width="0.0010cm" stroke-linecap="round" stroke-linejoin="round" shaper:cutDepth="0.003175" /><path d="M-2.8910224,0.381 a0.215265,0.215265 0 1,1 0.43053,0 a0.215265,0.215265 0 1,1 -0.43053,0z" transform="matrix(1,0,0,-1,3.4377574,1.778)" fill="rgb(255,255,255)" stroke="rgb(0,0,0)" stroke-width="0.0010cm" stroke-linecap="round" stroke-linejoin="round" shaper:cutDepth="0.003175" /></svg>