<?xml version="1.0" encoding="utf-8"?>
<!-- Generator: Fusion 360, Shaper Origin Export Add-In, Version 1.6.10  -->
<svg xmlns="http://www.w3.org/2000/svg" xmlns:xlink="http://www.w3.org/1999/xlink" xmlns:shaper="http://www.shapertools.com/namespaces/shaper" shaper:fusionaddin="version:1.6.10" width="1.33985cm" height="0.6731cm" version="1.1" x="0cm" y="0cm" viewBox="0 0 1.33985 0.6731" enable-background="new 0 0 1.33985 0.6731" xml:space="preserve"><path d="M0.669925,-0.33655 L-0.669925,-0.33655 -0.669925,0.33655 0.669925,0.33655 0.669925,-0.33655z" transform="matrix(1,0,0,-1,0.669925,0.33655)" fill="rgb(0,0,0)" shaper:cutDepth="0.000127" stroke-linecap="round" stroke-linejoin="round" /><path d="M-0.3120811,0.0267652 L-0.3120811,0.0267652 -0.3031327,0.0262308 -0.2987736,0.0251429 -0.2947137,0.02324 -0.2913261,0.0202998 -0.2890566,0.0164367 -0.2879048,0.0121011 -0.2876643,0.0076187 -0.2876643,0.0076187 -0.2879709,0.0030619 -0.2891821,-0.0013382 -0.2915909,-0.00521 -0.295211,-0.0079651 -0.2994639,-0.0096514 -0.303927,-0.0105888 -0.3130456,-0.0111276 -0.3909756,-0.0111276 -0.3909353,-0.1399494 -0.3909353,-0.1399494 -0.3915017,-0.1489299 -0.3924504,-0.1533289 -0.3941559,-0.1574972 -0.3969648,-0.1609962 -0.4007916,-0.1633535 -0.4051217,-0.1645727 -0.4096148,-0.1648331 -0.4096148,-0.1648331 -0.4141352,-0.1645109 -0.4185202,-0.1633778 -0.4223723,-0.1609985 -0.4252871,-0.1575418 -0.4271454,-0.1534071 -0.4282033,-0.1489998 -0.4288281,-0.1399622 -0.428828,0.1163601 -0.428828,0.1163601 -0.4286686,0.1216774 -0.4278272,0.126924 -0.4260417,0.1319356 -0.4230207,0.136303 -0.4188061,0.1395346 -0.4138477,0.1414476 -0.4085778,0.1421474 -0.4032605,0.1420443 -0.2783913,0.1420444 -0.2783913,0.1420444 -0.2700844,0.1410938 -0.2660745,0.1398664 -0.2624444,0.1378009 -0.2594173,0.1349055 -0.2573294,0.131283 -0.256147,0.1272687 -0.2557758,0.123098 -0.2557758,0.123098 -0.2560694,0.1188835 -0.2571824,0.1148115 -0.2592303,0.1111224 -0.2622735,0.1081982 -0.2659867,0.106192 -0.2700258,0.104945 -0.278421,0.1041516 -0.3909353,0.1041516 -0.3909353,0.0267652 -0.3120811,0.0267652z" transform="matrix(1,0,0,-1,0.669925,0.33655)" fill="rgb(120,120,120)" fill-rule="nonzero" shaper:cutDepth="0.0000254" stroke-linecap="round" stroke-linejoin="round" /><path d="M-0.1689161,-0.0512217 L-0.1689563,0.1191818 -0.1689563,0.1191818 -0.169506,0.127676 -0.1705881,0.1318006 -0.1724705,0.13562 -0.1753212,0.1387804 -0.1789959,0.1409274 -0.1831358,0.1419269 -0.1873954,0.1420444 -0.1873954,0.1420444 -0.1916059,0.1418786 -0.195731,0.1410243 -0.199484,0.139116 -0.2025156,0.1361991 -0.2046279,0.1325519 -0.2059172,0.1285439 -0.2067421,0.1201627 -0.2067685,-0.052175 -0.2067685,-0.052175 -0.206577,-0.0639299 -0.2057855,-0.0756569 -0.2038531,-0.0872524 -0.2007379,-0.0985876 -0.2007379,-0.0985876 -0.1953575,-0.1117223 -0.1883968,-0.1240905 -0.1798839,-0.1354439 -0.1697544,-0.1453747 -0.1641581,-0.149743 -0.158197,-0.1535959 -0.1454269,-0.1597751 -0.1317388,-0.1634969 -0.1176142,-0.1648331 -0.1176142,-0.1648331 -0.1076966,-0.1641459 -0.0979095,-0.1624018 -0.0884035,-0.1594974 -0.0793351,-0.1554238 -0.0708411,-0.1502629 -0.0630615,-0.1440727 -0.0560797,-0.1369983 -0.0498921,-0.1292156 -0.044491,-0.1208703 -0.0399139,-0.1120445 -0.036156,-0.1028413 -0.0331556,-0.0933613 -0.0309308,-0.0836742 -0.0293806,-0.0738507 -0.0280193,-0.0540237 -0.0280596,0.1168599 -0.0280596,0.1168599 -0.0285089,0.1260377 -0.0294116,0.1305503 -0.0310569,0.1348447 -0.0339549,0.1383908 -0.0379011,0.1407445 -0.0423745,0.1417946 -0.0469656,0.1420444 -0.0469656,0.1420444 -0.0515325,0.1417997 -0.0559626,0.1406755 -0.0598696,0.1383128 -0.06272,0.1347516 -0.0644018,0.1304998 -0.065334,0.1260192 -0.0658452,0.1168938 -0.0658718,-0.0498531 -0.0658718,-0.0498531 -0.0662986,-0.0664026 -0.0671436,-0.0746359 -0.0686472,-0.0827768 -0.0686472,-0.0827768 -0.0715327,-0.0911533 -0.0752595,-0.0991876 -0.0800186,-0.1066606 -0.0858063,-0.1133652 -0.0926179,-0.1190281 -0.1003637,-0.1233168 -0.10881,-0.1259847 -0.1176142,-0.1269404 -0.1176142,-0.1269404 -0.1254177,-0.1262059 -0.1329544,-0.1240496 -0.139944,-0.1205047 -0.1461951,-0.1157766 -0.1516357,-0.1101298 -0.156276,-0.1038128 -0.1600548,-0.0969428 -0.1632455,-0.0897816 -0.1632455,-0.0897816 -0.1664406,-0.0804976 -0.1681669,-0.0708371 -0.1689161,-0.0512217z" transform="matrix(1,0,0,-1,0.669925,0.33655)" fill="rgb(120,120,120)" fill-rule="nonzero" shaper:cutDepth="0.0000254" stroke-linecap="round" stroke-linejoin="round" /><path d="M0.1759876,-0.13121 L0.1759876,-0.13121 0.1815874,-0.1313792 0.1870619,-0.1324776 0.1870619,-0.1324776 0.1913378,-0.1349541 0.1944799,-0.1387958 0.1964668,-0.1433231 0.1972022,-0.1482217 0.1972022,-0.1482217 0.1962547,-0.1537274 0.1935774,-0.1586272 0.1894666,-0.1623882 0.18426,-0.1643662 0.18426,-0.1643662 0.1736369,-0.1648331 0.0422957,-0.1648331 0.0422957,-0.1648331 0.0330239,-0.1637592 0.0286129,-0.1622095 0.0247355,-0.1596084 0.0219789,-0.1558442 0.0204314,-0.1514347 0.0198317,-0.146801 0.0198803,-0.1421251 0.0198803,0.1214969 0.0198803,0.1214969 0.0208509,0.1293475 0.0221488,0.1330862 0.0241687,0.1364942 0.0270769,0.1391701 0.0306099,0.1409537 0.0344732,0.1418167 0.0384264,0.1420444 0.0384264,0.1420444 0.0463073,0.1410011 0.0498603,0.1392016 0.0528063,0.1365255 0.0548933,0.1331295 0.0561848,0.1293596 0.0569725,0.1214382 0.0569725,-0.13121 0.1759876,-0.13121z" transform="matrix(1,0,0,-1,0.669925,0.33655)" fill="rgb(120,120,120)" fill-rule="nonzero" shaper:cutDepth="0.0000254" stroke-linecap="round" stroke-linejoin="round" /><path d="M0.3980068,-0.13121 L0.3980068,-0.13121 0.4036066,-0.1313792 0.4090811,-0.1324776 0.4090811,-0.1324776 0.4133571,-0.1349541 0.4164991,-0.1387958 0.4184861,-0.1433231 0.4192214,-0.1482217 0.4192214,-0.1482217 0.4182739,-0.1537274 0.4155966,-0.1586272 0.4114859,-0.1623882 0.4062792,-0.1643662 0.4062792,-0.1643662 0.3956561,-0.1648331 0.264315,-0.1648331 0.264315,-0.1648331 0.2550431,-0.1637592 0.2506321,-0.1622095 0.2467547,-0.1596084 0.2439981,-0.1558442 0.2424506,-0.1514347 0.241851,-0.146801 0.2418995,-0.1421251 0.2418996,0.1214969 0.2418996,0.1214969 0.2428702,0.1293475 0.244168,0.1330862 0.246188,0.1364942 0.2490961,0.1391701 0.2526291,0.1409537 0.2564924,0.1418167 0.2604456,0.1420444 0.2604456,0.1420444 0.2683265,0.1410011 0.2718795,0.1392016 0.2748255,0.1365255 0.2769125,0.1331295 0.2782041,0.1293596 0.2789917,0.1214382 0.2789917,-0.13121 0.3980068,-0.13121z" transform="matrix(1,0,0,-1,0.669925,0.33655)" fill="rgb(120,120,120)" fill-rule="nonzero" shaper:cutDepth="0.0000254" stroke-linecap="round" stroke-linejoin="round" /></svg>