<?xml version="1.0" encoding="utf-8"?>
<!-- Generator: Fusion 360, Shaper Origin Export Add-In, Version 1.6.10  -->
<svg xmlns="http://www.w3.org/2000/svg" xmlns:xlink="http://www.w3.org/1999/xlink" xmlns:shaper="http://www.shapertools.com/namespaces/shaper" shaper:fusionaddin="version:1.6.10" width="1.2573cm" height="1.2573cm" version="1.1" x="0cm" y="0cm" viewBox="0 0 1.2573 1.2573" enable-background="new 0 0 1.2573 1.2573" xml:space="preserve"><path d="M-0.62865,-0.62865 L-0.62865,0.62865 0.62865,0.62865 0.62865,-0.62865 -0.62865,-0.62865z" transform="matrix(1,0,0,-1,0.62865,0.62865)" fill="rgb(0,0,0)" shaper:cutDepth="0.000762" stroke-linecap="round" stroke-linejoin="round" /><path d="M0.0247965,0.1529415 L-0.1216836,0.1529415 -0.1216836,0.4638932 -0.1216836,0.4638932 -0.122653,0.4736427 -0.1242426,0.4782825 -0.1268113,0.4824622 -0.1304371,0.4857558 -0.13481,0.4879706 -0.139612,0.4889769 -0.1445096,0.4892547 -0.1445096,0.4892547 -0.149375,0.4889745 -0.1541299,0.4879123 -0.1584782,0.4857171 -0.1620574,0.4824237 -0.1645435,0.4782292 -0.1661409,0.4736277 -0.1673355,0.4639655 -0.1673356,0.1395076 -0.1673356,0.1395076 -0.1673953,0.1337527 -0.1666573,0.1280496 -0.1647526,0.1226226 -0.1613599,0.1179897 -0.1565877,0.1147884 -0.1511588,0.112881 -0.1454921,0.111901 -0.1397473,0.1115593 0.0219034,0.1115593 0.0219034,0.1115593 0.0284592,0.111583 0.0349779,0.112134 0.0349779,0.112134 0.0413861,0.1145684 0.0464455,0.1191973 0.0483794,0.1220638 0.0497406,0.1252278 0.0509068,0.1320041 0.0509068,0.1320041 0.0500017,0.1380331 0.0475563,0.1436052 0.0436891,0.1483334 0.0384264,0.1513815 0.0384264,0.1513815 0.0316885,0.1527334 0.0247965,0.1529415z" transform="matrix(1,0,0,-1,0.62865,0.62865)" fill="rgb(106,106,106)" fill-rule="nonzero" shaper:cutDepth="0.0000508" stroke-linecap="round" stroke-linejoin="round" /><path d="M0.1515708,0.1375053 L0.1515708,0.1375053 0.1507088,0.1276277 0.1492619,0.122868 0.1468542,0.1185319 0.1433357,0.1150281 0.1388865,0.1128316 0.1340381,0.1117619 0.1290733,0.1115593 0.1290733,0.1115593 0.1236837,0.1120213 0.1184605,0.1134233 0.1137063,0.1160021 0.1095317,0.1194416 0.1095317,0.1194416 0.1070863,0.1234203 0.1062389,0.1280514 0.1059189,0.1374492 0.1059189,0.4622413 0.1059189,0.4622413 0.1067489,0.4725196 0.1081604,0.4774991 0.1106341,0.482019 0.1142709,0.4856878 0.1188609,0.4880407 0.1239086,0.4891253 0.1290733,0.4892547 0.1290733,0.4892547 0.1339695,0.4890592 0.1387554,0.4880266 0.1431679,0.4859068 0.1467295,0.4825502 0.1491931,0.4783225 0.1506911,0.4736531 0.1514372,0.4688165 0.1515708,0.4639163 0.1515708,0.1375053z" transform="matrix(1,0,0,-1,0.62865,0.62865)" fill="rgb(106,106,106)" fill-rule="nonzero" shaper:cutDepth="0.0000508" stroke-linecap="round" stroke-linejoin="round" /></svg>