<?xml version="1.0" encoding="utf-8"?>
<!-- Generator: Fusion 360, Shaper Origin Export Add-In, Version 1.6.10  -->
<svg xmlns="http://www.w3.org/2000/svg" xmlns:xlink="http://www.w3.org/1999/xlink" xmlns:shaper="http://www.shapertools.com/namespaces/shaper" shaper:fusionaddin="version:1.6.10" width="1.33985cm" height="0.6731cm" version="1.1" x="0cm" y="0cm" viewBox="0 0 1.33985 0.6731" enable-background="new 0 0 1.33985 0.6731" xml:space="preserve"><path d="M-0.669925,0.33655 L0.669925,0.33655 0.669925,-0.33655 -0.669925,-0.33655 -0.669925,0.33655z" transform="matrix(1,0,0,-1,0.669925,0.33655)" fill="rgb(0,0,0)" shaper:cutDepth="0.000127" stroke-linecap="round" stroke-linejoin="round" /><path d="M0.2723205,0.13121 L0.2723205,0.13121 0.2667207,0.1313792 0.2612462,0.1324776 0.2612462,0.1324776 0.2569702,0.1349541 0.2538282,0.1387958 0.2518412,0.1433231 0.2511059,0.1482217 0.2511059,0.1482217 0.2520534,0.1537274 0.2547307,0.1586272 0.2588414,0.1623882 0.2640481,0.1643662 0.2640481,0.1643662 0.2746712,0.1648331 0.4060123,0.1648331 0.4060123,0.1648331 0.4152842,0.1637592 0.4196952,0.1622095 0.4235726,0.1596084 0.4263292,0.1558442 0.4278767,0.1514347 0.4284763,0.146801 0.4284278,0.1421251 0.4284277,-0.1214969 0.4284277,-0.1214969 0.4274571,-0.1293475 0.4261593,-0.1330862 0.4241393,-0.1364942 0.4212312,-0.1391701 0.4176982,-0.1409537 0.4138349,-0.1418167 0.4098817,-0.1420444 0.4098817,-0.1420444 0.4020008,-0.1410011 0.3984478,-0.1392016 0.3955018,-0.1365255 0.3934148,-0.1331295 0.3921232,-0.1293596 0.3913356,-0.1214382 0.3913356,0.13121 0.2723205,0.13121z" transform="matrix(1,0,0,-1,0.669925,0.33655)" fill="rgb(120,120,120)" fill-rule="nonzero" shaper:cutDepth="0.0000254" stroke-linecap="round" stroke-linejoin="round" /><path d="M0.0881939,-0.0267652 L0.0881939,-0.0267652 0.0797013,-0.0260709 0.0756117,-0.0248379 0.0718687,-0.0227972 0.0688134,-0.0198205 0.0668658,-0.0160285 0.0658665,-0.0118822 0.0656451,-0.0076187 0.0656451,-0.0076187 0.0658277,-0.0032177 0.0669483,0.0010389 0.0692347,0.004797 0.0725847,0.0076446 0.0765871,0.0094857 0.0808594,0.0105562 0.089643,0.0111276 0.1689563,0.0111276 0.1689563,0.1269404 0.0555048,0.1269404 0.0555048,0.1269404 0.0467295,0.1274942 0.0424673,0.1286114 0.0385265,0.1305692 0.0353266,0.1335827 0.0331579,0.1374098 0.032123,0.1416869 0.0319553,0.1460869 0.0319553,0.1460869 0.0321575,0.1506381 0.0334519,0.1550019 0.0360168,0.1587614 0.0396219,0.1615314 0.0438324,0.1632781 0.0482744,0.1642912 0.0573643,0.1648331 0.1831926,0.1648331 0.1831926,0.1648331 0.1935125,0.1640968 0.1984522,0.1625442 0.2026687,0.1595607 0.2052787,0.1550972 0.206516,0.1500734 0.2067685,0.1397221 0.2067421,-0.1174275 0.2067421,-0.1174275 0.2062437,-0.1276442 0.2048112,-0.1325541 0.2020925,-0.1368836 0.1978731,-0.139759 0.1929842,-0.1412777 0.1827901,-0.1420443 0.0559718,-0.1420444 0.0559718,-0.1420444 0.0474912,-0.1414951 0.0433802,-0.1403733 0.0396196,-0.1383987 0.0365025,-0.1355002 0.0344868,-0.1317607 0.0335225,-0.1276182 0.0333563,-0.1233649 0.0333563,-0.1233649 0.0335302,-0.1189092 0.0345998,-0.1145833 0.0368365,-0.110732 0.0401537,-0.1077649 0.0441613,-0.1058068 0.0484697,-0.1046637 0.0573643,-0.1041516 0.1689563,-0.1041516 0.1689563,-0.0267652 0.0881939,-0.0267652z" transform="matrix(1,0,0,-1,0.669925,0.33655)" fill="rgb(120,120,120)" fill-rule="nonzero" shaper:cutDepth="0.0000254" stroke-linecap="round" stroke-linejoin="round" /><path d="M-0.1319573,-0.0267652 L-0.1319573,-0.0267652 -0.1409058,-0.0262308 -0.1452649,-0.0251429 -0.1493248,-0.02324 -0.1527124,-0.0202998 -0.1549818,-0.0164367 -0.1561336,-0.0121011 -0.1563741,-0.0076187 -0.1563741,-0.0076187 -0.1560675,-0.0030619 -0.1548563,0.0013382 -0.1524476,0.00521 -0.1488274,0.0079651 -0.1445745,0.0096514 -0.1401114,0.0105888 -0.1309929,0.0111276 -0.0530629,0.0111276 -0.0531032,0.1399494 -0.0531032,0.1399494 -0.0525367,0.1489299 -0.0515881,0.1533289 -0.0498826,0.1574972 -0.0470736,0.1609962 -0.0432469,0.1633535 -0.0389168,0.1645727 -0.0344237,0.1648331 -0.0344237,0.1648331 -0.0299032,0.1645109 -0.0255183,0.1633778 -0.0216661,0.1609985 -0.0187514,0.1575418 -0.0168931,0.1534071 -0.0158351,0.1489998 -0.0152104,0.1399622 -0.0152105,-0.1163601 -0.0152105,-0.1163601 -0.0153699,-0.1216774 -0.0162113,-0.126924 -0.0179968,-0.1319356 -0.0210177,-0.136303 -0.0252324,-0.1395346 -0.0301907,-0.1414476 -0.0354606,-0.1421474 -0.040778,-0.1420443 -0.1656472,-0.1420444 -0.1656472,-0.1420444 -0.1739541,-0.1410938 -0.177964,-0.1398664 -0.1815941,-0.1378009 -0.1846211,-0.1349055 -0.1867091,-0.131283 -0.1878915,-0.1272687 -0.1882627,-0.123098 -0.1882627,-0.123098 -0.1879691,-0.1188835 -0.1868561,-0.1148115 -0.1848082,-0.1111224 -0.1817649,-0.1081982 -0.1780517,-0.106192 -0.1740127,-0.104945 -0.1656175,-0.1041516 -0.0531032,-0.1041516 -0.0531032,-0.0267652 -0.1319573,-0.0267652z" transform="matrix(1,0,0,-1,0.669925,0.33655)" fill="rgb(120,120,120)" fill-rule="nonzero" shaper:cutDepth="0.0000254" stroke-linecap="round" stroke-linejoin="round" /><path d="M-0.343436,0.1414171 L-0.343436,0.1414171 -0.3429116,0.1500937 -0.341839,0.1543184 -0.3399486,0.1582308 -0.3370894,0.1615128 -0.3333366,0.1636993 -0.3291081,0.1647206 -0.3247565,0.1648331 -0.3247565,0.1648331 -0.3204539,0.164428 -0.3162847,0.1633 -0.3124774,0.1612572 -0.3092125,0.1584287 -0.3092125,0.1584287 -0.3067001,0.154118 -0.3058036,0.1491784 -0.3055432,0.139149 -0.3055432,-0.1041516 -0.259445,-0.1041517 -0.259445,-0.1041517 -0.2508614,-0.1050364 -0.2467359,-0.1063376 -0.2430145,-0.1085178 -0.2399433,-0.1115576 -0.237876,-0.1153466 -0.2367831,-0.1195248 -0.2364291,-0.1238319 -0.2364291,-0.1238319 -0.2367723,-0.1282285 -0.2380801,-0.132434 -0.2406287,-0.136034 -0.2441211,-0.1387039 -0.2482023,-0.1403885 -0.2524853,-0.1414438 -0.2612753,-0.1420443 -0.390068,-0.1420444 -0.390068,-0.1420444 -0.398532,-0.1411349 -0.402583,-0.1398002 -0.4062471,-0.1376291 -0.4092089,-0.1345678 -0.4112117,-0.1308077 -0.4122712,-0.1266805 -0.4126169,-0.1224309 -0.4126169,-0.1224309 -0.4122245,-0.1182077 -0.4109953,-0.1141517 -0.4086692,-0.110606 -0.4054584,-0.1078486 -0.4016238,-0.1060305 -0.3975285,-0.104926 -0.3890873,-0.1041516 -0.343436,-0.1041516 -0.343436,0.1414171z" transform="matrix(1,0,0,-1,0.669925,0.33655)" fill="rgb(120,120,120)" fill-rule="nonzero" shaper:cutDepth="0.0000254" stroke-linecap="round" stroke-linejoin="round" /></svg>