<?xml version="1.0" encoding="utf-8"?>
<!-- Generator: Fusion 360, Shaper Origin Export Add-In, Version 1.6.10  -->
<svg xmlns="http://www.w3.org/2000/svg" xmlns:xlink="http://www.w3.org/1999/xlink" xmlns:shaper="http://www.shapertools.com/namespaces/shaper" shaper:fusionaddin="version:1.6.10" width="1.2573cm" height="1.2573cm" version="1.1" x="0cm" y="0cm" viewBox="0 0 1.2573 1.2573" enable-background="new 0 0 1.2573 1.2573" xml:space="preserve"><path d="M-0.62865,0.62865 L0.62865,0.62865 0.62865,-0.62865 -0.62865,-0.62865 -0.62865,0.62865z" transform="matrix(1,0,0,-1,0.62865,0.62865)" fill="rgb(0,0,0)" shaper:cutDepth="0.000762" stroke-linecap="round" stroke-linejoin="round" /><path d="M0.4892547,0.2603635 L0.4892546,0.2604309 0.4892546,0.2604309 0.4885446,0.2709226 0.4866256,0.2812627 0.4835524,0.2913191 0.4793523,0.3009591 0.4741127,0.3100786 0.468075,0.3186887 0.4612539,0.326693 0.4538663,0.3341784 0.4538663,0.3341784 0.4377357,0.3466699 0.4291318,0.3521594 0.4202139,0.3571332 0.4017199,0.3657504 0.382562,0.3727831 0.362933,0.378355 0.3429293,0.3823978 0.3226827,0.3849291 0.3022955,0.3858241 0.3022955,0.3858241 0.2830001,0.38513 0.263807,0.3830399 0.2447925,0.3796842 0.2260623,0.375001 0.2077174,0.368979 0.189909,0.3615231 0.1728007,0.3525729 0.1565543,0.3421428 0.1565543,0.3421428 0.1471124,0.3346507 0.1384112,0.3263108 0.1307424,0.3170135 0.1240804,0.3069682 0.118717,0.2961756 0.1148228,0.2847709 0.1124257,0.2729589 0.1115593,0.2609383 0.1115593,0.2609383 0.1124319,0.2502046 0.1146132,0.2396575 0.1180279,0.2294442 0.1225943,0.2196898 0.1281772,0.2104799 0.1346897,0.201902 0.1421572,0.1941418 0.1503962,0.1872056 0.1503962,0.1872056 0.1659434,0.1764748 0.1740532,0.1716366 0.1786002,0.1703602 0.1833214,0.1701272 0.1833214,0.1701272 0.19224,0.1715432 0.1964037,0.1732985 0.2000947,0.1759102 0.2029664,0.1793987 0.2050232,0.1834221 0.2061526,0.1878008 0.20664,0.1922962 0.20664,0.1922962 0.206142,0.1978446 0.2045662,0.2031694 0.2017453,0.2079782 0.197526,0.2115916 0.197526,0.2115916 0.1835297,0.2205338 0.176912,0.2255601 0.1707562,0.2311344 0.1654353,0.2375143 0.161372,0.2447469 0.1588558,0.252667 0.1581964,0.2609383 0.1581964,0.2609383 0.16015,0.2717368 0.1644974,0.2818204 0.1707452,0.290849 0.1783865,0.2987414 0.1868935,0.3056908 0.1960633,0.3117418 0.2056544,0.3171046 0.2155533,0.321868 0.2361608,0.3294759 0.2467392,0.3324452 0.2574735,0.3347876 0.2792163,0.3379393 0.3011459,0.339269 0.3011459,0.339269 0.323021,0.3379384 0.344705,0.3347624 0.3553914,0.3323298 0.3659178,0.329277 0.3762903,0.3257352 0.3864057,0.321519 0.3962265,0.3166511 0.40569,0.3111243 0.4147281,0.3049254 0.423157,0.2979199 0.4305543,0.2898398 0.4366011,0.2807098 0.4407817,0.270576 0.4426175,0.2597888 0.4426175,0.2597888 0.4420113,0.2525333 0.4398673,0.2455708 0.4364718,0.2391253 0.432049,0.2333413 0.4269063,0.2281743 0.4212983,0.2235255 0.4091176,0.2155327 0.4091176,0.2155327 0.4032025,0.2117486 0.3982984,0.2067476 0.3964678,0.2037202 0.3952402,0.2004313 0.3946666,0.1934458 0.3946666,0.1934458 0.3951213,0.1887509 0.3963463,0.1841967 0.3985906,0.1800494 0.4016464,0.1764583 0.4054054,0.1736101 0.4096806,0.1716195 0.4142707,0.170536 0.4189705,0.1701272 0.4189705,0.1701272 0.4255821,0.1707717 0.4316907,0.1733851 0.4426175,0.1809654 0.4426175,0.1809654 0.4520461,0.1883892 0.4609279,0.1964507 0.4691227,0.2052218 0.4762784,0.2148463 0.4820761,0.2253531 0.4861669,0.2366264 0.4885415,0.2483877 0.4892547,0.2603635z" transform="matrix(1,0,0,-1,0.62865,0.62865)" fill="rgb(106,106,106)" fill-rule="nonzero" shaper:cutDepth="0.0000508" stroke-linecap="round" stroke-linejoin="round" /><path d="M0.1403791,-0.0180637 L0.1403791,-0.0180637 0.1297002,-0.0174182 0.1245005,-0.0160981 0.1196852,-0.0137715 0.1156459,-0.0102525 0.1129548,-0.0056336 0.1116977,-0.0004294 0.1115593,0.0049265 0.1115593,0.0049265 0.1120579,0.010222 0.1134462,0.0153532 0.1159604,0.0200392 0.1194416,0.0240576 0.1194416,0.0240576 0.1247471,0.0271498 0.1308267,0.0282531 0.1431706,0.0285736 0.4426174,0.0285736 0.4426175,0.0853099 0.4426175,0.0853099 0.4437064,0.0958742 0.4453078,0.1009519 0.4479912,0.105532 0.4517325,0.1093119 0.4563959,0.1118563 0.4615383,0.1132014 0.4668393,0.1136371 0.4668393,0.1136371 0.4722505,0.1132147 0.4774266,0.1116052 0.4818573,0.1084683 0.4851434,0.10417 0.4872166,0.099147 0.4885155,0.0938756 0.4892546,0.0830572 0.4892547,-0.075457 0.4892547,-0.075457 0.4881354,-0.0858741 0.4864926,-0.09086 0.4838205,-0.0953697 0.4800527,-0.099015 0.475425,-0.10148 0.4703453,-0.1027839 0.465115,-0.1032094 0.465115,-0.1032094 0.4599172,-0.1027264 0.4549253,-0.1012136 0.4505613,-0.0983507 0.4471676,-0.094399 0.4449298,-0.0896795 0.4435705,-0.0846391 0.4426174,-0.0742499 0.4426174,-0.0180637 0.1403791,-0.0180637z" transform="matrix(1,0,0,-1,0.62865,0.62865)" fill="rgb(106,106,106)" fill-rule="nonzero" shaper:cutDepth="0.0000508" stroke-linecap="round" stroke-linejoin="round" /><path d="M0.1562515,-0.3621464 L0.1535163,-0.3639013 0.1535163,-0.3639013 0.1453075,-0.3690552 0.1408532,-0.3709299 0.1360274,-0.371291 0.1360274,-0.371291 0.1314411,-0.3708693 0.1269993,-0.3696568 0.1229573,-0.3674545 0.1194842,-0.3644325 0.1168247,-0.3606746 0.1149587,-0.3564649 0.1138784,-0.3519905 0.1135298,-0.3473977 0.1135298,-0.3473977 0.1139822,-0.3413523 0.1158921,-0.3356077 0.1198115,-0.3309948 0.1247837,-0.3275266 0.269206,-0.2436245 0.269206,-0.2124452 0.1422675,-0.2124947 0.1422675,-0.2124947 0.1310822,-0.2118624 0.1255928,-0.2107073 0.1204016,-0.2085969 0.1160988,-0.2050259 0.1132729,-0.2001953 0.1118558,-0.1947746 0.1115593,-0.1891762 0.1115593,-0.1891762 0.1120485,-0.1837623 0.1135106,-0.1785326 0.1161587,-0.1737854 0.1199342,-0.1698808 0.1199342,-0.1698808 0.1254934,-0.1669009 0.1317793,-0.1661086 0.1444511,-0.1659071 0.4565758,-0.1659397 0.4565758,-0.1659397 0.4633263,-0.1658664 0.4700108,-0.1667391 0.4764031,-0.1689045 0.4818303,-0.1728911 0.4856034,-0.1784685 0.487766,-0.184866 0.4888672,-0.1915178 0.4892546,-0.1982568 0.4892547,-0.2731723 0.4892547,-0.2731723 0.4886205,-0.2833772 0.4870652,-0.2934821 0.4845523,-0.3033922 0.4808783,-0.3129335 0.4761209,-0.3219811 0.4703096,-0.3303944 0.4636109,-0.338115 0.4560946,-0.3450494 0.4478966,-0.3511535 0.4391111,-0.3563903 0.4298545,-0.3607217 0.4202069,-0.3641186 0.410323,-0.3667235 0.4002615,-0.3685608 0.3901037,-0.3697032 0.3798872,-0.3701415 0.3798872,-0.3701415 0.3627695,-0.3689597 0.3459192,-0.3657496 0.3376853,-0.3633343 0.3296423,-0.3603421 0.3218574,-0.356735 0.3143437,-0.3525882 0.307131,-0.34794 0.300326,-0.3427139 0.293988,-0.3369269 0.2882531,-0.3305489 0.283111,-0.3236749 0.2787719,-0.3162778 0.275228,-0.3084608 0.2725371,-0.3003141 0.2714267,-0.2957789 0.1562515,-0.3621464z M0.4426174,-0.2124452 L0.3158432,-0.2124452 0.3158432,-0.2714481 0.3158432,-0.2714481 0.3162419,-0.280824 0.3178684,-0.2900561 0.3195636,-0.294446 0.3219042,-0.2985241 0.3282415,-0.3054407 0.3282415,-0.3054407 0.3335419,-0.3099159 0.3393202,-0.3137558 0.3455059,-0.3168958 0.3519948,-0.31935 0.3654804,-0.3225728 0.3793125,-0.3235865 0.3793125,-0.3235865 0.3954801,-0.3221725 0.4033888,-0.3203349 0.4110878,-0.3177544 0.4184819,-0.3143928 0.4253351,-0.3100495 0.4315721,-0.3048422 0.4367879,-0.2986257 0.4367879,-0.2986257 0.439987,-0.2932576 0.4418022,-0.2872736 0.4426174,-0.2748037 0.4426174,-0.2124452z" transform="matrix(1,0,0,-1,0.62865,0.62865)" fill="rgb(106,106,106)" fill-rule="nonzero" shaper:cutDepth="0.0000508" stroke-linecap="round" stroke-linejoin="round" /></svg>