<?xml version="1.0" encoding="utf-8"?>
<!-- Generator: Fusion 360, Shaper Origin Export Add-In, Version 1.6.10  -->
<svg xmlns="http://www.w3.org/2000/svg" xmlns:xlink="http://www.w3.org/1999/xlink" xmlns:shaper="http://www.shapertools.com/namespaces/shaper" shaper:fusionaddin="version:1.6.10" width="1.33985cm" height="0.6731cm" version="1.1" x="0cm" y="0cm" viewBox="0 0 1.33985 0.6731" enable-background="new 0 0 1.33985 0.6731" xml:space="preserve"><path d="M0.669925,-0.33655 L-0.669925,-0.33655 -0.669925,0.33655 0.669925,0.33655 0.669925,-0.33655z" transform="matrix(1,0,0,-1,0.669925,0.33655)" fill="rgb(0,0,0)" shaper:cutDepth="0.000127" stroke-linecap="round" stroke-linejoin="round" /><path d="M-0.3003398,0.0224955 L-0.3003398,0.1217026 -0.3003397,0.1226978 -0.3003397,0.1226978 -0.2997937,0.1304231 -0.2982521,0.1339841 -0.2958648,0.137045 -0.2927488,0.1393596 -0.2891828,0.1408988 -0.2854025,0.141777 -0.2815268,0.1420444 -0.2815268,0.1420444 -0.2774352,0.1418847 -0.2734259,0.1410585 -0.2697581,0.139247 -0.2667979,0.1364304 -0.2648908,0.1328129 -0.2638374,0.1288518 -0.2632476,0.1206946 -0.2632476,-0.142351 -0.2632476,-0.142351 -0.2637736,-0.150896 -0.2647837,-0.155057 -0.2666424,-0.1589179 -0.269667,-0.1619284 -0.2735116,-0.1638062 -0.277716,-0.1646226 -0.2819938,-0.1648331 -0.2819938,-0.1648331 -0.2862854,-0.1646787 -0.2904669,-0.1637221 -0.2942859,-0.1617777 -0.2971823,-0.1586202 -0.2988953,-0.1546924 -0.2998156,-0.1504924 -0.3003398,-0.141932 -0.3003398,-0.0111276 -0.4041444,-0.0111276 -0.4041444,-0.143752 -0.4041444,-0.143752 -0.4046951,-0.1519667 -0.405866,-0.1559201 -0.4079501,-0.1594715 -0.4109827,-0.1622561 -0.4147164,-0.1639934 -0.4187695,-0.1647367 -0.4228906,-0.1648331 -0.4228906,-0.1648331 -0.4269613,-0.1647303 -0.4309594,-0.1639654 -0.4346203,-0.1621927 -0.4375561,-0.159377 -0.4395245,-0.1558203 -0.4406449,-0.1518997 -0.4412366,-0.143794 -0.4412365,0.1197624 -0.4412365,0.1197624 -0.4406201,0.1281314 -0.4396208,0.1322144 -0.4377976,0.1359904 -0.4349154,0.1390375 -0.4311742,0.1409297 -0.4270886,0.1418864 -0.4228906,0.1420444 -0.4228906,0.1420444 -0.418787,0.141942 -0.414777,0.1410763 -0.4111306,0.1392 -0.4081952,0.13634 -0.4061903,0.1327608 -0.4049387,0.1288496 -0.4041444,0.1206946 -0.4041444,0.0224955 -0.3003398,0.0224955z" transform="matrix(1,0,0,-1,0.669925,0.33655)" fill="rgb(120,120,120)" fill-rule="nonzero" shaper:cutDepth="0.0000254" stroke-linecap="round" stroke-linejoin="round" /><path d="M-0.1700998,-0.113598 L-0.1820584,-0.1531585 -0.1820584,-0.1531585 -0.184685,-0.1583036 -0.188939,-0.1622038 -0.1943152,-0.1642928 -0.2000708,-0.1648331 -0.2000708,-0.1648331 -0.2070517,-0.16373 -0.2102988,-0.1623222 -0.2132528,-0.1603726 -0.2158327,-0.1579458 -0.2177699,-0.1549876 -0.2190067,-0.1516705 -0.2194174,-0.148155 -0.2194174,-0.148155 -0.2179938,-0.1401222 -0.2157511,-0.1322541 -0.1372943,0.128902 -0.1372943,0.128902 -0.1348492,0.1345635 -0.1306554,0.1390675 -0.1279813,0.1406157 -0.1250283,0.1415375 -0.1188817,0.1420444 -0.1188817,0.1420444 -0.1116845,0.1412462 -0.1083621,0.1397863 -0.1055094,0.1375405 -0.1015927,0.1314512 -0.0990867,0.1246443 -0.0197469,-0.1354129 -0.0197469,-0.1354129 -0.0181338,-0.1412358 -0.017412,-0.147221 -0.017412,-0.147221 -0.0177818,-0.1508646 -0.0188784,-0.1543566 -0.0207291,-0.1575144 -0.0232546,-0.1601663 -0.0262446,-0.1622756 -0.0296106,-0.1637223 -0.0368253,-0.1648331 -0.0368253,-0.1648331 -0.0431003,-0.1642347 -0.0460645,-0.1631484 -0.0487447,-0.1614801 -0.0510398,-0.1593154 -0.0528405,-0.1567183 -0.0552799,-0.1509118 -0.066808,-0.113598 -0.1700998,-0.113598z M-0.0787972,-0.0757052 L-0.1184539,0.0570791 -0.1581106,-0.0757052 -0.0787972,-0.0757052z" transform="matrix(1,0,0,-1,0.669925,0.33655)" fill="rgb(120,120,120)" fill-rule="nonzero" shaper:cutDepth="0.0000254" stroke-linecap="round" stroke-linejoin="round" /><path d="M0.1887964,-0.13121 L0.1887964,-0.13121 0.1943962,-0.1313792 0.1998707,-0.1324776 0.1998707,-0.1324776 0.2041466,-0.1349541 0.2072887,-0.1387958 0.2092756,-0.1433231 0.210011,-0.1482217 0.210011,-0.1482217 0.2090635,-0.1537274 0.2063862,-0.1586272 0.2022754,-0.1623882 0.1970688,-0.1643662 0.1970688,-0.1643662 0.1864457,-0.1648331 0.0551045,-0.1648331 0.0551045,-0.1648331 0.0458327,-0.1637592 0.0414217,-0.1622095 0.0375443,-0.1596084 0.0347877,-0.1558442 0.0332402,-0.1514347 0.0326405,-0.146801 0.0326891,-0.1421251 0.0326891,0.1214969 0.0326891,0.1214969 0.0336597,0.1293475 0.0349576,0.1330862 0.0369775,0.1364942 0.0398857,0.1391701 0.0434187,0.1409537 0.047282,0.1418167 0.0512352,0.1420444 0.0512352,0.1420444 0.0591161,0.1410011 0.0626691,0.1392016 0.0656151,0.1365255 0.0677021,0.1331295 0.0689936,0.1293596 0.0697813,0.1214382 0.0697813,-0.13121 0.1887964,-0.13121z" transform="matrix(1,0,0,-1,0.669925,0.33655)" fill="rgb(120,120,120)" fill-rule="nonzero" shaper:cutDepth="0.0000254" stroke-linecap="round" stroke-linejoin="round" /><path d="M0.371055,0.0267652 L0.371055,0.0267652 0.3800034,0.0262308 0.3843625,0.0251429 0.3884224,0.02324 0.39181,0.0202998 0.3940795,0.0164367 0.3952313,0.0121011 0.3954718,0.0076187 0.3954718,0.0076187 0.3951652,0.0030619 0.393954,-0.0013382 0.3915452,-0.00521 0.3879251,-0.0079651 0.3836722,-0.0096514 0.3792091,-0.0105888 0.3700905,-0.0111276 0.2921605,-0.0111276 0.2922008,-0.1399494 0.2922008,-0.1399494 0.2916344,-0.1489299 0.2906857,-0.1533289 0.2889802,-0.1574972 0.2861713,-0.1609962 0.2823445,-0.1633535 0.2780144,-0.1645727 0.2735213,-0.1648331 0.2735213,-0.1648331 0.2690009,-0.1645109 0.2646159,-0.1633778 0.2607638,-0.1609985 0.257849,-0.1575418 0.2559907,-0.1534071 0.2549328,-0.1489998 0.254308,-0.1399622 0.2543081,0.1163601 0.2543081,0.1163601 0.2544675,0.1216774 0.2553089,0.126924 0.2570945,0.1319356 0.2601154,0.136303 0.26433,0.1395346 0.2692884,0.1414476 0.2745583,0.1421474 0.2798756,0.1420443 0.4047448,0.1420444 0.4047448,0.1420444 0.4130517,0.1410938 0.4170617,0.1398664 0.4206917,0.1378009 0.4237188,0.1349055 0.4258068,0.131283 0.4269891,0.1272687 0.4273603,0.123098 0.4273603,0.123098 0.4270667,0.1188835 0.4259537,0.1148115 0.4239058,0.1111224 0.4208626,0.1081982 0.4171494,0.106192 0.4131103,0.104945 0.4047151,0.1041516 0.2922008,0.1041516 0.2922008,0.0267652 0.371055,0.0267652z" transform="matrix(1,0,0,-1,0.669925,0.33655)" fill="rgb(120,120,120)" fill-rule="nonzero" shaper:cutDepth="0.0000254" stroke-linecap="round" stroke-linejoin="round" /></svg>