<?xml version="1.0" encoding="utf-8"?>
<!-- Generator: Fusion 360, Shaper Origin Export Add-In, Version 1.6.10  -->
<svg xmlns="http://www.w3.org/2000/svg" xmlns:xlink="http://www.w3.org/1999/xlink" xmlns:shaper="http://www.shapertools.com/namespaces/shaper" shaper:fusionaddin="version:1.6.10" width="1.2573cm" height="1.2573cm" version="1.1" x="0cm" y="0cm" viewBox="0 0 1.2573 1.2573" enable-background="new 0 0 1.2573 1.2573" xml:space="preserve"><path d="M0.62865,0.62865 L0.62865,-0.62865 -0.62865,-0.62865 -0.62865,0.62865 0.62865,0.62865z" transform="matrix(1,0,0,-1,0.62865,0.62865)" fill="rgb(0,0,0)" shaper:cutDepth="0.000762" stroke-linecap="round" stroke-linejoin="round" /><path d="M-0.0337156,-0.1562515 L-0.0354705,-0.1535163 -0.0354705,-0.1535163 -0.0406243,-0.1453075 -0.0424991,-0.1408532 -0.0428602,-0.1360274 -0.0428602,-0.1360274 -0.0424385,-0.1314411 -0.041226,-0.1269993 -0.0390237,-0.1229573 -0.0360017,-0.1194842 -0.0322438,-0.1168247 -0.0280341,-0.1149587 -0.0235597,-0.1138784 -0.0189669,-0.1135298 -0.0189669,-0.1135298 -0.0129214,-0.1139822 -0.0071769,-0.1158921 -0.0025639,-0.1198115 0.0009042,-0.1247837 0.0848064,-0.269206 0.1159856,-0.269206 0.1159361,-0.1422675 0.1159361,-0.1422675 0.1165684,-0.1310822 0.1177235,-0.1255928 0.1198339,-0.1204016 0.1234049,-0.1160988 0.1282355,-0.1132729 0.1336562,-0.1118558 0.1392547,-0.1115593 0.1392547,-0.1115593 0.1446685,-0.1120485 0.1498982,-0.1135106 0.1546454,-0.1161587 0.15855,-0.1199342 0.15855,-0.1199342 0.1615299,-0.1254934 0.1623222,-0.1317793 0.1625237,-0.1444511 0.1624911,-0.4565758 0.1624911,-0.4565758 0.1625644,-0.4633263 0.1616917,-0.4700108 0.1595263,-0.4764031 0.1555398,-0.4818303 0.1499623,-0.4856034 0.1435649,-0.487766 0.136913,-0.4888672 0.1301741,-0.4892546 0.0552585,-0.4892547 0.0552585,-0.4892547 0.0450536,-0.4886205 0.0349487,-0.4870652 0.0250386,-0.4845523 0.0154973,-0.4808783 0.0064498,-0.4761209 -0.0019636,-0.4703096 -0.0096842,-0.4636109 -0.0166186,-0.4560946 -0.0227226,-0.4478966 -0.0279594,-0.4391111 -0.0322909,-0.4298545 -0.0356878,-0.4202069 -0.0382927,-0.410323 -0.04013,-0.4002615 -0.0412724,-0.3901037 -0.0417107,-0.3798872 -0.0417107,-0.3798872 -0.0405289,-0.3627695 -0.0373188,-0.3459192 -0.0349035,-0.3376853 -0.0319113,-0.3296423 -0.0283041,-0.3218574 -0.0241574,-0.3143437 -0.0195091,-0.307131 -0.0142831,-0.300326 -0.0084961,-0.293988 -0.0021181,-0.2882531 0.0047559,-0.283111 0.012153,-0.2787719 0.01997,-0.275228 0.0281168,-0.2725371 0.0326519,-0.2714267 -0.0337156,-0.1562515z M0.1159856,-0.4426174 L0.1159856,-0.3158432 0.0569827,-0.3158432 0.0569827,-0.3158432 0.0476068,-0.3162419 0.0383748,-0.3178684 0.0339848,-0.3195636 0.0299068,-0.3219042 0.0229902,-0.3282415 0.0229902,-0.3282415 0.0185149,-0.3335419 0.014675,-0.3393202 0.011535,-0.3455059 0.0090808,-0.3519948 0.005858,-0.3654804 0.0048444,-0.3793125 0.0048444,-0.3793125 0.0062583,-0.3954801 0.0080959,-0.4033888 0.0106765,-0.4110878 0.014038,-0.4184819 0.0183813,-0.4253351 0.0235886,-0.4315721 0.0298051,-0.4367879 0.0298051,-0.4367879 0.0351732,-0.439987 0.0411572,-0.4418022 0.0536271,-0.4426174 0.1159856,-0.4426174z" transform="matrix(1,0,0,-1,0.62865,0.62865)" fill="rgb(106,106,106)" fill-rule="nonzero" shaper:cutDepth="0.0000508" stroke-linecap="round" stroke-linejoin="round" /><path d="M-0.1463159,-0.1375053 L-0.1463159,-0.1375053 -0.145454,-0.1276277 -0.144007,-0.122868 -0.1415993,-0.1185319 -0.1380808,-0.1150281 -0.1336316,-0.1128316 -0.1287832,-0.1117619 -0.1238184,-0.1115593 -0.1238184,-0.1115593 -0.1184288,-0.1120213 -0.1132056,-0.1134233 -0.1084514,-0.1160021 -0.1042768,-0.1194416 -0.1042768,-0.1194416 -0.1018314,-0.1234203 -0.100984,-0.1280514 -0.100664,-0.1374492 -0.100664,-0.4622413 -0.100664,-0.4622413 -0.101494,-0.4725196 -0.1029055,-0.4774991 -0.1053792,-0.482019 -0.109016,-0.4856878 -0.1136061,-0.4880407 -0.1186537,-0.4891253 -0.1238184,-0.4892547 -0.1238184,-0.4892547 -0.1287146,-0.4890592 -0.1335005,-0.4880266 -0.137913,-0.4859068 -0.1414746,-0.4825502 -0.1439382,-0.4783225 -0.1454362,-0.4736531 -0.1461823,-0.4688165 -0.1463159,-0.4639163 -0.1463159,-0.1375053z" transform="matrix(1,0,0,-1,0.62865,0.62865)" fill="rgb(106,106,106)" fill-rule="nonzero" shaper:cutDepth="0.0000508" stroke-linecap="round" stroke-linejoin="round" /></svg>