<?xml version="1.0" encoding="utf-8"?>
<!-- Generator: Fusion 360, Shaper Origin Export Add-In, Version 1.6.10  -->
<svg xmlns="http://www.w3.org/2000/svg" xmlns:xlink="http://www.w3.org/1999/xlink" xmlns:shaper="http://www.shapertools.com/namespaces/shaper" shaper:fusionaddin="version:1.6.10" width="4.064cm" height="3.556cm" version="1.1" x="0cm" y="0cm" viewBox="0 0 4.064 3.556" enable-background="new 0 0 4.064 3.556" xml:space="preserve"><path d="M2.032,-1.61925 L2.032,1.61925 A0.15875,0.15875 0 0,1 1.87325,1.778 L-1.87325,1.778 A0.15875,0.15875 90 0,1 -2.032,1.61925 L-2.032,-1.61925 A0.15875,0.15875 180 0,1 -1.87325,-1.778 L1.87325,-1.778 A0.15875,0.15875 270 0,1 2.032,-1.61925z" transform="matrix(1,0,0,-1,2.032,1.778)" fill="rgb(0,0,0)" shaper:cutDepth="0.0047625" stroke-linecap="round" stroke-linejoin="round" /><path d="M1.054735,0.381 a0.215265,0.215265 0 1,1 0.43053,0 a0.215265,0.215265 0 1,1 -0.43053,0z" transform="matrix(1,0,0,-1,2.032,1.778)" fill="rgb(255,255,255)" stroke="rgb(0,0,0)" stroke-width="0.0010cm" stroke-linecap="round" stroke-linejoin="round" shaper:cutDepth="0.0047625" /><path d="M-1.485265,0.381 a0.215265,0.215265 0 1,1 0.43053,0 a0.215265,0.215265 0 1,1 -0.43053,0z" transform="matrix(1,0,0,-1,2.032,1.778)" fill="rgb(255,255,255)" stroke="rgb(0,0,0)" stroke-width="0.0010cm" stroke-linecap="round" stroke-linejoin="round" shaper:cutDepth="0.0047625" /></svg>