<?xml version="1.0" encoding="utf-8"?>
<!-- Generator: Fusion 360, Shaper Origin Export Add-In, Version 1.6.10  -->
<svg xmlns="http://www.w3.org/2000/svg" xmlns:xlink="http://www.w3.org/1999/xlink" xmlns:shaper="http://www.shapertools.com/namespaces/shaper" shaper:fusionaddin="version:1.6.10" width="16.51cm" height="2.54cm" version="1.1" x="0cm" y="0cm" viewBox="0 0 16.51 2.54" enable-background="new 0 0 16.51 2.54" xml:space="preserve"><path d="M6.4607087,1.9242165 L-9.1573064,1.9242165 A0.15875,0.15875 90 0,1 -9.294788,1.8448415 L-9.8692728,0.8498046 A0.15875,0.15875 150 0,1 -9.8905413,0.7704296 L-9.8905413,-0.4570335 A0.15875,0.15875 180 0,1 -9.7317913,-0.6157835 L6.4607087,-0.6157835 A0.15875,0.15875 270 0,1 6.6194587,-0.4570335 L6.6194587,1.7654665 A0.15875,0.15875 0 0,1 6.4607087,1.9242165z" transform="matrix(1,0,0,-1,9.8905413,1.9242165)" fill="rgb(0,0,0)" shaper:cutDepth="0.0015875" stroke-linecap="round" stroke-linejoin="round" /><path d="M2.2934307,0.8717196 L2.459319,0.8717196 2.459319,0.5996369 2.459319,0.5996369 2.4601382,0.5915429 2.4612797,0.5876319 2.4631869,0.5840405 2.4659065,0.5810104 2.4693802,0.5788991 2.4732948,0.577787 2.4773519,0.5774456 2.4773519,0.5774456 2.4813842,0.5777941 2.4852517,0.5789792 2.4886609,0.581157 2.4914106,0.5841209 2.4933144,0.5876893 2.4945324,0.5915533 2.4955285,0.5995736 2.4955286,0.8834743 2.4955286,0.8834743 2.4955757,0.8883371 2.4949352,0.8931539 2.4933367,0.8977454 2.490619,0.9017698 2.4868604,0.9048424 2.4823744,0.9067201 2.4776103,0.907669 2.4727539,0.9079291 2.2969324,0.9079291 2.2969324,0.9079291 2.2896594,0.9079229 2.2860256,0.9077758 2.2825104,0.9069233 2.2825104,0.9069233 2.2773749,0.9043151 2.2732115,0.9003436 2.2706341,0.8951999 2.2695784,0.889537 2.2695784,0.889537 2.2705698,0.8840512 2.273094,0.8790825 2.2770041,0.8751053 2.2820074,0.8726536 2.2820074,0.8726536 2.2876701,0.8717315 2.2934307,0.8717196z" transform="matrix(1,0,0,-1,9.8905413,1.9242165)" fill="rgb(104,104,104)" fill-rule="nonzero" shaper:cutDepth="0.0000762" stroke-linecap="round" stroke-linejoin="round" /><path d="M2.6450703,0.9552895 L2.6450703,0.9552895 2.6335363,0.9556722 2.6220814,0.9570636 2.6108205,0.9595871 2.5998791,0.9632527 2.5893799,0.9680413 2.5794993,0.974002 2.5702682,0.9809261 2.5618029,0.9887689 2.5618029,0.9887689 2.5500094,1.0020347 2.5398451,1.0165891 2.5313832,1.0321896 2.5248478,1.0486951 2.5201778,1.0658182 2.5171716,1.0833168 2.515519,1.1009886 2.5150323,1.1187352 2.5150323,1.1187352 2.5158124,1.1443374 2.517098,1.1570825 2.519163,1.1697239 2.5222214,1.1821623 2.5263199,1.194297 2.5312501,1.2061198 2.5370884,1.217521 2.5370884,1.217521 2.5456452,1.2319726 2.5555625,1.2455254 2.5671267,1.2576966 2.5734953,1.2631717 2.5802916,1.2681072 2.5874972,1.2724211 2.5950165,1.2761641 2.6028179,1.2792748 2.6108351,1.2817784 2.61903,1.2836185 2.6273417,1.2848299 2.6441042,1.285773 2.7141845,1.285773 2.7141845,1.285773 2.7200636,1.2855872 2.7258755,1.2846734 2.7313134,1.2824509 2.7337237,1.2807429 2.7357152,1.2785847 2.7382527,1.27328 2.7394872,1.2675301 2.7397611,1.2557803 2.7397611,0.9810097 2.7397611,0.9810097 2.7396837,0.9756307 2.7387854,0.9703294 2.7367108,0.9653701 2.7333922,0.9611445 2.7289707,0.9580925 2.7239015,0.9562947 2.718586,0.9554819 2.7132102,0.9552896 2.6450703,0.9552895z M2.6989535,0.9960972 L2.6989535,1.2449655 2.6440645,1.2449655 2.6440645,1.2449655 2.6311628,1.2444231 2.6184733,1.2420861 2.6123792,1.2399645 2.6065813,1.2371213 2.6012119,1.2335375 2.5962163,1.2294471 2.5962163,1.2294471 2.589321,1.2229036 2.5830382,1.2157688 2.5774089,1.2081095 2.5724417,1.2000029 2.5680693,1.191563 2.564387,1.1827973 2.5612367,1.1738291 2.5587854,1.1646436 2.5587854,1.1646436 2.5567657,1.155698 2.555958,1.1465633 2.5558398,1.1282186 2.5558398,1.1282186 2.556152,1.0927635 2.5567023,1.0839163 2.5581963,1.075183 2.5606319,1.0666579 2.5638145,1.058386 2.5638145,1.058386 2.5676447,1.0498154 2.5720383,1.0415204 2.5770353,1.0335731 2.5826204,1.0260282 2.588817,1.0189764 2.5956074,1.0124971 2.6030301,1.0067474 2.6111599,1.0020601 2.6111599,1.0020601 2.6188173,0.9987465 2.6269459,0.9968786 2.6436056,0.9960972 2.6989535,0.9960972z" transform="matrix(1,0,0,-1,9.8905413,1.9242165)" fill="rgb(104,104,104)" fill-rule="nonzero" shaper:cutDepth="0.0000762" stroke-linecap="round" stroke-linejoin="round" /><path d="M2.3691885,0.9552895 L2.3691885,0.9552895 2.3576545,0.9556722 2.3461995,0.9570636 2.3349386,0.9595871 2.3239972,0.9632527 2.313498,0.9680413 2.3036174,0.974002 2.2943863,0.9809261 2.285921,0.9887689 2.285921,0.9887689 2.2741275,1.0020347 2.2639632,1.0165891 2.2555013,1.0321896 2.248966,1.0486951 2.244296,1.0658182 2.2412897,1.0833168 2.2396371,1.1009886 2.2391504,1.1187352 2.2391504,1.1187352 2.2399306,1.1443374 2.2412161,1.1570825 2.2432811,1.1697239 2.2463396,1.1821623 2.2504381,1.194297 2.2553682,1.2061198 2.2612066,1.217521 2.2612066,1.217521 2.2697634,1.2319726 2.2796806,1.2455254 2.2912448,1.2576966 2.2976134,1.2631717 2.3044097,1.2681072 2.3116153,1.2724211 2.3191346,1.2761641 2.326936,1.2792748 2.3349532,1.2817784 2.3431481,1.2836185 2.3514598,1.2848299 2.3682223,1.285773 2.4383026,1.285773 2.4383026,1.285773 2.4441817,1.2855872 2.4499936,1.2846734 2.4554315,1.2824509 2.4578418,1.2807429 2.4598333,1.2785847 2.4623708,1.27328 2.4636053,1.2675301 2.4638792,1.2557803 2.4638792,0.9810097 2.4638792,0.9810097 2.4638018,0.9756307 2.4629035,0.9703294 2.4608289,0.9653701 2.4575103,0.9611445 2.4530889,0.9580925 2.4480196,0.9562947 2.4427041,0.9554819 2.4373283,0.9552896 2.3691885,0.9552895z M2.4230716,0.9960972 L2.4230716,1.2449655 2.3681826,1.2449655 2.3681826,1.2449655 2.3552809,1.2444231 2.3425914,1.2420861 2.3364973,1.2399645 2.3306995,1.2371213 2.3253301,1.2335375 2.3203344,1.2294471 2.3203344,1.2294471 2.3134391,1.2229036 2.3071563,1.2157688 2.301527,1.2081095 2.2965598,1.2000029 2.2921874,1.191563 2.2885051,1.1827973 2.2853548,1.1738291 2.2829035,1.1646436 2.2829035,1.1646436 2.2808838,1.155698 2.2800761,1.1465633 2.2799579,1.1282186 2.2799579,1.1282186 2.2802701,1.0927635 2.2808205,1.0839163 2.2823144,1.075183 2.28475,1.0666579 2.2879326,1.058386 2.2879326,1.058386 2.2917628,1.0498154 2.2961564,1.0415204 2.3011534,1.0335731 2.3067385,1.0260282 2.3129351,1.0189764 2.3197255,1.0124971 2.3271482,1.0067474 2.335278,1.0020601 2.335278,1.0020601 2.3429354,0.9987465 2.351064,0.9968786 2.3677237,0.9960972 2.4230716,0.9960972z" transform="matrix(1,0,0,-1,9.8905413,1.9242165)" fill="rgb(104,104,104)" fill-rule="nonzero" shaper:cutDepth="0.0000762" stroke-linecap="round" stroke-linejoin="round" /><path d="M2.1517878,1.2630702 L2.1517878,1.2630702 2.1519742,1.2704363 2.1525214,1.2740792 2.1536557,1.2775828 2.1536557,1.2775828 2.1567276,1.2810532 2.1606609,1.2835271 2.1650077,1.2851437 2.1696052,1.285773 2.1696052,1.285773 2.1747339,1.2850319 2.1795103,1.2830405 2.1836625,1.2799283 2.1865604,1.275643 2.1865604,1.275643 2.187584,1.272638 2.1879051,1.2694771 2.1879973,1.2631193 2.1879973,0.9789263 2.1879973,0.9789263 2.1877552,0.9710241 2.1871556,0.9671163 2.1856264,0.9634797 2.1856264,0.9634797 2.1824189,0.9601078 2.1785818,0.9574802 2.1742239,0.9558527 2.1696052,0.9552895 2.1696052,0.9552895 2.1655396,0.9555625 2.1616039,0.9566094 2.1581339,0.9587346 2.1554377,0.9617881 2.1536069,0.9654224 2.1525194,0.9693543 2.1517878,0.9774606 2.1517878,1.2630702z" transform="matrix(1,0,0,-1,9.8905413,1.9242165)" fill="rgb(104,104,104)" fill-rule="nonzero" shaper:cutDepth="0.0000762" stroke-linecap="round" stroke-linejoin="round" /><path d="M-0.3868548,0.9448529 L-0.3868548,0.9448529 -0.3983888,0.9452356 -0.4098437,0.946627 -0.4211046,0.9491505 -0.432046,0.9528161 -0.4425452,0.9576047 -0.4524258,0.9635655 -0.4616569,0.9704895 -0.4701222,0.9783323 -0.4701222,0.9783323 -0.4819157,0.9915981 -0.49208,1.0061526 -0.5005419,1.021753 -0.5070773,1.0382585 -0.5117473,1.0553816 -0.5147535,1.0728802 -0.5164061,1.090552 -0.5168928,1.1082986 -0.5168928,1.1082986 -0.5161127,1.1339008 -0.5148271,1.1466459 -0.5127621,1.1592874 -0.5097037,1.1717257 -0.5056052,1.1838605 -0.500675,1.1956832 -0.4948367,1.2070844 -0.4948367,1.2070844 -0.4862799,1.221536 -0.4763626,1.2350888 -0.4647984,1.2472601 -0.4584298,1.2527351 -0.4516336,1.2576706 -0.444428,1.2619845 -0.4369086,1.2657276 -0.4291072,1.2688382 -0.42109,1.2713418 -0.4128951,1.2731819 -0.4045834,1.2743933 -0.3878209,1.2753364 -0.3177406,1.2753364 -0.3177406,1.2753364 -0.3118615,1.2751506 -0.3060496,1.2742368 -0.3006117,1.2720143 -0.2982014,1.2703063 -0.2962099,1.2681481 -0.2936724,1.2628434 -0.2924379,1.2570935 -0.292164,1.2453437 -0.2921641,0.9705732 -0.2921641,0.9705732 -0.2922414,0.9651941 -0.2931397,0.9598928 -0.2952143,0.9549335 -0.2985329,0.9507079 -0.3029544,0.9476559 -0.3080236,0.9458581 -0.3133391,0.9450454 -0.3187149,0.944853 -0.3868548,0.9448529z M-0.3329716,0.9856606 L-0.3329716,1.2345289 -0.3878606,1.2345289 -0.3878606,1.2345289 -0.4007623,1.2339865 -0.4134519,1.2316495 -0.419546,1.2295279 -0.4253438,1.2266847 -0.4307132,1.2231009 -0.4357089,1.2190105 -0.4357089,1.2190105 -0.4426041,1.212467 -0.4488869,1.2053322 -0.4545162,1.1976729 -0.4594834,1.1895663 -0.4638558,1.1811264 -0.4675381,1.1723607 -0.4706884,1.1633925 -0.4731397,1.154207 -0.4731397,1.154207 -0.4751594,1.1452614 -0.4759671,1.1361267 -0.4760853,1.117782 -0.4760853,1.117782 -0.4757731,1.0823269 -0.4752228,1.0734798 -0.4737288,1.0647464 -0.4712932,1.0562214 -0.4681106,1.0479494 -0.4681106,1.0479494 -0.4642804,1.0393788 -0.4598869,1.0310838 -0.4548898,1.0231365 -0.4493047,1.0155916 -0.4431081,1.0085398 -0.4363177,1.0020606 -0.4288951,0.9963109 -0.4207653,0.9916235 -0.4207653,0.9916235 -0.4131078,0.9883099 -0.4049792,0.9864421 -0.3883195,0.9856606 -0.3329716,0.9856606z" transform="matrix(1,0,0,-1,9.8905413,1.9242165)" fill="rgb(104,104,104)" fill-rule="nonzero" shaper:cutDepth="0.0000762" stroke-linecap="round" stroke-linejoin="round" /><path d="M-0.0524917,1.1529857 L-0.0524917,1.1529857 -0.0526752,1.1642486 -0.0537226,1.1754601 -0.0548371,1.1809845 -0.0565571,1.1863547 -0.061544,1.1964515 -0.061544,1.1964515 -0.0667867,1.2047948 -0.0730477,1.2124023 -0.0803004,1.2190715 -0.0884452,1.2246168 -0.0972524,1.2290325 -0.106617,1.2321009 -0.1162949,1.233942 -0.126132,1.2345289 -0.126132,1.2345289 -0.1371514,1.2337442 -0.1479816,1.2315729 -0.158343,1.2277434 -0.1680147,1.2224082 -0.1767843,1.2156914 -0.1842938,1.2075911 -0.1904901,1.1984477 -0.1952462,1.1884767 -0.1952462,1.1884767 -0.198166,1.1795553 -0.1996082,1.1702779 -0.2002033,1.1515118 -0.2002034,0.9719382 -0.2002034,0.9719382 -0.2008701,0.9621299 -0.2019804,0.9573343 -0.2039419,0.9528253 -0.2070784,0.9490475 -0.2112465,0.9464484 -0.2159836,0.9451337 -0.2208946,0.9448529 -0.2208946,0.9448529 -0.2257828,0.9451312 -0.2305083,0.946394 -0.2346329,0.9490313 -0.2376548,0.9528557 -0.239464,0.9574128 -0.2404832,0.9622004 -0.2410109,0.9719747 -0.241011,1.1560031 -0.241011,1.1560031 -0.2404059,1.1675719 -0.239011,1.1790707 -0.2366496,1.1904123 -0.2332816,1.2014953 -0.2288865,1.2122127 -0.2234385,1.2224354 -0.2169008,1.2319968 -0.209392,1.2408172 -0.2010216,1.2488241 -0.1918501,1.2558992 -0.1819329,1.2618839 -0.1714158,1.2667382 -0.1604544,1.2704823 -0.1491735,1.2731167 -0.1376988,1.2746968 -0.126132,1.2753364 -0.126132,1.2753364 -0.1175219,1.2750078 -0.1089571,1.2740691 -0.0921086,1.2704862 -0.0760279,1.2643213 -0.0683741,1.2603648 -0.0610613,1.2558084 -0.0541001,1.250731 -0.0475563,1.2451261 -0.0414839,1.2390136 -0.0359239,1.2324318 -0.0309238,1.2254148 -0.026435,1.21806 -0.0224822,1.2104045 -0.0190841,1.2024864 -0.0190841,1.2024864 -0.0151309,1.1907933 -0.012825,1.1786633 -0.0119109,1.1663549 -0.0116841,1.1540123 -0.0116841,0.9684178 -0.0116841,0.9684178 -0.0127274,0.9595429 -0.0141316,0.9552922 -0.0164228,0.9514566 -0.0196131,0.9483223 -0.0235729,0.9462504 -0.0279125,0.9451718 -0.0323753,0.9448529 -0.0323753,0.9448529 -0.0369573,0.9450474 -0.0413965,0.9461895 -0.0453856,0.948435 -0.0484577,0.9518354 -0.0505396,0.9559199 -0.0517661,0.9603376 -0.0524917,0.9694742 -0.0524917,1.1529857z" transform="matrix(1,0,0,-1,9.8905413,1.9242165)" fill="rgb(104,104,104)" fill-rule="nonzero" shaper:cutDepth="0.0000762" stroke-linecap="round" stroke-linejoin="round" /><path d="M0.0756786,1.0735979 L0.2325863,1.0735979 0.2325863,0.967845 0.2325863,0.967845 0.2333873,0.9595005 0.2345409,0.9554673 0.2364277,0.9517247 0.2391335,0.9485174 0.2427064,0.9463423 0.2467214,0.9451313 0.2509066,0.9448529 0.2509066,0.9448529 0.2563268,0.9456368 0.2613062,0.9478792 0.2652895,0.9516259 0.26779,0.9564917 0.26779,0.9564917 0.268744,0.9626264 0.2687958,0.9688489 0.2687958,1.2526788 0.2687958,1.2526788 0.2681747,1.2610839 0.2670708,1.2651552 0.2651904,1.2689295 0.2623753,1.2720641 0.2587125,1.274142 0.2546171,1.275142 0.2504037,1.2753364 0.2504037,1.2753364 0.2462428,1.2751313 0.2422153,1.274074 0.2386512,1.2719326 0.2359645,1.2687535 0.2342139,1.2649755 0.2331873,1.2609354 0.2325863,1.2526337 0.2325863,1.1098074 0.0756786,1.1098074 0.0756786,1.2506737 0.0756786,1.2506737 0.0756435,1.2569813 0.0746726,1.2631948 0.0746726,1.2631948 0.0724262,1.268326 0.0684744,1.2722906 0.0633325,1.2744996 0.0577892,1.2753364 0.0577892,1.2753364 0.0533951,1.2750677 0.04914,1.2739473 0.0453638,1.2716989 0.042598,1.2682881 0.0409391,1.2642102 0.0400022,1.259907 0.039469,1.2511249 0.039469,0.967845 0.039469,0.967845 0.0400652,0.9594988 0.0410931,0.9554353 0.0428587,0.9516421 0.0455344,0.9484215 0.0490762,0.9462032 0.0531034,0.9450604 0.0572863,0.9448529 0.0572863,0.9448529 0.0612299,0.9452446 0.0650395,0.9463297 0.0685183,0.9482248 0.07147,0.9508669 0.0737231,0.9541255 0.0751826,0.9578089 0.0757767,0.9617251 0.0756785,0.9656878 0.0756786,0.9667595 0.0756786,1.0735979z" transform="matrix(1,0,0,-1,9.8905413,1.9242165)" fill="rgb(104,104,104)" fill-rule="nonzero" shaper:cutDepth="0.0000762" stroke-linecap="round" stroke-linejoin="round" /><path d="M-3.4372973,0.4000213 L-3.3522304,0.542945 -3.2672375,0.401912 -3.2672375,0.401912 -3.2640701,0.3967839 -3.2603093,0.3920743 -3.2579361,0.3901968 -3.2552337,0.3888308 -3.249281,0.3879514 -3.249281,0.3879514 -3.2444945,0.3882049 -3.2398615,0.3894199 -3.2357234,0.391818 -3.2325173,0.3953842 -3.2303327,0.3996366 -3.2290849,0.4042727 -3.2283743,0.4138154 -3.2283742,0.6904338 -3.2283742,0.6904338 -3.2290342,0.7000647 -3.2301411,0.7047641 -3.2320465,0.7092016 -3.2349407,0.7130629 -3.2389075,0.7157952 -3.2435244,0.7172016 -3.248347,0.7174291 -3.248347,0.7174291 -3.2540665,0.7166462 -3.2594176,0.7145136 -3.2641017,0.7111188 -3.267242,0.7062933 -3.267242,0.7062933 -3.2689966,0.6989726 -3.2691818,0.6914215 -3.2691818,0.48534 -3.3308466,0.5886318 -3.3308466,0.5886318 -3.3345902,0.5943372 -3.3390728,0.5994752 -3.3418515,0.601464 -3.3450203,0.60277 -3.3518027,0.6034842 -3.3518027,0.6034842 -3.355637,0.6033884 -3.3593957,0.6026855 -3.3628837,0.6010751 -3.3657739,0.5985737 -3.3705261,0.5925668 -3.3746492,0.5860979 -3.4352856,0.48534 -3.4352856,0.6924202 -3.4352856,0.6924202 -3.4354969,0.6999204 -3.4367944,0.7072991 -3.4367944,0.7072991 -3.4402648,0.7117729 -3.4449678,0.7149387 -3.4503568,0.7166777 -3.4559768,0.7174291 -3.4559768,0.7174291 -3.460242,0.7170398 -3.4643821,0.7159488 -3.4681429,0.7139049 -3.471245,0.7109591 -3.4734751,0.7073045 -3.4749175,0.7032709 -3.4760932,0.6947982 -3.4760932,0.4085409 -3.4760932,0.4085409 -3.4754893,0.4001643 -3.4743303,0.3961117 -3.47221,0.3924906 -3.4691278,0.389629 -3.4653149,0.3878581 -3.4611902,0.3870434 -3.4569827,0.3869456 -3.4569827,0.3869456 -3.4507649,0.3876015 -3.4478268,0.3887002 -3.4451685,0.3903634 -3.4408586,0.3948839 -3.4372973,0.4000213z" transform="matrix(1,0,0,-1,9.8905413,1.9242165)" fill="rgb(104,104,104)" fill-rule="nonzero" shaper:cutDepth="0.0000762" stroke-linecap="round" stroke-linejoin="round" /><path d="M-3.5850425,0.6622528 L-3.5692034,0.7033477 -3.5692034,0.7033477 -3.5659727,0.7091222 -3.5613315,0.7138285 -3.5553628,0.7166521 -3.5487996,0.7174291 -3.5487996,0.7174291 -3.544846,0.7171117 -3.5409876,0.7161967 -3.5373695,0.7145729 -3.534105,0.7123219 -3.5313036,0.709515 -3.529191,0.7061599 -3.5279322,0.7024007 -3.5274619,0.6984623 -3.5274619,0.6984623 -3.5278001,0.694667 -3.5288583,0.6910019 -3.5314102,0.6838142 -3.6377428,0.4026077 -3.6377428,0.4026077 -3.6407602,0.3963601 -3.6451907,0.391041 -3.6480288,0.3890468 -3.6512038,0.3876457 -3.6546039,0.3869533 -3.6580747,0.3869456 -3.6580747,0.3869456 -3.6622821,0.3871016 -3.6664029,0.3879731 -3.6702249,0.3897117 -3.6734258,0.3924524 -3.678046,0.3994772 -3.681382,0.4072001 -3.7886875,0.6871827 -3.7886875,0.6871827 -3.7900355,0.6927613 -3.7906992,0.6984623 -3.7906992,0.6984623 -3.7902011,0.7023904 -3.7889123,0.7061332 -3.7867414,0.7094445 -3.7839601,0.7122605 -3.7806868,0.7144911 -3.7770844,0.7161316 -3.7692896,0.7174291 -3.7692896,0.7174291 -3.7657081,0.7173437 -3.7622137,0.7165576 -3.7589569,0.7150652 -3.7560518,0.7129723 -3.7515878,0.7073889 -3.7484223,0.7009667 -3.7340211,0.6622528 -3.5850425,0.6622528z M-3.600437,0.6214452 L-3.7176334,0.6214452 -3.6590352,0.4663196 -3.600437,0.6214452z" transform="matrix(1,0,0,-1,9.8905413,1.9242165)" fill="rgb(104,104,104)" fill-rule="nonzero" shaper:cutDepth="0.0000762" stroke-linecap="round" stroke-linejoin="round" /><path d="M-4.0284318,0.4133843 L-4.0284316,0.6277456 -3.8802305,0.4010717 -3.8802305,0.4010717 -3.8762737,0.3957153 -3.8715561,0.3910165 -3.8687661,0.3891803 -3.8656851,0.3878814 -3.8590949,0.3869456 -3.8590949,0.3869456 -3.853379,0.3878306 -3.8481127,0.3902056 -3.8436981,0.3939536 -3.8409183,0.3990155 -3.8409183,0.3990155 -3.8399457,0.4057221 -3.8399125,0.4125222 -3.8399124,0.690794 -3.8399124,0.690794 -3.8401005,0.699163 -3.8406593,0.7033132 -3.8419241,0.7072991 -3.8419241,0.7072991 -3.8452714,0.7115818 -3.849609,0.7148567 -3.8547067,0.7167358 -3.8601007,0.7174291 -3.8601007,0.7174291 -3.864524,0.7170382 -3.8688067,0.7158723 -3.8726824,0.7137128 -3.8758475,0.7106016 -3.8781164,0.7067914 -3.8795384,0.7025803 -3.88072,0.6937924 -3.88072,0.4761293 -4.0284316,0.7043044 -4.0284316,0.7043044 -4.0324661,0.7094095 -4.0373266,0.7137241 -4.0431892,0.7165463 -4.0496258,0.7174291 -4.0496258,0.7174291 -4.0539208,0.7170949 -4.0580707,0.7159465 -4.0617921,0.7137824 -4.0647894,0.7106949 -4.0668983,0.7069401 -4.0682279,0.7028417 -4.0692393,0.6942953 -4.0692392,0.4115798 -4.0692392,0.4115798 -4.0685344,0.4024099 -4.0673253,0.3979745 -4.0652637,0.3938574 -4.0621606,0.3904757 -4.0581902,0.3881576 -4.0537218,0.3870735 -4.0491229,0.3869456 -4.0491229,0.3869456 -4.0442543,0.3872031 -4.0395198,0.3883556 -4.03529,0.3907601 -4.032108,0.3944461 -4.0301403,0.3988992 -4.0290796,0.4036628 -4.0284318,0.4133843z" transform="matrix(1,0,0,-1,9.8905413,1.9242165)" fill="rgb(104,104,104)" fill-rule="nonzero" shaper:cutDepth="0.0000762" stroke-linecap="round" stroke-linejoin="round" /><path d="M-3.3433251,0.7633476 L-3.3433251,0.7633476 -3.3522309,0.7638118 -3.3610506,0.7651362 -3.3697156,0.7672441 -3.3781699,0.7700844 -3.3863754,0.7735779 -3.3942767,0.7777144 -3.4018194,0.7824727 -3.4089907,0.7877746 -3.4089907,0.7877746 -3.4162226,0.794424 -3.4227687,0.8017546 -3.4286185,0.8096448 -3.4338736,0.8179507 -3.4424172,0.8356369 -3.4487018,0.8542494 -3.4530389,0.8734136 -3.4558242,0.8928668 -3.4572702,0.9124644 -3.4577011,0.9321097 -3.4577011,0.9321097 -3.4572619,0.9506667 -3.4558741,0.9691731 -3.4532732,0.9875546 -3.4492236,1.0056648 -3.4435258,1.0233326 -3.4358863,1.0402405 -3.4312475,1.0482888 -3.4260321,1.0559717 -3.413948,1.0700507 -3.413948,1.0700507 -3.4066433,1.0762828 -3.3987583,1.0817619 -3.3904334,1.0865471 -3.3816988,1.0905346 -3.3726729,1.0938121 -3.3633894,1.096262 -3.3539121,1.0978066 -3.3443309,1.0984291 -3.3443309,1.0984291 -3.3323492,1.0974413 -3.3205595,1.0950833 -3.3091205,1.0913829 -3.2981194,1.0865312 -3.2876288,1.0806566 -3.2777633,1.0737856 -3.2686585,1.0659325 -3.2605605,1.0570468 -3.2605605,1.0570468 -3.2514809,1.0425959 -3.2443209,1.0270946 -3.2387111,1.0109719 -3.2345827,0.9944083 -3.2317087,0.9775772 -3.229758,0.9606165 -3.2287228,0.9435756 -3.2283743,0.9265059 -3.2283743,0.9265059 -3.2288514,0.9091563 -3.2302159,0.8918554 -3.2327514,0.8746855 -3.2364839,0.8577363 -3.241597,0.8411502 -3.2484187,0.8251974 -3.2570922,0.8101617 -3.2677449,0.7964678 -3.2677449,0.7964678 -3.2755576,0.7893706 -3.283981,0.7830102 -3.2929856,0.7775033 -3.30242,0.7727692 -3.3122484,0.7689217 -3.322372,0.7659341 -3.3327592,0.7640591 -3.3432895,0.7633477 -3.3433251,0.7633476z M-3.4168936,0.9295952 L-3.4168936,0.9295952 -3.4166376,0.9149764 -3.4156236,0.900396 -3.413714,0.8858972 -3.4107208,0.8715921 -3.4064164,0.8576166 -3.4005492,0.8442356 -3.3928335,0.8318139 -3.3831268,0.8208948 -3.3831268,0.8208948 -3.3743488,0.8142519 -3.3646237,0.8090922 -3.3542113,0.8055398 -3.3433063,0.8041561 -3.3433063,0.8041561 -3.3308867,0.805886 -3.3248899,0.8077282 -3.3190802,0.8101456 -3.3081645,0.8163392 -3.2985661,0.8244152 -3.2985661,0.8244152 -3.2900653,0.8351542 -3.2834888,0.8471823 -3.2785438,0.8599599 -3.2748698,0.8731664 -3.2722283,0.8866139 -3.2704799,0.90021 -3.2695226,0.913881 -3.2691818,0.9275835 -3.2691818,0.9275835 -3.2700953,0.9541949 -3.271447,0.9674413 -3.273516,0.9805958 -3.2764793,0.9935761 -3.280594,1.0062377 -3.2860689,1.0183758 -3.293106,1.0296742 -3.293106,1.0296742 -3.2977723,1.0354621 -3.3030269,1.0407199 -3.3088036,1.0454008 -3.3150519,1.0494281 -3.3216906,1.0527758 -3.3286678,1.0553391 -3.3359201,1.0569748 -3.3433251,1.0576216 -3.3433251,1.0576216 -3.3498088,1.05712 -3.3561728,1.055766 -3.3623633,1.0537766 -3.3683099,1.0511364 -3.3740206,1.0480241 -3.3793978,1.044363 -3.3844564,1.0402743 -3.3890899,1.0357091 -3.3890899,1.0357091 -3.3972818,1.0243804 -3.4036335,1.0119122 -3.408455,0.9987862 -3.4119374,0.9852367 -3.4143509,0.9714579 -3.4158596,0.9575499 -3.4168936,0.9295952z" transform="matrix(1,0,0,-1,9.8905413,1.9242165)" fill="rgb(104,104,104)" fill-rule="nonzero" shaper:cutDepth="0.0000762" stroke-linecap="round" stroke-linejoin="round" /><path d="M-3.5542598,0.8920925 L-3.6660494,0.8920925 -3.6660494,0.8920925 -3.6759619,0.8927408 -3.6808035,0.8938969 -3.6853644,0.8958669 -3.689295,0.8989085 -3.6921085,0.9029971 -3.6935647,0.907748 -3.6938531,0.9127118 -3.6938531,0.9127118 -3.6929734,0.9187102 -3.6905078,0.9242382 -3.6862904,0.9285818 -3.6809212,0.9313913 -3.6809212,0.9313913 -3.6727682,0.9326971 -3.6645039,0.9329001 -3.5542598,0.9329001 -3.5542598,1.0716312 -3.5542598,1.0716312 -3.554227,1.0785157 -3.5538924,1.0819437 -3.5528229,1.0852098 -3.5528229,1.0852098 -3.5501544,1.0907824 -3.5456561,1.0950197 -3.5399995,1.0975619 -3.533856,1.0984291 -3.533856,1.0984291 -3.528076,1.0975449 -3.5226689,1.0953388 -3.5181849,1.0915933 -3.514961,1.0867185 -3.514961,1.0867185 -3.5138917,1.0830654 -3.5135602,1.0792669 -3.5134522,1.071645 -3.5134522,0.7956057 -3.5134522,0.7956057 -3.5137532,0.7897288 -3.5148101,0.7839408 -3.5170192,0.7784917 -3.5205003,0.7737524 -3.525314,0.7703831 -3.5308802,0.7684814 -3.5367167,0.7677652 -3.5425996,0.7679457 -3.7112394,0.7679456 -3.7112394,0.7679456 -3.720584,0.7689289 -3.7251293,0.7701718 -3.7293292,0.7722647 -3.7329322,0.7752978 -3.7354999,0.7792253 -3.7370302,0.783673 -3.7375344,0.7883494 -3.7375344,0.7883494 -3.7371195,0.7930767 -3.7356625,0.7975915 -3.733124,0.8015858 -3.7294705,0.804621 -3.7252081,0.8066856 -3.720624,0.8079408 -3.7111839,0.8087533 -3.5542598,0.8087533 -3.5542598,0.8920925z" transform="matrix(1,0,0,-1,9.8905413,1.9242165)" fill="rgb(104,104,104)" fill-rule="nonzero" shaper:cutDepth="0.0000762" stroke-linecap="round" stroke-linejoin="round" /><path d="M-3.8301417,0.8920925 L-3.9419313,0.8920925 -3.9419313,0.8920925 -3.9518438,0.8927408 -3.9566854,0.8938969 -3.9612463,0.8958669 -3.9651769,0.8989085 -3.9679904,0.9029971 -3.9694466,0.907748 -3.969735,0.9127118 -3.969735,0.9127118 -3.9688553,0.9187102 -3.9663897,0.9242382 -3.9621723,0.9285818 -3.9568031,0.9313913 -3.9568031,0.9313913 -3.94865,0.9326971 -3.9403858,0.9329001 -3.8301417,0.9329001 -3.8301417,1.0716312 -3.8301417,1.0716312 -3.8301089,1.0785157 -3.8297743,1.0819437 -3.8287048,1.0852098 -3.8287048,1.0852098 -3.8260363,1.0907824 -3.821538,1.0950197 -3.8158814,1.0975619 -3.8097379,1.0984291 -3.8097379,1.0984291 -3.8039578,1.0975449 -3.7985508,1.0953388 -3.7940668,1.0915933 -3.7908429,1.0867185 -3.7908429,1.0867185 -3.7897736,1.0830654 -3.789442,1.0792669 -3.7893341,1.071645 -3.7893341,0.7956057 -3.7893341,0.7956057 -3.7896351,0.7897288 -3.790692,0.7839408 -3.792901,0.7784917 -3.7963821,0.7737524 -3.8011959,0.7703831 -3.8067621,0.7684814 -3.8125986,0.7677652 -3.8184815,0.7679457 -3.9871213,0.7679456 -3.9871213,0.7679456 -3.9964659,0.7689289 -4.0010112,0.7701718 -4.0052111,0.7722647 -4.0088141,0.7752978 -4.0113818,0.7792253 -4.0129121,0.783673 -4.0134163,0.7883494 -4.0134163,0.7883494 -4.0130014,0.7930767 -4.0115444,0.7975915 -4.0090059,0.8015858 -4.0053524,0.804621 -4.00109,0.8066856 -3.9965059,0.8079408 -3.9870658,0.8087533 -3.8301417,0.8087533 -3.8301417,0.8920925z" transform="matrix(1,0,0,-1,9.8905413,1.9242165)" fill="rgb(104,104,104)" fill-rule="nonzero" shaper:cutDepth="0.0000762" stroke-linecap="round" stroke-linejoin="round" /><path d="M-3.2861705,1.4242528 L-3.2703313,1.4653477 -3.2703313,1.4653477 -3.2671007,1.4711222 -3.2624595,1.4758285 -3.2564908,1.4786521 -3.2499276,1.4794291 -3.2499276,1.4794291 -3.2459739,1.4791117 -3.2421156,1.4781967 -3.2384975,1.4765729 -3.2352329,1.4743219 -3.2324316,1.471515 -3.230319,1.4681599 -3.2290602,1.4644007 -3.2285898,1.4604623 -3.2285898,1.4604623 -3.228928,1.456667 -3.2299863,1.4530019 -3.2325382,1.4458142 -3.3388707,1.1646077 -3.3388707,1.1646077 -3.3418882,1.1583601 -3.3463186,1.153041 -3.3491568,1.1510468 -3.3523318,1.1496457 -3.3557319,1.1489533 -3.3592027,1.1489456 -3.3592027,1.1489456 -3.36341,1.1491016 -3.3675309,1.1499731 -3.3713529,1.1517117 -3.3745537,1.1544524 -3.3791739,1.1614772 -3.3825099,1.1692001 -3.4898155,1.4491827 -3.4898155,1.4491827 -3.4911635,1.4547613 -3.4918271,1.4604623 -3.4918271,1.4604623 -3.4913291,1.4643904 -3.4900402,1.4681332 -3.4878694,1.4714445 -3.485088,1.4742605 -3.4818148,1.4764911 -3.4782124,1.4781316 -3.4704175,1.4794291 -3.4704175,1.4794291 -3.4668361,1.4793437 -3.4633417,1.4785576 -3.4600848,1.4770652 -3.4571798,1.4749723 -3.4527158,1.4693889 -3.4495503,1.4629667 -3.435149,1.4242528 -3.2861705,1.4242528z M-3.3015649,1.3834452 L-3.4187614,1.3834452 -3.3601631,1.2283196 -3.3015649,1.3834452z" transform="matrix(1,0,0,-1,9.8905413,1.9242165)" fill="rgb(104,104,104)" fill-rule="nonzero" shaper:cutDepth="0.0000762" stroke-linecap="round" stroke-linejoin="round" /><path d="M-3.581848,1.3570784 L-3.581848,1.3570784 -3.5820315,1.3683413 -3.5830789,1.3795528 -3.5841934,1.3850772 -3.5859134,1.3904474 -3.5909003,1.4005442 -3.5909003,1.4005442 -3.596143,1.4088875 -3.602404,1.416495 -3.6096567,1.4231642 -3.6178015,1.4287095 -3.6266086,1.4331252 -3.6359733,1.4361936 -3.6456512,1.4380347 -3.6554883,1.4386216 -3.6554883,1.4386216 -3.6665077,1.4378369 -3.6773378,1.4356656 -3.6876993,1.4318361 -3.697371,1.4265009 -3.7061406,1.4197841 -3.7136501,1.4116838 -3.7198464,1.4025404 -3.7246025,1.3925694 -3.7246025,1.3925694 -3.7275223,1.383648 -3.7289645,1.3743706 -3.7295596,1.3556045 -3.7295597,1.1760309 -3.7295597,1.1760309 -3.7302263,1.1662226 -3.7313367,1.161427 -3.7332982,1.156918 -3.7364347,1.1531402 -3.7406028,1.1505411 -3.7453399,1.1492264 -3.7502509,1.1489456 -3.7502509,1.1489456 -3.7551391,1.1492239 -3.7598646,1.1504867 -3.7639892,1.153124 -3.7670111,1.1569484 -3.7688203,1.1615055 -3.7698395,1.1662931 -3.7703672,1.1760674 -3.7703672,1.3600958 -3.7703672,1.3600958 -3.7697622,1.3716646 -3.7683673,1.3831634 -3.7660058,1.394505 -3.7626379,1.405588 -3.7582427,1.4163054 -3.7527948,1.4265281 -3.7462571,1.4360895 -3.7387483,1.4449099 -3.7303778,1.4529168 -3.7212064,1.4599919 -3.7112892,1.4659766 -3.7007721,1.4708309 -3.6898107,1.474575 -3.6785298,1.4772094 -3.6670551,1.4787895 -3.6554883,1.4794291 -3.6554883,1.4794291 -3.6468782,1.4791005 -3.6383134,1.4781618 -3.6214649,1.4745789 -3.6053842,1.468414 -3.5977304,1.4644575 -3.5904176,1.4599011 -3.5834564,1.4548237 -3.5769126,1.4492188 -3.5708402,1.4431063 -3.5652802,1.4365245 -3.5602801,1.4295075 -3.5557913,1.4221527 -3.5518384,1.4144972 -3.5484404,1.4065791 -3.5484404,1.4065791 -3.5444871,1.394886 -3.5421813,1.382756 -3.5412672,1.3704476 -3.5410404,1.358105 -3.5410404,1.1725105 -3.5410404,1.1725105 -3.5420836,1.1636356 -3.5434879,1.1593849 -3.545779,1.1555493 -3.5489694,1.152415 -3.5529292,1.1503431 -3.5572688,1.1492645 -3.5617316,1.1489456 -3.5617316,1.1489456 -3.5663136,1.1491401 -3.5707527,1.1502822 -3.5747419,1.1525277 -3.577814,1.1559281 -3.5798959,1.1600126 -3.5811224,1.1644303 -3.581848,1.1735669 -3.581848,1.3570784z" transform="matrix(1,0,0,-1,9.8905413,1.9242165)" fill="rgb(104,104,104)" fill-rule="nonzero" shaper:cutDepth="0.0000762" stroke-linecap="round" stroke-linejoin="round" /><path d="M-3.9542885,1.4542118 L-3.9542885,1.4542118 -3.954135,1.4616315 -3.953568,1.4652937 -3.9523487,1.4687962 -3.9523487,1.4687962 -3.949093,1.4733471 -3.944676,1.4767812 -3.9394424,1.4787483 -3.9338847,1.4794291 -3.9338847,1.4794291 -3.9274259,1.4784403 -3.9215719,1.4755611 -3.9189843,1.4735626 -3.9168194,1.4711234 -3.9151158,1.4683372 -3.9139839,1.4652758 -3.9139839,1.4652758 -3.9134809,1.4517692 -3.9134809,1.1897533 -3.8464503,1.1897532 -3.8464503,1.1897532 -3.836887,1.188835 -3.8322621,1.187498 -3.8280011,1.1852819 -3.8244101,1.1820796 -3.8219621,1.1779505 -3.820557,1.1733527 -3.8201553,1.1685591 -3.8201553,1.1685591 -3.8205638,1.1636063 -3.8222217,1.1589302 -3.8253541,1.1550757 -3.8294883,1.1523298 -3.8341503,1.1506044 -3.8390102,1.1495446 -3.8489235,1.1489457 -4.022325,1.1489456 -4.022325,1.1489456 -4.0317699,1.1498727 -4.0363141,1.1512533 -4.0405178,1.1534677 -4.0439889,1.1566992 -4.0464236,1.1607744 -4.0477253,1.1653403 -4.0481889,1.1700678 -4.0481889,1.1700678 -4.0477378,1.1748511 -4.0462194,1.1794027 -4.0433637,1.183266 -4.0395307,1.1861447 -4.035094,1.1880002 -4.0304148,1.1890861 -4.0208323,1.1897533 -3.9542885,1.1897533 -3.9542885,1.4542118z" transform="matrix(1,0,0,-1,9.8905413,1.9242165)" fill="rgb(104,104,104)" fill-rule="nonzero" shaper:cutDepth="0.0000762" stroke-linecap="round" stroke-linejoin="round" /><path d="M-4.2169511,1.1443476 L-4.2169511,1.1443476 -4.2258568,1.1448118 -4.2346766,1.1461362 -4.2433416,1.1482441 -4.2517959,1.1510844 -4.2600014,1.1545779 -4.2679027,1.1587144 -4.2754453,1.1634727 -4.2826167,1.1687746 -4.2826167,1.1687746 -4.2898486,1.175424 -4.2963947,1.1827546 -4.3022445,1.1906448 -4.3074996,1.1989507 -4.3160432,1.2166369 -4.3223278,1.2352494 -4.3266648,1.2544136 -4.3294502,1.2738668 -4.3308962,1.2934644 -4.3313271,1.3131097 -4.3313271,1.3131097 -4.3308879,1.3316667 -4.3295001,1.3501731 -4.3268992,1.3685546 -4.3228495,1.3866648 -4.3171518,1.4043326 -4.3095122,1.4212405 -4.3048734,1.4292888 -4.2996581,1.4369717 -4.2875739,1.4510507 -4.2875739,1.4510507 -4.2802693,1.4572828 -4.2723842,1.4627619 -4.2640593,1.4675471 -4.2553247,1.4715346 -4.2462988,1.4748121 -4.2370153,1.477262 -4.2275381,1.4788066 -4.2179569,1.4794291 -4.2179569,1.4794291 -4.2059752,1.4784413 -4.1941855,1.4760833 -4.1827465,1.4723829 -4.1717454,1.4675312 -4.1612548,1.4616566 -4.1513893,1.4547856 -4.1422845,1.4469325 -4.1341865,1.4380468 -4.1341865,1.4380468 -4.1251068,1.4235959 -4.1179469,1.4080946 -4.1123371,1.3919719 -4.1082087,1.3754083 -4.1053347,1.3585772 -4.103384,1.3416165 -4.1023488,1.3245756 -4.1020003,1.3075059 -4.1020003,1.3075059 -4.1024773,1.2901563 -4.1038419,1.2728554 -4.1063774,1.2556855 -4.1101099,1.2387363 -4.115223,1.2221502 -4.1220447,1.2061974 -4.1307181,1.1911617 -4.1413709,1.1774678 -4.1413709,1.1774678 -4.1491836,1.1703706 -4.157607,1.1640102 -4.1666116,1.1585033 -4.176046,1.1537692 -4.1858744,1.1499217 -4.195998,1.1469341 -4.2063852,1.1450591 -4.2169155,1.1443477 -4.2169511,1.1443476z M-4.2905196,1.3105952 L-4.2905196,1.3105952 -4.2902636,1.2959764 -4.2892495,1.281396 -4.28734,1.2668972 -4.2843468,1.2525921 -4.2800423,1.2386166 -4.2741752,1.2252356 -4.2664595,1.2128139 -4.2567528,1.2018948 -4.2567528,1.2018948 -4.2479747,1.1952519 -4.2382496,1.1900922 -4.2278373,1.1865398 -4.2169323,1.1851561 -4.2169323,1.1851561 -4.2045126,1.186886 -4.1985159,1.1887282 -4.1927062,1.1911456 -4.1817905,1.1973392 -4.1721921,1.2054152 -4.1721921,1.2054152 -4.1636913,1.2161542 -4.1571147,1.2281823 -4.1521698,1.2409599 -4.1484957,1.2541664 -4.1458543,1.2676139 -4.1441059,1.28121 -4.1431486,1.294881 -4.1428078,1.3085835 -4.1428078,1.3085835 -4.1437213,1.3351949 -4.145073,1.3484413 -4.1471419,1.3615958 -4.1501052,1.3745761 -4.15422,1.3872377 -4.1596948,1.3993758 -4.1667319,1.4106742 -4.1667319,1.4106742 -4.1713982,1.4164621 -4.1766529,1.4217199 -4.1824296,1.4264008 -4.1886779,1.4304281 -4.1953165,1.4337758 -4.2022937,1.4363391 -4.2095461,1.4379748 -4.2169511,1.4386216 -4.2169511,1.4386216 -4.2234347,1.43812 -4.2297987,1.436766 -4.2359893,1.4347766 -4.2419359,1.4321364 -4.2476466,1.4290241 -4.2530238,1.425363 -4.2580824,1.4212743 -4.2627158,1.4167091 -4.2627158,1.4167091 -4.2709078,1.4053804 -4.2772595,1.3929122 -4.2820809,1.3797862 -4.2855633,1.3662367 -4.2879769,1.3524579 -4.2894856,1.3385499 -4.2905196,1.3105952z" transform="matrix(1,0,0,-1,9.8905413,1.9242165)" fill="rgb(104,104,104)" fill-rule="nonzero" shaper:cutDepth="0.0000762" stroke-linecap="round" stroke-linejoin="round" /><path d="M5.6377852,-0.0307516 L5.6377852,-0.0307516 5.6380514,-0.0202287 5.6388332,-0.0150246 5.6404537,-0.0100194 5.6404537,-0.0100194 5.644842,-0.0050617 5.650461,-0.0015275 5.6566707,0.0007819 5.6632386,0.0016809 5.6632386,0.0016809 5.6705653,0.0006221 5.6773888,-0.0022227 5.6833206,-0.0066686 5.6874603,-0.0127906 5.6874603,-0.0127906 5.6889226,-0.0170834 5.6893813,-0.021599 5.6895131,-0.0306815 5.689513,-0.4366716 5.689513,-0.4366716 5.6891673,-0.4479604 5.6883107,-0.453543 5.6861261,-0.458738 5.6861261,-0.458738 5.6815439,-0.4635552 5.6760623,-0.4673089 5.6698368,-0.4696338 5.6632386,-0.4704384 5.6632386,-0.4704384 5.6574306,-0.4700484 5.6518083,-0.4685528 5.646851,-0.4655168 5.6429993,-0.4611547 5.6403839,-0.4559628 5.6388303,-0.4503458 5.6377852,-0.4387654 5.6377852,-0.0307516z" transform="matrix(1,0,0,-1,9.8905413,1.9242165)" fill="rgb(104,104,104)" fill-rule="nonzero" shaper:cutDepth="0.0000762" stroke-linecap="round" stroke-linejoin="round" /><path d="M5.4998442,-0.2930857 L5.3401447,-0.2930857 5.3401447,-0.2930857 5.3330394,-0.2929403 5.325984,-0.2921595 5.3190675,-0.290508 5.3125518,-0.2876937 5.3069368,-0.2833485 5.3029175,-0.2775078 5.3008371,-0.2707207 5.3004251,-0.2636296 5.3004251,-0.2636296 5.3016819,-0.2550605 5.3031023,-0.2509719 5.3052042,-0.2471633 5.3079406,-0.2437748 5.3112291,-0.2409581 5.3188994,-0.2369446 5.3188994,-0.2369446 5.3246679,-0.2356957 5.3305465,-0.2350792 5.3423526,-0.2347892 5.4998442,-0.2347892 5.4998442,-0.0366018 5.4998442,-0.0366018 5.4998911,-0.0267669 5.5003691,-0.0218697 5.5018969,-0.0172039 5.5018969,-0.0172039 5.5034555,-0.0130569 5.505709,-0.009243 5.5086596,-0.0059395 5.5121352,-0.0031898 5.5160308,-0.0010345 5.520216,0.000442 5.5289925,0.0016809 5.5289925,0.0016809 5.5372497,0.0004177 5.5412205,-0.0008696 5.544974,-0.0027338 5.5484047,-0.0051527 5.5513797,-0.0080845 5.5559854,-0.0150485 5.5559854,-0.0150485 5.5575129,-0.0202673 5.5579865,-0.0256937 5.5581408,-0.0365822 5.5581407,-0.4309241 5.5581407,-0.4309241 5.5577107,-0.4393196 5.5562009,-0.4475882 5.5530451,-0.4553725 5.5507996,-0.4589397 5.5480721,-0.462143 5.5448331,-0.4648288 5.5411954,-0.4669562 5.5332437,-0.4696731 5.5249058,-0.4706962 5.5165016,-0.4704383 5.2755876,-0.4704384 5.2755876,-0.4704384 5.2622382,-0.4690337 5.2557449,-0.4672581 5.2497451,-0.4642682 5.2445979,-0.4599353 5.2409297,-0.4543246 5.2387436,-0.4479707 5.2380233,-0.4412901 5.2380233,-0.4412901 5.238616,-0.4345368 5.2406975,-0.4280872 5.2443239,-0.4223809 5.2495432,-0.4180449 5.2556323,-0.4150955 5.262181,-0.4133025 5.2688875,-0.4123703 5.2756669,-0.4121417 5.4998442,-0.4121417 5.4998442,-0.2930857z" transform="matrix(1,0,0,-1,9.8905413,1.9242165)" fill="rgb(104,104,104)" fill-rule="nonzero" shaper:cutDepth="0.0000762" stroke-linecap="round" stroke-linejoin="round" /><path d="M5.1057273,-0.2930857 L4.9425382,-0.2930857 4.9425382,-0.2930857 4.9358161,-0.2929274 4.9291556,-0.2920609 4.9226871,-0.2902181 4.9167108,-0.2871575 4.9117202,-0.2826598 4.9083879,-0.276835 4.9066661,-0.2703424 4.9063082,-0.2636296 4.9063082,-0.2636296 4.9066192,-0.2566279 4.9086105,-0.2499144 4.9125564,-0.2441307 4.9181024,-0.2398692 4.92458,-0.2371818 4.9314138,-0.2356232 4.9453979,-0.2347892 5.1057273,-0.2347892 5.1057273,-0.0566156 4.8794179,-0.0566156 4.8794179,-0.0566156 4.8696843,-0.0565722 4.8648405,-0.0560845 4.8602252,-0.0545629 4.8602252,-0.0545629 4.852384,-0.0503692 4.8490016,-0.0474789 4.8461741,-0.0440158 4.84399,-0.0401204 4.8424855,-0.0359352 4.8410325,-0.0271594 4.8410325,-0.0271594 4.8413922,-0.0198474 4.8422739,-0.0162863 4.843735,-0.0129193 4.8457411,-0.0098485 4.8482228,-0.0071448 4.8542935,-0.0030732 4.861173,-0.0005517 4.8683506,0.0009036 4.8829688,0.0016809 5.1267674,0.0016809 5.1267674,0.0016809 5.1347837,0.0016002 5.1427273,0.0005725 5.1503516,-0.0018983 5.1538371,-0.0038922 5.1568971,-0.0064901 5.1593632,-0.0096607 5.1611879,-0.0132343 5.1633131,-0.0209678 5.164118,-0.028934 5.1640238,-0.0369514 5.1640237,-0.4325662 5.1640237,-0.4325662 5.1639433,-0.4406058 5.1629008,-0.4485693 5.1604516,-0.4562256 5.1584634,-0.4597294 5.1558556,-0.4627945 5.1526704,-0.4652534 5.1491052,-0.4671326 5.1414152,-0.4694573 5.1334291,-0.4703565 5.1253915,-0.4704383 4.8800337,-0.4704384 4.8800337,-0.4704384 4.8668252,-0.4694093 4.8604316,-0.4676691 4.8544948,-0.46472 4.8495203,-0.4603515 4.8460733,-0.4546995 4.8442939,-0.4483178 4.8439063,-0.4417007 4.8439063,-0.4417007 4.8443086,-0.4346724 4.8463389,-0.4279353 4.8501973,-0.4220637 4.8556824,-0.4176547 4.8620971,-0.4147691 4.868936,-0.4130718 4.8759269,-0.4122831 4.8829688,-0.4121417 5.1057273,-0.4121417 5.1057273,-0.2930857z" transform="matrix(1,0,0,-1,9.8905413,1.9242165)" fill="rgb(104,104,104)" fill-rule="nonzero" shaper:cutDepth="0.0000762" stroke-linecap="round" stroke-linejoin="round" /><path d="M4.7181789,-0.0307516 L4.7181789,-0.0307516 4.7184451,-0.0202287 4.7192269,-0.0150246 4.7208474,-0.0100194 4.7208474,-0.0100194 4.7252357,-0.0050617 4.7308547,-0.0015275 4.7370644,0.0007819 4.7436323,0.0016809 4.7436323,0.0016809 4.750959,0.0006221 4.7577825,-0.0022227 4.7637143,-0.0066686 4.767854,-0.0127906 4.767854,-0.0127906 4.7693163,-0.0170834 4.769775,-0.021599 4.7699068,-0.0306815 4.7699067,-0.4366716 4.7699067,-0.4366716 4.769561,-0.4479604 4.7687044,-0.453543 4.7665198,-0.458738 4.7665198,-0.458738 4.7619376,-0.4635552 4.756456,-0.4673089 4.7502305,-0.4696338 4.7436323,-0.4704384 4.7436323,-0.4704384 4.7378243,-0.4700484 4.732202,-0.4685528 4.7272448,-0.4655168 4.723393,-0.4611547 4.7207776,-0.4559628 4.719224,-0.4503458 4.7181789,-0.4387654 4.7181789,-0.0307516z" transform="matrix(1,0,0,-1,9.8905413,1.9242165)" fill="rgb(104,104,104)" fill-rule="nonzero" shaper:cutDepth="0.0000762" stroke-linecap="round" stroke-linejoin="round" /><path d="M6.2876025,1.4901111 L6.2876025,1.4901111 6.2786967,1.4905753 6.2698769,1.4918998 6.2612119,1.4940077 6.2527576,1.4968479 6.2445521,1.5003415 6.2366509,1.5044779 6.2291082,1.5092362 6.2219368,1.5145382 6.2219368,1.5145382 6.214705,1.5211875 6.2081588,1.5285182 6.202309,1.5364083 6.1970539,1.5447142 6.1885103,1.5624004 6.1822257,1.581013 6.1778887,1.6001771 6.1751034,1.6196303 6.1736573,1.6392279 6.1732264,1.6588732 6.1732264,1.6588732 6.1736656,1.6774303 6.1750534,1.6959366 6.1776543,1.7143182 6.181704,1.7324283 6.1874017,1.7500962 6.1950413,1.767004 6.1996801,1.7750523 6.2048954,1.7827352 6.2169796,1.7968142 6.2169796,1.7968142 6.2242842,1.8030463 6.2321693,1.8085255 6.2404942,1.8133106 6.2492288,1.8172981 6.2582547,1.8205756 6.2675382,1.8230255 6.2770154,1.8245702 6.2865966,1.8251927 6.2865966,1.8251927 6.2985783,1.8242048 6.310368,1.8218468 6.3218071,1.8181465 6.3328081,1.8132947 6.3432987,1.8074201 6.3531642,1.8005491 6.362269,1.792696 6.370367,1.7838104 6.370367,1.7838104 6.3794467,1.7693594 6.3866066,1.7538581 6.3922164,1.7377354 6.3963448,1.7211718 6.3992188,1.7043407 6.4011695,1.68738 6.4022047,1.6703391 6.4025533,1.6532694 6.4025533,1.6532694 6.4020762,1.6359198 6.4007116,1.618619 6.3981761,1.601449 6.3944436,1.5844998 6.3893305,1.5679138 6.3825088,1.551961 6.3738354,1.5369252 6.3631826,1.5232313 6.3631826,1.5232313 6.3553699,1.5161342 6.3469466,1.5097737 6.3379419,1.5042669 6.3285075,1.4995327 6.3186791,1.4956852 6.3085555,1.4926977 6.2981684,1.4908226 6.287638,1.4901112 6.2876025,1.4901111z M6.214034,1.6563587 L6.214034,1.6563587 6.2142899,1.64174 6.215304,1.6271595 6.2172135,1.6126608 6.2202068,1.5983556 6.2245112,1.5843801 6.2303784,1.5709991 6.238094,1.5585774 6.2478008,1.5476584 6.2478008,1.5476584 6.2565788,1.5410154 6.2663039,1.5358557 6.2767162,1.5323033 6.2876212,1.5309197 6.2876212,1.5309197 6.3000409,1.5326495 6.3060376,1.5344917 6.3118473,1.5369091 6.3227631,1.5431028 6.3323614,1.5511787 6.3323614,1.5511787 6.3408622,1.5619177 6.3474388,1.5739458 6.3523837,1.5867235 6.3560578,1.59993 6.3586992,1.6133774 6.3604477,1.6269735 6.361405,1.6406445 6.3617457,1.6543471 6.3617457,1.6543471 6.3608322,1.6809584 6.3594805,1.6942048 6.3574116,1.7073593 6.3544483,1.7203396 6.3503335,1.7330013 6.3448587,1.7451394 6.3378216,1.7564377 6.3378216,1.7564377 6.3331553,1.7622256 6.3279006,1.7674835 6.3221239,1.7721643 6.3158756,1.7761916 6.309237,1.7795393 6.3022598,1.7821026 6.2950074,1.7837383 6.2876025,1.7843851 6.2876025,1.7843851 6.2811188,1.7838835 6.2747548,1.7825295 6.2685642,1.7805401 6.2626176,1.7778999 6.2569069,1.7747876 6.2515298,1.7711265 6.2464711,1.7670378 6.2418377,1.7624726 6.2418377,1.7624726 6.2336457,1.7511439 6.227294,1.7386757 6.2224726,1.7255497 6.2189902,1.7120002 6.2165766,1.6982214 6.2150679,1.6843135 6.214034,1.6563587z" transform="matrix(1,0,0,-1,9.8905413,1.9242165)" fill="rgb(104,104,104)" fill-rule="nonzero" shaper:cutDepth="0.0000762" stroke-linecap="round" stroke-linejoin="round" /><path d="M6.0766678,1.618856 L5.9648781,1.618856 5.9648781,1.618856 5.9549656,1.6195044 5.9501241,1.6206604 5.9455631,1.6226304 5.9416326,1.6256721 5.9388191,1.6297606 5.9373628,1.6345115 5.9370744,1.6394753 5.9370744,1.6394753 5.9379541,1.6454737 5.9404197,1.6510017 5.9446372,1.6553453 5.9500064,1.6581548 5.9500064,1.6581548 5.9581594,1.6594606 5.9664236,1.6596636 6.0766678,1.6596636 6.0766678,1.7983948 6.0766678,1.7983948 6.0767005,1.8052792 6.0770352,1.8087072 6.0781047,1.8119733 6.0781047,1.8119733 6.0807731,1.8175459 6.0852714,1.8217832 6.090928,1.8243254 6.0970715,1.8251927 6.0970715,1.8251927 6.1028516,1.8243084 6.1082586,1.8221023 6.1127426,1.8183568 6.1159666,1.813482 6.1159666,1.813482 6.1170358,1.8098289 6.1173674,1.8060305 6.1174754,1.7984085 6.1174753,1.5223692 6.1174753,1.5223692 6.1171743,1.5164923 6.1161174,1.5107043 6.1139084,1.5052553 6.1104273,1.5005159 6.1056136,1.4971467 6.1000474,1.4952449 6.0942109,1.4945287 6.0883279,1.4947092 5.9196881,1.4947091 5.9196881,1.4947091 5.9103435,1.4956924 5.9057982,1.4969353 5.9015984,1.4990283 5.8979954,1.5020613 5.8954276,1.5059888 5.8938974,1.5104365 5.8933931,1.5151129 5.8933931,1.5151129 5.893808,1.5198403 5.8952651,1.524355 5.8978036,1.5283494 5.9014571,1.5313846 5.9057195,1.5334491 5.9103035,1.5347043 5.9197437,1.5355168 6.0766678,1.5355168 6.0766678,1.618856z" transform="matrix(1,0,0,-1,9.8905413,1.9242165)" fill="rgb(104,104,104)" fill-rule="nonzero" shaper:cutDepth="0.0000762" stroke-linecap="round" stroke-linejoin="round" /><path d="M5.8007859,1.618856 L5.6889962,1.618856 5.6889962,1.618856 5.6790837,1.6195044 5.6742422,1.6206604 5.6696812,1.6226304 5.6657507,1.6256721 5.6629372,1.6297606 5.6614809,1.6345115 5.6611925,1.6394753 5.6611925,1.6394753 5.6620722,1.6454737 5.6645379,1.6510017 5.6687553,1.6553453 5.6741245,1.6581548 5.6741245,1.6581548 5.6822775,1.6594606 5.6905417,1.6596636 5.8007859,1.6596636 5.8007859,1.7983948 5.8007859,1.7983948 5.8008187,1.8052792 5.8011533,1.8087072 5.8022228,1.8119733 5.8022228,1.8119733 5.8048912,1.8175459 5.8093896,1.8217832 5.8150461,1.8243254 5.8211897,1.8251927 5.8211897,1.8251927 5.8269697,1.8243084 5.8323767,1.8221023 5.8368607,1.8183568 5.8400847,1.813482 5.8400847,1.813482 5.841154,1.8098289 5.8414855,1.8060305 5.8415935,1.7984085 5.8415934,1.5223692 5.8415934,1.5223692 5.8412924,1.5164923 5.8402355,1.5107043 5.8380265,1.5052553 5.8345454,1.5005159 5.8297317,1.4971467 5.8241655,1.4952449 5.818329,1.4945287 5.8124461,1.4947092 5.6438062,1.4947091 5.6438062,1.4947091 5.6344617,1.4956924 5.6299163,1.4969353 5.6257165,1.4990283 5.6221135,1.5020613 5.6195457,1.5059888 5.6180155,1.5104365 5.6175112,1.5151129 5.6175112,1.5151129 5.6179261,1.5198403 5.6193832,1.524355 5.6219217,1.5283494 5.6255752,1.5313846 5.6298376,1.5334491 5.6344216,1.5347043 5.6438618,1.5355168 5.8007859,1.5355168 5.8007859,1.618856z" transform="matrix(1,0,0,-1,9.8905413,1.9242165)" fill="rgb(104,104,104)" fill-rule="nonzero" shaper:cutDepth="0.0000762" stroke-linecap="round" stroke-linejoin="round" /><path d="M4.096114,1.7999753 L4.096114,1.7999753 4.0962675,1.807395 4.0968345,1.8110572 4.0980538,1.8145597 4.0980538,1.8145597 4.1013095,1.8191107 4.1057265,1.8225447 4.1109601,1.8245118 4.1165178,1.8251927 4.1165178,1.8251927 4.1229766,1.8242038 4.1288306,1.8213246 4.1314182,1.8193261 4.1335831,1.8168869 4.1352867,1.8141008 4.1364186,1.8110393 4.1364186,1.8110393 4.1369216,1.7975328 4.1369216,1.5355168 4.2039522,1.5355167 4.2039522,1.5355167 4.2135155,1.5345985 4.2181404,1.5332615 4.2224014,1.5310455 4.2259924,1.5278431 4.2284404,1.523714 4.2298455,1.5191162 4.2302472,1.5143226 4.2302472,1.5143226 4.2298387,1.5093698 4.2281808,1.5046937 4.2250484,1.5008392 4.2209142,1.4980933 4.2162523,1.4963679 4.2113924,1.4953081 4.201479,1.4947092 4.0280775,1.4947091 4.0280775,1.4947091 4.0186326,1.4956362 4.0140884,1.4970168 4.0098847,1.4992313 4.0064136,1.5024628 4.0039789,1.5065379 4.0026772,1.5111038 4.0022136,1.5158314 4.0022136,1.5158314 4.0026647,1.5206146 4.0041831,1.5251663 4.0070388,1.5290295 4.0108718,1.5319082 4.0153085,1.5337638 4.0199877,1.5348496 4.0295702,1.5355168 4.096114,1.5355168 4.096114,1.7999753z" transform="matrix(1,0,0,-1,9.8905413,1.9242165)" fill="rgb(104,104,104)" fill-rule="nonzero" shaper:cutDepth="0.0000762" stroke-linecap="round" stroke-linejoin="round" /><path d="M4.2858546,1.7880492 L4.2858546,1.7880492 4.2839148,1.7904919 4.2839148,1.7904919 4.279943,1.7966311 4.2788727,1.8001361 4.2785265,1.8037831 4.2785265,1.8037831 4.2789335,1.8077552 4.2801529,1.8115555 4.2821236,1.8150265 4.2847836,1.8180035 4.287981,1.8203924 4.2915949,1.8220902 4.2954576,1.8230931 4.2994332,1.8234684 4.2994332,1.8234684 4.3052009,1.8228991 4.307968,1.8219937 4.3104724,1.8205367 4.314765,1.8166485 4.3184139,1.8121462 4.4107937,1.6872518 4.4547605,1.6872518 4.4547605,1.7983229 4.4547605,1.7983229 4.4554285,1.8079576 4.4565482,1.8126531 4.458454,1.8170984 4.4614211,1.8208938 4.4654272,1.8235854 4.4700524,1.8249653 4.4748768,1.8251927 4.4748768,1.8251927 4.4816126,1.8242315 4.4877361,1.8212796 4.4903721,1.8191147 4.4925077,1.8164593 4.4941149,1.8134516 4.4950651,1.8101772 4.4950651,1.8101772 4.4955681,1.7964123 4.495568,1.5233032 4.495568,1.5233032 4.4955535,1.51721 4.4946626,1.5111845 4.492412,1.505527 4.4886042,1.5007819 4.4834929,1.4974785 4.4777038,1.4955755 4.4716697,1.4947596 4.4655753,1.4947092 4.3814793,1.4947091 4.3814793,1.4947091 4.3717494,1.4951819 4.3620765,1.4963133 4.3525029,1.4981226 4.3431399,1.5008005 4.3340768,1.504372 4.3254057,1.5088078 4.3172473,1.514129 4.3097112,1.5202988 4.3028338,1.5271968 4.2967477,1.5348006 4.2915737,1.5430526 4.2874166,1.5518609 4.2841954,1.5610526 4.2819493,1.5705309 4.2806171,1.5801793 4.2800353,1.5899028 4.2800353,1.5899028 4.2813767,1.6069021 4.2830527,1.6152671 4.2854199,1.6234629 4.2884565,1.631435 4.2922331,1.6390845 4.2967875,1.6462975 4.3019377,1.6530984 4.3076666,1.6594193 4.3140027,1.6651313 4.3208535,1.6702149 4.3281321,1.6746637 4.3358011,1.6784007 4.3437619,1.6814676 4.3602571,1.6857944 4.2858546,1.7880492z M4.4547605,1.5355168 L4.4547605,1.6464442 4.383491,1.6464442 4.383491,1.6464442 4.367177,1.645641 4.3591774,1.6439752 4.351664,1.6407685 4.351664,1.6407685 4.3449552,1.6368469 4.3388751,1.6320083 4.3335462,1.6263531 4.3290506,1.6200146 4.3254908,1.6131073 4.3229162,1.6057752 4.3213806,1.5981584 4.3208428,1.5904057 4.3208428,1.5904057 4.3214632,1.5825475 4.3231599,1.5748507 4.32592,1.5674675 4.3296886,1.5605446 4.3344034,1.5542278 4.3399663,1.548644 4.3462537,1.5438909 4.3531727,1.5401147 4.3531727,1.5401147 4.3595584,1.537612 4.366266,1.5361767 4.3799664,1.5355168 4.4547605,1.5355168z" transform="matrix(1,0,0,-1,9.8905413,1.9242165)" fill="rgb(104,104,104)" fill-rule="nonzero" shaper:cutDepth="0.0000762" stroke-linecap="round" stroke-linejoin="round" /><path d="M4.6346584,1.4947091 L4.6346584,1.4947091 4.6177439,1.4962541 4.6094469,1.4980806 4.601333,1.5006061 4.5935157,1.5039315 4.5860647,1.5080158 4.5790727,1.5128422 4.5726092,1.5183568 4.566716,1.5244773 4.5614845,1.5311717 4.5570022,1.5383892 4.5533247,1.5460483 4.5504721,1.5540511 4.5484772,1.5623104 4.5472537,1.5707179 4.5467211,1.579198 4.5467211,1.579198 4.5471355,1.5890837 4.5487936,1.5988374 4.5516719,1.6083029 4.5558129,1.6172876 4.5611857,1.6255961 4.5675295,1.6331884 4.5747486,1.6399542 4.5825714,1.6460131 4.5825714,1.6460131 4.5748007,1.6539138 4.5675784,1.6623168 4.5611583,1.6713495 4.5557574,1.6810234 4.5515736,1.6912838 4.5487717,1.702003 4.5471406,1.7129628 4.5467211,1.724036 4.5467211,1.724036 4.5478812,1.7398091 4.5492933,1.7475949 4.5513072,1.7552459 4.5538499,1.7627389 4.5569937,1.7699993 4.5607375,1.7769698 4.5650484,1.7836043 4.5698758,1.7898732 4.5751815,1.7957427 4.5809481,1.80116 4.5871725,1.8060445 4.5937672,1.8104159 4.6007072,1.8142162 4.6153323,1.8202354 4.6153323,1.8202354 4.6247871,1.8228561 4.6344731,1.8244047 4.6540724,1.8251927 4.7458733,1.8251927 4.7458733,1.8251927 4.7513369,1.8252602 4.7567443,1.8245328 4.76191,1.8227571 4.7663786,1.8196315 4.7695322,1.8151826 4.7712995,1.8100178 4.7719176,1.8045936 4.7717655,1.7991334 4.7717372,1.5197828 4.7717372,1.5197828 4.7716602,1.5145764 4.7708898,1.509425 4.768989,1.5045832 4.7659167,1.5003837 4.7616722,1.4973761 4.7567939,1.4955629 4.7516466,1.4947832 4.7464392,1.4947092 4.6346584,1.4947091z M4.7305481,1.6642616 L4.7305481,1.7843851 4.6545593,1.7843851 4.6545593,1.7843851 4.6449721,1.7841475 4.635426,1.7832229 4.6260831,1.7810526 4.6172721,1.7772725 4.6172721,1.7772725 4.6108054,1.7727458 4.605015,1.7673811 4.5999024,1.7613676 4.5956426,1.7547215 4.59218,1.7476279 4.5896506,1.7401504 4.5880906,1.7324127 4.5875286,1.7245389 4.5875286,1.7245389 4.588287,1.7152647 4.5904754,1.7062226 4.5939012,1.6975709 4.5986619,1.6895779 4.6044419,1.6822839 4.6113686,1.6760752 4.6191512,1.670975 4.6276895,1.667279 4.6276895,1.667279 4.6331092,1.6655409 4.6387222,1.6645943 4.6500997,1.6642616 4.7305481,1.6642616z M4.727072,1.5355168 L4.727072,1.623454 4.6381788,1.623454 4.6381788,1.623454 4.625197,1.6228238 4.6188087,1.6215809 4.6128178,1.6190715 4.6128178,1.6190715 4.6074089,1.6159891 4.6024251,1.612259 4.5980503,1.6078302 4.5943788,1.6028027 4.5914189,1.5973261 4.5892163,1.5915037 4.5879459,1.5854095 4.5875286,1.579198 4.5875286,1.579198 4.5882118,1.5718832 4.5899694,1.5647503 4.5930237,1.5580697 4.5971047,1.551961 4.6021791,1.5466488 4.6080911,1.5422887 4.6146865,1.5390545 4.6217265,1.5369536 4.6217265,1.5369536 4.6260061,1.5359605 4.6303849,1.5355749 4.6391746,1.5355168 4.727072,1.5355168z" transform="matrix(1,0,0,-1,9.8905413,1.9242165)" fill="rgb(104,104,104)" fill-rule="nonzero" shaper:cutDepth="0.0000762" stroke-linecap="round" stroke-linejoin="round" /><path d="M-2.5479627,-0.4378006 L-2.4528627,-0.1205956 -2.3570907,-0.4405448 -2.3570907,-0.4405448 -2.3536387,-0.4506837 -2.3511023,-0.4554121 -2.3479181,-0.4597239 -2.3439515,-0.4633291 -2.3392677,-0.4659302 -2.3340899,-0.4673172 -2.3287351,-0.4675646 -2.3287351,-0.4675646 -2.3229786,-0.4670274 -2.317359,-0.4656715 -2.3120911,-0.4632925 -2.3073225,-0.4600248 -2.3032443,-0.4559276 -2.3001481,-0.4510483 -2.2982502,-0.4455894 -2.2975342,-0.4398533 -2.2975342,-0.4398533 -2.2986231,-0.4305384 -2.3011264,-0.4214817 -2.4188104,-0.0283708 -2.4188104,-0.0283708 -2.4232005,-0.0166091 -2.4260857,-0.0110375 -2.4298075,-0.0059739 -2.4347077,-0.0020848 -2.4404684,0.0004086 -2.4466483,0.0015002 -2.452923,0.0016809 -2.452923,0.0016809 -2.4596059,0.0014853 -2.4661427,0.0000903 -2.4722004,-0.0027155 -2.4771713,-0.0071698 -2.4809246,-0.0127011 -2.483898,-0.0186926 -2.4884346,-0.0312648 -2.6053884,-0.4242281 -2.6053884,-0.4242281 -2.6072766,-0.4319628 -2.6083118,-0.4398533 -2.6083118,-0.4398533 -2.6075898,-0.4454136 -2.605895,-0.4507579 -2.6030948,-0.4556149 -2.5994054,-0.4598375 -2.5950338,-0.4633491 -2.5901073,-0.4660255 -2.5847318,-0.4676186 -2.5791636,-0.4682831 -2.5791636,-0.4682831 -2.5732005,-0.4680207 -2.5674536,-0.4664011 -2.562296,-0.4634111 -2.5579692,-0.4592908 -2.5545303,-0.4544176 -2.5518152,-0.4490908 -2.5479627,-0.4378006z" transform="matrix(1,0,0,-1,9.8905413,1.9242165)" fill="rgb(104,104,104)" fill-rule="nonzero" shaper:cutDepth="0.0000762" stroke-linecap="round" stroke-linejoin="round" /><path d="M-2.7365025,-0.0307516 L-2.7365025,-0.0307516 -2.7362362,-0.0202287 -2.7354545,-0.0150246 -2.733834,-0.0100194 -2.733834,-0.0100194 -2.7294457,-0.0050617 -2.7238267,-0.0015275 -2.7176169,0.0007819 -2.7110491,0.0016809 -2.7110491,0.0016809 -2.7037224,0.0006221 -2.6968988,-0.0022227 -2.6909671,-0.0066686 -2.6868273,-0.0127906 -2.6868273,-0.0127906 -2.6853651,-0.0170834 -2.6849064,-0.021599 -2.6847745,-0.0306815 -2.6847746,-0.4366716 -2.6847746,-0.4366716 -2.6851204,-0.4479604 -2.685977,-0.453543 -2.6881616,-0.458738 -2.6881616,-0.458738 -2.6927438,-0.4635552 -2.6982254,-0.4673089 -2.7044509,-0.4696338 -2.7110491,-0.4704384 -2.7110491,-0.4704384 -2.7168571,-0.4700484 -2.7224794,-0.4685528 -2.7274366,-0.4655168 -2.7312884,-0.4611547 -2.7339038,-0.4559628 -2.7354574,-0.4503458 -2.7365025,-0.4387654 -2.7365025,-0.0307516z" transform="matrix(1,0,0,-1,9.8905413,1.9242165)" fill="rgb(104,104,104)" fill-rule="nonzero" shaper:cutDepth="0.0000762" stroke-linecap="round" stroke-linejoin="round" /><path d="M-2.9514194,-0.4704384 L-2.9514194,-0.4704384 -2.9678966,-0.4698917 -2.9842607,-0.467904 -3.0003477,-0.464299 -3.0159783,-0.4590624 -3.0309772,-0.4522215 -3.0450924,-0.4437062 -3.0582796,-0.4338147 -3.070373,-0.4226106 -3.070373,-0.4226106 -3.0872208,-0.4036595 -3.094792,-0.3934882 -3.1017412,-0.3828675 -3.1081146,-0.3718993 -3.1138297,-0.3605811 -3.1188369,-0.3489273 -3.1231658,-0.3370018 -3.1268335,-0.3248596 -3.1298373,-0.3125403 -3.1341319,-0.2875422 -3.1364927,-0.2622968 -3.1371881,-0.2369446 -3.1371881,-0.2369446 -3.136979,-0.2186462 -3.1360736,-0.20037 -3.1342371,-0.1821627 -3.1312871,-0.1641035 -3.1269178,-0.1463344 -3.1210628,-0.1289991 -3.1140198,-0.1121094 -3.1056793,-0.095822 -3.1056793,-0.095822 -3.0934553,-0.0751768 -3.0866243,-0.0653119 -3.0792878,-0.0558156 -3.0713164,-0.0468497 -3.0627674,-0.0384282 -3.0536695,-0.0306067 -3.0439605,-0.023556 -3.0336668,-0.0173932 -3.0229249,-0.0120461 -3.0117801,-0.0076023 -3.0003269,-0.0040256 -2.9886199,-0.0013969 -2.976746,0.0003336 -2.9647957,0.0014044 -2.9527996,0.0016809 -2.8526849,0.0016809 -2.8526849,0.0016809 -2.8442862,0.0014154 -2.8359834,0.0001101 -2.828215,-0.003065 -2.8247717,-0.005505 -2.8219268,-0.0085882 -2.8198161,-0.0122358 -2.8183017,-0.0161663 -2.8165382,-0.0243804 -2.8159731,-0.032763 -2.8161469,-0.0411658 -2.816147,-0.4336952 -2.816147,-0.4336952 -2.8162574,-0.4413795 -2.8175408,-0.4489529 -2.8205045,-0.4560376 -2.8252453,-0.4620741 -2.8315617,-0.4664341 -2.8388035,-0.4690024 -2.846397,-0.4701635 -2.8540768,-0.4704383 -2.9514194,-0.4704384z M-2.8744434,-0.4121417 L-2.8744434,-0.0566156 -2.9528563,-0.0566156 -2.9528563,-0.0566156 -2.9712873,-0.0573904 -2.9804151,-0.0586892 -2.9894152,-0.0607289 -2.9981211,-0.0637599 -3.0064037,-0.0678216 -3.0140743,-0.0729412 -3.021211,-0.0787846 -3.021211,-0.0787846 -3.0310613,-0.0881325 -3.0400367,-0.0983252 -3.0480786,-0.109267 -3.0551746,-0.1208479 -3.0614209,-0.1329049 -3.0666813,-0.1454272 -3.0711818,-0.158239 -3.0746836,-0.1713611 -3.0746836,-0.1713611 -3.0775689,-0.1841406 -3.0787228,-0.1971901 -3.0788916,-0.2233968 -3.0788916,-0.2233968 -3.0784456,-0.274047 -3.0776594,-0.2866858 -3.0755252,-0.299162 -3.0720458,-0.3113406 -3.0674992,-0.3231577 -3.0674992,-0.3231577 -3.0620275,-0.3354014 -3.055751,-0.3472514 -3.0486123,-0.3586047 -3.0406336,-0.3693831 -3.0317814,-0.3794571 -3.0220808,-0.3887132 -3.011477,-0.396927 -2.999863,-0.4036232 -2.999863,-0.4036232 -2.9889238,-0.408357 -2.983185,-0.4099949 -2.9773115,-0.4110253 -2.9654314,-0.4120046 -2.9535119,-0.4121417 -2.8744434,-0.4121417z" transform="matrix(1,0,0,-1,9.8905413,1.9242165)" fill="rgb(104,104,104)" fill-rule="nonzero" shaper:cutDepth="0.0000762" stroke-linecap="round" stroke-linejoin="round" /><path d="M-3.2685604,-0.2930857 L-3.4317495,-0.2930857 -3.4317495,-0.2930857 -3.4384716,-0.2929274 -3.4451321,-0.2920609 -3.4516006,-0.2902181 -3.4575768,-0.2871575 -3.4625675,-0.2826598 -3.4658998,-0.276835 -3.4676216,-0.2703424 -3.4679795,-0.2636296 -3.4679795,-0.2636296 -3.4676684,-0.2566279 -3.4656772,-0.2499144 -3.4617313,-0.2441307 -3.4561852,-0.2398692 -3.4497077,-0.2371818 -3.4428739,-0.2356232 -3.4288897,-0.2347892 -3.2685604,-0.2347892 -3.2685604,-0.0566156 -3.4948698,-0.0566156 -3.4948698,-0.0566156 -3.5046034,-0.0565722 -3.5094471,-0.0560845 -3.5140625,-0.0545629 -3.5140625,-0.0545629 -3.5219037,-0.0503692 -3.525286,-0.0474789 -3.5281136,-0.0440158 -3.5302976,-0.0401204 -3.5318022,-0.0359352 -3.5332551,-0.0271594 -3.5332551,-0.0271594 -3.5328955,-0.0198474 -3.5320138,-0.0162863 -3.5305527,-0.0129193 -3.5285465,-0.0098485 -3.5260649,-0.0071448 -3.5199942,-0.0030732 -3.5131147,-0.0005517 -3.5059371,0.0009036 -3.4913189,0.0016809 -3.2475203,0.0016809 -3.2475203,0.0016809 -3.2395039,0.0016002 -3.2315604,0.0005725 -3.2239361,-0.0018983 -3.2204506,-0.0038922 -3.2173905,-0.0064901 -3.2149245,-0.0096607 -3.2130998,-0.0132343 -3.2109745,-0.0209678 -3.2101697,-0.028934 -3.2102639,-0.0369514 -3.210264,-0.4325662 -3.210264,-0.4325662 -3.2103444,-0.4406058 -3.2113869,-0.4485693 -3.2138361,-0.4562256 -3.2158243,-0.4597294 -3.2184321,-0.4627945 -3.2216173,-0.4652534 -3.2251825,-0.4671326 -3.2328725,-0.4694573 -3.2408586,-0.4703565 -3.2488962,-0.4704383 -3.494254,-0.4704384 -3.494254,-0.4704384 -3.5074624,-0.4694093 -3.5138561,-0.4676691 -3.5197929,-0.46472 -3.5247674,-0.4603515 -3.5282144,-0.4546995 -3.5299938,-0.4483178 -3.5303814,-0.4417007 -3.5303814,-0.4417007 -3.5299791,-0.4346724 -3.5279488,-0.4279353 -3.5240904,-0.4220637 -3.5186053,-0.4176547 -3.5121906,-0.4147691 -3.5053516,-0.4130718 -3.4983608,-0.4122831 -3.4913189,-0.4121417 -3.2685604,-0.4121417 -3.2685604,-0.2930857z" transform="matrix(1,0,0,-1,9.8905413,1.9242165)" fill="rgb(104,104,104)" fill-rule="nonzero" shaper:cutDepth="0.0000762" stroke-linecap="round" stroke-linejoin="round" /><path d="M-3.7685963,-0.477007 L-3.7685963,-0.477007 -3.7813189,-0.4763439 -3.7939185,-0.4744518 -3.8062971,-0.4714405 -3.8183747,-0.467383 -3.8300968,-0.4623922 -3.8413843,-0.456483 -3.8521596,-0.4496855 -3.8624044,-0.4421112 -3.8624044,-0.4421112 -3.8727356,-0.4326122 -3.8820873,-0.4221398 -3.8904441,-0.4108681 -3.8979514,-0.3990026 -3.9044302,-0.3865537 -3.9101565,-0.3737366 -3.9150077,-0.3605641 -3.9191346,-0.3471472 -3.9253303,-0.3197699 -3.9293094,-0.2919796 -3.9313752,-0.263983 -3.9319907,-0.2359183 -3.9319907,-0.2359183 -3.9313633,-0.2094082 -3.9293807,-0.1829706 -3.9256652,-0.1567112 -3.9230657,-0.1437105 -3.9198799,-0.1308396 -3.9161095,-0.1181235 -3.9117402,-0.1055998 -3.9066726,-0.0933482 -3.9008266,-0.0814458 -3.8941997,-0.0699482 -3.8867492,-0.0589726 -3.8784037,-0.0486835 -3.8694862,-0.0388598 -3.8694862,-0.0388598 -3.859051,-0.0299567 -3.8477866,-0.0221294 -3.8358939,-0.0152934 -3.8234159,-0.0095971 -3.8105217,-0.0049148 -3.7972596,-0.001415 -3.7837207,0.0007916 -3.7700332,0.0016809 -3.7700332,0.0016809 -3.7529166,0.0002697 -3.7360741,-0.0030989 -3.7197327,-0.0083851 -3.7040168,-0.0153161 -3.6890302,-0.0237085 -3.6749367,-0.0335241 -3.6619298,-0.0447429 -3.6503612,-0.0574366 -3.6503612,-0.0574366 -3.6436063,-0.0675982 -3.6373903,-0.0780808 -3.631961,-0.0890069 -3.6271619,-0.1002256 -3.6191478,-0.123258 -3.6132501,-0.1469203 -3.6091444,-0.1709647 -3.6063577,-0.1951943 -3.6048788,-0.2195385 -3.6043809,-0.2439238 -3.6043809,-0.2439238 -3.6050625,-0.2687088 -3.6070118,-0.2934244 -3.610634,-0.3179529 -3.6159661,-0.342166 -3.6232706,-0.3658604 -3.6278147,-0.3773952 -3.6330159,-0.3886501 -3.6388614,-0.3995949 -3.6454065,-0.4101297 -3.6527554,-0.4201024 -3.6606247,-0.4296924 -3.6606247,-0.4296924 -3.6717857,-0.4398312 -3.6838191,-0.4489176 -3.6966829,-0.4567845 -3.7101605,-0.4635476 -3.7242012,-0.469044 -3.7386634,-0.4733119 -3.7535022,-0.4759906 -3.7685455,-0.4770069 -3.7685963,-0.477007z M-3.8736942,-0.2395105 L-3.8736942,-0.2395105 -3.8733286,-0.2603944 -3.8718799,-0.2812236 -3.8691519,-0.3019361 -3.8648759,-0.322372 -3.8587268,-0.342337 -3.854863,-0.3520381 -3.8503451,-0.3614527 -3.8451769,-0.3705402 -3.8393227,-0.379198 -3.8326629,-0.3872261 -3.8254559,-0.3947967 -3.8254559,-0.3947967 -3.8129159,-0.4042866 -3.8061339,-0.4082565 -3.7990229,-0.4116576 -3.7916895,-0.414546 -3.7841481,-0.4167324 -3.7764106,-0.418055 -3.7685696,-0.4187091 -3.7685696,-0.4187091 -3.7596273,-0.417987 -3.7508272,-0.4162379 -3.7422556,-0.4135757 -3.7339608,-0.4101527 -3.725985,-0.4060481 -3.7183669,-0.4013046 -3.7112073,-0.3958967 -3.704655,-0.3897676 -3.704655,-0.3897676 -3.6983062,-0.382305 -3.692511,-0.3744262 -3.6874908,-0.3660101 -3.6831159,-0.3572431 -3.6760517,-0.3389894 -3.670803,-0.3201229 -3.6670296,-0.3009123 -3.6645318,-0.2814892 -3.6631642,-0.2619593 -3.6626774,-0.2423842 -3.6626774,-0.2423842 -3.6630106,-0.223365 -3.6639824,-0.204368 -3.6659134,-0.1854446 -3.668869,-0.1666524 -3.6731023,-0.1481092 -3.6789806,-0.1300211 -3.6826175,-0.1212278 -3.6868018,-0.1126809 -3.6968547,-0.0965404 -3.6968547,-0.0965404 -3.7035209,-0.088272 -3.7110276,-0.0807608 -3.71928,-0.0740739 -3.7282061,-0.0683206 -3.7376899,-0.0635382 -3.7476573,-0.0598763 -3.7580178,-0.0575396 -3.7685963,-0.0566156 -3.7685963,-0.0566156 -3.7778587,-0.0573322 -3.7869502,-0.0592665 -3.7957938,-0.0621084 -3.804289,-0.0658801 -3.8124472,-0.0703263 -3.8201288,-0.0755564 -3.8273554,-0.0813974 -3.8339746,-0.0879191 -3.8339746,-0.0879191 -3.8400954,-0.0958274 -3.8456774,-0.104103 -3.8505068,-0.1128595 -3.8547513,-0.1219147 -3.861639,-0.1406662 -3.8666139,-0.1600226 -3.8700618,-0.1797066 -3.8722171,-0.1995751 -3.8732946,-0.2195299 -3.8736942,-0.2395105z" transform="matrix(1,0,0,-1,9.8905413,1.9242165)" fill="rgb(104,104,104)" fill-rule="nonzero" shaper:cutDepth="0.0000762" stroke-linecap="round" stroke-linejoin="round" /><path d="M-4.5082841,-0.0513812 L-4.5082841,-0.0513812 -4.5110553,-0.0478916 -4.5110553,-0.0478916 -4.5141942,-0.0437009 -4.5167294,-0.0391213 -4.5182583,-0.0341142 -4.5187529,-0.0289042 -4.5187529,-0.0289042 -4.5181715,-0.0232298 -4.5164295,-0.0178008 -4.5136142,-0.0128422 -4.5098142,-0.0085893 -4.5052465,-0.0051766 -4.5000838,-0.0027511 -4.4945656,-0.0013184 -4.4888862,-0.0007823 -4.4888862,-0.0007823 -4.4806466,-0.0015956 -4.4766937,-0.0028891 -4.4731159,-0.0049705 -4.4669836,-0.0105251 -4.4617709,-0.0169569 -4.3297998,-0.1953775 -4.2669901,-0.1953775 -4.2669901,-0.0367044 -4.2669901,-0.0367044 -4.2660358,-0.0229406 -4.2644362,-0.0162327 -4.2617136,-0.0098823 -4.2574749,-0.0044603 -4.2517519,-0.0006151 -4.2451445,0.0013561 -4.2382524,0.0016809 -4.2382524,0.0016809 -4.2333939,0.0013207 -4.2286299,0.0003078 -4.2240874,-0.0014531 -4.219882,-0.0039091 -4.2161164,-0.0070018 -4.2130655,-0.0107954 -4.2107695,-0.015092 -4.2094121,-0.0197697 -4.2094121,-0.0197697 -4.2087109,-0.0295825 -4.2086935,-0.0394339 -4.2086936,-0.4295898 -4.2086936,-0.4295898 -4.2087144,-0.4382943 -4.2099871,-0.4469021 -4.2132023,-0.4549843 -4.2156482,-0.4585948 -4.2186419,-0.461763 -4.2221165,-0.4643974 -4.2259437,-0.4664822 -4.2342139,-0.4692007 -4.242834,-0.4703664 -4.2515403,-0.4704383 -4.3716774,-0.4704384 -4.3716774,-0.4704384 -4.3855774,-0.469763 -4.3993957,-0.4681468 -4.4130723,-0.465562 -4.4264481,-0.4617365 -4.4393953,-0.4566343 -4.4517827,-0.4502975 -4.4634375,-0.4426957 -4.4742033,-0.4338817 -4.4840282,-0.4240274 -4.4927227,-0.4131648 -4.5001141,-0.4013763 -4.5060528,-0.388793 -4.5106545,-0.3756621 -4.5138632,-0.3621216 -4.5157663,-0.3483382 -4.5165975,-0.3344475 -4.5165975,-0.3344475 -4.516053,-0.3222721 -4.5146812,-0.3101627 -4.5122869,-0.2982128 -4.5089051,-0.2865044 -4.5045672,-0.2751157 -4.499172,-0.2641879 -4.4926657,-0.2538836 -4.4853083,-0.244168 -4.4771242,-0.2351382 -4.4680726,-0.2269781 -4.4582858,-0.2197159 -4.4478877,-0.2133604 -4.4369321,-0.2080219 -4.4255595,-0.2036406 -4.4138764,-0.2001729 -4.4019948,-0.1974594 -4.5082841,-0.0513812z M-4.2669901,-0.4121417 L-4.2669901,-0.253674 -4.3688037,-0.253674 -4.3688037,-0.253674 -4.3804805,-0.2538336 -4.3921093,-0.2548215 -4.4035373,-0.2572011 -4.4142708,-0.2617822 -4.4142708,-0.2617822 -4.4238548,-0.2673845 -4.4325407,-0.2742967 -4.4401534,-0.2823756 -4.4465756,-0.2914306 -4.451661,-0.3012982 -4.4553391,-0.3117725 -4.4575327,-0.3226537 -4.4583011,-0.3337291 -4.4583011,-0.3337291 -4.4574148,-0.344955 -4.4549909,-0.3559505 -4.4510479,-0.3664978 -4.4456642,-0.3763878 -4.4389288,-0.3854117 -4.4309817,-0.3933886 -4.4219997,-0.4001787 -4.4121155,-0.4055733 -4.4121155,-0.4055733 -4.4029931,-0.4091487 -4.3934107,-0.411199 -4.3738388,-0.4121417 -4.2669901,-0.4121417z" transform="matrix(1,0,0,-1,9.8905413,1.9242165)" fill="rgb(104,104,104)" fill-rule="nonzero" shaper:cutDepth="0.0000762" stroke-linecap="round" stroke-linejoin="round" /><path d="M-4.6479699,-0.2930857 L-4.8111589,-0.2930857 -4.8111589,-0.2930857 -4.817881,-0.2929274 -4.8245415,-0.2920609 -4.8310101,-0.2902181 -4.8369863,-0.2871575 -4.8419769,-0.2826598 -4.8453092,-0.276835 -4.847031,-0.2703424 -4.8473889,-0.2636296 -4.8473889,-0.2636296 -4.8470779,-0.2566279 -4.8450867,-0.2499144 -4.8411407,-0.2441307 -4.8355947,-0.2398692 -4.8291171,-0.2371818 -4.8222834,-0.2356232 -4.8082992,-0.2347892 -4.6479699,-0.2347892 -4.6479699,-0.0566156 -4.8742792,-0.0566156 -4.8742792,-0.0566156 -4.8840129,-0.0565722 -4.8888566,-0.0560845 -4.8934719,-0.0545629 -4.8934719,-0.0545629 -4.9013131,-0.0503692 -4.9046955,-0.0474789 -4.907523,-0.0440158 -4.9097071,-0.0401204 -4.9112116,-0.0359352 -4.9126646,-0.0271594 -4.9126646,-0.0271594 -4.912305,-0.0198474 -4.9114232,-0.0162863 -4.9099621,-0.0129193 -4.907956,-0.0098485 -4.9054743,-0.0071448 -4.8994037,-0.0030732 -4.8925241,-0.0005517 -4.8853465,0.0009036 -4.8707283,0.0016809 -4.6269298,0.0016809 -4.6269298,0.0016809 -4.6189134,0.0016002 -4.6109698,0.0005725 -4.6033455,-0.0018983 -4.5998601,-0.0038922 -4.5968,-0.0064901 -4.5943339,-0.0096607 -4.5925092,-0.0132343 -4.590384,-0.0209678 -4.5895792,-0.028934 -4.5896733,-0.0369514 -4.5896734,-0.4325662 -4.5896734,-0.4325662 -4.5897538,-0.4406058 -4.5907964,-0.4485693 -4.5932455,-0.4562256 -4.5952337,-0.4597294 -4.5978415,-0.4627945 -4.6010267,-0.4652534 -4.6045919,-0.4671326 -4.6122819,-0.4694573 -4.620268,-0.4703565 -4.6283056,-0.4704383 -4.8736634,-0.4704384 -4.8736634,-0.4704384 -4.8868719,-0.4694093 -4.8932656,-0.4676691 -4.8992023,-0.46472 -4.9041768,-0.4603515 -4.9076238,-0.4546995 -4.9094032,-0.4483178 -4.9097908,-0.4417007 -4.9097908,-0.4417007 -4.9093886,-0.4346724 -4.9073582,-0.4279353 -4.9034998,-0.4220637 -4.8980148,-0.4176547 -4.8916001,-0.4147691 -4.8847611,-0.4130718 -4.8777703,-0.4122831 -4.8707283,-0.4121417 -4.6479699,-0.4121417 -4.6479699,-0.2930857z" transform="matrix(1,0,0,-1,9.8905413,1.9242165)" fill="rgb(104,104,104)" fill-rule="nonzero" shaper:cutDepth="0.0000762" stroke-linecap="round" stroke-linejoin="round" /><path d="M-5.1747934,-0.4704384 L-5.1747487,-0.4704383 -5.1747487,-0.4704383 -5.1557428,-0.469324 -5.1463066,-0.4680493 -5.1369683,-0.4661694 -5.1187357,-0.4606911 -5.1012901,-0.4530717 -5.0849657,-0.4432761 -5.0698721,-0.4316703 -5.0560624,-0.4185677 -5.0435237,-0.404239 -5.0435237,-0.404239 -5.0303912,-0.3860227 -5.0186348,-0.3668898 -5.0084779,-0.3468614 -4.9999285,-0.3260963 -4.9930404,-0.3047222 -4.9879693,-0.2828466 -4.9848568,-0.2606067 -4.9837904,-0.2381762 -4.9837904,-0.2381762 -4.9846742,-0.2155174 -4.9873567,-0.1930019 -4.99168,-0.1707415 -4.9978145,-0.148912 -5.0056403,-0.1276294 -5.0151237,-0.1070328 -5.0263672,-0.0873409 -5.0393157,-0.0687264 -5.0393157,-0.0687264 -5.0517911,-0.0538434 -5.0654624,-0.0400543 -5.080498,-0.0277653 -5.0968034,-0.0172175 -5.1054382,-0.0127725 -5.1143569,-0.008921 -5.1234963,-0.0056317 -5.1328218,-0.0029142 -5.1423089,-0.0008042 -5.1519148,0.0006223 -5.1713038,0.0016809 -5.1713038,0.0016809 -5.1873842,0.0007805 -5.2033,-0.0016792 -5.2188709,-0.0057914 -5.2338536,-0.0116989 -5.2481438,-0.0191233 -5.261506,-0.0281162 -5.2739233,-0.0383705 -5.2854336,-0.0496364 -5.2854336,-0.0496364 -5.2929697,-0.0579797 -5.3000377,-0.0667209 -5.3058284,-0.0763692 -5.3075027,-0.0817132 -5.3082184,-0.0873033 -5.3082184,-0.0873033 -5.3077165,-0.0930462 -5.3063456,-0.0986413 -5.3039149,-0.1038677 -5.3004636,-0.1084802 -5.2961372,-0.1122866 -5.2910656,-0.1150198 -5.285523,-0.1165925 -5.2797886,-0.11717 -5.2797886,-0.11717 -5.2719818,-0.1165103 -5.2681969,-0.1154759 -5.2646339,-0.1138236 -5.2585228,-0.1089295 -5.2535142,-0.1029038 -5.2535142,-0.1029038 -5.2460234,-0.0937005 -5.2379598,-0.084998 -5.2291748,-0.077019 -5.2196124,-0.0699967 -5.2092595,-0.0641997 -5.1982131,-0.0598793 -5.1866368,-0.0572718 -5.1747934,-0.0566156 -5.1747934,-0.0566156 -5.1631802,-0.0571398 -5.1517025,-0.0589859 -5.1405225,-0.0621675 -5.1298242,-0.0667179 -5.1197718,-0.0725521 -5.1104709,-0.0795317 -5.1018208,-0.0872942 -5.0939173,-0.095822 -5.0939173,-0.095822 -5.0822824,-0.1107968 -5.0720863,-0.1267865 -5.0633186,-0.1436015 -5.0560068,-0.1610993 -5.0501832,-0.1791469 -5.0457476,-0.1975849 -5.0431356,-0.2163678 -5.0420868,-0.2353024 -5.0420868,-0.2353024 -5.0428965,-0.2503714 -5.0445418,-0.2653693 -5.0471467,-0.280235 -5.0507459,-0.2948875 -5.0553613,-0.309256 -5.0610362,-0.3232366 -5.0678155,-0.3367185 -5.0756041,-0.349643 -5.0843811,-0.3619168 -5.0941436,-0.3734245 -5.1049373,-0.383965 -5.116839,-0.3932442 -5.1298256,-0.4009129 -5.1437575,-0.4067064 -5.1583601,-0.4105007 -5.1733565,-0.4121419 -5.1733565,-0.4121419 -5.1840551,-0.4114747 -5.1945791,-0.4094252 -5.2047644,-0.4060926 -5.2143968,-0.4013822 -5.2234156,-0.3955906 -5.2317522,-0.3888471 -5.2394001,-0.3813366 -5.2464324,-0.3732434 -5.2464324,-0.3732434 -5.2526868,-0.3654287 -5.2597632,-0.3583645 -5.2638478,-0.3554651 -5.2684366,-0.3534166 -5.2733282,-0.3524534 -5.2783518,-0.3522033 -5.2783518,-0.3522033 -5.2841453,-0.3528898 -5.2897058,-0.3546497 -5.2947845,-0.357518 -5.2991883,-0.361344 -5.3027908,-0.3659312 -5.3053888,-0.3711546 -5.3069449,-0.3767748 -5.3075,-0.3825831 -5.3075,-0.3825831 -5.3066478,-0.3901155 -5.3037613,-0.3971287 -5.2994623,-0.4033849 -5.2946707,-0.4092681 -5.2946707,-0.4092681 -5.2828943,-0.4220603 -5.270126,-0.4338532 -5.2563674,-0.4444905 -5.2415236,-0.4535278 -5.2257898,-0.4609345 -5.2092356,-0.4662235 -5.1921476,-0.4694331 -5.1747934,-0.4704384z" transform="matrix(1,0,0,-1,9.8905413,1.9242165)" fill="rgb(104,104,104)" fill-rule="nonzero" shaper:cutDepth="0.0000762" stroke-linecap="round" stroke-linejoin="round" /><path d="M-5.5486914,-0.477007 L-5.5486914,-0.477007 -5.5614139,-0.4763439 -5.5740136,-0.4744518 -5.5863922,-0.4714405 -5.5984698,-0.467383 -5.6101918,-0.4623922 -5.6214794,-0.456483 -5.6322547,-0.4496855 -5.6424994,-0.4421112 -5.6424994,-0.4421112 -5.6528307,-0.4326122 -5.6621823,-0.4221398 -5.6705392,-0.4108681 -5.6780464,-0.3990026 -5.6845252,-0.3865537 -5.6902516,-0.3737366 -5.6951027,-0.3605641 -5.6992296,-0.3471472 -5.7054254,-0.3197699 -5.7094044,-0.2919796 -5.7114702,-0.263983 -5.7120857,-0.2359183 -5.7120857,-0.2359183 -5.7114583,-0.2094082 -5.7094757,-0.1829706 -5.7057602,-0.1567112 -5.7031607,-0.1437105 -5.6999749,-0.1308396 -5.6962046,-0.1181235 -5.6918353,-0.1055998 -5.6867676,-0.0933482 -5.6809216,-0.0814458 -5.6742948,-0.0699482 -5.6668443,-0.0589726 -5.6584987,-0.0486835 -5.6495812,-0.0388598 -5.6495812,-0.0388598 -5.639146,-0.0299567 -5.6278817,-0.0221294 -5.6159889,-0.0152934 -5.6035109,-0.0095971 -5.5906168,-0.0049148 -5.5773546,-0.001415 -5.5638157,0.0007916 -5.5501283,0.0016809 -5.5501283,0.0016809 -5.5330116,0.0002697 -5.5161692,-0.0030989 -5.4998277,-0.0083851 -5.4841119,-0.0153161 -5.4691253,-0.0237085 -5.4550317,-0.0335241 -5.4420248,-0.0447429 -5.4304563,-0.0574366 -5.4304563,-0.0574366 -5.4237013,-0.0675982 -5.4174854,-0.0780808 -5.412056,-0.0890069 -5.4072569,-0.1002256 -5.3992429,-0.123258 -5.3933451,-0.1469203 -5.3892395,-0.1709647 -5.3864527,-0.1951943 -5.3849739,-0.2195385 -5.384476,-0.2439238 -5.384476,-0.2439238 -5.3851575,-0.2687088 -5.3871068,-0.2934244 -5.390729,-0.3179529 -5.3960611,-0.342166 -5.4033656,-0.3658604 -5.4079098,-0.3773952 -5.4131109,-0.3886501 -5.4189564,-0.3995949 -5.4255015,-0.4101297 -5.4328504,-0.4201024 -5.4407197,-0.4296924 -5.4407197,-0.4296924 -5.4518808,-0.4398312 -5.4639141,-0.4489176 -5.4767779,-0.4567845 -5.4902556,-0.4635476 -5.5042962,-0.469044 -5.5187584,-0.4733119 -5.5335972,-0.4759906 -5.5486406,-0.4770069 -5.5486914,-0.477007z M-5.6537892,-0.2395105 L-5.6537892,-0.2395105 -5.6534236,-0.2603944 -5.6519749,-0.2812236 -5.649247,-0.3019361 -5.644971,-0.322372 -5.6388218,-0.342337 -5.6349581,-0.3520381 -5.6304401,-0.3614527 -5.6252719,-0.3705402 -5.6194177,-0.379198 -5.612758,-0.3872261 -5.605551,-0.3947967 -5.605551,-0.3947967 -5.5930109,-0.4042866 -5.5862289,-0.4082565 -5.5791179,-0.4116576 -5.5717845,-0.414546 -5.5642432,-0.4167324 -5.5565056,-0.418055 -5.5486646,-0.4187091 -5.5486646,-0.4187091 -5.5397223,-0.417987 -5.5309222,-0.4162379 -5.5223506,-0.4135757 -5.5140559,-0.4101527 -5.5060801,-0.4060481 -5.498462,-0.4013046 -5.4913023,-0.3958967 -5.48475,-0.3897676 -5.48475,-0.3897676 -5.4784013,-0.382305 -5.472606,-0.3744262 -5.4675858,-0.3660101 -5.4632109,-0.3572431 -5.4561467,-0.3389894 -5.4508981,-0.3201229 -5.4471246,-0.3009123 -5.4446268,-0.2814892 -5.4432592,-0.2619593 -5.4427724,-0.2423842 -5.4427724,-0.2423842 -5.4431057,-0.223365 -5.4440775,-0.204368 -5.4460084,-0.1854446 -5.4489641,-0.1666524 -5.4531973,-0.1481092 -5.4590756,-0.1300211 -5.4627125,-0.1212278 -5.4668968,-0.1126809 -5.4769498,-0.0965404 -5.4769498,-0.0965404 -5.4836159,-0.088272 -5.4911226,-0.0807608 -5.4993751,-0.0740739 -5.5083012,-0.0683206 -5.5177849,-0.0635382 -5.5277523,-0.0598763 -5.5381129,-0.0575396 -5.5486914,-0.0566156 -5.5486914,-0.0566156 -5.5579538,-0.0573322 -5.5670452,-0.0592665 -5.5758889,-0.0621084 -5.584384,-0.0658801 -5.5925422,-0.0703263 -5.6002238,-0.0755564 -5.6074504,-0.0813974 -5.6140696,-0.0879191 -5.6140696,-0.0879191 -5.6201905,-0.0958274 -5.6257724,-0.104103 -5.6306019,-0.1128595 -5.6348463,-0.1219147 -5.6417341,-0.1406662 -5.6467089,-0.1600226 -5.6501569,-0.1797066 -5.6523121,-0.1995751 -5.6533896,-0.2195299 -5.6537892,-0.2395105z" transform="matrix(1,0,0,-1,9.8905413,1.9242165)" fill="rgb(104,104,104)" fill-rule="nonzero" shaper:cutDepth="0.0000762" stroke-linecap="round" stroke-linejoin="round" /><path d="M-6.0913207,-0.0513812 L-6.0913207,-0.0513812 -6.0940918,-0.0478916 -6.0940918,-0.0478916 -6.0972307,-0.0437009 -6.0997659,-0.0391213 -6.1012948,-0.0341142 -6.1017894,-0.0289042 -6.1017894,-0.0289042 -6.101208,-0.0232298 -6.0994661,-0.0178008 -6.0966508,-0.0128422 -6.0928507,-0.0085893 -6.088283,-0.0051766 -6.0831203,-0.0027511 -6.0776021,-0.0013184 -6.0719227,-0.0007823 -6.0719227,-0.0007823 -6.0636832,-0.0015956 -6.0597302,-0.0028891 -6.0561524,-0.0049705 -6.0500201,-0.0105251 -6.0448074,-0.0169569 -5.9128363,-0.1953775 -5.8500267,-0.1953775 -5.8500267,-0.0367044 -5.8500267,-0.0367044 -5.8490724,-0.0229406 -5.8474728,-0.0162327 -5.8447501,-0.0098823 -5.8405114,-0.0044603 -5.8347884,-0.0006151 -5.8281811,0.0013561 -5.821289,0.0016809 -5.821289,0.0016809 -5.8164304,0.0013207 -5.8116665,0.0003078 -5.8071239,-0.0014531 -5.8029186,-0.0039091 -5.7991529,-0.0070018 -5.796102,-0.0107954 -5.7938061,-0.015092 -5.7924486,-0.0197697 -5.7924486,-0.0197697 -5.7917475,-0.0295825 -5.7917301,-0.0394339 -5.7917302,-0.4295898 -5.7917302,-0.4295898 -5.7917509,-0.4382943 -5.7930237,-0.4469021 -5.7962388,-0.4549843 -5.7986848,-0.4585948 -5.8016785,-0.461763 -5.8051531,-0.4643974 -5.8089803,-0.4664822 -5.8172504,-0.4692007 -5.8258705,-0.4703664 -5.8345768,-0.4704383 -5.954714,-0.4704384 -5.954714,-0.4704384 -5.9686139,-0.469763 -5.9824323,-0.4681468 -5.9961089,-0.465562 -6.0094846,-0.4617365 -6.0224318,-0.4566343 -6.0348192,-0.4502975 -6.046474,-0.4426957 -6.0572399,-0.4338817 -6.0670648,-0.4240274 -6.0757592,-0.4131648 -6.0831506,-0.4013763 -6.0890893,-0.388793 -6.093691,-0.3756621 -6.0968998,-0.3621216 -6.0988029,-0.3483382 -6.0996341,-0.3344475 -6.0996341,-0.3344475 -6.0990895,-0.3222721 -6.0977178,-0.3101627 -6.0953234,-0.2982128 -6.0919417,-0.2865044 -6.0876038,-0.2751157 -6.0822085,-0.2641879 -6.0757023,-0.2538836 -6.0683449,-0.244168 -6.0601607,-0.2351382 -6.0511091,-0.2269781 -6.0413223,-0.2197159 -6.0309243,-0.2133604 -6.0199686,-0.2080219 -6.0085961,-0.2036406 -5.996913,-0.2001729 -5.9850314,-0.1974594 -6.0913207,-0.0513812z M-5.8500267,-0.4121417 L-5.8500267,-0.253674 -5.9518402,-0.253674 -5.9518402,-0.253674 -5.963517,-0.2538336 -5.9751459,-0.2548215 -5.9865738,-0.2572011 -5.9973073,-0.2617822 -5.9973073,-0.2617822 -6.0068913,-0.2673845 -6.0155772,-0.2742967 -6.0231899,-0.2823756 -6.0296122,-0.2914306 -6.0346976,-0.3012982 -6.0383757,-0.3117725 -6.0405693,-0.3226537 -6.0413376,-0.3337291 -6.0413376,-0.3337291 -6.0404513,-0.344955 -6.0380274,-0.3559505 -6.0340844,-0.3664978 -6.0287007,-0.3763878 -6.0219653,-0.3854117 -6.0140183,-0.3933886 -6.0050362,-0.4001787 -5.995152,-0.4055733 -5.995152,-0.4055733 -5.9860296,-0.4091487 -5.9764473,-0.411199 -5.9568753,-0.4121417 -5.8500267,-0.4121417z" transform="matrix(1,0,0,-1,9.8905413,1.9242165)" fill="rgb(104,104,104)" fill-rule="nonzero" shaper:cutDepth="0.0000762" stroke-linecap="round" stroke-linejoin="round" /><path d="M-6.3079824,-0.4704384 L-6.3079824,-0.4704384 -6.3244595,-0.4698917 -6.3408237,-0.467904 -6.3569107,-0.464299 -6.3725413,-0.4590624 -6.3875402,-0.4522215 -6.4016553,-0.4437062 -6.4148426,-0.4338147 -6.4269359,-0.4226106 -6.4269359,-0.4226106 -6.4437837,-0.4036595 -6.451355,-0.3934882 -6.4583042,-0.3828675 -6.4646775,-0.3718993 -6.4703926,-0.3605811 -6.4753998,-0.3489273 -6.4797288,-0.3370018 -6.4833964,-0.3248596 -6.4864002,-0.3125403 -6.4906949,-0.2875422 -6.4930557,-0.2622968 -6.4937511,-0.2369446 -6.4937511,-0.2369446 -6.493542,-0.2186462 -6.4926365,-0.20037 -6.4908001,-0.1821627 -6.48785,-0.1641035 -6.4834808,-0.1463344 -6.4776258,-0.1289991 -6.4705827,-0.1121094 -6.4622422,-0.095822 -6.4622422,-0.095822 -6.4500182,-0.0751768 -6.4431873,-0.0653119 -6.4358507,-0.0558156 -6.4278794,-0.0468497 -6.4193304,-0.0384282 -6.4102324,-0.0306067 -6.4005235,-0.023556 -6.3902298,-0.0173932 -6.3794879,-0.0120461 -6.368343,-0.0076023 -6.3568899,-0.0040256 -6.3451829,-0.0013969 -6.333309,0.0003336 -6.3213587,0.0014044 -6.3093625,0.0016809 -6.2092479,0.0016809 -6.2092479,0.0016809 -6.2008491,0.0014154 -6.1925464,0.0001101 -6.184778,-0.003065 -6.1813347,-0.005505 -6.1784897,-0.0085882 -6.1763791,-0.0122358 -6.1748647,-0.0161663 -6.1731012,-0.0243804 -6.172536,-0.032763 -6.1727098,-0.0411658 -6.1727099,-0.4336952 -6.1727099,-0.4336952 -6.1728204,-0.4413795 -6.1741037,-0.4489529 -6.1770675,-0.4560376 -6.1818083,-0.4620741 -6.1881247,-0.4664341 -6.1953665,-0.4690024 -6.20296,-0.4701635 -6.2106397,-0.4704383 -6.3079824,-0.4704384z M-6.2310064,-0.4121417 L-6.2310064,-0.0566156 -6.3094193,-0.0566156 -6.3094193,-0.0566156 -6.3278503,-0.0573904 -6.3369781,-0.0586892 -6.3459782,-0.0607289 -6.3546841,-0.0637599 -6.3629667,-0.0678216 -6.3706372,-0.0729412 -6.3777739,-0.0787846 -6.3777739,-0.0787846 -6.3876243,-0.0881325 -6.3965997,-0.0983252 -6.4046416,-0.109267 -6.4117375,-0.1208479 -6.4179839,-0.1329049 -6.4232442,-0.1454272 -6.4277447,-0.158239 -6.4312466,-0.1713611 -6.4312466,-0.1713611 -6.4341319,-0.1841406 -6.4352857,-0.1971901 -6.4354546,-0.2233968 -6.4354546,-0.2233968 -6.4350086,-0.274047 -6.4342224,-0.2866858 -6.4320881,-0.299162 -6.4286087,-0.3113406 -6.4240621,-0.3231577 -6.4240621,-0.3231577 -6.4185904,-0.3354014 -6.4123139,-0.3472514 -6.4051753,-0.3586047 -6.3971965,-0.3693831 -6.3883443,-0.3794571 -6.3786437,-0.3887132 -6.3680399,-0.396927 -6.3564259,-0.4036232 -6.3564259,-0.4036232 -6.3454867,-0.408357 -6.339748,-0.4099949 -6.3338745,-0.4110253 -6.3219944,-0.4120046 -6.3100749,-0.4121417 -6.2310064,-0.4121417z" transform="matrix(1,0,0,-1,9.8905413,1.9242165)" fill="rgb(104,104,104)" fill-rule="nonzero" shaper:cutDepth="0.0000762" stroke-linecap="round" stroke-linejoin="round" /><path d="M0.4345587,0.9082165 a0.7874,0.7874 0 1,0 1.5748,0 a0.7874,0.7874 0 1,0 -1.5748,0z M0.5107587,0.9082165 a0.7112,0.7112 0 1,1 1.4224,0 a0.7112,0.7112 0 1,1 -1.4224,0z" transform="matrix(1,0,0,-1,9.8905413,1.9242165)" fill="rgb(104,104,104)" fill-rule="nonzero" shaper:cutDepth="0.0000762" stroke-linecap="round" stroke-linejoin="round" /><path d="M-3.0579413,0.9082165 a0.7874,0.7874 0 1,0 1.5748,0 a0.7874,0.7874 0 1,0 -1.5748,0z M-2.9817413,0.9082165 a0.7112,0.7112 0 1,1 1.4224,0 a0.7112,0.7112 0 1,1 -1.4224,0z" transform="matrix(1,0,0,-1,9.8905413,1.9242165)" fill="rgb(104,104,104)" fill-rule="nonzero" shaper:cutDepth="0.0000762" stroke-linecap="round" stroke-linejoin="round" /><path d="M5.5096885,1.2206348 L5.568061,1.1716544 5.720707,1.3535707 5.6623344,1.4025511 5.5096885,1.2206348z" transform="matrix(1,0,0,-1,9.8905413,1.9242165)" fill="rgb(104,104,104)" fill-rule="nonzero" shaper:cutDepth="0.0000762" stroke-linecap="round" stroke-linejoin="round" /><path d="M4.8133564,1.1716544 L4.871729,1.2206348 4.7190831,1.4025511 4.6607105,1.3535707 4.8133564,1.1716544z" transform="matrix(1,0,0,-1,9.8905413,1.9242165)" fill="rgb(104,104,104)" fill-rule="nonzero" shaper:cutDepth="0.0000762" stroke-linecap="round" stroke-linejoin="round" /><path d="M-2.9055413,0.9082165 a0.635,0.635 0 1,1 1.27,0 a0.635,0.635 0 1,1 -1.27,0z" transform="matrix(1,0,0,-1,9.8905413,1.9242165)" fill="rgb(255,255,255)" stroke="rgb(0,0,0)" stroke-width="0.0010cm" stroke-linecap="round" stroke-linejoin="round" shaper:cutDepth="0.0015875" /><path d="M0.5869587,0.9082165 a0.635,0.635 0 1,1 1.27,0 a0.635,0.635 0 1,1 -1.27,0z" transform="matrix(1,0,0,-1,9.8905413,1.9242165)" fill="rgb(255,255,255)" stroke="rgb(0,0,0)" stroke-width="0.0010cm" stroke-linecap="round" stroke-linejoin="round" shaper:cutDepth="0.0015875" /><path d="M4.7144587,0.7812165 a0.47625,0.47625 0 1,1 0.9525,0 a0.47625,0.47625 0 1,1 -0.9525,0z" transform="matrix(1,0,0,-1,9.8905413,1.9242165)" fill="rgb(255,255,255)" stroke="rgb(0,0,0)" stroke-width="0.0010cm" stroke-linecap="round" stroke-linejoin="round" shaper:cutDepth="0.0015875" /><path d="M-9.4708063,0.0827165 a0.215265,0.215265 0 1,1 0.43053,0 a0.215265,0.215265 0 1,1 -0.43053,0z" transform="matrix(1,0,0,-1,9.8905413,1.9242165)" fill="rgb(255,255,255)" stroke="rgb(0,0,0)" stroke-width="0.0010cm" stroke-linecap="round" stroke-linejoin="round" shaper:cutDepth="0.0015875" /><path d="M-5.3433063,1.0352165 a0.215265,0.215265 0 1,1 0.43053,0 a0.215265,0.215265 0 1,1 -0.43053,0z" transform="matrix(1,0,0,-1,9.8905413,1.9242165)" fill="rgb(255,255,255)" stroke="rgb(0,0,0)" stroke-width="0.0010cm" stroke-linecap="round" stroke-linejoin="round" shaper:cutDepth="0.0015875" /><path d="M3.3561937,0.2732165 a0.215265,0.215265 0 1,1 0.43053,0 a0.215265,0.215265 0 1,1 -0.43053,0z" transform="matrix(1,0,0,-1,9.8905413,1.9242165)" fill="rgb(255,255,255)" stroke="rgb(0,0,0)" stroke-width="0.0010cm" stroke-linecap="round" stroke-linejoin="round" shaper:cutDepth="0.0015875" /></svg>