<?xml version="1.0" encoding="utf-8"?>
<!-- Generator: Fusion 360, Shaper Origin Export Add-In, Version 1.6.10  -->
<svg xmlns="http://www.w3.org/2000/svg" xmlns:xlink="http://www.w3.org/1999/xlink" xmlns:shaper="http://www.shapertools.com/namespaces/shaper" shaper:fusionaddin="version:1.6.10" width="1.5494cm" height="0.9144cm" version="1.1" x="0cm" y="0cm" viewBox="0 0 1.5494 0.9144" enable-background="new 0 0 1.5494 0.9144" xml:space="preserve"><path d="M0.7747,-0.4064 L0.7747,0.4064 A0.0508,0.0508 0 0,1 0.7239,0.4572 L-0.7239,0.4572 A0.0508,0.0508 90 0,1 -0.7747,0.4064 L-0.7747,-0.4064 A0.0508,0.0508 180 0,1 -0.7239,-0.4572 L0.7239,-0.4572 A0.0508,0.0508 270 0,1 0.7747,-0.4064z" transform="matrix(1,0,0,-1,0.7747,0.4572)" fill="rgb(0,0,0)" shaper:cutDepth="0.0015875" stroke-linecap="round" stroke-linejoin="round" /><path d="M-0.2499359,0.0583418 L-0.1193846,0.0583418 -0.1193846,0.0583418 -0.1086785,0.0575219 -0.1035037,0.0560477 -0.0987227,0.0535991 -0.0947302,0.050001 -0.0920644,0.0453412 -0.0906869,0.0401471 -0.0904006,0.0347768 -0.0904006,0.0347768 -0.0906494,0.0291755 -0.0922424,0.0238047 -0.0953992,0.0191777 -0.099836,0.0157685 -0.1050181,0.0136186 -0.1104851,0.0123717 -0.1216724,0.0117045 -0.2499359,0.0117045 -0.2499359,-0.1308344 -0.0688884,-0.1308344 -0.0688884,-0.1308344 -0.0611015,-0.130869 -0.0572265,-0.1312592 -0.0535342,-0.1324765 -0.0535342,-0.1324765 -0.0472612,-0.1358315 -0.0445554,-0.1381437 -0.0422933,-0.1409142 -0.0393424,-0.1473787 -0.0381801,-0.1543993 -0.0381801,-0.1543993 -0.0384678,-0.1602489 -0.040342,-0.1657914 -0.0439323,-0.170411 -0.0487888,-0.1736683 -0.0542925,-0.1756855 -0.0600345,-0.1768497 -0.0717291,-0.1774716 -0.2667679,-0.1774716 -0.2667679,-0.1774716 -0.273181,-0.177407 -0.2795359,-0.1765849 -0.2856353,-0.1746082 -0.2908718,-0.1709348 -0.2928446,-0.1683983 -0.2943043,-0.1655394 -0.2960046,-0.1593526 -0.2966484,-0.1529796 -0.2965731,-0.1465657 -0.296573,0.1699261 -0.296573,0.1699261 -0.2965087,0.1763578 -0.2956747,0.1827286 -0.2937153,0.1888537 -0.2921248,0.1916567 -0.2900385,0.1941088 -0.2846382,0.1975792 -0.2784862,0.199439 -0.2720973,0.2001584 -0.2656673,0.2002238 -0.069381,0.2002239 -0.069381,0.2002239 -0.0588142,0.1994006 -0.0536993,0.1980085 -0.0489499,0.1956492 -0.0449703,0.1921543 -0.0422127,0.1876328 -0.0407892,0.1825274 -0.0404791,0.1772337 -0.0404791,0.1772337 -0.0408009,0.1716111 -0.0424252,0.1662214 -0.0455119,0.1615241 -0.0498999,0.157997 -0.0550317,0.1556884 -0.0605029,0.1543306 -0.0717291,0.1535865 -0.2499359,0.1535865 -0.2499359,0.0583418z" transform="matrix(1,0,0,-1,0.7747,0.4572)" fill="rgb(104,104,104)" fill-rule="nonzero" shaper:cutDepth="0.0000762" stroke-linecap="round" stroke-linejoin="round" /><path d="M0.1704556,-0.1486518 L0.1704556,-0.1486518 0.1702802,-0.1571314 0.1696322,-0.1613168 0.1682387,-0.1653196 0.1682387,-0.1653196 0.1645179,-0.1705207 0.1594698,-0.1744454 0.1534886,-0.1766934 0.147137,-0.1774716 0.147137,-0.1774716 0.1397555,-0.1763414 0.1330652,-0.1730509 0.1301079,-0.170767 0.1276337,-0.1679793 0.1256868,-0.1647951 0.1243932,-0.1612964 0.1243932,-0.1612964 0.1238183,-0.1458603 0.1238183,0.1535865 0.0472119,0.1535867 0.0472119,0.1535867 0.0362824,0.154636 0.0309968,0.156164 0.0261271,0.1586967 0.0220231,0.1623565 0.0192254,0.1670755 0.0176196,0.1723301 0.0171605,0.1778085 0.0171605,0.1778085 0.0176274,0.1834688 0.0195221,0.188813 0.023102,0.193218 0.0278267,0.1963563 0.0331547,0.1983281 0.0387089,0.1995394 0.0500385,0.2002238 0.2482116,0.2002239 0.2482116,0.2002239 0.2590058,0.1991643 0.2641991,0.1975865 0.2690034,0.1950557 0.2729703,0.1913626 0.2757528,0.1867053 0.2772405,0.1814871 0.2777704,0.1760842 0.2777704,0.1760842 0.2772547,0.1706176 0.2755195,0.1654158 0.2722558,0.1610006 0.2678753,0.1577106 0.2628048,0.15559 0.2574571,0.154349 0.2465056,0.1535865 0.1704556,0.1535865 0.1704556,-0.1486518z" transform="matrix(1,0,0,-1,0.7747,0.4572)" fill="rgb(104,104,104)" fill-rule="nonzero" shaper:cutDepth="0.0000762" stroke-linecap="round" stroke-linejoin="round" /></svg>