<?xml version="1.0" encoding="utf-8"?>
<!-- Generator: Fusion 360, Shaper Origin Export Add-In, Version 1.6.10  -->
<svg xmlns="http://www.w3.org/2000/svg" xmlns:xlink="http://www.w3.org/1999/xlink" xmlns:shaper="http://www.shapertools.com/namespaces/shaper" shaper:fusionaddin="version:1.6.10" width="1.5494cm" height="0.9144cm" version="1.1" x="0cm" y="0cm" viewBox="0 0 1.5494 0.9144" enable-background="new 0 0 1.5494 0.9144" xml:space="preserve"><path d="M0.3661833,-0.4064 L0.3661833,0.4064 A0.0508,0.0508 0 0,1 0.3153833,0.4572 L-1.1324167,0.4572 A0.0508,0.0508 90 0,1 -1.1832167,0.4064 L-1.1832167,-0.4064 A0.0508,0.0508 180 0,1 -1.1324167,-0.4572 L0.3153833,-0.4572 A0.0508,0.0508 270 0,1 0.3661833,-0.4064z" transform="matrix(1,0,0,-1,1.1832167,0.4572)" fill="rgb(0,0,0)" shaper:cutDepth="0.0015875" stroke-linecap="round" stroke-linejoin="round" /><path d="M-0.5355167,0.1232835 L-0.45085,0.1232835 -0.45085,-0.1778 -0.3661833,-0.1778 -0.3661833,0.1232835 -0.2815167,0.1232835 -0.4085167,0.2756835 -0.5355167,0.1232835z" transform="matrix(1,0,0,-1,1.1832167,0.4572)" fill="rgb(104,104,104)" fill-rule="nonzero" shaper:cutDepth="0.0000762" stroke-linecap="round" stroke-linejoin="round" /></svg>