<?xml version="1.0" encoding="utf-8"?>
<!-- Generator: Fusion 360, Shaper Origin Export Add-In, Version 1.6.10  -->
<svg xmlns="http://www.w3.org/2000/svg" xmlns:xlink="http://www.w3.org/1999/xlink" xmlns:shaper="http://www.shapertools.com/namespaces/shaper" shaper:fusionaddin="version:1.6.10" width="1.5494cm" height="0.9144cm" version="1.1" x="0cm" y="0cm" viewBox="0 0 1.5494 0.9144" enable-background="new 0 0 1.5494 0.9144" xml:space="preserve"><path d="M-0.3796319,0.4064 L-0.3796319,-0.4064 A0.0508,0.0508 180 0,1 -0.3288319,-0.4572 L1.1189681,-0.4572 A0.0508,0.0508 270 0,1 1.1697681,-0.4064 L1.1697681,0.4064 A0.0508,0.0508 0 0,1 1.1189681,0.4572 L-0.3288319,0.4572 A0.0508,0.0508 90 0,1 -0.3796319,0.4064z" transform="matrix(1,0,0,-1,0.3796319,0.4572)" fill="rgb(0,0,0)" shaper:cutDepth="0.0015875" stroke-linecap="round" stroke-linejoin="round" /><path d="M0.6054281,0.1324765 L0.6054281,0.1324765 0.6015315,0.136676 0.5981903,0.1413123 0.5957679,0.1465159 0.5950825,0.1521824 0.5950825,0.1521824 0.5955511,0.156735 0.5968807,0.1611126 0.5990458,0.1651425 0.6020551,0.1685912 0.6056298,0.1714464 0.6096957,0.1735479 0.6140913,0.1748138 0.6186474,0.1752547 0.6186474,0.1752547 0.6243158,0.1745501 0.62944,0.1720192 0.637879,0.1643029 0.651901,0.1499655 0.651901,0.1499655 0.6599176,0.1559154 0.6683019,0.1613326 0.6770562,0.1661319 0.6861867,0.1701676 0.6956564,0.1733249 0.7053618,0.1756618 0.7152507,0.1770249 0.7252232,0.1774716 0.7252232,0.1774716 0.7383286,0.1766266 0.7512603,0.1743349 0.7638597,0.1706317 0.7759932,0.1656056 0.7875714,0.1594073 0.7984585,0.1520623 0.8084773,0.1435717 0.8175944,0.1341187 0.8175944,0.1341187 0.8286662,0.118206 0.8375971,0.1009914 0.8445466,0.0828938 0.8496956,0.0641974 0.8532893,0.0451439 0.8555868,0.0258865 0.8567944,0.0065347 0.8571703,-0.0128541 0.8571703,-0.0128541 0.8567293,-0.0328887 0.8552535,-0.0528702 0.8524952,-0.072719 0.8483933,-0.0923336 0.8425336,-0.1114939 0.8346513,-0.1299111 0.8299478,-0.1387683 0.8246587,-0.1472845 0.8121753,-0.162947 0.8121753,-0.162947 0.8032224,-0.1709823 0.7935596,-0.1781486 0.7832285,-0.1843127 0.7724216,-0.1895989 0.7611969,-0.1939272 0.7496376,-0.1972587 0.7377988,-0.1993994 0.725798,-0.2002239 0.725798,-0.2002239 0.7109728,-0.1990322 0.6964772,-0.1956801 0.682512,-0.1905648 0.6692362,-0.1838488 0.6567453,-0.1757717 0.645239,-0.1663416 0.6348429,-0.1557032 0.6257908,-0.143898 0.6257908,-0.143898 0.617526,-0.1291694 0.6109591,-0.1135968 0.6056432,-0.0975671 0.6016491,-0.0811476 0.5986584,-0.0645215 0.5966164,-0.0477491 0.5954658,-0.0308946 0.5950825,-0.0140036 0.5950825,-0.0140036 0.5954311,0.0026435 0.5963984,0.0192641 0.5980608,0.0358324 0.6004666,0.0523074 0.6037951,0.0686214 0.6081443,0.0846924 0.6139281,0.100308 0.6219668,0.114876 0.6054281,0.1324765z M0.6865505,0.0566911 L0.6865505,0.0566911 0.6809458,0.0573302 0.6757596,0.0595937 0.6712043,0.0629183 0.6672914,0.0670008 0.6564169,0.0777928 0.6564169,0.0777928 0.6521764,0.0666966 0.6491953,0.0551795 0.6450436,0.0317697 0.6426045,0.0081203 0.6417197,-0.0156458 0.6417197,-0.0156458 0.6421556,-0.0306582 0.6433858,-0.0456244 0.6455675,-0.0604847 0.6487479,-0.0751611 0.6529954,-0.089567 0.658439,-0.1035607 0.6653652,-0.1168884 0.6740701,-0.1291186 0.6740701,-0.1291186 0.6793999,-0.1343422 0.6852549,-0.1389703 0.6915551,-0.1429711 0.6981686,-0.1464302 0.7050731,-0.1492626 0.7121889,-0.1515146 0.7195117,-0.1529538 0.7269475,-0.1535867 0.7269475,-0.1535867 0.7340012,-0.1531168 0.740935,-0.1517283 0.7476766,-0.1496011 0.7541741,-0.1468111 0.7603899,-0.1434424 0.7662744,-0.1395213 0.7769511,-0.1302681 0.7769511,-0.1302681 0.7866777,-0.1183766 0.7908066,-0.1118888 0.7944044,-0.1050937 0.8002825,-0.0908936 0.8045478,-0.0761329 0.8074274,-0.0610339 0.8092782,-0.045777 0.8102165,-0.0304371 0.8105331,-0.015071 0.8105331,-0.015071 0.8101503,0.0012104 0.809157,0.0174647 0.8072714,0.0336415 0.8043436,0.0496615 0.8001273,0.0653917 0.7943558,0.0806152 0.7867701,0.0950299 0.7769511,0.1080085 0.7769511,0.1080085 0.7716949,0.1129848 0.7659278,0.1173605 0.7597533,0.1211385 0.7532572,0.1243326 0.7395617,0.1289972 0.7324422,0.1303044 0.7252232,0.1308344 0.7252232,0.1308344 0.7144802,0.1298695 0.704142,0.1267539 0.6944491,0.1220233 0.6854808,0.1160159 0.7007551,0.100044 0.7007551,0.100044 0.7046197,0.0959795 0.7079228,0.0914532 0.7100002,0.0862493 0.7104438,0.0806666 0.7104438,0.0806666 0.7100042,0.0759661 0.7087468,0.0714184 0.7066137,0.0672079 0.7036546,0.0635318 0.6999886,0.0605601 0.6957994,0.0583868 0.6912507,0.0571312 0.6865505,0.0566911z" transform="matrix(1,0,0,-1,0.3796319,0.4572)" fill="rgb(104,104,104)" fill-rule="nonzero" shaper:cutDepth="0.0000762" stroke-linecap="round" stroke-linejoin="round" /><path d="M0.3796319,0.1486518 L0.3796319,0.1486518 0.3798073,0.1571314 0.3804553,0.1613168 0.3818488,0.1653196 0.3818488,0.1653196 0.3855695,0.1705207 0.3906176,0.1744454 0.3965988,0.1766934 0.4029505,0.1774716 0.4029505,0.1774716 0.410332,0.1763414 0.4170223,0.1730509 0.4199796,0.170767 0.4224537,0.1679793 0.4244007,0.1647951 0.4256943,0.1612964 0.4256943,0.1612964 0.4262691,0.1458603 0.4262691,-0.1535865 0.5028755,-0.1535867 0.5028755,-0.1535867 0.5138051,-0.154636 0.5190906,-0.156164 0.5239603,-0.1586967 0.5280644,-0.1623565 0.530862,-0.1670755 0.5324679,-0.1723301 0.532927,-0.1778085 0.532927,-0.1778085 0.5324601,-0.1834688 0.5305654,-0.188813 0.5269854,-0.193218 0.5222607,-0.1963563 0.5169327,-0.1983281 0.5113786,-0.1995394 0.500049,-0.2002238 0.3018759,-0.2002239 0.3018759,-0.2002239 0.2910817,-0.1991643 0.2858883,-0.1975865 0.2810841,-0.1950557 0.2771172,-0.1913626 0.2743347,-0.1867053 0.272847,-0.1814871 0.2723171,-0.1760842 0.2723171,-0.1760842 0.2728327,-0.1706176 0.274568,-0.1654158 0.2778316,-0.1610006 0.2822122,-0.1577106 0.2872827,-0.15559 0.2926304,-0.154349 0.3035819,-0.1535865 0.3796319,-0.1535865 0.3796319,0.1486518z" transform="matrix(1,0,0,-1,0.3796319,0.4572)" fill="rgb(104,104,104)" fill-rule="nonzero" shaper:cutDepth="0.0000762" stroke-linecap="round" stroke-linejoin="round" /><path d="M0.0006227,-0.1841308 L0.0826817,-0.0294071 0.1636095,-0.1817585 0.1636095,-0.1817585 0.1679078,-0.1887697 0.1734417,-0.1948496 0.1767596,-0.1972835 0.1804707,-0.1990541 0.1844572,-0.2000806 0.1885672,-0.2002239 0.1885672,-0.2002239 0.1931293,-0.1997778 0.1975667,-0.1986332 0.2017102,-0.1966744 0.2054021,-0.1939585 0.2085141,-0.1905944 0.2109319,-0.1867013 0.2123888,-0.1823569 0.2129532,-0.1778085 0.2129532,-0.1778085 0.2127028,-0.1739569 0.2113538,-0.1703378 0.2078626,-0.1634396 0.2067423,-0.1611395 0.1057207,0.0278678 0.1057207,0.1510089 0.1057207,0.1510089 0.1055125,0.1561192 0.1046735,0.1611535 0.1031139,0.1660315 0.1004656,0.1703883 0.0967342,0.1738792 0.092167,0.1761652 0.0871825,0.1772809 0.0820736,0.1774716 0.0820736,0.1774716 0.0760556,0.1770869 0.070297,0.1753621 0.0651036,0.1722699 0.0613003,0.1676186 0.0613003,0.1676186 0.059876,0.1631802 0.059269,0.1585552 0.0590834,0.1492265 0.0590834,0.0278678 -0.0391006,-0.1588485 -0.0402357,-0.1605667 -0.0402357,-0.1605667 -0.0431407,-0.1657386 -0.0431407,-0.1657386 -0.0460429,-0.1717811 -0.0470819,-0.1783832 -0.0470819,-0.1783832 -0.0465238,-0.182898 -0.0451292,-0.1872264 -0.0427365,-0.1910949 -0.0395751,-0.1943624 -0.0358045,-0.196911 -0.0316586,-0.1987783 -0.0272257,-0.1998032 -0.0226959,-0.2002239 -0.0226959,-0.2002239 -0.0152235,-0.1994734 -0.0117449,-0.1980218 -0.0085779,-0.1959323 -0.0033819,-0.1905079 0.0006227,-0.1841308z" transform="matrix(1,0,0,-1,0.3796319,0.4572)" fill="rgb(104,104,104)" fill-rule="nonzero" shaper:cutDepth="0.0000762" stroke-linecap="round" stroke-linejoin="round" /></svg>