<?xml version="1.0" encoding="utf-8"?>
<!-- Generator: Fusion 360, Shaper Origin Export Add-In, Version 1.6.10  -->
<svg xmlns="http://www.w3.org/2000/svg" xmlns:xlink="http://www.w3.org/1999/xlink" xmlns:shaper="http://www.shapertools.com/namespaces/shaper" shaper:fusionaddin="version:1.6.10" width="4.064cm" height="3.556cm" version="1.1" x="0cm" y="0cm" viewBox="0 0 4.064 3.556" enable-background="new 0 0 4.064 3.556" xml:space="preserve"><path d="M-1.87325,-1.778 L1.87325,-1.778 A0.15875,0.15875 270 0,1 2.032,-1.61925 L2.032,1.61925 A0.15875,0.15875 0 0,1 1.87325,1.778 L-1.87325,1.778 A0.15875,0.15875 90 0,1 -2.032,1.61925 L-2.032,-1.61925 A0.15875,0.15875 180 0,1 -1.87325,-1.778z" transform="matrix(1,0,0,-1,2.032,1.778)" fill="rgb(0,0,0)" shaper:cutDepth="0.003175" stroke-linecap="round" stroke-linejoin="round" /><path d="M-0.5246682,0.0498606 L-0.5246684,0.3604272 -0.5246684,0.3604272 -0.5249637,0.3725685 -0.5256429,0.3786074 -0.5271315,0.3844905 -0.5271315,0.3844905 -0.5324698,0.3930397 -0.536055,0.3965861 -0.5402339,0.3994635 -0.5448089,0.4016276 -0.5496383,0.4030639 -0.5596461,0.4043195 -0.5596461,0.4043195 -0.5678546,0.4040938 -0.5757799,0.4019704 -0.5827724,0.3976751 -0.5856941,0.3947792 -0.5880552,0.3914238 -0.5914209,0.3839215 -0.5934963,0.3759796 -0.5944441,0.3678237 -0.594624,0.3596119 -0.5946242,0.0600568 -0.5946242,0.0600568 -0.5953506,0.03764 -0.5978839,0.0153548 -0.5999701,0.0043332 -0.6028713,-0.0064984 -0.6066712,-0.0170546 -0.6116203,-0.0271154 -0.6116203,-0.0271154 -0.6214432,-0.0413995 -0.6270214,-0.0480369 -0.6330914,-0.0542389 -0.6464125,-0.0653322 -0.6610086,-0.0746861 -0.6766363,-0.0821905 -0.6930846,-0.0876673 -0.7101057,-0.0909535 -0.7273922,-0.0922679 -0.7273922,-0.0922679 -0.7402475,-0.0913524 -0.7530002,-0.0894892 -0.7654917,-0.0863215 -0.7776575,-0.0820676 -0.789294,-0.0765295 -0.8002936,-0.0698143 -0.8105505,-0.0620111 -0.820053,-0.0533051 -0.8287029,-0.0437514 -0.836387,-0.033405 -0.8430409,-0.022368 -0.8485044,-0.0106969 -0.8526578,0.0015044 -0.8557236,0.0140211 -0.8575314,0.0267821 -0.8584361,0.0396382 -0.8584361,0.0396382 -0.8587569,0.0555527 -0.8595147,0.0634729 -0.8610224,0.0712907 -0.8610224,0.0712907 -0.863239,0.0757186 -0.8660148,0.0797079 -0.8696472,0.0829912 -0.8738124,0.0857071 -0.8782153,0.0879412 -0.8828291,0.089527 -0.8925518,0.0908734 -0.8925518,0.0908734 -0.9030209,0.0893722 -0.9079784,0.0876044 -0.9126905,0.0851279 -0.9171167,0.0821276 -0.9209856,0.0785393 -0.9240274,0.0742615 -0.9265444,0.0695664 -0.9265444,0.0695664 -0.928571,0.0624695 -0.9295305,0.0551386 -0.9299929,0.0403771 -0.9299929,0.0403771 -0.928766,0.0204075 -0.9259501,0.0006004 -0.9212256,-0.0188401 -0.9147306,-0.0377632 -0.9063228,-0.0559161 -0.896032,-0.0730724 -0.8839749,-0.0890369 -0.8704485,-0.1037777 -0.855557,-0.1171381 -0.8393949,-0.1289286 -0.8220961,-0.1389796 -0.8039067,-0.147306 -0.7849211,-0.1536181 -0.7654457,-0.158198 -0.7456386,-0.1610092 -0.7256679,-0.1622236 -0.7256679,-0.1622236 -0.7106073,-0.1615443 -0.6956179,-0.1599386 -0.6807696,-0.1573292 -0.666162,-0.1536018 -0.6519086,-0.148693 -0.6380208,-0.1428273 -0.6246398,-0.1358837 -0.6118706,-0.1278702 -0.5997057,-0.118966 -0.5881943,-0.1092316 -0.5775997,-0.0985069 -0.5678077,-0.0870445 -0.5588664,-0.0749075 -0.5510132,-0.0620381 -0.5440228,-0.048682 -0.5379697,-0.0348746 -0.5379697,-0.0348746 -0.5313938,-0.014331 -0.5289424,-0.0038252 -0.5271249,0.0068144 -0.5251361,0.0282924 -0.5246682,0.0498606z" transform="matrix(1,0,0,-1,2.032,1.778)" fill="rgb(102,102,102)" fill-rule="nonzero" shaper:cutDepth="0.0000762" stroke-linecap="round" stroke-linejoin="round" /><path d="M-0.3670214,0.1914964 L-0.1711946,0.1914964 -0.1711946,0.1914964 -0.163128,0.1913063 -0.1551354,0.1902666 -0.1473732,0.1880552 -0.1402017,0.1843824 -0.1342129,0.1789852 -0.1319497,0.1756495 -0.1302142,0.1719954 -0.128148,0.1642044 -0.1277185,0.156149 -0.1277185,0.156149 -0.1280918,0.147747 -0.1289825,0.1436304 -0.1304813,0.1396908 -0.1325761,0.1360363 -0.1352164,0.1327503 -0.1383406,0.1299247 -0.1418717,0.1276365 -0.1496448,0.1244117 -0.1578452,0.1225413 -0.1662154,0.1217177 -0.1746262,0.1215405 -0.3670214,0.1215405 -0.3670214,-0.0922679 -0.0954502,-0.0922679 -0.0954502,-0.0922679 -0.0837698,-0.0923198 -0.0779574,-0.0929051 -0.072419,-0.0947311 -0.072419,-0.0947311 -0.0630095,-0.0997636 -0.0589507,-0.1032318 -0.0555576,-0.1073876 -0.0529368,-0.112062 -0.0511313,-0.1170843 -0.0493878,-0.1276152 -0.0493878,-0.1276152 -0.0498193,-0.1363897 -0.0508774,-0.1406629 -0.0526307,-0.1447033 -0.0550381,-0.1483883 -0.0580161,-0.1516327 -0.0614724,-0.1543551 -0.0653009,-0.1565187 -0.0735563,-0.1595445 -0.0821694,-0.1612908 -0.0997113,-0.1622236 -0.3922696,-0.1622236 -0.3922696,-0.1622236 -0.4018892,-0.1621268 -0.4114215,-0.1608936 -0.4205707,-0.1579286 -0.4247532,-0.155536 -0.4284253,-0.1524184 -0.4313845,-0.1486137 -0.4335742,-0.1443253 -0.4361245,-0.1350451 -0.4370903,-0.1254857 -0.4369773,-0.1158649 -0.4369772,0.3588729 -0.4369772,0.3588729 -0.4368807,0.3685204 -0.4356296,0.3780767 -0.4326907,0.3872642 -0.4303048,0.3914688 -0.4271754,0.3951469 -0.4233532,0.3980975 -0.419075,0.4003526 -0.409847,0.4031422 -0.4002636,0.4042213 -0.3906185,0.4043194 -0.0961892,0.4043195 -0.0961892,0.4043195 -0.0882409,0.4040146 -0.080339,0.4030846 -0.0726666,0.4009964 -0.0655425,0.3974575 -0.0595731,0.3922152 -0.0554367,0.3854329 -0.0533014,0.3777748 -0.0528363,0.3698343 -0.0528363,0.3698343 -0.053319,0.3614003 -0.0557554,0.3533158 -0.0577902,0.3496039 -0.0603855,0.3462699 -0.0634882,0.3433888 -0.0669676,0.3409791 -0.0746652,0.3375163 -0.082872,0.3354796 -0.091261,0.3345332 -0.0997113,0.3343635 -0.3670214,0.3343635 -0.3670214,0.1914964z" transform="matrix(1,0,0,-1,2.032,1.778)" fill="rgb(102,102,102)" fill-rule="nonzero" shaper:cutDepth="0.0000762" stroke-linecap="round" stroke-linejoin="round" /><path d="M0.2635657,-0.1189939 L0.2635657,-0.1189939 0.2633026,-0.1317134 0.2623306,-0.1379915 0.2602404,-0.1439957 0.2602404,-0.1439957 0.2546592,-0.1517974 0.25112,-0.1550374 0.2470871,-0.1576843 0.2427146,-0.1597034 0.2381153,-0.1610564 0.2285878,-0.1622236 0.2285878,-0.1622236 0.2175155,-0.1605284 0.2123311,-0.158462 0.2074801,-0.1555927 0.2030442,-0.1521667 0.199333,-0.1479853 0.1964125,-0.143209 0.1944721,-0.1379608 0.1944721,-0.1379608 0.1936427,-0.1264029 0.1936098,-0.1148067 0.1936098,0.3343635 0.0787002,0.3343638 0.0787002,0.3343638 0.0704621,0.334763 0.0623059,0.3359377 0.0543776,0.3382298 0.047073,0.3420287 0.040917,0.3475184 0.0385611,0.3508935 0.0367205,0.3545969 0.0343117,0.3624788 0.0336231,0.3706964 0.0336231,0.3706964 0.0343234,0.379187 0.0354043,0.3833193 0.0371654,0.3872032 0.0395873,0.39072 0.0425354,0.3938108 0.0459102,0.3964189 0.0496225,0.3985181 0.0576144,0.4014759 0.0659457,0.4032928 0.0744158,0.4041656 0.08294,0.4043194 0.3801997,0.4043195 0.3801997,0.4043195 0.3883336,0.4039079 0.396391,0.4027302 0.404181,0.4003635 0.4113874,0.3965673 0.4145656,0.39402 0.4173378,0.3910276 0.4215116,0.3840416 0.4237431,0.3762143 0.4245379,0.36811 0.4245379,0.36811 0.4237645,0.3599101 0.4227621,0.3559046 0.4211616,0.3521073 0.4162661,0.3454846 0.4131663,0.3427681 0.4096952,0.3405497 0.4020895,0.3373687 0.394068,0.3355073 0.3776408,0.3343635 0.2635657,0.3343635 0.2635657,-0.1189939z" transform="matrix(1,0,0,-1,2.032,1.778)" fill="rgb(102,102,102)" fill-rule="nonzero" shaper:cutDepth="0.0000762" stroke-linecap="round" stroke-linejoin="round" /><path d="M0.7443884,-0.1189939 L0.7443884,-0.1189939 0.7441254,-0.1317134 0.7431533,-0.1379915 0.7410631,-0.1439957 0.7410631,-0.1439957 0.7354819,-0.1517974 0.7319428,-0.1550374 0.7279098,-0.1576843 0.7235373,-0.1597034 0.718938,-0.1610564 0.7094106,-0.1622236 0.7094106,-0.1622236 0.6983382,-0.1605284 0.6931539,-0.158462 0.6883028,-0.1555927 0.6838669,-0.1521667 0.6801557,-0.1479853 0.6772352,-0.143209 0.6752948,-0.1379608 0.6752948,-0.1379608 0.6744655,-0.1264029 0.6744326,-0.1148067 0.6744326,0.3343635 0.559523,0.3343638 0.559523,0.3343638 0.5512848,0.334763 0.5431287,0.3359377 0.5352003,0.3382298 0.5278958,0.3420287 0.5217397,0.3475184 0.5193838,0.3508935 0.5175432,0.3545969 0.5151344,0.3624788 0.5144458,0.3706964 0.5144458,0.3706964 0.5151461,0.379187 0.516227,0.3833193 0.5179882,0.3872032 0.52041,0.39072 0.5233581,0.3938108 0.526733,0.3964189 0.5304452,0.3985181 0.5384372,0.4014759 0.5467684,0.4032928 0.5552386,0.4041656 0.5637628,0.4043194 0.8610224,0.4043195 0.8610224,0.4043195 0.8691563,0.4039079 0.8772137,0.4027302 0.8850037,0.4003635 0.8922101,0.3965673 0.8953883,0.39402 0.8981605,0.3910276 0.9023343,0.3840416 0.9045658,0.3762143 0.9053606,0.36811 0.9053606,0.36811 0.9045872,0.3599101 0.9035849,0.3559046 0.9019843,0.3521073 0.8970888,0.3454846 0.893989,0.3427681 0.8905179,0.3405497 0.8829122,0.3373687 0.8748907,0.3355073 0.8584635,0.3343635 0.7443884,0.3343635 0.7443884,-0.1189939z" transform="matrix(1,0,0,-1,2.032,1.778)" fill="rgb(102,102,102)" fill-rule="nonzero" shaper:cutDepth="0.0000762" stroke-linecap="round" stroke-linejoin="round" /><path d="M-1.3000361,-0.3057153 L-1.3548986,-0.3083865 -1.3548986,-0.3083865 -1.3692024,-0.3097444 -1.3833589,-0.3121832 -1.3972901,-0.315709 -1.4108115,-0.3205541 -1.423878,-0.3265356 -1.4362012,-0.3339142 -1.4477967,-0.3424 -1.4584702,-0.3520147 -1.4681944,-0.3625914 -1.4767776,-0.3741118 -1.4841324,-0.3864529 -1.4902172,-0.3994668 -1.4948425,-0.4130694 -1.4982289,-0.4270305 -1.5001831,-0.4412645 -1.5010931,-0.4556028 -1.5010931,-0.4556028 -1.4999004,-0.47324 -1.4967957,-0.4906423 -1.4916059,-0.5075406 -1.484573,-0.523759 -1.475688,-0.5390415 -1.4650298,-0.5531424 -1.4590753,-0.5596911 -1.4526669,-0.5657784 -1.4386501,-0.5765474 -1.4386501,-0.5765474 -1.4238351,-0.585539 -1.4078287,-0.5922362 -1.3912907,-0.5974183 -1.3743598,-0.6011797 -1.2828954,-0.6208158 -1.2828954,-0.6208158 -1.2665278,-0.624543 -1.2584819,-0.6269624 -1.2507056,-0.6301227 -1.2507056,-0.6301227 -1.2400407,-0.6366653 -1.230446,-0.6446978 -1.2219859,-0.6539151 -1.2148826,-0.6642163 -1.2092561,-0.6753931 -1.2050235,-0.687168 -1.2025067,-0.6994245 -1.2015641,-0.711902 -1.2015641,-0.711902 -1.2029277,-0.7266587 -1.2043013,-0.7339437 -1.206287,-0.7410912 -1.2120124,-0.7547583 -1.2197056,-0.7674251 -1.2242737,-0.7732654 -1.2293083,-0.7787108 -1.2347766,-0.7837184 -1.2406584,-0.7882353 -1.2469358,-0.7921982 -1.2535694,-0.7955064 -1.2675787,-0.800332 -1.2675787,-0.800332 -1.2853143,-0.8026967 -1.3031724,-0.8037805 -1.3540515,-0.8038467 -1.3540515,-0.8038467 -1.3715393,-0.803257 -1.3802346,-0.8022501 -1.3887697,-0.800332 -1.3887697,-0.800332 -1.4005701,-0.7954796 -1.4114463,-0.7888085 -1.4210889,-0.7804526 -1.4295005,-0.7708576 -1.4365572,-0.7602257 -1.4419663,-0.748671 -1.4454806,-0.7364042 -1.446902,-0.7237255 -1.446902,-0.7237255 -1.4460398,-0.7160895 -1.4460501,-0.7093517 -1.4460501,-0.7093517 -1.4466562,-0.7026036 -1.4482041,-0.696011 -1.4509653,-0.6898245 -1.4549358,-0.6843381 -1.4599327,-0.6797658 -1.465748,-0.6762958 -1.4721899,-0.6742068 -1.478924,-0.6734756 -1.478924,-0.6734756 -1.4874615,-0.6745522 -1.4955144,-0.6775916 -1.502516,-0.6825789 -1.5080215,-0.6891968 -1.5121059,-0.6967745 -1.5148787,-0.7049235 -1.5163323,-0.7134073 -1.5168577,-0.7220012 -1.5168577,-0.7220012 -1.5150806,-0.7439152 -1.51312,-0.7547319 -1.5103131,-0.7653753 -1.5067481,-0.7757847 -1.5024482,-0.7859055 -1.4974283,-0.7956894 -1.4917445,-0.8051086 -1.4854519,-0.8141328 -1.4785518,-0.8226958 -1.4710369,-0.8307251 -1.4629311,-0.8381648 -1.4542686,-0.8449561 -1.4450873,-0.8510056 -1.425595,-0.8611738 -1.425595,-0.8611738 -1.4082912,-0.8660742 -1.3906138,-0.869406 -1.3727458,-0.871453 -1.3547771,-0.8722583 -1.299522,-0.8722583 -1.299522,-0.8722583 -1.2833433,-0.8713288 -1.2672548,-0.8693889 -1.2513845,-0.8661188 -1.2358272,-0.8615716 -1.2208253,-0.8554581 -1.2064348,-0.848 -1.1929182,-0.8390675 -1.1804397,-0.8287288 -1.1690888,-0.8171647 -1.159046,-0.8044484 -1.1505387,-0.7906577 -1.1436638,-0.7759848 -1.1384395,-0.7606462 -1.1347393,-0.7448687 -1.1324842,-0.7288231 -1.1316084,-0.712641 -1.1316084,-0.712641 -1.1322847,-0.6984096 -1.1339956,-0.6842659 -1.1368657,-0.6703113 -1.1408279,-0.6566258 -1.1461113,-0.6433958 -1.1524734,-0.6306485 -1.160105,-0.6186178 -1.1687414,-0.607288 -1.1783638,-0.5967808 -1.1888343,-0.5871212 -1.2001923,-0.5785191 -1.2122549,-0.5709404 -1.224925,-0.5644233 -1.2380498,-0.5588823 -1.2515809,-0.554422 -1.2653618,-0.5508067 -1.3574517,-0.5320173 -1.3574517,-0.5320173 -1.3724611,-0.5286685 -1.3871686,-0.5242038 -1.3871686,-0.5242038 -1.396818,-0.5190503 -1.40553,-0.512432 -1.4131718,-0.5046077 -1.4194577,-0.4956513 -1.4244829,-0.4859349 -1.4281619,-0.4756307 -1.4303609,-0.4649156 -1.4311373,-0.4540017 -1.4311373,-0.4540017 -1.4296376,-0.4384382 -1.4278637,-0.430826 -1.425266,-0.4234327 -1.4219153,-0.4163515 -1.4178028,-0.409701 -1.4129382,-0.4035768 -1.4074524,-0.3979835 -1.4014609,-0.3929431 -1.3949886,-0.388559 -1.3880809,-0.3848888 -1.3808478,-0.3818792 -1.3733861,-0.3795069 -1.3657567,-0.3778218 -1.3502201,-0.3760404 -1.3076979,-0.3752818 -1.3034414,-0.3752818 -1.3034414,-0.3752818 -1.2880678,-0.3760994 -1.2804776,-0.377331 -1.2730086,-0.3792383 -1.2657134,-0.381739 -1.2586947,-0.3848985 -1.2520705,-0.3888229 -1.2459127,-0.3934593 -1.2402735,-0.3987078 -1.235192,-0.4044943 -1.2306961,-0.4107475 -1.2267945,-0.4173914 -1.2234887,-0.4243504 -1.22077,-0.431551 -1.2165899,-0.4463657 -1.2165899,-0.4463657 -1.2121848,-0.457801 -1.2089998,-0.4630416 -1.2050005,-0.4676916 -1.200151,-0.4714376 -1.1946084,-0.4740586 -1.1886049,-0.4753 -1.1824741,-0.4754318 -1.1824741,-0.4754318 -1.1754127,-0.4747506 -1.168598,-0.47279 -1.1623637,-0.4694104 -1.1570246,-0.4647411 -1.1527963,-0.4590502 -1.1499191,-0.4525643 -1.1482499,-0.4456734 -1.1476194,-0.4386065 -1.1476194,-0.4386065 -1.1494025,-0.4229931 -1.1537432,-0.4078654 -1.1597536,-0.3933416 -1.1672021,-0.3794889 -1.1672021,-0.3794889 -1.1779748,-0.3634805 -1.1840363,-0.3559757 -1.1906263,-0.3489158 -1.1976678,-0.3423095 -1.205125,-0.3361845 -1.2129741,-0.3305709 -1.2211745,-0.3254774 -1.2296822,-0.320912 -1.2384695,-0.316923 -1.2475097,-0.3135567 -1.2567541,-0.3107704 -1.2661507,-0.3085266 -1.2756664,-0.3069518 -1.2949206,-0.3057152 -1.3000361,-0.3057153z" transform="matrix(1,0,0,-1,2.032,1.778)" fill="rgb(102,102,102)" fill-rule="nonzero" shaper:cutDepth="0.0000762" stroke-linecap="round" stroke-linejoin="round" /><path d="M-0.8163148,-0.8290286 L-0.8163148,-0.8290286 -0.8165779,-0.8417481 -0.81755,-0.8480262 -0.8196402,-0.8540304 -0.8196402,-0.8540304 -0.8252213,-0.861832 -0.8287605,-0.8650721 -0.8327934,-0.867719 -0.837166,-0.8697381 -0.8417652,-0.8710911 -0.8512927,-0.8722583 -0.8512927,-0.8722583 -0.862365,-0.8705631 -0.8675494,-0.8684967 -0.8724004,-0.8656274 -0.8768363,-0.8622014 -0.8805476,-0.8580199 -0.8834681,-0.8532437 -0.8854084,-0.8479955 -0.8854084,-0.8479955 -0.8862378,-0.8364376 -0.8862707,-0.8248414 -0.8862707,-0.3756712 -1.0011803,-0.3756709 -1.0011803,-0.3756709 -1.0094184,-0.3752717 -1.0175746,-0.374097 -1.0255029,-0.3718049 -1.0328075,-0.368006 -1.0389635,-0.3625163 -1.0413195,-0.3591411 -1.0431601,-0.3554378 -1.0455688,-0.3475559 -1.0462574,-0.3393383 -1.0462574,-0.3393383 -1.0455571,-0.3308477 -1.0444762,-0.3267154 -1.0427151,-0.3228315 -1.0402932,-0.3193147 -1.0373451,-0.3162239 -1.0339703,-0.3136158 -1.0302581,-0.3115166 -1.0222661,-0.3085588 -1.0139348,-0.3067419 -1.0054647,-0.3058691 -0.9969405,-0.3057153 -0.6996808,-0.3057152 -0.6996808,-0.3057152 -0.691547,-0.3061268 -0.6834895,-0.3073045 -0.6756995,-0.3096712 -0.6684931,-0.3134674 -0.6653149,-0.3160147 -0.6625427,-0.3190071 -0.658369,-0.3259931 -0.6561374,-0.3338204 -0.6553426,-0.3419247 -0.6553426,-0.3419247 -0.6561161,-0.3501246 -0.6571184,-0.3541301 -0.658719,-0.3579273 -0.6636144,-0.3645501 -0.6667143,-0.3672666 -0.6701853,-0.369485 -0.677791,-0.372666 -0.6858125,-0.3745274 -0.7022398,-0.3756712 -0.8163148,-0.3756712 -0.8163148,-0.8290286z" transform="matrix(1,0,0,-1,2.032,1.778)" fill="rgb(102,102,102)" fill-rule="nonzero" shaper:cutDepth="0.0000762" stroke-linecap="round" stroke-linejoin="round" /><path d="M-0.4640155,-0.7776704 L-0.4911683,-0.8481187 -0.4911683,-0.8481187 -0.4936316,-0.853242 -0.4967065,-0.8580179 -0.5003687,-0.8623661 -0.5046629,-0.8660858 -0.509563,-0.8689621 -0.5148949,-0.8709263 -0.5204668,-0.8720374 -0.5261462,-0.8722583 -0.5261462,-0.8722583 -0.5329238,-0.8717141 -0.5395382,-0.8701456 -0.5457406,-0.867362 -0.551337,-0.863503 -0.5561393,-0.8586912 -0.5597609,-0.8529396 -0.5619188,-0.8464953 -0.5627252,-0.8397437 -0.5627252,-0.8397437 -0.5621453,-0.8332375 -0.5603312,-0.8269545 -0.5559566,-0.8146328 -0.3736722,-0.3325644 -0.3736722,-0.3325644 -0.3684994,-0.3218542 -0.365052,-0.3170054 -0.3609043,-0.3127357 -0.356039,-0.3093172 -0.3505961,-0.3069154 -0.3447673,-0.3057283 -0.3388174,-0.3057152 -0.3388174,-0.3057152 -0.3316048,-0.3059826 -0.3245405,-0.3074766 -0.3179885,-0.310457 -0.3125013,-0.3151554 -0.308205,-0.3209406 -0.304581,-0.3271979 -0.2988621,-0.3404371 -0.1149097,-0.8204073 -0.1149097,-0.8204073 -0.1125989,-0.8299706 -0.1114612,-0.8397437 -0.1114612,-0.8397437 -0.112315,-0.8464777 -0.1145245,-0.8528938 -0.1182459,-0.8585704 -0.1230139,-0.8633978 -0.1286253,-0.8672217 -0.1348008,-0.870034 -0.1414074,-0.8715978 -0.1481634,-0.8722583 -0.1481634,-0.8722583 -0.154303,-0.8721118 -0.1602934,-0.8707643 -0.1658766,-0.8682058 -0.1708567,-0.8646181 -0.1750292,-0.8601108 -0.1785093,-0.8550465 -0.1839358,-0.844037 -0.2086236,-0.7776704 -0.4640155,-0.7776704z M-0.437625,-0.7077145 L-0.2367168,-0.7077145 -0.3371709,-0.4417849 -0.437625,-0.7077145z" transform="matrix(1,0,0,-1,2.032,1.778)" fill="rgb(102,102,102)" fill-rule="nonzero" shaper:cutDepth="0.0000762" stroke-linecap="round" stroke-linejoin="round" /><path d="M0.200507,-0.8290286 L0.200507,-0.8290286 0.2002439,-0.8417481 0.1992719,-0.8480262 0.1971817,-0.8540304 0.1971817,-0.8540304 0.1916005,-0.861832 0.1880613,-0.8650721 0.1840284,-0.867719 0.1796558,-0.8697381 0.1750566,-0.8710911 0.1655291,-0.8722583 0.1655291,-0.8722583 0.1544568,-0.8705631 0.1492724,-0.8684967 0.1444214,-0.8656274 0.1399855,-0.8622014 0.1362742,-0.8580199 0.1333538,-0.8532437 0.1314134,-0.8479955 0.1314134,-0.8479955 0.130584,-0.8364376 0.1305511,-0.8248414 0.1305511,-0.3756712 0.0156415,-0.3756709 0.0156415,-0.3756709 0.0074034,-0.3752717 -0.0007528,-0.374097 -0.0086811,-0.3718049 -0.0159857,-0.368006 -0.0221417,-0.3625163 -0.0244976,-0.3591411 -0.0263382,-0.3554378 -0.028747,-0.3475559 -0.0294356,-0.3393383 -0.0294356,-0.3393383 -0.0287353,-0.3308477 -0.0276544,-0.3267154 -0.0258933,-0.3228315 -0.0234714,-0.3193147 -0.0205233,-0.3162239 -0.0171485,-0.3136158 -0.0134363,-0.3115166 -0.0054443,-0.3085588 0.002887,-0.3067419 0.0113571,-0.3058691 0.0198813,-0.3057153 0.317141,-0.3057152 0.317141,-0.3057152 0.3252748,-0.3061268 0.3333323,-0.3073045 0.3411223,-0.3096712 0.3483287,-0.3134674 0.3515069,-0.3160147 0.3542791,-0.3190071 0.3584528,-0.3259931 0.3606844,-0.3338204 0.3614792,-0.3419247 0.3614792,-0.3419247 0.3607057,-0.3501246 0.3597034,-0.3541301 0.3581028,-0.3579273 0.3532074,-0.3645501 0.3501076,-0.3672666 0.3466365,-0.369485 0.3390308,-0.372666 0.3310093,-0.3745274 0.314582,-0.3756712 0.200507,-0.3756712 0.200507,-0.8290286z" transform="matrix(1,0,0,-1,2.032,1.778)" fill="rgb(102,102,102)" fill-rule="nonzero" shaper:cutDepth="0.0000762" stroke-linecap="round" stroke-linejoin="round" /><path d="M0.5158006,-0.8333393 L0.5158006,-0.8333393 0.5154811,-0.8459668 0.514543,-0.8522118 0.5125984,-0.8582179 0.5125984,-0.8582179 0.5073324,-0.8641672 0.5005896,-0.8684083 0.4931379,-0.8711795 0.4852565,-0.8722583 0.4852565,-0.8722583 0.4764645,-0.8709878 0.4682762,-0.867574 0.4644984,-0.8651538 0.4611581,-0.8622389 0.4561904,-0.8548926 0.4561904,-0.8548926 0.4544357,-0.8497412 0.4538853,-0.8443225 0.4537271,-0.8334235 0.4537272,-0.3462353 0.4537272,-0.3462353 0.4541421,-0.3326887 0.45517,-0.3259896 0.4577915,-0.3197556 0.4577915,-0.3197556 0.4632901,-0.313975 0.469868,-0.3094706 0.4773387,-0.3066807 0.4852565,-0.3057152 0.4852565,-0.3057152 0.4922261,-0.3061832 0.4989729,-0.3079779 0.5049216,-0.3116211 0.5095436,-0.3168556 0.5126821,-0.3230859 0.5145464,-0.3298262 0.5155017,-0.3367407 0.5158006,-0.3437228 0.5158006,-0.8333393z" transform="matrix(1,0,0,-1,2.032,1.778)" fill="rgb(102,102,102)" fill-rule="nonzero" shaper:cutDepth="0.0000762" stroke-linecap="round" stroke-linejoin="round" /><path d="M0.8084325,-0.2978328 L0.8084325,-0.2978328 0.8236995,-0.2986285 0.8388191,-0.3008991 0.8536734,-0.3045126 0.8681665,-0.3093817 0.882233,-0.3153706 0.8957781,-0.3224616 0.9087084,-0.3306187 0.9210021,-0.3397078 0.9210021,-0.3397078 0.9333996,-0.3511066 0.9446216,-0.3636735 0.9546498,-0.3771995 0.9636585,-0.3914381 0.971433,-0.4063768 0.9783047,-0.4217573 0.9841261,-0.4375643 0.9890783,-0.4536646 0.9931355,-0.4700141 0.9965132,-0.4865173 1.0012881,-0.5198657 1.003767,-0.5534616 1.0045057,-0.5871393 1.0045057,-0.5871393 1.0037528,-0.6189514 1.0013736,-0.6506765 0.996915,-0.6821878 0.9937957,-0.6977886 0.9899727,-0.7132337 0.9854483,-0.7284931 0.9802051,-0.7435215 0.9741239,-0.7582234 0.9671088,-0.7725063 0.9591565,-0.7863034 0.9502159,-0.7994741 0.9402013,-0.811821 0.9295003,-0.8236095 0.9295003,-0.8236095 0.916978,-0.8342932 0.9034608,-0.843686 0.8891895,-0.8518891 0.8742159,-0.8587248 0.8587429,-0.8643434 0.8428284,-0.8685432 0.8265817,-0.8711912 0.8101567,-0.8722583 0.8101567,-0.8722583 0.7896167,-0.8705649 0.7794508,-0.868864 0.7694058,-0.8665226 0.749796,-0.8601791 0.730937,-0.8518619 0.7129531,-0.8417911 0.6960409,-0.8300123 0.6880276,-0.8235146 0.6804326,-0.8165498 0.6665503,-0.8013173 0.6665503,-0.8013173 0.6584444,-0.7891234 0.6509852,-0.7765442 0.64447,-0.7634329 0.6387111,-0.7499705 0.6335957,-0.7362593 0.6290942,-0.7223316 0.6252295,-0.7082144 0.622017,-0.6939369 0.6170901,-0.6650836 0.6137461,-0.636008 0.6119715,-0.6067951 0.611374,-0.5775327 0.611374,-0.5775327 0.6121918,-0.5477906 0.614531,-0.518132 0.6188777,-0.4886978 0.6252761,-0.459642 0.6293292,-0.4453249 0.6340416,-0.4312088 0.6394945,-0.417367 0.6457359,-0.4038611 0.6527505,-0.3907274 0.6606046,-0.3780856 0.6694233,-0.3661183 0.6788665,-0.3546103 0.6788665,-0.3546103 0.6922597,-0.3424438 0.7066997,-0.3315401 0.7221363,-0.3220998 0.7383095,-0.3139841 0.7551582,-0.3073884 0.7725129,-0.3022669 0.7903195,-0.2990525 0.8083715,-0.2978329 0.8084325,-0.2978328z M0.9345499,-0.5828287 L0.9345499,-0.5828287 0.9341112,-0.557768 0.9323727,-0.5327729 0.9290992,-0.5079179 0.9239679,-0.4833948 0.916589,-0.4594368 0.9119525,-0.4477955 0.9065309,-0.436498 0.9003291,-0.425593 0.8933041,-0.4152036 0.8853124,-0.4055699 0.876664,-0.3964852 0.876664,-0.3964852 0.8616159,-0.3850973 0.8534775,-0.3803334 0.8449443,-0.3762521 0.8361442,-0.372786 0.8270946,-0.3701623 0.8178096,-0.3685753 0.8084003,-0.3677904 0.8084003,-0.3677904 0.7976696,-0.3686568 0.7871095,-0.3707558 0.7768235,-0.3739504 0.7668699,-0.378058 0.7572989,-0.3829835 0.7481572,-0.3886757 0.7395656,-0.3951652 0.7317028,-0.4025202 0.7317028,-0.4025202 0.7240843,-0.4114752 0.71713,-0.4209298 0.7111058,-0.4310291 0.7058559,-0.4415495 0.7012985,-0.452378 0.6973789,-0.463454 0.6910805,-0.4860937 0.6865523,-0.5091464 0.683555,-0.5324541 0.6819139,-0.55589 0.6813297,-0.5793801 0.6813297,-0.5793801 0.6817296,-0.6022033 0.6828958,-0.6249996 0.6852129,-0.6477077 0.6887597,-0.6702583 0.6938396,-0.6925102 0.7008935,-0.714216 0.7052578,-0.7247679 0.710279,-0.7350241 0.7223425,-0.7543927 0.7223425,-0.7543927 0.7303419,-0.7643148 0.73935,-0.7733283 0.7492529,-0.7813525 0.7599642,-0.7882565 0.7713447,-0.7939954 0.7833056,-0.7983897 0.7957382,-0.8011937 0.8084325,-0.8023026 0.8084325,-0.8023026 0.8195473,-0.8014426 0.8304571,-0.7991215 0.8410695,-0.7957111 0.8512637,-0.7911851 0.8610534,-0.7858497 0.8702714,-0.7795735 0.8789433,-0.7725643 0.8868864,-0.7647383 0.8868864,-0.7647383 0.8942314,-0.7552483 0.9009297,-0.7453176 0.9067251,-0.7348098 0.9118184,-0.7239436 0.9162718,-0.7128116 0.9200837,-0.7014418 0.9260535,-0.6782141 0.9301911,-0.6545933 0.9327774,-0.6307511 0.9340704,-0.6068053 0.9345499,-0.5828287z" transform="matrix(1,0,0,-1,2.032,1.778)" fill="rgb(102,102,102)" fill-rule="nonzero" shaper:cutDepth="0.0000762" stroke-linecap="round" stroke-linejoin="round" /><path d="M1.423255,-0.3510386 L1.4232547,-0.7185152 1.1691956,-0.3299313 1.1691956,-0.3299313 1.1624126,-0.3207489 1.1543253,-0.3126938 1.1495424,-0.3095461 1.1442607,-0.3073193 1.1386807,-0.3061758 1.1329632,-0.3057152 1.1329632,-0.3057152 1.1231645,-0.3072323 1.1185264,-0.308928 1.1141366,-0.3113036 1.1100574,-0.3142218 1.1065688,-0.3177289 1.1039249,-0.3218791 1.1018033,-0.3264063 1.1018033,-0.3264063 1.1005126,-0.3320817 1.1001361,-0.3379034 1.100079,-0.3495607 1.1000789,-0.8265981 1.1000789,-0.8265981 1.1004014,-0.840945 1.1013593,-0.8480596 1.1035275,-0.8548926 1.1035275,-0.8548926 1.1092658,-0.8622344 1.1127648,-0.8653189 1.1167017,-0.8678485 1.1209638,-0.8697713 1.1254406,-0.8710698 1.1346874,-0.8722583 1.1346874,-0.8722583 1.1422703,-0.8715882 1.1496121,-0.8695895 1.156256,-0.8658876 1.1616819,-0.860554 1.1655714,-0.8540222 1.1680091,-0.8468032 1.1694107,-0.8393271 1.1700348,-0.8317382 1.1700348,-0.4586015 1.4232547,-0.8497587 1.4232547,-0.8497587 1.4301709,-0.8585105 1.4341101,-0.8624545 1.4385032,-0.8659068 1.4433435,-0.8687318 1.4485535,-0.870745 1.4540093,-0.8717986 1.4595876,-0.8722583 1.4595876,-0.8722583 1.4669505,-0.8716853 1.4740646,-0.8697167 1.4804442,-0.8660069 1.4855823,-0.8607139 1.4891977,-0.8542772 1.4914769,-0.8472513 1.4926923,-0.8399684 1.4932107,-0.8326003 1.4932106,-0.3479451 1.4932106,-0.3479451 1.4929076,-0.3400646 1.4920023,-0.3322253 1.4899296,-0.3246218 1.4863954,-0.3175638 1.4839725,-0.3144538 1.4810757,-0.3117668 1.4742694,-0.3077928 1.4666093,-0.3059343 1.4587255,-0.3057152 1.4587255,-0.3057152 1.4503793,-0.3061566 1.442263,-0.3081323 1.4384627,-0.3098956 1.4350119,-0.3122543 1.432026,-0.3151905 1.4295571,-0.318573 1.4261839,-0.326207 1.4243656,-0.3343732 1.423255,-0.3510386z" transform="matrix(1,0,0,-1,2.032,1.778)" fill="rgb(102,102,102)" fill-rule="nonzero" shaper:cutDepth="0.0000762" stroke-linecap="round" stroke-linejoin="round" /><path d="M-1.181801,-1.009833 L-1.2366635,-1.0125042 -1.2366635,-1.0125042 -1.2509673,-1.0138622 -1.2651238,-1.0163009 -1.279055,-1.0198268 -1.2925764,-1.0246718 -1.3056429,-1.0306534 -1.3179661,-1.0380319 -1.3295616,-1.0465177 -1.3402351,-1.0561324 -1.3499593,-1.0667091 -1.3585425,-1.0782295 -1.3658973,-1.0905706 -1.3719821,-1.1035845 -1.3766074,-1.1171871 -1.3799938,-1.1311482 -1.381948,-1.1453822 -1.382858,-1.1597205 -1.382858,-1.1597205 -1.3816653,-1.1773578 -1.3785606,-1.19476 -1.3733708,-1.2116583 -1.3663379,-1.2278767 -1.3574529,-1.2431593 -1.3467947,-1.2572601 -1.3408403,-1.2638089 -1.3344318,-1.2698962 -1.3204151,-1.2806652 -1.3204151,-1.2806652 -1.3056,-1.2896567 -1.2895936,-1.296354 -1.2730556,-1.301536 -1.2561247,-1.3052975 -1.1646603,-1.3249336 -1.1646603,-1.3249336 -1.1482928,-1.3286607 -1.1402468,-1.3310801 -1.1324705,-1.3342404 -1.1324705,-1.3342404 -1.1218056,-1.340783 -1.1122109,-1.3488155 -1.1037508,-1.3580328 -1.0966475,-1.368334 -1.091021,-1.3795109 -1.0867884,-1.3912857 -1.0842716,-1.4035422 -1.0833291,-1.4160197 -1.0833291,-1.4160197 -1.0846927,-1.4307765 -1.0860662,-1.4380615 -1.0880519,-1.445209 -1.0937773,-1.458876 -1.1014705,-1.4715428 -1.1060386,-1.4773831 -1.1110732,-1.4828285 -1.1165415,-1.4878361 -1.1224233,-1.492353 -1.1287007,-1.4963159 -1.1353343,-1.4996242 -1.1493436,-1.5044497 -1.1493436,-1.5044497 -1.1670792,-1.5068144 -1.1849373,-1.5078982 -1.2358164,-1.5079644 -1.2358164,-1.5079644 -1.2533042,-1.5073748 -1.2619996,-1.5063679 -1.2705346,-1.5044497 -1.2705346,-1.5044497 -1.282335,-1.4995973 -1.2932112,-1.4929262 -1.3028538,-1.4845703 -1.3112654,-1.4749754 -1.3183221,-1.4643434 -1.3237312,-1.4527887 -1.3272455,-1.4405219 -1.3286669,-1.4278432 -1.3286669,-1.4278432 -1.3278047,-1.4202072 -1.327815,-1.4134694 -1.327815,-1.4134694 -1.3284211,-1.4067214 -1.329969,-1.4001288 -1.3327302,-1.3939422 -1.3367008,-1.3884558 -1.3416976,-1.3838835 -1.3475129,-1.3804135 -1.3539548,-1.3783245 -1.3606889,-1.3775933 -1.3606889,-1.3775933 -1.3692264,-1.37867 -1.3772793,-1.3817093 -1.3842809,-1.3866966 -1.3897865,-1.3933145 -1.3938708,-1.4008923 -1.3966437,-1.4090413 -1.3980972,-1.4175251 -1.3986226,-1.426119 -1.3986226,-1.426119 -1.3968455,-1.4480329 -1.3948849,-1.4588497 -1.392078,-1.4694931 -1.388513,-1.4799024 -1.3842131,-1.4900232 -1.3791932,-1.4998071 -1.3735094,-1.5092264 -1.3672168,-1.5182505 -1.3603167,-1.5268135 -1.3528018,-1.5348428 -1.344696,-1.5422825 -1.3360335,-1.5490739 -1.3268522,-1.5551233 -1.3073599,-1.5652915 -1.3073599,-1.5652915 -1.2900561,-1.5701919 -1.2723787,-1.5735237 -1.2545107,-1.5755708 -1.236542,-1.5763761 -1.1812869,-1.5763761 -1.1812869,-1.5763761 -1.1651082,-1.5754465 -1.1490197,-1.5735066 -1.1331494,-1.5702365 -1.1175921,-1.5656893 -1.1025902,-1.5595758 -1.0881997,-1.5521177 -1.0746831,-1.5431852 -1.0622046,-1.5328465 -1.0508537,-1.5212825 -1.0408109,-1.5085661 -1.0323036,-1.4947754 -1.0254287,-1.4801026 -1.0202044,-1.4647639 -1.0165042,-1.4489864 -1.0142491,-1.4329408 -1.0133733,-1.4167587 -1.0133733,-1.4167587 -1.0140496,-1.4025274 -1.0157606,-1.3883837 -1.0186306,-1.374429 -1.0225928,-1.3607435 -1.0278762,-1.3475135 -1.0342383,-1.3347662 -1.0418699,-1.3227356 -1.0505063,-1.3114058 -1.0601288,-1.3008985 -1.0705992,-1.2912389 -1.0819572,-1.2826369 -1.0940198,-1.2750581 -1.1066899,-1.2685411 -1.1198148,-1.263 -1.1333458,-1.2585397 -1.1471267,-1.2549244 -1.2392166,-1.236135 -1.2392166,-1.236135 -1.254226,-1.2327863 -1.2689335,-1.2283215 -1.2689335,-1.2283215 -1.2785829,-1.223168 -1.2872949,-1.2165497 -1.2949367,-1.2087255 -1.3012226,-1.199769 -1.3062478,-1.1900526 -1.3099268,-1.1797484 -1.3121258,-1.1690333 -1.3129022,-1.1581194 -1.3129022,-1.1581194 -1.3114025,-1.1425559 -1.3096286,-1.1349437 -1.3070309,-1.1275505 -1.3036802,-1.1204692 -1.2995677,-1.1138187 -1.2947031,-1.1076945 -1.2892173,-1.1021013 -1.2832258,-1.0970609 -1.2767535,-1.0926767 -1.2698458,-1.0890065 -1.2626127,-1.085997 -1.255151,-1.0836246 -1.2475216,-1.0819395 -1.2319851,-1.0801582 -1.1894628,-1.0793996 -1.1852063,-1.0793996 -1.1852063,-1.0793996 -1.1698327,-1.0802171 -1.1622425,-1.0814488 -1.1547735,-1.0833561 -1.1474783,-1.0858568 -1.1404596,-1.0890162 -1.1338354,-1.0929406 -1.1276776,-1.097577 -1.1220384,-1.1028256 -1.116957,-1.108612 -1.112461,-1.1148653 -1.1085594,-1.1215091 -1.1052536,-1.1284681 -1.1025349,-1.1356687 -1.0983548,-1.1504834 -1.0983548,-1.1504834 -1.0939497,-1.1619187 -1.0907647,-1.1671593 -1.0867654,-1.1718094 -1.0819159,-1.1755554 -1.0763733,-1.1781764 -1.0703698,-1.1794177 -1.064239,-1.1795495 -1.064239,-1.1795495 -1.0571776,-1.1788684 -1.050363,-1.1769077 -1.0441286,-1.1735281 -1.0387895,-1.1688589 -1.0345612,-1.1631679 -1.031684,-1.156682 -1.0300148,-1.1497912 -1.0293843,-1.1427242 -1.0293843,-1.1427242 -1.0311674,-1.1271108 -1.0355081,-1.1119831 -1.0415185,-1.0974593 -1.048967,-1.0836067 -1.048967,-1.0836067 -1.0597397,-1.0675982 -1.0658012,-1.0600934 -1.0723912,-1.0530335 -1.0794327,-1.0464273 -1.0868899,-1.0403022 -1.094739,-1.0346887 -1.1029394,-1.0295952 -1.1114471,-1.0250298 -1.1202344,-1.0210408 -1.1292746,-1.0176744 -1.138519,-1.0148881 -1.1479157,-1.0126443 -1.1574313,-1.0110696 -1.1766855,-1.0098329 -1.181801,-1.009833z" transform="matrix(1,0,0,-1,2.032,1.778)" fill="rgb(102,102,102)" fill-rule="nonzero" shaper:cutDepth="0.0000762" stroke-linecap="round" stroke-linejoin="round" /><path d="M-0.8557265,-1.2226561 L-0.6598996,-1.2226561 -0.6598996,-1.2226561 -0.6518331,-1.2228461 -0.6438405,-1.2238859 -0.6360783,-1.2260972 -0.6289068,-1.22977 -0.622918,-1.2351672 -0.6206547,-1.238503 -0.6189193,-1.242157 -0.6168531,-1.249948 -0.6164236,-1.2580034 -0.6164236,-1.2580034 -0.6167969,-1.2664055 -0.6176875,-1.270522 -0.6191863,-1.2744616 -0.6212811,-1.2781161 -0.6239215,-1.2814021 -0.6270457,-1.2842277 -0.6305767,-1.286516 -0.6383498,-1.2897408 -0.6465503,-1.2916111 -0.6549204,-1.2924348 -0.6633313,-1.292612 -0.8557265,-1.292612 -0.8557265,-1.5064203 -0.5841553,-1.5064203 -0.5841553,-1.5064203 -0.5724749,-1.5064723 -0.5666624,-1.5070576 -0.5611241,-1.5088835 -0.5611241,-1.5088835 -0.5517146,-1.513916 -0.5476558,-1.5173842 -0.5442627,-1.52154 -0.5416419,-1.5262145 -0.5398364,-1.5312367 -0.5380928,-1.5417677 -0.5380928,-1.5417677 -0.5385244,-1.5505421 -0.5395824,-1.5548154 -0.5413358,-1.5588558 -0.5437432,-1.5625407 -0.5467212,-1.5657852 -0.5501774,-1.5685075 -0.5540059,-1.5706712 -0.5622614,-1.5736969 -0.5708745,-1.5754432 -0.5884164,-1.5763761 -0.8809746,-1.5763761 -0.8809746,-1.5763761 -0.8905943,-1.5762792 -0.9001265,-1.575046 -0.9092757,-1.572081 -0.9134583,-1.5696884 -0.9171304,-1.5665708 -0.9200896,-1.5627661 -0.9222792,-1.5584778 -0.9248296,-1.5491976 -0.9257953,-1.5396381 -0.9256824,-1.5300173 -0.9256823,-1.0552795 -0.9256823,-1.0552795 -0.9255858,-1.045632 -0.9243347,-1.0360758 -0.9213957,-1.0268882 -0.9190099,-1.0226836 -0.9158805,-1.0190056 -0.9120583,-1.0160549 -0.90778,-1.0137998 -0.898552,-1.0110102 -0.8889687,-1.0099312 -0.8793236,-1.009833 -0.5848942,-1.0098329 -0.5848942,-1.0098329 -0.576946,-1.0101378 -0.5690441,-1.0110678 -0.5613717,-1.013156 -0.5542475,-1.0166949 -0.5482782,-1.0219372 -0.5441418,-1.0287195 -0.5420065,-1.0363776 -0.5415414,-1.0443181 -0.5415414,-1.0443181 -0.5420241,-1.0527521 -0.5444605,-1.0608366 -0.5464953,-1.0645485 -0.5490905,-1.0678825 -0.5521932,-1.0707636 -0.5556726,-1.0731733 -0.5633703,-1.0766361 -0.571577,-1.0786728 -0.579966,-1.0796192 -0.5884164,-1.0797889 -0.8557265,-1.0797889 -0.8557265,-1.2226561z" transform="matrix(1,0,0,-1,2.032,1.778)" fill="rgb(102,102,102)" fill-rule="nonzero" shaper:cutDepth="0.0000762" stroke-linecap="round" stroke-linejoin="round" /><path d="M-0.0984061,-1.5143026 L-0.3827861,-1.5143026 -0.3827861,-1.0478752 -0.3827861,-1.0478752 -0.3841905,-1.0339997 -0.3861472,-1.0272952 -0.3894167,-1.0211384 -0.3940789,-1.0159439 -0.4000338,-1.0123245 -0.4067446,-1.0104181 -0.4136997,-1.0098329 -0.4136997,-1.0098329 -0.4206121,-1.0104303 -0.4272421,-1.0124618 -0.4330865,-1.0161952 -0.4378003,-1.0212762 -0.4410639,-1.0273935 -0.4431519,-1.0340175 -0.4443681,-1.0408418 -0.4448595,-1.0477667 -0.4448597,-1.5344535 -0.4448597,-1.5344535 -0.4449404,-1.5427897 -0.4438423,-1.551047 -0.4411021,-1.5589182 -0.4364432,-1.5658172 -0.4334215,-1.5687037 -0.4299998,-1.5710846 -0.4223095,-1.5743034 -0.4141427,-1.5759301 -0.4058173,-1.5763761 -0.104409,-1.5763761 -0.104409,-1.5763761 -0.0919411,-1.5763654 -0.0857116,-1.5761133 -0.082621,-1.5756943 -0.0796855,-1.5746518 -0.0796855,-1.5746518 -0.0708819,-1.5701806 -0.067025,-1.5670963 -0.0637446,-1.5633723 -0.0611533,-1.5591418 -0.0593263,-1.5545545 -0.0575164,-1.5448467 -0.0575164,-1.5448467 -0.0592159,-1.5354424 -0.0610306,-1.5310324 -0.0635432,-1.5269248 -0.0666211,-1.5232087 -0.0702463,-1.5201066 -0.0788234,-1.5159037 -0.0788234,-1.5159037 -0.0836071,-1.5146969 -0.0885308,-1.5143229 -0.0984061,-1.5143026z" transform="matrix(1,0,0,-1,2.032,1.778)" fill="rgb(102,102,102)" fill-rule="nonzero" shaper:cutDepth="0.0000762" stroke-linecap="round" stroke-linejoin="round" /><path d="M0.0980366,-1.2226561 L0.2938635,-1.2226561 0.2938635,-1.2226561 0.30193,-1.2228461 0.3099226,-1.2238859 0.3176848,-1.2260972 0.3248563,-1.22977 0.3308451,-1.2351672 0.3331084,-1.238503 0.3348438,-1.242157 0.33691,-1.249948 0.3373395,-1.2580034 0.3373395,-1.2580034 0.3369662,-1.2664055 0.3360756,-1.270522 0.3345768,-1.2744616 0.332482,-1.2781161 0.3298416,-1.2814021 0.3267174,-1.2842277 0.3231864,-1.286516 0.3154133,-1.2897408 0.3072128,-1.2916111 0.2988427,-1.2924348 0.2904318,-1.292612 0.0980366,-1.292612 0.0980366,-1.5064203 0.3696078,-1.5064203 0.3696078,-1.5064203 0.3812882,-1.5064723 0.3871007,-1.5070576 0.392639,-1.5088835 0.392639,-1.5088835 0.4020485,-1.513916 0.4061073,-1.5173842 0.4095004,-1.52154 0.4121212,-1.5262145 0.4139267,-1.5312367 0.4156703,-1.5417677 0.4156703,-1.5417677 0.4152387,-1.5505421 0.4141807,-1.5548154 0.4124273,-1.5588558 0.4100199,-1.5625407 0.4070419,-1.5657852 0.4035857,-1.5685075 0.3997572,-1.5706712 0.3915017,-1.5736969 0.3828886,-1.5754432 0.3653467,-1.5763761 0.0727885,-1.5763761 0.0727885,-1.5763761 0.0631688,-1.5762792 0.0536366,-1.575046 0.0444874,-1.572081 0.0403048,-1.5696884 0.0366327,-1.5665708 0.0336735,-1.5627661 0.0314839,-1.5584778 0.0289335,-1.5491976 0.0279678,-1.5396381 0.0280807,-1.5300173 0.0280808,-1.0552795 0.0280808,-1.0552795 0.0281773,-1.045632 0.0294284,-1.0360758 0.0323674,-1.0268882 0.0347532,-1.0226836 0.0378826,-1.0190056 0.0417048,-1.0160549 0.045983,-1.0137998 0.0552111,-1.0110102 0.0647944,-1.0099312 0.0744395,-1.009833 0.3688689,-1.0098329 0.3688689,-1.0098329 0.3768171,-1.0101378 0.384719,-1.0110678 0.3923914,-1.013156 0.3995156,-1.0166949 0.4054849,-1.0219372 0.4096213,-1.0287195 0.4117566,-1.0363776 0.4122217,-1.0443181 0.4122217,-1.0443181 0.411739,-1.0527521 0.4093026,-1.0608366 0.4072678,-1.0645485 0.4046726,-1.0678825 0.4015699,-1.0707636 0.3980905,-1.0731733 0.3903928,-1.0766361 0.3821861,-1.0786728 0.3737971,-1.0796192 0.3653467,-1.0797889 0.0980366,-1.0797889 0.0980366,-1.2226561z" transform="matrix(1,0,0,-1,2.032,1.778)" fill="rgb(102,102,102)" fill-rule="nonzero" shaper:cutDepth="0.0000762" stroke-linecap="round" stroke-linejoin="round" /><path d="M0.7302249,-1.0098329 L0.7301712,-1.009833 0.7301712,-1.009833 0.7073642,-1.0111702 0.6960407,-1.0126999 0.6848347,-1.0149557 0.6737969,-1.0179141 0.6629556,-1.0215296 0.6523432,-1.0257722 0.6420209,-1.030673 0.6320428,-1.0362446 0.6224316,-1.0424276 0.6043193,-1.0563546 0.5958151,-1.0639922 0.5877477,-1.0720777 0.5727012,-1.0892721 0.5727012,-1.0892721 0.5569422,-1.1111318 0.5428346,-1.1340912 0.5306462,-1.1581253 0.520387,-1.1830434 0.5121213,-1.2086923 0.506036,-1.234943 0.5038393,-1.2482447 0.502301,-1.2616309 0.5010212,-1.2885475 0.5010212,-1.2885475 0.5020818,-1.315738 0.5053008,-1.3427567 0.5104888,-1.3694691 0.5178501,-1.3956646 0.5272412,-1.4212037 0.5386212,-1.4459197 0.5450821,-1.4579014 0.5521134,-1.4695499 0.5676516,-1.4918872 0.5676516,-1.4918872 0.5826221,-1.5097469 0.5906066,-1.5182327 0.5990276,-1.5262938 0.6078552,-1.5339056 0.6170704,-1.5410407 0.6266632,-1.5476654 0.6366369,-1.553698 0.6469986,-1.5590319 0.6577011,-1.5636538 0.6686684,-1.5676009 0.6798589,-1.5708619 0.6912435,-1.5733939 0.7027706,-1.5751057 0.7260374,-1.5763761 0.7260374,-1.5763761 0.7453338,-1.5752956 0.7644328,-1.5723439 0.7831178,-1.5674093 0.8010971,-1.5603202 0.8182453,-1.551411 0.8342799,-1.5406195 0.8491808,-1.5283144 0.862993,-1.5147953 0.862993,-1.5147953 0.8720364,-1.5047833 0.880518,-1.4942939 0.8842857,-1.4887022 0.8874669,-1.482716 0.889476,-1.4763031 0.8903349,-1.469595 0.8903349,-1.469595 0.8897326,-1.4627036 0.8880875,-1.4559894 0.8851706,-1.4497177 0.8810291,-1.4441828 0.8758374,-1.439615 0.8697515,-1.4363352 0.8631004,-1.434448 0.8562191,-1.433755 0.8562191,-1.433755 0.846851,-1.4345466 0.842309,-1.4357879 0.8380334,-1.4377706 0.8341572,-1.4404469 0.8307002,-1.4436436 0.8246898,-1.4508744 0.8246898,-1.4508744 0.8157008,-1.4619184 0.8060246,-1.4723613 0.7954825,-1.4819362 0.7840077,-1.490363 0.7715842,-1.4973194 0.7583285,-1.5025038 0.7444369,-1.5056328 0.7302249,-1.5064203 0.7302249,-1.5064203 0.716289,-1.5057913 0.7025157,-1.5035759 0.6890997,-1.4997579 0.6762618,-1.4942974 0.664199,-1.4872964 0.6530379,-1.4789209 0.6426577,-1.4696059 0.6331736,-1.4593726 0.6331736,-1.4593726 0.6192117,-1.4414028 0.6069763,-1.4222152 0.5964551,-1.4020372 0.5876809,-1.3810398 0.5806926,-1.3593827 0.5753699,-1.3372571 0.5722354,-1.3147176 0.570977,-1.291996 0.570977,-1.291996 0.5719486,-1.2739133 0.573923,-1.2559158 0.5770488,-1.238077 0.5813678,-1.2204939 0.5869063,-1.2032517 0.5937163,-1.1864751 0.6018513,-1.1702968 0.6111977,-1.1547874 0.6217301,-1.1400588 0.6334451,-1.1262495 0.6463975,-1.113601 0.6606796,-1.1024659 0.6682997,-1.0975734 0.6762635,-1.0932634 0.6929818,-1.0863113 0.7016562,-1.0836981 0.7105048,-1.0817582 0.7285006,-1.0797887 0.7285006,-1.0797887 0.7413389,-1.0805893 0.7539676,-1.0830487 0.7661901,-1.0870478 0.777749,-1.0927003 0.7885715,-1.0996503 0.7985754,-1.1077424 0.8077529,-1.1167551 0.8161916,-1.1264669 0.8161916,-1.1264669 0.8236969,-1.1358445 0.8321886,-1.1443216 0.8370901,-1.1478009 0.8425966,-1.150259 0.8484666,-1.1514149 0.8544949,-1.151715 0.8544949,-1.151715 0.8614471,-1.1508912 0.8681197,-1.1487794 0.8742142,-1.1453374 0.8794987,-1.1407462 0.8838217,-1.1352416 0.8869393,-1.1289734 0.8888067,-1.1222292 0.8894728,-1.1152592 0.8894728,-1.1152592 0.8884502,-1.1062203 0.8870136,-1.1018897 0.8849864,-1.0978045 0.8798276,-1.0902971 0.8740776,-1.0832372 0.8740776,-1.0832372 0.8599459,-1.0678866 0.844624,-1.0537352 0.8281137,-1.0409704 0.8193714,-1.035286 0.8103011,-1.0301257 0.7914206,-1.0212375 0.7816004,-1.0177306 0.7715555,-1.0148907 0.7613583,-1.0126299 0.7510499,-1.0110393 0.7302249,-1.0098329z" transform="matrix(1,0,0,-1,2.032,1.778)" fill="rgb(102,102,102)" fill-rule="nonzero" shaper:cutDepth="0.0000762" stroke-linecap="round" stroke-linejoin="round" /><path d="M1.2094465,-1.5331464 L1.2094465,-1.5331464 1.2091834,-1.5458659 1.2082113,-1.5521439 1.2061211,-1.5581482 1.2061211,-1.5581482 1.20054,-1.5659498 1.1970008,-1.5691899 1.1929678,-1.5718368 1.1885953,-1.5738559 1.183996,-1.5752089 1.1744686,-1.5763761 1.1744686,-1.5763761 1.1633963,-1.5746809 1.1582119,-1.5726144 1.1533609,-1.5697451 1.148925,-1.5663192 1.1452137,-1.5621377 1.1422932,-1.5573614 1.1403529,-1.5521132 1.1403529,-1.5521132 1.1395235,-1.5405553 1.1394906,-1.5289591 1.1394906,-1.0797889 1.024581,-1.0797887 1.024581,-1.0797887 1.0163429,-1.0793894 1.0081867,-1.0782147 1.0002584,-1.0759227 0.9929538,-1.0721237 0.9867978,-1.066634 0.9844418,-1.0632589 0.9826012,-1.0595555 0.9801925,-1.0516736 0.9795039,-1.043456 0.9795039,-1.043456 0.9802042,-1.0349654 0.9812851,-1.0308331 0.9830462,-1.0269492 0.9854681,-1.0234324 0.9884162,-1.0203416 0.991791,-1.0177336 0.9955032,-1.0156343 1.0034952,-1.0126765 1.0118265,-1.0108597 1.0202966,-1.0099868 1.0288208,-1.009833 1.3260805,-1.0098329 1.3260805,-1.0098329 1.3342143,-1.0102445 1.3422717,-1.0114222 1.3500618,-1.0137889 1.3572682,-1.0175851 1.3604464,-1.0201324 1.3632186,-1.0231248 1.3673923,-1.0301108 1.3696239,-1.0379381 1.3704186,-1.0460424 1.3704186,-1.0460424 1.3696452,-1.0542423 1.3686429,-1.0582479 1.3670423,-1.0620451 1.3621468,-1.0686678 1.359047,-1.0713843 1.355576,-1.0736028 1.3479702,-1.0767837 1.3399487,-1.0786452 1.3235215,-1.0797889 1.2094465,-1.0797889 1.2094465,-1.5331464z" transform="matrix(1,0,0,-1,2.032,1.778)" fill="rgb(102,102,102)" fill-rule="nonzero" shaper:cutDepth="0.0000762" stroke-linecap="round" stroke-linejoin="round" /><path d="M-1.485265,0.381 a0.215265,0.215265 0 1,1 0.43053,0 a0.215265,0.215265 0 1,1 -0.43053,0z" transform="matrix(1,0,0,-1,2.032,1.778)" fill="rgb(255,255,255)" stroke="rgb(0,0,0)" stroke-width="0.0010cm" stroke-linecap="round" stroke-linejoin="round" shaper:cutDepth="0.003175" /><path d="M1.054735,0.381 a0.215265,0.215265 0 1,1 0.43053,0 a0.215265,0.215265 0 1,1 -0.43053,0z" transform="matrix(1,0,0,-1,2.032,1.778)" fill="rgb(255,255,255)" stroke="rgb(0,0,0)" stroke-width="0.0010cm" stroke-linecap="round" stroke-linejoin="round" shaper:cutDepth="0.003175" /></svg>