<?xml version="1.0" encoding="utf-8"?>
<!-- Generator: Fusion 360, Shaper Origin Export Add-In, Version 1.6.10  -->
<svg xmlns="http://www.w3.org/2000/svg" xmlns:xlink="http://www.w3.org/1999/xlink" xmlns:shaper="http://www.shapertools.com/namespaces/shaper" shaper:fusionaddin="version:1.6.10" width="16.51cm" height="12.065cm" version="1.1" x="0cm" y="0cm" viewBox="0 0 16.51 12.065" enable-background="new 0 0 16.51 12.065" xml:space="preserve"><path d="M-6.6817875,5.3975 A0.635,0.635 0 0,0 -7.3167875,4.7625 L-7.9517875,4.7625 -7.9517875,-4.7625 -7.3167875,-4.7625 A0.635,0.635 90 0,0 -6.6817875,-5.3975 L-6.6817875,-6.0325 7.2882125,-6.0325 7.2882125,-5.3975 A0.635,0.635 180 0,0 7.9232125,-4.7625 L8.5582125,-4.7625 8.5582125,4.7625 7.9232125,4.7625 A0.635,0.635 270 0,0 7.2882125,5.3975 L7.2882125,6.0325 -6.6817875,6.0325 -6.6817875,5.3975z" transform="matrix(1,0,0,-1,7.9517875,6.0325)" fill="rgb(0,0,0)" shaper:cutDepth="0.0015875" stroke-linecap="round" stroke-linejoin="round" /><path d="M-5.0306039,4.5288884 L-5.2675872,4.5288884 -5.2675872,4.917578 -5.2675872,4.917578 -5.2687575,4.9291408 -5.2703881,4.934728 -5.2731127,4.9398586 -5.2769979,4.9441873 -5.2819603,4.9472035 -5.2875526,4.9487922 -5.2933485,4.9492798 -5.2933485,4.9492798 -5.2991089,4.948782 -5.3046339,4.9470891 -5.3095042,4.9439779 -5.3134324,4.9397438 -5.3161521,4.934646 -5.317892,4.929126 -5.3189055,4.9234391 -5.3193151,4.9176684 -5.3193152,4.512096 -5.3193152,4.512096 -5.3193825,4.5051492 -5.3184674,4.4982681 -5.3161839,4.4917088 -5.3123015,4.4859596 -5.306932,4.4815701 -5.3005234,4.4788878 -5.2937177,4.4775322 -5.2867799,4.4771605 -5.0356063,4.4771605 -5.0356063,4.4771605 -5.0252164,4.4771695 -5.0200252,4.4773795 -5.0150034,4.4785974 -5.0150034,4.4785974 -5.0076671,4.4823234 -5.0044529,4.4848937 -5.0017193,4.487997 -4.9995599,4.4915224 -4.9980374,4.4953452 -4.9965292,4.503435 -4.9965292,4.503435 -4.9979454,4.5112719 -4.9994576,4.514947 -5.0015515,4.51837 -5.0041164,4.5214667 -5.0071373,4.5240517 -5.014285,4.5275541 -5.014285,4.5275541 -5.0182713,4.5285599 -5.0223745,4.5288715 -5.0306039,4.5288884z" transform="matrix(1,0,0,-1,7.9517875,6.0325)" fill="rgb(104,104,104)" fill-rule="nonzero" shaper:cutDepth="0.0000762" stroke-linecap="round" stroke-linejoin="round" /><path d="M-4.4727846,4.7719272 L-4.3095956,4.7719272 -4.3095956,4.7719272 -4.3028735,4.7717688 -4.296213,4.7709024 -4.2897444,4.7690596 -4.2837682,4.7659989 -4.2787776,4.7615012 -4.2754453,4.7556764 -4.2737235,4.7491839 -4.2733656,4.7424711 -4.2733656,4.7424711 -4.2736766,4.7354694 -4.2756678,4.7287559 -4.2796138,4.7229721 -4.2851598,4.7187106 -4.2916374,4.7160233 -4.2984712,4.7144647 -4.3124553,4.7136306 -4.4727846,4.7136306 -4.4727846,4.535457 -4.2464753,4.535457 -4.2464753,4.535457 -4.2367416,4.5354137 -4.2318979,4.5349259 -4.2272826,4.5334043 -4.2272826,4.5334043 -4.2194414,4.5292106 -4.216059,4.5263204 -4.2132315,4.5228573 -4.2110474,4.5189619 -4.2095429,4.5147767 -4.2080899,4.5060009 -4.2080899,4.5060009 -4.2084496,4.4986888 -4.2093313,4.4951278 -4.2107924,4.4917608 -4.2127985,4.48869 -4.2152802,4.4859863 -4.2213508,4.4819146 -4.2282304,4.4793931 -4.235408,4.4779379 -4.2500262,4.4771605 -4.4938247,4.4771605 -4.4938247,4.4771605 -4.5018411,4.4772413 -4.5097847,4.4782689 -4.517409,4.4807398 -4.5208944,4.4827336 -4.5239545,4.4853316 -4.5264206,4.4885022 -4.5282453,4.4920758 -4.5303705,4.4998093 -4.5311753,4.5077755 -4.5310812,4.5157929 -4.5310811,4.9114077 -4.5310811,4.9114077 -4.5310007,4.9194473 -4.5299581,4.9274108 -4.527509,4.9350671 -4.5255208,4.9385709 -4.522913,4.941636 -4.5197278,4.9440948 -4.5161626,4.9459741 -4.5084726,4.9482987 -4.5004865,4.9491979 -4.4924489,4.9492797 -4.2470911,4.9492798 -4.2470911,4.9492798 -4.2338826,4.9482507 -4.2274889,4.9465106 -4.2215522,4.9435615 -4.2165777,4.9391929 -4.2131307,4.933541 -4.2113513,4.9271593 -4.2109637,4.9205421 -4.2109637,4.9205421 -4.2113659,4.9135138 -4.2133963,4.9067767 -4.2172547,4.9009052 -4.2227397,4.8964962 -4.2291544,4.8936105 -4.2359934,4.8919133 -4.2429843,4.8911246 -4.2500262,4.8909832 -4.4727846,4.8909832 -4.4727846,4.7719272z" transform="matrix(1,0,0,-1,7.9517875,6.0325)" fill="rgb(104,104,104)" fill-rule="nonzero" shaper:cutDepth="0.0000762" stroke-linecap="round" stroke-linejoin="round" /><path d="M-3.8676509,4.9115103 L-3.8676511,4.6052798 -4.079367,4.9290997 -4.079367,4.9290997 -4.0850195,4.9367517 -4.0917589,4.9434643 -4.0957447,4.9460874 -4.1001461,4.947943 -4.1095607,4.9492798 -4.1095607,4.9492798 -4.1177262,4.9480156 -4.1215913,4.9466025 -4.1252495,4.9446228 -4.1286489,4.9421909 -4.131556,4.9392684 -4.1355272,4.9320372 -4.1355272,4.9320372 -4.1366028,4.9273077 -4.1369166,4.9224563 -4.1369641,4.9127419 -4.1369642,4.5152107 -4.1369642,4.5152107 -4.1366955,4.503255 -4.1358973,4.4973262 -4.1340904,4.491632 -4.1340904,4.491632 -4.1293085,4.4855138 -4.1231119,4.4808354 -4.1158295,4.478151 -4.1081238,4.4771605 -4.1081238,4.4771605 -4.1018048,4.477719 -4.0956866,4.4793846 -4.09015,4.4824695 -4.0856284,4.4869142 -4.0823872,4.4923573 -4.0803557,4.4983731 -4.0791877,4.5046032 -4.0786677,4.5109273 -4.0786677,4.8218746 -3.8676511,4.4959102 -3.8676511,4.4959102 -3.8618876,4.4886171 -3.854944,4.4824535 -3.8509104,4.4800993 -3.8465687,4.4784217 -3.8373736,4.4771605 -3.8373736,4.4771605 -3.8312379,4.477638 -3.8253095,4.4792785 -3.8199932,4.4823701 -3.8157114,4.4867809 -3.8126986,4.4921448 -3.8107992,4.4979997 -3.8093544,4.5102089 -3.8093545,4.9140882 -3.8093545,4.9140882 -3.8103614,4.927188 -3.8120887,4.9335243 -3.8150338,4.9394059 -3.8194669,4.9442368 -3.8251388,4.9475485 -3.8315222,4.9490972 -3.8380921,4.9492798 -3.8380921,4.9492798 -3.8450473,4.948912 -3.8518108,4.9472656 -3.8578534,4.9438306 -3.8623991,4.9385649 -3.8652101,4.9322034 -3.8667253,4.9253981 -3.8676509,4.9115103z" transform="matrix(1,0,0,-1,7.9517875,6.0325)" fill="rgb(104,104,104)" fill-rule="nonzero" shaper:cutDepth="0.0000762" stroke-linecap="round" stroke-linejoin="round" /><path d="M-3.5249538,4.6873563 L-3.473534,4.6873562 -3.473534,4.6135597 -3.473534,4.6135597 -3.4737833,4.6029149 -3.474821,4.5923231 -3.4771944,4.5819432 -3.4812315,4.5720976 -3.4812315,4.5720976 -3.4864722,4.5637362 -3.4929404,4.5562818 -3.5004121,4.5498397 -3.5087886,4.5446171 -3.5177686,4.5405317 -3.5272393,4.5377467 -3.5369648,4.5360836 -3.546815,4.535457 -3.546815,4.535457 -3.5583838,4.5359866 -3.5698171,4.5378318 -3.5809337,4.5410732 -3.5915468,4.5457106 -3.6015341,4.5515691 -3.6107898,4.558535 -3.6193532,4.5663286 -3.6271779,4.5748687 -3.6271779,4.5748687 -3.6385133,4.5899021 -3.6485486,4.6058331 -3.6570455,4.6226352 -3.6641955,4.6400533 -3.6700015,4.6579647 -3.6742591,4.6763046 -3.6770181,4.6949304 -3.6779821,4.7137334 -3.6779821,4.7137334 -3.6773834,4.7285815 -3.6756935,4.7433451 -3.6728751,4.7579356 -3.6689889,4.7722786 -3.6640439,4.7862917 -3.6580465,4.7998877 -3.650861,4.8128948 -3.6426758,4.8252972 -3.6426758,4.8252972 -3.6344635,4.8380374 -3.6253623,4.8501533 -3.6151493,4.8613547 -3.6037617,4.8713549 -3.5910999,4.8796796 -3.5843262,4.883085 -3.5773006,4.8859351 -3.5700534,4.8881849 -3.562635,4.8897548 -3.5475334,4.8909834 -3.5475334,4.8909834 -3.5361911,4.8902292 -3.5250918,4.8877521 -3.5145242,4.883577 -3.504761,4.8777467 -3.4958036,4.8707461 -3.4875284,4.862943 -3.4798983,4.8545165 -3.4728154,4.8456189 -3.4728154,4.8456189 -3.4669933,4.8382727 -3.4605893,4.8314343 -3.4569409,4.8284904 -3.4528425,4.8261579 -3.4483626,4.8248874 -3.4436672,4.8244761 -3.4436672,4.8244761 -3.4376921,4.8253534 -3.432069,4.8275622 -3.4270403,4.8309031 -3.4227858,4.8351933 -3.4193043,4.8401311 -3.4166668,4.8455642 -3.4151603,4.8514147 -3.414519,4.8574218 -3.414519,4.8574218 -3.4150214,4.8629656 -3.4162072,4.8683749 -3.4183062,4.8735342 -3.4210437,4.8783694 -3.4275134,4.8873914 -3.4346354,4.8959098 -3.4346354,4.8959098 -3.4463485,4.9072393 -3.4588955,4.9176328 -3.4723256,4.9268641 -3.4866149,4.9346907 -3.5016279,4.941028 -3.5172616,4.9456115 -3.5333165,4.9484 -3.5495861,4.9492798 -3.5495861,4.9492798 -3.5615345,4.9487547 -3.5733947,4.9472104 -3.5851168,4.944837 -3.5966137,4.9415399 -3.6078529,4.93745 -3.6187633,4.9325503 -3.6292143,4.9267348 -3.6391862,4.9201316 -3.6391862,4.9201316 -3.650512,4.9106006 -3.6612018,4.9003605 -3.6712295,4.8894722 -3.680556,4.8779769 -3.6891597,4.8659314 -3.6970373,4.8533986 -3.7042225,4.8404566 -3.7107013,4.8271466 -3.716476,4.8135166 -3.7215512,4.7996108 -3.7259684,4.7854825 -3.72958,4.7711269 -3.7323872,4.7565926 -3.7344939,4.7419404 -3.7357818,4.7271937 -3.7362785,4.7123991 -3.7362785,4.7123991 -3.7352433,4.6901192 -3.732452,4.6679905 -3.7279028,4.6461555 -3.7216051,4.6247589 -3.7135939,4.6039431 -3.7040495,4.5837845 -3.6927828,4.5645354 -3.6800348,4.5462336 -3.6800348,4.5462336 -3.667822,4.5317048 -3.6543722,4.5183202 -3.6396576,4.5063319 -3.6237351,4.4960066 -3.6153175,4.4916204 -3.6066298,4.4877928 -3.5977198,4.4845159 -3.5886182,4.4818189 -3.5793503,4.4797488 -3.5699631,4.4783413 -3.551023,4.4771605 -3.551023,4.4771605 -3.5337587,4.4782221 -3.516736,4.4812747 -3.5001335,4.4861283 -3.4841746,4.4927939 -3.4690166,4.5011263 -3.4549291,4.5111574 -3.4483712,4.5168092 -3.442228,4.5228984 -3.4311458,4.5361755 -3.4311458,4.5361755 -3.4234961,4.5496443 -3.4205635,4.5568151 -3.4183008,4.5642364 -3.4167469,4.5718196 -3.4158402,4.5795157 -3.4152374,4.5949851 -3.4152375,4.7060938 -3.4152375,4.7060938 -3.4153186,4.7142475 -3.4161937,4.7223546 -3.4184908,4.7301729 -3.4203537,4.7338141 -3.4227976,4.7370834 -3.4258623,4.7397741 -3.4293719,4.7418777 -3.4370709,4.7445413 -3.4451614,4.7455633 -3.4533149,4.7456527 -3.5221745,4.7456527 -3.5221745,4.7456527 -3.5339575,4.7454594 -3.5398124,4.7447838 -3.5453781,4.7428816 -3.5453781,4.7428816 -3.5527975,4.7387024 -3.5559643,4.7358723 -3.5586639,4.73254 -3.5608771,4.7288618 -3.5624596,4.7249159 -3.5637497,4.7165045 -3.5637497,4.7165045 -3.5627997,4.7094669 -3.5604734,4.7027591 -3.5563429,4.6969859 -3.551023,4.6922827 -3.551023,4.6922827 -3.5451296,4.6890226 -3.538468,4.6878232 -3.5249538,4.6873563z" transform="matrix(1,0,0,-1,7.9517875,6.0325)" fill="rgb(104,104,104)" fill-rule="nonzero" shaper:cutDepth="0.0000762" stroke-linecap="round" stroke-linejoin="round" /><path d="M-3.2838651,4.5095931 L-3.2838651,4.5095931 -3.2841313,4.4990702 -3.2849131,4.493866 -3.2865336,4.4888609 -3.2865336,4.4888609 -3.2909219,4.4839031 -3.2965409,4.4803689 -3.3027506,4.4780596 -3.3093185,4.4771605 -3.3093185,4.4771605 -3.3166452,4.4782193 -3.3234687,4.4810641 -3.3294005,4.4855101 -3.3335402,4.491632 -3.3335402,4.491632 -3.3350025,4.4959248 -3.3354612,4.5004404 -3.335593,4.5095229 -3.3355929,4.915513 -3.3355929,4.915513 -3.3352472,4.9268019 -3.3343906,4.9323844 -3.332206,4.9375795 -3.332206,4.9375795 -3.3276238,4.9423966 -3.3221422,4.9461503 -3.3159167,4.9484753 -3.3093185,4.9492798 -3.3093185,4.9492798 -3.3035105,4.9488898 -3.2978882,4.9473943 -3.292931,4.9443582 -3.2890792,4.9399961 -3.2864638,4.9348043 -3.2849102,4.9291873 -3.2838651,4.9176068 -3.2838651,4.5095931z" transform="matrix(1,0,0,-1,7.9517875,6.0325)" fill="rgb(104,104,104)" fill-rule="nonzero" shaper:cutDepth="0.0000762" stroke-linecap="round" stroke-linejoin="round" /><path d="M-2.9349073,4.9115103 L-2.9349075,4.6052798 -3.1466234,4.9290997 -3.1466234,4.9290997 -3.152276,4.9367517 -3.1590154,4.9434643 -3.1630011,4.9460874 -3.1674025,4.947943 -3.1768172,4.9492798 -3.1768172,4.9492798 -3.1849827,4.9480156 -3.1888478,4.9466025 -3.192506,4.9446228 -3.1959053,4.9421909 -3.1988125,4.9392684 -3.2027837,4.9320372 -3.2027837,4.9320372 -3.2038593,4.9273077 -3.2041731,4.9224563 -3.2042206,4.9127419 -3.2042207,4.5152107 -3.2042207,4.5152107 -3.203952,4.503255 -3.2031537,4.4973262 -3.2013468,4.491632 -3.2013468,4.491632 -3.196565,4.4855138 -3.1903684,4.4808354 -3.1830859,4.478151 -3.1753803,4.4771605 -3.1753803,4.4771605 -3.1690612,4.477719 -3.1629431,4.4793846 -3.1574065,4.4824695 -3.1528849,4.4869142 -3.1496436,4.4923573 -3.1476122,4.4983731 -3.1464442,4.5046032 -3.1459241,4.5109273 -3.1459241,4.8218746 -2.9349075,4.4959102 -2.9349075,4.4959102 -2.9291441,4.4886171 -2.9222005,4.4824535 -2.9181669,4.4800993 -2.9138252,4.4784217 -2.9046301,4.4771605 -2.9046301,4.4771605 -2.8984944,4.477638 -2.892566,4.4792785 -2.8872496,4.4823701 -2.8829679,4.4867809 -2.8799551,4.4921448 -2.8780557,4.4979997 -2.8766109,4.5102089 -2.876611,4.9140882 -2.876611,4.9140882 -2.8776179,4.927188 -2.8793451,4.9335243 -2.8822903,4.9394059 -2.8867233,4.9442368 -2.8923953,4.9475485 -2.8987787,4.9490972 -2.9053486,4.9492798 -2.9053486,4.9492798 -2.9123037,4.948912 -2.9190673,4.9472656 -2.9251099,4.9438306 -2.9296555,4.9385649 -2.9324666,4.9322034 -2.9339818,4.9253981 -2.9349073,4.9115103z" transform="matrix(1,0,0,-1,7.9517875,6.0325)" fill="rgb(104,104,104)" fill-rule="nonzero" shaper:cutDepth="0.0000762" stroke-linecap="round" stroke-linejoin="round" /><path d="M-2.7452385,4.7719272 L-2.5820495,4.7719272 -2.5820495,4.7719272 -2.5753274,4.7717688 -2.5686669,4.7709024 -2.5621983,4.7690596 -2.5562221,4.7659989 -2.5512315,4.7615012 -2.5478992,4.7556764 -2.5461774,4.7491839 -2.5458195,4.7424711 -2.5458195,4.7424711 -2.5461305,4.7354694 -2.5481217,4.7287559 -2.5520677,4.7229721 -2.5576137,4.7187106 -2.5640913,4.7160233 -2.570925,4.7144647 -2.5849092,4.7136306 -2.7452385,4.7136306 -2.7452385,4.535457 -2.5189292,4.535457 -2.5189292,4.535457 -2.5091955,4.5354137 -2.5043518,4.5349259 -2.4997365,4.5334043 -2.4997365,4.5334043 -2.4918953,4.5292106 -2.4885129,4.5263204 -2.4856854,4.5228573 -2.4835013,4.5189619 -2.4819968,4.5147767 -2.4805438,4.5060009 -2.4805438,4.5060009 -2.4809034,4.4986888 -2.4817852,4.4951278 -2.4832463,4.4917608 -2.4852524,4.48869 -2.4877341,4.4859863 -2.4938047,4.4819146 -2.5006843,4.4793931 -2.5078619,4.4779379 -2.5224801,4.4771605 -2.7662786,4.4771605 -2.7662786,4.4771605 -2.774295,4.4772413 -2.7822386,4.4782689 -2.7898629,4.4807398 -2.7933483,4.4827336 -2.7964084,4.4853316 -2.7988745,4.4885022 -2.8006992,4.4920758 -2.8028244,4.4998093 -2.8036292,4.5077755 -2.8035351,4.5157929 -2.803535,4.9114077 -2.803535,4.9114077 -2.8034546,4.9194473 -2.802412,4.9274108 -2.7999629,4.9350671 -2.7979747,4.9385709 -2.7953669,4.941636 -2.7921817,4.9440948 -2.7886165,4.9459741 -2.7809265,4.9482987 -2.7729404,4.9491979 -2.7649028,4.9492797 -2.519545,4.9492798 -2.519545,4.9492798 -2.5063365,4.9482507 -2.4999428,4.9465106 -2.4940061,4.9435615 -2.4890316,4.9391929 -2.4855846,4.933541 -2.4838052,4.9271593 -2.4834176,4.9205421 -2.4834176,4.9205421 -2.4838198,4.9135138 -2.4858502,4.9067767 -2.4897086,4.9009052 -2.4951936,4.8964962 -2.5016083,4.8936105 -2.5084473,4.8919133 -2.5154381,4.8911246 -2.5224801,4.8909832 -2.7452385,4.8909832 -2.7452385,4.7719272z" transform="matrix(1,0,0,-1,7.9517875,6.0325)" fill="rgb(104,104,104)" fill-rule="nonzero" shaper:cutDepth="0.0000762" stroke-linecap="round" stroke-linejoin="round" /><path d="M-1.7157106,4.5302226 L-1.7157106,4.5302226 -1.7129394,4.5267331 -1.7129394,4.5267331 -1.7098005,4.5225423 -1.7072653,4.5179628 -1.7057364,4.5129557 -1.7052418,4.5077457 -1.7052418,4.5077457 -1.7058232,4.5020712 -1.7075652,4.4966423 -1.7103804,4.4916837 -1.7141805,4.4874307 -1.7187482,4.4840181 -1.7239109,4.4815926 -1.7294291,4.4801599 -1.7351085,4.4796238 -1.7351085,4.4796238 -1.743348,4.480437 -1.747301,4.4817305 -1.7508788,4.483812 -1.7570111,4.4893665 -1.7622238,4.4957983 -1.8941949,4.6742189 -1.9570046,4.6742189 -1.9570046,4.5155459 -1.9570046,4.5155459 -1.9579589,4.5017821 -1.9595584,4.4950742 -1.9622811,4.4887238 -1.9665198,4.4833018 -1.9722428,4.4794566 -1.9788502,4.4774853 -1.9857423,4.4771605 -1.9857423,4.4771605 -1.9906008,4.4775208 -1.9953648,4.4785337 -1.9999073,4.4802945 -2.0041126,4.4827506 -2.0078783,4.4858433 -2.0109292,4.4896368 -2.0132252,4.4939335 -2.0145826,4.4986112 -2.0145826,4.4986112 -2.0152838,4.508424 -2.0153011,4.5182753 -2.015301,4.9084313 -2.015301,4.9084313 -2.0152803,4.9171357 -2.0140076,4.9257436 -2.0107924,4.9338257 -2.0083465,4.9374363 -2.0053528,4.9406045 -2.0018782,4.9432388 -1.998051,4.9453236 -1.9897808,4.9480422 -1.9811607,4.9492078 -1.9724544,4.9492797 -1.8523173,4.9492798 -1.8523173,4.9492798 -1.8384173,4.9486045 -1.824599,4.9469883 -1.8109224,4.9444034 -1.7975466,4.9405779 -1.7845994,4.9354758 -1.772212,4.929139 -1.7605572,4.9215372 -1.7497913,4.9127231 -1.7399665,4.9028689 -1.731272,4.8920063 -1.7238806,4.8802178 -1.7179419,4.8676345 -1.7133402,4.8545035 -1.7101315,4.8409631 -1.7082283,4.8271796 -1.7073972,4.813289 -1.7073972,4.813289 -1.7079417,4.8011136 -1.7093135,4.7890041 -1.7117078,4.7770542 -1.7150895,4.7653459 -1.7194275,4.7539571 -1.7248227,4.7430294 -1.731329,4.7327251 -1.7386863,4.7230095 -1.7468705,4.7139796 -1.7559221,4.7058196 -1.7657089,4.6985573 -1.776107,4.6922018 -1.7870626,4.6868633 -1.7984352,4.6824821 -1.8101183,4.6790144 -1.8219998,4.6763009 -1.7157106,4.5302226z M-1.9570046,4.8909832 L-1.9570046,4.7325155 -1.855191,4.7325155 -1.855191,4.7325155 -1.8435142,4.732675 -1.8318853,4.7336629 -1.8204574,4.7360426 -1.8097239,4.7406236 -1.8097239,4.7406236 -1.8001399,4.7462259 -1.791454,4.7531381 -1.7838413,4.7612171 -1.777419,4.770272 -1.7723337,4.7801397 -1.7686556,4.790614 -1.766462,4.8014952 -1.7656936,4.8125705 -1.7656936,4.8125705 -1.7665799,4.8237965 -1.7690038,4.834792 -1.7729468,4.8453393 -1.7783305,4.8552292 -1.7850659,4.8642532 -1.7930129,4.8722301 -1.801995,4.8790202 -1.8118792,4.8844148 -1.8118792,4.8844148 -1.8210016,4.8879901 -1.830584,4.8900404 -1.8501559,4.8909832 -1.9570046,4.8909832z" transform="matrix(1,0,0,-1,7.9517875,6.0325)" fill="rgb(104,104,104)" fill-rule="nonzero" shaper:cutDepth="0.0000762" stroke-linecap="round" stroke-linejoin="round" /><path d="M4.4193914,4.7719272 L4.5790909,4.7719272 4.5790909,4.7719272 4.5861962,4.7717818 4.5932516,4.771001 4.6001681,4.7693494 4.6066838,4.7665351 4.6122989,4.76219 4.6163181,4.7563492 4.6183985,4.7495621 4.6188105,4.7424711 4.6188105,4.7424711 4.6175538,4.7339019 4.6161334,4.7298134 4.6140314,4.7260048 4.6112951,4.7226163 4.6080066,4.7197996 4.6003362,4.7157861 4.6003362,4.7157861 4.5945678,4.7145371 4.5886891,4.7139206 4.576883,4.7136306 4.4193914,4.7136306 4.4193914,4.5154433 4.4193914,4.5154433 4.4193446,4.5056083 4.4188666,4.5007111 4.4173387,4.4960453 4.4173387,4.4960453 4.4157801,4.4918984 4.4135266,4.4880845 4.410576,4.4847809 4.4071004,4.4820312 4.4032048,4.4798759 4.3990196,4.4783994 4.3902432,4.4771605 4.3902432,4.4771605 4.3819859,4.4784237 4.3780152,4.4797111 4.3742616,4.4815753 4.3708309,4.4839941 4.3678559,4.486926 4.3632503,4.49389 4.3632503,4.49389 4.3617227,4.4991087 4.3612491,4.5045351 4.3610948,4.5154236 4.3610949,4.9097655 4.3610949,4.9097655 4.3615249,4.918161 4.3630348,4.9264296 4.3661905,4.934214 4.368436,4.9377811 4.3711635,4.9409845 4.3744026,4.9436703 4.3780402,4.9457977 4.385992,4.9485145 4.3943299,4.9495376 4.402734,4.9492797 4.6436481,4.9492798 4.6436481,4.9492798 4.6569974,4.9478751 4.6634908,4.9460996 4.6694905,4.9431097 4.6746377,4.9387768 4.6783059,4.933166 4.680492,4.9268121 4.6812123,4.9201316 4.6812123,4.9201316 4.6806196,4.9133782 4.6785381,4.9069286 4.6749117,4.9012224 4.6696924,4.8968864 4.6636033,4.893937 4.6570546,4.8921439 4.6503481,4.8912117 4.6435687,4.8909832 4.4193914,4.8909832 4.4193914,4.7719272z" transform="matrix(1,0,0,-1,7.9517875,6.0325)" fill="rgb(104,104,104)" fill-rule="nonzero" shaper:cutDepth="0.0000762" stroke-linecap="round" stroke-linejoin="round" /><path d="M4.8135084,4.6519473 L4.8135084,4.6519473 4.8137706,4.6358574 4.8152668,4.619841 4.816859,4.611949 4.8193161,4.6042773 4.8264403,4.5898534 4.8264403,4.5898534 4.8339298,4.5779342 4.8428741,4.5670664 4.8532351,4.5575391 4.8648706,4.5496171 4.8774522,4.5433091 4.8908303,4.5389257 4.9046559,4.5362954 4.9187089,4.535457 4.9187089,4.535457 4.9344509,4.536578 4.9422441,4.5378263 4.9499225,4.5396799 4.9574301,4.54213 4.9647246,4.5451505 4.9785412,4.5527723 4.985003,4.5573182 4.9910693,4.5623678 4.9966602,4.5679352 5.0017971,4.5739396 5.0064958,4.580296 5.010649,4.5870016 5.0174434,4.6012458 5.0174434,4.6012458 5.0216145,4.6139907 5.0236748,4.6272442 5.0244052,4.6406395 5.024525,4.6540529 5.0245252,4.9105866 5.0245252,4.9105866 5.0254775,4.9245984 5.0270637,4.9314492 5.0298659,4.9378908 5.0343466,4.9432876 5.0403009,4.9470006 5.0470683,4.9488787 5.054084,4.9492798 5.054084,4.9492798 5.0610672,4.9488823 5.0678179,4.9470783 5.0737101,4.9433107 5.0761312,4.9407856 5.0780272,4.9378474 5.0806117,4.9313372 5.0820677,4.9244978 5.0828215,4.9105345 5.0828216,4.6476367 5.0828216,4.6476367 5.0819573,4.6311099 5.0799646,4.614683 5.0765911,4.5984808 5.0717797,4.5826479 5.0655009,4.5673373 5.0577181,4.5527335 5.0483786,4.5390742 5.0376517,4.5264737 5.0256939,4.5150353 5.0125919,4.504928 4.9984244,4.4963785 4.9833999,4.4894438 4.9677408,4.484095 4.9516253,4.4803315 4.9352329,4.4780743 4.9187089,4.4771605 4.9187089,4.4771605 4.9064087,4.47763 4.8941733,4.478971 4.8820635,4.4811736 4.870104,4.4840895 4.8584698,4.4881048 4.8471316,4.4928964 4.8361976,4.4985486 4.8257507,4.5050577 4.8158062,4.5123111 4.8064579,4.5203181 4.797783,4.5290503 4.7898401,4.5384529 4.7826972,4.5484772 4.7762846,4.5589839 4.7706376,4.5699204 4.7657833,4.5812321 4.7657833,4.5812321 4.7601358,4.5979364 4.7568417,4.615265 4.7555359,4.6328484 4.7552118,4.6504808 4.7552119,4.9156157 4.7552119,4.9156157 4.7556502,4.9219929 4.7567022,4.9282941 4.7587083,4.9343666 4.7619814,4.9398459 4.766539,4.9443236 4.7721958,4.9472834 4.7783953,4.9488243 4.7847707,4.9492798 4.7847707,4.9492798 4.7913165,4.949002 4.7976581,4.9473705 4.8033569,4.9441626 4.8077456,4.9393048 4.8107197,4.9334699 4.8124718,4.9271588 4.8135084,4.9141066 4.8135084,4.6519473z" transform="matrix(1,0,0,-1,7.9517875,6.0325)" fill="rgb(104,104,104)" fill-rule="nonzero" shaper:cutDepth="0.0000762" stroke-linecap="round" stroke-linejoin="round" /><path d="M5.214194,4.7719272 L5.377383,4.7719272 5.377383,4.7719272 5.3841051,4.7717688 5.3907656,4.7709024 5.3972342,4.7690596 5.4032104,4.7659989 5.4082011,4.7615012 5.4115333,4.7556764 5.4132552,4.7491839 5.4136131,4.7424711 5.4136131,4.7424711 5.413302,4.7354694 5.4113108,4.7287559 5.4073648,4.7229721 5.4018188,4.7187106 5.3953412,4.7160233 5.3885075,4.7144647 5.3745233,4.7136306 5.214194,4.7136306 5.214194,4.535457 5.4405033,4.535457 5.4405033,4.535457 5.450237,4.5354137 5.4550807,4.5349259 5.459696,4.5334043 5.459696,4.5334043 5.4675373,4.5292106 5.4709196,4.5263204 5.4737471,4.5228573 5.4759312,4.5189619 5.4774358,4.5147767 5.4788887,4.5060009 5.4788887,4.5060009 5.4785291,4.4986888 5.4776474,4.4951278 5.4761863,4.4917608 5.4741801,4.48869 5.4716984,4.4859863 5.4656278,4.4819146 5.4587482,4.4793931 5.4515706,4.4779379 5.4369524,4.4771605 5.1931539,4.4771605 5.1931539,4.4771605 5.1851375,4.4772413 5.1771939,4.4782689 5.1695696,4.4807398 5.1660842,4.4827336 5.1630241,4.4853316 5.1605581,4.4885022 5.1587334,4.4920758 5.1566081,4.4998093 5.1558033,4.5077755 5.1558974,4.5157929 5.1558975,4.9114077 5.1558975,4.9114077 5.1559779,4.9194473 5.1570205,4.9274108 5.1594696,4.9350671 5.1614578,4.9385709 5.1640656,4.941636 5.1672508,4.9440948 5.170816,4.9459741 5.178506,4.9482987 5.1864922,4.9491979 5.1945297,4.9492797 5.4398875,4.9492798 5.4398875,4.9492798 5.453096,4.9482507 5.4594897,4.9465106 5.4654265,4.9435615 5.4704009,4.9391929 5.4738479,4.933541 5.4756273,4.9271593 5.4760149,4.9205421 5.4760149,4.9205421 5.4756127,4.9135138 5.4735823,4.9067767 5.4697239,4.9009052 5.4642389,4.8964962 5.4578242,4.8936105 5.4509852,4.8919133 5.4439944,4.8911246 5.4369524,4.8909832 5.214194,4.8909832 5.214194,4.7719272z" transform="matrix(1,0,0,-1,7.9517875,6.0325)" fill="rgb(104,104,104)" fill-rule="nonzero" shaper:cutDepth="0.0000762" stroke-linecap="round" stroke-linejoin="round" /><path d="M5.8452943,4.5288884 L5.608311,4.5288884 5.608311,4.917578 5.608311,4.917578 5.6071407,4.9291408 5.60551,4.934728 5.6027855,4.9398586 5.5989003,4.9441873 5.5939379,4.9472035 5.5883455,4.9487922 5.5825497,4.9492798 5.5825497,4.9492798 5.5767893,4.948782 5.5712643,4.9470891 5.566394,4.9439779 5.5624658,4.9397438 5.5597461,4.934646 5.5580062,4.929126 5.5569927,4.9234391 5.5565831,4.9176684 5.556583,4.512096 5.556583,4.512096 5.5565157,4.5051492 5.5574308,4.4982681 5.5597143,4.4917088 5.5635967,4.4859596 5.5689662,4.4815701 5.5753748,4.4788878 5.5821805,4.4775322 5.5891183,4.4771605 5.8402919,4.4771605 5.8402919,4.4771605 5.8506818,4.4771695 5.855873,4.4773795 5.8608948,4.4785974 5.8608948,4.4785974 5.8682311,4.4823234 5.8714453,4.4848937 5.8741789,4.487997 5.8763383,4.4915224 5.8778608,4.4953452 5.879369,4.503435 5.879369,4.503435 5.8779528,4.5112719 5.8764405,4.514947 5.8743467,4.51837 5.8717818,4.5214667 5.8687608,4.5240517 5.8616132,4.5275541 5.8616132,4.5275541 5.8576268,4.5285599 5.8535237,4.5288715 5.8452943,4.5288884z" transform="matrix(1,0,0,-1,7.9517875,6.0325)" fill="rgb(104,104,104)" fill-rule="nonzero" shaper:cutDepth="0.0000762" stroke-linecap="round" stroke-linejoin="round" /><path d="M4.6689988,-1.2018147 L4.6689988,-1.2018147 4.6687796,-1.2124143 4.6679695,-1.217646 4.6662277,-1.2226495 4.6662277,-1.2226495 4.6615767,-1.2291509 4.6586274,-1.231851 4.6552666,-1.2340567 4.6477901,-1.2368668 4.6398506,-1.2378395 4.6398506,-1.2378395 4.6306236,-1.2364268 4.6263033,-1.2347048 4.6222608,-1.2323137 4.6185642,-1.2294587 4.6154715,-1.2259741 4.6130378,-1.2219939 4.6114208,-1.2176204 4.6114208,-1.2176204 4.6107297,-1.2079888 4.6107022,-1.1983253 4.6107022,-0.8240168 4.5149442,-0.8240166 4.5149442,-0.8240166 4.5080791,-0.8236839 4.5012823,-0.822705 4.4946754,-0.820795 4.4885882,-0.8176292 4.4834582,-0.8130544 4.4799611,-0.8071557 4.4779538,-0.8005874 4.47738,-0.7937394 4.47738,-0.7937394 4.4779635,-0.7866639 4.4788643,-0.7832203 4.4803319,-0.7799838 4.4848069,-0.7744774 4.4907128,-0.7705546 4.4973727,-0.7680898 4.5043155,-0.7665758 4.5113739,-0.7658484 4.5184774,-0.7657203 4.7661938,-0.7657202 4.7661938,-0.7657202 4.772972,-0.7660632 4.7796865,-0.7670446 4.7861782,-0.7690169 4.7921836,-0.7721803 4.7971422,-0.7767968 4.8006203,-0.7826184 4.80248,-0.7891412 4.8031423,-0.7958947 4.8031423,-0.7958947 4.8024978,-0.802728 4.8003287,-0.8092303 4.7962491,-0.8147493 4.7907734,-0.8188617 4.7844353,-0.8215125 4.7777507,-0.8230637 4.7640613,-0.8240168 4.6689988,-0.8240168 4.6689988,-1.2018147z" transform="matrix(1,0,0,-1,7.9517875,6.0325)" fill="rgb(104,104,104)" fill-rule="nonzero" shaper:cutDepth="0.0000762" stroke-linecap="round" stroke-linejoin="round" /><path d="M4.9317435,-1.2054069 L4.9317435,-1.2054069 4.9314772,-1.2159298 4.9306955,-1.221134 4.929075,-1.2261391 4.929075,-1.2261391 4.9246867,-1.2310969 4.9190676,-1.2346311 4.9128579,-1.2369404 4.9062901,-1.2378395 4.9062901,-1.2378395 4.8989633,-1.2367807 4.8921398,-1.2339359 4.8862081,-1.2294899 4.8820683,-1.223368 4.8820683,-1.223368 4.8806061,-1.2190752 4.8801474,-1.2145596 4.8800155,-1.2054771 4.8800156,-0.799487 4.8800156,-0.799487 4.8803614,-0.7881981 4.881218,-0.7826156 4.8834026,-0.7774205 4.8834026,-0.7774205 4.8879847,-0.7726034 4.8934663,-0.7688497 4.8996919,-0.7665247 4.9062901,-0.7657202 4.9062901,-0.7657202 4.9120981,-0.7661102 4.9177204,-0.7676057 4.9226776,-0.7706418 4.9265293,-0.7750039 4.9291448,-0.7801957 4.9306983,-0.7858127 4.9317435,-0.7973932 4.9317435,-1.2054069z" transform="matrix(1,0,0,-1,7.9517875,6.0325)" fill="rgb(104,104,104)" fill-rule="nonzero" shaper:cutDepth="0.0000762" stroke-linecap="round" stroke-linejoin="round" /><path d="M5.3098495,-0.7843997 L5.1883252,-0.9885764 5.0669068,-0.7871006 5.0669068,-0.7871006 5.0623819,-0.7797748 5.0570093,-0.7730468 5.0536191,-0.7703647 5.0497585,-0.7684132 5.0455848,-0.7674569 5.0412546,-0.767157 5.0412546,-0.767157 5.0344168,-0.7675191 5.0277982,-0.7692548 5.0218867,-0.7726807 5.0173066,-0.7777753 5.0141857,-0.7838501 5.0124031,-0.7904731 5.0115426,-0.797257 5.0113879,-0.8041055 5.0113878,-1.1992747 5.0113878,-1.1992747 5.0123307,-1.2130331 5.013912,-1.2197466 5.0166339,-1.2260859 5.0207685,-1.231602 5.0264354,-1.2355053 5.033031,-1.2375145 5.0399204,-1.2378395 5.0399204,-1.2378395 5.048091,-1.236721 5.0557355,-1.2336744 5.05929,-1.2314894 5.0624271,-1.2288247 5.0669133,-1.2219311 5.0669133,-1.2219311 5.0685554,-1.2167931 5.0694197,-1.211473 5.0696844,-1.2006857 5.0696844,-0.9062835 5.157777,-1.0538432 5.157777,-1.0538432 5.1631249,-1.0619939 5.1695287,-1.0693338 5.1734982,-1.072175 5.1780251,-1.0740407 5.1828178,-1.0748609 5.1877142,-1.0750609 5.1877142,-1.0750609 5.1931918,-1.0749242 5.1985614,-1.07392 5.2035442,-1.0716195 5.2076732,-1.068046 5.214462,-1.0594647 5.2203521,-1.0502234 5.3069755,-0.9062835 5.3069755,-1.2021124 5.3069755,-1.2021124 5.3072774,-1.212827 5.30788,-1.2181604 5.309131,-1.223368 5.309131,-1.223368 5.3140886,-1.2297591 5.3172565,-1.2322891 5.3208072,-1.2342817 5.3285058,-1.236766 5.3365345,-1.2378395 5.3365345,-1.2378395 5.3426276,-1.2372833 5.348542,-1.2357247 5.3539145,-1.2328048 5.3583462,-1.2285966 5.361532,-1.2233756 5.3635926,-1.2176134 5.3647456,-1.2116065 5.3652722,-1.2055096 5.3652721,-0.7965706 5.3652721,-0.7965706 5.3651802,-0.7905571 5.3644093,-0.784604 5.3627536,-0.7788145 5.3597246,-0.7736416 5.3553215,-0.7695535 5.3498745,-0.7670237 5.3439821,-0.7658599 5.3379713,-0.7657202 5.3379713,-0.7657202 5.3290888,-0.7666571 5.3248915,-0.7682267 5.3210939,-0.7706026 5.3149369,-0.7770606 5.3098495,-0.7843997z" transform="matrix(1,0,0,-1,7.9517875,6.0325)" fill="rgb(104,104,104)" fill-rule="nonzero" shaper:cutDepth="0.0000762" stroke-linecap="round" stroke-linejoin="round" /><path d="M5.4966445,-0.9430728 L5.6598335,-0.9430728 5.6598335,-0.9430728 5.6665556,-0.9432312 5.6732162,-0.9440976 5.6796847,-0.9459404 5.6856609,-0.9490011 5.6906516,-0.9534988 5.6939838,-0.9593236 5.6957057,-0.9658161 5.6960636,-0.9725289 5.6960636,-0.9725289 5.6957525,-0.9795306 5.6937613,-0.9862441 5.6898153,-0.9920279 5.6842693,-0.9962894 5.6777917,-0.9989767 5.670958,-1.0005353 5.6569738,-1.0013694 5.4966445,-1.0013694 5.4966445,-1.179543 5.7229538,-1.179543 5.7229538,-1.179543 5.7326875,-1.1795863 5.7375312,-1.1800741 5.7421465,-1.1815957 5.7421465,-1.1815957 5.7499878,-1.1857894 5.7533701,-1.1886796 5.7561976,-1.1921427 5.7583817,-1.1960381 5.7598863,-1.2002233 5.7613392,-1.2089991 5.7613392,-1.2089991 5.7609796,-1.2163112 5.7600979,-1.2198722 5.7586368,-1.2232392 5.7566306,-1.22631 5.7541489,-1.2290137 5.7480783,-1.2330854 5.7411987,-1.2356069 5.7340211,-1.2370621 5.7194029,-1.2378395 5.4756044,-1.2378395 5.4756044,-1.2378395 5.467588,-1.2377587 5.4596445,-1.2367311 5.4520201,-1.2342602 5.4485347,-1.2322664 5.4454746,-1.2296684 5.4430086,-1.2264978 5.4411839,-1.2229242 5.4390586,-1.2151907 5.4382538,-1.2072245 5.4383479,-1.1992071 5.438348,-0.8035923 5.438348,-0.8035923 5.4384284,-0.7955527 5.439471,-0.7875892 5.4419201,-0.7799329 5.4439083,-0.7764291 5.4465161,-0.773364 5.4497013,-0.7709052 5.4532665,-0.7690259 5.4609565,-0.7667013 5.4689427,-0.7658021 5.4769802,-0.7657203 5.722338,-0.7657202 5.722338,-0.7657202 5.7355465,-0.7667493 5.7419402,-0.7684894 5.747877,-0.7714385 5.7528514,-0.7758071 5.7562984,-0.781459 5.7580778,-0.7878407 5.7584654,-0.7944579 5.7584654,-0.7944579 5.7580632,-0.8014862 5.7560328,-0.8082233 5.7521744,-0.8140948 5.7466894,-0.8185038 5.7402747,-0.8213895 5.7334357,-0.8230867 5.7264449,-0.8238754 5.7194029,-0.8240168 5.4966445,-0.8240168 5.4966445,-0.9430728z" transform="matrix(1,0,0,-1,7.9517875,6.0325)" fill="rgb(104,104,104)" fill-rule="nonzero" shaper:cutDepth="0.0000762" stroke-linecap="round" stroke-linejoin="round" /><path d="M0.4111625,-4.9149 L2.2272625,-4.9149 A0.15875,0.15875 270 0,1 2.3860125,-4.75615 L2.3860125,5.06095 A0.15875,0.15875 0 0,1 2.2272625,5.2197 L0.4111625,5.2197 A0.15875,0.15875 90 0,1 0.2524125,5.06095 L0.2524125,-4.75615 A0.15875,0.15875 180 0,1 0.4111625,-4.9149z" transform="matrix(1,0,0,-1,7.9517875,6.0325)" fill="rgb(255,255,255)" stroke="rgb(0,0,0)" stroke-width="0.0010cm" stroke-linecap="round" stroke-linejoin="round" shaper:cutDepth="0.0015875" /><path d="M-6.1261625,4.3508782 A0.15875,0.15875 135 0,0 -6.0139093,4.397375 L-0.9996657,4.397375 A0.15875,0.15875 90 0,0 -0.8874125,4.3508782 L-0.2989093,3.762375 A0.15875,0.15875 45 0,0 -0.2524125,3.6501218 L-0.2524125,-3.6501218 A0.15875,0.15875 0 0,0 -0.2989093,-3.762375 L-0.8874125,-4.3508782 A0.15875,0.15875 315 0,0 -0.9996657,-4.397375 L-6.0139093,-4.397375 A0.15875,0.15875 270 0,0 -6.1261625,-4.3508782 L-6.7146657,-3.762375 A0.15875,0.15875 225 0,0 -6.7611625,-3.6501218 L-6.7611625,3.6501218 A0.15875,0.15875 180 0,0 -6.7146657,3.762375 L-6.1261625,4.3508782z" transform="matrix(1,0,0,-1,7.9517875,6.0325)" fill="rgb(255,255,255)" stroke="rgb(0,0,0)" stroke-width="0.0010cm" stroke-linecap="round" stroke-linejoin="round" shaper:cutDepth="0.0015875" /><path d="M7.3210907,3.762375 A0.15875,0.15875 45 0,0 7.3675875,3.6501218 L7.3675875,-0.523875 A0.15875,0.15875 0 0,0 7.2088375,-0.682625 L3.0495875,-0.682625 A0.15875,0.15875 270 0,0 2.8908375,-0.523875 L2.8908375,3.6501218 A0.15875,0.15875 180 0,0 2.9373343,3.762375 L3.5258375,4.3508782 A0.15875,0.15875 135 0,0 3.6380907,4.397375 L6.6203343,4.397375 A0.15875,0.15875 90 0,0 6.7325875,4.3508782 L7.3210907,3.762375z" transform="matrix(1,0,0,-1,7.9517875,6.0325)" fill="rgb(255,255,255)" stroke="rgb(0,0,0)" stroke-width="0.0010cm" stroke-linecap="round" stroke-linejoin="round" shaper:cutDepth="0.0015875" /><path d="M2.9373343,-3.762375 A0.15875,0.15875 225 0,0 2.8908375,-3.6501218 L2.8908375,-1.476375 A0.15875,0.15875 180 0,0 3.0495875,-1.317625 L7.2088375,-1.317625 A0.15875,0.15875 90 0,0 7.3675875,-1.476375 L7.3675875,-3.6501218 A0.15875,0.15875 0 0,0 7.3210907,-3.762375 L6.7325875,-4.3508782 A0.15875,0.15875 315 0,0 6.6203343,-4.397375 L3.6380907,-4.397375 A0.15875,0.15875 270 0,0 3.5258375,-4.3508782 L2.9373343,-3.762375z" transform="matrix(1,0,0,-1,7.9517875,6.0325)" fill="rgb(255,255,255)" stroke="rgb(0,0,0)" stroke-width="0.0010cm" stroke-linecap="round" stroke-linejoin="round" shaper:cutDepth="0.0015875" /></svg>