<?xml version="1.0" encoding="utf-8"?>
<!-- Generator: Fusion 360, Shaper Origin Export Add-In, Version 1.6.10  -->
<svg xmlns="http://www.w3.org/2000/svg" xmlns:xlink="http://www.w3.org/1999/xlink" xmlns:shaper="http://www.shapertools.com/namespaces/shaper" shaper:fusionaddin="version:1.6.10" width="1.5494cm" height="0.9144cm" version="1.1" x="0cm" y="0cm" viewBox="0 0 1.5494 0.9144" enable-background="new 0 0 1.5494 0.9144" xml:space="preserve"><path d="M-0.7747,0.4064 L-0.7747,-0.4064 A0.0508,0.0508 180 0,1 -0.7239,-0.4572 L0.7239,-0.4572 A0.0508,0.0508 270 0,1 0.7747,-0.4064 L0.7747,0.4064 A0.0508,0.0508 0 0,1 0.7239,0.4572 L-0.7239,0.4572 A0.0508,0.0508 90 0,1 -0.7747,0.4064z" transform="matrix(1,0,0,-1,0.7747,0.4572)" fill="rgb(0,0,0)" shaper:cutDepth="0.0015875" stroke-linecap="round" stroke-linejoin="round" /><path d="M0.4005214,0.1308344 L0.5407692,0.1308344 0.3835613,-0.1580819 0.3835613,-0.1580819 0.3791389,-0.1669632 0.3776905,-0.1717167 0.3772849,-0.176659 0.3772849,-0.176659 0.3781034,-0.1826396 0.3803195,-0.1882462 0.3838851,-0.1931122 0.3886158,-0.1968575 0.3886158,-0.1968575 0.393661,-0.1991194 0.3991405,-0.1999241 0.4102101,-0.2002239 0.5685785,-0.2002238 0.5685785,-0.2002238 0.5796437,-0.1994558 0.5850323,-0.1981575 0.590141,-0.1959749 0.5945308,-0.192607 0.5976919,-0.1880533 0.5993677,-0.1827695 0.5997147,-0.1772337 0.5997147,-0.1772337 0.5994808,-0.1716584 0.5979718,-0.1662895 0.5950026,-0.1615769 0.590696,-0.1580366 0.5856198,-0.1557236 0.5802103,-0.1543419 0.5690885,-0.1535867 0.4408826,-0.1535865 0.5963879,0.1330795 0.5963879,0.1330795 0.6012362,0.1433601 0.603013,0.1487678 0.603738,0.1543993 0.603738,0.1543993 0.603293,0.1594614 0.6018813,0.1643396 0.5994135,0.168777 0.5958383,0.1723786 0.5914147,0.1748758 0.5865724,0.1764149 0.5764782,0.1774716 0.4028576,0.1774716 0.4028576,0.1774716 0.3923486,0.1763629 0.3872757,0.1748653 0.382567,0.1724652 0.3785191,0.1690638 0.3755913,0.1646702 0.3739188,0.1596556 0.3733437,0.1543993 0.3733437,0.1543993 0.3739389,0.1493814 0.3754054,0.1445476 0.3779618,0.1401919 0.3814546,0.136547 0.3857603,0.133909 0.3905281,0.1322286 0.4005214,0.1308344z" transform="matrix(1,0,0,-1,0.7747,0.4572)" fill="rgb(104,104,104)" fill-rule="nonzero" shaper:cutDepth="0.0000762" stroke-linecap="round" stroke-linejoin="round" /><path d="M0.1835928,-0.2054788 L0.1835928,-0.2054788 0.1734148,-0.2049483 0.1633351,-0.2034346 0.1534322,-0.2010256 0.1437701,-0.1977795 0.1343925,-0.1937869 0.1253624,-0.1890596 0.1167422,-0.1836216 0.1085464,-0.1775621 0.1085464,-0.1775621 0.1002814,-0.1699629 0.0928001,-0.161585 0.0861146,-0.1525677 0.0801088,-0.1430752 0.0749258,-0.1331161 0.0703447,-0.1228624 0.0664637,-0.1123244 0.0631623,-0.1015909 0.0582056,-0.0796891 0.0550224,-0.0574569 0.0533698,-0.0350596 0.0528774,-0.0126078 0.0528774,-0.0126078 0.0533793,0.0086003 0.0549654,0.0297503 0.0579378,0.0507579 0.062566,0.0714552 0.0690777,0.091647 0.0731319,0.1014483 0.0778086,0.1109702 0.0831101,0.1201683 0.0890705,0.1289488 0.102881,0.145039 0.102881,0.145039 0.1112291,0.1521615 0.1202406,0.1584233 0.1297548,0.1638921 0.1397372,0.1684492 0.1500525,0.172195 0.1606622,0.1749948 0.1714934,0.1767601 0.1824433,0.1774716 0.1824433,0.1774716 0.1961366,0.1763426 0.2096106,0.1736477 0.2226838,0.1694188 0.2352564,0.1638739 0.2472457,0.1571601 0.2585206,0.1493075 0.2689261,0.1403326 0.2781809,0.1301775 0.2781809,0.1301775 0.2885576,0.1136622 0.2967404,0.0959464 0.3031516,0.0775204 0.3078698,0.0585906 0.3111544,0.0393551 0.3133838,0.0199714 0.3145668,0.0004961 0.3149652,-0.0190122 0.3149652,-0.0190122 0.3144199,-0.0388402 0.3128605,-0.0586127 0.3099627,-0.0782355 0.305697,-0.097606 0.2998534,-0.1165615 0.2920572,-0.1347932 0.2873808,-0.1435491 0.2821447,-0.1519769 0.2699701,-0.1676271 0.2699701,-0.1676271 0.2610413,-0.1757381 0.2514146,-0.1830073 0.2411236,-0.1893008 0.2303415,-0.1947113 0.219109,-0.1991084 0.2075392,-0.2025227 0.1956681,-0.2046656 0.1836335,-0.2054787 0.1835928,-0.2054788z M0.0995145,-0.0154815 L0.0995145,-0.0154815 0.099807,-0.0321887 0.100966,-0.048852 0.1031483,-0.065422 0.1065692,-0.0817708 0.1114885,-0.0977428 0.1181938,-0.1130353 0.1223284,-0.1203053 0.1270118,-0.1272316 0.1381052,-0.1397105 0.1381052,-0.1397105 0.1481372,-0.1473024 0.1592516,-0.1531992 0.1711514,-0.1572591 0.1836142,-0.1588404 0.1836142,-0.1588404 0.1907649,-0.1581815 0.1978081,-0.1568634 0.2046616,-0.1547581 0.2113012,-0.1519953 0.2177021,-0.1487249 0.2237764,-0.1449169 0.2347459,-0.1356872 0.2347459,-0.1356872 0.2444611,-0.1234141 0.2519772,-0.1096677 0.2576286,-0.0950646 0.2618275,-0.0799715 0.2648462,-0.064603 0.2668445,-0.0490646 0.2679385,-0.0334406 0.268328,-0.0177806 0.268328,-0.0177806 0.267284,0.0126324 0.2657392,0.0277712 0.2633747,0.0428049 0.2599881,0.0576395 0.2552854,0.07211 0.2490285,0.0859821 0.2409861,0.0988945 0.2409861,0.0988945 0.2356532,0.1055092 0.2296478,0.1115182 0.2230459,0.1168677 0.215905,0.1214703 0.208318,0.1252963 0.2003441,0.1282258 0.1920556,0.1300952 0.1835928,0.1308344 0.1835928,0.1308344 0.1761829,0.1302611 0.1689098,0.1287137 0.1618348,0.1264401 0.1550387,0.1234228 0.1485122,0.1198658 0.1423669,0.1156817 0.1365856,0.1110089 0.1312902,0.1057915 0.1312902,0.1057915 0.121928,0.0928444 0.1146689,0.0785951 0.1091587,0.0635939 0.1051788,0.0481088 0.1024204,0.0323616 0.1006962,0.0164668 0.0995145,-0.0154815z" transform="matrix(1,0,0,-1,0.7747,0.4572)" fill="rgb(104,104,104)" fill-rule="nonzero" shaper:cutDepth="0.0000762" stroke-linecap="round" stroke-linejoin="round" /><path d="M-0.2262888,-0.1700082 L-0.2262887,0.0749761 -0.056916,-0.1840798 -0.056916,-0.1840798 -0.0523939,-0.1902014 -0.0470024,-0.1955715 -0.0438138,-0.1976699 -0.0402927,-0.1991544 -0.032761,-0.2002239 -0.032761,-0.2002239 -0.0262285,-0.1992125 -0.0202099,-0.1964982 -0.0151647,-0.1922147 -0.0119877,-0.1864298 -0.0119877,-0.1864298 -0.0111273,-0.1826462 -0.0108762,-0.1787651 -0.0108382,-0.1709935 -0.0108381,0.1470314 -0.0108381,0.1470314 -0.0110531,0.156596 -0.0116917,0.1613391 -0.0131372,0.1658944 -0.0131372,0.1658944 -0.0169627,0.1707889 -0.02192,0.1745317 -0.027746,0.1766792 -0.0339105,0.1774716 -0.0339105,0.1774716 -0.0389657,0.1770248 -0.0438602,0.1756923 -0.0482895,0.1732244 -0.0519068,0.1696687 -0.0544998,0.1653141 -0.056125,0.1605015 -0.0574754,0.1504581 -0.0574754,-0.0982997 -0.2262887,0.1624718 -0.2262887,0.1624718 -0.2308995,0.1683063 -0.2364543,0.1732372 -0.2431545,0.1764627 -0.2505106,0.1774716 -0.2505106,0.1774716 -0.2554192,0.1770896 -0.2601619,0.1757772 -0.264415,0.1733039 -0.2678404,0.1697753 -0.2702506,0.1654842 -0.2717701,0.1608002 -0.272926,0.1510329 -0.2729259,-0.1720706 -0.2729259,-0.1720706 -0.2721204,-0.1825504 -0.2707386,-0.1876195 -0.2683825,-0.1923248 -0.264836,-0.1961895 -0.2602985,-0.1988388 -0.2551918,-0.2000778 -0.2499359,-0.2002239 -0.2499359,-0.2002239 -0.2443717,-0.1999296 -0.2389608,-0.1986125 -0.2341268,-0.1958644 -0.2304903,-0.191652 -0.2282414,-0.1865627 -0.2270292,-0.1811185 -0.2262888,-0.1700082z" transform="matrix(1,0,0,-1,0.7747,0.4572)" fill="rgb(104,104,104)" fill-rule="nonzero" shaper:cutDepth="0.0000762" stroke-linecap="round" stroke-linejoin="round" /><path d="M-0.3780239,-0.0583418 L-0.5085751,-0.0583418 -0.5085751,-0.0583418 -0.5192812,-0.0575219 -0.524456,-0.0560477 -0.529237,-0.0535991 -0.5332295,-0.050001 -0.5358953,-0.0453412 -0.5372728,-0.0401471 -0.5375591,-0.0347768 -0.5375591,-0.0347768 -0.5373103,-0.0291755 -0.5357173,-0.0238047 -0.5325605,-0.0191777 -0.5281237,-0.0157685 -0.5229417,-0.0136186 -0.5174747,-0.0123717 -0.5062873,-0.0117045 -0.3780239,-0.0117045 -0.3780239,0.1308344 -0.5590714,0.1308344 -0.5590714,0.1308344 -0.5668583,0.130869 -0.5707332,0.1312592 -0.5744255,0.1324765 -0.5744255,0.1324765 -0.5806985,0.1358315 -0.5834044,0.1381437 -0.5856664,0.1409142 -0.5886173,0.1473787 -0.5897796,0.1543993 -0.5897796,0.1543993 -0.5894919,0.1602489 -0.5876177,0.1657914 -0.5840274,0.170411 -0.5791709,0.1736683 -0.5736673,0.1756855 -0.5679252,0.1768497 -0.5562306,0.1774716 -0.3611918,0.1774716 -0.3611918,0.1774716 -0.3547787,0.177407 -0.3484239,0.1765849 -0.3423244,0.1746082 -0.337088,0.1709348 -0.3351151,0.1683983 -0.3336554,0.1655394 -0.3319552,0.1593526 -0.3313113,0.1529796 -0.3313866,0.1465657 -0.3313867,-0.1699261 -0.3313867,-0.1699261 -0.331451,-0.1763578 -0.3322851,-0.1827286 -0.3342444,-0.1888537 -0.335835,-0.1916567 -0.3379212,-0.1941088 -0.3433215,-0.1975792 -0.3494735,-0.199439 -0.3558624,-0.2001584 -0.3622925,-0.2002238 -0.5585787,-0.2002239 -0.5585787,-0.2002239 -0.5691455,-0.1994006 -0.5742604,-0.1980085 -0.5790099,-0.1956492 -0.5829894,-0.1921543 -0.585747,-0.1876328 -0.5871705,-0.1825274 -0.5874806,-0.1772337 -0.5874806,-0.1772337 -0.5871588,-0.1716111 -0.5855346,-0.1662214 -0.5824478,-0.1615241 -0.5780598,-0.157997 -0.572928,-0.1556884 -0.5674568,-0.1543306 -0.5562306,-0.1535865 -0.3780239,-0.1535865 -0.3780239,-0.0583418z" transform="matrix(1,0,0,-1,0.7747,0.4572)" fill="rgb(104,104,104)" fill-rule="nonzero" shaper:cutDepth="0.0000762" stroke-linecap="round" stroke-linejoin="round" /></svg>