<?xml version="1.0" encoding="utf-8"?>
<!-- Generator: Fusion 360, Shaper Origin Export Add-In, Version 1.6.10  -->
<svg xmlns="http://www.w3.org/2000/svg" xmlns:xlink="http://www.w3.org/1999/xlink" xmlns:shaper="http://www.shapertools.com/namespaces/shaper" shaper:fusionaddin="version:1.6.10" width="1.5494cm" height="0.9144cm" version="1.1" x="0cm" y="0cm" viewBox="0 0 1.5494 0.9144" enable-background="new 0 0 1.5494 0.9144" xml:space="preserve"><path d="M0.7239,-0.4572 A0.0508,0.0508 270 0,1 0.7747,-0.4064 L0.7747,0.4064 A0.0508,0.0508 0 0,1 0.7239,0.4572 L-0.7239,0.4572 A0.0508,0.0508 90 0,1 -0.7747,0.4064 L-0.7747,-0.4064 A0.0508,0.0508 180 0,1 -0.7239,-0.4572 L0.7239,-0.4572z" transform="matrix(1,0,0,-1,0.7747,0.4572)" fill="rgb(0,0,0)" shaper:cutDepth="0.0015875" stroke-linecap="round" stroke-linejoin="round" /><path d="M0.3888621,-0.1852803 L0.4860815,-0.0219389 0.5832162,-0.1831195 0.5832162,-0.1831195 0.5868361,-0.1889801 0.5911342,-0.1943626 0.5938464,-0.1965083 0.5969348,-0.1980694 0.603738,-0.1990744 0.603738,-0.1990744 0.6092082,-0.1987847 0.6145031,-0.1973962 0.6192323,-0.1946554 0.6228964,-0.1905797 0.6253931,-0.18572 0.6268192,-0.1804215 0.6276313,-0.1695156 0.6276314,0.1466198 0.6276314,0.1466198 0.6268771,0.1576265 0.6256121,0.1629973 0.6234345,0.1680687 0.6201268,0.1724816 0.6155934,0.1756043 0.6103168,0.1772116 0.6048054,0.1774716 0.6048054,0.1774716 0.5982688,0.1765768 0.5921532,0.1741395 0.5868,0.1702598 0.583211,0.1647449 0.583211,0.1647449 0.5818973,0.1606345 0.5812058,0.1563784 0.5809941,0.1477486 0.5809941,-0.0877732 0.51052,0.0302746 0.51052,0.0302746 0.5062417,0.0367951 0.5011187,0.0426671 0.4979431,0.04494 0.4943216,0.0464326 0.4865703,0.0472487 0.4865703,0.0472487 0.4821882,0.0471393 0.4778925,0.046336 0.4739063,0.0444956 0.4706031,0.0416368 0.4651721,0.0347717 0.46046,0.0273787 0.3911613,-0.0877732 0.3911613,0.1488899 0.3911613,0.1488899 0.3909198,0.1574616 0.3894368,0.1658944 0.3894368,0.1658944 0.3854707,0.1710073 0.3800959,0.1746254 0.373937,0.1766128 0.3675141,0.1774716 0.3675141,0.1774716 0.3626396,0.1770266 0.3579081,0.1757798 0.3536101,0.1734439 0.3500647,0.1700772 0.3475161,0.1659005 0.3458676,0.1612907 0.3445239,0.1516076 0.344524,-0.1755435 0.344524,-0.1755435 0.3452142,-0.1851168 0.3465387,-0.1897484 0.3489619,-0.1938867 0.3524845,-0.1971572 0.3568421,-0.199181 0.3615559,-0.2001121 0.3663646,-0.2002239 0.3663646,-0.2002239 0.3734706,-0.1994743 0.3768284,-0.1982187 0.3798665,-0.1963179 0.3847921,-0.1911515 0.3888621,-0.1852803z" transform="matrix(1,0,0,-1,0.7747,0.4572)" fill="rgb(104,104,104)" fill-rule="nonzero" shaper:cutDepth="0.0000762" stroke-linecap="round" stroke-linejoin="round" /><path d="M0.1546909,-0.2054788 L0.1546909,-0.2054788 0.1445129,-0.2049483 0.1344332,-0.2034346 0.1245303,-0.2010256 0.1148682,-0.1977795 0.1054905,-0.1937869 0.0964605,-0.1890596 0.0878403,-0.1836216 0.0796445,-0.1775621 0.0796445,-0.1775621 0.0713795,-0.1699629 0.0638982,-0.161585 0.0572127,-0.1525677 0.0512069,-0.1430752 0.0460239,-0.1331161 0.0414428,-0.1228624 0.0375618,-0.1123244 0.0342603,-0.1015909 0.0293037,-0.0796891 0.0261205,-0.0574569 0.0244679,-0.0350596 0.0239754,-0.0126078 0.0239754,-0.0126078 0.0244774,0.0086003 0.0260635,0.0297503 0.0290359,0.0507579 0.0336641,0.0714552 0.0401758,0.091647 0.0442299,0.1014483 0.0489067,0.1109702 0.0542082,0.1201683 0.0601686,0.1289488 0.073979,0.145039 0.073979,0.145039 0.0823272,0.1521615 0.0913387,0.1584233 0.1008529,0.1638921 0.1108353,0.1684492 0.1211506,0.172195 0.1317603,0.1749948 0.1425914,0.1767601 0.1535414,0.1774716 0.1535414,0.1774716 0.1672347,0.1763426 0.1807087,0.1736477 0.1937819,0.1694188 0.2063545,0.1638739 0.2183438,0.1571601 0.2296186,0.1493075 0.2400241,0.1403326 0.249279,0.1301775 0.249279,0.1301775 0.2596557,0.1136622 0.2678385,0.0959464 0.2742497,0.0775204 0.2789679,0.0585906 0.2822525,0.0393551 0.2844819,0.0199714 0.2856649,0.0004961 0.2860632,-0.0190122 0.2860632,-0.0190122 0.285518,-0.0388402 0.2839585,-0.0586127 0.2810608,-0.0782355 0.2767951,-0.097606 0.2709515,-0.1165615 0.2631553,-0.1347932 0.2584789,-0.1435491 0.2532428,-0.1519769 0.2410682,-0.1676271 0.2410682,-0.1676271 0.2321394,-0.1757381 0.2225127,-0.1830073 0.2122217,-0.1893008 0.2014396,-0.1947113 0.1902071,-0.1991084 0.1786373,-0.2025227 0.1667662,-0.2046656 0.1547316,-0.2054787 0.1546909,-0.2054788z M0.0706126,-0.0154815 L0.0706126,-0.0154815 0.0709051,-0.0321887 0.0720641,-0.048852 0.0742464,-0.065422 0.0776673,-0.0817708 0.0825866,-0.0977428 0.0892919,-0.1130353 0.0934265,-0.1203053 0.0981098,-0.1272316 0.1092032,-0.1397105 0.1092032,-0.1397105 0.1192353,-0.1473024 0.1303497,-0.1531992 0.1422495,-0.1572591 0.1547123,-0.1588404 0.1547123,-0.1588404 0.161863,-0.1581815 0.1689062,-0.1568634 0.1757596,-0.1547581 0.1823993,-0.1519953 0.1888002,-0.1487249 0.1948744,-0.1449169 0.205844,-0.1356872 0.205844,-0.1356872 0.2155592,-0.1234141 0.2230753,-0.1096677 0.2287266,-0.0950646 0.2329256,-0.0799715 0.2359443,-0.064603 0.2379426,-0.0490646 0.2390366,-0.0334406 0.2394261,-0.0177806 0.2394261,-0.0177806 0.238382,0.0126324 0.2368373,0.0277712 0.2344728,0.0428049 0.2310861,0.0576395 0.2263835,0.07211 0.2201266,0.0859821 0.2120842,0.0988945 0.2120842,0.0988945 0.2067513,0.1055092 0.2007459,0.1115182 0.194144,0.1168677 0.1870031,0.1214703 0.1794161,0.1252963 0.1714421,0.1282258 0.1631537,0.1300952 0.1546909,0.1308344 0.1546909,0.1308344 0.147281,0.1302611 0.1400078,0.1287137 0.1329329,0.1264401 0.1261368,0.1234228 0.1196103,0.1198658 0.113465,0.1156817 0.1076837,0.1110089 0.1023883,0.1057915 0.1023883,0.1057915 0.0930261,0.0928444 0.085767,0.0785951 0.0802568,0.0635939 0.0762769,0.0481088 0.0735185,0.0323616 0.0717943,0.0164668 0.0706126,-0.0154815z" transform="matrix(1,0,0,-1,0.7747,0.4572)" fill="rgb(104,104,104)" fill-rule="nonzero" shaper:cutDepth="0.0000762" stroke-linecap="round" stroke-linejoin="round" /><path d="M-0.1479581,-0.2002239 L-0.1479581,-0.2002239 -0.1611398,-0.1997865 -0.1742311,-0.1981964 -0.1871008,-0.1953124 -0.1996052,-0.1911231 -0.2116043,-0.1856504 -0.2228964,-0.1788381 -0.2334462,-0.1709249 -0.2431209,-0.1619617 -0.2431209,-0.1619617 -0.2565992,-0.1468008 -0.2626561,-0.1386637 -0.2682155,-0.1301671 -0.2778863,-0.112338 -0.2853552,-0.0934746 -0.2906924,-0.0739054 -0.2941281,-0.0539069 -0.2960167,-0.0337106 -0.296573,-0.0134288 -0.296573,-0.0134288 -0.2956814,0.0158308 -0.2942122,0.0303967 -0.2918522,0.0448441 -0.2883568,0.0590593 -0.2836728,0.0729276 -0.2780384,0.0864393 -0.271366,0.0994692 -0.271366,0.0994692 -0.2615868,0.1159854 -0.2502528,0.1314743 -0.2438757,0.1386471 -0.2370365,0.1453843 -0.2297581,0.1516415 -0.221991,0.1572821 -0.213756,0.1622123 -0.2051625,0.16649 -0.1962466,0.170045 -0.1870841,0.1729063 -0.1777185,0.1750093 -0.1682194,0.1763937 -0.1586591,0.1772503 -0.1490622,0.1774716 -0.0689705,0.1774716 -0.0689705,0.1774716 -0.0622515,0.1772592 -0.0556093,0.1762149 -0.0493946,0.1736749 -0.0466399,0.1717228 -0.044364,0.1692563 -0.0414639,0.1631938 -0.0400531,0.1566225 -0.03974,0.1431942 -0.0397401,-0.1708293 -0.0397401,-0.1708293 -0.0398285,-0.1769768 -0.0408552,-0.1830355 -0.0432261,-0.1887032 -0.0470188,-0.1935324 -0.0520719,-0.1970205 -0.0578654,-0.1990751 -0.0639402,-0.2000039 -0.070084,-0.2002238 -0.1479581,-0.2002239z M-0.0863773,-0.1535865 L-0.0863773,0.1308344 -0.1491076,0.1308344 -0.1491076,0.1308344 -0.1638524,0.1302145 -0.1711546,0.1291755 -0.1783548,0.1275437 -0.1853194,0.1251189 -0.1919455,0.1218696 -0.198082,0.1177739 -0.2037913,0.1130991 -0.2037913,0.1130991 -0.2116716,0.1056208 -0.2188519,0.0974667 -0.2252855,0.0887133 -0.2309622,0.0794485 -0.2359593,0.0698029 -0.2401676,0.0597851 -0.243768,0.0495356 -0.2465694,0.039038 -0.2465694,0.039038 -0.2488777,0.0288144 -0.2498008,0.0183747 -0.2499359,-0.0025906 -0.2499359,-0.0025906 -0.249579,-0.0431107 -0.2489501,-0.0532218 -0.2472427,-0.0632028 -0.2444592,-0.0729457 -0.2408219,-0.0823993 -0.2408219,-0.0823993 -0.2364445,-0.0921943 -0.2314233,-0.1016743 -0.2257124,-0.1107569 -0.2193294,-0.1193796 -0.2122476,-0.1274388 -0.2044872,-0.1348437 -0.1960041,-0.1414148 -0.1867129,-0.1467718 -0.1867129,-0.1467718 -0.1779616,-0.1505588 -0.1686718,-0.1526934 -0.1591677,-0.1534769 -0.1496321,-0.1535865 -0.0863773,-0.1535865z" transform="matrix(1,0,0,-1,0.7747,0.4572)" fill="rgb(104,104,104)" fill-rule="nonzero" shaper:cutDepth="0.0000762" stroke-linecap="round" stroke-linejoin="round" /><path d="M-0.4016709,-0.0583418 L-0.5322221,-0.0583418 -0.5322221,-0.0583418 -0.5429282,-0.0575219 -0.548103,-0.0560477 -0.552884,-0.0535991 -0.5568766,-0.050001 -0.5595424,-0.0453412 -0.5609198,-0.0401471 -0.5612062,-0.0347768 -0.5612062,-0.0347768 -0.5609573,-0.0291755 -0.5593643,-0.0238047 -0.5562076,-0.0191777 -0.5517707,-0.0157685 -0.5465887,-0.0136186 -0.5411217,-0.0123717 -0.5299344,-0.0117045 -0.4016709,-0.0117045 -0.4016709,0.1308344 -0.5827184,0.1308344 -0.5827184,0.1308344 -0.5905053,0.130869 -0.5943803,0.1312592 -0.5980725,0.1324765 -0.5980725,0.1324765 -0.6043455,0.1358315 -0.6070514,0.1381437 -0.6093134,0.1409142 -0.6122643,0.1473787 -0.6134267,0.1543993 -0.6134267,0.1543993 -0.613139,0.1602489 -0.6112647,0.1657914 -0.6076744,0.170411 -0.6028179,0.1736683 -0.5973143,0.1756855 -0.5915722,0.1768497 -0.5798776,0.1774716 -0.3848388,0.1774716 -0.3848388,0.1774716 -0.3784257,0.177407 -0.3720709,0.1765849 -0.3659714,0.1746082 -0.360735,0.1709348 -0.3587622,0.1683983 -0.3573024,0.1655394 -0.3556022,0.1593526 -0.3549583,0.1529796 -0.3550336,0.1465657 -0.3550337,-0.1699261 -0.3550337,-0.1699261 -0.355098,-0.1763578 -0.3559321,-0.1827286 -0.3578914,-0.1888537 -0.359482,-0.1916567 -0.3615682,-0.1941088 -0.3669685,-0.1975792 -0.3731205,-0.199439 -0.3795094,-0.2001584 -0.3859395,-0.2002238 -0.5822257,-0.2002239 -0.5822257,-0.2002239 -0.5927925,-0.1994006 -0.5979074,-0.1980085 -0.6026569,-0.1956492 -0.6066364,-0.1921543 -0.609394,-0.1876328 -0.6108176,-0.1825274 -0.6111276,-0.1772337 -0.6111276,-0.1772337 -0.6108059,-0.1716111 -0.6091816,-0.1662214 -0.6060949,-0.1615241 -0.6017068,-0.157997 -0.5965751,-0.1556884 -0.5911039,-0.1543306 -0.5798776,-0.1535865 -0.4016709,-0.1535865 -0.4016709,-0.0583418z" transform="matrix(1,0,0,-1,0.7747,0.4572)" fill="rgb(104,104,104)" fill-rule="nonzero" shaper:cutDepth="0.0000762" stroke-linecap="round" stroke-linejoin="round" /></svg>