<?xml version="1.0" encoding="utf-8"?>
<!-- Generator: Fusion 360, Shaper Origin Export Add-In, Version 1.6.10  -->
<svg xmlns="http://www.w3.org/2000/svg" xmlns:xlink="http://www.w3.org/1999/xlink" xmlns:shaper="http://www.shapertools.com/namespaces/shaper" shaper:fusionaddin="version:1.6.10" width="1.651cm" height="0.92075cm" version="1.1" x="0cm" y="0cm" viewBox="0 0 1.651 0.92075" enable-background="new 0 0 1.651 0.92075" xml:space="preserve"><path d="M0.8255,0.460375 L0.8255,-0.460375 -0.8255,-0.460375 -0.8255,0.460375 0.8255,0.460375z" transform="matrix(1,0,0,-1,0.8255,0.460375)" fill="rgb(0,0,0)" shaper:cutDepth="0.000127" stroke-linecap="round" stroke-linejoin="round" /><path d="M0.6243993,0.15126 L0.5253597,0.0560857 0.6508859,-0.1915449 0.6508859,-0.1915449 0.6531784,-0.2032476 0.6532164,-0.2092182 0.6522472,-0.2151093 0.649994,-0.2206317 0.6465046,-0.2254731 0.642062,-0.2294587 0.6369571,-0.2325526 0.6314445,-0.2348443 0.625647,-0.2362681 0.6196826,-0.236402 0.6138943,-0.2349612 0.6086372,-0.232145 0.6041179,-0.2282407 0.6002839,-0.2236693 0.5970256,-0.2186652 0.4798002,0.0124906 0.4253063,-0.0401024 0.4253063,-0.2054219 0.4253063,-0.2054219 0.4241048,-0.2112312 0.4223002,-0.2168782 0.419694,-0.2222088 0.4161326,-0.2269464 0.4115901,-0.2307574 0.4062604,-0.2333492 0.4005195,-0.2348391 0.3946057,-0.2352712 0.3886839,-0.2349177 0.3828984,-0.2336138 0.3775468,-0.2310675 0.3729557,-0.2273208 0.3694866,-0.2225133 0.3671369,-0.2170692 0.3657491,-0.2113034 0.3649827,-0.2054219 0.3649827,0.1726774 0.3649827,0.1726774 0.3657478,0.1785992 0.3671247,0.1844095 0.3694866,0.1898909 0.3729495,0.1947524 0.3775339,0.1985694 0.3829213,0.2011363 0.3887303,0.2025096 0.3946894,0.2029138 0.4006462,0.2025236 0.4064315,0.2010485 0.4117464,0.1983378 0.416267,0.1944367 0.4198017,0.1896339 0.4223503,0.1842274 0.4241358,0.1785349 0.4253063,0.1726774 0.4253063,0.0437295 0.5822615,0.1949186 0.5822615,0.1949186 0.5872381,0.1981811 0.5925539,0.2008428 0.5982199,0.2026667 0.6041281,0.2033123 0.6100329,0.2026019 0.6155927,0.2004959 0.6206104,0.1973018 0.6250453,0.1933376 0.6289229,0.1888238 0.6320322,0.1837554 0.6340662,0.1781663 0.6345898,0.1722459 0.6336393,0.1663793 0.6313578,0.160884 0.6281593,0.1558711 0.6243993,0.15126z" transform="matrix(1,0,0,-1,0.8255,0.460375)" fill="rgb(119,119,119)" fill-rule="nonzero" shaper:cutDepth="0.0000254" stroke-linecap="round" stroke-linejoin="round" /><path d="M0.2724698,-0.1622069 L0.2724698,-0.1622069 0.2619264,-0.1781892 0.2559906,-0.1857043 0.2495949,-0.1928325 0.2357722,-0.2060798 0.2206082,-0.2177738 0.2125137,-0.2228921 0.2039788,-0.2272357 0.1950726,-0.2307559 0.1858415,-0.2333043 0.1763912,-0.2348541 0.1668339,-0.2354635 0.157264,-0.2351107 0.1477673,-0.2338728 0.1477673,-0.2338728 0.1320014,-0.2303105 0.1166794,-0.2251644 0.1020415,-0.2183131 0.0883232,-0.2097673 0.0757378,-0.199628 0.0644204,-0.1880876 0.0544599,-0.1753614 0.0457658,-0.1617327 0.0380203,-0.1475468 0.0311649,-0.1329087 0.0252049,-0.1178845 0.0201417,-0.1025341 0.0159804,-0.0869158 0.0127715,-0.0710738 0.0104567,-0.0550768 0.0089743,-0.0389813 0.0082772,-0.0228326 0.0083696,-0.0066693 0.0093213,0.0094662 0.0110194,0.0255406 0.0135776,0.0415002 0.0169431,0.0573098 0.0210748,0.0729362 0.025946,0.0883485 0.0316379,0.1034774 0.0383431,0.1181837 0.0461655,0.1323292 0.0552111,0.145723 0.0654965,0.1581909 0.0769291,0.1696149 0.089512,0.1797599 0.103095,0.1885187 0.103095,0.1885187 0.1154758,0.1947005 0.1285197,0.1993159 0.1420709,0.2021192 0.155878,0.2030293 0.155878,0.2030293 0.1682735,0.2024372 0.1805519,0.2006447 0.1925502,0.1974791 0.2040974,0.1929378 0.2149771,0.1869697 0.2251305,0.1798373 0.2343733,0.1715583 0.2427118,0.1623669 0.2578057,0.1426743 0.2712863,0.1218429 0.2828761,0.0999041 0.2925565,0.0770596 0.2925565,0.0770596 0.2970251,0.062276 0.3008225,0.047306 0.3038106,0.0321536 0.3060291,0.0168696 0.3075576,0.0015012 0.3082633,-0.0139268 0.308227,-0.029371 0.3074676,-0.0447965 0.3059924,-0.0601703 0.3036928,-0.0754421 0.3005926,-0.0905722 0.2966279,-0.1054984 0.2918476,-0.1201843 0.2862382,-0.1345734 0.2797802,-0.1486027 0.2724698,-0.1622069z M0.143712,-0.1731691 L0.143712,-0.1731691 0.1505066,-0.1748911 0.1574414,-0.175907 0.1644501,-0.1759354 0.1713855,-0.174927 0.1780805,-0.1728555 0.1843667,-0.1697568 0.1901434,-0.1657875 0.19543,-0.1611851 0.2050615,-0.150999 0.2137989,-0.1400374 0.2216148,-0.1283994 0.2281776,-0.1160138 0.2281776,-0.1160138 0.2316553,-0.10766 0.234557,-0.0990874 0.2391087,-0.0815747 0.242207,-0.0637441 0.2442217,-0.0457585 0.2452288,-0.0276855 0.245235,-0.0095857 0.2441414,0.0084819 0.242033,0.0264594 0.2387541,0.0442596 0.234196,0.061779 0.2281133,0.078823 0.2205837,0.095287 0.2162018,0.1032064 0.2112299,0.1107672 0.2055331,0.1177989 0.1991049,0.1241673 0.19198,0.1297465 0.1842497,0.1344484 0.1760246,0.1382237 0.1674105,0.1409949 0.1674105,0.1409949 0.1625543,0.1420493 0.1575889,0.1423256 0.1575889,0.1423256 0.147959,0.1416835 0.1385592,0.1394963 0.1296469,0.1357975 0.1214937,0.1306371 0.1143031,0.1241977 0.1080378,0.1168566 0.1027106,0.1088076 0.0981932,0.1002774 0.0901963,0.0827096 0.0830255,0.0647903 0.0769514,0.0464723 0.0724896,0.0276982 0.0724896,0.0276982 0.0704753,0.0135656 0.0695152,-0.0006796 0.0696797,-0.0292276 0.0707369,-0.0434653 0.0725523,-0.0576269 0.0750561,-0.0716827 0.0782899,-0.0855889 0.0823107,-0.0992884 0.0872651,-0.1126788 0.0932823,-0.1256256 0.1003262,-0.1380441 0.1086319,-0.1496431 0.1134397,-0.1549245 0.118728,-0.1597125 0.124439,-0.1640003 0.1305555,-0.1676745 0.1369904,-0.1707677 0.143712,-0.1731691z" transform="matrix(1,0,0,-1,0.8255,0.460375)" fill="rgb(119,119,119)" fill-rule="nonzero" shaper:cutDepth="0.0000254" stroke-linecap="round" stroke-linejoin="round" /><path d="M-0.0844023,-0.1622069 L-0.0844023,-0.1622069 -0.0949456,-0.1781892 -0.1008814,-0.1857043 -0.1072771,-0.1928325 -0.1210998,-0.2060798 -0.1362638,-0.2177738 -0.1443583,-0.2228921 -0.1528932,-0.2272357 -0.1617994,-0.2307559 -0.1710305,-0.2333043 -0.1804808,-0.2348541 -0.1900381,-0.2354635 -0.199608,-0.2351107 -0.2091047,-0.2338728 -0.2091047,-0.2338728 -0.2248706,-0.2303105 -0.2401926,-0.2251644 -0.2548305,-0.2183131 -0.2685488,-0.2097673 -0.2811342,-0.199628 -0.2924517,-0.1880876 -0.3024122,-0.1753614 -0.3111062,-0.1617327 -0.3188518,-0.1475468 -0.3257071,-0.1329087 -0.3316671,-0.1178845 -0.3367303,-0.1025341 -0.3408916,-0.0869158 -0.3441005,-0.0710738 -0.3464153,-0.0550768 -0.3478977,-0.0389813 -0.3485948,-0.0228326 -0.3485024,-0.0066693 -0.3475507,0.0094662 -0.3458527,0.0255406 -0.3432945,0.0415002 -0.3399289,0.0573098 -0.3357972,0.0729362 -0.330926,0.0883485 -0.3252342,0.1034774 -0.3185289,0.1181837 -0.3107065,0.1323292 -0.301661,0.145723 -0.2913755,0.1581909 -0.2799429,0.1696149 -0.26736,0.1797599 -0.2537771,0.1885187 -0.2537771,0.1885187 -0.2413962,0.1947005 -0.2283523,0.1993159 -0.2148011,0.2021192 -0.200994,0.2030293 -0.200994,0.2030293 -0.1885986,0.2024372 -0.1763201,0.2006447 -0.1643218,0.1974791 -0.1527746,0.1929378 -0.1418949,0.1869697 -0.1317415,0.1798373 -0.1224987,0.1715583 -0.1141602,0.1623669 -0.0990663,0.1426743 -0.0855857,0.1218429 -0.073996,0.0999041 -0.0643155,0.0770596 -0.0643155,0.0770596 -0.0598469,0.062276 -0.0560495,0.047306 -0.0530614,0.0321536 -0.0508429,0.0168696 -0.0493145,0.0015012 -0.0486088,-0.0139268 -0.048645,-0.029371 -0.0494044,-0.0447965 -0.0508796,-0.0601703 -0.0531792,-0.0754421 -0.0562794,-0.0905722 -0.0602442,-0.1054984 -0.0650245,-0.1201843 -0.0706338,-0.1345734 -0.0770919,-0.1486027 -0.0844023,-0.1622069z M-0.2131601,-0.1731691 L-0.2131601,-0.1731691 -0.2063654,-0.1748911 -0.1994306,-0.175907 -0.1924219,-0.1759354 -0.1854865,-0.174927 -0.1787915,-0.1728555 -0.1725053,-0.1697568 -0.1667286,-0.1657875 -0.161442,-0.1611851 -0.1518105,-0.150999 -0.1430731,-0.1400374 -0.1352572,-0.1283994 -0.1286944,-0.1160138 -0.1286944,-0.1160138 -0.1252167,-0.10766 -0.122315,-0.0990874 -0.1177633,-0.0815747 -0.114665,-0.0637441 -0.1126503,-0.0457585 -0.1116432,-0.0276855 -0.111637,-0.0095857 -0.1127306,0.0084819 -0.114839,0.0264594 -0.118118,0.0442596 -0.122676,0.061779 -0.1287587,0.078823 -0.1362884,0.095287 -0.1406702,0.1032064 -0.1456421,0.1107672 -0.1513389,0.1177989 -0.1577672,0.1241673 -0.164892,0.1297465 -0.1726223,0.1344484 -0.1808474,0.1382237 -0.1894615,0.1409949 -0.1894615,0.1409949 -0.1943177,0.1420493 -0.1992831,0.1423256 -0.1992831,0.1423256 -0.208913,0.1416835 -0.2183128,0.1394963 -0.2272251,0.1357975 -0.2353784,0.1306371 -0.2425689,0.1241977 -0.2488342,0.1168566 -0.2541614,0.1088076 -0.2586789,0.1002774 -0.2666757,0.0827096 -0.2738465,0.0647903 -0.2799206,0.0464723 -0.2843824,0.0276982 -0.2843824,0.0276982 -0.2863967,0.0135656 -0.2873568,-0.0006796 -0.2871923,-0.0292276 -0.2861351,-0.0434653 -0.2843197,-0.0576269 -0.2818159,-0.0716827 -0.2785821,-0.0855889 -0.2745613,-0.0992884 -0.2696069,-0.1126788 -0.2635897,-0.1256256 -0.2565458,-0.1380441 -0.2482401,-0.1496431 -0.2434323,-0.1549245 -0.238144,-0.1597125 -0.232433,-0.1640003 -0.2263165,-0.1676745 -0.2198816,-0.1707677 -0.2131601,-0.1731691z" transform="matrix(1,0,0,-1,0.8255,0.460375)" fill="rgb(119,119,119)" fill-rule="nonzero" shaper:cutDepth="0.0000254" stroke-linecap="round" stroke-linejoin="round" /><path d="M-0.7015779,-0.2054219 L-0.7015779,0.1726774 -0.7015779,0.1726774 -0.700453,0.1785413 -0.6987319,0.1842565 -0.6961507,0.1896397 -0.6926253,0.1944562 -0.688114,0.1983592 -0.6828029,0.2010791 -0.6770156,0.2025378 -0.6710584,0.202913 -0.6651019,0.2024966 -0.6592971,0.2011075 -0.653921,0.1985208 -0.6493199,0.1947253 -0.6458714,0.1898559 -0.6434901,0.184381 -0.6420082,0.1786011 -0.6412544,0.1726774 -0.6412544,0.03131 -0.4690915,0.03131 -0.4690915,0.1726774 -0.4690915,0.1726774 -0.4679479,0.1785076 -0.4662217,0.1841892 -0.463683,0.189561 -0.4601793,0.194355 -0.4556889,0.1982368 -0.4504287,0.2009904 -0.4446696,0.2024399 -0.438748,0.2029029 -0.4328235,0.2024754 -0.4270731,0.2009924 -0.4217911,0.1982841 -0.4173255,0.1943695 -0.4138561,0.1895547 -0.4113469,0.1841659 -0.4083878,0.1726774 -0.4083878,-0.2054219 -0.4083878,-0.2054219 -0.4095759,-0.2112292 -0.4113506,-0.2168797 -0.413887,-0.222239 -0.4173662,-0.2270305 -0.4218281,-0.2309272 -0.427102,-0.2336208 -0.4328399,-0.2350957 -0.4387504,-0.2355206 -0.4446579,-0.2350594 -0.4504044,-0.2336173 -0.4556551,-0.2308766 -0.460148,-0.2270173 -0.4636771,-0.2222623 -0.4662081,-0.2169008 -0.4690915,-0.2054219 -0.4690915,-0.0294571 -0.6412544,-0.0294571 -0.6412544,-0.2054219 -0.6412544,-0.2054219 -0.6420115,-0.2113162 -0.6435101,-0.2170607 -0.6458862,-0.2225078 -0.6493572,-0.2273237 -0.653945,-0.2310911 -0.6592987,-0.2336544 -0.6650904,-0.2349827 -0.6710156,-0.2353995 -0.6769416,-0.2349746 -0.682705,-0.2335428 -0.6880075,-0.2308656 -0.6925445,-0.2270422 -0.6960778,-0.2222637 -0.6986939,-0.2169321 -0.7004348,-0.2112522 -0.7015779,-0.2054219z" transform="matrix(1,0,0,-1,0.8255,0.460375)" fill="rgb(119,119,119)" fill-rule="nonzero" shaper:cutDepth="0.0000254" stroke-linecap="round" stroke-linejoin="round" /></svg>