<?xml version="1.0" encoding="utf-8"?>
<!-- Generator: Fusion 360, Shaper Origin Export Add-In, Version 1.7.0  -->
<svg xmlns="http://www.w3.org/2000/svg" xmlns:xlink="http://www.w3.org/1999/xlink" xmlns:shaper="http://www.shapertools.com/namespaces/shaper" shaper:fusionaddin="version:1.7.0" width="1.27cm" height="1.4605cm" version="1.1" x="0cm" y="0cm" viewBox="0 0 1.27 1.4605" enable-background="new 0 0 1.27 1.4605" xml:space="preserve"><path d="M0.127,-0.205105 L0.127,-0.1185883 A0.0635,0.0635 250.7693732 0,1 0.2082436,-0.0388144 A0.5715,0.5715 291.3694771 0,1 0.2290784,-0.0301843 A0.0635,0.0635 206.8152615 1,1 0.3388938,0.0332176 A0.5715,0.5715 306.3694771 0,1 0.3567851,0.0469461 A0.0635,0.0635 221.8152615 1,1 0.4464489,0.1366099 A0.5715,0.5715 321.3694771 0,1 0.4601774,0.1545012 A0.0635,0.0635 236.8152615 1,1 0.5235793,0.2643166 A0.5715,0.5715 336.3694771 0,1 0.5322094,0.2851514 A0.0635,0.0635 251.8152615 1,1 0.5650287,0.4076345 A0.5715,0.5715 351.3694771 0,1 0.5679722,0.4299931 A0.0635,0.0635 266.8152615 1,1 0.5679722,0.5567969 A0.5715,0.5715 6.3694771 0,1 0.5650287,0.5791555 A0.0635,0.0635 281.8152615 1,1 0.5322094,0.7016386 A0.5715,0.5715 21.3694771 0,1 0.5235793,0.7224734 A0.0635,0.0635 296.8152615 1,1 0.4601774,0.8322888 A0.5715,0.5715 36.3694771 0,1 0.4464489,0.8501801 A0.0635,0.0635 311.8152615 1,1 0.3567851,0.9398439 A0.5715,0.5715 51.3694771 0,1 0.3388938,0.9535724 A0.0635,0.0635 326.8152615 1,1 0.2290784,1.0169743 A0.5715,0.5715 66.3694771 0,1 0.2082436,1.0256044 A0.0635,0.0635 341.8152615 1,1 0.0857605,1.0584237 A0.5715,0.5715 81.3694771 0,1 0.0634019,1.0613672 A0.0635,0.0635 356.8152615 1,1 -0.0634019,1.0613672 A0.5715,0.5715 96.3694771 0,1 -0.0857605,1.0584237 A0.0635,0.0635 11.8152615 1,1 -0.2082436,1.0256044 A0.5715,0.5715 111.3694771 0,1 -0.2290784,1.0169743 A0.0635,0.0635 26.8152615 1,1 -0.3388938,0.9535724 A0.5715,0.5715 126.3694771 0,1 -0.3567851,0.9398439 A0.0635,0.0635 41.8152615 1,1 -0.4464489,0.8501801 A0.5715,0.5715 141.3694771 0,1 -0.4601774,0.8322888 A0.0635,0.0635 56.8152615 1,1 -0.5235793,0.7224734 A0.5715,0.5715 156.3694771 0,1 -0.5322094,0.7016386 A0.0635,0.0635 71.8152615 1,1 -0.5650287,0.5791555 A0.5715,0.5715 171.3694771 0,1 -0.5679722,0.5567969 A0.0635,0.0635 86.8152615 1,1 -0.5679722,0.4299931 A0.5715,0.5715 186.3694771 0,1 -0.5650287,0.4076345 A0.0635,0.0635 101.8152615 1,1 -0.5322094,0.2851514 A0.5715,0.5715 201.3694771 0,1 -0.5235793,0.2643166 A0.0635,0.0635 116.8152615 1,1 -0.4601774,0.1545012 A0.5715,0.5715 216.3694771 0,1 -0.4464489,0.1366099 A0.0635,0.0635 131.8152615 1,1 -0.3567851,0.0469461 A0.5715,0.5715 231.3694771 0,1 -0.3388938,0.0332176 A0.0635,0.0635 146.8152615 1,1 -0.2290784,-0.0301843 A0.5715,0.5715 246.3694771 0,1 -0.2082436,-0.0388144 A0.0635,0.0635 161.8152615 0,1 -0.127,-0.1185883 L-0.127,-0.205105 A0.127,0.127 180 0,1 0.127,-0.205105z" transform="matrix(1,0,0,-1,0.635,1.128395)" fill="rgb(0,0,0)" shaper:cutDepth="0.254cm" stroke-linecap="round" stroke-linejoin="round" /><path d="M0.1175007,0.603885 A0.16129,0.16129 43.2387035 1,0 -0.1175007,0.603885 L0.1175007,0.603885z" transform="matrix(1,0,0,-1,0.635,1.128395)" fill="rgb(255,255,255)" stroke="rgb(0,0,0)" stroke-width="0.0010cm" stroke-linecap="round" stroke-linejoin="round" shaper:cutDepth="0.254cm" /></svg>