<?xml version="1.0" encoding="utf-8"?>
<!-- Generator: Fusion 360, Shaper Origin Export Add-In, Version 1.7.0  -->
<svg xmlns="http://www.w3.org/2000/svg" xmlns:xlink="http://www.w3.org/1999/xlink" xmlns:shaper="http://www.shapertools.com/namespaces/shaper" shaper:fusionaddin="version:1.7.0" width="1.27cm" height="1.27cm" version="1.1" x="0cm" y="0cm" viewBox="0 0 1.27 1.27" enable-background="new 0 0 1.27 1.27" xml:space="preserve"><path d="M-0.0857605,0.7009187 A0.0635,0.0635 11.8152615 1,1 -0.2082436,0.6680994 A0.5715,0.5715 111.3694771 0,1 -0.2290784,0.6594693 A0.0635,0.0635 26.8152615 1,1 -0.3388938,0.5960674 A0.5715,0.5715 126.3694771 0,1 -0.3567851,0.5823389 A0.0635,0.0635 41.8152615 1,1 -0.4464489,0.4926751 A0.5715,0.5715 141.3694771 0,1 -0.4601774,0.4747838 A0.0635,0.0635 56.8152615 1,1 -0.5235793,0.3649684 A0.5715,0.5715 156.3694771 0,1 -0.5322094,0.3441336 A0.0635,0.0635 71.8152615 1,1 -0.5650287,0.2216505 A0.5715,0.5715 171.3694771 0,1 -0.5679722,0.1992919 A0.0635,0.0635 86.8152615 1,1 -0.5679722,0.0724881 A0.5715,0.5715 186.3694771 0,1 -0.5650287,0.0501295 A0.0635,0.0635 101.8152615 1,1 -0.5322094,-0.0723536 A0.5715,0.5715 201.3694771 0,1 -0.5235793,-0.0931884 A0.0635,0.0635 116.8152615 1,1 -0.4601774,-0.2030038 A0.5715,0.5715 216.3694771 0,1 -0.4464489,-0.2208951 A0.0635,0.0635 131.8152615 1,1 -0.3567851,-0.3105589 A0.5715,0.5715 231.3694771 0,1 -0.3388938,-0.3242874 A0.0635,0.0635 146.8152615 1,1 -0.2290784,-0.3876893 A0.5715,0.5715 246.3694771 0,1 -0.2082436,-0.3963194 A0.0635,0.0635 161.8152615 1,1 -0.0857605,-0.4291387 A0.5715,0.5715 261.3694771 0,1 -0.0634019,-0.4320822 A0.0635,0.0635 176.8152615 1,1 0.0634019,-0.4320822 A0.5715,0.5715 276.3694771 0,1 0.0857605,-0.4291387 A0.0635,0.0635 191.8152615 1,1 0.2082436,-0.3963194 A0.5715,0.5715 291.3694771 0,1 0.2290784,-0.3876893 A0.0635,0.0635 206.8152615 1,1 0.3388938,-0.3242874 A0.5715,0.5715 306.3694771 0,1 0.3567851,-0.3105589 A0.0635,0.0635 221.8152615 1,1 0.4464489,-0.2208951 A0.5715,0.5715 321.3694771 0,1 0.4601774,-0.2030038 A0.0635,0.0635 236.8152615 1,1 0.5235793,-0.0931884 A0.5715,0.5715 336.3694771 0,1 0.5322094,-0.0723536 A0.0635,0.0635 251.8152615 1,1 0.5650287,0.0501295 A0.5715,0.5715 351.3694771 0,1 0.5679722,0.0724881 A0.0635,0.0635 266.8152615 1,1 0.5679722,0.1992919 A0.5715,0.5715 6.3694771 0,1 0.5650287,0.2216505 A0.0635,0.0635 281.8152615 1,1 0.5322094,0.3441336 A0.5715,0.5715 21.3694771 0,1 0.5235793,0.3649684 A0.0635,0.0635 296.8152615 1,1 0.4601774,0.4747838 A0.5715,0.5715 36.3694771 0,1 0.4464489,0.4926751 A0.0635,0.0635 311.8152615 1,1 0.3567851,0.5823389 A0.5715,0.5715 51.3694771 0,1 0.3388938,0.5960674 A0.0635,0.0635 326.8152615 1,1 0.2290784,0.6594693 A0.5715,0.5715 66.3694771 0,1 0.2082436,0.6680994 A0.0635,0.0635 341.8152615 1,1 0.0857605,0.7009187 A0.5715,0.5715 81.3694771 0,1 0.0634019,0.7038622 A0.0635,0.0635 356.8152615 1,1 -0.0634019,0.7038622 A0.5715,0.5715 96.3694771 0,1 -0.0857605,0.7009187z" transform="matrix(1,0,0,-1,0.635,0.77089)" fill="rgb(0,0,0)" shaper:cutDepth="0.32004cm" stroke-linecap="round" stroke-linejoin="round" /><path d="M-0.1175007,0.0254 L0.1175007,0.0254 A0.16129,0.16129 316.7612965 1,1 -0.1175007,0.0254z" transform="matrix(1,0,0,-1,0.635,0.77089)" fill="rgb(255,255,255)" stroke="rgb(0,0,0)" stroke-width="0.0010cm" stroke-linecap="round" stroke-linejoin="round" shaper:cutDepth="0.32004cm" /></svg>