G04 #@! TF.GenerationSoftware,KiCad,Pcbnew,(5.1.6)-1*
G04 #@! TF.CreationDate,2021-07-23T23:59:45+10:00*
G04 #@! TF.ProjectId,RWR_Control_Panel,5257525f-436f-46e7-9472-6f6c5f50616e,-*
G04 #@! TF.SameCoordinates,Original*
G04 #@! TF.FileFunction,Copper,L1,Top*
G04 #@! TF.FilePolarity,Positive*
%FSLAX46Y46*%
G04 Gerber Fmt 4.6, Leading zero omitted, Abs format (unit mm)*
G04 Created by KiCad (PCBNEW (5.1.6)-1) date 2021-07-23 23:59:45*
%MOMM*%
%LPD*%
G01*
G04 APERTURE LIST*
G04 #@! TA.AperFunction,ComponentPad*
%ADD10O,1.740000X2.190000*%
G04 #@! TD*
G04 #@! TA.AperFunction,ComponentPad*
%ADD11O,1.800000X1.800000*%
G04 #@! TD*
G04 #@! TA.AperFunction,ComponentPad*
%ADD12R,1.800000X1.800000*%
G04 #@! TD*
G04 #@! TA.AperFunction,ComponentPad*
%ADD13C,1.800000*%
G04 #@! TD*
G04 #@! TA.AperFunction,ComponentPad*
%ADD14C,1.524000*%
G04 #@! TD*
G04 #@! TA.AperFunction,ComponentPad*
%ADD15C,1.700000*%
G04 #@! TD*
G04 #@! TA.AperFunction,Conductor*
%ADD16C,0.250000*%
G04 #@! TD*
G04 APERTURE END LIST*
D10*
X168434000Y-108109000D03*
X165894000Y-108109000D03*
X163354000Y-108109000D03*
X160814000Y-108109000D03*
X158274000Y-108109000D03*
X155734000Y-108109000D03*
X153194000Y-108109000D03*
G04 #@! TA.AperFunction,ComponentPad*
G36*
G01*
X149784000Y-108954001D02*
X149784000Y-107263999D01*
G75*
G02*
X150033999Y-107014000I249999J0D01*
G01*
X151274001Y-107014000D01*
G75*
G02*
X151524000Y-107263999I0J-249999D01*
G01*
X151524000Y-108954001D01*
G75*
G02*
X151274001Y-109204000I-249999J0D01*
G01*
X150033999Y-109204000D01*
G75*
G02*
X149784000Y-108954001I0J249999D01*
G01*
G37*
G04 #@! TD.AperFunction*
X165386000Y-116745000D03*
X162846000Y-116745000D03*
X160306000Y-116745000D03*
G04 #@! TA.AperFunction,ComponentPad*
G36*
G01*
X156896000Y-117590001D02*
X156896000Y-115899999D01*
G75*
G02*
X157145999Y-115650000I249999J0D01*
G01*
X158386001Y-115650000D01*
G75*
G02*
X158636000Y-115899999I0J-249999D01*
G01*
X158636000Y-117590001D01*
G75*
G02*
X158386001Y-117840000I-249999J0D01*
G01*
X157145999Y-117840000D01*
G75*
G02*
X156896000Y-117590001I0J249999D01*
G01*
G37*
G04 #@! TD.AperFunction*
X141510000Y-117507000D03*
X138970000Y-117507000D03*
X136430000Y-117507000D03*
X133890000Y-117507000D03*
X131350000Y-117507000D03*
G04 #@! TA.AperFunction,ComponentPad*
G36*
G01*
X127940000Y-118352001D02*
X127940000Y-116661999D01*
G75*
G02*
X128189999Y-116412000I249999J0D01*
G01*
X129430001Y-116412000D01*
G75*
G02*
X129680000Y-116661999I0J-249999D01*
G01*
X129680000Y-118352001D01*
G75*
G02*
X129430001Y-118602000I-249999J0D01*
G01*
X128189999Y-118602000D01*
G75*
G02*
X127940000Y-118352001I0J249999D01*
G01*
G37*
G04 #@! TD.AperFunction*
X153702000Y-116745000D03*
X151162000Y-116745000D03*
G04 #@! TA.AperFunction,ComponentPad*
G36*
G01*
X147752000Y-117590001D02*
X147752000Y-115899999D01*
G75*
G02*
X148001999Y-115650000I249999J0D01*
G01*
X149242001Y-115650000D01*
G75*
G02*
X149492000Y-115899999I0J-249999D01*
G01*
X149492000Y-117590001D01*
G75*
G02*
X149242001Y-117840000I-249999J0D01*
G01*
X148001999Y-117840000D01*
G75*
G02*
X147752000Y-117590001I0J249999D01*
G01*
G37*
G04 #@! TD.AperFunction*
X174530000Y-116745000D03*
X171990000Y-116745000D03*
G04 #@! TA.AperFunction,ComponentPad*
G36*
G01*
X168580000Y-117590001D02*
X168580000Y-115899999D01*
G75*
G02*
X168829999Y-115650000I249999J0D01*
G01*
X170070001Y-115650000D01*
G75*
G02*
X170320000Y-115899999I0J-249999D01*
G01*
X170320000Y-117590001D01*
G75*
G02*
X170070001Y-117840000I-249999J0D01*
G01*
X168829999Y-117840000D01*
G75*
G02*
X168580000Y-117590001I0J249999D01*
G01*
G37*
G04 #@! TD.AperFunction*
X142018000Y-109633000D03*
X139478000Y-109633000D03*
X136938000Y-109633000D03*
X134398000Y-109633000D03*
X131858000Y-109633000D03*
X129318000Y-109633000D03*
X126778000Y-109633000D03*
G04 #@! TA.AperFunction,ComponentPad*
G36*
G01*
X123368000Y-110478001D02*
X123368000Y-108787999D01*
G75*
G02*
X123617999Y-108538000I249999J0D01*
G01*
X124858001Y-108538000D01*
G75*
G02*
X125108000Y-108787999I0J-249999D01*
G01*
X125108000Y-110478001D01*
G75*
G02*
X124858001Y-110728000I-249999J0D01*
G01*
X123617999Y-110728000D01*
G75*
G02*
X123368000Y-110478001I0J249999D01*
G01*
G37*
G04 #@! TD.AperFunction*
D11*
X191294000Y-110141000D03*
D12*
X191294000Y-102521000D03*
D11*
X187535000Y-110141000D03*
D12*
X187535000Y-102521000D03*
D13*
X180880000Y-95408800D03*
D12*
X183420000Y-95408800D03*
D11*
X183775000Y-110141000D03*
D12*
X183775000Y-102521000D03*
D13*
X163354000Y-95408800D03*
D12*
X165894000Y-95408800D03*
D11*
X180016000Y-110141000D03*
D12*
X180016000Y-102521000D03*
D13*
X145828000Y-95408800D03*
D12*
X148368000Y-95408800D03*
D11*
X176257000Y-110141000D03*
D12*
X176257000Y-102521000D03*
D13*
X128048000Y-95408800D03*
D12*
X130588000Y-95408800D03*
D11*
X172498000Y-110141000D03*
D12*
X172498000Y-102521000D03*
D13*
X110776000Y-87026800D03*
D12*
X113316000Y-87026800D03*
D14*
X181936000Y-92037800D03*
X181896000Y-86246800D03*
D15*
X185071000Y-91326800D03*
X178721000Y-91326800D03*
X185071000Y-86881800D03*
X178721000Y-86881800D03*
D14*
X164410000Y-92037800D03*
X164370000Y-86246800D03*
D15*
X167545000Y-91326800D03*
X161195000Y-91326800D03*
X167545000Y-86881800D03*
X161195000Y-86881800D03*
D14*
X147011000Y-92037800D03*
X146971000Y-86246800D03*
D15*
X150146000Y-91326800D03*
X143796000Y-91326800D03*
X150146000Y-86881800D03*
X143796000Y-86881800D03*
D14*
X129485000Y-92037800D03*
X129445000Y-86246800D03*
D15*
X132620000Y-91326800D03*
X126270000Y-91326800D03*
X132620000Y-86881800D03*
X126270000Y-86881800D03*
D14*
X112086000Y-96137800D03*
X112046000Y-90346800D03*
D15*
X115221000Y-95426800D03*
X108871000Y-95426800D03*
X115221000Y-90981800D03*
X108871000Y-90981800D03*
D16*
X172498000Y-110141000D02*
X171272700Y-110141000D01*
X171272700Y-110141000D02*
X170892000Y-110521700D01*
X170892000Y-110521700D02*
X153066700Y-110521700D01*
X153066700Y-110521700D02*
X150654000Y-108109000D01*
X176257000Y-110141000D02*
X172498000Y-110141000D01*
X183775000Y-110141000D02*
X187535000Y-110141000D01*
X180016000Y-110141000D02*
X183775000Y-110141000D01*
X176257000Y-110141000D02*
X180016000Y-110141000D01*
X191294000Y-110141000D02*
X190068700Y-110141000D01*
X190068700Y-110141000D02*
X188831500Y-108903800D01*
X188831500Y-108903800D02*
X171425400Y-108903800D01*
X171425400Y-108903800D02*
X170318700Y-110010500D01*
X170318700Y-110010500D02*
X155095500Y-110010500D01*
X155095500Y-110010500D02*
X153194000Y-108109000D01*
X182143300Y-93977900D02*
X182419900Y-93977900D01*
X182419900Y-93977900D02*
X185071000Y-91326800D01*
X178721000Y-91326800D02*
X181372100Y-93977900D01*
X181372100Y-93977900D02*
X182143300Y-93977900D01*
X167089300Y-108109000D02*
X167089300Y-107511300D01*
X167089300Y-107511300D02*
X169640600Y-104960000D01*
X169640600Y-104960000D02*
X172978300Y-104960000D01*
X172978300Y-104960000D02*
X174624000Y-103314300D01*
X174624000Y-103314300D02*
X174624000Y-101858700D01*
X174624000Y-101858700D02*
X175187100Y-101295600D01*
X175187100Y-101295600D02*
X176728800Y-101295600D01*
X176728800Y-101295600D02*
X182143300Y-95881100D01*
X182143300Y-95881100D02*
X182143300Y-93977900D01*
X165894000Y-108109000D02*
X167089300Y-108109000D01*
X126270000Y-91326800D02*
X126660600Y-90936200D01*
X126660600Y-90936200D02*
X132229400Y-90936200D01*
X132229400Y-90936200D02*
X132620000Y-91326800D01*
X155734000Y-108109000D02*
X154538700Y-108109000D01*
X130154700Y-111064500D02*
X144900200Y-111064500D01*
X144900200Y-111064500D02*
X149286700Y-106678000D01*
X149286700Y-106678000D02*
X153705300Y-106678000D01*
X153705300Y-106678000D02*
X154538700Y-107511400D01*
X154538700Y-107511400D02*
X154538700Y-108109000D01*
X115221000Y-95426800D02*
X128005900Y-108211700D01*
X128005900Y-108211700D02*
X128005900Y-110258800D01*
X128005900Y-110258800D02*
X128811600Y-111064500D01*
X128811600Y-111064500D02*
X130154700Y-111064500D01*
X130154700Y-117507000D02*
X130154700Y-111064500D01*
X131350000Y-117507000D02*
X130154700Y-117507000D01*
X108871000Y-95426800D02*
X109297900Y-94999900D01*
X109297900Y-94999900D02*
X114794100Y-94999900D01*
X114794100Y-94999900D02*
X115221000Y-95426800D01*
X160306000Y-116745000D02*
X161501300Y-116745000D01*
X174530000Y-116745000D02*
X173334700Y-116745000D01*
X173334700Y-116745000D02*
X173334700Y-116147400D01*
X173334700Y-116147400D02*
X172503700Y-115316400D01*
X172503700Y-115316400D02*
X162332200Y-115316400D01*
X162332200Y-115316400D02*
X161501300Y-116147300D01*
X161501300Y-116147300D02*
X161501300Y-116745000D01*
X165386000Y-116745000D02*
X164190700Y-116745000D01*
X151162000Y-116745000D02*
X152357300Y-116745000D01*
X152357300Y-116745000D02*
X152357300Y-117342700D01*
X152357300Y-117342700D02*
X153183100Y-118168500D01*
X153183100Y-118168500D02*
X163364800Y-118168500D01*
X163364800Y-118168500D02*
X164190700Y-117342600D01*
X164190700Y-117342600D02*
X164190700Y-116745000D01*
X145828000Y-95408800D02*
X147053400Y-96634200D01*
X147053400Y-96634200D02*
X162128600Y-96634200D01*
X162128600Y-96634200D02*
X163354000Y-95408800D01*
X128048000Y-95408800D02*
X129273400Y-96634200D01*
X129273400Y-96634200D02*
X144602600Y-96634200D01*
X144602600Y-96634200D02*
X145828000Y-95408800D01*
X163354000Y-95408800D02*
X164606500Y-94156300D01*
X164606500Y-94156300D02*
X179627500Y-94156300D01*
X179627500Y-94156300D02*
X180880000Y-95408800D01*
X130588000Y-95408800D02*
X130588000Y-94183500D01*
X129485000Y-92037800D02*
X129485000Y-93080500D01*
X129485000Y-93080500D02*
X130588000Y-94183500D01*
X136938000Y-109633000D02*
X138133300Y-109633000D01*
X165894000Y-95408800D02*
X167650700Y-95408800D01*
X167650700Y-95408800D02*
X173723400Y-101481500D01*
X173723400Y-101481500D02*
X173723400Y-103555700D01*
X173723400Y-103555700D02*
X173369700Y-103909400D01*
X173369700Y-103909400D02*
X145121400Y-103909400D01*
X145121400Y-103909400D02*
X142157500Y-106873300D01*
X142157500Y-106873300D02*
X140295300Y-106873300D01*
X140295300Y-106873300D02*
X138133300Y-109035300D01*
X138133300Y-109035300D02*
X138133300Y-109633000D01*
X183420000Y-96634100D02*
X177482400Y-102571700D01*
X177482400Y-102571700D02*
X177482400Y-103568700D01*
X177482400Y-103568700D02*
X176422500Y-104628600D01*
X176422500Y-104628600D02*
X174165500Y-104628600D01*
X174165500Y-104628600D02*
X169255200Y-109538900D01*
X169255200Y-109538900D02*
X160298700Y-109538900D01*
X160298700Y-109538900D02*
X159544000Y-108784200D01*
X159544000Y-108784200D02*
X159544000Y-107445400D01*
X159544000Y-107445400D02*
X158292900Y-106194300D01*
X158292900Y-106194300D02*
X143514300Y-106194300D01*
X143514300Y-106194300D02*
X140673300Y-109035300D01*
X140673300Y-109035300D02*
X140673300Y-109633000D01*
X183420000Y-95408800D02*
X183420000Y-96634100D01*
X139478000Y-109633000D02*
X140673300Y-109633000D01*
X164370000Y-86246800D02*
X163814800Y-85691600D01*
X163814800Y-85691600D02*
X147526200Y-85691600D01*
X147526200Y-85691600D02*
X146971000Y-86246800D01*
X181896000Y-86246800D02*
X181340800Y-85691600D01*
X181340800Y-85691600D02*
X164925200Y-85691600D01*
X164925200Y-85691600D02*
X164370000Y-86246800D01*
X129445000Y-86246800D02*
X129985400Y-85706400D01*
X129985400Y-85706400D02*
X146430600Y-85706400D01*
X146430600Y-85706400D02*
X146971000Y-86246800D01*
X112046000Y-90346800D02*
X113399600Y-88993200D01*
X113399600Y-88993200D02*
X126698600Y-88993200D01*
X126698600Y-88993200D02*
X129445000Y-86246800D01*
X171272700Y-102521000D02*
X166021400Y-97269700D01*
X166021400Y-97269700D02*
X121508900Y-97269700D01*
X121508900Y-97269700D02*
X115221000Y-90981800D01*
X108871000Y-90981800D02*
X109327100Y-91437900D01*
X109327100Y-91437900D02*
X114764900Y-91437900D01*
X114764900Y-91437900D02*
X115221000Y-90981800D01*
X172498000Y-102521000D02*
X171272700Y-102521000D01*
M02*
