<?xml version="1.0" encoding="utf-8"?>
<!-- Generator: Fusion 360, Shaper Origin Export Add-In, Version 1.6.10  -->
<svg xmlns="http://www.w3.org/2000/svg" xmlns:xlink="http://www.w3.org/1999/xlink" xmlns:shaper="http://www.shapertools.com/namespaces/shaper" shaper:fusionaddin="version:1.6.10" width="58.8747583cm" height="21.2521517cm" version="1.1" x="0cm" y="0cm" viewBox="0 0 58.8747583 21.2521517" enable-background="new 0 0 58.8747583 21.2521517" xml:space="preserve"><path d="M-27.5261863,-3.0732612 L-26.8277614,-2.8876239 A2.54,2.54 284.884735 0,1 -25.6841735,-2.228906 L-21.893614,1.5616536 A5.08,5.08 135 0,0 -19.6996065,2.8533745 L-19.6996065,2.8533745 -19.4230148,2.9320744 -19.1458731,3.0099699 -18.8681721,3.0870613 -18.5899029,3.163349 -18.3110564,3.2388333 -18.0316234,3.3135143 -17.751595,3.3873925 -17.470962,3.4604681 -17.1897154,3.5327415 -16.9078462,3.6042129 -16.6253451,3.6748826 -16.3422033,3.744751 -16.0584115,3.8138182 -15.7739608,3.8820847 -15.488842,3.9495508 -15.2030461,4.0162166 -14.916564,4.0820826 -14.6293867,4.147149 -14.341505,4.2114161 -14.05291,4.2748843 -13.7635925,4.3375538 -13.4735434,4.3994249 -13.1827537,4.4604979 -12.8912143,4.5207731 -12.5989162,4.5802509 -12.3058503,4.6389315 -12.0120074,4.6968152 -11.7173786,4.7539023 -11.4219548,4.8101931 -11.1257268,4.865688 -10.8286857,4.9203872 -10.5308215,4.9742901 A12.7,12.7 100.1691852 0,0 -8.2885679,5.1737981 L-7.8522786,5.1737981 A5.334,5.334 90 0,0 -4.080571,3.6115057 L2.9841109,-3.4531763 A1.27,1.27 45 0,0 2.0860853,-5.6212019 L0.0721365,-5.6212019 0.0721365,-10.0662019 6.615379,-10.0662019 6.615379,-10.7012019 29.4373792,-10.7012019 29.4373705,9.6810685 29.4373619,9.6810689 29.2041329,9.7023955 28.9702131,9.7235259 28.7356122,9.7444571 28.5003398,9.7651864 28.2644057,9.7857112 28.0278196,9.8060286 27.7905912,9.8261359 27.5527302,9.8460304 27.3142464,9.8657093 27.0751494,9.8851699 26.835449,9.9044094 26.5951548,9.9234251 26.3542766,9.9422142 26.1128242,9.9607741 25.8708071,9.9791018 25.6282352,9.9971948 25.1414656,10.0326654 24.652593,10.0671638 24.1616952,10.1006681 23.6688499,10.1331564 23.1741348,10.1646066 22.6776276,10.1949968 22.179406,10.2243051 21.6795477,10.2525095 21.1781304,10.2795879 20.6752318,10.3055186 20.1709297,10.3302794 19.6653017,10.3538484 19.1584255,10.3762037 18.6503789,10.3973233 18.1412395,10.4171853 17.6310852,10.4357676 17.1199934,10.4530483 16.6080421,10.4690055 16.0953088,10.4836172 15.5818714,10.4968613 15.0678074,10.5087161 14.5531946,10.5191594 14.0381107,10.5281694 13.5226335,10.535724 13.0068406,10.5418013 12.4908097,10.5463794 11.9746185,10.5494362 11.4583448,10.5509499 10.9420663,10.5508984 10.4258606,10.5492598 9.9098054,10.5460121 9.3939786,10.5411333 8.8784577,10.5346016 8.3633205,10.5263949 7.8486447,10.5164913 7.3345079,10.5048687 6.8210349,10.4915075 6.5649487,10.4841863 6.3094691,10.4764454 6.0545932,10.4682846 5.8003182,10.4597042 5.5466416,10.450704 5.2935604,10.4412842 5.041072,10.4314449 4.7891736,10.421186 4.5378625,10.4105076 4.2871359,10.3994098 4.0369912,10.3878926 3.7874255,10.375956 3.538436,10.3636002 3.2900202,10.350825 3.0421751,10.3376307 2.7948982,10.3240172 2.5481866,10.3099846 2.3020375,10.2955329 2.0564483,10.2806622 1.8114162,10.2653725 1.5669385,10.2496639 1.3230124,10.2335364 1.0796351,10.21699 0.836804,10.2000249 0.5945162,10.182641 0.3527691,10.1648384 0.1115599,10.1466172 -0.1291141,10.1279773 -0.3692558,10.1089189 -0.6088677,10.089442 -0.8479528,10.0695466 -1.0865137,10.0492328 -1.3245531,10.0285006 -1.5620738,10.0073501 -1.7990786,9.9857813 -2.0355702,9.9637943 -2.2715513,9.9413891 -2.5070247,9.9185658 -2.7419932,9.8953243 -2.9764593,9.8716648 -3.210426,9.8475873 -3.443896,9.8230919 -3.676872,9.7981785 -3.9093567,9.7728473 -4.1413528,9.7470983 -4.3728633,9.7209315 -4.6038906,9.6943469 -4.8344377,9.6673447 -5.0645073,9.6399249 -5.294102,9.6120875 -5.5232247,9.5838325 -5.7518781,9.5551601 -5.980065,9.5260702 -6.207788,9.4965629 -6.4350499,9.4666382 -6.6618535,9.4362963 -6.8882014,9.4055371 -7.1140966,9.3743606 -7.3395416,9.3427671 -7.5645393,9.3107564 -7.7890923,9.2783286 -8.0132035,9.2454838 -8.2368755,9.212222 -8.4601111,9.1785433 -8.9052842,9.1099352 -9.3487447,9.03966 -9.7905144,8.967718 -10.2306154,8.8941096 -10.6690697,8.818835 -11.105899,8.7418948 -11.5411255,8.6632893 -11.974771,8.5830189 -12.4068575,8.5010838 -12.8374069,8.4174846 -13.2664413,8.3322215 -13.6939824,8.245295 -14.1200524,8.1567054 -14.544673,8.0664531 -14.9678664,7.9745385 -15.3896544,7.8809618 -15.8100589,7.7857236 -16.229102,7.6888242 -16.6468055,7.5902639 -17.0631915,7.4900431 -17.4782818,7.3881622 -17.8920984,7.2846215 -18.3046633,7.1794215 -18.7159984,7.0725626 -19.1261256,6.9640449 -19.535067,6.8538691 -19.9428444,6.7420353 -20.3494797,6.6285441 -20.7549951,6.5133957 -21.1594123,6.3965905 -21.5627533,6.278129 -21.9650402,6.1580114 -22.3662947,6.0362382 -22.766539,5.9128097 -23.1657948,5.7877263 -23.5640843,5.6609883 -23.9614293,5.5325962 -24.3578517,5.4025504 -24.7533735,5.2708511 -25.1480168,5.1374987 -25.5418033,5.0024937 -25.9347551,4.8658364 -26.3268941,4.7275271 -26.7182422,4.5875663 -27.1088215,4.4459543 -27.4986538,4.3026915 -27.8877611,4.1577782 -28.2761653,4.0112149 -28.6638884,3.8630018 -29.0509524,3.7131395 -29.4373792,3.5616282 -29.4373792,-3.0694163 -27.5261863,-3.0732612z" transform="matrix(1,0,0,-1,29.4373792,10.5509499)" fill="rgb(0,0,0)" stroke-linecap="round" stroke-linejoin="round" /><path d="M26.7981837,8.7286627 a0.099187,0.099187 0 1,1 0.198374,0 a0.099187,0.099187 0 1,1 -0.198374,0z" transform="matrix(1,0,0,-1,29.4373792,10.5509499)" fill="rgb(255,255,255)" stroke="rgb(0,0,0)" stroke-width="0.0010cm" stroke-linecap="round" stroke-linejoin="round" /><path d="M20.6826342,-6.9547019 a0.245745,0.245745 0 1,1 0.49149,0 a0.245745,0.245745 0 1,1 -0.49149,0z" transform="matrix(1,0,0,-1,29.4373792,10.5509499)" fill="rgb(255,255,255)" stroke="rgb(0,0,0)" stroke-width="0.0010cm" stroke-linecap="round" stroke-linejoin="round" /><path d="M20.6826342,6.3802981 a0.245745,0.245745 0 1,1 0.49149,0 a0.245745,0.245745 0 1,1 -0.49149,0z" transform="matrix(1,0,0,-1,29.4373792,10.5509499)" fill="rgb(255,255,255)" stroke="rgb(0,0,0)" stroke-width="0.0010cm" stroke-linecap="round" stroke-linejoin="round" /><path d="M11.7926342,6.3802981 a0.245745,0.245745 0 1,1 0.49149,0 a0.245745,0.245745 0 1,1 -0.49149,0z" transform="matrix(1,0,0,-1,29.4373792,10.5509499)" fill="rgb(255,255,255)" stroke="rgb(0,0,0)" stroke-width="0.0010cm" stroke-linecap="round" stroke-linejoin="round" /><path d="M11.7926342,-6.9547019 a0.245745,0.245745 0 1,1 0.49149,0 a0.245745,0.245745 0 1,1 -0.49149,0z" transform="matrix(1,0,0,-1,29.4373792,10.5509499)" fill="rgb(255,255,255)" stroke="rgb(0,0,0)" stroke-width="0.0010cm" stroke-linecap="round" stroke-linejoin="round" /><path d="M6.4421242,6.4931257 a0.135255,0.135255 0 1,1 0.27051,0 a0.135255,0.135255 0 1,1 -0.27051,0z" transform="matrix(1,0,0,-1,29.4373792,10.5509499)" fill="rgb(255,255,255)" stroke="rgb(0,0,0)" stroke-width="0.0010cm" stroke-linecap="round" stroke-linejoin="round" /><path d="M6.4421242,-1.7618743 a0.135255,0.135255 0 1,1 0.27051,0 a0.135255,0.135255 0 1,1 -0.27051,0z" transform="matrix(1,0,0,-1,29.4373792,10.5509499)" fill="rgb(255,255,255)" stroke="rgb(0,0,0)" stroke-width="0.0010cm" stroke-linecap="round" stroke-linejoin="round" /><path d="M1.6161242,-1.1268743 a0.135255,0.135255 0 1,1 0.27051,0 a0.135255,0.135255 0 1,1 -0.27051,0z" transform="matrix(1,0,0,-1,29.4373792,10.5509499)" fill="rgb(255,255,255)" stroke="rgb(0,0,0)" stroke-width="0.0010cm" stroke-linecap="round" stroke-linejoin="round" /><path d="M1.6161242,6.3661257 a0.135255,0.135255 0 1,1 0.27051,0 a0.135255,0.135255 0 1,1 -0.27051,0z" transform="matrix(1,0,0,-1,29.4373792,10.5509499)" fill="rgb(255,255,255)" stroke="rgb(0,0,0)" stroke-width="0.0010cm" stroke-linecap="round" stroke-linejoin="round" /><path d="M-8.6705617,8.1997694 a0.245745,0.245745 0 1,1 0.49149,0 a0.245745,0.245745 0 1,1 -0.49149,0z" transform="matrix(1,0,0,-1,29.4373792,10.5509499)" fill="rgb(255,255,255)" stroke="rgb(0,0,0)" stroke-width="0.0010cm" stroke-linecap="round" stroke-linejoin="round" /><path d="M-10.1954341,7.5315303 a0.245745,0.245745 0 1,1 0.49149,0 a0.245745,0.245745 0 1,1 -0.49149,0z" transform="matrix(1,0,0,-1,29.4373792,10.5509499)" fill="rgb(255,255,255)" stroke="rgb(0,0,0)" stroke-width="0.0010cm" stroke-linecap="round" stroke-linejoin="round" /><path d="M-12.3268345,6.5974946 a0.245745,0.245745 0 1,1 0.49149,0 a0.245745,0.245745 0 1,1 -0.49149,0z" transform="matrix(1,0,0,-1,29.4373792,10.5509499)" fill="rgb(255,255,255)" stroke="rgb(0,0,0)" stroke-width="0.0010cm" stroke-linecap="round" stroke-linejoin="round" /><path d="M0.4613917,-7.3570686 a0.245745,0.245745 0 1,1 0.49149,0 a0.245745,0.245745 0 1,1 -0.49149,0z" transform="matrix(1,0,0,-1,29.4373792,10.5509499)" fill="rgb(255,255,255)" stroke="rgb(0,0,0)" stroke-width="0.0010cm" stroke-linecap="round" stroke-linejoin="round" /><path d="M1.7313915,-8.9232019 a0.245745,0.245745 0 1,1 0.49149,0 a0.245745,0.245745 0 1,1 -0.49149,0z" transform="matrix(1,0,0,-1,29.4373792,10.5509499)" fill="rgb(255,255,255)" stroke="rgb(0,0,0)" stroke-width="0.0010cm" stroke-linecap="round" stroke-linejoin="round" /><path d="M-16.6451359,6.5517503 a0.2976626,0.2976626 0 1,1 0.5953252,0 a0.2976626,0.2976626 0 1,1 -0.5953252,0z" transform="matrix(1,0,0,-1,29.4373792,10.5509499)" fill="rgb(255,255,255)" stroke="rgb(0,0,0)" stroke-width="0.0010cm" stroke-linecap="round" stroke-linejoin="round" /><path d="M-15.1922876,5.3134273 a0.2976626,0.2976626 0 1,1 0.5953252,0 a0.2976626,0.2976626 0 1,1 -0.5953252,0z" transform="matrix(1,0,0,-1,29.4373792,10.5509499)" fill="rgb(255,255,255)" stroke="rgb(0,0,0)" stroke-width="0.0010cm" stroke-linecap="round" stroke-linejoin="round" /><path d="M-14.3935685,7.0472842 a0.2976626,0.2976626 0 1,1 0.5953252,0 a0.2976626,0.2976626 0 1,1 -0.5953252,0z" transform="matrix(1,0,0,-1,29.4373792,10.5509499)" fill="rgb(255,255,255)" stroke="rgb(0,0,0)" stroke-width="0.0010cm" stroke-linecap="round" stroke-linejoin="round" /><path d="M21.8173792,0.0937981 L21.8173792,-0.2872019 A5.334,5.334 0 0,0 16.4833792,-5.6212019 L14.5457566,-5.6212019 A5.334,5.334 270 0,0 10.774049,-4.0589094 L3.709367,3.0057725 A1.27,1.27 225 0,0 4.6073926,5.1737981 L16.7373792,5.1737981 A5.08,5.08 90 0,0 21.8173792,0.0937981z" transform="matrix(1,0,0,-1,29.4373792,10.5509499)" fill="rgb(255,255,255)" stroke="rgb(0,0,0)" stroke-width="0.0010cm" stroke-linecap="round" stroke-linejoin="round" /><path d="M-28.7261792,-1.8012234 a0.2413,0.2413 0 1,1 0.4826,0 a0.2413,0.2413 0 1,1 -0.4826,0z" transform="matrix(1,0,0,-1,29.4373792,10.5509499)" fill="rgb(255,255,255)" stroke="rgb(0,0,0)" stroke-width="0.0010cm" stroke-linecap="round" stroke-linejoin="round" /><path d="M-28.7261792,2.0087869 a0.2413,0.2413 0 1,1 0.4826,0 a0.2413,0.2413 0 1,1 -0.4826,0z" transform="matrix(1,0,0,-1,29.4373792,10.5509499)" fill="rgb(255,255,255)" stroke="rgb(0,0,0)" stroke-width="0.0010cm" stroke-linecap="round" stroke-linejoin="round" /><path d="M25.2106837,8.7286627 a0.099187,0.099187 0 1,1 0.198374,0 a0.099187,0.099187 0 1,1 -0.198374,0z" transform="matrix(1,0,0,-1,29.4373792,10.5509499)" fill="rgb(255,255,255)" stroke="rgb(0,0,0)" stroke-width="0.0010cm" stroke-linecap="round" stroke-linejoin="round" /></svg>