<?xml version="1.0" encoding="utf-8"?>
<!-- Generator: Fusion 360, Shaper Origin Export Add-In, Version 1.6.10  -->
<svg xmlns="http://www.w3.org/2000/svg" xmlns:xlink="http://www.w3.org/1999/xlink" xmlns:shaper="http://www.shapertools.com/namespaces/shaper" shaper:fusionaddin="version:1.6.10" width="66.87995cm" height="24.9768223cm" version="1.1" x="0cm" y="0cm" viewBox="0 0 66.87995 24.9768223" enable-background="new 0 0 66.87995 24.9768223" xml:space="preserve"><path d="M33.439975,-12.5780579 L33.439975,4.529787 33.439975,4.529787 33.2970251,4.5862669 33.2970251,4.5862669 32.8590711,4.7578632 32.4203918,4.9275662 31.9809613,5.0953757 31.5407538,5.2612911 31.0997432,5.4253121 30.6579035,5.5874382 30.2152089,5.7476691 29.7716335,5.9060043 29.3271512,6.0624435 28.8817361,6.2169861 28.4353623,6.3696319 27.9880038,6.5203804 27.5396348,6.6692311 27.0902292,6.8161837 26.6397611,6.9612378 26.1882046,7.104393 25.7355337,7.2456487 25.2817225,7.3850048 24.826745,7.5224606 24.3705754,7.6580159 23.9131876,7.7916701 23.4545557,7.923423 22.9946538,8.053274 22.5334559,8.1812229 22.0709361,8.3072691 21.6070685,8.4314122 21.141827,8.5536519 20.6751858,8.6739877 20.207119,8.7924193 19.9725428,8.8509208 19.7376005,8.9089462 19.5022887,8.9664952 19.2666044,9.0235679 19.0305442,9.0801643 18.7941048,9.1362842 18.5572831,9.1919277 18.3200758,9.2470946 18.0824796,9.3017849 17.8444914,9.3559986 17.6061078,9.4097356 17.3673256,9.4629959 17.1281416,9.5157794 16.8885526,9.5680861 16.6485552,9.6199159 16.4081463,9.6712687 16.1673226,9.7221446 15.9260809,9.7725434 15.6844179,9.8224651 15.4423304,9.8719096 15.1998151,9.920877 14.9568688,9.9693671 14.7134883,10.01738 14.4696702,10.0649154 14.2254115,10.1119735 13.9807087,10.1585541 13.7355588,10.2046573 13.4899583,10.2502828 13.2439042,10.2954308 12.9973931,10.3401011 12.7504219,10.3842937 12.5029872,10.4280085 12.2550858,10.4712456 12.0067145,10.5140047 11.75787,10.556286 11.5085492,10.5980893 11.2587487,10.6394146 11.0084653,10.6802618 10.7576957,10.7206309 10.5064368,10.7605218 10.2546853,10.7999345 10.0024379,10.8388689 9.7496914,10.877325 9.4964426,10.9153028 9.2426881,10.9528021 8.9884249,10.9898229 8.7336495,11.0263652 8.4783589,11.0624289 8.2225497,11.098014 7.9662186,11.1331204 7.7093626,11.1677481 7.4519782,11.201897 7.1940623,11.2355671 6.9356116,11.2687583 6.676623,11.3014705 6.417093,11.3337038 6.1570186,11.365458 5.8963964,11.3967331 5.6352232,11.4275291 5.3734957,11.4578459 5.1112109,11.4876834 4.8483652,11.5170416 4.5849557,11.5459205 4.3209789,11.57432 4.0564317,11.6022401 3.7913108,11.6296806 3.5256129,11.6566416 3.2593349,11.683123 2.9924735,11.7091247 2.7250254,11.7346468 2.4569874,11.759689 2.1883562,11.7842515 1.9191287,11.8083341 1.6493015,11.8319368 1.3788715,11.8550595 1.1078353,11.8777022 0.8361898,11.8998649 0.5639317,11.9215474 0.2910577,11.9427498 0.0175646,11.9634719 -0.2565507,11.9837138 -0.5312917,12.0034754 -0.8066615,12.0227566 -1.0826633,12.0415573 -1.3593005,12.0598776 -1.6365761,12.0777174 -1.9144936,12.0950766 -2.1930561,12.1119551 -2.4722669,12.128353 -2.7521292,12.1442702 -3.0326463,12.1597065 -3.3138213,12.1746621 -3.5956576,12.1891367 -3.8781584,12.2031304 -4.1613269,12.2166432 -4.4451664,12.2296749 -4.7296801,12.2422254 -5.0148713,12.2542949 -5.3007432,12.2658832 -5.587299,12.2769902 -5.874542,12.2876159 -6.1624754,12.2977603 -6.4511025,12.3074233 -6.7404266,12.3166048 -7.0304508,12.3253049 -7.3211783,12.3335234 -7.903728,12.3484741 -8.4869695,12.3614317 -9.0708109,12.3724219 -9.6551605,12.3814704 -10.2399263,12.3886032 -10.8250164,12.3938459 -11.410339,12.3972244 -11.9958023,12.3987644 -12.5813143,12.3984918 -13.1667832,12.3964322 -13.7521171,12.3926116 -14.3372242,12.3870558 -14.9220126,12.3797904 -15.5063904,12.3708412 -16.0902658,12.3602342 -16.6735469,12.347995 -17.2561418,12.3341495 -17.8379587,12.3187234 -18.4189057,12.3017426 -18.9988909,12.2832327 -19.5778225,12.2632197 -20.1556086,12.2417293 -20.7321573,12.2187873 -21.3073768,12.1944194 -21.8811752,12.1686515 -22.4534607,12.1415094 -23.0241413,12.1130188 -23.5931253,12.0832056 -24.1603206,12.0520955 -24.7256356,12.0197143 -25.2889783,11.9860878 -25.5698813,11.9688156 -25.8502568,11.9512418 -26.1300933,11.9333695 -26.4093793,11.9152021 -26.6881033,11.8967426 -26.9662539,11.8779944 -27.2438195,11.8589607 -27.5207888,11.8396446 -27.7971501,11.8200495 -28.072892,11.8001785 -28.3480031,11.7800349 -28.6224718,11.7596218 -28.8962866,11.7389426 -29.1694362,11.7180004 -29.4419089,11.6967984 -29.7136934,11.6753399 -29.9847781,11.6536282 -30.2551515,11.6316663 -30.5248022,11.6094576 -30.7937186,11.5870053 -31.0618894,11.5643125 -31.329303,11.5413826 -31.5959479,11.5182188 -31.8618127,11.4948242 -32.1268858,11.4712021 -32.3911558,11.4473557 -32.6546112,11.4232882 -32.9172405,11.3990029 -33.1790323,11.374503 -33.439975,11.3497917 -33.439975,-12.5780579 33.2970251,-12.5780579 33.439975,-12.5780579z" transform="matrix(1,0,0,-1,33.439975,12.3987644)" fill="rgb(0,0,0)" shaper:cutDepth="0.01905" stroke-linecap="round" stroke-linejoin="round" /><path d="M30.5112801,1.7094421 a0.245745,0.245745 0 1,1 0.49149,0 a0.245745,0.245745 0 1,1 -0.49149,0z" transform="matrix(1,0,0,-1,33.439975,12.3987644)" fill="rgb(255,255,255)" stroke="rgb(0,0,0)" stroke-width="0.0010cm" stroke-linecap="round" stroke-linejoin="round" shaper:cutDepth="0.01905" /><path d="M30.5112801,-3.3705579 a0.245745,0.245745 0 1,1 0.49149,0 a0.245745,0.245745 0 1,1 -0.49149,0z" transform="matrix(1,0,0,-1,33.439975,12.3987644)" fill="rgb(255,255,255)" stroke="rgb(0,0,0)" stroke-width="0.0010cm" stroke-linecap="round" stroke-linejoin="round" shaper:cutDepth="0.01905" /><path d="M30.5112801,-8.4505579 a0.245745,0.245745 0 1,1 0.49149,0 a0.245745,0.245745 0 1,1 -0.49149,0z" transform="matrix(1,0,0,-1,33.439975,12.3987644)" fill="rgb(255,255,255)" stroke="rgb(0,0,0)" stroke-width="0.0010cm" stroke-linecap="round" stroke-linejoin="round" shaper:cutDepth="0.01905" /><path d="M-27.6124953,9.2521728 a0.099187,0.099187 0 1,1 0.198374,0 a0.099187,0.099187 0 1,1 -0.198374,0z" transform="matrix(1,0,0,-1,33.439975,12.3987644)" fill="rgb(255,255,255)" stroke="rgb(0,0,0)" stroke-width="0.0010cm" stroke-linecap="round" stroke-linejoin="round" shaper:cutDepth="0.01905" /><path d="M-29.3058287,9.2521728 a0.099187,0.099187 0 1,1 0.198374,0 a0.099187,0.099187 0 1,1 -0.198374,0z" transform="matrix(1,0,0,-1,33.439975,12.3987644)" fill="rgb(255,255,255)" stroke="rgb(0,0,0)" stroke-width="0.0010cm" stroke-linecap="round" stroke-linejoin="round" shaper:cutDepth="0.01905" /><path d="M-30.999162,9.2521728 a0.099187,0.099187 0 1,1 0.198374,0 a0.099187,0.099187 0 1,1 -0.198374,0z" transform="matrix(1,0,0,-1,33.439975,12.3987644)" fill="rgb(255,255,255)" stroke="rgb(0,0,0)" stroke-width="0.0010cm" stroke-linecap="round" stroke-linejoin="round" shaper:cutDepth="0.01905" /><path d="M-29.3058287,-9.7205579 a0.099187,0.099187 0 1,1 0.198374,0 a0.099187,0.099187 0 1,1 -0.198374,0z" transform="matrix(1,0,0,-1,33.439975,12.3987644)" fill="rgb(255,255,255)" stroke="rgb(0,0,0)" stroke-width="0.0010cm" stroke-linecap="round" stroke-linejoin="round" shaper:cutDepth="0.01905" /><path d="M-27.6124953,-9.7205579 a0.099187,0.099187 0 1,1 0.198374,0 a0.099187,0.099187 0 1,1 -0.198374,0z" transform="matrix(1,0,0,-1,33.439975,12.3987644)" fill="rgb(255,255,255)" stroke="rgb(0,0,0)" stroke-width="0.0010cm" stroke-linecap="round" stroke-linejoin="round" shaper:cutDepth="0.01905" /><path d="M-30.999162,-9.7205579 a0.099187,0.099187 0 1,1 0.198374,0 a0.099187,0.099187 0 1,1 -0.198374,0z" transform="matrix(1,0,0,-1,33.439975,12.3987644)" fill="rgb(255,255,255)" stroke="rgb(0,0,0)" stroke-width="0.0010cm" stroke-linecap="round" stroke-linejoin="round" shaper:cutDepth="0.01905" /></svg>