<?xml version="1.0" encoding="utf-8"?>
<!-- Generator: Fusion 360, Shaper Origin Export Add-In, Version 1.6.10  -->
<svg xmlns="http://www.w3.org/2000/svg" xmlns:xlink="http://www.w3.org/1999/xlink" xmlns:shaper="http://www.shapertools.com/namespaces/shaper" shaper:fusionaddin="version:1.6.10" width="63.8736193cm" height="23.0110643cm" version="1.1" x="0cm" y="0cm" viewBox="0 0 63.8736193 23.0110643" enable-background="new 0 0 63.8736193 23.0110643" xml:space="preserve"><path d="M17.8616811,-11.3934457 A1.905,1.905 55.0059723 0,0 17.100176,-14.8300685 L7.7791444,-16.4746196 8.2204715,-18.9759853 33.2392455,-18.9759853 33.2392454,3.0371382 33.2392454,3.0371382 32.9883435,3.0608565 32.7366508,3.0843683 32.4841782,3.1076705 32.2309366,3.13076 31.9769368,3.1536338 31.7221895,3.1762887 31.4667058,3.1987216 31.2104963,3.2209296 30.9535719,3.2429096 30.6959435,3.2646583 30.4376218,3.2861729 30.1786178,3.3074502 29.9189422,3.3284871 29.6586059,3.3492806 29.3976198,3.3698276 29.1359946,3.3901249 28.8737411,3.4101696 28.6108703,3.4299586 28.347393,3.4494887 28.0833199,3.468757 27.818662,3.4877602 27.55343,3.5064955 27.2876348,3.5249596 27.0212872,3.5431495 26.7543981,3.5610621 26.4869783,3.5786944 25.9505899,3.6131057 25.4122086,3.6463586 24.8719212,3.6784287 24.3298144,3.7092912 23.7859747,3.7389217 23.2404888,3.7672954 22.6934435,3.7943879 22.1449254,3.8201744 21.5950212,3.8446305 21.0438175,3.8677314 20.491401,3.8894526 19.9378584,3.9097694 19.3832764,3.9286574 18.8277416,3.9460918 18.2713407,3.962048 17.7141603,3.9765016 17.1562872,3.9894278 16.597808,4.000802 16.0388094,4.0105997 15.479378,4.0187963 14.9196006,4.0253671 14.3595637,4.0302876 13.7993542,4.0335331 13.2390585,4.035079 12.6787635,4.0349007 12.1185557,4.0329737 11.5585219,4.0292734 10.9987487,4.023775 10.4393228,4.0164541 9.8803309,4.007286 9.3218596,3.9962461 8.7639956,3.9833098 8.2069943,3.9684605 7.9293329,3.9603359 7.6523377,3.9517494 7.3760056,3.9427011 7.1003335,3.933191 6.8253183,3.9232192 6.550957,3.9127857 6.2772466,3.9018905 6.004184,3.8905338 5.731766,3.8787156 5.4599898,3.8664358 5.1888521,3.8536947 4.91835,3.8404922 4.6484803,3.8268284 4.3792401,3.8127033 4.1106262,3.798117 3.8426357,3.7830695 3.5752654,3.7675609 3.3085122,3.7515913 3.0423732,3.7351606 2.7768452,3.7182691 2.5119253,3.7009166 2.2476103,3.6831032 1.9838971,3.6648291 1.7207828,3.6460942 1.4582643,3.6268987 1.1963384,3.6072425 0.9350022,3.5871257 0.6742526,3.5665483 0.4140865,3.5455105 0.1545008,3.5240123 -0.1045074,3.5020537 -0.3629413,3.4796347 -0.620804,3.4567555 -0.8780983,3.4334161 -1.1348276,3.4096165 -1.3909947,3.3853568 -1.6466028,3.360637 -1.9016549,3.3354572 -2.1561541,3.3098174 -2.4101034,3.2837177 -2.6635059,3.2571582 -2.9163647,3.2301389 -3.1686828,3.2026598 -3.4204632,3.174721 -3.6717091,3.1463226 -3.9224235,3.1174646 -4.1726095,3.088147 -4.4222701,3.05837 -4.6714083,3.0281335 -4.9200273,2.9974376 -5.1681301,2.9662824 -5.4157197,2.9346679 -5.6627992,2.9025942 -5.9093718,2.8700613 -6.1554403,2.8370692 -6.401008,2.8036181 -6.6460778,2.769708 -6.8906528,2.7353389 -7.1347361,2.7005109 -7.3783307,2.665224 -7.6214398,2.6294783 -7.8640662,2.5932739 -8.1062132,2.5566107 -8.3478838,2.5194889 -8.589081,2.4819085 -8.8298079,2.4438696 -9.0700676,2.4053721 -9.309863,2.3664162 -9.5491974,2.3270019 -9.7880736,2.2871292 -10.0264949,2.2467983 -10.2644642,2.2060091 -10.5019847,2.1647618 -10.7390593,2.1230563 -10.9756911,2.0808927 -11.2118832,2.0382711 -11.4476387,1.9951915 -11.6829606,1.951654 -11.917852,1.9076586 -12.1523159,1.8632054 -12.3863554,1.8182945 -12.6199735,1.7729258 -12.8531734,1.7270994 -13.085958,1.6808155 -13.3183305,1.6340739 -13.5502938,1.5868749 -13.7818511,1.5392184 -14.0130055,1.4911045 -14.2437599,1.4425333 -14.4741174,1.3935048 -14.7040811,1.344019 -14.9336541,1.294076 -15.39164,1.1928187 -15.8480996,1.0897332 -16.3030575,0.98482 -16.756538,0.8780794 -17.2085657,0.769512 -17.659165,0.6591181 -18.1083605,0.5468981 -18.5561765,0.4328525 -19.0026376,0.3169816 -19.4477683,0.199286 -19.891593,0.0797659 -20.3341363,-0.0415781 -20.7754225,-0.1647457 -21.2154762,-0.2897364 -21.6543218,-0.4165499 -22.0919839,-0.5451856 -22.5284869,-0.6756433 -22.9638553,-0.8079224 -23.3981135,-0.9420226 -23.8312861,-1.0779434 -24.2633975,-1.2156844 -24.6944723,-1.3552453 -25.1245348,-1.4966255 -25.5536095,-1.6398247 -25.9817211,-1.7848424 -26.4088938,-1.9316782 -26.8351523,-2.0803318 -27.2605209,-2.2308027 -27.6850242,-2.3830904 -28.1086866,-2.5371946 -28.5315326,-2.6931149 -28.9535868,-2.8508508 -29.3748735,-3.0104019 -29.7954172,-3.1717677 -30.2152426,-3.334948 -30.6343739,-3.4999422 -30.6343739,-10.5006947 -27.4593803,-10.507082 -21.1728752,-4.24582 -21.1728752,-4.24582 -20.8713875,-4.156417 -20.5693177,-4.0679173 -20.2666557,-3.9803204 -19.9633912,-3.8936261 -19.6595138,-3.8078342 -19.3550134,-3.7229442 -19.0498796,-3.6389558 -18.7441021,-3.5558689 -18.4376707,-3.473683 -18.130575,-3.3923978 -17.8228049,-3.3120131 -17.5143499,-3.2325284 -17.2051999,-3.1539436 -16.8953445,-3.0762583 -16.5847734,-2.9994723 -16.2734765,-2.923585 -15.9614433,-2.8485964 -15.6486636,-2.7745061 -15.3351272,-2.7013137 -15.0208237,-2.6290189 -14.7057429,-2.5576215 -14.3898745,-2.4871211 -14.0732082,-2.4175175 -13.7557336,-2.3488103 -13.4374406,-2.2809991 -13.1183189,-2.2140838 -12.7983581,-2.148064 -12.4775481,-2.0829393 -12.1558784,-2.0187095 -11.8333388,-1.9553743 -11.5099191,-1.8929333 -11.1856089,-1.8313863 -10.860398,-1.7707329 -10.5342761,-1.7109728 -10.2072311,-1.6521077 -9.8792507,-1.5941403 -9.5503253,-1.5370711 -9.2204452,-1.4809006 -8.8896006,-1.4256294 -8.5577819,-1.3712578 -8.2249793,-1.3177865 -7.8911831,-1.2652159 -7.5563837,-1.2135465 -7.2205714,-1.1627789 -6.8837364,-1.1129136 -6.545869,-1.063951 -6.2069596,-1.0158916 -5.8669984,-0.9687361 -5.5259757,-0.9224848 -5.1838819,-0.8771382 -4.8407072,-0.832697 -4.4964419,-0.7891616 -4.1510764,-0.7465324 -3.8046009,-0.7048101 -3.4570057,-0.663995 -3.1082811,-0.6240878 -2.7584175,-0.5850889 -2.407405,-0.5469989 -2.0552341,-0.5098181 -1.7018951,-0.4735472 -1.3473781,-0.4381867 -0.9916735,-0.403737 -0.6347717,-0.3701986 -0.2766629,-0.3375721 0.2839775,-3.5151845 2.2276021,-3.172471 A7.62,7.62 100 0,0 7.920803,-4.434312 L17.8616811,-11.3934457z" transform="matrix(1,0,0,-1,30.6343739,4.035079)" fill="rgb(0,0,0)" stroke-linecap="round" stroke-linejoin="round" /><path d="M-29.9104739,-5.1051077 a0.2286,0.2286 0 1,1 0.4572,0 a0.2286,0.2286 0 1,1 -0.4572,0z" transform="matrix(1,0,0,-1,30.6343739,4.035079)" fill="rgb(255,255,255)" stroke="rgb(0,0,0)" stroke-width="0.0010cm" stroke-linecap="round" stroke-linejoin="round" /><path d="M-29.9104739,-8.9151077 a0.2286,0.2286 0 1,1 0.4572,0 a0.2286,0.2286 0 1,1 -0.4572,0z" transform="matrix(1,0,0,-1,30.6343739,4.035079)" fill="rgb(255,255,255)" stroke="rgb(0,0,0)" stroke-width="0.0010cm" stroke-linecap="round" stroke-linejoin="round" /><path d="M-19.7089918,-2.2949412 a0.2976626,0.2976626 0 1,1 0.5953252,0 a0.2976626,0.2976626 0 1,1 -0.5953252,0z" transform="matrix(1,0,0,-1,30.6343739,4.035079)" fill="rgb(255,255,255)" stroke="rgb(0,0,0)" stroke-width="0.0010cm" stroke-linecap="round" stroke-linejoin="round" /><path d="M-16.012165,-1.3732188 a0.2976626,0.2976626 0 1,1 0.5953252,0 a0.2976626,0.2976626 0 1,1 -0.5953252,0z" transform="matrix(1,0,0,-1,30.6343739,4.035079)" fill="rgb(255,255,255)" stroke="rgb(0,0,0)" stroke-width="0.0010cm" stroke-linecap="round" stroke-linejoin="round" /><path d="M29.0125585,-15.4834853 a0.099187,0.099187 0 1,1 0.198374,0 a0.099187,0.099187 0 1,1 -0.198374,0z" transform="matrix(1,0,0,-1,30.6343739,4.035079)" fill="rgb(255,255,255)" stroke="rgb(0,0,0)" stroke-width="0.0010cm" stroke-linecap="round" stroke-linejoin="round" /><path d="M30.6000585,-15.4834853 a0.099187,0.099187 0 1,1 0.198374,0 a0.099187,0.099187 0 1,1 -0.198374,0z" transform="matrix(1,0,0,-1,30.6343739,4.035079)" fill="rgb(255,255,255)" stroke="rgb(0,0,0)" stroke-width="0.0010cm" stroke-linecap="round" stroke-linejoin="round" /><path d="M29.0125585,-1.5978541 a0.099187,0.099187 0 1,1 0.198374,0 a0.099187,0.099187 0 1,1 -0.198374,0z" transform="matrix(1,0,0,-1,30.6343739,4.035079)" fill="rgb(255,255,255)" stroke="rgb(0,0,0)" stroke-width="0.0010cm" stroke-linecap="round" stroke-linejoin="round" /><path d="M30.6000585,-1.5978541 a0.099187,0.099187 0 1,1 0.198374,0 a0.099187,0.099187 0 1,1 -0.198374,0z" transform="matrix(1,0,0,-1,30.6343739,4.035079)" fill="rgb(255,255,255)" stroke="rgb(0,0,0)" stroke-width="0.0010cm" stroke-linecap="round" stroke-linejoin="round" /><path d="M0.3509499,0.0399397 a0.2286,0.2286 0 1,1 0.4572,0 a0.2286,0.2286 0 1,1 -0.4572,0z" transform="matrix(1,0,0,-1,30.6343739,4.035079)" fill="rgb(255,255,255)" stroke="rgb(0,0,0)" stroke-width="0.0010cm" stroke-linecap="round" stroke-linejoin="round" /><path d="M0.7241586,2.3193231 a0.2286,0.2286 0 1,1 0.4572,0 a0.2286,0.2286 0 1,1 -0.4572,0z" transform="matrix(1,0,0,-1,30.6343739,4.035079)" fill="rgb(255,255,255)" stroke="rgb(0,0,0)" stroke-width="0.0010cm" stroke-linecap="round" stroke-linejoin="round" /><path d="M1.4816661,-1.9740995 a0.2286,0.2286 0 1,1 0.4572,0 a0.2286,0.2286 0 1,1 -0.4572,0z" transform="matrix(1,0,0,-1,30.6343739,4.035079)" fill="rgb(255,255,255)" stroke="rgb(0,0,0)" stroke-width="0.0010cm" stroke-linecap="round" stroke-linejoin="round" /><path d="M9.7768556,-18.3409853 a0.2286,0.2286 0 1,1 0.4572,0 a0.2286,0.2286 0 1,1 -0.4572,0z" transform="matrix(1,0,0,-1,30.6343739,4.035079)" fill="rgb(255,255,255)" stroke="rgb(0,0,0)" stroke-width="0.0010cm" stroke-linecap="round" stroke-linejoin="round" /><path d="M8.3760116,-17.498566 a0.2286,0.2286 0 1,1 0.4572,0 a0.2286,0.2286 0 1,1 -0.4572,0z" transform="matrix(1,0,0,-1,30.6343739,4.035079)" fill="rgb(255,255,255)" stroke="rgb(0,0,0)" stroke-width="0.0010cm" stroke-linecap="round" stroke-linejoin="round" /><path d="M19.9042394,-6.9925969 a4.445,4.445 0 1,1 8.89,0 a4.445,4.445 0 1,1 -8.89,0z" transform="matrix(1,0,0,-1,30.6343739,4.035079)" fill="rgb(255,255,255)" stroke="rgb(0,0,0)" stroke-width="0.0010cm" stroke-linecap="round" stroke-linejoin="round" /></svg>