<?xml version="1.0" encoding="utf-8"?>
<!-- Generator: Fusion 360, Shaper Origin Export Add-In, Version 1.6.10  -->
<svg xmlns="http://www.w3.org/2000/svg" xmlns:xlink="http://www.w3.org/1999/xlink" xmlns:shaper="http://www.shapertools.com/namespaces/shaper" shaper:fusionaddin="version:1.6.10" width="59.9707072cm" height="14.0763998cm" version="1.1" x="0cm" y="0cm" viewBox="0 0 59.9707072 14.0763998" enable-background="new 0 0 59.9707072 14.0763998" xml:space="preserve"><path d="M-4.7515186,-2.7316655 L29.9853536,-2.7316655 29.9853441,2.248256 29.9853346,2.2482565 29.7482209,2.2701123 29.5103946,2.2917694 29.2718657,2.3132248 29.0326442,2.3344758 28.7927399,2.3555196 28.5521629,2.3763532 28.3109231,2.396974 28.0690305,2.4173791 27.826495,2.4375657 27.5833266,2.4575309 27.3395352,2.477272 27.0951308,2.4967861 26.8501234,2.5160705 26.6045229,2.5351223 26.3583393,2.5539386 26.1115825,2.5725168 25.8642625,2.5908539 25.6163892,2.6089472 25.1190228,2.644391 24.6195628,2.6788256 24.118089,2.7122285 23.6146811,2.7445772 23.1094186,2.7758493 22.6023812,2.8060221 22.0936486,2.8350731 21.5833005,2.86298 21.0714166,2.88972 20.5580764,2.9152708 20.0433597,2.9396097 19.5273461,2.9627143 19.0101154,2.9845621 18.491747,3.0051306 17.9723208,3.0243971 17.4519163,3.0423393 16.9306133,3.0589346 16.4084914,3.0741605 15.8856303,3.0879944 15.3621096,3.1004139 14.838009,3.1113964 14.3134082,3.1209194 13.7883867,3.1289604 13.2630244,3.1354969 12.7374008,3.1405064 12.2115956,3.1439663 11.6856885,3.1458541 11.1597592,3.1461474 10.6338872,3.1448236 10.1081524,3.1418601 9.5826342,3.1372346 9.0574125,3.1309243 8.5325668,3.1229069 8.0081768,3.1131599 7.4843222,3.1016606 6.9610843,3.0883867 6.6999811,3.0810895 6.4394988,3.0733632 6.1796345,3.0652079 5.9203854,3.0566237 5.6617486,3.0476106 5.4037215,3.0381687 5.1463011,3.0282979 4.8894846,3.0179985 4.6332693,3.0072703 4.3776524,2.9961134 4.1226309,2.984528 3.8682021,2.972514 3.6143633,2.9600715 3.3611115,2.9472005 3.1084439,2.9339012 2.8563578,2.9201734 2.6048504,2.9060173 2.3539188,2.891433 2.1035602,2.8764205 1.8537718,2.8609797 1.6045508,2.8451109 1.3558944,2.8288139 1.1077997,2.812089 0.860264,2.794936 0.6132844,2.7773551 0.3668582,2.7593463 0.1209824,2.7409097 -0.1243456,2.7220453 -0.3691287,2.7027531 -0.6133698,2.6830333 -0.8570716,2.6628858 -1.1002369,2.6423106 -1.3428686,2.621308 -1.5849695,2.5998778 -1.8265423,2.5780202 -2.0675899,2.5557351 -2.3081152,2.5330227 -2.5481209,2.509883 -2.7876098,2.486316 -3.0265847,2.4623218 -3.2650485,2.4379004 -3.503004,2.4130519 -3.740454,2.3877763 -3.9774012,2.3620736 -4.2138486,2.335944 -4.4497988,2.3093875 -4.6852549,2.282404 -4.9202194,2.2549938 -5.1546953,2.2271567 -5.3886854,2.1988929 -5.6221925,2.1702024 -5.8552193,2.1410852 -6.0877688,2.1115415 -6.3198437,2.0815712 -6.5514468,2.0511744 -6.7825809,2.0203511 -7.0132489,1.9891014 -7.2434536,1.9574254 -7.4731978,1.925323 -7.7024842,1.8927944 -7.9313158,1.8598395 -8.1596953,1.8264585 -8.3876255,1.7926514 -8.6151092,1.7584181 -8.8421493,1.7237589 -9.0687486,1.6886736 -9.2949098,1.6531625 -9.5206359,1.6172254 -9.7459295,1.5808625 -9.9707936,1.5440739 -10.1952308,1.5068594 -10.4192442,1.4692193 -10.8660102,1.3926622 -11.3111141,1.3144029 -11.7545785,1.2344417 -12.1964258,1.1527791 -12.6366785,1.0694154 -13.075359,0.9843511 -13.51249,0.8975864 -13.9480939,0.8091218 -14.3821933,0.7189577 -14.8148105,0.6270945 -15.2459681,0.5335324 -15.6756886,0.438272 -16.1039945,0.3413136 -16.5309084,0.2426575 -16.9564526,0.1423042 -17.3806497,0.040254 -17.8035223,-0.0634927 -18.2250927,-0.1689355 -18.6453835,-0.276074 -19.0644172,-0.3849078 -19.4822163,-0.4954366 -19.8988033,-0.60766 -20.3142007,-0.7215775 -20.728431,-0.8371889 -21.1415167,-0.9544937 -21.5534803,-1.0734916 -21.9643442,-1.1941821 -22.3741311,-1.3165649 -22.7828633,-1.4406396 -23.1905634,-1.5664059 -23.597254,-1.6938633 -24.0029573,-1.8230114 -24.4076961,-1.95385 -24.8114928,-2.0863785 -25.2143698,-2.2205966 -25.6163497,-2.356504 -26.017455,-2.4941003 -26.4177082,-2.633385 -26.8171317,-2.7743578 -27.2157482,-2.9170183 -27.61358,-3.0613661 -28.0106496,-3.2074009 -28.4069797,-3.3551222 -28.8025926,-3.5045298 -29.1975109,-3.6556231 -29.5917571,-3.8084018 -29.9853536,-3.9628656 -29.9853536,-10.9228644 -26.3129475,-10.9302524 -20.0424575,-4.684941 A0.635,0.635 134.8847349 0,0 -19.7668994,-4.5237496 L-19.7668994,-4.5237496 -19.3306053,-4.4017289 -19.1119444,-4.3414527 -18.8929351,-4.2816657 -18.6735733,-4.2223678 -18.4538546,-4.1635589 -18.2337748,-4.1052387 -18.0133296,-4.0474073 -17.7925149,-3.9900644 -17.5713262,-3.9332099 -17.3497594,-3.8768436 -17.1278101,-3.8209655 -16.9054742,-3.7655754 -16.6827473,-3.7106731 -16.4596253,-3.6562586 -16.2361037,-3.6023316 -16.0121784,-3.548892 -15.7878451,-3.4959398 -15.5630996,-3.4434747 -15.3379376,-3.3914966 -15.1123547,-3.3400055 -14.8863468,-3.289001 -14.6599096,-3.2384832 -14.4330388,-3.1884519 -14.2057302,-3.1389069 -13.9779795,-3.0898481 -13.7497824,-3.0412753 -13.5211347,-2.9931885 -13.2920321,-2.9455875 -13.0624704,-2.8984721 -12.8324452,-2.8518422 -12.6019523,-2.8056977 -12.3709876,-2.7600384 -12.1395466,-2.7148642 -11.9076251,-2.670175 -11.6752189,-2.6259706 -11.4423237,-2.5822509 -11.2089353,-2.5390157 -10.9750493,-2.4962649 -10.7406605,-2.4539995 -10.5057634,-2.412221 -10.2703541,-2.3709296 -10.0344284,-2.3301255 -9.7979824,-2.289809 -9.5610121,-2.2499802 -9.3235134,-2.2106394 -9.0854824,-2.1717867 -8.846915,-2.1334225 -8.6078073,-2.0955468 -8.3681552,-2.05816 -8.1279547,-2.0212623 -7.8872018,-1.9848538 -7.6458924,-1.9489348 -7.4040227,-1.9135054 -7.1615885,-1.878566 -6.9185859,-1.8441167 -6.6750108,-1.8101578 -6.4308592,-1.7766894 -6.1861272,-1.7437118 -5.9408107,-1.7112252 -5.6949056,-1.6792298 -5.4484081,-1.6477258 -5.201314,-1.6167135 -4.9536194,-1.586193 -4.7515186,-2.7316655z" transform="matrix(1,0,0,-1,29.9853536,3.1461474)" fill="rgb(0,0,0)" stroke-linecap="round" stroke-linejoin="round" /><path d="M25.7586574,-1.7410404 a0.099187,0.099187 0 1,1 0.198374,0 a0.099187,0.099187 0 1,1 -0.198374,0z" transform="matrix(1,0,0,-1,29.9853536,3.1461474)" fill="rgb(255,255,255)" stroke="rgb(0,0,0)" stroke-width="0.0010cm" stroke-linecap="round" stroke-linejoin="round" /><path d="M27.3461581,0.7989596 a0.099187,0.099187 0 1,1 0.198374,0 a0.099187,0.099187 0 1,1 -0.198374,0z" transform="matrix(1,0,0,-1,29.9853536,3.1461474)" fill="rgb(255,255,255)" stroke="rgb(0,0,0)" stroke-width="0.0010cm" stroke-linecap="round" stroke-linejoin="round" /><path d="M25.7586581,0.7989596 a0.099187,0.099187 0 1,1 0.198374,0 a0.099187,0.099187 0 1,1 -0.198374,0z" transform="matrix(1,0,0,-1,29.9853536,3.1461474)" fill="rgb(255,255,255)" stroke="rgb(0,0,0)" stroke-width="0.0010cm" stroke-linecap="round" stroke-linejoin="round" /><path d="M-5.0861027,1.2919637 a0.2286,0.2286 0 1,1 0.4572,0 a0.2286,0.2286 0 1,1 -0.4572,0z" transform="matrix(1,0,0,-1,29.9853536,3.1461474)" fill="rgb(255,255,255)" stroke="rgb(0,0,0)" stroke-width="0.0010cm" stroke-linecap="round" stroke-linejoin="round" /><path d="M-3.3023563,-0.8198546 a0.2286,0.2286 0 1,1 0.4572,0 a0.2286,0.2286 0 1,1 -0.4572,0z" transform="matrix(1,0,0,-1,29.9853536,3.1461474)" fill="rgb(255,255,255)" stroke="rgb(0,0,0)" stroke-width="0.0010cm" stroke-linecap="round" stroke-linejoin="round" /><path d="M-29.2614536,-9.3372773 a0.2286,0.2286 0 1,1 0.4572,0 a0.2286,0.2286 0 1,1 -0.4572,0z" transform="matrix(1,0,0,-1,29.9853536,3.1461474)" fill="rgb(255,255,255)" stroke="rgb(0,0,0)" stroke-width="0.0010cm" stroke-linecap="round" stroke-linejoin="round" /><path d="M-29.2614536,-5.5272773 a0.2286,0.2286 0 1,1 0.4572,0 a0.2286,0.2286 0 1,1 -0.4572,0z" transform="matrix(1,0,0,-1,29.9853536,3.1461474)" fill="rgb(255,255,255)" stroke="rgb(0,0,0)" stroke-width="0.0010cm" stroke-linecap="round" stroke-linejoin="round" /><path d="M-27.4535428,-9.3372773 a0.2247899,0.2247899 0 1,1 0.4495799,0 a0.2247899,0.2247899 0 1,1 -0.4495799,0z" transform="matrix(1,0,0,-1,29.9853536,3.1461474)" fill="rgb(255,255,255)" stroke="rgb(0,0,0)" stroke-width="0.0010cm" stroke-linecap="round" stroke-linejoin="round" /><path d="M-27.4535429,-5.5272773 a0.22479,0.22479 0 1,1 0.4495799,0 a0.22479,0.22479 0 1,1 -0.4495799,0z" transform="matrix(1,0,0,-1,29.9853536,3.1461474)" fill="rgb(255,255,255)" stroke="rgb(0,0,0)" stroke-width="0.0010cm" stroke-linecap="round" stroke-linejoin="round" /><path d="M27.3461574,-1.7410404 a0.099187,0.099187 0 1,1 0.198374,0 a0.099187,0.099187 0 1,1 -0.198374,0z" transform="matrix(1,0,0,-1,29.9853536,3.1461474)" fill="rgb(255,255,255)" stroke="rgb(0,0,0)" stroke-width="0.0010cm" stroke-linecap="round" stroke-linejoin="round" /></svg>