<?xml version="1.0" encoding="utf-8"?>
<!-- Generator: Fusion 360, Shaper Origin Export Add-In, Version 1.6.10  -->
<svg xmlns="http://www.w3.org/2000/svg" xmlns:xlink="http://www.w3.org/1999/xlink" xmlns:shaper="http://www.shapertools.com/namespaces/shaper" shaper:fusionaddin="version:1.6.10" width="62.5914545cm" height="22.3975124cm" version="1.1" x="0cm" y="0cm" viewBox="0 0 62.5914545 22.3975124" enable-background="new 0 0 62.5914545 22.3975124" xml:space="preserve"><path d="M-17.2422873,11.1376658 A1.905,1.905 235.0059723 0,0 -16.4807821,14.5742886 L-7.1597506,16.2188398 -7.6010777,18.7202055 -32.6198516,18.7202055 -32.6198516,-2.7119771 -32.6198516,-2.7119771 -32.2007994,-2.7510995 -31.7799749,-2.7895889 -31.3573936,-2.8274371 -30.9330712,-2.8646354 -30.5070237,-2.9011749 -30.0792672,-2.9370462 -29.6498182,-2.9722397 -29.2186931,-3.0067453 -28.7859087,-3.0405527 -28.3514818,-3.0736512 -27.9154295,-3.1060296 -27.4777691,-3.1376766 -27.0385176,-3.1685804 -26.5976927,-3.1987288 -26.1553118,-3.2281095 -25.7113925,-3.2567095 -25.2659526,-3.2845156 -24.8190098,-3.3115144 -24.3705822,-3.3376919 -23.9206875,-3.3630339 -23.4693439,-3.3875258 -23.0165693,-3.4111526 -22.5623818,-3.4338991 -22.1067996,-3.4557496 -21.6498406,-3.4766879 -21.1915232,-3.4966979 -20.7318653,-3.5157627 -20.2708851,-3.5338652 -19.8086006,-3.5509881 -19.34503,-3.5671134 -18.8801911,-3.5822231 -18.4141021,-3.5962986 -17.9467806,-3.609321 -17.4782447,-3.6212711 -17.0085119,-3.6321294 -16.5376,-3.6418757 -16.0655265,-3.6504899 -15.5923089,-3.6579513 -15.1179643,-3.6642388 -14.6425102,-3.669331 -14.1659634,-3.6732061 -13.6883411,-3.6758422 -13.2096598,-3.6772167 -12.7299365,-3.6773069 -12.2491875,-3.6760897 -11.7674292,-3.6735416 -11.284678,-3.669639 -10.8009499,-3.6643576 -10.3162609,-3.6576732 -9.8306269,-3.649561 -9.3440633,-3.6399961 -8.8565858,-3.6289531 -8.3682097,-3.6164065 -7.8789501,-3.6023303 -7.3888221,-3.5866985 -6.8978405,-3.5694845 -6.40602,-3.5506617 -5.913375,-3.530203 -5.4199199,-3.5080812 -4.9256689,-3.4842688 -4.4306358,-3.458738 -3.9348345,-3.4314608 -3.4382785,-3.4024089 -2.9409813,-3.3715539 -2.442956,-3.3388669 -1.9442156,-3.304319 -1.444773,-3.2678809 -0.9446408,-3.2295234 -0.4438313,-3.1892166 0.0576433,-3.1469308 0.5597709,-3.1026359 1.0625399,-3.0563017 1.5659385,-3.0078977 2.0699555,-2.9573934 2.5745798,-2.904758 3.0798003,-2.8499608 3.5856064,-2.7929708 4.0919875,-2.733757 4.5989332,-2.6722883 5.1064336,-2.6085335 5.6144787,-2.5424615 5.8687024,-2.5085468 6.1230587,-2.4740411 6.3775463,-2.4389404 6.6321642,-2.403241 6.8869111,-2.3669389 7.1417859,-2.3300301 7.3967875,-2.2925109 7.6519148,-2.2543772 7.9071666,-2.2156253 8.1625419,-2.1762512 8.4180396,-2.1362511 8.6736586,-2.095621 8.9293979,-2.0543572 9.1852565,-2.0124556 9.4412332,-1.9699126 9.6973272,-1.9267242 9.9535374,-1.8828866 10.2098628,-1.838396 10.4663024,-1.7932485 10.7228553,-1.7474402 10.9795206,-1.7009675 11.2362972,-1.6538265 11.4931843,-1.6060134 11.750181,-1.5575245 12.0072864,-1.5083559 12.2644995,-1.458504 12.5218196,-1.4079649 12.7792457,-1.356735 13.036777,-1.3048105 13.2944127,-1.2521878 13.5521519,-1.1988631 13.8099939,-1.1448328 14.0679378,-1.0900932 14.3259829,-1.0346408 14.5841284,-0.9784718 14.8423736,-0.9215827 15.1007176,-0.8639699 15.3591598,-0.8056298 15.6176995,-0.7465588 15.8763359,-0.6867535 16.1350683,-0.6262104 16.3938961,-0.5649259 16.6528186,-0.5028966 16.9118352,-0.440119 17.1709451,-0.3765898 17.4301479,-0.3123055 17.6894427,-0.2472628 17.9488292,-0.1814583 18.2083065,-0.1148888 18.4678743,-0.047551 18.7275318,0.0205585 18.9872786,0.0894427 19.2471141,0.1591049 19.5070377,0.2295481 19.767049,0.3007756 20.0271474,0.3727903 20.2873325,0.4455953 20.5476037,0.5191937 20.8079606,0.5935882 21.0684027,0.6687819 21.3289296,0.7447775 21.5895408,0.821578 21.850236,0.899186 22.1110146,0.9776044 22.3718763,1.0568357 22.6328207,1.1368827 22.8938474,1.2177478 23.1549561,1.2994336 23.4161463,1.3819427 23.6774178,1.4652773 23.9387703,1.5494399 24.2002033,1.6344329 24.4617165,1.7202583 24.7233098,1.8069185 24.9849827,1.8944155 25.2467351,1.9827516 25.5085665,2.0719285 25.7704769,2.1619484 26.0324659,2.2528131 26.2945333,2.3445244 26.5566788,2.4370841 26.8189024,2.5304938 27.0812037,2.6247553 27.3435825,2.71987 27.6060388,2.8158394 27.8685723,2.912665 28.1311828,3.010348 28.3938702,3.1088898 28.6566344,3.2082915 28.9194753,3.3085542 29.1823926,3.409679 29.4453864,3.5116668 29.7084565,3.6145185 29.9716028,3.7182349 29.9716028,10.7055749 28.0666067,10.7094073 22.3882101,5.0538119 22.3882101,5.0538119 22.0555239,4.948324 21.7229839,4.8442226 21.3905884,4.7415026 21.0583354,4.6401586 20.7262231,4.5401854 20.3942495,4.4415776 20.0624127,4.3443302 19.730711,4.2484377 19.3991422,4.1538948 19.0677047,4.0606964 18.7363963,3.9688372 18.4052154,3.8783118 18.0741599,3.7891151 17.7432278,3.7012412 17.4124136,3.614676 17.0817164,3.5294082 16.7511374,3.4454297 16.4206774,3.3627323 16.0903376,3.2813077 15.7601188,3.2011476 15.4300222,3.1222439 15.1000488,3.0445883 14.7701995,2.9681726 14.4404753,2.8929884 14.1108773,2.8190276 13.7814065,2.746282 13.452064,2.6747432 13.1228506,2.6044031 12.7937674,2.5352534 12.4648155,2.4672859 12.1359958,2.4004923 11.8073093,2.3348644 11.4787571,2.2703939 11.1503402,2.2070727 10.8220596,2.1448924 10.4939162,2.0838448 10.1659112,2.0239218 9.8380455,1.965115 9.5103201,1.9074162 9.182736,1.8508172 8.8552944,1.7953097 8.527996,1.7408855 8.200842,1.6875364 7.8738335,1.635254 7.5469713,1.5840303 7.2202565,1.5338569 6.8936901,1.4847255 6.5672732,1.436628 6.2410067,1.3895562 5.9148916,1.3435017 5.588929,1.2984563 5.2631199,1.2544118 4.9374652,1.21136 4.6119661,1.1692926 4.2866234,1.1282013 3.9614383,1.088078 3.6364117,1.0489144 3.3115446,1.0107022 2.9868385,0.9734318 2.6622974,0.9370888 2.3379258,0.9016649 2.0137278,0.8671526 1.6897077,0.8335441 1.3658699,0.8008318 0.9140903,3.3614405 -1.6082083,2.9166912 A7.62,7.62 280 0,0 -7.3014092,4.1785321 L-17.2422873,11.1376658z" transform="matrix(1,0,0,-1,32.6198516,18.7202055)" fill="rgb(0,0,0)" stroke-linecap="round" stroke-linejoin="round" /><path d="M-28.5915386,1.3420742 a0.099187,0.099187 0 1,1 0.198374,0 a0.099187,0.099187 0 1,1 -0.198374,0z" transform="matrix(1,0,0,-1,32.6198516,18.7202055)" fill="rgb(255,255,255)" stroke="rgb(0,0,0)" stroke-width="0.0010cm" stroke-linecap="round" stroke-linejoin="round" /><path d="M-28.5915386,15.2277055 a0.099187,0.099187 0 1,1 0.198374,0 a0.099187,0.099187 0 1,1 -0.198374,0z" transform="matrix(1,0,0,-1,32.6198516,18.7202055)" fill="rgb(255,255,255)" stroke="rgb(0,0,0)" stroke-width="0.0010cm" stroke-linecap="round" stroke-linejoin="round" /><path d="M28.7778028,9.1198813 a0.2413,0.2413 0 1,1 0.4826,0 a0.2413,0.2413 0 1,1 -0.4826,0z" transform="matrix(1,0,0,-1,32.6198516,18.7202055)" fill="rgb(255,255,255)" stroke="rgb(0,0,0)" stroke-width="0.0010cm" stroke-linecap="round" stroke-linejoin="round" /><path d="M28.7778028,5.309871 a0.2413,0.2413 0 1,1 0.4826,0 a0.2413,0.2413 0 1,1 -0.4826,0z" transform="matrix(1,0,0,-1,32.6198516,18.7202055)" fill="rgb(255,255,255)" stroke="rgb(0,0,0)" stroke-width="0.0010cm" stroke-linecap="round" stroke-linejoin="round" /><path d="M21.0508448,3.7345248 a0.2976626,0.2976626 0 1,1 0.5953252,0 a0.2976626,0.2976626 0 1,1 -0.5953252,0z" transform="matrix(1,0,0,-1,32.6198516,18.7202055)" fill="rgb(255,255,255)" stroke="rgb(0,0,0)" stroke-width="0.0010cm" stroke-linecap="round" stroke-linejoin="round" /><path d="M18.6367095,3.0876592 a0.2976626,0.2976626 0 1,1 0.5953252,0 a0.2976626,0.2976626 0 1,1 -0.5953252,0z" transform="matrix(1,0,0,-1,32.6198516,18.7202055)" fill="rgb(255,255,255)" stroke="rgb(0,0,0)" stroke-width="0.0010cm" stroke-linecap="round" stroke-linejoin="round" /><path d="M-30.179028,17.7677055 a0.099187,0.099187 0 1,1 0.198374,0 a0.099187,0.099187 0 1,1 -0.198374,0z" transform="matrix(1,0,0,-1,32.6198516,18.7202055)" fill="rgb(255,255,255)" stroke="rgb(0,0,0)" stroke-width="0.0010cm" stroke-linecap="round" stroke-linejoin="round" /><path d="M-28.591528,17.7677055 a0.099187,0.099187 0 1,1 0.198374,0 a0.099187,0.099187 0 1,1 -0.198374,0z" transform="matrix(1,0,0,-1,32.6198516,18.7202055)" fill="rgb(255,255,255)" stroke="rgb(0,0,0)" stroke-width="0.0010cm" stroke-linecap="round" stroke-linejoin="round" /><path d="M-28.591528,-1.1979258 a0.099187,0.099187 0 1,1 0.198374,0 a0.099187,0.099187 0 1,1 -0.198374,0z" transform="matrix(1,0,0,-1,32.6198516,18.7202055)" fill="rgb(255,255,255)" stroke="rgb(0,0,0)" stroke-width="0.0010cm" stroke-linecap="round" stroke-linejoin="round" /><path d="M-30.179028,-1.1979258 a0.099187,0.099187 0 1,1 0.198374,0 a0.099187,0.099187 0 1,1 -0.198374,0z" transform="matrix(1,0,0,-1,32.6198516,18.7202055)" fill="rgb(255,255,255)" stroke="rgb(0,0,0)" stroke-width="0.0010cm" stroke-linecap="round" stroke-linejoin="round" /><path d="M-0.0883135,-1.877816 a0.2286,0.2286 0 1,1 0.4572,0 a0.2286,0.2286 0 1,1 -0.4572,0z" transform="matrix(1,0,0,-1,32.6198516,18.7202055)" fill="rgb(255,255,255)" stroke="rgb(0,0,0)" stroke-width="0.0010cm" stroke-linecap="round" stroke-linejoin="round" /><path d="M-0.7407983,1.8203555 a0.2286,0.2286 0 1,1 0.4572,0 a0.2286,0.2286 0 1,1 -0.4572,0z" transform="matrix(1,0,0,-1,32.6198516,18.7202055)" fill="rgb(255,255,255)" stroke="rgb(0,0,0)" stroke-width="0.0010cm" stroke-linecap="round" stroke-linejoin="round" /><path d="M0.3374064,0.1039418 a0.2286,0.2286 0 1,1 0.4572,0 a0.2286,0.2286 0 1,1 -0.4572,0z" transform="matrix(1,0,0,-1,32.6198516,18.7202055)" fill="rgb(255,255,255)" stroke="rgb(0,0,0)" stroke-width="0.0010cm" stroke-linecap="round" stroke-linejoin="round" /><path d="M-8.152505,16.8952763 a0.2286,0.2286 0 1,1 0.4572,0 a0.2286,0.2286 0 1,1 -0.4572,0z" transform="matrix(1,0,0,-1,32.6198516,18.7202055)" fill="rgb(255,255,255)" stroke="rgb(0,0,0)" stroke-width="0.0010cm" stroke-linecap="round" stroke-linejoin="round" /><path d="M-9.6146618,18.0852055 a0.2286,0.2286 0 1,1 0.4572,0 a0.2286,0.2286 0 1,1 -0.4572,0z" transform="matrix(1,0,0,-1,32.6198516,18.7202055)" fill="rgb(255,255,255)" stroke="rgb(0,0,0)" stroke-width="0.0010cm" stroke-linecap="round" stroke-linejoin="round" /><path d="M-28.1748455,6.7368171 a4.445,4.445 0 1,1 8.89,0 a4.445,4.445 0 1,1 -8.89,0z" transform="matrix(1,0,0,-1,32.6198516,18.7202055)" fill="rgb(255,255,255)" stroke="rgb(0,0,0)" stroke-width="0.0010cm" stroke-linecap="round" stroke-linejoin="round" /><path d="M-30.1790386,15.2277055 a0.099187,0.099187 0 1,1 0.198374,0 a0.099187,0.099187 0 1,1 -0.198374,0z" transform="matrix(1,0,0,-1,32.6198516,18.7202055)" fill="rgb(255,255,255)" stroke="rgb(0,0,0)" stroke-width="0.0010cm" stroke-linecap="round" stroke-linejoin="round" /><path d="M-30.1790386,1.3420742 a0.099187,0.099187 0 1,1 0.198374,0 a0.099187,0.099187 0 1,1 -0.198374,0z" transform="matrix(1,0,0,-1,32.6198516,18.7202055)" fill="rgb(255,255,255)" stroke="rgb(0,0,0)" stroke-width="0.0010cm" stroke-linecap="round" stroke-linejoin="round" /></svg>