<?xml version="1.0" encoding="utf-8"?>
<!-- Generator: Fusion 360, Shaper Origin Export Add-In, Version 1.6.10  -->
<svg xmlns="http://www.w3.org/2000/svg" xmlns:xlink="http://www.w3.org/1999/xlink" xmlns:shaper="http://www.shapertools.com/namespaces/shaper" shaper:fusionaddin="version:1.6.10" width="71.3742931cm" height="24.0321996cm" version="1.1" x="0cm" y="0cm" viewBox="0 0 71.3742931 24.0321996" enable-background="new 0 0 71.3742931 24.0321996" xml:space="preserve"><path d="M33.420656,-10.9821182 L33.420656,-10.9821182 32.8559455,-11.0320943 32.2909963,-11.0809072 31.7259073,-11.1285496 31.1607771,-11.1750144 30.5957045,-11.2202941 30.0307882,-11.2643816 29.466127,-11.3072696 28.9018194,-11.3489508 28.3379643,-11.3894179 27.7746604,-11.4286636 27.2120065,-11.4666807 26.6501012,-11.503462 26.0890432,-11.539 25.5289313,-11.5732877 24.9698642,-11.6063176 24.4119407,-11.6380825 23.8552595,-11.6685752 23.2999192,-11.6977884 22.7460186,-11.7257147 22.1936565,-11.752347 21.6429315,-11.777678 21.0939424,-11.8017003 20.8201595,-11.8132182 20.5469984,-11.8244061 20.0022946,-11.8458009 19.4592068,-11.8659046 18.917084,-11.8847377 18.3752757,-11.9023204 17.8332027,-11.918665 17.2907187,-11.9337569 16.7478393,-11.9475794 16.20458,-11.9601156 15.6609566,-11.9713489 15.1169848,-11.9812624 14.5726803,-11.9898395 14.0280587,-11.9970633 13.4831357,-12.0029172 12.9379269,-12.0073833 12.392448,-12.0104434 11.8467145,-12.0120791 11.300742,-12.0122719 10.7545462,-12.0110037 10.2081426,-12.0082559 9.661547,-12.0040102 9.1147748,-11.9982482 8.5678418,-11.9909517 8.0207634,-11.9821019 7.4735553,-11.971678 6.9262332,-11.9596608 6.3788126,-11.9460315 5.8313093,-11.9307718 5.283739,-11.9138629 4.7361174,-11.8952863 4.1884603,-11.8750233 3.6407832,-11.8530555 3.093102,-11.8293642 2.5454322,-11.8039308 1.9977897,-11.7767367 1.45019,-11.7477634 0.902649,-11.7169922 0.3551822,-11.6844046 -0.1921945,-11.6499819 -0.7394656,-11.6137057 -1.2866152,-11.5755572 -1.8336277,-11.535518 -2.3804875,-11.4935693 -2.9271787,-11.4496927 -3.4736857,-11.4038695 -4.0199929,-11.3560812 -4.5660844,-11.3063091 -5.1119933,-11.2545293 -5.6578066,-11.2007143 -6.2034198,-11.1448605 -6.7487159,-11.0869658 -7.2935777,-11.0270282 -7.8378882,-10.9650455 -8.3815305,-10.9010158 -8.9243875,-10.8349368 -9.4663279,-10.7668103 -10.0072074,-10.6966513 -10.5470316,-10.6244533 -11.0858246,-10.5502059 -11.6236104,-10.4738987 -12.160413,-10.3955215 -12.6962565,-10.315064 -13.2311648,-10.2325157 -13.765162,-10.1478665 -14.2982722,-10.0611059 -14.8305194,-9.9722237 -15.3619276,-9.8812096 -15.8925207,-9.7880531 -16.422323,-9.6927441 -16.9513579,-9.5952703 -17.479648,-9.4956152 -18.0072171,-9.3937679 -18.5340894,-9.2897184 -19.0602887,-9.1834563 -19.5858392,-9.0749715 -20.1107649,-8.9642539 -20.6350898,-8.8512931 -21.1588378,-8.736079 -21.6820331,-8.6186015 -22.2046997,-8.4988503 -22.7268615,-8.3768151 -23.2485426,-8.2524859 -23.769767,-8.1258525 -24.2905588,-7.9969045 -24.8109419,-7.8656318 -25.3309404,-7.7320243 -25.8505783,-7.5960717 -26.3698796,-7.4577638 -26.8888684,-7.3170905 -27.4075686,-7.1740415 -27.666818,-7.1016229 -27.9260043,-7.0286066 -28.1851305,-6.9549913 -28.4441996,-6.8807757 -28.7032145,-6.8059585 -28.9621784,-6.7305385 -29.2210941,-6.6545143 -29.4799647,-6.5778848 -29.7387932,-6.5006486 -29.9975826,-6.4228045 -30.2563359,-6.3443511 -30.5150561,-6.2652873 -30.7737462,-6.1856117 -31.0324092,-6.1053231 -31.2910481,-6.0244201 -31.549666,-5.9429016 -31.8082657,-5.8607662 -32.0668504,-5.7780126 -32.325423,-5.6946397 -32.5839865,-5.610646 -32.8425439,-5.5260304 -33.1010983,-5.4407916 -33.3596526,-5.3549283 -33.6182099,-5.2684391 -33.876773,-5.1813229 -34.1353452,-5.0935784 -34.3939292,-5.0052043 -34.6525282,-4.9161993 -34.9111452,-4.8265621 -35.1697831,-4.7362915 -35.4284449,-4.6453861 -35.6871338,-4.5538448 -35.6871466,12.0199276 35.6871466,12.0199276 35.6871466,-10.7628032 35.6871466,-10.7628032 35.4047606,-10.7911917 35.1220777,-10.8193075 34.8391142,-10.8471492 34.5558866,-10.874715 34.2724112,-10.9020033 33.9887044,-10.9290127 33.7047827,-10.9557415 33.4206625,-10.9821882" transform="matrix(1,0,0,-1,35.6871466,12.0199276)" fill="rgb(0,0,0)" stroke-linecap="round" stroke-linejoin="round" /><path d="M34.1017696,-6.6282036 L31.5617696,-6.6282036 A0.635,0.635 270 1,0 31.5617696,-5.3582036 L34.1017696,-5.3582036 A0.635,0.635 90 0,0 34.1017696,-6.6282036z" transform="matrix(1,0,0,-1,35.6871466,12.0199276)" fill="rgb(255,255,255)" stroke="rgb(0,0,0)" stroke-width="0.0010cm" stroke-linecap="round" stroke-linejoin="round" /><path d="M34.1017695,7.2574276 L31.5617695,7.2574276 A0.635,0.635 270 1,0 31.5617695,8.5274276 L34.1017695,8.5274276 A0.635,0.635 90 0,0 34.1017695,7.2574276z" transform="matrix(1,0,0,-1,35.6871466,12.0199276)" fill="rgb(255,255,255)" stroke="rgb(0,0,0)" stroke-width="0.0010cm" stroke-linecap="round" stroke-linejoin="round" /><path d="M-1.9156453,-6.7110018 L-1.9156453,-7.0285018 A0.635,0.635 0 0,0 -2.5506453,-7.6635018 L-4.4556453,-7.6635018 A0.635,0.635 270 0,0 -5.0906453,-7.0285018 L-5.0906453,-6.7110018 A0.635,0.635 180 0,0 -4.4556453,-6.0760018 L-2.5506453,-6.0760018 A0.635,0.635 90 0,0 -1.9156453,-6.7110018z" transform="matrix(1,0,0,-1,35.6871466,12.0199276)" fill="rgb(255,255,255)" stroke="rgb(0,0,0)" stroke-width="0.0010cm" stroke-linecap="round" stroke-linejoin="round" /><path d="M-2.2896603,-8.2985018 a0.215265,0.215265 0 1,1 0.43053,0 a0.215265,0.215265 0 1,1 -0.43053,0z" transform="matrix(1,0,0,-1,35.6871466,12.0199276)" fill="rgb(255,255,255)" stroke="rgb(0,0,0)" stroke-width="0.0010cm" stroke-linecap="round" stroke-linejoin="round" /><path d="M-5.1471603,-5.4410018 a0.215265,0.215265 0 1,1 0.43053,0 a0.215265,0.215265 0 1,1 -0.43053,0z" transform="matrix(1,0,0,-1,35.6871466,12.0199276)" fill="rgb(255,255,255)" stroke="rgb(0,0,0)" stroke-width="0.0010cm" stroke-linecap="round" stroke-linejoin="round" /><path d="M3.1348299,-9.982263 a0.245745,0.245745 0 1,1 0.49149,0 a0.245745,0.245745 0 1,1 -0.49149,0z" transform="matrix(1,0,0,-1,35.6871466,12.0199276)" fill="rgb(255,255,255)" stroke="rgb(0,0,0)" stroke-width="0.0010cm" stroke-linecap="round" stroke-linejoin="round" /><path d="M2.0446016,-7.8993782 a0.245745,0.245745 0 1,1 0.49149,0 a0.245745,0.245745 0 1,1 -0.49149,0z" transform="matrix(1,0,0,-1,35.6871466,12.0199276)" fill="rgb(255,255,255)" stroke="rgb(0,0,0)" stroke-width="0.0010cm" stroke-linecap="round" stroke-linejoin="round" /><path d="M3.8566574,-6.1354552 a0.245745,0.245745 0 1,1 0.49149,0 a0.245745,0.245745 0 1,1 -0.49149,0z" transform="matrix(1,0,0,-1,35.6871466,12.0199276)" fill="rgb(255,255,255)" stroke="rgb(0,0,0)" stroke-width="0.0010cm" stroke-linecap="round" stroke-linejoin="round" /><path d="M4.1215277,3.1989373 a0.245745,0.245745 0 1,1 0.49149,0 a0.245745,0.245745 0 1,1 -0.49149,0z" transform="matrix(1,0,0,-1,35.6871466,12.0199276)" fill="rgb(255,255,255)" stroke="rgb(0,0,0)" stroke-width="0.0010cm" stroke-linecap="round" stroke-linejoin="round" /><path d="M3.4241,-0.5178379 a0.245745,0.245745 0 1,1 0.49149,0 a0.245745,0.245745 0 1,1 -0.49149,0z" transform="matrix(1,0,0,-1,35.6871466,12.0199276)" fill="rgb(255,255,255)" stroke="rgb(0,0,0)" stroke-width="0.0010cm" stroke-linecap="round" stroke-linejoin="round" /><path d="M4.6013625,1.1850782 a0.245745,0.245745 0 1,1 0.49149,0 a0.245745,0.245745 0 1,1 -0.49149,0z" transform="matrix(1,0,0,-1,35.6871466,12.0199276)" fill="rgb(255,255,255)" stroke="rgb(0,0,0)" stroke-width="0.0010cm" stroke-linecap="round" stroke-linejoin="round" /><path d="M32.3533966,-9.8103031 a0.15875,0.15875 0 1,1 0.3175,0 a0.15875,0.15875 0 1,1 -0.3175,0z" transform="matrix(1,0,0,-1,35.6871466,12.0199276)" fill="rgb(255,255,255)" stroke="rgb(0,0,0)" stroke-width="0.0010cm" stroke-linecap="round" stroke-linejoin="round" /><path d="M30.6722517,-9.8103031 a0.15875,0.15875 0 1,1 0.3175,0 a0.15875,0.15875 0 1,1 -0.3175,0z" transform="matrix(1,0,0,-1,35.6871466,12.0199276)" fill="rgb(255,255,255)" stroke="rgb(0,0,0)" stroke-width="0.0010cm" stroke-linecap="round" stroke-linejoin="round" /><path d="M28.9911067,-9.8103031 a0.15875,0.15875 0 1,1 0.3175,0 a0.15875,0.15875 0 1,1 -0.3175,0z" transform="matrix(1,0,0,-1,35.6871466,12.0199276)" fill="rgb(255,255,255)" stroke="rgb(0,0,0)" stroke-width="0.0010cm" stroke-linecap="round" stroke-linejoin="round" /><path d="M28.9911067,9.1624276 a0.15875,0.15875 0 1,1 0.3175,0 a0.15875,0.15875 0 1,1 -0.3175,0z" transform="matrix(1,0,0,-1,35.6871466,12.0199276)" fill="rgb(255,255,255)" stroke="rgb(0,0,0)" stroke-width="0.0010cm" stroke-linecap="round" stroke-linejoin="round" /><path d="M30.6722516,9.1624276 a0.15875,0.15875 0 1,1 0.3175,0 a0.15875,0.15875 0 1,1 -0.3175,0z" transform="matrix(1,0,0,-1,35.6871466,12.0199276)" fill="rgb(255,255,255)" stroke="rgb(0,0,0)" stroke-width="0.0010cm" stroke-linecap="round" stroke-linejoin="round" /><path d="M32.3533966,9.1624276 a0.15875,0.15875 0 1,1 0.3175,0 a0.15875,0.15875 0 1,1 -0.3175,0z" transform="matrix(1,0,0,-1,35.6871466,12.0199276)" fill="rgb(255,255,255)" stroke="rgb(0,0,0)" stroke-width="0.0010cm" stroke-linecap="round" stroke-linejoin="round" /><path d="M23.7568165,5.0349276 L23.7568165,-2.5850724 A2.54,2.54 0 0,0 21.2168165,-5.1250724 L13.5968165,-5.1250724 A2.54,2.54 270 0,0 11.0568165,-2.5850724 L11.0568165,5.0349276 A2.54,2.54 180 0,0 13.5968165,7.5749276 L21.2168165,7.5749276 A2.54,2.54 90 0,0 23.7568165,5.0349276z" transform="matrix(1,0,0,-1,35.6871466,12.0199276)" fill="rgb(255,255,255)" stroke="rgb(0,0,0)" stroke-width="0.0010cm" stroke-linecap="round" stroke-linejoin="round" /><path d="M27.5668165,-1.9500724 a1.905,1.905 0 1,1 3.81,0 a1.905,1.905 0 1,1 -3.81,0z" transform="matrix(1,0,0,-1,35.6871466,12.0199276)" fill="rgb(255,255,255)" stroke="rgb(0,0,0)" stroke-width="0.0010cm" stroke-linecap="round" stroke-linejoin="round" /><path d="M-32.101711,-3.2200724 a0.2413,0.2413 0 1,1 0.4826,0 a0.2413,0.2413 0 1,1 -0.4826,0z" transform="matrix(1,0,0,-1,35.6871466,12.0199276)" fill="rgb(255,255,255)" stroke="rgb(0,0,0)" stroke-width="0.0010cm" stroke-linecap="round" stroke-linejoin="round" /><path d="M-32.101711,1.2249276 a0.2413,0.2413 0 1,1 0.4826,0 a0.2413,0.2413 0 1,1 -0.4826,0z" transform="matrix(1,0,0,-1,35.6871466,12.0199276)" fill="rgb(255,255,255)" stroke="rgb(0,0,0)" stroke-width="0.0010cm" stroke-linecap="round" stroke-linejoin="round" /><path d="M-30.196711,1.2249276 a0.2413,0.2413 0 1,1 0.4826,0 a0.2413,0.2413 0 1,1 -0.4826,0z" transform="matrix(1,0,0,-1,35.6871466,12.0199276)" fill="rgb(255,255,255)" stroke="rgb(0,0,0)" stroke-width="0.0010cm" stroke-linecap="round" stroke-linejoin="round" /><path d="M-30.196711,-3.2200724 a0.2413,0.2413 0 1,1 0.4826,0 a0.2413,0.2413 0 1,1 -0.4826,0z" transform="matrix(1,0,0,-1,35.6871466,12.0199276)" fill="rgb(255,255,255)" stroke="rgb(0,0,0)" stroke-width="0.0010cm" stroke-linecap="round" stroke-linejoin="round" /></svg>