<?xml version="1.0" encoding="utf-8"?>
<!-- Generator: Fusion 360, Shaper Origin Export Add-In, Version 1.6.10  -->
<svg xmlns="http://www.w3.org/2000/svg" xmlns:xlink="http://www.w3.org/1999/xlink" xmlns:shaper="http://www.shapertools.com/namespaces/shaper" shaper:fusionaddin="version:1.6.10" width="61.3525557cm" height="21.8038481cm" version="1.1" x="0cm" y="0cm" viewBox="0 0 61.3525557 21.8038481" enable-background="new 0 0 61.3525557 21.8038481" xml:space="preserve"><path d="M16.6214163,-10.8956507 A1.905,1.905 55.0059723 0,0 15.8599112,-14.3322735 L6.5388796,-15.9768246 6.9802067,-18.4781903 31.9989807,-18.4781903 31.9989806,2.3923252 31.9989806,2.3923252 31.7569785,2.4148484 31.5142363,2.4371696 31.2707642,2.4592861 31.0265725,2.4811949 30.7816715,2.5028931 30.5360714,2.5243779 30.2897825,2.5456462 30.0428151,2.5666953 29.7951795,2.5875222 29.5468858,2.608124 29.2979445,2.6284978 29.0483657,2.6486407 28.7981596,2.6685498 28.5473367,2.6882222 28.2959071,2.707655 28.0438811,2.7268454 27.7912691,2.7457903 27.5380811,2.7644869 27.2843276,2.7829323 27.0300187,2.8011236 26.5197762,2.8367322 26.0074355,2.8712896 25.493079,2.9047725 24.9767887,2.9371578 24.4586467,2.9684221 23.9387353,2.9985422 23.4171365,3.0274951 22.8939324,3.0552574 22.3692053,3.0818059 21.8430373,3.1071174 21.3155104,3.1311687 20.7867069,3.1539366 20.2567089,3.1753979 19.7255984,3.1955293 19.1934578,3.2143077 18.660369,3.2317097 18.1264143,3.2477123 17.5916757,3.2622921 17.0562355,3.275426 16.5201757,3.2870908 15.9835785,3.2972632 15.446526,3.30592 14.9091004,3.313038 14.3713839,3.318594 13.8334584,3.3225648 13.2954063,3.3249271 12.7573096,3.3256578 12.2192504,3.3247336 11.681311,3.3221313 11.1435734,3.3178277 10.6061198,3.3117996 10.0690324,3.3040237 9.5323932,3.2944769 8.9962844,3.2831359 8.4607881,3.2699775 8.1933861,3.2627137 7.9265907,3.2550078 7.6604314,3.2468613 7.3949053,3.2382742 7.1300094,3.2292466 6.8657409,3.2197785 6.6020968,3.20987 6.3390743,3.1995211 6.0766705,3.1887318 5.8148824,3.1775023 5.5537072,3.1658325 5.2931419,3.1537226 5.0331837,3.1411725 4.7738297,3.1281824 4.5150769,3.1147522 4.2569225,3.100882 3.9993635,3.0865719 3.7423972,3.0718219 3.4860204,3.056632 3.2302305,3.0410024 2.9750244,3.024933 2.7203993,3.0084239 2.4663522,2.9914752 2.2128803,2.9740869 1.9599807,2.956259 1.7076504,2.9379917 1.4558866,2.9192849 1.2046864,2.9001387 0.9540468,2.8805532 0.703965,2.8605283 0.4544381,2.8400643 0.2054631,2.819161 -0.0429628,2.7978185 -0.2908425,2.776037 -0.5381789,2.7538164 -0.784975,2.7311568 -1.0312336,2.7080583 -1.2769577,2.6845208 -1.52215,2.6605445 -1.7668136,2.6361294 -2.0109513,2.6112756 -2.2545661,2.585983 -2.4976607,2.5602518 -2.7402382,2.5340819 -2.9823015,2.5074735 -3.2238533,2.4804266 -3.4648967,2.4529413 -3.7054345,2.4250175 -3.9454696,2.3966553 -4.185005,2.3678549 -4.4240434,2.3386162 -4.6625879,2.3089392 -4.9006413,2.2788241 -5.1382066,2.2482709 -5.3752866,2.2172796 -5.6118841,2.1858503 -5.8480022,2.1539831 -6.0836438,2.1216779 -6.3188116,2.0889348 -6.5535087,2.0557539 -6.7877379,2.0221353 -7.0215021,1.9880789 -7.2548042,1.9535849 -7.4876471,1.9186532 -7.7200338,1.883284 -7.9519671,1.8474772 -8.1834499,1.8112329 -8.4144851,1.7745513 -8.6450756,1.7374322 -8.8752243,1.6998758 -9.1049342,1.6618822 -9.3342081,1.6234513 -9.5630489,1.5845832 -9.7914595,1.545278 -10.0194428,1.5055357 -10.2470017,1.4653564 -10.4741392,1.4247401 -10.700858,1.3836869 -10.9271612,1.3421967 -11.1530516,1.3002698 -11.6036056,1.2151056 -12.0525432,1.1281946 -12.4998877,1.0395372 -12.9456622,0.9491339 -13.3898899,0.8569851 -13.8325941,0.763091 -14.2737979,0.6674522 -14.7135245,0.5700689 -15.1517972,0.4709417 -15.5886391,0.3700709 -16.0240734,0.2674568 -16.4581232,0.1631 -16.890812,0.0570007 -17.3221627,-0.0508406 -17.7521986,-0.1604235 -18.1809429,-0.2717477 -18.6084188,-0.3848127 -19.0346495,-0.4996182 -19.4596582,-0.6161637 -19.883468,-0.7344489 -20.3061023,-0.8544734 -20.7275841,-0.9762367 -21.1479367,-1.0997385 -21.5671833,-1.2249784 -21.9853471,-1.351956 -22.4024512,-1.4806709 -22.8185189,-1.6111228 -23.2335733,-1.7433111 -23.6476377,-1.8772355 -24.0607353,-2.0128957 -24.4728892,-2.1502912 -24.8841226,-2.2894216 -25.2944588,-2.4302866 -25.703921,-2.5728857 -26.1125323,-2.7172186 -26.5203159,-2.8632848 -26.927295,-3.011084 -27.3334929,-3.1606158 -27.7389327,-3.3118798 -28.1436376,-3.4648755 -28.5476309,-3.6196027 -28.9509356,-3.7760608 -29.3535751,-3.9342496 -29.3535751,-10.908675 -27.4485751,-10.9125074 -21.7964555,-5.2830834 -21.7964555,-5.2830834 -21.5152476,-5.194255 -21.2335565,-5.1062584 -20.9513728,-5.0190932 -20.6686873,-4.9327593 -20.3854907,-4.8472563 -20.1017737,-4.7625839 -19.817527,-4.6787418 -19.5327414,-4.5957298 -19.2474077,-4.5135475 -18.9615164,-4.4321947 -18.6750585,-4.351671 -18.3880245,-4.2719762 -18.1004052,-4.19311 -17.8121914,-4.1150721 -17.5233738,-4.0378621 -17.2339431,-3.9614799 -16.94389,-3.8859251 -16.6532053,-3.8111974 -16.3618797,-3.7372965 -16.0699039,-3.6642222 -15.7772687,-3.5919741 -15.4839647,-3.5205519 -15.1899828,-3.4499554 -14.8953135,-3.3801843 -14.5999478,-3.3112383 -14.3038762,-3.243117 -14.0070896,-3.1758202 -13.7095786,-3.1093477 -13.411334,-3.043699 -13.1123466,-2.978874 -12.8126069,-2.9148722 -12.5121058,-2.8516936 -12.210834,-2.7893376 -11.9087823,-2.7278041 -11.6059413,-2.6670928 -11.3023017,-2.6072033 -10.9978544,-2.5481354 -10.69259,-2.4898888 -10.3864993,-2.4324631 -10.079573,-2.3758582 -9.7718012,-2.3200743 -9.4631719,-2.2651145 -9.1536759,-2.2109798 -8.8433045,-2.1576705 -8.5320489,-2.1051872 -8.2199004,-2.0535303 -7.9068503,-2.0027002 -7.5928899,-1.9526975 -7.2780104,-1.9035226 -6.9622031,-1.855176 -6.6454592,-1.8076581 -6.3277701,-1.7609694 -6.0091269,-1.7151104 -5.689521,-1.6700815 -5.3689436,-1.6258832 -5.0473861,-1.5825159 -4.7248396,-1.5399802 -4.4012954,-1.4982765 -4.0767448,-1.4574052 -3.7511791,-1.4173668 -3.4245895,-1.3781618 -3.0969674,-1.3397907 -2.7683039,-1.3022538 -2.4385903,-1.2655518 -2.0948256,-3.2139508 0.9813925,-2.6711999 A7.62,7.62 100.0059723 0,0 6.6753756,-3.9329029 L16.6214163,-10.8956507z" transform="matrix(1,0,0,-1,29.3535751,3.3256578)" fill="rgb(0,0,0)" stroke-linecap="round" stroke-linejoin="round" /><path d="M27.772283,1.4399409 a0.099187,0.099187 0 1,1 0.198374,0 a0.099187,0.099187 0 1,1 -0.198374,0z" transform="matrix(1,0,0,-1,29.3535751,3.3256578)" fill="rgb(255,255,255)" stroke="rgb(0,0,0)" stroke-width="0.0010cm" stroke-linecap="round" stroke-linejoin="round" /><path d="M29.359783,-17.5256903 a0.099187,0.099187 0 1,1 0.198374,0 a0.099187,0.099187 0 1,1 -0.198374,0z" transform="matrix(1,0,0,-1,29.3535751,3.3256578)" fill="rgb(255,255,255)" stroke="rgb(0,0,0)" stroke-width="0.0010cm" stroke-linecap="round" stroke-linejoin="round" /><path d="M-8.5685751,-1.081675 a0.292,0.292 0 1,1 0.584,0 a0.292,0.292 0 1,1 -0.584,0z" transform="matrix(1,0,0,-1,29.3535751,3.3256578)" fill="rgb(255,255,255)" stroke="rgb(0,0,0)" stroke-width="0.0010cm" stroke-linecap="round" stroke-linejoin="round" /><path d="M-22.267041,-3.4925096 a0.2976626,0.2976626 0 1,1 0.5953252,0 a0.2976626,0.2976626 0 1,1 -0.5953252,0z" transform="matrix(1,0,0,-1,29.3535751,3.3256578)" fill="rgb(255,255,255)" stroke="rgb(0,0,0)" stroke-width="0.0010cm" stroke-linecap="round" stroke-linejoin="round" /><path d="M-19.8529057,-2.845644 a0.2976626,0.2976626 0 1,1 0.5953252,0 a0.2976626,0.2976626 0 1,1 -0.5953252,0z" transform="matrix(1,0,0,-1,29.3535751,3.3256578)" fill="rgb(255,255,255)" stroke="rgb(0,0,0)" stroke-width="0.0010cm" stroke-linecap="round" stroke-linejoin="round" /><path d="M27.7722845,-2.2233257 a0.099187,0.099187 0 1,1 0.198374,0 a0.099187,0.099187 0 1,1 -0.198374,0z" transform="matrix(1,0,0,-1,29.3535751,3.3256578)" fill="rgb(255,255,255)" stroke="rgb(0,0,0)" stroke-width="0.0010cm" stroke-linecap="round" stroke-linejoin="round" /><path d="M29.3597845,-2.2233257 a0.099187,0.099187 0 1,1 0.198374,0 a0.099187,0.099187 0 1,1 -0.198374,0z" transform="matrix(1,0,0,-1,29.3535751,3.3256578)" fill="rgb(255,255,255)" stroke="rgb(0,0,0)" stroke-width="0.0010cm" stroke-linecap="round" stroke-linejoin="round" /><path d="M-2.1976232,1.3034009 a0.2286,0.2286 0 1,1 0.4572,0 a0.2286,0.2286 0 1,1 -0.4572,0z" transform="matrix(1,0,0,-1,29.3535751,3.3256578)" fill="rgb(255,255,255)" stroke="rgb(0,0,0)" stroke-width="0.0010cm" stroke-linecap="round" stroke-linejoin="round" /><path d="M-0.8971673,-1.6726942 a0.2286,0.2286 0 1,1 0.4572,0 a0.2286,0.2286 0 1,1 -0.4572,0z" transform="matrix(1,0,0,-1,29.3535751,3.3256578)" fill="rgb(255,255,255)" stroke="rgb(0,0,0)" stroke-width="0.0010cm" stroke-linecap="round" stroke-linejoin="round" /><path d="M7.0744341,-16.6532612 a0.2286,0.2286 0 1,1 0.4572,0 a0.2286,0.2286 0 1,1 -0.4572,0z" transform="matrix(1,0,0,-1,29.3535751,3.3256578)" fill="rgb(255,255,255)" stroke="rgb(0,0,0)" stroke-width="0.0010cm" stroke-linecap="round" stroke-linejoin="round" /><path d="M8.5365908,-17.8431903 a0.2286,0.2286 0 1,1 0.4572,0 a0.2286,0.2286 0 1,1 -0.4572,0z" transform="matrix(1,0,0,-1,29.3535751,3.3256578)" fill="rgb(255,255,255)" stroke="rgb(0,0,0)" stroke-width="0.0010cm" stroke-linecap="round" stroke-linejoin="round" /><path d="M18.6639745,-6.4948019 a4.445,4.445 0 1,1 8.89,0 a4.445,4.445 0 1,1 -8.89,0z" transform="matrix(1,0,0,-1,29.3535751,3.3256578)" fill="rgb(255,255,255)" stroke="rgb(0,0,0)" stroke-width="0.0010cm" stroke-linecap="round" stroke-linejoin="round" /><path d="M-28.6423751,-9.3229814 a0.2413,0.2413 0 1,1 0.4826,0 a0.2413,0.2413 0 1,1 -0.4826,0z" transform="matrix(1,0,0,-1,29.3535751,3.3256578)" fill="rgb(255,255,255)" stroke="rgb(0,0,0)" stroke-width="0.0010cm" stroke-linecap="round" stroke-linejoin="round" /><path d="M-28.6423751,-5.5129711 a0.2413,0.2413 0 1,1 0.4826,0 a0.2413,0.2413 0 1,1 -0.4826,0z" transform="matrix(1,0,0,-1,29.3535751,3.3256578)" fill="rgb(255,255,255)" stroke="rgb(0,0,0)" stroke-width="0.0010cm" stroke-linecap="round" stroke-linejoin="round" /><path d="M27.772283,-17.5256903 a0.099187,0.099187 0 1,1 0.198374,0 a0.099187,0.099187 0 1,1 -0.198374,0z" transform="matrix(1,0,0,-1,29.3535751,3.3256578)" fill="rgb(255,255,255)" stroke="rgb(0,0,0)" stroke-width="0.0010cm" stroke-linecap="round" stroke-linejoin="round" /><path d="M29.359783,1.4399409 a0.099187,0.099187 0 1,1 0.198374,0 a0.099187,0.099187 0 1,1 -0.198374,0z" transform="matrix(1,0,0,-1,29.3535751,3.3256578)" fill="rgb(255,255,255)" stroke="rgb(0,0,0)" stroke-width="0.0010cm" stroke-linecap="round" stroke-linejoin="round" /></svg>