<?xml version="1.0" encoding="utf-8"?>
<!-- Generator: Fusion 360, Shaper Origin Export Add-In, Version 1.6.10  -->
<svg xmlns="http://www.w3.org/2000/svg" xmlns:xlink="http://www.w3.org/1999/xlink" xmlns:shaper="http://www.shapertools.com/namespaces/shaper" shaper:fusionaddin="version:1.6.10" width="80.6891136cm" height="33.1125641cm" version="1.1" x="0cm" y="0cm" viewBox="0 0 80.6891136 33.1125641" enable-background="new 0 0 80.6891136 33.1125641" xml:space="preserve"><path d="M-39.9141693,15.249566 L-28.6589321,-15.5937384 37.9189861,-17.8629981 38.6964059,4.9457571 40.6003003,4.8808642 40.7749443,10.0047544 38.7566204,15.249566 -39.9141693,15.249566z" transform="matrix(1,0,0,-1,39.9141693,15.249566)" fill="rgb(0,0,0)" stroke-linecap="round" stroke-linejoin="round" /><path d="M35.8359701,-14.2955027 a0.2032,0.2032 0 1,1 0.4064,0 a0.2032,0.2032 0 1,1 -0.4064,0z" transform="matrix(1,0,0,-1,39.9141693,15.249566)" fill="rgb(255,255,255)" stroke="rgb(0,0,0)" stroke-width="0.0010cm" stroke-linecap="round" stroke-linejoin="round" /><path d="M31.566864,13.6562639 a0.245745,0.245745 0 1,1 0.49149,0 a0.245745,0.245745 0 1,1 -0.49149,0z" transform="matrix(1,0,0,-1,39.9141693,15.249566)" fill="rgb(255,255,255)" stroke="rgb(0,0,0)" stroke-width="0.0010cm" stroke-linecap="round" stroke-linejoin="round" /><path d="M5.8374148,-10.5195716 a0.245745,0.245745 0 1,1 0.49149,0 a0.245745,0.245745 0 1,1 -0.49149,0z" transform="matrix(1,0,0,-1,39.9141693,15.249566)" fill="rgb(255,255,255)" stroke="rgb(0,0,0)" stroke-width="0.0010cm" stroke-linecap="round" stroke-linejoin="round" /><path d="M1.0868746,13.6307977 a0.245745,0.245745 0 1,1 0.49149,0 a0.245745,0.245745 0 1,1 -0.49149,0z" transform="matrix(1,0,0,-1,39.9141693,15.249566)" fill="rgb(255,255,255)" stroke="rgb(0,0,0)" stroke-width="0.0010cm" stroke-linecap="round" stroke-linejoin="round" /><path d="M-10.2368775,2.5449601 a0.245745,0.245745 0 1,1 0.49149,0 a0.245745,0.245745 0 1,1 -0.49149,0z" transform="matrix(1,0,0,-1,39.9141693,15.249566)" fill="rgb(255,255,255)" stroke="rgb(0,0,0)" stroke-width="0.0010cm" stroke-linecap="round" stroke-linejoin="round" /><path d="M-21.7731174,13.6116981 a0.245745,0.245745 0 1,1 0.49149,0 a0.245745,0.245745 0 1,1 -0.49149,0z" transform="matrix(1,0,0,-1,39.9141693,15.249566)" fill="rgb(255,255,255)" stroke="rgb(0,0,0)" stroke-width="0.0010cm" stroke-linecap="round" stroke-linejoin="round" /><path d="M-37.0131121,13.598965 a0.245745,0.245745 0 1,1 0.49149,0 a0.245745,0.245745 0 1,1 -0.49149,0z" transform="matrix(1,0,0,-1,39.9141693,15.249566)" fill="rgb(255,255,255)" stroke="rgb(0,0,0)" stroke-width="0.0010cm" stroke-linecap="round" stroke-linejoin="round" /><path d="M-27.3135411,3.1270057 a0.245745,0.245745 0 1,1 0.49149,0 a0.245745,0.245745 0 1,1 -0.49149,0z" transform="matrix(1,0,0,-1,39.9141693,15.249566)" fill="rgb(255,255,255)" stroke="rgb(0,0,0)" stroke-width="0.0010cm" stroke-linecap="round" stroke-linejoin="round" /><path d="M-12.1973547,-0.9143454 a0.245745,0.245745 0 1,1 0.49149,0 a0.245745,0.245745 0 1,1 -0.49149,0z" transform="matrix(1,0,0,-1,39.9141693,15.249566)" fill="rgb(255,255,255)" stroke="rgb(0,0,0)" stroke-width="0.0010cm" stroke-linecap="round" stroke-linejoin="round" /><path d="M-12.4785571,-9.1645545 a0.245745,0.245745 0 1,1 0.49149,0 a0.245745,0.245745 0 1,1 -0.49149,0z" transform="matrix(1,0,0,-1,39.9141693,15.249566)" fill="rgb(255,255,255)" stroke="rgb(0,0,0)" stroke-width="0.0010cm" stroke-linecap="round" stroke-linejoin="round" /><path d="M-21.9980291,-8.8400902 a0.245745,0.245745 0 1,1 0.49149,0 a0.245745,0.245745 0 1,1 -0.49149,0z" transform="matrix(1,0,0,-1,39.9141693,15.249566)" fill="rgb(255,255,255)" stroke="rgb(0,0,0)" stroke-width="0.0010cm" stroke-linecap="round" stroke-linejoin="round" /><path d="M-21.7168268,-0.5898811 a0.245745,0.245745 0 1,1 0.49149,0 a0.245745,0.245745 0 1,1 -0.49149,0z" transform="matrix(1,0,0,-1,39.9141693,15.249566)" fill="rgb(255,255,255)" stroke="rgb(0,0,0)" stroke-width="0.0010cm" stroke-linecap="round" stroke-linejoin="round" /><path d="M-20.3581632,-6.9815016 L-20.1634846,-1.2698184 A1.27,1.27 178.0478709 0,0 -18.8509598,-0.0438173 L-14.0336453,-0.208012 A1.27,1.27 88.0478709 0,0 -12.8076443,-1.5205368 L-13.0023229,-7.23222 A1.27,1.27 358.0478709 0,0 -14.3148477,-8.4582211 L-19.1321621,-8.2940264 A1.27,1.27 268.0478709 0,0 -20.3581632,-6.9815016z" transform="matrix(1,0,0,-1,39.9141693,15.249566)" fill="rgb(255,255,255)" stroke="rgb(0,0,0)" stroke-width="0.0010cm" stroke-linecap="round" stroke-linejoin="round" /><path d="M37.2818033,9.4580312 a0.2976626,0.2976626 0 1,1 0.5953252,0 a0.2976626,0.2976626 0 1,1 -0.5953252,0z" transform="matrix(1,0,0,-1,39.9141693,15.249566)" fill="rgb(255,255,255)" stroke="rgb(0,0,0)" stroke-width="0.0010cm" stroke-linecap="round" stroke-linejoin="round" /><path d="M36.97897,0.5731906 a0.2976626,0.2976626 0 1,1 0.5953252,0 a0.2976626,0.2976626 0 1,1 -0.5953252,0z" transform="matrix(1,0,0,-1,39.9141693,15.249566)" fill="rgb(255,255,255)" stroke="rgb(0,0,0)" stroke-width="0.0010cm" stroke-linecap="round" stroke-linejoin="round" /><path d="M36.6761367,-8.31165 a0.2976626,0.2976626 0 1,1 0.5953252,0 a0.2976626,0.2976626 0 1,1 -0.5953252,0z" transform="matrix(1,0,0,-1,39.9141693,15.249566)" fill="rgb(255,255,255)" stroke="rgb(0,0,0)" stroke-width="0.0010cm" stroke-linecap="round" stroke-linejoin="round" /><path d="M-27.7396669,-9.3751213 a0.245745,0.245745 0 1,1 0.49149,0 a0.245745,0.245745 0 1,1 -0.49149,0z" transform="matrix(1,0,0,-1,39.9141693,15.249566)" fill="rgb(255,255,255)" stroke="rgb(0,0,0)" stroke-width="0.0010cm" stroke-linecap="round" stroke-linejoin="round" /><path d="M-29.3931147,13.6053316 a0.245745,0.245745 0 1,1 0.49149,0 a0.245745,0.245745 0 1,1 -0.49149,0z" transform="matrix(1,0,0,-1,39.9141693,15.249566)" fill="rgb(255,255,255)" stroke="rgb(0,0,0)" stroke-width="0.0010cm" stroke-linecap="round" stroke-linejoin="round" /><path d="M-14.15312,13.6180646 a0.245745,0.245745 0 1,1 0.49149,0 a0.245745,0.245745 0 1,1 -0.49149,0z" transform="matrix(1,0,0,-1,39.9141693,15.249566)" fill="rgb(255,255,255)" stroke="rgb(0,0,0)" stroke-width="0.0010cm" stroke-linecap="round" stroke-linejoin="round" /><path d="M-6.5331227,13.6244312 a0.245745,0.245745 0 1,1 0.49149,0 a0.245745,0.245745 0 1,1 -0.49149,0z" transform="matrix(1,0,0,-1,39.9141693,15.249566)" fill="rgb(255,255,255)" stroke="rgb(0,0,0)" stroke-width="0.0010cm" stroke-linecap="round" stroke-linejoin="round" /><path d="M-10.6630034,-9.9571669 a0.245745,0.245745 0 1,1 0.49149,0 a0.245745,0.245745 0 1,1 -0.49149,0z" transform="matrix(1,0,0,-1,39.9141693,15.249566)" fill="rgb(255,255,255)" stroke="rgb(0,0,0)" stroke-width="0.0010cm" stroke-linecap="round" stroke-linejoin="round" /><path d="M6.2635407,1.9825554 a0.245745,0.245745 0 1,1 0.49149,0 a0.245745,0.245745 0 1,1 -0.49149,0z" transform="matrix(1,0,0,-1,39.9141693,15.249566)" fill="rgb(255,255,255)" stroke="rgb(0,0,0)" stroke-width="0.0010cm" stroke-linecap="round" stroke-linejoin="round" /><path d="M39.5140541,8.1830331 a0.245745,0.245745 0 1,1 0.49149,0 a0.245745,0.245745 0 1,1 -0.49149,0z" transform="matrix(1,0,0,-1,39.9141693,15.249566)" fill="rgb(255,255,255)" stroke="rgb(0,0,0)" stroke-width="0.0010cm" stroke-linecap="round" stroke-linejoin="round" /></svg>