<?xml version="1.0" encoding="utf-8"?>
<!-- Generator: Fusion 360, Shaper Origin Export Add-In, Version 1.6.10  -->
<svg xmlns="http://www.w3.org/2000/svg" xmlns:xlink="http://www.w3.org/1999/xlink" xmlns:shaper="http://www.shapertools.com/namespaces/shaper" shaper:fusionaddin="version:1.6.10" width="107.4281774cm" height="23.9141629cm" version="1.1" x="0cm" y="0cm" viewBox="0 0 107.4281774 23.9141629" enable-background="new 0 0 107.4281774 23.9141629" xml:space="preserve"><path d="M-53.7140887,10.1532136 L-53.0269669,-10.1532136 53.7140887,-10.1532136 52.9048896,13.7609493 -53.7140887,10.1532136z" transform="matrix(1,0,0,-1,53.7140887,13.7609493)" fill="rgb(0,0,0)" shaper:cutDepth="0.01905" stroke-linecap="round" stroke-linejoin="round" /><path d="M-50.8722409,6.1163962 a0.2032,0.2032 0 1,1 0.4064,0 a0.2032,0.2032 0 1,1 -0.4064,0z" transform="matrix(1,0,0,-1,53.7140887,13.7609493)" fill="rgb(255,255,255)" stroke="rgb(0,0,0)" stroke-width="0.0010cm" stroke-linecap="round" stroke-linejoin="round" shaper:cutDepth="0.01905" /><path d="M-48.8719909,6.18408 a0.2032,0.2032 0 1,1 0.4064,0 a0.2032,0.2032 0 1,1 -0.4064,0z" transform="matrix(1,0,0,-1,53.7140887,13.7609493)" fill="rgb(255,255,255)" stroke="rgb(0,0,0)" stroke-width="0.0010cm" stroke-linecap="round" stroke-linejoin="round" shaper:cutDepth="0.01905" /><path d="M-29.3631672,9.0811735 a0.2976626,0.2976626 0 1,1 0.5953252,0 a0.2976626,0.2976626 0 1,1 -0.5953252,0z" transform="matrix(1,0,0,-1,53.7140887,13.7609493)" fill="rgb(255,255,255)" stroke="rgb(0,0,0)" stroke-width="0.0010cm" stroke-linecap="round" stroke-linejoin="round" shaper:cutDepth="0.01905" /><path d="M-40.6776662,-2.4205426 a0.2976626,0.2976626 0 1,1 0.5953252,0 a0.2976626,0.2976626 0 1,1 -0.5953252,0z" transform="matrix(1,0,0,-1,53.7140887,13.7609493)" fill="rgb(255,255,255)" stroke="rgb(0,0,0)" stroke-width="0.0010cm" stroke-linecap="round" stroke-linejoin="round" shaper:cutDepth="0.01905" /><path d="M-34.8325138,-2.2227564 a0.2976626,0.2976626 0 1,1 0.5953252,0 a0.2976626,0.2976626 0 1,1 -0.5953252,0z" transform="matrix(1,0,0,-1,53.7140887,13.7609493)" fill="rgb(255,255,255)" stroke="rgb(0,0,0)" stroke-width="0.0010cm" stroke-linecap="round" stroke-linejoin="round" shaper:cutDepth="0.01905" /><path d="M-28.9873614,-2.0249702 a0.2976626,0.2976626 0 1,1 0.5953252,0 a0.2976626,0.2976626 0 1,1 -0.5953252,0z" transform="matrix(1,0,0,-1,53.7140887,13.7609493)" fill="rgb(255,255,255)" stroke="rgb(0,0,0)" stroke-width="0.0010cm" stroke-linecap="round" stroke-linejoin="round" shaper:cutDepth="0.01905" /><path d="M-41.053472,8.685601 a0.2976626,0.2976626 0 1,1 0.5953252,0 a0.2976626,0.2976626 0 1,1 -0.5953252,0z" transform="matrix(1,0,0,-1,53.7140887,13.7609493)" fill="rgb(255,255,255)" stroke="rgb(0,0,0)" stroke-width="0.0010cm" stroke-linecap="round" stroke-linejoin="round" shaper:cutDepth="0.01905" /><path d="M-35.2083196,8.8833872 a0.2976626,0.2976626 0 1,1 0.5953252,0 a0.2976626,0.2976626 0 1,1 -0.5953252,0z" transform="matrix(1,0,0,-1,53.7140887,13.7609493)" fill="rgb(255,255,255)" stroke="rgb(0,0,0)" stroke-width="0.0010cm" stroke-linecap="round" stroke-linejoin="round" shaper:cutDepth="0.01905" /><path d="M-48.7137715,-9.1152148 a0.0992251,0.0992251 0 1,1 0.1984502,0 a0.0992251,0.0992251 0 1,1 -0.1984502,0z" transform="matrix(1,0,0,-1,53.7140887,13.7609493)" fill="rgb(255,255,255)" stroke="rgb(0,0,0)" stroke-width="0.0010cm" stroke-linecap="round" stroke-linejoin="round" shaper:cutDepth="0.01905" /><path d="M-41.0981301,-8.8575194 a0.0992251,0.0992251 0 1,1 0.1984502,0 a0.0992251,0.0992251 0 1,1 -0.1984502,0z" transform="matrix(1,0,0,-1,53.7140887,13.7609493)" fill="rgb(255,255,255)" stroke="rgb(0,0,0)" stroke-width="0.0010cm" stroke-linecap="round" stroke-linejoin="round" shaper:cutDepth="0.01905" /><path d="M-32.2991137,-6.0183276 a0.0992251,0.0992251 0 1,1 0.1984502,0 a0.0992251,0.0992251 0 1,1 -0.1984502,0z" transform="matrix(1,0,0,-1,53.7140887,13.7609493)" fill="rgb(255,255,255)" stroke="rgb(0,0,0)" stroke-width="0.0010cm" stroke-linecap="round" stroke-linejoin="round" shaper:cutDepth="0.01905" /><path d="M-24.6834723,-5.7606322 a0.0992251,0.0992251 0 1,1 0.1984502,0 a0.0992251,0.0992251 0 1,1 -0.1984502,0z" transform="matrix(1,0,0,-1,53.7140887,13.7609493)" fill="rgb(255,255,255)" stroke="rgb(0,0,0)" stroke-width="0.0010cm" stroke-linecap="round" stroke-linejoin="round" shaper:cutDepth="0.01905" /><path d="M-28.4912549,-5.8894799 a0.099187,0.099187 0 1,1 0.198374,0 a0.099187,0.099187 0 1,1 -0.198374,0z" transform="matrix(1,0,0,-1,53.7140887,13.7609493)" fill="rgb(255,255,255)" stroke="rgb(0,0,0)" stroke-width="0.0010cm" stroke-linecap="round" stroke-linejoin="round" shaper:cutDepth="0.01905" /><path d="M-15.3641021,9.865836 a0.0992251,0.0992251 0 1,1 0.1984502,0 a0.0992251,0.0992251 0 1,1 -0.1984502,0z" transform="matrix(1,0,0,-1,53.7140887,13.7609493)" fill="rgb(255,255,255)" stroke="rgb(0,0,0)" stroke-width="0.0010cm" stroke-linecap="round" stroke-linejoin="round" shaper:cutDepth="0.01905" /><path d="M-14.7227168,-9.0889469 a0.0992251,0.0992251 0 1,1 0.1984502,0 a0.0992251,0.0992251 0 1,1 -0.1984502,0z" transform="matrix(1,0,0,-1,53.7140887,13.7609493)" fill="rgb(255,255,255)" stroke="rgb(0,0,0)" stroke-width="0.0010cm" stroke-linecap="round" stroke-linejoin="round" shaper:cutDepth="0.01905" /><path d="M-7.1070755,-8.8312515 a0.0992251,0.0992251 0 1,1 0.1984502,0 a0.0992251,0.0992251 0 1,1 -0.1984502,0z" transform="matrix(1,0,0,-1,53.7140887,13.7609493)" fill="rgb(255,255,255)" stroke="rgb(0,0,0)" stroke-width="0.0010cm" stroke-linecap="round" stroke-linejoin="round" shaper:cutDepth="0.01905" /><path d="M-7.7484608,10.1235314 a0.0992251,0.0992251 0 1,1 0.1984502,0 a0.0992251,0.0992251 0 1,1 -0.1984502,0z" transform="matrix(1,0,0,-1,53.7140887,13.7609493)" fill="rgb(255,255,255)" stroke="rgb(0,0,0)" stroke-width="0.0010cm" stroke-linecap="round" stroke-linejoin="round" shaper:cutDepth="0.01905" /><path d="M1.980066,-5.9823102 a0.0992251,0.0992251 0 1,1 0.1984502,0 a0.0992251,0.0992251 0 1,1 -0.1984502,0z" transform="matrix(1,0,0,-1,53.7140887,13.7609493)" fill="rgb(255,255,255)" stroke="rgb(0,0,0)" stroke-width="0.0010cm" stroke-linecap="round" stroke-linejoin="round" shaper:cutDepth="0.01905" /><path d="M1.5104777,7.8953784 a0.0992251,0.0992251 0 1,1 0.1984502,0 a0.0992251,0.0992251 0 1,1 -0.1984502,0z" transform="matrix(1,0,0,-1,53.7140887,13.7609493)" fill="rgb(255,255,255)" stroke="rgb(0,0,0)" stroke-width="0.0010cm" stroke-linecap="round" stroke-linejoin="round" shaper:cutDepth="0.01905" /><path d="M9.126119,8.1530738 a0.0992251,0.0992251 0 1,1 0.1984502,0 a0.0992251,0.0992251 0 1,1 -0.1984502,0z" transform="matrix(1,0,0,-1,53.7140887,13.7609493)" fill="rgb(255,255,255)" stroke="rgb(0,0,0)" stroke-width="0.0010cm" stroke-linecap="round" stroke-linejoin="round" shaper:cutDepth="0.01905" /><path d="M9.5957074,-5.7246148 a0.0992251,0.0992251 0 1,1 0.1984502,0 a0.0992251,0.0992251 0 1,1 -0.1984502,0z" transform="matrix(1,0,0,-1,53.7140887,13.7609493)" fill="rgb(255,255,255)" stroke="rgb(0,0,0)" stroke-width="0.0010cm" stroke-linecap="round" stroke-linejoin="round" shaper:cutDepth="0.01905" /><path d="M19.3191079,-9.2148819 a0.0992251,0.0992251 0 1,1 0.1984502,0 a0.0992251,0.0992251 0 1,1 -0.1984502,0z" transform="matrix(1,0,0,-1,53.7140887,13.7609493)" fill="rgb(255,255,255)" stroke="rgb(0,0,0)" stroke-width="0.0010cm" stroke-linecap="round" stroke-linejoin="round" shaper:cutDepth="0.01905" /><path d="M18.6774825,9.7469964 a0.0992251,0.0992251 0 1,1 0.1984502,0 a0.0992251,0.0992251 0 1,1 -0.1984502,0z" transform="matrix(1,0,0,-1,53.7140887,13.7609493)" fill="rgb(255,255,255)" stroke="rgb(0,0,0)" stroke-width="0.0010cm" stroke-linecap="round" stroke-linejoin="round" shaper:cutDepth="0.01905" /><path d="M49.1400479,10.777778 a0.0992251,0.0992251 0 1,1 0.1984502,0 a0.0992251,0.0992251 0 1,1 -0.1984502,0z" transform="matrix(1,0,0,-1,53.7140887,13.7609493)" fill="rgb(255,255,255)" stroke="rgb(0,0,0)" stroke-width="0.0010cm" stroke-linecap="round" stroke-linejoin="round" shaper:cutDepth="0.01905" /><path d="M49.7816733,-8.1841003 a0.0992251,0.0992251 0 1,1 0.1984502,0 a0.0992251,0.0992251 0 1,1 -0.1984502,0z" transform="matrix(1,0,0,-1,53.7140887,13.7609493)" fill="rgb(255,255,255)" stroke="rgb(0,0,0)" stroke-width="0.0010cm" stroke-linecap="round" stroke-linejoin="round" shaper:cutDepth="0.01905" /><path d="M33.9087652,10.2623872 a0.0992251,0.0992251 0 1,1 0.1984502,0 a0.0992251,0.0992251 0 1,1 -0.1984502,0z" transform="matrix(1,0,0,-1,53.7140887,13.7609493)" fill="rgb(255,255,255)" stroke="rgb(0,0,0)" stroke-width="0.0010cm" stroke-linecap="round" stroke-linejoin="round" shaper:cutDepth="0.01905" /><path d="M34.5503906,-8.6994911 a0.0992251,0.0992251 0 1,1 0.1984502,0 a0.0992251,0.0992251 0 1,1 -0.1984502,0z" transform="matrix(1,0,0,-1,53.7140887,13.7609493)" fill="rgb(255,255,255)" stroke="rgb(0,0,0)" stroke-width="0.0010cm" stroke-linecap="round" stroke-linejoin="round" shaper:cutDepth="0.01905" /><path d="M-52.2042737,-9.2333252 a0.0992251,0.0992251 0 1,1 0.1984502,0 a0.0992251,0.0992251 0 1,1 -0.1984502,0z" transform="matrix(1,0,0,-1,53.7140887,13.7609493)" fill="rgb(255,255,255)" stroke="rgb(0,0,0)" stroke-width="0.0010cm" stroke-linecap="round" stroke-linejoin="round" shaper:cutDepth="0.01905" /><path d="M-52.8090987,8.6409938 a0.0992251,0.0992251 0 1,1 0.1984502,0 a0.0992251,0.0992251 0 1,1 -0.1984502,0z" transform="matrix(1,0,0,-1,53.7140887,13.7609493)" fill="rgb(255,255,255)" stroke="rgb(0,0,0)" stroke-width="0.0010cm" stroke-linecap="round" stroke-linejoin="round" shaper:cutDepth="0.01905" /><path d="M-37.60758,-8.7394074 a0.0992251,0.0992251 0 1,1 0.1984502,0 a0.0992251,0.0992251 0 1,1 -0.1984502,0z" transform="matrix(1,0,0,-1,53.7140887,13.7609493)" fill="rgb(255,255,255)" stroke="rgb(0,0,0)" stroke-width="0.0010cm" stroke-linecap="round" stroke-linejoin="round" shaper:cutDepth="0.01905" /><path d="M-19.1637476,-9.2814294 a0.0992251,0.0992251 0 1,1 0.1984502,0 a0.0992251,0.0992251 0 1,1 -0.1984502,0z" transform="matrix(1,0,0,-1,53.7140887,13.7609493)" fill="rgb(255,255,255)" stroke="rgb(0,0,0)" stroke-width="0.0010cm" stroke-linecap="round" stroke-linejoin="round" shaper:cutDepth="0.01905" /><path d="M-2.6536961,-9.0037045 a0.0992251,0.0992251 0 1,1 0.1984502,0 a0.0992251,0.0992251 0 1,1 -0.1984502,0z" transform="matrix(1,0,0,-1,53.7140887,13.7609493)" fill="rgb(255,255,255)" stroke="rgb(0,0,0)" stroke-width="0.0010cm" stroke-linecap="round" stroke-linejoin="round" shaper:cutDepth="0.01905" /><path d="M-19.8079861,9.7576739 a0.0992251,0.0992251 0 1,1 0.1984502,0 a0.0992251,0.0992251 0 1,1 -0.1984502,0z" transform="matrix(1,0,0,-1,53.7140887,13.7609493)" fill="rgb(255,255,255)" stroke="rgb(0,0,0)" stroke-width="0.0010cm" stroke-linecap="round" stroke-linejoin="round" shaper:cutDepth="0.01905" /><path d="M-3.2979346,10.0353989 a0.0992251,0.0992251 0 1,1 0.1984502,0 a0.0992251,0.0992251 0 1,1 -0.1984502,0z" transform="matrix(1,0,0,-1,53.7140887,13.7609493)" fill="rgb(255,255,255)" stroke="rgb(0,0,0)" stroke-width="0.0010cm" stroke-linecap="round" stroke-linejoin="round" shaper:cutDepth="0.01905" /><path d="M-52.5167102,0.0000726 a0.0992251,0.0992251 0 1,1 0.1984502,0 a0.0992251,0.0992251 0 1,1 -0.1984502,0z" transform="matrix(1,0,0,-1,53.7140887,13.7609493)" fill="rgb(255,255,255)" stroke="rgb(0,0,0)" stroke-width="0.0010cm" stroke-linecap="round" stroke-linejoin="round" shaper:cutDepth="0.01905" /><path d="M-37.6428196,-7.6993914 a0.0992251,0.0992251 0 1,1 0.1984502,0 a0.0992251,0.0992251 0 1,1 -0.1984502,0z" transform="matrix(1,0,0,-1,53.7140887,13.7609493)" fill="rgb(255,255,255)" stroke="rgb(0,0,0)" stroke-width="0.0010cm" stroke-linecap="round" stroke-linejoin="round" shaper:cutDepth="0.01905" /><path d="M-19.4858669,0.2381222 a0.0992251,0.0992251 0 1,1 0.1984502,0 a0.0992251,0.0992251 0 1,1 -0.1984502,0z" transform="matrix(1,0,0,-1,53.7140887,13.7609493)" fill="rgb(255,255,255)" stroke="rgb(0,0,0)" stroke-width="0.0010cm" stroke-linecap="round" stroke-linejoin="round" shaper:cutDepth="0.01905" /><path d="M-2.9758153,0.5158472 a0.0992251,0.0992251 0 1,1 0.1984502,0 a0.0992251,0.0992251 0 1,1 -0.1984502,0z" transform="matrix(1,0,0,-1,53.7140887,13.7609493)" fill="rgb(255,255,255)" stroke="rgb(0,0,0)" stroke-width="0.0010cm" stroke-linecap="round" stroke-linejoin="round" shaper:cutDepth="0.01905" /><path d="M14.4329336,-8.7161698 a0.0992251,0.0992251 0 1,1 0.1984502,0 a0.0992251,0.0992251 0 1,1 -0.1984502,0z" transform="matrix(1,0,0,-1,53.7140887,13.7609493)" fill="rgb(255,255,255)" stroke="rgb(0,0,0)" stroke-width="0.0010cm" stroke-linecap="round" stroke-linejoin="round" shaper:cutDepth="0.01905" /><path d="M16.4018286,-8.3605507 a0.0992251,0.0992251 0 1,1 0.1984502,0 a0.0992251,0.0992251 0 1,1 -0.1984502,0z" transform="matrix(1,0,0,-1,53.7140887,13.7609493)" fill="rgb(255,255,255)" stroke="rgb(0,0,0)" stroke-width="0.0010cm" stroke-linecap="round" stroke-linejoin="round" shaper:cutDepth="0.01905" /><path d="M13.7886951,10.3229336 a0.0992251,0.0992251 0 1,1 0.1984502,0 a0.0992251,0.0992251 0 1,1 -0.1984502,0z" transform="matrix(1,0,0,-1,53.7140887,13.7609493)" fill="rgb(255,255,255)" stroke="rgb(0,0,0)" stroke-width="0.0010cm" stroke-linecap="round" stroke-linejoin="round" shaper:cutDepth="0.01905" /><path d="M15.7582385,10.6596583 a0.0992251,0.0992251 0 1,1 0.1984502,0 a0.0992251,0.0992251 0 1,1 -0.1984502,0z" transform="matrix(1,0,0,-1,53.7140887,13.7609493)" fill="rgb(255,255,255)" stroke="rgb(0,0,0)" stroke-width="0.0010cm" stroke-linecap="round" stroke-linejoin="round" shaper:cutDepth="0.01905" /><path d="M14.1108524,0.8033819 a0.099187,0.099187 0 1,1 0.198374,0 a0.099187,0.099187 0 1,1 -0.198374,0z" transform="matrix(1,0,0,-1,53.7140887,13.7609493)" fill="rgb(255,255,255)" stroke="rgb(0,0,0)" stroke-width="0.0010cm" stroke-linecap="round" stroke-linejoin="round" shaper:cutDepth="0.01905" /><path d="M16.0803959,1.1401066 a0.099187,0.099187 0 1,1 0.198374,0 a0.099187,0.099187 0 1,1 -0.198374,0z" transform="matrix(1,0,0,-1,53.7140887,13.7609493)" fill="rgb(255,255,255)" stroke="rgb(0,0,0)" stroke-width="0.0010cm" stroke-linecap="round" stroke-linejoin="round" shaper:cutDepth="0.01905" /><path d="M52.5804279,-7.7478958 a0.0992251,0.0992251 0 1,1 0.1984502,0 a0.0992251,0.0992251 0 1,1 -0.1984502,0z" transform="matrix(1,0,0,-1,53.7140887,13.7609493)" fill="rgb(255,255,255)" stroke="rgb(0,0,0)" stroke-width="0.0010cm" stroke-linecap="round" stroke-linejoin="round" shaper:cutDepth="0.01905" /><path d="M51.9361894,11.2912076 a0.0992251,0.0992251 0 1,1 0.1984502,0 a0.0992251,0.0992251 0 1,1 -0.1984502,0z" transform="matrix(1,0,0,-1,53.7140887,13.7609493)" fill="rgb(255,255,255)" stroke="rgb(0,0,0)" stroke-width="0.0010cm" stroke-linecap="round" stroke-linejoin="round" shaper:cutDepth="0.01905" /><path d="M52.2583086,1.7716559 a0.0992251,0.0992251 0 1,1 0.1984502,0 a0.0992251,0.0992251 0 1,1 -0.1984502,0z" transform="matrix(1,0,0,-1,53.7140887,13.7609493)" fill="rgb(255,255,255)" stroke="rgb(0,0,0)" stroke-width="0.0010cm" stroke-linecap="round" stroke-linejoin="round" shaper:cutDepth="0.01905" /></svg>