  0
SECTION
  2
HEADER
  9
$ACADVER
  1
AC1021
  9
$DWGCODEPAGE
  3
ansi_1252
  9
$HANDSEED
  5
20000
  9
$INSUNITS
  70
4
  0
ENDSEC
  0
SECTION
  2
TABLES
  0
TABLE
  2
VPORT
  5
8
  330
0
  100
AcDbSymbolTable
  70
1
  0
ENDTAB
  0
TABLE
  2
LTYPE
  5
5
  330
0
  100
AcDbSymbolTable
  70
3
  0
LTYPE
  5
14
  330
5
  100
AcDbSymbolTableRecord
  100
AcDbLinetypeTableRecord
  2
ByBlock
  70
0
  3

  72
65
  73
0
  40
0
  0
LTYPE
  5
15
  330
5
  100
AcDbSymbolTableRecord
  100
AcDbLinetypeTableRecord
  2
ByLayer
  70
0
  3

  72
65
  73
0
  40
0
  0
LTYPE
  5
16
  330
5
  100
AcDbSymbolTableRecord
  100
AcDbLinetypeTableRecord
  2
Continuous
  70
0
  3
Solid line
  72
65
  73
0
  40
0
  0
ENDTAB
  0
TABLE
  2
LAYER
  5
2
  330
0
  100
AcDbSymbolTable
  70
1
  0
LAYER
  5
10
  330
2
  100
AcDbSymbolTableRecord
  100
AcDbLayerTableRecord
  2
0
  70
0
  62
7
  6
CONTINUOUS
  370
-3
  390
F
  0
LAYER
  5
91
  330
2
  100
AcDbSymbolTableRecord
  100
AcDbLayerTableRecord
  2
Layer_0
  70
0
  62
7
  6
CONTINUOUS
  370
-3
  390
F
  0
LAYER
  5
92
  330
2
  100
AcDbSymbolTableRecord
  100
AcDbLayerTableRecord
  2
Layer_0
  70
0
  62
7
  6
CONTINUOUS
  370
-3
  390
F
  0
LAYER
  5
93
  330
2
  100
AcDbSymbolTableRecord
  100
AcDbLayerTableRecord
  2
Layer_0
  70
0
  62
7
  6
CONTINUOUS
  370
-3
  390
F
  0
LAYER
  5
94
  330
2
  100
AcDbSymbolTableRecord
  100
AcDbLayerTableRecord
  2
Layer_0
  70
0
  62
7
  6
CONTINUOUS
  370
-3
  390
F
  0
LAYER
  5
95
  330
2
  100
AcDbSymbolTableRecord
  100
AcDbLayerTableRecord
  2
Layer_0
  70
0
  62
7
  6
CONTINUOUS
  370
-3
  390
F
  0
LAYER
  5
96
  330
2
  100
AcDbSymbolTableRecord
  100
AcDbLayerTableRecord
  2
Layer_0
  70
0
  62
7
  6
CONTINUOUS
  370
-3
  390
F
  0
LAYER
  5
97
  330
2
  100
AcDbSymbolTableRecord
  100
AcDbLayerTableRecord
  2
Layer_0
  70
0
  62
7
  6
CONTINUOUS
  370
-3
  390
F
  0
LAYER
  5
98
  330
2
  100
AcDbSymbolTableRecord
  100
AcDbLayerTableRecord
  2
Layer_0
  70
0
  62
7
  6
CONTINUOUS
  370
-3
  390
F
  0
LAYER
  5
99
  330
2
  100
AcDbSymbolTableRecord
  100
AcDbLayerTableRecord
  2
Layer_0
  70
0
  62
7
  6
CONTINUOUS
  370
-3
  390
F
  0
ENDTAB
  0
TABLE
  2
STYLE
  5
3
  330
0
  100
AcDbSymbolTable
  70
3
  0
ENDTAB
  0
TABLE
  2
VIEW
  5
6
  330
0
  100
AcDbSymbolTable
  70
0
  0
ENDTAB
  0
TABLE
  2
UCS
  5
7
  330
0
  100
AcDbSymbolTable
  70
0
  0
ENDTAB
  0
TABLE
  2
APPID
  5
9
  330
0
  100
AcDbSymbolTable
  70
1
  0
APPID
  5
12
  330
9
  100
AcDbSymbolTableRecord
  100
AcDbRegAppTableRecord
  2
ACAD
  70
0
  0
ENDTAB
  0
TABLE
  2
DIMSTYLE
  5
A
  330
0
  100
AcDbSymbolTable
  70
1
  100
AcDbDimStyleTable
  71
1
  0
ENDTAB
  0
TABLE
  2
BLOCK_RECORD
  5
1
  330
0
  100
AcDbSymbolTable
  70
2
  0
BLOCK_RECORD
  5
1F
  330
1
  100
AcDbSymbolTableRecord
  100
AcDbBlockTableRecord
  2
*Model_Space
  70
0
  280
1
  281
0
  0
BLOCK_RECORD
  5
1E
  330
1
  100
AcDbSymbolTableRecord
  100
AcDbBlockTableRecord
  2
*Paper_Space
  70
0
  280
1
  281
0
  0
ENDTAB
  0
ENDSEC
  0
SECTION
  2
BLOCKS
  0
BLOCK
  5
20
  330
1F
  100
AcDbEntity
  8
0
  100
AcDbBlockBegin
  2
*Model_Space
  70
0
  10
0
  20
0
  30
0
  3
*Model_Space
  1

  0
ENDBLK
  5
21
  330
1F
  100
AcDbEntity
  8
0
  100
AcDbBlockEnd
  0
BLOCK
  5
1C
  330
1B
  100
AcDbEntity
  8
0
  100
AcDbBlockBegin
  2
*Paper_Space
  70
0
  10
0
  20
0
  30
0
  3
*Paper_Space
  1

  0
ENDBLK
  5
1D
  330
1F
  100
AcDbEntity
  8
0
  100
AcDbBlockEnd
  0
ENDSEC
  0
SECTION
  2
ENTITIES
  0
LWPOLYLINE
  5
9a
  100
AcDbEntity
  8

  6
Continuous
  62
7
  370
-1
  100
AcDbPolyline
  90
65
  70
1
  10
279.78592
  20
62.373703
  30
0
  10
279.55652
  20
62.390167
  30
0
  10
279.32977
  20
62.429047
  30
0
  10
279.10782
  20
62.48999
  30
0
  10
278.89267
  20
62.572449
  30
0
  10
278.6864
  20
62.675613
  30
0
  10
278.49091
  20
62.798523
  30
0
  10
278.30801
  20
62.940063
  30
0
  10
278.13947
  20
63.098877
  30
0
  10
277.98682
  20
63.273468
  30
0
  10
277.8515
  20
63.462234
  30
0
  10
277.7348
  20
63.663391
  30
0
  10
277.63779
  20
63.875061
  30
0
  10
277.56137
  20
64.095245
  30
0
  10
277.50626
  20
64.321915
  30
0
  10
277.47299
  20
64.552917
  30
0
  10
277.46185
  20
64.786102
  30
0
  10
277.47299
  20
65.019287
  30
0
  10
277.50626
  20
65.250305
  30
0
  10
277.56137
  20
65.476959
  30
0
  10
277.63779
  20
65.697159
  30
0
  10
277.7348
  20
65.908813
  30
0
  10
277.8515
  20
66.109985
  30
0
  10
277.98682
  20
66.298737
  30
0
  10
278.13947
  20
66.473343
  30
0
  10
278.30801
  20
66.632156
  30
0
  10
278.49091
  20
66.773682
  30
0
  10
278.6864
  20
66.896606
  30
0
  10
278.89267
  20
66.999771
  30
0
  10
279.10782
  20
67.082214
  30
0
  10
279.32977
  20
67.143173
  30
0
  10
279.55652
  20
67.182068
  30
0
  10
279.78592
  20
67.198517
  30
0
  10
280.01529
  20
67.182068
  30
0
  10
280.242
  20
67.143173
  30
0
  10
280.46399
  20
67.082214
  30
0
  10
280.67914
  20
66.999771
  30
0
  10
280.88541
  20
66.896606
  30
0
  10
281.0809
  20
66.773682
  30
0
  10
281.26379
  20
66.632156
  30
0
  10
281.43234
  20
66.473343
  30
0
  10
281.58499
  20
66.298737
  30
0
  10
281.72028
  20
66.109985
  30
0
  10
281.83701
  20
65.908813
  30
0
  10
281.93402
  20
65.697159
  30
0
  10
282.01044
  20
65.476959
  30
0
  10
282.06555
  20
65.250305
  30
0
  10
282.09882
  20
65.019287
  30
0
  10
282.10992
  20
64.786102
  30
0
  10
282.09882
  20
64.552917
  30
0
  10
282.06555
  20
64.321915
  30
0
  10
282.01044
  20
64.095245
  30
0
  10
281.93402
  20
63.875061
  30
0
  10
281.83701
  20
63.663391
  30
0
  10
281.72028
  20
63.462234
  30
0
  10
281.58499
  20
63.273468
  30
0
  10
281.43234
  20
63.098877
  30
0
  10
281.26379
  20
62.940063
  30
0
  10
281.0809
  20
62.798523
  30
0
  10
280.88541
  20
62.675613
  30
0
  10
280.67914
  20
62.572449
  30
0
  10
280.46399
  20
62.48999
  30
0
  10
280.242
  20
62.429047
  30
0
  10
280.01529
  20
62.390167
  30
0
  10
279.78592
  20
62.373703
  30
0
  0
LWPOLYLINE
  5
9b
  100
AcDbEntity
  8

  6
Continuous
  62
7
  370
-1
  100
AcDbPolyline
  90
65
  70
1
  10
20.214142
  20
-59.915405
  30
0
  10
20.443512
  20
-59.931854
  30
0
  10
20.670258
  20
-59.970734
  30
0
  10
20.892242
  20
-60.031708
  30
0
  10
21.107361
  20
-60.114166
  30
0
  10
21.31366
  20
-60.217316
  30
0
  10
21.509155
  20
-60.34024
  30
0
  10
21.692017
  20
-60.481781
  30
0
  10
21.860596
  20
-60.640594
  30
0
  10
22.013214
  20
-60.815155
  30
0
  10
22.148529
  20
-61.003937
  30
0
  10
22.265259
  20
-61.205109
  30
0
  10
22.362274
  20
-61.416779
  30
0
  10
22.43866
  20
-61.636963
  30
0
  10
22.493774
  20
-61.863617
  30
0
  10
22.527039
  20
-62.094635
  30
0
  10
22.538147
  20
-62.32782
  30
0
  10
22.527039
  20
-62.561005
  30
0
  10
22.493774
  20
-62.792023
  30
0
  10
22.43866
  20
-63.018677
  30
0
  10
22.362274
  20
-63.238861
  30
0
  10
22.265259
  20
-63.450531
  30
0
  10
22.148529
  20
-63.651703
  30
0
  10
22.013214
  20
-63.840424
  30
0
  10
21.860596
  20
-64.015045
  30
0
  10
21.692017
  20
-64.173859
  30
0
  10
21.509155
  20
-64.315399
  30
0
  10
21.31366
  20
-64.438324
  30
0
  10
21.107361
  20
-64.541473
  30
0
  10
20.892242
  20
-64.623932
  30
0
  10
20.670258
  20
-64.684906
  30
0
  10
20.443512
  20
-64.723755
  30
0
  10
20.214142
  20
-64.740204
  30
0
  10
19.984741
  20
-64.723755
  30
0
  10
19.758026
  20
-64.684906
  30
0
  10
19.536072
  20
-64.623932
  30
0
  10
19.320923
  20
-64.541473
  30
0
  10
19.114624
  20
-64.438324
  30
0
  10
18.919128
  20
-64.315399
  30
0
  10
18.736267
  20
-64.173859
  30
0
  10
18.567719
  20
-64.015045
  30
0
  10
18.41507
  20
-63.840424
  30
0
  10
18.279724
  20
-63.651703
  30
0
  10
18.163025
  20
-63.450531
  30
0
  10
18.06604
  20
-63.238861
  30
0
  10
17.989594
  20
-63.018677
  30
0
  10
17.934509
  20
-62.792023
  30
0
  10
17.901245
  20
-62.561005
  30
0
  10
17.890106
  20
-62.32782
  30
0
  10
17.901245
  20
-62.094635
  30
0
  10
17.934509
  20
-61.863617
  30
0
  10
17.989594
  20
-61.636963
  30
0
  10
18.06604
  20
-61.416779
  30
0
  10
18.163025
  20
-61.205109
  30
0
  10
18.279724
  20
-61.003937
  30
0
  10
18.41507
  20
-60.815155
  30
0
  10
18.567719
  20
-60.640594
  30
0
  10
18.736267
  20
-60.481781
  30
0
  10
18.919128
  20
-60.34024
  30
0
  10
19.114624
  20
-60.217316
  30
0
  10
19.320923
  20
-60.114166
  30
0
  10
19.536072
  20
-60.031708
  30
0
  10
19.758026
  20
-59.970734
  30
0
  10
19.984741
  20
-59.931854
  30
0
  10
20.214142
  20
-59.915405
  30
0
  0
LWPOLYLINE
  5
9c
  100
AcDbEntity
  8

  6
Continuous
  62
7
  370
-1
  100
AcDbPolyline
  90
65
  70
1
  10
20.214142
  20
28.984604
  30
0
  10
20.443512
  20
28.968155
  30
0
  10
20.670258
  20
28.92926
  30
0
  10
20.892242
  20
28.868301
  30
0
  10
21.107361
  20
28.785873
  30
0
  10
21.31366
  20
28.682693
  30
0
  10
21.509155
  20
28.559769
  30
0
  10
21.692017
  20
28.418243
  30
0
  10
21.860596
  20
28.259445
  30
0
  10
22.013214
  20
28.084824
  30
0
  10
22.148529
  20
27.896072
  30
0
  10
22.265259
  20
27.694916
  30
0
  10
22.362274
  20
27.483246
  30
0
  10
22.43866
  20
27.263046
  30
0
  10
22.493774
  20
27.036392
  30
0
  10
22.527039
  20
26.805389
  30
0
  10
22.538147
  20
26.572189
  30
0
  10
22.527039
  20
26.339005
  30
0
  10
22.493774
  20
26.108002
  30
0
  10
22.43866
  20
25.881332
  30
0
  10
22.362274
  20
25.661148
  30
0
  10
22.265259
  20
25.449478
  30
0
  10
22.148529
  20
25.248322
  30
0
  10
22.013214
  20
25.05954
  30
0
  10
21.860596
  20
24.884949
  30
0
  10
21.692017
  20
24.726135
  30
0
  10
21.509155
  20
24.584625
  30
0
  10
21.31366
  20
24.4617
  30
0
  10
21.107361
  20
24.358521
  30
0
  10
20.892242
  20
24.276093
  30
0
  10
20.670258
  20
24.215118
  30
0
  10
20.443512
  20
24.176239
  30
0
  10
20.214142
  20
24.15976
  30
0
  10
19.984741
  20
24.176239
  30
0
  10
19.758026
  20
24.215118
  30
0
  10
19.536072
  20
24.276093
  30
0
  10
19.320923
  20
24.358521
  30
0
  10
19.114624
  20
24.4617
  30
0
  10
18.919128
  20
24.584625
  30
0
  10
18.736267
  20
24.726135
  30
0
  10
18.567719
  20
24.884949
  30
0
  10
18.41507
  20
25.05954
  30
0
  10
18.279724
  20
25.248322
  30
0
  10
18.163025
  20
25.449478
  30
0
  10
18.06604
  20
25.661148
  30
0
  10
17.989594
  20
25.881332
  30
0
  10
17.934509
  20
26.108002
  30
0
  10
17.901245
  20
26.339005
  30
0
  10
17.890106
  20
26.572189
  30
0
  10
17.901245
  20
26.805389
  30
0
  10
17.934509
  20
27.036392
  30
0
  10
17.989594
  20
27.263046
  30
0
  10
18.06604
  20
27.483246
  30
0
  10
18.163025
  20
27.694916
  30
0
  10
18.279724
  20
27.896072
  30
0
  10
18.41507
  20
28.084824
  30
0
  10
18.567719
  20
28.259445
  30
0
  10
18.736267
  20
28.418243
  30
0
  10
18.919128
  20
28.559769
  30
0
  10
19.114624
  20
28.682693
  30
0
  10
19.320923
  20
28.785873
  30
0
  10
19.536072
  20
28.868301
  30
0
  10
19.758026
  20
28.92926
  30
0
  10
19.984741
  20
28.968155
  30
0
  10
20.214142
  20
28.984604
  30
0
  0
LWPOLYLINE
  5
9d
  100
AcDbEntity
  8

  6
Continuous
  62
7
  370
-1
  100
AcDbPolyline
  90
65
  70
1
  10
65.297424
  20
197.93349
  30
0
  10
65.526794
  20
197.91702
  30
0
  10
65.75354
  20
197.87814
  30
0
  10
65.97551
  20
197.81718
  30
0
  10
66.190643
  20
197.73474
  30
0
  10
66.396927
  20
197.63159
  30
0
  10
66.592422
  20
197.50865
  30
0
  10
66.775299
  20
197.36713
  30
0
  10
66.943848
  20
197.20831
  30
0
  10
67.096497
  20
197.03372
  30
0
  10
67.231812
  20
196.84494
  30
0
  10
67.348526
  20
196.6438
  30
0
  10
67.445541
  20
196.43213
  30
0
  10
67.521957
  20
196.21193
  30
0
  10
67.577057
  20
195.98526
  30
0
  10
67.610321
  20
195.75427
  30
0
  10
67.621445
  20
195.52109
  30
0
  10
67.610321
  20
195.28789
  30
0
  10
67.577057
  20
195.05688
  30
0
  10
67.521957
  20
194.83023
  30
0
  10
67.445541
  20
194.61002
  30
0
  10
67.348526
  20
194.39838
  30
0
  10
67.231812
  20
194.1972
  30
0
  10
67.096497
  20
194.00845
  30
0
  10
66.943848
  20
193.83383
  30
0
  10
66.775299
  20
193.67503
  30
0
  10
66.592422
  20
193.53351
  30
0
  10
66.396927
  20
193.41058
  30
0
  10
66.190643
  20
193.3074
  30
0
  10
65.97551
  20
193.22498
  30
0
  10
65.75354
  20
193.16402
  30
0
  10
65.526794
  20
193.12512
  30
0
  10
65.297424
  20
193.10867
  30
0
  10
65.068039
  20
193.12512
  30
0
  10
64.841309
  20
193.16402
  30
0
  10
64.619324
  20
193.22498
  30
0
  10
64.40419
  20
193.3074
  30
0
  10
64.197906
  20
193.41058
  30
0
  10
64.002411
  20
193.53351
  30
0
  10
63.819534
  20
193.67503
  30
0
  10
63.650986
  20
193.83383
  30
0
  10
63.498337
  20
194.00845
  30
0
  10
63.363022
  20
194.1972
  30
0
  10
63.246307
  20
194.39838
  30
0
  10
63.149292
  20
194.61002
  30
0
  10
63.072876
  20
194.83023
  30
0
  10
63.017776
  20
195.05688
  30
0
  10
62.984512
  20
195.28789
  30
0
  10
62.973389
  20
195.52109
  30
0
  10
62.984512
  20
195.75427
  30
0
  10
63.017776
  20
195.98526
  30
0
  10
63.072876
  20
196.21193
  30
0
  10
63.149292
  20
196.43213
  30
0
  10
63.246307
  20
196.6438
  30
0
  10
63.363022
  20
196.84494
  30
0
  10
63.498337
  20
197.03372
  30
0
  10
63.650986
  20
197.20831
  30
0
  10
63.819534
  20
197.36713
  30
0
  10
64.002411
  20
197.50865
  30
0
  10
64.197906
  20
197.63159
  30
0
  10
64.40419
  20
197.73474
  30
0
  10
64.619324
  20
197.81718
  30
0
  10
64.841309
  20
197.87814
  30
0
  10
65.068039
  20
197.91702
  30
0
  10
65.297424
  20
197.93349
  30
0
  0
LWPOLYLINE
  5
9e
  100
AcDbEntity
  8

  6
Continuous
  62
7
  370
-1
  100
AcDbPolyline
  90
65
  70
1
  10
102.93781
  20
248.64685
  30
0
  10
103.16718
  20
248.63037
  30
0
  10
103.39392
  20
248.59149
  30
0
  10
103.61589
  20
248.53055
  30
0
  10
103.83102
  20
248.44809
  30
0
  10
104.03731
  20
248.34494
  30
0
  10
104.2328
  20
248.22202
  30
0
  10
104.41568
  20
248.08047
  30
0
  10
104.58423
  20
247.92166
  30
0
  10
104.73688
  20
247.74707
  30
0
  10
104.87219
  20
247.55829
  30
0
  10
104.98891
  20
247.35715
  30
0
  10
105.08592
  20
247.14548
  30
0
  10
105.16234
  20
246.92529
  30
0
  10
105.21744
  20
246.69864
  30
0
  10
105.2507
  20
246.46762
  30
0
  10
105.26184
  20
246.23444
  30
0
  10
105.2507
  20
246.00125
  30
0
  10
105.21744
  20
245.77023
  30
0
  10
105.16234
  20
245.54358
  30
0
  10
105.08592
  20
245.32339
  30
0
  10
104.98891
  20
245.11172
  30
0
  10
104.87219
  20
244.91055
  30
0
  10
104.73688
  20
244.7218
  30
0
  10
104.58423
  20
244.54721
  30
0
  10
104.41568
  20
244.3884
  30
0
  10
104.2328
  20
244.24686
  30
0
  10
104.03731
  20
244.12393
  30
0
  10
103.83102
  20
244.02078
  30
0
  10
103.61589
  20
243.93832
  30
0
  10
103.39392
  20
243.87738
  30
0
  10
103.16718
  20
243.83847
  30
0
  10
102.93781
  20
243.82202
  30
0
  10
102.70842
  20
243.83847
  30
0
  10
102.48169
  20
243.87738
  30
0
  10
102.2597
  20
243.93832
  30
0
  10
102.04459
  20
244.02078
  30
0
  10
101.8383
  20
244.12393
  30
0
  10
101.64279
  20
244.24686
  30
0
  10
101.45992
  20
244.3884
  30
0
  10
101.29137
  20
244.54721
  30
0
  10
101.13872
  20
244.7218
  30
0
  10
101.0034
  20
244.91055
  30
0
  10
100.88669
  20
245.11172
  30
0
  10
100.78967
  20
245.32339
  30
0
  10
100.71326
  20
245.54358
  30
0
  10
100.65817
  20
245.77023
  30
0
  10
100.62489
  20
246.00125
  30
0
  10
100.61377
  20
246.23444
  30
0
  10
100.62489
  20
246.46762
  30
0
  10
100.65817
  20
246.69864
  30
0
  10
100.71326
  20
246.92529
  30
0
  10
100.78967
  20
247.14548
  30
0
  10
100.88669
  20
247.35715
  30
0
  10
101.0034
  20
247.55829
  30
0
  10
101.13872
  20
247.74707
  30
0
  10
101.29137
  20
247.92166
  30
0
  10
101.45992
  20
248.08047
  30
0
  10
101.64279
  20
248.22202
  30
0
  10
101.8383
  20
248.34494
  30
0
  10
102.04459
  20
248.44809
  30
0
  10
102.2597
  20
248.53055
  30
0
  10
102.48169
  20
248.59149
  30
0
  10
102.70842
  20
248.63037
  30
0
  10
102.93781
  20
248.64685
  30
0
  0
LWPOLYLINE
  5
9f
  100
AcDbEntity
  8

  6
Continuous
  62
7
  370
-1
  100
AcDbPolyline
  90
65
  70
1
  10
279.78589
  20
-64.626312
  30
0
  10
279.55652
  20
-64.609833
  30
0
  10
279.32977
  20
-64.570953
  30
0
  10
279.10782
  20
-64.509979
  30
0
  10
278.89267
  20
-64.427582
  30
0
  10
278.6864
  20
-64.324371
  30
0
  10
278.49091
  20
-64.201447
  30
0
  10
278.30801
  20
-64.059937
  30
0
  10
278.13947
  20
-63.901154
  30
0
  10
277.98682
  20
-63.726532
  30
0
  10
277.8515
  20
-63.53775
  30
0
  10
277.7348
  20
-63.336578
  30
0
  10
277.63779
  20
-63.124939
  30
0
  10
277.56134
  20
-62.904755
  30
0
  10
277.50626
  20
-62.67807
  30
0
  10
277.47299
  20
-62.447083
  30
0
  10
277.46185
  20
-62.213898
  30
0
  10
277.47299
  20
-61.980682
  30
0
  10
277.50626
  20
-61.749725
  30
0
  10
277.56134
  20
-61.523041
  30
0
  10
277.63779
  20
-61.302826
  30
0
  10
277.7348
  20
-61.091156
  30
0
  10
277.8515
  20
-60.890045
  30
0
  10
277.98682
  20
-60.701263
  30
0
  10
278.13947
  20
-60.526642
  30
0
  10
278.30801
  20
-60.367828
  30
0
  10
278.49091
  20
-60.226318
  30
0
  10
278.6864
  20
-60.103394
  30
0
  10
278.89267
  20
-60.000214
  30
0
  10
279.10782
  20
-59.917786
  30
0
  10
279.32977
  20
-59.856842
  30
0
  10
279.55652
  20
-59.817963
  30
0
  10
279.78589
  20
-59.801483
  30
0
  10
280.01526
  20
-59.817963
  30
0
  10
280.242
  20
-59.856842
  30
0
  10
280.46399
  20
-59.917786
  30
0
  10
280.67914
  20
-60.000214
  30
0
  10
280.88541
  20
-60.103394
  30
0
  10
281.0809
  20
-60.226318
  30
0
  10
281.26379
  20
-60.367828
  30
0
  10
281.43234
  20
-60.526642
  30
0
  10
281.58496
  20
-60.701263
  30
0
  10
281.72028
  20
-60.890045
  30
0
  10
281.83701
  20
-61.091156
  30
0
  10
281.93402
  20
-61.302826
  30
0
  10
282.01044
  20
-61.523041
  30
0
  10
282.06555
  20
-61.749725
  30
0
  10
282.09882
  20
-61.980682
  30
0
  10
282.10992
  20
-62.213898
  30
0
  10
282.09882
  20
-62.447083
  30
0
  10
282.06555
  20
-62.67807
  30
0
  10
282.01044
  20
-62.904755
  30
0
  10
281.93402
  20
-63.124939
  30
0
  10
281.83701
  20
-63.336578
  30
0
  10
281.72028
  20
-63.53775
  30
0
  10
281.58496
  20
-63.726532
  30
0
  10
281.43234
  20
-63.901154
  30
0
  10
281.26379
  20
-64.059937
  30
0
  10
281.0809
  20
-64.201447
  30
0
  10
280.88541
  20
-64.324371
  30
0
  10
280.67914
  20
-64.427582
  30
0
  10
280.46399
  20
-64.509979
  30
0
  10
280.242
  20
-64.570953
  30
0
  10
280.01526
  20
-64.609833
  30
0
  10
279.78589
  20
-64.626312
  30
0
  0
SPLINE
  5
a0
  100
AcDbEntity
  8
Layer_0
  6
Continuous
  62
7
  370
-1
  100
AcDbSpline
  70
0
  71
3
  72
194
  73
190
  74
0
  40
0
  40
0
  40
0
  40
0
  40
1
  40
1
  40
1
  40
2
  40
2
  40
2
  40
3
  40
3
  40
3
  40
4
  40
4
  40
4
  40
5
  40
5
  40
5
  40
6
  40
6
  40
6
  40
7
  40
7
  40
7
  40
8
  40
8
  40
8
  40
9
  40
9
  40
9
  40
10
  40
10
  40
10
  40
11
  40
11
  40
11
  40
12
  40
12
  40
12
  40
13
  40
13
  40
13
  40
14
  40
14
  40
14
  40
15
  40
15
  40
15
  40
16
  40
16
  40
16
  40
17
  40
17
  40
17
  40
18
  40
18
  40
18
  40
19
  40
19
  40
19
  40
20
  40
20
  40
20
  40
21
  40
21
  40
21
  40
22
  40
22
  40
22
  40
23
  40
23
  40
23
  40
24
  40
24
  40
24
  40
25
  40
25
  40
25
  40
26
  40
26
  40
26
  40
27
  40
27
  40
27
  40
28
  40
28
  40
28
  40
29
  40
29
  40
29
  40
30
  40
30
  40
30
  40
31
  40
31
  40
31
  40
32
  40
32
  40
32
  40
33
  40
33
  40
33
  40
34
  40
34
  40
34
  40
35
  40
35
  40
35
  40
36
  40
36
  40
36
  40
37
  40
37
  40
37
  40
38
  40
38
  40
38
  40
39
  40
39
  40
39
  40
40
  40
40
  40
40
  40
41
  40
41
  40
41
  40
42
  40
42
  40
42
  40
43
  40
43
  40
43
  40
44
  40
44
  40
44
  40
45
  40
45
  40
45
  40
46
  40
46
  40
46
  40
47
  40
47
  40
47
  40
48
  40
48
  40
48
  40
49
  40
49
  40
49
  40
50
  40
50
  40
50
  40
51
  40
51
  40
51
  40
52
  40
52
  40
52
  40
53
  40
53
  40
53
  40
54
  40
54
  40
54
  40
55
  40
55
  40
55
  40
56
  40
56
  40
56
  40
57
  40
57
  40
57
  40
58
  40
58
  40
58
  40
59
  40
59
  40
59
  40
60
  40
60
  40
60
  40
61
  40
61
  40
61
  40
62
  40
62
  40
62
  40
63
  40
63
  40
63
  40
63
  10
116.49097
  20
280.76568
  30
0
  10
116.26874
  20
280.89382
  30
0
  10
116.26874
  20
280.89382
  30
0
  10
116.26874
  20
280.89382
  30
0
  10
116.03708
  20
281.00393
  30
0
  10
116.03708
  20
281.00393
  30
0
  10
116.03708
  20
281.00393
  30
0
  10
115.7975
  20
281.09533
  30
0
  10
115.7975
  20
281.09533
  30
0
  10
115.7975
  20
281.09533
  30
0
  10
115.55151
  20
281.16743
  30
0
  10
115.55151
  20
281.16743
  30
0
  10
115.55151
  20
281.16743
  30
0
  10
115.30069
  20
281.21975
  30
0
  10
115.30069
  20
281.21975
  30
0
  10
115.30069
  20
281.21975
  30
0
  10
115.04666
  20
281.25198
  30
0
  10
115.04666
  20
281.25198
  30
0
  10
115.04666
  20
281.25198
  30
0
  10
114.79103
  20
281.26389
  30
0
  10
114.79103
  20
281.26389
  30
0
  10
114.79103
  20
281.26389
  30
0
  10
114.53543
  20
281.25542
  30
0
  10
114.53543
  20
281.25542
  30
0
  10
114.53543
  20
281.25542
  30
0
  10
114.28151
  20
281.22663
  30
0
  10
114.28151
  20
281.22663
  30
0
  10
114.28151
  20
281.22663
  30
0
  10
114.0309
  20
281.17768
  30
0
  10
114.0309
  20
281.17768
  30
0
  10
114.0309
  20
281.17768
  30
0
  10
113.77512
  20
281.10055
  30
0
  10
113.77512
  20
281.10055
  30
0
  10
113.77512
  20
281.10055
  30
0
  10
113.52664
  20
281.00161
  30
0
  10
113.52664
  20
281.00161
  30
0
  10
113.52664
  20
281.00161
  30
0
  10
113.28723
  20
280.88161
  30
0
  10
113.28723
  20
280.88161
  30
0
  10
113.28723
  20
280.88161
  30
0
  10
113.05865
  20
280.74139
  30
0
  10
113.05865
  20
280.74139
  30
0
  10
113.05865
  20
280.74139
  30
0
  10
112.84254
  20
280.58196
  30
0
  10
112.84254
  20
280.58196
  30
0
  10
112.84254
  20
280.58196
  30
0
  10
112.64047
  20
280.4045
  30
0
  10
112.64047
  20
280.4045
  30
0
  10
112.64047
  20
280.4045
  30
0
  10
112.4539
  20
280.21029
  30
0
  10
112.4539
  20
280.21029
  30
0
  10
112.4539
  20
280.21029
  30
0
  10
112.28418
  20
280.00074
  30
0
  10
112.28418
  20
280.00074
  30
0
  10
112.28418
  20
280.00074
  30
0
  10
7.6525269
  20
139.02919
  30
0
  10
7.6525269
  20
139.02919
  30
0
  10
7.6525269
  20
139.02919
  30
0
  10
7.6524963
  20
-81.263885
  30
0
  10
7.6524963
  20
-81.263885
  30
0
  10
7.6524963
  20
-81.263885
  30
0
  10
7.7578125
  20
-81.263885
  30
0
  10
7.7578125
  20
-81.263885
  30
0
  10
7.7578125
  20
-81.263885
  30
0
  10
114.08394
  20
-81.263885
  30
0
  10
114.08394
  20
-81.263885
  30
0
  10
114.08394
  20
-81.263885
  30
0
  10
261.07513
  20
-81.263885
  30
0
  10
261.07513
  20
-81.263885
  30
0
  10
261.07513
  20
-81.263885
  30
0
  10
292.3475
  20
-81.263885
  30
0
  10
292.3475
  20
-81.263885
  30
0
  10
292.3475
  20
-81.263885
  30
0
  10
292.34753
  20
223.5361
  30
0
  10
292.34753
  20
223.5361
  30
0
  10
292.34753
  20
223.5361
  30
0
  10
261.07513
  20
223.5361
  30
0
  10
261.07513
  20
223.5361
  30
0
  10
261.07513
  20
223.5361
  30
0
  10
257.56815
  20
223.5361
  30
0
  10
254.72514
  20
226.3791
  30
0
  10
254.72514
  20
229.88611
  30
0
  10
254.72516
  20
259.9662
  30
0
  10
254.72516
  20
259.9662
  30
0
  10
254.72516
  20
259.9662
  30
0
  10
254.72516
  20
261.71971
  30
0
  10
253.30365
  20
263.14119
  30
0
  10
251.55014
  20
263.14119
  30
0
  10
204.07927
  20
263.14119
  30
0
  10
204.07927
  20
263.14119
  30
0
  10
204.07927
  20
263.14119
  30
0
  10
202.58617
  20
263.14119
  30
0
  10
201.2948
  20
262.10085
  30
0
  10
200.97702
  20
260.64196
  30
0
  10
196.19429
  20
238.68567
  30
0
  10
196.19429
  20
238.68567
  30
0
  10
196.19429
  20
238.68567
  30
0
  10
196.11084
  20
238.35633
  30
0
  10
196.11084
  20
238.35633
  30
0
  10
196.11084
  20
238.35633
  30
0
  10
196.00533
  20
238.03319
  30
0
  10
196.00533
  20
238.03319
  30
0
  10
196.00533
  20
238.03319
  30
0
  10
195.87827
  20
237.71766
  30
0
  10
195.87827
  20
237.71766
  30
0
  10
195.87827
  20
237.71766
  30
0
  10
195.73016
  20
237.41115
  30
0
  10
195.73016
  20
237.41115
  30
0
  10
195.73016
  20
237.41115
  30
0
  10
195.56174
  20
237.11501
  30
0
  10
195.56174
  20
237.11501
  30
0
  10
195.56174
  20
237.11501
  30
0
  10
195.37367
  20
236.83055
  30
0
  10
195.37367
  20
236.83055
  30
0
  10
195.37367
  20
236.83055
  30
0
  10
195.16684
  20
236.55904
  30
0
  10
195.16684
  20
236.55904
  30
0
  10
195.16684
  20
236.55904
  30
0
  10
194.94214
  20
236.30167
  30
0
  10
194.94214
  20
236.30167
  30
0
  10
194.94214
  20
236.30167
  30
0
  10
194.70058
  20
236.05957
  30
0
  10
194.70058
  20
236.05957
  30
0
  10
194.70058
  20
236.05957
  30
0
  10
194.44321
  20
235.83382
  30
0
  10
194.44321
  20
235.83382
  30
0
  10
194.44321
  20
235.83382
  30
0
  10
194.17117
  20
235.62543
  30
0
  10
194.17117
  20
235.62543
  30
0
  10
194.17117
  20
235.62543
  30
0
  10
193.88567
  20
235.43531
  30
0
  10
193.88567
  20
235.43531
  30
0
  10
193.88567
  20
235.43531
  30
0
  10
193.58797
  20
235.26429
  30
0
  10
193.58797
  20
235.26429
  30
0
  10
193.58797
  20
235.26429
  30
0
  10
193.27939
  20
235.11315
  30
0
  10
193.27939
  20
235.11315
  30
0
  10
193.27939
  20
235.11315
  30
0
  10
192.9613
  20
234.98253
  30
0
  10
192.9613
  20
234.98253
  30
0
  10
192.9613
  20
234.98253
  30
0
  10
192.63509
  20
234.87304
  30
0
  10
192.63509
  20
234.87304
  30
0
  10
192.63509
  20
234.87304
  30
0
  10
192.30222
  20
234.78513
  30
0
  10
192.30222
  20
234.78513
  30
0
  10
192.30222
  20
234.78513
  30
0
  10
191.96414
  20
234.71923
  30
0
  10
191.96414
  20
234.71923
  30
0
  10
191.96414
  20
234.71923
  30
0
  10
191.62238
  20
234.6756
  30
0
  10
191.62238
  20
234.6756
  30
0
  10
191.62238
  20
234.6756
  30
0
  10
191.27841
  20
234.65444
  30
0
  10
191.27841
  20
234.65444
  30
0
  10
191.27841
  20
234.65444
  30
0
  10
190.93378
  20
234.65584
  30
0
  10
190.93378
  20
234.65584
  30
0
  10
190.93378
  20
234.65584
  30
0
  10
190.59003
  20
234.6798
  30
0
  10
190.59003
  20
234.6798
  30
0
  10
190.59003
  20
234.6798
  30
0
  10
190.24863
  20
234.72622
  30
0
  10
190.24863
  20
234.72622
  30
0
  10
190.24863
  20
234.72622
  30
0
  10
189.91112
  20
234.79488
  30
0
  10
189.91112
  20
234.79488
  30
0
  10
189.91112
  20
234.79488
  30
0
  10
189.57899
  20
234.88547
  30
0
  10
189.57899
  20
234.88547
  30
0
  10
189.57899
  20
234.88547
  30
0
  10
189.25372
  20
234.99762
  30
0
  10
189.25372
  20
234.99762
  30
0
  10
189.25372
  20
234.99762
  30
0
  10
188.93672
  20
235.13082
  30
0
  10
188.93672
  20
235.13082
  30
0
  10
188.93672
  20
235.13082
  30
0
  10
188.62943
  20
235.28447
  30
0
  10
188.62943
  20
235.28447
  30
0
  10
188.62943
  20
235.28447
  30
0
  10
188.33318
  20
235.4579
  30
0
  10
188.33318
  20
235.4579
  30
0
  10
188.33318
  20
235.4579
  30
0
  10
116.5631
  20
280.72019
  30
0
  10
116.5631
  20
280.72019
  30
0
  10
116.5631
  20
280.72019
  30
0
  10
116.49097
  20
280.76568
  30
0
  10
116.49097
  20
280.76568
  30
0
  10
116.49097
  20
280.76568
  30
0
  41
1
  41
1
  41
1
  41
1
  41
1
  41
1
  41
1
  41
1
  41
1
  41
1
  41
1
  41
1
  41
1
  41
1
  41
1
  41
1
  41
1
  41
1
  41
1
  41
1
  41
1
  41
1
  41
1
  41
1
  41
1
  41
1
  41
1
  41
1
  41
1
  41
1
  41
1
  41
1
  41
1
  41
1
  41
1
  41
1
  41
1
  41
1
  41
1
  41
1
  41
1
  41
1
  41
1
  41
1
  41
1
  41
1
  41
1
  41
1
  41
1
  41
1
  41
1
  41
1
  41
1
  41
1
  41
1
  41
1
  41
1
  41
1
  41
1
  41
1
  41
1
  41
1
  41
1
  41
1
  41
1
  41
1
  41
1
  41
1
  41
1
  41
1
  41
1
  41
1
  41
1
  41
1
  41
1
  41
1
  41
1
  41
1
  41
1
  41
1
  41
1
  41
1
  41
1
  41
1
  41
1
  41
1
  41
1
  41
1
  41
1
  41
1
  41
1
  41
1
  41
1
  41
1
  41
1
  41
1
  41
1
  41
1
  41
1
  41
1
  41
1
  41
1
  41
1
  41
1
  41
1
  41
1
  41
1
  41
1
  41
1
  41
1
  41
1
  41
1
  41
1
  41
1
  41
1
  41
1
  41
1
  41
1
  41
1
  41
1
  41
1
  41
1
  41
1
  41
1
  41
1
  41
1
  41
1
  41
1
  41
1
  41
1
  41
1
  41
1
  41
1
  41
1
  41
1
  41
1
  41
1
  41
1
  41
1
  41
1
  41
1
  41
1
  41
1
  41
1
  41
1
  41
1
  41
1
  41
1
  41
1
  41
1
  41
1
  41
1
  41
1
  41
1
  41
1
  41
1
  41
1
  41
1
  41
1
  41
1
  41
1
  41
1
  41
1
  41
1
  41
1
  41
1
  41
1
  41
1
  41
1
  41
1
  41
1
  41
1
  41
1
  41
1
  41
1
  41
1
  41
1
  41
1
  41
1
  41
1
  41
1
  41
1
  41
1
  41
1
  41
1
  41
1
  41
1
  41
1
  41
1
  41
1
  0
LWPOLYLINE
  5
a1
  100
AcDbEntity
  8

  6
Continuous
  62
7
  370
-1
  100
AcDbPolyline
  90
65
  70
1
  10
279.78592
  20
189.37369
  30
0
  10
279.55652
  20
189.39017
  30
0
  10
279.32977
  20
189.42905
  30
0
  10
279.10782
  20
189.48999
  30
0
  10
278.89267
  20
189.57245
  30
0
  10
278.6864
  20
189.67561
  30
0
  10
278.49091
  20
189.79852
  30
0
  10
278.30804
  20
189.94006
  30
0
  10
278.13947
  20
190.09888
  30
0
  10
277.98685
  20
190.27347
  30
0
  10
277.8515
  20
190.46225
  30
0
  10
277.7348
  20
190.66339
  30
0
  10
277.63779
  20
190.87506
  30
0
  10
277.56137
  20
191.09525
  30
0
  10
277.50626
  20
191.32191
  30
0
  10
277.47299
  20
191.55292
  30
0
  10
277.46188
  20
191.7861
  30
0
  10
277.47299
  20
192.01929
  30
0
  10
277.50626
  20
192.25031
  30
0
  10
277.56137
  20
192.47696
  30
0
  10
277.63779
  20
192.69716
  30
0
  10
277.7348
  20
192.90883
  30
0
  10
277.8515
  20
193.10997
  30
0
  10
277.98685
  20
193.29874
  30
0
  10
278.13947
  20
193.47334
  30
0
  10
278.30804
  20
193.63216
  30
0
  10
278.49091
  20
193.77368
  30
0
  10
278.6864
  20
193.89661
  30
0
  10
278.89267
  20
193.99977
  30
0
  10
279.10782
  20
194.08221
  30
0
  10
279.32977
  20
194.14316
  30
0
  10
279.55652
  20
194.18205
  30
0
  10
279.78592
  20
194.19852
  30
0
  10
280.01529
  20
194.18205
  30
0
  10
280.24203
  20
194.14316
  30
0
  10
280.46399
  20
194.08221
  30
0
  10
280.67914
  20
193.99977
  30
0
  10
280.88541
  20
193.89661
  30
0
  10
281.0809
  20
193.77368
  30
0
  10
281.26379
  20
193.63216
  30
0
  10
281.43234
  20
193.47334
  30
0
  10
281.58499
  20
193.29874
  30
0
  10
281.72031
  20
193.10997
  30
0
  10
281.83701
  20
192.90883
  30
0
  10
281.93402
  20
192.69716
  30
0
  10
282.01044
  20
192.47696
  30
0
  10
282.06555
  20
192.25031
  30
0
  10
282.09882
  20
192.01929
  30
0
  10
282.10992
  20
191.7861
  30
0
  10
282.09882
  20
191.55292
  30
0
  10
282.06555
  20
191.32191
  30
0
  10
282.01044
  20
191.09525
  30
0
  10
281.93402
  20
190.87506
  30
0
  10
281.83701
  20
190.66339
  30
0
  10
281.72031
  20
190.46225
  30
0
  10
281.58499
  20
190.27347
  30
0
  10
281.43234
  20
190.09888
  30
0
  10
281.26379
  20
189.94006
  30
0
  10
281.0809
  20
189.79852
  30
0
  10
280.88541
  20
189.67561
  30
0
  10
280.67914
  20
189.57245
  30
0
  10
280.46399
  20
189.48999
  30
0
  10
280.24203
  20
189.42905
  30
0
  10
280.01529
  20
189.39017
  30
0
  10
279.78592
  20
189.37369
  30
0
  0
LWPOLYLINE
  5
a2
  100
AcDbEntity
  8

  6
Continuous
  62
7
  370
-1
  100
AcDbPolyline
  90
65
  70
1
  10
20.214142
  20
117.88461
  30
0
  10
20.443512
  20
117.86815
  30
0
  10
20.670258
  20
117.82927
  30
0
  10
20.892242
  20
117.76831
  30
0
  10
21.107361
  20
117.68587
  30
0
  10
21.31366
  20
117.5827
  30
0
  10
21.509155
  20
117.45978
  30
0
  10
21.692017
  20
117.31825
  30
0
  10
21.860596
  20
117.15944
  30
0
  10
22.013214
  20
116.98483
  30
0
  10
22.148529
  20
116.79607
  30
0
  10
22.265259
  20
116.59491
  30
0
  10
22.362274
  20
116.38326
  30
0
  10
22.43866
  20
116.16306
  30
0
  10
22.493774
  20
115.9364
  30
0
  10
22.527039
  20
115.70538
  30
0
  10
22.538147
  20
115.4722
  30
0
  10
22.527039
  20
115.23901
  30
0
  10
22.493774
  20
115.00801
  30
0
  10
22.43866
  20
114.78134
  30
0
  10
22.362274
  20
114.56116
  30
0
  10
22.265259
  20
114.34949
  30
0
  10
22.148529
  20
114.14833
  30
0
  10
22.013214
  20
113.95956
  30
0
  10
21.860596
  20
113.78496
  30
0
  10
21.692017
  20
113.62614
  30
0
  10
21.509155
  20
113.48462
  30
0
  10
21.31366
  20
113.36171
  30
0
  10
21.107361
  20
113.25853
  30
0
  10
20.892242
  20
113.17609
  30
0
  10
20.670258
  20
113.11514
  30
0
  10
20.443512
  20
113.07625
  30
0
  10
20.214142
  20
113.0598
  30
0
  10
19.984741
  20
113.07625
  30
0
  10
19.758026
  20
113.11514
  30
0
  10
19.536072
  20
113.17609
  30
0
  10
19.320923
  20
113.25853
  30
0
  10
19.114624
  20
113.36171
  30
0
  10
18.919128
  20
113.48462
  30
0
  10
18.736267
  20
113.62614
  30
0
  10
18.567719
  20
113.78496
  30
0
  10
18.41507
  20
113.95956
  30
0
  10
18.279724
  20
114.14833
  30
0
  10
18.163025
  20
114.34949
  30
0
  10
18.06604
  20
114.56116
  30
0
  10
17.989594
  20
114.78134
  30
0
  10
17.934509
  20
115.00801
  30
0
  10
17.901245
  20
115.23901
  30
0
  10
17.890106
  20
115.4722
  30
0
  10
17.901245
  20
115.70538
  30
0
  10
17.934509
  20
115.9364
  30
0
  10
17.989594
  20
116.16306
  30
0
  10
18.06604
  20
116.38326
  30
0
  10
18.163025
  20
116.59491
  30
0
  10
18.279724
  20
116.79607
  30
0
  10
18.41507
  20
116.98483
  30
0
  10
18.567719
  20
117.15944
  30
0
  10
18.736267
  20
117.31825
  30
0
  10
18.919128
  20
117.45978
  30
0
  10
19.114624
  20
117.5827
  30
0
  10
19.320923
  20
117.68587
  30
0
  10
19.536072
  20
117.76831
  30
0
  10
19.758026
  20
117.82927
  30
0
  10
19.984741
  20
117.86815
  30
0
  10
20.214142
  20
117.88461
  30
0
  0
ENDSEC
  0
SECTION
  2
OBJECTS
  0
DICTIONARY
  5
C
  330
0
  100
AcDbDictionary
  281
1
  3
ACAD_GROUP
  350
D
  0
DICTIONARY
  5
D
  330
C
  100
AcDbDictionary
  281
1
  0
ENDSEC
  0
EOF
