ISO-10303-21;
HEADER;
/* Generated by software containing ST-Developer
 * from STEP Tools, Inc. (www.steptools.com) 
 */

FILE_DESCRIPTION(
/* description */ ('INBOARD FWD LEFT CONSOLE TRIM'),
/* implementation_level */ '2;1');

FILE_NAME(
/* name */ 'OH4A1A1-43 - INBOARD FWD LEFT CONSOLE TRIM.step',
/* time_stamp */ '2026-07-04T15:36:46+10:00',
/* author */ (''),
/* organization */ (''),
/* preprocessor_version */ 'ST-DEVELOPER v20.1',
/* originating_system */ 'Autodesk Translation Framework v15.8.0.0',
/* authorisation */ '');

FILE_SCHEMA (('AUTOMOTIVE_DESIGN { 1 0 10303 214 3 1 1 }'));
ENDSEC;

DATA;
#10=MECHANICAL_DESIGN_GEOMETRIC_PRESENTATION_REPRESENTATION('',(#13),#967);
#11=SHAPE_REPRESENTATION_RELATIONSHIP('SRR','None',#977,#12);
#12=ADVANCED_BREP_SHAPE_REPRESENTATION('',(#14),#966);
#13=STYLED_ITEM('',(#987),#14);
#14=MANIFOLD_SOLID_BREP('Body1',#566);
#15=(
BOUNDED_SURFACE()
B_SPLINE_SURFACE(2,1,((#948,#949),(#950,#951),(#952,#953),(#954,#955),(#956,
#957)),.UNSPECIFIED.,.F.,.F.,.F.)
B_SPLINE_SURFACE_WITH_KNOTS((3,2,3),(2,2),(-2.14031420899167,-1.1758313969367,
-0.211348584881743),(0.,0.0731520000059863),.UNSPECIFIED.)
GEOMETRIC_REPRESENTATION_ITEM()
RATIONAL_B_SPLINE_SURFACE(((1.,1.),(0.885957660932114,0.885957660932114),
(1.,1.),(0.885957660932114,0.885957660932114),(1.,1.)))
REPRESENTATION_ITEM('')
SURFACE()
);
#16=FACE_BOUND('',#109,.T.);
#17=FACE_BOUND('',#110,.T.);
#18=FACE_BOUND('',#111,.T.);
#19=FACE_BOUND('',#112,.T.);
#20=FACE_BOUND('',#113,.T.);
#21=FACE_BOUND('',#115,.T.);
#22=FACE_BOUND('',#116,.T.);
#23=FACE_BOUND('',#117,.T.);
#24=FACE_BOUND('',#126,.T.);
#25=FACE_BOUND('',#127,.T.);
#26=FACE_BOUND('',#128,.T.);
#27=FACE_BOUND('',#129,.T.);
#28=FACE_BOUND('',#130,.T.);
#29=FACE_BOUND('',#133,.T.);
#30=FACE_BOUND('',#134,.T.);
#31=FACE_BOUND('',#135,.T.);
#32=ELLIPSE('',#598,0.125538786040213,0.125);
#33=ELLIPSE('',#612,0.20401973146267,0.200950667696342);
#34=ELLIPSE('',#616,0.126217470271151,0.125);
#35=ELLIPSE('',#618,0.125538786040213,0.125);
#36=ELLIPSE('',#619,0.126217470271151,0.125);
#37=ELLIPSE('',#623,0.253818180602924,0.250000000000016);
#38=ELLIPSE('',#633,0.204019731458227,0.200950667687802);
#39=CIRCLE('',#583,0.0950000000000094);
#40=CIRCLE('',#584,0.0950000000000094);
#41=CIRCLE('',#586,0.0950000000000094);
#42=CIRCLE('',#587,0.0950000000000094);
#43=CIRCLE('',#589,0.0950000000000094);
#44=CIRCLE('',#590,0.0950000000000094);
#45=CIRCLE('',#592,0.0950000000000094);
#46=CIRCLE('',#593,0.0950000000000094);
#47=CIRCLE('',#595,0.0950000000000094);
#48=CIRCLE('',#596,0.0950000000000094);
#49=CIRCLE('',#600,0.0949999999999646);
#50=CIRCLE('',#601,0.0949999999999646);
#51=CIRCLE('',#602,0.0949999999999646);
#52=CIRCLE('',#606,0.0949999999999646);
#53=CIRCLE('',#608,0.0949999999999646);
#54=CIRCLE('',#610,0.0949999999999646);
#55=CIRCLE('',#613,0.125);
#56=CIRCLE('',#614,0.125);
#57=CIRCLE('',#615,0.250000000000016);
#58=CIRCLE('',#625,0.250000000000016);
#59=CIRCLE('',#628,0.125);
#60=CIRCLE('',#631,0.125);
#61=CYLINDRICAL_SURFACE('',#582,0.0950000000000094);
#62=CYLINDRICAL_SURFACE('',#585,0.0950000000000094);
#63=CYLINDRICAL_SURFACE('',#588,0.0950000000000094);
#64=CYLINDRICAL_SURFACE('',#591,0.0950000000000094);
#65=CYLINDRICAL_SURFACE('',#594,0.0950000000000094);
#66=CYLINDRICAL_SURFACE('',#605,0.0949999999999646);
#67=CYLINDRICAL_SURFACE('',#607,0.0949999999999646);
#68=CYLINDRICAL_SURFACE('',#609,0.0949999999999646);
#69=CYLINDRICAL_SURFACE('',#617,0.125);
#70=CYLINDRICAL_SURFACE('',#624,0.250000000000016);
#71=CYLINDRICAL_SURFACE('',#627,0.125);
#72=CYLINDRICAL_SURFACE('',#630,0.125);
#73=FACE_OUTER_BOUND('',#101,.T.);
#74=FACE_OUTER_BOUND('',#102,.T.);
#75=FACE_OUTER_BOUND('',#103,.T.);
#76=FACE_OUTER_BOUND('',#104,.T.);
#77=FACE_OUTER_BOUND('',#105,.T.);
#78=FACE_OUTER_BOUND('',#106,.T.);
#79=FACE_OUTER_BOUND('',#107,.T.);
#80=FACE_OUTER_BOUND('',#108,.T.);
#81=FACE_OUTER_BOUND('',#114,.T.);
#82=FACE_OUTER_BOUND('',#118,.T.);
#83=FACE_OUTER_BOUND('',#119,.T.);
#84=FACE_OUTER_BOUND('',#120,.T.);
#85=FACE_OUTER_BOUND('',#121,.T.);
#86=FACE_OUTER_BOUND('',#122,.T.);
#87=FACE_OUTER_BOUND('',#123,.T.);
#88=FACE_OUTER_BOUND('',#124,.T.);
#89=FACE_OUTER_BOUND('',#125,.T.);
#90=FACE_OUTER_BOUND('',#131,.T.);
#91=FACE_OUTER_BOUND('',#132,.T.);
#92=FACE_OUTER_BOUND('',#136,.T.);
#93=FACE_OUTER_BOUND('',#137,.T.);
#94=FACE_OUTER_BOUND('',#138,.T.);
#95=FACE_OUTER_BOUND('',#139,.T.);
#96=FACE_OUTER_BOUND('',#140,.T.);
#97=FACE_OUTER_BOUND('',#141,.T.);
#98=FACE_OUTER_BOUND('',#142,.T.);
#99=FACE_OUTER_BOUND('',#143,.T.);
#100=FACE_OUTER_BOUND('',#144,.T.);
#101=EDGE_LOOP('',(#369,#370,#371,#372));
#102=EDGE_LOOP('',(#373,#374,#375,#376));
#103=EDGE_LOOP('',(#377,#378,#379,#380));
#104=EDGE_LOOP('',(#381,#382,#383,#384));
#105=EDGE_LOOP('',(#385,#386,#387,#388));
#106=EDGE_LOOP('',(#389,#390,#391,#392));
#107=EDGE_LOOP('',(#393,#394,#395,#396));
#108=EDGE_LOOP('',(#397,#398,#399,#400,#401));
#109=EDGE_LOOP('',(#402));
#110=EDGE_LOOP('',(#403));
#111=EDGE_LOOP('',(#404));
#112=EDGE_LOOP('',(#405));
#113=EDGE_LOOP('',(#406));
#114=EDGE_LOOP('',(#407,#408,#409,#410));
#115=EDGE_LOOP('',(#411));
#116=EDGE_LOOP('',(#412));
#117=EDGE_LOOP('',(#413));
#118=EDGE_LOOP('',(#414,#415,#416,#417));
#119=EDGE_LOOP('',(#418,#419,#420,#421));
#120=EDGE_LOOP('',(#422,#423,#424,#425));
#121=EDGE_LOOP('',(#426,#427,#428,#429));
#122=EDGE_LOOP('',(#430,#431,#432,#433));
#123=EDGE_LOOP('',(#434,#435,#436,#437,#438,#439,#440,#441,#442,#443,#444,
#445));
#124=EDGE_LOOP('',(#446,#447,#448,#449,#450,#451));
#125=EDGE_LOOP('',(#452,#453,#454,#455,#456));
#126=EDGE_LOOP('',(#457));
#127=EDGE_LOOP('',(#458));
#128=EDGE_LOOP('',(#459));
#129=EDGE_LOOP('',(#460));
#130=EDGE_LOOP('',(#461));
#131=EDGE_LOOP('',(#462,#463,#464,#465,#466,#467,#468,#469));
#132=EDGE_LOOP('',(#470,#471,#472,#473,#474));
#133=EDGE_LOOP('',(#475));
#134=EDGE_LOOP('',(#476));
#135=EDGE_LOOP('',(#477));
#136=EDGE_LOOP('',(#478,#479,#480,#481,#482));
#137=EDGE_LOOP('',(#483,#484,#485,#486));
#138=EDGE_LOOP('',(#487,#488,#489,#490));
#139=EDGE_LOOP('',(#491,#492,#493,#494));
#140=EDGE_LOOP('',(#495,#496,#497,#498));
#141=EDGE_LOOP('',(#499,#500,#501,#502));
#142=EDGE_LOOP('',(#503,#504,#505,#506));
#143=EDGE_LOOP('',(#507,#508,#509,#510));
#144=EDGE_LOOP('',(#511,#512,#513,#514,#515,#516,#517,#518,#519,#520,#521,
#522));
#145=LINE('',#802,#193);
#146=LINE('',#804,#194);
#147=LINE('',#806,#195);
#148=LINE('',#807,#196);
#149=LINE('',#811,#197);
#150=LINE('',#812,#198);
#151=LINE('',#813,#199);
#152=LINE('',#818,#200);
#153=LINE('',#824,#201);
#154=LINE('',#830,#202);
#155=LINE('',#836,#203);
#156=LINE('',#842,#204);
#157=LINE('',#847,#205);
#158=LINE('',#848,#206);
#159=LINE('',#853,#207);
#160=LINE('',#855,#208);
#161=LINE('',#857,#209);
#162=LINE('',#858,#210);
#163=LINE('',#867,#211);
#164=LINE('',#869,#212);
#165=LINE('',#870,#213);
#166=LINE('',#873,#214);
#167=LINE('',#874,#215);
#168=LINE('',#878,#216);
#169=LINE('',#882,#217);
#170=LINE('',#886,#218);
#171=LINE('',#890,#219);
#172=LINE('',#894,#220);
#173=LINE('',#898,#221);
#174=LINE('',#902,#222);
#175=LINE('',#904,#223);
#176=LINE('',#911,#224);
#177=LINE('',#914,#225);
#178=LINE('',#915,#226);
#179=LINE('',#918,#227);
#180=LINE('',#919,#228);
#181=LINE('',#923,#229);
#182=LINE('',#926,#230);
#183=LINE('',#930,#231);
#184=LINE('',#931,#232);
#185=LINE('',#934,#233);
#186=LINE('',#938,#234);
#187=LINE('',#939,#235);
#188=LINE('',#942,#236);
#189=LINE('',#946,#237);
#190=LINE('',#947,#238);
#191=LINE('',#960,#239);
#192=LINE('',#962,#240);
#193=VECTOR('',#640,6.94719864286298);
#194=VECTOR('',#641,0.0240000000000313);
#195=VECTOR('',#642,6.94942937220824);
#196=VECTOR('',#643,0.024103446919722);
#197=VECTOR('',#646,0.0239999999999992);
#198=VECTOR('',#647,8.67295517837901);
#199=VECTOR('',#648,8.67295517837906);
#200=VECTOR('',#653,0.0950000000000094);
#201=VECTOR('',#660,0.0950000000000094);
#202=VECTOR('',#667,0.0950000000000094);
#203=VECTOR('',#674,0.0950000000000094);
#204=VECTOR('',#681,0.0950000000000094);
#205=VECTOR('',#686,14.2673817398795);
#206=VECTOR('',#687,4.24999999999998);
#207=VECTOR('',#692,12.);
#208=VECTOR('',#693,1.24999999999998);
#209=VECTOR('',#694,12.);
#210=VECTOR('',#695,1.24999999999998);
#211=VECTOR('',#704,0.0240000000000285);
#212=VECTOR('',#705,12.);
#213=VECTOR('',#706,0.0239999999999992);
#214=VECTOR('',#709,1.24578947370188);
#215=VECTOR('',#710,0.0243665453379852);
#216=VECTOR('',#715,0.0949999999999646);
#217=VECTOR('',#720,0.0949999999999646);
#218=VECTOR('',#725,0.0949999999999646);
#219=VECTOR('',#728,3.34057327958521);
#220=VECTOR('',#731,0.884691336004633);
#221=VECTOR('',#734,1.86893228688702);
#222=VECTOR('',#737,1.18425533543899);
#223=VECTOR('',#740,5.78705454272402);
#224=VECTOR('',#749,0.0242337542920266);
#225=VECTOR('',#752,4.25208930843598);
#226=VECTOR('',#753,14.2693534292718);
#227=VECTOR('',#756,1.24791069156497);
#228=VECTOR('',#757,5.78705454272303);
#229=VECTOR('',#762,12.0000087305719);
#230=VECTOR('',#765,0.0239999999999894);
#231=VECTOR('',#770,1.18425533543899);
#232=VECTOR('',#771,0.0239999999999558);
#233=VECTOR('',#774,0.0239999999999625);
#234=VECTOR('',#779,1.86893228688715);
#235=VECTOR('',#780,0.0239999999998971);
#236=VECTOR('',#783,0.0239999999998696);
#237=VECTOR('',#788,0.0240000000000273);
#238=VECTOR('',#789,0.88469133600453);
#239=VECTOR('',#792,0.0239999999999933);
#240=VECTOR('',#795,3.34393108349379);
#241=VERTEX_POINT('',#800);
#242=VERTEX_POINT('',#801);
#243=VERTEX_POINT('',#803);
#244=VERTEX_POINT('',#805);
#245=VERTEX_POINT('',#809);
#246=VERTEX_POINT('',#810);
#247=VERTEX_POINT('',#815);
#248=VERTEX_POINT('',#817);
#249=VERTEX_POINT('',#821);
#250=VERTEX_POINT('',#823);
#251=VERTEX_POINT('',#827);
#252=VERTEX_POINT('',#829);
#253=VERTEX_POINT('',#833);
#254=VERTEX_POINT('',#835);
#255=VERTEX_POINT('',#839);
#256=VERTEX_POINT('',#841);
#257=VERTEX_POINT('',#845);
#258=VERTEX_POINT('',#846);
#259=VERTEX_POINT('',#851);
#260=VERTEX_POINT('',#852);
#261=VERTEX_POINT('',#854);
#262=VERTEX_POINT('',#856);
#263=VERTEX_POINT('',#859);
#264=VERTEX_POINT('',#861);
#265=VERTEX_POINT('',#863);
#266=VERTEX_POINT('',#866);
#267=VERTEX_POINT('',#868);
#268=VERTEX_POINT('',#872);
#269=VERTEX_POINT('',#876);
#270=VERTEX_POINT('',#880);
#271=VERTEX_POINT('',#884);
#272=VERTEX_POINT('',#888);
#273=VERTEX_POINT('',#889);
#274=VERTEX_POINT('',#891);
#275=VERTEX_POINT('',#893);
#276=VERTEX_POINT('',#895);
#277=VERTEX_POINT('',#897);
#278=VERTEX_POINT('',#899);
#279=VERTEX_POINT('',#901);
#280=VERTEX_POINT('',#907);
#281=VERTEX_POINT('',#909);
#282=VERTEX_POINT('',#913);
#283=VERTEX_POINT('',#917);
#284=VERTEX_POINT('',#921);
#285=VERTEX_POINT('',#925);
#286=VERTEX_POINT('',#929);
#287=VERTEX_POINT('',#933);
#288=VERTEX_POINT('',#937);
#289=VERTEX_POINT('',#941);
#290=VERTEX_POINT('',#945);
#291=VERTEX_POINT('',#958);
#292=EDGE_CURVE('',#241,#242,#145,.T.);
#293=EDGE_CURVE('',#242,#243,#146,.F.);
#294=EDGE_CURVE('',#244,#243,#147,.T.);
#295=EDGE_CURVE('',#241,#244,#148,.T.);
#296=EDGE_CURVE('',#245,#246,#149,.T.);
#297=EDGE_CURVE('',#243,#245,#150,.F.);
#298=EDGE_CURVE('',#242,#246,#151,.F.);
#299=EDGE_CURVE('',#247,#247,#39,.T.);
#300=EDGE_CURVE('',#247,#248,#152,.T.);
#301=EDGE_CURVE('',#248,#248,#40,.T.);
#302=EDGE_CURVE('',#249,#249,#41,.T.);
#303=EDGE_CURVE('',#249,#250,#153,.T.);
#304=EDGE_CURVE('',#250,#250,#42,.T.);
#305=EDGE_CURVE('',#251,#251,#43,.T.);
#306=EDGE_CURVE('',#251,#252,#154,.T.);
#307=EDGE_CURVE('',#252,#252,#44,.T.);
#308=EDGE_CURVE('',#253,#253,#45,.T.);
#309=EDGE_CURVE('',#253,#254,#155,.T.);
#310=EDGE_CURVE('',#254,#254,#46,.T.);
#311=EDGE_CURVE('',#255,#255,#47,.T.);
#312=EDGE_CURVE('',#255,#256,#156,.T.);
#313=EDGE_CURVE('',#256,#256,#48,.T.);
#314=EDGE_CURVE('',#257,#258,#157,.F.);
#315=EDGE_CURVE('',#258,#246,#158,.T.);
#316=EDGE_CURVE('',#257,#241,#32,.T.);
#317=EDGE_CURVE('',#259,#260,#159,.F.);
#318=EDGE_CURVE('',#260,#261,#160,.T.);
#319=EDGE_CURVE('',#261,#262,#161,.T.);
#320=EDGE_CURVE('',#262,#259,#162,.F.);
#321=EDGE_CURVE('',#263,#263,#49,.F.);
#322=EDGE_CURVE('',#264,#264,#50,.F.);
#323=EDGE_CURVE('',#265,#265,#51,.F.);
#324=EDGE_CURVE('',#259,#266,#163,.T.);
#325=EDGE_CURVE('',#267,#266,#164,.T.);
#326=EDGE_CURVE('',#267,#260,#165,.T.);
#327=EDGE_CURVE('',#266,#268,#166,.T.);
#328=EDGE_CURVE('',#268,#262,#167,.T.);
#329=EDGE_CURVE('',#269,#269,#52,.T.);
#330=EDGE_CURVE('',#269,#265,#168,.T.);
#331=EDGE_CURVE('',#270,#270,#53,.T.);
#332=EDGE_CURVE('',#270,#264,#169,.T.);
#333=EDGE_CURVE('',#271,#271,#54,.T.);
#334=EDGE_CURVE('',#271,#263,#170,.T.);
#335=EDGE_CURVE('',#272,#273,#171,.T.);
#336=EDGE_CURVE('',#274,#273,#33,.T.);
#337=EDGE_CURVE('',#274,#275,#172,.T.);
#338=EDGE_CURVE('',#276,#275,#55,.T.);
#339=EDGE_CURVE('',#276,#277,#173,.T.);
#340=EDGE_CURVE('',#278,#277,#56,.T.);
#341=EDGE_CURVE('',#278,#279,#174,.F.);
#342=EDGE_CURVE('',#279,#262,#57,.T.);
#343=EDGE_CURVE('',#261,#258,#175,.T.);
#344=EDGE_CURVE('',#272,#257,#34,.T.);
#345=EDGE_CURVE('',#280,#244,#35,.T.);
#346=EDGE_CURVE('',#281,#280,#36,.T.);
#347=EDGE_CURVE('',#281,#272,#176,.T.);
#348=EDGE_CURVE('',#245,#282,#177,.F.);
#349=EDGE_CURVE('',#280,#282,#178,.F.);
#350=EDGE_CURVE('',#283,#267,#179,.F.);
#351=EDGE_CURVE('',#282,#283,#180,.T.);
#352=EDGE_CURVE('',#268,#284,#37,.F.);
#353=EDGE_CURVE('',#283,#284,#181,.T.);
#354=EDGE_CURVE('',#279,#285,#182,.T.);
#355=EDGE_CURVE('',#284,#285,#58,.F.);
#356=EDGE_CURVE('',#285,#286,#183,.T.);
#357=EDGE_CURVE('',#286,#278,#184,.F.);
#358=EDGE_CURVE('',#277,#287,#185,.T.);
#359=EDGE_CURVE('',#286,#287,#59,.T.);
#360=EDGE_CURVE('',#287,#288,#186,.F.);
#361=EDGE_CURVE('',#288,#276,#187,.F.);
#362=EDGE_CURVE('',#275,#289,#188,.T.);
#363=EDGE_CURVE('',#288,#289,#60,.T.);
#364=EDGE_CURVE('',#290,#274,#189,.T.);
#365=EDGE_CURVE('',#289,#290,#190,.T.);
#366=EDGE_CURVE('',#290,#291,#38,.T.);
#367=EDGE_CURVE('',#273,#291,#191,.T.);
#368=EDGE_CURVE('',#291,#281,#192,.T.);
#369=ORIENTED_EDGE('',*,*,#292,.T.);
#370=ORIENTED_EDGE('',*,*,#293,.T.);
#371=ORIENTED_EDGE('',*,*,#294,.F.);
#372=ORIENTED_EDGE('',*,*,#295,.F.);
#373=ORIENTED_EDGE('',*,*,#296,.F.);
#374=ORIENTED_EDGE('',*,*,#297,.F.);
#375=ORIENTED_EDGE('',*,*,#293,.F.);
#376=ORIENTED_EDGE('',*,*,#298,.T.);
#377=ORIENTED_EDGE('',*,*,#299,.F.);
#378=ORIENTED_EDGE('',*,*,#300,.T.);
#379=ORIENTED_EDGE('',*,*,#301,.T.);
#380=ORIENTED_EDGE('',*,*,#300,.F.);
#381=ORIENTED_EDGE('',*,*,#302,.F.);
#382=ORIENTED_EDGE('',*,*,#303,.T.);
#383=ORIENTED_EDGE('',*,*,#304,.T.);
#384=ORIENTED_EDGE('',*,*,#303,.F.);
#385=ORIENTED_EDGE('',*,*,#305,.F.);
#386=ORIENTED_EDGE('',*,*,#306,.T.);
#387=ORIENTED_EDGE('',*,*,#307,.T.);
#388=ORIENTED_EDGE('',*,*,#306,.F.);
#389=ORIENTED_EDGE('',*,*,#308,.F.);
#390=ORIENTED_EDGE('',*,*,#309,.T.);
#391=ORIENTED_EDGE('',*,*,#310,.T.);
#392=ORIENTED_EDGE('',*,*,#309,.F.);
#393=ORIENTED_EDGE('',*,*,#311,.F.);
#394=ORIENTED_EDGE('',*,*,#312,.T.);
#395=ORIENTED_EDGE('',*,*,#313,.T.);
#396=ORIENTED_EDGE('',*,*,#312,.F.);
#397=ORIENTED_EDGE('',*,*,#314,.T.);
#398=ORIENTED_EDGE('',*,*,#315,.T.);
#399=ORIENTED_EDGE('',*,*,#298,.F.);
#400=ORIENTED_EDGE('',*,*,#292,.F.);
#401=ORIENTED_EDGE('',*,*,#316,.F.);
#402=ORIENTED_EDGE('',*,*,#307,.F.);
#403=ORIENTED_EDGE('',*,*,#310,.F.);
#404=ORIENTED_EDGE('',*,*,#313,.F.);
#405=ORIENTED_EDGE('',*,*,#304,.F.);
#406=ORIENTED_EDGE('',*,*,#301,.F.);
#407=ORIENTED_EDGE('',*,*,#317,.T.);
#408=ORIENTED_EDGE('',*,*,#318,.T.);
#409=ORIENTED_EDGE('',*,*,#319,.T.);
#410=ORIENTED_EDGE('',*,*,#320,.T.);
#411=ORIENTED_EDGE('',*,*,#321,.T.);
#412=ORIENTED_EDGE('',*,*,#322,.T.);
#413=ORIENTED_EDGE('',*,*,#323,.T.);
#414=ORIENTED_EDGE('',*,*,#324,.T.);
#415=ORIENTED_EDGE('',*,*,#325,.F.);
#416=ORIENTED_EDGE('',*,*,#326,.T.);
#417=ORIENTED_EDGE('',*,*,#317,.F.);
#418=ORIENTED_EDGE('',*,*,#327,.F.);
#419=ORIENTED_EDGE('',*,*,#324,.F.);
#420=ORIENTED_EDGE('',*,*,#320,.F.);
#421=ORIENTED_EDGE('',*,*,#328,.F.);
#422=ORIENTED_EDGE('',*,*,#329,.F.);
#423=ORIENTED_EDGE('',*,*,#330,.T.);
#424=ORIENTED_EDGE('',*,*,#323,.F.);
#425=ORIENTED_EDGE('',*,*,#330,.F.);
#426=ORIENTED_EDGE('',*,*,#331,.F.);
#427=ORIENTED_EDGE('',*,*,#332,.T.);
#428=ORIENTED_EDGE('',*,*,#322,.F.);
#429=ORIENTED_EDGE('',*,*,#332,.F.);
#430=ORIENTED_EDGE('',*,*,#333,.F.);
#431=ORIENTED_EDGE('',*,*,#334,.T.);
#432=ORIENTED_EDGE('',*,*,#321,.F.);
#433=ORIENTED_EDGE('',*,*,#334,.F.);
#434=ORIENTED_EDGE('',*,*,#335,.T.);
#435=ORIENTED_EDGE('',*,*,#336,.F.);
#436=ORIENTED_EDGE('',*,*,#337,.T.);
#437=ORIENTED_EDGE('',*,*,#338,.F.);
#438=ORIENTED_EDGE('',*,*,#339,.T.);
#439=ORIENTED_EDGE('',*,*,#340,.F.);
#440=ORIENTED_EDGE('',*,*,#341,.T.);
#441=ORIENTED_EDGE('',*,*,#342,.T.);
#442=ORIENTED_EDGE('',*,*,#319,.F.);
#443=ORIENTED_EDGE('',*,*,#343,.T.);
#444=ORIENTED_EDGE('',*,*,#314,.F.);
#445=ORIENTED_EDGE('',*,*,#344,.F.);
#446=ORIENTED_EDGE('',*,*,#295,.T.);
#447=ORIENTED_EDGE('',*,*,#345,.F.);
#448=ORIENTED_EDGE('',*,*,#346,.F.);
#449=ORIENTED_EDGE('',*,*,#347,.T.);
#450=ORIENTED_EDGE('',*,*,#344,.T.);
#451=ORIENTED_EDGE('',*,*,#316,.T.);
#452=ORIENTED_EDGE('',*,*,#348,.T.);
#453=ORIENTED_EDGE('',*,*,#349,.F.);
#454=ORIENTED_EDGE('',*,*,#345,.T.);
#455=ORIENTED_EDGE('',*,*,#294,.T.);
#456=ORIENTED_EDGE('',*,*,#297,.T.);
#457=ORIENTED_EDGE('',*,*,#311,.T.);
#458=ORIENTED_EDGE('',*,*,#308,.T.);
#459=ORIENTED_EDGE('',*,*,#305,.T.);
#460=ORIENTED_EDGE('',*,*,#302,.T.);
#461=ORIENTED_EDGE('',*,*,#299,.T.);
#462=ORIENTED_EDGE('',*,*,#326,.F.);
#463=ORIENTED_EDGE('',*,*,#350,.F.);
#464=ORIENTED_EDGE('',*,*,#351,.F.);
#465=ORIENTED_EDGE('',*,*,#348,.F.);
#466=ORIENTED_EDGE('',*,*,#296,.T.);
#467=ORIENTED_EDGE('',*,*,#315,.F.);
#468=ORIENTED_EDGE('',*,*,#343,.F.);
#469=ORIENTED_EDGE('',*,*,#318,.F.);
#470=ORIENTED_EDGE('',*,*,#327,.T.);
#471=ORIENTED_EDGE('',*,*,#352,.T.);
#472=ORIENTED_EDGE('',*,*,#353,.F.);
#473=ORIENTED_EDGE('',*,*,#350,.T.);
#474=ORIENTED_EDGE('',*,*,#325,.T.);
#475=ORIENTED_EDGE('',*,*,#333,.T.);
#476=ORIENTED_EDGE('',*,*,#331,.T.);
#477=ORIENTED_EDGE('',*,*,#329,.T.);
#478=ORIENTED_EDGE('',*,*,#328,.T.);
#479=ORIENTED_EDGE('',*,*,#342,.F.);
#480=ORIENTED_EDGE('',*,*,#354,.T.);
#481=ORIENTED_EDGE('',*,*,#355,.F.);
#482=ORIENTED_EDGE('',*,*,#352,.F.);
#483=ORIENTED_EDGE('',*,*,#356,.F.);
#484=ORIENTED_EDGE('',*,*,#354,.F.);
#485=ORIENTED_EDGE('',*,*,#341,.F.);
#486=ORIENTED_EDGE('',*,*,#357,.F.);
#487=ORIENTED_EDGE('',*,*,#340,.T.);
#488=ORIENTED_EDGE('',*,*,#358,.T.);
#489=ORIENTED_EDGE('',*,*,#359,.F.);
#490=ORIENTED_EDGE('',*,*,#357,.T.);
#491=ORIENTED_EDGE('',*,*,#360,.F.);
#492=ORIENTED_EDGE('',*,*,#358,.F.);
#493=ORIENTED_EDGE('',*,*,#339,.F.);
#494=ORIENTED_EDGE('',*,*,#361,.F.);
#495=ORIENTED_EDGE('',*,*,#338,.T.);
#496=ORIENTED_EDGE('',*,*,#362,.T.);
#497=ORIENTED_EDGE('',*,*,#363,.F.);
#498=ORIENTED_EDGE('',*,*,#361,.T.);
#499=ORIENTED_EDGE('',*,*,#337,.F.);
#500=ORIENTED_EDGE('',*,*,#364,.F.);
#501=ORIENTED_EDGE('',*,*,#365,.F.);
#502=ORIENTED_EDGE('',*,*,#362,.F.);
#503=ORIENTED_EDGE('',*,*,#366,.F.);
#504=ORIENTED_EDGE('',*,*,#364,.T.);
#505=ORIENTED_EDGE('',*,*,#336,.T.);
#506=ORIENTED_EDGE('',*,*,#367,.T.);
#507=ORIENTED_EDGE('',*,*,#368,.F.);
#508=ORIENTED_EDGE('',*,*,#367,.F.);
#509=ORIENTED_EDGE('',*,*,#335,.F.);
#510=ORIENTED_EDGE('',*,*,#347,.F.);
#511=ORIENTED_EDGE('',*,*,#366,.T.);
#512=ORIENTED_EDGE('',*,*,#368,.T.);
#513=ORIENTED_EDGE('',*,*,#346,.T.);
#514=ORIENTED_EDGE('',*,*,#349,.T.);
#515=ORIENTED_EDGE('',*,*,#351,.T.);
#516=ORIENTED_EDGE('',*,*,#353,.T.);
#517=ORIENTED_EDGE('',*,*,#355,.T.);
#518=ORIENTED_EDGE('',*,*,#356,.T.);
#519=ORIENTED_EDGE('',*,*,#359,.T.);
#520=ORIENTED_EDGE('',*,*,#360,.T.);
#521=ORIENTED_EDGE('',*,*,#363,.T.);
#522=ORIENTED_EDGE('',*,*,#365,.T.);
#523=PLANE('',#580);
#524=PLANE('',#581);
#525=PLANE('',#597);
#526=PLANE('',#599);
#527=PLANE('',#603);
#528=PLANE('',#604);
#529=PLANE('',#611);
#530=PLANE('',#620);
#531=PLANE('',#621);
#532=PLANE('',#622);
#533=PLANE('',#626);
#534=PLANE('',#629);
#535=PLANE('',#632);
#536=PLANE('',#634);
#537=PLANE('',#635);
#538=ADVANCED_FACE('',(#73),#523,.F.);
#539=ADVANCED_FACE('',(#74),#524,.F.);
#540=ADVANCED_FACE('',(#75),#61,.F.);
#541=ADVANCED_FACE('',(#76),#62,.F.);
#542=ADVANCED_FACE('',(#77),#63,.F.);
#543=ADVANCED_FACE('',(#78),#64,.F.);
#544=ADVANCED_FACE('',(#79),#65,.F.);
#545=ADVANCED_FACE('',(#80,#16,#17,#18,#19,#20),#525,.F.);
#546=ADVANCED_FACE('',(#81,#21,#22,#23),#526,.F.);
#547=ADVANCED_FACE('',(#82),#527,.F.);
#548=ADVANCED_FACE('',(#83),#528,.F.);
#549=ADVANCED_FACE('',(#84),#66,.F.);
#550=ADVANCED_FACE('',(#85),#67,.F.);
#551=ADVANCED_FACE('',(#86),#68,.F.);
#552=ADVANCED_FACE('',(#87),#529,.F.);
#553=ADVANCED_FACE('',(#88),#69,.T.);
#554=ADVANCED_FACE('',(#89,#24,#25,#26,#27,#28),#530,.T.);
#555=ADVANCED_FACE('',(#90),#531,.F.);
#556=ADVANCED_FACE('',(#91,#29,#30,#31),#532,.T.);
#557=ADVANCED_FACE('',(#92),#70,.F.);
#558=ADVANCED_FACE('',(#93),#533,.F.);
#559=ADVANCED_FACE('',(#94),#71,.T.);
#560=ADVANCED_FACE('',(#95),#534,.F.);
#561=ADVANCED_FACE('',(#96),#72,.T.);
#562=ADVANCED_FACE('',(#97),#535,.F.);
#563=ADVANCED_FACE('',(#98),#15,.F.);
#564=ADVANCED_FACE('',(#99),#536,.F.);
#565=ADVANCED_FACE('',(#100),#537,.T.);
#566=CLOSED_SHELL('',(#538,#539,#540,#541,#542,#543,#544,#545,#546,#547,
#548,#549,#550,#551,#552,#553,#554,#555,#556,#557,#558,#559,#560,#561,#562,
#563,#564,#565));
#567=DERIVED_UNIT_ELEMENT(#569,1.);
#568=DERIVED_UNIT_ELEMENT(#971,-3.);
#569=(
MASS_UNIT()
NAMED_UNIT(*)
SI_UNIT(.KILO.,.GRAM.)
);
#570=DERIVED_UNIT((#567,#568));
#571=MEASURE_REPRESENTATION_ITEM('density measure',
POSITIVE_RATIO_MEASURE(2700.),#570);
#572=PROPERTY_DEFINITION_REPRESENTATION(#577,#574);
#573=PROPERTY_DEFINITION_REPRESENTATION(#578,#575);
#574=REPRESENTATION('material name',(#576),#966);
#575=REPRESENTATION('density',(#571),#966);
#576=DESCRIPTIVE_REPRESENTATION_ITEM('ALU','ALU');
#577=PROPERTY_DEFINITION('material property','material name',#979);
#578=PROPERTY_DEFINITION('material property','density of part',#979);
#579=AXIS2_PLACEMENT_3D('',#798,#636,#637);
#580=AXIS2_PLACEMENT_3D('',#799,#638,#639);
#581=AXIS2_PLACEMENT_3D('',#808,#644,#645);
#582=AXIS2_PLACEMENT_3D('',#814,#649,#650);
#583=AXIS2_PLACEMENT_3D('',#816,#651,#652);
#584=AXIS2_PLACEMENT_3D('',#819,#654,#655);
#585=AXIS2_PLACEMENT_3D('',#820,#656,#657);
#586=AXIS2_PLACEMENT_3D('',#822,#658,#659);
#587=AXIS2_PLACEMENT_3D('',#825,#661,#662);
#588=AXIS2_PLACEMENT_3D('',#826,#663,#664);
#589=AXIS2_PLACEMENT_3D('',#828,#665,#666);
#590=AXIS2_PLACEMENT_3D('',#831,#668,#669);
#591=AXIS2_PLACEMENT_3D('',#832,#670,#671);
#592=AXIS2_PLACEMENT_3D('',#834,#672,#673);
#593=AXIS2_PLACEMENT_3D('',#837,#675,#676);
#594=AXIS2_PLACEMENT_3D('',#838,#677,#678);
#595=AXIS2_PLACEMENT_3D('',#840,#679,#680);
#596=AXIS2_PLACEMENT_3D('',#843,#682,#683);
#597=AXIS2_PLACEMENT_3D('',#844,#684,#685);
#598=AXIS2_PLACEMENT_3D('',#849,#688,#689);
#599=AXIS2_PLACEMENT_3D('',#850,#690,#691);
#600=AXIS2_PLACEMENT_3D('',#860,#696,#697);
#601=AXIS2_PLACEMENT_3D('',#862,#698,#699);
#602=AXIS2_PLACEMENT_3D('',#864,#700,#701);
#603=AXIS2_PLACEMENT_3D('',#865,#702,#703);
#604=AXIS2_PLACEMENT_3D('',#871,#707,#708);
#605=AXIS2_PLACEMENT_3D('',#875,#711,#712);
#606=AXIS2_PLACEMENT_3D('',#877,#713,#714);
#607=AXIS2_PLACEMENT_3D('',#879,#716,#717);
#608=AXIS2_PLACEMENT_3D('',#881,#718,#719);
#609=AXIS2_PLACEMENT_3D('',#883,#721,#722);
#610=AXIS2_PLACEMENT_3D('',#885,#723,#724);
#611=AXIS2_PLACEMENT_3D('',#887,#726,#727);
#612=AXIS2_PLACEMENT_3D('',#892,#729,#730);
#613=AXIS2_PLACEMENT_3D('',#896,#732,#733);
#614=AXIS2_PLACEMENT_3D('',#900,#735,#736);
#615=AXIS2_PLACEMENT_3D('',#903,#738,#739);
#616=AXIS2_PLACEMENT_3D('',#905,#741,#742);
#617=AXIS2_PLACEMENT_3D('',#906,#743,#744);
#618=AXIS2_PLACEMENT_3D('',#908,#745,#746);
#619=AXIS2_PLACEMENT_3D('',#910,#747,#748);
#620=AXIS2_PLACEMENT_3D('',#912,#750,#751);
#621=AXIS2_PLACEMENT_3D('',#916,#754,#755);
#622=AXIS2_PLACEMENT_3D('',#920,#758,#759);
#623=AXIS2_PLACEMENT_3D('',#922,#760,#761);
#624=AXIS2_PLACEMENT_3D('',#924,#763,#764);
#625=AXIS2_PLACEMENT_3D('',#927,#766,#767);
#626=AXIS2_PLACEMENT_3D('',#928,#768,#769);
#627=AXIS2_PLACEMENT_3D('',#932,#772,#773);
#628=AXIS2_PLACEMENT_3D('',#935,#775,#776);
#629=AXIS2_PLACEMENT_3D('',#936,#777,#778);
#630=AXIS2_PLACEMENT_3D('',#940,#781,#782);
#631=AXIS2_PLACEMENT_3D('',#943,#784,#785);
#632=AXIS2_PLACEMENT_3D('',#944,#786,#787);
#633=AXIS2_PLACEMENT_3D('',#959,#790,#791);
#634=AXIS2_PLACEMENT_3D('',#961,#793,#794);
#635=AXIS2_PLACEMENT_3D('',#963,#796,#797);
#636=DIRECTION('axis',(0.,0.,1.));
#637=DIRECTION('refdir',(1.,0.,0.));
#638=DIRECTION('center_axis',(3.42260430575226E-14,-0.798635510047341,-0.601815023151985));
#639=DIRECTION('ref_axis',(-1.,0.,-5.6871367016172E-14));
#640=DIRECTION('',(-2.29520576409608E-14,0.601815023151987,-0.798635510047339));
#641=DIRECTION('',(1.,0.,0.));
#642=DIRECTION('',(-2.29446901542548E-14,0.601815023151965,-0.798635510047355));
#643=DIRECTION('',(-0.995708210528372,-0.0556968651420629,0.0739122364682143));
#644=DIRECTION('center_axis',(4.10287144008463E-14,-1.,9.94710012273655E-29));
#645=DIRECTION('ref_axis',(0.,-9.94710012273655E-29,-1.));
#646=DIRECTION('',(1.,0.,0.));
#647=DIRECTION('',(-2.41908232659203E-15,0.,1.));
#648=DIRECTION('',(-2.58035448169816E-15,0.,1.));
#649=DIRECTION('center_axis',(1.,3.97359708169304E-14,0.));
#650=DIRECTION('ref_axis',(-3.97359708169304E-14,1.,0.));
#651=DIRECTION('center_axis',(1.,3.97359708169304E-14,0.));
#652=DIRECTION('ref_axis',(-3.97359708169304E-14,1.,0.));
#653=DIRECTION('',(1.,3.97359708169304E-14,0.));
#654=DIRECTION('center_axis',(1.,3.97359708169304E-14,0.));
#655=DIRECTION('ref_axis',(-3.97359708169304E-14,1.,0.));
#656=DIRECTION('center_axis',(1.,3.97359708169304E-14,0.));
#657=DIRECTION('ref_axis',(-3.97359708169304E-14,1.,0.));
#658=DIRECTION('center_axis',(1.,3.97359708169304E-14,0.));
#659=DIRECTION('ref_axis',(-3.97359708169304E-14,1.,0.));
#660=DIRECTION('',(1.,3.97359708169304E-14,0.));
#661=DIRECTION('center_axis',(1.,3.97359708169304E-14,0.));
#662=DIRECTION('ref_axis',(-3.97359708169304E-14,1.,0.));
#663=DIRECTION('center_axis',(1.,3.97359708169308E-14,0.));
#664=DIRECTION('ref_axis',(-3.97359708169308E-14,1.,0.));
#665=DIRECTION('center_axis',(1.,3.97359708169308E-14,0.));
#666=DIRECTION('ref_axis',(-3.97359708169308E-14,1.,0.));
#667=DIRECTION('',(1.,3.97359708169308E-14,0.));
#668=DIRECTION('center_axis',(1.,3.97359708169308E-14,0.));
#669=DIRECTION('ref_axis',(-3.97359708169308E-14,1.,0.));
#670=DIRECTION('center_axis',(1.,3.97359708169308E-14,0.));
#671=DIRECTION('ref_axis',(-3.97359708169308E-14,1.,0.));
#672=DIRECTION('center_axis',(1.,3.97359708169308E-14,0.));
#673=DIRECTION('ref_axis',(-3.97359708169308E-14,1.,0.));
#674=DIRECTION('',(1.,3.97359708169308E-14,0.));
#675=DIRECTION('center_axis',(1.,3.97359708169308E-14,0.));
#676=DIRECTION('ref_axis',(-3.97359708169308E-14,1.,0.));
#677=DIRECTION('center_axis',(1.,3.97359708169308E-14,0.));
#678=DIRECTION('ref_axis',(-3.97359708169308E-14,1.,0.));
#679=DIRECTION('center_axis',(1.,3.97359708169308E-14,0.));
#680=DIRECTION('ref_axis',(-3.97359708169308E-14,1.,0.));
#681=DIRECTION('',(1.,3.97359708169308E-14,0.));
#682=DIRECTION('center_axis',(1.,3.97359708169308E-14,0.));
#683=DIRECTION('ref_axis',(-3.97359708169308E-14,1.,0.));
#684=DIRECTION('center_axis',(-1.,-4.10287144008463E-14,-2.42442403277724E-15));
#685=DIRECTION('ref_axis',(-2.42442403277724E-15,0.,1.));
#686=DIRECTION('',(-2.25481048729982E-15,0.,1.));
#687=DIRECTION('',(0.,1.,-5.26571735625829E-15));
#688=DIRECTION('center_axis',(-1.,-4.10287144008463E-14,-2.42442403277724E-15));
#689=DIRECTION('ref_axis',(2.27554655830534E-14,-0.601815023151986,0.79863551004734));
#690=DIRECTION('center_axis',(-1.,-4.0790651191039E-32,-2.42442403277724E-15));
#691=DIRECTION('ref_axis',(-2.42442403277724E-15,0.,1.));
#692=DIRECTION('',(0.,0.,1.));
#693=DIRECTION('',(0.,1.,0.));
#694=DIRECTION('',(-2.44773580232318E-15,0.,1.));
#695=DIRECTION('',(0.,1.,0.));
#696=DIRECTION('center_axis',(1.,0.,0.));
#697=DIRECTION('ref_axis',(0.,0.,-1.));
#698=DIRECTION('center_axis',(1.,0.,0.));
#699=DIRECTION('ref_axis',(0.,0.,-1.));
#700=DIRECTION('center_axis',(1.,0.,0.));
#701=DIRECTION('ref_axis',(0.,0.,-1.));
#702=DIRECTION('center_axis',(-4.0790651191039E-32,1.,-9.88938350601886E-47));
#703=DIRECTION('ref_axis',(0.,9.88938350601886E-47,1.));
#704=DIRECTION('',(-1.,0.,0.));
#705=DIRECTION('',(-2.44773580232318E-15,0.,1.));
#706=DIRECTION('',(1.,0.,0.));
#707=DIRECTION('center_axis',(2.42442403277724E-15,9.88938350601886E-47,
-1.));
#708=DIRECTION('ref_axis',(-1.,0.,-2.42442403277724E-15));
#709=DIRECTION('',(0.,1.,0.));
#710=DIRECTION('',(0.984957024770539,0.172799477300044,0.));
#711=DIRECTION('center_axis',(1.,0.,0.));
#712=DIRECTION('ref_axis',(0.,0.,-1.));
#713=DIRECTION('center_axis',(1.,0.,0.));
#714=DIRECTION('ref_axis',(0.,0.,-1.));
#715=DIRECTION('',(1.,0.,0.));
#716=DIRECTION('center_axis',(1.,0.,0.));
#717=DIRECTION('ref_axis',(0.,0.,-1.));
#718=DIRECTION('center_axis',(1.,0.,0.));
#719=DIRECTION('ref_axis',(0.,0.,-1.));
#720=DIRECTION('',(1.,0.,0.));
#721=DIRECTION('center_axis',(1.,0.,0.));
#722=DIRECTION('ref_axis',(0.,0.,-1.));
#723=DIRECTION('center_axis',(1.,0.,0.));
#724=DIRECTION('ref_axis',(0.,0.,-1.));
#725=DIRECTION('',(1.,0.,0.));
#726=DIRECTION('center_axis',(-0.984957024773253,-0.172799477284575,-2.38795348211304E-15));
#727=DIRECTION('ref_axis',(-2.42442403277724E-15,0.,1.));
#728=DIRECTION('',(0.146160865656875,-0.83311693783995,-0.533435253085712));
#729=DIRECTION('center_axis',(0.984957024773312,0.172799477284235,-1.42460453522348E-12));
#730=DIRECTION('ref_axis',(0.172799477284235,-0.984957024773312,-1.29813041801367E-10));
#731=DIRECTION('',(0.0367783754794002,-0.209636741138163,0.977087400318962));
#732=DIRECTION('center_axis',(-0.984957024773253,-0.172799477284575,-2.38795348211304E-15));
#733=DIRECTION('ref_axis',(0.172799477284575,-0.984957024773253,0.));
#734=DIRECTION('',(0.172799477284599,-0.984957024773248,0.));
#735=DIRECTION('center_axis',(-0.984957024773253,-0.172799477284575,-2.38795348211304E-15));
#736=DIRECTION('ref_axis',(0.172799477284575,-0.984957024773253,0.));
#737=DIRECTION('',(0.,0.,1.));
#738=DIRECTION('center_axis',(-0.984957024773253,-0.172799477284575,-2.38795348211304E-15));
#739=DIRECTION('ref_axis',(0.172799477284575,-0.984957024773253,0.));
#740=DIRECTION('',(-0.172799477284569,0.984957024773254,0.));
#741=DIRECTION('center_axis',(-0.984957024773253,-0.172799477284575,-2.38795348211304E-15));
#742=DIRECTION('ref_axis',(-0.146160865656866,0.833116937839948,0.533435253085718));
#743=DIRECTION('center_axis',(-0.995708210528336,-0.0556968651427743,0.0739122364681644));
#744=DIRECTION('ref_axis',(0.0740271469704956,0.,0.997256226609495));
#745=DIRECTION('center_axis',(-1.,-4.10287144008463E-14,-2.42442403277724E-15));
#746=DIRECTION('ref_axis',(2.27554655830534E-14,-0.601815023151986,0.79863551004734));
#747=DIRECTION('center_axis',(-0.984957024773253,-0.172799477284575,-2.38795348211304E-15));
#748=DIRECTION('ref_axis',(-0.146160865656866,0.833116937839948,0.533435253085718));
#749=DIRECTION('',(0.995708210528313,0.0556968651452493,-0.073912236466617));
#750=DIRECTION('center_axis',(-1.,-4.10287144008463E-14,-2.42442403277724E-15));
#751=DIRECTION('ref_axis',(-2.42442403277724E-15,0.,1.));
#752=DIRECTION('',(0.,1.,-5.26312999110766E-15));
#753=DIRECTION('',(-2.25449892546618E-15,0.,1.));
#754=DIRECTION('center_axis',(-2.42442403277724E-15,9.34545785299626E-16,
1.));
#755=DIRECTION('ref_axis',(1.,0.,2.42442403277724E-15));
#756=DIRECTION('',(0.,1.,0.));
#757=DIRECTION('',(0.172799477284575,-0.984957024773253,0.));
#758=DIRECTION('center_axis',(-1.,-4.0790651191039E-32,-2.42442403277724E-15));
#759=DIRECTION('ref_axis',(-2.42442403277724E-15,0.,1.));
#760=DIRECTION('center_axis',(-1.,-4.0790651191039E-32,-2.42442403277724E-15));
#761=DIRECTION('ref_axis',(4.07906511910058E-32,-1.,1.36955432554094E-29));
#762=DIRECTION('',(-2.33117525855241E-15,0.,1.));
#763=DIRECTION('center_axis',(-0.984957024773253,-0.172799477284575,-2.38795348211304E-15));
#764=DIRECTION('ref_axis',(0.172799477284575,-0.984957024773253,0.));
#765=DIRECTION('',(-0.984957024773361,-0.172799477283959,0.));
#766=DIRECTION('center_axis',(-0.984957024773253,-0.172799477284575,-2.38795348211304E-15));
#767=DIRECTION('ref_axis',(0.172799477284575,-0.984957024773253,0.));
#768=DIRECTION('center_axis',(-0.172799477284575,0.984957024773253,-4.1893920558007E-16));
#769=DIRECTION('ref_axis',(0.,4.25337547774243E-16,1.));
#770=DIRECTION('',(-1.18108496613833E-15,0.,1.));
#771=DIRECTION('',(-0.984957024772991,-0.172799477286066,0.));
#772=DIRECTION('center_axis',(-0.984957024773253,-0.172799477284575,-2.38795348211304E-15));
#773=DIRECTION('ref_axis',(0.172799477284575,-0.984957024773253,0.));
#774=DIRECTION('',(-0.984957024772018,-0.172799477291613,0.));
#775=DIRECTION('center_axis',(-0.984957024773253,-0.172799477284575,-2.38795348211304E-15));
#776=DIRECTION('ref_axis',(0.172799477284575,-0.984957024773253,0.));
#777=DIRECTION('center_axis',(2.35203155703899E-15,4.12637113489015E-16,
-1.));
#778=DIRECTION('ref_axis',(-1.,0.,-2.35203155703899E-15));
#779=DIRECTION('',(0.172799477284574,-0.984957024773253,0.));
#780=DIRECTION('',(-0.984957024773244,-0.172799477284624,0.));
#781=DIRECTION('center_axis',(-0.984957024773253,-0.172799477284575,-2.38795348211304E-15));
#782=DIRECTION('ref_axis',(0.172799477284575,-0.984957024773253,0.));
#783=DIRECTION('',(-0.984957024773209,-0.172799477284822,-8.39223703658222E-12));
#784=DIRECTION('center_axis',(-0.984957024773253,-0.172799477284575,-2.38795348211304E-15));
#785=DIRECTION('ref_axis',(0.172799477284575,-0.984957024773253,0.));
#786=DIRECTION('center_axis',(0.168840192036462,-0.962389098761596,-0.212838464892826));
#787=DIRECTION('ref_axis',(0.,0.215938600505535,-0.976406944266432));
#788=DIRECTION('',(0.9849570247721,0.172799477291146,0.));
#789=DIRECTION('',(-0.0367783754795167,0.209636741138086,-0.977087400318974));
#790=DIRECTION('center_axis',(0.984957024773176,0.172799477285013,4.39329534604329E-13));
#791=DIRECTION('ref_axis',(0.172799477285013,-0.984957024773176,6.86675873685501E-10));
#792=DIRECTION('',(-0.984957024772384,-0.172799477289526,-3.72988312735064E-12));
#793=DIRECTION('center_axis',(-0.092177332898375,0.525410799788475,-0.845840901568006));
#794=DIRECTION('ref_axis',(-0.994114362008188,0.,0.108335752404516));
#795=DIRECTION('',(-0.146160865656857,0.833116937839896,0.533435253085802));
#796=DIRECTION('center_axis',(-0.984957024773253,-0.172799477284575,-2.38795348211304E-15));
#797=DIRECTION('ref_axis',(-2.42442403277724E-15,0.,1.));
#798=CARTESIAN_POINT('',(0.,0.,0.));
#799=CARTESIAN_POINT('Origin',(10.5,233.200000024602,120.308806027026));
#800=CARTESIAN_POINT('',(10.5000000000001,231.269071512506,122.871234709922));
#801=CARTESIAN_POINT('',(10.5,235.450000024602,117.322955178379));
#802=CARTESIAN_POINT('',(10.5000000000001,231.269071512506,122.871234709922));
#803=CARTESIAN_POINT('',(10.476,235.450000024602,117.322955178379));
#804=CARTESIAN_POINT('',(10.476,235.450000024602,117.322955178379));
#805=CARTESIAN_POINT('',(10.4760000000001,231.267729026074,122.873016249591));
#806=CARTESIAN_POINT('',(10.4760000000001,231.267729026074,122.873016249591));
#807=CARTESIAN_POINT('',(10.5000000000001,231.269071512506,122.871234709922));
#808=CARTESIAN_POINT('Origin',(10.5,235.450000024602,113.152358191892));
#809=CARTESIAN_POINT('',(10.476,235.450000024602,108.65));
#810=CARTESIAN_POINT('',(10.5,235.450000024602,108.65));
#811=CARTESIAN_POINT('',(10.476,235.450000024602,108.65));
#812=CARTESIAN_POINT('',(10.476,235.450000024602,108.65));
#813=CARTESIAN_POINT('',(10.5,235.450000024602,108.65));
#814=CARTESIAN_POINT('Origin',(10.4760000000001,231.64342217697,121.543634528613));
#815=CARTESIAN_POINT('',(10.4760000000001,231.54842217697,121.543634528613));
#816=CARTESIAN_POINT('Origin',(10.4760000000001,231.64342217697,121.543634528613));
#817=CARTESIAN_POINT('',(10.5000000000001,231.54842217697,121.543634528613));
#818=CARTESIAN_POINT('',(10.4760000000001,231.54842217697,121.543634528613));
#819=CARTESIAN_POINT('Origin',(10.5000000000001,231.64342217697,121.543634528613));
#820=CARTESIAN_POINT('Origin',(10.4760000000001,233.14795973485,119.547045753495));
#821=CARTESIAN_POINT('',(10.476,233.05295973485,119.547045753495));
#822=CARTESIAN_POINT('Origin',(10.476,233.14795973485,119.547045753495));
#823=CARTESIAN_POINT('',(10.5000000000001,233.05295973485,119.547045753495));
#824=CARTESIAN_POINT('',(10.4760000000001,233.05295973485,119.547045753495));
#825=CARTESIAN_POINT('Origin',(10.5000000000001,233.14795973485,119.547045753495));
#826=CARTESIAN_POINT('Origin',(10.476,234.950000020336,116.395514799868));
#827=CARTESIAN_POINT('',(10.476,234.855000020336,116.395514799868));
#828=CARTESIAN_POINT('Origin',(10.476,234.950000020336,116.395514799868));
#829=CARTESIAN_POINT('',(10.5,234.855000020336,116.395514799868));
#830=CARTESIAN_POINT('',(10.476,234.855000020336,116.395514799868));
#831=CARTESIAN_POINT('Origin',(10.5,234.950000020336,116.395514799868));
#832=CARTESIAN_POINT('Origin',(10.476,234.950000007088,109.395514799868));
#833=CARTESIAN_POINT('',(10.476,234.855000007088,109.395514799868));
#834=CARTESIAN_POINT('Origin',(10.476,234.950000007088,109.395514799868));
#835=CARTESIAN_POINT('',(10.5,234.855000007088,109.395514799868));
#836=CARTESIAN_POINT('',(10.476,234.855000007088,109.395514799868));
#837=CARTESIAN_POINT('Origin',(10.5,234.950000007088,109.395514799868));
#838=CARTESIAN_POINT('Origin',(10.476,234.950000013712,112.895514799868));
#839=CARTESIAN_POINT('',(10.476,234.855000013712,112.895514799868));
#840=CARTESIAN_POINT('Origin',(10.476,234.950000013712,112.895514799868));
#841=CARTESIAN_POINT('',(10.5,234.855000013712,112.895514799868));
#842=CARTESIAN_POINT('',(10.476,234.855000013712,112.895514799868));
#843=CARTESIAN_POINT('Origin',(10.5,234.950000013712,112.895514799868));
#844=CARTESIAN_POINT('Origin',(10.5,235.200000024602,108.65));
#845=CARTESIAN_POINT('',(10.5,231.200000024602,122.91738173988));
#846=CARTESIAN_POINT('',(10.5,231.200000024602,108.65));
#847=CARTESIAN_POINT('',(10.5,231.200000024602,108.65));
#848=CARTESIAN_POINT('',(10.5,231.200000024602,108.65));
#849=CARTESIAN_POINT('Origin',(10.5000000000001,231.16924207375,122.796007832028));
#850=CARTESIAN_POINT('Origin',(11.5,225.5,108.65));
#851=CARTESIAN_POINT('',(11.5,224.25,120.65));
#852=CARTESIAN_POINT('',(11.5,224.25,108.65));
#853=CARTESIAN_POINT('',(11.5,224.25,108.65));
#854=CARTESIAN_POINT('',(11.5,225.5,108.65));
#855=CARTESIAN_POINT('',(11.5,224.25,108.65));
#856=CARTESIAN_POINT('',(11.5,225.5,120.65));
#857=CARTESIAN_POINT('',(11.5,225.5,108.65));
#858=CARTESIAN_POINT('',(11.5,224.25,120.65));
#859=CARTESIAN_POINT('',(11.5,224.75,109.495));
#860=CARTESIAN_POINT('Origin',(11.5,224.75,109.4));
#861=CARTESIAN_POINT('',(11.5,224.75,114.495));
#862=CARTESIAN_POINT('Origin',(11.5,224.75,114.4));
#863=CARTESIAN_POINT('',(11.5,224.75,119.495));
#864=CARTESIAN_POINT('Origin',(11.5,224.75,119.4));
#865=CARTESIAN_POINT('Origin',(11.5,224.25,114.65));
#866=CARTESIAN_POINT('',(11.476,224.25,120.65));
#867=CARTESIAN_POINT('',(11.5,224.25,120.65));
#868=CARTESIAN_POINT('',(11.476,224.25,108.65));
#869=CARTESIAN_POINT('',(11.476,224.25,108.65));
#870=CARTESIAN_POINT('',(11.476,224.25,108.65));
#871=CARTESIAN_POINT('Origin',(11.5,225.,120.65));
#872=CARTESIAN_POINT('',(11.476,225.495789473702,120.65));
#873=CARTESIAN_POINT('',(11.476,224.25,120.65));
#874=CARTESIAN_POINT('',(11.476,225.495789473702,120.65));
#875=CARTESIAN_POINT('Origin',(11.476,224.75,119.4));
#876=CARTESIAN_POINT('',(11.476,224.75,119.495));
#877=CARTESIAN_POINT('Origin',(11.476,224.75,119.4));
#878=CARTESIAN_POINT('',(11.476,224.75,119.495));
#879=CARTESIAN_POINT('Origin',(11.476,224.75,114.4));
#880=CARTESIAN_POINT('',(11.476,224.75,114.495));
#881=CARTESIAN_POINT('Origin',(11.476,224.75,114.4));
#882=CARTESIAN_POINT('',(11.476,224.75,114.495));
#883=CARTESIAN_POINT('Origin',(11.476,224.75,109.4));
#884=CARTESIAN_POINT('',(11.476,224.75,109.495));
#885=CARTESIAN_POINT('Origin',(11.476,224.75,109.4));
#886=CARTESIAN_POINT('',(11.476,224.75,109.495));
#887=CARTESIAN_POINT('Origin',(10.5,231.200000024602,108.65));
#888=CARTESIAN_POINT('',(10.5168658580163,231.103864633494,122.901341278132));
#889=CARTESIAN_POINT('',(11.0051269403507,228.320776452176,121.119361725285));
#890=CARTESIAN_POINT('',(10.5168658580163,231.103864633494,122.901341278132));
#891=CARTESIAN_POINT('',(11.0586071396203,228.015939315024,121.246439385969));
#892=CARTESIAN_POINT('Origin',(11.0241370881535,228.212418609234,121.288594549289));
#893=CARTESIAN_POINT('',(11.0911446497593,227.83047550643,122.11086014355));
#894=CARTESIAN_POINT('',(11.0586071396204,228.015939315024,121.246439385969));
#895=CARTESIAN_POINT('',(11.1122496737639,227.710176869085,122.209255335439));
#896=CARTESIAN_POINT('Origin',(11.1122496737639,227.710176869085,122.084255335439));
#897=CARTESIAN_POINT('',(11.4352001960183,225.86935888429,122.209255335439));
#898=CARTESIAN_POINT('',(11.1122496737639,227.710176869085,122.209255335439));
#899=CARTESIAN_POINT('',(11.4568001306789,225.746239256193,122.084255335439));
#900=CARTESIAN_POINT('Origin',(11.4352001960183,225.86935888429,122.084255335439));
#901=CARTESIAN_POINT('',(11.4568001306789,225.746239256193,120.9));
#902=CARTESIAN_POINT('',(11.4568001306789,225.746239256193,120.9));
#903=CARTESIAN_POINT('Origin',(11.5000000000001,225.499999999999,120.9));
#904=CARTESIAN_POINT('',(11.5,225.5,108.65));
#905=CARTESIAN_POINT('Origin',(10.505343691404,231.169540983467,122.795611165436));
#906=CARTESIAN_POINT('Origin',(10.7617453439091,231.183883305958,122.776578260645));
#907=CARTESIAN_POINT('',(10.4760000000002,231.197910716166,122.919353429272));
#908=CARTESIAN_POINT('Origin',(10.4760000000001,231.167899587318,122.797789371697));
#909=CARTESIAN_POINT('',(10.4927361098958,231.102514889349,122.90313244911));
#910=CARTESIAN_POINT('Origin',(10.4812139432835,231.168191239323,122.797402336414));
#911=CARTESIAN_POINT('',(10.4927361098958,231.102514889349,122.90313244911));
#912=CARTESIAN_POINT('Origin',(10.476,235.200000024602,108.65));
#913=CARTESIAN_POINT('',(10.4760000000001,231.197910716166,108.65));
#914=CARTESIAN_POINT('',(10.476,231.197910716166,108.65));
#915=CARTESIAN_POINT('',(10.4760000000002,231.197910716166,108.65));
#916=CARTESIAN_POINT('Origin',(11.5,225.,108.65));
#917=CARTESIAN_POINT('',(11.4760000000001,225.497910691565,108.65));
#918=CARTESIAN_POINT('',(11.476,224.25,108.65));
#919=CARTESIAN_POINT('',(10.4760000000002,231.197910716166,108.65));
#920=CARTESIAN_POINT('Origin',(11.476,225.5,108.65));
#921=CARTESIAN_POINT('',(11.476,225.497910691565,120.650008730572));
#922=CARTESIAN_POINT('Origin',(11.476,225.495789473702,120.9));
#923=CARTESIAN_POINT('',(11.4760000000001,225.497910691565,108.65));
#924=CARTESIAN_POINT('Origin',(11.4574499852428,225.492535085162,120.9));
#925=CARTESIAN_POINT('',(11.4331611620844,225.742092068738,120.9));
#926=CARTESIAN_POINT('',(11.4568001306789,225.746239256193,120.9));
#927=CARTESIAN_POINT('Origin',(11.4763610314055,225.495852812545,120.9));
#928=CARTESIAN_POINT('Origin',(11.4568001306788,225.746239256193,121.429627667719));
#929=CARTESIAN_POINT('',(11.4331611620844,225.742092068738,122.084255335439));
#930=CARTESIAN_POINT('',(11.4331611620844,225.742092068738,120.9));
#931=CARTESIAN_POINT('',(11.4568001306788,225.746239256193,122.084255335439));
#932=CARTESIAN_POINT('Origin',(11.4352001960183,225.86935888429,122.084255335439));
#933=CARTESIAN_POINT('',(11.4115612274238,225.865211696835,122.209255335439));
#934=CARTESIAN_POINT('',(11.4352001960183,225.86935888429,122.209255335439));
#935=CARTESIAN_POINT('Origin',(11.4115612274238,225.865211696835,122.084255335439));
#936=CARTESIAN_POINT('Origin',(11.2974241629607,226.654682276108,122.209255335439));
#937=CARTESIAN_POINT('',(11.0886107051695,227.70602968163,122.209255335439));
#938=CARTESIAN_POINT('',(11.0886107051694,227.70602968163,122.209255335439));
#939=CARTESIAN_POINT('',(11.1122496737639,227.710176869085,122.209255335439));
#940=CARTESIAN_POINT('Origin',(11.1122496737639,227.710176869085,122.084255335439));
#941=CARTESIAN_POINT('',(11.0675056811648,227.826328318976,122.11086014355));
#942=CARTESIAN_POINT('',(11.0911446497593,227.830475506431,122.11086014355));
#943=CARTESIAN_POINT('Origin',(11.0886107051695,227.70602968163,122.084255335439));
#944=CARTESIAN_POINT('Origin',(11.0767277327708,227.91265193362,121.727847360704));
#945=CARTESIAN_POINT('',(11.0349681710257,228.011792127569,121.246439385969));
#946=CARTESIAN_POINT('',(11.0349681710257,228.011792127569,121.246439385969));
#947=CARTESIAN_POINT('',(11.0675056811647,227.826328318976,122.11086014355));
#948=CARTESIAN_POINT('Ctrl Pts',(11.0051269403507,228.320776452176,121.119361725285));
#949=CARTESIAN_POINT('Ctrl Pts',(10.9767601780349,228.31579982723,121.119361725285));
#950=CARTESIAN_POINT('Ctrl Pts',(11.0206685430914,228.232189316172,121.062640394619));
#951=CARTESIAN_POINT('Ctrl Pts',(10.9923017807756,228.227212691226,121.062640394619));
#952=CARTESIAN_POINT('Ctrl Pts',(11.0377021683986,228.135097651501,121.103115061628));
#953=CARTESIAN_POINT('Ctrl Pts',(11.0093354060828,228.130121026555,121.103115061628));
#954=CARTESIAN_POINT('Ctrl Pts',(11.0547357937058,228.038005986831,121.143589728637));
#955=CARTESIAN_POINT('Ctrl Pts',(11.02636903139,228.033029361885,121.143589728637));
#956=CARTESIAN_POINT('Ctrl Pts',(11.0586071396203,228.015939315024,121.246439385969));
#957=CARTESIAN_POINT('Ctrl Pts',(11.0302403773045,228.010962690078,121.246439385969));
#958=CARTESIAN_POINT('',(10.9814879717562,228.316629264721,121.119361725285));
#959=CARTESIAN_POINT('Origin',(11.0004981195592,228.208271421775,121.288594549281));
#960=CARTESIAN_POINT('',(11.0051269403507,228.320776452176,121.119361725285));
#961=CARTESIAN_POINT('Origin',(10.7525634701753,229.760388238389,122.041128697776));
#962=CARTESIAN_POINT('',(10.9814879717562,228.316629264721,121.119361725285));
#963=CARTESIAN_POINT('Origin',(10.4763610314055,231.195852837147,108.65));
#964=UNCERTAINTY_MEASURE_WITH_UNIT(LENGTH_MEASURE(0.000393700787401575),
#969,'DISTANCE_ACCURACY_VALUE',
'Maximum model space distance between geometric entities at asserted c
onnectivities');
#965=UNCERTAINTY_MEASURE_WITH_UNIT(LENGTH_MEASURE(0.000393700787401575),
#969,'DISTANCE_ACCURACY_VALUE',
'Maximum model space distance between geometric entities at asserted c
onnectivities');
#966=(
GEOMETRIC_REPRESENTATION_CONTEXT(3)
GLOBAL_UNCERTAINTY_ASSIGNED_CONTEXT((#964))
GLOBAL_UNIT_ASSIGNED_CONTEXT((#969,#973,#974))
REPRESENTATION_CONTEXT('','3D')
);
#967=(
GEOMETRIC_REPRESENTATION_CONTEXT(3)
GLOBAL_UNCERTAINTY_ASSIGNED_CONTEXT((#965))
GLOBAL_UNIT_ASSIGNED_CONTEXT((#969,#973,#974))
REPRESENTATION_CONTEXT('','3D')
);
#968=DIMENSIONAL_EXPONENTS(1.,0.,0.,0.,0.,0.,0.);
#969=(
CONVERSION_BASED_UNIT('inch',#972)
LENGTH_UNIT()
NAMED_UNIT(#968)
);
#970=(
LENGTH_UNIT()
NAMED_UNIT(*)
SI_UNIT(.MILLI.,.METRE.)
);
#971=(
LENGTH_UNIT()
NAMED_UNIT(*)
SI_UNIT($,.METRE.)
);
#972=LENGTH_MEASURE_WITH_UNIT(LENGTH_MEASURE(25.4),#970);
#973=(
NAMED_UNIT(*)
PLANE_ANGLE_UNIT()
SI_UNIT($,.RADIAN.)
);
#974=(
NAMED_UNIT(*)
SI_UNIT($,.STERADIAN.)
SOLID_ANGLE_UNIT()
);
#975=SHAPE_DEFINITION_REPRESENTATION(#976,#977);
#976=PRODUCT_DEFINITION_SHAPE('',$,#979);
#977=SHAPE_REPRESENTATION('',(#579),#966);
#978=PRODUCT_DEFINITION_CONTEXT('part definition',#983,'design');
#979=PRODUCT_DEFINITION('OH4A1A1-43',
'OH4A1A1-43 - INBOARD FWD LEFT CONSOLE TRIM',#980,#978);
#980=PRODUCT_DEFINITION_FORMATION('',$,#985);
#981=PRODUCT_RELATED_PRODUCT_CATEGORY(
'OH4A1A1-43 - INBOARD FWD LEFT CONSOLE TRIM',
'OH4A1A1-43 - INBOARD FWD LEFT CONSOLE TRIM',(#985));
#982=APPLICATION_PROTOCOL_DEFINITION('international standard',
'automotive_design',2009,#983);
#983=APPLICATION_CONTEXT(
'Core Data for Automotive Mechanical Design Process');
#984=PRODUCT_CONTEXT('part definition',#983,'mechanical');
#985=PRODUCT('OH4A1A1-43','OH4A1A1-43 - INBOARD FWD LEFT CONSOLE TRIM',
'INBOARD FWD LEFT CONSOLE TRIM',(#984));
#986=PRESENTATION_STYLE_ASSIGNMENT((#988));
#987=PRESENTATION_STYLE_ASSIGNMENT((#989));
#988=SURFACE_STYLE_USAGE(.BOTH.,#990);
#989=SURFACE_STYLE_USAGE(.BOTH.,#991);
#990=SURFACE_SIDE_STYLE('',(#992));
#991=SURFACE_SIDE_STYLE('',(#993));
#992=SURFACE_STYLE_FILL_AREA(#994);
#993=SURFACE_STYLE_FILL_AREA(#995);
#994=FILL_AREA_STYLE('Aluminum - Satin',(#996));
#995=FILL_AREA_STYLE('Paint - Enamel Flat (Dark Gull Grey)',(#997));
#996=FILL_AREA_STYLE_COLOUR('Aluminum - Satin',#998);
#997=FILL_AREA_STYLE_COLOUR('Paint - Enamel Flat (Dark Gull Grey)',#999);
#998=COLOUR_RGB('Aluminum - Satin',0.435294117647059,0.454901960784314,
0.443137254901961);
#999=COLOUR_RGB('Paint - Enamel Flat (Dark Gull Grey)',0.435294117647059,
0.454901960784314,0.443137254901961);
ENDSEC;
END-ISO-10303-21;
