G04 #@! TF.GenerationSoftware,KiCad,Pcbnew,(5.1.6)-1*
G04 #@! TF.CreationDate,2021-08-25T10:51:17+10:00*
G04 #@! TF.ProjectId,MasterModePushbuttonV2,4d617374-6572-44d6-9f64-655075736862,rev?*
G04 #@! TF.SameCoordinates,Original*
G04 #@! TF.FileFunction,Soldermask,Bot*
G04 #@! TF.FilePolarity,Negative*
%FSLAX46Y46*%
G04 Gerber Fmt 4.6, Leading zero omitted, Abs format (unit mm)*
G04 Created by KiCad (PCBNEW (5.1.6)-1) date 2021-08-25 10:51:17*
%MOMM*%
%LPD*%
G01*
G04 APERTURE LIST*
%ADD10O,2.590000X2.140000*%
%ADD11C,4.700000*%
%ADD12O,3.700000X3.100000*%
%ADD13C,1.924000*%
%ADD14C,2.100000*%
G04 APERTURE END LIST*
G36*
G01*
X207820480Y-118307000D02*
X207820480Y-115987000D01*
G75*
G02*
X208110480Y-115697000I290000J0D01*
G01*
X211430480Y-115697000D01*
G75*
G02*
X211720480Y-115987000I0J-290000D01*
G01*
X211720480Y-118307000D01*
G75*
G02*
X211430480Y-118597000I-290000J0D01*
G01*
X208110480Y-118597000D01*
G75*
G02*
X207820480Y-118307000I0J290000D01*
G01*
G37*
G36*
G01*
X201320480Y-118307000D02*
X201320480Y-115987000D01*
G75*
G02*
X201610480Y-115697000I290000J0D01*
G01*
X204930480Y-115697000D01*
G75*
G02*
X205220480Y-115987000I0J-290000D01*
G01*
X205220480Y-118307000D01*
G75*
G02*
X204930480Y-118597000I-290000J0D01*
G01*
X201610480Y-118597000D01*
G75*
G02*
X201320480Y-118307000I0J290000D01*
G01*
G37*
D10*
X231360480Y-94555480D03*
G36*
G01*
X232348010Y-98165480D02*
X230372950Y-98165480D01*
G75*
G02*
X230065480Y-97858010I0J307470D01*
G01*
X230065480Y-96332950D01*
G75*
G02*
X230372950Y-96025480I307470J0D01*
G01*
X232348010Y-96025480D01*
G75*
G02*
X232655480Y-96332950I0J-307470D01*
G01*
X232655480Y-97858010D01*
G75*
G02*
X232348010Y-98165480I-307470J0D01*
G01*
G37*
D11*
X234878380Y-47349580D03*
X214494880Y-81639580D03*
X207890880Y-137075080D03*
D12*
X208296000Y-98447500D03*
X208296000Y-94247500D03*
X202796000Y-98447500D03*
G36*
G01*
X201234300Y-92697500D02*
X204357700Y-92697500D01*
G75*
G02*
X204646000Y-92985800I0J-288300D01*
G01*
X204646000Y-95509200D01*
G75*
G02*
X204357700Y-95797500I-288300J0D01*
G01*
X201234300Y-95797500D01*
G75*
G02*
X200946000Y-95509200I0J288300D01*
G01*
X200946000Y-92985800D01*
G75*
G02*
X201234300Y-92697500I288300J0D01*
G01*
G37*
X208296000Y-109297000D03*
X208296000Y-105097000D03*
X202796000Y-109297000D03*
G36*
G01*
X201234300Y-103547000D02*
X204357700Y-103547000D01*
G75*
G02*
X204646000Y-103835300I0J-288300D01*
G01*
X204646000Y-106358700D01*
G75*
G02*
X204357700Y-106647000I-288300J0D01*
G01*
X201234300Y-106647000D01*
G75*
G02*
X200946000Y-106358700I0J288300D01*
G01*
X200946000Y-103835300D01*
G75*
G02*
X201234300Y-103547000I288300J0D01*
G01*
G37*
D13*
X221367000Y-109973000D03*
X221327000Y-104182000D03*
D14*
X224502000Y-109262000D03*
X218152000Y-109262000D03*
X224502000Y-104817000D03*
X218152000Y-104817000D03*
D13*
X221367000Y-98949500D03*
X221327000Y-93158500D03*
D14*
X224502000Y-98238500D03*
X218152000Y-98238500D03*
X224502000Y-93793500D03*
X218152000Y-93793500D03*
D13*
X233850000Y-63262700D03*
X228059000Y-63302700D03*
D14*
X233139000Y-60127700D03*
X233139000Y-66477700D03*
X228694000Y-60127700D03*
X228694000Y-66477700D03*
D10*
X231360480Y-107255480D03*
G36*
G01*
X232348010Y-110865480D02*
X230372950Y-110865480D01*
G75*
G02*
X230065480Y-110558010I0J307470D01*
G01*
X230065480Y-109032950D01*
G75*
G02*
X230372950Y-108725480I307470J0D01*
G01*
X232348010Y-108725480D01*
G75*
G02*
X232655480Y-109032950I0J-307470D01*
G01*
X232655480Y-110558010D01*
G75*
G02*
X232348010Y-110865480I-307470J0D01*
G01*
G37*
M02*
