%TF.GenerationSoftware,KiCad,Pcbnew,(5.1.6)-1*%
%TF.CreationDate,2020-11-25T11:15:34+11:00*%
%TF.ProjectId,KY58 Panel PCB V1,4b593538-2050-4616-9e65-6c2050434220,rev?*%
%TF.SameCoordinates,Original*%
%TF.FileFunction,Soldermask,Top*%
%TF.FilePolarity,Negative*%
%FSLAX46Y46*%
G04 Gerber Fmt 4.6, Leading zero omitted, Abs format (unit mm)*
G04 Created by KiCad (PCBNEW (5.1.6)-1) date 2020-11-25 11:15:34*
%MOMM*%
%LPD*%
G01*
G04 APERTURE LIST*
%ADD10R,1.600000X1.100000*%
%ADD11C,1.900000*%
%ADD12R,1.900000X1.900000*%
%ADD13C,1.620000*%
%ADD14R,1.620000X1.620000*%
G04 APERTURE END LIST*
%TO.C,C14*%
G36*
G01*
X110581000Y-85082900D02*
X110581000Y-84832900D01*
G75*
G02*
X110706000Y-84707900I125000J0D01*
G01*
X111016000Y-84707900D01*
G75*
G02*
X111141000Y-84832900I0J-125000D01*
G01*
X111141000Y-85082900D01*
G75*
G02*
X111016000Y-85207900I-125000J0D01*
G01*
X110706000Y-85207900D01*
G75*
G02*
X110581000Y-85082900I0J125000D01*
G01*
G37*
G36*
G01*
X109941000Y-85082900D02*
X109941000Y-84832900D01*
G75*
G02*
X110066000Y-84707900I125000J0D01*
G01*
X110376000Y-84707900D01*
G75*
G02*
X110501000Y-84832900I0J-125000D01*
G01*
X110501000Y-85082900D01*
G75*
G02*
X110376000Y-85207900I-125000J0D01*
G01*
X110066000Y-85207900D01*
G75*
G02*
X109941000Y-85082900I0J125000D01*
G01*
G37*
%TD*%
%TO.C,C15*%
G36*
G01*
X134403000Y-61412700D02*
X134403000Y-61162700D01*
G75*
G02*
X134528000Y-61037700I125000J0D01*
G01*
X134838000Y-61037700D01*
G75*
G02*
X134963000Y-61162700I0J-125000D01*
G01*
X134963000Y-61412700D01*
G75*
G02*
X134838000Y-61537700I-125000J0D01*
G01*
X134528000Y-61537700D01*
G75*
G02*
X134403000Y-61412700I0J125000D01*
G01*
G37*
G36*
G01*
X133763000Y-61412700D02*
X133763000Y-61162700D01*
G75*
G02*
X133888000Y-61037700I125000J0D01*
G01*
X134198000Y-61037700D01*
G75*
G02*
X134323000Y-61162700I0J-125000D01*
G01*
X134323000Y-61412700D01*
G75*
G02*
X134198000Y-61537700I-125000J0D01*
G01*
X133888000Y-61537700D01*
G75*
G02*
X133763000Y-61412700I0J125000D01*
G01*
G37*
%TD*%
%TO.C,C13*%
G36*
G01*
X197652000Y-44926900D02*
X197902000Y-44926900D01*
G75*
G02*
X198027000Y-45051900I0J-125000D01*
G01*
X198027000Y-45361900D01*
G75*
G02*
X197902000Y-45486900I-125000J0D01*
G01*
X197652000Y-45486900D01*
G75*
G02*
X197527000Y-45361900I0J125000D01*
G01*
X197527000Y-45051900D01*
G75*
G02*
X197652000Y-44926900I125000J0D01*
G01*
G37*
G36*
G01*
X197652000Y-44286900D02*
X197902000Y-44286900D01*
G75*
G02*
X198027000Y-44411900I0J-125000D01*
G01*
X198027000Y-44721900D01*
G75*
G02*
X197902000Y-44846900I-125000J0D01*
G01*
X197652000Y-44846900D01*
G75*
G02*
X197527000Y-44721900I0J125000D01*
G01*
X197527000Y-44411900D01*
G75*
G02*
X197652000Y-44286900I125000J0D01*
G01*
G37*
%TD*%
%TO.C,C12*%
G36*
G01*
X204675000Y-50433600D02*
X204925000Y-50433600D01*
G75*
G02*
X205050000Y-50558600I0J-125000D01*
G01*
X205050000Y-50868600D01*
G75*
G02*
X204925000Y-50993600I-125000J0D01*
G01*
X204675000Y-50993600D01*
G75*
G02*
X204550000Y-50868600I0J125000D01*
G01*
X204550000Y-50558600D01*
G75*
G02*
X204675000Y-50433600I125000J0D01*
G01*
G37*
G36*
G01*
X204675000Y-49793600D02*
X204925000Y-49793600D01*
G75*
G02*
X205050000Y-49918600I0J-125000D01*
G01*
X205050000Y-50228600D01*
G75*
G02*
X204925000Y-50353600I-125000J0D01*
G01*
X204675000Y-50353600D01*
G75*
G02*
X204550000Y-50228600I0J125000D01*
G01*
X204550000Y-49918600D01*
G75*
G02*
X204675000Y-49793600I125000J0D01*
G01*
G37*
%TD*%
%TO.C,C11*%
G36*
G01*
X204627000Y-67985000D02*
X204877000Y-67985000D01*
G75*
G02*
X205002000Y-68110000I0J-125000D01*
G01*
X205002000Y-68420000D01*
G75*
G02*
X204877000Y-68545000I-125000J0D01*
G01*
X204627000Y-68545000D01*
G75*
G02*
X204502000Y-68420000I0J125000D01*
G01*
X204502000Y-68110000D01*
G75*
G02*
X204627000Y-67985000I125000J0D01*
G01*
G37*
G36*
G01*
X204627000Y-67345000D02*
X204877000Y-67345000D01*
G75*
G02*
X205002000Y-67470000I0J-125000D01*
G01*
X205002000Y-67780000D01*
G75*
G02*
X204877000Y-67905000I-125000J0D01*
G01*
X204627000Y-67905000D01*
G75*
G02*
X204502000Y-67780000I0J125000D01*
G01*
X204502000Y-67470000D01*
G75*
G02*
X204627000Y-67345000I125000J0D01*
G01*
G37*
%TD*%
%TO.C,C10*%
G36*
G01*
X177785000Y-96515500D02*
X177535000Y-96515500D01*
G75*
G02*
X177410000Y-96390500I0J125000D01*
G01*
X177410000Y-96080500D01*
G75*
G02*
X177535000Y-95955500I125000J0D01*
G01*
X177785000Y-95955500D01*
G75*
G02*
X177910000Y-96080500I0J-125000D01*
G01*
X177910000Y-96390500D01*
G75*
G02*
X177785000Y-96515500I-125000J0D01*
G01*
G37*
G36*
G01*
X177785000Y-97155500D02*
X177535000Y-97155500D01*
G75*
G02*
X177410000Y-97030500I0J125000D01*
G01*
X177410000Y-96720500D01*
G75*
G02*
X177535000Y-96595500I125000J0D01*
G01*
X177785000Y-96595500D01*
G75*
G02*
X177910000Y-96720500I0J-125000D01*
G01*
X177910000Y-97030500D01*
G75*
G02*
X177785000Y-97155500I-125000J0D01*
G01*
G37*
%TD*%
%TO.C,C9*%
G36*
G01*
X177562000Y-105765000D02*
X177562000Y-106015000D01*
G75*
G02*
X177437000Y-106140000I-125000J0D01*
G01*
X177127000Y-106140000D01*
G75*
G02*
X177002000Y-106015000I0J125000D01*
G01*
X177002000Y-105765000D01*
G75*
G02*
X177127000Y-105640000I125000J0D01*
G01*
X177437000Y-105640000D01*
G75*
G02*
X177562000Y-105765000I0J-125000D01*
G01*
G37*
G36*
G01*
X176922000Y-105765000D02*
X176922000Y-106015000D01*
G75*
G02*
X176797000Y-106140000I-125000J0D01*
G01*
X176487000Y-106140000D01*
G75*
G02*
X176362000Y-106015000I0J125000D01*
G01*
X176362000Y-105765000D01*
G75*
G02*
X176487000Y-105640000I125000J0D01*
G01*
X176797000Y-105640000D01*
G75*
G02*
X176922000Y-105765000I0J-125000D01*
G01*
G37*
%TD*%
%TO.C,C8*%
G36*
G01*
X127432000Y-127967000D02*
X127432000Y-128217000D01*
G75*
G02*
X127307000Y-128342000I-125000J0D01*
G01*
X126997000Y-128342000D01*
G75*
G02*
X126872000Y-128217000I0J125000D01*
G01*
X126872000Y-127967000D01*
G75*
G02*
X126997000Y-127842000I125000J0D01*
G01*
X127307000Y-127842000D01*
G75*
G02*
X127432000Y-127967000I0J-125000D01*
G01*
G37*
G36*
G01*
X128072000Y-127967000D02*
X128072000Y-128217000D01*
G75*
G02*
X127947000Y-128342000I-125000J0D01*
G01*
X127637000Y-128342000D01*
G75*
G02*
X127512000Y-128217000I0J125000D01*
G01*
X127512000Y-127967000D01*
G75*
G02*
X127637000Y-127842000I125000J0D01*
G01*
X127947000Y-127842000D01*
G75*
G02*
X128072000Y-127967000I0J-125000D01*
G01*
G37*
%TD*%
%TO.C,C7*%
G36*
G01*
X171404000Y-126363000D02*
X171404000Y-126113000D01*
G75*
G02*
X171529000Y-125988000I125000J0D01*
G01*
X171839000Y-125988000D01*
G75*
G02*
X171964000Y-126113000I0J-125000D01*
G01*
X171964000Y-126363000D01*
G75*
G02*
X171839000Y-126488000I-125000J0D01*
G01*
X171529000Y-126488000D01*
G75*
G02*
X171404000Y-126363000I0J125000D01*
G01*
G37*
G36*
G01*
X170764000Y-126363000D02*
X170764000Y-126113000D01*
G75*
G02*
X170889000Y-125988000I125000J0D01*
G01*
X171199000Y-125988000D01*
G75*
G02*
X171324000Y-126113000I0J-125000D01*
G01*
X171324000Y-126363000D01*
G75*
G02*
X171199000Y-126488000I-125000J0D01*
G01*
X170889000Y-126488000D01*
G75*
G02*
X170764000Y-126363000I0J125000D01*
G01*
G37*
%TD*%
%TO.C,C6*%
G36*
G01*
X189131328Y-138042896D02*
X189308104Y-138219673D01*
G75*
G02*
X189308104Y-138396449I-88388J-88388D01*
G01*
X189088901Y-138615652D01*
G75*
G02*
X188912125Y-138615652I-88388J88388D01*
G01*
X188735348Y-138438875D01*
G75*
G02*
X188735348Y-138262099I88388J88388D01*
G01*
X188954551Y-138042896D01*
G75*
G02*
X189131327Y-138042896I88388J-88388D01*
G01*
G37*
G36*
G01*
X189583876Y-137590348D02*
X189760652Y-137767125D01*
G75*
G02*
X189760652Y-137943901I-88388J-88388D01*
G01*
X189541449Y-138163104D01*
G75*
G02*
X189364673Y-138163104I-88388J88388D01*
G01*
X189187896Y-137986327D01*
G75*
G02*
X189187896Y-137809551I88388J88388D01*
G01*
X189407099Y-137590348D01*
G75*
G02*
X189583875Y-137590348I88388J-88388D01*
G01*
G37*
%TD*%
%TO.C,C5*%
G36*
G01*
X198042000Y-125121000D02*
X197792000Y-125121000D01*
G75*
G02*
X197667000Y-124996000I0J125000D01*
G01*
X197667000Y-124686000D01*
G75*
G02*
X197792000Y-124561000I125000J0D01*
G01*
X198042000Y-124561000D01*
G75*
G02*
X198167000Y-124686000I0J-125000D01*
G01*
X198167000Y-124996000D01*
G75*
G02*
X198042000Y-125121000I-125000J0D01*
G01*
G37*
G36*
G01*
X198042000Y-125761000D02*
X197792000Y-125761000D01*
G75*
G02*
X197667000Y-125636000I0J125000D01*
G01*
X197667000Y-125326000D01*
G75*
G02*
X197792000Y-125201000I125000J0D01*
G01*
X198042000Y-125201000D01*
G75*
G02*
X198167000Y-125326000I0J-125000D01*
G01*
X198167000Y-125636000D01*
G75*
G02*
X198042000Y-125761000I-125000J0D01*
G01*
G37*
%TD*%
%TO.C,C4*%
G36*
G01*
X199881000Y-139152000D02*
X199631000Y-139152000D01*
G75*
G02*
X199506000Y-139027000I0J125000D01*
G01*
X199506000Y-138717000D01*
G75*
G02*
X199631000Y-138592000I125000J0D01*
G01*
X199881000Y-138592000D01*
G75*
G02*
X200006000Y-138717000I0J-125000D01*
G01*
X200006000Y-139027000D01*
G75*
G02*
X199881000Y-139152000I-125000J0D01*
G01*
G37*
G36*
G01*
X199881000Y-139792000D02*
X199631000Y-139792000D01*
G75*
G02*
X199506000Y-139667000I0J125000D01*
G01*
X199506000Y-139357000D01*
G75*
G02*
X199631000Y-139232000I125000J0D01*
G01*
X199881000Y-139232000D01*
G75*
G02*
X200006000Y-139357000I0J-125000D01*
G01*
X200006000Y-139667000D01*
G75*
G02*
X199881000Y-139792000I-125000J0D01*
G01*
G37*
%TD*%
%TO.C,C3*%
G36*
G01*
X146919000Y-148038000D02*
X146919000Y-148288000D01*
G75*
G02*
X146794000Y-148413000I-125000J0D01*
G01*
X146484000Y-148413000D01*
G75*
G02*
X146359000Y-148288000I0J125000D01*
G01*
X146359000Y-148038000D01*
G75*
G02*
X146484000Y-147913000I125000J0D01*
G01*
X146794000Y-147913000D01*
G75*
G02*
X146919000Y-148038000I0J-125000D01*
G01*
G37*
G36*
G01*
X147559000Y-148038000D02*
X147559000Y-148288000D01*
G75*
G02*
X147434000Y-148413000I-125000J0D01*
G01*
X147124000Y-148413000D01*
G75*
G02*
X146999000Y-148288000I0J125000D01*
G01*
X146999000Y-148038000D01*
G75*
G02*
X147124000Y-147913000I125000J0D01*
G01*
X147434000Y-147913000D01*
G75*
G02*
X147559000Y-148038000I0J-125000D01*
G01*
G37*
%TD*%
%TO.C,C2*%
G36*
G01*
X127600000Y-148099000D02*
X127600000Y-148349000D01*
G75*
G02*
X127475000Y-148474000I-125000J0D01*
G01*
X127165000Y-148474000D01*
G75*
G02*
X127040000Y-148349000I0J125000D01*
G01*
X127040000Y-148099000D01*
G75*
G02*
X127165000Y-147974000I125000J0D01*
G01*
X127475000Y-147974000D01*
G75*
G02*
X127600000Y-148099000I0J-125000D01*
G01*
G37*
G36*
G01*
X128240000Y-148099000D02*
X128240000Y-148349000D01*
G75*
G02*
X128115000Y-148474000I-125000J0D01*
G01*
X127805000Y-148474000D01*
G75*
G02*
X127680000Y-148349000I0J125000D01*
G01*
X127680000Y-148099000D01*
G75*
G02*
X127805000Y-147974000I125000J0D01*
G01*
X128115000Y-147974000D01*
G75*
G02*
X128240000Y-148099000I0J-125000D01*
G01*
G37*
%TD*%
D10*
%TO.C,D63*%
X83362800Y-73558400D03*
X83362800Y-76758400D03*
X88262800Y-73558400D03*
X88262800Y-76758400D03*
%TD*%
D11*
%TO.C,D1*%
X135687000Y-102997000D03*
D12*
X133147000Y-102997000D03*
%TD*%
%TO.C,R1*%
G36*
G01*
X130872000Y-102872000D02*
X130872000Y-103122000D01*
G75*
G02*
X130747000Y-103247000I-125000J0D01*
G01*
X130437000Y-103247000D01*
G75*
G02*
X130312000Y-103122000I0J125000D01*
G01*
X130312000Y-102872000D01*
G75*
G02*
X130437000Y-102747000I125000J0D01*
G01*
X130747000Y-102747000D01*
G75*
G02*
X130872000Y-102872000I0J-125000D01*
G01*
G37*
G36*
G01*
X131512000Y-102872000D02*
X131512000Y-103122000D01*
G75*
G02*
X131387000Y-103247000I-125000J0D01*
G01*
X131077000Y-103247000D01*
G75*
G02*
X130952000Y-103122000I0J125000D01*
G01*
X130952000Y-102872000D01*
G75*
G02*
X131077000Y-102747000I125000J0D01*
G01*
X131387000Y-102747000D01*
G75*
G02*
X131512000Y-102872000I0J-125000D01*
G01*
G37*
%TD*%
D13*
%TO.C,J2*%
X155242001Y-104342999D03*
X158242000Y-104342999D03*
X155242001Y-101343000D03*
D14*
X158242000Y-101343000D03*
%TD*%
D13*
%TO.C,J1*%
X143482001Y-104342999D03*
X146482000Y-104342999D03*
X143482001Y-101343000D03*
D14*
X146482000Y-101343000D03*
%TD*%
D10*
%TO.C,D62*%
X190895000Y-143002000D03*
X190895000Y-146202000D03*
X195795000Y-143002000D03*
X195795000Y-146202000D03*
%TD*%
%TO.C,D61*%
X183820000Y-142926000D03*
X183820000Y-146126000D03*
X188720000Y-142926000D03*
X188720000Y-146126000D03*
%TD*%
%TO.C,D60*%
X176378000Y-142977000D03*
X176378000Y-146177000D03*
X181278000Y-142977000D03*
X181278000Y-146177000D03*
%TD*%
%TO.C,D59*%
X167030000Y-143002000D03*
X167030000Y-146202000D03*
X171930000Y-143002000D03*
X171930000Y-146202000D03*
%TD*%
%TO.C,D58*%
X156060000Y-143256000D03*
X156060000Y-146456000D03*
X160960000Y-143256000D03*
X160960000Y-146456000D03*
%TD*%
%TO.C,D57*%
X148872000Y-143231000D03*
X148872000Y-146431000D03*
X153772000Y-143231000D03*
X153772000Y-146431000D03*
%TD*%
%TO.C,D56*%
X141453000Y-143256000D03*
X141453000Y-146456000D03*
X146353000Y-143256000D03*
X146353000Y-146456000D03*
%TD*%
%TO.C,D55*%
X132131000Y-143281000D03*
X132131000Y-146481000D03*
X137031000Y-143281000D03*
X137031000Y-146481000D03*
%TD*%
%TO.C,D54*%
X122149000Y-143434000D03*
X122149000Y-146634000D03*
X127049000Y-143434000D03*
X127049000Y-146634000D03*
%TD*%
%TO.C,D53*%
X115011000Y-143408000D03*
X115011000Y-146608000D03*
X119911000Y-143408000D03*
X119911000Y-146608000D03*
%TD*%
%TO.C,D52*%
X107544000Y-143383000D03*
X107544000Y-146583000D03*
X112444000Y-143383000D03*
X112444000Y-146583000D03*
%TD*%
%TO.C,D51*%
X98224000Y-143409000D03*
X98224000Y-146609000D03*
X103124000Y-143409000D03*
X103124000Y-146609000D03*
%TD*%
%TO.C,D50*%
X206959000Y-130835000D03*
X206959000Y-134035000D03*
X211859000Y-130835000D03*
X211859000Y-134035000D03*
%TD*%
%TO.C,D49*%
X199773000Y-130861000D03*
X199773000Y-134061000D03*
X204673000Y-130861000D03*
X204673000Y-134061000D03*
%TD*%
%TO.C,D48*%
X192724000Y-135331000D03*
X192724000Y-138531000D03*
X197624000Y-135331000D03*
X197624000Y-138531000D03*
%TD*%
%TO.C,D47*%
X187339000Y-129489000D03*
X187339000Y-132689000D03*
X192239000Y-129489000D03*
X192239000Y-132689000D03*
%TD*%
%TO.C,D46*%
X182335000Y-135306000D03*
X182335000Y-138506000D03*
X187235000Y-135306000D03*
X187235000Y-138506000D03*
%TD*%
%TO.C,D45*%
X163525000Y-132639000D03*
X163525000Y-135839000D03*
X168425000Y-132639000D03*
X168425000Y-135839000D03*
%TD*%
%TO.C,D44*%
X156351000Y-132614000D03*
X156351000Y-135814000D03*
X161251000Y-132614000D03*
X161251000Y-135814000D03*
%TD*%
%TO.C,D43*%
X148909000Y-132639000D03*
X148909000Y-135839000D03*
X153809000Y-132639000D03*
X153809000Y-135839000D03*
%TD*%
%TO.C,D42*%
X139688000Y-132690000D03*
X139688000Y-135890000D03*
X144588000Y-132690000D03*
X144588000Y-135890000D03*
%TD*%
%TO.C,D41*%
X132766000Y-132690000D03*
X132766000Y-135890000D03*
X137666000Y-132690000D03*
X137666000Y-135890000D03*
%TD*%
%TO.C,D40*%
X191047000Y-121260000D03*
X191047000Y-124460000D03*
X195947000Y-121260000D03*
X195947000Y-124460000D03*
%TD*%
%TO.C,D39*%
X183859000Y-121260000D03*
X183859000Y-124460000D03*
X188759000Y-121260000D03*
X188759000Y-124460000D03*
%TD*%
%TO.C,D38*%
X176442000Y-121234000D03*
X176442000Y-124434000D03*
X181342000Y-121234000D03*
X181342000Y-124434000D03*
%TD*%
%TO.C,D37*%
X167081000Y-121260000D03*
X167081000Y-124460000D03*
X171981000Y-121260000D03*
X171981000Y-124460000D03*
%TD*%
%TO.C,D36*%
X156134000Y-121488000D03*
X156134000Y-124688000D03*
X161034000Y-121488000D03*
X161034000Y-124688000D03*
%TD*%
%TO.C,D35*%
X148959000Y-121488000D03*
X148959000Y-124688000D03*
X153859000Y-121488000D03*
X153859000Y-124688000D03*
%TD*%
%TO.C,D34*%
X141492000Y-121488000D03*
X141492000Y-124688000D03*
X146392000Y-121488000D03*
X146392000Y-124688000D03*
%TD*%
%TO.C,D33*%
X132184000Y-121564000D03*
X132184000Y-124764000D03*
X137084000Y-121564000D03*
X137084000Y-124764000D03*
%TD*%
%TO.C,D32*%
X122227000Y-121717000D03*
X122227000Y-124917000D03*
X127127000Y-121717000D03*
X127127000Y-124917000D03*
%TD*%
%TO.C,D31*%
X115039000Y-121641000D03*
X115039000Y-124841000D03*
X119939000Y-121641000D03*
X119939000Y-124841000D03*
%TD*%
%TO.C,D30*%
X107634000Y-121692000D03*
X107634000Y-124892000D03*
X112534000Y-121692000D03*
X112534000Y-124892000D03*
%TD*%
%TO.C,D29*%
X98337000Y-121692000D03*
X98337000Y-124892000D03*
X103237000Y-121692000D03*
X103237000Y-124892000D03*
%TD*%
%TO.C,D28*%
X171401000Y-101067000D03*
X171401000Y-104267000D03*
X176301000Y-101067000D03*
X176301000Y-104267000D03*
%TD*%
%TO.C,D27*%
X170843000Y-92735400D03*
X170843000Y-95935400D03*
X175743000Y-92735400D03*
X175743000Y-95935400D03*
%TD*%
%TO.C,D26*%
X172900000Y-85699600D03*
X172900000Y-88899600D03*
X177800000Y-85699600D03*
X177800000Y-88899600D03*
%TD*%
%TO.C,D25*%
X120322000Y-80137000D03*
X120322000Y-83337000D03*
X125222000Y-80137000D03*
X125222000Y-83337000D03*
%TD*%
%TO.C,D24*%
X113298000Y-78511600D03*
X113298000Y-81711600D03*
X118198000Y-78511600D03*
X118198000Y-81711600D03*
%TD*%
%TO.C,D23*%
X106274000Y-80162400D03*
X106274000Y-83362400D03*
X111174000Y-80162400D03*
X111174000Y-83362400D03*
%TD*%
%TO.C,D22*%
X173459000Y-47625000D03*
X173459000Y-50825000D03*
X178359000Y-47625000D03*
X178359000Y-50825000D03*
%TD*%
%TO.C,D21*%
X171274000Y-55524400D03*
X171274000Y-58724400D03*
X176174000Y-55524400D03*
X176174000Y-58724400D03*
%TD*%
%TO.C,D20*%
X174080000Y-64211400D03*
X174080000Y-67411400D03*
X178980000Y-64211400D03*
X178980000Y-67411400D03*
%TD*%
%TO.C,D19*%
X174170000Y-70764400D03*
X174170000Y-73964400D03*
X179070000Y-70764400D03*
X179070000Y-73964400D03*
%TD*%
%TO.C,D18*%
X181864000Y-74752200D03*
X181864000Y-77952200D03*
X186764000Y-74752200D03*
X186764000Y-77952200D03*
%TD*%
%TO.C,D17*%
X189766000Y-74676000D03*
X189766000Y-77876000D03*
X194666000Y-74676000D03*
X194666000Y-77876000D03*
%TD*%
%TO.C,D16*%
X196751000Y-71755400D03*
X196751000Y-74955400D03*
X201651000Y-71755400D03*
X201651000Y-74955400D03*
%TD*%
%TO.C,D15*%
X197905000Y-65379800D03*
X197905000Y-68579800D03*
X202805000Y-65379800D03*
X202805000Y-68579800D03*
%TD*%
%TO.C,D14*%
X200852000Y-55651600D03*
X200852000Y-58851600D03*
X205752000Y-55651600D03*
X205752000Y-58851600D03*
%TD*%
%TO.C,D13*%
X198300000Y-47752000D03*
X198300000Y-50952000D03*
X203200000Y-47752000D03*
X203200000Y-50952000D03*
%TD*%
%TO.C,D12*%
X191137000Y-42367200D03*
X191137000Y-45567200D03*
X196037000Y-42367200D03*
X196037000Y-45567200D03*
%TD*%
%TO.C,D11*%
X181319000Y-41757800D03*
X181319000Y-44957800D03*
X186219000Y-41757800D03*
X186219000Y-44957800D03*
%TD*%
%TO.C,D10*%
X152642000Y-52756000D03*
X152642000Y-55956000D03*
X157542000Y-52756000D03*
X157542000Y-55956000D03*
%TD*%
%TO.C,D9*%
X145595000Y-52781400D03*
X145595000Y-55981400D03*
X150495000Y-52781400D03*
X150495000Y-55981400D03*
%TD*%
%TO.C,D8*%
X130101000Y-56337200D03*
X130101000Y-59537200D03*
X135001000Y-56337200D03*
X135001000Y-59537200D03*
%TD*%
%TO.C,D7*%
X125021000Y-44754800D03*
X125021000Y-47954800D03*
X129921000Y-44754800D03*
X129921000Y-47954800D03*
%TD*%
%TO.C,D6*%
X113665000Y-40690800D03*
X113665000Y-43890800D03*
X118565000Y-40690800D03*
X118565000Y-43890800D03*
%TD*%
%TO.C,D5*%
X116942000Y-34213800D03*
X116942000Y-37413800D03*
X121842000Y-34213800D03*
X121842000Y-37413800D03*
%TD*%
%TO.C,D4*%
X109578000Y-34213800D03*
X109578000Y-37413800D03*
X114478000Y-34213800D03*
X114478000Y-37413800D03*
%TD*%
%TO.C,D3*%
X102339000Y-45466000D03*
X102339000Y-48666000D03*
X107239000Y-45466000D03*
X107239000Y-48666000D03*
%TD*%
%TO.C,D2*%
X83263400Y-62103000D03*
X83263400Y-65303000D03*
X88163400Y-62103000D03*
X88163400Y-65303000D03*
%TD*%
M02*
