  0
SECTION
  2
HEADER
  9
$ACADVER
  1
AC1024
  9
$ACADMAINTVER
 70
     6
  9
$DWGCODEPAGE
  3
UNDEFINED
  9
$INSBASE
 10
0.0
 20
0.0
 30
0.0
  9
$EXTMIN
 10
1.000000000000000E+20
 20
1.000000000000000E+20
 30
1.000000000000000E+20
  9
$EXTMAX
 10
-1.000000000000000E+20
 20
-1.000000000000000E+20
 30
-1.000000000000000E+20
  9
$LIMMIN
 10
0.0
 20
0.0
  9
$LIMMAX
 10
12.0
 20
9.0
  9
$ORTHOMODE
 70
     0
  9
$REGENMODE
 70
     1
  9
$FILLMODE
 70
     1
  9
$QTEXTMODE
 70
     0
  9
$MIRRTEXT
 70
     1
  9
$LTSCALE
 40
1.0
  9
$ATTMODE
 70
     1
  9
$TEXTSIZE
 40
0.2
  9
$TRACEWID
 40
0.05
  9
$TEXTSTYLE
  7
Standard
  9
$CLAYER
  8
0
  9
$CELTYPE
  6
ByLayer
  9
$CECOLOR
 62
   256
  9
$CELTSCALE
 40
1.0
  9
$DISPSILH
 70
     0
  9
$DIMSCALE
 40
1.0
  9
$DIMASZ
 40
0.18
  9
$DIMEXO
 40
0.0625
  9
$DIMDLI
 40
0.38
  9
$DIMRND
 40
0.0
  9
$DIMDLE
 40
0.0
  9
$DIMEXE
 40
0.18
  9
$DIMTP
 40
0.0
  9
$DIMTM
 40
0.0
  9
$DIMTXT
 40
0.18
  9
$DIMCEN
 40
0.09
  9
$DIMTSZ
 40
0.0
  9
$DIMTOL
 70
     0
  9
$DIMLIM
 70
     0
  9
$DIMTIH
 70
     1
  9
$DIMTOH
 70
     1
  9
$DIMSE1
 70
     0
  9
$DIMSE2
 70
     0
  9
$DIMTAD
 70
     0
  9
$DIMZIN
 70
     0
  9
$DIMBLK
  1

  9
$DIMASO
 70
     1
  9
$DIMSHO
 70
     1
  9
$DIMPOST
  1

  9
$DIMAPOST
  1

  9
$DIMALT
 70
     0
  9
$DIMALTD
 70
     2
  9
$DIMALTF
 40
25.4
  9
$DIMLFAC
 40
1.0
  9
$DIMTOFL
 70
     0
  9
$DIMTVP
 40
0.0
  9
$DIMTIX
 70
     0
  9
$DIMSOXD
 70
     0
  9
$DIMSAH
 70
     0
  9
$DIMBLK1
  1

  9
$DIMBLK2
  1

  9
$DIMSTYLE
  2
Standard
  9
$DIMCLRD
 70
     0
  9
$DIMCLRE
 70
     0
  9
$DIMCLRT
 70
     0
  9
$DIMTFAC
 40
1.0
  9
$DIMGAP
 40
0.09
  9
$DIMJUST
 70
     0
  9
$DIMSD1
 70
     0
  9
$DIMSD2
 70
     0
  9
$DIMTOLJ
 70
     1
  9
$DIMTZIN
 70
     0
  9
$DIMALTZ
 70
     0
  9
$DIMALTTZ
 70
     0
  9
$DIMUPT
 70
     0
  9
$DIMDEC
 70
     4
  9
$DIMTDEC
 70
     4
  9
$DIMALTU
 70
     2
  9
$DIMALTTD
 70
     2
  9
$DIMTXSTY
  7
Standard
  9
$DIMAUNIT
 70
     0
  9
$DIMADEC
 70
     0
  9
$DIMALTRND
 40
0.0
  9
$DIMAZIN
 70
     0
  9
$DIMDSEP
 70
    46
  9
$DIMATFIT
 70
     3
  9
$DIMFRAC
 70
     0
  9
$DIMLDRBLK
  1

  9
$DIMLUNIT
 70
     2
  9
$DIMLWD
 70
    -2
  9
$DIMLWE
 70
    -2
  9
$DIMTMOVE
 70
     0
  9
$DIMFXL
 40
1.0
  9
$DIMFXLON
 70
     0
  9
$DIMJOGANG
 40
0.7853981633974483
  9
$DIMTFILL
 70
     0
  9
$DIMTFILLCLR
 70
     0
  9
$DIMARCSYM
 70
     0
  9
$DIMLTYPE
  6

  9
$DIMLTEX1
  6

  9
$DIMLTEX2
  6

  9
$DIMTXTDIRECTION
 70
     0
  9
$LUNITS
 70
     2
  9
$LUPREC
 70
     4
  9
$SKETCHINC
 40
0.1
  9
$FILLETRAD
 40
0.5
  9
$AUNITS
 70
     0
  9
$AUPREC
 70
     0
  9
$MENU
  1
.
  9
$ELEVATION
 40
0.0
  9
$PELEVATION
 40
0.0
  9
$THICKNESS
 40
0.0
  9
$LIMCHECK
 70
     0
  9
$CHAMFERA
 40
0.5
  9
$CHAMFERB
 40
0.5
  9
$CHAMFERC
 40
1.0
  9
$CHAMFERD
 40
0.0
  9
$SKPOLY
 70
     0
  9
$TDCREATE
 40
2458843.930057859
  9
$TDUCREATE
 40
2458843.888391204
  9
$TDUPDATE
 40
2458843.930057859
  9
$TDUUPDATE
 40
2458843.888391204
  9
$TDINDWG
 40
0.0000000116
  9
$TDUSRTIMER
 40
0.0000000116
  9
$USRTIMER
 70
     1
  9
$ANGBASE
 50
0.0
  9
$ANGDIR
 70
     0
  9
$PDMODE
 70
     0
  9
$PDSIZE
 40
0.0
  9
$PLINEWID
 40
0.0
  9
$SPLFRAME
 70
     0
  9
$SPLINETYPE
 70
     6
  9
$SPLINESEGS
 70
     8
  9
$HANDSEED
  5
6E
  9
$SURFTAB1
 70
     6
  9
$SURFTAB2
 70
     6
  9
$SURFTYPE
 70
     6
  9
$SURFU
 70
     6
  9
$SURFV
 70
     6
  9
$UCSBASE
  2

  9
$UCSNAME
  2

  9
$UCSORG
 10
0.0
 20
0.0
 30
0.0
  9
$UCSXDIR
 10
1.0
 20
0.0
 30
0.0
  9
$UCSYDIR
 10
0.0
 20
1.0
 30
0.0
  9
$UCSORTHOREF
  2

  9
$UCSORTHOVIEW
 70
     0
  9
$UCSORGTOP
 10
0.0
 20
0.0
 30
0.0
  9
$UCSORGBOTTOM
 10
0.0
 20
0.0
 30
0.0
  9
$UCSORGLEFT
 10
0.0
 20
0.0
 30
0.0
  9
$UCSORGRIGHT
 10
0.0
 20
0.0
 30
0.0
  9
$UCSORGFRONT
 10
0.0
 20
0.0
 30
0.0
  9
$UCSORGBACK
 10
0.0
 20
0.0
 30
0.0
  9
$PUCSBASE
  2

  9
$PUCSNAME
  2

  9
$PUCSORG
 10
0.0
 20
0.0
 30
0.0
  9
$PUCSXDIR
 10
1.0
 20
0.0
 30
0.0
  9
$PUCSYDIR
 10
0.0
 20
1.0
 30
0.0
  9
$PUCSORTHOREF
  2

  9
$PUCSORTHOVIEW
 70
     0
  9
$PUCSORGTOP
 10
0.0
 20
0.0
 30
0.0
  9
$PUCSORGBOTTOM
 10
0.0
 20
0.0
 30
0.0
  9
$PUCSORGLEFT
 10
0.0
 20
0.0
 30
0.0
  9
$PUCSORGRIGHT
 10
0.0
 20
0.0
 30
0.0
  9
$PUCSORGFRONT
 10
0.0
 20
0.0
 30
0.0
  9
$PUCSORGBACK
 10
0.0
 20
0.0
 30
0.0
  9
$USERI1
 70
     0
  9
$USERI2
 70
     0
  9
$USERI3
 70
     0
  9
$USERI4
 70
     0
  9
$USERI5
 70
     0
  9
$USERR1
 40
0.0
  9
$USERR2
 40
0.0
  9
$USERR3
 40
0.0
  9
$USERR4
 40
0.0
  9
$USERR5
 40
0.0
  9
$WORLDVIEW
 70
     1
  9
$SHADEDGE
 70
     3
  9
$SHADEDIF
 70
    70
  9
$TILEMODE
 70
     1
  9
$MAXACTVP
 70
    64
  9
$PINSBASE
 10
0.0
 20
0.0
 30
0.0
  9
$PLIMCHECK
 70
     0
  9
$PEXTMIN
 10
1.000000000000000E+20
 20
1.000000000000000E+20
 30
1.000000000000000E+20
  9
$PEXTMAX
 10
-1.000000000000000E+20
 20
-1.000000000000000E+20
 30
-1.000000000000000E+20
  9
$PLIMMIN
 10
0.0
 20
0.0
  9
$PLIMMAX
 10
12.0
 20
9.0
  9
$UNITMODE
 70
     0
  9
$VISRETAIN
 70
     1
  9
$PLINEGEN
 70
     0
  9
$PSLTSCALE
 70
     1
  9
$TREEDEPTH
 70
  3020
  9
$CMLSTYLE
  2
Standard
  9
$CMLJUST
 70
     0
  9
$CMLSCALE
 40
1.0
  9
$PROXYGRAPHICS
 70
     1
  9
$MEASUREMENT
 70
     0
  9
$CELWEIGHT
370
    -1
  9
$ENDCAPS
280
     0
  9
$JOINSTYLE
280
     0
  9
$LWDISPLAY
290
     1
  9
$INSUNITS
 70
     1
  9
$HYPERLINKBASE
  1

  9
$STYLESHEET
  1

  9
$XEDIT
290
     1
  9
$CEPSNTYPE
380
     0
  9
$PSTYLEMODE
290
     1
  9
$FINGERPRINTGUID
  2
{5109B884-997F-2C45-00B7-6C152FCDB57C}
  9
$VERSIONGUID
  2
{FAEB1C32-E019-11D5-929B-00C0DF256EC4}
  9
$EXTNAMES
290
     1
  9
$PSVPSCALE
 40
0.0
  9
$OLESTARTUP
290
     0
  9
$SORTENTS
280
   127
  9
$INDEXCTL
280
     0
  9
$HIDETEXT
280
     1
  9
$XCLIPFRAME
280
     2
  9
$HALOGAP
280
     0
  9
$OBSCOLOR
 70
   257
  9
$OBSLTYPE
280
     0
  9
$INTERSECTIONDISPLAY
280
     0
  9
$INTERSECTIONCOLOR
 70
   257
  9
$DIMASSOC
280
     2
  9
$PROJECTNAME
  1

  9
$CAMERADISPLAY
290
     0
  9
$LENSLENGTH
 40
50.0
  9
$CAMERAHEIGHT
 40
0.0
  9
$STEPSPERSEC
 40
2.0
  9
$STEPSIZE
 40
6.0
  9
$3DDWFPREC
 40
2.0
  9
$PSOLWIDTH
 40
0.25
  9
$PSOLHEIGHT
 40
4.0
  9
$LOFTANG1
 40
1.570796326794897
  9
$LOFTANG2
 40
1.570796326794897
  9
$LOFTMAG1
 40
0.0
  9
$LOFTMAG2
 40
0.0
  9
$LOFTPARAM
 70
     7
  9
$LOFTNORMALS
280
     1
  9
$LATITUDE
 40
37.795
  9
$LONGITUDE
 40
-122.394
  9
$NORTHDIRECTION
 40
0.0
  9
$TIMEZONE
 70
 -8000
  9
$LIGHTGLYPHDISPLAY
280
     1
  9
$TILEMODELIGHTSYNCH
280
     1
  9
$CMATERIAL
347
3C
  9
$SOLIDHIST
280
     1
  9
$SHOWHIST
280
     1
  9
$DWFFRAME
280
     2
  9
$DGNFRAME
280
     2
  9
$REALWORLDSCALE
290
     1
  9
$INTERFERECOLOR
 62
   256
  9
$CSHADOW
280
     0
  9
$SHADOWPLANELOCATION
 40
0.0
  0
ENDSEC
  0
SECTION
  2
CLASSES
  0
CLASS
  1
ACDBDICTIONARYWDFLT
  2
AcDbDictionaryWithDefault
  3
ObjectDBX Classes
 90
        0
 91
        4
280
     0
281
     0
  0
CLASS
  1
VISUALSTYLE
  2
AcDbVisualStyle
  3
ObjectDBX Classes
 90
     4095
 91
        4
280
     0
281
     0
  0
CLASS
  1
MATERIAL
  2
AcDbMaterial
  3
ObjectDBX Classes
 90
     1153
 91
        4
280
     0
281
     0
  0
CLASS
  1
SUN
  2
AcDbSun
  3
SCENEOE
 90
     1024
 91
        4
280
     0
281
     0
  0
ENDSEC
  0
SECTION
  2
TABLES
  0
TABLE
  2
VPORT
  5
8
330
0
100
AcDbSymbolTable
 70
     1
  0
VPORT
  5
29
330
8
100
AcDbSymbolTableRecord
100
AcDbViewportTableRecord
  2
*Active
 70
     0
 10
0.0
 20
0.0
 11
1.0
 21
1.0
 12
0.0
 22
0.0
 13
0.0
 23
0.0
 14
0.5
 24
0.5
 15
0.5
 25
0.5
 16
0.0
 26
0.0
 36
1.0
 17
105.0007777515276
 27
148.5000416295416
 37
0.0
 40
24.99999999375009
 41
0.9999999999999869
 42
50.0
 43
0.0
 44
0.0
 50
0.0
 51
0.0
 71
     0
 72
   100
 73
     1
 74
     3
 75
     0
 76
     0
 77
     0
 78
     0
281
     0
 65
     1
110
0.0
120
0.0
130
0.0
111
1.0
121
0.0
131
0.0
112
0.0
122
1.0
132
0.0
 79
     0
146
0.0
 60
     3
 61
     5
292
     1
282
     1
141
0.0
142
0.0
 63
   250
361
3F
  0
ENDTAB
  0
TABLE
  2
LTYPE
  5
5
330
0
100
AcDbSymbolTable
 70
     1
  0
LTYPE
  5
14
330
5
100
AcDbSymbolTableRecord
100
AcDbLinetypeTableRecord
  2
ByBlock
 70
     0
  3

 72
    65
 73
     0
 40
0.0
  0
LTYPE
  5
15
330
5
100
AcDbSymbolTableRecord
100
AcDbLinetypeTableRecord
  2
ByLayer
 70
     0
  3

 72
    65
 73
     0
 40
0.0
  0
LTYPE
  5
16
330
5
100
AcDbSymbolTableRecord
100
AcDbLinetypeTableRecord
  2
Continuous
 70
     0
  3
Solid line
 72
    65
 73
     0
 40
0.0
  0
ENDTAB
  0
TABLE
  2
LAYER
  5
2
330
0
100
AcDbSymbolTable
 70
     1
  0
LAYER
  5
10
330
2
100
AcDbSymbolTableRecord
100
AcDbLayerTableRecord
  2
0
 70
     0
 62
     7
  6
Continuous
370
    -3
390
F
347
3E
  0
ENDTAB
  0
TABLE
  2
STYLE
  5
3
330
0
100
AcDbSymbolTable
 70
     1
  0
STYLE
  5
11
330
3
100
AcDbSymbolTableRecord
100
AcDbTextStyleTableRecord
  2
Standard
 70
     0
 40
0.0
 41
1.0
 50
0.0
 71
     0
 42
0.2
  3
txt
  4

  0
ENDTAB
  0
TABLE
  2
VIEW
  5
6
330
0
100
AcDbSymbolTable
 70
     0
  0
ENDTAB
  0
TABLE
  2
UCS
  5
7
330
0
100
AcDbSymbolTable
 70
     0
  0
ENDTAB
  0
TABLE
  2
APPID
  5
9
330
0
100
AcDbSymbolTable
 70
     1
  0
APPID
  5
12
330
9
100
AcDbSymbolTableRecord
100
AcDbRegAppTableRecord
  2
ACAD
 70
     0
  0
ENDTAB
  0
TABLE
  2
DIMSTYLE
  5
A
330
0
100
AcDbSymbolTable
 70
     1
100
AcDbDimStyleTable
  0
DIMSTYLE
105
27
330
A
100
AcDbSymbolTableRecord
100
AcDbDimStyleTableRecord
  2
Standard
 70
     0
178
     0
340
11
  0
ENDTAB
  0
TABLE
  2
BLOCK_RECORD
  5
1
330
0
100
AcDbSymbolTable
 70
     8
  0
BLOCK_RECORD
  5
1F
330
1
100
AcDbSymbolTableRecord
100
AcDbBlockTableRecord
  2
*Model_Space
340
22
 70
     0
280
     1
281
     0
  0
BLOCK_RECORD
  5
1B
330
1
100
AcDbSymbolTableRecord
100
AcDbBlockTableRecord
  2
*Paper_Space
340
1E
 70
     0
280
     1
281
     0
  0
BLOCK_RECORD
  5
23
330
1
100
AcDbSymbolTableRecord
100
AcDbBlockTableRecord
  2
*Paper_Space0
340
26
 70
     0
280
     1
281
     0
  0
BLOCK_RECORD
  5
40
330
1
100
AcDbSymbolTableRecord
100
AcDbBlockTableRecord
  2
block 2
340
0
102
{BLKREFS
331
41
102
}
 70
     0
280
     1
281
     0
  0
BLOCK_RECORD
  5
4C
330
1
100
AcDbSymbolTableRecord
100
AcDbBlockTableRecord
  2
block 3
340
0
102
{BLKREFS
331
4D
102
}
 70
     0
280
     1
281
     0
  0
BLOCK_RECORD
  5
51
330
1
100
AcDbSymbolTableRecord
100
AcDbBlockTableRecord
  2
block 4
340
0
102
{BLKREFS
331
52
102
}
 70
     0
280
     1
281
     0
  0
BLOCK_RECORD
  5
56
330
1
100
AcDbSymbolTableRecord
100
AcDbBlockTableRecord
  2
block 5
340
0
102
{BLKREFS
331
57
102
}
 70
     0
280
     1
281
     0
  0
BLOCK_RECORD
  5
5B
330
1
100
AcDbSymbolTableRecord
100
AcDbBlockTableRecord
  2
block 6
340
0
102
{BLKREFS
331
5C
102
}
 70
     0
280
     1
281
     0
  0
BLOCK_RECORD
  5
60
330
1
100
AcDbSymbolTableRecord
100
AcDbBlockTableRecord
  2
block 7
340
0
102
{BLKREFS
331
61
102
}
 70
     0
280
     1
281
     0
  0
BLOCK_RECORD
  5
66
330
1
100
AcDbSymbolTableRecord
100
AcDbBlockTableRecord
  2
block 8
340
0
102
{BLKREFS
331
67
102
}
 70
     0
280
     1
281
     0
  0
ENDTAB
  0
ENDSEC
  0
SECTION
  2
BLOCKS
  0
BLOCK
  5
20
330
1F
100
AcDbEntity
  8
0
100
AcDbBlockBegin
  2
*Model_Space
 70
     0
 10
0.0
 20
0.0
 30
0.0
  3
*Model_Space
  1

  0
ENDBLK
  5
21
330
1F
100
AcDbEntity
  8
0
100
AcDbBlockEnd
  0
BLOCK
  5
1C
330
1B
100
AcDbEntity
 67
     1
  8
0
100
AcDbBlockBegin
  2
*Paper_Space
 70
     0
 10
0.0
 20
0.0
 30
0.0
  3
*Paper_Space
  1

  0
ENDBLK
  5
1D
330
1B
100
AcDbEntity
 67
     1
  8
0
100
AcDbBlockEnd
  0
BLOCK
  5
24
330
23
100
AcDbEntity
  8
0
100
AcDbBlockBegin
  2
*Paper_Space0
 70
     0
 10
0.0
 20
0.0
 30
0.0
  3
*Paper_Space0
  1

  0
ENDBLK
  5
25
330
23
100
AcDbEntity
  8
0
100
AcDbBlockEnd
  0
BLOCK
  5
42
330
40
100
AcDbEntity
  8
0
100
AcDbBlockBegin
  2
block 2
 70
     0
 10
0.0
 20
0.0
 30
0.0
  3
block 2
  1

  0
POLYLINE
  5
44
330
40
100
AcDbEntity
  8
0
 62
     7
420
 16777215
370
     5
100
AcDb2dPolyline
 66
     1
 10
0.0
 20
0.0
 30
0.0
  0
VERTEX
  5
45
330
44
100
AcDbEntity
  8
0
 62
     7
420
 16777215
370
     5
100
AcDbVertex
100
AcDb2dVertex
 10
98.39677775166163
 20
152.3788332964612
 30
0.0
  0
VERTEX
  5
46
330
44
100
AcDbEntity
  8
0
 62
     7
420
 16777215
370
     5
100
AcDbVertex
100
AcDb2dVertex
 10
98.39677775133116
 20
145.0128332964607
 30
0.0
  0
VERTEX
  5
47
330
44
100
AcDbEntity
  8
0
 62
     7
420
 16777215
370
     5
100
AcDbVertex
100
AcDb2dVertex
 10
111.8587777513307
 20
145.0128332958562
 30
0.0
  0
VERTEX
  5
48
330
44
100
AcDbEntity
  8
0
 62
     7
420
 16777215
370
     5
100
AcDbVertex
100
AcDb2dVertex
 10
111.8587777516618
 20
152.3788332958571
 30
0.0
  0
VERTEX
  5
49
330
44
100
AcDbEntity
  8
0
 62
     7
420
 16777215
370
     5
100
AcDbVertex
100
AcDb2dVertex
 10
98.39677775166163
 20
152.3788332964612
 30
0.0
  0
SEQEND
  5
4B
330
44
100
AcDbEntity
  8
0
 62
     7
420
 16777215
370
     5
  0
HATCH
  5
4A
330
40
100
AcDbEntity
  8
0
 62
     7
420
 16777215
100
AcDbHatch
 10
0.0
 20
0.0
 30
0.0
210
0.0
220
0.0
230
1.0
  2
SOLID
 70
     1
 71
     0
 91
        1
 92
        1
 93
        4
 72
     1
 10
98.39677775166163
 20
152.3788332964612
 11
98.39677775133116
 21
145.0128332964607
 72
     1
 10
98.39677775133116
 20
145.0128332964607
 11
111.8587777513307
 21
145.0128332958562
 72
     1
 10
111.8587777513307
 20
145.0128332958562
 11
111.8587777516618
 21
152.3788332958571
 72
     1
 10
111.8587777516618
 20
152.3788332958571
 11
98.39677775166163
 21
152.3788332964612
 97
        0
 75
     2
 76
     1
 98
        0
  0
ENDBLK
  5
43
330
40
100
AcDbEntity
  8
0
100
AcDbBlockEnd
  0
BLOCK
  5
4E
330
4C
100
AcDbEntity
  8
0
100
AcDbBlockBegin
  2
block 3
 70
     0
 10
0.0
 20
0.0
 30
0.0
  3
block 3
  1

  0
SPLINE
  5
50
330
4C
100
AcDbEntity
  8
0
 62
     7
420
 16777215
370
     5
100
AcDbSpline
210
0.0
220
0.0
230
1.0
 70
    11
 71
     3
 72
   587
 73
   583
 74
     0
 42
0.0000000001
 43
0.0000000001
 12
1.0
 22
0.0
 32
0.0
 13
1.0
 23
0.0
 33
0.0
 40
0.0
 40
0.0
 40
0.0
 40
0.0
 40
1.0
 40
1.0
 40
1.0
 40
2.0
 40
2.0
 40
2.0
 40
3.0
 40
3.0
 40
3.0
 40
4.0
 40
4.0
 40
4.0
 40
5.0
 40
5.0
 40
5.0
 40
6.0
 40
6.0
 40
6.0
 40
7.0
 40
7.0
 40
7.0
 40
8.0
 40
8.0
 40
8.0
 40
9.0
 40
9.0
 40
9.0
 40
10.0
 40
10.0
 40
10.0
 40
11.0
 40
11.0
 40
11.0
 40
12.0
 40
12.0
 40
12.0
 40
13.0
 40
13.0
 40
13.0
 40
14.0
 40
14.0
 40
14.0
 40
15.0
 40
15.0
 40
15.0
 40
16.0
 40
16.0
 40
16.0
 40
17.0
 40
17.0
 40
17.0
 40
18.0
 40
18.0
 40
18.0
 40
19.0
 40
19.0
 40
19.0
 40
20.0
 40
20.0
 40
20.0
 40
21.0
 40
21.0
 40
21.0
 40
22.0
 40
22.0
 40
22.0
 40
23.0
 40
23.0
 40
23.0
 40
24.0
 40
24.0
 40
24.0
 40
25.0
 40
25.0
 40
25.0
 40
26.0
 40
26.0
 40
26.0
 40
27.0
 40
27.0
 40
27.0
 40
28.0
 40
28.0
 40
28.0
 40
29.0
 40
29.0
 40
29.0
 40
30.0
 40
30.0
 40
30.0
 40
31.0
 40
31.0
 40
31.0
 40
32.0
 40
32.0
 40
32.0
 40
33.0
 40
33.0
 40
33.0
 40
34.0
 40
34.0
 40
34.0
 40
35.0
 40
35.0
 40
35.0
 40
36.0
 40
36.0
 40
36.0
 40
37.0
 40
37.0
 40
37.0
 40
38.0
 40
38.0
 40
38.0
 40
39.0
 40
39.0
 40
39.0
 40
40.0
 40
40.0
 40
40.0
 40
41.0
 40
41.0
 40
41.0
 40
42.0
 40
42.0
 40
42.0
 40
43.0
 40
43.0
 40
43.0
 40
44.0
 40
44.0
 40
44.0
 40
45.0
 40
45.0
 40
45.0
 40
46.0
 40
46.0
 40
46.0
 40
47.0
 40
47.0
 40
47.0
 40
48.0
 40
48.0
 40
48.0
 40
49.0
 40
49.0
 40
49.0
 40
50.0
 40
50.0
 40
50.0
 40
51.0
 40
51.0
 40
51.0
 40
52.0
 40
52.0
 40
52.0
 40
53.0
 40
53.0
 40
53.0
 40
54.0
 40
54.0
 40
54.0
 40
55.0
 40
55.0
 40
55.0
 40
56.0
 40
56.0
 40
56.0
 40
57.0
 40
57.0
 40
57.0
 40
58.0
 40
58.0
 40
58.0
 40
59.0
 40
59.0
 40
59.0
 40
60.0
 40
60.0
 40
60.0
 40
61.0
 40
61.0
 40
61.0
 40
62.0
 40
62.0
 40
62.0
 40
63.0
 40
63.0
 40
63.0
 40
64.0
 40
64.0
 40
64.0
 40
65.0
 40
65.0
 40
65.0
 40
66.0
 40
66.0
 40
66.0
 40
67.0
 40
67.0
 40
67.0
 40
68.0
 40
68.0
 40
68.0
 40
69.0
 40
69.0
 40
69.0
 40
70.0
 40
70.0
 40
70.0
 40
71.0
 40
71.0
 40
71.0
 40
72.0
 40
72.0
 40
72.0
 40
73.0
 40
73.0
 40
73.0
 40
74.0
 40
74.0
 40
74.0
 40
75.0
 40
75.0
 40
75.0
 40
76.0
 40
76.0
 40
76.0
 40
77.0
 40
77.0
 40
77.0
 40
78.0
 40
78.0
 40
78.0
 40
79.0
 40
79.0
 40
79.0
 40
80.0
 40
80.0
 40
80.0
 40
81.0
 40
81.0
 40
81.0
 40
82.0
 40
82.0
 40
82.0
 40
83.0
 40
83.0
 40
83.0
 40
84.0
 40
84.0
 40
84.0
 40
85.0
 40
85.0
 40
85.0
 40
86.0
 40
86.0
 40
86.0
 40
87.0
 40
87.0
 40
87.0
 40
88.0
 40
88.0
 40
88.0
 40
89.0
 40
89.0
 40
89.0
 40
90.0
 40
90.0
 40
90.0
 40
91.0
 40
91.0
 40
91.0
 40
92.0
 40
92.0
 40
92.0
 40
93.0
 40
93.0
 40
93.0
 40
94.0
 40
94.0
 40
94.0
 40
95.0
 40
95.0
 40
95.0
 40
96.0
 40
96.0
 40
96.0
 40
97.0
 40
97.0
 40
97.0
 40
98.0
 40
98.0
 40
98.0
 40
99.0
 40
99.0
 40
99.0
 40
100.0
 40
100.0
 40
100.0
 40
101.0
 40
101.0
 40
101.0
 40
102.0
 40
102.0
 40
102.0
 40
103.0
 40
103.0
 40
103.0
 40
104.0
 40
104.0
 40
104.0
 40
105.0
 40
105.0
 40
105.0
 40
106.0
 40
106.0
 40
106.0
 40
107.0
 40
107.0
 40
107.0
 40
108.0
 40
108.0
 40
108.0
 40
109.0
 40
109.0
 40
109.0
 40
110.0
 40
110.0
 40
110.0
 40
111.0
 40
111.0
 40
111.0
 40
112.0
 40
112.0
 40
112.0
 40
113.0
 40
113.0
 40
113.0
 40
114.0
 40
114.0
 40
114.0
 40
115.0
 40
115.0
 40
115.0
 40
116.0
 40
116.0
 40
116.0
 40
117.0
 40
117.0
 40
117.0
 40
118.0
 40
118.0
 40
118.0
 40
119.0
 40
119.0
 40
119.0
 40
120.0
 40
120.0
 40
120.0
 40
121.0
 40
121.0
 40
121.0
 40
122.0
 40
122.0
 40
122.0
 40
123.0
 40
123.0
 40
123.0
 40
124.0
 40
124.0
 40
124.0
 40
125.0
 40
125.0
 40
125.0
 40
126.0
 40
126.0
 40
126.0
 40
127.0
 40
127.0
 40
127.0
 40
128.0
 40
128.0
 40
128.0
 40
129.0
 40
129.0
 40
129.0
 40
130.0
 40
130.0
 40
130.0
 40
131.0
 40
131.0
 40
131.0
 40
132.0
 40
132.0
 40
132.0
 40
133.0
 40
133.0
 40
133.0
 40
134.0
 40
134.0
 40
134.0
 40
135.0
 40
135.0
 40
135.0
 40
136.0
 40
136.0
 40
136.0
 40
137.0
 40
137.0
 40
137.0
 40
138.0
 40
138.0
 40
138.0
 40
139.0
 40
139.0
 40
139.0
 40
140.0
 40
140.0
 40
140.0
 40
141.0
 40
141.0
 40
141.0
 40
142.0
 40
142.0
 40
142.0
 40
143.0
 40
143.0
 40
143.0
 40
144.0
 40
144.0
 40
144.0
 40
145.0
 40
145.0
 40
145.0
 40
146.0
 40
146.0
 40
146.0
 40
147.0
 40
147.0
 40
147.0
 40
148.0
 40
148.0
 40
148.0
 40
149.0
 40
149.0
 40
149.0
 40
150.0
 40
150.0
 40
150.0
 40
151.0
 40
151.0
 40
151.0
 40
152.0
 40
152.0
 40
152.0
 40
153.0
 40
153.0
 40
153.0
 40
154.0
 40
154.0
 40
154.0
 40
155.0
 40
155.0
 40
155.0
 40
156.0
 40
156.0
 40
156.0
 40
157.0
 40
157.0
 40
157.0
 40
158.0
 40
158.0
 40
158.0
 40
159.0
 40
159.0
 40
159.0
 40
160.0
 40
160.0
 40
160.0
 40
161.0
 40
161.0
 40
161.0
 40
162.0
 40
162.0
 40
162.0
 40
163.0
 40
163.0
 40
163.0
 40
164.0
 40
164.0
 40
164.0
 40
165.0
 40
165.0
 40
165.0
 40
166.0
 40
166.0
 40
166.0
 40
167.0
 40
167.0
 40
167.0
 40
168.0
 40
168.0
 40
168.0
 40
169.0
 40
169.0
 40
169.0
 40
170.0
 40
170.0
 40
170.0
 40
171.0
 40
171.0
 40
171.0
 40
172.0
 40
172.0
 40
172.0
 40
173.0
 40
173.0
 40
173.0
 40
174.0
 40
174.0
 40
174.0
 40
175.0
 40
175.0
 40
175.0
 40
176.0
 40
176.0
 40
176.0
 40
177.0
 40
177.0
 40
177.0
 40
178.0
 40
178.0
 40
178.0
 40
179.0
 40
179.0
 40
179.0
 40
180.0
 40
180.0
 40
180.0
 40
181.0
 40
181.0
 40
181.0
 40
182.0
 40
182.0
 40
182.0
 40
183.0
 40
183.0
 40
183.0
 40
184.0
 40
184.0
 40
184.0
 40
185.0
 40
185.0
 40
185.0
 40
186.0
 40
186.0
 40
186.0
 40
187.0
 40
187.0
 40
187.0
 40
188.0
 40
188.0
 40
188.0
 40
189.0
 40
189.0
 40
189.0
 40
190.0
 40
190.0
 40
190.0
 40
191.0
 40
191.0
 40
191.0
 40
192.0
 40
192.0
 40
192.0
 40
193.0
 40
193.0
 40
193.0
 40
194.0
 40
194.0
 40
194.0
 40
194.0
 10
105.5530452454333
 20
147.2883912581406
 30
0.0
 10
105.5530452454333
 20
147.2883912581406
 30
0.0
 10
105.3484935244332
 20
147.2844398241491
 30
0.0
 10
105.3484935244332
 20
147.2844398241491
 30
0.0
 10
105.3256864204331
 20
147.2850784991497
 30
0.0
 10
105.302879316005
 20
147.2857171736498
 30
0.0
 10
105.2801901776891
 20
147.2878267677008
 30
0.0
 10
105.2586037818144
 20
147.289833830802
 30
0.0
 10
105.237124163879
 20
147.2931723081189
 30
0.0
 10
105.2158382641357
 20
147.2974231055674
 30
0.0
 10
105.1951001733954
 20
147.3015645054731
 30
0.0
 10
105.1745459581793
 20
147.3065718712444
 30
0.0
 10
105.1543088034279
 20
147.3126643479378
 30
0.0
 10
105.1345852996519
 20
147.3186021879442
 30
0.0
 10
105.1151629656072
 20
147.3255707542655
 30
0.0
 10
105.0961662847746
 20
147.3335504954783
 30
0.0
 10
105.0774572554893
 20
147.3414094058516
 30
0.0
 10
105.0591610863596
 20
147.3502491001381
 30
0.0
 10
105.0414107093208
 20
147.3600815473802
 30
0.0
 10
105.0235006281046
 20
147.3700024593853
 30
0.0
 10
105.006146204393
 20
147.3809340687577
 30
0.0
 10
104.9894775861356
 20
147.3928219946442
 30
0.0
 10
104.972794177176
 20
147.4047204691401
 30
0.0
 10
104.9567977912932
 20
147.417576958055
 30
0.0
 10
104.9414958963188
 20
147.4312073465302
 30
0.0
 10
104.9256908752253
 20
147.4452859020127
 30
0.0
 10
104.9106267655537
 20
147.4601900853288
 30
0.0
 10
104.8963366589915
 20
147.4758020933048
 30
0.0
 10
104.8819833862921
 20
147.4914831105798
 30
0.0
 10
104.8684109744325
 20
147.507878223897
 30
0.0
 10
104.8556933449154
 20
147.5249127647649
 30
0.0
 10
104.8429498141547
 20
147.5419819988731
 30
0.0
 10
104.831064551053
 20
147.5596932677526
 30
0.0
 10
104.8201304455419
 20
147.577974867959
 30
0.0
 10
104.8091946320982
 20
147.5962593237929
 30
0.0
 10
104.7992102734134
 20
147.6151142891408
 30
0.0
 10
104.7902124504894
 20
147.6344239157418
 30
0.0
 10
104.7809409659813
 20
147.654320829186
 30
0.0
 10
104.7727169391937
 20
147.6747004807691
 30
0.0
 10
104.7653748697191
 20
147.6953888862428
 30
0.0
 10
104.7578670453925
 20
147.7165443539768
 30
0.0
 10
104.7512814500997
 20
147.7380226738449
 30
0.0
 10
104.7456177035088
 20
147.7597407990338
 30
0.0
 10
104.7397397573436
 20
147.7822802909809
 30
0.0
 10
104.7348547059622
 20
147.8050780698381
 30
0.0
 10
104.7309409513402
 20
147.8280441458433
 30
0.0
 10
104.7268930495834
 20
147.8517974028528
 30
0.0
 10
104.7238841696739
 20
147.8757306917774
 30
0.0
 10
104.721909104029
 20
147.8997344361532
 30
0.0
 10
104.7198232922472
 20
147.925084121593
 30
0.0
 10
104.7188904814629
 20
147.9505123851772
 30
0.0
 10
104.7179576704635
 20
147.9759406491773
 30
0.0
 10
104.7185717874648
 20
147.9931225851779
 30
0.0
 10
104.7191859036928
 20
148.0103045215173
 30
0.0
 10
104.7213446136398
 20
148.0273092816936
 30
0.0
 10
104.7232525653323
 20
148.042338749179
 30
0.0
 10
104.7263671089887
 20
148.0572298117672
 30
0.0
 10
104.7303764609324
 20
148.0719040288365
 30
0.0
 10
104.7339164952643
 20
148.0848605447388
 30
0.0
 10
104.7381541137148
 20
148.0976480099152
 30
0.0
 10
104.7439242319691
 20
148.1097248901222
 30
0.0
 10
104.749166691309
 20
148.1206973781451
 30
0.0
 10
104.7556741815711
 20
148.1310833003791
 30
0.0
 10
104.7631169081695
 20
148.1407718659011
 30
0.0
 10
104.770118436408
 20
148.1498861016848
 30
0.0
 10
104.7779476074221
 20
148.1583832076337
 30
0.0
 10
104.7868255082012
 20
148.1656094468389
 30
0.0
 10
104.7957369376999
 20
148.1728629770184
 30
0.0
 10
104.8057050332919
 20
148.178836023091
 30
0.0
 10
104.8161790123326
 20
148.1836731418011
 30
0.0
 10
104.8270283630681
 20
148.188683615589
 30
0.0
 10
104.8384205072176
 20
148.1924752831658
 30
0.0
 10
104.8500484403288
 20
148.1949629513312
 30
0.0
 10
104.863024140302
 20
148.1977389593664
 30
0.0
 10
104.876293456474
 20
148.1988911621706
 30
0.0
 10
104.8895627734741
 20
148.20004336517
 30
0.0
 10
104.901284620474
 20
148.1993613971698
 30
0.0
 10
104.9130064669686
 20
148.1986794285975
 30
0.0
 10
104.9245611820294
 20
148.1966564225786
 30
0.0
 10
104.9350086240844
 20
148.1948272785415
 30
0.0
 10
104.9453194318817
 20
148.1919018018069
 30
0.0
 10
104.9550436676861
 20
148.1876245747681
 30
0.0
 10
104.9643416322336
 20
148.1835348441023
 30
0.0
 10
104.9731033235337
 20
148.1782092761776
 30
0.0
 10
104.9810102290583
 20
148.1718188420845
 30
0.0
 10
104.9889034902587
 20
148.1654394354611
 30
0.0
 10
104.9959449132114
 20
148.1579988346089
 30
0.0
 10
105.001896376652
 20
148.1498037136615
 30
0.0
 10
105.0082405702392
 20
148.1410678062182
 30
0.0
 10
105.0133462077368
 20
148.1314745132932
 30
0.0
 10
105.0177021096381
 20
148.1215791901191
 30
0.0
 10
105.0226058509391
 20
148.1104393375601
 30
0.0
 10
105.0265594096873
 20
148.0989167048902
 30
0.0
 10
105.0295564096838
 20
148.0871452715791
 30
0.0
 10
105.0329473317754
 20
148.0738266151507
 30
0.0
 10
105.0351137115782
 20
148.0601894556418
 30
0.0
 10
105.0363302950816
 20
148.0465019574332
 30
0.0
 10
105.0377145670045
 20
148.0309278357933
 30
0.0
 10
105.0378691664654
 20
148.0152885421633
 30
0.0
 10
105.0380237664647
 20
147.9996492491635
 30
0.0
 10
105.0386481724639
 20
147.9700384451635
 30
0.0
 10
105.0392725782
 20
147.9404276419041
 30
0.0
 10
105.042539690241
 20
147.9110242455139
 30
0.0
 10
105.0455272664995
 20
147.8841366188035
 30
0.0
 10
105.0507246726478
 20
147.8574224256274
 30
0.0
 10
105.0583454231931
 20
147.831431089223
 30
0.0
 10
105.0654629600229
 20
147.8071560138229
 30
0.0
 10
105.074694370834
 20
147.7835114835997
 30
0.0
 10
105.0860054565118
 20
147.7608697804808
 30
0.0
 10
105.0968288231771
 20
147.7392043575733
 30
0.0
 10
105.1095563856371
 20
147.7184571450966
 30
0.0
 10
105.1243908080526
 20
147.6993403198121
 30
0.0
 10
105.1315925521057
 20
147.6900595754085
 30
0.0
 10
105.1392908538922
 20
147.6811630907031
 30
0.0
 10
105.1475349174507
 20
147.6728092674392
 30
0.0
 10
105.1552082050848
 20
147.6650338192883
 30
0.0
 10
105.1633542991829
 20
147.6577284917123
 30
0.0
 10
105.1718080078331
 20
147.65079413896
 30
0.0
 10
105.1799342850379
 20
147.6441283695306
 30
0.0
 10
105.1883448090465
 20
147.6378053940545
 30
0.0
 10
105.1972100790965
 20
147.6321659532098
 30
0.0
 10
105.2060225238528
 20
147.62656011598
 30
0.0
 10
105.2152843114247
 20
147.6216296917241
 30
0.0
 10
105.2248701115579
 20
147.6174892010148
 30
0.0
 10
105.2342161498803
 20
147.6134522730277
 30
0.0
 10
105.2438701949458
 20
147.6101662568468
 30
0.0
 10
105.2536591256717
 20
147.6073283728932
 30
0.0
 10
105.2634947979045
 20
147.6044769382297
 30
0.0
 10
105.2734666470143
 20
147.6020779256144
 30
0.0
 10
105.2835771205593
 20
147.6005544874017
 30
0.0
 10
105.2940227081669
 20
147.5989805544654
 30
0.0
 10
105.3046162619834
 20
147.598341200089
 30
0.0
 10
105.3151885870694
 20
147.5982965256641
 30
0.0
 10
105.32649126429
 20
147.5982487650634
 30
0.0
 10
105.3377696784471
 20
147.5988806851498
 30
0.0
 10
105.349048092447
 20
147.5995126051489
 30
0.0
 10
105.349048092447
 20
147.5995126051489
 30
0.0
 10
105.5409847744467
 20
147.5994255061408
 30
0.0
 10
105.5409847744467
 20
147.5994255061408
 30
0.0
 10
105.5628917954473
 20
147.6002259571398
 30
0.0
 10
105.5847988163747
 20
147.6010264085854
 30
0.0
 10
105.6064656688632
 20
147.6039414300512
 30
0.0
 10
105.625767892466
 20
147.6065383183696
 30
0.0
 10
105.6448795090152
 20
147.6108134120414
 30
0.0
 10
105.6634792061965
 20
147.6169247110036
 30
0.0
 10
105.6804348933409
 20
147.622495837902
 30
0.0
 10
105.6969651578408
 20
147.6295929147039
 30
0.0
 10
105.7120253865435
 20
147.6389398394238
 30
0.0
 10
105.7264753687881
 20
147.6479080230366
 30
0.0
 10
105.7395720344501
 20
147.6589474191318
 30
0.0
 10
105.7526687004502
 20
147.6699868151321
 30
0.0
 10
105.762859644451
 20
147.6805143531313
 30
0.0
 10
105.7730505885045
 20
147.6910418918518
 30
0.0
 10
105.7825866950407
 20
147.7021627717997
 30
0.0
 10
105.7923882830491
 20
147.7135932526899
 30
0.0
 10
105.8014980651713
 20
147.7256505714474
 30
0.0
 10
105.8096822376885
 20
147.7382901613384
 30
0.0
 10
105.8180190789135
 20
147.7511655319203
 30
0.0
 10
105.8253954555381
 20
147.7646450997872
 30
0.0
 10
105.8322618564176
 20
147.7783689846223
 30
0.0
 10
105.839465320504
 20
147.79276655815
 30
0.0
 10
105.8461075117828
 20
147.8074330238182
 30
0.0
 10
105.852019022995
 20
147.822399241496
 30
0.0
 10
105.8580759471385
 20
147.8377336021925
 30
0.0
 10
105.8633658021731
 20
147.8533826430319
 30
0.0
 10
105.8678247560158
 20
147.8692519505626
 30
0.0
 10
105.8723193068151
 20
147.8852479467929
 30
0.0
 10
105.8759696368779
 20
147.9014677406416
 30
0.0
 10
105.8791145653008
 20
147.9177981308205
 30
0.0
 10
105.8822830049085
 20
147.9342506054404
 30
0.0
 10
105.8849384579603
 20
147.9508153361886
 30
0.0
 10
105.8864529412154
 20
147.9674732916797
 30
0.0
 10
105.8880207454049
 20
147.9847177295556
 30
0.0
 10
105.8883658244651
 20
148.0020620721252
 30
0.0
 10
105.8887109034664
 20
148.0194064151248
 30
0.0
 10
105.8882235004669
 20
148.0361677591244
 30
0.0
 10
105.8877360969912
 20
148.0529291027725
 30
0.0
 10
105.8864529412937
 20
148.0696460671784
 30
0.0
 10
105.8851899093383
 20
148.0861008592918
 30
0.0
 10
105.8831558890174
 20
148.1025126532508
 30
0.0
 10
105.8802435461048
 20
148.1187567380096
 30
0.0
 10
105.877383365358
 20
148.1347098794772
 30
0.0
 10
105.8736760430415
 20
148.150501265532
 30
0.0
 10
105.8695182271146
 20
148.1661739370682
 30
0.0
 10
105.8653795147837
 20
148.1817745985949
 30
0.0
 10
105.8607944390279
 20
148.1972576339957
 30
0.0
 10
105.8554059652806
 20
148.2124621558445
 30
0.0
 10
105.850106581691
 20
148.2274152942193
 30
0.0
 10
105.8440301464071
 20
148.2420990524998
 30
0.0
 10
105.8373422704849
 20
148.2564924124449
 30
0.0
 10
105.830991250006
 20
148.2701608065419
 30
0.0
 10
105.8240888318761
 20
148.2835673191906
 30
0.0
 10
105.8164561232646
 20
148.2965712355186
 30
0.0
 10
105.8091054757267
 20
148.3090946017834
 30
0.0
 10
105.8010775150939
 20
148.3212445772312
 30
0.0
 10
105.7921830329451
 20
148.3326986252608
 30
0.0
 10
105.7835120374095
 20
148.3438648739134
 30
0.0
 10
105.7740175184807
 20
148.3543697281301
 30
0.0
 10
105.7645230004818
 20
148.3648745821305
 30
0.0
 10
105.7559977464814
 20
148.373547435131
 30
0.0
 10
105.7474724925305
 20
148.382220287744
 30
0.0
 10
105.7379919480973
 20
148.3897121630939
 30
0.0
 10
105.7274090119999
 20
148.3980751889359
 30
0.0
 10
105.7156357079058
 20
148.4049666230824
 30
0.0
 10
105.7035580294758
 20
148.4111628005904
 30
0.0
 10
105.6900091001422
 20
148.4181137698243
 30
0.0
 10
105.6760771246928
 20
148.4241897791057
 30
0.0
 10
105.6617857346022
 20
148.4292264954516
 30
0.0
 10
105.645837030918
 20
148.4348472990287
 30
0.0
 10
105.6294407194851
 20
148.4391737881367
 30
0.0
 10
105.6130444084854
 20
148.4435002761375
 30
0.0
 10
105.6130444084854
 20
148.4435002761375
 30
0.0
 10
105.2689003684888
 20
148.529705799153
 30
0.0
 10
105.2689003684888
 20
148.529705799153
 30
0.0
 10
105.2422557354892
 20
148.5370411671543
 30
0.0
 10
105.2156111029928
 20
148.5443765346687
 30
0.0
 10
105.189307212359
 20
148.5528499084952
 30
0.0
 10
105.1677122174567
 20
148.5598063875627
 30
0.0
 10
105.1463468859199
 20
148.5675298940727
 30
0.0
 10
105.1255197892711
 20
148.5765585081911
 30
0.0
 10
105.1071312646853
 20
148.5845299933903
 30
0.0
 10
105.0891623136957
 20
148.5935188572556
 30
0.0
 10
105.0718931945064
 20
148.6036540502982
 30
0.0
 10
105.0548820900462
 20
148.6136378152889
 30
0.0
 10
105.0385500614935
 20
148.6247339111633
 30
0.0
 10
105.022218033494
 20
148.6358300071638
 30
0.0
 10
105.0035085564945
 20
148.6515334801647
 30
0.0
 10
104.9847990801541
 20
148.6672369525069
 30
0.0
 10
104.9674624577199
 20
148.6843761880624
 30
0.0
 10
104.9497361309121
 20
148.7019006909964
 30
0.0
 10
104.9334450715867
 20
148.7209262307439
 30
0.0
 10
104.9183517870568
 20
148.7408252347133
 30
0.0
 10
104.9027503173846
 20
148.7613942305681
 30
0.0
 10
104.8884286375997
 20
148.7828964992575
 30
0.0
 10
104.8754505112688
 20
148.805177147796
 30
0.0
 10
104.8618521935961
 20
148.8285225313331
 30
0.0
 10
104.84972890751
 20
148.8527224658076
 30
0.0
 10
104.8387586311541
 20
148.877431927922
 30
0.0
 10
104.8274621119996
 20
148.9028762196643
 30
0.0
 10
104.8173882005331
 20
148.9288607951466
 30
0.0
 10
104.8088406361048
 20
148.9553316128997
 30
0.0
 10
104.8002852524127
 20
148.9818266460093
 30
0.0
 10
104.793259009624
 20
149.0088088114205
 30
0.0
 10
104.7873899982265
 20
149.0360537502407
 30
0.0
 10
104.7814819772732
 20
149.0634797779801
 30
0.0
 10
104.7767466223749
 20
149.0911720838897
 30
0.0
 10
104.7738422271128
 20
149.1190338488223
 30
0.0
 10
104.770873094781
 20
149.1475166342614
 30
0.0
 10
104.7698174535177
 20
149.1761765171755
 30
0.0
 10
104.768761812519
 20
149.2048364001757
 30
0.0
 10
104.7694826395199
 20
149.2283870521755
 30
0.0
 10
104.7702034661901
 20
149.2519377044628
 30
0.0
 10
104.7721487556822
 20
149.27539770919
 30
0.0
 10
104.7739977576161
 20
149.2976964951978
 30
0.0
 10
104.7769530059042
 20
149.3199133852667
 30
0.0
 10
104.7806161130739
 20
149.342007584148
 30
0.0
 10
104.7841673521924
 20
149.36342704575
 30
0.0
 10
104.7883838756006
 20
149.3847311954986
 30
0.0
 10
104.793599393828
 20
149.405795006673
 30
0.0
 10
104.7986938858867
 20
149.4263700318341
 30
0.0
 10
104.8047415473202
 20
149.4467157431243
 30
0.0
 10
104.8116630883735
 20
149.4667599776292
 30
0.0
 10
104.818338309003
 20
149.4860908877026
 30
0.0
 10
104.8258263175926
 20
149.5051413967966
 30
0.0
 10
104.8342427073686
 20
149.523773515695
 30
0.0
 10
104.8425932254259
 20
149.5422598084483
 30
0.0
 10
104.8518576494002
 20
149.5603342345223
 30
0.0
 10
104.86190274006
 20
149.5779646000452
 30
0.0
 10
104.8718312865037
 20
149.5953904161794
 30
0.0
 10
104.8825224899604
 20
149.6123824160632
 30
0.0
 10
104.8940786970491
 20
149.6287687424463
 30
0.0
 10
104.905666934815
 20
149.6452004872895
 30
0.0
 10
104.9181249779698
 20
149.661023196453
 30
0.0
 10
104.9313350683236
 20
149.6761859414368
 30
0.0
 10
104.9443662615211
 20
149.6911433455124
 30
0.0
 10
104.9581292706997
 20
149.7054585394526
 30
0.0
 10
104.9725428721799
 20
149.7190872169031
 30
0.0
 10
104.9866069853342
 20
149.732385438175
 30
0.0
 10
105.0012905233091
 20
149.7450300314342
 30
0.0
 10
105.0165731293366
 20
149.7569080789877
 30
0.0
 10
105.0316226883342
 20
149.7686049961952
 30
0.0
 10
105.0472531841105
 20
149.7795585678157
 30
0.0
 10
105.063425837724
 20
149.7896485257996
 30
0.0
 10
105.0796528192362
 20
149.7997723784205
 30
0.0
 10
105.0964256071856
 20
149.809026805481
 30
0.0
 10
105.11366548952
 20
149.8173085586076
 30
0.0
 10
105.1309345755064
 20
149.8256043406826
 30
0.0
 10
105.1486723396965
 20
149.832924150694
 30
0.0
 10
105.1667275936902
 20
149.8393236866844
 30
0.0
 10
105.185250104755
 20
149.8458888380936
 30
0.0
 10
105.2041067510772
 20
149.8514854670709
 30
0.0
 10
105.2231766406125
 20
149.8562584008843
 30
0.0
 10
105.2427353817302
 20
149.8611536875958
 30
0.0
 10
105.2625184390587
 20
149.865182507444
 30
0.0
 10
105.2824481392965
 20
149.8681127006994
 30
0.0
 10
105.3032087253606
 20
149.8711650561557
 30
0.0
 10
105.324128436549
 20
149.8730252701505
 30
0.0
 10
105.3450481485492
 20
149.8748854841494
 30
0.0
 10
105.3450481485492
 20
149.8748854841494
 30
0.0
 10
105.5490453015496
 20
149.8850468641405
 30
0.0
 10
105.5490453015496
 20
149.8850468641405
 30
0.0
 10
105.5490453015496
 20
149.8850468641405
 30
0.0
 10
105.5686448075499
 20
149.8844829241395
 30
0.0
 10
105.5686448075499
 20
149.8844829241395
 30
0.0
 10
105.5918587755498
 20
149.8841187921386
 30
0.0
 10
105.6150727428445
 20
149.8837546592631
 30
0.0
 10
105.6380771349998
 20
149.8810959820573
 30
0.0
 10
105.6615619319696
 20
149.8783817832224
 30
0.0
 10
105.684828309212
 20
149.8732762046344
 30
0.0
 10
105.7075094627827
 20
149.8664192295928
 30
0.0
 10
105.7310966975584
 20
149.859288327734
 30
0.0
 10
105.7540510169301
 20
149.8502633025713
 30
0.0
 10
105.7763772998133
 20
149.8398881774833
 30
0.0
 10
105.7999142285741
 20
149.8289504597556
 30
0.0
 10
105.8227531634531
 20
149.8165122535924
 30
0.0
 10
105.8446806471317
 20
149.8026318061479
 30
0.0
 10
105.8673370503101
 20
149.7882899410158
 30
0.0
 10
105.8890203976634
 20
149.7724083540849
 30
0.0
 10
105.9095970506212
 20
149.7552146070755
 30
0.0
 10
105.930139178977
 20
149.7380497086483
 30
0.0
 10
105.9495783235653
 20
149.7195770496726
 30
0.0
 10
105.9677395685878
 20
149.6998945414943
 30
0.0
 10
105.9865522194187
 20
149.6795060629851
 30
0.0
 10
106.0039936554993
 20
149.6578193892829
 30
0.0
 10
106.0196726919103
 20
149.6349781372293
 30
0.0
 10
106.0357771678201
 20
149.6115171040517
 30
0.0
 10
106.0500223035361
 20
149.5868379851179
 30
0.0
 10
106.0642674395358
 20
149.5621588671171
 30
0.0
 10
106.0763812255339
 20
149.5377699211168
 30
0.0
 10
106.0884950122841
 20
149.5133809757351
 30
0.0
 10
106.0987013576831
 20
149.488210615717
 30
0.0
 10
106.1086850876812
 20
149.4635892582625
 30
0.0
 10
106.1168436770835
 20
149.4382202020258
 30
0.0
 10
106.12410342889
 20
149.4125688927786
 30
0.0
 10
106.1308940378169
 20
149.388575233735
 30
0.0
 10
106.1368982257063
 20
149.3643346227322
 30
0.0
 10
106.14047365254
 20
149.3397496220356
 30
0.0
 10
106.1435682322238
 20
149.3184709755369
 30
0.0
 10
106.1448433945235
 20
149.2969343421134
 30
0.0
 10
106.1461185575226
 20
149.2753977081136
 30
0.0
 10
106.1453446365219
 20
149.2627544301138
 30
0.0
 10
106.1445707162963
 20
149.2501111515564
 30
0.0
 10
106.1427316143309
 20
149.2375768475174
 30
0.0
 10
106.1410737715768
 20
149.2262779062223
 30
0.0
 10
106.1385503656554
 20
149.2150675172604
 30
0.0
 10
106.1348287475426
 20
149.2042719094281
 30
0.0
 10
106.1314509421658
 20
149.1944736278542
 30
0.0
 10
106.1270860863054
 20
149.1850170302642
 30
0.0
 10
106.1218454669881
 20
149.1760473860286
 30
0.0
 10
106.1170079001113
 20
149.1677675909848
 30
0.0
 10
106.1114240983337
 20
149.1599027271482
 30
0.0
 10
106.1049107529862
 20
149.1529032767155
 30
0.0
 10
106.0983609180324
 20
149.1458646133777
 30
0.0
 10
106.0908710952011
 20
149.1397010871881
 30
0.0
 10
106.0828956246969
 20
149.1342750915239
 30
0.0
 10
106.0747224538377
 20
149.1287145932911
 30
0.0
 10
106.066039259885
 20
149.1239286434016
 30
0.0
 10
106.0569290632362
 20
149.1201628294197
 30
0.0
 10
106.0469617902721
 20
149.1160427321991
 30
0.0
 10
106.0364833914909
 20
149.113143746237
 30
0.0
 10
106.0258820872635
 20
149.1111309819584
 30
0.0
 10
106.0141285039778
 20
149.1088994459063
 30
0.0
 10
106.0022238455148
 20
149.1077572521199
 30
0.0
 10
105.9903191875152
 20
149.1066150581205
 30
0.0
 10
105.9751466955144
 20
149.1073877191211
 30
0.0
 10
105.9599742030278
 20
149.1081603795499
 30
0.0
 10
105.9451599505036
 20
149.1111309818245
 30
0.0
 10
105.9321074295574
 20
149.1137483159324
 30
0.0
 10
105.9193330101175
 20
149.1180719112136
 30
0.0
 10
105.9073390885043
 20
149.1241142625309
 30
0.0
 10
105.8959231770378
 20
149.129865421319
 30
0.0
 10
105.88521434869
 20
149.1371736675713
 30
0.0
 10
105.8762921126343
 20
149.1461293906912
 30
0.0
 10
105.8671345180435
 20
149.1553213556967
 30
0.0
 10
105.8598590155171
 20
149.1662488611262
 30
0.0
 10
105.8525835135182
 20
149.1771763671265
 30
0.0
 10
105.8518233065179
 20
149.1798084921267
 30
0.0
 10
105.8510630989215
 20
149.1824406177151
 30
0.0
 10
105.8503255514071
 20
149.1850792334623
 30
0.0
 10
105.8492192301288
 20
149.1890371571126
 30
0.0
 10
105.8481638940363
 20
149.19300968362
 30
0.0
 10
105.8469386086216
 20
149.1969335331038
 30
0.0
 10
105.845998168318
 20
149.1999451956545
 30
0.0
 10
105.8449576111191
 20
149.2029281826417
 30
0.0
 10
105.844116156104
 20
149.2059653808735
 30
0.0
 10
105.8427767331442
 20
149.2107999744869
 30
0.0
 10
105.8419417968526
 20
149.2157719289727
 30
0.0
 10
105.8407292136092
 20
149.2206421332661
 30
0.0
 10
105.8391622370677
 20
149.2269357184042
 30
0.0
 10
105.8369646113267
 20
149.2330593864349
 30
0.0
 10
105.835084308855
 20
149.2392703184795
 30
0.0
 10
105.8326640049448
 20
149.2472649594165
 30
0.0
 10
105.8307694595214
 20
149.2554041841277
 30
0.0
 10
105.8288749135218
 20
149.2635434091276
 30
0.0
 10
105.8227733635228
 20
149.288142599128
 30
0.0
 10
105.8166718135868
 20
149.3127417886727
 30
0.0
 10
105.8091177472666
 20
149.3369271695597
 30
0.0
 10
105.8024585755942
 20
149.3582474223193
 30
0.0
 10
105.7946706484312
 20
149.3792461029445
 30
0.0
 10
105.7854091473401
 20
149.3995856113096
 30
0.0
 10
105.7772379166663
 20
149.4175307384555
 30
0.0
 10
105.7679196313506
 20
149.4349627548675
 30
0.0
 10
105.7571846242316
 20
149.4515187346559
 30
0.0
 10
105.747689277194
 20
149.4661628584924
 30
0.0
 10
105.7370855172133
 20
149.4801215899468
 30
0.0
 10
105.7250086672848
 20
149.4927265391965
 30
0.0
 10
105.713622420954
 20
149.504610685972
 30
0.0
 10
105.70092674224
 20
149.5152914532385
 30
0.0
 10
105.6871878057347
 20
149.5243380051781
 30
0.0
 10
105.6733958178099
 20
149.5334194894017
 30
0.0
 10
105.658552499683
 20
149.5408541132406
 30
0.0
 10
105.6431575494206
 20
149.5469176239432
 30
0.0
 10
105.6270910449946
 20
149.5532456353941
 30
0.0
 10
105.6104237324753
 20
149.5580803040619
 30
0.0
 10
105.5934823882894
 20
149.5610298856881
 30
0.0
 10
105.5748901102996
 20
149.5642669040112
 30
0.0
 10
105.555967789535
 20
149.5652335301401
 30
0.0
 10
105.537045468535
 20
149.5662001551408
 30
0.0
 10
105.537045468535
 20
149.5662001551408
 30
0.0
 10
105.5210456925356
 20
149.5662001551418
 30
0.0
 10
105.5210456925356
 20
149.5662001551418
 30
0.0
 10
105.5210456925356
 20
149.5662001551418
 30
0.0
 10
105.360912314535
 20
149.5621588671492
 30
0.0
 10
105.360912314535
 20
149.5621588671492
 30
0.0
 10
105.3469100775346
 20
149.5604662571495
 30
0.0
 10
105.3329078396468
 20
149.5587736466351
 30
0.0
 10
105.3191400205719
 20
149.5559494713933
 30
0.0
 10
105.3042256796143
 20
149.5528901115738
 30
0.0
 10
105.2895864258034
 20
149.5485028766287
 30
0.0
 10
105.2751097640447
 20
149.5435306809476
 30
0.0
 10
105.2613414224568
 20
149.5388017669393
 30
0.0
 10
105.2477201514213
 20
149.5335437342129
 30
0.0
 10
105.2350309405812
 20
149.5265959671032
 30
0.0
 10
105.2244370019287
 20
149.5207954315565
 30
0.0
 10
105.2144927285331
 20
149.5138171161551
 30
0.0
 10
105.2045484545324
 20
149.5068388011557
 30
0.0
 10
105.1954035495324
 20
149.4978779651563
 30
0.0
 10
105.1862586443573
 20
149.4889171298734
 30
0.0
 10
105.1780174029097
 20
149.4791787676631
 30
0.0
 10
105.1697627647761
 20
149.4694245750977
 30
0.0
 10
105.162414730689
 20
149.4588903257072
 30
0.0
 10
105.1554377843429
 20
149.4481317924428
 30
0.0
 10
105.1483115815345
 20
149.4371431039582
 30
0.0
 10
105.1415725135132
 20
149.4259204328327
 30
0.0
 10
105.1356806179402
 20
149.4142623637885
 30
0.0
 10
105.1296774306071
 20
149.4023840859847
 30
0.0
 10
105.1245537223943
 20
149.3900538064912
 30
0.0
 10
105.1198748847916
 20
149.3775704832074
 30
0.0
 10
105.1150038371423
 20
149.3645743359355
 30
0.0
 10
105.1106149620935
 20
149.3514123122927
 30
0.0
 10
105.106891604008
 20
149.3380561507891
 30
0.0
 10
105.102956191276
 20
149.323939322155
 30
0.0
 10
105.099764259916
 20
149.3096056126731
 30
0.0
 10
105.0972952658809
 20
149.2951548752812
 30
0.0
 10
105.0947078016489
 20
149.2800107454866
 30
0.0
 10
105.0929143168932
 20
149.2647380875949
 30
0.0
 10
105.0916503612217
 20
149.2494311469089
 30
0.0
 10
105.090316245994
 20
149.2332745497136
 30
0.0
 10
105.0895720775194
 20
149.217079758161
 30
0.0
 10
105.0888279085187
 20
149.2008849671611
 30
0.0
 10
105.089980658518
 20
149.1767109041611
 30
0.0
 10
105.09113340872
 20
149.1525368421316
 30
0.0
 10
105.0944728137316
 20
149.1286301864534
 30
0.0
 10
105.0976720248655
 20
149.1057271726624
 30
0.0
 10
105.1028781457648
 20
149.0830695841734
 30
0.0
 10
105.1097140563613
 20
149.0608913306597
 30
0.0
 10
105.1162984068908
 20
149.0395292321955
 30
0.0
 10
105.1243948023846
 20
149.0186118389813
 30
0.0
 10
105.1345516366639
 20
148.9987973790869
 30
0.0
 10
105.1446671401039
 20
148.9790635494573
 30
0.0
 10
105.1568263475088
 20
148.9604236951577
 30
0.0
 10
105.1689855555074
 20
148.9417838411574
 30
0.0
 10
105.1775195745063
 20
148.931086499157
 30
0.0
 10
105.186053593805
 20
148.9203891573293
 30
0.0
 10
105.1960810979319
 20
148.9113013556984
 30
0.0
 10
105.2071677896289
 20
148.9012536256133
 30
0.0
 10
105.2200801377849
 20
148.8931734196701
 30
0.0
 10
105.2333374689998
 20
148.8858992845822
 30
0.0
 10
105.2484874617271
 20
148.8775866693283
 30
0.0
 10
105.2640879706436
 20
148.870326708582
 30
0.0
 10
105.2801901778983
 20
148.8644486470113
 30
0.0
 10
105.2987008684895
 20
148.8576913759557
 30
0.0
 10
105.3178745645035
 20
148.8527603151507
 30
0.0
 10
105.3370482595029
 20
148.8478292541497
 30
0.0
 10
105.3370482595029
 20
148.8478292541497
 30
0.0
 10
105.6809784104996
 20
148.7611468911343
 30
0.0
 10
105.6809784104996
 20
148.7611468911343
 30
0.0
 10
105.7010016144987
 20
148.7551912541333
 30
0.0
 10
105.7210248186402
 20
148.7492356174213
 30
0.0
 10
105.7408144002351
 20
148.7425187056514
 30
0.0
 10
105.7599476280214
 20
148.7360245712356
 30
0.0
 10
105.7788624732181
 20
148.7288188222024
 30
0.0
 10
105.7972634476303
 20
148.7205035776747
 30
0.0
 10
105.815357603427
 20
148.7123269818803
 30
0.0
 10
105.832954882177
 20
148.7030775816741
 30
0.0
 10
105.8503255513545
 20
148.6934080352633
 30
0.0
 10
105.8674583571569
 20
148.6838708977391
 30
0.0
 10
105.8843707170029
 20
148.673925041683
 30
0.0
 10
105.9005652030873
 20
148.6629255495306
 30
0.0
 10
105.9165574334638
 20
148.6520634319174
 30
0.0
 10
105.9318496093999
 20
148.6401738319459
 30
0.0
 10
105.9468534218424
 20
148.6279271401648
 30
0.0
 10
105.9618465821668
 20
148.6156891430526
 30
0.0
 10
105.976551788306
 20
148.6030945609931
 30
0.0
 10
105.990319187102
 20
148.5895417889034
 30
0.0
 10
106.0042654585054
 20
148.575812932739
 30
0.0
 10
106.0172493953801
 20
148.5611008262744
 30
0.0
 10
106.0298335204709
 20
148.5460760224163
 30
0.0
 10
106.0425821658026
 20
148.5308547897764
 30
0.0
 10
106.0549204770295
 20
148.515312630114
 30
0.0
 10
106.0665254009513
 20
148.4992233136952
 30
0.0
 10
106.0782192606965
 20
148.4830106947355
 30
0.0
 10
106.0891684492479
 20
148.4662425004718
 30
0.0
 10
106.0992658481062
 20
148.448983662238
 30
0.0
 10
106.1094700537161
 20
148.4315422660522
 30
0.0
 10
106.1188043544621
 20
148.4135997912801
 30
0.0
 10
106.1274903715061
 20
148.3953570673463
 30
0.0
 10
106.1362233656729
 20
148.3770156801623
 30
0.0
 10
106.1443010448707
 20
148.3583707873223
 30
0.0
 10
106.1517634614868
 20
148.339472511513
 30
0.0
 10
106.1593071063926
 20
148.3203685282645
 30
0.0
 10
106.1662220215715
 20
148.3010056158855
 30
0.0
 10
106.1720851187953
 20
148.2813299922607
 30
0.0
 10
106.1781193219718
 20
148.2610801642198
 30
0.0
 10
106.1830394198316
 20
148.240499106559
 30
0.0
 10
106.1873263613031
 20
148.2198005318702
 30
0.0
 10
106.1917448890317
 20
148.1984666212478
 30
0.0
 10
106.1954907947805
 20
148.1770078685837
 30
0.0
 10
106.1986161703937
 20
148.1554486181012
 30
0.0
 10
106.2018218224078
 20
148.1333356104872
 30
0.0
 10
106.2043746578164
 20
148.1111168761069
 30
0.0
 10
106.2059545466221
 20
148.0888387427306
 30
0.0
 10
106.2075928277765
 20
148.0657372143638
 30
0.0
 10
106.2081849134671
 20
148.0425718151107
 30
0.0
 10
106.2087769994657
 20
148.0194064151107
 30
0.0
 10
106.2079040954647
 20
147.9928422971105
 30
0.0
 10
106.2070311924873
 20
147.9662781788024
 30
0.0
 10
106.2048255658155
 20
147.9398132587363
 30
0.0
 10
106.2027152362234
 20
147.9144917912944
 30
0.0
 10
106.1993848592795
 20
147.8892611352896
 30
0.0
 10
106.1952292281543
 20
147.8641715359493
 30
0.0
 10
106.1912409603209
 20
147.8400923915385
 30
0.0
 10
106.186492572096
 20
147.81614317079
 30
0.0
 10
106.1805524758085
 20
147.7924812460129
 30
0.0
 10
106.1748555990521
 20
147.7697881678593
 30
0.0
 10
106.1680626061973
 20
147.7473593404474
 30
0.0
 10
106.1602308191359
 20
147.7253068811958
 30
0.0
 10
106.1525453091096
 20
147.7036663034621
 30
0.0
 10
106.1438594463473
 20
147.6823881660615
 30
0.0
 10
106.1342642575674
 20
147.6615194582761
 30
0.0
 10
106.1248723438143
 20
147.6410928561348
 30
0.0
 10
106.1146092242532
 20
147.6210585197483
 30
0.0
 10
106.1032172811776
 20
147.6016834681159
 30
0.0
 10
106.0919992097338
 20
147.5826041317813
 30
0.0
 10
106.0796865095697
 20
147.5641641088698
 30
0.0
 10
106.0665254005226
 20
147.5463634023358
 30
0.0
 10
106.0532411461559
 20
147.5283961388902
 30
0.0
 10
106.0390925319141
 20
147.5110802116511
 30
0.0
 10
106.0241886155794
 20
147.4944302790601
 30
0.0
 10
106.0095386286757
 20
147.478064024114
 30
0.0
 10
105.9941588577463
 20
147.4623412630215
 30
0.0
 10
105.9779003977522
 20
147.4475775707186
 30
0.0
 10
105.9619481823821
 20
147.4330919675716
 30
0.0
 10
105.9451500681972
 20
147.4195296434141
 30
0.0
 10
105.9276607458981
 20
147.4069342565495
 30
0.0
 10
105.9104126392857
 20
147.3945125873879
 30
0.0
 10
105.892492259595
 20
147.3830313671274
 30
0.0
 10
105.8740341505148
 20
147.3725003376964
 30
0.0
 10
105.8555355380034
 20
147.3619461995702
 30
0.0
 10
105.836496833588
 20
147.3523464269414
 30
0.0
 10
105.8170206137058
 20
147.3437113237193
 30
0.0
 10
105.797135638779
 20
147.3348949922074
 30
0.0
 10
105.7767945910568
 20
147.3270842468014
 30
0.0
 10
105.7560556432023
 20
147.3205672145041
 30
0.0
 10
105.7349378559858
 20
147.3139311352636
 30
0.0
 10
105.713407498942
 20
147.3086364654662
 30
0.0
 10
105.6917037287294
 20
147.3041969910999
 30
0.0
 10
105.6692870075724
 20
147.2996116836631
 30
0.0
 10
105.6466852931631
 20
147.2959386794016
 30
0.0
 10
105.6239648737201
 20
147.2934716722483
 30
0.0
 10
105.6004100535495
 20
147.2909140649834
 30
0.0
 10
105.5767276494333
 20
147.2896526611392
 30
0.0
 10
105.5530452454333
 20
147.2883912581406
 30
0.0
  0
ENDBLK
  5
4F
330
4C
100
AcDbEntity
  8
0
100
AcDbBlockEnd
  0
BLOCK
  5
53
330
51
100
AcDbEntity
  8
0
100
AcDbBlockBegin
  2
block 4
 70
     0
 10
0.0
 20
0.0
 30
0.0
  3
block 4
  1

  0
SPLINE
  5
55
330
51
100
AcDbEntity
  8
0
 62
     7
420
 16777215
370
     5
100
AcDbSpline
210
0.0
220
0.0
230
1.0
 70
    11
 71
     3
 72
   182
 73
   178
 74
     0
 42
0.0000000001
 43
0.0000000001
 12
1.0
 22
0.0
 32
0.0
 13
1.0
 23
0.0
 33
0.0
 40
0.0
 40
0.0
 40
0.0
 40
0.0
 40
1.0
 40
1.0
 40
1.0
 40
2.0
 40
2.0
 40
2.0
 40
3.0
 40
3.0
 40
3.0
 40
4.0
 40
4.0
 40
4.0
 40
5.0
 40
5.0
 40
5.0
 40
6.0
 40
6.0
 40
6.0
 40
7.0
 40
7.0
 40
7.0
 40
8.0
 40
8.0
 40
8.0
 40
9.0
 40
9.0
 40
9.0
 40
10.0
 40
10.0
 40
10.0
 40
11.0
 40
11.0
 40
11.0
 40
12.0
 40
12.0
 40
12.0
 40
13.0
 40
13.0
 40
13.0
 40
14.0
 40
14.0
 40
14.0
 40
15.0
 40
15.0
 40
15.0
 40
16.0
 40
16.0
 40
16.0
 40
17.0
 40
17.0
 40
17.0
 40
18.0
 40
18.0
 40
18.0
 40
19.0
 40
19.0
 40
19.0
 40
20.0
 40
20.0
 40
20.0
 40
21.0
 40
21.0
 40
21.0
 40
22.0
 40
22.0
 40
22.0
 40
23.0
 40
23.0
 40
23.0
 40
24.0
 40
24.0
 40
24.0
 40
25.0
 40
25.0
 40
25.0
 40
26.0
 40
26.0
 40
26.0
 40
27.0
 40
27.0
 40
27.0
 40
28.0
 40
28.0
 40
28.0
 40
29.0
 40
29.0
 40
29.0
 40
30.0
 40
30.0
 40
30.0
 40
31.0
 40
31.0
 40
31.0
 40
32.0
 40
32.0
 40
32.0
 40
33.0
 40
33.0
 40
33.0
 40
34.0
 40
34.0
 40
34.0
 40
35.0
 40
35.0
 40
35.0
 40
36.0
 40
36.0
 40
36.0
 40
37.0
 40
37.0
 40
37.0
 40
38.0
 40
38.0
 40
38.0
 40
39.0
 40
39.0
 40
39.0
 40
40.0
 40
40.0
 40
40.0
 40
41.0
 40
41.0
 40
41.0
 40
42.0
 40
42.0
 40
42.0
 40
43.0
 40
43.0
 40
43.0
 40
44.0
 40
44.0
 40
44.0
 40
45.0
 40
45.0
 40
45.0
 40
46.0
 40
46.0
 40
46.0
 40
47.0
 40
47.0
 40
47.0
 40
48.0
 40
48.0
 40
48.0
 40
49.0
 40
49.0
 40
49.0
 40
50.0
 40
50.0
 40
50.0
 40
51.0
 40
51.0
 40
51.0
 40
52.0
 40
52.0
 40
52.0
 40
53.0
 40
53.0
 40
53.0
 40
54.0
 40
54.0
 40
54.0
 40
55.0
 40
55.0
 40
55.0
 40
56.0
 40
56.0
 40
56.0
 40
57.0
 40
57.0
 40
57.0
 40
58.0
 40
58.0
 40
58.0
 40
59.0
 40
59.0
 40
59.0
 40
59.0
 10
102.3228246104329
 20
147.2883912582857
 30
0.0
 10
102.3047019424329
 20
147.288710579286
 30
0.0
 10
102.2865792735922
 20
147.2890298997421
 30
0.0
 10
102.2686335257019
 20
147.2912137103862
 30
0.0
 10
102.2535480619381
 20
147.2930494542372
 30
0.0
 10
102.2385876164401
 20
147.2962027092692
 30
0.0
 10
102.2240387789575
 20
147.3008100481989
 30
0.0
 10
102.2120285383278
 20
147.3046134619953
 30
0.0
 10
102.2002987962717
 20
147.3094077905517
 30
0.0
 10
102.1896048604586
 20
147.3160512910493
 30
0.0
 10
102.180058739426
 20
147.3219817231138
 30
0.0
 10
102.1713380046839
 20
147.3293856751311
 30
0.0
 10
102.1642027891297
 20
147.3380664191859
 30
0.0
 10
102.1567419851963
 20
147.3471432759235
 30
0.0
 10
102.1510147000826
 20
147.3576161063242
 30
0.0
 10
102.1467035845435
 20
147.3685489045685
 30
0.0
 10
102.1415478263397
 20
147.3816236792343
 30
0.0
 10
102.1384175157619
 20
147.3953563135215
 30
0.0
 10
102.1359782654302
 20
147.4091922185066
 30
0.0
 10
102.1329468607018
 20
147.4263869390527
 30
0.0
 10
102.13098276704
 20
147.4437411564838
 30
0.0
 10
102.1303333609648
 20
147.4611253413639
 30
0.0
 10
102.1295509236084
 20
147.4820706884771
 30
0.0
 10
102.1306769724427
 20
147.5030595382945
 30
0.0
 10
102.131803020444
 20
147.5240483882941
 30
0.0
 10
102.131803020444
 20
147.5240483882941
 30
0.0
 10
102.1314623425407
 20
149.6823953372937
 30
0.0
 10
102.1314623425407
 20
149.6823953372937
 30
0.0
 10
102.1311230535412
 20
149.6985946222939
 30
0.0
 10
102.1307837656614
 20
149.714793907431
 30
0.0
 10
102.1320268322542
 20
149.7309415173482
 30
0.0
 10
102.1331127540792
 20
149.7450477946181
 30
0.0
 10
102.1354062453387
 20
149.7591146360865
 30
0.0
 10
102.1393652083074
 20
149.77271381191
 30
0.0
 10
102.1429077802504
 20
149.7848826700437
 30
0.0
 10
102.1477839096697
 20
149.7966770642865
 30
0.0
 10
102.1540419604286
 20
149.8077122210792
 30
0.0
 10
102.1599620616173
 20
149.8181514532568
 30
0.0
 10
102.1671188601289
 20
149.8279112350971
 30
0.0
 10
102.1754925985039
 20
149.8365012347748
 30
0.0
 10
102.1838414582161
 20
149.8450657132697
 30
0.0
 10
102.1934000373934
 20
149.8524673502021
 30
0.0
 10
102.2037171224614
 20
149.8585163628931
 30
0.0
 10
102.2148689610864
 20
149.8650548001476
 30
0.0
 10
102.2269070122437
 20
149.8700128771576
 30
0.0
 10
102.2392800214749
 20
149.8737576056194
 30
0.0
 10
102.2530869401841
 20
149.8779363110979
 30
0.0
 10
102.2673109522894
 20
149.8806041419188
 30
0.0
 10
102.2816168068359
 20
149.8822249629935
 30
0.0
 10
102.2979387916288
 20
149.8840742070799
 30
0.0
 10
102.3143673125495
 20
149.8845605352855
 30
0.0
 10
102.3307958335498
 20
149.8850468642849
 30
0.0
 10
102.3307958335498
 20
149.8850468642849
 30
0.0
 10
102.75748227255
 20
149.8844829242656
 30
0.0
 10
102.75748227255
 20
149.8844829242656
 30
0.0
 10
102.7840566385499
 20
149.8837441352647
 30
0.0
 10
102.8106310049669
 20
149.883005346544
 30
0.0
 10
102.837075427954
 20
149.8805314912581
 30
0.0
 10
102.8626675372317
 20
149.8781373692599
 30
0.0
 10
102.8881379443461
 20
149.8741182220108
 30
0.0
 10
102.9132816417232
 20
149.8686771915737
 30
0.0
 10
102.9377030582917
 20
149.8633924608168
 30
0.0
 10
102.9618162657309
 20
149.8567663639156
 30
0.0
 10
102.9855364216163
 20
149.8489200250916
 30
0.0
 10
103.0089713088846
 20
149.8411680496544
 30
0.0
 10
103.0320225417572
 20
149.8322250060953
 30
0.0
 10
103.0544042590659
 20
149.8218244824021
 30
0.0
 10
103.0769397552255
 20
149.8113524994651
 30
0.0
 10
103.0987965040859
 20
149.7994029396696
 30
0.0
 10
103.1198851534136
 20
149.7862615827876
 30
0.0
 10
103.1413361854844
 20
149.7728944076992
 30
0.0
 10
103.1619924935065
 20
149.7582941244452
 30
0.0
 10
103.1819791051222
 20
149.7427958165838
 30
0.0
 10
103.202451469512
 20
149.7269208392702
 30
0.0
 10
103.22222118944
 20
149.7101036558891
 30
0.0
 10
103.2406861133932
 20
149.6919916749848
 30
0.0
 10
103.2598776420958
 20
149.6731669778331
 30
0.0
 10
103.2776596655398
 20
149.652943576242
 30
0.0
 10
103.2954416885384
 20
149.6327201752414
 30
0.0
 10
103.3216153515371
 20
149.5995827952407
 30
0.0
 10
103.3477890141244
 20
149.5664454151074
 30
0.0
 10
103.3716479025219
 20
149.531676381712
 30
0.0
 10
103.3953735159915
 20
149.4971015669393
 30
0.0
 10
103.4168101435411
 20
149.46091327671
 30
0.0
 10
103.4365643060993
 20
149.4238587019888
 30
0.0
 10
103.4564608283028
 20
149.3865370910868
 30
0.0
 10
103.4746505485511
 20
149.3483366648334
 30
0.0
 10
103.4907553915214
 20
149.3092671364547
 30
0.0
 10
103.507109971168
 20
149.2695917596215
 30
0.0
 10
103.5213145121031
 20
149.2290201174624
 30
0.0
 10
103.5336566670829
 20
149.1879016861725
 30
0.0
 10
103.5465472454616
 20
149.144956158245
 30
0.0
 10
103.557406250502
 20
149.101414168442
 30
0.0
 10
103.5663971143597
 20
149.0575043874051
 30
0.0
 10
103.5759978803912
 20
149.0106159525568
 30
0.0
 10
103.583468455037
 20
148.9633081352102
 30
0.0
 10
103.5895412236109
 20
148.9158172802389
 30
0.0
 10
103.5960158174426
 20
148.8651840323298
 30
0.0
 10
103.6009015041233
 20
148.814342722805
 30
0.0
 10
103.6036534853211
 20
148.7634048532801
 30
0.0
 10
103.6065874382702
 20
148.7090987727765
 30
0.0
 10
103.6070961784946
 20
148.6546829402274
 30
0.0
 10
103.6076049184919
 20
148.6002671082273
 30
0.0
 10
103.6074213154902
 20
148.5592362652275
 30
0.0
 10
103.6072377128665
 20
148.5182054223014
 30
0.0
 10
103.605911446761
 20
148.4772081858911
 30
0.0
 10
103.6046929652754
 20
148.4395427631567
 30
0.0
 10
103.6025100001263
 20
148.4019057065468
 30
0.0
 10
103.5997020518471
 20
148.3643100913236
 30
0.0
 10
103.5971103248305
 20
148.329609462268
 30
0.0
 10
103.5939861603601
 20
148.294944138079
 30
0.0
 10
103.5895412236911
 20
148.2604438454126
 30
0.0
 10
103.5854739894134
 20
148.2288751677567
 30
0.0
 10
103.5803009078889
 20
148.1974446665823
 30
0.0
 10
103.5742999810553
 20
148.16617393752
 30
0.0
 10
103.5685593695925
 20
148.1362597074935
 30
0.0
 10
103.5620611775456
 20
148.1064916886612
 30
0.0
 10
103.554542814289
 20
148.0769844430006
 30
0.0
 10
103.5468530089212
 20
148.0468043401828
 30
0.0
 10
103.5380959757086
 20
148.0168970390172
 30
0.0
 10
103.5285762529027
 20
147.9872304587087
 30
0.0
 10
103.5189351668306
 20
147.957185670635
 30
0.0
 10
103.5085118207382
 20
147.9273877802567
 30
0.0
 10
103.4969647862168
 20
147.8980409643164
 30
0.0
 10
103.4851430280455
 20
147.8679959375601
 30
0.0
 10
103.4721434764578
 20
147.8384237042336
 30
0.0
 10
103.4591439244572
 20
147.8088514702347
 30
0.0
 10
103.4488496834556
 20
147.7870887152344
 30
0.0
 10
103.438555441117
 20
147.7653259600031
 30
0.0
 10
103.4275324585077
 20
147.7439350660296
 30
0.0
 10
103.4170025619828
 20
147.7235010412195
 30
0.0
 10
103.4058076637929
 20
147.703406353159
 30
0.0
 10
103.3942275208159
 20
147.6835345858146
 30
0.0
 10
103.383206940036
 20
147.6646230388939
 30
0.0
 10
103.3718374456591
 20
147.6459133897574
 30
0.0
 10
103.3597936022647
 20
147.6276500297114
 30
0.0
 10
103.3482709533293
 20
147.6101770122297
 30
0.0
 10
103.3361310571055
 20
147.5931124934979
 30
0.0
 10
103.323666212091
 20
147.5762813973722
 30
0.0
 10
103.3116971513508
 20
147.5601197514272
 30
0.0
 10
103.2994284771631
 20
147.5441733287835
 30
0.0
 10
103.2864098410706
 20
147.5288641977618
 30
0.0
 10
103.2739902080958
 20
147.5142594582869
 30
0.0
 10
103.2608880388232
 20
147.5002347144897
 30
0.0
 10
103.2474599992152
 20
147.4865274128545
 30
0.0
 10
103.2345064319468
 20
147.4733044511287
 30
0.0
 10
103.2212496163827
 20
147.4603768946125
 30
0.0
 10
103.2073811755912
 20
147.4481420607619
 30
0.0
 10
103.1939419590464
 20
147.436285891493
 30
0.0
 10
103.1799283906565
 20
147.4250802293055
 30
0.0
 10
103.1656088809723
 20
147.4142726325103
 30
0.0
 10
103.1516820900334
 20
147.4037614387306
 30
0.0
 10
103.1374659088317
 20
147.3936267755216
 30
0.0
 10
103.1227076050001
 20
147.3843546374341
 30
0.0
 10
103.1080874745547
 20
147.3751693089637
 30
0.0
 10
103.0929353251174
 20
147.3668304305817
 30
0.0
 10
103.0775483678229
 20
147.3589525664067
 30
0.0
 10
103.062023228605
 20
147.3510039554017
 30
0.0
 10
103.0462590452287
 20
147.3435246760219
 30
0.0
 10
103.0301311682689
 20
147.3369374378968
 30
0.0
 10
103.0140475407425
 20
147.3303682729222
 30
0.0
 10
102.9976022125985
 20
147.3246862609983
 30
0.0
 10
102.9810204977309
 20
147.3194382336975
 30
0.0
 10
102.9642503207183
 20
147.3141305591003
 30
0.0
 10
102.9473406391136
 20
147.3092667902297
 30
0.0
 10
102.9302163558567
 20
147.3053259721079
 30
0.0
 10
102.9127039374128
 20
147.3012958322815
 30
0.0
 10
102.8949670788424
 20
147.2982309561494
 30
0.0
 10
102.8771542513342
 20
147.2957296342593
 30
0.0
 10
102.8589704849919
 20
147.293176224208
 30
0.0
 10
102.8407075527744
 20
147.2912100839755
 30
0.0
 10
102.8223986763424
 20
147.290084729432
 30
0.0
 10
102.8035629266523
 20
147.2889269906404
 30
0.0
 10
102.784678550433
 20
147.2886591242648
 30
0.0
 10
102.7657941734328
 20
147.2883912582651
 30
0.0
 10
102.7657941734328
 20
147.2883912582651
 30
0.0
 10
102.3228246104329
 20
147.2883912582857
 30
0.0
 10
102.3228246104329
 20
147.2883912582857
 30
0.0
  0
ENDBLK
  5
54
330
51
100
AcDbEntity
  8
0
100
AcDbBlockEnd
  0
BLOCK
  5
58
330
56
100
AcDbEntity
  8
0
100
AcDbBlockBegin
  2
block 5
 70
     0
 10
0.0
 20
0.0
 30
0.0
  3
block 5
  1

  0
SPLINE
  5
5A
330
56
100
AcDbEntity
  8
0
 62
     7
420
 16777215
370
     5
100
AcDbSpline
210
0.0
220
0.0
230
1.0
 70
    11
 71
     3
 72
   113
 73
   109
 74
     0
 42
0.0000000001
 43
0.0000000001
 12
1.0
 22
0.0
 32
0.0
 13
1.0
 23
0.0
 33
0.0
 40
0.0
 40
0.0
 40
0.0
 40
0.0
 40
1.0
 40
1.0
 40
1.0
 40
2.0
 40
2.0
 40
2.0
 40
3.0
 40
3.0
 40
3.0
 40
4.0
 40
4.0
 40
4.0
 40
5.0
 40
5.0
 40
5.0
 40
6.0
 40
6.0
 40
6.0
 40
7.0
 40
7.0
 40
7.0
 40
8.0
 40
8.0
 40
8.0
 40
9.0
 40
9.0
 40
9.0
 40
10.0
 40
10.0
 40
10.0
 40
11.0
 40
11.0
 40
11.0
 40
12.0
 40
12.0
 40
12.0
 40
13.0
 40
13.0
 40
13.0
 40
14.0
 40
14.0
 40
14.0
 40
15.0
 40
15.0
 40
15.0
 40
16.0
 40
16.0
 40
16.0
 40
17.0
 40
17.0
 40
17.0
 40
18.0
 40
18.0
 40
18.0
 40
19.0
 40
19.0
 40
19.0
 40
20.0
 40
20.0
 40
20.0
 40
21.0
 40
21.0
 40
21.0
 40
22.0
 40
22.0
 40
22.0
 40
23.0
 40
23.0
 40
23.0
 40
24.0
 40
24.0
 40
24.0
 40
25.0
 40
25.0
 40
25.0
 40
26.0
 40
26.0
 40
26.0
 40
27.0
 40
27.0
 40
27.0
 40
28.0
 40
28.0
 40
28.0
 40
29.0
 40
29.0
 40
29.0
 40
30.0
 40
30.0
 40
30.0
 40
31.0
 40
31.0
 40
31.0
 40
32.0
 40
32.0
 40
32.0
 40
33.0
 40
33.0
 40
33.0
 40
34.0
 40
34.0
 40
34.0
 40
35.0
 40
35.0
 40
35.0
 40
36.0
 40
36.0
 40
36.0
 40
36.0
 10
104.0129090755414
 20
149.6987655602093
 30
0.0
 10
104.0129851925422
 20
149.7138627412093
 30
0.0
 10
104.013061309749
 20
149.7289599223305
 30
0.0
 10
104.0146025467743
 20
149.7439247980667
 30
0.0
 10
104.0159732247754
 20
149.7572336049661
 30
0.0
 10
104.0185026939013
 20
149.7704377690208
 30
0.0
 10
104.0219409226158
 20
149.7834391305588
 30
0.0
 10
104.0249197884677
 20
149.7947034515611
 30
0.0
 10
104.0285808066567
 20
149.8058155406499
 30
0.0
 10
104.0337952222489
 20
149.8161795778045
 30
0.0
 10
104.0384843499666
 20
149.8254995664079
 30
0.0
 10
104.0444296679241
 20
149.8342146257526
 30
0.0
 10
104.0512944270417
 20
149.842146139262
 30
0.0
 10
104.0579542216088
 20
149.8498408376017
 30
0.0
 10
104.0654793725609
 20
149.8567980810389
 30
0.0
 10
104.0738740455052
 20
149.862467796148
 30
0.0
 10
104.0823853067254
 20
149.8682162543251
 30
0.0
 10
104.0917904101344
 20
149.8726411725018
 30
0.0
 10
104.1015340783587
 20
149.8760155674411
 30
0.0
 10
104.1121487090644
 20
149.8796915912245
 30
0.0
 10
104.1231651367111
 20
149.8821208905871
 30
0.0
 10
104.1342745260661
 20
149.883353943983
 30
0.0
 10
104.1468026655018
 20
149.8847444672943
 30
0.0
 10
104.1594490265497
 20
149.8846136962027
 30
0.0
 10
104.1720953875495
 20
149.8844829242021
 30
0.0
 10
104.1843428385495
 20
149.8843001432018
 30
0.0
 10
104.1965902894674
 20
149.8841173619221
 30
0.0
 10
104.2087872676243
 20
149.8827894533374
 30
0.0
 10
104.2195225566155
 20
149.8816206816772
 30
0.0
 10
104.2302187453107
 20
149.8795648014804
 30
0.0
 10
104.2403987338822
 20
149.8760155673577
 30
0.0
 10
104.2499378166256
 20
149.8726897838623
 30
0.0
 10
104.2590236504736
 20
149.8680527627515
 30
0.0
 10
104.2674942765596
 20
149.862467795949
 30
0.0
 10
104.275558072299
 20
149.8571510659879
 30
0.0
 10
104.2830643360128
 20
149.8509752602542
 30
0.0
 10
104.2895094049586
 20
149.8438396107658
 30
0.0
 10
104.2962277209938
 20
149.8364014361283
 30
0.0
 10
104.3017929533526
 20
149.8279203048168
 30
0.0
 10
104.3064441189342
 20
149.8190020298312
 30
0.0
 10
104.3114232133806
 20
149.8094549748693
 30
0.0
 10
104.315354805366
 20
149.7994069618969
 30
0.0
 10
104.3182984185352
 20
149.7890840352154
 30
0.0
 10
104.3217113697498
 20
149.7771151917814
 30
0.0
 10
104.3237961734346
 20
149.7647767797311
 30
0.0
 10
104.3250723043937
 20
149.7523921548739
 30
0.0
 10
104.3264953544591
 20
149.7385817061173
 30
0.0
 10
104.3269128105429
 20
149.7247137911953
 30
0.0
 10
104.327330266542
 20
149.7108458771953
 30
0.0
 10
104.327330266542
 20
149.7108458771953
 30
0.0
 10
104.3273302664413
 20
147.4662057551956
 30
0.0
 10
104.3273302664413
 20
147.4662057551956
 30
0.0
 10
104.3269489074409
 20
147.4518753091948
 30
0.0
 10
104.3265675492247
 20
147.4375448630554
 30
0.0
 10
104.3250723041396
 20
147.423304479774
 30
0.0
 10
104.3237543376687
 20
147.4107524587778
 30
0.0
 10
104.321570954957
 20
147.3982704106494
 30
0.0
 10
104.3182984188137
 20
147.3860481088948
 30
0.0
 10
104.3153807387599
 20
147.3751511273249
 30
0.0
 10
104.3115973027409
 20
147.3644606152637
 30
0.0
 10
104.3064441190722
 20
147.3544366426632
 30
0.0
 10
104.301855634613
 20
147.3455111229347
 30
0.0
 10
104.2961811550936
 20
147.3371140644613
 30
0.0
 10
104.2895094048989
 20
147.329599062208
 30
0.0
 10
104.2830273777212
 20
147.3222977623369
 30
0.0
 10
104.2756039917368
 20
147.3158290663033
 30
0.0
 10
104.2674942762946
 20
147.3104063863375
 30
0.0
 10
104.2590826944195
 20
147.3047818589622
 30
0.0
 10
104.2499327379242
 20
147.3002826682732
 30
0.0
 10
104.2403987341209
 20
147.2968586151724
 30
0.0
 10
104.2301854642278
 20
147.2931906096682
 30
0.0
 10
104.2195314733791
 20
147.290756399206
 30
0.0
 10
104.208787267804
 20
147.2895202387226
 30
0.0
 10
104.1966335984357
 20
147.2881219142311
 30
0.0
 10
104.1843644924327
 20
147.2882565862019
 30
0.0
 10
104.1720953874327
 20
147.2883912582022
 30
0.0
 10
104.159213120433
 20
147.2887424382033
 30
0.0
 10
104.1463308534159
 20
147.2890936187152
 30
0.0
 10
104.133710035557
 20
147.2912137104709
 30
0.0
 10
104.1217599343629
 20
147.2932211327567
 30
0.0
 10
104.1100442319845
 20
147.2968144492388
 30
0.0
 10
104.0987116261324
 20
147.3013745391187
 30
0.0
 10
104.0874048799283
 20
147.30592422342
 30
0.0
 10
104.0764794838839
 20
147.3114362740302
 30
0.0
 10
104.066535669203
 20
147.318309252787
 30
0.0
 10
104.0562374694461
 20
147.3254271758817
 30
0.0
 10
104.0469920624352
 20
147.3340047592079
 30
0.0
 10
104.0377466554358
 20
147.3425823432079
 30
0.0
 10
104.0331863064352
 20
147.3477933852079
 30
0.0
 10
104.0286259576497
 20
147.3530044271168
 30
0.0
 10
104.0253278650176
 20
147.3589525667161
 30
0.0
 10
104.0216031052984
 20
147.3656702042309
 30
0.0
 10
104.0194883175767
 20
147.3733279889867
 30
0.0
 10
104.0179894893333
 20
147.3809676949694
 30
0.0
 10
104.0170303944729
 20
147.3858563156477
 30
0.0
 10
104.0163235149735
 20
147.3907375336576
 30
0.0
 10
104.0157315274045
 20
147.395644447081
 30
0.0
 10
104.0149634190234
 20
147.4020112046288
 30
0.0
 10
104.0143887341964
 20
147.4084212210764
 30
0.0
 10
104.0140380559411
 20
147.4148371230618
 30
0.0
 10
104.013606419377
 20
147.4227342134794
 30
0.0
 10
104.0135141575716
 20
147.4306402206131
 30
0.0
 10
104.0134735653498
 20
147.438545722482
 30
0.0
 10
104.0134259154608
 20
147.4478257339639
 30
0.0
 10
104.0134494644404
 20
147.4571050492088
 30
0.0
 10
104.0134730144416
 20
147.4663843642085
 30
0.0
 10
104.0134730144416
 20
147.4663843642085
 30
0.0
 10
104.0129090755414
 20
149.6987655602093
 30
0.0
 10
104.0129090755414
 20
149.6987655602093
 30
0.0
  0
ENDBLK
  5
59
330
56
100
AcDbEntity
  8
0
100
AcDbBlockEnd
  0
BLOCK
  5
5D
330
5B
100
AcDbEntity
  8
0
100
AcDbBlockBegin
  2
block 6
 70
     0
 10
0.0
 20
0.0
 30
0.0
  3
block 6
  1

  0
SPLINE
  5
5F
330
5B
100
AcDbEntity
  8
0
 62
     7
420
 16777215
370
     5
100
AcDbSpline
210
0.0
220
0.0
230
1.0
 70
    11
 71
     3
 72
   185
 73
   181
 74
     0
 42
0.0000000001
 43
0.0000000001
 12
1.0
 22
0.0
 32
0.0
 13
1.0
 23
0.0
 33
0.0
 40
0.0
 40
0.0
 40
0.0
 40
0.0
 40
1.0
 40
1.0
 40
1.0
 40
2.0
 40
2.0
 40
2.0
 40
3.0
 40
3.0
 40
3.0
 40
4.0
 40
4.0
 40
4.0
 40
5.0
 40
5.0
 40
5.0
 40
6.0
 40
6.0
 40
6.0
 40
7.0
 40
7.0
 40
7.0
 40
8.0
 40
8.0
 40
8.0
 40
9.0
 40
9.0
 40
9.0
 40
10.0
 40
10.0
 40
10.0
 40
11.0
 40
11.0
 40
11.0
 40
12.0
 40
12.0
 40
12.0
 40
13.0
 40
13.0
 40
13.0
 40
14.0
 40
14.0
 40
14.0
 40
15.0
 40
15.0
 40
15.0
 40
16.0
 40
16.0
 40
16.0
 40
17.0
 40
17.0
 40
17.0
 40
18.0
 40
18.0
 40
18.0
 40
19.0
 40
19.0
 40
19.0
 40
20.0
 40
20.0
 40
20.0
 40
21.0
 40
21.0
 40
21.0
 40
22.0
 40
22.0
 40
22.0
 40
23.0
 40
23.0
 40
23.0
 40
24.0
 40
24.0
 40
24.0
 40
25.0
 40
25.0
 40
25.0
 40
26.0
 40
26.0
 40
26.0
 40
27.0
 40
27.0
 40
27.0
 40
28.0
 40
28.0
 40
28.0
 40
29.0
 40
29.0
 40
29.0
 40
30.0
 40
30.0
 40
30.0
 40
31.0
 40
31.0
 40
31.0
 40
32.0
 40
32.0
 40
32.0
 40
33.0
 40
33.0
 40
33.0
 40
34.0
 40
34.0
 40
34.0
 40
35.0
 40
35.0
 40
35.0
 40
36.0
 40
36.0
 40
36.0
 40
37.0
 40
37.0
 40
37.0
 40
38.0
 40
38.0
 40
38.0
 40
39.0
 40
39.0
 40
39.0
 40
40.0
 40
40.0
 40
40.0
 40
41.0
 40
41.0
 40
41.0
 40
42.0
 40
42.0
 40
42.0
 40
43.0
 40
43.0
 40
43.0
 40
44.0
 40
44.0
 40
44.0
 40
45.0
 40
45.0
 40
45.0
 40
46.0
 40
46.0
 40
46.0
 40
47.0
 40
47.0
 40
47.0
 40
48.0
 40
48.0
 40
48.0
 40
49.0
 40
49.0
 40
49.0
 40
50.0
 40
50.0
 40
50.0
 40
51.0
 40
51.0
 40
51.0
 40
52.0
 40
52.0
 40
52.0
 40
53.0
 40
53.0
 40
53.0
 40
54.0
 40
54.0
 40
54.0
 40
55.0
 40
55.0
 40
55.0
 40
56.0
 40
56.0
 40
56.0
 40
57.0
 40
57.0
 40
57.0
 40
58.0
 40
58.0
 40
58.0
 40
59.0
 40
59.0
 40
59.0
 40
60.0
 40
60.0
 40
60.0
 40
60.0
 10
108.015146499516
 20
149.1342750910301
 30
0.0
 10
108.0139279655144
 20
149.1005425750298
 30
0.0
 10
108.0127094309321
 20
149.0668100587128
 30
0.0
 10
108.0095015955107
 20
149.033231297126
 30
0.0
 10
108.0064244211446
 20
149.0010202604589
 30
0.0
 10
108.0015167013121
 20
148.9689507081857
 30
0.0
 10
107.994824843086
 20
148.9372679173693
 30
0.0
 10
107.9882552641821
 20
148.9061640614363
 30
0.0
 10
107.9799661537528
 20
148.87543296163
 30
0.0
 10
107.9699872625524
 20
148.8452559716346
 30
0.0
 10
107.9601421211192
 20
148.8154834519634
 30
0.0
 10
107.9486521925234
 20
148.7862502878809
 30
0.0
 10
107.9355533437814
 20
148.7577599484756
 30
0.0
 10
107.9227490927952
 20
148.7299103669134
 30
0.0
 10
107.9084074782158
 20
148.7027705729795
 30
0.0
 10
107.8926520679722
 20
148.6764733212023
 30
0.0
 10
107.8773274536158
 20
148.650895108013
 30
0.0
 10
107.8606653006654
 20
148.626113992084
 30
0.0
 10
107.8424124157614
 20
148.6025250693399
 30
0.0
 10
107.8245334100648
 20
148.5794193254343
 30
0.0
 10
107.8051281718598
 20
148.5574574348305
 30
0.0
 10
107.7842698978095
 20
148.5370441750628
 30
0.0
 10
107.7634116235828
 20
148.5166309151211
 30
0.0
 10
107.7411003134876
 20
148.497766286042
 30
0.0
 10
107.7187890034868
 20
148.4789016570429
 30
0.0
 10
107.7056386904857
 20
148.4693484650436
 30
0.0
 10
107.6924883774706
 20
148.4597952729564
 30
0.0
 10
107.6787101802607
 20
148.4512416239439
 30
0.0
 10
107.6654153484543
 20
148.4429880532311
 30
0.0
 10
107.651535914438
 20
148.4356651240218
 30
0.0
 10
107.6375023762639
 20
148.4286620049199
 30
0.0
 10
107.6236195218307
 20
148.4217340811235
 30
0.0
 10
107.6095858548291
 20
148.4151191364471
 30
0.0
 10
107.5951655912321
 20
148.4094693290581
 30
0.0
 10
107.5811552006844
 20
148.403980108455
 30
0.0
 10
107.566779877999
 20
148.399401939881
 30
0.0
 10
107.5522643154858
 20
148.395357067124
 30
0.0
 10
107.5371695714698
 20
148.3911508010022
 30
0.0
 10
107.5219231730116
 20
148.3875212375232
 30
0.0
 10
107.5065405877815
 20
148.3846317485801
 30
0.0
 10
107.4897277883525
 20
148.3814736059579
 30
0.0
 10
107.472752300619
 20
148.3791995541244
 30
0.0
 10
107.4557364452353
 20
148.3772933726289
 30
0.0
 10
107.4371508775329
 20
148.3752113459286
 30
0.0
 10
107.418517150818
 20
148.3735681922273
 30
0.0
 10
107.3998518884321
 20
148.3727774484086
 30
0.0
 10
107.379573788473
 20
148.3719183775918
 30
0.0
 10
107.3592584674818
 20
148.3720653920591
 30
0.0
 10
107.3389431464816
 20
148.3722124070602
 30
0.0
 10
107.3389431464816
 20
148.3722124070602
 30
0.0
 10
106.9315486114817
 20
148.3722124070781
 30
0.0
 10
106.9315486114817
 20
148.3722124070781
 30
0.0
 10
106.9315486114817
 20
148.3722124070781
 30
0.0
 10
106.9313247994424
 20
147.4910433360782
 30
0.0
 10
106.9313247994424
 20
147.4910433360782
 30
0.0
 10
106.9308782474414
 20
147.4737209100783
 30
0.0
 10
106.9304316953621
 20
147.4563984836228
 30
0.0
 10
106.929066837373
 20
147.4391102132851
 30
0.0
 10
106.9278993278466
 20
147.4243217001339
 30
0.0
 10
106.9260598739606
 20
147.4095581797563
 30
0.0
 10
106.9228574423516
 20
147.395079956147
 30
0.0
 10
106.9201702423531
 20
147.3829310995195
 30
0.0
 10
106.9165233566806
 20
147.3709831230814
 30
0.0
 10
106.9115676329883
 20
147.3595170568607
 30
0.0
 10
106.9074012929463
 20
147.3498773889185
 30
0.0
 10
106.9023098689278
 20
147.3405783341115
 30
0.0
 10
106.8957619000522
 20
147.3324215144651
 30
0.0
 10
106.8896743542396
 20
147.3248382448695
 30
0.0
 10
106.8823278971138
 20
147.3182422244911
 30
0.0
 10
106.874311262113
 20
147.3126643479635
 30
0.0
 10
106.8659132304016
 20
147.3068211002749
 30
0.0
 10
106.8567797355947
 20
147.3020951786841
 30
0.0
 10
106.8472157197905
 20
147.2985520861044
 30
0.0
 10
106.8364998503205
 20
147.294582276939
 30
0.0
 10
106.8252435145779
 20
147.292097364424
 30
0.0
 10
106.8139107818446
 20
147.2906492197897
 30
0.0
 10
106.8009936689783
 20
147.2889986163454
 30
0.0
 10
106.7879773044337
 20
147.2886949370852
 30
0.0
 10
106.7749609394334
 20
147.2883912580855
 30
0.0
 10
106.7619294394332
 20
147.2884413400863
 30
0.0
 10
106.7488979396929
 20
147.2884914220012
 30
0.0
 10
106.7360110970524
 20
147.2900847291882
 30
0.0
 10
106.7245149995323
 20
147.2915060870278
 30
0.0
 10
106.7131340211643
 20
147.2941555545471
 30
0.0
 10
106.7021416690196
 20
147.2979875957955
 30
0.0
 10
106.6922465574105
 20
147.3014371282831
 30
0.0
 10
106.6826663599933
 20
147.3058449317935
 30
0.0
 10
106.6739171453682
 20
147.311535366899
 30
0.0
 10
106.6654131364567
 20
147.3170663217255
 30
0.0
 10
106.6576941847495
 20
147.3238090214662
 30
0.0
 10
106.6507730361229
 20
147.3312925330925
 30
0.0
 10
106.6437878782563
 20
147.3388452548902
 30
0.0
 10
106.6376153484405
 20
147.3471525545195
 30
0.0
 10
106.6327093411385
 20
147.3561301137852
 30
0.0
 10
106.6272838804316
 20
147.3660582268189
 30
0.0
 10
106.6234073425462
 20
147.376806049287
 30
0.0
 10
106.6202905511875
 20
147.38774158043
 30
0.0
 10
106.6168058725181
 20
147.3999678759141
 30
0.0
 10
106.6142708770051
 20
147.4124288072414
 30
0.0
 10
106.6129521750598
 20
147.4249979510769
 30
0.0
 10
106.6114523710328
 20
147.4392932606466
 30
0.0
 10
106.6115258764405
 20
147.4537285460928
 30
0.0
 10
106.6115993824411
 20
147.4681638320921
 30
0.0
 10
106.6115993824411
 20
147.4681638320921
 30
0.0
 10
106.6112587035394
 20
149.6490903990925
 30
0.0
 10
106.6112587035394
 20
149.6490903990925
 30
0.0
 10
106.6106303985403
 20
149.6701888400927
 30
0.0
 10
106.6100020939518
 20
149.6912872805227
 30
0.0
 10
106.6112587033558
 20
149.7123133316497
 30
0.0
 10
106.6123011723648
 20
149.7297563068689
 30
0.0
 10
106.6146408721206
 20
149.7471494625046
 30
0.0
 10
106.6185970794065
 20
149.7642464549244
 30
0.0
 10
106.6219367707564
 20
149.7786791359192
 30
0.0
 10
106.626428408631
 20
149.7929007667455
 30
0.0
 10
106.6332738318132
 20
149.8060187496995
 30
0.0
 10
106.6391388465006
 20
149.8172579617478
 30
0.0
 10
106.6467317048855
 20
149.8276870187601
 30
0.0
 10
106.6558534505642
 20
149.8365012347597
 30
0.0
 10
106.6651165027753
 20
149.8454519932966
 30
0.0
 10
106.6759561776891
 20
149.8527374917367
 30
0.0
 10
106.6874649166315
 20
149.8585163626932
 30
0.0
 10
106.7010667756916
 20
149.8653462498476
 30
0.0
 10
106.7156031980978
 20
149.8700716466042
 30
0.0
 10
106.7303661924099
 20
149.8737576053852
 30
0.0
 10
106.7481806108491
 20
149.8782054301753
 30
0.0
 10
106.766324943065
 20
149.8811397182072
 30
0.0
 10
106.7845572774078
 20
149.8827894531337
 30
0.0
 10
106.8061592914715
 20
149.884744090231
 30
0.0
 10
106.8278848425493
 20
149.8848954770831
 30
0.0
 10
106.84961039355
 20
149.8850468640821
 30
0.0
 10
106.84961039355
 20
149.8850468640821
 30
0.0
 10
107.3541281605499
 20
149.8844829240596
 30
0.0
 10
107.3541281605499
 20
149.8844829240596
 30
0.0
 10
107.3782604265501
 20
149.8837058260583
 30
0.0
 10
107.4023926926221
 20
149.8829287281949
 30
0.0
 10
107.426382941052
 20
149.8805314909815
 30
0.0
 10
107.4493048556669
 20
149.8782410075429
 30
0.0
 10
107.4720971196637
 20
149.8744714679577
 30
0.0
 10
107.4946862871634
 20
149.8698061723035
 30
0.0
 10
107.5165594183487
 20
149.8652887581989
 30
0.0
 10
107.5382421245638
 20
149.8599314757295
 30
0.0
 10
107.559602691539
 20
149.8534359488072
 30
0.0
 10
107.5805143522504
 20
149.8470769296255
 30
0.0
 10
107.6011172713802
 20
149.839627005177
 30
0.0
 10
107.621132152809
 20
149.8308563301939
 30
0.0
 10
107.6408682004209
 20
149.8222078423339
 30
0.0
 10
107.6600324804954
 20
149.8122751472149
 30
0.0
 10
107.6787101808279
 20
149.8015028258315
 30
0.0
 10
107.6973536518595
 20
149.7907502461206
 30
0.0
 10
107.7155123249561
 20
149.7791611147728
 30
0.0
 10
107.7329012655346
 20
149.766504416663
 30
0.0
 10
107.7504162386932
 20
149.7537559845974
 30
0.0
 10
107.7671502810734
 20
149.7399244545431
 30
0.0
 10
107.7831409168323
 20
149.7252966121009
 30
0.0
 10
107.7995455699619
 20
149.7102900366959
 30
0.0
 10
107.8151678226861
 20
149.6944453800613
 30
0.0
 10
107.829993625664
 20
149.6778794125485
 30
0.0
 10
107.8449932993486
 20
149.6611191664205
 30
0.0
 10
107.859177732899
 20
149.6436205917547
 30
0.0
 10
107.8723304111309
 20
149.6253817990775
 30
0.0
 10
107.8855529335572
 20
149.6070461535934
 30
0.0
 10
107.8977327137833
 20
149.5879624077186
 30
0.0
 10
107.9090222918423
 20
149.5683682615497
 30
0.0
 10
107.9205408026919
 20
149.548376780552
 30
0.0
 10
107.9311326418469
 20
149.5278539893391
 30
0.0
 10
107.9406337576684
 20
149.5068388010947
 30
0.0
 10
107.9503809666487
 20
149.4852792879343
 30
0.0
 10
107.958980217799
 20
149.4632015397542
 30
0.0
 10
107.9666003194037
 20
149.4407934154196
 30
0.0
 10
107.9744266349977
 20
149.4177788859545
 30
0.0
 10
107.9812200887895
 20
149.3944158572111
 30
0.0
 10
107.986921976324
 20
149.37079659775
 30
0.0
 10
107.9928630383647
 20
149.3461865918574
 30
0.0
 10
107.9976190386469
 20
149.3212984084171
 30
0.0
 10
108.0015987284131
 20
149.2962838555908
 30
0.0
 10
108.0057704604506
 20
149.2700622107885
 30
0.0
 10
108.0090891516123
 20
149.2437017062778
 30
0.0
 10
108.0111950667314
 20
149.217255189589
 30
0.0
 10
108.0133926409895
 20
149.1896575985157
 30
0.0
 10
108.0142695705175
 20
149.1619663450298
 30
0.0
 10
108.015146499516
 20
149.1342750910301
 30
0.0
  0
ENDBLK
  5
5E
330
5B
100
AcDbEntity
  8
0
100
AcDbBlockEnd
  0
BLOCK
  5
62
330
60
100
AcDbEntity
  8
0
100
AcDbBlockBegin
  2
block 7
 70
     0
 10
0.0
 20
0.0
 30
0.0
  3
block 7
  1

  0
SPLINE
  5
64
330
60
100
AcDbEntity
  8
0
 62
     7
420
 16777215
370
     5
100
AcDbSpline
210
0.0
220
0.0
230
1.0
 70
    11
 71
     3
 72
    86
 73
    82
 74
     0
 42
0.0000000001
 43
0.0000000001
 12
1.0
 22
0.0
 32
0.0
 13
1.0
 23
0.0
 33
0.0
 40
0.0
 40
0.0
 40
0.0
 40
0.0
 40
1.0
 40
1.0
 40
1.0
 40
2.0
 40
2.0
 40
2.0
 40
3.0
 40
3.0
 40
3.0
 40
4.0
 40
4.0
 40
4.0
 40
5.0
 40
5.0
 40
5.0
 40
6.0
 40
6.0
 40
6.0
 40
7.0
 40
7.0
 40
7.0
 40
8.0
 40
8.0
 40
8.0
 40
9.0
 40
9.0
 40
9.0
 40
10.0
 40
10.0
 40
10.0
 40
11.0
 40
11.0
 40
11.0
 40
12.0
 40
12.0
 40
12.0
 40
13.0
 40
13.0
 40
13.0
 40
14.0
 40
14.0
 40
14.0
 40
15.0
 40
15.0
 40
15.0
 40
16.0
 40
16.0
 40
16.0
 40
17.0
 40
17.0
 40
17.0
 40
18.0
 40
18.0
 40
18.0
 40
19.0
 40
19.0
 40
19.0
 40
20.0
 40
20.0
 40
20.0
 40
21.0
 40
21.0
 40
21.0
 40
22.0
 40
22.0
 40
22.0
 40
23.0
 40
23.0
 40
23.0
 40
24.0
 40
24.0
 40
24.0
 40
25.0
 40
25.0
 40
25.0
 40
26.0
 40
26.0
 40
26.0
 40
27.0
 40
27.0
 40
27.0
 40
27.0
 10
107.695080403516
 20
149.1303236580438
 30
0.0
 10
107.6939499515169
 20
149.1627753770439
 30
0.0
 10
107.6928194987079
 20
149.195227095717
 30
0.0
 10
107.6888710088469
 20
149.2274160183202
 30
0.0
 10
107.6853395207436
 20
149.2562054545876
 30
0.0
 10
107.6795537927032
 20
149.2847846716902
 30
0.0
 10
107.671371804169
 20
149.3126540797221
 30
0.0
 10
107.6639101895329
 20
149.3380697573396
 30
0.0
 10
107.6544556913307
 20
149.3628951123119
 30
0.0
 10
107.6425827901611
 20
149.3866023307499
 30
0.0
 10
107.6314541709095
 20
149.4088234040789
 30
0.0
 10
107.6182008520899
 20
149.4300621331736
 30
0.0
 10
107.6025039670274
 20
149.4492607728496
 30
0.0
 10
107.5949152279075
 20
149.4585424530923
 30
0.0
 10
107.5867553569019
 20
149.4673473056169
 30
0.0
 10
107.5782308768991
 20
149.4757918248891
 30
0.0
 10
107.569985088736
 20
149.4839602664871
 30
0.0
 10
107.561398142277
 20
149.4917915505302
 30
0.0
 10
107.5522643153241
 20
149.4989359339073
 30
0.0
 10
107.5429730793478
 20
149.5062034409679
 30
0.0
 10
107.5331159509785
 20
149.5127601677658
 30
0.0
 10
107.5229108109611
 20
149.518693100302
 30
0.0
 10
107.5128627225792
 20
149.5245347281858
 30
0.0
 10
107.5024772515534
 20
149.5297716137896
 30
0.0
 10
107.4918638353381
 20
149.534498833637
 30
0.0
 10
107.4808135841914
 20
149.5394206199378
 30
0.0
 10
107.4695162378297
 20
149.5437899226764
 30
0.0
 10
107.4579944070962
 20
149.5474821146417
 30
0.0
 10
107.4463394037769
 20
149.5512169820085
 30
0.0
 10
107.4344546967876
 20
149.5542589956683
 30
0.0
 10
107.4224315078318
 20
149.5565139622939
 30
0.0
 10
107.409560317409
 20
149.558927972832
 30
0.0
 10
107.3965304217295
 20
149.5604399994976
 30
0.0
 10
107.3834816649855
 20
149.5615943764398
 30
0.0
 10
107.3699547565907
 20
149.5627910537518
 30
0.0
 10
107.3564075795356
 20
149.5636033900594
 30
0.0
 10
107.3428604015352
 20
149.56441572606
 30
0.0
 10
107.3428604015352
 20
149.56441572606
 30
0.0
 10
106.931548611535
 20
149.5644157260782
 30
0.0
 10
106.931548611535
 20
149.5644157260782
 30
0.0
 10
106.931548611535
 20
149.5644157260782
 30
0.0
 10
106.9315486114965
 20
148.6928435440781
 30
0.0
 10
106.9315486114965
 20
148.6928435440781
 30
0.0
 10
106.9315486114965
 20
148.6928435440781
 30
0.0
 10
107.3620310274961
 20
148.6928435440588
 30
0.0
 10
107.3620310274961
 20
148.6928435440588
 30
0.0
 10
107.3744778764961
 20
148.6932884790585
 30
0.0
 10
107.3869247263952
 20
148.6937334139856
 30
0.0
 10
107.3992873982906
 20
148.6951015064892
 30
0.0
 10
107.4110605802521
 20
148.6964043641655
 30
0.0
 10
107.4227574205443
 20
148.6985444404346
 30
0.0
 10
107.434285807058
 20
148.7013109013065
 30
0.0
 10
107.445351325697
 20
148.7039662880167
 30
0.0
 10
107.4562616459331
 20
148.7071987700628
 30
0.0
 10
107.4670262544363
 20
148.7109072396313
 30
0.0
 10
107.4778085291348
 20
148.7146217953048
 30
0.0
 10
107.4884446134424
 20
148.718813902104
 30
0.0
 10
107.4986377209265
 20
148.7238905202503
 30
0.0
 10
107.5086001596674
 20
148.7288522551652
 30
0.0
 10
107.5181394437516
 20
148.7346589216344
 30
0.0
 10
107.5274267343889
 20
148.7408252343706
 30
0.0
 10
107.5369704549376
 20
148.7471618041902
 30
0.0
 10
107.5462480744273
 20
148.7538781547295
 30
0.0
 10
107.5550867674413
 20
148.7611468914424
 30
0.0
 10
107.564034760248
 20
148.7685055137769
 30
0.0
 10
107.5725329038776
 20
148.7764302684353
 30
0.0
 10
107.5804888391161
 20
148.7848554911286
 30
0.0
 10
107.5887466594455
 20
148.7936004058564
 30
0.0
 10
107.596420342911
 20
148.8028844893489
 30
0.0
 10
107.6036329481824
 20
148.8125155237597
 30
0.0
 10
107.6185796933834
 20
148.8324740008915
 30
0.0
 10
107.6315463550308
 20
148.8539224461364
 30
0.0
 10
107.6425827902971
 20
148.8763029468437
 30
0.0
 10
107.6543785012467
 20
148.9002231630074
 30
0.0
 10
107.6639692616673
 20
148.9252080916865
 30
0.0
 10
107.6713718041125
 20
148.9508156887298
 30
0.0
 10
107.679373878264
 20
148.9784972443462
 30
0.0
 10
107.6848189336708
 20
149.0069064124296
 30
0.0
 10
107.6883065182492
 20
149.0354892588161
 30
0.0
 10
107.6921465178599
 20
149.0669603576582
 30
0.0
 10
107.6936134605144
 20
149.0986420080441
 30
0.0
 10
107.695080403516
 20
149.1303236580438
 30
0.0
  0
HATCH
  5
65
330
60
100
AcDbEntity
  8
0
 62
     7
420
 16777215
100
AcDbHatch
 10
0.0
 20
0.0
 30
0.0
210
0.0
220
0.0
230
1.0
  2
SOLID
 70
     1
 71
     0
 91
        1
 92
        1
 93
        1
 72
     4
 94
        3
 73
     0
 74
     1
 95
       86
 96
       82
 40
0.0
 40
0.0
 40
0.0
 40
0.0
 40
1.0
 40
1.0
 40
1.0
 40
2.0
 40
2.0
 40
2.0
 40
3.0
 40
3.0
 40
3.0
 40
4.0
 40
4.0
 40
4.0
 40
5.0
 40
5.0
 40
5.0
 40
6.0
 40
6.0
 40
6.0
 40
7.0
 40
7.0
 40
7.0
 40
8.0
 40
8.0
 40
8.0
 40
9.0
 40
9.0
 40
9.0
 40
10.0
 40
10.0
 40
10.0
 40
11.0
 40
11.0
 40
11.0
 40
12.0
 40
12.0
 40
12.0
 40
13.0
 40
13.0
 40
13.0
 40
14.0
 40
14.0
 40
14.0
 40
15.0
 40
15.0
 40
15.0
 40
16.0
 40
16.0
 40
16.0
 40
17.0
 40
17.0
 40
17.0
 40
18.0
 40
18.0
 40
18.0
 40
19.0
 40
19.0
 40
19.0
 40
20.0
 40
20.0
 40
20.0
 40
21.0
 40
21.0
 40
21.0
 40
22.0
 40
22.0
 40
22.0
 40
23.0
 40
23.0
 40
23.0
 40
24.0
 40
24.0
 40
24.0
 40
25.0
 40
25.0
 40
25.0
 40
26.0
 40
26.0
 40
26.0
 40
27.0
 40
27.0
 40
27.0
 40
27.0
 10
107.695080403516
 20
149.1303236580438
 10
107.6939499515169
 20
149.1627753770439
 10
107.6928194987079
 20
149.195227095717
 10
107.6888710088469
 20
149.2274160183202
 10
107.6853395207436
 20
149.2562054545876
 10
107.6795537927032
 20
149.2847846716902
 10
107.671371804169
 20
149.3126540797221
 10
107.6639101895329
 20
149.3380697573396
 10
107.6544556913307
 20
149.3628951123119
 10
107.6425827901611
 20
149.3866023307499
 10
107.6314541709095
 20
149.4088234040789
 10
107.6182008520899
 20
149.4300621331736
 10
107.6025039670274
 20
149.4492607728496
 10
107.5949152279075
 20
149.4585424530923
 10
107.5867553569019
 20
149.4673473056169
 10
107.5782308768991
 20
149.4757918248891
 10
107.569985088736
 20
149.4839602664871
 10
107.561398142277
 20
149.4917915505302
 10
107.5522643153241
 20
149.4989359339073
 10
107.5429730793478
 20
149.5062034409679
 10
107.5331159509785
 20
149.5127601677658
 10
107.5229108109611
 20
149.518693100302
 10
107.5128627225792
 20
149.5245347281858
 10
107.5024772515534
 20
149.5297716137896
 10
107.4918638353381
 20
149.534498833637
 10
107.4808135841914
 20
149.5394206199378
 10
107.4695162378297
 20
149.5437899226764
 10
107.4579944070962
 20
149.5474821146417
 10
107.4463394037769
 20
149.5512169820085
 10
107.4344546967876
 20
149.5542589956683
 10
107.4224315078318
 20
149.5565139622939
 10
107.409560317409
 20
149.558927972832
 10
107.3965304217295
 20
149.5604399994976
 10
107.3834816649855
 20
149.5615943764398
 10
107.3699547565907
 20
149.5627910537518
 10
107.3564075795356
 20
149.5636033900594
 10
107.3428604015352
 20
149.56441572606
 10
107.3428604015352
 20
149.56441572606
 10
106.931548611535
 20
149.5644157260782
 10
106.931548611535
 20
149.5644157260782
 10
106.931548611535
 20
149.5644157260782
 10
106.9315486114965
 20
148.6928435440781
 10
106.9315486114965
 20
148.6928435440781
 10
106.9315486114965
 20
148.6928435440781
 10
107.3620310274961
 20
148.6928435440588
 10
107.3620310274961
 20
148.6928435440588
 10
107.3744778764961
 20
148.6932884790585
 10
107.3869247263952
 20
148.6937334139856
 10
107.3992873982906
 20
148.6951015064892
 10
107.4110605802521
 20
148.6964043641655
 10
107.4227574205443
 20
148.6985444404346
 10
107.434285807058
 20
148.7013109013065
 10
107.445351325697
 20
148.7039662880167
 10
107.4562616459331
 20
148.7071987700628
 10
107.4670262544363
 20
148.7109072396313
 10
107.4778085291348
 20
148.7146217953048
 10
107.4884446134424
 20
148.718813902104
 10
107.4986377209265
 20
148.7238905202503
 10
107.5086001596674
 20
148.7288522551652
 10
107.5181394437516
 20
148.7346589216344
 10
107.5274267343889
 20
148.7408252343706
 10
107.5369704549376
 20
148.7471618041902
 10
107.5462480744273
 20
148.7538781547295
 10
107.5550867674413
 20
148.7611468914424
 10
107.564034760248
 20
148.7685055137769
 10
107.5725329038776
 20
148.7764302684353
 10
107.5804888391161
 20
148.7848554911286
 10
107.5887466594455
 20
148.7936004058564
 10
107.596420342911
 20
148.8028844893489
 10
107.6036329481824
 20
148.8125155237597
 10
107.6185796933834
 20
148.8324740008915
 10
107.6315463550308
 20
148.8539224461364
 10
107.6425827902971
 20
148.8763029468437
 10
107.6543785012467
 20
148.9002231630074
 10
107.6639692616673
 20
148.9252080916865
 10
107.6713718041125
 20
148.9508156887298
 10
107.679373878264
 20
148.9784972443462
 10
107.6848189336708
 20
149.0069064124296
 10
107.6883065182492
 20
149.0354892588161
 10
107.6921465178599
 20
149.0669603576582
 10
107.6936134605144
 20
149.0986420080441
 10
107.695080403516
 20
149.1303236580438
 97
        0
 97
        0
 75
     2
 76
     1
 98
        0
  0
ENDBLK
  5
63
330
60
100
AcDbEntity
  8
0
100
AcDbBlockEnd
  0
BLOCK
  5
68
330
66
100
AcDbEntity
  8
0
100
AcDbBlockBegin
  2
block 8
 70
     0
 10
0.0
 20
0.0
 30
0.0
  3
block 8
  1

  0
SPLINE
  5
6A
330
66
100
AcDbEntity
  8
0
 62
     7
420
 16777215
370
     5
100
AcDbSpline
210
0.0
220
0.0
230
1.0
 70
    11
 71
     3
 72
   152
 73
   148
 74
     0
 42
0.0000000001
 43
0.0000000001
 12
1.0
 22
0.0
 32
0.0
 13
1.0
 23
0.0
 33
0.0
 40
0.0
 40
0.0
 40
0.0
 40
0.0
 40
1.0
 40
1.0
 40
1.0
 40
2.0
 40
2.0
 40
2.0
 40
3.0
 40
3.0
 40
3.0
 40
4.0
 40
4.0
 40
4.0
 40
5.0
 40
5.0
 40
5.0
 40
6.0
 40
6.0
 40
6.0
 40
7.0
 40
7.0
 40
7.0
 40
8.0
 40
8.0
 40
8.0
 40
9.0
 40
9.0
 40
9.0
 40
10.0
 40
10.0
 40
10.0
 40
11.0
 40
11.0
 40
11.0
 40
12.0
 40
12.0
 40
12.0
 40
13.0
 40
13.0
 40
13.0
 40
14.0
 40
14.0
 40
14.0
 40
15.0
 40
15.0
 40
15.0
 40
16.0
 40
16.0
 40
16.0
 40
17.0
 40
17.0
 40
17.0
 40
18.0
 40
18.0
 40
18.0
 40
19.0
 40
19.0
 40
19.0
 40
20.0
 40
20.0
 40
20.0
 40
21.0
 40
21.0
 40
21.0
 40
22.0
 40
22.0
 40
22.0
 40
23.0
 40
23.0
 40
23.0
 40
24.0
 40
24.0
 40
24.0
 40
25.0
 40
25.0
 40
25.0
 40
26.0
 40
26.0
 40
26.0
 40
27.0
 40
27.0
 40
27.0
 40
28.0
 40
28.0
 40
28.0
 40
29.0
 40
29.0
 40
29.0
 40
30.0
 40
30.0
 40
30.0
 40
31.0
 40
31.0
 40
31.0
 40
32.0
 40
32.0
 40
32.0
 40
33.0
 40
33.0
 40
33.0
 40
34.0
 40
34.0
 40
34.0
 40
35.0
 40
35.0
 40
35.0
 40
36.0
 40
36.0
 40
36.0
 40
37.0
 40
37.0
 40
37.0
 40
38.0
 40
38.0
 40
38.0
 40
39.0
 40
39.0
 40
39.0
 40
40.0
 40
40.0
 40
40.0
 40
41.0
 40
41.0
 40
41.0
 40
42.0
 40
42.0
 40
42.0
 40
43.0
 40
43.0
 40
43.0
 40
44.0
 40
44.0
 40
44.0
 40
45.0
 40
45.0
 40
45.0
 40
46.0
 40
46.0
 40
46.0
 40
47.0
 40
47.0
 40
47.0
 40
48.0
 40
48.0
 40
48.0
 40
49.0
 40
49.0
 40
49.0
 40
49.0
 10
103.2717330894756
 20
148.2474605642424
 30
0.0
 10
103.2749555054774
 20
148.2666203082423
 30
0.0
 10
103.2781779209196
 20
148.2857800521941
 30
0.0
 10
103.2807649367175
 20
148.3050385927083
 30
0.0
 10
103.2830562029838
 20
148.3220954828246
 30
0.0
 10
103.2848490441224
 20
148.3392298717081
 30
0.0
 10
103.2858453508329
 20
148.3564072253522
 30
0.0
 10
103.2864340987709
 20
148.3665578460696
 30
0.0
 10
103.2867446978774
 20
148.3767234700278
 30
0.0
 10
103.2869743321362
 20
148.3868897103665
 30
0.0
 10
103.2873058260408
 20
148.4015654243707
 30
0.0
 10
103.2874685969634
 20
148.416242422853
 30
0.0
 10
103.287538822362
 20
148.4309199670715
 30
0.0
 10
103.2876288475251
 20
148.4497357850647
 30
0.0
 10
103.2875667847278
 20
148.4685524999127
 30
0.0
 10
103.2875388223624
 20
148.4873690138363
 30
0.0
 10
103.2875044286542
 20
148.5105133260282
 30
0.0
 10
103.287521625489
 20
148.533657334242
 30
0.0
 10
103.28753882249
 20
148.5568013412419
 30
0.0
 10
103.287520308491
 20
148.575805738242
 30
0.0
 10
103.2875017946167
 20
148.5948101342423
 30
0.0
 10
103.2875388223944
 20
148.6138148793735
 30
0.0
 10
103.2875725506683
 20
148.6311261323936
 30
0.0
 10
103.2876523631055
 20
148.6484376750947
 30
0.0
 10
103.2875388224541
 20
148.6657480024457
 30
0.0
 10
103.2874351475565
 20
148.6815542038468
 30
0.0
 10
103.2871702613236
 20
148.6973593919295
 30
0.0
 10
103.2869743318936
 20
148.7131652019407
 30
0.0
 10
103.2867993917516
 20
148.7272777865564
 30
0.0
 10
103.2866794255319
 20
148.7413908669876
 30
0.0
 10
103.286409841695
 20
148.7555019862332
 30
0.0
 10
103.2861689276037
 20
148.7681124138695
 30
0.0
 10
103.2858085268475
 20
148.7807212752759
 30
0.0
 10
103.285280860642
 20
148.7933228479258
 30
0.0
 10
103.2848158062169
 20
148.8044291440036
 30
0.0
 10
103.2842208260401
 20
148.8155297784392
 30
0.0
 10
103.2835873893199
 20
148.8266277854872
 30
0.0
 10
103.2830503070055
 20
148.8360376335647
 30
0.0
 10
103.2824855778523
 20
148.8454455927844
 30
0.0
 10
103.2818939180349
 20
148.8548523088454
 30
0.0
 10
103.2813965520039
 20
148.8627598612693
 30
0.0
 10
103.2808801552557
 20
148.8706665352076
 30
0.0
 10
103.2802004466434
 20
148.8785609090189
 30
0.0
 10
103.2776182158521
 20
148.9085518415508
 30
0.0
 10
103.2726789703084
 20
148.9383652512778
 30
0.0
 10
103.2660881844433
 20
148.9677504030016
 30
0.0
 10
103.2589223617421
 20
148.9996993680535
 30
0.0
 10
103.2498042375112
 20
149.0311420852435
 30
0.0
 10
103.2406861135126
 20
149.062584802244
 30
0.0
 10
103.2333303305137
 20
149.0869811982444
 30
0.0
 10
103.2259745477003
 20
149.1113775945839
 30
0.0
 10
103.2175420042056
 20
149.1354040721383
 30
0.0
 10
103.2093745853993
 20
149.1586751415037
 30
0.0
 10
103.2001970496406
 20
149.1815991873913
 30
0.0
 10
103.1904464615039
 20
149.2042719097721
 30
0.0
 10
103.1809301422344
 20
149.2263998944505
 30
0.0
 10
103.1708679762474
 20
149.2482884872041
 30
0.0
 10
103.1599639765268
 20
149.2697528035567
 30
0.0
 10
103.1492450342655
 20
149.2908528378145
 30
0.0
 10
103.1377125901935
 20
149.311542874697
 30
0.0
 10
103.1255300578456
 20
149.3318467552801
 30
0.0
 10
103.1139783353867
 20
149.3510993036531
 30
0.0
 10
103.1018421046338
 20
149.370004650625
 30
0.0
 10
103.0888381770694
 20
149.3882958025441
 30
0.0
 10
103.0767988091149
 20
149.4052302177186
 30
0.0
 10
103.0640156923351
 20
149.4216381738301
 30
0.0
 10
103.0504528252508
 20
149.4374064729258
 30
0.0
 10
103.0380302163582
 20
149.4518490986155
 30
0.0
 10
103.0249534562306
 20
149.4657551006895
 30
0.0
 10
103.0109384924632
 20
149.4786142775726
 30
0.0
 10
102.9977559348863
 20
149.4907096951885
 30
0.0
 10
102.9837433115326
 20
149.5018789452556
 30
0.0
 10
102.9697306885332
 20
149.5130481962563
 30
0.0
 10
102.9558934905336
 20
149.5216699852566
 30
0.0
 10
102.9420562928356
 20
149.5302917750487
 30
0.0
 10
102.927393903289
 20
149.5373212861729
 30
0.0
 10
102.913498008049
 20
149.5439833210242
 30
0.0
 10
102.8988609416951
 20
149.5492152024444
 30
0.0
 10
102.8839281372369
 20
149.553127019519
 30
0.0
 10
102.8760995888679
 20
149.5551777963344
 30
0.0
 10
102.8681897598786
 20
149.5568657668472
 30
0.0
 10
102.8602195372482
 20
149.5582074333819
 30
0.0
 10
102.8510594411053
 20
149.559749397141
 30
0.0
 10
102.8418195729819
 20
149.5608339393314
 30
0.0
 10
102.8325595041265
 20
149.5615943762364
 30
0.0
 10
102.8220399634241
 20
149.5624582409759
 30
0.0
 10
102.8114943532491
 20
149.562903840992
 30
0.0
 10
102.8009480377858
 20
149.5632878478271
 30
0.0
 10
102.7892306634676
 20
149.5637144946351
 30
0.0
 10
102.7775124185352
 20
149.5640651102647
 30
0.0
 10
102.7657941735354
 20
149.5644157262653
 30
0.0
 10
102.7657941735354
 20
149.5644157262653
 30
0.0
 10
102.4517522495359
 20
149.5644157262794
 30
0.0
 10
102.4517522495359
 20
149.5644157262794
 30
0.0
 10
102.4517522495359
 20
149.5644157262794
 30
0.0
 10
102.451752249448
 20
147.6090218442795
 30
0.0
 10
102.451752249448
 20
147.6090218442795
 30
0.0
 10
102.451752249448
 20
147.6090218442795
 30
0.0
 10
102.7614337054475
 20
147.6090218442654
 30
0.0
 10
102.7614337054475
 20
147.6090218442654
 30
0.0
 10
102.7780045634478
 20
147.6090935712651
 30
0.0
 10
102.79457542222
 20
147.6091652989117
 30
0.0
 10
102.8111088666492
 20
147.6101508254364
 30
0.0
 10
102.8262301811124
 20
147.6110521776364
 30
0.0
 10
102.8413201994532
 20
147.612717898776
 30
0.0
 10
102.8562681042981
 20
147.6152312393965
 30
0.0
 10
102.8697818051361
 20
147.6175034329639
 30
0.0
 10
102.8831793548891
 20
147.620468396227
 30
0.0
 10
102.8963469272727
 20
147.6242630868361
 30
0.0
 10
102.9086509349951
 20
147.6278089114738
 30
0.0
 10
102.9207541412594
 20
147.6320792007025
 30
0.0
 10
102.9324743174705
 20
147.6372463675523
 30
0.0
 10
102.9438080074596
 20
147.6422431411621
 30
0.0
 10
102.9547835125865
 20
147.6480786165496
 30
0.0
 10
102.9652147642596
 20
147.6547455722046
 30
0.0
 10
102.9763177915852
 20
147.6618418817488
 30
0.0
 10
102.9868042080584
 20
147.6698802151841
 30
0.0
 10
102.9968262304367
 20
147.6784541720073
 30
0.0
 10
103.007356899392
 20
147.6874632819014
 30
0.0
 10
103.0173748393586
 20
147.6970637637385
 30
0.0
 10
103.0267442255309
 20
147.7072431858239
 30
0.0
 10
103.0370520459247
 20
147.7184421750254
 30
0.0
 10
103.0465748884531
 20
147.7303418852528
 30
0.0
 10
103.0560977304535
 20
147.7422415952517
 30
0.0
 10
103.0690715534544
 20
147.7598003432515
 30
0.0
 10
103.08204537721
 20
147.7773590912103
 30
0.0
 10
103.0944830815277
 20
147.7953036987898
 30
0.0
 10
103.1069728856073
 20
147.8133234737601
 30
0.0
 10
103.1189220693868
 20
147.831732347743
 30
0.0
 10
103.1300459813697
 20
147.850623765449
 30
0.0
 10
103.1413241309145
 20
147.8697771203433
 30
0.0
 10
103.1517539645463
 20
147.8894264930595
 30
0.0
 10
103.1616574473593
 20
147.9093307740942
 30
0.0
 10
103.171823284816
 20
147.929762342415
 30
0.0
 10
103.1814345147949
 20
147.9504625035726
 30
0.0
 10
103.1904464615918
 20
147.9714247259882
 30
0.0
 10
103.1995559628321
 20
147.9926138647361
 30
0.0
 10
103.2080531361691
 20
148.0140707690846
 30
0.0
 10
103.2158485328527
 20
148.0357766390115
 30
0.0
 10
103.2238740674466
 20
148.0581233157839
 30
0.0
 10
103.231155777645
 20
148.0807338751911
 30
0.0
 10
103.2378636615173
 20
148.103515495412
 30
0.0
 10
103.2447365699798
 20
148.1268575796448
 30
0.0
 10
103.2510070707396
 20
148.1503792449594
 30
0.0
 10
103.2564918469146
 20
148.1740768035982
 30
0.0
 10
103.2621247535542
 20
148.1984143756582
 30
0.0
 10
103.2669289214751
 20
148.2229374702429
 30
0.0
 10
103.2717330894756
 20
148.2474605642424
 30
0.0
  0
HATCH
  5
6B
330
66
100
AcDbEntity
  8
0
 62
     7
420
 16777215
100
AcDbHatch
 10
0.0
 20
0.0
 30
0.0
210
0.0
220
0.0
230
1.0
  2
SOLID
 70
     1
 71
     0
 91
        1
 92
        1
 93
        1
 72
     4
 94
        3
 73
     0
 74
     1
 95
      152
 96
      148
 40
0.0
 40
0.0
 40
0.0
 40
0.0
 40
1.0
 40
1.0
 40
1.0
 40
2.0
 40
2.0
 40
2.0
 40
3.0
 40
3.0
 40
3.0
 40
4.0
 40
4.0
 40
4.0
 40
5.0
 40
5.0
 40
5.0
 40
6.0
 40
6.0
 40
6.0
 40
7.0
 40
7.0
 40
7.0
 40
8.0
 40
8.0
 40
8.0
 40
9.0
 40
9.0
 40
9.0
 40
10.0
 40
10.0
 40
10.0
 40
11.0
 40
11.0
 40
11.0
 40
12.0
 40
12.0
 40
12.0
 40
13.0
 40
13.0
 40
13.0
 40
14.0
 40
14.0
 40
14.0
 40
15.0
 40
15.0
 40
15.0
 40
16.0
 40
16.0
 40
16.0
 40
17.0
 40
17.0
 40
17.0
 40
18.0
 40
18.0
 40
18.0
 40
19.0
 40
19.0
 40
19.0
 40
20.0
 40
20.0
 40
20.0
 40
21.0
 40
21.0
 40
21.0
 40
22.0
 40
22.0
 40
22.0
 40
23.0
 40
23.0
 40
23.0
 40
24.0
 40
24.0
 40
24.0
 40
25.0
 40
25.0
 40
25.0
 40
26.0
 40
26.0
 40
26.0
 40
27.0
 40
27.0
 40
27.0
 40
28.0
 40
28.0
 40
28.0
 40
29.0
 40
29.0
 40
29.0
 40
30.0
 40
30.0
 40
30.0
 40
31.0
 40
31.0
 40
31.0
 40
32.0
 40
32.0
 40
32.0
 40
33.0
 40
33.0
 40
33.0
 40
34.0
 40
34.0
 40
34.0
 40
35.0
 40
35.0
 40
35.0
 40
36.0
 40
36.0
 40
36.0
 40
37.0
 40
37.0
 40
37.0
 40
38.0
 40
38.0
 40
38.0
 40
39.0
 40
39.0
 40
39.0
 40
40.0
 40
40.0
 40
40.0
 40
41.0
 40
41.0
 40
41.0
 40
42.0
 40
42.0
 40
42.0
 40
43.0
 40
43.0
 40
43.0
 40
44.0
 40
44.0
 40
44.0
 40
45.0
 40
45.0
 40
45.0
 40
46.0
 40
46.0
 40
46.0
 40
47.0
 40
47.0
 40
47.0
 40
48.0
 40
48.0
 40
48.0
 40
49.0
 40
49.0
 40
49.0
 40
49.0
 10
103.2717330894756
 20
148.2474605642424
 10
103.2749555054774
 20
148.2666203082423
 10
103.2781779209196
 20
148.2857800521941
 10
103.2807649367175
 20
148.3050385927083
 10
103.2830562029838
 20
148.3220954828246
 10
103.2848490441224
 20
148.3392298717081
 10
103.2858453508329
 20
148.3564072253522
 10
103.2864340987709
 20
148.3665578460696
 10
103.2867446978774
 20
148.3767234700278
 10
103.2869743321362
 20
148.3868897103665
 10
103.2873058260408
 20
148.4015654243707
 10
103.2874685969634
 20
148.416242422853
 10
103.287538822362
 20
148.4309199670715
 10
103.2876288475251
 20
148.4497357850647
 10
103.2875667847278
 20
148.4685524999127
 10
103.2875388223624
 20
148.4873690138363
 10
103.2875044286542
 20
148.5105133260282
 10
103.287521625489
 20
148.533657334242
 10
103.28753882249
 20
148.5568013412419
 10
103.287520308491
 20
148.575805738242
 10
103.2875017946167
 20
148.5948101342423
 10
103.2875388223944
 20
148.6138148793735
 10
103.2875725506683
 20
148.6311261323936
 10
103.2876523631055
 20
148.6484376750947
 10
103.2875388224541
 20
148.6657480024457
 10
103.2874351475565
 20
148.6815542038468
 10
103.2871702613236
 20
148.6973593919295
 10
103.2869743318936
 20
148.7131652019407
 10
103.2867993917516
 20
148.7272777865564
 10
103.2866794255319
 20
148.7413908669876
 10
103.286409841695
 20
148.7555019862332
 10
103.2861689276037
 20
148.7681124138695
 10
103.2858085268475
 20
148.7807212752759
 10
103.285280860642
 20
148.7933228479258
 10
103.2848158062169
 20
148.8044291440036
 10
103.2842208260401
 20
148.8155297784392
 10
103.2835873893199
 20
148.8266277854872
 10
103.2830503070055
 20
148.8360376335647
 10
103.2824855778523
 20
148.8454455927844
 10
103.2818939180349
 20
148.8548523088454
 10
103.2813965520039
 20
148.8627598612693
 10
103.2808801552557
 20
148.8706665352076
 10
103.2802004466434
 20
148.8785609090189
 10
103.2776182158521
 20
148.9085518415508
 10
103.2726789703084
 20
148.9383652512778
 10
103.2660881844433
 20
148.9677504030016
 10
103.2589223617421
 20
148.9996993680535
 10
103.2498042375112
 20
149.0311420852435
 10
103.2406861135126
 20
149.062584802244
 10
103.2333303305137
 20
149.0869811982444
 10
103.2259745477003
 20
149.1113775945839
 10
103.2175420042056
 20
149.1354040721383
 10
103.2093745853993
 20
149.1586751415037
 10
103.2001970496406
 20
149.1815991873913
 10
103.1904464615039
 20
149.2042719097721
 10
103.1809301422344
 20
149.2263998944505
 10
103.1708679762474
 20
149.2482884872041
 10
103.1599639765268
 20
149.2697528035567
 10
103.1492450342655
 20
149.2908528378145
 10
103.1377125901935
 20
149.311542874697
 10
103.1255300578456
 20
149.3318467552801
 10
103.1139783353867
 20
149.3510993036531
 10
103.1018421046338
 20
149.370004650625
 10
103.0888381770694
 20
149.3882958025441
 10
103.0767988091149
 20
149.4052302177186
 10
103.0640156923351
 20
149.4216381738301
 10
103.0504528252508
 20
149.4374064729258
 10
103.0380302163582
 20
149.4518490986155
 10
103.0249534562306
 20
149.4657551006895
 10
103.0109384924632
 20
149.4786142775726
 10
102.9977559348863
 20
149.4907096951885
 10
102.9837433115326
 20
149.5018789452556
 10
102.9697306885332
 20
149.5130481962563
 10
102.9558934905336
 20
149.5216699852566
 10
102.9420562928356
 20
149.5302917750487
 10
102.927393903289
 20
149.5373212861729
 10
102.913498008049
 20
149.5439833210242
 10
102.8988609416951
 20
149.5492152024444
 10
102.8839281372369
 20
149.553127019519
 10
102.8760995888679
 20
149.5551777963344
 10
102.8681897598786
 20
149.5568657668472
 10
102.8602195372482
 20
149.5582074333819
 10
102.8510594411053
 20
149.559749397141
 10
102.8418195729819
 20
149.5608339393314
 10
102.8325595041265
 20
149.5615943762364
 10
102.8220399634241
 20
149.5624582409759
 10
102.8114943532491
 20
149.562903840992
 10
102.8009480377858
 20
149.5632878478271
 10
102.7892306634676
 20
149.5637144946351
 10
102.7775124185352
 20
149.5640651102647
 10
102.7657941735354
 20
149.5644157262653
 10
102.7657941735354
 20
149.5644157262653
 10
102.4517522495359
 20
149.5644157262794
 10
102.4517522495359
 20
149.5644157262794
 10
102.4517522495359
 20
149.5644157262794
 10
102.451752249448
 20
147.6090218442795
 10
102.451752249448
 20
147.6090218442795
 10
102.451752249448
 20
147.6090218442795
 10
102.7614337054475
 20
147.6090218442654
 10
102.7614337054475
 20
147.6090218442654
 10
102.7780045634478
 20
147.6090935712651
 10
102.79457542222
 20
147.6091652989117
 10
102.8111088666492
 20
147.6101508254364
 10
102.8262301811124
 20
147.6110521776364
 10
102.8413201994532
 20
147.612717898776
 10
102.8562681042981
 20
147.6152312393965
 10
102.8697818051361
 20
147.6175034329639
 10
102.8831793548891
 20
147.620468396227
 10
102.8963469272727
 20
147.6242630868361
 10
102.9086509349951
 20
147.6278089114738
 10
102.9207541412594
 20
147.6320792007025
 10
102.9324743174705
 20
147.6372463675523
 10
102.9438080074596
 20
147.6422431411621
 10
102.9547835125865
 20
147.6480786165496
 10
102.9652147642596
 20
147.6547455722046
 10
102.9763177915852
 20
147.6618418817488
 10
102.9868042080584
 20
147.6698802151841
 10
102.9968262304367
 20
147.6784541720073
 10
103.007356899392
 20
147.6874632819014
 10
103.0173748393586
 20
147.6970637637385
 10
103.0267442255309
 20
147.7072431858239
 10
103.0370520459247
 20
147.7184421750254
 10
103.0465748884531
 20
147.7303418852528
 10
103.0560977304535
 20
147.7422415952517
 10
103.0690715534544
 20
147.7598003432515
 10
103.08204537721
 20
147.7773590912103
 10
103.0944830815277
 20
147.7953036987898
 10
103.1069728856073
 20
147.8133234737601
 10
103.1189220693868
 20
147.831732347743
 10
103.1300459813697
 20
147.850623765449
 10
103.1413241309145
 20
147.8697771203433
 10
103.1517539645463
 20
147.8894264930595
 10
103.1616574473593
 20
147.9093307740942
 10
103.171823284816
 20
147.929762342415
 10
103.1814345147949
 20
147.9504625035726
 10
103.1904464615918
 20
147.9714247259882
 10
103.1995559628321
 20
147.9926138647361
 10
103.2080531361691
 20
148.0140707690846
 10
103.2158485328527
 20
148.0357766390115
 10
103.2238740674466
 20
148.0581233157839
 10
103.231155777645
 20
148.0807338751911
 10
103.2378636615173
 20
148.103515495412
 10
103.2447365699798
 20
148.1268575796448
 10
103.2510070707396
 20
148.1503792449594
 10
103.2564918469146
 20
148.1740768035982
 10
103.2621247535542
 20
148.1984143756582
 10
103.2669289214751
 20
148.2229374702429
 10
103.2717330894756
 20
148.2474605642424
 97
        0
 97
        0
 75
     2
 76
     1
 98
        0
  0
ENDBLK
  5
69
330
66
100
AcDbEntity
  8
0
100
AcDbBlockEnd
  0
ENDSEC
  0
SECTION
  2
ENTITIES
  0
INSERT
  5
41
330
1F
100
AcDbEntity
  8
0
100
AcDbBlockReference
  2
block 2
 10
0.0
 20
0.0
 30
0.0
  0
INSERT
  5
4D
330
1F
100
AcDbEntity
  8
0
100
AcDbBlockReference
  2
block 3
 10
0.0
 20
0.0
 30
0.0
  0
INSERT
  5
52
330
1F
100
AcDbEntity
  8
0
100
AcDbBlockReference
  2
block 4
 10
0.0
 20
0.0
 30
0.0
  0
INSERT
  5
57
330
1F
100
AcDbEntity
  8
0
100
AcDbBlockReference
  2
block 5
 10
0.0
 20
0.0
 30
0.0
  0
INSERT
  5
5C
330
1F
100
AcDbEntity
  8
0
100
AcDbBlockReference
  2
block 6
 10
0.0
 20
0.0
 30
0.0
  0
INSERT
  5
61
330
1F
100
AcDbEntity
  8
0
100
AcDbBlockReference
  2
block 7
 10
0.0
 20
0.0
 30
0.0
  0
INSERT
  5
67
330
1F
100
AcDbEntity
  8
0
100
AcDbBlockReference
  2
block 8
 10
0.0
 20
0.0
 30
0.0
  0
ENDSEC
  0
SECTION
  2
OBJECTS
  0
DICTIONARY
  5
C
330
0
100
AcDbDictionary
281
     1
  3
ACAD_GROUP
350
D
  3
ACAD_LAYOUT
350
1A
  3
ACAD_MATERIAL
350
3B
  3
ACAD_MLEADERSTYLE
350
6D
  3
ACAD_MLINESTYLE
350
17
  3
ACAD_PLOTSETTINGS
350
19
  3
ACAD_PLOTSTYLENAME
350
E
  3
ACAD_TABLESTYLE
350
6C
  3
ACAD_VISUALSTYLE
350
2A
  0
SUN
  5
3F
330
29
100
AcDbSun
 90
        1
290
     0
 63
     7
421
 16777215
 40
1.0
291
     1
 91
  2455826
 92
 54000000
292
     0
 70
     2
 71
   256
280
     1
  0
DICTIONARY
  5
D
102
{ACAD_REACTORS
330
C
102
}
330
C
100
AcDbDictionary
281
     1
  0
DICTIONARY
  5
1A
102
{ACAD_REACTORS
330
C
102
}
330
C
100
AcDbDictionary
281
     1
  3
Layout1
350
1E
  3
Layout2
350
26
  3
Model
350
22
  0
DICTIONARY
  5
3B
102
{ACAD_REACTORS
330
C
102
}
330
C
100
AcDbDictionary
281
     1
  3
ByBlock
350
3D
  3
ByLayer
350
3C
  3
Global
350
3E
  0
DICTIONARY
  5
6D
102
{ACAD_REACTORS
330
C
102
}
330
C
100
AcDbDictionary
281
     1
  0
DICTIONARY
  5
17
102
{ACAD_REACTORS
330
C
102
}
330
C
100
AcDbDictionary
281
     1
  3
Standard
350
18
  0
DICTIONARY
  5
19
102
{ACAD_REACTORS
330
C
102
}
330
C
100
AcDbDictionary
281
     1
  0
ACDBDICTIONARYWDFLT
  5
E
102
{ACAD_REACTORS
330
C
102
}
330
C
100
AcDbDictionary
281
     1
  3
Normal
350
F
100
AcDbDictionaryWithDefault
340
F
  0
DICTIONARY
  5
6C
102
{ACAD_REACTORS
330
C
102
}
330
C
100
AcDbDictionary
281
     1
  0
DICTIONARY
  5
2A
102
{ACAD_REACTORS
330
C
102
}
330
C
100
AcDbDictionary
281
     1
  3
2dWireframe
350
2F
  3
3D Hidden
350
31
  3
3dWireframe
350
30
  3
Basic
350
32
  3
Brighten
350
36
  3
ColorChange
350
3A
  3
Conceptual
350
34
  3
Dim
350
35
  3
Facepattern
350
39
  3
Flat
350
2B
  3
FlatWithEdges
350
2C
  3
Gouraud
350
2D
  3
GouraudWithEdges
350
2E
  3
Linepattern
350
38
  3
Realistic
350
33
  3
Thicken
350
37
  0
LAYOUT
  5
1E
102
{ACAD_REACTORS
330
1A
102
}
330
1A
100
AcDbPlotSettings
  1

  2
none_device
  4

  6

 40
0.0
 41
0.0
 42
0.0
 43
0.0
 44
0.0
 45
0.0
 46
0.0
 47
0.0
 48
0.0
 49
0.0
140
0.0
141
0.0
142
1.0
143
1.0
 70
   688
 72
     0
 73
     0
 74
     5
  7

 75
    16
 76
     0
 77
     2
 78
   300
147
1.0
148
0.0
149
0.0
100
AcDbLayout
  1
Layout1
 70
     1
 71
     1
 10
0.0
 20
0.0
 11
12.0
 21
9.0
 12
0.0
 22
0.0
 32
0.0
 14
1.000000000000000E+20
 24
1.000000000000000E+20
 34
1.000000000000000E+20
 15
-1.000000000000000E+20
 25
-1.000000000000000E+20
 35
-1.000000000000000E+20
146
0.0
 13
0.0
 23
0.0
 33
0.0
 16
1.0
 26
0.0
 36
0.0
 17
0.0
 27
1.0
 37
0.0
 76
     0
330
1B
  0
LAYOUT
  5
26
102
{ACAD_REACTORS
330
1A
102
}
330
1A
100
AcDbPlotSettings
  1

  2
none_device
  4

  6

 40
0.0
 41
0.0
 42
0.0
 43
0.0
 44
0.0
 45
0.0
 46
0.0
 47
0.0
 48
0.0
 49
0.0
140
0.0
141
0.0
142
1.0
143
1.0
 70
   688
 72
     0
 73
     0
 74
     5
  7

 75
    16
 76
     0
 77
     2
 78
   300
147
1.0
148
0.0
149
0.0
100
AcDbLayout
  1
Layout2
 70
     1
 71
     2
 10
0.0
 20
0.0
 11
0.0
 21
0.0
 12
0.0
 22
0.0
 32
0.0
 14
0.0
 24
0.0
 34
0.0
 15
0.0
 25
0.0
 35
0.0
146
0.0
 13
0.0
 23
0.0
 33
0.0
 16
1.0
 26
0.0
 36
0.0
 17
0.0
 27
1.0
 37
0.0
 76
     0
330
23
  0
LAYOUT
  5
22
102
{ACAD_REACTORS
330
1A
102
}
330
1A
100
AcDbPlotSettings
  1

  2
none_device
  4

  6

 40
0.0
 41
0.0
 42
0.0
 43
0.0
 44
0.0
 45
0.0
 46
0.0
 47
0.0
 48
0.0
 49
0.0
140
0.0
141
0.0
142
1.0
143
1.0
 70
  1712
 72
     0
 73
     0
 74
     0
  7

 75
     0
 76
     0
 77
     2
 78
   300
147
1.0
148
0.0
149
0.0
100
AcDbLayout
  1
Model
 70
     1
 71
     0
 10
0.0
 20
0.0
 11
12.0
 21
9.0
 12
0.0
 22
0.0
 32
0.0
 14
1.000000000000000E+20
 24
1.000000000000000E+20
 34
1.000000000000000E+20
 15
-1.000000000000000E+20
 25
-1.000000000000000E+20
 35
-1.000000000000000E+20
146
0.0
 13
0.0
 23
0.0
 33
0.0
 16
1.0
 26
0.0
 36
0.0
 17
0.0
 27
1.0
 37
0.0
 76
     0
330
1F
331
29
  0
MATERIAL
  5
3D
102
{ACAD_REACTORS
330
3B
102
}
330
3B
100
AcDbMaterial
  1
ByBlock
 72
     1
 94
      127
  0
MATERIAL
  5
3C
102
{ACAD_REACTORS
330
3B
102
}
330
3B
100
AcDbMaterial
  1
ByLayer
 72
     1
 94
      127
  0
MATERIAL
  5
3E
102
{ACAD_REACTORS
330
3B
102
}
330
3B
100
AcDbMaterial
  1
Global
 72
     1
 94
      127
  0
MLINESTYLE
  5
18
102
{ACAD_REACTORS
330
17
102
}
330
17
100
AcDbMlineStyle
  2
Standard
 70
     0
  3

 62
   256
 51
90.0
 52
90.0
 71
     2
 49
0.5
 62
   256
  6
BYLAYER
 49
-0.5
 62
   256
  6
BYLAYER
  0
ACDBPLACEHOLDER
  5
F
102
{ACAD_REACTORS
330
E
102
}
330
E
  0
VISUALSTYLE
  5
2F
102
{ACAD_REACTORS
330
2A
102
}
330
2A
100
AcDbVisualStyle
  2
2dWireframe
 70
     4
177
     2
291
     0
 71
     0
176
     1
 72
     2
176
     1
 73
     0
176
     1
 90
        0
176
     1
 40
-0.6
176
     1
 41
-30.0
176
     1
 62
     5
 63
     7
421
 16777215
176
     1
 74
     1
176
     1
 91
        4
176
     1
 64
     7
176
     1
 65
   257
176
     1
 75
     1
176
     1
175
     1
176
     1
 42
1.0
176
     1
 92
        0
176
     1
 66
   257
176
     1
 43
1.0
176
     1
 76
     1
176
     1
 77
     6
176
     1
 78
     2
176
     1
 67
     7
176
     1
 79
     5
176
     1
170
     0
176
     1
171
     0
176
     1
290
     0
176
     1
 93
        1
176
     1
 44
0.0
176
     1
173
     0
176
     1
  0
VISUALSTYLE
  5
31
102
{ACAD_REACTORS
330
2A
102
}
330
2A
100
AcDbVisualStyle
  2
3D Hidden
 70
     6
177
     2
291
     0
 71
     1
176
     1
 72
     2
176
     1
 73
     2
176
     1
 90
        0
176
     1
 40
-0.6
176
     1
 41
-30.0
176
     1
 62
     5
 63
     7
421
 16777215
176
     1
 74
     2
176
     1
 91
        2
176
     1
 64
     7
176
     1
 65
   257
176
     1
 75
     2
176
     1
175
     1
176
     1
 42
40.0
176
     1
 92
        0
176
     1
 66
   257
176
     1
 43
1.0
176
     1
 76
     1
176
     1
 77
     6
176
     1
 78
     2
176
     1
 67
     7
176
     1
 79
     3
176
     1
170
     0
176
     1
171
     0
176
     1
290
     0
176
     1
 93
        1
176
     1
 44
0.0
176
     1
173
     0
176
     1
  0
VISUALSTYLE
  5
30
102
{ACAD_REACTORS
330
2A
102
}
330
2A
100
AcDbVisualStyle
  2
3dWireframe
 70
     5
177
     2
291
     0
 71
     0
176
     1
 72
     2
176
     1
 73
     0
176
     1
 90
        0
176
     1
 40
-0.6
176
     1
 41
-30.0
176
     1
 62
     5
 63
     7
421
 16777215
176
     1
 74
     1
176
     1
 91
        4
176
     1
 64
     7
176
     1
 65
   257
176
     1
 75
     1
176
     1
175
     1
176
     1
 42
1.0
176
     1
 92
        0
176
     1
 66
   257
176
     1
 43
1.0
176
     1
 76
     1
176
     1
 77
     6
176
     1
 78
     2
176
     1
 67
     7
176
     1
 79
     5
176
     1
170
     0
176
     1
171
     0
176
     1
290
     0
176
     1
 93
        1
176
     1
 44
0.0
176
     1
173
     0
176
     1
  0
VISUALSTYLE
  5
32
102
{ACAD_REACTORS
330
2A
102
}
330
2A
100
AcDbVisualStyle
  2
Basic
 70
     7
177
     2
291
     1
 71
     1
176
     1
 72
     0
176
     1
 73
     1
176
     1
 90
        0
176
     1
 40
-0.6
176
     1
 41
-30.0
176
     1
 62
     5
 63
     7
421
 16777215
176
     1
 74
     0
176
     1
 91
        4
176
     1
 64
     7
176
     1
 65
   257
176
     1
 75
     1
176
     1
175
     1
176
     1
 42
1.0
176
     1
 92
        8
176
     1
 66
     7
176
     1
 43
1.0
176
     1
 76
     1
176
     1
 77
     6
176
     1
 78
     2
176
     1
 67
     7
176
     1
 79
     5
176
     1
170
     0
176
     1
171
     0
176
     1
290
     0
176
     1
 93
        1
176
     1
 44
0.0
176
     1
173
     0
176
     1
  0
VISUALSTYLE
  5
36
102
{ACAD_REACTORS
330
2A
102
}
330
2A
100
AcDbVisualStyle
  2
Brighten
 70
    12
177
     2
291
     1
 71
     2
176
     1
 72
     2
176
     1
 73
     0
176
     1
 90
        0
176
     1
 40
-0.6
176
     1
 41
-30.0
176
     1
 62
     5
 63
     7
421
 16777215
176
     1
 74
     1
176
     1
 91
        4
176
     1
 64
     7
176
     1
 65
   257
176
     1
 75
     1
176
     1
175
     1
176
     1
 42
1.0
176
     1
 92
        8
176
     1
 66
     7
176
     1
 43
1.0
176
     1
 76
     1
176
     1
 77
     6
176
     1
 78
     2
176
     1
 67
     7
176
     1
 79
     5
176
     1
170
     0
176
     1
171
     0
176
     1
290
     0
176
     1
 93
        1
176
     1
 44
50.0
176
     1
173
     0
176
     1
  0
VISUALSTYLE
  5
3A
102
{ACAD_REACTORS
330
2A
102
}
330
2A
100
AcDbVisualStyle
  2
ColorChange
 70
    16
177
     2
291
     1
 71
     2
176
     1
 72
     2
176
     1
 73
     3
176
     1
 90
        0
176
     1
 40
-0.6
176
     1
 41
-30.0
176
     1
 62
     5
 63
     8
421
  8421504
176
     1
 74
     1
176
     1
 91
        4
176
     1
 64
     7
176
     1
 65
   257
176
     1
 75
     1
176
     1
175
     1
176
     1
 42
1.0
176
     1
 92
        8
176
     1
 66
     8
424
  8421504
176
     1
 43
1.0
176
     1
 76
     1
176
     1
 77
     6
176
     1
 78
     2
176
     1
 67
     7
176
     1
 79
     5
176
     1
170
     0
176
     1
171
     0
176
     1
290
     0
176
     1
 93
        1
176
     1
 44
0.0
176
     1
173
     0
176
     1
  0
VISUALSTYLE
  5
34
102
{ACAD_REACTORS
330
2A
102
}
330
2A
100
AcDbVisualStyle
  2
Conceptual
 70
     9
177
     2
291
     0
 71
     3
176
     1
 72
     2
176
     1
 73
     0
176
     1
 90
        0
176
     1
 40
-0.6
176
     1
 41
-30.0
176
     1
 62
     5
 63
     7
421
 16777215
176
     1
 74
     2
176
     1
 91
        2
176
     1
 64
     7
176
     1
 65
   257
176
     1
 75
     1
176
     1
175
     1
176
     1
 42
40.0
176
     1
 92
        8
176
     1
 66
     7
176
     1
 43
1.0
176
     1
 76
     1
176
     1
 77
     6
176
     1
 78
     2
176
     1
 67
     7
176
     1
 79
     3
176
     1
170
     0
176
     1
171
     0
176
     1
290
     0
176
     1
 93
        1
176
     1
 44
0.0
176
     1
173
     0
176
     1
  0
VISUALSTYLE
  5
35
102
{ACAD_REACTORS
330
2A
102
}
330
2A
100
AcDbVisualStyle
  2
Dim
 70
    11
177
     2
291
     1
 71
     2
176
     1
 72
     2
176
     1
 73
     0
176
     1
 90
        0
176
     1
 40
-0.6
176
     1
 41
-30.0
176
     1
 62
     5
 63
     7
421
 16777215
176
     1
 74
     1
176
     1
 91
        4
176
     1
 64
     7
176
     1
 65
   257
176
     1
 75
     1
176
     1
175
     1
176
     1
 42
1.0
176
     1
 92
        8
176
     1
 66
     7
176
     1
 43
1.0
176
     1
 76
     1
176
     1
 77
     6
176
     1
 78
     2
176
     1
 67
     7
176
     1
 79
     5
176
     1
170
     0
176
     1
171
     0
176
     1
290
     0
176
     1
 93
        1
176
     1
 44
-50.0
176
     1
173
     0
176
     1
  0
VISUALSTYLE
  5
39
102
{ACAD_REACTORS
330
2A
102
}
330
2A
100
AcDbVisualStyle
  2
Facepattern
 70
    15
177
     2
291
     1
 71
     2
176
     1
 72
     2
176
     1
 73
     0
176
     1
 90
        0
176
     1
 40
-0.6
176
     1
 41
-30.0
176
     1
 62
     5
 63
     7
421
 16777215
176
     1
 74
     1
176
     1
 91
        4
176
     1
 64
     7
176
     1
 65
   257
176
     1
 75
     1
176
     1
175
     1
176
     1
 42
1.0
176
     1
 92
        8
176
     1
 66
     7
176
     1
 43
1.0
176
     1
 76
     1
176
     1
 77
     6
176
     1
 78
     2
176
     1
 67
     7
176
     1
 79
     5
176
     1
170
     0
176
     1
171
     0
176
     1
290
     0
176
     1
 93
        1
176
     1
 44
0.0
176
     1
173
     0
176
     1
  0
VISUALSTYLE
  5
2B
102
{ACAD_REACTORS
330
2A
102
}
330
2A
100
AcDbVisualStyle
  2
Flat
 70
     0
177
     2
291
     1
 71
     2
176
     1
 72
     1
176
     1
 73
     1
176
     1
 90
        2
176
     1
 40
-0.6
176
     1
 41
30.0
176
     1
 62
     5
 63
     7
421
 16777215
176
     1
 74
     0
176
     1
 91
        4
176
     1
 64
     7
176
     1
 65
   257
176
     1
 75
     1
176
     1
175
     1
176
     1
 42
1.0
176
     1
 92
        8
176
     1
 66
     7
176
     1
 43
1.0
176
     1
 76
     1
176
     1
 77
     6
176
     1
 78
     2
176
     1
 67
     7
176
     1
 79
     5
176
     1
170
     0
176
     1
171
     0
176
     1
290
     0
176
     1
 93
       13
176
     1
 44
0.0
176
     1
173
     0
176
     1
  0
VISUALSTYLE
  5
2C
102
{ACAD_REACTORS
330
2A
102
}
330
2A
100
AcDbVisualStyle
  2
FlatWithEdges
 70
     1
177
     2
291
     1
 71
     2
176
     1
 72
     1
176
     1
 73
     1
176
     1
 90
        2
176
     1
 40
-0.6
176
     1
 41
30.0
176
     1
 62
     5
 63
     7
421
 16777215
176
     1
 74
     1
176
     1
 91
        4
176
     1
 64
     7
176
     1
 65
   257
176
     1
 75
     1
176
     1
175
     1
176
     1
 42
1.0
176
     1
 92
        0
176
     1
 66
   257
176
     1
 43
1.0
176
     1
 76
     1
176
     1
 77
     6
176
     1
 78
     2
176
     1
 67
     7
176
     1
 79
     5
176
     1
170
     0
176
     1
171
     0
176
     1
290
     0
176
     1
 93
       13
176
     1
 44
0.0
176
     1
173
     0
176
     1
  0
VISUALSTYLE
  5
2D
102
{ACAD_REACTORS
330
2A
102
}
330
2A
100
AcDbVisualStyle
  2
Gouraud
 70
     2
177
     2
291
     1
 71
     2
176
     1
 72
     2
176
     1
 73
     1
176
     1
 90
        2
176
     1
 40
-0.6
176
     1
 41
30.0
176
     1
 62
     5
 63
     7
421
 16777215
176
     1
 74
     0
176
     1
 91
        4
176
     1
 64
     7
176
     1
 65
   257
176
     1
 75
     1
176
     1
175
     1
176
     1
 42
1.0
176
     1
 92
        0
176
     1
 66
     7
176
     1
 43
1.0
176
     1
 76
     1
176
     1
 77
     6
176
     1
 78
     2
176
     1
 67
     7
176
     1
 79
     5
176
     1
170
     0
176
     1
171
     0
176
     1
290
     0
176
     1
 93
       13
176
     1
 44
0.0
176
     1
173
     0
176
     1
  0
VISUALSTYLE
  5
2E
102
{ACAD_REACTORS
330
2A
102
}
330
2A
100
AcDbVisualStyle
  2
GouraudWithEdges
 70
     3
177
     2
291
     1
 71
     2
176
     1
 72
     2
176
     1
 73
     1
176
     1
 90
        2
176
     1
 40
-0.6
176
     1
 41
30.0
176
     1
 62
     5
 63
     7
421
 16777215
176
     1
 74
     1
176
     1
 91
        4
176
     1
 64
     7
176
     1
 65
   257
176
     1
 75
     1
176
     1
175
     1
176
     1
 42
1.0
176
     1
 92
        0
176
     1
 66
   257
176
     1
 43
1.0
176
     1
 76
     1
176
     1
 77
     6
176
     1
 78
     2
176
     1
 67
     7
176
     1
 79
     5
176
     1
170
     0
176
     1
171
     0
176
     1
290
     0
176
     1
 93
       13
176
     1
 44
0.0
176
     1
173
     0
176
     1
  0
VISUALSTYLE
  5
38
102
{ACAD_REACTORS
330
2A
102
}
330
2A
100
AcDbVisualStyle
  2
Linepattern
 70
    14
177
     2
291
     1
 71
     2
176
     1
 72
     2
176
     1
 73
     0
176
     1
 90
        0
176
     1
 40
-0.6
176
     1
 41
-30.0
176
     1
 62
     5
 63
     7
421
 16777215
176
     1
 74
     1
176
     1
 91
        4
176
     1
 64
     7
176
     1
 65
   257
176
     1
 75
     7
176
     1
175
     7
176
     1
 42
1.0
176
     1
 92
        8
176
     1
 66
     7
176
     1
 43
1.0
176
     1
 76
     1
176
     1
 77
     6
176
     1
 78
     2
176
     1
 67
     7
176
     1
 79
     5
176
     1
170
     0
176
     1
171
     0
176
     1
290
     0
176
     1
 93
        1
176
     1
 44
0.0
176
     1
173
     0
176
     1
  0
VISUALSTYLE
  5
33
102
{ACAD_REACTORS
330
2A
102
}
330
2A
100
AcDbVisualStyle
  2
Realistic
 70
     8
177
     2
291
     0
 71
     2
176
     1
 72
     2
176
     1
 73
     0
176
     1
 90
        0
176
     1
 40
-0.6
176
     1
 41
-30.0
176
     1
 62
     5
 63
     7
421
 16777215
176
     1
 74
     1
176
     1
 91
        0
176
     1
 64
     7
176
     1
 65
   257
176
     1
 75
     1
176
     1
175
     1
176
     1
 42
1.0
176
     1
 92
        8
176
     1
 66
     8
424
  7895160
176
     1
 43
1.0
176
     1
 76
     1
176
     1
 77
     6
176
     1
 78
     2
176
     1
 67
     7
176
     1
 79
     5
176
     1
170
     0
176
     1
171
     0
176
     1
290
     0
176
     1
 93
       13
176
     1
 44
0.0
176
     1
173
     0
176
     1
  0
VISUALSTYLE
  5
37
102
{ACAD_REACTORS
330
2A
102
}
330
2A
100
AcDbVisualStyle
  2
Thicken
 70
    13
177
     2
291
     1
 71
     2
176
     1
 72
     2
176
     1
 73
     0
176
     1
 90
        0
176
     1
 40
-0.6
176
     1
 41
-30.0
176
     1
 62
     5
 63
     7
421
 16777215
176
     1
 74
     1
176
     1
 91
        4
176
     1
 64
     7
176
     1
 65
   257
176
     1
 75
     1
176
     1
175
     1
176
     1
 42
1.0
176
     1
 92
       12
176
     1
 66
     7
176
     1
 43
1.0
176
     1
 76
     1
176
     1
 77
     6
176
     1
 78
     2
176
     1
 67
     7
176
     1
 79
     5
176
     1
170
     0
176
     1
171
     0
176
     1
290
     0
176
     1
 93
        1
176
     1
 44
0.0
176
     1
173
     0
176
     1
  0
ENDSEC
  0
EOF
