  0
SECTION
  2
HEADER
  9
$ACADVER
  1
AC1024
  9
$ACADMAINTVER
 70
     6
  9
$DWGCODEPAGE
  3
UNDEFINED
  9
$INSBASE
 10
0.0
 20
0.0
 30
0.0
  9
$EXTMIN
 10
1.000000000000000E+20
 20
1.000000000000000E+20
 30
1.000000000000000E+20
  9
$EXTMAX
 10
-1.000000000000000E+20
 20
-1.000000000000000E+20
 30
-1.000000000000000E+20
  9
$LIMMIN
 10
0.0
 20
0.0
  9
$LIMMAX
 10
12.0
 20
9.0
  9
$ORTHOMODE
 70
     0
  9
$REGENMODE
 70
     1
  9
$FILLMODE
 70
     1
  9
$QTEXTMODE
 70
     0
  9
$MIRRTEXT
 70
     1
  9
$LTSCALE
 40
1.0
  9
$ATTMODE
 70
     1
  9
$TEXTSIZE
 40
0.2
  9
$TRACEWID
 40
0.05
  9
$TEXTSTYLE
  7
Standard
  9
$CLAYER
  8
0
  9
$CELTYPE
  6
ByLayer
  9
$CECOLOR
 62
   256
  9
$CELTSCALE
 40
1.0
  9
$DISPSILH
 70
     0
  9
$DIMSCALE
 40
1.0
  9
$DIMASZ
 40
0.18
  9
$DIMEXO
 40
0.0625
  9
$DIMDLI
 40
0.38
  9
$DIMRND
 40
0.0
  9
$DIMDLE
 40
0.0
  9
$DIMEXE
 40
0.18
  9
$DIMTP
 40
0.0
  9
$DIMTM
 40
0.0
  9
$DIMTXT
 40
0.18
  9
$DIMCEN
 40
0.09
  9
$DIMTSZ
 40
0.0
  9
$DIMTOL
 70
     0
  9
$DIMLIM
 70
     0
  9
$DIMTIH
 70
     1
  9
$DIMTOH
 70
     1
  9
$DIMSE1
 70
     0
  9
$DIMSE2
 70
     0
  9
$DIMTAD
 70
     0
  9
$DIMZIN
 70
     0
  9
$DIMBLK
  1

  9
$DIMASO
 70
     1
  9
$DIMSHO
 70
     1
  9
$DIMPOST
  1

  9
$DIMAPOST
  1

  9
$DIMALT
 70
     0
  9
$DIMALTD
 70
     2
  9
$DIMALTF
 40
25.4
  9
$DIMLFAC
 40
1.0
  9
$DIMTOFL
 70
     0
  9
$DIMTVP
 40
0.0
  9
$DIMTIX
 70
     0
  9
$DIMSOXD
 70
     0
  9
$DIMSAH
 70
     0
  9
$DIMBLK1
  1

  9
$DIMBLK2
  1

  9
$DIMSTYLE
  2
Standard
  9
$DIMCLRD
 70
     0
  9
$DIMCLRE
 70
     0
  9
$DIMCLRT
 70
     0
  9
$DIMTFAC
 40
1.0
  9
$DIMGAP
 40
0.09
  9
$DIMJUST
 70
     0
  9
$DIMSD1
 70
     0
  9
$DIMSD2
 70
     0
  9
$DIMTOLJ
 70
     1
  9
$DIMTZIN
 70
     0
  9
$DIMALTZ
 70
     0
  9
$DIMALTTZ
 70
     0
  9
$DIMUPT
 70
     0
  9
$DIMDEC
 70
     4
  9
$DIMTDEC
 70
     4
  9
$DIMALTU
 70
     2
  9
$DIMALTTD
 70
     2
  9
$DIMTXSTY
  7
Standard
  9
$DIMAUNIT
 70
     0
  9
$DIMADEC
 70
     0
  9
$DIMALTRND
 40
0.0
  9
$DIMAZIN
 70
     0
  9
$DIMDSEP
 70
    46
  9
$DIMATFIT
 70
     3
  9
$DIMFRAC
 70
     0
  9
$DIMLDRBLK
  1

  9
$DIMLUNIT
 70
     2
  9
$DIMLWD
 70
    -2
  9
$DIMLWE
 70
    -2
  9
$DIMTMOVE
 70
     0
  9
$DIMFXL
 40
1.0
  9
$DIMFXLON
 70
     0
  9
$DIMJOGANG
 40
0.7853981633974483
  9
$DIMTFILL
 70
     0
  9
$DIMTFILLCLR
 70
     0
  9
$DIMARCSYM
 70
     0
  9
$DIMLTYPE
  6

  9
$DIMLTEX1
  6

  9
$DIMLTEX2
  6

  9
$DIMTXTDIRECTION
 70
     0
  9
$LUNITS
 70
     2
  9
$LUPREC
 70
     4
  9
$SKETCHINC
 40
0.1
  9
$FILLETRAD
 40
0.5
  9
$AUNITS
 70
     0
  9
$AUPREC
 70
     0
  9
$MENU
  1
.
  9
$ELEVATION
 40
0.0
  9
$PELEVATION
 40
0.0
  9
$THICKNESS
 40
0.0
  9
$LIMCHECK
 70
     0
  9
$CHAMFERA
 40
0.5
  9
$CHAMFERB
 40
0.5
  9
$CHAMFERC
 40
1.0
  9
$CHAMFERD
 40
0.0
  9
$SKPOLY
 70
     0
  9
$TDCREATE
 40
2458843.931192118
  9
$TDUCREATE
 40
2458843.889525463
  9
$TDUPDATE
 40
2458843.931192118
  9
$TDUUPDATE
 40
2458843.889525463
  9
$TDINDWG
 40
0.0000000116
  9
$TDUSRTIMER
 40
0.0000000116
  9
$USRTIMER
 70
     1
  9
$ANGBASE
 50
0.0
  9
$ANGDIR
 70
     0
  9
$PDMODE
 70
     0
  9
$PDSIZE
 40
0.0
  9
$PLINEWID
 40
0.0
  9
$SPLFRAME
 70
     0
  9
$SPLINETYPE
 70
     6
  9
$SPLINESEGS
 70
     8
  9
$HANDSEED
  5
88
  9
$SURFTAB1
 70
     6
  9
$SURFTAB2
 70
     6
  9
$SURFTYPE
 70
     6
  9
$SURFU
 70
     6
  9
$SURFV
 70
     6
  9
$UCSBASE
  2

  9
$UCSNAME
  2

  9
$UCSORG
 10
0.0
 20
0.0
 30
0.0
  9
$UCSXDIR
 10
1.0
 20
0.0
 30
0.0
  9
$UCSYDIR
 10
0.0
 20
1.0
 30
0.0
  9
$UCSORTHOREF
  2

  9
$UCSORTHOVIEW
 70
     0
  9
$UCSORGTOP
 10
0.0
 20
0.0
 30
0.0
  9
$UCSORGBOTTOM
 10
0.0
 20
0.0
 30
0.0
  9
$UCSORGLEFT
 10
0.0
 20
0.0
 30
0.0
  9
$UCSORGRIGHT
 10
0.0
 20
0.0
 30
0.0
  9
$UCSORGFRONT
 10
0.0
 20
0.0
 30
0.0
  9
$UCSORGBACK
 10
0.0
 20
0.0
 30
0.0
  9
$PUCSBASE
  2

  9
$PUCSNAME
  2

  9
$PUCSORG
 10
0.0
 20
0.0
 30
0.0
  9
$PUCSXDIR
 10
1.0
 20
0.0
 30
0.0
  9
$PUCSYDIR
 10
0.0
 20
1.0
 30
0.0
  9
$PUCSORTHOREF
  2

  9
$PUCSORTHOVIEW
 70
     0
  9
$PUCSORGTOP
 10
0.0
 20
0.0
 30
0.0
  9
$PUCSORGBOTTOM
 10
0.0
 20
0.0
 30
0.0
  9
$PUCSORGLEFT
 10
0.0
 20
0.0
 30
0.0
  9
$PUCSORGRIGHT
 10
0.0
 20
0.0
 30
0.0
  9
$PUCSORGFRONT
 10
0.0
 20
0.0
 30
0.0
  9
$PUCSORGBACK
 10
0.0
 20
0.0
 30
0.0
  9
$USERI1
 70
     0
  9
$USERI2
 70
     0
  9
$USERI3
 70
     0
  9
$USERI4
 70
     0
  9
$USERI5
 70
     0
  9
$USERR1
 40
0.0
  9
$USERR2
 40
0.0
  9
$USERR3
 40
0.0
  9
$USERR4
 40
0.0
  9
$USERR5
 40
0.0
  9
$WORLDVIEW
 70
     1
  9
$SHADEDGE
 70
     3
  9
$SHADEDIF
 70
    70
  9
$TILEMODE
 70
     1
  9
$MAXACTVP
 70
    64
  9
$PINSBASE
 10
0.0
 20
0.0
 30
0.0
  9
$PLIMCHECK
 70
     0
  9
$PEXTMIN
 10
1.000000000000000E+20
 20
1.000000000000000E+20
 30
1.000000000000000E+20
  9
$PEXTMAX
 10
-1.000000000000000E+20
 20
-1.000000000000000E+20
 30
-1.000000000000000E+20
  9
$PLIMMIN
 10
0.0
 20
0.0
  9
$PLIMMAX
 10
12.0
 20
9.0
  9
$UNITMODE
 70
     0
  9
$VISRETAIN
 70
     1
  9
$PLINEGEN
 70
     0
  9
$PSLTSCALE
 70
     1
  9
$TREEDEPTH
 70
  3020
  9
$CMLSTYLE
  2
Standard
  9
$CMLJUST
 70
     0
  9
$CMLSCALE
 40
1.0
  9
$PROXYGRAPHICS
 70
     1
  9
$MEASUREMENT
 70
     0
  9
$CELWEIGHT
370
    -1
  9
$ENDCAPS
280
     0
  9
$JOINSTYLE
280
     0
  9
$LWDISPLAY
290
     1
  9
$INSUNITS
 70
     1
  9
$HYPERLINKBASE
  1

  9
$STYLESHEET
  1

  9
$XEDIT
290
     1
  9
$CEPSNTYPE
380
     0
  9
$PSTYLEMODE
290
     1
  9
$FINGERPRINTGUID
  2
{B09BABCE-F538-EDFA-78C5-640CE5031BC0}
  9
$VERSIONGUID
  2
{FAEB1C32-E019-11D5-929B-00C0DF256EC4}
  9
$EXTNAMES
290
     1
  9
$PSVPSCALE
 40
0.0
  9
$OLESTARTUP
290
     0
  9
$SORTENTS
280
   127
  9
$INDEXCTL
280
     0
  9
$HIDETEXT
280
     1
  9
$XCLIPFRAME
280
     2
  9
$HALOGAP
280
     0
  9
$OBSCOLOR
 70
   257
  9
$OBSLTYPE
280
     0
  9
$INTERSECTIONDISPLAY
280
     0
  9
$INTERSECTIONCOLOR
 70
   257
  9
$DIMASSOC
280
     2
  9
$PROJECTNAME
  1

  9
$CAMERADISPLAY
290
     0
  9
$LENSLENGTH
 40
50.0
  9
$CAMERAHEIGHT
 40
0.0
  9
$STEPSPERSEC
 40
2.0
  9
$STEPSIZE
 40
6.0
  9
$3DDWFPREC
 40
2.0
  9
$PSOLWIDTH
 40
0.25
  9
$PSOLHEIGHT
 40
4.0
  9
$LOFTANG1
 40
1.570796326794897
  9
$LOFTANG2
 40
1.570796326794897
  9
$LOFTMAG1
 40
0.0
  9
$LOFTMAG2
 40
0.0
  9
$LOFTPARAM
 70
     7
  9
$LOFTNORMALS
280
     1
  9
$LATITUDE
 40
37.795
  9
$LONGITUDE
 40
-122.394
  9
$NORTHDIRECTION
 40
0.0
  9
$TIMEZONE
 70
 -8000
  9
$LIGHTGLYPHDISPLAY
280
     1
  9
$TILEMODELIGHTSYNCH
280
     1
  9
$CMATERIAL
347
3C
  9
$SOLIDHIST
280
     1
  9
$SHOWHIST
280
     1
  9
$DWFFRAME
280
     2
  9
$DGNFRAME
280
     2
  9
$REALWORLDSCALE
290
     1
  9
$INTERFERECOLOR
 62
   256
  9
$CSHADOW
280
     0
  9
$SHADOWPLANELOCATION
 40
0.0
  0
ENDSEC
  0
SECTION
  2
CLASSES
  0
CLASS
  1
ACDBDICTIONARYWDFLT
  2
AcDbDictionaryWithDefault
  3
ObjectDBX Classes
 90
        0
 91
        4
280
     0
281
     0
  0
CLASS
  1
VISUALSTYLE
  2
AcDbVisualStyle
  3
ObjectDBX Classes
 90
     4095
 91
        4
280
     0
281
     0
  0
CLASS
  1
MATERIAL
  2
AcDbMaterial
  3
ObjectDBX Classes
 90
     1153
 91
        4
280
     0
281
     0
  0
CLASS
  1
SUN
  2
AcDbSun
  3
SCENEOE
 90
     1024
 91
        4
280
     0
281
     0
  0
ENDSEC
  0
SECTION
  2
TABLES
  0
TABLE
  2
VPORT
  5
8
330
0
100
AcDbSymbolTable
 70
     1
  0
VPORT
  5
29
330
8
100
AcDbSymbolTableRecord
100
AcDbViewportTableRecord
  2
*Active
 70
     0
 10
0.0
 20
0.0
 11
1.0
 21
1.0
 12
0.0
 22
0.0
 13
0.0
 23
0.0
 14
0.5
 24
0.5
 15
0.5
 25
0.5
 16
0.0
 26
0.0
 36
1.0
 17
105.0007777515276
 27
148.5000416295416
 37
0.0
 40
24.99999999375009
 41
0.9999999999999869
 42
50.0
 43
0.0
 44
0.0
 50
0.0
 51
0.0
 71
     0
 72
   100
 73
     1
 74
     3
 75
     0
 76
     0
 77
     0
 78
     0
281
     0
 65
     1
110
0.0
120
0.0
130
0.0
111
1.0
121
0.0
131
0.0
112
0.0
122
1.0
132
0.0
 79
     0
146
0.0
 60
     3
 61
     5
292
     1
282
     1
141
0.0
142
0.0
 63
   250
361
3F
  0
ENDTAB
  0
TABLE
  2
LTYPE
  5
5
330
0
100
AcDbSymbolTable
 70
     1
  0
LTYPE
  5
14
330
5
100
AcDbSymbolTableRecord
100
AcDbLinetypeTableRecord
  2
ByBlock
 70
     0
  3

 72
    65
 73
     0
 40
0.0
  0
LTYPE
  5
15
330
5
100
AcDbSymbolTableRecord
100
AcDbLinetypeTableRecord
  2
ByLayer
 70
     0
  3

 72
    65
 73
     0
 40
0.0
  0
LTYPE
  5
16
330
5
100
AcDbSymbolTableRecord
100
AcDbLinetypeTableRecord
  2
Continuous
 70
     0
  3
Solid line
 72
    65
 73
     0
 40
0.0
  0
ENDTAB
  0
TABLE
  2
LAYER
  5
2
330
0
100
AcDbSymbolTable
 70
     1
  0
LAYER
  5
10
330
2
100
AcDbSymbolTableRecord
100
AcDbLayerTableRecord
  2
0
 70
     0
 62
     7
  6
Continuous
370
    -3
390
F
347
3E
  0
ENDTAB
  0
TABLE
  2
STYLE
  5
3
330
0
100
AcDbSymbolTable
 70
     1
  0
STYLE
  5
11
330
3
100
AcDbSymbolTableRecord
100
AcDbTextStyleTableRecord
  2
Standard
 70
     0
 40
0.0
 41
1.0
 50
0.0
 71
     0
 42
0.2
  3
txt
  4

  0
ENDTAB
  0
TABLE
  2
VIEW
  5
6
330
0
100
AcDbSymbolTable
 70
     0
  0
ENDTAB
  0
TABLE
  2
UCS
  5
7
330
0
100
AcDbSymbolTable
 70
     0
  0
ENDTAB
  0
TABLE
  2
APPID
  5
9
330
0
100
AcDbSymbolTable
 70
     1
  0
APPID
  5
12
330
9
100
AcDbSymbolTableRecord
100
AcDbRegAppTableRecord
  2
ACAD
 70
     0
  0
ENDTAB
  0
TABLE
  2
DIMSTYLE
  5
A
330
0
100
AcDbSymbolTable
 70
     1
100
AcDbDimStyleTable
  0
DIMSTYLE
105
27
330
A
100
AcDbSymbolTableRecord
100
AcDbDimStyleTableRecord
  2
Standard
 70
     0
178
     0
340
11
  0
ENDTAB
  0
TABLE
  2
BLOCK_RECORD
  5
1
330
0
100
AcDbSymbolTable
 70
    12
  0
BLOCK_RECORD
  5
1F
330
1
100
AcDbSymbolTableRecord
100
AcDbBlockTableRecord
  2
*Model_Space
340
22
 70
     0
280
     1
281
     0
  0
BLOCK_RECORD
  5
1B
330
1
100
AcDbSymbolTableRecord
100
AcDbBlockTableRecord
  2
*Paper_Space
340
1E
 70
     0
280
     1
281
     0
  0
BLOCK_RECORD
  5
23
330
1
100
AcDbSymbolTableRecord
100
AcDbBlockTableRecord
  2
*Paper_Space0
340
26
 70
     0
280
     1
281
     0
  0
BLOCK_RECORD
  5
40
330
1
100
AcDbSymbolTableRecord
100
AcDbBlockTableRecord
  2
block 2
340
0
102
{BLKREFS
331
41
102
}
 70
     0
280
     1
281
     0
  0
BLOCK_RECORD
  5
4C
330
1
100
AcDbSymbolTableRecord
100
AcDbBlockTableRecord
  2
block 3
340
0
102
{BLKREFS
331
4D
102
}
 70
     0
280
     1
281
     0
  0
BLOCK_RECORD
  5
51
330
1
100
AcDbSymbolTableRecord
100
AcDbBlockTableRecord
  2
block 4
340
0
102
{BLKREFS
331
52
102
}
 70
     0
280
     1
281
     0
  0
BLOCK_RECORD
  5
56
330
1
100
AcDbSymbolTableRecord
100
AcDbBlockTableRecord
  2
block 5
340
0
102
{BLKREFS
331
57
102
}
 70
     0
280
     1
281
     0
  0
BLOCK_RECORD
  5
5B
330
1
100
AcDbSymbolTableRecord
100
AcDbBlockTableRecord
  2
block 6
340
0
102
{BLKREFS
331
5C
102
}
 70
     0
280
     1
281
     0
  0
BLOCK_RECORD
  5
60
330
1
100
AcDbSymbolTableRecord
100
AcDbBlockTableRecord
  2
block 7
340
0
102
{BLKREFS
331
61
102
}
 70
     0
280
     1
281
     0
  0
BLOCK_RECORD
  5
65
330
1
100
AcDbSymbolTableRecord
100
AcDbBlockTableRecord
  2
block 8
340
0
102
{BLKREFS
331
66
102
}
 70
     0
280
     1
281
     0
  0
BLOCK_RECORD
  5
6A
330
1
100
AcDbSymbolTableRecord
100
AcDbBlockTableRecord
  2
block 9
340
0
102
{BLKREFS
331
6B
102
}
 70
     0
280
     1
281
     0
  0
BLOCK_RECORD
  5
6F
330
1
100
AcDbSymbolTableRecord
100
AcDbBlockTableRecord
  2
block 10
340
0
102
{BLKREFS
331
70
102
}
 70
     0
280
     1
281
     0
  0
BLOCK_RECORD
  5
75
330
1
100
AcDbSymbolTableRecord
100
AcDbBlockTableRecord
  2
block 11
340
0
102
{BLKREFS
331
76
102
}
 70
     0
280
     1
281
     0
  0
BLOCK_RECORD
  5
80
330
1
100
AcDbSymbolTableRecord
100
AcDbBlockTableRecord
  2
block 12
340
0
102
{BLKREFS
331
81
102
}
 70
     0
280
     1
281
     0
  0
ENDTAB
  0
ENDSEC
  0
SECTION
  2
BLOCKS
  0
BLOCK
  5
20
330
1F
100
AcDbEntity
  8
0
100
AcDbBlockBegin
  2
*Model_Space
 70
     0
 10
0.0
 20
0.0
 30
0.0
  3
*Model_Space
  1

  0
ENDBLK
  5
21
330
1F
100
AcDbEntity
  8
0
100
AcDbBlockEnd
  0
BLOCK
  5
1C
330
1B
100
AcDbEntity
 67
     1
  8
0
100
AcDbBlockBegin
  2
*Paper_Space
 70
     0
 10
0.0
 20
0.0
 30
0.0
  3
*Paper_Space
  1

  0
ENDBLK
  5
1D
330
1B
100
AcDbEntity
 67
     1
  8
0
100
AcDbBlockEnd
  0
BLOCK
  5
24
330
23
100
AcDbEntity
  8
0
100
AcDbBlockBegin
  2
*Paper_Space0
 70
     0
 10
0.0
 20
0.0
 30
0.0
  3
*Paper_Space0
  1

  0
ENDBLK
  5
25
330
23
100
AcDbEntity
  8
0
100
AcDbBlockEnd
  0
BLOCK
  5
42
330
40
100
AcDbEntity
  8
0
100
AcDbBlockBegin
  2
block 2
 70
     0
 10
0.0
 20
0.0
 30
0.0
  3
block 2
  1

  0
POLYLINE
  5
44
330
40
100
AcDbEntity
  8
0
 62
     7
420
 16777215
370
     5
100
AcDb2dPolyline
 66
     1
 10
0.0
 20
0.0
 30
0.0
  0
VERTEX
  5
45
330
44
100
AcDbEntity
  8
0
 62
     7
420
 16777215
370
     5
100
AcDbVertex
100
AcDb2dVertex
 10
113.9927780648553
 20
139.6552447427655
 30
0.0
  0
VERTEX
  5
46
330
44
100
AcDbEntity
  8
0
 62
     7
420
 16777215
370
     5
100
AcDbVertex
100
AcDb2dVertex
 10
113.9919774160449
 20
157.3844447206734
 30
0.0
  0
VERTEX
  5
47
330
44
100
AcDbEntity
  8
0
 62
     7
420
 16777215
370
     5
100
AcDbVertex
100
AcDb2dVertex
 10
96.262777438137
 20
157.3836440718637
 30
0.0
  0
VERTEX
  5
48
330
44
100
AcDbEntity
  8
0
 62
     7
420
 16777215
370
     5
100
AcDbVertex
100
AcDb2dVertex
 10
96.26357808694675
 20
139.6544440939551
 30
0.0
  0
VERTEX
  5
49
330
44
100
AcDbEntity
  8
0
 62
     7
420
 16777215
370
     5
100
AcDbVertex
100
AcDb2dVertex
 10
113.9927780648553
 20
139.6552447427655
 30
0.0
  0
SEQEND
  5
4B
330
44
100
AcDbEntity
  8
0
 62
     7
420
 16777215
370
     5
  0
HATCH
  5
4A
330
40
100
AcDbEntity
  8
0
 62
     7
420
 16777215
100
AcDbHatch
 10
0.0
 20
0.0
 30
0.0
210
0.0
220
0.0
230
1.0
  2
SOLID
 70
     1
 71
     0
 91
        1
 92
        1
 93
        4
 72
     1
 10
113.9927780648553
 20
139.6552447427655
 11
113.9919774160449
 21
157.3844447206734
 72
     1
 10
113.9919774160449
 20
157.3844447206734
 11
96.262777438137
 21
157.3836440718637
 72
     1
 10
96.262777438137
 20
157.3836440718637
 11
96.26357808694675
 21
139.6544440939551
 72
     1
 10
96.26357808694675
 20
139.6544440939551
 11
113.9927780648553
 21
139.6552447427655
 97
        0
 75
     2
 76
     1
 98
        0
  0
ENDBLK
  5
43
330
40
100
AcDbEntity
  8
0
100
AcDbBlockEnd
  0
BLOCK
  5
4E
330
4C
100
AcDbEntity
  8
0
100
AcDbBlockBegin
  2
block 3
 70
     0
 10
0.0
 20
0.0
 30
0.0
  3
block 3
  1

  0
SPLINE
  5
50
330
4C
100
AcDbEntity
  8
0
 62
     7
420
 16777215
370
     5
100
AcDbSpline
210
0.0
220
0.0
230
1.0
 70
    11
 71
     3
 72
   200
 73
   196
 74
     0
 42
0.0000000001
 43
0.0000000001
 12
1.0
 22
0.0
 32
0.0
 13
1.0
 23
0.0
 33
0.0
 40
0.0
 40
0.0
 40
0.0
 40
0.0
 40
1.0
 40
1.0
 40
1.0
 40
2.0
 40
2.0
 40
2.0
 40
3.0
 40
3.0
 40
3.0
 40
4.0
 40
4.0
 40
4.0
 40
5.0
 40
5.0
 40
5.0
 40
6.0
 40
6.0
 40
6.0
 40
7.0
 40
7.0
 40
7.0
 40
8.0
 40
8.0
 40
8.0
 40
9.0
 40
9.0
 40
9.0
 40
10.0
 40
10.0
 40
10.0
 40
11.0
 40
11.0
 40
11.0
 40
12.0
 40
12.0
 40
12.0
 40
13.0
 40
13.0
 40
13.0
 40
14.0
 40
14.0
 40
14.0
 40
15.0
 40
15.0
 40
15.0
 40
16.0
 40
16.0
 40
16.0
 40
17.0
 40
17.0
 40
17.0
 40
18.0
 40
18.0
 40
18.0
 40
19.0
 40
19.0
 40
19.0
 40
20.0
 40
20.0
 40
20.0
 40
21.0
 40
21.0
 40
21.0
 40
22.0
 40
22.0
 40
22.0
 40
23.0
 40
23.0
 40
23.0
 40
24.0
 40
24.0
 40
24.0
 40
25.0
 40
25.0
 40
25.0
 40
26.0
 40
26.0
 40
26.0
 40
27.0
 40
27.0
 40
27.0
 40
28.0
 40
28.0
 40
28.0
 40
29.0
 40
29.0
 40
29.0
 40
30.0
 40
30.0
 40
30.0
 40
31.0
 40
31.0
 40
31.0
 40
32.0
 40
32.0
 40
32.0
 40
33.0
 40
33.0
 40
33.0
 40
34.0
 40
34.0
 40
34.0
 40
35.0
 40
35.0
 40
35.0
 40
36.0
 40
36.0
 40
36.0
 40
37.0
 40
37.0
 40
37.0
 40
38.0
 40
38.0
 40
38.0
 40
39.0
 40
39.0
 40
39.0
 40
40.0
 40
40.0
 40
40.0
 40
41.0
 40
41.0
 40
41.0
 40
42.0
 40
42.0
 40
42.0
 40
43.0
 40
43.0
 40
43.0
 40
44.0
 40
44.0
 40
44.0
 40
45.0
 40
45.0
 40
45.0
 40
46.0
 40
46.0
 40
46.0
 40
47.0
 40
47.0
 40
47.0
 40
48.0
 40
48.0
 40
48.0
 40
49.0
 40
49.0
 40
49.0
 40
50.0
 40
50.0
 40
50.0
 40
51.0
 40
51.0
 40
51.0
 40
52.0
 40
52.0
 40
52.0
 40
53.0
 40
53.0
 40
53.0
 40
54.0
 40
54.0
 40
54.0
 40
55.0
 40
55.0
 40
55.0
 40
56.0
 40
56.0
 40
56.0
 40
57.0
 40
57.0
 40
57.0
 40
58.0
 40
58.0
 40
58.0
 40
59.0
 40
59.0
 40
59.0
 40
60.0
 40
60.0
 40
60.0
 40
61.0
 40
61.0
 40
61.0
 40
62.0
 40
62.0
 40
62.0
 40
63.0
 40
63.0
 40
63.0
 40
64.0
 40
64.0
 40
64.0
 40
65.0
 40
65.0
 40
65.0
 40
65.0
 10
99.51530470330925
 20
144.3493894905664
 30
0.0
 10
99.51530470330925
 20
144.3493894905664
 30
0.0
 10
99.51438189346857
 20
147.8975428435658
 30
0.0
 10
99.51438189346857
 20
147.8975428435658
 30
0.0
 10
99.51523342546933
 20
147.9278064225668
 30
0.0
 10
99.5160849573039
 20
147.958070001768
 30
0.0
 10
99.51992416363025
 20
147.988066588155
 30
0.0
 10
99.52329173707163
 20
148.0143782002578
 30
0.0
 10
99.52895802231501
 20
148.0404843885338
 30
0.0
 10
99.53747468550144
 20
148.0656583691455
 30
0.0
 10
99.54499622972374
 20
148.0878909271669
 30
0.0
 10
99.55474096881024
 20
148.1093963958929
 30
0.0
 10
99.56703345932662
 20
148.1293944748155
 30
0.0
 10
99.57864407184493
 20
148.1482832382567
 30
0.0
 10
99.59252762217383
 20
148.1658272067392
 30
0.0
 10
99.60860048468258
 20
148.1811223286149
 30
0.0
 10
99.6243095288475
 20
148.1960712367486
 30
0.0
 10
99.642109894287
 20
148.208871953869
 30
0.0
 10
99.6612520507508
 20
148.2189945072498
 30
0.0
 10
99.68135441157912
 20
148.2296248257799
 30
0.0
 10
99.70293655286498
 20
148.2373015589243
 30
0.0
 10
99.72498815585031
 20
148.243011010699
 30
0.0
 10
99.75011288159453
 20
148.249516134616
 30
0.0
 10
99.77584703547016
 20
148.2534674472049
 30
0.0
 10
99.80165622517359
 20
148.2550192627967
 30
0.0
 10
99.83105836791678
 20
148.2567871099884
 30
0.0
 10
99.86055789248444
 20
148.2554408795512
 30
0.0
 10
99.89005741748458
 20
148.2540946495494
 30
0.0
 10
99.89005741748458
 20
148.2540946495494
 30
0.0
 10
102.0573601384842
 20
148.2531718394527
 30
0.0
 10
102.0573601384842
 20
148.2531718394527
 30
0.0
 10
102.0832830664842
 20
148.2519382294512
 30
0.0
 10
102.1092059933542
 20
148.2507046193114
 30
0.0
 10
102.1349519199155
 20
148.2476295692794
 30
0.0
 10
102.1579765294817
 20
148.2448795487581
 30
0.0
 10
102.1808595787331
 20
148.2406567917587
 30
0.0
 10
102.203306584037
 20
148.2346976055505
 30
0.0
 10
102.2229146123433
 20
148.2294921052948
 30
0.0
 10
102.2421899188212
 20
148.2229616287256
 30
0.0
 10
102.2605767080866
 20
148.2143759486969
 30
0.0
 10
102.2772572143995
 20
148.2065870145964
 30
0.0
 10
102.2932064595546
 20
148.1971066214669
 30
0.0
 10
102.3076860031545
 20
148.1857408868979
 30
0.0
 10
102.321410072606
 20
148.1749681626389
 30
0.0
 10
102.333813803755
 20
148.1625017009641
 30
0.0
 10
102.3446344701129
 20
148.1487924199993
 30
0.0
 10
102.3556245734027
 20
148.1348684703241
 30
0.0
 10
102.364981646458
 20
148.1196624749058
 30
0.0
 10
102.3723458201904
 20
148.1035305479427
 30
0.0
 10
102.3800073902306
 20
148.086747145921
 30
0.0
 10
102.3855118474473
 20
148.0689615162484
 30
0.0
 10
102.3889726304983
 20
148.0508789822945
 30
0.0
 10
102.3927577110322
 20
148.0311019993758
 30
0.0
 10
102.3940981614737
 20
148.0109698614372
 30
0.0
 10
102.3954386124722
 20
147.990837723437
 30
0.0
 10
102.3945953864717
 20
147.9700449374381
 30
0.0
 10
102.3937521600375
 20
147.9492521514699
 30
0.0
 10
102.3898963423452
 20
147.9289490408101
 30
0.0
 10
102.3864700556196
 20
147.9109076591619
 30
0.0
 10
102.3806649869383
 20
147.893252931622
 30
0.0
 10
102.3732695325468
 20
147.8762974752877
 30
0.0
 10
102.366287159031
 20
147.8602890837819
 30
0.0
 10
102.3578871032931
 20
147.8449040280823
 30
0.0
 10
102.347405605264
 20
147.8310356031619
 30
0.0
 10
102.3368994545528
 20
147.8171345594434
 30
0.0
 10
102.3243020588525
 20
147.8047572891829
 30
0.0
 10
102.3104571384451
 20
147.7940871363957
 30
0.0
 10
102.2956404051747
 20
147.7826680163749
 30
0.0
 10
102.2793948662694
 20
147.7732040793278
 30
0.0
 10
102.2624241310373
 20
147.7654520742268
 30
0.0
 10
102.2437177395469
 20
147.7569072445376
 30
0.0
 10
102.2241302295603
 20
147.7504424238721
 30
0.0
 10
102.2042302954437
 20
147.7451304171069
 30
0.0
 10
102.1817711410791
 20
147.7391352625882
 30
0.0
 10
102.1589140370956
 20
147.7346085024974
 30
0.0
 10
102.1358756313132
 20
147.7321984539856
 30
0.0
 10
102.109926893889
 20
147.7294839555691
 30
0.0
 10
102.0837481554604
 20
147.7294547354504
 30
0.0
 10
102.0575694174603
 20
147.7294255144525
 30
0.0
 10
102.0575694174603
 20
147.7294255144525
 30
0.0
 10
100.0399738374609
 20
147.7294255145424
 30
0.0
 10
100.0399738374609
 20
147.7294255145424
 30
0.0
 10
100.0399738374609
 20
147.7294255145424
 30
0.0
 10
100.0399738374128
 20
146.6579217745424
 30
0.0
 10
100.0399738374128
 20
146.6579217745424
 30
0.0
 10
100.0399738374128
 20
146.6579217745424
 30
0.0
 10
101.4763454944129
 20
146.6579217744783
 30
0.0
 10
101.4763454944129
 20
146.6579217744783
 30
0.0
 10
101.5047262944124
 20
146.6577860234777
 30
0.0
 10
101.5331070942443
 20
146.65765027259
 30
0.0
 10
101.5613269689299
 20
146.6551506394003
 30
0.0
 10
101.5861746639622
 20
146.652949703929
 30
0.0
 10
101.610897595949
 20
146.6489160831253
 30
0.0
 10
101.6352239027773
 20
146.6431423873539
 30
0.0
 10
101.6566751225714
 20
146.6380510753882
 30
0.0
 10
101.6778179299274
 20
146.6316066955413
 30
0.0
 10
101.6980362969482
 20
146.622820730605
 30
0.0
 10
101.7156507244967
 20
146.6151663170394
 30
0.0
 10
101.7325634967589
 20
146.6057346275445
 30
0.0
 10
101.7479167276327
 20
146.5941856682923
 30
0.0
 10
101.7623893253311
 20
146.5832991361701
 30
0.0
 10
101.7754761556847
 20
146.5705312539827
 30
0.0
 10
101.7867126173884
 20
146.5563134897467
 30
0.0
 10
101.7978754503094
 20
146.5421888897733
 30
0.0
 10
101.8072120848276
 20
146.5266333466836
 30
0.0
 10
101.814423967687
 20
146.5101279059556
 30
0.0
 10
101.8220181301064
 20
146.4927475629674
 30
0.0
 10
101.8272563178842
 20
146.4743139511234
 30
0.0
 10
101.8301270663467
 20
146.4556289167304
 30
0.0
 10
101.8333585509037
 20
146.4345959349522
 30
0.0
 10
101.8335902324016
 20
146.4132443734619
 30
0.0
 10
101.8338219134008
 20
146.3918928114621
 30
0.0
 10
101.8311464693993
 20
146.3638164494619
 30
0.0
 10
101.8284710258079
 20
146.3357400878364
 30
0.0
 10
101.8208899493792
 20
146.3087587605904
 30
0.0
 10
101.8141872229441
 20
146.2849035129777
 30
0.0
 10
101.8036497533701
 20
146.26190425596
 30
0.0
 10
101.789483752733
 20
146.2413278082709
 30
0.0
 10
101.7754273977246
 20
146.2209106234261
 30
0.0
 10
101.7577984643351
 20
146.2028788877003
 30
0.0
 10
101.7377558990709
 20
146.1886762426906
 30
0.0
 10
101.7162140335757
 20
146.1734111573879
 30
0.0
 10
101.6918839223903
 20
146.1625694664694
 30
0.0
 10
101.6675538113898
 20
146.1517277754701
 30
0.0
 10
101.6565224763898
 20
146.1486954144696
 30
0.0
 10
101.6454911413108
 20
146.1456630531829
 30
0.0
 10
101.6343001911698
 20
146.1434143701336
 30
0.0
 10
101.6209079443779
 20
146.1407233637401
 30
0.0
 10
101.6072871130531
 20
146.1391546619714
 30
0.0
 10
101.593656877473
 20
146.1378721002498
 30
0.0
 10
101.5748934809007
 20
146.1361065244407
 30
0.0
 10
101.5561122629772
 20
146.1348831927326
 30
0.0
 10
101.5373104651509
 20
146.1341772533538
 30
0.0
 10
101.5107006512308
 20
146.1331781512623
 30
0.0
 10
101.4840496153884
 20
146.1332153954785
 30
0.0
 10
101.4573985803889
 20
146.1332526394789
 30
0.0
 10
101.4573985803889
 20
146.1332526394789
 30
0.0
 10
100.039973837389
 20
146.1332526395431
 30
0.0
 10
100.039973837389
 20
146.1332526395431
 30
0.0
 10
100.039973837389
 20
146.1332526395431
 30
0.0
 10
100.0399738373098
 20
144.3486425835423
 30
0.0
 10
100.0399738373098
 20
144.3486425835423
 30
0.0
 10
100.0396611693081
 20
144.3261691535424
 30
0.0
 10
100.0393485013061
 20
144.303695724188
 30
0.0
 10
100.0390501258457
 20
144.2812116309225
 30
0.0
 10
100.0388537819526
 20
144.2664161299639
 30
0.0
 10
100.0386636270234
 20
144.2516160113121
 30
0.0
 10
100.0372027024856
 20
144.2368734704927
 30
0.0
 10
100.0361528023046
 20
144.2262786752984
 30
0.0
 10
100.0344465947652
 20
144.2157136170088
 30
0.0
 10
100.0316604325209
 20
144.2054672734961
 30
0.0
 10
100.0287507878841
 20
144.1947668132106
 30
0.0
 10
100.0246633403017
 20
144.1844139445438
 30
0.0
 10
100.0205758923009
 20
144.1740610765444
 30
0.0
 10
100.0162839673009
 20
144.1616277225439
 30
0.0
 10
100.01199204188
 20
144.1491943692081
 30
0.0
 10
100.0067202173616
 20
144.1371126094343
 30
0.0
 10
100.0016381263518
 20
144.1254656734449
 30
0.0
 10
99.9956454003322
 20
144.1141454786542
 30
0.0
 10
99.98824598361527
 20
144.1038589889198
 30
0.0
 10
99.9807404378715
 20
144.0934249611861
 30
0.0
 10
99.97178756002437
 20
144.0840545037993
 30
0.0
 10
99.96238205685609
 20
144.0752239269768
 30
0.0
 10
99.95278183528447
 20
144.0662105342228
 30
0.0
 10
99.94271005335204
 20
144.0577596072943
 30
0.0
 10
99.93189957130981
 20
144.0502837115768
 30
0.0
 10
99.90988818582066
 20
144.0350619275836
 30
0.0
 10
99.88481432355766
 20
144.0238823934867
 30
0.0
 10
99.85892634888828
 20
144.0170300908236
 30
0.0
 10
99.83210546556191
 20
144.0099308560391
 30
0.0
 10
99.80441073729396
 20
144.0074763475532
 30
0.0
 10
99.7767160092936
 20
144.0050218395549
 30
0.0
 10
99.74954337429382
 20
144.007434851556
 30
0.0
 10
99.72237073906946
 20
144.0098478638382
 30
0.0
 10
99.69635309380399
 20
144.0170300909827
 30
0.0
 10
99.67304914696045
 20
144.0234631958195
 30
0.0
 10
99.65067181910364
 20
144.0337225201029
 30
0.0
 10
99.62984585303295
 20
144.0465888649221
 30
0.0
 10
99.60957407648787
 20
144.0591128297763
 30
0.0
 10
99.59077219522972
 20
144.0741069129704
 30
0.0
 10
99.57534686398424
 20
144.0918507370184
 30
0.0
 10
99.55894662573118
 20
144.1107160007388
 30
0.0
 10
99.5463632322986
 20
144.1326895655652
 30
0.0
 10
99.53377983830036
 20
144.1546631305663
 30
0.0
 10
99.5296871953008
 20
144.1662589875662
 30
0.0
 10
99.52559455240873
 20
144.1778548446264
 30
0.0
 10
99.52269529851762
 20
144.189764174994
 30
0.0
 10
99.51989636968061
 20
144.2012613978886
 30
0.0
 10
99.51820966736632
 20
144.2130507747437
 30
0.0
 10
99.51715302843807
 20
144.2248652186362
 30
0.0
 10
99.51569629323119
 20
144.2411532011267
 30
0.0
 10
99.5154371041833
 20
144.2574888279227
 30
0.0
 10
99.51530560502475
 20
144.2738219375194
 30
0.0
 10
99.51510277276314
 20
144.2990151144835
 30
0.0
 10
99.51520373830796
 20
144.3242023025666
 30
0.0
 10
99.51530470330925
 20
144.3493894905664
 30
0.0
  0
ENDBLK
  5
4F
330
4C
100
AcDbEntity
  8
0
100
AcDbBlockEnd
  0
BLOCK
  5
53
330
51
100
AcDbEntity
  8
0
100
AcDbBlockBegin
  2
block 4
 70
     0
 10
0.0
 20
0.0
 30
0.0
  3
block 4
  1

  0
SPLINE
  5
55
330
51
100
AcDbEntity
  8
0
 62
     7
420
 16777215
370
     5
100
AcDbSpline
210
0.0
220
0.0
230
1.0
 70
    11
 71
     3
 72
   263
 73
   259
 74
     0
 42
0.0000000001
 43
0.0000000001
 12
1.0
 22
0.0
 32
0.0
 13
1.0
 23
0.0
 33
0.0
 40
0.0
 40
0.0
 40
0.0
 40
0.0
 40
1.0
 40
1.0
 40
1.0
 40
2.0
 40
2.0
 40
2.0
 40
3.0
 40
3.0
 40
3.0
 40
4.0
 40
4.0
 40
4.0
 40
5.0
 40
5.0
 40
5.0
 40
6.0
 40
6.0
 40
6.0
 40
7.0
 40
7.0
 40
7.0
 40
8.0
 40
8.0
 40
8.0
 40
9.0
 40
9.0
 40
9.0
 40
10.0
 40
10.0
 40
10.0
 40
11.0
 40
11.0
 40
11.0
 40
12.0
 40
12.0
 40
12.0
 40
13.0
 40
13.0
 40
13.0
 40
14.0
 40
14.0
 40
14.0
 40
15.0
 40
15.0
 40
15.0
 40
16.0
 40
16.0
 40
16.0
 40
17.0
 40
17.0
 40
17.0
 40
18.0
 40
18.0
 40
18.0
 40
19.0
 40
19.0
 40
19.0
 40
20.0
 40
20.0
 40
20.0
 40
21.0
 40
21.0
 40
21.0
 40
22.0
 40
22.0
 40
22.0
 40
23.0
 40
23.0
 40
23.0
 40
24.0
 40
24.0
 40
24.0
 40
25.0
 40
25.0
 40
25.0
 40
26.0
 40
26.0
 40
26.0
 40
27.0
 40
27.0
 40
27.0
 40
28.0
 40
28.0
 40
28.0
 40
29.0
 40
29.0
 40
29.0
 40
30.0
 40
30.0
 40
30.0
 40
31.0
 40
31.0
 40
31.0
 40
32.0
 40
32.0
 40
32.0
 40
33.0
 40
33.0
 40
33.0
 40
34.0
 40
34.0
 40
34.0
 40
35.0
 40
35.0
 40
35.0
 40
36.0
 40
36.0
 40
36.0
 40
37.0
 40
37.0
 40
37.0
 40
38.0
 40
38.0
 40
38.0
 40
39.0
 40
39.0
 40
39.0
 40
40.0
 40
40.0
 40
40.0
 40
41.0
 40
41.0
 40
41.0
 40
42.0
 40
42.0
 40
42.0
 40
43.0
 40
43.0
 40
43.0
 40
44.0
 40
44.0
 40
44.0
 40
45.0
 40
45.0
 40
45.0
 40
46.0
 40
46.0
 40
46.0
 40
47.0
 40
47.0
 40
47.0
 40
48.0
 40
48.0
 40
48.0
 40
49.0
 40
49.0
 40
49.0
 40
50.0
 40
50.0
 40
50.0
 40
51.0
 40
51.0
 40
51.0
 40
52.0
 40
52.0
 40
52.0
 40
53.0
 40
53.0
 40
53.0
 40
54.0
 40
54.0
 40
54.0
 40
55.0
 40
55.0
 40
55.0
 40
56.0
 40
56.0
 40
56.0
 40
57.0
 40
57.0
 40
57.0
 40
58.0
 40
58.0
 40
58.0
 40
59.0
 40
59.0
 40
59.0
 40
60.0
 40
60.0
 40
60.0
 40
61.0
 40
61.0
 40
61.0
 40
62.0
 40
62.0
 40
62.0
 40
63.0
 40
63.0
 40
63.0
 40
64.0
 40
64.0
 40
64.0
 40
65.0
 40
65.0
 40
65.0
 40
66.0
 40
66.0
 40
66.0
 40
67.0
 40
67.0
 40
67.0
 40
68.0
 40
68.0
 40
68.0
 40
69.0
 40
69.0
 40
69.0
 40
70.0
 40
70.0
 40
70.0
 40
71.0
 40
71.0
 40
71.0
 40
72.0
 40
72.0
 40
72.0
 40
73.0
 40
73.0
 40
73.0
 40
74.0
 40
74.0
 40
74.0
 40
75.0
 40
75.0
 40
75.0
 40
76.0
 40
76.0
 40
76.0
 40
77.0
 40
77.0
 40
77.0
 40
78.0
 40
78.0
 40
78.0
 40
79.0
 40
79.0
 40
79.0
 40
80.0
 40
80.0
 40
80.0
 40
81.0
 40
81.0
 40
81.0
 40
82.0
 40
82.0
 40
82.0
 40
83.0
 40
83.0
 40
83.0
 40
84.0
 40
84.0
 40
84.0
 40
85.0
 40
85.0
 40
85.0
 40
86.0
 40
86.0
 40
86.0
 40
86.0
 10
104.2447084869813
 20
144.3750549633547
 30
0.0
 10
104.2447084869813
 20
144.3750549633547
 30
0.0
 10
104.2437856774679
 20
147.8855345923537
 30
0.0
 10
104.2437856774679
 20
147.8855345923537
 30
0.0
 10
104.2430903604689
 20
147.9154374913535
 30
0.0
 10
104.2423950443426
 20
147.9453403899336
 30
0.0
 10
104.2447093885197
 20
147.975134624478
 30
0.0
 10
104.2467451582418
 20
148.0013425676073
 30
0.0
 10
104.2511096566387
 20
148.0274664317939
 30
0.0
 10
104.2585650639615
 20
148.0527264050244
 30
0.0
 10
104.2652191721799
 20
148.075271463694
 30
0.0
 10
104.2743354795452
 20
148.0971283521098
 30
0.0
 10
104.2862764141715
 20
148.1173862226882
 30
0.0
 10
104.2976630225236
 20
148.1367036752621
 30
0.0
 10
104.3116180936236
 20
148.1545671243984
 30
0.0
 10
104.3278434394518
 20
148.1700377885681
 30
0.0
 10
104.3443357803945
 20
148.1857630292373
 30
0.0
 10
104.363173727527
 20
148.1990160883864
 30
0.0
 10
104.3832661403621
 20
148.2097573906397
 30
0.0
 10
104.4048997567486
 20
148.2213226125146
 30
0.0
 10
104.4279876692856
 20
148.2299759665086
 30
0.0
 10
104.4516208039183
 20
148.2365450287706
 30
0.0
 10
104.4785090760155
 20
148.2440188885131
 30
0.0
 10
104.506103107361
 20
148.2487947501756
 30
0.0
 10
104.5338311437565
 20
148.251324416021
 30
0.0
 10
104.5658778453275
 20
148.2542480794666
 30
0.0
 10
104.5981035454846
 20
148.2541713643384
 30
0.0
 10
104.6303292454842
 20
148.2540946493367
 30
0.0
 10
104.6303292454842
 20
148.2540946493367
 30
0.0
 10
105.7106398194839
 20
148.2531718392884
 30
0.0
 10
105.7106398194839
 20
148.2531718392884
 30
0.0
 10
105.7578125494841
 20
148.2515091112859
 30
0.0
 10
105.8049852789837
 20
148.2498463837125
 30
0.0
 10
105.8519677052794
 20
148.2457821458831
 30
0.0
 10
105.8971169758085
 20
148.241876486093
 30
0.0
 10
105.9420905038816
 20
148.2357530637861
 30
0.0
 10
105.9868296115259
 20
148.228231624113
 30
0.0
 10
106.0299770008583
 20
148.220977780597
 30
0.0
 10
106.0729063533574
 20
148.2124236268536
 30
0.0
 10
106.1152255330161
 20
148.2014439857819
 30
0.0
 10
106.1558516189225
 20
148.1909036150808
 30
0.0
 10
106.19591537858
 20
148.1781279511936
 30
0.0
 10
106.2353080512867
 20
148.163571806881
 30
0.0
 10
106.273899680676
 20
148.1493116592936
 30
0.0
 10
106.3118472384952
 20
148.1333427065774
 30
0.0
 10
106.3489245880326
 20
148.1155387990946
 30
0.0
 10
106.3855753380578
 20
148.0979397373819
 30
0.0
 10
106.4213757892507
 20
148.0785477027365
 30
0.0
 10
106.4560751427713
 20
148.0573449638269
 30
0.0
 10
106.490489558128
 20
148.0363163339105
 30
0.0
 10
106.5238208851722
 20
148.0135066152916
 30
0.0
 10
106.5558360036435
 20
147.9889902996663
 30
0.0
 10
106.587930407771
 20
147.9644132692205
 30
0.0
 10
106.618702076054
 20
147.938121178506
 30
0.0
 10
106.6482071704121
 20
147.9104748072249
 30
0.0
 10
106.6776196218136
 20
147.8829152427028
 30
0.0
 10
106.7057734406264
 20
147.8540098888657
 30
0.0
 10
106.7322649334413
 20
147.8236459093725
 30
0.0
 10
106.7582288334296
 20
147.793886645434
 30
0.0
 10
106.7825959603875
 20
147.7627262759881
 30
0.0
 10
106.8052381556703
 20
147.7303510307744
 30
0.0
 10
106.8276804787664
 20
147.6982615754736
 30
0.0
 10
106.8484281891701
 20
147.6649785981778
 30
0.0
 10
106.867126838405
 20
147.6305901690962
 30
0.0
 10
106.886014379151
 20
147.595854352229
 30
0.0
 10
106.9028112508847
 20
147.5599906364867
 30
0.0
 10
106.9179309805206
 20
147.5234396147284
 30
0.0
 10
106.9333162601051
 20
147.4862466422063
 30
0.0
 10
106.9469649684872
 20
147.4483420091542
 30
0.0
 10
106.9585742943598
 20
147.4098230779504
 30
0.0
 10
106.9704722218535
 20
147.3703465867546
 30
0.0
 10
106.980228110602
 20
147.3302248755308
 30
0.0
 10
106.9881330678231
 20
147.2897405611647
 30
0.0
 10
106.996307955421
 20
147.2478738299249
 30
0.0
 10
107.0025033458505
 20
147.2056193091429
 30
0.0
 10
107.0066073012966
 20
147.1631920612115
 30
0.0
 10
107.0109136171239
 20
147.1186727842118
 30
0.0
 10
107.0129171614313
 20
147.0739633262299
 30
0.0
 10
107.0149207064291
 20
147.02925386823
 30
0.0
 10
107.0136607764276
 20
146.9898077462292
 30
0.0
 10
107.0124008458653
 20
146.9503616248483
 30
0.0
 10
107.009378436313
 20
146.9110187725597
 30
0.0
 10
107.0064557816581
 20
146.8729744346283
 30
0.0
 10
107.0018850696345
 20
146.8350266614716
 30
0.0
 10
106.9955227610413
 20
146.7974022368764
 30
0.0
 10
106.9893294836594
 20
146.7607774026017
 30
0.0
 10
106.9814385419417
 20
146.7244589639351
 30
0.0
 10
106.9724299696578
 20
146.6884042595452
 30
0.0
 10
106.9636379291477
 20
146.653216172955
 30
0.0
 10
106.9537813395386
 20
146.6182792946774
 30
0.0
 10
106.941947483928
 20
146.5840248394315
 30
0.0
 10
106.9303551963142
 20
146.550469630515
 30
0.0
 10
106.9168655437996
 20
146.5175692679911
 30
0.0
 10
106.902227881677
 20
146.4851876905607
 30
0.0
 10
106.8875819663923
 20
146.4527878554039
 30
0.0
 10
106.8717867465681
 20
146.42090739052
 30
0.0
 10
106.8541948746196
 20
146.3900453883548
 30
0.0
 10
106.8366426895331
 20
146.3592530101633
 30
0.0
 10
106.8173019495888
 20
146.3294745046172
 30
0.0
 10
106.7969247513175
 20
146.300445355979
 30
0.0
 10
106.7764623964213
 20
146.2712948940834
 30
0.0
 10
106.7549549023442
 20
146.2429000653293
 30
0.0
 10
106.7322649332558
 20
146.2154638806345
 30
0.0
 10
106.7094767024375
 20
146.1879088801326
 30
0.0
 10
106.6854957327204
 20
146.1613208447207
 30
0.0
 10
106.6602154224675
 20
146.1360246768871
 30
0.0
 10
106.6352426723717
 20
146.1110362621337
 30
0.0
 10
106.6090020049664
 20
146.0873084724573
 30
0.0
 10
106.5816999305792
 20
146.0648988780669
 30
0.0
 10
106.5543242723405
 20
146.0424288859119
 30
0.0
 10
106.5258814780566
 20
146.0212842041505
 30
0.0
 10
106.4967184559194
 20
146.0011627719683
 30
0.0
 10
106.4676603668855
 20
145.9811137398383
 30
0.0
 10
106.4378872236583
 20
145.9620806069113
 30
0.0
 10
106.407118423127
 20
145.9448163595409
 30
0.0
 10
106.3756556025315
 20
145.9271627003683
 30
0.0
 10
106.343151702043
 20
145.9113586245596
 30
0.0
 10
106.310128697651
 20
145.8967833525964
 30
0.0
 10
106.276476672209
 20
145.8819304513546
 30
0.0
 10
106.2422855787728
 20
145.8683536122228
 30
0.0
 10
106.207596700769
 20
145.8561400382707
 30
0.0
 10
106.1717554218796
 20
145.8435207165889
 30
0.0
 10
106.1353827351987
 20
145.8323567428338
 30
0.0
 10
106.0985987238972
 20
145.8228864181643
 30
0.0
 10
106.0608283366417
 20
145.8131621434717
 30
0.0
 10
106.0226242693738
 20
145.8052235672741
 30
0.0
 10
105.9844202023742
 20
145.7972849912755
 30
0.0
 10
105.9844202023742
 20
145.7972849912755
 30
0.0
 10
106.9401000603151
 20
144.4816570642322
 30
0.0
 10
106.9401000603151
 20
144.4816570642322
 30
0.0
 10
106.9427456553142
 20
144.4772505612327
 30
0.0
 10
106.9453912499123
 20
144.4728440585232
 30
0.0
 10
106.9484134655862
 20
144.4687251005834
 30
0.0
 10
106.9532994812275
 20
144.4620659818782
 30
0.0
 10
106.9591698783138
 20
144.4561584242322
 30
0.0
 10
106.9650402753134
 20
144.4502508672318
 30
0.0
 10
106.9759569443125
 20
144.436400884231
 30
0.0
 10
106.9868736134598
 20
144.4225509017872
 30
0.0
 10
106.9964464728105
 20
144.4077601301711
 30
0.0
 10
107.0051295279598
 20
144.3943441714786
 30
0.0
 10
107.0127069792009
 20
144.3801541894177
 30
0.0
 10
107.0186155527193
 20
144.3652693930128
 30
0.0
 10
107.0241688515192
 20
144.3512795997504
 30
0.0
 10
107.0282479336646
 20
144.3366760366086
 30
0.0
 10
107.0306238044994
 20
144.3218549440302
 30
0.0
 10
107.0328734314142
 20
144.3078213828249
 30
0.0
 10
107.0335960413063
 20
144.2935927952283
 30
0.0
 10
107.0343186513055
 20
144.2793642072287
 30
0.0
 10
107.0332771473053
 20
144.2616747322287
 30
0.0
 10
107.0322356432327
 20
144.2439852574931
 30
0.0
 10
107.0287763811323
 20
144.2267126413097
 30
0.0
 10
107.0254744414143
 20
144.2102255594551
 30
0.0
 10
107.0199696554924
 20
144.1941182820567
 30
0.0
 10
107.013073283028
 20
144.1786796344242
 30
0.0
 10
107.0064125034811
 20
144.163768399725
 30
0.0
 10
106.998453591737
 20
144.1494808918295
 30
0.0
 10
106.9890567793022
 20
144.1361888972262
 30
0.0
 10
106.9793536400257
 20
144.1224635966747
 30
0.0
 10
106.9681173237108
 20
144.1097997728513
 30
0.0
 10
106.9558031588359
 20
144.0983167187446
 30
0.0
 10
106.9435699202754
 20
144.0869091290546
 30
0.0
 10
106.9302729534278
 20
144.0766668404959
 30
0.0
 10
106.9160835567074
 20
144.0678342329847
 30
0.0
 10
106.9018002930197
 20
144.0589431952196
 30
0.0
 10
106.8866127530391
 20
144.0514805510878
 30
0.0
 10
106.8708216843602
 20
144.0456651527255
 30
0.0
 10
106.8546765413282
 20
144.0397193589199
 30
0.0
 10
106.8379005009864
 20
144.0354955096163
 30
0.0
 10
106.8209412539793
 20
144.0327331891139
 30
0.0
 10
106.8026097241812
 20
144.0297473513259
 30
0.0
 10
106.7840641392944
 20
144.0284691352401
 30
0.0
 10
106.7655185532942
 20
144.0271909192417
 30
0.0
 10
106.7419511642947
 20
144.0276529662416
 30
0.0
 10
106.7183837746887
 20
144.0281150130246
 30
0.0
 10
106.6953164661213
 20
144.0327331891165
 30
0.0
 10
106.6749178329883
 20
144.0368170847106
 30
0.0
 10
106.6549102646069
 20
144.0441510848833
 30
0.0
 10
106.637122630176
 20
144.0549022694386
 30
0.0
 10
106.6276756008655
 20
144.0606122336276
 30
0.0
 10
106.6188547443409
 20
144.0672860768809
 30
0.0
 10
106.6103349915725
 20
144.0743002148533
 30
0.0
 10
106.6003951218353
 20
144.0824835060405
 30
0.0
 10
106.5908651008115
 20
144.0911299908911
 30
0.0
 10
106.5816999299426
 20
144.1001641418968
 30
0.0
 10
106.571295037819
 20
144.1104202918362
 30
0.0
 10
106.5613603737831
 20
144.1211760757013
 30
0.0
 10
106.5521411563414
 20
144.1324940502763
 30
0.0
 10
106.5416061720043
 20
144.1454273264062
 30
0.0
 10
106.5320054243004
 20
144.1590947162516
 30
0.0
 10
106.5224046763013
 20
144.1727621062523
 30
0.0
 10
106.5224046763013
 20
144.1727621062523
 30
0.0
 10
105.3346648113729
 20
145.7785473563053
 30
0.0
 10
105.3346648113729
 20
145.7785473563053
 30
0.0
 10
105.3346648113729
 20
145.7785473563053
 30
0.0
 10
104.769377621373
 20
145.7785473563297
 30
0.0
 10
104.769377621373
 20
145.7785473563297
 30
0.0
 10
104.769377621373
 20
145.7785473563297
 30
0.0
 10
104.7693776213088
 20
144.3495662943297
 30
0.0
 10
104.7693776213088
 20
144.3495662943297
 30
0.0
 10
104.7687093153077
 20
144.3218263313296
 30
0.0
 10
104.7680410092789
 20
144.2940863686492
 30
0.0
 10
104.7656827741292
 20
144.2664322437994
 30
0.0
 10
104.7636169640475
 20
144.2422072762786
 30
0.0
 10
104.7602543478262
 20
144.2180481783993
 30
0.0
 10
104.7545982341312
 20
144.1943827327069
 30
0.0
 10
104.7496800116208
 20
144.1738046584339
 30
0.0
 10
104.7430276722901
 20
144.153599835308
 30
0.0
 10
104.734276577517
 20
144.1343414737236
 30
0.0
 10
104.7264464520994
 20
144.1171098712287
 30
0.0
 10
104.7169360743861
 20
144.1006360007432
 30
0.0
 10
104.705641515359
 20
144.0853847550881
 30
0.0
 10
104.6952325091527
 20
144.0713292872941
 30
0.0
 10
104.683308131979
 20
144.0583122398418
 30
0.0
 10
104.6696167594765
 20
144.047512576486
 30
0.0
 10
104.6559617803591
 20
144.0367416199911
 30
0.0
 10
104.6405491872172
 20
144.0281762750886
 30
0.0
 10
104.624354887266
 20
144.0216486497236
 30
0.0
 10
104.6074418202952
 20
144.0148313025517
 30
0.0
 10
104.5896761161285
 20
144.0102365731802
 30
0.0
 10
104.571703321836
 20
144.0077929744121
 30
0.0
 10
104.551252516182
 20
144.0050124627855
 30
0.0
 10
104.5305335782939
 20
144.0050171513415
 30
0.0
 10
104.5098146392937
 20
144.0050218393419
 30
0.0
 10
104.494045968294
 20
144.0057483253426
 30
0.0
 10
104.478277296589
 20
144.0064748110634
 30
0.0
 10
104.4627053444354
 20
144.0087166863713
 30
0.0
 10
104.447715501935
 20
144.010874756049
 30
0.0
 10
104.4329079463693
 20
144.0144370365529
 30
0.0
 10
104.4183671840345
 20
144.0188775147637
 30
0.0
 10
104.4044389417008
 20
144.0231309407654
 30
0.0
 10
104.390755489033
 20
144.0281901358032
 30
0.0
 10
104.3777238698295
 20
144.0345806130092
 30
0.0
 10
104.3644571663249
 20
144.0410863714283
 30
0.0
 10
104.3518660259473
 20
144.0489718766589
 30
0.0
 10
104.3398516908494
 20
144.0576734046821
 30
0.0
 10
104.3283184979604
 20
144.066026459623
 30
0.0
 10
104.3173168363869
 20
144.0751314869973
 30
0.0
 10
104.3075217822309
 20
144.0853847550022
 30
0.0
 10
104.2978309953518
 20
144.0955288780923
 30
0.0
 10
104.2893212642065
 20
144.1067969261333
 30
0.0
 10
104.2816578554374
 20
144.1186383756103
 30
0.0
 10
104.2740666310883
 20
144.1303682861885
 30
0.0
 10
104.2673058605719
 20
144.1426608469254
 30
0.0
 10
104.262259910448
 20
144.1555868427012
 30
0.0
 10
104.2570282474173
 20
144.1689885713312
 30
0.0
 10
104.2536399533015
 20
144.1830712193533
 30
0.0
 10
104.2502516583022
 20
144.1971538683546
 30
0.0
 10
104.2488612473029
 20
144.2051413393534
 30
0.0
 10
104.2474708363428
 20
144.2131288109798
 30
0.0
 10
104.2465568116257
 20
144.2211703712744
 30
0.0
 10
104.2454427699244
 20
144.2309716745982
 30
0.0
 10
104.2450364233816
 20
144.2408533292978
 30
0.0
 10
104.2447093884549
 20
144.2507291452305
 30
0.0
 10
104.2441788935508
 20
144.2667490550185
 30
0.0
 10
104.2438570931243
 20
144.2827536011287
 30
0.0
 10
104.2437856769822
 20
144.2987621522084
 30
0.0
 10
104.243672256444
 20
144.3241863549838
 30
0.0
 10
104.244190371309
 20
144.3496206593547
 30
0.0
 10
104.2447084869813
 20
144.3750549633547
 30
0.0
  0
ENDBLK
  5
54
330
51
100
AcDbEntity
  8
0
100
AcDbBlockEnd
  0
BLOCK
  5
58
330
56
100
AcDbEntity
  8
0
100
AcDbBlockBegin
  2
block 5
 70
     0
 10
0.0
 20
0.0
 30
0.0
  3
block 5
  1

  0
SPLINE
  5
5A
330
56
100
AcDbEntity
  8
0
 62
     7
420
 16777215
370
     5
100
AcDbSpline
210
0.0
220
0.0
230
1.0
 70
    11
 71
     3
 72
   311
 73
   307
 74
     0
 42
0.0000000001
 43
0.0000000001
 12
1.0
 22
0.0
 32
0.0
 13
1.0
 23
0.0
 33
0.0
 40
0.0
 40
0.0
 40
0.0
 40
0.0
 40
1.0
 40
1.0
 40
1.0
 40
2.0
 40
2.0
 40
2.0
 40
3.0
 40
3.0
 40
3.0
 40
4.0
 40
4.0
 40
4.0
 40
5.0
 40
5.0
 40
5.0
 40
6.0
 40
6.0
 40
6.0
 40
7.0
 40
7.0
 40
7.0
 40
8.0
 40
8.0
 40
8.0
 40
9.0
 40
9.0
 40
9.0
 40
10.0
 40
10.0
 40
10.0
 40
11.0
 40
11.0
 40
11.0
 40
12.0
 40
12.0
 40
12.0
 40
13.0
 40
13.0
 40
13.0
 40
14.0
 40
14.0
 40
14.0
 40
15.0
 40
15.0
 40
15.0
 40
16.0
 40
16.0
 40
16.0
 40
17.0
 40
17.0
 40
17.0
 40
18.0
 40
18.0
 40
18.0
 40
19.0
 40
19.0
 40
19.0
 40
20.0
 40
20.0
 40
20.0
 40
21.0
 40
21.0
 40
21.0
 40
22.0
 40
22.0
 40
22.0
 40
23.0
 40
23.0
 40
23.0
 40
24.0
 40
24.0
 40
24.0
 40
25.0
 40
25.0
 40
25.0
 40
26.0
 40
26.0
 40
26.0
 40
27.0
 40
27.0
 40
27.0
 40
28.0
 40
28.0
 40
28.0
 40
29.0
 40
29.0
 40
29.0
 40
30.0
 40
30.0
 40
30.0
 40
31.0
 40
31.0
 40
31.0
 40
32.0
 40
32.0
 40
32.0
 40
33.0
 40
33.0
 40
33.0
 40
34.0
 40
34.0
 40
34.0
 40
35.0
 40
35.0
 40
35.0
 40
36.0
 40
36.0
 40
36.0
 40
37.0
 40
37.0
 40
37.0
 40
38.0
 40
38.0
 40
38.0
 40
39.0
 40
39.0
 40
39.0
 40
40.0
 40
40.0
 40
40.0
 40
41.0
 40
41.0
 40
41.0
 40
42.0
 40
42.0
 40
42.0
 40
43.0
 40
43.0
 40
43.0
 40
44.0
 40
44.0
 40
44.0
 40
45.0
 40
45.0
 40
45.0
 40
46.0
 40
46.0
 40
46.0
 40
47.0
 40
47.0
 40
47.0
 40
48.0
 40
48.0
 40
48.0
 40
49.0
 40
49.0
 40
49.0
 40
50.0
 40
50.0
 40
50.0
 40
51.0
 40
51.0
 40
51.0
 40
52.0
 40
52.0
 40
52.0
 40
53.0
 40
53.0
 40
53.0
 40
54.0
 40
54.0
 40
54.0
 40
55.0
 40
55.0
 40
55.0
 40
56.0
 40
56.0
 40
56.0
 40
57.0
 40
57.0
 40
57.0
 40
58.0
 40
58.0
 40
58.0
 40
59.0
 40
59.0
 40
59.0
 40
60.0
 40
60.0
 40
60.0
 40
61.0
 40
61.0
 40
61.0
 40
62.0
 40
62.0
 40
62.0
 40
63.0
 40
63.0
 40
63.0
 40
64.0
 40
64.0
 40
64.0
 40
65.0
 40
65.0
 40
65.0
 40
66.0
 40
66.0
 40
66.0
 40
67.0
 40
67.0
 40
67.0
 40
68.0
 40
68.0
 40
68.0
 40
69.0
 40
69.0
 40
69.0
 40
70.0
 40
70.0
 40
70.0
 40
71.0
 40
71.0
 40
71.0
 40
72.0
 40
72.0
 40
72.0
 40
73.0
 40
73.0
 40
73.0
 40
74.0
 40
74.0
 40
74.0
 40
75.0
 40
75.0
 40
75.0
 40
76.0
 40
76.0
 40
76.0
 40
77.0
 40
77.0
 40
77.0
 40
78.0
 40
78.0
 40
78.0
 40
79.0
 40
79.0
 40
79.0
 40
80.0
 40
80.0
 40
80.0
 40
81.0
 40
81.0
 40
81.0
 40
82.0
 40
82.0
 40
82.0
 40
83.0
 40
83.0
 40
83.0
 40
84.0
 40
84.0
 40
84.0
 40
85.0
 40
85.0
 40
85.0
 40
86.0
 40
86.0
 40
86.0
 40
87.0
 40
87.0
 40
87.0
 40
88.0
 40
88.0
 40
88.0
 40
89.0
 40
89.0
 40
89.0
 40
90.0
 40
90.0
 40
90.0
 40
91.0
 40
91.0
 40
91.0
 40
92.0
 40
92.0
 40
92.0
 40
93.0
 40
93.0
 40
93.0
 40
94.0
 40
94.0
 40
94.0
 40
95.0
 40
95.0
 40
95.0
 40
96.0
 40
96.0
 40
96.0
 40
97.0
 40
97.0
 40
97.0
 40
98.0
 40
98.0
 40
98.0
 40
99.0
 40
99.0
 40
99.0
 40
100.0
 40
100.0
 40
100.0
 40
101.0
 40
101.0
 40
101.0
 40
102.0
 40
102.0
 40
102.0
 40
102.0
 10
108.759812063509
 20
148.8047663811513
 30
0.0
 10
108.7209886575089
 20
148.8057855131532
 30
0.0
 10
108.6821652512322
 20
148.8068046458897
 30
0.0
 10
108.6434243919495
 20
148.8093849395274
 30
0.0
 10
108.6057307099506
 20
148.8118954870386
 30
0.0
 10
108.5681151727164
 20
148.8158839387785
 30
0.0
 10
108.5307315671615
 20
148.8213931914493
 30
0.0
 10
108.4941576482557
 20
148.8267831199335
 30
0.0
 10
108.4578057230741
 20
148.8336286851071
 30
0.0
 10
108.4217335903307
 20
148.8417148477998
 30
0.0
 10
108.3860174757618
 20
148.8497212031542
 30
0.0
 10
108.3505756579961
 20
148.8589437884263
 30
0.0
 10
108.3155067467492
 20
148.8694261984564
 30
0.0
 10
108.2806083189395
 20
148.8798576494679
 30
0.0
 10
108.246079180778
 20
148.8915367060273
 30
0.0
 10
108.2120510389373
 20
148.9045272420919
 30
0.0
 10
108.1782768421626
 20
148.9174208324423
 30
0.0
 10
108.144996191944
 20
148.931606400731
 30
0.0
 10
108.1122901783801
 20
148.9470179791674
 30
0.0
 10
108.0796411769163
 20
148.9624026926219
 30
0.0
 10
108.0475648104747
 20
148.9790091456651
 30
0.0
 10
108.0162241642362
 20
148.9968984097938
 30
0.0
 10
107.9843876157632
 20
149.0150707352861
 30
0.0
 10
107.9533102542559
 20
149.0345667888106
 30
0.0
 10
107.9229292842367
 20
149.0550922453955
 30
0.0
 10
107.8926062587873
 20
149.0755785544901
 30
0.0
 10
107.8629769709532
 20
149.0970903437004
 30
0.0
 10
107.8342529638475
 20
149.1197520621629
 30
0.0
 10
107.8059584694028
 20
149.1420749179115
 30
0.0
 10
107.7785423846149
 20
149.1655135700387
 30
0.0
 10
107.7520426236753
 20
149.1899541507433
 30
0.0
 10
107.7254646228598
 20
149.2144668916478
 30
0.0
 10
107.6998083647266
 20
149.239987486201
 30
0.0
 10
107.6753745552537
 20
149.2666222197143
 30
0.0
 10
107.6508540035201
 20
149.293351508969
 30
0.0
 10
107.6275645954631
 20
149.3212028618169
 30
0.0
 10
107.6051724676996
 20
149.3497562706428
 30
0.0
 10
107.5825875224988
 20
149.3785555513752
 30
0.0
 10
107.5609153769918
 20
149.4080690308769
 30
0.0
 10
107.5405126504375
 20
149.4384325910939
 30
0.0
 10
107.519925032525
 20
149.4690713086463
 30
0.0
 10
107.5006299449915
 20
149.5005755837409
 30
0.0
 10
107.482318815062
 20
149.5326511820326
 30
0.0
 10
107.4635316653734
 20
149.5655606239282
 30
0.0
 10
107.4457802965631
 20
149.5990714795844
 30
0.0
 10
107.4296672492059
 20
149.6333357546456
 30
0.0
 10
107.4131202122691
 20
149.668522905311
 30
0.0
 10
107.3983009385493
 20
149.7045046072127
 30
0.0
 10
107.3834816655508
 20
149.7404863092132
 30
0.0
 10
107.3669946425529
 20
149.7860335782137
 30
0.0
 10
107.3505076190133
 20
149.8315808468719
 30
0.0
 10
107.3372960815595
 20
149.8781193490287
 30
0.0
 10
107.3246496745512
 20
149.9226671423384
 30
0.0
 10
107.3150045256624
 20
149.9681231817857
 30
0.0
 10
107.3077373081283
 20
150.0139049654299
 30
0.0
 10
107.3039386357421
 20
150.0378357197341
 30
0.0
 10
107.3007896840093
 20
150.0618554769163
 30
0.0
 10
107.2985001915757
 20
150.0859544760671
 30
0.0
 10
107.2958740995455
 20
150.1135964934354
 30
0.0
 10
107.2943787579765
 20
150.1413427657606
 30
0.0
 10
107.2929579214128
 20
150.1690885270351
 30
0.0
 10
107.2913814510488
 20
150.199873468461
 30
0.0
 10
107.2898967016952
 20
150.2306577807463
 30
0.0
 10
107.2892630744205
 20
150.2614596945663
 30
0.0
 10
107.2885558090342
 20
150.2958413071649
 30
0.0
 10
107.2889089905773
 20
150.3302448502174
 30
0.0
 10
107.2892621725786
 20
150.3646483922177
 30
0.0
 10
107.2892621725786
 20
150.3646483922177
 30
0.0
 10
107.288339362686
 20
152.7499389512173
 30
0.0
 10
107.288339362686
 20
152.7499389512173
 30
0.0
 10
107.2895686796872
 20
152.7737130562174
 30
0.0
 10
107.2907979964478
 20
152.7974871612991
 30
0.0
 10
107.2938816332173
 20
152.8210647502046
 30
0.0
 10
107.296614464317
 20
152.8419600673382
 30
0.0
 10
107.3008037060317
 20
152.8627010377334
 30
0.0
 10
107.3068135965093
 20
152.8829534329333
 30
0.0
 10
107.3122104761495
 20
152.9011400770544
 30
0.0
 10
107.3190755331413
 20
152.9189327324774
 30
0.0
 10
107.3280589649633
 20
152.9356049983803
 30
0.0
 10
107.3362488183387
 20
152.9508044695735
 30
0.0
 10
107.3461993114876
 20
152.9650727541216
 30
0.0
 10
107.3576177386652
 20
152.9780957352219
 30
0.0
 10
107.3685835492681
 20
152.9906024966177
 30
0.0
 10
107.3809032251384
 20
153.0019607233704
 30
0.0
 10
107.394566206077
 20
153.0113493554479
 30
0.0
 10
107.4085324828843
 20
153.0209463998281
 30
0.0
 10
107.4239023650563
 20
153.028485435408
 30
0.0
 10
107.4398280782188
 20
153.0344421475415
 30
0.0
 10
107.4571721538025
 20
153.0409293713424
 30
0.0
 10
107.4751754750673
 20
153.0455398737717
 30
0.0
 10
107.4934033552423
 20
153.0482978227477
 30
0.0
 10
107.5135422698294
 20
153.0513449186431
 30
0.0
 10
107.5339552976997
 20
153.0521306502064
 30
0.0
 10
107.5543683256996
 20
153.0529163812056
 30
0.0
 10
107.5751168016997
 20
153.0529873732046
 30
0.0
 10
107.5958652776696
 20
153.053058365766
 30
0.0
 10
107.6162570078471
 20
153.0501452456637
 30
0.0
 10
107.6341778847519
 20
153.047585106514
 30
0.0
 10
107.6518232314495
 20
153.0427202080577
 30
0.0
 10
107.6689085737366
 20
153.0362895705188
 30
0.0
 10
107.6848542609278
 20
153.0302878801275
 30
0.0
 10
107.7003121607392
 20
153.0229223651826
 30
0.0
 10
107.7141704459767
 20
153.0131967786155
 30
0.0
 10
107.7277137289928
 20
153.0036922570159
 30
0.0
 10
107.7397292902345
 20
152.9919337344437
 30
0.0
 10
107.7501952010468
 20
152.9790194465692
 30
0.0
 10
107.7614834599106
 20
152.9650904319644
 30
0.0
 10
107.7709689766694
 20
152.949816890404
 30
0.0
 10
107.7788302630071
 20
152.933757574719
 30
0.0
 10
107.78749464582
 20
152.9160576649537
 30
0.0
 10
107.7941859896115
 20
152.8974032335947
 30
0.0
 10
107.7991519202098
 20
152.8783348742428
 30
0.0
 10
107.804747333321
 20
152.8568494052406
 30
0.0
 10
107.8081521814797
 20
152.8348384179684
 30
0.0
 10
107.8102364602155
 20
152.8127513453657
 30
0.0
 10
107.8126042325094
 20
152.7876600955001
 30
0.0
 10
107.8132677696869
 20
152.7624706551939
 30
0.0
 10
107.8139313066853
 20
152.7372812141939
 30
0.0
 10
107.8139313066853
 20
152.7372812141939
 30
0.0
 10
107.8139313065795
 20
150.3769236541939
 30
0.0
 10
107.8139313065795
 20
150.3769236541939
 30
0.0
 10
107.8140014685779
 20
150.3439729961939
 30
0.0
 10
107.8140716312514
 20
150.311022338482
 30
0.0
 10
107.8148550183339
 20
150.278086504754
 30
0.0
 10
107.815543820282
 20
150.2491273006205
 30
0.0
 10
107.8167840163362
 20
150.2201795569159
 30
0.0
 10
107.8185498650329
 20
150.1912576071297
 30
0.0
 10
107.8200944909709
 20
150.1659589539043
 30
0.0
 10
107.8220413136251
 20
150.140680036581
 30
0.0
 10
107.8250158467886
 20
150.1155132497043
 30
0.0
 10
107.8275412292779
 20
150.0941466152105
 30
0.0
 10
107.8308073887789
 20
150.0728608047
 30
0.0
 10
107.8351766754968
 20
150.05177714405
 30
0.0
 10
107.843424679027
 20
150.0119770305064
 30
0.0
 10
107.8556036748011
 20
149.9728972776972
 30
0.0
 10
107.8712014305117
 20
149.9353894732096
 30
0.0
 10
107.8879663454459
 20
149.8950750098179
 30
0.0
 10
107.9086808055561
 20
149.8565765501893
 30
0.0
 10
107.9293952665545
 20
149.8180780901889
 30
0.0
 10
107.9515052385522
 20
149.7807673761875
 30
0.0
 10
107.9736152105691
 20
149.7434566619439
 30
0.0
 10
107.9986736419492
 20
149.7081564008982
 30
0.0
 10
108.0229655313876
 20
149.6739359812111
 30
0.0
 10
108.0500282514298
 20
149.6416048957694
 30
0.0
 10
108.079036558291
 20
149.6111666746906
 30
0.0
 10
108.1073421126221
 20
149.5814658471103
 30
0.0
 10
108.1375001284182
 20
149.5535672820936
 30
0.0
 10
108.1695603022795
 20
149.5280326238817
 30
0.0
 10
108.2019743650039
 20
149.5022161072121
 30
0.0
 10
108.2363328106298
 20
149.4788159722581
 30
0.0
 10
108.2720922985224
 20
149.4578305360517
 30
0.0
 10
108.3077558218438
 20
149.4369014166019
 30
0.0
 10
108.3448128778154
 20
149.4183740530637
 30
0.0
 10
108.3829376987247
 20
149.4024078361178
 30
0.0
 10
108.421668756301
 20
149.3861877345394
 30
0.0
 10
108.4615018066409
 20
149.372610878597
 30
0.0
 10
108.5020965058614
 20
149.3617645221222
 30
0.0
 10
108.5430436788445
 20
149.3508239894097
 30
0.0
 10
108.5847657845478
 20
149.3426615785235
 30
0.0
 10
108.6267975817307
 20
149.3377480187369
 30
0.0
 10
108.6709083521305
 20
149.3325914248696
 30
0.0
 10
108.7153602075326
 20
149.3310130191536
 30
0.0
 10
108.7598120635321
 20
149.3294346131514
 30
0.0
 10
108.8098712445329
 20
149.3312438811492
 30
0.0
 10
108.859930425884
 20
149.3330531481616
 30
0.0
 10
108.9094533548681
 20
149.3395954414912
 30
0.0
 10
108.9568925485976
 20
149.3458624601646
 30
0.0
 10
109.0038396674699
 20
149.3564725892704
 30
0.0
 10
109.0498575297125
 20
149.3700779268415
 30
0.0
 10
109.0947000934074
 20
149.383335783397
 30
0.0
 10
109.1386602608467
 20
149.3994378066208
 30
0.0
 10
109.1810245880389
 20
149.4190346461071
 30
0.0
 10
109.2233215520158
 20
149.4386003247981
 30
0.0
 10
109.2640277467807
 20
149.461649714422
 30
0.0
 10
109.3029545286968
 20
149.4873893097017
 30
0.0
 10
109.3416468741197
 20
149.5129738883023
 30
0.0
 10
109.3785811751781
 20
149.541216366613
 30
0.0
 10
109.4128762184248
 20
149.5723707842168
 30
0.0
 10
109.4469125999167
 20
149.6032902274475
 30
0.0
 10
109.4783493853409
 20
149.6370778504758
 30
0.0
 10
109.507094809892
 20
149.6730553572739
 30
0.0
 10
109.536361782052
 20
149.7096856282231
 30
0.0
 10
109.5628388450146
 20
149.7485859689103
 30
0.0
 10
109.585610302291
 20
149.7894430280027
 30
0.0
 10
109.6091985771819
 20
149.8317656395685
 30
0.0
 10
109.6288106365575
 20
149.8761878631124
 30
0.0
 10
109.6484226965589
 20
149.9206100861115
 30
0.0
 10
109.66019812756
 20
149.9507926611111
 30
0.0
 10
109.6719735583371
 20
149.9809752363295
 30
0.0
 10
109.6807526046124
 20
150.0120575417038
 30
0.0
 10
109.6900332664563
 20
150.0449158222607
 30
0.0
 10
109.6959653476519
 20
150.0787795875902
 30
0.0
 10
109.7001505502145
 20
150.1127421153338
 30
0.0
 10
109.7024990565619
 20
150.1318000249073
 30
0.0
 10
109.7042974988822
 20
150.1508890331791
 30
0.0
 10
109.7056928203499
 20
150.17001223883
 30
0.0
 10
109.7073081460071
 20
150.1921506531346
 30
0.0
 10
109.7083832065888
 20
150.2143348989797
 30
0.0
 10
109.7093876666638
 20
150.2365194796989
 30
0.0
 10
109.7105167179938
 20
150.2614557922401
 30
0.0
 10
109.7115565683021
 20
150.2863925278827
 30
0.0
 10
109.7121588015807
 20
150.3113401253047
 30
0.0
 10
109.712846221995
 20
150.339816611731
 30
0.0
 10
109.712963465579
 20
150.3683072501087
 30
0.0
 10
109.7130807095802
 20
150.3967978881088
 30
0.0
 10
109.7130807095802
 20
150.3967978881088
 30
0.0
 10
109.712158801684
 20
152.7046770791085
 30
0.0
 10
109.712158801684
 20
152.7046770791085
 30
0.0
 10
109.7124893976855
 20
152.7340141511085
 30
0.0
 10
109.712819993019
 20
152.7633512239353
 30
0.0
 10
109.7158536488925
 20
152.7924296880248
 30
0.0
 10
109.7184448337937
 20
152.8172669405908
 30
0.0
 10
109.7230080779157
 20
152.8419155211921
 30
0.0
 10
109.7287856123231
 20
152.8663266222294
 30
0.0
 10
109.7337126635175
 20
152.8871442818124
 30
0.0
 10
109.7395228181777
 20
152.9077892322595
 30
0.0
 10
109.7481835570481
 20
152.9272915931365
 30
0.0
 10
109.755646618951
 20
152.9440970099339
 30
0.0
 10
109.7652263748331
 20
152.9600539997835
 30
0.0
 10
109.7768186192124
 20
152.9744008887655
 30
0.0
 10
109.7875348705178
 20
152.9876636239837
 30
0.0
 10
109.7999709463182
 20
152.9995504055447
 30
0.0
 10
109.8137670859113
 20
153.0095019320449
 30
0.0
 10
109.8279762746809
 20
153.0197514020231
 30
0.0
 10
109.8436281855578
 20
153.0279480011914
 30
0.0
 10
109.8599526701586
 20
153.0344421475007
 30
0.0
 10
109.8775143884267
 20
153.0414284855483
 30
0.0
 10
109.8958544925772
 20
153.0464445336129
 30
0.0
 10
109.9144516593414
 20
153.0492215345943
 30
0.0
 10
109.9354779591973
 20
153.0523612631386
 30
0.0
 10
109.9568328616995
 20
153.0526388220979
 30
0.0
 10
109.9781877646996
 20
153.0529163810968
 30
0.0
 10
109.9994882786995
 20
153.0524838500957
 30
0.0
 10
110.0207887928419
 20
153.0520513192838
 30
0.0
 10
110.0419238703952
 20
153.0492215343719
 30
0.0
 10
110.0605395514525
 20
153.0467290725745
 30
0.0
 10
110.0790268866891
 20
153.0423768193671
 30
0.0
 10
110.0964228591596
 20
153.0353658589738
 30
0.0
 10
110.1121602312214
 20
153.0290233511091
 30
0.0
 10
110.1270044291562
 20
153.020504950366
 30
0.0
 10
110.1407610196857
 20
153.0104256437846
 30
0.0
 10
110.1541893966573
 20
153.0005868157629
 30
0.0
 10
110.1665814447898
 20
152.989260675566
 30
0.0
 10
110.1767857751979
 20
152.9762483119562
 30
0.0
 10
110.1879220778214
 20
152.9620475155079
 30
0.0
 10
110.1964528010618
 20
152.9458384211369
 30
0.0
 10
110.2035734138835
 20
152.9291390164635
 30
0.0
 10
110.2118639822582
 20
152.9096958084525
 30
0.0
 10
110.2182429947959
 20
152.8895879322652
 30
0.0
 10
110.2229713592579
 20
152.8690977572528
 30
0.0
 10
110.2287079480669
 20
152.8442384830578
 30
0.0
 10
110.232014907423
 20
152.8188164938303
 30
0.0
 10
110.234055899134
 20
152.7933533997395
 30
0.0
 10
110.2364101100273
 20
152.7639826320052
 30
0.0
 10
110.2370799766854
 20
152.7345571750852
 30
0.0
 10
110.2377498436843
 20
152.7051317180851
 30
0.0
 10
110.2377498436843
 20
152.7051317180851
 30
0.0
 10
110.2368270335773
 20
150.3381277640853
 30
0.0
 10
110.2368270335773
 20
150.3381277640853
 30
0.0
 10
110.2346358925754
 20
150.2826417230854
 30
0.0
 10
110.2324447509517
 20
150.2271556816957
 30
0.0
 10
110.2275899173904
 20
150.1718596618882
 30
0.0
 10
110.2229434586996
 20
150.1189370089217
 30
0.0
 10
110.2158570582161
 20
150.0661884157228
 30
0.0
 10
110.206344548717
 20
150.0139049661862
 30
0.0
 10
110.1971293787207
 20
149.9632557788749
 30
0.0
 10
110.1856373986355
 20
149.9130431110183
 30
0.0
 10
110.1721672164923
 20
149.8633399610329
 30
0.0
 10
110.1592201968836
 20
149.8155672100305
 30
0.0
 10
110.1444456522858
 20
149.768265167589
 30
0.0
 10
110.1269053444127
 20
149.7220120753665
 30
0.0
 10
110.1096007402663
 20
149.6763805244693
 30
0.0
 10
110.0896042051459
 20
149.6317699219708
 30
0.0
 10
110.0677877978423
 20
149.5880738835352
 30
0.0
 10
110.0463432169202
 20
149.5451225754129
 30
0.0
 10
110.0231402689057
 20
149.5030549224006
 30
0.0
 10
109.9975857090542
 20
149.4624490936989
 30
0.0
 10
109.9720537958694
 20
149.4218792502247
 30
0.0
 10
109.9441744370375
 20
149.3827686412472
 30
0.0
 10
109.9144516590251
 20
149.3451377123755
 30
0.0
 10
109.8845429967183
 20
149.3072714421553
 30
0.0
 10
109.8527677858879
 20
149.2709034175568
 30
0.0
 10
109.8193093555917
 20
149.2361397338539
 30
0.0
 10
109.7859109873553
 20
149.2014384553036
 30
0.0
 10
109.7508354374078
 20
149.1683357628337
 30
0.0
 10
109.7140062252469
 20
149.1373025848875
 30
0.0
 10
109.6780128766879
 20
149.1069737256697
 30
0.0
 10
109.6403445636901
 20
149.0786215089358
 30
0.0
 10
109.6013134009408
 20
149.0523211103945
 30
0.0
 10
109.5622371279059
 20
149.0259903151527
 30
0.0
 10
109.5217948530708
 20
149.0017160836237
 30
0.0
 10
109.4803071705955
 20
148.9793478877641
 30
0.0
 10
109.4385764369926
 20
148.9568486502338
 30
0.0
 10
109.3957880110535
 20
148.9362778463996
 30
0.0
 10
109.3519112482255
 20
148.9183829174272
 30
0.0
 10
109.3072738783948
 20
148.9001777785078
 30
0.0
 10
109.2615101118198
 20
148.8847420915499
 30
0.0
 10
109.2152019206011
 20
148.8712736222846
 30
0.0
 10
109.1677042919661
 20
148.857459212034
 30
0.0
 10
109.119633912148
 20
148.8457143742649
 30
0.0
 10
109.0711028972854
 20
148.8361725782708
 30
0.0
 10
109.0210045905601
 20
148.8263226333689
 30
0.0
 10
108.9704154162842
 20
148.8188203207917
 30
0.0
 10
108.9196141838329
 20
148.8140034979651
 30
0.0
 10
108.8665013405877
 20
148.8089674950298
 30
0.0
 10
108.813156701509
 20
148.8068669381489
 30
0.0
 10
108.759812063509
 20
148.8047663811513
 30
0.0
  0
ENDBLK
  5
59
330
56
100
AcDbEntity
  8
0
100
AcDbBlockEnd
  0
BLOCK
  5
5D
330
5B
100
AcDbEntity
  8
0
100
AcDbBlockBegin
  2
block 6
 70
     0
 10
0.0
 20
0.0
 30
0.0
  3
block 6
  1

  0
SPLINE
  5
5F
330
5B
100
AcDbEntity
  8
0
 62
     7
420
 16777215
370
     5
100
AcDbSpline
210
0.0
220
0.0
230
1.0
 70
    11
 71
     3
 72
   194
 73
   190
 74
     0
 42
0.0000000001
 43
0.0000000001
 12
1.0
 22
0.0
 32
0.0
 13
1.0
 23
0.0
 33
0.0
 40
0.0
 40
0.0
 40
0.0
 40
0.0
 40
1.0
 40
1.0
 40
1.0
 40
2.0
 40
2.0
 40
2.0
 40
3.0
 40
3.0
 40
3.0
 40
4.0
 40
4.0
 40
4.0
 40
5.0
 40
5.0
 40
5.0
 40
6.0
 40
6.0
 40
6.0
 40
7.0
 40
7.0
 40
7.0
 40
8.0
 40
8.0
 40
8.0
 40
9.0
 40
9.0
 40
9.0
 40
10.0
 40
10.0
 40
10.0
 40
11.0
 40
11.0
 40
11.0
 40
12.0
 40
12.0
 40
12.0
 40
13.0
 40
13.0
 40
13.0
 40
14.0
 40
14.0
 40
14.0
 40
15.0
 40
15.0
 40
15.0
 40
16.0
 40
16.0
 40
16.0
 40
17.0
 40
17.0
 40
17.0
 40
18.0
 40
18.0
 40
18.0
 40
19.0
 40
19.0
 40
19.0
 40
20.0
 40
20.0
 40
20.0
 40
21.0
 40
21.0
 40
21.0
 40
22.0
 40
22.0
 40
22.0
 40
23.0
 40
23.0
 40
23.0
 40
24.0
 40
24.0
 40
24.0
 40
25.0
 40
25.0
 40
25.0
 40
26.0
 40
26.0
 40
26.0
 40
27.0
 40
27.0
 40
27.0
 40
28.0
 40
28.0
 40
28.0
 40
29.0
 40
29.0
 40
29.0
 40
30.0
 40
30.0
 40
30.0
 40
31.0
 40
31.0
 40
31.0
 40
32.0
 40
32.0
 40
32.0
 40
33.0
 40
33.0
 40
33.0
 40
34.0
 40
34.0
 40
34.0
 40
35.0
 40
35.0
 40
35.0
 40
36.0
 40
36.0
 40
36.0
 40
37.0
 40
37.0
 40
37.0
 40
38.0
 40
38.0
 40
38.0
 40
39.0
 40
39.0
 40
39.0
 40
40.0
 40
40.0
 40
40.0
 40
41.0
 40
41.0
 40
41.0
 40
42.0
 40
42.0
 40
42.0
 40
43.0
 40
43.0
 40
43.0
 40
44.0
 40
44.0
 40
44.0
 40
45.0
 40
45.0
 40
45.0
 40
46.0
 40
46.0
 40
46.0
 40
47.0
 40
47.0
 40
47.0
 40
48.0
 40
48.0
 40
48.0
 40
49.0
 40
49.0
 40
49.0
 40
50.0
 40
50.0
 40
50.0
 40
51.0
 40
51.0
 40
51.0
 40
52.0
 40
52.0
 40
52.0
 40
53.0
 40
53.0
 40
53.0
 40
54.0
 40
54.0
 40
54.0
 40
55.0
 40
55.0
 40
55.0
 40
56.0
 40
56.0
 40
56.0
 40
57.0
 40
57.0
 40
57.0
 40
58.0
 40
58.0
 40
58.0
 40
59.0
 40
59.0
 40
59.0
 40
60.0
 40
60.0
 40
60.0
 40
61.0
 40
61.0
 40
61.0
 40
62.0
 40
62.0
 40
62.0
 40
63.0
 40
63.0
 40
63.0
 40
63.0
 10
103.2009151945265
 20
149.1927252854009
 30
0.0
 10
103.2041363265257
 20
149.1816770394013
 30
0.0
 10
103.2073574591192
 20
149.1706287929805
 30
0.0
 10
103.2101523113127
 20
149.1594716650915
 30
0.0
 10
103.2134385173531
 20
149.1463530389477
 30
0.0
 10
103.216135381583
 20
149.1330838818349
 30
0.0
 10
103.2184657164189
 20
149.1197520629252
 30
0.0
 10
103.2207162003985
 20
149.106877069851
 30
0.0
 10
103.222624843491
 20
149.0939436357226
 30
0.0
 10
103.2240079861834
 20
149.080956172754
 30
0.0
 10
103.2251856897465
 20
149.0698977465316
 30
0.0
 10
103.22598240552
 20
149.0588001494
 30
0.0
 10
103.2267791215193
 20
149.0477025523999
 30
0.0
 10
103.2253667595186
 20
149.0306334334003
 30
0.0
 10
103.2239543985929
 20
149.0135643138228
 30
0.0
 10
103.2203131398605
 20
148.9968984101541
 30
0.0
 10
103.2169068958979
 20
148.9813081602082
 30
0.0
 10
103.211550185063
 20
148.966070756979
 30
0.0
 10
103.2046100415034
 20
148.9516365377517
 30
0.0
 10
103.1975180503511
 20
148.9368865035232
 30
0.0
 10
103.1887725786962
 20
148.9229751844901
 30
0.0
 10
103.1787461141371
 20
148.9100695119494
 30
0.0
 10
103.1685761160367
 20
148.8969790886556
 30
0.0
 10
103.1570881864862
 20
148.8849233105456
 30
0.0
 10
103.1445687822275
 20
148.8740447567074
 30
0.0
 10
103.1317095969606
 20
148.8628709551152
 30
0.0
 10
103.1177621880352
 20
148.8529391454927
 30
0.0
 10
103.1030017568167
 20
148.8444859836028
 30
0.0
 10
103.0882898159049
 20
148.8360605916614
 30
0.0
 10
103.0727701857356
 20
148.8291041482362
 30
0.0
 10
103.0568161728825
 20
148.823240614887
 30
0.0
 10
103.0402903923541
 20
148.8171669413772
 30
0.0
 10
103.023298535987
 20
148.8122659181597
 30
0.0
 10
103.0060120307432
 20
148.8093849396817
 30
0.0
 10
102.9880576066969
 20
148.8063926454898
 30
0.0
 10
102.9697853245085
 20
148.8055795134115
 30
0.0
 10
102.9515130415084
 20
148.8047663814125
 30
0.0
 10
102.9367141005085
 20
148.8046108924127
 30
0.0
 10
102.9219151595213
 20
148.8044554033586
 30
0.0
 10
102.9071748816562
 20
148.8056900928727
 30
0.0
 10
102.8934444179236
 20
148.8068401973522
 30
0.0
 10
102.8797648549486
 20
148.8091965305343
 30
0.0
 10
102.8665315675987
 20
148.8130797866556
 30
0.0
 10
102.8533979050662
 20
148.8169338082663
 30
0.0
 10
102.840703824015
 20
148.8222918489359
 30
0.0
 10
102.8286593889773
 20
148.8287828846688
 30
0.0
 10
102.8163160240035
 20
148.8354350209349
 30
0.0
 10
102.8046549522448
 20
148.8432770896066
 30
0.0
 10
102.7935583451907
 20
148.8518756768416
 30
0.0
 10
102.7819891089676
 20
148.8608404970267
 30
0.0
 10
102.7710334450569
 20
148.8706276517903
 30
0.0
 10
102.7612284363248
 20
148.8814344506568
 30
0.0
 10
102.7506012165593
 20
148.8931474668958
 30
0.0
 10
102.7413257224275
 20
148.9060583042523
 30
0.0
 10
102.7325933745088
 20
148.9193066289096
 30
0.0
 10
102.7231526945857
 20
148.9336296029555
 30
0.0
 10
102.7143468502161
 20
148.9483470360481
 30
0.0
 10
102.7067294475006
 20
148.9636447894468
 30
0.0
 10
102.6982097218556
 20
148.9807546452356
 30
0.0
 10
102.6911766685174
 20
148.998590448424
 30
0.0
 10
102.6841436145182
 20
149.0164262524239
 30
0.0
 10
102.6841436145182
 20
149.0164262524239
 30
0.0
 10
102.4989845265407
 20
149.5141760464322
 30
0.0
 10
102.4989845265407
 20
149.5141760464322
 30
0.0
 10
102.4989845265407
 20
149.5141760464322
 30
0.0
 10
100.583545684541
 20
149.5141760465182
 30
0.0
 10
100.583545684541
 20
149.5141760465182
 30
0.0
 10
100.583545684541
 20
149.5141760465182
 30
0.0
 10
100.3789760225168
 20
148.9848901585277
 30
0.0
 10
100.3789760225168
 20
148.9848901585277
 30
0.0
 10
100.3723362965167
 20
148.970176323528
 30
0.0
 10
100.3656965696426
 20
148.9554624887076
 30
0.0
 10
100.3577306544446
 20
148.9414757097424
 30
0.0
 10
100.3503837616032
 20
148.92857582772
 30
0.0
 10
100.3419087852456
 20
148.9162943946088
 30
0.0
 10
100.3327904392769
 20
148.9045272423146
 30
0.0
 10
100.3242231610097
 20
148.8934712384649
 30
0.0
 10
100.3150879274403
 20
148.8828692326141
 30
0.0
 10
100.305079088909
 20
148.873121045679
 30
0.0
 10
100.2956673673931
 20
148.8639544255533
 30
0.0
 10
100.2854831683345
 20
148.8555427873322
 30
0.0
 10
100.2745966032873
 20
148.8481808304936
 30
0.0
 10
100.2635112481852
 20
148.8406844433901
 30
0.0
 10
100.2516976423189
 20
148.8342764222964
 30
0.0
 10
100.2394955596784
 20
148.8287828848199
 30
0.0
 10
100.2272256961594
 20
148.8232588315035
 30
0.0
 10
100.2145630280084
 20
148.8186594496814
 30
0.0
 10
100.2016233811725
 20
148.8149272095235
 30
0.0
 10
100.1883122818886
 20
148.811087829676
 30
0.0
 10
100.1747080734727
 20
148.8081660913426
 30
0.0
 10
100.1609800673878
 20
148.806613804462
 30
0.0
 10
100.146295119156
 20
148.8049533118643
 30
0.0
 10
100.1314685125084
 20
148.8048598465389
 30
0.0
 10
100.1166419065089
 20
148.8047663815398
 30
0.0
 10
100.0983775965089
 20
148.80562342954
 30
0.0
 10
100.0801132862491
 20
148.8064804774269
 30
0.0
 10
100.0621429176533
 20
148.8093849401014
 30
0.0
 10
100.0452123770887
 20
148.8121213404637
 30
0.0
 10
100.0285427453824
 20
148.8166750696491
 30
0.0
 10
100.0122624874963
 20
148.8223169032381
 30
0.0
 10
99.99632055767312
 20
148.8278414911026
 30
0.0
 10
99.98075198628976
 20
148.8344094284226
 30
0.0
 10
99.96607690365386
 20
148.8426385601141
 30
0.0
 10
99.95124284955948
 20
148.8509568359072
 30
0.0
 10
99.9373217469367
 20
148.8609724916071
 30
0.0
 10
99.92450987801779
 20
148.8721973337766
 30
0.0
 10
99.9120365397828
 20
148.8831255796007
 30
0.0
 10
99.9006145906759
 20
148.8951999549586
 30
0.0
 10
99.8903325458393
 20
148.9082220892346
 30
0.0
 10
99.8803574972444
 20
148.9208554150242
 30
0.0
 10
99.8714552997087
 20
148.9343807491907
 30
0.0
 10
99.86446861879713
 20
148.9488654029747
 30
0.0
 10
99.85726691294883
 20
148.9637958423635
 30
0.0
 10
99.85210044351876
 20
148.9797455588474
 30
0.0
 10
99.8487655203553
 20
148.9959746985456
 30
0.0
 10
99.84526452422078
 20
149.0130120192207
 30
0.0
 10
99.84378203151863
 20
149.0303572855517
 30
0.0
 10
99.84229953851937
 20
149.0477025525517
 30
0.0
 10
99.84253013652024
 20
149.0591333215517
 30
0.0
 10
99.84276073368883
 20
149.0705640909152
 30
0.0
 10
99.84414696214894
 20
149.0818798846817
 30
0.0
 10
99.84556315577947
 20
149.0934402843709
 30
0.0
 10
99.84818548170044
 20
149.1048806840372
 30
0.0
 10
99.85153665589016
 20
149.1160572164348
 30
0.0
 10
99.8535804517169
 20
149.1228734990187
 30
0.0
 10
99.85589534043854
 20
149.1295916369744
 30
0.0
 10
99.85800263767925
 20
149.1363788731141
 30
0.0
 10
99.86086152277981
 20
149.1455868424075
 30
0.0
 10
99.86333833049346
 20
149.1549219886606
 30
0.0
 10
99.86631604249473
 20
149.1640902239014
 30
0.0
 10
99.869865643797
 20
149.1750192794139
 30
0.0
 10
99.87412702958439
 20
149.1857111545478
 30
0.0
 10
99.87832429426263
 20
149.1964201327034
 30
0.0
 10
99.88361330758309
 20
149.2099146183867
 30
0.0
 10
99.88880050452805
 20
149.2234362615498
 30
0.0
 10
99.89398770152884
 20
149.2369579045498
 30
0.0
 10
99.89398770152884
 20
149.2369579045498
 30
0.0
 10
101.2601969626914
 20
152.8515472354881
 30
0.0
 10
101.2601969626914
 20
152.8515472354881
 30
0.0
 10
101.2672590616919
 20
152.868322615488
 30
0.0
 10
101.2743211611354
 20
152.8850979955196
 30
0.0
 10
101.282366042793
 20
152.9014276660761
 30
0.0
 10
101.2897452285412
 20
152.9164060930271
 30
0.0
 10
101.2979512797537
 20
152.9310095215629
 30
0.0
 10
101.307306258193
 20
152.9448421155814
 30
0.0
 10
101.3159046608671
 20
152.9575560105599
 30
0.0
 10
101.3254736684841
 20
152.9696187104268
 30
0.0
 10
101.335941320018
 20
152.9808668709313
 30
0.0
 10
101.3456087001504
 20
152.9912550886744
 30
0.0
 10
101.3560425706781
 20
153.0009485522595
 30
0.0
 10
101.3673475167643
 20
153.0095019324857
 30
0.0
 10
101.3780517650063
 20
153.0176008216409
 30
0.0
 10
101.3895369775486
 20
153.0246775670867
 30
0.0
 10
101.4015248489903
 20
153.0307473008958
 30
0.0
 10
101.4133793413744
 20
153.0367495018328
 30
0.0
 10
101.4257253695513
 20
153.0417669748327
 30
0.0
 10
101.4384733160318
 20
153.0455266881578
 30
0.0
 10
101.4514155345086
 20
153.0493436975352
 30
0.0
 10
101.4647720146793
 20
153.0518643199433
 30
0.0
 10
101.4781929182532
 20
153.0529163813519
 30
0.0
 10
101.4926148066328
 20
153.0540469097194
 30
0.0
 10
101.5071110867004
 20
153.0534816454768
 30
0.0
 10
101.5216073667001
 20
153.0529163814764
 30
0.0
 10
101.5392156306998
 20
153.0529211434759
 30
0.0
 10
101.5568238940475
 20
153.0529259058935
 30
0.0
 10
101.574258932141
 20
153.0510689577859
 30
0.0
 10
101.5901459785606
 20
153.0493768811395
 30
0.0
 10
101.6058891942348
 20
153.0461390067035
 30
0.0
 10
101.6213682279041
 20
153.0418318412175
 30
0.0
 10
101.6356954907369
 20
153.0378451652213
 30
0.0
 10
101.6497964236344
 20
153.0329424064902
 30
0.0
 10
101.6629352533349
 20
153.0261287426326
 30
0.0
 10
101.6755112650762
 20
153.0196069504617
 30
0.0
 10
101.6872058339669
 20
153.0113344587137
 30
0.0
 10
101.6980362966627
 20
153.0021122392476
 30
0.0
 10
101.709846721152
 20
152.992055575032
 30
0.0
 10
101.7206295929264
 20
152.9808695411825
 30
0.0
 10
101.7303662055267
 20
152.9688586189423
 30
0.0
 10
101.7420915216456
 20
152.9543944653484
 30
0.0
 10
101.7522995337109
 20
152.9387340436303
 30
0.0
 10
101.7617724024424
 20
152.9226730347723
 30
0.0
 10
101.7729145225964
 20
152.9037818524334
 30
0.0
 10
101.7830395872334
 20
152.8843364661156
 30
0.0
 10
101.792254888076
 20
152.8644791994854
 30
0.0
 10
101.8030708002974
 20
152.8411729117722
 30
0.0
 10
101.8126334676892
 20
152.8172992384627
 30
0.0
 10
101.822196135688
 20
152.7934255654628
 30
0.0
 10
101.822196135688
 20
152.7934255654628
 30
0.0
 10
103.2009151945265
 20
149.1927252854009
 30
0.0
 10
103.2009151945265
 20
149.1927252854009
 30
0.0
  0
ENDBLK
  5
5E
330
5B
100
AcDbEntity
  8
0
100
AcDbBlockEnd
  0
BLOCK
  5
62
330
60
100
AcDbEntity
  8
0
100
AcDbBlockBegin
  2
block 7
 70
     0
 10
0.0
 20
0.0
 30
0.0
  3
block 7
  1

  0
SPLINE
  5
64
330
60
100
AcDbEntity
  8
0
 62
     7
420
 16777215
370
     5
100
AcDbSpline
210
0.0
220
0.0
230
1.0
 70
    11
 71
     3
 72
   209
 73
   205
 74
     0
 42
0.0000000001
 43
0.0000000001
 12
1.0
 22
0.0
 32
0.0
 13
1.0
 23
0.0
 33
0.0
 40
0.0
 40
0.0
 40
0.0
 40
0.0
 40
1.0
 40
1.0
 40
1.0
 40
2.0
 40
2.0
 40
2.0
 40
3.0
 40
3.0
 40
3.0
 40
4.0
 40
4.0
 40
4.0
 40
5.0
 40
5.0
 40
5.0
 40
6.0
 40
6.0
 40
6.0
 40
7.0
 40
7.0
 40
7.0
 40
8.0
 40
8.0
 40
8.0
 40
9.0
 40
9.0
 40
9.0
 40
10.0
 40
10.0
 40
10.0
 40
11.0
 40
11.0
 40
11.0
 40
12.0
 40
12.0
 40
12.0
 40
13.0
 40
13.0
 40
13.0
 40
14.0
 40
14.0
 40
14.0
 40
15.0
 40
15.0
 40
15.0
 40
16.0
 40
16.0
 40
16.0
 40
17.0
 40
17.0
 40
17.0
 40
18.0
 40
18.0
 40
18.0
 40
19.0
 40
19.0
 40
19.0
 40
20.0
 40
20.0
 40
20.0
 40
21.0
 40
21.0
 40
21.0
 40
22.0
 40
22.0
 40
22.0
 40
23.0
 40
23.0
 40
23.0
 40
24.0
 40
24.0
 40
24.0
 40
25.0
 40
25.0
 40
25.0
 40
26.0
 40
26.0
 40
26.0
 40
27.0
 40
27.0
 40
27.0
 40
28.0
 40
28.0
 40
28.0
 40
29.0
 40
29.0
 40
29.0
 40
30.0
 40
30.0
 40
30.0
 40
31.0
 40
31.0
 40
31.0
 40
32.0
 40
32.0
 40
32.0
 40
33.0
 40
33.0
 40
33.0
 40
34.0
 40
34.0
 40
34.0
 40
35.0
 40
35.0
 40
35.0
 40
36.0
 40
36.0
 40
36.0
 40
37.0
 40
37.0
 40
37.0
 40
38.0
 40
38.0
 40
38.0
 40
39.0
 40
39.0
 40
39.0
 40
40.0
 40
40.0
 40
40.0
 40
41.0
 40
41.0
 40
41.0
 40
42.0
 40
42.0
 40
42.0
 40
43.0
 40
43.0
 40
43.0
 40
44.0
 40
44.0
 40
44.0
 40
45.0
 40
45.0
 40
45.0
 40
46.0
 40
46.0
 40
46.0
 40
47.0
 40
47.0
 40
47.0
 40
48.0
 40
48.0
 40
48.0
 40
49.0
 40
49.0
 40
49.0
 40
50.0
 40
50.0
 40
50.0
 40
51.0
 40
51.0
 40
51.0
 40
52.0
 40
52.0
 40
52.0
 40
53.0
 40
53.0
 40
53.0
 40
54.0
 40
54.0
 40
54.0
 40
55.0
 40
55.0
 40
55.0
 40
56.0
 40
56.0
 40
56.0
 40
57.0
 40
57.0
 40
57.0
 40
58.0
 40
58.0
 40
58.0
 40
59.0
 40
59.0
 40
59.0
 40
60.0
 40
60.0
 40
60.0
 40
61.0
 40
61.0
 40
61.0
 40
62.0
 40
62.0
 40
62.0
 40
63.0
 40
63.0
 40
63.0
 40
64.0
 40
64.0
 40
64.0
 40
65.0
 40
65.0
 40
65.0
 40
66.0
 40
66.0
 40
66.0
 40
67.0
 40
67.0
 40
67.0
 40
68.0
 40
68.0
 40
68.0
 40
68.0
 10
106.6306566496446
 20
151.8253035632468
 30
0.0
 10
106.6294392376429
 20
151.788308434247
 30
0.0
 10
106.628221826804
 20
151.7513133047254
 30
0.0
 10
106.6251143791602
 20
151.7144581621031
 30
0.0
 10
106.6220892821645
 20
151.6785797197237
 30
0.0
 10
106.6172729969264
 20
151.6428339429558
 30
0.0
 10
106.6112587042876
 20
151.6073076073702
 30
0.0
 10
106.6053795715566
 20
151.5725796593167
 30
0.0
 10
106.5983556723061
 20
151.5380614002165
 30
0.0
 10
106.5900133353465
 20
151.5038518996267
 30
0.0
 10
106.5818151867456
 20
151.470233673609
 30
0.0
 10
106.572343782139
 20
151.4369136252178
 30
0.0
 10
106.5613782737083
 20
151.4040910388179
 30
0.0
 10
106.55050390801
 20
151.3715412660536
 30
0.0
 10
106.538160172546
 20
151.3394807200736
 30
0.0
 10
106.5244298064237
 20
151.308025024523
 30
0.0
 10
106.5107077366928
 20
151.2765883356577
 30
0.0
 10
106.4956007115023
 20
151.2457557664975
 30
0.0
 10
106.479167934344
 20
151.2156538568294
 30
0.0
 10
106.4628195185375
 20
151.1857064820732
 30
0.0
 10
106.4451589279141
 20
151.1564822840567
 30
0.0
 10
106.4265163683788
 20
151.1279012472197
 30
0.0
 10
106.4075612643519
 20
151.0988410462638
 30
0.0
 10
106.3875909897867
 20
151.0704457525907
 30
0.0
 10
106.3664751096118
 20
151.0429197735546
 30
0.0
 10
106.3454501188765
 20
151.0155122750533
 30
0.0
 10
106.3232893634059
 20
150.9889666236837
 30
0.0
 10
106.2999678688902
 20
150.9634805691597
 30
0.0
 10
106.2770314476033
 20
150.9384153280335
 30
0.0
 10
106.2529723019413
 20
150.9143749815311
 30
0.0
 10
106.2279183579568
 20
150.8914310583371
 30
0.0
 10
106.2032576814778
 20
150.8688472820097
 30
0.0
 10
106.1776331919281
 20
150.8473257783983
 30
0.0
 10
106.151250288717
 20
150.8267712407397
 30
0.0
 10
106.1249525643117
 20
150.8062830646551
 30
0.0
 10
106.097901315508
 20
150.7867556207858
 30
0.0
 10
106.069963661727
 20
150.7685774053562
 30
0.0
 10
106.0418500583149
 20
150.75028470464
 30
0.0
 10
106.0128388497196
 20
150.7333582805949
 30
0.0
 10
105.983134763815
 20
150.717773262916
 30
0.0
 10
105.952998071404
 20
150.7019612670331
 30
0.0
 10
105.9221481727671
 20
150.6875300341783
 30
0.0
 10
105.8907635962135
 20
150.6743588142869
 30
0.0
 10
105.8589488201012
 20
150.6610070517977
 30
0.0
 10
105.8265846075704
 20
150.6489500819099
 30
0.0
 10
105.7937738698153
 20
150.6383340587451
 30
0.0
 10
105.7602158396215
 20
150.6274762466302
 30
0.0
 10
105.7261907125901
 20
150.6181257662875
 30
0.0
 10
105.6921655855894
 20
150.6087752852892
 30
0.0
 10
105.6642246685892
 20
150.6030434072901
 30
0.0
 10
105.6362837515312
 20
150.5973115288373
 30
0.0
 10
105.6081078232449
 20
150.593072187132
 30
0.0
 10
105.5790338586884
 20
150.588697727159
 30
0.0
 10
105.5497096633938
 20
150.5859124617816
 30
0.0
 10
105.5203552143362
 20
150.5838350704196
 30
0.0
 10
105.486824682745
 20
150.5814621409689
 30
0.0
 10
105.4532546770392
 20
150.5800128222718
 30
0.0
 10
105.4196706410652
 20
150.5792165117506
 30
0.0
 10
105.3769160251916
 20
150.5782027577613
 30
0.0
 10
105.3341386705887
 20
150.5782473283054
 30
0.0
 10
105.2913613165889
 20
150.5782918983072
 30
0.0
 10
105.2913613165889
 20
150.5782918983072
 30
0.0
 10
104.3851135635881
 20
150.5782918983477
 30
0.0
 10
104.3851135635881
 20
150.5782918983477
 30
0.0
 10
104.3851135635881
 20
150.5782918983477
 30
0.0
 10
104.3851135635239
 20
149.1363788733474
 30
0.0
 10
104.3851135635239
 20
149.1363788733474
 30
0.0
 10
104.3843717775225
 20
149.108349510348
 30
0.0
 10
104.3836299915834
 20
149.0803201479932
 30
0.0
 10
104.3814187166985
 20
149.0523211105441
 30
0.0
 10
104.3795544941716
 20
149.0287164304103
 30
0.0
 10
104.3766458488059
 20
149.0051333033636
 30
0.0
 10
104.3712578882143
 20
148.9821190229557
 30
0.0
 10
104.366598508123
 20
148.9622168209761
 30
0.0
 10
104.3600850021939
 20
148.9427400240595
 30
0.0
 10
104.3518599432109
 20
148.9239251877618
 30
0.0
 10
104.3448699871175
 20
148.9079356514076
 30
0.0
 10
104.3366439093564
 20
148.8924241977292
 30
0.0
 10
104.3259960165133
 20
148.8786633151271
 30
0.0
 10
104.3161199448174
 20
148.8658999012591
 30
0.0
 10
104.3041604278173
 20
148.8546424731777
 30
0.0
 10
104.2908949724244
 20
148.84540969504
 30
0.0
 10
104.276954376462
 20
148.8357070179875
 30
0.0
 10
104.2615715288533
 20
148.8282403229156
 30
0.0
 10
104.2456331007333
 20
148.8223169031717
 30
0.0
 10
104.2279945159455
 20
148.8157616305556
 30
0.0
 10
104.2096755010825
 20
148.8110964367399
 30
0.0
 10
104.1911341113955
 20
148.8084612279895
 30
0.0
 10
104.1694752285666
 20
148.8053829432155
 30
0.0
 10
104.1475129055087
 20
148.8050746623584
 30
0.0
 10
104.1255505825086
 20
148.8047663813595
 30
0.0
 10
104.105163191509
 20
148.8052765873606
 30
0.0
 10
104.0847757998368
 20
148.805786792898
 30
0.0
 10
104.0645856120391
 20
148.8084612278525
 30
0.0
 10
104.046366580684
 20
148.8108745592583
 30
0.0
 10
104.0283081270506
 20
148.8150501634927
 30
0.0
 10
104.0110103347526
 20
148.8213931914191
 30
0.0
 10
103.9950625583068
 20
148.8272411741909
 30
0.0
 10
103.9797613439899
 20
148.8349314670857
 30
0.0
 10
103.9657484625947
 20
148.8444859832422
 30
0.0
 10
103.9522089755453
 20
148.8537177211065
 30
0.0
 10
103.9398722447802
 20
148.8646898524715
 30
0.0
 10
103.928799995473
 20
148.8768158922297
 30
0.0
 10
103.9174662753529
 20
148.8892282880297
 30
0.0
 10
103.9074574632278
 20
148.9028497347384
 30
0.0
 10
103.8992412220235
 20
148.9174592056066
 30
0.0
 10
103.8902382471318
 20
148.9334675841492
 30
0.0
 10
103.8833875685641
 20
148.9506622592794
 30
0.0
 10
103.8779958533369
 20
148.9682633478813
 30
0.0
 10
103.8718938932929
 20
148.9881830088522
 30
0.0
 10
103.8676605885898
 20
149.0086232084027
 30
0.0
 10
103.8650638897863
 20
149.0292283184406
 30
0.0
 10
103.8621529109936
 20
149.0523272771107
 30
0.0
 10
103.8612986705211
 20
149.0756334803712
 30
0.0
 10
103.8604444295224
 20
149.0989396843712
 30
0.0
 10
103.8604444295224
 20
149.0989396843712
 30
0.0
 10
103.8595216196824
 20
152.6677286123715
 30
0.0
 10
103.8595216196824
 20
152.6677286123715
 30
0.0
 10
103.8590671746837
 20
152.7022542183715
 30
0.0
 10
103.8586127288547
 20
152.7367798241507
 30
0.0
 10
103.8613690431631
 20
152.771184319943
 30
0.0
 10
103.863691023003
 20
152.8001674244444
 30
0.0
 10
103.868291598539
 20
152.8290645802352
 30
0.0
 10
103.8761484302136
 20
152.85708950573
 30
0.0
 10
103.8827966388975
 20
152.8808033334869
 30
0.0
 10
103.891776334312
 20
152.903892642387
 30
0.0
 10
103.9038597802212
 20
152.9254441699969
 30
0.0
 10
103.9145441578026
 20
152.9445003779837
 30
0.0
 10
103.9276551658834
 20
152.9623542899139
 30
0.0
 10
103.9435793825614
 20
152.977172023769
 30
0.0
 10
103.9600315123014
 20
152.9924809890245
 30
0.0
 10
103.9794864670943
 20
153.004549131114
 30
0.0
 10
103.9999257948489
 20
153.0141204909469
 30
0.0
 10
104.0241157766544
 20
153.0254482128256
 30
0.0
 10
104.0496845466141
 20
153.0332787502657
 30
0.0
 10
104.0756701526493
 20
153.039060706113
 30
0.0
 10
104.1066600559274
 20
153.045956148621
 30
0.0
 10
104.138242802674
 20
153.0499380040134
 30
0.0
 10
104.1698887436859
 20
153.0519926694098
 30
0.0
 10
104.2078635301442
 20
153.0544582456313
 30
0.0
 10
104.2459293147002
 20
153.0541487183541
 30
0.0
 10
104.2839950986999
 20
153.0538391913524
 30
0.0
 10
104.2839950986999
 20
153.0538391913524
 30
0.0
 10
105.3236046267
 20
153.0529163813057
 30
0.0
 10
105.3236046267
 20
153.0529163813057
 30
0.0
 10
105.3747341126997
 20
153.0523472623032
 30
0.0
 10
105.425863598032
 20
153.0517781437624
 30
0.0
 10
105.4769407656199
 20
153.0492215342362
 30
0.0
 10
105.52019065693
 20
153.0470567101208
 30
0.0
 10
105.5634030366543
 20
153.0434668639172
 30
0.0
 10
105.6062604001248
 20
153.0372132825726
 30
0.0
 10
105.6457745242075
 20
153.0314475338379
 30
0.0
 10
105.6849868602299
 20
153.0234174283174
 30
0.0
 10
105.7235717831494
 20
153.0131967791407
 30
0.0
 10
105.763114884972
 20
153.0027223207127
 30
0.0
 10
105.8019990256968
 20
152.989947172284
 30
0.0
 10
105.8408831656965
 20
152.9771720232826
 30
0.0
 10
105.8706830196956
 20
152.9657074272811
 30
0.0
 10
105.900482872883
 20
152.9542428306597
 30
0.0
 10
105.9295594868936
 20
152.9411472684332
 30
0.0
 10
105.9581720247575
 20
152.9282607174087
 30
0.0
 10
105.9860842256693
 20
152.9137948472365
 30
0.0
 10
106.0136172491906
 20
152.8986565310973
 30
0.0
 10
106.0406154443352
 20
152.8838122764154
 30
0.0
 10
106.067249050039
 20
152.8683214465286
 30
0.0
 10
106.0930564541013
 20
152.8515472356149
 30
0.0
 10
106.118410695714
 20
152.8350675697282
 30
0.0
 10
106.1429674961458
 20
152.8173491978997
 30
0.0
 10
106.1669533876998
 20
152.7988956699866
 30
0.0
 10
106.1910583043444
 20
152.7803505702075
 30
0.0
 10
106.2145866320152
 20
152.7610630001163
 30
0.0
 10
106.2371554744786
 20
152.7407018349602
 30
0.0
 10
106.2596268371694
 20
152.7204286141357
 30
0.0
 10
106.2811469852063
 20
152.6990910524024
 30
0.0
 10
106.3018152924659
 20
152.6769657286135
 30
0.0
 10
106.3223881779566
 20
152.6549425533698
 30
0.0
 10
106.342117070098
 20
152.6321388731855
 30
0.0
 10
106.3609328398313
 20
152.6086110648007
 30
0.0
 10
106.3803188694994
 20
152.5843701861209
 30
0.0
 10
106.3987355890012
 20
152.5593606209876
 30
0.0
 10
106.4163555402841
 20
152.53379041885
 30
0.0
 10
106.433958142269
 20
152.5082453941406
 30
0.0
 10
106.4507655443206
 20
152.4821408359338
 30
0.0
 10
106.4662359710174
 20
152.4552749260614
 30
0.0
 10
106.4814905544796
 20
152.4287838490868
 30
0.0
 10
106.4954452092659
 20
152.4015525169839
 30
0.0
 10
106.5087267077008
 20
152.3739882992325
 30
0.0
 10
106.5220223422784
 20
152.3463947435453
 30
0.0
 10
106.5346433867958
 20
152.31846759322
 30
0.0
 10
106.5456751750175
 20
152.2899305367562
 30
0.0
 10
106.556800351007
 20
152.2611519045908
 30
0.0
 10
106.5663092496432
 20
152.2317529964618
 30
0.0
 10
106.5752339484378
 20
152.202177927381
 30
0.0
 10
106.5841746191164
 20
152.172549929954
 30
0.0
 10
106.5925289970836
 20
152.1427451404849
 30
0.0
 10
106.5992504520731
 20
152.1125778943133
 30
0.0
 10
106.6061169674292
 20
152.0817595879458
 30
0.0
 10
106.6112793167619
 20
152.0505630111963
 30
0.0
 10
106.61587726251
 20
152.0192830145101
 30
0.0
 10
106.6205247433235
 20
151.9876660289167
 30
0.0
 10
106.6245955940616
 20
151.9559638162877
 30
0.0
 10
106.626961802653
 20
151.9241407130846
 30
0.0
 10
106.6294050939106
 20
151.8912809262839
 30
0.0
 10
106.630030871646
 20
151.8582922442469
 30
0.0
 10
106.6306566496446
 20
151.8253035632468
 30
0.0
  0
ENDBLK
  5
63
330
60
100
AcDbEntity
  8
0
100
AcDbBlockEnd
  0
BLOCK
  5
67
330
65
100
AcDbEntity
  8
0
100
AcDbBlockBegin
  2
block 8
 70
     0
 10
0.0
 20
0.0
 30
0.0
  3
block 8
  1

  0
SPLINE
  5
69
330
65
100
AcDbEntity
  8
0
 62
     7
420
 16777215
370
     5
100
AcDbSpline
210
0.0
220
0.0
230
1.0
 70
    11
 71
     3
 72
   224
 73
   220
 74
     0
 42
0.0000000001
 43
0.0000000001
 12
1.0
 22
0.0
 32
0.0
 13
1.0
 23
0.0
 33
0.0
 40
0.0
 40
0.0
 40
0.0
 40
0.0
 40
1.0
 40
1.0
 40
1.0
 40
2.0
 40
2.0
 40
2.0
 40
3.0
 40
3.0
 40
3.0
 40
4.0
 40
4.0
 40
4.0
 40
5.0
 40
5.0
 40
5.0
 40
6.0
 40
6.0
 40
6.0
 40
7.0
 40
7.0
 40
7.0
 40
8.0
 40
8.0
 40
8.0
 40
9.0
 40
9.0
 40
9.0
 40
10.0
 40
10.0
 40
10.0
 40
11.0
 40
11.0
 40
11.0
 40
12.0
 40
12.0
 40
12.0
 40
13.0
 40
13.0
 40
13.0
 40
14.0
 40
14.0
 40
14.0
 40
15.0
 40
15.0
 40
15.0
 40
16.0
 40
16.0
 40
16.0
 40
17.0
 40
17.0
 40
17.0
 40
18.0
 40
18.0
 40
18.0
 40
19.0
 40
19.0
 40
19.0
 40
20.0
 40
20.0
 40
20.0
 40
21.0
 40
21.0
 40
21.0
 40
22.0
 40
22.0
 40
22.0
 40
23.0
 40
23.0
 40
23.0
 40
24.0
 40
24.0
 40
24.0
 40
25.0
 40
25.0
 40
25.0
 40
26.0
 40
26.0
 40
26.0
 40
27.0
 40
27.0
 40
27.0
 40
28.0
 40
28.0
 40
28.0
 40
29.0
 40
29.0
 40
29.0
 40
30.0
 40
30.0
 40
30.0
 40
31.0
 40
31.0
 40
31.0
 40
32.0
 40
32.0
 40
32.0
 40
33.0
 40
33.0
 40
33.0
 40
34.0
 40
34.0
 40
34.0
 40
35.0
 40
35.0
 40
35.0
 40
36.0
 40
36.0
 40
36.0
 40
37.0
 40
37.0
 40
37.0
 40
38.0
 40
38.0
 40
38.0
 40
39.0
 40
39.0
 40
39.0
 40
40.0
 40
40.0
 40
40.0
 40
41.0
 40
41.0
 40
41.0
 40
42.0
 40
42.0
 40
42.0
 40
43.0
 40
43.0
 40
43.0
 40
44.0
 40
44.0
 40
44.0
 40
45.0
 40
45.0
 40
45.0
 40
46.0
 40
46.0
 40
46.0
 40
47.0
 40
47.0
 40
47.0
 40
48.0
 40
48.0
 40
48.0
 40
49.0
 40
49.0
 40
49.0
 40
50.0
 40
50.0
 40
50.0
 40
51.0
 40
51.0
 40
51.0
 40
52.0
 40
52.0
 40
52.0
 40
53.0
 40
53.0
 40
53.0
 40
54.0
 40
54.0
 40
54.0
 40
55.0
 40
55.0
 40
55.0
 40
56.0
 40
56.0
 40
56.0
 40
57.0
 40
57.0
 40
57.0
 40
58.0
 40
58.0
 40
58.0
 40
59.0
 40
59.0
 40
59.0
 40
60.0
 40
60.0
 40
60.0
 40
61.0
 40
61.0
 40
61.0
 40
62.0
 40
62.0
 40
62.0
 40
63.0
 40
63.0
 40
63.0
 40
64.0
 40
64.0
 40
64.0
 40
65.0
 40
65.0
 40
65.0
 40
66.0
 40
66.0
 40
66.0
 40
67.0
 40
67.0
 40
67.0
 40
68.0
 40
68.0
 40
68.0
 40
69.0
 40
69.0
 40
69.0
 40
70.0
 40
70.0
 40
70.0
 40
71.0
 40
71.0
 40
71.0
 40
72.0
 40
72.0
 40
72.0
 40
73.0
 40
73.0
 40
73.0
 40
73.0
 10
107.6735262303129
 20
144.3527126872003
 30
0.0
 10
107.6735262303129
 20
144.3527126872003
 30
0.0
 10
107.672603420469
 20
147.9123222301999
 30
0.0
 10
107.672603420469
 20
147.9123222301999
 30
0.0
 10
107.6722643204703
 20
147.9419383792
 30
0.0
 10
107.6719252209137
 20
147.9715545280139
 30
0.0
 10
107.6744508436397
 20
148.0009985512994
 30
0.0
 10
107.6766129645444
 20
148.0262048252331
 30
0.0
 10
107.680874535392
 20
148.0512849546767
 30
0.0
 10
107.6873828069612
 20
148.0758191973891
 30
0.0
 10
107.6929706857679
 20
148.0968838338972
 30
0.0
 10
107.7002147457671
 20
148.117546063742
 30
0.0
 10
107.7104755990641
 20
148.1367841683918
 30
0.0
 10
107.7195188497509
 20
148.1537393862515
 30
0.0
 10
107.7309053996035
 20
148.169588412517
 30
0.0
 10
107.7446529311482
 20
148.1829697520577
 30
0.0
 10
107.7584501185434
 20
148.1963994247706
 30
0.0
 10
107.7746253740857
 20
148.2073435520786
 30
0.0
 10
107.7917622261304
 20
148.2162233721728
 30
0.0
 10
107.8113933972195
 20
148.226395676108
 30
0.0
 10
107.8322864632427
 20
148.2338590071953
 30
0.0
 10
107.8536509083761
 20
148.2393161638226
 30
0.0
 10
107.8784545471271
 20
148.2456517995372
 30
0.0
 10
107.9038935429834
 20
148.2492833756724
 30
0.0
 10
107.9293952662048
 20
148.2513244156527
 30
0.0
 10
107.9599425337499
 20
148.2537692776644
 30
0.0
 10
107.9905798054845
 20
148.2539319631858
 30
0.0
 10
108.0212170774847
 20
148.2540946491846
 30
0.0
 10
108.0212170774847
 20
148.2540946491846
 30
0.0
 10
110.2285136284846
 20
148.2531718390856
 30
0.0
 10
110.2285136284846
 20
148.2531718390856
 30
0.0
 10
110.2544485304848
 20
148.2530825070843
 30
0.0
 10
110.2803834322885
 20
148.2529931749806
 30
0.0
 10
110.3061054093557
 20
148.250400703707
 30
0.0
 10
110.3284950377643
 20
148.2481440937921
 30
0.0
 10
110.3507233376339
 20
148.2439909086456
 30
0.0
 10
110.37261265049
 20
148.2383924517607
 30
0.0
 10
110.3919138607602
 20
148.2334559334591
 30
0.0
 10
110.4109515059403
 20
148.22739570492
 30
0.0
 10
110.428959062327
 20
148.2189945065933
 30
0.0
 10
110.4453802493855
 20
148.2113334088696
 30
0.0
 10
110.4609448440938
 20
148.2017256276864
 30
0.0
 10
110.4751446463465
 20
148.1903594446699
 30
0.0
 10
110.4882876261643
 20
148.1798391915475
 30
0.0
 10
110.5002614035715
 20
148.1678125352691
 30
0.0
 10
110.5102456903244
 20
148.1543346899306
 30
0.0
 10
110.5205040251625
 20
148.1404869055254
 30
0.0
 10
110.5286621556524
 20
148.1251071744558
 30
0.0
 10
110.5351859056294
 20
148.1090728173453
 30
0.0
 10
110.5420894027409
 20
148.0921051011725
 30
0.0
 10
110.5471627070055
 20
148.0744043293329
 30
0.0
 10
110.5499652922821
 20
148.0564212517677
 30
0.0
 10
110.5531426215629
 20
148.0360335906423
 30
0.0
 10
110.5534013804735
 20
148.0152830800712
 30
0.0
 10
110.5536601384722
 20
147.9945325690714
 30
0.0
 10
110.5534559924711
 20
147.9731633870709
 30
0.0
 10
110.5532518463839
 20
147.9517942050717
 30
0.0
 10
110.5499652922629
 20
147.9307964639507
 30
0.0
 10
110.5470456217479
 20
147.9121427362545
 30
0.0
 10
110.5416933202205
 20
147.8937821490489
 30
0.0
 10
110.5342621941663
 20
147.8762974753236
 30
0.0
 10
110.5272666388747
 20
147.859837654709
 30
0.0
 10
110.5184288149297
 20
147.8441540746716
 30
0.0
 10
110.5074745554293
 20
147.8301118911039
 30
0.0
 10
110.4966191037332
 20
147.816196368522
 30
0.0
 10
110.483685224931
 20
147.8038927650495
 30
0.0
 10
110.4696023765102
 20
147.793163424054
 30
0.0
 10
110.4541699044185
 20
147.7814058413162
 30
0.0
 10
110.437357688258
 20
147.7715387170212
 30
0.0
 10
110.4197219460849
 20
147.7636046506806
 30
0.0
 10
110.4001754771803
 20
147.7548109759087
 30
0.0
 10
110.3796173671744
 20
147.748391920577
 30
0.0
 10
110.3587569752856
 20
147.7432829936686
 30
0.0
 10
110.3350462960014
 20
147.737476001737
 30
0.0
 10
110.3109450860119
 20
147.7333616199353
 30
0.0
 10
110.2867074642053
 20
147.7312747418635
 30
0.0
 10
110.2589315248235
 20
147.7288832118992
 30
0.0
 10
110.2309764384603
 20
147.7291543630847
 30
0.0
 10
110.2030213514606
 20
147.7294255140868
 30
0.0
 10
110.2030213514606
 20
147.7294255140868
 30
0.0
 10
108.1981953644606
 20
147.7294255141766
 30
0.0
 10
108.1981953644606
 20
147.7294255141766
 30
0.0
 10
108.1981953644606
 20
147.7294255141766
 30
0.0
 10
108.1981953644125
 20
146.6579217741767
 30
0.0
 10
108.1981953644125
 20
146.6579217741767
 30
0.0
 10
108.1981953644125
 20
146.6579217741767
 30
0.0
 10
109.6659732174123
 20
146.6579217741112
 30
0.0
 10
109.6659732174123
 20
146.6579217741112
 30
0.0
 10
109.6918941044128
 20
146.6577948441097
 30
0.0
 10
109.7178149902628
 20
146.6576679140504
 30
0.0
 10
109.7435649983559
 20
146.6551506386855
 30
0.0
 10
109.7659790264034
 20
146.6529594828449
 30
0.0
 10
109.7882635840124
 20
146.6489572132655
 30
0.0
 10
109.810072239494
 20
146.6431423870908
 30
0.0
 10
109.8294014123145
 20
146.6379886635998
 30
0.0
 10
109.8483567445893
 20
146.6314111029263
 30
0.0
 10
109.8664186515473
 20
146.622820729885
 30
0.0
 10
109.8828049703779
 20
146.6150272786263
 30
0.0
 10
109.8984559396173
 20
146.6055771463646
 30
0.0
 10
109.9126042357581
 20
146.5941856678816
 30
0.0
 10
109.9262128530751
 20
146.5832287109583
 30
0.0
 10
109.9384312481511
 20
146.5704756862866
 30
0.0
 10
109.9486289909828
 20
146.5563134894066
 30
0.0
 10
109.9588696385496
 20
146.5420917082334
 30
0.0
 10
109.9670725952141
 20
146.5264488723528
 30
0.0
 10
109.9735692058906
 20
146.5101279055949
 30
0.0
 10
109.9805581950399
 20
146.4925699718868
 30
0.0
 10
109.985572388616
 20
146.474227220878
 30
0.0
 10
109.9883485927557
 20
146.4556289165558
 30
0.0
 10
109.9914874203874
 20
146.4346013304822
 30
0.0
 10
109.9917654304013
 20
146.4132470710966
 30
0.0
 10
109.9920434394001
 20
146.3918928110963
 30
0.0
 10
109.9921153413996
 20
146.3708648620957
 30
0.0
 10
109.9921872428124
 20
146.3498369132234
 30
0.0
 10
109.9892723042734
 20
146.3290804171609
 30
0.0
 10
109.9866956714226
 20
146.3107329052252
 30
0.0
 10
109.9817852676364
 20
146.2925974932645
 30
0.0
 10
109.9744929173429
 20
146.2755051394162
 30
0.0
 10
109.9675917947841
 20
146.2593297742768
 30
0.0
 10
109.9585574483259
 20
146.2440885512279
 30
0.0
 10
109.9477052790897
 20
146.2302432673789
 30
0.0
 10
109.9367880311973
 20
146.2163149556634
 30
0.0
 10
109.9240310927916
 20
146.2037993757763
 30
0.0
 10
109.9098331004067
 20
146.1932948002046
 30
0.0
 10
109.8945212385962
 20
146.1819661133587
 30
0.0
 10
109.8775333445282
 20
146.1729763452156
 30
0.0
 10
109.8599526700566
 20
146.1655834501515
 30
0.0
 10
109.8402413272173
 20
146.1572945822029
 30
0.0
 10
109.8197848146624
 20
146.1510131042627
 30
0.0
 10
109.798987699342
 20
146.1461855048214
 30
0.0
 10
109.7749939182145
 20
146.1406158687182
 30
0.0
 10
109.7505467810985
 20
146.1369814034033
 30
0.0
 10
109.7260144767575
 20
146.1351009649921
 30
0.0
 10
109.6978044922564
 20
146.1329386268082
 30
0.0
 10
109.6694818913886
 20
146.1330956331115
 30
0.0
 10
109.641159291389
 20
146.1332526391119
 30
0.0
 10
109.641159291389
 20
146.1332526391119
 30
0.0
 10
108.1981953643894
 20
146.133252639176
 30
0.0
 10
108.1981953643894
 20
146.133252639176
 30
0.0
 10
108.1981953643894
 20
146.133252639176
 30
0.0
 10
108.1981953643175
 20
144.5296900711767
 30
0.0
 10
108.1981953643175
 20
144.5296900711767
 30
0.0
 10
108.1981953643175
 20
144.5296900711767
 30
0.0
 10
110.2340558983171
 20
144.5296900710856
 30
0.0
 10
110.2340558983171
 20
144.5296900710856
 30
0.0
 10
110.2565317833164
 20
144.529393349084
 30
0.0
 10
110.2790076675559
 20
144.5290966271684
 30
0.0
 10
110.3014868508676
 20
144.5287663593035
 30
0.0
 10
110.3159714884122
 20
144.5285535486225
 30
0.0
 10
110.3304574957217
 20
144.5283268097637
 30
0.0
 10
110.3449012997271
 20
144.5269189363734
 30
0.0
 10
110.3555018645664
 20
144.5258856730345
 30
0.0
 10
110.3660796972146
 20
144.5242162089016
 30
0.0
 10
110.3763074968417
 20
144.5213766664357
 30
0.0
 10
110.3867097069528
 20
144.518488702414
 30
0.0
 10
110.3967498443165
 20
144.5143904140777
 30
0.0
 10
110.4067899823162
 20
144.5102921260777
 30
0.0
 10
110.4317568063155
 20
144.4988385250765
 30
0.0
 10
110.4567236303206
 20
144.4873849234926
 30
0.0
 10
110.4788394930577
 20
144.4714962353046
 30
0.0
 10
110.4991407837126
 20
144.456911189228
 30
0.0
 10
110.5170397544406
 20
144.4385889836731
 30
0.0
 10
110.5314910584851
 20
144.4179209579321
 30
0.0
 10
110.5462750669437
 20
144.3967771036197
 30
0.0
 10
110.5574508338797
 20
144.3731781727061
 30
0.0
 10
110.5647446787712
 20
144.3486425824437
 30
0.0
 10
110.572931783432
 20
144.321102177022
 30
0.0
 10
110.5762279243064
 20
144.2923816430693
 30
0.0
 10
110.5795240653052
 20
144.2636611080694
 30
0.0
 10
110.5796761873041
 20
144.24261384507
 30
0.0
 10
110.5798283096533
 20
144.2215665819973
 30
0.0
 10
110.5767529308279
 20
144.200848714315
 30
0.0
 10
110.5740221156629
 20
144.1824520645102
 30
0.0
 10
110.5687464997625
 20
144.1643151344051
 30
0.0
 10
110.5610498321999
 20
144.1472734370464
 30
0.0
 10
110.5536660861855
 20
144.1309245998477
 30
0.0
 10
110.5440541507997
 20
144.1155837485605
 30
0.0
 10
110.5324147703493
 20
144.1020115648051
 30
0.0
 10
110.5206120885878
 20
144.0882489623758
 30
0.0
 10
110.5067246722853
 20
144.0763050046831
 30
0.0
 10
110.4917714563195
 20
144.0659868098197
 30
0.0
 10
110.4750460001568
 20
144.0544457128246
 30
0.0
 10
110.4569871382866
 20
144.0449385829164
 30
0.0
 10
110.4381961789521
 20
144.0373517477458
 30
0.0
 10
110.4170405757586
 20
144.0288101894614
 30
0.0
 10
110.39495702845
 20
144.0227026325081
 30
0.0
 10
110.3726126501909
 20
144.0179538021141
 30
0.0
 10
110.3467064906101
 20
144.0124479895757
 30
0.0
 10
110.3204497175195
 20
144.0087686009658
 30
0.0
 10
110.294097157745
 20
144.0068692620974
 30
0.0
 10
110.263822833948
 20
144.0046872653441
 30
0.0
 10
110.2334220922933
 20
144.0048545520856
 30
0.0
 10
110.2030213512938
 20
144.0050218390865
 30
0.0
 10
110.2030213512938
 20
144.0050218390865
 30
0.0
 10
108.0079107582933
 20
144.0050218391853
 30
0.0
 10
108.0079107582933
 20
144.0050218391853
 30
0.0
 10
107.9783212332934
 20
144.004828790187
 30
0.0
 10
107.9487317089313
 20
144.00463574215
 30
0.0
 10
107.919234437419
 20
144.0068692625852
 30
0.0
 10
107.894033081137
 20
144.0087774982064
 30
0.0
 10
107.8688990634302
 20
144.0124569708738
 30
0.0
 10
107.8444137919454
 20
144.0188775140617
 30
0.0
 10
107.8236279191094
 20
144.0243279986248
 30
0.0
 10
107.8033095677067
 20
144.0317538460884
 30
0.0
 10
107.7843725327954
 20
144.0419703063147
 30
0.0
 10
107.7674587608238
 20
144.0510952236756
 30
0.0
 10
107.7516469091404
 20
144.062446301978
 30
0.0
 10
107.738186948804
 20
144.0761476382917
 30
0.0
 10
107.7246783713021
 20
144.0898984636198
 30
0.0
 10
107.7135387058189
 20
144.1060165558121
 30
0.0
 10
107.7049333288542
 20
144.1232569336505
 30
0.0
 10
107.6951683787994
 20
144.1428204494827
 30
0.0
 10
107.6886667235457
 20
144.1638290844819
 30
0.0
 10
107.6836879602244
 20
144.1851456164468
 30
0.0
 10
107.6778632906445
 20
144.2100838887141
 30
0.0
 10
107.6741229617717
 20
144.2354435711692
 30
0.0
 10
107.6726034202283
 20
144.2608899736589
 30
0.0
 10
107.6707806452458
 20
144.291414355215
 30
0.0
 10
107.6721534373077
 20
144.3220635212006
 30
0.0
 10
107.6735262303129
 20
144.3527126872003
 30
0.0
  0
ENDBLK
  5
68
330
65
100
AcDbEntity
  8
0
100
AcDbBlockEnd
  0
BLOCK
  5
6C
330
6A
100
AcDbEntity
  8
0
100
AcDbBlockBegin
  2
block 9
 70
     0
 10
0.0
 20
0.0
 30
0.0
  3
block 9
  1

  0
SPLINE
  5
6E
330
6A
100
AcDbEntity
  8
0
 62
     7
420
 16777215
370
     5
100
AcDbSpline
210
0.0
220
0.0
230
1.0
 70
    11
 71
     3
 72
   107
 73
   103
 74
     0
 42
0.0000000001
 43
0.0000000001
 12
1.0
 22
0.0
 32
0.0
 13
1.0
 23
0.0
 33
0.0
 40
0.0
 40
0.0
 40
0.0
 40
0.0
 40
1.0
 40
1.0
 40
1.0
 40
2.0
 40
2.0
 40
2.0
 40
3.0
 40
3.0
 40
3.0
 40
4.0
 40
4.0
 40
4.0
 40
5.0
 40
5.0
 40
5.0
 40
6.0
 40
6.0
 40
6.0
 40
7.0
 40
7.0
 40
7.0
 40
8.0
 40
8.0
 40
8.0
 40
9.0
 40
9.0
 40
9.0
 40
10.0
 40
10.0
 40
10.0
 40
11.0
 40
11.0
 40
11.0
 40
12.0
 40
12.0
 40
12.0
 40
13.0
 40
13.0
 40
13.0
 40
14.0
 40
14.0
 40
14.0
 40
15.0
 40
15.0
 40
15.0
 40
16.0
 40
16.0
 40
16.0
 40
17.0
 40
17.0
 40
17.0
 40
18.0
 40
18.0
 40
18.0
 40
19.0
 40
19.0
 40
19.0
 40
20.0
 40
20.0
 40
20.0
 40
21.0
 40
21.0
 40
21.0
 40
22.0
 40
22.0
 40
22.0
 40
23.0
 40
23.0
 40
23.0
 40
24.0
 40
24.0
 40
24.0
 40
25.0
 40
25.0
 40
25.0
 40
26.0
 40
26.0
 40
26.0
 40
27.0
 40
27.0
 40
27.0
 40
28.0
 40
28.0
 40
28.0
 40
29.0
 40
29.0
 40
29.0
 40
30.0
 40
30.0
 40
30.0
 40
31.0
 40
31.0
 40
31.0
 40
32.0
 40
32.0
 40
32.0
 40
33.0
 40
33.0
 40
33.0
 40
34.0
 40
34.0
 40
34.0
 40
34.0
 10
103.0919172164792
 20
148.1478687084059
 30
0.0
 10
103.1057359324806
 20
148.1636675474049
 30
0.0
 10
103.1195546486713
 20
148.1794663858203
 30
0.0
 10
103.1353316652231
 20
148.1931305802185
 30
0.0
 10
103.1498968311054
 20
148.2057452122316
 30
0.0
 10
103.16613101265
 20
148.2165405348235
 30
0.0
 10
103.1833646726791
 20
148.225460488796
 30
0.0
 10
103.2006771054793
 20
148.2344212146933
 30
0.0
 10
103.2189981746128
 20
148.2414893886672
 30
0.0
 10
103.2378636615622
 20
148.245782145587
 30
0.0
 10
103.257484811063
 20
148.2502468501305
 30
0.0
 10
103.2776948654843
 20
148.2517093443973
 30
0.0
 10
103.2979049204845
 20
148.2531718393968
 30
0.0
 10
103.3158774814842
 20
148.2531386643958
 30
0.0
 10
103.3338500420142
 20
148.2531054890907
 30
0.0
 10
103.3514801978012
 20
148.2504007040378
 30
0.0
 10
103.3672420743831
 20
148.2479825468364
 30
0.0
 10
103.3827302708037
 20
148.2434290027815
 30
0.0
 10
103.3976657816918
 20
148.2374687407991
 30
0.0
 10
103.4116928225842
 20
148.231871018753
 30
0.0
 10
103.4252323685999
 20
148.2250325047122
 30
0.0
 10
103.4373853837477
 20
148.2162233724612
 30
0.0
 10
103.4495460624364
 20
148.2074086852813
 30
0.0
 10
103.4603184610485
 20
148.1966208938133
 30
0.0
 10
103.4697152922427
 20
148.1848171755109
 30
0.0
 10
103.4794931379495
 20
148.172534850336
 30
0.0
 10
103.4877816040943
 20
148.159152542242
 30
0.0
 10
103.4946555075567
 20
148.1450975734716
 30
0.0
 10
103.5024514609967
 20
148.1291573027453
 30
0.0
 10
103.5084279070902
 20
148.1123518098145
 30
0.0
 10
103.5131297408461
 20
148.095217142664
 30
0.0
 10
103.5183662198082
 20
148.0761340936383
 30
0.0
 10
103.5220217335889
 20
148.0566427534305
 30
0.0
 10
103.524214281156
 20
148.0370233072987
 30
0.0
 10
103.5267341946054
 20
148.014474512035
 30
0.0
 10
103.5273216614721
 20
147.9917565003867
 30
0.0
 10
103.5279091274712
 20
147.9690384883867
 30
0.0
 10
103.5279091274712
 20
147.9690384883867
 30
0.0
 10
103.5279091273063
 20
144.2959910173858
 30
0.0
 10
103.5279091273063
 20
144.2959910173858
 30
0.0
 10
103.528032851305
 20
144.2731913423863
 30
0.0
 10
103.5281565751676
 20
144.2503916680772
 30
0.0
 10
103.5269854161351
 20
144.2276363532611
 30
0.0
 10
103.5261744702703
 20
144.2118798864223
 30
0.0
 10
103.5247426804218
 20
144.1961446881667
 30
0.0
 10
103.5223668577857
 20
144.1805270580833
 30
0.0
 10
103.5205664647452
 20
144.1686920531974
 30
0.0
 10
103.5182239538674
 20
144.156924562706
 30
0.0
 10
103.5149771643345
 20
144.1454260144012
 30
0.0
 10
103.5116192419902
 20
144.1335338877616
 30
0.0
 10
103.507294077299
 20
144.121929429388
 30
0.0
 10
103.5029689122984
 20
144.110324970388
 30
0.0
 10
103.4917626002975
 20
144.0953018203886
 30
0.0
 10
103.4805562882313
 20
144.0802786697411
 30
0.0
 10
103.4669441570935
 20
144.0678342332439
 30
0.0
 10
103.4521071396991
 20
144.0542699853754
 30
0.0
 10
103.4344118478622
 20
144.0437694229022
 30
0.0
 10
103.4161400147418
 20
144.0345806129861
 30
0.0
 10
103.397400560791
 20
144.0251566389852
 30
0.0
 10
103.378054677738
 20
144.017112418608
 30
0.0
 10
103.357946179281
 20
144.0124115326384
 30
0.0
 10
103.3384122000914
 20
144.0078449555316
 30
0.0
 10
103.3181585602937
 20
144.0064333973963
 30
0.0
 10
103.2979049202939
 20
144.0050218393958
 30
0.0
 10
103.2748473542939
 20
144.0072365303982
 30
0.0
 10
103.2517897876432
 20
144.0094512208976
 30
0.0
 10
103.2295502563046
 20
144.0151826676612
 30
0.0
 10
103.2073007935742
 20
144.0209166738863
 30
0.0
 10
103.1858700969293
 20
144.0301705779968
 30
0.0
 10
103.1658141507348
 20
144.0419703059977
 30
0.0
 10
103.1465638050353
 20
144.0532960664958
 30
0.0
 10
103.1285799868371
 20
144.0669672388259
 30
0.0
 10
103.114086296988
 20
144.0835373314855
 30
0.0
 10
103.1007128899889
 20
144.098826646728
 30
0.0
 10
103.0903109272984
 20
144.1165840604061
 30
0.0
 10
103.0799089642993
 20
144.1343414744064
 30
0.0
 10
103.0761974612998
 20
144.1431648854065
 30
0.0
 10
103.0724859583086
 20
144.1519882963964
 30
0.0
 10
103.0697481361302
 20
144.1611291125928
 30
0.0
 10
103.0670475649622
 20
144.1701455581722
 30
0.0
 10
103.0652943589134
 20
144.179470830443
 30
0.0
 10
103.064205866222
 20
144.1888404625728
 30
0.0
 10
103.0626032533825
 20
144.20263558758
 30
0.0
 10
103.0624415629887
 20
144.2165268730094
 30
0.0
 10
103.0623584425751
 20
144.2304074882595
 30
0.0
 10
103.0622268425048
 20
144.2523839181349
 30
0.0
 10
103.0622921913055
 20
144.2743336014078
 30
0.0
 10
103.0623575403068
 20
144.296283285407
 30
0.0
 10
103.0623575403068
 20
144.296283285407
 30
0.0
 10
103.0614347314706
 20
147.9492706974076
 30
0.0
 10
103.0614347314706
 20
147.9492706974076
 30
0.0
 10
103.0617886484715
 20
147.9757533894068
 30
0.0
 10
103.062142566191
 20
148.0022360817166
 30
0.0
 10
103.0632821544046
 20
148.0287099019737
 30
0.0
 10
103.0640269624087
 20
148.0460125670994
 30
0.0
 10
103.0651073791169
 20
148.0633114424212
 30
0.0
 10
103.0679007125667
 20
148.0804377559143
 30
0.0
 10
103.0699010443836
 20
148.0927020667866
 30
0.0
 10
103.0727797811518
 20
148.1048778858135
 30
0.0
 10
103.0771378293375
 20
148.1164625114953
 30
0.0
 10
103.0812052385519
 20
148.1272745565277
 30
0.0
 10
103.086561227479
 20
148.1375716324058
 30
0.0
 10
103.0919172164792
 20
148.1478687084059
 30
0.0
  0
ENDBLK
  5
6D
330
6A
100
AcDbEntity
  8
0
100
AcDbBlockEnd
  0
BLOCK
  5
71
330
6F
100
AcDbEntity
  8
0
100
AcDbBlockBegin
  2
block 10
 70
     0
 10
0.0
 20
0.0
 30
0.0
  3
block 10
  1

  0
SPLINE
  5
73
330
6F
100
AcDbEntity
  8
0
 62
     7
420
 16777215
370
     5
100
AcDbSpline
210
0.0
220
0.0
230
1.0
 70
    11
 71
     3
 72
   110
 73
   106
 74
     0
 42
0.0000000001
 43
0.0000000001
 12
1.0
 22
0.0
 32
0.0
 13
1.0
 23
0.0
 33
0.0
 40
0.0
 40
0.0
 40
0.0
 40
0.0
 40
1.0
 40
1.0
 40
1.0
 40
2.0
 40
2.0
 40
2.0
 40
3.0
 40
3.0
 40
3.0
 40
4.0
 40
4.0
 40
4.0
 40
5.0
 40
5.0
 40
5.0
 40
6.0
 40
6.0
 40
6.0
 40
7.0
 40
7.0
 40
7.0
 40
8.0
 40
8.0
 40
8.0
 40
9.0
 40
9.0
 40
9.0
 40
10.0
 40
10.0
 40
10.0
 40
11.0
 40
11.0
 40
11.0
 40
12.0
 40
12.0
 40
12.0
 40
13.0
 40
13.0
 40
13.0
 40
14.0
 40
14.0
 40
14.0
 40
15.0
 40
15.0
 40
15.0
 40
16.0
 40
16.0
 40
16.0
 40
17.0
 40
17.0
 40
17.0
 40
18.0
 40
18.0
 40
18.0
 40
19.0
 40
19.0
 40
19.0
 40
20.0
 40
20.0
 40
20.0
 40
21.0
 40
21.0
 40
21.0
 40
22.0
 40
22.0
 40
22.0
 40
23.0
 40
23.0
 40
23.0
 40
24.0
 40
24.0
 40
24.0
 40
25.0
 40
25.0
 40
25.0
 40
26.0
 40
26.0
 40
26.0
 40
27.0
 40
27.0
 40
27.0
 40
28.0
 40
28.0
 40
28.0
 40
29.0
 40
29.0
 40
29.0
 40
30.0
 40
30.0
 40
30.0
 40
31.0
 40
31.0
 40
31.0
 40
32.0
 40
32.0
 40
32.0
 40
33.0
 40
33.0
 40
33.0
 40
34.0
 40
34.0
 40
34.0
 40
35.0
 40
35.0
 40
35.0
 40
35.0
 10
104.3851135636118
 20
151.1029610323475
 30
0.0
 10
104.3851135636118
 20
151.1029610323475
 30
0.0
 10
105.3430025726121
 20
151.1029610323045
 30
0.0
 10
105.3430025726121
 20
151.1029610323045
 30
0.0
 10
105.3710536536119
 20
151.1037009723036
 30
0.0
 10
105.3991047351719
 20
151.1044409118542
 30
0.0
 10
105.4270603354975
 20
151.1066558787343
 30
0.0
 10
105.4536694575467
 20
151.1087641619895
 30
0.0
 10
105.4801920745444
 20
151.1122088053821
 30
0.0
 10
105.5064995389439
 20
151.1168167072544
 30
0.0
 10
105.5319731003951
 20
151.121278546286
 30
0.0
 10
105.557244933026
 20
151.1268310658961
 30
0.0
 10
105.5822438965634
 20
151.1334435176131
 30
0.0
 10
105.6062605620512
 20
151.1397961426213
 30
0.0
 10
105.6300253811311
 20
151.1471270392606
 30
0.0
 10
105.65336969592
 20
151.155612597834
 30
0.0
 10
105.6759459601135
 20
151.1638189733009
 30
0.0
 10
105.6981289348292
 20
151.1731052815975
 30
0.0
 10
105.7198769362676
 20
151.1833239481763
 30
0.0
 10
105.7413298163828
 20
151.1934039470062
 30
0.0
 10
105.7623594483354
 20
151.2043911715231
 30
0.0
 10
105.7826893300265
 20
151.216577568163
 30
0.0
 10
105.8028433114966
 20
151.2286585244519
 30
0.0
 10
105.8223095992182
 20
151.241917991444
 30
0.0
 10
105.840883165717
 20
151.2562971702173
 30
0.0
 10
105.8595300136885
 20
151.2707330816267
 30
0.0
 10
105.8772770821283
 20
151.2862975578283
 30
0.0
 10
105.8944584431281
 20
151.3024827545195
 30
0.0
 10
105.9115957981069
 20
151.318626496631
 30
0.0
 10
105.9281703397879
 20
151.3353877836443
 30
0.0
 10
105.9434151617161
 20
151.3532868968567
 30
0.0
 10
105.9583844242878
 20
151.3708624727946
 30
0.0
 10
105.9720716036247
 20
151.3895351129003
 30
0.0
 10
105.9849821870614
 20
151.4087095971507
 30
0.0
 10
105.9978835865914
 20
151.4278704416847
 30
0.0
 10
106.0100094946854
 20
151.4475324166456
 30
0.0
 10
106.0210069428971
 20
151.4678271448983
 30
0.0
 10
106.0320346963085
 20
151.4881777984688
 30
0.0
 10
106.0419277619706
 20
151.5091646974383
 30
0.0
 10
106.0505657162044
 20
151.5306395378904
 30
0.0
 10
106.0594345798525
 20
151.5526884428393
 30
0.0
 10
106.0669803320062
 20
151.5752517252132
 30
0.0
 10
106.0736585085851
 20
151.5980704908674
 30
0.0
 10
106.0806065906629
 20
151.6218115008303
 30
0.0
 10
106.086615552068
 20
151.6458290626426
 30
0.0
 10
106.091209030086
 20
151.6701200017253
 30
0.0
 10
106.095942906427
 20
151.6951533863217
 30
0.0
 10
106.0991734493546
 20
151.7204771149718
 30
0.0
 10
106.1013698587589
 20
151.7458643594728
 30
0.0
 10
106.1036568146146
 20
151.7722981870486
 30
0.0
 10
106.1048226156436
 20
151.7988008752706
 30
0.0
 10
106.1059884166444
 20
151.8253035632706
 30
0.0
 10
106.1048061546458
 20
151.8518019022705
 30
0.0
 10
106.1036238922396
 20
151.8783002410221
 30
0.0
 10
106.1013698587493
 20
151.9047427675235
 30
0.0
 10
106.0992050682515
 20
151.9301383662732
 30
0.0
 10
106.0960516949486
 20
151.9554824847846
 30
0.0
 10
106.0912090303119
 20
151.9804871246733
 30
0.0
 10
106.0866236461305
 20
152.0041633213128
 30
0.0
 10
106.0805236993711
 20
152.0275351526793
 30
0.0
 10
106.0736585085935
 20
152.0506892120265
 30
0.0
 10
106.0669792963809
 20
152.0732160260613
 30
0.0
 10
106.0595757396021
 20
152.0955367071818
 30
0.0
 10
106.0505657163328
 20
152.1171964534258
 30
0.0
 10
106.0417366562122
 20
152.1384211712841
 30
0.0
 10
106.0313650121926
 20
152.1590112369373
 30
0.0
 10
106.0200832312492
 20
152.1790851352301
 30
0.0
 10
106.0088105553247
 20
152.1991428327811
 30
0.0
 10
105.9966292109443
 20
152.218685195786
 30
0.0
 10
105.9831347640736
 20
152.2372789713554
 30
0.0
 10
105.9697754784152
 20
152.2556865105188
 30
0.0
 10
105.955129262764
 20
152.2731643693041
 30
0.0
 10
105.9397203157384
 20
152.2899305360509
 30
0.0
 10
105.9239389729537
 20
152.3071018991676
 30
0.0
 10
105.9073575866829
 20
152.3235267549318
 30
0.0
 10
105.889839884237
 20
152.3388872552787
 30
0.0
 10
105.872194136038
 20
152.3543600332965
 30
0.0
 10
105.8535983336189
 20
152.3687528392048
 30
0.0
 10
105.8344171841898
 20
152.3823017036165
 30
0.0
 10
105.8147292724744
 20
152.3962085264249
 30
0.0
 10
105.7944246756614
 20
152.409226225116
 30
0.0
 10
105.7734522141291
 20
152.4210975940841
 30
0.0
 10
105.7522310650023
 20
152.4331097315636
 30
0.0
 10
105.7303261184146
 20
152.4439481922032
 30
0.0
 10
105.7078686845009
 20
152.4534275033687
 30
0.0
 10
105.6846240213876
 20
152.4632391049726
 30
0.0
 10
105.6607874579584
 20
152.4715945989603
 30
0.0
 10
105.6367428849453
 20
152.4792914304911
 30
0.0
 10
105.6117499316407
 20
152.4872918450106
 30
0.0
 10
105.586532236274
 20
152.4945806136706
 30
0.0
 10
105.5609985286542
 20
152.5005367988498
 30
0.0
 10
105.5344770812607
 20
152.5067233916573
 30
0.0
 10
105.50761469964
 20
152.5114723081876
 30
0.0
 10
105.4806356125319
 20
152.5153161853039
 30
0.0
 10
105.4521080748292
 20
152.5193806797371
 30
0.0
 10
105.4234500506961
 20
152.5224332649144
 30
0.0
 10
105.3947304254996
 20
152.5245533024078
 30
0.0
 10
105.3646346186291
 20
152.5267749274647
 30
0.0
 10
105.334471165676
 20
152.5279724923051
 30
0.0
 10
105.304307712676
 20
152.5291700563066
 30
0.0
 10
105.304307712676
 20
152.5291700563066
 30
0.0
 10
104.385113563676
 20
152.529170056348
 30
0.0
 10
104.385113563676
 20
152.529170056348
 30
0.0
 10
104.385113563676
 20
152.529170056348
 30
0.0
 10
104.3851135636118
 20
151.1029610323475
 30
0.0
 10
104.3851135636118
 20
151.1029610323475
 30
0.0
  0
HATCH
  5
74
330
6F
100
AcDbEntity
  8
0
 62
     7
420
 16777215
100
AcDbHatch
 10
0.0
 20
0.0
 30
0.0
210
0.0
220
0.0
230
1.0
  2
SOLID
 70
     1
 71
     0
 91
        1
 92
        1
 93
        1
 72
     4
 94
        3
 73
     0
 74
     1
 95
      110
 96
      106
 40
0.0
 40
0.0
 40
0.0
 40
0.0
 40
1.0
 40
1.0
 40
1.0
 40
2.0
 40
2.0
 40
2.0
 40
3.0
 40
3.0
 40
3.0
 40
4.0
 40
4.0
 40
4.0
 40
5.0
 40
5.0
 40
5.0
 40
6.0
 40
6.0
 40
6.0
 40
7.0
 40
7.0
 40
7.0
 40
8.0
 40
8.0
 40
8.0
 40
9.0
 40
9.0
 40
9.0
 40
10.0
 40
10.0
 40
10.0
 40
11.0
 40
11.0
 40
11.0
 40
12.0
 40
12.0
 40
12.0
 40
13.0
 40
13.0
 40
13.0
 40
14.0
 40
14.0
 40
14.0
 40
15.0
 40
15.0
 40
15.0
 40
16.0
 40
16.0
 40
16.0
 40
17.0
 40
17.0
 40
17.0
 40
18.0
 40
18.0
 40
18.0
 40
19.0
 40
19.0
 40
19.0
 40
20.0
 40
20.0
 40
20.0
 40
21.0
 40
21.0
 40
21.0
 40
22.0
 40
22.0
 40
22.0
 40
23.0
 40
23.0
 40
23.0
 40
24.0
 40
24.0
 40
24.0
 40
25.0
 40
25.0
 40
25.0
 40
26.0
 40
26.0
 40
26.0
 40
27.0
 40
27.0
 40
27.0
 40
28.0
 40
28.0
 40
28.0
 40
29.0
 40
29.0
 40
29.0
 40
30.0
 40
30.0
 40
30.0
 40
31.0
 40
31.0
 40
31.0
 40
32.0
 40
32.0
 40
32.0
 40
33.0
 40
33.0
 40
33.0
 40
34.0
 40
34.0
 40
34.0
 40
35.0
 40
35.0
 40
35.0
 40
35.0
 10
104.3851135636118
 20
151.1029610323475
 10
104.3851135636118
 20
151.1029610323475
 10
105.3430025726121
 20
151.1029610323045
 10
105.3430025726121
 20
151.1029610323045
 10
105.3710536536119
 20
151.1037009723036
 10
105.3991047351719
 20
151.1044409118542
 10
105.4270603354975
 20
151.1066558787343
 10
105.4536694575467
 20
151.1087641619895
 10
105.4801920745444
 20
151.1122088053821
 10
105.5064995389439
 20
151.1168167072544
 10
105.5319731003951
 20
151.121278546286
 10
105.557244933026
 20
151.1268310658961
 10
105.5822438965634
 20
151.1334435176131
 10
105.6062605620512
 20
151.1397961426213
 10
105.6300253811311
 20
151.1471270392606
 10
105.65336969592
 20
151.155612597834
 10
105.6759459601135
 20
151.1638189733009
 10
105.6981289348292
 20
151.1731052815975
 10
105.7198769362676
 20
151.1833239481763
 10
105.7413298163828
 20
151.1934039470062
 10
105.7623594483354
 20
151.2043911715231
 10
105.7826893300265
 20
151.216577568163
 10
105.8028433114966
 20
151.2286585244519
 10
105.8223095992182
 20
151.241917991444
 10
105.840883165717
 20
151.2562971702173
 10
105.8595300136885
 20
151.2707330816267
 10
105.8772770821283
 20
151.2862975578283
 10
105.8944584431281
 20
151.3024827545195
 10
105.9115957981069
 20
151.318626496631
 10
105.9281703397879
 20
151.3353877836443
 10
105.9434151617161
 20
151.3532868968567
 10
105.9583844242878
 20
151.3708624727946
 10
105.9720716036247
 20
151.3895351129003
 10
105.9849821870614
 20
151.4087095971507
 10
105.9978835865914
 20
151.4278704416847
 10
106.0100094946854
 20
151.4475324166456
 10
106.0210069428971
 20
151.4678271448983
 10
106.0320346963085
 20
151.4881777984688
 10
106.0419277619706
 20
151.5091646974383
 10
106.0505657162044
 20
151.5306395378904
 10
106.0594345798525
 20
151.5526884428393
 10
106.0669803320062
 20
151.5752517252132
 10
106.0736585085851
 20
151.5980704908674
 10
106.0806065906629
 20
151.6218115008303
 10
106.086615552068
 20
151.6458290626426
 10
106.091209030086
 20
151.6701200017253
 10
106.095942906427
 20
151.6951533863217
 10
106.0991734493546
 20
151.7204771149718
 10
106.1013698587589
 20
151.7458643594728
 10
106.1036568146146
 20
151.7722981870486
 10
106.1048226156436
 20
151.7988008752706
 10
106.1059884166444
 20
151.8253035632706
 10
106.1048061546458
 20
151.8518019022705
 10
106.1036238922396
 20
151.8783002410221
 10
106.1013698587493
 20
151.9047427675235
 10
106.0992050682515
 20
151.9301383662732
 10
106.0960516949486
 20
151.9554824847846
 10
106.0912090303119
 20
151.9804871246733
 10
106.0866236461305
 20
152.0041633213128
 10
106.0805236993711
 20
152.0275351526793
 10
106.0736585085935
 20
152.0506892120265
 10
106.0669792963809
 20
152.0732160260613
 10
106.0595757396021
 20
152.0955367071818
 10
106.0505657163328
 20
152.1171964534258
 10
106.0417366562122
 20
152.1384211712841
 10
106.0313650121926
 20
152.1590112369373
 10
106.0200832312492
 20
152.1790851352301
 10
106.0088105553247
 20
152.1991428327811
 10
105.9966292109443
 20
152.218685195786
 10
105.9831347640736
 20
152.2372789713554
 10
105.9697754784152
 20
152.2556865105188
 10
105.955129262764
 20
152.2731643693041
 10
105.9397203157384
 20
152.2899305360509
 10
105.9239389729537
 20
152.3071018991676
 10
105.9073575866829
 20
152.3235267549318
 10
105.889839884237
 20
152.3388872552787
 10
105.872194136038
 20
152.3543600332965
 10
105.8535983336189
 20
152.3687528392048
 10
105.8344171841898
 20
152.3823017036165
 10
105.8147292724744
 20
152.3962085264249
 10
105.7944246756614
 20
152.409226225116
 10
105.7734522141291
 20
152.4210975940841
 10
105.7522310650023
 20
152.4331097315636
 10
105.7303261184146
 20
152.4439481922032
 10
105.7078686845009
 20
152.4534275033687
 10
105.6846240213876
 20
152.4632391049726
 10
105.6607874579584
 20
152.4715945989603
 10
105.6367428849453
 20
152.4792914304911
 10
105.6117499316407
 20
152.4872918450106
 10
105.586532236274
 20
152.4945806136706
 10
105.5609985286542
 20
152.5005367988498
 10
105.5344770812607
 20
152.5067233916573
 10
105.50761469964
 20
152.5114723081876
 10
105.4806356125319
 20
152.5153161853039
 10
105.4521080748292
 20
152.5193806797371
 10
105.4234500506961
 20
152.5224332649144
 10
105.3947304254996
 20
152.5245533024078
 10
105.3646346186291
 20
152.5267749274647
 10
105.334471165676
 20
152.5279724923051
 10
105.304307712676
 20
152.5291700563066
 10
105.304307712676
 20
152.5291700563066
 10
104.385113563676
 20
152.529170056348
 10
104.385113563676
 20
152.529170056348
 10
104.385113563676
 20
152.529170056348
 10
104.3851135636118
 20
151.1029610323475
 10
104.3851135636118
 20
151.1029610323475
 97
        0
 97
        0
 75
     2
 76
     1
 98
        0
  0
ENDBLK
  5
72
330
6F
100
AcDbEntity
  8
0
100
AcDbBlockEnd
  0
BLOCK
  5
77
330
75
100
AcDbEntity
  8
0
100
AcDbBlockBegin
  2
block 11
 70
     0
 10
0.0
 20
0.0
 30
0.0
  3
block 11
  1

  0
POLYLINE
  5
79
330
75
100
AcDbEntity
  8
0
 62
     7
420
 16777215
370
     5
100
AcDb2dPolyline
 66
     1
 10
0.0
 20
0.0
 30
0.0
  0
VERTEX
  5
7A
330
79
100
AcDbEntity
  8
0
 62
     7
420
 16777215
370
     5
100
AcDbVertex
100
AcDb2dVertex
 10
100.7814743655642
 20
150.0388451815098
 30
0.0
  0
VERTEX
  5
7B
330
79
100
AcDbEntity
  8
0
 62
     7
420
 16777215
370
     5
100
AcDbVertex
100
AcDb2dVertex
 10
102.2882862530526
 20
150.0388451812486
 30
0.0
  0
VERTEX
  5
7C
330
79
100
AcDbEntity
  8
0
 62
     7
420
 16777215
370
     5
100
AcDbVertex
100
AcDb2dVertex
 10
101.5348803091422
 20
152.033317298669
 30
0.0
  0
VERTEX
  5
7D
330
79
100
AcDbEntity
  8
0
 62
     7
420
 16777215
370
     5
100
AcDbVertex
100
AcDb2dVertex
 10
100.7814743655642
 20
150.0388451815098
 30
0.0
  0
SEQEND
  5
7F
330
79
100
AcDbEntity
  8
0
 62
     7
420
 16777215
370
     5
  0
HATCH
  5
7E
330
75
100
AcDbEntity
  8
0
 62
     7
420
 16777215
100
AcDbHatch
 10
0.0
 20
0.0
 30
0.0
210
0.0
220
0.0
230
1.0
  2
SOLID
 70
     1
 71
     0
 91
        1
 92
        1
 93
        3
 72
     1
 10
100.7814743655642
 20
150.0388451815098
 11
102.2882862530526
 21
150.0388451812486
 72
     1
 10
102.2882862530526
 20
150.0388451812486
 11
101.5348803091422
 21
152.033317298669
 72
     1
 10
101.5348803091422
 20
152.033317298669
 11
100.7814743655642
 21
150.0388451815098
 97
        0
 75
     2
 76
     1
 98
        0
  0
ENDBLK
  5
78
330
75
100
AcDbEntity
  8
0
100
AcDbBlockEnd
  0
BLOCK
  5
82
330
80
100
AcDbEntity
  8
0
100
AcDbBlockBegin
  2
block 12
 70
     0
 10
0.0
 20
0.0
 30
0.0
  3
block 12
  1

  0
SPLINE
  5
84
330
80
100
AcDbEntity
  8
0
 62
     7
420
 16777215
370
     5
100
AcDbSpline
210
0.0
220
0.0
230
1.0
 70
    11
 71
     3
 72
    92
 73
    88
 74
     0
 42
0.0000000001
 43
0.0000000001
 12
1.0
 22
0.0
 32
0.0
 13
1.0
 23
0.0
 33
0.0
 40
0.0
 40
0.0
 40
0.0
 40
0.0
 40
1.0
 40
1.0
 40
1.0
 40
2.0
 40
2.0
 40
2.0
 40
3.0
 40
3.0
 40
3.0
 40
4.0
 40
4.0
 40
4.0
 40
5.0
 40
5.0
 40
5.0
 40
6.0
 40
6.0
 40
6.0
 40
7.0
 40
7.0
 40
7.0
 40
8.0
 40
8.0
 40
8.0
 40
9.0
 40
9.0
 40
9.0
 40
10.0
 40
10.0
 40
10.0
 40
11.0
 40
11.0
 40
11.0
 40
12.0
 40
12.0
 40
12.0
 40
13.0
 40
13.0
 40
13.0
 40
14.0
 40
14.0
 40
14.0
 40
15.0
 40
15.0
 40
15.0
 40
16.0
 40
16.0
 40
16.0
 40
17.0
 40
17.0
 40
17.0
 40
18.0
 40
18.0
 40
18.0
 40
19.0
 40
19.0
 40
19.0
 40
20.0
 40
20.0
 40
20.0
 40
21.0
 40
21.0
 40
21.0
 40
22.0
 40
22.0
 40
22.0
 40
23.0
 40
23.0
 40
23.0
 40
24.0
 40
24.0
 40
24.0
 40
25.0
 40
25.0
 40
25.0
 40
26.0
 40
26.0
 40
26.0
 40
27.0
 40
27.0
 40
27.0
 40
28.0
 40
28.0
 40
28.0
 40
29.0
 40
29.0
 40
29.0
 40
29.0
 10
105.7310155994605
 20
147.729425514287
 30
0.0
 10
105.7310155994605
 20
147.729425514287
 30
0.0
 10
104.7693776214602
 20
147.7294255143306
 30
0.0
 10
104.7693776214602
 20
147.7294255143306
 30
0.0
 10
104.7693776214602
 20
147.7294255143306
 30
0.0
 10
104.7693776213961
 20
146.3032164903305
 30
0.0
 10
104.7693776213961
 20
146.3032164903305
 30
0.0
 10
104.7693776213961
 20
146.3032164903305
 30
0.0
 10
105.6847758923968
 20
146.3032164902894
 30
0.0
 10
105.6847758923968
 20
146.3032164902894
 30
0.0
 10
105.7087960943971
 20
146.3029808582892
 30
0.0
 10
105.7328162967741
 20
146.3027452266714
 30
0.0
 10
105.7568254030722
 20
146.3032164902407
 30
0.0
 10
105.7783918155334
 20
146.3036398073102
 30
0.0
 10
105.7999492748966
 20
146.3046334972376
 30
0.0
 10
105.8214852202573
 20
146.3059876251017
 30
0.0
 10
105.8402979282187
 20
146.3071705224216
 30
0.0
 10
105.8590942190994
 20
146.3086284656834
 30
0.0
 10
105.8778316328599
 20
146.3106061834871
 30
0.0
 10
105.893894714385
 20
146.3123016278388
 30
0.0
 10
105.9099145260989
 20
146.3143790634594
 30
0.0
 10
105.9258646395805
 20
146.3170721652852
 30
0.0
 10
105.9553564635652
 20
146.3220517213962
 30
0.0
 10
105.984610002123
 20
146.3291361269073
 30
0.0
 10
106.0126935372237
 20
146.3392412456701
 30
0.0
 10
106.0405568997685
 20
146.34926714115
 30
0.0
 10
106.0672685323992
 20
146.3622665712724
 30
0.0
 10
106.0939801654001
 20
146.3752660012716
 30
0.0
 10
106.1235411704007
 20
146.3912621462695
 30
0.0
 10
106.1531021751728
 20
146.4072582922942
 30
0.0
 10
106.1808090624312
 20
146.4260701429771
 30
0.0
 10
106.2079459509012
 20
146.4444949876426
 30
0.0
 10
106.2333042246581
 20
146.4656208767137
 30
0.0
 10
106.257477131535
 20
146.4879588251856
 30
0.0
 10
106.2813582793895
 20
146.5100271619798
 30
0.0
 10
106.3040825016578
 20
146.5332784764268
 30
0.0
 10
106.3249080838564
 20
146.5581609128269
 30
0.0
 10
106.3462961707469
 20
146.5837154306626
 30
0.0
 10
106.3656816668256
 20
146.610990374545
 30
0.0
 10
106.38310191935
 20
146.6394475403052
 30
0.0
 10
106.4005244027121
 20
146.667908350291
 30
0.0
 10
106.4159811391495
 20
146.6975516849645
 30
0.0
 10
106.429287503218
 20
146.7281238617346
 30
0.0
 10
106.4424689167265
 20
146.7584089570288
 30
0.0
 10
106.4535401534737
 20
146.7896055321381
 30
0.0
 10
106.4625411237659
 20
146.8214187406381
 30
0.0
 10
106.4716289678645
 20
146.8535389976468
 30
0.0
 10
106.47860638987
 20
146.8862878484937
 30
0.0
 10
106.4828627809332
 20
146.9193321779681
 30
0.0
 10
106.4872774770781
 20
146.9536055028954
 30
0.0
 10
106.4887649754274
 20
146.988196694253
 30
0.0
 10
106.4902524744287
 20
147.0227878862535
 30
0.0
 10
106.4883851894303
 20
147.057365736253
 30
0.0
 10
106.4865179038686
 20
147.0919435866619
 30
0.0
 10
106.4819390689516
 20
147.1262435942656
 30
0.0
 10
106.4774791040088
 20
147.1596531480574
 30
0.0
 10
106.4704465499272
 20
147.1927990978002
 30
0.0
 10
106.4606937005432
 20
147.2250807436241
 30
0.0
 10
106.4510456355391
 20
147.2570155562186
 30
0.0
 10
106.4387354147961
 20
147.2881045372457
 30
0.0
 10
106.4246689455591
 20
147.3183756222607
 30
0.0
 10
106.4103079580645
 20
147.3492805114699
 30
0.0
 10
106.394116408871
 20
147.379332896539
 30
0.0
 10
106.3757122265334
 20
147.4079756549407
 30
0.0
 10
106.3573971325665
 20
147.4364797635178
 30
0.0
 10
106.3368907748136
 20
147.4635878594423
 30
0.0
 10
106.314747255557
 20
147.4892622824935
 30
0.0
 10
106.2929681686726
 20
147.5145141624604
 30
0.0
 10
106.2696053648171
 20
147.5383791712742
 30
0.0
 10
106.2445451681948
 20
147.560388081614
 30
0.0
 10
106.2193898781367
 20
147.5824805069764
 30
0.0
 10
106.1925242890154
 20
147.6027027208329
 30
0.0
 10
106.1641822523953
 20
147.6204293409694
 30
0.0
 10
106.1353352591729
 20
147.6384717878753
 30
0.0
 10
106.1049587394572
 20
147.6539289232703
 30
0.0
 10
106.0745822194579
 20
147.6693860592725
 30
0.0
 10
106.0511247314583
 20
147.6796200122736
 30
0.0
 10
106.0276672433322
 20
147.6898539656495
 30
0.0
 10
106.0034564204452
 20
147.6980211216583
 30
0.0
 10
105.9794042431689
 20
147.7061347609618
 30
0.0
 10
105.9546085714985
 20
147.7122086002484
 30
0.0
 10
105.9295594868127
 20
147.716495355042
 30
0.0
 10
105.9005423978183
 20
147.7214611710341
 30
0.0
 10
105.8711852509161
 20
147.7240288773148
 30
0.0
 10
105.8418068775652
 20
147.7257324719963
 30
0.0
 10
105.8048987862927
 20
147.7278727003629
 30
0.0
 10
105.7679571934606
 20
147.7286491072852
 30
0.0
 10
105.7310155994605
 20
147.729425514287
 30
0.0
  0
HATCH
  5
85
330
80
100
AcDbEntity
  8
0
 62
     7
420
 16777215
100
AcDbHatch
 10
0.0
 20
0.0
 30
0.0
210
0.0
220
0.0
230
1.0
  2
SOLID
 70
     1
 71
     0
 91
        1
 92
        1
 93
        1
 72
     4
 94
        3
 73
     0
 74
     1
 95
       92
 96
       88
 40
0.0
 40
0.0
 40
0.0
 40
0.0
 40
1.0
 40
1.0
 40
1.0
 40
2.0
 40
2.0
 40
2.0
 40
3.0
 40
3.0
 40
3.0
 40
4.0
 40
4.0
 40
4.0
 40
5.0
 40
5.0
 40
5.0
 40
6.0
 40
6.0
 40
6.0
 40
7.0
 40
7.0
 40
7.0
 40
8.0
 40
8.0
 40
8.0
 40
9.0
 40
9.0
 40
9.0
 40
10.0
 40
10.0
 40
10.0
 40
11.0
 40
11.0
 40
11.0
 40
12.0
 40
12.0
 40
12.0
 40
13.0
 40
13.0
 40
13.0
 40
14.0
 40
14.0
 40
14.0
 40
15.0
 40
15.0
 40
15.0
 40
16.0
 40
16.0
 40
16.0
 40
17.0
 40
17.0
 40
17.0
 40
18.0
 40
18.0
 40
18.0
 40
19.0
 40
19.0
 40
19.0
 40
20.0
 40
20.0
 40
20.0
 40
21.0
 40
21.0
 40
21.0
 40
22.0
 40
22.0
 40
22.0
 40
23.0
 40
23.0
 40
23.0
 40
24.0
 40
24.0
 40
24.0
 40
25.0
 40
25.0
 40
25.0
 40
26.0
 40
26.0
 40
26.0
 40
27.0
 40
27.0
 40
27.0
 40
28.0
 40
28.0
 40
28.0
 40
29.0
 40
29.0
 40
29.0
 40
29.0
 10
105.7310155994605
 20
147.729425514287
 10
105.7310155994605
 20
147.729425514287
 10
104.7693776214602
 20
147.7294255143306
 10
104.7693776214602
 20
147.7294255143306
 10
104.7693776214602
 20
147.7294255143306
 10
104.7693776213961
 20
146.3032164903305
 10
104.7693776213961
 20
146.3032164903305
 10
104.7693776213961
 20
146.3032164903305
 10
105.6847758923968
 20
146.3032164902894
 10
105.6847758923968
 20
146.3032164902894
 10
105.7087960943971
 20
146.3029808582892
 10
105.7328162967741
 20
146.3027452266714
 10
105.7568254030722
 20
146.3032164902407
 10
105.7783918155334
 20
146.3036398073102
 10
105.7999492748966
 20
146.3046334972376
 10
105.8214852202573
 20
146.3059876251017
 10
105.8402979282187
 20
146.3071705224216
 10
105.8590942190994
 20
146.3086284656834
 10
105.8778316328599
 20
146.3106061834871
 10
105.893894714385
 20
146.3123016278388
 10
105.9099145260989
 20
146.3143790634594
 10
105.9258646395805
 20
146.3170721652852
 10
105.9553564635652
 20
146.3220517213962
 10
105.984610002123
 20
146.3291361269073
 10
106.0126935372237
 20
146.3392412456701
 10
106.0405568997685
 20
146.34926714115
 10
106.0672685323992
 20
146.3622665712724
 10
106.0939801654001
 20
146.3752660012716
 10
106.1235411704007
 20
146.3912621462695
 10
106.1531021751728
 20
146.4072582922942
 10
106.1808090624312
 20
146.4260701429771
 10
106.2079459509012
 20
146.4444949876426
 10
106.2333042246581
 20
146.4656208767137
 10
106.257477131535
 20
146.4879588251856
 10
106.2813582793895
 20
146.5100271619798
 10
106.3040825016578
 20
146.5332784764268
 10
106.3249080838564
 20
146.5581609128269
 10
106.3462961707469
 20
146.5837154306626
 10
106.3656816668256
 20
146.610990374545
 10
106.38310191935
 20
146.6394475403052
 10
106.4005244027121
 20
146.667908350291
 10
106.4159811391495
 20
146.6975516849645
 10
106.429287503218
 20
146.7281238617346
 10
106.4424689167265
 20
146.7584089570288
 10
106.4535401534737
 20
146.7896055321381
 10
106.4625411237659
 20
146.8214187406381
 10
106.4716289678645
 20
146.8535389976468
 10
106.47860638987
 20
146.8862878484937
 10
106.4828627809332
 20
146.9193321779681
 10
106.4872774770781
 20
146.9536055028954
 10
106.4887649754274
 20
146.988196694253
 10
106.4902524744287
 20
147.0227878862535
 10
106.4883851894303
 20
147.057365736253
 10
106.4865179038686
 20
147.0919435866619
 10
106.4819390689516
 20
147.1262435942656
 10
106.4774791040088
 20
147.1596531480574
 10
106.4704465499272
 20
147.1927990978002
 10
106.4606937005432
 20
147.2250807436241
 10
106.4510456355391
 20
147.2570155562186
 10
106.4387354147961
 20
147.2881045372457
 10
106.4246689455591
 20
147.3183756222607
 10
106.4103079580645
 20
147.3492805114699
 10
106.394116408871
 20
147.379332896539
 10
106.3757122265334
 20
147.4079756549407
 10
106.3573971325665
 20
147.4364797635178
 10
106.3368907748136
 20
147.4635878594423
 10
106.314747255557
 20
147.4892622824935
 10
106.2929681686726
 20
147.5145141624604
 10
106.2696053648171
 20
147.5383791712742
 10
106.2445451681948
 20
147.560388081614
 10
106.2193898781367
 20
147.5824805069764
 10
106.1925242890154
 20
147.6027027208329
 10
106.1641822523953
 20
147.6204293409694
 10
106.1353352591729
 20
147.6384717878753
 10
106.1049587394572
 20
147.6539289232703
 10
106.0745822194579
 20
147.6693860592725
 10
106.0511247314583
 20
147.6796200122736
 10
106.0276672433322
 20
147.6898539656495
 10
106.0034564204452
 20
147.6980211216583
 10
105.9794042431689
 20
147.7061347609618
 10
105.9546085714985
 20
147.7122086002484
 10
105.9295594868127
 20
147.716495355042
 10
105.9005423978183
 20
147.7214611710341
 10
105.8711852509161
 20
147.7240288773148
 10
105.8418068775652
 20
147.7257324719963
 10
105.8048987862927
 20
147.7278727003629
 10
105.7679571934606
 20
147.7286491072852
 10
105.7310155994605
 20
147.729425514287
 97
        0
 97
        0
 75
     2
 76
     1
 98
        0
  0
ENDBLK
  5
83
330
80
100
AcDbEntity
  8
0
100
AcDbBlockEnd
  0
ENDSEC
  0
SECTION
  2
ENTITIES
  0
INSERT
  5
41
330
1F
100
AcDbEntity
  8
0
100
AcDbBlockReference
  2
block 2
 10
0.0
 20
0.0
 30
0.0
  0
INSERT
  5
4D
330
1F
100
AcDbEntity
  8
0
100
AcDbBlockReference
  2
block 3
 10
0.0
 20
0.0
 30
0.0
  0
INSERT
  5
52
330
1F
100
AcDbEntity
  8
0
100
AcDbBlockReference
  2
block 4
 10
0.0
 20
0.0
 30
0.0
  0
INSERT
  5
57
330
1F
100
AcDbEntity
  8
0
100
AcDbBlockReference
  2
block 5
 10
0.0
 20
0.0
 30
0.0
  0
INSERT
  5
5C
330
1F
100
AcDbEntity
  8
0
100
AcDbBlockReference
  2
block 6
 10
0.0
 20
0.0
 30
0.0
  0
INSERT
  5
61
330
1F
100
AcDbEntity
  8
0
100
AcDbBlockReference
  2
block 7
 10
0.0
 20
0.0
 30
0.0
  0
INSERT
  5
66
330
1F
100
AcDbEntity
  8
0
100
AcDbBlockReference
  2
block 8
 10
0.0
 20
0.0
 30
0.0
  0
INSERT
  5
6B
330
1F
100
AcDbEntity
  8
0
100
AcDbBlockReference
  2
block 9
 10
0.0
 20
0.0
 30
0.0
  0
INSERT
  5
70
330
1F
100
AcDbEntity
  8
0
100
AcDbBlockReference
  2
block 10
 10
0.0
 20
0.0
 30
0.0
  0
INSERT
  5
76
330
1F
100
AcDbEntity
  8
0
100
AcDbBlockReference
  2
block 11
 10
0.0
 20
0.0
 30
0.0
  0
INSERT
  5
81
330
1F
100
AcDbEntity
  8
0
100
AcDbBlockReference
  2
block 12
 10
0.0
 20
0.0
 30
0.0
  0
ENDSEC
  0
SECTION
  2
OBJECTS
  0
DICTIONARY
  5
C
330
0
100
AcDbDictionary
281
     1
  3
ACAD_GROUP
350
D
  3
ACAD_LAYOUT
350
1A
  3
ACAD_MATERIAL
350
3B
  3
ACAD_MLEADERSTYLE
350
87
  3
ACAD_MLINESTYLE
350
17
  3
ACAD_PLOTSETTINGS
350
19
  3
ACAD_PLOTSTYLENAME
350
E
  3
ACAD_TABLESTYLE
350
86
  3
ACAD_VISUALSTYLE
350
2A
  0
SUN
  5
3F
330
29
100
AcDbSun
 90
        1
290
     0
 63
     7
421
 16777215
 40
1.0
291
     1
 91
  2455826
 92
 54000000
292
     0
 70
     2
 71
   256
280
     1
  0
DICTIONARY
  5
D
102
{ACAD_REACTORS
330
C
102
}
330
C
100
AcDbDictionary
281
     1
  0
DICTIONARY
  5
1A
102
{ACAD_REACTORS
330
C
102
}
330
C
100
AcDbDictionary
281
     1
  3
Layout1
350
1E
  3
Layout2
350
26
  3
Model
350
22
  0
DICTIONARY
  5
3B
102
{ACAD_REACTORS
330
C
102
}
330
C
100
AcDbDictionary
281
     1
  3
ByBlock
350
3D
  3
ByLayer
350
3C
  3
Global
350
3E
  0
DICTIONARY
  5
87
102
{ACAD_REACTORS
330
C
102
}
330
C
100
AcDbDictionary
281
     1
  0
DICTIONARY
  5
17
102
{ACAD_REACTORS
330
C
102
}
330
C
100
AcDbDictionary
281
     1
  3
Standard
350
18
  0
DICTIONARY
  5
19
102
{ACAD_REACTORS
330
C
102
}
330
C
100
AcDbDictionary
281
     1
  0
ACDBDICTIONARYWDFLT
  5
E
102
{ACAD_REACTORS
330
C
102
}
330
C
100
AcDbDictionary
281
     1
  3
Normal
350
F
100
AcDbDictionaryWithDefault
340
F
  0
DICTIONARY
  5
86
102
{ACAD_REACTORS
330
C
102
}
330
C
100
AcDbDictionary
281
     1
  0
DICTIONARY
  5
2A
102
{ACAD_REACTORS
330
C
102
}
330
C
100
AcDbDictionary
281
     1
  3
2dWireframe
350
2F
  3
3D Hidden
350
31
  3
3dWireframe
350
30
  3
Basic
350
32
  3
Brighten
350
36
  3
ColorChange
350
3A
  3
Conceptual
350
34
  3
Dim
350
35
  3
Facepattern
350
39
  3
Flat
350
2B
  3
FlatWithEdges
350
2C
  3
Gouraud
350
2D
  3
GouraudWithEdges
350
2E
  3
Linepattern
350
38
  3
Realistic
350
33
  3
Thicken
350
37
  0
LAYOUT
  5
1E
102
{ACAD_REACTORS
330
1A
102
}
330
1A
100
AcDbPlotSettings
  1

  2
none_device
  4

  6

 40
0.0
 41
0.0
 42
0.0
 43
0.0
 44
0.0
 45
0.0
 46
0.0
 47
0.0
 48
0.0
 49
0.0
140
0.0
141
0.0
142
1.0
143
1.0
 70
   688
 72
     0
 73
     0
 74
     5
  7

 75
    16
 76
     0
 77
     2
 78
   300
147
1.0
148
0.0
149
0.0
100
AcDbLayout
  1
Layout1
 70
     1
 71
     1
 10
0.0
 20
0.0
 11
12.0
 21
9.0
 12
0.0
 22
0.0
 32
0.0
 14
1.000000000000000E+20
 24
1.000000000000000E+20
 34
1.000000000000000E+20
 15
-1.000000000000000E+20
 25
-1.000000000000000E+20
 35
-1.000000000000000E+20
146
0.0
 13
0.0
 23
0.0
 33
0.0
 16
1.0
 26
0.0
 36
0.0
 17
0.0
 27
1.0
 37
0.0
 76
     0
330
1B
  0
LAYOUT
  5
26
102
{ACAD_REACTORS
330
1A
102
}
330
1A
100
AcDbPlotSettings
  1

  2
none_device
  4

  6

 40
0.0
 41
0.0
 42
0.0
 43
0.0
 44
0.0
 45
0.0
 46
0.0
 47
0.0
 48
0.0
 49
0.0
140
0.0
141
0.0
142
1.0
143
1.0
 70
   688
 72
     0
 73
     0
 74
     5
  7

 75
    16
 76
     0
 77
     2
 78
   300
147
1.0
148
0.0
149
0.0
100
AcDbLayout
  1
Layout2
 70
     1
 71
     2
 10
0.0
 20
0.0
 11
0.0
 21
0.0
 12
0.0
 22
0.0
 32
0.0
 14
0.0
 24
0.0
 34
0.0
 15
0.0
 25
0.0
 35
0.0
146
0.0
 13
0.0
 23
0.0
 33
0.0
 16
1.0
 26
0.0
 36
0.0
 17
0.0
 27
1.0
 37
0.0
 76
     0
330
23
  0
LAYOUT
  5
22
102
{ACAD_REACTORS
330
1A
102
}
330
1A
100
AcDbPlotSettings
  1

  2
none_device
  4

  6

 40
0.0
 41
0.0
 42
0.0
 43
0.0
 44
0.0
 45
0.0
 46
0.0
 47
0.0
 48
0.0
 49
0.0
140
0.0
141
0.0
142
1.0
143
1.0
 70
  1712
 72
     0
 73
     0
 74
     0
  7

 75
     0
 76
     0
 77
     2
 78
   300
147
1.0
148
0.0
149
0.0
100
AcDbLayout
  1
Model
 70
     1
 71
     0
 10
0.0
 20
0.0
 11
12.0
 21
9.0
 12
0.0
 22
0.0
 32
0.0
 14
1.000000000000000E+20
 24
1.000000000000000E+20
 34
1.000000000000000E+20
 15
-1.000000000000000E+20
 25
-1.000000000000000E+20
 35
-1.000000000000000E+20
146
0.0
 13
0.0
 23
0.0
 33
0.0
 16
1.0
 26
0.0
 36
0.0
 17
0.0
 27
1.0
 37
0.0
 76
     0
330
1F
331
29
  0
MATERIAL
  5
3D
102
{ACAD_REACTORS
330
3B
102
}
330
3B
100
AcDbMaterial
  1
ByBlock
 72
     1
 94
      127
  0
MATERIAL
  5
3C
102
{ACAD_REACTORS
330
3B
102
}
330
3B
100
AcDbMaterial
  1
ByLayer
 72
     1
 94
      127
  0
MATERIAL
  5
3E
102
{ACAD_REACTORS
330
3B
102
}
330
3B
100
AcDbMaterial
  1
Global
 72
     1
 94
      127
  0
MLINESTYLE
  5
18
102
{ACAD_REACTORS
330
17
102
}
330
17
100
AcDbMlineStyle
  2
Standard
 70
     0
  3

 62
   256
 51
90.0
 52
90.0
 71
     2
 49
0.5
 62
   256
  6
BYLAYER
 49
-0.5
 62
   256
  6
BYLAYER
  0
ACDBPLACEHOLDER
  5
F
102
{ACAD_REACTORS
330
E
102
}
330
E
  0
VISUALSTYLE
  5
2F
102
{ACAD_REACTORS
330
2A
102
}
330
2A
100
AcDbVisualStyle
  2
2dWireframe
 70
     4
177
     2
291
     0
 71
     0
176
     1
 72
     2
176
     1
 73
     0
176
     1
 90
        0
176
     1
 40
-0.6
176
     1
 41
-30.0
176
     1
 62
     5
 63
     7
421
 16777215
176
     1
 74
     1
176
     1
 91
        4
176
     1
 64
     7
176
     1
 65
   257
176
     1
 75
     1
176
     1
175
     1
176
     1
 42
1.0
176
     1
 92
        0
176
     1
 66
   257
176
     1
 43
1.0
176
     1
 76
     1
176
     1
 77
     6
176
     1
 78
     2
176
     1
 67
     7
176
     1
 79
     5
176
     1
170
     0
176
     1
171
     0
176
     1
290
     0
176
     1
 93
        1
176
     1
 44
0.0
176
     1
173
     0
176
     1
  0
VISUALSTYLE
  5
31
102
{ACAD_REACTORS
330
2A
102
}
330
2A
100
AcDbVisualStyle
  2
3D Hidden
 70
     6
177
     2
291
     0
 71
     1
176
     1
 72
     2
176
     1
 73
     2
176
     1
 90
        0
176
     1
 40
-0.6
176
     1
 41
-30.0
176
     1
 62
     5
 63
     7
421
 16777215
176
     1
 74
     2
176
     1
 91
        2
176
     1
 64
     7
176
     1
 65
   257
176
     1
 75
     2
176
     1
175
     1
176
     1
 42
40.0
176
     1
 92
        0
176
     1
 66
   257
176
     1
 43
1.0
176
     1
 76
     1
176
     1
 77
     6
176
     1
 78
     2
176
     1
 67
     7
176
     1
 79
     3
176
     1
170
     0
176
     1
171
     0
176
     1
290
     0
176
     1
 93
        1
176
     1
 44
0.0
176
     1
173
     0
176
     1
  0
VISUALSTYLE
  5
30
102
{ACAD_REACTORS
330
2A
102
}
330
2A
100
AcDbVisualStyle
  2
3dWireframe
 70
     5
177
     2
291
     0
 71
     0
176
     1
 72
     2
176
     1
 73
     0
176
     1
 90
        0
176
     1
 40
-0.6
176
     1
 41
-30.0
176
     1
 62
     5
 63
     7
421
 16777215
176
     1
 74
     1
176
     1
 91
        4
176
     1
 64
     7
176
     1
 65
   257
176
     1
 75
     1
176
     1
175
     1
176
     1
 42
1.0
176
     1
 92
        0
176
     1
 66
   257
176
     1
 43
1.0
176
     1
 76
     1
176
     1
 77
     6
176
     1
 78
     2
176
     1
 67
     7
176
     1
 79
     5
176
     1
170
     0
176
     1
171
     0
176
     1
290
     0
176
     1
 93
        1
176
     1
 44
0.0
176
     1
173
     0
176
     1
  0
VISUALSTYLE
  5
32
102
{ACAD_REACTORS
330
2A
102
}
330
2A
100
AcDbVisualStyle
  2
Basic
 70
     7
177
     2
291
     1
 71
     1
176
     1
 72
     0
176
     1
 73
     1
176
     1
 90
        0
176
     1
 40
-0.6
176
     1
 41
-30.0
176
     1
 62
     5
 63
     7
421
 16777215
176
     1
 74
     0
176
     1
 91
        4
176
     1
 64
     7
176
     1
 65
   257
176
     1
 75
     1
176
     1
175
     1
176
     1
 42
1.0
176
     1
 92
        8
176
     1
 66
     7
176
     1
 43
1.0
176
     1
 76
     1
176
     1
 77
     6
176
     1
 78
     2
176
     1
 67
     7
176
     1
 79
     5
176
     1
170
     0
176
     1
171
     0
176
     1
290
     0
176
     1
 93
        1
176
     1
 44
0.0
176
     1
173
     0
176
     1
  0
VISUALSTYLE
  5
36
102
{ACAD_REACTORS
330
2A
102
}
330
2A
100
AcDbVisualStyle
  2
Brighten
 70
    12
177
     2
291
     1
 71
     2
176
     1
 72
     2
176
     1
 73
     0
176
     1
 90
        0
176
     1
 40
-0.6
176
     1
 41
-30.0
176
     1
 62
     5
 63
     7
421
 16777215
176
     1
 74
     1
176
     1
 91
        4
176
     1
 64
     7
176
     1
 65
   257
176
     1
 75
     1
176
     1
175
     1
176
     1
 42
1.0
176
     1
 92
        8
176
     1
 66
     7
176
     1
 43
1.0
176
     1
 76
     1
176
     1
 77
     6
176
     1
 78
     2
176
     1
 67
     7
176
     1
 79
     5
176
     1
170
     0
176
     1
171
     0
176
     1
290
     0
176
     1
 93
        1
176
     1
 44
50.0
176
     1
173
     0
176
     1
  0
VISUALSTYLE
  5
3A
102
{ACAD_REACTORS
330
2A
102
}
330
2A
100
AcDbVisualStyle
  2
ColorChange
 70
    16
177
     2
291
     1
 71
     2
176
     1
 72
     2
176
     1
 73
     3
176
     1
 90
        0
176
     1
 40
-0.6
176
     1
 41
-30.0
176
     1
 62
     5
 63
     8
421
  8421504
176
     1
 74
     1
176
     1
 91
        4
176
     1
 64
     7
176
     1
 65
   257
176
     1
 75
     1
176
     1
175
     1
176
     1
 42
1.0
176
     1
 92
        8
176
     1
 66
     8
424
  8421504
176
     1
 43
1.0
176
     1
 76
     1
176
     1
 77
     6
176
     1
 78
     2
176
     1
 67
     7
176
     1
 79
     5
176
     1
170
     0
176
     1
171
     0
176
     1
290
     0
176
     1
 93
        1
176
     1
 44
0.0
176
     1
173
     0
176
     1
  0
VISUALSTYLE
  5
34
102
{ACAD_REACTORS
330
2A
102
}
330
2A
100
AcDbVisualStyle
  2
Conceptual
 70
     9
177
     2
291
     0
 71
     3
176
     1
 72
     2
176
     1
 73
     0
176
     1
 90
        0
176
     1
 40
-0.6
176
     1
 41
-30.0
176
     1
 62
     5
 63
     7
421
 16777215
176
     1
 74
     2
176
     1
 91
        2
176
     1
 64
     7
176
     1
 65
   257
176
     1
 75
     1
176
     1
175
     1
176
     1
 42
40.0
176
     1
 92
        8
176
     1
 66
     7
176
     1
 43
1.0
176
     1
 76
     1
176
     1
 77
     6
176
     1
 78
     2
176
     1
 67
     7
176
     1
 79
     3
176
     1
170
     0
176
     1
171
     0
176
     1
290
     0
176
     1
 93
        1
176
     1
 44
0.0
176
     1
173
     0
176
     1
  0
VISUALSTYLE
  5
35
102
{ACAD_REACTORS
330
2A
102
}
330
2A
100
AcDbVisualStyle
  2
Dim
 70
    11
177
     2
291
     1
 71
     2
176
     1
 72
     2
176
     1
 73
     0
176
     1
 90
        0
176
     1
 40
-0.6
176
     1
 41
-30.0
176
     1
 62
     5
 63
     7
421
 16777215
176
     1
 74
     1
176
     1
 91
        4
176
     1
 64
     7
176
     1
 65
   257
176
     1
 75
     1
176
     1
175
     1
176
     1
 42
1.0
176
     1
 92
        8
176
     1
 66
     7
176
     1
 43
1.0
176
     1
 76
     1
176
     1
 77
     6
176
     1
 78
     2
176
     1
 67
     7
176
     1
 79
     5
176
     1
170
     0
176
     1
171
     0
176
     1
290
     0
176
     1
 93
        1
176
     1
 44
-50.0
176
     1
173
     0
176
     1
  0
VISUALSTYLE
  5
39
102
{ACAD_REACTORS
330
2A
102
}
330
2A
100
AcDbVisualStyle
  2
Facepattern
 70
    15
177
     2
291
     1
 71
     2
176
     1
 72
     2
176
     1
 73
     0
176
     1
 90
        0
176
     1
 40
-0.6
176
     1
 41
-30.0
176
     1
 62
     5
 63
     7
421
 16777215
176
     1
 74
     1
176
     1
 91
        4
176
     1
 64
     7
176
     1
 65
   257
176
     1
 75
     1
176
     1
175
     1
176
     1
 42
1.0
176
     1
 92
        8
176
     1
 66
     7
176
     1
 43
1.0
176
     1
 76
     1
176
     1
 77
     6
176
     1
 78
     2
176
     1
 67
     7
176
     1
 79
     5
176
     1
170
     0
176
     1
171
     0
176
     1
290
     0
176
     1
 93
        1
176
     1
 44
0.0
176
     1
173
     0
176
     1
  0
VISUALSTYLE
  5
2B
102
{ACAD_REACTORS
330
2A
102
}
330
2A
100
AcDbVisualStyle
  2
Flat
 70
     0
177
     2
291
     1
 71
     2
176
     1
 72
     1
176
     1
 73
     1
176
     1
 90
        2
176
     1
 40
-0.6
176
     1
 41
30.0
176
     1
 62
     5
 63
     7
421
 16777215
176
     1
 74
     0
176
     1
 91
        4
176
     1
 64
     7
176
     1
 65
   257
176
     1
 75
     1
176
     1
175
     1
176
     1
 42
1.0
176
     1
 92
        8
176
     1
 66
     7
176
     1
 43
1.0
176
     1
 76
     1
176
     1
 77
     6
176
     1
 78
     2
176
     1
 67
     7
176
     1
 79
     5
176
     1
170
     0
176
     1
171
     0
176
     1
290
     0
176
     1
 93
       13
176
     1
 44
0.0
176
     1
173
     0
176
     1
  0
VISUALSTYLE
  5
2C
102
{ACAD_REACTORS
330
2A
102
}
330
2A
100
AcDbVisualStyle
  2
FlatWithEdges
 70
     1
177
     2
291
     1
 71
     2
176
     1
 72
     1
176
     1
 73
     1
176
     1
 90
        2
176
     1
 40
-0.6
176
     1
 41
30.0
176
     1
 62
     5
 63
     7
421
 16777215
176
     1
 74
     1
176
     1
 91
        4
176
     1
 64
     7
176
     1
 65
   257
176
     1
 75
     1
176
     1
175
     1
176
     1
 42
1.0
176
     1
 92
        0
176
     1
 66
   257
176
     1
 43
1.0
176
     1
 76
     1
176
     1
 77
     6
176
     1
 78
     2
176
     1
 67
     7
176
     1
 79
     5
176
     1
170
     0
176
     1
171
     0
176
     1
290
     0
176
     1
 93
       13
176
     1
 44
0.0
176
     1
173
     0
176
     1
  0
VISUALSTYLE
  5
2D
102
{ACAD_REACTORS
330
2A
102
}
330
2A
100
AcDbVisualStyle
  2
Gouraud
 70
     2
177
     2
291
     1
 71
     2
176
     1
 72
     2
176
     1
 73
     1
176
     1
 90
        2
176
     1
 40
-0.6
176
     1
 41
30.0
176
     1
 62
     5
 63
     7
421
 16777215
176
     1
 74
     0
176
     1
 91
        4
176
     1
 64
     7
176
     1
 65
   257
176
     1
 75
     1
176
     1
175
     1
176
     1
 42
1.0
176
     1
 92
        0
176
     1
 66
     7
176
     1
 43
1.0
176
     1
 76
     1
176
     1
 77
     6
176
     1
 78
     2
176
     1
 67
     7
176
     1
 79
     5
176
     1
170
     0
176
     1
171
     0
176
     1
290
     0
176
     1
 93
       13
176
     1
 44
0.0
176
     1
173
     0
176
     1
  0
VISUALSTYLE
  5
2E
102
{ACAD_REACTORS
330
2A
102
}
330
2A
100
AcDbVisualStyle
  2
GouraudWithEdges
 70
     3
177
     2
291
     1
 71
     2
176
     1
 72
     2
176
     1
 73
     1
176
     1
 90
        2
176
     1
 40
-0.6
176
     1
 41
30.0
176
     1
 62
     5
 63
     7
421
 16777215
176
     1
 74
     1
176
     1
 91
        4
176
     1
 64
     7
176
     1
 65
   257
176
     1
 75
     1
176
     1
175
     1
176
     1
 42
1.0
176
     1
 92
        0
176
     1
 66
   257
176
     1
 43
1.0
176
     1
 76
     1
176
     1
 77
     6
176
     1
 78
     2
176
     1
 67
     7
176
     1
 79
     5
176
     1
170
     0
176
     1
171
     0
176
     1
290
     0
176
     1
 93
       13
176
     1
 44
0.0
176
     1
173
     0
176
     1
  0
VISUALSTYLE
  5
38
102
{ACAD_REACTORS
330
2A
102
}
330
2A
100
AcDbVisualStyle
  2
Linepattern
 70
    14
177
     2
291
     1
 71
     2
176
     1
 72
     2
176
     1
 73
     0
176
     1
 90
        0
176
     1
 40
-0.6
176
     1
 41
-30.0
176
     1
 62
     5
 63
     7
421
 16777215
176
     1
 74
     1
176
     1
 91
        4
176
     1
 64
     7
176
     1
 65
   257
176
     1
 75
     7
176
     1
175
     7
176
     1
 42
1.0
176
     1
 92
        8
176
     1
 66
     7
176
     1
 43
1.0
176
     1
 76
     1
176
     1
 77
     6
176
     1
 78
     2
176
     1
 67
     7
176
     1
 79
     5
176
     1
170
     0
176
     1
171
     0
176
     1
290
     0
176
     1
 93
        1
176
     1
 44
0.0
176
     1
173
     0
176
     1
  0
VISUALSTYLE
  5
33
102
{ACAD_REACTORS
330
2A
102
}
330
2A
100
AcDbVisualStyle
  2
Realistic
 70
     8
177
     2
291
     0
 71
     2
176
     1
 72
     2
176
     1
 73
     0
176
     1
 90
        0
176
     1
 40
-0.6
176
     1
 41
-30.0
176
     1
 62
     5
 63
     7
421
 16777215
176
     1
 74
     1
176
     1
 91
        0
176
     1
 64
     7
176
     1
 65
   257
176
     1
 75
     1
176
     1
175
     1
176
     1
 42
1.0
176
     1
 92
        8
176
     1
 66
     8
424
  7895160
176
     1
 43
1.0
176
     1
 76
     1
176
     1
 77
     6
176
     1
 78
     2
176
     1
 67
     7
176
     1
 79
     5
176
     1
170
     0
176
     1
171
     0
176
     1
290
     0
176
     1
 93
       13
176
     1
 44
0.0
176
     1
173
     0
176
     1
  0
VISUALSTYLE
  5
37
102
{ACAD_REACTORS
330
2A
102
}
330
2A
100
AcDbVisualStyle
  2
Thicken
 70
    13
177
     2
291
     1
 71
     2
176
     1
 72
     2
176
     1
 73
     0
176
     1
 90
        0
176
     1
 40
-0.6
176
     1
 41
-30.0
176
     1
 62
     5
 63
     7
421
 16777215
176
     1
 74
     1
176
     1
 91
        4
176
     1
 64
     7
176
     1
 65
   257
176
     1
 75
     1
176
     1
175
     1
176
     1
 42
1.0
176
     1
 92
       12
176
     1
 66
     7
176
     1
 43
1.0
176
     1
 76
     1
176
     1
 77
     6
176
     1
 78
     2
176
     1
 67
     7
176
     1
 79
     5
176
     1
170
     0
176
     1
171
     0
176
     1
290
     0
176
     1
 93
        1
176
     1
 44
0.0
176
     1
173
     0
176
     1
  0
ENDSEC
  0
EOF
