  0
SECTION
  2
HEADER
  9
$ACADVER
  1
AC1024
  9
$ACADMAINTVER
 70
     6
  9
$DWGCODEPAGE
  3
UNDEFINED
  9
$INSBASE
 10
0.0
 20
0.0
 30
0.0
  9
$EXTMIN
 10
1.000000000000000E+20
 20
1.000000000000000E+20
 30
1.000000000000000E+20
  9
$EXTMAX
 10
-1.000000000000000E+20
 20
-1.000000000000000E+20
 30
-1.000000000000000E+20
  9
$LIMMIN
 10
0.0
 20
0.0
  9
$LIMMAX
 10
12.0
 20
9.0
  9
$ORTHOMODE
 70
     0
  9
$REGENMODE
 70
     1
  9
$FILLMODE
 70
     1
  9
$QTEXTMODE
 70
     0
  9
$MIRRTEXT
 70
     1
  9
$LTSCALE
 40
1.0
  9
$ATTMODE
 70
     1
  9
$TEXTSIZE
 40
0.2
  9
$TRACEWID
 40
0.05
  9
$TEXTSTYLE
  7
Standard
  9
$CLAYER
  8
0
  9
$CELTYPE
  6
ByLayer
  9
$CECOLOR
 62
   256
  9
$CELTSCALE
 40
1.0
  9
$DISPSILH
 70
     0
  9
$DIMSCALE
 40
1.0
  9
$DIMASZ
 40
0.18
  9
$DIMEXO
 40
0.0625
  9
$DIMDLI
 40
0.38
  9
$DIMRND
 40
0.0
  9
$DIMDLE
 40
0.0
  9
$DIMEXE
 40
0.18
  9
$DIMTP
 40
0.0
  9
$DIMTM
 40
0.0
  9
$DIMTXT
 40
0.18
  9
$DIMCEN
 40
0.09
  9
$DIMTSZ
 40
0.0
  9
$DIMTOL
 70
     0
  9
$DIMLIM
 70
     0
  9
$DIMTIH
 70
     1
  9
$DIMTOH
 70
     1
  9
$DIMSE1
 70
     0
  9
$DIMSE2
 70
     0
  9
$DIMTAD
 70
     0
  9
$DIMZIN
 70
     0
  9
$DIMBLK
  1

  9
$DIMASO
 70
     1
  9
$DIMSHO
 70
     1
  9
$DIMPOST
  1

  9
$DIMAPOST
  1

  9
$DIMALT
 70
     0
  9
$DIMALTD
 70
     2
  9
$DIMALTF
 40
25.4
  9
$DIMLFAC
 40
1.0
  9
$DIMTOFL
 70
     0
  9
$DIMTVP
 40
0.0
  9
$DIMTIX
 70
     0
  9
$DIMSOXD
 70
     0
  9
$DIMSAH
 70
     0
  9
$DIMBLK1
  1

  9
$DIMBLK2
  1

  9
$DIMSTYLE
  2
Standard
  9
$DIMCLRD
 70
     0
  9
$DIMCLRE
 70
     0
  9
$DIMCLRT
 70
     0
  9
$DIMTFAC
 40
1.0
  9
$DIMGAP
 40
0.09
  9
$DIMJUST
 70
     0
  9
$DIMSD1
 70
     0
  9
$DIMSD2
 70
     0
  9
$DIMTOLJ
 70
     1
  9
$DIMTZIN
 70
     0
  9
$DIMALTZ
 70
     0
  9
$DIMALTTZ
 70
     0
  9
$DIMUPT
 70
     0
  9
$DIMDEC
 70
     4
  9
$DIMTDEC
 70
     4
  9
$DIMALTU
 70
     2
  9
$DIMALTTD
 70
     2
  9
$DIMTXSTY
  7
Standard
  9
$DIMAUNIT
 70
     0
  9
$DIMADEC
 70
     0
  9
$DIMALTRND
 40
0.0
  9
$DIMAZIN
 70
     0
  9
$DIMDSEP
 70
    46
  9
$DIMATFIT
 70
     3
  9
$DIMFRAC
 70
     0
  9
$DIMLDRBLK
  1

  9
$DIMLUNIT
 70
     2
  9
$DIMLWD
 70
    -2
  9
$DIMLWE
 70
    -2
  9
$DIMTMOVE
 70
     0
  9
$DIMFXL
 40
1.0
  9
$DIMFXLON
 70
     0
  9
$DIMJOGANG
 40
0.7853981633974483
  9
$DIMTFILL
 70
     0
  9
$DIMTFILLCLR
 70
     0
  9
$DIMARCSYM
 70
     0
  9
$DIMLTYPE
  6

  9
$DIMLTEX1
  6

  9
$DIMLTEX2
  6

  9
$DIMTXTDIRECTION
 70
     0
  9
$LUNITS
 70
     2
  9
$LUPREC
 70
     4
  9
$SKETCHINC
 40
0.1
  9
$FILLETRAD
 40
0.5
  9
$AUNITS
 70
     0
  9
$AUPREC
 70
     0
  9
$MENU
  1
.
  9
$ELEVATION
 40
0.0
  9
$PELEVATION
 40
0.0
  9
$THICKNESS
 40
0.0
  9
$LIMCHECK
 70
     0
  9
$CHAMFERA
 40
0.5
  9
$CHAMFERB
 40
0.5
  9
$CHAMFERC
 40
1.0
  9
$CHAMFERD
 40
0.0
  9
$SKPOLY
 70
     0
  9
$TDCREATE
 40
2458843.930439803
  9
$TDUCREATE
 40
2458843.888773148
  9
$TDUPDATE
 40
2458843.930439803
  9
$TDUUPDATE
 40
2458843.888773148
  9
$TDINDWG
 40
0.0000000116
  9
$TDUSRTIMER
 40
0.0000000116
  9
$USRTIMER
 70
     1
  9
$ANGBASE
 50
0.0
  9
$ANGDIR
 70
     0
  9
$PDMODE
 70
     0
  9
$PDSIZE
 40
0.0
  9
$PLINEWID
 40
0.0
  9
$SPLFRAME
 70
     0
  9
$SPLINETYPE
 70
     6
  9
$SPLINESEGS
 70
     8
  9
$HANDSEED
  5
58
  9
$SURFTAB1
 70
     6
  9
$SURFTAB2
 70
     6
  9
$SURFTYPE
 70
     6
  9
$SURFU
 70
     6
  9
$SURFV
 70
     6
  9
$UCSBASE
  2

  9
$UCSNAME
  2

  9
$UCSORG
 10
0.0
 20
0.0
 30
0.0
  9
$UCSXDIR
 10
1.0
 20
0.0
 30
0.0
  9
$UCSYDIR
 10
0.0
 20
1.0
 30
0.0
  9
$UCSORTHOREF
  2

  9
$UCSORTHOVIEW
 70
     0
  9
$UCSORGTOP
 10
0.0
 20
0.0
 30
0.0
  9
$UCSORGBOTTOM
 10
0.0
 20
0.0
 30
0.0
  9
$UCSORGLEFT
 10
0.0
 20
0.0
 30
0.0
  9
$UCSORGRIGHT
 10
0.0
 20
0.0
 30
0.0
  9
$UCSORGFRONT
 10
0.0
 20
0.0
 30
0.0
  9
$UCSORGBACK
 10
0.0
 20
0.0
 30
0.0
  9
$PUCSBASE
  2

  9
$PUCSNAME
  2

  9
$PUCSORG
 10
0.0
 20
0.0
 30
0.0
  9
$PUCSXDIR
 10
1.0
 20
0.0
 30
0.0
  9
$PUCSYDIR
 10
0.0
 20
1.0
 30
0.0
  9
$PUCSORTHOREF
  2

  9
$PUCSORTHOVIEW
 70
     0
  9
$PUCSORGTOP
 10
0.0
 20
0.0
 30
0.0
  9
$PUCSORGBOTTOM
 10
0.0
 20
0.0
 30
0.0
  9
$PUCSORGLEFT
 10
0.0
 20
0.0
 30
0.0
  9
$PUCSORGRIGHT
 10
0.0
 20
0.0
 30
0.0
  9
$PUCSORGFRONT
 10
0.0
 20
0.0
 30
0.0
  9
$PUCSORGBACK
 10
0.0
 20
0.0
 30
0.0
  9
$USERI1
 70
     0
  9
$USERI2
 70
     0
  9
$USERI3
 70
     0
  9
$USERI4
 70
     0
  9
$USERI5
 70
     0
  9
$USERR1
 40
0.0
  9
$USERR2
 40
0.0
  9
$USERR3
 40
0.0
  9
$USERR4
 40
0.0
  9
$USERR5
 40
0.0
  9
$WORLDVIEW
 70
     1
  9
$SHADEDGE
 70
     3
  9
$SHADEDIF
 70
    70
  9
$TILEMODE
 70
     1
  9
$MAXACTVP
 70
    64
  9
$PINSBASE
 10
0.0
 20
0.0
 30
0.0
  9
$PLIMCHECK
 70
     0
  9
$PEXTMIN
 10
1.000000000000000E+20
 20
1.000000000000000E+20
 30
1.000000000000000E+20
  9
$PEXTMAX
 10
-1.000000000000000E+20
 20
-1.000000000000000E+20
 30
-1.000000000000000E+20
  9
$PLIMMIN
 10
0.0
 20
0.0
  9
$PLIMMAX
 10
12.0
 20
9.0
  9
$UNITMODE
 70
     0
  9
$VISRETAIN
 70
     1
  9
$PLINEGEN
 70
     0
  9
$PSLTSCALE
 70
     1
  9
$TREEDEPTH
 70
  3020
  9
$CMLSTYLE
  2
Standard
  9
$CMLJUST
 70
     0
  9
$CMLSCALE
 40
1.0
  9
$PROXYGRAPHICS
 70
     1
  9
$MEASUREMENT
 70
     0
  9
$CELWEIGHT
370
    -1
  9
$ENDCAPS
280
     0
  9
$JOINSTYLE
280
     0
  9
$LWDISPLAY
290
     1
  9
$INSUNITS
 70
     1
  9
$HYPERLINKBASE
  1

  9
$STYLESHEET
  1

  9
$XEDIT
290
     1
  9
$CEPSNTYPE
380
     0
  9
$PSTYLEMODE
290
     1
  9
$FINGERPRINTGUID
  2
{2378C9A6-7AF5-803D-5536-56E2634024AE}
  9
$VERSIONGUID
  2
{FAEB1C32-E019-11D5-929B-00C0DF256EC4}
  9
$EXTNAMES
290
     1
  9
$PSVPSCALE
 40
0.0
  9
$OLESTARTUP
290
     0
  9
$SORTENTS
280
   127
  9
$INDEXCTL
280
     0
  9
$HIDETEXT
280
     1
  9
$XCLIPFRAME
280
     2
  9
$HALOGAP
280
     0
  9
$OBSCOLOR
 70
   257
  9
$OBSLTYPE
280
     0
  9
$INTERSECTIONDISPLAY
280
     0
  9
$INTERSECTIONCOLOR
 70
   257
  9
$DIMASSOC
280
     2
  9
$PROJECTNAME
  1

  9
$CAMERADISPLAY
290
     0
  9
$LENSLENGTH
 40
50.0
  9
$CAMERAHEIGHT
 40
0.0
  9
$STEPSPERSEC
 40
2.0
  9
$STEPSIZE
 40
6.0
  9
$3DDWFPREC
 40
2.0
  9
$PSOLWIDTH
 40
0.25
  9
$PSOLHEIGHT
 40
4.0
  9
$LOFTANG1
 40
1.570796326794897
  9
$LOFTANG2
 40
1.570796326794897
  9
$LOFTMAG1
 40
0.0
  9
$LOFTMAG2
 40
0.0
  9
$LOFTPARAM
 70
     7
  9
$LOFTNORMALS
280
     1
  9
$LATITUDE
 40
37.795
  9
$LONGITUDE
 40
-122.394
  9
$NORTHDIRECTION
 40
0.0
  9
$TIMEZONE
 70
 -8000
  9
$LIGHTGLYPHDISPLAY
280
     1
  9
$TILEMODELIGHTSYNCH
280
     1
  9
$CMATERIAL
347
3C
  9
$SOLIDHIST
280
     1
  9
$SHOWHIST
280
     1
  9
$DWFFRAME
280
     2
  9
$DGNFRAME
280
     2
  9
$REALWORLDSCALE
290
     1
  9
$INTERFERECOLOR
 62
   256
  9
$CSHADOW
280
     0
  9
$SHADOWPLANELOCATION
 40
0.0
  0
ENDSEC
  0
SECTION
  2
CLASSES
  0
CLASS
  1
ACDBDICTIONARYWDFLT
  2
AcDbDictionaryWithDefault
  3
ObjectDBX Classes
 90
        0
 91
        4
280
     0
281
     0
  0
CLASS
  1
VISUALSTYLE
  2
AcDbVisualStyle
  3
ObjectDBX Classes
 90
     4095
 91
        4
280
     0
281
     0
  0
CLASS
  1
MATERIAL
  2
AcDbMaterial
  3
ObjectDBX Classes
 90
     1153
 91
        4
280
     0
281
     0
  0
CLASS
  1
SUN
  2
AcDbSun
  3
SCENEOE
 90
     1024
 91
        4
280
     0
281
     0
  0
ENDSEC
  0
SECTION
  2
TABLES
  0
TABLE
  2
VPORT
  5
8
330
0
100
AcDbSymbolTable
 70
     1
  0
VPORT
  5
29
330
8
100
AcDbSymbolTableRecord
100
AcDbViewportTableRecord
  2
*Active
 70
     0
 10
0.0
 20
0.0
 11
1.0
 21
1.0
 12
0.0
 22
0.0
 13
0.0
 23
0.0
 14
0.5
 24
0.5
 15
0.5
 25
0.5
 16
0.0
 26
0.0
 36
1.0
 17
105.0007777515276
 27
148.5000416295416
 37
0.0
 40
24.99999999375009
 41
0.9999999999999869
 42
50.0
 43
0.0
 44
0.0
 50
0.0
 51
0.0
 71
     0
 72
   100
 73
     1
 74
     3
 75
     0
 76
     0
 77
     0
 78
     0
281
     0
 65
     1
110
0.0
120
0.0
130
0.0
111
1.0
121
0.0
131
0.0
112
0.0
122
1.0
132
0.0
 79
     0
146
0.0
 60
     3
 61
     5
292
     1
282
     1
141
0.0
142
0.0
 63
   250
361
3F
  0
ENDTAB
  0
TABLE
  2
LTYPE
  5
5
330
0
100
AcDbSymbolTable
 70
     1
  0
LTYPE
  5
14
330
5
100
AcDbSymbolTableRecord
100
AcDbLinetypeTableRecord
  2
ByBlock
 70
     0
  3

 72
    65
 73
     0
 40
0.0
  0
LTYPE
  5
15
330
5
100
AcDbSymbolTableRecord
100
AcDbLinetypeTableRecord
  2
ByLayer
 70
     0
  3

 72
    65
 73
     0
 40
0.0
  0
LTYPE
  5
16
330
5
100
AcDbSymbolTableRecord
100
AcDbLinetypeTableRecord
  2
Continuous
 70
     0
  3
Solid line
 72
    65
 73
     0
 40
0.0
  0
ENDTAB
  0
TABLE
  2
LAYER
  5
2
330
0
100
AcDbSymbolTable
 70
     1
  0
LAYER
  5
10
330
2
100
AcDbSymbolTableRecord
100
AcDbLayerTableRecord
  2
0
 70
     0
 62
     7
  6
Continuous
370
    -3
390
F
347
3E
  0
ENDTAB
  0
TABLE
  2
STYLE
  5
3
330
0
100
AcDbSymbolTable
 70
     1
  0
STYLE
  5
11
330
3
100
AcDbSymbolTableRecord
100
AcDbTextStyleTableRecord
  2
Standard
 70
     0
 40
0.0
 41
1.0
 50
0.0
 71
     0
 42
0.2
  3
txt
  4

  0
ENDTAB
  0
TABLE
  2
VIEW
  5
6
330
0
100
AcDbSymbolTable
 70
     0
  0
ENDTAB
  0
TABLE
  2
UCS
  5
7
330
0
100
AcDbSymbolTable
 70
     0
  0
ENDTAB
  0
TABLE
  2
APPID
  5
9
330
0
100
AcDbSymbolTable
 70
     1
  0
APPID
  5
12
330
9
100
AcDbSymbolTableRecord
100
AcDbRegAppTableRecord
  2
ACAD
 70
     0
  0
ENDTAB
  0
TABLE
  2
DIMSTYLE
  5
A
330
0
100
AcDbSymbolTable
 70
     1
100
AcDbDimStyleTable
  0
DIMSTYLE
105
27
330
A
100
AcDbSymbolTableRecord
100
AcDbDimStyleTableRecord
  2
Standard
 70
     0
178
     0
340
11
  0
ENDTAB
  0
TABLE
  2
BLOCK_RECORD
  5
1
330
0
100
AcDbSymbolTable
 70
     4
  0
BLOCK_RECORD
  5
1F
330
1
100
AcDbSymbolTableRecord
100
AcDbBlockTableRecord
  2
*Model_Space
340
22
 70
     0
280
     1
281
     0
  0
BLOCK_RECORD
  5
1B
330
1
100
AcDbSymbolTableRecord
100
AcDbBlockTableRecord
  2
*Paper_Space
340
1E
 70
     0
280
     1
281
     0
  0
BLOCK_RECORD
  5
23
330
1
100
AcDbSymbolTableRecord
100
AcDbBlockTableRecord
  2
*Paper_Space0
340
26
 70
     0
280
     1
281
     0
  0
BLOCK_RECORD
  5
40
330
1
100
AcDbSymbolTableRecord
100
AcDbBlockTableRecord
  2
block 2
340
0
102
{BLKREFS
331
41
102
}
 70
     0
280
     1
281
     0
  0
BLOCK_RECORD
  5
4C
330
1
100
AcDbSymbolTableRecord
100
AcDbBlockTableRecord
  2
block 3
340
0
102
{BLKREFS
331
4D
102
}
 70
     0
280
     1
281
     0
  0
BLOCK_RECORD
  5
51
330
1
100
AcDbSymbolTableRecord
100
AcDbBlockTableRecord
  2
block 4
340
0
102
{BLKREFS
331
52
102
}
 70
     0
280
     1
281
     0
  0
ENDTAB
  0
ENDSEC
  0
SECTION
  2
BLOCKS
  0
BLOCK
  5
20
330
1F
100
AcDbEntity
  8
0
100
AcDbBlockBegin
  2
*Model_Space
 70
     0
 10
0.0
 20
0.0
 30
0.0
  3
*Model_Space
  1

  0
ENDBLK
  5
21
330
1F
100
AcDbEntity
  8
0
100
AcDbBlockEnd
  0
BLOCK
  5
1C
330
1B
100
AcDbEntity
 67
     1
  8
0
100
AcDbBlockBegin
  2
*Paper_Space
 70
     0
 10
0.0
 20
0.0
 30
0.0
  3
*Paper_Space
  1

  0
ENDBLK
  5
1D
330
1B
100
AcDbEntity
 67
     1
  8
0
100
AcDbBlockEnd
  0
BLOCK
  5
24
330
23
100
AcDbEntity
  8
0
100
AcDbBlockBegin
  2
*Paper_Space0
 70
     0
 10
0.0
 20
0.0
 30
0.0
  3
*Paper_Space0
  1

  0
ENDBLK
  5
25
330
23
100
AcDbEntity
  8
0
100
AcDbBlockEnd
  0
BLOCK
  5
42
330
40
100
AcDbEntity
  8
0
100
AcDbBlockBegin
  2
block 2
 70
     0
 10
0.0
 20
0.0
 30
0.0
  3
block 2
  1

  0
POLYLINE
  5
44
330
40
100
AcDbEntity
  8
0
 62
     7
420
 16777215
370
     5
100
AcDb2dPolyline
 66
     1
 10
0.0
 20
0.0
 30
0.0
  0
VERTEX
  5
45
330
44
100
AcDbEntity
  8
0
 62
     7
420
 16777215
370
     5
100
AcDbVertex
100
AcDb2dVertex
 10
98.39677775166163
 20
152.3788332964612
 30
0.0
  0
VERTEX
  5
46
330
44
100
AcDbEntity
  8
0
 62
     7
420
 16777215
370
     5
100
AcDbVertex
100
AcDb2dVertex
 10
98.39677775133116
 20
145.0128332964607
 30
0.0
  0
VERTEX
  5
47
330
44
100
AcDbEntity
  8
0
 62
     7
420
 16777215
370
     5
100
AcDbVertex
100
AcDb2dVertex
 10
111.8587777513307
 20
145.0128332958562
 30
0.0
  0
VERTEX
  5
48
330
44
100
AcDbEntity
  8
0
 62
     7
420
 16777215
370
     5
100
AcDbVertex
100
AcDb2dVertex
 10
111.8587777516618
 20
152.3788332958571
 30
0.0
  0
VERTEX
  5
49
330
44
100
AcDbEntity
  8
0
 62
     7
420
 16777215
370
     5
100
AcDbVertex
100
AcDb2dVertex
 10
98.39677775166163
 20
152.3788332964612
 30
0.0
  0
SEQEND
  5
4B
330
44
100
AcDbEntity
  8
0
 62
     7
420
 16777215
370
     5
  0
HATCH
  5
4A
330
40
100
AcDbEntity
  8
0
 62
     7
420
 16777215
100
AcDbHatch
 10
0.0
 20
0.0
 30
0.0
210
0.0
220
0.0
230
1.0
  2
SOLID
 70
     1
 71
     0
 91
        1
 92
        1
 93
        4
 72
     1
 10
98.39677775166163
 20
152.3788332964612
 11
98.39677775133116
 21
145.0128332964607
 72
     1
 10
98.39677775133116
 20
145.0128332964607
 11
111.8587777513307
 21
145.0128332958562
 72
     1
 10
111.8587777513307
 20
145.0128332958562
 11
111.8587777516618
 21
152.3788332958571
 72
     1
 10
111.8587777516618
 20
152.3788332958571
 11
98.39677775166163
 21
152.3788332964612
 97
        0
 75
     2
 76
     1
 98
        0
  0
ENDBLK
  5
43
330
40
100
AcDbEntity
  8
0
100
AcDbBlockEnd
  0
BLOCK
  5
4E
330
4C
100
AcDbEntity
  8
0
100
AcDbBlockBegin
  2
block 3
 70
     0
 10
0.0
 20
0.0
 30
0.0
  3
block 3
  1

  0
SPLINE
  5
50
330
4C
100
AcDbEntity
  8
0
 62
     7
420
 16777215
370
     5
100
AcDbSpline
210
0.0
220
0.0
230
1.0
 70
    11
 71
     3
 72
   404
 73
   400
 74
     0
 42
0.0000000001
 43
0.0000000001
 12
1.0
 22
0.0
 32
0.0
 13
1.0
 23
0.0
 33
0.0
 40
0.0
 40
0.0
 40
0.0
 40
0.0
 40
1.0
 40
1.0
 40
1.0
 40
2.0
 40
2.0
 40
2.0
 40
3.0
 40
3.0
 40
3.0
 40
4.0
 40
4.0
 40
4.0
 40
5.0
 40
5.0
 40
5.0
 40
6.0
 40
6.0
 40
6.0
 40
7.0
 40
7.0
 40
7.0
 40
8.0
 40
8.0
 40
8.0
 40
9.0
 40
9.0
 40
9.0
 40
10.0
 40
10.0
 40
10.0
 40
11.0
 40
11.0
 40
11.0
 40
12.0
 40
12.0
 40
12.0
 40
13.0
 40
13.0
 40
13.0
 40
14.0
 40
14.0
 40
14.0
 40
15.0
 40
15.0
 40
15.0
 40
16.0
 40
16.0
 40
16.0
 40
17.0
 40
17.0
 40
17.0
 40
18.0
 40
18.0
 40
18.0
 40
19.0
 40
19.0
 40
19.0
 40
20.0
 40
20.0
 40
20.0
 40
21.0
 40
21.0
 40
21.0
 40
22.0
 40
22.0
 40
22.0
 40
23.0
 40
23.0
 40
23.0
 40
24.0
 40
24.0
 40
24.0
 40
25.0
 40
25.0
 40
25.0
 40
26.0
 40
26.0
 40
26.0
 40
27.0
 40
27.0
 40
27.0
 40
28.0
 40
28.0
 40
28.0
 40
29.0
 40
29.0
 40
29.0
 40
30.0
 40
30.0
 40
30.0
 40
31.0
 40
31.0
 40
31.0
 40
32.0
 40
32.0
 40
32.0
 40
33.0
 40
33.0
 40
33.0
 40
34.0
 40
34.0
 40
34.0
 40
35.0
 40
35.0
 40
35.0
 40
36.0
 40
36.0
 40
36.0
 40
37.0
 40
37.0
 40
37.0
 40
38.0
 40
38.0
 40
38.0
 40
39.0
 40
39.0
 40
39.0
 40
40.0
 40
40.0
 40
40.0
 40
41.0
 40
41.0
 40
41.0
 40
42.0
 40
42.0
 40
42.0
 40
43.0
 40
43.0
 40
43.0
 40
44.0
 40
44.0
 40
44.0
 40
45.0
 40
45.0
 40
45.0
 40
46.0
 40
46.0
 40
46.0
 40
47.0
 40
47.0
 40
47.0
 40
48.0
 40
48.0
 40
48.0
 40
49.0
 40
49.0
 40
49.0
 40
50.0
 40
50.0
 40
50.0
 40
51.0
 40
51.0
 40
51.0
 40
52.0
 40
52.0
 40
52.0
 40
53.0
 40
53.0
 40
53.0
 40
54.0
 40
54.0
 40
54.0
 40
55.0
 40
55.0
 40
55.0
 40
56.0
 40
56.0
 40
56.0
 40
57.0
 40
57.0
 40
57.0
 40
58.0
 40
58.0
 40
58.0
 40
59.0
 40
59.0
 40
59.0
 40
60.0
 40
60.0
 40
60.0
 40
61.0
 40
61.0
 40
61.0
 40
62.0
 40
62.0
 40
62.0
 40
63.0
 40
63.0
 40
63.0
 40
64.0
 40
64.0
 40
64.0
 40
65.0
 40
65.0
 40
65.0
 40
66.0
 40
66.0
 40
66.0
 40
67.0
 40
67.0
 40
67.0
 40
68.0
 40
68.0
 40
68.0
 40
69.0
 40
69.0
 40
69.0
 40
70.0
 40
70.0
 40
70.0
 40
71.0
 40
71.0
 40
71.0
 40
72.0
 40
72.0
 40
72.0
 40
73.0
 40
73.0
 40
73.0
 40
74.0
 40
74.0
 40
74.0
 40
75.0
 40
75.0
 40
75.0
 40
76.0
 40
76.0
 40
76.0
 40
77.0
 40
77.0
 40
77.0
 40
78.0
 40
78.0
 40
78.0
 40
79.0
 40
79.0
 40
79.0
 40
80.0
 40
80.0
 40
80.0
 40
81.0
 40
81.0
 40
81.0
 40
82.0
 40
82.0
 40
82.0
 40
83.0
 40
83.0
 40
83.0
 40
84.0
 40
84.0
 40
84.0
 40
85.0
 40
85.0
 40
85.0
 40
86.0
 40
86.0
 40
86.0
 40
87.0
 40
87.0
 40
87.0
 40
88.0
 40
88.0
 40
88.0
 40
89.0
 40
89.0
 40
89.0
 40
90.0
 40
90.0
 40
90.0
 40
91.0
 40
91.0
 40
91.0
 40
92.0
 40
92.0
 40
92.0
 40
93.0
 40
93.0
 40
93.0
 40
94.0
 40
94.0
 40
94.0
 40
95.0
 40
95.0
 40
95.0
 40
96.0
 40
96.0
 40
96.0
 40
97.0
 40
97.0
 40
97.0
 40
98.0
 40
98.0
 40
98.0
 40
99.0
 40
99.0
 40
99.0
 40
100.0
 40
100.0
 40
100.0
 40
101.0
 40
101.0
 40
101.0
 40
102.0
 40
102.0
 40
102.0
 40
103.0
 40
103.0
 40
103.0
 40
104.0
 40
104.0
 40
104.0
 40
105.0
 40
105.0
 40
105.0
 40
106.0
 40
106.0
 40
106.0
 40
107.0
 40
107.0
 40
107.0
 40
108.0
 40
108.0
 40
108.0
 40
109.0
 40
109.0
 40
109.0
 40
110.0
 40
110.0
 40
110.0
 40
111.0
 40
111.0
 40
111.0
 40
112.0
 40
112.0
 40
112.0
 40
113.0
 40
113.0
 40
113.0
 40
114.0
 40
114.0
 40
114.0
 40
115.0
 40
115.0
 40
115.0
 40
116.0
 40
116.0
 40
116.0
 40
117.0
 40
117.0
 40
117.0
 40
118.0
 40
118.0
 40
118.0
 40
119.0
 40
119.0
 40
119.0
 40
120.0
 40
120.0
 40
120.0
 40
121.0
 40
121.0
 40
121.0
 40
122.0
 40
122.0
 40
122.0
 40
123.0
 40
123.0
 40
123.0
 40
124.0
 40
124.0
 40
124.0
 40
125.0
 40
125.0
 40
125.0
 40
126.0
 40
126.0
 40
126.0
 40
127.0
 40
127.0
 40
127.0
 40
128.0
 40
128.0
 40
128.0
 40
129.0
 40
129.0
 40
129.0
 40
130.0
 40
130.0
 40
130.0
 40
131.0
 40
131.0
 40
131.0
 40
132.0
 40
132.0
 40
132.0
 40
133.0
 40
133.0
 40
133.0
 40
133.0
 10
104.2748326524626
 20
147.9415067301971
 30
0.0
 10
104.2863577074624
 20
147.9405564791969
 30
0.0
 10
104.2978827620443
 20
147.9396062275793
 30
0.0
 10
104.3092665710225
 20
147.9375552973362
 30
0.0
 10
104.3194788980999
 20
147.9357154236616
 30
0.0
 10
104.3295775543105
 20
147.9329897518428
 30
0.0
 10
104.3391845662958
 20
147.9290879400735
 30
0.0
 10
104.3480796638429
 20
147.925475266709
 30
0.0
 10
104.3565532826163
 20
147.9208543072745
 30
0.0
 10
104.3645866370041
 20
147.9155401689841
 30
0.0
 10
104.3723113845248
 20
147.9104301769925
 30
0.0
 10
104.3796290440542
 20
147.9046792410668
 30
0.0
 10
104.3860372747855
 20
147.8980409644601
 30
0.0
 10
104.3925708456538
 20
147.8912728481922
 30
0.0
 10
104.3981590643326
 20
147.8835823403545
 30
0.0
 10
104.4029719888613
 20
147.8754613458157
 30
0.0
 10
104.4079672387939
 20
147.8670327080582
 30
0.0
 10
104.4121273418741
 20
147.8581403500282
 30
0.0
 10
104.4153907789926
 20
147.8489302935686
 30
0.0
 10
104.4190208035923
 20
147.8386856556932
 30
0.0
 10
104.4215413996812
 20
147.8280479353213
 30
0.0
 10
104.4232936458816
 20
147.8173188270624
 30
0.0
 10
104.4252480073747
 20
147.8053521547818
 30
0.0
 10
104.4262465434561
 20
147.7932717961899
 30
0.0
 10
104.4272450794554
 20
147.7811914371899
 30
0.0
 10
104.427457065455
 20
147.7688541391904
 30
0.0
 10
104.4276690518961
 20
147.7565168407251
 30
0.0
 10
104.4255516078304
 20
147.7444995572036
 30
0.0
 10
104.4233385518906
 20
147.7319396406936
 30
0.0
 10
104.4185809479441
 20
147.7197292917644
 30
0.0
 10
104.4125683268036
 20
147.7083721670604
 30
0.0
 10
104.4084441487076
 20
147.7005820861886
 30
0.0
 10
104.4037295019962
 20
147.6931934357749
 30
0.0
 10
104.3990205556904
 20
147.6857925482556
 30
0.0
 10
104.391936248041
 20
147.6746583877313
 30
0.0
 10
104.3848648422782
 20
147.6634965306295
 30
0.0
 10
104.3775699182414
 20
147.6524876105953
 30
0.0
 10
104.3678531089792
 20
147.6378237737087
 30
0.0
 10
104.3577397306462
 20
147.6234312797847
 30
0.0
 10
104.3476519233532
 20
147.6090218441281
 30
0.0
 10
104.3350182316203
 20
147.5909758641787
 30
0.0
 10
104.3224246464458
 20
147.572903312196
 30
0.0
 10
104.3098310614451
 20
147.5548307591968
 30
0.0
 10
104.2943531654446
 20
147.5351644491964
 30
0.0
 10
104.278875269344
 20
147.5154981396786
 30
0.0
 10
104.2618493715353
 20
147.4972527314673
 30
0.0
 10
104.2449752967347
 20
147.4791700208588
 30
0.0
 10
104.2265807047554
 20
147.4624829836725
 30
0.0
 10
104.2076582864469
 20
147.4464485893691
 30
0.0
 10
104.1885889146459
 20
147.4302896702715
 30
0.0
 10
104.1689834863706
 20
147.4147935704051
 30
0.0
 10
104.148386787383
 20
147.400724861032
 30
0.0
 10
104.1274238316619
 20
147.3864059776099
 30
0.0
 10
104.1054340376269
 20
147.3735657006167
 30
0.0
 10
104.0829058929717
 20
147.361775018832
 30
0.0
 10
104.0604998899559
 20
147.3500482630054
 30
0.0
 10
104.0375613580823
 20
147.3393597519864
 30
0.0
 10
104.0140380555182
 20
147.3301635524656
 30
0.0
 10
103.9913730466827
 20
147.3213028942822
 30
0.0
 10
103.9681651616566
 20
147.3138276344974
 30
0.0
 10
103.9446057277924
 20
147.3075839338148
 30
0.0
 10
103.9213860312168
 20
147.3014302700129
 30
0.0
 10
103.8978248516726
 20
147.2964729021786
 30
0.0
 10
103.8740444196835
 20
147.2934716722368
 30
0.0
 10
103.8504793526354
 20
147.2904976226153
 30
0.0
 10
103.8266989864327
 20
147.2894444402169
 30
0.0
 10
103.8029186204327
 20
147.2883912582189
 30
0.0
 10
103.7761224174328
 20
147.2893394112201
 30
0.0
 10
103.749326214601
 20
147.2902875637105
 30
0.0
 10
103.722760973994
 20
147.2934716720237
 30
0.0
 10
103.696507235801
 20
147.2966184436739
 30
0.0
 10
103.6704790750907
 20
147.3019490412174
 30
0.0
 10
103.6448612886447
 20
147.3087129149409
 30
0.0
 10
103.6191665302742
 20
147.3154971115888
 30
0.0
 10
103.5938846159167
 20
147.3237232102801
 30
0.0
 10
103.5692195662356
 20
147.333550495744
 30
0.0
 10
103.544031836485
 20
147.3435860324105
 30
0.0
 10
103.5194873925313
 20
147.3552913367721
 30
0.0
 10
103.4958358052459
 20
147.3685489048752
 30
0.0
 10
103.471829998735
 20
147.3820050256356
 30
0.0
 10
103.4487439929871
 20
147.397060253423
 30
0.0
 10
103.4264034772833
 20
147.4131436515164
 30
0.0
 10
103.4036820195925
 20
147.4295012976053
 30
0.0
 10
103.3817316923297
 20
147.4469224768868
 30
0.0
 10
103.3609225833905
 20
147.4656412650137
 30
0.0
 10
103.3395446561032
 20
147.4848717324336
 30
0.0
 10
103.3193711904184
 20
147.5054717187255
 30
0.0
 10
103.3005221031293
 20
147.5271707261881
 30
0.0
 10
103.2809410995975
 20
147.5497123132273
 30
0.0
 10
103.2627893234456
 20
147.5734399292433
 30
0.0
 10
103.2446375464473
 20
147.5971675442441
 30
0.0
 10
103.2214075474481
 20
147.6317710102455
 30
0.0
 10
103.1981775485549
 20
147.6663744763303
 30
0.0
 10
103.1768986902098
 20
147.7021627717239
 30
0.0
 10
103.1551388543389
 20
147.7387600092836
 30
0.0
 10
103.135419361259
 20
147.7765962441767
 30
0.0
 10
103.1170627010064
 20
147.8150608647934
 30
0.0
 10
103.0984276214045
 20
147.8541088864486
 30
0.0
 10
103.0811970288874
 20
147.8938045001028
 30
0.0
 10
103.0656940681866
 20
147.9341683546419
 30
0.0
 10
103.0496714730338
 20
147.9758851410386
 30
0.0
 10
103.0354942655747
 20
148.0183157158074
 30
0.0
 10
103.0227927924923
 20
148.061178710085
 30
0.0
 10
103.0099248618178
 20
148.1046034400591
 30
0.0
 10
102.9985715990891
 20
148.1484719978498
 30
0.0
 10
102.9889233645795
 20
148.1927049885607
 30
0.0
 10
102.9792643858854
 20
148.2369872367143
 30
0.0
 10
102.9713142349317
 20
148.2816347298976
 30
0.0
 10
102.9646502744608
 20
148.3264892302795
 30
0.0
 10
102.9579684771291
 20
148.3714637889158
 30
0.0
 10
102.9525797647704
 20
148.4166464643911
 30
0.0
 10
102.9494090316527
 20
148.4619669429575
 30
0.0
 10
102.9462166018171
 20
148.5075975408755
 30
0.0
 10
102.9452726094899
 20
148.5533678342573
 30
0.0
 10
102.9443286174918
 20
148.5991381272571
 30
0.0
 10
102.9456711394941
 20
148.6485047292571
 30
0.0
 10
102.9470136618666
 20
148.6978713307355
 30
0.0
 10
102.9511025029595
 20
148.7470346292021
 30
0.0
 10
102.9551594783041
 20
148.795814781123
 30
0.0
 10
102.9619201331517
 20
148.8443947865058
 30
0.0
 10
102.9702951792175
 20
148.8926731703024
 30
0.0
 10
102.9786838798766
 20
148.9410302667064
 30
0.0
 10
102.9886922402205
 20
148.9890847572012
 30
0.0
 10
103.0007776644642
 20
149.0366182404589
 30
0.0
 10
103.0129238601512
 20
149.0843907453956
 30
0.0
 10
103.0271680612505
 20
149.131636990161
 30
0.0
 10
103.0431144490076
 20
149.1783053480094
 30
0.0
 10
103.058646727065
 20
149.223761781255
 30
0.0
 10
103.0757939319701
 20
149.2686699520091
 30
0.0
 10
103.0950475721742
 20
149.3126540796592
 30
0.0
 10
103.1133039500162
 20
149.3543600035723
 30
0.0
 10
103.1334542043417
 20
149.3952351288826
 30
0.0
 10
103.1554480526132
 20
149.4351485113114
 30
0.0
 10
103.1761072402732
 20
149.4726398155849
 30
0.0
 10
103.1983930599091
 20
149.5092825589669
 30
0.0
 10
103.2231869089707
 20
149.5440951714737
 30
0.0
 10
103.2470412720269
 20
149.5775886680101
 30
0.0
 10
103.2732171975377
 20
149.6093881002427
 30
0.0
 10
103.299393122539
 20
149.641187532241
 30
0.0
 10
103.3182712255396
 20
149.6603349612404
 30
0.0
 10
103.3371493279813
 20
149.6794823897129
 30
0.0
 10
103.356971150085
 20
149.6976365794913
 30
0.0
 10
103.3758933806305
 20
149.7149668613675
 30
0.0
 10
103.395675615261
 20
149.7313920128651
 30
0.0
 10
103.4162426496892
 20
149.7467472502628
 30
0.0
 10
103.4359043145503
 20
149.7614265436059
 30
0.0
 10
103.4562832055524
 20
149.7751280457154
 30
0.0
 10
103.4772076200803
 20
149.7879550543989
 30
0.0
 10
103.4975380959347
 20
149.800417968951
 30
0.0
 10
103.5183835655185
 20
149.8120553304146
 30
0.0
 10
103.5398660621518
 20
149.8223889731118
 30
0.0
 10
103.5607806209955
 20
149.8324494228795
 30
0.0
 10
103.5822989696582
 20
149.8412741761125
 30
0.0
 10
103.6042179757735
 20
149.8489200249309
 30
0.0
 10
103.6258759456344
 20
149.8564748183555
 30
0.0
 10
103.6479250868104
 20
149.8628786196125
 30
0.0
 10
103.6702633601453
 20
149.8681127012214
 30
0.0
 10
103.6924180498539
 20
149.8733037673446
 30
0.0
 10
103.7148571388748
 20
149.8773442611342
 30
0.0
 10
103.737437726128
 20
149.8799670009546
 30
0.0
 10
103.7605171006183
 20
149.882647675015
 30
0.0
 10
103.7837442935497
 20
149.8838472692197
 30
0.0
 10
103.80697148555
 20
149.8850468642185
 30
0.0
 10
103.80697148555
 20
149.8850468642185
 30
0.0
 10
103.8068700535497
 20
149.8844829242184
 30
0.0
 10
103.8068700535497
 20
149.8844829242184
 30
0.0
 10
103.8332836855498
 20
149.8837129052176
 30
0.0
 10
103.8596973166336
 20
149.8829428861606
 30
0.0
 10
103.8858987195714
 20
149.8799670009055
 30
0.0
 10
103.9110011161577
 20
149.8771159378522
 30
0.0
 10
103.9359087148497
 20
149.8722401758979
 30
0.0
 10
103.9604114614549
 20
149.8658547391959
 30
0.0
 10
103.984634994437
 20
149.8595420658023
 30
0.0
 10
104.0084628495014
 20
149.8517539277105
 30
0.0
 10
104.0315372603245
 20
149.8421461394616
 30
0.0
 10
104.0546906744511
 20
149.8325054555943
 30
0.0
 10
104.0770854761462
 20
149.821032639823
 30
0.0
 10
104.0987116265463
 20
149.808276710911
 30
0.0
 10
104.1212605285862
 20
149.7949765078629
 30
0.0
 10
104.1429737858051
 20
149.7802813590766
 30
0.0
 10
104.1636280299716
 20
149.764246454516
 30
0.0
 10
104.1859583629094
 20
149.7469103198899
 30
0.0
 10
104.2070508313828
 20
149.7280081648443
 30
0.0
 10
104.2274154530793
 20
149.7083618984487
 30
0.0
 10
104.2494686282995
 20
149.687086641697
 30
0.0
 10
104.2706682524219
 20
149.6649387602659
 30
0.0
 10
104.2906383854
 20
149.6417520234359
 30
0.0
 10
104.3123008362874
 20
149.6166003858193
 30
0.0
 10
104.332516586536
 20
149.590226362195
 30
0.0
 10
104.3527323375347
 20
149.5638523381941
 30
0.0
 10
104.3600772025352
 20
149.5540773521938
 30
0.0
 10
104.3674220674664
 20
149.5443023663452
 30
0.0
 10
104.3747474658188
 20
149.5344988341731
 30
0.0
 10
104.3809704199518
 20
149.5261706958094
 30
0.0
 10
104.3871793258946
 20
149.517821956797
 30
0.0
 10
104.3928111608064
 20
149.5090967630425
 30
0.0
 10
104.3974290992283
 20
149.5019423616586
 30
0.0
 10
104.4016590430193
 20
149.494534850325
 30
0.0
 10
104.4057944416125
 20
149.4870816341937
 30
0.0
 10
104.4089807347717
 20
149.4813389878606
 30
0.0
 10
104.4121109003672
 20
149.475569208485
 30
0.0
 10
104.4148262888996
 20
149.4695824297724
 30
0.0
 10
104.4196276461483
 20
149.458996591672
 30
0.0
 10
104.4231321860304
 20
149.4477322963174
 30
0.0
 10
104.4249871172076
 20
149.4362774922341
 30
0.0
 10
104.4268554064984
 20
149.4247401974476
 30
0.0
 10
104.4270502425284
 20
149.4130096401908
 30
0.0
 10
104.4272450795279
 20
149.4012790831907
 30
0.0
 10
104.426548106527
 20
149.389177182191
 30
0.0
 10
104.4258511339188
 20
149.3770752810946
 30
0.0
 10
104.4238581362926
 20
149.3651516931396
 30
0.0
 10
104.4220606694678
 20
149.3543979152709
 30
0.0
 10
104.4192090060976
 20
149.3437891786594
 30
0.0
 10
104.4153907793321
 20
149.3335402269988
 30
0.0
 10
104.4116500211049
 20
149.3234992177553
 30
0.0
 10
104.406981523077
 20
149.3138035421134
 30
0.0
 10
104.4012785177303
 20
149.3047512129633
 30
0.0
 10
104.3957743223666
 20
149.2960144531115
 30
0.0
 10
104.3893064895055
 20
149.2878769667412
 30
0.0
 10
104.3820858418823
 20
149.2804781230593
 30
0.0
 10
104.3748844429818
 20
149.2730990031341
 30
0.0
 10
104.3669342376601
 20
149.2664545930153
 30
0.0
 10
104.3583772418428
 20
149.2607209566065
 30
0.0
 10
104.3500450687557
 20
149.2551379632285
 30
0.0
 10
104.3411375713975
 20
149.250418513735
 30
0.0
 10
104.3318461899519
 20
149.2466086950262
 30
0.0
 10
104.3218488724316
 20
149.2425094157578
 30
0.0
 10
104.3114071217042
 20
149.2394632411674
 30
0.0
 10
104.3007992137893
 20
149.2375768474002
 30
0.0
 10
104.289632161245
 20
149.2355910214972
 30
0.0
 10
104.27828097352
 20
149.2348904631976
 30
0.0
 10
104.2669297865201
 20
149.2341899041983
 30
0.0
 10
104.25151465452
 20
149.2344828631985
 30
0.0
 10
104.2360995228594
 20
149.2347758213994
 30
0.0
 10
104.2212060582357
 20
149.2381413377734
 30
0.0
 10
104.206846008246
 20
149.2413863170039
 30
0.0
 10
104.1929709270822
 20
149.2474877062114
 30
0.0
 10
104.1805627440538
 20
149.2556405423599
 30
0.0
 10
104.1672317594359
 20
149.2643997082297
 30
0.0
 10
104.1555939739173
 20
149.2755268013823
 30
0.0
 10
104.1455643352048
 20
149.287816498894
 30
0.0
 10
104.1339710705471
 20
149.3020221667049
 30
0.0
 10
104.1245264605241
 20
149.3177811972043
 30
0.0
 10
104.1150818495244
 20
149.3335402272045
 30
0.0
 10
104.1038160105259
 20
149.3519189172052
 30
0.0
 10
104.0925501705654
 20
149.3702976069621
 30
0.0
 10
104.0806479313964
 20
149.3882958022521
 30
0.0
 10
104.0697196844051
 20
149.4048211569128
 30
0.0
 10
104.0582549330129
 20
149.4210257428584
 30
0.0
 10
104.0456495221913
 20
149.4362774921478
 30
0.0
 10
104.0342044312372
 20
149.4501253278356
 30
0.0
 10
104.0218190098685
 20
149.4631876693909
 30
0.0
 10
104.0089576415023
 20
149.4757918254731
 30
0.0
 10
103.9971277873171
 20
149.4873850964483
 30
0.0
 10
103.984895268931
 20
149.4985907299583
 30
0.0
 10
103.9717012704916
 20
149.5085322727929
 30
0.0
 10
103.9594125143344
 20
149.5177917248286
 30
0.0
 10
103.9462896866899
 20
149.5259545945833
 30
0.0
 10
103.9327514282742
 20
149.5333698532311
 30
0.0
 10
103.9200184447612
 20
149.5403440417277
 30
0.0
 10
103.9069179814942
 20
149.5466569119872
 30
0.0
 10
103.8932370955733
 20
149.5514335480262
 30
0.0
 10
103.880087287359
 20
149.5560247600409
 30
0.0
 10
103.8664012446476
 20
149.559196692883
 30
0.0
 10
103.8525937817879
 20
149.5610298860095
 30
0.0
 10
103.8387510443297
 20
149.5628677624838
 30
0.0
 10
103.8247862655347
 20
149.5633600502177
 30
0.0
 10
103.8108214875348
 20
149.5638523382185
 30
0.0
 10
103.7928396535348
 20
149.5619966392192
 30
0.0
 10
103.7748578204152
 20
149.5601409410361
 30
0.0
 10
103.7571948922343
 20
149.5565139622256
 30
0.0
 10
103.7394801694479
 20
149.5528763476963
 30
0.0
 10
103.7220862246498
 20
149.5474570491351
 30
0.0
 10
103.7052617695169
 20
149.5407082289375
 30
0.0
 10
103.6878921831693
 20
149.5337407393964
 30
0.0
 10
103.6711295885636
 20
149.5253561764593
 30
0.0
 10
103.6550221179811
 20
149.5158706483004
 30
0.0
 10
103.6383272707913
 20
149.5060392199377
 30
0.0
 10
103.6223361984281
 20
149.4950250665033
 30
0.0
 10
103.6070404274533
 20
149.4831302009263
 30
0.0
 10
103.5906101856967
 20
149.4703531060412
 30
0.0
 10
103.574982209705
 20
149.4565598112578
 30
0.0
 10
103.560187719013
 20
149.4419223971682
 30
0.0
 10
103.5443595311018
 20
149.4262622608672
 30
0.0
 10
103.5294853693909
 20
149.4096359264417
 30
0.0
 10
103.5155929721775
 20
149.3922472357056
 30
0.0
 10
103.5005300209235
 20
149.3733933981043
 30
0.0
 10
103.4866212484367
 20
149.3536433216725
 30
0.0
 10
103.473256187034
 20
149.3335402272413
 30
0.0
 10
103.458793264859
 20
149.3117857824605
 30
0.0
 10
103.4449670478424
 20
149.2896179409552
 30
0.0
 10
103.4320483825868
 20
149.2669303516093
 30
0.0
 10
103.4185146315414
 20
149.2431625567226
 30
0.0
 10
103.4059769106344
 20
149.2188243431156
 30
0.0
 10
103.3942275211227
 20
149.1941110814031
 30
0.0
 10
103.3824254247928
 20
149.1692869579828
 30
0.0
 10
103.3714187485049
 20
149.1440844140384
 30
0.0
 10
103.361487073953
 20
149.1184693587668
 30
0.0
 10
103.3513338032114
 20
149.0922827786604
 30
0.0
 10
103.3423040403947
 20
149.0656650739062
 30
0.0
 10
103.3338270409833
 20
149.0388762022533
 30
0.0
 10
103.3251995806752
 20
149.011611846593
 30
0.0
 10
103.3171446802526
 20
148.9841701939193
 30
0.0
 10
103.310118440985
 20
148.9564605937287
 30
0.0
 10
103.3028795780915
 20
148.9279124630739
 30
0.0
 10
103.2967325757424
 20
148.8990799226105
 30
0.0
 10
103.2914902554228
 20
148.8700935518312
 30
0.0
 10
103.2861044916565
 20
148.8403140389512
 30
0.0
 10
103.2816735961486
 20
148.8103721621901
 30
0.0
 10
103.2779424843957
 20
148.7803395679456
 30
0.0
 10
103.274119081119
 20
148.7495640975579
 30
0.0
 10
103.2710305089925
 20
148.7186933662667
 30
0.0
 10
103.2689106368599
 20
148.687763130248
 30
0.0
 10
103.2667083209778
 20
148.6556299893028
 30
0.0
 10
103.2655515174934
 20
148.6234326252427
 30
0.0
 10
103.2643947134911
 20
148.5912352602429
 30
0.0
 10
103.2655589194899
 20
148.5590385752429
 30
0.0
 10
103.2667231256119
 20
148.5268418896468
 30
0.0
 10
103.2689106369625
 20
148.4947073903861
 30
0.0
 10
103.2710289772335
 20
148.463589012929
 30
0.0
 10
103.2741069302525
 20
148.4325289512104
 30
0.0
 10
103.2779424846697
 20
148.4015664626988
 30
0.0
 10
103.2816858612708
 20
148.3713480790133
 30
0.0
 10
103.2861508627753
 20
148.3412226350401
 30
0.0
 10
103.2914902558001
 20
148.3112479876732
 30
0.0
 10
103.2966488176929
 20
148.2822885023979
 30
0.0
 10
103.3026235473702
 20
148.2534697725268
 30
0.0
 10
103.3095539508454
 20
148.2248809460304
 30
0.0
 10
103.3163630249291
 20
148.1967926192395
 30
0.0
 10
103.3240946040779
 20
148.1689262165274
 30
0.0
 10
103.3326980602044
 20
148.1413363568787
 30
0.0
 10
103.341113419815
 20
148.1143496916206
 30
0.0
 10
103.3503629496274
 20
148.0876276095416
 30
0.0
 10
103.36035809314
 20
148.0611787103584
 30
0.0
 10
103.3702313470058
 20
148.0350523525165
 30
0.0
 10
103.3808321401052
 20
148.0091925553274
 30
0.0
 10
103.392534050183
 20
147.9838435155652
 30
0.0
 10
103.4040316869767
 20
147.9589369789115
 30
0.0
 10
103.4165923331993
 20
147.9345235233492
 30
0.0
 10
103.4297904204936
 20
147.910459755246
 30
0.0
 10
103.442412459871
 20
147.8874462820201
 30
0.0
 10
103.4556175107347
 20
147.8647526372693
 30
0.0
 10
103.4698692439411
 20
147.8427208988802
 30
0.0
 10
103.4830583543793
 20
147.822331867839
 30
0.0
 10
103.4971438827586
 20
147.8025097181839
 30
0.0
 10
103.5122060291218
 20
147.7834493989122
 30
0.0
 10
103.5260200877544
 20
147.7659684661408
 30
0.0
 10
103.5406556199284
 20
147.749128340229
 30
0.0
 10
103.5562362854918
 20
147.7332097473732
 30
0.0
 10
103.5706808210142
 20
147.7184519259555
 30
0.0
 10
103.5859376786155
 20
147.7044861426327
 30
0.0
 10
103.6019600135459
 20
147.6914374530097
 30
0.0
 10
103.6170352378953
 20
147.6791600961586
 30
0.0
 10
103.6327881166855
 20
147.667694615238
 30
0.0
 10
103.6493772131679
 20
147.6575680245733
 30
0.0
 10
103.6650447846996
 20
147.6480039664118
 30
0.0
 10
103.6814582504804
 20
147.6396341792518
 30
0.0
 10
103.6984878840729
 20
147.6327304441887
 30
0.0
 10
103.7151186842242
 20
147.6259883943671
 30
0.0
 10
103.732337128894
 20
147.6206445309832
 30
0.0
 10
103.7498565162751
 20
147.6169247110228
 30
0.0
 10
103.7673439862729
 20
147.6132116679485
 30
0.0
 10
103.7851313034478
 20
147.6111167562192
 30
0.0
 10
103.8029186204475
 20
147.6090218442192
 30
0.0
 10
103.8185925374478
 20
147.6094071822182
 30
0.0
 10
103.8342664540848
 20
147.6097925204315
 30
0.0
 10
103.8497713295135
 20
147.6118442967393
 30
0.0
 10
103.8651036914888
 20
147.6138732441637
 30
0.0
 10
103.880270752969
 20
147.6175317530663
 30
0.0
 10
103.8949305675037
 20
147.6225696156615
 30
0.0
 10
103.909376326607
 20
147.627533917856
 30
0.0
 10
103.9233295437602
 20
147.6338375865319
 30
0.0
 10
103.9367028620212
 20
147.6411978010061
 30
0.0
 10
103.9507565666477
 20
147.6489324767371
 30
0.0
 10
103.9641698650235
 20
147.6578339395422
 30
0.0
 10
103.9767816852557
 20
147.6677288527424
 30
0.0
 10
103.9908302996174
 20
147.678751038051
 30
0.0
 10
104.0038844177903
 20
147.691005924011
 30
0.0
 10
104.0162960178495
 20
147.703856242697
 30
0.0
 10
104.0306744208295
 20
147.7187428858052
 30
0.0
 10
104.0441905382098
 20
147.7344286239933
 30
0.0
 10
104.0569393314519
 20
147.7507089521769
 30
0.0
 10
104.0717491137819
 20
147.7696211826996
 30
0.0
 10
104.0855234248358
 20
147.7893357871212
 30
0.0
 10
104.0987116258629
 20
147.8094159605988
 30
0.0
 10
104.1137052603817
 20
147.8322450622774
 30
0.0
 10
104.1279413264589
 20
147.8555466752038
 30
0.0
 10
104.1421773924597
 20
147.8788482882034
 30
0.0
 10
104.1489741514597
 20
147.8882567292039
 30
0.0
 10
104.1557709109975
 20
147.8976651702803
 30
0.0
 10
104.1641925205013
 20
147.9053793403208
 30
0.0
 10
104.172875370124
 20
147.9133328055545
 30
0.0
 10
104.1832854396141
 20
147.9194852561358
 30
0.0
 10
104.1941105151906
 20
147.9245720163441
 30
0.0
 10
104.2059075724479
 20
147.9301155158798
 30
0.0
 10
104.218197508309
 20
147.9343933569077
 30
0.0
 10
104.2308023957769
 20
147.9369908068284
 30
0.0
 10
104.2452050175657
 20
147.9399587102641
 30
0.0
 10
104.2600188354627
 20
147.9407327201979
 30
0.0
 10
104.2748326524626
 20
147.9415067301971
 30
0.0
  0
ENDBLK
  5
4F
330
4C
100
AcDbEntity
  8
0
100
AcDbBlockEnd
  0
BLOCK
  5
53
330
51
100
AcDbEntity
  8
0
100
AcDbBlockBegin
  2
block 4
 70
     0
 10
0.0
 20
0.0
 30
0.0
  3
block 4
  1

  0
SPLINE
  5
55
330
51
100
AcDbEntity
  8
0
 62
     7
420
 16777215
370
     5
100
AcDbSpline
210
0.0
220
0.0
230
1.0
 70
    11
 71
     3
 72
   299
 73
   295
 74
     0
 42
0.0000000001
 43
0.0000000001
 12
1.0
 22
0.0
 32
0.0
 13
1.0
 23
0.0
 33
0.0
 40
0.0
 40
0.0
 40
0.0
 40
0.0
 40
1.0
 40
1.0
 40
1.0
 40
2.0
 40
2.0
 40
2.0
 40
3.0
 40
3.0
 40
3.0
 40
4.0
 40
4.0
 40
4.0
 40
5.0
 40
5.0
 40
5.0
 40
6.0
 40
6.0
 40
6.0
 40
7.0
 40
7.0
 40
7.0
 40
8.0
 40
8.0
 40
8.0
 40
9.0
 40
9.0
 40
9.0
 40
10.0
 40
10.0
 40
10.0
 40
11.0
 40
11.0
 40
11.0
 40
12.0
 40
12.0
 40
12.0
 40
13.0
 40
13.0
 40
13.0
 40
14.0
 40
14.0
 40
14.0
 40
15.0
 40
15.0
 40
15.0
 40
16.0
 40
16.0
 40
16.0
 40
17.0
 40
17.0
 40
17.0
 40
18.0
 40
18.0
 40
18.0
 40
19.0
 40
19.0
 40
19.0
 40
20.0
 40
20.0
 40
20.0
 40
21.0
 40
21.0
 40
21.0
 40
22.0
 40
22.0
 40
22.0
 40
23.0
 40
23.0
 40
23.0
 40
24.0
 40
24.0
 40
24.0
 40
25.0
 40
25.0
 40
25.0
 40
26.0
 40
26.0
 40
26.0
 40
27.0
 40
27.0
 40
27.0
 40
28.0
 40
28.0
 40
28.0
 40
29.0
 40
29.0
 40
29.0
 40
30.0
 40
30.0
 40
30.0
 40
31.0
 40
31.0
 40
31.0
 40
32.0
 40
32.0
 40
32.0
 40
33.0
 40
33.0
 40
33.0
 40
34.0
 40
34.0
 40
34.0
 40
35.0
 40
35.0
 40
35.0
 40
36.0
 40
36.0
 40
36.0
 40
37.0
 40
37.0
 40
37.0
 40
38.0
 40
38.0
 40
38.0
 40
39.0
 40
39.0
 40
39.0
 40
40.0
 40
40.0
 40
40.0
 40
41.0
 40
41.0
 40
41.0
 40
42.0
 40
42.0
 40
42.0
 40
43.0
 40
43.0
 40
43.0
 40
44.0
 40
44.0
 40
44.0
 40
45.0
 40
45.0
 40
45.0
 40
46.0
 40
46.0
 40
46.0
 40
47.0
 40
47.0
 40
47.0
 40
48.0
 40
48.0
 40
48.0
 40
49.0
 40
49.0
 40
49.0
 40
50.0
 40
50.0
 40
50.0
 40
51.0
 40
51.0
 40
51.0
 40
52.0
 40
52.0
 40
52.0
 40
53.0
 40
53.0
 40
53.0
 40
54.0
 40
54.0
 40
54.0
 40
55.0
 40
55.0
 40
55.0
 40
56.0
 40
56.0
 40
56.0
 40
57.0
 40
57.0
 40
57.0
 40
58.0
 40
58.0
 40
58.0
 40
59.0
 40
59.0
 40
59.0
 40
60.0
 40
60.0
 40
60.0
 40
61.0
 40
61.0
 40
61.0
 40
62.0
 40
62.0
 40
62.0
 40
63.0
 40
63.0
 40
63.0
 40
64.0
 40
64.0
 40
64.0
 40
65.0
 40
65.0
 40
65.0
 40
66.0
 40
66.0
 40
66.0
 40
67.0
 40
67.0
 40
67.0
 40
68.0
 40
68.0
 40
68.0
 40
69.0
 40
69.0
 40
69.0
 40
70.0
 40
70.0
 40
70.0
 40
71.0
 40
71.0
 40
71.0
 40
72.0
 40
72.0
 40
72.0
 40
73.0
 40
73.0
 40
73.0
 40
74.0
 40
74.0
 40
74.0
 40
75.0
 40
75.0
 40
75.0
 40
76.0
 40
76.0
 40
76.0
 40
77.0
 40
77.0
 40
77.0
 40
78.0
 40
78.0
 40
78.0
 40
79.0
 40
79.0
 40
79.0
 40
80.0
 40
80.0
 40
80.0
 40
81.0
 40
81.0
 40
81.0
 40
82.0
 40
82.0
 40
82.0
 40
83.0
 40
83.0
 40
83.0
 40
84.0
 40
84.0
 40
84.0
 40
85.0
 40
85.0
 40
85.0
 40
86.0
 40
86.0
 40
86.0
 40
87.0
 40
87.0
 40
87.0
 40
88.0
 40
88.0
 40
88.0
 40
89.0
 40
89.0
 40
89.0
 40
90.0
 40
90.0
 40
90.0
 40
91.0
 40
91.0
 40
91.0
 40
92.0
 40
92.0
 40
92.0
 40
93.0
 40
93.0
 40
93.0
 40
94.0
 40
94.0
 40
94.0
 40
95.0
 40
95.0
 40
95.0
 40
96.0
 40
96.0
 40
96.0
 40
97.0
 40
97.0
 40
97.0
 40
98.0
 40
98.0
 40
98.0
 40
98.0
 10
106.010607768509
 20
148.9792871771195
 30
0.0
 10
106.010607768509
 20
148.9792871771195
 30
0.0
 10
105.6629147154402
 20
147.4492710411359
 30
0.0
 10
105.6629147154402
 20
147.4492710411359
 30
0.0
 10
105.6596348074398
 20
147.4350835291351
 30
0.0
 10
105.6563548993989
 20
147.4208960165272
 30
0.0
 10
105.6521893966009
 20
147.406934256398
 30
0.0
 10
105.6486290784203
 20
147.3950009290596
 30
0.0
 10
105.6444217996903
 20
147.3832325224684
 30
0.0
 10
105.6392061157229
 20
147.3719358472937
 30
0.0
 10
105.6346862752718
 20
147.362146302961
 30
0.0
 10
105.6294091508493
 20
147.3527110156546
 30
0.0
 10
105.6234003827278
 20
147.3437113238707
 30
0.0
 10
105.6182582721618
 20
147.3360096769963
 30
0.0
 10
105.6125803506663
 20
147.3286270335415
 30
0.0
 10
105.6059011782
 20
147.3222606858596
 30
0.0
 10
105.5996628551658
 20
147.3163145400474
 30
0.0
 10
105.5925510915746
 20
147.3112549591149
 30
0.0
 10
105.585015030974
 20
147.3070194434083
 30
0.0
 10
105.5771296598642
 20
147.3025876036242
 30
0.0
 10
105.5687797462243
 20
147.2990579934981
 30
0.0
 10
105.5601774502807
 20
147.2962941243219
 30
0.0
 10
105.5509884684374
 20
147.2933417562761
 30
0.0
 10
105.5415115048696
 20
147.2912631396611
 30
0.0
 10
105.5319529267736
 20
147.2900847290277
 30
0.0
 10
105.5211094650174
 20
147.2887479140214
 30
0.0
 10
105.5101609724329
 20
147.288569586142
 30
0.0
 10
105.4992124794332
 20
147.2883912581419
 30
0.0
 10
105.4874850214333
 20
147.2891010011431
 30
0.0
 10
105.4757575628814
 20
147.2898107439016
 30
0.0
 10
105.4642140704591
 20
147.2917782010417
 30
0.0
 10
105.4536492276148
 20
147.2935788584782
 30
0.0
 10
105.4432384801113
 20
147.2964330137903
 30
0.0
 10
105.4331670946719
 20
147.3002455579592
 30
0.0
 10
105.4236863210001
 20
147.3038345247998
 30
0.0
 10
105.4145062743244
 20
147.3082727716062
 30
0.0
 10
105.4060715521114
 20
147.3137933291281
 30
0.0
 10
105.3976764607491
 20
147.3192879481097
 30
0.0
 10
105.3900197064349
 20
147.3258547311475
 30
0.0
 10
105.3823629524351
 20
147.3324215141481
 30
0.0
 10
105.3772895844351
 20
147.3360392061483
 30
0.0
 10
105.372216216754
 20
147.3396568977082
 30
0.0
 10
105.368250690895
 20
147.3442758145134
 30
0.0
 10
105.3635781507169
 20
147.349718238827
 30
0.0
 10
105.3604437023956
 20
147.356550731979
 30
0.0
 10
105.3580898626431
 20
147.3634684900964
 30
0.0
 10
105.3563081241665
 20
147.3687048855638
 30
0.0
 10
105.3549736532964
 20
147.373990135553
 30
0.0
 10
105.3535739385601
 20
147.3792742231018
 30
0.0
 10
105.351533521239
 20
147.3869770381662
 30
0.0
 10
105.3493544607028
 20
147.3946773830461
 30
0.0
 10
105.3473645431902
 20
147.4024183322207
 30
0.0
 10
105.3446696384648
 20
147.4129017418925
 30
0.0
 10
105.3423216359037
 20
147.4234596228169
 30
0.0
 10
105.3400261671575
 20
147.4340297986269
 30
0.0
 10
105.33719452139
 20
147.4470689626947
 30
0.0
 10
105.3344428174409
 20
147.4601268361501
 30
0.0
 10
105.3316911124413
 20
147.4731847101496
 30
0.0
 10
105.3316911124413
 20
147.4731847101496
 30
0.0
 10
104.8398876125382
 20
149.630462213172
 30
0.0
 10
104.8398876125382
 20
149.630462213172
 30
0.0
 10
104.837475986539
 20
149.6404397581722
 30
0.0
 10
104.8350643614408
 20
149.6504173018017
 30
0.0
 10
104.832549236108
 20
149.6603802082851
 30
0.0
 10
104.8307045242399
 20
149.6676874750808
 30
0.0
 10
104.8288041349452
 20
149.6749868678981
 30
0.0
 10
104.8274688218858
 20
149.6823953366655
 30
0.0
 10
104.8264260264471
 20
149.6881808843898
 30
0.0
 10
104.825727849912
 20
149.6940329534644
 30
0.0
 10
104.8252108601787
 20
149.699894541013
 30
0.0
 10
104.8247300618052
 20
149.7053457938644
 30
0.0
 10
104.824405970542
 20
149.7108052791732
 30
0.0
 10
104.824081878542
 20
149.7162647651728
 30
0.0
 10
104.8247930545425
 20
149.7272402211732
 30
0.0
 10
104.8255042300667
 20
149.7382156771322
 30
0.0
 10
104.8274688214815
 20
149.7490052120233
 30
0.0
 10
104.8293663983355
 20
149.7594267029855
 30
0.0
 10
104.8324333384945
 20
149.7696747405272
 30
0.0
 10
104.8365006692413
 20
149.7794876972737
 30
0.0
 10
104.8403451954189
 20
149.7887631094429
 30
0.0
 10
104.8450835131835
 20
149.797649801887
 30
0.0
 10
104.8506129310709
 20
149.8060187495767
 30
0.0
 10
104.8563717234232
 20
149.814734862725
 30
0.0
 10
104.8629886109592
 20
149.8228893854148
 30
0.0
 10
104.8703700971014
 20
149.8302918393036
 30
0.0
 10
104.877751583304
 20
149.8376942932517
 30
0.0
 10
104.8858976681257
 20
149.8443446783855
 30
0.0
 10
104.8946431873382
 20
149.8500490059765
 30
0.0
 10
104.9031799527725
 20
149.8556171724195
 30
0.0
 10
104.9122878773787
 20
149.8602839066924
 30
0.0
 10
104.921738730192
 20
149.8641612677733
 30
0.0
 10
104.9314065057015
 20
149.8681276248036
 30
0.0
 10
104.9414331323448
 20
149.8712679562698
 30
0.0
 10
104.9516567252503
 20
149.8731931153143
 30
0.0
 10
104.9624245447077
 20
149.8752207552261
 30
0.0
 10
104.9734108585491
 20
149.875900406166
 30
0.0
 10
104.984397172549
 20
149.8765800581659
 30
0.0
 10
104.9945937195489
 20
149.8763821191652
 30
0.0
 10
105.004790267252
 20
149.8761841806092
 30
0.0
 10
105.0148796575004
 20
149.8748865866791
 30
0.0
 10
105.0240663220177
 20
149.8737050920778
 30
0.0
 10
105.0331641465936
 20
149.8716119173797
 30
0.0
 10
105.0419751997985
 20
149.8686771911376
 30
0.0
 10
105.0503865959319
 20
149.86587557998
 30
0.0
 10
105.0585366457876
 20
149.8623070290747
 30
0.0
 10
105.0662482896689
 20
149.8579518722806
 30
0.0
 10
105.0736664717224
 20
149.8537624482791
 30
0.0
 10
105.0806789794642
 20
149.8488451468757
 30
0.0
 10
105.0871344372196
 20
149.8432751203561
 30
0.0
 10
105.0937995674057
 20
149.8375241800976
 30
0.0
 10
105.099870874127
 20
149.8310774252814
 30
0.0
 10
105.1051981326377
 20
149.8240824445719
 30
0.0
 10
105.1108341254987
 20
149.816682078837
 30
0.0
 10
105.1156373304694
 20
149.8086681024793
 30
0.0
 10
105.1198748847794
 20
149.8003738447067
 30
0.0
 10
105.1245271865591
 20
149.7912677926366
 30
0.0
 10
105.128497693829
 20
149.7818239095627
 30
0.0
 10
105.1317291846635
 20
149.7721493211977
 30
0.0
 10
105.1352324786978
 20
149.7616609957016
 30
0.0
 10
105.1378672095436
 20
149.7509015231589
 30
0.0
 10
105.1405019395436
 20
149.7401420501586
 30
0.0
 10
105.1405019395436
 20
149.7401420501586
 30
0.0
 10
105.4994693664731
 20
148.1755122851426
 30
0.0
 10
105.4994693664731
 20
148.1755122851426
 30
0.0
 10
105.4994693664731
 20
148.1755122851426
 30
0.0
 10
105.8542769845439
 20
149.7506986831269
 30
0.0
 10
105.8542769845439
 20
149.7506986831269
 30
0.0
 10
105.8576584495439
 20
149.7624214401264
 30
0.0
 10
105.8610399150661
 20
149.7741441973237
 30
0.0
 10
105.8650023038203
 20
149.7856970923702
 30
0.0
 10
105.8685087723668
 20
149.7959206886941
 30
0.0
 10
105.872470170806
 20
149.806011263362
 30
0.0
 10
105.8774210941544
 20
149.8156150872719
 30
0.0
 10
105.8816097061121
 20
149.8237401760338
 30
0.0
 10
105.886506581114
 20
149.8315168677303
 30
0.0
 10
105.8920978461851
 20
149.8387591965561
 30
0.0
 10
105.8971494912282
 20
149.845302559112
 30
0.0
 10
105.9027679612642
 20
149.8514097255811
 30
0.0
 10
105.9090325601916
 20
149.8568228917278
 30
0.0
 10
105.9148951659048
 20
149.8618887002732
 30
0.0
 10
105.9213236381269
 20
149.8663467174862
 30
0.0
 10
105.9282252364477
 20
149.8698061722265
 30
0.0
 10
105.9357236108293
 20
149.8735647634388
 30
0.0
 10
105.9437804705632
 20
149.8761446360904
 30
0.0
 10
105.9519338361817
 20
149.8782735294303
 30
0.0
 10
105.9608620321963
 20
149.8806047356983
 30
0.0
 10
105.9699059479375
 20
149.8823951749221
 30
0.0
 10
105.9790293781782
 20
149.8833539435687
 30
0.0
 10
105.989311046822
 20
149.8844344298849
 30
0.0
 10
105.9996937005497
 20
149.8844586771203
 30
0.0
 10
106.0100763545494
 20
149.8844829241199
 30
0.0
 10
106.0202524645501
 20
149.8848337311193
 30
0.0
 10
106.0304285754159
 20
149.8851845383619
 30
0.0
 10
106.0405588391248
 20
149.884482924693
 30
0.0
 10
106.0498728223913
 20
149.8838378459312
 30
0.0
 10
106.0591480494011
 20
149.882303117803
 30
0.0
 10
106.0682188722465
 20
149.879967001029
 30
0.0
 10
106.0763669584088
 20
149.8778685275964
 30
0.0
 10
106.0843501115572
 20
149.8751234164353
 30
0.0
 10
106.0919274718785
 20
149.8714996439023
 30
0.0
 10
106.099329464564
 20
149.8679597386263
 30
0.0
 10
106.1063442301072
 20
149.8635813721731
 30
0.0
 10
106.1128136190378
 20
149.8585163632425
 30
0.0
 10
106.1192196398667
 20
149.8535009664168
 30
0.0
 10
106.1250909157598
 20
149.8478123126534
 30
0.0
 10
106.1303128236227
 20
149.8415816490696
 30
0.0
 10
106.1357181086014
 20
149.835132184015
 30
0.0
 10
106.1404276171934
 20
149.8281019733471
 30
0.0
 10
106.1444250855972
 20
149.8206955014967
 30
0.0
 10
106.1487978661232
 20
149.812593654878
 30
0.0
 10
106.1523186266536
 20
149.8040415779823
 30
0.0
 10
106.155150404348
 20
149.795293430258
 30
0.0
 10
106.1582399238049
 20
149.7857490466529
 30
0.0
 10
106.1605093335446
 20
149.7759712761128
 30
0.0
 10
106.1627787435447
 20
149.7661935061127
 30
0.0
 10
106.1627787435447
 20
149.7661935061127
 30
0.0
 10
106.5217461708208
 20
148.1817635760163
 30
0.0
 10
106.5217461708208
 20
148.1817635760163
 30
0.0
 10
106.5217461708208
 20
148.1817635760163
 30
0.0
 10
106.8844720905439
 20
149.7540856260806
 30
0.0
 10
106.8844720905439
 20
149.7540856260806
 30
0.0
 10
106.8871624505444
 20
149.7645415220801
 30
0.0
 10
106.889852811415
 20
149.7749974182902
 30
0.0
 10
106.8935039381541
 20
149.7851326019862
 30
0.0
 10
106.896869597646
 20
149.794475355513
 30
0.0
 10
106.901051659215
 20
149.8035455864912
 30
0.0
 10
106.905922728589
 20
149.8122281442397
 30
0.0
 10
106.9103748056948
 20
149.8201638588863
 30
0.0
 10
106.9154024564011
 20
149.8277757245489
 30
0.0
 10
106.9211639712252
 20
149.8348077630384
 30
0.0
 10
106.9265667466018
 20
149.8414019532049
 30
0.0
 10
106.9326148434416
 20
149.8474862738856
 30
0.0
 10
106.9392276657815
 20
149.8528714584768
 30
0.0
 10
106.9458743053302
 20
149.8582841822785
 30
0.0
 10
106.9530914610294
 20
149.862990601105
 30
0.0
 10
106.9606783040082
 20
149.8669837201193
 30
0.0
 10
106.9686076080512
 20
149.8711570837745
 30
0.0
 10
106.9769407271023
 20
149.8745512992509
 30
0.0
 10
106.985515884783
 20
149.8771445484543
 30
0.0
 10
106.994536678175
 20
149.8798725642123
 30
0.0
 10
107.0038253205026
 20
149.8817142009426
 30
0.0
 10
107.0131759173285
 20
149.8827894530849
 30
0.0
 10
107.0234748039812
 20
149.8839737518139
 30
0.0
 10
107.0338488485494
 20
149.8842283380736
 30
0.0
 10
107.0442228935501
 20
149.8844829240731
 30
0.0
 10
107.05592147355
 20
149.8838996520726
 30
0.0
 10
107.0676200530931
 20
149.8833163790268
 30
0.0
 10
107.0792213023811
 20
149.8816604722652
 30
0.0
 10
107.0895806635714
 20
149.8801818266627
 30
0.0
 10
107.0998624171549
 20
149.8778479019265
 30
0.0
 10
107.1097037877099
 20
149.8743220962213
 30
0.0
 10
107.1187385072095
 20
149.8710852842974
 30
0.0
 10
107.1274020773189
 20
149.8668439697773
 30
0.0
 10
107.1356703492681
 20
149.8619033060947
 30
0.0
 10
107.1435511079741
 20
149.8571941989712
 30
0.0
 10
107.151072753497
 20
149.851849760016
 30
0.0
 10
107.1576854777647
 20
149.8455330823469
 30
0.0
 10
107.1641667119224
 20
149.8393420080759
 30
0.0
 10
107.16977481217
 20
149.8322169754616
 30
0.0
 10
107.1746201915638
 20
149.8246469345555
 30
0.0
 10
107.1797608764594
 20
149.8166155314856
 30
0.0
 10
107.1840430382016
 20
149.8080832244219
 30
0.0
 10
107.1876034725656
 20
149.7992448637804
 30
0.0
 10
107.1915713580611
 20
149.7893950535047
 30
0.0
 10
107.194642877353
 20
149.7791651328278
 30
0.0
 10
107.1966353199218
 20
149.7687623784558
 30
0.0
 10
107.1988074703386
 20
149.7574213503084
 30
0.0
 10
107.1996971115433
 20
149.7458749050662
 30
0.0
 10
107.2005867535431
 20
149.7343284600663
 30
0.0
 10
107.2004741105427
 20
149.7290568560662
 30
0.0
 10
107.2003614684772
 20
149.7237852520785
 30
0.0
 10
107.2000222627098
 20
149.7185227266656
 30
0.0
 10
107.1996933682324
 20
149.7134201732548
 30
0.0
 10
107.1991514750137
 20
149.7083261548606
 30
0.0
 10
107.1983287911875
 20
149.7032814836137
 30
0.0
 10
107.1972119942082
 20
149.6964333197929
 30
0.0
 10
107.1955777511267
 20
149.6896760938035
 30
0.0
 10
107.1938128677699
 20
149.68295982673
 30
0.0
 10
107.1910996049192
 20
149.6726344996329
 30
0.0
 10
107.1880775765399
 20
149.6624059780665
 30
0.0
 10
107.1850555475395
 20
149.6521774560669
 30
0.0
 10
107.1850555475395
 20
149.6521774560669
 30
0.0
 10
106.6852069544402
 20
147.4385457220893
 30
0.0
 10
106.6852069544402
 20
147.4385457220893
 30
0.0
 10
106.6821869304393
 20
147.4261951860902
 30
0.0
 10
106.6791669057396
 20
147.4138446495674
 30
0.0
 10
106.675046126717
 20
147.4018538418284
 30
0.0
 10
106.671323706965
 20
147.3910221958408
 30
0.0
 10
106.6667030678037
 20
147.3804840898105
 30
0.0
 10
106.6614983554262
 20
147.3702423755454
 30
0.0
 10
106.6568248138729
 20
147.3610458871087
 30
0.0
 10
106.6516803318202
 20
147.3520883805041
 30
0.0
 10
106.6456926220986
 20
147.343711323469
 30
0.0
 10
106.640184228399
 20
147.3360048496536
 30
0.0
 10
106.6339622043382
 20
147.3287896149812
 30
0.0
 10
106.6270644369837
 20
147.3222606857313
 30
0.0
 10
106.6205130379334
 20
147.316059603747
 30
0.0
 10
106.6133520559964
 20
147.3104776326649
 30
0.0
 10
106.6056137987814
 20
147.3058904621435
 30
0.0
 10
106.598151381657
 20
147.3014668071909
 30
0.0
 10
106.5901521111688
 20
147.2979682949694
 30
0.0
 10
106.5819051989274
 20
147.2951651434485
 30
0.0
 10
106.5730953637519
 20
147.2921706526441
 30
0.0
 10
106.564002925626
 20
147.289969691134
 30
0.0
 10
106.5548096565099
 20
147.288955748157
 30
0.0
 10
106.5451001371361
 20
147.2878848669663
 30
0.0
 10
106.5352781444329
 20
147.2881380620959
 30
0.0
 10
106.5254561524331
 20
147.2883912580957
 30
0.0
 10
106.5141428504333
 20
147.2883900170973
 30
0.0
 10
106.5028295492279
 20
147.2883887757433
 30
0.0
 10
106.4915867238183
 20
147.2895202384993
 30
0.0
 10
106.4818537542699
 20
147.2904997514031
 30
0.0
 10
106.4721736024587
 20
147.2923281637939
 30
0.0
 10
106.4627977103
 20
147.2951651433009
 30
0.0
 10
106.4539854861824
 20
147.2978315668062
 30
0.0
 10
106.4454420379044
 20
147.3013889348384
 30
0.0
 10
106.4373956390334
 20
147.3058904626056
 30
0.0
 10
106.4300805470234
 20
147.3099828634828
 30
0.0
 10
106.423176260307
 20
147.314855600906
 30
0.0
 10
106.417073982133
 20
147.3205672145541
 30
0.0
 10
106.4106344440978
 20
147.3265944968711
 30
0.0
 10
106.4050880149621
 20
147.3335559435814
 30
0.0
 10
106.400139268126
 20
147.340888871502
 30
0.0
 10
106.394231121861
 20
147.3496434132359
 30
0.0
 10
106.389174863392
 20
147.3589274341086
 30
0.0
 10
106.3848980256259
 20
147.3685489045852
 30
0.0
 10
106.3798688797267
 20
147.3798628195423
 30
0.0
 10
106.3759174759425
 20
147.3916433421314
 30
0.0
 10
106.3724792353341
 20
147.4035473138821
 30
0.0
 10
106.3684371916299
 20
147.4175417894119
 30
0.0
 10
106.3651043744399
 20
147.4317068801044
 30
0.0
 10
106.36177155644
 20
147.4458719711036
 30
0.0
 10
106.36177155644
 20
147.4458719711036
 30
0.0
 10
106.010607768509
 20
148.9792871771195
 30
0.0
 10
106.010607768509
 20
148.9792871771195
 30
0.0
  0
ENDBLK
  5
54
330
51
100
AcDbEntity
  8
0
100
AcDbBlockEnd
  0
ENDSEC
  0
SECTION
  2
ENTITIES
  0
INSERT
  5
41
330
1F
100
AcDbEntity
  8
0
100
AcDbBlockReference
  2
block 2
 10
0.0
 20
0.0
 30
0.0
  0
INSERT
  5
4D
330
1F
100
AcDbEntity
  8
0
100
AcDbBlockReference
  2
block 3
 10
0.0
 20
0.0
 30
0.0
  0
INSERT
  5
52
330
1F
100
AcDbEntity
  8
0
100
AcDbBlockReference
  2
block 4
 10
0.0
 20
0.0
 30
0.0
  0
ENDSEC
  0
SECTION
  2
OBJECTS
  0
DICTIONARY
  5
C
330
0
100
AcDbDictionary
281
     1
  3
ACAD_GROUP
350
D
  3
ACAD_LAYOUT
350
1A
  3
ACAD_MATERIAL
350
3B
  3
ACAD_MLEADERSTYLE
350
57
  3
ACAD_MLINESTYLE
350
17
  3
ACAD_PLOTSETTINGS
350
19
  3
ACAD_PLOTSTYLENAME
350
E
  3
ACAD_TABLESTYLE
350
56
  3
ACAD_VISUALSTYLE
350
2A
  0
SUN
  5
3F
330
29
100
AcDbSun
 90
        1
290
     0
 63
     7
421
 16777215
 40
1.0
291
     1
 91
  2455826
 92
 54000000
292
     0
 70
     2
 71
   256
280
     1
  0
DICTIONARY
  5
D
102
{ACAD_REACTORS
330
C
102
}
330
C
100
AcDbDictionary
281
     1
  0
DICTIONARY
  5
1A
102
{ACAD_REACTORS
330
C
102
}
330
C
100
AcDbDictionary
281
     1
  3
Layout1
350
1E
  3
Layout2
350
26
  3
Model
350
22
  0
DICTIONARY
  5
3B
102
{ACAD_REACTORS
330
C
102
}
330
C
100
AcDbDictionary
281
     1
  3
ByBlock
350
3D
  3
ByLayer
350
3C
  3
Global
350
3E
  0
DICTIONARY
  5
57
102
{ACAD_REACTORS
330
C
102
}
330
C
100
AcDbDictionary
281
     1
  0
DICTIONARY
  5
17
102
{ACAD_REACTORS
330
C
102
}
330
C
100
AcDbDictionary
281
     1
  3
Standard
350
18
  0
DICTIONARY
  5
19
102
{ACAD_REACTORS
330
C
102
}
330
C
100
AcDbDictionary
281
     1
  0
ACDBDICTIONARYWDFLT
  5
E
102
{ACAD_REACTORS
330
C
102
}
330
C
100
AcDbDictionary
281
     1
  3
Normal
350
F
100
AcDbDictionaryWithDefault
340
F
  0
DICTIONARY
  5
56
102
{ACAD_REACTORS
330
C
102
}
330
C
100
AcDbDictionary
281
     1
  0
DICTIONARY
  5
2A
102
{ACAD_REACTORS
330
C
102
}
330
C
100
AcDbDictionary
281
     1
  3
2dWireframe
350
2F
  3
3D Hidden
350
31
  3
3dWireframe
350
30
  3
Basic
350
32
  3
Brighten
350
36
  3
ColorChange
350
3A
  3
Conceptual
350
34
  3
Dim
350
35
  3
Facepattern
350
39
  3
Flat
350
2B
  3
FlatWithEdges
350
2C
  3
Gouraud
350
2D
  3
GouraudWithEdges
350
2E
  3
Linepattern
350
38
  3
Realistic
350
33
  3
Thicken
350
37
  0
LAYOUT
  5
1E
102
{ACAD_REACTORS
330
1A
102
}
330
1A
100
AcDbPlotSettings
  1

  2
none_device
  4

  6

 40
0.0
 41
0.0
 42
0.0
 43
0.0
 44
0.0
 45
0.0
 46
0.0
 47
0.0
 48
0.0
 49
0.0
140
0.0
141
0.0
142
1.0
143
1.0
 70
   688
 72
     0
 73
     0
 74
     5
  7

 75
    16
 76
     0
 77
     2
 78
   300
147
1.0
148
0.0
149
0.0
100
AcDbLayout
  1
Layout1
 70
     1
 71
     1
 10
0.0
 20
0.0
 11
12.0
 21
9.0
 12
0.0
 22
0.0
 32
0.0
 14
1.000000000000000E+20
 24
1.000000000000000E+20
 34
1.000000000000000E+20
 15
-1.000000000000000E+20
 25
-1.000000000000000E+20
 35
-1.000000000000000E+20
146
0.0
 13
0.0
 23
0.0
 33
0.0
 16
1.0
 26
0.0
 36
0.0
 17
0.0
 27
1.0
 37
0.0
 76
     0
330
1B
  0
LAYOUT
  5
26
102
{ACAD_REACTORS
330
1A
102
}
330
1A
100
AcDbPlotSettings
  1

  2
none_device
  4

  6

 40
0.0
 41
0.0
 42
0.0
 43
0.0
 44
0.0
 45
0.0
 46
0.0
 47
0.0
 48
0.0
 49
0.0
140
0.0
141
0.0
142
1.0
143
1.0
 70
   688
 72
     0
 73
     0
 74
     5
  7

 75
    16
 76
     0
 77
     2
 78
   300
147
1.0
148
0.0
149
0.0
100
AcDbLayout
  1
Layout2
 70
     1
 71
     2
 10
0.0
 20
0.0
 11
0.0
 21
0.0
 12
0.0
 22
0.0
 32
0.0
 14
0.0
 24
0.0
 34
0.0
 15
0.0
 25
0.0
 35
0.0
146
0.0
 13
0.0
 23
0.0
 33
0.0
 16
1.0
 26
0.0
 36
0.0
 17
0.0
 27
1.0
 37
0.0
 76
     0
330
23
  0
LAYOUT
  5
22
102
{ACAD_REACTORS
330
1A
102
}
330
1A
100
AcDbPlotSettings
  1

  2
none_device
  4

  6

 40
0.0
 41
0.0
 42
0.0
 43
0.0
 44
0.0
 45
0.0
 46
0.0
 47
0.0
 48
0.0
 49
0.0
140
0.0
141
0.0
142
1.0
143
1.0
 70
  1712
 72
     0
 73
     0
 74
     0
  7

 75
     0
 76
     0
 77
     2
 78
   300
147
1.0
148
0.0
149
0.0
100
AcDbLayout
  1
Model
 70
     1
 71
     0
 10
0.0
 20
0.0
 11
12.0
 21
9.0
 12
0.0
 22
0.0
 32
0.0
 14
1.000000000000000E+20
 24
1.000000000000000E+20
 34
1.000000000000000E+20
 15
-1.000000000000000E+20
 25
-1.000000000000000E+20
 35
-1.000000000000000E+20
146
0.0
 13
0.0
 23
0.0
 33
0.0
 16
1.0
 26
0.0
 36
0.0
 17
0.0
 27
1.0
 37
0.0
 76
     0
330
1F
331
29
  0
MATERIAL
  5
3D
102
{ACAD_REACTORS
330
3B
102
}
330
3B
100
AcDbMaterial
  1
ByBlock
 72
     1
 94
      127
  0
MATERIAL
  5
3C
102
{ACAD_REACTORS
330
3B
102
}
330
3B
100
AcDbMaterial
  1
ByLayer
 72
     1
 94
      127
  0
MATERIAL
  5
3E
102
{ACAD_REACTORS
330
3B
102
}
330
3B
100
AcDbMaterial
  1
Global
 72
     1
 94
      127
  0
MLINESTYLE
  5
18
102
{ACAD_REACTORS
330
17
102
}
330
17
100
AcDbMlineStyle
  2
Standard
 70
     0
  3

 62
   256
 51
90.0
 52
90.0
 71
     2
 49
0.5
 62
   256
  6
BYLAYER
 49
-0.5
 62
   256
  6
BYLAYER
  0
ACDBPLACEHOLDER
  5
F
102
{ACAD_REACTORS
330
E
102
}
330
E
  0
VISUALSTYLE
  5
2F
102
{ACAD_REACTORS
330
2A
102
}
330
2A
100
AcDbVisualStyle
  2
2dWireframe
 70
     4
177
     2
291
     0
 71
     0
176
     1
 72
     2
176
     1
 73
     0
176
     1
 90
        0
176
     1
 40
-0.6
176
     1
 41
-30.0
176
     1
 62
     5
 63
     7
421
 16777215
176
     1
 74
     1
176
     1
 91
        4
176
     1
 64
     7
176
     1
 65
   257
176
     1
 75
     1
176
     1
175
     1
176
     1
 42
1.0
176
     1
 92
        0
176
     1
 66
   257
176
     1
 43
1.0
176
     1
 76
     1
176
     1
 77
     6
176
     1
 78
     2
176
     1
 67
     7
176
     1
 79
     5
176
     1
170
     0
176
     1
171
     0
176
     1
290
     0
176
     1
 93
        1
176
     1
 44
0.0
176
     1
173
     0
176
     1
  0
VISUALSTYLE
  5
31
102
{ACAD_REACTORS
330
2A
102
}
330
2A
100
AcDbVisualStyle
  2
3D Hidden
 70
     6
177
     2
291
     0
 71
     1
176
     1
 72
     2
176
     1
 73
     2
176
     1
 90
        0
176
     1
 40
-0.6
176
     1
 41
-30.0
176
     1
 62
     5
 63
     7
421
 16777215
176
     1
 74
     2
176
     1
 91
        2
176
     1
 64
     7
176
     1
 65
   257
176
     1
 75
     2
176
     1
175
     1
176
     1
 42
40.0
176
     1
 92
        0
176
     1
 66
   257
176
     1
 43
1.0
176
     1
 76
     1
176
     1
 77
     6
176
     1
 78
     2
176
     1
 67
     7
176
     1
 79
     3
176
     1
170
     0
176
     1
171
     0
176
     1
290
     0
176
     1
 93
        1
176
     1
 44
0.0
176
     1
173
     0
176
     1
  0
VISUALSTYLE
  5
30
102
{ACAD_REACTORS
330
2A
102
}
330
2A
100
AcDbVisualStyle
  2
3dWireframe
 70
     5
177
     2
291
     0
 71
     0
176
     1
 72
     2
176
     1
 73
     0
176
     1
 90
        0
176
     1
 40
-0.6
176
     1
 41
-30.0
176
     1
 62
     5
 63
     7
421
 16777215
176
     1
 74
     1
176
     1
 91
        4
176
     1
 64
     7
176
     1
 65
   257
176
     1
 75
     1
176
     1
175
     1
176
     1
 42
1.0
176
     1
 92
        0
176
     1
 66
   257
176
     1
 43
1.0
176
     1
 76
     1
176
     1
 77
     6
176
     1
 78
     2
176
     1
 67
     7
176
     1
 79
     5
176
     1
170
     0
176
     1
171
     0
176
     1
290
     0
176
     1
 93
        1
176
     1
 44
0.0
176
     1
173
     0
176
     1
  0
VISUALSTYLE
  5
32
102
{ACAD_REACTORS
330
2A
102
}
330
2A
100
AcDbVisualStyle
  2
Basic
 70
     7
177
     2
291
     1
 71
     1
176
     1
 72
     0
176
     1
 73
     1
176
     1
 90
        0
176
     1
 40
-0.6
176
     1
 41
-30.0
176
     1
 62
     5
 63
     7
421
 16777215
176
     1
 74
     0
176
     1
 91
        4
176
     1
 64
     7
176
     1
 65
   257
176
     1
 75
     1
176
     1
175
     1
176
     1
 42
1.0
176
     1
 92
        8
176
     1
 66
     7
176
     1
 43
1.0
176
     1
 76
     1
176
     1
 77
     6
176
     1
 78
     2
176
     1
 67
     7
176
     1
 79
     5
176
     1
170
     0
176
     1
171
     0
176
     1
290
     0
176
     1
 93
        1
176
     1
 44
0.0
176
     1
173
     0
176
     1
  0
VISUALSTYLE
  5
36
102
{ACAD_REACTORS
330
2A
102
}
330
2A
100
AcDbVisualStyle
  2
Brighten
 70
    12
177
     2
291
     1
 71
     2
176
     1
 72
     2
176
     1
 73
     0
176
     1
 90
        0
176
     1
 40
-0.6
176
     1
 41
-30.0
176
     1
 62
     5
 63
     7
421
 16777215
176
     1
 74
     1
176
     1
 91
        4
176
     1
 64
     7
176
     1
 65
   257
176
     1
 75
     1
176
     1
175
     1
176
     1
 42
1.0
176
     1
 92
        8
176
     1
 66
     7
176
     1
 43
1.0
176
     1
 76
     1
176
     1
 77
     6
176
     1
 78
     2
176
     1
 67
     7
176
     1
 79
     5
176
     1
170
     0
176
     1
171
     0
176
     1
290
     0
176
     1
 93
        1
176
     1
 44
50.0
176
     1
173
     0
176
     1
  0
VISUALSTYLE
  5
3A
102
{ACAD_REACTORS
330
2A
102
}
330
2A
100
AcDbVisualStyle
  2
ColorChange
 70
    16
177
     2
291
     1
 71
     2
176
     1
 72
     2
176
     1
 73
     3
176
     1
 90
        0
176
     1
 40
-0.6
176
     1
 41
-30.0
176
     1
 62
     5
 63
     8
421
  8421504
176
     1
 74
     1
176
     1
 91
        4
176
     1
 64
     7
176
     1
 65
   257
176
     1
 75
     1
176
     1
175
     1
176
     1
 42
1.0
176
     1
 92
        8
176
     1
 66
     8
424
  8421504
176
     1
 43
1.0
176
     1
 76
     1
176
     1
 77
     6
176
     1
 78
     2
176
     1
 67
     7
176
     1
 79
     5
176
     1
170
     0
176
     1
171
     0
176
     1
290
     0
176
     1
 93
        1
176
     1
 44
0.0
176
     1
173
     0
176
     1
  0
VISUALSTYLE
  5
34
102
{ACAD_REACTORS
330
2A
102
}
330
2A
100
AcDbVisualStyle
  2
Conceptual
 70
     9
177
     2
291
     0
 71
     3
176
     1
 72
     2
176
     1
 73
     0
176
     1
 90
        0
176
     1
 40
-0.6
176
     1
 41
-30.0
176
     1
 62
     5
 63
     7
421
 16777215
176
     1
 74
     2
176
     1
 91
        2
176
     1
 64
     7
176
     1
 65
   257
176
     1
 75
     1
176
     1
175
     1
176
     1
 42
40.0
176
     1
 92
        8
176
     1
 66
     7
176
     1
 43
1.0
176
     1
 76
     1
176
     1
 77
     6
176
     1
 78
     2
176
     1
 67
     7
176
     1
 79
     3
176
     1
170
     0
176
     1
171
     0
176
     1
290
     0
176
     1
 93
        1
176
     1
 44
0.0
176
     1
173
     0
176
     1
  0
VISUALSTYLE
  5
35
102
{ACAD_REACTORS
330
2A
102
}
330
2A
100
AcDbVisualStyle
  2
Dim
 70
    11
177
     2
291
     1
 71
     2
176
     1
 72
     2
176
     1
 73
     0
176
     1
 90
        0
176
     1
 40
-0.6
176
     1
 41
-30.0
176
     1
 62
     5
 63
     7
421
 16777215
176
     1
 74
     1
176
     1
 91
        4
176
     1
 64
     7
176
     1
 65
   257
176
     1
 75
     1
176
     1
175
     1
176
     1
 42
1.0
176
     1
 92
        8
176
     1
 66
     7
176
     1
 43
1.0
176
     1
 76
     1
176
     1
 77
     6
176
     1
 78
     2
176
     1
 67
     7
176
     1
 79
     5
176
     1
170
     0
176
     1
171
     0
176
     1
290
     0
176
     1
 93
        1
176
     1
 44
-50.0
176
     1
173
     0
176
     1
  0
VISUALSTYLE
  5
39
102
{ACAD_REACTORS
330
2A
102
}
330
2A
100
AcDbVisualStyle
  2
Facepattern
 70
    15
177
     2
291
     1
 71
     2
176
     1
 72
     2
176
     1
 73
     0
176
     1
 90
        0
176
     1
 40
-0.6
176
     1
 41
-30.0
176
     1
 62
     5
 63
     7
421
 16777215
176
     1
 74
     1
176
     1
 91
        4
176
     1
 64
     7
176
     1
 65
   257
176
     1
 75
     1
176
     1
175
     1
176
     1
 42
1.0
176
     1
 92
        8
176
     1
 66
     7
176
     1
 43
1.0
176
     1
 76
     1
176
     1
 77
     6
176
     1
 78
     2
176
     1
 67
     7
176
     1
 79
     5
176
     1
170
     0
176
     1
171
     0
176
     1
290
     0
176
     1
 93
        1
176
     1
 44
0.0
176
     1
173
     0
176
     1
  0
VISUALSTYLE
  5
2B
102
{ACAD_REACTORS
330
2A
102
}
330
2A
100
AcDbVisualStyle
  2
Flat
 70
     0
177
     2
291
     1
 71
     2
176
     1
 72
     1
176
     1
 73
     1
176
     1
 90
        2
176
     1
 40
-0.6
176
     1
 41
30.0
176
     1
 62
     5
 63
     7
421
 16777215
176
     1
 74
     0
176
     1
 91
        4
176
     1
 64
     7
176
     1
 65
   257
176
     1
 75
     1
176
     1
175
     1
176
     1
 42
1.0
176
     1
 92
        8
176
     1
 66
     7
176
     1
 43
1.0
176
     1
 76
     1
176
     1
 77
     6
176
     1
 78
     2
176
     1
 67
     7
176
     1
 79
     5
176
     1
170
     0
176
     1
171
     0
176
     1
290
     0
176
     1
 93
       13
176
     1
 44
0.0
176
     1
173
     0
176
     1
  0
VISUALSTYLE
  5
2C
102
{ACAD_REACTORS
330
2A
102
}
330
2A
100
AcDbVisualStyle
  2
FlatWithEdges
 70
     1
177
     2
291
     1
 71
     2
176
     1
 72
     1
176
     1
 73
     1
176
     1
 90
        2
176
     1
 40
-0.6
176
     1
 41
30.0
176
     1
 62
     5
 63
     7
421
 16777215
176
     1
 74
     1
176
     1
 91
        4
176
     1
 64
     7
176
     1
 65
   257
176
     1
 75
     1
176
     1
175
     1
176
     1
 42
1.0
176
     1
 92
        0
176
     1
 66
   257
176
     1
 43
1.0
176
     1
 76
     1
176
     1
 77
     6
176
     1
 78
     2
176
     1
 67
     7
176
     1
 79
     5
176
     1
170
     0
176
     1
171
     0
176
     1
290
     0
176
     1
 93
       13
176
     1
 44
0.0
176
     1
173
     0
176
     1
  0
VISUALSTYLE
  5
2D
102
{ACAD_REACTORS
330
2A
102
}
330
2A
100
AcDbVisualStyle
  2
Gouraud
 70
     2
177
     2
291
     1
 71
     2
176
     1
 72
     2
176
     1
 73
     1
176
     1
 90
        2
176
     1
 40
-0.6
176
     1
 41
30.0
176
     1
 62
     5
 63
     7
421
 16777215
176
     1
 74
     0
176
     1
 91
        4
176
     1
 64
     7
176
     1
 65
   257
176
     1
 75
     1
176
     1
175
     1
176
     1
 42
1.0
176
     1
 92
        0
176
     1
 66
     7
176
     1
 43
1.0
176
     1
 76
     1
176
     1
 77
     6
176
     1
 78
     2
176
     1
 67
     7
176
     1
 79
     5
176
     1
170
     0
176
     1
171
     0
176
     1
290
     0
176
     1
 93
       13
176
     1
 44
0.0
176
     1
173
     0
176
     1
  0
VISUALSTYLE
  5
2E
102
{ACAD_REACTORS
330
2A
102
}
330
2A
100
AcDbVisualStyle
  2
GouraudWithEdges
 70
     3
177
     2
291
     1
 71
     2
176
     1
 72
     2
176
     1
 73
     1
176
     1
 90
        2
176
     1
 40
-0.6
176
     1
 41
30.0
176
     1
 62
     5
 63
     7
421
 16777215
176
     1
 74
     1
176
     1
 91
        4
176
     1
 64
     7
176
     1
 65
   257
176
     1
 75
     1
176
     1
175
     1
176
     1
 42
1.0
176
     1
 92
        0
176
     1
 66
   257
176
     1
 43
1.0
176
     1
 76
     1
176
     1
 77
     6
176
     1
 78
     2
176
     1
 67
     7
176
     1
 79
     5
176
     1
170
     0
176
     1
171
     0
176
     1
290
     0
176
     1
 93
       13
176
     1
 44
0.0
176
     1
173
     0
176
     1
  0
VISUALSTYLE
  5
38
102
{ACAD_REACTORS
330
2A
102
}
330
2A
100
AcDbVisualStyle
  2
Linepattern
 70
    14
177
     2
291
     1
 71
     2
176
     1
 72
     2
176
     1
 73
     0
176
     1
 90
        0
176
     1
 40
-0.6
176
     1
 41
-30.0
176
     1
 62
     5
 63
     7
421
 16777215
176
     1
 74
     1
176
     1
 91
        4
176
     1
 64
     7
176
     1
 65
   257
176
     1
 75
     7
176
     1
175
     7
176
     1
 42
1.0
176
     1
 92
        8
176
     1
 66
     7
176
     1
 43
1.0
176
     1
 76
     1
176
     1
 77
     6
176
     1
 78
     2
176
     1
 67
     7
176
     1
 79
     5
176
     1
170
     0
176
     1
171
     0
176
     1
290
     0
176
     1
 93
        1
176
     1
 44
0.0
176
     1
173
     0
176
     1
  0
VISUALSTYLE
  5
33
102
{ACAD_REACTORS
330
2A
102
}
330
2A
100
AcDbVisualStyle
  2
Realistic
 70
     8
177
     2
291
     0
 71
     2
176
     1
 72
     2
176
     1
 73
     0
176
     1
 90
        0
176
     1
 40
-0.6
176
     1
 41
-30.0
176
     1
 62
     5
 63
     7
421
 16777215
176
     1
 74
     1
176
     1
 91
        0
176
     1
 64
     7
176
     1
 65
   257
176
     1
 75
     1
176
     1
175
     1
176
     1
 42
1.0
176
     1
 92
        8
176
     1
 66
     8
424
  7895160
176
     1
 43
1.0
176
     1
 76
     1
176
     1
 77
     6
176
     1
 78
     2
176
     1
 67
     7
176
     1
 79
     5
176
     1
170
     0
176
     1
171
     0
176
     1
290
     0
176
     1
 93
       13
176
     1
 44
0.0
176
     1
173
     0
176
     1
  0
VISUALSTYLE
  5
37
102
{ACAD_REACTORS
330
2A
102
}
330
2A
100
AcDbVisualStyle
  2
Thicken
 70
    13
177
     2
291
     1
 71
     2
176
     1
 72
     2
176
     1
 73
     0
176
     1
 90
        0
176
     1
 40
-0.6
176
     1
 41
-30.0
176
     1
 62
     5
 63
     7
421
 16777215
176
     1
 74
     1
176
     1
 91
        4
176
     1
 64
     7
176
     1
 65
   257
176
     1
 75
     1
176
     1
175
     1
176
     1
 42
1.0
176
     1
 92
       12
176
     1
 66
     7
176
     1
 43
1.0
176
     1
 76
     1
176
     1
 77
     6
176
     1
 78
     2
176
     1
 67
     7
176
     1
 79
     5
176
     1
170
     0
176
     1
171
     0
176
     1
290
     0
176
     1
 93
        1
176
     1
 44
0.0
176
     1
173
     0
176
     1
  0
ENDSEC
  0
EOF
