  0
SECTION
  2
HEADER
  9
$ACADVER
  1
AC1024
  9
$ACADMAINTVER
 70
     6
  9
$DWGCODEPAGE
  3
UNDEFINED
  9
$INSBASE
 10
0.0
 20
0.0
 30
0.0
  9
$EXTMIN
 10
1.000000000000000E+20
 20
1.000000000000000E+20
 30
1.000000000000000E+20
  9
$EXTMAX
 10
-1.000000000000000E+20
 20
-1.000000000000000E+20
 30
-1.000000000000000E+20
  9
$LIMMIN
 10
0.0
 20
0.0
  9
$LIMMAX
 10
12.0
 20
9.0
  9
$ORTHOMODE
 70
     0
  9
$REGENMODE
 70
     1
  9
$FILLMODE
 70
     1
  9
$QTEXTMODE
 70
     0
  9
$MIRRTEXT
 70
     1
  9
$LTSCALE
 40
1.0
  9
$ATTMODE
 70
     1
  9
$TEXTSIZE
 40
0.2
  9
$TRACEWID
 40
0.05
  9
$TEXTSTYLE
  7
Standard
  9
$CLAYER
  8
0
  9
$CELTYPE
  6
ByLayer
  9
$CECOLOR
 62
   256
  9
$CELTSCALE
 40
1.0
  9
$DISPSILH
 70
     0
  9
$DIMSCALE
 40
1.0
  9
$DIMASZ
 40
0.18
  9
$DIMEXO
 40
0.0625
  9
$DIMDLI
 40
0.38
  9
$DIMRND
 40
0.0
  9
$DIMDLE
 40
0.0
  9
$DIMEXE
 40
0.18
  9
$DIMTP
 40
0.0
  9
$DIMTM
 40
0.0
  9
$DIMTXT
 40
0.18
  9
$DIMCEN
 40
0.09
  9
$DIMTSZ
 40
0.0
  9
$DIMTOL
 70
     0
  9
$DIMLIM
 70
     0
  9
$DIMTIH
 70
     1
  9
$DIMTOH
 70
     1
  9
$DIMSE1
 70
     0
  9
$DIMSE2
 70
     0
  9
$DIMTAD
 70
     0
  9
$DIMZIN
 70
     0
  9
$DIMBLK
  1

  9
$DIMASO
 70
     1
  9
$DIMSHO
 70
     1
  9
$DIMPOST
  1

  9
$DIMAPOST
  1

  9
$DIMALT
 70
     0
  9
$DIMALTD
 70
     2
  9
$DIMALTF
 40
25.4
  9
$DIMLFAC
 40
1.0
  9
$DIMTOFL
 70
     0
  9
$DIMTVP
 40
0.0
  9
$DIMTIX
 70
     0
  9
$DIMSOXD
 70
     0
  9
$DIMSAH
 70
     0
  9
$DIMBLK1
  1

  9
$DIMBLK2
  1

  9
$DIMSTYLE
  2
Standard
  9
$DIMCLRD
 70
     0
  9
$DIMCLRE
 70
     0
  9
$DIMCLRT
 70
     0
  9
$DIMTFAC
 40
1.0
  9
$DIMGAP
 40
0.09
  9
$DIMJUST
 70
     0
  9
$DIMSD1
 70
     0
  9
$DIMSD2
 70
     0
  9
$DIMTOLJ
 70
     1
  9
$DIMTZIN
 70
     0
  9
$DIMALTZ
 70
     0
  9
$DIMALTTZ
 70
     0
  9
$DIMUPT
 70
     0
  9
$DIMDEC
 70
     4
  9
$DIMTDEC
 70
     4
  9
$DIMALTU
 70
     2
  9
$DIMALTTD
 70
     2
  9
$DIMTXSTY
  7
Standard
  9
$DIMAUNIT
 70
     0
  9
$DIMADEC
 70
     0
  9
$DIMALTRND
 40
0.0
  9
$DIMAZIN
 70
     0
  9
$DIMDSEP
 70
    46
  9
$DIMATFIT
 70
     3
  9
$DIMFRAC
 70
     0
  9
$DIMLDRBLK
  1

  9
$DIMLUNIT
 70
     2
  9
$DIMLWD
 70
    -2
  9
$DIMLWE
 70
    -2
  9
$DIMTMOVE
 70
     0
  9
$DIMFXL
 40
1.0
  9
$DIMFXLON
 70
     0
  9
$DIMJOGANG
 40
0.7853981633974483
  9
$DIMTFILL
 70
     0
  9
$DIMTFILLCLR
 70
     0
  9
$DIMARCSYM
 70
     0
  9
$DIMLTYPE
  6

  9
$DIMLTEX1
  6

  9
$DIMLTEX2
  6

  9
$DIMTXTDIRECTION
 70
     0
  9
$LUNITS
 70
     2
  9
$LUPREC
 70
     4
  9
$SKETCHINC
 40
0.1
  9
$FILLETRAD
 40
0.5
  9
$AUNITS
 70
     0
  9
$AUPREC
 70
     0
  9
$MENU
  1
.
  9
$ELEVATION
 40
0.0
  9
$PELEVATION
 40
0.0
  9
$THICKNESS
 40
0.0
  9
$LIMCHECK
 70
     0
  9
$CHAMFERA
 40
0.5
  9
$CHAMFERB
 40
0.5
  9
$CHAMFERC
 40
1.0
  9
$CHAMFERD
 40
0.0
  9
$SKPOLY
 70
     0
  9
$TDCREATE
 40
2458843.931863414
  9
$TDUCREATE
 40
2458843.890196759
  9
$TDUPDATE
 40
2458843.931863414
  9
$TDUUPDATE
 40
2458843.890196759
  9
$TDINDWG
 40
0.0000000116
  9
$TDUSRTIMER
 40
0.0000000116
  9
$USRTIMER
 70
     1
  9
$ANGBASE
 50
0.0
  9
$ANGDIR
 70
     0
  9
$PDMODE
 70
     0
  9
$PDSIZE
 40
0.0
  9
$PLINEWID
 40
0.0
  9
$SPLFRAME
 70
     0
  9
$SPLINETYPE
 70
     6
  9
$SPLINESEGS
 70
     8
  9
$HANDSEED
  5
7E
  9
$SURFTAB1
 70
     6
  9
$SURFTAB2
 70
     6
  9
$SURFTYPE
 70
     6
  9
$SURFU
 70
     6
  9
$SURFV
 70
     6
  9
$UCSBASE
  2

  9
$UCSNAME
  2

  9
$UCSORG
 10
0.0
 20
0.0
 30
0.0
  9
$UCSXDIR
 10
1.0
 20
0.0
 30
0.0
  9
$UCSYDIR
 10
0.0
 20
1.0
 30
0.0
  9
$UCSORTHOREF
  2

  9
$UCSORTHOVIEW
 70
     0
  9
$UCSORGTOP
 10
0.0
 20
0.0
 30
0.0
  9
$UCSORGBOTTOM
 10
0.0
 20
0.0
 30
0.0
  9
$UCSORGLEFT
 10
0.0
 20
0.0
 30
0.0
  9
$UCSORGRIGHT
 10
0.0
 20
0.0
 30
0.0
  9
$UCSORGFRONT
 10
0.0
 20
0.0
 30
0.0
  9
$UCSORGBACK
 10
0.0
 20
0.0
 30
0.0
  9
$PUCSBASE
  2

  9
$PUCSNAME
  2

  9
$PUCSORG
 10
0.0
 20
0.0
 30
0.0
  9
$PUCSXDIR
 10
1.0
 20
0.0
 30
0.0
  9
$PUCSYDIR
 10
0.0
 20
1.0
 30
0.0
  9
$PUCSORTHOREF
  2

  9
$PUCSORTHOVIEW
 70
     0
  9
$PUCSORGTOP
 10
0.0
 20
0.0
 30
0.0
  9
$PUCSORGBOTTOM
 10
0.0
 20
0.0
 30
0.0
  9
$PUCSORGLEFT
 10
0.0
 20
0.0
 30
0.0
  9
$PUCSORGRIGHT
 10
0.0
 20
0.0
 30
0.0
  9
$PUCSORGFRONT
 10
0.0
 20
0.0
 30
0.0
  9
$PUCSORGBACK
 10
0.0
 20
0.0
 30
0.0
  9
$USERI1
 70
     0
  9
$USERI2
 70
     0
  9
$USERI3
 70
     0
  9
$USERI4
 70
     0
  9
$USERI5
 70
     0
  9
$USERR1
 40
0.0
  9
$USERR2
 40
0.0
  9
$USERR3
 40
0.0
  9
$USERR4
 40
0.0
  9
$USERR5
 40
0.0
  9
$WORLDVIEW
 70
     1
  9
$SHADEDGE
 70
     3
  9
$SHADEDIF
 70
    70
  9
$TILEMODE
 70
     1
  9
$MAXACTVP
 70
    64
  9
$PINSBASE
 10
0.0
 20
0.0
 30
0.0
  9
$PLIMCHECK
 70
     0
  9
$PEXTMIN
 10
1.000000000000000E+20
 20
1.000000000000000E+20
 30
1.000000000000000E+20
  9
$PEXTMAX
 10
-1.000000000000000E+20
 20
-1.000000000000000E+20
 30
-1.000000000000000E+20
  9
$PLIMMIN
 10
0.0
 20
0.0
  9
$PLIMMAX
 10
12.0
 20
9.0
  9
$UNITMODE
 70
     0
  9
$VISRETAIN
 70
     1
  9
$PLINEGEN
 70
     0
  9
$PSLTSCALE
 70
     1
  9
$TREEDEPTH
 70
  3020
  9
$CMLSTYLE
  2
Standard
  9
$CMLJUST
 70
     0
  9
$CMLSCALE
 40
1.0
  9
$PROXYGRAPHICS
 70
     1
  9
$MEASUREMENT
 70
     0
  9
$CELWEIGHT
370
    -1
  9
$ENDCAPS
280
     0
  9
$JOINSTYLE
280
     0
  9
$LWDISPLAY
290
     1
  9
$INSUNITS
 70
     1
  9
$HYPERLINKBASE
  1

  9
$STYLESHEET
  1

  9
$XEDIT
290
     1
  9
$CEPSNTYPE
380
     0
  9
$PSTYLEMODE
290
     1
  9
$FINGERPRINTGUID
  2
{1C3CA589-E047-8450-A4C0-3F151E922FAD}
  9
$VERSIONGUID
  2
{FAEB1C32-E019-11D5-929B-00C0DF256EC4}
  9
$EXTNAMES
290
     1
  9
$PSVPSCALE
 40
0.0
  9
$OLESTARTUP
290
     0
  9
$SORTENTS
280
   127
  9
$INDEXCTL
280
     0
  9
$HIDETEXT
280
     1
  9
$XCLIPFRAME
280
     2
  9
$HALOGAP
280
     0
  9
$OBSCOLOR
 70
   257
  9
$OBSLTYPE
280
     0
  9
$INTERSECTIONDISPLAY
280
     0
  9
$INTERSECTIONCOLOR
 70
   257
  9
$DIMASSOC
280
     2
  9
$PROJECTNAME
  1

  9
$CAMERADISPLAY
290
     0
  9
$LENSLENGTH
 40
50.0
  9
$CAMERAHEIGHT
 40
0.0
  9
$STEPSPERSEC
 40
2.0
  9
$STEPSIZE
 40
6.0
  9
$3DDWFPREC
 40
2.0
  9
$PSOLWIDTH
 40
0.25
  9
$PSOLHEIGHT
 40
4.0
  9
$LOFTANG1
 40
1.570796326794897
  9
$LOFTANG2
 40
1.570796326794897
  9
$LOFTMAG1
 40
0.0
  9
$LOFTMAG2
 40
0.0
  9
$LOFTPARAM
 70
     7
  9
$LOFTNORMALS
280
     1
  9
$LATITUDE
 40
37.795
  9
$LONGITUDE
 40
-122.394
  9
$NORTHDIRECTION
 40
0.0
  9
$TIMEZONE
 70
 -8000
  9
$LIGHTGLYPHDISPLAY
280
     1
  9
$TILEMODELIGHTSYNCH
280
     1
  9
$CMATERIAL
347
3C
  9
$SOLIDHIST
280
     1
  9
$SHOWHIST
280
     1
  9
$DWFFRAME
280
     2
  9
$DGNFRAME
280
     2
  9
$REALWORLDSCALE
290
     1
  9
$INTERFERECOLOR
 62
   256
  9
$CSHADOW
280
     0
  9
$SHADOWPLANELOCATION
 40
0.0
  0
ENDSEC
  0
SECTION
  2
CLASSES
  0
CLASS
  1
ACDBDICTIONARYWDFLT
  2
AcDbDictionaryWithDefault
  3
ObjectDBX Classes
 90
        0
 91
        4
280
     0
281
     0
  0
CLASS
  1
VISUALSTYLE
  2
AcDbVisualStyle
  3
ObjectDBX Classes
 90
     4095
 91
        4
280
     0
281
     0
  0
CLASS
  1
MATERIAL
  2
AcDbMaterial
  3
ObjectDBX Classes
 90
     1153
 91
        4
280
     0
281
     0
  0
CLASS
  1
SUN
  2
AcDbSun
  3
SCENEOE
 90
     1024
 91
        4
280
     0
281
     0
  0
ENDSEC
  0
SECTION
  2
TABLES
  0
TABLE
  2
VPORT
  5
8
330
0
100
AcDbSymbolTable
 70
     1
  0
VPORT
  5
29
330
8
100
AcDbSymbolTableRecord
100
AcDbViewportTableRecord
  2
*Active
 70
     0
 10
0.0
 20
0.0
 11
1.0
 21
1.0
 12
0.0
 22
0.0
 13
0.0
 23
0.0
 14
0.5
 24
0.5
 15
0.5
 25
0.5
 16
0.0
 26
0.0
 36
1.0
 17
105.0007777515276
 27
148.5000416295416
 37
0.0
 40
24.99999999375009
 41
0.9999999999999869
 42
50.0
 43
0.0
 44
0.0
 50
0.0
 51
0.0
 71
     0
 72
   100
 73
     1
 74
     3
 75
     0
 76
     0
 77
     0
 78
     0
281
     0
 65
     1
110
0.0
120
0.0
130
0.0
111
1.0
121
0.0
131
0.0
112
0.0
122
1.0
132
0.0
 79
     0
146
0.0
 60
     3
 61
     5
292
     1
282
     1
141
0.0
142
0.0
 63
   250
361
3F
  0
ENDTAB
  0
TABLE
  2
LTYPE
  5
5
330
0
100
AcDbSymbolTable
 70
     1
  0
LTYPE
  5
14
330
5
100
AcDbSymbolTableRecord
100
AcDbLinetypeTableRecord
  2
ByBlock
 70
     0
  3

 72
    65
 73
     0
 40
0.0
  0
LTYPE
  5
15
330
5
100
AcDbSymbolTableRecord
100
AcDbLinetypeTableRecord
  2
ByLayer
 70
     0
  3

 72
    65
 73
     0
 40
0.0
  0
LTYPE
  5
16
330
5
100
AcDbSymbolTableRecord
100
AcDbLinetypeTableRecord
  2
Continuous
 70
     0
  3
Solid line
 72
    65
 73
     0
 40
0.0
  0
ENDTAB
  0
TABLE
  2
LAYER
  5
2
330
0
100
AcDbSymbolTable
 70
     1
  0
LAYER
  5
10
330
2
100
AcDbSymbolTableRecord
100
AcDbLayerTableRecord
  2
0
 70
     0
 62
     7
  6
Continuous
370
    -3
390
F
347
3E
  0
ENDTAB
  0
TABLE
  2
STYLE
  5
3
330
0
100
AcDbSymbolTable
 70
     1
  0
STYLE
  5
11
330
3
100
AcDbSymbolTableRecord
100
AcDbTextStyleTableRecord
  2
Standard
 70
     0
 40
0.0
 41
1.0
 50
0.0
 71
     0
 42
0.2
  3
txt
  4

  0
ENDTAB
  0
TABLE
  2
VIEW
  5
6
330
0
100
AcDbSymbolTable
 70
     0
  0
ENDTAB
  0
TABLE
  2
UCS
  5
7
330
0
100
AcDbSymbolTable
 70
     0
  0
ENDTAB
  0
TABLE
  2
APPID
  5
9
330
0
100
AcDbSymbolTable
 70
     1
  0
APPID
  5
12
330
9
100
AcDbSymbolTableRecord
100
AcDbRegAppTableRecord
  2
ACAD
 70
     0
  0
ENDTAB
  0
TABLE
  2
DIMSTYLE
  5
A
330
0
100
AcDbSymbolTable
 70
     1
100
AcDbDimStyleTable
  0
DIMSTYLE
105
27
330
A
100
AcDbSymbolTableRecord
100
AcDbDimStyleTableRecord
  2
Standard
 70
     0
178
     0
340
11
  0
ENDTAB
  0
TABLE
  2
BLOCK_RECORD
  5
1
330
0
100
AcDbSymbolTable
 70
     8
  0
BLOCK_RECORD
  5
1F
330
1
100
AcDbSymbolTableRecord
100
AcDbBlockTableRecord
  2
*Model_Space
340
22
 70
     0
280
     1
281
     0
  0
BLOCK_RECORD
  5
1B
330
1
100
AcDbSymbolTableRecord
100
AcDbBlockTableRecord
  2
*Paper_Space
340
1E
 70
     0
280
     1
281
     0
  0
BLOCK_RECORD
  5
23
330
1
100
AcDbSymbolTableRecord
100
AcDbBlockTableRecord
  2
*Paper_Space0
340
26
 70
     0
280
     1
281
     0
  0
BLOCK_RECORD
  5
40
330
1
100
AcDbSymbolTableRecord
100
AcDbBlockTableRecord
  2
block 2
340
0
102
{BLKREFS
331
41
102
}
 70
     0
280
     1
281
     0
  0
BLOCK_RECORD
  5
4C
330
1
100
AcDbSymbolTableRecord
100
AcDbBlockTableRecord
  2
block 3
340
0
102
{BLKREFS
331
4D
102
}
 70
     0
280
     1
281
     0
  0
BLOCK_RECORD
  5
51
330
1
100
AcDbSymbolTableRecord
100
AcDbBlockTableRecord
  2
block 4
340
0
102
{BLKREFS
331
52
102
}
 70
     0
280
     1
281
     0
  0
BLOCK_RECORD
  5
56
330
1
100
AcDbSymbolTableRecord
100
AcDbBlockTableRecord
  2
block 5
340
0
102
{BLKREFS
331
57
102
}
 70
     0
280
     1
281
     0
  0
BLOCK_RECORD
  5
5B
330
1
100
AcDbSymbolTableRecord
100
AcDbBlockTableRecord
  2
block 6
340
0
102
{BLKREFS
331
5C
102
}
 70
     0
280
     1
281
     0
  0
BLOCK_RECORD
  5
66
330
1
100
AcDbSymbolTableRecord
100
AcDbBlockTableRecord
  2
block 7
340
0
102
{BLKREFS
331
67
102
}
 70
     0
280
     1
281
     0
  0
BLOCK_RECORD
  5
71
330
1
100
AcDbSymbolTableRecord
100
AcDbBlockTableRecord
  2
block 8
340
0
102
{BLKREFS
331
72
102
}
 70
     0
280
     1
281
     0
  0
ENDTAB
  0
ENDSEC
  0
SECTION
  2
BLOCKS
  0
BLOCK
  5
20
330
1F
100
AcDbEntity
  8
0
100
AcDbBlockBegin
  2
*Model_Space
 70
     0
 10
0.0
 20
0.0
 30
0.0
  3
*Model_Space
  1

  0
ENDBLK
  5
21
330
1F
100
AcDbEntity
  8
0
100
AcDbBlockEnd
  0
BLOCK
  5
1C
330
1B
100
AcDbEntity
 67
     1
  8
0
100
AcDbBlockBegin
  2
*Paper_Space
 70
     0
 10
0.0
 20
0.0
 30
0.0
  3
*Paper_Space
  1

  0
ENDBLK
  5
1D
330
1B
100
AcDbEntity
 67
     1
  8
0
100
AcDbBlockEnd
  0
BLOCK
  5
24
330
23
100
AcDbEntity
  8
0
100
AcDbBlockBegin
  2
*Paper_Space0
 70
     0
 10
0.0
 20
0.0
 30
0.0
  3
*Paper_Space0
  1

  0
ENDBLK
  5
25
330
23
100
AcDbEntity
  8
0
100
AcDbBlockEnd
  0
BLOCK
  5
42
330
40
100
AcDbEntity
  8
0
100
AcDbBlockBegin
  2
block 2
 70
     0
 10
0.0
 20
0.0
 30
0.0
  3
block 2
  1

  0
POLYLINE
  5
44
330
40
100
AcDbEntity
  8
0
 62
     7
420
 16777215
370
     5
100
AcDb2dPolyline
 66
     1
 10
0.0
 20
0.0
 30
0.0
  0
VERTEX
  5
45
330
44
100
AcDbEntity
  8
0
 62
     7
420
 16777215
370
     5
100
AcDbVertex
100
AcDb2dVertex
 10
98.39677775166163
 20
152.3788332964612
 30
0.0
  0
VERTEX
  5
46
330
44
100
AcDbEntity
  8
0
 62
     7
420
 16777215
370
     5
100
AcDbVertex
100
AcDb2dVertex
 10
98.39677775133116
 20
145.0128332964607
 30
0.0
  0
VERTEX
  5
47
330
44
100
AcDbEntity
  8
0
 62
     7
420
 16777215
370
     5
100
AcDbVertex
100
AcDb2dVertex
 10
111.8587777513307
 20
145.0128332958562
 30
0.0
  0
VERTEX
  5
48
330
44
100
AcDbEntity
  8
0
 62
     7
420
 16777215
370
     5
100
AcDbVertex
100
AcDb2dVertex
 10
111.8587777516618
 20
152.3788332958571
 30
0.0
  0
VERTEX
  5
49
330
44
100
AcDbEntity
  8
0
 62
     7
420
 16777215
370
     5
100
AcDbVertex
100
AcDb2dVertex
 10
98.39677775166163
 20
152.3788332964612
 30
0.0
  0
SEQEND
  5
4B
330
44
100
AcDbEntity
  8
0
 62
     7
420
 16777215
370
     5
  0
HATCH
  5
4A
330
40
100
AcDbEntity
  8
0
 62
     7
420
 16777215
100
AcDbHatch
 10
0.0
 20
0.0
 30
0.0
210
0.0
220
0.0
230
1.0
  2
SOLID
 70
     1
 71
     0
 91
        1
 92
        1
 93
        4
 72
     1
 10
98.39677775166163
 20
152.3788332964612
 11
98.39677775133116
 21
145.0128332964607
 72
     1
 10
98.39677775133116
 20
145.0128332964607
 11
111.8587777513307
 21
145.0128332958562
 72
     1
 10
111.8587777513307
 20
145.0128332958562
 11
111.8587777516618
 21
152.3788332958571
 72
     1
 10
111.8587777516618
 20
152.3788332958571
 11
98.39677775166163
 21
152.3788332964612
 97
        0
 75
     2
 76
     1
 98
        0
  0
ENDBLK
  5
43
330
40
100
AcDbEntity
  8
0
100
AcDbBlockEnd
  0
BLOCK
  5
4E
330
4C
100
AcDbEntity
  8
0
100
AcDbBlockBegin
  2
block 3
 70
     0
 10
0.0
 20
0.0
 30
0.0
  3
block 3
  1

  0
SPLINE
  5
50
330
4C
100
AcDbEntity
  8
0
 62
     7
420
 16777215
370
     5
100
AcDbSpline
210
0.0
220
0.0
230
1.0
 70
    11
 71
     3
 72
   182
 73
   178
 74
     0
 42
0.0000000001
 43
0.0000000001
 12
1.0
 22
0.0
 32
0.0
 13
1.0
 23
0.0
 33
0.0
 40
0.0
 40
0.0
 40
0.0
 40
0.0
 40
1.0
 40
1.0
 40
1.0
 40
2.0
 40
2.0
 40
2.0
 40
3.0
 40
3.0
 40
3.0
 40
4.0
 40
4.0
 40
4.0
 40
5.0
 40
5.0
 40
5.0
 40
6.0
 40
6.0
 40
6.0
 40
7.0
 40
7.0
 40
7.0
 40
8.0
 40
8.0
 40
8.0
 40
9.0
 40
9.0
 40
9.0
 40
10.0
 40
10.0
 40
10.0
 40
11.0
 40
11.0
 40
11.0
 40
12.0
 40
12.0
 40
12.0
 40
13.0
 40
13.0
 40
13.0
 40
14.0
 40
14.0
 40
14.0
 40
15.0
 40
15.0
 40
15.0
 40
16.0
 40
16.0
 40
16.0
 40
17.0
 40
17.0
 40
17.0
 40
18.0
 40
18.0
 40
18.0
 40
19.0
 40
19.0
 40
19.0
 40
20.0
 40
20.0
 40
20.0
 40
21.0
 40
21.0
 40
21.0
 40
22.0
 40
22.0
 40
22.0
 40
23.0
 40
23.0
 40
23.0
 40
24.0
 40
24.0
 40
24.0
 40
25.0
 40
25.0
 40
25.0
 40
26.0
 40
26.0
 40
26.0
 40
27.0
 40
27.0
 40
27.0
 40
28.0
 40
28.0
 40
28.0
 40
29.0
 40
29.0
 40
29.0
 40
30.0
 40
30.0
 40
30.0
 40
31.0
 40
31.0
 40
31.0
 40
32.0
 40
32.0
 40
32.0
 40
33.0
 40
33.0
 40
33.0
 40
34.0
 40
34.0
 40
34.0
 40
35.0
 40
35.0
 40
35.0
 40
36.0
 40
36.0
 40
36.0
 40
37.0
 40
37.0
 40
37.0
 40
38.0
 40
38.0
 40
38.0
 40
39.0
 40
39.0
 40
39.0
 40
40.0
 40
40.0
 40
40.0
 40
41.0
 40
41.0
 40
41.0
 40
42.0
 40
42.0
 40
42.0
 40
43.0
 40
43.0
 40
43.0
 40
44.0
 40
44.0
 40
44.0
 40
45.0
 40
45.0
 40
45.0
 40
46.0
 40
46.0
 40
46.0
 40
47.0
 40
47.0
 40
47.0
 40
48.0
 40
48.0
 40
48.0
 40
49.0
 40
49.0
 40
49.0
 40
50.0
 40
50.0
 40
50.0
 40
51.0
 40
51.0
 40
51.0
 40
52.0
 40
52.0
 40
52.0
 40
53.0
 40
53.0
 40
53.0
 40
54.0
 40
54.0
 40
54.0
 40
55.0
 40
55.0
 40
55.0
 40
56.0
 40
56.0
 40
56.0
 40
57.0
 40
57.0
 40
57.0
 40
58.0
 40
58.0
 40
58.0
 40
59.0
 40
59.0
 40
59.0
 40
59.0
 10
107.3601798951438
 20
149.7378157319371
 30
0.0
 10
107.3601798951438
 20
149.7378157319371
 30
0.0
 10
108.0309522324437
 20
147.536767064029
 30
0.0
 10
108.0309522324437
 20
147.536767064029
 30
0.0
 10
108.0341702484435
 20
147.5254867540292
 30
0.0
 10
108.03738826446
 20
147.5142064436149
 30
0.0
 10
108.0405485706761
 20
147.5028976358852
 30
0.0
 10
108.0428469798092
 20
147.4946730319368
 30
0.0
 10
108.045114864628
 20
147.4864333549682
 30
0.0
 10
108.0467579657418
 20
147.4780600556097
 30
0.0
 10
108.0480747012716
 20
147.4713499264035
 30
0.0
 10
108.0489902023437
 20
147.4645539852477
 30
0.0
 10
108.0495804182568
 20
147.457738398486
 30
0.0
 10
108.0501821387081
 20
147.4507899617257
 30
0.0
 10
108.0504457694402
 20
147.4438211060276
 30
0.0
 10
108.0507093994394
 20
147.4368522510277
 30
0.0
 10
108.0500027714392
 20
147.426253645028
 30
0.0
 10
108.0492961431477
 20
147.4156550384944
 30
0.0
 10
108.0473224564601
 20
147.4052407846934
 30
0.0
 10
108.0454493315417
 20
147.3953571499621
 30
0.0
 10
108.0424349752834
 20
147.3856395605517
 30
0.0
 10
108.0382906090084
 20
147.376451770692
 30
0.0
 10
108.034327923548
 20
147.3676667553535
 30
0.0
 10
108.0293321312546
 20
147.3593661069913
 30
0.0
 10
108.0236138564277
 20
147.3516141898081
 30
0.0
 10
108.0177507375786
 20
147.3436659163971
 30
0.0
 10
108.011128071648
 20
147.3362945249822
 30
0.0
 10
108.0038566902355
 20
147.3295990618718
 30
0.0
 10
107.996419061834
 20
147.322750519103
 30
0.0
 10
107.9883027154377
 20
147.3166091657197
 30
0.0
 10
107.979583600401
 20
147.3115353668502
 30
0.0
 10
107.9708462952411
 20
147.3064509828432
 30
0.0
 10
107.9615037037846
 20
147.3024386123331
 30
0.0
 10
107.9519235670438
 20
147.2991165762517
 30
0.0
 10
107.9418009185013
 20
147.2956064172003
 30
0.0
 10
107.9314130590935
 20
147.2928669919987
 30
0.0
 10
107.9208765915069
 20
147.2912137097342
 30
0.0
 10
107.9095138385967
 20
147.2894307746353
 30
0.0
 10
107.8979782554333
 20
147.2889110160344
 30
0.0
 10
107.886442672433
 20
147.2883912580354
 30
0.0
 10
107.8766477994328
 20
147.2885161490357
 30
0.0
 10
107.8668529256317
 20
147.2886410400449
 30
0.0
 10
107.8570891680571
 20
147.2895202385314
 30
0.0
 10
107.8483288292783
 20
147.2903090820213
 30
0.0
 10
107.8395935397502
 20
147.291705159737
 30
0.0
 10
107.8311226064372
 20
147.2940361622364
 30
0.0
 10
107.822968456341
 20
147.2962799934134
 30
0.0
 10
107.8150592601696
 20
147.2993901310455
 30
0.0
 10
107.8074140070228
 20
147.3030680100661
 30
0.0
 10
107.8000915994609
 20
147.3065905787286
 30
0.0
 10
107.7930113138944
 20
147.3106339517509
 30
0.0
 10
107.7865278599604
 20
147.3154868002809
 30
0.0
 10
107.7799213628236
 20
147.3204317463311
 30
0.0
 10
107.773934565659
 20
147.3262171839398
 30
0.0
 10
107.7684641647021
 20
147.3324215144266
 30
0.0
 10
107.7628520163872
 20
147.3387866096287
 30
0.0
 10
107.7577833723978
 20
147.3455925874093
 30
0.0
 10
107.7532229225074
 20
147.3527431711935
 30
0.0
 10
107.7481913511085
 20
147.3606324526715
 30
0.0
 10
107.7437783962409
 20
147.3689412175127
 30
0.0
 10
107.7402396417225
 20
147.3775807519503
 30
0.0
 10
107.7364381266326
 20
147.3868617914713
 30
0.0
 10
107.7336454544383
 20
147.3965245450422
 30
0.0
 10
107.7308527824383
 20
147.4061872990417
 30
0.0
 10
107.7308527824383
 20
147.4061872990417
 30
0.0
 10
107.6333072854522
 20
147.7219193870471
 30
0.0
 10
107.6333072854522
 20
147.7219193870471
 30
0.0
 10
107.6333072854522
 20
147.7219193870471
 30
0.0
 10
106.759299636453
 20
147.7219193870856
 30
0.0
 10
106.759299636453
 20
147.7219193870856
 30
0.0
 10
106.759299636453
 20
147.7219193870856
 30
0.0
 10
106.6575469224376
 20
147.3866125990908
 30
0.0
 10
106.6575469224376
 20
147.3866125990908
 30
0.0
 10
106.6510899374365
 20
147.3712336640912
 30
0.0
 10
106.6446329521903
 20
147.3558547282061
 30
0.0
 10
106.6349673030533
 20
147.3425823428601
 30
0.0
 10
106.6262291998263
 20
147.330583617108
 30
0.0
 10
106.6148687112115
 20
147.320306538601
 30
0.0
 10
106.6022268557603
 20
147.312099857779
 30
0.0
 10
106.5888628184586
 20
147.3034243600207
 30
0.0
 10
106.5740668333215
 20
147.2970625646314
 30
0.0
 10
106.5587610896685
 20
147.2934716723009
 30
0.0
 10
106.5413265061546
 20
147.2893813312071
 30
0.0
 10
106.5232305004333
 20
147.2888862940963
 30
0.0
 10
106.5051344954332
 20
147.288391258097
 30
0.0
 10
106.4941721674331
 20
147.2889487740987
 30
0.0
 10
106.4832098399649
 20
147.2895062900593
 30
0.0
 10
106.4723940482302
 20
147.2912137103207
 30
0.0
 10
106.4620296922394
 20
147.2928498652913
 30
0.0
 10
106.4517998948774
 20
147.2955419370849
 30
0.0
 10
106.441911563049
 20
147.299116577014
 30
0.0
 10
106.4325521281799
 20
147.3025000202656
 30
0.0
 10
106.4234986078102
 20
147.3066741447547
 30
0.0
 10
106.4148160200976
 20
147.3115353674021
 30
0.0
 10
106.4060590088581
 20
147.3164382584261
 30
0.0
 10
106.3976793164895
 20
147.3220400771286
 30
0.0
 10
106.3899784393947
 20
147.3284700814592
 30
0.0
 10
106.3825133384681
 20
147.3347032196729
 30
0.0
 10
106.3756861228345
 20
147.3417146070679
 30
0.0
 10
106.3696567829936
 20
147.3493562284388
 30
0.0
 10
106.3637266748415
 20
147.3568720829775
 30
0.0
 10
106.358568395508
 20
147.3649975972516
 30
0.0
 10
106.3544155400661
 20
147.3736293184734
 30
0.0
 10
106.350432059509
 20
147.3819089935429
 30
0.0
 10
106.3473736625402
 20
147.3906544261318
 30
0.0
 10
106.3453836928191
 20
147.3995958799714
 30
0.0
 10
106.3432398535119
 20
147.4092287100611
 30
0.0
 10
106.3423360564386
 20
147.419089047104
 30
0.0
 10
106.3414322594397
 20
147.4289493851044
 30
0.0
 10
106.3416197254394
 20
147.4355554831044
 30
0.0
 10
106.3418071909829
 20
147.4421615809363
 30
0.0
 10
106.3425612404105
 20
147.448706550972
 30
0.0
 10
106.3434597476718
 20
147.4565053807198
 30
0.0
 10
106.3451627210764
 20
147.4642174179478
 30
0.0
 10
106.3470771642927
 20
147.4718506602963
 30
0.0
 10
106.3483554695297
 20
147.4769475018147
 30
0.0
 10
106.3497280575807
 20
147.4820092130096
 30
0.0
 10
106.3510285974077
 20
147.4870919026924
 30
0.0
 10
106.3527588154302
 20
147.4938538342433
 30
0.0
 10
106.3543615136516
 20
147.5006528961009
 30
0.0
 10
106.3561090116398
 20
147.5074135598829
 30
0.0
 10
106.3583601014122
 20
147.5161225033018
 30
0.0
 10
106.3608514725677
 20
147.5247677287809
 30
0.0
 10
106.3634473875839
 20
147.5333801211472
 30
0.0
 10
106.3665392138847
 20
147.543637784077
 30
0.0
 10
106.3697793424452
 20
147.5538488711031
 30
0.0
 10
106.3730194704454
 20
147.5640599581035
 30
0.0
 10
106.3730194704454
 20
147.5640599581035
 30
0.0
 10
107.036320026545
 20
149.7732783020733
 30
0.0
 10
107.036320026545
 20
149.7732783020733
 30
0.0
 10
107.0392142675448
 20
149.7824334490735
 30
0.0
 10
107.0421085075339
 20
149.791588595406
 30
0.0
 10
107.0459163647748
 20
149.800373844793
 30
0.0
 10
107.0494971760044
 20
149.8086352678659
 30
0.0
 10
107.0538859025287
 20
149.8165695896281
 30
0.0
 10
107.0588996458388
 20
149.8240824445661
 30
0.0
 10
107.0634455025715
 20
149.8308941938103
 30
0.0
 10
107.0685051650762
 20
149.8373594690201
 30
0.0
 10
107.0741408884833
 20
149.8432751201498
 30
0.0
 10
107.0796603054847
 20
149.8490686879079
 30
0.0
 10
107.0857322519889
 20
149.854335083072
 30
0.0
 10
107.0922045831795
 20
149.8590808533355
 30
0.0
 10
107.0987569654654
 20
149.8638853202397
 30
0.0
 10
107.105719697762
 20
149.8681562042147
 30
0.0
 10
107.1130907304209
 20
149.8714996434672
 30
0.0
 10
107.120671593622
 20
149.8749382601122
 30
0.0
 10
107.1286843341585
 20
149.8773958774901
 30
0.0
 10
107.1367993299752
 20
149.8794025102693
 30
0.0
 10
107.1453576498755
 20
149.8815187658583
 30
0.0
 10
107.1540297026931
 20
149.8831334161186
 30
0.0
 10
107.1627658918524
 20
149.8839184338687
 30
0.0
 10
107.1724973386907
 20
149.8847928836271
 30
0.0
 10
107.18230836755
 20
149.8846379040669
 30
0.0
 10
107.1921193965498
 20
149.884482924067
 30
0.0
 10
107.2028664325496
 20
149.8844508380662
 30
0.0
 10
107.2136134691623
 20
149.8844187511259
 30
0.0
 10
107.2242953532591
 20
149.883353943391
 30
0.0
 10
107.2340288327798
 20
149.8823836759564
 30
0.0
 10
107.243708215484
 20
149.8805559296293
 30
0.0
 10
107.253084367025
 20
149.8777090386805
 30
0.0
 10
107.2614942933128
 20
149.8751555237418
 30
0.0
 10
107.2696602650198
 20
149.8717820897853
 30
0.0
 10
107.2773574570821
 20
149.8675482104645
 30
0.0
 10
107.2845945832165
 20
149.8635673927281
 30
0.0
 10
107.291417293476
 20
149.8588259143656
 30
0.0
 10
107.2976791140229
 20
149.853435948737
 30
0.0
 10
107.3043497184107
 20
149.8476941156551
 30
0.0
 10
107.3103838107787
 20
149.8412163626039
 30
0.0
 10
107.3157428086126
 20
149.8342432729855
 30
0.0
 10
107.3219841939412
 20
149.8261220270756
 30
0.0
 10
107.327309866184
 20
149.817328895742
 30
0.0
 10
107.3321130321721
 20
149.8082767113002
 30
0.0
 10
107.3376468105482
 20
149.7978475937898
 30
0.0
 10
107.3424870356485
 20
149.7870746198562
 30
0.0
 10
107.3467897845205
 20
149.7761007543766
 30
0.0
 10
107.351724447837
 20
149.7635152345061
 30
0.0
 10
107.3559521715437
 20
149.7506654830592
 30
0.0
 10
107.3601798951438
 20
149.7378157319371
 30
0.0
  0
ENDBLK
  5
4F
330
4C
100
AcDbEntity
  8
0
100
AcDbBlockEnd
  0
BLOCK
  5
53
330
51
100
AcDbEntity
  8
0
100
AcDbBlockBegin
  2
block 4
 70
     0
 10
0.0
 20
0.0
 30
0.0
  3
block 4
  1

  0
SPLINE
  5
55
330
51
100
AcDbEntity
  8
0
 62
     7
420
 16777215
370
     5
100
AcDbSpline
210
0.0
220
0.0
230
1.0
 70
    11
 71
     3
 72
   182
 73
   178
 74
     0
 42
0.0000000001
 43
0.0000000001
 12
1.0
 22
0.0
 32
0.0
 13
1.0
 23
0.0
 33
0.0
 40
0.0
 40
0.0
 40
0.0
 40
0.0
 40
1.0
 40
1.0
 40
1.0
 40
2.0
 40
2.0
 40
2.0
 40
3.0
 40
3.0
 40
3.0
 40
4.0
 40
4.0
 40
4.0
 40
5.0
 40
5.0
 40
5.0
 40
6.0
 40
6.0
 40
6.0
 40
7.0
 40
7.0
 40
7.0
 40
8.0
 40
8.0
 40
8.0
 40
9.0
 40
9.0
 40
9.0
 40
10.0
 40
10.0
 40
10.0
 40
11.0
 40
11.0
 40
11.0
 40
12.0
 40
12.0
 40
12.0
 40
13.0
 40
13.0
 40
13.0
 40
14.0
 40
14.0
 40
14.0
 40
15.0
 40
15.0
 40
15.0
 40
16.0
 40
16.0
 40
16.0
 40
17.0
 40
17.0
 40
17.0
 40
18.0
 40
18.0
 40
18.0
 40
19.0
 40
19.0
 40
19.0
 40
20.0
 40
20.0
 40
20.0
 40
21.0
 40
21.0
 40
21.0
 40
22.0
 40
22.0
 40
22.0
 40
23.0
 40
23.0
 40
23.0
 40
24.0
 40
24.0
 40
24.0
 40
25.0
 40
25.0
 40
25.0
 40
26.0
 40
26.0
 40
26.0
 40
27.0
 40
27.0
 40
27.0
 40
28.0
 40
28.0
 40
28.0
 40
29.0
 40
29.0
 40
29.0
 40
30.0
 40
30.0
 40
30.0
 40
31.0
 40
31.0
 40
31.0
 40
32.0
 40
32.0
 40
32.0
 40
33.0
 40
33.0
 40
33.0
 40
34.0
 40
34.0
 40
34.0
 40
35.0
 40
35.0
 40
35.0
 40
36.0
 40
36.0
 40
36.0
 40
37.0
 40
37.0
 40
37.0
 40
38.0
 40
38.0
 40
38.0
 40
39.0
 40
39.0
 40
39.0
 40
40.0
 40
40.0
 40
40.0
 40
41.0
 40
41.0
 40
41.0
 40
42.0
 40
42.0
 40
42.0
 40
43.0
 40
43.0
 40
43.0
 40
44.0
 40
44.0
 40
44.0
 40
45.0
 40
45.0
 40
45.0
 40
46.0
 40
46.0
 40
46.0
 40
47.0
 40
47.0
 40
47.0
 40
48.0
 40
48.0
 40
48.0
 40
49.0
 40
49.0
 40
49.0
 40
50.0
 40
50.0
 40
50.0
 40
51.0
 40
51.0
 40
51.0
 40
52.0
 40
52.0
 40
52.0
 40
53.0
 40
53.0
 40
53.0
 40
54.0
 40
54.0
 40
54.0
 40
55.0
 40
55.0
 40
55.0
 40
56.0
 40
56.0
 40
56.0
 40
57.0
 40
57.0
 40
57.0
 40
58.0
 40
58.0
 40
58.0
 40
59.0
 40
59.0
 40
59.0
 40
59.0
 10
103.0971478735433
 20
149.7378157322506
 30
0.0
 10
103.0971478735433
 20
149.7378157322506
 30
0.0
 10
103.7679202114445
 20
147.5367670642202
 30
0.0
 10
103.7679202114445
 20
147.5367670642202
 30
0.0
 10
103.7711382274437
 20
147.5254867542204
 30
0.0
 10
103.7743562434601
 20
147.5142064438061
 30
0.0
 10
103.7775165496756
 20
147.5028976360765
 30
0.0
 10
103.7798149588094
 20
147.4946730321293
 30
0.0
 10
103.7820828436282
 20
147.4864333551594
 30
0.0
 10
103.7837259447419
 20
147.4780600558009
 30
0.0
 10
103.7850426802717
 20
147.4713499265947
 30
0.0
 10
103.7859581813439
 20
147.4645539854389
 30
0.0
 10
103.7865483970118
 20
147.4577383986772
 30
0.0
 10
103.7871501172135
 20
147.450789961917
 30
0.0
 10
103.7874137474399
 20
147.4438211062188
 30
0.0
 10
103.7876773774398
 20
147.4368522512189
 30
0.0
 10
103.7869707494396
 20
147.4262536452192
 30
0.0
 10
103.7862641216602
 20
147.4156550386856
 30
0.0
 10
103.7842904350425
 20
147.4052407848847
 30
0.0
 10
103.7824173101921
 20
147.3953571501534
 30
0.0
 10
103.7794029536008
 20
147.3856395607442
 30
0.0
 10
103.7752585873373
 20
147.3764517708832
 30
0.0
 10
103.7712959018885
 20
147.3676667555447
 30
0.0
 10
103.7663001099204
 20
147.3593661071825
 30
0.0
 10
103.7605818352591
 20
147.3516141899993
 30
0.0
 10
103.7547187165782
 20
147.3436659165883
 30
0.0
 10
103.7480960506482
 20
147.3362945251734
 30
0.0
 10
103.7408246690733
 20
147.329599062063
 30
0.0
 10
103.7333870405062
 20
147.3227505192942
 30
0.0
 10
103.7252706937737
 20
147.3166091659109
 30
0.0
 10
103.7165515787326
 20
147.3115353670414
 30
0.0
 10
103.7078142735681
 20
147.3064509830344
 30
0.0
 10
103.6984716824383
 20
147.3024386125244
 30
0.0
 10
103.6888915457142
 20
147.2991165764429
 30
0.0
 10
103.6787688971883
 20
147.2956064173916
 30
0.0
 10
103.66838103745
 20
147.2928669921899
 30
0.0
 10
103.6578445699234
 20
147.2912137099254
 30
0.0
 10
103.6464818170771
 20
147.2894307748265
 30
0.0
 10
103.6349462344329
 20
147.2889110162269
 30
0.0
 10
103.6234106514331
 20
147.2883912582266
 30
0.0
 10
103.6136157774332
 20
147.2885161492269
 30
0.0
 10
103.603820904159
 20
147.2886410402361
 30
0.0
 10
103.5940571468333
 20
147.2895202387226
 30
0.0
 10
103.5852968082778
 20
147.2903090822125
 30
0.0
 10
103.5765615187503
 20
147.2917051599283
 30
0.0
 10
103.5680905854381
 20
147.2940361624277
 30
0.0
 10
103.5599364353411
 20
147.2962799936047
 30
0.0
 10
103.5520272391698
 20
147.2993901312367
 30
0.0
 10
103.5443819858484
 20
147.3030680102574
 30
0.0
 10
103.5370595781203
 20
147.3065905789211
 30
0.0
 10
103.5299792922275
 20
147.3106339519421
 30
0.0
 10
103.52349583829
 20
147.3154868004734
 30
0.0
 10
103.5168893411506
 20
147.3204317465223
 30
0.0
 10
103.5109025443181
 20
147.326217184131
 30
0.0
 10
103.5054321433724
 20
147.3324215146178
 30
0.0
 10
103.4998199950704
 20
147.3387866098199
 30
0.0
 10
103.4947513507556
 20
147.3455925876005
 30
0.0
 10
103.4901909006952
 20
147.3527431713847
 30
0.0
 10
103.4851593291082
 20
147.3606324528627
 30
0.0
 10
103.480746374241
 20
147.3689412177052
 30
0.0
 10
103.4772076197229
 20
147.3775807521428
 30
0.0
 10
103.4734061046331
 20
147.3868617916625
 30
0.0
 10
103.470613432438
 20
147.3965245452334
 30
0.0
 10
103.4678207604388
 20
147.4061872992329
 30
0.0
 10
103.4678207604388
 20
147.4061872992329
 30
0.0
 10
103.370275264453
 20
147.7219193872383
 30
0.0
 10
103.370275264453
 20
147.7219193872383
 30
0.0
 10
103.370275264453
 20
147.7219193872383
 30
0.0
 10
102.4962676154525
 20
147.7219193872768
 30
0.0
 10
102.4962676154525
 20
147.7219193872768
 30
0.0
 10
102.4962676154525
 20
147.7219193872768
 30
0.0
 10
102.3945149004373
 20
147.3866125992821
 30
0.0
 10
102.3945149004373
 20
147.3866125992821
 30
0.0
 10
102.3880579154369
 20
147.3712336642824
 30
0.0
 10
102.3816009307156
 20
147.3558547283973
 30
0.0
 10
102.3719352818276
 20
147.3425823430513
 30
0.0
 10
102.3631971788259
 20
147.3305836172992
 30
0.0
 10
102.3518366902117
 20
147.3203065387922
 30
0.0
 10
102.3391948347605
 20
147.3120998579703
 30
0.0
 10
102.3258307974588
 20
147.3034243602119
 30
0.0
 10
102.311034812321
 20
147.2970625648227
 30
0.0
 10
102.2957290686687
 20
147.2934716724922
 30
0.0
 10
102.2782944851541
 20
147.2893813313996
 30
0.0
 10
102.2601984794328
 20
147.2888862942876
 30
0.0
 10
102.242102473433
 20
147.2883912582882
 30
0.0
 10
102.2311401464332
 20
147.2889487742899
 30
0.0
 10
102.2201778184543
 20
147.2895062902505
 30
0.0
 10
102.2093620264699
 20
147.291213710512
 30
0.0
 10
102.1989976702398
 20
147.2928498654825
 30
0.0
 10
102.1887678728778
 20
147.2955419372762
 30
0.0
 10
102.1788795412262
 20
147.2991165772052
 30
0.0
 10
102.1695201065242
 20
147.3025000204568
 30
0.0
 10
102.1604665864822
 20
147.306674144946
 30
0.0
 10
102.1517839989329
 20
147.3115353675933
 30
0.0
 10
102.1430269878583
 20
147.3164382586174
 30
0.0
 10
102.1346472954891
 20
147.3220400773199
 30
0.0
 10
102.126946418221
 20
147.3284700816504
 30
0.0
 10
102.1194813171262
 20
147.3347032198642
 30
0.0
 10
102.1126541011605
 20
147.3417146072591
 30
0.0
 10
102.1066247613283
 20
147.3493562286313
 30
0.0
 10
102.1006946531833
 20
147.3568720831687
 30
0.0
 10
102.095536374186
 20
147.3649975974428
 30
0.0
 10
102.0913835187377
 20
147.3736293186659
 30
0.0
 10
102.0874000381749
 20
147.3819089937341
 30
0.0
 10
102.0843416408859
 20
147.390654426323
 30
0.0
 10
102.0823516709985
 20
147.3995958801626
 30
0.0
 10
102.0802078315117
 20
147.4092287102523
 30
0.0
 10
102.079304034439
 20
147.4190890472966
 30
0.0
 10
102.0784002374395
 20
147.4289493852969
 30
0.0
 10
102.0785877034398
 20
147.4355554832969
 30
0.0
 10
102.0787751694389
 20
147.4421615811275
 30
0.0
 10
102.0795292189615
 20
147.4487065511632
 30
0.0
 10
102.080427726337
 20
147.456505380911
 30
0.0
 10
102.0821306993431
 20
147.4642174181391
 30
0.0
 10
102.0840451426338
 20
147.4718506604875
 30
0.0
 10
102.0853234479209
 20
147.4769475020059
 30
0.0
 10
102.086696036233
 20
147.4820092132008
 30
0.0
 10
102.087996576103
 20
147.4870919028837
 30
0.0
 10
102.0897267941834
 20
147.4938538344345
 30
0.0
 10
102.0913294920755
 20
147.5006528962921
 30
0.0
 10
102.0930769899932
 20
147.5074135600754
 30
0.0
 10
102.0953280796737
 20
147.5161225034931
 30
0.0
 10
102.0978194511668
 20
147.5247677289721
 30
0.0
 10
102.1004153661577
 20
147.5333801213385
 30
0.0
 10
102.103507192428
 20
147.5436377842682
 30
0.0
 10
102.1067473204449
 20
147.5538488712956
 30
0.0
 10
102.1099874484458
 20
147.5640599582948
 30
0.0
 10
102.1099874484458
 20
147.5640599582948
 30
0.0
 10
102.7732880055445
 20
149.7732783022648
 30
0.0
 10
102.7732880055445
 20
149.7732783022648
 30
0.0
 10
102.7761822455452
 20
149.782433449265
 30
0.0
 10
102.779076486049
 20
149.7915885955972
 30
0.0
 10
102.7828843433553
 20
149.8003738449845
 30
0.0
 10
102.7864651546471
 20
149.8086352680568
 30
0.0
 10
102.790853880834
 20
149.8165695898196
 30
0.0
 10
102.7958676239842
 20
149.8240824447577
 30
0.0
 10
102.8004134805713
 20
149.8308941940016
 30
0.0
 10
102.8054731430773
 20
149.8373594692117
 30
0.0
 10
102.8111088666531
 20
149.8432751203413
 30
0.0
 10
102.8166282838207
 20
149.8490686880994
 30
0.0
 10
102.8227002306547
 20
149.8543350832633
 30
0.0
 10
102.8291725620115
 20
149.8590808535264
 30
0.0
 10
102.8357249444643
 20
149.863885320431
 30
0.0
 10
102.8426876767622
 20
149.8681562044059
 30
0.0
 10
102.8500587094211
 20
149.8714996436584
 30
0.0
 10
102.8576395726215
 20
149.8749382603031
 30
0.0
 10
102.865652313158
 20
149.8773958776813
 30
0.0
 10
102.8737673088246
 20
149.8794025104608
 30
0.0
 10
102.8823256285664
 20
149.8815187660499
 30
0.0
 10
102.8909976810567
 20
149.8831334163101
 30
0.0
 10
102.8997338700441
 20
149.88391843406
 30
0.0
 10
102.9094653166911
 20
149.8847928838186
 30
0.0
 10
102.9192763455498
 20
149.8846379042585
 30
0.0
 10
102.9290873745496
 20
149.8844829242579
 30
0.0
 10
102.9398344115498
 20
149.8844508382577
 30
0.0
 10
102.9505814476388
 20
149.8844187513171
 30
0.0
 10
102.9612633314867
 20
149.8833539435825
 30
0.0
 10
102.9709968107796
 20
149.8823836761476
 30
0.0
 10
102.9806761934844
 20
149.8805559298209
 30
0.0
 10
102.9900523452173
 20
149.877709038872
 30
0.0
 10
102.998462271677
 20
149.8751555239334
 30
0.0
 10
103.0066282437119
 20
149.8717820899766
 30
0.0
 10
103.0143254357589
 20
149.8675482106554
 30
0.0
 10
103.0215625618759
 20
149.8635673929193
 30
0.0
 10
103.0283852718165
 20
149.8588259145568
 30
0.0
 10
103.0346470923455
 20
149.8534359489282
 30
0.0
 10
103.0413176967127
 20
149.8476941158467
 30
0.0
 10
103.0473517894035
 20
149.8412163627955
 30
0.0
 10
103.05271078741
 20
149.8342432731771
 30
0.0
 10
103.0589521729413
 20
149.8261220272665
 30
0.0
 10
103.0642778451842
 20
149.8173288959332
 30
0.0
 10
103.0690810111729
 20
149.8082767114917
 30
0.0
 10
103.0746147895483
 20
149.7978475939813
 30
0.0
 10
103.0794550146487
 20
149.7870746200475
 30
0.0
 10
103.08375776352
 20
149.7761007545681
 30
0.0
 10
103.0886924268365
 20
149.7635152346976
 30
0.0
 10
103.0929201505438
 20
149.7506654832505
 30
0.0
 10
103.0971478735433
 20
149.7378157322506
 30
0.0
  0
ENDBLK
  5
54
330
51
100
AcDbEntity
  8
0
100
AcDbBlockEnd
  0
BLOCK
  5
58
330
56
100
AcDbEntity
  8
0
100
AcDbBlockBegin
  2
block 5
 70
     0
 10
0.0
 20
0.0
 30
0.0
  3
block 5
  1

  0
SPLINE
  5
5A
330
56
100
AcDbEntity
  8
0
 62
     7
420
 16777215
370
     5
100
AcDbSpline
210
0.0
220
0.0
230
1.0
 70
    11
 71
     3
 72
   182
 73
   178
 74
     0
 42
0.0000000001
 43
0.0000000001
 12
1.0
 22
0.0
 32
0.0
 13
1.0
 23
0.0
 33
0.0
 40
0.0
 40
0.0
 40
0.0
 40
0.0
 40
1.0
 40
1.0
 40
1.0
 40
2.0
 40
2.0
 40
2.0
 40
3.0
 40
3.0
 40
3.0
 40
4.0
 40
4.0
 40
4.0
 40
5.0
 40
5.0
 40
5.0
 40
6.0
 40
6.0
 40
6.0
 40
7.0
 40
7.0
 40
7.0
 40
8.0
 40
8.0
 40
8.0
 40
9.0
 40
9.0
 40
9.0
 40
10.0
 40
10.0
 40
10.0
 40
11.0
 40
11.0
 40
11.0
 40
12.0
 40
12.0
 40
12.0
 40
13.0
 40
13.0
 40
13.0
 40
14.0
 40
14.0
 40
14.0
 40
15.0
 40
15.0
 40
15.0
 40
16.0
 40
16.0
 40
16.0
 40
17.0
 40
17.0
 40
17.0
 40
18.0
 40
18.0
 40
18.0
 40
19.0
 40
19.0
 40
19.0
 40
20.0
 40
20.0
 40
20.0
 40
21.0
 40
21.0
 40
21.0
 40
22.0
 40
22.0
 40
22.0
 40
23.0
 40
23.0
 40
23.0
 40
24.0
 40
24.0
 40
24.0
 40
25.0
 40
25.0
 40
25.0
 40
26.0
 40
26.0
 40
26.0
 40
27.0
 40
27.0
 40
27.0
 40
28.0
 40
28.0
 40
28.0
 40
29.0
 40
29.0
 40
29.0
 40
30.0
 40
30.0
 40
30.0
 40
31.0
 40
31.0
 40
31.0
 40
32.0
 40
32.0
 40
32.0
 40
33.0
 40
33.0
 40
33.0
 40
34.0
 40
34.0
 40
34.0
 40
35.0
 40
35.0
 40
35.0
 40
36.0
 40
36.0
 40
36.0
 40
37.0
 40
37.0
 40
37.0
 40
38.0
 40
38.0
 40
38.0
 40
39.0
 40
39.0
 40
39.0
 40
40.0
 40
40.0
 40
40.0
 40
41.0
 40
41.0
 40
41.0
 40
42.0
 40
42.0
 40
42.0
 40
43.0
 40
43.0
 40
43.0
 40
44.0
 40
44.0
 40
44.0
 40
45.0
 40
45.0
 40
45.0
 40
46.0
 40
46.0
 40
46.0
 40
47.0
 40
47.0
 40
47.0
 40
48.0
 40
48.0
 40
48.0
 40
49.0
 40
49.0
 40
49.0
 40
50.0
 40
50.0
 40
50.0
 40
51.0
 40
51.0
 40
51.0
 40
52.0
 40
52.0
 40
52.0
 40
53.0
 40
53.0
 40
53.0
 40
54.0
 40
54.0
 40
54.0
 40
55.0
 40
55.0
 40
55.0
 40
56.0
 40
56.0
 40
56.0
 40
57.0
 40
57.0
 40
57.0
 40
58.0
 40
58.0
 40
58.0
 40
59.0
 40
59.0
 40
59.0
 40
59.0
 10
105.2286638845431
 20
149.7378157321546
 30
0.0
 10
105.2286638845431
 20
149.7378157321546
 30
0.0
 10
105.8994362224437
 20
147.536767064124
 30
0.0
 10
105.8994362224437
 20
147.536767064124
 30
0.0
 10
105.9026542384435
 20
147.5254867541242
 30
0.0
 10
105.9058722538811
 20
147.5142064437111
 30
0.0
 10
105.9090325601037
 20
147.5028976359815
 30
0.0
 10
105.9113309692419
 20
147.4946730320331
 30
0.0
 10
105.9135988543758
 20
147.4864333550644
 30
0.0
 10
105.9152419556294
 20
147.4780600557046
 30
0.0
 10
105.9165586912715
 20
147.4713499264985
 30
0.0
 10
105.9174741923437
 20
147.4645539853426
 30
0.0
 10
105.9180644080116
 20
147.457738398581
 30
0.0
 10
105.9186661282133
 20
147.450789961822
 30
0.0
 10
105.9189297584404
 20
147.4438211061239
 30
0.0
 10
105.9191933884396
 20
147.4368522511239
 30
0.0
 10
105.9184867604394
 20
147.4262536451242
 30
0.0
 10
105.9177801321473
 20
147.4156550385893
 30
0.0
 10
105.9158064454597
 20
147.4052407847884
 30
0.0
 10
105.9139333205419
 20
147.3953571500584
 30
0.0
 10
105.910918964283
 20
147.385639560648
 30
0.0
 10
105.9067745981825
 20
147.376451770787
 30
0.0
 10
105.902811912889
 20
147.3676667554484
 30
0.0
 10
105.8978161209209
 20
147.3593661070862
 30
0.0
 10
105.8920978462589
 20
147.3516141899044
 30
0.0
 10
105.8862347275786
 20
147.3436659164933
 30
0.0
 10
105.879612061648
 20
147.3362945250784
 30
0.0
 10
105.8723406800737
 20
147.329599061968
 30
0.0
 10
105.864903051506
 20
147.322750519198
 30
0.0
 10
105.8567867047735
 20
147.3166091658159
 30
0.0
 10
105.8480675897324
 20
147.3115353669465
 30
0.0
 10
105.8393302845679
 20
147.3064509829382
 30
0.0
 10
105.8299876934387
 20
147.3024386124294
 30
0.0
 10
105.820407556714
 20
147.2991165763479
 30
0.0
 10
105.8102849081881
 20
147.2956064172966
 30
0.0
 10
105.7998970484492
 20
147.2928669920936
 30
0.0
 10
105.7893605809235
 20
147.2912137098292
 30
0.0
 10
105.7779978280775
 20
147.2894307747315
 30
0.0
 10
105.7664622454333
 20
147.2889110161306
 30
0.0
 10
105.754926662433
 20
147.2883912581304
 30
0.0
 10
105.745131788433
 20
147.2885161491319
 30
0.0
 10
105.7353369151594
 20
147.2886410401399
 30
0.0
 10
105.7255731578338
 20
147.2895202386264
 30
0.0
 10
105.7168128192782
 20
147.2903090821175
 30
0.0
 10
105.7080775297501
 20
147.291705159832
 30
0.0
 10
105.6996065964372
 20
147.2940361623327
 30
0.0
 10
105.6914524463409
 20
147.2962799935097
 30
0.0
 10
105.6835432501696
 20
147.2993901311405
 30
0.0
 10
105.6758979968489
 20
147.3030680101624
 30
0.0
 10
105.6685755891207
 20
147.3065905788248
 30
0.0
 10
105.6614953032276
 20
147.3106339518471
 30
0.0
 10
105.6550118492898
 20
147.3154868003772
 30
0.0
 10
105.6484053521498
 20
147.3204317464273
 30
0.0
 10
105.6424185553183
 20
147.326217184036
 30
0.0
 10
105.6369481543729
 20
147.3324215145228
 30
0.0
 10
105.6313360060702
 20
147.338786609725
 30
0.0
 10
105.6262673617561
 20
147.3455925875043
 30
0.0
 10
105.6217069116957
 20
147.3527431712885
 30
0.0
 10
105.6166753401087
 20
147.3606324527665
 30
0.0
 10
105.6122623852405
 20
147.3689412176089
 30
0.0
 10
105.6087236307227
 20
147.3775807520466
 30
0.0
 10
105.6049221156328
 20
147.3868617915676
 30
0.0
 10
105.6021294434385
 20
147.3965245451384
 30
0.0
 10
105.5993367714385
 20
147.4061872991379
 30
0.0
 10
105.5993367714385
 20
147.4061872991379
 30
0.0
 10
105.5017912754521
 20
147.7219193871421
 30
0.0
 10
105.5017912754521
 20
147.7219193871421
 30
0.0
 10
105.5017912754521
 20
147.7219193871421
 30
0.0
 10
104.6277836254526
 20
147.7219193871819
 30
0.0
 10
104.6277836254526
 20
147.7219193871819
 30
0.0
 10
104.6277836254526
 20
147.7219193871819
 30
0.0
 10
104.5260309114371
 20
147.3866125991858
 30
0.0
 10
104.5260309114371
 20
147.3866125991858
 30
0.0
 10
104.5195739264367
 20
147.3712336641862
 30
0.0
 10
104.5131169417154
 20
147.3558547283023
 30
0.0
 10
104.5034512926438
 20
147.3425823429563
 30
0.0
 10
104.4947131894759
 20
147.3305836172043
 30
0.0
 10
104.483352700546
 20
147.320306538696
 30
0.0
 10
104.4707108449319
 20
147.3120998578753
 30
0.0
 10
104.4573468074588
 20
147.303424360117
 30
0.0
 10
104.442550822321
 20
147.2970625647277
 30
0.0
 10
104.4272450788875
 20
147.2934716723972
 30
0.0
 10
104.409810495622
 20
147.2893813313033
 30
0.0
 10
104.3917144904332
 20
147.2888862941926
 30
0.0
 10
104.3736184844328
 20
147.2883912581933
 30
0.0
 10
104.3626561564326
 20
147.2889487741936
 30
0.0
 10
104.3516938289651
 20
147.2895062901555
 30
0.0
 10
104.3408780372304
 20
147.2912137104157
 30
0.0
 10
104.3305136812399
 20
147.2928498653876
 30
0.0
 10
104.3202838838776
 20
147.2955419371799
 30
0.0
 10
104.3103955522263
 20
147.299116577109
 30
0.0
 10
104.301036117524
 20
147.3025000203618
 30
0.0
 10
104.2919825974817
 20
147.306674144851
 30
0.0
 10
104.2833000099327
 20
147.3115353674983
 30
0.0
 10
104.2745429988581
 20
147.3164382585211
 30
0.0
 10
104.2661633064895
 20
147.3220400772249
 30
0.0
 10
104.2584624292208
 20
147.3284700815554
 30
0.0
 10
104.250997328126
 20
147.3347032197692
 30
0.0
 10
104.2441701121606
 20
147.3417146071629
 30
0.0
 10
104.2381407723281
 20
147.349356228535
 30
0.0
 10
104.232210664183
 20
147.3568720830725
 30
0.0
 10
104.2270523851858
 20
147.3649975973466
 30
0.0
 10
104.2228995297378
 20
147.3736293185697
 30
0.0
 10
104.2189160491747
 20
147.3819089936379
 30
0.0
 10
104.2158576518857
 20
147.3906544262281
 30
0.0
 10
104.2138676819983
 20
147.3995958800676
 30
0.0
 10
104.2117238425121
 20
147.4092287101573
 30
0.0
 10
104.2108200454388
 20
147.4190890472003
 30
0.0
 10
104.2099162484393
 20
147.4289493852007
 30
0.0
 10
104.2101037144403
 20
147.4355554832007
 30
0.0
 10
104.2102911799831
 20
147.4421615810313
 30
0.0
 10
104.2110452294104
 20
147.448706551067
 30
0.0
 10
104.2119437366714
 20
147.4565053808147
 30
0.0
 10
104.2136467100772
 20
147.4642174180428
 30
0.0
 10
104.2155611532929
 20
147.4718506603913
 30
0.0
 10
104.2168394585292
 20
147.4769475019096
 30
0.0
 10
104.2182120465809
 20
147.4820092131046
 30
0.0
 10
104.2195125864079
 20
147.4870919027874
 30
0.0
 10
104.2212428044304
 20
147.4938538343395
 30
0.0
 10
104.2228455026518
 20
147.5006528961972
 30
0.0
 10
104.2245930007542
 20
147.5074135599791
 30
0.0
 10
104.2268440906742
 20
147.5161225033968
 30
0.0
 10
104.2293354621666
 20
147.5247677288759
 30
0.0
 10
104.2319313771572
 20
147.5333801212435
 30
0.0
 10
104.2350232034284
 20
147.5436377841732
 30
0.0
 10
104.2382633314454
 20
147.5538488711993
 30
0.0
 10
104.2415034594456
 20
147.5640599581985
 30
0.0
 10
104.2415034594456
 20
147.5640599581985
 30
0.0
 10
104.9048040155445
 20
149.7732783021692
 30
0.0
 10
104.9048040155445
 20
149.7732783021692
 30
0.0
 10
104.907698256545
 20
149.7824334491691
 30
0.0
 10
104.9105924965335
 20
149.7915885955016
 30
0.0
 10
104.9144003537743
 20
149.8003738448886
 30
0.0
 10
104.9179811650045
 20
149.8086352679612
 30
0.0
 10
104.9223698915283
 20
149.8165695897237
 30
0.0
 10
104.927383634839
 20
149.8240824446621
 30
0.0
 10
104.9319294915711
 20
149.8308941939059
 30
0.0
 10
104.9369891540771
 20
149.8373594691154
 30
0.0
 10
104.9426248774828
 20
149.8432751202454
 30
0.0
 10
104.9481442944842
 20
149.8490686880041
 30
0.0
 10
104.9542162409884
 20
149.8543350831677
 30
0.0
 10
104.9606885721797
 20
149.8590808534308
 30
0.0
 10
104.9672409544643
 20
149.8638853203354
 30
0.0
 10
104.9742036867625
 20
149.8681562043103
 30
0.0
 10
104.9815747194211
 20
149.8714996435628
 30
0.0
 10
104.9891555826219
 20
149.8749382602075
 30
0.0
 10
104.997168323158
 20
149.8773958775857
 30
0.0
 10
105.0052833189754
 20
149.8794025103652
 30
0.0
 10
105.0138416388764
 20
149.8815187659539
 30
0.0
 10
105.0225136916933
 20
149.8831334162142
 30
0.0
 10
105.0312498808527
 20
149.8839184339643
 30
0.0
 10
105.0409813276909
 20
149.884792883723
 30
0.0
 10
105.0507923565496
 20
149.8846379041626
 30
0.0
 10
105.06060338555
 20
149.8844829241626
 30
0.0
 10
105.0713504215498
 20
149.8844508381618
 30
0.0
 10
105.0820974581622
 20
149.8844187512215
 30
0.0
 10
105.0927793422593
 20
149.8833539434866
 30
0.0
 10
105.10251282178
 20
149.882383676052
 30
0.0
 10
105.1121922044848
 20
149.8805559297253
 30
0.0
 10
105.1215683560246
 20
149.8777090387764
 30
0.0
 10
105.129978282313
 20
149.8751555238374
 30
0.0
 10
105.13814425402
 20
149.871782089881
 30
0.0
 10
105.1458414460823
 20
149.8675482105601
 30
0.0
 10
105.153078572216
 20
149.8635673928237
 30
0.0
 10
105.1599012824762
 20
149.8588259144612
 30
0.0
 10
105.1661631031694
 20
149.8534359488326
 30
0.0
 10
105.1728337077132
 20
149.8476941157507
 30
0.0
 10
105.1788678004039
 20
149.8412163626999
 30
0.0
 10
105.1842267984104
 20
149.8342432730815
 30
0.0
 10
105.1904681839411
 20
149.8261220271712
 30
0.0
 10
105.195793856184
 20
149.8173288958376
 30
0.0
 10
105.2005970220386
 20
149.8082767113958
 30
0.0
 10
105.20613080026
 20
149.7978475938857
 30
0.0
 10
105.2109710250286
 20
149.7870746199519
 30
0.0
 10
105.2152737737241
 20
149.7761007544722
 30
0.0
 10
105.2202084368372
 20
149.763515234602
 30
0.0
 10
105.2244361605439
 20
149.7506654831548
 30
0.0
 10
105.2286638845431
 20
149.7378157321546
 30
0.0
  0
ENDBLK
  5
59
330
56
100
AcDbEntity
  8
0
100
AcDbBlockEnd
  0
BLOCK
  5
5D
330
5B
100
AcDbEntity
  8
0
100
AcDbBlockBegin
  2
block 6
 70
     0
 10
0.0
 20
0.0
 30
0.0
  3
block 6
  1

  0
POLYLINE
  5
5F
330
5B
100
AcDbEntity
  8
0
 62
     7
420
 16777215
370
     5
100
AcDb2dPolyline
 66
     1
 10
0.0
 20
0.0
 30
0.0
  0
VERTEX
  5
60
330
5F
100
AcDbEntity
  8
0
 62
     7
420
 16777215
370
     5
100
AcDbVertex
100
AcDb2dVertex
 10
106.8607469534665
 20
148.042550524082
 30
0.0
  0
VERTEX
  5
61
330
5F
100
AcDbEntity
  8
0
 62
     7
420
 16777215
370
     5
100
AcDbVertex
100
AcDb2dVertex
 10
107.5318599694667
 20
148.0425505240512
 30
0.0
  0
VERTEX
  5
62
330
5F
100
AcDbEntity
  8
0
 62
     7
420
 16777215
370
     5
100
AcDbVertex
100
AcDb2dVertex
 10
107.1963034615173
 20
149.1661103690665
 30
0.0
  0
VERTEX
  5
63
330
5F
100
AcDbEntity
  8
0
 62
     7
420
 16777215
370
     5
100
AcDbVertex
100
AcDb2dVertex
 10
106.8607469534665
 20
148.042550524082
 30
0.0
  0
SEQEND
  5
65
330
5F
100
AcDbEntity
  8
0
 62
     7
420
 16777215
370
     5
  0
HATCH
  5
64
330
5B
100
AcDbEntity
  8
0
 62
     7
420
 16777215
100
AcDbHatch
 10
0.0
 20
0.0
 30
0.0
210
0.0
220
0.0
230
1.0
  2
SOLID
 70
     1
 71
     0
 91
        1
 92
        1
 93
        3
 72
     1
 10
106.8607469534665
 20
148.042550524082
 11
107.5318599694667
 21
148.0425505240512
 72
     1
 10
107.5318599694667
 20
148.0425505240512
 11
107.1963034615173
 21
149.1661103690665
 72
     1
 10
107.1963034615173
 20
149.1661103690665
 11
106.8607469534665
 21
148.042550524082
 97
        0
 75
     2
 76
     1
 98
        0
  0
ENDBLK
  5
5E
330
5B
100
AcDbEntity
  8
0
100
AcDbBlockEnd
  0
BLOCK
  5
68
330
66
100
AcDbEntity
  8
0
100
AcDbBlockBegin
  2
block 7
 70
     0
 10
0.0
 20
0.0
 30
0.0
  3
block 7
  1

  0
POLYLINE
  5
6A
330
66
100
AcDbEntity
  8
0
 62
     7
420
 16777215
370
     5
100
AcDb2dPolyline
 66
     1
 10
0.0
 20
0.0
 30
0.0
  0
VERTEX
  5
6B
330
6A
100
AcDbEntity
  8
0
 62
     7
420
 16777215
370
     5
100
AcDbVertex
100
AcDb2dVertex
 10
104.7292309424667
 20
148.042550524177
 30
0.0
  0
VERTEX
  5
6C
330
6A
100
AcDbEntity
  8
0
 62
     7
420
 16777215
370
     5
100
AcDbVertex
100
AcDb2dVertex
 10
105.4003439584669
 20
148.0425505241475
 30
0.0
  0
VERTEX
  5
6D
330
6A
100
AcDbEntity
  8
0
 62
     7
420
 16777215
370
     5
100
AcDbVertex
100
AcDb2dVertex
 10
105.0647874505175
 20
149.1661103691621
 30
0.0
  0
VERTEX
  5
6E
330
6A
100
AcDbEntity
  8
0
 62
     7
420
 16777215
370
     5
100
AcDbVertex
100
AcDb2dVertex
 10
104.7292309424667
 20
148.042550524177
 30
0.0
  0
SEQEND
  5
70
330
6A
100
AcDbEntity
  8
0
 62
     7
420
 16777215
370
     5
  0
HATCH
  5
6F
330
66
100
AcDbEntity
  8
0
 62
     7
420
 16777215
100
AcDbHatch
 10
0.0
 20
0.0
 30
0.0
210
0.0
220
0.0
230
1.0
  2
SOLID
 70
     1
 71
     0
 91
        1
 92
        1
 93
        3
 72
     1
 10
104.7292309424667
 20
148.042550524177
 11
105.4003439584669
 21
148.0425505241475
 72
     1
 10
105.4003439584669
 20
148.0425505241475
 11
105.0647874505175
 21
149.1661103691621
 72
     1
 10
105.0647874505175
 20
149.1661103691621
 11
104.7292309424667
 21
148.042550524177
 97
        0
 75
     2
 76
     1
 98
        0
  0
ENDBLK
  5
69
330
66
100
AcDbEntity
  8
0
100
AcDbBlockEnd
  0
BLOCK
  5
73
330
71
100
AcDbEntity
  8
0
100
AcDbBlockBegin
  2
block 8
 70
     0
 10
0.0
 20
0.0
 30
0.0
  3
block 8
  1

  0
POLYLINE
  5
75
330
71
100
AcDbEntity
  8
0
 62
     7
420
 16777215
370
     5
100
AcDb2dPolyline
 66
     1
 10
0.0
 20
0.0
 30
0.0
  0
VERTEX
  5
76
330
75
100
AcDbEntity
  8
0
 62
     7
420
 16777215
370
     5
100
AcDbVertex
100
AcDb2dVertex
 10
102.5977149314669
 20
148.0425505242733
 30
0.0
  0
VERTEX
  5
77
330
75
100
AcDbEntity
  8
0
 62
     7
420
 16777215
370
     5
100
AcDbVertex
100
AcDb2dVertex
 10
103.2688279474671
 20
148.0425505242424
 30
0.0
  0
VERTEX
  5
78
330
75
100
AcDbEntity
  8
0
 62
     7
420
 16777215
370
     5
100
AcDbVertex
100
AcDb2dVertex
 10
102.933271439518
 20
149.166110369258
 30
0.0
  0
VERTEX
  5
79
330
75
100
AcDbEntity
  8
0
 62
     7
420
 16777215
370
     5
100
AcDbVertex
100
AcDb2dVertex
 10
102.5977149314669
 20
148.0425505242733
 30
0.0
  0
SEQEND
  5
7B
330
75
100
AcDbEntity
  8
0
 62
     7
420
 16777215
370
     5
  0
HATCH
  5
7A
330
71
100
AcDbEntity
  8
0
 62
     7
420
 16777215
100
AcDbHatch
 10
0.0
 20
0.0
 30
0.0
210
0.0
220
0.0
230
1.0
  2
SOLID
 70
     1
 71
     0
 91
        1
 92
        1
 93
        3
 72
     1
 10
102.5977149314669
 20
148.0425505242733
 11
103.2688279474671
 21
148.0425505242424
 72
     1
 10
103.2688279474671
 20
148.0425505242424
 11
102.933271439518
 21
149.166110369258
 72
     1
 10
102.933271439518
 20
149.166110369258
 11
102.5977149314669
 21
148.0425505242733
 97
        0
 75
     2
 76
     1
 98
        0
  0
ENDBLK
  5
74
330
71
100
AcDbEntity
  8
0
100
AcDbBlockEnd
  0
ENDSEC
  0
SECTION
  2
ENTITIES
  0
INSERT
  5
41
330
1F
100
AcDbEntity
  8
0
100
AcDbBlockReference
  2
block 2
 10
0.0
 20
0.0
 30
0.0
  0
INSERT
  5
4D
330
1F
100
AcDbEntity
  8
0
100
AcDbBlockReference
  2
block 3
 10
0.0
 20
0.0
 30
0.0
  0
INSERT
  5
52
330
1F
100
AcDbEntity
  8
0
100
AcDbBlockReference
  2
block 4
 10
0.0
 20
0.0
 30
0.0
  0
INSERT
  5
57
330
1F
100
AcDbEntity
  8
0
100
AcDbBlockReference
  2
block 5
 10
0.0
 20
0.0
 30
0.0
  0
INSERT
  5
5C
330
1F
100
AcDbEntity
  8
0
100
AcDbBlockReference
  2
block 6
 10
0.0
 20
0.0
 30
0.0
  0
INSERT
  5
67
330
1F
100
AcDbEntity
  8
0
100
AcDbBlockReference
  2
block 7
 10
0.0
 20
0.0
 30
0.0
  0
INSERT
  5
72
330
1F
100
AcDbEntity
  8
0
100
AcDbBlockReference
  2
block 8
 10
0.0
 20
0.0
 30
0.0
  0
ENDSEC
  0
SECTION
  2
OBJECTS
  0
DICTIONARY
  5
C
330
0
100
AcDbDictionary
281
     1
  3
ACAD_GROUP
350
D
  3
ACAD_LAYOUT
350
1A
  3
ACAD_MATERIAL
350
3B
  3
ACAD_MLEADERSTYLE
350
7D
  3
ACAD_MLINESTYLE
350
17
  3
ACAD_PLOTSETTINGS
350
19
  3
ACAD_PLOTSTYLENAME
350
E
  3
ACAD_TABLESTYLE
350
7C
  3
ACAD_VISUALSTYLE
350
2A
  0
SUN
  5
3F
330
29
100
AcDbSun
 90
        1
290
     0
 63
     7
421
 16777215
 40
1.0
291
     1
 91
  2455826
 92
 54000000
292
     0
 70
     2
 71
   256
280
     1
  0
DICTIONARY
  5
D
102
{ACAD_REACTORS
330
C
102
}
330
C
100
AcDbDictionary
281
     1
  0
DICTIONARY
  5
1A
102
{ACAD_REACTORS
330
C
102
}
330
C
100
AcDbDictionary
281
     1
  3
Layout1
350
1E
  3
Layout2
350
26
  3
Model
350
22
  0
DICTIONARY
  5
3B
102
{ACAD_REACTORS
330
C
102
}
330
C
100
AcDbDictionary
281
     1
  3
ByBlock
350
3D
  3
ByLayer
350
3C
  3
Global
350
3E
  0
DICTIONARY
  5
7D
102
{ACAD_REACTORS
330
C
102
}
330
C
100
AcDbDictionary
281
     1
  0
DICTIONARY
  5
17
102
{ACAD_REACTORS
330
C
102
}
330
C
100
AcDbDictionary
281
     1
  3
Standard
350
18
  0
DICTIONARY
  5
19
102
{ACAD_REACTORS
330
C
102
}
330
C
100
AcDbDictionary
281
     1
  0
ACDBDICTIONARYWDFLT
  5
E
102
{ACAD_REACTORS
330
C
102
}
330
C
100
AcDbDictionary
281
     1
  3
Normal
350
F
100
AcDbDictionaryWithDefault
340
F
  0
DICTIONARY
  5
7C
102
{ACAD_REACTORS
330
C
102
}
330
C
100
AcDbDictionary
281
     1
  0
DICTIONARY
  5
2A
102
{ACAD_REACTORS
330
C
102
}
330
C
100
AcDbDictionary
281
     1
  3
2dWireframe
350
2F
  3
3D Hidden
350
31
  3
3dWireframe
350
30
  3
Basic
350
32
  3
Brighten
350
36
  3
ColorChange
350
3A
  3
Conceptual
350
34
  3
Dim
350
35
  3
Facepattern
350
39
  3
Flat
350
2B
  3
FlatWithEdges
350
2C
  3
Gouraud
350
2D
  3
GouraudWithEdges
350
2E
  3
Linepattern
350
38
  3
Realistic
350
33
  3
Thicken
350
37
  0
LAYOUT
  5
1E
102
{ACAD_REACTORS
330
1A
102
}
330
1A
100
AcDbPlotSettings
  1

  2
none_device
  4

  6

 40
0.0
 41
0.0
 42
0.0
 43
0.0
 44
0.0
 45
0.0
 46
0.0
 47
0.0
 48
0.0
 49
0.0
140
0.0
141
0.0
142
1.0
143
1.0
 70
   688
 72
     0
 73
     0
 74
     5
  7

 75
    16
 76
     0
 77
     2
 78
   300
147
1.0
148
0.0
149
0.0
100
AcDbLayout
  1
Layout1
 70
     1
 71
     1
 10
0.0
 20
0.0
 11
12.0
 21
9.0
 12
0.0
 22
0.0
 32
0.0
 14
1.000000000000000E+20
 24
1.000000000000000E+20
 34
1.000000000000000E+20
 15
-1.000000000000000E+20
 25
-1.000000000000000E+20
 35
-1.000000000000000E+20
146
0.0
 13
0.0
 23
0.0
 33
0.0
 16
1.0
 26
0.0
 36
0.0
 17
0.0
 27
1.0
 37
0.0
 76
     0
330
1B
  0
LAYOUT
  5
26
102
{ACAD_REACTORS
330
1A
102
}
330
1A
100
AcDbPlotSettings
  1

  2
none_device
  4

  6

 40
0.0
 41
0.0
 42
0.0
 43
0.0
 44
0.0
 45
0.0
 46
0.0
 47
0.0
 48
0.0
 49
0.0
140
0.0
141
0.0
142
1.0
143
1.0
 70
   688
 72
     0
 73
     0
 74
     5
  7

 75
    16
 76
     0
 77
     2
 78
   300
147
1.0
148
0.0
149
0.0
100
AcDbLayout
  1
Layout2
 70
     1
 71
     2
 10
0.0
 20
0.0
 11
0.0
 21
0.0
 12
0.0
 22
0.0
 32
0.0
 14
0.0
 24
0.0
 34
0.0
 15
0.0
 25
0.0
 35
0.0
146
0.0
 13
0.0
 23
0.0
 33
0.0
 16
1.0
 26
0.0
 36
0.0
 17
0.0
 27
1.0
 37
0.0
 76
     0
330
23
  0
LAYOUT
  5
22
102
{ACAD_REACTORS
330
1A
102
}
330
1A
100
AcDbPlotSettings
  1

  2
none_device
  4

  6

 40
0.0
 41
0.0
 42
0.0
 43
0.0
 44
0.0
 45
0.0
 46
0.0
 47
0.0
 48
0.0
 49
0.0
140
0.0
141
0.0
142
1.0
143
1.0
 70
  1712
 72
     0
 73
     0
 74
     0
  7

 75
     0
 76
     0
 77
     2
 78
   300
147
1.0
148
0.0
149
0.0
100
AcDbLayout
  1
Model
 70
     1
 71
     0
 10
0.0
 20
0.0
 11
12.0
 21
9.0
 12
0.0
 22
0.0
 32
0.0
 14
1.000000000000000E+20
 24
1.000000000000000E+20
 34
1.000000000000000E+20
 15
-1.000000000000000E+20
 25
-1.000000000000000E+20
 35
-1.000000000000000E+20
146
0.0
 13
0.0
 23
0.0
 33
0.0
 16
1.0
 26
0.0
 36
0.0
 17
0.0
 27
1.0
 37
0.0
 76
     0
330
1F
331
29
  0
MATERIAL
  5
3D
102
{ACAD_REACTORS
330
3B
102
}
330
3B
100
AcDbMaterial
  1
ByBlock
 72
     1
 94
      127
  0
MATERIAL
  5
3C
102
{ACAD_REACTORS
330
3B
102
}
330
3B
100
AcDbMaterial
  1
ByLayer
 72
     1
 94
      127
  0
MATERIAL
  5
3E
102
{ACAD_REACTORS
330
3B
102
}
330
3B
100
AcDbMaterial
  1
Global
 72
     1
 94
      127
  0
MLINESTYLE
  5
18
102
{ACAD_REACTORS
330
17
102
}
330
17
100
AcDbMlineStyle
  2
Standard
 70
     0
  3

 62
   256
 51
90.0
 52
90.0
 71
     2
 49
0.5
 62
   256
  6
BYLAYER
 49
-0.5
 62
   256
  6
BYLAYER
  0
ACDBPLACEHOLDER
  5
F
102
{ACAD_REACTORS
330
E
102
}
330
E
  0
VISUALSTYLE
  5
2F
102
{ACAD_REACTORS
330
2A
102
}
330
2A
100
AcDbVisualStyle
  2
2dWireframe
 70
     4
177
     2
291
     0
 71
     0
176
     1
 72
     2
176
     1
 73
     0
176
     1
 90
        0
176
     1
 40
-0.6
176
     1
 41
-30.0
176
     1
 62
     5
 63
     7
421
 16777215
176
     1
 74
     1
176
     1
 91
        4
176
     1
 64
     7
176
     1
 65
   257
176
     1
 75
     1
176
     1
175
     1
176
     1
 42
1.0
176
     1
 92
        0
176
     1
 66
   257
176
     1
 43
1.0
176
     1
 76
     1
176
     1
 77
     6
176
     1
 78
     2
176
     1
 67
     7
176
     1
 79
     5
176
     1
170
     0
176
     1
171
     0
176
     1
290
     0
176
     1
 93
        1
176
     1
 44
0.0
176
     1
173
     0
176
     1
  0
VISUALSTYLE
  5
31
102
{ACAD_REACTORS
330
2A
102
}
330
2A
100
AcDbVisualStyle
  2
3D Hidden
 70
     6
177
     2
291
     0
 71
     1
176
     1
 72
     2
176
     1
 73
     2
176
     1
 90
        0
176
     1
 40
-0.6
176
     1
 41
-30.0
176
     1
 62
     5
 63
     7
421
 16777215
176
     1
 74
     2
176
     1
 91
        2
176
     1
 64
     7
176
     1
 65
   257
176
     1
 75
     2
176
     1
175
     1
176
     1
 42
40.0
176
     1
 92
        0
176
     1
 66
   257
176
     1
 43
1.0
176
     1
 76
     1
176
     1
 77
     6
176
     1
 78
     2
176
     1
 67
     7
176
     1
 79
     3
176
     1
170
     0
176
     1
171
     0
176
     1
290
     0
176
     1
 93
        1
176
     1
 44
0.0
176
     1
173
     0
176
     1
  0
VISUALSTYLE
  5
30
102
{ACAD_REACTORS
330
2A
102
}
330
2A
100
AcDbVisualStyle
  2
3dWireframe
 70
     5
177
     2
291
     0
 71
     0
176
     1
 72
     2
176
     1
 73
     0
176
     1
 90
        0
176
     1
 40
-0.6
176
     1
 41
-30.0
176
     1
 62
     5
 63
     7
421
 16777215
176
     1
 74
     1
176
     1
 91
        4
176
     1
 64
     7
176
     1
 65
   257
176
     1
 75
     1
176
     1
175
     1
176
     1
 42
1.0
176
     1
 92
        0
176
     1
 66
   257
176
     1
 43
1.0
176
     1
 76
     1
176
     1
 77
     6
176
     1
 78
     2
176
     1
 67
     7
176
     1
 79
     5
176
     1
170
     0
176
     1
171
     0
176
     1
290
     0
176
     1
 93
        1
176
     1
 44
0.0
176
     1
173
     0
176
     1
  0
VISUALSTYLE
  5
32
102
{ACAD_REACTORS
330
2A
102
}
330
2A
100
AcDbVisualStyle
  2
Basic
 70
     7
177
     2
291
     1
 71
     1
176
     1
 72
     0
176
     1
 73
     1
176
     1
 90
        0
176
     1
 40
-0.6
176
     1
 41
-30.0
176
     1
 62
     5
 63
     7
421
 16777215
176
     1
 74
     0
176
     1
 91
        4
176
     1
 64
     7
176
     1
 65
   257
176
     1
 75
     1
176
     1
175
     1
176
     1
 42
1.0
176
     1
 92
        8
176
     1
 66
     7
176
     1
 43
1.0
176
     1
 76
     1
176
     1
 77
     6
176
     1
 78
     2
176
     1
 67
     7
176
     1
 79
     5
176
     1
170
     0
176
     1
171
     0
176
     1
290
     0
176
     1
 93
        1
176
     1
 44
0.0
176
     1
173
     0
176
     1
  0
VISUALSTYLE
  5
36
102
{ACAD_REACTORS
330
2A
102
}
330
2A
100
AcDbVisualStyle
  2
Brighten
 70
    12
177
     2
291
     1
 71
     2
176
     1
 72
     2
176
     1
 73
     0
176
     1
 90
        0
176
     1
 40
-0.6
176
     1
 41
-30.0
176
     1
 62
     5
 63
     7
421
 16777215
176
     1
 74
     1
176
     1
 91
        4
176
     1
 64
     7
176
     1
 65
   257
176
     1
 75
     1
176
     1
175
     1
176
     1
 42
1.0
176
     1
 92
        8
176
     1
 66
     7
176
     1
 43
1.0
176
     1
 76
     1
176
     1
 77
     6
176
     1
 78
     2
176
     1
 67
     7
176
     1
 79
     5
176
     1
170
     0
176
     1
171
     0
176
     1
290
     0
176
     1
 93
        1
176
     1
 44
50.0
176
     1
173
     0
176
     1
  0
VISUALSTYLE
  5
3A
102
{ACAD_REACTORS
330
2A
102
}
330
2A
100
AcDbVisualStyle
  2
ColorChange
 70
    16
177
     2
291
     1
 71
     2
176
     1
 72
     2
176
     1
 73
     3
176
     1
 90
        0
176
     1
 40
-0.6
176
     1
 41
-30.0
176
     1
 62
     5
 63
     8
421
  8421504
176
     1
 74
     1
176
     1
 91
        4
176
     1
 64
     7
176
     1
 65
   257
176
     1
 75
     1
176
     1
175
     1
176
     1
 42
1.0
176
     1
 92
        8
176
     1
 66
     8
424
  8421504
176
     1
 43
1.0
176
     1
 76
     1
176
     1
 77
     6
176
     1
 78
     2
176
     1
 67
     7
176
     1
 79
     5
176
     1
170
     0
176
     1
171
     0
176
     1
290
     0
176
     1
 93
        1
176
     1
 44
0.0
176
     1
173
     0
176
     1
  0
VISUALSTYLE
  5
34
102
{ACAD_REACTORS
330
2A
102
}
330
2A
100
AcDbVisualStyle
  2
Conceptual
 70
     9
177
     2
291
     0
 71
     3
176
     1
 72
     2
176
     1
 73
     0
176
     1
 90
        0
176
     1
 40
-0.6
176
     1
 41
-30.0
176
     1
 62
     5
 63
     7
421
 16777215
176
     1
 74
     2
176
     1
 91
        2
176
     1
 64
     7
176
     1
 65
   257
176
     1
 75
     1
176
     1
175
     1
176
     1
 42
40.0
176
     1
 92
        8
176
     1
 66
     7
176
     1
 43
1.0
176
     1
 76
     1
176
     1
 77
     6
176
     1
 78
     2
176
     1
 67
     7
176
     1
 79
     3
176
     1
170
     0
176
     1
171
     0
176
     1
290
     0
176
     1
 93
        1
176
     1
 44
0.0
176
     1
173
     0
176
     1
  0
VISUALSTYLE
  5
35
102
{ACAD_REACTORS
330
2A
102
}
330
2A
100
AcDbVisualStyle
  2
Dim
 70
    11
177
     2
291
     1
 71
     2
176
     1
 72
     2
176
     1
 73
     0
176
     1
 90
        0
176
     1
 40
-0.6
176
     1
 41
-30.0
176
     1
 62
     5
 63
     7
421
 16777215
176
     1
 74
     1
176
     1
 91
        4
176
     1
 64
     7
176
     1
 65
   257
176
     1
 75
     1
176
     1
175
     1
176
     1
 42
1.0
176
     1
 92
        8
176
     1
 66
     7
176
     1
 43
1.0
176
     1
 76
     1
176
     1
 77
     6
176
     1
 78
     2
176
     1
 67
     7
176
     1
 79
     5
176
     1
170
     0
176
     1
171
     0
176
     1
290
     0
176
     1
 93
        1
176
     1
 44
-50.0
176
     1
173
     0
176
     1
  0
VISUALSTYLE
  5
39
102
{ACAD_REACTORS
330
2A
102
}
330
2A
100
AcDbVisualStyle
  2
Facepattern
 70
    15
177
     2
291
     1
 71
     2
176
     1
 72
     2
176
     1
 73
     0
176
     1
 90
        0
176
     1
 40
-0.6
176
     1
 41
-30.0
176
     1
 62
     5
 63
     7
421
 16777215
176
     1
 74
     1
176
     1
 91
        4
176
     1
 64
     7
176
     1
 65
   257
176
     1
 75
     1
176
     1
175
     1
176
     1
 42
1.0
176
     1
 92
        8
176
     1
 66
     7
176
     1
 43
1.0
176
     1
 76
     1
176
     1
 77
     6
176
     1
 78
     2
176
     1
 67
     7
176
     1
 79
     5
176
     1
170
     0
176
     1
171
     0
176
     1
290
     0
176
     1
 93
        1
176
     1
 44
0.0
176
     1
173
     0
176
     1
  0
VISUALSTYLE
  5
2B
102
{ACAD_REACTORS
330
2A
102
}
330
2A
100
AcDbVisualStyle
  2
Flat
 70
     0
177
     2
291
     1
 71
     2
176
     1
 72
     1
176
     1
 73
     1
176
     1
 90
        2
176
     1
 40
-0.6
176
     1
 41
30.0
176
     1
 62
     5
 63
     7
421
 16777215
176
     1
 74
     0
176
     1
 91
        4
176
     1
 64
     7
176
     1
 65
   257
176
     1
 75
     1
176
     1
175
     1
176
     1
 42
1.0
176
     1
 92
        8
176
     1
 66
     7
176
     1
 43
1.0
176
     1
 76
     1
176
     1
 77
     6
176
     1
 78
     2
176
     1
 67
     7
176
     1
 79
     5
176
     1
170
     0
176
     1
171
     0
176
     1
290
     0
176
     1
 93
       13
176
     1
 44
0.0
176
     1
173
     0
176
     1
  0
VISUALSTYLE
  5
2C
102
{ACAD_REACTORS
330
2A
102
}
330
2A
100
AcDbVisualStyle
  2
FlatWithEdges
 70
     1
177
     2
291
     1
 71
     2
176
     1
 72
     1
176
     1
 73
     1
176
     1
 90
        2
176
     1
 40
-0.6
176
     1
 41
30.0
176
     1
 62
     5
 63
     7
421
 16777215
176
     1
 74
     1
176
     1
 91
        4
176
     1
 64
     7
176
     1
 65
   257
176
     1
 75
     1
176
     1
175
     1
176
     1
 42
1.0
176
     1
 92
        0
176
     1
 66
   257
176
     1
 43
1.0
176
     1
 76
     1
176
     1
 77
     6
176
     1
 78
     2
176
     1
 67
     7
176
     1
 79
     5
176
     1
170
     0
176
     1
171
     0
176
     1
290
     0
176
     1
 93
       13
176
     1
 44
0.0
176
     1
173
     0
176
     1
  0
VISUALSTYLE
  5
2D
102
{ACAD_REACTORS
330
2A
102
}
330
2A
100
AcDbVisualStyle
  2
Gouraud
 70
     2
177
     2
291
     1
 71
     2
176
     1
 72
     2
176
     1
 73
     1
176
     1
 90
        2
176
     1
 40
-0.6
176
     1
 41
30.0
176
     1
 62
     5
 63
     7
421
 16777215
176
     1
 74
     0
176
     1
 91
        4
176
     1
 64
     7
176
     1
 65
   257
176
     1
 75
     1
176
     1
175
     1
176
     1
 42
1.0
176
     1
 92
        0
176
     1
 66
     7
176
     1
 43
1.0
176
     1
 76
     1
176
     1
 77
     6
176
     1
 78
     2
176
     1
 67
     7
176
     1
 79
     5
176
     1
170
     0
176
     1
171
     0
176
     1
290
     0
176
     1
 93
       13
176
     1
 44
0.0
176
     1
173
     0
176
     1
  0
VISUALSTYLE
  5
2E
102
{ACAD_REACTORS
330
2A
102
}
330
2A
100
AcDbVisualStyle
  2
GouraudWithEdges
 70
     3
177
     2
291
     1
 71
     2
176
     1
 72
     2
176
     1
 73
     1
176
     1
 90
        2
176
     1
 40
-0.6
176
     1
 41
30.0
176
     1
 62
     5
 63
     7
421
 16777215
176
     1
 74
     1
176
     1
 91
        4
176
     1
 64
     7
176
     1
 65
   257
176
     1
 75
     1
176
     1
175
     1
176
     1
 42
1.0
176
     1
 92
        0
176
     1
 66
   257
176
     1
 43
1.0
176
     1
 76
     1
176
     1
 77
     6
176
     1
 78
     2
176
     1
 67
     7
176
     1
 79
     5
176
     1
170
     0
176
     1
171
     0
176
     1
290
     0
176
     1
 93
       13
176
     1
 44
0.0
176
     1
173
     0
176
     1
  0
VISUALSTYLE
  5
38
102
{ACAD_REACTORS
330
2A
102
}
330
2A
100
AcDbVisualStyle
  2
Linepattern
 70
    14
177
     2
291
     1
 71
     2
176
     1
 72
     2
176
     1
 73
     0
176
     1
 90
        0
176
     1
 40
-0.6
176
     1
 41
-30.0
176
     1
 62
     5
 63
     7
421
 16777215
176
     1
 74
     1
176
     1
 91
        4
176
     1
 64
     7
176
     1
 65
   257
176
     1
 75
     7
176
     1
175
     7
176
     1
 42
1.0
176
     1
 92
        8
176
     1
 66
     7
176
     1
 43
1.0
176
     1
 76
     1
176
     1
 77
     6
176
     1
 78
     2
176
     1
 67
     7
176
     1
 79
     5
176
     1
170
     0
176
     1
171
     0
176
     1
290
     0
176
     1
 93
        1
176
     1
 44
0.0
176
     1
173
     0
176
     1
  0
VISUALSTYLE
  5
33
102
{ACAD_REACTORS
330
2A
102
}
330
2A
100
AcDbVisualStyle
  2
Realistic
 70
     8
177
     2
291
     0
 71
     2
176
     1
 72
     2
176
     1
 73
     0
176
     1
 90
        0
176
     1
 40
-0.6
176
     1
 41
-30.0
176
     1
 62
     5
 63
     7
421
 16777215
176
     1
 74
     1
176
     1
 91
        0
176
     1
 64
     7
176
     1
 65
   257
176
     1
 75
     1
176
     1
175
     1
176
     1
 42
1.0
176
     1
 92
        8
176
     1
 66
     8
424
  7895160
176
     1
 43
1.0
176
     1
 76
     1
176
     1
 77
     6
176
     1
 78
     2
176
     1
 67
     7
176
     1
 79
     5
176
     1
170
     0
176
     1
171
     0
176
     1
290
     0
176
     1
 93
       13
176
     1
 44
0.0
176
     1
173
     0
176
     1
  0
VISUALSTYLE
  5
37
102
{ACAD_REACTORS
330
2A
102
}
330
2A
100
AcDbVisualStyle
  2
Thicken
 70
    13
177
     2
291
     1
 71
     2
176
     1
 72
     2
176
     1
 73
     0
176
     1
 90
        0
176
     1
 40
-0.6
176
     1
 41
-30.0
176
     1
 62
     5
 63
     7
421
 16777215
176
     1
 74
     1
176
     1
 91
        4
176
     1
 64
     7
176
     1
 65
   257
176
     1
 75
     1
176
     1
175
     1
176
     1
 42
1.0
176
     1
 92
       12
176
     1
 66
     7
176
     1
 43
1.0
176
     1
 76
     1
176
     1
 77
     6
176
     1
 78
     2
176
     1
 67
     7
176
     1
 79
     5
176
     1
170
     0
176
     1
171
     0
176
     1
290
     0
176
     1
 93
        1
176
     1
 44
0.0
176
     1
173
     0
176
     1
  0
ENDSEC
  0
EOF
