  0
SECTION
  2
HEADER
  9
$ACADVER
  1
AC1024
  9
$ACADMAINTVER
 70
     6
  9
$DWGCODEPAGE
  3
UNDEFINED
  9
$INSBASE
 10
0.0
 20
0.0
 30
0.0
  9
$EXTMIN
 10
1.000000000000000E+20
 20
1.000000000000000E+20
 30
1.000000000000000E+20
  9
$EXTMAX
 10
-1.000000000000000E+20
 20
-1.000000000000000E+20
 30
-1.000000000000000E+20
  9
$LIMMIN
 10
0.0
 20
0.0
  9
$LIMMAX
 10
12.0
 20
9.0
  9
$ORTHOMODE
 70
     0
  9
$REGENMODE
 70
     1
  9
$FILLMODE
 70
     1
  9
$QTEXTMODE
 70
     0
  9
$MIRRTEXT
 70
     1
  9
$LTSCALE
 40
1.0
  9
$ATTMODE
 70
     1
  9
$TEXTSIZE
 40
0.2
  9
$TRACEWID
 40
0.05
  9
$TEXTSTYLE
  7
Standard
  9
$CLAYER
  8
0
  9
$CELTYPE
  6
ByLayer
  9
$CECOLOR
 62
   256
  9
$CELTSCALE
 40
1.0
  9
$DISPSILH
 70
     0
  9
$DIMSCALE
 40
1.0
  9
$DIMASZ
 40
0.18
  9
$DIMEXO
 40
0.0625
  9
$DIMDLI
 40
0.38
  9
$DIMRND
 40
0.0
  9
$DIMDLE
 40
0.0
  9
$DIMEXE
 40
0.18
  9
$DIMTP
 40
0.0
  9
$DIMTM
 40
0.0
  9
$DIMTXT
 40
0.18
  9
$DIMCEN
 40
0.09
  9
$DIMTSZ
 40
0.0
  9
$DIMTOL
 70
     0
  9
$DIMLIM
 70
     0
  9
$DIMTIH
 70
     1
  9
$DIMTOH
 70
     1
  9
$DIMSE1
 70
     0
  9
$DIMSE2
 70
     0
  9
$DIMTAD
 70
     0
  9
$DIMZIN
 70
     0
  9
$DIMBLK
  1

  9
$DIMASO
 70
     1
  9
$DIMSHO
 70
     1
  9
$DIMPOST
  1

  9
$DIMAPOST
  1

  9
$DIMALT
 70
     0
  9
$DIMALTD
 70
     2
  9
$DIMALTF
 40
25.4
  9
$DIMLFAC
 40
1.0
  9
$DIMTOFL
 70
     0
  9
$DIMTVP
 40
0.0
  9
$DIMTIX
 70
     0
  9
$DIMSOXD
 70
     0
  9
$DIMSAH
 70
     0
  9
$DIMBLK1
  1

  9
$DIMBLK2
  1

  9
$DIMSTYLE
  2
Standard
  9
$DIMCLRD
 70
     0
  9
$DIMCLRE
 70
     0
  9
$DIMCLRT
 70
     0
  9
$DIMTFAC
 40
1.0
  9
$DIMGAP
 40
0.09
  9
$DIMJUST
 70
     0
  9
$DIMSD1
 70
     0
  9
$DIMSD2
 70
     0
  9
$DIMTOLJ
 70
     1
  9
$DIMTZIN
 70
     0
  9
$DIMALTZ
 70
     0
  9
$DIMALTTZ
 70
     0
  9
$DIMUPT
 70
     0
  9
$DIMDEC
 70
     4
  9
$DIMTDEC
 70
     4
  9
$DIMALTU
 70
     2
  9
$DIMALTTD
 70
     2
  9
$DIMTXSTY
  7
Standard
  9
$DIMAUNIT
 70
     0
  9
$DIMADEC
 70
     0
  9
$DIMALTRND
 40
0.0
  9
$DIMAZIN
 70
     0
  9
$DIMDSEP
 70
    46
  9
$DIMATFIT
 70
     3
  9
$DIMFRAC
 70
     0
  9
$DIMLDRBLK
  1

  9
$DIMLUNIT
 70
     2
  9
$DIMLWD
 70
    -2
  9
$DIMLWE
 70
    -2
  9
$DIMTMOVE
 70
     0
  9
$DIMFXL
 40
1.0
  9
$DIMFXLON
 70
     0
  9
$DIMJOGANG
 40
0.7853981633974483
  9
$DIMTFILL
 70
     0
  9
$DIMTFILLCLR
 70
     0
  9
$DIMARCSYM
 70
     0
  9
$DIMLTYPE
  6

  9
$DIMLTEX1
  6

  9
$DIMLTEX2
  6

  9
$DIMTXTDIRECTION
 70
     0
  9
$LUNITS
 70
     2
  9
$LUPREC
 70
     4
  9
$SKETCHINC
 40
0.1
  9
$FILLETRAD
 40
0.5
  9
$AUNITS
 70
     0
  9
$AUPREC
 70
     0
  9
$MENU
  1
.
  9
$ELEVATION
 40
0.0
  9
$PELEVATION
 40
0.0
  9
$THICKNESS
 40
0.0
  9
$LIMCHECK
 70
     0
  9
$CHAMFERA
 40
0.5
  9
$CHAMFERB
 40
0.5
  9
$CHAMFERC
 40
1.0
  9
$CHAMFERD
 40
0.0
  9
$SKPOLY
 70
     0
  9
$TDCREATE
 40
2458843.928842581
  9
$TDUCREATE
 40
2458843.887175926
  9
$TDUPDATE
 40
2458843.928842581
  9
$TDUUPDATE
 40
2458843.887175926
  9
$TDINDWG
 40
0.0000000116
  9
$TDUSRTIMER
 40
0.0000000116
  9
$USRTIMER
 70
     1
  9
$ANGBASE
 50
0.0
  9
$ANGDIR
 70
     0
  9
$PDMODE
 70
     0
  9
$PDSIZE
 40
0.0
  9
$PLINEWID
 40
0.0
  9
$SPLFRAME
 70
     0
  9
$SPLINETYPE
 70
     6
  9
$SPLINESEGS
 70
     8
  9
$HANDSEED
  5
68
  9
$SURFTAB1
 70
     6
  9
$SURFTAB2
 70
     6
  9
$SURFTYPE
 70
     6
  9
$SURFU
 70
     6
  9
$SURFV
 70
     6
  9
$UCSBASE
  2

  9
$UCSNAME
  2

  9
$UCSORG
 10
0.0
 20
0.0
 30
0.0
  9
$UCSXDIR
 10
1.0
 20
0.0
 30
0.0
  9
$UCSYDIR
 10
0.0
 20
1.0
 30
0.0
  9
$UCSORTHOREF
  2

  9
$UCSORTHOVIEW
 70
     0
  9
$UCSORGTOP
 10
0.0
 20
0.0
 30
0.0
  9
$UCSORGBOTTOM
 10
0.0
 20
0.0
 30
0.0
  9
$UCSORGLEFT
 10
0.0
 20
0.0
 30
0.0
  9
$UCSORGRIGHT
 10
0.0
 20
0.0
 30
0.0
  9
$UCSORGFRONT
 10
0.0
 20
0.0
 30
0.0
  9
$UCSORGBACK
 10
0.0
 20
0.0
 30
0.0
  9
$PUCSBASE
  2

  9
$PUCSNAME
  2

  9
$PUCSORG
 10
0.0
 20
0.0
 30
0.0
  9
$PUCSXDIR
 10
1.0
 20
0.0
 30
0.0
  9
$PUCSYDIR
 10
0.0
 20
1.0
 30
0.0
  9
$PUCSORTHOREF
  2

  9
$PUCSORTHOVIEW
 70
     0
  9
$PUCSORGTOP
 10
0.0
 20
0.0
 30
0.0
  9
$PUCSORGBOTTOM
 10
0.0
 20
0.0
 30
0.0
  9
$PUCSORGLEFT
 10
0.0
 20
0.0
 30
0.0
  9
$PUCSORGRIGHT
 10
0.0
 20
0.0
 30
0.0
  9
$PUCSORGFRONT
 10
0.0
 20
0.0
 30
0.0
  9
$PUCSORGBACK
 10
0.0
 20
0.0
 30
0.0
  9
$USERI1
 70
     0
  9
$USERI2
 70
     0
  9
$USERI3
 70
     0
  9
$USERI4
 70
     0
  9
$USERI5
 70
     0
  9
$USERR1
 40
0.0
  9
$USERR2
 40
0.0
  9
$USERR3
 40
0.0
  9
$USERR4
 40
0.0
  9
$USERR5
 40
0.0
  9
$WORLDVIEW
 70
     1
  9
$SHADEDGE
 70
     3
  9
$SHADEDIF
 70
    70
  9
$TILEMODE
 70
     1
  9
$MAXACTVP
 70
    64
  9
$PINSBASE
 10
0.0
 20
0.0
 30
0.0
  9
$PLIMCHECK
 70
     0
  9
$PEXTMIN
 10
1.000000000000000E+20
 20
1.000000000000000E+20
 30
1.000000000000000E+20
  9
$PEXTMAX
 10
-1.000000000000000E+20
 20
-1.000000000000000E+20
 30
-1.000000000000000E+20
  9
$PLIMMIN
 10
0.0
 20
0.0
  9
$PLIMMAX
 10
12.0
 20
9.0
  9
$UNITMODE
 70
     0
  9
$VISRETAIN
 70
     1
  9
$PLINEGEN
 70
     0
  9
$PSLTSCALE
 70
     1
  9
$TREEDEPTH
 70
  3020
  9
$CMLSTYLE
  2
Standard
  9
$CMLJUST
 70
     0
  9
$CMLSCALE
 40
1.0
  9
$PROXYGRAPHICS
 70
     1
  9
$MEASUREMENT
 70
     0
  9
$CELWEIGHT
370
    -1
  9
$ENDCAPS
280
     0
  9
$JOINSTYLE
280
     0
  9
$LWDISPLAY
290
     1
  9
$INSUNITS
 70
     1
  9
$HYPERLINKBASE
  1

  9
$STYLESHEET
  1

  9
$XEDIT
290
     1
  9
$CEPSNTYPE
380
     0
  9
$PSTYLEMODE
290
     1
  9
$FINGERPRINTGUID
  2
{4FE8A509-6D38-FA3A-8242-43225F2FEBC2}
  9
$VERSIONGUID
  2
{FAEB1C32-E019-11D5-929B-00C0DF256EC4}
  9
$EXTNAMES
290
     1
  9
$PSVPSCALE
 40
0.0
  9
$OLESTARTUP
290
     0
  9
$SORTENTS
280
   127
  9
$INDEXCTL
280
     0
  9
$HIDETEXT
280
     1
  9
$XCLIPFRAME
280
     2
  9
$HALOGAP
280
     0
  9
$OBSCOLOR
 70
   257
  9
$OBSLTYPE
280
     0
  9
$INTERSECTIONDISPLAY
280
     0
  9
$INTERSECTIONCOLOR
 70
   257
  9
$DIMASSOC
280
     2
  9
$PROJECTNAME
  1

  9
$CAMERADISPLAY
290
     0
  9
$LENSLENGTH
 40
50.0
  9
$CAMERAHEIGHT
 40
0.0
  9
$STEPSPERSEC
 40
2.0
  9
$STEPSIZE
 40
6.0
  9
$3DDWFPREC
 40
2.0
  9
$PSOLWIDTH
 40
0.25
  9
$PSOLHEIGHT
 40
4.0
  9
$LOFTANG1
 40
1.570796326794897
  9
$LOFTANG2
 40
1.570796326794897
  9
$LOFTMAG1
 40
0.0
  9
$LOFTMAG2
 40
0.0
  9
$LOFTPARAM
 70
     7
  9
$LOFTNORMALS
280
     1
  9
$LATITUDE
 40
37.795
  9
$LONGITUDE
 40
-122.394
  9
$NORTHDIRECTION
 40
0.0
  9
$TIMEZONE
 70
 -8000
  9
$LIGHTGLYPHDISPLAY
280
     1
  9
$TILEMODELIGHTSYNCH
280
     1
  9
$CMATERIAL
347
3C
  9
$SOLIDHIST
280
     1
  9
$SHOWHIST
280
     1
  9
$DWFFRAME
280
     2
  9
$DGNFRAME
280
     2
  9
$REALWORLDSCALE
290
     1
  9
$INTERFERECOLOR
 62
   256
  9
$CSHADOW
280
     0
  9
$SHADOWPLANELOCATION
 40
0.0
  0
ENDSEC
  0
SECTION
  2
CLASSES
  0
CLASS
  1
ACDBDICTIONARYWDFLT
  2
AcDbDictionaryWithDefault
  3
ObjectDBX Classes
 90
        0
 91
        4
280
     0
281
     0
  0
CLASS
  1
VISUALSTYLE
  2
AcDbVisualStyle
  3
ObjectDBX Classes
 90
     4095
 91
        4
280
     0
281
     0
  0
CLASS
  1
MATERIAL
  2
AcDbMaterial
  3
ObjectDBX Classes
 90
     1153
 91
        4
280
     0
281
     0
  0
CLASS
  1
SUN
  2
AcDbSun
  3
SCENEOE
 90
     1024
 91
        4
280
     0
281
     0
  0
ENDSEC
  0
SECTION
  2
TABLES
  0
TABLE
  2
VPORT
  5
8
330
0
100
AcDbSymbolTable
 70
     1
  0
VPORT
  5
29
330
8
100
AcDbSymbolTableRecord
100
AcDbViewportTableRecord
  2
*Active
 70
     0
 10
0.0
 20
0.0
 11
1.0
 21
1.0
 12
0.0
 22
0.0
 13
0.0
 23
0.0
 14
0.5
 24
0.5
 15
0.5
 25
0.5
 16
0.0
 26
0.0
 36
1.0
 17
105.0007777515274
 27
148.5000416295416
 37
0.0
 40
24.99999999375009
 41
1.0
 42
50.0
 43
0.0
 44
0.0
 50
0.0
 51
0.0
 71
     0
 72
   100
 73
     1
 74
     3
 75
     0
 76
     0
 77
     0
 78
     0
281
     0
 65
     1
110
0.0
120
0.0
130
0.0
111
1.0
121
0.0
131
0.0
112
0.0
122
1.0
132
0.0
 79
     0
146
0.0
 60
     3
 61
     5
292
     1
282
     1
141
0.0
142
0.0
 63
   250
361
3F
  0
ENDTAB
  0
TABLE
  2
LTYPE
  5
5
330
0
100
AcDbSymbolTable
 70
     1
  0
LTYPE
  5
14
330
5
100
AcDbSymbolTableRecord
100
AcDbLinetypeTableRecord
  2
ByBlock
 70
     0
  3

 72
    65
 73
     0
 40
0.0
  0
LTYPE
  5
15
330
5
100
AcDbSymbolTableRecord
100
AcDbLinetypeTableRecord
  2
ByLayer
 70
     0
  3

 72
    65
 73
     0
 40
0.0
  0
LTYPE
  5
16
330
5
100
AcDbSymbolTableRecord
100
AcDbLinetypeTableRecord
  2
Continuous
 70
     0
  3
Solid line
 72
    65
 73
     0
 40
0.0
  0
ENDTAB
  0
TABLE
  2
LAYER
  5
2
330
0
100
AcDbSymbolTable
 70
     1
  0
LAYER
  5
10
330
2
100
AcDbSymbolTableRecord
100
AcDbLayerTableRecord
  2
0
 70
     0
 62
     7
  6
Continuous
370
    -3
390
F
347
3E
  0
ENDTAB
  0
TABLE
  2
STYLE
  5
3
330
0
100
AcDbSymbolTable
 70
     1
  0
STYLE
  5
11
330
3
100
AcDbSymbolTableRecord
100
AcDbTextStyleTableRecord
  2
Standard
 70
     0
 40
0.0
 41
1.0
 50
0.0
 71
     0
 42
0.2
  3
txt
  4

  0
ENDTAB
  0
TABLE
  2
VIEW
  5
6
330
0
100
AcDbSymbolTable
 70
     0
  0
ENDTAB
  0
TABLE
  2
UCS
  5
7
330
0
100
AcDbSymbolTable
 70
     0
  0
ENDTAB
  0
TABLE
  2
APPID
  5
9
330
0
100
AcDbSymbolTable
 70
     1
  0
APPID
  5
12
330
9
100
AcDbSymbolTableRecord
100
AcDbRegAppTableRecord
  2
ACAD
 70
     0
  0
ENDTAB
  0
TABLE
  2
DIMSTYLE
  5
A
330
0
100
AcDbSymbolTable
 70
     1
100
AcDbDimStyleTable
  0
DIMSTYLE
105
27
330
A
100
AcDbSymbolTableRecord
100
AcDbDimStyleTableRecord
  2
Standard
 70
     0
178
     0
340
11
  0
ENDTAB
  0
TABLE
  2
BLOCK_RECORD
  5
1
330
0
100
AcDbSymbolTable
 70
     6
  0
BLOCK_RECORD
  5
1F
330
1
100
AcDbSymbolTableRecord
100
AcDbBlockTableRecord
  2
*Model_Space
340
22
 70
     0
280
     1
281
     0
  0
BLOCK_RECORD
  5
1B
330
1
100
AcDbSymbolTableRecord
100
AcDbBlockTableRecord
  2
*Paper_Space
340
1E
 70
     0
280
     1
281
     0
  0
BLOCK_RECORD
  5
23
330
1
100
AcDbSymbolTableRecord
100
AcDbBlockTableRecord
  2
*Paper_Space0
340
26
 70
     0
280
     1
281
     0
  0
BLOCK_RECORD
  5
40
330
1
100
AcDbSymbolTableRecord
100
AcDbBlockTableRecord
  2
block 2
340
0
102
{BLKREFS
331
41
102
}
 70
     0
280
     1
281
     0
  0
BLOCK_RECORD
  5
4C
330
1
100
AcDbSymbolTableRecord
100
AcDbBlockTableRecord
  2
block 3
340
0
102
{BLKREFS
331
4D
102
}
 70
     0
280
     1
281
     0
  0
BLOCK_RECORD
  5
51
330
1
100
AcDbSymbolTableRecord
100
AcDbBlockTableRecord
  2
block 4
340
0
102
{BLKREFS
331
52
102
}
 70
     0
280
     1
281
     0
  0
BLOCK_RECORD
  5
56
330
1
100
AcDbSymbolTableRecord
100
AcDbBlockTableRecord
  2
block 5
340
0
102
{BLKREFS
331
57
102
}
 70
     0
280
     1
281
     0
  0
BLOCK_RECORD
  5
5B
330
1
100
AcDbSymbolTableRecord
100
AcDbBlockTableRecord
  2
block 6
340
0
102
{BLKREFS
331
5C
102
}
 70
     0
280
     1
281
     0
  0
ENDTAB
  0
ENDSEC
  0
SECTION
  2
BLOCKS
  0
BLOCK
  5
20
330
1F
100
AcDbEntity
  8
0
100
AcDbBlockBegin
  2
*Model_Space
 70
     0
 10
0.0
 20
0.0
 30
0.0
  3
*Model_Space
  1

  0
ENDBLK
  5
21
330
1F
100
AcDbEntity
  8
0
100
AcDbBlockEnd
  0
BLOCK
  5
1C
330
1B
100
AcDbEntity
 67
     1
  8
0
100
AcDbBlockBegin
  2
*Paper_Space
 70
     0
 10
0.0
 20
0.0
 30
0.0
  3
*Paper_Space
  1

  0
ENDBLK
  5
1D
330
1B
100
AcDbEntity
 67
     1
  8
0
100
AcDbBlockEnd
  0
BLOCK
  5
24
330
23
100
AcDbEntity
  8
0
100
AcDbBlockBegin
  2
*Paper_Space0
 70
     0
 10
0.0
 20
0.0
 30
0.0
  3
*Paper_Space0
  1

  0
ENDBLK
  5
25
330
23
100
AcDbEntity
  8
0
100
AcDbBlockEnd
  0
BLOCK
  5
42
330
40
100
AcDbEntity
  8
0
100
AcDbBlockBegin
  2
block 2
 70
     0
 10
0.0
 20
0.0
 30
0.0
  3
block 2
  1

  0
POLYLINE
  5
44
330
40
100
AcDbEntity
  8
0
 62
     7
420
 16777215
370
     5
100
AcDb2dPolyline
 66
     1
 10
0.0
 20
0.0
 30
0.0
  0
VERTEX
  5
45
330
44
100
AcDbEntity
  8
0
 62
     7
420
 16777215
370
     5
100
AcDbVertex
100
AcDb2dVertex
 10
98.39677775166163
 20
152.3788332964612
 30
0.0
  0
VERTEX
  5
46
330
44
100
AcDbEntity
  8
0
 62
     7
420
 16777215
370
     5
100
AcDbVertex
100
AcDb2dVertex
 10
98.39677775133116
 20
145.0128332964607
 30
0.0
  0
VERTEX
  5
47
330
44
100
AcDbEntity
  8
0
 62
     7
420
 16777215
370
     5
100
AcDbVertex
100
AcDb2dVertex
 10
111.8587777513307
 20
145.0128332958562
 30
0.0
  0
VERTEX
  5
48
330
44
100
AcDbEntity
  8
0
 62
     7
420
 16777215
370
     5
100
AcDbVertex
100
AcDb2dVertex
 10
111.8587777516618
 20
152.3788332958571
 30
0.0
  0
VERTEX
  5
49
330
44
100
AcDbEntity
  8
0
 62
     7
420
 16777215
370
     5
100
AcDbVertex
100
AcDb2dVertex
 10
98.39677775166163
 20
152.3788332964612
 30
0.0
  0
SEQEND
  5
4B
330
44
100
AcDbEntity
  8
0
 62
     7
420
 16777215
370
     5
  0
HATCH
  5
4A
330
40
100
AcDbEntity
  8
0
 62
     7
420
 16777215
100
AcDbHatch
 10
0.0
 20
0.0
 30
0.0
210
0.0
220
0.0
230
1.0
  2
SOLID
 70
     1
 71
     0
 91
        1
 92
        1
 93
        4
 72
     1
 10
98.39677775166163
 20
152.3788332964612
 11
98.39677775133116
 21
145.0128332964607
 72
     1
 10
98.39677775133116
 20
145.0128332964607
 11
111.8587777513307
 21
145.0128332958562
 72
     1
 10
111.8587777513307
 20
145.0128332958562
 11
111.8587777516618
 21
152.3788332958571
 72
     1
 10
111.8587777516618
 20
152.3788332958571
 11
98.39677775166163
 21
152.3788332964612
 97
        0
 75
     2
 76
     1
 98
        0
  0
ENDBLK
  5
43
330
40
100
AcDbEntity
  8
0
100
AcDbBlockEnd
  0
BLOCK
  5
4E
330
4C
100
AcDbEntity
  8
0
100
AcDbBlockBegin
  2
block 3
 70
     0
 10
0.0
 20
0.0
 30
0.0
  3
block 3
  1

  0
SPLINE
  5
50
330
4C
100
AcDbEntity
  8
0
 62
     7
420
 16777215
370
     5
100
AcDbSpline
210
0.0
220
0.0
230
1.0
 70
    11
 71
     3
 72
   251
 73
   247
 74
     0
 42
0.0000000001
 43
0.0000000001
 12
1.0
 22
0.0
 32
0.0
 13
1.0
 23
0.0
 33
0.0
 40
0.0
 40
0.0
 40
0.0
 40
0.0
 40
1.0
 40
1.0
 40
1.0
 40
2.0
 40
2.0
 40
2.0
 40
3.0
 40
3.0
 40
3.0
 40
4.0
 40
4.0
 40
4.0
 40
5.0
 40
5.0
 40
5.0
 40
6.0
 40
6.0
 40
6.0
 40
7.0
 40
7.0
 40
7.0
 40
8.0
 40
8.0
 40
8.0
 40
9.0
 40
9.0
 40
9.0
 40
10.0
 40
10.0
 40
10.0
 40
11.0
 40
11.0
 40
11.0
 40
12.0
 40
12.0
 40
12.0
 40
13.0
 40
13.0
 40
13.0
 40
14.0
 40
14.0
 40
14.0
 40
15.0
 40
15.0
 40
15.0
 40
16.0
 40
16.0
 40
16.0
 40
17.0
 40
17.0
 40
17.0
 40
18.0
 40
18.0
 40
18.0
 40
19.0
 40
19.0
 40
19.0
 40
20.0
 40
20.0
 40
20.0
 40
21.0
 40
21.0
 40
21.0
 40
22.0
 40
22.0
 40
22.0
 40
23.0
 40
23.0
 40
23.0
 40
24.0
 40
24.0
 40
24.0
 40
25.0
 40
25.0
 40
25.0
 40
26.0
 40
26.0
 40
26.0
 40
27.0
 40
27.0
 40
27.0
 40
28.0
 40
28.0
 40
28.0
 40
29.0
 40
29.0
 40
29.0
 40
30.0
 40
30.0
 40
30.0
 40
31.0
 40
31.0
 40
31.0
 40
32.0
 40
32.0
 40
32.0
 40
33.0
 40
33.0
 40
33.0
 40
34.0
 40
34.0
 40
34.0
 40
35.0
 40
35.0
 40
35.0
 40
36.0
 40
36.0
 40
36.0
 40
37.0
 40
37.0
 40
37.0
 40
38.0
 40
38.0
 40
38.0
 40
39.0
 40
39.0
 40
39.0
 40
40.0
 40
40.0
 40
40.0
 40
41.0
 40
41.0
 40
41.0
 40
42.0
 40
42.0
 40
42.0
 40
43.0
 40
43.0
 40
43.0
 40
44.0
 40
44.0
 40
44.0
 40
45.0
 40
45.0
 40
45.0
 40
46.0
 40
46.0
 40
46.0
 40
47.0
 40
47.0
 40
47.0
 40
48.0
 40
48.0
 40
48.0
 40
49.0
 40
49.0
 40
49.0
 40
50.0
 40
50.0
 40
50.0
 40
51.0
 40
51.0
 40
51.0
 40
52.0
 40
52.0
 40
52.0
 40
53.0
 40
53.0
 40
53.0
 40
54.0
 40
54.0
 40
54.0
 40
55.0
 40
55.0
 40
55.0
 40
56.0
 40
56.0
 40
56.0
 40
57.0
 40
57.0
 40
57.0
 40
58.0
 40
58.0
 40
58.0
 40
59.0
 40
59.0
 40
59.0
 40
60.0
 40
60.0
 40
60.0
 40
61.0
 40
61.0
 40
61.0
 40
62.0
 40
62.0
 40
62.0
 40
63.0
 40
63.0
 40
63.0
 40
64.0
 40
64.0
 40
64.0
 40
65.0
 40
65.0
 40
65.0
 40
66.0
 40
66.0
 40
66.0
 40
67.0
 40
67.0
 40
67.0
 40
68.0
 40
68.0
 40
68.0
 40
69.0
 40
69.0
 40
69.0
 40
70.0
 40
70.0
 40
70.0
 40
71.0
 40
71.0
 40
71.0
 40
72.0
 40
72.0
 40
72.0
 40
73.0
 40
73.0
 40
73.0
 40
74.0
 40
74.0
 40
74.0
 40
75.0
 40
75.0
 40
75.0
 40
76.0
 40
76.0
 40
76.0
 40
77.0
 40
77.0
 40
77.0
 40
78.0
 40
78.0
 40
78.0
 40
79.0
 40
79.0
 40
79.0
 40
80.0
 40
80.0
 40
80.0
 40
81.0
 40
81.0
 40
81.0
 40
82.0
 40
82.0
 40
82.0
 40
82.0
 10
106.9282283704783
 20
148.2847632410785
 30
0.0
 10
106.9282283704783
 20
148.2847632410785
 30
0.0
 10
106.5883384055094
 20
148.9909926360936
 30
0.0
 10
106.5883384055094
 20
148.9909926360936
 30
0.0
 10
106.5883384055094
 20
148.9909926360936
 30
0.0
 10
106.5881145944422
 20
147.492172317094
 30
0.0
 10
106.5881145944422
 20
147.492172317094
 30
0.0
 10
106.5880589394418
 20
147.4755720860931
 30
0.0
 10
106.5880032847455
 20
147.4589718545878
 30
0.0
 10
106.5864211228557
 20
147.4424971560732
 30
0.0
 10
106.5850533774166
 20
147.4282551281916
 30
0.0
 10
106.5825448370881
 20
147.4141069140812
 30
0.0
 10
106.5790827466292
 20
147.4001603704561
 30
0.0
 10
106.5760046524556
 20
147.38776070176
 30
0.0
 10
106.572172802748
 20
147.3755204481155
 30
0.0
 10
106.5666639562514
 20
147.3640329809161
 30
0.0
 10
106.5617192429314
 20
147.3537218872765
 30
0.0
 10
106.555423412096
 20
147.3440172962579
 30
0.0
 10
106.5480357709877
 20
147.335243966898
 30
0.0
 10
106.54106532946
 20
147.3269660905892
 30
0.0
 10
106.533122910517
 20
147.3195172642744
 30
0.0
 10
106.5243271711362
 20
147.3132288387447
 30
0.0
 10
106.5154713918304
 20
147.3068974882735
 30
0.0
 10
106.5057506027577
 20
147.3017424345006
 30
0.0
 10
106.4955381573093
 20
147.2979875960355
 30
0.0
 10
106.4842895613556
 20
147.2938517932084
 30
0.0
 10
106.4724444813854
 20
147.2914147501071
 30
0.0
 10
106.4605397480446
 20
147.2900847290483
 30
0.0
 10
106.447229851596
 20
147.2885977203044
 30
0.0
 10
106.4338453884331
 20
147.2884944891006
 30
0.0
 10
106.4204609254332
 20
147.2883912581009
 30
0.0
 10
106.4081609394337
 20
147.2885722151021
 30
0.0
 10
106.395860953365
 20
147.2887531716914
 30
0.0
 10
106.3837690448527
 20
147.2906492197281
 30
0.0
 10
106.3729549882015
 20
147.2923448967059
 30
0.0
 10
106.3623073543456
 20
147.2954123233286
 30
0.0
 10
106.3521575783881
 20
147.2996810675116
 30
0.0
 10
106.3427114372962
 20
147.3036538803099
 30
0.0
 10
106.3336965186384
 20
147.3086672211052
 30
0.0
 10
106.3256265266197
 20
147.3149223101542
 30
0.0
 10
106.3177300731796
 20
147.3210428886287
 30
0.0
 10
106.3107383435911
 20
147.3283523840168
 30
0.0
 10
106.3047403792326
 20
147.3363729480729
 30
0.0
 10
106.2981056310402
 20
147.3452450286148
 30
0.0
 10
106.2926868586295
 20
147.3549871761041
 30
0.0
 10
106.2883701554755
 20
147.3651619616996
 30
0.0
 10
106.2833663246201
 20
147.3769563576294
 30
0.0
 10
106.2798433392993
 20
147.389332087449
 30
0.0
 10
106.2770803458234
 20
147.4018538423648
 30
0.0
 10
106.2737937550293
 20
147.416748515406
 30
0.0
 10
106.2715824910668
 20
147.4318498021161
 30
0.0
 10
106.2703064600433
 20
147.44701307975
 30
0.0
 10
106.2688109521073
 20
147.4647844360826
 30
0.0
 10
106.2686000644417
 20
147.4826409421071
 30
0.0
 10
106.2683891774422
 20
147.5004974491083
 30
0.0
 10
106.2683891774422
 20
147.5004974491083
 30
0.0
 10
106.2680484985405
 20
149.6733634891079
 30
0.0
 10
106.2680484985405
 20
149.6733634891079
 30
0.0
 10
106.268330528541
 20
149.690522080108
 30
0.0
 10
106.2686125579845
 20
149.707680671684
 30
0.0
 10
106.2703064604398
 20
149.7247321217108
 30
0.0
 10
106.2717403106286
 20
149.7391657892319
 30
0.0
 10
106.2741858017601
 20
149.7535226872581
 30
0.0
 10
106.2776448364892
 20
149.767633397417
 30
0.0
 10
106.2806240271069
 20
149.7797866420637
 30
0.0
 10
106.2843550642077
 20
149.791757264589
 30
0.0
 10
106.289499136499
 20
149.8031962970594
 30
0.0
 10
106.2939496541618
 20
149.8130930506775
 30
0.0
 10
106.2994578655046
 20
149.8225918952806
 30
0.0
 10
106.3064338503353
 20
149.830856330114
 30
0.0
 10
106.3130586413672
 20
149.838704706379
 30
0.0
 10
106.3210071408783
 20
149.8454398327498
 30
0.0
 10
106.3295779593882
 20
149.8511779869018
 30
0.0
 10
106.3385702658989
 20
149.8571983268363
 30
0.0
 10
106.3482476041037
 20
149.8621212270824
 30
0.0
 10
106.3583669734468
 20
149.8658547390647
 30
0.0
 10
106.3698149686524
 20
149.8700784437079
 30
0.0
 10
106.3818286881761
 20
149.8727799346321
 30
0.0
 10
106.3939298731437
 20
149.8743220960259
 30
0.0
 10
106.407777614795
 20
149.876086836638
 30
0.0
 10
106.4217398915496
 20
149.876333447101
 30
0.0
 10
106.4357021675495
 20
149.8765800581007
 30
0.0
 10
106.4503569525499
 20
149.8761109870997
 30
0.0
 10
106.465011737436
 20
149.8756419159854
 30
0.0
 10
106.4791679340309
 20
149.8720641341076
 30
0.0
 10
106.4908668417901
 20
149.8691073978198
 30
0.0
 10
106.5022252319695
 20
149.8640275257005
 30
0.0
 10
106.5119083813193
 20
149.8568228912132
 30
0.0
 10
106.5168361316037
 20
149.8531564560106
 30
0.0
 10
106.5213300301205
 20
149.848939752516
 30
0.0
 10
106.5254561523779
 20
149.8444041009567
 30
0.0
 10
106.530424661543
 20
149.8389424532071
 30
0.0
 10
106.5348598951289
 20
149.8330183307605
 30
0.0
 10
106.5390039233928
 20
149.8269048965396
 30
0.0
 10
106.5436990716939
 20
149.819978428268
 30
0.0
 10
106.5480204086164
 20
149.8128089462533
 30
0.0
 10
106.5519872041258
 20
149.8054542589963
 30
0.0
 10
106.5566235114908
 20
149.7968582548373
 30
0.0
 10
106.5607754995448
 20
149.788009252095
 30
0.0
 10
106.5649274865453
 20
149.7791602490944
 30
0.0
 10
106.5649274865453
 20
149.7791602490944
 30
0.0
 10
107.080592837497
 20
148.7139634260714
 30
0.0
 10
107.080592837497
 20
148.7139634260714
 30
0.0
 10
107.080592837497
 20
148.7139634260714
 30
0.0
 10
107.5923431385451
 20
149.7935999590487
 30
0.0
 10
107.5923431385451
 20
149.7935999590487
 30
0.0
 10
107.5997185585466
 20
149.8085282730482
 30
0.0
 10
107.6070939779923
 20
149.8234565868836
 30
0.0
 10
107.617180719393
 20
149.8365012343661
 30
0.0
 10
107.6260427922983
 20
149.8479620830599
 30
0.0
 10
107.6369977723176
 20
149.8579689035057
 30
0.0
 10
107.6493566762172
 20
149.8658547389203
 30
0.0
 10
107.6609883147887
 20
149.8732765287576
 30
0.0
 10
107.6738635096509
 20
149.8788196097024
 30
0.0
 10
107.6871775373893
 20
149.8816604717826
 30
0.0
 10
107.7018741463021
 20
149.8847963401906
 30
0.0
 10
107.7171054605501
 20
149.8846396320431
 30
0.0
 10
107.7323367745499
 20
149.8844829240423
 30
0.0
 10
107.7457061655493
 20
149.8842580540415
 30
0.0
 10
107.7590755558601
 20
149.8840331840067
 30
0.0
 10
107.7724155984196
 20
149.8827894527365
 30
0.0
 10
107.7838665443205
 20
149.8817218474854
 30
0.0
 10
107.7952958658685
 20
149.8799035129887
 30
0.0
 10
107.8062850263221
 20
149.8765800575412
 30
0.0
 10
107.8157235887411
 20
149.8737255499722
 30
0.0
 10
107.8248374421594
 20
149.8697607072849
 30
0.0
 10
107.8333805690765
 20
149.8647257578615
 30
0.0
 10
107.8410460925603
 20
149.8602080299359
 30
0.0
 10
107.848252124039
 20
149.8548287588911
 30
0.0
 10
107.8542667161761
 20
149.8483555341859
 30
0.0
 10
107.8604411166717
 20
149.8417103152045
 30
0.0
 10
107.8653599233624
 20
149.833912237331
 30
0.0
 10
107.8695079587724
 20
149.8257759152511
 30
0.0
 10
107.8742966690458
 20
149.816382917052
 30
0.0
 10
107.878058125563
 20
149.8065391202294
 30
0.0
 10
107.8807977684463
 20
149.7964224113074
 30
0.0
 10
107.884088001401
 20
149.7842725324678
 30
0.0
 10
107.8859044393591
 20
149.771729023642
 30
0.0
 10
107.8870071637071
 20
149.7591660403066
 30
0.0
 10
107.8882870355419
 20
149.7445848727026
 30
0.0
 10
107.8886054655431
 20
149.7299774710353
 30
0.0
 10
107.8889238955417
 20
149.7153700690353
 30
0.0
 10
107.8889238955417
 20
149.7153700690353
 30
0.0
 10
107.8887006344414
 20
147.4656412650355
 30
0.0
 10
107.8887006344414
 20
147.4656412650355
 30
0.0
 10
107.8881210874403
 20
147.4516885070353
 30
0.0
 10
107.8875415410257
 20
147.4377357487707
 30
0.0
 10
107.8858781823332
 20
147.4238689699842
 30
0.0
 10
107.8844135635212
 20
147.4116590088054
 30
0.0
 10
107.8821086503301
 20
147.3995157086833
 30
0.0
 10
107.8785398060907
 20
147.3877415800091
 30
0.0
 10
107.8752819883519
 20
147.3769935723389
 30
0.0
 10
107.8709709441511
 20
147.3665531931104
 30
0.0
 10
107.865556525112
 20
147.3566946048026
 30
0.0
 10
107.8606681175625
 20
147.3477937795871
 30
0.0
 10
107.8548803073692
 20
147.3393671941988
 30
0.0
 10
107.8480573205662
 20
147.331857023852
 30
0.0
 10
107.8414024458126
 20
147.3245318971154
 30
0.0
 10
107.8337627775882
 20
147.3180785825321
 30
0.0
 10
107.8254777023004
 20
147.3126643480585
 30
0.0
 10
107.8170082935091
 20
147.307129653025
 30
0.0
 10
107.8078644390243
 20
147.3026807891604
 30
0.0
 10
107.7983821596622
 20
147.2991165765918
 30
0.0
 10
107.7877968580606
 20
147.2951377584659
 30
0.0
 10
107.7767898179473
 20
147.2922613756115
 30
0.0
 10
107.7656417123442
 20
147.290649219501
 30
0.0
 10
107.7533374830226
 20
147.2888698733785
 30
0.0
 10
107.7408614124331
 20
147.2886305660419
 30
0.0
 10
107.728385341433
 20
147.2883912580418
 30
0.0
 10
107.7122904964337
 20
147.2896384040432
 30
0.0
 10
107.6961956523584
 20
147.2908855502627
 30
0.0
 10
107.6804036518241
 20
147.2940361624071
 30
0.0
 10
107.6666327959067
 20
147.2967835423731
 30
0.0
 10
107.6530922251123
 20
147.3009783360282
 30
0.0
 10
107.6403248282579
 20
147.3070194430759
 30
0.0
 10
107.6288427062486
 20
147.3124524008657
 30
0.0
 10
107.6179859250996
 20
147.3193786516196
 30
0.0
 10
107.6087133617863
 20
147.327905590384
 30
0.0
 10
107.5996027589958
 20
147.3362835921798
 30
0.0
 10
107.5920215154354
 20
147.3462068530486
 30
0.0
 10
107.5844402724358
 20
147.3561301140483
 30
0.0
 10
107.5818131874367
 20
147.3630345120494
 30
0.0
 10
107.5791861028874
 20
147.3699389099274
 30
0.0
 10
107.5771018957909
 20
147.377016261599
 30
0.0
 10
107.5747671405521
 20
147.3849444007542
 30
0.0
 10
107.5731136294558
 20
147.3930895755562
 30
0.0
 10
107.5720214816781
 20
147.4012893515207
 30
0.0
 10
107.5705017591506
 20
147.4126993314794
 30
0.0
 10
107.5700689872591
 20
147.4242150340037
 30
0.0
 10
107.5697635199392
 20
147.4357232703007
 30
0.0
 10
107.5693282333344
 20
147.4521223440779
 30
0.0
 10
107.5691514494413
 20
147.4685062570492
 30
0.0
 10
107.568974666442
 20
147.484890169049
 30
0.0
 10
107.568974666442
 20
147.484890169049
 30
0.0
 10
107.5689746665094
 20
148.9909926360497
 30
0.0
 10
107.5689746665094
 20
148.9909926360497
 30
0.0
 10
107.5689746665094
 20
148.9909926360497
 30
0.0
 10
107.236714143479
 20
148.3039096110646
 30
0.0
 10
107.236714143479
 20
148.3039096110646
 30
0.0
 10
107.2310309614786
 20
148.2925442910646
 30
0.0
 10
107.2253477801897
 20
148.2811789702398
 30
0.0
 10
107.2192149388357
 20
148.270040183619
 30
0.0
 10
107.2139975349525
 20
148.2605640623233
 30
0.0
 10
107.2084546919371
 20
148.2512518939783
 30
0.0
 10
107.2022802245091
 20
148.2423801504276
 30
0.0
 10
107.1970772039345
 20
148.234904224
 30
0.0
 10
107.1914256745432
 20
148.227741037865
 30
0.0
 10
107.185345510203
 20
148.2209295128153
 30
0.0
 10
107.1804606068128
 20
148.2154570222794
 30
0.0
 10
107.1752990290719
 20
148.2102115211738
 30
0.0
 10
107.1695397773734
 20
148.2056882699867
 30
0.0
 10
107.1641563070234
 20
148.2014601532256
 30
0.0
 10
107.1582506126263
 20
148.1978631100946
 30
0.0
 10
107.1520405728674
 20
148.1949629508566
 30
0.0
 10
107.1451810196045
 20
148.1917594614209
 30
0.0
 10
107.1379501281725
 20
148.1894062546608
 30
0.0
 10
107.1305899352914
 20
148.1876245750819
 30
0.0
 10
107.1222439734799
 20
148.185604270727
 30
0.0
 10
107.1137317554941
 20
148.1843188376697
 30
0.0
 10
107.1051878640536
 20
148.1836731418614
 30
0.0
 10
107.0956180172123
 20
148.1829499105284
 30
0.0
 10
107.0860084334738
 20
148.1830292810714
 30
0.0
 10
107.0763988494733
 20
148.1831086510718
 30
0.0
 10
107.0667797764735
 20
148.1827729370722
 30
0.0
 10
107.0571607028571
 20
148.1824372231878
 30
0.0
 10
107.0476098362894
 20
148.1831086507605
 30
0.0
 10
107.0394791299488
 20
148.1836802408235
 30
0.0
 10
107.0313978547062
 20
148.184981727703
 30
0.0
 10
107.0233367459968
 20
148.1864955935919
 30
0.0
 10
107.0166269287623
 20
148.1877556886724
 30
0.0
 10
107.0099310836728
 20
148.1891629280442
 30
0.0
 10
107.0035795791789
 20
148.1915760079733
 30
0.0
 10
106.9979967979947
 20
148.193697032565
 30
0.0
 10
106.9926800502435
 20
148.1965951575631
 30
0.0
 10
106.9877738462576
 20
148.2000433649457
 30
0.0
 10
106.98263026281
 20
148.203658408771
 30
0.0
 10
106.9779379113093
 20
148.2078780525589
 30
0.0
 10
106.9736615847604
 20
148.2124621551088
 30
0.0
 10
106.9682667587566
 20
148.2182452578153
 30
0.0
 10
106.9635340464025
 20
148.2246084053483
 30
0.0
 10
106.9589848321842
 20
148.2310903406922
 30
0.0
 10
106.9535782205716
 20
148.2387939363539
 30
0.0
 10
106.9484307935804
 20
148.2466653155931
 30
0.0
 10
106.9437435895211
 20
148.2547989402465
 30
0.0
 10
106.9381321002255
 20
148.2645364611842
 30
0.0
 10
106.9331802354776
 20
148.2746498510781
 30
0.0
 10
106.9282283704783
 20
148.2847632410785
 30
0.0
  0
ENDBLK
  5
4F
330
4C
100
AcDbEntity
  8
0
100
AcDbBlockEnd
  0
BLOCK
  5
53
330
51
100
AcDbEntity
  8
0
100
AcDbBlockBegin
  2
block 4
 70
     0
 10
0.0
 20
0.0
 30
0.0
  3
block 4
  1

  0
SPLINE
  5
55
330
51
100
AcDbEntity
  8
0
 62
     7
420
 16777215
370
     5
100
AcDbSpline
210
0.0
220
0.0
230
1.0
 70
    11
 71
     3
 72
   587
 73
   583
 74
     0
 42
0.0000000001
 43
0.0000000001
 12
1.0
 22
0.0
 32
0.0
 13
1.0
 23
0.0
 33
0.0
 40
0.0
 40
0.0
 40
0.0
 40
0.0
 40
1.0
 40
1.0
 40
1.0
 40
2.0
 40
2.0
 40
2.0
 40
3.0
 40
3.0
 40
3.0
 40
4.0
 40
4.0
 40
4.0
 40
5.0
 40
5.0
 40
5.0
 40
6.0
 40
6.0
 40
6.0
 40
7.0
 40
7.0
 40
7.0
 40
8.0
 40
8.0
 40
8.0
 40
9.0
 40
9.0
 40
9.0
 40
10.0
 40
10.0
 40
10.0
 40
11.0
 40
11.0
 40
11.0
 40
12.0
 40
12.0
 40
12.0
 40
13.0
 40
13.0
 40
13.0
 40
14.0
 40
14.0
 40
14.0
 40
15.0
 40
15.0
 40
15.0
 40
16.0
 40
16.0
 40
16.0
 40
17.0
 40
17.0
 40
17.0
 40
18.0
 40
18.0
 40
18.0
 40
19.0
 40
19.0
 40
19.0
 40
20.0
 40
20.0
 40
20.0
 40
21.0
 40
21.0
 40
21.0
 40
22.0
 40
22.0
 40
22.0
 40
23.0
 40
23.0
 40
23.0
 40
24.0
 40
24.0
 40
24.0
 40
25.0
 40
25.0
 40
25.0
 40
26.0
 40
26.0
 40
26.0
 40
27.0
 40
27.0
 40
27.0
 40
28.0
 40
28.0
 40
28.0
 40
29.0
 40
29.0
 40
29.0
 40
30.0
 40
30.0
 40
30.0
 40
31.0
 40
31.0
 40
31.0
 40
32.0
 40
32.0
 40
32.0
 40
33.0
 40
33.0
 40
33.0
 40
34.0
 40
34.0
 40
34.0
 40
35.0
 40
35.0
 40
35.0
 40
36.0
 40
36.0
 40
36.0
 40
37.0
 40
37.0
 40
37.0
 40
38.0
 40
38.0
 40
38.0
 40
39.0
 40
39.0
 40
39.0
 40
40.0
 40
40.0
 40
40.0
 40
41.0
 40
41.0
 40
41.0
 40
42.0
 40
42.0
 40
42.0
 40
43.0
 40
43.0
 40
43.0
 40
44.0
 40
44.0
 40
44.0
 40
45.0
 40
45.0
 40
45.0
 40
46.0
 40
46.0
 40
46.0
 40
47.0
 40
47.0
 40
47.0
 40
48.0
 40
48.0
 40
48.0
 40
49.0
 40
49.0
 40
49.0
 40
50.0
 40
50.0
 40
50.0
 40
51.0
 40
51.0
 40
51.0
 40
52.0
 40
52.0
 40
52.0
 40
53.0
 40
53.0
 40
53.0
 40
54.0
 40
54.0
 40
54.0
 40
55.0
 40
55.0
 40
55.0
 40
56.0
 40
56.0
 40
56.0
 40
57.0
 40
57.0
 40
57.0
 40
58.0
 40
58.0
 40
58.0
 40
59.0
 40
59.0
 40
59.0
 40
60.0
 40
60.0
 40
60.0
 40
61.0
 40
61.0
 40
61.0
 40
62.0
 40
62.0
 40
62.0
 40
63.0
 40
63.0
 40
63.0
 40
64.0
 40
64.0
 40
64.0
 40
65.0
 40
65.0
 40
65.0
 40
66.0
 40
66.0
 40
66.0
 40
67.0
 40
67.0
 40
67.0
 40
68.0
 40
68.0
 40
68.0
 40
69.0
 40
69.0
 40
69.0
 40
70.0
 40
70.0
 40
70.0
 40
71.0
 40
71.0
 40
71.0
 40
72.0
 40
72.0
 40
72.0
 40
73.0
 40
73.0
 40
73.0
 40
74.0
 40
74.0
 40
74.0
 40
75.0
 40
75.0
 40
75.0
 40
76.0
 40
76.0
 40
76.0
 40
77.0
 40
77.0
 40
77.0
 40
78.0
 40
78.0
 40
78.0
 40
79.0
 40
79.0
 40
79.0
 40
80.0
 40
80.0
 40
80.0
 40
81.0
 40
81.0
 40
81.0
 40
82.0
 40
82.0
 40
82.0
 40
83.0
 40
83.0
 40
83.0
 40
84.0
 40
84.0
 40
84.0
 40
85.0
 40
85.0
 40
85.0
 40
86.0
 40
86.0
 40
86.0
 40
87.0
 40
87.0
 40
87.0
 40
88.0
 40
88.0
 40
88.0
 40
89.0
 40
89.0
 40
89.0
 40
90.0
 40
90.0
 40
90.0
 40
91.0
 40
91.0
 40
91.0
 40
92.0
 40
92.0
 40
92.0
 40
93.0
 40
93.0
 40
93.0
 40
94.0
 40
94.0
 40
94.0
 40
95.0
 40
95.0
 40
95.0
 40
96.0
 40
96.0
 40
96.0
 40
97.0
 40
97.0
 40
97.0
 40
98.0
 40
98.0
 40
98.0
 40
99.0
 40
99.0
 40
99.0
 40
100.0
 40
100.0
 40
100.0
 40
101.0
 40
101.0
 40
101.0
 40
102.0
 40
102.0
 40
102.0
 40
103.0
 40
103.0
 40
103.0
 40
104.0
 40
104.0
 40
104.0
 40
105.0
 40
105.0
 40
105.0
 40
106.0
 40
106.0
 40
106.0
 40
107.0
 40
107.0
 40
107.0
 40
108.0
 40
108.0
 40
108.0
 40
109.0
 40
109.0
 40
109.0
 40
110.0
 40
110.0
 40
110.0
 40
111.0
 40
111.0
 40
111.0
 40
112.0
 40
112.0
 40
112.0
 40
113.0
 40
113.0
 40
113.0
 40
114.0
 40
114.0
 40
114.0
 40
115.0
 40
115.0
 40
115.0
 40
116.0
 40
116.0
 40
116.0
 40
117.0
 40
117.0
 40
117.0
 40
118.0
 40
118.0
 40
118.0
 40
119.0
 40
119.0
 40
119.0
 40
120.0
 40
120.0
 40
120.0
 40
121.0
 40
121.0
 40
121.0
 40
122.0
 40
122.0
 40
122.0
 40
123.0
 40
123.0
 40
123.0
 40
124.0
 40
124.0
 40
124.0
 40
125.0
 40
125.0
 40
125.0
 40
126.0
 40
126.0
 40
126.0
 40
127.0
 40
127.0
 40
127.0
 40
128.0
 40
128.0
 40
128.0
 40
129.0
 40
129.0
 40
129.0
 40
130.0
 40
130.0
 40
130.0
 40
131.0
 40
131.0
 40
131.0
 40
132.0
 40
132.0
 40
132.0
 40
133.0
 40
133.0
 40
133.0
 40
134.0
 40
134.0
 40
134.0
 40
135.0
 40
135.0
 40
135.0
 40
136.0
 40
136.0
 40
136.0
 40
137.0
 40
137.0
 40
137.0
 40
138.0
 40
138.0
 40
138.0
 40
139.0
 40
139.0
 40
139.0
 40
140.0
 40
140.0
 40
140.0
 40
141.0
 40
141.0
 40
141.0
 40
142.0
 40
142.0
 40
142.0
 40
143.0
 40
143.0
 40
143.0
 40
144.0
 40
144.0
 40
144.0
 40
145.0
 40
145.0
 40
145.0
 40
146.0
 40
146.0
 40
146.0
 40
147.0
 40
147.0
 40
147.0
 40
148.0
 40
148.0
 40
148.0
 40
149.0
 40
149.0
 40
149.0
 40
150.0
 40
150.0
 40
150.0
 40
151.0
 40
151.0
 40
151.0
 40
152.0
 40
152.0
 40
152.0
 40
153.0
 40
153.0
 40
153.0
 40
154.0
 40
154.0
 40
154.0
 40
155.0
 40
155.0
 40
155.0
 40
156.0
 40
156.0
 40
156.0
 40
157.0
 40
157.0
 40
157.0
 40
158.0
 40
158.0
 40
158.0
 40
159.0
 40
159.0
 40
159.0
 40
160.0
 40
160.0
 40
160.0
 40
161.0
 40
161.0
 40
161.0
 40
162.0
 40
162.0
 40
162.0
 40
163.0
 40
163.0
 40
163.0
 40
164.0
 40
164.0
 40
164.0
 40
165.0
 40
165.0
 40
165.0
 40
166.0
 40
166.0
 40
166.0
 40
167.0
 40
167.0
 40
167.0
 40
168.0
 40
168.0
 40
168.0
 40
169.0
 40
169.0
 40
169.0
 40
170.0
 40
170.0
 40
170.0
 40
171.0
 40
171.0
 40
171.0
 40
172.0
 40
172.0
 40
172.0
 40
173.0
 40
173.0
 40
173.0
 40
174.0
 40
174.0
 40
174.0
 40
175.0
 40
175.0
 40
175.0
 40
176.0
 40
176.0
 40
176.0
 40
177.0
 40
177.0
 40
177.0
 40
178.0
 40
178.0
 40
178.0
 40
179.0
 40
179.0
 40
179.0
 40
180.0
 40
180.0
 40
180.0
 40
181.0
 40
181.0
 40
181.0
 40
182.0
 40
182.0
 40
182.0
 40
183.0
 40
183.0
 40
183.0
 40
184.0
 40
184.0
 40
184.0
 40
185.0
 40
185.0
 40
185.0
 40
186.0
 40
186.0
 40
186.0
 40
187.0
 40
187.0
 40
187.0
 40
188.0
 40
188.0
 40
188.0
 40
189.0
 40
189.0
 40
189.0
 40
190.0
 40
190.0
 40
190.0
 40
191.0
 40
191.0
 40
191.0
 40
192.0
 40
192.0
 40
192.0
 40
193.0
 40
193.0
 40
193.0
 40
194.0
 40
194.0
 40
194.0
 40
194.0
 10
103.0783190294327
 20
147.288391258251
 30
0.0
 10
103.0783190294327
 20
147.288391258251
 30
0.0
 10
102.8737673084332
 20
147.2844398242607
 30
0.0
 10
102.8737673084332
 20
147.2844398242607
 30
0.0
 10
102.8509602044331
 20
147.2850784992614
 30
0.0
 10
102.8281531005171
 20
147.2857171737615
 30
0.0
 10
102.8054639622731
 20
147.2878267678112
 30
0.0
 10
102.7838775664664
 20
147.2898338309124
 30
0.0
 10
102.7623979482011
 20
147.2931723082306
 30
0.0
 10
102.7411120482949
 20
147.2974231056778
 30
0.0
 10
102.7203739573955
 20
147.3015645055835
 30
0.0
 10
102.6998197421794
 20
147.3065718713548
 30
0.0
 10
102.6795825874279
 20
147.3126643480495
 30
0.0
 10
102.6598590836513
 20
147.3186021880545
 30
0.0
 10
102.6404367496072
 20
147.3255707543772
 30
0.0
 10
102.6214400687747
 20
147.3335504955899
 30
0.0
 10
102.6027310394893
 20
147.3414094059619
 30
0.0
 10
102.5844348703596
 20
147.3502491002484
 30
0.0
 10
102.5666844934861
 20
147.3600815474906
 30
0.0
 10
102.5487744124358
 20
147.370002459497
 30
0.0
 10
102.5314199890585
 20
147.3809340688694
 30
0.0
 10
102.5147513708036
 20
147.3928219947546
 30
0.0
 10
102.498067961846
 20
147.4047204692505
 30
0.0
 10
102.482071575634
 20
147.4175769581654
 30
0.0
 10
102.4667696804921
 20
147.4312073466419
 30
0.0
 10
102.4509646592246
 20
147.4452859021244
 30
0.0
 10
102.4359005495537
 20
147.4601900854405
 30
0.0
 10
102.4216104429915
 20
147.4758020934164
 30
0.0
 10
102.4072571702921
 20
147.4914831106914
 30
0.0
 10
102.3936847584326
 20
147.5078782240087
 30
0.0
 10
102.3809671290817
 20
147.5249127648752
 30
0.0
 10
102.3682235984878
 20
147.5419819989848
 30
0.0
 10
102.3563383357191
 20
147.5596932678642
 30
0.0
 10
102.34540423021
 20
147.5779748680707
 30
0.0
 10
102.3344684167684
 20
147.5962593239046
 30
0.0
 10
102.3244840577535
 20
147.6151142892525
 30
0.0
 10
102.3154862348218
 20
147.6344239158535
 30
0.0
 10
102.3062147503054
 20
147.6543208292964
 30
0.0
 10
102.2979907238521
 20
147.6747004808807
 30
0.0
 10
102.2906486543858
 20
147.6953888863532
 30
0.0
 10
102.2831408300683
 20
147.7165443540885
 30
0.0
 10
102.2765552344443
 20
147.7380226739566
 30
0.0
 10
102.2708914876841
 20
147.7597407991442
 30
0.0
 10
102.2650135413436
 20
147.7822802910925
 30
0.0
 10
102.2601284899622
 20
147.8050780699497
 30
0.0
 10
102.2562147353402
 20
147.828044145955
 30
0.0
 10
102.2521668335834
 20
147.8517974029645
 30
0.0
 10
102.2491579536739
 20
147.875730691889
 30
0.0
 10
102.247182888029
 20
147.8997344362649
 30
0.0
 10
102.2450970762473
 20
147.9250841217047
 30
0.0
 10
102.2441642654629
 20
147.9505123852889
 30
0.0
 10
102.2432314544635
 20
147.975940649289
 30
0.0
 10
102.2438455714648
 20
147.9931225852883
 30
0.0
 10
102.2444596876928
 20
148.0103045216277
 30
0.0
 10
102.2466183976398
 20
148.027309281804
 30
0.0
 10
102.2485263493324
 20
148.0423387492906
 30
0.0
 10
102.2516408929887
 20
148.0572298118789
 30
0.0
 10
102.2556502451307
 20
148.0719040289481
 30
0.0
 10
102.2591902796372
 20
148.0848605448492
 30
0.0
 10
102.2634278984155
 20
148.0976480100255
 30
0.0
 10
102.2691980166372
 20
148.1097248902325
 30
0.0
 10
102.2744404759472
 20
148.1206973782568
 30
0.0
 10
102.2809479658805
 20
148.1310833004894
 30
0.0
 10
102.288390692319
 20
148.1407718660127
 30
0.0
 10
102.295392220408
 20
148.1498861017964
 30
0.0
 10
102.3032213914222
 20
148.1583832077454
 30
0.0
 10
102.3120992922012
 20
148.1656094469505
 30
0.0
 10
102.3210107216999
 20
148.1728629771294
 30
0.0
 10
102.330978817292
 20
148.178836023202
 30
0.0
 10
102.3414527963326
 20
148.1836731419121
 30
0.0
 10
102.3523021470681
 20
148.1886836156997
 30
0.0
 10
102.3636942912176
 20
148.1924752832768
 30
0.0
 10
102.3753222245521
 20
148.1949629514425
 30
0.0
 10
102.3882979247743
 20
148.1977389594774
 30
0.0
 10
102.4015672414737
 20
148.1988911622817
 30
0.0
 10
102.4148365574738
 20
148.200043365281
 30
0.0
 10
102.426558404474
 20
148.1993613972808
 30
0.0
 10
102.4382802514941
 20
148.1986794287085
 30
0.0
 10
102.4498349666147
 20
148.1966564226896
 30
0.0
 10
102.4602824087235
 20
148.1948272786526
 30
0.0
 10
102.4705932161943
 20
148.1919018019179
 30
0.0
 10
102.4803174518388
 20
148.1876245748792
 30
0.0
 10
102.4896154162336
 20
148.1835348442137
 30
0.0
 10
102.498377107534
 20
148.1782092762886
 30
0.0
 10
102.5062840130583
 20
148.1718188421955
 30
0.0
 10
102.5141772742588
 20
148.1654394355715
 30
0.0
 10
102.5212186972118
 20
148.1579988347206
 30
0.0
 10
102.527170160652
 20
148.1498037137718
 30
0.0
 10
102.5335143542392
 20
148.1410678063286
 30
0.0
 10
102.5386199917368
 20
148.1314745134048
 30
0.0
 10
102.5429758936382
 20
148.1215791902308
 30
0.0
 10
102.5478796349391
 20
148.1104393376718
 30
0.0
 10
102.5518331936867
 20
148.0989167050019
 30
0.0
 10
102.5548301936832
 20
148.0871452716895
 30
0.0
 10
102.5582211157754
 20
148.0738266152611
 30
0.0
 10
102.5603874955782
 20
148.0601894557534
 30
0.0
 10
102.5616040793004
 20
148.0465019575435
 30
0.0
 10
102.5629883514724
 20
148.0309278359037
 30
0.0
 10
102.5631429514659
 20
148.015288542275
 30
0.0
 10
102.5632975504651
 20
147.9996492492752
 30
0.0
 10
102.5639219564639
 20
147.9700384452739
 30
0.0
 10
102.5645463622
 20
147.9404276420157
 30
0.0
 10
102.5678134744296
 20
147.9110242456256
 30
0.0
 10
102.5708010508608
 20
147.8841366189139
 30
0.0
 10
102.5759984573389
 20
147.8574224257378
 30
0.0
 10
102.5836192078611
 20
147.8314310893347
 30
0.0
 10
102.5907367446691
 20
147.8071560139333
 30
0.0
 10
102.5999681551498
 20
147.7835114837101
 30
0.0
 10
102.6112792406665
 20
147.7608697805924
 30
0.0
 10
102.6221026071771
 20
147.739204357685
 30
0.0
 10
102.6348301696371
 20
147.7184571452069
 30
0.0
 10
102.6496645920526
 20
147.6993403199237
 30
0.0
 10
102.6568663361051
 20
147.6900595755201
 30
0.0
 10
102.6645646378923
 20
147.6811630908147
 30
0.0
 10
102.6728087014507
 20
147.6728092675509
 30
0.0
 10
102.6804819890848
 20
147.6650338194
 30
0.0
 10
102.6886280831823
 20
147.6577284918226
 30
0.0
 10
102.6970817918331
 20
147.6507941390716
 30
0.0
 10
102.7052080690383
 20
147.644128369641
 30
0.0
 10
102.7136185930472
 20
147.6378053941662
 30
0.0
 10
102.7224838632653
 20
147.6321659533214
 30
0.0
 10
102.7312963081904
 20
147.6265601160916
 30
0.0
 10
102.7405580960978
 20
147.6216296918358
 30
0.0
 10
102.7501438962247
 20
147.6174892011265
 30
0.0
 10
102.7594899345419
 20
147.6134522731381
 30
0.0
 10
102.7691439792769
 20
147.6101662569585
 30
0.0
 10
102.7789329098379
 20
147.6073283730048
 30
0.0
 10
102.7887685819039
 20
147.6044769383413
 30
0.0
 10
102.7987404310143
 20
147.6020779257248
 30
0.0
 10
102.8088509045593
 20
147.6005544875134
 30
0.0
 10
102.8192964921669
 20
147.598980554577
 30
0.0
 10
102.8298900459828
 20
147.5983412002007
 30
0.0
 10
102.8404623710694
 20
147.5982965257757
 30
0.0
 10
102.85176504829
 20
147.598248765175
 30
0.0
 10
102.8630434624471
 20
147.5988806852614
 30
0.0
 10
102.874321876447
 20
147.5995126052605
 30
0.0
 10
102.874321876447
 20
147.5995126052605
 30
0.0
 10
103.0662585584468
 20
147.5994255062525
 30
0.0
 10
103.0662585584468
 20
147.5994255062525
 30
0.0
 10
103.0881655794473
 20
147.6002259572502
 30
0.0
 10
103.1100726003747
 20
147.6010264086971
 30
0.0
 10
103.1317394528632
 20
147.6039414301628
 30
0.0
 10
103.151041676466
 20
147.6065383184813
 30
0.0
 10
103.1701532930152
 20
147.6108134121518
 30
0.0
 10
103.1887529901958
 20
147.6169247111152
 30
0.0
 10
103.205708677341
 20
147.6224958380124
 30
0.0
 10
103.2222389418409
 20
147.6295929148156
 30
0.0
 10
103.2372991705436
 20
147.6389398395354
 30
0.0
 10
103.2517491527875
 20
147.6479080231483
 30
0.0
 10
103.2648458184495
 20
147.6589474192435
 30
0.0
 10
103.2779424844502
 20
147.6699868152424
 30
0.0
 10
103.2881334284511
 20
147.6805143532416
 30
0.0
 10
103.2983243725045
 20
147.6910418919634
 30
0.0
 10
103.3078604790407
 20
147.7021627719113
 30
0.0
 10
103.3176620670492
 20
147.7135932528016
 30
0.0
 10
103.3267718491717
 20
147.7256505715578
 30
0.0
 10
103.3349560216885
 20
147.7382901614488
 30
0.0
 10
103.3432928629135
 20
147.7511655320306
 30
0.0
 10
103.3506692395388
 20
147.7646450998989
 30
0.0
 10
103.3575356404183
 20
147.7783689847327
 30
0.0
 10
103.3647391045047
 20
147.7927665582616
 30
0.0
 10
103.3713812957828
 20
147.8074330239286
 30
0.0
 10
103.377292806995
 20
147.8223992416064
 30
0.0
 10
103.3833497311392
 20
147.8377336023041
 30
0.0
 10
103.3886395861731
 20
147.8533826431436
 30
0.0
 10
103.3930985400158
 20
147.8692519506743
 30
0.0
 10
103.3975930908152
 20
147.8852479469033
 30
0.0
 10
103.4012434208782
 20
147.901467740752
 30
0.0
 10
103.4043883493001
 20
147.9177981309309
 30
0.0
 10
103.4075567889088
 20
147.9342506055521
 30
0.0
 10
103.4102122419603
 20
147.950815336299
 30
0.0
 10
103.4117267252154
 20
147.9674732917913
 30
0.0
 10
103.4132945294043
 20
147.9847177296672
 30
0.0
 10
103.4136396084652
 20
148.0020620722356
 30
0.0
 10
103.4139846874658
 20
148.0194064152364
 30
0.0
 10
103.4134972844669
 20
148.0361677592361
 30
0.0
 10
103.4130098809913
 20
148.0529291028828
 30
0.0
 10
103.4117267252937
 20
148.0696460672901
 30
0.0
 10
103.4104636933383
 20
148.0861008594034
 30
0.0
 10
103.4084296730174
 20
148.1025126533625
 30
0.0
 10
103.4055173301051
 20
148.1187567381213
 30
0.0
 10
103.4026571493577
 20
148.1347098795888
 30
0.0
 10
103.3989498270422
 20
148.1505012656424
 30
0.0
 10
103.3947920112841
 20
148.1661739371799
 30
0.0
 10
103.39065329912
 20
148.1817745987062
 30
0.0
 10
103.3860682236985
 20
148.1972576341064
 30
0.0
 10
103.3806797499447
 20
148.2124621559555
 30
0.0
 10
103.3753803663481
 20
148.2274152943307
 30
0.0
 10
103.3693039307266
 20
148.2420990526111
 30
0.0
 10
103.3626160546408
 20
148.2564924125562
 30
0.0
 10
103.356265034006
 20
148.2701608066529
 30
0.0
 10
103.3493626158761
 20
148.2835673193017
 30
0.0
 10
103.3417299072647
 20
148.2965712356296
 30
0.0
 10
103.3343792597274
 20
148.3090946018948
 30
0.0
 10
103.3263512990946
 20
148.3212445773425
 30
0.0
 10
103.3174568172012
 20
148.3326986253715
 30
0.0
 10
103.3087858219158
 20
148.3438648740244
 30
0.0
 10
103.2992913034812
 20
148.3543697282411
 30
0.0
 10
103.2897967844818
 20
148.3648745822418
 30
0.0
 10
103.2812715304815
 20
148.373547435242
 30
0.0
 10
103.2727462765305
 20
148.382220287855
 30
0.0
 10
103.2632657320974
 20
148.389712163205
 30
0.0
 10
103.252682796
 20
148.3980751890466
 30
0.0
 10
103.2409094919058
 20
148.4049666231938
 30
0.0
 10
103.2288318134759
 20
148.4111628007014
 30
0.0
 10
103.2152828841422
 20
148.418113769935
 30
0.0
 10
103.2013509086935
 20
148.4241897792168
 30
0.0
 10
103.1870595186022
 20
148.4292264955626
 30
0.0
 10
103.1711108149174
 20
148.4348472991397
 30
0.0
 10
103.1547145034851
 20
148.4391737882481
 30
0.0
 10
103.1383181924847
 20
148.4435002762485
 30
0.0
 10
103.1383181924847
 20
148.4435002762485
 30
0.0
 10
102.7941741524888
 20
148.5297057992643
 30
0.0
 10
102.7941741524888
 20
148.5297057992643
 30
0.0
 10
102.7675295194893
 20
148.537041167265
 30
0.0
 10
102.7408848869928
 20
148.54437653478
 30
0.0
 10
102.714580996359
 20
148.5528499086062
 30
0.0
 10
102.6929860014567
 20
148.5598063876737
 30
0.0
 10
102.6716206699199
 20
148.5675298941841
 30
0.0
 10
102.6507935732712
 20
148.576558508302
 30
0.0
 10
102.6324050486853
 20
148.5845299935019
 30
0.0
 10
102.6144360976957
 20
148.5935188573666
 30
0.0
 10
102.5971669787606
 20
148.6036540504099
 30
0.0
 10
102.58015587455
 20
148.6136378153999
 30
0.0
 10
102.5638238464933
 20
148.6247339112743
 30
0.0
 10
102.547491817494
 20
148.6358300072751
 30
0.0
 10
102.5287823414943
 20
148.6515334802757
 30
0.0
 10
102.5100728646591
 20
148.6672369526179
 30
0.0
 10
102.492736241976
 20
148.6843761881734
 30
0.0
 10
102.4750099149118
 20
148.7019006911077
 30
0.0
 10
102.4587188555868
 20
148.7209262308549
 30
0.0
 10
102.4436255712147
 20
148.7408252348247
 30
0.0
 10
102.4280241017055
 20
148.7613942306788
 30
0.0
 10
102.4137024222517
 20
148.7828964993685
 30
0.0
 10
102.4007242959349
 20
148.8051771479073
 30
0.0
 10
102.3871259782763
 20
148.8285225314444
 30
0.0
 10
102.3750026918553
 20
148.852722465919
 30
0.0
 10
102.3640324153293
 20
148.8774319280333
 30
0.0
 10
102.3527358959996
 20
148.9028762197754
 30
0.0
 10
102.3426619845331
 20
148.9288607952576
 30
0.0
 10
102.3341144201049
 20
148.9553316130107
 30
0.0
 10
102.3255590364127
 20
148.9818266461206
 30
0.0
 10
102.3185327936241
 20
149.0088088115321
 30
0.0
 10
102.3126637822266
 20
149.0360537503517
 30
0.0
 10
102.3067557612733
 20
149.0634797780911
 30
0.0
 10
102.3020204063749
 20
149.0911720840007
 30
0.0
 10
102.2991160113573
 20
149.1190338489334
 30
0.0
 10
102.2961468792758
 20
149.1475166343727
 30
0.0
 10
102.2950912385178
 20
149.1761765172866
 30
0.0
 10
102.2940355975195
 20
149.2048364002864
 30
0.0
 10
102.29475642352
 20
149.2283870522865
 30
0.0
 10
102.2954772501901
 20
149.2519377045738
 30
0.0
 10
102.2974225396822
 20
149.2753977093014
 30
0.0
 10
102.2992715416161
 20
149.2976964953089
 30
0.0
 10
102.3022267899042
 20
149.3199133853777
 30
0.0
 10
102.305889897074
 20
149.342007584259
 30
0.0
 10
102.3094411361924
 20
149.363427045861
 30
0.0
 10
102.3136576596006
 20
149.3847311956096
 30
0.0
 10
102.3188731778274
 20
149.4057950067844
 30
0.0
 10
102.3239676698867
 20
149.4263700319451
 30
0.0
 10
102.3300153313196
 20
149.4467157432353
 30
0.0
 10
102.3369368723735
 20
149.4667599777403
 30
0.0
 10
102.343612093003
 20
149.4860908878136
 30
0.0
 10
102.3511001015927
 20
149.5051413969076
 30
0.0
 10
102.3595164913683
 20
149.5237735158061
 30
0.0
 10
102.3678670094259
 20
149.5422598085596
 30
0.0
 10
102.3771314333996
 20
149.5603342346337
 30
0.0
 10
102.3871765240604
 20
149.5779646001562
 30
0.0
 10
102.3971050705037
 20
149.5953904162908
 30
0.0
 10
102.4077962739604
 20
149.6123824161742
 30
0.0
 10
102.4193524810491
 20
149.6287687425576
 30
0.0
 10
102.430940718815
 20
149.6452004874006
 30
0.0
 10
102.4433987619698
 20
149.661023196564
 30
0.0
 10
102.4566088523236
 20
149.6761859415482
 30
0.0
 10
102.4696400455211
 20
149.6911433456237
 30
0.0
 10
102.4834030546998
 20
149.7054585395639
 30
0.0
 10
102.4978166561799
 20
149.7190872170144
 30
0.0
 10
102.5118807693342
 20
149.7323854382863
 30
0.0
 10
102.5265643073091
 20
149.7450300315455
 30
0.0
 10
102.5418469133366
 20
149.7569080790984
 30
0.0
 10
102.5568964723342
 20
149.7686049963062
 30
0.0
 10
102.5725269681106
 20
149.7795585679267
 30
0.0
 10
102.5886996218892
 20
149.7896485259103
 30
0.0
 10
102.6049266035687
 20
149.7997723785318
 30
0.0
 10
102.6216993918517
 20
149.8090268055917
 30
0.0
 10
102.638939274188
 20
149.8173085587189
 30
0.0
 10
102.6562083601764
 20
149.8256043407936
 30
0.0
 10
102.6739461240353
 20
149.832924150805
 30
0.0
 10
102.6920013778615
 20
149.8393236867954
 30
0.0
 10
102.7105238887544
 20
149.8458888382043
 30
0.0
 10
102.7293805350772
 20
149.8514854671819
 30
0.0
 10
102.7484504247723
 20
149.8562584009953
 30
0.0
 10
102.768009166053
 20
149.8611536877071
 30
0.0
 10
102.7877922237139
 20
149.865182507555
 30
0.0
 10
102.8077219241204
 20
149.8681127008104
 30
0.0
 10
102.8284825103611
 20
149.8711650562668
 30
0.0
 10
102.8494022215488
 20
149.8730252702615
 30
0.0
 10
102.8703219325492
 20
149.8748854842607
 30
0.0
 10
102.8703219325492
 20
149.8748854842607
 30
0.0
 10
103.0743190855497
 20
149.8850468642515
 30
0.0
 10
103.0743190855497
 20
149.8850468642515
 30
0.0
 10
103.0743190855497
 20
149.8850468642515
 30
0.0
 10
103.0939185915499
 20
149.8844829242505
 30
0.0
 10
103.0939185915499
 20
149.8844829242505
 30
0.0
 10
103.1171325595498
 20
149.8841187922496
 30
0.0
 10
103.1403465268446
 20
149.8837546593744
 30
0.0
 10
103.1633509191602
 20
149.8810959821683
 30
0.0
 10
103.1868357162937
 20
149.8783817833334
 30
0.0
 10
103.2101020938678
 20
149.8732762047454
 30
0.0
 10
103.2327832474514
 20
149.8664192297041
 30
0.0
 10
103.2563704822399
 20
149.859288327845
 30
0.0
 10
103.2793248012798
 20
149.8502633026824
 30
0.0
 10
103.3016510839933
 20
149.8398881775943
 30
0.0
 10
103.3251880125741
 20
149.828950459867
 30
0.0
 10
103.3480269474531
 20
149.8165122537037
 30
0.0
 10
103.3699544311317
 20
149.8026318062592
 30
0.0
 10
103.3926108343108
 20
149.7882899411268
 30
0.0
 10
103.4142941816634
 20
149.772408354196
 30
0.0
 10
103.4348708347861
 20
149.7552146071865
 30
0.0
 10
103.4554129633075
 20
149.7380497087597
 30
0.0
 10
103.4748521082237
 20
149.7195770497836
 30
0.0
 10
103.4930133532558
 20
149.6998945416053
 30
0.0
 10
103.511826004097
 20
149.6795060630965
 30
0.0
 10
103.5292674398426
 20
149.6578193893939
 30
0.0
 10
103.5449464760842
 20
149.6349781373403
 30
0.0
 10
103.5610509518198
 20
149.6115171041633
 30
0.0
 10
103.5752960875362
 20
149.5868379852289
 30
0.0
 10
103.5895412235352
 20
149.5621588672284
 30
0.0
 10
103.6016550095346
 20
149.5377699212278
 30
0.0
 10
103.6137687962841
 20
149.5133809758464
 30
0.0
 10
103.6239751416831
 20
149.4882106158281
 30
0.0
 10
103.6339588716812
 20
149.4635892583738
 30
0.0
 10
103.6421174610841
 20
149.4382202021374
 30
0.0
 10
103.6493772128894
 20
149.4125688928896
 30
0.0
 10
103.6561678218169
 20
149.388575233846
 30
0.0
 10
103.6621720097063
 20
149.3643346228436
 30
0.0
 10
103.66574743654
 20
149.3397496221466
 30
0.0
 10
103.6688420162238
 20
149.3184709756482
 30
0.0
 10
103.6701171785235
 20
149.296934342225
 30
0.0
 10
103.671392341522
 20
149.2753977082246
 30
0.0
 10
103.6706184205213
 20
149.2627544302245
 30
0.0
 10
103.6698445002963
 20
149.2501111516678
 30
0.0
 10
103.6680053983316
 20
149.2375768476284
 30
0.0
 10
103.6663475555768
 20
149.2262779063333
 30
0.0
 10
103.6638241496554
 20
149.2150675173714
 30
0.0
 10
103.660102531542
 20
149.2042719095391
 30
0.0
 10
103.6567247261658
 20
149.1944736279652
 30
0.0
 10
103.6523598703054
 20
149.1850170303756
 30
0.0
 10
103.6471192509875
 20
149.1760473861399
 30
0.0
 10
103.6422816841113
 20
149.1677675910958
 30
0.0
 10
103.6366978823337
 20
149.1599027272593
 30
0.0
 10
103.6301845369862
 20
149.1529032768262
 30
0.0
 10
103.6236347020324
 20
149.1458646134887
 30
0.0
 10
103.6161448792011
 20
149.1397010872991
 30
0.0
 10
103.6081694086969
 20
149.1342750916349
 30
0.0
 10
103.5999962378377
 20
149.1287145934021
 30
0.0
 10
103.5913130438851
 20
149.1239286435129
 30
0.0
 10
103.5822028472362
 20
149.1201628295307
 30
0.0
 10
103.5722355742722
 20
149.1160427323101
 30
0.0
 10
103.5617571754909
 20
149.1131437463483
 30
0.0
 10
103.5511558714887
 20
149.1111309820694
 30
0.0
 10
103.539402288452
 20
149.1088994460173
 30
0.0
 10
103.5274976305153
 20
149.1077572522312
 30
0.0
 10
103.5155929715146
 20
149.1066150582315
 30
0.0
 10
103.5004204795151
 20
149.1073877192318
 30
0.0
 10
103.4852479870278
 20
149.1081603796609
 30
0.0
 10
103.4704337346993
 20
149.1111309819359
 30
0.0
 10
103.4573812139251
 20
149.1137483160435
 30
0.0
 10
103.4446067948092
 20
149.1180719113246
 30
0.0
 10
103.4326128733546
 20
149.1241142626422
 30
0.0
 10
103.4211969620376
 20
149.12986542143
 30
0.0
 10
103.4104881336905
 20
149.1371736676823
 30
0.0
 10
103.4015658976341
 20
149.1461293908018
 30
0.0
 10
103.3924083030433
 20
149.1553213558077
 30
0.0
 10
103.3851328005176
 20
149.1662488612375
 30
0.0
 10
103.3778572975176
 20
149.1771763672375
 30
0.0
 10
103.3770970905186
 20
149.1798084922381
 30
0.0
 10
103.3763368833213
 20
149.1824406178265
 30
0.0
 10
103.3755993359378
 20
149.185079233574
 30
0.0
 10
103.3744930148546
 20
149.1890371572236
 30
0.0
 10
103.3734376783524
 20
149.193009683731
 30
0.0
 10
103.3722123929476
 20
149.1969335332145
 30
0.0
 10
103.3712719526524
 20
149.1999451957652
 30
0.0
 10
103.3702313957101
 20
149.2029281827527
 30
0.0
 10
103.3693899407695
 20
149.2059653809848
 30
0.0
 10
103.3680505179291
 20
149.2107999745976
 30
0.0
 10
103.3672155812957
 20
149.2157719290837
 30
0.0
 10
103.3660029978582
 20
149.2206421333771
 30
0.0
 10
103.3644360210677
 20
149.2269357185152
 30
0.0
 10
103.3622383953261
 20
149.2330593865463
 30
0.0
 10
103.3603580928551
 20
149.2392703185909
 30
0.0
 10
103.3579377889448
 20
149.2472649595279
 30
0.0
 10
103.3560432435214
 20
149.2554041842387
 30
0.0
 10
103.3541486975218
 20
149.263543409239
 30
0.0
 10
103.3480471475229
 20
149.2881425992393
 30
0.0
 10
103.3419455975868
 20
149.3127417887837
 30
0.0
 10
103.3343915314668
 20
149.336927169671
 30
0.0
 10
103.3277323599696
 20
149.3582474224303
 30
0.0
 10
103.3199444331397
 20
149.3792461030558
 30
0.0
 10
103.3106829320036
 20
149.3995856114206
 30
0.0
 10
103.30251170129
 20
149.4175307385665
 30
0.0
 10
103.2931934156432
 20
149.4349627549785
 30
0.0
 10
103.2824584083695
 20
149.4515187347672
 30
0.0
 10
103.272963061194
 20
149.4661628586034
 30
0.0
 10
103.262359301214
 20
149.4801215900581
 30
0.0
 10
103.2502824512848
 20
149.4927265393075
 30
0.0
 10
103.2388962049534
 20
149.504610686083
 30
0.0
 10
103.22620052624
 20
149.5152914533495
 30
0.0
 10
103.2124615897354
 20
149.5243380052895
 30
0.0
 10
103.1986696018093
 20
149.5334194895127
 30
0.0
 10
103.183826283683
 20
149.5408541133519
 30
0.0
 10
103.1684313334206
 20
149.5469176240545
 30
0.0
 10
103.1523648289946
 20
149.5532456355051
 30
0.0
 10
103.1356975164756
 20
149.5580803041729
 30
0.0
 10
103.1187561722887
 20
149.5610298857994
 30
0.0
 10
103.1001638942996
 20
149.5642669041222
 30
0.0
 10
103.0812415735357
 20
149.5652335302511
 30
0.0
 10
103.0623192535354
 20
149.5662001552521
 30
0.0
 10
103.0623192535354
 20
149.5662001552521
 30
0.0
 10
103.0463194765356
 20
149.5662001552528
 30
0.0
 10
103.0463194765356
 20
149.5662001552528
 30
0.0
 10
103.0463194765356
 20
149.5662001552528
 30
0.0
 10
102.8861860995351
 20
149.5621588672599
 30
0.0
 10
102.8861860995351
 20
149.5621588672599
 30
0.0
 10
102.8721838615353
 20
149.5604662572608
 30
0.0
 10
102.8581816236468
 20
149.5587736467461
 30
0.0
 10
102.844413804572
 20
149.5559494715044
 30
0.0
 10
102.829499463615
 20
149.5528901116848
 30
0.0
 10
102.8148602098035
 20
149.5485028767397
 30
0.0
 10
102.8003835480447
 20
149.5435306810586
 30
0.0
 10
102.7866152064568
 20
149.5388017670504
 30
0.0
 10
102.7729939354207
 20
149.5335437343239
 30
0.0
 10
102.7603047245812
 20
149.5265959672138
 30
0.0
 10
102.7497107859281
 20
149.5207954316675
 30
0.0
 10
102.7397665125332
 20
149.5138171162664
 30
0.0
 10
102.7298222395322
 20
149.5068388012667
 30
0.0
 10
102.7206773335325
 20
149.4978779652673
 30
0.0
 10
102.7115324283573
 20
149.4889171299844
 30
0.0
 10
102.7032911869104
 20
149.4791787677741
 30
0.0
 10
102.6950365487768
 20
149.4694245752088
 30
0.0
 10
102.6876885146891
 20
149.4588903258185
 30
0.0
 10
102.6807115683429
 20
149.4481317925538
 30
0.0
 10
102.6735853655345
 20
149.4371431040692
 30
0.0
 10
102.6668462975132
 20
149.4259204329437
 30
0.0
 10
102.6609544019402
 20
149.4142623638999
 30
0.0
 10
102.6549512146072
 20
149.4023840860961
 30
0.0
 10
102.6498275063943
 20
149.3900538066022
 30
0.0
 10
102.6451486687917
 20
149.3775704833184
 30
0.0
 10
102.6402776211423
 20
149.3645743360468
 30
0.0
 10
102.6358887460935
 20
149.3514123124037
 30
0.0
 10
102.632165388008
 20
149.3380561509005
 30
0.0
 10
102.628229975276
 20
149.3239393222657
 30
0.0
 10
102.625038043916
 20
149.3096056127841
 30
0.0
 10
102.6225690498809
 20
149.2951548753923
 30
0.0
 10
102.6199815856489
 20
149.2800107455977
 30
0.0
 10
102.6181881008932
 20
149.2647380877065
 30
0.0
 10
102.6169241452217
 20
149.2494311470199
 30
0.0
 10
102.6155900299941
 20
149.2332745498246
 30
0.0
 10
102.6148458615195
 20
149.217079758272
 30
0.0
 10
102.6141016925187
 20
149.2008849672721
 30
0.0
 10
102.615254442518
 20
149.1767109042721
 30
0.0
 10
102.6164071927201
 20
149.1525368422427
 30
0.0
 10
102.6197465977316
 20
149.1286301865644
 30
0.0
 10
102.6229458088656
 20
149.1057271727734
 30
0.0
 10
102.6281519297648
 20
149.0830695842845
 30
0.0
 10
102.6349878403614
 20
149.0608913307707
 30
0.0
 10
102.6415721908909
 20
149.0395292323062
 30
0.0
 10
102.6496685863846
 20
149.0186118390923
 30
0.0
 10
102.6598254209148
 20
148.9987973791979
 30
0.0
 10
102.6699409246054
 20
148.9790635495683
 30
0.0
 10
102.682100132508
 20
148.960423695269
 30
0.0
 10
102.6942593395074
 20
148.9417838412684
 30
0.0
 10
102.702793358507
 20
148.931086499268
 30
0.0
 10
102.7113273778047
 20
148.9203891574406
 30
0.0
 10
102.7213548819313
 20
148.9113013558094
 30
0.0
 10
102.732441573629
 20
148.9012536257247
 30
0.0
 10
102.7453539217856
 20
148.8931734197811
 30
0.0
 10
102.7586112529998
 20
148.8858992846932
 30
0.0
 10
102.7737612457264
 20
148.8775866694394
 30
0.0
 10
102.7893617546442
 20
148.8703267086933
 30
0.0
 10
102.8054639618983
 20
148.8644486471227
 30
0.0
 10
102.8239746524896
 20
148.8576913760667
 30
0.0
 10
102.8431483485035
 20
148.8527603152617
 30
0.0
 10
102.8623220435029
 20
148.8478292542607
 30
0.0
 10
102.8623220435029
 20
148.8478292542607
 30
0.0
 10
103.206252194499
 20
148.7611468912453
 30
0.0
 10
103.206252194499
 20
148.7611468912453
 30
0.0
 10
103.2262753984994
 20
148.7551912542446
 30
0.0
 10
103.2462986026396
 20
148.7492356175323
 30
0.0
 10
103.2660881842351
 20
148.7425187057628
 30
0.0
 10
103.2852214120214
 20
148.7360245713467
 30
0.0
 10
103.3041362572181
 20
148.7288188223138
 30
0.0
 10
103.3225372316297
 20
148.7205035777857
 30
0.0
 10
103.340631387427
 20
148.7123269819916
 30
0.0
 10
103.3582286661764
 20
148.7030775817848
 30
0.0
 10
103.3755993353552
 20
148.6934080353746
 30
0.0
 10
103.3927321411569
 20
148.6838708978501
 30
0.0
 10
103.4096445010036
 20
148.673925041794
 30
0.0
 10
103.4258389870867
 20
148.6629255496419
 30
0.0
 10
103.4418312174638
 20
148.6520634320284
 30
0.0
 10
103.4571233934006
 20
148.6401738320573
 30
0.0
 10
103.4721272058424
 20
148.6279271402754
 30
0.0
 10
103.4871203661668
 20
148.6156891431636
 30
0.0
 10
103.5018255723053
 20
148.6030945611041
 30
0.0
 10
103.5155929711013
 20
148.5895417890144
 30
0.0
 10
103.5295392425048
 20
148.57581293285
 30
0.0
 10
103.5425231793795
 20
148.5611008263854
 30
0.0
 10
103.5551073044703
 20
148.5460760225276
 30
0.0
 10
103.5678559498027
 20
148.5308547898874
 30
0.0
 10
103.5801942610295
 20
148.515312630225
 30
0.0
 10
103.5917991849513
 20
148.4992233138063
 30
0.0
 10
103.6034930446965
 20
148.4830106948465
 30
0.0
 10
103.6144422332479
 20
148.4662425005825
 30
0.0
 10
103.6245396321056
 20
148.4489836623494
 30
0.0
 10
103.6347438377161
 20
148.4315422661632
 30
0.0
 10
103.6440781384621
 20
148.4135997913911
 30
0.0
 10
103.6527641555068
 20
148.3953570674573
 30
0.0
 10
103.6614971496729
 20
148.3770156802736
 30
0.0
 10
103.6695748288704
 20
148.3583707874336
 30
0.0
 10
103.6770372454868
 20
148.3394725116243
 30
0.0
 10
103.684580890392
 20
148.3203685283755
 30
0.0
 10
103.6914958055708
 20
148.3010056159968
 30
0.0
 10
103.6973589027953
 20
148.281329992372
 30
0.0
 10
103.7033931059712
 20
148.2610801643308
 30
0.0
 10
103.7083132038316
 20
148.24049910667
 30
0.0
 10
103.7126001454623
 20
148.2198005319812
 30
0.0
 10
103.7170186733551
 20
148.1984666213588
 30
0.0
 10
103.7207645794383
 20
148.1770078686947
 30
0.0
 10
103.7238899550604
 20
148.1554486182128
 30
0.0
 10
103.7270956070835
 20
148.1333356105988
 30
0.0
 10
103.7296484421604
 20
148.1111168762186
 30
0.0
 10
103.7312283307973
 20
148.0888387428423
 30
0.0
 10
103.7328666117771
 20
148.0657372144742
 30
0.0
 10
103.7334586974671
 20
148.0425718152223
 30
0.0
 10
103.7340507834657
 20
148.0194064152223
 30
0.0
 10
103.7331778804651
 20
147.9928422972222
 30
0.0
 10
103.7323049769763
 20
147.9662781789127
 30
0.0
 10
103.7300993500549
 20
147.9398132588467
 30
0.0
 10
103.7279890202241
 20
147.9144917914048
 30
0.0
 10
103.7246586432795
 20
147.8892611354013
 30
0.0
 10
103.7205030121543
 20
147.8641715360597
 30
0.0
 10
103.7165147443215
 20
147.8400923916489
 30
0.0
 10
103.711766356096
 20
147.8161431709003
 30
0.0
 10
103.7058262598091
 20
147.7924812461233
 30
0.0
 10
103.7001293830522
 20
147.7697881679709
 30
0.0
 10
103.6933363901966
 20
147.747359340559
 30
0.0
 10
103.6855046031359
 20
147.7253068813075
 30
0.0
 10
103.677819093109
 20
147.7036663035738
 30
0.0
 10
103.6691332303474
 20
147.6823881661731
 30
0.0
 10
103.6595380415674
 20
147.6615194583865
 30
0.0
 10
103.6501461278143
 20
147.6410928562464
 30
0.0
 10
103.6398830082542
 20
147.6210585198599
 30
0.0
 10
103.628491065347
 20
147.6016834682263
 30
0.0
 10
103.6172729940695
 20
147.5826041318916
 30
0.0
 10
103.6049602942365
 20
147.5641641089801
 30
0.0
 10
103.5917991851887
 20
147.5463634024474
 30
0.0
 10
103.5785149308227
 20
147.5283961390019
 30
0.0
 10
103.5643663162446
 20
147.5110802117628
 30
0.0
 10
103.5494623997437
 20
147.4944302791705
 30
0.0
 10
103.5348124126764
 20
147.4780640242243
 30
0.0
 10
103.5194326417463
 20
147.4623412631332
 30
0.0
 10
103.5031741817516
 20
147.4475775708302
 30
0.0
 10
103.4872219663822
 20
147.433091967682
 30
0.0
 10
103.4704238521965
 20
147.4195296435258
 30
0.0
 10
103.4529345300676
 20
147.4069342566611
 30
0.0
 10
103.4356864236226
 20
147.3945125874995
 30
0.0
 10
103.4177660442631
 20
147.3830313672378
 30
0.0
 10
103.3993079351835
 20
147.372500337808
 30
0.0
 10
103.3808093226727
 20
147.3619461996818
 30
0.0
 10
103.3617706179262
 20
147.3523464270518
 30
0.0
 10
103.3422943978765
 20
147.3437113238297
 30
0.0
 10
103.3224094227796
 20
147.334894992319
 30
0.0
 10
103.3020683750568
 20
147.3270842469118
 30
0.0
 10
103.2813294272023
 20
147.3205672146144
 30
0.0
 10
103.2602116399858
 20
147.3139311353752
 30
0.0
 10
103.2386812829426
 20
147.3086364655766
 30
0.0
 10
103.2169775127294
 20
147.3041969912102
 30
0.0
 10
103.1945607915727
 20
147.2996116837748
 30
0.0
 10
103.1719590771631
 20
147.295938679512
 30
0.0
 10
103.1492386577208
 20
147.29347167236
 30
0.0
 10
103.1256838375495
 20
147.2909140650938
 30
0.0
 10
103.1020014334327
 20
147.2896526612508
 30
0.0
 10
103.0783190294327
 20
147.288391258251
 30
0.0
  0
ENDBLK
  5
54
330
51
100
AcDbEntity
  8
0
100
AcDbBlockEnd
  0
BLOCK
  5
58
330
56
100
AcDbEntity
  8
0
100
AcDbBlockBegin
  2
block 5
 70
     0
 10
0.0
 20
0.0
 30
0.0
  3
block 5
  1

  0
SPLINE
  5
5A
330
56
100
AcDbEntity
  8
0
 62
     7
420
 16777215
370
     5
100
AcDbSpline
210
0.0
220
0.0
230
1.0
 70
    11
 71
     3
 72
   182
 73
   178
 74
     0
 42
0.0000000001
 43
0.0000000001
 12
1.0
 22
0.0
 32
0.0
 13
1.0
 23
0.0
 33
0.0
 40
0.0
 40
0.0
 40
0.0
 40
0.0
 40
1.0
 40
1.0
 40
1.0
 40
2.0
 40
2.0
 40
2.0
 40
3.0
 40
3.0
 40
3.0
 40
4.0
 40
4.0
 40
4.0
 40
5.0
 40
5.0
 40
5.0
 40
6.0
 40
6.0
 40
6.0
 40
7.0
 40
7.0
 40
7.0
 40
8.0
 40
8.0
 40
8.0
 40
9.0
 40
9.0
 40
9.0
 40
10.0
 40
10.0
 40
10.0
 40
11.0
 40
11.0
 40
11.0
 40
12.0
 40
12.0
 40
12.0
 40
13.0
 40
13.0
 40
13.0
 40
14.0
 40
14.0
 40
14.0
 40
15.0
 40
15.0
 40
15.0
 40
16.0
 40
16.0
 40
16.0
 40
17.0
 40
17.0
 40
17.0
 40
18.0
 40
18.0
 40
18.0
 40
19.0
 40
19.0
 40
19.0
 40
20.0
 40
20.0
 40
20.0
 40
21.0
 40
21.0
 40
21.0
 40
22.0
 40
22.0
 40
22.0
 40
23.0
 40
23.0
 40
23.0
 40
24.0
 40
24.0
 40
24.0
 40
25.0
 40
25.0
 40
25.0
 40
26.0
 40
26.0
 40
26.0
 40
27.0
 40
27.0
 40
27.0
 40
28.0
 40
28.0
 40
28.0
 40
29.0
 40
29.0
 40
29.0
 40
30.0
 40
30.0
 40
30.0
 40
31.0
 40
31.0
 40
31.0
 40
32.0
 40
32.0
 40
32.0
 40
33.0
 40
33.0
 40
33.0
 40
34.0
 40
34.0
 40
34.0
 40
35.0
 40
35.0
 40
35.0
 40
36.0
 40
36.0
 40
36.0
 40
37.0
 40
37.0
 40
37.0
 40
38.0
 40
38.0
 40
38.0
 40
39.0
 40
39.0
 40
39.0
 40
40.0
 40
40.0
 40
40.0
 40
41.0
 40
41.0
 40
41.0
 40
42.0
 40
42.0
 40
42.0
 40
43.0
 40
43.0
 40
43.0
 40
44.0
 40
44.0
 40
44.0
 40
45.0
 40
45.0
 40
45.0
 40
46.0
 40
46.0
 40
46.0
 40
47.0
 40
47.0
 40
47.0
 40
48.0
 40
48.0
 40
48.0
 40
49.0
 40
49.0
 40
49.0
 40
50.0
 40
50.0
 40
50.0
 40
51.0
 40
51.0
 40
51.0
 40
52.0
 40
52.0
 40
52.0
 40
53.0
 40
53.0
 40
53.0
 40
54.0
 40
54.0
 40
54.0
 40
55.0
 40
55.0
 40
55.0
 40
56.0
 40
56.0
 40
56.0
 40
57.0
 40
57.0
 40
57.0
 40
58.0
 40
58.0
 40
58.0
 40
59.0
 40
59.0
 40
59.0
 40
59.0
 10
105.1564091045429
 20
149.7378157321582
 30
0.0
 10
105.1564091045429
 20
149.7378157321582
 30
0.0
 10
105.8271814424441
 20
147.5367670641278
 30
0.0
 10
105.8271814424441
 20
147.5367670641278
 30
0.0
 10
105.8303994584439
 20
147.525486754128
 30
0.0
 10
105.8336174738815
 20
147.5142064437137
 30
0.0
 10
105.8367777801034
 20
147.5028976359841
 30
0.0
 10
105.8390761892423
 20
147.4946730320369
 30
0.0
 10
105.8413440743756
 20
147.486433355067
 30
0.0
 10
105.8429871756298
 20
147.4780600557085
 30
0.0
 10
105.8443039112719
 20
147.4713499265023
 30
0.0
 10
105.8452194123435
 20
147.4645539853465
 30
0.0
 10
105.8458096280114
 20
147.4577383985848
 30
0.0
 10
105.8464113482137
 20
147.4507899618246
 30
0.0
 10
105.8466749784401
 20
147.4438211061264
 30
0.0
 10
105.8469386084394
 20
147.4368522511265
 30
0.0
 10
105.8462319804392
 20
147.4262536451268
 30
0.0
 10
105.8455253521477
 20
147.4156550385932
 30
0.0
 10
105.8435516654601
 20
147.4052407847923
 30
0.0
 10
105.8416785405417
 20
147.395357150061
 30
0.0
 10
105.8386641842834
 20
147.3856395606518
 30
0.0
 10
105.8345198181822
 20
147.3764517707908
 30
0.0
 10
105.8305571328887
 20
147.3676667554523
 30
0.0
 10
105.8255613409206
 20
147.3593661070901
 30
0.0
 10
105.8198430662593
 20
147.3516141899069
 30
0.0
 10
105.8139799475783
 20
147.3436659164959
 30
0.0
 10
105.8073572816484
 20
147.336294525081
 30
0.0
 10
105.8000859000735
 20
147.3295990619706
 30
0.0
 10
105.7926482715058
 20
147.3227505192018
 30
0.0
 10
105.7845319247739
 20
147.3166091658185
 30
0.0
 10
105.7758128097328
 20
147.311535366949
 30
0.0
 10
105.7670755045683
 20
147.306450982942
 30
0.0
 10
105.7577329134384
 20
147.3024386124319
 30
0.0
 10
105.7481527767144
 20
147.2991165763505
 30
0.0
 10
105.7380301281885
 20
147.2956064172992
 30
0.0
 10
105.7276422684496
 20
147.2928669920975
 30
0.0
 10
105.7171058009233
 20
147.291213709833
 30
0.0
 10
105.7057430480779
 20
147.2894307747341
 30
0.0
 10
105.6942074654337
 20
147.2889110161345
 30
0.0
 10
105.6826718824334
 20
147.2883912581342
 30
0.0
 10
105.6728770084334
 20
147.2885161491345
 30
0.0
 10
105.6630821351592
 20
147.2886410401437
 30
0.0
 10
105.6533183778335
 20
147.2895202386302
 30
0.0
 10
105.644558039278
 20
147.2903090821201
 30
0.0
 10
105.6358227497499
 20
147.2917051598359
 30
0.0
 10
105.6273518164376
 20
147.2940361623352
 30
0.0
 10
105.6191976663407
 20
147.2962799935122
 30
0.0
 10
105.61128847017
 20
147.2993901311443
 30
0.0
 10
105.6036432168486
 20
147.3030680101649
 30
0.0
 10
105.5963208091205
 20
147.3065905788274
 30
0.0
 10
105.5892405232274
 20
147.3106339518497
 30
0.0
 10
105.5827570692902
 20
147.3154868003797
 30
0.0
 10
105.5761505721496
 20
147.3204317464299
 30
0.0
 10
105.570163775318
 20
147.3262171840386
 30
0.0
 10
105.5646933743726
 20
147.3324215145254
 30
0.0
 10
105.55908122607
 20
147.3387866097275
 30
0.0
 10
105.5540125817558
 20
147.3455925875081
 30
0.0
 10
105.5494521316954
 20
147.3527431712923
 30
0.0
 10
105.5444205601084
 20
147.3606324527703
 30
0.0
 10
105.5400076052409
 20
147.3689412176115
 30
0.0
 10
105.5364688507225
 20
147.3775807520504
 30
0.0
 10
105.5326673356326
 20
147.3868617915701
 30
0.0
 10
105.5298746634382
 20
147.396524545141
 30
0.0
 10
105.5270819914383
 20
147.4061872991405
 30
0.0
 10
105.5270819914383
 20
147.4061872991405
 30
0.0
 10
105.4295364954526
 20
147.7219193871459
 30
0.0
 10
105.4295364954526
 20
147.7219193871459
 30
0.0
 10
105.4295364954526
 20
147.7219193871459
 30
0.0
 10
104.555528845453
 20
147.7219193871844
 30
0.0
 10
104.555528845453
 20
147.7219193871844
 30
0.0
 10
104.555528845453
 20
147.7219193871844
 30
0.0
 10
104.4537761314375
 20
147.3866125991896
 30
0.0
 10
104.4537761314375
 20
147.3866125991896
 30
0.0
 10
104.4473191464371
 20
147.37123366419
 30
0.0
 10
104.4408621617158
 20
147.3558547283049
 30
0.0
 10
104.4311965126436
 20
147.3425823429589
 30
0.0
 10
104.4224584094763
 20
147.3305836172068
 30
0.0
 10
104.4110979205458
 20
147.3203065386998
 30
0.0
 10
104.3984560649323
 20
147.3120998578779
 30
0.0
 10
104.3850920274586
 20
147.3034243601195
 30
0.0
 10
104.3702960423208
 20
147.2970625647302
 30
0.0
 10
104.3549902988873
 20
147.2934716723998
 30
0.0
 10
104.3375557156217
 20
147.2893813313072
 30
0.0
 10
104.319459710433
 20
147.2888862941952
 30
0.0
 10
104.3013637044332
 20
147.2883912581958
 30
0.0
 10
104.290401376433
 20
147.2889487741975
 30
0.0
 10
104.2794390489649
 20
147.2895062901581
 30
0.0
 10
104.2686232572301
 20
147.2912137104196
 30
0.0
 10
104.25825890124
 20
147.2928498653901
 30
0.0
 10
104.248029103878
 20
147.2955419371838
 30
0.0
 10
104.238140772049
 20
147.2991165771128
 30
0.0
 10
104.2287813371798
 20
147.3025000203644
 30
0.0
 10
104.2197278168108
 20
147.3066741448536
 30
0.0
 10
104.2110452292644
 20
147.3115353675009
 30
0.0
 10
104.2022882181931
 20
147.316438258525
 30
0.0
 10
104.193908526162
 20
147.3220400772275
 30
0.0
 10
104.1862076490601
 20
147.328470081558
 30
0.0
 10
104.1787425481258
 20
147.3347032197718
 30
0.0
 10
104.1719153321604
 20
147.3417146071667
 30
0.0
 10
104.1658859923285
 20
147.3493562285389
 30
0.0
 10
104.1599558841828
 20
147.3568720830763
 30
0.0
 10
104.1547976051866
 20
147.3649975973504
 30
0.0
 10
104.1506447497373
 20
147.3736293185735
 30
0.0
 10
104.1466612691751
 20
147.3819089936417
 30
0.0
 10
104.1436028718854
 20
147.3906544262306
 30
0.0
 10
104.1416129019981
 20
147.3995958800702
 30
0.0
 10
104.1394690625119
 20
147.4092287101599
 30
0.0
 10
104.1385652654385
 20
147.4190890472028
 30
0.0
 10
104.1376614684397
 20
147.4289493852045
 30
0.0
 10
104.13784893444
 20
147.4355554832045
 30
0.0
 10
104.1380363999829
 20
147.4421615810351
 30
0.0
 10
104.1387904494099
 20
147.4487065510708
 30
0.0
 10
104.1396889566718
 20
147.4565053808186
 30
0.0
 10
104.141391930077
 20
147.4642174180466
 30
0.0
 10
104.1433063732926
 20
147.4718506603951
 30
0.0
 10
104.1445846785296
 20
147.4769475019135
 30
0.0
 10
104.1459572665806
 20
147.4820092131084
 30
0.0
 10
104.1472578064076
 20
147.4870919027913
 30
0.0
 10
104.1489880244302
 20
147.4938538343421
 30
0.0
 10
104.1505907226516
 20
147.5006528961997
 30
0.0
 10
104.152338220754
 20
147.507413559983
 30
0.0
 10
104.154589310674
 20
147.5161225034007
 30
0.0
 10
104.1570806821663
 20
147.5247677288797
 30
0.0
 10
104.1596765971576
 20
147.5333801212461
 30
0.0
 10
104.1627684234285
 20
147.5436377841758
 30
0.0
 10
104.1660085514451
 20
147.5538488712032
 30
0.0
 10
104.169248679446
 20
147.5640599582024
 30
0.0
 10
104.169248679446
 20
147.5640599582024
 30
0.0
 10
104.8325492355443
 20
149.7732783021724
 30
0.0
 10
104.8325492355443
 20
149.7732783021724
 30
0.0
 10
104.8354434765454
 20
149.7824334491723
 30
0.0
 10
104.8383377165339
 20
149.7915885955048
 30
0.0
 10
104.8421455737747
 20
149.8003738448921
 30
0.0
 10
104.845726385005
 20
149.8086352679644
 30
0.0
 10
104.8501151115287
 20
149.8165695897269
 30
0.0
 10
104.8551288548388
 20
149.8240824446653
 30
0.0
 10
104.8596747115715
 20
149.8308941939092
 30
0.0
 10
104.8647343740768
 20
149.8373594691186
 30
0.0
 10
104.8703700974832
 20
149.8432751202489
 30
0.0
 10
104.875889514484
 20
149.849068688007
 30
0.0
 10
104.8819614609888
 20
149.8543350831709
 30
0.0
 10
104.8884337921795
 20
149.859080853434
 30
0.0
 10
104.8949861744647
 20
149.8638853203386
 30
0.0
 10
104.901948906762
 20
149.8681562043136
 30
0.0
 10
104.9093199394215
 20
149.871499643566
 30
0.0
 10
104.9169008026213
 20
149.8749382602114
 30
0.0
 10
104.9249135431584
 20
149.8773958775889
 30
0.0
 10
104.9330285389758
 20
149.8794025103684
 30
0.0
 10
104.9415868588761
 20
149.8815187659574
 30
0.0
 10
104.9502589116931
 20
149.8831334162174
 30
0.0
 10
104.9589951008527
 20
149.8839184339676
 30
0.0
 10
104.9687265476907
 20
149.8847928837262
 30
0.0
 10
104.97853757655
 20
149.8846379041658
 30
0.0
 10
104.9883486055498
 20
149.8844829241655
 30
0.0
 10
104.9990956415496
 20
149.8844508381653
 30
0.0
 10
105.0098426781623
 20
149.8844187512247
 30
0.0
 10
105.0205245622591
 20
149.8833539434901
 30
0.0
 10
105.0302580417798
 20
149.8823836760555
 30
0.0
 10
105.0399374244846
 20
149.8805559297285
 30
0.0
 10
105.0493135760244
 20
149.8777090387799
 30
0.0
 10
105.0577235023121
 20
149.8751555238406
 30
0.0
 10
105.0658894740197
 20
149.8717820898842
 30
0.0
 10
105.0735866660827
 20
149.867548210563
 30
0.0
 10
105.0808237922158
 20
149.8635673928269
 30
0.0
 10
105.0876465024759
 20
149.8588259144644
 30
0.0
 10
105.0939083231698
 20
149.8534359488358
 30
0.0
 10
105.1005789277129
 20
149.8476941157539
 30
0.0
 10
105.1066130204036
 20
149.8412163627034
 30
0.0
 10
105.1119720184102
 20
149.8342432730847
 30
0.0
 10
105.1182134039415
 20
149.8261220271741
 30
0.0
 10
105.1235390761844
 20
149.8173288958408
 30
0.0
 10
105.1283422420384
 20
149.808276711399
 30
0.0
 10
105.1338760202598
 20
149.7978475938889
 30
0.0
 10
105.138716245029
 20
149.7870746199551
 30
0.0
 10
105.1430189937239
 20
149.7761007544754
 30
0.0
 10
105.147953656837
 20
149.7635152346052
 30
0.0
 10
105.1521813805436
 20
149.7506654831581
 30
0.0
 10
105.1564091045429
 20
149.7378157321582
 30
0.0
  0
ENDBLK
  5
59
330
56
100
AcDbEntity
  8
0
100
AcDbBlockEnd
  0
BLOCK
  5
5D
330
5B
100
AcDbEntity
  8
0
100
AcDbBlockBegin
  2
block 6
 70
     0
 10
0.0
 20
0.0
 30
0.0
  3
block 6
  1

  0
POLYLINE
  5
5F
330
5B
100
AcDbEntity
  8
0
 62
     7
420
 16777215
370
     5
100
AcDb2dPolyline
 66
     1
 10
0.0
 20
0.0
 30
0.0
  0
VERTEX
  5
60
330
5F
100
AcDbEntity
  8
0
 62
     7
420
 16777215
370
     5
100
AcDbVertex
100
AcDb2dVertex
 10
104.6569761624671
 20
148.0425505241808
 30
0.0
  0
VERTEX
  5
61
330
5F
100
AcDbEntity
  8
0
 62
     7
420
 16777215
370
     5
100
AcDbVertex
100
AcDb2dVertex
 10
105.3280891784666
 20
148.04255052415
 30
0.0
  0
VERTEX
  5
62
330
5F
100
AcDbEntity
  8
0
 62
     7
420
 16777215
370
     5
100
AcDbVertex
100
AcDb2dVertex
 10
104.9925326705179
 20
149.1661103691656
 30
0.0
  0
VERTEX
  5
63
330
5F
100
AcDbEntity
  8
0
 62
     7
420
 16777215
370
     5
100
AcDbVertex
100
AcDb2dVertex
 10
104.6569761624671
 20
148.0425505241808
 30
0.0
  0
SEQEND
  5
65
330
5F
100
AcDbEntity
  8
0
 62
     7
420
 16777215
370
     5
  0
HATCH
  5
64
330
5B
100
AcDbEntity
  8
0
 62
     7
420
 16777215
100
AcDbHatch
 10
0.0
 20
0.0
 30
0.0
210
0.0
220
0.0
230
1.0
  2
SOLID
 70
     1
 71
     0
 91
        1
 92
        1
 93
        3
 72
     1
 10
104.6569761624671
 20
148.0425505241808
 11
105.3280891784666
 21
148.04255052415
 72
     1
 10
105.3280891784666
 20
148.04255052415
 11
104.9925326705179
 21
149.1661103691656
 72
     1
 10
104.9925326705179
 20
149.1661103691656
 11
104.6569761624671
 21
148.0425505241808
 97
        0
 75
     2
 76
     1
 98
        0
  0
ENDBLK
  5
5E
330
5B
100
AcDbEntity
  8
0
100
AcDbBlockEnd
  0
ENDSEC
  0
SECTION
  2
ENTITIES
  0
INSERT
  5
41
330
1F
100
AcDbEntity
  8
0
100
AcDbBlockReference
  2
block 2
 10
0.0
 20
0.0
 30
0.0
  0
INSERT
  5
4D
330
1F
100
AcDbEntity
  8
0
100
AcDbBlockReference
  2
block 3
 10
0.0
 20
0.0
 30
0.0
  0
INSERT
  5
52
330
1F
100
AcDbEntity
  8
0
100
AcDbBlockReference
  2
block 4
 10
0.0
 20
0.0
 30
0.0
  0
INSERT
  5
57
330
1F
100
AcDbEntity
  8
0
100
AcDbBlockReference
  2
block 5
 10
0.0
 20
0.0
 30
0.0
  0
INSERT
  5
5C
330
1F
100
AcDbEntity
  8
0
100
AcDbBlockReference
  2
block 6
 10
0.0
 20
0.0
 30
0.0
  0
ENDSEC
  0
SECTION
  2
OBJECTS
  0
DICTIONARY
  5
C
330
0
100
AcDbDictionary
281
     1
  3
ACAD_GROUP
350
D
  3
ACAD_LAYOUT
350
1A
  3
ACAD_MATERIAL
350
3B
  3
ACAD_MLEADERSTYLE
350
67
  3
ACAD_MLINESTYLE
350
17
  3
ACAD_PLOTSETTINGS
350
19
  3
ACAD_PLOTSTYLENAME
350
E
  3
ACAD_TABLESTYLE
350
66
  3
ACAD_VISUALSTYLE
350
2A
  0
SUN
  5
3F
330
29
100
AcDbSun
 90
        1
290
     0
 63
     7
421
 16777215
 40
1.0
291
     1
 91
  2455826
 92
 54000000
292
     0
 70
     2
 71
   256
280
     1
  0
DICTIONARY
  5
D
102
{ACAD_REACTORS
330
C
102
}
330
C
100
AcDbDictionary
281
     1
  0
DICTIONARY
  5
1A
102
{ACAD_REACTORS
330
C
102
}
330
C
100
AcDbDictionary
281
     1
  3
Layout1
350
1E
  3
Layout2
350
26
  3
Model
350
22
  0
DICTIONARY
  5
3B
102
{ACAD_REACTORS
330
C
102
}
330
C
100
AcDbDictionary
281
     1
  3
ByBlock
350
3D
  3
ByLayer
350
3C
  3
Global
350
3E
  0
DICTIONARY
  5
67
102
{ACAD_REACTORS
330
C
102
}
330
C
100
AcDbDictionary
281
     1
  0
DICTIONARY
  5
17
102
{ACAD_REACTORS
330
C
102
}
330
C
100
AcDbDictionary
281
     1
  3
Standard
350
18
  0
DICTIONARY
  5
19
102
{ACAD_REACTORS
330
C
102
}
330
C
100
AcDbDictionary
281
     1
  0
ACDBDICTIONARYWDFLT
  5
E
102
{ACAD_REACTORS
330
C
102
}
330
C
100
AcDbDictionary
281
     1
  3
Normal
350
F
100
AcDbDictionaryWithDefault
340
F
  0
DICTIONARY
  5
66
102
{ACAD_REACTORS
330
C
102
}
330
C
100
AcDbDictionary
281
     1
  0
DICTIONARY
  5
2A
102
{ACAD_REACTORS
330
C
102
}
330
C
100
AcDbDictionary
281
     1
  3
2dWireframe
350
2F
  3
3D Hidden
350
31
  3
3dWireframe
350
30
  3
Basic
350
32
  3
Brighten
350
36
  3
ColorChange
350
3A
  3
Conceptual
350
34
  3
Dim
350
35
  3
Facepattern
350
39
  3
Flat
350
2B
  3
FlatWithEdges
350
2C
  3
Gouraud
350
2D
  3
GouraudWithEdges
350
2E
  3
Linepattern
350
38
  3
Realistic
350
33
  3
Thicken
350
37
  0
LAYOUT
  5
1E
102
{ACAD_REACTORS
330
1A
102
}
330
1A
100
AcDbPlotSettings
  1

  2
none_device
  4

  6

 40
0.0
 41
0.0
 42
0.0
 43
0.0
 44
0.0
 45
0.0
 46
0.0
 47
0.0
 48
0.0
 49
0.0
140
0.0
141
0.0
142
1.0
143
1.0
 70
   688
 72
     0
 73
     0
 74
     5
  7

 75
    16
 76
     0
 77
     2
 78
   300
147
1.0
148
0.0
149
0.0
100
AcDbLayout
  1
Layout1
 70
     1
 71
     1
 10
0.0
 20
0.0
 11
12.0
 21
9.0
 12
0.0
 22
0.0
 32
0.0
 14
1.000000000000000E+20
 24
1.000000000000000E+20
 34
1.000000000000000E+20
 15
-1.000000000000000E+20
 25
-1.000000000000000E+20
 35
-1.000000000000000E+20
146
0.0
 13
0.0
 23
0.0
 33
0.0
 16
1.0
 26
0.0
 36
0.0
 17
0.0
 27
1.0
 37
0.0
 76
     0
330
1B
  0
LAYOUT
  5
26
102
{ACAD_REACTORS
330
1A
102
}
330
1A
100
AcDbPlotSettings
  1

  2
none_device
  4

  6

 40
0.0
 41
0.0
 42
0.0
 43
0.0
 44
0.0
 45
0.0
 46
0.0
 47
0.0
 48
0.0
 49
0.0
140
0.0
141
0.0
142
1.0
143
1.0
 70
   688
 72
     0
 73
     0
 74
     5
  7

 75
    16
 76
     0
 77
     2
 78
   300
147
1.0
148
0.0
149
0.0
100
AcDbLayout
  1
Layout2
 70
     1
 71
     2
 10
0.0
 20
0.0
 11
0.0
 21
0.0
 12
0.0
 22
0.0
 32
0.0
 14
0.0
 24
0.0
 34
0.0
 15
0.0
 25
0.0
 35
0.0
146
0.0
 13
0.0
 23
0.0
 33
0.0
 16
1.0
 26
0.0
 36
0.0
 17
0.0
 27
1.0
 37
0.0
 76
     0
330
23
  0
LAYOUT
  5
22
102
{ACAD_REACTORS
330
1A
102
}
330
1A
100
AcDbPlotSettings
  1

  2
none_device
  4

  6

 40
0.0
 41
0.0
 42
0.0
 43
0.0
 44
0.0
 45
0.0
 46
0.0
 47
0.0
 48
0.0
 49
0.0
140
0.0
141
0.0
142
1.0
143
1.0
 70
  1712
 72
     0
 73
     0
 74
     0
  7

 75
     0
 76
     0
 77
     2
 78
   300
147
1.0
148
0.0
149
0.0
100
AcDbLayout
  1
Model
 70
     1
 71
     0
 10
0.0
 20
0.0
 11
12.0
 21
9.0
 12
0.0
 22
0.0
 32
0.0
 14
1.000000000000000E+20
 24
1.000000000000000E+20
 34
1.000000000000000E+20
 15
-1.000000000000000E+20
 25
-1.000000000000000E+20
 35
-1.000000000000000E+20
146
0.0
 13
0.0
 23
0.0
 33
0.0
 16
1.0
 26
0.0
 36
0.0
 17
0.0
 27
1.0
 37
0.0
 76
     0
330
1F
331
29
  0
MATERIAL
  5
3D
102
{ACAD_REACTORS
330
3B
102
}
330
3B
100
AcDbMaterial
  1
ByBlock
 72
     1
 94
      127
  0
MATERIAL
  5
3C
102
{ACAD_REACTORS
330
3B
102
}
330
3B
100
AcDbMaterial
  1
ByLayer
 72
     1
 94
      127
  0
MATERIAL
  5
3E
102
{ACAD_REACTORS
330
3B
102
}
330
3B
100
AcDbMaterial
  1
Global
 72
     1
 94
      127
  0
MLINESTYLE
  5
18
102
{ACAD_REACTORS
330
17
102
}
330
17
100
AcDbMlineStyle
  2
Standard
 70
     0
  3

 62
   256
 51
90.0
 52
90.0
 71
     2
 49
0.5
 62
   256
  6
BYLAYER
 49
-0.5
 62
   256
  6
BYLAYER
  0
ACDBPLACEHOLDER
  5
F
102
{ACAD_REACTORS
330
E
102
}
330
E
  0
VISUALSTYLE
  5
2F
102
{ACAD_REACTORS
330
2A
102
}
330
2A
100
AcDbVisualStyle
  2
2dWireframe
 70
     4
177
     2
291
     0
 71
     0
176
     1
 72
     2
176
     1
 73
     0
176
     1
 90
        0
176
     1
 40
-0.6
176
     1
 41
-30.0
176
     1
 62
     5
 63
     7
421
 16777215
176
     1
 74
     1
176
     1
 91
        4
176
     1
 64
     7
176
     1
 65
   257
176
     1
 75
     1
176
     1
175
     1
176
     1
 42
1.0
176
     1
 92
        0
176
     1
 66
   257
176
     1
 43
1.0
176
     1
 76
     1
176
     1
 77
     6
176
     1
 78
     2
176
     1
 67
     7
176
     1
 79
     5
176
     1
170
     0
176
     1
171
     0
176
     1
290
     0
176
     1
 93
        1
176
     1
 44
0.0
176
     1
173
     0
176
     1
  0
VISUALSTYLE
  5
31
102
{ACAD_REACTORS
330
2A
102
}
330
2A
100
AcDbVisualStyle
  2
3D Hidden
 70
     6
177
     2
291
     0
 71
     1
176
     1
 72
     2
176
     1
 73
     2
176
     1
 90
        0
176
     1
 40
-0.6
176
     1
 41
-30.0
176
     1
 62
     5
 63
     7
421
 16777215
176
     1
 74
     2
176
     1
 91
        2
176
     1
 64
     7
176
     1
 65
   257
176
     1
 75
     2
176
     1
175
     1
176
     1
 42
40.0
176
     1
 92
        0
176
     1
 66
   257
176
     1
 43
1.0
176
     1
 76
     1
176
     1
 77
     6
176
     1
 78
     2
176
     1
 67
     7
176
     1
 79
     3
176
     1
170
     0
176
     1
171
     0
176
     1
290
     0
176
     1
 93
        1
176
     1
 44
0.0
176
     1
173
     0
176
     1
  0
VISUALSTYLE
  5
30
102
{ACAD_REACTORS
330
2A
102
}
330
2A
100
AcDbVisualStyle
  2
3dWireframe
 70
     5
177
     2
291
     0
 71
     0
176
     1
 72
     2
176
     1
 73
     0
176
     1
 90
        0
176
     1
 40
-0.6
176
     1
 41
-30.0
176
     1
 62
     5
 63
     7
421
 16777215
176
     1
 74
     1
176
     1
 91
        4
176
     1
 64
     7
176
     1
 65
   257
176
     1
 75
     1
176
     1
175
     1
176
     1
 42
1.0
176
     1
 92
        0
176
     1
 66
   257
176
     1
 43
1.0
176
     1
 76
     1
176
     1
 77
     6
176
     1
 78
     2
176
     1
 67
     7
176
     1
 79
     5
176
     1
170
     0
176
     1
171
     0
176
     1
290
     0
176
     1
 93
        1
176
     1
 44
0.0
176
     1
173
     0
176
     1
  0
VISUALSTYLE
  5
32
102
{ACAD_REACTORS
330
2A
102
}
330
2A
100
AcDbVisualStyle
  2
Basic
 70
     7
177
     2
291
     1
 71
     1
176
     1
 72
     0
176
     1
 73
     1
176
     1
 90
        0
176
     1
 40
-0.6
176
     1
 41
-30.0
176
     1
 62
     5
 63
     7
421
 16777215
176
     1
 74
     0
176
     1
 91
        4
176
     1
 64
     7
176
     1
 65
   257
176
     1
 75
     1
176
     1
175
     1
176
     1
 42
1.0
176
     1
 92
        8
176
     1
 66
     7
176
     1
 43
1.0
176
     1
 76
     1
176
     1
 77
     6
176
     1
 78
     2
176
     1
 67
     7
176
     1
 79
     5
176
     1
170
     0
176
     1
171
     0
176
     1
290
     0
176
     1
 93
        1
176
     1
 44
0.0
176
     1
173
     0
176
     1
  0
VISUALSTYLE
  5
36
102
{ACAD_REACTORS
330
2A
102
}
330
2A
100
AcDbVisualStyle
  2
Brighten
 70
    12
177
     2
291
     1
 71
     2
176
     1
 72
     2
176
     1
 73
     0
176
     1
 90
        0
176
     1
 40
-0.6
176
     1
 41
-30.0
176
     1
 62
     5
 63
     7
421
 16777215
176
     1
 74
     1
176
     1
 91
        4
176
     1
 64
     7
176
     1
 65
   257
176
     1
 75
     1
176
     1
175
     1
176
     1
 42
1.0
176
     1
 92
        8
176
     1
 66
     7
176
     1
 43
1.0
176
     1
 76
     1
176
     1
 77
     6
176
     1
 78
     2
176
     1
 67
     7
176
     1
 79
     5
176
     1
170
     0
176
     1
171
     0
176
     1
290
     0
176
     1
 93
        1
176
     1
 44
50.0
176
     1
173
     0
176
     1
  0
VISUALSTYLE
  5
3A
102
{ACAD_REACTORS
330
2A
102
}
330
2A
100
AcDbVisualStyle
  2
ColorChange
 70
    16
177
     2
291
     1
 71
     2
176
     1
 72
     2
176
     1
 73
     3
176
     1
 90
        0
176
     1
 40
-0.6
176
     1
 41
-30.0
176
     1
 62
     5
 63
     8
421
  8421504
176
     1
 74
     1
176
     1
 91
        4
176
     1
 64
     7
176
     1
 65
   257
176
     1
 75
     1
176
     1
175
     1
176
     1
 42
1.0
176
     1
 92
        8
176
     1
 66
     8
424
  8421504
176
     1
 43
1.0
176
     1
 76
     1
176
     1
 77
     6
176
     1
 78
     2
176
     1
 67
     7
176
     1
 79
     5
176
     1
170
     0
176
     1
171
     0
176
     1
290
     0
176
     1
 93
        1
176
     1
 44
0.0
176
     1
173
     0
176
     1
  0
VISUALSTYLE
  5
34
102
{ACAD_REACTORS
330
2A
102
}
330
2A
100
AcDbVisualStyle
  2
Conceptual
 70
     9
177
     2
291
     0
 71
     3
176
     1
 72
     2
176
     1
 73
     0
176
     1
 90
        0
176
     1
 40
-0.6
176
     1
 41
-30.0
176
     1
 62
     5
 63
     7
421
 16777215
176
     1
 74
     2
176
     1
 91
        2
176
     1
 64
     7
176
     1
 65
   257
176
     1
 75
     1
176
     1
175
     1
176
     1
 42
40.0
176
     1
 92
        8
176
     1
 66
     7
176
     1
 43
1.0
176
     1
 76
     1
176
     1
 77
     6
176
     1
 78
     2
176
     1
 67
     7
176
     1
 79
     3
176
     1
170
     0
176
     1
171
     0
176
     1
290
     0
176
     1
 93
        1
176
     1
 44
0.0
176
     1
173
     0
176
     1
  0
VISUALSTYLE
  5
35
102
{ACAD_REACTORS
330
2A
102
}
330
2A
100
AcDbVisualStyle
  2
Dim
 70
    11
177
     2
291
     1
 71
     2
176
     1
 72
     2
176
     1
 73
     0
176
     1
 90
        0
176
     1
 40
-0.6
176
     1
 41
-30.0
176
     1
 62
     5
 63
     7
421
 16777215
176
     1
 74
     1
176
     1
 91
        4
176
     1
 64
     7
176
     1
 65
   257
176
     1
 75
     1
176
     1
175
     1
176
     1
 42
1.0
176
     1
 92
        8
176
     1
 66
     7
176
     1
 43
1.0
176
     1
 76
     1
176
     1
 77
     6
176
     1
 78
     2
176
     1
 67
     7
176
     1
 79
     5
176
     1
170
     0
176
     1
171
     0
176
     1
290
     0
176
     1
 93
        1
176
     1
 44
-50.0
176
     1
173
     0
176
     1
  0
VISUALSTYLE
  5
39
102
{ACAD_REACTORS
330
2A
102
}
330
2A
100
AcDbVisualStyle
  2
Facepattern
 70
    15
177
     2
291
     1
 71
     2
176
     1
 72
     2
176
     1
 73
     0
176
     1
 90
        0
176
     1
 40
-0.6
176
     1
 41
-30.0
176
     1
 62
     5
 63
     7
421
 16777215
176
     1
 74
     1
176
     1
 91
        4
176
     1
 64
     7
176
     1
 65
   257
176
     1
 75
     1
176
     1
175
     1
176
     1
 42
1.0
176
     1
 92
        8
176
     1
 66
     7
176
     1
 43
1.0
176
     1
 76
     1
176
     1
 77
     6
176
     1
 78
     2
176
     1
 67
     7
176
     1
 79
     5
176
     1
170
     0
176
     1
171
     0
176
     1
290
     0
176
     1
 93
        1
176
     1
 44
0.0
176
     1
173
     0
176
     1
  0
VISUALSTYLE
  5
2B
102
{ACAD_REACTORS
330
2A
102
}
330
2A
100
AcDbVisualStyle
  2
Flat
 70
     0
177
     2
291
     1
 71
     2
176
     1
 72
     1
176
     1
 73
     1
176
     1
 90
        2
176
     1
 40
-0.6
176
     1
 41
30.0
176
     1
 62
     5
 63
     7
421
 16777215
176
     1
 74
     0
176
     1
 91
        4
176
     1
 64
     7
176
     1
 65
   257
176
     1
 75
     1
176
     1
175
     1
176
     1
 42
1.0
176
     1
 92
        8
176
     1
 66
     7
176
     1
 43
1.0
176
     1
 76
     1
176
     1
 77
     6
176
     1
 78
     2
176
     1
 67
     7
176
     1
 79
     5
176
     1
170
     0
176
     1
171
     0
176
     1
290
     0
176
     1
 93
       13
176
     1
 44
0.0
176
     1
173
     0
176
     1
  0
VISUALSTYLE
  5
2C
102
{ACAD_REACTORS
330
2A
102
}
330
2A
100
AcDbVisualStyle
  2
FlatWithEdges
 70
     1
177
     2
291
     1
 71
     2
176
     1
 72
     1
176
     1
 73
     1
176
     1
 90
        2
176
     1
 40
-0.6
176
     1
 41
30.0
176
     1
 62
     5
 63
     7
421
 16777215
176
     1
 74
     1
176
     1
 91
        4
176
     1
 64
     7
176
     1
 65
   257
176
     1
 75
     1
176
     1
175
     1
176
     1
 42
1.0
176
     1
 92
        0
176
     1
 66
   257
176
     1
 43
1.0
176
     1
 76
     1
176
     1
 77
     6
176
     1
 78
     2
176
     1
 67
     7
176
     1
 79
     5
176
     1
170
     0
176
     1
171
     0
176
     1
290
     0
176
     1
 93
       13
176
     1
 44
0.0
176
     1
173
     0
176
     1
  0
VISUALSTYLE
  5
2D
102
{ACAD_REACTORS
330
2A
102
}
330
2A
100
AcDbVisualStyle
  2
Gouraud
 70
     2
177
     2
291
     1
 71
     2
176
     1
 72
     2
176
     1
 73
     1
176
     1
 90
        2
176
     1
 40
-0.6
176
     1
 41
30.0
176
     1
 62
     5
 63
     7
421
 16777215
176
     1
 74
     0
176
     1
 91
        4
176
     1
 64
     7
176
     1
 65
   257
176
     1
 75
     1
176
     1
175
     1
176
     1
 42
1.0
176
     1
 92
        0
176
     1
 66
     7
176
     1
 43
1.0
176
     1
 76
     1
176
     1
 77
     6
176
     1
 78
     2
176
     1
 67
     7
176
     1
 79
     5
176
     1
170
     0
176
     1
171
     0
176
     1
290
     0
176
     1
 93
       13
176
     1
 44
0.0
176
     1
173
     0
176
     1
  0
VISUALSTYLE
  5
2E
102
{ACAD_REACTORS
330
2A
102
}
330
2A
100
AcDbVisualStyle
  2
GouraudWithEdges
 70
     3
177
     2
291
     1
 71
     2
176
     1
 72
     2
176
     1
 73
     1
176
     1
 90
        2
176
     1
 40
-0.6
176
     1
 41
30.0
176
     1
 62
     5
 63
     7
421
 16777215
176
     1
 74
     1
176
     1
 91
        4
176
     1
 64
     7
176
     1
 65
   257
176
     1
 75
     1
176
     1
175
     1
176
     1
 42
1.0
176
     1
 92
        0
176
     1
 66
   257
176
     1
 43
1.0
176
     1
 76
     1
176
     1
 77
     6
176
     1
 78
     2
176
     1
 67
     7
176
     1
 79
     5
176
     1
170
     0
176
     1
171
     0
176
     1
290
     0
176
     1
 93
       13
176
     1
 44
0.0
176
     1
173
     0
176
     1
  0
VISUALSTYLE
  5
38
102
{ACAD_REACTORS
330
2A
102
}
330
2A
100
AcDbVisualStyle
  2
Linepattern
 70
    14
177
     2
291
     1
 71
     2
176
     1
 72
     2
176
     1
 73
     0
176
     1
 90
        0
176
     1
 40
-0.6
176
     1
 41
-30.0
176
     1
 62
     5
 63
     7
421
 16777215
176
     1
 74
     1
176
     1
 91
        4
176
     1
 64
     7
176
     1
 65
   257
176
     1
 75
     7
176
     1
175
     7
176
     1
 42
1.0
176
     1
 92
        8
176
     1
 66
     7
176
     1
 43
1.0
176
     1
 76
     1
176
     1
 77
     6
176
     1
 78
     2
176
     1
 67
     7
176
     1
 79
     5
176
     1
170
     0
176
     1
171
     0
176
     1
290
     0
176
     1
 93
        1
176
     1
 44
0.0
176
     1
173
     0
176
     1
  0
VISUALSTYLE
  5
33
102
{ACAD_REACTORS
330
2A
102
}
330
2A
100
AcDbVisualStyle
  2
Realistic
 70
     8
177
     2
291
     0
 71
     2
176
     1
 72
     2
176
     1
 73
     0
176
     1
 90
        0
176
     1
 40
-0.6
176
     1
 41
-30.0
176
     1
 62
     5
 63
     7
421
 16777215
176
     1
 74
     1
176
     1
 91
        0
176
     1
 64
     7
176
     1
 65
   257
176
     1
 75
     1
176
     1
175
     1
176
     1
 42
1.0
176
     1
 92
        8
176
     1
 66
     8
424
  7895160
176
     1
 43
1.0
176
     1
 76
     1
176
     1
 77
     6
176
     1
 78
     2
176
     1
 67
     7
176
     1
 79
     5
176
     1
170
     0
176
     1
171
     0
176
     1
290
     0
176
     1
 93
       13
176
     1
 44
0.0
176
     1
173
     0
176
     1
  0
VISUALSTYLE
  5
37
102
{ACAD_REACTORS
330
2A
102
}
330
2A
100
AcDbVisualStyle
  2
Thicken
 70
    13
177
     2
291
     1
 71
     2
176
     1
 72
     2
176
     1
 73
     0
176
     1
 90
        0
176
     1
 40
-0.6
176
     1
 41
-30.0
176
     1
 62
     5
 63
     7
421
 16777215
176
     1
 74
     1
176
     1
 91
        4
176
     1
 64
     7
176
     1
 65
   257
176
     1
 75
     1
176
     1
175
     1
176
     1
 42
1.0
176
     1
 92
       12
176
     1
 66
     7
176
     1
 43
1.0
176
     1
 76
     1
176
     1
 77
     6
176
     1
 78
     2
176
     1
 67
     7
176
     1
 79
     5
176
     1
170
     0
176
     1
171
     0
176
     1
290
     0
176
     1
 93
        1
176
     1
 44
0.0
176
     1
173
     0
176
     1
  0
ENDSEC
  0
EOF
