G04 #@! TF.GenerationSoftware,KiCad,Pcbnew,(5.1.4-0-10_14)*
G04 #@! TF.CreationDate,2019-11-06T08:06:47+01:00*
G04 #@! TF.ProjectId,UFC Controller Interface,55464320-436f-46e7-9472-6f6c6c657220,rev?*
G04 #@! TF.SameCoordinates,Original*
G04 #@! TF.FileFunction,Copper,L2,Bot*
G04 #@! TF.FilePolarity,Positive*
%FSLAX46Y46*%
G04 Gerber Fmt 4.6, Leading zero omitted, Abs format (unit mm)*
G04 Created by KiCad (PCBNEW (5.1.4-0-10_14)) date 2019-11-06 08:06:47*
%MOMM*%
%LPD*%
G04 APERTURE LIST*
%ADD10O,1.700000X1.700000*%
%ADD11R,1.700000X1.700000*%
%ADD12O,1.727200X1.727200*%
%ADD13C,1.727200*%
%ADD14O,1.727200X2.032000*%
%ADD15C,4.064000*%
%ADD16C,0.600000*%
%ADD17C,0.250000*%
%ADD18C,0.609600*%
%ADD19C,0.254000*%
G04 APERTURE END LIST*
D10*
X188595000Y-92710000D03*
X188595000Y-90170000D03*
X186055000Y-92710000D03*
X186055000Y-90170000D03*
X183515000Y-92710000D03*
X183515000Y-90170000D03*
X180975000Y-92710000D03*
X180975000Y-90170000D03*
X178435000Y-92710000D03*
X178435000Y-90170000D03*
X175895000Y-92710000D03*
X175895000Y-90170000D03*
X173355000Y-92710000D03*
X173355000Y-90170000D03*
X170815000Y-92710000D03*
X170815000Y-90170000D03*
X168275000Y-92710000D03*
X168275000Y-90170000D03*
X165735000Y-92710000D03*
X165735000Y-90170000D03*
X163195000Y-92710000D03*
X163195000Y-90170000D03*
X160655000Y-92710000D03*
X160655000Y-90170000D03*
X158115000Y-92710000D03*
X158115000Y-90170000D03*
X155575000Y-92710000D03*
X155575000Y-90170000D03*
X153035000Y-92710000D03*
X153035000Y-90170000D03*
X150495000Y-92710000D03*
X150495000Y-90170000D03*
X147955000Y-92710000D03*
X147955000Y-90170000D03*
X145415000Y-92710000D03*
D11*
X145415000Y-90170000D03*
D10*
X163398200Y-82600800D03*
X163398200Y-80060800D03*
X160858200Y-82600800D03*
X160858200Y-80060800D03*
X158318200Y-82600800D03*
X158318200Y-80060800D03*
X155778200Y-82600800D03*
X155778200Y-80060800D03*
X153238200Y-82600800D03*
X153238200Y-80060800D03*
X150698200Y-82600800D03*
X150698200Y-80060800D03*
X148158200Y-82600800D03*
X148158200Y-80060800D03*
X145618200Y-82600800D03*
X145618200Y-80060800D03*
X143078200Y-82600800D03*
X143078200Y-80060800D03*
X140538200Y-82600800D03*
X140538200Y-80060800D03*
X137998200Y-82600800D03*
X137998200Y-80060800D03*
X135458200Y-82600800D03*
X135458200Y-80060800D03*
X132918200Y-82600800D03*
X132918200Y-80060800D03*
X130378200Y-82600800D03*
X130378200Y-80060800D03*
X127838200Y-82600800D03*
X127838200Y-80060800D03*
X125298200Y-82600800D03*
X125298200Y-80060800D03*
X122758200Y-82600800D03*
X122758200Y-80060800D03*
X120218200Y-82600800D03*
D11*
X120218200Y-80060800D03*
D12*
X199898000Y-70866000D03*
X197358000Y-70866000D03*
X199898000Y-73406000D03*
X197358000Y-73406000D03*
X199898000Y-75946000D03*
X197358000Y-75946000D03*
X199898000Y-78486000D03*
X197358000Y-78486000D03*
X199898000Y-81026000D03*
X197358000Y-81026000D03*
X199898000Y-83566000D03*
X197358000Y-83566000D03*
X199898000Y-86106000D03*
X197358000Y-86106000D03*
X199898000Y-88646000D03*
X197358000Y-88646000D03*
X199898000Y-91186000D03*
X197358000Y-91186000D03*
X199898000Y-93726000D03*
X197358000Y-93726000D03*
X199898000Y-96266000D03*
X197358000Y-96266000D03*
X199898000Y-98806000D03*
X197358000Y-98806000D03*
X199898000Y-101346000D03*
X197358000Y-101346000D03*
X199898000Y-103886000D03*
X197358000Y-103886000D03*
X199898000Y-106426000D03*
X197358000Y-106426000D03*
X199898000Y-108966000D03*
X197358000Y-108966000D03*
X199898000Y-111506000D03*
X197358000Y-111506000D03*
X199898000Y-114046000D03*
D13*
X197358000Y-114046000D03*
D14*
X149098000Y-119126000D03*
X146558000Y-119126000D03*
X144018000Y-119126000D03*
X141478000Y-119126000D03*
X138938000Y-119126000D03*
X136398000Y-119126000D03*
X133858000Y-119126000D03*
X131318000Y-119126000D03*
X171958000Y-119126000D03*
X169418000Y-119126000D03*
X166878000Y-119126000D03*
X164338000Y-119126000D03*
X161798000Y-119126000D03*
X159258000Y-119126000D03*
X156718000Y-119126000D03*
X154178000Y-119126000D03*
X194818000Y-119126000D03*
X192278000Y-119126000D03*
X189738000Y-119126000D03*
X187198000Y-119126000D03*
X184658000Y-119126000D03*
X182118000Y-119126000D03*
X179578000Y-119126000D03*
X177038000Y-119126000D03*
X145034000Y-70866000D03*
X142494000Y-70866000D03*
X139954000Y-70866000D03*
X137414000Y-70866000D03*
X134874000Y-70866000D03*
X132334000Y-70866000D03*
X129794000Y-70866000D03*
X127254000Y-70866000D03*
X124714000Y-70866000D03*
X122174000Y-70866000D03*
X166878000Y-70866000D03*
X164338000Y-70866000D03*
X161798000Y-70866000D03*
X159258000Y-70866000D03*
X156718000Y-70866000D03*
X154178000Y-70866000D03*
X151638000Y-70866000D03*
X149098000Y-70866000D03*
X189738000Y-70866000D03*
X187198000Y-70866000D03*
X184658000Y-70866000D03*
X182118000Y-70866000D03*
X179578000Y-70866000D03*
X177038000Y-70866000D03*
X174498000Y-70866000D03*
X171958000Y-70866000D03*
D15*
X117348000Y-119126000D03*
X199898000Y-119126000D03*
X118618000Y-70866000D03*
X193548000Y-70866000D03*
D16*
X187071000Y-83997800D03*
X187274200Y-82651600D03*
X189890400Y-83566000D03*
X192557400Y-82346800D03*
X145897600Y-105613200D03*
X130810000Y-93980000D03*
X135255000Y-98425000D03*
X127635000Y-89535000D03*
X129819400Y-89585800D03*
X143154400Y-94894400D03*
D17*
X199034401Y-110642401D02*
X199898000Y-111506000D01*
X198546601Y-110154601D02*
X199034401Y-110642401D01*
X163621601Y-110154601D02*
X198546601Y-110154601D01*
X147955000Y-92710000D02*
X147955000Y-94488000D01*
X147955000Y-94488000D02*
X163621601Y-110154601D01*
X199034401Y-108102401D02*
X199898000Y-108966000D01*
X198709399Y-107777399D02*
X199034401Y-108102401D01*
X164360318Y-107777399D02*
X198709399Y-107777399D01*
X150495000Y-93912081D02*
X164360318Y-107777399D01*
X150495000Y-92710000D02*
X150495000Y-93912081D01*
X199034401Y-105562401D02*
X199898000Y-106426000D01*
X198546601Y-105074601D02*
X199034401Y-105562401D01*
X165399601Y-105074601D02*
X198546601Y-105074601D01*
X153035000Y-92710000D02*
X165399601Y-105074601D01*
X199034401Y-103022401D02*
X199898000Y-103886000D01*
X198546601Y-102534601D02*
X199034401Y-103022401D01*
X165399601Y-102534601D02*
X198546601Y-102534601D01*
X155575000Y-92710000D02*
X165399601Y-102534601D01*
X199034401Y-100482401D02*
X199898000Y-101346000D01*
X198546601Y-99994601D02*
X199034401Y-100482401D01*
X165399601Y-99994601D02*
X198546601Y-99994601D01*
X158115000Y-92710000D02*
X165399601Y-99994601D01*
X166406899Y-98461899D02*
X190882200Y-98461899D01*
X160655000Y-92710000D02*
X166406899Y-98461899D01*
X198672086Y-97580086D02*
X199034401Y-97942401D01*
X199034401Y-97942401D02*
X199898000Y-98806000D01*
X191764012Y-97580086D02*
X198672086Y-97580086D01*
X190882200Y-98461899D02*
X191764012Y-97580086D01*
X190695800Y-98011888D02*
X193793086Y-94914601D01*
X163195000Y-92710000D02*
X168496888Y-98011888D01*
X168496888Y-98011888D02*
X190695800Y-98011888D01*
X193793086Y-94914601D02*
X198546601Y-94914601D01*
X198546601Y-94914601D02*
X199034401Y-95402401D01*
X199034401Y-95402401D02*
X199898000Y-96266000D01*
X199034401Y-92862401D02*
X199898000Y-93726000D01*
X165735000Y-92710000D02*
X170586877Y-97561877D01*
X170586877Y-97561877D02*
X190509400Y-97561877D01*
X190509400Y-97561877D02*
X195533878Y-92537399D01*
X195533878Y-92537399D02*
X198709399Y-92537399D01*
X198709399Y-92537399D02*
X199034401Y-92862401D01*
X198709399Y-89997399D02*
X199034401Y-90322401D01*
X199034401Y-90322401D02*
X199898000Y-91186000D01*
X196228658Y-89997399D02*
X198709399Y-89997399D01*
X195740066Y-90485990D02*
X196228658Y-89997399D01*
X195740066Y-91694800D02*
X195740066Y-90485990D01*
X190323000Y-97111866D02*
X195740066Y-91694800D01*
X172676866Y-97111866D02*
X190323000Y-97111866D01*
X168275000Y-92710000D02*
X172676866Y-97111866D01*
X179527200Y-83997800D02*
X186646736Y-83997800D01*
X186646736Y-83997800D02*
X187071000Y-83997800D01*
X173355000Y-90170000D02*
X179527200Y-83997800D01*
X199034401Y-87782401D02*
X199898000Y-88646000D01*
X198653400Y-87401400D02*
X199034401Y-87782401D01*
X174766855Y-96661855D02*
X190136600Y-96661855D01*
X170815000Y-92710000D02*
X174766855Y-96661855D01*
X190136600Y-96661855D02*
X195290055Y-91508400D01*
X195290055Y-91508400D02*
X195290055Y-88427945D01*
X195290055Y-88427945D02*
X196316600Y-87401400D01*
X196316600Y-87401400D02*
X198653400Y-87401400D01*
X178333400Y-82651600D02*
X186849936Y-82651600D01*
X186849936Y-82651600D02*
X187274200Y-82651600D01*
X170815000Y-90170000D02*
X178333400Y-82651600D01*
X198628000Y-84836000D02*
X199034401Y-85242401D01*
X176856844Y-96211844D02*
X189950200Y-96211844D01*
X173355000Y-92710000D02*
X176856844Y-96211844D01*
X199034401Y-85242401D02*
X199898000Y-86106000D01*
X189950200Y-96211844D02*
X194840044Y-91322000D01*
X194840044Y-86414156D02*
X196418200Y-84836000D01*
X194840044Y-91322000D02*
X194840044Y-86414156D01*
X196418200Y-84836000D02*
X198628000Y-84836000D01*
X189590401Y-83865999D02*
X189890400Y-83566000D01*
X187756800Y-85699600D02*
X189590401Y-83865999D01*
X175895000Y-90170000D02*
X180365400Y-85699600D01*
X180365400Y-85699600D02*
X187756800Y-85699600D01*
X175895000Y-92710000D02*
X178946833Y-95761833D01*
X178946833Y-95761833D02*
X189763800Y-95761833D01*
X189763800Y-95761833D02*
X194390033Y-91135600D01*
X194390033Y-91135600D02*
X194390033Y-84774837D01*
X194390033Y-84774837D02*
X196787471Y-82377399D01*
X196787471Y-82377399D02*
X198709399Y-82377399D01*
X198709399Y-82377399D02*
X199034401Y-82702401D01*
X199034401Y-82702401D02*
X199898000Y-83566000D01*
X192557400Y-91059000D02*
X192557400Y-82771064D01*
X189204600Y-94411800D02*
X192557400Y-91059000D01*
X187756800Y-94411800D02*
X189204600Y-94411800D01*
X186055000Y-92710000D02*
X187756800Y-94411800D01*
X192557400Y-82771064D02*
X192557400Y-82346800D01*
X193940022Y-90949200D02*
X193940022Y-82284978D01*
X180975000Y-92710000D02*
X183576822Y-95311822D01*
X183576822Y-95311822D02*
X189577400Y-95311822D01*
X189577400Y-95311822D02*
X193940022Y-90949200D01*
X193940022Y-82284978D02*
X196550399Y-79674601D01*
X196550399Y-79674601D02*
X198709399Y-79674601D01*
X198709399Y-79674601D02*
X199034401Y-79349599D01*
X199034401Y-79349599D02*
X199898000Y-78486000D01*
X185666811Y-94861811D02*
X189391000Y-94861811D01*
X193490011Y-90762800D02*
X193490011Y-80594859D01*
X193490011Y-80594859D02*
X196787471Y-77297399D01*
X196787471Y-77297399D02*
X198546601Y-77297399D01*
X198546601Y-77297399D02*
X199034401Y-76809599D01*
X199034401Y-76809599D02*
X199898000Y-75946000D01*
X189391000Y-94861811D02*
X193490011Y-90762800D01*
X183515000Y-92710000D02*
X185666811Y-94861811D01*
X196787471Y-74757399D02*
X198546601Y-74757399D01*
X178435000Y-92710000D02*
X179799999Y-91345001D01*
X199034401Y-74269599D02*
X199898000Y-73406000D01*
X191764811Y-79780059D02*
X196787471Y-74757399D01*
X191764811Y-89160876D02*
X191764811Y-79780059D01*
X189580686Y-91345001D02*
X191764811Y-89160876D01*
X198546601Y-74757399D02*
X199034401Y-74269599D01*
X179799999Y-91345001D02*
X189580686Y-91345001D01*
D18*
X197358000Y-70866000D02*
X191135000Y-77089000D01*
X191135000Y-77089000D02*
X191135000Y-88900000D01*
X189865000Y-90170000D02*
X188595000Y-90170000D01*
X191135000Y-88900000D02*
X189865000Y-90170000D01*
X120218200Y-82600800D02*
X118897400Y-82600800D01*
X118897400Y-82600800D02*
X116154200Y-79857600D01*
X116154200Y-79857600D02*
X116154200Y-78333600D01*
X116154200Y-78333600D02*
X118897400Y-75590400D01*
X189636400Y-75590400D02*
X191135000Y-77089000D01*
X118897400Y-75590400D02*
X189636400Y-75590400D01*
D17*
X149098000Y-117754400D02*
X149098000Y-119126000D01*
X121513600Y-90170000D02*
X149098000Y-117754400D01*
X122758200Y-80060800D02*
X121513600Y-81305400D01*
X121513600Y-81305400D02*
X121513600Y-90170000D01*
X154178000Y-119126000D02*
X152728789Y-119126000D01*
X125603000Y-77825600D02*
X126988201Y-79210801D01*
X126988201Y-79210801D02*
X127838200Y-80060800D01*
X124815600Y-77825600D02*
X125603000Y-77825600D01*
X124002800Y-90400011D02*
X124002800Y-78638400D01*
X124002800Y-78638400D02*
X124815600Y-77825600D01*
X152728789Y-119126000D02*
X124002800Y-90400011D01*
X126148199Y-80910799D02*
X125298200Y-80060800D01*
X156718000Y-118973600D02*
X146024600Y-108280200D01*
X156718000Y-119126000D02*
X156718000Y-118973600D01*
X146024600Y-108280200D02*
X142519400Y-108280200D01*
X142519400Y-108280200D02*
X126473201Y-92234001D01*
X126473201Y-92234001D02*
X126473201Y-81235801D01*
X126473201Y-81235801D02*
X126148199Y-80910799D01*
X159258000Y-119278400D02*
X159258000Y-119126000D01*
X136633201Y-81235801D02*
X136633201Y-95192203D01*
X135458200Y-80060800D02*
X136633201Y-81235801D01*
X145897600Y-104456602D02*
X145599599Y-104158601D01*
X145897600Y-105613200D02*
X145897600Y-104456602D01*
X136633201Y-95192203D02*
X145599599Y-104158601D01*
X161798000Y-118973600D02*
X161798000Y-119126000D01*
X149479000Y-106654600D02*
X161798000Y-118973600D01*
X142189200Y-106654600D02*
X149479000Y-106654600D01*
X134283199Y-98748599D02*
X142189200Y-106654600D01*
X132918200Y-80060800D02*
X134283199Y-81425799D01*
X134283199Y-81425799D02*
X134283199Y-98748599D01*
X128727200Y-91897200D02*
X130810000Y-93980000D01*
X130378200Y-82600800D02*
X128727200Y-84251800D01*
X128727200Y-84251800D02*
X128727200Y-91897200D01*
X135255000Y-82804000D02*
X135458200Y-82600800D01*
X135255000Y-98425000D02*
X135255000Y-82804000D01*
X127635000Y-82804000D02*
X127838200Y-82600800D01*
X127635000Y-89535000D02*
X127635000Y-82804000D01*
X129819400Y-85699600D02*
X129819400Y-89161536D01*
X132918200Y-82600800D02*
X129819400Y-85699600D01*
X129819400Y-89161536D02*
X129819400Y-89585800D01*
X164134800Y-115874800D02*
X143454399Y-95194399D01*
X143454399Y-95194399D02*
X143154400Y-94894400D01*
X175924400Y-119126000D02*
X172673200Y-115874800D01*
X177038000Y-119126000D02*
X175924400Y-119126000D01*
X172673200Y-115874800D02*
X164134800Y-115874800D01*
D19*
G36*
X116546406Y-69165887D02*
G01*
X116254536Y-69602702D01*
X116053492Y-70088065D01*
X115951000Y-70603323D01*
X115951000Y-71128677D01*
X116053492Y-71643935D01*
X116254536Y-72129298D01*
X116546406Y-72566113D01*
X116917887Y-72937594D01*
X117354702Y-73229464D01*
X117840065Y-73430508D01*
X118355323Y-73533000D01*
X118880677Y-73533000D01*
X119395935Y-73430508D01*
X119881298Y-73229464D01*
X120318113Y-72937594D01*
X120689594Y-72566113D01*
X120981464Y-72129298D01*
X121037001Y-71995219D01*
X121109203Y-72083197D01*
X121337395Y-72270469D01*
X121597737Y-72409625D01*
X121880224Y-72495316D01*
X122174000Y-72524251D01*
X122467777Y-72495316D01*
X122750264Y-72409625D01*
X123010606Y-72270469D01*
X123238797Y-72083197D01*
X123426069Y-71855006D01*
X123444000Y-71821459D01*
X123461931Y-71855006D01*
X123649203Y-72083197D01*
X123877395Y-72270469D01*
X124137737Y-72409625D01*
X124420224Y-72495316D01*
X124714000Y-72524251D01*
X125007777Y-72495316D01*
X125290264Y-72409625D01*
X125550606Y-72270469D01*
X125778797Y-72083197D01*
X125966069Y-71855006D01*
X125984000Y-71821459D01*
X126001931Y-71855006D01*
X126189203Y-72083197D01*
X126417395Y-72270469D01*
X126677737Y-72409625D01*
X126960224Y-72495316D01*
X127254000Y-72524251D01*
X127547777Y-72495316D01*
X127830264Y-72409625D01*
X128090606Y-72270469D01*
X128318797Y-72083197D01*
X128506069Y-71855006D01*
X128527424Y-71815053D01*
X128675514Y-72017729D01*
X128891965Y-72216733D01*
X129143081Y-72369686D01*
X129419211Y-72470709D01*
X129434974Y-72473358D01*
X129667000Y-72352217D01*
X129667000Y-70993000D01*
X129647000Y-70993000D01*
X129647000Y-70739000D01*
X129667000Y-70739000D01*
X129667000Y-69379783D01*
X129921000Y-69379783D01*
X129921000Y-70739000D01*
X129941000Y-70739000D01*
X129941000Y-70993000D01*
X129921000Y-70993000D01*
X129921000Y-72352217D01*
X130153026Y-72473358D01*
X130168789Y-72470709D01*
X130444919Y-72369686D01*
X130696035Y-72216733D01*
X130912486Y-72017729D01*
X131060576Y-71815053D01*
X131081931Y-71855006D01*
X131269203Y-72083197D01*
X131497395Y-72270469D01*
X131757737Y-72409625D01*
X132040224Y-72495316D01*
X132334000Y-72524251D01*
X132627777Y-72495316D01*
X132910264Y-72409625D01*
X133170606Y-72270469D01*
X133398797Y-72083197D01*
X133586069Y-71855006D01*
X133604000Y-71821459D01*
X133621931Y-71855006D01*
X133809203Y-72083197D01*
X134037395Y-72270469D01*
X134297737Y-72409625D01*
X134580224Y-72495316D01*
X134874000Y-72524251D01*
X135167777Y-72495316D01*
X135450264Y-72409625D01*
X135710606Y-72270469D01*
X135938797Y-72083197D01*
X136126069Y-71855006D01*
X136144000Y-71821459D01*
X136161931Y-71855006D01*
X136349203Y-72083197D01*
X136577395Y-72270469D01*
X136837737Y-72409625D01*
X137120224Y-72495316D01*
X137414000Y-72524251D01*
X137707777Y-72495316D01*
X137990264Y-72409625D01*
X138250606Y-72270469D01*
X138478797Y-72083197D01*
X138666069Y-71855006D01*
X138684000Y-71821459D01*
X138701931Y-71855006D01*
X138889203Y-72083197D01*
X139117395Y-72270469D01*
X139377737Y-72409625D01*
X139660224Y-72495316D01*
X139954000Y-72524251D01*
X140247777Y-72495316D01*
X140530264Y-72409625D01*
X140790606Y-72270469D01*
X141018797Y-72083197D01*
X141206069Y-71855006D01*
X141224000Y-71821459D01*
X141241931Y-71855006D01*
X141429203Y-72083197D01*
X141657395Y-72270469D01*
X141917737Y-72409625D01*
X142200224Y-72495316D01*
X142494000Y-72524251D01*
X142787777Y-72495316D01*
X143070264Y-72409625D01*
X143330606Y-72270469D01*
X143558797Y-72083197D01*
X143746069Y-71855006D01*
X143764000Y-71821459D01*
X143781931Y-71855006D01*
X143969203Y-72083197D01*
X144197395Y-72270469D01*
X144457737Y-72409625D01*
X144740224Y-72495316D01*
X145034000Y-72524251D01*
X145327777Y-72495316D01*
X145610264Y-72409625D01*
X145870606Y-72270469D01*
X146098797Y-72083197D01*
X146286069Y-71855006D01*
X146425225Y-71594663D01*
X146510916Y-71312176D01*
X146532600Y-71092018D01*
X146532600Y-70639982D01*
X147599400Y-70639982D01*
X147599400Y-71092019D01*
X147621084Y-71312177D01*
X147706775Y-71594664D01*
X147845931Y-71855006D01*
X148033203Y-72083197D01*
X148261395Y-72270469D01*
X148521737Y-72409625D01*
X148804224Y-72495316D01*
X149098000Y-72524251D01*
X149391777Y-72495316D01*
X149674264Y-72409625D01*
X149934606Y-72270469D01*
X150162797Y-72083197D01*
X150350069Y-71855006D01*
X150368000Y-71821459D01*
X150385931Y-71855006D01*
X150573203Y-72083197D01*
X150801395Y-72270469D01*
X151061737Y-72409625D01*
X151344224Y-72495316D01*
X151638000Y-72524251D01*
X151931777Y-72495316D01*
X152214264Y-72409625D01*
X152474606Y-72270469D01*
X152702797Y-72083197D01*
X152890069Y-71855006D01*
X152908000Y-71821459D01*
X152925931Y-71855006D01*
X153113203Y-72083197D01*
X153341395Y-72270469D01*
X153601737Y-72409625D01*
X153884224Y-72495316D01*
X154178000Y-72524251D01*
X154471777Y-72495316D01*
X154754264Y-72409625D01*
X155014606Y-72270469D01*
X155242797Y-72083197D01*
X155430069Y-71855006D01*
X155448000Y-71821459D01*
X155465931Y-71855006D01*
X155653203Y-72083197D01*
X155881395Y-72270469D01*
X156141737Y-72409625D01*
X156424224Y-72495316D01*
X156718000Y-72524251D01*
X157011777Y-72495316D01*
X157294264Y-72409625D01*
X157554606Y-72270469D01*
X157782797Y-72083197D01*
X157970069Y-71855006D01*
X157988000Y-71821459D01*
X158005931Y-71855006D01*
X158193203Y-72083197D01*
X158421395Y-72270469D01*
X158681737Y-72409625D01*
X158964224Y-72495316D01*
X159258000Y-72524251D01*
X159551777Y-72495316D01*
X159834264Y-72409625D01*
X160094606Y-72270469D01*
X160322797Y-72083197D01*
X160510069Y-71855006D01*
X160528000Y-71821459D01*
X160545931Y-71855006D01*
X160733203Y-72083197D01*
X160961395Y-72270469D01*
X161221737Y-72409625D01*
X161504224Y-72495316D01*
X161798000Y-72524251D01*
X162091777Y-72495316D01*
X162374264Y-72409625D01*
X162634606Y-72270469D01*
X162862797Y-72083197D01*
X163050069Y-71855006D01*
X163068000Y-71821459D01*
X163085931Y-71855006D01*
X163273203Y-72083197D01*
X163501395Y-72270469D01*
X163761737Y-72409625D01*
X164044224Y-72495316D01*
X164338000Y-72524251D01*
X164631777Y-72495316D01*
X164914264Y-72409625D01*
X165174606Y-72270469D01*
X165402797Y-72083197D01*
X165590069Y-71855006D01*
X165608000Y-71821459D01*
X165625931Y-71855006D01*
X165813203Y-72083197D01*
X166041395Y-72270469D01*
X166301737Y-72409625D01*
X166584224Y-72495316D01*
X166878000Y-72524251D01*
X167171777Y-72495316D01*
X167454264Y-72409625D01*
X167714606Y-72270469D01*
X167942797Y-72083197D01*
X168130069Y-71855006D01*
X168269225Y-71594663D01*
X168354916Y-71312176D01*
X168376600Y-71092018D01*
X168376600Y-70639981D01*
X168354916Y-70419823D01*
X168269225Y-70137336D01*
X168130069Y-69876994D01*
X167942797Y-69648803D01*
X167714605Y-69461531D01*
X167454263Y-69322375D01*
X167171776Y-69236684D01*
X166878000Y-69207749D01*
X166584223Y-69236684D01*
X166301736Y-69322375D01*
X166041394Y-69461531D01*
X165813203Y-69648803D01*
X165625931Y-69876995D01*
X165608000Y-69910541D01*
X165590069Y-69876994D01*
X165402797Y-69648803D01*
X165174605Y-69461531D01*
X164914263Y-69322375D01*
X164631776Y-69236684D01*
X164338000Y-69207749D01*
X164044223Y-69236684D01*
X163761736Y-69322375D01*
X163501394Y-69461531D01*
X163273203Y-69648803D01*
X163085931Y-69876995D01*
X163068000Y-69910541D01*
X163050069Y-69876994D01*
X162862797Y-69648803D01*
X162634605Y-69461531D01*
X162374263Y-69322375D01*
X162091776Y-69236684D01*
X161798000Y-69207749D01*
X161504223Y-69236684D01*
X161221736Y-69322375D01*
X160961394Y-69461531D01*
X160733203Y-69648803D01*
X160545931Y-69876995D01*
X160528000Y-69910541D01*
X160510069Y-69876994D01*
X160322797Y-69648803D01*
X160094605Y-69461531D01*
X159834263Y-69322375D01*
X159551776Y-69236684D01*
X159258000Y-69207749D01*
X158964223Y-69236684D01*
X158681736Y-69322375D01*
X158421394Y-69461531D01*
X158193203Y-69648803D01*
X158005931Y-69876995D01*
X157988000Y-69910541D01*
X157970069Y-69876994D01*
X157782797Y-69648803D01*
X157554605Y-69461531D01*
X157294263Y-69322375D01*
X157011776Y-69236684D01*
X156718000Y-69207749D01*
X156424223Y-69236684D01*
X156141736Y-69322375D01*
X155881394Y-69461531D01*
X155653203Y-69648803D01*
X155465931Y-69876995D01*
X155448000Y-69910541D01*
X155430069Y-69876994D01*
X155242797Y-69648803D01*
X155014605Y-69461531D01*
X154754263Y-69322375D01*
X154471776Y-69236684D01*
X154178000Y-69207749D01*
X153884223Y-69236684D01*
X153601736Y-69322375D01*
X153341394Y-69461531D01*
X153113203Y-69648803D01*
X152925931Y-69876995D01*
X152908000Y-69910541D01*
X152890069Y-69876994D01*
X152702797Y-69648803D01*
X152474605Y-69461531D01*
X152214263Y-69322375D01*
X151931776Y-69236684D01*
X151638000Y-69207749D01*
X151344223Y-69236684D01*
X151061736Y-69322375D01*
X150801394Y-69461531D01*
X150573203Y-69648803D01*
X150385931Y-69876995D01*
X150368000Y-69910541D01*
X150350069Y-69876994D01*
X150162797Y-69648803D01*
X149934605Y-69461531D01*
X149674263Y-69322375D01*
X149391776Y-69236684D01*
X149098000Y-69207749D01*
X148804223Y-69236684D01*
X148521736Y-69322375D01*
X148261394Y-69461531D01*
X148033203Y-69648803D01*
X147845931Y-69876995D01*
X147706775Y-70137337D01*
X147621084Y-70419824D01*
X147599400Y-70639982D01*
X146532600Y-70639982D01*
X146532600Y-70639981D01*
X146510916Y-70419823D01*
X146425225Y-70137336D01*
X146286069Y-69876994D01*
X146098797Y-69648803D01*
X145870605Y-69461531D01*
X145610263Y-69322375D01*
X145327776Y-69236684D01*
X145034000Y-69207749D01*
X144740223Y-69236684D01*
X144457736Y-69322375D01*
X144197394Y-69461531D01*
X143969203Y-69648803D01*
X143781931Y-69876995D01*
X143764000Y-69910541D01*
X143746069Y-69876994D01*
X143558797Y-69648803D01*
X143330605Y-69461531D01*
X143070263Y-69322375D01*
X142787776Y-69236684D01*
X142494000Y-69207749D01*
X142200223Y-69236684D01*
X141917736Y-69322375D01*
X141657394Y-69461531D01*
X141429203Y-69648803D01*
X141241931Y-69876995D01*
X141224000Y-69910541D01*
X141206069Y-69876994D01*
X141018797Y-69648803D01*
X140790605Y-69461531D01*
X140530263Y-69322375D01*
X140247776Y-69236684D01*
X139954000Y-69207749D01*
X139660223Y-69236684D01*
X139377736Y-69322375D01*
X139117394Y-69461531D01*
X138889203Y-69648803D01*
X138701931Y-69876995D01*
X138684000Y-69910541D01*
X138666069Y-69876994D01*
X138478797Y-69648803D01*
X138250605Y-69461531D01*
X137990263Y-69322375D01*
X137707776Y-69236684D01*
X137414000Y-69207749D01*
X137120223Y-69236684D01*
X136837736Y-69322375D01*
X136577394Y-69461531D01*
X136349203Y-69648803D01*
X136161931Y-69876995D01*
X136144000Y-69910541D01*
X136126069Y-69876994D01*
X135938797Y-69648803D01*
X135710605Y-69461531D01*
X135450263Y-69322375D01*
X135167776Y-69236684D01*
X134874000Y-69207749D01*
X134580223Y-69236684D01*
X134297736Y-69322375D01*
X134037394Y-69461531D01*
X133809203Y-69648803D01*
X133621931Y-69876995D01*
X133604000Y-69910541D01*
X133586069Y-69876994D01*
X133398797Y-69648803D01*
X133170605Y-69461531D01*
X132910263Y-69322375D01*
X132627776Y-69236684D01*
X132334000Y-69207749D01*
X132040223Y-69236684D01*
X131757736Y-69322375D01*
X131497394Y-69461531D01*
X131269203Y-69648803D01*
X131081931Y-69876995D01*
X131060576Y-69916947D01*
X130912486Y-69714271D01*
X130696035Y-69515267D01*
X130444919Y-69362314D01*
X130168789Y-69261291D01*
X130153026Y-69258642D01*
X129921000Y-69379783D01*
X129667000Y-69379783D01*
X129434974Y-69258642D01*
X129419211Y-69261291D01*
X129143081Y-69362314D01*
X128891965Y-69515267D01*
X128675514Y-69714271D01*
X128527424Y-69916947D01*
X128506069Y-69876994D01*
X128318797Y-69648803D01*
X128090605Y-69461531D01*
X127830263Y-69322375D01*
X127547776Y-69236684D01*
X127254000Y-69207749D01*
X126960223Y-69236684D01*
X126677736Y-69322375D01*
X126417394Y-69461531D01*
X126189203Y-69648803D01*
X126001931Y-69876995D01*
X125984000Y-69910541D01*
X125966069Y-69876994D01*
X125778797Y-69648803D01*
X125550605Y-69461531D01*
X125290263Y-69322375D01*
X125007776Y-69236684D01*
X124714000Y-69207749D01*
X124420223Y-69236684D01*
X124137736Y-69322375D01*
X123877394Y-69461531D01*
X123649203Y-69648803D01*
X123461931Y-69876995D01*
X123444000Y-69910541D01*
X123426069Y-69876994D01*
X123238797Y-69648803D01*
X123010605Y-69461531D01*
X122750263Y-69322375D01*
X122467776Y-69236684D01*
X122174000Y-69207749D01*
X121880223Y-69236684D01*
X121597736Y-69322375D01*
X121337394Y-69461531D01*
X121109203Y-69648803D01*
X121037001Y-69736781D01*
X120981464Y-69602702D01*
X120689594Y-69165887D01*
X120559707Y-69036000D01*
X191606293Y-69036000D01*
X191476406Y-69165887D01*
X191184536Y-69602702D01*
X191035621Y-69962215D01*
X190990069Y-69876994D01*
X190802797Y-69648803D01*
X190574605Y-69461531D01*
X190314263Y-69322375D01*
X190031776Y-69236684D01*
X189738000Y-69207749D01*
X189444223Y-69236684D01*
X189161736Y-69322375D01*
X188901394Y-69461531D01*
X188673203Y-69648803D01*
X188485931Y-69876995D01*
X188468000Y-69910541D01*
X188450069Y-69876994D01*
X188262797Y-69648803D01*
X188034605Y-69461531D01*
X187774263Y-69322375D01*
X187491776Y-69236684D01*
X187198000Y-69207749D01*
X186904223Y-69236684D01*
X186621736Y-69322375D01*
X186361394Y-69461531D01*
X186133203Y-69648803D01*
X185945931Y-69876995D01*
X185928000Y-69910541D01*
X185910069Y-69876994D01*
X185722797Y-69648803D01*
X185494605Y-69461531D01*
X185234263Y-69322375D01*
X184951776Y-69236684D01*
X184658000Y-69207749D01*
X184364223Y-69236684D01*
X184081736Y-69322375D01*
X183821394Y-69461531D01*
X183593203Y-69648803D01*
X183405931Y-69876995D01*
X183388000Y-69910541D01*
X183370069Y-69876994D01*
X183182797Y-69648803D01*
X182954605Y-69461531D01*
X182694263Y-69322375D01*
X182411776Y-69236684D01*
X182118000Y-69207749D01*
X181824223Y-69236684D01*
X181541736Y-69322375D01*
X181281394Y-69461531D01*
X181053203Y-69648803D01*
X180865931Y-69876995D01*
X180848000Y-69910541D01*
X180830069Y-69876994D01*
X180642797Y-69648803D01*
X180414605Y-69461531D01*
X180154263Y-69322375D01*
X179871776Y-69236684D01*
X179578000Y-69207749D01*
X179284223Y-69236684D01*
X179001736Y-69322375D01*
X178741394Y-69461531D01*
X178513203Y-69648803D01*
X178325931Y-69876995D01*
X178308000Y-69910541D01*
X178290069Y-69876994D01*
X178102797Y-69648803D01*
X177874605Y-69461531D01*
X177614263Y-69322375D01*
X177331776Y-69236684D01*
X177038000Y-69207749D01*
X176744223Y-69236684D01*
X176461736Y-69322375D01*
X176201394Y-69461531D01*
X175973203Y-69648803D01*
X175785931Y-69876995D01*
X175768000Y-69910541D01*
X175750069Y-69876994D01*
X175562797Y-69648803D01*
X175334605Y-69461531D01*
X175074263Y-69322375D01*
X174791776Y-69236684D01*
X174498000Y-69207749D01*
X174204223Y-69236684D01*
X173921736Y-69322375D01*
X173661394Y-69461531D01*
X173433203Y-69648803D01*
X173245931Y-69876995D01*
X173228000Y-69910541D01*
X173210069Y-69876994D01*
X173022797Y-69648803D01*
X172794605Y-69461531D01*
X172534263Y-69322375D01*
X172251776Y-69236684D01*
X171958000Y-69207749D01*
X171664223Y-69236684D01*
X171381736Y-69322375D01*
X171121394Y-69461531D01*
X170893203Y-69648803D01*
X170705931Y-69876995D01*
X170566775Y-70137337D01*
X170481084Y-70419824D01*
X170459400Y-70639982D01*
X170459400Y-71092019D01*
X170481084Y-71312177D01*
X170566775Y-71594664D01*
X170705931Y-71855006D01*
X170893203Y-72083197D01*
X171121395Y-72270469D01*
X171381737Y-72409625D01*
X171664224Y-72495316D01*
X171958000Y-72524251D01*
X172251777Y-72495316D01*
X172534264Y-72409625D01*
X172794606Y-72270469D01*
X173022797Y-72083197D01*
X173210069Y-71855006D01*
X173228000Y-71821459D01*
X173245931Y-71855006D01*
X173433203Y-72083197D01*
X173661395Y-72270469D01*
X173921737Y-72409625D01*
X174204224Y-72495316D01*
X174498000Y-72524251D01*
X174791777Y-72495316D01*
X175074264Y-72409625D01*
X175334606Y-72270469D01*
X175562797Y-72083197D01*
X175750069Y-71855006D01*
X175768000Y-71821459D01*
X175785931Y-71855006D01*
X175973203Y-72083197D01*
X176201395Y-72270469D01*
X176461737Y-72409625D01*
X176744224Y-72495316D01*
X177038000Y-72524251D01*
X177331777Y-72495316D01*
X177614264Y-72409625D01*
X177874606Y-72270469D01*
X178102797Y-72083197D01*
X178290069Y-71855006D01*
X178308000Y-71821459D01*
X178325931Y-71855006D01*
X178513203Y-72083197D01*
X178741395Y-72270469D01*
X179001737Y-72409625D01*
X179284224Y-72495316D01*
X179578000Y-72524251D01*
X179871777Y-72495316D01*
X180154264Y-72409625D01*
X180414606Y-72270469D01*
X180642797Y-72083197D01*
X180830069Y-71855006D01*
X180848000Y-71821459D01*
X180865931Y-71855006D01*
X181053203Y-72083197D01*
X181281395Y-72270469D01*
X181541737Y-72409625D01*
X181824224Y-72495316D01*
X182118000Y-72524251D01*
X182411777Y-72495316D01*
X182694264Y-72409625D01*
X182954606Y-72270469D01*
X183182797Y-72083197D01*
X183370069Y-71855006D01*
X183388000Y-71821459D01*
X183405931Y-71855006D01*
X183593203Y-72083197D01*
X183821395Y-72270469D01*
X184081737Y-72409625D01*
X184364224Y-72495316D01*
X184658000Y-72524251D01*
X184951777Y-72495316D01*
X185234264Y-72409625D01*
X185494606Y-72270469D01*
X185722797Y-72083197D01*
X185910069Y-71855006D01*
X185928000Y-71821459D01*
X185945931Y-71855006D01*
X186133203Y-72083197D01*
X186361395Y-72270469D01*
X186621737Y-72409625D01*
X186904224Y-72495316D01*
X187198000Y-72524251D01*
X187491777Y-72495316D01*
X187774264Y-72409625D01*
X188034606Y-72270469D01*
X188262797Y-72083197D01*
X188450069Y-71855006D01*
X188468000Y-71821459D01*
X188485931Y-71855006D01*
X188673203Y-72083197D01*
X188901395Y-72270469D01*
X189161737Y-72409625D01*
X189444224Y-72495316D01*
X189738000Y-72524251D01*
X190031777Y-72495316D01*
X190314264Y-72409625D01*
X190574606Y-72270469D01*
X190802797Y-72083197D01*
X190990069Y-71855006D01*
X191035621Y-71769785D01*
X191184536Y-72129298D01*
X191476406Y-72566113D01*
X191847887Y-72937594D01*
X192284702Y-73229464D01*
X192770065Y-73430508D01*
X193285323Y-73533000D01*
X193361924Y-73533000D01*
X191135000Y-75759923D01*
X190333591Y-74958515D01*
X190304154Y-74922646D01*
X190161051Y-74805204D01*
X189997786Y-74717937D01*
X189820633Y-74664198D01*
X189682567Y-74650600D01*
X189682557Y-74650600D01*
X189636400Y-74646054D01*
X189590243Y-74650600D01*
X118943565Y-74650600D01*
X118897400Y-74646053D01*
X118851235Y-74650600D01*
X118851233Y-74650600D01*
X118713167Y-74664198D01*
X118536014Y-74717937D01*
X118372748Y-74805204D01*
X118265506Y-74893216D01*
X118229646Y-74922646D01*
X118200218Y-74958504D01*
X115522310Y-77636414D01*
X115486447Y-77665846D01*
X115457017Y-77701707D01*
X115369004Y-77808949D01*
X115281738Y-77972214D01*
X115227999Y-78149367D01*
X115209854Y-78333600D01*
X115214401Y-78379767D01*
X115214400Y-79811442D01*
X115209854Y-79857600D01*
X115214400Y-79903757D01*
X115214400Y-79903766D01*
X115227998Y-80041832D01*
X115281737Y-80218985D01*
X115369004Y-80382251D01*
X115486446Y-80525354D01*
X115522315Y-80554791D01*
X118200218Y-83232696D01*
X118229646Y-83268554D01*
X118265504Y-83297982D01*
X118265506Y-83297984D01*
X118372748Y-83385996D01*
X118495117Y-83451403D01*
X118536014Y-83473263D01*
X118713167Y-83527002D01*
X118851233Y-83540600D01*
X118851235Y-83540600D01*
X118897400Y-83545147D01*
X118943565Y-83540600D01*
X119068414Y-83540600D01*
X119163066Y-83655934D01*
X119389186Y-83841506D01*
X119647166Y-83979399D01*
X119927089Y-84064313D01*
X120145250Y-84085800D01*
X120291150Y-84085800D01*
X120509311Y-84064313D01*
X120753600Y-83990208D01*
X120753601Y-90132668D01*
X120749924Y-90170000D01*
X120753601Y-90207333D01*
X120762268Y-90295324D01*
X120764598Y-90318985D01*
X120808054Y-90462246D01*
X120878626Y-90594276D01*
X120915704Y-90639455D01*
X120973600Y-90710001D01*
X121002598Y-90733799D01*
X148112513Y-117843715D01*
X148033203Y-117908803D01*
X147845931Y-118136995D01*
X147824576Y-118176947D01*
X147676486Y-117974271D01*
X147460035Y-117775267D01*
X147208919Y-117622314D01*
X146932789Y-117521291D01*
X146917026Y-117518642D01*
X146685000Y-117639783D01*
X146685000Y-118999000D01*
X146705000Y-118999000D01*
X146705000Y-119253000D01*
X146685000Y-119253000D01*
X146685000Y-120612217D01*
X146917026Y-120733358D01*
X146932789Y-120730709D01*
X147208919Y-120629686D01*
X147460035Y-120476733D01*
X147676486Y-120277729D01*
X147824576Y-120075053D01*
X147845931Y-120115006D01*
X148033203Y-120343197D01*
X148261395Y-120530469D01*
X148521737Y-120669625D01*
X148804224Y-120755316D01*
X149098000Y-120784251D01*
X149391777Y-120755316D01*
X149674264Y-120669625D01*
X149934606Y-120530469D01*
X150162797Y-120343197D01*
X150350069Y-120115006D01*
X150489225Y-119854663D01*
X150574916Y-119572176D01*
X150596600Y-119352018D01*
X150596600Y-118899981D01*
X150574916Y-118679823D01*
X150489225Y-118397336D01*
X150350069Y-118136994D01*
X150162797Y-117908803D01*
X149934605Y-117721531D01*
X149854207Y-117678557D01*
X149847003Y-117605414D01*
X149803546Y-117462153D01*
X149732974Y-117330124D01*
X149661799Y-117243397D01*
X149638001Y-117214399D01*
X149609004Y-117190602D01*
X122273600Y-89855199D01*
X122273600Y-84003539D01*
X122401310Y-84042276D01*
X122631200Y-83920955D01*
X122631200Y-82727800D01*
X122611200Y-82727800D01*
X122611200Y-82473800D01*
X122631200Y-82473800D01*
X122631200Y-82453800D01*
X122885200Y-82453800D01*
X122885200Y-82473800D01*
X122905200Y-82473800D01*
X122905200Y-82727800D01*
X122885200Y-82727800D01*
X122885200Y-83920955D01*
X123115090Y-84042276D01*
X123242801Y-84003539D01*
X123242800Y-90362689D01*
X123239124Y-90400011D01*
X123242800Y-90437333D01*
X123242800Y-90437343D01*
X123253797Y-90548996D01*
X123279878Y-90634975D01*
X123297254Y-90692257D01*
X123367826Y-90824287D01*
X123399107Y-90862402D01*
X123462799Y-90940012D01*
X123491803Y-90963815D01*
X152164990Y-119637003D01*
X152188788Y-119666001D01*
X152304513Y-119760974D01*
X152436542Y-119831546D01*
X152579803Y-119875003D01*
X152691456Y-119886000D01*
X152691465Y-119886000D01*
X152728788Y-119889676D01*
X152766111Y-119886000D01*
X152803524Y-119886000D01*
X152925931Y-120115006D01*
X153113203Y-120343197D01*
X153341395Y-120530469D01*
X153601737Y-120669625D01*
X153884224Y-120755316D01*
X154178000Y-120784251D01*
X154471777Y-120755316D01*
X154754264Y-120669625D01*
X155014606Y-120530469D01*
X155242797Y-120343197D01*
X155430069Y-120115006D01*
X155448000Y-120081459D01*
X155465931Y-120115006D01*
X155653203Y-120343197D01*
X155881395Y-120530469D01*
X156141737Y-120669625D01*
X156424224Y-120755316D01*
X156718000Y-120784251D01*
X157011777Y-120755316D01*
X157294264Y-120669625D01*
X157554606Y-120530469D01*
X157782797Y-120343197D01*
X157970069Y-120115006D01*
X157988000Y-120081459D01*
X158005931Y-120115006D01*
X158193203Y-120343197D01*
X158421395Y-120530469D01*
X158681737Y-120669625D01*
X158964224Y-120755316D01*
X159258000Y-120784251D01*
X159551777Y-120755316D01*
X159834264Y-120669625D01*
X160094606Y-120530469D01*
X160322797Y-120343197D01*
X160510069Y-120115006D01*
X160528000Y-120081459D01*
X160545931Y-120115006D01*
X160733203Y-120343197D01*
X160961395Y-120530469D01*
X161221737Y-120669625D01*
X161504224Y-120755316D01*
X161798000Y-120784251D01*
X162091777Y-120755316D01*
X162374264Y-120669625D01*
X162634606Y-120530469D01*
X162862797Y-120343197D01*
X163050069Y-120115006D01*
X163068000Y-120081459D01*
X163085931Y-120115006D01*
X163273203Y-120343197D01*
X163501395Y-120530469D01*
X163761737Y-120669625D01*
X164044224Y-120755316D01*
X164338000Y-120784251D01*
X164631777Y-120755316D01*
X164914264Y-120669625D01*
X165174606Y-120530469D01*
X165402797Y-120343197D01*
X165590069Y-120115006D01*
X165608000Y-120081459D01*
X165625931Y-120115006D01*
X165813203Y-120343197D01*
X166041395Y-120530469D01*
X166301737Y-120669625D01*
X166584224Y-120755316D01*
X166878000Y-120784251D01*
X167171777Y-120755316D01*
X167454264Y-120669625D01*
X167714606Y-120530469D01*
X167942797Y-120343197D01*
X168130069Y-120115006D01*
X168148000Y-120081459D01*
X168165931Y-120115006D01*
X168353203Y-120343197D01*
X168581395Y-120530469D01*
X168841737Y-120669625D01*
X169124224Y-120755316D01*
X169418000Y-120784251D01*
X169711777Y-120755316D01*
X169994264Y-120669625D01*
X170254606Y-120530469D01*
X170482797Y-120343197D01*
X170670069Y-120115006D01*
X170688000Y-120081459D01*
X170705931Y-120115006D01*
X170893203Y-120343197D01*
X171121395Y-120530469D01*
X171381737Y-120669625D01*
X171664224Y-120755316D01*
X171958000Y-120784251D01*
X172251777Y-120755316D01*
X172534264Y-120669625D01*
X172794606Y-120530469D01*
X173022797Y-120343197D01*
X173210069Y-120115006D01*
X173349225Y-119854663D01*
X173434916Y-119572176D01*
X173456600Y-119352018D01*
X173456600Y-118899981D01*
X173434916Y-118679823D01*
X173349225Y-118397336D01*
X173210069Y-118136994D01*
X173022797Y-117908803D01*
X172794605Y-117721531D01*
X172534263Y-117582375D01*
X172251776Y-117496684D01*
X171958000Y-117467749D01*
X171664223Y-117496684D01*
X171381736Y-117582375D01*
X171121394Y-117721531D01*
X170893203Y-117908803D01*
X170705931Y-118136995D01*
X170688000Y-118170541D01*
X170670069Y-118136994D01*
X170482797Y-117908803D01*
X170254605Y-117721531D01*
X169994263Y-117582375D01*
X169711776Y-117496684D01*
X169418000Y-117467749D01*
X169124223Y-117496684D01*
X168841736Y-117582375D01*
X168581394Y-117721531D01*
X168353203Y-117908803D01*
X168165931Y-118136995D01*
X168148000Y-118170541D01*
X168130069Y-118136994D01*
X167942797Y-117908803D01*
X167714605Y-117721531D01*
X167454263Y-117582375D01*
X167171776Y-117496684D01*
X166878000Y-117467749D01*
X166584223Y-117496684D01*
X166301736Y-117582375D01*
X166041394Y-117721531D01*
X165813203Y-117908803D01*
X165625931Y-118136995D01*
X165608000Y-118170541D01*
X165590069Y-118136994D01*
X165402797Y-117908803D01*
X165174605Y-117721531D01*
X164914263Y-117582375D01*
X164631776Y-117496684D01*
X164338000Y-117467749D01*
X164044223Y-117496684D01*
X163761736Y-117582375D01*
X163501394Y-117721531D01*
X163273203Y-117908803D01*
X163085931Y-118136995D01*
X163068000Y-118170541D01*
X163050069Y-118136994D01*
X162862797Y-117908803D01*
X162634605Y-117721531D01*
X162374263Y-117582375D01*
X162091776Y-117496684D01*
X161798000Y-117467749D01*
X161504223Y-117496684D01*
X161421101Y-117521899D01*
X150042804Y-106143603D01*
X150019001Y-106114599D01*
X149903276Y-106019626D01*
X149771247Y-105949054D01*
X149627986Y-105905597D01*
X149516333Y-105894600D01*
X149516322Y-105894600D01*
X149479000Y-105890924D01*
X149441678Y-105894600D01*
X146793076Y-105894600D01*
X146796668Y-105885929D01*
X146832600Y-105705289D01*
X146832600Y-105521111D01*
X146796668Y-105340471D01*
X146726186Y-105170311D01*
X146657600Y-105067665D01*
X146657600Y-104493924D01*
X146661276Y-104456601D01*
X146657600Y-104419278D01*
X146657600Y-104419269D01*
X146646603Y-104307616D01*
X146603146Y-104164355D01*
X146532574Y-104032326D01*
X146437601Y-103916601D01*
X146408597Y-103892798D01*
X146163403Y-103647604D01*
X146163398Y-103647598D01*
X137393201Y-94877402D01*
X137393201Y-94802311D01*
X142219400Y-94802311D01*
X142219400Y-94986489D01*
X142255332Y-95167129D01*
X142325814Y-95337289D01*
X142428138Y-95490428D01*
X142558372Y-95620662D01*
X142711511Y-95722986D01*
X142881671Y-95793468D01*
X143002752Y-95817553D01*
X163571000Y-116385802D01*
X163594799Y-116414801D01*
X163623797Y-116438599D01*
X163710524Y-116509774D01*
X163842553Y-116580346D01*
X163985814Y-116623803D01*
X164134800Y-116638477D01*
X164172133Y-116634800D01*
X172358399Y-116634800D01*
X175360601Y-119637003D01*
X175384399Y-119666001D01*
X175413397Y-119689799D01*
X175500123Y-119760974D01*
X175607561Y-119818401D01*
X175632153Y-119831546D01*
X175640533Y-119834088D01*
X175646775Y-119854664D01*
X175785931Y-120115006D01*
X175973203Y-120343197D01*
X176201395Y-120530469D01*
X176461737Y-120669625D01*
X176744224Y-120755316D01*
X177038000Y-120784251D01*
X177331777Y-120755316D01*
X177614264Y-120669625D01*
X177874606Y-120530469D01*
X178102797Y-120343197D01*
X178290069Y-120115006D01*
X178308000Y-120081459D01*
X178325931Y-120115006D01*
X178513203Y-120343197D01*
X178741395Y-120530469D01*
X179001737Y-120669625D01*
X179284224Y-120755316D01*
X179578000Y-120784251D01*
X179871777Y-120755316D01*
X180154264Y-120669625D01*
X180414606Y-120530469D01*
X180642797Y-120343197D01*
X180830069Y-120115006D01*
X180848000Y-120081459D01*
X180865931Y-120115006D01*
X181053203Y-120343197D01*
X181281395Y-120530469D01*
X181541737Y-120669625D01*
X181824224Y-120755316D01*
X182118000Y-120784251D01*
X182411777Y-120755316D01*
X182694264Y-120669625D01*
X182954606Y-120530469D01*
X183182797Y-120343197D01*
X183370069Y-120115006D01*
X183388000Y-120081459D01*
X183405931Y-120115006D01*
X183593203Y-120343197D01*
X183821395Y-120530469D01*
X184081737Y-120669625D01*
X184364224Y-120755316D01*
X184658000Y-120784251D01*
X184951777Y-120755316D01*
X185234264Y-120669625D01*
X185494606Y-120530469D01*
X185722797Y-120343197D01*
X185910069Y-120115006D01*
X185928000Y-120081459D01*
X185945931Y-120115006D01*
X186133203Y-120343197D01*
X186361395Y-120530469D01*
X186621737Y-120669625D01*
X186904224Y-120755316D01*
X187198000Y-120784251D01*
X187491777Y-120755316D01*
X187774264Y-120669625D01*
X188034606Y-120530469D01*
X188262797Y-120343197D01*
X188450069Y-120115006D01*
X188468000Y-120081459D01*
X188485931Y-120115006D01*
X188673203Y-120343197D01*
X188901395Y-120530469D01*
X189161737Y-120669625D01*
X189444224Y-120755316D01*
X189738000Y-120784251D01*
X190031777Y-120755316D01*
X190314264Y-120669625D01*
X190574606Y-120530469D01*
X190802797Y-120343197D01*
X190990069Y-120115006D01*
X191008000Y-120081459D01*
X191025931Y-120115006D01*
X191213203Y-120343197D01*
X191441395Y-120530469D01*
X191701737Y-120669625D01*
X191984224Y-120755316D01*
X192278000Y-120784251D01*
X192571777Y-120755316D01*
X192854264Y-120669625D01*
X193114606Y-120530469D01*
X193342797Y-120343197D01*
X193530069Y-120115006D01*
X193548000Y-120081459D01*
X193565931Y-120115006D01*
X193753203Y-120343197D01*
X193981395Y-120530469D01*
X194241737Y-120669625D01*
X194524224Y-120755316D01*
X194818000Y-120784251D01*
X195111777Y-120755316D01*
X195394264Y-120669625D01*
X195654606Y-120530469D01*
X195882797Y-120343197D01*
X196070069Y-120115006D01*
X196209225Y-119854663D01*
X196294916Y-119572176D01*
X196316600Y-119352018D01*
X196316600Y-118899981D01*
X196294916Y-118679823D01*
X196209225Y-118397336D01*
X196070069Y-118136994D01*
X195882797Y-117908803D01*
X195654605Y-117721531D01*
X195394263Y-117582375D01*
X195111776Y-117496684D01*
X194818000Y-117467749D01*
X194524223Y-117496684D01*
X194241736Y-117582375D01*
X193981394Y-117721531D01*
X193753203Y-117908803D01*
X193565931Y-118136995D01*
X193548000Y-118170541D01*
X193530069Y-118136994D01*
X193342797Y-117908803D01*
X193114605Y-117721531D01*
X192854263Y-117582375D01*
X192571776Y-117496684D01*
X192278000Y-117467749D01*
X191984223Y-117496684D01*
X191701736Y-117582375D01*
X191441394Y-117721531D01*
X191213203Y-117908803D01*
X191025931Y-118136995D01*
X191008000Y-118170541D01*
X190990069Y-118136994D01*
X190802797Y-117908803D01*
X190574605Y-117721531D01*
X190314263Y-117582375D01*
X190031776Y-117496684D01*
X189738000Y-117467749D01*
X189444223Y-117496684D01*
X189161736Y-117582375D01*
X188901394Y-117721531D01*
X188673203Y-117908803D01*
X188485931Y-118136995D01*
X188468000Y-118170541D01*
X188450069Y-118136994D01*
X188262797Y-117908803D01*
X188034605Y-117721531D01*
X187774263Y-117582375D01*
X187491776Y-117496684D01*
X187198000Y-117467749D01*
X186904223Y-117496684D01*
X186621736Y-117582375D01*
X186361394Y-117721531D01*
X186133203Y-117908803D01*
X185945931Y-118136995D01*
X185928000Y-118170541D01*
X185910069Y-118136994D01*
X185722797Y-117908803D01*
X185494605Y-117721531D01*
X185234263Y-117582375D01*
X184951776Y-117496684D01*
X184658000Y-117467749D01*
X184364223Y-117496684D01*
X184081736Y-117582375D01*
X183821394Y-117721531D01*
X183593203Y-117908803D01*
X183405931Y-118136995D01*
X183388000Y-118170541D01*
X183370069Y-118136994D01*
X183182797Y-117908803D01*
X182954605Y-117721531D01*
X182694263Y-117582375D01*
X182411776Y-117496684D01*
X182118000Y-117467749D01*
X181824223Y-117496684D01*
X181541736Y-117582375D01*
X181281394Y-117721531D01*
X181053203Y-117908803D01*
X180865931Y-118136995D01*
X180848000Y-118170541D01*
X180830069Y-118136994D01*
X180642797Y-117908803D01*
X180414605Y-117721531D01*
X180154263Y-117582375D01*
X179871776Y-117496684D01*
X179578000Y-117467749D01*
X179284223Y-117496684D01*
X179001736Y-117582375D01*
X178741394Y-117721531D01*
X178513203Y-117908803D01*
X178325931Y-118136995D01*
X178308000Y-118170541D01*
X178290069Y-118136994D01*
X178102797Y-117908803D01*
X177874605Y-117721531D01*
X177614263Y-117582375D01*
X177331776Y-117496684D01*
X177038000Y-117467749D01*
X176744223Y-117496684D01*
X176461736Y-117582375D01*
X176201394Y-117721531D01*
X175973203Y-117908803D01*
X175887020Y-118013818D01*
X173237004Y-115363803D01*
X173213201Y-115334799D01*
X173097476Y-115239826D01*
X172965447Y-115169254D01*
X172822186Y-115125797D01*
X172710533Y-115114800D01*
X172710522Y-115114800D01*
X172673200Y-115111124D01*
X172635878Y-115114800D01*
X164449602Y-115114800D01*
X164418906Y-115084104D01*
X196499501Y-115084104D01*
X196578782Y-115334567D01*
X196845141Y-115461826D01*
X197131210Y-115534675D01*
X197425993Y-115550315D01*
X197718164Y-115508145D01*
X197996493Y-115409786D01*
X198137218Y-115334567D01*
X198216499Y-115084104D01*
X197358000Y-114225605D01*
X196499501Y-115084104D01*
X164418906Y-115084104D01*
X163448795Y-114113993D01*
X195853685Y-114113993D01*
X195895855Y-114406164D01*
X195994214Y-114684493D01*
X196069433Y-114825218D01*
X196319896Y-114904499D01*
X197178395Y-114046000D01*
X196319896Y-113187501D01*
X196069433Y-113266782D01*
X195942174Y-113533141D01*
X195869325Y-113819210D01*
X195853685Y-114113993D01*
X163448795Y-114113993D01*
X144077553Y-94742752D01*
X144053468Y-94621671D01*
X143982986Y-94451511D01*
X143880662Y-94298372D01*
X143750428Y-94168138D01*
X143597289Y-94065814D01*
X143427129Y-93995332D01*
X143246489Y-93959400D01*
X143062311Y-93959400D01*
X142881671Y-93995332D01*
X142711511Y-94065814D01*
X142558372Y-94168138D01*
X142428138Y-94298372D01*
X142325814Y-94451511D01*
X142255332Y-94621671D01*
X142219400Y-94802311D01*
X137393201Y-94802311D01*
X137393201Y-93066891D01*
X143973519Y-93066891D01*
X144070843Y-93341252D01*
X144219822Y-93591355D01*
X144414731Y-93807588D01*
X144648080Y-93981641D01*
X144910901Y-94106825D01*
X145058110Y-94151476D01*
X145288000Y-94030155D01*
X145288000Y-92837000D01*
X144094186Y-92837000D01*
X143973519Y-93066891D01*
X137393201Y-93066891D01*
X137393201Y-91020000D01*
X143926928Y-91020000D01*
X143939188Y-91144482D01*
X143975498Y-91264180D01*
X144034463Y-91374494D01*
X144113815Y-91471185D01*
X144210506Y-91550537D01*
X144320820Y-91609502D01*
X144396626Y-91632498D01*
X144219822Y-91828645D01*
X144070843Y-92078748D01*
X143973519Y-92353109D01*
X144094186Y-92583000D01*
X145288000Y-92583000D01*
X145288000Y-90297000D01*
X144088750Y-90297000D01*
X143930000Y-90455750D01*
X143926928Y-91020000D01*
X137393201Y-91020000D01*
X137393201Y-89320000D01*
X143926928Y-89320000D01*
X143930000Y-89884250D01*
X144088750Y-90043000D01*
X145288000Y-90043000D01*
X145288000Y-88843750D01*
X145129250Y-88685000D01*
X144565000Y-88681928D01*
X144440518Y-88694188D01*
X144320820Y-88730498D01*
X144210506Y-88789463D01*
X144113815Y-88868815D01*
X144034463Y-88965506D01*
X143975498Y-89075820D01*
X143939188Y-89195518D01*
X143926928Y-89320000D01*
X137393201Y-89320000D01*
X137393201Y-83961244D01*
X137427166Y-83979399D01*
X137707089Y-84064313D01*
X137925250Y-84085800D01*
X138071150Y-84085800D01*
X138289311Y-84064313D01*
X138569234Y-83979399D01*
X138827214Y-83841506D01*
X139053334Y-83655934D01*
X139238906Y-83429814D01*
X139268200Y-83375009D01*
X139297494Y-83429814D01*
X139483066Y-83655934D01*
X139709186Y-83841506D01*
X139967166Y-83979399D01*
X140247089Y-84064313D01*
X140465250Y-84085800D01*
X140611150Y-84085800D01*
X140829311Y-84064313D01*
X141109234Y-83979399D01*
X141367214Y-83841506D01*
X141593334Y-83655934D01*
X141778906Y-83429814D01*
X141808200Y-83375009D01*
X141837494Y-83429814D01*
X142023066Y-83655934D01*
X142249186Y-83841506D01*
X142507166Y-83979399D01*
X142787089Y-84064313D01*
X143005250Y-84085800D01*
X143151150Y-84085800D01*
X143369311Y-84064313D01*
X143649234Y-83979399D01*
X143907214Y-83841506D01*
X144133334Y-83655934D01*
X144318906Y-83429814D01*
X144348200Y-83375009D01*
X144377494Y-83429814D01*
X144563066Y-83655934D01*
X144789186Y-83841506D01*
X145047166Y-83979399D01*
X145327089Y-84064313D01*
X145545250Y-84085800D01*
X145691150Y-84085800D01*
X145909311Y-84064313D01*
X146189234Y-83979399D01*
X146447214Y-83841506D01*
X146673334Y-83655934D01*
X146858906Y-83429814D01*
X146888200Y-83375009D01*
X146917494Y-83429814D01*
X147103066Y-83655934D01*
X147329186Y-83841506D01*
X147587166Y-83979399D01*
X147867089Y-84064313D01*
X148085250Y-84085800D01*
X148231150Y-84085800D01*
X148449311Y-84064313D01*
X148729234Y-83979399D01*
X148987214Y-83841506D01*
X149213334Y-83655934D01*
X149398906Y-83429814D01*
X149428200Y-83375009D01*
X149457494Y-83429814D01*
X149643066Y-83655934D01*
X149869186Y-83841506D01*
X150127166Y-83979399D01*
X150407089Y-84064313D01*
X150625250Y-84085800D01*
X150771150Y-84085800D01*
X150989311Y-84064313D01*
X151269234Y-83979399D01*
X151527214Y-83841506D01*
X151753334Y-83655934D01*
X151938906Y-83429814D01*
X151968200Y-83375009D01*
X151997494Y-83429814D01*
X152183066Y-83655934D01*
X152409186Y-83841506D01*
X152667166Y-83979399D01*
X152947089Y-84064313D01*
X153165250Y-84085800D01*
X153311150Y-84085800D01*
X153529311Y-84064313D01*
X153809234Y-83979399D01*
X154067214Y-83841506D01*
X154293334Y-83655934D01*
X154478906Y-83429814D01*
X154508200Y-83375009D01*
X154537494Y-83429814D01*
X154723066Y-83655934D01*
X154949186Y-83841506D01*
X155207166Y-83979399D01*
X155487089Y-84064313D01*
X155705250Y-84085800D01*
X155851150Y-84085800D01*
X156069311Y-84064313D01*
X156349234Y-83979399D01*
X156607214Y-83841506D01*
X156833334Y-83655934D01*
X157018906Y-83429814D01*
X157048200Y-83375009D01*
X157077494Y-83429814D01*
X157263066Y-83655934D01*
X157489186Y-83841506D01*
X157747166Y-83979399D01*
X158027089Y-84064313D01*
X158245250Y-84085800D01*
X158391150Y-84085800D01*
X158609311Y-84064313D01*
X158889234Y-83979399D01*
X159147214Y-83841506D01*
X159373334Y-83655934D01*
X159558906Y-83429814D01*
X159588200Y-83375009D01*
X159617494Y-83429814D01*
X159803066Y-83655934D01*
X160029186Y-83841506D01*
X160287166Y-83979399D01*
X160567089Y-84064313D01*
X160785250Y-84085800D01*
X160931150Y-84085800D01*
X161149311Y-84064313D01*
X161429234Y-83979399D01*
X161687214Y-83841506D01*
X161913334Y-83655934D01*
X162098906Y-83429814D01*
X162128200Y-83375009D01*
X162157494Y-83429814D01*
X162343066Y-83655934D01*
X162569186Y-83841506D01*
X162827166Y-83979399D01*
X163107089Y-84064313D01*
X163325250Y-84085800D01*
X163471150Y-84085800D01*
X163689311Y-84064313D01*
X163969234Y-83979399D01*
X164227214Y-83841506D01*
X164453334Y-83655934D01*
X164638906Y-83429814D01*
X164776799Y-83171834D01*
X164861713Y-82891911D01*
X164890385Y-82600800D01*
X164861713Y-82309689D01*
X164776799Y-82029766D01*
X164638906Y-81771786D01*
X164453334Y-81545666D01*
X164227214Y-81360094D01*
X164172409Y-81330800D01*
X164227214Y-81301506D01*
X164453334Y-81115934D01*
X164638906Y-80889814D01*
X164776799Y-80631834D01*
X164861713Y-80351911D01*
X164890385Y-80060800D01*
X164861713Y-79769689D01*
X164776799Y-79489766D01*
X164638906Y-79231786D01*
X164453334Y-79005666D01*
X164227214Y-78820094D01*
X163969234Y-78682201D01*
X163689311Y-78597287D01*
X163471150Y-78575800D01*
X163325250Y-78575800D01*
X163107089Y-78597287D01*
X162827166Y-78682201D01*
X162569186Y-78820094D01*
X162343066Y-79005666D01*
X162157494Y-79231786D01*
X162128200Y-79286591D01*
X162098906Y-79231786D01*
X161913334Y-79005666D01*
X161687214Y-78820094D01*
X161429234Y-78682201D01*
X161149311Y-78597287D01*
X160931150Y-78575800D01*
X160785250Y-78575800D01*
X160567089Y-78597287D01*
X160287166Y-78682201D01*
X160029186Y-78820094D01*
X159803066Y-79005666D01*
X159617494Y-79231786D01*
X159588200Y-79286591D01*
X159558906Y-79231786D01*
X159373334Y-79005666D01*
X159147214Y-78820094D01*
X158889234Y-78682201D01*
X158609311Y-78597287D01*
X158391150Y-78575800D01*
X158245250Y-78575800D01*
X158027089Y-78597287D01*
X157747166Y-78682201D01*
X157489186Y-78820094D01*
X157263066Y-79005666D01*
X157077494Y-79231786D01*
X157048200Y-79286591D01*
X157018906Y-79231786D01*
X156833334Y-79005666D01*
X156607214Y-78820094D01*
X156349234Y-78682201D01*
X156069311Y-78597287D01*
X155851150Y-78575800D01*
X155705250Y-78575800D01*
X155487089Y-78597287D01*
X155207166Y-78682201D01*
X154949186Y-78820094D01*
X154723066Y-79005666D01*
X154537494Y-79231786D01*
X154508200Y-79286591D01*
X154478906Y-79231786D01*
X154293334Y-79005666D01*
X154067214Y-78820094D01*
X153809234Y-78682201D01*
X153529311Y-78597287D01*
X153311150Y-78575800D01*
X153165250Y-78575800D01*
X152947089Y-78597287D01*
X152667166Y-78682201D01*
X152409186Y-78820094D01*
X152183066Y-79005666D01*
X151997494Y-79231786D01*
X151968200Y-79286591D01*
X151938906Y-79231786D01*
X151753334Y-79005666D01*
X151527214Y-78820094D01*
X151269234Y-78682201D01*
X150989311Y-78597287D01*
X150771150Y-78575800D01*
X150625250Y-78575800D01*
X150407089Y-78597287D01*
X150127166Y-78682201D01*
X149869186Y-78820094D01*
X149643066Y-79005666D01*
X149457494Y-79231786D01*
X149428200Y-79286591D01*
X149398906Y-79231786D01*
X149213334Y-79005666D01*
X148987214Y-78820094D01*
X148729234Y-78682201D01*
X148449311Y-78597287D01*
X148231150Y-78575800D01*
X148085250Y-78575800D01*
X147867089Y-78597287D01*
X147587166Y-78682201D01*
X147329186Y-78820094D01*
X147103066Y-79005666D01*
X146917494Y-79231786D01*
X146888200Y-79286591D01*
X146858906Y-79231786D01*
X146673334Y-79005666D01*
X146447214Y-78820094D01*
X146189234Y-78682201D01*
X145909311Y-78597287D01*
X145691150Y-78575800D01*
X145545250Y-78575800D01*
X145327089Y-78597287D01*
X145047166Y-78682201D01*
X144789186Y-78820094D01*
X144563066Y-79005666D01*
X144377494Y-79231786D01*
X144348200Y-79286591D01*
X144318906Y-79231786D01*
X144133334Y-79005666D01*
X143907214Y-78820094D01*
X143649234Y-78682201D01*
X143369311Y-78597287D01*
X143151150Y-78575800D01*
X143005250Y-78575800D01*
X142787089Y-78597287D01*
X142507166Y-78682201D01*
X142249186Y-78820094D01*
X142023066Y-79005666D01*
X141837494Y-79231786D01*
X141808200Y-79286591D01*
X141778906Y-79231786D01*
X141593334Y-79005666D01*
X141367214Y-78820094D01*
X141109234Y-78682201D01*
X140829311Y-78597287D01*
X140611150Y-78575800D01*
X140465250Y-78575800D01*
X140247089Y-78597287D01*
X139967166Y-78682201D01*
X139709186Y-78820094D01*
X139483066Y-79005666D01*
X139297494Y-79231786D01*
X139268200Y-79286591D01*
X139238906Y-79231786D01*
X139053334Y-79005666D01*
X138827214Y-78820094D01*
X138569234Y-78682201D01*
X138289311Y-78597287D01*
X138071150Y-78575800D01*
X137925250Y-78575800D01*
X137707089Y-78597287D01*
X137427166Y-78682201D01*
X137169186Y-78820094D01*
X136943066Y-79005666D01*
X136757494Y-79231786D01*
X136728200Y-79286591D01*
X136698906Y-79231786D01*
X136513334Y-79005666D01*
X136287214Y-78820094D01*
X136029234Y-78682201D01*
X135749311Y-78597287D01*
X135531150Y-78575800D01*
X135385250Y-78575800D01*
X135167089Y-78597287D01*
X134887166Y-78682201D01*
X134629186Y-78820094D01*
X134403066Y-79005666D01*
X134217494Y-79231786D01*
X134188200Y-79286591D01*
X134158906Y-79231786D01*
X133973334Y-79005666D01*
X133747214Y-78820094D01*
X133489234Y-78682201D01*
X133209311Y-78597287D01*
X132991150Y-78575800D01*
X132845250Y-78575800D01*
X132627089Y-78597287D01*
X132347166Y-78682201D01*
X132089186Y-78820094D01*
X131863066Y-79005666D01*
X131677494Y-79231786D01*
X131648200Y-79286591D01*
X131618906Y-79231786D01*
X131433334Y-79005666D01*
X131207214Y-78820094D01*
X130949234Y-78682201D01*
X130669311Y-78597287D01*
X130451150Y-78575800D01*
X130305250Y-78575800D01*
X130087089Y-78597287D01*
X129807166Y-78682201D01*
X129549186Y-78820094D01*
X129323066Y-79005666D01*
X129137494Y-79231786D01*
X129108200Y-79286591D01*
X129078906Y-79231786D01*
X128893334Y-79005666D01*
X128667214Y-78820094D01*
X128409234Y-78682201D01*
X128129311Y-78597287D01*
X127911150Y-78575800D01*
X127765250Y-78575800D01*
X127547089Y-78597287D01*
X127472205Y-78620003D01*
X126166804Y-77314603D01*
X126143001Y-77285599D01*
X126027276Y-77190626D01*
X125895247Y-77120054D01*
X125751986Y-77076597D01*
X125640333Y-77065600D01*
X125640322Y-77065600D01*
X125603000Y-77061924D01*
X125565678Y-77065600D01*
X124852925Y-77065600D01*
X124815600Y-77061924D01*
X124778275Y-77065600D01*
X124778267Y-77065600D01*
X124666614Y-77076597D01*
X124523353Y-77120054D01*
X124391324Y-77190626D01*
X124275599Y-77285599D01*
X124251801Y-77314598D01*
X123491798Y-78074601D01*
X123462800Y-78098399D01*
X123439002Y-78127397D01*
X123439001Y-78127398D01*
X123367826Y-78214124D01*
X123297254Y-78346154D01*
X123266980Y-78445958D01*
X123254834Y-78486001D01*
X123253798Y-78489415D01*
X123239124Y-78638400D01*
X123240796Y-78655373D01*
X123049311Y-78597287D01*
X122831150Y-78575800D01*
X122685250Y-78575800D01*
X122467089Y-78597287D01*
X122187166Y-78682201D01*
X121929186Y-78820094D01*
X121703066Y-79005666D01*
X121678593Y-79035487D01*
X121657702Y-78966620D01*
X121598737Y-78856306D01*
X121519385Y-78759615D01*
X121422694Y-78680263D01*
X121312380Y-78621298D01*
X121192682Y-78584988D01*
X121068200Y-78572728D01*
X119368200Y-78572728D01*
X119243718Y-78584988D01*
X119124020Y-78621298D01*
X119013706Y-78680263D01*
X118917015Y-78759615D01*
X118837663Y-78856306D01*
X118778698Y-78966620D01*
X118742388Y-79086318D01*
X118730128Y-79210800D01*
X118730128Y-80910800D01*
X118742388Y-81035282D01*
X118777845Y-81152167D01*
X117094000Y-79468324D01*
X117094000Y-78722876D01*
X119286678Y-76530200D01*
X189247124Y-76530200D01*
X190195200Y-77478278D01*
X190195200Y-82680216D01*
X190163129Y-82666932D01*
X189982489Y-82631000D01*
X189798311Y-82631000D01*
X189617671Y-82666932D01*
X189447511Y-82737414D01*
X189294372Y-82839738D01*
X189164138Y-82969972D01*
X189061814Y-83123111D01*
X188991332Y-83293271D01*
X188967248Y-83414349D01*
X187816375Y-84565223D01*
X187899586Y-84440689D01*
X187970068Y-84270529D01*
X188006000Y-84089889D01*
X188006000Y-83905711D01*
X187970068Y-83725071D01*
X187899586Y-83554911D01*
X187808739Y-83418948D01*
X187870228Y-83377862D01*
X188000462Y-83247628D01*
X188102786Y-83094489D01*
X188173268Y-82924329D01*
X188209200Y-82743689D01*
X188209200Y-82559511D01*
X188173268Y-82378871D01*
X188102786Y-82208711D01*
X188000462Y-82055572D01*
X187870228Y-81925338D01*
X187717089Y-81823014D01*
X187546929Y-81752532D01*
X187366289Y-81716600D01*
X187182111Y-81716600D01*
X187001471Y-81752532D01*
X186831311Y-81823014D01*
X186728665Y-81891600D01*
X178370722Y-81891600D01*
X178333399Y-81887924D01*
X178296076Y-81891600D01*
X178296067Y-81891600D01*
X178184414Y-81902597D01*
X178041153Y-81946054D01*
X177909124Y-82016626D01*
X177793399Y-82111599D01*
X177769601Y-82140597D01*
X171180996Y-88729203D01*
X171106111Y-88706487D01*
X170887950Y-88685000D01*
X170742050Y-88685000D01*
X170523889Y-88706487D01*
X170243966Y-88791401D01*
X169985986Y-88929294D01*
X169759866Y-89114866D01*
X169574294Y-89340986D01*
X169545000Y-89395791D01*
X169515706Y-89340986D01*
X169330134Y-89114866D01*
X169104014Y-88929294D01*
X168846034Y-88791401D01*
X168566111Y-88706487D01*
X168347950Y-88685000D01*
X168202050Y-88685000D01*
X167983889Y-88706487D01*
X167703966Y-88791401D01*
X167445986Y-88929294D01*
X167219866Y-89114866D01*
X167034294Y-89340986D01*
X167005000Y-89395791D01*
X166975706Y-89340986D01*
X166790134Y-89114866D01*
X166564014Y-88929294D01*
X166306034Y-88791401D01*
X166026111Y-88706487D01*
X165807950Y-88685000D01*
X165662050Y-88685000D01*
X165443889Y-88706487D01*
X165163966Y-88791401D01*
X164905986Y-88929294D01*
X164679866Y-89114866D01*
X164494294Y-89340986D01*
X164465000Y-89395791D01*
X164435706Y-89340986D01*
X164250134Y-89114866D01*
X164024014Y-88929294D01*
X163766034Y-88791401D01*
X163486111Y-88706487D01*
X163267950Y-88685000D01*
X163122050Y-88685000D01*
X162903889Y-88706487D01*
X162623966Y-88791401D01*
X162365986Y-88929294D01*
X162139866Y-89114866D01*
X161954294Y-89340986D01*
X161925000Y-89395791D01*
X161895706Y-89340986D01*
X161710134Y-89114866D01*
X161484014Y-88929294D01*
X161226034Y-88791401D01*
X160946111Y-88706487D01*
X160727950Y-88685000D01*
X160582050Y-88685000D01*
X160363889Y-88706487D01*
X160083966Y-88791401D01*
X159825986Y-88929294D01*
X159599866Y-89114866D01*
X159414294Y-89340986D01*
X159385000Y-89395791D01*
X159355706Y-89340986D01*
X159170134Y-89114866D01*
X158944014Y-88929294D01*
X158686034Y-88791401D01*
X158406111Y-88706487D01*
X158187950Y-88685000D01*
X158042050Y-88685000D01*
X157823889Y-88706487D01*
X157543966Y-88791401D01*
X157285986Y-88929294D01*
X157059866Y-89114866D01*
X156874294Y-89340986D01*
X156845000Y-89395791D01*
X156815706Y-89340986D01*
X156630134Y-89114866D01*
X156404014Y-88929294D01*
X156146034Y-88791401D01*
X155866111Y-88706487D01*
X155647950Y-88685000D01*
X155502050Y-88685000D01*
X155283889Y-88706487D01*
X155003966Y-88791401D01*
X154745986Y-88929294D01*
X154519866Y-89114866D01*
X154334294Y-89340986D01*
X154305000Y-89395791D01*
X154275706Y-89340986D01*
X154090134Y-89114866D01*
X153864014Y-88929294D01*
X153606034Y-88791401D01*
X153326111Y-88706487D01*
X153107950Y-88685000D01*
X152962050Y-88685000D01*
X152743889Y-88706487D01*
X152463966Y-88791401D01*
X152205986Y-88929294D01*
X151979866Y-89114866D01*
X151794294Y-89340986D01*
X151765000Y-89395791D01*
X151735706Y-89340986D01*
X151550134Y-89114866D01*
X151324014Y-88929294D01*
X151066034Y-88791401D01*
X150786111Y-88706487D01*
X150567950Y-88685000D01*
X150422050Y-88685000D01*
X150203889Y-88706487D01*
X149923966Y-88791401D01*
X149665986Y-88929294D01*
X149439866Y-89114866D01*
X149254294Y-89340986D01*
X149225000Y-89395791D01*
X149195706Y-89340986D01*
X149010134Y-89114866D01*
X148784014Y-88929294D01*
X148526034Y-88791401D01*
X148246111Y-88706487D01*
X148027950Y-88685000D01*
X147882050Y-88685000D01*
X147663889Y-88706487D01*
X147383966Y-88791401D01*
X147125986Y-88929294D01*
X146899866Y-89114866D01*
X146875393Y-89144687D01*
X146854502Y-89075820D01*
X146795537Y-88965506D01*
X146716185Y-88868815D01*
X146619494Y-88789463D01*
X146509180Y-88730498D01*
X146389482Y-88694188D01*
X146265000Y-88681928D01*
X145700750Y-88685000D01*
X145542000Y-88843750D01*
X145542000Y-90043000D01*
X145562000Y-90043000D01*
X145562000Y-90297000D01*
X145542000Y-90297000D01*
X145542000Y-92583000D01*
X145562000Y-92583000D01*
X145562000Y-92837000D01*
X145542000Y-92837000D01*
X145542000Y-94030155D01*
X145771890Y-94151476D01*
X145919099Y-94106825D01*
X146181920Y-93981641D01*
X146415269Y-93807588D01*
X146610178Y-93591355D01*
X146679799Y-93474477D01*
X146714294Y-93539014D01*
X146899866Y-93765134D01*
X147125986Y-93950706D01*
X147195001Y-93987595D01*
X147195001Y-94450668D01*
X147191324Y-94488000D01*
X147195001Y-94525333D01*
X147197141Y-94547055D01*
X147205998Y-94636985D01*
X147249454Y-94780246D01*
X147320026Y-94912276D01*
X147380932Y-94986489D01*
X147415000Y-95028001D01*
X147443998Y-95051799D01*
X163057801Y-110665603D01*
X163081600Y-110694602D01*
X163110598Y-110718400D01*
X163197325Y-110789575D01*
X163329354Y-110860147D01*
X163472615Y-110903604D01*
X163621601Y-110918278D01*
X163658934Y-110914601D01*
X195974865Y-110914601D01*
X195966775Y-110929736D01*
X195881084Y-111212223D01*
X195852149Y-111506000D01*
X195881084Y-111799777D01*
X195966775Y-112082264D01*
X196105931Y-112342606D01*
X196293203Y-112570797D01*
X196521394Y-112758069D01*
X196570305Y-112784213D01*
X196499501Y-113007896D01*
X197358000Y-113866395D01*
X198216499Y-113007896D01*
X198145695Y-112784213D01*
X198194606Y-112758069D01*
X198422797Y-112570797D01*
X198610069Y-112342606D01*
X198628000Y-112309060D01*
X198645931Y-112342606D01*
X198833203Y-112570797D01*
X199061394Y-112758069D01*
X199101433Y-112779470D01*
X198887707Y-112939146D01*
X198691183Y-113157512D01*
X198629434Y-113261359D01*
X198396104Y-113187501D01*
X197537605Y-114046000D01*
X198396104Y-114904499D01*
X198629434Y-114830641D01*
X198691183Y-114934488D01*
X198887707Y-115152854D01*
X199123056Y-115328684D01*
X199388186Y-115455222D01*
X199538974Y-115500958D01*
X199771000Y-115379817D01*
X199771000Y-114173000D01*
X200025000Y-114173000D01*
X200025000Y-115379817D01*
X200257026Y-115500958D01*
X200407814Y-115455222D01*
X200672944Y-115328684D01*
X200908293Y-115152854D01*
X201104817Y-114934488D01*
X201254964Y-114681978D01*
X201352963Y-114405027D01*
X201232464Y-114173000D01*
X200025000Y-114173000D01*
X199771000Y-114173000D01*
X199751000Y-114173000D01*
X199751000Y-113919000D01*
X199771000Y-113919000D01*
X199771000Y-113899000D01*
X200025000Y-113899000D01*
X200025000Y-113919000D01*
X201232464Y-113919000D01*
X201352963Y-113686973D01*
X201254964Y-113410022D01*
X201104817Y-113157512D01*
X200908293Y-112939146D01*
X200694567Y-112779470D01*
X200734606Y-112758069D01*
X200962797Y-112570797D01*
X201150069Y-112342606D01*
X201289225Y-112082264D01*
X201374916Y-111799777D01*
X201403851Y-111506000D01*
X201374916Y-111212223D01*
X201289225Y-110929736D01*
X201150069Y-110669394D01*
X200962797Y-110441203D01*
X200734606Y-110253931D01*
X200701060Y-110236000D01*
X200734606Y-110218069D01*
X200962797Y-110030797D01*
X201150069Y-109802606D01*
X201289225Y-109542264D01*
X201374916Y-109259777D01*
X201403851Y-108966000D01*
X201374916Y-108672223D01*
X201289225Y-108389736D01*
X201150069Y-108129394D01*
X200962797Y-107901203D01*
X200734606Y-107713931D01*
X200701060Y-107696000D01*
X200734606Y-107678069D01*
X200962797Y-107490797D01*
X201150069Y-107262606D01*
X201289225Y-107002264D01*
X201374916Y-106719777D01*
X201403851Y-106426000D01*
X201374916Y-106132223D01*
X201289225Y-105849736D01*
X201150069Y-105589394D01*
X200962797Y-105361203D01*
X200734606Y-105173931D01*
X200701060Y-105156000D01*
X200734606Y-105138069D01*
X200962797Y-104950797D01*
X201150069Y-104722606D01*
X201289225Y-104462264D01*
X201374916Y-104179777D01*
X201403851Y-103886000D01*
X201374916Y-103592223D01*
X201289225Y-103309736D01*
X201150069Y-103049394D01*
X200962797Y-102821203D01*
X200734606Y-102633931D01*
X200701060Y-102616000D01*
X200734606Y-102598069D01*
X200962797Y-102410797D01*
X201150069Y-102182606D01*
X201289225Y-101922264D01*
X201374916Y-101639777D01*
X201403851Y-101346000D01*
X201374916Y-101052223D01*
X201289225Y-100769736D01*
X201150069Y-100509394D01*
X200962797Y-100281203D01*
X200734606Y-100093931D01*
X200701060Y-100076000D01*
X200734606Y-100058069D01*
X200962797Y-99870797D01*
X201150069Y-99642606D01*
X201289225Y-99382264D01*
X201374916Y-99099777D01*
X201403851Y-98806000D01*
X201374916Y-98512223D01*
X201289225Y-98229736D01*
X201150069Y-97969394D01*
X200962797Y-97741203D01*
X200734606Y-97553931D01*
X200701060Y-97536000D01*
X200734606Y-97518069D01*
X200962797Y-97330797D01*
X201150069Y-97102606D01*
X201289225Y-96842264D01*
X201374916Y-96559777D01*
X201403851Y-96266000D01*
X201374916Y-95972223D01*
X201289225Y-95689736D01*
X201150069Y-95429394D01*
X200962797Y-95201203D01*
X200734606Y-95013931D01*
X200701060Y-94996000D01*
X200734606Y-94978069D01*
X200962797Y-94790797D01*
X201150069Y-94562606D01*
X201289225Y-94302264D01*
X201374916Y-94019777D01*
X201403851Y-93726000D01*
X201374916Y-93432223D01*
X201289225Y-93149736D01*
X201150069Y-92889394D01*
X200962797Y-92661203D01*
X200734606Y-92473931D01*
X200701060Y-92456000D01*
X200734606Y-92438069D01*
X200962797Y-92250797D01*
X201150069Y-92022606D01*
X201289225Y-91762264D01*
X201374916Y-91479777D01*
X201403851Y-91186000D01*
X201374916Y-90892223D01*
X201289225Y-90609736D01*
X201150069Y-90349394D01*
X200962797Y-90121203D01*
X200734606Y-89933931D01*
X200701060Y-89916000D01*
X200734606Y-89898069D01*
X200962797Y-89710797D01*
X201150069Y-89482606D01*
X201289225Y-89222264D01*
X201374916Y-88939777D01*
X201403851Y-88646000D01*
X201374916Y-88352223D01*
X201289225Y-88069736D01*
X201150069Y-87809394D01*
X200962797Y-87581203D01*
X200734606Y-87393931D01*
X200701060Y-87376000D01*
X200734606Y-87358069D01*
X200962797Y-87170797D01*
X201150069Y-86942606D01*
X201289225Y-86682264D01*
X201374916Y-86399777D01*
X201403851Y-86106000D01*
X201374916Y-85812223D01*
X201289225Y-85529736D01*
X201150069Y-85269394D01*
X200962797Y-85041203D01*
X200734606Y-84853931D01*
X200701060Y-84836000D01*
X200734606Y-84818069D01*
X200962797Y-84630797D01*
X201150069Y-84402606D01*
X201289225Y-84142264D01*
X201374916Y-83859777D01*
X201403851Y-83566000D01*
X201374916Y-83272223D01*
X201289225Y-82989736D01*
X201150069Y-82729394D01*
X200962797Y-82501203D01*
X200734606Y-82313931D01*
X200701060Y-82296000D01*
X200734606Y-82278069D01*
X200962797Y-82090797D01*
X201150069Y-81862606D01*
X201289225Y-81602264D01*
X201374916Y-81319777D01*
X201403851Y-81026000D01*
X201374916Y-80732223D01*
X201289225Y-80449736D01*
X201150069Y-80189394D01*
X200962797Y-79961203D01*
X200734606Y-79773931D01*
X200701060Y-79756000D01*
X200734606Y-79738069D01*
X200962797Y-79550797D01*
X201150069Y-79322606D01*
X201289225Y-79062264D01*
X201374916Y-78779777D01*
X201403851Y-78486000D01*
X201374916Y-78192223D01*
X201289225Y-77909736D01*
X201150069Y-77649394D01*
X200962797Y-77421203D01*
X200734606Y-77233931D01*
X200701060Y-77216000D01*
X200734606Y-77198069D01*
X200962797Y-77010797D01*
X201150069Y-76782606D01*
X201289225Y-76522264D01*
X201374916Y-76239777D01*
X201403851Y-75946000D01*
X201374916Y-75652223D01*
X201289225Y-75369736D01*
X201150069Y-75109394D01*
X200962797Y-74881203D01*
X200734606Y-74693931D01*
X200701060Y-74676000D01*
X200734606Y-74658069D01*
X200962797Y-74470797D01*
X201150069Y-74242606D01*
X201289225Y-73982264D01*
X201374916Y-73699777D01*
X201403851Y-73406000D01*
X201374916Y-73112223D01*
X201289225Y-72829736D01*
X201150069Y-72569394D01*
X200962797Y-72341203D01*
X200734606Y-72153931D01*
X200701060Y-72136000D01*
X200734606Y-72118069D01*
X200962797Y-71930797D01*
X201150069Y-71702606D01*
X201289225Y-71442264D01*
X201374916Y-71159777D01*
X201403851Y-70866000D01*
X201400567Y-70832659D01*
X201728000Y-71160092D01*
X201728001Y-80991115D01*
X201724565Y-81026000D01*
X201738274Y-81165184D01*
X201778872Y-81299019D01*
X201812528Y-81361985D01*
X201844801Y-81422363D01*
X201933526Y-81530475D01*
X201960617Y-81552708D01*
X204268000Y-83860092D01*
X204268001Y-117561907D01*
X202565000Y-119264909D01*
X202565000Y-118863323D01*
X202462508Y-118348065D01*
X202261464Y-117862702D01*
X201969594Y-117425887D01*
X201598113Y-117054406D01*
X201161298Y-116762536D01*
X200675935Y-116561492D01*
X200160677Y-116459000D01*
X199635323Y-116459000D01*
X199120065Y-116561492D01*
X198634702Y-116762536D01*
X198197887Y-117054406D01*
X197826406Y-117425887D01*
X197534536Y-117862702D01*
X197333492Y-118348065D01*
X197231000Y-118863323D01*
X197231000Y-119388677D01*
X197333492Y-119903935D01*
X197534536Y-120389298D01*
X197826406Y-120826113D01*
X197956293Y-120956000D01*
X119289707Y-120956000D01*
X119419594Y-120826113D01*
X119711464Y-120389298D01*
X119912508Y-119903935D01*
X120015000Y-119388677D01*
X120015000Y-118899982D01*
X129819400Y-118899982D01*
X129819400Y-119352019D01*
X129841084Y-119572177D01*
X129926775Y-119854664D01*
X130065931Y-120115006D01*
X130253203Y-120343197D01*
X130481395Y-120530469D01*
X130741737Y-120669625D01*
X131024224Y-120755316D01*
X131318000Y-120784251D01*
X131611777Y-120755316D01*
X131894264Y-120669625D01*
X132154606Y-120530469D01*
X132382797Y-120343197D01*
X132570069Y-120115006D01*
X132588000Y-120081459D01*
X132605931Y-120115006D01*
X132793203Y-120343197D01*
X133021395Y-120530469D01*
X133281737Y-120669625D01*
X133564224Y-120755316D01*
X133858000Y-120784251D01*
X134151777Y-120755316D01*
X134434264Y-120669625D01*
X134694606Y-120530469D01*
X134922797Y-120343197D01*
X135110069Y-120115006D01*
X135128000Y-120081459D01*
X135145931Y-120115006D01*
X135333203Y-120343197D01*
X135561395Y-120530469D01*
X135821737Y-120669625D01*
X136104224Y-120755316D01*
X136398000Y-120784251D01*
X136691777Y-120755316D01*
X136974264Y-120669625D01*
X137234606Y-120530469D01*
X137462797Y-120343197D01*
X137650069Y-120115006D01*
X137668000Y-120081459D01*
X137685931Y-120115006D01*
X137873203Y-120343197D01*
X138101395Y-120530469D01*
X138361737Y-120669625D01*
X138644224Y-120755316D01*
X138938000Y-120784251D01*
X139231777Y-120755316D01*
X139514264Y-120669625D01*
X139774606Y-120530469D01*
X140002797Y-120343197D01*
X140190069Y-120115006D01*
X140208000Y-120081459D01*
X140225931Y-120115006D01*
X140413203Y-120343197D01*
X140641395Y-120530469D01*
X140901737Y-120669625D01*
X141184224Y-120755316D01*
X141478000Y-120784251D01*
X141771777Y-120755316D01*
X142054264Y-120669625D01*
X142314606Y-120530469D01*
X142542797Y-120343197D01*
X142730069Y-120115006D01*
X142751424Y-120075053D01*
X142899514Y-120277729D01*
X143115965Y-120476733D01*
X143367081Y-120629686D01*
X143643211Y-120730709D01*
X143658974Y-120733358D01*
X143891000Y-120612217D01*
X143891000Y-119253000D01*
X144145000Y-119253000D01*
X144145000Y-120612217D01*
X144377026Y-120733358D01*
X144392789Y-120730709D01*
X144668919Y-120629686D01*
X144920035Y-120476733D01*
X145136486Y-120277729D01*
X145288000Y-120070367D01*
X145439514Y-120277729D01*
X145655965Y-120476733D01*
X145907081Y-120629686D01*
X146183211Y-120730709D01*
X146198974Y-120733358D01*
X146431000Y-120612217D01*
X146431000Y-119253000D01*
X144145000Y-119253000D01*
X143891000Y-119253000D01*
X143871000Y-119253000D01*
X143871000Y-118999000D01*
X143891000Y-118999000D01*
X143891000Y-117639783D01*
X144145000Y-117639783D01*
X144145000Y-118999000D01*
X146431000Y-118999000D01*
X146431000Y-117639783D01*
X146198974Y-117518642D01*
X146183211Y-117521291D01*
X145907081Y-117622314D01*
X145655965Y-117775267D01*
X145439514Y-117974271D01*
X145288000Y-118181633D01*
X145136486Y-117974271D01*
X144920035Y-117775267D01*
X144668919Y-117622314D01*
X144392789Y-117521291D01*
X144377026Y-117518642D01*
X144145000Y-117639783D01*
X143891000Y-117639783D01*
X143658974Y-117518642D01*
X143643211Y-117521291D01*
X143367081Y-117622314D01*
X143115965Y-117775267D01*
X142899514Y-117974271D01*
X142751424Y-118176947D01*
X142730069Y-118136994D01*
X142542797Y-117908803D01*
X142314605Y-117721531D01*
X142054263Y-117582375D01*
X141771776Y-117496684D01*
X141478000Y-117467749D01*
X141184223Y-117496684D01*
X140901736Y-117582375D01*
X140641394Y-117721531D01*
X140413203Y-117908803D01*
X140225931Y-118136995D01*
X140208000Y-118170541D01*
X140190069Y-118136994D01*
X140002797Y-117908803D01*
X139774605Y-117721531D01*
X139514263Y-117582375D01*
X139231776Y-117496684D01*
X138938000Y-117467749D01*
X138644223Y-117496684D01*
X138361736Y-117582375D01*
X138101394Y-117721531D01*
X137873203Y-117908803D01*
X137685931Y-118136995D01*
X137668000Y-118170541D01*
X137650069Y-118136994D01*
X137462797Y-117908803D01*
X137234605Y-117721531D01*
X136974263Y-117582375D01*
X136691776Y-117496684D01*
X136398000Y-117467749D01*
X136104223Y-117496684D01*
X135821736Y-117582375D01*
X135561394Y-117721531D01*
X135333203Y-117908803D01*
X135145931Y-118136995D01*
X135128000Y-118170541D01*
X135110069Y-118136994D01*
X134922797Y-117908803D01*
X134694605Y-117721531D01*
X134434263Y-117582375D01*
X134151776Y-117496684D01*
X133858000Y-117467749D01*
X133564223Y-117496684D01*
X133281736Y-117582375D01*
X133021394Y-117721531D01*
X132793203Y-117908803D01*
X132605931Y-118136995D01*
X132588000Y-118170541D01*
X132570069Y-118136994D01*
X132382797Y-117908803D01*
X132154605Y-117721531D01*
X131894263Y-117582375D01*
X131611776Y-117496684D01*
X131318000Y-117467749D01*
X131024223Y-117496684D01*
X130741736Y-117582375D01*
X130481394Y-117721531D01*
X130253203Y-117908803D01*
X130065931Y-118136995D01*
X129926775Y-118397337D01*
X129841084Y-118679824D01*
X129819400Y-118899982D01*
X120015000Y-118899982D01*
X120015000Y-118863323D01*
X119912508Y-118348065D01*
X119711464Y-117862702D01*
X119419594Y-117425887D01*
X119048113Y-117054406D01*
X118611298Y-116762536D01*
X118125935Y-116561492D01*
X117610677Y-116459000D01*
X117085323Y-116459000D01*
X116570065Y-116561492D01*
X116084702Y-116762536D01*
X115647887Y-117054406D01*
X115276406Y-117425887D01*
X114984536Y-117862702D01*
X114783492Y-118348065D01*
X114681000Y-118863323D01*
X114681000Y-119388677D01*
X114783492Y-119903935D01*
X114984536Y-120389298D01*
X115276406Y-120826113D01*
X115406293Y-120956000D01*
X104088000Y-120956000D01*
X104088000Y-69036000D01*
X116676293Y-69036000D01*
X116546406Y-69165887D01*
X116546406Y-69165887D01*
G37*
X116546406Y-69165887D02*
X116254536Y-69602702D01*
X116053492Y-70088065D01*
X115951000Y-70603323D01*
X115951000Y-71128677D01*
X116053492Y-71643935D01*
X116254536Y-72129298D01*
X116546406Y-72566113D01*
X116917887Y-72937594D01*
X117354702Y-73229464D01*
X117840065Y-73430508D01*
X118355323Y-73533000D01*
X118880677Y-73533000D01*
X119395935Y-73430508D01*
X119881298Y-73229464D01*
X120318113Y-72937594D01*
X120689594Y-72566113D01*
X120981464Y-72129298D01*
X121037001Y-71995219D01*
X121109203Y-72083197D01*
X121337395Y-72270469D01*
X121597737Y-72409625D01*
X121880224Y-72495316D01*
X122174000Y-72524251D01*
X122467777Y-72495316D01*
X122750264Y-72409625D01*
X123010606Y-72270469D01*
X123238797Y-72083197D01*
X123426069Y-71855006D01*
X123444000Y-71821459D01*
X123461931Y-71855006D01*
X123649203Y-72083197D01*
X123877395Y-72270469D01*
X124137737Y-72409625D01*
X124420224Y-72495316D01*
X124714000Y-72524251D01*
X125007777Y-72495316D01*
X125290264Y-72409625D01*
X125550606Y-72270469D01*
X125778797Y-72083197D01*
X125966069Y-71855006D01*
X125984000Y-71821459D01*
X126001931Y-71855006D01*
X126189203Y-72083197D01*
X126417395Y-72270469D01*
X126677737Y-72409625D01*
X126960224Y-72495316D01*
X127254000Y-72524251D01*
X127547777Y-72495316D01*
X127830264Y-72409625D01*
X128090606Y-72270469D01*
X128318797Y-72083197D01*
X128506069Y-71855006D01*
X128527424Y-71815053D01*
X128675514Y-72017729D01*
X128891965Y-72216733D01*
X129143081Y-72369686D01*
X129419211Y-72470709D01*
X129434974Y-72473358D01*
X129667000Y-72352217D01*
X129667000Y-70993000D01*
X129647000Y-70993000D01*
X129647000Y-70739000D01*
X129667000Y-70739000D01*
X129667000Y-69379783D01*
X129921000Y-69379783D01*
X129921000Y-70739000D01*
X129941000Y-70739000D01*
X129941000Y-70993000D01*
X129921000Y-70993000D01*
X129921000Y-72352217D01*
X130153026Y-72473358D01*
X130168789Y-72470709D01*
X130444919Y-72369686D01*
X130696035Y-72216733D01*
X130912486Y-72017729D01*
X131060576Y-71815053D01*
X131081931Y-71855006D01*
X131269203Y-72083197D01*
X131497395Y-72270469D01*
X131757737Y-72409625D01*
X132040224Y-72495316D01*
X132334000Y-72524251D01*
X132627777Y-72495316D01*
X132910264Y-72409625D01*
X133170606Y-72270469D01*
X133398797Y-72083197D01*
X133586069Y-71855006D01*
X133604000Y-71821459D01*
X133621931Y-71855006D01*
X133809203Y-72083197D01*
X134037395Y-72270469D01*
X134297737Y-72409625D01*
X134580224Y-72495316D01*
X134874000Y-72524251D01*
X135167777Y-72495316D01*
X135450264Y-72409625D01*
X135710606Y-72270469D01*
X135938797Y-72083197D01*
X136126069Y-71855006D01*
X136144000Y-71821459D01*
X136161931Y-71855006D01*
X136349203Y-72083197D01*
X136577395Y-72270469D01*
X136837737Y-72409625D01*
X137120224Y-72495316D01*
X137414000Y-72524251D01*
X137707777Y-72495316D01*
X137990264Y-72409625D01*
X138250606Y-72270469D01*
X138478797Y-72083197D01*
X138666069Y-71855006D01*
X138684000Y-71821459D01*
X138701931Y-71855006D01*
X138889203Y-72083197D01*
X139117395Y-72270469D01*
X139377737Y-72409625D01*
X139660224Y-72495316D01*
X139954000Y-72524251D01*
X140247777Y-72495316D01*
X140530264Y-72409625D01*
X140790606Y-72270469D01*
X141018797Y-72083197D01*
X141206069Y-71855006D01*
X141224000Y-71821459D01*
X141241931Y-71855006D01*
X141429203Y-72083197D01*
X141657395Y-72270469D01*
X141917737Y-72409625D01*
X142200224Y-72495316D01*
X142494000Y-72524251D01*
X142787777Y-72495316D01*
X143070264Y-72409625D01*
X143330606Y-72270469D01*
X143558797Y-72083197D01*
X143746069Y-71855006D01*
X143764000Y-71821459D01*
X143781931Y-71855006D01*
X143969203Y-72083197D01*
X144197395Y-72270469D01*
X144457737Y-72409625D01*
X144740224Y-72495316D01*
X145034000Y-72524251D01*
X145327777Y-72495316D01*
X145610264Y-72409625D01*
X145870606Y-72270469D01*
X146098797Y-72083197D01*
X146286069Y-71855006D01*
X146425225Y-71594663D01*
X146510916Y-71312176D01*
X146532600Y-71092018D01*
X146532600Y-70639982D01*
X147599400Y-70639982D01*
X147599400Y-71092019D01*
X147621084Y-71312177D01*
X147706775Y-71594664D01*
X147845931Y-71855006D01*
X148033203Y-72083197D01*
X148261395Y-72270469D01*
X148521737Y-72409625D01*
X148804224Y-72495316D01*
X149098000Y-72524251D01*
X149391777Y-72495316D01*
X149674264Y-72409625D01*
X149934606Y-72270469D01*
X150162797Y-72083197D01*
X150350069Y-71855006D01*
X150368000Y-71821459D01*
X150385931Y-71855006D01*
X150573203Y-72083197D01*
X150801395Y-72270469D01*
X151061737Y-72409625D01*
X151344224Y-72495316D01*
X151638000Y-72524251D01*
X151931777Y-72495316D01*
X152214264Y-72409625D01*
X152474606Y-72270469D01*
X152702797Y-72083197D01*
X152890069Y-71855006D01*
X152908000Y-71821459D01*
X152925931Y-71855006D01*
X153113203Y-72083197D01*
X153341395Y-72270469D01*
X153601737Y-72409625D01*
X153884224Y-72495316D01*
X154178000Y-72524251D01*
X154471777Y-72495316D01*
X154754264Y-72409625D01*
X155014606Y-72270469D01*
X155242797Y-72083197D01*
X155430069Y-71855006D01*
X155448000Y-71821459D01*
X155465931Y-71855006D01*
X155653203Y-72083197D01*
X155881395Y-72270469D01*
X156141737Y-72409625D01*
X156424224Y-72495316D01*
X156718000Y-72524251D01*
X157011777Y-72495316D01*
X157294264Y-72409625D01*
X157554606Y-72270469D01*
X157782797Y-72083197D01*
X157970069Y-71855006D01*
X157988000Y-71821459D01*
X158005931Y-71855006D01*
X158193203Y-72083197D01*
X158421395Y-72270469D01*
X158681737Y-72409625D01*
X158964224Y-72495316D01*
X159258000Y-72524251D01*
X159551777Y-72495316D01*
X159834264Y-72409625D01*
X160094606Y-72270469D01*
X160322797Y-72083197D01*
X160510069Y-71855006D01*
X160528000Y-71821459D01*
X160545931Y-71855006D01*
X160733203Y-72083197D01*
X160961395Y-72270469D01*
X161221737Y-72409625D01*
X161504224Y-72495316D01*
X161798000Y-72524251D01*
X162091777Y-72495316D01*
X162374264Y-72409625D01*
X162634606Y-72270469D01*
X162862797Y-72083197D01*
X163050069Y-71855006D01*
X163068000Y-71821459D01*
X163085931Y-71855006D01*
X163273203Y-72083197D01*
X163501395Y-72270469D01*
X163761737Y-72409625D01*
X164044224Y-72495316D01*
X164338000Y-72524251D01*
X164631777Y-72495316D01*
X164914264Y-72409625D01*
X165174606Y-72270469D01*
X165402797Y-72083197D01*
X165590069Y-71855006D01*
X165608000Y-71821459D01*
X165625931Y-71855006D01*
X165813203Y-72083197D01*
X166041395Y-72270469D01*
X166301737Y-72409625D01*
X166584224Y-72495316D01*
X166878000Y-72524251D01*
X167171777Y-72495316D01*
X167454264Y-72409625D01*
X167714606Y-72270469D01*
X167942797Y-72083197D01*
X168130069Y-71855006D01*
X168269225Y-71594663D01*
X168354916Y-71312176D01*
X168376600Y-71092018D01*
X168376600Y-70639981D01*
X168354916Y-70419823D01*
X168269225Y-70137336D01*
X168130069Y-69876994D01*
X167942797Y-69648803D01*
X167714605Y-69461531D01*
X167454263Y-69322375D01*
X167171776Y-69236684D01*
X166878000Y-69207749D01*
X166584223Y-69236684D01*
X166301736Y-69322375D01*
X166041394Y-69461531D01*
X165813203Y-69648803D01*
X165625931Y-69876995D01*
X165608000Y-69910541D01*
X165590069Y-69876994D01*
X165402797Y-69648803D01*
X165174605Y-69461531D01*
X164914263Y-69322375D01*
X164631776Y-69236684D01*
X164338000Y-69207749D01*
X164044223Y-69236684D01*
X163761736Y-69322375D01*
X163501394Y-69461531D01*
X163273203Y-69648803D01*
X163085931Y-69876995D01*
X163068000Y-69910541D01*
X163050069Y-69876994D01*
X162862797Y-69648803D01*
X162634605Y-69461531D01*
X162374263Y-69322375D01*
X162091776Y-69236684D01*
X161798000Y-69207749D01*
X161504223Y-69236684D01*
X161221736Y-69322375D01*
X160961394Y-69461531D01*
X160733203Y-69648803D01*
X160545931Y-69876995D01*
X160528000Y-69910541D01*
X160510069Y-69876994D01*
X160322797Y-69648803D01*
X160094605Y-69461531D01*
X159834263Y-69322375D01*
X159551776Y-69236684D01*
X159258000Y-69207749D01*
X158964223Y-69236684D01*
X158681736Y-69322375D01*
X158421394Y-69461531D01*
X158193203Y-69648803D01*
X158005931Y-69876995D01*
X157988000Y-69910541D01*
X157970069Y-69876994D01*
X157782797Y-69648803D01*
X157554605Y-69461531D01*
X157294263Y-69322375D01*
X157011776Y-69236684D01*
X156718000Y-69207749D01*
X156424223Y-69236684D01*
X156141736Y-69322375D01*
X155881394Y-69461531D01*
X155653203Y-69648803D01*
X155465931Y-69876995D01*
X155448000Y-69910541D01*
X155430069Y-69876994D01*
X155242797Y-69648803D01*
X155014605Y-69461531D01*
X154754263Y-69322375D01*
X154471776Y-69236684D01*
X154178000Y-69207749D01*
X153884223Y-69236684D01*
X153601736Y-69322375D01*
X153341394Y-69461531D01*
X153113203Y-69648803D01*
X152925931Y-69876995D01*
X152908000Y-69910541D01*
X152890069Y-69876994D01*
X152702797Y-69648803D01*
X152474605Y-69461531D01*
X152214263Y-69322375D01*
X151931776Y-69236684D01*
X151638000Y-69207749D01*
X151344223Y-69236684D01*
X151061736Y-69322375D01*
X150801394Y-69461531D01*
X150573203Y-69648803D01*
X150385931Y-69876995D01*
X150368000Y-69910541D01*
X150350069Y-69876994D01*
X150162797Y-69648803D01*
X149934605Y-69461531D01*
X149674263Y-69322375D01*
X149391776Y-69236684D01*
X149098000Y-69207749D01*
X148804223Y-69236684D01*
X148521736Y-69322375D01*
X148261394Y-69461531D01*
X148033203Y-69648803D01*
X147845931Y-69876995D01*
X147706775Y-70137337D01*
X147621084Y-70419824D01*
X147599400Y-70639982D01*
X146532600Y-70639982D01*
X146532600Y-70639981D01*
X146510916Y-70419823D01*
X146425225Y-70137336D01*
X146286069Y-69876994D01*
X146098797Y-69648803D01*
X145870605Y-69461531D01*
X145610263Y-69322375D01*
X145327776Y-69236684D01*
X145034000Y-69207749D01*
X144740223Y-69236684D01*
X144457736Y-69322375D01*
X144197394Y-69461531D01*
X143969203Y-69648803D01*
X143781931Y-69876995D01*
X143764000Y-69910541D01*
X143746069Y-69876994D01*
X143558797Y-69648803D01*
X143330605Y-69461531D01*
X143070263Y-69322375D01*
X142787776Y-69236684D01*
X142494000Y-69207749D01*
X142200223Y-69236684D01*
X141917736Y-69322375D01*
X141657394Y-69461531D01*
X141429203Y-69648803D01*
X141241931Y-69876995D01*
X141224000Y-69910541D01*
X141206069Y-69876994D01*
X141018797Y-69648803D01*
X140790605Y-69461531D01*
X140530263Y-69322375D01*
X140247776Y-69236684D01*
X139954000Y-69207749D01*
X139660223Y-69236684D01*
X139377736Y-69322375D01*
X139117394Y-69461531D01*
X138889203Y-69648803D01*
X138701931Y-69876995D01*
X138684000Y-69910541D01*
X138666069Y-69876994D01*
X138478797Y-69648803D01*
X138250605Y-69461531D01*
X137990263Y-69322375D01*
X137707776Y-69236684D01*
X137414000Y-69207749D01*
X137120223Y-69236684D01*
X136837736Y-69322375D01*
X136577394Y-69461531D01*
X136349203Y-69648803D01*
X136161931Y-69876995D01*
X136144000Y-69910541D01*
X136126069Y-69876994D01*
X135938797Y-69648803D01*
X135710605Y-69461531D01*
X135450263Y-69322375D01*
X135167776Y-69236684D01*
X134874000Y-69207749D01*
X134580223Y-69236684D01*
X134297736Y-69322375D01*
X134037394Y-69461531D01*
X133809203Y-69648803D01*
X133621931Y-69876995D01*
X133604000Y-69910541D01*
X133586069Y-69876994D01*
X133398797Y-69648803D01*
X133170605Y-69461531D01*
X132910263Y-69322375D01*
X132627776Y-69236684D01*
X132334000Y-69207749D01*
X132040223Y-69236684D01*
X131757736Y-69322375D01*
X131497394Y-69461531D01*
X131269203Y-69648803D01*
X131081931Y-69876995D01*
X131060576Y-69916947D01*
X130912486Y-69714271D01*
X130696035Y-69515267D01*
X130444919Y-69362314D01*
X130168789Y-69261291D01*
X130153026Y-69258642D01*
X129921000Y-69379783D01*
X129667000Y-69379783D01*
X129434974Y-69258642D01*
X129419211Y-69261291D01*
X129143081Y-69362314D01*
X128891965Y-69515267D01*
X128675514Y-69714271D01*
X128527424Y-69916947D01*
X128506069Y-69876994D01*
X128318797Y-69648803D01*
X128090605Y-69461531D01*
X127830263Y-69322375D01*
X127547776Y-69236684D01*
X127254000Y-69207749D01*
X126960223Y-69236684D01*
X126677736Y-69322375D01*
X126417394Y-69461531D01*
X126189203Y-69648803D01*
X126001931Y-69876995D01*
X125984000Y-69910541D01*
X125966069Y-69876994D01*
X125778797Y-69648803D01*
X125550605Y-69461531D01*
X125290263Y-69322375D01*
X125007776Y-69236684D01*
X124714000Y-69207749D01*
X124420223Y-69236684D01*
X124137736Y-69322375D01*
X123877394Y-69461531D01*
X123649203Y-69648803D01*
X123461931Y-69876995D01*
X123444000Y-69910541D01*
X123426069Y-69876994D01*
X123238797Y-69648803D01*
X123010605Y-69461531D01*
X122750263Y-69322375D01*
X122467776Y-69236684D01*
X122174000Y-69207749D01*
X121880223Y-69236684D01*
X121597736Y-69322375D01*
X121337394Y-69461531D01*
X121109203Y-69648803D01*
X121037001Y-69736781D01*
X120981464Y-69602702D01*
X120689594Y-69165887D01*
X120559707Y-69036000D01*
X191606293Y-69036000D01*
X191476406Y-69165887D01*
X191184536Y-69602702D01*
X191035621Y-69962215D01*
X190990069Y-69876994D01*
X190802797Y-69648803D01*
X190574605Y-69461531D01*
X190314263Y-69322375D01*
X190031776Y-69236684D01*
X189738000Y-69207749D01*
X189444223Y-69236684D01*
X189161736Y-69322375D01*
X188901394Y-69461531D01*
X188673203Y-69648803D01*
X188485931Y-69876995D01*
X188468000Y-69910541D01*
X188450069Y-69876994D01*
X188262797Y-69648803D01*
X188034605Y-69461531D01*
X187774263Y-69322375D01*
X187491776Y-69236684D01*
X187198000Y-69207749D01*
X186904223Y-69236684D01*
X186621736Y-69322375D01*
X186361394Y-69461531D01*
X186133203Y-69648803D01*
X185945931Y-69876995D01*
X185928000Y-69910541D01*
X185910069Y-69876994D01*
X185722797Y-69648803D01*
X185494605Y-69461531D01*
X185234263Y-69322375D01*
X184951776Y-69236684D01*
X184658000Y-69207749D01*
X184364223Y-69236684D01*
X184081736Y-69322375D01*
X183821394Y-69461531D01*
X183593203Y-69648803D01*
X183405931Y-69876995D01*
X183388000Y-69910541D01*
X183370069Y-69876994D01*
X183182797Y-69648803D01*
X182954605Y-69461531D01*
X182694263Y-69322375D01*
X182411776Y-69236684D01*
X182118000Y-69207749D01*
X181824223Y-69236684D01*
X181541736Y-69322375D01*
X181281394Y-69461531D01*
X181053203Y-69648803D01*
X180865931Y-69876995D01*
X180848000Y-69910541D01*
X180830069Y-69876994D01*
X180642797Y-69648803D01*
X180414605Y-69461531D01*
X180154263Y-69322375D01*
X179871776Y-69236684D01*
X179578000Y-69207749D01*
X179284223Y-69236684D01*
X179001736Y-69322375D01*
X178741394Y-69461531D01*
X178513203Y-69648803D01*
X178325931Y-69876995D01*
X178308000Y-69910541D01*
X178290069Y-69876994D01*
X178102797Y-69648803D01*
X177874605Y-69461531D01*
X177614263Y-69322375D01*
X177331776Y-69236684D01*
X177038000Y-69207749D01*
X176744223Y-69236684D01*
X176461736Y-69322375D01*
X176201394Y-69461531D01*
X175973203Y-69648803D01*
X175785931Y-69876995D01*
X175768000Y-69910541D01*
X175750069Y-69876994D01*
X175562797Y-69648803D01*
X175334605Y-69461531D01*
X175074263Y-69322375D01*
X174791776Y-69236684D01*
X174498000Y-69207749D01*
X174204223Y-69236684D01*
X173921736Y-69322375D01*
X173661394Y-69461531D01*
X173433203Y-69648803D01*
X173245931Y-69876995D01*
X173228000Y-69910541D01*
X173210069Y-69876994D01*
X173022797Y-69648803D01*
X172794605Y-69461531D01*
X172534263Y-69322375D01*
X172251776Y-69236684D01*
X171958000Y-69207749D01*
X171664223Y-69236684D01*
X171381736Y-69322375D01*
X171121394Y-69461531D01*
X170893203Y-69648803D01*
X170705931Y-69876995D01*
X170566775Y-70137337D01*
X170481084Y-70419824D01*
X170459400Y-70639982D01*
X170459400Y-71092019D01*
X170481084Y-71312177D01*
X170566775Y-71594664D01*
X170705931Y-71855006D01*
X170893203Y-72083197D01*
X171121395Y-72270469D01*
X171381737Y-72409625D01*
X171664224Y-72495316D01*
X171958000Y-72524251D01*
X172251777Y-72495316D01*
X172534264Y-72409625D01*
X172794606Y-72270469D01*
X173022797Y-72083197D01*
X173210069Y-71855006D01*
X173228000Y-71821459D01*
X173245931Y-71855006D01*
X173433203Y-72083197D01*
X173661395Y-72270469D01*
X173921737Y-72409625D01*
X174204224Y-72495316D01*
X174498000Y-72524251D01*
X174791777Y-72495316D01*
X175074264Y-72409625D01*
X175334606Y-72270469D01*
X175562797Y-72083197D01*
X175750069Y-71855006D01*
X175768000Y-71821459D01*
X175785931Y-71855006D01*
X175973203Y-72083197D01*
X176201395Y-72270469D01*
X176461737Y-72409625D01*
X176744224Y-72495316D01*
X177038000Y-72524251D01*
X177331777Y-72495316D01*
X177614264Y-72409625D01*
X177874606Y-72270469D01*
X178102797Y-72083197D01*
X178290069Y-71855006D01*
X178308000Y-71821459D01*
X178325931Y-71855006D01*
X178513203Y-72083197D01*
X178741395Y-72270469D01*
X179001737Y-72409625D01*
X179284224Y-72495316D01*
X179578000Y-72524251D01*
X179871777Y-72495316D01*
X180154264Y-72409625D01*
X180414606Y-72270469D01*
X180642797Y-72083197D01*
X180830069Y-71855006D01*
X180848000Y-71821459D01*
X180865931Y-71855006D01*
X181053203Y-72083197D01*
X181281395Y-72270469D01*
X181541737Y-72409625D01*
X181824224Y-72495316D01*
X182118000Y-72524251D01*
X182411777Y-72495316D01*
X182694264Y-72409625D01*
X182954606Y-72270469D01*
X183182797Y-72083197D01*
X183370069Y-71855006D01*
X183388000Y-71821459D01*
X183405931Y-71855006D01*
X183593203Y-72083197D01*
X183821395Y-72270469D01*
X184081737Y-72409625D01*
X184364224Y-72495316D01*
X184658000Y-72524251D01*
X184951777Y-72495316D01*
X185234264Y-72409625D01*
X185494606Y-72270469D01*
X185722797Y-72083197D01*
X185910069Y-71855006D01*
X185928000Y-71821459D01*
X185945931Y-71855006D01*
X186133203Y-72083197D01*
X186361395Y-72270469D01*
X186621737Y-72409625D01*
X186904224Y-72495316D01*
X187198000Y-72524251D01*
X187491777Y-72495316D01*
X187774264Y-72409625D01*
X188034606Y-72270469D01*
X188262797Y-72083197D01*
X188450069Y-71855006D01*
X188468000Y-71821459D01*
X188485931Y-71855006D01*
X188673203Y-72083197D01*
X188901395Y-72270469D01*
X189161737Y-72409625D01*
X189444224Y-72495316D01*
X189738000Y-72524251D01*
X190031777Y-72495316D01*
X190314264Y-72409625D01*
X190574606Y-72270469D01*
X190802797Y-72083197D01*
X190990069Y-71855006D01*
X191035621Y-71769785D01*
X191184536Y-72129298D01*
X191476406Y-72566113D01*
X191847887Y-72937594D01*
X192284702Y-73229464D01*
X192770065Y-73430508D01*
X193285323Y-73533000D01*
X193361924Y-73533000D01*
X191135000Y-75759923D01*
X190333591Y-74958515D01*
X190304154Y-74922646D01*
X190161051Y-74805204D01*
X189997786Y-74717937D01*
X189820633Y-74664198D01*
X189682567Y-74650600D01*
X189682557Y-74650600D01*
X189636400Y-74646054D01*
X189590243Y-74650600D01*
X118943565Y-74650600D01*
X118897400Y-74646053D01*
X118851235Y-74650600D01*
X118851233Y-74650600D01*
X118713167Y-74664198D01*
X118536014Y-74717937D01*
X118372748Y-74805204D01*
X118265506Y-74893216D01*
X118229646Y-74922646D01*
X118200218Y-74958504D01*
X115522310Y-77636414D01*
X115486447Y-77665846D01*
X115457017Y-77701707D01*
X115369004Y-77808949D01*
X115281738Y-77972214D01*
X115227999Y-78149367D01*
X115209854Y-78333600D01*
X115214401Y-78379767D01*
X115214400Y-79811442D01*
X115209854Y-79857600D01*
X115214400Y-79903757D01*
X115214400Y-79903766D01*
X115227998Y-80041832D01*
X115281737Y-80218985D01*
X115369004Y-80382251D01*
X115486446Y-80525354D01*
X115522315Y-80554791D01*
X118200218Y-83232696D01*
X118229646Y-83268554D01*
X118265504Y-83297982D01*
X118265506Y-83297984D01*
X118372748Y-83385996D01*
X118495117Y-83451403D01*
X118536014Y-83473263D01*
X118713167Y-83527002D01*
X118851233Y-83540600D01*
X118851235Y-83540600D01*
X118897400Y-83545147D01*
X118943565Y-83540600D01*
X119068414Y-83540600D01*
X119163066Y-83655934D01*
X119389186Y-83841506D01*
X119647166Y-83979399D01*
X119927089Y-84064313D01*
X120145250Y-84085800D01*
X120291150Y-84085800D01*
X120509311Y-84064313D01*
X120753600Y-83990208D01*
X120753601Y-90132668D01*
X120749924Y-90170000D01*
X120753601Y-90207333D01*
X120762268Y-90295324D01*
X120764598Y-90318985D01*
X120808054Y-90462246D01*
X120878626Y-90594276D01*
X120915704Y-90639455D01*
X120973600Y-90710001D01*
X121002598Y-90733799D01*
X148112513Y-117843715D01*
X148033203Y-117908803D01*
X147845931Y-118136995D01*
X147824576Y-118176947D01*
X147676486Y-117974271D01*
X147460035Y-117775267D01*
X147208919Y-117622314D01*
X146932789Y-117521291D01*
X146917026Y-117518642D01*
X146685000Y-117639783D01*
X146685000Y-118999000D01*
X146705000Y-118999000D01*
X146705000Y-119253000D01*
X146685000Y-119253000D01*
X146685000Y-120612217D01*
X146917026Y-120733358D01*
X146932789Y-120730709D01*
X147208919Y-120629686D01*
X147460035Y-120476733D01*
X147676486Y-120277729D01*
X147824576Y-120075053D01*
X147845931Y-120115006D01*
X148033203Y-120343197D01*
X148261395Y-120530469D01*
X148521737Y-120669625D01*
X148804224Y-120755316D01*
X149098000Y-120784251D01*
X149391777Y-120755316D01*
X149674264Y-120669625D01*
X149934606Y-120530469D01*
X150162797Y-120343197D01*
X150350069Y-120115006D01*
X150489225Y-119854663D01*
X150574916Y-119572176D01*
X150596600Y-119352018D01*
X150596600Y-118899981D01*
X150574916Y-118679823D01*
X150489225Y-118397336D01*
X150350069Y-118136994D01*
X150162797Y-117908803D01*
X149934605Y-117721531D01*
X149854207Y-117678557D01*
X149847003Y-117605414D01*
X149803546Y-117462153D01*
X149732974Y-117330124D01*
X149661799Y-117243397D01*
X149638001Y-117214399D01*
X149609004Y-117190602D01*
X122273600Y-89855199D01*
X122273600Y-84003539D01*
X122401310Y-84042276D01*
X122631200Y-83920955D01*
X122631200Y-82727800D01*
X122611200Y-82727800D01*
X122611200Y-82473800D01*
X122631200Y-82473800D01*
X122631200Y-82453800D01*
X122885200Y-82453800D01*
X122885200Y-82473800D01*
X122905200Y-82473800D01*
X122905200Y-82727800D01*
X122885200Y-82727800D01*
X122885200Y-83920955D01*
X123115090Y-84042276D01*
X123242801Y-84003539D01*
X123242800Y-90362689D01*
X123239124Y-90400011D01*
X123242800Y-90437333D01*
X123242800Y-90437343D01*
X123253797Y-90548996D01*
X123279878Y-90634975D01*
X123297254Y-90692257D01*
X123367826Y-90824287D01*
X123399107Y-90862402D01*
X123462799Y-90940012D01*
X123491803Y-90963815D01*
X152164990Y-119637003D01*
X152188788Y-119666001D01*
X152304513Y-119760974D01*
X152436542Y-119831546D01*
X152579803Y-119875003D01*
X152691456Y-119886000D01*
X152691465Y-119886000D01*
X152728788Y-119889676D01*
X152766111Y-119886000D01*
X152803524Y-119886000D01*
X152925931Y-120115006D01*
X153113203Y-120343197D01*
X153341395Y-120530469D01*
X153601737Y-120669625D01*
X153884224Y-120755316D01*
X154178000Y-120784251D01*
X154471777Y-120755316D01*
X154754264Y-120669625D01*
X155014606Y-120530469D01*
X155242797Y-120343197D01*
X155430069Y-120115006D01*
X155448000Y-120081459D01*
X155465931Y-120115006D01*
X155653203Y-120343197D01*
X155881395Y-120530469D01*
X156141737Y-120669625D01*
X156424224Y-120755316D01*
X156718000Y-120784251D01*
X157011777Y-120755316D01*
X157294264Y-120669625D01*
X157554606Y-120530469D01*
X157782797Y-120343197D01*
X157970069Y-120115006D01*
X157988000Y-120081459D01*
X158005931Y-120115006D01*
X158193203Y-120343197D01*
X158421395Y-120530469D01*
X158681737Y-120669625D01*
X158964224Y-120755316D01*
X159258000Y-120784251D01*
X159551777Y-120755316D01*
X159834264Y-120669625D01*
X160094606Y-120530469D01*
X160322797Y-120343197D01*
X160510069Y-120115006D01*
X160528000Y-120081459D01*
X160545931Y-120115006D01*
X160733203Y-120343197D01*
X160961395Y-120530469D01*
X161221737Y-120669625D01*
X161504224Y-120755316D01*
X161798000Y-120784251D01*
X162091777Y-120755316D01*
X162374264Y-120669625D01*
X162634606Y-120530469D01*
X162862797Y-120343197D01*
X163050069Y-120115006D01*
X163068000Y-120081459D01*
X163085931Y-120115006D01*
X163273203Y-120343197D01*
X163501395Y-120530469D01*
X163761737Y-120669625D01*
X164044224Y-120755316D01*
X164338000Y-120784251D01*
X164631777Y-120755316D01*
X164914264Y-120669625D01*
X165174606Y-120530469D01*
X165402797Y-120343197D01*
X165590069Y-120115006D01*
X165608000Y-120081459D01*
X165625931Y-120115006D01*
X165813203Y-120343197D01*
X166041395Y-120530469D01*
X166301737Y-120669625D01*
X166584224Y-120755316D01*
X166878000Y-120784251D01*
X167171777Y-120755316D01*
X167454264Y-120669625D01*
X167714606Y-120530469D01*
X167942797Y-120343197D01*
X168130069Y-120115006D01*
X168148000Y-120081459D01*
X168165931Y-120115006D01*
X168353203Y-120343197D01*
X168581395Y-120530469D01*
X168841737Y-120669625D01*
X169124224Y-120755316D01*
X169418000Y-120784251D01*
X169711777Y-120755316D01*
X169994264Y-120669625D01*
X170254606Y-120530469D01*
X170482797Y-120343197D01*
X170670069Y-120115006D01*
X170688000Y-120081459D01*
X170705931Y-120115006D01*
X170893203Y-120343197D01*
X171121395Y-120530469D01*
X171381737Y-120669625D01*
X171664224Y-120755316D01*
X171958000Y-120784251D01*
X172251777Y-120755316D01*
X172534264Y-120669625D01*
X172794606Y-120530469D01*
X173022797Y-120343197D01*
X173210069Y-120115006D01*
X173349225Y-119854663D01*
X173434916Y-119572176D01*
X173456600Y-119352018D01*
X173456600Y-118899981D01*
X173434916Y-118679823D01*
X173349225Y-118397336D01*
X173210069Y-118136994D01*
X173022797Y-117908803D01*
X172794605Y-117721531D01*
X172534263Y-117582375D01*
X172251776Y-117496684D01*
X171958000Y-117467749D01*
X171664223Y-117496684D01*
X171381736Y-117582375D01*
X171121394Y-117721531D01*
X170893203Y-117908803D01*
X170705931Y-118136995D01*
X170688000Y-118170541D01*
X170670069Y-118136994D01*
X170482797Y-117908803D01*
X170254605Y-117721531D01*
X169994263Y-117582375D01*
X169711776Y-117496684D01*
X169418000Y-117467749D01*
X169124223Y-117496684D01*
X168841736Y-117582375D01*
X168581394Y-117721531D01*
X168353203Y-117908803D01*
X168165931Y-118136995D01*
X168148000Y-118170541D01*
X168130069Y-118136994D01*
X167942797Y-117908803D01*
X167714605Y-117721531D01*
X167454263Y-117582375D01*
X167171776Y-117496684D01*
X166878000Y-117467749D01*
X166584223Y-117496684D01*
X166301736Y-117582375D01*
X166041394Y-117721531D01*
X165813203Y-117908803D01*
X165625931Y-118136995D01*
X165608000Y-118170541D01*
X165590069Y-118136994D01*
X165402797Y-117908803D01*
X165174605Y-117721531D01*
X164914263Y-117582375D01*
X164631776Y-117496684D01*
X164338000Y-117467749D01*
X164044223Y-117496684D01*
X163761736Y-117582375D01*
X163501394Y-117721531D01*
X163273203Y-117908803D01*
X163085931Y-118136995D01*
X163068000Y-118170541D01*
X163050069Y-118136994D01*
X162862797Y-117908803D01*
X162634605Y-117721531D01*
X162374263Y-117582375D01*
X162091776Y-117496684D01*
X161798000Y-117467749D01*
X161504223Y-117496684D01*
X161421101Y-117521899D01*
X150042804Y-106143603D01*
X150019001Y-106114599D01*
X149903276Y-106019626D01*
X149771247Y-105949054D01*
X149627986Y-105905597D01*
X149516333Y-105894600D01*
X149516322Y-105894600D01*
X149479000Y-105890924D01*
X149441678Y-105894600D01*
X146793076Y-105894600D01*
X146796668Y-105885929D01*
X146832600Y-105705289D01*
X146832600Y-105521111D01*
X146796668Y-105340471D01*
X146726186Y-105170311D01*
X146657600Y-105067665D01*
X146657600Y-104493924D01*
X146661276Y-104456601D01*
X146657600Y-104419278D01*
X146657600Y-104419269D01*
X146646603Y-104307616D01*
X146603146Y-104164355D01*
X146532574Y-104032326D01*
X146437601Y-103916601D01*
X146408597Y-103892798D01*
X146163403Y-103647604D01*
X146163398Y-103647598D01*
X137393201Y-94877402D01*
X137393201Y-94802311D01*
X142219400Y-94802311D01*
X142219400Y-94986489D01*
X142255332Y-95167129D01*
X142325814Y-95337289D01*
X142428138Y-95490428D01*
X142558372Y-95620662D01*
X142711511Y-95722986D01*
X142881671Y-95793468D01*
X143002752Y-95817553D01*
X163571000Y-116385802D01*
X163594799Y-116414801D01*
X163623797Y-116438599D01*
X163710524Y-116509774D01*
X163842553Y-116580346D01*
X163985814Y-116623803D01*
X164134800Y-116638477D01*
X164172133Y-116634800D01*
X172358399Y-116634800D01*
X175360601Y-119637003D01*
X175384399Y-119666001D01*
X175413397Y-119689799D01*
X175500123Y-119760974D01*
X175607561Y-119818401D01*
X175632153Y-119831546D01*
X175640533Y-119834088D01*
X175646775Y-119854664D01*
X175785931Y-120115006D01*
X175973203Y-120343197D01*
X176201395Y-120530469D01*
X176461737Y-120669625D01*
X176744224Y-120755316D01*
X177038000Y-120784251D01*
X177331777Y-120755316D01*
X177614264Y-120669625D01*
X177874606Y-120530469D01*
X178102797Y-120343197D01*
X178290069Y-120115006D01*
X178308000Y-120081459D01*
X178325931Y-120115006D01*
X178513203Y-120343197D01*
X178741395Y-120530469D01*
X179001737Y-120669625D01*
X179284224Y-120755316D01*
X179578000Y-120784251D01*
X179871777Y-120755316D01*
X180154264Y-120669625D01*
X180414606Y-120530469D01*
X180642797Y-120343197D01*
X180830069Y-120115006D01*
X180848000Y-120081459D01*
X180865931Y-120115006D01*
X181053203Y-120343197D01*
X181281395Y-120530469D01*
X181541737Y-120669625D01*
X181824224Y-120755316D01*
X182118000Y-120784251D01*
X182411777Y-120755316D01*
X182694264Y-120669625D01*
X182954606Y-120530469D01*
X183182797Y-120343197D01*
X183370069Y-120115006D01*
X183388000Y-120081459D01*
X183405931Y-120115006D01*
X183593203Y-120343197D01*
X183821395Y-120530469D01*
X184081737Y-120669625D01*
X184364224Y-120755316D01*
X184658000Y-120784251D01*
X184951777Y-120755316D01*
X185234264Y-120669625D01*
X185494606Y-120530469D01*
X185722797Y-120343197D01*
X185910069Y-120115006D01*
X185928000Y-120081459D01*
X185945931Y-120115006D01*
X186133203Y-120343197D01*
X186361395Y-120530469D01*
X186621737Y-120669625D01*
X186904224Y-120755316D01*
X187198000Y-120784251D01*
X187491777Y-120755316D01*
X187774264Y-120669625D01*
X188034606Y-120530469D01*
X188262797Y-120343197D01*
X188450069Y-120115006D01*
X188468000Y-120081459D01*
X188485931Y-120115006D01*
X188673203Y-120343197D01*
X188901395Y-120530469D01*
X189161737Y-120669625D01*
X189444224Y-120755316D01*
X189738000Y-120784251D01*
X190031777Y-120755316D01*
X190314264Y-120669625D01*
X190574606Y-120530469D01*
X190802797Y-120343197D01*
X190990069Y-120115006D01*
X191008000Y-120081459D01*
X191025931Y-120115006D01*
X191213203Y-120343197D01*
X191441395Y-120530469D01*
X191701737Y-120669625D01*
X191984224Y-120755316D01*
X192278000Y-120784251D01*
X192571777Y-120755316D01*
X192854264Y-120669625D01*
X193114606Y-120530469D01*
X193342797Y-120343197D01*
X193530069Y-120115006D01*
X193548000Y-120081459D01*
X193565931Y-120115006D01*
X193753203Y-120343197D01*
X193981395Y-120530469D01*
X194241737Y-120669625D01*
X194524224Y-120755316D01*
X194818000Y-120784251D01*
X195111777Y-120755316D01*
X195394264Y-120669625D01*
X195654606Y-120530469D01*
X195882797Y-120343197D01*
X196070069Y-120115006D01*
X196209225Y-119854663D01*
X196294916Y-119572176D01*
X196316600Y-119352018D01*
X196316600Y-118899981D01*
X196294916Y-118679823D01*
X196209225Y-118397336D01*
X196070069Y-118136994D01*
X195882797Y-117908803D01*
X195654605Y-117721531D01*
X195394263Y-117582375D01*
X195111776Y-117496684D01*
X194818000Y-117467749D01*
X194524223Y-117496684D01*
X194241736Y-117582375D01*
X193981394Y-117721531D01*
X193753203Y-117908803D01*
X193565931Y-118136995D01*
X193548000Y-118170541D01*
X193530069Y-118136994D01*
X193342797Y-117908803D01*
X193114605Y-117721531D01*
X192854263Y-117582375D01*
X192571776Y-117496684D01*
X192278000Y-117467749D01*
X191984223Y-117496684D01*
X191701736Y-117582375D01*
X191441394Y-117721531D01*
X191213203Y-117908803D01*
X191025931Y-118136995D01*
X191008000Y-118170541D01*
X190990069Y-118136994D01*
X190802797Y-117908803D01*
X190574605Y-117721531D01*
X190314263Y-117582375D01*
X190031776Y-117496684D01*
X189738000Y-117467749D01*
X189444223Y-117496684D01*
X189161736Y-117582375D01*
X188901394Y-117721531D01*
X188673203Y-117908803D01*
X188485931Y-118136995D01*
X188468000Y-118170541D01*
X188450069Y-118136994D01*
X188262797Y-117908803D01*
X188034605Y-117721531D01*
X187774263Y-117582375D01*
X187491776Y-117496684D01*
X187198000Y-117467749D01*
X186904223Y-117496684D01*
X186621736Y-117582375D01*
X186361394Y-117721531D01*
X186133203Y-117908803D01*
X185945931Y-118136995D01*
X185928000Y-118170541D01*
X185910069Y-118136994D01*
X185722797Y-117908803D01*
X185494605Y-117721531D01*
X185234263Y-117582375D01*
X184951776Y-117496684D01*
X184658000Y-117467749D01*
X184364223Y-117496684D01*
X184081736Y-117582375D01*
X183821394Y-117721531D01*
X183593203Y-117908803D01*
X183405931Y-118136995D01*
X183388000Y-118170541D01*
X183370069Y-118136994D01*
X183182797Y-117908803D01*
X182954605Y-117721531D01*
X182694263Y-117582375D01*
X182411776Y-117496684D01*
X182118000Y-117467749D01*
X181824223Y-117496684D01*
X181541736Y-117582375D01*
X181281394Y-117721531D01*
X181053203Y-117908803D01*
X180865931Y-118136995D01*
X180848000Y-118170541D01*
X180830069Y-118136994D01*
X180642797Y-117908803D01*
X180414605Y-117721531D01*
X180154263Y-117582375D01*
X179871776Y-117496684D01*
X179578000Y-117467749D01*
X179284223Y-117496684D01*
X179001736Y-117582375D01*
X178741394Y-117721531D01*
X178513203Y-117908803D01*
X178325931Y-118136995D01*
X178308000Y-118170541D01*
X178290069Y-118136994D01*
X178102797Y-117908803D01*
X177874605Y-117721531D01*
X177614263Y-117582375D01*
X177331776Y-117496684D01*
X177038000Y-117467749D01*
X176744223Y-117496684D01*
X176461736Y-117582375D01*
X176201394Y-117721531D01*
X175973203Y-117908803D01*
X175887020Y-118013818D01*
X173237004Y-115363803D01*
X173213201Y-115334799D01*
X173097476Y-115239826D01*
X172965447Y-115169254D01*
X172822186Y-115125797D01*
X172710533Y-115114800D01*
X172710522Y-115114800D01*
X172673200Y-115111124D01*
X172635878Y-115114800D01*
X164449602Y-115114800D01*
X164418906Y-115084104D01*
X196499501Y-115084104D01*
X196578782Y-115334567D01*
X196845141Y-115461826D01*
X197131210Y-115534675D01*
X197425993Y-115550315D01*
X197718164Y-115508145D01*
X197996493Y-115409786D01*
X198137218Y-115334567D01*
X198216499Y-115084104D01*
X197358000Y-114225605D01*
X196499501Y-115084104D01*
X164418906Y-115084104D01*
X163448795Y-114113993D01*
X195853685Y-114113993D01*
X195895855Y-114406164D01*
X195994214Y-114684493D01*
X196069433Y-114825218D01*
X196319896Y-114904499D01*
X197178395Y-114046000D01*
X196319896Y-113187501D01*
X196069433Y-113266782D01*
X195942174Y-113533141D01*
X195869325Y-113819210D01*
X195853685Y-114113993D01*
X163448795Y-114113993D01*
X144077553Y-94742752D01*
X144053468Y-94621671D01*
X143982986Y-94451511D01*
X143880662Y-94298372D01*
X143750428Y-94168138D01*
X143597289Y-94065814D01*
X143427129Y-93995332D01*
X143246489Y-93959400D01*
X143062311Y-93959400D01*
X142881671Y-93995332D01*
X142711511Y-94065814D01*
X142558372Y-94168138D01*
X142428138Y-94298372D01*
X142325814Y-94451511D01*
X142255332Y-94621671D01*
X142219400Y-94802311D01*
X137393201Y-94802311D01*
X137393201Y-93066891D01*
X143973519Y-93066891D01*
X144070843Y-93341252D01*
X144219822Y-93591355D01*
X144414731Y-93807588D01*
X144648080Y-93981641D01*
X144910901Y-94106825D01*
X145058110Y-94151476D01*
X145288000Y-94030155D01*
X145288000Y-92837000D01*
X144094186Y-92837000D01*
X143973519Y-93066891D01*
X137393201Y-93066891D01*
X137393201Y-91020000D01*
X143926928Y-91020000D01*
X143939188Y-91144482D01*
X143975498Y-91264180D01*
X144034463Y-91374494D01*
X144113815Y-91471185D01*
X144210506Y-91550537D01*
X144320820Y-91609502D01*
X144396626Y-91632498D01*
X144219822Y-91828645D01*
X144070843Y-92078748D01*
X143973519Y-92353109D01*
X144094186Y-92583000D01*
X145288000Y-92583000D01*
X145288000Y-90297000D01*
X144088750Y-90297000D01*
X143930000Y-90455750D01*
X143926928Y-91020000D01*
X137393201Y-91020000D01*
X137393201Y-89320000D01*
X143926928Y-89320000D01*
X143930000Y-89884250D01*
X144088750Y-90043000D01*
X145288000Y-90043000D01*
X145288000Y-88843750D01*
X145129250Y-88685000D01*
X144565000Y-88681928D01*
X144440518Y-88694188D01*
X144320820Y-88730498D01*
X144210506Y-88789463D01*
X144113815Y-88868815D01*
X144034463Y-88965506D01*
X143975498Y-89075820D01*
X143939188Y-89195518D01*
X143926928Y-89320000D01*
X137393201Y-89320000D01*
X137393201Y-83961244D01*
X137427166Y-83979399D01*
X137707089Y-84064313D01*
X137925250Y-84085800D01*
X138071150Y-84085800D01*
X138289311Y-84064313D01*
X138569234Y-83979399D01*
X138827214Y-83841506D01*
X139053334Y-83655934D01*
X139238906Y-83429814D01*
X139268200Y-83375009D01*
X139297494Y-83429814D01*
X139483066Y-83655934D01*
X139709186Y-83841506D01*
X139967166Y-83979399D01*
X140247089Y-84064313D01*
X140465250Y-84085800D01*
X140611150Y-84085800D01*
X140829311Y-84064313D01*
X141109234Y-83979399D01*
X141367214Y-83841506D01*
X141593334Y-83655934D01*
X141778906Y-83429814D01*
X141808200Y-83375009D01*
X141837494Y-83429814D01*
X142023066Y-83655934D01*
X142249186Y-83841506D01*
X142507166Y-83979399D01*
X142787089Y-84064313D01*
X143005250Y-84085800D01*
X143151150Y-84085800D01*
X143369311Y-84064313D01*
X143649234Y-83979399D01*
X143907214Y-83841506D01*
X144133334Y-83655934D01*
X144318906Y-83429814D01*
X144348200Y-83375009D01*
X144377494Y-83429814D01*
X144563066Y-83655934D01*
X144789186Y-83841506D01*
X145047166Y-83979399D01*
X145327089Y-84064313D01*
X145545250Y-84085800D01*
X145691150Y-84085800D01*
X145909311Y-84064313D01*
X146189234Y-83979399D01*
X146447214Y-83841506D01*
X146673334Y-83655934D01*
X146858906Y-83429814D01*
X146888200Y-83375009D01*
X146917494Y-83429814D01*
X147103066Y-83655934D01*
X147329186Y-83841506D01*
X147587166Y-83979399D01*
X147867089Y-84064313D01*
X148085250Y-84085800D01*
X148231150Y-84085800D01*
X148449311Y-84064313D01*
X148729234Y-83979399D01*
X148987214Y-83841506D01*
X149213334Y-83655934D01*
X149398906Y-83429814D01*
X149428200Y-83375009D01*
X149457494Y-83429814D01*
X149643066Y-83655934D01*
X149869186Y-83841506D01*
X150127166Y-83979399D01*
X150407089Y-84064313D01*
X150625250Y-84085800D01*
X150771150Y-84085800D01*
X150989311Y-84064313D01*
X151269234Y-83979399D01*
X151527214Y-83841506D01*
X151753334Y-83655934D01*
X151938906Y-83429814D01*
X151968200Y-83375009D01*
X151997494Y-83429814D01*
X152183066Y-83655934D01*
X152409186Y-83841506D01*
X152667166Y-83979399D01*
X152947089Y-84064313D01*
X153165250Y-84085800D01*
X153311150Y-84085800D01*
X153529311Y-84064313D01*
X153809234Y-83979399D01*
X154067214Y-83841506D01*
X154293334Y-83655934D01*
X154478906Y-83429814D01*
X154508200Y-83375009D01*
X154537494Y-83429814D01*
X154723066Y-83655934D01*
X154949186Y-83841506D01*
X155207166Y-83979399D01*
X155487089Y-84064313D01*
X155705250Y-84085800D01*
X155851150Y-84085800D01*
X156069311Y-84064313D01*
X156349234Y-83979399D01*
X156607214Y-83841506D01*
X156833334Y-83655934D01*
X157018906Y-83429814D01*
X157048200Y-83375009D01*
X157077494Y-83429814D01*
X157263066Y-83655934D01*
X157489186Y-83841506D01*
X157747166Y-83979399D01*
X158027089Y-84064313D01*
X158245250Y-84085800D01*
X158391150Y-84085800D01*
X158609311Y-84064313D01*
X158889234Y-83979399D01*
X159147214Y-83841506D01*
X159373334Y-83655934D01*
X159558906Y-83429814D01*
X159588200Y-83375009D01*
X159617494Y-83429814D01*
X159803066Y-83655934D01*
X160029186Y-83841506D01*
X160287166Y-83979399D01*
X160567089Y-84064313D01*
X160785250Y-84085800D01*
X160931150Y-84085800D01*
X161149311Y-84064313D01*
X161429234Y-83979399D01*
X161687214Y-83841506D01*
X161913334Y-83655934D01*
X162098906Y-83429814D01*
X162128200Y-83375009D01*
X162157494Y-83429814D01*
X162343066Y-83655934D01*
X162569186Y-83841506D01*
X162827166Y-83979399D01*
X163107089Y-84064313D01*
X163325250Y-84085800D01*
X163471150Y-84085800D01*
X163689311Y-84064313D01*
X163969234Y-83979399D01*
X164227214Y-83841506D01*
X164453334Y-83655934D01*
X164638906Y-83429814D01*
X164776799Y-83171834D01*
X164861713Y-82891911D01*
X164890385Y-82600800D01*
X164861713Y-82309689D01*
X164776799Y-82029766D01*
X164638906Y-81771786D01*
X164453334Y-81545666D01*
X164227214Y-81360094D01*
X164172409Y-81330800D01*
X164227214Y-81301506D01*
X164453334Y-81115934D01*
X164638906Y-80889814D01*
X164776799Y-80631834D01*
X164861713Y-80351911D01*
X164890385Y-80060800D01*
X164861713Y-79769689D01*
X164776799Y-79489766D01*
X164638906Y-79231786D01*
X164453334Y-79005666D01*
X164227214Y-78820094D01*
X163969234Y-78682201D01*
X163689311Y-78597287D01*
X163471150Y-78575800D01*
X163325250Y-78575800D01*
X163107089Y-78597287D01*
X162827166Y-78682201D01*
X162569186Y-78820094D01*
X162343066Y-79005666D01*
X162157494Y-79231786D01*
X162128200Y-79286591D01*
X162098906Y-79231786D01*
X161913334Y-79005666D01*
X161687214Y-78820094D01*
X161429234Y-78682201D01*
X161149311Y-78597287D01*
X160931150Y-78575800D01*
X160785250Y-78575800D01*
X160567089Y-78597287D01*
X160287166Y-78682201D01*
X160029186Y-78820094D01*
X159803066Y-79005666D01*
X159617494Y-79231786D01*
X159588200Y-79286591D01*
X159558906Y-79231786D01*
X159373334Y-79005666D01*
X159147214Y-78820094D01*
X158889234Y-78682201D01*
X158609311Y-78597287D01*
X158391150Y-78575800D01*
X158245250Y-78575800D01*
X158027089Y-78597287D01*
X157747166Y-78682201D01*
X157489186Y-78820094D01*
X157263066Y-79005666D01*
X157077494Y-79231786D01*
X157048200Y-79286591D01*
X157018906Y-79231786D01*
X156833334Y-79005666D01*
X156607214Y-78820094D01*
X156349234Y-78682201D01*
X156069311Y-78597287D01*
X155851150Y-78575800D01*
X155705250Y-78575800D01*
X155487089Y-78597287D01*
X155207166Y-78682201D01*
X154949186Y-78820094D01*
X154723066Y-79005666D01*
X154537494Y-79231786D01*
X154508200Y-79286591D01*
X154478906Y-79231786D01*
X154293334Y-79005666D01*
X154067214Y-78820094D01*
X153809234Y-78682201D01*
X153529311Y-78597287D01*
X153311150Y-78575800D01*
X153165250Y-78575800D01*
X152947089Y-78597287D01*
X152667166Y-78682201D01*
X152409186Y-78820094D01*
X152183066Y-79005666D01*
X151997494Y-79231786D01*
X151968200Y-79286591D01*
X151938906Y-79231786D01*
X151753334Y-79005666D01*
X151527214Y-78820094D01*
X151269234Y-78682201D01*
X150989311Y-78597287D01*
X150771150Y-78575800D01*
X150625250Y-78575800D01*
X150407089Y-78597287D01*
X150127166Y-78682201D01*
X149869186Y-78820094D01*
X149643066Y-79005666D01*
X149457494Y-79231786D01*
X149428200Y-79286591D01*
X149398906Y-79231786D01*
X149213334Y-79005666D01*
X148987214Y-78820094D01*
X148729234Y-78682201D01*
X148449311Y-78597287D01*
X148231150Y-78575800D01*
X148085250Y-78575800D01*
X147867089Y-78597287D01*
X147587166Y-78682201D01*
X147329186Y-78820094D01*
X147103066Y-79005666D01*
X146917494Y-79231786D01*
X146888200Y-79286591D01*
X146858906Y-79231786D01*
X146673334Y-79005666D01*
X146447214Y-78820094D01*
X146189234Y-78682201D01*
X145909311Y-78597287D01*
X145691150Y-78575800D01*
X145545250Y-78575800D01*
X145327089Y-78597287D01*
X145047166Y-78682201D01*
X144789186Y-78820094D01*
X144563066Y-79005666D01*
X144377494Y-79231786D01*
X144348200Y-79286591D01*
X144318906Y-79231786D01*
X144133334Y-79005666D01*
X143907214Y-78820094D01*
X143649234Y-78682201D01*
X143369311Y-78597287D01*
X143151150Y-78575800D01*
X143005250Y-78575800D01*
X142787089Y-78597287D01*
X142507166Y-78682201D01*
X142249186Y-78820094D01*
X142023066Y-79005666D01*
X141837494Y-79231786D01*
X141808200Y-79286591D01*
X141778906Y-79231786D01*
X141593334Y-79005666D01*
X141367214Y-78820094D01*
X141109234Y-78682201D01*
X140829311Y-78597287D01*
X140611150Y-78575800D01*
X140465250Y-78575800D01*
X140247089Y-78597287D01*
X139967166Y-78682201D01*
X139709186Y-78820094D01*
X139483066Y-79005666D01*
X139297494Y-79231786D01*
X139268200Y-79286591D01*
X139238906Y-79231786D01*
X139053334Y-79005666D01*
X138827214Y-78820094D01*
X138569234Y-78682201D01*
X138289311Y-78597287D01*
X138071150Y-78575800D01*
X137925250Y-78575800D01*
X137707089Y-78597287D01*
X137427166Y-78682201D01*
X137169186Y-78820094D01*
X136943066Y-79005666D01*
X136757494Y-79231786D01*
X136728200Y-79286591D01*
X136698906Y-79231786D01*
X136513334Y-79005666D01*
X136287214Y-78820094D01*
X136029234Y-78682201D01*
X135749311Y-78597287D01*
X135531150Y-78575800D01*
X135385250Y-78575800D01*
X135167089Y-78597287D01*
X134887166Y-78682201D01*
X134629186Y-78820094D01*
X134403066Y-79005666D01*
X134217494Y-79231786D01*
X134188200Y-79286591D01*
X134158906Y-79231786D01*
X133973334Y-79005666D01*
X133747214Y-78820094D01*
X133489234Y-78682201D01*
X133209311Y-78597287D01*
X132991150Y-78575800D01*
X132845250Y-78575800D01*
X132627089Y-78597287D01*
X132347166Y-78682201D01*
X132089186Y-78820094D01*
X131863066Y-79005666D01*
X131677494Y-79231786D01*
X131648200Y-79286591D01*
X131618906Y-79231786D01*
X131433334Y-79005666D01*
X131207214Y-78820094D01*
X130949234Y-78682201D01*
X130669311Y-78597287D01*
X130451150Y-78575800D01*
X130305250Y-78575800D01*
X130087089Y-78597287D01*
X129807166Y-78682201D01*
X129549186Y-78820094D01*
X129323066Y-79005666D01*
X129137494Y-79231786D01*
X129108200Y-79286591D01*
X129078906Y-79231786D01*
X128893334Y-79005666D01*
X128667214Y-78820094D01*
X128409234Y-78682201D01*
X128129311Y-78597287D01*
X127911150Y-78575800D01*
X127765250Y-78575800D01*
X127547089Y-78597287D01*
X127472205Y-78620003D01*
X126166804Y-77314603D01*
X126143001Y-77285599D01*
X126027276Y-77190626D01*
X125895247Y-77120054D01*
X125751986Y-77076597D01*
X125640333Y-77065600D01*
X125640322Y-77065600D01*
X125603000Y-77061924D01*
X125565678Y-77065600D01*
X124852925Y-77065600D01*
X124815600Y-77061924D01*
X124778275Y-77065600D01*
X124778267Y-77065600D01*
X124666614Y-77076597D01*
X124523353Y-77120054D01*
X124391324Y-77190626D01*
X124275599Y-77285599D01*
X124251801Y-77314598D01*
X123491798Y-78074601D01*
X123462800Y-78098399D01*
X123439002Y-78127397D01*
X123439001Y-78127398D01*
X123367826Y-78214124D01*
X123297254Y-78346154D01*
X123266980Y-78445958D01*
X123254834Y-78486001D01*
X123253798Y-78489415D01*
X123239124Y-78638400D01*
X123240796Y-78655373D01*
X123049311Y-78597287D01*
X122831150Y-78575800D01*
X122685250Y-78575800D01*
X122467089Y-78597287D01*
X122187166Y-78682201D01*
X121929186Y-78820094D01*
X121703066Y-79005666D01*
X121678593Y-79035487D01*
X121657702Y-78966620D01*
X121598737Y-78856306D01*
X121519385Y-78759615D01*
X121422694Y-78680263D01*
X121312380Y-78621298D01*
X121192682Y-78584988D01*
X121068200Y-78572728D01*
X119368200Y-78572728D01*
X119243718Y-78584988D01*
X119124020Y-78621298D01*
X119013706Y-78680263D01*
X118917015Y-78759615D01*
X118837663Y-78856306D01*
X118778698Y-78966620D01*
X118742388Y-79086318D01*
X118730128Y-79210800D01*
X118730128Y-80910800D01*
X118742388Y-81035282D01*
X118777845Y-81152167D01*
X117094000Y-79468324D01*
X117094000Y-78722876D01*
X119286678Y-76530200D01*
X189247124Y-76530200D01*
X190195200Y-77478278D01*
X190195200Y-82680216D01*
X190163129Y-82666932D01*
X189982489Y-82631000D01*
X189798311Y-82631000D01*
X189617671Y-82666932D01*
X189447511Y-82737414D01*
X189294372Y-82839738D01*
X189164138Y-82969972D01*
X189061814Y-83123111D01*
X188991332Y-83293271D01*
X188967248Y-83414349D01*
X187816375Y-84565223D01*
X187899586Y-84440689D01*
X187970068Y-84270529D01*
X188006000Y-84089889D01*
X188006000Y-83905711D01*
X187970068Y-83725071D01*
X187899586Y-83554911D01*
X187808739Y-83418948D01*
X187870228Y-83377862D01*
X188000462Y-83247628D01*
X188102786Y-83094489D01*
X188173268Y-82924329D01*
X188209200Y-82743689D01*
X188209200Y-82559511D01*
X188173268Y-82378871D01*
X188102786Y-82208711D01*
X188000462Y-82055572D01*
X187870228Y-81925338D01*
X187717089Y-81823014D01*
X187546929Y-81752532D01*
X187366289Y-81716600D01*
X187182111Y-81716600D01*
X187001471Y-81752532D01*
X186831311Y-81823014D01*
X186728665Y-81891600D01*
X178370722Y-81891600D01*
X178333399Y-81887924D01*
X178296076Y-81891600D01*
X178296067Y-81891600D01*
X178184414Y-81902597D01*
X178041153Y-81946054D01*
X177909124Y-82016626D01*
X177793399Y-82111599D01*
X177769601Y-82140597D01*
X171180996Y-88729203D01*
X171106111Y-88706487D01*
X170887950Y-88685000D01*
X170742050Y-88685000D01*
X170523889Y-88706487D01*
X170243966Y-88791401D01*
X169985986Y-88929294D01*
X169759866Y-89114866D01*
X169574294Y-89340986D01*
X169545000Y-89395791D01*
X169515706Y-89340986D01*
X169330134Y-89114866D01*
X169104014Y-88929294D01*
X168846034Y-88791401D01*
X168566111Y-88706487D01*
X168347950Y-88685000D01*
X168202050Y-88685000D01*
X167983889Y-88706487D01*
X167703966Y-88791401D01*
X167445986Y-88929294D01*
X167219866Y-89114866D01*
X167034294Y-89340986D01*
X167005000Y-89395791D01*
X166975706Y-89340986D01*
X166790134Y-89114866D01*
X166564014Y-88929294D01*
X166306034Y-88791401D01*
X166026111Y-88706487D01*
X165807950Y-88685000D01*
X165662050Y-88685000D01*
X165443889Y-88706487D01*
X165163966Y-88791401D01*
X164905986Y-88929294D01*
X164679866Y-89114866D01*
X164494294Y-89340986D01*
X164465000Y-89395791D01*
X164435706Y-89340986D01*
X164250134Y-89114866D01*
X164024014Y-88929294D01*
X163766034Y-88791401D01*
X163486111Y-88706487D01*
X163267950Y-88685000D01*
X163122050Y-88685000D01*
X162903889Y-88706487D01*
X162623966Y-88791401D01*
X162365986Y-88929294D01*
X162139866Y-89114866D01*
X161954294Y-89340986D01*
X161925000Y-89395791D01*
X161895706Y-89340986D01*
X161710134Y-89114866D01*
X161484014Y-88929294D01*
X161226034Y-88791401D01*
X160946111Y-88706487D01*
X160727950Y-88685000D01*
X160582050Y-88685000D01*
X160363889Y-88706487D01*
X160083966Y-88791401D01*
X159825986Y-88929294D01*
X159599866Y-89114866D01*
X159414294Y-89340986D01*
X159385000Y-89395791D01*
X159355706Y-89340986D01*
X159170134Y-89114866D01*
X158944014Y-88929294D01*
X158686034Y-88791401D01*
X158406111Y-88706487D01*
X158187950Y-88685000D01*
X158042050Y-88685000D01*
X157823889Y-88706487D01*
X157543966Y-88791401D01*
X157285986Y-88929294D01*
X157059866Y-89114866D01*
X156874294Y-89340986D01*
X156845000Y-89395791D01*
X156815706Y-89340986D01*
X156630134Y-89114866D01*
X156404014Y-88929294D01*
X156146034Y-88791401D01*
X155866111Y-88706487D01*
X155647950Y-88685000D01*
X155502050Y-88685000D01*
X155283889Y-88706487D01*
X155003966Y-88791401D01*
X154745986Y-88929294D01*
X154519866Y-89114866D01*
X154334294Y-89340986D01*
X154305000Y-89395791D01*
X154275706Y-89340986D01*
X154090134Y-89114866D01*
X153864014Y-88929294D01*
X153606034Y-88791401D01*
X153326111Y-88706487D01*
X153107950Y-88685000D01*
X152962050Y-88685000D01*
X152743889Y-88706487D01*
X152463966Y-88791401D01*
X152205986Y-88929294D01*
X151979866Y-89114866D01*
X151794294Y-89340986D01*
X151765000Y-89395791D01*
X151735706Y-89340986D01*
X151550134Y-89114866D01*
X151324014Y-88929294D01*
X151066034Y-88791401D01*
X150786111Y-88706487D01*
X150567950Y-88685000D01*
X150422050Y-88685000D01*
X150203889Y-88706487D01*
X149923966Y-88791401D01*
X149665986Y-88929294D01*
X149439866Y-89114866D01*
X149254294Y-89340986D01*
X149225000Y-89395791D01*
X149195706Y-89340986D01*
X149010134Y-89114866D01*
X148784014Y-88929294D01*
X148526034Y-88791401D01*
X148246111Y-88706487D01*
X148027950Y-88685000D01*
X147882050Y-88685000D01*
X147663889Y-88706487D01*
X147383966Y-88791401D01*
X147125986Y-88929294D01*
X146899866Y-89114866D01*
X146875393Y-89144687D01*
X146854502Y-89075820D01*
X146795537Y-88965506D01*
X146716185Y-88868815D01*
X146619494Y-88789463D01*
X146509180Y-88730498D01*
X146389482Y-88694188D01*
X146265000Y-88681928D01*
X145700750Y-88685000D01*
X145542000Y-88843750D01*
X145542000Y-90043000D01*
X145562000Y-90043000D01*
X145562000Y-90297000D01*
X145542000Y-90297000D01*
X145542000Y-92583000D01*
X145562000Y-92583000D01*
X145562000Y-92837000D01*
X145542000Y-92837000D01*
X145542000Y-94030155D01*
X145771890Y-94151476D01*
X145919099Y-94106825D01*
X146181920Y-93981641D01*
X146415269Y-93807588D01*
X146610178Y-93591355D01*
X146679799Y-93474477D01*
X146714294Y-93539014D01*
X146899866Y-93765134D01*
X147125986Y-93950706D01*
X147195001Y-93987595D01*
X147195001Y-94450668D01*
X147191324Y-94488000D01*
X147195001Y-94525333D01*
X147197141Y-94547055D01*
X147205998Y-94636985D01*
X147249454Y-94780246D01*
X147320026Y-94912276D01*
X147380932Y-94986489D01*
X147415000Y-95028001D01*
X147443998Y-95051799D01*
X163057801Y-110665603D01*
X163081600Y-110694602D01*
X163110598Y-110718400D01*
X163197325Y-110789575D01*
X163329354Y-110860147D01*
X163472615Y-110903604D01*
X163621601Y-110918278D01*
X163658934Y-110914601D01*
X195974865Y-110914601D01*
X195966775Y-110929736D01*
X195881084Y-111212223D01*
X195852149Y-111506000D01*
X195881084Y-111799777D01*
X195966775Y-112082264D01*
X196105931Y-112342606D01*
X196293203Y-112570797D01*
X196521394Y-112758069D01*
X196570305Y-112784213D01*
X196499501Y-113007896D01*
X197358000Y-113866395D01*
X198216499Y-113007896D01*
X198145695Y-112784213D01*
X198194606Y-112758069D01*
X198422797Y-112570797D01*
X198610069Y-112342606D01*
X198628000Y-112309060D01*
X198645931Y-112342606D01*
X198833203Y-112570797D01*
X199061394Y-112758069D01*
X199101433Y-112779470D01*
X198887707Y-112939146D01*
X198691183Y-113157512D01*
X198629434Y-113261359D01*
X198396104Y-113187501D01*
X197537605Y-114046000D01*
X198396104Y-114904499D01*
X198629434Y-114830641D01*
X198691183Y-114934488D01*
X198887707Y-115152854D01*
X199123056Y-115328684D01*
X199388186Y-115455222D01*
X199538974Y-115500958D01*
X199771000Y-115379817D01*
X199771000Y-114173000D01*
X200025000Y-114173000D01*
X200025000Y-115379817D01*
X200257026Y-115500958D01*
X200407814Y-115455222D01*
X200672944Y-115328684D01*
X200908293Y-115152854D01*
X201104817Y-114934488D01*
X201254964Y-114681978D01*
X201352963Y-114405027D01*
X201232464Y-114173000D01*
X200025000Y-114173000D01*
X199771000Y-114173000D01*
X199751000Y-114173000D01*
X199751000Y-113919000D01*
X199771000Y-113919000D01*
X199771000Y-113899000D01*
X200025000Y-113899000D01*
X200025000Y-113919000D01*
X201232464Y-113919000D01*
X201352963Y-113686973D01*
X201254964Y-113410022D01*
X201104817Y-113157512D01*
X200908293Y-112939146D01*
X200694567Y-112779470D01*
X200734606Y-112758069D01*
X200962797Y-112570797D01*
X201150069Y-112342606D01*
X201289225Y-112082264D01*
X201374916Y-111799777D01*
X201403851Y-111506000D01*
X201374916Y-111212223D01*
X201289225Y-110929736D01*
X201150069Y-110669394D01*
X200962797Y-110441203D01*
X200734606Y-110253931D01*
X200701060Y-110236000D01*
X200734606Y-110218069D01*
X200962797Y-110030797D01*
X201150069Y-109802606D01*
X201289225Y-109542264D01*
X201374916Y-109259777D01*
X201403851Y-108966000D01*
X201374916Y-108672223D01*
X201289225Y-108389736D01*
X201150069Y-108129394D01*
X200962797Y-107901203D01*
X200734606Y-107713931D01*
X200701060Y-107696000D01*
X200734606Y-107678069D01*
X200962797Y-107490797D01*
X201150069Y-107262606D01*
X201289225Y-107002264D01*
X201374916Y-106719777D01*
X201403851Y-106426000D01*
X201374916Y-106132223D01*
X201289225Y-105849736D01*
X201150069Y-105589394D01*
X200962797Y-105361203D01*
X200734606Y-105173931D01*
X200701060Y-105156000D01*
X200734606Y-105138069D01*
X200962797Y-104950797D01*
X201150069Y-104722606D01*
X201289225Y-104462264D01*
X201374916Y-104179777D01*
X201403851Y-103886000D01*
X201374916Y-103592223D01*
X201289225Y-103309736D01*
X201150069Y-103049394D01*
X200962797Y-102821203D01*
X200734606Y-102633931D01*
X200701060Y-102616000D01*
X200734606Y-102598069D01*
X200962797Y-102410797D01*
X201150069Y-102182606D01*
X201289225Y-101922264D01*
X201374916Y-101639777D01*
X201403851Y-101346000D01*
X201374916Y-101052223D01*
X201289225Y-100769736D01*
X201150069Y-100509394D01*
X200962797Y-100281203D01*
X200734606Y-100093931D01*
X200701060Y-100076000D01*
X200734606Y-100058069D01*
X200962797Y-99870797D01*
X201150069Y-99642606D01*
X201289225Y-99382264D01*
X201374916Y-99099777D01*
X201403851Y-98806000D01*
X201374916Y-98512223D01*
X201289225Y-98229736D01*
X201150069Y-97969394D01*
X200962797Y-97741203D01*
X200734606Y-97553931D01*
X200701060Y-97536000D01*
X200734606Y-97518069D01*
X200962797Y-97330797D01*
X201150069Y-97102606D01*
X201289225Y-96842264D01*
X201374916Y-96559777D01*
X201403851Y-96266000D01*
X201374916Y-95972223D01*
X201289225Y-95689736D01*
X201150069Y-95429394D01*
X200962797Y-95201203D01*
X200734606Y-95013931D01*
X200701060Y-94996000D01*
X200734606Y-94978069D01*
X200962797Y-94790797D01*
X201150069Y-94562606D01*
X201289225Y-94302264D01*
X201374916Y-94019777D01*
X201403851Y-93726000D01*
X201374916Y-93432223D01*
X201289225Y-93149736D01*
X201150069Y-92889394D01*
X200962797Y-92661203D01*
X200734606Y-92473931D01*
X200701060Y-92456000D01*
X200734606Y-92438069D01*
X200962797Y-92250797D01*
X201150069Y-92022606D01*
X201289225Y-91762264D01*
X201374916Y-91479777D01*
X201403851Y-91186000D01*
X201374916Y-90892223D01*
X201289225Y-90609736D01*
X201150069Y-90349394D01*
X200962797Y-90121203D01*
X200734606Y-89933931D01*
X200701060Y-89916000D01*
X200734606Y-89898069D01*
X200962797Y-89710797D01*
X201150069Y-89482606D01*
X201289225Y-89222264D01*
X201374916Y-88939777D01*
X201403851Y-88646000D01*
X201374916Y-88352223D01*
X201289225Y-88069736D01*
X201150069Y-87809394D01*
X200962797Y-87581203D01*
X200734606Y-87393931D01*
X200701060Y-87376000D01*
X200734606Y-87358069D01*
X200962797Y-87170797D01*
X201150069Y-86942606D01*
X201289225Y-86682264D01*
X201374916Y-86399777D01*
X201403851Y-86106000D01*
X201374916Y-85812223D01*
X201289225Y-85529736D01*
X201150069Y-85269394D01*
X200962797Y-85041203D01*
X200734606Y-84853931D01*
X200701060Y-84836000D01*
X200734606Y-84818069D01*
X200962797Y-84630797D01*
X201150069Y-84402606D01*
X201289225Y-84142264D01*
X201374916Y-83859777D01*
X201403851Y-83566000D01*
X201374916Y-83272223D01*
X201289225Y-82989736D01*
X201150069Y-82729394D01*
X200962797Y-82501203D01*
X200734606Y-82313931D01*
X200701060Y-82296000D01*
X200734606Y-82278069D01*
X200962797Y-82090797D01*
X201150069Y-81862606D01*
X201289225Y-81602264D01*
X201374916Y-81319777D01*
X201403851Y-81026000D01*
X201374916Y-80732223D01*
X201289225Y-80449736D01*
X201150069Y-80189394D01*
X200962797Y-79961203D01*
X200734606Y-79773931D01*
X200701060Y-79756000D01*
X200734606Y-79738069D01*
X200962797Y-79550797D01*
X201150069Y-79322606D01*
X201289225Y-79062264D01*
X201374916Y-78779777D01*
X201403851Y-78486000D01*
X201374916Y-78192223D01*
X201289225Y-77909736D01*
X201150069Y-77649394D01*
X200962797Y-77421203D01*
X200734606Y-77233931D01*
X200701060Y-77216000D01*
X200734606Y-77198069D01*
X200962797Y-77010797D01*
X201150069Y-76782606D01*
X201289225Y-76522264D01*
X201374916Y-76239777D01*
X201403851Y-75946000D01*
X201374916Y-75652223D01*
X201289225Y-75369736D01*
X201150069Y-75109394D01*
X200962797Y-74881203D01*
X200734606Y-74693931D01*
X200701060Y-74676000D01*
X200734606Y-74658069D01*
X200962797Y-74470797D01*
X201150069Y-74242606D01*
X201289225Y-73982264D01*
X201374916Y-73699777D01*
X201403851Y-73406000D01*
X201374916Y-73112223D01*
X201289225Y-72829736D01*
X201150069Y-72569394D01*
X200962797Y-72341203D01*
X200734606Y-72153931D01*
X200701060Y-72136000D01*
X200734606Y-72118069D01*
X200962797Y-71930797D01*
X201150069Y-71702606D01*
X201289225Y-71442264D01*
X201374916Y-71159777D01*
X201403851Y-70866000D01*
X201400567Y-70832659D01*
X201728000Y-71160092D01*
X201728001Y-80991115D01*
X201724565Y-81026000D01*
X201738274Y-81165184D01*
X201778872Y-81299019D01*
X201812528Y-81361985D01*
X201844801Y-81422363D01*
X201933526Y-81530475D01*
X201960617Y-81552708D01*
X204268000Y-83860092D01*
X204268001Y-117561907D01*
X202565000Y-119264909D01*
X202565000Y-118863323D01*
X202462508Y-118348065D01*
X202261464Y-117862702D01*
X201969594Y-117425887D01*
X201598113Y-117054406D01*
X201161298Y-116762536D01*
X200675935Y-116561492D01*
X200160677Y-116459000D01*
X199635323Y-116459000D01*
X199120065Y-116561492D01*
X198634702Y-116762536D01*
X198197887Y-117054406D01*
X197826406Y-117425887D01*
X197534536Y-117862702D01*
X197333492Y-118348065D01*
X197231000Y-118863323D01*
X197231000Y-119388677D01*
X197333492Y-119903935D01*
X197534536Y-120389298D01*
X197826406Y-120826113D01*
X197956293Y-120956000D01*
X119289707Y-120956000D01*
X119419594Y-120826113D01*
X119711464Y-120389298D01*
X119912508Y-119903935D01*
X120015000Y-119388677D01*
X120015000Y-118899982D01*
X129819400Y-118899982D01*
X129819400Y-119352019D01*
X129841084Y-119572177D01*
X129926775Y-119854664D01*
X130065931Y-120115006D01*
X130253203Y-120343197D01*
X130481395Y-120530469D01*
X130741737Y-120669625D01*
X131024224Y-120755316D01*
X131318000Y-120784251D01*
X131611777Y-120755316D01*
X131894264Y-120669625D01*
X132154606Y-120530469D01*
X132382797Y-120343197D01*
X132570069Y-120115006D01*
X132588000Y-120081459D01*
X132605931Y-120115006D01*
X132793203Y-120343197D01*
X133021395Y-120530469D01*
X133281737Y-120669625D01*
X133564224Y-120755316D01*
X133858000Y-120784251D01*
X134151777Y-120755316D01*
X134434264Y-120669625D01*
X134694606Y-120530469D01*
X134922797Y-120343197D01*
X135110069Y-120115006D01*
X135128000Y-120081459D01*
X135145931Y-120115006D01*
X135333203Y-120343197D01*
X135561395Y-120530469D01*
X135821737Y-120669625D01*
X136104224Y-120755316D01*
X136398000Y-120784251D01*
X136691777Y-120755316D01*
X136974264Y-120669625D01*
X137234606Y-120530469D01*
X137462797Y-120343197D01*
X137650069Y-120115006D01*
X137668000Y-120081459D01*
X137685931Y-120115006D01*
X137873203Y-120343197D01*
X138101395Y-120530469D01*
X138361737Y-120669625D01*
X138644224Y-120755316D01*
X138938000Y-120784251D01*
X139231777Y-120755316D01*
X139514264Y-120669625D01*
X139774606Y-120530469D01*
X140002797Y-120343197D01*
X140190069Y-120115006D01*
X140208000Y-120081459D01*
X140225931Y-120115006D01*
X140413203Y-120343197D01*
X140641395Y-120530469D01*
X140901737Y-120669625D01*
X141184224Y-120755316D01*
X141478000Y-120784251D01*
X141771777Y-120755316D01*
X142054264Y-120669625D01*
X142314606Y-120530469D01*
X142542797Y-120343197D01*
X142730069Y-120115006D01*
X142751424Y-120075053D01*
X142899514Y-120277729D01*
X143115965Y-120476733D01*
X143367081Y-120629686D01*
X143643211Y-120730709D01*
X143658974Y-120733358D01*
X143891000Y-120612217D01*
X143891000Y-119253000D01*
X144145000Y-119253000D01*
X144145000Y-120612217D01*
X144377026Y-120733358D01*
X144392789Y-120730709D01*
X144668919Y-120629686D01*
X144920035Y-120476733D01*
X145136486Y-120277729D01*
X145288000Y-120070367D01*
X145439514Y-120277729D01*
X145655965Y-120476733D01*
X145907081Y-120629686D01*
X146183211Y-120730709D01*
X146198974Y-120733358D01*
X146431000Y-120612217D01*
X146431000Y-119253000D01*
X144145000Y-119253000D01*
X143891000Y-119253000D01*
X143871000Y-119253000D01*
X143871000Y-118999000D01*
X143891000Y-118999000D01*
X143891000Y-117639783D01*
X144145000Y-117639783D01*
X144145000Y-118999000D01*
X146431000Y-118999000D01*
X146431000Y-117639783D01*
X146198974Y-117518642D01*
X146183211Y-117521291D01*
X145907081Y-117622314D01*
X145655965Y-117775267D01*
X145439514Y-117974271D01*
X145288000Y-118181633D01*
X145136486Y-117974271D01*
X144920035Y-117775267D01*
X144668919Y-117622314D01*
X144392789Y-117521291D01*
X144377026Y-117518642D01*
X144145000Y-117639783D01*
X143891000Y-117639783D01*
X143658974Y-117518642D01*
X143643211Y-117521291D01*
X143367081Y-117622314D01*
X143115965Y-117775267D01*
X142899514Y-117974271D01*
X142751424Y-118176947D01*
X142730069Y-118136994D01*
X142542797Y-117908803D01*
X142314605Y-117721531D01*
X142054263Y-117582375D01*
X141771776Y-117496684D01*
X141478000Y-117467749D01*
X141184223Y-117496684D01*
X140901736Y-117582375D01*
X140641394Y-117721531D01*
X140413203Y-117908803D01*
X140225931Y-118136995D01*
X140208000Y-118170541D01*
X140190069Y-118136994D01*
X140002797Y-117908803D01*
X139774605Y-117721531D01*
X139514263Y-117582375D01*
X139231776Y-117496684D01*
X138938000Y-117467749D01*
X138644223Y-117496684D01*
X138361736Y-117582375D01*
X138101394Y-117721531D01*
X137873203Y-117908803D01*
X137685931Y-118136995D01*
X137668000Y-118170541D01*
X137650069Y-118136994D01*
X137462797Y-117908803D01*
X137234605Y-117721531D01*
X136974263Y-117582375D01*
X136691776Y-117496684D01*
X136398000Y-117467749D01*
X136104223Y-117496684D01*
X135821736Y-117582375D01*
X135561394Y-117721531D01*
X135333203Y-117908803D01*
X135145931Y-118136995D01*
X135128000Y-118170541D01*
X135110069Y-118136994D01*
X134922797Y-117908803D01*
X134694605Y-117721531D01*
X134434263Y-117582375D01*
X134151776Y-117496684D01*
X133858000Y-117467749D01*
X133564223Y-117496684D01*
X133281736Y-117582375D01*
X133021394Y-117721531D01*
X132793203Y-117908803D01*
X132605931Y-118136995D01*
X132588000Y-118170541D01*
X132570069Y-118136994D01*
X132382797Y-117908803D01*
X132154605Y-117721531D01*
X131894263Y-117582375D01*
X131611776Y-117496684D01*
X131318000Y-117467749D01*
X131024223Y-117496684D01*
X130741736Y-117582375D01*
X130481394Y-117721531D01*
X130253203Y-117908803D01*
X130065931Y-118136995D01*
X129926775Y-118397337D01*
X129841084Y-118679824D01*
X129819400Y-118899982D01*
X120015000Y-118899982D01*
X120015000Y-118863323D01*
X119912508Y-118348065D01*
X119711464Y-117862702D01*
X119419594Y-117425887D01*
X119048113Y-117054406D01*
X118611298Y-116762536D01*
X118125935Y-116561492D01*
X117610677Y-116459000D01*
X117085323Y-116459000D01*
X116570065Y-116561492D01*
X116084702Y-116762536D01*
X115647887Y-117054406D01*
X115276406Y-117425887D01*
X114984536Y-117862702D01*
X114783492Y-118348065D01*
X114681000Y-118863323D01*
X114681000Y-119388677D01*
X114783492Y-119903935D01*
X114984536Y-120389298D01*
X115276406Y-120826113D01*
X115406293Y-120956000D01*
X104088000Y-120956000D01*
X104088000Y-69036000D01*
X116676293Y-69036000D01*
X116546406Y-69165887D01*
M02*
