<?xml version="1.0" encoding="utf-8"?>
<!-- Generator: Fusion 360, Shaper Origin Export Add-In, Version 1.6.10  -->
<svg xmlns="http://www.w3.org/2000/svg" xmlns:xlink="http://www.w3.org/1999/xlink" xmlns:shaper="http://www.shapertools.com/namespaces/shaper" shaper:fusionaddin="version:1.6.10" width="14.8336cm" height="11.2268cm" version="1.1" x="0cm" y="0cm" viewBox="0 0 14.8336 11.2268" enable-background="new 0 0 14.8336 11.2268" xml:space="preserve"><path d="M-7.4168,5.6134 L-7.4168,-5.6134 7.4168,-5.6134 6.4516,5.6134 -7.4168,5.6134z" transform="matrix(1,0,0,-1,7.4168,5.6134)" fill="rgb(0,0,0)" shaper:cutDepth="0.003175" stroke-linecap="round" stroke-linejoin="round" /><path d="M-4.07289,2.0066 a0.14859,0.14859 0 1,1 0.29718,0 a0.14859,0.14859 0 1,1 -0.29718,0z" transform="matrix(1,0,0,-1,7.4168,5.6134)" fill="rgb(255,255,255)" stroke="rgb(0,0,0)" stroke-width="0.0010cm" stroke-linecap="round" stroke-linejoin="round" shaper:cutDepth="0.003175" /><path d="M-5.2108913,0.3359474 L-4.9129468,0.3359474 A1.6887174,1.6887174 269.9999979 0,1 -3.2262089,1.94292 L-3.2262089,2.3502794 A0.15875,0.15875 180 0,0 -3.0674589,2.5090294 L-2.5862737,2.5090294 A0.15875,0.15875 90 0,0 -2.4275237,2.3502794 L-2.4275237,-0.8779654 A0.15875,0.15875 0 0,0 -2.5862737,-1.0367154 L-6.283359,-1.0367154 A0.15875,0.15875 270 0,0 -6.4415075,-0.8641588 L-6.3924151,-0.3018278 A0.15875,0.15875 175.0106374 0,0 -6.3031457,-0.1726056 L-5.2797703,0.3202262 A0.15875,0.15875 115.7142957 0,0 -5.2108913,0.3359474z" transform="matrix(1,0,0,-1,7.4168,5.6134)" fill="rgb(255,255,255)" stroke="rgb(0,0,0)" stroke-width="0.0010cm" stroke-linecap="round" stroke-linejoin="round" shaper:cutDepth="0.003175" /><path d="M-6.1084764,-3.7090489 L-5.9120985,-3.7090489 A0.15875,0.15875 270 0,1 -5.7659988,-3.6123991 A0.635,0.635 156.9718993 1,0 -5.5582756,-4.3720147 A0.15875,0.15875 53.6162919 0,1 -5.6524446,-4.3410684 L-6.2453197,-4.3410684 A0.15875,0.15875 90 0,1 -6.4040697,-4.4998184 L-6.4040697,-4.8794945 A0.15875,0.15875 0 0,0 -6.5628197,-5.0382445 L-6.8252139,-5.0382445 A0.15875,0.15875 270 0,0 -6.9839639,-4.8794945 L-6.9839639,-2.6037599 A0.15875,0.15875 180 0,0 -6.8252139,-2.4450099 L-6.4259764,-2.4450099 A0.15875,0.15875 90 0,0 -6.2672264,-2.6037599 L-6.2672264,-3.5502989 A0.15875,0.15875 180 0,1 -6.1084764,-3.7090489z" transform="matrix(1,0,0,-1,7.4168,5.6134)" fill="rgb(255,255,255)" stroke="rgb(0,0,0)" stroke-width="0.0010cm" stroke-linecap="round" stroke-linejoin="round" shaper:cutDepth="0.003175" /><path d="M-2.5862737,-2.7629895 L-3.1956729,-2.7629895 A0.15875,0.15875 90 0,1 -3.3544229,-2.9217395 L-3.3544229,-4.4548195 A0.15875,0.15875 180 0,1 -3.1956729,-4.6135695 L-2.5862737,-4.6135695 A0.15875,0.15875 270 0,1 -2.4275237,-4.4548195 L-2.4275237,-2.9217395 A0.15875,0.15875 0 0,1 -2.5862737,-2.7629895z" transform="matrix(1,0,0,-1,7.4168,5.6134)" fill="rgb(255,255,255)" stroke="rgb(0,0,0)" stroke-width="0.0010cm" stroke-linecap="round" stroke-linejoin="round" shaper:cutDepth="0.003175" /><path d="M-3.7708634,-4.3437227 L-3.9205077,-4.3437227 A0.15875,0.15875 90 0,1 -4.0792577,-4.5024727 L-4.0792577,-4.7434609 A0.15875,0.15875 180 0,1 -3.9205077,-4.9022109 L-3.7708634,-4.9022109 A0.15875,0.15875 270 0,1 -3.6121134,-4.7434609 L-3.6121134,-4.5024727 A0.15875,0.15875 0 0,1 -3.7708634,-4.3437227z" transform="matrix(1,0,0,-1,7.4168,5.6134)" fill="rgb(255,255,255)" stroke="rgb(0,0,0)" stroke-width="0.0010cm" stroke-linecap="round" stroke-linejoin="round" shaper:cutDepth="0.003175" /><path d="M-5.0231047,-4.5907066 L-5.5243859,-4.5907066 A0.15875,0.15875 90 0,1 -5.6831359,-4.7494566 L-5.6831359,-5.062954 A0.15875,0.15875 180 0,1 -5.5243859,-5.221704 L-5.0231047,-5.221704 A0.15875,0.15875 270 0,1 -4.8643547,-5.062954 L-4.8643547,-4.7494566 A0.15875,0.15875 0 0,1 -5.0231047,-4.5907066z" transform="matrix(1,0,0,-1,7.4168,5.6134)" fill="rgb(255,255,255)" stroke="rgb(0,0,0)" stroke-width="0.0010cm" stroke-linecap="round" stroke-linejoin="round" shaper:cutDepth="0.003175" /><path d="M-3.9572976,-3.3913405 L-4.2919833,-3.3913405 A0.15875,0.15875 90 0,1 -4.4507333,-3.5500905 L-4.4507333,-4.1136096 A0.15875,0.15875 180 0,1 -4.2919833,-4.2723596 L-3.9572976,-4.2723596 A0.15875,0.15875 270 0,1 -3.7985476,-4.1136096 L-3.7985476,-3.5500905 A0.15875,0.15875 0 0,1 -3.9572976,-3.3913405z" transform="matrix(1,0,0,-1,7.4168,5.6134)" fill="rgb(255,255,255)" stroke="rgb(0,0,0)" stroke-width="0.0010cm" stroke-linecap="round" stroke-linejoin="round" shaper:cutDepth="0.003175" /><path d="M-4.4678976,-2.361452 L-4.8235305,-2.361452 A0.15875,0.15875 90 0,1 -4.9822805,-2.520202 L-4.9822805,-3.0585703 A0.15875,0.15875 180 0,1 -4.8235305,-3.2173203 L-4.4678976,-3.2173203 A0.15875,0.15875 270 0,1 -4.3091476,-3.0585703 L-4.3091476,-2.520202 A0.15875,0.15875 0 0,1 -4.4678976,-2.361452z" transform="matrix(1,0,0,-1,7.4168,5.6134)" fill="rgb(255,255,255)" stroke="rgb(0,0,0)" stroke-width="0.0010cm" stroke-linecap="round" stroke-linejoin="round" shaper:cutDepth="0.003175" /><path d="M-5.5331223,-2.5819988 L-5.7944273,-2.5819988 A0.15875,0.15875 90 0,1 -5.9531773,-2.7407488 L-5.9531773,-3.070046 A0.15875,0.15875 180 0,1 -5.7944273,-3.228796 L-5.5331223,-3.228796 A0.15875,0.15875 270 0,1 -5.3743723,-3.070046 L-5.3743723,-2.7407488 A0.15875,0.15875 0 0,1 -5.5331223,-2.5819988z" transform="matrix(1,0,0,-1,7.4168,5.6134)" fill="rgb(255,255,255)" stroke="rgb(0,0,0)" stroke-width="0.0010cm" stroke-linecap="round" stroke-linejoin="round" shaper:cutDepth="0.003175" /><path d="M-5.36702,2.0066 a0.49022,0.49022 0 1,1 0.98044,0 a0.49022,0.49022 0 1,1 -0.98044,0z" transform="matrix(1,0,0,-1,7.4168,5.6134)" fill="rgb(255,255,255)" stroke="rgb(0,0,0)" stroke-width="0.0010cm" stroke-linecap="round" stroke-linejoin="round" shaper:cutDepth="0.003175" /><path d="M-5.981065,-1.9812 a0.215265,0.215265 0 1,1 0.43053,0 a0.215265,0.215265 0 1,1 -0.43053,0z" transform="matrix(1,0,0,-1,7.4168,5.6134)" fill="rgb(255,255,255)" stroke="rgb(0,0,0)" stroke-width="0.0010cm" stroke-linecap="round" stroke-linejoin="round" shaper:cutDepth="0.003175" /><path d="M-2.869565,2.95275 a0.215265,0.215265 0 1,1 0.43053,0 a0.215265,0.215265 0 1,1 -0.43053,0z" transform="matrix(1,0,0,-1,7.4168,5.6134)" fill="rgb(255,255,255)" stroke="rgb(0,0,0)" stroke-width="0.0010cm" stroke-linecap="round" stroke-linejoin="round" shaper:cutDepth="0.003175" /><path d="M-0.5862998,-3.748953 a0.17272,0.17272 0 1,1 0.34544,0 a0.17272,0.17272 0 1,1 -0.34544,0z" transform="matrix(1,0,0,-1,7.4168,5.6134)" fill="rgb(255,255,255)" stroke="rgb(0,0,0)" stroke-width="0.0010cm" stroke-linecap="round" stroke-linejoin="round" shaper:cutDepth="0.003175" /><path d="M-1.343573,0.1468798 a0.17272,0.17272 0 1,1 0.34544,0 a0.17272,0.17272 0 1,1 -0.34544,0z" transform="matrix(1,0,0,-1,7.4168,5.6134)" fill="rgb(255,255,255)" stroke="rgb(0,0,0)" stroke-width="0.0010cm" stroke-linecap="round" stroke-linejoin="round" shaper:cutDepth="0.003175" /><path d="M2.5522598,0.904153 a0.17272,0.17272 0 1,1 0.34544,0 a0.17272,0.17272 0 1,1 -0.34544,0z" transform="matrix(1,0,0,-1,7.4168,5.6134)" fill="rgb(255,255,255)" stroke="rgb(0,0,0)" stroke-width="0.0010cm" stroke-linecap="round" stroke-linejoin="round" shaper:cutDepth="0.003175" /><path d="M3.309533,-2.9916798 a0.17272,0.17272 0 1,1 0.34544,0 a0.17272,0.17272 0 1,1 -0.34544,0z" transform="matrix(1,0,0,-1,7.4168,5.6134)" fill="rgb(255,255,255)" stroke="rgb(0,0,0)" stroke-width="0.0010cm" stroke-linecap="round" stroke-linejoin="round" shaper:cutDepth="0.003175" /><path d="M5.9942336,0.9757864 a0.17272,0.17272 0 1,1 0.34544,0 a0.17272,0.17272 0 1,1 -0.34544,0z" transform="matrix(1,0,0,-1,7.4168,5.6134)" fill="rgb(255,255,255)" stroke="rgb(0,0,0)" stroke-width="0.0010cm" stroke-linecap="round" stroke-linejoin="round" shaper:cutDepth="0.003175" /><path d="M5.8745936,3.2586536 a0.17272,0.17272 0 1,1 0.34544,0 a0.17272,0.17272 0 1,1 -0.34544,0z" transform="matrix(1,0,0,-1,7.4168,5.6134)" fill="rgb(255,255,255)" stroke="rgb(0,0,0)" stroke-width="0.0010cm" stroke-linecap="round" stroke-linejoin="round" shaper:cutDepth="0.003175" /><path d="M3.5917264,3.1390136 a0.17272,0.17272 0 1,1 0.34544,0 a0.17272,0.17272 0 1,1 -0.34544,0z" transform="matrix(1,0,0,-1,7.4168,5.6134)" fill="rgb(255,255,255)" stroke="rgb(0,0,0)" stroke-width="0.0010cm" stroke-linecap="round" stroke-linejoin="round" shaper:cutDepth="0.003175" /><path d="M3.7113664,0.8561464 a0.17272,0.17272 0 1,1 0.34544,0 a0.17272,0.17272 0 1,1 -0.34544,0z" transform="matrix(1,0,0,-1,7.4168,5.6134)" fill="rgb(255,255,255)" stroke="rgb(0,0,0)" stroke-width="0.0010cm" stroke-linecap="round" stroke-linejoin="round" shaper:cutDepth="0.003175" /><path d="M5.702935,-4.9403 a0.215265,0.215265 0 1,1 0.43053,0 a0.215265,0.215265 0 1,1 -0.43053,0z" transform="matrix(1,0,0,-1,7.4168,5.6134)" fill="rgb(255,255,255)" stroke="rgb(0,0,0)" stroke-width="0.0010cm" stroke-linecap="round" stroke-linejoin="round" shaper:cutDepth="0.003175" /><path d="M5.226685,5.12445 a0.215265,0.215265 0 1,1 0.43053,0 a0.215265,0.215265 0 1,1 -0.43053,0z" transform="matrix(1,0,0,-1,7.4168,5.6134)" fill="rgb(255,255,255)" stroke="rgb(0,0,0)" stroke-width="0.0010cm" stroke-linecap="round" stroke-linejoin="round" shaper:cutDepth="0.003175" /><path d="M-0.964565,5.12445 a0.215265,0.215265 0 1,1 0.43053,0 a0.215265,0.215265 0 1,1 -0.43053,0z" transform="matrix(1,0,0,-1,7.4168,5.6134)" fill="rgb(255,255,255)" stroke="rgb(0,0,0)" stroke-width="0.0010cm" stroke-linecap="round" stroke-linejoin="round" shaper:cutDepth="0.003175" /><path d="M-0.012065,-5.12445 a0.215265,0.215265 0 1,1 0.43053,0 a0.215265,0.215265 0 1,1 -0.43053,0z" transform="matrix(1,0,0,-1,7.4168,5.6134)" fill="rgb(255,255,255)" stroke="rgb(0,0,0)" stroke-width="0.0010cm" stroke-linecap="round" stroke-linejoin="round" shaper:cutDepth="0.003175" /></svg>