<?xml version="1.0" encoding="utf-8"?>
<!-- Generator: Fusion 360, Shaper Origin Export Add-In, Version 1.6.10  -->
<svg xmlns="http://www.w3.org/2000/svg" xmlns:xlink="http://www.w3.org/1999/xlink" xmlns:shaper="http://www.shapertools.com/namespaces/shaper" shaper:fusionaddin="version:1.6.10" width="9.0424cm" height="5.08cm" version="1.1" x="0cm" y="0cm" viewBox="0 0 9.0424 5.08" enable-background="new 0 0 9.0424 5.08" xml:space="preserve"><path d="M2.7813,-1.27 A1.5875,1.5875 270 0,0 1.1938,0.3175 L1.1938,2.54 -4.5212,2.54 -4.5212,-2.54 4.5212,-2.54 4.5212,-1.27 2.7813,-1.27z" transform="matrix(1,0,0,-1,4.5212,2.54)" fill="rgb(0,0,0)" shaper:cutDepth="0.0015875" stroke-linecap="round" stroke-linejoin="round" /><path d="M-4.3104682,0.4731015 L-4.3104682,0.4731015 -4.3099207,0.4820043 -4.3086771,0.4908212 -4.3065812,0.4994783 -4.3037282,0.5079347 -4.3002403,0.5161479 -4.2960994,0.5240359 -4.2860419,0.5387451 -4.2860419,0.5387451 -4.2793925,0.5459784 -4.2720567,0.5525182 -4.2641956,0.5584129 -4.2558711,0.5636339 -4.2471791,0.5682182 -4.2381826,0.5721714 -4.2195682,0.5784559 -4.2004023,0.5827915 -4.1809525,0.58559 -4.1613566,0.5870789 -4.1417068,0.5874555 -4.1417068,0.5874555 -4.1231498,0.5870163 -4.1046434,0.5856285 -4.0862619,0.5830277 -4.0681517,0.578978 -4.0504839,0.5732802 -4.033576,0.5656407 -4.0255277,0.5610019 -4.0178448,0.5557865 -4.0037659,0.5437024 -4.0037659,0.5437024 -3.9975335,0.5363974 -3.9920227,0.5285338 -3.9872698,0.5201901 -3.9832831,0.5114545 -3.9800046,0.5024286 -3.9775547,0.4931446 -3.9760099,0.483667 -3.9753874,0.4740853 -3.9753874,0.4740853 -3.9763839,0.4621048 -3.9787341,0.4503142 -3.9824577,0.4388829 -3.987286,0.4278721 -3.9931605,0.417382 -4.0000315,0.407517 -4.0078843,0.3984126 -4.0167697,0.3903149 -4.0167697,0.3903149 -4.0312202,0.3812365 -4.046719,0.37407 -4.0628522,0.3685009 -4.0794209,0.3643817 -4.0962391,0.3614524 -4.1132022,0.3595154 -4.1302415,0.3584765 -4.1473106,0.3581287 -4.1473106,0.3581287 -4.1646602,0.3586058 -4.1819611,0.3599703 -4.199131,0.3625059 -4.2160802,0.3662383 -4.2326663,0.3713515 -4.2486191,0.3781732 -4.2636548,0.3868466 -4.2773487,0.3974994 -4.2773487,0.3974994 -4.2843801,0.4053851 -4.2907815,0.4137703 -4.2963481,0.42274 -4.3010598,0.4322014 -4.3049243,0.4420325 -4.3078771,0.4521723 -4.3097625,0.4625644 -4.3104682,0.4731015z M-4.2529217,0.5128812 L-4.2529217,0.5128812 -4.2595894,0.5041373 -4.2647132,0.4944068 -4.2682666,0.4840073 -4.2696612,0.4731158 -4.2696614,0.4730795 -4.2696614,0.4730795 -4.2691555,0.466818 -4.2679179,0.460658 -4.2636742,0.4488424 -4.2574797,0.4379224 -4.2536931,0.4329088 -4.2494013,0.4283205 -4.2494013,0.4283205 -4.238663,0.4198202 -4.2266356,0.4132439 -4.2138588,0.4082986 -4.200653,0.4046265 -4.1872071,0.4019773 -4.1736091,0.4002579 -4.146233,0.3990081 -4.146233,0.3990081 -4.1196267,0.3999304 -4.1063761,0.4012358 -4.0932196,0.4032667 -4.0802378,0.4062264 -4.0675986,0.4103917 -4.0554461,0.4158395 -4.0441423,0.4228604 -4.0441423,0.4228604 -4.0383544,0.4275267 -4.0330966,0.4327814 -4.0284157,0.4385581 -4.0243885,0.4448064 -4.0210407,0.451445 -4.0184774,0.4584222 -4.0168417,0.4656746 -4.0161949,0.4730795 -4.0161949,0.4730795 -4.0166966,0.4795637 -4.0180509,0.4859281 -4.0200401,0.4921193 -4.0226819,0.4980655 -4.025792,0.5037783 -4.0294198,0.5091782 -4.0381074,0.5188443 -4.0381074,0.5188443 -4.0494285,0.5270524 -4.061881,0.5334265 -4.0750295,0.5382001 -4.0885752,0.5416933 -4.1023562,0.5441042 -4.1162646,0.5456141 -4.1442213,0.546648 -4.1442213,0.546648 -4.1588407,0.5463912 -4.1734232,0.545381 -4.187919,0.5434581 -4.2022384,0.5405124 -4.216211,0.5362102 -4.2295772,0.5302983 -4.2420022,0.5225894 -4.2529217,0.5128812z" transform="matrix(1,0,0,-1,4.5212,2.54)" fill="rgb(104,104,104)" fill-rule="nonzero" shaper:cutDepth="0.0000762" stroke-linecap="round" stroke-linejoin="round" /><path d="M-4.2794322,0.831726 L-4.0650709,0.8317977 -4.2917448,0.6835965 -4.2917448,0.6835965 -4.2970757,0.6795856 -4.301787,0.6748665 -4.3036288,0.6720742 -4.3049321,0.6689893 -4.3058709,0.6623891 -4.3058709,0.6623891 -4.3049859,0.6566732 -4.3026109,0.6514069 -4.2988629,0.6469923 -4.2938011,0.6442125 -4.2938011,0.6442125 -4.287094,0.6432853 -4.2802943,0.6432067 -4.0020225,0.6432784 -4.0020225,0.6432784 -3.9936535,0.6434303 -3.9895018,0.64395 -3.9855174,0.6452183 -3.9855174,0.6452183 -3.9812347,0.6485656 -3.9779598,0.6529032 -3.9760807,0.6580009 -3.9753874,0.6633949 -3.9753874,0.6633949 -3.9757792,0.6678231 -3.9769479,0.6721105 -3.9791083,0.6759933 -3.9821938,0.6791822 -3.9860339,0.681427 -3.9902217,0.6829114 -3.9990241,0.684086 -4.2166872,0.684086 -3.9885121,0.8317977 -3.9885121,0.8317977 -3.9833846,0.8357861 -3.979079,0.8406385 -3.9762672,0.8464944 -3.9753874,0.85292 -3.9753874,0.85292 -3.9757216,0.857215 -3.97687,0.8613649 -3.9790341,0.8650863 -3.9821216,0.8680836 -3.9858764,0.8701925 -3.9899748,0.8715221 -3.9985212,0.8725335 -4.2812367,0.8726053 -4.2812367,0.8726053 -4.2904037,0.871843 -4.2948618,0.8706568 -4.2989624,0.8685817 -4.3023665,0.8654791 -4.3046573,0.8614927 -4.3057513,0.8570218 -4.3058709,0.8524171 -4.3058709,0.8524171 -4.3056134,0.8475485 -4.3044609,0.842814 -4.3020564,0.8385842 -4.2983705,0.8354022 -4.2939173,0.8334345 -4.2891537,0.8323738 -4.2794322,0.831726z" transform="matrix(1,0,0,-1,4.5212,2.54)" fill="rgb(104,104,104)" fill-rule="nonzero" shaper:cutDepth="0.0000762" stroke-linecap="round" stroke-linejoin="round" /><path d="M-2.2022682,0.3374596 L-2.2022682,0.3374596 -2.2017207,0.3463624 -2.2004771,0.3551793 -2.1983812,0.3638364 -2.1955282,0.3722927 -2.1920403,0.380506 -2.1878994,0.388394 -2.1778419,0.4031032 -2.1778419,0.4031032 -2.1711925,0.4103365 -2.1638567,0.4168763 -2.1559956,0.422771 -2.1476711,0.427992 -2.1389791,0.4325763 -2.1299826,0.4365295 -2.1113682,0.442814 -2.0922023,0.4471496 -2.0727525,0.4499481 -2.0531566,0.451437 -2.0335068,0.4518136 -2.0335068,0.4518136 -2.0149498,0.4513744 -1.9964434,0.4499866 -1.9780619,0.4473858 -1.9599517,0.4433361 -1.9422839,0.4376383 -1.925376,0.4299988 -1.9173277,0.42536 -1.9096448,0.4201446 -1.8955659,0.4080605 -1.8955659,0.4080605 -1.8893335,0.4007554 -1.8838227,0.3928919 -1.8790698,0.3845482 -1.8750831,0.3758126 -1.8718046,0.3667867 -1.8693547,0.3575027 -1.8678099,0.3480251 -1.8671874,0.3384434 -1.8671874,0.3384434 -1.8681839,0.3264629 -1.8705341,0.3146723 -1.8742577,0.3032409 -1.879086,0.2922302 -1.8849605,0.28174 -1.8918315,0.2718751 -1.8996843,0.2627707 -1.9085697,0.254673 -1.9085697,0.254673 -1.9230202,0.2455946 -1.938519,0.2384281 -1.9546522,0.232859 -1.9712209,0.2287398 -1.9880391,0.2258105 -2.0050022,0.2238735 -2.0220415,0.2228345 -2.0391106,0.2224868 -2.0391106,0.2224868 -2.0564602,0.2229639 -2.0737611,0.2243284 -2.090931,0.2268639 -2.1078802,0.2305964 -2.1244663,0.2357096 -2.1404191,0.2425312 -2.1554548,0.2512047 -2.1691487,0.2618574 -2.1691487,0.2618574 -2.1761801,0.2697432 -2.1825815,0.2781284 -2.1881481,0.2870981 -2.1928598,0.2965594 -2.1967243,0.3063906 -2.1996771,0.3165304 -2.2015625,0.3269224 -2.2022682,0.3374596z M-2.1447217,0.3772393 L-2.1447217,0.3772393 -2.1513894,0.3684954 -2.1565132,0.3587649 -2.1600666,0.3483654 -2.1614612,0.3374739 -2.1614614,0.3374376 -2.1614614,0.3374376 -2.1609555,0.3311761 -2.1597179,0.3250161 -2.1554742,0.3132005 -2.1492797,0.3022805 -2.1454931,0.2972669 -2.1412013,0.2926786 -2.1412013,0.2926786 -2.130463,0.2841783 -2.1184356,0.277602 -2.1056588,0.2726567 -2.092453,0.2689846 -2.0790071,0.2663354 -2.0654091,0.264616 -2.038033,0.2633662 -2.038033,0.2633662 -2.0114267,0.2642885 -1.9981761,0.2655939 -1.9850196,0.2676248 -1.9720378,0.2705845 -1.9593986,0.2747498 -1.9472461,0.2801975 -1.9359423,0.2872185 -1.9359423,0.2872185 -1.9301544,0.2918848 -1.9248966,0.2971395 -1.9202157,0.3029162 -1.9161885,0.3091644 -1.9128407,0.3158031 -1.9102774,0.3227803 -1.9086417,0.3300326 -1.9079949,0.3374376 -1.9079949,0.3374376 -1.9084966,0.3439218 -1.9098509,0.3502862 -1.9118401,0.3564774 -1.9144819,0.3624235 -1.917592,0.3681364 -1.9212198,0.3735363 -1.9299074,0.3832024 -1.9299074,0.3832024 -1.9412285,0.3914105 -1.953681,0.3977846 -1.9668295,0.4025582 -1.9803752,0.4060514 -1.9941562,0.4084623 -2.0080646,0.4099722 -2.0360213,0.4110061 -2.0360213,0.4110061 -2.0506407,0.4107492 -2.0652232,0.4097391 -2.079719,0.4078162 -2.0940384,0.4048705 -2.108011,0.4005683 -2.1213772,0.3946563 -2.1338022,0.3869474 -2.1447217,0.3772393z" transform="matrix(1,0,0,-1,4.5212,2.54)" fill="rgb(104,104,104)" fill-rule="nonzero" shaper:cutDepth="0.0000762" stroke-linecap="round" stroke-linejoin="round" /><path d="M-2.073524,0.6601619 L-2.073524,0.6601619 -2.0728757,0.6700744 -2.0717196,0.674916 -2.0697496,0.6794769 -2.066708,0.6834075 -2.0626194,0.686221 -2.0578685,0.6876773 -2.0529047,0.6879656 -2.0529047,0.6879656 -2.0469033,0.6870813 -2.0413445,0.6846684 -2.0370382,0.6804063 -2.0342252,0.6750337 -2.0342252,0.6750337 -2.0329249,0.6669167 -2.0327164,0.6586883 -2.0327164,0.5484441 -1.8939853,0.5484441 -1.8939853,0.5484441 -1.8871011,0.5483368 -1.8836729,0.5480053 -1.8804067,0.5469354 -1.8804067,0.5469354 -1.8748034,0.5443161 -1.8705992,0.539775 -1.8680556,0.5341146 -1.8671874,0.5279685 -1.8671874,0.5279685 -1.8680716,0.5221885 -1.8702777,0.5167814 -1.8740232,0.5122974 -1.878898,0.5090735 -1.878898,0.5090735 -1.882551,0.5080046 -1.8863493,0.50767 -1.8939715,0.5076365 -2.1700109,0.5075647 -2.1700109,0.5075647 -2.1758853,0.5079305 -2.1816742,0.5089965 -2.1871263,0.5112029 -2.1918647,0.5146871 -2.1952616,0.519482 -2.1971316,0.5250635 -2.1978562,0.5308984 -2.1976708,0.536784 -2.1976709,0.7053519 -2.1976709,0.7053519 -2.1967012,0.7147042 -2.1954512,0.7192474 -2.1933482,0.7234485 -2.1903093,0.7270437 -2.186414,0.7296721 -2.1819457,0.7311424 -2.1772671,0.7316469 -2.1772671,0.7316469 -2.1725473,0.7312334 -2.1680398,0.7297807 -2.1640393,0.7272596 -2.1609901,0.7236359 -2.1589531,0.7193626 -2.1576853,0.7147932 -2.1568632,0.7053682 -2.1568632,0.5484441 -2.073524,0.5484441 -2.073524,0.6601619z" transform="matrix(1,0,0,-1,4.5212,2.54)" fill="rgb(104,104,104)" fill-rule="nonzero" shaper:cutDepth="0.0000762" stroke-linecap="round" stroke-linejoin="round" /><path d="M-2.073524,0.9360438 L-2.073524,0.9360438 -2.0728757,0.9459563 -2.0717196,0.9507979 -2.0697496,0.9553588 -2.066708,0.9592894 -2.0626194,0.9621029 -2.0578685,0.9635591 -2.0529047,0.9638475 -2.0529047,0.9638475 -2.0469033,0.9629632 -2.0413445,0.9605503 -2.0370382,0.9562882 -2.0342252,0.9509156 -2.0342252,0.9509156 -2.0329249,0.9427986 -2.0327164,0.9345702 -2.0327164,0.824326 -1.8939853,0.824326 -1.8939853,0.824326 -1.8871011,0.8242187 -1.8836729,0.8238872 -1.8804067,0.8228173 -1.8804067,0.8228173 -1.8748034,0.820198 -1.8705992,0.8156568 -1.8680556,0.8099965 -1.8671874,0.8038504 -1.8671874,0.8038504 -1.8680716,0.7980703 -1.8702777,0.7926633 -1.8740232,0.7881793 -1.878898,0.7849554 -1.878898,0.7849554 -1.882551,0.7838865 -1.8863493,0.7835519 -1.8939715,0.7835184 -2.1700109,0.7834466 -2.1700109,0.7834466 -2.1758853,0.7838124 -2.1816742,0.7848784 -2.1871263,0.7870848 -2.1918647,0.790569 -2.1952616,0.7953639 -2.1971316,0.8009453 -2.1978562,0.8067803 -2.1976708,0.8126658 -2.1976709,0.9812338 -2.1976709,0.9812338 -2.1967012,0.9905861 -2.1954512,0.9951293 -2.1933482,0.9993304 -2.1903093,1.0029255 -2.186414,1.005554 -2.1819457,1.0070242 -2.1772671,1.0075288 -2.1772671,1.0075288 -2.1725473,1.0071153 -2.1680398,1.0056626 -2.1640393,1.0031415 -2.1609901,0.9995178 -2.1589531,0.9952445 -2.1576853,0.9906751 -2.1568632,0.9812501 -2.1568632,0.824326 -2.073524,0.824326 -2.073524,0.9360438z" transform="matrix(1,0,0,-1,4.5212,2.54)" fill="rgb(104,104,104)" fill-rule="nonzero" shaper:cutDepth="0.0000762" stroke-linecap="round" stroke-linejoin="round" /><path d="M2.739776,-1.4374309 L2.739776,-1.4374309 2.7404243,-1.4275184 2.7415804,-1.4226768 2.7435504,-1.4181158 2.746592,-1.4141853 2.7506806,-1.4113718 2.7554315,-1.4099155 2.7603953,-1.4096271 2.7603953,-1.4096271 2.7663967,-1.4105115 2.7719555,-1.4129243 2.7762618,-1.4171865 2.7790748,-1.4225591 2.7790748,-1.4225591 2.7803751,-1.430676 2.7805836,-1.4389045 2.7805836,-1.5491487 2.9193147,-1.5491487 2.9193147,-1.5491487 2.9261989,-1.5492559 2.9296271,-1.5495875 2.9328933,-1.5506574 2.9328933,-1.5506574 2.9384966,-1.5532767 2.9427008,-1.5578178 2.9452444,-1.5634781 2.9461126,-1.5696243 2.9461126,-1.5696243 2.9452284,-1.5754043 2.9430223,-1.5808113 2.9392768,-1.5852954 2.934402,-1.5885193 2.934402,-1.5885193 2.930749,-1.5895882 2.9269507,-1.5899228 2.9193285,-1.5899563 2.6432891,-1.590028 2.6432891,-1.590028 2.6374147,-1.5896623 2.6316258,-1.5885963 2.6261737,-1.5863899 2.6214353,-1.5829057 2.6180384,-1.5781108 2.6161684,-1.5725293 2.6154438,-1.5666944 2.6156292,-1.5608088 2.6156291,-1.3922408 2.6156291,-1.3922408 2.6165988,-1.3828885 2.6178488,-1.3783454 2.6199518,-1.3741443 2.6229907,-1.3705491 2.626886,-1.3679207 2.6313543,-1.3664504 2.6360329,-1.3659458 2.6360329,-1.3659458 2.6407527,-1.3663594 2.6452602,-1.367812 2.6492607,-1.3703331 2.6523099,-1.3739569 2.6543469,-1.3782302 2.6556147,-1.3827996 2.6564368,-1.3922246 2.6564368,-1.5491487 2.739776,-1.5491487 2.739776,-1.4374309z" transform="matrix(1,0,0,-1,4.5212,2.54)" fill="rgb(104,104,104)" fill-rule="nonzero" shaper:cutDepth="0.0000762" stroke-linecap="round" stroke-linejoin="round" /><path d="M2.739776,-1.7133127 L2.739776,-1.7133127 2.7404243,-1.7034002 2.7415804,-1.6985587 2.7435504,-1.6939977 2.746592,-1.6900672 2.7506806,-1.6872537 2.7554315,-1.6857974 2.7603953,-1.685509 2.7603953,-1.685509 2.7663967,-1.6863934 2.7719555,-1.6888062 2.7762618,-1.6930684 2.7790748,-1.698441 2.7790748,-1.698441 2.7803751,-1.7065579 2.7805836,-1.7147864 2.7805836,-1.8250305 2.9193147,-1.8250305 2.9193147,-1.8250305 2.9261989,-1.8251378 2.9296271,-1.8254694 2.9328933,-1.8265393 2.9328933,-1.8265393 2.9384966,-1.8291585 2.9427008,-1.8336997 2.9452444,-1.83936 2.9461126,-1.8455062 2.9461126,-1.8455062 2.9452284,-1.8512862 2.9430223,-1.8566932 2.9392768,-1.8611772 2.934402,-1.8644012 2.934402,-1.8644012 2.930749,-1.8654701 2.9269507,-1.8658047 2.9193285,-1.8658381 2.6432891,-1.8659099 2.6432891,-1.8659099 2.6374147,-1.8655442 2.6316258,-1.8644782 2.6261737,-1.8622718 2.6214353,-1.8587876 2.6180384,-1.8539927 2.6161684,-1.8484112 2.6154438,-1.8425763 2.6156292,-1.8366907 2.6156291,-1.6681227 2.6156291,-1.6681227 2.6165988,-1.6587704 2.6178488,-1.6542273 2.6199518,-1.6500262 2.6229907,-1.646431 2.626886,-1.6438025 2.6313543,-1.6423323 2.6360329,-1.6418277 2.6360329,-1.6418277 2.6407527,-1.6422413 2.6452602,-1.6436939 2.6492607,-1.646215 2.6523099,-1.6498388 2.6543469,-1.6541121 2.6556147,-1.6586815 2.6564368,-1.6681064 2.6564368,-1.8250305 2.739776,-1.8250305 2.739776,-1.7133127z" transform="matrix(1,0,0,-1,4.5212,2.54)" fill="rgb(104,104,104)" fill-rule="nonzero" shaper:cutDepth="0.0000762" stroke-linecap="round" stroke-linejoin="round" /><path d="M2.6110318,-2.0360151 L2.6110318,-2.0360151 2.6115793,-2.0271123 2.6128229,-2.0182954 2.6149188,-2.0096383 2.6177718,-2.0011819 2.6212597,-1.9929687 2.6254006,-1.9850807 2.6354581,-1.9703714 2.6354581,-1.9703714 2.6421075,-1.9631382 2.6494433,-1.9565984 2.6573044,-1.9507037 2.6656289,-1.9454827 2.6743209,-1.9408984 2.6833174,-1.9369452 2.7019318,-1.9306607 2.7210977,-1.9263251 2.7405475,-1.9235266 2.7601434,-1.9220377 2.7797932,-1.921661 2.7797932,-1.921661 2.7983502,-1.9221002 2.8168566,-1.9234881 2.8352381,-1.9260889 2.8533483,-1.9301386 2.8710161,-1.9358363 2.887924,-1.9434759 2.8959723,-1.9481147 2.9036552,-1.9533301 2.9177341,-1.9654142 2.9177341,-1.9654142 2.9239665,-1.9727192 2.9294773,-1.9805827 2.9342302,-1.9889265 2.9382169,-1.9976621 2.9414954,-2.006688 2.9439453,-2.015972 2.9454901,-2.0254496 2.9461126,-2.0350313 2.9461126,-2.0350313 2.9451161,-2.0470118 2.9427659,-2.0588024 2.9390423,-2.0702337 2.934214,-2.0812445 2.9283395,-2.0917346 2.9214685,-2.1015996 2.9136157,-2.110704 2.9047303,-2.1188016 2.9047303,-2.1188016 2.8902798,-2.1278801 2.874781,-2.1350466 2.8586478,-2.1406157 2.8420791,-2.1447349 2.8252609,-2.1476642 2.8082978,-2.1496012 2.7912585,-2.1506401 2.7741894,-2.1509879 2.7741894,-2.1509879 2.7568398,-2.1505108 2.7395389,-2.1491463 2.722369,-2.1466107 2.7054198,-2.1428783 2.6888337,-2.1377651 2.6728809,-2.1309434 2.6578452,-2.12227 2.6441513,-2.1116172 2.6441513,-2.1116172 2.6371199,-2.1037315 2.6307185,-2.0953462 2.6251519,-2.0863766 2.6204402,-2.0769152 2.6165757,-2.0670841 2.6136229,-2.0569443 2.6117375,-2.0465522 2.6110318,-2.0360151z M2.6685783,-1.9962354 L2.6685783,-1.9962354 2.6619106,-2.0049793 2.6567868,-2.0147098 2.6532334,-2.0251093 2.6518388,-2.0360008 2.6518386,-2.0360371 2.6518386,-2.0360371 2.6523445,-2.0422986 2.6535821,-2.0484585 2.6578258,-2.0602742 2.6640203,-2.0711942 2.6678069,-2.0762078 2.6720987,-2.080796 2.6720987,-2.080796 2.682837,-2.0892964 2.6948644,-2.0958726 2.7076412,-2.100818 2.720847,-2.1044901 2.7342929,-2.1071393 2.7478909,-2.1088587 2.775267,-2.1101085 2.775267,-2.1101085 2.8018733,-2.1091862 2.8151239,-2.1078808 2.8282804,-2.1058499 2.8412622,-2.1028902 2.8539014,-2.0987249 2.8660539,-2.0932771 2.8773577,-2.0862562 2.8773577,-2.0862562 2.8831456,-2.0815899 2.8884034,-2.0763352 2.8930843,-2.0705585 2.8971115,-2.0643102 2.9004593,-2.0576716 2.9030226,-2.0506944 2.9046583,-2.043442 2.9053051,-2.0360371 2.9053051,-2.0360371 2.9048034,-2.0295529 2.9034491,-2.0231885 2.9014599,-2.0169973 2.8988181,-2.0110511 2.895708,-2.0053383 2.8920802,-1.9999384 2.8833926,-1.9902723 2.8833926,-1.9902723 2.8720715,-1.9820642 2.859619,-1.97569 2.8464705,-1.9709165 2.8329248,-1.9674233 2.8191438,-1.9650124 2.8052354,-1.9635025 2.7772787,-1.9624686 2.7772787,-1.9624686 2.7626593,-1.9627254 2.7480768,-1.9637356 2.733581,-1.9656585 2.7192616,-1.9686042 2.705289,-1.9729064 2.6919228,-1.9788183 2.6794978,-1.9865272 2.6685783,-1.9962354z" transform="matrix(1,0,0,-1,4.5212,2.54)" fill="rgb(104,104,104)" fill-rule="nonzero" shaper:cutDepth="0.0000762" stroke-linecap="round" stroke-linejoin="round" /><path d="M0.6044318,0.1683015 L0.6044318,0.1683015 0.6049793,0.1772043 0.6062229,0.1860212 0.6083188,0.1946783 0.6111718,0.2031347 0.6146597,0.2113479 0.6188006,0.2192359 0.6288581,0.2339451 0.6288581,0.2339451 0.6355075,0.2411784 0.6428433,0.2477182 0.6507044,0.2536129 0.6590289,0.2588339 0.6677209,0.2634182 0.6767174,0.2673714 0.6953318,0.2736559 0.7144977,0.2779915 0.7339475,0.28079 0.7535434,0.2822789 0.7731932,0.2826555 0.7731932,0.2826555 0.7917502,0.2822163 0.8102566,0.2808285 0.8286381,0.2782277 0.8467483,0.274178 0.8644161,0.2684802 0.881324,0.2608407 0.8893723,0.2562019 0.8970552,0.2509865 0.9111341,0.2389024 0.9111341,0.2389024 0.9173665,0.2315974 0.9228773,0.2237338 0.9276302,0.2153901 0.9316169,0.2066545 0.9348954,0.1976286 0.9373453,0.1883446 0.9388901,0.178867 0.9395126,0.1692853 0.9395126,0.1692853 0.9385161,0.1573048 0.9361659,0.1455142 0.9324423,0.1340829 0.927614,0.1230721 0.9217395,0.112582 0.9148685,0.102717 0.9070157,0.0936126 0.8981303,0.0855149 0.8981303,0.0855149 0.8836798,0.0764365 0.868181,0.06927 0.8520478,0.0637009 0.8354791,0.0595817 0.8186609,0.0566524 0.8016978,0.0547154 0.7846585,0.0536765 0.7675894,0.0533287 0.7675894,0.0533287 0.7502398,0.0538058 0.7329389,0.0551703 0.715769,0.0577059 0.6988198,0.0614383 0.6822337,0.0665515 0.6662809,0.0733732 0.6512452,0.0820466 0.6375513,0.0926994 0.6375513,0.0926994 0.6305199,0.1005851 0.6241185,0.1089703 0.6185519,0.11794 0.6138402,0.1274014 0.6099757,0.1372325 0.6070229,0.1473723 0.6051375,0.1577644 0.6044318,0.1683015z M0.6619783,0.2080812 L0.6619783,0.2080812 0.6553106,0.1993373 0.6501868,0.1896068 0.6466334,0.1792073 0.6452388,0.1683158 0.6452386,0.1682795 0.6452386,0.1682795 0.6457445,0.162018 0.6469821,0.155858 0.6512258,0.1440424 0.6574203,0.1331224 0.6612069,0.1281088 0.6654987,0.1235205 0.6654987,0.1235205 0.676237,0.1150202 0.6882644,0.1084439 0.7010412,0.1034986 0.714247,0.0998265 0.7276929,0.0971773 0.7412909,0.0954579 0.768667,0.0942081 0.768667,0.0942081 0.7952733,0.0951304 0.8085239,0.0964358 0.8216804,0.0984667 0.8346622,0.1014264 0.8473014,0.1055917 0.8594539,0.1110395 0.8707577,0.1180604 0.8707577,0.1180604 0.8765456,0.1227267 0.8818034,0.1279814 0.8864843,0.1337581 0.8905115,0.1400064 0.8938593,0.146645 0.8964226,0.1536222 0.8980583,0.1608746 0.8987051,0.1682795 0.8987051,0.1682795 0.8982034,0.1747637 0.8968491,0.1811281 0.8948599,0.1873193 0.8922181,0.1932655 0.889108,0.1989783 0.8854802,0.2043782 0.8767926,0.2140443 0.8767926,0.2140443 0.8654715,0.2222524 0.853019,0.2286265 0.8398705,0.2334001 0.8263248,0.2368933 0.8125438,0.2393042 0.7986354,0.2408141 0.7706787,0.241848 0.7706787,0.241848 0.7560593,0.2415912 0.7414768,0.240581 0.726981,0.2386581 0.7126616,0.2357124 0.698689,0.2314102 0.6853228,0.2254983 0.6728978,0.2177894 0.6619783,0.2080812z" transform="matrix(1,0,0,-1,4.5212,2.54)" fill="rgb(104,104,104)" fill-rule="nonzero" shaper:cutDepth="0.0000762" stroke-linecap="round" stroke-linejoin="round" /><path d="M0.6354678,0.526926 L0.8498291,0.5269977 0.6231552,0.3787965 0.6231552,0.3787965 0.6178243,0.3747856 0.613113,0.3700665 0.6112712,0.3672742 0.6099679,0.3641893 0.6090291,0.3575891 0.6090291,0.3575891 0.6099141,0.3518732 0.6122891,0.3466069 0.6160371,0.3421923 0.6210989,0.3394125 0.6210989,0.3394125 0.627806,0.3384853 0.6346057,0.3384067 0.9128775,0.3384784 0.9128775,0.3384784 0.9212465,0.3386303 0.9253982,0.33915 0.9293826,0.3404183 0.9293826,0.3404183 0.9336653,0.3437656 0.9369402,0.3481032 0.9388193,0.3532009 0.9395126,0.3585949 0.9395126,0.3585949 0.9391208,0.3630231 0.9379521,0.3673105 0.9357917,0.3711933 0.9327062,0.3743822 0.9288661,0.376627 0.9246783,0.3781114 0.9158759,0.379286 0.6982128,0.379286 0.9263879,0.5269977 0.9263879,0.5269977 0.9315154,0.5309861 0.935821,0.5358385 0.9386328,0.5416944 0.9395126,0.54812 0.9395126,0.54812 0.9391784,0.552415 0.93803,0.5565649 0.9358659,0.5602863 0.9327784,0.5632836 0.9290236,0.5653925 0.9249252,0.5667221 0.9163788,0.5677335 0.6336633,0.5678053 0.6336633,0.5678053 0.6244963,0.567043 0.6200382,0.5658568 0.6159376,0.5637817 0.6125335,0.5606791 0.6102427,0.5566927 0.6091487,0.5522218 0.6090291,0.5476171 0.6090291,0.5476171 0.6092866,0.5427485 0.6104391,0.538014 0.6128436,0.5337842 0.6165295,0.5306022 0.6209827,0.5286345 0.6257463,0.5275738 0.6354678,0.526926z" transform="matrix(1,0,0,-1,4.5212,2.54)" fill="rgb(104,104,104)" fill-rule="nonzero" shaper:cutDepth="0.0000762" stroke-linecap="round" stroke-linejoin="round" /><path d="M-4.4046857,2.1885455 L-4.4046857,2.1885455 -4.404021,2.201264 -4.4021269,2.2138594 -4.3990903,2.2262265 -4.3950571,2.2383071 -4.3900856,2.2500404 -4.3841588,2.2613089 -4.3773026,2.2720307 -4.3697909,2.2823221 -4.3697909,2.2823221 -4.3602919,2.2926553 -4.3498121,2.3019979 -4.338582,2.3104189 -4.3266898,2.3178775 -4.3142727,2.3244265 -4.3014206,2.3300739 -4.2882469,2.3349252 -4.2748285,2.3390518 -4.2474487,2.3452455 -4.2196632,2.3492433 -4.1916692,2.3513704 -4.163598,2.3519084 -4.163598,2.3519084 -4.1370879,2.3512809 -4.1106503,2.3492984 -4.0843909,2.3455829 -4.0713902,2.3429834 -4.0585193,2.3397976 -4.0458032,2.3360272 -4.0332795,2.3316579 -4.0210279,2.3265903 -4.0091255,2.3207443 -3.9976278,2.3141174 -3.9866523,2.3066669 -3.9763632,2.2983214 -3.9665395,2.2894039 -3.9665395,2.2894039 -3.9576361,2.2789681 -3.9497635,2.2677345 -3.9429736,2.2558149 -3.9372783,2.2433355 -3.9325948,2.2304414 -3.929095,2.2171785 -3.9268881,2.203639 -3.9259988,2.1899509 -3.9259988,2.1899509 -3.9274224,2.1728359 -3.9307798,2.1559921 -3.9360992,2.1396617 -3.9429968,2.1239321 -3.9513889,2.1089461 -3.9612047,2.0948534 -3.972423,2.081847 -3.9851163,2.0702789 -3.9851163,2.0702789 -3.9952772,2.0635234 -4.00576,2.0573097 -4.0166859,2.0518817 -4.0279011,2.0470719 -4.0509486,2.0391161 -4.0746181,2.0332315 -4.0986441,2.0290468 -4.1228771,2.0262796 -4.1472189,2.0247954 -4.1716035,2.0242986 -4.1716035,2.0242986 -4.1963885,2.0249801 -4.2211041,2.0269295 -4.2456326,2.0305517 -4.2698457,2.0358838 -4.2935401,2.0431883 -4.3050749,2.0477324 -4.3163298,2.0529335 -4.3272746,2.0587791 -4.3378094,2.0653242 -4.3477821,2.0726731 -4.3573721,2.0805424 -4.3573721,2.0805424 -4.3675169,2.0917105 -4.3765617,2.1037867 -4.384478,2.1166356 -4.3912451,2.1301167 -4.3967747,2.1441525 -4.4009841,2.1586466 -4.4036776,2.1734924 -4.4046857,2.1885455z M-4.3224764,2.2453736 L-4.3224764,2.2453736 -4.3320016,2.2328823 -4.3359704,2.226102 -4.3393214,2.2189816 -4.3443976,2.2041252 -4.3457982,2.1963975 -4.34639,2.1885659 -4.3463902,2.188514 -4.3463902,2.188514 -4.3456676,2.179569 -4.3438995,2.1707691 -4.3412214,2.1622026 -4.337837,2.1538896 -4.3337421,2.1459025 -4.3289878,2.1382896 -4.3235783,2.1311273 -4.3174473,2.1245727 -4.3174473,2.1245727 -4.3099852,2.1182243 -4.3021068,2.1124293 -4.2936913,2.1074093 -4.2849249,2.1030347 -4.2666723,2.0959699 -4.2478068,2.090724 -4.2285983,2.0869394 -4.2091727,2.0844832 -4.189637,2.0831954 -4.1700639,2.0826977 -4.1700639,2.0826977 -4.1510469,2.0830273 -4.132055,2.0840153 -4.1131256,2.0858802 -4.0943306,2.0887815 -4.0757852,2.0930096 -4.0577292,2.09896 -4.0403684,2.1067426 -4.0242201,2.1167724 -4.0242201,2.1167724 -4.0159517,2.1234386 -4.0084405,2.1309453 -4.0017536,2.1391977 -3.9960003,2.1481238 -3.9912179,2.1576076 -3.987556,2.167575 -3.9852193,2.1779355 -3.9842953,2.188514 -3.9842953,2.188514 -3.9850119,2.1977771 -3.9869466,2.2068691 -3.9897884,2.2157138 -3.9935623,2.2242083 -3.9980054,2.2323695 -4.003188,2.2400836 -4.0090769,2.2472723 -4.0155988,2.2538923 -4.0155988,2.2538923 -4.0317718,2.2656181 -4.0404981,2.2705024 -4.0495611,2.2747241 -4.0683447,2.2815434 -4.0876956,2.2865337 -4.1073828,2.2899779 -4.127252,2.2921349 -4.1472083,2.2932121 -4.1671902,2.2936119 -4.1671902,2.2936119 -4.1880749,2.293245 -4.208907,2.2918019 -4.2296154,2.2890549 -4.2500716,2.2848468 -4.2700326,2.2787007 -4.2797146,2.2747807 -4.2891272,2.2702551 -4.298219,2.2650975 -4.3068771,2.2592424 -4.3149051,2.2525802 -4.3224764,2.2453736z" transform="matrix(1,0,0,-1,4.5212,2.54)" fill="rgb(104,104,104)" fill-rule="nonzero" shaper:cutDepth="0.0000762" stroke-linecap="round" stroke-linejoin="round" /><path d="M-0.0501877,-0.9591336 L-0.0501877,-0.9591336 -0.0495895,-0.947687 -0.0478848,-0.9363511 -0.0451518,-0.9252207 -0.041522,-0.9143482 -0.0370476,-0.9037882 -0.0317135,-0.8936466 -0.025543,-0.8839969 -0.0187824,-0.8747347 -0.0187824,-0.8747347 -0.0102333,-0.8654348 -0.0008015,-0.8570264 0.0093056,-0.8494476 0.0200086,-0.8427348 0.031184,-0.8368407 0.0427509,-0.831758 0.0546072,-0.8273919 0.0666838,-0.8236779 0.0913256,-0.8181036 0.1163325,-0.8145056 0.1415272,-0.8125912 0.1667913,-0.812107 0.1667913,-0.812107 0.1906503,-0.8126717 0.2144441,-0.814456 0.2380776,-0.8178 0.2613621,-0.8230067 0.2840779,-0.8303324 0.2951043,-0.8348933 0.3058165,-0.8401547 0.3161644,-0.8461188 0.3260424,-0.8528243 0.3353025,-0.8603353 0.3441439,-0.8683611 0.3441439,-0.8683611 0.3521569,-0.8777532 0.3592422,-0.8878635 0.3653531,-0.8985912 0.3704789,-0.9098226 0.3746941,-0.9214273 0.3778439,-0.9333639 0.3798301,-0.9455494 0.3806305,-0.9578687 0.3806305,-0.9578687 0.3793493,-0.9732722 0.3763276,-0.9884316 0.3715401,-1.003129 0.3653323,-1.0172857 0.3577794,-1.030773 0.3489452,-1.0434565 0.3388487,-1.0551622 0.3274247,-1.0655735 0.3274247,-1.0655735 0.3088454,-1.0772458 0.2990121,-1.082131 0.2889184,-1.0864598 0.2681757,-1.0936201 0.2468731,-1.0989162 0.2252498,-1.1026825 0.2034401,-1.1051729 0.1815324,-1.1065087 0.1595863,-1.1069558 0.1595863,-1.1069558 0.1372798,-1.1063424 0.1150358,-1.104588 0.0929601,-1.101328 0.0711683,-1.0965291 0.0498434,-1.0899551 0.039462,-1.0858654 0.0293326,-1.0811844 0.0194823,-1.0759234 0.0100009,-1.0700328 -0.0076055,-1.0563364 -0.0076055,-1.0563364 -0.0167358,-1.0462851 -0.0248762,-1.0354165 -0.0320008,-1.0238525 -0.0380912,-1.0117195 -0.0430678,-0.9990873 -0.0468562,-0.9860426 -0.0492804,-0.9726814 -0.0501877,-0.9591336z M0.0238007,-0.9079883 L0.0238007,-0.9079883 0.0152279,-0.9192305 0.0116561,-0.9253327 0.0086401,-0.9317411 0.0040716,-0.9451119 0.0028111,-0.9520668 0.0022784,-0.9591153 0.0022782,-0.9591619 0.0022782,-0.9591619 0.0029286,-0.9672124 0.0045198,-0.9751324 0.0069301,-0.9828422 0.0099761,-0.9903239 0.0136615,-0.9975123 0.0179404,-1.0043639 0.0228089,-1.01081 0.0283269,-1.0167091 0.0283269,-1.0167091 0.0350428,-1.0224227 0.0421333,-1.0276382 0.0497073,-1.0321562 0.057597,-1.0360934 0.0740244,-1.0424517 0.0910033,-1.0471729 0.1082909,-1.0505791 0.125774,-1.0527897 0.1433562,-1.0539487 0.1609719,-1.0543966 0.1609719,-1.0543966 0.19518,-1.0532108 0.2122164,-1.0515324 0.2291319,-1.0489212 0.2458228,-1.0451159 0.2620732,-1.0397605 0.2776979,-1.0327562 0.2922313,-1.0237294 0.2922313,-1.0237294 0.2996729,-1.0177298 0.306433,-1.0109738 0.3124512,-1.0035466 0.3176291,-0.9955131 0.3219333,-0.9869777 0.3252291,-0.978007 0.3273321,-0.9686826 0.3281637,-0.9591619 0.3281637,-0.9591619 0.3275187,-0.9508251 0.3257775,-0.9426423 0.3232199,-0.9346821 0.3198233,-0.9270371 0.3158245,-0.919692 0.3111602,-0.9127493 0.3058602,-0.9062795 0.2999905,-0.9003215 0.2999905,-0.9003215 0.2854348,-0.8897682 0.2775811,-0.8853724 0.2694245,-0.8815729 0.2525192,-0.8754354 0.2351034,-0.8709442 0.2173849,-0.8678444 0.1995026,-0.8659031 0.1815419,-0.8649336 0.1635583,-0.8645738 0.1635583,-0.8645738 0.144762,-0.8649041 0.1260131,-0.8662028 0.1073755,-0.8686752 0.0889649,-0.8724624 0.0710001,-0.8779939 0.053815,-0.8855949 0.0456323,-0.8902367 0.03784,-0.8955064 0.0306148,-0.9015024 0.0238007,-0.9079883z" transform="matrix(1,0,0,-1,4.5212,2.54)" fill="rgb(104,104,104)" fill-rule="nonzero" shaper:cutDepth="0.0000762" stroke-linecap="round" stroke-linejoin="round" /><path d="M-0.0010471,-0.7068962 L0.1469466,-0.6206932 0.332875,-0.7311502 0.332875,-0.7311502 0.3439055,-0.7371747 0.3497188,-0.7395412 0.3559674,-0.7401499 0.3559674,-0.7401499 0.3609474,-0.7396331 0.3657214,-0.7381338 0.3700856,-0.7356855 0.373772,-0.7322974 0.3767583,-0.728283 0.3788517,-0.7237339 0.3801411,-0.7188996 0.3806305,-0.7139165 0.3806305,-0.7139165 0.3803647,-0.7093393 0.3794248,-0.7049188 0.3775015,-0.7007782 0.3749202,-0.6969807 0.3685399,-0.6905113 0.3611402,-0.685189 0.1997014,-0.5900462 0.3618258,-0.4955512 0.3618258,-0.4955512 0.3689361,-0.4904853 0.3750701,-0.4843105 0.377559,-0.4806836 0.3794232,-0.4767274 0.38035,-0.4724989 0.3806305,-0.4681168 0.3806305,-0.4681168 0.3802463,-0.4629716 0.3789609,-0.4579809 0.376839,-0.4532791 0.3738069,-0.4491093 0.3699311,-0.4457088 0.3654172,-0.4432173 0.3604564,-0.4418128 0.3553208,-0.4413291 0.3553208,-0.4413291 0.3502751,-0.4417355 0.3454699,-0.4433506 0.3366618,-0.4483494 0.1469466,-0.5593992 0.0015493,-0.4757583 0.0015493,-0.4757583 -0.0086889,-0.4707831 -0.0140743,-0.4688957 -0.0197061,-0.4681168 -0.0197061,-0.4681168 -0.0248976,-0.4687152 -0.0299018,-0.4702157 -0.0343562,-0.472945 -0.0380467,-0.476643 -0.0409089,-0.4810133 -0.0428475,-0.4858663 -0.043894,-0.4909853 -0.0442769,-0.4961976 -0.0442769,-0.4961976 -0.0433927,-0.5039742 -0.0419609,-0.5076387 -0.039749,-0.5108705 -0.0339832,-0.5161489 -0.0274653,-0.5204912 0.0929052,-0.5906847 -0.022898,-0.657725 -0.022898,-0.657725 -0.0307587,-0.6625572 -0.0379491,-0.6683282 -0.0408342,-0.671942 -0.0429208,-0.6760832 -0.0439537,-0.6805576 -0.0442769,-0.685189 -0.0442769,-0.685189 -0.0438871,-0.6903261 -0.0427366,-0.6953431 -0.0407713,-0.700107 -0.037834,-0.7043333 -0.0341462,-0.7079292 -0.029747,-0.7106033 -0.0248192,-0.7120979 -0.0197061,-0.7127156 -0.0197061,-0.7127156 -0.014769,-0.7124195 -0.0099853,-0.7111327 -0.0010471,-0.7068962z" transform="matrix(1,0,0,-1,4.5212,2.54)" fill="rgb(104,104,104)" fill-rule="nonzero" shaper:cutDepth="0.0000762" stroke-linecap="round" stroke-linejoin="round" /><path d="M-0.0261721,-0.137428 L0.147892,-0.229652 -0.0235033,-0.3206957 -0.0235033,-0.3206957 -0.0313609,-0.3256065 -0.0382154,-0.3318321 -0.04096,-0.335567 -0.0429569,-0.3397461 -0.0441148,-0.3442361 -0.0442769,-0.3488656 -0.0442769,-0.3488656 -0.0437767,-0.3539977 -0.0424567,-0.3589796 -0.0402802,-0.3636539 -0.0372268,-0.3678072 -0.0334418,-0.3713071 -0.0290626,-0.3740265 -0.0241758,-0.375665 -0.0190595,-0.3762998 -0.0190595,-0.3762998 -0.0147277,-0.3760158 -0.0106701,-0.3744696 -0.0028946,-0.3705728 -0.0003069,-0.3692202 0.2123263,-0.2555708 0.35086,-0.2555708 0.35086,-0.2555708 0.3565974,-0.2553248 0.3622731,-0.2544721 0.3677321,-0.2526826 0.3726222,-0.2496871 0.3765541,-0.2455091 0.3791668,-0.2404019 0.3804048,-0.2347977 0.3806305,-0.2290602 0.3806305,-0.2290602 0.3801981,-0.222284 0.378248,-0.2158059 0.3748174,-0.2099217 0.369546,-0.2056903 0.369546,-0.2056903 0.3645506,-0.2040924 0.3593494,-0.2033624 0.3488548,-0.2031039 0.2123263,-0.2031039 0.0022705,-0.0926469 0.0003374,-0.09137 0.0003374,-0.09137 -0.005481,-0.0881942 -0.005481,-0.0881942 -0.0122787,-0.0849291 -0.0197061,-0.0837604 -0.0197061,-0.0837604 -0.0248003,-0.0842982 -0.0296465,-0.0859533 -0.0340392,-0.0885802 -0.0376675,-0.0921973 -0.0405447,-0.0964346 -0.0426476,-0.1011037 -0.0438031,-0.1060941 -0.0442769,-0.1111946 -0.0442769,-0.1111946 -0.0441513,-0.1154574 -0.0434294,-0.1195948 -0.0417662,-0.1234907 -0.0394066,-0.1270505 -0.0333485,-0.1329297 -0.0261721,-0.137428z" transform="matrix(1,0,0,-1,4.5212,2.54)" fill="rgb(104,104,104)" fill-rule="nonzero" shaper:cutDepth="0.0000762" stroke-linecap="round" stroke-linejoin="round" /><path d="M0.1153405,0.3602679 L0.1153405,0.3602679 0.1161741,0.3730125 0.1176605,0.3792374 0.1201934,0.3851015 0.124104,0.390155 0.1293607,0.3937724 0.1354691,0.3956447 0.141851,0.3960155 0.141851,0.3960155 0.1495672,0.3948785 0.1532708,0.3936376 0.1567142,0.3917762 0.1597444,0.3892934 0.1622509,0.3862964 0.1658676,0.3793887 0.1658676,0.3793887 0.1669994,0.3742231 0.1675394,0.3689526 0.1678074,0.3583732 0.1678074,0.2166307 0.3461761,0.2166307 0.3461761,0.2166307 0.3550272,0.2164927 0.3594348,0.2160665 0.3636342,0.2146909 0.3636342,0.2146909 0.3673686,0.213288 0.3708385,0.2113233 0.3737624,0.2086077 0.3762439,0.2054846 0.3781886,0.2019811 0.3795142,0.1982071 0.3806305,0.1903049 0.3806305,0.1903049 0.3794936,0.1828734 0.3766572,0.1759215 0.3744803,0.1728339 0.3718416,0.1701564 0.365574,0.1660113 0.365574,0.1660113 0.3608773,0.164637 0.3559937,0.1642068 0.3461938,0.1641638 -0.008714,0.1640715 -0.008714,0.1640715 -0.0162668,0.1645417 -0.0237096,0.1659123 -0.0307195,0.1687491 -0.0368118,0.1732288 -0.0392529,0.1761295 -0.0411792,0.1793936 -0.0435834,0.1865698 -0.0445151,0.1940719 -0.0442768,0.201639 -0.0442769,0.4183693 -0.0442769,0.4183693 -0.0430301,0.4303937 -0.0414229,0.4362349 -0.0387191,0.4416363 -0.0348119,0.4462587 -0.0298038,0.4496381 -0.0240587,0.4515284 -0.0180434,0.4521772 -0.0180434,0.4521772 -0.0119751,0.4516455 -0.0061797,0.4497778 -0.0010362,0.4465364 0.0028841,0.4418773 0.0055031,0.436383 0.0071332,0.4305081 0.0079776,0.4244809 0.0081901,0.4183902 0.0081901,0.2166307 0.1153405,0.2166307 0.1153405,0.3602679z" transform="matrix(1,0,0,-1,4.5212,2.54)" fill="rgb(104,104,104)" fill-rule="nonzero" shaper:cutDepth="0.0000762" stroke-linecap="round" stroke-linejoin="round" /><path d="M0.3340754,0.7845286 L0.3340754,0.7845286 0.3340907,0.7919351 0.3343711,0.7956279 0.3352763,0.7992156 0.3352763,0.7992156 0.3384324,0.8056535 0.3435524,0.8106852 0.3499087,0.8140069 0.3569835,0.8151959 0.3569835,0.8151959 0.3642643,0.8138385 0.3677048,0.8124682 0.3708777,0.8105248 0.3736707,0.8080645 0.3759839,0.8051717 0.3793373,0.798569 0.3793373,0.798569 0.3804318,0.7940726 0.3806215,0.7894236 0.3806305,0.7801188 0.3806305,0.5539702 0.3806305,0.5539702 0.380296,0.5477261 0.379076,0.5416009 0.3766618,0.5358331 0.3727112,0.5310006 0.3675368,0.5275068 0.3616333,0.5254489 0.3554403,0.5246354 0.3491886,0.5247808 -0.0158265,0.5246885 -0.0158265,0.5246885 -0.0261384,0.5259693 -0.0311064,0.5275352 -0.0356944,0.529983 -0.0395051,0.5335183 -0.0423052,0.5379016 -0.0438288,0.5428741 -0.0442769,0.5480584 -0.0442769,0.5480584 -0.0438372,0.5532789 -0.042404,0.5583151 -0.0396961,0.5627955 -0.0358293,0.5663187 -0.0311677,0.5687088 -0.0261508,0.5702253 -0.0157452,0.571336 0.3340754,0.571336 0.3340754,0.7845286z" transform="matrix(1,0,0,-1,4.5212,2.54)" fill="rgb(104,104,104)" fill-rule="nonzero" shaper:cutDepth="0.0000762" stroke-linecap="round" stroke-linejoin="round" /><path d="M-0.0501877,1.027216 L-0.0501877,1.027216 -0.0495895,1.0386626 -0.0478848,1.0499985 -0.0451518,1.0611289 -0.041522,1.0720014 -0.0370476,1.0825614 -0.0317135,1.092703 -0.025543,1.1023526 -0.0187824,1.1116149 -0.0187824,1.1116149 -0.0102333,1.1209148 -0.0008015,1.1293231 0.0093056,1.136902 0.0200086,1.1436148 0.031184,1.1495089 0.0427509,1.1545916 0.0546072,1.1589577 0.0666838,1.1626717 0.0913256,1.168246 0.1163325,1.171844 0.1415272,1.1737584 0.1667913,1.1742426 0.1667913,1.1742426 0.1906503,1.1736779 0.2144441,1.1718936 0.2380776,1.1685496 0.2613621,1.1633429 0.2840779,1.1560172 0.2951043,1.1514563 0.3058165,1.1461949 0.3161644,1.1402307 0.3260424,1.1335253 0.3353025,1.1260143 0.3441439,1.1179885 0.3441439,1.1179885 0.3521569,1.1085964 0.3592422,1.0984861 0.3653531,1.0877584 0.3704789,1.076527 0.3746941,1.0649223 0.3778439,1.0529857 0.3798301,1.0408001 0.3806305,1.0284809 0.3806305,1.0284809 0.3793493,1.0130774 0.3763276,0.997918 0.3715401,0.9832206 0.3653323,0.9690639 0.3577794,0.9555766 0.3489452,0.9428931 0.3388487,0.9311874 0.3274247,0.9207761 0.3274247,0.9207761 0.3088454,0.9091038 0.2990121,0.9042185 0.2889184,0.8998898 0.2681757,0.8927295 0.2468731,0.8874334 0.2252498,0.8836671 0.2034401,0.8811767 0.1815324,0.8798409 0.1595863,0.8793938 0.1595863,0.8793938 0.1372798,0.8800072 0.1150358,0.8817616 0.0929601,0.8850216 0.0711683,0.8898204 0.0498434,0.8963945 0.039462,0.9004842 0.0293326,0.9051652 0.0194823,0.9104262 0.0100009,0.9163168 -0.0076055,0.9300132 -0.0076055,0.9300132 -0.0167358,0.9400645 -0.0248762,0.950933 -0.0320008,0.9624971 -0.0380912,0.9746301 -0.0430678,0.9872623 -0.0468562,1.000307 -0.0492804,1.0136682 -0.0501877,1.027216z M0.0238007,1.0783613 L0.0238007,1.0783613 0.0152279,1.0671191 0.0116561,1.0610169 0.0086401,1.0546085 0.0040716,1.0412377 0.0028111,1.0342828 0.0022784,1.0272343 0.0022782,1.0271877 0.0022782,1.0271877 0.0029286,1.0191372 0.0045198,1.0112172 0.0069301,1.0035074 0.0099761,0.9960257 0.0136615,0.9888373 0.0179404,0.9819857 0.0228089,0.9755396 0.0283269,0.9696404 0.0283269,0.9696404 0.0350428,0.9639269 0.0421333,0.9587114 0.0497073,0.9541934 0.057597,0.9502562 0.0740244,0.9438979 0.0910033,0.9391767 0.1082909,0.9357705 0.125774,0.9335599 0.1433562,0.9324009 0.1609719,0.931953 0.1609719,0.931953 0.19518,0.9331388 0.2122164,0.9348172 0.2291319,0.9374284 0.2458228,0.9412337 0.2620732,0.9465891 0.2776979,0.9535933 0.2922313,0.9626202 0.2922313,0.9626202 0.2996729,0.9686198 0.306433,0.9753758 0.3124512,0.982803 0.3176291,0.9908365 0.3219333,0.9993719 0.3252291,1.0083426 0.3273321,1.017667 0.3281637,1.0271877 0.3281637,1.0271877 0.3275187,1.0355245 0.3257775,1.0437073 0.3232199,1.0516675 0.3198233,1.0593125 0.3158245,1.0666576 0.3111602,1.0736003 0.3058602,1.0800701 0.2999905,1.0860281 0.2999905,1.0860281 0.2854348,1.0965814 0.2775811,1.1009772 0.2694245,1.1047767 0.2525192,1.1109141 0.2351034,1.1154054 0.2173849,1.1185052 0.1995026,1.1204465 0.1815419,1.121416 0.1635583,1.1217758 0.1635583,1.1217758 0.144762,1.1214455 0.1260131,1.1201468 0.1073755,1.1176744 0.0889649,1.1138872 0.0710001,1.1083557 0.053815,1.1007546 0.0456323,1.0961128 0.03784,1.0908432 0.0306148,1.0848472 0.0238007,1.0783613z" transform="matrix(1,0,0,-1,4.5212,2.54)" fill="rgb(104,104,104)" fill-rule="nonzero" shaper:cutDepth="0.0000762" stroke-linecap="round" stroke-linejoin="round" /><path d="M-0.0204451,1.457545 L0.2565351,1.378426 -0.0192881,1.2992545 -0.0192881,1.2992545 -0.0283745,1.2959611 -0.0325905,1.2935879 -0.0363569,1.2905565 -0.0394291,1.2868232 -0.0416127,1.2825106 -0.042784,1.2778191 -0.0429837,1.2729874 -0.0429837,1.2729874 -0.0423666,1.2677796 -0.0408212,1.2627696 -0.0383304,1.2581559 -0.0350009,1.2541051 -0.0309366,1.2507917 -0.0263542,1.2482451 -0.0213127,1.2468026 -0.0161036,1.2461997 -0.0161036,1.2461997 -0.010293,1.246657 -0.0046496,1.2481395 0.3484761,1.3496944 0.3484761,1.3496944 0.3676062,1.3553824 0.3676062,1.3553824 0.3730397,1.3596128 0.3771638,1.3651267 0.3795722,1.3715754 0.3806305,1.3783829 0.3806305,1.3783829 0.3803063,1.3838961 0.3788425,1.3892194 0.3760968,1.3940067 0.3722338,1.3979467 0.3676607,1.401048 0.362711,1.403501 0.3522726,1.4071103 0.0828686,1.4837751 0.353584,1.5616696 0.353584,1.5616696 0.3638709,1.5650152 0.3687629,1.5673037 0.3733037,1.5702593 0.3770072,1.5741667 0.379378,1.5790267 0.3804501,1.5843236 0.3806305,1.5897281 0.3806305,1.5897281 0.3803851,1.5948017 0.3789934,1.5996859 0.3763688,1.6040311 0.3728081,1.6076535 0.3687018,1.6106514 0.364228,1.6130547 0.3546742,1.6165157 -0.0074576,1.7200126 -0.0074576,1.7200126 -0.0203527,1.7219112 -0.0203527,1.7219112 -0.0252791,1.7213869 -0.0300029,1.7199005 -0.0342978,1.7174358 -0.0378931,1.7140283 -0.0407202,1.7099619 -0.0427288,1.7054337 -0.0438774,1.7006162 -0.0442769,1.6956778 -0.0442769,1.6956778 -0.0440876,1.6908337 -0.0430239,1.6861059 -0.0409293,1.6817342 -0.0379553,1.6779116 -0.0342255,1.6748128 -0.0300472,1.6723536 -0.0209993,1.6688902 0.2556729,1.5891243 -0.0235413,1.5093143 -0.0235413,1.5093143 -0.031748,1.5062488 -0.0355073,1.5039914 -0.0388321,1.5011346 -0.0414981,1.4976551 -0.0432703,1.4936489 -0.0441896,1.4893628 -0.0442769,1.4849792 -0.0442769,1.4849792 -0.0441145,1.4799631 -0.0432406,1.4750226 -0.0413379,1.4703832 -0.0382758,1.4664129 -0.0342808,1.4633887 -0.0298463,1.4610214 -0.0204451,1.457545z" transform="matrix(1,0,0,-1,4.5212,2.54)" fill="rgb(104,104,104)" fill-rule="nonzero" shaper:cutDepth="0.0000762" stroke-linecap="round" stroke-linejoin="round" /><path d="M-3.8393181,2.2262836 L-3.8393181,2.2262836 -3.8386023,2.2384007 -3.8371118,2.2504481 -3.8344977,2.2622994 -3.830926,2.2739034 -3.8261509,2.2850592 -3.8203085,2.2957005 -3.8134154,2.3056901 -3.805537,2.3149239 -3.7967935,2.3233431 -3.7872299,2.3308169 -3.776919,2.3372205 -3.7659774,2.3424742 -3.7545445,2.3465496 -3.7427454,2.3493996 -3.7307345,2.3511475 -3.7186198,2.3519084 -3.7186198,2.3519084 -3.7044972,2.3513164 -3.6905635,2.3489476 -3.6770413,2.3448357 -3.664206,2.33892 -3.6523367,2.3312446 -3.6414906,2.3221821 -3.6318252,2.311869 -3.6231696,2.3006937 -3.6231696,2.3006937 -3.6118819,2.3117955 -3.5998765,2.3221141 -3.586971,2.3312851 -3.5731506,2.3390042 -3.5584895,2.3449732 -3.5432009,2.3490779 -3.5275283,2.3513079 -3.5117083,2.3519084 -3.5117083,2.3519084 -3.5004136,2.3514517 -3.4891738,2.3502529 -3.4780536,2.3482255 -3.4670958,2.3454476 -3.4564198,2.3417369 -3.4460515,2.3372329 -3.4360921,2.3318877 -3.4266139,2.3257285 -3.4176577,2.3188323 -3.4092722,2.3112527 -3.4015327,2.3030145 -3.3945544,2.2941222 -3.3883092,2.2847009 -3.3828799,2.2747862 -3.3782279,2.2644846 -3.3742806,2.2538923 -3.3742806,2.2538923 -3.3705424,2.2404106 -3.3683294,2.2265994 -3.3673896,2.2126423 -3.3671988,2.1986519 -3.3671988,2.0674052 -3.3671988,2.0674052 -3.3671014,2.0596017 -3.3681429,2.0518818 -3.3706686,2.0444961 -3.3726672,2.0411474 -3.3751948,2.0381635 -3.3781669,2.0356222 -3.3815028,2.0335977 -3.3888859,2.0310802 -3.39663,2.030207 -3.4044263,2.0305189 -3.8034986,2.0304567 -3.8034986,2.0304567 -3.8109492,2.0305675 -3.8183203,2.0316738 -3.8252462,2.0344012 -3.8312477,2.0388084 -3.8355375,2.0448926 -3.8381171,2.0518792 -3.8392183,2.0592472 -3.839318,2.0666995 -3.8393181,2.2262836z M-3.5971003,2.2043273 L-3.5971003,2.089401 -3.4254953,2.089401 -3.4254953,2.1978538 -3.4254953,2.1978538 -3.4258289,2.2115502 -3.4271564,2.2251869 -3.4302558,2.238534 -3.4356561,2.2511212 -3.4356561,2.2511212 -3.4421246,2.2603615 -3.4497362,2.2686854 -3.4583778,2.2759337 -3.4678737,2.2820214 -3.47801,2.2869695 -3.4886628,2.2906763 -3.499739,2.2928077 -3.5109899,2.2936119 -3.5109899,2.2936119 -3.52424,2.2925265 -3.5371826,2.2894961 -3.5495083,2.284514 -3.5609279,2.2777104 -3.5713504,2.269454 -3.5802216,2.2595576 -3.5875088,2.2484384 -3.5927897,2.2362391 -3.5927897,2.2362391 -3.5952664,2.2285216 -3.5966208,2.2205292 -3.5971003,2.2043273z M-3.7810214,2.2199346 L-3.7810214,2.0943669 -3.6553968,2.0943669 -3.6553968,2.2212545 -3.6553968,2.2212545 -3.6562951,2.2397998 -3.6580729,2.2489258 -3.6616575,2.2574845 -3.6616575,2.2574845 -3.666061,2.2652115 -3.6713898,2.2723311 -3.6777166,2.278581 -3.6848987,2.2838259 -3.6927224,2.2880543 -3.7010401,2.291201 -3.7097461,2.2930158 -3.7186198,2.2936119 -3.7186198,2.2936119 -3.7290854,2.2927373 -3.7392551,2.2901267 -3.7488423,2.2858422 -3.7575247,2.2799361 -3.7651652,2.272732 -3.771344,2.2642418 -3.7760007,2.254832 -3.7789689,2.2447578 -3.7789689,2.2447578 -3.7803836,2.2386694 -3.7809364,2.2324399 -3.7810214,2.2199346z" transform="matrix(1,0,0,-1,4.5212,2.54)" fill="rgb(104,104,104)" fill-rule="nonzero" shaper:cutDepth="0.0000762" stroke-linecap="round" stroke-linejoin="round" /><path d="M-3.2870857,2.1885455 L-3.2870857,2.1885455 -3.286421,2.201264 -3.2845269,2.2138594 -3.2814903,2.2262265 -3.2774571,2.2383071 -3.2724856,2.2500404 -3.2665588,2.2613089 -3.2597026,2.2720307 -3.2521909,2.2823221 -3.2521909,2.2823221 -3.2426919,2.2926553 -3.2322121,2.3019979 -3.220982,2.3104189 -3.2090898,2.3178775 -3.1966727,2.3244265 -3.1838206,2.3300739 -3.1706469,2.3349252 -3.1572285,2.3390518 -3.1298487,2.3452455 -3.1020632,2.3492433 -3.0740692,2.3513704 -3.045998,2.3519084 -3.045998,2.3519084 -3.0194879,2.3512809 -2.9930503,2.3492984 -2.9667909,2.3455829 -2.9537902,2.3429834 -2.9409193,2.3397976 -2.9282032,2.3360272 -2.9156795,2.3316579 -2.9034279,2.3265903 -2.8915255,2.3207443 -2.8800278,2.3141174 -2.8690523,2.3066669 -2.8587632,2.2983214 -2.8489395,2.2894039 -2.8489395,2.2894039 -2.8400361,2.2789681 -2.8321635,2.2677345 -2.8253736,2.2558149 -2.8196783,2.2433355 -2.8149948,2.2304414 -2.811495,2.2171785 -2.8092881,2.203639 -2.8083988,2.1899509 -2.8083988,2.1899509 -2.8098224,2.1728359 -2.8131798,2.1559921 -2.8184992,2.1396617 -2.8253968,2.1239321 -2.8337889,2.1089461 -2.8436047,2.0948534 -2.854823,2.081847 -2.8675163,2.0702789 -2.8675163,2.0702789 -2.8776772,2.0635234 -2.88816,2.0573097 -2.8990859,2.0518817 -2.9103011,2.0470719 -2.9333486,2.0391161 -2.9570181,2.0332315 -2.9810441,2.0290468 -3.0052771,2.0262796 -3.0296189,2.0247954 -3.0540035,2.0242986 -3.0540035,2.0242986 -3.0787885,2.0249801 -3.1035041,2.0269295 -3.1280326,2.0305517 -3.1522457,2.0358838 -3.1759401,2.0431883 -3.1874749,2.0477324 -3.1987298,2.0529335 -3.2096746,2.0587791 -3.2202094,2.0653242 -3.2301821,2.0726731 -3.2397721,2.0805424 -3.2397721,2.0805424 -3.2499169,2.0917105 -3.2589617,2.1037867 -3.266878,2.1166356 -3.2736451,2.1301167 -3.2791747,2.1441525 -3.2833841,2.1586466 -3.2860776,2.1734924 -3.2870857,2.1885455z M-3.2048764,2.2453736 L-3.2048764,2.2453736 -3.2144016,2.2328823 -3.2183704,2.226102 -3.2217214,2.2189816 -3.2267976,2.2041252 -3.2281982,2.1963975 -3.22879,2.1885659 -3.2287902,2.188514 -3.2287902,2.188514 -3.2280676,2.179569 -3.2262995,2.1707691 -3.2236214,2.1622026 -3.220237,2.1538896 -3.2161421,2.1459025 -3.2113878,2.1382896 -3.2059783,2.1311273 -3.1998473,2.1245727 -3.1998473,2.1245727 -3.1923852,2.1182243 -3.1845068,2.1124293 -3.1760913,2.1074093 -3.1673249,2.1030347 -3.1490723,2.0959699 -3.1302068,2.090724 -3.1109983,2.0869394 -3.0915727,2.0844832 -3.072037,2.0831954 -3.0524639,2.0826977 -3.0524639,2.0826977 -3.0334469,2.0830273 -3.014455,2.0840153 -2.9955256,2.0858802 -2.9767306,2.0887815 -2.9581852,2.0930096 -2.9401292,2.09896 -2.9227684,2.1067426 -2.9066201,2.1167724 -2.9066201,2.1167724 -2.8983517,2.1234386 -2.8908405,2.1309453 -2.8841536,2.1391977 -2.8784003,2.1481238 -2.8736179,2.1576076 -2.869956,2.167575 -2.8676193,2.1779355 -2.8666953,2.188514 -2.8666953,2.188514 -2.8674119,2.1977771 -2.8693466,2.2068691 -2.8721884,2.2157138 -2.8759623,2.2242083 -2.8804054,2.2323695 -2.885588,2.2400836 -2.8914769,2.2472723 -2.8979988,2.2538923 -2.8979988,2.2538923 -2.9141718,2.2656181 -2.9228981,2.2705024 -2.9319611,2.2747241 -2.9507447,2.2815434 -2.9700956,2.2865337 -2.9897828,2.2899779 -3.009652,2.2921349 -3.0296083,2.2932121 -3.0495902,2.2936119 -3.0495902,2.2936119 -3.0704749,2.293245 -3.091307,2.2918019 -3.1120154,2.2890549 -3.1324716,2.2848468 -3.1524326,2.2787007 -3.1621146,2.2747807 -3.1715272,2.2702551 -3.180619,2.2650975 -3.1892771,2.2592424 -3.1973051,2.2525802 -3.2048764,2.2453736z" transform="matrix(1,0,0,-1,4.5212,2.54)" fill="rgb(104,104,104)" fill-rule="nonzero" shaper:cutDepth="0.0000762" stroke-linecap="round" stroke-linejoin="round" /><path d="M-2.4597945,2.2389076 L-2.4597944,2.2904301 -2.3859979,2.2904301 -2.3859979,2.2904301 -2.3753554,2.2900903 -2.3647632,2.2890379 -2.3543823,2.2866677 -2.3445358,2.28263 -2.3445358,2.28263 -2.3361725,2.2773894 -2.3286715,2.2709749 -2.3222856,2.2634512 -2.3170566,2.2550786 -2.3129717,2.2460963 -2.3101854,2.2366248 -2.308522,2.226898 -2.3078953,2.2170465 -2.3078953,2.2170465 -2.3084248,2.2054776 -2.3102701,2.1940444 -2.3135114,2.1829278 -2.3181488,2.1723147 -2.3240073,2.1623273 -2.3309732,2.1530717 -2.3387669,2.1445082 -2.3473069,2.1366835 -2.3473069,2.1366835 -2.362338,2.1253497 -2.3782665,2.1153158 -2.3950656,2.1068189 -2.4124809,2.0996694 -2.4304194,2.0939586 -2.4487346,2.0896048 -2.4673711,2.0869436 -2.4861716,2.085982 -2.4861716,2.085982 -2.5010173,2.0865816 -2.5157898,2.0881711 -2.5303782,2.0909866 -2.5447183,2.0948744 -2.5587313,2.0998136 -2.5722857,2.1058971 -2.5853342,2.1130034 -2.5977354,2.1211857 -2.5977354,2.1211857 -2.6104757,2.129398 -2.6225915,2.1384992 -2.6337929,2.1487121 -2.6437931,2.1600998 -2.6521179,2.1727616 -2.6555232,2.1795353 -2.6583733,2.1865609 -2.6606231,2.1938081 -2.662193,2.2012265 -2.6634216,2.216328 -2.6634216,2.216328 -2.6626674,2.2276704 -2.6601903,2.2387697 -2.6560153,2.2493373 -2.650185,2.2591005 -2.6431844,2.2680579 -2.6353813,2.2763331 -2.6269547,2.2839632 -2.6180571,2.291046 -2.6180571,2.291046 -2.610733,2.2968911 -2.6038717,2.303275 -2.6009282,2.3069229 -2.5985974,2.311022 -2.5973247,2.3154986 -2.5969144,2.3201943 -2.5969144,2.3201943 -2.5977913,2.3261751 -2.5999626,2.3318176 -2.6033513,2.3368209 -2.6076326,2.3410944 -2.6125328,2.3446315 -2.6180097,2.3472 -2.6238359,2.3488031 -2.6298601,2.3493425 -2.6298601,2.3493425 -2.6354195,2.3489243 -2.6408253,2.3477389 -2.6459646,2.3455727 -2.6507952,2.3428166 -2.6598511,2.3363885 -2.6683481,2.3292261 -2.6683481,2.3292261 -2.6796776,2.3175124 -2.6900728,2.3049656 -2.6992992,2.2915324 -2.7071663,2.2772635 -2.7134705,2.2622371 -2.7180487,2.2466006 -2.7208382,2.2305456 -2.7217181,2.2142753 -2.7217181,2.2142753 -2.7211928,2.2023271 -2.7196319,2.1904692 -2.7172752,2.1787439 -2.713978,2.1672472 -2.7098881,2.1560081 -2.7049884,2.1450979 -2.6991729,2.1346471 -2.6925698,2.1246753 -2.6925698,2.1246753 -2.6830388,2.1133494 -2.6727988,2.1026596 -2.6619104,2.0926319 -2.6504151,2.0833054 -2.6383697,2.0747017 -2.6258368,2.0668242 -2.6128949,2.059639 -2.5995848,2.0531602 -2.5859549,2.0473855 -2.572049,2.0423103 -2.5579207,2.0378931 -2.5435651,2.0342815 -2.5290308,2.0314742 -2.5143786,2.0293675 -2.4996319,2.0280797 -2.4848374,2.0275829 -2.4848374,2.0275829 -2.4625575,2.0286181 -2.4404288,2.0314095 -2.4185937,2.0359586 -2.3971971,2.0422564 -2.3763814,2.0502675 -2.3562227,2.059812 -2.3369737,2.0710787 -2.3186719,2.0838267 -2.3186719,2.0838267 -2.304143,2.0960395 -2.2907584,2.1094892 -2.2787701,2.1242038 -2.2684449,2.1401264 -2.2640587,2.148544 -2.2602311,2.1572317 -2.2569542,2.1661417 -2.2542572,2.1752432 -2.252187,2.1845111 -2.2507796,2.1938983 -2.2495988,2.2128384 -2.2495988,2.2128384 -2.2506603,2.2301028 -2.253713,2.2471254 -2.2585665,2.263728 -2.2652321,2.2796869 -2.2735645,2.2948449 -2.2835956,2.3089324 -2.2892475,2.3154903 -2.2953366,2.3216335 -2.3086137,2.3327157 -2.3086137,2.3327157 -2.3220839,2.3403664 -2.3292545,2.3433072 -2.3366784,2.3455552 -2.3442579,2.347144 -2.3519444,2.3481134 -2.3674233,2.3486241 -2.478532,2.3487266 -2.478532,2.3487266 -2.4866838,2.3485557 -2.4947909,2.3476643 -2.5026097,2.345372 -2.5062511,2.3435082 -2.5095207,2.3410647 -2.5122117,2.3380001 -2.5143155,2.3344904 -2.5169794,2.3267912 -2.5180015,2.3187004 -2.518091,2.3105466 -2.518091,2.2417896 -2.518091,2.2417896 -2.517899,2.2299552 -2.5172273,2.2240742 -2.5153198,2.2184833 -2.5153198,2.2184833 -2.5111447,2.2110702 -2.5083229,2.2078939 -2.5049909,2.2052036 -2.5012955,2.2030402 -2.4973326,2.2014978 -2.4889427,2.2001118 -2.4889427,2.2001118 -2.4819095,2.201057 -2.4752399,2.2034681 -2.4694195,2.2075224 -2.464721,2.2128384 -2.464721,2.2128384 -2.461486,2.2187494 -2.4602619,2.2253991 -2.4597945,2.2389076z" transform="matrix(1,0,0,-1,4.5212,2.54)" fill="rgb(104,104,104)" fill-rule="nonzero" shaper:cutDepth="0.0000762" stroke-linecap="round" stroke-linejoin="round" /><path d="M-2.162918,2.2116545 L-2.160692,2.1659358 -2.160692,2.1659358 -2.159572,2.1540083 -2.1575468,2.1422037 -2.1546137,2.1305864 -2.1505814,2.11931 -2.1456001,2.1084126 -2.1394545,2.0981341 -2.1323835,2.0884628 -2.1243711,2.0795598 -2.1155556,2.0714486 -2.1059528,2.0642886 -2.0956649,2.0581534 -2.0848155,2.0530772 -2.0734747,2.0492186 -2.0618345,2.0463937 -2.0499667,2.0447634 -2.0380117,2.0440045 -2.0380117,2.0440045 -2.023314,2.0449983 -2.0088122,2.0475856 -1.9947302,2.0519105 -1.9812149,2.0577712 -1.9684794,2.0651754 -1.9567288,2.0740572 -1.9461987,2.0843596 -1.9372245,2.0960402 -1.9372245,2.0960402 -1.9297703,2.1084088 -1.9241492,2.1217256 -1.9198593,2.1355157 -1.9166976,2.1496155 -1.9003342,2.2259385 -1.9003342,2.2259385 -1.8972139,2.2395238 -1.8952041,2.2462043 -1.8925785,2.2526607 -1.8925785,2.2526607 -1.8871266,2.2615499 -1.8804855,2.2695901 -1.8727538,2.2765876 -1.8641718,2.2825113 -1.8548563,2.2872004 -1.8450431,2.2907285 -1.8348281,2.2928263 -1.8244291,2.2936119 -1.8244291,2.2936119 -1.8121166,2.2925776 -1.8001104,2.2896793 -1.7886804,2.2849859 -1.7781627,2.2785075 -1.7687627,2.2704904 -1.7607731,2.2610693 -1.7574864,2.2558276 -1.7547596,2.2502795 -1.7507374,2.2385997 -1.7507374,2.2385997 -1.7487671,2.2238204 -1.7478636,2.2089383 -1.7478085,2.1666417 -1.7478085,2.1666417 -1.7483048,2.1520182 -1.7491368,2.1447452 -1.7507374,2.1376073 -1.7507374,2.1376073 -1.7547796,2.1277767 -1.7603363,2.1187155 -1.7672964,2.1106817 -1.7752886,2.1036731 -1.7841449,2.0977936 -1.7937683,2.0932807 -1.8040134,2.0904482 -1.8145761,2.0892663 -1.8145761,2.0892663 -1.8209395,2.0898822 -1.8265543,2.0899763 -1.8265543,2.0899763 -1.8321702,2.0893755 -1.837666,2.0880787 -1.842824,2.0857796 -1.8473993,2.0824697 -1.8512078,2.0783021 -1.8541391,2.0734762 -1.8558411,2.0680928 -1.8564511,2.0624787 -1.8564511,2.0624787 -1.8555539,2.0553641 -1.8530211,2.0486534 -1.848865,2.0428187 -1.8433501,2.0382307 -1.8370353,2.0348271 -1.8302444,2.0325164 -1.8231746,2.0313051 -1.816013,2.0308672 -1.816013,2.0308672 -1.7977526,2.0323461 -1.7887541,2.034037 -1.7798933,2.036416 -1.7712049,2.0393525 -1.762752,2.0428799 -1.7545952,2.0470501 -1.7467509,2.0517983 -1.739233,2.0570456 -1.732097,2.0627924 -1.7254065,2.0690535 -1.7192078,2.0758087 -1.7135492,2.0830272 -1.7085085,2.0906774 -1.7000359,2.1069195 -1.7000359,2.1069195 -1.6959522,2.1213394 -1.6931757,2.1360705 -1.6914699,2.1509605 -1.6907988,2.1659344 -1.6907988,2.212083 -1.6907988,2.212083 -1.6915812,2.2255585 -1.6932035,2.238959 -1.6959396,2.252175 -1.6996994,2.265143 -1.7048192,2.2776259 -1.7110468,2.2896056 -1.7184906,2.3008615 -1.7271068,2.3112519 -1.7367424,2.3207032 -1.7473374,2.3290649 -1.7588264,2.3361477 -1.7710496,2.3418714 -1.7838267,2.3462209 -1.7969689,2.3493016 -1.8103343,2.351179 -1.8238133,2.3519084 -1.8238133,2.3519084 -1.8356727,2.3513448 -1.8474591,2.349919 -1.859088,2.3475273 -1.8704926,2.3442254 -1.8815176,2.3398226 -1.8921403,2.3345208 -1.9021659,2.3281612 -1.9116074,2.3209642 -1.9203634,2.3129455 -1.9284131,2.3042201 -1.9355814,2.2947551 -1.9418971,2.2847029 -1.9473279,2.2741445 -1.9519455,2.2632072 -1.9556624,2.2519313 -1.9586752,2.2404472 -1.974333,2.1638083 -1.974333,2.1638083 -1.9771334,2.1512524 -1.9808442,2.1389415 -1.9808442,2.1389415 -1.9851824,2.1309315 -1.9906514,2.1236463 -1.9972205,2.1173357 -2.0046278,2.1120323 -2.0127245,2.1078583 -2.0213362,2.1048829 -2.0302576,2.1030488 -2.039346,2.1024036 -2.039346,2.1024036 -2.0523099,2.1036517 -2.0586461,2.105137 -2.0648087,2.1072921 -2.0707294,2.110041 -2.0762892,2.113428 -2.0813911,2.1174774 -2.0860436,2.1220573 -2.0902399,2.12705 -2.0938911,2.13244 -2.0969468,2.1381945 -2.0994521,2.1442204 -2.1028303,2.1567907 -2.1043137,2.1697319 -2.1049459,2.2052697 -2.1049459,2.2088169 -2.1049459,2.2088169 -2.1042544,2.2216145 -2.1016267,2.2341486 -2.0969026,2.24606 -2.0936294,2.2515712 -2.089765,2.2566941 -2.085392,2.2613854 -2.080572,2.2656126 -2.0698319,2.2725986 -2.0580428,2.2776111 -2.0457093,2.2810905 -2.0457093,2.2810905 -2.0361799,2.2847613 -2.0318127,2.2874155 -2.0279377,2.2907482 -2.024816,2.2947896 -2.0226319,2.2994084 -2.0215974,2.3044112 -2.0214876,2.3095203 -2.0214876,2.3095203 -2.0220552,2.3154047 -2.0236891,2.3210837 -2.0265054,2.326279 -2.0303965,2.3307282 -2.0351389,2.3342517 -2.0405438,2.3366495 -2.0462862,2.3380404 -2.0521753,2.3385659 -2.0521753,2.3385659 -2.0651865,2.3370799 -2.0777929,2.3334627 -2.089896,2.328454 -2.1014399,2.322247 -2.1014399,2.322247 -2.1147803,2.3132697 -2.1269176,2.3027267 -2.137527,2.2906445 -2.1464495,2.27727 -2.1535782,2.2628575 -2.1587054,2.2476202 -2.1618875,2.23186 -2.1629181,2.2158148 -2.162918,2.2116545z" transform="matrix(1,0,0,-1,4.5212,2.54)" fill="rgb(104,104,104)" fill-rule="nonzero" shaper:cutDepth="0.0000762" stroke-linecap="round" stroke-linejoin="round" /><path d="M-3.8735,0.6223 a0.7874,0.7874 0 1,0 1.5748,0 a0.7874,0.7874 0 1,0 -1.5748,0z M-3.7973,0.6223 a0.7112,0.7112 0 1,1 1.4224,0 a0.7112,0.7112 0 1,1 -1.4224,0z" transform="matrix(1,0,0,-1,4.5212,2.54)" fill="rgb(104,104,104)" fill-rule="nonzero" shaper:cutDepth="0.0000762" stroke-linecap="round" stroke-linejoin="round" /><path d="M1.0115079,-0.315857 L0.8067476,-0.1161859 0.7362075,-0.393349 0.8378518,-0.364738 A2.0597183,2.0597183 199.3433752 0,1 2.4910156,-1.7216603 L2.5017548,-1.6462208 A1.9835183,1.9835183 261.8981029 0,0 0.9113539,-0.3440485 L1.0115079,-0.315857z" transform="matrix(1,0,0,-1,4.5212,2.54)" fill="rgb(104,104,104)" fill-rule="nonzero" shaper:cutDepth="0.0000762" stroke-linecap="round" stroke-linejoin="round" /><path d="M-1.421765,1.2065 a0.215265,0.215265 0 1,1 0.43053,0 a0.215265,0.215265 0 1,1 -0.43053,0z" transform="matrix(1,0,0,-1,4.5212,2.54)" fill="rgb(255,255,255)" stroke="rgb(0,0,0)" stroke-width="0.0010cm" stroke-linecap="round" stroke-linejoin="round" shaper:cutDepth="0.0015875" /><path d="M-3.7211,0.6223 a0.635,0.635 0 1,1 1.27,0 a0.635,0.635 0 1,1 -1.27,0z" transform="matrix(1,0,0,-1,4.5212,2.54)" fill="rgb(255,255,255)" stroke="rgb(0,0,0)" stroke-width="0.0010cm" stroke-linecap="round" stroke-linejoin="round" shaper:cutDepth="0.0015875" /><path d="M3.512185,-1.905 a0.215265,0.215265 0 1,1 0.43053,0 a0.215265,0.215265 0 1,1 -0.43053,0z" transform="matrix(1,0,0,-1,4.5212,2.54)" fill="rgb(255,255,255)" stroke="rgb(0,0,0)" stroke-width="0.0010cm" stroke-linecap="round" stroke-linejoin="round" shaper:cutDepth="0.0015875" /></svg>