G04 #@! TF.GenerationSoftware,KiCad,Pcbnew,(5.0.2)-1*
G04 #@! TF.CreationDate,2019-01-08T12:37:08+09:00*
G04 #@! TF.ProjectId,Caution Light Panel,43617574-696f-46e2-904c-696768742050,rev?*
G04 #@! TF.SameCoordinates,Original*
G04 #@! TF.FileFunction,Legend,Top*
G04 #@! TF.FilePolarity,Positive*
%FSLAX46Y46*%
G04 Gerber Fmt 4.6, Leading zero omitted, Abs format (unit mm)*
G04 Created by KiCad (PCBNEW (5.0.2)-1) date 1/8/2019 12:37:08 PM*
%MOMM*%
%LPD*%
G01*
G04 APERTURE LIST*
%ADD10C,0.120000*%
%ADD11C,0.150000*%
G04 APERTURE END LIST*
D10*
G04 #@! TO.C,C1*
X147480000Y-74090000D02*
X147480000Y-73390000D01*
X148680000Y-73390000D02*
X148680000Y-74090000D01*
G04 #@! TO.C,D1*
X118884600Y-73030400D02*
X117784600Y-73030400D01*
X117784600Y-73030400D02*
X117784600Y-75630400D01*
X118884600Y-73030400D02*
X118884600Y-75630400D01*
G04 #@! TO.C,D2*
X118884600Y-83130400D02*
X117784600Y-83130400D01*
X117784600Y-83130400D02*
X117784600Y-85730400D01*
X118884600Y-83130400D02*
X118884600Y-85730400D01*
G04 #@! TO.C,D3*
X118884600Y-93240400D02*
X117784600Y-93240400D01*
X117784600Y-93240400D02*
X117784600Y-95840400D01*
X118884600Y-93240400D02*
X118884600Y-95840400D01*
G04 #@! TO.C,D4*
X118884600Y-103350400D02*
X117784600Y-103350400D01*
X117784600Y-103350400D02*
X117784600Y-105950400D01*
X118884600Y-103350400D02*
X118884600Y-105950400D01*
G04 #@! TO.C,D7*
X129194600Y-73030400D02*
X128094600Y-73030400D01*
X128094600Y-73030400D02*
X128094600Y-75630400D01*
X129194600Y-73030400D02*
X129194600Y-75630400D01*
G04 #@! TO.C,D8*
X129194600Y-83130400D02*
X128094600Y-83130400D01*
X128094600Y-83130400D02*
X128094600Y-85730400D01*
X129194600Y-83130400D02*
X129194600Y-85730400D01*
G04 #@! TO.C,D9*
X129194600Y-93240400D02*
X128094600Y-93240400D01*
X128094600Y-93240400D02*
X128094600Y-95840400D01*
X129194600Y-93240400D02*
X129194600Y-95840400D01*
G04 #@! TO.C,D10*
X129194600Y-103350400D02*
X128094600Y-103350400D01*
X128094600Y-103350400D02*
X128094600Y-105950400D01*
X129194600Y-103350400D02*
X129194600Y-105950400D01*
G04 #@! TO.C,D13*
X142994600Y-73030400D02*
X141894600Y-73030400D01*
X141894600Y-73030400D02*
X141894600Y-75630400D01*
X142994600Y-73030400D02*
X142994600Y-75630400D01*
G04 #@! TO.C,D14*
X142994600Y-83130400D02*
X141894600Y-83130400D01*
X141894600Y-83130400D02*
X141894600Y-85730400D01*
X142994600Y-83130400D02*
X142994600Y-85730400D01*
G04 #@! TO.C,D15*
X142994600Y-93240400D02*
X141894600Y-93240400D01*
X141894600Y-93240400D02*
X141894600Y-95840400D01*
X142994600Y-93240400D02*
X142994600Y-95840400D01*
G04 #@! TO.C,D16*
X142994600Y-103350400D02*
X141894600Y-103350400D01*
X141894600Y-103350400D02*
X141894600Y-105950400D01*
X142994600Y-103350400D02*
X142994600Y-105950400D01*
G04 #@! TO.C,D18*
X153304600Y-73030400D02*
X152204600Y-73030400D01*
X152204600Y-73030400D02*
X152204600Y-75630400D01*
X153304600Y-73030400D02*
X153304600Y-75630400D01*
G04 #@! TO.C,D19*
X153304600Y-83130400D02*
X152204600Y-83130400D01*
X152204600Y-83130400D02*
X152204600Y-85730400D01*
X153304600Y-83130400D02*
X153304600Y-85730400D01*
G04 #@! TO.C,D20*
X153304600Y-93240400D02*
X152204600Y-93240400D01*
X152204600Y-93240400D02*
X152204600Y-95840400D01*
X153304600Y-93240400D02*
X153304600Y-95840400D01*
G04 #@! TO.C,D21*
X153304600Y-103350400D02*
X152204600Y-103350400D01*
X152204600Y-103350400D02*
X152204600Y-105950400D01*
X153304600Y-103350400D02*
X153304600Y-105950400D01*
G04 #@! TO.C,D22*
X167094600Y-73030400D02*
X165994600Y-73030400D01*
X165994600Y-73030400D02*
X165994600Y-75630400D01*
X167094600Y-73030400D02*
X167094600Y-75630400D01*
G04 #@! TO.C,D23*
X167094600Y-83130400D02*
X165994600Y-83130400D01*
X165994600Y-83130400D02*
X165994600Y-85730400D01*
X167094600Y-83130400D02*
X167094600Y-85730400D01*
G04 #@! TO.C,D24*
X167094600Y-93240400D02*
X165994600Y-93240400D01*
X165994600Y-93240400D02*
X165994600Y-95840400D01*
X167094600Y-93240400D02*
X167094600Y-95840400D01*
G04 #@! TO.C,D25*
X167094600Y-103350400D02*
X165994600Y-103350400D01*
X165994600Y-103350400D02*
X165994600Y-105950400D01*
X167094600Y-103350400D02*
X167094600Y-105950400D01*
G04 #@! TO.C,D26*
X177404600Y-73030400D02*
X176304600Y-73030400D01*
X176304600Y-73030400D02*
X176304600Y-75630400D01*
X177404600Y-73030400D02*
X177404600Y-75630400D01*
G04 #@! TO.C,D27*
X177404600Y-83130400D02*
X176304600Y-83130400D01*
X176304600Y-83130400D02*
X176304600Y-85730400D01*
X177404600Y-83130400D02*
X177404600Y-85730400D01*
G04 #@! TO.C,D28*
X177404600Y-93240400D02*
X176304600Y-93240400D01*
X176304600Y-93240400D02*
X176304600Y-95840400D01*
X177404600Y-93240400D02*
X177404600Y-95840400D01*
G04 #@! TO.C,D29*
X177404600Y-103350400D02*
X176304600Y-103350400D01*
X176304600Y-103350400D02*
X176304600Y-105950400D01*
X177404600Y-103350400D02*
X177404600Y-105950400D01*
G04 #@! TO.C,C1*
D11*
X147187142Y-73906666D02*
X147234761Y-73954285D01*
X147282380Y-74097142D01*
X147282380Y-74192380D01*
X147234761Y-74335238D01*
X147139523Y-74430476D01*
X147044285Y-74478095D01*
X146853809Y-74525714D01*
X146710952Y-74525714D01*
X146520476Y-74478095D01*
X146425238Y-74430476D01*
X146330000Y-74335238D01*
X146282380Y-74192380D01*
X146282380Y-74097142D01*
X146330000Y-73954285D01*
X146377619Y-73906666D01*
X147282380Y-72954285D02*
X147282380Y-73525714D01*
X147282380Y-73240000D02*
X146282380Y-73240000D01*
X146425238Y-73335238D01*
X146520476Y-73430476D01*
X146568095Y-73525714D01*
G04 #@! TO.C,D1*
X120236980Y-75568495D02*
X119236980Y-75568495D01*
X119236980Y-75330400D01*
X119284600Y-75187542D01*
X119379838Y-75092304D01*
X119475076Y-75044685D01*
X119665552Y-74997066D01*
X119808409Y-74997066D01*
X119998885Y-75044685D01*
X120094123Y-75092304D01*
X120189361Y-75187542D01*
X120236980Y-75330400D01*
X120236980Y-75568495D01*
X120236980Y-74044685D02*
X120236980Y-74616114D01*
X120236980Y-74330400D02*
X119236980Y-74330400D01*
X119379838Y-74425638D01*
X119475076Y-74520876D01*
X119522695Y-74616114D01*
G04 #@! TO.C,D2*
X120236980Y-85668495D02*
X119236980Y-85668495D01*
X119236980Y-85430400D01*
X119284600Y-85287542D01*
X119379838Y-85192304D01*
X119475076Y-85144685D01*
X119665552Y-85097066D01*
X119808409Y-85097066D01*
X119998885Y-85144685D01*
X120094123Y-85192304D01*
X120189361Y-85287542D01*
X120236980Y-85430400D01*
X120236980Y-85668495D01*
X119332219Y-84716114D02*
X119284600Y-84668495D01*
X119236980Y-84573257D01*
X119236980Y-84335161D01*
X119284600Y-84239923D01*
X119332219Y-84192304D01*
X119427457Y-84144685D01*
X119522695Y-84144685D01*
X119665552Y-84192304D01*
X120236980Y-84763733D01*
X120236980Y-84144685D01*
G04 #@! TO.C,D3*
X120236980Y-95778495D02*
X119236980Y-95778495D01*
X119236980Y-95540400D01*
X119284600Y-95397542D01*
X119379838Y-95302304D01*
X119475076Y-95254685D01*
X119665552Y-95207066D01*
X119808409Y-95207066D01*
X119998885Y-95254685D01*
X120094123Y-95302304D01*
X120189361Y-95397542D01*
X120236980Y-95540400D01*
X120236980Y-95778495D01*
X119236980Y-94873733D02*
X119236980Y-94254685D01*
X119617933Y-94588019D01*
X119617933Y-94445161D01*
X119665552Y-94349923D01*
X119713171Y-94302304D01*
X119808409Y-94254685D01*
X120046504Y-94254685D01*
X120141742Y-94302304D01*
X120189361Y-94349923D01*
X120236980Y-94445161D01*
X120236980Y-94730876D01*
X120189361Y-94826114D01*
X120141742Y-94873733D01*
G04 #@! TO.C,D4*
X120236980Y-105888495D02*
X119236980Y-105888495D01*
X119236980Y-105650400D01*
X119284600Y-105507542D01*
X119379838Y-105412304D01*
X119475076Y-105364685D01*
X119665552Y-105317066D01*
X119808409Y-105317066D01*
X119998885Y-105364685D01*
X120094123Y-105412304D01*
X120189361Y-105507542D01*
X120236980Y-105650400D01*
X120236980Y-105888495D01*
X119570314Y-104459923D02*
X120236980Y-104459923D01*
X119189361Y-104698019D02*
X119903647Y-104936114D01*
X119903647Y-104317066D01*
G04 #@! TO.C,D7*
X130546980Y-75568495D02*
X129546980Y-75568495D01*
X129546980Y-75330400D01*
X129594600Y-75187542D01*
X129689838Y-75092304D01*
X129785076Y-75044685D01*
X129975552Y-74997066D01*
X130118409Y-74997066D01*
X130308885Y-75044685D01*
X130404123Y-75092304D01*
X130499361Y-75187542D01*
X130546980Y-75330400D01*
X130546980Y-75568495D01*
X129546980Y-74663733D02*
X129546980Y-73997066D01*
X130546980Y-74425638D01*
G04 #@! TO.C,D8*
X130546980Y-85668495D02*
X129546980Y-85668495D01*
X129546980Y-85430400D01*
X129594600Y-85287542D01*
X129689838Y-85192304D01*
X129785076Y-85144685D01*
X129975552Y-85097066D01*
X130118409Y-85097066D01*
X130308885Y-85144685D01*
X130404123Y-85192304D01*
X130499361Y-85287542D01*
X130546980Y-85430400D01*
X130546980Y-85668495D01*
X129975552Y-84525638D02*
X129927933Y-84620876D01*
X129880314Y-84668495D01*
X129785076Y-84716114D01*
X129737457Y-84716114D01*
X129642219Y-84668495D01*
X129594600Y-84620876D01*
X129546980Y-84525638D01*
X129546980Y-84335161D01*
X129594600Y-84239923D01*
X129642219Y-84192304D01*
X129737457Y-84144685D01*
X129785076Y-84144685D01*
X129880314Y-84192304D01*
X129927933Y-84239923D01*
X129975552Y-84335161D01*
X129975552Y-84525638D01*
X130023171Y-84620876D01*
X130070790Y-84668495D01*
X130166028Y-84716114D01*
X130356504Y-84716114D01*
X130451742Y-84668495D01*
X130499361Y-84620876D01*
X130546980Y-84525638D01*
X130546980Y-84335161D01*
X130499361Y-84239923D01*
X130451742Y-84192304D01*
X130356504Y-84144685D01*
X130166028Y-84144685D01*
X130070790Y-84192304D01*
X130023171Y-84239923D01*
X129975552Y-84335161D01*
G04 #@! TO.C,D9*
X130546980Y-95778495D02*
X129546980Y-95778495D01*
X129546980Y-95540400D01*
X129594600Y-95397542D01*
X129689838Y-95302304D01*
X129785076Y-95254685D01*
X129975552Y-95207066D01*
X130118409Y-95207066D01*
X130308885Y-95254685D01*
X130404123Y-95302304D01*
X130499361Y-95397542D01*
X130546980Y-95540400D01*
X130546980Y-95778495D01*
X130546980Y-94730876D02*
X130546980Y-94540400D01*
X130499361Y-94445161D01*
X130451742Y-94397542D01*
X130308885Y-94302304D01*
X130118409Y-94254685D01*
X129737457Y-94254685D01*
X129642219Y-94302304D01*
X129594600Y-94349923D01*
X129546980Y-94445161D01*
X129546980Y-94635638D01*
X129594600Y-94730876D01*
X129642219Y-94778495D01*
X129737457Y-94826114D01*
X129975552Y-94826114D01*
X130070790Y-94778495D01*
X130118409Y-94730876D01*
X130166028Y-94635638D01*
X130166028Y-94445161D01*
X130118409Y-94349923D01*
X130070790Y-94302304D01*
X129975552Y-94254685D01*
G04 #@! TO.C,D10*
X130546980Y-106364685D02*
X129546980Y-106364685D01*
X129546980Y-106126590D01*
X129594600Y-105983733D01*
X129689838Y-105888495D01*
X129785076Y-105840876D01*
X129975552Y-105793257D01*
X130118409Y-105793257D01*
X130308885Y-105840876D01*
X130404123Y-105888495D01*
X130499361Y-105983733D01*
X130546980Y-106126590D01*
X130546980Y-106364685D01*
X130546980Y-104840876D02*
X130546980Y-105412304D01*
X130546980Y-105126590D02*
X129546980Y-105126590D01*
X129689838Y-105221828D01*
X129785076Y-105317066D01*
X129832695Y-105412304D01*
X129546980Y-104221828D02*
X129546980Y-104126590D01*
X129594600Y-104031352D01*
X129642219Y-103983733D01*
X129737457Y-103936114D01*
X129927933Y-103888495D01*
X130166028Y-103888495D01*
X130356504Y-103936114D01*
X130451742Y-103983733D01*
X130499361Y-104031352D01*
X130546980Y-104126590D01*
X130546980Y-104221828D01*
X130499361Y-104317066D01*
X130451742Y-104364685D01*
X130356504Y-104412304D01*
X130166028Y-104459923D01*
X129927933Y-104459923D01*
X129737457Y-104412304D01*
X129642219Y-104364685D01*
X129594600Y-104317066D01*
X129546980Y-104221828D01*
G04 #@! TO.C,D13*
X144346980Y-76044685D02*
X143346980Y-76044685D01*
X143346980Y-75806590D01*
X143394600Y-75663733D01*
X143489838Y-75568495D01*
X143585076Y-75520876D01*
X143775552Y-75473257D01*
X143918409Y-75473257D01*
X144108885Y-75520876D01*
X144204123Y-75568495D01*
X144299361Y-75663733D01*
X144346980Y-75806590D01*
X144346980Y-76044685D01*
X144346980Y-74520876D02*
X144346980Y-75092304D01*
X144346980Y-74806590D02*
X143346980Y-74806590D01*
X143489838Y-74901828D01*
X143585076Y-74997066D01*
X143632695Y-75092304D01*
X143346980Y-74187542D02*
X143346980Y-73568495D01*
X143727933Y-73901828D01*
X143727933Y-73758971D01*
X143775552Y-73663733D01*
X143823171Y-73616114D01*
X143918409Y-73568495D01*
X144156504Y-73568495D01*
X144251742Y-73616114D01*
X144299361Y-73663733D01*
X144346980Y-73758971D01*
X144346980Y-74044685D01*
X144299361Y-74139923D01*
X144251742Y-74187542D01*
G04 #@! TO.C,D14*
X144346980Y-86144685D02*
X143346980Y-86144685D01*
X143346980Y-85906590D01*
X143394600Y-85763733D01*
X143489838Y-85668495D01*
X143585076Y-85620876D01*
X143775552Y-85573257D01*
X143918409Y-85573257D01*
X144108885Y-85620876D01*
X144204123Y-85668495D01*
X144299361Y-85763733D01*
X144346980Y-85906590D01*
X144346980Y-86144685D01*
X144346980Y-84620876D02*
X144346980Y-85192304D01*
X144346980Y-84906590D02*
X143346980Y-84906590D01*
X143489838Y-85001828D01*
X143585076Y-85097066D01*
X143632695Y-85192304D01*
X143680314Y-83763733D02*
X144346980Y-83763733D01*
X143299361Y-84001828D02*
X144013647Y-84239923D01*
X144013647Y-83620876D01*
G04 #@! TO.C,D15*
X144346980Y-96254685D02*
X143346980Y-96254685D01*
X143346980Y-96016590D01*
X143394600Y-95873733D01*
X143489838Y-95778495D01*
X143585076Y-95730876D01*
X143775552Y-95683257D01*
X143918409Y-95683257D01*
X144108885Y-95730876D01*
X144204123Y-95778495D01*
X144299361Y-95873733D01*
X144346980Y-96016590D01*
X144346980Y-96254685D01*
X144346980Y-94730876D02*
X144346980Y-95302304D01*
X144346980Y-95016590D02*
X143346980Y-95016590D01*
X143489838Y-95111828D01*
X143585076Y-95207066D01*
X143632695Y-95302304D01*
X143346980Y-93826114D02*
X143346980Y-94302304D01*
X143823171Y-94349923D01*
X143775552Y-94302304D01*
X143727933Y-94207066D01*
X143727933Y-93968971D01*
X143775552Y-93873733D01*
X143823171Y-93826114D01*
X143918409Y-93778495D01*
X144156504Y-93778495D01*
X144251742Y-93826114D01*
X144299361Y-93873733D01*
X144346980Y-93968971D01*
X144346980Y-94207066D01*
X144299361Y-94302304D01*
X144251742Y-94349923D01*
G04 #@! TO.C,D16*
X144346980Y-106364685D02*
X143346980Y-106364685D01*
X143346980Y-106126590D01*
X143394600Y-105983733D01*
X143489838Y-105888495D01*
X143585076Y-105840876D01*
X143775552Y-105793257D01*
X143918409Y-105793257D01*
X144108885Y-105840876D01*
X144204123Y-105888495D01*
X144299361Y-105983733D01*
X144346980Y-106126590D01*
X144346980Y-106364685D01*
X144346980Y-104840876D02*
X144346980Y-105412304D01*
X144346980Y-105126590D02*
X143346980Y-105126590D01*
X143489838Y-105221828D01*
X143585076Y-105317066D01*
X143632695Y-105412304D01*
X143346980Y-103983733D02*
X143346980Y-104174209D01*
X143394600Y-104269447D01*
X143442219Y-104317066D01*
X143585076Y-104412304D01*
X143775552Y-104459923D01*
X144156504Y-104459923D01*
X144251742Y-104412304D01*
X144299361Y-104364685D01*
X144346980Y-104269447D01*
X144346980Y-104078971D01*
X144299361Y-103983733D01*
X144251742Y-103936114D01*
X144156504Y-103888495D01*
X143918409Y-103888495D01*
X143823171Y-103936114D01*
X143775552Y-103983733D01*
X143727933Y-104078971D01*
X143727933Y-104269447D01*
X143775552Y-104364685D01*
X143823171Y-104412304D01*
X143918409Y-104459923D01*
G04 #@! TO.C,D18*
X154656980Y-76044685D02*
X153656980Y-76044685D01*
X153656980Y-75806590D01*
X153704600Y-75663733D01*
X153799838Y-75568495D01*
X153895076Y-75520876D01*
X154085552Y-75473257D01*
X154228409Y-75473257D01*
X154418885Y-75520876D01*
X154514123Y-75568495D01*
X154609361Y-75663733D01*
X154656980Y-75806590D01*
X154656980Y-76044685D01*
X154656980Y-74520876D02*
X154656980Y-75092304D01*
X154656980Y-74806590D02*
X153656980Y-74806590D01*
X153799838Y-74901828D01*
X153895076Y-74997066D01*
X153942695Y-75092304D01*
X154085552Y-73949447D02*
X154037933Y-74044685D01*
X153990314Y-74092304D01*
X153895076Y-74139923D01*
X153847457Y-74139923D01*
X153752219Y-74092304D01*
X153704600Y-74044685D01*
X153656980Y-73949447D01*
X153656980Y-73758971D01*
X153704600Y-73663733D01*
X153752219Y-73616114D01*
X153847457Y-73568495D01*
X153895076Y-73568495D01*
X153990314Y-73616114D01*
X154037933Y-73663733D01*
X154085552Y-73758971D01*
X154085552Y-73949447D01*
X154133171Y-74044685D01*
X154180790Y-74092304D01*
X154276028Y-74139923D01*
X154466504Y-74139923D01*
X154561742Y-74092304D01*
X154609361Y-74044685D01*
X154656980Y-73949447D01*
X154656980Y-73758971D01*
X154609361Y-73663733D01*
X154561742Y-73616114D01*
X154466504Y-73568495D01*
X154276028Y-73568495D01*
X154180790Y-73616114D01*
X154133171Y-73663733D01*
X154085552Y-73758971D01*
G04 #@! TO.C,D19*
X154656980Y-86144685D02*
X153656980Y-86144685D01*
X153656980Y-85906590D01*
X153704600Y-85763733D01*
X153799838Y-85668495D01*
X153895076Y-85620876D01*
X154085552Y-85573257D01*
X154228409Y-85573257D01*
X154418885Y-85620876D01*
X154514123Y-85668495D01*
X154609361Y-85763733D01*
X154656980Y-85906590D01*
X154656980Y-86144685D01*
X154656980Y-84620876D02*
X154656980Y-85192304D01*
X154656980Y-84906590D02*
X153656980Y-84906590D01*
X153799838Y-85001828D01*
X153895076Y-85097066D01*
X153942695Y-85192304D01*
X154656980Y-84144685D02*
X154656980Y-83954209D01*
X154609361Y-83858971D01*
X154561742Y-83811352D01*
X154418885Y-83716114D01*
X154228409Y-83668495D01*
X153847457Y-83668495D01*
X153752219Y-83716114D01*
X153704600Y-83763733D01*
X153656980Y-83858971D01*
X153656980Y-84049447D01*
X153704600Y-84144685D01*
X153752219Y-84192304D01*
X153847457Y-84239923D01*
X154085552Y-84239923D01*
X154180790Y-84192304D01*
X154228409Y-84144685D01*
X154276028Y-84049447D01*
X154276028Y-83858971D01*
X154228409Y-83763733D01*
X154180790Y-83716114D01*
X154085552Y-83668495D01*
G04 #@! TO.C,D20*
X154656980Y-96254685D02*
X153656980Y-96254685D01*
X153656980Y-96016590D01*
X153704600Y-95873733D01*
X153799838Y-95778495D01*
X153895076Y-95730876D01*
X154085552Y-95683257D01*
X154228409Y-95683257D01*
X154418885Y-95730876D01*
X154514123Y-95778495D01*
X154609361Y-95873733D01*
X154656980Y-96016590D01*
X154656980Y-96254685D01*
X153752219Y-95302304D02*
X153704600Y-95254685D01*
X153656980Y-95159447D01*
X153656980Y-94921352D01*
X153704600Y-94826114D01*
X153752219Y-94778495D01*
X153847457Y-94730876D01*
X153942695Y-94730876D01*
X154085552Y-94778495D01*
X154656980Y-95349923D01*
X154656980Y-94730876D01*
X153656980Y-94111828D02*
X153656980Y-94016590D01*
X153704600Y-93921352D01*
X153752219Y-93873733D01*
X153847457Y-93826114D01*
X154037933Y-93778495D01*
X154276028Y-93778495D01*
X154466504Y-93826114D01*
X154561742Y-93873733D01*
X154609361Y-93921352D01*
X154656980Y-94016590D01*
X154656980Y-94111828D01*
X154609361Y-94207066D01*
X154561742Y-94254685D01*
X154466504Y-94302304D01*
X154276028Y-94349923D01*
X154037933Y-94349923D01*
X153847457Y-94302304D01*
X153752219Y-94254685D01*
X153704600Y-94207066D01*
X153656980Y-94111828D01*
G04 #@! TO.C,D21*
X154656980Y-106364685D02*
X153656980Y-106364685D01*
X153656980Y-106126590D01*
X153704600Y-105983733D01*
X153799838Y-105888495D01*
X153895076Y-105840876D01*
X154085552Y-105793257D01*
X154228409Y-105793257D01*
X154418885Y-105840876D01*
X154514123Y-105888495D01*
X154609361Y-105983733D01*
X154656980Y-106126590D01*
X154656980Y-106364685D01*
X153752219Y-105412304D02*
X153704600Y-105364685D01*
X153656980Y-105269447D01*
X153656980Y-105031352D01*
X153704600Y-104936114D01*
X153752219Y-104888495D01*
X153847457Y-104840876D01*
X153942695Y-104840876D01*
X154085552Y-104888495D01*
X154656980Y-105459923D01*
X154656980Y-104840876D01*
X154656980Y-103888495D02*
X154656980Y-104459923D01*
X154656980Y-104174209D02*
X153656980Y-104174209D01*
X153799838Y-104269447D01*
X153895076Y-104364685D01*
X153942695Y-104459923D01*
G04 #@! TO.C,D22*
X168446980Y-76044685D02*
X167446980Y-76044685D01*
X167446980Y-75806590D01*
X167494600Y-75663733D01*
X167589838Y-75568495D01*
X167685076Y-75520876D01*
X167875552Y-75473257D01*
X168018409Y-75473257D01*
X168208885Y-75520876D01*
X168304123Y-75568495D01*
X168399361Y-75663733D01*
X168446980Y-75806590D01*
X168446980Y-76044685D01*
X167542219Y-75092304D02*
X167494600Y-75044685D01*
X167446980Y-74949447D01*
X167446980Y-74711352D01*
X167494600Y-74616114D01*
X167542219Y-74568495D01*
X167637457Y-74520876D01*
X167732695Y-74520876D01*
X167875552Y-74568495D01*
X168446980Y-75139923D01*
X168446980Y-74520876D01*
X167542219Y-74139923D02*
X167494600Y-74092304D01*
X167446980Y-73997066D01*
X167446980Y-73758971D01*
X167494600Y-73663733D01*
X167542219Y-73616114D01*
X167637457Y-73568495D01*
X167732695Y-73568495D01*
X167875552Y-73616114D01*
X168446980Y-74187542D01*
X168446980Y-73568495D01*
G04 #@! TO.C,D23*
X168446980Y-86144685D02*
X167446980Y-86144685D01*
X167446980Y-85906590D01*
X167494600Y-85763733D01*
X167589838Y-85668495D01*
X167685076Y-85620876D01*
X167875552Y-85573257D01*
X168018409Y-85573257D01*
X168208885Y-85620876D01*
X168304123Y-85668495D01*
X168399361Y-85763733D01*
X168446980Y-85906590D01*
X168446980Y-86144685D01*
X167542219Y-85192304D02*
X167494600Y-85144685D01*
X167446980Y-85049447D01*
X167446980Y-84811352D01*
X167494600Y-84716114D01*
X167542219Y-84668495D01*
X167637457Y-84620876D01*
X167732695Y-84620876D01*
X167875552Y-84668495D01*
X168446980Y-85239923D01*
X168446980Y-84620876D01*
X167446980Y-84287542D02*
X167446980Y-83668495D01*
X167827933Y-84001828D01*
X167827933Y-83858971D01*
X167875552Y-83763733D01*
X167923171Y-83716114D01*
X168018409Y-83668495D01*
X168256504Y-83668495D01*
X168351742Y-83716114D01*
X168399361Y-83763733D01*
X168446980Y-83858971D01*
X168446980Y-84144685D01*
X168399361Y-84239923D01*
X168351742Y-84287542D01*
G04 #@! TO.C,D24*
X168446980Y-96254685D02*
X167446980Y-96254685D01*
X167446980Y-96016590D01*
X167494600Y-95873733D01*
X167589838Y-95778495D01*
X167685076Y-95730876D01*
X167875552Y-95683257D01*
X168018409Y-95683257D01*
X168208885Y-95730876D01*
X168304123Y-95778495D01*
X168399361Y-95873733D01*
X168446980Y-96016590D01*
X168446980Y-96254685D01*
X167542219Y-95302304D02*
X167494600Y-95254685D01*
X167446980Y-95159447D01*
X167446980Y-94921352D01*
X167494600Y-94826114D01*
X167542219Y-94778495D01*
X167637457Y-94730876D01*
X167732695Y-94730876D01*
X167875552Y-94778495D01*
X168446980Y-95349923D01*
X168446980Y-94730876D01*
X167780314Y-93873733D02*
X168446980Y-93873733D01*
X167399361Y-94111828D02*
X168113647Y-94349923D01*
X168113647Y-93730876D01*
G04 #@! TO.C,D25*
X168446980Y-106364685D02*
X167446980Y-106364685D01*
X167446980Y-106126590D01*
X167494600Y-105983733D01*
X167589838Y-105888495D01*
X167685076Y-105840876D01*
X167875552Y-105793257D01*
X168018409Y-105793257D01*
X168208885Y-105840876D01*
X168304123Y-105888495D01*
X168399361Y-105983733D01*
X168446980Y-106126590D01*
X168446980Y-106364685D01*
X167542219Y-105412304D02*
X167494600Y-105364685D01*
X167446980Y-105269447D01*
X167446980Y-105031352D01*
X167494600Y-104936114D01*
X167542219Y-104888495D01*
X167637457Y-104840876D01*
X167732695Y-104840876D01*
X167875552Y-104888495D01*
X168446980Y-105459923D01*
X168446980Y-104840876D01*
X167446980Y-103936114D02*
X167446980Y-104412304D01*
X167923171Y-104459923D01*
X167875552Y-104412304D01*
X167827933Y-104317066D01*
X167827933Y-104078971D01*
X167875552Y-103983733D01*
X167923171Y-103936114D01*
X168018409Y-103888495D01*
X168256504Y-103888495D01*
X168351742Y-103936114D01*
X168399361Y-103983733D01*
X168446980Y-104078971D01*
X168446980Y-104317066D01*
X168399361Y-104412304D01*
X168351742Y-104459923D01*
G04 #@! TO.C,D26*
X178756980Y-76044685D02*
X177756980Y-76044685D01*
X177756980Y-75806590D01*
X177804600Y-75663733D01*
X177899838Y-75568495D01*
X177995076Y-75520876D01*
X178185552Y-75473257D01*
X178328409Y-75473257D01*
X178518885Y-75520876D01*
X178614123Y-75568495D01*
X178709361Y-75663733D01*
X178756980Y-75806590D01*
X178756980Y-76044685D01*
X177852219Y-75092304D02*
X177804600Y-75044685D01*
X177756980Y-74949447D01*
X177756980Y-74711352D01*
X177804600Y-74616114D01*
X177852219Y-74568495D01*
X177947457Y-74520876D01*
X178042695Y-74520876D01*
X178185552Y-74568495D01*
X178756980Y-75139923D01*
X178756980Y-74520876D01*
X177756980Y-73663733D02*
X177756980Y-73854209D01*
X177804600Y-73949447D01*
X177852219Y-73997066D01*
X177995076Y-74092304D01*
X178185552Y-74139923D01*
X178566504Y-74139923D01*
X178661742Y-74092304D01*
X178709361Y-74044685D01*
X178756980Y-73949447D01*
X178756980Y-73758971D01*
X178709361Y-73663733D01*
X178661742Y-73616114D01*
X178566504Y-73568495D01*
X178328409Y-73568495D01*
X178233171Y-73616114D01*
X178185552Y-73663733D01*
X178137933Y-73758971D01*
X178137933Y-73949447D01*
X178185552Y-74044685D01*
X178233171Y-74092304D01*
X178328409Y-74139923D01*
G04 #@! TO.C,D27*
X178756980Y-86144685D02*
X177756980Y-86144685D01*
X177756980Y-85906590D01*
X177804600Y-85763733D01*
X177899838Y-85668495D01*
X177995076Y-85620876D01*
X178185552Y-85573257D01*
X178328409Y-85573257D01*
X178518885Y-85620876D01*
X178614123Y-85668495D01*
X178709361Y-85763733D01*
X178756980Y-85906590D01*
X178756980Y-86144685D01*
X177852219Y-85192304D02*
X177804600Y-85144685D01*
X177756980Y-85049447D01*
X177756980Y-84811352D01*
X177804600Y-84716114D01*
X177852219Y-84668495D01*
X177947457Y-84620876D01*
X178042695Y-84620876D01*
X178185552Y-84668495D01*
X178756980Y-85239923D01*
X178756980Y-84620876D01*
X177756980Y-84287542D02*
X177756980Y-83620876D01*
X178756980Y-84049447D01*
G04 #@! TO.C,D28*
X178756980Y-96254685D02*
X177756980Y-96254685D01*
X177756980Y-96016590D01*
X177804600Y-95873733D01*
X177899838Y-95778495D01*
X177995076Y-95730876D01*
X178185552Y-95683257D01*
X178328409Y-95683257D01*
X178518885Y-95730876D01*
X178614123Y-95778495D01*
X178709361Y-95873733D01*
X178756980Y-96016590D01*
X178756980Y-96254685D01*
X177852219Y-95302304D02*
X177804600Y-95254685D01*
X177756980Y-95159447D01*
X177756980Y-94921352D01*
X177804600Y-94826114D01*
X177852219Y-94778495D01*
X177947457Y-94730876D01*
X178042695Y-94730876D01*
X178185552Y-94778495D01*
X178756980Y-95349923D01*
X178756980Y-94730876D01*
X178185552Y-94159447D02*
X178137933Y-94254685D01*
X178090314Y-94302304D01*
X177995076Y-94349923D01*
X177947457Y-94349923D01*
X177852219Y-94302304D01*
X177804600Y-94254685D01*
X177756980Y-94159447D01*
X177756980Y-93968971D01*
X177804600Y-93873733D01*
X177852219Y-93826114D01*
X177947457Y-93778495D01*
X177995076Y-93778495D01*
X178090314Y-93826114D01*
X178137933Y-93873733D01*
X178185552Y-93968971D01*
X178185552Y-94159447D01*
X178233171Y-94254685D01*
X178280790Y-94302304D01*
X178376028Y-94349923D01*
X178566504Y-94349923D01*
X178661742Y-94302304D01*
X178709361Y-94254685D01*
X178756980Y-94159447D01*
X178756980Y-93968971D01*
X178709361Y-93873733D01*
X178661742Y-93826114D01*
X178566504Y-93778495D01*
X178376028Y-93778495D01*
X178280790Y-93826114D01*
X178233171Y-93873733D01*
X178185552Y-93968971D01*
G04 #@! TO.C,D29*
X178756980Y-106364685D02*
X177756980Y-106364685D01*
X177756980Y-106126590D01*
X177804600Y-105983733D01*
X177899838Y-105888495D01*
X177995076Y-105840876D01*
X178185552Y-105793257D01*
X178328409Y-105793257D01*
X178518885Y-105840876D01*
X178614123Y-105888495D01*
X178709361Y-105983733D01*
X178756980Y-106126590D01*
X178756980Y-106364685D01*
X177852219Y-105412304D02*
X177804600Y-105364685D01*
X177756980Y-105269447D01*
X177756980Y-105031352D01*
X177804600Y-104936114D01*
X177852219Y-104888495D01*
X177947457Y-104840876D01*
X178042695Y-104840876D01*
X178185552Y-104888495D01*
X178756980Y-105459923D01*
X178756980Y-104840876D01*
X178756980Y-104364685D02*
X178756980Y-104174209D01*
X178709361Y-104078971D01*
X178661742Y-104031352D01*
X178518885Y-103936114D01*
X178328409Y-103888495D01*
X177947457Y-103888495D01*
X177852219Y-103936114D01*
X177804600Y-103983733D01*
X177756980Y-104078971D01*
X177756980Y-104269447D01*
X177804600Y-104364685D01*
X177852219Y-104412304D01*
X177947457Y-104459923D01*
X178185552Y-104459923D01*
X178280790Y-104412304D01*
X178328409Y-104364685D01*
X178376028Y-104269447D01*
X178376028Y-104078971D01*
X178328409Y-103983733D01*
X178280790Y-103936114D01*
X178185552Y-103888495D01*
G04 #@! TO.C,MK1*
X107885076Y-69552780D02*
X107885076Y-68552780D01*
X108218409Y-69267066D01*
X108551742Y-68552780D01*
X108551742Y-69552780D01*
X109027933Y-69552780D02*
X109027933Y-68552780D01*
X109599361Y-69552780D02*
X109170790Y-68981352D01*
X109599361Y-68552780D02*
X109027933Y-69124209D01*
X110551742Y-69552780D02*
X109980314Y-69552780D01*
X110266028Y-69552780D02*
X110266028Y-68552780D01*
X110170790Y-68695638D01*
X110075552Y-68790876D01*
X109980314Y-68838495D01*
G04 #@! TO.C,MK2*
X184685076Y-69552780D02*
X184685076Y-68552780D01*
X185018409Y-69267066D01*
X185351742Y-68552780D01*
X185351742Y-69552780D01*
X185827933Y-69552780D02*
X185827933Y-68552780D01*
X186399361Y-69552780D02*
X185970790Y-68981352D01*
X186399361Y-68552780D02*
X185827933Y-69124209D01*
X186780314Y-68648019D02*
X186827933Y-68600400D01*
X186923171Y-68552780D01*
X187161266Y-68552780D01*
X187256504Y-68600400D01*
X187304123Y-68648019D01*
X187351742Y-68743257D01*
X187351742Y-68838495D01*
X187304123Y-68981352D01*
X186732695Y-69552780D01*
X187351742Y-69552780D01*
G04 #@! TO.C,MK3*
X107885076Y-104292780D02*
X107885076Y-103292780D01*
X108218409Y-104007066D01*
X108551742Y-103292780D01*
X108551742Y-104292780D01*
X109027933Y-104292780D02*
X109027933Y-103292780D01*
X109599361Y-104292780D02*
X109170790Y-103721352D01*
X109599361Y-103292780D02*
X109027933Y-103864209D01*
X109932695Y-103292780D02*
X110551742Y-103292780D01*
X110218409Y-103673733D01*
X110361266Y-103673733D01*
X110456504Y-103721352D01*
X110504123Y-103768971D01*
X110551742Y-103864209D01*
X110551742Y-104102304D01*
X110504123Y-104197542D01*
X110456504Y-104245161D01*
X110361266Y-104292780D01*
X110075552Y-104292780D01*
X109980314Y-104245161D01*
X109932695Y-104197542D01*
G04 #@! TO.C,MK4*
X184685076Y-104292780D02*
X184685076Y-103292780D01*
X185018409Y-104007066D01*
X185351742Y-103292780D01*
X185351742Y-104292780D01*
X185827933Y-104292780D02*
X185827933Y-103292780D01*
X186399361Y-104292780D02*
X185970790Y-103721352D01*
X186399361Y-103292780D02*
X185827933Y-103864209D01*
X187256504Y-103626114D02*
X187256504Y-104292780D01*
X187018409Y-103245161D02*
X186780314Y-103959447D01*
X187399361Y-103959447D01*
G04 #@! TD*
M02*
