<?xml version="1.0" encoding="utf-8"?>
<!-- Generator: Fusion 360, Shaper Origin Export Add-In, Version 1.6.10  -->
<svg xmlns="http://www.w3.org/2000/svg" xmlns:xlink="http://www.w3.org/1999/xlink" xmlns:shaper="http://www.shapertools.com/namespaces/shaper" shaper:fusionaddin="version:1.6.10" width="13.081cm" height="4.572cm" version="1.1" x="0cm" y="0cm" viewBox="0 0 13.081 4.572" enable-background="new 0 0 13.081 4.572" xml:space="preserve"><path d="M-4.2545,0.5715 A0.3175,0.3175 0 0,0 -4.572,0.254 L-6.5405,0.254 -6.5405,-2.286 6.5405,-2.286 6.5405,-1.3716 3.6195,2.286 -4.2545,2.286 -4.2545,0.5715z" transform="matrix(1,0,0,-1,6.5405,2.286)" fill="rgb(0,0,0)" shaper:cutDepth="0.003175" stroke-linecap="round" stroke-linejoin="round" /><path d="M4.1172446,-2.1921969 L4.5741765,-2.1921969 A0.15875,0.15875 270 0,1 4.7329265,-2.0334469 L4.7329265,-1.0190596 A0.15875,0.15875 0 0,1 4.5741765,-0.8603096 L4.1172446,-0.8603096 A0.15875,0.15875 90 0,1 3.9584946,-1.0190596 L3.9584946,-2.0334469 A0.15875,0.15875 180 0,1 4.1172446,-2.1921969z" transform="matrix(1,0,0,-1,6.5405,2.286)" fill="rgb(255,255,255)" stroke="rgb(0,0,0)" stroke-width="0.0010cm" stroke-linecap="round" stroke-linejoin="round" shaper:cutDepth="0.003175" /><path d="M-0.7924299,-0.3256317 L-1.0303254,-0.3256317 A0.15875,0.15875 90 0,1 -1.1890754,-0.4843817 L-1.1890754,-0.6046183 A0.15875,0.15875 0 0,0 -1.3478254,-0.7633683 L-1.7538801,-0.7633683 A0.15875,0.15875 90 0,1 -1.9126301,-0.9221183 L-1.9126301,-1.4012589 A0.15875,0.15875 0 0,0 -2.0713801,-1.5600089 L-2.2785182,-1.5600089 A0.15875,0.15875 270 0,0 -2.4372682,-1.4012589 L-2.4372682,1.1078792 A0.15875,0.15875 180 0,0 -2.2785182,1.2666292 L-1.7171833,1.2666292 A0.15875,0.15875 270 0,1 -1.5584333,1.4253792 L-1.5584333,1.61465 A0.15875,0.15875 180 0,0 -1.3996833,1.7734 L-0.9308014,1.7734 A0.15875,0.15875 90 0,0 -0.7720514,1.61465 L-0.7720514,1.5430075 A0.15875,0.15875 180 0,1 -0.6133014,1.3842575 L-0.1877404,1.3842575 A0.15875,0.15875 90 0,0 -0.0289904,1.2255075 L-0.0289904,-0.0348534 A0.15875,0.15875 0 0,0 -0.1538766,-0.1899496 L-0.7585661,-0.3219778 A0.15875,0.15875 282.3167003 0,0 -0.7924299,-0.3256317z" transform="matrix(1,0,0,-1,6.5405,2.286)" fill="rgb(255,255,255)" stroke="rgb(0,0,0)" stroke-width="0.0010cm" stroke-linecap="round" stroke-linejoin="round" shaper:cutDepth="0.003175" /><path d="M-0.0749667,-2.2318303 L0.4033156,-2.2318303 A0.15875,0.15875 270 0,1 0.5620656,-2.0730803 L0.5620656,-1.0343389 A0.15875,0.15875 0 0,1 0.4033156,-0.8755889 L-0.0749667,-0.8755889 A0.15875,0.15875 90 0,1 -0.2337167,-1.0343389 L-0.2337167,-2.0730803 A0.15875,0.15875 180 0,1 -0.0749667,-2.2318303z" transform="matrix(1,0,0,-1,6.5405,2.286)" fill="rgb(255,255,255)" stroke="rgb(0,0,0)" stroke-width="0.0010cm" stroke-linecap="round" stroke-linejoin="round" shaper:cutDepth="0.003175" /><path d="M0.6341999,0.254 a0.1786001,0.1786001 0 1,1 0.3572002,0 a0.1786001,0.1786001 0 1,1 -0.3572002,0z" transform="matrix(1,0,0,-1,6.5405,2.286)" fill="rgb(255,255,255)" stroke="rgb(0,0,0)" stroke-width="0.0010cm" stroke-linecap="round" stroke-linejoin="round" shaper:cutDepth="0.003175" /><path d="M1.1303,0.254 a0.635,0.635 0 1,1 1.27,0 a0.635,0.635 0 1,1 -1.27,0z" transform="matrix(1,0,0,-1,6.5405,2.286)" fill="rgb(255,255,255)" stroke="rgb(0,0,0)" stroke-width="0.0010cm" stroke-linecap="round" stroke-linejoin="round" shaper:cutDepth="0.003175" /><path d="M-3.263265,-1.7145 a0.215265,0.215265 0 1,1 0.43053,0 a0.215265,0.215265 0 1,1 -0.43053,0z" transform="matrix(1,0,0,-1,6.5405,2.286)" fill="rgb(255,255,255)" stroke="rgb(0,0,0)" stroke-width="0.0010cm" stroke-linecap="round" stroke-linejoin="round" shaper:cutDepth="0.003175" /><path d="M-3.422015,1.397 a0.215265,0.215265 0 1,1 0.43053,0 a0.215265,0.215265 0 1,1 -0.43053,0z" transform="matrix(1,0,0,-1,6.5405,2.286)" fill="rgb(255,255,255)" stroke="rgb(0,0,0)" stroke-width="0.0010cm" stroke-linecap="round" stroke-linejoin="round" shaper:cutDepth="0.003175" /><path d="M5.360035,-1.7145 a0.215265,0.215265 0 1,1 0.43053,0 a0.215265,0.215265 0 1,1 -0.43053,0z" transform="matrix(1,0,0,-1,6.5405,2.286)" fill="rgb(255,255,255)" stroke="rgb(0,0,0)" stroke-width="0.0010cm" stroke-linecap="round" stroke-linejoin="round" shaper:cutDepth="0.003175" /></svg>