<?xml version="1.0" encoding="utf-8"?>
<!-- Generator: Fusion 360, Shaper Origin Export Add-In, Version 1.6.10  -->
<svg xmlns="http://www.w3.org/2000/svg" xmlns:xlink="http://www.w3.org/1999/xlink" xmlns:shaper="http://www.shapertools.com/namespaces/shaper" shaper:fusionaddin="version:1.6.10" width="13.081cm" height="4.572cm" version="1.1" x="0cm" y="0cm" viewBox="0 0 13.081 4.572" enable-background="new 0 0 13.081 4.572" xml:space="preserve"><path d="M-4.2545,0.5715 A0.3175,0.3175 0 0,0 -4.572,0.254 L-6.5405,0.254 -6.5405,-2.286 6.5405,-2.286 6.5405,-1.3716 6.0415167,-0.7467861 0.2938175,-0.7467861 0.2938175,2.286 -4.2545,2.286 -4.2545,0.5715z" transform="matrix(1,0,0,-1,6.5405,2.286)" fill="rgb(0,0,0)" shaper:cutDepth="0.0015875" stroke-linecap="round" stroke-linejoin="round" /><path d="M-0.9822474,1.4416568 L-0.9822474,1.4416568 -0.9732926,1.4499016 -0.9650334,1.4588386 -0.9575999,1.4684782 -0.9511854,1.4788204 -0.9460683,1.489863 -0.9423816,1.5014598 -0.9401319,1.5134215 -0.9394283,1.5255709 -0.9393565,1.5255304 -0.9393565,1.5255304 -0.9402012,1.5388401 -0.9424035,1.5519929 -0.9462351,1.5647666 -0.9515675,1.5769894 -0.9584257,1.5884268 -0.9665536,1.5990013 -0.9757308,1.6086761 -0.9857678,1.6174597 -0.9857678,1.6174597 -0.9985193,1.6266525 -1.0119123,1.6348819 -1.0259322,1.6419918 -1.0404677,1.6479764 -1.0554296,1.652798 -1.0707425,1.6563478 -1.0863104,1.6585265 -1.1020118,1.659273 -1.1020118,1.659273 -1.1178684,1.6585822 -1.1336367,1.6567761 -1.1492037,1.6536823 -1.1645012,1.6494515 -1.1793986,1.6439773 -1.1938146,1.6373383 -1.2075977,1.6294685 -1.2206266,1.6204053 -1.2206266,1.6204053 -1.2310424,1.6116752 -1.2406904,1.6021071 -1.2492994,1.5915901 -1.2566225,1.5801452 -1.2624845,1.5678844 -1.2666288,1.5549453 -1.269099,1.5415822 -1.2698399,1.5280136 -1.2698399,1.5280136 -1.2692805,1.5167547 -1.2675598,1.5056144 -1.2646152,1.4947333 -1.2605726,1.484211 -1.255345,1.4742241 -1.2490533,1.4648702 -1.241875,1.4561793 -1.2339896,1.4481228 -1.2339896,1.4481228 -1.222023,1.4378934 -1.2152802,1.4337988 -1.2115491,1.4326115 -1.2076228,1.4321734 -1.2076228,1.4321734 -1.1996765,1.4334615 -1.1960274,1.4351823 -1.1927986,1.4376023 -1.1901344,1.440632 -1.1881962,1.4441701 -1.1871215,1.4480591 -1.1867161,1.4520742 -1.1867161,1.4520742 -1.1871779,1.457539 -1.1890586,1.4626826 -1.1924845,1.4669603 -1.1967025,1.4704664 -1.1967025,1.4704664 -1.2092378,1.4813439 -1.21478,1.4875241 -1.219712,1.4942042 -1.2238008,1.5014285 -1.2267614,1.5091805 -1.2285722,1.5172846 -1.2290324,1.5255709 -1.2290324,1.5255709 -1.2287375,1.5337009 -1.2274454,1.5417333 -1.2252157,1.5495557 -1.2219703,1.5570169 -1.217903,1.5640607 -1.2130634,1.5706024 -1.2076269,1.5766528 -1.2016597,1.5821842 -1.2016597,1.5821842 -1.1911785,1.5903278 -1.1799871,1.5974645 -1.1682179,1.6036013 -1.155971,1.6087197 -1.1433394,1.6127973 -1.130415,1.6158194 -1.1172799,1.6177307 -1.1040234,1.6183937 -1.1040234,1.6183937 -1.0829794,1.6166688 -1.0725651,1.6148931 -1.0622981,1.6124213 -1.0522436,1.6091822 -1.0424635,1.6051955 -1.033026,1.6004528 -1.02398,1.5949999 -1.0153892,1.5888563 -1.0073346,1.5820227 -0.9999571,1.5744673 -0.9934625,1.5661365 -0.9880951,1.5570463 -0.9840402,1.5472946 -0.9813845,1.5370735 -0.9802358,1.5265767 -0.9802358,1.5265767 -0.9807022,1.5190867 -0.9821214,1.5117164 -0.9844718,1.5045908 -0.9877696,1.4978485 -0.9918153,1.4915271 -0.9965087,1.4856708 -1.0074648,1.4754236 -1.0074648,1.4754236 -1.0128977,1.4710077 -1.0178875,1.4660945 -1.0199078,1.4632274 -1.0213425,1.4600174 -1.0221928,1.4530801 -1.0221928,1.4530801 -1.0217116,1.4490247 -1.0205079,1.4451229 -1.0184753,1.441582 -1.0157985,1.4384981 -1.0125874,1.4359763 -1.0089195,1.4341797 -1.0049933,1.4330636 -1.0009269,1.4326763 -1.0009269,1.4326763 -0.9956522,1.4332595 -0.9907473,1.4352949 -0.9822474,1.4416568z" transform="matrix(1,0,0,-1,6.5405,2.286)" fill="rgb(104,104,104)" fill-rule="nonzero" shaper:cutDepth="0.0000762" stroke-linecap="round" stroke-linejoin="round" /><path d="M-0.9592573,1.1981767 L-0.9592573,1.1981767 -0.9659066,1.1909434 -0.9732424,1.1844036 -0.9811035,1.178509 -0.989428,1.1732879 -0.9981201,1.1687036 -1.0071165,1.1647504 -1.025731,1.1584659 -1.0448968,1.1541303 -1.0643467,1.1513319 -1.0839425,1.1498429 -1.1035924,1.1494663 -1.1035924,1.1494663 -1.1221494,1.1499055 -1.1406557,1.1512933 -1.1590373,1.1538942 -1.1771474,1.1579438 -1.1948153,1.1636416 -1.2117231,1.1712811 -1.2197714,1.17592 -1.2274543,1.1811353 -1.2415333,1.1932194 -1.2415333,1.1932194 -1.2477645,1.2005228 -1.2532244,1.2084194 -1.2580282,1.2167318 -1.262015,1.2254647 -1.2652971,1.2344881 -1.2676749,1.2437876 -1.2692874,1.2532531 -1.2698399,1.2628365 -1.2698399,1.2628365 -1.2689135,1.2748204 -1.2664959,1.2865968 -1.2628415,1.2980477 -1.25801,1.3090557 -1.2521358,1.3195441 -1.2452656,1.3294075 -1.2374136,1.3385104 -1.2285295,1.3466069 -1.2285295,1.3466069 -1.2140789,1.3556853 -1.1985801,1.3628518 -1.1824469,1.3684209 -1.1658782,1.3725401 -1.1490601,1.3754694 -1.132097,1.3774064 -1.1150577,1.3784454 -1.0979885,1.3787931 -1.0979885,1.3787931 -1.080639,1.3783161 -1.0633381,1.3769515 -1.0461681,1.374416 -1.0292189,1.3706835 -1.0126329,1.3655704 -0.9966801,1.3587487 -0.9816443,1.3500753 -0.9679504,1.3394225 -0.9679504,1.3394225 -0.9608475,1.331603 -0.954515,1.3231475 -0.9489719,1.3141546 -0.9442354,1.3047117 -0.940388,1.2948734 -0.937418,1.2847356 -0.9355362,1.2743407 -0.9347585,1.2638061 -0.9348302,1.2638423 -0.9348302,1.2638423 -0.9352944,1.2549365 -0.9366189,1.2461168 -0.9387268,1.2374518 -0.941567,1.2289975 -0.9450606,1.220792 -0.949197,1.2128907 -0.9539553,1.205348 -0.9592573,1.1981767z M-0.9958978,1.3086013 L-0.9958978,1.3086013 -1.0066287,1.3170968 -1.0186474,1.3236705 -1.031415,1.3286152 -1.0446118,1.3322863 -1.0580476,1.3349418 -1.0716356,1.3366671 -1.0989943,1.3379137 -1.0989943,1.3379137 -1.1256188,1.336996 -1.1388773,1.335685 -1.1520434,1.3336546 -1.1650358,1.3307037 -1.1776839,1.3265363 -1.1898452,1.3210865 -1.2011568,1.3140615 -1.2011568,1.3140615 -1.2069435,1.3093963 -1.2122002,1.304143 -1.2168807,1.298368 -1.2209055,1.2921209 -1.224262,1.2854868 -1.2267543,1.2784883 -1.2284544,1.2712502 -1.2290324,1.2638423 -1.2290324,1.2638423 -1.2285367,1.2573594 -1.227243,1.2509871 -1.2226176,1.2388454 -1.2158763,1.2277395 -1.2071917,1.2180776 -1.2071917,1.2180776 -1.1958707,1.2098695 -1.1834182,1.2034953 -1.1702697,1.1987218 -1.156724,1.1952285 -1.1429429,1.1928176 -1.1290345,1.1913077 -1.1010778,1.1902738 -1.1010778,1.1902738 -1.0864585,1.1905307 -1.071876,1.1915408 -1.0573801,1.1934637 -1.0430608,1.1964094 -1.0290881,1.2007116 -1.0157219,1.2066236 -1.0032969,1.2143325 -0.9923775,1.2240406 -0.9923775,1.2240406 -0.9857072,1.2327884 -0.9805887,1.2425257 -0.9770275,1.2529204 -0.9759869,1.2583229 -0.9755661,1.2638061 -0.9756378,1.2638423 -0.9756378,1.2638423 -0.9761437,1.2701046 -0.9773817,1.2762651 -0.9816273,1.2880814 -0.9877714,1.2990343 -0.9916051,1.3040129 -0.9958978,1.3086013z" transform="matrix(1,0,0,-1,6.5405,2.286)" fill="rgb(104,104,104)" fill-rule="nonzero" shaper:cutDepth="0.0000762" stroke-linecap="round" stroke-linejoin="round" /><path d="M-0.9394283,0.8845047 L-0.9394283,0.8845047 -0.9396858,0.8893737 -0.9408385,0.8941085 -0.9432434,0.8983386 -0.9469302,0.901519 -0.9513805,0.9034973 -0.9561426,0.9045589 -0.9658669,0.9051959 -1.1801564,0.9051242 -0.9534825,1.0533253 -0.9534825,1.0533253 -0.9481649,1.0573454 -0.9434953,1.0620897 -0.9402985,1.0679345 -0.9394283,1.0745328 -0.9394283,1.0745328 -0.9402455,1.0802641 -0.9426798,1.0855076 -0.9464331,1.0899261 -0.9514981,1.0927094 -0.9514981,1.0927094 -0.9582052,1.0936365 -0.9650048,1.0937152 -1.2432048,1.0936434 -1.2432048,1.0936434 -1.2516098,1.0934935 -1.2557798,1.0929756 -1.2597817,1.0917035 -1.2597817,1.0917035 -1.2640563,1.0883635 -1.2672763,1.0839981 -1.2691495,1.0789107 -1.2698399,1.0735269 -1.2698399,1.0735269 -1.2694494,1.0691069 -1.2682856,1.0648267 -1.2661337,1.0609485 -1.2630595,1.0577607 -1.2592337,1.0555058 -1.2550629,1.0540026 -1.246275,1.0528358 -1.0285401,1.0528358 -1.2567152,0.9051242 -1.2567152,0.9051242 -1.2618829,0.9011698 -1.2661497,0.8962817 -1.2690251,0.8904406 -1.2698399,0.8840018 -1.2698399,0.8840018 -1.2695068,0.8797113 -1.268362,0.8755651 -1.2662567,0.8718175 -1.2631639,0.8688288 -1.2594106,0.8667325 -1.2553108,0.8654145 -1.2467779,0.8643884 -0.9639906,0.8643166 -0.9639906,0.8643166 -0.9548383,0.8650877 -0.9503954,0.8662876 -0.9462819,0.8683346 -0.9429118,0.8714537 -0.9406367,0.8754436 -0.9395471,0.8799076 -0.9394283,0.8845047z" transform="matrix(1,0,0,-1,6.5405,2.286)" fill="rgb(104,104,104)" fill-rule="nonzero" shaper:cutDepth="0.0000762" stroke-linecap="round" stroke-linejoin="round" /><path d="M-1.2592788,0.6824069 L-1.2592788,0.6824069 -1.2557745,0.6811906 -1.252114,0.6805861 -1.2446944,0.6803953 -0.9801641,0.6803953 -0.9801641,0.6138515 -0.9801641,0.6138515 -0.97956,0.6042793 -0.9784811,0.5995971 -0.9766128,0.5951808 -0.9737455,0.5913295 -0.9698674,0.588522 -0.9653344,0.5869471 -0.9605505,0.5865667 -0.9605505,0.5865667 -0.9558109,0.586959 -0.9512609,0.5883302 -0.9471573,0.5907164 -0.9439527,0.5942306 -0.9417168,0.5984183 -0.9403596,0.6029803 -0.9394283,0.6124306 -0.9393565,0.7857602 -0.9393565,0.7857602 -0.9400225,0.7956901 -0.9410735,0.8005605 -0.9427964,0.8052338 -0.9455396,0.8093806 -0.9493966,0.8125247 -0.9540797,0.8141901 -0.9590417,0.8146003 -0.9590417,0.8146003 -0.9638342,0.8141989 -0.9684312,0.8127948 -0.9725527,0.8103417 -0.9757375,0.8067297 -0.9779879,0.8024943 -0.9793162,0.7978648 -0.9802358,0.7883053 -0.9801641,0.7212029 -1.24218,0.7212029 -1.24218,0.7212029 -1.2557585,0.7207717 -1.2557585,0.7207717 -1.2588204,0.7196396 -1.2616068,0.7179357 -1.2640466,0.7157697 -1.2660439,0.7131834 -1.26884,0.7073053 -1.2698399,0.7008709 -1.2698399,0.7008709 -1.2692266,0.695307 -1.2672621,0.6900757 -1.2638281,0.6856611 -1.2592788,0.6824069z" transform="matrix(1,0,0,-1,6.5405,2.286)" fill="rgb(104,104,104)" fill-rule="nonzero" shaper:cutDepth="0.0000762" stroke-linecap="round" stroke-linejoin="round" /><path d="M-1.235211,0.3211022 L-1.235211,0.3211022 -1.2413502,0.3171303 -1.2448552,0.3160601 -1.2485022,0.3157139 -1.2485022,0.3157139 -1.252472,0.3161204 -1.2562703,0.3173383 -1.2597399,0.3193068 -1.2627162,0.3219641 -1.2651064,0.3251581 -1.2668003,0.3287702 -1.2681157,0.3366206 -1.2681157,0.3366206 -1.267618,0.3423962 -1.2667118,0.3451637 -1.2652496,0.347668 -1.261362,0.3519648 -1.2567935,0.3555294 -1.1318991,0.4479092 -1.1318991,0.491876 -1.243042,0.491876 -1.243042,0.491876 -1.2526792,0.4925444 -1.2573798,0.4936688 -1.2617869,0.495644 -1.2656176,0.4985912 -1.2683063,0.5025903 -1.2696225,0.5072371 -1.2698399,0.5120642 -1.2698399,0.5120642 -1.2688768,0.5187921 -1.2659927,0.524935 -1.2638265,0.5275663 -1.2611729,0.5296988 -1.2581676,0.5313034 -1.2548963,0.5322524 -1.2548963,0.5322524 -1.2479909,0.5327468 -1.2410596,0.5326836 -0.9680223,0.5327553 -0.9680223,0.5327553 -0.96192,0.5327403 -0.9558858,0.5318453 -0.9502221,0.5295856 -0.9454765,0.525764 -0.942178,0.5206384 -0.9402851,0.5148371 -0.9394671,0.5087931 -0.9393565,0.5026908 -0.9394283,0.4186667 -0.9394283,0.4186667 -0.939901,0.4089367 -0.9410324,0.3992639 -0.9428418,0.3896903 -0.9455196,0.3803272 -0.9490911,0.3712642 -0.9535269,0.362593 -0.9588481,0.3544346 -0.965018,0.3468985 -0.9719159,0.3400211 -0.9795197,0.333935 -0.9877717,0.328761 -0.99658,0.3246039 -1.0057717,0.3213828 -1.01525,0.3191366 -1.0248984,0.3178044 -1.0346219,0.3172226 -1.0346219,0.3172226 -1.0516123,0.3185611 -1.0599704,0.3202425 -1.068183,0.3225384 -1.076129,0.3256256 -1.0837728,0.3294047 -1.0909842,0.3339521 -1.0977833,0.3390968 -1.1041037,0.3448192 -1.1098161,0.3511484 -1.1149029,0.3579911 -1.1193815,0.3652452 -1.1230887,0.372924 -1.1261634,0.3808763 -1.1304417,0.3973726 -1.2327683,0.323042 -1.2327683,0.323042 -1.235211,0.3211022z M-1.0910915,0.4206783 L-1.0910915,0.4206783 -1.0903677,0.4043616 -1.0886923,0.3963639 -1.0854876,0.3888513 -1.0854876,0.3888513 -1.0815667,0.3821431 -1.0766873,0.3760967 -1.0710697,0.3707298 -1.0647305,0.3662363 -1.057824,0.3626771 -1.0504926,0.3601031 -1.0428766,0.3585679 -1.0351248,0.3580301 -1.0351248,0.3580301 -1.0272648,0.3586522 -1.0195508,0.3602812 -1.01219,0.3631054 -1.0052651,0.3668752 -0.998947,0.3715914 -0.993328,0.3771219 -0.9886114,0.3834395 -0.9848338,0.39036 -0.9848338,0.39036 -0.982336,0.3967291 -0.9809024,0.4034189 -0.9801641,0.4170819 -0.9801641,0.491876 -1.0910915,0.491876 -1.0910915,0.4206783z" transform="matrix(1,0,0,-1,6.5405,2.286)" fill="rgb(104,104,104)" fill-rule="nonzero" shaper:cutDepth="0.0000762" stroke-linecap="round" stroke-linejoin="round" /><path d="M-0.9592573,0.0854531 L-0.9592573,0.0854531 -0.9659066,0.0782198 -0.9732424,0.07168 -0.9811035,0.0657853 -0.989428,0.0605643 -0.9981201,0.05598 -1.0071165,0.0520268 -1.025731,0.0457423 -1.0448968,0.0414067 -1.0643467,0.0386082 -1.0839425,0.0371193 -1.1035924,0.0367427 -1.1035924,0.0367427 -1.1221494,0.0371819 -1.1406557,0.0385697 -1.1590373,0.0411705 -1.1771474,0.0452202 -1.1948153,0.050918 -1.2117231,0.0585575 -1.2197714,0.0631963 -1.2274543,0.0684117 -1.2415333,0.0804958 -1.2415333,0.0804958 -1.2477645,0.0877992 -1.2532244,0.0956958 -1.2580282,0.1040082 -1.262015,0.1127411 -1.2652971,0.1217645 -1.2676749,0.131064 -1.2692874,0.1405295 -1.2698399,0.1501129 -1.2698399,0.1501129 -1.2689135,0.1620968 -1.2664959,0.1738732 -1.2628415,0.185324 -1.25801,0.1963321 -1.2521358,0.2068205 -1.2452656,0.2166839 -1.2374136,0.2257868 -1.2285295,0.2338833 -1.2285295,0.2338833 -1.2140789,0.2429617 -1.1985801,0.2501282 -1.1824469,0.2556973 -1.1658782,0.2598165 -1.1490601,0.2627458 -1.132097,0.2646828 -1.1150577,0.2657218 -1.0979885,0.2660695 -1.0979885,0.2660695 -1.080639,0.2655924 -1.0633381,0.2642279 -1.0461681,0.2616924 -1.0292189,0.2579599 -1.0126329,0.2528468 -0.9966801,0.2460251 -0.9816443,0.2373516 -0.9679504,0.2266989 -0.9679504,0.2266989 -0.9608475,0.2188794 -0.954515,0.2104239 -0.9489719,0.201431 -0.9442354,0.1919881 -0.940388,0.1821498 -0.937418,0.172012 -0.9355362,0.1616171 -0.9347585,0.1510825 -0.9348302,0.1511187 -0.9348302,0.1511187 -0.9352944,0.1422129 -0.9366189,0.1333932 -0.9387268,0.1247282 -0.941567,0.1162739 -0.9450606,0.1080684 -0.949197,0.1001671 -0.9539553,0.0926244 -0.9592573,0.0854531z M-0.9958978,0.1958777 L-0.9958978,0.1958777 -1.0066287,0.2043732 -1.0186474,0.2109469 -1.031415,0.2158916 -1.0446118,0.2195627 -1.0580476,0.2222182 -1.0716356,0.2239435 -1.0989943,0.2251901 -1.0989943,0.2251901 -1.1256188,0.2242724 -1.1388773,0.2229614 -1.1520434,0.220931 -1.1650358,0.21798 -1.1776839,0.2138127 -1.1898452,0.2083629 -1.2011568,0.2013378 -1.2011568,0.2013378 -1.2069435,0.1966727 -1.2122002,0.1914194 -1.2168807,0.1856444 -1.2209055,0.1793973 -1.224262,0.1727632 -1.2267543,0.1657647 -1.2284544,0.1585266 -1.2290324,0.1511187 -1.2290324,0.1511187 -1.2285367,0.1446358 -1.227243,0.1382635 -1.2226176,0.1261217 -1.2158763,0.1150159 -1.2071917,0.1053539 -1.2071917,0.1053539 -1.1958707,0.0971458 -1.1834182,0.0907717 -1.1702697,0.0859981 -1.156724,0.0825049 -1.1429429,0.080094 -1.1290345,0.0785841 -1.1010778,0.0775502 -1.1010778,0.0775502 -1.0864585,0.0778071 -1.071876,0.0788172 -1.0573801,0.0807401 -1.0430608,0.0836858 -1.0290881,0.087988 -1.0157219,0.0939 -1.0032969,0.1016089 -0.9923775,0.111317 -0.9923775,0.111317 -0.9857072,0.1200647 -0.9805887,0.1298021 -0.9770275,0.1401968 -0.9759869,0.1455993 -0.9755661,0.1510825 -0.9756378,0.1511187 -0.9756378,0.1511187 -0.9761437,0.157381 -0.9773817,0.1635415 -0.9816273,0.1753578 -0.9877714,0.1863107 -0.9916051,0.1912893 -0.9958978,0.1958777z" transform="matrix(1,0,0,-1,6.5405,2.286)" fill="rgb(104,104,104)" fill-rule="nonzero" shaper:cutDepth="0.0000762" stroke-linecap="round" stroke-linejoin="round" /><path d="M-1.2346362,-0.2371276 L-1.2346362,-0.2371276 -1.2336814,-0.2314648 -1.2336304,-0.2257043 -1.2336304,-0.0598878 -0.9615477,-0.0598878 -0.9615477,-0.0598878 -0.9534694,-0.0590132 -0.9495825,-0.0578206 -0.9459435,-0.0559916 -0.9429699,-0.0532349 -0.9408796,-0.0497463 -0.9397691,-0.045836 -0.9394283,-0.0417831 -0.9394283,-0.0417831 -0.939777,-0.0377494 -0.9409635,-0.0338812 -0.943135,-0.0304634 -0.9460776,-0.0276977 -0.9496722,-0.0258279 -0.9535318,-0.0246014 -0.9615563,-0.0236065 -1.2453851,-0.0236782 -1.2453851,-0.0236782 -1.2502509,-0.0235599 -1.255068,-0.0242005 -1.259672,-0.025776 -1.2637107,-0.0284768 -1.2667463,-0.0322695 -1.2686304,-0.0367543 -1.2695791,-0.0415222 -1.2698399,-0.0463811 -1.2698399,-0.2222745 -1.2698399,-0.2222745 -1.269843,-0.2295111 -1.2697566,-0.2331277 -1.268906,-0.2366246 -1.268906,-0.2366246 -1.2663006,-0.2417583 -1.2623005,-0.2458894 -1.2571803,-0.2485036 -1.2515196,-0.2495566 -1.2515196,-0.2495566 -1.246017,-0.2486319 -1.2410732,-0.2460483 -1.237091,-0.2421348 -1.2346362,-0.2371276z" transform="matrix(1,0,0,-1,6.5405,2.286)" fill="rgb(104,104,104)" fill-rule="nonzero" shaper:cutDepth="0.0000762" stroke-linecap="round" stroke-linejoin="round" /><path d="M-0.3937206,1.361766 L-0.3937206,1.361766 -0.395985,1.3576284 -0.3968419,1.3529736 -0.3971691,1.3435176 -0.3970973,1.3074519 -0.4487549,1.3074519 -0.4487549,1.3074519 -0.4636555,1.308421 -0.4709406,1.3100801 -0.4778502,1.312912 -0.4778502,1.312912 -0.4837041,1.31658 -0.4889544,1.3210697 -0.4934243,1.3263358 -0.4970846,1.3321959 -0.4999438,1.3384829 -0.5018958,1.3451122 -0.5030566,1.3519207 -0.5034267,1.3588204 -0.5034267,1.3588204 -0.5031285,1.3669203 -0.501833,1.3749213 -0.4995036,1.3826847 -0.4963243,1.3901396 -0.4922161,1.3971265 -0.4873427,1.403605 -0.4818874,1.4095981 -0.4759104,1.4150745 -0.4759104,1.4150745 -0.4653886,1.4230073 -0.4542204,1.4300016 -0.4424778,1.4359812 -0.4302871,1.440985 -0.4177305,1.4449822 -0.4049103,1.4480298 -0.3918651,1.4498925 -0.3787051,1.4505655 -0.3787051,1.4505655 -0.3683127,1.4501507 -0.3579724,1.4490329 -0.347757,1.4470784 -0.337723,1.4443419 -0.3279139,1.4408834 -0.3184256,1.4366252 -0.3092915,1.4316506 -0.3006104,1.4259229 -0.3006104,1.4259229 -0.2916923,1.4201744 -0.2832112,1.4138035 -0.2753702,1.4066544 -0.26837,1.3986831 -0.2625427,1.3898198 -0.2581639,1.3801603 -0.2554901,1.3698944 -0.2546301,1.3593233 -0.2546301,1.3593233 -0.255158,1.3513837 -0.256892,1.3436142 -0.2598145,1.3362169 -0.2638958,1.3293826 -0.2687962,1.3231124 -0.2742583,1.3173198 -0.2863853,1.3070207 -0.2863853,1.3070207 -0.296315,1.2984605 -0.300007,1.2930375 -0.300898,1.2899039 -0.3011852,1.286617 -0.3011852,1.286617 -0.3005713,1.2824304 -0.2990514,1.2784807 -0.2966793,1.2749783 -0.2936824,1.2719869 -0.2902523,1.2695109 -0.2864185,1.267713 -0.2823401,1.2665907 -0.2781232,1.2662132 -0.2781232,1.2662132 -0.2704498,1.2673416 -0.2634479,1.2707511 -0.2571144,1.2752639 -0.2511816,1.2802947 -0.2511816,1.2802947 -0.2432507,1.2884951 -0.2359716,1.2972776 -0.2295206,1.3066857 -0.2239522,1.3166432 -0.2195896,1.3271813 -0.2163927,1.3381313 -0.2144384,1.3493701 -0.2138226,1.3607602 -0.2138226,1.3607602 -0.2141896,1.3691248 -0.2152128,1.3774347 -0.2169324,1.3856288 -0.21924,1.3936773 -0.2221027,1.4015454 -0.2255328,1.4091832 -0.2296038,1.4164994 -0.2342264,1.4234802 -0.2342264,1.4234802 -0.2408981,1.4314083 -0.2480661,1.4388912 -0.2556879,1.4459106 -0.2637347,1.4524391 -0.2721665,1.4584617 -0.2809395,1.463976 -0.2993159,1.4735408 -0.3185909,1.4811357 -0.3385297,1.4867559 -0.3589602,1.4901957 -0.3796391,1.4914449 -0.3796391,1.4914449 -0.3952349,1.4907202 -0.4107234,1.4887545 -0.4260102,1.4855819 -0.4409877,1.4811733 -0.4555586,1.4755655 -0.4696696,1.4688844 -0.4831438,1.4609978 -0.4959549,1.4520742 -0.4959549,1.4520742 -0.5061237,1.4435272 -0.5154891,1.4341133 -0.5238886,1.4238203 -0.5310556,1.4126422 -0.5368602,1.4006937 -0.540978,1.3880704 -0.5434785,1.3750254 -0.5442343,1.361766 -0.5442343,1.361766 -0.5434898,1.3496829 -0.5414217,1.3377562 -0.5380268,1.3261357 -0.5333597,1.3149664 -0.5275276,1.3043574 -0.5205063,1.2944978 -0.5122884,1.2856084 -0.5029957,1.277852 -0.5029957,1.277852 -0.4935665,1.2724965 -0.4833503,1.2688643 -0.4726642,1.2670736 -0.4618289,1.2667161 -0.383981,1.2666443 -0.383981,1.2666443 -0.3726121,1.2673996 -0.3671447,1.2690132 -0.3623251,1.2720432 -0.3589387,1.2766119 -0.3571295,1.2820235 -0.3563411,1.2876651 -0.3562897,1.2933703 -0.3562897,1.3415002 -0.3562897,1.3415002 -0.3564551,1.3497847 -0.3569697,1.3538995 -0.3583014,1.3578146 -0.3583014,1.3578146 -0.3612248,1.3630052 -0.3655343,1.3671117 -0.3708871,1.3697236 -0.3767653,1.3706747 -0.3767653,1.3706747 -0.3816872,1.3700148 -0.3863414,1.3682959 -0.3904332,1.3654859 -0.3937206,1.361766z" transform="matrix(1,0,0,-1,6.5405,2.286)" fill="rgb(104,104,104)" fill-rule="nonzero" shaper:cutDepth="0.0000762" stroke-linecap="round" stroke-linejoin="round" /><path d="M-0.3378976,1.0559251 L-0.3378976,1.1700856 -0.2545584,1.1700856 -0.2545584,1.0141547 -0.2545584,1.0141547 -0.2539727,1.0043501 -0.252778,0.9995725 -0.2507449,0.9951006 -0.2476602,0.9912698 -0.2435575,0.9885773 -0.2388493,0.9871629 -0.233939,0.9868828 -0.233939,0.9868828 -0.2292998,0.9871439 -0.2248302,0.9884023 -0.2208492,0.9907814 -0.2177775,0.9942663 -0.2157311,0.9984289 -0.214525,1.0029225 -0.2138226,1.012172 -0.2137508,1.1838506 -0.2137508,1.1838506 -0.2145016,1.1950846 -0.2161177,1.2004798 -0.219148,1.2052205 -0.2237464,1.2084529 -0.2291129,1.210175 -0.2346962,1.2109082 -0.2403331,1.210965 -0.5171916,1.2108932 -0.5171916,1.2108932 -0.5228111,1.2110242 -0.5283957,1.2104801 -0.5338193,1.2089981 -0.538556,1.2060055 -0.541788,1.2014261 -0.5435094,1.1960813 -0.5442343,1.1848855 -0.5442343,1.0141547 -0.5442343,1.0141547 -0.5437561,1.0039442 -0.5427385,0.9989262 -0.5409404,0.9941418 -0.5380817,0.9898997 -0.5340692,0.9867501 -0.5292252,0.9851212 -0.5241179,0.9848711 -0.5241179,0.9848711 -0.5179748,0.9858882 -0.5123184,0.9884702 -0.5078711,0.9928171 -0.5049355,0.998306 -0.5049355,0.998306 -0.5038699,1.0015369 -0.5035314,1.0049276 -0.5034267,1.0117409 -0.5034267,1.1700856 -0.3787052,1.1700856 -0.3787052,1.0578551 -0.3787052,1.0578551 -0.3781885,1.0480832 -0.3770876,1.0433103 -0.3752034,1.0387877 -0.3722177,1.0349188 -0.3681726,1.0321678 -0.3634808,1.0307806 -0.3585887,1.0305641 -0.3585887,1.0305641 -0.3538835,1.0308156 -0.349333,1.0320248 -0.3452474,1.0343594 -0.3420583,1.0378207 -0.339913,1.0420124 -0.3386172,1.0465442 -0.3378976,1.0559251z" transform="matrix(1,0,0,-1,6.5405,2.286)" fill="rgb(104,104,104)" fill-rule="nonzero" shaper:cutDepth="0.0000762" stroke-linecap="round" stroke-linejoin="round" /><path d="M-0.2138226,0.7258727 L-0.2138226,0.7258727 -0.2140801,0.7307416 -0.2152328,0.7354764 -0.2176377,0.7397066 -0.2213246,0.7428869 -0.2257749,0.7448652 -0.230537,0.7459268 -0.2402613,0.7465638 -0.4545508,0.7464921 -0.2278768,0.8946932 -0.2278768,0.8946932 -0.2225593,0.8987133 -0.2178897,0.9034576 -0.2146928,0.9093025 -0.2138226,0.9159007 -0.2138226,0.9159007 -0.2146398,0.9216321 -0.2170742,0.9268755 -0.2208275,0.931294 -0.2258924,0.9340773 -0.2258924,0.9340773 -0.2325995,0.9350044 -0.2393991,0.9350831 -0.5175991,0.9350113 -0.5175991,0.9350113 -0.5260041,0.9348614 -0.5301741,0.9343435 -0.5341761,0.9330714 -0.5341761,0.9330714 -0.5384507,0.9297315 -0.5416706,0.925366 -0.5435438,0.9202787 -0.5442343,0.9148949 -0.5442343,0.9148949 -0.5438437,0.9104749 -0.54268,0.9061946 -0.540528,0.9023165 -0.5374538,0.8991286 -0.533628,0.8968737 -0.5294573,0.8953706 -0.5206693,0.8942037 -0.3029344,0.8942037 -0.5311095,0.7464921 -0.5311095,0.7464921 -0.5362772,0.7425378 -0.540544,0.7376497 -0.5434194,0.7318086 -0.5442343,0.7253697 -0.5442343,0.7253697 -0.5439012,0.7210792 -0.5427564,0.716933 -0.540651,0.7131855 -0.5375582,0.7101967 -0.5338049,0.7081004 -0.5297052,0.7067824 -0.5211723,0.7057563 -0.2383849,0.7056845 -0.2383849,0.7056845 -0.2292326,0.7064556 -0.2247897,0.7076555 -0.2206762,0.7097025 -0.2173061,0.7128216 -0.215031,0.7168115 -0.2139414,0.7212755 -0.2138226,0.7258727z" transform="matrix(1,0,0,-1,6.5405,2.286)" fill="rgb(104,104,104)" fill-rule="nonzero" shaper:cutDepth="0.0000762" stroke-linecap="round" stroke-linejoin="round" /><path d="M-0.5336732,0.3858339 L-0.5336732,0.3858339 -0.5301689,0.3846176 -0.5265084,0.3840131 -0.5190888,0.3838222 -0.2545584,0.3838222 -0.2545584,0.3172785 -0.2545584,0.3172785 -0.2539544,0.3077063 -0.2528754,0.303024 -0.2510071,0.2986078 -0.2481398,0.2947564 -0.2442618,0.291949 -0.2397287,0.2903741 -0.2349448,0.2899936 -0.2349448,0.2899936 -0.2302053,0.290386 -0.2256552,0.2917572 -0.2215516,0.2941433 -0.218347,0.2976576 -0.2161111,0.3018453 -0.214754,0.3064073 -0.2138226,0.3158576 -0.2137508,0.4891872 -0.2137508,0.4891872 -0.2144168,0.4991171 -0.2154679,0.5039875 -0.2171907,0.5086607 -0.2199339,0.5128076 -0.2237909,0.5159517 -0.2284741,0.5176171 -0.2334361,0.5180273 -0.2334361,0.5180273 -0.2382285,0.5176259 -0.2428255,0.5162218 -0.2469471,0.5137687 -0.2501318,0.5101566 -0.2523822,0.5059212 -0.2537106,0.5012918 -0.2546301,0.4917323 -0.2545584,0.4246298 -0.5165744,0.4246298 -0.5165744,0.4246298 -0.5301528,0.4241987 -0.5301528,0.4241987 -0.5332147,0.4230666 -0.5360012,0.4213626 -0.5384409,0.4191967 -0.5404382,0.4166104 -0.5432343,0.4107323 -0.5442343,0.4042978 -0.5442343,0.4042978 -0.543621,0.398734 -0.5416565,0.3935026 -0.5382224,0.389088 -0.5336732,0.3858339z" transform="matrix(1,0,0,-1,6.5405,2.286)" fill="rgb(104,104,104)" fill-rule="nonzero" shaper:cutDepth="0.0000762" stroke-linecap="round" stroke-linejoin="round" /><path d="M-0.536044,0.2018408 L-0.536044,0.2018408 -0.5289343,0.2001244 -0.5216033,0.199901 -0.2359218,0.199901 -0.2359218,0.199901 -0.2278147,0.2006385 -0.2238956,0.2017674 -0.2202649,0.203609 -0.2172008,0.2062967 -0.2151375,0.2098007 -0.2140237,0.2137194 -0.2138226,0.2177902 -0.2138226,0.2177902 -0.2143858,0.2224089 -0.2160132,0.2267668 -0.2186408,0.2306039 -0.2220128,0.2338114 -0.2220128,0.2338114 -0.2256494,0.2353405 -0.2295572,0.2359417 -0.2374593,0.2361823 -0.5215806,0.2361105 -0.5215806,0.2361105 -0.5279746,0.2360936 -0.5311536,0.2357723 -0.5341761,0.2347454 -0.5341761,0.2347454 -0.5384279,0.2318158 -0.541569,0.2277015 -0.543494,0.2229076 -0.5442343,0.2177902 -0.5442343,0.2177902 -0.5436717,0.2131727 -0.5420463,0.2088171 -0.5395589,0.204879 -0.536044,0.2018408z" transform="matrix(1,0,0,-1,6.5405,2.286)" fill="rgb(104,104,104)" fill-rule="nonzero" shaper:cutDepth="0.0000762" stroke-linecap="round" stroke-linejoin="round" /><path d="M-0.3378976,-0.0108182 L-0.3378976,0.1033423 -0.2545584,0.1033423 -0.2545584,-0.0525886 -0.2545584,-0.0525886 -0.2539727,-0.0623932 -0.252778,-0.0671708 -0.2507449,-0.0716427 -0.2476602,-0.0754735 -0.2435575,-0.078166 -0.2388493,-0.0795804 -0.233939,-0.0798605 -0.233939,-0.0798605 -0.2292998,-0.0795994 -0.2248302,-0.078341 -0.2208492,-0.0759619 -0.2177775,-0.072477 -0.2157311,-0.0683144 -0.214525,-0.0638208 -0.2138226,-0.0545713 -0.2137508,0.1171073 -0.2137508,0.1171073 -0.2145016,0.1283413 -0.2161177,0.1337365 -0.219148,0.1384772 -0.2237464,0.1417096 -0.2291129,0.1434317 -0.2346962,0.1441649 -0.2403331,0.1442217 -0.5171916,0.1441499 -0.5171916,0.1441499 -0.5228111,0.1442809 -0.5283957,0.1437368 -0.5338193,0.1422548 -0.538556,0.1392622 -0.541788,0.1346828 -0.5435094,0.129338 -0.5442343,0.1181422 -0.5442343,-0.0525886 -0.5442343,-0.0525886 -0.5437561,-0.0627991 -0.5427385,-0.0678171 -0.5409404,-0.0726015 -0.5380817,-0.0768436 -0.5340692,-0.0799932 -0.5292252,-0.0816221 -0.5241179,-0.0818722 -0.5241179,-0.0818722 -0.5179748,-0.0808551 -0.5123184,-0.0782731 -0.5078711,-0.0739262 -0.5049355,-0.0684373 -0.5049355,-0.0684373 -0.5038699,-0.0652064 -0.5035314,-0.0618157 -0.5034267,-0.0550024 -0.5034267,0.1033423 -0.3787052,0.1033423 -0.3787052,-0.0088882 -0.3787052,-0.0088882 -0.3781885,-0.0186601 -0.3770876,-0.023433 -0.3752034,-0.0279556 -0.3722177,-0.0318245 -0.3681726,-0.0345755 -0.3634808,-0.0359627 -0.3585887,-0.0361792 -0.3585887,-0.0361792 -0.3538835,-0.0359277 -0.349333,-0.0347185 -0.3452474,-0.0323839 -0.3420583,-0.0289226 -0.339913,-0.0247309 -0.3386172,-0.0201991 -0.3378976,-0.0108182z" transform="matrix(1,0,0,-1,6.5405,2.286)" fill="rgb(104,104,104)" fill-rule="nonzero" shaper:cutDepth="0.0000762" stroke-linecap="round" stroke-linejoin="round" /><path d="M0.394199,-2.0379019 L0.394199,-2.0379019 0.3935942,-2.0316773 0.3924628,-2.0287505 0.3907852,-2.0260943 0.3862606,-2.0217839 0.3811234,-2.0182165 0.2382715,-1.9332214 0.3793046,-1.8482285 0.3793046,-1.8482285 0.3843882,-1.8449941 0.3890751,-1.8412173 0.3909537,-1.8388504 0.3923162,-1.8361486 0.3931932,-1.8302002 0.3931932,-1.8302002 0.3929395,-1.8254125 0.3917236,-1.8207783 0.3893301,-1.8166331 0.3857854,-1.8134098 0.3815076,-1.8112594 0.3768761,-1.8100026 0.3673293,-1.8092935 0.0907827,-1.8093653 0.0907827,-1.8093653 0.0811434,-1.8099389 0.0764415,-1.8110434 0.0719918,-1.8129318 0.0681474,-1.815844 0.0654242,-1.8198239 0.0640152,-1.8244415 0.0637874,-1.8292662 0.0637874,-1.8292662 0.0645534,-1.8349782 0.066633,-1.8403407 0.0700576,-1.8449881 0.0748514,-1.8481612 0.0748514,-1.8481612 0.0821728,-1.8499423 0.0897231,-1.8501729 0.2958766,-1.8501729 0.1925847,-1.9118377 0.1925847,-1.9118377 0.1868194,-1.9154932 0.1816785,-1.9199807 0.1796906,-1.9227614 0.1783921,-1.9259369 0.1776605,-1.9327219 0.1776605,-1.9327219 0.1777605,-1.9365541 0.1785014,-1.9403156 0.1800636,-1.9438104 0.1825378,-1.9467336 0.1885724,-1.9514624 0.1950468,-1.9555684 0.2958766,-2.0162766 0.0887963,-2.0162766 0.0887963,-2.0162766 0.0812601,-2.0164494 0.0738456,-2.0177136 0.0738456,-2.0177136 0.0693806,-2.0211818 0.0662604,-2.0259126 0.064466,-2.0312707 0.0637874,-2.036896 0.0637874,-2.036896 0.0641076,-2.0411657 0.0651969,-2.0453045 0.0672399,-2.0490646 0.0701863,-2.0521617 0.0738571,-2.0543691 0.0778739,-2.0558429 0.0863465,-2.0570124 0.3726756,-2.0570842 0.3726756,-2.0570842 0.3810519,-2.0564549 0.3850744,-2.05525 0.3887088,-2.0531387 0.3915274,-2.0500317 0.3933124,-2.0462309 0.3940993,-2.0421038 0.394199,-2.0379019z" transform="matrix(1,0,0,-1,6.5405,2.286)" fill="rgb(104,104,104)" fill-rule="nonzero" shaper:cutDepth="0.0000762" stroke-linecap="round" stroke-linejoin="round" /><path d="M0.0984163,-1.7542608 L0.0984163,-1.7542608 0.0922771,-1.7582327 0.0887721,-1.7593029 0.0851251,-1.7596491 0.0851251,-1.7596491 0.0811553,-1.7592426 0.077357,-1.7580247 0.0738874,-1.7560562 0.0709111,-1.7533989 0.0685209,-1.7502049 0.066827,-1.7465928 0.0655116,-1.7387424 0.0655116,-1.7387424 0.0660093,-1.7329668 0.0669155,-1.7301993 0.0683777,-1.727695 0.0722653,-1.7233982 0.0768338,-1.7198336 0.2017283,-1.6274538 0.2017283,-1.583487 0.0905853,-1.583487 0.0905853,-1.583487 0.0809481,-1.5828186 0.0762475,-1.5816942 0.0718404,-1.579719 0.0680097,-1.5767717 0.065321,-1.5727727 0.0640048,-1.5681259 0.0637874,-1.5632988 0.0637874,-1.5632988 0.0647505,-1.5565709 0.0676346,-1.550428 0.0698008,-1.5477967 0.0724544,-1.5456642 0.0754597,-1.5440596 0.078731,-1.5431106 0.078731,-1.5431106 0.0856364,-1.5426162 0.0925677,-1.5426794 0.365605,-1.5426077 0.365605,-1.5426077 0.3717073,-1.5426227 0.3777415,-1.5435177 0.3834052,-1.5457774 0.3881508,-1.549599 0.3914493,-1.5547246 0.3933422,-1.5605259 0.3941602,-1.5665699 0.3942708,-1.5726722 0.394199,-1.6566963 0.394199,-1.6566963 0.3937263,-1.6664263 0.3925949,-1.6760991 0.3907855,-1.6856727 0.3881077,-1.6950358 0.3845362,-1.7040988 0.3801004,-1.71277 0.3747792,-1.7209283 0.3686093,-1.7284645 0.3617114,-1.7353419 0.3541076,-1.741428 0.3458556,-1.746602 0.3370473,-1.7507591 0.3278556,-1.7539802 0.3183773,-1.7562264 0.3087289,-1.7575585 0.2990054,-1.7581404 0.2990054,-1.7581404 0.282015,-1.7568019 0.2736569,-1.7551205 0.2654443,-1.7528246 0.2574983,-1.7497374 0.2498545,-1.7459583 0.2426431,-1.7414109 0.235844,-1.7362661 0.2295236,-1.7305438 0.2238112,-1.7242146 0.2187244,-1.7173719 0.2142458,-1.7101178 0.2105386,-1.702439 0.2074639,-1.6944866 0.2031856,-1.6779903 0.100859,-1.752321 0.100859,-1.752321 0.0984163,-1.7542608z M0.2425358,-1.6546847 L0.2425358,-1.6546847 0.2432596,-1.6710014 0.244935,-1.6789991 0.2481397,-1.6865117 0.2481397,-1.6865117 0.2520606,-1.6932199 0.25694,-1.6992663 0.2625576,-1.7046332 0.2688968,-1.7091266 0.2758033,-1.7126859 0.2831347,-1.7152599 0.2907507,-1.7167951 0.2985025,-1.7173329 0.2985025,-1.7173329 0.3063625,-1.7167108 0.3140765,-1.7150818 0.3214373,-1.7122576 0.3283622,-1.7084878 0.3346803,-1.7037716 0.3402993,-1.6982411 0.3450159,-1.6919235 0.3487935,-1.6850029 0.3487935,-1.6850029 0.3512913,-1.6786339 0.3527249,-1.6719441 0.3534632,-1.6582811 0.3534632,-1.583487 0.2425358,-1.583487 0.2425358,-1.6546847z" transform="matrix(1,0,0,-1,6.5405,2.286)" fill="rgb(104,104,104)" fill-rule="nonzero" shaper:cutDepth="0.0000762" stroke-linecap="round" stroke-linejoin="round" /><path d="M0.37437,-1.4381461 L0.37437,-1.4381461 0.3677207,-1.4453794 0.3603849,-1.4519192 0.3525238,-1.4578139 0.3441993,-1.4630349 0.3355073,-1.4676192 0.3265108,-1.4715724 0.3078963,-1.4778569 0.2887305,-1.4821925 0.2692806,-1.484991 0.2496848,-1.4864799 0.230035,-1.4868565 0.230035,-1.4868565 0.2114779,-1.4864173 0.1929716,-1.4850295 0.17459,-1.4824287 0.1564799,-1.478379 0.138812,-1.4726812 0.1219042,-1.4650417 0.1138559,-1.4604029 0.106173,-1.4551875 0.092094,-1.4431034 0.092094,-1.4431034 0.0858628,-1.4358 0.0804029,-1.4279034 0.0755991,-1.419591 0.0716123,-1.4108581 0.0683302,-1.4018347 0.0659524,-1.3925352 0.0643399,-1.3830697 0.0637874,-1.3734863 0.0637874,-1.3734863 0.0647138,-1.3615024 0.0671314,-1.349726 0.0707858,-1.3382752 0.0756173,-1.3272671 0.0814915,-1.3167787 0.0883617,-1.3069153 0.0962137,-1.2978124 0.1050978,-1.2897159 0.1050978,-1.2897159 0.1195484,-1.2806375 0.1350472,-1.273471 0.1511804,-1.2679019 0.1677491,-1.2637827 0.1845672,-1.2608534 0.2015303,-1.2589164 0.2185696,-1.2578774 0.2356388,-1.2575297 0.2356388,-1.2575297 0.2529883,-1.2580068 0.2702892,-1.2593713 0.2874592,-1.2619069 0.3044084,-1.2656393 0.3209944,-1.2707525 0.3369472,-1.2775742 0.351983,-1.2862476 0.3656769,-1.2969004 0.3656769,-1.2969004 0.3727798,-1.3047198 0.3791123,-1.3131753 0.3846554,-1.3221682 0.3893919,-1.3316111 0.3932393,-1.3414494 0.3962093,-1.3515872 0.3980911,-1.3619821 0.3988688,-1.3725168 0.3987971,-1.3724805 0.3987971,-1.3724805 0.3983329,-1.3813863 0.3970084,-1.390206 0.3949005,-1.3988711 0.3920603,-1.4073254 0.3885667,-1.4155308 0.3844303,-1.4234321 0.379672,-1.4309748 0.37437,-1.4381461z M0.3377295,-1.3277215 L0.3377295,-1.3277215 0.3269986,-1.319226 0.3149799,-1.3126524 0.3022123,-1.3077076 0.2890155,-1.3040365 0.2755797,-1.301381 0.2619917,-1.2996557 0.234633,-1.2984091 0.234633,-1.2984091 0.2080085,-1.2993268 0.19475,-1.3006378 0.1815839,-1.3026682 0.1685915,-1.3056192 0.1559434,-1.3097865 0.1437821,-1.3152363 0.1324705,-1.3222614 0.1324705,-1.3222614 0.1266838,-1.3269265 0.1214271,-1.3321798 0.1167466,-1.3379548 0.1127218,-1.3442019 0.1093653,-1.350836 0.106873,-1.3578345 0.1051729,-1.3650726 0.1045949,-1.3724805 0.1045949,-1.3724805 0.1050906,-1.3789634 0.1063843,-1.3853357 0.1110097,-1.3974775 0.117751,-1.4085833 0.1264356,-1.4182453 0.1264356,-1.4182453 0.1377566,-1.4264534 0.1502091,-1.4328275 0.1633576,-1.4376011 0.1769033,-1.4410943 0.1906844,-1.4435052 0.2045928,-1.4450151 0.2325495,-1.446049 0.2325495,-1.446049 0.2471688,-1.4457922 0.2617513,-1.444782 0.2762472,-1.4428591 0.2905665,-1.4399134 0.3045392,-1.4356112 0.3179054,-1.4296992 0.3303304,-1.4219904 0.3412498,-1.4122822 0.3412498,-1.4122822 0.3479201,-1.4035345 0.3530386,-1.3937971 0.3565998,-1.3834024 0.3576404,-1.3779999 0.3580612,-1.3725168 0.3579895,-1.3724805 0.3579895,-1.3724805 0.3574836,-1.3662182 0.3562456,-1.3600577 0.352,-1.3482414 0.3458559,-1.3372886 0.3420222,-1.3323099 0.3377295,-1.3277215z" transform="matrix(1,0,0,-1,6.5405,2.286)" fill="rgb(104,104,104)" fill-rule="nonzero" shaper:cutDepth="0.0000762" stroke-linecap="round" stroke-linejoin="round" /><path d="M0.394199,-1.1862602 L0.394199,-1.1862602 0.3939415,-1.1813913 0.3927888,-1.1766565 0.390384,-1.1724263 0.3866971,-1.169246 0.3822468,-1.1672677 0.3774847,-1.1662061 0.3677604,-1.1655691 0.1534709,-1.1656408 0.3801448,-1.0174397 0.3801448,-1.0174397 0.3854624,-1.0134196 0.390132,-1.0086753 0.3933288,-1.0028304 0.394199,-0.9962322 0.394199,-0.9962322 0.3933818,-0.9905008 0.3909475,-0.9852573 0.3871942,-0.9808389 0.3821292,-0.9780556 0.3821292,-0.9780556 0.3754221,-0.9771284 0.3686225,-0.9770498 0.0904225,-0.9771216 0.0904225,-0.9771216 0.0820175,-0.9772715 0.0778475,-0.9777894 0.0738456,-0.9790614 0.0738456,-0.9790614 0.069571,-0.9824014 0.066351,-0.9867668 0.0644778,-0.9918542 0.0637874,-0.997238 0.0637874,-0.997238 0.0641779,-1.001658 0.0653417,-1.0059383 0.0674937,-1.0098164 0.0705678,-1.0130043 0.0743936,-1.0152592 0.0785644,-1.0167623 0.0873523,-1.0179292 0.3050872,-1.0179292 0.0769121,-1.1656408 0.0769121,-1.1656408 0.0717444,-1.1695951 0.0674776,-1.1744832 0.0646022,-1.1803243 0.0637874,-1.1867631 0.0637874,-1.1867631 0.0641205,-1.1910537 0.0652653,-1.1951999 0.0673706,-1.1989474 0.0704634,-1.2019362 0.0742167,-1.2040324 0.0783165,-1.2053505 0.0868494,-1.2063766 0.3696367,-1.2064484 0.3696367,-1.2064484 0.378789,-1.2056772 0.3832319,-1.2044774 0.3873454,-1.2024303 0.3907155,-1.1993113 0.3929906,-1.1953214 0.3940802,-1.1908573 0.394199,-1.1862602z" transform="matrix(1,0,0,-1,6.5405,2.286)" fill="rgb(104,104,104)" fill-rule="nonzero" shaper:cutDepth="0.0000762" stroke-linecap="round" stroke-linejoin="round" /><path d="M4.2703368,-2.0803618 L4.2703368,-2.0803618 4.2738411,-2.0815781 4.2775016,-2.0821826 4.2849212,-2.0823734 4.5494516,-2.0823734 4.5494516,-2.1489172 4.5494516,-2.1489172 4.5500556,-2.1584894 4.5511346,-2.1631716 4.5530029,-2.1675879 4.5558702,-2.1714392 4.5597482,-2.1742467 4.5642813,-2.1758216 4.5690652,-2.176202 4.5690652,-2.176202 4.5738047,-2.1758097 4.5783547,-2.1744385 4.5824584,-2.1720523 4.585663,-2.1685381 4.5878989,-2.1643504 4.589256,-2.1597884 4.5901874,-2.1503381 4.5902592,-1.9770085 4.5902592,-1.9770085 4.5895931,-1.9670786 4.5885421,-1.9622081 4.5868193,-1.9575349 4.584076,-1.9533881 4.580219,-1.950244 4.5755359,-1.9485786 4.5705739,-1.9481684 4.5705739,-1.9481684 4.5657815,-1.9485698 4.5611844,-1.9499739 4.5570629,-1.952427 4.5538782,-1.956039 4.5516277,-1.9602744 4.5502994,-1.9649039 4.5493798,-1.9744634 4.5494516,-2.0415658 4.2874356,-2.0415658 4.2874356,-2.0415658 4.2738572,-2.041997 4.2738572,-2.041997 4.2707953,-2.0431291 4.2680088,-2.044833 4.2655691,-2.046999 4.2635718,-2.0495853 4.2607757,-2.0554634 4.2597757,-2.0618978 4.2597757,-2.0618978 4.260389,-2.0674617 4.2623535,-2.072693 4.2657875,-2.0771076 4.2703368,-2.0803618z" transform="matrix(1,0,0,-1,6.5405,2.286)" fill="rgb(104,104,104)" fill-rule="nonzero" shaper:cutDepth="0.0000762" stroke-linecap="round" stroke-linejoin="round" /><path d="M4.4661124,-1.8286914 L4.4661124,-1.7145309 4.5494516,-1.7145309 4.5494516,-1.8704618 4.5494516,-1.8704618 4.5500373,-1.8802664 4.551232,-1.885044 4.553265,-1.8895159 4.5563497,-1.8933468 4.5604525,-1.8960392 4.5651607,-1.8974536 4.570071,-1.8977337 4.570071,-1.8977337 4.5747102,-1.8974726 4.5791797,-1.8962142 4.5831608,-1.8938351 4.5862324,-1.8903503 4.5882788,-1.8861877 4.589485,-1.8816941 4.5901874,-1.8724446 4.5902592,-1.700766 4.5902592,-1.700766 4.5895084,-1.6895319 4.5878922,-1.6841368 4.584862,-1.679396 4.5802635,-1.6761637 4.5748971,-1.6744415 4.5693138,-1.6737083 4.5636769,-1.6736516 4.2868183,-1.6737233 4.2868183,-1.6737233 4.2811988,-1.6735923 4.2756143,-1.6741365 4.2701906,-1.6756184 4.265454,-1.678611 4.262222,-1.6831904 4.2605005,-1.6885352 4.2597757,-1.699731 4.2597757,-1.8704618 4.2597757,-1.8704618 4.2602538,-1.8806723 4.2612715,-1.8856903 4.2630696,-1.8904747 4.2659283,-1.8947168 4.2699407,-1.8978664 4.2747847,-1.8994953 4.2798921,-1.8997454 4.2798921,-1.8997454 4.2860351,-1.8987283 4.2916916,-1.8961463 4.2961389,-1.8917994 4.2990745,-1.8863105 4.2990745,-1.8863105 4.30014,-1.8830797 4.3004786,-1.8796889 4.3005832,-1.8728756 4.3005832,-1.7145309 4.4253048,-1.7145309 4.4253048,-1.8267615 4.4253048,-1.8267615 4.4258215,-1.8365333 4.4269224,-1.8413062 4.4288066,-1.8458288 4.4317923,-1.8496977 4.4358373,-1.8524487 4.4405292,-1.853836 4.4454212,-1.8540524 4.4454212,-1.8540524 4.4501265,-1.8538009 4.454677,-1.8525917 4.4587625,-1.8502572 4.4619516,-1.8467958 4.464097,-1.8426042 4.4653928,-1.8380723 4.4661124,-1.8286914z" transform="matrix(1,0,0,-1,6.5405,2.286)" fill="rgb(104,104,104)" fill-rule="nonzero" shaper:cutDepth="0.0000762" stroke-linecap="round" stroke-linejoin="round" /><path d="M4.5901874,-1.527233 L4.5902592,-1.5243208 4.588701,-1.4923177 4.588701,-1.4923177 4.5864289,-1.4757101 4.5843696,-1.4675801 4.5816114,-1.459661 4.5780782,-1.4520553 4.5737655,-1.4448643 4.5688183,-1.4380922 4.5632091,-1.4318592 4.5570381,-1.4261804 4.5503158,-1.4211674 4.5431138,-1.4168719 4.5355186,-1.4133179 4.5275794,-1.4106163 4.5194305,-1.4086385 4.5111222,-1.407497 4.5027529,-1.4069657 4.5027529,-1.4069657 4.4924645,-1.4076614 4.4823132,-1.4094725 4.4724559,-1.4124999 4.4629952,-1.4166024 4.4540803,-1.4217854 4.4458548,-1.4280026 4.4384838,-1.4352143 4.4322019,-1.4433908 4.4322019,-1.4433908 4.4270347,-1.4520772 4.4230529,-1.4613716 4.4201154,-1.4710442 4.417833,-1.4808935 4.4064505,-1.5343195 4.4064505,-1.5343195 4.4042545,-1.54384 4.4009496,-1.5530251 4.4009496,-1.5530251 4.3971335,-1.5592489 4.3925238,-1.5649096 4.3870745,-1.5697691 4.3810688,-1.5739189 4.3745467,-1.5772017 4.3676768,-1.579672 4.3605254,-1.5811408 4.3532451,-1.5816909 4.3532451,-1.5816909 4.3446277,-1.5809671 4.3362246,-1.5789389 4.3282245,-1.5756547 4.3208639,-1.5711204 4.31428,-1.5655132 4.3087365,-1.5588809 4.3044771,-1.5513563 4.3016609,-1.5431824 4.3016609,-1.5431824 4.3002817,-1.5328369 4.2996493,-1.5224194 4.2996825,-1.4928118 4.2996825,-1.4928118 4.2999559,-1.4825749 4.3016609,-1.4724877 4.3016609,-1.4724877 4.3044904,-1.4656063 4.3083801,-1.4592635 4.3132522,-1.4536398 4.3188467,-1.4487337 4.3250461,-1.4446181 4.3317826,-1.4414591 4.3389541,-1.4394764 4.346348,-1.438649 4.346348,-1.438649 4.3508024,-1.4390801 4.3548046,-1.439146 4.3548046,-1.439146 4.3625694,-1.4378232 4.3661588,-1.4361904 4.3693487,-1.4338685 4.3720052,-1.4309542 4.374049,-1.4275808 4.375235,-1.4238194 4.3756605,-1.4198977 4.3756605,-1.4198977 4.3750324,-1.4149175 4.3732595,-1.41022 4.3703502,-1.4061357 4.3664898,-1.4029241 4.3620694,-1.4005416 4.3573158,-1.3989241 4.3473538,-1.3977697 4.3473538,-1.3977697 4.3345785,-1.3988145 4.3220797,-1.4016505 4.3100967,-1.4062 4.2988857,-1.4124124 4.2886295,-1.4201008 4.2796488,-1.4292446 4.2721146,-1.4396135 4.2662417,-1.4510063 4.2662417,-1.4510063 4.2633786,-1.461102 4.261365,-1.4714028 4.2601759,-1.4818293 4.2597757,-1.4923167 4.2597757,-1.5246207 4.2597757,-1.5246207 4.2603216,-1.5340524 4.2614667,-1.5434287 4.2633105,-1.5526953 4.2659905,-1.5617534 4.2695407,-1.5705074 4.2738805,-1.5788992 4.2790957,-1.5867745 4.285126,-1.5940462 4.2918706,-1.6006604 4.2992865,-1.6065116 4.3073278,-1.6114683 4.3158944,-1.6154495 4.3248273,-1.6185203 4.3340263,-1.6206738 4.3433803,-1.6219882 4.352814,-1.6224985 4.352814,-1.6224985 4.3611157,-1.6221038 4.3693665,-1.6211062 4.3775063,-1.6194303 4.3854969,-1.6171427 4.3932058,-1.6140396 4.4006417,-1.6103279 4.4076597,-1.6058761 4.414269,-1.6008383 4.4203984,-1.5952251 4.4260333,-1.5891173 4.4310513,-1.5824918 4.4354724,-1.5754552 4.4392741,-1.5680642 4.4425065,-1.5604079 4.4472173,-1.5444756 4.4582496,-1.4908284 4.4582496,-1.4908284 4.4601376,-1.4820314 4.4627357,-1.4734217 4.4627357,-1.4734217 4.4657724,-1.4678146 4.4696007,-1.462715 4.4741991,-1.4582976 4.4793842,-1.4545852 4.4850519,-1.4516634 4.4910801,-1.4495806 4.497325,-1.4482968 4.5036869,-1.4478451 4.5036869,-1.4478451 4.5127617,-1.4487188 4.5215108,-1.4512671 4.5295472,-1.4555622 4.5363753,-1.4616027 4.5418685,-1.4688706 4.5457612,-1.4771169 4.5481259,-1.4859161 4.5491643,-1.4949749 4.5496787,-1.5198514 4.5496787,-1.5223344 4.5496787,-1.5223344 4.5491259,-1.5312901 4.5472836,-1.5400666 4.5439743,-1.5484045 4.5390245,-1.5558814 4.5325463,-1.5620846 4.5250317,-1.5669809 4.5167762,-1.5704894 4.5081413,-1.5729259 4.5081413,-1.5729259 4.5014707,-1.5754955 4.4957011,-1.5796864 4.4935159,-1.5825153 4.491987,-1.5857485 4.4912629,-1.5892505 4.491186,-1.5928268 4.491186,-1.5928268 4.4915834,-1.5969459 4.4927271,-1.6009212 4.4946985,-1.6045579 4.4974222,-1.6076723 4.500742,-1.6101388 4.5045254,-1.6118172 4.5085451,-1.6127909 4.5126674,-1.6131587 4.5126674,-1.6131587 4.521777,-1.6121303 4.5305985,-1.6095855 4.5390716,-1.6060809 4.5471527,-1.6017355 4.5471527,-1.6017355 4.5564918,-1.5954507 4.5649887,-1.5880698 4.5724155,-1.579611 4.5786624,-1.5702479 4.5836491,-1.5601569 4.5873061,-1.5495122 4.589466,-1.5384657 4.5901874,-1.527233z" transform="matrix(1,0,0,-1,6.5405,2.286)" fill="rgb(104,104,104)" fill-rule="nonzero" shaper:cutDepth="0.0000762" stroke-linecap="round" stroke-linejoin="round" /><path d="M4.4661124,-1.2769277 L4.4661124,-1.1627672 4.5494516,-1.1627672 4.5494516,-1.3186981 4.5494516,-1.3186981 4.5500373,-1.3285026 4.551232,-1.3332803 4.553265,-1.3377522 4.5563497,-1.341583 4.5604525,-1.3442754 4.5651607,-1.3456899 4.570071,-1.34597 4.570071,-1.34597 4.5747102,-1.3457089 4.5791797,-1.3444504 4.5831608,-1.3420714 4.5862324,-1.3385865 4.5882788,-1.3344239 4.589485,-1.3299303 4.5901874,-1.3206808 4.5902592,-1.1490022 4.5902592,-1.1490022 4.5895084,-1.1377681 4.5878922,-1.132373 4.584862,-1.1276323 4.5802635,-1.1243999 4.5748971,-1.1226777 4.5693138,-1.1219446 4.5636769,-1.1218878 4.2868183,-1.1219596 4.2868183,-1.1219596 4.2811988,-1.1218285 4.2756143,-1.1223727 4.2701906,-1.1238547 4.265454,-1.1268473 4.262222,-1.1314267 4.2605005,-1.1367715 4.2597757,-1.1479672 4.2597757,-1.3186981 4.2597757,-1.3186981 4.2602538,-1.3289085 4.2612715,-1.3339265 4.2630696,-1.3387109 4.2659283,-1.342953 4.2699407,-1.3461027 4.2747847,-1.3477315 4.2798921,-1.3479816 4.2798921,-1.3479816 4.2860351,-1.3469646 4.2916916,-1.3443825 4.2961389,-1.3400356 4.2990745,-1.3345467 4.2990745,-1.3345467 4.30014,-1.3313159 4.3004786,-1.3279251 4.3005832,-1.3211119 4.3005832,-1.1627672 4.4253048,-1.1627672 4.4253048,-1.2749977 4.4253048,-1.2749977 4.4258215,-1.2847696 4.4269224,-1.2895424 4.4288066,-1.2940651 4.4317923,-1.2979339 4.4358373,-1.300685 4.4405292,-1.3020722 4.4454212,-1.3022887 4.4454212,-1.3022887 4.4501265,-1.3020372 4.454677,-1.3008279 4.4587625,-1.2984934 4.4619516,-1.2950321 4.464097,-1.2908404 4.4653928,-1.2863086 4.4661124,-1.2769277z" transform="matrix(1,0,0,-1,6.5405,2.286)" fill="rgb(104,104,104)" fill-rule="nonzero" shaper:cutDepth="0.0000762" stroke-linecap="round" stroke-linejoin="round" /><path d="M4.2944046,-1.0668551 L4.2944046,-1.0668551 4.2882655,-1.070827 4.2847605,-1.0718972 4.2811134,-1.0722434 4.2811134,-1.0722434 4.2771436,-1.0718369 4.2733453,-1.070619 4.2698757,-1.0686505 4.2668995,-1.0659932 4.2645092,-1.0627992 4.2628153,-1.0591871 4.2615,-1.0513367 4.2615,-1.0513367 4.2619976,-1.0455611 4.2629039,-1.0427936 4.264366,-1.0402893 4.2682536,-1.0359925 4.2728222,-1.0324279 4.3977166,-0.9400481 4.3977166,-0.8960813 4.2865736,-0.8960813 4.2865736,-0.8960813 4.2769364,-0.8954129 4.2722359,-0.8942885 4.2678288,-0.8923133 4.263998,-0.889366 4.2613093,-0.885367 4.2599931,-0.8807202 4.2597757,-0.8758931 4.2597757,-0.8758931 4.2607388,-0.8691652 4.2636229,-0.8630223 4.2657891,-0.8603909 4.2684428,-0.8582585 4.271448,-0.8566539 4.2747193,-0.8557049 4.2747193,-0.8557049 4.2816247,-0.8552105 4.2885561,-0.8552737 4.5615934,-0.855202 4.5615934,-0.855202 4.5676957,-0.855217 4.5737298,-0.856112 4.5793935,-0.8583717 4.5841391,-0.8621933 4.5874377,-0.8673189 4.5893305,-0.8731202 4.5901485,-0.8791642 4.5902592,-0.8852665 4.5901874,-0.9692906 4.5901874,-0.9692906 4.5897146,-0.9790206 4.5885833,-0.9886934 4.5867739,-0.998267 4.584096,-1.0076301 4.5805245,-1.0166931 4.5760888,-1.0253643 4.5707675,-1.0335226 4.5645977,-1.0410588 4.5576997,-1.0479362 4.5500959,-1.0540223 4.5418439,-1.0591963 4.5330356,-1.0633534 4.523844,-1.0665745 4.5143657,-1.0688207 4.5047172,-1.0701528 4.4949938,-1.0707347 4.4949938,-1.0707347 4.4780034,-1.0693962 4.4696452,-1.0677148 4.4614327,-1.0654189 4.4534867,-1.0623317 4.4458428,-1.0585526 4.4386315,-1.0540052 4.4318324,-1.0488604 4.4255119,-1.0431381 4.4197995,-1.0368088 4.4147127,-1.0299662 4.4102341,-1.0227121 4.4065269,-1.0150333 4.4034522,-1.0070809 4.399174,-0.9905846 4.2968473,-1.0649153 4.2968473,-1.0649153 4.2944046,-1.0668551z M4.4385242,-0.967279 L4.4385242,-0.967279 4.439248,-0.9835957 4.4409234,-0.9915934 4.444128,-0.999106 4.444128,-0.999106 4.4480489,-1.0058142 4.4529283,-1.0118606 4.4585459,-1.0172275 4.4648852,-1.0217209 4.4717916,-1.0252802 4.479123,-1.0278542 4.486739,-1.0293894 4.4944908,-1.0299272 4.4944908,-1.0299272 4.5023508,-1.0293051 4.5100649,-1.0276761 4.5174257,-1.0248519 4.5243506,-1.0210821 4.5306686,-1.0163659 4.5362877,-1.0108354 4.5410043,-1.0045178 4.5447818,-0.9975972 4.5447818,-0.9975972 4.5472797,-0.9912282 4.5487132,-0.9845384 4.5494516,-0.9708754 4.5494516,-0.8960813 4.4385242,-0.8960813 4.4385242,-0.967279z" transform="matrix(1,0,0,-1,6.5405,2.286)" fill="rgb(104,104,104)" fill-rule="nonzero" shaper:cutDepth="0.0000762" stroke-linecap="round" stroke-linejoin="round" /><path d="M-3.422015,1.397 a0.215265,0.215265 0 1,1 0.43053,0 a0.215265,0.215265 0 1,1 -0.43053,0z" transform="matrix(1,0,0,-1,6.5405,2.286)" fill="rgb(255,255,255)" stroke="rgb(0,0,0)" stroke-width="0.0010cm" stroke-linecap="round" stroke-linejoin="round" shaper:cutDepth="0.0015875" /><path d="M5.360035,-1.7145 a0.215265,0.215265 0 1,1 0.43053,0 a0.215265,0.215265 0 1,1 -0.43053,0z" transform="matrix(1,0,0,-1,6.5405,2.286)" fill="rgb(255,255,255)" stroke="rgb(0,0,0)" stroke-width="0.0010cm" stroke-linecap="round" stroke-linejoin="round" shaper:cutDepth="0.0015875" /><path d="M-3.263265,-1.7145 a0.215265,0.215265 0 1,1 0.43053,0 a0.215265,0.215265 0 1,1 -0.43053,0z" transform="matrix(1,0,0,-1,6.5405,2.286)" fill="rgb(255,255,255)" stroke="rgb(0,0,0)" stroke-width="0.0010cm" stroke-linecap="round" stroke-linejoin="round" shaper:cutDepth="0.0015875" /></svg>