G04 #@! TF.GenerationSoftware,KiCad,Pcbnew,(5.1.9)-1*
G04 #@! TF.CreationDate,2022-08-26T16:10:25-06:00*
G04 #@! TF.ProjectId,ufc_v5_ap,7566635f-7635-45f6-9170-2e6b69636164,rev?*
G04 #@! TF.SameCoordinates,Original*
G04 #@! TF.FileFunction,Soldermask,Top*
G04 #@! TF.FilePolarity,Negative*
%FSLAX46Y46*%
G04 Gerber Fmt 4.6, Leading zero omitted, Abs format (unit mm)*
G04 Created by KiCad (PCBNEW (5.1.9)-1) date 2022-08-26 16:10:25*
%MOMM*%
%LPD*%
G01*
G04 APERTURE LIST*
%ADD10C,3.200000*%
%ADD11O,1.700000X1.700000*%
%ADD12R,1.700000X1.700000*%
%ADD13C,2.000000*%
%ADD14C,1.524000*%
G04 APERTURE END LIST*
D10*
X191005498Y-90721398D03*
X106005498Y-90721398D03*
D11*
X174190498Y-94016398D03*
X174190498Y-91476398D03*
X174190498Y-88936398D03*
D12*
X174190498Y-86396398D03*
D13*
X94422998Y-92716998D03*
X94422998Y-88216998D03*
X100922998Y-92716998D03*
X100922998Y-88216998D03*
D14*
X97672998Y-87766998D03*
X97672998Y-93166998D03*
X114610498Y-93166998D03*
X114610498Y-87766998D03*
D13*
X117860498Y-88216998D03*
X117860498Y-92716998D03*
X111360498Y-88216998D03*
X111360498Y-92716998D03*
X128297998Y-92716998D03*
X128297998Y-88216998D03*
X134797998Y-92716998D03*
X134797998Y-88216998D03*
D14*
X131547998Y-87766998D03*
X131547998Y-93166998D03*
X148485498Y-93166998D03*
X148485498Y-87766998D03*
D13*
X151735498Y-88216998D03*
X151735498Y-92716998D03*
X145235498Y-88216998D03*
X145235498Y-92716998D03*
X162157373Y-92732623D03*
X162157373Y-88232623D03*
X168657373Y-92732623D03*
X168657373Y-88232623D03*
D14*
X165407373Y-87782623D03*
X165407373Y-93182623D03*
X182344873Y-93166998D03*
X182344873Y-87766998D03*
D13*
X185594873Y-88216998D03*
X185594873Y-92716998D03*
X179094873Y-88216998D03*
X179094873Y-92716998D03*
X196047998Y-92748248D03*
X196047998Y-88248248D03*
X202547998Y-92748248D03*
X202547998Y-88248248D03*
D14*
X199297998Y-87798248D03*
X199297998Y-93198248D03*
M02*
