G04 #@! TF.FileFunction,Soldermask,Top*
%FSLAX46Y46*%
G04 Gerber Fmt 4.6, Leading zero omitted, Abs format (unit mm)*
G04 Created by KiCad (PCBNEW 4.0.7) date 01/09/18 02:40:13*
%MOMM*%
%LPD*%
G01*
G04 APERTURE LIST*
%ADD10C,0.100000*%
%ADD11C,1.727200*%
%ADD12O,1.727200X1.727200*%
%ADD13O,1.727200X2.032000*%
%ADD14C,4.064000*%
%ADD15R,3.500000X1.600000*%
%ADD16R,1.524000X1.524000*%
%ADD17C,1.524000*%
%ADD18R,2.510000X1.000000*%
%ADD19R,0.900000X0.800000*%
%ADD20R,0.900000X1.200000*%
%ADD21R,1.200000X0.900000*%
%ADD22R,3.150000X1.000000*%
%ADD23C,2.400000*%
%ADD24O,2.400000X2.400000*%
%ADD25C,1.400000*%
G04 APERTURE END LIST*
D10*
D11*
X197358000Y-114046000D03*
D12*
X199898000Y-114046000D03*
X197358000Y-111506000D03*
X199898000Y-111506000D03*
X197358000Y-108966000D03*
X199898000Y-108966000D03*
X197358000Y-106426000D03*
X199898000Y-106426000D03*
X197358000Y-103886000D03*
X199898000Y-103886000D03*
X197358000Y-101346000D03*
X199898000Y-101346000D03*
X197358000Y-98806000D03*
X199898000Y-98806000D03*
X197358000Y-96266000D03*
X199898000Y-96266000D03*
X197358000Y-93726000D03*
X199898000Y-93726000D03*
X197358000Y-91186000D03*
X199898000Y-91186000D03*
X197358000Y-88646000D03*
X199898000Y-88646000D03*
X197358000Y-86106000D03*
X199898000Y-86106000D03*
X197358000Y-83566000D03*
X199898000Y-83566000D03*
X197358000Y-81026000D03*
X199898000Y-81026000D03*
X197358000Y-78486000D03*
X199898000Y-78486000D03*
X197358000Y-75946000D03*
X199898000Y-75946000D03*
X197358000Y-73406000D03*
X199898000Y-73406000D03*
X197358000Y-70866000D03*
X199898000Y-70866000D03*
D13*
X131318000Y-119126000D03*
X133858000Y-119126000D03*
X136398000Y-119126000D03*
X138938000Y-119126000D03*
X141478000Y-119126000D03*
X144018000Y-119126000D03*
X146558000Y-119126000D03*
X149098000Y-119126000D03*
X154178000Y-119126000D03*
X156718000Y-119126000D03*
X159258000Y-119126000D03*
X161798000Y-119126000D03*
X164338000Y-119126000D03*
X166878000Y-119126000D03*
X169418000Y-119126000D03*
X171958000Y-119126000D03*
X177038000Y-119126000D03*
X179578000Y-119126000D03*
X182118000Y-119126000D03*
X184658000Y-119126000D03*
X187198000Y-119126000D03*
X189738000Y-119126000D03*
X192278000Y-119126000D03*
X194818000Y-119126000D03*
X122174000Y-70866000D03*
X124714000Y-70866000D03*
X127254000Y-70866000D03*
X129794000Y-70866000D03*
X132334000Y-70866000D03*
X134874000Y-70866000D03*
X137414000Y-70866000D03*
X139954000Y-70866000D03*
X142494000Y-70866000D03*
X145034000Y-70866000D03*
X149098000Y-70866000D03*
X151638000Y-70866000D03*
X154178000Y-70866000D03*
X156718000Y-70866000D03*
X159258000Y-70866000D03*
X161798000Y-70866000D03*
X164338000Y-70866000D03*
X166878000Y-70866000D03*
X171958000Y-70866000D03*
X174498000Y-70866000D03*
X177038000Y-70866000D03*
X179578000Y-70866000D03*
X182118000Y-70866000D03*
X184658000Y-70866000D03*
X187198000Y-70866000D03*
X189738000Y-70866000D03*
D14*
X117348000Y-119126000D03*
X169418000Y-114046000D03*
X199898000Y-119126000D03*
X118618000Y-70866000D03*
X169418000Y-86106000D03*
X193548000Y-70866000D03*
D15*
X115600000Y-83700000D03*
X110200000Y-83700000D03*
D16*
X125315001Y-77305001D03*
D17*
X125315001Y-79845001D03*
X125315001Y-82385001D03*
X125315001Y-84925001D03*
X125315001Y-87465001D03*
X125315001Y-90005001D03*
X125315001Y-92545001D03*
X132935001Y-77305001D03*
X132935001Y-79845001D03*
X132935001Y-82385001D03*
X132935001Y-84925001D03*
X132935001Y-87465001D03*
X132935001Y-90005001D03*
X132935001Y-92545001D03*
D16*
X135665001Y-77305001D03*
D17*
X135665001Y-79845001D03*
X135665001Y-82385001D03*
X135665001Y-84925001D03*
X135665001Y-87465001D03*
X135665001Y-90005001D03*
X135665001Y-92545001D03*
X143285001Y-77305001D03*
X143285001Y-79845001D03*
X143285001Y-82385001D03*
X143285001Y-84925001D03*
X143285001Y-87465001D03*
X143285001Y-90005001D03*
X143285001Y-92545001D03*
D16*
X146015001Y-77305001D03*
D17*
X146015001Y-79845001D03*
X146015001Y-82385001D03*
X146015001Y-84925001D03*
X146015001Y-87465001D03*
X146015001Y-90005001D03*
X146015001Y-92545001D03*
X153635001Y-77305001D03*
X153635001Y-79845001D03*
X153635001Y-82385001D03*
X153635001Y-84925001D03*
X153635001Y-87465001D03*
X153635001Y-90005001D03*
X153635001Y-92545001D03*
D16*
X156365001Y-77305001D03*
D17*
X156365001Y-79845001D03*
X156365001Y-82385001D03*
X156365001Y-84925001D03*
X156365001Y-87465001D03*
X156365001Y-90005001D03*
X156365001Y-92545001D03*
X163985001Y-77305001D03*
X163985001Y-79845001D03*
X163985001Y-82385001D03*
X163985001Y-84925001D03*
X163985001Y-87465001D03*
X163985001Y-90005001D03*
X163985001Y-92545001D03*
D18*
X110790000Y-90000000D03*
X110790000Y-95080000D03*
X110790000Y-100160000D03*
X110790000Y-105240000D03*
X114100000Y-92540000D03*
X114100000Y-97620000D03*
X114100000Y-102700000D03*
D19*
X178700000Y-76700000D03*
X178700000Y-74800000D03*
X176700000Y-75750000D03*
X187500000Y-74800000D03*
X187500000Y-76700000D03*
X189500000Y-75750000D03*
D20*
X180600000Y-76850001D03*
X180600000Y-74650001D03*
X185400000Y-74660001D03*
X185400000Y-76860001D03*
D21*
X185297500Y-89200000D03*
X183097500Y-89200000D03*
X190900000Y-89200000D03*
X188700000Y-89200000D03*
X179700000Y-89200000D03*
X177500000Y-89200000D03*
D18*
X189900000Y-104300000D03*
X189900000Y-109380000D03*
X193210000Y-106840000D03*
X193210000Y-111920000D03*
D22*
X145302495Y-109746055D03*
X140252495Y-109746055D03*
X145302495Y-107206055D03*
X140252495Y-107206055D03*
X145302495Y-104666055D03*
X140252495Y-104666055D03*
X145302495Y-102126055D03*
X140252495Y-102126055D03*
X156102495Y-109746055D03*
X151052495Y-109746055D03*
X156102495Y-107206055D03*
X151052495Y-107206055D03*
X156102495Y-104666055D03*
X151052495Y-104666055D03*
X156102495Y-102126055D03*
X151052495Y-102126055D03*
D18*
X182600000Y-104320000D03*
X182600000Y-109400000D03*
X185910000Y-106860000D03*
X178955000Y-84770000D03*
X175645000Y-82230000D03*
X185755000Y-84770000D03*
X182445000Y-82230000D03*
D23*
X176300000Y-113880000D03*
D24*
X176300000Y-108800000D03*
D25*
X169000000Y-104500000D03*
X169000000Y-101960000D03*
X161460000Y-104500000D03*
X161460000Y-101960000D03*
X165000000Y-104540000D03*
X165000000Y-102000000D03*
M02*
