0
SECTION
2
HEADER
9
$INSUNITS
70
1
9
$ACADVER
1
AC1014
9
$HANDSEED
5
FFFF
0
ENDSEC
0
SECTION
2
TABLES
0
TABLE
2
VPORT
5
8
100
AcDbSymbolTable
0
ENDTAB
0
TABLE
2
LTYPE
5
5
100
AcDbSymbolTable
0
LTYPE
5
14
100
AcDbSymbolTableRecord
100
AcDbLinetypeTableRecord
2
BYBLOCK
70
0
0
LTYPE
5
15
100
AcDbSymbolTableRecord
100
AcDbLinetypeTableRecord
2
BYLAYER
70
0
0
ENDTAB
0
TABLE
2
LAYER
5
2
100
AcDbSymbolTable
70
2
0
LAYER
5
50
100
AcDbSymbolTableRecord
100
AcDbLayerTableRecord
2
0
70
0
6
CONTINUOUS
0
ENDTAB
0
TABLE
2
STYLE
5
3
100
AcDbSymbolTable
70
1
0
STYLE
5
11
100
AcDbSymbolTableRecord
100
AcDbTextStyleTableRecord
2
STANDARD
70
0
0
ENDTAB
0
TABLE
2
VIEW
5
6
100
AcDbSymbolTable
70
0
0
ENDTAB
0
TABLE
2
UCS
5
7
100
AcDbSymbolTable
70
0
0
ENDTAB
0
TABLE
2
APPID
5
9
100
AcDbSymbolTable
70
2
0
APPID
5
12
100
AcDbSymbolTableRecord
100
AcDbRegAppTableRecord
2
ACAD
70
0
0
ENDTAB
0
TABLE
2
DIMSTYLE
5
A
100
AcDbSymbolTable
70
1
0
ENDTAB
0
TABLE
2
BLOCK_RECORD
5
1
100
AcDbSymbolTable
70
1
0
BLOCK_RECORD
5
1F
100
AcDbSymbolTableRecord
100
AcDbBlockTableRecord
2
*MODEL_SPACE
0
BLOCK_RECORD
5
1B
100
AcDbSymbolTableRecord
100
AcDbBlockTableRecord
2
*PAPER_SPACE
0
ENDTAB
0
ENDSEC
0
SECTION
2
BLOCKS
0
BLOCK
5
20
100
AcDbEntity
100
AcDbBlockBegin
2
*MODEL_SPACE
0
ENDBLK
5
21
100
AcDbEntity
100
AcDbBlockEnd
0
BLOCK
5
1C
100
AcDbEntity
100
AcDbBlockBegin
2
*PAPER_SPACE
0
ENDBLK
5
1D
100
AcDbEntity
100
AcDbBlockEnd
0
ENDSEC
0
SECTION
2
ENTITIES
0
LINE
5
100
100
AcDbEntity
8
OUTER_PROFILES
100
AcDbLine
10
20.939108616075696
20
14.22409534456655
30
0
11
16.434119553365505
21
14.937615515932027
31
0
0
ARC
5
101
100
AcDbEntity
8
OUTER_PROFILES
100
AcDbCircle
10
16.39501093710545
20
14.690693430783243
30
0
40
0.24999999999999986
210
-0
220
0
230
1
100
AcDbArc
50
81.000000000000554
51
90
0
LINE
5
102
100
AcDbEntity
8
OUTER_PROFILES
100
AcDbLine
10
16.39501093710545
20
14.940693430783242
30
0
11
10.214016994204753
21
14.940693430783234
31
0
0
ARC
5
103
100
AcDbEntity
8
OUTER_PROFILES
100
AcDbCircle
10
-10.214016994204753
20
15.190693430783233
30
0
40
0.2499999999999992
210
0
220
0
230
-1
100
AcDbArc
50
270
51
296.56505117707781
0
LINE
5
104
100
AcDbEntity
8
OUTER_PROFILES
100
AcDbLine
10
10.102213595329765
20
14.967086633033254
30
0
11
9.5777864043203422
21
15.229300228537964
31
0
0
ARC
5
105
100
AcDbEntity
8
OUTER_PROFILES
100
AcDbCircle
10
9.4659830054453558
20
15.005693430787982
30
0
40
0.25000000000000117
210
-0
220
0
230
1
100
AcDbArc
50
63.434948822922927
51
90
0
LINE
5
106
100
AcDbEntity
8
OUTER_PROFILES
100
AcDbLine
10
9.4659830054453558
20
15.255693430787984
30
0
11
7.9624999998203219
21
15.255693430787982
31
0
0
ARC
5
107
100
AcDbEntity
8
OUTER_PROFILES
100
AcDbCircle
10
7.9624999998203219
20
15.005693430787982
30
0
40
0.2499999999999992
210
-0
220
0
230
1
100
AcDbArc
50
90
51
180
0
LINE
5
108
100
AcDbEntity
8
OUTER_PROFILES
100
AcDbLine
10
7.712499999820321
20
15.005693430787982
30
0
11
7.7124999998203192
21
13.740693430794996
31
0
0
ARC
5
109
100
AcDbEntity
8
OUTER_PROFILES
100
AcDbCircle
10
-7.4624999998203201
20
13.740693430794996
30
0
40
0.2499999999999992
210
0
220
0
230
-1
100
AcDbArc
50
180
51
269.9999999999992
0
LINE
5
110
100
AcDbEntity
8
OUTER_PROFILES
100
AcDbLine
10
7.4624999998203236
20
13.490693430794996
30
0
11
6.2675224577966988
21
13.490693430794996
31
0
0
ARC
5
111
100
AcDbEntity
8
OUTER_PROFILES
100
AcDbCircle
10
6.2675224577966988
20
13.240693430794998
30
0
40
0.2499999999999992
210
-0
220
0
230
1
100
AcDbArc
50
90
51
157.65127482416489
0
LINE
5
112
100
AcDbEntity
8
OUTER_PROFILES
100
AcDbLine
10
6.0363007856085593
20
13.335754139347587
30
0
11
5.0999999998196595
21
11.058335459668678
31
0
0
SPLINE
5
113
100
AcDbEntity
8
OUTER_PROFILES
100
AcDbSpline
70
0
71
3
72
17
73
13
74
0
42
0.000000001
43
0.0000000001
44
0.0000000001
40
4.1834342017568605e-15
40
4.1834342017568605e-15
40
4.1834342017568605e-15
40
4.1834342017568605e-15
40
0.0028640489993334772
40
0.0028640489993334772
40
0.0028640489993334772
40
0.0057280979986648745
40
0.0057280979986648745
40
0.0057280979986648745
40
0.0085921469979962709
40
0.0085921469979962709
40
0.0085921469979962709
40
0.011456195997327669
40
0.011456195997327669
40
0.011456195997327669
40
0.011456195997327669
10
5.0999999998199614
20
11.058335459668568
30
0
10
5.0863552761402095
20
11.025531531360775
30
0
10
5.0727325891762849
20
10.992782389372733
30
0
10
5.05910364706319
20
10.960016623781963
30
0
10
5.0454747049500854
20
10.927250858191169
30
0
10
5.0318395076878071
20
10.894468580167478
30
0
10
5.0182052968710602
20
10.861688926712876
30
0
10
5.0045710860543196
20
10.828909273258274
30
0
10
4.9909378616831068
20
10.796131769422919
30
0
10
4.9773227252286842
20
10.763399169139447
30
0
10
4.9637075887742625
20
10.730666568855975
30
0
10
4.9501105402366345
20
10.697979090300533
30
0
10
4.936465816659747
20
10.665175162240045
30
0
0
SPLINE
5
114
100
AcDbEntity
8
OUTER_PROFILES
100
AcDbSpline
70
0
71
3
72
17
73
13
74
0
42
0.000000001
43
0.0000000001
44
0.0000000001
40
0
40
0
40
0
40
0
40
2.0312295142637375
40
2.0312295142637375
40
2.0312295142637375
40
4.0521200348293478
40
4.0521200348293478
40
4.0521200348293478
40
6.0731504830709673
40
6.0731504830709673
40
6.0731504830709673
40
8.1062176628193345
40
8.1062176628193345
40
8.1062176628193345
40
8.1062176628193345
10
4.9364658166599042
20
10.665175162239992
30
0
10
4.7766669705491545
20
10.454353336847307
30
0
10
4.6111464102339408
20
10.247472468836687
30
0
10
4.4436789261675544
20
10.042407153706304
30
0
10
4.2770638545194837
20
9.838385624610904
30
0
10
4.1087206449602469
20
9.6365296086167547
30
0
10
3.9401446509672087
20
9.4346398406783472
30
0
10
3.7715569846708772
20
9.232736093770896
30
0
10
3.6027721440890441
20
9.0309081296852938
30
0
10
3.4351723022576133
20
8.8279936023356917
30
0
10
3.2665742793753005
20
8.6238705688566295
30
0
10
3.0992063388520017
20
8.4187124663370128
30
0
10
2.9343450121748909
20
8.2117084950353476
30
0
0
LINE
5
115
100
AcDbEntity
8
OUTER_PROFILES
100
AcDbLine
10
2.9343450121748904
20
8.2117084950353476
30
0
11
2.8361284479923721
21
8.0990780468464205
31
0
0
SPLINE
5
116
100
AcDbEntity
8
OUTER_PROFILES
100
AcDbSpline
70
0
71
3
72
10
73
6
74
0
42
0.000000001
43
0.0000000001
44
0.0000000001
40
-9.8477796123601404
40
-9.8477796123601404
40
-9.8477796123601404
40
-9.8477796123601404
40
-4.8244996102778019
40
-4.8244996102778019
40
-0
40
-0
40
-0
40
-0
10
0.90008848701322519
20
4.7543575407103571
30
0
10
1.1347739940088726
20
5.3711039158112559
30
0
10
1.4174278073384763
20
5.9718755920013322
30
0
10
2.0652091683525233
20
7.0909886502775796
30
0
10
2.4284221492606415
20
7.6146842863162547
30
0
10
2.8361284479923721
20
8.0990780468464205
30
0
0
SPLINE
5
117
100
AcDbEntity
8
OUTER_PROFILES
100
AcDbSpline
70
0
71
3
72
26
73
22
74
0
42
0.000000001
43
0.0000000001
44
0.0000000001
40
0
40
0
40
0
40
0
40
2.7389047711089476
40
2.7389047711089476
40
2.7389047711089476
40
4.1068939753392142
40
4.1068939753392142
40
4.1068939753392142
40
4.7950221984874482
40
4.7950221984874482
40
4.7950221984874482
40
5.485211873238204
40
5.485211873238204
40
5.485211873238204
40
8.2106028895755134
40
8.2106028895755134
40
8.2106028895755134
40
9.5749471903514429
40
9.5749471903514429
40
9.5749471903514429
40
10.954517851058073
40
10.954517851058073
40
10.954517851058073
40
10.954517851058073
10
0.90008848699849398
20
4.7543575407103651
30
0
10
0.77225461267602458
20
4.4224144185363681
30
0
10
0.65087095388967309
20
4.0878408627382496
30
0
10
0.54140072119548077
20
3.7496788104361718
30
0
10
0.48672408618067931
20
3.5807784376633314
30
0
10
0.43503954322153243
20
3.411081446090531
30
0
10
0.38693327571928987
20
3.2403983448256941
30
0
10
0.3627347803830327
20
3.1545410450519857
30
0
10
0.33944104211763304
20
3.0684338421531661
30
0
10
0.31712300984333042
20
2.9820496630361615
30
0
10
0.29473811860023214
20
2.8954066995843748
30
0
10
0.27334577287648665
20
2.8085326203539522
30
0
10
0.25298036914679767
20
2.7212462161100692
30
0
10
0.17256234726169611
20
2.376573453422663
30
0
10
0.10896631868225574
20
2.0282741792801695
30
0
10
0.065872090015960796
20
1.6770647064455557
30
0
10
0.044298904764835938
20
1.501247497183458
30
0
10
0.027853300735688837
20
1.3248102604126675
30
0
10
0.016808455166614635
20
1.1479385826295769
30
0
10
0.0056403468742533122
20
0.96909298094330565
30
0
10
-1.7343956542175673e-13
20
0.78975062887397041
30
0
10
-1.8043309628553725e-13
20
0.61049999999953142
30
0
0
LINE
5
118
100
AcDbEntity
8
OUTER_PROFILES
100
AcDbLine
10
-1.8043518491959111e-13
20
0.61049999999953142
30
0
11
0
21
0
31
0
0
LINE
5
119
100
AcDbEntity
8
OUTER_PROFILES
100
AcDbLine
10
0
20
0
30
0
11
21.149999999815638
21
0
31
0
0
LINE
5
120
100
AcDbEntity
8
OUTER_PROFILES
100
AcDbLine
10
21.149999999815638
20
0
30
0
11
21.149999999815638
21
0.61049999999952864
31
0
0
LINE
5
121
100
AcDbEntity
8
OUTER_PROFILES
100
AcDbLine
10
21.149999999815638
20
0.61049999999952864
30
0
11
21.149999999815638
21
4.7543575407103571
31
0
0
LINE
5
122
100
AcDbEntity
8
OUTER_PROFILES
100
AcDbLine
10
21.149999999815638
20
4.7543575407103571
30
0
11
21.149999999815638
21
8.0990780468464152
31
0
0
LINE
5
123
100
AcDbEntity
8
OUTER_PROFILES
100
AcDbLine
10
21.149999999815638
20
8.0990780468464152
30
0
11
21.149999999815638
21
8.2117084950353458
31
0
0
LINE
5
124
100
AcDbEntity
8
OUTER_PROFILES
100
AcDbLine
10
21.149999999815638
20
8.2117084950353458
30
0
11
21.149999999815638
21
10.66517516223999
31
0
0
LINE
5
125
100
AcDbEntity
8
OUTER_PROFILES
100
AcDbLine
10
21.149999999815638
20
10.66517516223999
30
0
11
21.149999999815638
21
11.058335459668678
31
0
0
LINE
5
126
100
AcDbEntity
8
OUTER_PROFILES
100
AcDbLine
10
21.149999999815638
20
11.058335459668678
30
0
11
21.149999999815638
21
13.977173259417766
31
0
0
ARC
5
127
100
AcDbEntity
8
OUTER_PROFILES
100
AcDbCircle
10
20.899999999815641
20
13.977173259417766
30
0
40
0.2499999999999992
210
-0
220
0
230
1
100
AcDbArc
50
0
51
81.000000000000554
0
CIRCLE
5
128
100
AcDbEntity
8
INTERIOR_PROFILES
100
AcDbCircle
10
9.2307372540376793
20
14.818193430794945
30
0
40
0.14059999999999956
210
-0
220
0
230
1
0
LWPOLYLINE
5
129
100
AcDbEntity
8
INTERIOR_PROFILES
100
AcDbPolyline
90
2
70
1
43
0.0
10
19.260149686980693
20
0.61049999999953986
42
0.90167835483657721
0
CIRCLE
5
130
100
AcDbEntity
8
INTERIOR_PROFILES
100
AcDbCircle
10
7.1499999998156447
20
6.4160832879841747
30
0
40
0.14059999999999884
210
-0
220
0
230
1
0
ARC
5
131
100
AcDbEntity
8
INTERIOR_PROFILES
100
AcDbCircle
10
7.8999999998156092
20
0.6249999999992133
30
0
40
0.14059999999999875
210
0
220
0
230
1
100
AcDbArc
50
185.91940657034436
51
354.08059342964879
0
SPLINE
5
132
100
AcDbEntity
8
INTERIOR_PROFILES
100
AcDbSpline
70
0
71
3
72
20
73
16
74
0
42
0.000000001
43
0.0000000001
44
0.0000000001
40
0.50180524145723338
40
0.50180524145723338
40
0.50180524145723338
40
0.50180524145723338
40
0.66735025789137181
40
0.66735025789137181
40
0.66735025789137181
40
0.93366036182719436
40
0.93366036182719436
40
0.93366036182719436
40
1.2281775921174454
40
1.2281775921174454
40
1.2281775921174454
40
1.4789900789790864
40
1.4789900789790864
40
1.4789900789790864
40
1.6506606079400792
40
1.6506606079400792
40
1.6506606079400792
40
1.6506606079400792
10
8.0398503126504721
20
0.61049999999952864
30
0
10
8.0421597428432925
20
0.63250936219947285
30
0
10
8.0392189701424588
20
0.65477542111973785
30
0
10
8.0307274064964549
20
0.67596998323543023
30
0
10
8.0170671390607087
20
0.71006539825597237
30
0
10
7.9908293377736861
20
0.73704414997481882
30
0
10
7.9568968825746937
20
0.75188567447297838
30
0
10
7.9193703577659926
20
0.76829918873279268
30
0
10
7.8765729112313485
20
0.76770049181460953
30
0
10
7.8395440151406577
20
0.75027002517197527
30
0
10
7.8080100043627674
20
0.73542614428429653
30
0
10
7.7836926389457659
20
0.71019051682391465
30
0
10
7.770236879029059
20
0.67831420173800083
30
0
10
7.7610269810236732
20
0.65649621356444987
30
0
10
7.7577548030311174
20
0.63332375472403979
30
0
10
7.7601496869807463
20
0.61049999999954263
30
0
0
CIRCLE
5
133
100
AcDbEntity
8
INTERIOR_PROFILES
100
AcDbCircle
10
20.149999999815627
20
6.4267195194154993
30
0
40
0.14059999999999956
210
-0
220
0
230
1
0
CIRCLE
5
134
100
AcDbEntity
8
INTERIOR_PROFILES
100
AcDbCircle
10
20.149999999815662
20
13.940693430794578
30
0
40
0.14059999999999956
210
-0
220
0
230
1
0
LINE
5
135
100
AcDbEntity
8
BEND
100
AcDbLine
10
5.0182329084118615
20
10.861755310954365
30
2.1854760134726709e-14
11
21.149999999815638
21
10.861755310954367
31
2.4717000216889725e-14
0
LINE
5
136
100
AcDbEntity
8
BEND
100
AcDbLine
10
2.8852367300836739
20
8.1553932709408716
30
2.48756957868035e-13
11
21.149999999815638
21
8.1553932709408716
31
2.499486391916477e-13
0
LINE
5
137
100
AcDbEntity
8
BEND
100
AcDbLine
10
0.24399765890859013
20
2.682428770354937
30
2.7614638033915723e-07
11
21.149999999815638
21
2.6824287703549401
31
2.7614638240448835e-07
0
LINE
5
138
100
AcDbEntity
8
BEND
100
AcDbLine
10
3.9433192486753628
20
9.4384418287520369
30
1.7092813701355453e-13
11
21.149999999815638
21
9.4384418286376732
31
1.6771089379258149e-13
0
LINE
5
139
100
AcDbEntity
8
BEND_EXTENT
100
AcDbLine
10
5.0999999998196595
20
11.058335459668678
30
7.8327521471719451e-14
11
21.149999999815638
21
11.058335459668678
31
2.2379198394399281e-14
0
LINE
5
140
100
AcDbEntity
8
BEND_EXTENT
100
AcDbLine
10
4.9364658166599069
20
10.665175162239994
30
7.2732697556764859e-14
11
21.149999999815638
21
10.66517516223999
31
1.2308604283283868e-13
0
LINE
5
141
100
AcDbEntity
8
BEND_EXTENT
100
AcDbLine
10
2.934345012174898
20
8.2117084950353476
30
2.2379297371571289e-13
11
21.149999999815638
21
8.2117084950353458
31
2.405773613443513e-13
0
LINE
5
142
100
AcDbEntity
8
BEND_EXTENT
100
AcDbLine
10
2.8361284479923721
20
8.0990780468464205
30
2.2938779887283504e-13
11
21.149999999815638
21
8.0990780468464152
31
2.0141358850718044e-13
0
LINE
5
143
100
AcDbEntity
8
BEND_EXTENT
100
AcDbLine
10
0.9000884870058623
20
4.7543575407103509
30
-3.5381671350309846e-11
11
21.149999999815638
21
4.7543575407103571
31
-3.5376076621717047e-11
0
ENDSEC
0
SECTION
2
OBJECTS
0
DICTIONARY
5
C
100
AcDbDictionary
3
ACAD_GROUP
350
D
3
ACAD_MLINESTYLE
350
17
0
DICTIONARY
5
D
100
AcDbDictionary
0
DICTIONARY
5
1A
330
C
100
AcDbDictionary
0
DICTIONARY
5
17
100
AcDbDictionary
0
ENDSEC
0
EOF
