0
SECTION
2
HEADER
9
$INSUNITS
70
1
9
$ACADVER
1
AC1014
9
$HANDSEED
5
FFFF
0
ENDSEC
0
SECTION
2
TABLES
0
TABLE
2
VPORT
5
8
100
AcDbSymbolTable
0
ENDTAB
0
TABLE
2
LTYPE
5
5
100
AcDbSymbolTable
0
LTYPE
5
14
100
AcDbSymbolTableRecord
100
AcDbLinetypeTableRecord
2
BYBLOCK
70
0
0
LTYPE
5
15
100
AcDbSymbolTableRecord
100
AcDbLinetypeTableRecord
2
BYLAYER
70
0
0
ENDTAB
0
TABLE
2
LAYER
5
2
100
AcDbSymbolTable
70
2
0
LAYER
5
50
100
AcDbSymbolTableRecord
100
AcDbLayerTableRecord
2
0
70
0
6
CONTINUOUS
0
ENDTAB
0
TABLE
2
STYLE
5
3
100
AcDbSymbolTable
70
1
0
STYLE
5
11
100
AcDbSymbolTableRecord
100
AcDbTextStyleTableRecord
2
STANDARD
70
0
0
ENDTAB
0
TABLE
2
VIEW
5
6
100
AcDbSymbolTable
70
0
0
ENDTAB
0
TABLE
2
UCS
5
7
100
AcDbSymbolTable
70
0
0
ENDTAB
0
TABLE
2
APPID
5
9
100
AcDbSymbolTable
70
2
0
APPID
5
12
100
AcDbSymbolTableRecord
100
AcDbRegAppTableRecord
2
ACAD
70
0
0
ENDTAB
0
TABLE
2
DIMSTYLE
5
A
100
AcDbSymbolTable
70
1
0
ENDTAB
0
TABLE
2
BLOCK_RECORD
5
1
100
AcDbSymbolTable
70
1
0
BLOCK_RECORD
5
1F
100
AcDbSymbolTableRecord
100
AcDbBlockTableRecord
2
*MODEL_SPACE
0
BLOCK_RECORD
5
1B
100
AcDbSymbolTableRecord
100
AcDbBlockTableRecord
2
*PAPER_SPACE
0
ENDTAB
0
ENDSEC
0
SECTION
2
BLOCKS
0
BLOCK
5
20
100
AcDbEntity
100
AcDbBlockBegin
2
*MODEL_SPACE
0
ENDBLK
5
21
100
AcDbEntity
100
AcDbBlockEnd
0
BLOCK
5
1C
100
AcDbEntity
100
AcDbBlockBegin
2
*PAPER_SPACE
0
ENDBLK
5
1D
100
AcDbEntity
100
AcDbBlockEnd
0
ENDSEC
0
SECTION
2
ENTITIES
0
LINE
5
100
100
AcDbEntity
8
OUTER_PROFILES
100
AcDbLine
10
0
20
0
30
0
11
0
21
0.61049999999951743
31
0
0
LINE
5
101
100
AcDbEntity
8
OUTER_PROFILES
100
AcDbLine
10
0
20
0.61049999999951743
30
0
11
5.5948246910244104e-15
21
4.7543575407103287
31
0
0
LINE
5
102
100
AcDbEntity
8
OUTER_PROFILES
100
AcDbLine
10
5.5948246910244104e-15
20
4.7543575407103287
30
0
11
5.5948246910244104e-15
21
8.0990780468463868
31
0
0
LINE
5
103
100
AcDbEntity
8
OUTER_PROFILES
100
AcDbLine
10
5.5948246910244104e-15
20
8.0990780468463868
30
0
11
5.5948246910244104e-15
21
8.2117084950353227
31
0
0
LINE
5
104
100
AcDbEntity
8
OUTER_PROFILES
100
AcDbLine
10
5.5948246910244104e-15
20
8.2117084950353227
30
0
11
5.5948246910244104e-15
21
10.665175162239967
31
0
0
LINE
5
105
100
AcDbEntity
8
OUTER_PROFILES
100
AcDbLine
10
5.5948246910244104e-15
20
10.665175162239967
30
0
11
5.5948246910244104e-15
21
11.058335459668656
31
0
0
LINE
5
106
100
AcDbEntity
8
OUTER_PROFILES
100
AcDbLine
10
5.5948246910244104e-15
20
11.058335459668656
30
0
11
4.8080524688491025e-15
21
13.977173259417743
31
0
0
ARC
5
107
100
AcDbEntity
8
OUTER_PROFILES
100
AcDbCircle
10
-0.25000000000000477
20
13.977173259417743
30
0
40
0.24999999999999997
210
0
220
0
230
-1
100
AcDbArc
50
0
51
81.000000000000426
0
LINE
5
108
100
AcDbEntity
8
OUTER_PROFILES
100
AcDbLine
10
0.21089138373994881
20
14.224095344566528
30
0
11
4.7158804464501403
21
14.937615515932007
31
0
0
ARC
5
109
100
AcDbEntity
8
OUTER_PROFILES
100
AcDbCircle
10
-4.7549890627101954
20
14.690693430783224
30
0
40
0.24999999999999986
210
0
220
0
230
-1
100
AcDbArc
50
81.000000000000554
51
90.000000000000398
0
LINE
5
110
100
AcDbEntity
8
OUTER_PROFILES
100
AcDbLine
10
4.7549890627101972
20
14.940693430783222
30
0
11
8.7749999999957424
21
14.940693430783217
31
0
0
ARC
5
111
100
AcDbEntity
8
OUTER_PROFILES
100
AcDbCircle
10
-8.7749999999957424
20
15.190693430783217
30
0
40
0.25000000000000061
210
0
220
0
230
-1
100
AcDbArc
50
180
51
270
0
LINE
5
112
100
AcDbEntity
8
OUTER_PROFILES
100
AcDbLine
10
9.0249999999957424
20
15.190693430783217
30
0
11
9.0249999999957424
21
15.25319343078796
31
0
0
LINE
5
113
100
AcDbEntity
8
OUTER_PROFILES
100
AcDbLine
10
9.0249999999957424
20
15.25319343078796
30
0
11
11.648750154421089
21
15.253193430787954
31
0
0
ARC
5
114
100
AcDbEntity
8
OUTER_PROFILES
100
AcDbCircle
10
-11.684016994370289
20
15.005693430787959
30
0
40
0.24999999999999956
210
0
220
0
230
-1
100
AcDbArc
50
81.890385543997667
51
90
0
LINE
5
115
100
AcDbEntity
8
OUTER_PROFILES
100
AcDbLine
10
11.684016994370289
20
15.255693430787961
30
0
11
13.187499999995323
21
15.255693430787959
31
0
0
ARC
5
116
100
AcDbEntity
8
OUTER_PROFILES
100
AcDbCircle
10
-13.187499999995323
20
15.005693430787959
30
0
40
0.2499999999999992
210
-0
220
0
230
-1
100
AcDbArc
50
90
51
98.109614456006085
0
LINE
5
117
100
AcDbEntity
8
OUTER_PROFILES
100
AcDbLine
10
13.222766839944539
20
15.253193430787951
30
0
11
14.424999999996009
21
15.253193430787949
31
0
0
ARC
5
118
100
AcDbEntity
8
OUTER_PROFILES
100
AcDbCircle
10
14.424999999996009
20
15.003193430787949
30
0
40
0.2499999999999992
210
0
220
0
230
1
100
AcDbArc
50
0
51
90
0
LINE
5
119
100
AcDbEntity
8
OUTER_PROFILES
100
AcDbLine
10
14.674999999996007
20
15.003193430787949
30
0
11
14.674999999996011
21
13.738881990044975
31
0
0
ARC
5
120
100
AcDbEntity
8
OUTER_PROFILES
100
AcDbCircle
10
-14.924999999996013
20
13.738881990044975
30
0
40
0.24999999999999906
210
-0
220
0
230
-1
100
AcDbArc
50
-85.121392283383756
51
0
0
ARC
5
121
100
AcDbEntity
8
OUTER_PROFILES
100
AcDbCircle
10
-14.882477542018945
20
13.240693430794975
30
0
40
0.25000000000000183
210
0
220
0
230
-1
100
AcDbArc
50
94.878607716616173
51
157.65127482416526
0
LINE
5
122
100
AcDbEntity
8
OUTER_PROFILES
100
AcDbLine
10
15.113699214207085
20
13.335754139347562
30
0
11
16.049999999995986
21
11.058335459668656
31
0
0
LINE
5
123
100
AcDbEntity
8
OUTER_PROFILES
100
AcDbLine
10
16.049999999995986
20
11.058335459668656
30
0
11
16.213534183155737
21
10.665175162239965
31
0
0
SPLINE
5
124
100
AcDbEntity
8
OUTER_PROFILES
100
AcDbSpline
70
0
71
3
72
23
73
19
74
0
42
0.000000001
43
0.0000000001
44
0.0000000001
40
-8.099889179475694
40
-8.099889179475694
40
-8.099889179475694
40
-8.099889179475694
40
-6.0763890390375384
40
-6.0763890390375384
40
-6.0763890390375384
40
-5.063852577806629
40
-5.063852577806629
40
-5.063852577806629
40
-4.0505983357800837
40
-4.0505983357800837
40
-4.0505983357800837
40
-3.0378010928800032
40
-3.0378010928800032
40
-3.0378010928800032
40
-2.0251785576646242
40
-2.0251785576646242
40
-2.0251785576646242
40
-0
40
-0
40
-0
40
-0
10
16.213534183155737
20
10.665175162239965
30
0
10
16.372814062199112
20
10.455038007526232
30
0
10
16.537812133858779
20
10.248774164474817
30
0
10
16.70473249758977
20
10.044352503220431
30
0
10
16.788257549563802
20
9.9420622283896911
30
0
10
16.872141322653334
20
9.8404103687439921
30
0
10
16.956355598456625
20
9.7389264301605181
30
0
10
17.040629573235908
20
9.6373705502445901
30
0
10
17.125258514701084
20
9.5359546014607055
30
0
10
17.209839908208124
20
9.4346583326790778
30
0
10
17.294383153715032
20
9.3334077506603936
30
0
10
17.378960038179663
20
9.2321956169017234
30
0
10
17.46347231092393
20
9.1307837019509304
30
0
10
17.54797000528777
20
9.0293892805715164
30
0
10
17.632374430044546
20
8.9278283056853063
30
0
10
17.716420783736361
20
8.8260647645883523
30
0
10
17.884507970646883
20
8.6225443665974613
30
0
10
18.051296088051789
20
8.4180816064219979
30
0
10
18.215654987640765
20
8.2117084950353387
30
0
0
LINE
5
125
100
AcDbEntity
8
OUTER_PROFILES
100
AcDbLine
10
18.215654987640765
20
8.2117084950353387
30
0
11
18.313871551823272
21
8.0990780468463939
31
0
0
SPLINE
5
126
100
AcDbEntity
8
OUTER_PROFILES
100
AcDbSpline
70
0
71
3
72
10
73
6
74
0
42
0.000000001
43
0.0000000001
44
0.0000000001
40
-9.8477796123589414
40
-9.8477796123589414
40
-9.8477796123589414
40
-9.8477796123589414
40
-4.8244996102775373
40
-4.8244996102775373
40
-0
40
-0
40
-0
40
-0
10
20.249911512802427
20
4.7543575407103287
30
0
10
20.015226005806777
20
5.3711039158112417
30
0
10
19.732572192477171
20
5.971875592001302
30
0
10
19.084790831463081
20
7.090988650277624
30
0
10
18.72157785055499
20
7.6146842863162494
30
0
10
18.313871551823269
20
8.0990780468463868
30
0
0
SPLINE
5
127
100
AcDbEntity
8
OUTER_PROFILES
100
AcDbSpline
70
0
71
3
72
35
73
31
74
0
42
0.000000001
43
0.0000000001
44
0.0000000001
40
0
40
0
40
0
40
0
40
0.125
40
0.125
40
0.125
40
0.25
40
0.25
40
0.25
40
0.37499999999999994
40
0.37499999999999994
40
0.37499999999999994
40
0.5
40
0.5
40
0.5
40
0.5625
40
0.5625
40
0.5625
40
0.625
40
0.625
40
0.625
40
0.75
40
0.75
40
0.75
40
0.875
40
0.875
40
0.875
40
0.93749999999999989
40
0.93749999999999989
40
0.93749999999999989
40
1
40
1
40
1
40
1
10
20.249911512817146
20
4.754357540710326
30
0
10
20.314145515585949
20
4.5875626630472937
30
0
10
20.376754844587875
20
4.4201079873667259
30
0
10
20.43688593201805
20
4.2523048456966821
30
0
10
20.497017019448226
20
4.0845017040266347
30
0
10
20.55474243950135
20
3.9161692845763456
30
0
10
20.609606705062046
20
3.7465656572973152
30
0
10
20.664470970622741
20
3.5769620300182892
30
0
10
20.716526607242507
20
3.4058437711291565
30
0
10
20.764770907564181
20
3.2343460986395778
30
0
10
20.813015207885854
20
3.0628484261499951
30
0
10
20.857578943778908
20
2.8906051056656707
30
0
10
20.898039439109962
20
2.7168712796889269
30
0
10
20.918269686775485
20
2.6300043667005557
30
0
10
20.937489279737886
20
2.5426785749345879
30
0
10
20.955482446632814
20
2.4555998420379397
30
0
10
20.973475613527739
20
2.3685211091412914
30
0
10
20.990283799986418
20
2.2815219538142264
30
0
10
21.00588283918708
20
2.1945178856720218
30
0
10
21.037080917588401
20
2.0205097493876023
30
0
10
21.06344187832909
20
1.8464827943058428
30
0
10
21.084776485052291
20
1.6717661521812022
30
0
10
21.106111091775499
20
1.497049510056556
30
0
10
21.12240792061792
20
1.3216449517361124
30
0
10
21.133384674371463
20
1.1448368036599301
30
0
10
21.138873051248236
20
1.0564327296218361
30
0
10
21.143017744545446
20
0.96767524232628432
30
0
10
21.145802278389048
20
0.87847000846078849
30
0
10
21.148586812232654
20
0.78926477459530386
30
0
10
21.149999999815819
20
0.69979064443321448
30
0
10
21.149999999815822
20
0.61049999999951743
30
0
0
LINE
5
128
100
AcDbEntity
8
OUTER_PROFILES
100
AcDbLine
10
21.149999999815826
20
0.61049999999951754
30
0
11
21.149999999815638
21
0
31
0
0
LINE
5
129
100
AcDbEntity
8
OUTER_PROFILES
100
AcDbLine
10
21.149999999815638
20
0
30
0
11
0
21
0
31
0
0
LWPOLYLINE
5
130
100
AcDbEntity
8
INTERIOR_PROFILES
100
AcDbPolyline
90
2
70
1
43
0.0
10
1.889850312834952
20
0.61049999999953142
42
-0.90167835483658654
0
LWPOLYLINE
5
131
100
AcDbEntity
8
INTERIOR_PROFILES
100
AcDbPolyline
90
2
70
1
43
0.0
10
13.3898503128349
20
0.61049999999952587
42
-0.90167835483656877
0
CIRCLE
5
132
100
AcDbEntity
8
INTERIOR_PROFILES
100
AcDbCircle
10
-0.99999999999998279
20
13.940693430794555
30
0
40
0.14059999999999956
210
-0
220
0
230
-1
0
CIRCLE
5
133
100
AcDbEntity
8
INTERIOR_PROFILES
100
AcDbCircle
10
-14
20
6.4160832879841463
30
0
40
0.14059999999999884
210
-0
220
0
230
-1
0
CIRCLE
5
134
100
AcDbEntity
8
INTERIOR_PROFILES
100
AcDbCircle
10
11.249999999992978
20
14.815193430787959
30
0
40
0.14059999999999956
210
-0
220
0
230
1
0
CIRCLE
5
135
100
AcDbEntity
8
INTERIOR_PROFILES
100
AcDbCircle
10
-1.0000000000000191
20
6.4267195194154709
30
0
40
0.14059999999999956
210
-0
220
0
230
-1
0
LINE
5
136
100
AcDbEntity
8
BEND
100
AcDbLine
10
17.206680751284527
20
9.4384418286465994
30
1.720007257287992e-13
11
5.5948246910244104e-15
21
9.4384418286376537
31
1.6771099416227968e-13
0
LINE
5
137
100
AcDbEntity
8
BEND
100
AcDbLine
10
20.906002076477428
20
2.6824287703549174
30
-3.4410560606902395e-07
11
5.5948246910244104e-15
21
2.6824287703549174
31
-3.4410560590684673e-07
0
LINE
5
138
100
AcDbEntity
8
BEND
100
AcDbLine
10
16.131767610060113
20
10.861755494942701
30
2.609732353690585e-14
11
2.7974123455122052e-15
21
10.861755310954344
31
2.6097254839571405e-14
0
LINE
5
139
100
AcDbEntity
8
BEND
100
AcDbLine
10
18.264763269731983
20
8.1553932709408503
30
2.4875705726385005e-13
11
5.5948246910244104e-15
21
8.1553932709408503
31
2.4994873956134604e-13
0
LINE
5
140
100
AcDbEntity
8
BEND_EXTENT
100
AcDbLine
10
16.049999999995986
20
11.058335459668656
30
7.8327620985626448e-14
11
5.5948246910244104e-15
21
11.058335459668656
31
2.2379298764097642e-14
0
LINE
5
141
100
AcDbEntity
8
BEND_EXTENT
100
AcDbLine
10
16.213534183155737
20
10.66517516223997
30
7.2732797061952167e-14
11
5.5948246910244104e-15
21
10.665175162239967
31
1.2308614320253702e-13
0
LINE
5
142
100
AcDbEntity
8
BEND_EXTENT
100
AcDbLine
10
18.215654987640747
20
8.2117084950353263
30
2.2379307311414643e-13
11
5.5948246910244104e-15
21
8.2117084950353227
31
2.4057746171404965e-13
0
LINE
5
143
100
AcDbEntity
8
BEND_EXTENT
100
AcDbLine
10
18.313871551823272
20
8.0990780468463939
30
2.2938789826603162e-13
11
5.5948246910244104e-15
21
8.0990780468463868
31
2.0141368887687879e-13
0
LINE
5
144
100
AcDbEntity
8
BEND_EXTENT
100
AcDbLine
10
20.249911512810016
20
4.7543575407097132
30
-3.5381671251019873e-11
11
5.5948246910244104e-15
21
4.7543575407103287
31
-3.5376076521347346e-11
0
ENDSEC
0
SECTION
2
OBJECTS
0
DICTIONARY
5
C
100
AcDbDictionary
3
ACAD_GROUP
350
D
3
ACAD_MLINESTYLE
350
17
0
DICTIONARY
5
D
100
AcDbDictionary
0
DICTIONARY
5
1A
330
C
100
AcDbDictionary
0
DICTIONARY
5
17
100
AcDbDictionary
0
ENDSEC
0
EOF
