<?xml version="1.0" encoding="utf-8"?>
<!-- Generator: Fusion 360, Shaper Origin Export Add-In, Version 1.6.10  -->
<svg xmlns="http://www.w3.org/2000/svg" xmlns:xlink="http://www.w3.org/1999/xlink" xmlns:shaper="http://www.shapertools.com/namespaces/shaper" shaper:fusionaddin="version:1.6.10" width="40.22725cm" height="19.75866cm" version="1.1" x="0cm" y="0cm" viewBox="0 0 40.22725 19.75866" enable-background="new 0 0 40.22725 19.75866" xml:space="preserve"><path d="M20.113625,-8.92683 L20.113625,8.92683 A0.3175,0.3175 0 0,1 19.796125,9.24433 L19.034125,9.24433 A0.3175,0.3175 270 0,0 18.716625,9.56183 L18.716625,9.87933 -20.113625,9.87933 -20.113625,-9.87933 18.716625,-9.87933 18.716625,-9.56183 A0.3175,0.3175 180 0,0 19.034125,-9.24433 L19.796125,-9.24433 A0.3175,0.3175 270 0,1 20.113625,-8.92683z" transform="matrix(1,0,0,-1,20.113625,9.87933)" fill="rgb(0,0,0)" stroke-linecap="round" stroke-linejoin="round" /><path d="M10.9620566,8.291835 a0.357124,0.357124 0 1,1 0.714248,0 a0.357124,0.357124 0 1,1 -0.714248,0z" transform="matrix(1,0,0,-1,20.113625,9.87933)" fill="rgb(255,255,255)" stroke="rgb(0,0,0)" stroke-width="0.0010cm" stroke-linecap="round" stroke-linejoin="round" /><path d="M10.961751,-8.29183 a0.357124,0.357124 0 1,1 0.714248,0 a0.357124,0.357124 0 1,1 -0.714248,0z" transform="matrix(1,0,0,-1,20.113625,9.87933)" fill="rgb(255,255,255)" stroke="rgb(0,0,0)" stroke-width="0.0010cm" stroke-linecap="round" stroke-linejoin="round" /><path d="M-15.390749,-8.29183 a0.357124,0.357124 0 1,1 0.714248,0 a0.357124,0.357124 0 1,1 -0.714248,0z" transform="matrix(1,0,0,-1,20.113625,9.87933)" fill="rgb(255,255,255)" stroke="rgb(0,0,0)" stroke-width="0.0010cm" stroke-linecap="round" stroke-linejoin="round" /><path d="M-15.3904434,8.291825 a0.357124,0.357124 0 1,1 0.714248,0 a0.357124,0.357124 0 1,1 -0.714248,0z" transform="matrix(1,0,0,-1,20.113625,9.87933)" fill="rgb(255,255,255)" stroke="rgb(0,0,0)" stroke-width="0.0010cm" stroke-linecap="round" stroke-linejoin="round" /></svg>