<?xml version="1.0" encoding="utf-8"?>
<!-- Generator: Fusion 360, Shaper Origin Export Add-In, Version 1.6.10  -->
<svg xmlns="http://www.w3.org/2000/svg" xmlns:xlink="http://www.w3.org/1999/xlink" xmlns:shaper="http://www.shapertools.com/namespaces/shaper" shaper:fusionaddin="version:1.6.10" width="53.594cm" height="23.01875cm" version="1.1" x="0cm" y="0cm" viewBox="0 0 53.594 23.01875" enable-background="new 0 0 53.594 23.01875" xml:space="preserve"><path d="M-10.9002947,8.0745468 L-16.6290625,3.3970794 -16.6290625,-11.509375 1.1191875,-11.509375 1.1191875,-10.5696726 1.7541875,-10.5696726 A0.635,0.635 270 0,1 2.3891875,-9.9346726 L2.3891875,-7.318375 A0.635,0.635 180 0,0 3.0241875,-6.683375 L17.3116875,-6.683375 A0.635,0.635 90 0,0 17.9466875,-7.318375 L17.9466875,-9.9346726 A0.635,0.635 180 0,1 18.5816875,-10.5696726 L19.2166875,-10.5696726 19.2166875,-11.509375 36.9649375,-11.509375 36.9649375,3.3970794 31.2361697,8.0745468 A15.24,15.24 50.7703731 0,1 21.5979375,11.509375 L19.0947675,11.509375 19.0947675,7.794625 1.2411075,7.794625 1.2411075,11.509375 -1.2620625,11.509375 A15.24,15.24 90 0,1 -10.9002947,8.0745468z" transform="matrix(1,0,0,-1,16.6290625,11.509375)" fill="rgb(0,0,0)" stroke-linecap="round" stroke-linejoin="round" /><path d="M36.2048425,-0.4034161 a0.245745,0.245745 0 1,1 0.49149,0 a0.245745,0.245745 0 1,1 -0.49149,0z" transform="matrix(1,0,0,-1,16.6290625,11.509375)" fill="rgb(255,255,255)" stroke="rgb(0,0,0)" stroke-width="0.0010cm" stroke-linecap="round" stroke-linejoin="round" /><path d="M33.1280894,5.7391994 a0.215265,0.215265 0 1,1 0.43053,0 a0.215265,0.215265 0 1,1 -0.43053,0z" transform="matrix(1,0,0,-1,16.6290625,11.509375)" fill="rgb(255,255,255)" stroke="rgb(0,0,0)" stroke-width="0.0010cm" stroke-linecap="round" stroke-linejoin="round" /><path d="M19.8015225,6.0837087 a0.245745,0.245745 0 1,1 0.49149,0 a0.245745,0.245745 0 1,1 -0.49149,0z" transform="matrix(1,0,0,-1,16.6290625,11.509375)" fill="rgb(255,255,255)" stroke="rgb(0,0,0)" stroke-width="0.0010cm" stroke-linecap="round" stroke-linejoin="round" /><path d="M0.0428625,9.604375 a0.245745,0.245745 0 1,1 0.49149,0 a0.245745,0.245745 0 1,1 -0.49149,0z" transform="matrix(1,0,0,-1,16.6290625,11.509375)" fill="rgb(255,255,255)" stroke="rgb(0,0,0)" stroke-width="0.0010cm" stroke-linecap="round" stroke-linejoin="round" /><path d="M-13.2229928,5.7390205 a0.215265,0.215265 0 1,1 0.43053,0 a0.215265,0.215265 0 1,1 -0.43053,0z" transform="matrix(1,0,0,-1,16.6290625,11.509375)" fill="rgb(255,255,255)" stroke="rgb(0,0,0)" stroke-width="0.0010cm" stroke-linecap="round" stroke-linejoin="round" /><path d="M-16.3604575,-4.1054024 a0.245745,0.245745 0 1,1 0.49149,0 a0.245745,0.245745 0 1,1 -0.49149,0z" transform="matrix(1,0,0,-1,16.6290625,11.509375)" fill="rgb(255,255,255)" stroke="rgb(0,0,0)" stroke-width="0.0010cm" stroke-linecap="round" stroke-linejoin="round" /><path d="M1.5389225,-7.3088012 a0.215265,0.215265 0 1,1 0.43053,0 a0.215265,0.215265 0 1,1 -0.43053,0z" transform="matrix(1,0,0,-1,16.6290625,11.509375)" fill="rgb(255,255,255)" stroke="rgb(0,0,0)" stroke-width="0.0010cm" stroke-linecap="round" stroke-linejoin="round" /><path d="M18.3664225,-7.3088012 a0.215265,0.215265 0 1,1 0.43053,0 a0.215265,0.215265 0 1,1 -0.43053,0z" transform="matrix(1,0,0,-1,16.6290625,11.509375)" fill="rgb(255,255,255)" stroke="rgb(0,0,0)" stroke-width="0.0010cm" stroke-linecap="round" stroke-linejoin="round" /><path d="M18.3664225,-9.9346726 a0.215265,0.215265 0 1,1 0.43053,0 a0.215265,0.215265 0 1,1 -0.43053,0z" transform="matrix(1,0,0,-1,16.6290625,11.509375)" fill="rgb(255,255,255)" stroke="rgb(0,0,0)" stroke-width="0.0010cm" stroke-linecap="round" stroke-linejoin="round" /><path d="M1.5389225,-9.9346726 a0.215265,0.215265 0 1,1 0.43053,0 a0.215265,0.215265 0 1,1 -0.43053,0z" transform="matrix(1,0,0,-1,16.6290625,11.509375)" fill="rgb(255,255,255)" stroke="rgb(0,0,0)" stroke-width="0.0010cm" stroke-linecap="round" stroke-linejoin="round" /><path d="M13.9779375,4.048125 L13.9779375,-2.936875 A1.27,1.27 0 0,0 12.7079375,-4.206875 L7.6279375,-4.206875 A1.27,1.27 270 0,0 6.3579375,-2.936875 L6.3579375,4.048125 A1.27,1.27 180 0,0 7.6279375,5.318125 L12.7079375,5.318125 A1.27,1.27 90 0,0 13.9779375,4.048125z" transform="matrix(1,0,0,-1,16.6290625,11.509375)" fill="rgb(255,255,255)" stroke="rgb(0,0,0)" stroke-width="0.0010cm" stroke-linecap="round" stroke-linejoin="round" /><path d="M-13.9779375,-8.119011 L-13.9779375,1.038761 A1.326614,1.326614 180 0,0 -12.6513235,2.365375 L-3.4935515,2.365375 A1.326614,1.326614 90 0,0 -2.1669375,1.038761 L-2.1669375,-8.119011 A1.326614,1.326614 0 0,0 -3.4935515,-9.445625 L-12.6513235,-9.445625 A1.326614,1.326614 270 0,0 -13.9779375,-8.119011z" transform="matrix(1,0,0,-1,16.6290625,11.509375)" fill="rgb(255,255,255)" stroke="rgb(0,0,0)" stroke-width="0.0010cm" stroke-linecap="round" stroke-linejoin="round" /><path d="M27.4060375,9.826625 L27.4060375,7.6865903 A0.635,0.635 0 0,0 26.7710375,7.0515903 L23.8933375,7.0515903 A0.635,0.635 270 0,0 23.2583375,7.6865903 L23.2583375,9.445625 A0.635,0.635 180 0,0 23.8933375,10.080625 L27.1520375,10.080625 A0.254,0.254 90 0,0 27.4060375,9.826625z" transform="matrix(1,0,0,-1,16.6290625,11.509375)" fill="rgb(255,255,255)" stroke="rgb(0,0,0)" stroke-width="0.0010cm" stroke-linecap="round" stroke-linejoin="round" /><path d="M22.5028125,-8.119011 L22.5028125,1.038761 A1.326614,1.326614 180 0,0 23.8294265,2.365375 L32.9871985,2.365375 A1.326614,1.326614 90 0,0 34.3138125,1.038761 L34.3138125,-8.119011 A1.326614,1.326614 0 0,0 32.9871985,-9.445625 L23.8294265,-9.445625 A1.326614,1.326614 270 0,0 22.5028125,-8.119011z" transform="matrix(1,0,0,-1,16.6290625,11.509375)" fill="rgb(255,255,255)" stroke="rgb(0,0,0)" stroke-width="0.0010cm" stroke-linecap="round" stroke-linejoin="round" /><path d="M30.9483125,3.921125 L25.8683125,3.921125 A0.8636,0.8636 270 0,0 25.8683125,5.648325 L30.9483125,5.648325 A0.8636,0.8636 90 1,0 30.9483125,3.921125z" transform="matrix(1,0,0,-1,16.6290625,11.509375)" fill="rgb(255,255,255)" stroke="rgb(0,0,0)" stroke-width="0.0010cm" stroke-linecap="round" stroke-linejoin="round" /><path d="M-3.5574625,7.0515903 L-6.4351625,7.0515903 A0.635,0.635 270 0,0 -7.0701625,7.6865903 L-7.0701625,9.826625 A0.254,0.254 180 0,0 -6.8161625,10.080625 L-3.5574625,10.080625 A0.635,0.635 90 0,0 -2.9224625,9.445625 L-2.9224625,7.6865903 A0.635,0.635 0 0,0 -3.5574625,7.0515903z" transform="matrix(1,0,0,-1,16.6290625,11.509375)" fill="rgb(255,255,255)" stroke="rgb(0,0,0)" stroke-width="0.0010cm" stroke-linecap="round" stroke-linejoin="round" /><path d="M-10.6124375,5.648325 L-5.5324375,5.648325 A0.8636,0.8636 90 1,0 -5.5324375,3.921125 L-10.6124375,3.921125 A0.8636,0.8636 270 0,0 -10.6124375,5.648325z" transform="matrix(1,0,0,-1,16.6290625,11.509375)" fill="rgb(255,255,255)" stroke="rgb(0,0,0)" stroke-width="0.0010cm" stroke-linecap="round" stroke-linejoin="round" /><path d="M17.9070635,-6.048375 a0.357124,0.357124 0 1,1 0.714248,0 a0.357124,0.357124 0 1,1 -0.714248,0z" transform="matrix(1,0,0,-1,16.6290625,11.509375)" fill="rgb(255,255,255)" stroke="rgb(0,0,0)" stroke-width="0.0010cm" stroke-linecap="round" stroke-linejoin="round" /><path d="M16.3068635,5.381625 a0.357124,0.357124 0 1,1 0.714248,0 a0.357124,0.357124 0 1,1 -0.714248,0z" transform="matrix(1,0,0,-1,16.6290625,11.509375)" fill="rgb(255,255,255)" stroke="rgb(0,0,0)" stroke-width="0.0010cm" stroke-linecap="round" stroke-linejoin="round" /><path d="M1.7145635,-6.048375 a0.357124,0.357124 0 1,1 0.714248,0 a0.357124,0.357124 0 1,1 -0.714248,0z" transform="matrix(1,0,0,-1,16.6290625,11.509375)" fill="rgb(255,255,255)" stroke="rgb(0,0,0)" stroke-width="0.0010cm" stroke-linecap="round" stroke-linejoin="round" /><path d="M3.3147635,5.381625 a0.357124,0.357124 0 1,1 0.714248,0 a0.357124,0.357124 0 1,1 -0.714248,0z" transform="matrix(1,0,0,-1,16.6290625,11.509375)" fill="rgb(255,255,255)" stroke="rgb(0,0,0)" stroke-width="0.0010cm" stroke-linecap="round" stroke-linejoin="round" /><path d="M-11.2931575,3.32618 a0.17272,0.17272 0 1,1 0.34544,0 a0.17272,0.17272 0 1,1 -0.34544,0z" transform="matrix(1,0,0,-1,16.6290625,11.509375)" fill="rgb(255,255,255)" stroke="rgb(0,0,0)" stroke-width="0.0010cm" stroke-linecap="round" stroke-linejoin="round" /><path d="M25.1875925,3.32618 a0.17272,0.17272 0 1,1 0.34544,0 a0.17272,0.17272 0 1,1 -0.34544,0z" transform="matrix(1,0,0,-1,16.6290625,11.509375)" fill="rgb(255,255,255)" stroke="rgb(0,0,0)" stroke-width="0.0010cm" stroke-linecap="round" stroke-linejoin="round" /><path d="M23.2349675,-10.874375 a0.17272,0.17272 0 1,1 0.34544,0 a0.17272,0.17272 0 1,1 -0.34544,0z" transform="matrix(1,0,0,-1,16.6290625,11.509375)" fill="rgb(255,255,255)" stroke="rgb(0,0,0)" stroke-width="0.0010cm" stroke-linecap="round" stroke-linejoin="round" /><path d="M33.2362175,-10.874375 a0.17272,0.17272 0 1,1 0.34544,0 a0.17272,0.17272 0 1,1 -0.34544,0z" transform="matrix(1,0,0,-1,16.6290625,11.509375)" fill="rgb(255,255,255)" stroke="rgb(0,0,0)" stroke-width="0.0010cm" stroke-linecap="round" stroke-linejoin="round" /><path d="M31.2835925,3.32618 a0.17272,0.17272 0 1,1 0.34544,0 a0.17272,0.17272 0 1,1 -0.34544,0z" transform="matrix(1,0,0,-1,16.6290625,11.509375)" fill="rgb(255,255,255)" stroke="rgb(0,0,0)" stroke-width="0.0010cm" stroke-linecap="round" stroke-linejoin="round" /><path d="M-13.2457825,-10.874375 a0.17272,0.17272 0 1,1 0.34544,0 a0.17272,0.17272 0 1,1 -0.34544,0z" transform="matrix(1,0,0,-1,16.6290625,11.509375)" fill="rgb(255,255,255)" stroke="rgb(0,0,0)" stroke-width="0.0010cm" stroke-linecap="round" stroke-linejoin="round" /><path d="M-3.2445325,-10.874375 a0.17272,0.17272 0 1,1 0.34544,0 a0.17272,0.17272 0 1,1 -0.34544,0z" transform="matrix(1,0,0,-1,16.6290625,11.509375)" fill="rgb(255,255,255)" stroke="rgb(0,0,0)" stroke-width="0.0010cm" stroke-linecap="round" stroke-linejoin="round" /><path d="M-5.1971575,3.32618 a0.17272,0.17272 0 1,1 0.34544,0 a0.17272,0.17272 0 1,1 -0.34544,0z" transform="matrix(1,0,0,-1,16.6290625,11.509375)" fill="rgb(255,255,255)" stroke="rgb(0,0,0)" stroke-width="0.0010cm" stroke-linecap="round" stroke-linejoin="round" /><path d="M30.7940075,7.2771 a0.26543,0.26543 0 1,1 0.53086,0 a0.26543,0.26543 0 1,1 -0.53086,0z" transform="matrix(1,0,0,-1,16.6290625,11.509375)" fill="rgb(255,255,255)" stroke="rgb(0,0,0)" stroke-width="0.0010cm" stroke-linecap="round" stroke-linejoin="round" /><path d="M20.1006075,10.683875 a0.26543,0.26543 0 1,1 0.53086,0 a0.26543,0.26543 0 1,1 -0.53086,0z" transform="matrix(1,0,0,-1,16.6290625,11.509375)" fill="rgb(255,255,255)" stroke="rgb(0,0,0)" stroke-width="0.0010cm" stroke-linecap="round" stroke-linejoin="round" /><path d="M20.1006075,3.056856 a0.26543,0.26543 0 1,1 0.53086,0 a0.26543,0.26543 0 1,1 -0.53086,0z" transform="matrix(1,0,0,-1,16.6290625,11.509375)" fill="rgb(255,255,255)" stroke="rgb(0,0,0)" stroke-width="0.0010cm" stroke-linecap="round" stroke-linejoin="round" /><path d="M-0.2955925,3.056856 a0.26543,0.26543 0 1,1 0.53086,0 a0.26543,0.26543 0 1,1 -0.53086,0z" transform="matrix(1,0,0,-1,16.6290625,11.509375)" fill="rgb(255,255,255)" stroke="rgb(0,0,0)" stroke-width="0.0010cm" stroke-linecap="round" stroke-linejoin="round" /><path d="M-0.2955925,10.683875 a0.26543,0.26543 0 1,1 0.53086,0 a0.26543,0.26543 0 1,1 -0.53086,0z" transform="matrix(1,0,0,-1,16.6290625,11.509375)" fill="rgb(255,255,255)" stroke="rgb(0,0,0)" stroke-width="0.0010cm" stroke-linecap="round" stroke-linejoin="round" /><path d="M-10.9889925,7.2771 a0.26543,0.26543 0 1,1 0.53086,0 a0.26543,0.26543 0 1,1 -0.53086,0z" transform="matrix(1,0,0,-1,16.6290625,11.509375)" fill="rgb(255,255,255)" stroke="rgb(0,0,0)" stroke-width="0.0010cm" stroke-linecap="round" stroke-linejoin="round" /><path d="M-16.3604575,-7.8073887 a0.245745,0.245745 0 1,1 0.49149,0 a0.245745,0.245745 0 1,1 -0.49149,0z" transform="matrix(1,0,0,-1,16.6290625,11.509375)" fill="rgb(255,255,255)" stroke="rgb(0,0,0)" stroke-width="0.0010cm" stroke-linecap="round" stroke-linejoin="round" /><path d="M-16.3604575,-0.4034161 a0.245745,0.245745 0 1,1 0.49149,0 a0.245745,0.245745 0 1,1 -0.49149,0z" transform="matrix(1,0,0,-1,16.6290625,11.509375)" fill="rgb(255,255,255)" stroke="rgb(0,0,0)" stroke-width="0.0010cm" stroke-linecap="round" stroke-linejoin="round" /><path d="M-12.4197797,4.7552784 a0.215265,0.215265 0 1,1 0.43053,0 a0.215265,0.215265 0 1,1 -0.43053,0z" transform="matrix(1,0,0,-1,16.6290625,11.509375)" fill="rgb(255,255,255)" stroke="rgb(0,0,0)" stroke-width="0.0010cm" stroke-linecap="round" stroke-linejoin="round" /><path d="M0.0428625,6.0837087 a0.245745,0.245745 0 1,1 0.49149,0 a0.245745,0.245745 0 1,1 -0.49149,0z" transform="matrix(1,0,0,-1,16.6290625,11.509375)" fill="rgb(255,255,255)" stroke="rgb(0,0,0)" stroke-width="0.0010cm" stroke-linecap="round" stroke-linejoin="round" /><path d="M19.8015225,9.604375 a0.245745,0.245745 0 1,1 0.49149,0 a0.245745,0.245745 0 1,1 -0.49149,0z" transform="matrix(1,0,0,-1,16.6290625,11.509375)" fill="rgb(255,255,255)" stroke="rgb(0,0,0)" stroke-width="0.0010cm" stroke-linecap="round" stroke-linejoin="round" /><path d="M32.3248762,4.7554573 a0.215265,0.215265 0 1,1 0.43053,0 a0.215265,0.215265 0 1,1 -0.43053,0z" transform="matrix(1,0,0,-1,16.6290625,11.509375)" fill="rgb(255,255,255)" stroke="rgb(0,0,0)" stroke-width="0.0010cm" stroke-linecap="round" stroke-linejoin="round" /><path d="M36.2048425,-7.8073887 a0.245745,0.245745 0 1,1 0.49149,0 a0.245745,0.245745 0 1,1 -0.49149,0z" transform="matrix(1,0,0,-1,16.6290625,11.509375)" fill="rgb(255,255,255)" stroke="rgb(0,0,0)" stroke-width="0.0010cm" stroke-linecap="round" stroke-linejoin="round" /></svg>