<?xml version="1.0" encoding="utf-8"?>
<!-- Generator: Fusion 360, Shaper Origin Export Add-In, Version 1.6.10  -->
<svg xmlns="http://www.w3.org/2000/svg" xmlns:xlink="http://www.w3.org/1999/xlink" xmlns:shaper="http://www.shapertools.com/namespaces/shaper" shaper:fusionaddin="version:1.6.10" width="62.738cm" height="23.01875cm" version="1.1" x="0cm" y="0cm" viewBox="0 0 62.738 23.01875" enable-background="new 0 0 62.738 23.01875" xml:space="preserve"><path d="M27.8499189,2.1327592 A15.24,15.24 315.3643103 0,1 31.1937381,7.2774071 A2.54,2.54 338.5911179 0,1 31.369,8.2045608 L31.369,16.16075 -31.369,16.16075 -31.369,7.747 A15.2399999,15.2399999 199.5243798 0,1 -27.7495,2.032 L-21.0682322,-3.4231718 A15.24,15.24 230.7703731 0,1 -11.43,-6.858 L-8.92683,-6.858 -8.92683,-3.14325 A0.3175,0.3175 180 0,0 -8.60933,-2.82575 L8.60933,-2.82575 A0.3175,0.3175 90 0,0 8.92683,-3.14325 L8.92683,-6.858 11.43,-6.858 A15.24,15.24 270 0,1 21.0682322,-3.4231718 L27.6489104,1.9498698 A2.54,2.54 309.2312089 0,1 27.8499189,2.1327592z" transform="matrix(1,0,0,-1,31.369,16.16075)" fill="rgb(0,0,0)" stroke-linecap="round" stroke-linejoin="round" /><path d="M-23.79599,11.08075 L-23.79599,13.62075 A1.27,1.27 180 0,0 -22.52599,14.89075 L-13.63599,14.89075 A1.27,1.27 90 0,0 -12.36599,13.62075 L-12.36599,11.08075 A1.27,1.27 0 0,0 -13.63599,9.81075 L-22.52599,9.81075 A1.27,1.27 270 0,0 -23.79599,11.08075z" transform="matrix(1,0,0,-1,31.369,16.16075)" fill="rgb(255,255,255)" stroke="rgb(0,0,0)" stroke-width="0.0010cm" stroke-linecap="round" stroke-linejoin="round" /><path d="M12.36599,11.08075 L12.36599,13.62075 A1.27,1.27 180 0,0 13.63599,14.89075 L22.52599,14.89075 A1.27,1.27 90 0,0 23.79599,13.62075 L23.79599,11.08075 A1.27,1.27 0 0,0 22.52599,9.81075 L13.63599,9.81075 A1.27,1.27 270 0,0 12.36599,11.08075z" transform="matrix(1,0,0,-1,31.369,16.16075)" fill="rgb(255,255,255)" stroke="rgb(0,0,0)" stroke-width="0.0010cm" stroke-linecap="round" stroke-linejoin="round" /><path d="M-5.3975,4.09575 L-5.3975,12.35075 A1.27,1.27 180 0,0 -4.1275,13.62075 L4.1275,13.62075 A1.27,1.27 90 0,0 5.3975,12.35075 L5.3975,4.09575 A1.27,1.27 0 0,0 4.1275,2.82575 L-4.1275,2.82575 A1.27,1.27 270 0,0 -5.3975,4.09575z" transform="matrix(1,0,0,-1,31.369,16.16075)" fill="rgb(255,255,255)" stroke="rgb(0,0,0)" stroke-width="0.0010cm" stroke-linecap="round" stroke-linejoin="round" /><path d="M24.7028757,0.3350639 a0.215265,0.215265 0 1,1 0.43053,0 a0.215265,0.215265 0 1,1 -0.43053,0z" transform="matrix(1,0,0,-1,31.369,16.16075)" fill="rgb(255,255,255)" stroke="rgb(0,0,0)" stroke-width="0.0010cm" stroke-linecap="round" stroke-linejoin="round" /><path d="M23.8996625,1.318806 a0.215265,0.215265 0 1,1 0.43053,0 a0.215265,0.215265 0 1,1 -0.43053,0z" transform="matrix(1,0,0,-1,31.369,16.16075)" fill="rgb(255,255,255)" stroke="rgb(0,0,0)" stroke-width="0.0010cm" stroke-linecap="round" stroke-linejoin="round" /><path d="M-24.3304175,1.3190136 a0.215265,0.215265 0 1,1 0.43053,0 a0.215265,0.215265 0 1,1 -0.43053,0z" transform="matrix(1,0,0,-1,31.369,16.16075)" fill="rgb(255,255,255)" stroke="rgb(0,0,0)" stroke-width="0.0010cm" stroke-linecap="round" stroke-linejoin="round" /><path d="M-25.1336307,0.3352715 a0.215265,0.215265 0 1,1 0.43053,0 a0.215265,0.215265 0 1,1 -0.43053,0z" transform="matrix(1,0,0,-1,31.369,16.16075)" fill="rgb(255,255,255)" stroke="rgb(0,0,0)" stroke-width="0.0010cm" stroke-linecap="round" stroke-linejoin="round" /><path d="M26.1239,13.6927591 a0.15875,0.15875 0 1,1 0.3175,0 a0.15875,0.15875 0 1,1 -0.3175,0z" transform="matrix(1,0,0,-1,31.369,16.16075)" fill="rgb(255,255,255)" stroke="rgb(0,0,0)" stroke-width="0.0010cm" stroke-linecap="round" stroke-linejoin="round" /><path d="M26.1239,3.8207957 a0.15875,0.15875 0 1,1 0.3175,0 a0.15875,0.15875 0 1,1 -0.3175,0z" transform="matrix(1,0,0,-1,31.369,16.16075)" fill="rgb(255,255,255)" stroke="rgb(0,0,0)" stroke-width="0.0010cm" stroke-linecap="round" stroke-linejoin="round" /><path d="M9.72058,-3.0215417 a0.15875,0.15875 0 1,1 0.3175,0 a0.15875,0.15875 0 1,1 -0.3175,0z" transform="matrix(1,0,0,-1,31.369,16.16075)" fill="rgb(255,255,255)" stroke="rgb(0,0,0)" stroke-width="0.0010cm" stroke-linecap="round" stroke-linejoin="round" /><path d="M9.72058,12.3242917 a0.15875,0.15875 0 1,1 0.3175,0 a0.15875,0.15875 0 1,1 -0.3175,0z" transform="matrix(1,0,0,-1,31.369,16.16075)" fill="rgb(255,255,255)" stroke="rgb(0,0,0)" stroke-width="0.0010cm" stroke-linecap="round" stroke-linejoin="round" /><path d="M5.197348,-2.19075 a0.15875,0.15875 0 1,1 0.3175,0 a0.15875,0.15875 0 1,1 -0.3175,0z" transform="matrix(1,0,0,-1,31.369,16.16075)" fill="rgb(255,255,255)" stroke="rgb(0,0,0)" stroke-width="0.0010cm" stroke-linecap="round" stroke-linejoin="round" /><path d="M-5.514848,-2.19075 a0.15875,0.15875 0 1,1 0.3175,0 a0.15875,0.15875 0 1,1 -0.3175,0z" transform="matrix(1,0,0,-1,31.369,16.16075)" fill="rgb(255,255,255)" stroke="rgb(0,0,0)" stroke-width="0.0010cm" stroke-linecap="round" stroke-linejoin="round" /><path d="M-10.03808,12.3242917 a0.15875,0.15875 0 1,1 0.3175,0 a0.15875,0.15875 0 1,1 -0.3175,0z" transform="matrix(1,0,0,-1,31.369,16.16075)" fill="rgb(255,255,255)" stroke="rgb(0,0,0)" stroke-width="0.0010cm" stroke-linecap="round" stroke-linejoin="round" /><path d="M-10.03808,-3.0215417 a0.15875,0.15875 0 1,1 0.3175,0 a0.15875,0.15875 0 1,1 -0.3175,0z" transform="matrix(1,0,0,-1,31.369,16.16075)" fill="rgb(255,255,255)" stroke="rgb(0,0,0)" stroke-width="0.0010cm" stroke-linecap="round" stroke-linejoin="round" /><path d="M-26.4414,3.8207957 a0.15875,0.15875 0 1,1 0.3175,0 a0.15875,0.15875 0 1,1 -0.3175,0z" transform="matrix(1,0,0,-1,31.369,16.16075)" fill="rgb(255,255,255)" stroke="rgb(0,0,0)" stroke-width="0.0010cm" stroke-linecap="round" stroke-linejoin="round" /><path d="M-26.4414,13.6927591 a0.15875,0.15875 0 1,1 0.3175,0 a0.15875,0.15875 0 1,1 -0.3175,0z" transform="matrix(1,0,0,-1,31.369,16.16075)" fill="rgb(255,255,255)" stroke="rgb(0,0,0)" stroke-width="0.0010cm" stroke-linecap="round" stroke-linejoin="round" /></svg>