<?xml version="1.0" encoding="utf-8"?>
<!-- Generator: Fusion 360, Shaper Origin Export Add-In, Version 1.6.10  -->
<svg xmlns="http://www.w3.org/2000/svg" xmlns:xlink="http://www.w3.org/1999/xlink" xmlns:shaper="http://www.shapertools.com/namespaces/shaper" shaper:fusionaddin="version:1.6.10" width="34.29cm" height="14.8079451cm" version="1.1" x="0cm" y="0cm" viewBox="0 0 34.29 14.8079451" enable-background="new 0 0 34.29 14.8079451" xml:space="preserve"><path d="M17.145,-7.4039726 L17.145,7.4039726 -17.145,7.4039726 -17.145,-7.4039726 17.145,-7.4039726z" transform="matrix(1,0,0,-1,17.145,7.4039726)" fill="rgb(0,0,0)" stroke-linecap="round" stroke-linejoin="round" /><path d="M13.089255,5.1372774 a0.245745,0.245745 0 1,1 0.49149,0 a0.245745,0.245745 0 1,1 -0.49149,0z" transform="matrix(1,0,0,-1,17.145,7.4039726)" fill="rgb(255,255,255)" stroke="rgb(0,0,0)" stroke-width="0.0010cm" stroke-linecap="round" stroke-linejoin="round" /><path d="M-4.641235,-5.2449726 a0.135255,0.135255 0 1,1 0.27051,0 a0.135255,0.135255 0 1,1 -0.27051,0z" transform="matrix(1,0,0,-1,17.145,7.4039726)" fill="rgb(255,255,255)" stroke="rgb(0,0,0)" stroke-width="0.0010cm" stroke-linecap="round" stroke-linejoin="round" /><path d="M2.851765,-5.2449726 a0.135255,0.135255 0 1,1 0.27051,0 a0.135255,0.135255 0 1,1 -0.27051,0z" transform="matrix(1,0,0,-1,17.145,7.4039726)" fill="rgb(255,255,255)" stroke="rgb(0,0,0)" stroke-width="0.0010cm" stroke-linecap="round" stroke-linejoin="round" /><path d="M3.486765,-0.4189726 a0.135255,0.135255 0 1,1 0.27051,0 a0.135255,0.135255 0 1,1 -0.27051,0z" transform="matrix(1,0,0,-1,17.145,7.4039726)" fill="rgb(255,255,255)" stroke="rgb(0,0,0)" stroke-width="0.0010cm" stroke-linecap="round" stroke-linejoin="round" /><path d="M-13.1189726,0 a5.1814726,5.1814726 0 1,1 10.3629451,0 a5.1814726,5.1814726 0 1,1 -10.3629451,0z" transform="matrix(1,0,0,-1,17.145,7.4039726)" fill="rgb(255,255,255)" stroke="rgb(0,0,0)" stroke-width="0.0010cm" stroke-linecap="round" stroke-linejoin="round" /><path d="M8.009255,-4.9465226 a0.245745,0.245745 0 1,1 0.49149,0 a0.245745,0.245745 0 1,1 -0.49149,0z" transform="matrix(1,0,0,-1,17.145,7.4039726)" fill="rgb(255,255,255)" stroke="rgb(0,0,0)" stroke-width="0.0010cm" stroke-linecap="round" stroke-linejoin="round" /><path d="M13.316505,-4.9465226 a0.245745,0.245745 0 1,1 0.49149,0 a0.245745,0.245745 0 1,1 -0.49149,0z" transform="matrix(1,0,0,-1,17.145,7.4039726)" fill="rgb(255,255,255)" stroke="rgb(0,0,0)" stroke-width="0.0010cm" stroke-linecap="round" stroke-linejoin="round" /></svg>