<?xml version="1.0" encoding="utf-8"?>
<!-- Generator: Fusion 360, Shaper Origin Export Add-In, Version 1.6.10  -->
<svg xmlns="http://www.w3.org/2000/svg" xmlns:xlink="http://www.w3.org/1999/xlink" xmlns:shaper="http://www.shapertools.com/namespaces/shaper" shaper:fusionaddin="version:1.6.10" width="29.845cm" height="17.85366cm" version="1.1" x="0cm" y="0cm" viewBox="0 0 29.845 17.85366" enable-background="new 0 0 29.845 17.85366" xml:space="preserve"><path d="M14.9225,-16.58366 L14.9225,-14.04366 -7.3025,-14.04366 A5.08,5.08 270 0,0 -12.3825,-8.96366 L-12.3825,-6.35 A5.08,5.08 180 0,0 -7.3025,-1.27 L14.9225,-1.27 14.9225,1.27 -14.9225,1.27 -14.9225,-16.58366 14.9225,-16.58366z" transform="matrix(1,0,0,-1,14.9225,1.27)" fill="rgb(0,0,0)" stroke-linecap="round" stroke-linejoin="round" /><path d="M10.549255,-15.551785 a0.245745,0.245745 0 1,1 0.49149,0 a0.245745,0.245745 0 1,1 -0.49149,0z" transform="matrix(1,0,0,-1,14.9225,1.27)" fill="rgb(255,255,255)" stroke="rgb(0,0,0)" stroke-width="0.0010cm" stroke-linecap="round" stroke-linejoin="round" /><path d="M13.406755,-15.551785 a0.245745,0.245745 0 1,1 0.49149,0 a0.245745,0.245745 0 1,1 -0.49149,0z" transform="matrix(1,0,0,-1,14.9225,1.27)" fill="rgb(255,255,255)" stroke="rgb(0,0,0)" stroke-width="0.0010cm" stroke-linecap="round" stroke-linejoin="round" /><path d="M13.406755,0.238125 a0.245745,0.245745 0 1,1 0.49149,0 a0.245745,0.245745 0 1,1 -0.49149,0z" transform="matrix(1,0,0,-1,14.9225,1.27)" fill="rgb(255,255,255)" stroke="rgb(0,0,0)" stroke-width="0.0010cm" stroke-linecap="round" stroke-linejoin="round" /><path d="M10.549255,0.238125 a0.245745,0.245745 0 1,1 0.49149,0 a0.245745,0.245745 0 1,1 -0.49149,0z" transform="matrix(1,0,0,-1,14.9225,1.27)" fill="rgb(255,255,255)" stroke="rgb(0,0,0)" stroke-width="0.0010cm" stroke-linecap="round" stroke-linejoin="round" /></svg>