%TF.GenerationSoftware,KiCad,Pcbnew,10.0.1*%
%TF.CreationDate,2026-10-03T20:10:11-05:00*%
%TF.ProjectId,CONTROLLER_Radar Altimeter,434f4e54-524f-44c4-9c45-525f52616461,4*%
%TF.SameCoordinates,Original*%
%TF.FileFunction,Copper,L4,Inr*%
%TF.FilePolarity,Positive*%
%FSLAX46Y46*%
G04 Gerber Fmt 4.6, Leading zero omitted, Abs format (unit mm)*
G04 Created by KiCad (PCBNEW 10.0.1) date 2026-10-03 20:10:11*
%MOMM*%
%LPD*%
G01*
G04 APERTURE LIST*
G04 Aperture macros list*
%AMRoundRect*
0 Rectangle with rounded corners*
0 $1 Rounding radius*
0 $2 $3 $4 $5 $6 $7 $8 $9 X,Y pos of 4 corners*
0 Add a 4 corners polygon primitive as box body*
4,1,4,$2,$3,$4,$5,$6,$7,$8,$9,$2,$3,0*
0 Add four circle primitives for the rounded corners*
1,1,$1+$1,$2,$3*
1,1,$1+$1,$4,$5*
1,1,$1+$1,$6,$7*
1,1,$1+$1,$8,$9*
0 Add four rect primitives between the rounded corners*
20,1,$1+$1,$2,$3,$4,$5,0*
20,1,$1+$1,$4,$5,$6,$7,0*
20,1,$1+$1,$6,$7,$8,$9,0*
20,1,$1+$1,$8,$9,$2,$3,0*%
G04 Aperture macros list end*
%TA.AperFunction,ComponentPad*%
%ADD10R,1.700000X1.700000*%
%TD*%
%TA.AperFunction,ComponentPad*%
%ADD11O,1.700000X1.700000*%
%TD*%
%TA.AperFunction,ComponentPad*%
%ADD12R,0.900000X0.900000*%
%TD*%
%TA.AperFunction,ComponentPad*%
%ADD13O,0.900000X0.900000*%
%TD*%
%TA.AperFunction,ComponentPad*%
%ADD14R,1.600000X1.600000*%
%TD*%
%TA.AperFunction,ComponentPad*%
%ADD15O,1.600000X1.600000*%
%TD*%
%TA.AperFunction,ComponentPad*%
%ADD16C,1.700000*%
%TD*%
%TA.AperFunction,ComponentPad*%
%ADD17RoundRect,0.250001X1.099999X1.399999X-1.099999X1.399999X-1.099999X-1.399999X1.099999X-1.399999X0*%
%TD*%
%TA.AperFunction,ComponentPad*%
%ADD18O,2.700000X3.300000*%
%TD*%
%TA.AperFunction,ComponentPad*%
%ADD19RoundRect,0.250001X-1.099999X-1.399999X1.099999X-1.399999X1.099999X1.399999X-1.099999X1.399999X0*%
%TD*%
%TA.AperFunction,ViaPad*%
%ADD20C,0.600000*%
%TD*%
G04 APERTURE END LIST*
D10*
%TO.N,/~{D9A9}*%
%TO.C,J13*%
X23125000Y8300000D03*
D11*
%TO.N,Net-(J13-Pin_2)*%
X25665000Y8300000D03*
%TD*%
D10*
%TO.N,/~{D6A7}*%
%TO.C,J14*%
X39860000Y15300000D03*
D11*
%TO.N,Net-(J14-Pin_2)*%
X42400000Y15300000D03*
%TD*%
D12*
%TO.N,GND*%
%TO.C,J15*%
X21570000Y45855000D03*
D13*
%TO.N,+3V3*%
X21570000Y44605000D03*
%TO.N,Net-(J15-Pin_3)*%
X21570000Y43355000D03*
%TD*%
D14*
%TO.N,/TX0D1*%
%TO.C,U0*%
X26175000Y47175000D03*
D15*
%TO.N,/RX1D0*%
X26175000Y44635000D03*
%TO.N,GND*%
X26175000Y42095000D03*
X26175000Y39555000D03*
%TO.N,/SDAD2*%
X26175000Y37015000D03*
%TO.N,/~{SCLD3}*%
X26175000Y34475000D03*
%TO.N,/D4A6*%
X26175000Y31935000D03*
%TO.N,/~{D5}*%
X26175000Y29395000D03*
%TO.N,/~{D6A7}*%
X26175000Y26855000D03*
%TO.N,/D7*%
X26175000Y24315000D03*
%TO.N,/D8A8*%
X26175000Y21775000D03*
%TO.N,/~{D9A9}*%
X26175000Y19235000D03*
%TO.N,/~{D10A10}*%
X41415000Y19235000D03*
%TO.N,/D16MOSI*%
X41415000Y21775000D03*
%TO.N,/D14MISO*%
X41415000Y24315000D03*
%TO.N,/D15SCK*%
X41415000Y26855000D03*
%TO.N,/A0*%
X41415000Y29395000D03*
%TO.N,/A1*%
X41415000Y31935000D03*
%TO.N,/A2*%
X41415000Y34475000D03*
%TO.N,/A3*%
X41415000Y37015000D03*
%TO.N,+5V*%
X41415000Y39555000D03*
%TO.N,unconnected-(U0-RST-Pad22)*%
X41415000Y42095000D03*
%TO.N,GND*%
X41415000Y44635000D03*
%TO.N,Vin(+7.3V)*%
X41415000Y47175000D03*
%TD*%
D10*
%TO.N,/SDAD2*%
%TO.C,J16*%
X5400000Y39500000D03*
D11*
%TO.N,GND*%
X5400000Y36960000D03*
%TD*%
D10*
%TO.N,+5V*%
%TO.C,J17*%
X17290000Y4000000D03*
D16*
%TO.N,/D7*%
X19830000Y4000000D03*
%TO.N,GND*%
X22370000Y4000000D03*
%TO.N,/D8A8*%
X24910000Y4000000D03*
%TD*%
D10*
%TO.N,/~{D10A10}*%
%TO.C,J5*%
X47605000Y19595000D03*
D16*
%TO.N,/D16MOSI*%
X45065000Y19595000D03*
%TO.N,unconnected-(J5-Pin_3-Pad3)*%
X47605000Y22135000D03*
%TO.N,/LED_DIN*%
X45065000Y22135000D03*
%TO.N,GND*%
X47605000Y24675000D03*
X45065000Y24675000D03*
%TO.N,/+5V_SUPPLY*%
X47605000Y27215000D03*
%TO.N,/LED_DOUT*%
X45065000Y27215000D03*
%TO.N,/D15SCK*%
X47605000Y29755000D03*
%TO.N,/D14MISO*%
X45065000Y29755000D03*
%TD*%
D17*
%TO.N,+12V_SUPPLY*%
%TO.C,J1*%
X16200000Y30950000D03*
D18*
%TO.N,/+5V_SUPPLY*%
X12000000Y30950000D03*
%TO.N,+3V3*%
X7800000Y30950000D03*
%TO.N,/BUS_P*%
X16200000Y25450000D03*
%TO.N,/BUS_N*%
X12000000Y25450000D03*
%TO.N,GND*%
X7800000Y25450000D03*
%TD*%
D17*
%TO.N,+12V_SUPPLY*%
%TO.C,J2*%
X16100000Y15950000D03*
D18*
%TO.N,/+5V_SUPPLY*%
X11900000Y15950000D03*
%TO.N,+3V3*%
X7700000Y15950000D03*
%TO.N,/BUS_P*%
X16100000Y10450000D03*
%TO.N,/BUS_N*%
X11900000Y10450000D03*
%TO.N,GND*%
X7700000Y10450000D03*
%TD*%
D19*
%TO.N,/LED+5V*%
%TO.C,J3*%
X30900000Y3250000D03*
D18*
X35100000Y3250000D03*
%TO.N,/LEDGND*%
X30900000Y8750000D03*
%TO.N,/DATAOUT*%
X35100000Y8750000D03*
%TD*%
D19*
%TO.N,/LED+5V*%
%TO.C,J4*%
X42300000Y3250000D03*
D18*
X46500000Y3250000D03*
%TO.N,/LEDGND*%
X42300000Y8750000D03*
%TO.N,/DATAIN*%
X46500000Y8750000D03*
%TD*%
D10*
%TO.N,/DATAIN*%
%TO.C,JP1*%
X48400000Y38140000D03*
D16*
%TO.N,/LED_DIN*%
X48400000Y35600000D03*
%TO.N,/~{SCLD3}*%
X48400000Y33060000D03*
%TD*%
D10*
%TO.N,/DATAOUT*%
%TO.C,JP2*%
X44800000Y33060000D03*
D16*
%TO.N,/LED_DOUT*%
X44800000Y35600000D03*
%TO.N,GND*%
X44800000Y38140000D03*
%TD*%
D20*
%TO.N,GND*%
X30884972Y24421477D03*
X30986572Y29846077D03*
X31773972Y30646077D03*
X17550003Y40100000D03*
X29157772Y47205277D03*
X29157772Y41058477D03*
X30072172Y24421477D03*
X14800000Y36700000D03*
X37133372Y31660477D03*
X29157772Y39864677D03*
X16800000Y40100000D03*
X31773972Y29846077D03*
X36320572Y32549477D03*
X17700000Y47400000D03*
X9500000Y43575000D03*
X35400000Y14275000D03*
X20200000Y34300000D03*
X13500000Y36700000D03*
X30986572Y30646077D03*
X29157772Y38670877D03*
X29157772Y46214677D03*
X18400000Y47400000D03*
%TO.N,+3V3*%
X19700000Y36725000D03*
%TO.N,/~{D5}*%
X21500000Y30100000D03*
X21500000Y28600000D03*
%TO.N,+5V*%
X13200000Y41600000D03*
%TO.N,+12V_SUPPLY*%
X36411172Y23428677D03*
X35022996Y26842138D03*
X35022996Y26092139D03*
X35022996Y27591858D03*
X34915561Y23428677D03*
X35663367Y23428677D03*
X35022996Y28341841D03*
%TD*%
%TA.AperFunction,Conductor*%
%TO.N,+3V3*%
G36*
X42966974Y49383022D02*
G01*
X42985512Y49380582D01*
X43005624Y49377935D01*
X43037391Y49369423D01*
X43065714Y49357691D01*
X43094193Y49341249D01*
X43117790Y49323142D01*
X43125126Y49317513D01*
X43137516Y49306646D01*
X50312724Y42131438D01*
X50323584Y42119055D01*
X50347321Y42088122D01*
X50363764Y42059642D01*
X50363765Y42059640D01*
X50375495Y42031321D01*
X50384008Y41999549D01*
X50389096Y41960902D01*
X50390174Y41944456D01*
X50390174Y21171417D01*
X50390173Y21171407D01*
X50390173Y21157994D01*
X50388736Y21139024D01*
X50388562Y21137877D01*
X50381975Y21094636D01*
X50381555Y21093292D01*
X50381642Y21092563D01*
X50370679Y21058416D01*
X50355238Y21026729D01*
X50333667Y20995507D01*
X50309491Y20969854D01*
X50279609Y20946476D01*
X50248893Y20929183D01*
X50213401Y20915758D01*
X50203860Y20913720D01*
X50173386Y20907211D01*
X50152498Y20905005D01*
X50151109Y20904430D01*
X50148875Y20902195D01*
X50146010Y20899331D01*
X50144526Y20897846D01*
X50139087Y20893378D01*
X50138744Y20892064D01*
X50136174Y20889494D01*
X50136171Y20889490D01*
X50134533Y20885535D01*
X50134457Y20884942D01*
X50135952Y20859806D01*
X50136174Y20852329D01*
X50136174Y151500D01*
X50116172Y83379D01*
X50062516Y36886D01*
X50010174Y25500D01*
X6459903Y25500D01*
X6443457Y26578D01*
X6404809Y31666D01*
X6373039Y40179D01*
X6344717Y51911D01*
X6316236Y68355D01*
X6296656Y83379D01*
X6285312Y92084D01*
X6272921Y102951D01*
X4576424Y1799448D01*
X29041499Y1799448D01*
X29052112Y1695579D01*
X29052112Y1695577D01*
X29052113Y1695575D01*
X29107885Y1527262D01*
X29185521Y1401396D01*
X29200970Y1376349D01*
X29200975Y1376343D01*
X29326342Y1250976D01*
X29326348Y1250971D01*
X29326349Y1250970D01*
X29477262Y1157885D01*
X29645575Y1102113D01*
X29673906Y1099219D01*
X29749448Y1091500D01*
X29749456Y1091500D01*
X32050552Y1091500D01*
X32119798Y1098576D01*
X32154425Y1102113D01*
X32322738Y1157885D01*
X32473651Y1250970D01*
X32599030Y1376349D01*
X32692115Y1527262D01*
X32747887Y1695575D01*
X32751424Y1730202D01*
X32758500Y1799448D01*
X32758500Y3671816D01*
X33241500Y3671816D01*
X33241500Y2828185D01*
X33273297Y2586654D01*
X33273299Y2586647D01*
X33336354Y2351323D01*
X33429585Y2126243D01*
X33429586Y2126242D01*
X33429591Y2126232D01*
X33551395Y1915261D01*
X33699707Y1721976D01*
X33699716Y1721966D01*
X33871965Y1549717D01*
X33871975Y1549708D01*
X33871976Y1549707D01*
X34065257Y1401398D01*
X34276243Y1279585D01*
X34501323Y1186354D01*
X34736647Y1123299D01*
X34736651Y1123299D01*
X34736653Y1123298D01*
X34798904Y1115103D01*
X34978187Y1091500D01*
X34978194Y1091500D01*
X35221806Y1091500D01*
X35221813Y1091500D01*
X35440103Y1120239D01*
X35463346Y1123298D01*
X35463346Y1123299D01*
X35463353Y1123299D01*
X35698677Y1186354D01*
X35923757Y1279585D01*
X36134743Y1401398D01*
X36328024Y1549707D01*
X36500293Y1721976D01*
X36559739Y1799448D01*
X40441499Y1799448D01*
X40452112Y1695579D01*
X40452112Y1695577D01*
X40452113Y1695575D01*
X40507885Y1527262D01*
X40585521Y1401396D01*
X40600970Y1376349D01*
X40600975Y1376343D01*
X40726342Y1250976D01*
X40726348Y1250971D01*
X40726349Y1250970D01*
X40877262Y1157885D01*
X41045575Y1102113D01*
X41073906Y1099219D01*
X41149448Y1091500D01*
X41149456Y1091500D01*
X43450552Y1091500D01*
X43519798Y1098576D01*
X43554425Y1102113D01*
X43722738Y1157885D01*
X43873651Y1250970D01*
X43999030Y1376349D01*
X44092115Y1527262D01*
X44147887Y1695575D01*
X44151424Y1730202D01*
X44158500Y1799448D01*
X44158500Y3671816D01*
X44641500Y3671816D01*
X44641500Y2828185D01*
X44673297Y2586654D01*
X44673299Y2586647D01*
X44736354Y2351323D01*
X44829585Y2126243D01*
X44829586Y2126242D01*
X44829591Y2126232D01*
X44951395Y1915261D01*
X45099707Y1721976D01*
X45099716Y1721966D01*
X45271965Y1549717D01*
X45271975Y1549708D01*
X45271976Y1549707D01*
X45465257Y1401398D01*
X45676243Y1279585D01*
X45901323Y1186354D01*
X46136647Y1123299D01*
X46136651Y1123299D01*
X46136653Y1123298D01*
X46198904Y1115103D01*
X46378187Y1091500D01*
X46378194Y1091500D01*
X46621806Y1091500D01*
X46621813Y1091500D01*
X46840103Y1120239D01*
X46863346Y1123298D01*
X46863346Y1123299D01*
X46863353Y1123299D01*
X47098677Y1186354D01*
X47323757Y1279585D01*
X47534743Y1401398D01*
X47728024Y1549707D01*
X47900293Y1721976D01*
X48048602Y1915257D01*
X48170415Y2126243D01*
X48263646Y2351323D01*
X48326701Y2586647D01*
X48358500Y2828187D01*
X48358500Y3671813D01*
X48334897Y3851096D01*
X48326702Y3913347D01*
X48326701Y3913349D01*
X48326701Y3913353D01*
X48263646Y4148677D01*
X48170415Y4373757D01*
X48048602Y4584743D01*
X47900293Y4778024D01*
X47900292Y4778025D01*
X47900283Y4778035D01*
X47728034Y4950284D01*
X47728024Y4950293D01*
X47534739Y5098605D01*
X47323768Y5220409D01*
X47323763Y5220412D01*
X47323757Y5220415D01*
X47098677Y5313646D01*
X46863353Y5376701D01*
X46863346Y5376703D01*
X46621815Y5408500D01*
X46621813Y5408500D01*
X46378187Y5408500D01*
X46378184Y5408500D01*
X46136653Y5376703D01*
X45901323Y5313646D01*
X45676241Y5220414D01*
X45676231Y5220409D01*
X45465260Y5098605D01*
X45271975Y4950293D01*
X45271965Y4950284D01*
X45099716Y4778035D01*
X45099707Y4778025D01*
X44951395Y4584740D01*
X44829591Y4373769D01*
X44829586Y4373759D01*
X44736354Y4148677D01*
X44673297Y3913347D01*
X44641500Y3671816D01*
X44158500Y3671816D01*
X44158500Y4700553D01*
X44147887Y4804422D01*
X44147887Y4804425D01*
X44092115Y4972738D01*
X43999030Y5123651D01*
X43999029Y5123652D01*
X43999024Y5123658D01*
X43873657Y5249025D01*
X43873651Y5249030D01*
X43857529Y5258974D01*
X43722738Y5342115D01*
X43554425Y5397887D01*
X43554423Y5397888D01*
X43554421Y5397888D01*
X43450552Y5408500D01*
X43450544Y5408500D01*
X41149456Y5408500D01*
X41149448Y5408500D01*
X41045578Y5397888D01*
X40877262Y5342115D01*
X40877260Y5342114D01*
X40726348Y5249030D01*
X40726342Y5249025D01*
X40600975Y5123658D01*
X40600970Y5123652D01*
X40507886Y4972740D01*
X40507885Y4972738D01*
X40452112Y4804422D01*
X40441500Y4700553D01*
X40441500Y1799448D01*
X40441499Y1799448D01*
X36559739Y1799448D01*
X36648602Y1915257D01*
X36770415Y2126243D01*
X36863646Y2351323D01*
X36926701Y2586647D01*
X36958500Y2828187D01*
X36958500Y3671813D01*
X36934897Y3851096D01*
X36926702Y3913347D01*
X36926701Y3913349D01*
X36926701Y3913353D01*
X36863646Y4148677D01*
X36770415Y4373757D01*
X36648602Y4584743D01*
X36500293Y4778024D01*
X36500292Y4778025D01*
X36500283Y4778035D01*
X36328034Y4950284D01*
X36328024Y4950293D01*
X36134739Y5098605D01*
X35923768Y5220409D01*
X35923763Y5220412D01*
X35923757Y5220415D01*
X35698677Y5313646D01*
X35463353Y5376701D01*
X35463346Y5376703D01*
X35221815Y5408500D01*
X35221813Y5408500D01*
X34978187Y5408500D01*
X34978184Y5408500D01*
X34736653Y5376703D01*
X34501323Y5313646D01*
X34276241Y5220414D01*
X34276231Y5220409D01*
X34065260Y5098605D01*
X33871975Y4950293D01*
X33871965Y4950284D01*
X33699716Y4778035D01*
X33699707Y4778025D01*
X33551395Y4584740D01*
X33429591Y4373769D01*
X33429586Y4373759D01*
X33336354Y4148677D01*
X33273297Y3913347D01*
X33241500Y3671816D01*
X32758500Y3671816D01*
X32758500Y4700553D01*
X32747887Y4804422D01*
X32747887Y4804425D01*
X32692115Y4972738D01*
X32599030Y5123651D01*
X32599029Y5123652D01*
X32599024Y5123658D01*
X32473657Y5249025D01*
X32473651Y5249030D01*
X32457529Y5258974D01*
X32322738Y5342115D01*
X32154425Y5397887D01*
X32154423Y5397888D01*
X32154421Y5397888D01*
X32050552Y5408500D01*
X32050544Y5408500D01*
X29749456Y5408500D01*
X29749448Y5408500D01*
X29645578Y5397888D01*
X29477262Y5342115D01*
X29477260Y5342114D01*
X29326348Y5249030D01*
X29326342Y5249025D01*
X29200975Y5123658D01*
X29200970Y5123652D01*
X29107886Y4972740D01*
X29107885Y4972738D01*
X29052112Y4804422D01*
X29041500Y4700553D01*
X29041500Y1799448D01*
X29041499Y1799448D01*
X4576424Y1799448D01*
X1071173Y5304699D01*
X4271934Y5304699D01*
X4271934Y5068515D01*
X4308881Y4835239D01*
X4381866Y4610615D01*
X4444575Y4487542D01*
X4489093Y4400171D01*
X4627918Y4209095D01*
X4794921Y4042092D01*
X4794924Y4042090D01*
X4986001Y3903264D01*
X5196442Y3796039D01*
X5421066Y3723054D01*
X5654342Y3686107D01*
X5654345Y3686107D01*
X5890523Y3686107D01*
X5890526Y3686107D01*
X6123802Y3723054D01*
X6348426Y3796039D01*
X6558867Y3903264D01*
X6749944Y4042090D01*
X6916951Y4209097D01*
X7055777Y4400174D01*
X7163002Y4610615D01*
X7235987Y4835239D01*
X7246030Y4898650D01*
X15931500Y4898650D01*
X15931500Y3101351D01*
X15938009Y3040804D01*
X15938011Y3040796D01*
X15989110Y2903798D01*
X15989112Y2903793D01*
X16076738Y2786739D01*
X16193792Y2699113D01*
X16193794Y2699112D01*
X16193796Y2699111D01*
X16252875Y2677076D01*
X16330795Y2648012D01*
X16330803Y2648010D01*
X16391350Y2641501D01*
X16391355Y2641501D01*
X16391362Y2641500D01*
X16391368Y2641500D01*
X18188632Y2641500D01*
X18188638Y2641500D01*
X18188645Y2641501D01*
X18188649Y2641501D01*
X18249196Y2648010D01*
X18249199Y2648011D01*
X18249201Y2648011D01*
X18386204Y2699111D01*
X18442199Y2741028D01*
X18503261Y2786739D01*
X18590887Y2903793D01*
X18590887Y2903794D01*
X18590889Y2903796D01*
X18634869Y3021712D01*
X18677414Y3078544D01*
X18743934Y3103355D01*
X18813308Y3088264D01*
X18842018Y3066771D01*
X18944990Y2963799D01*
X18944993Y2963797D01*
X18944996Y2963794D01*
X19117991Y2838106D01*
X19308517Y2741028D01*
X19511878Y2674953D01*
X19511879Y2674953D01*
X19511884Y2674951D01*
X19723084Y2641500D01*
X19723087Y2641500D01*
X19936913Y2641500D01*
X19936916Y2641500D01*
X20148116Y2674951D01*
X20351483Y2741028D01*
X20542009Y2838106D01*
X20715004Y2963794D01*
X20866206Y3114996D01*
X20991894Y3287991D01*
X20991899Y3288003D01*
X20992561Y3289080D01*
X20992924Y3289409D01*
X20994804Y3291996D01*
X20995347Y3291602D01*
X21045204Y3336717D01*
X21115244Y3348330D01*
X21180445Y3320234D01*
X21205021Y3291870D01*
X21205196Y3291996D01*
X21206668Y3289970D01*
X21207439Y3289080D01*
X21208105Y3287993D01*
X21208106Y3287991D01*
X21333794Y3114996D01*
X21333796Y3114994D01*
X21333798Y3114991D01*
X21484990Y2963799D01*
X21484993Y2963797D01*
X21484996Y2963794D01*
X21657991Y2838106D01*
X21848517Y2741028D01*
X22051878Y2674953D01*
X22051879Y2674953D01*
X22051884Y2674951D01*
X22263084Y2641500D01*
X22263087Y2641500D01*
X22476913Y2641500D01*
X22476916Y2641500D01*
X22688116Y2674951D01*
X22891483Y2741028D01*
X23082009Y2838106D01*
X23255004Y2963794D01*
X23406206Y3114996D01*
X23531894Y3287991D01*
X23531899Y3288003D01*
X23532561Y3289080D01*
X23532924Y3289409D01*
X23534804Y3291996D01*
X23535347Y3291602D01*
X23585204Y3336717D01*
X23655244Y3348330D01*
X23720445Y3320234D01*
X23745021Y3291870D01*
X23745196Y3291996D01*
X23746668Y3289970D01*
X23747439Y3289080D01*
X23748105Y3287993D01*
X23748106Y3287991D01*
X23873794Y3114996D01*
X23873796Y3114994D01*
X23873798Y3114991D01*
X24024990Y2963799D01*
X24024993Y2963797D01*
X24024996Y2963794D01*
X24197991Y2838106D01*
X24388517Y2741028D01*
X24591878Y2674953D01*
X24591879Y2674953D01*
X24591884Y2674951D01*
X24803084Y2641500D01*
X24803087Y2641500D01*
X25016913Y2641500D01*
X25016916Y2641500D01*
X25228116Y2674951D01*
X25431483Y2741028D01*
X25622009Y2838106D01*
X25795004Y2963794D01*
X25946206Y3114996D01*
X26071894Y3287991D01*
X26168972Y3478517D01*
X26235049Y3681884D01*
X26268500Y3893084D01*
X26268500Y4106916D01*
X26235049Y4318116D01*
X26168972Y4521483D01*
X26071894Y4712009D01*
X25946206Y4885004D01*
X25946203Y4885007D01*
X25946201Y4885010D01*
X25795009Y5036202D01*
X25795006Y5036204D01*
X25795004Y5036206D01*
X25622009Y5161894D01*
X25431483Y5258972D01*
X25431480Y5258973D01*
X25431478Y5258974D01*
X25228120Y5325048D01*
X25228123Y5325048D01*
X25188801Y5331276D01*
X25016916Y5358500D01*
X24803084Y5358500D01*
X24591884Y5325049D01*
X24591878Y5325048D01*
X24388521Y5258974D01*
X24388515Y5258971D01*
X24197987Y5161892D01*
X24024993Y5036204D01*
X24024990Y5036202D01*
X23873798Y4885010D01*
X23873796Y4885007D01*
X23748108Y4712013D01*
X23747434Y4710912D01*
X23747068Y4710582D01*
X23745196Y4708004D01*
X23744654Y4708398D01*
X23694787Y4663279D01*
X23624745Y4651672D01*
X23559547Y4679774D01*
X23534976Y4708130D01*
X23534804Y4708004D01*
X23533341Y4710018D01*
X23532566Y4710912D01*
X23531896Y4712004D01*
X23531894Y4712009D01*
X23406206Y4885004D01*
X23406203Y4885007D01*
X23406201Y4885010D01*
X23255009Y5036202D01*
X23255006Y5036204D01*
X23255004Y5036206D01*
X23082009Y5161894D01*
X22891483Y5258972D01*
X22891480Y5258973D01*
X22891478Y5258974D01*
X22688120Y5325048D01*
X22688123Y5325048D01*
X22648801Y5331276D01*
X22476916Y5358500D01*
X22263084Y5358500D01*
X22051884Y5325049D01*
X22051878Y5325048D01*
X21848521Y5258974D01*
X21848515Y5258971D01*
X21657987Y5161892D01*
X21484993Y5036204D01*
X21484990Y5036202D01*
X21333798Y4885010D01*
X21333796Y4885007D01*
X21208108Y4712013D01*
X21207434Y4710912D01*
X21207068Y4710582D01*
X21205196Y4708004D01*
X21204654Y4708398D01*
X21154787Y4663279D01*
X21084745Y4651672D01*
X21019547Y4679774D01*
X20994976Y4708130D01*
X20994804Y4708004D01*
X20993341Y4710018D01*
X20992566Y4710912D01*
X20991896Y4712004D01*
X20991894Y4712009D01*
X20866206Y4885004D01*
X20866203Y4885007D01*
X20866201Y4885010D01*
X20715009Y5036202D01*
X20715006Y5036204D01*
X20715004Y5036206D01*
X20542009Y5161894D01*
X20351483Y5258972D01*
X20351480Y5258973D01*
X20351478Y5258974D01*
X20148120Y5325048D01*
X20148123Y5325048D01*
X20108801Y5331276D01*
X19936916Y5358500D01*
X19723084Y5358500D01*
X19511884Y5325049D01*
X19511878Y5325048D01*
X19308521Y5258974D01*
X19308515Y5258971D01*
X19117987Y5161892D01*
X18944995Y5036206D01*
X18842018Y4933229D01*
X18779706Y4899204D01*
X18708890Y4904270D01*
X18652054Y4946816D01*
X18634871Y4978285D01*
X18590889Y5096204D01*
X18590886Y5096208D01*
X18590886Y5096209D01*
X18503261Y5213262D01*
X18386207Y5300888D01*
X18386202Y5300890D01*
X18249204Y5351989D01*
X18249196Y5351991D01*
X18188649Y5358500D01*
X18188638Y5358500D01*
X16391362Y5358500D01*
X16391350Y5358500D01*
X16330803Y5351991D01*
X16330795Y5351989D01*
X16193797Y5300890D01*
X16193792Y5300888D01*
X16076738Y5213262D01*
X15989112Y5096208D01*
X15989110Y5096203D01*
X15938011Y4959205D01*
X15938009Y4959197D01*
X15931500Y4898650D01*
X7246030Y4898650D01*
X7272934Y5068515D01*
X7272934Y5304699D01*
X7235987Y5537975D01*
X7163002Y5762599D01*
X7055777Y5973040D01*
X6916951Y6164117D01*
X6916949Y6164120D01*
X6749946Y6331123D01*
X6558870Y6469948D01*
X6558869Y6469949D01*
X6558867Y6469950D01*
X6348426Y6577175D01*
X6123802Y6650160D01*
X5890526Y6687107D01*
X5654342Y6687107D01*
X5421066Y6650160D01*
X5421063Y6650160D01*
X5421062Y6650159D01*
X5196442Y6577175D01*
X5196440Y6577174D01*
X4985997Y6469948D01*
X4794921Y6331123D01*
X4627918Y6164120D01*
X4489093Y5973044D01*
X4489091Y5973040D01*
X4381866Y5762599D01*
X4308881Y5537975D01*
X4271934Y5304699D01*
X1071173Y5304699D01*
X113713Y6262159D01*
X102846Y6274550D01*
X79114Y6305478D01*
X62670Y6333958D01*
X50935Y6362287D01*
X42425Y6394055D01*
X41381Y6401984D01*
X37338Y6432702D01*
X36260Y6449145D01*
X36260Y10871816D01*
X5841500Y10871816D01*
X5841500Y10028185D01*
X5873297Y9786654D01*
X5873299Y9786647D01*
X5936354Y9551323D01*
X6029585Y9326243D01*
X6029586Y9326242D01*
X6029591Y9326232D01*
X6151395Y9115261D01*
X6299707Y8921976D01*
X6299716Y8921966D01*
X6471965Y8749717D01*
X6471975Y8749708D01*
X6471976Y8749707D01*
X6665257Y8601398D01*
X6876243Y8479585D01*
X7101323Y8386354D01*
X7336647Y8323299D01*
X7336651Y8323299D01*
X7336653Y8323298D01*
X7398904Y8315103D01*
X7578187Y8291500D01*
X7578194Y8291500D01*
X7821806Y8291500D01*
X7821813Y8291500D01*
X8040103Y8320239D01*
X8063346Y8323298D01*
X8063346Y8323299D01*
X8063353Y8323299D01*
X8298677Y8386354D01*
X8523757Y8479585D01*
X8734743Y8601398D01*
X8928024Y8749707D01*
X9100293Y8921976D01*
X9248602Y9115257D01*
X9370415Y9326243D01*
X9463646Y9551323D01*
X9526701Y9786647D01*
X9558500Y10028187D01*
X9558500Y10871813D01*
X9558500Y10871816D01*
X10041500Y10871816D01*
X10041500Y10028185D01*
X10073297Y9786654D01*
X10073299Y9786647D01*
X10136354Y9551323D01*
X10229585Y9326243D01*
X10229586Y9326242D01*
X10229591Y9326232D01*
X10351395Y9115261D01*
X10499707Y8921976D01*
X10499716Y8921966D01*
X10671965Y8749717D01*
X10671975Y8749708D01*
X10671976Y8749707D01*
X10865257Y8601398D01*
X11076243Y8479585D01*
X11301323Y8386354D01*
X11536647Y8323299D01*
X11536651Y8323299D01*
X11536653Y8323298D01*
X11598904Y8315103D01*
X11778187Y8291500D01*
X11778194Y8291500D01*
X12021806Y8291500D01*
X12021813Y8291500D01*
X12240103Y8320239D01*
X12263346Y8323298D01*
X12263346Y8323299D01*
X12263353Y8323299D01*
X12498677Y8386354D01*
X12723757Y8479585D01*
X12934743Y8601398D01*
X13128024Y8749707D01*
X13300293Y8921976D01*
X13448602Y9115257D01*
X13570415Y9326243D01*
X13663646Y9551323D01*
X13726701Y9786647D01*
X13758500Y10028187D01*
X13758500Y10871813D01*
X13758500Y10871816D01*
X14241500Y10871816D01*
X14241500Y10028185D01*
X14273297Y9786654D01*
X14273299Y9786647D01*
X14336354Y9551323D01*
X14429585Y9326243D01*
X14429586Y9326242D01*
X14429591Y9326232D01*
X14551395Y9115261D01*
X14699707Y8921976D01*
X14699716Y8921966D01*
X14871965Y8749717D01*
X14871975Y8749708D01*
X14871976Y8749707D01*
X15065257Y8601398D01*
X15276243Y8479585D01*
X15501323Y8386354D01*
X15736647Y8323299D01*
X15736651Y8323299D01*
X15736653Y8323298D01*
X15798904Y8315103D01*
X15978187Y8291500D01*
X15978194Y8291500D01*
X16221806Y8291500D01*
X16221813Y8291500D01*
X16440103Y8320239D01*
X16463346Y8323298D01*
X16463346Y8323299D01*
X16463353Y8323299D01*
X16698677Y8386354D01*
X16923757Y8479585D01*
X17134743Y8601398D01*
X17328024Y8749707D01*
X17500293Y8921976D01*
X17648602Y9115257D01*
X17681255Y9171813D01*
X17696750Y9198650D01*
X21766500Y9198650D01*
X21766500Y7401351D01*
X21773009Y7340804D01*
X21773011Y7340796D01*
X21824110Y7203798D01*
X21824112Y7203793D01*
X21911738Y7086739D01*
X22028792Y6999113D01*
X22028794Y6999112D01*
X22028796Y6999111D01*
X22087875Y6977076D01*
X22165795Y6948012D01*
X22165803Y6948010D01*
X22226350Y6941501D01*
X22226355Y6941501D01*
X22226362Y6941500D01*
X22226368Y6941500D01*
X24023632Y6941500D01*
X24023638Y6941500D01*
X24023645Y6941501D01*
X24023649Y6941501D01*
X24084196Y6948010D01*
X24084199Y6948011D01*
X24084201Y6948011D01*
X24221204Y6999111D01*
X24277199Y7041028D01*
X24338261Y7086739D01*
X24425887Y7203793D01*
X24425887Y7203794D01*
X24425889Y7203796D01*
X24469869Y7321712D01*
X24512414Y7378544D01*
X24578934Y7403355D01*
X24648308Y7388264D01*
X24677018Y7366771D01*
X24779990Y7263799D01*
X24779993Y7263797D01*
X24779996Y7263794D01*
X24952991Y7138106D01*
X25143517Y7041028D01*
X25346878Y6974953D01*
X25346879Y6974953D01*
X25346884Y6974951D01*
X25558084Y6941500D01*
X25558087Y6941500D01*
X25771913Y6941500D01*
X25771916Y6941500D01*
X25983116Y6974951D01*
X26186483Y7041028D01*
X26377009Y7138106D01*
X26550004Y7263794D01*
X26701206Y7414996D01*
X26826894Y7587991D01*
X26923972Y7778517D01*
X26990049Y7981884D01*
X27023500Y8193084D01*
X27023500Y8406916D01*
X26990049Y8618116D01*
X26923972Y8821483D01*
X26826894Y9012009D01*
X26710788Y9171816D01*
X29041500Y9171816D01*
X29041500Y8328185D01*
X29073297Y8086654D01*
X29073299Y8086647D01*
X29136354Y7851323D01*
X29229585Y7626243D01*
X29229586Y7626242D01*
X29229591Y7626232D01*
X29351395Y7415261D01*
X29499707Y7221976D01*
X29499716Y7221966D01*
X29671965Y7049717D01*
X29671975Y7049708D01*
X29671976Y7049707D01*
X29865257Y6901398D01*
X30076243Y6779585D01*
X30301323Y6686354D01*
X30536647Y6623299D01*
X30536651Y6623299D01*
X30536653Y6623298D01*
X30598904Y6615103D01*
X30778187Y6591500D01*
X30778194Y6591500D01*
X31021806Y6591500D01*
X31021813Y6591500D01*
X31240103Y6620239D01*
X31263346Y6623298D01*
X31263346Y6623299D01*
X31263353Y6623299D01*
X31498677Y6686354D01*
X31723757Y6779585D01*
X31934743Y6901398D01*
X32128024Y7049707D01*
X32300293Y7221976D01*
X32448602Y7415257D01*
X32570415Y7626243D01*
X32663646Y7851323D01*
X32726701Y8086647D01*
X32758500Y8328187D01*
X32758500Y9171813D01*
X32758500Y9171816D01*
X33241500Y9171816D01*
X33241500Y8328185D01*
X33273297Y8086654D01*
X33273299Y8086647D01*
X33336354Y7851323D01*
X33429585Y7626243D01*
X33429586Y7626242D01*
X33429591Y7626232D01*
X33551395Y7415261D01*
X33699707Y7221976D01*
X33699716Y7221966D01*
X33871965Y7049717D01*
X33871975Y7049708D01*
X33871976Y7049707D01*
X34065257Y6901398D01*
X34276243Y6779585D01*
X34501323Y6686354D01*
X34736647Y6623299D01*
X34736651Y6623299D01*
X34736653Y6623298D01*
X34798904Y6615103D01*
X34978187Y6591500D01*
X34978194Y6591500D01*
X35221806Y6591500D01*
X35221813Y6591500D01*
X35440103Y6620239D01*
X35463346Y6623298D01*
X35463346Y6623299D01*
X35463353Y6623299D01*
X35698677Y6686354D01*
X35923757Y6779585D01*
X36134743Y6901398D01*
X36328024Y7049707D01*
X36500293Y7221976D01*
X36648602Y7415257D01*
X36770415Y7626243D01*
X36863646Y7851323D01*
X36926701Y8086647D01*
X36958500Y8328187D01*
X36958500Y9171813D01*
X36958500Y9171816D01*
X40441500Y9171816D01*
X40441500Y8328185D01*
X40473297Y8086654D01*
X40473299Y8086647D01*
X40536354Y7851323D01*
X40629585Y7626243D01*
X40629586Y7626242D01*
X40629591Y7626232D01*
X40751395Y7415261D01*
X40899707Y7221976D01*
X40899716Y7221966D01*
X41071965Y7049717D01*
X41071975Y7049708D01*
X41071976Y7049707D01*
X41265257Y6901398D01*
X41476243Y6779585D01*
X41701323Y6686354D01*
X41936647Y6623299D01*
X41936651Y6623299D01*
X41936653Y6623298D01*
X41998904Y6615103D01*
X42178187Y6591500D01*
X42178194Y6591500D01*
X42421806Y6591500D01*
X42421813Y6591500D01*
X42640103Y6620239D01*
X42663346Y6623298D01*
X42663346Y6623299D01*
X42663353Y6623299D01*
X42898677Y6686354D01*
X43123757Y6779585D01*
X43334743Y6901398D01*
X43528024Y7049707D01*
X43700293Y7221976D01*
X43848602Y7415257D01*
X43970415Y7626243D01*
X44063646Y7851323D01*
X44126701Y8086647D01*
X44158500Y8328187D01*
X44158500Y9171813D01*
X44158500Y9171816D01*
X44641500Y9171816D01*
X44641500Y8328185D01*
X44673297Y8086654D01*
X44673299Y8086647D01*
X44736354Y7851323D01*
X44829585Y7626243D01*
X44829586Y7626242D01*
X44829591Y7626232D01*
X44951395Y7415261D01*
X45099707Y7221976D01*
X45099716Y7221966D01*
X45271965Y7049717D01*
X45271975Y7049708D01*
X45271976Y7049707D01*
X45465257Y6901398D01*
X45676243Y6779585D01*
X45901323Y6686354D01*
X46136647Y6623299D01*
X46136651Y6623299D01*
X46136653Y6623298D01*
X46198904Y6615103D01*
X46378187Y6591500D01*
X46378194Y6591500D01*
X46621806Y6591500D01*
X46621813Y6591500D01*
X46840103Y6620239D01*
X46863346Y6623298D01*
X46863346Y6623299D01*
X46863353Y6623299D01*
X47098677Y6686354D01*
X47323757Y6779585D01*
X47534743Y6901398D01*
X47728024Y7049707D01*
X47900293Y7221976D01*
X48048602Y7415257D01*
X48170415Y7626243D01*
X48263646Y7851323D01*
X48326701Y8086647D01*
X48358500Y8328187D01*
X48358500Y9171813D01*
X48326701Y9413353D01*
X48263646Y9648677D01*
X48170415Y9873757D01*
X48048602Y10084743D01*
X47900293Y10278024D01*
X47900292Y10278025D01*
X47900283Y10278035D01*
X47728034Y10450284D01*
X47728024Y10450293D01*
X47534739Y10598605D01*
X47323768Y10720409D01*
X47323763Y10720412D01*
X47323757Y10720415D01*
X47098677Y10813646D01*
X46937941Y10856716D01*
X46863346Y10876703D01*
X46621815Y10908500D01*
X46621813Y10908500D01*
X46378187Y10908500D01*
X46378184Y10908500D01*
X46136653Y10876703D01*
X45901323Y10813646D01*
X45676241Y10720414D01*
X45676231Y10720409D01*
X45465260Y10598605D01*
X45271975Y10450293D01*
X45271965Y10450284D01*
X45099716Y10278035D01*
X45099707Y10278025D01*
X44951395Y10084740D01*
X44829591Y9873769D01*
X44829586Y9873759D01*
X44736354Y9648677D01*
X44673297Y9413347D01*
X44641500Y9171816D01*
X44158500Y9171816D01*
X44126701Y9413353D01*
X44063646Y9648677D01*
X43970415Y9873757D01*
X43848602Y10084743D01*
X43700293Y10278024D01*
X43700292Y10278025D01*
X43700283Y10278035D01*
X43528034Y10450284D01*
X43528024Y10450293D01*
X43334739Y10598605D01*
X43123768Y10720409D01*
X43123763Y10720412D01*
X43123757Y10720415D01*
X42898677Y10813646D01*
X42737941Y10856716D01*
X42663346Y10876703D01*
X42421815Y10908500D01*
X42421813Y10908500D01*
X42178187Y10908500D01*
X42178184Y10908500D01*
X41936653Y10876703D01*
X41701323Y10813646D01*
X41476241Y10720414D01*
X41476231Y10720409D01*
X41265260Y10598605D01*
X41071975Y10450293D01*
X41071965Y10450284D01*
X40899716Y10278035D01*
X40899707Y10278025D01*
X40751395Y10084740D01*
X40629591Y9873769D01*
X40629586Y9873759D01*
X40536354Y9648677D01*
X40473297Y9413347D01*
X40441500Y9171816D01*
X36958500Y9171816D01*
X36926701Y9413353D01*
X36863646Y9648677D01*
X36770415Y9873757D01*
X36648602Y10084743D01*
X36500293Y10278024D01*
X36500292Y10278025D01*
X36500283Y10278035D01*
X36328034Y10450284D01*
X36328024Y10450293D01*
X36134739Y10598605D01*
X35923768Y10720409D01*
X35923763Y10720412D01*
X35923757Y10720415D01*
X35698677Y10813646D01*
X35537941Y10856716D01*
X35463346Y10876703D01*
X35221815Y10908500D01*
X35221813Y10908500D01*
X34978187Y10908500D01*
X34978184Y10908500D01*
X34736653Y10876703D01*
X34501323Y10813646D01*
X34276241Y10720414D01*
X34276231Y10720409D01*
X34065260Y10598605D01*
X33871975Y10450293D01*
X33871965Y10450284D01*
X33699716Y10278035D01*
X33699707Y10278025D01*
X33551395Y10084740D01*
X33429591Y9873769D01*
X33429586Y9873759D01*
X33336354Y9648677D01*
X33273297Y9413347D01*
X33241500Y9171816D01*
X32758500Y9171816D01*
X32726701Y9413353D01*
X32663646Y9648677D01*
X32570415Y9873757D01*
X32448602Y10084743D01*
X32300293Y10278024D01*
X32300292Y10278025D01*
X32300283Y10278035D01*
X32128034Y10450284D01*
X32128024Y10450293D01*
X31934739Y10598605D01*
X31723768Y10720409D01*
X31723763Y10720412D01*
X31723757Y10720415D01*
X31498677Y10813646D01*
X31337941Y10856716D01*
X31263346Y10876703D01*
X31021815Y10908500D01*
X31021813Y10908500D01*
X30778187Y10908500D01*
X30778184Y10908500D01*
X30536653Y10876703D01*
X30301323Y10813646D01*
X30076241Y10720414D01*
X30076231Y10720409D01*
X29865260Y10598605D01*
X29671975Y10450293D01*
X29671965Y10450284D01*
X29499716Y10278035D01*
X29499707Y10278025D01*
X29351395Y10084740D01*
X29229591Y9873769D01*
X29229586Y9873759D01*
X29136354Y9648677D01*
X29073297Y9413347D01*
X29041500Y9171816D01*
X26710788Y9171816D01*
X26701206Y9185004D01*
X26701203Y9185007D01*
X26701201Y9185010D01*
X26550009Y9336202D01*
X26550006Y9336204D01*
X26550004Y9336206D01*
X26377009Y9461894D01*
X26186483Y9558972D01*
X26186480Y9558973D01*
X26186478Y9558974D01*
X25983120Y9625048D01*
X25983123Y9625048D01*
X25943801Y9631276D01*
X25771916Y9658500D01*
X25558084Y9658500D01*
X25346884Y9625049D01*
X25346878Y9625048D01*
X25143521Y9558974D01*
X25143515Y9558971D01*
X24952987Y9461892D01*
X24779995Y9336206D01*
X24677018Y9233229D01*
X24614706Y9199204D01*
X24543890Y9204270D01*
X24487054Y9246816D01*
X24469871Y9278285D01*
X24425889Y9396204D01*
X24425886Y9396208D01*
X24425886Y9396209D01*
X24338261Y9513262D01*
X24221207Y9600888D01*
X24221202Y9600890D01*
X24084204Y9651989D01*
X24084196Y9651991D01*
X24023649Y9658500D01*
X24023638Y9658500D01*
X22226362Y9658500D01*
X22226350Y9658500D01*
X22165803Y9651991D01*
X22165795Y9651989D01*
X22028797Y9600890D01*
X22028792Y9600888D01*
X21911738Y9513262D01*
X21824112Y9396208D01*
X21824110Y9396203D01*
X21773011Y9259205D01*
X21773009Y9259197D01*
X21766500Y9198650D01*
X17696750Y9198650D01*
X17735064Y9265012D01*
X17770408Y9326231D01*
X17770407Y9326231D01*
X17770415Y9326243D01*
X17863646Y9551323D01*
X17926701Y9786647D01*
X17958500Y10028187D01*
X17958500Y10871813D01*
X17926701Y11113353D01*
X17863646Y11348677D01*
X17770415Y11573757D01*
X17648602Y11784743D01*
X17500293Y11978024D01*
X17500292Y11978025D01*
X17500283Y11978035D01*
X17328034Y12150284D01*
X17328024Y12150293D01*
X17134739Y12298605D01*
X16923768Y12420409D01*
X16923763Y12420412D01*
X16923757Y12420415D01*
X16698677Y12513646D01*
X16463353Y12576701D01*
X16463346Y12576703D01*
X16221815Y12608500D01*
X16221813Y12608500D01*
X15978187Y12608500D01*
X15978184Y12608500D01*
X15736653Y12576703D01*
X15501323Y12513646D01*
X15276241Y12420414D01*
X15276231Y12420409D01*
X15065260Y12298605D01*
X14871975Y12150293D01*
X14871965Y12150284D01*
X14699716Y11978035D01*
X14699707Y11978025D01*
X14551395Y11784740D01*
X14429591Y11573769D01*
X14429586Y11573759D01*
X14336354Y11348677D01*
X14273297Y11113347D01*
X14241500Y10871816D01*
X13758500Y10871816D01*
X13726701Y11113353D01*
X13663646Y11348677D01*
X13570415Y11573757D01*
X13448602Y11784743D01*
X13300293Y11978024D01*
X13300292Y11978025D01*
X13300283Y11978035D01*
X13128034Y12150284D01*
X13128024Y12150293D01*
X12934739Y12298605D01*
X12723768Y12420409D01*
X12723763Y12420412D01*
X12723757Y12420415D01*
X12498677Y12513646D01*
X12263353Y12576701D01*
X12263346Y12576703D01*
X12021815Y12608500D01*
X12021813Y12608500D01*
X11778187Y12608500D01*
X11778184Y12608500D01*
X11536653Y12576703D01*
X11301323Y12513646D01*
X11076241Y12420414D01*
X11076231Y12420409D01*
X10865260Y12298605D01*
X10671975Y12150293D01*
X10671965Y12150284D01*
X10499716Y11978035D01*
X10499707Y11978025D01*
X10351395Y11784740D01*
X10229591Y11573769D01*
X10229586Y11573759D01*
X10136354Y11348677D01*
X10073297Y11113347D01*
X10041500Y10871816D01*
X9558500Y10871816D01*
X9526701Y11113353D01*
X9463646Y11348677D01*
X9370415Y11573757D01*
X9248602Y11784743D01*
X9100293Y11978024D01*
X9100292Y11978025D01*
X9100283Y11978035D01*
X8928034Y12150284D01*
X8928024Y12150293D01*
X8734739Y12298605D01*
X8523768Y12420409D01*
X8523763Y12420412D01*
X8523757Y12420415D01*
X8298677Y12513646D01*
X8063353Y12576701D01*
X8063346Y12576703D01*
X7821815Y12608500D01*
X7821813Y12608500D01*
X7578187Y12608500D01*
X7578184Y12608500D01*
X7336653Y12576703D01*
X7101323Y12513646D01*
X6876241Y12420414D01*
X6876231Y12420409D01*
X6665260Y12298605D01*
X6471975Y12150293D01*
X6471965Y12150284D01*
X6299716Y11978035D01*
X6299707Y11978025D01*
X6151395Y11784740D01*
X6029591Y11573769D01*
X6029586Y11573759D01*
X5936354Y11348677D01*
X5873297Y11113347D01*
X5841500Y10871816D01*
X36260Y10871816D01*
X36260Y16371816D01*
X10041500Y16371816D01*
X10041500Y15528185D01*
X10073297Y15286654D01*
X10073299Y15286647D01*
X10136354Y15051323D01*
X10229585Y14826243D01*
X10229586Y14826242D01*
X10229591Y14826232D01*
X10351395Y14615261D01*
X10351397Y14615258D01*
X10351398Y14615257D01*
X10431527Y14510830D01*
X10499707Y14421976D01*
X10499716Y14421966D01*
X10671965Y14249717D01*
X10671975Y14249708D01*
X10671976Y14249707D01*
X10742792Y14195368D01*
X10865260Y14101396D01*
X10973042Y14039168D01*
X11076243Y13979585D01*
X11301323Y13886354D01*
X11536647Y13823299D01*
X11536651Y13823299D01*
X11536653Y13823298D01*
X11598904Y13815103D01*
X11778187Y13791500D01*
X11778194Y13791500D01*
X12021806Y13791500D01*
X12021813Y13791500D01*
X12240103Y13820239D01*
X12263346Y13823298D01*
X12263346Y13823299D01*
X12263353Y13823299D01*
X12498677Y13886354D01*
X12723757Y13979585D01*
X12934743Y14101398D01*
X13128024Y14249707D01*
X13300293Y14421976D01*
X13359739Y14499448D01*
X14241499Y14499448D01*
X14252112Y14395579D01*
X14252112Y14395577D01*
X14252113Y14395575D01*
X14307885Y14227262D01*
X14385521Y14101396D01*
X14400970Y14076349D01*
X14400975Y14076343D01*
X14526342Y13950976D01*
X14526348Y13950971D01*
X14526349Y13950970D01*
X14677262Y13857885D01*
X14845575Y13802113D01*
X14873906Y13799219D01*
X14949448Y13791500D01*
X14949456Y13791500D01*
X17250552Y13791500D01*
X17319798Y13798576D01*
X17354425Y13802113D01*
X17522738Y13857885D01*
X17673651Y13950970D01*
X17799030Y14076349D01*
X17892115Y14227262D01*
X17934321Y14354633D01*
X34591500Y14354633D01*
X34591500Y14354630D01*
X34591500Y14195370D01*
X34622570Y14039169D01*
X34683517Y13892032D01*
X34750689Y13791501D01*
X34771998Y13759610D01*
X34772003Y13759604D01*
X34884603Y13647004D01*
X34884609Y13646999D01*
X34884611Y13646997D01*
X35017032Y13558517D01*
X35164169Y13497570D01*
X35320370Y13466500D01*
X35320371Y13466500D01*
X35479629Y13466500D01*
X35479630Y13466500D01*
X35635831Y13497570D01*
X35782968Y13558517D01*
X35915389Y13646997D01*
X36028003Y13759611D01*
X36116483Y13892032D01*
X36177430Y14039169D01*
X36208500Y14195370D01*
X36208500Y14354630D01*
X36177430Y14510831D01*
X36116483Y14657968D01*
X36028003Y14790389D01*
X36028001Y14790391D01*
X36027996Y14790397D01*
X35915396Y14902997D01*
X35915390Y14903002D01*
X35915389Y14903003D01*
X35782968Y14991483D01*
X35635831Y15052430D01*
X35557730Y15067965D01*
X35479632Y15083500D01*
X35479630Y15083500D01*
X35320370Y15083500D01*
X35320367Y15083500D01*
X35203219Y15060198D01*
X35164169Y15052430D01*
X35164167Y15052429D01*
X35017032Y14991483D01*
X34884609Y14903002D01*
X34884603Y14902997D01*
X34772003Y14790397D01*
X34771998Y14790391D01*
X34683517Y14657968D01*
X34622570Y14510831D01*
X34620306Y14499448D01*
X34591500Y14354633D01*
X17934321Y14354633D01*
X17947887Y14395575D01*
X17951968Y14435530D01*
X17958500Y14499448D01*
X17958500Y16198650D01*
X38501500Y16198650D01*
X38501500Y14401351D01*
X38508009Y14340804D01*
X38508011Y14340796D01*
X38559110Y14203798D01*
X38559112Y14203793D01*
X38646738Y14086739D01*
X38763792Y13999113D01*
X38763794Y13999112D01*
X38763796Y13999111D01*
X38816128Y13979592D01*
X38900795Y13948012D01*
X38900803Y13948010D01*
X38961350Y13941501D01*
X38961355Y13941501D01*
X38961362Y13941500D01*
X38961368Y13941500D01*
X40758632Y13941500D01*
X40758638Y13941500D01*
X40758645Y13941501D01*
X40758649Y13941501D01*
X40819196Y13948010D01*
X40819199Y13948011D01*
X40819201Y13948011D01*
X40827151Y13950976D01*
X40838045Y13955040D01*
X40956204Y13999111D01*
X41012199Y14041028D01*
X41073261Y14086739D01*
X41160887Y14203793D01*
X41160887Y14203794D01*
X41160889Y14203796D01*
X41204869Y14321712D01*
X41247414Y14378544D01*
X41313934Y14403355D01*
X41383308Y14388264D01*
X41412018Y14366771D01*
X41514990Y14263799D01*
X41514993Y14263797D01*
X41514996Y14263794D01*
X41687991Y14138106D01*
X41878517Y14041028D01*
X42081878Y13974953D01*
X42081879Y13974953D01*
X42081884Y13974951D01*
X42293084Y13941500D01*
X42293087Y13941500D01*
X42506913Y13941500D01*
X42506916Y13941500D01*
X42718116Y13974951D01*
X42921483Y14041028D01*
X43112009Y14138106D01*
X43285004Y14263794D01*
X43436206Y14414996D01*
X43561894Y14587991D01*
X43658972Y14778517D01*
X43725049Y14981884D01*
X43758500Y15193084D01*
X43758500Y15406916D01*
X43725049Y15618116D01*
X43658972Y15821483D01*
X43561894Y16012009D01*
X43436206Y16185004D01*
X43436203Y16185007D01*
X43436201Y16185010D01*
X43285009Y16336202D01*
X43285006Y16336204D01*
X43285004Y16336206D01*
X43112009Y16461894D01*
X42921483Y16558972D01*
X42921480Y16558973D01*
X42921478Y16558974D01*
X42718120Y16625048D01*
X42718123Y16625048D01*
X42678801Y16631276D01*
X42506916Y16658500D01*
X42293084Y16658500D01*
X42081884Y16625049D01*
X42081878Y16625048D01*
X41878521Y16558974D01*
X41878515Y16558971D01*
X41687987Y16461892D01*
X41514995Y16336206D01*
X41412018Y16233229D01*
X41349706Y16199204D01*
X41278890Y16204270D01*
X41222054Y16246816D01*
X41204871Y16278285D01*
X41160889Y16396204D01*
X41160886Y16396208D01*
X41160886Y16396209D01*
X41073261Y16513262D01*
X40956207Y16600888D01*
X40956202Y16600890D01*
X40819204Y16651989D01*
X40819196Y16651991D01*
X40758649Y16658500D01*
X40758638Y16658500D01*
X38961362Y16658500D01*
X38961350Y16658500D01*
X38900803Y16651991D01*
X38900795Y16651989D01*
X38763797Y16600890D01*
X38763792Y16600888D01*
X38646738Y16513262D01*
X38559112Y16396208D01*
X38559110Y16396203D01*
X38508011Y16259205D01*
X38508009Y16259197D01*
X38501500Y16198650D01*
X17958500Y16198650D01*
X17958500Y17400553D01*
X17947887Y17504422D01*
X17947887Y17504425D01*
X17892115Y17672738D01*
X17799030Y17823651D01*
X17799029Y17823652D01*
X17799024Y17823658D01*
X17673657Y17949025D01*
X17673651Y17949030D01*
X17554757Y18022365D01*
X17522738Y18042115D01*
X17354425Y18097887D01*
X17354423Y18097888D01*
X17354421Y18097888D01*
X17250552Y18108500D01*
X17250544Y18108500D01*
X14949456Y18108500D01*
X14949448Y18108500D01*
X14845578Y18097888D01*
X14677262Y18042115D01*
X14677260Y18042114D01*
X14526348Y17949030D01*
X14526342Y17949025D01*
X14400975Y17823658D01*
X14400970Y17823652D01*
X14307886Y17672740D01*
X14307885Y17672738D01*
X14252112Y17504422D01*
X14241500Y17400553D01*
X14241500Y14499448D01*
X14241499Y14499448D01*
X13359739Y14499448D01*
X13448602Y14615257D01*
X13570415Y14826243D01*
X13663646Y15051323D01*
X13726701Y15286647D01*
X13758500Y15528187D01*
X13758500Y16371813D01*
X13726701Y16613353D01*
X13663646Y16848677D01*
X13570415Y17073757D01*
X13448602Y17284743D01*
X13300293Y17478024D01*
X13300292Y17478025D01*
X13300283Y17478035D01*
X13128034Y17650284D01*
X13128024Y17650293D01*
X12934739Y17798605D01*
X12723768Y17920409D01*
X12723763Y17920412D01*
X12723757Y17920415D01*
X12498677Y18013646D01*
X12263353Y18076701D01*
X12263346Y18076703D01*
X12021815Y18108500D01*
X12021813Y18108500D01*
X11778187Y18108500D01*
X11778184Y18108500D01*
X11536653Y18076703D01*
X11301323Y18013646D01*
X11168725Y17958722D01*
X11076241Y17920414D01*
X11076231Y17920409D01*
X10865260Y17798605D01*
X10671975Y17650293D01*
X10671965Y17650284D01*
X10499716Y17478035D01*
X10499707Y17478025D01*
X10351395Y17284740D01*
X10229591Y17073769D01*
X10229586Y17073759D01*
X10136354Y16848677D01*
X10073297Y16613347D01*
X10041500Y16371816D01*
X36260Y16371816D01*
X36260Y25871816D01*
X5941500Y25871816D01*
X5941500Y25028185D01*
X5973297Y24786654D01*
X5973299Y24786647D01*
X6036354Y24551323D01*
X6129585Y24326243D01*
X6129586Y24326242D01*
X6129591Y24326232D01*
X6251395Y24115261D01*
X6251397Y24115258D01*
X6251398Y24115257D01*
X6296346Y24056679D01*
X6399707Y23921976D01*
X6399716Y23921966D01*
X6571965Y23749717D01*
X6571975Y23749708D01*
X6571976Y23749707D01*
X6765257Y23601398D01*
X6976243Y23479585D01*
X7201323Y23386354D01*
X7436647Y23323299D01*
X7436651Y23323299D01*
X7436653Y23323298D01*
X7498904Y23315103D01*
X7678187Y23291500D01*
X7678194Y23291500D01*
X7921806Y23291500D01*
X7921813Y23291500D01*
X8140103Y23320239D01*
X8163346Y23323298D01*
X8163346Y23323299D01*
X8163353Y23323299D01*
X8398677Y23386354D01*
X8623757Y23479585D01*
X8834743Y23601398D01*
X9028024Y23749707D01*
X9200293Y23921976D01*
X9348602Y24115257D01*
X9470415Y24326243D01*
X9563646Y24551323D01*
X9626701Y24786647D01*
X9658500Y25028187D01*
X9658500Y25871813D01*
X9658500Y25871816D01*
X10141500Y25871816D01*
X10141500Y25028185D01*
X10173297Y24786654D01*
X10173299Y24786647D01*
X10236354Y24551323D01*
X10329585Y24326243D01*
X10329586Y24326242D01*
X10329591Y24326232D01*
X10451395Y24115261D01*
X10451397Y24115258D01*
X10451398Y24115257D01*
X10496346Y24056679D01*
X10599707Y23921976D01*
X10599716Y23921966D01*
X10771965Y23749717D01*
X10771975Y23749708D01*
X10771976Y23749707D01*
X10965257Y23601398D01*
X11176243Y23479585D01*
X11401323Y23386354D01*
X11636647Y23323299D01*
X11636651Y23323299D01*
X11636653Y23323298D01*
X11698904Y23315103D01*
X11878187Y23291500D01*
X11878194Y23291500D01*
X12121806Y23291500D01*
X12121813Y23291500D01*
X12340103Y23320239D01*
X12363346Y23323298D01*
X12363346Y23323299D01*
X12363353Y23323299D01*
X12598677Y23386354D01*
X12823757Y23479585D01*
X13034743Y23601398D01*
X13228024Y23749707D01*
X13400293Y23921976D01*
X13548602Y24115257D01*
X13670415Y24326243D01*
X13763646Y24551323D01*
X13826701Y24786647D01*
X13858500Y25028187D01*
X13858500Y25871813D01*
X13858500Y25871816D01*
X14341500Y25871816D01*
X14341500Y25028185D01*
X14373297Y24786654D01*
X14373299Y24786647D01*
X14436354Y24551323D01*
X14529585Y24326243D01*
X14529586Y24326242D01*
X14529591Y24326232D01*
X14651395Y24115261D01*
X14651397Y24115258D01*
X14651398Y24115257D01*
X14696346Y24056679D01*
X14799707Y23921976D01*
X14799716Y23921966D01*
X14971965Y23749717D01*
X14971975Y23749708D01*
X14971976Y23749707D01*
X15165257Y23601398D01*
X15376243Y23479585D01*
X15601323Y23386354D01*
X15836647Y23323299D01*
X15836651Y23323299D01*
X15836653Y23323298D01*
X15898904Y23315103D01*
X16078187Y23291500D01*
X16078194Y23291500D01*
X16321806Y23291500D01*
X16321813Y23291500D01*
X16540103Y23320239D01*
X16563346Y23323298D01*
X16563346Y23323299D01*
X16563353Y23323299D01*
X16798677Y23386354D01*
X17023757Y23479585D01*
X17234743Y23601398D01*
X17428024Y23749707D01*
X17600293Y23921976D01*
X17748602Y24115257D01*
X17870415Y24326243D01*
X17963646Y24551323D01*
X18026701Y24786647D01*
X18058500Y25028187D01*
X18058500Y25871813D01*
X18026701Y26113353D01*
X17963646Y26348677D01*
X17870415Y26573757D01*
X17801272Y26693516D01*
X17748604Y26784740D01*
X17662553Y26896884D01*
X17600293Y26978024D01*
X17600292Y26978025D01*
X17600283Y26978035D01*
X17428034Y27150284D01*
X17428024Y27150293D01*
X17234739Y27298605D01*
X17023768Y27420409D01*
X17023763Y27420412D01*
X17023757Y27420415D01*
X16798677Y27513646D01*
X16563353Y27576701D01*
X16563346Y27576703D01*
X16321815Y27608500D01*
X16321813Y27608500D01*
X16078187Y27608500D01*
X16078184Y27608500D01*
X15836653Y27576703D01*
X15601323Y27513646D01*
X15376241Y27420414D01*
X15376231Y27420409D01*
X15165260Y27298605D01*
X14971975Y27150293D01*
X14971965Y27150284D01*
X14799716Y26978035D01*
X14799707Y26978025D01*
X14651395Y26784740D01*
X14529591Y26573769D01*
X14529586Y26573759D01*
X14529585Y26573757D01*
X14476156Y26444768D01*
X14436354Y26348677D01*
X14373297Y26113347D01*
X14341500Y25871816D01*
X13858500Y25871816D01*
X13826701Y26113353D01*
X13763646Y26348677D01*
X13670415Y26573757D01*
X13601272Y26693516D01*
X13548604Y26784740D01*
X13462553Y26896884D01*
X13400293Y26978024D01*
X13400292Y26978025D01*
X13400283Y26978035D01*
X13228034Y27150284D01*
X13228024Y27150293D01*
X13034739Y27298605D01*
X12823768Y27420409D01*
X12823763Y27420412D01*
X12823757Y27420415D01*
X12598677Y27513646D01*
X12363353Y27576701D01*
X12363346Y27576703D01*
X12121815Y27608500D01*
X12121813Y27608500D01*
X11878187Y27608500D01*
X11878184Y27608500D01*
X11636653Y27576703D01*
X11401323Y27513646D01*
X11176241Y27420414D01*
X11176231Y27420409D01*
X10965260Y27298605D01*
X10771975Y27150293D01*
X10771965Y27150284D01*
X10599716Y26978035D01*
X10599707Y26978025D01*
X10451395Y26784740D01*
X10329591Y26573769D01*
X10329586Y26573759D01*
X10329585Y26573757D01*
X10276156Y26444768D01*
X10236354Y26348677D01*
X10173297Y26113347D01*
X10141500Y25871816D01*
X9658500Y25871816D01*
X9626701Y26113353D01*
X9563646Y26348677D01*
X9470415Y26573757D01*
X9401272Y26693516D01*
X9348604Y26784740D01*
X9262553Y26896884D01*
X9200293Y26978024D01*
X9200292Y26978025D01*
X9200283Y26978035D01*
X9028034Y27150284D01*
X9028024Y27150293D01*
X8834739Y27298605D01*
X8623768Y27420409D01*
X8623763Y27420412D01*
X8623757Y27420415D01*
X8398677Y27513646D01*
X8163353Y27576701D01*
X8163346Y27576703D01*
X7921815Y27608500D01*
X7921813Y27608500D01*
X7678187Y27608500D01*
X7678184Y27608500D01*
X7436653Y27576703D01*
X7201323Y27513646D01*
X6976241Y27420414D01*
X6976231Y27420409D01*
X6765260Y27298605D01*
X6571975Y27150293D01*
X6571965Y27150284D01*
X6399716Y26978035D01*
X6399707Y26978025D01*
X6251395Y26784740D01*
X6129591Y26573769D01*
X6129586Y26573759D01*
X6129585Y26573757D01*
X6076156Y26444768D01*
X6036354Y26348677D01*
X5973297Y26113347D01*
X5941500Y25871816D01*
X36260Y25871816D01*
X36260Y31371816D01*
X10141500Y31371816D01*
X10141500Y30528185D01*
X10173297Y30286654D01*
X10178175Y30268448D01*
X10236354Y30051323D01*
X10329585Y29826243D01*
X10329586Y29826242D01*
X10329591Y29826232D01*
X10451395Y29615261D01*
X10599707Y29421976D01*
X10599716Y29421966D01*
X10771965Y29249717D01*
X10771975Y29249708D01*
X10771976Y29249707D01*
X10962739Y29103330D01*
X10965260Y29101396D01*
X11066421Y29042991D01*
X11176243Y28979585D01*
X11401323Y28886354D01*
X11636647Y28823299D01*
X11636651Y28823299D01*
X11636653Y28823298D01*
X11698904Y28815103D01*
X11878187Y28791500D01*
X11878194Y28791500D01*
X12121806Y28791500D01*
X12121813Y28791500D01*
X12340103Y28820239D01*
X12363346Y28823298D01*
X12363346Y28823299D01*
X12363353Y28823299D01*
X12598677Y28886354D01*
X12823757Y28979585D01*
X13034743Y29101398D01*
X13228024Y29249707D01*
X13400293Y29421976D01*
X13459739Y29499448D01*
X14341499Y29499448D01*
X14352112Y29395579D01*
X14352112Y29395577D01*
X14352113Y29395575D01*
X14407885Y29227262D01*
X14485521Y29101396D01*
X14500970Y29076349D01*
X14500975Y29076343D01*
X14626342Y28950976D01*
X14626348Y28950971D01*
X14626349Y28950970D01*
X14777262Y28857885D01*
X14945575Y28802113D01*
X14973906Y28799219D01*
X15049448Y28791500D01*
X15049456Y28791500D01*
X17350552Y28791500D01*
X17419798Y28798576D01*
X17454425Y28802113D01*
X17622738Y28857885D01*
X17773651Y28950970D01*
X17899030Y29076349D01*
X17992115Y29227262D01*
X18047887Y29395575D01*
X18053934Y29454765D01*
X18058500Y29499448D01*
X18058500Y30179633D01*
X20691500Y30179633D01*
X20691500Y30179630D01*
X20691500Y30020370D01*
X20722570Y29864169D01*
X20783517Y29717032D01*
X20854869Y29610245D01*
X20871998Y29584610D01*
X20872003Y29584604D01*
X20984603Y29472004D01*
X20984606Y29472002D01*
X20984611Y29471997D01*
X21010401Y29454765D01*
X21055929Y29400288D01*
X21064776Y29329844D01*
X21034135Y29265801D01*
X21010401Y29245236D01*
X20992864Y29233517D01*
X20984610Y29228002D01*
X20984603Y29227997D01*
X20872003Y29115397D01*
X20871998Y29115391D01*
X20826035Y29046602D01*
X20783517Y28982968D01*
X20746133Y28892715D01*
X20722571Y28835833D01*
X20722570Y28835830D01*
X20691500Y28679633D01*
X20691500Y28520368D01*
X20695503Y28500244D01*
X20722570Y28364169D01*
X20783517Y28217032D01*
X20861708Y28100010D01*
X20871998Y28084610D01*
X20872003Y28084604D01*
X20984603Y27972004D01*
X20984609Y27971999D01*
X20984611Y27971997D01*
X21117032Y27883517D01*
X21264169Y27822570D01*
X21420370Y27791500D01*
X21420371Y27791500D01*
X21579629Y27791500D01*
X21579630Y27791500D01*
X21735831Y27822570D01*
X21882968Y27883517D01*
X22015389Y27971997D01*
X22128003Y28084611D01*
X22216483Y28217032D01*
X22277430Y28364169D01*
X22308500Y28520370D01*
X22308500Y28679630D01*
X22277430Y28835831D01*
X22216483Y28982968D01*
X22128003Y29115389D01*
X22128001Y29115391D01*
X22127996Y29115397D01*
X22015396Y29227997D01*
X22015392Y29228000D01*
X22015389Y29228003D01*
X21989596Y29245237D01*
X21944071Y29299711D01*
X21935222Y29370154D01*
X21965863Y29434198D01*
X21989593Y29454761D01*
X22015389Y29471997D01*
X22128003Y29584611D01*
X22216483Y29717032D01*
X22277430Y29864169D01*
X22308500Y30020370D01*
X22308500Y30179630D01*
X22277430Y30335831D01*
X22216483Y30482968D01*
X22128003Y30615389D01*
X22128001Y30615391D01*
X22127996Y30615397D01*
X22015396Y30727997D01*
X22015390Y30728002D01*
X22014618Y30728518D01*
X21882968Y30816483D01*
X21735831Y30877430D01*
X21657730Y30892965D01*
X21579632Y30908500D01*
X21579630Y30908500D01*
X21420370Y30908500D01*
X21420367Y30908500D01*
X21303219Y30885198D01*
X21264169Y30877430D01*
X21202721Y30851977D01*
X21117032Y30816483D01*
X20984609Y30728002D01*
X20984603Y30727997D01*
X20872003Y30615397D01*
X20871998Y30615391D01*
X20783517Y30482968D01*
X20722571Y30335833D01*
X20722570Y30335830D01*
X20691500Y30179633D01*
X18058500Y30179633D01*
X18058500Y32400553D01*
X18047887Y32504422D01*
X18047887Y32504425D01*
X17992115Y32672738D01*
X17899030Y32823651D01*
X17899029Y32823652D01*
X17899024Y32823658D01*
X17773657Y32949025D01*
X17773651Y32949030D01*
X17668893Y33013646D01*
X17622738Y33042115D01*
X17454425Y33097887D01*
X17454423Y33097888D01*
X17454421Y33097888D01*
X17350552Y33108500D01*
X17350544Y33108500D01*
X15049456Y33108500D01*
X15049448Y33108500D01*
X14945578Y33097888D01*
X14777262Y33042115D01*
X14777260Y33042114D01*
X14626348Y32949030D01*
X14626342Y32949025D01*
X14500975Y32823658D01*
X14500970Y32823652D01*
X14407886Y32672740D01*
X14407885Y32672738D01*
X14352112Y32504422D01*
X14341500Y32400553D01*
X14341500Y29499448D01*
X14341499Y29499448D01*
X13459739Y29499448D01*
X13548602Y29615257D01*
X13670415Y29826243D01*
X13763646Y30051323D01*
X13826701Y30286647D01*
X13858500Y30528187D01*
X13858500Y31371813D01*
X13830981Y31580845D01*
X13826702Y31613347D01*
X13826701Y31613349D01*
X13826701Y31613353D01*
X13763646Y31848677D01*
X13670415Y32073757D01*
X13616864Y32166510D01*
X13548604Y32284740D01*
X13545735Y32288479D01*
X13400293Y32478024D01*
X13400292Y32478025D01*
X13400283Y32478035D01*
X13228034Y32650284D01*
X13228024Y32650293D01*
X13052068Y32785308D01*
X13034743Y32798602D01*
X13034742Y32798603D01*
X13034739Y32798605D01*
X12823768Y32920409D01*
X12823763Y32920412D01*
X12823757Y32920415D01*
X12598677Y33013646D01*
X12363353Y33076701D01*
X12363346Y33076703D01*
X12121815Y33108500D01*
X12121813Y33108500D01*
X11878187Y33108500D01*
X11878184Y33108500D01*
X11636653Y33076703D01*
X11401323Y33013646D01*
X11206781Y32933064D01*
X11176241Y32920414D01*
X11176231Y32920409D01*
X10965260Y32798605D01*
X10771975Y32650293D01*
X10771965Y32650284D01*
X10599716Y32478035D01*
X10599707Y32478025D01*
X10451395Y32284740D01*
X10329591Y32073769D01*
X10329586Y32073759D01*
X10329585Y32073757D01*
X10314766Y32037981D01*
X10236354Y31848677D01*
X10173297Y31613347D01*
X10141500Y31371816D01*
X36260Y31371816D01*
X36260Y34379633D01*
X19391500Y34379633D01*
X19391500Y34379630D01*
X19391500Y34220370D01*
X19422570Y34064169D01*
X19483517Y33917032D01*
X19568933Y33789197D01*
X19571998Y33784610D01*
X19572003Y33784604D01*
X19684603Y33672004D01*
X19684609Y33671999D01*
X19684611Y33671997D01*
X19817032Y33583517D01*
X19964169Y33522570D01*
X20120370Y33491500D01*
X20120371Y33491500D01*
X20279629Y33491500D01*
X20279630Y33491500D01*
X20435831Y33522570D01*
X20582968Y33583517D01*
X20715389Y33671997D01*
X20828003Y33784611D01*
X20916483Y33917032D01*
X20977430Y34064169D01*
X21008500Y34220370D01*
X21008500Y34379630D01*
X20977430Y34535831D01*
X20916483Y34682968D01*
X20828003Y34815389D01*
X20828001Y34815391D01*
X20827996Y34815397D01*
X20715396Y34927997D01*
X20715390Y34928002D01*
X20715389Y34928003D01*
X20582968Y35016483D01*
X20435831Y35077430D01*
X20357730Y35092965D01*
X20279632Y35108500D01*
X20279630Y35108500D01*
X20120370Y35108500D01*
X20120367Y35108500D01*
X20003219Y35085198D01*
X19964169Y35077430D01*
X19964167Y35077429D01*
X19817032Y35016483D01*
X19684609Y34928002D01*
X19684603Y34927997D01*
X19572003Y34815397D01*
X19571998Y34815391D01*
X19483517Y34682968D01*
X19422571Y34535833D01*
X19422570Y34535830D01*
X19391500Y34379633D01*
X36260Y34379633D01*
X36260Y40398650D01*
X4041500Y40398650D01*
X4041500Y38601351D01*
X4048009Y38540804D01*
X4048011Y38540796D01*
X4099110Y38403798D01*
X4099112Y38403793D01*
X4186738Y38286739D01*
X4303791Y38199114D01*
X4303792Y38199114D01*
X4303796Y38199111D01*
X4421711Y38155131D01*
X4478543Y38112586D01*
X4503354Y38046066D01*
X4488263Y37976692D01*
X4466771Y37947982D01*
X4363794Y37845005D01*
X4238108Y37672013D01*
X4141029Y37481485D01*
X4141026Y37481479D01*
X4074952Y37278122D01*
X4074951Y37278117D01*
X4074951Y37278116D01*
X4041500Y37066916D01*
X4041500Y36853084D01*
X4073619Y36650294D01*
X4074952Y36641879D01*
X4141026Y36438522D01*
X4141028Y36438517D01*
X4238106Y36247991D01*
X4363794Y36074996D01*
X4363796Y36074994D01*
X4363798Y36074991D01*
X4514990Y35923799D01*
X4514993Y35923797D01*
X4514996Y35923794D01*
X4687991Y35798106D01*
X4878517Y35701028D01*
X5081878Y35634953D01*
X5081879Y35634953D01*
X5081884Y35634951D01*
X5293084Y35601500D01*
X5293087Y35601500D01*
X5506913Y35601500D01*
X5506916Y35601500D01*
X5718116Y35634951D01*
X5921483Y35701028D01*
X6112009Y35798106D01*
X6285004Y35923794D01*
X6436206Y36074996D01*
X6561894Y36247991D01*
X6658972Y36438517D01*
X6725049Y36641884D01*
X6746866Y36779633D01*
X12691500Y36779633D01*
X12691500Y36620368D01*
X12697942Y36587982D01*
X12722570Y36464169D01*
X12783517Y36317032D01*
X12871997Y36184611D01*
X12871998Y36184610D01*
X12872003Y36184604D01*
X12984603Y36072004D01*
X12984609Y36071999D01*
X12984611Y36071997D01*
X13117032Y35983517D01*
X13264169Y35922570D01*
X13420370Y35891500D01*
X13420371Y35891500D01*
X13579629Y35891500D01*
X13579630Y35891500D01*
X13735831Y35922570D01*
X13882968Y35983517D01*
X14015389Y36071997D01*
X14018388Y36074996D01*
X14060905Y36117512D01*
X14123217Y36151538D01*
X14194032Y36146473D01*
X14239095Y36117512D01*
X14284603Y36072004D01*
X14284609Y36071999D01*
X14284611Y36071997D01*
X14417032Y35983517D01*
X14564169Y35922570D01*
X14720370Y35891500D01*
X14720371Y35891500D01*
X14879629Y35891500D01*
X14879630Y35891500D01*
X15035831Y35922570D01*
X15182968Y35983517D01*
X15315389Y36071997D01*
X15428003Y36184611D01*
X15516483Y36317032D01*
X15577430Y36464169D01*
X15608500Y36620370D01*
X15608500Y36779630D01*
X15577430Y36935831D01*
X15516483Y37082968D01*
X15428003Y37215389D01*
X15428001Y37215391D01*
X15427996Y37215397D01*
X15315396Y37327997D01*
X15315390Y37328002D01*
X15315389Y37328003D01*
X15182968Y37416483D01*
X15035831Y37477430D01*
X14957730Y37492965D01*
X14879632Y37508500D01*
X14879630Y37508500D01*
X14720370Y37508500D01*
X14720367Y37508500D01*
X14603219Y37485198D01*
X14564169Y37477430D01*
X14564167Y37477429D01*
X14417032Y37416483D01*
X14284609Y37328002D01*
X14284603Y37327997D01*
X14239095Y37282488D01*
X14176783Y37248462D01*
X14105968Y37253527D01*
X14060905Y37282488D01*
X14015396Y37327997D01*
X14015390Y37328002D01*
X14015389Y37328003D01*
X13882968Y37416483D01*
X13735831Y37477430D01*
X13657730Y37492965D01*
X13579632Y37508500D01*
X13579630Y37508500D01*
X13420370Y37508500D01*
X13420367Y37508500D01*
X13303219Y37485198D01*
X13264169Y37477430D01*
X13264167Y37477429D01*
X13117032Y37416483D01*
X12984609Y37328002D01*
X12984603Y37327997D01*
X12872003Y37215397D01*
X12871998Y37215391D01*
X12871997Y37215389D01*
X12783517Y37082968D01*
X12728624Y36950445D01*
X12722571Y36935833D01*
X12722570Y36935830D01*
X12691500Y36779633D01*
X6746866Y36779633D01*
X6758500Y36853084D01*
X6758500Y37066916D01*
X6725049Y37278116D01*
X6658972Y37481483D01*
X6561894Y37672009D01*
X6436206Y37845004D01*
X6436203Y37845007D01*
X6436201Y37845010D01*
X6333229Y37947982D01*
X6299203Y38010294D01*
X6304268Y38081109D01*
X6346815Y38137945D01*
X6378284Y38155129D01*
X6496204Y38199111D01*
X6613261Y38286739D01*
X6666306Y38357598D01*
X6700887Y38403793D01*
X6700887Y38403794D01*
X6700889Y38403796D01*
X6751989Y38540799D01*
X6753724Y38556932D01*
X6758499Y38601351D01*
X6758500Y38601368D01*
X6758500Y40179633D01*
X15991500Y40179633D01*
X15991500Y40179630D01*
X15991500Y40020370D01*
X16022570Y39864169D01*
X16083517Y39717032D01*
X16171997Y39584611D01*
X16171998Y39584610D01*
X16172003Y39584604D01*
X16284603Y39472004D01*
X16284609Y39471999D01*
X16284611Y39471997D01*
X16417032Y39383517D01*
X16564169Y39322570D01*
X16720370Y39291500D01*
X16720371Y39291500D01*
X16879629Y39291500D01*
X16879630Y39291500D01*
X17035831Y39322570D01*
X17126784Y39360246D01*
X17197371Y39367835D01*
X17223213Y39360248D01*
X17314172Y39322570D01*
X17470373Y39291500D01*
X17470374Y39291500D01*
X17629632Y39291500D01*
X17629633Y39291500D01*
X17785834Y39322570D01*
X17932971Y39383517D01*
X18065392Y39471997D01*
X18178006Y39584611D01*
X18266486Y39717032D01*
X18327433Y39864169D01*
X18358503Y40020370D01*
X18358503Y40179630D01*
X18327433Y40335831D01*
X18266486Y40482968D01*
X18178006Y40615389D01*
X18178004Y40615391D01*
X18177999Y40615397D01*
X18065399Y40727997D01*
X18065393Y40728002D01*
X18065392Y40728003D01*
X17932971Y40816483D01*
X17785834Y40877430D01*
X17684442Y40897598D01*
X17629635Y40908500D01*
X17629633Y40908500D01*
X17470373Y40908500D01*
X17470370Y40908500D01*
X17354015Y40885356D01*
X17314172Y40877430D01*
X17314171Y40877430D01*
X17314168Y40877429D01*
X17223220Y40839756D01*
X17152630Y40832167D01*
X17126783Y40839756D01*
X17035833Y40877429D01*
X17035834Y40877429D01*
X17035831Y40877430D01*
X16934439Y40897598D01*
X16879632Y40908500D01*
X16879630Y40908500D01*
X16720370Y40908500D01*
X16720367Y40908500D01*
X16603219Y40885198D01*
X16564169Y40877430D01*
X16437594Y40825000D01*
X16417032Y40816483D01*
X16284609Y40728002D01*
X16284603Y40727997D01*
X16172003Y40615397D01*
X16171998Y40615391D01*
X16083517Y40482968D01*
X16022571Y40335833D01*
X16022570Y40335830D01*
X15991500Y40179633D01*
X6758500Y40179633D01*
X6758500Y40398633D01*
X6758499Y40398650D01*
X6751990Y40459197D01*
X6751988Y40459205D01*
X6720700Y40543090D01*
X6700889Y40596204D01*
X6700888Y40596206D01*
X6700887Y40596208D01*
X6613261Y40713262D01*
X6496207Y40800888D01*
X6496202Y40800890D01*
X6359204Y40851989D01*
X6359196Y40851991D01*
X6298649Y40858500D01*
X6298638Y40858500D01*
X4501362Y40858500D01*
X4501350Y40858500D01*
X4440803Y40851991D01*
X4440795Y40851989D01*
X4303797Y40800890D01*
X4303792Y40800888D01*
X4186738Y40713262D01*
X4099112Y40596208D01*
X4099110Y40596203D01*
X4048011Y40459205D01*
X4048009Y40459197D01*
X4041500Y40398650D01*
X36260Y40398650D01*
X36260Y41679633D01*
X12391500Y41679633D01*
X12391500Y41679630D01*
X12391500Y41520370D01*
X12422570Y41364169D01*
X12483517Y41217032D01*
X12571997Y41084611D01*
X12571998Y41084610D01*
X12572003Y41084604D01*
X12684603Y40972004D01*
X12684609Y40971999D01*
X12684611Y40971997D01*
X12817032Y40883517D01*
X12964169Y40822570D01*
X13120370Y40791500D01*
X13120371Y40791500D01*
X13279629Y40791500D01*
X13279630Y40791500D01*
X13435831Y40822570D01*
X13582968Y40883517D01*
X13715389Y40971997D01*
X13828003Y41084611D01*
X13916483Y41217032D01*
X13977430Y41364169D01*
X14008500Y41520370D01*
X14008500Y41679630D01*
X13977430Y41835831D01*
X13916483Y41982968D01*
X13828003Y42115389D01*
X13828001Y42115391D01*
X13827996Y42115397D01*
X13715396Y42227997D01*
X13715390Y42228002D01*
X13715389Y42228003D01*
X13582968Y42316483D01*
X13435831Y42377430D01*
X13339954Y42396501D01*
X13279632Y42408500D01*
X13279630Y42408500D01*
X13120370Y42408500D01*
X13120367Y42408500D01*
X13003219Y42385198D01*
X12964169Y42377430D01*
X12964167Y42377429D01*
X12817032Y42316483D01*
X12684609Y42228002D01*
X12684603Y42227997D01*
X12572003Y42115397D01*
X12571998Y42115391D01*
X12571997Y42115389D01*
X12483517Y41982968D01*
X12422602Y41835907D01*
X12422571Y41835833D01*
X12422570Y41835830D01*
X12391500Y41679633D01*
X36260Y41679633D01*
X36260Y41944456D01*
X37338Y41960900D01*
X40243Y41982968D01*
X42426Y41999549D01*
X50939Y42031319D01*
X62671Y42059642D01*
X79111Y42088120D01*
X102849Y42119057D01*
X113704Y42131434D01*
X1636903Y43654633D01*
X8691500Y43654633D01*
X8691500Y43495368D01*
X8706021Y43422366D01*
X8722570Y43339169D01*
X8783517Y43192032D01*
X8849645Y43093064D01*
X8871998Y43059610D01*
X8872003Y43059604D01*
X8984603Y42947004D01*
X8984609Y42946999D01*
X8984611Y42946997D01*
X9117032Y42858517D01*
X9264169Y42797570D01*
X9420370Y42766500D01*
X9420371Y42766500D01*
X9579629Y42766500D01*
X9579630Y42766500D01*
X9735831Y42797570D01*
X9882968Y42858517D01*
X10015389Y42946997D01*
X10128003Y43059611D01*
X10216483Y43192032D01*
X10277430Y43339169D01*
X10299358Y43449408D01*
X20611500Y43449408D01*
X20611500Y43260593D01*
X20644823Y43093068D01*
X20648334Y43075416D01*
X20720588Y42900980D01*
X20825484Y42743992D01*
X20958992Y42610484D01*
X21115980Y42505588D01*
X21290416Y42433334D01*
X21475596Y42396500D01*
X21475597Y42396500D01*
X21664403Y42396500D01*
X21664404Y42396500D01*
X21849584Y42433334D01*
X22024020Y42505588D01*
X22181008Y42610484D01*
X22314516Y42743992D01*
X22419412Y42900980D01*
X22491666Y43075416D01*
X22528500Y43260596D01*
X22528500Y43449404D01*
X22491666Y43634584D01*
X22419412Y43809020D01*
X22314516Y43966008D01*
X22181008Y44099516D01*
X22024020Y44204412D01*
X21849584Y44276666D01*
X21664407Y44313500D01*
X21664404Y44313500D01*
X21475596Y44313500D01*
X21475592Y44313500D01*
X21290415Y44276666D01*
X21290410Y44276664D01*
X21115980Y44204412D01*
X20958996Y44099519D01*
X20958989Y44099514D01*
X20825486Y43966011D01*
X20825481Y43966004D01*
X20720588Y43809020D01*
X20648336Y43634590D01*
X20648334Y43634585D01*
X20611500Y43449408D01*
X10299358Y43449408D01*
X10308500Y43495370D01*
X10308500Y43654630D01*
X10277430Y43810831D01*
X10216483Y43957968D01*
X10128003Y44090389D01*
X10128001Y44090391D01*
X10127996Y44090397D01*
X10015396Y44202997D01*
X10015390Y44203002D01*
X9905143Y44276666D01*
X9882968Y44291483D01*
X9735831Y44352430D01*
X9657730Y44367965D01*
X9579632Y44383500D01*
X9579630Y44383500D01*
X9420370Y44383500D01*
X9420367Y44383500D01*
X9303219Y44360198D01*
X9264169Y44352430D01*
X9264167Y44352429D01*
X9117032Y44291483D01*
X8984609Y44203002D01*
X8984603Y44202997D01*
X8872003Y44090397D01*
X8871998Y44090391D01*
X8783517Y43957968D01*
X8722571Y43810833D01*
X8722570Y43810830D01*
X8691500Y43654633D01*
X1636903Y43654633D01*
X4286969Y46304699D01*
X7271934Y46304699D01*
X7271934Y46068515D01*
X7308881Y45835239D01*
X7381866Y45610615D01*
X7489091Y45400174D01*
X7489093Y45400171D01*
X7627918Y45209095D01*
X7794921Y45042092D01*
X7794924Y45042090D01*
X7986001Y44903264D01*
X8196442Y44796039D01*
X8421066Y44723054D01*
X8654342Y44686107D01*
X8654345Y44686107D01*
X8890523Y44686107D01*
X8890526Y44686107D01*
X9123802Y44723054D01*
X9348426Y44796039D01*
X9558867Y44903264D01*
X9749944Y45042090D01*
X9916951Y45209097D01*
X10055777Y45400174D01*
X10163002Y45610615D01*
X10235987Y45835239D01*
X10272934Y46068515D01*
X10272934Y46304699D01*
X10265181Y46353650D01*
X20611500Y46353650D01*
X20611500Y45356351D01*
X20618009Y45295804D01*
X20618011Y45295796D01*
X20669110Y45158798D01*
X20669112Y45158793D01*
X20756738Y45041739D01*
X20873792Y44954113D01*
X20873794Y44954112D01*
X20873796Y44954111D01*
X20907854Y44941408D01*
X21010795Y44903012D01*
X21010803Y44903010D01*
X21071350Y44896501D01*
X21071355Y44896501D01*
X21071362Y44896500D01*
X21071368Y44896500D01*
X22068632Y44896500D01*
X22068638Y44896500D01*
X22068645Y44896501D01*
X22068649Y44896501D01*
X22129196Y44903010D01*
X22129199Y44903011D01*
X22129201Y44903011D01*
X22129880Y44903264D01*
X22148045Y44910040D01*
X22266204Y44954111D01*
X22383261Y45041739D01*
X22470889Y45158796D01*
X22521989Y45295799D01*
X22528500Y45356362D01*
X22528500Y46353638D01*
X22528499Y46353650D01*
X22521990Y46414197D01*
X22521988Y46414205D01*
X22475823Y46537975D01*
X22470889Y46551204D01*
X22470888Y46551206D01*
X22470887Y46551208D01*
X22383261Y46668262D01*
X22266207Y46755888D01*
X22266202Y46755890D01*
X22129204Y46806989D01*
X22129196Y46806991D01*
X22068649Y46813500D01*
X22068638Y46813500D01*
X21071362Y46813500D01*
X21071350Y46813500D01*
X21010803Y46806991D01*
X21010795Y46806989D01*
X20873797Y46755890D01*
X20873792Y46755888D01*
X20756738Y46668262D01*
X20669112Y46551208D01*
X20669110Y46551203D01*
X20618011Y46414205D01*
X20618009Y46414197D01*
X20611500Y46353650D01*
X10265181Y46353650D01*
X10235987Y46537975D01*
X10163002Y46762599D01*
X10055777Y46973040D01*
X9916951Y47164117D01*
X9916949Y47164120D01*
X9749949Y47331120D01*
X9749946Y47331122D01*
X9749945Y47331123D01*
X9749944Y47331124D01*
X9598566Y47441107D01*
X9558870Y47469948D01*
X9558869Y47469949D01*
X9558867Y47469950D01*
X9539863Y47479633D01*
X16891500Y47479633D01*
X16891500Y47320368D01*
X16899932Y47277978D01*
X16922570Y47164169D01*
X16983517Y47017032D01*
X17071997Y46884611D01*
X17071998Y46884610D01*
X17072003Y46884604D01*
X17184603Y46772004D01*
X17184609Y46771999D01*
X17184611Y46771997D01*
X17317032Y46683517D01*
X17464169Y46622570D01*
X17620370Y46591500D01*
X17620371Y46591500D01*
X17779629Y46591500D01*
X17779630Y46591500D01*
X17935831Y46622570D01*
X18001783Y46649890D01*
X18072369Y46657479D01*
X18098208Y46649893D01*
X18164169Y46622570D01*
X18320370Y46591500D01*
X18320371Y46591500D01*
X18479629Y46591500D01*
X18479630Y46591500D01*
X18635831Y46622570D01*
X18782968Y46683517D01*
X18915389Y46771997D01*
X19028003Y46884611D01*
X19116483Y47017032D01*
X19177430Y47164169D01*
X19208500Y47320370D01*
X19208500Y47479630D01*
X19177430Y47635831D01*
X19116483Y47782968D01*
X19028003Y47915389D01*
X19028001Y47915391D01*
X19027996Y47915397D01*
X18919743Y48023650D01*
X24866500Y48023650D01*
X24866500Y46326351D01*
X24873009Y46265804D01*
X24873011Y46265796D01*
X24924110Y46128798D01*
X24924112Y46128793D01*
X25011738Y46011739D01*
X25128792Y45924113D01*
X25128794Y45924112D01*
X25128796Y45924111D01*
X25165567Y45910396D01*
X25265795Y45873012D01*
X25265798Y45873012D01*
X25265799Y45873011D01*
X25265804Y45873010D01*
X25277728Y45871728D01*
X25343321Y45844560D01*
X25383813Y45786243D01*
X25386349Y45715292D01*
X25350122Y45654233D01*
X25338326Y45644516D01*
X25322567Y45633067D01*
X25176936Y45487436D01*
X25176934Y45487433D01*
X25055873Y45320807D01*
X24962367Y45137292D01*
X24962364Y45137286D01*
X24898721Y44941413D01*
X24898720Y44941410D01*
X24898720Y44941408D01*
X24866500Y44737981D01*
X24866500Y44532019D01*
X24894945Y44352429D01*
X24898721Y44328588D01*
X24939526Y44203002D01*
X24962366Y44132710D01*
X25055871Y43949197D01*
X25176932Y43782570D01*
X25176934Y43782568D01*
X25176936Y43782565D01*
X25322564Y43636937D01*
X25322567Y43636935D01*
X25322570Y43636932D01*
X25489197Y43515871D01*
X25564962Y43477267D01*
X25616577Y43428518D01*
X25633643Y43359603D01*
X25610742Y43292402D01*
X25564963Y43252734D01*
X25496033Y43217613D01*
X25489193Y43214127D01*
X25322567Y43093066D01*
X25322564Y43093064D01*
X25176936Y42947436D01*
X25176934Y42947433D01*
X25055873Y42780807D01*
X24962367Y42597292D01*
X24962364Y42597286D01*
X24898721Y42401413D01*
X24898720Y42401410D01*
X24898720Y42401408D01*
X24866500Y42197981D01*
X24866500Y41992019D01*
X24898720Y41788592D01*
X24898721Y41788588D01*
X24956548Y41610614D01*
X24962366Y41592710D01*
X25039440Y41441445D01*
X25055873Y41409194D01*
X25062429Y41400171D01*
X25176932Y41242570D01*
X25176934Y41242568D01*
X25176936Y41242565D01*
X25322564Y41096937D01*
X25322567Y41096935D01*
X25322570Y41096932D01*
X25489197Y40975871D01*
X25564962Y40937267D01*
X25616577Y40888518D01*
X25633643Y40819603D01*
X25610742Y40752402D01*
X25564963Y40712734D01*
X25512705Y40686107D01*
X25489193Y40674127D01*
X25322567Y40553066D01*
X25322564Y40553064D01*
X25176936Y40407436D01*
X25176934Y40407433D01*
X25055873Y40240807D01*
X24962367Y40057292D01*
X24962364Y40057286D01*
X24898721Y39861413D01*
X24898720Y39861410D01*
X24898720Y39861408D01*
X24866500Y39657981D01*
X24866500Y39452019D01*
X24897992Y39253190D01*
X24898721Y39248588D01*
X24947258Y39099205D01*
X24962366Y39052710D01*
X25055871Y38869197D01*
X25176932Y38702570D01*
X25176934Y38702568D01*
X25176936Y38702565D01*
X25322564Y38556937D01*
X25322567Y38556935D01*
X25322570Y38556932D01*
X25489197Y38435871D01*
X25564962Y38397267D01*
X25616577Y38348518D01*
X25633643Y38279603D01*
X25610742Y38212402D01*
X25564963Y38172734D01*
X25516442Y38148011D01*
X25489193Y38134127D01*
X25322567Y38013066D01*
X25322564Y38013064D01*
X25176936Y37867436D01*
X25176934Y37867433D01*
X25055873Y37700807D01*
X24962367Y37517292D01*
X24962364Y37517286D01*
X24898721Y37321413D01*
X24898720Y37321410D01*
X24898720Y37321408D01*
X24866500Y37117981D01*
X24866500Y36912019D01*
X24898720Y36708592D01*
X24898721Y36708588D01*
X24937908Y36587982D01*
X24962366Y36512710D01*
X25000170Y36438516D01*
X25055873Y36329194D01*
X25064709Y36317032D01*
X25176932Y36162570D01*
X25176934Y36162568D01*
X25176936Y36162565D01*
X25322564Y36016937D01*
X25322567Y36016935D01*
X25322570Y36016932D01*
X25489197Y35895871D01*
X25564962Y35857267D01*
X25616577Y35808518D01*
X25633643Y35739603D01*
X25610742Y35672402D01*
X25564963Y35632734D01*
X25503663Y35601500D01*
X25489193Y35594127D01*
X25322567Y35473066D01*
X25322564Y35473064D01*
X25176936Y35327436D01*
X25176934Y35327433D01*
X25055873Y35160807D01*
X24962367Y34977292D01*
X24962364Y34977286D01*
X24898721Y34781413D01*
X24898720Y34781410D01*
X24898720Y34781408D01*
X24866500Y34577981D01*
X24866500Y34372019D01*
X24898720Y34168592D01*
X24898721Y34168588D01*
X24947258Y34019205D01*
X24962366Y33972710D01*
X25055871Y33789197D01*
X25055873Y33789194D01*
X25059208Y33784604D01*
X25176932Y33622570D01*
X25176934Y33622568D01*
X25176936Y33622565D01*
X25322564Y33476937D01*
X25322567Y33476935D01*
X25322570Y33476932D01*
X25489197Y33355871D01*
X25564962Y33317267D01*
X25616577Y33268518D01*
X25633643Y33199603D01*
X25610742Y33132402D01*
X25564963Y33092734D01*
X25496033Y33057613D01*
X25489193Y33054127D01*
X25322567Y32933066D01*
X25322564Y32933064D01*
X25176936Y32787436D01*
X25176934Y32787433D01*
X25055873Y32620807D01*
X24962367Y32437292D01*
X24962364Y32437286D01*
X24898721Y32241413D01*
X24898720Y32241410D01*
X24898720Y32241408D01*
X24866500Y32037981D01*
X24866500Y31832019D01*
X24898720Y31628592D01*
X24898721Y31628588D01*
X24914232Y31580849D01*
X24962366Y31432710D01*
X25055871Y31249197D01*
X25176932Y31082570D01*
X25176934Y31082568D01*
X25176936Y31082565D01*
X25322564Y30936937D01*
X25322567Y30936935D01*
X25322570Y30936932D01*
X25489197Y30815871D01*
X25564962Y30777267D01*
X25616577Y30728518D01*
X25633643Y30659603D01*
X25610742Y30592402D01*
X25564963Y30552734D01*
X25496033Y30517613D01*
X25489193Y30514127D01*
X25322567Y30393066D01*
X25322564Y30393064D01*
X25176936Y30247436D01*
X25176934Y30247433D01*
X25055873Y30080807D01*
X24962367Y29897292D01*
X24962364Y29897286D01*
X24898721Y29701413D01*
X24898721Y29701411D01*
X24898720Y29701408D01*
X24866500Y29497981D01*
X24866500Y29292019D01*
X24896386Y29103330D01*
X24898721Y29088588D01*
X24943435Y28950971D01*
X24962366Y28892710D01*
X25055871Y28709197D01*
X25176932Y28542570D01*
X25176934Y28542568D01*
X25176936Y28542565D01*
X25322564Y28396937D01*
X25322567Y28396935D01*
X25322570Y28396932D01*
X25489197Y28275871D01*
X25564962Y28237267D01*
X25616577Y28188518D01*
X25633643Y28119603D01*
X25610742Y28052402D01*
X25564963Y28012734D01*
X25518819Y27989222D01*
X25489193Y27974127D01*
X25322567Y27853066D01*
X25322564Y27853064D01*
X25176936Y27707436D01*
X25176934Y27707433D01*
X25055873Y27540807D01*
X24962367Y27357292D01*
X24962364Y27357286D01*
X24898721Y27161413D01*
X24898720Y27161410D01*
X24898720Y27161408D01*
X24866500Y26957981D01*
X24866500Y26752019D01*
X24896386Y26563330D01*
X24898721Y26548588D01*
X24940852Y26418921D01*
X24962366Y26352710D01*
X25055871Y26169197D01*
X25176932Y26002570D01*
X25176934Y26002568D01*
X25176936Y26002565D01*
X25322564Y25856937D01*
X25322567Y25856935D01*
X25322570Y25856932D01*
X25489197Y25735871D01*
X25564962Y25697267D01*
X25616577Y25648518D01*
X25633643Y25579603D01*
X25610742Y25512402D01*
X25564963Y25472734D01*
X25548103Y25464143D01*
X25489193Y25434127D01*
X25322567Y25313066D01*
X25322564Y25313064D01*
X25176936Y25167436D01*
X25176934Y25167433D01*
X25055873Y25000807D01*
X24962367Y24817292D01*
X24962364Y24817286D01*
X24898721Y24621413D01*
X24898720Y24621410D01*
X24898720Y24621408D01*
X24866500Y24417981D01*
X24866500Y24212019D01*
X24893982Y24038509D01*
X24898721Y24008588D01*
X24932025Y23906088D01*
X24962366Y23812710D01*
X25051347Y23638076D01*
X25055873Y23629194D01*
X25085802Y23588001D01*
X25176932Y23462570D01*
X25176934Y23462568D01*
X25176936Y23462565D01*
X25322564Y23316937D01*
X25322567Y23316935D01*
X25322570Y23316932D01*
X25489197Y23195871D01*
X25564962Y23157267D01*
X25616577Y23108518D01*
X25633643Y23039603D01*
X25610742Y22972402D01*
X25564963Y22932734D01*
X25526797Y22913287D01*
X25489193Y22894127D01*
X25322567Y22773066D01*
X25322564Y22773064D01*
X25176936Y22627436D01*
X25176934Y22627433D01*
X25055873Y22460807D01*
X24962367Y22277292D01*
X24962364Y22277286D01*
X24898721Y22081413D01*
X24898720Y22081410D01*
X24898720Y22081408D01*
X24866500Y21877981D01*
X24866500Y21672019D01*
X24896386Y21483330D01*
X24898721Y21468588D01*
X24913537Y21422988D01*
X24962366Y21272710D01*
X25055871Y21089197D01*
X25176932Y20922570D01*
X25176934Y20922568D01*
X25176936Y20922565D01*
X25322564Y20776937D01*
X25322567Y20776935D01*
X25322570Y20776932D01*
X25489197Y20655871D01*
X25564962Y20617267D01*
X25616577Y20568518D01*
X25633643Y20499603D01*
X25610742Y20432402D01*
X25564963Y20392734D01*
X25496033Y20357613D01*
X25489193Y20354127D01*
X25322567Y20233066D01*
X25322564Y20233064D01*
X25176936Y20087436D01*
X25176934Y20087433D01*
X25055873Y19920807D01*
X24962367Y19737292D01*
X24962364Y19737286D01*
X24898721Y19541413D01*
X24898720Y19541410D01*
X24898720Y19541408D01*
X24866500Y19337981D01*
X24866500Y19132019D01*
X24898720Y18928592D01*
X24898721Y18928588D01*
X24913537Y18882988D01*
X24962366Y18732710D01*
X25055871Y18549197D01*
X25176932Y18382570D01*
X25176934Y18382568D01*
X25176936Y18382565D01*
X25322564Y18236937D01*
X25322567Y18236935D01*
X25322570Y18236932D01*
X25489197Y18115871D01*
X25672710Y18022366D01*
X25868592Y17958720D01*
X26072019Y17926500D01*
X26072022Y17926500D01*
X26277978Y17926500D01*
X26277981Y17926500D01*
X26481408Y17958720D01*
X26677290Y18022366D01*
X26860803Y18115871D01*
X27027430Y18236932D01*
X27173068Y18382570D01*
X27294129Y18549197D01*
X27387634Y18732710D01*
X27451280Y18928592D01*
X27483500Y19132019D01*
X27483500Y19337981D01*
X27451280Y19541408D01*
X27387634Y19737290D01*
X27294129Y19920803D01*
X27173068Y20087430D01*
X27173065Y20087433D01*
X27173063Y20087436D01*
X27027435Y20233064D01*
X27027432Y20233066D01*
X27027430Y20233068D01*
X26860803Y20354129D01*
X26785034Y20392735D01*
X26733422Y20441481D01*
X26716356Y20510396D01*
X26739257Y20577598D01*
X26785034Y20617265D01*
X26860803Y20655871D01*
X27027430Y20776932D01*
X27173068Y20922570D01*
X27294129Y21089197D01*
X27387634Y21272710D01*
X27451280Y21468592D01*
X27483500Y21672019D01*
X27483500Y21877981D01*
X27451280Y22081408D01*
X27387634Y22277290D01*
X27294129Y22460803D01*
X27173068Y22627430D01*
X27173065Y22627433D01*
X27173063Y22627436D01*
X27027435Y22773064D01*
X27027432Y22773066D01*
X27027430Y22773068D01*
X26860803Y22894129D01*
X26785034Y22932735D01*
X26733422Y22981481D01*
X26716356Y23050396D01*
X26739257Y23117598D01*
X26785034Y23157265D01*
X26860803Y23195871D01*
X27027430Y23316932D01*
X27173068Y23462570D01*
X27206300Y23508310D01*
X34107061Y23508310D01*
X34107061Y23349045D01*
X34116856Y23299804D01*
X34138131Y23192846D01*
X34199078Y23045709D01*
X34287558Y22913288D01*
X34287559Y22913287D01*
X34287564Y22913281D01*
X34400164Y22800681D01*
X34400170Y22800676D01*
X34400172Y22800674D01*
X34532593Y22712194D01*
X34679730Y22651247D01*
X34835931Y22620177D01*
X34835932Y22620177D01*
X34995190Y22620177D01*
X34995191Y22620177D01*
X35151392Y22651247D01*
X35241247Y22688468D01*
X35311834Y22696057D01*
X35337675Y22688470D01*
X35427536Y22651247D01*
X35583737Y22620177D01*
X35583738Y22620177D01*
X35742996Y22620177D01*
X35742997Y22620177D01*
X35899198Y22651247D01*
X35989052Y22688467D01*
X36059636Y22696056D01*
X36085486Y22688466D01*
X36175333Y22651250D01*
X36175334Y22651250D01*
X36175341Y22651247D01*
X36331542Y22620177D01*
X36331543Y22620177D01*
X36490801Y22620177D01*
X36490802Y22620177D01*
X36647003Y22651247D01*
X36794140Y22712194D01*
X36926561Y22800674D01*
X37039175Y22913288D01*
X37127655Y23045709D01*
X37188602Y23192846D01*
X37219672Y23349047D01*
X37219672Y23508307D01*
X37188602Y23664508D01*
X37127655Y23811645D01*
X37039175Y23944066D01*
X37039173Y23944068D01*
X37039168Y23944074D01*
X36926568Y24056674D01*
X36926562Y24056679D01*
X36838887Y24115261D01*
X36794140Y24145160D01*
X36647003Y24206107D01*
X36568902Y24221642D01*
X36490804Y24237177D01*
X36490802Y24237177D01*
X36331542Y24237177D01*
X36331539Y24237177D01*
X36175340Y24206107D01*
X36175331Y24206104D01*
X36085486Y24168889D01*
X36014897Y24161300D01*
X35989051Y24168889D01*
X35899203Y24206105D01*
X35899198Y24206107D01*
X35742999Y24237177D01*
X35742997Y24237177D01*
X35583737Y24237177D01*
X35583734Y24237177D01*
X35427530Y24206106D01*
X35337682Y24168889D01*
X35267092Y24161300D01*
X35241246Y24168889D01*
X35151397Y24206106D01*
X34995193Y24237177D01*
X34995191Y24237177D01*
X34835931Y24237177D01*
X34835928Y24237177D01*
X34718780Y24213875D01*
X34679730Y24206107D01*
X34630331Y24185645D01*
X34532593Y24145160D01*
X34400170Y24056679D01*
X34400164Y24056674D01*
X34287564Y23944074D01*
X34287559Y23944068D01*
X34287558Y23944066D01*
X34199078Y23811645D01*
X34138131Y23664508D01*
X34134061Y23644048D01*
X34107061Y23508310D01*
X27206300Y23508310D01*
X27294129Y23629197D01*
X27387634Y23812710D01*
X27451280Y24008592D01*
X27483500Y24212019D01*
X27483500Y24417981D01*
X27470334Y24501110D01*
X29263672Y24501110D01*
X29263672Y24341845D01*
X29266776Y24326242D01*
X29294742Y24185646D01*
X29355689Y24038509D01*
X29433553Y23921976D01*
X29444170Y23906087D01*
X29444175Y23906081D01*
X29556775Y23793481D01*
X29556781Y23793476D01*
X29556783Y23793474D01*
X29689204Y23704994D01*
X29836341Y23644047D01*
X29992542Y23612977D01*
X29992543Y23612977D01*
X30151801Y23612977D01*
X30151802Y23612977D01*
X30308003Y23644047D01*
X30430354Y23694727D01*
X30500944Y23702316D01*
X30526791Y23694727D01*
X30649141Y23644047D01*
X30805342Y23612977D01*
X30805343Y23612977D01*
X30964601Y23612977D01*
X30964602Y23612977D01*
X31120803Y23644047D01*
X31267940Y23704994D01*
X31400361Y23793474D01*
X31512975Y23906088D01*
X31601455Y24038509D01*
X31662402Y24185646D01*
X31693472Y24341847D01*
X31693472Y24501107D01*
X31662402Y24657308D01*
X31601455Y24804445D01*
X31512975Y24936866D01*
X31512973Y24936868D01*
X31512968Y24936874D01*
X31400368Y25049474D01*
X31400362Y25049479D01*
X31400361Y25049480D01*
X31267940Y25137960D01*
X31120803Y25198907D01*
X31042702Y25214442D01*
X30964604Y25229977D01*
X30964602Y25229977D01*
X30805342Y25229977D01*
X30805339Y25229977D01*
X30688191Y25206675D01*
X30649141Y25198907D01*
X30585433Y25172519D01*
X30526790Y25148227D01*
X30456200Y25140638D01*
X30430354Y25148227D01*
X30383987Y25167433D01*
X30308003Y25198907D01*
X30229902Y25214442D01*
X30151804Y25229977D01*
X30151802Y25229977D01*
X29992542Y25229977D01*
X29992539Y25229977D01*
X29875391Y25206675D01*
X29836341Y25198907D01*
X29713990Y25148227D01*
X29689204Y25137960D01*
X29556781Y25049479D01*
X29556775Y25049474D01*
X29444175Y24936874D01*
X29444170Y24936868D01*
X29355689Y24804445D01*
X29294743Y24657310D01*
X29294742Y24657307D01*
X29263672Y24501110D01*
X27470334Y24501110D01*
X27451280Y24621408D01*
X27387634Y24817290D01*
X27294129Y25000803D01*
X27173068Y25167430D01*
X27173065Y25167433D01*
X27173063Y25167436D01*
X27027435Y25313064D01*
X27027432Y25313066D01*
X27027430Y25313068D01*
X26860803Y25434129D01*
X26785034Y25472735D01*
X26733422Y25521481D01*
X26716356Y25590396D01*
X26739257Y25657598D01*
X26785034Y25697265D01*
X26860803Y25735871D01*
X27027430Y25856932D01*
X27173068Y26002570D01*
X27294129Y26169197D01*
X27387634Y26352710D01*
X27451280Y26548592D01*
X27483500Y26752019D01*
X27483500Y26957981D01*
X27451280Y27161408D01*
X27387634Y27357290D01*
X27294129Y27540803D01*
X27173068Y27707430D01*
X27173065Y27707433D01*
X27173063Y27707436D01*
X27027435Y27853064D01*
X27027432Y27853066D01*
X27027430Y27853068D01*
X26870822Y27966850D01*
X26860806Y27974127D01*
X26860805Y27974128D01*
X26860803Y27974129D01*
X26785034Y28012735D01*
X26733422Y28061481D01*
X26716356Y28130396D01*
X26739257Y28197598D01*
X26785034Y28237265D01*
X26860803Y28275871D01*
X27027430Y28396932D01*
X27051972Y28421474D01*
X34214496Y28421474D01*
X34214496Y28262209D01*
X34245566Y28106010D01*
X34245568Y28106005D01*
X34283235Y28015068D01*
X34290824Y27944478D01*
X34283235Y27918633D01*
X34245569Y27827699D01*
X34245566Y27827690D01*
X34214496Y27671491D01*
X34214496Y27512226D01*
X34245566Y27356027D01*
X34245568Y27356022D01*
X34283181Y27265216D01*
X34290770Y27194626D01*
X34283181Y27168780D01*
X34245568Y27077975D01*
X34245566Y27077970D01*
X34214496Y26921771D01*
X34214496Y26762506D01*
X34226790Y26700701D01*
X34245566Y26606307D01*
X34245567Y26606305D01*
X34245568Y26606300D01*
X34283238Y26515358D01*
X34290828Y26444768D01*
X34283239Y26418921D01*
X34245568Y26327976D01*
X34245566Y26327971D01*
X34214496Y26171772D01*
X34214496Y26012507D01*
X34224892Y25960244D01*
X34245566Y25856308D01*
X34306513Y25709171D01*
X34385875Y25590396D01*
X34394994Y25576749D01*
X34394999Y25576743D01*
X34507599Y25464143D01*
X34507605Y25464138D01*
X34507607Y25464136D01*
X34640028Y25375656D01*
X34787165Y25314709D01*
X34943366Y25283639D01*
X34943367Y25283639D01*
X35102625Y25283639D01*
X35102626Y25283639D01*
X35258827Y25314709D01*
X35405964Y25375656D01*
X35538385Y25464136D01*
X35650999Y25576750D01*
X35739479Y25709171D01*
X35800426Y25856308D01*
X35831496Y26012509D01*
X35831496Y26171769D01*
X35800426Y26327970D01*
X35762751Y26418922D01*
X35755162Y26489509D01*
X35762749Y26515351D01*
X35800426Y26606307D01*
X35831496Y26762508D01*
X35831496Y26921768D01*
X35800426Y27077969D01*
X35762809Y27168781D01*
X35755220Y27239368D01*
X35762807Y27265212D01*
X35800426Y27356027D01*
X35831496Y27512228D01*
X35831496Y27671488D01*
X35800426Y27827689D01*
X35800422Y27827699D01*
X35762756Y27918633D01*
X35755167Y27989222D01*
X35762754Y28015064D01*
X35800426Y28106010D01*
X35831496Y28262211D01*
X35831496Y28421471D01*
X35800426Y28577672D01*
X35739479Y28724809D01*
X35650999Y28857230D01*
X35650997Y28857232D01*
X35650992Y28857238D01*
X35538392Y28969838D01*
X35538386Y28969843D01*
X35523803Y28979587D01*
X35405964Y29058324D01*
X35258827Y29119271D01*
X35170878Y29136765D01*
X35102628Y29150341D01*
X35102626Y29150341D01*
X34943366Y29150341D01*
X34943363Y29150341D01*
X34826215Y29127039D01*
X34787165Y29119271D01*
X34713091Y29088588D01*
X34640028Y29058324D01*
X34507605Y28969843D01*
X34507599Y28969838D01*
X34394999Y28857238D01*
X34394994Y28857232D01*
X34306513Y28724809D01*
X34245567Y28577674D01*
X34245566Y28577671D01*
X34214496Y28421474D01*
X27051972Y28421474D01*
X27060702Y28430204D01*
X27147255Y28516756D01*
X27173063Y28542565D01*
X27173068Y28542570D01*
X27294129Y28709197D01*
X27387634Y28892710D01*
X27451280Y29088592D01*
X27483500Y29292019D01*
X27483500Y29497981D01*
X27451280Y29701408D01*
X27387634Y29897290D01*
X27294129Y30080803D01*
X27173068Y30247430D01*
X27173065Y30247433D01*
X27173063Y30247436D01*
X27027435Y30393064D01*
X27027432Y30393066D01*
X27027430Y30393068D01*
X26860803Y30514129D01*
X26785034Y30552735D01*
X26777878Y30559494D01*
X26768592Y30562765D01*
X26752490Y30583472D01*
X26733422Y30601481D01*
X26731055Y30611038D01*
X26725011Y30618811D01*
X26722660Y30644939D01*
X26716356Y30670396D01*
X26719531Y30679715D01*
X26718649Y30689522D01*
X26730796Y30712773D01*
X26735205Y30725710D01*
X30178072Y30725710D01*
X30178072Y30566445D01*
X30188479Y30514127D01*
X30209142Y30410246D01*
X30239965Y30335833D01*
X30257171Y30294295D01*
X30264760Y30223705D01*
X30257171Y30197859D01*
X30249620Y30179630D01*
X30209142Y30081908D01*
X30207393Y30073116D01*
X30178072Y29925710D01*
X30178072Y29925707D01*
X30178072Y29766447D01*
X30209142Y29610246D01*
X30270089Y29463109D01*
X30358569Y29330688D01*
X30358570Y29330687D01*
X30358575Y29330681D01*
X30471175Y29218081D01*
X30471181Y29218076D01*
X30471183Y29218074D01*
X30603604Y29129594D01*
X30750741Y29068647D01*
X30906942Y29037577D01*
X30906943Y29037577D01*
X31066201Y29037577D01*
X31066202Y29037577D01*
X31222403Y29068647D01*
X31332055Y29114068D01*
X31402643Y29121656D01*
X31428484Y29114070D01*
X31538141Y29068647D01*
X31694342Y29037577D01*
X31694343Y29037577D01*
X31853601Y29037577D01*
X31853602Y29037577D01*
X32009803Y29068647D01*
X32156940Y29129594D01*
X32289361Y29218074D01*
X32401975Y29330688D01*
X32490455Y29463109D01*
X32551402Y29610246D01*
X32582472Y29766447D01*
X32582472Y29925707D01*
X32551402Y30081908D01*
X32503372Y30197859D01*
X32495783Y30268448D01*
X32503373Y30294296D01*
X32520578Y30335831D01*
X32551402Y30410246D01*
X32582472Y30566447D01*
X32582472Y30725707D01*
X32551402Y30881908D01*
X32490455Y31029045D01*
X32401975Y31161466D01*
X32401973Y31161468D01*
X32401968Y31161474D01*
X32289368Y31274074D01*
X32289362Y31274079D01*
X32284229Y31277509D01*
X32156940Y31362560D01*
X32009803Y31423507D01*
X31931702Y31439042D01*
X31853604Y31454577D01*
X31853602Y31454577D01*
X31694342Y31454577D01*
X31694339Y31454577D01*
X31584433Y31432715D01*
X31538141Y31423507D01*
X31538139Y31423507D01*
X31538138Y31423506D01*
X31428490Y31378088D01*
X31357900Y31370499D01*
X31332054Y31378088D01*
X31222405Y31423506D01*
X31222406Y31423506D01*
X31222403Y31423507D01*
X31144302Y31439042D01*
X31066204Y31454577D01*
X31066202Y31454577D01*
X30906942Y31454577D01*
X30906939Y31454577D01*
X30797033Y31432715D01*
X30750741Y31423507D01*
X30750739Y31423506D01*
X30603604Y31362560D01*
X30471181Y31274079D01*
X30471175Y31274074D01*
X30358575Y31161474D01*
X30358570Y31161468D01*
X30270089Y31029045D01*
X30209143Y30881910D01*
X30209142Y30881907D01*
X30178072Y30725710D01*
X26735205Y30725710D01*
X26739257Y30737598D01*
X26747843Y30745398D01*
X26751527Y30752448D01*
X26773605Y30768801D01*
X26779838Y30774462D01*
X26782398Y30775922D01*
X26860803Y30815871D01*
X27027430Y30936932D01*
X27173068Y31082570D01*
X27294129Y31249197D01*
X27387634Y31432710D01*
X27451280Y31628592D01*
X27483500Y31832019D01*
X27483500Y32037981D01*
X27451280Y32241408D01*
X27387634Y32437290D01*
X27294129Y32620803D01*
X27288094Y32629110D01*
X35512072Y32629110D01*
X35512072Y32469845D01*
X35525855Y32400553D01*
X35543142Y32313646D01*
X35604089Y32166509D01*
X35686317Y32043445D01*
X35692570Y32034087D01*
X35692575Y32034081D01*
X35805175Y31921481D01*
X35805181Y31921476D01*
X35805183Y31921474D01*
X35937604Y31832994D01*
X36084741Y31772047D01*
X36223453Y31744456D01*
X36286363Y31711549D01*
X36321495Y31649854D01*
X36324872Y31620877D01*
X36324872Y31580847D01*
X36355942Y31424646D01*
X36416889Y31277509D01*
X36494426Y31161466D01*
X36505370Y31145087D01*
X36505375Y31145081D01*
X36617975Y31032481D01*
X36617981Y31032476D01*
X36617983Y31032474D01*
X36750404Y30943994D01*
X36897541Y30883047D01*
X37053742Y30851977D01*
X37053743Y30851977D01*
X37213001Y30851977D01*
X37213002Y30851977D01*
X37369203Y30883047D01*
X37516340Y30943994D01*
X37648761Y31032474D01*
X37761375Y31145088D01*
X37849855Y31277509D01*
X37910802Y31424646D01*
X37941872Y31580847D01*
X37941872Y31740107D01*
X37910802Y31896308D01*
X37849855Y32043445D01*
X37761375Y32175866D01*
X37761373Y32175868D01*
X37761368Y32175874D01*
X37648768Y32288474D01*
X37648762Y32288479D01*
X37648761Y32288480D01*
X37516340Y32376960D01*
X37369203Y32437907D01*
X37310653Y32449554D01*
X37230490Y32465499D01*
X37167580Y32498407D01*
X37132449Y32560102D01*
X37129072Y32589078D01*
X37129072Y32629106D01*
X37129071Y32629110D01*
X37098002Y32785308D01*
X37037055Y32932445D01*
X36948575Y33064866D01*
X36948573Y33064868D01*
X36948568Y33064874D01*
X36835968Y33177474D01*
X36835962Y33177479D01*
X36802851Y33199603D01*
X36703540Y33265960D01*
X36556403Y33326907D01*
X36478302Y33342442D01*
X36400204Y33357977D01*
X36400202Y33357977D01*
X36240942Y33357977D01*
X36240939Y33357977D01*
X36123791Y33334675D01*
X36084741Y33326907D01*
X35965700Y33277598D01*
X35937604Y33265960D01*
X35805181Y33177479D01*
X35805175Y33177474D01*
X35692575Y33064874D01*
X35692570Y33064868D01*
X35658345Y33013646D01*
X35604089Y32932445D01*
X35544024Y32787436D01*
X35543143Y32785310D01*
X35543142Y32785307D01*
X35512072Y32629110D01*
X27288094Y32629110D01*
X27173068Y32787430D01*
X27173065Y32787433D01*
X27173063Y32787436D01*
X27027435Y32933064D01*
X27027432Y32933066D01*
X27027430Y32933068D01*
X26860803Y33054129D01*
X26785034Y33092735D01*
X26733422Y33141481D01*
X26716356Y33210396D01*
X26739257Y33277598D01*
X26785034Y33317265D01*
X26860803Y33355871D01*
X27027430Y33476932D01*
X27173068Y33622570D01*
X27294129Y33789197D01*
X27387634Y33972710D01*
X27451280Y34168592D01*
X27483500Y34372019D01*
X27483500Y34577981D01*
X27451280Y34781408D01*
X27387634Y34977290D01*
X27294129Y35160803D01*
X27173068Y35327430D01*
X27173065Y35327433D01*
X27173063Y35327436D01*
X27027435Y35473064D01*
X27027432Y35473066D01*
X27027430Y35473068D01*
X26860803Y35594129D01*
X26785034Y35632735D01*
X26733422Y35681481D01*
X26716356Y35750396D01*
X26739257Y35817598D01*
X26785034Y35857265D01*
X26860803Y35895871D01*
X27027430Y36016932D01*
X27173068Y36162570D01*
X27294129Y36329197D01*
X27387634Y36512710D01*
X27451280Y36708592D01*
X27483500Y36912019D01*
X27483500Y37117981D01*
X27451280Y37321408D01*
X27387634Y37517290D01*
X27294129Y37700803D01*
X27173068Y37867430D01*
X27173065Y37867433D01*
X27173063Y37867436D01*
X27027435Y38013064D01*
X27027432Y38013066D01*
X27027430Y38013068D01*
X26860803Y38134129D01*
X26785034Y38172735D01*
X26733422Y38221481D01*
X26716356Y38290396D01*
X26739257Y38357598D01*
X26785034Y38397265D01*
X26860803Y38435871D01*
X27027430Y38556932D01*
X27173068Y38702570D01*
X27294129Y38869197D01*
X27387634Y39052710D01*
X27451280Y39248592D01*
X27483500Y39452019D01*
X27483500Y39657981D01*
X27451280Y39861408D01*
X27387634Y40057290D01*
X27294129Y40240803D01*
X27173068Y40407430D01*
X27173065Y40407433D01*
X27173063Y40407436D01*
X27027435Y40553064D01*
X27027432Y40553066D01*
X27027430Y40553068D01*
X26860803Y40674129D01*
X26785034Y40712735D01*
X26733422Y40761481D01*
X26716356Y40830396D01*
X26739257Y40897598D01*
X26785034Y40937265D01*
X26860803Y40975871D01*
X27027430Y41096932D01*
X27068608Y41138110D01*
X28349272Y41138110D01*
X28349272Y40978845D01*
X28357543Y40937267D01*
X28380342Y40822646D01*
X28441289Y40675509D01*
X28529769Y40543088D01*
X28529773Y40543084D01*
X28531071Y40541502D01*
X28531492Y40540510D01*
X28533208Y40537942D01*
X28532720Y40537617D01*
X28558818Y40476152D01*
X28546830Y40406175D01*
X28531071Y40381652D01*
X28529769Y40380066D01*
X28441289Y40247645D01*
X28413116Y40179629D01*
X28380343Y40100510D01*
X28380342Y40100507D01*
X28349272Y39944310D01*
X28349272Y39944307D01*
X28349272Y39785047D01*
X28380342Y39628846D01*
X28441289Y39481709D01*
X28529769Y39349288D01*
X28529773Y39349284D01*
X28531071Y39347702D01*
X28531492Y39346710D01*
X28533208Y39344142D01*
X28532720Y39343817D01*
X28558818Y39282352D01*
X28546830Y39212375D01*
X28531071Y39187852D01*
X28529769Y39186266D01*
X28441289Y39053845D01*
X28429343Y39025004D01*
X28380343Y38906710D01*
X28380342Y38906707D01*
X28349272Y38750510D01*
X28349272Y38591245D01*
X28359307Y38540796D01*
X28380342Y38435046D01*
X28441289Y38287909D01*
X28529769Y38155488D01*
X28529770Y38155487D01*
X28529775Y38155481D01*
X28642375Y38042881D01*
X28642381Y38042876D01*
X28642383Y38042874D01*
X28774804Y37954394D01*
X28921941Y37893447D01*
X29078142Y37862377D01*
X29078143Y37862377D01*
X29237401Y37862377D01*
X29237402Y37862377D01*
X29393603Y37893447D01*
X29540740Y37954394D01*
X29673161Y38042874D01*
X29785775Y38155488D01*
X29874255Y38287909D01*
X29935202Y38435046D01*
X29966272Y38591247D01*
X29966272Y38750507D01*
X29935202Y38906708D01*
X29874255Y39053845D01*
X29785775Y39186266D01*
X29785770Y39186271D01*
X29784480Y39187843D01*
X29784060Y39188832D01*
X29782336Y39191412D01*
X29782825Y39191739D01*
X29756726Y39253190D01*
X29768708Y39323169D01*
X29784480Y39347711D01*
X29785765Y39349279D01*
X29785775Y39349288D01*
X29874255Y39481709D01*
X29935202Y39628846D01*
X29966272Y39785047D01*
X29966272Y39944307D01*
X29935202Y40100508D01*
X29874255Y40247645D01*
X29785775Y40380066D01*
X29785770Y40380071D01*
X29784480Y40381643D01*
X29784060Y40382632D01*
X29782336Y40385212D01*
X29782825Y40385539D01*
X29756726Y40446990D01*
X29768708Y40516969D01*
X29784480Y40541511D01*
X29785765Y40543079D01*
X29785775Y40543088D01*
X29874255Y40675509D01*
X29935202Y40822646D01*
X29966272Y40978847D01*
X29966272Y41138107D01*
X29935202Y41294308D01*
X29874255Y41441445D01*
X29785775Y41573866D01*
X29785773Y41573868D01*
X29785768Y41573874D01*
X29673168Y41686474D01*
X29673162Y41686479D01*
X29673161Y41686480D01*
X29540740Y41774960D01*
X29393603Y41835907D01*
X29315502Y41851442D01*
X29237404Y41866977D01*
X29237402Y41866977D01*
X29078142Y41866977D01*
X29078139Y41866977D01*
X28960991Y41843675D01*
X28921941Y41835907D01*
X28774804Y41774960D01*
X28642381Y41686479D01*
X28642375Y41686474D01*
X28529775Y41573874D01*
X28529770Y41573868D01*
X28441289Y41441445D01*
X28380343Y41294310D01*
X28380342Y41294307D01*
X28349272Y41138110D01*
X27068608Y41138110D01*
X27163891Y41233392D01*
X27173063Y41242565D01*
X27173068Y41242570D01*
X27294129Y41409197D01*
X27387634Y41592710D01*
X27451280Y41788592D01*
X27483500Y41992019D01*
X27483500Y42197981D01*
X27451280Y42401408D01*
X27387634Y42597290D01*
X27294129Y42780803D01*
X27173068Y42947430D01*
X27173065Y42947433D01*
X27173063Y42947436D01*
X27027435Y43093064D01*
X27027432Y43093066D01*
X27027430Y43093068D01*
X26860803Y43214129D01*
X26785034Y43252735D01*
X26733422Y43301481D01*
X26716356Y43370396D01*
X26739257Y43437598D01*
X26785034Y43477265D01*
X26860803Y43515871D01*
X27027430Y43636932D01*
X27173068Y43782570D01*
X27294129Y43949197D01*
X27387634Y44132710D01*
X27451280Y44328592D01*
X27483500Y44532019D01*
X27483500Y44737981D01*
X27451280Y44941408D01*
X27387634Y45137290D01*
X27294129Y45320803D01*
X27173068Y45487430D01*
X27173065Y45487433D01*
X27173063Y45487436D01*
X27027436Y45633063D01*
X27027432Y45633066D01*
X27027430Y45633068D01*
X27011673Y45644516D01*
X26968322Y45700737D01*
X26962247Y45771473D01*
X26995379Y45834265D01*
X27057199Y45869176D01*
X27072271Y45871728D01*
X27084196Y45873010D01*
X27084199Y45873011D01*
X27084201Y45873011D01*
X27221204Y45924111D01*
X27338261Y46011739D01*
X27425889Y46128796D01*
X27476989Y46265799D01*
X27483093Y46322570D01*
X27483499Y46326351D01*
X27483500Y46326368D01*
X27483500Y47284910D01*
X28349272Y47284910D01*
X28349272Y47284907D01*
X28349272Y47125647D01*
X28380342Y46969446D01*
X28441289Y46822309D01*
X28441290Y46822306D01*
X28469573Y46779977D01*
X28490787Y46712224D01*
X28472003Y46643757D01*
X28469573Y46639977D01*
X28441290Y46597649D01*
X28441289Y46597646D01*
X28398192Y46493603D01*
X28396367Y46489194D01*
X28380343Y46450510D01*
X28380342Y46450507D01*
X28349272Y46294310D01*
X28349272Y46294307D01*
X28349272Y46135047D01*
X28380342Y45978846D01*
X28441289Y45831709D01*
X28519076Y45715292D01*
X28529770Y45699287D01*
X28529775Y45699281D01*
X28642375Y45586681D01*
X28642381Y45586676D01*
X28642383Y45586674D01*
X28774804Y45498194D01*
X28921941Y45437247D01*
X29078142Y45406177D01*
X29078143Y45406177D01*
X29237401Y45406177D01*
X29237402Y45406177D01*
X29393603Y45437247D01*
X29540740Y45498194D01*
X29673161Y45586674D01*
X29785775Y45699288D01*
X29874255Y45831709D01*
X29935202Y45978846D01*
X29966272Y46135047D01*
X29966272Y46294307D01*
X29935202Y46450508D01*
X29874255Y46597645D01*
X29874252Y46597649D01*
X29864171Y46612737D01*
X29845970Y46639977D01*
X29824755Y46707726D01*
X29843537Y46776194D01*
X29845955Y46779956D01*
X29874255Y46822309D01*
X29935202Y46969446D01*
X29966272Y47125647D01*
X29966272Y47277981D01*
X40106500Y47277981D01*
X40106500Y47072019D01*
X40136183Y46884611D01*
X40138721Y46868588D01*
X40198854Y46683517D01*
X40202366Y46672710D01*
X40295871Y46489197D01*
X40416932Y46322570D01*
X40416934Y46322568D01*
X40416936Y46322565D01*
X40562564Y46176937D01*
X40562567Y46176935D01*
X40562570Y46176932D01*
X40729197Y46055871D01*
X40804962Y46017267D01*
X40856577Y45968518D01*
X40873643Y45899603D01*
X40850742Y45832402D01*
X40804963Y45792734D01*
X40736033Y45757613D01*
X40729193Y45754127D01*
X40562567Y45633066D01*
X40562564Y45633064D01*
X40416936Y45487436D01*
X40416934Y45487433D01*
X40295873Y45320807D01*
X40202367Y45137292D01*
X40202364Y45137286D01*
X40138721Y44941413D01*
X40138720Y44941410D01*
X40138720Y44941408D01*
X40106500Y44737981D01*
X40106500Y44532019D01*
X40134945Y44352429D01*
X40138721Y44328588D01*
X40179526Y44203002D01*
X40202366Y44132710D01*
X40295871Y43949197D01*
X40416932Y43782570D01*
X40416934Y43782568D01*
X40416936Y43782565D01*
X40562564Y43636937D01*
X40562567Y43636935D01*
X40562570Y43636932D01*
X40729197Y43515871D01*
X40804962Y43477267D01*
X40856577Y43428518D01*
X40873643Y43359603D01*
X40850742Y43292402D01*
X40804963Y43252734D01*
X40736033Y43217613D01*
X40729193Y43214127D01*
X40562567Y43093066D01*
X40562564Y43093064D01*
X40416936Y42947436D01*
X40416934Y42947433D01*
X40295873Y42780807D01*
X40202367Y42597292D01*
X40202364Y42597286D01*
X40138721Y42401413D01*
X40138720Y42401410D01*
X40138720Y42401408D01*
X40106500Y42197981D01*
X40106500Y41992019D01*
X40138720Y41788592D01*
X40138721Y41788588D01*
X40196548Y41610614D01*
X40202366Y41592710D01*
X40279440Y41441445D01*
X40295873Y41409194D01*
X40302429Y41400171D01*
X40416932Y41242570D01*
X40416934Y41242568D01*
X40416936Y41242565D01*
X40562564Y41096937D01*
X40562567Y41096935D01*
X40562570Y41096932D01*
X40729197Y40975871D01*
X40804962Y40937267D01*
X40856577Y40888518D01*
X40873643Y40819603D01*
X40850742Y40752402D01*
X40804963Y40712734D01*
X40752705Y40686107D01*
X40729193Y40674127D01*
X40562567Y40553066D01*
X40562564Y40553064D01*
X40416936Y40407436D01*
X40416934Y40407433D01*
X40295873Y40240807D01*
X40202367Y40057292D01*
X40202364Y40057286D01*
X40138721Y39861413D01*
X40138720Y39861410D01*
X40138720Y39861408D01*
X40106500Y39657981D01*
X40106500Y39452019D01*
X40137992Y39253190D01*
X40138721Y39248588D01*
X40187258Y39099205D01*
X40202366Y39052710D01*
X40295871Y38869197D01*
X40416932Y38702570D01*
X40416934Y38702568D01*
X40416936Y38702565D01*
X40562564Y38556937D01*
X40562567Y38556935D01*
X40562570Y38556932D01*
X40729197Y38435871D01*
X40804962Y38397267D01*
X40856577Y38348518D01*
X40873643Y38279603D01*
X40850742Y38212402D01*
X40804963Y38172734D01*
X40756442Y38148011D01*
X40729193Y38134127D01*
X40562567Y38013066D01*
X40562564Y38013064D01*
X40416936Y37867436D01*
X40416934Y37867433D01*
X40295873Y37700807D01*
X40202367Y37517292D01*
X40202364Y37517286D01*
X40138721Y37321413D01*
X40138720Y37321410D01*
X40138720Y37321408D01*
X40106500Y37117981D01*
X40106500Y36912019D01*
X40138720Y36708592D01*
X40138721Y36708588D01*
X40177908Y36587982D01*
X40202366Y36512710D01*
X40240170Y36438516D01*
X40295873Y36329194D01*
X40304709Y36317032D01*
X40416932Y36162570D01*
X40416934Y36162568D01*
X40416936Y36162565D01*
X40562564Y36016937D01*
X40562567Y36016935D01*
X40562570Y36016932D01*
X40729197Y35895871D01*
X40804962Y35857267D01*
X40856577Y35808518D01*
X40873643Y35739603D01*
X40850742Y35672402D01*
X40804963Y35632734D01*
X40743663Y35601500D01*
X40729193Y35594127D01*
X40562567Y35473066D01*
X40562564Y35473064D01*
X40416936Y35327436D01*
X40416934Y35327433D01*
X40295873Y35160807D01*
X40202367Y34977292D01*
X40202364Y34977286D01*
X40138721Y34781413D01*
X40138720Y34781410D01*
X40138720Y34781408D01*
X40106500Y34577981D01*
X40106500Y34372019D01*
X40138720Y34168592D01*
X40138721Y34168588D01*
X40187258Y34019205D01*
X40202366Y33972710D01*
X40295871Y33789197D01*
X40295873Y33789194D01*
X40299208Y33784604D01*
X40416932Y33622570D01*
X40416934Y33622568D01*
X40416936Y33622565D01*
X40562564Y33476937D01*
X40562567Y33476935D01*
X40562570Y33476932D01*
X40729197Y33355871D01*
X40804962Y33317267D01*
X40856577Y33268518D01*
X40873643Y33199603D01*
X40850742Y33132402D01*
X40804963Y33092734D01*
X40736033Y33057613D01*
X40729193Y33054127D01*
X40562567Y32933066D01*
X40562564Y32933064D01*
X40416936Y32787436D01*
X40416934Y32787433D01*
X40295873Y32620807D01*
X40202367Y32437292D01*
X40202364Y32437286D01*
X40138721Y32241413D01*
X40138720Y32241410D01*
X40138720Y32241408D01*
X40106500Y32037981D01*
X40106500Y31832019D01*
X40138720Y31628592D01*
X40138721Y31628588D01*
X40154232Y31580849D01*
X40202366Y31432710D01*
X40295871Y31249197D01*
X40416932Y31082570D01*
X40416934Y31082568D01*
X40416936Y31082565D01*
X40562564Y30936937D01*
X40562567Y30936935D01*
X40562570Y30936932D01*
X40729197Y30815871D01*
X40804962Y30777267D01*
X40856577Y30728518D01*
X40873643Y30659603D01*
X40850742Y30592402D01*
X40804963Y30552734D01*
X40736033Y30517613D01*
X40729193Y30514127D01*
X40562567Y30393066D01*
X40562564Y30393064D01*
X40416936Y30247436D01*
X40416934Y30247433D01*
X40295873Y30080807D01*
X40202367Y29897292D01*
X40202364Y29897286D01*
X40138721Y29701413D01*
X40138721Y29701411D01*
X40138720Y29701408D01*
X40106500Y29497981D01*
X40106500Y29292019D01*
X40136386Y29103330D01*
X40138721Y29088588D01*
X40183435Y28950971D01*
X40202366Y28892710D01*
X40295871Y28709197D01*
X40416932Y28542570D01*
X40416934Y28542568D01*
X40416936Y28542565D01*
X40562564Y28396937D01*
X40562567Y28396935D01*
X40562570Y28396932D01*
X40729197Y28275871D01*
X40804962Y28237267D01*
X40856577Y28188518D01*
X40873643Y28119603D01*
X40850742Y28052402D01*
X40804963Y28012734D01*
X40758819Y27989222D01*
X40729193Y27974127D01*
X40562567Y27853066D01*
X40562564Y27853064D01*
X40416936Y27707436D01*
X40416934Y27707433D01*
X40295873Y27540807D01*
X40202367Y27357292D01*
X40202364Y27357286D01*
X40138721Y27161413D01*
X40138720Y27161410D01*
X40138720Y27161408D01*
X40106500Y26957981D01*
X40106500Y26752019D01*
X40136386Y26563330D01*
X40138721Y26548588D01*
X40180852Y26418921D01*
X40202366Y26352710D01*
X40295871Y26169197D01*
X40416932Y26002570D01*
X40416934Y26002568D01*
X40416936Y26002565D01*
X40562564Y25856937D01*
X40562567Y25856935D01*
X40562570Y25856932D01*
X40729197Y25735871D01*
X40804962Y25697267D01*
X40856577Y25648518D01*
X40873643Y25579603D01*
X40850742Y25512402D01*
X40804963Y25472734D01*
X40788103Y25464143D01*
X40729193Y25434127D01*
X40562567Y25313066D01*
X40562564Y25313064D01*
X40416936Y25167436D01*
X40416934Y25167433D01*
X40295873Y25000807D01*
X40202367Y24817292D01*
X40202364Y24817286D01*
X40138721Y24621413D01*
X40138720Y24621410D01*
X40138720Y24621408D01*
X40106500Y24417981D01*
X40106500Y24212019D01*
X40133982Y24038509D01*
X40138721Y24008588D01*
X40172025Y23906088D01*
X40202366Y23812710D01*
X40291347Y23638076D01*
X40295873Y23629194D01*
X40325802Y23588001D01*
X40416932Y23462570D01*
X40416934Y23462568D01*
X40416936Y23462565D01*
X40562564Y23316937D01*
X40562567Y23316935D01*
X40562570Y23316932D01*
X40729197Y23195871D01*
X40804962Y23157267D01*
X40856577Y23108518D01*
X40873643Y23039603D01*
X40850742Y22972402D01*
X40804963Y22932734D01*
X40766797Y22913287D01*
X40729193Y22894127D01*
X40562567Y22773066D01*
X40562564Y22773064D01*
X40416936Y22627436D01*
X40416934Y22627433D01*
X40295873Y22460807D01*
X40202367Y22277292D01*
X40202364Y22277286D01*
X40138721Y22081413D01*
X40138720Y22081410D01*
X40138720Y22081408D01*
X40106500Y21877981D01*
X40106500Y21672019D01*
X40136386Y21483330D01*
X40138721Y21468588D01*
X40153537Y21422988D01*
X40202366Y21272710D01*
X40295871Y21089197D01*
X40416932Y20922570D01*
X40416934Y20922568D01*
X40416936Y20922565D01*
X40562564Y20776937D01*
X40562567Y20776935D01*
X40562570Y20776932D01*
X40729197Y20655871D01*
X40804962Y20617267D01*
X40856577Y20568518D01*
X40873643Y20499603D01*
X40850742Y20432402D01*
X40804963Y20392734D01*
X40736033Y20357613D01*
X40729193Y20354127D01*
X40562567Y20233066D01*
X40562564Y20233064D01*
X40416936Y20087436D01*
X40416934Y20087433D01*
X40295873Y19920807D01*
X40202367Y19737292D01*
X40202364Y19737286D01*
X40138721Y19541413D01*
X40138720Y19541410D01*
X40138720Y19541408D01*
X40106500Y19337981D01*
X40106500Y19132019D01*
X40138720Y18928592D01*
X40138721Y18928588D01*
X40153537Y18882988D01*
X40202366Y18732710D01*
X40295871Y18549197D01*
X40416932Y18382570D01*
X40416934Y18382568D01*
X40416936Y18382565D01*
X40562564Y18236937D01*
X40562567Y18236935D01*
X40562570Y18236932D01*
X40729197Y18115871D01*
X40912710Y18022366D01*
X41108592Y17958720D01*
X41312019Y17926500D01*
X41312022Y17926500D01*
X41517978Y17926500D01*
X41517981Y17926500D01*
X41721408Y17958720D01*
X41917290Y18022366D01*
X42100803Y18115871D01*
X42267430Y18236932D01*
X42413068Y18382570D01*
X42534129Y18549197D01*
X42627634Y18732710D01*
X42691280Y18928592D01*
X42723500Y19132019D01*
X42723500Y19337981D01*
X42691280Y19541408D01*
X42627634Y19737290D01*
X42534129Y19920803D01*
X42413068Y20087430D01*
X42413065Y20087433D01*
X42413063Y20087436D01*
X42267435Y20233064D01*
X42267432Y20233066D01*
X42267430Y20233068D01*
X42100803Y20354129D01*
X42025034Y20392735D01*
X41973422Y20441481D01*
X41956356Y20510396D01*
X41979257Y20577598D01*
X42025034Y20617265D01*
X42100803Y20655871D01*
X42267430Y20776932D01*
X42413068Y20922570D01*
X42534129Y21089197D01*
X42627634Y21272710D01*
X42691280Y21468592D01*
X42723500Y21672019D01*
X42723500Y21877981D01*
X42691280Y22081408D01*
X42627634Y22277290D01*
X42534129Y22460803D01*
X42413068Y22627430D01*
X42413065Y22627433D01*
X42413063Y22627436D01*
X42267435Y22773064D01*
X42267432Y22773066D01*
X42267430Y22773068D01*
X42100803Y22894129D01*
X42025034Y22932735D01*
X41973422Y22981481D01*
X41956356Y23050396D01*
X41979257Y23117598D01*
X42025034Y23157265D01*
X42100803Y23195871D01*
X42267430Y23316932D01*
X42413068Y23462570D01*
X42534129Y23629197D01*
X42627634Y23812710D01*
X42691280Y24008592D01*
X42723500Y24212019D01*
X42723500Y24417981D01*
X42691280Y24621408D01*
X42627634Y24817290D01*
X42534129Y25000803D01*
X42413068Y25167430D01*
X42413065Y25167433D01*
X42413063Y25167436D01*
X42267435Y25313064D01*
X42267432Y25313066D01*
X42267430Y25313068D01*
X42100803Y25434129D01*
X42025034Y25472735D01*
X41973422Y25521481D01*
X41956356Y25590396D01*
X41979257Y25657598D01*
X42025034Y25697265D01*
X42100803Y25735871D01*
X42267430Y25856932D01*
X42413068Y26002570D01*
X42534129Y26169197D01*
X42627634Y26352710D01*
X42691280Y26548592D01*
X42723500Y26752019D01*
X42723500Y26957981D01*
X42691280Y27161408D01*
X42627634Y27357290D01*
X42534129Y27540803D01*
X42413068Y27707430D01*
X42413065Y27707433D01*
X42413063Y27707436D01*
X42267435Y27853064D01*
X42267432Y27853066D01*
X42267430Y27853068D01*
X42110822Y27966850D01*
X42100806Y27974127D01*
X42100805Y27974128D01*
X42100803Y27974129D01*
X42025034Y28012735D01*
X41973422Y28061481D01*
X41956356Y28130396D01*
X41979257Y28197598D01*
X42025034Y28237265D01*
X42100803Y28275871D01*
X42267430Y28396932D01*
X42413068Y28542570D01*
X42534129Y28709197D01*
X42627634Y28892710D01*
X42691280Y29088592D01*
X42723500Y29292019D01*
X42723500Y29497981D01*
X42691280Y29701408D01*
X42639128Y29861916D01*
X43706500Y29861916D01*
X43706500Y29648084D01*
X43737119Y29454766D01*
X43739952Y29436879D01*
X43802221Y29245234D01*
X43806028Y29233517D01*
X43903106Y29042991D01*
X44028794Y28869996D01*
X44028796Y28869994D01*
X44028798Y28869991D01*
X44179990Y28718799D01*
X44179993Y28718797D01*
X44179996Y28718794D01*
X44352991Y28593106D01*
X44352996Y28593104D01*
X44354088Y28592434D01*
X44354418Y28592069D01*
X44356996Y28590196D01*
X44356602Y28589655D01*
X44401721Y28539787D01*
X44413328Y28469745D01*
X44385226Y28404547D01*
X44356870Y28379977D01*
X44356996Y28379804D01*
X44354982Y28378342D01*
X44354088Y28377566D01*
X44352987Y28376892D01*
X44179993Y28251204D01*
X44179990Y28251202D01*
X44028798Y28100010D01*
X44028796Y28100007D01*
X43903108Y27927013D01*
X43806029Y27736485D01*
X43806026Y27736479D01*
X43739952Y27533122D01*
X43739951Y27533117D01*
X43739951Y27533116D01*
X43706500Y27321916D01*
X43706500Y27108084D01*
X43736010Y26921768D01*
X43739952Y26896879D01*
X43806026Y26693522D01*
X43806028Y26693517D01*
X43903106Y26502991D01*
X44028794Y26329996D01*
X44028796Y26329994D01*
X44028798Y26329991D01*
X44179990Y26178799D01*
X44179993Y26178797D01*
X44179996Y26178794D01*
X44352991Y26053106D01*
X44352996Y26053104D01*
X44354088Y26052434D01*
X44354418Y26052069D01*
X44356996Y26050196D01*
X44356602Y26049655D01*
X44401721Y25999787D01*
X44413328Y25929745D01*
X44385226Y25864547D01*
X44356870Y25839977D01*
X44356996Y25839804D01*
X44354982Y25838342D01*
X44354088Y25837566D01*
X44352987Y25836892D01*
X44179993Y25711204D01*
X44179990Y25711202D01*
X44028798Y25560010D01*
X44028796Y25560007D01*
X43903108Y25387013D01*
X43806029Y25196485D01*
X43806026Y25196479D01*
X43739952Y24993122D01*
X43739951Y24993117D01*
X43739951Y24993116D01*
X43706500Y24781916D01*
X43706500Y24568084D01*
X43719250Y24487586D01*
X43739952Y24356879D01*
X43795589Y24185645D01*
X43806028Y24153517D01*
X43903106Y23962991D01*
X44028794Y23789996D01*
X44028796Y23789994D01*
X44028798Y23789991D01*
X44179990Y23638799D01*
X44179993Y23638797D01*
X44179996Y23638794D01*
X44352991Y23513106D01*
X44352996Y23513104D01*
X44354088Y23512434D01*
X44354418Y23512069D01*
X44356996Y23510196D01*
X44356602Y23509655D01*
X44401721Y23459787D01*
X44413328Y23389745D01*
X44385226Y23324547D01*
X44356870Y23299977D01*
X44356996Y23299804D01*
X44354982Y23298342D01*
X44354088Y23297566D01*
X44352987Y23296892D01*
X44179993Y23171204D01*
X44179990Y23171202D01*
X44028798Y23020010D01*
X44028796Y23020007D01*
X43903108Y22847013D01*
X43806029Y22656485D01*
X43806026Y22656479D01*
X43739952Y22453122D01*
X43739951Y22453117D01*
X43739951Y22453116D01*
X43706500Y22241916D01*
X43706500Y22028084D01*
X43730274Y21877981D01*
X43739952Y21816879D01*
X43806026Y21613522D01*
X43806028Y21613517D01*
X43903106Y21422991D01*
X44028794Y21249996D01*
X44028796Y21249994D01*
X44028798Y21249991D01*
X44179990Y21098799D01*
X44179993Y21098797D01*
X44179996Y21098794D01*
X44352991Y20973106D01*
X44352996Y20973104D01*
X44354088Y20972434D01*
X44354418Y20972069D01*
X44356996Y20970196D01*
X44356602Y20969655D01*
X44401721Y20919787D01*
X44413328Y20849745D01*
X44385226Y20784547D01*
X44356870Y20759977D01*
X44356996Y20759804D01*
X44354982Y20758342D01*
X44354088Y20757566D01*
X44352987Y20756892D01*
X44179993Y20631204D01*
X44179990Y20631202D01*
X44028798Y20480010D01*
X44028796Y20480007D01*
X43903108Y20307013D01*
X43806029Y20116485D01*
X43806026Y20116479D01*
X43739952Y19913122D01*
X43739951Y19913117D01*
X43739951Y19913116D01*
X43706500Y19701916D01*
X43706500Y19488084D01*
X43730274Y19337981D01*
X43739952Y19276879D01*
X43806026Y19073522D01*
X43806028Y19073517D01*
X43903106Y18882991D01*
X44028794Y18709996D01*
X44028796Y18709994D01*
X44028798Y18709991D01*
X44179990Y18558799D01*
X44179993Y18558797D01*
X44179996Y18558794D01*
X44352991Y18433106D01*
X44543517Y18336028D01*
X44746878Y18269953D01*
X44746879Y18269953D01*
X44746884Y18269951D01*
X44958084Y18236500D01*
X44958087Y18236500D01*
X45171913Y18236500D01*
X45171916Y18236500D01*
X45383116Y18269951D01*
X45586483Y18336028D01*
X45777009Y18433106D01*
X45950004Y18558794D01*
X46052982Y18661773D01*
X46115292Y18695796D01*
X46186108Y18690732D01*
X46242944Y18648185D01*
X46260131Y18616709D01*
X46304110Y18498797D01*
X46304112Y18498793D01*
X46391738Y18381739D01*
X46508792Y18294113D01*
X46508794Y18294112D01*
X46508796Y18294111D01*
X46567875Y18272076D01*
X46645795Y18243012D01*
X46645803Y18243010D01*
X46706350Y18236501D01*
X46706355Y18236501D01*
X46706362Y18236500D01*
X46706368Y18236500D01*
X48503632Y18236500D01*
X48503638Y18236500D01*
X48503645Y18236501D01*
X48503649Y18236501D01*
X48564196Y18243010D01*
X48564199Y18243011D01*
X48564201Y18243011D01*
X48701204Y18294111D01*
X48757199Y18336028D01*
X48818261Y18381739D01*
X48905887Y18498793D01*
X48905887Y18498794D01*
X48905889Y18498796D01*
X48956989Y18635799D01*
X48959782Y18661771D01*
X48963499Y18696351D01*
X48963500Y18696368D01*
X48963500Y20493633D01*
X48963499Y20493650D01*
X48956990Y20554197D01*
X48956988Y20554205D01*
X48919068Y20655871D01*
X48905889Y20691204D01*
X48905888Y20691206D01*
X48905887Y20691208D01*
X48818261Y20808262D01*
X48701207Y20895888D01*
X48701203Y20895890D01*
X48583291Y20939869D01*
X48526455Y20982415D01*
X48501645Y21048936D01*
X48516737Y21118310D01*
X48538226Y21147017D01*
X48641206Y21249996D01*
X48766894Y21422991D01*
X48863972Y21613517D01*
X48930049Y21816884D01*
X48963500Y22028084D01*
X48963500Y22241916D01*
X48930049Y22453116D01*
X48863972Y22656483D01*
X48766894Y22847009D01*
X48641206Y23020004D01*
X48641203Y23020007D01*
X48641201Y23020010D01*
X48490009Y23171202D01*
X48490006Y23171204D01*
X48490004Y23171206D01*
X48317009Y23296894D01*
X48317007Y23296895D01*
X48315920Y23297561D01*
X48315591Y23297925D01*
X48313004Y23299804D01*
X48313398Y23300348D01*
X48268283Y23350204D01*
X48256670Y23420244D01*
X48284766Y23485445D01*
X48313130Y23510022D01*
X48313004Y23510196D01*
X48315030Y23511669D01*
X48315920Y23512439D01*
X48316997Y23513101D01*
X48317009Y23513106D01*
X48490004Y23638794D01*
X48641206Y23789996D01*
X48766894Y23962991D01*
X48863972Y24153517D01*
X48930049Y24356884D01*
X48963500Y24568084D01*
X48963500Y24781916D01*
X48930049Y24993116D01*
X48863972Y25196483D01*
X48766894Y25387009D01*
X48641206Y25560004D01*
X48641203Y25560007D01*
X48641201Y25560010D01*
X48490009Y25711202D01*
X48490006Y25711204D01*
X48490004Y25711206D01*
X48317009Y25836894D01*
X48317007Y25836895D01*
X48315920Y25837561D01*
X48315591Y25837925D01*
X48313004Y25839804D01*
X48313398Y25840348D01*
X48268283Y25890204D01*
X48256670Y25960244D01*
X48284766Y26025445D01*
X48313130Y26050022D01*
X48313004Y26050196D01*
X48315030Y26051669D01*
X48315920Y26052439D01*
X48316997Y26053101D01*
X48317009Y26053106D01*
X48490004Y26178794D01*
X48641206Y26329996D01*
X48766894Y26502991D01*
X48863972Y26693517D01*
X48930049Y26896884D01*
X48963500Y27108084D01*
X48963500Y27321916D01*
X48930049Y27533116D01*
X48863972Y27736483D01*
X48766894Y27927009D01*
X48641206Y28100004D01*
X48641203Y28100007D01*
X48641201Y28100010D01*
X48490009Y28251202D01*
X48490006Y28251204D01*
X48490004Y28251206D01*
X48334525Y28364168D01*
X48317012Y28376892D01*
X48315920Y28377561D01*
X48315591Y28377925D01*
X48313004Y28379804D01*
X48313398Y28380348D01*
X48268283Y28430204D01*
X48256670Y28500244D01*
X48284766Y28565445D01*
X48313130Y28590022D01*
X48313004Y28590196D01*
X48315030Y28591669D01*
X48315920Y28592439D01*
X48316997Y28593101D01*
X48317009Y28593106D01*
X48490004Y28718794D01*
X48641206Y28869996D01*
X48766894Y29042991D01*
X48863972Y29233517D01*
X48930049Y29436884D01*
X48963500Y29648084D01*
X48963500Y29861916D01*
X48930049Y30073116D01*
X48863972Y30276483D01*
X48766894Y30467009D01*
X48641206Y30640004D01*
X48641203Y30640007D01*
X48641201Y30640010D01*
X48490009Y30791202D01*
X48490006Y30791204D01*
X48490004Y30791206D01*
X48359781Y30885818D01*
X48317012Y30916892D01*
X48317011Y30916893D01*
X48317009Y30916894D01*
X48126483Y31013972D01*
X48126480Y31013973D01*
X48126478Y31013974D01*
X47923120Y31080048D01*
X47923123Y31080048D01*
X47883801Y31086276D01*
X47711916Y31113500D01*
X47498084Y31113500D01*
X47286884Y31080049D01*
X47286878Y31080048D01*
X47083521Y31013974D01*
X47083515Y31013971D01*
X46892987Y30916892D01*
X46719993Y30791204D01*
X46719990Y30791202D01*
X46568798Y30640010D01*
X46568796Y30640007D01*
X46443108Y30467013D01*
X46442434Y30465912D01*
X46442068Y30465582D01*
X46440196Y30463004D01*
X46439654Y30463398D01*
X46389787Y30418279D01*
X46319745Y30406672D01*
X46254547Y30434774D01*
X46229976Y30463130D01*
X46229804Y30463004D01*
X46228341Y30465018D01*
X46227566Y30465912D01*
X46226896Y30467004D01*
X46226894Y30467009D01*
X46101206Y30640004D01*
X46101203Y30640007D01*
X46101201Y30640010D01*
X45950009Y30791202D01*
X45950006Y30791204D01*
X45950004Y30791206D01*
X45819781Y30885818D01*
X45777012Y30916892D01*
X45777011Y30916893D01*
X45777009Y30916894D01*
X45586483Y31013972D01*
X45586480Y31013973D01*
X45586478Y31013974D01*
X45383120Y31080048D01*
X45383123Y31080048D01*
X45343801Y31086276D01*
X45171916Y31113500D01*
X44958084Y31113500D01*
X44746884Y31080049D01*
X44746878Y31080048D01*
X44543521Y31013974D01*
X44543515Y31013971D01*
X44352987Y30916892D01*
X44179993Y30791204D01*
X44179990Y30791202D01*
X44028798Y30640010D01*
X44028796Y30640007D01*
X43903108Y30467013D01*
X43806029Y30276485D01*
X43806026Y30276479D01*
X43739952Y30073122D01*
X43739951Y30073117D01*
X43739951Y30073116D01*
X43706500Y29861916D01*
X42639128Y29861916D01*
X42627634Y29897290D01*
X42534129Y30080803D01*
X42413068Y30247430D01*
X42413065Y30247433D01*
X42413063Y30247436D01*
X42267435Y30393064D01*
X42267432Y30393066D01*
X42267430Y30393068D01*
X42100803Y30514129D01*
X42025034Y30552735D01*
X41973422Y30601481D01*
X41956356Y30670396D01*
X41979257Y30737598D01*
X42025034Y30777265D01*
X42100803Y30815871D01*
X42267430Y30936932D01*
X42413068Y31082570D01*
X42534129Y31249197D01*
X42627634Y31432710D01*
X42691280Y31628592D01*
X42723500Y31832019D01*
X42723500Y32037981D01*
X42691280Y32241408D01*
X42627634Y32437290D01*
X42534129Y32620803D01*
X42413068Y32787430D01*
X42413065Y32787433D01*
X42413063Y32787436D01*
X42267435Y32933064D01*
X42267432Y32933066D01*
X42267430Y32933068D01*
X42100803Y33054129D01*
X42025034Y33092735D01*
X41973422Y33141481D01*
X41956356Y33210396D01*
X41979257Y33277598D01*
X42025034Y33317265D01*
X42100803Y33355871D01*
X42267430Y33476932D01*
X42413068Y33622570D01*
X42534129Y33789197D01*
X42627634Y33972710D01*
X42691280Y34168592D01*
X42723500Y34372019D01*
X42723500Y34577981D01*
X42691280Y34781408D01*
X42627634Y34977290D01*
X42534129Y35160803D01*
X42413068Y35327430D01*
X42413065Y35327433D01*
X42413063Y35327436D01*
X42267435Y35473064D01*
X42267432Y35473066D01*
X42267430Y35473068D01*
X42100803Y35594129D01*
X42025034Y35632735D01*
X41973422Y35681481D01*
X41956356Y35750396D01*
X41979257Y35817598D01*
X42025034Y35857265D01*
X42100803Y35895871D01*
X42267430Y36016932D01*
X42413068Y36162570D01*
X42534129Y36329197D01*
X42627634Y36512710D01*
X42691280Y36708592D01*
X42723500Y36912019D01*
X42723500Y37117981D01*
X42691280Y37321408D01*
X42627634Y37517290D01*
X42534129Y37700803D01*
X42413068Y37867430D01*
X42413065Y37867433D01*
X42413063Y37867436D01*
X42267435Y38013064D01*
X42267432Y38013066D01*
X42267430Y38013068D01*
X42100803Y38134129D01*
X42090064Y38139601D01*
X42090064Y38139602D01*
X42041009Y38164596D01*
X42025037Y38172734D01*
X41973422Y38221481D01*
X41967123Y38246916D01*
X43441500Y38246916D01*
X43441500Y38033084D01*
X43471288Y37845010D01*
X43474952Y37821879D01*
X43541026Y37618522D01*
X43541028Y37618517D01*
X43638106Y37427991D01*
X43763794Y37254996D01*
X43763796Y37254994D01*
X43763798Y37254991D01*
X43914990Y37103799D01*
X43914993Y37103797D01*
X43914996Y37103794D01*
X44087991Y36978106D01*
X44087996Y36978104D01*
X44089088Y36977434D01*
X44089418Y36977069D01*
X44091996Y36975196D01*
X44091602Y36974655D01*
X44136721Y36924787D01*
X44148328Y36854745D01*
X44120226Y36789547D01*
X44091870Y36764977D01*
X44091996Y36764804D01*
X44089982Y36763342D01*
X44089088Y36762566D01*
X44087987Y36761892D01*
X43914993Y36636204D01*
X43914990Y36636202D01*
X43763798Y36485010D01*
X43763796Y36485007D01*
X43638108Y36312013D01*
X43541029Y36121485D01*
X43541026Y36121479D01*
X43474952Y35918122D01*
X43474951Y35918117D01*
X43474951Y35918116D01*
X43441500Y35706916D01*
X43441500Y35493084D01*
X43467737Y35327433D01*
X43474952Y35281879D01*
X43514292Y35160803D01*
X43541028Y35078517D01*
X43638106Y34887991D01*
X43763794Y34714996D01*
X43763796Y34714994D01*
X43763798Y34714991D01*
X43866770Y34612019D01*
X43900796Y34549707D01*
X43895731Y34478892D01*
X43853184Y34422056D01*
X43821708Y34404869D01*
X43703797Y34360890D01*
X43703792Y34360888D01*
X43586738Y34273262D01*
X43499112Y34156208D01*
X43499110Y34156203D01*
X43448011Y34019205D01*
X43448009Y34019197D01*
X43441500Y33958650D01*
X43441500Y32161351D01*
X43448009Y32100804D01*
X43448011Y32100796D01*
X43499110Y31963798D01*
X43499112Y31963793D01*
X43586738Y31846739D01*
X43703792Y31759113D01*
X43703794Y31759112D01*
X43703796Y31759111D01*
X43752415Y31740977D01*
X43840795Y31708012D01*
X43840803Y31708010D01*
X43901350Y31701501D01*
X43901355Y31701501D01*
X43901362Y31701500D01*
X43901368Y31701500D01*
X45698632Y31701500D01*
X45698638Y31701500D01*
X45698645Y31701501D01*
X45698649Y31701501D01*
X45759196Y31708010D01*
X45759199Y31708011D01*
X45759201Y31708011D01*
X45896204Y31759111D01*
X45913485Y31772047D01*
X46013261Y31846739D01*
X46100887Y31963793D01*
X46100887Y31963794D01*
X46100889Y31963796D01*
X46151989Y32100799D01*
X46158500Y32161362D01*
X46158500Y33958638D01*
X46158499Y33958650D01*
X46151990Y34019197D01*
X46151988Y34019205D01*
X46100889Y34156203D01*
X46100887Y34156208D01*
X46013261Y34273262D01*
X45896207Y34360888D01*
X45896203Y34360890D01*
X45778291Y34404869D01*
X45721455Y34447415D01*
X45696645Y34513936D01*
X45711737Y34583310D01*
X45733226Y34612017D01*
X45836206Y34714996D01*
X45961894Y34887991D01*
X46058972Y35078517D01*
X46125049Y35281884D01*
X46158500Y35493084D01*
X46158500Y35706916D01*
X46125049Y35918116D01*
X46058972Y36121483D01*
X45961894Y36312009D01*
X45836206Y36485004D01*
X45836203Y36485007D01*
X45836201Y36485010D01*
X45685009Y36636202D01*
X45685006Y36636204D01*
X45685004Y36636206D01*
X45554781Y36730818D01*
X45512012Y36761892D01*
X45510920Y36762561D01*
X45510591Y36762925D01*
X45508004Y36764804D01*
X45508398Y36765348D01*
X45463283Y36815204D01*
X45451670Y36885244D01*
X45479766Y36950445D01*
X45508130Y36975022D01*
X45508004Y36975196D01*
X45510030Y36976669D01*
X45510920Y36977439D01*
X45511997Y36978101D01*
X45512009Y36978106D01*
X45685004Y37103794D01*
X45836206Y37254996D01*
X45961894Y37427991D01*
X46058972Y37618517D01*
X46125049Y37821884D01*
X46158500Y38033084D01*
X46158500Y38246916D01*
X46125049Y38458116D01*
X46058972Y38661483D01*
X45961894Y38852009D01*
X45836206Y39025004D01*
X45836203Y39025007D01*
X45836201Y39025010D01*
X45822561Y39038650D01*
X47041500Y39038650D01*
X47041500Y37241351D01*
X47048009Y37180804D01*
X47048011Y37180796D01*
X47099110Y37043798D01*
X47099112Y37043793D01*
X47186738Y36926739D01*
X47303791Y36839114D01*
X47303792Y36839114D01*
X47303796Y36839111D01*
X47421711Y36795131D01*
X47478543Y36752586D01*
X47503354Y36686066D01*
X47488263Y36616692D01*
X47466771Y36587982D01*
X47363794Y36485005D01*
X47238108Y36312013D01*
X47141029Y36121485D01*
X47141026Y36121479D01*
X47074952Y35918122D01*
X47074951Y35918117D01*
X47074951Y35918116D01*
X47041500Y35706916D01*
X47041500Y35493084D01*
X47067737Y35327433D01*
X47074952Y35281879D01*
X47114292Y35160803D01*
X47141028Y35078517D01*
X47238106Y34887991D01*
X47363794Y34714996D01*
X47363796Y34714994D01*
X47363798Y34714991D01*
X47514990Y34563799D01*
X47514993Y34563797D01*
X47514996Y34563794D01*
X47687991Y34438106D01*
X47687996Y34438104D01*
X47689088Y34437434D01*
X47689418Y34437069D01*
X47691996Y34435196D01*
X47691602Y34434655D01*
X47736721Y34384787D01*
X47748328Y34314745D01*
X47720226Y34249547D01*
X47691870Y34224977D01*
X47691996Y34224804D01*
X47689982Y34223342D01*
X47689088Y34222566D01*
X47687987Y34221892D01*
X47514993Y34096204D01*
X47514990Y34096202D01*
X47363798Y33945010D01*
X47363796Y33945007D01*
X47238108Y33772013D01*
X47141029Y33581485D01*
X47141026Y33581479D01*
X47074952Y33378122D01*
X47074951Y33378117D01*
X47074951Y33378116D01*
X47041500Y33166916D01*
X47041500Y32953084D01*
X47074951Y32741884D01*
X47074952Y32741879D01*
X47141026Y32538522D01*
X47141028Y32538517D01*
X47238106Y32347991D01*
X47363794Y32174996D01*
X47363796Y32174994D01*
X47363798Y32174991D01*
X47514990Y32023799D01*
X47514993Y32023797D01*
X47514996Y32023794D01*
X47687991Y31898106D01*
X47878517Y31801028D01*
X48081878Y31734953D01*
X48081879Y31734953D01*
X48081884Y31734951D01*
X48293084Y31701500D01*
X48293087Y31701500D01*
X48506913Y31701500D01*
X48506916Y31701500D01*
X48718116Y31734951D01*
X48921483Y31801028D01*
X49112009Y31898106D01*
X49285004Y32023794D01*
X49436206Y32174996D01*
X49561894Y32347991D01*
X49658972Y32538517D01*
X49725049Y32741884D01*
X49758500Y32953084D01*
X49758500Y33166916D01*
X49725049Y33378116D01*
X49658972Y33581483D01*
X49561894Y33772009D01*
X49436206Y33945004D01*
X49436203Y33945007D01*
X49436201Y33945010D01*
X49285009Y34096202D01*
X49285006Y34096204D01*
X49285004Y34096206D01*
X49154781Y34190818D01*
X49112012Y34221892D01*
X49110920Y34222561D01*
X49110591Y34222925D01*
X49108004Y34224804D01*
X49108398Y34225348D01*
X49063283Y34275204D01*
X49051670Y34345244D01*
X49079766Y34410445D01*
X49108130Y34435022D01*
X49108004Y34435196D01*
X49110030Y34436669D01*
X49110920Y34437439D01*
X49111997Y34438101D01*
X49112009Y34438106D01*
X49285004Y34563794D01*
X49436206Y34714996D01*
X49561894Y34887991D01*
X49658972Y35078517D01*
X49725049Y35281884D01*
X49758500Y35493084D01*
X49758500Y35706916D01*
X49725049Y35918116D01*
X49658972Y36121483D01*
X49561894Y36312009D01*
X49436206Y36485004D01*
X49436203Y36485007D01*
X49436201Y36485010D01*
X49333229Y36587982D01*
X49299203Y36650294D01*
X49304268Y36721109D01*
X49346815Y36777945D01*
X49378284Y36795129D01*
X49496204Y36839111D01*
X49552199Y36881028D01*
X49613261Y36926739D01*
X49700887Y37043793D01*
X49700887Y37043794D01*
X49700889Y37043796D01*
X49751989Y37180799D01*
X49752169Y37182468D01*
X49758499Y37241351D01*
X49758500Y37241368D01*
X49758500Y39038633D01*
X49758499Y39038650D01*
X49751990Y39099197D01*
X49751988Y39099205D01*
X49718927Y39187843D01*
X49700889Y39236204D01*
X49700888Y39236206D01*
X49700887Y39236208D01*
X49613261Y39353262D01*
X49496207Y39440888D01*
X49496202Y39440890D01*
X49359204Y39491989D01*
X49359196Y39491991D01*
X49298649Y39498500D01*
X49298638Y39498500D01*
X47501362Y39498500D01*
X47501350Y39498500D01*
X47440803Y39491991D01*
X47440795Y39491989D01*
X47303797Y39440890D01*
X47303792Y39440888D01*
X47186738Y39353262D01*
X47099112Y39236208D01*
X47099110Y39236203D01*
X47048011Y39099205D01*
X47048009Y39099197D01*
X47041500Y39038650D01*
X45822561Y39038650D01*
X45685009Y39176202D01*
X45685006Y39176204D01*
X45685004Y39176206D01*
X45512009Y39301894D01*
X45321483Y39398972D01*
X45321480Y39398973D01*
X45321478Y39398974D01*
X45118120Y39465048D01*
X45118123Y39465048D01*
X45074204Y39472004D01*
X44906916Y39498500D01*
X44693084Y39498500D01*
X44481884Y39465049D01*
X44481878Y39465048D01*
X44278521Y39398974D01*
X44278515Y39398971D01*
X44087987Y39301892D01*
X43914993Y39176204D01*
X43914990Y39176202D01*
X43763798Y39025010D01*
X43763796Y39025007D01*
X43638108Y38852013D01*
X43541029Y38661485D01*
X43541026Y38661479D01*
X43474952Y38458122D01*
X43474951Y38458117D01*
X43474951Y38458116D01*
X43441500Y38246916D01*
X41967123Y38246916D01*
X41956356Y38290396D01*
X41979256Y38357597D01*
X42025034Y38397265D01*
X42100803Y38435871D01*
X42267430Y38556932D01*
X42413068Y38702570D01*
X42534129Y38869197D01*
X42627634Y39052710D01*
X42691280Y39248592D01*
X42723500Y39452019D01*
X42723500Y39657981D01*
X42691280Y39861408D01*
X42627634Y40057290D01*
X42534129Y40240803D01*
X42413068Y40407430D01*
X42413065Y40407433D01*
X42413063Y40407436D01*
X42267435Y40553064D01*
X42267432Y40553066D01*
X42267430Y40553068D01*
X42100803Y40674129D01*
X42025034Y40712735D01*
X41973422Y40761481D01*
X41956356Y40830396D01*
X41979257Y40897598D01*
X42025034Y40937265D01*
X42100803Y40975871D01*
X42267430Y41096932D01*
X42413068Y41242570D01*
X42534129Y41409197D01*
X42627634Y41592710D01*
X42691280Y41788592D01*
X42723500Y41992019D01*
X42723500Y42197981D01*
X42706597Y42304699D01*
X44271934Y42304699D01*
X44271934Y42068515D01*
X44308881Y41835239D01*
X44381866Y41610615D01*
X44489091Y41400174D01*
X44489093Y41400171D01*
X44627918Y41209095D01*
X44794921Y41042092D01*
X44794924Y41042090D01*
X44986001Y40903264D01*
X45196442Y40796039D01*
X45421066Y40723054D01*
X45654342Y40686107D01*
X45654345Y40686107D01*
X45890523Y40686107D01*
X45890526Y40686107D01*
X46123802Y40723054D01*
X46348426Y40796039D01*
X46558867Y40903264D01*
X46749944Y41042090D01*
X46916951Y41209097D01*
X47055777Y41400174D01*
X47163002Y41610615D01*
X47235987Y41835239D01*
X47272934Y42068515D01*
X47272934Y42304699D01*
X47235987Y42537975D01*
X47163002Y42762599D01*
X47055777Y42973040D01*
X46916951Y43164117D01*
X46916949Y43164120D01*
X46749946Y43331123D01*
X46558870Y43469948D01*
X46558869Y43469949D01*
X46558867Y43469950D01*
X46348426Y43577175D01*
X46123802Y43650160D01*
X45890526Y43687107D01*
X45654342Y43687107D01*
X45421066Y43650160D01*
X45421063Y43650160D01*
X45421062Y43650159D01*
X45196442Y43577175D01*
X45196440Y43577174D01*
X44985997Y43469948D01*
X44794921Y43331123D01*
X44627918Y43164120D01*
X44489093Y42973044D01*
X44381867Y42762601D01*
X44381866Y42762599D01*
X44328154Y42597290D01*
X44308881Y42537975D01*
X44271934Y42304699D01*
X42706597Y42304699D01*
X42691280Y42401408D01*
X42627634Y42597290D01*
X42534129Y42780803D01*
X42413068Y42947430D01*
X42413065Y42947433D01*
X42413063Y42947436D01*
X42267435Y43093064D01*
X42267432Y43093066D01*
X42267430Y43093068D01*
X42100803Y43214129D01*
X42025034Y43252735D01*
X41973422Y43301481D01*
X41956356Y43370396D01*
X41979257Y43437598D01*
X42025034Y43477265D01*
X42100803Y43515871D01*
X42267430Y43636932D01*
X42413068Y43782570D01*
X42534129Y43949197D01*
X42627634Y44132710D01*
X42691280Y44328592D01*
X42723500Y44532019D01*
X42723500Y44737981D01*
X42691280Y44941408D01*
X42627634Y45137290D01*
X42534129Y45320803D01*
X42413068Y45487430D01*
X42413065Y45487433D01*
X42413063Y45487436D01*
X42267435Y45633064D01*
X42267432Y45633066D01*
X42267431Y45633067D01*
X42267430Y45633068D01*
X42100803Y45754129D01*
X42025034Y45792735D01*
X41973422Y45841481D01*
X41956356Y45910396D01*
X41979257Y45977598D01*
X42025034Y46017265D01*
X42100803Y46055871D01*
X42267430Y46176932D01*
X42413068Y46322570D01*
X42534129Y46489197D01*
X42627634Y46672710D01*
X42691280Y46868592D01*
X42723500Y47072019D01*
X42723500Y47277981D01*
X42691280Y47481408D01*
X42627634Y47677290D01*
X42534129Y47860803D01*
X42413068Y48027430D01*
X42413065Y48027433D01*
X42413063Y48027436D01*
X42267435Y48173064D01*
X42267432Y48173066D01*
X42267430Y48173068D01*
X42100803Y48294129D01*
X41917290Y48387634D01*
X41917287Y48387635D01*
X41917285Y48387636D01*
X41721412Y48451279D01*
X41721410Y48451280D01*
X41721408Y48451280D01*
X41517981Y48483500D01*
X41312019Y48483500D01*
X41108592Y48451280D01*
X41108590Y48451280D01*
X41108587Y48451279D01*
X40912714Y48387636D01*
X40912708Y48387633D01*
X40729193Y48294127D01*
X40562567Y48173066D01*
X40562564Y48173064D01*
X40416936Y48027436D01*
X40416934Y48027433D01*
X40295873Y47860807D01*
X40202367Y47677292D01*
X40202364Y47677286D01*
X40138721Y47481413D01*
X40138720Y47481410D01*
X40138720Y47481408D01*
X40106500Y47277981D01*
X29966272Y47277981D01*
X29966272Y47284907D01*
X29935202Y47441108D01*
X29874255Y47588245D01*
X29785775Y47720666D01*
X29785773Y47720668D01*
X29785768Y47720674D01*
X29673168Y47833274D01*
X29673162Y47833279D01*
X29673161Y47833280D01*
X29540740Y47921760D01*
X29393603Y47982707D01*
X29315502Y47998242D01*
X29237404Y48013777D01*
X29237402Y48013777D01*
X29078142Y48013777D01*
X29078139Y48013777D01*
X28960991Y47990475D01*
X28921941Y47982707D01*
X28921939Y47982706D01*
X28774804Y47921760D01*
X28642381Y47833279D01*
X28642375Y47833274D01*
X28529775Y47720674D01*
X28529770Y47720668D01*
X28441289Y47588245D01*
X28380343Y47441110D01*
X28380342Y47441107D01*
X28349272Y47284910D01*
X27483500Y47284910D01*
X27483500Y48023633D01*
X27483499Y48023650D01*
X27476990Y48084197D01*
X27476988Y48084205D01*
X27425889Y48221203D01*
X27425887Y48221208D01*
X27338261Y48338262D01*
X27221207Y48425888D01*
X27221202Y48425890D01*
X27084204Y48476989D01*
X27084196Y48476991D01*
X27023649Y48483500D01*
X27023638Y48483500D01*
X25326362Y48483500D01*
X25326350Y48483500D01*
X25265803Y48476991D01*
X25265795Y48476989D01*
X25128797Y48425890D01*
X25128792Y48425888D01*
X25011738Y48338262D01*
X24924112Y48221208D01*
X24924110Y48221203D01*
X24873011Y48084205D01*
X24873009Y48084197D01*
X24866500Y48023650D01*
X18919743Y48023650D01*
X18915396Y48027997D01*
X18915390Y48028002D01*
X18915389Y48028003D01*
X18782968Y48116483D01*
X18635831Y48177430D01*
X18557730Y48192965D01*
X18479632Y48208500D01*
X18479630Y48208500D01*
X18320370Y48208500D01*
X18320367Y48208500D01*
X18203219Y48185198D01*
X18164169Y48177430D01*
X18164167Y48177430D01*
X18164166Y48177429D01*
X18098218Y48150112D01*
X18027628Y48142523D01*
X18001782Y48150112D01*
X17946366Y48173066D01*
X17935831Y48177430D01*
X17857730Y48192965D01*
X17779632Y48208500D01*
X17779630Y48208500D01*
X17620370Y48208500D01*
X17620367Y48208500D01*
X17503219Y48185198D01*
X17464169Y48177430D01*
X17379897Y48142523D01*
X17317032Y48116483D01*
X17184609Y48028002D01*
X17184603Y48027997D01*
X17072003Y47915397D01*
X17071998Y47915391D01*
X17071997Y47915389D01*
X16983517Y47782968D01*
X16928506Y47650160D01*
X16922571Y47635833D01*
X16922570Y47635830D01*
X16891500Y47479633D01*
X9539863Y47479633D01*
X9348426Y47577175D01*
X9123802Y47650160D01*
X8890526Y47687107D01*
X8654342Y47687107D01*
X8421066Y47650160D01*
X8421063Y47650160D01*
X8421062Y47650159D01*
X8196442Y47577175D01*
X8196440Y47577174D01*
X7985997Y47469948D01*
X7794921Y47331123D01*
X7627918Y47164120D01*
X7489093Y46973044D01*
X7381867Y46762601D01*
X7381866Y46762599D01*
X7313181Y46551208D01*
X7308881Y46537975D01*
X7271934Y46304699D01*
X4286969Y46304699D01*
X7288931Y49306661D01*
X7301308Y49317515D01*
X7332238Y49341249D01*
X7360712Y49357689D01*
X7389045Y49369425D01*
X7420801Y49377934D01*
X7459469Y49383024D01*
X7475904Y49384100D01*
X7475931Y49384100D01*
X42950503Y49384100D01*
X42950531Y49384100D01*
X42966974Y49383022D01*
G37*
%TD.AperFunction*%
%TD*%
M02*
