%TF.GenerationSoftware,KiCad,Pcbnew,(6.0.9)*%
%TF.CreationDate,2023-02-01T15:45:59-09:00*%
%TF.ProjectId,CONTROLLER_Radar Altimeter,434f4e54-524f-44c4-9c45-525f52616461,1*%
%TF.SameCoordinates,Original*%
%TF.FileFunction,Copper,L1,Top*%
%TF.FilePolarity,Positive*%
%FSLAX46Y46*%
G04 Gerber Fmt 4.6, Leading zero omitted, Abs format (unit mm)*
G04 Created by KiCad (PCBNEW (6.0.9)) date 2023-02-01 15:45:59*
%MOMM*%
%LPD*%
G01*
G04 APERTURE LIST*
G04 Aperture macros list*
%AMRoundRect*
0 Rectangle with rounded corners*
0 $1 Rounding radius*
0 $2 $3 $4 $5 $6 $7 $8 $9 X,Y pos of 4 corners*
0 Add a 4 corners polygon primitive as box body*
4,1,4,$2,$3,$4,$5,$6,$7,$8,$9,$2,$3,0*
0 Add four circle primitives for the rounded corners*
1,1,$1+$1,$2,$3*
1,1,$1+$1,$4,$5*
1,1,$1+$1,$6,$7*
1,1,$1+$1,$8,$9*
0 Add four rect primitives between the rounded corners*
20,1,$1+$1,$2,$3,$4,$5,0*
20,1,$1+$1,$4,$5,$6,$7,0*
20,1,$1+$1,$6,$7,$8,$9,0*
20,1,$1+$1,$8,$9,$2,$3,0*%
G04 Aperture macros list end*
%TA.AperFunction,ComponentPad*%
%ADD10R,1.700000X1.700000*%
%TD*%
%TA.AperFunction,ComponentPad*%
%ADD11O,1.700000X1.700000*%
%TD*%
%TA.AperFunction,ComponentPad*%
%ADD12R,1.600000X1.600000*%
%TD*%
%TA.AperFunction,ComponentPad*%
%ADD13O,1.600000X1.600000*%
%TD*%
%TA.AperFunction,SMDPad,CuDef*%
%ADD14RoundRect,0.150000X0.825000X0.150000X-0.825000X0.150000X-0.825000X-0.150000X0.825000X-0.150000X0*%
%TD*%
%TA.AperFunction,SMDPad,CuDef*%
%ADD15RoundRect,0.250000X0.475000X-0.250000X0.475000X0.250000X-0.475000X0.250000X-0.475000X-0.250000X0*%
%TD*%
%TA.AperFunction,SMDPad,CuDef*%
%ADD16RoundRect,0.250000X-0.450000X0.262500X-0.450000X-0.262500X0.450000X-0.262500X0.450000X0.262500X0*%
%TD*%
%TA.AperFunction,SMDPad,CuDef*%
%ADD17RoundRect,0.250000X0.450000X-0.262500X0.450000X0.262500X-0.450000X0.262500X-0.450000X-0.262500X0*%
%TD*%
%TA.AperFunction,ComponentPad*%
%ADD18O,2.700000X3.300000*%
%TD*%
%TA.AperFunction,ComponentPad*%
%ADD19RoundRect,0.250001X1.099999X1.399999X-1.099999X1.399999X-1.099999X-1.399999X1.099999X-1.399999X0*%
%TD*%
%TA.AperFunction,ViaPad*%
%ADD20C,0.600000*%
%TD*%
%TA.AperFunction,Conductor*%
%ADD21C,0.914400*%
%TD*%
%TA.AperFunction,Conductor*%
%ADD22C,0.457200*%
%TD*%
%TA.AperFunction,Conductor*%
%ADD23C,1.625600*%
%TD*%
G04 APERTURE END LIST*
D10*
%TO.P,J5,1*%
%TO.N,/~{D10A10}*%
X-57389240Y53000000D03*
D11*
%TO.P,J5,2*%
%TO.N,/D16MOSI*%
X-59929240Y53000000D03*
%TO.P,J5,3*%
%TO.N,Net-(J5-Pad3)*%
X-57389240Y55540000D03*
%TO.P,J5,4*%
%TO.N,/LED_DIN*%
X-59929240Y55540000D03*
%TO.P,J5,5*%
%TO.N,GND*%
X-57389240Y58080000D03*
%TO.P,J5,6*%
X-59929240Y58080000D03*
%TO.P,J5,7*%
%TO.N,/+5V_SUPPLY*%
X-57389240Y60620000D03*
%TO.P,J5,8*%
%TO.N,/LED_DOUT*%
X-59929240Y60620000D03*
%TO.P,J5,9*%
%TO.N,/D15SCK*%
X-57389240Y63160000D03*
%TO.P,J5,10*%
%TO.N,/D14MISO*%
X-59929240Y63160000D03*
%TD*%
%TO.P,J13,2*%
%TO.N,Net-(J13-Pad2)*%
X-89389240Y42460000D03*
D10*
%TO.P,J13,1*%
%TO.N,/~{D9A9}*%
X-89389240Y45000000D03*
%TD*%
%TO.P,J14,1*%
%TO.N,/~{D6A7}*%
X-85389240Y45000000D03*
D11*
%TO.P,J14,2*%
%TO.N,Net-(J14-Pad2)*%
X-85389240Y42460000D03*
%TD*%
D10*
%TO.P,J15,1*%
%TO.N,GND*%
X-93389240Y45000000D03*
D11*
%TO.P,J15,2*%
%TO.N,/+5V_SUPPLY*%
X-93389240Y42460000D03*
%TO.P,J15,3*%
%TO.N,/~{D5}*%
X-93389240Y39920000D03*
%TD*%
D10*
%TO.P,J17,1*%
%TO.N,+5V*%
X-68389240Y49000000D03*
D11*
%TO.P,J17,2*%
%TO.N,/A0*%
X-65849240Y49000000D03*
%TO.P,J17,3*%
%TO.N,GND*%
X-63309240Y49000000D03*
%TD*%
D12*
%TO.P,U0,1*%
%TO.N,/TX0D1*%
X-79389240Y81000000D03*
D13*
%TO.P,U0,2*%
%TO.N,/RX1D0*%
X-79389240Y78460000D03*
%TO.P,U0,3*%
%TO.N,GND*%
X-79389240Y75920000D03*
%TO.P,U0,4*%
X-79389240Y73380000D03*
%TO.P,U0,5*%
%TO.N,/SDAD2*%
X-79389240Y70840000D03*
%TO.P,U0,6*%
%TO.N,/~{SCLD3}*%
X-79389240Y68300000D03*
%TO.P,U0,7*%
%TO.N,/D4A6*%
X-79389240Y65760000D03*
%TO.P,U0,8*%
%TO.N,/~{D5}*%
X-79389240Y63220000D03*
%TO.P,U0,9*%
%TO.N,/~{D6A7}*%
X-79389240Y60680000D03*
%TO.P,U0,10*%
%TO.N,/D7*%
X-79389240Y58140000D03*
%TO.P,U0,11*%
%TO.N,/D8A8*%
X-79389240Y55600000D03*
%TO.P,U0,12*%
%TO.N,/~{D9A9}*%
X-79389240Y53060000D03*
%TO.P,U0,13*%
%TO.N,/~{D10A10}*%
X-64149240Y53060000D03*
%TO.P,U0,14*%
%TO.N,/D16MOSI*%
X-64149240Y55600000D03*
%TO.P,U0,15*%
%TO.N,/D14MISO*%
X-64149240Y58140000D03*
%TO.P,U0,16*%
%TO.N,/D15SCK*%
X-64149240Y60680000D03*
%TO.P,U0,17*%
%TO.N,/A0*%
X-64149240Y63220000D03*
%TO.P,U0,18*%
%TO.N,/A1*%
X-64149240Y65760000D03*
%TO.P,U0,19*%
%TO.N,/A2*%
X-64149240Y68300000D03*
%TO.P,U0,20*%
%TO.N,/A3*%
X-64149240Y70840000D03*
%TO.P,U0,21*%
%TO.N,+5V*%
X-64149240Y73380000D03*
%TO.P,U0,22*%
%TO.N,Net-(U0-Pad22)*%
X-64149240Y75920000D03*
%TO.P,U0,23*%
%TO.N,GND*%
X-64149240Y78460000D03*
%TO.P,U0,24*%
%TO.N,/+12V_SUPPLY*%
X-64149240Y81000000D03*
%TD*%
D14*
%TO.P,U1,1*%
%TO.N,/RX1D0*%
X-82914240Y77095000D03*
%TO.P,U1,2*%
%TO.N,/D4A6*%
X-82914240Y78365000D03*
%TO.P,U1,3*%
X-82914240Y79635000D03*
%TO.P,U1,4*%
%TO.N,/TX0D1*%
X-82914240Y80905000D03*
%TO.P,U1,5*%
%TO.N,GND*%
X-87864240Y80905000D03*
%TO.P,U1,6*%
%TO.N,/BUS-A*%
X-87864240Y79635000D03*
%TO.P,U1,7*%
%TO.N,/BUS-B*%
X-87864240Y78365000D03*
%TO.P,U1,8*%
%TO.N,+5V*%
X-87864240Y77095000D03*
%TD*%
D10*
%TO.P,J16,1*%
%TO.N,/SDAD2*%
X-83389240Y74000000D03*
D11*
%TO.P,J16,2*%
%TO.N,GND*%
X-83389240Y71460000D03*
%TD*%
D15*
%TO.P,C1,1*%
%TO.N,+5V*%
X-90245240Y78055000D03*
%TO.P,C1,2*%
%TO.N,GND*%
X-90245240Y79955000D03*
%TD*%
D16*
%TO.P,R1,1*%
%TO.N,GND*%
X-83260240Y39658500D03*
%TO.P,R1,2*%
%TO.N,Net-(J13-Pad2)*%
X-83260240Y37833500D03*
%TD*%
D17*
%TO.P,R2,1*%
%TO.N,GND*%
X-81101240Y37810000D03*
%TO.P,R2,2*%
%TO.N,Net-(J14-Pad2)*%
X-81101240Y39635000D03*
%TD*%
D18*
%TO.P,J1,6*%
%TO.N,GND*%
X-96789240Y67110000D03*
%TO.P,J1,5*%
%TO.N,/BUS-B*%
X-92589240Y67110000D03*
%TO.P,J1,4*%
%TO.N,/BUS-A*%
X-88389240Y67110000D03*
%TO.P,J1,3*%
%TO.N,/+3.3V_SUPPLY*%
X-96789240Y72610000D03*
%TO.P,J1,2*%
%TO.N,/+5V_SUPPLY*%
X-92589240Y72610000D03*
D19*
%TO.P,J1,1*%
%TO.N,/+12V_SUPPLY*%
X-88389240Y72610000D03*
%TD*%
%TO.P,J2,1*%
%TO.N,/+12V_SUPPLY*%
X-88389240Y57000000D03*
D18*
%TO.P,J2,2*%
%TO.N,/+5V_SUPPLY*%
X-92589240Y57000000D03*
%TO.P,J2,3*%
%TO.N,/+3.3V_SUPPLY*%
X-96789240Y57000000D03*
%TO.P,J2,4*%
%TO.N,/BUS-A*%
X-88389240Y51500000D03*
%TO.P,J2,5*%
%TO.N,/BUS-B*%
X-92589240Y51500000D03*
%TO.P,J2,6*%
%TO.N,GND*%
X-96789240Y51500000D03*
%TD*%
D19*
%TO.P,J3,1*%
%TO.N,/LED+5V*%
X-69389240Y45000000D03*
D18*
%TO.P,J3,2*%
X-73589240Y45000000D03*
%TO.P,J3,3*%
%TO.N,/LEDGND*%
X-69389240Y39500000D03*
%TO.P,J3,4*%
%TO.N,/DATAIN*%
X-73589240Y39500000D03*
%TD*%
D19*
%TO.P,J4,1*%
%TO.N,/LED+5V*%
X-58389240Y45000000D03*
D18*
%TO.P,J4,2*%
X-62589240Y45000000D03*
%TO.P,J4,3*%
%TO.N,/LEDGND*%
X-58389240Y39500000D03*
%TO.P,J4,4*%
%TO.N,/DATAOUT*%
X-62589240Y39500000D03*
%TD*%
D10*
%TO.P,JP1,1*%
%TO.N,/DATAIN*%
X-74389240Y62000000D03*
D11*
%TO.P,JP1,2*%
%TO.N,/LED_DIN*%
X-74389240Y59460000D03*
%TO.P,JP1,3*%
%TO.N,/~{SCLD3}*%
X-74389240Y56920000D03*
%TD*%
D10*
%TO.P,JP2,1*%
%TO.N,/DATAOUT*%
X-68389240Y62000000D03*
D11*
%TO.P,JP2,2*%
%TO.N,/LED_DOUT*%
X-68389240Y59460000D03*
%TO.P,JP2,3*%
%TO.N,GND*%
X-68389240Y56920000D03*
%TD*%
D20*
%TO.N,GND*%
X-93389240Y77000000D03*
X-67389240Y53000000D03*
X-67389240Y54000000D03*
X-96389240Y77000000D03*
X-67389240Y52000000D03*
%TO.N,+5V*%
X-71093640Y57630900D03*
X-90389240Y77000000D03*
X-71093640Y53325600D03*
%TD*%
D21*
%TO.N,/+12V_SUPPLY*%
X-89751029Y82457201D02*
X-65606441Y82457201D01*
X-65606441Y82457201D02*
X-64149240Y81000000D01*
X-93850844Y75885590D02*
X-94503650Y76538396D01*
X-94503650Y77704580D02*
X-89751029Y82457201D01*
X-88389240Y73000000D02*
X-91274830Y75885590D01*
X-91274830Y75885590D02*
X-93850844Y75885590D01*
X-88389240Y72610000D02*
X-88389240Y73000000D01*
X-94503650Y76538396D02*
X-94503650Y77704580D01*
D22*
%TO.N,/BUS-B*%
X-90810630Y53278610D02*
X-92589240Y51500000D01*
X-90810630Y65331390D02*
X-90810630Y53278610D01*
X-92589240Y67500000D02*
X-92589240Y67110000D01*
X-90101240Y69988000D02*
X-92589240Y67500000D01*
X-92589240Y67110000D02*
X-90810630Y65331390D01*
X-86457451Y70727789D02*
X-87197240Y69988000D01*
X-86457451Y77933211D02*
X-86457451Y70727789D01*
X-86889240Y78365000D02*
X-86457451Y77933211D01*
X-87197240Y69988000D02*
X-90101240Y69988000D01*
X-87864240Y78365000D02*
X-86889240Y78365000D01*
%TO.N,/BUS-A*%
X-88389240Y53048000D02*
X-88389240Y51500000D01*
X-88389240Y67500000D02*
X-88389240Y67110000D01*
X-88389240Y67110000D02*
X-86582040Y65302800D01*
X-86582040Y54855200D02*
X-88389240Y53048000D01*
X-85800240Y78546000D02*
X-85800240Y70089000D01*
X-85800240Y70089000D02*
X-88389240Y67500000D01*
X-86889240Y79635000D02*
X-85800240Y78546000D01*
X-86582040Y65302800D02*
X-86582040Y54855200D01*
X-87864240Y79635000D02*
X-86889240Y79635000D01*
D23*
%TO.N,/+3.3V_SUPPLY*%
X-104052041Y64262801D02*
X-96789240Y57000000D01*
X-97179240Y73000000D02*
X-100168186Y73000000D01*
X-100168186Y73000000D02*
X-104052041Y69116145D01*
X-104052041Y69116145D02*
X-104052041Y64262801D01*
X-96789240Y72610000D02*
X-97179240Y73000000D01*
D22*
%TO.N,/D4A6*%
X-79389240Y66514330D02*
X-79389240Y65760000D01*
X-84911240Y70181400D02*
X-83056310Y70181400D01*
X-83889240Y78365000D02*
X-84911240Y77343000D01*
X-84911240Y77343000D02*
X-84911240Y70181400D01*
X-83056310Y70181400D02*
X-79389240Y66514330D01*
X-82914240Y78365000D02*
X-83889240Y78365000D01*
%TO.N,/SDAD2*%
X-81811240Y74000000D02*
X-83389240Y74000000D01*
X-79389240Y71578000D02*
X-81811240Y74000000D01*
X-79389240Y70840000D02*
X-79389240Y71578000D01*
D21*
%TO.N,GND*%
X-61513240Y58080000D02*
X-62051240Y57542000D01*
X-59929240Y58080000D02*
X-61513240Y58080000D01*
D22*
%TO.N,/~{D6A7}*%
X-81101240Y57796000D02*
X-81101240Y58968000D01*
X-85778029Y45388789D02*
X-85778029Y53119211D01*
X-81101240Y58968000D02*
X-79389240Y60680000D01*
X-85389240Y45000000D02*
X-85778029Y45388789D01*
X-85778029Y53119211D02*
X-81101240Y57796000D01*
%TO.N,/~{D5}*%
X-81863240Y58304000D02*
X-81863240Y60746000D01*
X-86435240Y48144000D02*
X-86435240Y53732000D01*
X-86435240Y53732000D02*
X-81863240Y58304000D01*
X-87197240Y47382000D02*
X-86435240Y48144000D01*
X-81863240Y60746000D02*
X-79389240Y63220000D01*
X-92110639Y41198601D02*
X-92110639Y47382000D01*
X-93389240Y39920000D02*
X-92110639Y41198601D01*
X-92110639Y47382000D02*
X-87197240Y47382000D01*
D21*
%TO.N,GND*%
X-90245240Y79955000D02*
X-90434240Y79955000D01*
D22*
X-83260240Y40397000D02*
X-83768240Y40905000D01*
X-89295240Y80905000D02*
X-90245240Y79955000D01*
X-81411740Y37810000D02*
X-83260240Y39658500D01*
D21*
X-90434240Y79955000D02*
X-93389240Y77000000D01*
D22*
X-87864240Y80905000D02*
X-89295240Y80905000D01*
D21*
X-68389240Y56920000D02*
X-68389240Y55000000D01*
D22*
X-83260240Y39658500D02*
X-83260240Y40397000D01*
X-81101240Y37810000D02*
X-81411740Y37810000D01*
D21*
X-59929240Y58080000D02*
X-55469240Y58080000D01*
%TO.N,+5V*%
X-90245240Y77144000D02*
X-90389240Y77000000D01*
D22*
X-89285240Y77095000D02*
X-90245240Y78055000D01*
D21*
X-90245240Y78055000D02*
X-90245240Y77144000D01*
X-71093640Y57630900D02*
X-71093640Y53325600D01*
D22*
X-87864240Y77095000D02*
X-89285240Y77095000D01*
D21*
%TO.N,/A0*%
X-65849240Y61520000D02*
X-64149240Y63220000D01*
X-65849240Y49000000D02*
X-65849240Y61520000D01*
D22*
%TO.N,/DATAIN*%
X-71979451Y59590211D02*
X-71979451Y52958686D01*
X-71979451Y52958686D02*
X-71810630Y52789865D01*
X-71810630Y41278610D02*
X-73589240Y39500000D01*
X-71810630Y52789865D02*
X-71810630Y41278610D01*
X-74389240Y62000000D02*
X-71979451Y59590211D01*
%TO.N,/DATAOUT*%
X-69582121Y47721399D02*
X-68650939Y47721399D01*
X-70207829Y60181411D02*
X-70207829Y48347107D01*
X-68650939Y47721399D02*
X-62589240Y41659700D01*
X-70207829Y48347107D02*
X-69582121Y47721399D01*
X-62589240Y41659700D02*
X-62589240Y39500000D01*
X-68389240Y62000000D02*
X-70207829Y60181411D01*
D21*
%TO.N,/~{D10A10}*%
X-64149240Y53060000D02*
X-62582039Y51492799D01*
X-58896441Y51492799D02*
X-57389240Y53000000D01*
X-62582039Y51492799D02*
X-58896441Y51492799D01*
%TO.N,/D14MISO*%
X-62692039Y60397201D02*
X-59929240Y63160000D01*
X-62692039Y59597201D02*
X-62692039Y60397201D01*
X-64149240Y58140000D02*
X-62692039Y59597201D01*
%TO.N,/D16MOSI*%
X-59929240Y53000000D02*
X-61549240Y53000000D01*
X-61549240Y53000000D02*
X-64149240Y55600000D01*
%TO.N,/D15SCK*%
X-60652697Y64667201D02*
X-58896441Y64667201D01*
X-62692039Y62627859D02*
X-60652697Y64667201D01*
X-58896441Y64667201D02*
X-57389240Y63160000D01*
X-62692039Y62137201D02*
X-62692039Y62627859D01*
X-64149240Y60680000D02*
X-62692039Y62137201D01*
D22*
%TO.N,/D4A6*%
X-81614240Y79635000D02*
X-81365240Y79386000D01*
X-81614240Y78365000D02*
X-81355240Y78624000D01*
X-81355240Y78624000D02*
X-81365240Y78634000D01*
X-82914240Y79635000D02*
X-81614240Y79635000D01*
X-81365240Y78634000D02*
X-81365240Y79386000D01*
X-82914240Y78365000D02*
X-81614240Y78365000D01*
%TO.N,/RX1D0*%
X-82914240Y77095000D02*
X-80754240Y77095000D01*
X-80754240Y77095000D02*
X-79389240Y78460000D01*
%TO.N,/TX0D1*%
X-79484240Y80905000D02*
X-79389240Y81000000D01*
X-82914240Y80905000D02*
X-79484240Y80905000D01*
%TO.N,Net-(J13-Pad2)*%
X-85651740Y38722500D02*
X-84149240Y38722500D01*
X-84149240Y38722500D02*
X-83260240Y37833500D01*
X-89389240Y42460000D02*
X-85651740Y38722500D01*
%TO.N,Net-(J14-Pad2)*%
X-85389240Y42460000D02*
X-83926240Y42460000D01*
X-83926240Y42460000D02*
X-81101240Y39635000D01*
%TD*%
%TA.AperFunction,Conductor*%
%TO.N,GND*%
G36*
X-91095512Y82694491D02*
G01*
X-91049019Y82640835D01*
X-91038915Y82570561D01*
X-91068409Y82505981D01*
X-91074538Y82499398D01*
X-94784409Y78789527D01*
X-94846721Y78755501D01*
X-94917536Y78760566D01*
X-94974372Y78803113D01*
X-94999183Y78869633D01*
X-94984092Y78939007D01*
X-94977031Y78950442D01*
X-94872481Y79101149D01*
X-94872479Y79101152D01*
X-94869816Y79104991D01*
X-94866723Y79111262D01*
X-94756280Y79335219D01*
X-94756279Y79335222D01*
X-94754215Y79339407D01*
X-94731254Y79411136D01*
X-94675960Y79583877D01*
X-94674533Y79588335D01*
X-94632519Y79846307D01*
X-94629098Y80107655D01*
X-94664344Y80366638D01*
X-94672361Y80394145D01*
X-94698779Y80484779D01*
X-94737483Y80617567D01*
X-94846908Y80854928D01*
X-94922191Y80969754D01*
X-94987650Y81069596D01*
X-94987654Y81069601D01*
X-94990216Y81073509D01*
X-95164258Y81268506D01*
X-95365210Y81435637D01*
X-95424309Y81471499D01*
X-95584662Y81568804D01*
X-95584666Y81568806D01*
X-95588659Y81571229D01*
X-95829695Y81672303D01*
X-96083023Y81736641D01*
X-96087674Y81737109D01*
X-96087678Y81737110D01*
X-96296969Y81758184D01*
X-96300107Y81758500D01*
X-96455594Y81758500D01*
X-96457919Y81758327D01*
X-96457925Y81758327D01*
X-96645240Y81744407D01*
X-96645244Y81744406D01*
X-96649892Y81744061D01*
X-96654440Y81743032D01*
X-96654446Y81743031D01*
X-96840841Y81700853D01*
X-96904817Y81686377D01*
X-96909169Y81684685D01*
X-96909171Y81684684D01*
X-97144064Y81593340D01*
X-97144067Y81593339D01*
X-97148417Y81591647D01*
X-97375338Y81461951D01*
X-97580597Y81300138D01*
X-97759683Y81109763D01*
X-97853023Y80975215D01*
X-97896250Y80912903D01*
X-97908664Y80895009D01*
X-97910730Y80890819D01*
X-97910732Y80890816D01*
X-98009286Y80690967D01*
X-98024265Y80660593D01*
X-98103947Y80411665D01*
X-98145961Y80153693D01*
X-98149382Y79892345D01*
X-98114136Y79633362D01*
X-98112828Y79628876D01*
X-98112828Y79628874D01*
X-98093806Y79563613D01*
X-98040997Y79382433D01*
X-97931572Y79145072D01*
X-97929009Y79141163D01*
X-97790830Y78930404D01*
X-97790826Y78930399D01*
X-97788264Y78926491D01*
X-97614222Y78731494D01*
X-97413270Y78564363D01*
X-97409267Y78561934D01*
X-97193818Y78431196D01*
X-97193814Y78431194D01*
X-97189821Y78428771D01*
X-96948785Y78327697D01*
X-96695457Y78263359D01*
X-96690806Y78262891D01*
X-96690802Y78262890D01*
X-96501870Y78243866D01*
X-96478373Y78241500D01*
X-96322886Y78241500D01*
X-96320561Y78241673D01*
X-96320555Y78241673D01*
X-96133240Y78255593D01*
X-96133236Y78255594D01*
X-96128588Y78255939D01*
X-96124040Y78256968D01*
X-96124034Y78256969D01*
X-95912774Y78304773D01*
X-95873663Y78313623D01*
X-95837471Y78327697D01*
X-95634416Y78406660D01*
X-95634413Y78406661D01*
X-95630063Y78408353D01*
X-95604551Y78422934D01*
X-95487062Y78490085D01*
X-95403142Y78538049D01*
X-95347105Y78582225D01*
X-95281225Y78608690D01*
X-95211496Y78595337D01*
X-95160055Y78546405D01*
X-95143235Y78477429D01*
X-95166376Y78410310D01*
X-95182526Y78391727D01*
X-95233814Y78343227D01*
X-95233818Y78343222D01*
X-95238450Y78338842D01*
X-95242110Y78333615D01*
X-95271750Y78291286D01*
X-95277318Y78283923D01*
X-95314020Y78238921D01*
X-95316976Y78233266D01*
X-95316979Y78233262D01*
X-95326758Y78214556D01*
X-95335207Y78200659D01*
X-95350978Y78178136D01*
X-95353511Y78172282D01*
X-95374038Y78124846D01*
X-95378015Y78116509D01*
X-95404913Y78065059D01*
X-95406671Y78058927D01*
X-95412493Y78038623D01*
X-95417974Y78023315D01*
X-95428893Y77998084D01*
X-95430198Y77991836D01*
X-95440765Y77941256D01*
X-95442983Y77932292D01*
X-95458989Y77876473D01*
X-95459478Y77870113D01*
X-95459479Y77870109D01*
X-95461098Y77849060D01*
X-95463390Y77832958D01*
X-95469013Y77806044D01*
X-95469350Y77799613D01*
X-95469350Y77746661D01*
X-95469721Y77736995D01*
X-95473536Y77687408D01*
X-95474040Y77680864D01*
X-95473240Y77674532D01*
X-95470344Y77651607D01*
X-95469350Y77635815D01*
X-95469350Y76554036D01*
X-95469399Y76550519D01*
X-95471723Y76467305D01*
X-95470614Y76461016D01*
X-95461640Y76410120D01*
X-95460371Y76400974D01*
X-95455641Y76354413D01*
X-95454504Y76343214D01*
X-95452596Y76337126D01*
X-95452596Y76337125D01*
X-95446284Y76316984D01*
X-95442432Y76301185D01*
X-95437656Y76274099D01*
X-95435307Y76268167D01*
X-95435307Y76268166D01*
X-95431191Y76257772D01*
X-95427666Y76248869D01*
X-95416281Y76220114D01*
X-95413206Y76211432D01*
X-95395836Y76156004D01*
X-95392739Y76150417D01*
X-95392737Y76150412D01*
X-95382505Y76131954D01*
X-95375558Y76117258D01*
X-95365434Y76091689D01*
X-95361941Y76086351D01*
X-95361940Y76086349D01*
X-95333640Y76043102D01*
X-95328876Y76035205D01*
X-95300723Y75984416D01*
X-95296572Y75979573D01*
X-95282830Y75963539D01*
X-95273070Y75950539D01*
X-95258011Y75927527D01*
X-95253701Y75922741D01*
X-95216265Y75885305D01*
X-95209692Y75878208D01*
X-95173050Y75835457D01*
X-95149740Y75817376D01*
X-95137871Y75806911D01*
X-94544760Y75213800D01*
X-94542307Y75211278D01*
X-94489491Y75155426D01*
X-94489486Y75155422D01*
X-94485106Y75150790D01*
X-94479879Y75147130D01*
X-94437550Y75117490D01*
X-94430187Y75111922D01*
X-94420340Y75103891D01*
X-94385185Y75075220D01*
X-94379530Y75072264D01*
X-94379526Y75072261D01*
X-94360820Y75062482D01*
X-94346923Y75054033D01*
X-94324400Y75038262D01*
X-94318546Y75035729D01*
X-94271110Y75015202D01*
X-94262773Y75011225D01*
X-94211323Y74984327D01*
X-94190204Y74978272D01*
X-94184887Y74976747D01*
X-94169579Y74971266D01*
X-94144348Y74960347D01*
X-94106595Y74952460D01*
X-94087520Y74948475D01*
X-94078556Y74946257D01*
X-94022737Y74930251D01*
X-94016377Y74929762D01*
X-94016373Y74929761D01*
X-93997706Y74928325D01*
X-93995323Y74928142D01*
X-93979222Y74925850D01*
X-93952308Y74920227D01*
X-93945877Y74919890D01*
X-93892925Y74919890D01*
X-93883259Y74919519D01*
X-93833488Y74915689D01*
X-93833484Y74915689D01*
X-93827128Y74915200D01*
X-93797872Y74918896D01*
X-93782079Y74919890D01*
X-93224509Y74919890D01*
X-93156388Y74899888D01*
X-93109895Y74846232D01*
X-93099791Y74775958D01*
X-93129285Y74711378D01*
X-93177206Y74677106D01*
X-93241660Y74650999D01*
X-93411973Y74582015D01*
X-93644722Y74445735D01*
X-93765812Y74348897D01*
X-93850522Y74281152D01*
X-93855359Y74277284D01*
X-94039474Y74080191D01*
X-94193208Y73858584D01*
X-94195239Y73854501D01*
X-94195241Y73854498D01*
X-94205412Y73834053D01*
X-94313341Y73617106D01*
X-94314762Y73612772D01*
X-94314763Y73612769D01*
X-94392863Y73374525D01*
X-94397358Y73360814D01*
X-94398138Y73356323D01*
X-94398138Y73356322D01*
X-94441166Y73108503D01*
X-94443497Y73095079D01*
X-94447740Y73009851D01*
X-94447740Y72241488D01*
X-94447575Y72239220D01*
X-94447575Y72239208D01*
X-94440791Y72145716D01*
X-94433193Y72040996D01*
X-94432209Y72036541D01*
X-94432209Y72036538D01*
X-94390882Y71849357D01*
X-94375046Y71777628D01*
X-94346626Y71702614D01*
X-94303202Y71588000D01*
X-94279490Y71525412D01*
X-94148526Y71289632D01*
X-94145754Y71286000D01*
X-94031632Y71136465D01*
X-93984897Y71075227D01*
X-93981631Y71072034D01*
X-93981629Y71072032D01*
X-93970030Y71060693D01*
X-93792032Y70886688D01*
X-93573970Y70727966D01*
X-93497100Y70687523D01*
X-93339319Y70604510D01*
X-93339313Y70604507D01*
X-93335279Y70602385D01*
X-93330974Y70600865D01*
X-93330970Y70600863D01*
X-93129802Y70529823D01*
X-93080960Y70512575D01*
X-92953208Y70487395D01*
X-92820812Y70461300D01*
X-92820806Y70461299D01*
X-92816340Y70460419D01*
X-92811787Y70460192D01*
X-92811784Y70460192D01*
X-92551532Y70447236D01*
X-92551526Y70447236D01*
X-92546963Y70447009D01*
X-92278471Y70472625D01*
X-92274037Y70473710D01*
X-92274031Y70473711D01*
X-92020928Y70535645D01*
X-92016490Y70536731D01*
X-91766507Y70637985D01*
X-91533758Y70774265D01*
X-91354243Y70917827D01*
X-91326687Y70939864D01*
X-91326685Y70939865D01*
X-91323121Y70942716D01*
X-91139006Y71139809D01*
X-90985272Y71361416D01*
X-90865139Y71602894D01*
X-90861851Y71612923D01*
X-90782542Y71854853D01*
X-90782541Y71854859D01*
X-90781122Y71859186D01*
X-90775056Y71894125D01*
X-90735639Y72121140D01*
X-90735638Y72121148D01*
X-90734983Y72124921D01*
X-90730740Y72210149D01*
X-90730740Y72978512D01*
X-90733608Y73018050D01*
X-90741441Y73126000D01*
X-90745287Y73179004D01*
X-90761403Y73252000D01*
X-90802449Y73437912D01*
X-90802450Y73437916D01*
X-90803434Y73442372D01*
X-90851212Y73568480D01*
X-90897372Y73690318D01*
X-90897373Y73690321D01*
X-90898990Y73694588D01*
X-91023855Y73919388D01*
X-91039447Y73988651D01*
X-91015117Y74055349D01*
X-90958590Y74098305D01*
X-90887812Y74103881D01*
X-90824611Y74069665D01*
X-90284645Y73529699D01*
X-90250619Y73467387D01*
X-90247740Y73440604D01*
X-90247740Y71159600D01*
X-90247403Y71156354D01*
X-90247403Y71156350D01*
X-90237676Y71062607D01*
X-90236766Y71053835D01*
X-90234585Y71047299D01*
X-90234585Y71047297D01*
X-90192308Y70920580D01*
X-90180790Y70886055D01*
X-90179926Y70884659D01*
X-90169497Y70816794D01*
X-90198362Y70751930D01*
X-90257714Y70712970D01*
X-90264847Y70711044D01*
X-90271964Y70710214D01*
X-90278844Y70707717D01*
X-90278847Y70707716D01*
X-90338614Y70686021D01*
X-90342714Y70684613D01*
X-90410170Y70662761D01*
X-90416429Y70658963D01*
X-90421580Y70656605D01*
X-90426653Y70654064D01*
X-90433530Y70651568D01*
X-90439650Y70647555D01*
X-90439651Y70647555D01*
X-90492802Y70612708D01*
X-90496521Y70610361D01*
X-90502722Y70606598D01*
X-90557112Y70573593D01*
X-90561311Y70569884D01*
X-90561316Y70569881D01*
X-90565258Y70566399D01*
X-90565275Y70566418D01*
X-90568552Y70563511D01*
X-90571144Y70561344D01*
X-90577271Y70557327D01*
X-90582306Y70552011D01*
X-90582307Y70552011D01*
X-90628994Y70502727D01*
X-90631372Y70500285D01*
X-91913295Y69218362D01*
X-91975607Y69184336D01*
X-92044347Y69188648D01*
X-92093220Y69205907D01*
X-92093226Y69205909D01*
X-92097520Y69207425D01*
X-92233234Y69234174D01*
X-92357668Y69258700D01*
X-92357674Y69258701D01*
X-92362140Y69259581D01*
X-92366693Y69259808D01*
X-92366696Y69259808D01*
X-92626948Y69272764D01*
X-92626954Y69272764D01*
X-92631517Y69272991D01*
X-92900009Y69247375D01*
X-92904443Y69246290D01*
X-92904449Y69246289D01*
X-93088667Y69201211D01*
X-93161990Y69183269D01*
X-93411973Y69082015D01*
X-93524431Y69016168D01*
X-93625911Y68956749D01*
X-93644722Y68945735D01*
X-93855359Y68777284D01*
X-94039474Y68580191D01*
X-94193208Y68358584D01*
X-94313341Y68117106D01*
X-94314762Y68112772D01*
X-94314763Y68112769D01*
X-94369224Y67946635D01*
X-94397358Y67860814D01*
X-94398138Y67856323D01*
X-94398138Y67856322D01*
X-94435651Y67640267D01*
X-94443497Y67595079D01*
X-94447740Y67509851D01*
X-94447740Y66741488D01*
X-94447576Y66739223D01*
X-94447575Y66739208D01*
X-94445352Y66708578D01*
X-94433193Y66540996D01*
X-94432209Y66536541D01*
X-94432209Y66536538D01*
X-94376062Y66282231D01*
X-94375046Y66277628D01*
X-94373428Y66273358D01*
X-94281493Y66030700D01*
X-94279490Y66025412D01*
X-94231375Y65938789D01*
X-94156794Y65804518D01*
X-94148526Y65789632D01*
X-94124898Y65758672D01*
X-93988411Y65579832D01*
X-93984897Y65575227D01*
X-93981631Y65572034D01*
X-93981629Y65572032D01*
X-93902483Y65494662D01*
X-93792032Y65386688D01*
X-93573970Y65227966D01*
X-93477955Y65177450D01*
X-93339319Y65104510D01*
X-93339313Y65104507D01*
X-93335279Y65102385D01*
X-93330974Y65100865D01*
X-93330970Y65100863D01*
X-93085273Y65014098D01*
X-93080960Y65012575D01*
X-92953208Y64987395D01*
X-92820812Y64961300D01*
X-92820806Y64961299D01*
X-92816340Y64960419D01*
X-92811787Y64960192D01*
X-92811784Y64960192D01*
X-92551532Y64947236D01*
X-92551526Y64947236D01*
X-92546963Y64947009D01*
X-92278471Y64972625D01*
X-92274037Y64973710D01*
X-92274031Y64973711D01*
X-92020928Y65035645D01*
X-92016490Y65036731D01*
X-92012263Y65038443D01*
X-92012254Y65038446D01*
X-91767818Y65137453D01*
X-91697171Y65144487D01*
X-91631421Y65109764D01*
X-91584635Y65062978D01*
X-91550609Y65000666D01*
X-91547730Y64973883D01*
X-91547730Y59060827D01*
X-91567732Y58992706D01*
X-91621388Y58946213D01*
X-91691662Y58936109D01*
X-91732398Y58949319D01*
X-91839156Y59005487D01*
X-91839158Y59005488D01*
X-91843201Y59007615D01*
X-91847506Y59009135D01*
X-91847510Y59009137D01*
X-92093207Y59095902D01*
X-92093208Y59095902D01*
X-92097520Y59097425D01*
X-92230550Y59123645D01*
X-92357668Y59148700D01*
X-92357674Y59148701D01*
X-92362140Y59149581D01*
X-92366693Y59149808D01*
X-92366696Y59149808D01*
X-92626948Y59162764D01*
X-92626954Y59162764D01*
X-92631517Y59162991D01*
X-92900009Y59137375D01*
X-92904443Y59136290D01*
X-92904449Y59136289D01*
X-93104973Y59087221D01*
X-93161990Y59073269D01*
X-93411973Y58972015D01*
X-93644722Y58835735D01*
X-93648289Y58832882D01*
X-93840676Y58679026D01*
X-93855359Y58667284D01*
X-94039474Y58470191D01*
X-94193208Y58248584D01*
X-94313341Y58007106D01*
X-94314762Y58002772D01*
X-94314763Y58002769D01*
X-94395906Y57755243D01*
X-94397358Y57750814D01*
X-94398138Y57746323D01*
X-94398138Y57746322D01*
X-94429766Y57564160D01*
X-94443497Y57485079D01*
X-94443688Y57481242D01*
X-94447527Y57404120D01*
X-94447740Y57399851D01*
X-94447740Y56631488D01*
X-94447575Y56629220D01*
X-94447575Y56629208D01*
X-94439282Y56514921D01*
X-94433193Y56430996D01*
X-94432209Y56426541D01*
X-94432209Y56426538D01*
X-94377647Y56179410D01*
X-94375046Y56167628D01*
X-94373428Y56163358D01*
X-94292582Y55949969D01*
X-94279490Y55915412D01*
X-94233936Y55833400D01*
X-94152672Y55687097D01*
X-94148526Y55679632D01*
X-94145754Y55676000D01*
X-94031632Y55526465D01*
X-93984897Y55465227D01*
X-93792032Y55276688D01*
X-93573970Y55117966D01*
X-93508552Y55083548D01*
X-93339319Y54994510D01*
X-93339313Y54994507D01*
X-93335279Y54992385D01*
X-93330974Y54990865D01*
X-93330970Y54990863D01*
X-93095997Y54907885D01*
X-93080960Y54902575D01*
X-92994571Y54885548D01*
X-92820812Y54851300D01*
X-92820806Y54851299D01*
X-92816340Y54850419D01*
X-92811787Y54850192D01*
X-92811784Y54850192D01*
X-92551532Y54837236D01*
X-92551526Y54837236D01*
X-92546963Y54837009D01*
X-92278471Y54862625D01*
X-92274037Y54863710D01*
X-92274031Y54863711D01*
X-92020928Y54925645D01*
X-92016490Y54926731D01*
X-91766507Y55027985D01*
X-91737394Y55045032D01*
X-91668504Y55062191D01*
X-91601272Y55039381D01*
X-91557044Y54983843D01*
X-91547730Y54936299D01*
X-91547730Y53636117D01*
X-91567732Y53567996D01*
X-91584635Y53547022D01*
X-91633969Y53497688D01*
X-91696281Y53463662D01*
X-91767096Y53468727D01*
X-91781732Y53475275D01*
X-91839156Y53505487D01*
X-91839158Y53505488D01*
X-91843201Y53507615D01*
X-91847506Y53509135D01*
X-91847510Y53509137D01*
X-92093207Y53595902D01*
X-92093208Y53595902D01*
X-92097520Y53597425D01*
X-92233234Y53624174D01*
X-92357668Y53648700D01*
X-92357674Y53648701D01*
X-92362140Y53649581D01*
X-92366693Y53649808D01*
X-92366696Y53649808D01*
X-92626948Y53662764D01*
X-92626954Y53662764D01*
X-92631517Y53662991D01*
X-92900009Y53637375D01*
X-92904443Y53636290D01*
X-92904449Y53636289D01*
X-93122603Y53582907D01*
X-93161990Y53573269D01*
X-93411973Y53472015D01*
X-93644722Y53335735D01*
X-93855359Y53167284D01*
X-94039474Y52970191D01*
X-94193208Y52748584D01*
X-94195239Y52744501D01*
X-94195241Y52744498D01*
X-94247910Y52638629D01*
X-94313341Y52507106D01*
X-94314762Y52502772D01*
X-94314763Y52502769D01*
X-94394516Y52259482D01*
X-94397358Y52250814D01*
X-94398138Y52246323D01*
X-94398138Y52246322D01*
X-94435651Y52030267D01*
X-94443497Y51985079D01*
X-94443688Y51981242D01*
X-94446729Y51920151D01*
X-94447740Y51899851D01*
X-94447740Y51131488D01*
X-94447576Y51129223D01*
X-94447575Y51129208D01*
X-94445352Y51098578D01*
X-94433193Y50930996D01*
X-94432209Y50926541D01*
X-94432209Y50926538D01*
X-94376062Y50672231D01*
X-94375046Y50667628D01*
X-94343079Y50583252D01*
X-94281493Y50420700D01*
X-94279490Y50415412D01*
X-94232619Y50331028D01*
X-94151285Y50184600D01*
X-94148526Y50179632D01*
X-94145754Y50176000D01*
X-94029505Y50023678D01*
X-93984897Y49965227D01*
X-93981631Y49962034D01*
X-93981629Y49962032D01*
X-93975339Y49955883D01*
X-93792032Y49776688D01*
X-93573970Y49617966D01*
X-93514233Y49586537D01*
X-93339319Y49494510D01*
X-93339313Y49494507D01*
X-93335279Y49492385D01*
X-93330974Y49490865D01*
X-93330970Y49490863D01*
X-93085273Y49404098D01*
X-93080960Y49402575D01*
X-92953208Y49377395D01*
X-92820812Y49351300D01*
X-92820806Y49351299D01*
X-92816340Y49350419D01*
X-92811787Y49350192D01*
X-92811784Y49350192D01*
X-92551532Y49337236D01*
X-92551526Y49337236D01*
X-92546963Y49337009D01*
X-92278471Y49362625D01*
X-92274037Y49363710D01*
X-92274031Y49363711D01*
X-92020928Y49425645D01*
X-92016490Y49426731D01*
X-91766507Y49527985D01*
X-91563666Y49646753D01*
X-91537703Y49661955D01*
X-91537702Y49661956D01*
X-91533758Y49664265D01*
X-91330176Y49827074D01*
X-91326687Y49829864D01*
X-91326685Y49829865D01*
X-91323121Y49832716D01*
X-91139006Y50029809D01*
X-90985272Y50251416D01*
X-90953245Y50315792D01*
X-90867173Y50488806D01*
X-90865139Y50492894D01*
X-90863717Y50497231D01*
X-90782542Y50744853D01*
X-90782541Y50744859D01*
X-90781122Y50749186D01*
X-90768869Y50819757D01*
X-90735639Y51011140D01*
X-90735638Y51011148D01*
X-90734983Y51014921D01*
X-90730740Y51100149D01*
X-90730740Y51868512D01*
X-90731214Y51875054D01*
X-90744467Y52057699D01*
X-90745287Y52069004D01*
X-90772454Y52192053D01*
X-90767609Y52262883D01*
X-90738512Y52308311D01*
X-90335699Y52711124D01*
X-90321286Y52723511D01*
X-90310406Y52731517D01*
X-90310402Y52731521D01*
X-90304507Y52735859D01*
X-90271352Y52774885D01*
X-90264422Y52782401D01*
X-90258987Y52787836D01*
X-90241883Y52809455D01*
X-90239102Y52812846D01*
X-90237836Y52814336D01*
X-90178485Y52853297D01*
X-90107680Y52853984D01*
X-90138206Y52905386D01*
X-90135700Y52976339D01*
X-90128348Y52993897D01*
X-90118386Y53013406D01*
X-90118385Y53013408D01*
X-90115056Y53019928D01*
X-90113315Y53027040D01*
X-90111339Y53032355D01*
X-90109551Y53037731D01*
X-90106452Y53044361D01*
X-90104962Y53051523D01*
X-90104961Y53051527D01*
X-90092021Y53113745D01*
X-90091050Y53118037D01*
X-90075537Y53181431D01*
X-90075537Y53181432D01*
X-90074203Y53186883D01*
X-90073530Y53197730D01*
X-90073506Y53197728D01*
X-90073243Y53202088D01*
X-90072941Y53205478D01*
X-90071451Y53212639D01*
X-90073484Y53287775D01*
X-90073530Y53291183D01*
X-90073530Y54843426D01*
X-90053528Y54911547D01*
X-89999872Y54958040D01*
X-89929598Y54968144D01*
X-89881414Y54950686D01*
X-89819179Y54912324D01*
X-89811978Y54907885D01*
X-89744634Y54885548D01*
X-89650629Y54854368D01*
X-89650627Y54854368D01*
X-89644101Y54852203D01*
X-89637265Y54851503D01*
X-89637262Y54851502D01*
X-89594209Y54847091D01*
X-89539640Y54841500D01*
X-87942346Y54841500D01*
X-87874225Y54821498D01*
X-87827732Y54767842D01*
X-87817628Y54697568D01*
X-87847122Y54632988D01*
X-87853249Y54626408D01*
X-88863456Y53616201D01*
X-88922602Y53582907D01*
X-88961990Y53573269D01*
X-89211973Y53472015D01*
X-89444722Y53335735D01*
X-89655359Y53167284D01*
X-89839474Y52970191D01*
X-89842076Y52966440D01*
X-89842085Y52966429D01*
X-89912605Y52864775D01*
X-89967868Y52820205D01*
X-90038455Y52812588D01*
X-90054189Y52820456D01*
X-90047396Y52816183D01*
X-90017278Y52751891D01*
X-90029005Y52676629D01*
X-90047358Y52639738D01*
X-90113341Y52507106D01*
X-90114762Y52502772D01*
X-90114763Y52502769D01*
X-90194516Y52259482D01*
X-90197358Y52250814D01*
X-90198138Y52246323D01*
X-90198138Y52246322D01*
X-90235651Y52030267D01*
X-90243497Y51985079D01*
X-90243688Y51981242D01*
X-90246729Y51920151D01*
X-90247740Y51899851D01*
X-90247740Y51131488D01*
X-90247576Y51129223D01*
X-90247575Y51129208D01*
X-90245352Y51098578D01*
X-90233193Y50930996D01*
X-90232209Y50926541D01*
X-90232209Y50926538D01*
X-90176062Y50672231D01*
X-90175046Y50667628D01*
X-90143079Y50583252D01*
X-90081493Y50420700D01*
X-90079490Y50415412D01*
X-90032619Y50331028D01*
X-89951285Y50184600D01*
X-89948526Y50179632D01*
X-89945754Y50176000D01*
X-89829505Y50023678D01*
X-89784897Y49965227D01*
X-89781631Y49962034D01*
X-89781629Y49962032D01*
X-89775339Y49955883D01*
X-89592032Y49776688D01*
X-89373970Y49617966D01*
X-89314233Y49586537D01*
X-89139319Y49494510D01*
X-89139313Y49494507D01*
X-89135279Y49492385D01*
X-89130974Y49490865D01*
X-89130970Y49490863D01*
X-88885273Y49404098D01*
X-88880960Y49402575D01*
X-88753208Y49377395D01*
X-88620812Y49351300D01*
X-88620806Y49351299D01*
X-88616340Y49350419D01*
X-88611787Y49350192D01*
X-88611784Y49350192D01*
X-88351532Y49337236D01*
X-88351526Y49337236D01*
X-88346963Y49337009D01*
X-88078471Y49362625D01*
X-88074037Y49363710D01*
X-88074031Y49363711D01*
X-87820928Y49425645D01*
X-87816490Y49426731D01*
X-87566507Y49527985D01*
X-87362004Y49647726D01*
X-87293114Y49664886D01*
X-87225881Y49642075D01*
X-87181654Y49586537D01*
X-87172340Y49538994D01*
X-87172340Y48501507D01*
X-87192342Y48433386D01*
X-87209245Y48412411D01*
X-87465653Y48156004D01*
X-87527965Y48121979D01*
X-87554748Y48119100D01*
X-92083492Y48119100D01*
X-92091294Y48119342D01*
X-92150772Y48123032D01*
X-92157987Y48121792D01*
X-92157992Y48121792D01*
X-92212452Y48112434D01*
X-92219197Y48111462D01*
X-92250593Y48107801D01*
X-92281363Y48104214D01*
X-92288244Y48101716D01*
X-92288250Y48101715D01*
X-92289740Y48101174D01*
X-92311390Y48095433D01*
X-92312958Y48095164D01*
X-92312963Y48095163D01*
X-92320170Y48093924D01*
X-92326904Y48091059D01*
X-92326906Y48091058D01*
X-92377748Y48069424D01*
X-92384091Y48066925D01*
X-92442929Y48045568D01*
X-92450380Y48040683D01*
X-92470133Y48030114D01*
X-92478328Y48026627D01*
X-92484221Y48022291D01*
X-92484225Y48022288D01*
X-92528747Y47989524D01*
X-92534343Y47985634D01*
X-92586670Y47951327D01*
X-92591705Y47946012D01*
X-92592795Y47944862D01*
X-92609589Y47930030D01*
X-92616762Y47924751D01*
X-92657296Y47877040D01*
X-92661848Y47871968D01*
X-92699842Y47831861D01*
X-92699845Y47831857D01*
X-92704876Y47826546D01*
X-92708550Y47820220D01*
X-92708554Y47820215D01*
X-92709350Y47818844D01*
X-92722281Y47800547D01*
X-92728047Y47793760D01*
X-92731376Y47787240D01*
X-92731379Y47787236D01*
X-92756507Y47738025D01*
X-92759771Y47732039D01*
X-92787527Y47684255D01*
X-92787531Y47684246D01*
X-92791206Y47677919D01*
X-92793328Y47670913D01*
X-92793788Y47669394D01*
X-92802160Y47648620D01*
X-92806213Y47640682D01*
X-92807953Y47633570D01*
X-92807954Y47633568D01*
X-92821086Y47579901D01*
X-92822884Y47573328D01*
X-92838907Y47520423D01*
X-92838908Y47520418D01*
X-92841028Y47513418D01*
X-92841481Y47506113D01*
X-92841580Y47504521D01*
X-92844948Y47482384D01*
X-92847066Y47473727D01*
X-92847739Y47462880D01*
X-92847739Y47409147D01*
X-92847981Y47401346D01*
X-92851671Y47341867D01*
X-92850431Y47334651D01*
X-92850431Y47334649D01*
X-92849559Y47329576D01*
X-92847739Y47308238D01*
X-92847739Y46484000D01*
X-92867741Y46415879D01*
X-92921397Y46369386D01*
X-92973739Y46358000D01*
X-93117125Y46358000D01*
X-93132364Y46353525D01*
X-93133569Y46352135D01*
X-93135240Y46344452D01*
X-93135240Y44872000D01*
X-93155242Y44803879D01*
X-93208898Y44757386D01*
X-93261240Y44746000D01*
X-94729124Y44746000D01*
X-94744363Y44741525D01*
X-94745568Y44740135D01*
X-94747239Y44732452D01*
X-94747239Y44105331D01*
X-94746869Y44098510D01*
X-94741345Y44047648D01*
X-94737719Y44032396D01*
X-94692564Y43911946D01*
X-94684026Y43896351D01*
X-94607525Y43794276D01*
X-94594964Y43781715D01*
X-94492889Y43705214D01*
X-94477294Y43696676D01*
X-94368413Y43655858D01*
X-94311649Y43613216D01*
X-94286949Y43546655D01*
X-94302157Y43477306D01*
X-94321549Y43450825D01*
X-94434416Y43332716D01*
X-94448611Y43317862D01*
X-94451525Y43313590D01*
X-94451526Y43313589D01*
X-94517345Y43217102D01*
X-94574497Y43133320D01*
X-94597704Y43083325D01*
X-94659895Y42949344D01*
X-94668552Y42930695D01*
X-94728251Y42715430D01*
X-94751989Y42493305D01*
X-94751692Y42488152D01*
X-94751692Y42488149D01*
X-94746229Y42393410D01*
X-94739130Y42270285D01*
X-94737993Y42265239D01*
X-94737992Y42265233D01*
X-94720463Y42187454D01*
X-94690018Y42052361D01*
X-94605974Y41845384D01*
X-94588969Y41817635D01*
X-94493937Y41662556D01*
X-94489253Y41654912D01*
X-94342990Y41486062D01*
X-94171114Y41343368D01*
X-94153169Y41332882D01*
X-94097795Y41300524D01*
X-94049071Y41248886D01*
X-94036000Y41179103D01*
X-94062731Y41113331D01*
X-94103185Y41079973D01*
X-94115633Y41073493D01*
X-94119766Y41070390D01*
X-94119769Y41070388D01*
X-94290140Y40942470D01*
X-94294275Y40939365D01*
X-94297847Y40935627D01*
X-94444273Y40782401D01*
X-94448611Y40777862D01*
X-94451525Y40773590D01*
X-94451526Y40773589D01*
X-94480469Y40731160D01*
X-94574497Y40593320D01*
X-94668552Y40390695D01*
X-94728251Y40175430D01*
X-94751989Y39953305D01*
X-94751692Y39948152D01*
X-94751692Y39948149D01*
X-94743212Y39801083D01*
X-94739130Y39730285D01*
X-94737993Y39725239D01*
X-94737992Y39725233D01*
X-94734342Y39709039D01*
X-94690018Y39512361D01*
X-94605974Y39305384D01*
X-94581280Y39265087D01*
X-94510154Y39149020D01*
X-94489253Y39114912D01*
X-94342990Y38946062D01*
X-94171114Y38803368D01*
X-93978240Y38690662D01*
X-93973415Y38688820D01*
X-93973414Y38688819D01*
X-93929600Y38672088D01*
X-93769548Y38610970D01*
X-93764480Y38609939D01*
X-93764477Y38609938D01*
X-93681022Y38592959D01*
X-93550643Y38566433D01*
X-93545468Y38566243D01*
X-93545466Y38566243D01*
X-93332567Y38558436D01*
X-93332563Y38558436D01*
X-93327403Y38558247D01*
X-93322283Y38558903D01*
X-93322281Y38558903D01*
X-93110952Y38585975D01*
X-93110951Y38585975D01*
X-93105824Y38586632D01*
X-93100874Y38588117D01*
X-92896811Y38649339D01*
X-92896806Y38649341D01*
X-92891856Y38650826D01*
X-92691246Y38749104D01*
X-92509380Y38878827D01*
X-92495814Y38892345D01*
X-92354805Y39032863D01*
X-92351144Y39036511D01*
X-92306544Y39098578D01*
X-92223805Y39213723D01*
X-92220787Y39217923D01*
X-92215498Y39228623D01*
X-92124104Y39413547D01*
X-92124103Y39413549D01*
X-92121810Y39418189D01*
X-92056870Y39631931D01*
X-92027711Y39853410D01*
X-92026756Y39892498D01*
X-92026166Y39916635D01*
X-92026166Y39916639D01*
X-92026084Y39920000D01*
X-92044388Y40142639D01*
X-92045493Y40147036D01*
X-92036905Y40217325D01*
X-92010301Y40256522D01*
X-91635708Y40631115D01*
X-91621295Y40643502D01*
X-91610415Y40651508D01*
X-91610411Y40651512D01*
X-91604516Y40655850D01*
X-91577706Y40687408D01*
X-91571361Y40694876D01*
X-91564431Y40702392D01*
X-91558996Y40707827D01*
X-91541890Y40729449D01*
X-91539130Y40732815D01*
X-91536544Y40735859D01*
X-91493231Y40786841D01*
X-91489901Y40793363D01*
X-91486747Y40798092D01*
X-91483779Y40802896D01*
X-91479236Y40808639D01*
X-91473830Y40820205D01*
X-91449217Y40872870D01*
X-91447284Y40876823D01*
X-91418394Y40933399D01*
X-91418393Y40933401D01*
X-91415065Y40939919D01*
X-91413325Y40947028D01*
X-91411349Y40952342D01*
X-91409558Y40957725D01*
X-91406461Y40964352D01*
X-91404550Y40973535D01*
X-91392021Y41033772D01*
X-91391050Y41038059D01*
X-91376277Y41098436D01*
X-91374212Y41106874D01*
X-91373539Y41117721D01*
X-91373514Y41117719D01*
X-91373253Y41122066D01*
X-91372950Y41125464D01*
X-91371459Y41132631D01*
X-91373493Y41207804D01*
X-91373539Y41211212D01*
X-91373539Y46518900D01*
X-91353537Y46587021D01*
X-91299881Y46633514D01*
X-91247539Y46644900D01*
X-87262685Y46644900D01*
X-87243735Y46643467D01*
X-87230374Y46641434D01*
X-87230370Y46641434D01*
X-87223140Y46640334D01*
X-87215848Y46640927D01*
X-87215844Y46640927D01*
X-87172103Y46644485D01*
X-87161889Y46644900D01*
X-87154199Y46644900D01*
X-87150565Y46645324D01*
X-87150559Y46645324D01*
X-87137972Y46646792D01*
X-87126829Y46648091D01*
X-87122476Y46648521D01*
X-87105624Y46649892D01*
X-87059124Y46653674D01*
X-87059121Y46653675D01*
X-87051825Y46654268D01*
X-87044863Y46656524D01*
X-87039305Y46657634D01*
X-87033788Y46658938D01*
X-87026516Y46659786D01*
X-87019632Y46662285D01*
X-87019627Y46662286D01*
X-86959878Y46683974D01*
X-86955717Y46685403D01*
X-86888311Y46707239D01*
X-86882055Y46711035D01*
X-86876917Y46713387D01*
X-86871832Y46715934D01*
X-86864950Y46718432D01*
X-86805655Y46757307D01*
X-86801973Y46759630D01*
X-86746158Y46793500D01*
X-86746156Y46793502D01*
X-86741368Y46796407D01*
X-86733222Y46803601D01*
X-86733205Y46803582D01*
X-86729929Y46806488D01*
X-86727336Y46808656D01*
X-86721209Y46812673D01*
X-86719904Y46814051D01*
X-86656859Y46841509D01*
X-86586774Y46830168D01*
X-86533946Y46782736D01*
X-86515129Y46716495D01*
X-86515129Y46341770D01*
X-86535131Y46273649D01*
X-86565564Y46240944D01*
X-86602501Y46213261D01*
X-86689855Y46096705D01*
X-86740985Y45960316D01*
X-86747740Y45898134D01*
X-86747740Y44101866D01*
X-86740985Y44039684D01*
X-86689855Y43903295D01*
X-86602501Y43786739D01*
X-86485945Y43699385D01*
X-86477536Y43696233D01*
X-86477535Y43696232D01*
X-86368789Y43655465D01*
X-86312024Y43612824D01*
X-86287324Y43546262D01*
X-86302531Y43476913D01*
X-86321924Y43450432D01*
X-86431223Y43336057D01*
X-86448611Y43317862D01*
X-86451525Y43313590D01*
X-86451526Y43313589D01*
X-86517345Y43217102D01*
X-86574497Y43133320D01*
X-86597704Y43083325D01*
X-86659895Y42949344D01*
X-86668552Y42930695D01*
X-86728251Y42715430D01*
X-86751989Y42493305D01*
X-86751692Y42488152D01*
X-86751692Y42488149D01*
X-86746229Y42393410D01*
X-86739130Y42270285D01*
X-86737993Y42265239D01*
X-86737992Y42265233D01*
X-86720463Y42187454D01*
X-86690018Y42052361D01*
X-86605974Y41845384D01*
X-86588969Y41817635D01*
X-86493937Y41662556D01*
X-86489253Y41654912D01*
X-86342990Y41486062D01*
X-86171114Y41343368D01*
X-85978240Y41230662D01*
X-85973415Y41228820D01*
X-85973414Y41228819D01*
X-85931043Y41212639D01*
X-85769548Y41150970D01*
X-85764480Y41149939D01*
X-85764477Y41149938D01*
X-85658471Y41128371D01*
X-85550643Y41106433D01*
X-85545468Y41106243D01*
X-85545466Y41106243D01*
X-85332567Y41098436D01*
X-85332563Y41098436D01*
X-85327403Y41098247D01*
X-85322283Y41098903D01*
X-85322281Y41098903D01*
X-85110952Y41125975D01*
X-85110951Y41125975D01*
X-85105824Y41126632D01*
X-85100874Y41128117D01*
X-84896811Y41189339D01*
X-84896806Y41189341D01*
X-84891856Y41190826D01*
X-84691246Y41289104D01*
X-84509380Y41418827D01*
X-84496099Y41432061D01*
X-84359689Y41567996D01*
X-84351144Y41576511D01*
X-84326478Y41610837D01*
X-84270482Y41654484D01*
X-84199779Y41660928D01*
X-84135061Y41626404D01*
X-83402751Y40894094D01*
X-83368725Y40831782D01*
X-83373790Y40760967D01*
X-83416337Y40704131D01*
X-83482857Y40679320D01*
X-83491846Y40678999D01*
X-83757335Y40678999D01*
X-83763854Y40678662D01*
X-83859446Y40668743D01*
X-83872840Y40665851D01*
X-84027024Y40614412D01*
X-84040202Y40608239D01*
X-84178047Y40522937D01*
X-84189448Y40513901D01*
X-84303979Y40399171D01*
X-84312991Y40387760D01*
X-84398056Y40249757D01*
X-84404203Y40236576D01*
X-84455378Y40082290D01*
X-84458245Y40068914D01*
X-84467912Y39974562D01*
X-84468240Y39968145D01*
X-84468240Y39930615D01*
X-84463765Y39915376D01*
X-84462375Y39914171D01*
X-84454692Y39912500D01*
X-83132240Y39912500D01*
X-83064119Y39892498D01*
X-83017626Y39838842D01*
X-83006240Y39786500D01*
X-83006240Y39530500D01*
X-83026242Y39462379D01*
X-83079898Y39415886D01*
X-83132240Y39404500D01*
X-83833819Y39404500D01*
X-83877738Y39412402D01*
X-83884039Y39414745D01*
X-83890558Y39418074D01*
X-83897673Y39419815D01*
X-83902986Y39421791D01*
X-83908360Y39423579D01*
X-83914991Y39426678D01*
X-83922148Y39428167D01*
X-83922152Y39428168D01*
X-83984411Y39441118D01*
X-83988698Y39442089D01*
X-84019186Y39449549D01*
X-84057513Y39458927D01*
X-84063120Y39459275D01*
X-84063121Y39459275D01*
X-84068360Y39459600D01*
X-84068358Y39459625D01*
X-84072705Y39459886D01*
X-84076103Y39460189D01*
X-84083270Y39461680D01*
X-84149573Y39459886D01*
X-84158443Y39459646D01*
X-84161851Y39459600D01*
X-85294233Y39459600D01*
X-85362354Y39479602D01*
X-85383328Y39496505D01*
X-88013152Y42126329D01*
X-88047178Y42188641D01*
X-88048979Y42231871D01*
X-88044586Y42265233D01*
X-88027711Y42393410D01*
X-88026084Y42460000D01*
X-88044388Y42682639D01*
X-88098809Y42899298D01*
X-88187886Y43104160D01*
X-88295840Y43271032D01*
X-88306418Y43287383D01*
X-88306420Y43287386D01*
X-88309226Y43291723D01*
X-88312708Y43295550D01*
X-88456442Y43453512D01*
X-88487494Y43517358D01*
X-88479099Y43587857D01*
X-88433923Y43642625D01*
X-88407479Y43656294D01*
X-88300943Y43696233D01*
X-88292535Y43699385D01*
X-88175979Y43786739D01*
X-88088625Y43903295D01*
X-88037495Y44039684D01*
X-88030740Y44101866D01*
X-88030740Y45898134D01*
X-88037495Y45960316D01*
X-88088625Y46096705D01*
X-88175979Y46213261D01*
X-88292535Y46300615D01*
X-88428924Y46351745D01*
X-88491106Y46358500D01*
X-90287374Y46358500D01*
X-90349556Y46351745D01*
X-90485945Y46300615D01*
X-90602501Y46213261D01*
X-90689855Y46096705D01*
X-90740985Y45960316D01*
X-90747740Y45898134D01*
X-90747740Y44101866D01*
X-90740985Y44039684D01*
X-90689855Y43903295D01*
X-90602501Y43786739D01*
X-90485945Y43699385D01*
X-90477536Y43696233D01*
X-90477535Y43696232D01*
X-90368789Y43655465D01*
X-90312024Y43612824D01*
X-90287324Y43546262D01*
X-90302531Y43476913D01*
X-90321924Y43450432D01*
X-90431223Y43336057D01*
X-90448611Y43317862D01*
X-90451525Y43313590D01*
X-90451526Y43313589D01*
X-90517345Y43217102D01*
X-90574497Y43133320D01*
X-90597704Y43083325D01*
X-90659895Y42949344D01*
X-90668552Y42930695D01*
X-90728251Y42715430D01*
X-90751989Y42493305D01*
X-90751692Y42488152D01*
X-90751692Y42488149D01*
X-90746229Y42393410D01*
X-90739130Y42270285D01*
X-90737993Y42265239D01*
X-90737992Y42265233D01*
X-90720463Y42187454D01*
X-90690018Y42052361D01*
X-90605974Y41845384D01*
X-90588969Y41817635D01*
X-90493937Y41662556D01*
X-90489253Y41654912D01*
X-90342990Y41486062D01*
X-90171114Y41343368D01*
X-89978240Y41230662D01*
X-89973415Y41228820D01*
X-89973414Y41228819D01*
X-89931043Y41212639D01*
X-89769548Y41150970D01*
X-89764480Y41149939D01*
X-89764477Y41149938D01*
X-89658471Y41128371D01*
X-89550643Y41106433D01*
X-89545468Y41106243D01*
X-89545466Y41106243D01*
X-89332567Y41098436D01*
X-89332563Y41098436D01*
X-89327403Y41098247D01*
X-89322283Y41098903D01*
X-89322281Y41098903D01*
X-89160505Y41119627D01*
X-89090395Y41108442D01*
X-89055400Y41083743D01*
X-86219226Y38247569D01*
X-86206839Y38233156D01*
X-86198833Y38222276D01*
X-86198829Y38222272D01*
X-86194491Y38216377D01*
X-86188908Y38211634D01*
X-86155465Y38183222D01*
X-86147949Y38176292D01*
X-86142514Y38170857D01*
X-86139653Y38168594D01*
X-86139648Y38168589D01*
X-86120904Y38153760D01*
X-86117503Y38150971D01*
X-86063500Y38105092D01*
X-86056987Y38101766D01*
X-86052278Y38098625D01*
X-86047439Y38095636D01*
X-86041702Y38091098D01*
X-86035072Y38087999D01*
X-86035070Y38087998D01*
X-86000995Y38072072D01*
X-85977495Y38061089D01*
X-85973566Y38059169D01*
X-85910422Y38026926D01*
X-85903307Y38025185D01*
X-85897994Y38023209D01*
X-85892620Y38021421D01*
X-85885989Y38018322D01*
X-85878832Y38016833D01*
X-85878828Y38016832D01*
X-85816569Y38003882D01*
X-85812282Y38002911D01*
X-85781794Y37995451D01*
X-85743467Y37986073D01*
X-85737860Y37985725D01*
X-85737859Y37985725D01*
X-85732620Y37985400D01*
X-85732622Y37985374D01*
X-85728276Y37985114D01*
X-85724876Y37984811D01*
X-85717710Y37983320D01*
X-85710394Y37983518D01*
X-85642554Y37985354D01*
X-85639145Y37985400D01*
X-84594740Y37985400D01*
X-84526619Y37965398D01*
X-84480126Y37911742D01*
X-84468740Y37859400D01*
X-84468740Y37520600D01*
X-84468403Y37517354D01*
X-84468403Y37517350D01*
X-84459000Y37426731D01*
X-84457766Y37414834D01*
X-84455585Y37408298D01*
X-84455585Y37408296D01*
X-84429298Y37329504D01*
X-84401790Y37247054D01*
X-84308718Y37096652D01*
X-84183543Y36971695D01*
X-84177313Y36967855D01*
X-84177312Y36967854D01*
X-84040150Y36883306D01*
X-84032978Y36878885D01*
X-83976828Y36860261D01*
X-83871629Y36825368D01*
X-83871627Y36825368D01*
X-83865101Y36823203D01*
X-83858265Y36822503D01*
X-83858262Y36822502D01*
X-83815209Y36818091D01*
X-83760640Y36812500D01*
X-82759840Y36812500D01*
X-82756594Y36812837D01*
X-82756590Y36812837D01*
X-82660932Y36822762D01*
X-82660928Y36822763D01*
X-82654074Y36823474D01*
X-82647538Y36825655D01*
X-82647536Y36825655D01*
X-82515434Y36869728D01*
X-82486294Y36879450D01*
X-82335892Y36972522D01*
X-82281316Y37027193D01*
X-82219035Y37061272D01*
X-82148215Y37056269D01*
X-82103126Y37027348D01*
X-82029411Y36953761D01*
X-82018000Y36944749D01*
X-81879997Y36859684D01*
X-81866816Y36853537D01*
X-81712530Y36802362D01*
X-81699154Y36799495D01*
X-81604802Y36789828D01*
X-81598386Y36789500D01*
X-81373355Y36789500D01*
X-81358116Y36793975D01*
X-81356911Y36795365D01*
X-81355240Y36803048D01*
X-81355240Y36807616D01*
X-80847240Y36807616D01*
X-80842765Y36792377D01*
X-80841375Y36791172D01*
X-80833692Y36789501D01*
X-80604145Y36789501D01*
X-80597626Y36789838D01*
X-80502034Y36799757D01*
X-80488640Y36802649D01*
X-80334456Y36854088D01*
X-80321278Y36860261D01*
X-80183433Y36945563D01*
X-80172032Y36954599D01*
X-80057501Y37069329D01*
X-80048489Y37080740D01*
X-79963424Y37218743D01*
X-79957277Y37231924D01*
X-79906102Y37386210D01*
X-79903235Y37399586D01*
X-79893568Y37493938D01*
X-79893240Y37500354D01*
X-79893240Y37537885D01*
X-79897715Y37553124D01*
X-79899105Y37554329D01*
X-79906788Y37556000D01*
X-80829125Y37556000D01*
X-80844364Y37551525D01*
X-80845569Y37550135D01*
X-80847240Y37542452D01*
X-80847240Y36807616D01*
X-81355240Y36807616D01*
X-81355240Y37938000D01*
X-81335238Y38006121D01*
X-81281582Y38052614D01*
X-81229240Y38064000D01*
X-79911356Y38064000D01*
X-79896117Y38068475D01*
X-79894912Y38069865D01*
X-79893241Y38077548D01*
X-79893241Y38119595D01*
X-79893578Y38126114D01*
X-79903497Y38221706D01*
X-79906389Y38235100D01*
X-79957828Y38389284D01*
X-79964001Y38402462D01*
X-80049303Y38540307D01*
X-80058339Y38551708D01*
X-80139702Y38632930D01*
X-80173781Y38695213D01*
X-80168778Y38766033D01*
X-80139857Y38811120D01*
X-80057110Y38894012D01*
X-80057106Y38894017D01*
X-80051935Y38899197D01*
X-80023047Y38946062D01*
X-79962965Y39043532D01*
X-79962964Y39043534D01*
X-79959125Y39049762D01*
X-79903443Y39217639D01*
X-79902317Y39228623D01*
X-79894453Y39305384D01*
X-79892740Y39322100D01*
X-79892740Y39947900D01*
X-79893833Y39958438D01*
X-79903002Y40046808D01*
X-79903003Y40046812D01*
X-79903714Y40053666D01*
X-79909028Y40069596D01*
X-79957372Y40214498D01*
X-79959690Y40221446D01*
X-80052762Y40371848D01*
X-80177937Y40496805D01*
X-80201280Y40511194D01*
X-80322272Y40585775D01*
X-80322274Y40585776D01*
X-80328502Y40589615D01*
X-80453621Y40631115D01*
X-80489851Y40643132D01*
X-80489853Y40643132D01*
X-80496379Y40645297D01*
X-80503215Y40645997D01*
X-80503218Y40645998D01*
X-80546271Y40650409D01*
X-80600840Y40656000D01*
X-81027633Y40656000D01*
X-81095754Y40676002D01*
X-81116728Y40692905D01*
X-83358754Y42934931D01*
X-83371141Y42949344D01*
X-83379147Y42960224D01*
X-83379151Y42960228D01*
X-83383489Y42966123D01*
X-83422515Y42999278D01*
X-83430031Y43006208D01*
X-83435466Y43011643D01*
X-83457088Y43028749D01*
X-83460454Y43031509D01*
X-83508902Y43072669D01*
X-83514480Y43077408D01*
X-83521002Y43080738D01*
X-83525731Y43083892D01*
X-83530535Y43086860D01*
X-83536278Y43091403D01*
X-83542907Y43094501D01*
X-83542910Y43094503D01*
X-83600509Y43121422D01*
X-83604462Y43123355D01*
X-83661038Y43152245D01*
X-83661040Y43152246D01*
X-83667558Y43155574D01*
X-83674667Y43157314D01*
X-83679981Y43159290D01*
X-83685364Y43161081D01*
X-83691991Y43164178D01*
X-83699148Y43165667D01*
X-83699152Y43165668D01*
X-83761411Y43178618D01*
X-83765698Y43179589D01*
X-83796186Y43187049D01*
X-83834513Y43196427D01*
X-83840120Y43196775D01*
X-83840121Y43196775D01*
X-83845360Y43197100D01*
X-83845358Y43197125D01*
X-83849705Y43197386D01*
X-83853103Y43197689D01*
X-83860270Y43199180D01*
X-83926573Y43197386D01*
X-83935443Y43197146D01*
X-83938851Y43197100D01*
X-84179457Y43197100D01*
X-84247578Y43217102D01*
X-84285249Y43254660D01*
X-84306418Y43287383D01*
X-84306420Y43287386D01*
X-84309226Y43291723D01*
X-84312708Y43295550D01*
X-84456442Y43453512D01*
X-84487494Y43517358D01*
X-84479099Y43587857D01*
X-84433923Y43642625D01*
X-84407479Y43656294D01*
X-84300943Y43696233D01*
X-84292535Y43699385D01*
X-84175979Y43786739D01*
X-84088625Y43903295D01*
X-84037495Y44039684D01*
X-84030740Y44101866D01*
X-84030740Y45898134D01*
X-84037495Y45960316D01*
X-84088625Y46096705D01*
X-84175979Y46213261D01*
X-84292535Y46300615D01*
X-84428924Y46351745D01*
X-84491106Y46358500D01*
X-84914929Y46358500D01*
X-84983050Y46378502D01*
X-85029543Y46432158D01*
X-85040929Y46484500D01*
X-85040929Y50208938D01*
X-85020927Y50277059D01*
X-84967271Y50323552D01*
X-84896997Y50333656D01*
X-84848160Y50315792D01*
X-84638207Y50184600D01*
X-84638203Y50184598D01*
X-84634476Y50182269D01*
X-84377865Y50068018D01*
X-84373637Y50066806D01*
X-84373638Y50066806D01*
X-84118270Y49993581D01*
X-84107850Y49990593D01*
X-84103500Y49989982D01*
X-84103497Y49989981D01*
X-84000550Y49975513D01*
X-83829688Y49951500D01*
X-83619094Y49951500D01*
X-83616908Y49951653D01*
X-83616904Y49951653D01*
X-83413413Y49965882D01*
X-83413408Y49965883D01*
X-83409028Y49966189D01*
X-83134270Y50024591D01*
X-83130141Y50026094D01*
X-83130137Y50026095D01*
X-82874459Y50119154D01*
X-82874455Y50119156D01*
X-82870314Y50120663D01*
X-82622298Y50252536D01*
X-82618737Y50255123D01*
X-82398611Y50415053D01*
X-82398608Y50415056D01*
X-82395048Y50417642D01*
X-82331498Y50479011D01*
X-82273157Y50535351D01*
X-82192988Y50612769D01*
X-82030294Y50821009D01*
X-82022759Y50830653D01*
X-82022758Y50830654D01*
X-82020052Y50834118D01*
X-82017856Y50837922D01*
X-82017851Y50837929D01*
X-81881805Y51073569D01*
X-81879604Y51077381D01*
X-81774378Y51337824D01*
X-81740696Y51472913D01*
X-81707487Y51606107D01*
X-81707486Y51606112D01*
X-81706423Y51610376D01*
X-81703151Y51641500D01*
X-81677521Y51885364D01*
X-81677521Y51885367D01*
X-81677062Y51889733D01*
X-81677215Y51894127D01*
X-81686711Y52166061D01*
X-81686712Y52166067D01*
X-81686865Y52170458D01*
X-81695637Y52220211D01*
X-81728792Y52408238D01*
X-81735642Y52447087D01*
X-81822443Y52714235D01*
X-81824900Y52719274D01*
X-81890268Y52853297D01*
X-81945580Y52966702D01*
X-81948035Y52970341D01*
X-81948038Y52970347D01*
X-82028305Y53089347D01*
X-82102655Y53199576D01*
X-82123280Y53222483D01*
X-82287674Y53405060D01*
X-82290611Y53408322D01*
X-82505790Y53588879D01*
X-82744004Y53737731D01*
X-83000615Y53851982D01*
X-83270630Y53929407D01*
X-83274980Y53930018D01*
X-83274983Y53930019D01*
X-83377930Y53944487D01*
X-83548792Y53968500D01*
X-83582133Y53968500D01*
X-83650254Y53988502D01*
X-83696747Y54042158D01*
X-83706851Y54112432D01*
X-83677357Y54177012D01*
X-83671228Y54183595D01*
X-80626309Y57228514D01*
X-80611896Y57240901D01*
X-80601016Y57248907D01*
X-80601012Y57248911D01*
X-80595117Y57253249D01*
X-80572381Y57280011D01*
X-80513035Y57318974D01*
X-80442042Y57319667D01*
X-80387263Y57287525D01*
X-80233540Y57133802D01*
X-80229032Y57130645D01*
X-80229029Y57130643D01*
X-80150851Y57075902D01*
X-80045989Y57002477D01*
X-80041007Y57000154D01*
X-80041002Y57000151D01*
X-80006783Y56984195D01*
X-79953498Y56937278D01*
X-79934037Y56869001D01*
X-79954579Y56801041D01*
X-80006783Y56755805D01*
X-80041002Y56739849D01*
X-80041007Y56739846D01*
X-80045989Y56737523D01*
X-80123540Y56683221D01*
X-80229029Y56609357D01*
X-80229032Y56609355D01*
X-80233540Y56606198D01*
X-80395438Y56444300D01*
X-80398595Y56439792D01*
X-80398597Y56439789D01*
X-80416972Y56413547D01*
X-80526763Y56256749D01*
X-80529086Y56251767D01*
X-80529089Y56251762D01*
X-80560612Y56184160D01*
X-80623524Y56049243D01*
X-80624946Y56043935D01*
X-80624947Y56043933D01*
X-80676238Y55852513D01*
X-80682783Y55828087D01*
X-80702738Y55600000D01*
X-80682783Y55371913D01*
X-80681359Y55366600D01*
X-80681359Y55366598D01*
X-80624951Y55156084D01*
X-80623524Y55150757D01*
X-80621201Y55145776D01*
X-80621201Y55145775D01*
X-80529089Y54948238D01*
X-80529086Y54948233D01*
X-80526763Y54943251D01*
X-80491139Y54892375D01*
X-80436995Y54815050D01*
X-80395438Y54755700D01*
X-80233540Y54593802D01*
X-80229032Y54590645D01*
X-80229029Y54590643D01*
X-80189208Y54562760D01*
X-80045989Y54462477D01*
X-80041007Y54460154D01*
X-80041002Y54460151D01*
X-80006783Y54444195D01*
X-79953498Y54397278D01*
X-79934037Y54329001D01*
X-79954579Y54261041D01*
X-80006783Y54215805D01*
X-80041002Y54199849D01*
X-80041007Y54199846D01*
X-80045989Y54197523D01*
X-80123540Y54143221D01*
X-80229029Y54069357D01*
X-80229032Y54069355D01*
X-80233540Y54066198D01*
X-80395438Y53904300D01*
X-80398595Y53899792D01*
X-80398597Y53899789D01*
X-80401664Y53895409D01*
X-80526763Y53716749D01*
X-80529086Y53711767D01*
X-80529089Y53711762D01*
X-80621201Y53514225D01*
X-80623524Y53509243D01*
X-80624946Y53503935D01*
X-80624947Y53503933D01*
X-80678582Y53303764D01*
X-80682783Y53288087D01*
X-80702738Y53060000D01*
X-80682783Y52831913D01*
X-80681359Y52826600D01*
X-80681359Y52826598D01*
X-80627714Y52626396D01*
X-80623524Y52610757D01*
X-80621201Y52605776D01*
X-80621201Y52605775D01*
X-80529089Y52408238D01*
X-80529086Y52408233D01*
X-80526763Y52403251D01*
X-80473910Y52327769D01*
X-80422974Y52255026D01*
X-80395438Y52215700D01*
X-80233540Y52053802D01*
X-80229032Y52050645D01*
X-80229029Y52050643D01*
X-80150851Y51995902D01*
X-80045989Y51922477D01*
X-80041007Y51920154D01*
X-80041002Y51920151D01*
X-79925347Y51866221D01*
X-79838483Y51825716D01*
X-79833175Y51824294D01*
X-79833173Y51824293D01*
X-79622642Y51767881D01*
X-79622640Y51767881D01*
X-79617327Y51766457D01*
X-79389240Y51746502D01*
X-79161153Y51766457D01*
X-79155840Y51767881D01*
X-79155838Y51767881D01*
X-78945307Y51824293D01*
X-78945305Y51824294D01*
X-78939997Y51825716D01*
X-78853133Y51866221D01*
X-78737478Y51920151D01*
X-78737473Y51920154D01*
X-78732491Y51922477D01*
X-78627629Y51995902D01*
X-78549451Y52050643D01*
X-78549448Y52050645D01*
X-78544940Y52053802D01*
X-78383042Y52215700D01*
X-78355505Y52255026D01*
X-78304570Y52327769D01*
X-78251717Y52403251D01*
X-78249394Y52408233D01*
X-78249391Y52408238D01*
X-78157279Y52605775D01*
X-78157279Y52605776D01*
X-78154956Y52610757D01*
X-78150765Y52626396D01*
X-78097121Y52826598D01*
X-78097121Y52826600D01*
X-78095697Y52831913D01*
X-78075742Y53060000D01*
X-78095697Y53288087D01*
X-78099898Y53303764D01*
X-78153533Y53503933D01*
X-78153534Y53503935D01*
X-78154956Y53509243D01*
X-78157279Y53514225D01*
X-78249391Y53711762D01*
X-78249394Y53711767D01*
X-78251717Y53716749D01*
X-78376816Y53895409D01*
X-78379883Y53899789D01*
X-78379885Y53899792D01*
X-78383042Y53904300D01*
X-78544940Y54066198D01*
X-78549448Y54069355D01*
X-78549451Y54069357D01*
X-78654940Y54143221D01*
X-78732491Y54197523D01*
X-78737473Y54199846D01*
X-78737478Y54199849D01*
X-78771697Y54215805D01*
X-78824982Y54262722D01*
X-78844443Y54330999D01*
X-78823901Y54398959D01*
X-78771697Y54444195D01*
X-78737478Y54460151D01*
X-78737473Y54460154D01*
X-78732491Y54462477D01*
X-78589272Y54562760D01*
X-78549451Y54590643D01*
X-78549448Y54590645D01*
X-78544940Y54593802D01*
X-78383042Y54755700D01*
X-78341484Y54815050D01*
X-78287341Y54892375D01*
X-78251717Y54943251D01*
X-78249394Y54948233D01*
X-78249391Y54948238D01*
X-78157279Y55145775D01*
X-78157279Y55145776D01*
X-78154956Y55150757D01*
X-78153528Y55156084D01*
X-78097121Y55366598D01*
X-78097121Y55366600D01*
X-78095697Y55371913D01*
X-78075742Y55600000D01*
X-78095697Y55828087D01*
X-78102242Y55852513D01*
X-78153533Y56043933D01*
X-78153534Y56043935D01*
X-78154956Y56049243D01*
X-78217868Y56184160D01*
X-78249391Y56251762D01*
X-78249394Y56251767D01*
X-78251717Y56256749D01*
X-78361508Y56413547D01*
X-78379883Y56439789D01*
X-78379885Y56439792D01*
X-78383042Y56444300D01*
X-78544940Y56606198D01*
X-78549448Y56609355D01*
X-78549451Y56609357D01*
X-78654940Y56683221D01*
X-78732491Y56737523D01*
X-78737473Y56739846D01*
X-78737478Y56739849D01*
X-78771697Y56755805D01*
X-78824982Y56802722D01*
X-78844443Y56870999D01*
X-78823901Y56938959D01*
X-78807345Y56953305D01*
X-75751989Y56953305D01*
X-75751692Y56948152D01*
X-75751692Y56948149D01*
X-75739681Y56739849D01*
X-75739130Y56730285D01*
X-75737993Y56725239D01*
X-75737992Y56725233D01*
X-75726040Y56672200D01*
X-75690018Y56512361D01*
X-75605974Y56305384D01*
X-75571536Y56249186D01*
X-75524290Y56172088D01*
X-75489253Y56114912D01*
X-75342990Y55946062D01*
X-75171114Y55803368D01*
X-74978240Y55690662D01*
X-74973415Y55688820D01*
X-74973414Y55688819D01*
X-74900628Y55661025D01*
X-74769548Y55610970D01*
X-74764480Y55609939D01*
X-74764477Y55609938D01*
X-74669378Y55590590D01*
X-74550643Y55566433D01*
X-74545468Y55566243D01*
X-74545466Y55566243D01*
X-74332567Y55558436D01*
X-74332563Y55558436D01*
X-74327403Y55558247D01*
X-74322283Y55558903D01*
X-74322281Y55558903D01*
X-74110952Y55585975D01*
X-74110951Y55585975D01*
X-74105824Y55586632D01*
X-74100874Y55588117D01*
X-73896811Y55649339D01*
X-73896806Y55649341D01*
X-73891856Y55650826D01*
X-73691246Y55749104D01*
X-73509380Y55878827D01*
X-73351144Y56036511D01*
X-73291646Y56119311D01*
X-73223805Y56213723D01*
X-73220787Y56217923D01*
X-73121810Y56418189D01*
X-73064688Y56606198D01*
X-73058375Y56626977D01*
X-73058375Y56626979D01*
X-73056870Y56631931D01*
X-73027711Y56853410D01*
X-73027629Y56856760D01*
X-73026166Y56916635D01*
X-73026166Y56916639D01*
X-73026084Y56920000D01*
X-73044388Y57142639D01*
X-73098809Y57359298D01*
X-73187886Y57564160D01*
X-73269785Y57690757D01*
X-73306418Y57747383D01*
X-73306420Y57747386D01*
X-73309226Y57751723D01*
X-73459570Y57916949D01*
X-73463621Y57920148D01*
X-73463625Y57920152D01*
X-73630826Y58052200D01*
X-73630830Y58052202D01*
X-73634881Y58055402D01*
X-73676187Y58078204D01*
X-73726156Y58128636D01*
X-73740928Y58198079D01*
X-73715812Y58264484D01*
X-73688460Y58291091D01*
X-73622734Y58337973D01*
X-73509380Y58418827D01*
X-73489782Y58438356D01*
X-73389822Y58537968D01*
X-73351144Y58576511D01*
X-73341340Y58590154D01*
X-73223805Y58753723D01*
X-73220787Y58757923D01*
X-73132722Y58936109D01*
X-73124104Y58953547D01*
X-73124103Y58953549D01*
X-73121810Y58958189D01*
X-73067237Y59137809D01*
X-73058375Y59166977D01*
X-73058375Y59166979D01*
X-73056870Y59171931D01*
X-73037486Y59319164D01*
X-73008763Y59384091D01*
X-72949498Y59423182D01*
X-72878507Y59424027D01*
X-72823469Y59391812D01*
X-72753456Y59321799D01*
X-72719430Y59259487D01*
X-72716551Y59232704D01*
X-72716551Y53024131D01*
X-72717984Y53005181D01*
X-72721117Y52984586D01*
X-72720524Y52977294D01*
X-72720524Y52977290D01*
X-72716966Y52933549D01*
X-72716551Y52923335D01*
X-72716551Y52915645D01*
X-72713403Y52888647D01*
X-72713362Y52888293D01*
X-72712929Y52883916D01*
X-72708033Y52823726D01*
X-72707183Y52813271D01*
X-72704927Y52806309D01*
X-72703817Y52800751D01*
X-72702513Y52795234D01*
X-72701665Y52787962D01*
X-72699166Y52781078D01*
X-72699165Y52781073D01*
X-72677477Y52721324D01*
X-72676051Y52717170D01*
X-72654212Y52649757D01*
X-72650416Y52643501D01*
X-72648064Y52638363D01*
X-72645517Y52633278D01*
X-72643019Y52626396D01*
X-72604144Y52567101D01*
X-72601821Y52563419D01*
X-72566012Y52504409D01*
X-72547730Y52439042D01*
X-72547730Y47060827D01*
X-72567732Y46992706D01*
X-72621388Y46946213D01*
X-72691662Y46936109D01*
X-72732398Y46949319D01*
X-72839156Y47005487D01*
X-72839158Y47005488D01*
X-72843201Y47007615D01*
X-72847506Y47009135D01*
X-72847510Y47009137D01*
X-73093207Y47095902D01*
X-73093208Y47095902D01*
X-73097520Y47097425D01*
X-73225272Y47122605D01*
X-73357668Y47148700D01*
X-73357674Y47148701D01*
X-73362140Y47149581D01*
X-73366693Y47149808D01*
X-73366696Y47149808D01*
X-73626948Y47162764D01*
X-73626954Y47162764D01*
X-73631517Y47162991D01*
X-73900009Y47137375D01*
X-73904443Y47136290D01*
X-73904449Y47136289D01*
X-74103040Y47087694D01*
X-74161990Y47073269D01*
X-74411973Y46972015D01*
X-74644722Y46835735D01*
X-74776717Y46730176D01*
X-74832702Y46685403D01*
X-74855359Y46667284D01*
X-75039474Y46470191D01*
X-75193208Y46248584D01*
X-75195239Y46244501D01*
X-75195241Y46244498D01*
X-75252706Y46128987D01*
X-75313341Y46007106D01*
X-75314762Y46002772D01*
X-75314763Y46002769D01*
X-75347950Y45901531D01*
X-75397358Y45750814D01*
X-75398138Y45746323D01*
X-75398138Y45746322D01*
X-75429715Y45564453D01*
X-75443497Y45485079D01*
X-75447740Y45399851D01*
X-75447740Y44631488D01*
X-75433193Y44430996D01*
X-75432209Y44426541D01*
X-75432209Y44426538D01*
X-75394044Y44253678D01*
X-75375046Y44167628D01*
X-75348844Y44098469D01*
X-75307296Y43988806D01*
X-75279490Y43915412D01*
X-75268768Y43896109D01*
X-75157746Y43696232D01*
X-75148526Y43679632D01*
X-75098050Y43613493D01*
X-74993815Y43476913D01*
X-74984897Y43465227D01*
X-74981631Y43462034D01*
X-74981629Y43462032D01*
X-74956326Y43437297D01*
X-74792032Y43276688D01*
X-74573970Y43117966D01*
X-74487874Y43072669D01*
X-74339319Y42994510D01*
X-74339313Y42994507D01*
X-74335279Y42992385D01*
X-74330974Y42990865D01*
X-74330970Y42990863D01*
X-74097597Y42908450D01*
X-74080960Y42902575D01*
X-73953208Y42877395D01*
X-73820812Y42851300D01*
X-73820806Y42851299D01*
X-73816340Y42850419D01*
X-73811787Y42850192D01*
X-73811784Y42850192D01*
X-73551532Y42837236D01*
X-73551526Y42837236D01*
X-73546963Y42837009D01*
X-73278471Y42862625D01*
X-73274037Y42863710D01*
X-73274031Y42863711D01*
X-73020928Y42925645D01*
X-73016490Y42926731D01*
X-72766507Y43027985D01*
X-72737394Y43045032D01*
X-72668504Y43062191D01*
X-72601272Y43039381D01*
X-72557044Y42983843D01*
X-72547730Y42936299D01*
X-72547730Y41636117D01*
X-72567732Y41567996D01*
X-72584635Y41547022D01*
X-72633969Y41497688D01*
X-72696281Y41463662D01*
X-72767096Y41468727D01*
X-72781732Y41475275D01*
X-72839156Y41505487D01*
X-72839158Y41505488D01*
X-72843201Y41507615D01*
X-72847506Y41509135D01*
X-72847510Y41509137D01*
X-73093207Y41595902D01*
X-73093208Y41595902D01*
X-73097520Y41597425D01*
X-73225272Y41622605D01*
X-73357668Y41648700D01*
X-73357674Y41648701D01*
X-73362140Y41649581D01*
X-73366693Y41649808D01*
X-73366696Y41649808D01*
X-73626948Y41662764D01*
X-73626954Y41662764D01*
X-73631517Y41662991D01*
X-73900009Y41637375D01*
X-73904443Y41636290D01*
X-73904449Y41636289D01*
X-74148741Y41576511D01*
X-74161990Y41573269D01*
X-74411973Y41472015D01*
X-74559533Y41385615D01*
X-74636143Y41340758D01*
X-74644722Y41335735D01*
X-74855359Y41167284D01*
X-75039474Y40970191D01*
X-75193208Y40748584D01*
X-75195239Y40744501D01*
X-75195241Y40744498D01*
X-75231157Y40672303D01*
X-75313341Y40507106D01*
X-75314762Y40502772D01*
X-75314763Y40502769D01*
X-75394516Y40259482D01*
X-75397358Y40250814D01*
X-75398138Y40246323D01*
X-75398138Y40246322D01*
X-75432779Y40046808D01*
X-75443497Y39985079D01*
X-75443688Y39981242D01*
X-75446904Y39916635D01*
X-75447740Y39899851D01*
X-75447740Y39131488D01*
X-75447575Y39129220D01*
X-75447575Y39129208D01*
X-75445580Y39101719D01*
X-75433193Y38930996D01*
X-75432209Y38926541D01*
X-75432209Y38926538D01*
X-75377987Y38680950D01*
X-75375046Y38667628D01*
X-75373428Y38663358D01*
X-75307296Y38488806D01*
X-75279490Y38415412D01*
X-75148526Y38179632D01*
X-75086703Y38098625D01*
X-75000257Y37985354D01*
X-74984897Y37965227D01*
X-74981631Y37962034D01*
X-74981629Y37962032D01*
X-74949275Y37930404D01*
X-74792032Y37776688D01*
X-74573970Y37617966D01*
X-74477774Y37567355D01*
X-74339319Y37494510D01*
X-74339313Y37494507D01*
X-74335279Y37492385D01*
X-74330974Y37490865D01*
X-74330970Y37490863D01*
X-74092528Y37406660D01*
X-74080960Y37402575D01*
X-73953208Y37377395D01*
X-73820812Y37351300D01*
X-73820806Y37351299D01*
X-73816340Y37350419D01*
X-73811787Y37350192D01*
X-73811784Y37350192D01*
X-73551532Y37337236D01*
X-73551526Y37337236D01*
X-73546963Y37337009D01*
X-73278471Y37362625D01*
X-73274037Y37363710D01*
X-73274031Y37363711D01*
X-73020928Y37425645D01*
X-73016490Y37426731D01*
X-72766507Y37527985D01*
X-72533758Y37664265D01*
X-72323121Y37832716D01*
X-72139006Y38029809D01*
X-71985272Y38251416D01*
X-71865139Y38492894D01*
X-71849596Y38540307D01*
X-71782542Y38744853D01*
X-71782541Y38744859D01*
X-71781122Y38749186D01*
X-71771141Y38806673D01*
X-71735639Y39011140D01*
X-71735638Y39011148D01*
X-71734983Y39014921D01*
X-71730740Y39100149D01*
X-71730740Y39131488D01*
X-71247740Y39131488D01*
X-71247575Y39129220D01*
X-71247575Y39129208D01*
X-71245580Y39101719D01*
X-71233193Y38930996D01*
X-71232209Y38926541D01*
X-71232209Y38926538D01*
X-71177987Y38680950D01*
X-71175046Y38667628D01*
X-71173428Y38663358D01*
X-71107296Y38488806D01*
X-71079490Y38415412D01*
X-70948526Y38179632D01*
X-70886703Y38098625D01*
X-70800257Y37985354D01*
X-70784897Y37965227D01*
X-70781631Y37962034D01*
X-70781629Y37962032D01*
X-70749275Y37930404D01*
X-70592032Y37776688D01*
X-70373970Y37617966D01*
X-70277774Y37567355D01*
X-70139319Y37494510D01*
X-70139313Y37494507D01*
X-70135279Y37492385D01*
X-70130974Y37490865D01*
X-70130970Y37490863D01*
X-69892528Y37406660D01*
X-69880960Y37402575D01*
X-69753208Y37377395D01*
X-69620812Y37351300D01*
X-69620806Y37351299D01*
X-69616340Y37350419D01*
X-69611787Y37350192D01*
X-69611784Y37350192D01*
X-69351532Y37337236D01*
X-69351526Y37337236D01*
X-69346963Y37337009D01*
X-69078471Y37362625D01*
X-69074037Y37363710D01*
X-69074031Y37363711D01*
X-68820928Y37425645D01*
X-68816490Y37426731D01*
X-68566507Y37527985D01*
X-68333758Y37664265D01*
X-68123121Y37832716D01*
X-67939006Y38029809D01*
X-67785272Y38251416D01*
X-67665139Y38492894D01*
X-67649596Y38540307D01*
X-67582542Y38744853D01*
X-67582541Y38744859D01*
X-67581122Y38749186D01*
X-67571141Y38806673D01*
X-67535639Y39011140D01*
X-67535638Y39011148D01*
X-67534983Y39014921D01*
X-67530740Y39100149D01*
X-67530740Y39868512D01*
X-67532662Y39895009D01*
X-67544957Y40064453D01*
X-67545287Y40069004D01*
X-67546271Y40073462D01*
X-67602449Y40327912D01*
X-67602450Y40327916D01*
X-67603434Y40332372D01*
X-67667187Y40500646D01*
X-67697372Y40580318D01*
X-67697373Y40580321D01*
X-67698990Y40584588D01*
X-67825776Y40812846D01*
X-67827736Y40816375D01*
X-67827737Y40816376D01*
X-67829954Y40820368D01*
X-67941424Y40966429D01*
X-67990811Y41031141D01*
X-67990812Y41031142D01*
X-67993583Y41034773D01*
X-68043676Y41083743D01*
X-68101171Y41139948D01*
X-68186448Y41223312D01*
X-68404510Y41382034D01*
X-68519344Y41442451D01*
X-68639161Y41505490D01*
X-68639167Y41505493D01*
X-68643201Y41507615D01*
X-68647506Y41509135D01*
X-68647510Y41509137D01*
X-68893207Y41595902D01*
X-68893208Y41595902D01*
X-68897520Y41597425D01*
X-69025272Y41622605D01*
X-69157668Y41648700D01*
X-69157674Y41648701D01*
X-69162140Y41649581D01*
X-69166693Y41649808D01*
X-69166696Y41649808D01*
X-69426948Y41662764D01*
X-69426954Y41662764D01*
X-69431517Y41662991D01*
X-69700009Y41637375D01*
X-69704443Y41636290D01*
X-69704449Y41636289D01*
X-69948741Y41576511D01*
X-69961990Y41573269D01*
X-70211973Y41472015D01*
X-70359533Y41385615D01*
X-70436143Y41340758D01*
X-70444722Y41335735D01*
X-70655359Y41167284D01*
X-70839474Y40970191D01*
X-70842076Y40966440D01*
X-70842085Y40966429D01*
X-70912605Y40864775D01*
X-70967868Y40820205D01*
X-71038455Y40812588D01*
X-71054189Y40820456D01*
X-71047396Y40816183D01*
X-71017278Y40751891D01*
X-71029005Y40676629D01*
X-71031157Y40672303D01*
X-71113341Y40507106D01*
X-71114762Y40502772D01*
X-71114763Y40502769D01*
X-71194516Y40259482D01*
X-71197358Y40250814D01*
X-71198138Y40246323D01*
X-71198138Y40246322D01*
X-71232779Y40046808D01*
X-71243497Y39985079D01*
X-71243688Y39981242D01*
X-71246904Y39916635D01*
X-71247740Y39899851D01*
X-71247740Y39131488D01*
X-71730740Y39131488D01*
X-71730740Y39868512D01*
X-71732662Y39895009D01*
X-71744957Y40064453D01*
X-71745287Y40069004D01*
X-71772454Y40192053D01*
X-71767609Y40262883D01*
X-71738512Y40308311D01*
X-71335699Y40711124D01*
X-71321286Y40723511D01*
X-71310406Y40731517D01*
X-71310402Y40731521D01*
X-71304507Y40735859D01*
X-71271352Y40774885D01*
X-71264422Y40782401D01*
X-71258987Y40787836D01*
X-71241883Y40809455D01*
X-71239102Y40812846D01*
X-71237836Y40814336D01*
X-71178485Y40853297D01*
X-71107680Y40853984D01*
X-71138206Y40905386D01*
X-71135700Y40976339D01*
X-71128348Y40993897D01*
X-71118386Y41013406D01*
X-71118385Y41013408D01*
X-71115056Y41019928D01*
X-71113315Y41027040D01*
X-71111339Y41032355D01*
X-71109551Y41037731D01*
X-71106452Y41044361D01*
X-71104962Y41051523D01*
X-71104961Y41051527D01*
X-71093124Y41108442D01*
X-71092019Y41113756D01*
X-71091050Y41118037D01*
X-71089925Y41122631D01*
X-71074203Y41186883D01*
X-71073530Y41197730D01*
X-71073506Y41197728D01*
X-71073243Y41202088D01*
X-71072941Y41205478D01*
X-71071451Y41212639D01*
X-71073484Y41287775D01*
X-71073530Y41291183D01*
X-71073530Y42843426D01*
X-71053528Y42911547D01*
X-70999872Y42958040D01*
X-70929598Y42968144D01*
X-70881414Y42950686D01*
X-70819150Y42912306D01*
X-70811978Y42907885D01*
X-70770960Y42894280D01*
X-70650629Y42854368D01*
X-70650627Y42854368D01*
X-70644101Y42852203D01*
X-70637265Y42851503D01*
X-70637262Y42851502D01*
X-70594209Y42847091D01*
X-70539640Y42841500D01*
X-68238840Y42841500D01*
X-68235594Y42841837D01*
X-68235590Y42841837D01*
X-68139933Y42851762D01*
X-68139929Y42851763D01*
X-68133075Y42852474D01*
X-68126539Y42854655D01*
X-68126537Y42854655D01*
X-67985551Y42901692D01*
X-67965295Y42908450D01*
X-67814892Y43001522D01*
X-67689935Y43126697D01*
X-67686094Y43132928D01*
X-67600965Y43271032D01*
X-67600964Y43271034D01*
X-67597125Y43277262D01*
X-67541443Y43445139D01*
X-67539012Y43468859D01*
X-67536331Y43495031D01*
X-67530740Y43549600D01*
X-67530740Y45254593D01*
X-67510738Y45322714D01*
X-67457082Y45369207D01*
X-67386808Y45379311D01*
X-67322228Y45349817D01*
X-67315645Y45343688D01*
X-63547535Y41575578D01*
X-63513509Y41513266D01*
X-63518574Y41442451D01*
X-63561121Y41385615D01*
X-63572964Y41377751D01*
X-63644722Y41335735D01*
X-63855359Y41167284D01*
X-64039474Y40970191D01*
X-64193208Y40748584D01*
X-64195239Y40744501D01*
X-64195241Y40744498D01*
X-64231157Y40672303D01*
X-64313341Y40507106D01*
X-64314762Y40502772D01*
X-64314763Y40502769D01*
X-64394516Y40259482D01*
X-64397358Y40250814D01*
X-64398138Y40246323D01*
X-64398138Y40246322D01*
X-64432779Y40046808D01*
X-64443497Y39985079D01*
X-64443688Y39981242D01*
X-64446904Y39916635D01*
X-64447740Y39899851D01*
X-64447740Y39131488D01*
X-64447575Y39129220D01*
X-64447575Y39129208D01*
X-64445580Y39101719D01*
X-64433193Y38930996D01*
X-64432209Y38926541D01*
X-64432209Y38926538D01*
X-64377987Y38680950D01*
X-64375046Y38667628D01*
X-64373428Y38663358D01*
X-64307296Y38488806D01*
X-64279490Y38415412D01*
X-64148526Y38179632D01*
X-64086703Y38098625D01*
X-64000257Y37985354D01*
X-63984897Y37965227D01*
X-63981631Y37962034D01*
X-63981629Y37962032D01*
X-63949275Y37930404D01*
X-63792032Y37776688D01*
X-63573970Y37617966D01*
X-63477774Y37567355D01*
X-63339319Y37494510D01*
X-63339313Y37494507D01*
X-63335279Y37492385D01*
X-63330974Y37490865D01*
X-63330970Y37490863D01*
X-63092528Y37406660D01*
X-63080960Y37402575D01*
X-62953208Y37377395D01*
X-62820812Y37351300D01*
X-62820806Y37351299D01*
X-62816340Y37350419D01*
X-62811787Y37350192D01*
X-62811784Y37350192D01*
X-62551532Y37337236D01*
X-62551526Y37337236D01*
X-62546963Y37337009D01*
X-62278471Y37362625D01*
X-62274037Y37363710D01*
X-62274031Y37363711D01*
X-62020928Y37425645D01*
X-62016490Y37426731D01*
X-61766507Y37527985D01*
X-61533758Y37664265D01*
X-61323121Y37832716D01*
X-61139006Y38029809D01*
X-60985272Y38251416D01*
X-60865139Y38492894D01*
X-60849596Y38540307D01*
X-60782542Y38744853D01*
X-60782541Y38744859D01*
X-60781122Y38749186D01*
X-60771141Y38806673D01*
X-60735639Y39011140D01*
X-60735638Y39011148D01*
X-60734983Y39014921D01*
X-60730740Y39100149D01*
X-60730740Y39131488D01*
X-60247740Y39131488D01*
X-60247575Y39129220D01*
X-60247575Y39129208D01*
X-60245580Y39101719D01*
X-60233193Y38930996D01*
X-60232209Y38926541D01*
X-60232209Y38926538D01*
X-60177987Y38680950D01*
X-60175046Y38667628D01*
X-60173428Y38663358D01*
X-60107296Y38488806D01*
X-60079490Y38415412D01*
X-59948526Y38179632D01*
X-59886703Y38098625D01*
X-59800257Y37985354D01*
X-59784897Y37965227D01*
X-59781631Y37962034D01*
X-59781629Y37962032D01*
X-59749275Y37930404D01*
X-59592032Y37776688D01*
X-59373970Y37617966D01*
X-59277774Y37567355D01*
X-59139319Y37494510D01*
X-59139313Y37494507D01*
X-59135279Y37492385D01*
X-59130974Y37490865D01*
X-59130970Y37490863D01*
X-58892528Y37406660D01*
X-58880960Y37402575D01*
X-58753208Y37377395D01*
X-58620812Y37351300D01*
X-58620806Y37351299D01*
X-58616340Y37350419D01*
X-58611787Y37350192D01*
X-58611784Y37350192D01*
X-58351532Y37337236D01*
X-58351526Y37337236D01*
X-58346963Y37337009D01*
X-58078471Y37362625D01*
X-58074037Y37363710D01*
X-58074031Y37363711D01*
X-57820928Y37425645D01*
X-57816490Y37426731D01*
X-57566507Y37527985D01*
X-57333758Y37664265D01*
X-57123121Y37832716D01*
X-56939006Y38029809D01*
X-56785272Y38251416D01*
X-56665139Y38492894D01*
X-56649596Y38540307D01*
X-56582542Y38744853D01*
X-56582541Y38744859D01*
X-56581122Y38749186D01*
X-56571141Y38806673D01*
X-56535639Y39011140D01*
X-56535638Y39011148D01*
X-56534983Y39014921D01*
X-56530740Y39100149D01*
X-56530740Y39868512D01*
X-56532662Y39895009D01*
X-56544957Y40064453D01*
X-56545287Y40069004D01*
X-56546271Y40073462D01*
X-56602449Y40327912D01*
X-56602450Y40327916D01*
X-56603434Y40332372D01*
X-56667187Y40500646D01*
X-56697372Y40580318D01*
X-56697373Y40580321D01*
X-56698990Y40584588D01*
X-56825776Y40812846D01*
X-56827736Y40816375D01*
X-56827737Y40816376D01*
X-56829954Y40820368D01*
X-56941424Y40966429D01*
X-56990811Y41031141D01*
X-56990812Y41031142D01*
X-56993583Y41034773D01*
X-57043676Y41083743D01*
X-57101171Y41139948D01*
X-57186448Y41223312D01*
X-57404510Y41382034D01*
X-57519344Y41442451D01*
X-57639161Y41505490D01*
X-57639167Y41505493D01*
X-57643201Y41507615D01*
X-57647506Y41509135D01*
X-57647510Y41509137D01*
X-57893207Y41595902D01*
X-57893208Y41595902D01*
X-57897520Y41597425D01*
X-58025272Y41622605D01*
X-58157668Y41648700D01*
X-58157674Y41648701D01*
X-58162140Y41649581D01*
X-58166693Y41649808D01*
X-58166696Y41649808D01*
X-58426948Y41662764D01*
X-58426954Y41662764D01*
X-58431517Y41662991D01*
X-58700009Y41637375D01*
X-58704443Y41636290D01*
X-58704449Y41636289D01*
X-58948741Y41576511D01*
X-58961990Y41573269D01*
X-59211973Y41472015D01*
X-59359533Y41385615D01*
X-59436143Y41340758D01*
X-59444722Y41335735D01*
X-59655359Y41167284D01*
X-59839474Y40970191D01*
X-59993208Y40748584D01*
X-59995239Y40744501D01*
X-59995241Y40744498D01*
X-60031157Y40672303D01*
X-60113341Y40507106D01*
X-60114762Y40502772D01*
X-60114763Y40502769D01*
X-60194516Y40259482D01*
X-60197358Y40250814D01*
X-60198138Y40246323D01*
X-60198138Y40246322D01*
X-60232779Y40046808D01*
X-60243497Y39985079D01*
X-60243688Y39981242D01*
X-60246904Y39916635D01*
X-60247740Y39899851D01*
X-60247740Y39131488D01*
X-60730740Y39131488D01*
X-60730740Y39868512D01*
X-60732662Y39895009D01*
X-60744957Y40064453D01*
X-60745287Y40069004D01*
X-60746271Y40073462D01*
X-60802449Y40327912D01*
X-60802450Y40327916D01*
X-60803434Y40332372D01*
X-60867187Y40500646D01*
X-60897372Y40580318D01*
X-60897373Y40580321D01*
X-60898990Y40584588D01*
X-61025776Y40812846D01*
X-61027736Y40816375D01*
X-61027737Y40816376D01*
X-61029954Y40820368D01*
X-61141424Y40966429D01*
X-61190811Y41031141D01*
X-61190812Y41031142D01*
X-61193583Y41034773D01*
X-61243676Y41083743D01*
X-61301171Y41139948D01*
X-61386448Y41223312D01*
X-61604510Y41382034D01*
X-61608543Y41384156D01*
X-61608549Y41384160D01*
X-61784808Y41476894D01*
X-61835780Y41526313D01*
X-61852140Y41588402D01*
X-61852140Y41594255D01*
X-61850707Y41613205D01*
X-61848674Y41626566D01*
X-61848674Y41626570D01*
X-61847574Y41633800D01*
X-61848857Y41649581D01*
X-61851725Y41684837D01*
X-61852140Y41695051D01*
X-61852140Y41702741D01*
X-61855331Y41730111D01*
X-61855762Y41734470D01*
X-61860914Y41797816D01*
X-61860915Y41797819D01*
X-61861508Y41805115D01*
X-61863764Y41812077D01*
X-61864874Y41817635D01*
X-61866178Y41823152D01*
X-61867026Y41830424D01*
X-61869525Y41837308D01*
X-61869526Y41837313D01*
X-61891214Y41897062D01*
X-61892643Y41901223D01*
X-61912224Y41961667D01*
X-61914479Y41968629D01*
X-61918275Y41974885D01*
X-61920627Y41980023D01*
X-61923174Y41985108D01*
X-61925672Y41991990D01*
X-61964547Y42051285D01*
X-61966870Y42054967D01*
X-62000740Y42110782D01*
X-62000742Y42110784D01*
X-62003647Y42115572D01*
X-62010841Y42123718D01*
X-62010822Y42123735D01*
X-62013729Y42127012D01*
X-62015896Y42129604D01*
X-62019913Y42135731D01*
X-62074514Y42187455D01*
X-62076955Y42189832D01*
X-62519578Y42632455D01*
X-62553604Y42694767D01*
X-62548539Y42765582D01*
X-62505992Y42822418D01*
X-62442450Y42846980D01*
X-62362008Y42854655D01*
X-62278471Y42862625D01*
X-62274037Y42863710D01*
X-62274031Y42863711D01*
X-62020928Y42925645D01*
X-62016490Y42926731D01*
X-61766507Y43027985D01*
X-61543317Y43158668D01*
X-61537703Y43161955D01*
X-61537702Y43161956D01*
X-61533758Y43164265D01*
X-61323121Y43332716D01*
X-61139006Y43529809D01*
X-61125277Y43549600D01*
X-60247740Y43549600D01*
X-60247403Y43546354D01*
X-60247403Y43546350D01*
X-60237491Y43450825D01*
X-60236766Y43443835D01*
X-60180790Y43276055D01*
X-60087718Y43125652D01*
X-59962543Y43000695D01*
X-59956313Y42996855D01*
X-59956312Y42996854D01*
X-59819150Y42912306D01*
X-59811978Y42907885D01*
X-59770960Y42894280D01*
X-59650629Y42854368D01*
X-59650627Y42854368D01*
X-59644101Y42852203D01*
X-59637265Y42851503D01*
X-59637262Y42851502D01*
X-59594209Y42847091D01*
X-59539640Y42841500D01*
X-57238840Y42841500D01*
X-57235594Y42841837D01*
X-57235590Y42841837D01*
X-57139933Y42851762D01*
X-57139929Y42851763D01*
X-57133075Y42852474D01*
X-57126539Y42854655D01*
X-57126537Y42854655D01*
X-56985551Y42901692D01*
X-56965295Y42908450D01*
X-56814892Y43001522D01*
X-56689935Y43126697D01*
X-56686094Y43132928D01*
X-56600965Y43271032D01*
X-56600964Y43271034D01*
X-56597125Y43277262D01*
X-56541443Y43445139D01*
X-56539012Y43468859D01*
X-56536331Y43495031D01*
X-56530740Y43549600D01*
X-56530740Y46450400D01*
X-56537847Y46518900D01*
X-56541002Y46549307D01*
X-56541003Y46549311D01*
X-56541714Y46556165D01*
X-56597690Y46723945D01*
X-56690762Y46874348D01*
X-56815937Y46999305D01*
X-56831887Y47009137D01*
X-56960272Y47088275D01*
X-56960274Y47088276D01*
X-56966502Y47092115D01*
X-57102957Y47137375D01*
X-57127851Y47145632D01*
X-57127853Y47145632D01*
X-57134379Y47147797D01*
X-57141215Y47148497D01*
X-57141218Y47148498D01*
X-57184271Y47152909D01*
X-57238840Y47158500D01*
X-59539640Y47158500D01*
X-59542886Y47158163D01*
X-59542890Y47158163D01*
X-59638547Y47148238D01*
X-59638551Y47148237D01*
X-59645405Y47147526D01*
X-59651941Y47145345D01*
X-59651943Y47145345D01*
X-59769250Y47106208D01*
X-59813185Y47091550D01*
X-59963588Y46998478D01*
X-60088545Y46873303D01*
X-60092385Y46867073D01*
X-60092386Y46867072D01*
X-60158614Y46759630D01*
X-60181355Y46722738D01*
X-60237037Y46554861D01*
X-60237737Y46548025D01*
X-60237738Y46548022D01*
X-60240722Y46518900D01*
X-60247740Y46450400D01*
X-60247740Y43549600D01*
X-61125277Y43549600D01*
X-60985272Y43751416D01*
X-60970198Y43781715D01*
X-60867173Y43988806D01*
X-60865139Y43992894D01*
X-60852226Y44032285D01*
X-60782542Y44244853D01*
X-60782541Y44244859D01*
X-60781122Y44249186D01*
X-60780342Y44253678D01*
X-60735639Y44511140D01*
X-60735638Y44511148D01*
X-60734983Y44514921D01*
X-60730740Y44600149D01*
X-60730740Y45368512D01*
X-60731523Y45379311D01*
X-60740417Y45501884D01*
X-60745287Y45569004D01*
X-60746271Y45573462D01*
X-60802449Y45827912D01*
X-60802450Y45827916D01*
X-60803434Y45832372D01*
X-60854711Y45967715D01*
X-60897372Y46080318D01*
X-60897373Y46080321D01*
X-60898990Y46084588D01*
X-61015744Y46294786D01*
X-61027736Y46316375D01*
X-61027737Y46316376D01*
X-61029954Y46320368D01*
X-61131672Y46453650D01*
X-61190811Y46531141D01*
X-61190812Y46531142D01*
X-61193583Y46534773D01*
X-61220809Y46561389D01*
X-61319923Y46658279D01*
X-61386448Y46723312D01*
X-61604510Y46882034D01*
X-61707290Y46936109D01*
X-61839161Y47005490D01*
X-61839167Y47005493D01*
X-61843201Y47007615D01*
X-61847506Y47009135D01*
X-61847510Y47009137D01*
X-62093207Y47095902D01*
X-62093208Y47095902D01*
X-62097520Y47097425D01*
X-62225272Y47122605D01*
X-62357668Y47148700D01*
X-62357674Y47148701D01*
X-62362140Y47149581D01*
X-62366693Y47149808D01*
X-62366696Y47149808D01*
X-62626948Y47162764D01*
X-62626954Y47162764D01*
X-62631517Y47162991D01*
X-62900009Y47137375D01*
X-62904443Y47136290D01*
X-62904449Y47136289D01*
X-63103040Y47087694D01*
X-63161990Y47073269D01*
X-63411973Y46972015D01*
X-63644722Y46835735D01*
X-63776717Y46730176D01*
X-63832702Y46685403D01*
X-63855359Y46667284D01*
X-64039474Y46470191D01*
X-64193208Y46248584D01*
X-64195239Y46244501D01*
X-64195241Y46244498D01*
X-64252706Y46128987D01*
X-64313341Y46007106D01*
X-64314762Y46002772D01*
X-64314763Y46002769D01*
X-64347950Y45901531D01*
X-64397358Y45750814D01*
X-64398138Y45746323D01*
X-64398138Y45746322D01*
X-64429715Y45564453D01*
X-64443497Y45485079D01*
X-64447740Y45399851D01*
X-64447740Y44864807D01*
X-64467742Y44796686D01*
X-64521398Y44750193D01*
X-64591672Y44740089D01*
X-64656252Y44769583D01*
X-64662835Y44775712D01*
X-67367971Y47480848D01*
X-67401997Y47543160D01*
X-67396932Y47613975D01*
X-67354385Y47670811D01*
X-67323109Y47687923D01*
X-67292535Y47699385D01*
X-67175979Y47786739D01*
X-67088625Y47903295D01*
X-67072611Y47946012D01*
X-67044642Y48020618D01*
X-67002000Y48077382D01*
X-66935438Y48102082D01*
X-66866090Y48086874D01*
X-66831423Y48058886D01*
X-66802990Y48026062D01*
X-66631114Y47883368D01*
X-66438240Y47770662D01*
X-66229548Y47690970D01*
X-66224480Y47689939D01*
X-66224477Y47689938D01*
X-66165401Y47677919D01*
X-66010643Y47646433D01*
X-66005468Y47646243D01*
X-66005466Y47646243D01*
X-65792567Y47638436D01*
X-65792563Y47638436D01*
X-65787403Y47638247D01*
X-65782283Y47638903D01*
X-65782281Y47638903D01*
X-65570952Y47665975D01*
X-65570951Y47665975D01*
X-65565824Y47666632D01*
X-65560874Y47668117D01*
X-65356811Y47729339D01*
X-65356806Y47729341D01*
X-65351856Y47730826D01*
X-65151246Y47829104D01*
X-64969380Y47958827D01*
X-64940597Y47987509D01*
X-64816211Y48111462D01*
X-64811144Y48116511D01*
X-64782765Y48156004D01*
X-64680787Y48297923D01*
X-64679600Y48297070D01*
X-64632280Y48340638D01*
X-64562343Y48352855D01*
X-64496902Y48325322D01*
X-64469074Y48293489D01*
X-64411546Y48199612D01*
X-64405463Y48191301D01*
X-64266027Y48030333D01*
X-64258660Y48023117D01*
X-64094806Y47887084D01*
X-64086359Y47881169D01*
X-63902484Y47773721D01*
X-63893198Y47769271D01*
X-63694239Y47693297D01*
X-63684341Y47690421D01*
X-63580990Y47669394D01*
X-63566941Y47670590D01*
X-63563240Y47680935D01*
X-63563240Y47681483D01*
X-63055240Y47681483D01*
X-63051176Y47667641D01*
X-63037762Y47665607D01*
X-63031056Y47666466D01*
X-63020978Y47668608D01*
X-62816985Y47729809D01*
X-62807398Y47733567D01*
X-62616145Y47827261D01*
X-62607295Y47832536D01*
X-62433912Y47956208D01*
X-62426040Y47962861D01*
X-62275188Y48113188D01*
X-62268510Y48121035D01*
X-62144237Y48293980D01*
X-62138927Y48302817D01*
X-62044570Y48493733D01*
X-62040771Y48503328D01*
X-61978863Y48707090D01*
X-61976685Y48717163D01*
X-61975254Y48728038D01*
X-61977465Y48742222D01*
X-61990623Y48746000D01*
X-63037125Y48746000D01*
X-63052364Y48741525D01*
X-63053569Y48740135D01*
X-63055240Y48732452D01*
X-63055240Y47681483D01*
X-63563240Y47681483D01*
X-63563240Y49272115D01*
X-63055240Y49272115D01*
X-63050765Y49256876D01*
X-63049375Y49255671D01*
X-63041692Y49254000D01*
X-61990896Y49254000D01*
X-61977365Y49257973D01*
X-61976060Y49267053D01*
X-62018026Y49434125D01*
X-62021346Y49443876D01*
X-62106268Y49639186D01*
X-62111135Y49648261D01*
X-62226814Y49827074D01*
X-62233104Y49835243D01*
X-62376434Y49992760D01*
X-62383967Y49999785D01*
X-62551101Y50131778D01*
X-62559688Y50137483D01*
X-62746123Y50240401D01*
X-62755535Y50244631D01*
X-62956281Y50315720D01*
X-62966252Y50318354D01*
X-63037403Y50331028D01*
X-63050700Y50329568D01*
X-63055240Y50315011D01*
X-63055240Y49272115D01*
X-63563240Y49272115D01*
X-63563240Y50316898D01*
X-63567158Y50330242D01*
X-63581434Y50332229D01*
X-63619916Y50326340D01*
X-63629952Y50323949D01*
X-63832372Y50257788D01*
X-63841881Y50253791D01*
X-64030777Y50155458D01*
X-64039502Y50149964D01*
X-64209807Y50022095D01*
X-64217514Y50015252D01*
X-64364650Y49861283D01*
X-64371131Y49853278D01*
X-64475742Y49699926D01*
X-64530653Y49654924D01*
X-64601178Y49646753D01*
X-64664925Y49678007D01*
X-64685622Y49702491D01*
X-64731885Y49774002D01*
X-64769226Y49831723D01*
X-64772708Y49835550D01*
X-64850734Y49921300D01*
X-64881786Y49985146D01*
X-64883540Y50006099D01*
X-64883540Y51760859D01*
X-64863538Y51828980D01*
X-64809882Y51875473D01*
X-64739608Y51885577D01*
X-64704291Y51875054D01*
X-64603470Y51828041D01*
X-64603465Y51828039D01*
X-64598483Y51825716D01*
X-64593175Y51824294D01*
X-64593173Y51824293D01*
X-64525099Y51806053D01*
X-64377327Y51766457D01*
X-64252138Y51755505D01*
X-64186021Y51729642D01*
X-64174025Y51719079D01*
X-63275955Y50821009D01*
X-63273502Y50818487D01*
X-63220686Y50762635D01*
X-63220681Y50762631D01*
X-63216301Y50757999D01*
X-63211074Y50754339D01*
X-63168745Y50724699D01*
X-63161382Y50719131D01*
X-63158955Y50717152D01*
X-63116380Y50682429D01*
X-63110725Y50679473D01*
X-63110721Y50679470D01*
X-63092015Y50669691D01*
X-63078118Y50661242D01*
X-63055595Y50645471D01*
X-63022188Y50631015D01*
X-63002305Y50622411D01*
X-62993968Y50618434D01*
X-62942518Y50591536D01*
X-62921399Y50585481D01*
X-62916082Y50583956D01*
X-62900774Y50578475D01*
X-62875543Y50567556D01*
X-62833597Y50558793D01*
X-62818715Y50555684D01*
X-62809751Y50553466D01*
X-62753932Y50537460D01*
X-62747572Y50536971D01*
X-62747568Y50536970D01*
X-62729899Y50535611D01*
X-62726518Y50535351D01*
X-62710417Y50533059D01*
X-62683503Y50527436D01*
X-62677072Y50527099D01*
X-62624120Y50527099D01*
X-62614454Y50526728D01*
X-62564683Y50522898D01*
X-62564679Y50522898D01*
X-62558323Y50522409D01*
X-62536240Y50525199D01*
X-62529066Y50526105D01*
X-62513274Y50527099D01*
X-58912081Y50527099D01*
X-58908563Y50527050D01*
X-58831732Y50524904D01*
X-58831730Y50524904D01*
X-58825350Y50524726D01*
X-58811892Y50527099D01*
X-58768165Y50534809D01*
X-58759019Y50536078D01*
X-58707606Y50541300D01*
X-58707603Y50541301D01*
X-58701259Y50541945D01*
X-58695171Y50543853D01*
X-58695170Y50543853D01*
X-58675029Y50550165D01*
X-58659230Y50554017D01*
X-58632144Y50558793D01*
X-58578151Y50580171D01*
X-58569477Y50583243D01*
X-58514049Y50600613D01*
X-58508462Y50603710D01*
X-58508457Y50603712D01*
X-58489999Y50613944D01*
X-58475303Y50620891D01*
X-58449734Y50631015D01*
X-58444396Y50634508D01*
X-58444394Y50634509D01*
X-58413845Y50654500D01*
X-58401144Y50662811D01*
X-58393250Y50667573D01*
X-58366449Y50682429D01*
X-58348042Y50692632D01*
X-58348039Y50692634D01*
X-58342461Y50695726D01*
X-58321584Y50713619D01*
X-58308584Y50723379D01*
X-58302659Y50727256D01*
X-58285572Y50738438D01*
X-58280786Y50742748D01*
X-58243350Y50780184D01*
X-58236253Y50786757D01*
X-58198348Y50819245D01*
X-58198346Y50819248D01*
X-58193502Y50823399D01*
X-58175421Y50846709D01*
X-58164956Y50858578D01*
X-57418939Y51604595D01*
X-57356627Y51638621D01*
X-57329844Y51641500D01*
X-56491106Y51641500D01*
X-56428924Y51648255D01*
X-56292535Y51699385D01*
X-56175979Y51786739D01*
X-56088625Y51903295D01*
X-56037495Y52039684D01*
X-56030740Y52101866D01*
X-56030740Y53898134D01*
X-56037495Y53960316D01*
X-56088625Y54096705D01*
X-56175979Y54213261D01*
X-56292535Y54300615D01*
X-56319335Y54310662D01*
X-56411037Y54345040D01*
X-56467801Y54387682D01*
X-56492501Y54454244D01*
X-56477293Y54523592D01*
X-56455747Y54552273D01*
X-56410162Y54597699D01*
X-56351144Y54656511D01*
X-56291646Y54739311D01*
X-56223805Y54833723D01*
X-56220787Y54837923D01*
X-56214175Y54851300D01*
X-56124104Y55033547D01*
X-56124103Y55033549D01*
X-56121810Y55038189D01*
X-56056870Y55251931D01*
X-56027711Y55473410D01*
X-56027629Y55476760D01*
X-56026166Y55536635D01*
X-56026166Y55536639D01*
X-56026084Y55540000D01*
X-56044388Y55762639D01*
X-56098809Y55979298D01*
X-56187886Y56184160D01*
X-56309226Y56371723D01*
X-56459570Y56536949D01*
X-56463621Y56540148D01*
X-56463625Y56540152D01*
X-56630826Y56672200D01*
X-56630830Y56672202D01*
X-56634881Y56675402D01*
X-56676671Y56698471D01*
X-56726642Y56748903D01*
X-56741414Y56818346D01*
X-56716298Y56884752D01*
X-56688946Y56911359D01*
X-56513912Y57036208D01*
X-56506040Y57042861D01*
X-56355188Y57193188D01*
X-56348510Y57201035D01*
X-56224237Y57373980D01*
X-56218927Y57382817D01*
X-56124570Y57573733D01*
X-56120771Y57583328D01*
X-56058863Y57787090D01*
X-56056685Y57797163D01*
X-56055254Y57808038D01*
X-56057465Y57822222D01*
X-56070623Y57826000D01*
X-61246015Y57826000D01*
X-61259546Y57822027D01*
X-61260983Y57812034D01*
X-61230675Y57677554D01*
X-61227595Y57667725D01*
X-61147470Y57470397D01*
X-61142827Y57461206D01*
X-61031546Y57279612D01*
X-61025463Y57271301D01*
X-60886027Y57110333D01*
X-60878660Y57103117D01*
X-60714806Y56967084D01*
X-60706359Y56961169D01*
X-60637271Y56920797D01*
X-60588547Y56869158D01*
X-60575476Y56799375D01*
X-60602207Y56733604D01*
X-60642656Y56700248D01*
X-60655633Y56693493D01*
X-60659766Y56690390D01*
X-60659769Y56690388D01*
X-60830140Y56562470D01*
X-60834275Y56559365D01*
X-60988611Y56397862D01*
X-61114497Y56213320D01*
X-61130237Y56179410D01*
X-61194620Y56040708D01*
X-61208552Y56010695D01*
X-61268251Y55795430D01*
X-61291989Y55573305D01*
X-61291692Y55568152D01*
X-61291692Y55568149D01*
X-61285573Y55462032D01*
X-61279130Y55350285D01*
X-61277993Y55345239D01*
X-61277992Y55345233D01*
X-61275924Y55336057D01*
X-61230018Y55132361D01*
X-61186940Y55026272D01*
X-61151398Y54938743D01*
X-61145974Y54925384D01*
X-61108181Y54863711D01*
X-61031949Y54739312D01*
X-61029253Y54734912D01*
X-60882990Y54566062D01*
X-60711114Y54423368D01*
X-60669343Y54398959D01*
X-60637795Y54380524D01*
X-60589071Y54328886D01*
X-60576000Y54259103D01*
X-60602731Y54193331D01*
X-60643185Y54159973D01*
X-60655633Y54153493D01*
X-60659766Y54150390D01*
X-60659769Y54150388D01*
X-60679728Y54135402D01*
X-60834275Y54019365D01*
X-60837842Y54015633D01*
X-60837847Y54015628D01*
X-60848339Y54004648D01*
X-60909863Y53969219D01*
X-60939432Y53965700D01*
X-61097044Y53965700D01*
X-61165165Y53985702D01*
X-61186139Y54002605D01*
X-62808319Y55624785D01*
X-62842345Y55687097D01*
X-62844745Y55702899D01*
X-62848787Y55749104D01*
X-62855697Y55828087D01*
X-62912669Y56040708D01*
X-62913533Y56043933D01*
X-62913534Y56043935D01*
X-62914956Y56049243D01*
X-62977868Y56184160D01*
X-63009391Y56251762D01*
X-63009394Y56251767D01*
X-63011717Y56256749D01*
X-63121508Y56413547D01*
X-63139883Y56439789D01*
X-63139885Y56439792D01*
X-63143042Y56444300D01*
X-63304940Y56606198D01*
X-63309448Y56609355D01*
X-63309451Y56609357D01*
X-63414940Y56683221D01*
X-63492491Y56737523D01*
X-63497473Y56739846D01*
X-63497478Y56739849D01*
X-63531697Y56755805D01*
X-63584982Y56802722D01*
X-63604443Y56870999D01*
X-63583901Y56938959D01*
X-63531697Y56984195D01*
X-63497478Y57000151D01*
X-63497473Y57000154D01*
X-63492491Y57002477D01*
X-63387629Y57075902D01*
X-63309451Y57130643D01*
X-63309448Y57130645D01*
X-63304940Y57133802D01*
X-63143042Y57295700D01*
X-63136371Y57305226D01*
X-63071214Y57398281D01*
X-63011717Y57483251D01*
X-63009394Y57488233D01*
X-63009391Y57488238D01*
X-62917279Y57685775D01*
X-62917279Y57685776D01*
X-62914956Y57690757D01*
X-62897596Y57755543D01*
X-62890615Y57781599D01*
X-62855697Y57911913D01*
X-62844745Y58037102D01*
X-62818882Y58103219D01*
X-62808319Y58115215D01*
X-62020249Y58903285D01*
X-62017727Y58905738D01*
X-61961875Y58958554D01*
X-61961871Y58958559D01*
X-61957239Y58962939D01*
X-61923939Y59010495D01*
X-61918371Y59017858D01*
X-61885699Y59057919D01*
X-61881669Y59062860D01*
X-61868928Y59087230D01*
X-61860485Y59101117D01*
X-61848372Y59118417D01*
X-61844711Y59123645D01*
X-61834068Y59148238D01*
X-61821647Y59176942D01*
X-61817681Y59185258D01*
X-61790777Y59236722D01*
X-61783198Y59263152D01*
X-61777717Y59278459D01*
X-61769329Y59297843D01*
X-61769329Y59297844D01*
X-61766796Y59303697D01*
X-61765491Y59309942D01*
X-61754919Y59360545D01*
X-61752701Y59369506D01*
X-61738460Y59419172D01*
X-61738459Y59419176D01*
X-61736701Y59425308D01*
X-61734592Y59452718D01*
X-61732300Y59468819D01*
X-61730181Y59478959D01*
X-61726676Y59495737D01*
X-61726339Y59502168D01*
X-61726339Y59555121D01*
X-61725968Y59564788D01*
X-61722138Y59614557D01*
X-61722138Y59614560D01*
X-61721649Y59620916D01*
X-61725345Y59650173D01*
X-61726339Y59665965D01*
X-61726339Y59945005D01*
X-61706337Y60013126D01*
X-61689434Y60034100D01*
X-61443455Y60280079D01*
X-61381143Y60314105D01*
X-61310328Y60309040D01*
X-61253492Y60266493D01*
X-61233074Y60222219D01*
X-61232700Y60222336D01*
X-61231794Y60219443D01*
X-61231443Y60218682D01*
X-61230018Y60212361D01*
X-61192155Y60119116D01*
X-61151398Y60018743D01*
X-61145974Y60005384D01*
X-61097146Y59925703D01*
X-61031949Y59819312D01*
X-61029253Y59814912D01*
X-60882990Y59646062D01*
X-60711114Y59503368D01*
X-60669343Y59478959D01*
X-60637285Y59460226D01*
X-60588561Y59408588D01*
X-60575490Y59338805D01*
X-60602221Y59273033D01*
X-60642678Y59239673D01*
X-60650783Y59235454D01*
X-60659502Y59229964D01*
X-60829807Y59102095D01*
X-60837514Y59095252D01*
X-60984650Y58941283D01*
X-60991136Y58933273D01*
X-61111142Y58757351D01*
X-61116240Y58748377D01*
X-61205902Y58555217D01*
X-61209465Y58545530D01*
X-61264851Y58345817D01*
X-61263328Y58337393D01*
X-61250948Y58334000D01*
X-56070896Y58334000D01*
X-56057365Y58337973D01*
X-56056060Y58347053D01*
X-56098026Y58514125D01*
X-56101346Y58523876D01*
X-56186268Y58719186D01*
X-56191135Y58728261D01*
X-56306814Y58907074D01*
X-56313104Y58915243D01*
X-56456434Y59072760D01*
X-56463967Y59079785D01*
X-56631101Y59211778D01*
X-56639684Y59217480D01*
X-56676638Y59237880D01*
X-56726609Y59288313D01*
X-56741381Y59357755D01*
X-56716265Y59424161D01*
X-56688913Y59450768D01*
X-56619110Y59500558D01*
X-56509380Y59578827D01*
X-56351144Y59736511D01*
X-56291646Y59819311D01*
X-56223805Y59913723D01*
X-56220787Y59917923D01*
X-56215500Y59928619D01*
X-56124104Y60113547D01*
X-56124103Y60113549D01*
X-56121810Y60118189D01*
X-56062286Y60314105D01*
X-56058375Y60326977D01*
X-56058375Y60326979D01*
X-56056870Y60331931D01*
X-56027711Y60553410D01*
X-56027059Y60580097D01*
X-56026166Y60616635D01*
X-56026166Y60616639D01*
X-56026084Y60620000D01*
X-56044388Y60842639D01*
X-56098809Y61059298D01*
X-56187886Y61264160D01*
X-56309226Y61451723D01*
X-56459570Y61616949D01*
X-56463621Y61620148D01*
X-56463625Y61620152D01*
X-56630826Y61752200D01*
X-56630830Y61752202D01*
X-56634881Y61755402D01*
X-56676187Y61778204D01*
X-56726156Y61828636D01*
X-56740928Y61898079D01*
X-56715812Y61964484D01*
X-56688460Y61991091D01*
X-56633945Y62029976D01*
X-56509380Y62118827D01*
X-56469420Y62158647D01*
X-56354805Y62272863D01*
X-56351144Y62276511D01*
X-56220787Y62457923D01*
X-56199920Y62500143D01*
X-56124104Y62653547D01*
X-56124103Y62653549D01*
X-56121810Y62658189D01*
X-56056870Y62871931D01*
X-56027711Y63093410D01*
X-56026084Y63160000D01*
X-56044388Y63382639D01*
X-56098809Y63599298D01*
X-56187886Y63804160D01*
X-56309226Y63991723D01*
X-56459570Y64156949D01*
X-56463621Y64160148D01*
X-56463625Y64160152D01*
X-56630826Y64292200D01*
X-56630830Y64292202D01*
X-56634881Y64295402D01*
X-56830451Y64403362D01*
X-56835320Y64405086D01*
X-56835324Y64405088D01*
X-57036153Y64476205D01*
X-57036157Y64476206D01*
X-57041028Y64477931D01*
X-57046121Y64478838D01*
X-57046124Y64478839D01*
X-57255867Y64516200D01*
X-57255873Y64516201D01*
X-57260956Y64517106D01*
X-57275837Y64517288D01*
X-57330835Y64517960D01*
X-57398706Y64538793D01*
X-57418390Y64554856D01*
X-58202525Y65338991D01*
X-58204978Y65341513D01*
X-58257794Y65397365D01*
X-58257799Y65397369D01*
X-58262179Y65402001D01*
X-58309735Y65435301D01*
X-58317098Y65440869D01*
X-58357155Y65473538D01*
X-58362100Y65477571D01*
X-58367755Y65480527D01*
X-58367759Y65480530D01*
X-58386465Y65490309D01*
X-58400362Y65498758D01*
X-58414986Y65508998D01*
X-58422885Y65514529D01*
X-58476174Y65537589D01*
X-58484512Y65541566D01*
X-58522249Y65561295D01*
X-58535962Y65568464D01*
X-58562397Y65576044D01*
X-58577706Y65581525D01*
X-58602937Y65592444D01*
X-58659766Y65604316D01*
X-58668729Y65606534D01*
X-58680241Y65609835D01*
X-58724548Y65622540D01*
X-58730908Y65623029D01*
X-58730912Y65623030D01*
X-58749579Y65624466D01*
X-58751962Y65624649D01*
X-58768063Y65626941D01*
X-58790234Y65631573D01*
X-58790233Y65631573D01*
X-58794977Y65632564D01*
X-58801408Y65632901D01*
X-58854360Y65632901D01*
X-58864026Y65633272D01*
X-58913797Y65637102D01*
X-58913801Y65637102D01*
X-58920157Y65637591D01*
X-58931999Y65636095D01*
X-58949414Y65633895D01*
X-58965206Y65632901D01*
X-60637057Y65632901D01*
X-60640575Y65632950D01*
X-60717406Y65635096D01*
X-60717408Y65635096D01*
X-60723788Y65635274D01*
X-60730077Y65634165D01*
X-60780973Y65625191D01*
X-60790119Y65623922D01*
X-60841532Y65618700D01*
X-60841535Y65618699D01*
X-60847879Y65618055D01*
X-60853967Y65616147D01*
X-60853968Y65616147D01*
X-60874109Y65609835D01*
X-60889908Y65605983D01*
X-60916994Y65601207D01*
X-60970987Y65579829D01*
X-60979661Y65576757D01*
X-61035089Y65559387D01*
X-61040676Y65556290D01*
X-61040681Y65556288D01*
X-61059139Y65546056D01*
X-61073835Y65539109D01*
X-61099404Y65528985D01*
X-61104742Y65525492D01*
X-61104744Y65525491D01*
X-61127087Y65510870D01*
X-61145596Y65498758D01*
X-61147991Y65497191D01*
X-61155888Y65492427D01*
X-61177562Y65480413D01*
X-61201096Y65467368D01*
X-61201099Y65467366D01*
X-61206677Y65464274D01*
X-61211520Y65460123D01*
X-61227554Y65446381D01*
X-61240554Y65436621D01*
X-61263566Y65421562D01*
X-61268352Y65417252D01*
X-61305788Y65379816D01*
X-61312885Y65373243D01*
X-61350790Y65340755D01*
X-61350792Y65340752D01*
X-61355636Y65336601D01*
X-61362356Y65327937D01*
X-61373717Y65313291D01*
X-61384182Y65301422D01*
X-62821991Y63863613D01*
X-62884303Y63829587D01*
X-62955118Y63834652D01*
X-63014299Y63880437D01*
X-63139883Y64059789D01*
X-63139885Y64059792D01*
X-63143042Y64064300D01*
X-63304940Y64226198D01*
X-63309448Y64229355D01*
X-63309451Y64229357D01*
X-63407339Y64297899D01*
X-63492491Y64357523D01*
X-63497473Y64359846D01*
X-63497478Y64359849D01*
X-63531697Y64375805D01*
X-63584982Y64422722D01*
X-63604443Y64490999D01*
X-63583901Y64558959D01*
X-63531697Y64604195D01*
X-63497478Y64620151D01*
X-63497473Y64620154D01*
X-63492491Y64622477D01*
X-63387629Y64695902D01*
X-63309451Y64750643D01*
X-63309448Y64750645D01*
X-63304940Y64753802D01*
X-63143042Y64915700D01*
X-63122320Y64945293D01*
X-63083548Y65000666D01*
X-63011717Y65103251D01*
X-63009394Y65108233D01*
X-63009391Y65108238D01*
X-62917279Y65305775D01*
X-62917279Y65305776D01*
X-62914956Y65310757D01*
X-62910352Y65327937D01*
X-62857121Y65526598D01*
X-62857121Y65526600D01*
X-62855697Y65531913D01*
X-62835742Y65760000D01*
X-62855697Y65988087D01*
X-62857121Y65993402D01*
X-62913533Y66203933D01*
X-62913534Y66203935D01*
X-62914956Y66209243D01*
X-62948924Y66282088D01*
X-63009391Y66411762D01*
X-63009394Y66411767D01*
X-63011717Y66416749D01*
X-63095594Y66536538D01*
X-63139883Y66599789D01*
X-63139885Y66599792D01*
X-63143042Y66604300D01*
X-63304940Y66766198D01*
X-63309448Y66769355D01*
X-63309451Y66769357D01*
X-63433190Y66856000D01*
X-63492491Y66897523D01*
X-63497473Y66899846D01*
X-63497478Y66899849D01*
X-63531697Y66915805D01*
X-63584982Y66962722D01*
X-63604443Y67030999D01*
X-63583901Y67098959D01*
X-63531697Y67144195D01*
X-63497478Y67160151D01*
X-63497473Y67160154D01*
X-63492491Y67162477D01*
X-63387629Y67235902D01*
X-63309451Y67290643D01*
X-63309448Y67290645D01*
X-63304940Y67293802D01*
X-63143042Y67455700D01*
X-63131425Y67472290D01*
X-63057003Y67578576D01*
X-63011717Y67643251D01*
X-63009394Y67648233D01*
X-63009391Y67648238D01*
X-62917279Y67845775D01*
X-62917279Y67845776D01*
X-62914956Y67850757D01*
X-62911132Y67865026D01*
X-62857121Y68066598D01*
X-62857121Y68066600D01*
X-62855697Y68071913D01*
X-62835742Y68300000D01*
X-62855697Y68528087D01*
X-62857121Y68533402D01*
X-62913533Y68743933D01*
X-62913534Y68743935D01*
X-62914956Y68749243D01*
X-62926474Y68773943D01*
X-63009391Y68951762D01*
X-63009394Y68951767D01*
X-63011717Y68956749D01*
X-63085142Y69061611D01*
X-63139883Y69139789D01*
X-63139885Y69139792D01*
X-63143042Y69144300D01*
X-63304940Y69306198D01*
X-63309448Y69309355D01*
X-63309451Y69309357D01*
X-63387629Y69364098D01*
X-63492491Y69437523D01*
X-63497473Y69439846D01*
X-63497478Y69439849D01*
X-63531697Y69455805D01*
X-63584982Y69502722D01*
X-63604443Y69570999D01*
X-63583901Y69638959D01*
X-63531697Y69684195D01*
X-63497478Y69700151D01*
X-63497473Y69700154D01*
X-63492491Y69702477D01*
X-63362361Y69793595D01*
X-63309451Y69830643D01*
X-63309448Y69830645D01*
X-63304940Y69833802D01*
X-63143042Y69995700D01*
X-63011717Y70183251D01*
X-63009394Y70188233D01*
X-63009391Y70188238D01*
X-62917279Y70385775D01*
X-62917279Y70385776D01*
X-62914956Y70390757D01*
X-62899766Y70447444D01*
X-62857121Y70606598D01*
X-62857121Y70606600D01*
X-62855697Y70611913D01*
X-62835742Y70840000D01*
X-62855697Y71068087D01*
X-62887838Y71188038D01*
X-62913533Y71283933D01*
X-62913534Y71283935D01*
X-62914956Y71289243D01*
X-62946864Y71357670D01*
X-63009391Y71491762D01*
X-63009394Y71491768D01*
X-63011717Y71496749D01*
X-63093063Y71612923D01*
X-63139883Y71679789D01*
X-63139885Y71679792D01*
X-63143042Y71684300D01*
X-63304940Y71846198D01*
X-63309448Y71849355D01*
X-63309451Y71849357D01*
X-63387629Y71904098D01*
X-63492491Y71977523D01*
X-63497473Y71979846D01*
X-63497478Y71979849D01*
X-63531697Y71995805D01*
X-63584982Y72042722D01*
X-63604443Y72110999D01*
X-63583901Y72178959D01*
X-63531697Y72224195D01*
X-63497478Y72240151D01*
X-63497473Y72240154D01*
X-63492491Y72242477D01*
X-63387629Y72315902D01*
X-63309451Y72370643D01*
X-63309448Y72370645D01*
X-63304940Y72373802D01*
X-63143042Y72535700D01*
X-63011717Y72723251D01*
X-63009394Y72728233D01*
X-63009391Y72728238D01*
X-62917279Y72925775D01*
X-62917279Y72925776D01*
X-62914956Y72930757D01*
X-62869912Y73098860D01*
X-62857121Y73146598D01*
X-62857121Y73146600D01*
X-62855697Y73151913D01*
X-62835742Y73380000D01*
X-62855697Y73608087D01*
X-62857121Y73613402D01*
X-62913533Y73823933D01*
X-62913534Y73823935D01*
X-62914956Y73829243D01*
X-62917279Y73834225D01*
X-63009391Y74031762D01*
X-63009394Y74031767D01*
X-63011717Y74036749D01*
X-63143042Y74224300D01*
X-63304940Y74386198D01*
X-63309448Y74389355D01*
X-63309451Y74389357D01*
X-63393266Y74448045D01*
X-63492491Y74517523D01*
X-63497473Y74519846D01*
X-63497478Y74519849D01*
X-63531697Y74535805D01*
X-63584982Y74582722D01*
X-63604443Y74650999D01*
X-63583901Y74718959D01*
X-63531697Y74764195D01*
X-63497478Y74780151D01*
X-63497473Y74780154D01*
X-63492491Y74782477D01*
X-63324811Y74899888D01*
X-63309451Y74910643D01*
X-63309448Y74910645D01*
X-63304940Y74913802D01*
X-63143042Y75075700D01*
X-63011717Y75263251D01*
X-63009394Y75268233D01*
X-63009391Y75268238D01*
X-62917279Y75465775D01*
X-62917279Y75465776D01*
X-62914956Y75470757D01*
X-62911273Y75484500D01*
X-62857121Y75686598D01*
X-62857121Y75686600D01*
X-62855697Y75691913D01*
X-62838161Y75892345D01*
X-61149382Y75892345D01*
X-61114136Y75633362D01*
X-61112828Y75628876D01*
X-61112828Y75628874D01*
X-61093142Y75561336D01*
X-61040997Y75382433D01*
X-60931572Y75145072D01*
X-60929009Y75141163D01*
X-60790830Y74930404D01*
X-60790826Y74930399D01*
X-60788264Y74926491D01*
X-60755906Y74890237D01*
X-60617432Y74735091D01*
X-60614222Y74731494D01*
X-60413270Y74564363D01*
X-60409267Y74561934D01*
X-60193818Y74431196D01*
X-60193814Y74431194D01*
X-60189821Y74428771D01*
X-59948785Y74327697D01*
X-59695457Y74263359D01*
X-59690806Y74262891D01*
X-59690802Y74262890D01*
X-59497932Y74243469D01*
X-59478373Y74241500D01*
X-59322886Y74241500D01*
X-59320561Y74241673D01*
X-59320555Y74241673D01*
X-59133240Y74255593D01*
X-59133236Y74255594D01*
X-59128588Y74255939D01*
X-59124040Y74256968D01*
X-59124034Y74256969D01*
X-58906481Y74306197D01*
X-58873663Y74313623D01*
X-58853921Y74321300D01*
X-58634416Y74406660D01*
X-58634413Y74406661D01*
X-58630063Y74408353D01*
X-58403142Y74538049D01*
X-58197883Y74699862D01*
X-58018797Y74890237D01*
X-57905167Y75054033D01*
X-57872481Y75101149D01*
X-57872479Y75101152D01*
X-57869816Y75104991D01*
X-57816157Y75213800D01*
X-57756280Y75335219D01*
X-57756279Y75335222D01*
X-57754215Y75339407D01*
X-57751153Y75348971D01*
X-57675960Y75583877D01*
X-57674533Y75588335D01*
X-57632519Y75846307D01*
X-57630046Y76035195D01*
X-57629159Y76102978D01*
X-57629159Y76102981D01*
X-57629098Y76107655D01*
X-57664344Y76366638D01*
X-57678767Y76416123D01*
X-57708054Y76516601D01*
X-57737483Y76617567D01*
X-57846908Y76854928D01*
X-57901636Y76938402D01*
X-57987650Y77069596D01*
X-57987654Y77069601D01*
X-57990216Y77073509D01*
X-58135787Y77236607D01*
X-58161143Y77265016D01*
X-58164258Y77268506D01*
X-58365210Y77435637D01*
X-58451505Y77488002D01*
X-58584662Y77568804D01*
X-58584666Y77568806D01*
X-58588659Y77571229D01*
X-58829695Y77672303D01*
X-59083023Y77736641D01*
X-59087674Y77737109D01*
X-59087678Y77737110D01*
X-59296969Y77758184D01*
X-59300107Y77758500D01*
X-59455594Y77758500D01*
X-59457919Y77758327D01*
X-59457925Y77758327D01*
X-59645240Y77744407D01*
X-59645244Y77744406D01*
X-59649892Y77744061D01*
X-59654440Y77743032D01*
X-59654446Y77743031D01*
X-59840841Y77700853D01*
X-59904817Y77686377D01*
X-59909169Y77684685D01*
X-59909171Y77684684D01*
X-60144064Y77593340D01*
X-60144067Y77593339D01*
X-60148417Y77591647D01*
X-60375338Y77461951D01*
X-60580597Y77300138D01*
X-60759683Y77109763D01*
X-60908664Y76895009D01*
X-60910730Y76890819D01*
X-60910732Y76890816D01*
X-60973122Y76764300D01*
X-61024265Y76660593D01*
X-61103947Y76411665D01*
X-61145961Y76153693D01*
X-61146977Y76076039D01*
X-61148968Y75923940D01*
X-61149382Y75892345D01*
X-62838161Y75892345D01*
X-62835742Y75920000D01*
X-62855697Y76148087D01*
X-62869804Y76200734D01*
X-62913533Y76363933D01*
X-62913534Y76363935D01*
X-62914956Y76369243D01*
X-62918285Y76376382D01*
X-63009391Y76571762D01*
X-63009394Y76571767D01*
X-63011717Y76576749D01*
X-63143042Y76764300D01*
X-63304940Y76926198D01*
X-63309448Y76929355D01*
X-63309451Y76929357D01*
X-63396904Y76990592D01*
X-63492491Y77057523D01*
X-63497473Y77059846D01*
X-63497478Y77059849D01*
X-63532289Y77076081D01*
X-63585574Y77122998D01*
X-63605035Y77191275D01*
X-63584493Y77259235D01*
X-63532289Y77304471D01*
X-63497729Y77320586D01*
X-63488233Y77326069D01*
X-63309773Y77451028D01*
X-63301365Y77458084D01*
X-63147324Y77612125D01*
X-63140268Y77620533D01*
X-63015309Y77798993D01*
X-63009826Y77808489D01*
X-62917750Y78005947D01*
X-62914004Y78016239D01*
X-62867846Y78188503D01*
X-62868182Y78202599D01*
X-62876124Y78206000D01*
X-65417207Y78206000D01*
X-65430738Y78202027D01*
X-65431967Y78193478D01*
X-65384476Y78016239D01*
X-65380730Y78005947D01*
X-65288654Y77808489D01*
X-65283171Y77798993D01*
X-65158212Y77620533D01*
X-65151156Y77612125D01*
X-64997115Y77458084D01*
X-64988707Y77451028D01*
X-64810247Y77326069D01*
X-64800751Y77320586D01*
X-64766191Y77304471D01*
X-64712906Y77257554D01*
X-64693445Y77189277D01*
X-64713987Y77121317D01*
X-64766191Y77076081D01*
X-64801002Y77059849D01*
X-64801007Y77059846D01*
X-64805989Y77057523D01*
X-64901576Y76990592D01*
X-64989029Y76929357D01*
X-64989032Y76929355D01*
X-64993540Y76926198D01*
X-65155438Y76764300D01*
X-65286763Y76576749D01*
X-65289086Y76571767D01*
X-65289089Y76571762D01*
X-65380195Y76376382D01*
X-65383524Y76369243D01*
X-65384946Y76363935D01*
X-65384947Y76363933D01*
X-65428676Y76200734D01*
X-65442783Y76148087D01*
X-65462738Y75920000D01*
X-65442783Y75691913D01*
X-65441359Y75686600D01*
X-65441359Y75686598D01*
X-65387206Y75484500D01*
X-65383524Y75470757D01*
X-65381201Y75465776D01*
X-65381201Y75465775D01*
X-65289089Y75268238D01*
X-65289086Y75268233D01*
X-65286763Y75263251D01*
X-65155438Y75075700D01*
X-64993540Y74913802D01*
X-64989032Y74910645D01*
X-64989029Y74910643D01*
X-64973669Y74899888D01*
X-64805989Y74782477D01*
X-64801007Y74780154D01*
X-64801002Y74780151D01*
X-64766783Y74764195D01*
X-64713498Y74717278D01*
X-64694037Y74649001D01*
X-64714579Y74581041D01*
X-64766783Y74535805D01*
X-64801002Y74519849D01*
X-64801007Y74519846D01*
X-64805989Y74517523D01*
X-64905214Y74448045D01*
X-64989029Y74389357D01*
X-64989032Y74389355D01*
X-64993540Y74386198D01*
X-65155438Y74224300D01*
X-65286763Y74036749D01*
X-65289086Y74031767D01*
X-65289089Y74031762D01*
X-65381201Y73834225D01*
X-65383524Y73829243D01*
X-65384946Y73823935D01*
X-65384947Y73823933D01*
X-65441359Y73613402D01*
X-65442783Y73608087D01*
X-65462738Y73380000D01*
X-65442783Y73151913D01*
X-65441359Y73146600D01*
X-65441359Y73146598D01*
X-65428567Y73098860D01*
X-65383524Y72930757D01*
X-65381201Y72925776D01*
X-65381201Y72925775D01*
X-65289089Y72728238D01*
X-65289086Y72728233D01*
X-65286763Y72723251D01*
X-65155438Y72535700D01*
X-64993540Y72373802D01*
X-64989032Y72370645D01*
X-64989029Y72370643D01*
X-64910851Y72315902D01*
X-64805989Y72242477D01*
X-64801007Y72240154D01*
X-64801002Y72240151D01*
X-64766783Y72224195D01*
X-64713498Y72177278D01*
X-64694037Y72109001D01*
X-64714579Y72041041D01*
X-64766783Y71995805D01*
X-64801002Y71979849D01*
X-64801007Y71979846D01*
X-64805989Y71977523D01*
X-64910851Y71904098D01*
X-64989029Y71849357D01*
X-64989032Y71849355D01*
X-64993540Y71846198D01*
X-65155438Y71684300D01*
X-65158595Y71679792D01*
X-65158597Y71679789D01*
X-65205417Y71612923D01*
X-65286763Y71496749D01*
X-65289086Y71491768D01*
X-65289089Y71491762D01*
X-65351616Y71357670D01*
X-65383524Y71289243D01*
X-65384946Y71283935D01*
X-65384947Y71283933D01*
X-65410642Y71188038D01*
X-65442783Y71068087D01*
X-65462738Y70840000D01*
X-65442783Y70611913D01*
X-65441359Y70606600D01*
X-65441359Y70606598D01*
X-65398713Y70447444D01*
X-65383524Y70390757D01*
X-65381201Y70385776D01*
X-65381201Y70385775D01*
X-65289089Y70188238D01*
X-65289086Y70188233D01*
X-65286763Y70183251D01*
X-65155438Y69995700D01*
X-64993540Y69833802D01*
X-64989032Y69830645D01*
X-64989029Y69830643D01*
X-64936119Y69793595D01*
X-64805989Y69702477D01*
X-64801007Y69700154D01*
X-64801002Y69700151D01*
X-64766783Y69684195D01*
X-64713498Y69637278D01*
X-64694037Y69569001D01*
X-64714579Y69501041D01*
X-64766783Y69455805D01*
X-64801002Y69439849D01*
X-64801007Y69439846D01*
X-64805989Y69437523D01*
X-64910851Y69364098D01*
X-64989029Y69309357D01*
X-64989032Y69309355D01*
X-64993540Y69306198D01*
X-65155438Y69144300D01*
X-65158595Y69139792D01*
X-65158597Y69139789D01*
X-65213338Y69061611D01*
X-65286763Y68956749D01*
X-65289086Y68951767D01*
X-65289089Y68951762D01*
X-65372006Y68773943D01*
X-65383524Y68749243D01*
X-65384946Y68743935D01*
X-65384947Y68743933D01*
X-65441359Y68533402D01*
X-65442783Y68528087D01*
X-65462738Y68300000D01*
X-65442783Y68071913D01*
X-65441359Y68066600D01*
X-65441359Y68066598D01*
X-65387347Y67865026D01*
X-65383524Y67850757D01*
X-65381201Y67845776D01*
X-65381201Y67845775D01*
X-65289089Y67648238D01*
X-65289086Y67648233D01*
X-65286763Y67643251D01*
X-65241477Y67578576D01*
X-65167054Y67472290D01*
X-65155438Y67455700D01*
X-64993540Y67293802D01*
X-64989032Y67290645D01*
X-64989029Y67290643D01*
X-64910851Y67235902D01*
X-64805989Y67162477D01*
X-64801007Y67160154D01*
X-64801002Y67160151D01*
X-64766783Y67144195D01*
X-64713498Y67097278D01*
X-64694037Y67029001D01*
X-64714579Y66961041D01*
X-64766783Y66915805D01*
X-64801002Y66899849D01*
X-64801007Y66899846D01*
X-64805989Y66897523D01*
X-64865290Y66856000D01*
X-64989029Y66769357D01*
X-64989032Y66769355D01*
X-64993540Y66766198D01*
X-65155438Y66604300D01*
X-65158595Y66599792D01*
X-65158597Y66599789D01*
X-65202886Y66536538D01*
X-65286763Y66416749D01*
X-65289086Y66411767D01*
X-65289089Y66411762D01*
X-65349556Y66282088D01*
X-65383524Y66209243D01*
X-65384946Y66203935D01*
X-65384947Y66203933D01*
X-65441359Y65993402D01*
X-65442783Y65988087D01*
X-65462738Y65760000D01*
X-65442783Y65531913D01*
X-65441359Y65526600D01*
X-65441359Y65526598D01*
X-65388127Y65327937D01*
X-65383524Y65310757D01*
X-65381201Y65305776D01*
X-65381201Y65305775D01*
X-65289089Y65108238D01*
X-65289086Y65108233D01*
X-65286763Y65103251D01*
X-65214932Y65000666D01*
X-65176159Y64945293D01*
X-65155438Y64915700D01*
X-64993540Y64753802D01*
X-64989032Y64750645D01*
X-64989029Y64750643D01*
X-64910851Y64695902D01*
X-64805989Y64622477D01*
X-64801007Y64620154D01*
X-64801002Y64620151D01*
X-64766783Y64604195D01*
X-64713498Y64557278D01*
X-64694037Y64489001D01*
X-64714579Y64421041D01*
X-64766783Y64375805D01*
X-64801002Y64359849D01*
X-64801007Y64359846D01*
X-64805989Y64357523D01*
X-64891141Y64297899D01*
X-64989029Y64229357D01*
X-64989032Y64229355D01*
X-64993540Y64226198D01*
X-65155438Y64064300D01*
X-65286763Y63876749D01*
X-65289086Y63871767D01*
X-65289089Y63871762D01*
X-65306393Y63834652D01*
X-65383524Y63669243D01*
X-65442783Y63448087D01*
X-65451454Y63348971D01*
X-65453735Y63322899D01*
X-65479598Y63256781D01*
X-65490161Y63244785D01*
X-66521030Y62213916D01*
X-66523552Y62211463D01*
X-66579404Y62158647D01*
X-66579408Y62158642D01*
X-66584040Y62154262D01*
X-66587700Y62149035D01*
X-66617340Y62106706D01*
X-66622908Y62099343D01*
X-66636663Y62082477D01*
X-66659610Y62054341D01*
X-66662566Y62048686D01*
X-66662569Y62048682D01*
X-66672348Y62029976D01*
X-66680797Y62016079D01*
X-66696568Y61993556D01*
X-66709148Y61964484D01*
X-66719628Y61940266D01*
X-66723605Y61931929D01*
X-66750503Y61880479D01*
X-66752261Y61874347D01*
X-66758083Y61854043D01*
X-66763564Y61838735D01*
X-66774483Y61813504D01*
X-66775788Y61807256D01*
X-66781403Y61780380D01*
X-66814913Y61717790D01*
X-66876942Y61683252D01*
X-66947797Y61687732D01*
X-67004982Y61729808D01*
X-67030341Y61796122D01*
X-67030740Y61806147D01*
X-67030740Y62898134D01*
X-67037495Y62960316D01*
X-67088625Y63096705D01*
X-67175979Y63213261D01*
X-67292535Y63300615D01*
X-67428924Y63351745D01*
X-67491106Y63358500D01*
X-69287374Y63358500D01*
X-69349556Y63351745D01*
X-69485945Y63300615D01*
X-69602501Y63213261D01*
X-69689855Y63096705D01*
X-69740985Y62960316D01*
X-69747740Y62898134D01*
X-69747740Y61736107D01*
X-69767742Y61667986D01*
X-69784645Y61647012D01*
X-70682760Y60748897D01*
X-70697173Y60736510D01*
X-70708053Y60728504D01*
X-70708057Y60728500D01*
X-70713952Y60724162D01*
X-70718695Y60718579D01*
X-70747107Y60685136D01*
X-70754037Y60677620D01*
X-70759472Y60672185D01*
X-70776578Y60650563D01*
X-70779337Y60647198D01*
X-70825237Y60593171D01*
X-70828567Y60586649D01*
X-70831721Y60581920D01*
X-70834689Y60577116D01*
X-70839232Y60571373D01*
X-70842330Y60564744D01*
X-70842332Y60564741D01*
X-70869251Y60507142D01*
X-70871184Y60503189D01*
X-70897367Y60451913D01*
X-70903403Y60440093D01*
X-70905143Y60432984D01*
X-70907119Y60427670D01*
X-70908910Y60422287D01*
X-70912007Y60415660D01*
X-70913496Y60408503D01*
X-70913497Y60408499D01*
X-70926447Y60346240D01*
X-70927418Y60341953D01*
X-70944256Y60273138D01*
X-70944929Y60262291D01*
X-70944954Y60262293D01*
X-70945215Y60257946D01*
X-70945518Y60254548D01*
X-70947009Y60247381D01*
X-70946811Y60240064D01*
X-70944975Y60172208D01*
X-70944929Y60168800D01*
X-70944929Y58722919D01*
X-70964931Y58654798D01*
X-71018587Y58608305D01*
X-71077522Y58597092D01*
X-71122944Y58599472D01*
X-71189925Y58623011D01*
X-71233546Y58679026D01*
X-71242351Y58725299D01*
X-71242351Y59524766D01*
X-71240918Y59543717D01*
X-71238885Y59557078D01*
X-71238885Y59557081D01*
X-71237785Y59564311D01*
X-71238965Y59578827D01*
X-71241936Y59615343D01*
X-71242351Y59625558D01*
X-71242351Y59633252D01*
X-71245542Y59660625D01*
X-71245975Y59664999D01*
X-71251126Y59728329D01*
X-71251127Y59728333D01*
X-71251720Y59735626D01*
X-71253974Y59742586D01*
X-71255091Y59748174D01*
X-71256389Y59753666D01*
X-71257237Y59760935D01*
X-71259734Y59767815D01*
X-71259736Y59767822D01*
X-71281432Y59827592D01*
X-71282840Y59831691D01*
X-71304690Y59899140D01*
X-71308486Y59905397D01*
X-71310844Y59910547D01*
X-71313386Y59915622D01*
X-71315883Y59922501D01*
X-71354758Y59981796D01*
X-71357081Y59985478D01*
X-71390951Y60041293D01*
X-71390953Y60041295D01*
X-71393858Y60046083D01*
X-71401052Y60054229D01*
X-71401033Y60054246D01*
X-71403940Y60057523D01*
X-71406107Y60060115D01*
X-71410124Y60066242D01*
X-71464725Y60117966D01*
X-71467166Y60120343D01*
X-72993835Y61647012D01*
X-73027861Y61709324D01*
X-73030740Y61736107D01*
X-73030740Y62898134D01*
X-73037495Y62960316D01*
X-73088625Y63096705D01*
X-73175979Y63213261D01*
X-73292535Y63300615D01*
X-73428924Y63351745D01*
X-73491106Y63358500D01*
X-75287374Y63358500D01*
X-75349556Y63351745D01*
X-75485945Y63300615D01*
X-75602501Y63213261D01*
X-75689855Y63096705D01*
X-75740985Y62960316D01*
X-75747740Y62898134D01*
X-75747740Y61101866D01*
X-75740985Y61039684D01*
X-75689855Y60903295D01*
X-75602501Y60786739D01*
X-75485945Y60699385D01*
X-75477536Y60696233D01*
X-75477535Y60696232D01*
X-75368789Y60655465D01*
X-75312024Y60612824D01*
X-75287324Y60546262D01*
X-75302531Y60476913D01*
X-75321924Y60450432D01*
X-75439900Y60326977D01*
X-75448611Y60317862D01*
X-75451525Y60313590D01*
X-75451526Y60313589D01*
X-75513774Y60222336D01*
X-75574497Y60133320D01*
X-75668552Y59930695D01*
X-75728251Y59715430D01*
X-75751989Y59493305D01*
X-75751692Y59488152D01*
X-75751692Y59488149D01*
X-75740073Y59286632D01*
X-75739130Y59270285D01*
X-75737993Y59265239D01*
X-75737992Y59265233D01*
X-75725945Y59211778D01*
X-75690018Y59052361D01*
X-75605974Y58845384D01*
X-75567159Y58782043D01*
X-75493294Y58661507D01*
X-75489253Y58654912D01*
X-75342990Y58486062D01*
X-75171114Y58343368D01*
X-75137528Y58323742D01*
X-75097795Y58300524D01*
X-75049071Y58248886D01*
X-75036000Y58179103D01*
X-75062731Y58113331D01*
X-75103185Y58079973D01*
X-75115633Y58073493D01*
X-75119766Y58070390D01*
X-75119769Y58070388D01*
X-75283113Y57947746D01*
X-75294275Y57939365D01*
X-75297847Y57935627D01*
X-75415955Y57812034D01*
X-75448611Y57777862D01*
X-75451525Y57773590D01*
X-75451526Y57773589D01*
X-75523741Y57667725D01*
X-75574497Y57593320D01*
X-75590237Y57559410D01*
X-75662320Y57404120D01*
X-75668552Y57390695D01*
X-75728251Y57175430D01*
X-75751989Y56953305D01*
X-78807345Y56953305D01*
X-78771697Y56984195D01*
X-78737478Y57000151D01*
X-78737473Y57000154D01*
X-78732491Y57002477D01*
X-78627629Y57075902D01*
X-78549451Y57130643D01*
X-78549448Y57130645D01*
X-78544940Y57133802D01*
X-78383042Y57295700D01*
X-78376371Y57305226D01*
X-78311214Y57398281D01*
X-78251717Y57483251D01*
X-78249394Y57488233D01*
X-78249391Y57488238D01*
X-78157279Y57685775D01*
X-78157279Y57685776D01*
X-78154956Y57690757D01*
X-78138863Y57750814D01*
X-78097121Y57906598D01*
X-78097121Y57906600D01*
X-78095697Y57911913D01*
X-78075742Y58140000D01*
X-78095697Y58368087D01*
X-78102068Y58391863D01*
X-78153533Y58583933D01*
X-78153534Y58583935D01*
X-78154956Y58589243D01*
X-78163845Y58608305D01*
X-78249391Y58791762D01*
X-78249394Y58791767D01*
X-78251717Y58796749D01*
X-78368220Y58963132D01*
X-78379883Y58979789D01*
X-78379885Y58979792D01*
X-78383042Y58984300D01*
X-78544940Y59146198D01*
X-78549448Y59149355D01*
X-78549451Y59149357D01*
X-78670604Y59234189D01*
X-78732491Y59277523D01*
X-78737473Y59279846D01*
X-78737478Y59279849D01*
X-78771697Y59295805D01*
X-78824982Y59342722D01*
X-78844443Y59410999D01*
X-78823901Y59478959D01*
X-78771697Y59524195D01*
X-78737478Y59540151D01*
X-78737473Y59540154D01*
X-78732491Y59542477D01*
X-78611426Y59627248D01*
X-78549451Y59670643D01*
X-78549448Y59670645D01*
X-78544940Y59673802D01*
X-78383042Y59835700D01*
X-78251717Y60023251D01*
X-78249394Y60028233D01*
X-78249391Y60028238D01*
X-78157279Y60225775D01*
X-78157279Y60225776D01*
X-78154956Y60230757D01*
X-78150501Y60247381D01*
X-78097121Y60446598D01*
X-78097121Y60446600D01*
X-78095697Y60451913D01*
X-78075742Y60680000D01*
X-78095697Y60908087D01*
X-78128976Y61032285D01*
X-78153533Y61123933D01*
X-78153534Y61123935D01*
X-78154956Y61129243D01*
X-78163007Y61146509D01*
X-78249391Y61331762D01*
X-78249394Y61331767D01*
X-78251717Y61336749D01*
X-78383042Y61524300D01*
X-78544940Y61686198D01*
X-78549448Y61689355D01*
X-78549451Y61689357D01*
X-78647335Y61757896D01*
X-78732491Y61817523D01*
X-78737473Y61819846D01*
X-78737478Y61819849D01*
X-78771697Y61835805D01*
X-78824982Y61882722D01*
X-78844443Y61950999D01*
X-78823901Y62018959D01*
X-78771697Y62064195D01*
X-78737478Y62080151D01*
X-78737473Y62080154D01*
X-78732491Y62082477D01*
X-78589272Y62182760D01*
X-78549451Y62210643D01*
X-78549448Y62210645D01*
X-78544940Y62213802D01*
X-78383042Y62375700D01*
X-78251717Y62563251D01*
X-78249394Y62568233D01*
X-78249391Y62568238D01*
X-78157279Y62765775D01*
X-78157279Y62765776D01*
X-78154956Y62770757D01*
X-78095697Y62991913D01*
X-78075742Y63220000D01*
X-78095697Y63448087D01*
X-78097121Y63453402D01*
X-78153533Y63663933D01*
X-78153534Y63663935D01*
X-78154956Y63669243D01*
X-78232087Y63834652D01*
X-78249391Y63871762D01*
X-78249394Y63871767D01*
X-78251717Y63876749D01*
X-78383042Y64064300D01*
X-78544940Y64226198D01*
X-78549448Y64229355D01*
X-78549451Y64229357D01*
X-78647339Y64297899D01*
X-78732491Y64357523D01*
X-78737473Y64359846D01*
X-78737478Y64359849D01*
X-78771697Y64375805D01*
X-78824982Y64422722D01*
X-78844443Y64490999D01*
X-78823901Y64558959D01*
X-78771697Y64604195D01*
X-78737478Y64620151D01*
X-78737473Y64620154D01*
X-78732491Y64622477D01*
X-78627629Y64695902D01*
X-78549451Y64750643D01*
X-78549448Y64750645D01*
X-78544940Y64753802D01*
X-78383042Y64915700D01*
X-78362320Y64945293D01*
X-78323548Y65000666D01*
X-78251717Y65103251D01*
X-78249394Y65108233D01*
X-78249391Y65108238D01*
X-78157279Y65305775D01*
X-78157279Y65305776D01*
X-78154956Y65310757D01*
X-78150352Y65327937D01*
X-78097121Y65526598D01*
X-78097121Y65526600D01*
X-78095697Y65531913D01*
X-78075742Y65760000D01*
X-78095697Y65988087D01*
X-78097121Y65993402D01*
X-78153533Y66203933D01*
X-78153534Y66203935D01*
X-78154956Y66209243D01*
X-78188924Y66282088D01*
X-78249391Y66411762D01*
X-78249394Y66411767D01*
X-78251717Y66416749D01*
X-78335594Y66536538D01*
X-78379883Y66599789D01*
X-78379885Y66599792D01*
X-78383042Y66604300D01*
X-78544940Y66766198D01*
X-78549448Y66769355D01*
X-78549451Y66769357D01*
X-78673190Y66856000D01*
X-78732491Y66897523D01*
X-78737479Y66899849D01*
X-78742240Y66902598D01*
X-78741351Y66904137D01*
X-78790049Y66947793D01*
X-78803647Y66970202D01*
X-78802433Y66970938D01*
X-78824379Y67031279D01*
X-78808721Y67100527D01*
X-78751882Y67153434D01*
X-78737484Y67160148D01*
X-78737477Y67160152D01*
X-78732491Y67162477D01*
X-78627629Y67235902D01*
X-78549451Y67290643D01*
X-78549448Y67290645D01*
X-78544940Y67293802D01*
X-78383042Y67455700D01*
X-78371425Y67472290D01*
X-78297003Y67578576D01*
X-78251717Y67643251D01*
X-78249394Y67648233D01*
X-78249391Y67648238D01*
X-78157279Y67845775D01*
X-78157279Y67845776D01*
X-78154956Y67850757D01*
X-78151132Y67865026D01*
X-78097121Y68066598D01*
X-78097121Y68066600D01*
X-78095697Y68071913D01*
X-78075742Y68300000D01*
X-78095697Y68528087D01*
X-78097121Y68533402D01*
X-78153533Y68743933D01*
X-78153534Y68743935D01*
X-78154956Y68749243D01*
X-78166474Y68773943D01*
X-78249391Y68951762D01*
X-78249394Y68951767D01*
X-78251717Y68956749D01*
X-78325142Y69061611D01*
X-78379883Y69139789D01*
X-78379885Y69139792D01*
X-78383042Y69144300D01*
X-78544940Y69306198D01*
X-78549448Y69309355D01*
X-78549451Y69309357D01*
X-78627629Y69364098D01*
X-78732491Y69437523D01*
X-78737473Y69439846D01*
X-78737478Y69439849D01*
X-78771697Y69455805D01*
X-78824982Y69502722D01*
X-78844443Y69570999D01*
X-78823901Y69638959D01*
X-78771697Y69684195D01*
X-78737478Y69700151D01*
X-78737473Y69700154D01*
X-78732491Y69702477D01*
X-78602361Y69793595D01*
X-78549451Y69830643D01*
X-78549448Y69830645D01*
X-78544940Y69833802D01*
X-78383042Y69995700D01*
X-78251717Y70183251D01*
X-78249394Y70188233D01*
X-78249391Y70188238D01*
X-78157279Y70385775D01*
X-78157279Y70385776D01*
X-78154956Y70390757D01*
X-78139766Y70447444D01*
X-78097121Y70606598D01*
X-78097121Y70606600D01*
X-78095697Y70611913D01*
X-78075742Y70840000D01*
X-78095697Y71068087D01*
X-78127838Y71188038D01*
X-78153533Y71283933D01*
X-78153534Y71283935D01*
X-78154956Y71289243D01*
X-78186864Y71357670D01*
X-78249391Y71491762D01*
X-78249394Y71491768D01*
X-78251717Y71496749D01*
X-78333063Y71612923D01*
X-78379883Y71679789D01*
X-78379885Y71679792D01*
X-78383042Y71684300D01*
X-78544940Y71846198D01*
X-78549448Y71849355D01*
X-78549451Y71849357D01*
X-78653116Y71921944D01*
X-78732491Y71977523D01*
X-78749472Y71985441D01*
X-78797707Y72024958D01*
X-78800735Y72029073D01*
X-78803647Y72033872D01*
X-78807360Y72038077D01*
X-78809365Y72040801D01*
X-78833629Y72107523D01*
X-78817968Y72176771D01*
X-78761131Y72229673D01*
X-78737735Y72240583D01*
X-78728233Y72246069D01*
X-78549773Y72371028D01*
X-78541365Y72378084D01*
X-78387324Y72532125D01*
X-78380268Y72540533D01*
X-78255309Y72718993D01*
X-78249826Y72728489D01*
X-78157750Y72925947D01*
X-78154004Y72936239D01*
X-78107846Y73108503D01*
X-78108182Y73122599D01*
X-78116124Y73126000D01*
X-79517240Y73126000D01*
X-79585361Y73146002D01*
X-79631854Y73199658D01*
X-79643240Y73252000D01*
X-79643240Y73652115D01*
X-79135240Y73652115D01*
X-79130765Y73636876D01*
X-79129375Y73635671D01*
X-79121692Y73634000D01*
X-78121273Y73634000D01*
X-78107742Y73637973D01*
X-78106513Y73646522D01*
X-78154004Y73823761D01*
X-78157750Y73834053D01*
X-78249826Y74031511D01*
X-78255309Y74041007D01*
X-78380268Y74219467D01*
X-78387324Y74227875D01*
X-78541365Y74381916D01*
X-78549773Y74388972D01*
X-78728233Y74513931D01*
X-78737729Y74519414D01*
X-78772881Y74535805D01*
X-78826166Y74582722D01*
X-78845627Y74650999D01*
X-78825085Y74718959D01*
X-78772881Y74764195D01*
X-78737729Y74780586D01*
X-78728233Y74786069D01*
X-78549773Y74911028D01*
X-78541365Y74918084D01*
X-78387324Y75072125D01*
X-78380268Y75080533D01*
X-78255309Y75258993D01*
X-78249826Y75268489D01*
X-78157750Y75465947D01*
X-78154004Y75476239D01*
X-78107846Y75648503D01*
X-78108182Y75662599D01*
X-78116124Y75666000D01*
X-79117125Y75666000D01*
X-79132364Y75661525D01*
X-79133569Y75660135D01*
X-79135240Y75652452D01*
X-79135240Y73652115D01*
X-79643240Y73652115D01*
X-79643240Y75647885D01*
X-79647715Y75663124D01*
X-79649105Y75664329D01*
X-79656788Y75666000D01*
X-80657207Y75666000D01*
X-80670738Y75662027D01*
X-80671967Y75653478D01*
X-80624476Y75476239D01*
X-80620730Y75465947D01*
X-80528654Y75268489D01*
X-80523171Y75258993D01*
X-80398212Y75080533D01*
X-80391156Y75072125D01*
X-80237115Y74918084D01*
X-80228707Y74911028D01*
X-80050247Y74786069D01*
X-80040751Y74780586D01*
X-80005599Y74764195D01*
X-79952314Y74717278D01*
X-79932853Y74649001D01*
X-79953395Y74581041D01*
X-80005599Y74535805D01*
X-80040751Y74519414D01*
X-80050247Y74513931D01*
X-80228707Y74388972D01*
X-80237115Y74381916D01*
X-80391156Y74227875D01*
X-80398212Y74219467D01*
X-80523171Y74041007D01*
X-80528653Y74031512D01*
X-80539002Y74009317D01*
X-80585918Y73956031D01*
X-80654195Y73936569D01*
X-80722155Y73957109D01*
X-80742293Y73973470D01*
X-81243754Y74474931D01*
X-81256141Y74489344D01*
X-81264147Y74500224D01*
X-81264151Y74500228D01*
X-81268489Y74506123D01*
X-81307515Y74539278D01*
X-81315031Y74546208D01*
X-81320466Y74551643D01*
X-81342088Y74568749D01*
X-81345454Y74571509D01*
X-81358652Y74582722D01*
X-81399480Y74617408D01*
X-81406002Y74620738D01*
X-81410731Y74623892D01*
X-81415535Y74626860D01*
X-81421278Y74631403D01*
X-81427907Y74634501D01*
X-81427910Y74634503D01*
X-81485509Y74661422D01*
X-81489462Y74663355D01*
X-81546038Y74692245D01*
X-81546040Y74692246D01*
X-81552558Y74695574D01*
X-81559667Y74697314D01*
X-81564981Y74699290D01*
X-81570364Y74701081D01*
X-81576991Y74704178D01*
X-81584148Y74705667D01*
X-81584152Y74705668D01*
X-81646411Y74718618D01*
X-81650698Y74719589D01*
X-81699353Y74731494D01*
X-81719513Y74736427D01*
X-81725120Y74736775D01*
X-81725121Y74736775D01*
X-81730360Y74737100D01*
X-81730358Y74737125D01*
X-81734705Y74737386D01*
X-81738103Y74737689D01*
X-81745270Y74739180D01*
X-81811573Y74737386D01*
X-81820443Y74737146D01*
X-81823851Y74737100D01*
X-81904740Y74737100D01*
X-81972861Y74757102D01*
X-82019354Y74810758D01*
X-82030740Y74863100D01*
X-82030740Y74898134D01*
X-82037495Y74960316D01*
X-82088625Y75096705D01*
X-82175979Y75213261D01*
X-82292535Y75300615D01*
X-82428924Y75351745D01*
X-82491106Y75358500D01*
X-84048140Y75358500D01*
X-84116261Y75378502D01*
X-84162754Y75432158D01*
X-84174140Y75484500D01*
X-84174140Y76219249D01*
X-84154138Y76287370D01*
X-84100482Y76333863D01*
X-84030208Y76343967D01*
X-84004045Y76336567D01*
X-84002841Y76335855D01*
X-83995230Y76333644D01*
X-83995228Y76333643D01*
X-83943009Y76318472D01*
X-83843071Y76289438D01*
X-83836666Y76288934D01*
X-83836661Y76288933D01*
X-83808198Y76286693D01*
X-83808190Y76286693D01*
X-83805742Y76286500D01*
X-82022738Y76286500D01*
X-82020290Y76286693D01*
X-82020282Y76286693D01*
X-81991819Y76288933D01*
X-81991814Y76288934D01*
X-81985409Y76289438D01*
X-81885471Y76318472D01*
X-81833252Y76333643D01*
X-81833250Y76333644D01*
X-81825639Y76335855D01*
X-81818029Y76340356D01*
X-81817247Y76340569D01*
X-81811543Y76343038D01*
X-81811192Y76342226D01*
X-81753894Y76357900D01*
X-80819685Y76357900D01*
X-80800735Y76356467D01*
X-80787373Y76354434D01*
X-80787370Y76354434D01*
X-80786369Y76354282D01*
X-80786367Y76354281D01*
X-80780140Y76353334D01*
X-80780302Y76352268D01*
X-80719384Y76332043D01*
X-80674794Y76276796D01*
X-80667151Y76206212D01*
X-80669460Y76195876D01*
X-80670634Y76191496D01*
X-80670298Y76177401D01*
X-80662356Y76174000D01*
X-78121273Y76174000D01*
X-78107742Y76177973D01*
X-78106513Y76186522D01*
X-78154004Y76363761D01*
X-78157750Y76374053D01*
X-78249826Y76571511D01*
X-78255309Y76581007D01*
X-78380268Y76759467D01*
X-78387324Y76767875D01*
X-78541365Y76921916D01*
X-78549773Y76928972D01*
X-78728233Y77053931D01*
X-78737729Y77059414D01*
X-78772289Y77075529D01*
X-78825574Y77122446D01*
X-78845035Y77190723D01*
X-78824493Y77258683D01*
X-78772289Y77303919D01*
X-78737478Y77320151D01*
X-78737473Y77320154D01*
X-78732491Y77322477D01*
X-78567413Y77438066D01*
X-78549451Y77450643D01*
X-78549448Y77450645D01*
X-78544940Y77453802D01*
X-78383042Y77615700D01*
X-78357899Y77651607D01*
X-78293884Y77743031D01*
X-78251717Y77803251D01*
X-78249394Y77808233D01*
X-78249391Y77808238D01*
X-78157279Y78005775D01*
X-78157279Y78005776D01*
X-78154956Y78010757D01*
X-78134697Y78086362D01*
X-78097121Y78226598D01*
X-78097121Y78226600D01*
X-78095697Y78231913D01*
X-78075742Y78460000D01*
X-78095697Y78688087D01*
X-78108263Y78734984D01*
X-78153533Y78903933D01*
X-78153534Y78903935D01*
X-78154956Y78909243D01*
X-78169017Y78939398D01*
X-78249391Y79111762D01*
X-78249394Y79111767D01*
X-78251717Y79116749D01*
X-78374937Y79292725D01*
X-78379883Y79299789D01*
X-78379885Y79299792D01*
X-78383042Y79304300D01*
X-78544940Y79466198D01*
X-78549451Y79469357D01*
X-78553664Y79472892D01*
X-78552713Y79474026D01*
X-78592711Y79524071D01*
X-78600016Y79594690D01*
X-78567982Y79658049D01*
X-78506778Y79694030D01*
X-78489723Y79697082D01*
X-78478924Y79698255D01*
X-78342535Y79749385D01*
X-78225979Y79836739D01*
X-78138625Y79953295D01*
X-78087495Y80089684D01*
X-78080740Y80151866D01*
X-78080740Y81365501D01*
X-78060738Y81433622D01*
X-78007082Y81480115D01*
X-77954740Y81491501D01*
X-66058637Y81491501D01*
X-65990516Y81471499D01*
X-65969542Y81454596D01*
X-65490161Y80975215D01*
X-65456135Y80912903D01*
X-65453735Y80897104D01*
X-65442783Y80771913D01*
X-65383524Y80550757D01*
X-65381201Y80545776D01*
X-65381201Y80545775D01*
X-65289089Y80348238D01*
X-65289086Y80348233D01*
X-65286763Y80343251D01*
X-65235472Y80270000D01*
X-65168446Y80174278D01*
X-65155438Y80155700D01*
X-64993540Y79993802D01*
X-64989032Y79990645D01*
X-64989029Y79990643D01*
X-64947698Y79961703D01*
X-64805989Y79862477D01*
X-64801007Y79860154D01*
X-64801002Y79860151D01*
X-64766191Y79843919D01*
X-64712906Y79797002D01*
X-64693445Y79728725D01*
X-64713987Y79660765D01*
X-64766191Y79615529D01*
X-64800751Y79599414D01*
X-64810247Y79593931D01*
X-64988707Y79468972D01*
X-64997115Y79461916D01*
X-65151156Y79307875D01*
X-65158212Y79299467D01*
X-65283171Y79121007D01*
X-65288654Y79111511D01*
X-65380730Y78914053D01*
X-65384476Y78903761D01*
X-65430634Y78731497D01*
X-65430298Y78717401D01*
X-65422356Y78714000D01*
X-62881273Y78714000D01*
X-62867742Y78717973D01*
X-62866513Y78726522D01*
X-62914004Y78903761D01*
X-62917750Y78914053D01*
X-63009826Y79111511D01*
X-63015309Y79121007D01*
X-63140268Y79299467D01*
X-63147324Y79307875D01*
X-63301365Y79461916D01*
X-63309773Y79468972D01*
X-63488233Y79593931D01*
X-63497729Y79599414D01*
X-63532289Y79615529D01*
X-63585574Y79662446D01*
X-63605035Y79730723D01*
X-63584493Y79798683D01*
X-63532289Y79843919D01*
X-63497478Y79860151D01*
X-63497473Y79860154D01*
X-63492491Y79862477D01*
X-63350782Y79961703D01*
X-63309451Y79990643D01*
X-63309448Y79990645D01*
X-63304940Y79993802D01*
X-63143042Y80155700D01*
X-63130033Y80174278D01*
X-63063008Y80270000D01*
X-63011717Y80343251D01*
X-63009394Y80348233D01*
X-63009391Y80348238D01*
X-62917279Y80545775D01*
X-62917279Y80545776D01*
X-62914956Y80550757D01*
X-62889705Y80644992D01*
X-62857121Y80766598D01*
X-62857121Y80766600D01*
X-62855697Y80771913D01*
X-62835742Y81000000D01*
X-62855697Y81228087D01*
X-62872347Y81290226D01*
X-62913533Y81443933D01*
X-62913534Y81443935D01*
X-62914956Y81449243D01*
X-62934661Y81491501D01*
X-63009391Y81651762D01*
X-63009394Y81651767D01*
X-63011717Y81656749D01*
X-63143042Y81844300D01*
X-63304940Y82006198D01*
X-63309448Y82009355D01*
X-63309451Y82009357D01*
X-63387629Y82064098D01*
X-63492491Y82137523D01*
X-63497473Y82139846D01*
X-63497478Y82139849D01*
X-63695015Y82231961D01*
X-63695016Y82231961D01*
X-63699997Y82234284D01*
X-63705305Y82235706D01*
X-63705307Y82235707D01*
X-63773381Y82253947D01*
X-63921153Y82293543D01*
X-64046342Y82304495D01*
X-64112459Y82330358D01*
X-64124455Y82340921D01*
X-64282932Y82499398D01*
X-64316958Y82561710D01*
X-64311893Y82632525D01*
X-64269346Y82689361D01*
X-64202826Y82714172D01*
X-64193837Y82714493D01*
X-62353866Y82714493D01*
X-62285745Y82694491D01*
X-62264771Y82677588D01*
X-55291405Y75704221D01*
X-55257379Y75641909D01*
X-55254500Y75615126D01*
X-55254500Y55205204D01*
X-55274502Y55137083D01*
X-55297898Y55112608D01*
X-55296909Y55111565D01*
X-55304589Y55104288D01*
X-55324009Y55089195D01*
X-55332958Y55083548D01*
X-55338900Y55076820D01*
X-55338901Y55076819D01*
X-55362482Y55050118D01*
X-55370262Y55042061D01*
X-55374348Y55038189D01*
X-55402642Y55011381D01*
X-55407165Y55003623D01*
X-55407973Y55002238D01*
X-55422374Y54982304D01*
X-55429378Y54974373D01*
X-55433192Y54966250D01*
X-55433193Y54966248D01*
X-55448332Y54934003D01*
X-55453537Y54924088D01*
X-55471485Y54893304D01*
X-55471487Y54893299D01*
X-55476006Y54885548D01*
X-55478168Y54876839D01*
X-55478169Y54876837D01*
X-55478556Y54875279D01*
X-55486786Y54852098D01*
X-55491281Y54842524D01*
X-55492662Y54833652D01*
X-55498143Y54798454D01*
X-55500356Y54787477D01*
X-55508941Y54752901D01*
X-55508941Y54752897D01*
X-55511105Y54744183D01*
X-55510736Y54735210D01*
X-55510736Y54735208D01*
X-55508607Y54683480D01*
X-55508500Y54678299D01*
X-55508500Y34447893D01*
X-55528502Y34379772D01*
X-55582158Y34333279D01*
X-55634500Y34321893D01*
X-98559048Y34321893D01*
X-98627169Y34341895D01*
X-98648143Y34358798D01*
X-103181690Y38892345D01*
X-101149382Y38892345D01*
X-101114136Y38633362D01*
X-101112828Y38628876D01*
X-101112828Y38628874D01*
X-101095769Y38570348D01*
X-101040997Y38382433D01*
X-100931572Y38145072D01*
X-100908466Y38109830D01*
X-100790830Y37930404D01*
X-100790826Y37930399D01*
X-100788264Y37926491D01*
X-100614222Y37731494D01*
X-100413270Y37564363D01*
X-100409267Y37561934D01*
X-100193818Y37431196D01*
X-100193814Y37431194D01*
X-100189821Y37428771D01*
X-99948785Y37327697D01*
X-99695457Y37263359D01*
X-99690806Y37262891D01*
X-99690802Y37262890D01*
X-99497932Y37243469D01*
X-99478373Y37241500D01*
X-99322886Y37241500D01*
X-99320561Y37241673D01*
X-99320555Y37241673D01*
X-99133240Y37255593D01*
X-99133236Y37255594D01*
X-99128588Y37255939D01*
X-99124040Y37256968D01*
X-99124034Y37256969D01*
X-98937639Y37299147D01*
X-98873663Y37313623D01*
X-98837471Y37327697D01*
X-98634416Y37406660D01*
X-98634413Y37406661D01*
X-98630063Y37408353D01*
X-98618723Y37414834D01*
X-98546044Y37456374D01*
X-98403142Y37538049D01*
X-98197883Y37699862D01*
X-98018797Y37890237D01*
X-97906151Y38052614D01*
X-97872481Y38101149D01*
X-97872479Y38101152D01*
X-97869816Y38104991D01*
X-97867748Y38109184D01*
X-97756280Y38335219D01*
X-97756279Y38335222D01*
X-97754215Y38339407D01*
X-97674533Y38588335D01*
X-97632519Y38846307D01*
X-97629937Y39043532D01*
X-97629159Y39102978D01*
X-97629159Y39102981D01*
X-97629098Y39107655D01*
X-97664344Y39366638D01*
X-97678767Y39416123D01*
X-97708288Y39517404D01*
X-97737483Y39617567D01*
X-97846908Y39854928D01*
X-97891770Y39923354D01*
X-97987650Y40069596D01*
X-97987654Y40069601D01*
X-97990216Y40073509D01*
X-98164258Y40268506D01*
X-98365210Y40435637D01*
X-98466012Y40496805D01*
X-98584662Y40568804D01*
X-98584666Y40568806D01*
X-98588659Y40571229D01*
X-98829695Y40672303D01*
X-99083023Y40736641D01*
X-99087674Y40737109D01*
X-99087678Y40737110D01*
X-99296969Y40758184D01*
X-99300107Y40758500D01*
X-99455594Y40758500D01*
X-99457919Y40758327D01*
X-99457925Y40758327D01*
X-99645240Y40744407D01*
X-99645244Y40744406D01*
X-99649892Y40744061D01*
X-99654440Y40743032D01*
X-99654446Y40743031D01*
X-99821486Y40705233D01*
X-99904817Y40686377D01*
X-99909169Y40684685D01*
X-99909171Y40684684D01*
X-100144064Y40593340D01*
X-100144067Y40593339D01*
X-100148417Y40591647D01*
X-100152471Y40589330D01*
X-100152473Y40589329D01*
X-100153785Y40588579D01*
X-100375338Y40461951D01*
X-100580597Y40300138D01*
X-100759683Y40109763D01*
X-100843557Y39988860D01*
X-100893661Y39916635D01*
X-100908664Y39895009D01*
X-100910730Y39890819D01*
X-100910732Y39890816D01*
X-100985502Y39739196D01*
X-101024265Y39660593D01*
X-101103947Y39411665D01*
X-101145961Y39153693D01*
X-101147321Y39049762D01*
X-101149292Y38899197D01*
X-101149382Y38892345D01*
X-103181690Y38892345D01*
X-104605509Y40316164D01*
X-104639535Y40378476D01*
X-104642414Y40405259D01*
X-104642414Y45272115D01*
X-94747240Y45272115D01*
X-94742765Y45256876D01*
X-94741375Y45255671D01*
X-94733692Y45254000D01*
X-93661355Y45254000D01*
X-93646116Y45258475D01*
X-93644911Y45259865D01*
X-93643240Y45267548D01*
X-93643240Y46339884D01*
X-93647715Y46355123D01*
X-93649105Y46356328D01*
X-93656788Y46357999D01*
X-94283909Y46357999D01*
X-94290730Y46357629D01*
X-94341592Y46352105D01*
X-94356844Y46348479D01*
X-94477294Y46303324D01*
X-94492889Y46294786D01*
X-94594964Y46218285D01*
X-94607525Y46205724D01*
X-94684026Y46103649D01*
X-94692564Y46088054D01*
X-94737718Y45967606D01*
X-94741345Y45952351D01*
X-94746871Y45901486D01*
X-94747240Y45894672D01*
X-94747240Y45272115D01*
X-104642414Y45272115D01*
X-104642414Y52030267D01*
X-103501418Y52030267D01*
X-103501265Y52025879D01*
X-103501265Y52025873D01*
X-103491823Y51755505D01*
X-103491615Y51749542D01*
X-103490853Y51745219D01*
X-103490852Y51745212D01*
X-103467076Y51610376D01*
X-103442838Y51472913D01*
X-103356037Y51205765D01*
X-103354109Y51201812D01*
X-103354107Y51201807D01*
X-103305297Y51101733D01*
X-103232900Y50953298D01*
X-103230445Y50949659D01*
X-103230442Y50949653D01*
X-103169011Y50858578D01*
X-103075825Y50720424D01*
X-103072880Y50717153D01*
X-103072879Y50717152D01*
X-103023948Y50662809D01*
X-102887869Y50511678D01*
X-102672690Y50331121D01*
X-102434476Y50182269D01*
X-102177865Y50068018D01*
X-102173637Y50066806D01*
X-102173638Y50066806D01*
X-101918270Y49993581D01*
X-101907850Y49990593D01*
X-101903500Y49989982D01*
X-101903497Y49989981D01*
X-101800550Y49975513D01*
X-101629688Y49951500D01*
X-101419094Y49951500D01*
X-101416908Y49951653D01*
X-101416904Y49951653D01*
X-101213413Y49965882D01*
X-101213408Y49965883D01*
X-101209028Y49966189D01*
X-100934270Y50024591D01*
X-100930141Y50026094D01*
X-100930137Y50026095D01*
X-100674459Y50119154D01*
X-100674455Y50119156D01*
X-100670314Y50120663D01*
X-100422298Y50252536D01*
X-100418737Y50255123D01*
X-100198611Y50415053D01*
X-100198608Y50415056D01*
X-100195048Y50417642D01*
X-100131498Y50479011D01*
X-100073157Y50535351D01*
X-99992988Y50612769D01*
X-99830294Y50821009D01*
X-99822759Y50830653D01*
X-99822758Y50830654D01*
X-99820052Y50834118D01*
X-99817856Y50837922D01*
X-99817851Y50837929D01*
X-99681805Y51073569D01*
X-99679604Y51077381D01*
X-99656812Y51133794D01*
X-98647240Y51133794D01*
X-98647075Y51129223D01*
X-98633027Y50935620D01*
X-98631713Y50926611D01*
X-98575551Y50672231D01*
X-98572948Y50663501D01*
X-98480654Y50419893D01*
X-98476819Y50411632D01*
X-98350325Y50183899D01*
X-98345335Y50176274D01*
X-98187294Y49969191D01*
X-98181254Y49962364D01*
X-97994976Y49780265D01*
X-97988014Y49774382D01*
X-97777397Y49621078D01*
X-97769667Y49616267D01*
X-97539118Y49494969D01*
X-97530768Y49491322D01*
X-97285141Y49404581D01*
X-97276346Y49402175D01*
X-97061015Y49359733D01*
X-97048103Y49360912D01*
X-97043301Y49375826D01*
X-96535240Y49375826D01*
X-96530989Y49361349D01*
X-96518728Y49359286D01*
X-96483107Y49362685D01*
X-96474115Y49364205D01*
X-96221082Y49426122D01*
X-96212413Y49428922D01*
X-95970958Y49526722D01*
X-95962785Y49530744D01*
X-95737987Y49662368D01*
X-95730475Y49667531D01*
X-95527027Y49830231D01*
X-95520344Y49836420D01*
X-95342507Y50026794D01*
X-95336797Y50033871D01*
X-95188306Y50247918D01*
X-95183669Y50255759D01*
X-95067636Y50488997D01*
X-95064180Y50497422D01*
X-94983028Y50744974D01*
X-94980828Y50753799D01*
X-94936137Y51011189D01*
X-94935290Y51018807D01*
X-94931318Y51098592D01*
X-94931240Y51101733D01*
X-94931240Y51227885D01*
X-94935715Y51243124D01*
X-94937105Y51244329D01*
X-94944788Y51246000D01*
X-96517125Y51246000D01*
X-96532364Y51241525D01*
X-96533569Y51240135D01*
X-96535240Y51232452D01*
X-96535240Y49375826D01*
X-97043301Y49375826D01*
X-97043240Y49376015D01*
X-97043240Y51227885D01*
X-97047715Y51243124D01*
X-97049105Y51244329D01*
X-97056788Y51246000D01*
X-98629125Y51246000D01*
X-98644364Y51241525D01*
X-98645569Y51240135D01*
X-98647240Y51232452D01*
X-98647240Y51133794D01*
X-99656812Y51133794D01*
X-99574378Y51337824D01*
X-99540696Y51472913D01*
X-99507487Y51606107D01*
X-99507486Y51606112D01*
X-99506423Y51610376D01*
X-99503151Y51641500D01*
X-99489423Y51772115D01*
X-98647240Y51772115D01*
X-98642765Y51756876D01*
X-98641375Y51755671D01*
X-98633692Y51754000D01*
X-97061355Y51754000D01*
X-97046116Y51758475D01*
X-97044911Y51759865D01*
X-97043240Y51767548D01*
X-97043240Y51772115D01*
X-96535240Y51772115D01*
X-96530765Y51756876D01*
X-96529375Y51755671D01*
X-96521692Y51754000D01*
X-94949355Y51754000D01*
X-94934116Y51758475D01*
X-94932911Y51759865D01*
X-94931240Y51767548D01*
X-94931240Y51866206D01*
X-94931405Y51870777D01*
X-94945453Y52064380D01*
X-94946767Y52073389D01*
X-95002929Y52327769D01*
X-95005532Y52336499D01*
X-95097826Y52580107D01*
X-95101661Y52588368D01*
X-95228155Y52816101D01*
X-95233145Y52823726D01*
X-95391186Y53030809D01*
X-95397226Y53037636D01*
X-95583504Y53219735D01*
X-95590466Y53225618D01*
X-95801083Y53378922D01*
X-95808813Y53383733D01*
X-96039362Y53505031D01*
X-96047712Y53508678D01*
X-96293339Y53595419D01*
X-96302134Y53597825D01*
X-96517465Y53640267D01*
X-96530377Y53639088D01*
X-96535240Y53623985D01*
X-96535240Y51772115D01*
X-97043240Y51772115D01*
X-97043240Y53624174D01*
X-97047491Y53638651D01*
X-97059752Y53640714D01*
X-97095373Y53637315D01*
X-97104365Y53635795D01*
X-97357398Y53573878D01*
X-97366067Y53571078D01*
X-97607522Y53473278D01*
X-97615695Y53469256D01*
X-97840493Y53337632D01*
X-97848005Y53332469D01*
X-98051453Y53169769D01*
X-98058136Y53163580D01*
X-98235973Y52973206D01*
X-98241683Y52966129D01*
X-98390174Y52752082D01*
X-98394811Y52744241D01*
X-98510844Y52511003D01*
X-98514300Y52502578D01*
X-98595452Y52255026D01*
X-98597652Y52246201D01*
X-98642343Y51988811D01*
X-98643190Y51981193D01*
X-98647162Y51901408D01*
X-98647240Y51898267D01*
X-98647240Y51772115D01*
X-99489423Y51772115D01*
X-99477521Y51885364D01*
X-99477521Y51885367D01*
X-99477062Y51889733D01*
X-99477215Y51894127D01*
X-99486711Y52166061D01*
X-99486712Y52166067D01*
X-99486865Y52170458D01*
X-99495637Y52220211D01*
X-99528792Y52408238D01*
X-99535642Y52447087D01*
X-99622443Y52714235D01*
X-99624900Y52719274D01*
X-99690268Y52853297D01*
X-99745580Y52966702D01*
X-99748035Y52970341D01*
X-99748038Y52970347D01*
X-99828305Y53089347D01*
X-99902655Y53199576D01*
X-99923280Y53222483D01*
X-100087674Y53405060D01*
X-100090611Y53408322D01*
X-100305790Y53588879D01*
X-100544004Y53737731D01*
X-100800615Y53851982D01*
X-101070630Y53929407D01*
X-101074980Y53930018D01*
X-101074983Y53930019D01*
X-101177930Y53944487D01*
X-101348792Y53968500D01*
X-101559386Y53968500D01*
X-101561572Y53968347D01*
X-101561576Y53968347D01*
X-101765067Y53954118D01*
X-101765072Y53954117D01*
X-101769452Y53953811D01*
X-102044210Y53895409D01*
X-102048339Y53893906D01*
X-102048343Y53893905D01*
X-102304021Y53800846D01*
X-102304025Y53800844D01*
X-102308166Y53799337D01*
X-102556182Y53667464D01*
X-102559741Y53664878D01*
X-102559743Y53664877D01*
X-102779125Y53505487D01*
X-102783432Y53502358D01*
X-102786596Y53499302D01*
X-102786599Y53499300D01*
X-102813079Y53473728D01*
X-102985492Y53307231D01*
X-103158428Y53085882D01*
X-103160624Y53082078D01*
X-103160629Y53082071D01*
X-103272302Y52888647D01*
X-103298876Y52842619D01*
X-103404102Y52582176D01*
X-103405167Y52577903D01*
X-103405168Y52577901D01*
X-103465356Y52336499D01*
X-103472057Y52309624D01*
X-103472516Y52305256D01*
X-103472517Y52305251D01*
X-103499603Y52047540D01*
X-103501418Y52030267D01*
X-104642414Y52030267D01*
X-104642414Y62680383D01*
X-104622412Y62748504D01*
X-104568756Y62794997D01*
X-104498482Y62805101D01*
X-104433902Y62775607D01*
X-104427319Y62769478D01*
X-98684645Y57026805D01*
X-98650619Y56964493D01*
X-98647740Y56937710D01*
X-98647740Y56631488D01*
X-98647575Y56629220D01*
X-98647575Y56629208D01*
X-98639282Y56514921D01*
X-98633193Y56430996D01*
X-98632209Y56426541D01*
X-98632209Y56426538D01*
X-98577647Y56179410D01*
X-98575046Y56167628D01*
X-98573428Y56163358D01*
X-98492582Y55949969D01*
X-98479490Y55915412D01*
X-98433936Y55833400D01*
X-98352672Y55687097D01*
X-98348526Y55679632D01*
X-98345754Y55676000D01*
X-98231632Y55526465D01*
X-98184897Y55465227D01*
X-97992032Y55276688D01*
X-97773970Y55117966D01*
X-97708552Y55083548D01*
X-97539319Y54994510D01*
X-97539313Y54994507D01*
X-97535279Y54992385D01*
X-97530974Y54990865D01*
X-97530970Y54990863D01*
X-97295997Y54907885D01*
X-97280960Y54902575D01*
X-97194571Y54885548D01*
X-97020812Y54851300D01*
X-97020806Y54851299D01*
X-97016340Y54850419D01*
X-97011787Y54850192D01*
X-97011784Y54850192D01*
X-96751532Y54837236D01*
X-96751526Y54837236D01*
X-96746963Y54837009D01*
X-96478471Y54862625D01*
X-96474037Y54863710D01*
X-96474031Y54863711D01*
X-96220928Y54925645D01*
X-96216490Y54926731D01*
X-95966507Y55027985D01*
X-95779633Y55137404D01*
X-95737703Y55161955D01*
X-95737702Y55161956D01*
X-95733758Y55164265D01*
X-95523121Y55332716D01*
X-95339006Y55529809D01*
X-95185272Y55751416D01*
X-95179688Y55762639D01*
X-95090080Y55942760D01*
X-95065139Y55992894D01*
X-95060940Y56005703D01*
X-94982542Y56244853D01*
X-94982541Y56244859D01*
X-94981122Y56249186D01*
X-94970533Y56310171D01*
X-94935639Y56511140D01*
X-94935638Y56511148D01*
X-94934983Y56514921D01*
X-94930740Y56600149D01*
X-94930740Y57368512D01*
X-94931136Y57373980D01*
X-94944957Y57564453D01*
X-94945287Y57569004D01*
X-94949619Y57588625D01*
X-95002449Y57827912D01*
X-95002450Y57827916D01*
X-95003434Y57832372D01*
X-95066138Y57997877D01*
X-95097372Y58080318D01*
X-95097373Y58080321D01*
X-95098990Y58084588D01*
X-95229954Y58320368D01*
X-95327711Y58448460D01*
X-95390811Y58531141D01*
X-95390812Y58531142D01*
X-95393583Y58534773D01*
X-95432085Y58572412D01*
X-95525717Y58663943D01*
X-95586448Y58723312D01*
X-95804510Y58882034D01*
X-95917124Y58941283D01*
X-96039161Y59005490D01*
X-96039167Y59005493D01*
X-96043201Y59007615D01*
X-96047506Y59009135D01*
X-96047510Y59009137D01*
X-96293207Y59095902D01*
X-96293208Y59095902D01*
X-96297520Y59097425D01*
X-96430550Y59123645D01*
X-96557668Y59148700D01*
X-96557674Y59148701D01*
X-96562140Y59149581D01*
X-96566693Y59149808D01*
X-96566696Y59149808D01*
X-96826948Y59162764D01*
X-96826954Y59162764D01*
X-96831517Y59162991D01*
X-97002584Y59146670D01*
X-97072294Y59160111D01*
X-97103644Y59183005D01*
X-102693836Y64773197D01*
X-102727862Y64835509D01*
X-102730741Y64862292D01*
X-102730741Y65750086D01*
X-102710739Y65818207D01*
X-102657083Y65864700D01*
X-102586809Y65874804D01*
X-102537973Y65856941D01*
X-102434476Y65792269D01*
X-102177865Y65678018D01*
X-102173637Y65676806D01*
X-102173638Y65676806D01*
X-101989208Y65623922D01*
X-101907850Y65600593D01*
X-101903500Y65599982D01*
X-101903497Y65599981D01*
X-101800550Y65585513D01*
X-101629688Y65561500D01*
X-101419094Y65561500D01*
X-101416908Y65561653D01*
X-101416904Y65561653D01*
X-101213413Y65575882D01*
X-101213408Y65575883D01*
X-101209028Y65576189D01*
X-100934270Y65634591D01*
X-100930141Y65636094D01*
X-100930137Y65636095D01*
X-100674459Y65729154D01*
X-100674455Y65729156D01*
X-100670314Y65730663D01*
X-100422298Y65862536D01*
X-100317344Y65938789D01*
X-100198611Y66025053D01*
X-100198608Y66025056D01*
X-100195048Y66027642D01*
X-99992988Y66222769D01*
X-99820052Y66444118D01*
X-99817856Y66447922D01*
X-99817851Y66447929D01*
X-99681805Y66683569D01*
X-99679604Y66687381D01*
X-99656812Y66743794D01*
X-98647240Y66743794D01*
X-98647075Y66739223D01*
X-98633027Y66545620D01*
X-98631713Y66536611D01*
X-98575551Y66282231D01*
X-98572948Y66273501D01*
X-98480654Y66029893D01*
X-98476819Y66021632D01*
X-98350325Y65793899D01*
X-98345335Y65786274D01*
X-98187294Y65579191D01*
X-98181254Y65572364D01*
X-97994976Y65390265D01*
X-97988014Y65384382D01*
X-97777397Y65231078D01*
X-97769667Y65226267D01*
X-97539118Y65104969D01*
X-97530768Y65101322D01*
X-97285141Y65014581D01*
X-97276346Y65012175D01*
X-97061015Y64969733D01*
X-97048103Y64970912D01*
X-97043301Y64985826D01*
X-96535240Y64985826D01*
X-96530989Y64971349D01*
X-96518728Y64969286D01*
X-96483107Y64972685D01*
X-96474115Y64974205D01*
X-96221082Y65036122D01*
X-96212413Y65038922D01*
X-95970958Y65136722D01*
X-95962785Y65140744D01*
X-95737987Y65272368D01*
X-95730475Y65277531D01*
X-95527027Y65440231D01*
X-95520344Y65446420D01*
X-95342507Y65636794D01*
X-95336797Y65643871D01*
X-95188306Y65857918D01*
X-95183669Y65865759D01*
X-95067636Y66098997D01*
X-95064180Y66107422D01*
X-94983028Y66354974D01*
X-94980828Y66363799D01*
X-94936137Y66621189D01*
X-94935290Y66628807D01*
X-94931318Y66708592D01*
X-94931240Y66711733D01*
X-94931240Y66837885D01*
X-94935715Y66853124D01*
X-94937105Y66854329D01*
X-94944788Y66856000D01*
X-96517125Y66856000D01*
X-96532364Y66851525D01*
X-96533569Y66850135D01*
X-96535240Y66842452D01*
X-96535240Y64985826D01*
X-97043301Y64985826D01*
X-97043240Y64986015D01*
X-97043240Y66837885D01*
X-97047715Y66853124D01*
X-97049105Y66854329D01*
X-97056788Y66856000D01*
X-98629125Y66856000D01*
X-98644364Y66851525D01*
X-98645569Y66850135D01*
X-98647240Y66842452D01*
X-98647240Y66743794D01*
X-99656812Y66743794D01*
X-99574378Y66947824D01*
X-99573312Y66952099D01*
X-99507487Y67216107D01*
X-99507486Y67216112D01*
X-99506423Y67220376D01*
X-99505964Y67224744D01*
X-99505963Y67224749D01*
X-99489424Y67382115D01*
X-98647240Y67382115D01*
X-98642765Y67366876D01*
X-98641375Y67365671D01*
X-98633692Y67364000D01*
X-97061355Y67364000D01*
X-97046116Y67368475D01*
X-97044911Y67369865D01*
X-97043240Y67377548D01*
X-97043240Y67382115D01*
X-96535240Y67382115D01*
X-96530765Y67366876D01*
X-96529375Y67365671D01*
X-96521692Y67364000D01*
X-94949355Y67364000D01*
X-94934116Y67368475D01*
X-94932911Y67369865D01*
X-94931240Y67377548D01*
X-94931240Y67476206D01*
X-94931405Y67480777D01*
X-94945453Y67674380D01*
X-94946767Y67683389D01*
X-95002929Y67937769D01*
X-95005532Y67946499D01*
X-95097826Y68190107D01*
X-95101661Y68198368D01*
X-95228155Y68426101D01*
X-95233145Y68433726D01*
X-95391186Y68640809D01*
X-95397226Y68647636D01*
X-95583504Y68829735D01*
X-95590466Y68835618D01*
X-95801083Y68988922D01*
X-95808813Y68993733D01*
X-96039362Y69115031D01*
X-96047712Y69118678D01*
X-96293339Y69205419D01*
X-96302134Y69207825D01*
X-96517465Y69250267D01*
X-96530377Y69249088D01*
X-96535240Y69233985D01*
X-96535240Y67382115D01*
X-97043240Y67382115D01*
X-97043240Y69234174D01*
X-97047491Y69248651D01*
X-97059752Y69250714D01*
X-97095373Y69247315D01*
X-97104365Y69245795D01*
X-97357398Y69183878D01*
X-97366067Y69181078D01*
X-97607522Y69083278D01*
X-97615695Y69079256D01*
X-97840493Y68947632D01*
X-97848005Y68942469D01*
X-98051453Y68779769D01*
X-98058136Y68773580D01*
X-98235973Y68583206D01*
X-98241683Y68576129D01*
X-98390174Y68362082D01*
X-98394811Y68354241D01*
X-98510844Y68121003D01*
X-98514300Y68112578D01*
X-98595452Y67865026D01*
X-98597652Y67856201D01*
X-98642343Y67598811D01*
X-98643190Y67591193D01*
X-98647162Y67511408D01*
X-98647240Y67508267D01*
X-98647240Y67382115D01*
X-99489424Y67382115D01*
X-99477521Y67495364D01*
X-99477521Y67495367D01*
X-99477062Y67499733D01*
X-99477415Y67509851D01*
X-99486711Y67776061D01*
X-99486712Y67776067D01*
X-99486865Y67780458D01*
X-99499260Y67850757D01*
X-99534880Y68052764D01*
X-99535642Y68057087D01*
X-99622443Y68324235D01*
X-99745580Y68576702D01*
X-99748035Y68580341D01*
X-99748038Y68580347D01*
X-99828305Y68699347D01*
X-99902655Y68809576D01*
X-100090611Y69018322D01*
X-100305790Y69198879D01*
X-100544004Y69347731D01*
X-100775974Y69451011D01*
X-100796601Y69460195D01*
X-100796603Y69460196D01*
X-100800615Y69461982D01*
X-101031738Y69528255D01*
X-101066403Y69538195D01*
X-101066404Y69538195D01*
X-101070630Y69539407D01*
X-101074980Y69540018D01*
X-101074983Y69540019D01*
X-101177930Y69554487D01*
X-101348792Y69578500D01*
X-101416895Y69578500D01*
X-101485016Y69598502D01*
X-101531509Y69652158D01*
X-101541613Y69722432D01*
X-101512119Y69787012D01*
X-101505990Y69793595D01*
X-99657791Y71641795D01*
X-99595479Y71675820D01*
X-99568696Y71678700D01*
X-98624569Y71678700D01*
X-98556448Y71658698D01*
X-98509955Y71605042D01*
X-98506742Y71597341D01*
X-98479490Y71525412D01*
X-98348526Y71289632D01*
X-98345754Y71286000D01*
X-98231632Y71136465D01*
X-98184897Y71075227D01*
X-98181631Y71072034D01*
X-98181629Y71072032D01*
X-98170030Y71060693D01*
X-97992032Y70886688D01*
X-97773970Y70727966D01*
X-97697100Y70687523D01*
X-97539319Y70604510D01*
X-97539313Y70604507D01*
X-97535279Y70602385D01*
X-97530974Y70600865D01*
X-97530970Y70600863D01*
X-97329802Y70529823D01*
X-97280960Y70512575D01*
X-97153208Y70487395D01*
X-97020812Y70461300D01*
X-97020806Y70461299D01*
X-97016340Y70460419D01*
X-97011787Y70460192D01*
X-97011784Y70460192D01*
X-96751532Y70447236D01*
X-96751526Y70447236D01*
X-96746963Y70447009D01*
X-96478471Y70472625D01*
X-96474037Y70473710D01*
X-96474031Y70473711D01*
X-96220928Y70535645D01*
X-96216490Y70536731D01*
X-95966507Y70637985D01*
X-95733758Y70774265D01*
X-95554243Y70917827D01*
X-95526687Y70939864D01*
X-95526685Y70939865D01*
X-95523121Y70942716D01*
X-95339006Y71139809D01*
X-95185272Y71361416D01*
X-95065139Y71602894D01*
X-95061851Y71612923D01*
X-94982542Y71854853D01*
X-94982541Y71854859D01*
X-94981122Y71859186D01*
X-94975056Y71894125D01*
X-94935639Y72121140D01*
X-94935638Y72121148D01*
X-94934983Y72124921D01*
X-94930740Y72210149D01*
X-94930740Y72978512D01*
X-94933608Y73018050D01*
X-94941441Y73126000D01*
X-94945287Y73179004D01*
X-94961403Y73252000D01*
X-95002449Y73437912D01*
X-95002450Y73437916D01*
X-95003434Y73442372D01*
X-95051212Y73568480D01*
X-95097372Y73690318D01*
X-95097373Y73690321D01*
X-95098990Y73694588D01*
X-95229954Y73930368D01*
X-95336262Y74069665D01*
X-95390811Y74141141D01*
X-95390812Y74141142D01*
X-95393583Y74144773D01*
X-95425396Y74175873D01*
X-95525717Y74273943D01*
X-95586448Y74333312D01*
X-95804510Y74492034D01*
X-95947672Y74567355D01*
X-96039161Y74615490D01*
X-96039167Y74615493D01*
X-96043201Y74617615D01*
X-96047506Y74619135D01*
X-96047510Y74619137D01*
X-96293207Y74705902D01*
X-96293208Y74705902D01*
X-96297520Y74707425D01*
X-96446431Y74736775D01*
X-96557668Y74758700D01*
X-96557674Y74758701D01*
X-96562140Y74759581D01*
X-96566693Y74759808D01*
X-96566696Y74759808D01*
X-96826948Y74772764D01*
X-96826954Y74772764D01*
X-96831517Y74772991D01*
X-97100009Y74747375D01*
X-97104443Y74746290D01*
X-97104449Y74746289D01*
X-97325308Y74692245D01*
X-97361990Y74683269D01*
X-97611973Y74582015D01*
X-97844722Y74445735D01*
X-97848289Y74442882D01*
X-97965812Y74348897D01*
X-98031505Y74321973D01*
X-98044507Y74321300D01*
X-100225874Y74321300D01*
X-100225881Y74321299D01*
X-100283786Y74321299D01*
X-100302978Y74317915D01*
X-100335385Y74312201D01*
X-100346282Y74310767D01*
X-100393013Y74306678D01*
X-100393020Y74306677D01*
X-100398504Y74306197D01*
X-100449136Y74292630D01*
X-100459861Y74290252D01*
X-100480552Y74286603D01*
X-100511470Y74281152D01*
X-100560718Y74263227D01*
X-100571187Y74259926D01*
X-100616511Y74247782D01*
X-100616518Y74247780D01*
X-100621823Y74246358D01*
X-100660770Y74228197D01*
X-100669320Y74224210D01*
X-100679474Y74220004D01*
X-100723553Y74203961D01*
X-100723558Y74203959D01*
X-100728725Y74202078D01*
X-100733491Y74199326D01*
X-100733494Y74199325D01*
X-100774114Y74175873D01*
X-100783865Y74170797D01*
X-100826368Y74150978D01*
X-100826374Y74150975D01*
X-100831359Y74148650D01*
X-100835866Y74145494D01*
X-100835868Y74145493D01*
X-100874282Y74118595D01*
X-100883553Y74112689D01*
X-100924178Y74089234D01*
X-100928948Y74086480D01*
X-100948987Y74069665D01*
X-100969092Y74052795D01*
X-100977812Y74046103D01*
X-101016234Y74019200D01*
X-101016237Y74019198D01*
X-101020745Y74016041D01*
X-101061695Y73975091D01*
X-104427319Y70609468D01*
X-104489631Y70575442D01*
X-104560446Y70580507D01*
X-104617282Y70623054D01*
X-104642093Y70689574D01*
X-104642414Y70698563D01*
X-104642414Y75615127D01*
X-104622412Y75683248D01*
X-104605509Y75704222D01*
X-97632142Y82677588D01*
X-97569830Y82711614D01*
X-97543047Y82714493D01*
X-91163633Y82714493D01*
X-91095512Y82694491D01*
G37*
%TD.AperFunction*%
%TA.AperFunction,Conductor*%
G36*
X-68193119Y57153998D02*
G01*
X-68146626Y57100342D01*
X-68135240Y57048000D01*
X-68135240Y55601483D01*
X-68131176Y55587641D01*
X-68117762Y55585607D01*
X-68111056Y55586466D01*
X-68100978Y55588608D01*
X-67896985Y55649809D01*
X-67887398Y55653567D01*
X-67696145Y55747261D01*
X-67687295Y55752536D01*
X-67513912Y55876208D01*
X-67506040Y55882861D01*
X-67355188Y56033188D01*
X-67348510Y56041035D01*
X-67224237Y56213980D01*
X-67218927Y56222817D01*
X-67124570Y56413733D01*
X-67120771Y56423328D01*
X-67061498Y56618417D01*
X-67022557Y56677781D01*
X-66957703Y56706668D01*
X-66887527Y56695907D01*
X-66834309Y56648913D01*
X-66814940Y56581788D01*
X-66814940Y50061702D01*
X-66834942Y49993581D01*
X-66888598Y49947088D01*
X-66958872Y49936984D01*
X-67023452Y49966478D01*
X-67058922Y50017473D01*
X-67085472Y50088295D01*
X-67085473Y50088296D01*
X-67088625Y50096705D01*
X-67175979Y50213261D01*
X-67292535Y50300615D01*
X-67428924Y50351745D01*
X-67491106Y50358500D01*
X-69287374Y50358500D01*
X-69290769Y50358131D01*
X-69290773Y50358131D01*
X-69331122Y50353748D01*
X-69401005Y50366277D01*
X-69453020Y50414598D01*
X-69470729Y50479011D01*
X-69470729Y55784392D01*
X-69450727Y55852513D01*
X-69397071Y55899006D01*
X-69326797Y55909110D01*
X-69264244Y55881336D01*
X-69174807Y55807084D01*
X-69166359Y55801169D01*
X-68982484Y55693721D01*
X-68973198Y55689271D01*
X-68774239Y55613297D01*
X-68764341Y55610421D01*
X-68660990Y55589394D01*
X-68646941Y55590590D01*
X-68643240Y55600935D01*
X-68643240Y57048000D01*
X-68623238Y57116121D01*
X-68569582Y57162614D01*
X-68517240Y57174000D01*
X-68261240Y57174000D01*
X-68193119Y57153998D01*
G37*
%TD.AperFunction*%
%TA.AperFunction,Conductor*%
G36*
X-81888333Y73027542D02*
G01*
X-81859808Y73006151D01*
X-80528892Y71675235D01*
X-80494866Y71612923D01*
X-80499931Y71542108D01*
X-80514771Y71513875D01*
X-80526763Y71496749D01*
X-80529084Y71491771D01*
X-80529086Y71491768D01*
X-80591616Y71357670D01*
X-80623524Y71289243D01*
X-80624946Y71283935D01*
X-80624947Y71283933D01*
X-80650642Y71188038D01*
X-80682783Y71068087D01*
X-80702738Y70840000D01*
X-80682783Y70611913D01*
X-80681359Y70606600D01*
X-80681359Y70606598D01*
X-80638713Y70447444D01*
X-80623524Y70390757D01*
X-80621201Y70385776D01*
X-80621201Y70385775D01*
X-80529089Y70188238D01*
X-80529086Y70188233D01*
X-80526763Y70183251D01*
X-80395438Y69995700D01*
X-80233540Y69833802D01*
X-80229032Y69830645D01*
X-80229029Y69830643D01*
X-80176119Y69793595D01*
X-80045989Y69702477D01*
X-80041007Y69700154D01*
X-80041002Y69700151D01*
X-80006783Y69684195D01*
X-79953498Y69637278D01*
X-79934037Y69569001D01*
X-79954579Y69501041D01*
X-80006783Y69455805D01*
X-80041002Y69439849D01*
X-80041007Y69439846D01*
X-80045989Y69437523D01*
X-80150851Y69364098D01*
X-80229029Y69309357D01*
X-80229032Y69309355D01*
X-80233540Y69306198D01*
X-80395438Y69144300D01*
X-80398595Y69139792D01*
X-80398597Y69139789D01*
X-80453338Y69061611D01*
X-80526763Y68956749D01*
X-80529087Y68951765D01*
X-80529090Y68951760D01*
X-80534188Y68940827D01*
X-80581106Y68887543D01*
X-80649384Y68868083D01*
X-80717344Y68888626D01*
X-80737477Y68904984D01*
X-82300004Y70467511D01*
X-82334030Y70529823D01*
X-82328965Y70600638D01*
X-82313231Y70630132D01*
X-82224236Y70753980D01*
X-82218927Y70762817D01*
X-82124570Y70953733D01*
X-82120771Y70963328D01*
X-82058863Y71167090D01*
X-82056685Y71177163D01*
X-82055254Y71188038D01*
X-82057465Y71202222D01*
X-82070623Y71206000D01*
X-83517240Y71206000D01*
X-83585361Y71226002D01*
X-83631854Y71279658D01*
X-83643240Y71332000D01*
X-83643240Y71588000D01*
X-83623238Y71656121D01*
X-83569582Y71702614D01*
X-83517240Y71714000D01*
X-82070896Y71714000D01*
X-82057365Y71717973D01*
X-82056060Y71727053D01*
X-82098026Y71894125D01*
X-82101346Y71903876D01*
X-82186268Y72099186D01*
X-82191135Y72108261D01*
X-82306814Y72287074D01*
X-82313104Y72295243D01*
X-82456947Y72453323D01*
X-82487999Y72517169D01*
X-82479605Y72587667D01*
X-82434428Y72642436D01*
X-82407984Y72656105D01*
X-82300943Y72696233D01*
X-82292535Y72699385D01*
X-82175979Y72786739D01*
X-82088625Y72903295D01*
X-82066885Y72961286D01*
X-82024243Y73018050D01*
X-81957682Y73042750D01*
X-81888333Y73027542D01*
G37*
%TD.AperFunction*%
%TA.AperFunction,Conductor*%
G36*
X-91409801Y79328557D02*
G01*
X-91352965Y79286010D01*
X-91346689Y79276804D01*
X-91322177Y79237193D01*
X-91313141Y79225792D01*
X-91198412Y79111262D01*
X-91189478Y79104206D01*
X-91148417Y79046288D01*
X-91145187Y78975365D01*
X-91180814Y78913954D01*
X-91188647Y78907154D01*
X-91194588Y78903478D01*
X-91319545Y78778303D01*
X-91323385Y78772073D01*
X-91323386Y78772072D01*
X-91351463Y78726522D01*
X-91412355Y78627738D01*
X-91468037Y78459861D01*
X-91468737Y78453025D01*
X-91468738Y78453022D01*
X-91473077Y78410671D01*
X-91478740Y78355400D01*
X-91478740Y77754600D01*
X-91478403Y77751354D01*
X-91478403Y77751350D01*
X-91470320Y77673452D01*
X-91467766Y77648834D01*
X-91465585Y77642298D01*
X-91465585Y77642296D01*
X-91441875Y77571229D01*
X-91411790Y77481054D01*
X-91407934Y77474823D01*
X-91334629Y77356363D01*
X-91315791Y77287911D01*
X-91320654Y77255330D01*
X-91342819Y77178033D01*
X-91342820Y77178027D01*
X-91344579Y77171893D01*
X-91345069Y77165529D01*
X-91345069Y77165527D01*
X-91358529Y76990592D01*
X-91359630Y76976284D01*
X-91360167Y76976325D01*
X-91377414Y76911784D01*
X-91429915Y76863992D01*
X-91485047Y76851290D01*
X-93398648Y76851290D01*
X-93466769Y76871292D01*
X-93487743Y76888195D01*
X-93501045Y76901497D01*
X-93535071Y76963809D01*
X-93537950Y76990592D01*
X-93537950Y77252384D01*
X-93517948Y77320505D01*
X-93501045Y77341479D01*
X-91542928Y79299596D01*
X-91480616Y79333622D01*
X-91409801Y79328557D01*
G37*
%TD.AperFunction*%
%TA.AperFunction,Conductor*%
G36*
X-84396177Y81471499D02*
G01*
X-84349684Y81417843D01*
X-84339580Y81347569D01*
X-84347212Y81320584D01*
X-84348385Y81318601D01*
X-84350597Y81310988D01*
X-84350598Y81310985D01*
X-84356629Y81290226D01*
X-84394802Y81158831D01*
X-84395306Y81152426D01*
X-84395307Y81152421D01*
X-84395685Y81147614D01*
X-84397740Y81121502D01*
X-84397740Y80688498D01*
X-84397547Y80686050D01*
X-84397547Y80686042D01*
X-84395873Y80664781D01*
X-84394802Y80651169D01*
X-84367173Y80556067D01*
X-84350654Y80499210D01*
X-84348385Y80491399D01*
X-84263693Y80348193D01*
X-84261011Y80345511D01*
X-84235738Y80281139D01*
X-84249640Y80211516D01*
X-84259812Y80195688D01*
X-84263693Y80191807D01*
X-84348385Y80048601D01*
X-84394802Y79888831D01*
X-84395306Y79882426D01*
X-84395307Y79882421D01*
X-84397547Y79853958D01*
X-84397740Y79851502D01*
X-84397740Y79418498D01*
X-84394802Y79381169D01*
X-84348385Y79221399D01*
X-84344348Y79214573D01*
X-84293078Y79127880D01*
X-84275618Y79059064D01*
X-84298135Y78991733D01*
X-84336164Y78956023D01*
X-84345112Y78950593D01*
X-84353258Y78943399D01*
X-84353275Y78943418D01*
X-84356552Y78940511D01*
X-84359144Y78938344D01*
X-84365271Y78934327D01*
X-84370306Y78929011D01*
X-84370307Y78929011D01*
X-84416994Y78879727D01*
X-84419372Y78877285D01*
X-84844762Y78451895D01*
X-84907074Y78417869D01*
X-84977889Y78422934D01*
X-85034725Y78465481D01*
X-85059442Y78530775D01*
X-85062725Y78571136D01*
X-85063140Y78581351D01*
X-85063140Y78589041D01*
X-85066331Y78616411D01*
X-85066762Y78620770D01*
X-85071914Y78684116D01*
X-85071915Y78684119D01*
X-85072508Y78691415D01*
X-85074764Y78698377D01*
X-85075874Y78703935D01*
X-85077178Y78709452D01*
X-85078026Y78716724D01*
X-85080525Y78723608D01*
X-85080526Y78723613D01*
X-85102214Y78783362D01*
X-85103643Y78787523D01*
X-85123222Y78847962D01*
X-85125479Y78854929D01*
X-85129277Y78861187D01*
X-85131639Y78866347D01*
X-85134176Y78871413D01*
X-85136672Y78878290D01*
X-85175530Y78937559D01*
X-85177871Y78941268D01*
X-85179175Y78943418D01*
X-85188913Y78959464D01*
X-85211737Y78997078D01*
X-85211740Y78997082D01*
X-85214646Y79001871D01*
X-85218355Y79006070D01*
X-85218358Y79006075D01*
X-85221840Y79010017D01*
X-85221822Y79010033D01*
X-85224727Y79013311D01*
X-85226900Y79015909D01*
X-85230913Y79022031D01*
X-85285514Y79073755D01*
X-85287955Y79076132D01*
X-86321754Y80109931D01*
X-86334141Y80124344D01*
X-86342147Y80135224D01*
X-86342151Y80135228D01*
X-86346489Y80141123D01*
X-86385515Y80174278D01*
X-86393031Y80181208D01*
X-86398466Y80186643D01*
X-86420088Y80203749D01*
X-86423454Y80206509D01*
X-86459470Y80237107D01*
X-86498434Y80296456D01*
X-86499127Y80367449D01*
X-86486344Y80397271D01*
X-86434592Y80484779D01*
X-86428347Y80499210D01*
X-86389301Y80633605D01*
X-86389341Y80647706D01*
X-86396610Y80651000D01*
X-87992240Y80651000D01*
X-88060361Y80671002D01*
X-88106854Y80724658D01*
X-88118240Y80777000D01*
X-88118240Y81033000D01*
X-88098238Y81101121D01*
X-88044582Y81147614D01*
X-87992240Y81159000D01*
X-86402362Y81159000D01*
X-86388831Y81162973D01*
X-86387696Y81170871D01*
X-86428347Y81310790D01*
X-86430368Y81315460D01*
X-86439065Y81385922D01*
X-86408287Y81449900D01*
X-86347806Y81487082D01*
X-86314731Y81491501D01*
X-84464298Y81491501D01*
X-84396177Y81471499D01*
G37*
%TD.AperFunction*%
%TD*%
M02*
