0
SECTION
2
HEADER
9
$INSUNITS
70
1
9
$ACADVER
1
AC1014
9
$HANDSEED
5
FFFF
0
ENDSEC
0
SECTION
2
TABLES
0
TABLE
2
VPORT
5
8
100
AcDbSymbolTable
0
ENDTAB
0
TABLE
2
LTYPE
5
5
100
AcDbSymbolTable
0
LTYPE
5
14
100
AcDbSymbolTableRecord
100
AcDbLinetypeTableRecord
2
BYBLOCK
70
0
0
LTYPE
5
15
100
AcDbSymbolTableRecord
100
AcDbLinetypeTableRecord
2
BYLAYER
70
0
0
ENDTAB
0
TABLE
2
LAYER
5
2
100
AcDbSymbolTable
70
2
0
LAYER
5
50
100
AcDbSymbolTableRecord
100
AcDbLayerTableRecord
2
0
70
0
6
CONTINUOUS
0
ENDTAB
0
TABLE
2
STYLE
5
3
100
AcDbSymbolTable
70
1
0
STYLE
5
11
100
AcDbSymbolTableRecord
100
AcDbTextStyleTableRecord
2
STANDARD
70
0
0
ENDTAB
0
TABLE
2
VIEW
5
6
100
AcDbSymbolTable
70
0
0
ENDTAB
0
TABLE
2
UCS
5
7
100
AcDbSymbolTable
70
0
0
ENDTAB
0
TABLE
2
APPID
5
9
100
AcDbSymbolTable
70
2
0
APPID
5
12
100
AcDbSymbolTableRecord
100
AcDbRegAppTableRecord
2
ACAD
70
0
0
ENDTAB
0
TABLE
2
DIMSTYLE
5
A
100
AcDbSymbolTable
70
1
0
ENDTAB
0
TABLE
2
BLOCK_RECORD
5
1
100
AcDbSymbolTable
70
1
0
BLOCK_RECORD
5
1F
100
AcDbSymbolTableRecord
100
AcDbBlockTableRecord
2
*MODEL_SPACE
0
BLOCK_RECORD
5
1B
100
AcDbSymbolTableRecord
100
AcDbBlockTableRecord
2
*PAPER_SPACE
0
ENDTAB
0
ENDSEC
0
SECTION
2
BLOCKS
0
BLOCK
5
20
100
AcDbEntity
100
AcDbBlockBegin
2
*MODEL_SPACE
0
ENDBLK
5
21
100
AcDbEntity
100
AcDbBlockEnd
0
BLOCK
5
1C
100
AcDbEntity
100
AcDbBlockBegin
2
*PAPER_SPACE
0
ENDBLK
5
1D
100
AcDbEntity
100
AcDbBlockEnd
0
ENDSEC
0
SECTION
2
ENTITIES
0
LWPOLYLINE
5
100
100
AcDbEntity
8
0
100
AcDbPolyline
90
72
70
1
43
0.0
10
14.735457
20
0.0012339999999999999
10
15.346017999999999
20
0
10
15.388676999999999
20
21.149963
10
14.778148000000002
20
21.151189999999996
10
14.237501999999999
20
21.135663000000001
10
13.704305999999999
20
21.088126000000003
10
13.175278
20
21.010287999999996
10
12.646591999999998
20
20.903497999999999
10
12.122788999999997
20
20.771273999999998
10
11.604255999999999
20
20.617139999999996
10
11.092244000000001
20
20.445433999999999
10
10.583928
20
20.259462999999997
10
9.6895210000000009
20
19.881620999999999
10
8.8278490000000005
20
19.434717000000003
10
8.0068629999999992
20
18.917726999999999
10
7.2353959999999997
20
18.330031999999996
10
7.1148359999999995
20
18.232053999999998
10
6.4923710000000003
20
17.734047999999998
10
5.8757150000000005
20
17.228688000000002
10
5.2579519999999995
20
16.724798
10
4.6289649999999991
20
16.234845999999994
10
4.4190069999999997
20
16.153525999999999
10
4.2088989999999997
20
16.072147000000001
10
1.9296119999999999
20
15.140403999999998
10
1.8532060000000001
20
15.091358999999999
10
1.7993540000000001
20
15.018259999999998
10
1.7751589999999999
20
14.930750999999999
10
1.7348990000000002
20
14.815010000000001
10
1.6444729999999996
20
14.732307
10
1.5256079999999999
20
14.702511999999999
10
0.261299
20
14.705039999999997
10
0.13623199999999999
20
14.671795999999997
10
0.044542999999999992
20
14.580473
10
0.010799999999999999
20
14.455539999999997
10
0.0083949999999999997
20
13.253308999999998
10
0.0069840000000000006
20
13.2416
10
0.0061259999999999986
20
13.229837999999999
10
0.0058250000000000003
20
13.218048000000001
10
0.0028179999999999993
20
11.714567000000001
10
0.0030719999999999996
20
11.702775999999998
10
0.0038829999999999993
20
11.691009999999999
10
0.0052469999999999991
20
11.679295999999999
10
0
20
9.0555509999999995
10
0.062499999999999993
20
9.0554259999999989
10
0.18743299999999999
20
9.0216820000000002
10
0.27875599999999995
20
8.9299929999999978
10
0.31199899999999997
20
8.804926
10
0.30396000000000001
20
4.784923
10
0.30427700000000002
20
4.7718389999999999
10
0.30527700000000002
20
4.7587879999999991
10
0.30695900000000004
20
4.7458089999999986
10
1.011468
20
0.239402
10
1.0559209999999999
20
0.13147500000000001
10
1.144525
20
0.055491999999999993
10
1.2579679999999998
20
0.028017
10
4.1768000000000001
20
0.022178999999999997
10
4.3168299999999995
20
0.021899000000000002
10
4.4568599999999998
20
0.021620999999999998
10
4.5968899999999993
20
0.021343999999999998
10
5.2173669999999994
20
0.020115999999999998
10
5.837845999999999
20
0.018889
10
6.4583240000000002
20
0.017661
10
7.0788029999999988
20
0.016433999999999997
10
7.1189409999999995
20
0.016353999999999997
10
7.1590799999999994
20
0.016275000000000001
10
7.1992189999999994
20
0.016196000000000002
10
10.543937
20
0.0095879999999999993
10
11.242511999999998
20
0.008209000000000001
10
11.941086
20
0.0068219999999999999
10
12.639662999999999
20
0.0054299999999999991
10
13.338238
20
0.0040379999999999999
10
14.036816
20
0.0026420000000000003
0
LWPOLYLINE
5
101
100
AcDbEntity
8
0
100
AcDbPolyline
90
11
70
1
43
0.0
10
14.703878999999999
20
13.117664999999999
10
14.633800000000001
20
13.168894
10
14.607157999999998
20
13.251473999999996
10
14.634092999999998
20
13.333979999999999
10
14.653798999999998
20
13.355826999999998
10
14.704362
20
13.384976
10
14.762551999999998
20
13.391058999999998
10
14.852378
20
13.345182000000001
10
14.888366999999999
20
13.250957000000001
10
14.851998999999998
20
13.156875999999999
10
14.761989999999997
20
13.111357999999999
0
LWPOLYLINE
5
102
100
AcDbEntity
8
0
100
AcDbPolyline
90
8
70
1
43
0.0
10
9.0094819999999984
20
14.112067999999999
10
9.0504639999999998
20
14.012567000000001
10
9.0090889999999995
20
13.913229000000001
10
8.9095869999999984
20
13.872244999999999
10
8.8102509999999992
20
13.913621999999998
10
8.769266
20
14.013122000000001
10
8.8106429999999971
20
14.112459999999999
10
8.9101429999999997
20
14.153445000000001
0
LWPOLYLINE
5
103
100
AcDbEntity
8
0
100
AcDbPolyline
90
8
70
1
43
0.0
10
0.44216799999999995
20
11.139071000000001
10
0.342831
20
11.180449999999999
10
0.30184899999999992
20
11.279952
10
0.34322900000000001
20
11.379288000000001
10
0.44272999999999996
20
11.42027
10
0.54206699999999997
20
11.37889
10
0.58304899999999993
20
11.279389999999998
10
0.54166899999999996
20
11.180052999999999
0
LWPOLYLINE
5
104
100
AcDbEntity
8
0
100
AcDbPolyline
90
8
70
1
43
0.0
10
8.9731670000000001
20
1.1121129999999999
10
9.014149999999999
20
1.0126129999999998
10
8.9727739999999994
20
0.91327499999999995
10
8.873272
20
0.87229100000000004
10
8.773934999999998
20
0.91366799999999992
10
8.7329509999999999
20
1.0131680000000001
10
8.7743280000000006
20
1.112506
10
8.8738270000000004
20
1.1534899999999997
0
LWPOLYLINE
5
105
100
AcDbEntity
8
0
100
AcDbPolyline
90
11
70
1
43
0.0
10
14.630598000000001
20
1.8558560000000002
10
14.681160999999999
20
1.885003
10
14.739351999999998
20
1.8910859999999998
10
14.829175999999999
20
1.845205
10
14.865164999999998
20
1.7509779999999997
10
14.828791000000001
20
1.6568959999999997
10
14.738782
20
1.611383
10
14.680670000000001
20
1.6176939999999997
10
14.610595
20
1.668925
10
14.583955
20
1.7515029999999998
10
14.610891000000001
20
1.8340089999999998
0
LWPOLYLINE
5
106
100
AcDbEntity
8
0
100
AcDbPolyline
90
8
70
1
43
0.0
10
1.3956679999999999
20
0.92832399999999993
10
1.2961669999999998
20
0.88734199999999985
10
1.1968299999999996
20
0.92872199999999994
10
1.155848
20
1.0282229999999999
10
1.197228
20
1.1275600000000001
10
1.2967289999999998
20
1.168542
10
1.3960659999999998
20
1.127162
10
1.4370479999999997
20
1.0276610000000002
0
ENDSEC
0
SECTION
2
OBJECTS
0
DICTIONARY
5
C
100
AcDbDictionary
3
ACAD_GROUP
350
D
3
ACAD_MLINESTYLE
350
17
0
DICTIONARY
5
D
100
AcDbDictionary
0
DICTIONARY
5
1A
330
C
100
AcDbDictionary
0
DICTIONARY
5
17
100
AcDbDictionary
0
ENDSEC
0
EOF
