  0
SECTION
  2
HEADER
  9
$ACADVER
  1
AC1009
  9
$EXTMIN
 10
0.0
 20
0.0
 30
0.0
  9
$EXTMAX
 10
1000.0
 20
1000.0
 30
0.0
  9
$FILLMODE
 70
 0
  9
$SPLFRAME
 70
 1
  0
ENDSEC
  0
SECTION
  2
TABLES
  0
TABLE
  2
LAYER
 70
1
  0
LAYER
  2
0
 70
     0
 62
     7
  6
CONTINUOUS
  0
ENDTAB
  0
ENDSEC
  0
SECTION
  2
ENTITIES
  0
POLYLINE
  8
0
 62
     0
 66
     1
 10
0
 20
0
 30
0.0
 70
     1
 40
0
 41
0
  0
VERTEX
  8
0
 10
21.1767
 20
30.6246
 30
0.0
 40
0
 41
0
  0
VERTEX
  8
0
 10
21.1779
 20
31.2351
 30
0.0
 40
0
 41
0
  0
VERTEX
  8
0
 10
0.0279406
 20
31.2778
 30
0.0
 40
0
 41
0
  0
VERTEX
  8
0
 10
0.0266928
 20
30.6672
 30
0.0
 40
0
 41
0
  0
VERTEX
  8
0
 10
0.0422092
 20
30.1267
 30
0.0
 40
0
 41
0
  0
VERTEX
  8
0
 10
0.0897353
 20
29.5935
 30
0.0
 40
0
 41
0
  0
VERTEX
  8
0
 10
0.167589
 20
29.0644
 30
0.0
 40
0
 41
0
  0
VERTEX
  8
0
 10
0.27436
 20
28.5357
 30
0.0
 40
0
 41
0
  0
VERTEX
  8
0
 10
0.406629
 20
28.0119
 30
0.0
 40
0
 41
0
  0
VERTEX
  8
0
 10
0.560764
 20
27.4933
 30
0.0
 40
0
 41
0
  0
VERTEX
  8
0
 10
0.732422
 20
26.9814
 30
0.0
 40
0
 41
0
  0
VERTEX
  8
0
 10
0.918403
 20
26.4731
 30
0.0
 40
0
 41
0
  0
VERTEX
  8
0
 10
1.29628
 20
25.5786
 30
0.0
 40
0
 41
0
  0
VERTEX
  8
0
 10
1.74317
 20
24.7169
 30
0.0
 40
0
 41
0
  0
VERTEX
  8
0
 10
2.26014
 20
23.896
 30
0.0
 40
0
 41
0
  0
VERTEX
  8
0
 10
2.84787
 20
23.1244
 30
0.0
 40
0
 41
0
  0
VERTEX
  8
0
 10
2.94581
 20
23.004
 30
0.0
 40
0
 41
0
  0
VERTEX
  8
0
 10
3.44385
 20
22.3814
 30
0.0
 40
0
 41
0
  0
VERTEX
  8
0
 10
3.94922
 20
21.7649
 30
0.0
 40
0
 41
0
  0
VERTEX
  8
0
 10
4.45307
 20
21.1471
 30
0.0
 40
0
 41
0
  0
VERTEX
  8
0
 10
4.94303
 20
20.5181
 30
0.0
 40
0
 41
0
  0
VERTEX
  8
0
 10
5.02436
 20
20.3081
 30
0.0
 40
0
 41
0
  0
VERTEX
  8
0
 10
5.10574
 20
20.0979
 30
0.0
 40
0
 41
0
  0
VERTEX
  8
0
 10
6.03749
 20
17.8187
 30
0.0
 40
0
 41
0
  0
VERTEX
  8
0
 10
6.08653
 20
17.7424
 30
0.0
 40
0
 41
0
  0
VERTEX
  8
0
 10
6.15961
 20
17.6885
 30
0.0
 40
0
 41
0
  0
VERTEX
  8
0
 10
6.24713
 20
17.6643
 30
0.0
 40
0
 41
0
  0
VERTEX
  8
0
 10
6.36285
 20
17.624
 30
0.0
 40
0
 41
0
  0
VERTEX
  8
0
 10
6.44558
 20
17.5336
 30
0.0
 40
0
 41
0
  0
VERTEX
  8
0
 10
6.47537
 20
17.4147
 30
0.0
 40
0
 41
0
  0
VERTEX
  8
0
 10
6.47282
 20
16.1504
 30
0.0
 40
0
 41
0
  0
VERTEX
  8
0
 10
6.50608
 20
16.0253
 30
0.0
 40
0
 41
0
  0
VERTEX
  8
0
 10
6.59739
 20
15.9336
 30
0.0
 40
0
 41
0
  0
VERTEX
  8
0
 10
6.72233
 20
15.8999
 30
0.0
 40
0
 41
0
  0
VERTEX
  8
0
 10
7.92458
 20
15.8975
 30
0.0
 40
0
 41
0
  0
VERTEX
  8
0
 10
7.93631
 20
15.8961
 30
0.0
 40
0
 41
0
  0
VERTEX
  8
0
 10
7.94803
 20
15.8953
 30
0.0
 40
0
 41
0
  0
VERTEX
  8
0
 10
7.95985
 20
15.8949
 30
0.0
 40
0
 41
0
  0
VERTEX
  8
0
 10
9.46332
 20
15.8919
 30
0.0
 40
0
 41
0
  0
VERTEX
  8
0
 10
9.4751
 20
15.8922
 30
0.0
 40
0
 41
0
  0
VERTEX
  8
0
 10
9.48687
 20
15.8929
 30
0.0
 40
0
 41
0
  0
VERTEX
  8
0
 10
9.49858
 20
15.8943
 30
0.0
 40
0
 41
0
  0
VERTEX
  8
0
 10
12.1223
 20
15.8892
 30
0.0
 40
0
 41
0
  0
VERTEX
  8
0
 10
12.1224
 20
15.9517
 30
0.0
 40
0
 41
0
  0
VERTEX
  8
0
 10
12.1562
 20
16.0765
 30
0.0
 40
0
 41
0
  0
VERTEX
  8
0
 10
12.2479
 20
16.1679
 30
0.0
 40
0
 41
0
  0
VERTEX
  8
0
 10
12.3729
 20
16.2011
 30
0.0
 40
0
 41
0
  0
VERTEX
  8
0
 10
16.3929
 20
16.1931
 30
0.0
 40
0
 41
0
  0
VERTEX
  8
0
 10
16.406
 20
16.1933
 30
0.0
 40
0
 41
0
  0
VERTEX
  8
0
 10
16.4192
 20
16.1944
 30
0.0
 40
0
 41
0
  0
VERTEX
  8
0
 10
16.4321
 20
16.1961
 30
0.0
 40
0
 41
0
  0
VERTEX
  8
0
 10
20.9385
 20
16.9006
 30
0.0
 40
0
 41
0
  0
VERTEX
  8
0
 10
21.0464
 20
16.945
 30
0.0
 40
0
 41
0
  0
VERTEX
  8
0
 10
21.1224
 20
17.0336
 30
0.0
 40
0
 41
0
  0
VERTEX
  8
0
 10
21.1499
 20
17.1471
 30
0.0
 40
0
 41
0
  0
VERTEX
  8
0
 10
21.1557
 20
20.066
 30
0.0
 40
0
 41
0
  0
VERTEX
  8
0
 10
21.1565
 20
20.486
 30
0.0
 40
0
 41
0
  0
VERTEX
  8
0
 10
21.1578
 20
21.1064
 30
0.0
 40
0
 41
0
  0
VERTEX
  8
0
 10
21.159
 20
21.7269
 30
0.0
 40
0
 41
0
  0
VERTEX
  8
0
 10
21.1603
 20
22.3475
 30
0.0
 40
0
 41
0
  0
VERTEX
  8
0
 10
21.1615
 20
22.9679
 30
0.0
 40
0
 41
0
  0
VERTEX
  8
0
 10
21.1615
 20
23.0081
 30
0.0
 40
0
 41
0
  0
VERTEX
  8
0
 10
21.1617
 20
23.0482
 30
0.0
 40
0
 41
0
  0
VERTEX
  8
0
 10
21.1617
 20
23.0883
 30
0.0
 40
0
 41
0
  0
VERTEX
  8
0
 10
21.1683
 20
26.4331
 30
0.0
 40
0
 41
0
  0
VERTEX
  8
0
 10
21.1696
 20
27.1317
 30
0.0
 40
0
 41
0
  0
VERTEX
  8
0
 10
21.1725
 20
28.5288
 30
0.0
 40
0
 41
0
  0
VERTEX
  8
0
 10
21.1739
 20
29.2274
 30
0.0
 40
0
 41
0
  0
VERTEX
  8
0
 10
21.1753
 20
29.9258
 30
0.0
 40
0
 41
0
  0
VERTEX
  8
0
 10
21.1767
 20
30.6246
 30
0.0
 40
0
 41
0
  0
SEQEND
 8
0
  0
POLYLINE
  8
0
 62
     0
 66
     1
 10
0
 20
0
 30
0.0
 70
     1
 40
0
 41
0
  0
VERTEX
  8
0
 10
8.06022
 20
30.5931
 30
0.0
 40
0
 41
0
  0
VERTEX
  8
0
 10
8.009
 20
30.5229
 30
0.0
 40
0
 41
0
  0
VERTEX
  8
0
 10
7.92643
 20
30.4962
 30
0.0
 40
0
 41
0
  0
VERTEX
  8
0
 10
7.84392
 20
30.5232
 30
0.0
 40
0
 41
0
  0
VERTEX
  8
0
 10
7.82206
 20
30.5429
 30
0.0
 40
0
 41
0
  0
VERTEX
  8
0
 10
7.79292
 20
30.5935
 30
0.0
 40
0
 41
0
  0
VERTEX
  8
0
 10
7.78683
 20
30.6517
 30
0.0
 40
0
 41
0
  0
VERTEX
  8
0
 10
7.83268
 20
30.7415
 30
0.0
 40
0
 41
0
  0
VERTEX
  8
0
 10
7.92692
 20
30.7775
 30
0.0
 40
0
 41
0
  0
VERTEX
  8
0
 10
8.021
 20
30.7411
 30
0.0
 40
0
 41
0
  0
VERTEX
  8
0
 10
8.06651
 20
30.6511
 30
0.0
 40
0
 41
0
  0
VERTEX
  8
0
 10
8.06022
 20
30.5931
 30
0.0
 40
0
 41
0
  0
SEQEND
 8
0
  0
POLYLINE
  8
0
 62
     0
 66
     1
 10
0
 20
0
 30
0.0
 70
     1
 40
0
 41
0
  0
VERTEX
  8
0
 10
7.06581
 20
24.8986
 30
0.0
 40
0
 41
0
  0
VERTEX
  8
0
 10
7.16531
 20
24.9396
 30
0.0
 40
0
 41
0
  0
VERTEX
  8
0
 10
7.26465
 20
24.8982
 30
0.0
 40
0
 41
0
  0
VERTEX
  8
0
 10
7.30561
 20
24.7986
 30
0.0
 40
0
 41
0
  0
VERTEX
  8
0
 10
7.26426
 20
24.6993
 30
0.0
 40
0
 41
0
  0
VERTEX
  8
0
 10
7.16476
 20
24.6583
 30
0.0
 40
0
 41
0
  0
VERTEX
  8
0
 10
7.06543
 20
24.6997
 30
0.0
 40
0
 41
0
  0
VERTEX
  8
0
 10
7.02442
 20
24.7993
 30
0.0
 40
0
 41
0
  0
VERTEX
  8
0
 10
7.06581
 20
24.8986
 30
0.0
 40
0
 41
0
  0
SEQEND
 8
0
  0
POLYLINE
  8
0
 62
     0
 66
     1
 10
0
 20
0
 30
0.0
 70
     1
 40
0
 41
0
  0
VERTEX
  8
0
 10
10.0388
 20
16.3312
 30
0.0
 40
0
 41
0
  0
VERTEX
  8
0
 10
9.99744
 20
16.2319
 30
0.0
 40
0
 41
0
  0
VERTEX
  8
0
 10
9.89794
 20
16.191
 30
0.0
 40
0
 41
0
  0
VERTEX
  8
0
 10
9.79861
 20
16.2324
 30
0.0
 40
0
 41
0
  0
VERTEX
  8
0
 10
9.7576
 20
16.3318
 30
0.0
 40
0
 41
0
  0
VERTEX
  8
0
 10
9.79899
 20
16.4311
 30
0.0
 40
0
 41
0
  0
VERTEX
  8
0
 10
9.89849
 20
16.4722
 30
0.0
 40
0
 41
0
  0
VERTEX
  8
0
 10
9.99783
 20
16.4308
 30
0.0
 40
0
 41
0
  0
VERTEX
  8
0
 10
10.0388
 20
16.3312
 30
0.0
 40
0
 41
0
  0
SEQEND
 8
0
  0
POLYLINE
  8
0
 62
     0
 66
     1
 10
0
 20
0
 30
0.0
 70
     1
 40
0
 41
0
  0
VERTEX
  8
0
 10
20.0657
 20
24.8622
 30
0.0
 40
0
 41
0
  0
VERTEX
  8
0
 10
20.1653
 20
24.9033
 30
0.0
 40
0
 41
0
  0
VERTEX
  8
0
 10
20.2646
 20
24.8618
 30
0.0
 40
0
 41
0
  0
VERTEX
  8
0
 10
20.3056
 20
24.7624
 30
0.0
 40
0
 41
0
  0
VERTEX
  8
0
 10
20.2642
 20
24.6631
 30
0.0
 40
0
 41
0
  0
VERTEX
  8
0
 10
20.1647
 20
24.6221
 30
0.0
 40
0
 41
0
  0
VERTEX
  8
0
 10
20.0654
 20
24.6635
 30
0.0
 40
0
 41
0
  0
VERTEX
  8
0
 10
20.0244
 20
24.7629
 30
0.0
 40
0
 41
0
  0
VERTEX
  8
0
 10
20.0657
 20
24.8622
 30
0.0
 40
0
 41
0
  0
SEQEND
 8
0
  0
POLYLINE
  8
0
 62
     0
 66
     1
 10
0
 20
0
 30
0.0
 70
     1
 40
0
 41
0
  0
VERTEX
  8
0
 10
19.3221
 20
30.5197
 30
0.0
 40
0
 41
0
  0
VERTEX
  8
0
 10
19.2929
 20
30.5703
 30
0.0
 40
0
 41
0
  0
VERTEX
  8
0
 10
19.2868
 20
30.6285
 30
0.0
 40
0
 41
0
  0
VERTEX
  8
0
 10
19.3326
 20
30.7182
 30
0.0
 40
0
 41
0
  0
VERTEX
  8
0
 10
19.4269
 20
30.7543
 30
0.0
 40
0
 41
0
  0
VERTEX
  8
0
 10
19.521
 20
30.7179
 30
0.0
 40
0
 41
0
  0
VERTEX
  8
0
 10
19.5665
 20
30.6279
 30
0.0
 40
0
 41
0
  0
VERTEX
  8
0
 10
19.5601
 20
30.5697
 30
0.0
 40
0
 41
0
  0
VERTEX
  8
0
 10
19.5089
 20
30.4997
 30
0.0
 40
0
 41
0
  0
VERTEX
  8
0
 10
19.4264
 20
30.4731
 30
0.0
 40
0
 41
0
  0
VERTEX
  8
0
 10
19.3439
 20
30.5
 30
0.0
 40
0
 41
0
  0
VERTEX
  8
0
 10
19.3221
 20
30.5197
 30
0.0
 40
0
 41
0
  0
SEQEND
 8
0
  0
POLYLINE
  8
0
 62
     0
 66
     1
 10
0
 20
0
 30
0.0
 70
     1
 40
0
 41
0
  0
VERTEX
  8
0
 10
20.2496
 20
17.2847
 30
0.0
 40
0
 41
0
  0
VERTEX
  8
0
 10
20.2906
 20
17.1853
 30
0.0
 40
0
 41
0
  0
VERTEX
  8
0
 10
20.2492
 20
17.086
 30
0.0
 40
0
 41
0
  0
VERTEX
  8
0
 10
20.1497
 20
17.0449
 30
0.0
 40
0
 41
0
  0
VERTEX
  8
0
 10
20.0504
 20
17.0862
 30
0.0
 40
0
 41
0
  0
VERTEX
  8
0
 10
20.0093
 20
17.1858
 30
0.0
 40
0
 41
0
  0
VERTEX
  8
0
 10
20.0507
 20
17.2851
 30
0.0
 40
0
 41
0
  0
VERTEX
  8
0
 10
20.1503
 20
17.3261
 30
0.0
 40
0
 41
0
  0
VERTEX
  8
0
 10
20.2496
 20
17.2847
 30
0.0
 40
0
 41
0
  0
SEQEND
 8
0
  0
POLYLINE
  8
0
 62
     0
 66
     1
 10
0
 20
0
 30
0.0
 70
     1
 40
0
 41
0
  0
VERTEX
  8
0
 10
21.0842
 20
13.6882
 30
0.0
 40
0
 41
0
  0
VERTEX
  8
0
 10
21.1332
 20
14.2235
 30
0.0
 40
0
 41
0
  0
VERTEX
  8
0
 10
21.15
 20
14.7672
 30
0.0
 40
0
 41
0
  0
VERTEX
  8
0
 10
21.15
 20
15.3778
 30
0.0
 40
0
 41
0
  0
VERTEX
  8
0
 10
0
 20
15.3767
 30
0.0
 40
0
 41
0
  0
VERTEX
  8
0
 10
5.42535e-05
 20
14.7661
 30
0.0
 40
0
 41
0
  0
VERTEX
  8
0
 10
5.42535e-05
 20
14.0676
 30
0.0
 40
0
 41
0
  0
VERTEX
  8
0
 10
0.000108507
 20
13.369
 30
0.0
 40
0
 41
0
  0
VERTEX
  8
0
 10
0.000108507
 20
11.9719
 30
0.0
 40
0
 41
0
  0
VERTEX
  8
0
 10
0.000162761
 20
11.2733
 30
0.0
 40
0
 41
0
  0
VERTEX
  8
0
 10
0.000162761
 20
4.20757
 30
0.0
 40
0
 41
0
  0
VERTEX
  8
0
 10
0.000271268
 20
1.28874
 30
0.0
 40
0
 41
0
  0
VERTEX
  8
0
 10
0.0275065
 20
1.17524
 30
0.0
 40
0
 41
0
  0
VERTEX
  8
0
 10
0.103299
 20
1.08648
 30
0.0
 40
0
 41
0
  0
VERTEX
  8
0
 10
0.211154
 20
1.04183
 30
0.0
 40
0
 41
0
  0
VERTEX
  8
0
 10
4.71615
 20
0.32845
 30
0.0
 40
0
 41
0
  0
VERTEX
  8
0
 10
4.72911
 20
0.326714
 30
0.0
 40
0
 41
0
  0
VERTEX
  8
0
 10
4.74219
 20
0.325683
 30
0.0
 40
0
 41
0
  0
VERTEX
  8
0
 10
4.75526
 20
0.325358
 30
0.0
 40
0
 41
0
  0
VERTEX
  8
0
 10
10.9362
 20
0.325521
 30
0.0
 40
0
 41
0
  0
VERTEX
  8
0
 10
10.9747
 20
0.322538
 30
0.0
 40
0
 41
0
  0
VERTEX
  8
0
 10
11.0123
 20
0.313693
 30
0.0
 40
0
 41
0
  0
VERTEX
  8
0
 10
11.0481
 20
0.2991
 30
0.0
 40
0
 41
0
  0
VERTEX
  8
0
 10
11.5725
 20
0.0369467
 30
0.0
 40
0
 41
0
  0
VERTEX
  8
0
 10
11.6082
 20
0.0223525
 30
0.0
 40
0
 41
0
  0
VERTEX
  8
0
 10
11.6458
 20
0.0135091
 30
0.0
 40
0
 41
0
  0
VERTEX
  8
0
 10
11.6843
 20
0.0105252
 30
0.0
 40
0
 41
0
  0
VERTEX
  8
0
 10
13.1878
 20
0.0105794
 30
0.0
 40
0
 41
0
  0
VERTEX
  8
0
 10
13.3128
 20
0.0440539
 30
0.0
 40
0
 41
0
  0
VERTEX
  8
0
 10
13.4043
 20
0.135579
 30
0.0
 40
0
 41
0
  0
VERTEX
  8
0
 10
13.4378
 20
0.260579
 30
0.0
 40
0
 41
0
  0
VERTEX
  8
0
 10
13.4377
 20
1.52556
 30
0.0
 40
0
 41
0
  0
VERTEX
  8
0
 10
13.4712
 20
1.65056
 30
0.0
 40
0
 41
0
  0
VERTEX
  8
0
 10
13.5627
 20
1.74208
 30
0.0
 40
0
 41
0
  0
VERTEX
  8
0
 10
13.6877
 20
1.77561
 30
0.0
 40
0
 41
0
  0
VERTEX
  8
0
 10
14.8826
 20
1.77561
 30
0.0
 40
0
 41
0
  0
VERTEX
  8
0
 10
14.9786
 20
1.79476
 30
0.0
 40
0
 41
0
  0
VERTEX
  8
0
 10
15.0597
 20
1.84918
 30
0.0
 40
0
 41
0
  0
VERTEX
  8
0
 10
15.1139
 20
1.93056
 30
0.0
 40
0
 41
0
  0
VERTEX
  8
0
 10
16.0501
 20
4.20801
 30
0.0
 40
0
 41
0
  0
VERTEX
  8
0
 10
16.1319
 20
4.41786
 30
0.0
 40
0
 41
0
  0
VERTEX
  8
0
 10
16.2138
 20
4.62776
 30
0.0
 40
0
 41
0
  0
VERTEX
  8
0
 10
16.7065
 20
5.25776
 30
0.0
 40
0
 41
0
  0
VERTEX
  8
0
 10
17.21
 20
5.87256
 30
0.0
 40
0
 41
0
  0
VERTEX
  8
0
 10
17.715
 20
6.48628
 30
0.0
 40
0
 41
0
  0
VERTEX
  8
0
 10
18.2158
 20
7.10969
 30
0.0
 40
0
 41
0
  0
VERTEX
  8
0
 10
18.314
 20
7.23004
 30
0.0
 40
0
 41
0
  0
VERTEX
  8
0
 10
18.9033
 20
8.00037
 30
0.0
 40
0
 41
0
  0
VERTEX
  8
0
 10
19.4219
 20
8.82032
 30
0.0
 40
0
 41
0
  0
VERTEX
  8
0
 10
19.8704
 20
9.6811
 30
0.0
 40
0
 41
0
  0
VERTEX
  8
0
 10
20.25
 20
10.5748
 30
0.0
 40
0
 41
0
  0
VERTEX
  8
0
 10
20.4363
 20
11.0806
 30
0.0
 40
0
 41
0
  0
VERTEX
  8
0
 10
20.6087
 20
11.5913
 30
0.0
 40
0
 41
0
  0
VERTEX
  8
0
 10
20.7632
 20
12.1065
 30
0.0
 40
0
 41
0
  0
VERTEX
  8
0
 10
20.8971
 20
12.6317
 30
0.0
 40
0
 41
0
  0
VERTEX
  8
0
 10
21.0047
 20
13.1574
 30
0.0
 40
0
 41
0
  0
VERTEX
  8
0
 10
21.0842
 20
13.6882
 30
0.0
 40
0
 41
0
  0
SEQEND
 8
0
  0
POLYLINE
  8
0
 62
     0
 66
     1
 10
0
 20
0
 30
0.0
 70
     1
 40
0
 41
0
  0
VERTEX
  8
0
 10
1.00022
 20
1.46588
 30
0.0
 40
0
 41
0
  0
VERTEX
  8
0
 10
1.09966
 20
1.42469
 30
0.0
 40
0
 41
0
  0
VERTEX
  8
0
 10
1.14084
 20
1.32525
 30
0.0
 40
0
 41
0
  0
VERTEX
  8
0
 10
1.09966
 20
1.22586
 30
0.0
 40
0
 41
0
  0
VERTEX
  8
0
 10
1.00027
 20
1.18468
 30
0.0
 40
0
 41
0
  0
VERTEX
  8
0
 10
0.900825
 20
1.22586
 30
0.0
 40
0
 41
0
  0
VERTEX
  8
0
 10
0.859646
 20
1.32525
 30
0.0
 40
0
 41
0
  0
VERTEX
  8
0
 10
0.900825
 20
1.42469
 30
0.0
 40
0
 41
0
  0
VERTEX
  8
0
 10
1.00022
 20
1.46588
 30
0.0
 40
0
 41
0
  0
SEQEND
 8
0
  0
POLYLINE
  8
0
 62
     0
 66
     1
 10
0
 20
0
 30
0.0
 70
     1
 40
0
 41
0
  0
VERTEX
  8
0
 10
13.9007
 20
8.81364
 30
0.0
 40
0
 41
0
  0
VERTEX
  8
0
 10
13.8595
 20
8.91303
 30
0.0
 40
0
 41
0
  0
VERTEX
  8
0
 10
13.9007
 20
9.01247
 30
0.0
 40
0
 41
0
  0
VERTEX
  8
0
 10
14.0001
 20
9.05365
 30
0.0
 40
0
 41
0
  0
VERTEX
  8
0
 10
14.0996
 20
9.01247
 30
0.0
 40
0
 41
0
  0
VERTEX
  8
0
 10
14.1407
 20
8.91303
 30
0.0
 40
0
 41
0
  0
VERTEX
  8
0
 10
14.0996
 20
8.81364
 30
0.0
 40
0
 41
0
  0
VERTEX
  8
0
 10
14.0001
 20
8.77246
 30
0.0
 40
0
 41
0
  0
VERTEX
  8
0
 10
13.9007
 20
8.81364
 30
0.0
 40
0
 41
0
  0
SEQEND
 8
0
  0
POLYLINE
  8
0
 62
     0
 66
     1
 10
0
 20
0
 30
0.0
 70
     1
 40
0
 41
0
  0
VERTEX
  8
0
 10
1.75006
 20
14.6113
 30
0.0
 40
0
 41
0
  0
VERTEX
  8
0
 10
1.64567
 20
14.6576
 30
0.0
 40
0
 41
0
  0
VERTEX
  8
0
 10
1.61019
 20
14.7664
 30
0.0
 40
0
 41
0
  0
VERTEX
  8
0
 10
1.65588
 20
14.8563
 30
0.0
 40
0
 41
0
  0
VERTEX
  8
0
 10
1.75006
 20
14.8924
 30
0.0
 40
0
 41
0
  0
VERTEX
  8
0
 10
1.84418
 20
14.8563
 30
0.0
 40
0
 41
0
  0
VERTEX
  8
0
 10
1.88992
 20
14.7664
 30
0.0
 40
0
 41
0
  0
VERTEX
  8
0
 10
1.85444
 20
14.6576
 30
0.0
 40
0
 41
0
  0
VERTEX
  8
0
 10
1.75006
 20
14.6113
 30
0.0
 40
0
 41
0
  0
SEQEND
 8
0
  0
POLYLINE
  8
0
 62
     0
 66
     1
 10
0
 20
0
 30
0.0
 70
     1
 40
0
 41
0
  0
VERTEX
  8
0
 10
1.09956
 20
8.80296
 30
0.0
 40
0
 41
0
  0
VERTEX
  8
0
 10
1.00016
 20
8.76178
 30
0.0
 40
0
 41
0
  0
VERTEX
  8
0
 10
0.900717
 20
8.80296
 30
0.0
 40
0
 41
0
  0
VERTEX
  8
0
 10
0.859538
 20
8.90235
 30
0.0
 40
0
 41
0
  0
VERTEX
  8
0
 10
0.900717
 20
9.00179
 30
0.0
 40
0
 41
0
  0
VERTEX
  8
0
 10
1.00016
 20
9.04297
 30
0.0
 40
0
 41
0
  0
VERTEX
  8
0
 10
1.09956
 20
9.00179
 30
0.0
 40
0
 41
0
  0
VERTEX
  8
0
 10
1.14073
 20
8.90235
 30
0.0
 40
0
 41
0
  0
VERTEX
  8
0
 10
1.09956
 20
8.80296
 30
0.0
 40
0
 41
0
  0
SEQEND
 8
0
  0
POLYLINE
  8
0
 62
     0
 66
     1
 10
0
 20
0
 30
0.0
 70
     1
 40
0
 41
0
  0
VERTEX
  8
0
 10
11.9195
 20
0.58865
 30
0.0
 40
0
 41
0
  0
VERTEX
  8
0
 10
12.0189
 20
0.547472
 30
0.0
 40
0
 41
0
  0
VERTEX
  8
0
 10
12.0601
 20
0.448025
 30
0.0
 40
0
 41
0
  0
VERTEX
  8
0
 10
12.0189
 20
0.348633
 30
0.0
 40
0
 41
0
  0
VERTEX
  8
0
 10
11.9195
 20
0.307454
 30
0.0
 40
0
 41
0
  0
VERTEX
  8
0
 10
11.8201
 20
0.348633
 30
0.0
 40
0
 41
0
  0
VERTEX
  8
0
 10
11.7789
 20
0.448025
 30
0.0
 40
0
 41
0
  0
VERTEX
  8
0
 10
11.8201
 20
0.547472
 30
0.0
 40
0
 41
0
  0
VERTEX
  8
0
 10
11.9195
 20
0.58865
 30
0.0
 40
0
 41
0
  0
SEQEND
 8
0
  0
POLYLINE
  8
0
 62
     0
 66
     1
 10
0
 20
0
 30
0.0
 70
     1
 40
0
 41
0
  0
VERTEX
  8
0
 10
13.1559
 20
14.8568
 30
0.0
 40
0
 41
0
  0
VERTEX
  8
0
 10
13.25
 20
14.8929
 30
0.0
 40
0
 41
0
  0
VERTEX
  8
0
 10
13.3442
 20
14.8568
 30
0.0
 40
0
 41
0
  0
VERTEX
  8
0
 10
13.3899
 20
14.7668
 30
0.0
 40
0
 41
0
  0
VERTEX
  8
0
 10
13.3544
 20
14.6582
 30
0.0
 40
0
 41
0
  0
VERTEX
  8
0
 10
13.2501
 20
14.6118
 30
0.0
 40
0
 41
0
  0
VERTEX
  8
0
 10
13.1457
 20
14.6582
 30
0.0
 40
0
 41
0
  0
VERTEX
  8
0
 10
13.1102
 20
14.7668
 30
0.0
 40
0
 41
0
  0
VERTEX
  8
0
 10
13.1559
 20
14.8568
 30
0.0
 40
0
 41
0
  0
SEQEND
 8
0
  0
ENDSEC
  0
EOF
