  0
SECTION
  2
HEADER
  9
$ACADVER
  1
AC1009
  9
$EXTMIN
 10
0.0
 20
0.0
 30
0.0
  9
$EXTMAX
 10
1000.0
 20
1000.0
 30
0.0
  9
$FILLMODE
 70
 0
  9
$SPLFRAME
 70
 1
  0
ENDSEC
  0
SECTION
  2
TABLES
  0
TABLE
  2
LAYER
 70
1
  0
LAYER
  2
0
 70
     0
 62
     7
  6
CONTINUOUS
  0
ENDTAB
  0
ENDSEC
  0
SECTION
  2
ENTITIES
  0
POLYLINE
  8
0
 62
     0
 66
     1
 10
0
 20
0
 30
0.0
 70
     1
 40
0
 41
0
  0
VERTEX
  8
0
 10
0
 20
38.2778
 30
0.0
 40
0
 41
0
  0
VERTEX
  8
0
 10
9.02501
 20
38.2778
 30
0.0
 40
0
 41
0
  0
VERTEX
  8
0
 10
9.02501
 20
13.6778
 30
0.0
 40
0
 41
0
  0
VERTEX
  8
0
 10
0
 20
13.6778
 30
0.0
 40
0
 41
0
  0
VERTEX
  8
0
 10
0
 20
38.2778
 30
0.0
 40
0
 41
0
  0
SEQEND
 8
0
  0
POLYLINE
  8
0
 62
     0
 66
     1
 10
0
 20
0
 30
0.0
 70
     1
 40
0
 41
0
  0
VERTEX
  8
0
 10
3.40001
 20
16.7468
 30
0.0
 40
0
 41
0
  0
VERTEX
  8
0
 10
3.40001
 20
20.7468
 30
0.0
 40
0
 41
0
  0
VERTEX
  8
0
 10
3.40001
 20
20.759
 30
0.0
 40
0
 41
0
  0
VERTEX
  8
0
 10
3.39513
 20
20.7958
 30
0.0
 40
0
 41
0
  0
VERTEX
  8
0
 10
3.38097
 20
20.8425
 30
0.0
 40
0
 41
0
  0
VERTEX
  8
0
 10
3.35796
 20
20.8856
 30
0.0
 40
0
 41
0
  0
VERTEX
  8
0
 10
3.33539
 20
20.915
 30
0.0
 40
0
 41
0
  0
VERTEX
  8
0
 10
3.32676
 20
20.9236
 30
0.0
 40
0
 41
0
  0
VERTEX
  8
0
 10
3.31808
 20
20.9322
 30
0.0
 40
0
 41
0
  0
VERTEX
  8
0
 10
3.28868
 20
20.9549
 30
0.0
 40
0
 41
0
  0
VERTEX
  8
0
 10
3.24567
 20
20.9778
 30
0.0
 40
0
 41
0
  0
VERTEX
  8
0
 10
3.199
 20
20.9919
 30
0.0
 40
0
 41
0
  0
VERTEX
  8
0
 10
3.16222
 20
20.9968
 30
0.0
 40
0
 41
0
  0
VERTEX
  8
0
 10
3.15001
 20
20.9968
 30
0.0
 40
0
 41
0
  0
VERTEX
  8
0
 10
2.40001
 20
20.9968
 30
0.0
 40
0
 41
0
  0
VERTEX
  8
0
 10
2.38775
 20
20.9968
 30
0.0
 40
0
 41
0
  0
VERTEX
  8
0
 10
2.35097
 20
20.9919
 30
0.0
 40
0
 41
0
  0
VERTEX
  8
0
 10
2.30431
 20
20.9778
 30
0.0
 40
0
 41
0
  0
VERTEX
  8
0
 10
2.26129
 20
20.9549
 30
0.0
 40
0
 41
0
  0
VERTEX
  8
0
 10
2.23182
 20
20.9322
 30
0.0
 40
0
 41
0
  0
VERTEX
  8
0
 10
2.22319
 20
20.9236
 30
0.0
 40
0
 41
0
  0
VERTEX
  8
0
 10
2.21451
 20
20.915
 30
0.0
 40
0
 41
0
  0
VERTEX
  8
0
 10
2.19194
 20
20.8856
 30
0.0
 40
0
 41
0
  0
VERTEX
  8
0
 10
2.169
 20
20.8425
 30
0.0
 40
0
 41
0
  0
VERTEX
  8
0
 10
2.15483
 20
20.7958
 30
0.0
 40
0
 41
0
  0
VERTEX
  8
0
 10
2.15001
 20
20.759
 30
0.0
 40
0
 41
0
  0
VERTEX
  8
0
 10
2.15001
 20
20.7468
 30
0.0
 40
0
 41
0
  0
VERTEX
  8
0
 10
2.15001
 20
16.7468
 30
0.0
 40
0
 41
0
  0
VERTEX
  8
0
 10
2.15001
 20
16.7225
 30
0.0
 40
0
 41
0
  0
VERTEX
  8
0
 10
2.16965
 20
16.6496
 30
0.0
 40
0
 41
0
  0
VERTEX
  8
0
 10
2.22319
 20
16.57
 30
0.0
 40
0
 41
0
  0
VERTEX
  8
0
 10
2.30268
 20
16.5165
 30
0.0
 40
0
 41
0
  0
VERTEX
  8
0
 10
2.37565
 20
16.4968
 30
0.0
 40
0
 41
0
  0
VERTEX
  8
0
 10
2.40001
 20
16.4968
 30
0.0
 40
0
 41
0
  0
VERTEX
  8
0
 10
3.15001
 20
16.4968
 30
0.0
 40
0
 41
0
  0
VERTEX
  8
0
 10
3.17432
 20
16.4968
 30
0.0
 40
0
 41
0
  0
VERTEX
  8
0
 10
3.24729
 20
16.5165
 30
0.0
 40
0
 41
0
  0
VERTEX
  8
0
 10
3.32676
 20
16.57
 30
0.0
 40
0
 41
0
  0
VERTEX
  8
0
 10
3.38032
 20
16.6496
 30
0.0
 40
0
 41
0
  0
VERTEX
  8
0
 10
3.40001
 20
16.7225
 30
0.0
 40
0
 41
0
  0
VERTEX
  8
0
 10
3.40001
 20
16.7468
 30
0.0
 40
0
 41
0
  0
SEQEND
 8
0
  0
POLYLINE
  8
0
 62
     0
 66
     1
 10
0
 20
0
 30
0.0
 70
     1
 40
0
 41
0
  0
VERTEX
  8
0
 10
2.40001
 20
30.9588
 30
0.0
 40
0
 41
0
  0
VERTEX
  8
0
 10
3.15001
 20
30.9588
 30
0.0
 40
0
 41
0
  0
VERTEX
  8
0
 10
3.17432
 20
30.9588
 30
0.0
 40
0
 41
0
  0
VERTEX
  8
0
 10
3.24729
 20
30.9785
 30
0.0
 40
0
 41
0
  0
VERTEX
  8
0
 10
3.32676
 20
31.0319
 30
0.0
 40
0
 41
0
  0
VERTEX
  8
0
 10
3.38032
 20
31.1115
 30
0.0
 40
0
 41
0
  0
VERTEX
  8
0
 10
3.40001
 20
31.1844
 30
0.0
 40
0
 41
0
  0
VERTEX
  8
0
 10
3.40001
 20
31.2088
 30
0.0
 40
0
 41
0
  0
VERTEX
  8
0
 10
3.40001
 20
35.2088
 30
0.0
 40
0
 41
0
  0
VERTEX
  8
0
 10
3.40001
 20
35.221
 30
0.0
 40
0
 41
0
  0
VERTEX
  8
0
 10
3.39513
 20
35.2578
 30
0.0
 40
0
 41
0
  0
VERTEX
  8
0
 10
3.38097
 20
35.3044
 30
0.0
 40
0
 41
0
  0
VERTEX
  8
0
 10
3.35796
 20
35.3475
 30
0.0
 40
0
 41
0
  0
VERTEX
  8
0
 10
3.33539
 20
35.3769
 30
0.0
 40
0
 41
0
  0
VERTEX
  8
0
 10
3.32676
 20
35.3856
 30
0.0
 40
0
 41
0
  0
VERTEX
  8
0
 10
3.31808
 20
35.3943
 30
0.0
 40
0
 41
0
  0
VERTEX
  8
0
 10
3.28868
 20
35.4168
 30
0.0
 40
0
 41
0
  0
VERTEX
  8
0
 10
3.24567
 20
35.4397
 30
0.0
 40
0
 41
0
  0
VERTEX
  8
0
 10
3.199
 20
35.4539
 30
0.0
 40
0
 41
0
  0
VERTEX
  8
0
 10
3.16222
 20
35.4588
 30
0.0
 40
0
 41
0
  0
VERTEX
  8
0
 10
3.15001
 20
35.4588
 30
0.0
 40
0
 41
0
  0
VERTEX
  8
0
 10
2.40001
 20
35.4588
 30
0.0
 40
0
 41
0
  0
VERTEX
  8
0
 10
2.37565
 20
35.4588
 30
0.0
 40
0
 41
0
  0
VERTEX
  8
0
 10
2.30268
 20
35.4392
 30
0.0
 40
0
 41
0
  0
VERTEX
  8
0
 10
2.22319
 20
35.3856
 30
0.0
 40
0
 41
0
  0
VERTEX
  8
0
 10
2.16965
 20
35.3061
 30
0.0
 40
0
 41
0
  0
VERTEX
  8
0
 10
2.15001
 20
35.2332
 30
0.0
 40
0
 41
0
  0
VERTEX
  8
0
 10
2.15001
 20
35.2088
 30
0.0
 40
0
 41
0
  0
VERTEX
  8
0
 10
2.15001
 20
31.2088
 30
0.0
 40
0
 41
0
  0
VERTEX
  8
0
 10
2.15001
 20
31.1844
 30
0.0
 40
0
 41
0
  0
VERTEX
  8
0
 10
2.16965
 20
31.1115
 30
0.0
 40
0
 41
0
  0
VERTEX
  8
0
 10
2.22319
 20
31.0319
 30
0.0
 40
0
 41
0
  0
VERTEX
  8
0
 10
2.30268
 20
30.9785
 30
0.0
 40
0
 41
0
  0
VERTEX
  8
0
 10
2.37565
 20
30.9588
 30
0.0
 40
0
 41
0
  0
VERTEX
  8
0
 10
2.40001
 20
30.9588
 30
0.0
 40
0
 41
0
  0
SEQEND
 8
0
  0
POLYLINE
  8
0
 62
     0
 66
     1
 10
0
 20
0
 30
0.0
 70
     1
 40
0
 41
0
  0
VERTEX
  8
0
 10
7.52501
 20
24.1028
 30
0.0
 40
0
 41
0
  0
VERTEX
  8
0
 10
7.52501
 20
27.8528
 30
0.0
 40
0
 41
0
  0
VERTEX
  8
0
 10
7.52501
 20
27.865
 30
0.0
 40
0
 41
0
  0
VERTEX
  8
0
 10
7.52012
 20
27.9018
 30
0.0
 40
0
 41
0
  0
VERTEX
  8
0
 10
7.50597
 20
27.9485
 30
0.0
 40
0
 41
0
  0
VERTEX
  8
0
 10
7.48296
 20
27.9915
 30
0.0
 40
0
 41
0
  0
VERTEX
  8
0
 10
7.46039
 20
28.021
 30
0.0
 40
0
 41
0
  0
VERTEX
  8
0
 10
7.45176
 20
28.0296
 30
0.0
 40
0
 41
0
  0
VERTEX
  8
0
 10
7.44308
 20
28.0382
 30
0.0
 40
0
 41
0
  0
VERTEX
  8
0
 10
7.41368
 20
28.0608
 30
0.0
 40
0
 41
0
  0
VERTEX
  8
0
 10
7.37067
 20
28.0838
 30
0.0
 40
0
 41
0
  0
VERTEX
  8
0
 10
7.324
 20
28.0979
 30
0.0
 40
0
 41
0
  0
VERTEX
  8
0
 10
7.28722
 20
28.1028
 30
0.0
 40
0
 41
0
  0
VERTEX
  8
0
 10
7.27501
 20
28.1028
 30
0.0
 40
0
 41
0
  0
VERTEX
  8
0
 10
2.40001
 20
28.1028
 30
0.0
 40
0
 41
0
  0
VERTEX
  8
0
 10
2.37565
 20
28.1028
 30
0.0
 40
0
 41
0
  0
VERTEX
  8
0
 10
2.30268
 20
28.0831
 30
0.0
 40
0
 41
0
  0
VERTEX
  8
0
 10
2.22319
 20
28.0296
 30
0.0
 40
0
 41
0
  0
VERTEX
  8
0
 10
2.16965
 20
27.9501
 30
0.0
 40
0
 41
0
  0
VERTEX
  8
0
 10
2.15001
 20
27.8771
 30
0.0
 40
0
 41
0
  0
VERTEX
  8
0
 10
2.15001
 20
27.8528
 30
0.0
 40
0
 41
0
  0
VERTEX
  8
0
 10
2.15001
 20
24.1028
 30
0.0
 40
0
 41
0
  0
VERTEX
  8
0
 10
2.15001
 20
24.0785
 30
0.0
 40
0
 41
0
  0
VERTEX
  8
0
 10
2.16965
 20
24.0054
 30
0.0
 40
0
 41
0
  0
VERTEX
  8
0
 10
2.22319
 20
23.926
 30
0.0
 40
0
 41
0
  0
VERTEX
  8
0
 10
2.30268
 20
23.8725
 30
0.0
 40
0
 41
0
  0
VERTEX
  8
0
 10
2.37565
 20
23.8528
 30
0.0
 40
0
 41
0
  0
VERTEX
  8
0
 10
2.40001
 20
23.8528
 30
0.0
 40
0
 41
0
  0
VERTEX
  8
0
 10
7.27501
 20
23.8528
 30
0.0
 40
0
 41
0
  0
VERTEX
  8
0
 10
7.28722
 20
23.8528
 30
0.0
 40
0
 41
0
  0
VERTEX
  8
0
 10
7.324
 20
23.8576
 30
0.0
 40
0
 41
0
  0
VERTEX
  8
0
 10
7.37067
 20
23.8718
 30
0.0
 40
0
 41
0
  0
VERTEX
  8
0
 10
7.41368
 20
23.8949
 30
0.0
 40
0
 41
0
  0
VERTEX
  8
0
 10
7.44308
 20
23.9174
 30
0.0
 40
0
 41
0
  0
VERTEX
  8
0
 10
7.45176
 20
23.926
 30
0.0
 40
0
 41
0
  0
VERTEX
  8
0
 10
7.46039
 20
23.9347
 30
0.0
 40
0
 41
0
  0
VERTEX
  8
0
 10
7.48296
 20
23.964
 30
0.0
 40
0
 41
0
  0
VERTEX
  8
0
 10
7.50597
 20
24.0071
 30
0.0
 40
0
 41
0
  0
VERTEX
  8
0
 10
7.52012
 20
24.0538
 30
0.0
 40
0
 41
0
  0
VERTEX
  8
0
 10
7.52501
 20
24.0906
 30
0.0
 40
0
 41
0
  0
VERTEX
  8
0
 10
7.52501
 20
24.1028
 30
0.0
 40
0
 41
0
  0
SEQEND
 8
0
  0
POLYLINE
  8
0
 62
     0
 66
     1
 10
0
 20
0
 30
0.0
 70
     1
 40
0
 41
0
  0
VERTEX
  8
0
 10
0.525011
 20
14.5272
 30
0.0
 40
0
 41
0
  0
VERTEX
  8
0
 10
0.536404
 20
14.5272
 30
0.0
 40
0
 41
0
  0
VERTEX
  8
0
 10
0.570583
 20
14.5181
 30
0.0
 40
0
 41
0
  0
VERTEX
  8
0
 10
0.607856
 20
14.4929
 30
0.0
 40
0
 41
0
  0
VERTEX
  8
0
 10
0.632975
 20
14.4557
 30
0.0
 40
0
 41
0
  0
VERTEX
  8
0
 10
0.642199
 20
14.4215
 30
0.0
 40
0
 41
0
  0
VERTEX
  8
0
 10
0.642199
 20
14.41
 30
0.0
 40
0
 41
0
  0
VERTEX
  8
0
 10
0.642199
 20
14.3986
 30
0.0
 40
0
 41
0
  0
VERTEX
  8
0
 10
0.632975
 20
14.3644
 30
0.0
 40
0
 41
0
  0
VERTEX
  8
0
 10
0.607856
 20
14.3272
 30
0.0
 40
0
 41
0
  0
VERTEX
  8
0
 10
0.570583
 20
14.3021
 30
0.0
 40
0
 41
0
  0
VERTEX
  8
0
 10
0.536404
 20
14.2929
 30
0.0
 40
0
 41
0
  0
VERTEX
  8
0
 10
0.525011
 20
14.2929
 30
0.0
 40
0
 41
0
  0
VERTEX
  8
0
 10
0.513564
 20
14.2929
 30
0.0
 40
0
 41
0
  0
VERTEX
  8
0
 10
0.479383
 20
14.3021
 30
0.0
 40
0
 41
0
  0
VERTEX
  8
0
 10
0.442111
 20
14.3272
 30
0.0
 40
0
 41
0
  0
VERTEX
  8
0
 10
0.416992
 20
14.3644
 30
0.0
 40
0
 41
0
  0
VERTEX
  8
0
 10
0.407824
 20
14.3986
 30
0.0
 40
0
 41
0
  0
VERTEX
  8
0
 10
0.407824
 20
14.41
 30
0.0
 40
0
 41
0
  0
VERTEX
  8
0
 10
0.407824
 20
14.4215
 30
0.0
 40
0
 41
0
  0
VERTEX
  8
0
 10
0.416992
 20
14.4557
 30
0.0
 40
0
 41
0
  0
VERTEX
  8
0
 10
0.442111
 20
14.4929
 30
0.0
 40
0
 41
0
  0
VERTEX
  8
0
 10
0.479383
 20
14.5181
 30
0.0
 40
0
 41
0
  0
VERTEX
  8
0
 10
0.513564
 20
14.5272
 30
0.0
 40
0
 41
0
  0
VERTEX
  8
0
 10
0.525011
 20
14.5272
 30
0.0
 40
0
 41
0
  0
SEQEND
 8
0
  0
POLYLINE
  8
0
 62
     0
 66
     1
 10
0
 20
0
 30
0.0
 70
     1
 40
0
 41
0
  0
VERTEX
  8
0
 10
0.525011
 20
37.52
 30
0.0
 40
0
 41
0
  0
VERTEX
  8
0
 10
0.536404
 20
37.52
 30
0.0
 40
0
 41
0
  0
VERTEX
  8
0
 10
0.570583
 20
37.5108
 30
0.0
 40
0
 41
0
  0
VERTEX
  8
0
 10
0.607856
 20
37.4857
 30
0.0
 40
0
 41
0
  0
VERTEX
  8
0
 10
0.632975
 20
37.4485
 30
0.0
 40
0
 41
0
  0
VERTEX
  8
0
 10
0.642199
 20
37.4142
 30
0.0
 40
0
 41
0
  0
VERTEX
  8
0
 10
0.642199
 20
37.4028
 30
0.0
 40
0
 41
0
  0
VERTEX
  8
0
 10
0.642199
 20
37.3914
 30
0.0
 40
0
 41
0
  0
VERTEX
  8
0
 10
0.632975
 20
37.3572
 30
0.0
 40
0
 41
0
  0
VERTEX
  8
0
 10
0.607856
 20
37.32
 30
0.0
 40
0
 41
0
  0
VERTEX
  8
0
 10
0.570583
 20
37.2949
 30
0.0
 40
0
 41
0
  0
VERTEX
  8
0
 10
0.536404
 20
37.2856
 30
0.0
 40
0
 41
0
  0
VERTEX
  8
0
 10
0.525011
 20
37.2856
 30
0.0
 40
0
 41
0
  0
VERTEX
  8
0
 10
0.513564
 20
37.2856
 30
0.0
 40
0
 41
0
  0
VERTEX
  8
0
 10
0.479383
 20
37.2949
 30
0.0
 40
0
 41
0
  0
VERTEX
  8
0
 10
0.442111
 20
37.32
 30
0.0
 40
0
 41
0
  0
VERTEX
  8
0
 10
0.416992
 20
37.3572
 30
0.0
 40
0
 41
0
  0
VERTEX
  8
0
 10
0.407824
 20
37.3914
 30
0.0
 40
0
 41
0
  0
VERTEX
  8
0
 10
0.407824
 20
37.4028
 30
0.0
 40
0
 41
0
  0
VERTEX
  8
0
 10
0.407824
 20
37.4142
 30
0.0
 40
0
 41
0
  0
VERTEX
  8
0
 10
0.416992
 20
37.4485
 30
0.0
 40
0
 41
0
  0
VERTEX
  8
0
 10
0.442111
 20
37.4857
 30
0.0
 40
0
 41
0
  0
VERTEX
  8
0
 10
0.479383
 20
37.5108
 30
0.0
 40
0
 41
0
  0
VERTEX
  8
0
 10
0.513564
 20
37.52
 30
0.0
 40
0
 41
0
  0
VERTEX
  8
0
 10
0.525011
 20
37.52
 30
0.0
 40
0
 41
0
  0
SEQEND
 8
0
  0
POLYLINE
  8
0
 62
     0
 66
     1
 10
0
 20
0
 30
0.0
 70
     1
 40
0
 41
0
  0
VERTEX
  8
0
 10
0.525011
 20
17.3637
 30
0.0
 40
0
 41
0
  0
VERTEX
  8
0
 10
0.536404
 20
17.3637
 30
0.0
 40
0
 41
0
  0
VERTEX
  8
0
 10
0.570583
 20
17.3546
 30
0.0
 40
0
 41
0
  0
VERTEX
  8
0
 10
0.607856
 20
17.3294
 30
0.0
 40
0
 41
0
  0
VERTEX
  8
0
 10
0.632975
 20
17.2922
 30
0.0
 40
0
 41
0
  0
VERTEX
  8
0
 10
0.642199
 20
17.2579
 30
0.0
 40
0
 41
0
  0
VERTEX
  8
0
 10
0.642199
 20
17.2465
 30
0.0
 40
0
 41
0
  0
VERTEX
  8
0
 10
0.642199
 20
17.2351
 30
0.0
 40
0
 41
0
  0
VERTEX
  8
0
 10
0.632975
 20
17.201
 30
0.0
 40
0
 41
0
  0
VERTEX
  8
0
 10
0.607856
 20
17.1638
 30
0.0
 40
0
 41
0
  0
VERTEX
  8
0
 10
0.570583
 20
17.1386
 30
0.0
 40
0
 41
0
  0
VERTEX
  8
0
 10
0.536404
 20
17.1293
 30
0.0
 40
0
 41
0
  0
VERTEX
  8
0
 10
0.525011
 20
17.1293
 30
0.0
 40
0
 41
0
  0
VERTEX
  8
0
 10
0.513564
 20
17.1293
 30
0.0
 40
0
 41
0
  0
VERTEX
  8
0
 10
0.479383
 20
17.1386
 30
0.0
 40
0
 41
0
  0
VERTEX
  8
0
 10
0.442111
 20
17.1638
 30
0.0
 40
0
 41
0
  0
VERTEX
  8
0
 10
0.416992
 20
17.201
 30
0.0
 40
0
 41
0
  0
VERTEX
  8
0
 10
0.407824
 20
17.2351
 30
0.0
 40
0
 41
0
  0
VERTEX
  8
0
 10
0.407824
 20
17.2465
 30
0.0
 40
0
 41
0
  0
VERTEX
  8
0
 10
0.407824
 20
17.2579
 30
0.0
 40
0
 41
0
  0
VERTEX
  8
0
 10
0.416992
 20
17.2922
 30
0.0
 40
0
 41
0
  0
VERTEX
  8
0
 10
0.442111
 20
17.3294
 30
0.0
 40
0
 41
0
  0
VERTEX
  8
0
 10
0.479383
 20
17.3546
 30
0.0
 40
0
 41
0
  0
VERTEX
  8
0
 10
0.513564
 20
17.3637
 30
0.0
 40
0
 41
0
  0
VERTEX
  8
0
 10
0.525011
 20
17.3637
 30
0.0
 40
0
 41
0
  0
SEQEND
 8
0
  0
POLYLINE
  8
0
 62
     0
 66
     1
 10
0
 20
0
 30
0.0
 70
     1
 40
0
 41
0
  0
VERTEX
  8
0
 10
0.525011
 20
20.3637
 30
0.0
 40
0
 41
0
  0
VERTEX
  8
0
 10
0.536404
 20
20.3637
 30
0.0
 40
0
 41
0
  0
VERTEX
  8
0
 10
0.570583
 20
20.3546
 30
0.0
 40
0
 41
0
  0
VERTEX
  8
0
 10
0.607856
 20
20.3294
 30
0.0
 40
0
 41
0
  0
VERTEX
  8
0
 10
0.632975
 20
20.2922
 30
0.0
 40
0
 41
0
  0
VERTEX
  8
0
 10
0.642199
 20
20.2579
 30
0.0
 40
0
 41
0
  0
VERTEX
  8
0
 10
0.642199
 20
20.2465
 30
0.0
 40
0
 41
0
  0
VERTEX
  8
0
 10
0.642199
 20
20.2351
 30
0.0
 40
0
 41
0
  0
VERTEX
  8
0
 10
0.632975
 20
20.201
 30
0.0
 40
0
 41
0
  0
VERTEX
  8
0
 10
0.607856
 20
20.1638
 30
0.0
 40
0
 41
0
  0
VERTEX
  8
0
 10
0.570583
 20
20.1386
 30
0.0
 40
0
 41
0
  0
VERTEX
  8
0
 10
0.536404
 20
20.1293
 30
0.0
 40
0
 41
0
  0
VERTEX
  8
0
 10
0.525011
 20
20.1293
 30
0.0
 40
0
 41
0
  0
VERTEX
  8
0
 10
0.513564
 20
20.1293
 30
0.0
 40
0
 41
0
  0
VERTEX
  8
0
 10
0.479383
 20
20.1386
 30
0.0
 40
0
 41
0
  0
VERTEX
  8
0
 10
0.442111
 20
20.1638
 30
0.0
 40
0
 41
0
  0
VERTEX
  8
0
 10
0.416992
 20
20.201
 30
0.0
 40
0
 41
0
  0
VERTEX
  8
0
 10
0.407824
 20
20.2351
 30
0.0
 40
0
 41
0
  0
VERTEX
  8
0
 10
0.407824
 20
20.2465
 30
0.0
 40
0
 41
0
  0
VERTEX
  8
0
 10
0.407824
 20
20.2579
 30
0.0
 40
0
 41
0
  0
VERTEX
  8
0
 10
0.416992
 20
20.2922
 30
0.0
 40
0
 41
0
  0
VERTEX
  8
0
 10
0.442111
 20
20.3294
 30
0.0
 40
0
 41
0
  0
VERTEX
  8
0
 10
0.479383
 20
20.3546
 30
0.0
 40
0
 41
0
  0
VERTEX
  8
0
 10
0.513564
 20
20.3637
 30
0.0
 40
0
 41
0
  0
VERTEX
  8
0
 10
0.525011
 20
20.3637
 30
0.0
 40
0
 41
0
  0
SEQEND
 8
0
  0
POLYLINE
  8
0
 62
     0
 66
     1
 10
0
 20
0
 30
0.0
 70
     1
 40
0
 41
0
  0
VERTEX
  8
0
 10
0.525011
 20
24.295
 30
0.0
 40
0
 41
0
  0
VERTEX
  8
0
 10
0.536404
 20
24.295
 30
0.0
 40
0
 41
0
  0
VERTEX
  8
0
 10
0.570583
 20
24.2858
 30
0.0
 40
0
 41
0
  0
VERTEX
  8
0
 10
0.607856
 20
24.2607
 30
0.0
 40
0
 41
0
  0
VERTEX
  8
0
 10
0.632975
 20
24.2235
 30
0.0
 40
0
 41
0
  0
VERTEX
  8
0
 10
0.642199
 20
24.1893
 30
0.0
 40
0
 41
0
  0
VERTEX
  8
0
 10
0.642199
 20
24.1778
 30
0.0
 40
0
 41
0
  0
VERTEX
  8
0
 10
0.642199
 20
24.1664
 30
0.0
 40
0
 41
0
  0
VERTEX
  8
0
 10
0.632975
 20
24.1322
 30
0.0
 40
0
 41
0
  0
VERTEX
  8
0
 10
0.607856
 20
24.095
 30
0.0
 40
0
 41
0
  0
VERTEX
  8
0
 10
0.570583
 20
24.0699
 30
0.0
 40
0
 41
0
  0
VERTEX
  8
0
 10
0.536404
 20
24.0606
 30
0.0
 40
0
 41
0
  0
VERTEX
  8
0
 10
0.525011
 20
24.0606
 30
0.0
 40
0
 41
0
  0
VERTEX
  8
0
 10
0.513564
 20
24.0606
 30
0.0
 40
0
 41
0
  0
VERTEX
  8
0
 10
0.479383
 20
24.0699
 30
0.0
 40
0
 41
0
  0
VERTEX
  8
0
 10
0.442111
 20
24.095
 30
0.0
 40
0
 41
0
  0
VERTEX
  8
0
 10
0.416992
 20
24.1322
 30
0.0
 40
0
 41
0
  0
VERTEX
  8
0
 10
0.407824
 20
24.1664
 30
0.0
 40
0
 41
0
  0
VERTEX
  8
0
 10
0.407824
 20
24.1778
 30
0.0
 40
0
 41
0
  0
VERTEX
  8
0
 10
0.407824
 20
24.1893
 30
0.0
 40
0
 41
0
  0
VERTEX
  8
0
 10
0.416992
 20
24.2235
 30
0.0
 40
0
 41
0
  0
VERTEX
  8
0
 10
0.442111
 20
24.2607
 30
0.0
 40
0
 41
0
  0
VERTEX
  8
0
 10
0.479383
 20
24.2858
 30
0.0
 40
0
 41
0
  0
VERTEX
  8
0
 10
0.513564
 20
24.295
 30
0.0
 40
0
 41
0
  0
VERTEX
  8
0
 10
0.525011
 20
24.295
 30
0.0
 40
0
 41
0
  0
SEQEND
 8
0
  0
POLYLINE
  8
0
 62
     0
 66
     1
 10
0
 20
0
 30
0.0
 70
     1
 40
0
 41
0
  0
VERTEX
  8
0
 10
0.525011
 20
26.045
 30
0.0
 40
0
 41
0
  0
VERTEX
  8
0
 10
0.536404
 20
26.045
 30
0.0
 40
0
 41
0
  0
VERTEX
  8
0
 10
0.570583
 20
26.0358
 30
0.0
 40
0
 41
0
  0
VERTEX
  8
0
 10
0.607856
 20
26.0107
 30
0.0
 40
0
 41
0
  0
VERTEX
  8
0
 10
0.632975
 20
25.9735
 30
0.0
 40
0
 41
0
  0
VERTEX
  8
0
 10
0.642199
 20
25.9393
 30
0.0
 40
0
 41
0
  0
VERTEX
  8
0
 10
0.642199
 20
25.9278
 30
0.0
 40
0
 41
0
  0
VERTEX
  8
0
 10
0.642199
 20
25.9164
 30
0.0
 40
0
 41
0
  0
VERTEX
  8
0
 10
0.632975
 20
25.8822
 30
0.0
 40
0
 41
0
  0
VERTEX
  8
0
 10
0.607856
 20
25.845
 30
0.0
 40
0
 41
0
  0
VERTEX
  8
0
 10
0.570583
 20
25.8199
 30
0.0
 40
0
 41
0
  0
VERTEX
  8
0
 10
0.536404
 20
25.8106
 30
0.0
 40
0
 41
0
  0
VERTEX
  8
0
 10
0.525011
 20
25.8106
 30
0.0
 40
0
 41
0
  0
VERTEX
  8
0
 10
0.513564
 20
25.8106
 30
0.0
 40
0
 41
0
  0
VERTEX
  8
0
 10
0.479383
 20
25.8199
 30
0.0
 40
0
 41
0
  0
VERTEX
  8
0
 10
0.442111
 20
25.845
 30
0.0
 40
0
 41
0
  0
VERTEX
  8
0
 10
0.416992
 20
25.8822
 30
0.0
 40
0
 41
0
  0
VERTEX
  8
0
 10
0.407824
 20
25.9164
 30
0.0
 40
0
 41
0
  0
VERTEX
  8
0
 10
0.407824
 20
25.9278
 30
0.0
 40
0
 41
0
  0
VERTEX
  8
0
 10
0.407824
 20
25.9393
 30
0.0
 40
0
 41
0
  0
VERTEX
  8
0
 10
0.416992
 20
25.9735
 30
0.0
 40
0
 41
0
  0
VERTEX
  8
0
 10
0.442111
 20
26.0107
 30
0.0
 40
0
 41
0
  0
VERTEX
  8
0
 10
0.479383
 20
26.0358
 30
0.0
 40
0
 41
0
  0
VERTEX
  8
0
 10
0.513564
 20
26.045
 30
0.0
 40
0
 41
0
  0
VERTEX
  8
0
 10
0.525011
 20
26.045
 30
0.0
 40
0
 41
0
  0
SEQEND
 8
0
  0
POLYLINE
  8
0
 62
     0
 66
     1
 10
0
 20
0
 30
0.0
 70
     1
 40
0
 41
0
  0
VERTEX
  8
0
 10
0.525011
 20
27.795
 30
0.0
 40
0
 41
0
  0
VERTEX
  8
0
 10
0.536404
 20
27.795
 30
0.0
 40
0
 41
0
  0
VERTEX
  8
0
 10
0.570583
 20
27.7858
 30
0.0
 40
0
 41
0
  0
VERTEX
  8
0
 10
0.607856
 20
27.7607
 30
0.0
 40
0
 41
0
  0
VERTEX
  8
0
 10
0.632975
 20
27.7235
 30
0.0
 40
0
 41
0
  0
VERTEX
  8
0
 10
0.642199
 20
27.6893
 30
0.0
 40
0
 41
0
  0
VERTEX
  8
0
 10
0.642199
 20
27.6778
 30
0.0
 40
0
 41
0
  0
VERTEX
  8
0
 10
0.642199
 20
27.6664
 30
0.0
 40
0
 41
0
  0
VERTEX
  8
0
 10
0.632975
 20
27.6322
 30
0.0
 40
0
 41
0
  0
VERTEX
  8
0
 10
0.607856
 20
27.595
 30
0.0
 40
0
 41
0
  0
VERTEX
  8
0
 10
0.570583
 20
27.5699
 30
0.0
 40
0
 41
0
  0
VERTEX
  8
0
 10
0.536404
 20
27.5606
 30
0.0
 40
0
 41
0
  0
VERTEX
  8
0
 10
0.525011
 20
27.5606
 30
0.0
 40
0
 41
0
  0
VERTEX
  8
0
 10
0.513564
 20
27.5606
 30
0.0
 40
0
 41
0
  0
VERTEX
  8
0
 10
0.479383
 20
27.5699
 30
0.0
 40
0
 41
0
  0
VERTEX
  8
0
 10
0.442111
 20
27.595
 30
0.0
 40
0
 41
0
  0
VERTEX
  8
0
 10
0.416992
 20
27.6322
 30
0.0
 40
0
 41
0
  0
VERTEX
  8
0
 10
0.407824
 20
27.6664
 30
0.0
 40
0
 41
0
  0
VERTEX
  8
0
 10
0.407824
 20
27.6778
 30
0.0
 40
0
 41
0
  0
VERTEX
  8
0
 10
0.407824
 20
27.6893
 30
0.0
 40
0
 41
0
  0
VERTEX
  8
0
 10
0.416992
 20
27.7235
 30
0.0
 40
0
 41
0
  0
VERTEX
  8
0
 10
0.442111
 20
27.7607
 30
0.0
 40
0
 41
0
  0
VERTEX
  8
0
 10
0.479383
 20
27.7858
 30
0.0
 40
0
 41
0
  0
VERTEX
  8
0
 10
0.513564
 20
27.795
 30
0.0
 40
0
 41
0
  0
VERTEX
  8
0
 10
0.525011
 20
27.795
 30
0.0
 40
0
 41
0
  0
SEQEND
 8
0
  0
POLYLINE
  8
0
 62
     0
 66
     1
 10
0
 20
0
 30
0.0
 70
     1
 40
0
 41
0
  0
VERTEX
  8
0
 10
0.525011
 20
31.7263
 30
0.0
 40
0
 41
0
  0
VERTEX
  8
0
 10
0.536404
 20
31.7263
 30
0.0
 40
0
 41
0
  0
VERTEX
  8
0
 10
0.570583
 20
31.7171
 30
0.0
 40
0
 41
0
  0
VERTEX
  8
0
 10
0.607856
 20
31.6919
 30
0.0
 40
0
 41
0
  0
VERTEX
  8
0
 10
0.632975
 20
31.6547
 30
0.0
 40
0
 41
0
  0
VERTEX
  8
0
 10
0.642199
 20
31.6206
 30
0.0
 40
0
 41
0
  0
VERTEX
  8
0
 10
0.642199
 20
31.609
 30
0.0
 40
0
 41
0
  0
VERTEX
  8
0
 10
0.642199
 20
31.5976
 30
0.0
 40
0
 41
0
  0
VERTEX
  8
0
 10
0.632975
 20
31.5635
 30
0.0
 40
0
 41
0
  0
VERTEX
  8
0
 10
0.607856
 20
31.5262
 30
0.0
 40
0
 41
0
  0
VERTEX
  8
0
 10
0.570583
 20
31.5011
 30
0.0
 40
0
 41
0
  0
VERTEX
  8
0
 10
0.536404
 20
31.4918
 30
0.0
 40
0
 41
0
  0
VERTEX
  8
0
 10
0.525011
 20
31.4918
 30
0.0
 40
0
 41
0
  0
VERTEX
  8
0
 10
0.513564
 20
31.4918
 30
0.0
 40
0
 41
0
  0
VERTEX
  8
0
 10
0.479383
 20
31.5011
 30
0.0
 40
0
 41
0
  0
VERTEX
  8
0
 10
0.442111
 20
31.5262
 30
0.0
 40
0
 41
0
  0
VERTEX
  8
0
 10
0.416992
 20
31.5635
 30
0.0
 40
0
 41
0
  0
VERTEX
  8
0
 10
0.407824
 20
31.5976
 30
0.0
 40
0
 41
0
  0
VERTEX
  8
0
 10
0.407824
 20
31.609
 30
0.0
 40
0
 41
0
  0
VERTEX
  8
0
 10
0.407824
 20
31.6206
 30
0.0
 40
0
 41
0
  0
VERTEX
  8
0
 10
0.416992
 20
31.6547
 30
0.0
 40
0
 41
0
  0
VERTEX
  8
0
 10
0.442111
 20
31.6919
 30
0.0
 40
0
 41
0
  0
VERTEX
  8
0
 10
0.479383
 20
31.7171
 30
0.0
 40
0
 41
0
  0
VERTEX
  8
0
 10
0.513564
 20
31.7263
 30
0.0
 40
0
 41
0
  0
VERTEX
  8
0
 10
0.525011
 20
31.7263
 30
0.0
 40
0
 41
0
  0
SEQEND
 8
0
  0
POLYLINE
  8
0
 62
     0
 66
     1
 10
0
 20
0
 30
0.0
 70
     1
 40
0
 41
0
  0
VERTEX
  8
0
 10
0.525011
 20
34.7263
 30
0.0
 40
0
 41
0
  0
VERTEX
  8
0
 10
0.536404
 20
34.7263
 30
0.0
 40
0
 41
0
  0
VERTEX
  8
0
 10
0.570583
 20
34.7171
 30
0.0
 40
0
 41
0
  0
VERTEX
  8
0
 10
0.607856
 20
34.6919
 30
0.0
 40
0
 41
0
  0
VERTEX
  8
0
 10
0.632975
 20
34.6547
 30
0.0
 40
0
 41
0
  0
VERTEX
  8
0
 10
0.642199
 20
34.6206
 30
0.0
 40
0
 41
0
  0
VERTEX
  8
0
 10
0.642199
 20
34.609
 30
0.0
 40
0
 41
0
  0
VERTEX
  8
0
 10
0.642199
 20
34.5976
 30
0.0
 40
0
 41
0
  0
VERTEX
  8
0
 10
0.632975
 20
34.5635
 30
0.0
 40
0
 41
0
  0
VERTEX
  8
0
 10
0.607856
 20
34.5262
 30
0.0
 40
0
 41
0
  0
VERTEX
  8
0
 10
0.570583
 20
34.5011
 30
0.0
 40
0
 41
0
  0
VERTEX
  8
0
 10
0.536404
 20
34.4918
 30
0.0
 40
0
 41
0
  0
VERTEX
  8
0
 10
0.525011
 20
34.4918
 30
0.0
 40
0
 41
0
  0
VERTEX
  8
0
 10
0.513564
 20
34.4918
 30
0.0
 40
0
 41
0
  0
VERTEX
  8
0
 10
0.479383
 20
34.5011
 30
0.0
 40
0
 41
0
  0
VERTEX
  8
0
 10
0.442111
 20
34.5262
 30
0.0
 40
0
 41
0
  0
VERTEX
  8
0
 10
0.416992
 20
34.5635
 30
0.0
 40
0
 41
0
  0
VERTEX
  8
0
 10
0.407824
 20
34.5976
 30
0.0
 40
0
 41
0
  0
VERTEX
  8
0
 10
0.407824
 20
34.609
 30
0.0
 40
0
 41
0
  0
VERTEX
  8
0
 10
0.407824
 20
34.6206
 30
0.0
 40
0
 41
0
  0
VERTEX
  8
0
 10
0.416992
 20
34.6547
 30
0.0
 40
0
 41
0
  0
VERTEX
  8
0
 10
0.442111
 20
34.6919
 30
0.0
 40
0
 41
0
  0
VERTEX
  8
0
 10
0.479383
 20
34.7171
 30
0.0
 40
0
 41
0
  0
VERTEX
  8
0
 10
0.513564
 20
34.7263
 30
0.0
 40
0
 41
0
  0
VERTEX
  8
0
 10
0.525011
 20
34.7263
 30
0.0
 40
0
 41
0
  0
SEQEND
 8
0
  0
POLYLINE
  8
0
 62
     0
 66
     1
 10
0
 20
0
 30
0.0
 70
     1
 40
0
 41
0
  0
VERTEX
  8
0
 10
7.00499
 20
34.5371
 30
0.0
 40
0
 41
0
  0
VERTEX
  8
0
 10
7.01014
 20
34.5371
 30
0.0
 40
0
 41
0
  0
VERTEX
  8
0
 10
7.02572
 20
34.5329
 30
0.0
 40
0
 41
0
  0
VERTEX
  8
0
 10
7.04264
 20
34.5215
 30
0.0
 40
0
 41
0
  0
VERTEX
  8
0
 10
7.05404
 20
34.5046
 30
0.0
 40
0
 41
0
  0
VERTEX
  8
0
 10
7.05826
 20
34.489
 30
0.0
 40
0
 41
0
  0
VERTEX
  8
0
 10
7.05826
 20
34.4838
 30
0.0
 40
0
 41
0
  0
VERTEX
  8
0
 10
7.05826
 20
34.4786
 30
0.0
 40
0
 41
0
  0
VERTEX
  8
0
 10
7.05404
 20
34.4631
 30
0.0
 40
0
 41
0
  0
VERTEX
  8
0
 10
7.04264
 20
34.4461
 30
0.0
 40
0
 41
0
  0
VERTEX
  8
0
 10
7.02572
 20
34.4347
 30
0.0
 40
0
 41
0
  0
VERTEX
  8
0
 10
7.01014
 20
34.4306
 30
0.0
 40
0
 41
0
  0
VERTEX
  8
0
 10
7.00499
 20
34.4306
 30
0.0
 40
0
 41
0
  0
VERTEX
  8
0
 10
6.99978
 20
34.4306
 30
0.0
 40
0
 41
0
  0
VERTEX
  8
0
 10
6.98426
 20
34.4347
 30
0.0
 40
0
 41
0
  0
VERTEX
  8
0
 10
6.96733
 20
34.4461
 30
0.0
 40
0
 41
0
  0
VERTEX
  8
0
 10
6.95594
 20
34.4631
 30
0.0
 40
0
 41
0
  0
VERTEX
  8
0
 10
6.95176
 20
34.4786
 30
0.0
 40
0
 41
0
  0
VERTEX
  8
0
 10
6.95176
 20
34.4838
 30
0.0
 40
0
 41
0
  0
VERTEX
  8
0
 10
6.95176
 20
34.489
 30
0.0
 40
0
 41
0
  0
VERTEX
  8
0
 10
6.95594
 20
34.5046
 30
0.0
 40
0
 41
0
  0
VERTEX
  8
0
 10
6.96733
 20
34.5215
 30
0.0
 40
0
 41
0
  0
VERTEX
  8
0
 10
6.98426
 20
34.5329
 30
0.0
 40
0
 41
0
  0
VERTEX
  8
0
 10
6.99978
 20
34.5371
 30
0.0
 40
0
 41
0
  0
VERTEX
  8
0
 10
7.00499
 20
34.5371
 30
0.0
 40
0
 41
0
  0
SEQEND
 8
0
  0
POLYLINE
  8
0
 62
     0
 66
     1
 10
0
 20
0
 30
0.0
 70
     1
 40
0
 41
0
  0
VERTEX
  8
0
 10
7.00499
 20
31.7869
 30
0.0
 40
0
 41
0
  0
VERTEX
  8
0
 10
7.01014
 20
31.7869
 30
0.0
 40
0
 41
0
  0
VERTEX
  8
0
 10
7.02572
 20
31.7828
 30
0.0
 40
0
 41
0
  0
VERTEX
  8
0
 10
7.04264
 20
31.7714
 30
0.0
 40
0
 41
0
  0
VERTEX
  8
0
 10
7.05404
 20
31.7544
 30
0.0
 40
0
 41
0
  0
VERTEX
  8
0
 10
7.05826
 20
31.739
 30
0.0
 40
0
 41
0
  0
VERTEX
  8
0
 10
7.05826
 20
31.7338
 30
0.0
 40
0
 41
0
  0
VERTEX
  8
0
 10
7.05826
 20
31.7286
 30
0.0
 40
0
 41
0
  0
VERTEX
  8
0
 10
7.05404
 20
31.7131
 30
0.0
 40
0
 41
0
  0
VERTEX
  8
0
 10
7.04264
 20
31.6961
 30
0.0
 40
0
 41
0
  0
VERTEX
  8
0
 10
7.02572
 20
31.6847
 30
0.0
 40
0
 41
0
  0
VERTEX
  8
0
 10
7.01014
 20
31.6806
 30
0.0
 40
0
 41
0
  0
VERTEX
  8
0
 10
7.00499
 20
31.6806
 30
0.0
 40
0
 41
0
  0
VERTEX
  8
0
 10
6.99978
 20
31.6806
 30
0.0
 40
0
 41
0
  0
VERTEX
  8
0
 10
6.98426
 20
31.6847
 30
0.0
 40
0
 41
0
  0
VERTEX
  8
0
 10
6.96733
 20
31.6961
 30
0.0
 40
0
 41
0
  0
VERTEX
  8
0
 10
6.95594
 20
31.7131
 30
0.0
 40
0
 41
0
  0
VERTEX
  8
0
 10
6.95176
 20
31.7286
 30
0.0
 40
0
 41
0
  0
VERTEX
  8
0
 10
6.95176
 20
31.7338
 30
0.0
 40
0
 41
0
  0
VERTEX
  8
0
 10
6.95176
 20
31.739
 30
0.0
 40
0
 41
0
  0
VERTEX
  8
0
 10
6.95594
 20
31.7544
 30
0.0
 40
0
 41
0
  0
VERTEX
  8
0
 10
6.96733
 20
31.7714
 30
0.0
 40
0
 41
0
  0
VERTEX
  8
0
 10
6.98426
 20
31.7828
 30
0.0
 40
0
 41
0
  0
VERTEX
  8
0
 10
6.99978
 20
31.7869
 30
0.0
 40
0
 41
0
  0
VERTEX
  8
0
 10
7.00499
 20
31.7869
 30
0.0
 40
0
 41
0
  0
SEQEND
 8
0
  0
POLYLINE
  8
0
 62
     0
 66
     1
 10
0
 20
0
 30
0.0
 70
     1
 40
0
 41
0
  0
VERTEX
  8
0
 10
3.95503
 20
31.7869
 30
0.0
 40
0
 41
0
  0
VERTEX
  8
0
 10
3.96018
 20
31.7869
 30
0.0
 40
0
 41
0
  0
VERTEX
  8
0
 10
3.97569
 20
31.7828
 30
0.0
 40
0
 41
0
  0
VERTEX
  8
0
 10
3.99262
 20
31.7714
 30
0.0
 40
0
 41
0
  0
VERTEX
  8
0
 10
4.00401
 20
31.7544
 30
0.0
 40
0
 41
0
  0
VERTEX
  8
0
 10
4.00825
 20
31.739
 30
0.0
 40
0
 41
0
  0
VERTEX
  8
0
 10
4.00825
 20
31.7338
 30
0.0
 40
0
 41
0
  0
VERTEX
  8
0
 10
4.00825
 20
31.7286
 30
0.0
 40
0
 41
0
  0
VERTEX
  8
0
 10
4.00401
 20
31.7131
 30
0.0
 40
0
 41
0
  0
VERTEX
  8
0
 10
3.99262
 20
31.6961
 30
0.0
 40
0
 41
0
  0
VERTEX
  8
0
 10
3.97569
 20
31.6847
 30
0.0
 40
0
 41
0
  0
VERTEX
  8
0
 10
3.96018
 20
31.6806
 30
0.0
 40
0
 41
0
  0
VERTEX
  8
0
 10
3.95503
 20
31.6806
 30
0.0
 40
0
 41
0
  0
VERTEX
  8
0
 10
3.94982
 20
31.6806
 30
0.0
 40
0
 41
0
  0
VERTEX
  8
0
 10
3.93425
 20
31.6847
 30
0.0
 40
0
 41
0
  0
VERTEX
  8
0
 10
3.91732
 20
31.6961
 30
0.0
 40
0
 41
0
  0
VERTEX
  8
0
 10
3.90593
 20
31.7131
 30
0.0
 40
0
 41
0
  0
VERTEX
  8
0
 10
3.90175
 20
31.7286
 30
0.0
 40
0
 41
0
  0
VERTEX
  8
0
 10
3.90175
 20
31.7338
 30
0.0
 40
0
 41
0
  0
VERTEX
  8
0
 10
3.90175
 20
31.739
 30
0.0
 40
0
 41
0
  0
VERTEX
  8
0
 10
3.90593
 20
31.7544
 30
0.0
 40
0
 41
0
  0
VERTEX
  8
0
 10
3.91732
 20
31.7714
 30
0.0
 40
0
 41
0
  0
VERTEX
  8
0
 10
3.93425
 20
31.7828
 30
0.0
 40
0
 41
0
  0
VERTEX
  8
0
 10
3.94982
 20
31.7869
 30
0.0
 40
0
 41
0
  0
VERTEX
  8
0
 10
3.95503
 20
31.7869
 30
0.0
 40
0
 41
0
  0
SEQEND
 8
0
  0
POLYLINE
  8
0
 62
     0
 66
     1
 10
0
 20
0
 30
0.0
 70
     1
 40
0
 41
0
  0
VERTEX
  8
0
 10
3.95503
 20
34.5371
 30
0.0
 40
0
 41
0
  0
VERTEX
  8
0
 10
3.96018
 20
34.5371
 30
0.0
 40
0
 41
0
  0
VERTEX
  8
0
 10
3.97569
 20
34.5329
 30
0.0
 40
0
 41
0
  0
VERTEX
  8
0
 10
3.99262
 20
34.5215
 30
0.0
 40
0
 41
0
  0
VERTEX
  8
0
 10
4.00401
 20
34.5046
 30
0.0
 40
0
 41
0
  0
VERTEX
  8
0
 10
4.00825
 20
34.489
 30
0.0
 40
0
 41
0
  0
VERTEX
  8
0
 10
4.00825
 20
34.4838
 30
0.0
 40
0
 41
0
  0
VERTEX
  8
0
 10
4.00825
 20
34.4786
 30
0.0
 40
0
 41
0
  0
VERTEX
  8
0
 10
4.00401
 20
34.4631
 30
0.0
 40
0
 41
0
  0
VERTEX
  8
0
 10
3.99262
 20
34.4461
 30
0.0
 40
0
 41
0
  0
VERTEX
  8
0
 10
3.97569
 20
34.4347
 30
0.0
 40
0
 41
0
  0
VERTEX
  8
0
 10
3.96018
 20
34.4306
 30
0.0
 40
0
 41
0
  0
VERTEX
  8
0
 10
3.95503
 20
34.4306
 30
0.0
 40
0
 41
0
  0
VERTEX
  8
0
 10
3.94982
 20
34.4306
 30
0.0
 40
0
 41
0
  0
VERTEX
  8
0
 10
3.93425
 20
34.4347
 30
0.0
 40
0
 41
0
  0
VERTEX
  8
0
 10
3.91732
 20
34.4461
 30
0.0
 40
0
 41
0
  0
VERTEX
  8
0
 10
3.90593
 20
34.4631
 30
0.0
 40
0
 41
0
  0
VERTEX
  8
0
 10
3.90175
 20
34.4786
 30
0.0
 40
0
 41
0
  0
VERTEX
  8
0
 10
3.90175
 20
34.4838
 30
0.0
 40
0
 41
0
  0
VERTEX
  8
0
 10
3.90175
 20
34.489
 30
0.0
 40
0
 41
0
  0
VERTEX
  8
0
 10
3.90593
 20
34.5046
 30
0.0
 40
0
 41
0
  0
VERTEX
  8
0
 10
3.91732
 20
34.5215
 30
0.0
 40
0
 41
0
  0
VERTEX
  8
0
 10
3.93425
 20
34.5329
 30
0.0
 40
0
 41
0
  0
VERTEX
  8
0
 10
3.94982
 20
34.5371
 30
0.0
 40
0
 41
0
  0
VERTEX
  8
0
 10
3.95503
 20
34.5371
 30
0.0
 40
0
 41
0
  0
SEQEND
 8
0
  0
POLYLINE
  8
0
 62
     0
 66
     1
 10
0
 20
0
 30
0.0
 70
     1
 40
0
 41
0
  0
VERTEX
  8
0
 10
7.5874
 20
14.35
 30
0.0
 40
0
 41
0
  0
VERTEX
  8
0
 10
7.5956
 20
14.35
 30
0.0
 40
0
 41
0
  0
VERTEX
  8
0
 10
7.62033
 20
14.3435
 30
0.0
 40
0
 41
0
  0
VERTEX
  8
0
 10
7.64729
 20
14.3253
 30
0.0
 40
0
 41
0
  0
VERTEX
  8
0
 10
7.66547
 20
14.2983
 30
0.0
 40
0
 41
0
  0
VERTEX
  8
0
 10
7.67215
 20
14.2736
 30
0.0
 40
0
 41
0
  0
VERTEX
  8
0
 10
7.67215
 20
14.2653
 30
0.0
 40
0
 41
0
  0
VERTEX
  8
0
 10
7.67215
 20
14.2571
 30
0.0
 40
0
 41
0
  0
VERTEX
  8
0
 10
7.66547
 20
14.2324
 30
0.0
 40
0
 41
0
  0
VERTEX
  8
0
 10
7.64729
 20
14.2054
 30
0.0
 40
0
 41
0
  0
VERTEX
  8
0
 10
7.62033
 20
14.1872
 30
0.0
 40
0
 41
0
  0
VERTEX
  8
0
 10
7.5956
 20
14.1806
 30
0.0
 40
0
 41
0
  0
VERTEX
  8
0
 10
7.5874
 20
14.1806
 30
0.0
 40
0
 41
0
  0
VERTEX
  8
0
 10
7.5791
 20
14.1806
 30
0.0
 40
0
 41
0
  0
VERTEX
  8
0
 10
7.55436
 20
14.1872
 30
0.0
 40
0
 41
0
  0
VERTEX
  8
0
 10
7.5274
 20
14.2054
 30
0.0
 40
0
 41
0
  0
VERTEX
  8
0
 10
7.50922
 20
14.2324
 30
0.0
 40
0
 41
0
  0
VERTEX
  8
0
 10
7.50261
 20
14.2571
 30
0.0
 40
0
 41
0
  0
VERTEX
  8
0
 10
7.50261
 20
14.2653
 30
0.0
 40
0
 41
0
  0
VERTEX
  8
0
 10
7.50261
 20
14.2736
 30
0.0
 40
0
 41
0
  0
VERTEX
  8
0
 10
7.50922
 20
14.2983
 30
0.0
 40
0
 41
0
  0
VERTEX
  8
0
 10
7.5274
 20
14.3253
 30
0.0
 40
0
 41
0
  0
VERTEX
  8
0
 10
7.55436
 20
14.3435
 30
0.0
 40
0
 41
0
  0
VERTEX
  8
0
 10
7.5791
 20
14.35
 30
0.0
 40
0
 41
0
  0
VERTEX
  8
0
 10
7.5874
 20
14.35
 30
0.0
 40
0
 41
0
  0
SEQEND
 8
0
  0
POLYLINE
  8
0
 62
     0
 66
     1
 10
0
 20
0
 30
0.0
 70
     1
 40
0
 41
0
  0
VERTEX
  8
0
 10
7.58751
 20
37.675
 30
0.0
 40
0
 41
0
  0
VERTEX
  8
0
 10
7.59576
 20
37.675
 30
0.0
 40
0
 41
0
  0
VERTEX
  8
0
 10
7.6205
 20
37.6685
 30
0.0
 40
0
 41
0
  0
VERTEX
  8
0
 10
7.6474
 20
37.6503
 30
0.0
 40
0
 41
0
  0
VERTEX
  8
0
 10
7.66558
 20
37.6233
 30
0.0
 40
0
 41
0
  0
VERTEX
  8
0
 10
7.67225
 20
37.5986
 30
0.0
 40
0
 41
0
  0
VERTEX
  8
0
 10
7.67225
 20
37.5903
 30
0.0
 40
0
 41
0
  0
VERTEX
  8
0
 10
7.67225
 20
37.5821
 30
0.0
 40
0
 41
0
  0
VERTEX
  8
0
 10
7.66558
 20
37.5574
 30
0.0
 40
0
 41
0
  0
VERTEX
  8
0
 10
7.6474
 20
37.5304
 30
0.0
 40
0
 41
0
  0
VERTEX
  8
0
 10
7.6205
 20
37.5122
 30
0.0
 40
0
 41
0
  0
VERTEX
  8
0
 10
7.59576
 20
37.5056
 30
0.0
 40
0
 41
0
  0
VERTEX
  8
0
 10
7.58751
 20
37.5056
 30
0.0
 40
0
 41
0
  0
VERTEX
  8
0
 10
7.57921
 20
37.5056
 30
0.0
 40
0
 41
0
  0
VERTEX
  8
0
 10
7.55447
 20
37.5122
 30
0.0
 40
0
 41
0
  0
VERTEX
  8
0
 10
7.52756
 20
37.5304
 30
0.0
 40
0
 41
0
  0
VERTEX
  8
0
 10
7.50939
 20
37.5574
 30
0.0
 40
0
 41
0
  0
VERTEX
  8
0
 10
7.50276
 20
37.5821
 30
0.0
 40
0
 41
0
  0
VERTEX
  8
0
 10
7.50276
 20
37.5903
 30
0.0
 40
0
 41
0
  0
VERTEX
  8
0
 10
7.50276
 20
37.5986
 30
0.0
 40
0
 41
0
  0
VERTEX
  8
0
 10
7.50939
 20
37.6233
 30
0.0
 40
0
 41
0
  0
VERTEX
  8
0
 10
7.52756
 20
37.6503
 30
0.0
 40
0
 41
0
  0
VERTEX
  8
0
 10
7.55447
 20
37.6685
 30
0.0
 40
0
 41
0
  0
VERTEX
  8
0
 10
7.57921
 20
37.675
 30
0.0
 40
0
 41
0
  0
VERTEX
  8
0
 10
7.58751
 20
37.675
 30
0.0
 40
0
 41
0
  0
SEQEND
 8
0
  0
POLYLINE
  8
0
 62
     0
 66
     1
 10
0
 20
0
 30
0.0
 70
     1
 40
0
 41
0
  0
VERTEX
  8
0
 10
4.20806
 20
19.0453
 30
0.0
 40
0
 41
0
  0
VERTEX
  8
0
 10
4.21322
 20
19.0453
 30
0.0
 40
0
 41
0
  0
VERTEX
  8
0
 10
4.22879
 20
19.0411
 30
0.0
 40
0
 41
0
  0
VERTEX
  8
0
 10
4.24571
 20
19.0297
 30
0.0
 40
0
 41
0
  0
VERTEX
  8
0
 10
4.25711
 20
19.0128
 30
0.0
 40
0
 41
0
  0
VERTEX
  8
0
 10
4.26133
 20
18.9972
 30
0.0
 40
0
 41
0
  0
VERTEX
  8
0
 10
4.26133
 20
18.9921
 30
0.0
 40
0
 41
0
  0
VERTEX
  8
0
 10
4.26133
 20
18.9868
 30
0.0
 40
0
 41
0
  0
VERTEX
  8
0
 10
4.25711
 20
18.9713
 30
0.0
 40
0
 41
0
  0
VERTEX
  8
0
 10
4.24571
 20
18.9543
 30
0.0
 40
0
 41
0
  0
VERTEX
  8
0
 10
4.22879
 20
18.9429
 30
0.0
 40
0
 41
0
  0
VERTEX
  8
0
 10
4.21322
 20
18.9387
 30
0.0
 40
0
 41
0
  0
VERTEX
  8
0
 10
4.20806
 20
18.9387
 30
0.0
 40
0
 41
0
  0
VERTEX
  8
0
 10
4.20285
 20
18.9387
 30
0.0
 40
0
 41
0
  0
VERTEX
  8
0
 10
4.18733
 20
18.9429
 30
0.0
 40
0
 41
0
  0
VERTEX
  8
0
 10
4.17042
 20
18.9543
 30
0.0
 40
0
 41
0
  0
VERTEX
  8
0
 10
4.15901
 20
18.9713
 30
0.0
 40
0
 41
0
  0
VERTEX
  8
0
 10
4.15483
 20
18.9868
 30
0.0
 40
0
 41
0
  0
VERTEX
  8
0
 10
4.15483
 20
18.9921
 30
0.0
 40
0
 41
0
  0
VERTEX
  8
0
 10
4.15483
 20
18.9972
 30
0.0
 40
0
 41
0
  0
VERTEX
  8
0
 10
4.15901
 20
19.0128
 30
0.0
 40
0
 41
0
  0
VERTEX
  8
0
 10
4.17042
 20
19.0297
 30
0.0
 40
0
 41
0
  0
VERTEX
  8
0
 10
4.18733
 20
19.0411
 30
0.0
 40
0
 41
0
  0
VERTEX
  8
0
 10
4.20285
 20
19.0453
 30
0.0
 40
0
 41
0
  0
VERTEX
  8
0
 10
4.20806
 20
19.0453
 30
0.0
 40
0
 41
0
  0
SEQEND
 8
0
  0
POLYLINE
  8
0
 62
     0
 66
     1
 10
0
 20
0
 30
0.0
 70
     1
 40
0
 41
0
  0
VERTEX
  8
0
 10
4.20806
 20
21.3288
 30
0.0
 40
0
 41
0
  0
VERTEX
  8
0
 10
4.21322
 20
21.3288
 30
0.0
 40
0
 41
0
  0
VERTEX
  8
0
 10
4.22879
 20
21.3246
 30
0.0
 40
0
 41
0
  0
VERTEX
  8
0
 10
4.24571
 20
21.3132
 30
0.0
 40
0
 41
0
  0
VERTEX
  8
0
 10
4.25711
 20
21.2962
 30
0.0
 40
0
 41
0
  0
VERTEX
  8
0
 10
4.26133
 20
21.2807
 30
0.0
 40
0
 41
0
  0
VERTEX
  8
0
 10
4.26133
 20
21.2756
 30
0.0
 40
0
 41
0
  0
VERTEX
  8
0
 10
4.26133
 20
21.2703
 30
0.0
 40
0
 41
0
  0
VERTEX
  8
0
 10
4.25711
 20
21.2547
 30
0.0
 40
0
 41
0
  0
VERTEX
  8
0
 10
4.24571
 20
21.2379
 30
0.0
 40
0
 41
0
  0
VERTEX
  8
0
 10
4.22879
 20
21.2264
 30
0.0
 40
0
 41
0
  0
VERTEX
  8
0
 10
4.21322
 20
21.2222
 30
0.0
 40
0
 41
0
  0
VERTEX
  8
0
 10
4.20806
 20
21.2222
 30
0.0
 40
0
 41
0
  0
VERTEX
  8
0
 10
4.20285
 20
21.2222
 30
0.0
 40
0
 41
0
  0
VERTEX
  8
0
 10
4.18733
 20
21.2264
 30
0.0
 40
0
 41
0
  0
VERTEX
  8
0
 10
4.17042
 20
21.2379
 30
0.0
 40
0
 41
0
  0
VERTEX
  8
0
 10
4.15901
 20
21.2547
 30
0.0
 40
0
 41
0
  0
VERTEX
  8
0
 10
4.15483
 20
21.2703
 30
0.0
 40
0
 41
0
  0
VERTEX
  8
0
 10
4.15483
 20
21.2756
 30
0.0
 40
0
 41
0
  0
VERTEX
  8
0
 10
4.15483
 20
21.2807
 30
0.0
 40
0
 41
0
  0
VERTEX
  8
0
 10
4.15901
 20
21.2962
 30
0.0
 40
0
 41
0
  0
VERTEX
  8
0
 10
4.17042
 20
21.3132
 30
0.0
 40
0
 41
0
  0
VERTEX
  8
0
 10
4.18733
 20
21.3246
 30
0.0
 40
0
 41
0
  0
VERTEX
  8
0
 10
4.20285
 20
21.3288
 30
0.0
 40
0
 41
0
  0
VERTEX
  8
0
 10
4.20806
 20
21.3288
 30
0.0
 40
0
 41
0
  0
SEQEND
 8
0
  0
POLYLINE
  8
0
 62
     0
 66
     1
 10
0
 20
0
 30
0.0
 70
     1
 40
0
 41
0
  0
VERTEX
  8
0
 10
6.13721
 20
21.3288
 30
0.0
 40
0
 41
0
  0
VERTEX
  8
0
 10
6.14236
 20
21.3288
 30
0.0
 40
0
 41
0
  0
VERTEX
  8
0
 10
6.15788
 20
21.3246
 30
0.0
 40
0
 41
0
  0
VERTEX
  8
0
 10
6.17481
 20
21.3132
 30
0.0
 40
0
 41
0
  0
VERTEX
  8
0
 10
6.18619
 20
21.2962
 30
0.0
 40
0
 41
0
  0
VERTEX
  8
0
 10
6.19043
 20
21.2807
 30
0.0
 40
0
 41
0
  0
VERTEX
  8
0
 10
6.19043
 20
21.2756
 30
0.0
 40
0
 41
0
  0
VERTEX
  8
0
 10
6.19043
 20
21.2703
 30
0.0
 40
0
 41
0
  0
VERTEX
  8
0
 10
6.18619
 20
21.2547
 30
0.0
 40
0
 41
0
  0
VERTEX
  8
0
 10
6.17481
 20
21.2379
 30
0.0
 40
0
 41
0
  0
VERTEX
  8
0
 10
6.15788
 20
21.2264
 30
0.0
 40
0
 41
0
  0
VERTEX
  8
0
 10
6.14236
 20
21.2222
 30
0.0
 40
0
 41
0
  0
VERTEX
  8
0
 10
6.13721
 20
21.2222
 30
0.0
 40
0
 41
0
  0
VERTEX
  8
0
 10
6.132
 20
21.2222
 30
0.0
 40
0
 41
0
  0
VERTEX
  8
0
 10
6.11643
 20
21.2264
 30
0.0
 40
0
 41
0
  0
VERTEX
  8
0
 10
6.0995
 20
21.2379
 30
0.0
 40
0
 41
0
  0
VERTEX
  8
0
 10
6.08811
 20
21.2547
 30
0.0
 40
0
 41
0
  0
VERTEX
  8
0
 10
6.08393
 20
21.2703
 30
0.0
 40
0
 41
0
  0
VERTEX
  8
0
 10
6.08393
 20
21.2756
 30
0.0
 40
0
 41
0
  0
VERTEX
  8
0
 10
6.08393
 20
21.2807
 30
0.0
 40
0
 41
0
  0
VERTEX
  8
0
 10
6.08811
 20
21.2962
 30
0.0
 40
0
 41
0
  0
VERTEX
  8
0
 10
6.0995
 20
21.3132
 30
0.0
 40
0
 41
0
  0
VERTEX
  8
0
 10
6.11643
 20
21.3246
 30
0.0
 40
0
 41
0
  0
VERTEX
  8
0
 10
6.132
 20
21.3288
 30
0.0
 40
0
 41
0
  0
VERTEX
  8
0
 10
6.13721
 20
21.3288
 30
0.0
 40
0
 41
0
  0
SEQEND
 8
0
  0
POLYLINE
  8
0
 62
     0
 66
     1
 10
0
 20
0
 30
0.0
 70
     1
 40
0
 41
0
  0
VERTEX
  8
0
 10
6.13721
 20
19.0453
 30
0.0
 40
0
 41
0
  0
VERTEX
  8
0
 10
6.14236
 20
19.0453
 30
0.0
 40
0
 41
0
  0
VERTEX
  8
0
 10
6.15788
 20
19.0411
 30
0.0
 40
0
 41
0
  0
VERTEX
  8
0
 10
6.17481
 20
19.0297
 30
0.0
 40
0
 41
0
  0
VERTEX
  8
0
 10
6.18619
 20
19.0128
 30
0.0
 40
0
 41
0
  0
VERTEX
  8
0
 10
6.19043
 20
18.9972
 30
0.0
 40
0
 41
0
  0
VERTEX
  8
0
 10
6.19043
 20
18.9921
 30
0.0
 40
0
 41
0
  0
VERTEX
  8
0
 10
6.19043
 20
18.9868
 30
0.0
 40
0
 41
0
  0
VERTEX
  8
0
 10
6.18619
 20
18.9713
 30
0.0
 40
0
 41
0
  0
VERTEX
  8
0
 10
6.17481
 20
18.9543
 30
0.0
 40
0
 41
0
  0
VERTEX
  8
0
 10
6.15788
 20
18.9429
 30
0.0
 40
0
 41
0
  0
VERTEX
  8
0
 10
6.14236
 20
18.9387
 30
0.0
 40
0
 41
0
  0
VERTEX
  8
0
 10
6.13721
 20
18.9387
 30
0.0
 40
0
 41
0
  0
VERTEX
  8
0
 10
6.132
 20
18.9387
 30
0.0
 40
0
 41
0
  0
VERTEX
  8
0
 10
6.11643
 20
18.9429
 30
0.0
 40
0
 41
0
  0
VERTEX
  8
0
 10
6.0995
 20
18.9543
 30
0.0
 40
0
 41
0
  0
VERTEX
  8
0
 10
6.08811
 20
18.9713
 30
0.0
 40
0
 41
0
  0
VERTEX
  8
0
 10
6.08393
 20
18.9868
 30
0.0
 40
0
 41
0
  0
VERTEX
  8
0
 10
6.08393
 20
18.9921
 30
0.0
 40
0
 41
0
  0
VERTEX
  8
0
 10
6.08393
 20
18.9972
 30
0.0
 40
0
 41
0
  0
VERTEX
  8
0
 10
6.08811
 20
19.0128
 30
0.0
 40
0
 41
0
  0
VERTEX
  8
0
 10
6.0995
 20
19.0297
 30
0.0
 40
0
 41
0
  0
VERTEX
  8
0
 10
6.11643
 20
19.0411
 30
0.0
 40
0
 41
0
  0
VERTEX
  8
0
 10
6.132
 20
19.0453
 30
0.0
 40
0
 41
0
  0
VERTEX
  8
0
 10
6.13721
 20
19.0453
 30
0.0
 40
0
 41
0
  0
SEQEND
 8
0
  0
POLYLINE
  8
0
 62
     0
 66
     1
 10
0
 20
0
 30
0.0
 70
     1
 40
0
 41
0
  0
VERTEX
  8
0
 10
7.13747
 20
36.3378
 30
0.0
 40
0
 41
0
  0
VERTEX
  8
0
 10
7.14356
 20
36.3378
 30
0.0
 40
0
 41
0
  0
VERTEX
  8
0
 10
7.16178
 20
36.3329
 30
0.0
 40
0
 41
0
  0
VERTEX
  8
0
 10
7.18164
 20
36.3194
 30
0.0
 40
0
 41
0
  0
VERTEX
  8
0
 10
7.19504
 20
36.2996
 30
0.0
 40
0
 41
0
  0
VERTEX
  8
0
 10
7.19997
 20
36.2814
 30
0.0
 40
0
 41
0
  0
VERTEX
  8
0
 10
7.19997
 20
36.2753
 30
0.0
 40
0
 41
0
  0
VERTEX
  8
0
 10
7.19997
 20
36.2692
 30
0.0
 40
0
 41
0
  0
VERTEX
  8
0
 10
7.19504
 20
36.251
 30
0.0
 40
0
 41
0
  0
VERTEX
  8
0
 10
7.18164
 20
36.2311
 30
0.0
 40
0
 41
0
  0
VERTEX
  8
0
 10
7.16178
 20
36.2178
 30
0.0
 40
0
 41
0
  0
VERTEX
  8
0
 10
7.14356
 20
36.2128
 30
0.0
 40
0
 41
0
  0
VERTEX
  8
0
 10
7.13747
 20
36.2128
 30
0.0
 40
0
 41
0
  0
VERTEX
  8
0
 10
7.13135
 20
36.2128
 30
0.0
 40
0
 41
0
  0
VERTEX
  8
0
 10
7.11313
 20
36.2178
 30
0.0
 40
0
 41
0
  0
VERTEX
  8
0
 10
7.09326
 20
36.2311
 30
0.0
 40
0
 41
0
  0
VERTEX
  8
0
 10
7.07986
 20
36.251
 30
0.0
 40
0
 41
0
  0
VERTEX
  8
0
 10
7.07497
 20
36.2692
 30
0.0
 40
0
 41
0
  0
VERTEX
  8
0
 10
7.07497
 20
36.2753
 30
0.0
 40
0
 41
0
  0
VERTEX
  8
0
 10
7.07497
 20
36.2814
 30
0.0
 40
0
 41
0
  0
VERTEX
  8
0
 10
7.07986
 20
36.2996
 30
0.0
 40
0
 41
0
  0
VERTEX
  8
0
 10
7.09326
 20
36.3194
 30
0.0
 40
0
 41
0
  0
VERTEX
  8
0
 10
7.11313
 20
36.3329
 30
0.0
 40
0
 41
0
  0
VERTEX
  8
0
 10
7.13135
 20
36.3378
 30
0.0
 40
0
 41
0
  0
VERTEX
  8
0
 10
7.13747
 20
36.3378
 30
0.0
 40
0
 41
0
  0
SEQEND
 8
0
  0
POLYLINE
  8
0
 62
     0
 66
     1
 10
0
 20
0
 30
0.0
 70
     1
 40
0
 41
0
  0
VERTEX
  8
0
 10
7.13747
 20
29.8797
 30
0.0
 40
0
 41
0
  0
VERTEX
  8
0
 10
7.14356
 20
29.8797
 30
0.0
 40
0
 41
0
  0
VERTEX
  8
0
 10
7.16178
 20
29.8749
 30
0.0
 40
0
 41
0
  0
VERTEX
  8
0
 10
7.18164
 20
29.8615
 30
0.0
 40
0
 41
0
  0
VERTEX
  8
0
 10
7.19504
 20
29.8417
 30
0.0
 40
0
 41
0
  0
VERTEX
  8
0
 10
7.19997
 20
29.8235
 30
0.0
 40
0
 41
0
  0
VERTEX
  8
0
 10
7.19997
 20
29.8172
 30
0.0
 40
0
 41
0
  0
VERTEX
  8
0
 10
7.19997
 20
29.8112
 30
0.0
 40
0
 41
0
  0
VERTEX
  8
0
 10
7.19504
 20
29.7929
 30
0.0
 40
0
 41
0
  0
VERTEX
  8
0
 10
7.18164
 20
29.7731
 30
0.0
 40
0
 41
0
  0
VERTEX
  8
0
 10
7.16178
 20
29.7597
 30
0.0
 40
0
 41
0
  0
VERTEX
  8
0
 10
7.14356
 20
29.7547
 30
0.0
 40
0
 41
0
  0
VERTEX
  8
0
 10
7.13747
 20
29.7547
 30
0.0
 40
0
 41
0
  0
VERTEX
  8
0
 10
7.13135
 20
29.7547
 30
0.0
 40
0
 41
0
  0
VERTEX
  8
0
 10
7.11313
 20
29.7597
 30
0.0
 40
0
 41
0
  0
VERTEX
  8
0
 10
7.09326
 20
29.7731
 30
0.0
 40
0
 41
0
  0
VERTEX
  8
0
 10
7.07986
 20
29.7929
 30
0.0
 40
0
 41
0
  0
VERTEX
  8
0
 10
7.07497
 20
29.8112
 30
0.0
 40
0
 41
0
  0
VERTEX
  8
0
 10
7.07497
 20
29.8172
 30
0.0
 40
0
 41
0
  0
VERTEX
  8
0
 10
7.07497
 20
29.8235
 30
0.0
 40
0
 41
0
  0
VERTEX
  8
0
 10
7.07986
 20
29.8417
 30
0.0
 40
0
 41
0
  0
VERTEX
  8
0
 10
7.09326
 20
29.8615
 30
0.0
 40
0
 41
0
  0
VERTEX
  8
0
 10
7.11313
 20
29.8749
 30
0.0
 40
0
 41
0
  0
VERTEX
  8
0
 10
7.13135
 20
29.8797
 30
0.0
 40
0
 41
0
  0
VERTEX
  8
0
 10
7.13747
 20
29.8797
 30
0.0
 40
0
 41
0
  0
SEQEND
 8
0
  0
POLYLINE
  8
0
 62
     0
 66
     1
 10
0
 20
0
 30
0.0
 70
     1
 40
0
 41
0
  0
VERTEX
  8
0
 10
4.13747
 20
36.3378
 30
0.0
 40
0
 41
0
  0
VERTEX
  8
0
 10
4.14356
 20
36.3378
 30
0.0
 40
0
 41
0
  0
VERTEX
  8
0
 10
4.16178
 20
36.3329
 30
0.0
 40
0
 41
0
  0
VERTEX
  8
0
 10
4.18164
 20
36.3194
 30
0.0
 40
0
 41
0
  0
VERTEX
  8
0
 10
4.19504
 20
36.2996
 30
0.0
 40
0
 41
0
  0
VERTEX
  8
0
 10
4.19997
 20
36.2814
 30
0.0
 40
0
 41
0
  0
VERTEX
  8
0
 10
4.19997
 20
36.2753
 30
0.0
 40
0
 41
0
  0
VERTEX
  8
0
 10
4.19997
 20
36.2692
 30
0.0
 40
0
 41
0
  0
VERTEX
  8
0
 10
4.19504
 20
36.251
 30
0.0
 40
0
 41
0
  0
VERTEX
  8
0
 10
4.18164
 20
36.2311
 30
0.0
 40
0
 41
0
  0
VERTEX
  8
0
 10
4.16178
 20
36.2178
 30
0.0
 40
0
 41
0
  0
VERTEX
  8
0
 10
4.14356
 20
36.2128
 30
0.0
 40
0
 41
0
  0
VERTEX
  8
0
 10
4.13747
 20
36.2128
 30
0.0
 40
0
 41
0
  0
VERTEX
  8
0
 10
4.13135
 20
36.2128
 30
0.0
 40
0
 41
0
  0
VERTEX
  8
0
 10
4.11312
 20
36.2178
 30
0.0
 40
0
 41
0
  0
VERTEX
  8
0
 10
4.09326
 20
36.2311
 30
0.0
 40
0
 41
0
  0
VERTEX
  8
0
 10
4.07986
 20
36.251
 30
0.0
 40
0
 41
0
  0
VERTEX
  8
0
 10
4.07497
 20
36.2692
 30
0.0
 40
0
 41
0
  0
VERTEX
  8
0
 10
4.07497
 20
36.2753
 30
0.0
 40
0
 41
0
  0
VERTEX
  8
0
 10
4.07497
 20
36.2814
 30
0.0
 40
0
 41
0
  0
VERTEX
  8
0
 10
4.07986
 20
36.2996
 30
0.0
 40
0
 41
0
  0
VERTEX
  8
0
 10
4.09326
 20
36.3194
 30
0.0
 40
0
 41
0
  0
VERTEX
  8
0
 10
4.11312
 20
36.3329
 30
0.0
 40
0
 41
0
  0
VERTEX
  8
0
 10
4.13135
 20
36.3378
 30
0.0
 40
0
 41
0
  0
VERTEX
  8
0
 10
4.13747
 20
36.3378
 30
0.0
 40
0
 41
0
  0
SEQEND
 8
0
  0
POLYLINE
  8
0
 62
     0
 66
     1
 10
0
 20
0
 30
0.0
 70
     1
 40
0
 41
0
  0
VERTEX
  8
0
 10
4.13747
 20
29.8797
 30
0.0
 40
0
 41
0
  0
VERTEX
  8
0
 10
4.14356
 20
29.8797
 30
0.0
 40
0
 41
0
  0
VERTEX
  8
0
 10
4.16178
 20
29.8749
 30
0.0
 40
0
 41
0
  0
VERTEX
  8
0
 10
4.18164
 20
29.8615
 30
0.0
 40
0
 41
0
  0
VERTEX
  8
0
 10
4.19504
 20
29.8417
 30
0.0
 40
0
 41
0
  0
VERTEX
  8
0
 10
4.19997
 20
29.8235
 30
0.0
 40
0
 41
0
  0
VERTEX
  8
0
 10
4.19997
 20
29.8172
 30
0.0
 40
0
 41
0
  0
VERTEX
  8
0
 10
4.19997
 20
29.8112
 30
0.0
 40
0
 41
0
  0
VERTEX
  8
0
 10
4.19504
 20
29.7929
 30
0.0
 40
0
 41
0
  0
VERTEX
  8
0
 10
4.18164
 20
29.7731
 30
0.0
 40
0
 41
0
  0
VERTEX
  8
0
 10
4.16178
 20
29.7597
 30
0.0
 40
0
 41
0
  0
VERTEX
  8
0
 10
4.14356
 20
29.7547
 30
0.0
 40
0
 41
0
  0
VERTEX
  8
0
 10
4.13747
 20
29.7547
 30
0.0
 40
0
 41
0
  0
VERTEX
  8
0
 10
4.13135
 20
29.7547
 30
0.0
 40
0
 41
0
  0
VERTEX
  8
0
 10
4.11312
 20
29.7597
 30
0.0
 40
0
 41
0
  0
VERTEX
  8
0
 10
4.09326
 20
29.7731
 30
0.0
 40
0
 41
0
  0
VERTEX
  8
0
 10
4.07986
 20
29.7929
 30
0.0
 40
0
 41
0
  0
VERTEX
  8
0
 10
4.07497
 20
29.8112
 30
0.0
 40
0
 41
0
  0
VERTEX
  8
0
 10
4.07497
 20
29.8172
 30
0.0
 40
0
 41
0
  0
VERTEX
  8
0
 10
4.07497
 20
29.8235
 30
0.0
 40
0
 41
0
  0
VERTEX
  8
0
 10
4.07986
 20
29.8417
 30
0.0
 40
0
 41
0
  0
VERTEX
  8
0
 10
4.09326
 20
29.8615
 30
0.0
 40
0
 41
0
  0
VERTEX
  8
0
 10
4.11312
 20
29.8749
 30
0.0
 40
0
 41
0
  0
VERTEX
  8
0
 10
4.13135
 20
29.8797
 30
0.0
 40
0
 41
0
  0
VERTEX
  8
0
 10
4.13747
 20
29.8797
 30
0.0
 40
0
 41
0
  0
SEQEND
 8
0
  0
POLYLINE
  8
0
 62
     0
 66
     1
 10
0
 20
0
 30
0.0
 70
     1
 40
0
 41
0
  0
VERTEX
  8
0
 10
1.13748
 20
36.3378
 30
0.0
 40
0
 41
0
  0
VERTEX
  8
0
 10
1.14355
 20
36.3378
 30
0.0
 40
0
 41
0
  0
VERTEX
  8
0
 10
1.16178
 20
36.3329
 30
0.0
 40
0
 41
0
  0
VERTEX
  8
0
 10
1.18164
 20
36.3194
 30
0.0
 40
0
 41
0
  0
VERTEX
  8
0
 10
1.19504
 20
36.2996
 30
0.0
 40
0
 41
0
  0
VERTEX
  8
0
 10
1.19998
 20
36.2814
 30
0.0
 40
0
 41
0
  0
VERTEX
  8
0
 10
1.19998
 20
36.2753
 30
0.0
 40
0
 41
0
  0
VERTEX
  8
0
 10
1.19998
 20
36.2692
 30
0.0
 40
0
 41
0
  0
VERTEX
  8
0
 10
1.19504
 20
36.251
 30
0.0
 40
0
 41
0
  0
VERTEX
  8
0
 10
1.18164
 20
36.2311
 30
0.0
 40
0
 41
0
  0
VERTEX
  8
0
 10
1.16178
 20
36.2178
 30
0.0
 40
0
 41
0
  0
VERTEX
  8
0
 10
1.14355
 20
36.2128
 30
0.0
 40
0
 41
0
  0
VERTEX
  8
0
 10
1.13748
 20
36.2128
 30
0.0
 40
0
 41
0
  0
VERTEX
  8
0
 10
1.13135
 20
36.2128
 30
0.0
 40
0
 41
0
  0
VERTEX
  8
0
 10
1.11312
 20
36.2178
 30
0.0
 40
0
 41
0
  0
VERTEX
  8
0
 10
1.09326
 20
36.2311
 30
0.0
 40
0
 41
0
  0
VERTEX
  8
0
 10
1.07986
 20
36.251
 30
0.0
 40
0
 41
0
  0
VERTEX
  8
0
 10
1.07498
 20
36.2692
 30
0.0
 40
0
 41
0
  0
VERTEX
  8
0
 10
1.07498
 20
36.2753
 30
0.0
 40
0
 41
0
  0
VERTEX
  8
0
 10
1.07498
 20
36.2814
 30
0.0
 40
0
 41
0
  0
VERTEX
  8
0
 10
1.07986
 20
36.2996
 30
0.0
 40
0
 41
0
  0
VERTEX
  8
0
 10
1.09326
 20
36.3194
 30
0.0
 40
0
 41
0
  0
VERTEX
  8
0
 10
1.11312
 20
36.3329
 30
0.0
 40
0
 41
0
  0
VERTEX
  8
0
 10
1.13135
 20
36.3378
 30
0.0
 40
0
 41
0
  0
VERTEX
  8
0
 10
1.13748
 20
36.3378
 30
0.0
 40
0
 41
0
  0
SEQEND
 8
0
  0
POLYLINE
  8
0
 62
     0
 66
     1
 10
0
 20
0
 30
0.0
 70
     1
 40
0
 41
0
  0
VERTEX
  8
0
 10
1.13748
 20
29.8797
 30
0.0
 40
0
 41
0
  0
VERTEX
  8
0
 10
1.14355
 20
29.8797
 30
0.0
 40
0
 41
0
  0
VERTEX
  8
0
 10
1.16178
 20
29.8749
 30
0.0
 40
0
 41
0
  0
VERTEX
  8
0
 10
1.18164
 20
29.8615
 30
0.0
 40
0
 41
0
  0
VERTEX
  8
0
 10
1.19504
 20
29.8417
 30
0.0
 40
0
 41
0
  0
VERTEX
  8
0
 10
1.19998
 20
29.8235
 30
0.0
 40
0
 41
0
  0
VERTEX
  8
0
 10
1.19998
 20
29.8172
 30
0.0
 40
0
 41
0
  0
VERTEX
  8
0
 10
1.19998
 20
29.8112
 30
0.0
 40
0
 41
0
  0
VERTEX
  8
0
 10
1.19504
 20
29.7929
 30
0.0
 40
0
 41
0
  0
VERTEX
  8
0
 10
1.18164
 20
29.7731
 30
0.0
 40
0
 41
0
  0
VERTEX
  8
0
 10
1.16178
 20
29.7597
 30
0.0
 40
0
 41
0
  0
VERTEX
  8
0
 10
1.14355
 20
29.7547
 30
0.0
 40
0
 41
0
  0
VERTEX
  8
0
 10
1.13748
 20
29.7547
 30
0.0
 40
0
 41
0
  0
VERTEX
  8
0
 10
1.13135
 20
29.7547
 30
0.0
 40
0
 41
0
  0
VERTEX
  8
0
 10
1.11312
 20
29.7597
 30
0.0
 40
0
 41
0
  0
VERTEX
  8
0
 10
1.09326
 20
29.7731
 30
0.0
 40
0
 41
0
  0
VERTEX
  8
0
 10
1.07986
 20
29.7929
 30
0.0
 40
0
 41
0
  0
VERTEX
  8
0
 10
1.07498
 20
29.8112
 30
0.0
 40
0
 41
0
  0
VERTEX
  8
0
 10
1.07498
 20
29.8172
 30
0.0
 40
0
 41
0
  0
VERTEX
  8
0
 10
1.07498
 20
29.8235
 30
0.0
 40
0
 41
0
  0
VERTEX
  8
0
 10
1.07986
 20
29.8417
 30
0.0
 40
0
 41
0
  0
VERTEX
  8
0
 10
1.09326
 20
29.8615
 30
0.0
 40
0
 41
0
  0
VERTEX
  8
0
 10
1.11312
 20
29.8749
 30
0.0
 40
0
 41
0
  0
VERTEX
  8
0
 10
1.13135
 20
29.8797
 30
0.0
 40
0
 41
0
  0
VERTEX
  8
0
 10
1.13748
 20
29.8797
 30
0.0
 40
0
 41
0
  0
SEQEND
 8
0
  0
POLYLINE
  8
0
 62
     0
 66
     1
 10
0
 20
0
 30
0.0
 70
     1
 40
0
 41
0
  0
VERTEX
  8
0
 10
8.65001
 20
36.5403
 30
0.0
 40
0
 41
0
  0
VERTEX
  8
0
 10
8.65608
 20
36.5403
 30
0.0
 40
0
 41
0
  0
VERTEX
  8
0
 10
8.67432
 20
36.5354
 30
0.0
 40
0
 41
0
  0
VERTEX
  8
0
 10
8.69417
 20
36.5219
 30
0.0
 40
0
 41
0
  0
VERTEX
  8
0
 10
8.70757
 20
36.5021
 30
0.0
 40
0
 41
0
  0
VERTEX
  8
0
 10
8.71251
 20
36.4839
 30
0.0
 40
0
 41
0
  0
VERTEX
  8
0
 10
8.71251
 20
36.4778
 30
0.0
 40
0
 41
0
  0
VERTEX
  8
0
 10
8.71251
 20
36.4717
 30
0.0
 40
0
 41
0
  0
VERTEX
  8
0
 10
8.70757
 20
36.4535
 30
0.0
 40
0
 41
0
  0
VERTEX
  8
0
 10
8.69417
 20
36.4336
 30
0.0
 40
0
 41
0
  0
VERTEX
  8
0
 10
8.67432
 20
36.4201
 30
0.0
 40
0
 41
0
  0
VERTEX
  8
0
 10
8.65608
 20
36.4153
 30
0.0
 40
0
 41
0
  0
VERTEX
  8
0
 10
8.65001
 20
36.4153
 30
0.0
 40
0
 41
0
  0
VERTEX
  8
0
 10
8.64388
 20
36.4153
 30
0.0
 40
0
 41
0
  0
VERTEX
  8
0
 10
8.62565
 20
36.4201
 30
0.0
 40
0
 41
0
  0
VERTEX
  8
0
 10
8.60579
 20
36.4336
 30
0.0
 40
0
 41
0
  0
VERTEX
  8
0
 10
8.59239
 20
36.4535
 30
0.0
 40
0
 41
0
  0
VERTEX
  8
0
 10
8.58751
 20
36.4717
 30
0.0
 40
0
 41
0
  0
VERTEX
  8
0
 10
8.58751
 20
36.4778
 30
0.0
 40
0
 41
0
  0
VERTEX
  8
0
 10
8.58751
 20
36.4839
 30
0.0
 40
0
 41
0
  0
VERTEX
  8
0
 10
8.59239
 20
36.5021
 30
0.0
 40
0
 41
0
  0
VERTEX
  8
0
 10
8.60579
 20
36.5219
 30
0.0
 40
0
 41
0
  0
VERTEX
  8
0
 10
8.62565
 20
36.5354
 30
0.0
 40
0
 41
0
  0
VERTEX
  8
0
 10
8.64388
 20
36.5403
 30
0.0
 40
0
 41
0
  0
VERTEX
  8
0
 10
8.65001
 20
36.5403
 30
0.0
 40
0
 41
0
  0
SEQEND
 8
0
  0
POLYLINE
  8
0
 62
     0
 66
     1
 10
0
 20
0
 30
0.0
 70
     1
 40
0
 41
0
  0
VERTEX
  8
0
 10
8.65001
 20
30.5403
 30
0.0
 40
0
 41
0
  0
VERTEX
  8
0
 10
8.65608
 20
30.5403
 30
0.0
 40
0
 41
0
  0
VERTEX
  8
0
 10
8.67432
 20
30.5354
 30
0.0
 40
0
 41
0
  0
VERTEX
  8
0
 10
8.69417
 20
30.5219
 30
0.0
 40
0
 41
0
  0
VERTEX
  8
0
 10
8.70757
 20
30.5021
 30
0.0
 40
0
 41
0
  0
VERTEX
  8
0
 10
8.71251
 20
30.4839
 30
0.0
 40
0
 41
0
  0
VERTEX
  8
0
 10
8.71251
 20
30.4778
 30
0.0
 40
0
 41
0
  0
VERTEX
  8
0
 10
8.71251
 20
30.4717
 30
0.0
 40
0
 41
0
  0
VERTEX
  8
0
 10
8.70757
 20
30.4535
 30
0.0
 40
0
 41
0
  0
VERTEX
  8
0
 10
8.69417
 20
30.4336
 30
0.0
 40
0
 41
0
  0
VERTEX
  8
0
 10
8.67432
 20
30.4201
 30
0.0
 40
0
 41
0
  0
VERTEX
  8
0
 10
8.65608
 20
30.4153
 30
0.0
 40
0
 41
0
  0
VERTEX
  8
0
 10
8.65001
 20
30.4153
 30
0.0
 40
0
 41
0
  0
VERTEX
  8
0
 10
8.64388
 20
30.4153
 30
0.0
 40
0
 41
0
  0
VERTEX
  8
0
 10
8.62565
 20
30.4201
 30
0.0
 40
0
 41
0
  0
VERTEX
  8
0
 10
8.60579
 20
30.4336
 30
0.0
 40
0
 41
0
  0
VERTEX
  8
0
 10
8.59239
 20
30.4535
 30
0.0
 40
0
 41
0
  0
VERTEX
  8
0
 10
8.58751
 20
30.4717
 30
0.0
 40
0
 41
0
  0
VERTEX
  8
0
 10
8.58751
 20
30.4778
 30
0.0
 40
0
 41
0
  0
VERTEX
  8
0
 10
8.58751
 20
30.4839
 30
0.0
 40
0
 41
0
  0
VERTEX
  8
0
 10
8.59239
 20
30.5021
 30
0.0
 40
0
 41
0
  0
VERTEX
  8
0
 10
8.60579
 20
30.5219
 30
0.0
 40
0
 41
0
  0
VERTEX
  8
0
 10
8.62565
 20
30.5354
 30
0.0
 40
0
 41
0
  0
VERTEX
  8
0
 10
8.64388
 20
30.5403
 30
0.0
 40
0
 41
0
  0
VERTEX
  8
0
 10
8.65001
 20
30.5403
 30
0.0
 40
0
 41
0
  0
SEQEND
 8
0
  0
POLYLINE
  8
0
 62
     0
 66
     1
 10
0
 20
0
 30
0.0
 70
     1
 40
0
 41
0
  0
VERTEX
  8
0
 10
8.65001
 20
26.0403
 30
0.0
 40
0
 41
0
  0
VERTEX
  8
0
 10
8.65608
 20
26.0403
 30
0.0
 40
0
 41
0
  0
VERTEX
  8
0
 10
8.67432
 20
26.0354
 30
0.0
 40
0
 41
0
  0
VERTEX
  8
0
 10
8.69417
 20
26.0219
 30
0.0
 40
0
 41
0
  0
VERTEX
  8
0
 10
8.70757
 20
26.0021
 30
0.0
 40
0
 41
0
  0
VERTEX
  8
0
 10
8.71251
 20
25.9839
 30
0.0
 40
0
 41
0
  0
VERTEX
  8
0
 10
8.71251
 20
25.9778
 30
0.0
 40
0
 41
0
  0
VERTEX
  8
0
 10
8.71251
 20
25.9717
 30
0.0
 40
0
 41
0
  0
VERTEX
  8
0
 10
8.70757
 20
25.9535
 30
0.0
 40
0
 41
0
  0
VERTEX
  8
0
 10
8.69417
 20
25.9336
 30
0.0
 40
0
 41
0
  0
VERTEX
  8
0
 10
8.67432
 20
25.9201
 30
0.0
 40
0
 41
0
  0
VERTEX
  8
0
 10
8.65608
 20
25.9153
 30
0.0
 40
0
 41
0
  0
VERTEX
  8
0
 10
8.65001
 20
25.9153
 30
0.0
 40
0
 41
0
  0
VERTEX
  8
0
 10
8.64388
 20
25.9153
 30
0.0
 40
0
 41
0
  0
VERTEX
  8
0
 10
8.62565
 20
25.9201
 30
0.0
 40
0
 41
0
  0
VERTEX
  8
0
 10
8.60579
 20
25.9336
 30
0.0
 40
0
 41
0
  0
VERTEX
  8
0
 10
8.59239
 20
25.9535
 30
0.0
 40
0
 41
0
  0
VERTEX
  8
0
 10
8.58751
 20
25.9717
 30
0.0
 40
0
 41
0
  0
VERTEX
  8
0
 10
8.58751
 20
25.9778
 30
0.0
 40
0
 41
0
  0
VERTEX
  8
0
 10
8.58751
 20
25.9839
 30
0.0
 40
0
 41
0
  0
VERTEX
  8
0
 10
8.59239
 20
26.0021
 30
0.0
 40
0
 41
0
  0
VERTEX
  8
0
 10
8.60579
 20
26.0219
 30
0.0
 40
0
 41
0
  0
VERTEX
  8
0
 10
8.62565
 20
26.0354
 30
0.0
 40
0
 41
0
  0
VERTEX
  8
0
 10
8.64388
 20
26.0403
 30
0.0
 40
0
 41
0
  0
VERTEX
  8
0
 10
8.65001
 20
26.0403
 30
0.0
 40
0
 41
0
  0
SEQEND
 8
0
  0
POLYLINE
  8
0
 62
     0
 66
     1
 10
0
 20
0
 30
0.0
 70
     1
 40
0
 41
0
  0
VERTEX
  8
0
 10
8.65001
 20
21.5403
 30
0.0
 40
0
 41
0
  0
VERTEX
  8
0
 10
8.65608
 20
21.5403
 30
0.0
 40
0
 41
0
  0
VERTEX
  8
0
 10
8.67432
 20
21.5354
 30
0.0
 40
0
 41
0
  0
VERTEX
  8
0
 10
8.69417
 20
21.5219
 30
0.0
 40
0
 41
0
  0
VERTEX
  8
0
 10
8.70757
 20
21.5021
 30
0.0
 40
0
 41
0
  0
VERTEX
  8
0
 10
8.71251
 20
21.4839
 30
0.0
 40
0
 41
0
  0
VERTEX
  8
0
 10
8.71251
 20
21.4778
 30
0.0
 40
0
 41
0
  0
VERTEX
  8
0
 10
8.71251
 20
21.4717
 30
0.0
 40
0
 41
0
  0
VERTEX
  8
0
 10
8.70757
 20
21.4535
 30
0.0
 40
0
 41
0
  0
VERTEX
  8
0
 10
8.69417
 20
21.4336
 30
0.0
 40
0
 41
0
  0
VERTEX
  8
0
 10
8.67432
 20
21.4201
 30
0.0
 40
0
 41
0
  0
VERTEX
  8
0
 10
8.65608
 20
21.4153
 30
0.0
 40
0
 41
0
  0
VERTEX
  8
0
 10
8.65001
 20
21.4153
 30
0.0
 40
0
 41
0
  0
VERTEX
  8
0
 10
8.64388
 20
21.4153
 30
0.0
 40
0
 41
0
  0
VERTEX
  8
0
 10
8.62565
 20
21.4201
 30
0.0
 40
0
 41
0
  0
VERTEX
  8
0
 10
8.60579
 20
21.4336
 30
0.0
 40
0
 41
0
  0
VERTEX
  8
0
 10
8.59239
 20
21.4535
 30
0.0
 40
0
 41
0
  0
VERTEX
  8
0
 10
8.58751
 20
21.4717
 30
0.0
 40
0
 41
0
  0
VERTEX
  8
0
 10
8.58751
 20
21.4778
 30
0.0
 40
0
 41
0
  0
VERTEX
  8
0
 10
8.58751
 20
21.4839
 30
0.0
 40
0
 41
0
  0
VERTEX
  8
0
 10
8.59239
 20
21.5021
 30
0.0
 40
0
 41
0
  0
VERTEX
  8
0
 10
8.60579
 20
21.5219
 30
0.0
 40
0
 41
0
  0
VERTEX
  8
0
 10
8.62565
 20
21.5354
 30
0.0
 40
0
 41
0
  0
VERTEX
  8
0
 10
8.64388
 20
21.5403
 30
0.0
 40
0
 41
0
  0
VERTEX
  8
0
 10
8.65001
 20
21.5403
 30
0.0
 40
0
 41
0
  0
SEQEND
 8
0
  0
POLYLINE
  8
0
 62
     0
 66
     1
 10
0
 20
0
 30
0.0
 70
     1
 40
0
 41
0
  0
VERTEX
  8
0
 10
8.65001
 20
15.5403
 30
0.0
 40
0
 41
0
  0
VERTEX
  8
0
 10
8.65608
 20
15.5403
 30
0.0
 40
0
 41
0
  0
VERTEX
  8
0
 10
8.67432
 20
15.5354
 30
0.0
 40
0
 41
0
  0
VERTEX
  8
0
 10
8.69417
 20
15.5219
 30
0.0
 40
0
 41
0
  0
VERTEX
  8
0
 10
8.70757
 20
15.5021
 30
0.0
 40
0
 41
0
  0
VERTEX
  8
0
 10
8.71251
 20
15.4839
 30
0.0
 40
0
 41
0
  0
VERTEX
  8
0
 10
8.71251
 20
15.4778
 30
0.0
 40
0
 41
0
  0
VERTEX
  8
0
 10
8.71251
 20
15.4717
 30
0.0
 40
0
 41
0
  0
VERTEX
  8
0
 10
8.70757
 20
15.4535
 30
0.0
 40
0
 41
0
  0
VERTEX
  8
0
 10
8.69417
 20
15.4336
 30
0.0
 40
0
 41
0
  0
VERTEX
  8
0
 10
8.67432
 20
15.4201
 30
0.0
 40
0
 41
0
  0
VERTEX
  8
0
 10
8.65608
 20
15.4153
 30
0.0
 40
0
 41
0
  0
VERTEX
  8
0
 10
8.65001
 20
15.4153
 30
0.0
 40
0
 41
0
  0
VERTEX
  8
0
 10
8.64388
 20
15.4153
 30
0.0
 40
0
 41
0
  0
VERTEX
  8
0
 10
8.62565
 20
15.4201
 30
0.0
 40
0
 41
0
  0
VERTEX
  8
0
 10
8.60579
 20
15.4336
 30
0.0
 40
0
 41
0
  0
VERTEX
  8
0
 10
8.59239
 20
15.4535
 30
0.0
 40
0
 41
0
  0
VERTEX
  8
0
 10
8.58751
 20
15.4717
 30
0.0
 40
0
 41
0
  0
VERTEX
  8
0
 10
8.58751
 20
15.4778
 30
0.0
 40
0
 41
0
  0
VERTEX
  8
0
 10
8.58751
 20
15.4839
 30
0.0
 40
0
 41
0
  0
VERTEX
  8
0
 10
8.59239
 20
15.5021
 30
0.0
 40
0
 41
0
  0
VERTEX
  8
0
 10
8.60579
 20
15.5219
 30
0.0
 40
0
 41
0
  0
VERTEX
  8
0
 10
8.62565
 20
15.5354
 30
0.0
 40
0
 41
0
  0
VERTEX
  8
0
 10
8.64388
 20
15.5403
 30
0.0
 40
0
 41
0
  0
VERTEX
  8
0
 10
8.65001
 20
15.5403
 30
0.0
 40
0
 41
0
  0
SEQEND
 8
0
  0
POLYLINE
  8
0
 62
     0
 66
     1
 10
0
 20
0
 30
0.0
 70
     1
 40
0
 41
0
  0
VERTEX
  8
0
 10
1.13748
 20
22.2008
 30
0.0
 40
0
 41
0
  0
VERTEX
  8
0
 10
1.14355
 20
22.2008
 30
0.0
 40
0
 41
0
  0
VERTEX
  8
0
 10
1.16178
 20
22.196
 30
0.0
 40
0
 41
0
  0
VERTEX
  8
0
 10
1.18164
 20
22.1825
 30
0.0
 40
0
 41
0
  0
VERTEX
  8
0
 10
1.19504
 20
22.1626
 30
0.0
 40
0
 41
0
  0
VERTEX
  8
0
 10
1.19998
 20
22.1444
 30
0.0
 40
0
 41
0
  0
VERTEX
  8
0
 10
1.19998
 20
22.1383
 30
0.0
 40
0
 41
0
  0
VERTEX
  8
0
 10
1.19998
 20
22.1322
 30
0.0
 40
0
 41
0
  0
VERTEX
  8
0
 10
1.19504
 20
22.114
 30
0.0
 40
0
 41
0
  0
VERTEX
  8
0
 10
1.18164
 20
22.0942
 30
0.0
 40
0
 41
0
  0
VERTEX
  8
0
 10
1.16178
 20
22.0807
 30
0.0
 40
0
 41
0
  0
VERTEX
  8
0
 10
1.14355
 20
22.0758
 30
0.0
 40
0
 41
0
  0
VERTEX
  8
0
 10
1.13748
 20
22.0758
 30
0.0
 40
0
 41
0
  0
VERTEX
  8
0
 10
1.13135
 20
22.0758
 30
0.0
 40
0
 41
0
  0
VERTEX
  8
0
 10
1.11312
 20
22.0807
 30
0.0
 40
0
 41
0
  0
VERTEX
  8
0
 10
1.09326
 20
22.0942
 30
0.0
 40
0
 41
0
  0
VERTEX
  8
0
 10
1.07986
 20
22.114
 30
0.0
 40
0
 41
0
  0
VERTEX
  8
0
 10
1.07498
 20
22.1322
 30
0.0
 40
0
 41
0
  0
VERTEX
  8
0
 10
1.07498
 20
22.1383
 30
0.0
 40
0
 41
0
  0
VERTEX
  8
0
 10
1.07498
 20
22.1444
 30
0.0
 40
0
 41
0
  0
VERTEX
  8
0
 10
1.07986
 20
22.1626
 30
0.0
 40
0
 41
0
  0
VERTEX
  8
0
 10
1.09326
 20
22.1825
 30
0.0
 40
0
 41
0
  0
VERTEX
  8
0
 10
1.11312
 20
22.196
 30
0.0
 40
0
 41
0
  0
VERTEX
  8
0
 10
1.13135
 20
22.2008
 30
0.0
 40
0
 41
0
  0
VERTEX
  8
0
 10
1.13748
 20
22.2008
 30
0.0
 40
0
 41
0
  0
SEQEND
 8
0
  0
POLYLINE
  8
0
 62
     0
 66
     1
 10
0
 20
0
 30
0.0
 70
     1
 40
0
 41
0
  0
VERTEX
  8
0
 10
1.13748
 20
15.7428
 30
0.0
 40
0
 41
0
  0
VERTEX
  8
0
 10
1.14355
 20
15.7428
 30
0.0
 40
0
 41
0
  0
VERTEX
  8
0
 10
1.16178
 20
15.7379
 30
0.0
 40
0
 41
0
  0
VERTEX
  8
0
 10
1.18164
 20
15.7244
 30
0.0
 40
0
 41
0
  0
VERTEX
  8
0
 10
1.19504
 20
15.7046
 30
0.0
 40
0
 41
0
  0
VERTEX
  8
0
 10
1.19998
 20
15.6864
 30
0.0
 40
0
 41
0
  0
VERTEX
  8
0
 10
1.19998
 20
15.6803
 30
0.0
 40
0
 41
0
  0
VERTEX
  8
0
 10
1.19998
 20
15.6742
 30
0.0
 40
0
 41
0
  0
VERTEX
  8
0
 10
1.19504
 20
15.656
 30
0.0
 40
0
 41
0
  0
VERTEX
  8
0
 10
1.18164
 20
15.6361
 30
0.0
 40
0
 41
0
  0
VERTEX
  8
0
 10
1.16178
 20
15.6228
 30
0.0
 40
0
 41
0
  0
VERTEX
  8
0
 10
1.14355
 20
15.6178
 30
0.0
 40
0
 41
0
  0
VERTEX
  8
0
 10
1.13748
 20
15.6178
 30
0.0
 40
0
 41
0
  0
VERTEX
  8
0
 10
1.13135
 20
15.6178
 30
0.0
 40
0
 41
0
  0
VERTEX
  8
0
 10
1.11312
 20
15.6228
 30
0.0
 40
0
 41
0
  0
VERTEX
  8
0
 10
1.09326
 20
15.6361
 30
0.0
 40
0
 41
0
  0
VERTEX
  8
0
 10
1.07986
 20
15.656
 30
0.0
 40
0
 41
0
  0
VERTEX
  8
0
 10
1.07498
 20
15.6742
 30
0.0
 40
0
 41
0
  0
VERTEX
  8
0
 10
1.07498
 20
15.6803
 30
0.0
 40
0
 41
0
  0
VERTEX
  8
0
 10
1.07498
 20
15.6864
 30
0.0
 40
0
 41
0
  0
VERTEX
  8
0
 10
1.07986
 20
15.7046
 30
0.0
 40
0
 41
0
  0
VERTEX
  8
0
 10
1.09326
 20
15.7244
 30
0.0
 40
0
 41
0
  0
VERTEX
  8
0
 10
1.11312
 20
15.7379
 30
0.0
 40
0
 41
0
  0
VERTEX
  8
0
 10
1.13135
 20
15.7428
 30
0.0
 40
0
 41
0
  0
VERTEX
  8
0
 10
1.13748
 20
15.7428
 30
0.0
 40
0
 41
0
  0
SEQEND
 8
0
  0
POLYLINE
  8
0
 62
     0
 66
     1
 10
0
 20
0
 30
0.0
 70
     1
 40
0
 41
0
  0
VERTEX
  8
0
 10
4.13747
 20
22.2008
 30
0.0
 40
0
 41
0
  0
VERTEX
  8
0
 10
4.14356
 20
22.2008
 30
0.0
 40
0
 41
0
  0
VERTEX
  8
0
 10
4.16178
 20
22.196
 30
0.0
 40
0
 41
0
  0
VERTEX
  8
0
 10
4.18164
 20
22.1825
 30
0.0
 40
0
 41
0
  0
VERTEX
  8
0
 10
4.19504
 20
22.1626
 30
0.0
 40
0
 41
0
  0
VERTEX
  8
0
 10
4.19997
 20
22.1444
 30
0.0
 40
0
 41
0
  0
VERTEX
  8
0
 10
4.19997
 20
22.1383
 30
0.0
 40
0
 41
0
  0
VERTEX
  8
0
 10
4.19997
 20
22.1322
 30
0.0
 40
0
 41
0
  0
VERTEX
  8
0
 10
4.19504
 20
22.114
 30
0.0
 40
0
 41
0
  0
VERTEX
  8
0
 10
4.18164
 20
22.0942
 30
0.0
 40
0
 41
0
  0
VERTEX
  8
0
 10
4.16178
 20
22.0807
 30
0.0
 40
0
 41
0
  0
VERTEX
  8
0
 10
4.14356
 20
22.0758
 30
0.0
 40
0
 41
0
  0
VERTEX
  8
0
 10
4.13747
 20
22.0758
 30
0.0
 40
0
 41
0
  0
VERTEX
  8
0
 10
4.13135
 20
22.0758
 30
0.0
 40
0
 41
0
  0
VERTEX
  8
0
 10
4.11312
 20
22.0807
 30
0.0
 40
0
 41
0
  0
VERTEX
  8
0
 10
4.09326
 20
22.0942
 30
0.0
 40
0
 41
0
  0
VERTEX
  8
0
 10
4.07986
 20
22.114
 30
0.0
 40
0
 41
0
  0
VERTEX
  8
0
 10
4.07497
 20
22.1322
 30
0.0
 40
0
 41
0
  0
VERTEX
  8
0
 10
4.07497
 20
22.1383
 30
0.0
 40
0
 41
0
  0
VERTEX
  8
0
 10
4.07497
 20
22.1444
 30
0.0
 40
0
 41
0
  0
VERTEX
  8
0
 10
4.07986
 20
22.1626
 30
0.0
 40
0
 41
0
  0
VERTEX
  8
0
 10
4.09326
 20
22.1825
 30
0.0
 40
0
 41
0
  0
VERTEX
  8
0
 10
4.11312
 20
22.196
 30
0.0
 40
0
 41
0
  0
VERTEX
  8
0
 10
4.13135
 20
22.2008
 30
0.0
 40
0
 41
0
  0
VERTEX
  8
0
 10
4.13747
 20
22.2008
 30
0.0
 40
0
 41
0
  0
SEQEND
 8
0
  0
POLYLINE
  8
0
 62
     0
 66
     1
 10
0
 20
0
 30
0.0
 70
     1
 40
0
 41
0
  0
VERTEX
  8
0
 10
4.13747
 20
15.7428
 30
0.0
 40
0
 41
0
  0
VERTEX
  8
0
 10
4.14356
 20
15.7428
 30
0.0
 40
0
 41
0
  0
VERTEX
  8
0
 10
4.16178
 20
15.7379
 30
0.0
 40
0
 41
0
  0
VERTEX
  8
0
 10
4.18164
 20
15.7244
 30
0.0
 40
0
 41
0
  0
VERTEX
  8
0
 10
4.19504
 20
15.7046
 30
0.0
 40
0
 41
0
  0
VERTEX
  8
0
 10
4.19997
 20
15.6864
 30
0.0
 40
0
 41
0
  0
VERTEX
  8
0
 10
4.19997
 20
15.6803
 30
0.0
 40
0
 41
0
  0
VERTEX
  8
0
 10
4.19997
 20
15.6742
 30
0.0
 40
0
 41
0
  0
VERTEX
  8
0
 10
4.19504
 20
15.656
 30
0.0
 40
0
 41
0
  0
VERTEX
  8
0
 10
4.18164
 20
15.6361
 30
0.0
 40
0
 41
0
  0
VERTEX
  8
0
 10
4.16178
 20
15.6228
 30
0.0
 40
0
 41
0
  0
VERTEX
  8
0
 10
4.14356
 20
15.6178
 30
0.0
 40
0
 41
0
  0
VERTEX
  8
0
 10
4.13747
 20
15.6178
 30
0.0
 40
0
 41
0
  0
VERTEX
  8
0
 10
4.13135
 20
15.6178
 30
0.0
 40
0
 41
0
  0
VERTEX
  8
0
 10
4.11312
 20
15.6228
 30
0.0
 40
0
 41
0
  0
VERTEX
  8
0
 10
4.09326
 20
15.6361
 30
0.0
 40
0
 41
0
  0
VERTEX
  8
0
 10
4.07986
 20
15.656
 30
0.0
 40
0
 41
0
  0
VERTEX
  8
0
 10
4.07497
 20
15.6742
 30
0.0
 40
0
 41
0
  0
VERTEX
  8
0
 10
4.07497
 20
15.6803
 30
0.0
 40
0
 41
0
  0
VERTEX
  8
0
 10
4.07497
 20
15.6864
 30
0.0
 40
0
 41
0
  0
VERTEX
  8
0
 10
4.07986
 20
15.7046
 30
0.0
 40
0
 41
0
  0
VERTEX
  8
0
 10
4.09326
 20
15.7244
 30
0.0
 40
0
 41
0
  0
VERTEX
  8
0
 10
4.11312
 20
15.7379
 30
0.0
 40
0
 41
0
  0
VERTEX
  8
0
 10
4.13135
 20
15.7428
 30
0.0
 40
0
 41
0
  0
VERTEX
  8
0
 10
4.13747
 20
15.7428
 30
0.0
 40
0
 41
0
  0
SEQEND
 8
0
  0
POLYLINE
  8
0
 62
     0
 66
     1
 10
0
 20
0
 30
0.0
 70
     1
 40
0
 41
0
  0
VERTEX
  8
0
 10
7.13747
 20
22.2008
 30
0.0
 40
0
 41
0
  0
VERTEX
  8
0
 10
7.14356
 20
22.2008
 30
0.0
 40
0
 41
0
  0
VERTEX
  8
0
 10
7.16178
 20
22.196
 30
0.0
 40
0
 41
0
  0
VERTEX
  8
0
 10
7.18164
 20
22.1825
 30
0.0
 40
0
 41
0
  0
VERTEX
  8
0
 10
7.19504
 20
22.1626
 30
0.0
 40
0
 41
0
  0
VERTEX
  8
0
 10
7.19997
 20
22.1444
 30
0.0
 40
0
 41
0
  0
VERTEX
  8
0
 10
7.19997
 20
22.1383
 30
0.0
 40
0
 41
0
  0
VERTEX
  8
0
 10
7.19997
 20
22.1322
 30
0.0
 40
0
 41
0
  0
VERTEX
  8
0
 10
7.19504
 20
22.114
 30
0.0
 40
0
 41
0
  0
VERTEX
  8
0
 10
7.18164
 20
22.0942
 30
0.0
 40
0
 41
0
  0
VERTEX
  8
0
 10
7.16178
 20
22.0807
 30
0.0
 40
0
 41
0
  0
VERTEX
  8
0
 10
7.14356
 20
22.0758
 30
0.0
 40
0
 41
0
  0
VERTEX
  8
0
 10
7.13747
 20
22.0758
 30
0.0
 40
0
 41
0
  0
VERTEX
  8
0
 10
7.13135
 20
22.0758
 30
0.0
 40
0
 41
0
  0
VERTEX
  8
0
 10
7.11313
 20
22.0807
 30
0.0
 40
0
 41
0
  0
VERTEX
  8
0
 10
7.09326
 20
22.0942
 30
0.0
 40
0
 41
0
  0
VERTEX
  8
0
 10
7.07986
 20
22.114
 30
0.0
 40
0
 41
0
  0
VERTEX
  8
0
 10
7.07497
 20
22.1322
 30
0.0
 40
0
 41
0
  0
VERTEX
  8
0
 10
7.07497
 20
22.1383
 30
0.0
 40
0
 41
0
  0
VERTEX
  8
0
 10
7.07497
 20
22.1444
 30
0.0
 40
0
 41
0
  0
VERTEX
  8
0
 10
7.07986
 20
22.1626
 30
0.0
 40
0
 41
0
  0
VERTEX
  8
0
 10
7.09326
 20
22.1825
 30
0.0
 40
0
 41
0
  0
VERTEX
  8
0
 10
7.11313
 20
22.196
 30
0.0
 40
0
 41
0
  0
VERTEX
  8
0
 10
7.13135
 20
22.2008
 30
0.0
 40
0
 41
0
  0
VERTEX
  8
0
 10
7.13747
 20
22.2008
 30
0.0
 40
0
 41
0
  0
SEQEND
 8
0
  0
POLYLINE
  8
0
 62
     0
 66
     1
 10
0
 20
0
 30
0.0
 70
     1
 40
0
 41
0
  0
VERTEX
  8
0
 10
7.13747
 20
15.7428
 30
0.0
 40
0
 41
0
  0
VERTEX
  8
0
 10
7.14356
 20
15.7428
 30
0.0
 40
0
 41
0
  0
VERTEX
  8
0
 10
7.16178
 20
15.7379
 30
0.0
 40
0
 41
0
  0
VERTEX
  8
0
 10
7.18164
 20
15.7244
 30
0.0
 40
0
 41
0
  0
VERTEX
  8
0
 10
7.19504
 20
15.7046
 30
0.0
 40
0
 41
0
  0
VERTEX
  8
0
 10
7.19997
 20
15.6864
 30
0.0
 40
0
 41
0
  0
VERTEX
  8
0
 10
7.19997
 20
15.6803
 30
0.0
 40
0
 41
0
  0
VERTEX
  8
0
 10
7.19997
 20
15.6742
 30
0.0
 40
0
 41
0
  0
VERTEX
  8
0
 10
7.19504
 20
15.656
 30
0.0
 40
0
 41
0
  0
VERTEX
  8
0
 10
7.18164
 20
15.6361
 30
0.0
 40
0
 41
0
  0
VERTEX
  8
0
 10
7.16178
 20
15.6228
 30
0.0
 40
0
 41
0
  0
VERTEX
  8
0
 10
7.14356
 20
15.6178
 30
0.0
 40
0
 41
0
  0
VERTEX
  8
0
 10
7.13747
 20
15.6178
 30
0.0
 40
0
 41
0
  0
VERTEX
  8
0
 10
7.13135
 20
15.6178
 30
0.0
 40
0
 41
0
  0
VERTEX
  8
0
 10
7.11313
 20
15.6228
 30
0.0
 40
0
 41
0
  0
VERTEX
  8
0
 10
7.09326
 20
15.6361
 30
0.0
 40
0
 41
0
  0
VERTEX
  8
0
 10
7.07986
 20
15.656
 30
0.0
 40
0
 41
0
  0
VERTEX
  8
0
 10
7.07497
 20
15.6742
 30
0.0
 40
0
 41
0
  0
VERTEX
  8
0
 10
7.07497
 20
15.6803
 30
0.0
 40
0
 41
0
  0
VERTEX
  8
0
 10
7.07497
 20
15.6864
 30
0.0
 40
0
 41
0
  0
VERTEX
  8
0
 10
7.07986
 20
15.7046
 30
0.0
 40
0
 41
0
  0
VERTEX
  8
0
 10
7.09326
 20
15.7244
 30
0.0
 40
0
 41
0
  0
VERTEX
  8
0
 10
7.11313
 20
15.7379
 30
0.0
 40
0
 41
0
  0
VERTEX
  8
0
 10
7.13135
 20
15.7428
 30
0.0
 40
0
 41
0
  0
VERTEX
  8
0
 10
7.13747
 20
15.7428
 30
0.0
 40
0
 41
0
  0
SEQEND
 8
0
  0
POLYLINE
  8
0
 62
     0
 66
     1
 10
0
 20
0
 30
0.0
 70
     1
 40
0
 41
0
  0
VERTEX
  8
0
 10
9.0625
 20
0.677789
 30
0.0
 40
0
 41
0
  0
VERTEX
  8
0
 10
1.935
 20
0.677789
 30
0.0
 40
0
 41
0
  0
VERTEX
  8
0
 10
1.91064
 20
0.677789
 30
0.0
 40
0
 41
0
  0
VERTEX
  8
0
 10
1.83768
 20
0.658149
 30
0.0
 40
0
 41
0
  0
VERTEX
  8
0
 10
1.75819
 20
0.604601
 30
0.0
 40
0
 41
0
  0
VERTEX
  8
0
 10
1.70464
 20
0.525119
 30
0.0
 40
0
 41
0
  0
VERTEX
  8
0
 10
1.685
 20
0.452149
 30
0.0
 40
0
 41
0
  0
VERTEX
  8
0
 10
1.685
 20
0.427789
 30
0.0
 40
0
 41
0
  0
VERTEX
  8
0
 10
1.685
 20
0.00276693
 30
0.0
 40
0
 41
0
  0
VERTEX
  8
0
 10
0
 20
0.00276693
 30
0.0
 40
0
 41
0
  0
VERTEX
  8
0
 10
0
 20
13.1778
 30
0.0
 40
0
 41
0
  0
VERTEX
  8
0
 10
9.0625
 20
13.1778
 30
0.0
 40
0
 41
0
  0
VERTEX
  8
0
 10
9.0625
 20
0.677789
 30
0.0
 40
0
 41
0
  0
SEQEND
 8
0
  0
POLYLINE
  8
0
 62
     0
 66
     1
 10
0
 20
0
 30
0.0
 70
     1
 40
0
 41
0
  0
VERTEX
  8
0
 10
8.375
 20
12.7548
 30
0.0
 40
0
 41
0
  0
VERTEX
  8
0
 10
8.38857
 20
12.7548
 30
0.0
 40
0
 41
0
  0
VERTEX
  8
0
 10
8.42925
 20
12.7438
 30
0.0
 40
0
 41
0
  0
VERTEX
  8
0
 10
8.47364
 20
12.7139
 30
0.0
 40
0
 41
0
  0
VERTEX
  8
0
 10
8.50347
 20
12.6696
 30
0.0
 40
0
 41
0
  0
VERTEX
  8
0
 10
8.51449
 20
12.6289
 30
0.0
 40
0
 41
0
  0
VERTEX
  8
0
 10
8.51449
 20
12.6153
 30
0.0
 40
0
 41
0
  0
VERTEX
  8
0
 10
8.51449
 20
12.6017
 30
0.0
 40
0
 41
0
  0
VERTEX
  8
0
 10
8.50347
 20
12.561
 30
0.0
 40
0
 41
0
  0
VERTEX
  8
0
 10
8.47364
 20
12.5167
 30
0.0
 40
0
 41
0
  0
VERTEX
  8
0
 10
8.42925
 20
12.4868
 30
0.0
 40
0
 41
0
  0
VERTEX
  8
0
 10
8.38857
 20
12.4758
 30
0.0
 40
0
 41
0
  0
VERTEX
  8
0
 10
8.375
 20
12.4758
 30
0.0
 40
0
 41
0
  0
VERTEX
  8
0
 10
8.36139
 20
12.4758
 30
0.0
 40
0
 41
0
  0
VERTEX
  8
0
 10
8.32069
 20
12.4868
 30
0.0
 40
0
 41
0
  0
VERTEX
  8
0
 10
8.27636
 20
12.5167
 30
0.0
 40
0
 41
0
  0
VERTEX
  8
0
 10
8.24647
 20
12.561
 30
0.0
 40
0
 41
0
  0
VERTEX
  8
0
 10
8.23551
 20
12.6017
 30
0.0
 40
0
 41
0
  0
VERTEX
  8
0
 10
8.23551
 20
12.6153
 30
0.0
 40
0
 41
0
  0
VERTEX
  8
0
 10
8.23551
 20
12.6289
 30
0.0
 40
0
 41
0
  0
VERTEX
  8
0
 10
8.24647
 20
12.6696
 30
0.0
 40
0
 41
0
  0
VERTEX
  8
0
 10
8.27636
 20
12.7139
 30
0.0
 40
0
 41
0
  0
VERTEX
  8
0
 10
8.32069
 20
12.7438
 30
0.0
 40
0
 41
0
  0
VERTEX
  8
0
 10
8.36139
 20
12.7548
 30
0.0
 40
0
 41
0
  0
VERTEX
  8
0
 10
8.375
 20
12.7548
 30
0.0
 40
0
 41
0
  0
SEQEND
 8
0
  0
POLYLINE
  8
0
 62
     0
 66
     1
 10
0
 20
0
 30
0.0
 70
     1
 40
0
 41
0
  0
VERTEX
  8
0
 10
8.875
 20
1.25478
 30
0.0
 40
0
 41
0
  0
VERTEX
  8
0
 10
8.88857
 20
1.25478
 30
0.0
 40
0
 41
0
  0
VERTEX
  8
0
 10
8.92925
 20
1.24382
 30
0.0
 40
0
 41
0
  0
VERTEX
  8
0
 10
8.97364
 20
1.21392
 30
0.0
 40
0
 41
0
  0
VERTEX
  8
0
 10
9.00347
 20
1.1696
 30
0.0
 40
0
 41
0
  0
VERTEX
  8
0
 10
9.01449
 20
1.12891
 30
0.0
 40
0
 41
0
  0
VERTEX
  8
0
 10
9.01449
 20
1.11529
 30
0.0
 40
0
 41
0
  0
VERTEX
  8
0
 10
9.01449
 20
1.10173
 30
0.0
 40
0
 41
0
  0
VERTEX
  8
0
 10
9.00347
 20
1.06103
 30
0.0
 40
0
 41
0
  0
VERTEX
  8
0
 10
8.97364
 20
1.01666
 30
0.0
 40
0
 41
0
  0
VERTEX
  8
0
 10
8.92925
 20
0.986817
 30
0.0
 40
0
 41
0
  0
VERTEX
  8
0
 10
8.88857
 20
0.975803
 30
0.0
 40
0
 41
0
  0
VERTEX
  8
0
 10
8.875
 20
0.975803
 30
0.0
 40
0
 41
0
  0
VERTEX
  8
0
 10
8.86139
 20
0.975803
 30
0.0
 40
0
 41
0
  0
VERTEX
  8
0
 10
8.82069
 20
0.986817
 30
0.0
 40
0
 41
0
  0
VERTEX
  8
0
 10
8.77636
 20
1.01666
 30
0.0
 40
0
 41
0
  0
VERTEX
  8
0
 10
8.74647
 20
1.06103
 30
0.0
 40
0
 41
0
  0
VERTEX
  8
0
 10
8.73551
 20
1.10173
 30
0.0
 40
0
 41
0
  0
VERTEX
  8
0
 10
8.73551
 20
1.11529
 30
0.0
 40
0
 41
0
  0
VERTEX
  8
0
 10
8.73551
 20
1.12891
 30
0.0
 40
0
 41
0
  0
VERTEX
  8
0
 10
8.74647
 20
1.1696
 30
0.0
 40
0
 41
0
  0
VERTEX
  8
0
 10
8.77636
 20
1.21392
 30
0.0
 40
0
 41
0
  0
VERTEX
  8
0
 10
8.82069
 20
1.24382
 30
0.0
 40
0
 41
0
  0
VERTEX
  8
0
 10
8.86139
 20
1.25478
 30
0.0
 40
0
 41
0
  0
VERTEX
  8
0
 10
8.875
 20
1.25478
 30
0.0
 40
0
 41
0
  0
SEQEND
 8
0
  0
POLYLINE
  8
0
 62
     0
 66
     1
 10
0
 20
0
 30
0.0
 70
     1
 40
0
 41
0
  0
VERTEX
  8
0
 10
8.375
 20
1.25478
 30
0.0
 40
0
 41
0
  0
VERTEX
  8
0
 10
8.38857
 20
1.25478
 30
0.0
 40
0
 41
0
  0
VERTEX
  8
0
 10
8.42925
 20
1.24382
 30
0.0
 40
0
 41
0
  0
VERTEX
  8
0
 10
8.47364
 20
1.21392
 30
0.0
 40
0
 41
0
  0
VERTEX
  8
0
 10
8.50347
 20
1.1696
 30
0.0
 40
0
 41
0
  0
VERTEX
  8
0
 10
8.51449
 20
1.12891
 30
0.0
 40
0
 41
0
  0
VERTEX
  8
0
 10
8.51449
 20
1.11529
 30
0.0
 40
0
 41
0
  0
VERTEX
  8
0
 10
8.51449
 20
1.10173
 30
0.0
 40
0
 41
0
  0
VERTEX
  8
0
 10
8.50347
 20
1.06103
 30
0.0
 40
0
 41
0
  0
VERTEX
  8
0
 10
8.47364
 20
1.01666
 30
0.0
 40
0
 41
0
  0
VERTEX
  8
0
 10
8.42925
 20
0.986817
 30
0.0
 40
0
 41
0
  0
VERTEX
  8
0
 10
8.38857
 20
0.975803
 30
0.0
 40
0
 41
0
  0
VERTEX
  8
0
 10
8.375
 20
0.975803
 30
0.0
 40
0
 41
0
  0
VERTEX
  8
0
 10
8.36139
 20
0.975803
 30
0.0
 40
0
 41
0
  0
VERTEX
  8
0
 10
8.32069
 20
0.986817
 30
0.0
 40
0
 41
0
  0
VERTEX
  8
0
 10
8.27636
 20
1.01666
 30
0.0
 40
0
 41
0
  0
VERTEX
  8
0
 10
8.24647
 20
1.06103
 30
0.0
 40
0
 41
0
  0
VERTEX
  8
0
 10
8.23551
 20
1.10173
 30
0.0
 40
0
 41
0
  0
VERTEX
  8
0
 10
8.23551
 20
1.11529
 30
0.0
 40
0
 41
0
  0
VERTEX
  8
0
 10
8.23551
 20
1.12891
 30
0.0
 40
0
 41
0
  0
VERTEX
  8
0
 10
8.24647
 20
1.1696
 30
0.0
 40
0
 41
0
  0
VERTEX
  8
0
 10
8.27636
 20
1.21392
 30
0.0
 40
0
 41
0
  0
VERTEX
  8
0
 10
8.32069
 20
1.24382
 30
0.0
 40
0
 41
0
  0
VERTEX
  8
0
 10
8.36139
 20
1.25478
 30
0.0
 40
0
 41
0
  0
VERTEX
  8
0
 10
8.375
 20
1.25478
 30
0.0
 40
0
 41
0
  0
SEQEND
 8
0
  0
POLYLINE
  8
0
 62
     0
 66
     1
 10
0
 20
0
 30
0.0
 70
     1
 40
0
 41
0
  0
VERTEX
  8
0
 10
3.61253
 20
12.259
 30
0.0
 40
0
 41
0
  0
VERTEX
  8
0
 10
3.68246
 20
12.259
 30
0.0
 40
0
 41
0
  0
VERTEX
  8
0
 10
3.89236
 20
12.2449
 30
0.0
 40
0
 41
0
  0
VERTEX
  8
0
 10
4.16417
 20
12.2034
 30
0.0
 40
0
 41
0
  0
VERTEX
  8
0
 10
4.42654
 20
12.136
 30
0.0
 40
0
 41
0
  0
VERTEX
  8
0
 10
4.67806
 20
12.0439
 30
0.0
 40
0
 41
0
  0
VERTEX
  8
0
 10
4.91732
 20
11.9287
 30
0.0
 40
0
 41
0
  0
VERTEX
  8
0
 10
5.14307
 20
11.7915
 30
0.0
 40
0
 41
0
  0
VERTEX
  8
0
 10
5.35379
 20
11.634
 30
0.0
 40
0
 41
0
  0
VERTEX
  8
0
 10
5.54818
 20
11.4573
 30
0.0
 40
0
 41
0
  0
VERTEX
  8
0
 10
5.72488
 20
11.2629
 30
0.0
 40
0
 41
0
  0
VERTEX
  8
0
 10
5.88243
 20
11.0521
 30
0.0
 40
0
 41
0
  0
VERTEX
  8
0
 10
6.01958
 20
10.8264
 30
0.0
 40
0
 41
0
  0
VERTEX
  8
0
 10
6.13482
 20
10.5871
 30
0.0
 40
0
 41
0
  0
VERTEX
  8
0
 10
6.22689
 20
10.3356
 30
0.0
 40
0
 41
0
  0
VERTEX
  8
0
 10
6.29432
 20
10.0732
 30
0.0
 40
0
 41
0
  0
VERTEX
  8
0
 10
6.33583
 20
9.80143
 30
0.0
 40
0
 41
0
  0
VERTEX
  8
0
 10
6.34999
 20
9.59153
 30
0.0
 40
0
 41
0
  0
VERTEX
  8
0
 10
6.34999
 20
9.52154
 30
0.0
 40
0
 41
0
  0
VERTEX
  8
0
 10
6.34999
 20
9.45161
 30
0.0
 40
0
 41
0
  0
VERTEX
  8
0
 10
6.33583
 20
9.24164
 30
0.0
 40
0
 41
0
  0
VERTEX
  8
0
 10
6.29432
 20
8.96989
 30
0.0
 40
0
 41
0
  0
VERTEX
  8
0
 10
6.22689
 20
8.70751
 30
0.0
 40
0
 41
0
  0
VERTEX
  8
0
 10
6.13482
 20
8.456
 30
0.0
 40
0
 41
0
  0
VERTEX
  8
0
 10
6.01958
 20
8.21669
 30
0.0
 40
0
 41
0
  0
VERTEX
  8
0
 10
5.88243
 20
7.991
 30
0.0
 40
0
 41
0
  0
VERTEX
  8
0
 10
5.72488
 20
7.78028
 30
0.0
 40
0
 41
0
  0
VERTEX
  8
0
 10
5.54818
 20
7.58583
 30
0.0
 40
0
 41
0
  0
VERTEX
  8
0
 10
5.35379
 20
7.40918
 30
0.0
 40
0
 41
0
  0
VERTEX
  8
0
 10
5.14307
 20
7.25157
 30
0.0
 40
0
 41
0
  0
VERTEX
  8
0
 10
4.91732
 20
7.11447
 30
0.0
 40
0
 41
0
  0
VERTEX
  8
0
 10
4.67806
 20
6.99918
 30
0.0
 40
0
 41
0
  0
VERTEX
  8
0
 10
4.42654
 20
6.90712
 30
0.0
 40
0
 41
0
  0
VERTEX
  8
0
 10
4.16417
 20
6.83968
 30
0.0
 40
0
 41
0
  0
VERTEX
  8
0
 10
3.89236
 20
6.79818
 30
0.0
 40
0
 41
0
  0
VERTEX
  8
0
 10
3.68246
 20
6.78401
 30
0.0
 40
0
 41
0
  0
VERTEX
  8
0
 10
3.61253
 20
6.78401
 30
0.0
 40
0
 41
0
  0
VERTEX
  8
0
 10
3.54254
 20
6.78401
 30
0.0
 40
0
 41
0
  0
VERTEX
  8
0
 10
3.33257
 20
6.79818
 30
0.0
 40
0
 41
0
  0
VERTEX
  8
0
 10
3.06082
 20
6.83968
 30
0.0
 40
0
 41
0
  0
VERTEX
  8
0
 10
2.79844
 20
6.90712
 30
0.0
 40
0
 41
0
  0
VERTEX
  8
0
 10
2.54693
 20
6.99918
 30
0.0
 40
0
 41
0
  0
VERTEX
  8
0
 10
2.30761
 20
7.11447
 30
0.0
 40
0
 41
0
  0
VERTEX
  8
0
 10
2.08192
 20
7.25157
 30
0.0
 40
0
 41
0
  0
VERTEX
  8
0
 10
1.87121
 20
7.40918
 30
0.0
 40
0
 41
0
  0
VERTEX
  8
0
 10
1.67676
 20
7.58583
 30
0.0
 40
0
 41
0
  0
VERTEX
  8
0
 10
1.50011
 20
7.78028
 30
0.0
 40
0
 41
0
  0
VERTEX
  8
0
 10
1.3425
 20
7.991
 30
0.0
 40
0
 41
0
  0
VERTEX
  8
0
 10
1.2054
 20
8.21669
 30
0.0
 40
0
 41
0
  0
VERTEX
  8
0
 10
1.09012
 20
8.456
 30
0.0
 40
0
 41
0
  0
VERTEX
  8
0
 10
0.998047
 20
8.70751
 30
0.0
 40
0
 41
0
  0
VERTEX
  8
0
 10
0.93061
 20
8.96989
 30
0.0
 40
0
 41
0
  0
VERTEX
  8
0
 10
0.889106
 20
9.24164
 30
0.0
 40
0
 41
0
  0
VERTEX
  8
0
 10
0.875
 20
9.45161
 30
0.0
 40
0
 41
0
  0
VERTEX
  8
0
 10
0.875
 20
9.52154
 30
0.0
 40
0
 41
0
  0
VERTEX
  8
0
 10
0.875
 20
9.59153
 30
0.0
 40
0
 41
0
  0
VERTEX
  8
0
 10
0.889106
 20
9.80143
 30
0.0
 40
0
 41
0
  0
VERTEX
  8
0
 10
0.93061
 20
10.0732
 30
0.0
 40
0
 41
0
  0
VERTEX
  8
0
 10
0.998047
 20
10.3356
 30
0.0
 40
0
 41
0
  0
VERTEX
  8
0
 10
1.09012
 20
10.5871
 30
0.0
 40
0
 41
0
  0
VERTEX
  8
0
 10
1.2054
 20
10.8264
 30
0.0
 40
0
 41
0
  0
VERTEX
  8
0
 10
1.3425
 20
11.0521
 30
0.0
 40
0
 41
0
  0
VERTEX
  8
0
 10
1.50011
 20
11.2629
 30
0.0
 40
0
 41
0
  0
VERTEX
  8
0
 10
1.67676
 20
11.4573
 30
0.0
 40
0
 41
0
  0
VERTEX
  8
0
 10
1.87121
 20
11.634
 30
0.0
 40
0
 41
0
  0
VERTEX
  8
0
 10
2.08192
 20
11.7915
 30
0.0
 40
0
 41
0
  0
VERTEX
  8
0
 10
2.30761
 20
11.9287
 30
0.0
 40
0
 41
0
  0
VERTEX
  8
0
 10
2.54693
 20
12.0439
 30
0.0
 40
0
 41
0
  0
VERTEX
  8
0
 10
2.79844
 20
12.136
 30
0.0
 40
0
 41
0
  0
VERTEX
  8
0
 10
3.06082
 20
12.2034
 30
0.0
 40
0
 41
0
  0
VERTEX
  8
0
 10
3.33257
 20
12.2449
 30
0.0
 40
0
 41
0
  0
VERTEX
  8
0
 10
3.54254
 20
12.259
 30
0.0
 40
0
 41
0
  0
VERTEX
  8
0
 10
3.61253
 20
12.259
 30
0.0
 40
0
 41
0
  0
SEQEND
 8
0
  0
POLYLINE
  8
0
 62
     0
 66
     1
 10
0
 20
0
 30
0.0
 70
     1
 40
0
 41
0
  0
VERTEX
  8
0
 10
4.45503
 20
5.02154
 30
0.0
 40
0
 41
0
  0
VERTEX
  8
0
 10
4.49333
 20
5.02154
 30
0.0
 40
0
 41
0
  0
VERTEX
  8
0
 10
4.60835
 20
5.01383
 30
0.0
 40
0
 41
0
  0
VERTEX
  8
0
 10
4.75726
 20
4.9911
 30
0.0
 40
0
 41
0
  0
VERTEX
  8
0
 10
4.90104
 20
4.9541
 30
0.0
 40
0
 41
0
  0
VERTEX
  8
0
 10
5.03885
 20
4.90369
 30
0.0
 40
0
 41
0
  0
VERTEX
  8
0
 10
5.16997
 20
4.8405
 30
0.0
 40
0
 41
0
  0
VERTEX
  8
0
 10
5.29368
 20
4.7654
 30
0.0
 40
0
 41
0
  0
VERTEX
  8
0
 10
5.40913
 20
4.67904
 30
0.0
 40
0
 41
0
  0
VERTEX
  8
0
 10
5.51563
 20
4.58219
 30
0.0
 40
0
 41
0
  0
VERTEX
  8
0
 10
5.61247
 20
4.47569
 30
0.0
 40
0
 41
0
  0
VERTEX
  8
0
 10
5.69883
 20
4.36025
 30
0.0
 40
0
 41
0
  0
VERTEX
  8
0
 10
5.77393
 20
4.23654
 30
0.0
 40
0
 41
0
  0
VERTEX
  8
0
 10
5.83713
 20
4.10542
 30
0.0
 40
0
 41
0
  0
VERTEX
  8
0
 10
5.88753
 20
3.96761
 30
0.0
 40
0
 41
0
  0
VERTEX
  8
0
 10
5.92453
 20
3.82383
 30
0.0
 40
0
 41
0
  0
VERTEX
  8
0
 10
5.94726
 20
3.67492
 30
0.0
 40
0
 41
0
  0
VERTEX
  8
0
 10
5.95503
 20
3.5599
 30
0.0
 40
0
 41
0
  0
VERTEX
  8
0
 10
5.95503
 20
3.52154
 30
0.0
 40
0
 41
0
  0
VERTEX
  8
0
 10
5.95503
 20
3.48324
 30
0.0
 40
0
 41
0
  0
VERTEX
  8
0
 10
5.94726
 20
3.36822
 30
0.0
 40
0
 41
0
  0
VERTEX
  8
0
 10
5.92453
 20
3.21924
 30
0.0
 40
0
 41
0
  0
VERTEX
  8
0
 10
5.88753
 20
3.07553
 30
0.0
 40
0
 41
0
  0
VERTEX
  8
0
 10
5.83713
 20
2.93767
 30
0.0
 40
0
 41
0
  0
VERTEX
  8
0
 10
5.77393
 20
2.80658
 30
0.0
 40
0
 41
0
  0
VERTEX
  8
0
 10
5.69883
 20
2.68289
 30
0.0
 40
0
 41
0
  0
VERTEX
  8
0
 10
5.61247
 20
2.56743
 30
0.0
 40
0
 41
0
  0
VERTEX
  8
0
 10
5.51563
 20
2.46089
 30
0.0
 40
0
 41
0
  0
VERTEX
  8
0
 10
5.40913
 20
2.3641
 30
0.0
 40
0
 41
0
  0
VERTEX
  8
0
 10
5.29368
 20
2.27772
 30
0.0
 40
0
 41
0
  0
VERTEX
  8
0
 10
5.16997
 20
2.20258
 30
0.0
 40
0
 41
0
  0
VERTEX
  8
0
 10
5.03885
 20
2.13943
 30
0.0
 40
0
 41
0
  0
VERTEX
  8
0
 10
4.90104
 20
2.08897
 30
0.0
 40
0
 41
0
  0
VERTEX
  8
0
 10
4.75726
 20
2.05203
 30
0.0
 40
0
 41
0
  0
VERTEX
  8
0
 10
4.60835
 20
2.02929
 30
0.0
 40
0
 41
0
  0
VERTEX
  8
0
 10
4.49333
 20
2.02154
 30
0.0
 40
0
 41
0
  0
VERTEX
  8
0
 10
4.45503
 20
2.02154
 30
0.0
 40
0
 41
0
  0
VERTEX
  8
0
 10
4.41667
 20
2.02154
 30
0.0
 40
0
 41
0
  0
VERTEX
  8
0
 10
4.30165
 20
2.02929
 30
0.0
 40
0
 41
0
  0
VERTEX
  8
0
 10
4.15267
 20
2.05203
 30
0.0
 40
0
 41
0
  0
VERTEX
  8
0
 10
4.00896
 20
2.08897
 30
0.0
 40
0
 41
0
  0
VERTEX
  8
0
 10
3.8711
 20
2.13943
 30
0.0
 40
0
 41
0
  0
VERTEX
  8
0
 10
3.74001
 20
2.20258
 30
0.0
 40
0
 41
0
  0
VERTEX
  8
0
 10
3.61632
 20
2.27772
 30
0.0
 40
0
 41
0
  0
VERTEX
  8
0
 10
3.50088
 20
2.3641
 30
0.0
 40
0
 41
0
  0
VERTEX
  8
0
 10
3.39432
 20
2.46089
 30
0.0
 40
0
 41
0
  0
VERTEX
  8
0
 10
3.29753
 20
2.56743
 30
0.0
 40
0
 41
0
  0
VERTEX
  8
0
 10
3.21115
 20
2.68289
 30
0.0
 40
0
 41
0
  0
VERTEX
  8
0
 10
3.13601
 20
2.80658
 30
0.0
 40
0
 41
0
  0
VERTEX
  8
0
 10
3.07286
 20
2.93767
 30
0.0
 40
0
 41
0
  0
VERTEX
  8
0
 10
3.0224
 20
3.07553
 30
0.0
 40
0
 41
0
  0
VERTEX
  8
0
 10
2.98546
 20
3.21924
 30
0.0
 40
0
 41
0
  0
VERTEX
  8
0
 10
2.96272
 20
3.36822
 30
0.0
 40
0
 41
0
  0
VERTEX
  8
0
 10
2.95503
 20
3.48324
 30
0.0
 40
0
 41
0
  0
VERTEX
  8
0
 10
2.95503
 20
3.52154
 30
0.0
 40
0
 41
0
  0
VERTEX
  8
0
 10
2.95503
 20
3.5599
 30
0.0
 40
0
 41
0
  0
VERTEX
  8
0
 10
2.96272
 20
3.67492
 30
0.0
 40
0
 41
0
  0
VERTEX
  8
0
 10
2.98546
 20
3.82383
 30
0.0
 40
0
 41
0
  0
VERTEX
  8
0
 10
3.0224
 20
3.96761
 30
0.0
 40
0
 41
0
  0
VERTEX
  8
0
 10
3.07286
 20
4.10542
 30
0.0
 40
0
 41
0
  0
VERTEX
  8
0
 10
3.13601
 20
4.23654
 30
0.0
 40
0
 41
0
  0
VERTEX
  8
0
 10
3.21115
 20
4.36025
 30
0.0
 40
0
 41
0
  0
VERTEX
  8
0
 10
3.29753
 20
4.47569
 30
0.0
 40
0
 41
0
  0
VERTEX
  8
0
 10
3.39432
 20
4.58219
 30
0.0
 40
0
 41
0
  0
VERTEX
  8
0
 10
3.50088
 20
4.67904
 30
0.0
 40
0
 41
0
  0
VERTEX
  8
0
 10
3.61632
 20
4.7654
 30
0.0
 40
0
 41
0
  0
VERTEX
  8
0
 10
3.74001
 20
4.8405
 30
0.0
 40
0
 41
0
  0
VERTEX
  8
0
 10
3.8711
 20
4.90369
 30
0.0
 40
0
 41
0
  0
VERTEX
  8
0
 10
4.00896
 20
4.9541
 30
0.0
 40
0
 41
0
  0
VERTEX
  8
0
 10
4.15267
 20
4.9911
 30
0.0
 40
0
 41
0
  0
VERTEX
  8
0
 10
4.30165
 20
5.01383
 30
0.0
 40
0
 41
0
  0
VERTEX
  8
0
 10
4.41667
 20
5.02154
 30
0.0
 40
0
 41
0
  0
VERTEX
  8
0
 10
4.45503
 20
5.02154
 30
0.0
 40
0
 41
0
  0
SEQEND
 8
0
  0
POLYLINE
  8
0
 62
     0
 66
     1
 10
0
 20
0
 30
0.0
 70
     1
 40
0
 41
0
  0
VERTEX
  8
0
 10
5.36208
 20
1.24886
 30
0.0
 40
0
 41
0
  0
VERTEX
  8
0
 10
5.37147
 20
1.24886
 30
0.0
 40
0
 41
0
  0
VERTEX
  8
0
 10
5.39974
 20
1.24127
 30
0.0
 40
0
 41
0
  0
VERTEX
  8
0
 10
5.43044
 20
1.22054
 30
0.0
 40
0
 41
0
  0
VERTEX
  8
0
 10
5.45117
 20
1.18978
 30
0.0
 40
0
 41
0
  0
VERTEX
  8
0
 10
5.45882
 20
1.16151
 30
0.0
 40
0
 41
0
  0
VERTEX
  8
0
 10
5.45882
 20
1.15207
 30
0.0
 40
0
 41
0
  0
VERTEX
  8
0
 10
5.45882
 20
1.14269
 30
0.0
 40
0
 41
0
  0
VERTEX
  8
0
 10
5.45117
 20
1.11442
 30
0.0
 40
0
 41
0
  0
VERTEX
  8
0
 10
5.43044
 20
1.08371
 30
0.0
 40
0
 41
0
  0
VERTEX
  8
0
 10
5.39974
 20
1.06299
 30
0.0
 40
0
 41
0
  0
VERTEX
  8
0
 10
5.37147
 20
1.05534
 30
0.0
 40
0
 41
0
  0
VERTEX
  8
0
 10
5.36208
 20
1.05534
 30
0.0
 40
0
 41
0
  0
VERTEX
  8
0
 10
5.35265
 20
1.05534
 30
0.0
 40
0
 41
0
  0
VERTEX
  8
0
 10
5.32438
 20
1.06299
 30
0.0
 40
0
 41
0
  0
VERTEX
  8
0
 10
5.29368
 20
1.08371
 30
0.0
 40
0
 41
0
  0
VERTEX
  8
0
 10
5.27294
 20
1.11442
 30
0.0
 40
0
 41
0
  0
VERTEX
  8
0
 10
5.26535
 20
1.14269
 30
0.0
 40
0
 41
0
  0
VERTEX
  8
0
 10
5.26535
 20
1.15207
 30
0.0
 40
0
 41
0
  0
VERTEX
  8
0
 10
5.26535
 20
1.16151
 30
0.0
 40
0
 41
0
  0
VERTEX
  8
0
 10
5.27294
 20
1.18978
 30
0.0
 40
0
 41
0
  0
VERTEX
  8
0
 10
5.29368
 20
1.22054
 30
0.0
 40
0
 41
0
  0
VERTEX
  8
0
 10
5.32438
 20
1.24127
 30
0.0
 40
0
 41
0
  0
VERTEX
  8
0
 10
5.35265
 20
1.24886
 30
0.0
 40
0
 41
0
  0
VERTEX
  8
0
 10
5.36208
 20
1.24886
 30
0.0
 40
0
 41
0
  0
SEQEND
 8
0
  0
POLYLINE
  8
0
 62
     0
 66
     1
 10
0
 20
0
 30
0.0
 70
     1
 40
0
 41
0
  0
VERTEX
  8
0
 10
3.23708
 20
1.24886
 30
0.0
 40
0
 41
0
  0
VERTEX
  8
0
 10
3.24647
 20
1.24886
 30
0.0
 40
0
 41
0
  0
VERTEX
  8
0
 10
3.27474
 20
1.24127
 30
0.0
 40
0
 41
0
  0
VERTEX
  8
0
 10
3.30544
 20
1.22054
 30
0.0
 40
0
 41
0
  0
VERTEX
  8
0
 10
3.32617
 20
1.18978
 30
0.0
 40
0
 41
0
  0
VERTEX
  8
0
 10
3.33382
 20
1.16151
 30
0.0
 40
0
 41
0
  0
VERTEX
  8
0
 10
3.33382
 20
1.15207
 30
0.0
 40
0
 41
0
  0
VERTEX
  8
0
 10
3.33382
 20
1.14269
 30
0.0
 40
0
 41
0
  0
VERTEX
  8
0
 10
3.32617
 20
1.11442
 30
0.0
 40
0
 41
0
  0
VERTEX
  8
0
 10
3.30544
 20
1.08371
 30
0.0
 40
0
 41
0
  0
VERTEX
  8
0
 10
3.27474
 20
1.06299
 30
0.0
 40
0
 41
0
  0
VERTEX
  8
0
 10
3.24647
 20
1.05534
 30
0.0
 40
0
 41
0
  0
VERTEX
  8
0
 10
3.23708
 20
1.05534
 30
0.0
 40
0
 41
0
  0
VERTEX
  8
0
 10
3.22765
 20
1.05534
 30
0.0
 40
0
 41
0
  0
VERTEX
  8
0
 10
3.19937
 20
1.06299
 30
0.0
 40
0
 41
0
  0
VERTEX
  8
0
 10
3.16868
 20
1.08371
 30
0.0
 40
0
 41
0
  0
VERTEX
  8
0
 10
3.14794
 20
1.11442
 30
0.0
 40
0
 41
0
  0
VERTEX
  8
0
 10
3.14035
 20
1.14269
 30
0.0
 40
0
 41
0
  0
VERTEX
  8
0
 10
3.14035
 20
1.15207
 30
0.0
 40
0
 41
0
  0
VERTEX
  8
0
 10
3.14035
 20
1.16151
 30
0.0
 40
0
 41
0
  0
VERTEX
  8
0
 10
3.14794
 20
1.18978
 30
0.0
 40
0
 41
0
  0
VERTEX
  8
0
 10
3.16868
 20
1.22054
 30
0.0
 40
0
 41
0
  0
VERTEX
  8
0
 10
3.19937
 20
1.24127
 30
0.0
 40
0
 41
0
  0
VERTEX
  8
0
 10
3.22765
 20
1.24886
 30
0.0
 40
0
 41
0
  0
VERTEX
  8
0
 10
3.23708
 20
1.24886
 30
0.0
 40
0
 41
0
  0
SEQEND
 8
0
  0
POLYLINE
  8
0
 62
     0
 66
     1
 10
0
 20
0
 30
0.0
 70
     1
 40
0
 41
0
  0
VERTEX
  8
0
 10
8.875
 20
2.07503
 30
0.0
 40
0
 41
0
  0
VERTEX
  8
0
 10
8.88325
 20
2.07503
 30
0.0
 40
0
 41
0
  0
VERTEX
  8
0
 10
8.90799
 20
2.06842
 30
0.0
 40
0
 41
0
  0
VERTEX
  8
0
 10
8.9349
 20
2.05024
 30
0.0
 40
0
 41
0
  0
VERTEX
  8
0
 10
8.95307
 20
2.02333
 30
0.0
 40
0
 41
0
  0
VERTEX
  8
0
 10
8.95975
 20
1.99858
 30
0.0
 40
0
 41
0
  0
VERTEX
  8
0
 10
8.95975
 20
1.99029
 30
0.0
 40
0
 41
0
  0
VERTEX
  8
0
 10
8.95975
 20
1.98204
 30
0.0
 40
0
 41
0
  0
VERTEX
  8
0
 10
8.95307
 20
1.95731
 30
0.0
 40
0
 41
0
  0
VERTEX
  8
0
 10
8.9349
 20
1.93039
 30
0.0
 40
0
 41
0
  0
VERTEX
  8
0
 10
8.90799
 20
1.91222
 30
0.0
 40
0
 41
0
  0
VERTEX
  8
0
 10
8.88325
 20
1.90554
 30
0.0
 40
0
 41
0
  0
VERTEX
  8
0
 10
8.875
 20
1.90554
 30
0.0
 40
0
 41
0
  0
VERTEX
  8
0
 10
8.86669
 20
1.90554
 30
0.0
 40
0
 41
0
  0
VERTEX
  8
0
 10
8.84196
 20
1.91222
 30
0.0
 40
0
 41
0
  0
VERTEX
  8
0
 10
8.81506
 20
1.93039
 30
0.0
 40
0
 41
0
  0
VERTEX
  8
0
 10
8.79688
 20
1.95731
 30
0.0
 40
0
 41
0
  0
VERTEX
  8
0
 10
8.79025
 20
1.98204
 30
0.0
 40
0
 41
0
  0
VERTEX
  8
0
 10
8.79025
 20
1.99029
 30
0.0
 40
0
 41
0
  0
VERTEX
  8
0
 10
8.79025
 20
1.99858
 30
0.0
 40
0
 41
0
  0
VERTEX
  8
0
 10
8.79688
 20
2.02333
 30
0.0
 40
0
 41
0
  0
VERTEX
  8
0
 10
8.81506
 20
2.05024
 30
0.0
 40
0
 41
0
  0
VERTEX
  8
0
 10
8.84196
 20
2.06842
 30
0.0
 40
0
 41
0
  0
VERTEX
  8
0
 10
8.86669
 20
2.07503
 30
0.0
 40
0
 41
0
  0
VERTEX
  8
0
 10
8.875
 20
2.07503
 30
0.0
 40
0
 41
0
  0
SEQEND
 8
0
  0
POLYLINE
  8
0
 62
     0
 66
     1
 10
0
 20
0
 30
0.0
 70
     1
 40
0
 41
0
  0
VERTEX
  8
0
 10
8.375
 20
2.07503
 30
0.0
 40
0
 41
0
  0
VERTEX
  8
0
 10
8.38325
 20
2.07503
 30
0.0
 40
0
 41
0
  0
VERTEX
  8
0
 10
8.40799
 20
2.06842
 30
0.0
 40
0
 41
0
  0
VERTEX
  8
0
 10
8.4349
 20
2.05024
 30
0.0
 40
0
 41
0
  0
VERTEX
  8
0
 10
8.45307
 20
2.02333
 30
0.0
 40
0
 41
0
  0
VERTEX
  8
0
 10
8.45975
 20
1.99858
 30
0.0
 40
0
 41
0
  0
VERTEX
  8
0
 10
8.45975
 20
1.99029
 30
0.0
 40
0
 41
0
  0
VERTEX
  8
0
 10
8.45975
 20
1.98204
 30
0.0
 40
0
 41
0
  0
VERTEX
  8
0
 10
8.45307
 20
1.95731
 30
0.0
 40
0
 41
0
  0
VERTEX
  8
0
 10
8.4349
 20
1.93039
 30
0.0
 40
0
 41
0
  0
VERTEX
  8
0
 10
8.40799
 20
1.91222
 30
0.0
 40
0
 41
0
  0
VERTEX
  8
0
 10
8.38325
 20
1.90554
 30
0.0
 40
0
 41
0
  0
VERTEX
  8
0
 10
8.375
 20
1.90554
 30
0.0
 40
0
 41
0
  0
VERTEX
  8
0
 10
8.36669
 20
1.90554
 30
0.0
 40
0
 41
0
  0
VERTEX
  8
0
 10
8.34196
 20
1.91222
 30
0.0
 40
0
 41
0
  0
VERTEX
  8
0
 10
8.31506
 20
1.93039
 30
0.0
 40
0
 41
0
  0
VERTEX
  8
0
 10
8.29688
 20
1.95731
 30
0.0
 40
0
 41
0
  0
VERTEX
  8
0
 10
8.29025
 20
1.98204
 30
0.0
 40
0
 41
0
  0
VERTEX
  8
0
 10
8.29025
 20
1.99029
 30
0.0
 40
0
 41
0
  0
VERTEX
  8
0
 10
8.29025
 20
1.99858
 30
0.0
 40
0
 41
0
  0
VERTEX
  8
0
 10
8.29688
 20
2.02333
 30
0.0
 40
0
 41
0
  0
VERTEX
  8
0
 10
8.31506
 20
2.05024
 30
0.0
 40
0
 41
0
  0
VERTEX
  8
0
 10
8.34196
 20
2.06842
 30
0.0
 40
0
 41
0
  0
VERTEX
  8
0
 10
8.36669
 20
2.07503
 30
0.0
 40
0
 41
0
  0
VERTEX
  8
0
 10
8.375
 20
2.07503
 30
0.0
 40
0
 41
0
  0
SEQEND
 8
0
  0
POLYLINE
  8
0
 62
     0
 66
     1
 10
0
 20
0
 30
0.0
 70
     1
 40
0
 41
0
  0
VERTEX
  8
0
 10
8.875
 20
11.575
 30
0.0
 40
0
 41
0
  0
VERTEX
  8
0
 10
8.88325
 20
11.575
 30
0.0
 40
0
 41
0
  0
VERTEX
  8
0
 10
8.90799
 20
11.5684
 30
0.0
 40
0
 41
0
  0
VERTEX
  8
0
 10
8.9349
 20
11.5502
 30
0.0
 40
0
 41
0
  0
VERTEX
  8
0
 10
8.95307
 20
11.5233
 30
0.0
 40
0
 41
0
  0
VERTEX
  8
0
 10
8.95975
 20
11.4986
 30
0.0
 40
0
 41
0
  0
VERTEX
  8
0
 10
8.95975
 20
11.4903
 30
0.0
 40
0
 41
0
  0
VERTEX
  8
0
 10
8.95975
 20
11.482
 30
0.0
 40
0
 41
0
  0
VERTEX
  8
0
 10
8.95307
 20
11.4573
 30
0.0
 40
0
 41
0
  0
VERTEX
  8
0
 10
8.9349
 20
11.4304
 30
0.0
 40
0
 41
0
  0
VERTEX
  8
0
 10
8.90799
 20
11.4122
 30
0.0
 40
0
 41
0
  0
VERTEX
  8
0
 10
8.88325
 20
11.4055
 30
0.0
 40
0
 41
0
  0
VERTEX
  8
0
 10
8.875
 20
11.4055
 30
0.0
 40
0
 41
0
  0
VERTEX
  8
0
 10
8.86669
 20
11.4055
 30
0.0
 40
0
 41
0
  0
VERTEX
  8
0
 10
8.84196
 20
11.4122
 30
0.0
 40
0
 41
0
  0
VERTEX
  8
0
 10
8.81506
 20
11.4304
 30
0.0
 40
0
 41
0
  0
VERTEX
  8
0
 10
8.79688
 20
11.4573
 30
0.0
 40
0
 41
0
  0
VERTEX
  8
0
 10
8.79025
 20
11.482
 30
0.0
 40
0
 41
0
  0
VERTEX
  8
0
 10
8.79025
 20
11.4903
 30
0.0
 40
0
 41
0
  0
VERTEX
  8
0
 10
8.79025
 20
11.4986
 30
0.0
 40
0
 41
0
  0
VERTEX
  8
0
 10
8.79688
 20
11.5233
 30
0.0
 40
0
 41
0
  0
VERTEX
  8
0
 10
8.81506
 20
11.5502
 30
0.0
 40
0
 41
0
  0
VERTEX
  8
0
 10
8.84196
 20
11.5684
 30
0.0
 40
0
 41
0
  0
VERTEX
  8
0
 10
8.86669
 20
11.575
 30
0.0
 40
0
 41
0
  0
VERTEX
  8
0
 10
8.875
 20
11.575
 30
0.0
 40
0
 41
0
  0
SEQEND
 8
0
  0
POLYLINE
  8
0
 62
     0
 66
     1
 10
0
 20
0
 30
0.0
 70
     1
 40
0
 41
0
  0
VERTEX
  8
0
 10
8.375
 20
11.575
 30
0.0
 40
0
 41
0
  0
VERTEX
  8
0
 10
8.38325
 20
11.575
 30
0.0
 40
0
 41
0
  0
VERTEX
  8
0
 10
8.40799
 20
11.5684
 30
0.0
 40
0
 41
0
  0
VERTEX
  8
0
 10
8.4349
 20
11.5502
 30
0.0
 40
0
 41
0
  0
VERTEX
  8
0
 10
8.45307
 20
11.5233
 30
0.0
 40
0
 41
0
  0
VERTEX
  8
0
 10
8.45975
 20
11.4986
 30
0.0
 40
0
 41
0
  0
VERTEX
  8
0
 10
8.45975
 20
11.4903
 30
0.0
 40
0
 41
0
  0
VERTEX
  8
0
 10
8.45975
 20
11.482
 30
0.0
 40
0
 41
0
  0
VERTEX
  8
0
 10
8.45307
 20
11.4573
 30
0.0
 40
0
 41
0
  0
VERTEX
  8
0
 10
8.4349
 20
11.4304
 30
0.0
 40
0
 41
0
  0
VERTEX
  8
0
 10
8.40799
 20
11.4122
 30
0.0
 40
0
 41
0
  0
VERTEX
  8
0
 10
8.38325
 20
11.4055
 30
0.0
 40
0
 41
0
  0
VERTEX
  8
0
 10
8.375
 20
11.4055
 30
0.0
 40
0
 41
0
  0
VERTEX
  8
0
 10
8.36669
 20
11.4055
 30
0.0
 40
0
 41
0
  0
VERTEX
  8
0
 10
8.34196
 20
11.4122
 30
0.0
 40
0
 41
0
  0
VERTEX
  8
0
 10
8.31506
 20
11.4304
 30
0.0
 40
0
 41
0
  0
VERTEX
  8
0
 10
8.29688
 20
11.4573
 30
0.0
 40
0
 41
0
  0
VERTEX
  8
0
 10
8.29025
 20
11.482
 30
0.0
 40
0
 41
0
  0
VERTEX
  8
0
 10
8.29025
 20
11.4903
 30
0.0
 40
0
 41
0
  0
VERTEX
  8
0
 10
8.29025
 20
11.4986
 30
0.0
 40
0
 41
0
  0
VERTEX
  8
0
 10
8.29688
 20
11.5233
 30
0.0
 40
0
 41
0
  0
VERTEX
  8
0
 10
8.31506
 20
11.5502
 30
0.0
 40
0
 41
0
  0
VERTEX
  8
0
 10
8.34196
 20
11.5684
 30
0.0
 40
0
 41
0
  0
VERTEX
  8
0
 10
8.36669
 20
11.575
 30
0.0
 40
0
 41
0
  0
VERTEX
  8
0
 10
8.375
 20
11.575
 30
0.0
 40
0
 41
0
  0
SEQEND
 8
0
  0
POLYLINE
  8
0
 62
     0
 66
     1
 10
0
 20
0
 30
0.0
 70
     1
 40
0
 41
0
  0
VERTEX
  8
0
 10
8.875
 20
12.7548
 30
0.0
 40
0
 41
0
  0
VERTEX
  8
0
 10
8.88857
 20
12.7548
 30
0.0
 40
0
 41
0
  0
VERTEX
  8
0
 10
8.92925
 20
12.7438
 30
0.0
 40
0
 41
0
  0
VERTEX
  8
0
 10
8.97364
 20
12.7139
 30
0.0
 40
0
 41
0
  0
VERTEX
  8
0
 10
9.00347
 20
12.6696
 30
0.0
 40
0
 41
0
  0
VERTEX
  8
0
 10
9.01449
 20
12.6289
 30
0.0
 40
0
 41
0
  0
VERTEX
  8
0
 10
9.01449
 20
12.6153
 30
0.0
 40
0
 41
0
  0
VERTEX
  8
0
 10
9.01449
 20
12.6017
 30
0.0
 40
0
 41
0
  0
VERTEX
  8
0
 10
9.00347
 20
12.561
 30
0.0
 40
0
 41
0
  0
VERTEX
  8
0
 10
8.97364
 20
12.5167
 30
0.0
 40
0
 41
0
  0
VERTEX
  8
0
 10
8.92925
 20
12.4868
 30
0.0
 40
0
 41
0
  0
VERTEX
  8
0
 10
8.88857
 20
12.4758
 30
0.0
 40
0
 41
0
  0
VERTEX
  8
0
 10
8.875
 20
12.4758
 30
0.0
 40
0
 41
0
  0
VERTEX
  8
0
 10
8.86139
 20
12.4758
 30
0.0
 40
0
 41
0
  0
VERTEX
  8
0
 10
8.82069
 20
12.4868
 30
0.0
 40
0
 41
0
  0
VERTEX
  8
0
 10
8.77636
 20
12.5167
 30
0.0
 40
0
 41
0
  0
VERTEX
  8
0
 10
8.74647
 20
12.561
 30
0.0
 40
0
 41
0
  0
VERTEX
  8
0
 10
8.73551
 20
12.6017
 30
0.0
 40
0
 41
0
  0
VERTEX
  8
0
 10
8.73551
 20
12.6153
 30
0.0
 40
0
 41
0
  0
VERTEX
  8
0
 10
8.73551
 20
12.6289
 30
0.0
 40
0
 41
0
  0
VERTEX
  8
0
 10
8.74647
 20
12.6696
 30
0.0
 40
0
 41
0
  0
VERTEX
  8
0
 10
8.77636
 20
12.7139
 30
0.0
 40
0
 41
0
  0
VERTEX
  8
0
 10
8.82069
 20
12.7438
 30
0.0
 40
0
 41
0
  0
VERTEX
  8
0
 10
8.86139
 20
12.7548
 30
0.0
 40
0
 41
0
  0
VERTEX
  8
0
 10
8.875
 20
12.7548
 30
0.0
 40
0
 41
0
  0
SEQEND
 8
0
  0
POLYLINE
  8
0
 62
     0
 66
     1
 10
0
 20
0
 30
0.0
 70
     1
 40
0
 41
0
  0
VERTEX
  8
0
 10
0.967503
 20
3.27453
 30
0.0
 40
0
 41
0
  0
VERTEX
  8
0
 10
0.976887
 20
3.27453
 30
0.0
 40
0
 41
0
  0
VERTEX
  8
0
 10
1.00515
 20
3.26693
 30
0.0
 40
0
 41
0
  0
VERTEX
  8
0
 10
1.03586
 20
3.24621
 30
0.0
 40
0
 41
0
  0
VERTEX
  8
0
 10
1.05659
 20
3.2155
 30
0.0
 40
0
 41
0
  0
VERTEX
  8
0
 10
1.06424
 20
3.18722
 30
0.0
 40
0
 41
0
  0
VERTEX
  8
0
 10
1.06424
 20
3.17779
 30
0.0
 40
0
 41
0
  0
VERTEX
  8
0
 10
1.06424
 20
3.1684
 30
0.0
 40
0
 41
0
  0
VERTEX
  8
0
 10
1.05659
 20
3.14014
 30
0.0
 40
0
 41
0
  0
VERTEX
  8
0
 10
1.03586
 20
3.10943
 30
0.0
 40
0
 41
0
  0
VERTEX
  8
0
 10
1.00515
 20
3.08871
 30
0.0
 40
0
 41
0
  0
VERTEX
  8
0
 10
0.976887
 20
3.08106
 30
0.0
 40
0
 41
0
  0
VERTEX
  8
0
 10
0.967503
 20
3.08106
 30
0.0
 40
0
 41
0
  0
VERTEX
  8
0
 10
0.958062
 20
3.08106
 30
0.0
 40
0
 41
0
  0
VERTEX
  8
0
 10
0.929796
 20
3.08871
 30
0.0
 40
0
 41
0
  0
VERTEX
  8
0
 10
0.899089
 20
3.10943
 30
0.0
 40
0
 41
0
  0
VERTEX
  8
0
 10
0.878364
 20
3.14014
 30
0.0
 40
0
 41
0
  0
VERTEX
  8
0
 10
0.870768
 20
3.1684
 30
0.0
 40
0
 41
0
  0
VERTEX
  8
0
 10
0.870768
 20
3.17779
 30
0.0
 40
0
 41
0
  0
VERTEX
  8
0
 10
0.870768
 20
3.18722
 30
0.0
 40
0
 41
0
  0
VERTEX
  8
0
 10
0.878364
 20
3.2155
 30
0.0
 40
0
 41
0
  0
VERTEX
  8
0
 10
0.899089
 20
3.24621
 30
0.0
 40
0
 41
0
  0
VERTEX
  8
0
 10
0.929796
 20
3.26693
 30
0.0
 40
0
 41
0
  0
VERTEX
  8
0
 10
0.958062
 20
3.27453
 30
0.0
 40
0
 41
0
  0
VERTEX
  8
0
 10
0.967503
 20
3.27453
 30
0.0
 40
0
 41
0
  0
SEQEND
 8
0
  0
POLYLINE
  8
0
 62
     0
 66
     1
 10
0
 20
0
 30
0.0
 70
     1
 40
0
 41
0
  0
VERTEX
  8
0
 10
0.967503
 20
1.18506
 30
0.0
 40
0
 41
0
  0
VERTEX
  8
0
 10
0.976887
 20
1.18506
 30
0.0
 40
0
 41
0
  0
VERTEX
  8
0
 10
1.00515
 20
1.17746
 30
0.0
 40
0
 41
0
  0
VERTEX
  8
0
 10
1.03586
 20
1.15674
 30
0.0
 40
0
 41
0
  0
VERTEX
  8
0
 10
1.05659
 20
1.12603
 30
0.0
 40
0
 41
0
  0
VERTEX
  8
0
 10
1.06424
 20
1.09777
 30
0.0
 40
0
 41
0
  0
VERTEX
  8
0
 10
1.06424
 20
1.08832
 30
0.0
 40
0
 41
0
  0
VERTEX
  8
0
 10
1.06424
 20
1.07894
 30
0.0
 40
0
 41
0
  0
VERTEX
  8
0
 10
1.05659
 20
1.05067
 30
0.0
 40
0
 41
0
  0
VERTEX
  8
0
 10
1.03586
 20
1.01991
 30
0.0
 40
0
 41
0
  0
VERTEX
  8
0
 10
1.00515
 20
0.999186
 30
0.0
 40
0
 41
0
  0
VERTEX
  8
0
 10
0.976887
 20
0.991536
 30
0.0
 40
0
 41
0
  0
VERTEX
  8
0
 10
0.967503
 20
0.991536
 30
0.0
 40
0
 41
0
  0
VERTEX
  8
0
 10
0.958062
 20
0.991536
 30
0.0
 40
0
 41
0
  0
VERTEX
  8
0
 10
0.929796
 20
0.999186
 30
0.0
 40
0
 41
0
  0
VERTEX
  8
0
 10
0.899089
 20
1.01991
 30
0.0
 40
0
 41
0
  0
VERTEX
  8
0
 10
0.878364
 20
1.05067
 30
0.0
 40
0
 41
0
  0
VERTEX
  8
0
 10
0.870768
 20
1.07894
 30
0.0
 40
0
 41
0
  0
VERTEX
  8
0
 10
0.870768
 20
1.08832
 30
0.0
 40
0
 41
0
  0
VERTEX
  8
0
 10
0.870768
 20
1.09777
 30
0.0
 40
0
 41
0
  0
VERTEX
  8
0
 10
0.878364
 20
1.12603
 30
0.0
 40
0
 41
0
  0
VERTEX
  8
0
 10
0.899089
 20
1.15674
 30
0.0
 40
0
 41
0
  0
VERTEX
  8
0
 10
0.929796
 20
1.17746
 30
0.0
 40
0
 41
0
  0
VERTEX
  8
0
 10
0.958062
 20
1.18506
 30
0.0
 40
0
 41
0
  0
VERTEX
  8
0
 10
0.967503
 20
1.18506
 30
0.0
 40
0
 41
0
  0
SEQEND
 8
0
  0
POLYLINE
  8
0
 62
     0
 66
     1
 10
0
 20
0
 30
0.0
 70
     1
 40
0
 41
0
  0
VERTEX
  8
0
 10
7.22499
 20
10.8028
 30
0.0
 40
0
 41
0
  0
VERTEX
  8
0
 10
7.23107
 20
10.8028
 30
0.0
 40
0
 41
0
  0
VERTEX
  8
0
 10
7.24929
 20
10.7979
 30
0.0
 40
0
 41
0
  0
VERTEX
  8
0
 10
7.26915
 20
10.7845
 30
0.0
 40
0
 41
0
  0
VERTEX
  8
0
 10
7.28256
 20
10.7647
 30
0.0
 40
0
 41
0
  0
VERTEX
  8
0
 10
7.28749
 20
10.7464
 30
0.0
 40
0
 41
0
  0
VERTEX
  8
0
 10
7.28749
 20
10.7403
 30
0.0
 40
0
 41
0
  0
VERTEX
  8
0
 10
7.28749
 20
10.7342
 30
0.0
 40
0
 41
0
  0
VERTEX
  8
0
 10
7.28256
 20
10.716
 30
0.0
 40
0
 41
0
  0
VERTEX
  8
0
 10
7.26915
 20
10.6961
 30
0.0
 40
0
 41
0
  0
VERTEX
  8
0
 10
7.24929
 20
10.6827
 30
0.0
 40
0
 41
0
  0
VERTEX
  8
0
 10
7.23107
 20
10.6778
 30
0.0
 40
0
 41
0
  0
VERTEX
  8
0
 10
7.22499
 20
10.6778
 30
0.0
 40
0
 41
0
  0
VERTEX
  8
0
 10
7.21886
 20
10.6778
 30
0.0
 40
0
 41
0
  0
VERTEX
  8
0
 10
7.20063
 20
10.6827
 30
0.0
 40
0
 41
0
  0
VERTEX
  8
0
 10
7.18078
 20
10.6961
 30
0.0
 40
0
 41
0
  0
VERTEX
  8
0
 10
7.16738
 20
10.716
 30
0.0
 40
0
 41
0
  0
VERTEX
  8
0
 10
7.16249
 20
10.7342
 30
0.0
 40
0
 41
0
  0
VERTEX
  8
0
 10
7.16249
 20
10.7403
 30
0.0
 40
0
 41
0
  0
VERTEX
  8
0
 10
7.16249
 20
10.7464
 30
0.0
 40
0
 41
0
  0
VERTEX
  8
0
 10
7.16738
 20
10.7647
 30
0.0
 40
0
 41
0
  0
VERTEX
  8
0
 10
7.18078
 20
10.7845
 30
0.0
 40
0
 41
0
  0
VERTEX
  8
0
 10
7.20063
 20
10.7979
 30
0.0
 40
0
 41
0
  0
VERTEX
  8
0
 10
7.21886
 20
10.8028
 30
0.0
 40
0
 41
0
  0
VERTEX
  8
0
 10
7.22499
 20
10.8028
 30
0.0
 40
0
 41
0
  0
SEQEND
 8
0
  0
POLYLINE
  8
0
 62
     0
 66
     1
 10
0
 20
0
 30
0.0
 70
     1
 40
0
 41
0
  0
VERTEX
  8
0
 10
7.22499
 20
6.49029
 30
0.0
 40
0
 41
0
  0
VERTEX
  8
0
 10
7.23107
 20
6.49029
 30
0.0
 40
0
 41
0
  0
VERTEX
  8
0
 10
7.24929
 20
6.4854
 30
0.0
 40
0
 41
0
  0
VERTEX
  8
0
 10
7.26915
 20
6.472
 30
0.0
 40
0
 41
0
  0
VERTEX
  8
0
 10
7.28256
 20
6.45215
 30
0.0
 40
0
 41
0
  0
VERTEX
  8
0
 10
7.28749
 20
6.43392
 30
0.0
 40
0
 41
0
  0
VERTEX
  8
0
 10
7.28749
 20
6.42779
 30
0.0
 40
0
 41
0
  0
VERTEX
  8
0
 10
7.28749
 20
6.42171
 30
0.0
 40
0
 41
0
  0
VERTEX
  8
0
 10
7.28256
 20
6.40349
 30
0.0
 40
0
 41
0
  0
VERTEX
  8
0
 10
7.26915
 20
6.38363
 30
0.0
 40
0
 41
0
  0
VERTEX
  8
0
 10
7.24929
 20
6.37022
 30
0.0
 40
0
 41
0
  0
VERTEX
  8
0
 10
7.23107
 20
6.36529
 30
0.0
 40
0
 41
0
  0
VERTEX
  8
0
 10
7.22499
 20
6.36529
 30
0.0
 40
0
 41
0
  0
VERTEX
  8
0
 10
7.21886
 20
6.36529
 30
0.0
 40
0
 41
0
  0
VERTEX
  8
0
 10
7.20063
 20
6.37022
 30
0.0
 40
0
 41
0
  0
VERTEX
  8
0
 10
7.18078
 20
6.38363
 30
0.0
 40
0
 41
0
  0
VERTEX
  8
0
 10
7.16738
 20
6.40349
 30
0.0
 40
0
 41
0
  0
VERTEX
  8
0
 10
7.16249
 20
6.42171
 30
0.0
 40
0
 41
0
  0
VERTEX
  8
0
 10
7.16249
 20
6.42779
 30
0.0
 40
0
 41
0
  0
VERTEX
  8
0
 10
7.16249
 20
6.43392
 30
0.0
 40
0
 41
0
  0
VERTEX
  8
0
 10
7.16738
 20
6.45215
 30
0.0
 40
0
 41
0
  0
VERTEX
  8
0
 10
7.18078
 20
6.472
 30
0.0
 40
0
 41
0
  0
VERTEX
  8
0
 10
7.20063
 20
6.4854
 30
0.0
 40
0
 41
0
  0
VERTEX
  8
0
 10
7.21886
 20
6.49029
 30
0.0
 40
0
 41
0
  0
VERTEX
  8
0
 10
7.22499
 20
6.49029
 30
0.0
 40
0
 41
0
  0
SEQEND
 8
0
  0
POLYLINE
  8
0
 62
     0
 66
     1
 10
0
 20
0
 30
0.0
 70
     1
 40
0
 41
0
  0
VERTEX
  8
0
 10
7.22499
 20
2.17779
 30
0.0
 40
0
 41
0
  0
VERTEX
  8
0
 10
7.23107
 20
2.17779
 30
0.0
 40
0
 41
0
  0
VERTEX
  8
0
 10
7.24929
 20
2.1729
 30
0.0
 40
0
 41
0
  0
VERTEX
  8
0
 10
7.26915
 20
2.1595
 30
0.0
 40
0
 41
0
  0
VERTEX
  8
0
 10
7.28256
 20
2.13965
 30
0.0
 40
0
 41
0
  0
VERTEX
  8
0
 10
7.28749
 20
2.12142
 30
0.0
 40
0
 41
0
  0
VERTEX
  8
0
 10
7.28749
 20
2.11529
 30
0.0
 40
0
 41
0
  0
VERTEX
  8
0
 10
7.28749
 20
2.10921
 30
0.0
 40
0
 41
0
  0
VERTEX
  8
0
 10
7.28256
 20
2.09099
 30
0.0
 40
0
 41
0
  0
VERTEX
  8
0
 10
7.26915
 20
2.07113
 30
0.0
 40
0
 41
0
  0
VERTEX
  8
0
 10
7.24929
 20
2.05772
 30
0.0
 40
0
 41
0
  0
VERTEX
  8
0
 10
7.23107
 20
2.05279
 30
0.0
 40
0
 41
0
  0
VERTEX
  8
0
 10
7.22499
 20
2.05279
 30
0.0
 40
0
 41
0
  0
VERTEX
  8
0
 10
7.21886
 20
2.05279
 30
0.0
 40
0
 41
0
  0
VERTEX
  8
0
 10
7.20063
 20
2.05772
 30
0.0
 40
0
 41
0
  0
VERTEX
  8
0
 10
7.18078
 20
2.07113
 30
0.0
 40
0
 41
0
  0
VERTEX
  8
0
 10
7.16738
 20
2.09099
 30
0.0
 40
0
 41
0
  0
VERTEX
  8
0
 10
7.16249
 20
2.10921
 30
0.0
 40
0
 41
0
  0
VERTEX
  8
0
 10
7.16249
 20
2.11529
 30
0.0
 40
0
 41
0
  0
VERTEX
  8
0
 10
7.16249
 20
2.12142
 30
0.0
 40
0
 41
0
  0
VERTEX
  8
0
 10
7.16738
 20
2.13965
 30
0.0
 40
0
 41
0
  0
VERTEX
  8
0
 10
7.18078
 20
2.1595
 30
0.0
 40
0
 41
0
  0
VERTEX
  8
0
 10
7.20063
 20
2.1729
 30
0.0
 40
0
 41
0
  0
VERTEX
  8
0
 10
7.21886
 20
2.17779
 30
0.0
 40
0
 41
0
  0
VERTEX
  8
0
 10
7.22499
 20
2.17779
 30
0.0
 40
0
 41
0
  0
SEQEND
 8
0
  0
POLYLINE
  8
0
 62
     0
 66
     1
 10
0
 20
0
 30
0.0
 70
     1
 40
0
 41
0
  0
VERTEX
  8
0
 10
15.0982
 20
13.6467
 30
0.0
 40
0
 41
0
  0
VERTEX
  8
0
 10
14.9568
 20
13.7023
 30
0.0
 40
0
 41
0
  0
VERTEX
  8
0
 10
14.5436
 20
13.8974
 30
0.0
 40
0
 41
0
  0
VERTEX
  8
0
 10
14.0186
 20
14.2021
 30
0.0
 40
0
 41
0
  0
VERTEX
  8
0
 10
13.527
 20
14.5582
 30
0.0
 40
0
 41
0
  0
VERTEX
  8
0
 10
13.1809
 20
14.8565
 30
0.0
 40
0
 41
0
  0
VERTEX
  8
0
 10
13.0728
 20
14.9632
 30
0.0
 40
0
 41
0
  0
VERTEX
  8
0
 10
13.0665
 20
14.9694
 30
0.0
 40
0
 41
0
  0
VERTEX
  8
0
 10
13.0065
 20
15.0354
 30
0.0
 40
0
 41
0
  0
VERTEX
  8
0
 10
13.0008
 20
15.0424
 30
0.0
 40
0
 41
0
  0
VERTEX
  8
0
 10
10.8854
 20
17.6332
 30
0.0
 40
0
 41
0
  0
VERTEX
  8
0
 10
10.8038
 20
17.7332
 30
0.0
 40
0
 41
0
  0
VERTEX
  8
0
 10
10.5762
 20
18.0471
 30
0.0
 40
0
 41
0
  0
VERTEX
  8
0
 10
10.3051
 20
18.4836
 30
0.0
 40
0
 41
0
  0
VERTEX
  8
0
 10
10.0732
 20
18.94
 30
0.0
 40
0
 41
0
  0
VERTEX
  8
0
 10
9.88129
 20
19.4136
 30
0.0
 40
0
 41
0
  0
VERTEX
  8
0
 10
9.73042
 20
19.9019
 30
0.0
 40
0
 41
0
  0
VERTEX
  8
0
 10
9.62142
 20
20.4021
 30
0.0
 40
0
 41
0
  0
VERTEX
  8
0
 10
9.55533
 20
20.9117
 30
0.0
 40
0
 41
0
  0
VERTEX
  8
0
 10
9.53315
 20
21.2988
 30
0.0
 40
0
 41
0
  0
VERTEX
  8
0
 10
9.53315
 20
21.4278
 30
0.0
 40
0
 41
0
  0
VERTEX
  8
0
 10
9.53315
 20
22.4133
 30
0.0
 40
0
 41
0
  0
VERTEX
  8
0
 10
10.9956
 20
22.4133
 30
0.0
 40
0
 41
0
  0
VERTEX
  8
0
 10
11.0078
 20
22.4133
 30
0.0
 40
0
 41
0
  0
VERTEX
  8
0
 10
11.0443
 20
22.4231
 30
0.0
 40
0
 41
0
  0
VERTEX
  8
0
 10
11.084
 20
22.4499
 30
0.0
 40
0
 41
0
  0
VERTEX
  8
0
 10
11.1108
 20
22.4896
 30
0.0
 40
0
 41
0
  0
VERTEX
  8
0
 10
11.1206
 20
22.5261
 30
0.0
 40
0
 41
0
  0
VERTEX
  8
0
 10
11.1206
 20
22.5383
 30
0.0
 40
0
 41
0
  0
VERTEX
  8
0
 10
11.1206
 20
29.3172
 30
0.0
 40
0
 41
0
  0
VERTEX
  8
0
 10
11.1206
 20
29.3294
 30
0.0
 40
0
 41
0
  0
VERTEX
  8
0
 10
11.1108
 20
29.366
 30
0.0
 40
0
 41
0
  0
VERTEX
  8
0
 10
11.084
 20
29.4057
 30
0.0
 40
0
 41
0
  0
VERTEX
  8
0
 10
11.0443
 20
29.4325
 30
0.0
 40
0
 41
0
  0
VERTEX
  8
0
 10
11.0078
 20
29.4422
 30
0.0
 40
0
 41
0
  0
VERTEX
  8
0
 10
10.9956
 20
29.4422
 30
0.0
 40
0
 41
0
  0
VERTEX
  8
0
 10
9.53315
 20
29.4422
 30
0.0
 40
0
 41
0
  0
VERTEX
  8
0
 10
9.53315
 20
30.4278
 30
0.0
 40
0
 41
0
  0
VERTEX
  8
0
 10
9.53315
 20
30.5568
 30
0.0
 40
0
 41
0
  0
VERTEX
  8
0
 10
9.55533
 20
30.9439
 30
0.0
 40
0
 41
0
  0
VERTEX
  8
0
 10
9.62142
 20
31.4535
 30
0.0
 40
0
 41
0
  0
VERTEX
  8
0
 10
9.73042
 20
31.9537
 30
0.0
 40
0
 41
0
  0
VERTEX
  8
0
 10
9.88129
 20
32.4419
 30
0.0
 40
0
 41
0
  0
VERTEX
  8
0
 10
10.0732
 20
32.9157
 30
0.0
 40
0
 41
0
  0
VERTEX
  8
0
 10
10.3051
 20
33.3721
 30
0.0
 40
0
 41
0
  0
VERTEX
  8
0
 10
10.5762
 20
33.8085
 30
0.0
 40
0
 41
0
  0
VERTEX
  8
0
 10
10.8038
 20
34.1224
 30
0.0
 40
0
 41
0
  0
VERTEX
  8
0
 10
10.8854
 20
34.2224
 30
0.0
 40
0
 41
0
  0
VERTEX
  8
0
 10
13.1459
 20
36.9633
 30
0.0
 40
0
 41
0
  0
VERTEX
  8
0
 10
13.2601
 20
37.0724
 30
0.0
 40
0
 41
0
  0
VERTEX
  8
0
 10
13.6258
 20
37.3753
 30
0.0
 40
0
 41
0
  0
VERTEX
  8
0
 10
14.145
 20
37.7335
 30
0.0
 40
0
 41
0
  0
VERTEX
  8
0
 10
14.6989
 20
38.0353
 30
0.0
 40
0
 41
0
  0
VERTEX
  8
0
 10
15.1343
 20
38.225
 30
0.0
 40
0
 41
0
  0
VERTEX
  8
0
 10
15.2832
 20
38.2778
 30
0.0
 40
0
 41
0
  0
VERTEX
  8
0
 10
18.5957
 20
38.2778
 30
0.0
 40
0
 41
0
  0
VERTEX
  8
0
 10
18.5957
 20
13.5778
 30
0.0
 40
0
 41
0
  0
VERTEX
  8
0
 10
15.4633
 20
13.5778
 30
0.0
 40
0
 41
0
  0
VERTEX
  8
0
 10
15.4168
 20
13.5778
 30
0.0
 40
0
 41
0
  0
VERTEX
  8
0
 10
15.2775
 20
13.5952
 30
0.0
 40
0
 41
0
  0
VERTEX
  8
0
 10
15.1272
 20
13.6354
 30
0.0
 40
0
 41
0
  0
VERTEX
  8
0
 10
15.0982
 20
13.6467
 30
0.0
 40
0
 41
0
  0
SEQEND
 8
0
  0
POLYLINE
  8
0
 62
     0
 66
     1
 10
0
 20
0
 30
0.0
 70
     1
 40
0
 41
0
  0
VERTEX
  8
0
 10
17.5957
 20
35.2963
 30
0.0
 40
0
 41
0
  0
VERTEX
  8
0
 10
16.5957
 20
35.2963
 30
0.0
 40
0
 41
0
  0
VERTEX
  8
0
 10
16.5711
 20
35.2963
 30
0.0
 40
0
 41
0
  0
VERTEX
  8
0
 10
16.4976
 20
35.2867
 30
0.0
 40
0
 41
0
  0
VERTEX
  8
0
 10
16.4043
 20
35.2582
 30
0.0
 40
0
 41
0
  0
VERTEX
  8
0
 10
16.3182
 20
35.2124
 30
0.0
 40
0
 41
0
  0
VERTEX
  8
0
 10
16.2594
 20
35.1672
 30
0.0
 40
0
 41
0
  0
VERTEX
  8
0
 10
16.2421
 20
35.1499
 30
0.0
 40
0
 41
0
  0
VERTEX
  8
0
 10
16.2247
 20
35.1325
 30
0.0
 40
0
 41
0
  0
VERTEX
  8
0
 10
16.1796
 20
35.0736
 30
0.0
 40
0
 41
0
  0
VERTEX
  8
0
 10
16.1338
 20
34.9876
 30
0.0
 40
0
 41
0
  0
VERTEX
  8
0
 10
16.1053
 20
34.8943
 30
0.0
 40
0
 41
0
  0
VERTEX
  8
0
 10
16.0957
 20
34.8208
 30
0.0
 40
0
 41
0
  0
VERTEX
  8
0
 10
16.0957
 20
34.7963
 30
0.0
 40
0
 41
0
  0
VERTEX
  8
0
 10
16.0957
 20
31.2963
 30
0.0
 40
0
 41
0
  0
VERTEX
  8
0
 10
16.0957
 20
31.2711
 30
0.0
 40
0
 41
0
  0
VERTEX
  8
0
 10
16.1058
 20
31.1956
 30
0.0
 40
0
 41
0
  0
VERTEX
  8
0
 10
16.1349
 20
31.1017
 30
0.0
 40
0
 41
0
  0
VERTEX
  8
0
 10
16.181
 20
31.0168
 30
0.0
 40
0
 41
0
  0
VERTEX
  8
0
 10
16.2421
 20
30.9428
 30
0.0
 40
0
 41
0
  0
VERTEX
  8
0
 10
16.3161
 20
30.8817
 30
0.0
 40
0
 41
0
  0
VERTEX
  8
0
 10
16.401
 20
30.8356
 30
0.0
 40
0
 41
0
  0
VERTEX
  8
0
 10
16.4949
 20
30.8065
 30
0.0
 40
0
 41
0
  0
VERTEX
  8
0
 10
16.5704
 20
30.7963
 30
0.0
 40
0
 41
0
  0
VERTEX
  8
0
 10
16.5957
 20
30.7963
 30
0.0
 40
0
 41
0
  0
VERTEX
  8
0
 10
17.5957
 20
30.7963
 30
0.0
 40
0
 41
0
  0
VERTEX
  8
0
 10
17.6208
 20
30.7963
 30
0.0
 40
0
 41
0
  0
VERTEX
  8
0
 10
17.6964
 20
30.8065
 30
0.0
 40
0
 41
0
  0
VERTEX
  8
0
 10
17.7901
 20
30.8356
 30
0.0
 40
0
 41
0
  0
VERTEX
  8
0
 10
17.8751
 20
30.8817
 30
0.0
 40
0
 41
0
  0
VERTEX
  8
0
 10
17.9492
 20
30.9428
 30
0.0
 40
0
 41
0
  0
VERTEX
  8
0
 10
18.0101
 20
31.0168
 30
0.0
 40
0
 41
0
  0
VERTEX
  8
0
 10
18.0563
 20
31.1017
 30
0.0
 40
0
 41
0
  0
VERTEX
  8
0
 10
18.0854
 20
31.1956
 30
0.0
 40
0
 41
0
  0
VERTEX
  8
0
 10
18.0957
 20
31.2711
 30
0.0
 40
0
 41
0
  0
VERTEX
  8
0
 10
18.0957
 20
31.2963
 30
0.0
 40
0
 41
0
  0
VERTEX
  8
0
 10
18.0957
 20
34.7963
 30
0.0
 40
0
 41
0
  0
VERTEX
  8
0
 10
18.0957
 20
34.8215
 30
0.0
 40
0
 41
0
  0
VERTEX
  8
0
 10
18.0854
 20
34.8971
 30
0.0
 40
0
 41
0
  0
VERTEX
  8
0
 10
18.0563
 20
34.991
 30
0.0
 40
0
 41
0
  0
VERTEX
  8
0
 10
18.0101
 20
35.0758
 30
0.0
 40
0
 41
0
  0
VERTEX
  8
0
 10
17.9492
 20
35.1499
 30
0.0
 40
0
 41
0
  0
VERTEX
  8
0
 10
17.8751
 20
35.211
 30
0.0
 40
0
 41
0
  0
VERTEX
  8
0
 10
17.7901
 20
35.2569
 30
0.0
 40
0
 41
0
  0
VERTEX
  8
0
 10
17.6964
 20
35.2861
 30
0.0
 40
0
 41
0
  0
VERTEX
  8
0
 10
17.6208
 20
35.2963
 30
0.0
 40
0
 41
0
  0
VERTEX
  8
0
 10
17.5957
 20
35.2963
 30
0.0
 40
0
 41
0
  0
SEQEND
 8
0
  0
POLYLINE
  8
0
 62
     0
 66
     1
 10
0
 20
0
 30
0.0
 70
     1
 40
0
 41
0
  0
VERTEX
  8
0
 10
17.5957
 20
21.0593
 30
0.0
 40
0
 41
0
  0
VERTEX
  8
0
 10
16.5957
 20
21.0593
 30
0.0
 40
0
 41
0
  0
VERTEX
  8
0
 10
16.5704
 20
21.0593
 30
0.0
 40
0
 41
0
  0
VERTEX
  8
0
 10
16.4949
 20
21.0492
 30
0.0
 40
0
 41
0
  0
VERTEX
  8
0
 10
16.401
 20
21.02
 30
0.0
 40
0
 41
0
  0
VERTEX
  8
0
 10
16.3161
 20
20.9739
 30
0.0
 40
0
 41
0
  0
VERTEX
  8
0
 10
16.2421
 20
20.9129
 30
0.0
 40
0
 41
0
  0
VERTEX
  8
0
 10
16.181
 20
20.8389
 30
0.0
 40
0
 41
0
  0
VERTEX
  8
0
 10
16.1349
 20
20.7539
 30
0.0
 40
0
 41
0
  0
VERTEX
  8
0
 10
16.1058
 20
20.6601
 30
0.0
 40
0
 41
0
  0
VERTEX
  8
0
 10
16.0957
 20
20.5846
 30
0.0
 40
0
 41
0
  0
VERTEX
  8
0
 10
16.0957
 20
20.5593
 30
0.0
 40
0
 41
0
  0
VERTEX
  8
0
 10
16.0957
 20
17.0593
 30
0.0
 40
0
 41
0
  0
VERTEX
  8
0
 10
16.0957
 20
17.0349
 30
0.0
 40
0
 41
0
  0
VERTEX
  8
0
 10
16.1053
 20
16.9612
 30
0.0
 40
0
 41
0
  0
VERTEX
  8
0
 10
16.1338
 20
16.8679
 30
0.0
 40
0
 41
0
  0
VERTEX
  8
0
 10
16.1796
 20
16.7819
 30
0.0
 40
0
 41
0
  0
VERTEX
  8
0
 10
16.2247
 20
16.7231
 30
0.0
 40
0
 41
0
  0
VERTEX
  8
0
 10
16.2421
 20
16.7057
 30
0.0
 40
0
 41
0
  0
VERTEX
  8
0
 10
16.2594
 20
16.6885
 30
0.0
 40
0
 41
0
  0
VERTEX
  8
0
 10
16.3182
 20
16.6433
 30
0.0
 40
0
 41
0
  0
VERTEX
  8
0
 10
16.4043
 20
16.5974
 30
0.0
 40
0
 41
0
  0
VERTEX
  8
0
 10
16.4976
 20
16.569
 30
0.0
 40
0
 41
0
  0
VERTEX
  8
0
 10
16.5711
 20
16.5593
 30
0.0
 40
0
 41
0
  0
VERTEX
  8
0
 10
16.5957
 20
16.5593
 30
0.0
 40
0
 41
0
  0
VERTEX
  8
0
 10
17.5957
 20
16.5593
 30
0.0
 40
0
 41
0
  0
VERTEX
  8
0
 10
17.6208
 20
16.5593
 30
0.0
 40
0
 41
0
  0
VERTEX
  8
0
 10
17.6964
 20
16.5694
 30
0.0
 40
0
 41
0
  0
VERTEX
  8
0
 10
17.7901
 20
16.5986
 30
0.0
 40
0
 41
0
  0
VERTEX
  8
0
 10
17.8751
 20
16.6447
 30
0.0
 40
0
 41
0
  0
VERTEX
  8
0
 10
17.9492
 20
16.7058
 30
0.0
 40
0
 41
0
  0
VERTEX
  8
0
 10
18.0101
 20
16.7797
 30
0.0
 40
0
 41
0
  0
VERTEX
  8
0
 10
18.0563
 20
16.8647
 30
0.0
 40
0
 41
0
  0
VERTEX
  8
0
 10
18.0854
 20
16.9586
 30
0.0
 40
0
 41
0
  0
VERTEX
  8
0
 10
18.0957
 20
17.0342
 30
0.0
 40
0
 41
0
  0
VERTEX
  8
0
 10
18.0957
 20
17.0593
 30
0.0
 40
0
 41
0
  0
VERTEX
  8
0
 10
18.0957
 20
20.5593
 30
0.0
 40
0
 41
0
  0
VERTEX
  8
0
 10
18.0957
 20
20.5846
 30
0.0
 40
0
 41
0
  0
VERTEX
  8
0
 10
18.0854
 20
20.6601
 30
0.0
 40
0
 41
0
  0
VERTEX
  8
0
 10
18.0563
 20
20.7539
 30
0.0
 40
0
 41
0
  0
VERTEX
  8
0
 10
18.0101
 20
20.8389
 30
0.0
 40
0
 41
0
  0
VERTEX
  8
0
 10
17.9492
 20
20.9129
 30
0.0
 40
0
 41
0
  0
VERTEX
  8
0
 10
17.8751
 20
20.9739
 30
0.0
 40
0
 41
0
  0
VERTEX
  8
0
 10
17.7901
 20
21.02
 30
0.0
 40
0
 41
0
  0
VERTEX
  8
0
 10
17.6964
 20
21.0492
 30
0.0
 40
0
 41
0
  0
VERTEX
  8
0
 10
17.6208
 20
21.0593
 30
0.0
 40
0
 41
0
  0
VERTEX
  8
0
 10
17.5957
 20
21.0593
 30
0.0
 40
0
 41
0
  0
SEQEND
 8
0
  0
POLYLINE
  8
0
 62
     0
 66
     1
 10
0
 20
0
 30
0.0
 70
     1
 40
0
 41
0
  0
VERTEX
  8
0
 10
17.0957
 20
28.0528
 30
0.0
 40
0
 41
0
  0
VERTEX
  8
0
 10
13.8457
 20
28.0528
 30
0.0
 40
0
 41
0
  0
VERTEX
  8
0
 10
13.8211
 20
28.0528
 30
0.0
 40
0
 41
0
  0
VERTEX
  8
0
 10
13.7476
 20
28.0432
 30
0.0
 40
0
 41
0
  0
VERTEX
  8
0
 10
13.6542
 20
28.0147
 30
0.0
 40
0
 41
0
  0
VERTEX
  8
0
 10
13.5682
 20
27.9688
 30
0.0
 40
0
 41
0
  0
VERTEX
  8
0
 10
13.5094
 20
27.9236
 30
0.0
 40
0
 41
0
  0
VERTEX
  8
0
 10
13.4921
 20
27.9063
 30
0.0
 40
0
 41
0
  0
VERTEX
  8
0
 10
13.4747
 20
27.889
 30
0.0
 40
0
 41
0
  0
VERTEX
  8
0
 10
13.4296
 20
27.8301
 30
0.0
 40
0
 41
0
  0
VERTEX
  8
0
 10
13.3837
 20
27.7442
 30
0.0
 40
0
 41
0
  0
VERTEX
  8
0
 10
13.3553
 20
27.6508
 30
0.0
 40
0
 41
0
  0
VERTEX
  8
0
 10
13.3457
 20
27.5774
 30
0.0
 40
0
 41
0
  0
VERTEX
  8
0
 10
13.3457
 20
27.5528
 30
0.0
 40
0
 41
0
  0
VERTEX
  8
0
 10
13.3457
 20
24.3028
 30
0.0
 40
0
 41
0
  0
VERTEX
  8
0
 10
13.3457
 20
24.2783
 30
0.0
 40
0
 41
0
  0
VERTEX
  8
0
 10
13.3553
 20
24.2049
 30
0.0
 40
0
 41
0
  0
VERTEX
  8
0
 10
13.3837
 20
24.1114
 30
0.0
 40
0
 41
0
  0
VERTEX
  8
0
 10
13.4296
 20
24.0254
 30
0.0
 40
0
 41
0
  0
VERTEX
  8
0
 10
13.4747
 20
23.9665
 30
0.0
 40
0
 41
0
  0
VERTEX
  8
0
 10
13.4921
 20
23.9492
 30
0.0
 40
0
 41
0
  0
VERTEX
  8
0
 10
13.5094
 20
23.9319
 30
0.0
 40
0
 41
0
  0
VERTEX
  8
0
 10
13.5682
 20
23.8868
 30
0.0
 40
0
 41
0
  0
VERTEX
  8
0
 10
13.6542
 20
23.8408
 30
0.0
 40
0
 41
0
  0
VERTEX
  8
0
 10
13.7476
 20
23.8125
 30
0.0
 40
0
 41
0
  0
VERTEX
  8
0
 10
13.8211
 20
23.8028
 30
0.0
 40
0
 41
0
  0
VERTEX
  8
0
 10
13.8457
 20
23.8028
 30
0.0
 40
0
 41
0
  0
VERTEX
  8
0
 10
17.0957
 20
23.8028
 30
0.0
 40
0
 41
0
  0
VERTEX
  8
0
 10
17.1201
 20
23.8028
 30
0.0
 40
0
 41
0
  0
VERTEX
  8
0
 10
17.1936
 20
23.8125
 30
0.0
 40
0
 41
0
  0
VERTEX
  8
0
 10
17.2869
 20
23.8408
 30
0.0
 40
0
 41
0
  0
VERTEX
  8
0
 10
17.3731
 20
23.8868
 30
0.0
 40
0
 41
0
  0
VERTEX
  8
0
 10
17.4318
 20
23.9319
 30
0.0
 40
0
 41
0
  0
VERTEX
  8
0
 10
17.4492
 20
23.9492
 30
0.0
 40
0
 41
0
  0
VERTEX
  8
0
 10
17.4665
 20
23.9665
 30
0.0
 40
0
 41
0
  0
VERTEX
  8
0
 10
17.5117
 20
24.0254
 30
0.0
 40
0
 41
0
  0
VERTEX
  8
0
 10
17.5575
 20
24.1114
 30
0.0
 40
0
 41
0
  0
VERTEX
  8
0
 10
17.586
 20
24.2049
 30
0.0
 40
0
 41
0
  0
VERTEX
  8
0
 10
17.5957
 20
24.2783
 30
0.0
 40
0
 41
0
  0
VERTEX
  8
0
 10
17.5957
 20
24.3028
 30
0.0
 40
0
 41
0
  0
VERTEX
  8
0
 10
17.5957
 20
27.5528
 30
0.0
 40
0
 41
0
  0
VERTEX
  8
0
 10
17.5957
 20
27.5774
 30
0.0
 40
0
 41
0
  0
VERTEX
  8
0
 10
17.586
 20
27.6508
 30
0.0
 40
0
 41
0
  0
VERTEX
  8
0
 10
17.5575
 20
27.7442
 30
0.0
 40
0
 41
0
  0
VERTEX
  8
0
 10
17.5117
 20
27.8301
 30
0.0
 40
0
 41
0
  0
VERTEX
  8
0
 10
17.4665
 20
27.889
 30
0.0
 40
0
 41
0
  0
VERTEX
  8
0
 10
17.4492
 20
27.9063
 30
0.0
 40
0
 41
0
  0
VERTEX
  8
0
 10
17.4318
 20
27.9236
 30
0.0
 40
0
 41
0
  0
VERTEX
  8
0
 10
17.3731
 20
27.9688
 30
0.0
 40
0
 41
0
  0
VERTEX
  8
0
 10
17.2869
 20
28.0147
 30
0.0
 40
0
 41
0
  0
VERTEX
  8
0
 10
17.1936
 20
28.0432
 30
0.0
 40
0
 41
0
  0
VERTEX
  8
0
 10
17.1201
 20
28.0528
 30
0.0
 40
0
 41
0
  0
VERTEX
  8
0
 10
17.0957
 20
28.0528
 30
0.0
 40
0
 41
0
  0
SEQEND
 8
0
  0
POLYLINE
  8
0
 62
     0
 66
     1
 10
0
 20
0
 30
0.0
 70
     1
 40
0
 41
0
  0
VERTEX
  8
0
 10
12.365
 20
16.0328
 30
0.0
 40
0
 41
0
  0
VERTEX
  8
0
 10
12.3568
 20
16.0328
 30
0.0
 40
0
 41
0
  0
VERTEX
  8
0
 10
12.332
 20
16.0394
 30
0.0
 40
0
 41
0
  0
VERTEX
  8
0
 10
12.3051
 20
16.0575
 30
0.0
 40
0
 41
0
  0
VERTEX
  8
0
 10
12.2869
 20
16.0846
 30
0.0
 40
0
 41
0
  0
VERTEX
  8
0
 10
12.2803
 20
16.1093
 30
0.0
 40
0
 41
0
  0
VERTEX
  8
0
 10
12.2803
 20
16.1175
 30
0.0
 40
0
 41
0
  0
VERTEX
  8
0
 10
12.2803
 20
16.1257
 30
0.0
 40
0
 41
0
  0
VERTEX
  8
0
 10
12.2869
 20
16.1506
 30
0.0
 40
0
 41
0
  0
VERTEX
  8
0
 10
12.3051
 20
16.1775
 30
0.0
 40
0
 41
0
  0
VERTEX
  8
0
 10
12.332
 20
16.1957
 30
0.0
 40
0
 41
0
  0
VERTEX
  8
0
 10
12.3568
 20
16.2022
 30
0.0
 40
0
 41
0
  0
VERTEX
  8
0
 10
12.365
 20
16.2022
 30
0.0
 40
0
 41
0
  0
VERTEX
  8
0
 10
12.3733
 20
16.2022
 30
0.0
 40
0
 41
0
  0
VERTEX
  8
0
 10
12.398
 20
16.1957
 30
0.0
 40
0
 41
0
  0
VERTEX
  8
0
 10
12.4249
 20
16.1775
 30
0.0
 40
0
 41
0
  0
VERTEX
  8
0
 10
12.4431
 20
16.1506
 30
0.0
 40
0
 41
0
  0
VERTEX
  8
0
 10
12.4498
 20
16.1257
 30
0.0
 40
0
 41
0
  0
VERTEX
  8
0
 10
12.4498
 20
16.1175
 30
0.0
 40
0
 41
0
  0
VERTEX
  8
0
 10
12.4498
 20
16.1093
 30
0.0
 40
0
 41
0
  0
VERTEX
  8
0
 10
12.4431
 20
16.0846
 30
0.0
 40
0
 41
0
  0
VERTEX
  8
0
 10
12.4249
 20
16.0575
 30
0.0
 40
0
 41
0
  0
VERTEX
  8
0
 10
12.398
 20
16.0394
 30
0.0
 40
0
 41
0
  0
VERTEX
  8
0
 10
12.3733
 20
16.0328
 30
0.0
 40
0
 41
0
  0
VERTEX
  8
0
 10
12.365
 20
16.0328
 30
0.0
 40
0
 41
0
  0
SEQEND
 8
0
  0
POLYLINE
  8
0
 62
     0
 66
     1
 10
0
 20
0
 30
0.0
 70
     1
 40
0
 41
0
  0
VERTEX
  8
0
 10
12.7523
 20
16.349
 30
0.0
 40
0
 41
0
  0
VERTEX
  8
0
 10
12.744
 20
16.349
 30
0.0
 40
0
 41
0
  0
VERTEX
  8
0
 10
12.7193
 20
16.3557
 30
0.0
 40
0
 41
0
  0
VERTEX
  8
0
 10
12.6924
 20
16.3738
 30
0.0
 40
0
 41
0
  0
VERTEX
  8
0
 10
12.6742
 20
16.4007
 30
0.0
 40
0
 41
0
  0
VERTEX
  8
0
 10
12.6676
 20
16.4254
 30
0.0
 40
0
 41
0
  0
VERTEX
  8
0
 10
12.6676
 20
16.4337
 30
0.0
 40
0
 41
0
  0
VERTEX
  8
0
 10
12.6676
 20
16.4419
 30
0.0
 40
0
 41
0
  0
VERTEX
  8
0
 10
12.6742
 20
16.4668
 30
0.0
 40
0
 41
0
  0
VERTEX
  8
0
 10
12.6924
 20
16.4936
 30
0.0
 40
0
 41
0
  0
VERTEX
  8
0
 10
12.7193
 20
16.5118
 30
0.0
 40
0
 41
0
  0
VERTEX
  8
0
 10
12.744
 20
16.5185
 30
0.0
 40
0
 41
0
  0
VERTEX
  8
0
 10
12.7523
 20
16.5185
 30
0.0
 40
0
 41
0
  0
VERTEX
  8
0
 10
12.7606
 20
16.5185
 30
0.0
 40
0
 41
0
  0
VERTEX
  8
0
 10
12.7853
 20
16.5118
 30
0.0
 40
0
 41
0
  0
VERTEX
  8
0
 10
12.8122
 20
16.4936
 30
0.0
 40
0
 41
0
  0
VERTEX
  8
0
 10
12.8304
 20
16.4668
 30
0.0
 40
0
 41
0
  0
VERTEX
  8
0
 10
12.8371
 20
16.4419
 30
0.0
 40
0
 41
0
  0
VERTEX
  8
0
 10
12.8371
 20
16.4337
 30
0.0
 40
0
 41
0
  0
VERTEX
  8
0
 10
12.8371
 20
16.4254
 30
0.0
 40
0
 41
0
  0
VERTEX
  8
0
 10
12.8304
 20
16.4007
 30
0.0
 40
0
 41
0
  0
VERTEX
  8
0
 10
12.8122
 20
16.3738
 30
0.0
 40
0
 41
0
  0
VERTEX
  8
0
 10
12.7853
 20
16.3557
 30
0.0
 40
0
 41
0
  0
VERTEX
  8
0
 10
12.7606
 20
16.349
 30
0.0
 40
0
 41
0
  0
VERTEX
  8
0
 10
12.7523
 20
16.349
 30
0.0
 40
0
 41
0
  0
SEQEND
 8
0
  0
POLYLINE
  8
0
 62
     0
 66
     1
 10
0
 20
0
 30
0.0
 70
     1
 40
0
 41
0
  0
VERTEX
  8
0
 10
12.7524
 20
35.3372
 30
0.0
 40
0
 41
0
  0
VERTEX
  8
0
 10
12.7441
 20
35.3372
 30
0.0
 40
0
 41
0
  0
VERTEX
  8
0
 10
12.7194
 20
35.3439
 30
0.0
 40
0
 41
0
  0
VERTEX
  8
0
 10
12.6924
 20
35.3621
 30
0.0
 40
0
 41
0
  0
VERTEX
  8
0
 10
12.6743
 20
35.3889
 30
0.0
 40
0
 41
0
  0
VERTEX
  8
0
 10
12.6676
 20
35.4138
 30
0.0
 40
0
 41
0
  0
VERTEX
  8
0
 10
12.6676
 20
35.4219
 30
0.0
 40
0
 41
0
  0
VERTEX
  8
0
 10
12.6676
 20
35.4303
 30
0.0
 40
0
 41
0
  0
VERTEX
  8
0
 10
12.6743
 20
35.455
 30
0.0
 40
0
 41
0
  0
VERTEX
  8
0
 10
12.6924
 20
35.4819
 30
0.0
 40
0
 41
0
  0
VERTEX
  8
0
 10
12.7194
 20
35.5
 30
0.0
 40
0
 41
0
  0
VERTEX
  8
0
 10
12.7441
 20
35.5067
 30
0.0
 40
0
 41
0
  0
VERTEX
  8
0
 10
12.7524
 20
35.5067
 30
0.0
 40
0
 41
0
  0
VERTEX
  8
0
 10
12.7606
 20
35.5067
 30
0.0
 40
0
 41
0
  0
VERTEX
  8
0
 10
12.7854
 20
35.5
 30
0.0
 40
0
 41
0
  0
VERTEX
  8
0
 10
12.8123
 20
35.4819
 30
0.0
 40
0
 41
0
  0
VERTEX
  8
0
 10
12.8305
 20
35.455
 30
0.0
 40
0
 41
0
  0
VERTEX
  8
0
 10
12.8372
 20
35.4303
 30
0.0
 40
0
 41
0
  0
VERTEX
  8
0
 10
12.8372
 20
35.4219
 30
0.0
 40
0
 41
0
  0
VERTEX
  8
0
 10
12.8372
 20
35.4138
 30
0.0
 40
0
 41
0
  0
VERTEX
  8
0
 10
12.8305
 20
35.3889
 30
0.0
 40
0
 41
0
  0
VERTEX
  8
0
 10
12.8123
 20
35.3621
 30
0.0
 40
0
 41
0
  0
VERTEX
  8
0
 10
12.7854
 20
35.3439
 30
0.0
 40
0
 41
0
  0
VERTEX
  8
0
 10
12.7606
 20
35.3372
 30
0.0
 40
0
 41
0
  0
VERTEX
  8
0
 10
12.7524
 20
35.3372
 30
0.0
 40
0
 41
0
  0
SEQEND
 8
0
  0
POLYLINE
  8
0
 62
     0
 66
     1
 10
0
 20
0
 30
0.0
 70
     1
 40
0
 41
0
  0
VERTEX
  8
0
 10
12.3651
 20
35.6535
 30
0.0
 40
0
 41
0
  0
VERTEX
  8
0
 10
12.3568
 20
35.6535
 30
0.0
 40
0
 41
0
  0
VERTEX
  8
0
 10
12.3321
 20
35.6601
 30
0.0
 40
0
 41
0
  0
VERTEX
  8
0
 10
12.3052
 20
35.6783
 30
0.0
 40
0
 41
0
  0
VERTEX
  8
0
 10
12.287
 20
35.7051
 30
0.0
 40
0
 41
0
  0
VERTEX
  8
0
 10
12.2804
 20
35.7299
 30
0.0
 40
0
 41
0
  0
VERTEX
  8
0
 10
12.2804
 20
35.7382
 30
0.0
 40
0
 41
0
  0
VERTEX
  8
0
 10
12.2804
 20
35.7464
 30
0.0
 40
0
 41
0
  0
VERTEX
  8
0
 10
12.287
 20
35.7711
 30
0.0
 40
0
 41
0
  0
VERTEX
  8
0
 10
12.3052
 20
35.7981
 30
0.0
 40
0
 41
0
  0
VERTEX
  8
0
 10
12.3321
 20
35.8163
 30
0.0
 40
0
 41
0
  0
VERTEX
  8
0
 10
12.3568
 20
35.8229
 30
0.0
 40
0
 41
0
  0
VERTEX
  8
0
 10
12.3651
 20
35.8229
 30
0.0
 40
0
 41
0
  0
VERTEX
  8
0
 10
12.3734
 20
35.8229
 30
0.0
 40
0
 41
0
  0
VERTEX
  8
0
 10
12.3981
 20
35.8163
 30
0.0
 40
0
 41
0
  0
VERTEX
  8
0
 10
12.425
 20
35.7981
 30
0.0
 40
0
 41
0
  0
VERTEX
  8
0
 10
12.4432
 20
35.7711
 30
0.0
 40
0
 41
0
  0
VERTEX
  8
0
 10
12.4499
 20
35.7464
 30
0.0
 40
0
 41
0
  0
VERTEX
  8
0
 10
12.4499
 20
35.7382
 30
0.0
 40
0
 41
0
  0
VERTEX
  8
0
 10
12.4499
 20
35.7299
 30
0.0
 40
0
 41
0
  0
VERTEX
  8
0
 10
12.4432
 20
35.7051
 30
0.0
 40
0
 41
0
  0
VERTEX
  8
0
 10
12.425
 20
35.6783
 30
0.0
 40
0
 41
0
  0
VERTEX
  8
0
 10
12.3981
 20
35.6601
 30
0.0
 40
0
 41
0
  0
VERTEX
  8
0
 10
12.3734
 20
35.6535
 30
0.0
 40
0
 41
0
  0
VERTEX
  8
0
 10
12.3651
 20
35.6535
 30
0.0
 40
0
 41
0
  0
SEQEND
 8
0
  0
POLYLINE
  8
0
 62
     0
 66
     1
 10
0
 20
0
 30
0.0
 70
     1
 40
0
 41
0
  0
VERTEX
  8
0
 10
14.7257
 20
33.924
 30
0.0
 40
0
 41
0
  0
VERTEX
  8
0
 10
14.7175
 20
33.924
 30
0.0
 40
0
 41
0
  0
VERTEX
  8
0
 10
14.6928
 20
33.9307
 30
0.0
 40
0
 41
0
  0
VERTEX
  8
0
 10
14.6657
 20
33.9489
 30
0.0
 40
0
 41
0
  0
VERTEX
  8
0
 10
14.6476
 20
33.9758
 30
0.0
 40
0
 41
0
  0
VERTEX
  8
0
 10
14.641
 20
34.0006
 30
0.0
 40
0
 41
0
  0
VERTEX
  8
0
 10
14.641
 20
34.0087
 30
0.0
 40
0
 41
0
  0
VERTEX
  8
0
 10
14.641
 20
34.0171
 30
0.0
 40
0
 41
0
  0
VERTEX
  8
0
 10
14.6476
 20
34.0418
 30
0.0
 40
0
 41
0
  0
VERTEX
  8
0
 10
14.6657
 20
34.0687
 30
0.0
 40
0
 41
0
  0
VERTEX
  8
0
 10
14.6928
 20
34.0869
 30
0.0
 40
0
 41
0
  0
VERTEX
  8
0
 10
14.7175
 20
34.0935
 30
0.0
 40
0
 41
0
  0
VERTEX
  8
0
 10
14.7257
 20
34.0935
 30
0.0
 40
0
 41
0
  0
VERTEX
  8
0
 10
14.7339
 20
34.0935
 30
0.0
 40
0
 41
0
  0
VERTEX
  8
0
 10
14.7588
 20
34.0869
 30
0.0
 40
0
 41
0
  0
VERTEX
  8
0
 10
14.7857
 20
34.0687
 30
0.0
 40
0
 41
0
  0
VERTEX
  8
0
 10
14.8039
 20
34.0418
 30
0.0
 40
0
 41
0
  0
VERTEX
  8
0
 10
14.8106
 20
34.0171
 30
0.0
 40
0
 41
0
  0
VERTEX
  8
0
 10
14.8106
 20
34.0087
 30
0.0
 40
0
 41
0
  0
VERTEX
  8
0
 10
14.8106
 20
34.0006
 30
0.0
 40
0
 41
0
  0
VERTEX
  8
0
 10
14.8039
 20
33.9758
 30
0.0
 40
0
 41
0
  0
VERTEX
  8
0
 10
14.7857
 20
33.9489
 30
0.0
 40
0
 41
0
  0
VERTEX
  8
0
 10
14.7588
 20
33.9307
 30
0.0
 40
0
 41
0
  0
VERTEX
  8
0
 10
14.7339
 20
33.924
 30
0.0
 40
0
 41
0
  0
VERTEX
  8
0
 10
14.7257
 20
33.924
 30
0.0
 40
0
 41
0
  0
SEQEND
 8
0
  0
POLYLINE
  8
0
 62
     0
 66
     1
 10
0
 20
0
 30
0.0
 70
     1
 40
0
 41
0
  0
VERTEX
  8
0
 10
14.7257
 20
32.124
 30
0.0
 40
0
 41
0
  0
VERTEX
  8
0
 10
14.7175
 20
32.124
 30
0.0
 40
0
 41
0
  0
VERTEX
  8
0
 10
14.6928
 20
32.1307
 30
0.0
 40
0
 41
0
  0
VERTEX
  8
0
 10
14.6657
 20
32.1489
 30
0.0
 40
0
 41
0
  0
VERTEX
  8
0
 10
14.6476
 20
32.1758
 30
0.0
 40
0
 41
0
  0
VERTEX
  8
0
 10
14.641
 20
32.2006
 30
0.0
 40
0
 41
0
  0
VERTEX
  8
0
 10
14.641
 20
32.2088
 30
0.0
 40
0
 41
0
  0
VERTEX
  8
0
 10
14.641
 20
32.2171
 30
0.0
 40
0
 41
0
  0
VERTEX
  8
0
 10
14.6476
 20
32.2418
 30
0.0
 40
0
 41
0
  0
VERTEX
  8
0
 10
14.6657
 20
32.2688
 30
0.0
 40
0
 41
0
  0
VERTEX
  8
0
 10
14.6928
 20
32.2869
 30
0.0
 40
0
 41
0
  0
VERTEX
  8
0
 10
14.7175
 20
32.2935
 30
0.0
 40
0
 41
0
  0
VERTEX
  8
0
 10
14.7257
 20
32.2935
 30
0.0
 40
0
 41
0
  0
VERTEX
  8
0
 10
14.7339
 20
32.2935
 30
0.0
 40
0
 41
0
  0
VERTEX
  8
0
 10
14.7588
 20
32.2869
 30
0.0
 40
0
 41
0
  0
VERTEX
  8
0
 10
14.7857
 20
32.2688
 30
0.0
 40
0
 41
0
  0
VERTEX
  8
0
 10
14.8039
 20
32.2418
 30
0.0
 40
0
 41
0
  0
VERTEX
  8
0
 10
14.8106
 20
32.2171
 30
0.0
 40
0
 41
0
  0
VERTEX
  8
0
 10
14.8106
 20
32.2088
 30
0.0
 40
0
 41
0
  0
VERTEX
  8
0
 10
14.8106
 20
32.2006
 30
0.0
 40
0
 41
0
  0
VERTEX
  8
0
 10
14.8039
 20
32.1758
 30
0.0
 40
0
 41
0
  0
VERTEX
  8
0
 10
14.7857
 20
32.1489
 30
0.0
 40
0
 41
0
  0
VERTEX
  8
0
 10
14.7588
 20
32.1307
 30
0.0
 40
0
 41
0
  0
VERTEX
  8
0
 10
14.7339
 20
32.124
 30
0.0
 40
0
 41
0
  0
VERTEX
  8
0
 10
14.7257
 20
32.124
 30
0.0
 40
0
 41
0
  0
SEQEND
 8
0
  0
POLYLINE
  8
0
 62
     0
 66
     1
 10
0
 20
0
 30
0.0
 70
     1
 40
0
 41
0
  0
VERTEX
  8
0
 10
17.624
 20
15.5412
 30
0.0
 40
0
 41
0
  0
VERTEX
  8
0
 10
17.6171
 20
15.5412
 30
0.0
 40
0
 41
0
  0
VERTEX
  8
0
 10
17.5963
 20
15.5526
 30
0.0
 40
0
 41
0
  0
VERTEX
  8
0
 10
17.5849
 20
15.5735
 30
0.0
 40
0
 41
0
  0
VERTEX
  8
0
 10
17.5849
 20
15.5803
 30
0.0
 40
0
 41
0
  0
VERTEX
  8
0
 10
17.5849
 20
15.5872
 30
0.0
 40
0
 41
0
  0
VERTEX
  8
0
 10
17.5963
 20
15.6079
 30
0.0
 40
0
 41
0
  0
VERTEX
  8
0
 10
17.6171
 20
15.6193
 30
0.0
 40
0
 41
0
  0
VERTEX
  8
0
 10
17.624
 20
15.6193
 30
0.0
 40
0
 41
0
  0
VERTEX
  8
0
 10
17.6308
 20
15.6193
 30
0.0
 40
0
 41
0
  0
VERTEX
  8
0
 10
17.6515
 20
15.6079
 30
0.0
 40
0
 41
0
  0
VERTEX
  8
0
 10
17.6631
 20
15.5872
 30
0.0
 40
0
 41
0
  0
VERTEX
  8
0
 10
17.6631
 20
15.5803
 30
0.0
 40
0
 41
0
  0
VERTEX
  8
0
 10
17.6631
 20
15.5735
 30
0.0
 40
0
 41
0
  0
VERTEX
  8
0
 10
17.6515
 20
15.5526
 30
0.0
 40
0
 41
0
  0
VERTEX
  8
0
 10
17.6308
 20
15.5412
 30
0.0
 40
0
 41
0
  0
VERTEX
  8
0
 10
17.624
 20
15.5412
 30
0.0
 40
0
 41
0
  0
SEQEND
 8
0
  0
POLYLINE
  8
0
 62
     0
 66
     1
 10
0
 20
0
 30
0.0
 70
     1
 40
0
 41
0
  0
VERTEX
  8
0
 10
13.7374
 20
15.5412
 30
0.0
 40
0
 41
0
  0
VERTEX
  8
0
 10
13.7304
 20
15.5412
 30
0.0
 40
0
 41
0
  0
VERTEX
  8
0
 10
13.7097
 20
15.5526
 30
0.0
 40
0
 41
0
  0
VERTEX
  8
0
 10
13.6983
 20
15.5735
 30
0.0
 40
0
 41
0
  0
VERTEX
  8
0
 10
13.6983
 20
15.5803
 30
0.0
 40
0
 41
0
  0
VERTEX
  8
0
 10
13.6983
 20
15.5872
 30
0.0
 40
0
 41
0
  0
VERTEX
  8
0
 10
13.7097
 20
15.6079
 30
0.0
 40
0
 41
0
  0
VERTEX
  8
0
 10
13.7304
 20
15.6193
 30
0.0
 40
0
 41
0
  0
VERTEX
  8
0
 10
13.7374
 20
15.6193
 30
0.0
 40
0
 41
0
  0
VERTEX
  8
0
 10
13.7443
 20
15.6193
 30
0.0
 40
0
 41
0
  0
VERTEX
  8
0
 10
13.765
 20
15.6079
 30
0.0
 40
0
 41
0
  0
VERTEX
  8
0
 10
13.7764
 20
15.5872
 30
0.0
 40
0
 41
0
  0
VERTEX
  8
0
 10
13.7764
 20
15.5803
 30
0.0
 40
0
 41
0
  0
VERTEX
  8
0
 10
13.7764
 20
15.5735
 30
0.0
 40
0
 41
0
  0
VERTEX
  8
0
 10
13.765
 20
15.5526
 30
0.0
 40
0
 41
0
  0
VERTEX
  8
0
 10
13.7443
 20
15.5412
 30
0.0
 40
0
 41
0
  0
VERTEX
  8
0
 10
13.7374
 20
15.5412
 30
0.0
 40
0
 41
0
  0
SEQEND
 8
0
  0
POLYLINE
  8
0
 62
     0
 66
     1
 10
0
 20
0
 30
0.0
 70
     1
 40
0
 41
0
  0
VERTEX
  8
0
 10
11.0436
 20
21.9992
 30
0.0
 40
0
 41
0
  0
VERTEX
  8
0
 10
11.0366
 20
21.9992
 30
0.0
 40
0
 41
0
  0
VERTEX
  8
0
 10
11.0159
 20
22.0107
 30
0.0
 40
0
 41
0
  0
VERTEX
  8
0
 10
11.0044
 20
22.0314
 30
0.0
 40
0
 41
0
  0
VERTEX
  8
0
 10
11.0044
 20
22.0383
 30
0.0
 40
0
 41
0
  0
VERTEX
  8
0
 10
11.0044
 20
22.0453
 30
0.0
 40
0
 41
0
  0
VERTEX
  8
0
 10
11.0159
 20
22.066
 30
0.0
 40
0
 41
0
  0
VERTEX
  8
0
 10
11.0366
 20
22.0774
 30
0.0
 40
0
 41
0
  0
VERTEX
  8
0
 10
11.0436
 20
22.0774
 30
0.0
 40
0
 41
0
  0
VERTEX
  8
0
 10
11.0505
 20
22.0774
 30
0.0
 40
0
 41
0
  0
VERTEX
  8
0
 10
11.0711
 20
22.066
 30
0.0
 40
0
 41
0
  0
VERTEX
  8
0
 10
11.0826
 20
22.0453
 30
0.0
 40
0
 41
0
  0
VERTEX
  8
0
 10
11.0826
 20
22.0383
 30
0.0
 40
0
 41
0
  0
VERTEX
  8
0
 10
11.0826
 20
22.0314
 30
0.0
 40
0
 41
0
  0
VERTEX
  8
0
 10
11.0711
 20
22.0107
 30
0.0
 40
0
 41
0
  0
VERTEX
  8
0
 10
11.0505
 20
21.9992
 30
0.0
 40
0
 41
0
  0
VERTEX
  8
0
 10
11.0436
 20
21.9992
 30
0.0
 40
0
 41
0
  0
SEQEND
 8
0
  0
POLYLINE
  8
0
 62
     0
 66
     1
 10
0
 20
0
 30
0.0
 70
     1
 40
0
 41
0
  0
VERTEX
  8
0
 10
17.0853
 20
21.9992
 30
0.0
 40
0
 41
0
  0
VERTEX
  8
0
 10
17.0783
 20
21.9992
 30
0.0
 40
0
 41
0
  0
VERTEX
  8
0
 10
17.0575
 20
22.0107
 30
0.0
 40
0
 41
0
  0
VERTEX
  8
0
 10
17.0461
 20
22.0314
 30
0.0
 40
0
 41
0
  0
VERTEX
  8
0
 10
17.0461
 20
22.0383
 30
0.0
 40
0
 41
0
  0
VERTEX
  8
0
 10
17.0461
 20
22.0453
 30
0.0
 40
0
 41
0
  0
VERTEX
  8
0
 10
17.0575
 20
22.066
 30
0.0
 40
0
 41
0
  0
VERTEX
  8
0
 10
17.0783
 20
22.0774
 30
0.0
 40
0
 41
0
  0
VERTEX
  8
0
 10
17.0853
 20
22.0774
 30
0.0
 40
0
 41
0
  0
VERTEX
  8
0
 10
17.0921
 20
22.0774
 30
0.0
 40
0
 41
0
  0
VERTEX
  8
0
 10
17.1128
 20
22.066
 30
0.0
 40
0
 41
0
  0
VERTEX
  8
0
 10
17.1243
 20
22.0453
 30
0.0
 40
0
 41
0
  0
VERTEX
  8
0
 10
17.1243
 20
22.0383
 30
0.0
 40
0
 41
0
  0
VERTEX
  8
0
 10
17.1243
 20
22.0314
 30
0.0
 40
0
 41
0
  0
VERTEX
  8
0
 10
17.1128
 20
22.0107
 30
0.0
 40
0
 41
0
  0
VERTEX
  8
0
 10
17.0921
 20
21.9992
 30
0.0
 40
0
 41
0
  0
VERTEX
  8
0
 10
17.0853
 20
21.9992
 30
0.0
 40
0
 41
0
  0
SEQEND
 8
0
  0
POLYLINE
  8
0
 62
     0
 66
     1
 10
0
 20
0
 30
0.0
 70
     1
 40
0
 41
0
  0
VERTEX
  8
0
 10
11.3706
 20
23.78
 30
0.0
 40
0
 41
0
  0
VERTEX
  8
0
 10
11.3637
 20
23.78
 30
0.0
 40
0
 41
0
  0
VERTEX
  8
0
 10
11.343
 20
23.7915
 30
0.0
 40
0
 41
0
  0
VERTEX
  8
0
 10
11.3315
 20
23.8122
 30
0.0
 40
0
 41
0
  0
VERTEX
  8
0
 10
11.3315
 20
23.819
 30
0.0
 40
0
 41
0
  0
VERTEX
  8
0
 10
11.3315
 20
23.826
 30
0.0
 40
0
 41
0
  0
VERTEX
  8
0
 10
11.343
 20
23.8467
 30
0.0
 40
0
 41
0
  0
VERTEX
  8
0
 10
11.3637
 20
23.8582
 30
0.0
 40
0
 41
0
  0
VERTEX
  8
0
 10
11.3706
 20
23.8582
 30
0.0
 40
0
 41
0
  0
VERTEX
  8
0
 10
11.3775
 20
23.8582
 30
0.0
 40
0
 41
0
  0
VERTEX
  8
0
 10
11.3982
 20
23.8467
 30
0.0
 40
0
 41
0
  0
VERTEX
  8
0
 10
11.4097
 20
23.826
 30
0.0
 40
0
 41
0
  0
VERTEX
  8
0
 10
11.4097
 20
23.819
 30
0.0
 40
0
 41
0
  0
VERTEX
  8
0
 10
11.4097
 20
23.8122
 30
0.0
 40
0
 41
0
  0
VERTEX
  8
0
 10
11.3982
 20
23.7915
 30
0.0
 40
0
 41
0
  0
VERTEX
  8
0
 10
11.3775
 20
23.78
 30
0.0
 40
0
 41
0
  0
VERTEX
  8
0
 10
11.3706
 20
23.78
 30
0.0
 40
0
 41
0
  0
SEQEND
 8
0
  0
POLYLINE
  8
0
 62
     0
 66
     1
 10
0
 20
0
 30
0.0
 70
     1
 40
0
 41
0
  0
VERTEX
  8
0
 10
11.3706
 20
27.9974
 30
0.0
 40
0
 41
0
  0
VERTEX
  8
0
 10
11.3637
 20
27.9974
 30
0.0
 40
0
 41
0
  0
VERTEX
  8
0
 10
11.343
 20
28.0089
 30
0.0
 40
0
 41
0
  0
VERTEX
  8
0
 10
11.3315
 20
28.0296
 30
0.0
 40
0
 41
0
  0
VERTEX
  8
0
 10
11.3315
 20
28.0365
 30
0.0
 40
0
 41
0
  0
VERTEX
  8
0
 10
11.3315
 20
28.0435
 30
0.0
 40
0
 41
0
  0
VERTEX
  8
0
 10
11.343
 20
28.0642
 30
0.0
 40
0
 41
0
  0
VERTEX
  8
0
 10
11.3637
 20
28.0756
 30
0.0
 40
0
 41
0
  0
VERTEX
  8
0
 10
11.3706
 20
28.0756
 30
0.0
 40
0
 41
0
  0
VERTEX
  8
0
 10
11.3775
 20
28.0756
 30
0.0
 40
0
 41
0
  0
VERTEX
  8
0
 10
11.3982
 20
28.0642
 30
0.0
 40
0
 41
0
  0
VERTEX
  8
0
 10
11.4097
 20
28.0435
 30
0.0
 40
0
 41
0
  0
VERTEX
  8
0
 10
11.4097
 20
28.0365
 30
0.0
 40
0
 41
0
  0
VERTEX
  8
0
 10
11.4097
 20
28.0296
 30
0.0
 40
0
 41
0
  0
VERTEX
  8
0
 10
11.3982
 20
28.0089
 30
0.0
 40
0
 41
0
  0
VERTEX
  8
0
 10
11.3775
 20
27.9974
 30
0.0
 40
0
 41
0
  0
VERTEX
  8
0
 10
11.3706
 20
27.9974
 30
0.0
 40
0
 41
0
  0
SEQEND
 8
0
  0
POLYLINE
  8
0
 62
     0
 66
     1
 10
0
 20
0
 30
0.0
 70
     1
 40
0
 41
0
  0
VERTEX
  8
0
 10
17.0744
 20
29.799
 30
0.0
 40
0
 41
0
  0
VERTEX
  8
0
 10
17.0675
 20
29.799
 30
0.0
 40
0
 41
0
  0
VERTEX
  8
0
 10
17.0468
 20
29.8106
 30
0.0
 40
0
 41
0
  0
VERTEX
  8
0
 10
17.0354
 20
29.8313
 30
0.0
 40
0
 41
0
  0
VERTEX
  8
0
 10
17.0354
 20
29.8381
 30
0.0
 40
0
 41
0
  0
VERTEX
  8
0
 10
17.0354
 20
29.845
 30
0.0
 40
0
 41
0
  0
VERTEX
  8
0
 10
17.0468
 20
29.8657
 30
0.0
 40
0
 41
0
  0
VERTEX
  8
0
 10
17.0675
 20
29.8772
 30
0.0
 40
0
 41
0
  0
VERTEX
  8
0
 10
17.0744
 20
29.8772
 30
0.0
 40
0
 41
0
  0
VERTEX
  8
0
 10
17.0814
 20
29.8772
 30
0.0
 40
0
 41
0
  0
VERTEX
  8
0
 10
17.1021
 20
29.8657
 30
0.0
 40
0
 41
0
  0
VERTEX
  8
0
 10
17.1135
 20
29.845
 30
0.0
 40
0
 41
0
  0
VERTEX
  8
0
 10
17.1135
 20
29.8381
 30
0.0
 40
0
 41
0
  0
VERTEX
  8
0
 10
17.1135
 20
29.8313
 30
0.0
 40
0
 41
0
  0
VERTEX
  8
0
 10
17.1021
 20
29.8106
 30
0.0
 40
0
 41
0
  0
VERTEX
  8
0
 10
17.0814
 20
29.799
 30
0.0
 40
0
 41
0
  0
VERTEX
  8
0
 10
17.0744
 20
29.799
 30
0.0
 40
0
 41
0
  0
SEQEND
 8
0
  0
POLYLINE
  8
0
 62
     0
 66
     1
 10
0
 20
0
 30
0.0
 70
     1
 40
0
 41
0
  0
VERTEX
  8
0
 10
11.0328
 20
29.7824
 30
0.0
 40
0
 41
0
  0
VERTEX
  8
0
 10
11.0259
 20
29.7824
 30
0.0
 40
0
 41
0
  0
VERTEX
  8
0
 10
11.0052
 20
29.7939
 30
0.0
 40
0
 41
0
  0
VERTEX
  8
0
 10
10.9938
 20
29.8146
 30
0.0
 40
0
 41
0
  0
VERTEX
  8
0
 10
10.9938
 20
29.8214
 30
0.0
 40
0
 41
0
  0
VERTEX
  8
0
 10
10.9938
 20
29.8283
 30
0.0
 40
0
 41
0
  0
VERTEX
  8
0
 10
11.0052
 20
29.849
 30
0.0
 40
0
 41
0
  0
VERTEX
  8
0
 10
11.0259
 20
29.8606
 30
0.0
 40
0
 41
0
  0
VERTEX
  8
0
 10
11.0328
 20
29.8606
 30
0.0
 40
0
 41
0
  0
VERTEX
  8
0
 10
11.0397
 20
29.8606
 30
0.0
 40
0
 41
0
  0
VERTEX
  8
0
 10
11.0604
 20
29.849
 30
0.0
 40
0
 41
0
  0
VERTEX
  8
0
 10
11.0719
 20
29.8283
 30
0.0
 40
0
 41
0
  0
VERTEX
  8
0
 10
11.0719
 20
29.8214
 30
0.0
 40
0
 41
0
  0
VERTEX
  8
0
 10
11.0719
 20
29.8146
 30
0.0
 40
0
 41
0
  0
VERTEX
  8
0
 10
11.0604
 20
29.7939
 30
0.0
 40
0
 41
0
  0
VERTEX
  8
0
 10
11.0397
 20
29.7824
 30
0.0
 40
0
 41
0
  0
VERTEX
  8
0
 10
11.0328
 20
29.7824
 30
0.0
 40
0
 41
0
  0
SEQEND
 8
0
  0
POLYLINE
  8
0
 62
     0
 66
     1
 10
0
 20
0
 30
0.0
 70
     1
 40
0
 41
0
  0
VERTEX
  8
0
 10
13.7088
 20
36.2478
 30
0.0
 40
0
 41
0
  0
VERTEX
  8
0
 10
13.7019
 20
36.2478
 30
0.0
 40
0
 41
0
  0
VERTEX
  8
0
 10
13.6812
 20
36.2592
 30
0.0
 40
0
 41
0
  0
VERTEX
  8
0
 10
13.6698
 20
36.28
 30
0.0
 40
0
 41
0
  0
VERTEX
  8
0
 10
13.6698
 20
36.2868
 30
0.0
 40
0
 41
0
  0
VERTEX
  8
0
 10
13.6698
 20
36.2937
 30
0.0
 40
0
 41
0
  0
VERTEX
  8
0
 10
13.6812
 20
36.3144
 30
0.0
 40
0
 41
0
  0
VERTEX
  8
0
 10
13.7019
 20
36.3258
 30
0.0
 40
0
 41
0
  0
VERTEX
  8
0
 10
13.7088
 20
36.3258
 30
0.0
 40
0
 41
0
  0
VERTEX
  8
0
 10
13.7157
 20
36.3258
 30
0.0
 40
0
 41
0
  0
VERTEX
  8
0
 10
13.7364
 20
36.3144
 30
0.0
 40
0
 41
0
  0
VERTEX
  8
0
 10
13.7479
 20
36.2937
 30
0.0
 40
0
 41
0
  0
VERTEX
  8
0
 10
13.7479
 20
36.2868
 30
0.0
 40
0
 41
0
  0
VERTEX
  8
0
 10
13.7479
 20
36.28
 30
0.0
 40
0
 41
0
  0
VERTEX
  8
0
 10
13.7364
 20
36.2592
 30
0.0
 40
0
 41
0
  0
VERTEX
  8
0
 10
13.7157
 20
36.2478
 30
0.0
 40
0
 41
0
  0
VERTEX
  8
0
 10
13.7088
 20
36.2478
 30
0.0
 40
0
 41
0
  0
SEQEND
 8
0
  0
POLYLINE
  8
0
 62
     0
 66
     1
 10
0
 20
0
 30
0.0
 70
     1
 40
0
 41
0
  0
VERTEX
  8
0
 10
17.5954
 20
36.2585
 30
0.0
 40
0
 41
0
  0
VERTEX
  8
0
 10
17.5885
 20
36.2585
 30
0.0
 40
0
 41
0
  0
VERTEX
  8
0
 10
17.5678
 20
36.27
 30
0.0
 40
0
 41
0
  0
VERTEX
  8
0
 10
17.5563
 20
36.2907
 30
0.0
 40
0
 41
0
  0
VERTEX
  8
0
 10
17.5563
 20
36.2976
 30
0.0
 40
0
 41
0
  0
VERTEX
  8
0
 10
17.5563
 20
36.3046
 30
0.0
 40
0
 41
0
  0
VERTEX
  8
0
 10
17.5678
 20
36.3251
 30
0.0
 40
0
 41
0
  0
VERTEX
  8
0
 10
17.5885
 20
36.3367
 30
0.0
 40
0
 41
0
  0
VERTEX
  8
0
 10
17.5954
 20
36.3367
 30
0.0
 40
0
 41
0
  0
VERTEX
  8
0
 10
17.6022
 20
36.3367
 30
0.0
 40
0
 41
0
  0
VERTEX
  8
0
 10
17.6231
 20
36.3251
 30
0.0
 40
0
 41
0
  0
VERTEX
  8
0
 10
17.6344
 20
36.3046
 30
0.0
 40
0
 41
0
  0
VERTEX
  8
0
 10
17.6344
 20
36.2976
 30
0.0
 40
0
 41
0
  0
VERTEX
  8
0
 10
17.6344
 20
36.2907
 30
0.0
 40
0
 41
0
  0
VERTEX
  8
0
 10
17.6231
 20
36.27
 30
0.0
 40
0
 41
0
  0
VERTEX
  8
0
 10
17.6022
 20
36.2585
 30
0.0
 40
0
 41
0
  0
VERTEX
  8
0
 10
17.5954
 20
36.2585
 30
0.0
 40
0
 41
0
  0
SEQEND
 8
0
  0
POLYLINE
  8
0
 62
     0
 66
     1
 10
0
 20
0
 30
0.0
 70
     1
 40
0
 41
0
  0
VERTEX
  8
0
 10
11.4975
 20
13.0778
 30
0.0
 40
0
 41
0
  0
VERTEX
  8
0
 10
18.625
 20
13.0778
 30
0.0
 40
0
 41
0
  0
VERTEX
  8
0
 10
18.625
 20
0.5778
 30
0.0
 40
0
 41
0
  0
VERTEX
  8
0
 10
9.5625
 20
0.5778
 30
0.0
 40
0
 41
0
  0
VERTEX
  8
0
 10
9.5625
 20
13.7528
 30
0.0
 40
0
 41
0
  0
VERTEX
  8
0
 10
11.2475
 20
13.7528
 30
0.0
 40
0
 41
0
  0
VERTEX
  8
0
 10
11.2475
 20
13.3278
 30
0.0
 40
0
 41
0
  0
VERTEX
  8
0
 10
11.2475
 20
13.3156
 30
0.0
 40
0
 41
0
  0
VERTEX
  8
0
 10
11.2523
 20
13.2788
 30
0.0
 40
0
 41
0
  0
VERTEX
  8
0
 10
11.2665
 20
13.2321
 30
0.0
 40
0
 41
0
  0
VERTEX
  8
0
 10
11.2895
 20
13.1891
 30
0.0
 40
0
 41
0
  0
VERTEX
  8
0
 10
11.3121
 20
13.1597
 30
0.0
 40
0
 41
0
  0
VERTEX
  8
0
 10
11.3208
 20
13.151
 30
0.0
 40
0
 41
0
  0
VERTEX
  8
0
 10
11.3294
 20
13.1424
 30
0.0
 40
0
 41
0
  0
VERTEX
  8
0
 10
11.3588
 20
13.1198
 30
0.0
 40
0
 41
0
  0
VERTEX
  8
0
 10
11.4018
 20
13.0968
 30
0.0
 40
0
 41
0
  0
VERTEX
  8
0
 10
11.4485
 20
13.0827
 30
0.0
 40
0
 41
0
  0
VERTEX
  8
0
 10
11.4852
 20
13.0778
 30
0.0
 40
0
 41
0
  0
VERTEX
  8
0
 10
11.4975
 20
13.0778
 30
0.0
 40
0
 41
0
  0
SEQEND
 8
0
  0
POLYLINE
  8
0
 62
     0
 66
     1
 10
0
 20
0
 30
0.0
 70
     1
 40
0
 41
0
  0
VERTEX
  8
0
 10
17.9375
 20
1.27978
 30
0.0
 40
0
 41
0
  0
VERTEX
  8
0
 10
17.9511
 20
1.27978
 30
0.0
 40
0
 41
0
  0
VERTEX
  8
0
 10
17.9918
 20
1.26883
 30
0.0
 40
0
 41
0
  0
VERTEX
  8
0
 10
18.0361
 20
1.23893
 30
0.0
 40
0
 41
0
  0
VERTEX
  8
0
 10
18.066
 20
1.19461
 30
0.0
 40
0
 41
0
  0
VERTEX
  8
0
 10
18.0769
 20
1.15392
 30
0.0
 40
0
 41
0
  0
VERTEX
  8
0
 10
18.0769
 20
1.1403
 30
0.0
 40
0
 41
0
  0
VERTEX
  8
0
 10
18.0769
 20
1.12674
 30
0.0
 40
0
 41
0
  0
VERTEX
  8
0
 10
18.066
 20
1.08605
 30
0.0
 40
0
 41
0
  0
VERTEX
  8
0
 10
18.0361
 20
1.04167
 30
0.0
 40
0
 41
0
  0
VERTEX
  8
0
 10
17.9918
 20
1.01177
 30
0.0
 40
0
 41
0
  0
VERTEX
  8
0
 10
17.9511
 20
1.00076
 30
0.0
 40
0
 41
0
  0
VERTEX
  8
0
 10
17.9375
 20
1.00076
 30
0.0
 40
0
 41
0
  0
VERTEX
  8
0
 10
17.9239
 20
1.00076
 30
0.0
 40
0
 41
0
  0
VERTEX
  8
0
 10
17.8832
 20
1.01177
 30
0.0
 40
0
 41
0
  0
VERTEX
  8
0
 10
17.8389
 20
1.04167
 30
0.0
 40
0
 41
0
  0
VERTEX
  8
0
 10
17.809
 20
1.08605
 30
0.0
 40
0
 41
0
  0
VERTEX
  8
0
 10
17.7981
 20
1.12674
 30
0.0
 40
0
 41
0
  0
VERTEX
  8
0
 10
17.7981
 20
1.1403
 30
0.0
 40
0
 41
0
  0
VERTEX
  8
0
 10
17.7981
 20
1.15392
 30
0.0
 40
0
 41
0
  0
VERTEX
  8
0
 10
17.809
 20
1.19461
 30
0.0
 40
0
 41
0
  0
VERTEX
  8
0
 10
17.8389
 20
1.23893
 30
0.0
 40
0
 41
0
  0
VERTEX
  8
0
 10
17.8832
 20
1.26883
 30
0.0
 40
0
 41
0
  0
VERTEX
  8
0
 10
17.9239
 20
1.27978
 30
0.0
 40
0
 41
0
  0
VERTEX
  8
0
 10
17.9375
 20
1.27978
 30
0.0
 40
0
 41
0
  0
SEQEND
 8
0
  0
POLYLINE
  8
0
 62
     0
 66
     1
 10
0
 20
0
 30
0.0
 70
     1
 40
0
 41
0
  0
VERTEX
  8
0
 10
18.4375
 20
12.7798
 30
0.0
 40
0
 41
0
  0
VERTEX
  8
0
 10
18.4511
 20
12.7798
 30
0.0
 40
0
 41
0
  0
VERTEX
  8
0
 10
18.4918
 20
12.7688
 30
0.0
 40
0
 41
0
  0
VERTEX
  8
0
 10
18.5361
 20
12.7389
 30
0.0
 40
0
 41
0
  0
VERTEX
  8
0
 10
18.566
 20
12.6946
 30
0.0
 40
0
 41
0
  0
VERTEX
  8
0
 10
18.5769
 20
12.6539
 30
0.0
 40
0
 41
0
  0
VERTEX
  8
0
 10
18.5769
 20
12.6403
 30
0.0
 40
0
 41
0
  0
VERTEX
  8
0
 10
18.5769
 20
12.6267
 30
0.0
 40
0
 41
0
  0
VERTEX
  8
0
 10
18.566
 20
12.586
 30
0.0
 40
0
 41
0
  0
VERTEX
  8
0
 10
18.5361
 20
12.5417
 30
0.0
 40
0
 41
0
  0
VERTEX
  8
0
 10
18.4918
 20
12.5118
 30
0.0
 40
0
 41
0
  0
VERTEX
  8
0
 10
18.4511
 20
12.5008
 30
0.0
 40
0
 41
0
  0
VERTEX
  8
0
 10
18.4375
 20
12.5008
 30
0.0
 40
0
 41
0
  0
VERTEX
  8
0
 10
18.4239
 20
12.5008
 30
0.0
 40
0
 41
0
  0
VERTEX
  8
0
 10
18.3832
 20
12.5118
 30
0.0
 40
0
 41
0
  0
VERTEX
  8
0
 10
18.3389
 20
12.5417
 30
0.0
 40
0
 41
0
  0
VERTEX
  8
0
 10
18.309
 20
12.586
 30
0.0
 40
0
 41
0
  0
VERTEX
  8
0
 10
18.2981
 20
12.6267
 30
0.0
 40
0
 41
0
  0
VERTEX
  8
0
 10
18.2981
 20
12.6403
 30
0.0
 40
0
 41
0
  0
VERTEX
  8
0
 10
18.2981
 20
12.6539
 30
0.0
 40
0
 41
0
  0
VERTEX
  8
0
 10
18.309
 20
12.6946
 30
0.0
 40
0
 41
0
  0
VERTEX
  8
0
 10
18.3389
 20
12.7389
 30
0.0
 40
0
 41
0
  0
VERTEX
  8
0
 10
18.3832
 20
12.7688
 30
0.0
 40
0
 41
0
  0
VERTEX
  8
0
 10
18.4239
 20
12.7798
 30
0.0
 40
0
 41
0
  0
VERTEX
  8
0
 10
18.4375
 20
12.7798
 30
0.0
 40
0
 41
0
  0
SEQEND
 8
0
  0
POLYLINE
  8
0
 62
     0
 66
     1
 10
0
 20
0
 30
0.0
 70
     1
 40
0
 41
0
  0
VERTEX
  8
0
 10
17.9375
 20
12.7798
 30
0.0
 40
0
 41
0
  0
VERTEX
  8
0
 10
17.9511
 20
12.7798
 30
0.0
 40
0
 41
0
  0
VERTEX
  8
0
 10
17.9918
 20
12.7688
 30
0.0
 40
0
 41
0
  0
VERTEX
  8
0
 10
18.0361
 20
12.7389
 30
0.0
 40
0
 41
0
  0
VERTEX
  8
0
 10
18.066
 20
12.6946
 30
0.0
 40
0
 41
0
  0
VERTEX
  8
0
 10
18.0769
 20
12.6539
 30
0.0
 40
0
 41
0
  0
VERTEX
  8
0
 10
18.0769
 20
12.6403
 30
0.0
 40
0
 41
0
  0
VERTEX
  8
0
 10
18.0769
 20
12.6267
 30
0.0
 40
0
 41
0
  0
VERTEX
  8
0
 10
18.066
 20
12.586
 30
0.0
 40
0
 41
0
  0
VERTEX
  8
0
 10
18.0361
 20
12.5417
 30
0.0
 40
0
 41
0
  0
VERTEX
  8
0
 10
17.9918
 20
12.5118
 30
0.0
 40
0
 41
0
  0
VERTEX
  8
0
 10
17.9511
 20
12.5008
 30
0.0
 40
0
 41
0
  0
VERTEX
  8
0
 10
17.9375
 20
12.5008
 30
0.0
 40
0
 41
0
  0
VERTEX
  8
0
 10
17.9239
 20
12.5008
 30
0.0
 40
0
 41
0
  0
VERTEX
  8
0
 10
17.8832
 20
12.5118
 30
0.0
 40
0
 41
0
  0
VERTEX
  8
0
 10
17.8389
 20
12.5417
 30
0.0
 40
0
 41
0
  0
VERTEX
  8
0
 10
17.809
 20
12.586
 30
0.0
 40
0
 41
0
  0
VERTEX
  8
0
 10
17.7981
 20
12.6267
 30
0.0
 40
0
 41
0
  0
VERTEX
  8
0
 10
17.7981
 20
12.6403
 30
0.0
 40
0
 41
0
  0
VERTEX
  8
0
 10
17.7981
 20
12.6539
 30
0.0
 40
0
 41
0
  0
VERTEX
  8
0
 10
17.809
 20
12.6946
 30
0.0
 40
0
 41
0
  0
VERTEX
  8
0
 10
17.8389
 20
12.7389
 30
0.0
 40
0
 41
0
  0
VERTEX
  8
0
 10
17.8832
 20
12.7688
 30
0.0
 40
0
 41
0
  0
VERTEX
  8
0
 10
17.9239
 20
12.7798
 30
0.0
 40
0
 41
0
  0
VERTEX
  8
0
 10
17.9375
 20
12.7798
 30
0.0
 40
0
 41
0
  0
SEQEND
 8
0
  0
POLYLINE
  8
0
 62
     0
 66
     1
 10
0
 20
0
 30
0.0
 70
     1
 40
0
 41
0
  0
VERTEX
  8
0
 10
13.175
 20
6.97151
 30
0.0
 40
0
 41
0
  0
VERTEX
  8
0
 10
13.245
 20
6.97151
 30
0.0
 40
0
 41
0
  0
VERTEX
  8
0
 10
13.4549
 20
6.95742
 30
0.0
 40
0
 41
0
  0
VERTEX
  8
0
 10
13.7267
 20
6.9159
 30
0.0
 40
0
 41
0
  0
VERTEX
  8
0
 10
13.989
 20
6.84847
 30
0.0
 40
0
 41
0
  0
VERTEX
  8
0
 10
14.2406
 20
6.7564
 30
0.0
 40
0
 41
0
  0
VERTEX
  8
0
 10
14.4799
 20
6.64117
 30
0.0
 40
0
 41
0
  0
VERTEX
  8
0
 10
14.7056
 20
6.50401
 30
0.0
 40
0
 41
0
  0
VERTEX
  8
0
 10
14.9162
 20
6.34646
 30
0.0
 40
0
 41
0
  0
VERTEX
  8
0
 10
15.1107
 20
6.16976
 30
0.0
 40
0
 41
0
  0
VERTEX
  8
0
 10
15.2874
 20
5.97537
 30
0.0
 40
0
 41
0
  0
VERTEX
  8
0
 10
15.445
 20
5.76465
 30
0.0
 40
0
 41
0
  0
VERTEX
  8
0
 10
15.5821
 20
5.5389
 30
0.0
 40
0
 41
0
  0
VERTEX
  8
0
 10
15.6974
 20
5.29964
 30
0.0
 40
0
 41
0
  0
VERTEX
  8
0
 10
15.7894
 20
5.04812
 30
0.0
 40
0
 41
0
  0
VERTEX
  8
0
 10
15.8568
 20
4.78575
 30
0.0
 40
0
 41
0
  0
VERTEX
  8
0
 10
15.8983
 20
4.51394
 30
0.0
 40
0
 41
0
  0
VERTEX
  8
0
 10
15.9125
 20
4.30404
 30
0.0
 40
0
 41
0
  0
VERTEX
  8
0
 10
15.9125
 20
4.23406
 30
0.0
 40
0
 41
0
  0
VERTEX
  8
0
 10
15.9125
 20
4.16411
 30
0.0
 40
0
 41
0
  0
VERTEX
  8
0
 10
15.8983
 20
3.95415
 30
0.0
 40
0
 41
0
  0
VERTEX
  8
0
 10
15.8568
 20
3.6824
 30
0.0
 40
0
 41
0
  0
VERTEX
  8
0
 10
15.7894
 20
3.42003
 30
0.0
 40
0
 41
0
  0
VERTEX
  8
0
 10
15.6974
 20
3.16851
 30
0.0
 40
0
 41
0
  0
VERTEX
  8
0
 10
15.5821
 20
2.92919
 30
0.0
 40
0
 41
0
  0
VERTEX
  8
0
 10
15.445
 20
2.7035
 30
0.0
 40
0
 41
0
  0
VERTEX
  8
0
 10
15.2874
 20
2.49278
 30
0.0
 40
0
 41
0
  0
VERTEX
  8
0
 10
15.1107
 20
2.29833
 30
0.0
 40
0
 41
0
  0
VERTEX
  8
0
 10
14.9162
 20
2.12169
 30
0.0
 40
0
 41
0
  0
VERTEX
  8
0
 10
14.7056
 20
1.96408
 30
0.0
 40
0
 41
0
  0
VERTEX
  8
0
 10
14.4799
 20
1.82699
 30
0.0
 40
0
 41
0
  0
VERTEX
  8
0
 10
14.2406
 20
1.71169
 30
0.0
 40
0
 41
0
  0
VERTEX
  8
0
 10
13.989
 20
1.61962
 30
0.0
 40
0
 41
0
  0
VERTEX
  8
0
 10
13.7267
 20
1.55219
 30
0.0
 40
0
 41
0
  0
VERTEX
  8
0
 10
13.4549
 20
1.51069
 30
0.0
 40
0
 41
0
  0
VERTEX
  8
0
 10
13.245
 20
1.49653
 30
0.0
 40
0
 41
0
  0
VERTEX
  8
0
 10
13.175
 20
1.49653
 30
0.0
 40
0
 41
0
  0
VERTEX
  8
0
 10
13.105
 20
1.49653
 30
0.0
 40
0
 41
0
  0
VERTEX
  8
0
 10
12.8951
 20
1.51069
 30
0.0
 40
0
 41
0
  0
VERTEX
  8
0
 10
12.6233
 20
1.55219
 30
0.0
 40
0
 41
0
  0
VERTEX
  8
0
 10
12.3609
 20
1.61962
 30
0.0
 40
0
 41
0
  0
VERTEX
  8
0
 10
12.1094
 20
1.71169
 30
0.0
 40
0
 41
0
  0
VERTEX
  8
0
 10
11.8701
 20
1.82699
 30
0.0
 40
0
 41
0
  0
VERTEX
  8
0
 10
11.6444
 20
1.96408
 30
0.0
 40
0
 41
0
  0
VERTEX
  8
0
 10
11.4337
 20
2.12169
 30
0.0
 40
0
 41
0
  0
VERTEX
  8
0
 10
11.2393
 20
2.29833
 30
0.0
 40
0
 41
0
  0
VERTEX
  8
0
 10
11.0626
 20
2.49278
 30
0.0
 40
0
 41
0
  0
VERTEX
  8
0
 10
10.905
 20
2.7035
 30
0.0
 40
0
 41
0
  0
VERTEX
  8
0
 10
10.7679
 20
2.92919
 30
0.0
 40
0
 41
0
  0
VERTEX
  8
0
 10
10.6526
 20
3.16851
 30
0.0
 40
0
 41
0
  0
VERTEX
  8
0
 10
10.5605
 20
3.42003
 30
0.0
 40
0
 41
0
  0
VERTEX
  8
0
 10
10.4931
 20
3.6824
 30
0.0
 40
0
 41
0
  0
VERTEX
  8
0
 10
10.4516
 20
3.95415
 30
0.0
 40
0
 41
0
  0
VERTEX
  8
0
 10
10.4375
 20
4.16411
 30
0.0
 40
0
 41
0
  0
VERTEX
  8
0
 10
10.4375
 20
4.23406
 30
0.0
 40
0
 41
0
  0
VERTEX
  8
0
 10
10.4375
 20
4.30404
 30
0.0
 40
0
 41
0
  0
VERTEX
  8
0
 10
10.4516
 20
4.51394
 30
0.0
 40
0
 41
0
  0
VERTEX
  8
0
 10
10.4931
 20
4.78575
 30
0.0
 40
0
 41
0
  0
VERTEX
  8
0
 10
10.5605
 20
5.04812
 30
0.0
 40
0
 41
0
  0
VERTEX
  8
0
 10
10.6526
 20
5.29964
 30
0.0
 40
0
 41
0
  0
VERTEX
  8
0
 10
10.7679
 20
5.5389
 30
0.0
 40
0
 41
0
  0
VERTEX
  8
0
 10
10.905
 20
5.76465
 30
0.0
 40
0
 41
0
  0
VERTEX
  8
0
 10
11.0626
 20
5.97537
 30
0.0
 40
0
 41
0
  0
VERTEX
  8
0
 10
11.2393
 20
6.16976
 30
0.0
 40
0
 41
0
  0
VERTEX
  8
0
 10
11.4337
 20
6.34646
 30
0.0
 40
0
 41
0
  0
VERTEX
  8
0
 10
11.6444
 20
6.50401
 30
0.0
 40
0
 41
0
  0
VERTEX
  8
0
 10
11.8701
 20
6.64117
 30
0.0
 40
0
 41
0
  0
VERTEX
  8
0
 10
12.1094
 20
6.7564
 30
0.0
 40
0
 41
0
  0
VERTEX
  8
0
 10
12.3609
 20
6.84847
 30
0.0
 40
0
 41
0
  0
VERTEX
  8
0
 10
12.6233
 20
6.9159
 30
0.0
 40
0
 41
0
  0
VERTEX
  8
0
 10
12.8951
 20
6.95742
 30
0.0
 40
0
 41
0
  0
VERTEX
  8
0
 10
13.105
 20
6.97151
 30
0.0
 40
0
 41
0
  0
VERTEX
  8
0
 10
13.175
 20
6.97151
 30
0.0
 40
0
 41
0
  0
SEQEND
 8
0
  0
POLYLINE
  8
0
 62
     0
 66
     1
 10
0
 20
0
 30
0.0
 70
     1
 40
0
 41
0
  0
VERTEX
  8
0
 10
14.0175
 20
11.7341
 30
0.0
 40
0
 41
0
  0
VERTEX
  8
0
 10
14.0558
 20
11.7341
 30
0.0
 40
0
 41
0
  0
VERTEX
  8
0
 10
14.1708
 20
11.7263
 30
0.0
 40
0
 41
0
  0
VERTEX
  8
0
 10
14.3197
 20
11.7036
 30
0.0
 40
0
 41
0
  0
VERTEX
  8
0
 10
14.4636
 20
11.6666
 30
0.0
 40
0
 41
0
  0
VERTEX
  8
0
 10
14.6014
 20
11.6162
 30
0.0
 40
0
 41
0
  0
VERTEX
  8
0
 10
14.7325
 20
11.553
 30
0.0
 40
0
 41
0
  0
VERTEX
  8
0
 10
14.8561
 20
11.4779
 30
0.0
 40
0
 41
0
  0
VERTEX
  8
0
 10
14.9717
 20
11.3915
 30
0.0
 40
0
 41
0
  0
VERTEX
  8
0
 10
15.0782
 20
11.2947
 30
0.0
 40
0
 41
0
  0
VERTEX
  8
0
 10
15.175
 20
11.1882
 30
0.0
 40
0
 41
0
  0
VERTEX
  8
0
 10
15.2614
 20
11.0727
 30
0.0
 40
0
 41
0
  0
VERTEX
  8
0
 10
15.3364
 20
10.9491
 30
0.0
 40
0
 41
0
  0
VERTEX
  8
0
 10
15.3996
 20
10.8179
 30
0.0
 40
0
 41
0
  0
VERTEX
  8
0
 10
15.45
 20
10.6801
 30
0.0
 40
0
 41
0
  0
VERTEX
  8
0
 10
15.4871
 20
10.5363
 30
0.0
 40
0
 41
0
  0
VERTEX
  8
0
 10
15.5097
 20
10.3874
 30
0.0
 40
0
 41
0
  0
VERTEX
  8
0
 10
15.5175
 20
10.2724
 30
0.0
 40
0
 41
0
  0
VERTEX
  8
0
 10
15.5175
 20
10.2341
 30
0.0
 40
0
 41
0
  0
VERTEX
  8
0
 10
15.5175
 20
10.1957
 30
0.0
 40
0
 41
0
  0
VERTEX
  8
0
 10
15.5097
 20
10.0807
 30
0.0
 40
0
 41
0
  0
VERTEX
  8
0
 10
15.4871
 20
9.93175
 30
0.0
 40
0
 41
0
  0
VERTEX
  8
0
 10
15.45
 20
9.78803
 30
0.0
 40
0
 41
0
  0
VERTEX
  8
0
 10
15.3996
 20
9.65018
 30
0.0
 40
0
 41
0
  0
VERTEX
  8
0
 10
15.3364
 20
9.5191
 30
0.0
 40
0
 41
0
  0
VERTEX
  8
0
 10
15.2614
 20
9.3954
 30
0.0
 40
0
 41
0
  0
VERTEX
  8
0
 10
15.175
 20
9.27994
 30
0.0
 40
0
 41
0
  0
VERTEX
  8
0
 10
15.0782
 20
9.17339
 30
0.0
 40
0
 41
0
  0
VERTEX
  8
0
 10
14.9717
 20
9.07661
 30
0.0
 40
0
 41
0
  0
VERTEX
  8
0
 10
14.8561
 20
8.99024
 30
0.0
 40
0
 41
0
  0
VERTEX
  8
0
 10
14.7325
 20
8.9151
 30
0.0
 40
0
 41
0
  0
VERTEX
  8
0
 10
14.6014
 20
8.85194
 30
0.0
 40
0
 41
0
  0
VERTEX
  8
0
 10
14.4636
 20
8.80149
 30
0.0
 40
0
 41
0
  0
VERTEX
  8
0
 10
14.3197
 20
8.76454
 30
0.0
 40
0
 41
0
  0
VERTEX
  8
0
 10
14.1708
 20
8.74181
 30
0.0
 40
0
 41
0
  0
VERTEX
  8
0
 10
14.0558
 20
8.73406
 30
0.0
 40
0
 41
0
  0
VERTEX
  8
0
 10
14.0175
 20
8.73406
 30
0.0
 40
0
 41
0
  0
VERTEX
  8
0
 10
13.9792
 20
8.73406
 30
0.0
 40
0
 41
0
  0
VERTEX
  8
0
 10
13.8642
 20
8.74181
 30
0.0
 40
0
 41
0
  0
VERTEX
  8
0
 10
13.7152
 20
8.76454
 30
0.0
 40
0
 41
0
  0
VERTEX
  8
0
 10
13.5715
 20
8.80149
 30
0.0
 40
0
 41
0
  0
VERTEX
  8
0
 10
13.4336
 20
8.85194
 30
0.0
 40
0
 41
0
  0
VERTEX
  8
0
 10
13.3025
 20
8.9151
 30
0.0
 40
0
 41
0
  0
VERTEX
  8
0
 10
13.1788
 20
8.99024
 30
0.0
 40
0
 41
0
  0
VERTEX
  8
0
 10
13.0634
 20
9.07661
 30
0.0
 40
0
 41
0
  0
VERTEX
  8
0
 10
12.9568
 20
9.17339
 30
0.0
 40
0
 41
0
  0
VERTEX
  8
0
 10
12.86
 20
9.27994
 30
0.0
 40
0
 41
0
  0
VERTEX
  8
0
 10
12.7737
 20
9.3954
 30
0.0
 40
0
 41
0
  0
VERTEX
  8
0
 10
12.6985
 20
9.5191
 30
0.0
 40
0
 41
0
  0
VERTEX
  8
0
 10
12.6354
 20
9.65018
 30
0.0
 40
0
 41
0
  0
VERTEX
  8
0
 10
12.5849
 20
9.78803
 30
0.0
 40
0
 41
0
  0
VERTEX
  8
0
 10
12.548
 20
9.93175
 30
0.0
 40
0
 41
0
  0
VERTEX
  8
0
 10
12.5252
 20
10.0807
 30
0.0
 40
0
 41
0
  0
VERTEX
  8
0
 10
12.5175
 20
10.1957
 30
0.0
 40
0
 41
0
  0
VERTEX
  8
0
 10
12.5175
 20
10.2341
 30
0.0
 40
0
 41
0
  0
VERTEX
  8
0
 10
12.5175
 20
10.2724
 30
0.0
 40
0
 41
0
  0
VERTEX
  8
0
 10
12.5252
 20
10.3874
 30
0.0
 40
0
 41
0
  0
VERTEX
  8
0
 10
12.548
 20
10.5363
 30
0.0
 40
0
 41
0
  0
VERTEX
  8
0
 10
12.5849
 20
10.6801
 30
0.0
 40
0
 41
0
  0
VERTEX
  8
0
 10
12.6354
 20
10.8179
 30
0.0
 40
0
 41
0
  0
VERTEX
  8
0
 10
12.6985
 20
10.9491
 30
0.0
 40
0
 41
0
  0
VERTEX
  8
0
 10
12.7737
 20
11.0727
 30
0.0
 40
0
 41
0
  0
VERTEX
  8
0
 10
12.86
 20
11.1882
 30
0.0
 40
0
 41
0
  0
VERTEX
  8
0
 10
12.9568
 20
11.2947
 30
0.0
 40
0
 41
0
  0
VERTEX
  8
0
 10
13.0634
 20
11.3915
 30
0.0
 40
0
 41
0
  0
VERTEX
  8
0
 10
13.1788
 20
11.4779
 30
0.0
 40
0
 41
0
  0
VERTEX
  8
0
 10
13.3025
 20
11.553
 30
0.0
 40
0
 41
0
  0
VERTEX
  8
0
 10
13.4336
 20
11.6162
 30
0.0
 40
0
 41
0
  0
VERTEX
  8
0
 10
13.5715
 20
11.6666
 30
0.0
 40
0
 41
0
  0
VERTEX
  8
0
 10
13.7152
 20
11.7036
 30
0.0
 40
0
 41
0
  0
VERTEX
  8
0
 10
13.8642
 20
11.7263
 30
0.0
 40
0
 41
0
  0
VERTEX
  8
0
 10
13.9792
 20
11.7341
 30
0.0
 40
0
 41
0
  0
VERTEX
  8
0
 10
14.0175
 20
11.7341
 30
0.0
 40
0
 41
0
  0
SEQEND
 8
0
  0
POLYLINE
  8
0
 62
     0
 66
     1
 10
0
 20
0
 30
0.0
 70
     1
 40
0
 41
0
  0
VERTEX
  8
0
 10
14.9246
 20
12.7002
 30
0.0
 40
0
 41
0
  0
VERTEX
  8
0
 10
14.934
 20
12.7002
 30
0.0
 40
0
 41
0
  0
VERTEX
  8
0
 10
14.9622
 20
12.6926
 30
0.0
 40
0
 41
0
  0
VERTEX
  8
0
 10
14.9929
 20
12.6719
 30
0.0
 40
0
 41
0
  0
VERTEX
  8
0
 10
15.0136
 20
12.6412
 30
0.0
 40
0
 41
0
  0
VERTEX
  8
0
 10
15.0214
 20
12.6129
 30
0.0
 40
0
 41
0
  0
VERTEX
  8
0
 10
15.0214
 20
12.6035
 30
0.0
 40
0
 41
0
  0
VERTEX
  8
0
 10
15.0214
 20
12.5941
 30
0.0
 40
0
 41
0
  0
VERTEX
  8
0
 10
15.0136
 20
12.5658
 30
0.0
 40
0
 41
0
  0
VERTEX
  8
0
 10
14.9929
 20
12.5351
 30
0.0
 40
0
 41
0
  0
VERTEX
  8
0
 10
14.9622
 20
12.5144
 30
0.0
 40
0
 41
0
  0
VERTEX
  8
0
 10
14.934
 20
12.5067
 30
0.0
 40
0
 41
0
  0
VERTEX
  8
0
 10
14.9246
 20
12.5067
 30
0.0
 40
0
 41
0
  0
VERTEX
  8
0
 10
14.9151
 20
12.5067
 30
0.0
 40
0
 41
0
  0
VERTEX
  8
0
 10
14.8869
 20
12.5144
 30
0.0
 40
0
 41
0
  0
VERTEX
  8
0
 10
14.8561
 20
12.5351
 30
0.0
 40
0
 41
0
  0
VERTEX
  8
0
 10
14.8354
 20
12.5658
 30
0.0
 40
0
 41
0
  0
VERTEX
  8
0
 10
14.8279
 20
12.5941
 30
0.0
 40
0
 41
0
  0
VERTEX
  8
0
 10
14.8279
 20
12.6035
 30
0.0
 40
0
 41
0
  0
VERTEX
  8
0
 10
14.8279
 20
12.6129
 30
0.0
 40
0
 41
0
  0
VERTEX
  8
0
 10
14.8354
 20
12.6412
 30
0.0
 40
0
 41
0
  0
VERTEX
  8
0
 10
14.8561
 20
12.6719
 30
0.0
 40
0
 41
0
  0
VERTEX
  8
0
 10
14.8869
 20
12.6926
 30
0.0
 40
0
 41
0
  0
VERTEX
  8
0
 10
14.9151
 20
12.7002
 30
0.0
 40
0
 41
0
  0
VERTEX
  8
0
 10
14.9246
 20
12.7002
 30
0.0
 40
0
 41
0
  0
SEQEND
 8
0
  0
POLYLINE
  8
0
 62
     0
 66
     1
 10
0
 20
0
 30
0.0
 70
     1
 40
0
 41
0
  0
VERTEX
  8
0
 10
12.7996
 20
12.7002
 30
0.0
 40
0
 41
0
  0
VERTEX
  8
0
 10
12.809
 20
12.7002
 30
0.0
 40
0
 41
0
  0
VERTEX
  8
0
 10
12.8372
 20
12.6926
 30
0.0
 40
0
 41
0
  0
VERTEX
  8
0
 10
12.8679
 20
12.6719
 30
0.0
 40
0
 41
0
  0
VERTEX
  8
0
 10
12.8887
 20
12.6412
 30
0.0
 40
0
 41
0
  0
VERTEX
  8
0
 10
12.8963
 20
12.6129
 30
0.0
 40
0
 41
0
  0
VERTEX
  8
0
 10
12.8963
 20
12.6035
 30
0.0
 40
0
 41
0
  0
VERTEX
  8
0
 10
12.8963
 20
12.5941
 30
0.0
 40
0
 41
0
  0
VERTEX
  8
0
 10
12.8887
 20
12.5658
 30
0.0
 40
0
 41
0
  0
VERTEX
  8
0
 10
12.8679
 20
12.5351
 30
0.0
 40
0
 41
0
  0
VERTEX
  8
0
 10
12.8372
 20
12.5144
 30
0.0
 40
0
 41
0
  0
VERTEX
  8
0
 10
12.809
 20
12.5067
 30
0.0
 40
0
 41
0
  0
VERTEX
  8
0
 10
12.7996
 20
12.5067
 30
0.0
 40
0
 41
0
  0
VERTEX
  8
0
 10
12.7902
 20
12.5067
 30
0.0
 40
0
 41
0
  0
VERTEX
  8
0
 10
12.7619
 20
12.5144
 30
0.0
 40
0
 41
0
  0
VERTEX
  8
0
 10
12.7312
 20
12.5351
 30
0.0
 40
0
 41
0
  0
VERTEX
  8
0
 10
12.7104
 20
12.5658
 30
0.0
 40
0
 41
0
  0
VERTEX
  8
0
 10
12.7028
 20
12.5941
 30
0.0
 40
0
 41
0
  0
VERTEX
  8
0
 10
12.7028
 20
12.6035
 30
0.0
 40
0
 41
0
  0
VERTEX
  8
0
 10
12.7028
 20
12.6129
 30
0.0
 40
0
 41
0
  0
VERTEX
  8
0
 10
12.7104
 20
12.6412
 30
0.0
 40
0
 41
0
  0
VERTEX
  8
0
 10
12.7312
 20
12.6719
 30
0.0
 40
0
 41
0
  0
VERTEX
  8
0
 10
12.7619
 20
12.6926
 30
0.0
 40
0
 41
0
  0
VERTEX
  8
0
 10
12.7902
 20
12.7002
 30
0.0
 40
0
 41
0
  0
VERTEX
  8
0
 10
12.7996
 20
12.7002
 30
0.0
 40
0
 41
0
  0
SEQEND
 8
0
  0
POLYLINE
  8
0
 62
     0
 66
     1
 10
0
 20
0
 30
0.0
 70
     1
 40
0
 41
0
  0
VERTEX
  8
0
 10
18.4375
 20
11.85
 30
0.0
 40
0
 41
0
  0
VERTEX
  8
0
 10
18.4457
 20
11.85
 30
0.0
 40
0
 41
0
  0
VERTEX
  8
0
 10
18.4706
 20
11.8434
 30
0.0
 40
0
 41
0
  0
VERTEX
  8
0
 10
18.4974
 20
11.8253
 30
0.0
 40
0
 41
0
  0
VERTEX
  8
0
 10
18.5156
 20
11.7983
 30
0.0
 40
0
 41
0
  0
VERTEX
  8
0
 10
18.5222
 20
11.7735
 30
0.0
 40
0
 41
0
  0
VERTEX
  8
0
 10
18.5222
 20
11.7653
 30
0.0
 40
0
 41
0
  0
VERTEX
  8
0
 10
18.5222
 20
11.7571
 30
0.0
 40
0
 41
0
  0
VERTEX
  8
0
 10
18.5156
 20
11.7323
 30
0.0
 40
0
 41
0
  0
VERTEX
  8
0
 10
18.4974
 20
11.7053
 30
0.0
 40
0
 41
0
  0
VERTEX
  8
0
 10
18.4706
 20
11.6872
 30
0.0
 40
0
 41
0
  0
VERTEX
  8
0
 10
18.4457
 20
11.6805
 30
0.0
 40
0
 41
0
  0
VERTEX
  8
0
 10
18.4375
 20
11.6805
 30
0.0
 40
0
 41
0
  0
VERTEX
  8
0
 10
18.4292
 20
11.6805
 30
0.0
 40
0
 41
0
  0
VERTEX
  8
0
 10
18.4044
 20
11.6872
 30
0.0
 40
0
 41
0
  0
VERTEX
  8
0
 10
18.3775
 20
11.7053
 30
0.0
 40
0
 41
0
  0
VERTEX
  8
0
 10
18.3594
 20
11.7323
 30
0.0
 40
0
 41
0
  0
VERTEX
  8
0
 10
18.3528
 20
11.7571
 30
0.0
 40
0
 41
0
  0
VERTEX
  8
0
 10
18.3528
 20
11.7653
 30
0.0
 40
0
 41
0
  0
VERTEX
  8
0
 10
18.3528
 20
11.7735
 30
0.0
 40
0
 41
0
  0
VERTEX
  8
0
 10
18.3594
 20
11.7983
 30
0.0
 40
0
 41
0
  0
VERTEX
  8
0
 10
18.3775
 20
11.8253
 30
0.0
 40
0
 41
0
  0
VERTEX
  8
0
 10
18.4044
 20
11.8434
 30
0.0
 40
0
 41
0
  0
VERTEX
  8
0
 10
18.4292
 20
11.85
 30
0.0
 40
0
 41
0
  0
VERTEX
  8
0
 10
18.4375
 20
11.85
 30
0.0
 40
0
 41
0
  0
SEQEND
 8
0
  0
POLYLINE
  8
0
 62
     0
 66
     1
 10
0
 20
0
 30
0.0
 70
     1
 40
0
 41
0
  0
VERTEX
  8
0
 10
17.9375
 20
11.85
 30
0.0
 40
0
 41
0
  0
VERTEX
  8
0
 10
17.9457
 20
11.85
 30
0.0
 40
0
 41
0
  0
VERTEX
  8
0
 10
17.9706
 20
11.8434
 30
0.0
 40
0
 41
0
  0
VERTEX
  8
0
 10
17.9974
 20
11.8253
 30
0.0
 40
0
 41
0
  0
VERTEX
  8
0
 10
18.0156
 20
11.7983
 30
0.0
 40
0
 41
0
  0
VERTEX
  8
0
 10
18.0222
 20
11.7735
 30
0.0
 40
0
 41
0
  0
VERTEX
  8
0
 10
18.0222
 20
11.7653
 30
0.0
 40
0
 41
0
  0
VERTEX
  8
0
 10
18.0222
 20
11.7571
 30
0.0
 40
0
 41
0
  0
VERTEX
  8
0
 10
18.0156
 20
11.7323
 30
0.0
 40
0
 41
0
  0
VERTEX
  8
0
 10
17.9974
 20
11.7053
 30
0.0
 40
0
 41
0
  0
VERTEX
  8
0
 10
17.9706
 20
11.6872
 30
0.0
 40
0
 41
0
  0
VERTEX
  8
0
 10
17.9457
 20
11.6805
 30
0.0
 40
0
 41
0
  0
VERTEX
  8
0
 10
17.9375
 20
11.6805
 30
0.0
 40
0
 41
0
  0
VERTEX
  8
0
 10
17.9292
 20
11.6805
 30
0.0
 40
0
 41
0
  0
VERTEX
  8
0
 10
17.9044
 20
11.6872
 30
0.0
 40
0
 41
0
  0
VERTEX
  8
0
 10
17.8775
 20
11.7053
 30
0.0
 40
0
 41
0
  0
VERTEX
  8
0
 10
17.8594
 20
11.7323
 30
0.0
 40
0
 41
0
  0
VERTEX
  8
0
 10
17.8528
 20
11.7571
 30
0.0
 40
0
 41
0
  0
VERTEX
  8
0
 10
17.8528
 20
11.7653
 30
0.0
 40
0
 41
0
  0
VERTEX
  8
0
 10
17.8528
 20
11.7735
 30
0.0
 40
0
 41
0
  0
VERTEX
  8
0
 10
17.8594
 20
11.7983
 30
0.0
 40
0
 41
0
  0
VERTEX
  8
0
 10
17.8775
 20
11.8253
 30
0.0
 40
0
 41
0
  0
VERTEX
  8
0
 10
17.9044
 20
11.8434
 30
0.0
 40
0
 41
0
  0
VERTEX
  8
0
 10
17.9292
 20
11.85
 30
0.0
 40
0
 41
0
  0
VERTEX
  8
0
 10
17.9375
 20
11.85
 30
0.0
 40
0
 41
0
  0
SEQEND
 8
0
  0
POLYLINE
  8
0
 62
     0
 66
     1
 10
0
 20
0
 30
0.0
 70
     1
 40
0
 41
0
  0
VERTEX
  8
0
 10
18.4375
 20
2.35004
 30
0.0
 40
0
 41
0
  0
VERTEX
  8
0
 10
18.4457
 20
2.35004
 30
0.0
 40
0
 41
0
  0
VERTEX
  8
0
 10
18.4706
 20
2.34343
 30
0.0
 40
0
 41
0
  0
VERTEX
  8
0
 10
18.4974
 20
2.32525
 30
0.0
 40
0
 41
0
  0
VERTEX
  8
0
 10
18.5156
 20
2.29829
 30
0.0
 40
0
 41
0
  0
VERTEX
  8
0
 10
18.5222
 20
2.27354
 30
0.0
 40
0
 41
0
  0
VERTEX
  8
0
 10
18.5222
 20
2.26531
 30
0.0
 40
0
 41
0
  0
VERTEX
  8
0
 10
18.5222
 20
2.25706
 30
0.0
 40
0
 41
0
  0
VERTEX
  8
0
 10
18.5156
 20
2.23232
 30
0.0
 40
0
 41
0
  0
VERTEX
  8
0
 10
18.4974
 20
2.20535
 30
0.0
 40
0
 41
0
  0
VERTEX
  8
0
 10
18.4706
 20
2.18718
 30
0.0
 40
0
 41
0
  0
VERTEX
  8
0
 10
18.4457
 20
2.1805
 30
0.0
 40
0
 41
0
  0
VERTEX
  8
0
 10
18.4375
 20
2.1805
 30
0.0
 40
0
 41
0
  0
VERTEX
  8
0
 10
18.4292
 20
2.1805
 30
0.0
 40
0
 41
0
  0
VERTEX
  8
0
 10
18.4044
 20
2.18718
 30
0.0
 40
0
 41
0
  0
VERTEX
  8
0
 10
18.3775
 20
2.20535
 30
0.0
 40
0
 41
0
  0
VERTEX
  8
0
 10
18.3594
 20
2.23232
 30
0.0
 40
0
 41
0
  0
VERTEX
  8
0
 10
18.3528
 20
2.25706
 30
0.0
 40
0
 41
0
  0
VERTEX
  8
0
 10
18.3528
 20
2.26531
 30
0.0
 40
0
 41
0
  0
VERTEX
  8
0
 10
18.3528
 20
2.27354
 30
0.0
 40
0
 41
0
  0
VERTEX
  8
0
 10
18.3594
 20
2.29829
 30
0.0
 40
0
 41
0
  0
VERTEX
  8
0
 10
18.3775
 20
2.32525
 30
0.0
 40
0
 41
0
  0
VERTEX
  8
0
 10
18.4044
 20
2.34343
 30
0.0
 40
0
 41
0
  0
VERTEX
  8
0
 10
18.4292
 20
2.35004
 30
0.0
 40
0
 41
0
  0
VERTEX
  8
0
 10
18.4375
 20
2.35004
 30
0.0
 40
0
 41
0
  0
SEQEND
 8
0
  0
POLYLINE
  8
0
 62
     0
 66
     1
 10
0
 20
0
 30
0.0
 70
     1
 40
0
 41
0
  0
VERTEX
  8
0
 10
17.9375
 20
2.35004
 30
0.0
 40
0
 41
0
  0
VERTEX
  8
0
 10
17.9457
 20
2.35004
 30
0.0
 40
0
 41
0
  0
VERTEX
  8
0
 10
17.9706
 20
2.34343
 30
0.0
 40
0
 41
0
  0
VERTEX
  8
0
 10
17.9974
 20
2.32525
 30
0.0
 40
0
 41
0
  0
VERTEX
  8
0
 10
18.0156
 20
2.29829
 30
0.0
 40
0
 41
0
  0
VERTEX
  8
0
 10
18.0222
 20
2.27354
 30
0.0
 40
0
 41
0
  0
VERTEX
  8
0
 10
18.0222
 20
2.26531
 30
0.0
 40
0
 41
0
  0
VERTEX
  8
0
 10
18.0222
 20
2.25706
 30
0.0
 40
0
 41
0
  0
VERTEX
  8
0
 10
18.0156
 20
2.23232
 30
0.0
 40
0
 41
0
  0
VERTEX
  8
0
 10
17.9974
 20
2.20535
 30
0.0
 40
0
 41
0
  0
VERTEX
  8
0
 10
17.9706
 20
2.18718
 30
0.0
 40
0
 41
0
  0
VERTEX
  8
0
 10
17.9457
 20
2.1805
 30
0.0
 40
0
 41
0
  0
VERTEX
  8
0
 10
17.9375
 20
2.1805
 30
0.0
 40
0
 41
0
  0
VERTEX
  8
0
 10
17.9292
 20
2.1805
 30
0.0
 40
0
 41
0
  0
VERTEX
  8
0
 10
17.9044
 20
2.18718
 30
0.0
 40
0
 41
0
  0
VERTEX
  8
0
 10
17.8775
 20
2.20535
 30
0.0
 40
0
 41
0
  0
VERTEX
  8
0
 10
17.8594
 20
2.23232
 30
0.0
 40
0
 41
0
  0
VERTEX
  8
0
 10
17.8528
 20
2.25706
 30
0.0
 40
0
 41
0
  0
VERTEX
  8
0
 10
17.8528
 20
2.26531
 30
0.0
 40
0
 41
0
  0
VERTEX
  8
0
 10
17.8528
 20
2.27354
 30
0.0
 40
0
 41
0
  0
VERTEX
  8
0
 10
17.8594
 20
2.29829
 30
0.0
 40
0
 41
0
  0
VERTEX
  8
0
 10
17.8775
 20
2.32525
 30
0.0
 40
0
 41
0
  0
VERTEX
  8
0
 10
17.9044
 20
2.34343
 30
0.0
 40
0
 41
0
  0
VERTEX
  8
0
 10
17.9292
 20
2.35004
 30
0.0
 40
0
 41
0
  0
VERTEX
  8
0
 10
17.9375
 20
2.35004
 30
0.0
 40
0
 41
0
  0
SEQEND
 8
0
  0
POLYLINE
  8
0
 62
     0
 66
     1
 10
0
 20
0
 30
0.0
 70
     1
 40
0
 41
0
  0
VERTEX
  8
0
 10
18.4375
 20
1.27978
 30
0.0
 40
0
 41
0
  0
VERTEX
  8
0
 10
18.4511
 20
1.27978
 30
0.0
 40
0
 41
0
  0
VERTEX
  8
0
 10
18.4918
 20
1.26883
 30
0.0
 40
0
 41
0
  0
VERTEX
  8
0
 10
18.5361
 20
1.23893
 30
0.0
 40
0
 41
0
  0
VERTEX
  8
0
 10
18.566
 20
1.19461
 30
0.0
 40
0
 41
0
  0
VERTEX
  8
0
 10
18.5769
 20
1.15392
 30
0.0
 40
0
 41
0
  0
VERTEX
  8
0
 10
18.5769
 20
1.1403
 30
0.0
 40
0
 41
0
  0
VERTEX
  8
0
 10
18.5769
 20
1.12674
 30
0.0
 40
0
 41
0
  0
VERTEX
  8
0
 10
18.566
 20
1.08605
 30
0.0
 40
0
 41
0
  0
VERTEX
  8
0
 10
18.5361
 20
1.04167
 30
0.0
 40
0
 41
0
  0
VERTEX
  8
0
 10
18.4918
 20
1.01177
 30
0.0
 40
0
 41
0
  0
VERTEX
  8
0
 10
18.4511
 20
1.00076
 30
0.0
 40
0
 41
0
  0
VERTEX
  8
0
 10
18.4375
 20
1.00076
 30
0.0
 40
0
 41
0
  0
VERTEX
  8
0
 10
18.4239
 20
1.00076
 30
0.0
 40
0
 41
0
  0
VERTEX
  8
0
 10
18.3832
 20
1.01177
 30
0.0
 40
0
 41
0
  0
VERTEX
  8
0
 10
18.3389
 20
1.04167
 30
0.0
 40
0
 41
0
  0
VERTEX
  8
0
 10
18.309
 20
1.08605
 30
0.0
 40
0
 41
0
  0
VERTEX
  8
0
 10
18.2981
 20
1.12674
 30
0.0
 40
0
 41
0
  0
VERTEX
  8
0
 10
18.2981
 20
1.1403
 30
0.0
 40
0
 41
0
  0
VERTEX
  8
0
 10
18.2981
 20
1.15392
 30
0.0
 40
0
 41
0
  0
VERTEX
  8
0
 10
18.309
 20
1.19461
 30
0.0
 40
0
 41
0
  0
VERTEX
  8
0
 10
18.3389
 20
1.23893
 30
0.0
 40
0
 41
0
  0
VERTEX
  8
0
 10
18.3832
 20
1.26883
 30
0.0
 40
0
 41
0
  0
VERTEX
  8
0
 10
18.4239
 20
1.27978
 30
0.0
 40
0
 41
0
  0
VERTEX
  8
0
 10
18.4375
 20
1.27978
 30
0.0
 40
0
 41
0
  0
SEQEND
 8
0
  0
POLYLINE
  8
0
 62
     0
 66
     1
 10
0
 20
0
 30
0.0
 70
     1
 40
0
 41
0
  0
VERTEX
  8
0
 10
10.53
 20
10.6745
 30
0.0
 40
0
 41
0
  0
VERTEX
  8
0
 10
10.5394
 20
10.6745
 30
0.0
 40
0
 41
0
  0
VERTEX
  8
0
 10
10.5677
 20
10.6669
 30
0.0
 40
0
 41
0
  0
VERTEX
  8
0
 10
10.5984
 20
10.6462
 30
0.0
 40
0
 41
0
  0
VERTEX
  8
0
 10
10.6191
 20
10.6155
 30
0.0
 40
0
 41
0
  0
VERTEX
  8
0
 10
10.6267
 20
10.5872
 30
0.0
 40
0
 41
0
  0
VERTEX
  8
0
 10
10.6267
 20
10.5778
 30
0.0
 40
0
 41
0
  0
VERTEX
  8
0
 10
10.6267
 20
10.5684
 30
0.0
 40
0
 41
0
  0
VERTEX
  8
0
 10
10.6191
 20
10.5402
 30
0.0
 40
0
 41
0
  0
VERTEX
  8
0
 10
10.5984
 20
10.5094
 30
0.0
 40
0
 41
0
  0
VERTEX
  8
0
 10
10.5677
 20
10.4887
 30
0.0
 40
0
 41
0
  0
VERTEX
  8
0
 10
10.5394
 20
10.481
 30
0.0
 40
0
 41
0
  0
VERTEX
  8
0
 10
10.53
 20
10.481
 30
0.0
 40
0
 41
0
  0
VERTEX
  8
0
 10
10.5206
 20
10.481
 30
0.0
 40
0
 41
0
  0
VERTEX
  8
0
 10
10.4923
 20
10.4887
 30
0.0
 40
0
 41
0
  0
VERTEX
  8
0
 10
10.4616
 20
10.5094
 30
0.0
 40
0
 41
0
  0
VERTEX
  8
0
 10
10.4409
 20
10.5402
 30
0.0
 40
0
 41
0
  0
VERTEX
  8
0
 10
10.4333
 20
10.5684
 30
0.0
 40
0
 41
0
  0
VERTEX
  8
0
 10
10.4333
 20
10.5778
 30
0.0
 40
0
 41
0
  0
VERTEX
  8
0
 10
10.4333
 20
10.5872
 30
0.0
 40
0
 41
0
  0
VERTEX
  8
0
 10
10.4409
 20
10.6155
 30
0.0
 40
0
 41
0
  0
VERTEX
  8
0
 10
10.4616
 20
10.6462
 30
0.0
 40
0
 41
0
  0
VERTEX
  8
0
 10
10.4923
 20
10.6669
 30
0.0
 40
0
 41
0
  0
VERTEX
  8
0
 10
10.5206
 20
10.6745
 30
0.0
 40
0
 41
0
  0
VERTEX
  8
0
 10
10.53
 20
10.6745
 30
0.0
 40
0
 41
0
  0
SEQEND
 8
0
  0
POLYLINE
  8
0
 62
     0
 66
     1
 10
0
 20
0
 30
0.0
 70
     1
 40
0
 41
0
  0
VERTEX
  8
0
 10
10.53
 20
12.764
 30
0.0
 40
0
 41
0
  0
VERTEX
  8
0
 10
10.5394
 20
12.764
 30
0.0
 40
0
 41
0
  0
VERTEX
  8
0
 10
10.5677
 20
12.7564
 30
0.0
 40
0
 41
0
  0
VERTEX
  8
0
 10
10.5984
 20
12.7357
 30
0.0
 40
0
 41
0
  0
VERTEX
  8
0
 10
10.6191
 20
12.705
 30
0.0
 40
0
 41
0
  0
VERTEX
  8
0
 10
10.6267
 20
12.6767
 30
0.0
 40
0
 41
0
  0
VERTEX
  8
0
 10
10.6267
 20
12.6673
 30
0.0
 40
0
 41
0
  0
VERTEX
  8
0
 10
10.6267
 20
12.6579
 30
0.0
 40
0
 41
0
  0
VERTEX
  8
0
 10
10.6191
 20
12.6296
 30
0.0
 40
0
 41
0
  0
VERTEX
  8
0
 10
10.5984
 20
12.5988
 30
0.0
 40
0
 41
0
  0
VERTEX
  8
0
 10
10.5677
 20
12.5781
 30
0.0
 40
0
 41
0
  0
VERTEX
  8
0
 10
10.5394
 20
12.5705
 30
0.0
 40
0
 41
0
  0
VERTEX
  8
0
 10
10.53
 20
12.5705
 30
0.0
 40
0
 41
0
  0
VERTEX
  8
0
 10
10.5206
 20
12.5705
 30
0.0
 40
0
 41
0
  0
VERTEX
  8
0
 10
10.4923
 20
12.5781
 30
0.0
 40
0
 41
0
  0
VERTEX
  8
0
 10
10.4616
 20
12.5988
 30
0.0
 40
0
 41
0
  0
VERTEX
  8
0
 10
10.4409
 20
12.6296
 30
0.0
 40
0
 41
0
  0
VERTEX
  8
0
 10
10.4333
 20
12.6579
 30
0.0
 40
0
 41
0
  0
VERTEX
  8
0
 10
10.4333
 20
12.6673
 30
0.0
 40
0
 41
0
  0
VERTEX
  8
0
 10
10.4333
 20
12.6767
 30
0.0
 40
0
 41
0
  0
VERTEX
  8
0
 10
10.4409
 20
12.705
 30
0.0
 40
0
 41
0
  0
VERTEX
  8
0
 10
10.4616
 20
12.7357
 30
0.0
 40
0
 41
0
  0
VERTEX
  8
0
 10
10.4923
 20
12.7564
 30
0.0
 40
0
 41
0
  0
VERTEX
  8
0
 10
10.5206
 20
12.764
 30
0.0
 40
0
 41
0
  0
VERTEX
  8
0
 10
10.53
 20
12.764
 30
0.0
 40
0
 41
0
  0
SEQEND
 8
0
  0
POLYLINE
  8
0
 62
     0
 66
     1
 10
0
 20
0
 30
0.0
 70
     1
 40
0
 41
0
  0
VERTEX
  8
0
 10
16.7875
 20
3.07781
 30
0.0
 40
0
 41
0
  0
VERTEX
  8
0
 10
16.7936
 20
3.07781
 30
0.0
 40
0
 41
0
  0
VERTEX
  8
0
 10
16.8118
 20
3.07292
 30
0.0
 40
0
 41
0
  0
VERTEX
  8
0
 10
16.8317
 20
3.05951
 30
0.0
 40
0
 41
0
  0
VERTEX
  8
0
 10
16.845
 20
3.03965
 30
0.0
 40
0
 41
0
  0
VERTEX
  8
0
 10
16.85
 20
3.02143
 30
0.0
 40
0
 41
0
  0
VERTEX
  8
0
 10
16.85
 20
3.01531
 30
0.0
 40
0
 41
0
  0
VERTEX
  8
0
 10
16.85
 20
3.00922
 30
0.0
 40
0
 41
0
  0
VERTEX
  8
0
 10
16.845
 20
2.991
 30
0.0
 40
0
 41
0
  0
VERTEX
  8
0
 10
16.8317
 20
2.97114
 30
0.0
 40
0
 41
0
  0
VERTEX
  8
0
 10
16.8118
 20
2.95774
 30
0.0
 40
0
 41
0
  0
VERTEX
  8
0
 10
16.7936
 20
2.95281
 30
0.0
 40
0
 41
0
  0
VERTEX
  8
0
 10
16.7875
 20
2.95281
 30
0.0
 40
0
 41
0
  0
VERTEX
  8
0
 10
16.7814
 20
2.95281
 30
0.0
 40
0
 41
0
  0
VERTEX
  8
0
 10
16.7632
 20
2.95774
 30
0.0
 40
0
 41
0
  0
VERTEX
  8
0
 10
16.7433
 20
2.97114
 30
0.0
 40
0
 41
0
  0
VERTEX
  8
0
 10
16.7299
 20
2.991
 30
0.0
 40
0
 41
0
  0
VERTEX
  8
0
 10
16.725
 20
3.00922
 30
0.0
 40
0
 41
0
  0
VERTEX
  8
0
 10
16.725
 20
3.01531
 30
0.0
 40
0
 41
0
  0
VERTEX
  8
0
 10
16.725
 20
3.02143
 30
0.0
 40
0
 41
0
  0
VERTEX
  8
0
 10
16.7299
 20
3.03965
 30
0.0
 40
0
 41
0
  0
VERTEX
  8
0
 10
16.7433
 20
3.05951
 30
0.0
 40
0
 41
0
  0
VERTEX
  8
0
 10
16.7632
 20
3.07292
 30
0.0
 40
0
 41
0
  0
VERTEX
  8
0
 10
16.7814
 20
3.07781
 30
0.0
 40
0
 41
0
  0
VERTEX
  8
0
 10
16.7875
 20
3.07781
 30
0.0
 40
0
 41
0
  0
SEQEND
 8
0
  0
POLYLINE
  8
0
 62
     0
 66
     1
 10
0
 20
0
 30
0.0
 70
     1
 40
0
 41
0
  0
VERTEX
  8
0
 10
16.7875
 20
7.39031
 30
0.0
 40
0
 41
0
  0
VERTEX
  8
0
 10
16.7936
 20
7.39031
 30
0.0
 40
0
 41
0
  0
VERTEX
  8
0
 10
16.8118
 20
7.38542
 30
0.0
 40
0
 41
0
  0
VERTEX
  8
0
 10
16.8317
 20
7.37201
 30
0.0
 40
0
 41
0
  0
VERTEX
  8
0
 10
16.845
 20
7.35215
 30
0.0
 40
0
 41
0
  0
VERTEX
  8
0
 10
16.85
 20
7.33393
 30
0.0
 40
0
 41
0
  0
VERTEX
  8
0
 10
16.85
 20
7.32781
 30
0.0
 40
0
 41
0
  0
VERTEX
  8
0
 10
16.85
 20
7.32172
 30
0.0
 40
0
 41
0
  0
VERTEX
  8
0
 10
16.845
 20
7.3035
 30
0.0
 40
0
 41
0
  0
VERTEX
  8
0
 10
16.8317
 20
7.28364
 30
0.0
 40
0
 41
0
  0
VERTEX
  8
0
 10
16.8118
 20
7.27024
 30
0.0
 40
0
 41
0
  0
VERTEX
  8
0
 10
16.7936
 20
7.26531
 30
0.0
 40
0
 41
0
  0
VERTEX
  8
0
 10
16.7875
 20
7.26531
 30
0.0
 40
0
 41
0
  0
VERTEX
  8
0
 10
16.7814
 20
7.26531
 30
0.0
 40
0
 41
0
  0
VERTEX
  8
0
 10
16.7632
 20
7.27024
 30
0.0
 40
0
 41
0
  0
VERTEX
  8
0
 10
16.7433
 20
7.28364
 30
0.0
 40
0
 41
0
  0
VERTEX
  8
0
 10
16.7299
 20
7.3035
 30
0.0
 40
0
 41
0
  0
VERTEX
  8
0
 10
16.725
 20
7.32172
 30
0.0
 40
0
 41
0
  0
VERTEX
  8
0
 10
16.725
 20
7.32781
 30
0.0
 40
0
 41
0
  0
VERTEX
  8
0
 10
16.725
 20
7.33393
 30
0.0
 40
0
 41
0
  0
VERTEX
  8
0
 10
16.7299
 20
7.35215
 30
0.0
 40
0
 41
0
  0
VERTEX
  8
0
 10
16.7433
 20
7.37201
 30
0.0
 40
0
 41
0
  0
VERTEX
  8
0
 10
16.7632
 20
7.38542
 30
0.0
 40
0
 41
0
  0
VERTEX
  8
0
 10
16.7814
 20
7.39031
 30
0.0
 40
0
 41
0
  0
VERTEX
  8
0
 10
16.7875
 20
7.39031
 30
0.0
 40
0
 41
0
  0
SEQEND
 8
0
  0
POLYLINE
  8
0
 62
     0
 66
     1
 10
0
 20
0
 30
0.0
 70
     1
 40
0
 41
0
  0
VERTEX
  8
0
 10
16.7875
 20
11.7028
 30
0.0
 40
0
 41
0
  0
VERTEX
  8
0
 10
16.7936
 20
11.7028
 30
0.0
 40
0
 41
0
  0
VERTEX
  8
0
 10
16.8118
 20
11.6979
 30
0.0
 40
0
 41
0
  0
VERTEX
  8
0
 10
16.8317
 20
11.6845
 30
0.0
 40
0
 41
0
  0
VERTEX
  8
0
 10
16.845
 20
11.6647
 30
0.0
 40
0
 41
0
  0
VERTEX
  8
0
 10
16.85
 20
11.6464
 30
0.0
 40
0
 41
0
  0
VERTEX
  8
0
 10
16.85
 20
11.6403
 30
0.0
 40
0
 41
0
  0
VERTEX
  8
0
 10
16.85
 20
11.6342
 30
0.0
 40
0
 41
0
  0
VERTEX
  8
0
 10
16.845
 20
11.616
 30
0.0
 40
0
 41
0
  0
VERTEX
  8
0
 10
16.8317
 20
11.5961
 30
0.0
 40
0
 41
0
  0
VERTEX
  8
0
 10
16.8118
 20
11.5827
 30
0.0
 40
0
 41
0
  0
VERTEX
  8
0
 10
16.7936
 20
11.5778
 30
0.0
 40
0
 41
0
  0
VERTEX
  8
0
 10
16.7875
 20
11.5778
 30
0.0
 40
0
 41
0
  0
VERTEX
  8
0
 10
16.7814
 20
11.5778
 30
0.0
 40
0
 41
0
  0
VERTEX
  8
0
 10
16.7632
 20
11.5827
 30
0.0
 40
0
 41
0
  0
VERTEX
  8
0
 10
16.7433
 20
11.5961
 30
0.0
 40
0
 41
0
  0
VERTEX
  8
0
 10
16.7299
 20
11.616
 30
0.0
 40
0
 41
0
  0
VERTEX
  8
0
 10
16.725
 20
11.6342
 30
0.0
 40
0
 41
0
  0
VERTEX
  8
0
 10
16.725
 20
11.6403
 30
0.0
 40
0
 41
0
  0
VERTEX
  8
0
 10
16.725
 20
11.6464
 30
0.0
 40
0
 41
0
  0
VERTEX
  8
0
 10
16.7299
 20
11.6647
 30
0.0
 40
0
 41
0
  0
VERTEX
  8
0
 10
16.7433
 20
11.6845
 30
0.0
 40
0
 41
0
  0
VERTEX
  8
0
 10
16.7632
 20
11.6979
 30
0.0
 40
0
 41
0
  0
VERTEX
  8
0
 10
16.7814
 20
11.7028
 30
0.0
 40
0
 41
0
  0
VERTEX
  8
0
 10
16.7875
 20
11.7028
 30
0.0
 40
0
 41
0
  0
SEQEND
 8
0
  0
ENDSEC
  0
EOF
