<?xml version="1.0" encoding="utf-8"?>
<!-- Generator: Fusion 360, Shaper Origin Export Add-In, Version 1.6.10  -->
<svg xmlns="http://www.w3.org/2000/svg" xmlns:xlink="http://www.w3.org/1999/xlink" xmlns:shaper="http://www.shapertools.com/namespaces/shaper" shaper:fusionaddin="version:1.6.10" width="3.01625cm" height="0.3175cm" version="1.1" x="0cm" y="0cm" viewBox="0 0 3.01625 0.3175" enable-background="new 0 0 3.01625 0.3175" xml:space="preserve"><path d="M0.4221124,-0.11811 L0.7935588,-0.11811 0.7935588,0.11811 0.4221124,0.11811 A0.15875,0.15875 48.0732783 0,1 0.2099653,0.11811 L-0.4668876,0.11811 A0.15875,0.15875 48.0732783 1,1 -0.4668876,-0.11811 L0.2099653,-0.11811 A0.15875,0.15875 228.0732783 0,1 0.4221124,-0.11811z" transform="matrix(1,0,0,-1,0.7317112,0.15875)" fill="rgb(0,0,0)" stroke-linecap="round" stroke-linejoin="round" /><path d="M0.7935588,0.11811 L0.7935588,-0.11811 1.9670388,-0.11811 2.2845388,-0 1.9670388,0.11811 0.7935588,0.11811z" transform="matrix(1,0,0,-1,0.7317112,0.15875)" fill="rgb(0,0,0)" stroke-linecap="round" stroke-linejoin="round" /><path d="M0.2660388,0 a0.05,0.05 0 1,1 0.1,0 a0.05,0.05 0 1,1 -0.1,0z" transform="matrix(1,0,0,-1,0.7317112,0.15875)" fill="rgb(255,255,255)" stroke="rgb(0,0,0)" stroke-width="0.0010cm" stroke-linecap="round" stroke-linejoin="round" /></svg>