<?xml version="1.0" encoding="utf-8"?>
<!-- Generator: Fusion 360, Shaper Origin Export Add-In, Version 1.6.10  -->
<svg xmlns="http://www.w3.org/2000/svg" xmlns:xlink="http://www.w3.org/1999/xlink" xmlns:shaper="http://www.shapertools.com/namespaces/shaper" shaper:fusionaddin="version:1.6.10" width="2.69875cm" height="1.905cm" version="1.1" x="0cm" y="0cm" viewBox="0 0 2.69875 1.905" enable-background="new 0 0 2.69875 1.905" xml:space="preserve"><path d="M0.8142105,-0.2403882 A0.254,0.254 165.3667097 0,0 1.0599714,-0.0505566 L1.06018,0.0502433 A0.254,0.254 270 0,0 0.8143752,0.2402433 A0.9525,0.9525 14.5940238 1,1 0.8142105,-0.2403882z" transform="matrix(1,0,0,-1,1.0598928,0.9527434)" fill="rgb(0,0,0)" stroke-linecap="round" stroke-linejoin="round" /><path d="M1.06018,0.0502433 L1.0599714,-0.0505566 1.5884572,-0.0505566 A0.0503999,0.0503999 270 0,1 1.5884572,0.0502433 L1.06018,0.0502433z" transform="matrix(1,0,0,-1,1.0598928,0.9527434)" fill="rgb(0,0,0)" stroke-linecap="round" stroke-linejoin="round" /><path d="M-0.1700928,0.0002434 a0.0627,0.0627 0 1,1 0.1254,0 a0.0627,0.0627 0 1,1 -0.1254,0z" transform="matrix(1,0,0,-1,1.0598928,0.9527434)" fill="rgb(255,255,255)" stroke="rgb(0,0,0)" stroke-width="0.0010cm" stroke-linecap="round" stroke-linejoin="round" /></svg>