%TF.GenerationSoftware,KiCad,Pcbnew,7.0.2*%
%TF.CreationDate,2023-05-06T11:58:21-08:00*%
%TF.ProjectId,ECM DISP PANEL,45434d20-4449-4535-9020-50414e454c2e,3*%
%TF.SameCoordinates,Original*%
%TF.FileFunction,Paste,Top*%
%TF.FilePolarity,Positive*%
%FSLAX46Y46*%
G04 Gerber Fmt 4.6, Leading zero omitted, Abs format (unit mm)*
G04 Created by KiCad (PCBNEW 7.0.2) date 2023-05-06 11:58:21*
%MOMM*%
%LPD*%
G01*
G04 APERTURE LIST*
G04 Aperture macros list*
%AMRoundRect*
0 Rectangle with rounded corners*
0 $1 Rounding radius*
0 $2 $3 $4 $5 $6 $7 $8 $9 X,Y pos of 4 corners*
0 Add a 4 corners polygon primitive as box body*
4,1,4,$2,$3,$4,$5,$6,$7,$8,$9,$2,$3,0*
0 Add four circle primitives for the rounded corners*
1,1,$1+$1,$2,$3*
1,1,$1+$1,$4,$5*
1,1,$1+$1,$6,$7*
1,1,$1+$1,$8,$9*
0 Add four rect primitives between the rounded corners*
20,1,$1+$1,$2,$3,$4,$5,0*
20,1,$1+$1,$4,$5,$6,$7,0*
20,1,$1+$1,$6,$7,$8,$9,0*
20,1,$1+$1,$8,$9,$2,$3,0*%
G04 Aperture macros list end*
%ADD10R,0.700000X0.700000*%
%ADD11R,1.500000X0.900000*%
%ADD12RoundRect,0.200000X0.200000X0.275000X-0.200000X0.275000X-0.200000X-0.275000X0.200000X-0.275000X0*%
G04 APERTURE END LIST*
D10*
%TO.C,D76*%
X72744572Y-35610522D03*
X72744572Y-34510522D03*
X70914572Y-34510522D03*
X70914572Y-35610522D03*
%TD*%
%TO.C,D77*%
X82523572Y-35610522D03*
X82523572Y-34510522D03*
X80693572Y-34510522D03*
X80693572Y-35610522D03*
%TD*%
%TO.C,D78*%
X80693572Y-43781522D03*
X80693572Y-44881522D03*
X82523572Y-44881522D03*
X82523572Y-43781522D03*
%TD*%
%TO.C,D79*%
X70914572Y-43781522D03*
X70914572Y-44881522D03*
X72744572Y-44881522D03*
X72744572Y-43781522D03*
%TD*%
D11*
%TO.C,D2*%
X58103600Y-10821400D03*
X58103600Y-14121400D03*
X63003600Y-14121400D03*
X63003600Y-10821400D03*
%TD*%
%TO.C,D3*%
X67210600Y-13387000D03*
X67210600Y-16687000D03*
X72110600Y-16687000D03*
X72110600Y-13387000D03*
%TD*%
%TO.C,D4*%
X75922800Y-13285400D03*
X75922800Y-16585400D03*
X80822800Y-16585400D03*
X80822800Y-13285400D03*
%TD*%
%TO.C,D5*%
X84304800Y-13285400D03*
X84304800Y-16585400D03*
X89204800Y-16585400D03*
X89204800Y-13285400D03*
%TD*%
%TO.C,D6*%
X93245600Y-10770800D03*
X93245600Y-14070800D03*
X98145600Y-14070800D03*
X98145600Y-10770800D03*
%TD*%
%TO.C,D7*%
X58267600Y-19355600D03*
X58267600Y-22655600D03*
X63167600Y-22655600D03*
X63167600Y-19355600D03*
%TD*%
%TO.C,D8*%
X67363000Y-21921400D03*
X67363000Y-25221400D03*
X72263000Y-25221400D03*
X72263000Y-21921400D03*
%TD*%
%TO.C,D9*%
X76126000Y-21794000D03*
X76126000Y-25094000D03*
X81026000Y-25094000D03*
X81026000Y-21794000D03*
%TD*%
%TO.C,D10*%
X84505800Y-21819400D03*
X84505800Y-25119400D03*
X89405800Y-25119400D03*
X89405800Y-21819400D03*
%TD*%
%TO.C,D11*%
X93474200Y-19304800D03*
X93474200Y-22604800D03*
X98374200Y-22604800D03*
X98374200Y-19304800D03*
%TD*%
%TO.C,D12*%
X48262200Y-25731000D03*
X48262200Y-29031000D03*
X53162200Y-29031000D03*
X53162200Y-25731000D03*
%TD*%
%TO.C,D13*%
X58625400Y-28753600D03*
X58625400Y-32053600D03*
X63525400Y-32053600D03*
X63525400Y-28753600D03*
%TD*%
%TO.C,D14*%
X91543800Y-27001400D03*
X91543800Y-30301400D03*
X96443800Y-30301400D03*
X96443800Y-27001400D03*
%TD*%
%TO.C,D15*%
X48262200Y-33071600D03*
X48262200Y-36371600D03*
X53162200Y-36371600D03*
X53162200Y-33071600D03*
%TD*%
%TO.C,D16*%
X58600000Y-37211800D03*
X58600000Y-40511800D03*
X63500000Y-40511800D03*
X63500000Y-37211800D03*
%TD*%
%TO.C,D17*%
X91416800Y-34621000D03*
X91416800Y-37921000D03*
X96316800Y-37921000D03*
X96316800Y-34621000D03*
%TD*%
%TO.C,D18*%
X48262200Y-40767800D03*
X48262200Y-44067800D03*
X53162200Y-44067800D03*
X53162200Y-40767800D03*
%TD*%
%TO.C,D19*%
X58648600Y-44298400D03*
X58648600Y-47598400D03*
X63548600Y-47598400D03*
X63548600Y-44298400D03*
%TD*%
%TO.C,D20*%
X91442200Y-42825200D03*
X91442200Y-46125200D03*
X96342200Y-46125200D03*
X96342200Y-42825200D03*
%TD*%
%TO.C,D21*%
X48262200Y-48362400D03*
X48262200Y-51662400D03*
X53162200Y-51662400D03*
X53162200Y-48362400D03*
%TD*%
%TO.C,D22*%
X58244400Y-51283800D03*
X58244400Y-54583800D03*
X63144400Y-54583800D03*
X63144400Y-51283800D03*
%TD*%
%TO.C,D23*%
X71808000Y-51867800D03*
X71808000Y-55167800D03*
X76708000Y-55167800D03*
X76708000Y-51867800D03*
%TD*%
%TO.C,D24*%
X78945400Y-51893000D03*
X78945400Y-55193000D03*
X83845400Y-55193000D03*
X83845400Y-51893000D03*
%TD*%
%TO.C,D25*%
X87098800Y-51918400D03*
X87098800Y-55218400D03*
X91998800Y-55218400D03*
X91998800Y-51918400D03*
%TD*%
%TO.C,D26*%
X94845800Y-50064200D03*
X94845800Y-53364200D03*
X99745800Y-53364200D03*
X99745800Y-50064200D03*
%TD*%
%TO.C,D27*%
X134851000Y-57659200D03*
X134851000Y-60959200D03*
X139751000Y-60959200D03*
X139751000Y-57659200D03*
%TD*%
%TO.C,D28*%
X134851000Y-64974000D03*
X134851000Y-68274000D03*
X139751000Y-68274000D03*
X139751000Y-64974000D03*
%TD*%
%TO.C,D29*%
X121973000Y-66041200D03*
X121973000Y-69341200D03*
X126873000Y-69341200D03*
X126873000Y-66041200D03*
%TD*%
%TO.C,D30*%
X129286000Y-70917600D03*
X129286000Y-74217600D03*
X134186000Y-74217600D03*
X134186000Y-70917600D03*
%TD*%
%TO.C,D31*%
X117503000Y-75261400D03*
X117503000Y-78561400D03*
X122403000Y-78561400D03*
X122403000Y-75261400D03*
%TD*%
%TO.C,D32*%
X124485000Y-77140600D03*
X124485000Y-80440600D03*
X129385000Y-80440600D03*
X129385000Y-77140600D03*
%TD*%
%TO.C,D33*%
X124538000Y-84176800D03*
X124538000Y-87476800D03*
X129438000Y-87476800D03*
X129438000Y-84176800D03*
%TD*%
%TO.C,D34*%
X115420000Y-86158000D03*
X115420000Y-89458000D03*
X120320000Y-89458000D03*
X120320000Y-86158000D03*
%TD*%
%TO.C,D35*%
X128792000Y-89840800D03*
X128792000Y-93140800D03*
X133692000Y-93140800D03*
X133692000Y-89840800D03*
%TD*%
%TO.C,D36*%
X103787000Y-60910400D03*
X103787000Y-64210400D03*
X108687000Y-64210400D03*
X108687000Y-60910400D03*
%TD*%
%TO.C,D37*%
X103835000Y-68961800D03*
X103835000Y-72261800D03*
X108735000Y-72261800D03*
X108735000Y-68961800D03*
%TD*%
%TO.C,D38*%
X103888000Y-77776000D03*
X103888000Y-81076000D03*
X108788000Y-81076000D03*
X108788000Y-77776000D03*
%TD*%
%TO.C,D39*%
X103861000Y-86742200D03*
X103861000Y-90042200D03*
X108761000Y-90042200D03*
X108761000Y-86742200D03*
%TD*%
%TO.C,D40*%
X103976000Y-94819200D03*
X103976000Y-98119200D03*
X108876000Y-98119200D03*
X108876000Y-94819200D03*
%TD*%
%TO.C,D41*%
X111305000Y-98502000D03*
X111305000Y-101802000D03*
X116205000Y-101802000D03*
X116205000Y-98502000D03*
%TD*%
%TO.C,D42*%
X120525000Y-97410200D03*
X120525000Y-100710200D03*
X125425000Y-100710200D03*
X125425000Y-97410200D03*
%TD*%
%TO.C,D43*%
X128882000Y-98832000D03*
X128882000Y-102132000D03*
X133782000Y-102132000D03*
X133782000Y-98832000D03*
%TD*%
%TO.C,D44*%
X138102000Y-99061000D03*
X138102000Y-102361000D03*
X143002000Y-102361000D03*
X143002000Y-99061000D03*
%TD*%
%TO.C,D45*%
X147297000Y-99087000D03*
X147297000Y-102387000D03*
X152197000Y-102387000D03*
X152197000Y-99087000D03*
%TD*%
%TO.C,D46*%
X62015200Y-81001600D03*
X62015200Y-84301600D03*
X66915200Y-84301600D03*
X66915200Y-81001600D03*
%TD*%
%TO.C,D47*%
X70131600Y-81204600D03*
X70131600Y-84504600D03*
X75031600Y-84504600D03*
X75031600Y-81204600D03*
%TD*%
%TO.C,D48*%
X78081800Y-81357400D03*
X78081800Y-84657400D03*
X82981800Y-84657400D03*
X82981800Y-81357400D03*
%TD*%
%TO.C,D49*%
X86159000Y-81306200D03*
X86159000Y-84606200D03*
X91059000Y-84606200D03*
X91059000Y-81306200D03*
%TD*%
%TO.C,D50*%
X69381200Y-89815400D03*
X69381200Y-93115400D03*
X74281200Y-93115400D03*
X74281200Y-89815400D03*
%TD*%
%TO.C,D51*%
X76964200Y-89790200D03*
X76964200Y-93090200D03*
X81864200Y-93090200D03*
X81864200Y-89790200D03*
%TD*%
%TO.C,D52*%
X84070000Y-100140000D03*
X84070000Y-103440000D03*
X88970000Y-103440000D03*
X88970000Y-100140000D03*
%TD*%
%TO.C,D53*%
X73535200Y-110644000D03*
X73535200Y-113944000D03*
X78435200Y-113944000D03*
X78435200Y-110644000D03*
%TD*%
%TO.C,D54*%
X63680000Y-100712000D03*
X63680000Y-104012000D03*
X68580000Y-104012000D03*
X68580000Y-100712000D03*
%TD*%
%TO.C,D55*%
X60403400Y-125045000D03*
X60403400Y-128345000D03*
X65303400Y-128345000D03*
X65303400Y-125045000D03*
%TD*%
%TO.C,D56*%
X60516600Y-132335000D03*
X60516600Y-135635000D03*
X65416600Y-135635000D03*
X65416600Y-132335000D03*
%TD*%
%TO.C,D57*%
X74525800Y-132589000D03*
X74525800Y-135889000D03*
X79425800Y-135889000D03*
X79425800Y-132589000D03*
%TD*%
%TO.C,D58*%
X82272800Y-132564000D03*
X82272800Y-135864000D03*
X87172800Y-135864000D03*
X87172800Y-132564000D03*
%TD*%
%TO.C,D59*%
X89715000Y-132487000D03*
X89715000Y-135787000D03*
X94615000Y-135787000D03*
X94615000Y-132487000D03*
%TD*%
%TO.C,D60*%
X97538200Y-132513000D03*
X97538200Y-135813000D03*
X102438200Y-135813000D03*
X102438200Y-132513000D03*
%TD*%
%TO.C,D61*%
X105336000Y-132360000D03*
X105336000Y-135660000D03*
X110236000Y-135660000D03*
X110236000Y-132360000D03*
%TD*%
%TO.C,D62*%
X113185000Y-132360000D03*
X113185000Y-135660000D03*
X118085000Y-135660000D03*
X118085000Y-132360000D03*
%TD*%
%TO.C,D63*%
X120652000Y-132309000D03*
X120652000Y-135609000D03*
X125552000Y-135609000D03*
X125552000Y-132309000D03*
%TD*%
%TO.C,D64*%
X128425000Y-132386000D03*
X128425000Y-135686000D03*
X133325000Y-135686000D03*
X133325000Y-132386000D03*
%TD*%
%TO.C,D65*%
X137211000Y-132335000D03*
X137211000Y-135635000D03*
X142111000Y-135635000D03*
X142111000Y-132335000D03*
%TD*%
%TO.C,D66*%
X146052000Y-132284000D03*
X146052000Y-135584000D03*
X150952000Y-135584000D03*
X150952000Y-132284000D03*
%TD*%
%TO.C,D67*%
X78118800Y-145441000D03*
X78118800Y-148741000D03*
X83018800Y-148741000D03*
X83018800Y-145441000D03*
%TD*%
%TO.C,D68*%
X86082800Y-145492000D03*
X86082800Y-148792000D03*
X90982800Y-148792000D03*
X90982800Y-145492000D03*
%TD*%
%TO.C,D69*%
X94210800Y-145467000D03*
X94210800Y-148767000D03*
X99110800Y-148767000D03*
X99110800Y-145467000D03*
%TD*%
%TO.C,D70*%
X83365000Y-152071000D03*
X83365000Y-155371000D03*
X88265000Y-155371000D03*
X88265000Y-152071000D03*
%TD*%
%TO.C,D71*%
X91467600Y-152096000D03*
X91467600Y-155396000D03*
X96367600Y-155396000D03*
X96367600Y-152096000D03*
%TD*%
%TO.C,D72*%
X97560000Y-162060000D03*
X97560000Y-165360000D03*
X102460000Y-165360000D03*
X102460000Y-162060000D03*
%TD*%
%TO.C,D73*%
X91490800Y-172822000D03*
X91490800Y-176122000D03*
X96390800Y-176122000D03*
X96390800Y-172822000D03*
%TD*%
%TO.C,D74*%
X84291000Y-172797000D03*
X84291000Y-176097000D03*
X89191000Y-176097000D03*
X89191000Y-172797000D03*
%TD*%
%TO.C,D75*%
X77440000Y-162060000D03*
X77440000Y-165360000D03*
X82340000Y-165360000D03*
X82340000Y-162060000D03*
%TD*%
D12*
%TO.C,R1*%
X92900000Y-60071000D03*
X91250000Y-60071000D03*
%TD*%
M02*
