<?xml version="1.0" encoding="utf-8"?>
<!-- Generator: Fusion 360, Shaper Origin Export Add-In, Version 1.6.10  -->
<svg xmlns="http://www.w3.org/2000/svg" xmlns:xlink="http://www.w3.org/1999/xlink" xmlns:shaper="http://www.shapertools.com/namespaces/shaper" shaper:fusionaddin="version:1.6.10" width="13.62202cm" height="6.35cm" version="1.1" x="0cm" y="0cm" viewBox="0 0 13.62202 6.35" enable-background="new 0 0 13.62202 6.35" xml:space="preserve"><path d="M3.98399,3.175 L-6.81101,3.175 -6.81101,-3.175 6.81101,-3.175 3.98399,3.175z" transform="matrix(1,0,0,-1,6.81101,3.175)" fill="rgb(0,0,0)" shaper:cutDepth="0.003175" stroke-linecap="round" stroke-linejoin="round" /><path d="M-3.6470277,-1.2789362 L-3.6470277,-0.2526384 A0.15875,0.15875 0 0,1 -3.8057777,-0.0938884 L-4.1681263,-0.0938884 A0.15875,0.15875 90 0,1 -4.2658005,-0.1274933 L-4.446018,-0.2681509 A0.15875,0.15875 307.9716038 0,0 -4.5436923,-0.3017557 L-4.82672,-0.3017557 A0.15875,0.15875 90 0,1 -4.9626511,-0.3785039 L-5.1131513,-0.6279822 A0.15875,0.15875 148.8991084 0,1 -5.1359702,-0.7099839 L-5.1359702,-0.750935 A0.15875,0.15875 0 0,0 -5.2947202,-0.909685 L-6.2265842,-0.909685 A0.15875,0.15875 90 0,1 -6.3853342,-1.068435 L-6.3853342,-1.7865792 A0.15875,0.15875 180 0,1 -6.2265842,-1.9453292 L-4.5777667,-1.9453292 A0.15875,0.15875 270 0,1 -4.4190167,-1.7865792 L-4.4190167,-1.5964362 A0.15875,0.15875 180 0,0 -4.2602667,-1.4376862 L-3.8057777,-1.4376862 A0.15875,0.15875 270 0,1 -3.6470277,-1.2789362z" transform="matrix(1,0,0,-1,6.81101,3.175)" fill="rgb(255,255,255)" stroke="rgb(0,0,0)" stroke-width="0.0010cm" stroke-linecap="round" stroke-linejoin="round" shaper:cutDepth="0.003175" /><path d="M-3.8270773,1.4367177 L-4.2822951,1.4367177 A0.15875,0.15875 90 0,1 -4.3753886,1.4065568 L-5.1082543,0.8759906 A0.15875,0.15875 125.9030705 0,1 -5.1476633,0.6599679 L-4.8161188,0.1575242 A0.15875,0.15875 213.4193808 0,1 -4.6836163,0.0862079 L-3.8270773,0.0862079 A0.15875,0.15875 270 0,1 -3.6683273,0.2449579 L-3.6683273,1.2779677 A0.15875,0.15875 0 0,1 -3.8270773,1.4367177z" transform="matrix(1,0,0,-1,6.81101,3.175)" fill="rgb(255,255,255)" stroke="rgb(0,0,0)" stroke-width="0.0010cm" stroke-linecap="round" stroke-linejoin="round" shaper:cutDepth="0.003175" /><path d="M-1.7852267,-0.635003 L-1.7852267,0.269587 A0.15875,0.15875 0 0,1 -1.9439767,0.428337 L-2.5141759,0.428337 A0.15875,0.15875 90 0,1 -2.6729259,0.269587 L-2.6729259,-0.6870834 A0.15875,0.15875 180 0,1 -2.5141759,-0.8458334 L-1.9960571,-0.8458334 A0.2108304,0.2108304 270 0,1 -1.7852267,-0.635003z" transform="matrix(1,0,0,-1,6.81101,3.175)" fill="rgb(255,255,255)" stroke="rgb(0,0,0)" stroke-width="0.0010cm" stroke-linecap="round" stroke-linejoin="round" shaper:cutDepth="0.003175" /><path d="M-0.0039079,0.3459935 L0.420872,0.3459935 A0.15875,0.15875 270 0,1 0.579622,0.5047435 L0.579622,1.6179084 A0.15875,0.15875 0 0,1 0.420872,1.7766584 L-0.0039079,1.7766584 A0.15875,0.15875 90 0,1 -0.1626579,1.6179084 L-0.1626579,0.5047435 A0.15875,0.15875 180 0,1 -0.0039079,0.3459935z" transform="matrix(1,0,0,-1,6.81101,3.175)" fill="rgb(255,255,255)" stroke="rgb(0,0,0)" stroke-width="0.0010cm" stroke-linecap="round" stroke-linejoin="round" shaper:cutDepth="0.003175" /><path d="M-1.3627269,-1.7537654 L-1.039691,-1.7537654 A0.15875,0.15875 270 0,1 -0.880941,-1.5950154 L-0.880941,-1.4993539 A0.15875,0.15875 0 0,1 -1.039691,-1.3406039 L-1.3457053,-1.3406039 A0.15875,0.15875 270 0,0 -1.5044553,-1.1818539 L-1.5044553,-0.8927648 A0.15875,0.15875 180 0,0 -1.3457053,-0.7340148 L-0.4701436,-0.7340148 A0.15875,0.15875 90 0,0 -0.3113936,-0.8927648 L-0.3113936,-2.4538341 A0.15875,0.15875 0 0,0 -0.4701436,-2.6125841 L-1.3627269,-2.6125841 A0.15875,0.15875 270 0,0 -1.5214769,-2.4538341 L-1.5214769,-1.9125154 A0.15875,0.15875 180 0,0 -1.3627269,-1.7537654z" transform="matrix(1,0,0,-1,6.81101,3.175)" fill="rgb(255,255,255)" stroke="rgb(0,0,0)" stroke-width="0.0010cm" stroke-linecap="round" stroke-linejoin="round" shaper:cutDepth="0.003175" /><path d="M-3.0521696,0.3110451 L-3.1039266,0.3110451 A0.15875,0.15875 90 0,1 -3.2626766,0.1522951 L-3.2626766,-0.2519588 A0.15875,0.15875 180 0,1 -3.1039266,-0.4107088 L-3.0521696,-0.4107088 A0.15875,0.15875 270 0,1 -2.8934196,-0.2519588 L-2.8934196,0.1522951 A0.15875,0.15875 0 0,1 -3.0521696,0.3110451z" transform="matrix(1,0,0,-1,6.81101,3.175)" fill="rgb(255,255,255)" stroke="rgb(0,0,0)" stroke-width="0.0010cm" stroke-linecap="round" stroke-linejoin="round" shaper:cutDepth="0.003175" /><path d="M0.1491174,-2.082731 L0.4357826,-2.082731 A0.15875,0.15875 270 0,1 0.5945326,-1.923981 L0.5945326,-1.3773676 A0.15875,0.15875 0 0,1 0.4357826,-1.2186176 L0.1491174,-1.2186176 A0.15875,0.15875 90 0,1 -0.0096326,-1.3773676 L-0.0096326,-1.923981 A0.15875,0.15875 180 0,1 0.1491174,-2.082731z" transform="matrix(1,0,0,-1,6.81101,3.175)" fill="rgb(255,255,255)" stroke="rgb(0,0,0)" stroke-width="0.0010cm" stroke-linecap="round" stroke-linejoin="round" shaper:cutDepth="0.003175" /><path d="M-2.970542,-2.2420474 L-2.970542,-0.9568556 A0.15875,0.15875 0 0,1 -3.129292,-0.7981056 L-3.3977224,-0.7981056 A0.15875,0.15875 90 0,1 -3.5564724,-0.9568556 L-3.5564724,-2.1717734 A0.15875,0.15875 180 0,1 -3.4939317,-2.2980482 L-3.4016971,-2.3683222 A0.15875,0.15875 232.6960517 0,1 -3.3054877,-2.4007974 L-3.129292,-2.4007974 A0.15875,0.15875 270 0,1 -2.970542,-2.2420474z" transform="matrix(1,0,0,-1,6.81101,3.175)" fill="rgb(255,255,255)" stroke="rgb(0,0,0)" stroke-width="0.0010cm" stroke-linecap="round" stroke-linejoin="round" shaper:cutDepth="0.003175" /><path d="M0.8974868,1.8269665 L1.3390352,1.8269665 A0.15875,0.15875 270 0,1 1.4977852,1.9857165 L1.4977852,2.314363 A0.15875,0.15875 0 0,1 1.3390352,2.473113 L0.8974868,2.473113 A0.15875,0.15875 90 0,1 0.7387368,2.314363 L0.7387368,1.9857165 A0.15875,0.15875 180 0,1 0.8974868,1.8269665z" transform="matrix(1,0,0,-1,6.81101,3.175)" fill="rgb(255,255,255)" stroke="rgb(0,0,0)" stroke-width="0.0010cm" stroke-linecap="round" stroke-linejoin="round" shaper:cutDepth="0.003175" /><path d="M0.4809327,-0.671051 L0.7903334,-0.671051 A0.15875,0.15875 270 0,1 0.9490834,-0.512301 L0.9490834,-0.0038288 A0.15875,0.15875 0 0,1 0.7903334,0.1549212 L0.4809327,0.1549212 A0.15875,0.15875 90 0,1 0.3221827,-0.0038288 L0.3221827,-0.512301 A0.15875,0.15875 180 0,1 0.4809327,-0.671051z" transform="matrix(1,0,0,-1,6.81101,3.175)" fill="rgb(255,255,255)" stroke="rgb(0,0,0)" stroke-width="0.0010cm" stroke-linecap="round" stroke-linejoin="round" shaper:cutDepth="0.003175" /><path d="M-2.4350271,-2.9393917 L-1.9868484,-2.9393917 A0.15875,0.15875 270 0,1 -1.8280984,-2.7806417 L-1.8280984,-2.4987597 A0.15875,0.15875 0 0,1 -1.9868484,-2.3400097 L-2.4350271,-2.3400097 A0.15875,0.15875 90 0,1 -2.5937771,-2.4987597 L-2.5937771,-2.7806417 A0.15875,0.15875 180 0,1 -2.4350271,-2.9393917z" transform="matrix(1,0,0,-1,6.81101,3.175)" fill="rgb(255,255,255)" stroke="rgb(0,0,0)" stroke-width="0.0010cm" stroke-linecap="round" stroke-linejoin="round" shaper:cutDepth="0.003175" /><path d="M4.0464619,1.2525034 L3.5810129,1.2525034 A0.15875,0.15875 90 0,1 3.4222629,1.0937534 L3.4222629,-1.4033635 A0.15875,0.15875 180 0,1 3.5810129,-1.5621135 L4.0464619,-1.5621135 A0.15875,0.15875 270 0,1 4.2052119,-1.4033635 L4.2052119,1.0937534 A0.15875,0.15875 0 0,1 4.0464619,1.2525034z" transform="matrix(1,0,0,-1,6.81101,3.175)" fill="rgb(255,255,255)" stroke="rgb(0,0,0)" stroke-width="0.0010cm" stroke-linecap="round" stroke-linejoin="round" shaper:cutDepth="0.003175" /><path d="M-0.9886027,0.4744223 L-0.9886027,1.191946 A0.15875,0.15875 0 0,1 -1.0350995,1.3041992 L-1.1094778,1.3785775 A0.15875,0.15875 225 0,0 -1.1559746,1.4908307 L-1.1559746,1.7286988 A0.15875,0.15875 180 0,0 -0.9972246,1.8874488 L-0.5894263,1.8874488 A0.15875,0.15875 90 0,0 -0.4306763,1.7286988 L-0.4306763,0.4744223 A0.15875,0.15875 0 0,0 -0.5894263,0.3156723 L-0.8298527,0.3156723 A0.15875,0.15875 270 0,0 -0.9886027,0.4744223z" transform="matrix(1,0,0,-1,6.81101,3.175)" fill="rgb(255,255,255)" stroke="rgb(0,0,0)" stroke-width="0.0010cm" stroke-linecap="round" stroke-linejoin="round" shaper:cutDepth="0.003175" /><path d="M-3.3977224,0.6410636 L-3.129292,0.6410636 A0.15875,0.15875 270 0,1 -2.970542,0.7998136 L-2.970542,1.3547856 A0.15875,0.15875 0 0,1 -3.129292,1.5135356 L-3.3977224,1.5135356 A0.15875,0.15875 90 0,1 -3.5564724,1.3547856 L-3.5564724,0.7998136 A0.15875,0.15875 180 0,1 -3.3977224,0.6410636z" transform="matrix(1,0,0,-1,6.81101,3.175)" fill="rgb(255,255,255)" stroke="rgb(0,0,0)" stroke-width="0.0010cm" stroke-linecap="round" stroke-linejoin="round" shaper:cutDepth="0.003175" /><path d="M1.1262784,-2.9178179 L1.559824,-2.9178179 A0.15875,0.15875 270 0,1 1.718574,-2.7590679 L1.718574,-2.4328145 A0.15875,0.15875 0 0,1 1.559824,-2.2740645 L1.1262784,-2.2740645 A0.15875,0.15875 90 0,1 0.9675284,-2.4328145 L0.9675284,-2.7590679 A0.15875,0.15875 180 0,1 1.1262784,-2.9178179z" transform="matrix(1,0,0,-1,6.81101,3.175)" fill="rgb(255,255,255)" stroke="rgb(0,0,0)" stroke-width="0.0010cm" stroke-linecap="round" stroke-linejoin="round" shaper:cutDepth="0.003175" /><path d="M2.4433552,-1.796014 L2.4819897,-1.7725461 A0.15875,0.15875 301.2759025 0,1 2.5583231,-1.6368661 L2.5583231,-1.2645815 A0.15875,0.15875 0 0,1 2.5352531,-1.1821649 L2.4936169,-1.1136205 A0.15875,0.15875 211.2759025 0,0 2.4826085,-0.9705073 L2.6197484,-0.6390744 A0.15875,0.15875 157.5212657 0,0 2.7618506,-0.5410872 L3.0920576,-0.5315436 A0.15875,0.15875 91.6554981 0,0 3.2553938,-0.6902273 L3.2553938,-2.430276 A0.15875,0.15875 0 0,0 3.0966438,-2.589026 L2.5257718,-2.589026 A0.15875,0.15875 270 0,0 2.3670218,-2.430276 L2.3670218,-1.931694 A0.15875,0.15875 180 0,0 2.4433552,-1.796014z" transform="matrix(1,0,0,-1,6.81101,3.175)" fill="rgb(255,255,255)" stroke="rgb(0,0,0)" stroke-width="0.0010cm" stroke-linecap="round" stroke-linejoin="round" shaper:cutDepth="0.003175" /><path d="M2.6197474,1.2499895 L2.9358789,1.2592899 A0.15875,0.15875 271.6851213 0,1 3.0899606,1.4179713 L3.0899606,1.7119357 A0.15875,0.15875 0 0,1 2.9312106,1.8706857 L2.5135492,1.8706857 A0.15875,0.15875 90 0,1 2.3547992,1.7119357 L2.3547992,1.4927749 A0.15875,0.15875 180 0,1 2.4122786,1.3705217 L2.5138085,1.2864177 A0.15875,0.15875 230.3627573 0,1 2.6197474,1.2499895z" transform="matrix(1,0,0,-1,6.81101,3.175)" fill="rgb(255,255,255)" stroke="rgb(0,0,0)" stroke-width="0.0010cm" stroke-linecap="round" stroke-linejoin="round" shaper:cutDepth="0.003175" /><path d="M2.6498119,0.216053 L2.9238932,0.216053 A0.15875,0.15875 270 0,1 3.0826432,0.374803 L3.0826432,0.9034962 A0.15875,0.15875 0 0,1 2.9238932,1.0622462 L2.6498119,1.0622462 A0.15875,0.15875 90 0,1 2.4910619,0.9034962 L2.4910619,0.374803 A0.15875,0.15875 180 0,1 2.6498119,0.216053z" transform="matrix(1,0,0,-1,6.81101,3.175)" fill="rgb(255,255,255)" stroke="rgb(0,0,0)" stroke-width="0.0010cm" stroke-linecap="round" stroke-linejoin="round" shaper:cutDepth="0.003175" /><path d="M1.8495722,-0.6742577 L2.1235483,-0.6742577 A0.15875,0.15875 270 0,1 2.2822983,-0.5155077 L2.2822983,0.0152596 A0.15875,0.15875 0 0,1 2.1235483,0.1740096 L1.8495722,0.1740096 A0.15875,0.15875 90 0,1 1.6908222,0.0152596 L1.6908222,-0.5155077 A0.15875,0.15875 180 0,1 1.8495722,-0.6742577z" transform="matrix(1,0,0,-1,6.81101,3.175)" fill="rgb(255,255,255)" stroke="rgb(0,0,0)" stroke-width="0.0010cm" stroke-linecap="round" stroke-linejoin="round" shaper:cutDepth="0.003175" /><path d="M-1.9960571,2.5280901 L-2.4598426,2.5280901 A0.15875,0.15875 90 0,1 -2.6185926,2.3693401 L-2.6185926,2.0416614 A0.15875,0.15875 180 0,1 -2.4598426,1.8829114 L-1.9960571,1.8829114 A0.15875,0.15875 270 0,1 -1.8373071,2.0416614 L-1.8373071,2.3693401 A0.15875,0.15875 0 0,1 -1.9960571,2.5280901z" transform="matrix(1,0,0,-1,6.81101,3.175)" fill="rgb(255,255,255)" stroke="rgb(0,0,0)" stroke-width="0.0010cm" stroke-linecap="round" stroke-linejoin="round" shaper:cutDepth="0.003175" /><path d="M1.1120641,-0.1676331 a0.215265,0.215265 0 1,1 0.43053,0 a0.215265,0.215265 0 1,1 -0.43053,0z" transform="matrix(1,0,0,-1,6.81101,3.175)" fill="rgb(255,255,255)" stroke="rgb(0,0,0)" stroke-width="0.0010cm" stroke-linecap="round" stroke-linejoin="round" shaper:cutDepth="0.003175" /><path d="M-5.2491522,1.3818696 a0.215265,0.215265 0 1,1 0.43053,0 a0.215265,0.215265 0 1,1 -0.43053,0z" transform="matrix(1,0,0,-1,6.81101,3.175)" fill="rgb(255,255,255)" stroke="rgb(0,0,0)" stroke-width="0.0010cm" stroke-linecap="round" stroke-linejoin="round" shaper:cutDepth="0.003175" /><path d="M2.2012824,1.1376769 a0.15875,0.15875 0 1,1 0.3175,0 a0.15875,0.15875 0 1,1 -0.3175,0z" transform="matrix(1,0,0,-1,6.81101,3.175)" fill="rgb(255,255,255)" stroke="rgb(0,0,0)" stroke-width="0.0010cm" stroke-linecap="round" stroke-linejoin="round" shaper:cutDepth="0.003175" /><path d="M-1.3624594,-1.5520486 a0.15875,0.15875 0 1,1 0.3175,0 a0.15875,0.15875 0 1,1 -0.3175,0z" transform="matrix(1,0,0,-1,6.81101,3.175)" fill="rgb(255,255,255)" stroke="rgb(0,0,0)" stroke-width="0.0010cm" stroke-linecap="round" stroke-linejoin="round" shaper:cutDepth="0.003175" /><path d="M-1.3624594,1.1376769 a0.15875,0.15875 0 1,1 0.3175,0 a0.15875,0.15875 0 1,1 -0.3175,0z" transform="matrix(1,0,0,-1,6.81101,3.175)" fill="rgb(255,255,255)" stroke="rgb(0,0,0)" stroke-width="0.0010cm" stroke-linecap="round" stroke-linejoin="round" shaper:cutDepth="0.003175" /><path d="M-4.9620113,-0.196745 A0.15875,0.15875 262.3979609 1,1 -4.9620113,0.1179644 A0.6,0.6 15.2040782 1,1 -4.9620113,-0.196745z" transform="matrix(1,0,0,-1,6.81101,3.175)" fill="rgb(255,255,255)" stroke="rgb(0,0,0)" stroke-width="0.0010cm" stroke-linecap="round" stroke-linejoin="round" shaper:cutDepth="0.003175" /><path d="M-2.7975594,-1.5520486 a0.64135,0.64135 0 1,1 1.2827,0 a0.64135,0.64135 0 1,1 -1.2827,0z" transform="matrix(1,0,0,-1,6.81101,3.175)" fill="rgb(255,255,255)" stroke="rgb(0,0,0)" stroke-width="0.0010cm" stroke-linecap="round" stroke-linejoin="round" shaper:cutDepth="0.003175" /><path d="M0.7661824,-1.5520486 a0.64135,0.64135 0 1,1 1.2827,0 a0.64135,0.64135 0 1,1 -1.2827,0z" transform="matrix(1,0,0,-1,6.81101,3.175)" fill="rgb(255,255,255)" stroke="rgb(0,0,0)" stroke-width="0.0010cm" stroke-linecap="round" stroke-linejoin="round" shaper:cutDepth="0.003175" /><path d="M0.7661824,1.1376769 a0.64135,0.64135 0 1,1 1.2827,0 a0.64135,0.64135 0 1,1 -1.2827,0z" transform="matrix(1,0,0,-1,6.81101,3.175)" fill="rgb(255,255,255)" stroke="rgb(0,0,0)" stroke-width="0.0010cm" stroke-linecap="round" stroke-linejoin="round" shaper:cutDepth="0.003175" /><path d="M-2.7975594,1.1376769 a0.64135,0.64135 0 1,1 1.2827,0 a0.64135,0.64135 0 1,1 -1.2827,0z" transform="matrix(1,0,0,-1,6.81101,3.175)" fill="rgb(255,255,255)" stroke="rgb(0,0,0)" stroke-width="0.0010cm" stroke-linecap="round" stroke-linejoin="round" shaper:cutDepth="0.003175" /><path d="M2.2012824,-1.5520486 a0.15875,0.15875 0 1,1 0.3175,0 a0.15875,0.15875 0 1,1 -0.3175,0z" transform="matrix(1,0,0,-1,6.81101,3.175)" fill="rgb(255,255,255)" stroke="rgb(0,0,0)" stroke-width="0.0010cm" stroke-linecap="round" stroke-linejoin="round" shaper:cutDepth="0.003175" /><path d="M-5.597525,-2.68605 a0.215265,0.215265 0 1,1 0.43053,0 a0.215265,0.215265 0 1,1 -0.43053,0z" transform="matrix(1,0,0,-1,6.81101,3.175)" fill="rgb(255,255,255)" stroke="rgb(0,0,0)" stroke-width="0.0010cm" stroke-linecap="round" stroke-linejoin="round" shaper:cutDepth="0.003175" /><path d="M-5.597525,2.68605 a0.215265,0.215265 0 1,1 0.43053,0 a0.215265,0.215265 0 1,1 -0.43053,0z" transform="matrix(1,0,0,-1,6.81101,3.175)" fill="rgb(255,255,255)" stroke="rgb(0,0,0)" stroke-width="0.0010cm" stroke-linecap="round" stroke-linejoin="round" shaper:cutDepth="0.003175" /><path d="M2.022475,2.68605 a0.215265,0.215265 0 1,1 0.43053,0 a0.215265,0.215265 0 1,1 -0.43053,0z" transform="matrix(1,0,0,-1,6.81101,3.175)" fill="rgb(255,255,255)" stroke="rgb(0,0,0)" stroke-width="0.0010cm" stroke-linecap="round" stroke-linejoin="round" shaper:cutDepth="0.003175" /><path d="M3.927475,-2.68605 a0.215265,0.215265 0 1,1 0.43053,0 a0.215265,0.215265 0 1,1 -0.43053,0z" transform="matrix(1,0,0,-1,6.81101,3.175)" fill="rgb(255,255,255)" stroke="rgb(0,0,0)" stroke-width="0.0010cm" stroke-linecap="round" stroke-linejoin="round" shaper:cutDepth="0.003175" /></svg>