<?xml version="1.0" encoding="utf-8"?>
<!-- Generator: Fusion 360, Shaper Origin Export Add-In, Version 1.6.10  -->
<svg xmlns="http://www.w3.org/2000/svg" xmlns:xlink="http://www.w3.org/1999/xlink" xmlns:shaper="http://www.shapertools.com/namespaces/shaper" shaper:fusionaddin="version:1.6.10" width="12.6357324cm" height="6.2688794cm" version="1.1" x="0cm" y="0cm" viewBox="0 0 12.6357324 6.2688794" enable-background="new 0 0 12.6357324 6.2688794" xml:space="preserve"><path d="M4.6358838,-2.0916103 L6.3178662,-2.0916103 4.4916113,2.0104897 2.7308838,2.0104897 A0.635,0.635 270 0,0 2.0958838,2.6454897 L2.0958838,3.1344397 -4.2538662,3.1344397 -4.2538662,2.6454397 A0.635,0.635 0 0,0 -4.8888662,2.0104397 L-6.3178662,2.0104397 -6.3178662,-2.0104397 -4.8888662,-2.0104397 A0.635,0.635 90 0,0 -4.2538662,-2.6454397 L-4.2538662,-3.1344397 4.0008838,-3.1344397 4.0008838,-2.7266103 A0.635,0.635 180 0,0 4.6358838,-2.0916103z" transform="matrix(1,0,0,-1,6.3178662,3.1344397)" fill="rgb(0,0,0)" shaper:cutDepth="0.0047625" stroke-linecap="round" stroke-linejoin="round" /><path d="M1.6052079,-0.2081939 a0.215265,0.215265 0 1,1 0.43053,0 a0.215265,0.215265 0 1,1 -0.43053,0z" transform="matrix(1,0,0,-1,6.3178662,3.1344397)" fill="rgb(255,255,255)" stroke="rgb(0,0,0)" stroke-width="0.0010cm" stroke-linecap="round" stroke-linejoin="round" shaper:cutDepth="0.0047625" /><path d="M-4.7560084,1.3413088 a0.215265,0.215265 0 1,1 0.43053,0 a0.215265,0.215265 0 1,1 -0.43053,0z" transform="matrix(1,0,0,-1,6.3178662,3.1344397)" fill="rgb(255,255,255)" stroke="rgb(0,0,0)" stroke-width="0.0010cm" stroke-linecap="round" stroke-linejoin="round" shaper:cutDepth="0.0047625" /><path d="M-2.6155656,1.0971162 a0.9525,0.9525 0 1,1 1.905,0 a0.9525,0.9525 0 1,1 -1.905,0z" transform="matrix(1,0,0,-1,6.3178662,3.1344397)" fill="rgb(255,255,255)" stroke="rgb(0,0,0)" stroke-width="0.0010cm" stroke-linecap="round" stroke-linejoin="round" shaper:cutDepth="0.0047625" /><path d="M0.9481762,1.0971162 a0.9525,0.9525 0 1,1 1.905,0 a0.9525,0.9525 0 1,1 -1.905,0z" transform="matrix(1,0,0,-1,6.3178662,3.1344397)" fill="rgb(255,255,255)" stroke="rgb(0,0,0)" stroke-width="0.0010cm" stroke-linecap="round" stroke-linejoin="round" shaper:cutDepth="0.0047625" /><path d="M0.9481762,-1.5926094 a0.9525,0.9525 0 1,1 1.905,0 a0.9525,0.9525 0 1,1 -1.905,0z" transform="matrix(1,0,0,-1,6.3178662,3.1344397)" fill="rgb(255,255,255)" stroke="rgb(0,0,0)" stroke-width="0.0010cm" stroke-linecap="round" stroke-linejoin="round" shaper:cutDepth="0.0047625" /><path d="M-2.6155656,-1.5926094 a0.9525,0.9525 0 1,1 1.905,0 a0.9525,0.9525 0 1,1 -1.905,0z" transform="matrix(1,0,0,-1,6.3178662,3.1344397)" fill="rgb(255,255,255)" stroke="rgb(0,0,0)" stroke-width="0.0010cm" stroke-linecap="round" stroke-linejoin="round" shaper:cutDepth="0.0047625" /><path d="M-6.0003662,-0.0799511 a0.9525,0.9525 0 1,1 1.905,0 a0.9525,0.9525 0 1,1 -1.905,0z" transform="matrix(1,0,0,-1,6.3178662,3.1344397)" fill="rgb(255,255,255)" stroke="rgb(0,0,0)" stroke-width="0.0010cm" stroke-linecap="round" stroke-linejoin="round" shaper:cutDepth="0.0047625" /></svg>