<?xml version="1.0" encoding="utf-8"?>
<!-- Generator: Fusion 360, Shaper Origin Export Add-In, Version 1.6.10  -->
<svg xmlns="http://www.w3.org/2000/svg" xmlns:xlink="http://www.w3.org/1999/xlink" xmlns:shaper="http://www.shapertools.com/namespaces/shaper" shaper:fusionaddin="version:1.6.10" width="4.9911cm" height="4.9911cm" version="1.1" x="0cm" y="0cm" viewBox="0 0 4.9911 4.9911" enable-background="new 0 0 4.9911 4.9911" xml:space="preserve"><path d="M0.725311,1.0657754 L0.6458741,0.9281868 A2.3368,2.3368 57.663927 0,1 0.4808963,1.0234368 L0.5603331,1.1610254 A2.49555,2.49555 62.1873931 1,1 0.725311,1.0657754z" transform="matrix(1,0,0,-1,3.0995937,1.4493155)" fill="rgb(0,0,0)" shaper:cutDepth="0.0015875" stroke-linecap="round" stroke-linejoin="round" /><path d="M-2.6545493,0.1669549 A2.38252,2.38252 149.3891592 0,1 -2.6799493,0.1229608 L-2.2665221,-0.1157315 -2.2411221,-0.0717374 -2.6545493,0.1669549z" transform="matrix(1,0,0,-1,3.0995937,1.4493155)" fill="rgb(104,104,104)" fill-rule="nonzero" shaper:cutDepth="0.0000762" stroke-linecap="round" stroke-linejoin="round" /><path d="M0.3704533,0.5908439 L0.5862843,0.9646741 A2.3368,2.3368 59.3772075 0,1 0.5422902,0.9900741 L0.3264592,0.6162439 0.3704533,0.5908439z" transform="matrix(1,0,0,-1,3.0995937,1.4493155)" fill="rgb(104,104,104)" fill-rule="nonzero" shaper:cutDepth="0.0000762" stroke-linecap="round" stroke-linejoin="round" /><path d="M1.7783409,-1.0716345 A2.38252,2.38252 359.3891592 0,1 1.7783409,-1.0208345 L1.3009563,-1.0208345 1.3009563,-1.0716345 1.7783409,-1.0716345z" transform="matrix(1,0,0,-1,3.0995937,1.4493155)" fill="rgb(104,104,104)" fill-rule="nonzero" shaper:cutDepth="0.0000762" stroke-linecap="round" stroke-linejoin="round" /><path d="M0.5651515,-3.1221401 A2.38252,2.38252 299.3891592 0,1 0.6091456,-3.0967401 L0.3704533,-2.6833129 0.3264592,-2.7087129 0.5651515,-3.1221401z" transform="matrix(1,0,0,-1,3.0995937,1.4493155)" fill="rgb(104,104,104)" fill-rule="nonzero" shaper:cutDepth="0.0000762" stroke-linecap="round" stroke-linejoin="round" /><path d="M-1.8172331,-3.0967401 A2.38252,2.38252 239.3891592 0,1 -1.773239,-3.1221401 L-1.5345467,-2.7087129 -1.5785408,-2.6833129 -1.8172331,-3.0967401z" transform="matrix(1,0,0,-1,3.0995937,1.4493155)" fill="rgb(104,104,104)" fill-rule="nonzero" shaper:cutDepth="0.0000762" stroke-linecap="round" stroke-linejoin="round" /><path d="M-2.9864284,-1.0208345 A2.38252,2.38252 179.3891592 0,1 -2.9864284,-1.0716345 L-2.5090437,-1.0716345 -2.5090437,-1.0208345 -2.9864284,-1.0208345z" transform="matrix(1,0,0,-1,3.0995937,1.4493155)" fill="rgb(104,104,104)" fill-rule="nonzero" shaper:cutDepth="0.0000762" stroke-linecap="round" stroke-linejoin="round" /><path d="M-1.773239,1.0296711 A2.38252,2.38252 119.3891592 0,1 -1.8172331,1.0042711 L-1.5785408,0.5908439 -1.5345467,0.6162439 -1.773239,1.0296711z" transform="matrix(1,0,0,-1,3.0995937,1.4493155)" fill="rgb(104,104,104)" fill-rule="nonzero" shaper:cutDepth="0.0000762" stroke-linecap="round" stroke-linejoin="round" /><path d="M0.8086671,0.8722674 A2.38252,2.38252 53.6335 0,1 0.7840083,0.8901831 L0.5966686,0.6323322 0.6213275,0.6144165 0.8086671,0.8722674z" transform="matrix(1,0,0,-1,3.0995937,1.4493155)" fill="rgb(104,104,104)" fill-rule="nonzero" shaper:cutDepth="0.0000762" stroke-linecap="round" stroke-linejoin="round" /><path d="M0.765549,0.4976282 L0.7882001,0.4772331 1.0014662,0.7140892 A2.38252,2.38252 47.6335 0,1 0.9788152,0.7344843 L0.765549,0.4976282z" transform="matrix(1,0,0,-1,3.0995937,1.4493155)" fill="rgb(104,104,104)" fill-rule="nonzero" shaper:cutDepth="0.0000762" stroke-linecap="round" stroke-linejoin="round" /><path d="M0.9194238,0.3460094 L0.9398189,0.3233583 1.176675,0.5366244 A2.38252,2.38252 41.6335 0,1 1.1562799,0.5592755 L0.9194238,0.3460094z" transform="matrix(1,0,0,-1,3.0995937,1.4493155)" fill="rgb(104,104,104)" fill-rule="nonzero" shaper:cutDepth="0.0000762" stroke-linecap="round" stroke-linejoin="round" /><path d="M1.0566072,0.1791368 L1.0745229,0.1544779 1.3323738,0.3418176 A2.38252,2.38252 35.6335 0,1 1.3144581,0.3664764 L1.0566072,0.1791368z" transform="matrix(1,0,0,-1,3.0995937,1.4493155)" fill="rgb(104,104,104)" fill-rule="nonzero" shaper:cutDepth="0.0000762" stroke-linecap="round" stroke-linejoin="round" /><path d="M1.275087,-0.1929093 L1.2874844,-0.2207542 1.5786507,-0.0911185 A2.38252,2.38252 23.6335 0,1 1.5662534,-0.0632737 L1.275087,-0.1929093z" transform="matrix(1,0,0,-1,3.0995937,1.4493155)" fill="rgb(104,104,104)" fill-rule="nonzero" shaper:cutDepth="0.0000762" stroke-linecap="round" stroke-linejoin="round" /><path d="M1.3539897,-0.3940065 L1.3634086,-0.4229947 1.6665305,-0.3245045 A2.38252,2.38252 17.6335 0,1 1.6571116,-0.2955163 L1.3539897,-0.3940065z" transform="matrix(1,0,0,-1,3.0995937,1.4493155)" fill="rgb(104,104,104)" fill-rule="nonzero" shaper:cutDepth="0.0000762" stroke-linecap="round" stroke-linejoin="round" /><path d="M1.4114398,-0.6022497 L1.4177769,-0.6320637 1.7295334,-0.5657978 A2.38252,2.38252 11.6335 0,1 1.7231962,-0.5359839 L1.4114398,-0.6022497z" transform="matrix(1,0,0,-1,3.0995937,1.4493155)" fill="rgb(104,104,104)" fill-rule="nonzero" shaper:cutDepth="0.0000762" stroke-linecap="round" stroke-linejoin="round" /><path d="M1.4468078,-0.8153573 L1.4499938,-0.8456704 1.7669691,-0.8123549 A2.38252,2.38252 5.6335 0,1 1.7637831,-0.7820419 L1.4468078,-0.8153573z" transform="matrix(1,0,0,-1,3.0995937,1.4493155)" fill="rgb(104,104,104)" fill-rule="nonzero" shaper:cutDepth="0.0000762" stroke-linecap="round" stroke-linejoin="round" /><path d="M1.7637831,-1.310427 A2.38252,2.38252 353.6335 0,1 1.7669691,-1.280114 L1.4499938,-1.2467986 1.4468078,-1.2771116 1.7637831,-1.310427z" transform="matrix(1,0,0,-1,3.0995937,1.4493155)" fill="rgb(104,104,104)" fill-rule="nonzero" shaper:cutDepth="0.0000762" stroke-linecap="round" stroke-linejoin="round" /><path d="M1.7231962,-1.5564851 A2.38252,2.38252 347.6335 0,1 1.7295334,-1.5266711 L1.4177769,-1.4604052 1.4114398,-1.4902192 1.7231962,-1.5564851z" transform="matrix(1,0,0,-1,3.0995937,1.4493155)" fill="rgb(104,104,104)" fill-rule="nonzero" shaper:cutDepth="0.0000762" stroke-linecap="round" stroke-linejoin="round" /><path d="M1.6571116,-1.7969527 A2.38252,2.38252 341.6335 0,1 1.6665305,-1.7679645 L1.3634086,-1.6694742 1.3539897,-1.6984624 1.6571116,-1.7969527z" transform="matrix(1,0,0,-1,3.0995937,1.4493155)" fill="rgb(104,104,104)" fill-rule="nonzero" shaper:cutDepth="0.0000762" stroke-linecap="round" stroke-linejoin="round" /><path d="M1.5662534,-2.0291953 A2.38252,2.38252 335.6335 0,1 1.5786507,-2.0013504 L1.2874844,-1.8717148 1.275087,-1.8995596 1.5662534,-2.0291953z" transform="matrix(1,0,0,-1,3.0995937,1.4493155)" fill="rgb(104,104,104)" fill-rule="nonzero" shaper:cutDepth="0.0000762" stroke-linecap="round" stroke-linejoin="round" /><path d="M-2.6799493,-2.2154297 A2.38252,2.38252 209.3891592 0,1 -2.6545493,-2.2594238 L-2.2411221,-2.0207315 -2.2665221,-1.9767374 -2.6799493,-2.2154297z" transform="matrix(1,0,0,-1,3.0995937,1.4493155)" fill="rgb(104,104,104)" fill-rule="nonzero" shaper:cutDepth="0.0000762" stroke-linecap="round" stroke-linejoin="round" /><path d="M1.3144581,-2.4589454 A2.38252,2.38252 323.6335 0,1 1.3323738,-2.4342865 L1.0745229,-2.2469469 1.0566072,-2.2716057 1.3144581,-2.4589454z" transform="matrix(1,0,0,-1,3.0995937,1.4493155)" fill="rgb(104,104,104)" fill-rule="nonzero" shaper:cutDepth="0.0000762" stroke-linecap="round" stroke-linejoin="round" /><path d="M1.1562799,-2.6517444 A2.38252,2.38252 317.6335 0,1 1.176675,-2.6290934 L0.9398189,-2.4158272 0.9194238,-2.4384783 1.1562799,-2.6517444z" transform="matrix(1,0,0,-1,3.0995937,1.4493155)" fill="rgb(104,104,104)" fill-rule="nonzero" shaper:cutDepth="0.0000762" stroke-linecap="round" stroke-linejoin="round" /><path d="M0.9788152,-2.8269532 A2.38252,2.38252 311.6335 0,1 1.0014662,-2.8065581 L0.7882001,-2.569702 0.765549,-2.5900971 0.9788152,-2.8269532z" transform="matrix(1,0,0,-1,3.0995937,1.4493155)" fill="rgb(104,104,104)" fill-rule="nonzero" shaper:cutDepth="0.0000762" stroke-linecap="round" stroke-linejoin="round" /><path d="M0.7840083,-2.982652 A2.38252,2.38252 305.6335 0,1 0.8086671,-2.9647364 L0.6213275,-2.7068854 0.5966686,-2.7248011 0.7840083,-2.982652z" transform="matrix(1,0,0,-1,3.0995937,1.4493155)" fill="rgb(104,104,104)" fill-rule="nonzero" shaper:cutDepth="0.0000762" stroke-linecap="round" stroke-linejoin="round" /><path d="M0.3510722,-3.2289289 A2.38252,2.38252 293.6335 0,1 0.378917,-3.2165316 L0.2492814,-2.9253652 0.2214366,-2.9377626 0.3510722,-3.2289289z" transform="matrix(1,0,0,-1,3.0995937,1.4493155)" fill="rgb(104,104,104)" fill-rule="nonzero" shaper:cutDepth="0.0000762" stroke-linecap="round" stroke-linejoin="round" /><path d="M0.1176863,-3.3168087 A2.38252,2.38252 287.6335 0,1 0.1466745,-3.3073899 L0.0481842,-3.0042679 0.019196,-3.0136868 0.1176863,-3.3168087z" transform="matrix(1,0,0,-1,3.0995937,1.4493155)" fill="rgb(104,104,104)" fill-rule="nonzero" shaper:cutDepth="0.0000762" stroke-linecap="round" stroke-linejoin="round" /><path d="M-0.1236071,-3.3798116 A2.38252,2.38252 281.6335 0,1 -0.0937932,-3.3734744 L-0.160059,-3.061718 -0.189873,-3.0680552 -0.1236071,-3.3798116z" transform="matrix(1,0,0,-1,3.0995937,1.4493155)" fill="rgb(104,104,104)" fill-rule="nonzero" shaper:cutDepth="0.0000762" stroke-linecap="round" stroke-linejoin="round" /><path d="M-0.3701642,-3.4172473 A2.38252,2.38252 275.6335 0,1 -0.3398512,-3.4140613 L-0.3731666,-3.097086 -0.4034796,-3.100272 -0.3701642,-3.4172473z" transform="matrix(1,0,0,-1,3.0995937,1.4493155)" fill="rgb(104,104,104)" fill-rule="nonzero" shaper:cutDepth="0.0000762" stroke-linecap="round" stroke-linejoin="round" /><path d="M-0.6294437,-3.4286191 A2.38252,2.38252 269.3891592 0,1 -0.5786437,-3.4286191 L-0.5786437,-2.9512345 -0.6294437,-2.9512345 -0.6294437,-3.4286191z" transform="matrix(1,0,0,-1,3.0995937,1.4493155)" fill="rgb(104,104,104)" fill-rule="nonzero" shaper:cutDepth="0.0000762" stroke-linecap="round" stroke-linejoin="round" /><path d="M-0.8682363,-3.4140613 A2.38252,2.38252 263.6335 0,1 -0.8379233,-3.4172473 L-0.8046079,-3.100272 -0.8349209,-3.097086 -0.8682363,-3.4140613z" transform="matrix(1,0,0,-1,3.0995937,1.4493155)" fill="rgb(104,104,104)" fill-rule="nonzero" shaper:cutDepth="0.0000762" stroke-linecap="round" stroke-linejoin="round" /><path d="M-1.1142943,-3.3734744 A2.38252,2.38252 257.6335 0,1 -1.0844804,-3.3798116 L-1.0182145,-3.0680552 -1.0480285,-3.061718 -1.1142943,-3.3734744z" transform="matrix(1,0,0,-1,3.0995937,1.4493155)" fill="rgb(104,104,104)" fill-rule="nonzero" shaper:cutDepth="0.0000762" stroke-linecap="round" stroke-linejoin="round" /><path d="M-1.354762,-3.3073899 A2.38252,2.38252 251.6335 0,1 -1.3257738,-3.3168087 L-1.2272835,-3.0136868 -1.2562717,-3.0042679 -1.354762,-3.3073899z" transform="matrix(1,0,0,-1,3.0995937,1.4493155)" fill="rgb(104,104,104)" fill-rule="nonzero" shaper:cutDepth="0.0000762" stroke-linecap="round" stroke-linejoin="round" /><path d="M-1.5870045,-3.2165316 A2.38252,2.38252 245.6335 0,1 -1.5591597,-3.2289289 L-1.4295241,-2.9377626 -1.4573689,-2.9253652 -1.5870045,-3.2165316z" transform="matrix(1,0,0,-1,3.0995937,1.4493155)" fill="rgb(104,104,104)" fill-rule="nonzero" shaper:cutDepth="0.0000762" stroke-linecap="round" stroke-linejoin="round" /><path d="M-2.0167546,-2.9647364 A2.38252,2.38252 233.6335 0,1 -1.9920958,-2.982652 L-1.8047561,-2.7248011 -1.829415,-2.7068854 -2.0167546,-2.9647364z" transform="matrix(1,0,0,-1,3.0995937,1.4493155)" fill="rgb(104,104,104)" fill-rule="nonzero" shaper:cutDepth="0.0000762" stroke-linecap="round" stroke-linejoin="round" /><path d="M-2.2095537,-2.8065581 A2.38252,2.38252 227.6335 0,1 -2.1869027,-2.8269532 L-1.9736365,-2.5900971 -1.9962876,-2.569702 -2.2095537,-2.8065581z" transform="matrix(1,0,0,-1,3.0995937,1.4493155)" fill="rgb(104,104,104)" fill-rule="nonzero" shaper:cutDepth="0.0000762" stroke-linecap="round" stroke-linejoin="round" /><path d="M-2.3847625,-2.6290934 A2.38252,2.38252 221.6335 0,1 -2.3643674,-2.6517444 L-2.1275113,-2.4384783 -2.1479064,-2.4158272 -2.3847625,-2.6290934z" transform="matrix(1,0,0,-1,3.0995937,1.4493155)" fill="rgb(104,104,104)" fill-rule="nonzero" shaper:cutDepth="0.0000762" stroke-linecap="round" stroke-linejoin="round" /><path d="M-2.5404613,-2.4342865 A2.38252,2.38252 215.6335 0,1 -2.5225456,-2.4589454 L-2.2646947,-2.2716057 -2.2826104,-2.2469469 -2.5404613,-2.4342865z" transform="matrix(1,0,0,-1,3.0995937,1.4493155)" fill="rgb(104,104,104)" fill-rule="nonzero" shaper:cutDepth="0.0000762" stroke-linecap="round" stroke-linejoin="round" /><path d="M1.0330346,-2.0207315 L1.4464618,-2.2594238 A2.38252,2.38252 329.3891592 0,1 1.4718618,-2.2154297 L1.0584346,-1.9767374 1.0330346,-2.0207315z" transform="matrix(1,0,0,-1,3.0995937,1.4493155)" fill="rgb(104,104,104)" fill-rule="nonzero" shaper:cutDepth="0.0000762" stroke-linecap="round" stroke-linejoin="round" /><path d="M-2.7867382,-2.0013504 A2.38252,2.38252 203.6335 0,1 -2.7743409,-2.0291953 L-2.4831745,-1.8995596 -2.4955719,-1.8717148 -2.7867382,-2.0013504z" transform="matrix(1,0,0,-1,3.0995937,1.4493155)" fill="rgb(104,104,104)" fill-rule="nonzero" shaper:cutDepth="0.0000762" stroke-linecap="round" stroke-linejoin="round" /><path d="M-2.874618,-1.7679645 A2.38252,2.38252 197.6335 0,1 -2.8651991,-1.7969527 L-2.5620772,-1.6984624 -2.5714961,-1.6694742 -2.874618,-1.7679645z" transform="matrix(1,0,0,-1,3.0995937,1.4493155)" fill="rgb(104,104,104)" fill-rule="nonzero" shaper:cutDepth="0.0000762" stroke-linecap="round" stroke-linejoin="round" /><path d="M-2.9376209,-1.5266711 A2.38252,2.38252 191.6335 0,1 -2.9312837,-1.5564851 L-2.6195273,-1.4902192 -2.6258644,-1.4604052 -2.9376209,-1.5266711z" transform="matrix(1,0,0,-1,3.0995937,1.4493155)" fill="rgb(104,104,104)" fill-rule="nonzero" shaper:cutDepth="0.0000762" stroke-linecap="round" stroke-linejoin="round" /><path d="M-2.9750566,-1.280114 A2.38252,2.38252 185.6335 0,1 -2.9718706,-1.310427 L-2.6548953,-1.2771116 -2.6580813,-1.2467986 -2.9750566,-1.280114z" transform="matrix(1,0,0,-1,3.0995937,1.4493155)" fill="rgb(104,104,104)" fill-rule="nonzero" shaper:cutDepth="0.0000762" stroke-linecap="round" stroke-linejoin="round" /><path d="M-2.9718706,-0.7820419 A2.38252,2.38252 173.6335 0,1 -2.9750566,-0.8123549 L-2.6580813,-0.8456704 -2.6548953,-0.8153573 -2.9718706,-0.7820419z" transform="matrix(1,0,0,-1,3.0995937,1.4493155)" fill="rgb(104,104,104)" fill-rule="nonzero" shaper:cutDepth="0.0000762" stroke-linecap="round" stroke-linejoin="round" /><path d="M-2.9312837,-0.5359839 A2.38252,2.38252 167.6335 0,1 -2.9376209,-0.5657978 L-2.6258644,-0.6320637 -2.6195273,-0.6022497 -2.9312837,-0.5359839z" transform="matrix(1,0,0,-1,3.0995937,1.4493155)" fill="rgb(104,104,104)" fill-rule="nonzero" shaper:cutDepth="0.0000762" stroke-linecap="round" stroke-linejoin="round" /><path d="M-2.8651991,-0.2955163 A2.38252,2.38252 161.6335 0,1 -2.874618,-0.3245045 L-2.5714961,-0.4229947 -2.5620772,-0.3940065 -2.8651991,-0.2955163z" transform="matrix(1,0,0,-1,3.0995937,1.4493155)" fill="rgb(104,104,104)" fill-rule="nonzero" shaper:cutDepth="0.0000762" stroke-linecap="round" stroke-linejoin="round" /><path d="M-2.7743409,-0.0632737 A2.38252,2.38252 155.6335 0,1 -2.7867382,-0.0911185 L-2.4955719,-0.2207542 -2.4831745,-0.1929093 -2.7743409,-0.0632737z" transform="matrix(1,0,0,-1,3.0995937,1.4493155)" fill="rgb(104,104,104)" fill-rule="nonzero" shaper:cutDepth="0.0000762" stroke-linecap="round" stroke-linejoin="round" /><path d="M1.0330346,-0.0717374 L1.0584346,-0.1157315 1.4718618,0.1229608 A2.38252,2.38252 29.3891592 0,1 1.4464618,0.1669549 L1.0330346,-0.0717374z" transform="matrix(1,0,0,-1,3.0995937,1.4493155)" fill="rgb(104,104,104)" fill-rule="nonzero" shaper:cutDepth="0.0000762" stroke-linecap="round" stroke-linejoin="round" /><path d="M-2.5225456,0.3664764 A2.38252,2.38252 143.6335 0,1 -2.5404613,0.3418176 L-2.2826104,0.1544779 -2.2646947,0.1791368 -2.5225456,0.3664764z" transform="matrix(1,0,0,-1,3.0995937,1.4493155)" fill="rgb(104,104,104)" fill-rule="nonzero" shaper:cutDepth="0.0000762" stroke-linecap="round" stroke-linejoin="round" /><path d="M-2.3643674,0.5592755 A2.38252,2.38252 137.6335 0,1 -2.3847625,0.5366244 L-2.1479064,0.3233583 -2.1275113,0.3460094 -2.3643674,0.5592755z" transform="matrix(1,0,0,-1,3.0995937,1.4493155)" fill="rgb(104,104,104)" fill-rule="nonzero" shaper:cutDepth="0.0000762" stroke-linecap="round" stroke-linejoin="round" /><path d="M-2.1869027,0.7344843 A2.38252,2.38252 131.6335 0,1 -2.2095537,0.7140892 L-1.9962876,0.4772331 -1.9736365,0.4976282 -2.1869027,0.7344843z" transform="matrix(1,0,0,-1,3.0995937,1.4493155)" fill="rgb(104,104,104)" fill-rule="nonzero" shaper:cutDepth="0.0000762" stroke-linecap="round" stroke-linejoin="round" /><path d="M-1.9920958,0.8901831 A2.38252,2.38252 125.6335 0,1 -2.0167546,0.8722674 L-1.829415,0.6144165 -1.8047561,0.6323322 -1.9920958,0.8901831z" transform="matrix(1,0,0,-1,3.0995937,1.4493155)" fill="rgb(104,104,104)" fill-rule="nonzero" shaper:cutDepth="0.0000762" stroke-linecap="round" stroke-linejoin="round" /><path d="M0.117128,0.2015982 L0.117128,0.2015982 0.1097068,0.206027 0.1026616,0.2110467 0.0892039,0.2219011 0.0830601,0.2279908 0.0774573,0.2345782 0.0675726,0.2487706 0.0675726,0.2487706 0.0622507,0.25826 0.0580641,0.2683096 0.0548394,0.278704 0.0525642,0.2893489 0.0509907,0.3001191 0.0501369,0.3109707 0.0499317,0.3218551 0.050502,0.3327246 0.0537143,0.3542511 0.058913,0.3753884 0.0655346,0.3961255 0.0733595,0.4164412 0.0733595,0.4164412 0.0833628,0.4380349 0.0946312,0.4589967 0.0946312,0.4589967 0.102979,0.4725733 0.1120943,0.4856545 0.121524,0.4985117 0.1314092,0.5110225 0.1420598,0.5228904 0.1534345,0.5340663 0.1654982,0.5444911 0.1780386,0.5543405 0.1780386,0.5543405 0.1874951,0.5605166 0.1974068,0.5659197 0.2077888,0.5703608 0.2184488,0.5740688 0.2184488,0.5740688 0.2300567,0.5776191 0.2419443,0.5801036 0.2540372,0.5812083 0.2661812,0.5811839 0.2661812,0.5811839 0.2818447,0.5788215 0.2971638,0.5747911 0.2971638,0.5747911 0.3054631,0.5720079 0.313488,0.5684961 0.3291851,0.560732 0.3291851,0.560732 0.3437715,0.5511409 0.3570875,0.5398588 0.3686999,0.5268294 0.3737898,0.5197357 0.3783633,0.5122983 0.3823942,0.5045487 0.3858597,0.4965282 0.3911056,0.4798729 0.3929262,0.4713238 0.394151,0.4626792 0.3950753,0.4452404 0.3950753,0.4452404 0.393563,0.427362 0.3910009,0.4096097 0.3870951,0.3920954 0.3818772,0.3749313 0.3753426,0.3582235 0.3679942,0.3418586 0.36031,0.3256486 0.3515698,0.3099937 0.3515698,0.3099937 0.3391113,0.2897512 0.3256507,0.2701633 0.3111371,0.2513422 0.2951888,0.2337245 0.2865613,0.2255512 0.2774577,0.2179105 0.2679535,0.2107763 0.2580986,0.2041326 0.2478562,0.1981074 0.2371743,0.1928999 0.2260907,0.1886158 0.2145838,0.1856587 0.2145838,0.1856587 0.2021571,0.1833863 0.1895352,0.1826861 0.1768953,0.1828405 0.1643265,0.1841844 0.1519993,0.1869805 0.140007,0.1909901 0.1283883,0.1959647 0.1170466,0.201551 0.117128,0.2015982z M0.1652855,0.4155663 L0.1652855,0.4155663 0.1554812,0.3976865 0.146692,0.3792893 0.1392639,0.3603011 0.133764,0.3406716 0.1318878,0.3306529 0.1308106,0.3205098 0.1309004,0.3103217 0.1324682,0.3002467 0.1358402,0.2906333 0.1411512,0.2819423 0.1481437,0.2745262 0.1563879,0.2685361 0.1564633,0.2685866 0.1564633,0.2685866 0.1639028,0.264921 0.1718664,0.2625917 0.1801267,0.2619355 0.1883893,0.2626855 0.1883893,0.2626855 0.1963934,0.2645624 0.2040702,0.2675076 0.2113424,0.2713451 0.2182245,0.2758483 0.2308581,0.2863648 0.2423158,0.2981615 0.2527494,0.3108754 0.262462,0.3241474 0.2799881,0.3519809 0.2799881,0.3519809 0.2933881,0.3772334 0.2993443,0.3902307 0.3046843,0.4034913 0.3091722,0.4170649 0.3124022,0.4309866 0.3139189,0.4452076 0.3136692,0.4523415 0.3127224,0.4594325 0.3127224,0.4594325 0.3095313,0.4704716 0.3071448,0.475709 0.3041201,0.4805966 0.3003964,0.4849797 0.2962214,0.4889337 0.2917261,0.4925186 0.2868111,0.495498 0.2868111,0.495498 0.2809569,0.4986669 0.2746732,0.5008783 0.2681938,0.5024236 0.2615658,0.5031154 0.2549273,0.502605 0.2484099,0.5011853 0.235947,0.4965038 0.235947,0.4965038 0.2244963,0.4891997 0.214013,0.4805553 0.2043788,0.4709818 0.1956517,0.4605693 0.1796536,0.4386148 0.1721754,0.4272733 0.1652855,0.4155663z" transform="matrix(1,0,0,-1,3.0995937,1.4493155)" fill="rgb(104,104,104)" fill-rule="nonzero" shaper:cutDepth="0.0000762" stroke-linecap="round" stroke-linejoin="round" /><path d="M1.019012,-1.1698629 L1.2170292,-0.8268871 1.2888259,-0.868339 1.1294437,-1.1443969 1.1934308,-1.1813399 1.1547958,-1.2482577 1.019012,-1.1698629z" transform="matrix(1,0,0,-1,3.0995937,1.4493155)" fill="rgb(104,104,104)" fill-rule="nonzero" shaper:cutDepth="0.0000762" stroke-linecap="round" stroke-linejoin="round" /><path d="M0.7667501,-1.0364231 L0.7667501,-1.0364231 0.7593289,-1.0319943 0.7522837,-1.0269746 0.7388261,-1.0161202 0.7326822,-1.0100305 0.7270794,-1.0034431 0.7171947,-0.9892507 0.7171947,-0.9892507 0.7118728,-0.9797613 0.7076862,-0.9697117 0.7044615,-0.9593173 0.7021863,-0.9486724 0.7006128,-0.9379022 0.699759,-0.9270506 0.6995538,-0.9161662 0.7001241,-0.9052967 0.7033364,-0.8837702 0.7085351,-0.8626329 0.7151567,-0.8418959 0.7229816,-0.8215801 0.7229816,-0.8215801 0.7329849,-0.7999864 0.7442533,-0.7790246 0.7442533,-0.7790246 0.7526011,-0.765448 0.7617164,-0.7523668 0.7711461,-0.7395096 0.7810313,-0.7269988 0.7916819,-0.7151309 0.8030566,-0.703955 0.8151203,-0.6935302 0.8276607,-0.6836808 0.8276607,-0.6836808 0.8371172,-0.6775047 0.8470289,-0.6721016 0.8574109,-0.6676605 0.868071,-0.6639525 0.868071,-0.6639525 0.8796788,-0.6604022 0.8915664,-0.6579177 0.9036593,-0.656813 0.9158033,-0.6568374 0.9158033,-0.6568374 0.9314668,-0.6591998 0.9467859,-0.6632302 0.9467859,-0.6632302 0.9550852,-0.6660134 0.9631101,-0.6695253 0.9788072,-0.6772893 0.9788072,-0.6772893 0.9933936,-0.6868804 1.0067096,-0.6981625 1.018322,-0.7111919 1.0234119,-0.7182856 1.0279854,-0.725723 1.0320163,-0.7334727 1.0354818,-0.7414931 1.0407277,-0.7581485 1.0425483,-0.7666975 1.0437731,-0.7753421 1.0446974,-0.7927809 1.0446974,-0.7927809 1.0431851,-0.8106593 1.040623,-0.8284116 1.0367172,-0.8459259 1.0314993,-0.86309 1.0249647,-0.8797978 1.0176163,-0.8961627 1.0099321,-0.9123727 1.0011919,-0.9280277 1.0011919,-0.9280277 0.9887334,-0.9482701 0.9752728,-0.9678581 0.9607592,-0.9866791 0.9448109,-1.0042968 0.9361834,-1.0124701 0.9270798,-1.0201108 0.9175756,-1.0272451 0.9077207,-1.0338887 0.8974783,-1.0399139 0.8867964,-1.0451214 0.8757129,-1.0494055 0.8642059,-1.0523626 0.8642059,-1.0523626 0.8517792,-1.054635 0.8391573,-1.0553352 0.8265174,-1.0551808 0.8139486,-1.053837 0.8016214,-1.0510408 0.7896291,-1.0470312 0.7780104,-1.0420566 0.7666687,-1.0364703 0.7667501,-1.0364231z M0.8149076,-0.822455 L0.8149076,-0.822455 0.8051033,-0.8403348 0.7963141,-0.8587321 0.788886,-0.8777202 0.7833861,-0.8973497 0.7815099,-0.9073684 0.7804327,-0.9175115 0.7805225,-0.9276996 0.7820903,-0.9377746 0.7854623,-0.947388 0.7907733,-0.956079 0.7977658,-0.9634951 0.80601,-0.9694852 0.8060854,-0.9694347 0.8060854,-0.9694347 0.8135249,-0.9731003 0.8214885,-0.9754296 0.8297488,-0.9760858 0.8380114,-0.9753358 0.8380114,-0.9753358 0.8460155,-0.9734589 0.8536923,-0.9705137 0.8609645,-0.9666762 0.8678466,-0.962173 0.8804802,-0.9516565 0.8919379,-0.9398598 0.9023715,-0.927146 0.9120841,-0.9138739 0.9296102,-0.8860404 0.9296102,-0.8860404 0.9430102,-0.8607879 0.9489664,-0.8477906 0.9543064,-0.83453 0.9587943,-0.8209564 0.9620243,-0.8070348 0.963541,-0.7928137 0.9632913,-0.7856799 0.9623445,-0.7785888 0.9623445,-0.7785888 0.9591534,-0.7675498 0.9567669,-0.7623123 0.9537422,-0.7574247 0.9500185,-0.7530417 0.9458435,-0.7490876 0.9413482,-0.7455027 0.9364332,-0.7425233 0.9364332,-0.7425233 0.930579,-0.7393544 0.9242953,-0.737143 0.9178159,-0.7355977 0.9111879,-0.7349059 0.9045494,-0.7354163 0.898032,-0.736836 0.8855691,-0.7415175 0.8855691,-0.7415175 0.8741184,-0.7488216 0.8636351,-0.757466 0.8540009,-0.7670395 0.8452738,-0.777452 0.8292757,-0.7994065 0.8217975,-0.810748 0.8149076,-0.822455z" transform="matrix(1,0,0,-1,3.0995937,1.4493155)" fill="rgb(104,104,104)" fill-rule="nonzero" shaper:cutDepth="0.0000762" stroke-linecap="round" stroke-linejoin="round" /><path d="M0.1385451,-2.3886506 L0.1747746,-2.3258992 0.4037712,-2.4581104 0.3931474,-2.4765114 0.2309872,-2.5383162 0.2309872,-2.5383162 0.1838789,-2.5575693 0.1838789,-2.5575693 0.1632811,-2.5678656 0.143502,-2.5796549 0.134243,-2.5865042 0.1255721,-2.5940781 0.1177358,-2.6025193 0.1112605,-2.6120314 0.1112605,-2.6120314 0.1070629,-2.621241 0.1044166,-2.6310035 0.103897,-2.6411086 0.1045572,-2.6461292 0.1058139,-2.6510398 0.109875,-2.6603052 0.1157168,-2.6685649 0.1230804,-2.6755022 0.1314172,-2.6812381 0.1314172,-2.6812381 0.138415,-2.6848241 0.1458093,-2.6874966 0.1535269,-2.6890003 0.1613798,-2.6893976 0.1613798,-2.6893976 0.1707749,-2.6874832 0.1797068,-2.6840064 0.1877775,-2.678831 0.1946892,-2.6721899 0.2008424,-2.6648246 0.206421,-2.657024 0.2163412,-2.6406171 0.2877047,-2.6817721 0.2877047,-2.6817721 0.2757323,-2.7008075 0.2692699,-2.710015 0.2623187,-2.7188553 0.2548038,-2.7272185 0.246693,-2.7350049 0.2379817,-2.7421139 0.2288864,-2.7487244 0.2288864,-2.7487244 0.2173103,-2.7556395 0.2048453,-2.7608202 0.1919954,-2.7649422 0.1787952,-2.7677045 0.1653243,-2.7684161 0.1518719,-2.7673968 0.1385635,-2.7651672 0.1254815,-2.7618566 0.1254815,-2.7618566 0.1164602,-2.7587294 0.1077267,-2.7548597 0.0906634,-2.746277 0.0906634,-2.746277 0.0806041,-2.740209 0.0712524,-2.7330824 0.0621811,-2.7256037 0.053749,-2.7174114 0.0462554,-2.7083511 0.0397707,-2.6985416 0.0342541,-2.6881604 0.0293932,-2.677454 0.0293932,-2.677454 0.0253815,-2.6642793 0.0232055,-2.65066 0.0220629,-2.6369224 0.0221456,-2.6231435 0.0242587,-2.6095253 0.0280524,-2.5962758 0.0331085,-2.5834525 0.0391783,-2.5710743 0.0391783,-2.5710743 0.0444233,-2.5627142 0.0501608,-2.5547031 0.0565663,-2.5471954 0.0634462,-2.5401194 0.0707488,-2.5334927 0.0784592,-2.5273405 0.0948008,-2.5163057 0.1119561,-2.5065747 0.1295418,-2.497644 0.165524,-2.4814883 0.165524,-2.4814883 0.2106121,-2.4636128 0.2106121,-2.4636128 0.2490195,-2.4504544 0.2490195,-2.4504544 0.2247277,-2.4379327 0.2008569,-2.4246263 0.1385451,-2.3886506z" transform="matrix(1,0,0,-1,3.0995937,1.4493155)" fill="rgb(104,104,104)" fill-rule="nonzero" shaper:cutDepth="0.0000762" stroke-linecap="round" stroke-linejoin="round" /><path d="M-0.1987465,-2.5797514 L-0.1987465,-2.5797514 -0.2061677,-2.5753225 -0.2132128,-2.5703029 -0.2266705,-2.5594485 -0.2328144,-2.5533588 -0.2384172,-2.5467714 -0.2483019,-2.532579 -0.2483019,-2.532579 -0.2536238,-2.5230895 -0.2578104,-2.51304 -0.2610351,-2.5026455 -0.2633103,-2.4920007 -0.2648838,-2.4812305 -0.2657376,-2.4703789 -0.2659428,-2.4594945 -0.2653725,-2.448625 -0.2621601,-2.4270984 -0.2569614,-2.4059612 -0.2503399,-2.3852241 -0.242515,-2.3649084 -0.242515,-2.3649084 -0.2325117,-2.3433146 -0.2212433,-2.3223528 -0.2212433,-2.3223528 -0.2128955,-2.3087762 -0.2037802,-2.2956951 -0.1943504,-2.2828379 -0.1844653,-2.2703271 -0.1738147,-2.2584592 -0.16244,-2.2472833 -0.1503763,-2.2368585 -0.1378359,-2.2270091 -0.1378359,-2.2270091 -0.1283794,-2.220833 -0.1184677,-2.2154299 -0.1080857,-2.2109888 -0.0974256,-2.2072808 -0.0974256,-2.2072808 -0.0858178,-2.2037305 -0.0739302,-2.201246 -0.0618373,-2.2001413 -0.0496932,-2.2001657 -0.0496932,-2.2001657 -0.0340298,-2.2025281 -0.0187107,-2.2065585 -0.0187107,-2.2065585 -0.0104114,-2.2093417 -0.0023865,-2.2128535 0.0133106,-2.2206175 0.0133106,-2.2206175 0.027897,-2.2302086 0.041213,-2.2414907 0.0528254,-2.2545201 0.0579153,-2.2616139 0.0624888,-2.2690513 0.0665197,-2.2768009 0.0699852,-2.2848213 0.0752312,-2.3014767 0.0770517,-2.3100257 0.0782765,-2.3186704 0.0792008,-2.3361092 0.0792008,-2.3361092 0.0776885,-2.3539876 0.0751264,-2.3717399 0.0712206,-2.3892541 0.0660027,-2.4064182 0.0594681,-2.4231261 0.0521197,-2.4394909 0.0444355,-2.4557009 0.0356953,-2.4713559 0.0356953,-2.4713559 0.0232368,-2.4915983 0.0097762,-2.5111863 -0.0047374,-2.5300074 -0.0206857,-2.5476251 -0.0293132,-2.5557983 -0.0384168,-2.5634391 -0.047921,-2.5705733 -0.0577759,-2.577217 -0.0680183,-2.5832422 -0.0787002,-2.5884496 -0.0897837,-2.5927337 -0.1012907,-2.5956908 -0.1012907,-2.5956908 -0.1137174,-2.5979633 -0.1263393,-2.5986635 -0.1389792,-2.5985091 -0.151548,-2.5971652 -0.1638752,-2.594369 -0.1758675,-2.5903595 -0.1874862,-2.5853848 -0.1988279,-2.5797986 -0.1987465,-2.5797514z M-0.150589,-2.3657833 L-0.150589,-2.3657833 -0.1603933,-2.383663 -0.1691824,-2.4020603 -0.1766106,-2.4210485 -0.1821105,-2.440678 -0.1839867,-2.4506967 -0.1850639,-2.4608398 -0.1849741,-2.4710278 -0.1834063,-2.4811028 -0.1800343,-2.4907162 -0.1747233,-2.4994073 -0.1677308,-2.5068234 -0.1594865,-2.5128135 -0.1594112,-2.512763 -0.1594112,-2.512763 -0.1519716,-2.5164285 -0.1440081,-2.5187578 -0.1357478,-2.5194141 -0.1274852,-2.518664 -0.1274852,-2.518664 -0.1194811,-2.5167872 -0.1118043,-2.5138419 -0.1045321,-2.5100045 -0.09765,-2.5055012 -0.0850164,-2.4949848 -0.0735587,-2.4831881 -0.0631251,-2.4704742 -0.0534125,-2.4572021 -0.0358864,-2.4293687 -0.0358864,-2.4293687 -0.0224864,-2.4041162 -0.0165302,-2.3911189 -0.0111902,-2.3778583 -0.0067023,-2.3642846 -0.0034722,-2.350363 -0.0019556,-2.336142 -0.0022053,-2.3290081 -0.003152,-2.3219171 -0.003152,-2.3219171 -0.0063432,-2.310878 -0.0087297,-2.3056406 -0.0117544,-2.300753 -0.0154781,-2.2963699 -0.0196531,-2.2924159 -0.0241484,-2.288831 -0.0290634,-2.2858516 -0.0290634,-2.2858516 -0.0349175,-2.2826827 -0.0412013,-2.2804713 -0.0476807,-2.278926 -0.0543087,-2.2782341 -0.0609472,-2.2787446 -0.0674645,-2.2801642 -0.0799275,-2.2848458 -0.0799275,-2.2848458 -0.0913782,-2.2921498 -0.1018615,-2.3007943 -0.1114957,-2.3103678 -0.1202228,-2.3207802 -0.1362209,-2.3427348 -0.1436991,-2.3540763 -0.150589,-2.3657833z" transform="matrix(1,0,0,-1,3.0995937,1.4493155)" fill="rgb(104,104,104)" fill-rule="nonzero" shaper:cutDepth="0.0000762" stroke-linecap="round" stroke-linejoin="round" /><path d="M-1.2267546,-2.5727042 L-1.2267546,-2.5727042 -1.2199139,-2.5610697 -1.2170255,-2.5549786 -1.2148157,-2.5485983 -1.2148157,-2.5485983 -1.2123824,-2.5394919 -1.2122015,-2.5300433 -1.2137125,-2.5207289 -1.215132,-2.5162217 -1.217129,-2.5119467 -1.2225971,-2.5042641 -1.2292538,-2.4975705 -1.2366764,-2.4917316 -1.2445789,-2.4865651 -1.2445789,-2.4865651 -1.2544112,-2.481995 -1.2647272,-2.4786654 -1.2754365,-2.4770188 -1.2808551,-2.4771327 -1.2862106,-2.4780139 -1.2913297,-2.4797773 -1.296107,-2.4823563 -1.3049932,-2.4885659 -1.3129171,-2.4959754 -1.3161719,-2.5003006 -1.3189093,-2.5049886 -1.3189093,-2.5049886 -1.3241297,-2.516686 -1.3258751,-2.522854 -1.3267412,-2.5292036 -1.3265558,-2.5356075 -1.3254738,-2.5419235 -1.3237955,-2.5481093 -1.3210399,-2.5538842 -1.3210399,-2.5538842 -1.3165663,-2.5601374 -1.3112844,-2.5657238 -1.299056,-2.5750337 -1.2730603,-2.5914783 -1.3085669,-2.6530455 -1.3085669,-2.6530455 -1.3290465,-2.6416766 -1.3397187,-2.6368324 -1.350979,-2.6336468 -1.350979,-2.6336468 -1.3582527,-2.6328971 -1.3655445,-2.6336466 -1.3726726,-2.6353196 -1.3794742,-2.6380548 -1.3855495,-2.6421334 -1.3908957,-2.6471608 -1.395562,-2.6527978 -1.399723,-2.6588337 -1.399723,-2.6588337 -1.4039765,-2.6678374 -1.4068586,-2.6773655 -1.4077618,-2.6872792 -1.4065295,-2.6971564 -1.4031146,-2.7065057 -1.3976834,-2.7148466 -1.3905141,-2.7217519 -1.3822655,-2.72733 -1.3822655,-2.72733 -1.3757229,-2.7303184 -1.3689145,-2.7325801 -1.3618188,-2.7338086 -1.3546442,-2.7337101 -1.3476541,-2.7320247 -1.3409655,-2.7294036 -1.3345601,-2.7261481 -1.3288521,-2.7217988 -1.3288521,-2.7217988 -1.3187908,-2.7113139 -1.3100564,-2.6996882 -1.2384681,-2.7416641 -1.2384681,-2.7416641 -1.2456427,-2.7528049 -1.253747,-2.7632963 -1.2623224,-2.7734042 -1.2716802,-2.7827826 -1.2823976,-2.7905704 -1.2941466,-2.7966898 -1.3065047,-2.801469 -1.3192935,-2.8049558 -1.3192935,-2.8049558 -1.3322511,-2.806856 -1.3453604,-2.8069894 -1.3584343,-2.8060739 -1.3713598,-2.8038962 -1.3839693,-2.8003214 -1.3962201,-2.7956486 -1.4080969,-2.7901096 -1.4197027,-2.7840135 -1.4197027,-2.7840135 -1.4305572,-2.7771707 -1.4409163,-2.7695947 -1.4505666,-2.761134 -1.4594875,-2.7519043 -1.4594875,-2.7519043 -1.4704777,-2.7379058 -1.4793264,-2.7224623 -1.4827754,-2.7142546 -1.4856407,-2.7058253 -1.4877328,-2.6971709 -1.4891722,-2.6883852 -1.4898686,-2.679509 -1.4897469,-2.6706072 -1.4888453,-2.6617486 -1.48726,-2.6529891 -1.4849008,-2.6444024 -1.4819408,-2.6360065 -1.4742334,-2.6199608 -1.4742334,-2.6199608 -1.4624788,-2.6031221 -1.4556796,-2.5954142 -1.4481202,-2.5884616 -1.4397444,-2.582512 -1.4308481,-2.5773786 -1.4215882,-2.5729268 -1.411786,-2.5698965 -1.411786,-2.5698965 -1.4000687,-2.5678029 -1.3882109,-2.5669247 -1.3882109,-2.5669247 -1.3951162,-2.5567323 -1.4012146,-2.5460376 -1.4012146,-2.5460376 -1.4051433,-2.5359215 -1.4073198,-2.5252697 -1.4087379,-2.5144942 -1.4089608,-2.5036257 -1.4075466,-2.4928503 -1.4047025,-2.4823531 -1.4007403,-2.4722347 -1.3960853,-2.4624096 -1.3960853,-2.4624096 -1.3899705,-2.4525551 -1.3826062,-2.4435944 -1.3745959,-2.4351991 -1.3658112,-2.427621 -1.3560871,-2.4212967 -1.3457064,-2.4160982 -1.3348863,-2.4119249 -1.3237933,-2.4085128 -1.3237933,-2.4085128 -1.3096264,-2.4059173 -1.2952745,-2.4047116 -1.2808756,-2.4050271 -1.2665798,-2.4067743 -1.2525352,-2.4099654 -1.2388676,-2.4145087 -1.2256929,-2.4203272 -1.2130098,-2.4271532 -1.2130098,-2.4271532 -1.1999525,-2.4357593 -1.1875146,-2.44524 -1.1758494,-2.4556532 -1.1652972,-2.467191 -1.1606084,-2.4734471 -1.1564342,-2.4800622 -1.1489819,-2.4938103 -1.1427436,-2.508158 -1.1404577,-2.5156293 -1.1388657,-2.5232896 -1.1388657,-2.5232896 -1.1368589,-2.536274 -1.1360925,-2.5493935 -1.1372925,-2.5624812 -1.1399072,-2.575358 -1.1399072,-2.575358 -1.1429163,-2.585299 -1.1467262,-2.5949613 -1.1560986,-2.6134974 -1.2267546,-2.5727042z" transform="matrix(1,0,0,-1,3.0995937,1.4493155)" fill="rgb(104,104,104)" fill-rule="nonzero" shaper:cutDepth="0.0000762" stroke-linecap="round" stroke-linejoin="round" /><path d="M-1.7066037,-2.6177116 L-1.7066037,-2.6177116 -1.7140249,-2.6132827 -1.72107,-2.6082631 -1.7345277,-2.5974087 -1.7406715,-2.591319 -1.7462744,-2.5847316 -1.756159,-2.5705392 -1.756159,-2.5705392 -1.7614809,-2.5610497 -1.7656676,-2.5510002 -1.7688923,-2.5406057 -1.7711674,-2.5299609 -1.7727409,-2.5191907 -1.7735947,-2.5083391 -1.7738,-2.4974547 -1.7732296,-2.4865852 -1.7700173,-2.4650586 -1.7648186,-2.4439213 -1.7581971,-2.4231843 -1.7503721,-2.4028686 -1.7503721,-2.4028686 -1.7403688,-2.3812748 -1.7291004,-2.360313 -1.7291004,-2.360313 -1.7207527,-2.3467364 -1.7116373,-2.3336553 -1.7022076,-2.3207981 -1.6923225,-2.3082873 -1.6816719,-2.2964194 -1.6702971,-2.2852434 -1.6582334,-2.2748186 -1.6456931,-2.2649692 -1.6456931,-2.2649692 -1.6362365,-2.2587931 -1.6263248,-2.2533901 -1.6159428,-2.2489489 -1.6052828,-2.245241 -1.6052828,-2.245241 -1.593675,-2.2416906 -1.5817873,-2.2392062 -1.5696944,-2.2381015 -1.5575504,-2.2381259 -1.5575504,-2.2381259 -1.541887,-2.2404883 -1.5265678,-2.2445186 -1.5265678,-2.2445186 -1.5182686,-2.2473019 -1.5102436,-2.2508137 -1.4945466,-2.2585777 -1.4945466,-2.2585777 -1.4799602,-2.2681688 -1.4666441,-2.2794509 -1.4550317,-2.2924803 -1.4499419,-2.2995741 -1.4453684,-2.3070115 -1.4413374,-2.3147611 -1.4378719,-2.3227815 -1.432626,-2.3394369 -1.4308055,-2.3479859 -1.4295807,-2.3566306 -1.4286563,-2.3740694 -1.4286563,-2.3740694 -1.4301687,-2.3919478 -1.4327307,-2.4097001 -1.4366365,-2.4272143 -1.4418544,-2.4443784 -1.4483891,-2.4610863 -1.4557375,-2.4774511 -1.4634217,-2.4936611 -1.4721619,-2.5093161 -1.4721619,-2.5093161 -1.4846203,-2.5295585 -1.4980809,-2.5491465 -1.5125945,-2.5679675 -1.5285428,-2.5855853 -1.5371703,-2.5937585 -1.5462739,-2.6013992 -1.5557781,-2.6085335 -1.5656331,-2.6151772 -1.5758755,-2.6212024 -1.5865573,-2.6264098 -1.5976409,-2.6306939 -1.6091478,-2.633651 -1.6091478,-2.633651 -1.6215745,-2.6359235 -1.6341965,-2.6366237 -1.6468363,-2.6364693 -1.6594052,-2.6351254 -1.6717323,-2.6323292 -1.6837246,-2.6283197 -1.6953433,-2.623345 -1.706685,-2.6177587 -1.7066037,-2.6177116z M-1.6584462,-2.4037435 L-1.6584462,-2.4037435 -1.6682504,-2.4216232 -1.6770396,-2.4400205 -1.6844677,-2.4590087 -1.6899677,-2.4786382 -1.6918438,-2.4886569 -1.692921,-2.4988 -1.6928313,-2.508988 -1.6912634,-2.519063 -1.6878915,-2.5286764 -1.6825805,-2.5373675 -1.6755879,-2.5447836 -1.6673437,-2.5507737 -1.6672683,-2.5507232 -1.6672683,-2.5507232 -1.6598288,-2.5543887 -1.6518652,-2.556718 -1.6436049,-2.5573743 -1.6353423,-2.5566242 -1.6353423,-2.5566242 -1.6273383,-2.5547474 -1.6196615,-2.5518021 -1.6123893,-2.5479647 -1.6055071,-2.5434614 -1.5928736,-2.532945 -1.5814159,-2.5211482 -1.5709823,-2.5084344 -1.5612697,-2.4951623 -1.5437436,-2.4673288 -1.5437436,-2.4673288 -1.5303435,-2.4420764 -1.5243874,-2.4290791 -1.5190473,-2.4158185 -1.5145594,-2.4022448 -1.5113294,-2.3883232 -1.5098127,-2.3741022 -1.5100624,-2.3669683 -1.5110092,-2.3598773 -1.5110092,-2.3598773 -1.5142003,-2.3488382 -1.5165869,-2.3436008 -1.5196115,-2.3387132 -1.5233352,-2.3343301 -1.5275102,-2.330376 -1.5320055,-2.3267912 -1.5369205,-2.3238118 -1.5369205,-2.3238118 -1.5427747,-2.3206428 -1.5490584,-2.3184315 -1.5555379,-2.3168862 -1.5621658,-2.3161943 -1.5688043,-2.3167047 -1.5753217,-2.3181244 -1.5877847,-2.322806 -1.5877847,-2.322806 -1.5992353,-2.33011 -1.6097186,-2.3387545 -1.6193529,-2.348328 -1.62808,-2.3587404 -1.6440781,-2.380695 -1.6515562,-2.3920365 -1.6584462,-2.4037435z" transform="matrix(1,0,0,-1,3.0995937,1.4493155)" fill="rgb(104,104,104)" fill-rule="nonzero" shaper:cutDepth="0.0000762" stroke-linecap="round" stroke-linejoin="round" /><path d="M-2.1520967,-1.1430328 L-2.117909,-1.0838181 -2.0749523,-1.1086192 -2.0331741,-1.0362573 -1.9699074,-1.0727844 -2.0116855,-1.1451463 -1.8661271,-1.2291844 -1.9023069,-1.2918497 -2.1708637,-1.4143007 -2.2312941,-1.3794112 -2.1091399,-1.1678339 -2.1520967,-1.1430328z M-2.0913325,-1.3102179 L-2.0913325,-1.3102179 -2.0496561,-1.2876192 -1.9681287,-1.2479323 -2.0462103,-1.2028518 -2.0462103,-1.2028518 -2.0908087,-1.2789562 -2.0908087,-1.2789562 -2.1020554,-1.2964694 -2.1139073,-1.3135788 -2.1139073,-1.3135788 -2.1217678,-1.3242282 -2.1302545,-1.3343858 -2.1302545,-1.3343858 -2.111091,-1.3218228 -2.0913325,-1.3102179z" transform="matrix(1,0,0,-1,3.0995937,1.4493155)" fill="rgb(104,104,104)" fill-rule="nonzero" shaper:cutDepth="0.0000762" stroke-linecap="round" stroke-linejoin="round" /><path d="M-2.4386886,-1.2716381 L-2.4386886,-1.2716381 -2.4461098,-1.2672093 -2.4531549,-1.2621896 -2.4666126,-1.2513353 -2.4727564,-1.2452456 -2.4783593,-1.2386581 -2.488244,-1.2244658 -2.488244,-1.2244658 -2.4935659,-1.2149763 -2.4977525,-1.2049267 -2.5009772,-1.1945323 -2.5032524,-1.1838874 -2.5048258,-1.1731172 -2.5056797,-1.1622656 -2.5058849,-1.1513813 -2.5053146,-1.1405117 -2.5021022,-1.1189852 -2.4969035,-1.0978479 -2.490282,-1.0771109 -2.4824571,-1.0567952 -2.4824571,-1.0567952 -2.4724537,-1.0352014 -2.4611854,-1.0142396 -2.4611854,-1.0142396 -2.4528376,-1.000663 -2.4437223,-0.9875819 -2.4342925,-0.9747247 -2.4244074,-0.9622138 -2.4137568,-0.9503459 -2.4023821,-0.93917 -2.3903184,-0.9287452 -2.377778,-0.9188958 -2.377778,-0.9188958 -2.3683214,-0.9127197 -2.3584097,-0.9073166 -2.3480278,-0.9028755 -2.3373677,-0.8991676 -2.3373677,-0.8991676 -2.3257599,-0.8956172 -2.3138722,-0.8931327 -2.3017794,-0.892028 -2.2896353,-0.8920524 -2.2896353,-0.8920524 -2.2739719,-0.8944148 -2.2586528,-0.8984452 -2.2586528,-0.8984452 -2.2503535,-0.9012285 -2.2423286,-0.9047403 -2.2266315,-0.9125043 -2.2266315,-0.9125043 -2.2120451,-0.9220954 -2.1987291,-0.9333775 -2.1871166,-0.9464069 -2.1820268,-0.9535006 -2.1774533,-0.960938 -2.1734224,-0.9686877 -2.1699569,-0.9767081 -2.1647109,-0.9933635 -2.1628904,-1.0019125 -2.1616656,-1.0105572 -2.1607413,-1.027996 -2.1607413,-1.027996 -2.1622536,-1.0458743 -2.1648157,-1.0636266 -2.1687215,-1.0811409 -2.1739394,-1.098305 -2.180474,-1.1150128 -2.1878224,-1.1313777 -2.1955066,-1.1475877 -2.2042468,-1.1632427 -2.2042468,-1.1632427 -2.2167053,-1.1834851 -2.2301659,-1.2030731 -2.2446795,-1.2218941 -2.2606278,-1.2395119 -2.2692553,-1.2476851 -2.2783589,-1.2553258 -2.287863,-1.2624601 -2.297718,-1.2691037 -2.3079604,-1.275129 -2.3186423,-1.2803364 -2.3297258,-1.2846205 -2.3412327,-1.2875776 -2.3412327,-1.2875776 -2.3536595,-1.28985 -2.3662814,-1.2905502 -2.3789213,-1.2903958 -2.3914901,-1.289052 -2.4038173,-1.2862558 -2.4158095,-1.2822463 -2.4274282,-1.2772716 -2.4387699,-1.2716853 -2.4386886,-1.2716381z M-2.3905311,-1.05767 L-2.3905311,-1.05767 -2.4003354,-1.0755498 -2.4091245,-1.0939471 -2.4165527,-1.1129353 -2.4220526,-1.1325648 -2.4239288,-1.1425835 -2.425006,-1.1527265 -2.4249162,-1.1629146 -2.4233484,-1.1729896 -2.4199764,-1.182603 -2.4146654,-1.1912941 -2.4076728,-1.1987101 -2.3994286,-1.2047003 -2.3993533,-1.2046497 -2.3993533,-1.2046497 -2.3919137,-1.2083153 -2.3839502,-1.2106446 -2.3756899,-1.2113008 -2.3674273,-1.2105508 -2.3674273,-1.2105508 -2.3594232,-1.208674 -2.3517464,-1.2057287 -2.3444742,-1.2018912 -2.3375921,-1.197388 -2.3249585,-1.1868716 -2.3135008,-1.1750748 -2.3030672,-1.162361 -2.2933546,-1.1490889 -2.2758285,-1.1212554 -2.2758285,-1.1212554 -2.2624285,-1.0960029 -2.2564723,-1.0830056 -2.2511323,-1.069745 -2.2466443,-1.0561714 -2.2434143,-1.0422498 -2.2418976,-1.0280288 -2.2421474,-1.0208949 -2.2430941,-1.0138039 -2.2430941,-1.0138039 -2.2462853,-1.0027648 -2.2486718,-0.9975273 -2.2516965,-0.9926397 -2.2554201,-0.9882567 -2.2595952,-0.9843026 -2.2640904,-0.9807177 -2.2690055,-0.9777384 -2.2690055,-0.9777384 -2.2748596,-0.9745694 -2.2811433,-0.9723581 -2.2876228,-0.9708127 -2.2942508,-0.9701209 -2.3008893,-0.9706313 -2.3074066,-0.972051 -2.3198696,-0.9767326 -2.3198696,-0.9767326 -2.3313203,-0.9840366 -2.3418036,-0.992681 -2.3514378,-1.0022545 -2.3601649,-1.012667 -2.376163,-1.0346215 -2.3836412,-1.0459631 -2.3905311,-1.05767z" transform="matrix(1,0,0,-1,3.0995937,1.4493155)" fill="rgb(104,104,104)" fill-rule="nonzero" shaper:cutDepth="0.0000762" stroke-linecap="round" stroke-linejoin="round" /><path d="M-1.3328903,0.1752897 L-1.2948193,0.2412305 -1.183731,0.1770936 -1.1483905,0.2189677 -1.1483905,0.2189677 -1.1538029,0.221343 -1.1589693,0.2242585 -1.1690804,0.2304694 -1.1790049,0.2369778 -1.1883981,0.2442305 -1.1970367,0.2523692 -1.2050459,0.2611358 -1.2123487,0.2704816 -1.219107,0.280242 -1.219107,0.280242 -1.2266137,0.2949771 -1.2320233,0.3106063 -1.2338166,0.3186824 -1.2350172,0.3268679 -1.2356966,0.3351135 -1.2356717,0.3433861 -1.234065,0.3598544 -1.2304343,0.3759969 -1.2247743,0.3915448 -1.2173513,0.4063328 -1.2173513,0.4063328 -1.2095662,0.4188161 -1.2001296,0.4301224 -1.1900452,0.4408529 -1.1790029,0.4505801 -1.1666972,0.4586571 -1.1534943,0.4651615 -1.1397114,0.4703428 -1.1255636,0.4744135 -1.1255636,0.4744135 -1.1151408,0.4761858 -1.1046292,0.4772745 -1.0940629,0.4775772 -1.0835087,0.4770804 -1.0835087,0.4770804 -1.0678481,0.4749079 -1.0525968,0.4707284 -1.0525968,0.4707284 -1.0430034,0.4675919 -1.0337319,0.4635898 -1.0156967,0.4545121 -1.0156967,0.4545121 -1.0064718,0.4491712 -0.9978587,0.4428713 -0.9815805,0.4290676 -0.9815805,0.4290676 -0.9736176,0.4212159 -0.9661014,0.4129389 -0.959149,0.4041783 -0.9529742,0.3948589 -0.9475231,0.3850911 -0.9426685,0.3750137 -0.9342331,0.3543021 -0.9820827,0.2973687 -0.9908594,0.3158943 -0.9908594,0.3158943 -0.9959234,0.3260931 -1.0017991,0.3358518 -1.0079413,0.3454446 -1.014692,0.3546218 -1.0223388,0.3630618 -1.030736,0.3707676 -1.0397369,0.3777425 -1.0491668,0.3841373 -1.0491668,0.3841373 -1.0549368,0.3875323 -1.0611153,0.3901526 -1.0737652,0.3945704 -1.0737652,0.3945704 -1.0834805,0.3963877 -1.093339,0.3970747 -1.1031956,0.3963524 -1.1128308,0.3941557 -1.1219367,0.3903169 -1.130115,0.3847693 -1.1370842,0.3777649 -1.1427803,0.3696863 -1.1427803,0.3696863 -1.1451072,0.3652379 -1.1468724,0.360529 -1.1494899,0.3508295 -1.1504005,0.3408268 -1.149684,0.3308014 -1.149684,0.3308014 -1.1468726,0.3203521 -1.1426827,0.3103752 -1.137039,0.3011423 -1.1303151,0.2926631 -1.1228034,0.2848732 -1.1146797,0.2777252 -1.1060234,0.2712303 -1.0967473,0.2656592 -1.0967473,0.2656592 -1.0811084,0.2573126 -1.0647735,0.2504282 -1.0479904,0.2447233 -1.0309699,0.2397664 -1.1661185,0.0790039 -1.3328903,0.1752897z" transform="matrix(1,0,0,-1,3.0995937,1.4493155)" fill="rgb(104,104,104)" fill-rule="nonzero" shaper:cutDepth="0.0000762" stroke-linecap="round" stroke-linejoin="round" /><path d="M-1.5266744,0.2739903 L-1.5266744,0.2739903 -1.5340956,0.2784191 -1.5411407,0.2834388 -1.5545984,0.2942931 -1.5607422,0.3003829 -1.5663451,0.3069703 -1.5762297,0.3211627 -1.5762297,0.3211627 -1.5815516,0.3306521 -1.5857382,0.3407017 -1.588963,0.3510961 -1.5912381,0.361741 -1.5928116,0.3725112 -1.5936654,0.3833628 -1.5938707,0.3942471 -1.5933003,0.4051167 -1.590088,0.4266432 -1.5848893,0.4477805 -1.5782678,0.4685175 -1.5704428,0.4888333 -1.5704428,0.4888333 -1.5604395,0.510427 -1.5491711,0.5313888 -1.5491711,0.5313888 -1.5408234,0.5449654 -1.531708,0.5580466 -1.5222783,0.5709037 -1.5123932,0.5834146 -1.5017426,0.5952825 -1.4903678,0.6064584 -1.4783041,0.6168832 -1.4657638,0.6267326 -1.4657638,0.6267326 -1.4563072,0.6329087 -1.4463955,0.6383118 -1.4360135,0.6427529 -1.4253535,0.6464609 -1.4253535,0.6464609 -1.4137457,0.6500112 -1.401858,0.6524957 -1.3897651,0.6536004 -1.3776211,0.653576 -1.3776211,0.653576 -1.3619577,0.6512136 -1.3466385,0.6471832 -1.3466385,0.6471832 -1.3383393,0.6444 -1.3303143,0.6408881 -1.3146173,0.6331241 -1.3146173,0.6331241 -1.3000308,0.623533 -1.2867148,0.6122509 -1.2751024,0.5992215 -1.2700126,0.5921278 -1.2654391,0.5846904 -1.2614081,0.5769407 -1.2579426,0.5689203 -1.2526967,0.5522649 -1.2508762,0.5437159 -1.2496513,0.5350713 -1.248727,0.5176325 -1.248727,0.5176325 -1.2502393,0.4997541 -1.2528014,0.4820018 -1.2567072,0.4644875 -1.2619251,0.4473234 -1.2684598,0.4306156 -1.2758082,0.4142507 -1.2834924,0.3980407 -1.2922326,0.3823857 -1.2922326,0.3823857 -1.304691,0.3621433 -1.3181516,0.3425553 -1.3326652,0.3237343 -1.3486135,0.3061166 -1.357241,0.2979433 -1.3663446,0.2903026 -1.3758488,0.2831683 -1.3857038,0.2765247 -1.3959462,0.2704994 -1.406628,0.265292 -1.4177116,0.2610079 -1.4292185,0.2580508 -1.4292185,0.2580508 -1.4416452,0.2557784 -1.4542672,0.2550782 -1.466907,0.2552326 -1.4794759,0.2565764 -1.491803,0.2593726 -1.5037953,0.2633821 -1.515414,0.2683568 -1.5267557,0.2739431 -1.5266744,0.2739903z M-1.4785169,0.4879584 L-1.4785169,0.4879584 -1.4883211,0.4700786 -1.4971103,0.4516813 -1.5045384,0.4326931 -1.5100384,0.4130637 -1.5119145,0.403045 -1.5129917,0.3929019 -1.512902,0.3827138 -1.5113341,0.3726388 -1.5079622,0.3630254 -1.5026512,0.3543344 -1.4956586,0.3469183 -1.4874144,0.3409282 -1.487339,0.3409787 -1.487339,0.3409787 -1.4798995,0.3373131 -1.4719359,0.3349838 -1.4636756,0.3343276 -1.455413,0.3350776 -1.455413,0.3350776 -1.447409,0.3369545 -1.4397322,0.3398997 -1.43246,0.3437372 -1.4255778,0.3482404 -1.4129443,0.3587568 -1.4014866,0.3705536 -1.391053,0.3832674 -1.3813404,0.3965395 -1.3638143,0.424373 -1.3638143,0.424373 -1.3504142,0.4496255 -1.3444581,0.4626228 -1.339118,0.4758834 -1.3346301,0.489457 -1.3314001,0.5033786 -1.3298834,0.5175997 -1.3301331,0.5247335 -1.3310799,0.5318246 -1.3310799,0.5318246 -1.334271,0.5428636 -1.3366576,0.5481011 -1.3396822,0.5529887 -1.3434059,0.5573717 -1.3475809,0.5613258 -1.3520762,0.5649107 -1.3569912,0.5678901 -1.3569912,0.5678901 -1.3628454,0.571059 -1.3691291,0.5732703 -1.3756085,0.5748157 -1.3822365,0.5755075 -1.388875,0.5749971 -1.3953924,0.5735774 -1.4078554,0.5688959 -1.4078554,0.5688959 -1.419306,0.5615918 -1.4297893,0.5529474 -1.4394236,0.5433739 -1.4481507,0.5329614 -1.4641488,0.5110069 -1.4716269,0.4996653 -1.4785169,0.4879584z" transform="matrix(1,0,0,-1,3.0995937,1.4493155)" fill="rgb(104,104,104)" fill-rule="nonzero" shaper:cutDepth="0.0000762" stroke-linecap="round" stroke-linejoin="round" /><path d="M-0.6675718,-1.7587851 L-0.6967116,-1.8091793 -0.6967116,-1.8091793 -0.684128,-1.8251125 -0.684128,-1.8251125 -0.6750811,-1.8344241 -0.6653323,-1.8429969 -0.6549236,-1.8507563 -0.6440044,-1.8577707 -0.6440044,-1.8577707 -0.6337756,-1.863016 -0.6232168,-1.8675754 -0.6122361,-1.8709915 -0.6010116,-1.873493 -0.6010116,-1.873493 -0.5890052,-1.87463 -0.5769482,-1.8743474 -0.5650082,-1.8726472 -0.5533518,-1.869554 -0.5533518,-1.869554 -0.5397889,-1.8644852 -0.5332152,-1.8614554 -0.5270521,-1.857664 -0.5270521,-1.857664 -0.5135966,-1.847275 -0.5015568,-1.8352715 -0.4908622,-1.8220525 -0.4815832,-1.8078046 -0.4815832,-1.8078046 -0.4753107,-1.7953208 -0.4700021,-1.7823984 -0.465766,-1.7690873 -0.4631087,-1.7553761 -0.4623385,-1.7414346 -0.4630088,-1.7274805 -0.4648915,-1.713643 -0.4664815,-1.7068413 -0.4688076,-1.700256 -0.4688076,-1.700256 -0.4728513,-1.6910635 -0.4776062,-1.6822168 -0.4830888,-1.6738012 -0.4894492,-1.6660335 -0.4966688,-1.6590563 -0.504374,-1.6526136 -0.5123805,-1.6465503 -0.5209542,-1.6413337 -0.5209542,-1.6413337 -0.5366639,-1.6335227 -0.5531338,-1.6274922 -0.5702419,-1.6236182 -0.5875721,-1.6209025 -0.6157115,-1.6688829 -0.6157115,-1.6688829 -0.6010217,-1.667061 -0.6010217,-1.667061 -0.5920016,-1.6668807 -0.5830046,-1.6675093 -0.5741088,-1.6690029 -0.5653503,-1.6711418 -0.5653503,-1.6711418 -0.5570225,-1.6744428 -0.5490803,-1.6785693 -0.5490803,-1.6785693 -0.5401307,-1.6847894 -0.5318813,-1.6919082 -0.5246665,-1.7000699 -0.5190864,-1.7094174 -0.5171464,-1.7145085 -0.515793,-1.7197887 -0.5140121,-1.7305388 -0.5135058,-1.7414192 -0.513959,-1.746851 -0.5150761,-1.7521814 -0.5150761,-1.7521814 -0.5194184,-1.7668149 -0.526021,-1.7805756 -0.526021,-1.7805756 -0.5318237,-1.7892507 -0.5382983,-1.7974327 -0.5455418,-1.8049404 -0.5537318,-1.8114045 -0.5628642,-1.816434 -0.5725503,-1.8203122 -0.582614,-1.8231012 -0.5930013,-1.8239133 -0.5930013,-1.8239133 -0.6017113,-1.8231654 -0.6102513,-1.8212922 -0.6184141,-1.8181578 -0.6261978,-1.8141839 -0.6261978,-1.8141839 -0.6335302,-1.8092167 -0.6404189,-1.8036548 -0.6467895,-1.7975086 -0.6524007,-1.7906604 -0.6570395,-1.7831204 -0.6610814,-1.7752404 -0.664721,-1.7671651 -0.6675718,-1.7587851z" transform="matrix(1,0,0,-1,3.0995937,1.4493155)" fill="rgb(104,104,104)" fill-rule="nonzero" shaper:cutDepth="0.0000762" stroke-linecap="round" stroke-linejoin="round" /><path d="M-0.8376295,-1.7384543 L-0.8039652,-1.4851271 -0.7556273,-1.5130349 -0.764518,-1.5654203 -0.6791987,-1.6146794 -0.6391506,-1.5802828 -0.5913951,-1.6078545 -0.7901652,-1.7658578 -0.8376295,-1.7384543z M-0.7521697,-1.6759032 L-0.7521697,-1.6759032 -0.7147743,-1.6440192 -0.7712267,-1.6114264 -0.7712267,-1.6114264 -0.7801092,-1.6617383 -0.7801092,-1.6617383 -0.7856607,-1.6896824 -0.7892214,-1.703474 -0.7940753,-1.7168666 -0.7940753,-1.7168666 -0.7848294,-1.7055221 -0.7848294,-1.7055221 -0.7688218,-1.6903614 -0.7521697,-1.6759032z" transform="matrix(1,0,0,-1,3.0995937,1.4493155)" fill="rgb(104,104,104)" fill-rule="nonzero" shaper:cutDepth="0.0000762" stroke-linecap="round" stroke-linejoin="round" /><path d="M-1.0055896,-1.6414264 L-1.0055896,-1.6414264 -1.0219882,-1.6314216 -1.0297267,-1.6257249 -1.0370583,-1.6195137 -1.0436056,-1.6124951 -1.0487333,-1.6043798 -1.0523284,-1.5954756 -1.0544881,-1.5861207 -1.0544881,-1.5861207 -1.0548243,-1.5767314 -1.0535487,-1.5674246 -1.0504412,-1.5585562 -1.0462488,-1.5501541 -1.0462488,-1.5501541 -1.0399591,-1.5407476 -1.0322551,-1.5324637 -1.027846,-1.5289134 -1.023035,-1.5259304 -1.0178742,-1.5236045 -1.0124729,-1.5219098 -1.0124729,-1.5219098 -1.0023195,-1.5208629 -1.0023195,-1.5208629 -1.0090222,-1.5138774 -1.0147253,-1.5060612 -1.0147253,-1.5060612 -1.0180714,-1.4994069 -1.0199859,-1.4921991 -1.0210118,-1.4848118 -1.0209327,-1.4773627 -1.019551,-1.4700364 -1.0172335,-1.4629507 -1.0109134,-1.4494517 -1.0109134,-1.4494517 -1.0055497,-1.4412178 -0.9993255,-1.4336156 -0.9922326,-1.4268149 -0.9843245,-1.4209829 -0.9756634,-1.4163587 -0.9663613,-1.4132258 -0.9566713,-1.4116513 -0.9468535,-1.4115615 -0.9468535,-1.4115615 -0.9400119,-1.4125539 -0.9333114,-1.4142855 -0.9204177,-1.4192701 -0.9080135,-1.4253945 -0.8958888,-1.4320549 -0.8240173,-1.47355 -0.9421273,-1.6781225 -1.0055896,-1.6414264z M-0.9508293,-1.5225617 L-0.9197449,-1.5405083 -0.8868609,-1.4835516 -0.9153393,-1.4671096 -0.9153393,-1.4671096 -0.9244918,-1.4622287 -0.9342299,-1.4586558 -0.9393336,-1.4577502 -0.9445182,-1.4579669 -0.9495751,-1.459106 -0.9543987,-1.4610166 -0.9543987,-1.4610166 -0.9588603,-1.464091 -0.9629227,-1.4676761 -0.9664258,-1.4718093 -0.9693763,-1.476354 -0.9693763,-1.476354 -0.9733711,-1.4852484 -0.9742952,-1.4900353 -0.9743705,-1.4949277 -0.9743705,-1.4949277 -0.9735017,-1.4996062 -0.9719661,-1.5041073 -0.9696181,-1.5082467 -0.9664687,-1.5118093 -0.9590394,-1.5177537 -0.9508293,-1.5225617z M-0.986186,-1.6064007 L-0.9654631,-1.6183651 -0.9398891,-1.5740698 -0.9611645,-1.5617557 -0.9611645,-1.5617557 -0.9679918,-1.5581858 -0.9752953,-1.555738 -0.9791189,-1.5552918 -0.9829524,-1.5556864 -0.9902013,-1.5582475 -0.9902013,-1.5582475 -0.9937883,-1.5604232 -0.9970309,-1.5630978 -1.002199,-1.5696884 -1.002199,-1.5696884 -1.0043513,-1.5744243 -1.0055616,-1.5794936 -1.0054549,-1.5846891 -1.0041648,-1.5897297 -1.0041648,-1.5897297 -1.0009986,-1.5951072 -0.99663,-1.5995585 -0.986186,-1.6064007z" transform="matrix(1,0,0,-1,3.0995937,1.4493155)" fill="rgb(104,104,104)" fill-rule="nonzero" shaper:cutDepth="0.0000762" stroke-linecap="round" stroke-linejoin="round" /><path d="M-1.0472104,-1.3446894 L-1.1653204,-1.5492619 -1.1203279,-1.5752383 -1.0022179,-1.3706658 -1.0472104,-1.3446894z" transform="matrix(1,0,0,-1,3.0995937,1.4493155)" fill="rgb(104,104,104)" fill-rule="nonzero" shaper:cutDepth="0.0000762" stroke-linecap="round" stroke-linejoin="round" /><path d="M-1.2386651,-1.5069163 L-1.2522418,-1.368931 -1.2522418,-1.368931 -1.254242,-1.3343339 -1.2541277,-1.317004 -1.2530559,-1.2997085 -1.2530559,-1.2997085 -1.2623542,-1.3195041 -1.2723033,-1.3389808 -1.2723033,-1.3389808 -1.2877082,-1.3676088 -1.3348812,-1.4513659 -1.3758751,-1.4276981 -1.2577651,-1.2231256 -1.2187971,-1.2456237 -1.2049252,-1.389228 -1.2049252,-1.389228 -1.2021048,-1.4279288 -1.2021048,-1.4279288 -1.2016888,-1.4496823 -1.2016888,-1.4496823 -1.1889133,-1.4234683 -1.1889133,-1.4234683 -1.1767813,-1.400412 -1.122326,-1.3013214 -1.0801543,-1.3256692 -1.1982643,-1.5302417 -1.2386651,-1.5069163z" transform="matrix(1,0,0,-1,3.0995937,1.4493155)" fill="rgb(104,104,104)" fill-rule="nonzero" shaper:cutDepth="0.0000762" stroke-linecap="round" stroke-linejoin="round" /><path d="M0.2723104,-0.9013007 L0.2723104,-0.9013007 0.2549733,-0.890954 0.2549733,-0.890954 0.2475541,-0.8860056 0.2405106,-0.8805366 0.2339122,-0.8745379 0.2278045,-0.8680398 0.2225436,-0.8608401 0.2184198,-0.8529339 0.2155351,-0.8444965 0.2138277,-0.8357432 0.2138277,-0.8357432 0.2133852,-0.829869 0.2137189,-0.8239793 0.2156901,-0.8123608 0.2197143,-0.8012802 0.2249854,-0.790733 0.2249854,-0.790733 0.2289329,-0.7842339 0.2336313,-0.7782499 0.2386629,-0.7725433 0.244152,-0.7672728 0.2502954,-0.7627917 0.2569343,-0.7590604 0.2639108,-0.7560387 0.2711277,-0.7536199 0.2711277,-0.7536199 0.280327,-0.7521151 0.2896454,-0.7519421 0.298885,-0.7531639 0.3077993,-0.7558881 0.3248257,-0.763466 0.3410937,-0.7725577 0.3562068,-0.7812832 0.4013493,-0.7030941 0.4441512,-0.7278057 0.3260412,-0.9323783 0.2723104,-0.9013007z M0.2840193,-0.8618325 L0.3029847,-0.8727822 0.3343121,-0.8185216 0.316265,-0.808046 0.316265,-0.808046 0.3085557,-0.8038496 0.3003076,-0.8008551 0.3003076,-0.8008551 0.2906486,-0.8000358 0.2858303,-0.8006588 0.2812611,-0.8022819 0.2771777,-0.8049082 0.2735331,-0.8081099 0.2702119,-0.8116495 0.267617,-0.8157396 0.267617,-0.8157396 0.2637358,-0.8248743 0.2626338,-0.8297248 0.2624186,-0.834684 0.2633225,-0.8395696 0.2650137,-0.8442402 0.2673369,-0.8486274 0.2705369,-0.8524196 0.2705369,-0.8524196 0.2770562,-0.8574371 0.2840193,-0.8618325z" transform="matrix(1,0,0,-1,3.0995937,1.4493155)" fill="rgb(104,104,104)" fill-rule="nonzero" shaper:cutDepth="0.0000762" stroke-linecap="round" stroke-linejoin="round" /><path d="M0.1231359,-0.8151747 L0.1231359,-0.8151747 0.1066834,-0.8053389 0.1066834,-0.8053389 0.0988657,-0.8002494 0.0914631,-0.7945745 0.0845201,-0.7883445 0.0781782,-0.7815043 0.0727754,-0.7739118 0.0687566,-0.7655014 0.0661428,-0.7565536 0.0648565,-0.7473194 0.0648565,-0.7473194 0.0651947,-0.7369345 0.0671113,-0.7267288 0.0706319,-0.716952 0.0752362,-0.7076455 0.0752362,-0.7076455 0.0796247,-0.7007129 0.0847347,-0.6942938 0.090435,-0.6883925 0.0967237,-0.6831226 0.1035557,-0.6785786 0.1109592,-0.6750433 0.1188162,-0.6726806 0.1269255,-0.671432 0.1269255,-0.671432 0.1338394,-0.6714047 0.1406819,-0.6724175 0.1540088,-0.676121 0.1455896,-0.5554311 0.1977855,-0.5855665 0.2032426,-0.7037642 0.2530595,-0.6174789 0.2958614,-0.6421906 0.1777514,-0.8467631 0.1231359,-0.8151747z M0.1392855,-0.7782704 L0.1546949,-0.787167 0.1861849,-0.7326247 0.1699326,-0.7232239 0.1699326,-0.7232239 0.1608307,-0.7185515 0.1511516,-0.7152366 0.1460954,-0.7144502 0.1409869,-0.7147696 0.1360373,-0.7160654 0.1313575,-0.7181407 0.1313575,-0.7181407 0.1243509,-0.7235149 0.1190596,-0.7305878 0.1190596,-0.7305878 0.1167709,-0.735375 0.115156,-0.7404362 0.1146685,-0.7457239 0.1151312,-0.7510126 0.1151312,-0.7510126 0.1164632,-0.7555152 0.1184088,-0.7597875 0.121001,-0.7637021 0.1241852,-0.7671521 0.1314303,-0.7731254 0.1392855,-0.7782704z" transform="matrix(1,0,0,-1,3.0995937,1.4493155)" fill="rgb(104,104,104)" fill-rule="nonzero" shaper:cutDepth="0.0000762" stroke-linecap="round" stroke-linejoin="round" /><path d="M-0.1043679,-0.6837398 L-0.0813355,-0.6438466 -0.0091199,-0.6855402 0.0140538,-0.6454022 -0.0564146,-0.6047173 -0.0343845,-0.5665599 0.036084,-0.6072449 0.0627414,-0.5610729 -0.009183,-0.5195473 0.013972,-0.4794417 0.1286983,-0.5456789 0.0106496,-0.7501452 -0.1043679,-0.6837398z" transform="matrix(1,0,0,-1,3.0995937,1.4493155)" fill="rgb(104,104,104)" fill-rule="nonzero" shaper:cutDepth="0.0000762" stroke-linecap="round" stroke-linejoin="round" /><path d="M-0.1942107,-0.5596633 L-0.2406102,-0.5755994 -0.2406102,-0.5755994 -0.2357372,-0.5936782 -0.2319826,-0.6022592 -0.2273083,-0.6103742 -0.2273083,-0.6103742 -0.2211276,-0.6180611 -0.2141997,-0.6250784 -0.2065104,-0.6312556 -0.1983371,-0.636762 -0.1983371,-0.636762 -0.1901495,-0.6411698 -0.1813876,-0.6443208 -0.1724487,-0.6469195 -0.1632914,-0.6485399 -0.1539882,-0.6485624 -0.1447764,-0.6472395 -0.1357923,-0.6448063 -0.1270939,-0.6414959 -0.1270939,-0.6414959 -0.1182461,-0.6362074 -0.1101249,-0.6298433 -0.1032519,-0.6221499 -0.0974166,-0.6136376 -0.0974166,-0.6136376 -0.0940954,-0.606774 -0.0913312,-0.5996681 -0.0893032,-0.5923207 -0.0882056,-0.5847781 -0.0882934,-0.5771575 -0.0891389,-0.5695793 -0.0904995,-0.562073 -0.0929071,-0.5548469 -0.0929071,-0.5548469 -0.1013502,-0.5371428 -0.1115427,-0.5203838 -0.1115427,-0.5203838 -0.1218772,-0.5049655 -0.1258802,-0.4966002 -0.1279229,-0.4875597 -0.1279229,-0.4875597 -0.1273091,-0.4805095 -0.1246222,-0.4739624 -0.1246222,-0.4739624 -0.1213536,-0.4695148 -0.1173772,-0.4656903 -0.1126644,-0.4628198 -0.1074364,-0.4610557 -0.1019658,-0.4603321 -0.0964582,-0.460672 -0.0911132,-0.4620394 -0.0861024,-0.4643532 -0.0861024,-0.4643532 -0.080786,-0.4682608 -0.076101,-0.4729044 -0.0722911,-0.478291 -0.0694519,-0.4842452 -0.0654008,-0.4968027 -0.0626944,-0.5097164 -0.0148129,-0.4940032 -0.0148129,-0.4940032 -0.0180646,-0.4829553 -0.0220109,-0.4721333 -0.027283,-0.4618942 -0.0337305,-0.45235 -0.0337305,-0.45235 -0.0404978,-0.4450728 -0.0479031,-0.4384496 -0.0558682,-0.4325087 -0.0642091,-0.427114 -0.0642091,-0.427114 -0.0740992,-0.4221635 -0.084396,-0.4181082 -0.0951625,-0.4155588 -0.1061591,-0.4143529 -0.1061591,-0.4143529 -0.1164293,-0.4148198 -0.1265098,-0.4168145 -0.1265098,-0.4168145 -0.1337442,-0.418793 -0.1406189,-0.4218191 -0.1472543,-0.4253326 -0.1534957,-0.4295084 -0.1591359,-0.4344648 -0.1641651,-0.4400447 -0.1727957,-0.4523281 -0.1727957,-0.4523281 -0.1787789,-0.4652793 -0.1809053,-0.4720973 -0.1822047,-0.4791137 -0.1824825,-0.4862459 -0.1819612,-0.4933639 -0.180824,-0.5004102 -0.1787058,-0.5072208 -0.1787058,-0.5072208 -0.1745332,-0.5173225 -0.1691406,-0.5268284 -0.1567053,-0.5448063 -0.1567053,-0.5448063 -0.1497869,-0.5549743 -0.1438745,-0.5657609 -0.1417885,-0.5715395 -0.1410552,-0.5776376 -0.1418045,-0.5837344 -0.1438294,-0.5895374 -0.1438294,-0.5895374 -0.1465371,-0.5931849 -0.1499084,-0.5962234 -0.1538524,-0.5984751 -0.1582246,-0.5996986 -0.1627523,-0.6000416 -0.1672667,-0.5995501 -0.1716289,-0.5982919 -0.1757298,-0.5963401 -0.1757298,-0.5963401 -0.1838474,-0.5894087 -0.187123,-0.5851795 -0.1896327,-0.5804627 -0.1926213,-0.5702095 -0.1937309,-0.5649824 -0.1942107,-0.5596633z" transform="matrix(1,0,0,-1,3.0995937,1.4493155)" fill="rgb(104,104,104)" fill-rule="nonzero" shaper:cutDepth="0.0000762" stroke-linecap="round" stroke-linejoin="round" /><path d="M-0.3451967,-0.4724915 L-0.3915962,-0.4884276 -0.3915962,-0.4884276 -0.3867232,-0.5065064 -0.3829686,-0.5150874 -0.3782943,-0.5232024 -0.3782943,-0.5232024 -0.3721136,-0.5308893 -0.3651857,-0.5379066 -0.3574964,-0.5440837 -0.3493232,-0.5495902 -0.3493232,-0.5495902 -0.3411355,-0.553998 -0.3323736,-0.557149 -0.3234347,-0.5597477 -0.3142774,-0.5613681 -0.3049742,-0.5613906 -0.2957624,-0.5600676 -0.2867783,-0.5576345 -0.2780799,-0.5543241 -0.2780799,-0.5543241 -0.2692321,-0.5490356 -0.2611109,-0.5426715 -0.2542379,-0.5349781 -0.2484026,-0.5264658 -0.2484026,-0.5264658 -0.2450814,-0.5196022 -0.2423173,-0.5124963 -0.2402893,-0.5051489 -0.2391916,-0.4976062 -0.2392794,-0.4899857 -0.2401249,-0.4824075 -0.2414855,-0.4749012 -0.2438931,-0.4676751 -0.2438931,-0.4676751 -0.2523362,-0.449971 -0.2625287,-0.4332119 -0.2625287,-0.4332119 -0.2728632,-0.4177937 -0.2768662,-0.4094284 -0.2789089,-0.4003879 -0.2789089,-0.4003879 -0.2782952,-0.3933377 -0.2756083,-0.3867905 -0.2756083,-0.3867905 -0.2723396,-0.382343 -0.2683632,-0.3785185 -0.2636504,-0.375648 -0.2584224,-0.3738839 -0.2529518,-0.3731603 -0.2474442,-0.3735001 -0.2420992,-0.3748676 -0.2370884,-0.3771814 -0.2370884,-0.3771814 -0.231772,-0.381089 -0.227087,-0.3857325 -0.2232771,-0.3911192 -0.2204379,-0.3970733 -0.2163868,-0.4096309 -0.2136804,-0.4225446 -0.1657989,-0.4068314 -0.1657989,-0.4068314 -0.1690506,-0.3957835 -0.1729969,-0.3849615 -0.178269,-0.3747224 -0.1847165,-0.3651782 -0.1847165,-0.3651782 -0.1914838,-0.357901 -0.1988891,-0.3512778 -0.2068542,-0.3453369 -0.2151951,-0.3399422 -0.2151951,-0.3399422 -0.2250852,-0.3349917 -0.235382,-0.3309364 -0.2461485,-0.3283869 -0.2571451,-0.3271811 -0.2571451,-0.3271811 -0.2674153,-0.3276479 -0.2774958,-0.3296427 -0.2774958,-0.3296427 -0.2847302,-0.3316212 -0.2916049,-0.3346473 -0.2982403,-0.3381608 -0.3044817,-0.3423366 -0.3101219,-0.347293 -0.3151512,-0.3528729 -0.3237817,-0.3651563 -0.3237817,-0.3651563 -0.3297649,-0.3781075 -0.3318914,-0.3849255 -0.3331907,-0.3919419 -0.3334685,-0.3990741 -0.3329472,-0.4061921 -0.33181,-0.4132384 -0.3296918,-0.420049 -0.3296918,-0.420049 -0.3255192,-0.4301507 -0.3201266,-0.4396566 -0.3076913,-0.4576345 -0.3076913,-0.4576345 -0.3007729,-0.4678025 -0.2948605,-0.4785891 -0.2927745,-0.4843676 -0.2920412,-0.4904658 -0.2927905,-0.4965625 -0.2948154,-0.5023655 -0.2948154,-0.5023655 -0.2975231,-0.5060131 -0.3008944,-0.5090516 -0.3048384,-0.5113033 -0.3092106,-0.5125268 -0.3137383,-0.5128698 -0.3182527,-0.5123783 -0.3226149,-0.5111201 -0.3267158,-0.5091683 -0.3267158,-0.5091683 -0.3348334,-0.5022369 -0.338109,-0.4980077 -0.3406187,-0.4932909 -0.3436073,-0.4830377 -0.3447169,-0.4778105 -0.3451967,-0.4724915z" transform="matrix(1,0,0,-1,3.0995937,1.4493155)" fill="rgb(104,104,104)" fill-rule="nonzero" shaper:cutDepth="0.0000762" stroke-linecap="round" stroke-linejoin="round" /><path d="M-0.6236669,-0.384064 L-0.5900026,-0.1307368 -0.5416647,-0.1586447 -0.5505554,-0.2110301 -0.4652361,-0.2602891 -0.425188,-0.2258926 -0.3774325,-0.2534642 -0.5762026,-0.4114675 -0.6236669,-0.384064z M-0.5382071,-0.3215129 L-0.5382071,-0.3215129 -0.5008117,-0.2896289 -0.5572641,-0.2570361 -0.5572641,-0.2570361 -0.5661466,-0.307348 -0.5661466,-0.307348 -0.5716981,-0.3352922 -0.5752588,-0.3490837 -0.5801127,-0.3624763 -0.5801127,-0.3624763 -0.5708668,-0.3511319 -0.5708668,-0.3511319 -0.5548592,-0.3359711 -0.5382071,-0.3215129z" transform="matrix(1,0,0,-1,3.0995937,1.4493155)" fill="rgb(104,104,104)" fill-rule="nonzero" shaper:cutDepth="0.0000762" stroke-linecap="round" stroke-linejoin="round" /><path d="M-0.7707138,-0.2991665 L-0.6757588,-0.1346996 -0.7459361,-0.0941827 -0.7227811,-0.0540771 -0.6076113,-0.1205704 -0.7257213,-0.3251429 -0.7707138,-0.2991665z" transform="matrix(1,0,0,-1,3.0995937,1.4493155)" fill="rgb(104,104,104)" fill-rule="nonzero" shaper:cutDepth="0.0000762" stroke-linecap="round" stroke-linejoin="round" /><path d="M-0.9845664,-0.1751687 L-0.9617021,-0.1355666 -0.9177321,-0.1609527 -0.8227158,0.0036203 -0.779914,-0.0210914 -0.8745993,-0.1850912 -0.8306293,-0.2104772 -0.8538245,-0.2506526 -0.9845664,-0.1751687z" transform="matrix(1,0,0,-1,3.0995937,1.4493155)" fill="rgb(104,104,104)" fill-rule="nonzero" shaper:cutDepth="0.0000762" stroke-linecap="round" stroke-linejoin="round" /><path d="M0.1634537,-0.3562978 L0.1611081,-0.3007341 0.110845,-0.3259241 0.0755138,-0.3055256 0.1594122,-0.2682543 0.1523125,-0.1680231 0.1872555,-0.1881975 0.1902797,-0.2537939 0.2487941,-0.2237268 0.2837371,-0.2439012 0.1913932,-0.2859375 0.1999498,-0.3773688 0.1634537,-0.3562978z" transform="matrix(1,0,0,-1,3.0995937,1.4493155)" fill="rgb(104,104,104)" fill-rule="nonzero" shaper:cutDepth="0.0000762" stroke-linecap="round" stroke-linejoin="round" /><path d="M-0.0494552,-0.2332803 L0.0292439,-0.0969694 0.0577785,-0.1134439 -0.0055657,-0.2231592 0.019865,-0.2378417 0.0045101,-0.2644372 -0.0494552,-0.2332803z" transform="matrix(1,0,0,-1,3.0995937,1.4493155)" fill="rgb(104,104,104)" fill-rule="nonzero" shaper:cutDepth="0.0000762" stroke-linecap="round" stroke-linejoin="round" /><path d="M-0.1497132,-0.1802466 L-0.1497132,-0.1802466 -0.1554626,-0.1764914 -0.1608112,-0.1721775 -0.1654798,-0.1671391 -0.1694083,-0.1614986 -0.1694083,-0.1614986 -0.1731873,-0.1537331 -0.1753732,-0.1453713 -0.1763379,-0.136778 -0.1761928,-0.1281322 -0.1749161,-0.1195768 -0.1728499,-0.1111761 -0.1671084,-0.0948602 -0.1671084,-0.0948602 -0.1586542,-0.0779471 -0.1586542,-0.0779471 -0.1517138,-0.0673524 -0.1440373,-0.0572702 -0.1352837,-0.0481118 -0.1255051,-0.0400541 -0.1255051,-0.0400541 -0.1178075,-0.0354521 -0.1094447,-0.0322134 -0.1094447,-0.0322134 -0.1001067,-0.0298149 -0.0904741,-0.0293856 -0.0904741,-0.0293856 -0.0842489,-0.0303245 -0.0781605,-0.0319263 -0.0781605,-0.0319263 -0.0716727,-0.0344282 -0.0654341,-0.0375139 -0.0654341,-0.0375139 -0.0596369,-0.0413257 -0.0543447,-0.0458096 -0.0497295,-0.050988 -0.0458889,-0.0567632 -0.0429096,-0.0630308 -0.0408246,-0.0696502 -0.0396143,-0.0764836 -0.039247,-0.0834144 -0.039247,-0.0834144 -0.0408663,-0.0975753 -0.0444924,-0.1113578 -0.05001,-0.124502 -0.0565376,-0.1371663 -0.0565376,-0.1371663 -0.0668388,-0.1529963 -0.072607,-0.1604765 -0.0789454,-0.1674784 -0.0859924,-0.1737635 -0.0936864,-0.1792393 -0.1020025,-0.1837036 -0.1109807,-0.1865815 -0.1109807,-0.1865815 -0.1159196,-0.1874846 -0.120936,-0.1877629 -0.1309548,-0.1871675 -0.1406203,-0.1844626 -0.1497455,-0.1802653 -0.1497132,-0.1802466z M-0.1305737,-0.095208 L-0.1305737,-0.095208 -0.1379634,-0.1096258 -0.1409156,-0.1171723 -0.1431015,-0.1249738 -0.1442752,-0.1329868 -0.1436164,-0.1410401 -0.1422763,-0.1448608 -0.1401655,-0.1483149 -0.1373864,-0.1512624 -0.1341099,-0.153643 -0.1340799,-0.153623 -0.1340799,-0.153623 -0.1279582,-0.1560055 -0.1213914,-0.1559683 -0.1213914,-0.1559683 -0.1151593,-0.1540518 -0.1095338,-0.1507369 -0.1045128,-0.1465573 -0.0999591,-0.1418688 -0.0919523,-0.1315411 -0.0849868,-0.1204791 -0.0849868,-0.1204791 -0.0796611,-0.1104428 -0.0751716,-0.100007 -0.0721042,-0.0890794 -0.0715014,-0.0834275 -0.0719769,-0.077774 -0.0719769,-0.077774 -0.0732452,-0.0733866 -0.0753958,-0.0693626 -0.078535,-0.0660491 -0.082275,-0.0634402 -0.082275,-0.0634402 -0.0870991,-0.0613019 -0.0923084,-0.0604128 -0.097537,-0.0611799 -0.1024903,-0.0630405 -0.1024903,-0.0630405 -0.1070412,-0.0659434 -0.1112076,-0.069379 -0.1185051,-0.0773221 -0.1248633,-0.0860477 -0.1305737,-0.095208z" transform="matrix(1,0,0,-1,3.0995937,1.4493155)" fill="rgb(104,104,104)" fill-rule="nonzero" shaper:cutDepth="0.0000762" stroke-linecap="round" stroke-linejoin="round" /><path d="M-0.2629527,-0.1148677 L-0.2629527,-0.1148677 -0.2687022,-0.1111125 -0.2740507,-0.1067986 -0.2787193,-0.1017603 -0.2826478,-0.0961197 -0.2826478,-0.0961197 -0.2864268,-0.0883542 -0.2886127,-0.0799924 -0.2895774,-0.0713991 -0.2894323,-0.0627534 -0.2881556,-0.0541979 -0.2860894,-0.0457972 -0.2803479,-0.0294814 -0.2803479,-0.0294814 -0.2718937,-0.0125683 -0.2718937,-0.0125683 -0.2649533,-0.0019735 -0.2572769,0.0081086 -0.2485232,0.0172671 -0.2387447,0.0253248 -0.2387447,0.0253248 -0.231047,0.0299267 -0.2226842,0.0331655 -0.2226842,0.0331655 -0.2133462,0.0355639 -0.2037136,0.0359933 -0.2037136,0.0359933 -0.1974884,0.0350544 -0.1914,0.0334526 -0.1914,0.0334526 -0.1849122,0.0309507 -0.1786736,0.027865 -0.1786736,0.027865 -0.1728764,0.0240531 -0.1675842,0.0195692 -0.162969,0.0143909 -0.1591284,0.0086157 -0.1561491,0.0023481 -0.1540642,-0.0042714 -0.1528538,-0.0111048 -0.1524865,-0.0180356 -0.1524865,-0.0180356 -0.1541058,-0.0321965 -0.1577319,-0.0459789 -0.1632495,-0.0591232 -0.1697771,-0.0717875 -0.1697771,-0.0717875 -0.1800783,-0.0876175 -0.1858465,-0.0950976 -0.1921849,-0.1020996 -0.1992319,-0.1083846 -0.2069259,-0.1138604 -0.215242,-0.1183247 -0.2242203,-0.1212026 -0.2242203,-0.1212026 -0.2291591,-0.1221058 -0.2341755,-0.122384 -0.2441943,-0.1217886 -0.2538598,-0.1190838 -0.262985,-0.1148865 -0.2629527,-0.1148677z M-0.2438132,-0.0298291 L-0.2438132,-0.0298291 -0.2512029,-0.0442469 -0.2541551,-0.0517935 -0.256341,-0.059595 -0.2575148,-0.067608 -0.256856,-0.0756612 -0.2555158,-0.0794819 -0.253405,-0.0829361 -0.2506259,-0.0858835 -0.2473494,-0.0882642 -0.2473194,-0.0882441 -0.2473194,-0.0882441 -0.2411977,-0.0906267 -0.2346309,-0.0905894 -0.2346309,-0.0905894 -0.2283988,-0.0886729 -0.2227733,-0.085358 -0.2177523,-0.0811784 -0.2131986,-0.07649 -0.2051918,-0.0661622 -0.1982263,-0.0551002 -0.1982263,-0.0551002 -0.1929006,-0.045064 -0.1884111,-0.0346281 -0.1853437,-0.0237005 -0.1847409,-0.0180486 -0.1852165,-0.0123951 -0.1852165,-0.0123951 -0.1864847,-0.0080078 -0.1886353,-0.0039837 -0.1917746,-0.0006703 -0.1955146,0.0019386 -0.1955146,0.0019386 -0.2003386,0.0040769 -0.2055479,0.0049661 -0.2107765,0.004199 -0.2157298,0.0023384 -0.2157298,0.0023384 -0.2202807,-0.0005645 -0.2244471,-0.0040001 -0.2317446,-0.0119433 -0.2381028,-0.0206688 -0.2438132,-0.0298291z" transform="matrix(1,0,0,-1,3.0995937,1.4493155)" fill="rgb(104,104,104)" fill-rule="nonzero" shaper:cutDepth="0.0000762" stroke-linecap="round" stroke-linejoin="round" /><path d="M-0.3761922,-0.0494888 L-0.3761922,-0.0494888 -0.3819417,-0.0457337 -0.3872902,-0.0414198 -0.3919588,-0.0363814 -0.3958873,-0.0307408 -0.3958873,-0.0307408 -0.3996663,-0.0229753 -0.4018522,-0.0146136 -0.4028169,-0.0060203 -0.4026718,0.0026255 -0.4013951,0.0111809 -0.3993289,0.0195816 -0.3935874,0.0358975 -0.3935874,0.0358975 -0.3851332,0.0528106 -0.3851332,0.0528106 -0.3781928,0.0634053 -0.3705164,0.0734875 -0.3617627,0.0826459 -0.3519842,0.0907036 -0.3519842,0.0907036 -0.3442865,0.0953056 -0.3359237,0.0985443 -0.3359237,0.0985443 -0.3265857,0.1009428 -0.3169531,0.1013721 -0.3169531,0.1013721 -0.3107279,0.1004332 -0.3046395,0.0988314 -0.3046395,0.0988314 -0.2981517,0.0963295 -0.2919131,0.0932438 -0.2919131,0.0932438 -0.286116,0.089432 -0.2808237,0.0849481 -0.2762085,0.0797697 -0.2723679,0.0739945 -0.2693886,0.0677269 -0.2673037,0.0611075 -0.2660933,0.0542741 -0.265726,0.0473433 -0.265726,0.0473433 -0.2673453,0.0331824 -0.2709714,0.0194 -0.276489,0.0062557 -0.2830166,-0.0064086 -0.2830166,-0.0064086 -0.2933178,-0.0222386 -0.299086,-0.0297188 -0.3054245,-0.0367207 -0.3124714,-0.0430057 -0.3201654,-0.0484816 -0.3284815,-0.0529458 -0.3374598,-0.0558238 -0.3374598,-0.0558238 -0.3423986,-0.0567269 -0.347415,-0.0570052 -0.3574338,-0.0564097 -0.3670993,-0.0537049 -0.3762245,-0.0495076 -0.3761922,-0.0494888z M-0.3570527,0.0355498 L-0.3570527,0.0355498 -0.3644424,0.021132 -0.3673946,0.0135854 -0.3695805,0.0057839 -0.3707543,-0.0022291 -0.3700955,-0.0102824 -0.3687553,-0.0141031 -0.3666445,-0.0175572 -0.3638654,-0.0205046 -0.3605889,-0.0228853 -0.360559,-0.0228652 -0.360559,-0.0228652 -0.3544372,-0.0252478 -0.3478704,-0.0252105 -0.3478704,-0.0252105 -0.3416383,-0.0232941 -0.3360128,-0.0199792 -0.3309918,-0.0157996 -0.3264381,-0.0111111 -0.3184313,-0.0007834 -0.3114658,0.0102786 -0.3114658,0.0102786 -0.3061401,0.0203149 -0.3016506,0.0307507 -0.2985832,0.0416783 -0.2979804,0.0473303 -0.298456,0.0529838 -0.298456,0.0529838 -0.2997242,0.0573711 -0.3018748,0.0613951 -0.3050141,0.0647086 -0.3087541,0.0673175 -0.3087541,0.0673175 -0.3135781,0.0694558 -0.3187874,0.0703449 -0.3240161,0.0695778 -0.3289693,0.0677172 -0.3289693,0.0677172 -0.3335202,0.0648143 -0.3376866,0.0613787 -0.3449841,0.0534356 -0.3513423,0.0447101 -0.3570527,0.0355498z" transform="matrix(1,0,0,-1,3.0995937,1.4493155)" fill="rgb(104,104,104)" fill-rule="nonzero" shaper:cutDepth="0.0000762" stroke-linecap="round" stroke-linejoin="round" /><path d="M-0.6834187,-1.0462345 a0.079375,0.079375 0 1,1 0.15875,0 a0.079375,0.079375 0 1,1 -0.15875,0z" transform="matrix(1,0,0,-1,3.0995937,1.4493155)" fill="rgb(255,255,255)" stroke="rgb(0,0,0)" stroke-width="0.0010cm" stroke-linecap="round" stroke-linejoin="round" shaper:cutDepth="0.0015875" /></svg>