  0
SECTION
  2
HEADER
  9
$ACADVER
  1
AC1024
  9
$ACADMAINTVER
 70
     6
  9
$DWGCODEPAGE
  3
UNDEFINED
  9
$INSBASE
 10
0.0
 20
0.0
 30
0.0
  9
$EXTMIN
 10
1.000000000000000E+20
 20
1.000000000000000E+20
 30
1.000000000000000E+20
  9
$EXTMAX
 10
-1.000000000000000E+20
 20
-1.000000000000000E+20
 30
-1.000000000000000E+20
  9
$LIMMIN
 10
0.0
 20
0.0
  9
$LIMMAX
 10
12.0
 20
9.0
  9
$ORTHOMODE
 70
     0
  9
$REGENMODE
 70
     1
  9
$FILLMODE
 70
     1
  9
$QTEXTMODE
 70
     0
  9
$MIRRTEXT
 70
     1
  9
$LTSCALE
 40
1.0
  9
$ATTMODE
 70
     1
  9
$TEXTSIZE
 40
0.2
  9
$TRACEWID
 40
0.05
  9
$TEXTSTYLE
  7
Standard
  9
$CLAYER
  8
0
  9
$CELTYPE
  6
ByLayer
  9
$CECOLOR
 62
   256
  9
$CELTSCALE
 40
1.0
  9
$DISPSILH
 70
     0
  9
$DIMSCALE
 40
1.0
  9
$DIMASZ
 40
0.18
  9
$DIMEXO
 40
0.0625
  9
$DIMDLI
 40
0.38
  9
$DIMRND
 40
0.0
  9
$DIMDLE
 40
0.0
  9
$DIMEXE
 40
0.18
  9
$DIMTP
 40
0.0
  9
$DIMTM
 40
0.0
  9
$DIMTXT
 40
0.18
  9
$DIMCEN
 40
0.09
  9
$DIMTSZ
 40
0.0
  9
$DIMTOL
 70
     0
  9
$DIMLIM
 70
     0
  9
$DIMTIH
 70
     1
  9
$DIMTOH
 70
     1
  9
$DIMSE1
 70
     0
  9
$DIMSE2
 70
     0
  9
$DIMTAD
 70
     0
  9
$DIMZIN
 70
     0
  9
$DIMBLK
  1

  9
$DIMASO
 70
     1
  9
$DIMSHO
 70
     1
  9
$DIMPOST
  1

  9
$DIMAPOST
  1

  9
$DIMALT
 70
     0
  9
$DIMALTD
 70
     2
  9
$DIMALTF
 40
25.4
  9
$DIMLFAC
 40
1.0
  9
$DIMTOFL
 70
     0
  9
$DIMTVP
 40
0.0
  9
$DIMTIX
 70
     0
  9
$DIMSOXD
 70
     0
  9
$DIMSAH
 70
     0
  9
$DIMBLK1
  1

  9
$DIMBLK2
  1

  9
$DIMSTYLE
  2
Standard
  9
$DIMCLRD
 70
     0
  9
$DIMCLRE
 70
     0
  9
$DIMCLRT
 70
     0
  9
$DIMTFAC
 40
1.0
  9
$DIMGAP
 40
0.09
  9
$DIMJUST
 70
     0
  9
$DIMSD1
 70
     0
  9
$DIMSD2
 70
     0
  9
$DIMTOLJ
 70
     1
  9
$DIMTZIN
 70
     0
  9
$DIMALTZ
 70
     0
  9
$DIMALTTZ
 70
     0
  9
$DIMUPT
 70
     0
  9
$DIMDEC
 70
     4
  9
$DIMTDEC
 70
     4
  9
$DIMALTU
 70
     2
  9
$DIMALTTD
 70
     2
  9
$DIMTXSTY
  7
Standard
  9
$DIMAUNIT
 70
     0
  9
$DIMADEC
 70
     0
  9
$DIMALTRND
 40
0.0
  9
$DIMAZIN
 70
     0
  9
$DIMDSEP
 70
    46
  9
$DIMATFIT
 70
     3
  9
$DIMFRAC
 70
     0
  9
$DIMLDRBLK
  1

  9
$DIMLUNIT
 70
     2
  9
$DIMLWD
 70
    -2
  9
$DIMLWE
 70
    -2
  9
$DIMTMOVE
 70
     0
  9
$DIMFXL
 40
1.0
  9
$DIMFXLON
 70
     0
  9
$DIMJOGANG
 40
0.7853981633974483
  9
$DIMTFILL
 70
     0
  9
$DIMTFILLCLR
 70
     0
  9
$DIMARCSYM
 70
     0
  9
$DIMLTYPE
  6

  9
$DIMLTEX1
  6

  9
$DIMLTEX2
  6

  9
$DIMTXTDIRECTION
 70
     0
  9
$LUNITS
 70
     2
  9
$LUPREC
 70
     4
  9
$SKETCHINC
 40
0.1
  9
$FILLETRAD
 40
0.5
  9
$AUNITS
 70
     0
  9
$AUPREC
 70
     0
  9
$MENU
  1
.
  9
$ELEVATION
 40
0.0
  9
$PELEVATION
 40
0.0
  9
$THICKNESS
 40
0.0
  9
$LIMCHECK
 70
     0
  9
$CHAMFERA
 40
0.5
  9
$CHAMFERB
 40
0.5
  9
$CHAMFERC
 40
1.0
  9
$CHAMFERD
 40
0.0
  9
$SKPOLY
 70
     0
  9
$TDCREATE
 40
2458843.932210637
  9
$TDUCREATE
 40
2458843.890543981
  9
$TDUPDATE
 40
2458843.932210637
  9
$TDUUPDATE
 40
2458843.890543981
  9
$TDINDWG
 40
0.0000000116
  9
$TDUSRTIMER
 40
0.0000000116
  9
$USRTIMER
 70
     1
  9
$ANGBASE
 50
0.0
  9
$ANGDIR
 70
     0
  9
$PDMODE
 70
     0
  9
$PDSIZE
 40
0.0
  9
$PLINEWID
 40
0.0
  9
$SPLFRAME
 70
     0
  9
$SPLINETYPE
 70
     6
  9
$SPLINESEGS
 70
     8
  9
$HANDSEED
  5
63
  9
$SURFTAB1
 70
     6
  9
$SURFTAB2
 70
     6
  9
$SURFTYPE
 70
     6
  9
$SURFU
 70
     6
  9
$SURFV
 70
     6
  9
$UCSBASE
  2

  9
$UCSNAME
  2

  9
$UCSORG
 10
0.0
 20
0.0
 30
0.0
  9
$UCSXDIR
 10
1.0
 20
0.0
 30
0.0
  9
$UCSYDIR
 10
0.0
 20
1.0
 30
0.0
  9
$UCSORTHOREF
  2

  9
$UCSORTHOVIEW
 70
     0
  9
$UCSORGTOP
 10
0.0
 20
0.0
 30
0.0
  9
$UCSORGBOTTOM
 10
0.0
 20
0.0
 30
0.0
  9
$UCSORGLEFT
 10
0.0
 20
0.0
 30
0.0
  9
$UCSORGRIGHT
 10
0.0
 20
0.0
 30
0.0
  9
$UCSORGFRONT
 10
0.0
 20
0.0
 30
0.0
  9
$UCSORGBACK
 10
0.0
 20
0.0
 30
0.0
  9
$PUCSBASE
  2

  9
$PUCSNAME
  2

  9
$PUCSORG
 10
0.0
 20
0.0
 30
0.0
  9
$PUCSXDIR
 10
1.0
 20
0.0
 30
0.0
  9
$PUCSYDIR
 10
0.0
 20
1.0
 30
0.0
  9
$PUCSORTHOREF
  2

  9
$PUCSORTHOVIEW
 70
     0
  9
$PUCSORGTOP
 10
0.0
 20
0.0
 30
0.0
  9
$PUCSORGBOTTOM
 10
0.0
 20
0.0
 30
0.0
  9
$PUCSORGLEFT
 10
0.0
 20
0.0
 30
0.0
  9
$PUCSORGRIGHT
 10
0.0
 20
0.0
 30
0.0
  9
$PUCSORGFRONT
 10
0.0
 20
0.0
 30
0.0
  9
$PUCSORGBACK
 10
0.0
 20
0.0
 30
0.0
  9
$USERI1
 70
     0
  9
$USERI2
 70
     0
  9
$USERI3
 70
     0
  9
$USERI4
 70
     0
  9
$USERI5
 70
     0
  9
$USERR1
 40
0.0
  9
$USERR2
 40
0.0
  9
$USERR3
 40
0.0
  9
$USERR4
 40
0.0
  9
$USERR5
 40
0.0
  9
$WORLDVIEW
 70
     1
  9
$SHADEDGE
 70
     3
  9
$SHADEDIF
 70
    70
  9
$TILEMODE
 70
     1
  9
$MAXACTVP
 70
    64
  9
$PINSBASE
 10
0.0
 20
0.0
 30
0.0
  9
$PLIMCHECK
 70
     0
  9
$PEXTMIN
 10
1.000000000000000E+20
 20
1.000000000000000E+20
 30
1.000000000000000E+20
  9
$PEXTMAX
 10
-1.000000000000000E+20
 20
-1.000000000000000E+20
 30
-1.000000000000000E+20
  9
$PLIMMIN
 10
0.0
 20
0.0
  9
$PLIMMAX
 10
12.0
 20
9.0
  9
$UNITMODE
 70
     0
  9
$VISRETAIN
 70
     1
  9
$PLINEGEN
 70
     0
  9
$PSLTSCALE
 70
     1
  9
$TREEDEPTH
 70
  3020
  9
$CMLSTYLE
  2
Standard
  9
$CMLJUST
 70
     0
  9
$CMLSCALE
 40
1.0
  9
$PROXYGRAPHICS
 70
     1
  9
$MEASUREMENT
 70
     0
  9
$CELWEIGHT
370
    -1
  9
$ENDCAPS
280
     0
  9
$JOINSTYLE
280
     0
  9
$LWDISPLAY
290
     1
  9
$INSUNITS
 70
     1
  9
$HYPERLINKBASE
  1

  9
$STYLESHEET
  1

  9
$XEDIT
290
     1
  9
$CEPSNTYPE
380
     0
  9
$PSTYLEMODE
290
     1
  9
$FINGERPRINTGUID
  2
{03EFCB38-7543-BF44-DD62-3D6DDD7CE294}
  9
$VERSIONGUID
  2
{FAEB1C32-E019-11D5-929B-00C0DF256EC4}
  9
$EXTNAMES
290
     1
  9
$PSVPSCALE
 40
0.0
  9
$OLESTARTUP
290
     0
  9
$SORTENTS
280
   127
  9
$INDEXCTL
280
     0
  9
$HIDETEXT
280
     1
  9
$XCLIPFRAME
280
     2
  9
$HALOGAP
280
     0
  9
$OBSCOLOR
 70
   257
  9
$OBSLTYPE
280
     0
  9
$INTERSECTIONDISPLAY
280
     0
  9
$INTERSECTIONCOLOR
 70
   257
  9
$DIMASSOC
280
     2
  9
$PROJECTNAME
  1

  9
$CAMERADISPLAY
290
     0
  9
$LENSLENGTH
 40
50.0
  9
$CAMERAHEIGHT
 40
0.0
  9
$STEPSPERSEC
 40
2.0
  9
$STEPSIZE
 40
6.0
  9
$3DDWFPREC
 40
2.0
  9
$PSOLWIDTH
 40
0.25
  9
$PSOLHEIGHT
 40
4.0
  9
$LOFTANG1
 40
1.570796326794897
  9
$LOFTANG2
 40
1.570796326794897
  9
$LOFTMAG1
 40
0.0
  9
$LOFTMAG2
 40
0.0
  9
$LOFTPARAM
 70
     7
  9
$LOFTNORMALS
280
     1
  9
$LATITUDE
 40
37.795
  9
$LONGITUDE
 40
-122.394
  9
$NORTHDIRECTION
 40
0.0
  9
$TIMEZONE
 70
 -8000
  9
$LIGHTGLYPHDISPLAY
280
     1
  9
$TILEMODELIGHTSYNCH
280
     1
  9
$CMATERIAL
347
3C
  9
$SOLIDHIST
280
     1
  9
$SHOWHIST
280
     1
  9
$DWFFRAME
280
     2
  9
$DGNFRAME
280
     2
  9
$REALWORLDSCALE
290
     1
  9
$INTERFERECOLOR
 62
   256
  9
$CSHADOW
280
     0
  9
$SHADOWPLANELOCATION
 40
0.0
  0
ENDSEC
  0
SECTION
  2
CLASSES
  0
CLASS
  1
ACDBDICTIONARYWDFLT
  2
AcDbDictionaryWithDefault
  3
ObjectDBX Classes
 90
        0
 91
        4
280
     0
281
     0
  0
CLASS
  1
VISUALSTYLE
  2
AcDbVisualStyle
  3
ObjectDBX Classes
 90
     4095
 91
        4
280
     0
281
     0
  0
CLASS
  1
MATERIAL
  2
AcDbMaterial
  3
ObjectDBX Classes
 90
     1153
 91
        4
280
     0
281
     0
  0
CLASS
  1
SUN
  2
AcDbSun
  3
SCENEOE
 90
     1024
 91
        4
280
     0
281
     0
  0
ENDSEC
  0
SECTION
  2
TABLES
  0
TABLE
  2
VPORT
  5
8
330
0
100
AcDbSymbolTable
 70
     1
  0
VPORT
  5
29
330
8
100
AcDbSymbolTableRecord
100
AcDbViewportTableRecord
  2
*Active
 70
     0
 10
0.0
 20
0.0
 11
1.0
 21
1.0
 12
0.0
 22
0.0
 13
0.0
 23
0.0
 14
0.5
 24
0.5
 15
0.5
 25
0.5
 16
0.0
 26
0.0
 36
1.0
 17
104.7749999738063
 27
148.0490740370621
 37
0.0
 40
24.99999999374975
 41
1.000000000000014
 42
50.0
 43
0.0
 44
0.0
 50
0.0
 51
0.0
 71
     0
 72
   100
 73
     1
 74
     3
 75
     0
 76
     0
 77
     0
 78
     0
281
     0
 65
     1
110
0.0
120
0.0
130
0.0
111
1.0
121
0.0
131
0.0
112
0.0
122
1.0
132
0.0
 79
     0
146
0.0
 60
     3
 61
     5
292
     1
282
     1
141
0.0
142
0.0
 63
   250
361
3F
  0
ENDTAB
  0
TABLE
  2
LTYPE
  5
5
330
0
100
AcDbSymbolTable
 70
     1
  0
LTYPE
  5
14
330
5
100
AcDbSymbolTableRecord
100
AcDbLinetypeTableRecord
  2
ByBlock
 70
     0
  3

 72
    65
 73
     0
 40
0.0
  0
LTYPE
  5
15
330
5
100
AcDbSymbolTableRecord
100
AcDbLinetypeTableRecord
  2
ByLayer
 70
     0
  3

 72
    65
 73
     0
 40
0.0
  0
LTYPE
  5
16
330
5
100
AcDbSymbolTableRecord
100
AcDbLinetypeTableRecord
  2
Continuous
 70
     0
  3
Solid line
 72
    65
 73
     0
 40
0.0
  0
ENDTAB
  0
TABLE
  2
LAYER
  5
2
330
0
100
AcDbSymbolTable
 70
     1
  0
LAYER
  5
10
330
2
100
AcDbSymbolTableRecord
100
AcDbLayerTableRecord
  2
0
 70
     0
 62
     7
  6
Continuous
370
    -3
390
F
347
3E
  0
ENDTAB
  0
TABLE
  2
STYLE
  5
3
330
0
100
AcDbSymbolTable
 70
     1
  0
STYLE
  5
11
330
3
100
AcDbSymbolTableRecord
100
AcDbTextStyleTableRecord
  2
Standard
 70
     0
 40
0.0
 41
1.0
 50
0.0
 71
     0
 42
0.2
  3
txt
  4

  0
ENDTAB
  0
TABLE
  2
VIEW
  5
6
330
0
100
AcDbSymbolTable
 70
     0
  0
ENDTAB
  0
TABLE
  2
UCS
  5
7
330
0
100
AcDbSymbolTable
 70
     0
  0
ENDTAB
  0
TABLE
  2
APPID
  5
9
330
0
100
AcDbSymbolTable
 70
     1
  0
APPID
  5
12
330
9
100
AcDbSymbolTableRecord
100
AcDbRegAppTableRecord
  2
ACAD
 70
     0
  0
ENDTAB
  0
TABLE
  2
DIMSTYLE
  5
A
330
0
100
AcDbSymbolTable
 70
     1
100
AcDbDimStyleTable
  0
DIMSTYLE
105
27
330
A
100
AcDbSymbolTableRecord
100
AcDbDimStyleTableRecord
  2
Standard
 70
     0
178
     0
340
11
  0
ENDTAB
  0
TABLE
  2
BLOCK_RECORD
  5
1
330
0
100
AcDbSymbolTable
 70
     6
  0
BLOCK_RECORD
  5
1F
330
1
100
AcDbSymbolTableRecord
100
AcDbBlockTableRecord
  2
*Model_Space
340
22
 70
     0
280
     1
281
     0
  0
BLOCK_RECORD
  5
1B
330
1
100
AcDbSymbolTableRecord
100
AcDbBlockTableRecord
  2
*Paper_Space
340
1E
 70
     0
280
     1
281
     0
  0
BLOCK_RECORD
  5
23
330
1
100
AcDbSymbolTableRecord
100
AcDbBlockTableRecord
  2
*Paper_Space0
340
26
 70
     0
280
     1
281
     0
  0
BLOCK_RECORD
  5
40
330
1
100
AcDbSymbolTableRecord
100
AcDbBlockTableRecord
  2
block 2
340
0
102
{BLKREFS
331
41
102
}
 70
     0
280
     1
281
     0
  0
BLOCK_RECORD
  5
4C
330
1
100
AcDbSymbolTableRecord
100
AcDbBlockTableRecord
  2
block 3
340
0
102
{BLKREFS
331
4D
102
}
 70
     0
280
     1
281
     0
  0
BLOCK_RECORD
  5
51
330
1
100
AcDbSymbolTableRecord
100
AcDbBlockTableRecord
  2
block 4
340
0
102
{BLKREFS
331
52
102
}
 70
     0
280
     1
281
     0
  0
BLOCK_RECORD
  5
56
330
1
100
AcDbSymbolTableRecord
100
AcDbBlockTableRecord
  2
block 5
340
0
102
{BLKREFS
331
57
102
}
 70
     0
280
     1
281
     0
  0
BLOCK_RECORD
  5
5B
330
1
100
AcDbSymbolTableRecord
100
AcDbBlockTableRecord
  2
block 6
340
0
102
{BLKREFS
331
5C
102
}
 70
     0
280
     1
281
     0
  0
ENDTAB
  0
ENDSEC
  0
SECTION
  2
BLOCKS
  0
BLOCK
  5
20
330
1F
100
AcDbEntity
  8
0
100
AcDbBlockBegin
  2
*Model_Space
 70
     0
 10
0.0
 20
0.0
 30
0.0
  3
*Model_Space
  1

  0
ENDBLK
  5
21
330
1F
100
AcDbEntity
  8
0
100
AcDbBlockEnd
  0
BLOCK
  5
1C
330
1B
100
AcDbEntity
 67
     1
  8
0
100
AcDbBlockBegin
  2
*Paper_Space
 70
     0
 10
0.0
 20
0.0
 30
0.0
  3
*Paper_Space
  1

  0
ENDBLK
  5
1D
330
1B
100
AcDbEntity
 67
     1
  8
0
100
AcDbBlockEnd
  0
BLOCK
  5
24
330
23
100
AcDbEntity
  8
0
100
AcDbBlockBegin
  2
*Paper_Space0
 70
     0
 10
0.0
 20
0.0
 30
0.0
  3
*Paper_Space0
  1

  0
ENDBLK
  5
25
330
23
100
AcDbEntity
  8
0
100
AcDbBlockEnd
  0
BLOCK
  5
42
330
40
100
AcDbEntity
  8
0
100
AcDbBlockBegin
  2
block 2
 70
     0
 10
0.0
 20
0.0
 30
0.0
  3
block 2
  1

  0
POLYLINE
  5
44
330
40
100
AcDbEntity
  8
0
 62
     7
420
 16777215
370
     5
100
AcDb2dPolyline
 66
     1
 10
0.0
 20
0.0
 30
0.0
  0
VERTEX
  5
45
330
44
100
AcDbEntity
  8
0
 62
     7
420
 16777215
370
     5
100
AcDbVertex
100
AcDb2dVertex
 10
100.171249973436
 20
139.794074037269
 30
0.0
  0
VERTEX
  5
46
330
44
100
AcDbEntity
  8
0
 62
     7
420
 16777215
370
     5
100
AcDbVertex
100
AcDb2dVertex
 10
109.378749973436
 20
139.7940740368558
 30
0.0
  0
VERTEX
  5
47
330
44
100
AcDbEntity
  8
0
 62
     7
420
 16777215
370
     5
100
AcDbVertex
100
AcDb2dVertex
 10
109.3787499741772
 20
156.3040740368551
 30
0.0
  0
VERTEX
  5
48
330
44
100
AcDbEntity
  8
0
 62
     7
420
 16777215
370
     5
100
AcDbVertex
100
AcDb2dVertex
 10
100.1712499741771
 20
156.3040740372684
 30
0.0
  0
VERTEX
  5
49
330
44
100
AcDbEntity
  8
0
 62
     7
420
 16777215
370
     5
100
AcDbVertex
100
AcDb2dVertex
 10
100.171249973436
 20
139.794074037269
 30
0.0
  0
SEQEND
  5
4B
330
44
100
AcDbEntity
  8
0
 62
     7
420
 16777215
370
     5
  0
HATCH
  5
4A
330
40
100
AcDbEntity
  8
0
 62
     7
420
 16777215
100
AcDbHatch
 10
0.0
 20
0.0
 30
0.0
210
0.0
220
0.0
230
1.0
  2
SOLID
 70
     1
 71
     0
 91
        1
 92
        1
 93
        4
 72
     1
 10
100.171249973436
 20
139.794074037269
 11
109.378749973436
 21
139.7940740368558
 72
     1
 10
109.378749973436
 20
139.7940740368558
 11
109.3787499741772
 21
156.3040740368551
 72
     1
 10
109.3787499741772
 20
156.3040740368551
 11
100.1712499741771
 21
156.3040740372684
 72
     1
 10
100.1712499741771
 20
156.3040740372684
 11
100.171249973436
 21
139.794074037269
 97
        0
 75
     2
 76
     1
 98
        0
  0
ENDBLK
  5
43
330
40
100
AcDbEntity
  8
0
100
AcDbBlockEnd
  0
BLOCK
  5
4E
330
4C
100
AcDbEntity
  8
0
100
AcDbBlockBegin
  2
block 3
 70
     0
 10
0.0
 20
0.0
 30
0.0
  3
block 3
  1

  0
SPLINE
  5
50
330
4C
100
AcDbEntity
  8
0
 62
     7
420
 16777215
370
     5
100
AcDbSpline
210
0.0
220
0.0
230
1.0
 70
    11
 71
     3
 72
   197
 73
   193
 74
     0
 42
0.0000000001
 43
0.0000000001
 12
1.0
 22
0.0
 32
0.0
 13
1.0
 23
0.0
 33
0.0
 40
0.0
 40
0.0
 40
0.0
 40
0.0
 40
1.0
 40
1.0
 40
1.0
 40
2.0
 40
2.0
 40
2.0
 40
3.0
 40
3.0
 40
3.0
 40
4.0
 40
4.0
 40
4.0
 40
5.0
 40
5.0
 40
5.0
 40
6.0
 40
6.0
 40
6.0
 40
7.0
 40
7.0
 40
7.0
 40
8.0
 40
8.0
 40
8.0
 40
9.0
 40
9.0
 40
9.0
 40
10.0
 40
10.0
 40
10.0
 40
11.0
 40
11.0
 40
11.0
 40
12.0
 40
12.0
 40
12.0
 40
13.0
 40
13.0
 40
13.0
 40
14.0
 40
14.0
 40
14.0
 40
15.0
 40
15.0
 40
15.0
 40
16.0
 40
16.0
 40
16.0
 40
17.0
 40
17.0
 40
17.0
 40
18.0
 40
18.0
 40
18.0
 40
19.0
 40
19.0
 40
19.0
 40
20.0
 40
20.0
 40
20.0
 40
21.0
 40
21.0
 40
21.0
 40
22.0
 40
22.0
 40
22.0
 40
23.0
 40
23.0
 40
23.0
 40
24.0
 40
24.0
 40
24.0
 40
25.0
 40
25.0
 40
25.0
 40
26.0
 40
26.0
 40
26.0
 40
27.0
 40
27.0
 40
27.0
 40
28.0
 40
28.0
 40
28.0
 40
29.0
 40
29.0
 40
29.0
 40
30.0
 40
30.0
 40
30.0
 40
31.0
 40
31.0
 40
31.0
 40
32.0
 40
32.0
 40
32.0
 40
33.0
 40
33.0
 40
33.0
 40
34.0
 40
34.0
 40
34.0
 40
35.0
 40
35.0
 40
35.0
 40
36.0
 40
36.0
 40
36.0
 40
37.0
 40
37.0
 40
37.0
 40
38.0
 40
38.0
 40
38.0
 40
39.0
 40
39.0
 40
39.0
 40
40.0
 40
40.0
 40
40.0
 40
41.0
 40
41.0
 40
41.0
 40
42.0
 40
42.0
 40
42.0
 40
43.0
 40
43.0
 40
43.0
 40
44.0
 40
44.0
 40
44.0
 40
45.0
 40
45.0
 40
45.0
 40
46.0
 40
46.0
 40
46.0
 40
47.0
 40
47.0
 40
47.0
 40
48.0
 40
48.0
 40
48.0
 40
49.0
 40
49.0
 40
49.0
 40
50.0
 40
50.0
 40
50.0
 40
51.0
 40
51.0
 40
51.0
 40
52.0
 40
52.0
 40
52.0
 40
53.0
 40
53.0
 40
53.0
 40
54.0
 40
54.0
 40
54.0
 40
55.0
 40
55.0
 40
55.0
 40
56.0
 40
56.0
 40
56.0
 40
57.0
 40
57.0
 40
57.0
 40
58.0
 40
58.0
 40
58.0
 40
59.0
 40
59.0
 40
59.0
 40
60.0
 40
60.0
 40
60.0
 40
61.0
 40
61.0
 40
61.0
 40
62.0
 40
62.0
 40
62.0
 40
63.0
 40
63.0
 40
63.0
 40
64.0
 40
64.0
 40
64.0
 40
64.0
 10
103.407906692504
 20
141.3093091311229
 30
0.0
 10
103.4040739885044
 20
141.3193498621237
 30
0.0
 10
103.4002412841872
 20
141.3293905933825
 30
0.0
 10
103.3972326903093
 20
141.3396889823514
 30
0.0
 10
103.3937873006474
 20
141.3514825192438
 30
0.0
 10
103.3914226851977
 20
141.3636139596422
 30
0.0
 10
103.3898429969383
 20
141.3758163724522
 30
0.0
 10
103.3876927913228
 20
141.3924257866117
 30
0.0
 10
103.3869968608338
 20
141.4091666950201
 30
0.0
 10
103.386558688744
 20
141.42590207221
 30
0.0
 10
103.3859226220039
 20
141.4501957619953
 30
0.0
 10
103.3858297165119
 20
141.4744777961248
 30
0.0
 10
103.3857368095121
 20
141.4987598301247
 30
0.0
 10
103.3857368095121
 20
141.4987598301247
 30
0.0
 10
103.3849165346555
 20
144.6781882501246
 30
0.0
 10
103.3849165346555
 20
144.6781882501246
 30
0.0
 10
103.3852778616561
 20
144.6989892491244
 30
0.0
 10
103.385639188554
 20
144.7197902481498
 30
0.0
 10
103.3857376118547
 20
144.7405901057286
 30
0.0
 10
103.3858010767028
 20
144.754002171681
 30
0.0
 10
103.3857552297211
 20
144.7674137630365
 30
0.0
 10
103.3865586889725
 20
144.7808228809978
 30
0.0
 10
103.387103641275
 20
144.789917716487
 30
0.0
 10
103.3880393027291
 20
144.7990114141321
 30
0.0
 10
103.3898429975428
 20
144.8079184235783
 30
0.0
 10
103.3915276892369
 20
144.8162377715741
 30
0.0
 10
103.3939696516621
 20
144.8243942531234
 30
0.0
 10
103.3964116136626
 20
144.8325507351232
 30
0.0
 10
103.4049484636631
 20
144.8518540481231
 30
0.0
 10
103.4134853135123
 20
144.8711573617737
 30
0.0
 10
103.4259703873049
 20
144.8875628966633
 30
0.0
 10
103.4391115734346
 20
144.9048305709375
 30
0.0
 10
103.456626859326
 20
144.9188878970714
 30
0.0
 10
103.4752350097704
 20
144.9310799798386
 30
0.0
 10
103.4945721612002
 20
144.9437497049368
 30
0.0
 10
103.5150894835772
 20
144.9544051767384
 30
0.0
 10
103.5368157883895
 20
144.9606387538666
 30
0.0
 10
103.558458744915
 20
144.9668484172202
 30
0.0
 10
103.5813014256685
 20
144.9686700481149
 30
0.0
 10
103.604144105668
 20
144.9704916781139
 30
0.0
 10
103.6266284956681
 20
144.9695577141129
 30
0.0
 10
103.6491128849937
 20
144.9686237505457
 30
0.0
 10
103.6706513473368
 20
144.9631019849919
 30
0.0
 10
103.6915829702253
 20
144.9577357934589
 30
0.0
 10
103.7116212176378
 20
144.9480366778606
 30
0.0
 10
103.7297688945136
 20
144.9360064422895
 30
0.0
 10
103.7395761192866
 20
144.9295051570222
 30
0.0
 10
103.7488312118706
 20
144.9223230791844
 30
0.0
 10
103.7576855140995
 20
144.9146584388882
 30
0.0
 10
103.7677797001492
 20
144.9059205052649
 30
0.0
 10
103.7773529900003
 20
144.8965553984905
 30
0.0
 10
103.7864232105586
 20
144.8867418195757
 30
0.0
 10
103.7968475483834
 20
144.875463145458
 30
0.0
 10
103.8066073952618
 20
144.8635920963307
 30
0.0
 10
103.8159819841399
 20
144.8514355063968
 30
0.0
 10
103.8264818492024
 20
144.8378197035496
 30
0.0
 10
103.836498416662
 20
144.8238456961041
 30
0.0
 10
103.8465149846613
 20
144.8098716881041
 30
0.0
 10
103.8465149846613
 20
144.8098716881041
 30
0.0
 10
105.5402421759639
 20
142.2193126701076
 30
0.0
 10
105.5402421759639
 20
142.2193126701076
 30
0.0
 10
105.5402421759639
 20
142.2193126701076
 30
0.0
 10
105.5394227026549
 20
144.6683353250277
 30
0.0
 10
105.5394227026549
 20
144.6683353250277
 30
0.0
 10
105.5399617336558
 20
144.694097413027
 30
0.0
 10
105.5405007638027
 20
144.7198595009441
 30
0.0
 10
105.5427070109166
 20
144.7455165674147
 30
0.0
 10
105.5445807706653
 20
144.7673070450673
 30
0.0
 10
105.5476571038968
 20
144.7890217701265
 30
0.0
 10
105.5525599356112
 20
144.8103816542442
 30
0.0
 10
105.5566927977927
 20
144.82838705651
 30
0.0
 10
105.5621235180035
 20
144.8461403188651
 30
0.0
 10
105.5698025533758
 20
144.8629305855483
 30
0.0
 10
105.5763526098042
 20
144.8772523315603
 30
0.0
 10
105.5845384802885
 20
144.8908734276456
 30
0.0
 10
105.5944348650073
 20
144.9031633606891
 30
0.0
 10
105.6036946889724
 20
144.9146627738347
 30
0.0
 10
105.6144520549458
 20
144.9249967640122
 30
0.0
 10
105.6264568699476
 20
144.9335432112296
 30
0.0
 10
105.6390416837592
 20
144.9425025701998
 30
0.0
 10
105.6529973965557
 20
144.9494974875201
 30
0.0
 10
105.6675107218314
 20
144.9548912145925
 30
0.0
 10
105.6836879913673
 20
144.9609033293221
 30
0.0
 10
105.7005580628026
 20
144.9649260559268
 30
0.0
 10
105.7175964216103
 20
144.9672073699998
 30
0.0
 10
105.7368847992185
 20
144.9697899454573
 30
0.0
 10
105.7563888456685
 20
144.9701408120179
 30
0.0
 10
105.7758928916687
 20
144.9704916780163
 30
0.0
 10
105.7942951126686
 20
144.9707715070161
 30
0.0
 10
105.8126973337918
 20
144.9710513360569
 30
0.0
 10
105.8309050541078
 20
144.9688495239028
 30
0.0
 10
105.8468484919802
 20
144.966921525522
 30
0.0
 10
105.8626427966966
 20
144.9630907330675
 30
0.0
 10
105.8777064453812
 20
144.9573544453854
 30
0.0
 10
105.8919428170503
 20
144.9519331875518
 30
0.0
 10
105.9055265824338
 20
144.9448099822794
 30
0.0
 10
105.9179392210765
 20
144.9360064422164
 30
0.0
 10
105.9298158663
 20
144.9275830501355
 30
0.0
 10
105.9406203425379
 20
144.9176213080346
 30
0.0
 10
105.949961225556
 20
144.9064476684515
 30
0.0
 10
105.9601657640383
 20
144.89424091724
 30
0.0
 10
105.9686235504831
 20
144.8805878048646
 30
0.0
 10
105.9754146142328
 20
144.8662148932016
 30
0.0
 10
105.9828599343534
 20
144.8504572840307
 30
0.0
 10
105.9883019152903
 20
144.8338345026731
 30
0.0
 10
105.9926572321045
 20
144.8169502706726
 30
0.0
 10
105.9976699579122
 20
144.7975174649575
 30
0.0
 10
106.0012432100561
 20
144.7777383228666
 30
0.0
 10
106.0033312335087
 20
144.7578327235407
 30
0.0
 10
106.0056993668758
 20
144.7352567731137
 30
0.0
 10
106.0061570536571
 20
144.7125181610062
 30
0.0
 10
106.0066147396556
 20
144.6897795490066
 30
0.0
 10
106.0066147396556
 20
144.6897795490066
 30
0.0
 10
106.0057944645109
 20
141.4579240770065
 30
0.0
 10
106.0057944645109
 20
141.4579240770065
 30
0.0
 10
106.0047315045096
 20
141.4373299470064
 30
0.0
 10
106.0036685449536
 20
141.4167358172566
 30
0.0
 10
106.0008680024026
 20
141.3963432983437
 30
0.0
 10
105.998393112662
 20
141.3783220632116
 30
0.0
 10
105.9945612445774
 20
141.3604582775581
 30
0.0
 10
105.9893729239442
 20
141.3429732902062
 30
0.0
 10
105.9846780834957
 20
141.3271513640603
 30
0.0
 10
105.9788725535451
 20
141.3116396052665
 30
0.0
 10
105.9713092290998
 20
141.2969929755282
 30
0.0
 10
105.9645105995278
 20
141.2838272028858
 30
0.0
 10
105.9562916525934
 20
141.2713604640743
 30
0.0
 10
105.9466769175253
 20
141.2600445087504
 30
0.0
 10
105.9374925623045
 20
141.2492350841936
 30
0.0
 10
105.927034580244
 20
141.2394757249756
 30
0.0
 10
105.9154759895225
 20
141.2313068123426
 30
0.0
 10
105.9035654749385
 20
141.2228891812163
 30
0.0
 10
105.8904863110519
 20
141.216160319551
 30
0.0
 10
105.8768853681474
 20
141.2107798860289
 30
0.0
 10
105.8625666856116
 20
141.2051155199597
 30
0.0
 10
105.847669701073
 20
141.2009456538034
 30
0.0
 10
105.832547207914
 20
141.1984637300029
 30
0.0
 10
105.8157634659573
 20
141.1957091598274
 30
0.0
 10
105.7987019484989
 20
141.1950337520153
 30
0.0
 10
105.7816404314986
 20
141.1943583450169
 30
0.0
 10
105.7591534354984
 20
141.1953768720172
 30
0.0
 10
105.7366664402041
 20
141.1963953995052
 30
0.0
 10
105.7151331905158
 20
141.2017480381543
 30
0.0
 10
105.6928934319413
 20
141.2072762976138
 30
0.0
 10
105.6716710307347
 20
141.2174277394957
 30
0.0
 10
105.6519102581925
 20
141.2296646578505
 30
0.0
 10
105.6305350055356
 20
141.2429013479161
 30
0.0
 10
105.6108699718797
 20
141.2585782073432
 30
0.0
 10
105.5936137876438
 20
141.276466049235
 30
0.0
 10
105.5736804049237
 20
141.2971290876911
 30
0.0
 10
105.5569612905051
 20
141.3207423690269
 30
0.0
 10
105.5402421765055
 20
141.3443556500277
 30
0.0
 10
105.5402421765055
 20
141.3443556500277
 30
0.0
 10
103.8521093736229
 20
143.9520706891028
 30
0.0
 10
103.8521093736229
 20
143.9520706891028
 30
0.0
 10
103.8521093736229
 20
143.9520706891028
 30
0.0
 10
103.8521093735112
 20
141.4636716161035
 30
0.0
 10
103.8521093735112
 20
141.4636716161035
 30
0.0
 10
103.8507322005103
 20
141.4428167071025
 30
0.0
 10
103.8493550266001
 20
141.421961797547
 30
0.0
 10
103.8463618345874
 20
141.401269760325
 30
0.0
 10
103.8437074322042
 20
141.3829197872257
 30
0.0
 10
103.8397821321517
 20
141.3646979030827
 30
0.0
 10
103.8340456789106
 20
141.3470786752539
 30
0.0
 10
103.8288819041294
 20
141.3312184005368
 30
0.0
 10
103.8222505457372
 20
141.315846460289
 30
0.0
 10
103.8143398295602
 20
141.3010983607876
 30
0.0
 10
103.8071374571961
 20
141.2876708402057
 30
0.0
 10
103.798874582686
 20
141.2747604419311
 30
0.0
 10
103.7888864414754
 20
141.2633288164795
 30
0.0
 10
103.7790619440232
 20
141.2520844845505
 30
0.0
 10
103.7675682496256
 20
141.2422708665395
 30
0.0
 10
103.7552222825949
 20
141.2337700427416
 30
0.0
 10
103.7428700965212
 20
141.225264936818
 30
0.0
 10
103.729664778967
 20
141.2180739480316
 30
0.0
 10
103.7158105843979
 20
141.2124220397304
 30
0.0
 10
103.7007854915603
 20
141.2062924559058
 30
0.0
 10
103.6849972061182
 20
141.2019730993166
 30
0.0
 10
103.6690091925912
 20
141.1992848071521
 30
0.0
 10
103.6513810619473
 20
141.196320738764
 30
0.0
 10
103.6335101234986
 20
141.1953395421125
 30
0.0
 10
103.6156391844986
 20
141.1943583451144
 30
0.0
 10
103.593245648499
 20
141.1962542741148
 30
0.0
 10
103.5708521122703
 20
141.1981502032986
 30
0.0
 10
103.549131944221
 20
141.2033901927401
 30
0.0
 10
103.5294441926955
 20
141.2081398617988
 30
0.0
 10
103.5103096874038
 20
141.215637045221
 30
0.0
 10
103.4924776280284
 20
141.2255592729171
 30
0.0
 10
103.4752939849929
 20
141.2351207046763
 30
0.0
 10
103.4593197899003
 20
141.2469340263373
 30
0.0
 10
103.44567623649
 20
141.2608655855942
 30
0.0
 10
103.4313805427672
 20
141.2754630513899
 30
0.0
 10
103.4196436175034
 20
141.2923860911216
 30
0.0
 10
103.407906692504
 20
141.3093091311229
 30
0.0
  0
ENDBLK
  5
4F
330
4C
100
AcDbEntity
  8
0
100
AcDbBlockEnd
  0
BLOCK
  5
53
330
51
100
AcDbEntity
  8
0
100
AcDbBlockBegin
  2
block 4
 70
     0
 10
0.0
 20
0.0
 30
0.0
  3
block 4
  1

  0
SPLINE
  5
55
330
51
100
AcDbEntity
  8
0
 62
     7
420
 16777215
370
     5
100
AcDbSpline
210
0.0
220
0.0
230
1.0
 70
    11
 71
     3
 72
   578
 73
   574
 74
     0
 42
0.0000000001
 43
0.0000000001
 12
1.0
 22
0.0
 32
0.0
 13
1.0
 23
0.0
 33
0.0
 40
0.0
 40
0.0
 40
0.0
 40
0.0
 40
1.0
 40
1.0
 40
1.0
 40
2.0
 40
2.0
 40
2.0
 40
3.0
 40
3.0
 40
3.0
 40
4.0
 40
4.0
 40
4.0
 40
5.0
 40
5.0
 40
5.0
 40
6.0
 40
6.0
 40
6.0
 40
7.0
 40
7.0
 40
7.0
 40
8.0
 40
8.0
 40
8.0
 40
9.0
 40
9.0
 40
9.0
 40
10.0
 40
10.0
 40
10.0
 40
11.0
 40
11.0
 40
11.0
 40
12.0
 40
12.0
 40
12.0
 40
13.0
 40
13.0
 40
13.0
 40
14.0
 40
14.0
 40
14.0
 40
15.0
 40
15.0
 40
15.0
 40
16.0
 40
16.0
 40
16.0
 40
17.0
 40
17.0
 40
17.0
 40
18.0
 40
18.0
 40
18.0
 40
19.0
 40
19.0
 40
19.0
 40
20.0
 40
20.0
 40
20.0
 40
21.0
 40
21.0
 40
21.0
 40
22.0
 40
22.0
 40
22.0
 40
23.0
 40
23.0
 40
23.0
 40
24.0
 40
24.0
 40
24.0
 40
25.0
 40
25.0
 40
25.0
 40
26.0
 40
26.0
 40
26.0
 40
27.0
 40
27.0
 40
27.0
 40
28.0
 40
28.0
 40
28.0
 40
29.0
 40
29.0
 40
29.0
 40
30.0
 40
30.0
 40
30.0
 40
31.0
 40
31.0
 40
31.0
 40
32.0
 40
32.0
 40
32.0
 40
33.0
 40
33.0
 40
33.0
 40
34.0
 40
34.0
 40
34.0
 40
35.0
 40
35.0
 40
35.0
 40
36.0
 40
36.0
 40
36.0
 40
37.0
 40
37.0
 40
37.0
 40
38.0
 40
38.0
 40
38.0
 40
39.0
 40
39.0
 40
39.0
 40
40.0
 40
40.0
 40
40.0
 40
41.0
 40
41.0
 40
41.0
 40
42.0
 40
42.0
 40
42.0
 40
43.0
 40
43.0
 40
43.0
 40
44.0
 40
44.0
 40
44.0
 40
45.0
 40
45.0
 40
45.0
 40
46.0
 40
46.0
 40
46.0
 40
47.0
 40
47.0
 40
47.0
 40
48.0
 40
48.0
 40
48.0
 40
49.0
 40
49.0
 40
49.0
 40
50.0
 40
50.0
 40
50.0
 40
51.0
 40
51.0
 40
51.0
 40
52.0
 40
52.0
 40
52.0
 40
53.0
 40
53.0
 40
53.0
 40
54.0
 40
54.0
 40
54.0
 40
55.0
 40
55.0
 40
55.0
 40
56.0
 40
56.0
 40
56.0
 40
57.0
 40
57.0
 40
57.0
 40
58.0
 40
58.0
 40
58.0
 40
59.0
 40
59.0
 40
59.0
 40
60.0
 40
60.0
 40
60.0
 40
61.0
 40
61.0
 40
61.0
 40
62.0
 40
62.0
 40
62.0
 40
63.0
 40
63.0
 40
63.0
 40
64.0
 40
64.0
 40
64.0
 40
65.0
 40
65.0
 40
65.0
 40
66.0
 40
66.0
 40
66.0
 40
67.0
 40
67.0
 40
67.0
 40
68.0
 40
68.0
 40
68.0
 40
69.0
 40
69.0
 40
69.0
 40
70.0
 40
70.0
 40
70.0
 40
71.0
 40
71.0
 40
71.0
 40
72.0
 40
72.0
 40
72.0
 40
73.0
 40
73.0
 40
73.0
 40
74.0
 40
74.0
 40
74.0
 40
75.0
 40
75.0
 40
75.0
 40
76.0
 40
76.0
 40
76.0
 40
77.0
 40
77.0
 40
77.0
 40
78.0
 40
78.0
 40
78.0
 40
79.0
 40
79.0
 40
79.0
 40
80.0
 40
80.0
 40
80.0
 40
81.0
 40
81.0
 40
81.0
 40
82.0
 40
82.0
 40
82.0
 40
83.0
 40
83.0
 40
83.0
 40
84.0
 40
84.0
 40
84.0
 40
85.0
 40
85.0
 40
85.0
 40
86.0
 40
86.0
 40
86.0
 40
87.0
 40
87.0
 40
87.0
 40
88.0
 40
88.0
 40
88.0
 40
89.0
 40
89.0
 40
89.0
 40
90.0
 40
90.0
 40
90.0
 40
91.0
 40
91.0
 40
91.0
 40
92.0
 40
92.0
 40
92.0
 40
93.0
 40
93.0
 40
93.0
 40
94.0
 40
94.0
 40
94.0
 40
95.0
 40
95.0
 40
95.0
 40
96.0
 40
96.0
 40
96.0
 40
97.0
 40
97.0
 40
97.0
 40
98.0
 40
98.0
 40
98.0
 40
99.0
 40
99.0
 40
99.0
 40
100.0
 40
100.0
 40
100.0
 40
101.0
 40
101.0
 40
101.0
 40
102.0
 40
102.0
 40
102.0
 40
103.0
 40
103.0
 40
103.0
 40
104.0
 40
104.0
 40
104.0
 40
105.0
 40
105.0
 40
105.0
 40
106.0
 40
106.0
 40
106.0
 40
107.0
 40
107.0
 40
107.0
 40
108.0
 40
108.0
 40
108.0
 40
109.0
 40
109.0
 40
109.0
 40
110.0
 40
110.0
 40
110.0
 40
111.0
 40
111.0
 40
111.0
 40
112.0
 40
112.0
 40
112.0
 40
113.0
 40
113.0
 40
113.0
 40
114.0
 40
114.0
 40
114.0
 40
115.0
 40
115.0
 40
115.0
 40
116.0
 40
116.0
 40
116.0
 40
117.0
 40
117.0
 40
117.0
 40
118.0
 40
118.0
 40
118.0
 40
119.0
 40
119.0
 40
119.0
 40
120.0
 40
120.0
 40
120.0
 40
121.0
 40
121.0
 40
121.0
 40
122.0
 40
122.0
 40
122.0
 40
123.0
 40
123.0
 40
123.0
 40
124.0
 40
124.0
 40
124.0
 40
125.0
 40
125.0
 40
125.0
 40
126.0
 40
126.0
 40
126.0
 40
127.0
 40
127.0
 40
127.0
 40
128.0
 40
128.0
 40
128.0
 40
129.0
 40
129.0
 40
129.0
 40
130.0
 40
130.0
 40
130.0
 40
131.0
 40
131.0
 40
131.0
 40
132.0
 40
132.0
 40
132.0
 40
133.0
 40
133.0
 40
133.0
 40
134.0
 40
134.0
 40
134.0
 40
135.0
 40
135.0
 40
135.0
 40
136.0
 40
136.0
 40
136.0
 40
137.0
 40
137.0
 40
137.0
 40
138.0
 40
138.0
 40
138.0
 40
139.0
 40
139.0
 40
139.0
 40
140.0
 40
140.0
 40
140.0
 40
141.0
 40
141.0
 40
141.0
 40
142.0
 40
142.0
 40
142.0
 40
143.0
 40
143.0
 40
143.0
 40
144.0
 40
144.0
 40
144.0
 40
145.0
 40
145.0
 40
145.0
 40
146.0
 40
146.0
 40
146.0
 40
147.0
 40
147.0
 40
147.0
 40
148.0
 40
148.0
 40
148.0
 40
149.0
 40
149.0
 40
149.0
 40
150.0
 40
150.0
 40
150.0
 40
151.0
 40
151.0
 40
151.0
 40
152.0
 40
152.0
 40
152.0
 40
153.0
 40
153.0
 40
153.0
 40
154.0
 40
154.0
 40
154.0
 40
155.0
 40
155.0
 40
155.0
 40
156.0
 40
156.0
 40
156.0
 40
157.0
 40
157.0
 40
157.0
 40
158.0
 40
158.0
 40
158.0
 40
159.0
 40
159.0
 40
159.0
 40
160.0
 40
160.0
 40
160.0
 40
161.0
 40
161.0
 40
161.0
 40
162.0
 40
162.0
 40
162.0
 40
163.0
 40
163.0
 40
163.0
 40
164.0
 40
164.0
 40
164.0
 40
165.0
 40
165.0
 40
165.0
 40
166.0
 40
166.0
 40
166.0
 40
167.0
 40
167.0
 40
167.0
 40
168.0
 40
168.0
 40
168.0
 40
169.0
 40
169.0
 40
169.0
 40
170.0
 40
170.0
 40
170.0
 40
171.0
 40
171.0
 40
171.0
 40
172.0
 40
172.0
 40
172.0
 40
173.0
 40
173.0
 40
173.0
 40
174.0
 40
174.0
 40
174.0
 40
175.0
 40
175.0
 40
175.0
 40
176.0
 40
176.0
 40
176.0
 40
177.0
 40
177.0
 40
177.0
 40
178.0
 40
178.0
 40
178.0
 40
179.0
 40
179.0
 40
179.0
 40
180.0
 40
180.0
 40
180.0
 40
181.0
 40
181.0
 40
181.0
 40
182.0
 40
182.0
 40
182.0
 40
183.0
 40
183.0
 40
183.0
 40
184.0
 40
184.0
 40
184.0
 40
185.0
 40
185.0
 40
185.0
 40
186.0
 40
186.0
 40
186.0
 40
187.0
 40
187.0
 40
187.0
 40
188.0
 40
188.0
 40
188.0
 40
189.0
 40
189.0
 40
189.0
 40
190.0
 40
190.0
 40
190.0
 40
191.0
 40
191.0
 40
191.0
 40
191.0
 10
103.4111910009544
 20
151.3392512641228
 30
0.0
 10
103.412165649956
 20
151.3625787951232
 30
0.0
 10
103.4131402992052
 20
151.385906325505
 30
0.0
 10
103.4161174633213
 20
151.4090428124509
 30
0.0
 10
103.4187968176391
 20
151.42986492497
 30
0.0
 10
103.423098095937
 20
151.4505323030924
 30
0.0
 10
103.4292546959702
 20
151.4706235911458
 30
0.0
 10
103.4350538866665
 20
151.4895485188852
 30
0.0
 10
103.4424992376952
 20
151.5079623025998
 30
0.0
 10
103.4514237762627
 20
151.5256357533853
 30
0.0
 10
103.4598576420687
 20
151.5423375146165
 30
0.0
 10
103.4696125147304
 20
151.5583781123051
 30
0.0
 10
103.4809825491709
 20
151.5732582213715
 30
0.0
 10
103.4918204270835
 20
151.587441890405
 30
0.0
 10
103.504125814686
 20
151.6005711583759
 30
0.0
 10
103.5179310164941
 20
151.6118488430405
 30
0.0
 10
103.5309975007978
 20
151.6225230578546
 30
0.0
 10
103.5454075834013
 20
151.6315385444254
 30
0.0
 10
103.5606270229701
 20
151.6389443857044
 30
0.0
 10
103.5763361359184
 20
151.6465885040446
 30
0.0
 10
103.592907524497
 20
151.6525177327033
 30
0.0
 10
103.6098916458341
 20
151.6561870034337
 30
0.0
 10
103.6276543791909
 20
151.6600244864754
 30
0.0
 10
103.6458685549685
 20
151.6613900531123
 30
0.0
 10
103.6640827309694
 20
151.6627556201117
 30
0.0
 10
103.6792191009695
 20
151.661700984111
 30
0.0
 10
103.6943554718315
 20
151.6606463491588
 30
0.0
 10
103.7092419683808
 20
151.6578291575331
 30
0.0
 10
103.7236238581801
 20
151.6551074600962
 30
0.0
 10
103.7377725265114
 20
151.6507406713747
 30
0.0
 10
103.7511168976999
 20
151.6446919249053
 30
0.0
 10
103.763876277825
 20
151.6389083436197
 30
0.0
 10
103.7759003327491
 20
151.6315870397012
 30
0.0
 10
103.7872442877244
 20
151.6233439217017
 30
0.0
 10
103.7990417104088
 20
151.6147712900676
 30
0.0
 10
103.8101035732113
 20
151.6052016734201
 30
0.0
 10
103.8200873696868
 20
151.5946062245835
 30
0.0
 10
103.8302688842046
 20
151.5838009446067
 30
0.0
 10
103.8393292097624
 20
151.5719287991732
 30
0.0
 10
103.8471829118277
 20
151.5592999115484
 30
0.0
 10
103.8550885683775
 20
151.5465874802222
 30
0.0
 10
103.8617715843125
 20
151.5331082614568
 30
0.0
 10
103.8668887612304
 20
151.5190671364936
 30
0.0
 10
103.8722115150273
 20
151.5044619249874
 30
0.0
 10
103.8758400909606
 20
151.4892487524888
 30
0.0
 10
103.8783838394668
 20
151.4739078991367
 30
0.0
 10
103.8811039389746
 20
151.4575035071381
 30
0.0
 10
103.8825835809589
 20
151.4409531171019
 30
0.0
 10
103.8840632229586
 20
151.4244027261017
 30
0.0
 10
103.8840632229586
 20
151.4244027261017
 30
0.0
 10
103.8833103019565
 20
151.3786629621016
 30
0.0
 10
103.8833103019565
 20
151.3786629621016
 30
0.0
 10
103.8816665729563
 20
151.3674648821016
 30
0.0
 10
103.8800228429317
 20
151.3562668028267
 30
0.0
 10
103.8792049165518
 20
151.3449988033115
 30
0.0
 10
103.8787885883451
 20
151.3392633408698
 30
0.0
 10
103.8785862139547
 20
151.3335097631019
 30
0.0
 10
103.8783838399538
 20
151.3277561851023
 30
0.0
 10
103.8805417669523
 20
151.3002611861018
 30
0.0
 10
103.8826996945642
 20
151.2727661868254
 30
0.0
 10
103.8874156869089
 20
151.2456484811409
 30
0.0
 10
103.892123284539
 20
151.2185790464067
 30
0.0
 10
103.899379848026
 20
151.191885563256
 30
0.0
 10
103.9087636901857
 20
151.1660040067135
 30
0.0
 10
103.9184226420173
 20
151.139363670729
 30
0.0
 10
103.9303354334114
 20
151.1135835663342
 30
0.0
 10
103.9440700032093
 20
151.0888227650131
 30
0.0
 10
103.9583688440905
 20
151.0630446908995
 30
0.0
 10
103.9746422302379
 20
151.0383713944329
 30
0.0
 10
103.9925135492892
 20
151.0149258305996
 30
0.0
 10
104.010401064003
 20
150.9914590195138
 30
0.0
 10
104.0298894091466
 20
150.9692221673041
 30
0.0
 10
104.0508100195934
 20
150.9484185904446
 30
0.0
 10
104.0710552530772
 20
150.9282866123693
 30
0.0
 10
104.0926417693288
 20
150.9094968629487
 30
0.0
 10
104.1156751063408
 20
150.8925853511156
 30
0.0
 10
104.1381863156709
 20
150.8760571953061
 30
0.0
 10
104.162079495146
 20
150.8613230891413
 30
0.0
 10
104.1871088088312
 20
150.8490682675963
 30
0.0
 10
104.212339897843
 20
150.8367146530653
 30
0.0
 10
104.2387255129313
 20
150.8268804580853
 30
0.0
 10
104.265111127931
 20
150.8170462630847
 30
0.0
 10
104.2801031619306
 20
150.8131789030838
 30
0.0
 10
104.2950951952056
 20
150.8093115431188
 30
0.0
 10
104.3102703660362
 20
150.8063722609875
 30
0.0
 10
104.3281562680633
 20
150.8029079367428
 30
0.0
 10
104.3462965787751
 20
150.8007328677742
 30
0.0
 10
104.3644614509609
 20
150.7989825675909
 30
0.0
 10
104.3849594683313
 20
150.7970074541304
 30
0.0
 10
104.4054887618625
 20
150.7955732339854
 30
0.0
 10
104.4260422294813
 20
150.7948771826882
 30
0.0
 10
104.4498022590536
 20
150.7940725399045
 30
0.0
 10
104.4735945939304
 20
150.7942543570754
 30
0.0
 10
104.4973869289303
 20
150.7944361740737
 30
0.0
 10
104.4973869289303
 20
150.7944361740737
 30
0.0
 10
104.8357596749304
 20
150.7940561050591
 30
0.0
 10
104.8357596749304
 20
150.7940561050591
 30
0.0
 10
104.8535625069301
 20
150.7943851440581
 30
0.0
 10
104.8713653388868
 20
150.7947141830545
 30
0.0
 10
104.8891296829466
 20
150.795698259659
 30
0.0
 10
104.9116109544863
 20
150.796943635975
 30
0.0
 10
104.934030585325
 20
150.7992380947517
 30
0.0
 10
104.9564580005107
 20
150.8014457987329
 30
0.0
 10
104.9786674668144
 20
150.8036320483197
 30
0.0
 10
105.000884566904
 20
150.8057332210783
 30
0.0
 10
105.0229652413844
 20
150.8088354922027
 30
0.0
 10
105.0397127965192
 20
150.8111884754302
 30
0.0
 10
105.0563818689308
 20
150.8141173690495
 30
0.0
 10
105.0730509409311
 20
150.8170462630488
 30
0.0
 10
105.1038796499315
 20
150.8263257150467
 30
0.0
 10
105.1347083588517
 20
150.8356051669883
 30
0.0
 10
105.1641904930327
 20
150.8482471903066
 30
0.0
 10
105.1932106584562
 20
150.8606911201022
 30
0.0
 10
105.2209261186783
 20
150.8763930676196
 30
0.0
 10
105.2471192744179
 20
150.8942275045015
 30
0.0
 10
105.2734026166934
 20
150.9121233477346
 30
0.0
 10
105.2981531534441
 20
150.9321663905063
 30
0.0
 10
105.3210162093947
 20
150.9541661292137
 30
0.0
 10
105.3449212925644
 20
150.9771685478146
 30
0.0
 10
105.3667629231084
 20
151.0023100871761
 30
0.0
 10
105.3867023729377
 20
151.0288841406961
 30
0.0
 10
105.4069725138362
 20
151.0558989186203
 30
0.0
 10
105.4252768563802
 20
151.0843941205398
 30
0.0
 10
105.4408934578278
 20
151.1142761533112
 30
0.0
 10
105.45617608152
 20
151.1435191267916
 30
0.0
 10
105.4688846952869
 20
151.1740902476818
 30
0.0
 10
105.4794840791189
 20
151.2054157055047
 30
0.0
 10
105.490275402696
 20
151.2373084227526
 30
0.0
 10
105.4988804143779
 20
151.2699830442308
 30
0.0
 10
105.5041163900086
 20
151.3031238740257
 30
0.0
 10
105.5095126142002
 20
151.337278988582
 30
0.0
 10
105.5113304259557
 20
151.3719292850286
 30
0.0
 10
105.5131482379577
 20
151.4065795810285
 30
0.0
 10
105.5117172309589
 20
151.4351231700286
 30
0.0
 10
105.5102862248303
 20
151.4636667586533
 30
0.0
 10
105.5065796216268
 20
151.4919715939016
 30
0.0
 10
105.502948567686
 20
151.5196995102548
 30
0.0
 10
105.4971337353029
 20
151.5471983067518
 30
0.0
 10
105.4893370034426
 20
151.5740792988653
 30
0.0
 10
105.4815402716444
 20
151.6009602907657
 30
0.0
 10
105.4717616404018
 20
151.6272234782934
 30
0.0
 10
105.4605993070085
 20
151.6529026950135
 30
0.0
 10
105.449313640886
 20
151.6788656416446
 30
0.0
 10
105.4366135266148
 20
151.7042316415792
 30
0.0
 10
105.4220086854229
 20
151.7284417836672
 30
0.0
 10
105.4074971931996
 20
151.7524971831078
 30
0.0
 10
105.3911052449204
 20
151.7754114531492
 30
0.0
 10
105.3735651398768
 20
151.7974122552421
 30
0.0
 10
105.3565077587673
 20
151.818807569871
 30
0.0
 10
105.3383645484621
 20
151.8393390040621
 30
0.0
 10
105.3185529780544
 20
151.8581719566665
 30
0.0
 10
105.2989331951628
 20
151.8768225953438
 30
0.0
 10
105.2776771972113
 20
151.8938074778413
 30
0.0
 10
105.2553300455104
 20
151.9090787333553
 30
0.0
 10
105.2328052433147
 20
151.9244713889542
 30
0.0
 10
105.2091718699815
 20
151.9381230640419
 30
0.0
 10
105.185538496982
 20
151.9517747400434
 30
0.0
 10
105.171935624982
 20
151.9577291910441
 30
0.0
 10
105.1583327531308
 20
151.9636836426114
 30
0.0
 10
105.1444846443622
 20
151.9690173576523
 30
0.0
 10
105.1283346287021
 20
151.9752376714065
 30
0.0
 10
105.1118510708245
 20
151.9806137328361
 30
0.0
 10
105.0952200217934
 20
151.9854388985848
 30
0.0
 10
105.0762139995368
 20
151.9909531152433
 30
0.0
 10
105.0570153538323
 20
151.9957478621391
 30
0.0
 10
105.0377446281035
 20
152.0002182854974
 30
0.0
 10
105.0158123238891
 20
152.005306141889
 30
0.0
 10
104.9937866539848
 20
152.0099739000524
 30
0.0
 10
104.9717609849848
 20
152.014641658053
 30
0.0
 10
104.9717609849848
 20
152.014641658053
 30
0.0
 10
104.3611771429906
 20
152.1447278460802
 30
0.0
 10
104.3611771429906
 20
152.1447278460802
 30
0.0
 10
104.3180383359914
 20
152.1541854680823
 30
0.0
 10
104.2748995299188
 20
152.1636430897902
 30
0.0
 10
104.2322680464223
 20
152.1751076962255
 30
0.0
 10
104.1934018939334
 20
152.1855597167844
 30
0.0
 10
104.1549574053223
 20
152.1976798534546
 30
0.0
 10
104.1173172599442
 20
152.2120561631203
 30
0.0
 10
104.0832966303612
 20
152.2250500317944
 30
0.0
 10
104.0499330887545
 20
152.2398870242604
 30
0.0
 10
104.0179669373211
 20
152.2572154009767
 30
0.0
 10
103.9887232654059
 20
152.2730679619141
 30
0.0
 10
103.9606490949972
 20
152.2910056080982
 30
0.0
 10
103.9325749249979
 20
152.3089432550996
 30
0.0
 10
103.9014690839985
 20
152.331338238101
 30
0.0
 10
103.8703632424729
 20
152.3537332206917
 30
0.0
 10
103.84143537244
 20
152.3787348037146
 30
0.0
 10
103.8126120305649
 20
152.4036460458511
 30
0.0
 10
103.7859509488265
 20
152.431145085039
 30
0.0
 10
103.7609698220743
 20
152.4600214311704
 30
0.0
 10
103.7356466691457
 20
152.4892931344193
 30
0.0
 10
103.7120497879317
 20
152.5199801172668
 30
0.0
 10
103.690357196425
 20
152.5519820601973
 30
0.0
 10
103.6680420172293
 20
152.5849024741028
 30
0.0
 10
103.6477420043768
 20
152.6192144112051
 30
0.0
 10
103.6295974951238
 20
152.6546166906848
 30
0.0
 10
103.6113090950759
 20
152.6902997196748
 30
0.0
 10
103.5952105216203
 20
152.7270904530231
 30
0.0
 10
103.5811539490683
 20
152.7646410148661
 30
0.0
 10
103.5672768772629
 20
152.8017120605341
 30
0.0
 10
103.5553899871371
 20
152.839523652764
 30
0.0
 10
103.5458476362211
 20
152.8779496470723
 30
0.0
 10
103.5362524514935
 20
152.9165883973076
 30
0.0
 10
103.5290278402038
 20
152.955848372064
 30
0.0
 10
103.5244996330958
 20
152.9953636646033
 30
0.0
 10
103.5199403442777
 20
153.0351501909478
 30
0.0
 10
103.5181146030323
 20
153.0751955521182
 30
0.0
 10
103.5162888630338
 20
153.1152409141179
 30
0.0
 10
103.5179720830361
 20
153.148941784118
 30
0.0
 10
103.5196553043217
 20
153.1826426553164
 30
0.0
 10
103.5228574791138
 20
153.2162333899985
 30
0.0
 10
103.5259546569863
 20
153.2487227095784
 30
0.0
 10
103.5304728107437
 20
153.2811089968186
 30
0.0
 10
103.5368157888464
 20
153.3131204815113
 30
0.0
 10
103.54295811433
 20
153.3441193206981
 30
0.0
 10
103.5508116379334
 20
153.374766695144
 30
0.0
 10
103.5598059464277
 20
153.4050811111218
 30
0.0
 10
103.56862649128
 20
153.4348098741466
 30
0.0
 10
103.5785441684989
 20
153.4642184194728
 30
0.0
 10
103.5901857966329
 20
153.4929363541246
 30
0.0
 10
103.6017773649993
 20
153.5215307997638
 30
0.0
 10
103.6150780899519
 20
153.5494405613019
 30
0.0
 10
103.6295974947138
 20
153.5766862133318
 30
0.0
 10
103.6439774106985
 20
153.6036701147738
 30
0.0
 10
103.6595527031128
 20
153.6300026056922
 30
0.0
 10
103.6763988863106
 20
153.6555096095304
 30
0.0
 10
103.6934499244766
 20
153.6813267866825
 30
0.0
 10
103.7118029502325
 20
153.7062982783137
 30
0.0
 10
103.7314110490185
 20
153.7302276210272
 30
0.0
 10
103.7513117764202
 20
153.7545140820154
 30
0.0
 10
103.7725053174654
 20
153.7777270561988
 30
0.0
 10
103.7946339810903
 20
153.8000191694048
 30
0.0
 10
103.8168926396535
 20
153.8224422377337
 30
0.0
 10
103.8400974398314
 20
153.8439335941038
 30
0.0
 10
103.8644255305748
 20
153.8640631796973
 30
0.0
 10
103.8883815310084
 20
153.8838848897636
 30
0.0
 10
103.9134267240404
 20
153.9023861661887
 30
0.0
 10
103.9391435409355
 20
153.919896418493
 30
0.0
 10
103.9649637746765
 20
153.9374770860077
 30
0.0
 10
103.9914610448375
 20
153.9540587428246
 30
0.0
 10
104.0187880147218
 20
153.9691610411568
 30
0.0
 10
104.046219814519
 20
153.9843212739265
 30
0.0
 10
104.0744876919267
 20
153.9979907764068
 30
0.0
 10
104.1033589501724
 20
154.0102148930807
 30
0.0
 10
104.1326369894822
 20
154.0226112412224
 30
0.0
 10
104.1625355320546
 20
154.0335211871551
 30
0.0
 10
104.1928563490589
 20
154.0430579754535
 30
0.0
 10
104.2242121059975
 20
154.0529202827855
 30
0.0
 10
104.2560194563133
 20
154.061314092739
 30
0.0
 10
104.2881012859961
 20
154.0685113639756
 30
0.0
 10
104.3209614230125
 20
154.0758832414945
 30
0.0
 10
104.354109518716
 20
154.0819998198536
 30
0.0
 10
104.3874516078771
 20
154.0865750589914
 30
0.0
 10
104.4220748196208
 20
154.0913260952175
 30
0.0
 10
104.4569072190782
 20
154.0944150690759
 30
0.0
 10
104.4917396190785
 20
154.0975040430745
 30
0.0
 10
104.4917396190785
 20
154.0975040430745
 30
0.0
 10
104.8574893510792
 20
154.1153119530582
 30
0.0
 10
104.8574893510792
 20
154.1153119530582
 30
0.0
 10
104.8574893510792
 20
154.1153119530582
 30
0.0
 10
104.8907718370787
 20
154.1144916780565
 30
0.0
 10
104.8907718370787
 20
154.1144916780565
 30
0.0
 10
104.9335769880787
 20
154.1128852510546
 30
0.0
 10
104.9763821392193
 20
154.111278824427
 30
0.0
 10
105.018859856236
 20
154.1062809075589
 30
0.0
 10
105.0603749323685
 20
154.1013962547602
 30
0.0
 10
105.101577247006
 20
154.0932720875648
 30
0.0
 10
105.1420214128069
 20
154.0824696733155
 30
0.0
 10
105.1825391538324
 20
154.0716476075285
 30
0.0
 10
105.2222959850931
 20
154.0581375413967
 30
0.0
 10
105.2610775848866
 20
154.0422368981355
 30
0.0
 10
105.3005141950152
 20
154.0260676974729
 30
0.0
 10
105.3389423527062
 20
154.0074264853853
 30
0.0
 10
105.3760283708546
 20
153.9864036589856
 30
0.0
 10
105.4133684241693
 20
153.9652368285262
 30
0.0
 10
105.449347887948
 20
153.9416556444104
 30
0.0
 10
105.4835894640234
 20
153.9157910331278
 30
0.0
 10
105.5176710105396
 20
153.8900473012789
 30
0.0
 10
105.5500308755877
 20
153.8620414357887
 30
0.0
 10
105.5804765554621
 20
153.8320411745921
 30
0.0
 10
105.6114544625039
 20
153.8015164726822
 30
0.0
 10
105.6404506748866
 20
153.7689270367136
 30
0.0
 10
105.6666896450332
 20
153.7343330063296
 30
0.0
 10
105.6938369756786
 20
153.6985413736582
 30
0.0
 10
105.7180328550583
 20
153.6606039510191
 30
0.0
 10
105.7422287340569
 20
153.6226665280182
 30
0.0
 10
105.7611435240558
 20
153.5891326450173
 30
0.0
 10
105.7800583140734
 20
153.5555987619211
 30
0.0
 10
105.7964198188424
 20
153.5208529740272
 30
0.0
 10
105.8122091299288
 20
153.4873223139953
 30
0.0
 10
105.8256206197175
 20
153.4526630323031
 30
0.0
 10
105.8374736707127
 20
153.4173972664765
 30
0.0
 10
105.8484175138694
 20
153.3848366194193
 30
0.0
 10
105.8580328337582
 20
153.3517589624624
 30
0.0
 10
105.8637481360978
 20
153.3180469439298
 30
0.0
 10
105.8687507941994
 20
153.2885384958029
 30
0.0
 10
105.8707653890404
 20
153.2585440210125
 30
0.0
 10
105.8727799840392
 20
153.2285495460126
 30
0.0
 10
105.8717337170388
 20
153.2112219360126
 30
0.0
 10
105.8706874502425
 20
153.1938943267869
 30
0.0
 10
105.8678535213161
 20
153.176821691686
 30
0.0
 10
105.8652141372078
 20
153.1609210664585
 30
0.0
 10
105.8610241068706
 20
153.1452416097936
 30
0.0
 10
105.8555373657259
 20
153.1300203003426
 30
0.0
 10
105.8502904006392
 20
153.1154641772861
 30
0.0
 10
105.843857583426
 20
153.1013270334226
 30
0.0
 10
105.8358315168366
 20
153.0881453709763
 30
0.0
 10
105.8279135461073
 20
153.0751412404665
 30
0.0
 10
105.8184449530832
 20
153.0630670276516
 30
0.0
 10
105.8079148972565
 20
153.0520179810439
 30
0.0
 10
105.7974394723723
 20
153.041026257953
 30
0.0
 10
105.7859135700578
 20
153.0310490913405
 30
0.0
 10
105.7734296611658
 20
153.0224592073596
 30
0.0
 10
105.7611100214655
 20
153.0139823531441
 30
0.0
 10
105.7478574211236
 20
153.0068565127167
 30
0.0
 10
105.7340179634232
 20
153.0011112044774
 30
0.0
 10
105.71973962958
 20
152.9951837013301
 30
0.0
 10
105.7048366274271
 20
152.9907256774261
 30
0.0
 10
105.689679802797
 20
152.9879739714646
 30
0.0
 10
105.6734522297207
 20
152.9850278722214
 30
0.0
 10
105.6569337050284
 20
152.9840376910223
 30
0.0
 10
105.640415180028
 20
152.9830475090227
 30
0.0
 10
105.6269840010287
 20
152.9828648140235
 30
0.0
 10
105.6135528230947
 20
152.9826821195641
 30
0.0
 10
105.6001824049257
 20
152.9838685861715
 30
0.0
 10
105.5873952620222
 20
152.9850032939922
 30
0.0
 10
105.57466369331
 20
152.9873903110893
 30
0.0
 10
105.5624128607434
 20
152.991258279588
 30
0.0
 10
105.5507095762207
 20
152.994953370156
 30
0.0
 10
105.5394450153968
 20
152.9999999889656
 30
0.0
 10
105.5287487018289
 20
153.0060376665103
 30
0.0
 10
105.518278847928
 20
153.0119475158608
 30
0.0
 10
105.5083534344182
 20
153.0188069032882
 30
0.0
 10
105.4991899283746
 20
153.0265645930043
 30
0.0
 10
105.4892837496055
 20
153.0349510185493
 30
0.0
 10
105.4802679832593
 20
153.0443872559845
 30
0.0
 10
105.4720943858673
 20
153.0544812125751
 30
0.0
 10
105.4635296587561
 20
153.0650581934956
 30
0.0
 10
105.4558896294013
 20
153.076357347116
 30
0.0
 10
105.4491042282773
 20
153.0881453714063
 30
0.0
 10
105.4415243849485
 20
153.1013135505054
 30
0.0
 10
105.4350110067004
 20
153.1150917767329
 30
0.0
 10
105.4293983792834
 20
153.1291992233731
 30
0.0
 10
105.4231897195766
 20
153.1448048086075
 30
0.0
 10
105.4180832790363
 20
153.1608132500326
 30
0.0
 10
105.4129768380366
 20
153.1768216920331
 30
0.0
 10
105.4033860840387
 20
153.2141133140334
 30
0.0
 10
105.3937953297828
 20
153.251404936289
 30
0.0
 10
105.3809548336276
 20
153.2876670929035
 30
0.0
 10
105.369217812349
 20
153.3208129852903
 30
0.0
 10
105.3547655959574
 20
153.3530987478069
 30
0.0
 10
105.3374377499197
 20
153.3837331076049
 30
0.0
 10
105.3212350705514
 20
153.4123782553291
 30
0.0
 10
105.3025180890299
 20
153.4395795017434
 30
0.0
 10
105.2816045109834
 20
153.4650197347714
 30
0.0
 10
105.2615343336014
 20
153.4894340166501
 30
0.0
 10
105.2394411555273
 20
153.512226457077
 30
0.0
 10
105.2150972703728
 20
153.5323480524686
 30
0.0
 10
105.1910214804905
 20
153.5522480519824
 30
0.0
 10
105.1647442839009
 20
153.5695357097032
 30
0.0
 10
105.1370949506313
 20
153.5840759064615
 30
0.0
 10
105.1084917690544
 20
153.599117711773
 30
0.0
 10
105.0784201456922
 20
153.6112192221888
 30
0.0
 10
105.0475975530352
 20
153.6210243734953
 30
0.0
 10
105.014625644644
 20
153.6315132559278
 30
0.0
 10
104.9807943824246
 20
153.6393743545031
 30
0.0
 10
104.9466050764764
 20
153.6440145310258
 30
0.0
 10
104.9096121174342
 20
153.6490352196682
 30
0.0
 10
104.8721999850586
 20
153.6502850710573
 30
0.0
 10
104.8347878530584
 20
153.6515349230589
 30
0.0
 10
104.8347878530584
 20
153.6515349230589
 30
0.0
 10
104.8064109820582
 20
153.6515349230602
 30
0.0
 10
104.8064109820582
 20
153.6515349230602
 30
0.0
 10
104.8064109820582
 20
153.6515349230602
 30
0.0
 10
104.5221082440576
 20
153.6456566850732
 30
0.0
 10
104.5221082440576
 20
153.6456566850732
 30
0.0
 10
104.4835653560578
 20
153.6423450410748
 30
0.0
 10
104.4450224678758
 20
153.6390333976918
 30
0.0
 10
104.4071574571835
 20
153.631698375304
 30
0.0
 10
104.3718990079497
 20
153.624868283096
 30
0.0
 10
104.3372283206544
 20
153.6145496710922
 30
0.0
 10
104.3037017497733
 20
153.6013185247452
 30
0.0
 10
104.2719607836459
 20
153.5887920611971
 30
0.0
 10
104.2412453094041
 20
153.5736550413297
 30
0.0
 10
104.2125621972578
 20
153.555338210046
 30
0.0
 10
104.1843138233221
 20
153.5372989994899
 30
0.0
 10
104.1580366709968
 20
153.5161756372486
 30
0.0
 10
104.1337388011962
 20
153.49293635468
 30
0.0
 10
104.1096746289798
 20
153.4699205881751
 30
0.0
 10
104.0875518487951
 20
153.4448294075674
 30
0.0
 10
104.0688737146586
 20
153.4173972668615
 30
0.0
 10
104.0504082780081
 20
153.3902775100023
 30
0.0
 10
104.0353094821921
 20
153.360869804904
 30
0.0
 10
104.0228933999979
 20
153.3303630995826
 30
0.0
 10
104.0101461073376
 20
153.2990425997056
 30
0.0
 10
104.0002265650628
 20
153.2665636838587
 30
0.0
 10
103.9941557030774
 20
153.2334760082074
 30
0.0
 10
103.9876625198714
 20
153.1980865790956
 30
0.0
 10
103.985572111036
 20
153.1620007470971
 30
0.0
 10
103.9834817020345
 20
153.1259149150973
 30
0.0
 10
103.9846156350334
 20
153.1000943220972
 30
0.0
 10
103.9857495691617
 20
153.0742737284762
 30
0.0
 10
103.9892292408793
 20
153.0487336727921
 30
0.0
 10
103.9925526673057
 20
153.0243404245498
 30
0.0
 10
103.9980159027746
 20
153.0002030862682
 30
0.0
 10
104.0048297049116
 20
152.9764788926421
 30
0.0
 10
104.011580585033
 20
152.952973779944
 30
0.0
 10
104.0196572033919
 20
152.9298742167693
 30
0.0
 10
104.0294620160914
 20
152.9075084208493
 30
0.0
 10
104.0392969757636
 20
152.885073856553
 30
0.0
 10
104.0508707735133
 20
152.8633775786946
 30
0.0
 10
104.063947252397
 20
152.842643334194
 30
0.0
 10
104.0770139263029
 20
152.8219246366014
 30
0.0
 10
104.0915810287129
 20
152.802166530208
 30
0.0
 10
104.1074643357655
 20
152.783525786911
 30
0.0
 10
104.1226653031612
 20
152.7656858414802
 30
0.0
 10
104.1390718171769
 20
152.7488693184421
 30
0.0
 10
104.1567289586404
 20
152.7334400873961
 30
0.0
 10
104.174435474004
 20
152.7179677122601
 30
0.0
 10
104.193399620745
 20
152.7038903984123
 30
0.0
 10
104.2133832746078
 20
152.6915651582477
 30
0.0
 10
104.2334954508332
 20
152.6791606498478
 30
0.0
 10
104.2546402900143
 20
152.6685308240851
 30
0.0
 10
104.2757851300135
 20
152.6579009990848
 30
0.0
 10
104.2886086280135
 20
152.6533999660833
 30
0.0
 10
104.3014321269177
 20
152.6488989328345
 30
0.0
 10
104.3143757510575
 20
152.6447637666473
 30
0.0
 10
104.3295593720153
 20
152.6399129771546
 30
0.0
 10
104.3449082930965
 20
152.6355656444878
 30
0.0
 10
104.3603560657047
 20
152.6316265336724
 30
0.0
 10
104.3780497368319
 20
152.6271147290862
 30
0.0
 10
104.3958730923035
 20
152.6231384749798
 30
0.0
 10
104.4137260735009
 20
152.6193103779391
 30
0.0
 10
104.4340315356488
 20
152.6149564115788
 30
0.0
 10
104.4543753220116
 20
152.6107941030759
 30
0.0
 10
104.4747191080118
 20
152.606631794075
 30
0.0
 10
104.4747191080118
 20
152.606631794075
 30
0.0
 10
105.087830328006
 20
152.4805483570475
 30
0.0
 10
105.087830328006
 20
152.4805483570475
 30
0.0
 10
105.1210712480048
 20
152.4722392120462
 30
0.0
 10
105.1543121684085
 20
152.4639300670997
 30
0.0
 10
105.1871806503621
 20
152.4542738919505
 30
0.0
 10
105.2190704333173
 20
152.4449052411522
 30
0.0
 10
105.2506096272256
 20
152.434268584766
 30
0.0
 10
105.2816045108301
 20
152.4222518869493
 30
0.0
 10
105.3116679103699
 20
152.4105963249469
 30
0.0
 10
105.3412192241325
 20
152.3976424234083
 30
0.0
 10
105.3702808319231
 20
152.383661265588
 30
0.0
 10
105.3987573283048
 20
152.3699615971813
 30
0.0
 10
105.4267636391831
 20
152.3552756205826
 30
0.0
 10
105.4540306906217
 20
152.3393231049
 30
0.0
 10
105.4810303105539
 20
152.3235270493061
 30
0.0
 10
105.5073051010455
 20
152.3064891768786
 30
0.0
 10
105.5328540867424
 20
152.2884163285279
 30
0.0
 10
105.5580306216166
 20
152.2706069445403
 30
0.0
 10
105.5825023588865
 20
152.2517925402533
 30
0.0
 10
105.6059299444976
 20
152.231762012427
 30
0.0
 10
105.6293307284786
 20
152.2117543999294
 30
0.0
 10
105.651689748495
 20
152.190533444841
 30
0.0
 10
105.6732582616407
 20
152.1685390802626
 30
0.0
 10
105.6949788023105
 20
152.1463896865092
 30
0.0
 10
105.7158976529233
 20
152.1234559419537
 30
0.0
 10
105.7356601175463
 20
152.0995686076934
 30
0.0
 10
105.7553392412543
 20
152.0757820094671
 30
0.0
 10
105.7738717116706
 20
152.0510498474042
 30
0.0
 10
105.7914933557337
 20
152.0256716740606
 30
0.0
 10
105.809046312974
 20
152.0003924214576
 30
0.0
 10
105.8256955305827
 20
151.9744721838905
 30
0.0
 10
105.840757978855
 20
151.9476693538506
 30
0.0
 10
105.8557456747823
 20
151.9209995416566
 30
0.0
 10
105.8691623120189
 20
151.8934558755612
 30
0.0
 10
105.8818118308556
 20
151.8655616502476
 30
0.0
 10
105.8943969263108
 20
151.8378094888607
 30
0.0
 10
105.9062226972605
 20
151.8097103299239
 30
0.0
 10
105.9162970671799
 20
151.7809907141226
 30
0.0
 10
105.9265857407707
 20
151.7516601698821
 30
0.0
 10
105.935047708626
 20
151.7216824910944
 30
0.0
 10
105.9425715329545
 20
151.6914933154896
 30
0.0
 10
105.9502225456851
 20
151.6607937992861
 30
0.0
 10
105.9569034286233
 20
151.6298755752227
 30
0.0
 10
105.9622773818361
 20
151.598711610501
 30
0.0
 10
105.9678108507123
 20
151.5666226022799
 30
0.0
 10
105.9719586508588
 20
151.5342730481874
 30
0.0
 10
105.9745935375264
 20
151.5018245186866
 30
0.0
 10
105.9772992614376
 20
151.4685036312098
 30
0.0
 10
105.978409630959
 20
151.4350783750072
 30
0.0
 10
105.9795199999574
 20
151.4016531190081
 30
0.0
 10
105.9780941399555
 20
151.3629976320079
 30
0.0
 10
105.976668280875
 20
151.3243421455481
 30
0.0
 10
105.972951383452
 20
151.2858812555848
 30
0.0
 10
105.9693856195824
 20
151.2489842320108
 30
0.0
 10
105.9637113423098
 20
151.2122663016077
 30
0.0
 10
105.9565298423791
 20
151.1758569312277
 30
0.0
 10
105.9496004178773
 20
151.1407255539919
 30
0.0
 10
105.9412677227712
 20
151.1058814556172
 30
0.0
 10
105.9310764537523
 20
151.0715801466299
 30
0.0
 10
105.9212386771522
 20
151.0384686063187
 30
0.0
 10
105.9096690228597
 20
151.0058628542466
 30
0.0
 10
105.8965912179049
 20
150.9738719786761
 30
0.0
 10
105.8836566778255
 20
150.9422315570857
 30
0.0
 10
105.8692468491026
 20
150.9111926140748
 30
0.0
 10
105.8530741338575
 20
150.8810902713828
 30
0.0
 10
105.8369622668517
 20
150.8511011857748
 30
0.0
 10
105.8191007537401
 20
150.8220416660125
 30
0.0
 10
105.7997041265631
 20
150.7940561053177
 30
0.0
 10
105.7803583751675
 20
150.766143948481
 30
0.0
 10
105.7594855521046
 20
150.7393001242844
 30
0.0
 10
105.7373022711907
 20
150.7135905545913
 30
0.0
 10
105.7145296865608
 20
150.6871980045473
 30
0.0
 10
105.6903760940742
 20
150.6620007729013
 30
0.0
 10
105.6650474915935
 20
150.6380514667597
 30
0.0
 10
105.6396486636438
 20
150.61403575935
 30
0.0
 10
105.6130683010595
 20
150.5912749069749
 30
0.0
 10
105.5854030173817
 20
150.5699020710046
 30
0.0
 10
105.5579918235301
 20
150.5487255323229
 30
0.0
 10
105.5295155458293
 20
150.5289116308554
 30
0.0
 10
105.5000110055295
 20
150.5107845245068
 30
0.0
 10
105.4702631336702
 20
150.492507919233
 30
0.0
 10
105.4394699685785
 20
150.4759460466787
 30
0.0
 10
105.4080503760252
 20
150.4606988244666
 30
0.0
 10
105.3763806539491
 20
150.4453302200182
 30
0.0
 10
105.3440744908058
 20
150.4312972809375
 30
0.0
 10
105.3111632836657
 20
150.418823894835
 30
0.0
 10
105.2769964267441
 20
150.4058746159926
 30
0.0
 10
105.2421774770425
 20
150.3946061624118
 30
0.0
 10
105.2068865001113
 20
150.3851597367681
 30
0.0
 10
105.1708892410172
 20
150.3755242587792
 30
0.0
 10
105.1344008721697
 20
150.3677844673824
 30
0.0
 10
105.0976832531337
 20
150.3613485025174
 30
0.0
 10
105.0593069163126
 20
150.3546217930536
 30
0.0
 10
105.0206801487083
 20
150.3493193716242
 30
0.0
 10
104.9819113885265
 20
150.3457480382137
 30
0.0
 10
104.941681917222
 20
150.3420421457817
 30
0.0
 10
104.9012995519097
 20
150.3402002450562
 30
0.0
 10
104.8609171869093
 20
150.3383583450577
 30
0.0
 10
104.8609171869093
 20
150.3383583450577
 30
0.0
 10
104.4917283929094
 20
150.3383583450744
 30
0.0
 10
104.4917283929094
 20
150.3383583450744
 30
0.0
 10
104.4500817369099
 20
150.3393025430765
 30
0.0
 10
104.4084350812242
 20
150.3402467416163
 30
0.0
 10
104.366924681718
 20
150.3432848068792
 30
0.0
 10
104.3254277384128
 20
150.3463218873092
 30
0.0
 10
104.2840669629629
 20
150.3514514771673
 30
0.0
 10
104.2429420476931
 20
150.3580641939888
 30
0.0
 10
104.2034825115167
 20
150.3644091247175
 30
0.0
 10
104.1642401196961
 20
150.3721194942788
 30
0.0
 10
104.1255280300651
 20
150.3818754283678
 30
0.0
 10
104.0899226488523
 20
150.3908484328115
 30
0.0
 10
104.0547658699124
 20
150.4015518560941
 30
0.0
 10
104.0196090919127
 20
150.4122552790958
 30
0.0
 10
103.9752906179143
 20
150.4333093150977
 30
0.0
 10
103.9309721442952
 20
150.4543633513903
 30
0.0
 10
103.8890578411495
 20
150.4795835968799
 30
0.0
 10
103.8479581790893
 20
150.5043136648732
 30
0.0
 10
103.809170141379
 20
150.5330495680325
 30
0.0
 10
103.7724649010839
 20
150.5641545326238
 30
0.0
 10
103.7356215584991
 20
150.5953765286469
 30
0.0
 10
103.7008767157312
 20
150.6289854466738
 30
0.0
 10
103.6690091926323
 20
150.6651470095638
 30
0.0
 10
103.6365772563746
 20
150.7019490383562
 30
0.0
 10
103.6071254641292
 20
150.7413949337262
 30
0.0
 10
103.5803328722951
 20
150.7825610270197
 30
0.0
 10
103.5532932087069
 20
150.8241067393871
 30
0.0
 10
103.5289620160658
 20
150.8674045220685
 30
0.0
 10
103.508078092216
 20
150.9122912001455
 30
0.0
 10
103.4876832363702
 20
150.9561267042079
 30
0.0
 10
103.4705760808574
 20
151.0014775562868
 30
0.0
 10
103.4563502381862
 20
151.0477689120236
 30
0.0
 10
103.4419697251604
 20
151.0945635701358
 30
0.0
 10
103.4305335196775
 20
151.1423192943205
 30
0.0
 10
103.4235071563367
 20
151.1906363191517
 30
0.0
 10
103.4163595023954
 20
151.2397874028921
 30
0.0
 10
103.4137752519516
 20
151.2895193331224
 30
0.0
 10
103.4111910009544
 20
151.3392512641228
 30
0.0
  0
ENDBLK
  5
54
330
51
100
AcDbEntity
  8
0
100
AcDbBlockEnd
  0
BLOCK
  5
58
330
56
100
AcDbEntity
  8
0
100
AcDbBlockBegin
  2
block 5
 70
     0
 10
0.0
 20
0.0
 30
0.0
  3
block 5
  1

  0
SPLINE
  5
5A
330
56
100
AcDbEntity
  8
0
 62
     7
420
 16777215
370
     5
100
AcDbSpline
210
0.0
220
0.0
230
1.0
 70
    11
 71
     3
 72
   209
 73
   205
 74
     0
 42
0.0000000001
 43
0.0000000001
 12
1.0
 22
0.0
 32
0.0
 13
1.0
 23
0.0
 33
0.0
 40
0.0
 40
0.0
 40
0.0
 40
0.0
 40
1.0
 40
1.0
 40
1.0
 40
2.0
 40
2.0
 40
2.0
 40
3.0
 40
3.0
 40
3.0
 40
4.0
 40
4.0
 40
4.0
 40
5.0
 40
5.0
 40
5.0
 40
6.0
 40
6.0
 40
6.0
 40
7.0
 40
7.0
 40
7.0
 40
8.0
 40
8.0
 40
8.0
 40
9.0
 40
9.0
 40
9.0
 40
10.0
 40
10.0
 40
10.0
 40
11.0
 40
11.0
 40
11.0
 40
12.0
 40
12.0
 40
12.0
 40
13.0
 40
13.0
 40
13.0
 40
14.0
 40
14.0
 40
14.0
 40
15.0
 40
15.0
 40
15.0
 40
16.0
 40
16.0
 40
16.0
 40
17.0
 40
17.0
 40
17.0
 40
18.0
 40
18.0
 40
18.0
 40
19.0
 40
19.0
 40
19.0
 40
20.0
 40
20.0
 40
20.0
 40
21.0
 40
21.0
 40
21.0
 40
22.0
 40
22.0
 40
22.0
 40
23.0
 40
23.0
 40
23.0
 40
24.0
 40
24.0
 40
24.0
 40
25.0
 40
25.0
 40
25.0
 40
26.0
 40
26.0
 40
26.0
 40
27.0
 40
27.0
 40
27.0
 40
28.0
 40
28.0
 40
28.0
 40
29.0
 40
29.0
 40
29.0
 40
30.0
 40
30.0
 40
30.0
 40
31.0
 40
31.0
 40
31.0
 40
32.0
 40
32.0
 40
32.0
 40
33.0
 40
33.0
 40
33.0
 40
34.0
 40
34.0
 40
34.0
 40
35.0
 40
35.0
 40
35.0
 40
36.0
 40
36.0
 40
36.0
 40
37.0
 40
37.0
 40
37.0
 40
38.0
 40
38.0
 40
38.0
 40
39.0
 40
39.0
 40
39.0
 40
40.0
 40
40.0
 40
40.0
 40
41.0
 40
41.0
 40
41.0
 40
42.0
 40
42.0
 40
42.0
 40
43.0
 40
43.0
 40
43.0
 40
44.0
 40
44.0
 40
44.0
 40
45.0
 40
45.0
 40
45.0
 40
46.0
 40
46.0
 40
46.0
 40
47.0
 40
47.0
 40
47.0
 40
48.0
 40
48.0
 40
48.0
 40
49.0
 40
49.0
 40
49.0
 40
50.0
 40
50.0
 40
50.0
 40
51.0
 40
51.0
 40
51.0
 40
52.0
 40
52.0
 40
52.0
 40
53.0
 40
53.0
 40
53.0
 40
54.0
 40
54.0
 40
54.0
 40
55.0
 40
55.0
 40
55.0
 40
56.0
 40
56.0
 40
56.0
 40
57.0
 40
57.0
 40
57.0
 40
58.0
 40
58.0
 40
58.0
 40
59.0
 40
59.0
 40
59.0
 40
60.0
 40
60.0
 40
60.0
 40
61.0
 40
61.0
 40
61.0
 40
62.0
 40
62.0
 40
62.0
 40
63.0
 40
63.0
 40
63.0
 40
64.0
 40
64.0
 40
64.0
 40
65.0
 40
65.0
 40
65.0
 40
66.0
 40
66.0
 40
66.0
 40
67.0
 40
67.0
 40
67.0
 40
68.0
 40
68.0
 40
68.0
 40
68.0
 10
105.224950194871
 20
149.4751633600418
 30
0.0
 10
105.2514389528705
 20
149.4649726080405
 30
0.0
 10
105.2779277112588
 20
149.454781855488
 30
0.0
 10
105.3037735905694
 20
149.4431413558639
 30
0.0
 10
105.3292069577465
 20
149.4316866439732
 30
0.0
 10
105.3540178033719
 20
149.418828092968
 30
0.0
 10
105.378491602089
 20
149.4053718118555
 30
0.0
 10
105.4024899978033
 20
149.3921769187066
 30
0.0
 10
105.4261643136887
 20
149.3784072916961
 30
0.0
 10
105.4491042283775
 20
149.3634968818702
 30
0.0
 10
105.4716413320002
 20
149.348848289847
 30
0.0
 10
105.4934695992708
 20
149.3330986261833
 30
0.0
 10
105.5147903919846
 20
149.316695490242
 30
0.0
 10
105.53621698478
 20
149.3002109570863
 30
0.0
 10
105.5571310540433
 20
149.2830664501163
 30
0.0
 10
105.5771922472697
 20
149.2649676366261
 30
0.0
 10
105.5971667918081
 20
149.2469469958754
 30
0.0
 10
105.6162958119148
 20
149.2279802745194
 30
0.0
 10
105.6346676404055
 20
149.2083133202435
 30
0.0
 10
105.652954649547
 20
149.1887371646735
 30
0.0
 10
105.6704914425618
 20
149.168467226951
 30
0.0
 10
105.6872165713021
 20
149.1475536195917
 30
0.0
 10
105.7044485977663
 20
149.1260061719726
 30
0.0
 10
105.7208190152883
 20
149.1037754473727
 30
0.0
 10
105.7364811942623
 20
149.0810463787315
 30
0.0
 10
105.7521279516389
 20
149.0583396900257
 30
0.0
 10
105.7670678644995
 20
149.0351356381747
 30
0.0
 10
105.7808193548217
 20
149.0112548293439
 30
0.0
 10
105.7943789844927
 20
148.987707205312
 30
0.0
 10
105.8067831220065
 20
148.9635015767765
 30
0.0
 10
105.8185888983739
 20
148.9390000498859
 30
0.0
 10
105.830407240203
 20
148.9144724448314
 30
0.0
 10
105.8416259464777
 20
148.8896483112077
 30
0.0
 10
105.8514319804351
 20
148.8642820388514
 30
0.0
 10
105.8613210257404
 20
148.8387010325368
 30
0.0
 10
105.869773380009
 20
148.8125686698677
 30
0.0
 10
105.8777064457143
 20
148.7862797195193
 30
0.0
 10
105.8856537086489
 20
148.7599437217513
 30
0.0
 10
105.8930798226922
 20
148.7334505753357
 30
0.0
 10
105.8990544493357
 20
148.7066352454024
 30
0.0
 10
105.9051580185279
 20
148.6792411952934
 30
0.0
 10
105.9097467731565
 20
148.6515109050732
 30
0.0
 10
105.9138338358928
 20
148.6237064635963
 30
0.0
 10
105.9179649297981
 20
148.5956024764229
 30
0.0
 10
105.9215834638249
 20
148.5674227316804
 30
0.0
 10
105.9236867603955
 20
148.539135528901
 30
0.0
 10
105.9258585748931
 20
148.5099268295931
 30
0.0
 10
105.9264148218259
 20
148.4806035570097
 30
0.0
 10
105.9269710688253
 20
148.4512802840099
 30
0.0
 10
105.9258889258229
 20
148.41839572501
 30
0.0
 10
105.9248067823494
 20
148.3855111657163
 30
0.0
 10
105.9220446064155
 20
148.3527510390417
 30
0.0
 10
105.9193556310648
 20
148.320859090358
 30
0.0
 10
105.9150744886307
 20
148.2890850664905
 30
0.0
 10
105.9097284507681
 20
148.2575061014317
 30
0.0
 10
105.9045025550448
 20
148.2266368141805
 30
0.0
 10
105.8982590891181
 20
148.1959539170917
 30
0.0
 10
105.8908436785435
 20
148.1655454722007
 30
0.0
 10
105.8835564353966
 20
148.1356626047059
 30
0.0
 10
105.8751374091164
 20
148.1060447841723
 30
0.0
 10
105.865390290511
 20
148.0768691519078
 30
0.0
 10
105.8557241876677
 20
148.0479360206525
 30
0.0
 10
105.8447519783302
 20
148.0194377574853
 30
0.0
 10
105.8325472084806
 20
147.991477139181
 30
0.0
 10
105.8203498132013
 20
147.9635334157081
 30
0.0
 10
105.8069213464765
 20
147.9361266875659
 30
0.0
 10
105.7923144334469
 20
147.9093694343976
 30
0.0
 10
105.7777825082859
 20
147.8827495455967
 30
0.0
 10
105.7620842053996
 20
147.8567724804358
 30
0.0
 10
105.7455130414388
 20
147.8313671143378
 30
0.0
 10
105.7286640601547
 20
147.8055358245786
 30
0.0
 10
105.7109127052461
 20
147.7802955637599
 30
0.0
 10
105.6921430340354
 20
147.7558280269499
 30
0.0
 10
105.6734541534369
 20
147.7314658061713
 30
0.0
 10
105.6537557039818
 20
147.7078696716204
 30
0.0
 10
105.6330254865409
 20
147.6852154008565
 30
0.0
 10
105.6126375564172
 20
147.6629351864477
 30
0.0
 10
105.5912516491248
 20
147.6415659894083
 30
0.0
 10
105.5689814767707
 20
147.6211713910723
 30
0.0
 10
105.54706087553
 20
147.6010969232835
 30
0.0
 10
105.5242835516703
 20
147.5819666981089
 30
0.0
 10
105.5008320820562
 20
147.5636959980231
 30
0.0
 10
105.477456326936
 20
147.5454842860021
 30
0.0
 10
105.4534107720747
 20
147.5281265579704
 30
0.0
 10
105.4285773018802
 20
147.5119681442911
 30
0.0
 10
105.4035874320132
 20
147.4957079659129
 30
0.0
 10
105.3777996910764
 20
147.4806622558723
 30
0.0
 10
105.3513960593064
 20
147.4668089068084
 30
0.0
 10
105.3246078884219
 20
147.4527537993425
 30
0.0
 10
105.29718575656
 20
147.4399260365458
 30
0.0
 10
105.2692883551647
 20
147.4282182853999
 30
0.0
 10
105.2410085541617
 20
147.4163500519441
 30
0.0
 10
105.2122403649497
 20
147.4056327453762
 30
0.0
 10
105.1830752647915
 20
147.3961962804237
 30
0.0
 10
105.1532459046883
 20
147.3865448919602
 30
0.0
 10
105.1230013477767
 20
147.3782333540461
 30
0.0
 10
105.0927567897761
 20
147.3699218150476
 30
0.0
 10
105.0679204197757
 20
147.3648268120483
 30
0.0
 10
105.0430840489475
 20
147.3597318091979
 30
0.0
 10
105.018038779287
 20
147.3559635054523
 30
0.0
 10
104.9921952551627
 20
147.3520750965788
 30
0.0
 10
104.9661293037542
 20
147.3495993048813
 30
0.0
 10
104.9400364601144
 20
147.3477527347936
 30
0.0
 10
104.9102315431063
 20
147.345643464182
 30
0.0
 10
104.8803915379977
 20
147.3443551812488
 30
0.0
 10
104.8505390616427
 20
147.3436473497434
 30
0.0
 10
104.8125349587282
 20
147.3427462351735
 30
0.0
 10
104.7745106437749
 20
147.3427858530613
 30
0.0
 10
104.7364863287748
 20
147.3428254710633
 30
0.0
 10
104.7364863287748
 20
147.3428254710633
 30
0.0
 10
103.9309327707747
 20
147.3428254710993
 30
0.0
 10
103.9309327707747
 20
147.3428254710993
 30
0.0
 10
103.9309327707747
 20
147.3428254710993
 30
0.0
 10
103.9309327707176
 20
146.0611250040997
 30
0.0
 10
103.9309327707176
 20
146.0611250040997
 30
0.0
 10
103.9302734047167
 20
146.0362100150992
 30
0.0
 10
103.929614039618
 20
146.0112950260987
 30
0.0
 10
103.9276484620952
 20
145.9864069928881
 30
0.0
 10
103.9259913755341
 20
145.9654250550562
 30
0.0
 10
103.9234059130957
 20
145.944462275751
 30
0.0
 10
103.9186166147513
 20
145.924005137723
 30
0.0
 10
103.9144749435237
 20
145.9063142916149
 30
0.0
 10
103.9086851603281
 20
145.8890015832075
 30
0.0
 10
103.9013739965818
 20
145.8722772843278
 30
0.0
 10
103.8951607021029
 20
145.8580643631677
 30
0.0
 10
103.8878486327669
 20
145.84427640445
 30
0.0
 10
103.8783838392839
 20
145.8320445086569
 30
0.0
 10
103.8696051090319
 20
145.8206992517494
 30
0.0
 10
103.8589744277154
 20
145.8106926486547
 30
0.0
 10
103.8471829119291
 20
145.8024857346406
 30
0.0
 10
103.8347912711979
 20
145.7938611326948
 30
0.0
 10
103.8211176286249
 20
145.7872240705549
 30
0.0
 10
103.8069501369064
 20
145.7819588086669
 30
0.0
 10
103.7912713948113
 20
145.7761318997934
 30
0.0
 10
103.7749878262246
 20
145.7719850609198
 30
0.0
 10
103.7585065909971
 20
145.7696426530619
 30
0.0
 10
103.7392542507642
 20
145.7669063998364
 30
0.0
 10
103.7197321857042
 20
145.7666323721091
 30
0.0
 10
103.7002101207045
 20
145.7663583451095
 30
0.0
 10
103.6820879947043
 20
145.7668118611109
 30
0.0
 10
103.6639658693576
 20
145.7672653773778
 30
0.0
 10
103.6460190359292
 20
145.7696426529618
 30
0.0
 10
103.6298243415458
 20
145.771787836495
 30
0.0
 10
103.6137723825777
 20
145.7754994846298
 30
0.0
 10
103.5983965671537
 20
145.7811377317834
 30
0.0
 10
103.5842207658253
 20
145.7863359387925
 30
0.0
 10
103.5706196865059
 20
145.7931717549534
 30
0.0
 10
103.5581637918733
 20
145.801664658196
 30
0.0
 10
103.5461286922155
 20
145.8098706473999
 30
0.0
 10
103.5351627091317
 20
145.8196236528027
 30
0.0
 10
103.5253207096385
 20
145.830402354682
 30
0.0
 10
103.5152462916411
 20
145.8414355952612
 30
0.0
 10
103.5063495697166
 20
145.853543547891
 30
0.0
 10
103.4990462442143
 20
145.8665297442824
 30
0.0
 10
103.4910435998804
 20
145.8807594141673
 30
0.0
 10
103.4849541078929
 20
145.8960435699852
 30
0.0
 10
103.4801614722508
 20
145.9116889821834
 30
0.0
 10
103.4747375078975
 20
145.9293953476134
 30
0.0
 10
103.4709745705693
 20
145.9475644139538
 30
0.0
 10
103.4686663937796
 20
145.9658800673354
 30
0.0
 10
103.46607885699
 20
145.986412475059
 30
0.0
 10
103.465319531715
 20
146.0071291001207
 30
0.0
 10
103.4645602067159
 20
146.0278457251207
 30
0.0
 10
103.4645602067159
 20
146.0278457251207
 30
0.0
 10
103.4637399318581
 20
149.2001025501206
 30
0.0
 10
103.4637399318581
 20
149.2001025501206
 30
0.0
 10
103.4633359798595
 20
149.2307919781206
 30
0.0
 10
103.4629320284347
 20
149.2614814057811
 30
0.0
 10
103.4653820855307
 20
149.2920631798386
 30
0.0
 10
103.4674460675543
 20
149.3178259394125
 30
0.0
 10
103.4715354676274
 20
149.3435122999319
 30
0.0
 10
103.4785193179826
 20
149.3684233447331
 30
0.0
 10
103.4844288367937
 20
149.3895023026676
 30
0.0
 10
103.4924107885275
 20
149.4100261328008
 30
0.0
 10
103.5031516294121
 20
149.429183046232
 30
0.0
 10
103.5126488539968
 20
149.4461218977765
 30
0.0
 10
103.5243030833321
 20
149.4619920417138
 30
0.0
 10
103.5384579425319
 20
149.475163360663
 30
0.0
 10
103.5530820577846
 20
149.4887713297439
 30
0.0
 10
103.5703753508637
 20
149.499498567087
 30
0.0
 10
103.5885436421915
 20
149.5080064424829
 30
0.0
 10
103.6100458482289
 20
149.5180755285857
 30
0.0
 10
103.6327736438214
 20
149.5250360063837
 30
0.0
 10
103.655871960337
 20
149.5301755227318
 30
0.0
 10
103.6834185410762
 20
149.5363048050092
 30
0.0
 10
103.7114920937405
 20
149.5398442320244
 30
0.0
 10
103.7396218191062
 20
149.5416706012428
 30
0.0
 10
103.7733771848741
 20
149.5438622245233
 30
0.0
 10
103.8072134378738
 20
149.5435870891054
 30
0.0
 10
103.8410496908734
 20
149.5433119531035
 30
0.0
 10
103.8410496908734
 20
149.5433119531035
 30
0.0
 10
104.7651470488736
 20
149.5424916780621
 30
0.0
 10
104.7651470488736
 20
149.5424916780621
 30
0.0
 10
104.8105954808739
 20
149.5419857950601
 30
0.0
 10
104.8560439120997
 20
149.5414799117321
 30
0.0
 10
104.9014458386466
 20
149.5392073698479
 30
0.0
 10
104.9398901863119
 20
149.5372830816754
 30
0.0
 10
104.9783011903313
 20
149.5340921072716
 30
0.0
 10
105.0163966246435
 20
149.5285333682185
 30
0.0
 10
105.0515202906025
 20
149.5234082581582
 30
0.0
 10
105.0863757007567
 20
149.5162703864416
 30
0.0
 10
105.1206734099549
 20
149.5071853649872
 30
0.0
 10
105.1558228337326
 20
149.4978747353105
 30
0.0
 10
105.1903865138712
 20
149.4865190480432
 30
0.0
 10
105.224950194871
 20
149.4751633600418
 30
0.0
  0
ENDBLK
  5
59
330
56
100
AcDbEntity
  8
0
100
AcDbBlockEnd
  0
BLOCK
  5
5D
330
5B
100
AcDbEntity
  8
0
100
AcDbBlockBegin
  2
block 6
 70
     0
 10
0.0
 20
0.0
 30
0.0
  3
block 6
  1

  0
SPLINE
  5
5F
330
5B
100
AcDbEntity
  8
0
 62
     7
420
 16777215
370
     5
100
AcDbSpline
210
0.0
220
0.0
230
1.0
 70
    11
 71
     3
 72
   110
 73
   106
 74
     0
 42
0.0000000001
 43
0.0000000001
 12
1.0
 22
0.0
 32
0.0
 13
1.0
 23
0.0
 33
0.0
 40
0.0
 40
0.0
 40
0.0
 40
0.0
 40
1.0
 40
1.0
 40
1.0
 40
2.0
 40
2.0
 40
2.0
 40
3.0
 40
3.0
 40
3.0
 40
4.0
 40
4.0
 40
4.0
 40
5.0
 40
5.0
 40
5.0
 40
6.0
 40
6.0
 40
6.0
 40
7.0
 40
7.0
 40
7.0
 40
8.0
 40
8.0
 40
8.0
 40
9.0
 40
9.0
 40
9.0
 40
10.0
 40
10.0
 40
10.0
 40
11.0
 40
11.0
 40
11.0
 40
12.0
 40
12.0
 40
12.0
 40
13.0
 40
13.0
 40
13.0
 40
14.0
 40
14.0
 40
14.0
 40
15.0
 40
15.0
 40
15.0
 40
16.0
 40
16.0
 40
16.0
 40
17.0
 40
17.0
 40
17.0
 40
18.0
 40
18.0
 40
18.0
 40
19.0
 40
19.0
 40
19.0
 40
20.0
 40
20.0
 40
20.0
 40
21.0
 40
21.0
 40
21.0
 40
22.0
 40
22.0
 40
22.0
 40
23.0
 40
23.0
 40
23.0
 40
24.0
 40
24.0
 40
24.0
 40
25.0
 40
25.0
 40
25.0
 40
26.0
 40
26.0
 40
26.0
 40
27.0
 40
27.0
 40
27.0
 40
28.0
 40
28.0
 40
28.0
 40
29.0
 40
29.0
 40
29.0
 40
30.0
 40
30.0
 40
30.0
 40
31.0
 40
31.0
 40
31.0
 40
32.0
 40
32.0
 40
32.0
 40
33.0
 40
33.0
 40
33.0
 40
34.0
 40
34.0
 40
34.0
 40
35.0
 40
35.0
 40
35.0
 40
35.0
 10
105.4605993068249
 20
148.4512802840305
 30
0.0
 10
105.4595484068262
 20
148.4748343630304
 30
0.0
 10
105.4584975069089
 20
148.4983884423743
 30
0.0
 10
105.456493921604
 20
148.5218929106372
 30
0.0
 10
105.4545696634033
 20
148.544466776444
 30
0.0
 10
105.4517666649488
 20
148.5669948818619
 30
0.0
 10
105.4474620740586
 20
148.5892212283463
 30
0.0
 10
105.4433861769132
 20
148.6102667363919
 30
0.0
 10
105.4379640017952
 20
148.631041697386
 30
0.0
 10
105.4318616099622
 20
148.6516230833253
 30
0.0
 10
105.4259245324092
 20
148.6716469178803
 30
0.0
 10
105.4193435931974
 20
148.691487523247
 30
0.0
 10
105.4113346837549
 20
148.7107406309827
 30
0.0
 10
105.4034866304417
 20
148.7296070468204
 30
0.0
 10
105.3942673914242
 20
148.7479093274013
 30
0.0
 10
105.3842391416211
 20
148.7657527925876
 30
0.0
 10
105.3742189851689
 20
148.7835818571144
 30
0.0
 10
105.3633911232382
 20
148.8009528465267
 30
0.0
 10
105.3513960592788
 20
148.8174806470139
 30
0.0
 10
105.3395211386208
 20
148.83384290403
 30
0.0
 10
105.326502280374
 20
148.8493787783954
 30
0.0
 10
105.3128054386834
 20
148.8642820378503
 30
0.0
 10
105.2987775785422
 20
148.8795454718587
 30
0.0
 10
105.2840385686358
 20
148.894145344022
 30
0.0
 10
105.26846727761
 20
148.9077991222937
 30
0.0
 10
105.2527821681381
 20
148.9215527029431
 30
0.0
 10
105.2362525659512
 20
148.9343463081945
 30
0.0
 10
105.2192026552748
 20
148.9463897432093
 30
0.0
 10
105.2017022892319
 20
148.9587513634659
 30
0.0
 10
105.1836537586194
 20
148.9703226511533
 30
0.0
 10
105.1650115706067
 20
148.9808749790164
 30
0.0
 10
105.1461483269549
 20
148.9915524344433
 30
0.0
 10
105.1266772634684
 20
149.0011866214948
 30
0.0
 10
105.1067151000824
 20
149.0096126757533
 30
0.0
 10
105.08605317741
 20
149.0183340992856
 30
0.0
 10
105.0648651210653
 20
149.0257612050158
 30
0.0
 10
105.0434921671553
 20
149.0326028330423
 30
0.0
 10
105.021276208536
 20
149.0397143126136
 30
0.0
 10
104.9988604790254
 20
149.0461932181258
 30
0.0
 10
104.9761638499833
 20
149.0514876050051
 30
0.0
 10
104.9525892300296
 20
149.0569867986675
 30
0.0
 10
104.9287115576985
 20
149.0612080578794
 30
0.0
 10
104.9047301470834
 20
149.0646248375424
 30
0.0
 10
104.879372335948
 20
149.0682377214867
 30
0.0
 10
104.8538985367922
 20
149.0709511304591
 30
0.0
 10
104.8283699811532
 20
149.0728356081934
 30
0.0
 10
104.8016181529201
 20
149.0748103859811
 30
0.0
 10
104.7748061948529
 20
149.0758748880616
 30
0.0
 10
104.7479942358532
 20
149.0769393900625
 30
0.0
 10
104.7479942358532
 20
149.0769393900625
 30
0.0
 10
103.9309327708533
 20
149.0769393900997
 30
0.0
 10
103.9309327708533
 20
149.0769393900997
 30
0.0
 10
103.9309327708533
 20
149.0769393900997
 30
0.0
 10
103.9309327707959
 20
147.8091980350996
 30
0.0
 10
103.9309327707959
 20
147.8091980350996
 30
0.0
 10
103.9309327707959
 20
147.8091980350996
 30
0.0
 10
104.782389666796
 20
147.8091980350618
 30
0.0
 10
104.782389666796
 20
147.8091980350618
 30
0.0
 10
104.807323961796
 20
147.8098557590601
 30
0.0
 10
104.8322582560034
 20
147.8105134831623
 30
0.0
 10
104.8571076784433
 20
147.8124823425797
 30
0.0
 10
104.880760231308
 20
147.8143563721096
 30
0.0
 10
104.9043358911927
 20
147.8174182772368
 30
0.0
 10
104.9277203039412
 20
147.8215141899968
 30
0.0
 10
104.9503634696257
 20
147.8254802691211
 30
0.0
 10
104.9728273204456
 20
147.8304158421827
 30
0.0
 10
104.9950486213237
 20
147.8362935771366
 30
0.0
 10
105.0163967683828
 20
147.8419403550134
 30
0.0
 10
105.0375210523041
 20
147.8484567076925
 30
0.0
 10
105.0582715545036
 20
147.8559994264597
 30
0.0
 10
105.0783393450571
 20
147.8632939824641
 30
0.0
 10
105.0980575448417
 20
147.871548478691
 30
0.0
 10
105.1173891017696
 20
147.8806317379668
 30
0.0
 10
105.1364583286312
 20
147.8895917370209
 30
0.0
 10
105.1551513349586
 20
147.8993581590358
 30
0.0
 10
105.1732223407931
 20
147.9101905116405
 30
0.0
 10
105.1911369908769
 20
147.920929139488
 30
0.0
 10
105.2084403573713
 20
147.9327153322222
 30
0.0
 10
105.2249501941485
 20
147.9454968243727
 30
0.0
 10
105.241525170012
 20
147.9583287455332
 30
0.0
 10
105.2573003421071
 20
147.9721638354526
 30
0.0
 10
105.2725726632192
 20
147.9865506768629
 30
0.0
 10
105.2878058678677
 20
148.000900669757
 30
0.0
 10
105.302538794104
 20
148.0157995913977
 30
0.0
 10
105.3160897470202
 20
148.03170991418
 30
0.0
 10
105.3293957582839
 20
148.0473326482748
 30
0.0
 10
105.3415621398072
 20
148.0639305505909
 30
0.0
 10
105.3530382137876
 20
148.080974536591
 30
0.0
 10
105.3645061242963
 20
148.0980063983987
 30
0.0
 10
105.3752847090097
 20
148.1154837094759
 30
0.0
 10
105.3850602184565
 20
148.1335234679952
 30
0.0
 10
105.3948626658585
 20
148.1516129379091
 30
0.0
 10
105.4036565021126
 20
148.1702679593623
 30
0.0
 10
105.4113346835855
 20
148.1893567064175
 30
0.0
 10
105.4192181178698
 20
148.2089557330236
 30
0.0
 10
105.4259254528591
 20
148.2290119838385
 30
0.0
 10
105.4318616098441
 20
148.2492953310277
 30
0.0
 10
105.4380376828288
 20
148.2703984509331
 30
0.0
 10
105.44337898219
 20
148.2917473948406
 30
0.0
 10
105.447462073843
 20
148.3133393407655
 30
0.0
 10
105.4516699640081
 20
148.3355912382595
 30
0.0
 10
105.4545415575372
 20
148.3581012193552
 30
0.0
 10
105.4564939214378
 20
148.3806676587893
 30
0.0
 10
105.4585267710725
 20
148.4041643942848
 30
0.0
 10
105.4595630388233
 20
148.4277223390312
 30
0.0
 10
105.4605993068249
 20
148.4512802840305
 30
0.0
  0
HATCH
  5
60
330
5B
100
AcDbEntity
  8
0
 62
     7
420
 16777215
100
AcDbHatch
 10
0.0
 20
0.0
 30
0.0
210
0.0
220
0.0
230
1.0
  2
SOLID
 70
     1
 71
     0
 91
        1
 92
        1
 93
        1
 72
     4
 94
        3
 73
     0
 74
     1
 95
      110
 96
      106
 40
0.0
 40
0.0
 40
0.0
 40
0.0
 40
1.0
 40
1.0
 40
1.0
 40
2.0
 40
2.0
 40
2.0
 40
3.0
 40
3.0
 40
3.0
 40
4.0
 40
4.0
 40
4.0
 40
5.0
 40
5.0
 40
5.0
 40
6.0
 40
6.0
 40
6.0
 40
7.0
 40
7.0
 40
7.0
 40
8.0
 40
8.0
 40
8.0
 40
9.0
 40
9.0
 40
9.0
 40
10.0
 40
10.0
 40
10.0
 40
11.0
 40
11.0
 40
11.0
 40
12.0
 40
12.0
 40
12.0
 40
13.0
 40
13.0
 40
13.0
 40
14.0
 40
14.0
 40
14.0
 40
15.0
 40
15.0
 40
15.0
 40
16.0
 40
16.0
 40
16.0
 40
17.0
 40
17.0
 40
17.0
 40
18.0
 40
18.0
 40
18.0
 40
19.0
 40
19.0
 40
19.0
 40
20.0
 40
20.0
 40
20.0
 40
21.0
 40
21.0
 40
21.0
 40
22.0
 40
22.0
 40
22.0
 40
23.0
 40
23.0
 40
23.0
 40
24.0
 40
24.0
 40
24.0
 40
25.0
 40
25.0
 40
25.0
 40
26.0
 40
26.0
 40
26.0
 40
27.0
 40
27.0
 40
27.0
 40
28.0
 40
28.0
 40
28.0
 40
29.0
 40
29.0
 40
29.0
 40
30.0
 40
30.0
 40
30.0
 40
31.0
 40
31.0
 40
31.0
 40
32.0
 40
32.0
 40
32.0
 40
33.0
 40
33.0
 40
33.0
 40
34.0
 40
34.0
 40
34.0
 40
35.0
 40
35.0
 40
35.0
 40
35.0
 10
105.4605993068249
 20
148.4512802840305
 10
105.4595484068262
 20
148.4748343630304
 10
105.4584975069089
 20
148.4983884423743
 10
105.456493921604
 20
148.5218929106372
 10
105.4545696634033
 20
148.544466776444
 10
105.4517666649488
 20
148.5669948818619
 10
105.4474620740586
 20
148.5892212283463
 10
105.4433861769132
 20
148.6102667363919
 10
105.4379640017952
 20
148.631041697386
 10
105.4318616099622
 20
148.6516230833253
 10
105.4259245324092
 20
148.6716469178803
 10
105.4193435931974
 20
148.691487523247
 10
105.4113346837549
 20
148.7107406309827
 10
105.4034866304417
 20
148.7296070468204
 10
105.3942673914242
 20
148.7479093274013
 10
105.3842391416211
 20
148.7657527925876
 10
105.3742189851689
 20
148.7835818571144
 10
105.3633911232382
 20
148.8009528465267
 10
105.3513960592788
 20
148.8174806470139
 10
105.3395211386208
 20
148.83384290403
 10
105.326502280374
 20
148.8493787783954
 10
105.3128054386834
 20
148.8642820378503
 10
105.2987775785422
 20
148.8795454718587
 10
105.2840385686358
 20
148.894145344022
 10
105.26846727761
 20
148.9077991222937
 10
105.2527821681381
 20
148.9215527029431
 10
105.2362525659512
 20
148.9343463081945
 10
105.2192026552748
 20
148.9463897432093
 10
105.2017022892319
 20
148.9587513634659
 10
105.1836537586194
 20
148.9703226511533
 10
105.1650115706067
 20
148.9808749790164
 10
105.1461483269549
 20
148.9915524344433
 10
105.1266772634684
 20
149.0011866214948
 10
105.1067151000824
 20
149.0096126757533
 10
105.08605317741
 20
149.0183340992856
 10
105.0648651210653
 20
149.0257612050158
 10
105.0434921671553
 20
149.0326028330423
 10
105.021276208536
 20
149.0397143126136
 10
104.9988604790254
 20
149.0461932181258
 10
104.9761638499833
 20
149.0514876050051
 10
104.9525892300296
 20
149.0569867986675
 10
104.9287115576985
 20
149.0612080578794
 10
104.9047301470834
 20
149.0646248375424
 10
104.879372335948
 20
149.0682377214867
 10
104.8538985367922
 20
149.0709511304591
 10
104.8283699811532
 20
149.0728356081934
 10
104.8016181529201
 20
149.0748103859811
 10
104.7748061948529
 20
149.0758748880616
 10
104.7479942358532
 20
149.0769393900625
 10
104.7479942358532
 20
149.0769393900625
 10
103.9309327708533
 20
149.0769393900997
 10
103.9309327708533
 20
149.0769393900997
 10
103.9309327708533
 20
149.0769393900997
 10
103.9309327707959
 20
147.8091980350996
 10
103.9309327707959
 20
147.8091980350996
 10
103.9309327707959
 20
147.8091980350996
 10
104.782389666796
 20
147.8091980350618
 10
104.782389666796
 20
147.8091980350618
 10
104.807323961796
 20
147.8098557590601
 10
104.8322582560034
 20
147.8105134831623
 10
104.8571076784433
 20
147.8124823425797
 10
104.880760231308
 20
147.8143563721096
 10
104.9043358911927
 20
147.8174182772368
 10
104.9277203039412
 20
147.8215141899968
 10
104.9503634696257
 20
147.8254802691211
 10
104.9728273204456
 20
147.8304158421827
 10
104.9950486213237
 20
147.8362935771366
 10
105.0163967683828
 20
147.8419403550134
 10
105.0375210523041
 20
147.8484567076925
 10
105.0582715545036
 20
147.8559994264597
 10
105.0783393450571
 20
147.8632939824641
 10
105.0980575448417
 20
147.871548478691
 10
105.1173891017696
 20
147.8806317379668
 10
105.1364583286312
 20
147.8895917370209
 10
105.1551513349586
 20
147.8993581590358
 10
105.1732223407931
 20
147.9101905116405
 10
105.1911369908769
 20
147.920929139488
 10
105.2084403573713
 20
147.9327153322222
 10
105.2249501941485
 20
147.9454968243727
 10
105.241525170012
 20
147.9583287455332
 10
105.2573003421071
 20
147.9721638354526
 10
105.2725726632192
 20
147.9865506768629
 10
105.2878058678677
 20
148.000900669757
 10
105.302538794104
 20
148.0157995913977
 10
105.3160897470202
 20
148.03170991418
 10
105.3293957582839
 20
148.0473326482748
 10
105.3415621398072
 20
148.0639305505909
 10
105.3530382137876
 20
148.080974536591
 10
105.3645061242963
 20
148.0980063983987
 10
105.3752847090097
 20
148.1154837094759
 10
105.3850602184565
 20
148.1335234679952
 10
105.3948626658585
 20
148.1516129379091
 10
105.4036565021126
 20
148.1702679593623
 10
105.4113346835855
 20
148.1893567064175
 10
105.4192181178698
 20
148.2089557330236
 10
105.4259254528591
 20
148.2290119838385
 10
105.4318616098441
 20
148.2492953310277
 10
105.4380376828288
 20
148.2703984509331
 10
105.44337898219
 20
148.2917473948406
 10
105.447462073843
 20
148.3133393407655
 10
105.4516699640081
 20
148.3355912382595
 10
105.4545415575372
 20
148.3581012193552
 10
105.4564939214378
 20
148.3806676587893
 10
105.4585267710725
 20
148.4041643942848
 10
105.4595630388233
 20
148.4277223390312
 10
105.4605993068249
 20
148.4512802840305
 97
        0
 97
        0
 75
     2
 76
     1
 98
        0
  0
ENDBLK
  5
5E
330
5B
100
AcDbEntity
  8
0
100
AcDbBlockEnd
  0
ENDSEC
  0
SECTION
  2
ENTITIES
  0
INSERT
  5
41
330
1F
100
AcDbEntity
  8
0
100
AcDbBlockReference
  2
block 2
 10
0.0
 20
0.0
 30
0.0
  0
INSERT
  5
4D
330
1F
100
AcDbEntity
  8
0
100
AcDbBlockReference
  2
block 3
 10
0.0
 20
0.0
 30
0.0
  0
INSERT
  5
52
330
1F
100
AcDbEntity
  8
0
100
AcDbBlockReference
  2
block 4
 10
0.0
 20
0.0
 30
0.0
  0
INSERT
  5
57
330
1F
100
AcDbEntity
  8
0
100
AcDbBlockReference
  2
block 5
 10
0.0
 20
0.0
 30
0.0
  0
INSERT
  5
5C
330
1F
100
AcDbEntity
  8
0
100
AcDbBlockReference
  2
block 6
 10
0.0
 20
0.0
 30
0.0
  0
ENDSEC
  0
SECTION
  2
OBJECTS
  0
DICTIONARY
  5
C
330
0
100
AcDbDictionary
281
     1
  3
ACAD_GROUP
350
D
  3
ACAD_LAYOUT
350
1A
  3
ACAD_MATERIAL
350
3B
  3
ACAD_MLEADERSTYLE
350
62
  3
ACAD_MLINESTYLE
350
17
  3
ACAD_PLOTSETTINGS
350
19
  3
ACAD_PLOTSTYLENAME
350
E
  3
ACAD_TABLESTYLE
350
61
  3
ACAD_VISUALSTYLE
350
2A
  0
SUN
  5
3F
330
29
100
AcDbSun
 90
        1
290
     0
 63
     7
421
 16777215
 40
1.0
291
     1
 91
  2455826
 92
 54000000
292
     0
 70
     2
 71
   256
280
     1
  0
DICTIONARY
  5
D
102
{ACAD_REACTORS
330
C
102
}
330
C
100
AcDbDictionary
281
     1
  0
DICTIONARY
  5
1A
102
{ACAD_REACTORS
330
C
102
}
330
C
100
AcDbDictionary
281
     1
  3
Layout1
350
1E
  3
Layout2
350
26
  3
Model
350
22
  0
DICTIONARY
  5
3B
102
{ACAD_REACTORS
330
C
102
}
330
C
100
AcDbDictionary
281
     1
  3
ByBlock
350
3D
  3
ByLayer
350
3C
  3
Global
350
3E
  0
DICTIONARY
  5
62
102
{ACAD_REACTORS
330
C
102
}
330
C
100
AcDbDictionary
281
     1
  0
DICTIONARY
  5
17
102
{ACAD_REACTORS
330
C
102
}
330
C
100
AcDbDictionary
281
     1
  3
Standard
350
18
  0
DICTIONARY
  5
19
102
{ACAD_REACTORS
330
C
102
}
330
C
100
AcDbDictionary
281
     1
  0
ACDBDICTIONARYWDFLT
  5
E
102
{ACAD_REACTORS
330
C
102
}
330
C
100
AcDbDictionary
281
     1
  3
Normal
350
F
100
AcDbDictionaryWithDefault
340
F
  0
DICTIONARY
  5
61
102
{ACAD_REACTORS
330
C
102
}
330
C
100
AcDbDictionary
281
     1
  0
DICTIONARY
  5
2A
102
{ACAD_REACTORS
330
C
102
}
330
C
100
AcDbDictionary
281
     1
  3
2dWireframe
350
2F
  3
3D Hidden
350
31
  3
3dWireframe
350
30
  3
Basic
350
32
  3
Brighten
350
36
  3
ColorChange
350
3A
  3
Conceptual
350
34
  3
Dim
350
35
  3
Facepattern
350
39
  3
Flat
350
2B
  3
FlatWithEdges
350
2C
  3
Gouraud
350
2D
  3
GouraudWithEdges
350
2E
  3
Linepattern
350
38
  3
Realistic
350
33
  3
Thicken
350
37
  0
LAYOUT
  5
1E
102
{ACAD_REACTORS
330
1A
102
}
330
1A
100
AcDbPlotSettings
  1

  2
none_device
  4

  6

 40
0.0
 41
0.0
 42
0.0
 43
0.0
 44
0.0
 45
0.0
 46
0.0
 47
0.0
 48
0.0
 49
0.0
140
0.0
141
0.0
142
1.0
143
1.0
 70
   688
 72
     0
 73
     0
 74
     5
  7

 75
    16
 76
     0
 77
     2
 78
   300
147
1.0
148
0.0
149
0.0
100
AcDbLayout
  1
Layout1
 70
     1
 71
     1
 10
0.0
 20
0.0
 11
12.0
 21
9.0
 12
0.0
 22
0.0
 32
0.0
 14
1.000000000000000E+20
 24
1.000000000000000E+20
 34
1.000000000000000E+20
 15
-1.000000000000000E+20
 25
-1.000000000000000E+20
 35
-1.000000000000000E+20
146
0.0
 13
0.0
 23
0.0
 33
0.0
 16
1.0
 26
0.0
 36
0.0
 17
0.0
 27
1.0
 37
0.0
 76
     0
330
1B
  0
LAYOUT
  5
26
102
{ACAD_REACTORS
330
1A
102
}
330
1A
100
AcDbPlotSettings
  1

  2
none_device
  4

  6

 40
0.0
 41
0.0
 42
0.0
 43
0.0
 44
0.0
 45
0.0
 46
0.0
 47
0.0
 48
0.0
 49
0.0
140
0.0
141
0.0
142
1.0
143
1.0
 70
   688
 72
     0
 73
     0
 74
     5
  7

 75
    16
 76
     0
 77
     2
 78
   300
147
1.0
148
0.0
149
0.0
100
AcDbLayout
  1
Layout2
 70
     1
 71
     2
 10
0.0
 20
0.0
 11
0.0
 21
0.0
 12
0.0
 22
0.0
 32
0.0
 14
0.0
 24
0.0
 34
0.0
 15
0.0
 25
0.0
 35
0.0
146
0.0
 13
0.0
 23
0.0
 33
0.0
 16
1.0
 26
0.0
 36
0.0
 17
0.0
 27
1.0
 37
0.0
 76
     0
330
23
  0
LAYOUT
  5
22
102
{ACAD_REACTORS
330
1A
102
}
330
1A
100
AcDbPlotSettings
  1

  2
none_device
  4

  6

 40
0.0
 41
0.0
 42
0.0
 43
0.0
 44
0.0
 45
0.0
 46
0.0
 47
0.0
 48
0.0
 49
0.0
140
0.0
141
0.0
142
1.0
143
1.0
 70
  1712
 72
     0
 73
     0
 74
     0
  7

 75
     0
 76
     0
 77
     2
 78
   300
147
1.0
148
0.0
149
0.0
100
AcDbLayout
  1
Model
 70
     1
 71
     0
 10
0.0
 20
0.0
 11
12.0
 21
9.0
 12
0.0
 22
0.0
 32
0.0
 14
1.000000000000000E+20
 24
1.000000000000000E+20
 34
1.000000000000000E+20
 15
-1.000000000000000E+20
 25
-1.000000000000000E+20
 35
-1.000000000000000E+20
146
0.0
 13
0.0
 23
0.0
 33
0.0
 16
1.0
 26
0.0
 36
0.0
 17
0.0
 27
1.0
 37
0.0
 76
     0
330
1F
331
29
  0
MATERIAL
  5
3D
102
{ACAD_REACTORS
330
3B
102
}
330
3B
100
AcDbMaterial
  1
ByBlock
 72
     1
 94
      127
  0
MATERIAL
  5
3C
102
{ACAD_REACTORS
330
3B
102
}
330
3B
100
AcDbMaterial
  1
ByLayer
 72
     1
 94
      127
  0
MATERIAL
  5
3E
102
{ACAD_REACTORS
330
3B
102
}
330
3B
100
AcDbMaterial
  1
Global
 72
     1
 94
      127
  0
MLINESTYLE
  5
18
102
{ACAD_REACTORS
330
17
102
}
330
17
100
AcDbMlineStyle
  2
Standard
 70
     0
  3

 62
   256
 51
90.0
 52
90.0
 71
     2
 49
0.5
 62
   256
  6
BYLAYER
 49
-0.5
 62
   256
  6
BYLAYER
  0
ACDBPLACEHOLDER
  5
F
102
{ACAD_REACTORS
330
E
102
}
330
E
  0
VISUALSTYLE
  5
2F
102
{ACAD_REACTORS
330
2A
102
}
330
2A
100
AcDbVisualStyle
  2
2dWireframe
 70
     4
177
     2
291
     0
 71
     0
176
     1
 72
     2
176
     1
 73
     0
176
     1
 90
        0
176
     1
 40
-0.6
176
     1
 41
-30.0
176
     1
 62
     5
 63
     7
421
 16777215
176
     1
 74
     1
176
     1
 91
        4
176
     1
 64
     7
176
     1
 65
   257
176
     1
 75
     1
176
     1
175
     1
176
     1
 42
1.0
176
     1
 92
        0
176
     1
 66
   257
176
     1
 43
1.0
176
     1
 76
     1
176
     1
 77
     6
176
     1
 78
     2
176
     1
 67
     7
176
     1
 79
     5
176
     1
170
     0
176
     1
171
     0
176
     1
290
     0
176
     1
 93
        1
176
     1
 44
0.0
176
     1
173
     0
176
     1
  0
VISUALSTYLE
  5
31
102
{ACAD_REACTORS
330
2A
102
}
330
2A
100
AcDbVisualStyle
  2
3D Hidden
 70
     6
177
     2
291
     0
 71
     1
176
     1
 72
     2
176
     1
 73
     2
176
     1
 90
        0
176
     1
 40
-0.6
176
     1
 41
-30.0
176
     1
 62
     5
 63
     7
421
 16777215
176
     1
 74
     2
176
     1
 91
        2
176
     1
 64
     7
176
     1
 65
   257
176
     1
 75
     2
176
     1
175
     1
176
     1
 42
40.0
176
     1
 92
        0
176
     1
 66
   257
176
     1
 43
1.0
176
     1
 76
     1
176
     1
 77
     6
176
     1
 78
     2
176
     1
 67
     7
176
     1
 79
     3
176
     1
170
     0
176
     1
171
     0
176
     1
290
     0
176
     1
 93
        1
176
     1
 44
0.0
176
     1
173
     0
176
     1
  0
VISUALSTYLE
  5
30
102
{ACAD_REACTORS
330
2A
102
}
330
2A
100
AcDbVisualStyle
  2
3dWireframe
 70
     5
177
     2
291
     0
 71
     0
176
     1
 72
     2
176
     1
 73
     0
176
     1
 90
        0
176
     1
 40
-0.6
176
     1
 41
-30.0
176
     1
 62
     5
 63
     7
421
 16777215
176
     1
 74
     1
176
     1
 91
        4
176
     1
 64
     7
176
     1
 65
   257
176
     1
 75
     1
176
     1
175
     1
176
     1
 42
1.0
176
     1
 92
        0
176
     1
 66
   257
176
     1
 43
1.0
176
     1
 76
     1
176
     1
 77
     6
176
     1
 78
     2
176
     1
 67
     7
176
     1
 79
     5
176
     1
170
     0
176
     1
171
     0
176
     1
290
     0
176
     1
 93
        1
176
     1
 44
0.0
176
     1
173
     0
176
     1
  0
VISUALSTYLE
  5
32
102
{ACAD_REACTORS
330
2A
102
}
330
2A
100
AcDbVisualStyle
  2
Basic
 70
     7
177
     2
291
     1
 71
     1
176
     1
 72
     0
176
     1
 73
     1
176
     1
 90
        0
176
     1
 40
-0.6
176
     1
 41
-30.0
176
     1
 62
     5
 63
     7
421
 16777215
176
     1
 74
     0
176
     1
 91
        4
176
     1
 64
     7
176
     1
 65
   257
176
     1
 75
     1
176
     1
175
     1
176
     1
 42
1.0
176
     1
 92
        8
176
     1
 66
     7
176
     1
 43
1.0
176
     1
 76
     1
176
     1
 77
     6
176
     1
 78
     2
176
     1
 67
     7
176
     1
 79
     5
176
     1
170
     0
176
     1
171
     0
176
     1
290
     0
176
     1
 93
        1
176
     1
 44
0.0
176
     1
173
     0
176
     1
  0
VISUALSTYLE
  5
36
102
{ACAD_REACTORS
330
2A
102
}
330
2A
100
AcDbVisualStyle
  2
Brighten
 70
    12
177
     2
291
     1
 71
     2
176
     1
 72
     2
176
     1
 73
     0
176
     1
 90
        0
176
     1
 40
-0.6
176
     1
 41
-30.0
176
     1
 62
     5
 63
     7
421
 16777215
176
     1
 74
     1
176
     1
 91
        4
176
     1
 64
     7
176
     1
 65
   257
176
     1
 75
     1
176
     1
175
     1
176
     1
 42
1.0
176
     1
 92
        8
176
     1
 66
     7
176
     1
 43
1.0
176
     1
 76
     1
176
     1
 77
     6
176
     1
 78
     2
176
     1
 67
     7
176
     1
 79
     5
176
     1
170
     0
176
     1
171
     0
176
     1
290
     0
176
     1
 93
        1
176
     1
 44
50.0
176
     1
173
     0
176
     1
  0
VISUALSTYLE
  5
3A
102
{ACAD_REACTORS
330
2A
102
}
330
2A
100
AcDbVisualStyle
  2
ColorChange
 70
    16
177
     2
291
     1
 71
     2
176
     1
 72
     2
176
     1
 73
     3
176
     1
 90
        0
176
     1
 40
-0.6
176
     1
 41
-30.0
176
     1
 62
     5
 63
     8
421
  8421504
176
     1
 74
     1
176
     1
 91
        4
176
     1
 64
     7
176
     1
 65
   257
176
     1
 75
     1
176
     1
175
     1
176
     1
 42
1.0
176
     1
 92
        8
176
     1
 66
     8
424
  8421504
176
     1
 43
1.0
176
     1
 76
     1
176
     1
 77
     6
176
     1
 78
     2
176
     1
 67
     7
176
     1
 79
     5
176
     1
170
     0
176
     1
171
     0
176
     1
290
     0
176
     1
 93
        1
176
     1
 44
0.0
176
     1
173
     0
176
     1
  0
VISUALSTYLE
  5
34
102
{ACAD_REACTORS
330
2A
102
}
330
2A
100
AcDbVisualStyle
  2
Conceptual
 70
     9
177
     2
291
     0
 71
     3
176
     1
 72
     2
176
     1
 73
     0
176
     1
 90
        0
176
     1
 40
-0.6
176
     1
 41
-30.0
176
     1
 62
     5
 63
     7
421
 16777215
176
     1
 74
     2
176
     1
 91
        2
176
     1
 64
     7
176
     1
 65
   257
176
     1
 75
     1
176
     1
175
     1
176
     1
 42
40.0
176
     1
 92
        8
176
     1
 66
     7
176
     1
 43
1.0
176
     1
 76
     1
176
     1
 77
     6
176
     1
 78
     2
176
     1
 67
     7
176
     1
 79
     3
176
     1
170
     0
176
     1
171
     0
176
     1
290
     0
176
     1
 93
        1
176
     1
 44
0.0
176
     1
173
     0
176
     1
  0
VISUALSTYLE
  5
35
102
{ACAD_REACTORS
330
2A
102
}
330
2A
100
AcDbVisualStyle
  2
Dim
 70
    11
177
     2
291
     1
 71
     2
176
     1
 72
     2
176
     1
 73
     0
176
     1
 90
        0
176
     1
 40
-0.6
176
     1
 41
-30.0
176
     1
 62
     5
 63
     7
421
 16777215
176
     1
 74
     1
176
     1
 91
        4
176
     1
 64
     7
176
     1
 65
   257
176
     1
 75
     1
176
     1
175
     1
176
     1
 42
1.0
176
     1
 92
        8
176
     1
 66
     7
176
     1
 43
1.0
176
     1
 76
     1
176
     1
 77
     6
176
     1
 78
     2
176
     1
 67
     7
176
     1
 79
     5
176
     1
170
     0
176
     1
171
     0
176
     1
290
     0
176
     1
 93
        1
176
     1
 44
-50.0
176
     1
173
     0
176
     1
  0
VISUALSTYLE
  5
39
102
{ACAD_REACTORS
330
2A
102
}
330
2A
100
AcDbVisualStyle
  2
Facepattern
 70
    15
177
     2
291
     1
 71
     2
176
     1
 72
     2
176
     1
 73
     0
176
     1
 90
        0
176
     1
 40
-0.6
176
     1
 41
-30.0
176
     1
 62
     5
 63
     7
421
 16777215
176
     1
 74
     1
176
     1
 91
        4
176
     1
 64
     7
176
     1
 65
   257
176
     1
 75
     1
176
     1
175
     1
176
     1
 42
1.0
176
     1
 92
        8
176
     1
 66
     7
176
     1
 43
1.0
176
     1
 76
     1
176
     1
 77
     6
176
     1
 78
     2
176
     1
 67
     7
176
     1
 79
     5
176
     1
170
     0
176
     1
171
     0
176
     1
290
     0
176
     1
 93
        1
176
     1
 44
0.0
176
     1
173
     0
176
     1
  0
VISUALSTYLE
  5
2B
102
{ACAD_REACTORS
330
2A
102
}
330
2A
100
AcDbVisualStyle
  2
Flat
 70
     0
177
     2
291
     1
 71
     2
176
     1
 72
     1
176
     1
 73
     1
176
     1
 90
        2
176
     1
 40
-0.6
176
     1
 41
30.0
176
     1
 62
     5
 63
     7
421
 16777215
176
     1
 74
     0
176
     1
 91
        4
176
     1
 64
     7
176
     1
 65
   257
176
     1
 75
     1
176
     1
175
     1
176
     1
 42
1.0
176
     1
 92
        8
176
     1
 66
     7
176
     1
 43
1.0
176
     1
 76
     1
176
     1
 77
     6
176
     1
 78
     2
176
     1
 67
     7
176
     1
 79
     5
176
     1
170
     0
176
     1
171
     0
176
     1
290
     0
176
     1
 93
       13
176
     1
 44
0.0
176
     1
173
     0
176
     1
  0
VISUALSTYLE
  5
2C
102
{ACAD_REACTORS
330
2A
102
}
330
2A
100
AcDbVisualStyle
  2
FlatWithEdges
 70
     1
177
     2
291
     1
 71
     2
176
     1
 72
     1
176
     1
 73
     1
176
     1
 90
        2
176
     1
 40
-0.6
176
     1
 41
30.0
176
     1
 62
     5
 63
     7
421
 16777215
176
     1
 74
     1
176
     1
 91
        4
176
     1
 64
     7
176
     1
 65
   257
176
     1
 75
     1
176
     1
175
     1
176
     1
 42
1.0
176
     1
 92
        0
176
     1
 66
   257
176
     1
 43
1.0
176
     1
 76
     1
176
     1
 77
     6
176
     1
 78
     2
176
     1
 67
     7
176
     1
 79
     5
176
     1
170
     0
176
     1
171
     0
176
     1
290
     0
176
     1
 93
       13
176
     1
 44
0.0
176
     1
173
     0
176
     1
  0
VISUALSTYLE
  5
2D
102
{ACAD_REACTORS
330
2A
102
}
330
2A
100
AcDbVisualStyle
  2
Gouraud
 70
     2
177
     2
291
     1
 71
     2
176
     1
 72
     2
176
     1
 73
     1
176
     1
 90
        2
176
     1
 40
-0.6
176
     1
 41
30.0
176
     1
 62
     5
 63
     7
421
 16777215
176
     1
 74
     0
176
     1
 91
        4
176
     1
 64
     7
176
     1
 65
   257
176
     1
 75
     1
176
     1
175
     1
176
     1
 42
1.0
176
     1
 92
        0
176
     1
 66
     7
176
     1
 43
1.0
176
     1
 76
     1
176
     1
 77
     6
176
     1
 78
     2
176
     1
 67
     7
176
     1
 79
     5
176
     1
170
     0
176
     1
171
     0
176
     1
290
     0
176
     1
 93
       13
176
     1
 44
0.0
176
     1
173
     0
176
     1
  0
VISUALSTYLE
  5
2E
102
{ACAD_REACTORS
330
2A
102
}
330
2A
100
AcDbVisualStyle
  2
GouraudWithEdges
 70
     3
177
     2
291
     1
 71
     2
176
     1
 72
     2
176
     1
 73
     1
176
     1
 90
        2
176
     1
 40
-0.6
176
     1
 41
30.0
176
     1
 62
     5
 63
     7
421
 16777215
176
     1
 74
     1
176
     1
 91
        4
176
     1
 64
     7
176
     1
 65
   257
176
     1
 75
     1
176
     1
175
     1
176
     1
 42
1.0
176
     1
 92
        0
176
     1
 66
   257
176
     1
 43
1.0
176
     1
 76
     1
176
     1
 77
     6
176
     1
 78
     2
176
     1
 67
     7
176
     1
 79
     5
176
     1
170
     0
176
     1
171
     0
176
     1
290
     0
176
     1
 93
       13
176
     1
 44
0.0
176
     1
173
     0
176
     1
  0
VISUALSTYLE
  5
38
102
{ACAD_REACTORS
330
2A
102
}
330
2A
100
AcDbVisualStyle
  2
Linepattern
 70
    14
177
     2
291
     1
 71
     2
176
     1
 72
     2
176
     1
 73
     0
176
     1
 90
        0
176
     1
 40
-0.6
176
     1
 41
-30.0
176
     1
 62
     5
 63
     7
421
 16777215
176
     1
 74
     1
176
     1
 91
        4
176
     1
 64
     7
176
     1
 65
   257
176
     1
 75
     7
176
     1
175
     7
176
     1
 42
1.0
176
     1
 92
        8
176
     1
 66
     7
176
     1
 43
1.0
176
     1
 76
     1
176
     1
 77
     6
176
     1
 78
     2
176
     1
 67
     7
176
     1
 79
     5
176
     1
170
     0
176
     1
171
     0
176
     1
290
     0
176
     1
 93
        1
176
     1
 44
0.0
176
     1
173
     0
176
     1
  0
VISUALSTYLE
  5
33
102
{ACAD_REACTORS
330
2A
102
}
330
2A
100
AcDbVisualStyle
  2
Realistic
 70
     8
177
     2
291
     0
 71
     2
176
     1
 72
     2
176
     1
 73
     0
176
     1
 90
        0
176
     1
 40
-0.6
176
     1
 41
-30.0
176
     1
 62
     5
 63
     7
421
 16777215
176
     1
 74
     1
176
     1
 91
        0
176
     1
 64
     7
176
     1
 65
   257
176
     1
 75
     1
176
     1
175
     1
176
     1
 42
1.0
176
     1
 92
        8
176
     1
 66
     8
424
  7895160
176
     1
 43
1.0
176
     1
 76
     1
176
     1
 77
     6
176
     1
 78
     2
176
     1
 67
     7
176
     1
 79
     5
176
     1
170
     0
176
     1
171
     0
176
     1
290
     0
176
     1
 93
       13
176
     1
 44
0.0
176
     1
173
     0
176
     1
  0
VISUALSTYLE
  5
37
102
{ACAD_REACTORS
330
2A
102
}
330
2A
100
AcDbVisualStyle
  2
Thicken
 70
    13
177
     2
291
     1
 71
     2
176
     1
 72
     2
176
     1
 73
     0
176
     1
 90
        0
176
     1
 40
-0.6
176
     1
 41
-30.0
176
     1
 62
     5
 63
     7
421
 16777215
176
     1
 74
     1
176
     1
 91
        4
176
     1
 64
     7
176
     1
 65
   257
176
     1
 75
     1
176
     1
175
     1
176
     1
 42
1.0
176
     1
 92
       12
176
     1
 66
     7
176
     1
 43
1.0
176
     1
 76
     1
176
     1
 77
     6
176
     1
 78
     2
176
     1
 67
     7
176
     1
 79
     5
176
     1
170
     0
176
     1
171
     0
176
     1
290
     0
176
     1
 93
        1
176
     1
 44
0.0
176
     1
173
     0
176
     1
  0
ENDSEC
  0
EOF
