  0
SECTION
  2
HEADER
  9
$ACADVER
  1
AC1027
  9
$ACADMAINTVER
 70
   125
  9
$DWGCODEPAGE
  3
ANSI_1252
  9
$LASTSAVEDBY
  1
Tejay
  9
$REQUIREDVERSIONS
160
                 0
  9
$INSBASE
 10
0.0
 20
0.0
 30
0.0
  9
$EXTMIN
 10
0.0
 20
-39.01360815301192
 30
0.0
  9
$EXTMAX
 10
342.069081979187
 20
206.3703066842112
 30
0.0
  9
$LIMMIN
 10
0.0
 20
0.0
  9
$LIMMAX
 10
12.0
 20
9.0
  9
$ORTHOMODE
 70
     0
  9
$REGENMODE
 70
     1
  9
$FILLMODE
 70
     0
  9
$QTEXTMODE
 70
     0
  9
$MIRRTEXT
 70
     0
  9
$LTSCALE
 40
1.0
  9
$ATTMODE
 70
     1
  9
$TEXTSIZE
 40
0.2
  9
$TRACEWID
 40
0.05
  9
$TEXTSTYLE
  7
Standard
  9
$CLAYER
  8
0
  9
$CELTYPE
  6
Continuous
  9
$CECOLOR
 62
   256
  9
$CELTSCALE
 40
1.0
  9
$DISPSILH
 70
     0
  9
$DIMSCALE
 40
1.0
  9
$DIMASZ
 40
0.18
  9
$DIMEXO
 40
0.0625
  9
$DIMDLI
 40
0.38
  9
$DIMRND
 40
0.0
  9
$DIMDLE
 40
0.0
  9
$DIMEXE
 40
0.18
  9
$DIMTP
 40
0.0
  9
$DIMTM
 40
0.0
  9
$DIMTXT
 40
0.18
  9
$DIMCEN
 40
0.09
  9
$DIMTSZ
 40
0.0
  9
$DIMTOL
 70
     0
  9
$DIMLIM
 70
     0
  9
$DIMTIH
 70
     1
  9
$DIMTOH
 70
     1
  9
$DIMSE1
 70
     0
  9
$DIMSE2
 70
     0
  9
$DIMTAD
 70
     0
  9
$DIMZIN
 70
     0
  9
$DIMBLK
  1

  9
$DIMASO
 70
     1
  9
$DIMSHO
 70
     1
  9
$DIMPOST
  1

  9
$DIMAPOST
  1

  9
$DIMALT
 70
     0
  9
$DIMALTD
 70
     2
  9
$DIMALTF
 40
25.4
  9
$DIMLFAC
 40
1.0
  9
$DIMTOFL
 70
     0
  9
$DIMTVP
 40
0.0
  9
$DIMTIX
 70
     0
  9
$DIMSOXD
 70
     0
  9
$DIMSAH
 70
     0
  9
$DIMBLK1
  1

  9
$DIMBLK2
  1

  9
$DIMSTYLE
  2
Standard
  9
$DIMCLRD
 70
     0
  9
$DIMCLRE
 70
     0
  9
$DIMCLRT
 70
     0
  9
$DIMTFAC
 40
1.0
  9
$DIMGAP
 40
0.09
  9
$DIMJUST
 70
     0
  9
$DIMSD1
 70
     0
  9
$DIMSD2
 70
     0
  9
$DIMTOLJ
 70
     1
  9
$DIMTZIN
 70
     0
  9
$DIMALTZ
 70
     0
  9
$DIMALTTZ
 70
     0
  9
$DIMUPT
 70
     0
  9
$DIMDEC
 70
     4
  9
$DIMTDEC
 70
     4
  9
$DIMALTU
 70
     2
  9
$DIMALTTD
 70
     2
  9
$DIMTXSTY
  7
Standard
  9
$DIMAUNIT
 70
     0
  9
$DIMADEC
 70
     0
  9
$DIMALTRND
 40
0.0
  9
$DIMAZIN
 70
     0
  9
$DIMDSEP
 70
    46
  9
$DIMATFIT
 70
     3
  9
$DIMFRAC
 70
     0
  9
$DIMLDRBLK
  1

  9
$DIMLUNIT
 70
     2
  9
$DIMLWD
 70
    -2
  9
$DIMLWE
 70
    -2
  9
$DIMTMOVE
 70
     0
  9
$DIMFXL
 40
1.0
  9
$DIMFXLON
 70
     0
  9
$DIMJOGANG
 40
0.7853981633974483
  9
$DIMTFILL
 70
     0
  9
$DIMTFILLCLR
 70
     0
  9
$DIMARCSYM
 70
     0
  9
$DIMLTYPE
  6

  9
$DIMLTEX1
  6

  9
$DIMLTEX2
  6

  9
$DIMTXTDIRECTION
 70
     0
  9
$LUNITS
 70
     2
  9
$LUPREC
 70
     4
  9
$SKETCHINC
 40
0.1
  9
$FILLETRAD
 40
0.0
  9
$AUNITS
 70
     0
  9
$AUPREC
 70
     0
  9
$MENU
  1
.
  9
$ELEVATION
 40
0.0
  9
$PELEVATION
 40
0.0
  9
$THICKNESS
 40
0.0
  9
$LIMCHECK
 70
     0
  9
$CHAMFERA
 40
0.0
  9
$CHAMFERB
 40
0.0
  9
$CHAMFERC
 40
0.0
  9
$CHAMFERD
 40
0.0
  9
$SKPOLY
 70
     0
  9
$TDCREATE
 40
2458960.569293981
  9
$TDUCREATE
 40
2458960.735960648
  9
$TDUPDATE
 40
2458962.546458334
  9
$TDUUPDATE
 40
2458962.713125000
  9
$TDINDWG
 40
1.3624537037
  9
$TDUSRTIMER
 40
1.3624537037
  9
$USRTIMER
 70
     1
  9
$ANGBASE
 50
0.0
  9
$ANGDIR
 70
     0
  9
$PDMODE
 70
     0
  9
$PDSIZE
 40
0.0
  9
$PLINEWID
 40
0.0
  9
$SPLFRAME
 70
     1
  9
$SPLINETYPE
 70
     6
  9
$SPLINESEGS
 70
     8
  9
$HANDSEED
  5
BA1
  9
$SURFTAB1
 70
     6
  9
$SURFTAB2
 70
     6
  9
$SURFTYPE
 70
     6
  9
$SURFU
 70
     6
  9
$SURFV
 70
     6
  9
$UCSBASE
  2

  9
$UCSNAME
  2

  9
$UCSORG
 10
0.0
 20
0.0
 30
0.0
  9
$UCSXDIR
 10
1.0
 20
0.0
 30
0.0
  9
$UCSYDIR
 10
0.0
 20
1.0
 30
0.0
  9
$UCSORTHOREF
  2

  9
$UCSORTHOVIEW
 70
     0
  9
$UCSORGTOP
 10
0.0
 20
0.0
 30
0.0
  9
$UCSORGBOTTOM
 10
0.0
 20
0.0
 30
0.0
  9
$UCSORGLEFT
 10
0.0
 20
0.0
 30
0.0
  9
$UCSORGRIGHT
 10
0.0
 20
0.0
 30
0.0
  9
$UCSORGFRONT
 10
0.0
 20
0.0
 30
0.0
  9
$UCSORGBACK
 10
0.0
 20
0.0
 30
0.0
  9
$PUCSBASE
  2

  9
$PUCSNAME
  2

  9
$PUCSORG
 10
0.0
 20
0.0
 30
0.0
  9
$PUCSXDIR
 10
1.0
 20
0.0
 30
0.0
  9
$PUCSYDIR
 10
0.0
 20
1.0
 30
0.0
  9
$PUCSORTHOREF
  2

  9
$PUCSORTHOVIEW
 70
     0
  9
$PUCSORGTOP
 10
0.0
 20
0.0
 30
0.0
  9
$PUCSORGBOTTOM
 10
0.0
 20
0.0
 30
0.0
  9
$PUCSORGLEFT
 10
0.0
 20
0.0
 30
0.0
  9
$PUCSORGRIGHT
 10
0.0
 20
0.0
 30
0.0
  9
$PUCSORGFRONT
 10
0.0
 20
0.0
 30
0.0
  9
$PUCSORGBACK
 10
0.0
 20
0.0
 30
0.0
  9
$USERI1
 70
     0
  9
$USERI2
 70
     0
  9
$USERI3
 70
     0
  9
$USERI4
 70
     0
  9
$USERI5
 70
     0
  9
$USERR1
 40
0.0
  9
$USERR2
 40
0.0
  9
$USERR3
 40
0.0
  9
$USERR4
 40
0.0
  9
$USERR5
 40
0.0
  9
$WORLDVIEW
 70
     1
  9
$SHADEDGE
 70
     3
  9
$SHADEDIF
 70
    70
  9
$TILEMODE
 70
     1
  9
$MAXACTVP
 70
    64
  9
$PINSBASE
 10
0.0
 20
0.0
 30
0.0
  9
$PLIMCHECK
 70
     0
  9
$PEXTMIN
 10
1.000000000000000E+20
 20
1.000000000000000E+20
 30
1.000000000000000E+20
  9
$PEXTMAX
 10
-1.000000000000000E+20
 20
-1.000000000000000E+20
 30
-1.000000000000000E+20
  9
$PLIMMIN
 10
0.0
 20
0.0
  9
$PLIMMAX
 10
12.0
 20
9.0
  9
$UNITMODE
 70
     0
  9
$VISRETAIN
 70
     1
  9
$PLINEGEN
 70
     0
  9
$PSLTSCALE
 70
     1
  9
$TREEDEPTH
 70
  3020
  9
$CMLSTYLE
  2
Standard
  9
$CMLJUST
 70
     0
  9
$CMLSCALE
 40
1.0
  9
$PROXYGRAPHICS
 70
     1
  9
$MEASUREMENT
 70
     0
  9
$CELWEIGHT
370
    -1
  9
$ENDCAPS
280
     0
  9
$JOINSTYLE
280
     0
  9
$LWDISPLAY
290
     0
  9
$INSUNITS
 70
     0
  9
$HYPERLINKBASE
  1

  9
$STYLESHEET
  1

  9
$XEDIT
290
     1
  9
$CEPSNTYPE
380
     0
  9
$PSTYLEMODE
290
     1
  9
$FINGERPRINTGUID
  2
{3D797723-31F4-DD4B-BBE7-474E00551605}
  9
$VERSIONGUID
  2
{30C7052D-EB9B-2F46-8360-C490E8934C47}
  9
$EXTNAMES
290
     1
  9
$PSVPSCALE
 40
0.0
  9
$OLESTARTUP
290
     0
  9
$SORTENTS
280
   127
  9
$INDEXCTL
280
     0
  9
$HIDETEXT
280
     0
  9
$XCLIPFRAME
280
     2
  9
$HALOGAP
280
     0
  9
$OBSCOLOR
 70
   257
  9
$OBSLTYPE
280
     0
  9
$INTERSECTIONDISPLAY
280
     0
  9
$INTERSECTIONCOLOR
 70
   257
  9
$DIMASSOC
280
     1
  9
$PROJECTNAME
  1

  9
$CAMERADISPLAY
290
     0
  9
$LENSLENGTH
 40
50.0
  9
$CAMERAHEIGHT
 40
0.0
  9
$STEPSPERSEC
 40
2.0
  9
$STEPSIZE
 40
6.0
  9
$3DDWFPREC
 40
2.0
  9
$PSOLWIDTH
 40
0.25
  9
$PSOLHEIGHT
 40
4.0
  9
$LOFTANG1
 40
1.570796326794896
  9
$LOFTANG2
 40
1.570796326794896
  9
$LOFTMAG1
 40
0.0
  9
$LOFTMAG2
 40
0.0
  9
$LOFTPARAM
 70
     7
  9
$LOFTNORMALS
280
     1
  9
$LATITUDE
 40
37.795
  9
$LONGITUDE
 40
-122.394
  9
$NORTHDIRECTION
 40
0.0
  9
$TIMEZONE
 70
 -8000
  9
$LIGHTGLYPHDISPLAY
280
     1
  9
$TILEMODELIGHTSYNCH
280
     1
  9
$CMATERIAL
347
11
  9
$SOLIDHIST
280
     0
  9
$SHOWHIST
280
     1
  9
$DWFFRAME
280
     2
  9
$DGNFRAME
280
     0
  9
$REALWORLDSCALE
290
     1
  9
$INTERFERECOLOR
 62
     1
  9
$INTERFEREOBJVS
345
33
  9
$INTERFEREVPVS
346
30
  9
$CSHADOW
280
     0
  9
$SHADOWPLANELOCATION
 40
0.0
  0
ENDSEC
  0
SECTION
  2
CLASSES
  0
CLASS
  1
ACDBDICTIONARYWDFLT
  2
AcDbDictionaryWithDefault
  3
ObjectDBX Classes
 90
        0
 91
        1
280
     0
281
     0
  0
CLASS
  1
MATERIAL
  2
AcDbMaterial
  3
ObjectDBX Classes
 90
     1153
 91
        3
280
     0
281
     0
  0
CLASS
  1
VISUALSTYLE
  2
AcDbVisualStyle
  3
ObjectDBX Classes
 90
     4095
 91
       24
280
     0
281
     0
  0
CLASS
  1
SCALE
  2
AcDbScale
  3
ObjectDBX Classes
 90
     1153
 91
       17
280
     0
281
     0
  0
CLASS
  1
TABLESTYLE
  2
AcDbTableStyle
  3
ObjectDBX Classes
 90
     4095
 91
        1
280
     0
281
     0
  0
CLASS
  1
MLEADERSTYLE
  2
AcDbMLeaderStyle
  3
ACDB_MLEADERSTYLE_CLASS
 90
     4095
 91
        1
280
     0
281
     0
  0
CLASS
  1
ACDBSECTIONVIEWSTYLE
  2
AcDbSectionViewStyle
  3
ObjectDBX Classes
 90
     1025
 91
        1
280
     0
281
     0
  0
CLASS
  1
ACDBDETAILVIEWSTYLE
  2
AcDbDetailViewStyle
  3
ObjectDBX Classes
 90
     1025
 91
        1
280
     0
281
     0
  0
CLASS
  1
DICTIONARYVAR
  2
AcDbDictionaryVar
  3
ObjectDBX Classes
 90
        0
 91
        9
280
     0
281
     0
  0
CLASS
  1
ACDB_MTEXTOBJECTCONTEXTDATA_CLASS
  2
AcDbMTextObjectContextData
  3
ObjectDBX Classes
 90
     1153
 91
       14
280
     0
281
     0
  0
CLASS
  1
SORTENTSTABLE
  2
AcDbSortentsTable
  3
ObjectDBX Classes
 90
        0
 91
        2
280
     0
281
     0
  0
CLASS
  1
CELLSTYLEMAP
  2
AcDbCellStyleMap
  3
ObjectDBX Classes
 90
     1152
 91
        1
280
     0
281
     0
  0
ENDSEC
  0
SECTION
  2
TABLES
  0
TABLE
  2
VPORT
  5
8
330
0
100
AcDbSymbolTable
 70
     1
1001
ACAD
1000
DbSaveVer
1071
      208
  0
VPORT
  5
74
330
8
100
AcDbSymbolTableRecord
100
AcDbViewportTableRecord
  2
*Active
 70
     0
 10
0.0
 20
0.0
 11
1.0
 21
1.0
 12
240.0026124044025
 22
97.22570999967956
 13
0.0
 23
0.0
 14
1.0
 24
1.0
 15
0.0
 25
0.0
 16
0.0
 26
0.0
 36
1.0
 17
0.0
 27
0.0
 37
0.0
 40
233.9173012011189
 41
1.520316027088036
 42
50.0
 43
0.0
 44
0.0
 50
0.0
 51
0.0
 71
     0
 72
   100
 73
     1
 74
     0
 75
     0
 76
     0
 77
     0
 78
     0
281
     0
 65
     1
110
0.0
120
0.0
130
0.0
111
1.0
121
0.0
131
0.0
112
0.0
122
1.0
132
0.0
 79
     0
146
0.0
348
2F
 60
     3
 61
     5
292
     1
282
     1
141
0.0
142
0.0
 63
   250
421
  3355443
1001
ACAD_NAV_VCDISPLAY
1070
     3
  0
ENDTAB
  0
TABLE
  2
LTYPE
  5
5
330
0
100
AcDbSymbolTable
 70
     3
  0
LTYPE
  5
5A
330
5
100
AcDbSymbolTableRecord
100
AcDbLinetypeTableRecord
  2
ByBlock
 70
     0
  3

 72
    65
 73
     0
 40
0.0
  0
LTYPE
  5
5B
330
5
100
AcDbSymbolTableRecord
100
AcDbLinetypeTableRecord
  2
ByLayer
 70
     0
  3

 72
    65
 73
     0
 40
0.0
  0
LTYPE
  5
5C
330
5
100
AcDbSymbolTableRecord
100
AcDbLinetypeTableRecord
  2
Continuous
 70
     0
  3
Solid line
 72
    65
 73
     0
 40
0.0
  0
ENDTAB
  0
TABLE
  2
LAYER
  5
2
102
{ACAD_XDICTIONARY
360
8A6
102
}
330
0
100
AcDbSymbolTable
 70
     3
  0
LAYER
  5
54
102
{ACAD_XDICTIONARY
360
88A
102
}
330
2
100
AcDbSymbolTableRecord
100
AcDbLayerTableRecord
  2
0
 70
     0
 62
     7
  6
Continuous
370
    -3
390
F
347
21
348
0
  0
LAYER
  5
8AC
102
{ACAD_XDICTIONARY
360
8AD
102
}
330
2
100
AcDbSymbolTableRecord
100
AcDbLayerTableRecord
  2
Info
 70
     2
 62
     4
  6
Continuous
370
    -3
390
F
347
21
348
0
1001
AcAecLayerStandard
1000

1000

1001
AcCmTransparency
1071
        0
  0
LAYER
  5
B73
330
2
100
AcDbSymbolTableRecord
100
AcDbLayerTableRecord
  2
Defpoints
 70
     0
 62
     7
  6
Continuous
290
     0
370
    -3
390
F
347
21
348
0
  0
ENDTAB
  0
TABLE
  2
STYLE
  5
3
330
0
100
AcDbSymbolTable
 70
     2
  0
STYLE
  5
55
330
3
100
AcDbSymbolTableRecord
100
AcDbTextStyleTableRecord
  2
Standard
 70
     0
 40
0.0
 41
1.0
 50
0.0
 71
     0
 42
0.2
  3
txt
  4

  0
STYLE
  5
59
330
3
100
AcDbSymbolTableRecord
100
AcDbTextStyleTableRecord
  2
Annotative
 70
     0
 40
0.0
 41
1.0
 50
0.0
 71
     0
 42
0.2
  3
txt
  4

1001
AcadAnnotative
1000
AnnotativeData
1002
{
1070
     1
1070
     1
1002
}
  0
ENDTAB
  0
TABLE
  2
VIEW
  5
6
330
0
100
AcDbSymbolTable
 70
     4
  0
ENDTAB
  0
TABLE
  2
UCS
  5
7
330
0
100
AcDbSymbolTable
 70
     0
  0
ENDTAB
  0
TABLE
  2
APPID
  5
9
330
0
100
AcDbSymbolTable
 70
     6
  0
APPID
  5
56
330
9
100
AcDbSymbolTableRecord
100
AcDbRegAppTableRecord
  2
ACAD
 70
     0
  0
APPID
  5
5D
330
9
100
AcDbSymbolTableRecord
100
AcDbRegAppTableRecord
  2
AcadAnnotative
 70
     0
  0
APPID
  5
88C
330
9
100
AcDbSymbolTableRecord
100
AcDbRegAppTableRecord
  2
ACAD_NAV_VCDISPLAY
 70
     0
  0
APPID
  5
89B
330
9
100
AcDbSymbolTableRecord
100
AcDbRegAppTableRecord
  2
ACAD_EXEMPT_FROM_CAD_STANDARDS
 70
     0
  0
APPID
  5
8AE
330
9
100
AcDbSymbolTableRecord
100
AcDbRegAppTableRecord
  2
AcAecLayerStandard
 70
     0
  0
APPID
  5
8AF
330
9
100
AcDbSymbolTableRecord
100
AcDbRegAppTableRecord
  2
AcCmTransparency
 70
     0
  0
ENDTAB
  0
TABLE
  2
DIMSTYLE
  5
A
330
0
100
AcDbSymbolTable
 70
     3
100
AcDbDimStyleTable
 71
     1
340
57
  0
DIMSTYLE
105
57
330
A
100
AcDbSymbolTableRecord
100
AcDbDimStyleTableRecord
  2
Standard
 70
     0
340
55
  0
DIMSTYLE
105
58
330
A
100
AcDbSymbolTableRecord
100
AcDbDimStyleTableRecord
  2
Annotative
 70
     0
340
55
1001
AcadAnnotative
1000
AnnotativeData
1002
{
1070
     1
1070
     1
1002
}
  0
ENDTAB
  0
TABLE
  2
BLOCK_RECORD
  5
1
330
0
100
AcDbSymbolTable
 70
     3
  0
BLOCK_RECORD
  5
6F
102
{ACAD_XDICTIONARY
360
B88
102
}
330
1
100
AcDbSymbolTableRecord
100
AcDbBlockTableRecord
  2
*Model_Space
340
72
 70
     0
280
     1
281
     0
  0
BLOCK_RECORD
  5
6B
330
1
100
AcDbSymbolTableRecord
100
AcDbBlockTableRecord
  2
*Paper_Space
340
6E
 70
     0
280
     1
281
     0
  0
BLOCK_RECORD
  5
B74
330
1
100
AcDbSymbolTableRecord
100
AcDbBlockTableRecord
  2
*D1
340
0
 70
     0
280
     1
281
     0
  0
ENDTAB
  0
ENDSEC
  0
SECTION
  2
BLOCKS
  0
BLOCK
  5
70
330
6F
100
AcDbEntity
  8
0
100
AcDbBlockBegin
  2
*Model_Space
 70
     0
 10
0.0
 20
0.0
 30
0.0
  3
*Model_Space
  1

  0
ENDBLK
  5
71
330
6F
100
AcDbEntity
  8
0
100
AcDbBlockEnd
  0
BLOCK
  5
6C
330
6B
100
AcDbEntity
 67
     1
  8
0
100
AcDbBlockBegin
  2
*Paper_Space
 70
     0
 10
0.0
 20
0.0
 30
0.0
  3
*Paper_Space
  1

  0
ENDBLK
  5
6D
330
6B
100
AcDbEntity
 67
     1
  8
0
100
AcDbBlockEnd
  0
BLOCK
  5
B75
330
B74
100
AcDbEntity
  8
0
100
AcDbBlockBegin
  2
*D1
 70
     1
 10
0.0
 20
0.0
 30
0.0
  3
*D1
  1

  0
LINE
  5
B77
330
B74
100
AcDbEntity
  8
0
  6
Continuous
 62
     0
440
 16777216
370
    -2
100
AcDbLine
 10
198.8000372784459
 20
139.6163837106768
 30
0.0
 11
198.8000372784459
 21
145.2007694301959
 31
0.0
  0
LINE
  5
B78
330
B74
100
AcDbEntity
  8
0
  6
Continuous
 62
     0
440
 16777216
370
    -2
100
AcDbLine
 10
238.8000372784459
 20
139.6163837106768
 30
0.0
 11
238.8000372784459
 21
145.2007694301959
 31
0.0
  0
LINE
  5
B79
330
B74
100
AcDbEntity
  8
0
  6
Continuous
 62
     0
440
 16777216
370
    -2
100
AcDbLine
 10
198.9800372784459
 20
145.0207694301959
 30
0.0
 11
218.2450372784459
 21
145.0207694301959
 31
0.0
  0
LINE
  5
B7A
330
B74
100
AcDbEntity
  8
0
  6
Continuous
 62
     0
440
 16777216
370
    -2
100
AcDbLine
 10
238.6200372784458
 20
145.0207694301959
 30
0.0
 11
219.3550372784459
 21
145.0207694301959
 31
0.0
  0
SOLID
  5
B7B
330
B74
100
AcDbEntity
  8
0
  6
Continuous
 62
     0
440
 16777216
100
AcDbTrace
 10
198.9800372784459
 20
145.0507694301959
 30
0.0
 11
198.9800372784459
 21
144.9907694301959
 31
0.0
 12
198.8000372784459
 22
145.0207694301959
 32
0.0
 13
198.8000372784459
 23
145.0207694301959
 33
0.0
  0
SOLID
  5
B7C
330
B74
100
AcDbEntity
  8
0
  6
Continuous
 62
     0
440
 16777216
100
AcDbTrace
 10
238.6200372784458
 20
145.0507694301959
 30
0.0
 11
238.6200372784458
 21
144.9907694301959
 31
0.0
 12
238.8000372784459
 22
145.0207694301959
 32
0.0
 13
238.8000372784459
 23
145.0207694301959
 33
0.0
  0
MTEXT
  5
B7D
330
B74
100
AcDbEntity
  8
0
  6
Continuous
 62
     0
440
 16777216
100
AcDbMText
 10
218.8000372784459
 20
145.0207694301959
 30
0.0
 40
0.18
 41
0.0
 46
0.0
 71
     5
 72
     1
  1
\A1;40.0000
 73
     1
 44
1.0
  0
POINT
  5
B7E
330
B74
100
AcDbEntity
  8
Defpoints
  6
Continuous
 62
     0
440
 16777216
100
AcDbPoint
 10
198.8000372784459
 20
139.5538837106768
 30
0.0
  0
POINT
  5
B7F
330
B74
100
AcDbEntity
  8
Defpoints
  6
Continuous
 62
     0
440
 16777216
100
AcDbPoint
 10
238.8000372784459
 20
139.5538837106768
 30
0.0
  0
POINT
  5
B80
330
B74
100
AcDbEntity
  8
Defpoints
  6
Continuous
 62
     0
440
 16777216
100
AcDbPoint
 10
238.8000372784459
 20
145.0207694301959
 30
0.0
  0
ENDBLK
  5
B76
330
B74
100
AcDbEntity
  8
0
100
AcDbBlockEnd
  0
ENDSEC
  0
SECTION
  2
ENTITIES
  0
CIRCLE
  5
8F6
330
6F
100
AcDbEntity
  8
0
  6
Continuous
 62
     7
100
AcDbCircle
 10
272.3935795930515
 20
134.3254220466621
 30
0.0
 40
0.0625000000000002
  0
CIRCLE
  5
8F7
330
6F
100
AcDbEntity
  8
0
  6
Continuous
 62
     7
100
AcDbCircle
 10
272.3935795930515
 20
136.6285716529621
 30
0.0
 40
0.0625
  0
CIRCLE
  5
8F8
330
6F
100
AcDbEntity
  8
0
  6
Continuous
 62
     7
100
AcDbCircle
 10
257.0560740891515
 20
137.1676783692621
 30
0.0
 40
0.0625
  0
CIRCLE
  5
8F9
330
6F
100
AcDbEntity
  8
0
  6
Continuous
 62
     7
100
AcDbCircle
 10
256.4751199450515
 20
135.4398072574621
 30
0.0
 40
0.0625000000000004
  0
CIRCLE
  5
8FA
330
6F
100
AcDbEntity
  8
0
  6
Continuous
 62
     7
100
AcDbCircle
 10
254.9669835181516
 20
131.7336949537621
 30
0.0
 40
0.0625000000000002
  0
CIRCLE
  5
8FB
330
6F
100
AcDbEntity
  8
0
  6
Continuous
 62
     7
100
AcDbCircle
 10
250.8306262060515
 20
117.8559056073621
 30
0.0
 40
0.0625000000000018
  0
CIRCLE
  5
8FC
330
6F
100
AcDbEntity
  8
0
  6
Continuous
 62
     7
100
AcDbCircle
 10
251.6411106608515
 20
120.5338186340621
 30
0.0
 40
0.0625
  0
CIRCLE
  5
8FD
330
6F
100
AcDbEntity
  8
0
  6
Continuous
 62
     7
100
AcDbCircle
 10
252.9533202750515
 20
127.9226275588621
 30
0.0
 40
0.0624999999999991
  0
CIRCLE
  5
8FE
330
6F
100
AcDbEntity
  8
0
  6
Continuous
 62
     7
100
AcDbCircle
 10
254.5465525914515
 20
133.1868094312621
 30
0.0
 40
0.0625
  0
CIRCLE
  5
8FF
330
6F
100
AcDbEntity
  8
0
  6
Continuous
 62
     7
100
AcDbCircle
 10
250.5634718005516
 20
120.0263547501621
 30
0.0
 40
0.0625
  0
CIRCLE
  5
900
330
6F
100
AcDbEntity
  8
0
  6
Continuous
 62
     7
100
AcDbCircle
 10
270.4014536087515
 20
134.9052127510621
 30
0.0
 40
0.2500000000003
  0
CIRCLE
  5
901
330
6F
100
AcDbEntity
  8
0
  6
Continuous
 62
     7
100
AcDbCircle
 10
266.4341838806515
 20
134.5187515001621
 30
0.0
 40
0.2499999999999798
  0
CIRCLE
  5
902
330
6F
100
AcDbEntity
  8
0
  6
Continuous
 62
     7
100
AcDbCircle
 10
269.0889536087515
 20
134.0302127510621
 30
0.0
 40
0.1104999999999998
  0
CIRCLE
  5
903
330
6F
100
AcDbEntity
  8
0
  6
Continuous
 62
     7
100
AcDbCircle
 10
271.7139536087515
 20
134.0302127510621
 30
0.0
 40
0.1104999999999998
  0
CIRCLE
  5
904
330
6F
100
AcDbEntity
  8
0
  6
Continuous
 62
     7
100
AcDbCircle
 10
270.4014536087515
 20
136.0302127510621
 30
0.0
 40
0.1105
  0
CIRCLE
  5
905
330
6F
100
AcDbEntity
  8
0
  6
Continuous
 62
     7
100
AcDbCircle
 10
267.4323719237515
 20
134.2296491989621
 30
0.0
 40
0.1104999999999998
  0
CIRCLE
  5
906
330
6F
100
AcDbEntity
  8
0
  6
Continuous
 62
     7
100
AcDbCircle
 10
265.5013626445515
 20
134.0607077778621
 30
0.0
 40
0.1104999999999998
  0
CIRCLE
  5
907
330
6F
100
AcDbEntity
  8
0
  6
Continuous
 62
     7
100
AcDbCircle
 10
266.3446691757515
 20
135.5419092594621
 30
0.0
 40
0.1105
  0
LWPOLYLINE
  5
908
330
6F
100
AcDbEntity
  8
0
  6
Continuous
 62
     7
100
AcDbPolyline
 90
       10
 70
     1
 43
0.0
 10
263.4784942408515
 20
131.6608674232621
 10
278.9656813885295
 20
133.015820728586
 42
0.5205670505517461
 10
280.0920154493515
 20
134.9666885483621
 10
278.8036901520269
 20
137.7295110643556
 42
0.2914734195860877
 10
277.5575169448516
 20
138.5234109544621
 10
255.1169063670515
 20
138.5234109544621
 10
248.6648923640515
 20
117.2053804285621
 10
251.2452017125515
 20
116.4244362400621
 10
251.5348803154515
 20
117.3815602168621
 10
258.9951785995515
 20
128.9405165837621
 42
-0.2300693522072082
  0
MTEXT
  5
909
102
{ACAD_XDICTIONARY
360
90A
102
}
330
6F
100
AcDbEntity
  8
Info
100
AcDbMText
 10
266.3348016987798
 20
138.3388406462478
 30
0.0
 40
0.05
 41
5.317259646414134
 46
0.0
 71
     2
 72
     5
  1
LH Seat Bucket Exterior - Qty 1 - PN# OH3A2A-31 - CNC - Item 22 - Thick .25" (6.35mm)
  7
Annotative
 11
-1.0
 21
0.0000000000000001
 31
0.0
 73
     1
 44
1.0
1001
AcadAnnotative
1000
AnnotativeData
1002
{
1070
     1
1070
     1
1002
}
1001
ACAD
1000
ACAD_MTEXT_COLUMN_INFO_BEGIN
1070
    75
1070
     2
1070
    79
1070
     0
1070
    76
1070
     1
1070
    78
1070
     0
1070
    48
1040
5.317259646414134
1070
    49
1040
0.625
1070
    50
1070
     1
1040
0.0830158434547273
1000
ACAD_MTEXT_COLUMN_INFO_END
  0
CIRCLE
  5
943
330
6F
100
AcDbEntity
  8
0
  6
Continuous
 62
     7
100
AcDbCircle
 10
262.8525534837696
 20
114.8348591400882
 30
0.0
 40
0.2
  0
CIRCLE
  5
944
330
6F
100
AcDbEntity
  8
0
  6
Continuous
 62
     7
100
AcDbCircle
 10
262.8525534837696
 20
112.5317095337882
 30
0.0
 40
0.1999999999999997
  0
CIRCLE
  5
945
330
6F
100
AcDbEntity
  8
0
  6
Continuous
 62
     7
100
AcDbCircle
 10
278.1900589876695
 20
111.9926028174882
 30
0.0
 40
0.2000000000000002
  0
CIRCLE
  5
946
330
6F
100
AcDbEntity
  8
0
  6
Continuous
 62
     7
100
AcDbCircle
 10
278.7710131317695
 20
113.7204739292882
 30
0.0
 40
0.2000000000000002
  0
CIRCLE
  5
947
330
6F
100
AcDbEntity
  8
0
  6
Continuous
 62
     7
100
AcDbCircle
 10
280.2791495586696
 20
117.4265862329882
 30
0.0
 40
0.2000000000000002
  0
CIRCLE
  5
948
330
6F
100
AcDbEntity
  8
0
  6
Continuous
 62
     7
100
AcDbCircle
 10
284.4155068707696
 20
131.3043755793882
 30
0.0
 40
0.2000000000000011
  0
CIRCLE
  5
949
330
6F
100
AcDbEntity
  8
0
  6
Continuous
 62
     7
100
AcDbCircle
 10
283.6050224159696
 20
128.6264625526882
 30
0.0
 40
0.2000000000000011
  0
CIRCLE
  5
94A
330
6F
100
AcDbEntity
  8
0
  6
Continuous
 62
     7
100
AcDbCircle
 10
282.2928128017696
 20
121.2376536278882
 30
0.0
 40
0.1999999999999993
  0
CIRCLE
  5
94B
330
6F
100
AcDbEntity
  8
0
  6
Continuous
 62
     7
100
AcDbCircle
 10
280.6995804853695
 20
115.9734717554882
 30
0.0
 40
0.2
  0
CIRCLE
  5
94C
330
6F
100
AcDbEntity
  8
0
  6
Continuous
 62
     7
100
AcDbCircle
 10
284.6826612762696
 20
129.1339264365882
 30
0.0
 40
0.2000000000000011
  0
CIRCLE
  5
94D
330
6F
100
AcDbEntity
  8
0
  6
Continuous
 62
     7
100
AcDbCircle
 10
268.9014639010696
 20
113.6183719272882
 30
0.0
 40
0.0967500000000001
  0
CIRCLE
  5
94E
330
6F
100
AcDbEntity
  8
0
  6
Continuous
 62
     7
100
AcDbCircle
 10
267.8137611530695
 20
114.9306319877882
 30
0.0
 40
0.0967500000000001
  0
CIRCLE
  5
94F
330
6F
100
AcDbEntity
  8
0
  6
Continuous
 62
     7
100
AcDbCircle
 10
269.7447704322696
 20
115.0995734088882
 30
0.0
 40
0.09675
  0
LWPOLYLINE
  5
950
330
6F
100
AcDbEntity
  8
0
  6
Continuous
 62
     7
100
AcDbPolyline
 90
        8
 70
     1
 43
0.0
 10
282.4550787699571
 20
127.1419617894538
 42
0.7039091300069951
 10
281.94982388398
 20
127.2600415674214
 10
277.3786511292696
 20
120.1859653666881
 42
0.7771467496993859
 10
277.7417894174744
 20
119.7942905020693
 10
282.1540244753696
 20
122.1939083387882
 42
0.1970542020729602
 10
282.2738236258209
 20
122.3409794147504
 10
282.7905640918696
 20
124.0449797392882
 42
0.1025980045953249
 10
282.799684997894
 20
124.146098491827
  0
LWPOLYLINE
  5
951
330
6F
100
AcDbEntity
  8
0
  6
Continuous
 62
     7
100
AcDbPolyline
 90
        6
 70
     1
 43
0.0
 10
281.9676522413293
 20
121.3313504564244
 42
0.6707681210563099
 10
281.5722529072644
 20
121.6534294513069
 10
277.3150115465696
 20
119.3381057727882
 42
0.6655953349999077
 10
277.3667034861059
 20
118.8322727827284
 10
280.6224195041695
 20
117.8449723764882
 42
0.4142135623730948
 10
280.9661268987293
 20
118.0287263717245
  0
LWPOLYLINE
  5
952
330
6F
100
AcDbEntity
  8
0
  6
Continuous
 62
     7
100
AcDbPolyline
 90
        6
 70
     1
 43
0.0
 10
282.9370390112333
 20
128.045302386548
 42
0.5397495660419835
 10
282.5832770745821
 20
127.7500789003226
 10
282.8539742593696
 20
125.3967501007882
 42
0.8138977140032462
 10
283.3914901912294
 20
125.3482661924244
 10
284.0222419115696
 20
127.4282293589882
 42
0.4142135623730953
 10
283.8384879163333
 20
127.771936753548
  0
LWPOLYLINE
  5
953
330
6F
100
AcDbEntity
  8
0
  6
Continuous
 62
     7
100
AcDbPolyline
 90
        9
 70
     0
 43
0.0
 10
278.3252083682695
 20
114.3341130585882
 10
279.6149782064808
 20
114.0363462290976
 42
0.3872111786909492
 10
279.7998916151848
 20
114.1402587907229
 10
280.6331507272696
 20
116.6550658936882
 42
0.4417415536452877
 10
280.5190880443583
 20
116.8580415413787
 10
276.6940420598696
 20
117.7411229887882
 42
0.5129789915798206
 10
276.3577853382824
 20
117.4455713235385
 10
276.9121802360696
 20
111.8192048393882
 42
0.8064428773704095
 10
277.2179485046206
 20
111.7838039028843
  0
LWPOLYLINE
  5
954
330
6F
100
AcDbEntity
  8
0
  6
Continuous
 62
     7
100
AcDbPolyline
 90
        3
 70
     0
 43
0.0
 10
277.2179485045696
 20
111.7838039027882
 10
278.0323585980696
 20
114.1712345950882
 42
-0.3846865675241056
 10
278.3252083683556
 20
114.3341130586845
  0
LWPOLYLINE
  5
955
330
6F
100
AcDbEntity
  8
0
  6
Continuous
 62
     7
100
AcDbPolyline
 90
        6
 70
     1
 43
0.0
 10
272.8884054346622
 20
112.0417182850668
 42
0.5667308503419689
 10
273.1313609788696
 20
111.6360402424071
 10
276.0327366932695
 20
111.6360402424882
 42
0.4432824754626892
 10
276.3069990298567
 20
111.9386552756379
 10
275.8560528601696
 20
116.5151555741882
 42
0.7413547193971924
 10
275.3388349793622
 20
116.6182185835668
  0
LWPOLYLINE
  5
956
330
6F
100
AcDbEntity
  8
0
  6
Continuous
 62
     7
100
AcDbPolyline
 90
        8
 70
     1
 43
0.0
 10
261.1005849798507
 20
112.1478512660882
 42
0.4142135623730951
 10
260.8249944286696
 20
112.4234418172693
 10
257.3201490473696
 20
112.4234418172882
 42
0.5486187866266676
 10
257.0703791848004
 20
112.0313816663959
 10
257.2263175583696
 20
111.6969707449882
 42
0.2914734195860876
 10
257.9399457371696
 20
111.242339455085
 10
260.8249944286696
 20
111.2423394550882
 42
0.4142135623730951
 10
261.1005849798507
 20
111.5179300061882
  0
LWPOLYLINE
  5
957
330
6F
100
AcDbEntity
  8
0
  6
Continuous
 62
     7
100
AcDbPolyline
 90
       14
 70
     1
 43
0.0
 10
260.1036765237519
 20
115.7269067757696
 42
-0.4142135623730951
 10
260.2468322646696
 20
115.8975131443882
 10
262.0608176491871
 20
116.056216301319
 42
-0.4400105308918335
 10
262.3604274995696
 20
115.7816744553882
 10
262.3604274995507
 20
113.2895835494882
 42
-0.4142135623730951
 10
262.0848369483696
 20
113.0139929983882
 10
257.4705232364696
 20
113.0139929983071
 42
-0.5595353483075237
 10
257.2247832205696
 20
113.4143312809882
 10
258.3406412502521
 20
115.6124551808993
 42
-0.2590169341427686
 10
258.5417736146696
 20
115.7483398418882
 10
259.305545935851
 20
115.8151612615057
 42
-0.4142135623730951
 10
259.4761523044696
 20
115.6720055204882
 10
259.4795836329343
 20
115.6327852567511
 42
0.9999999999999998
 10
260.1071078522048
 20
115.6876865120253
  0
LWPOLYLINE
  5
958
330
6F
100
AcDbEntity
  8
0
  6
Continuous
 62
     7
100
AcDbPolyline
 90
        4
 70
     1
 43
0.0
 10
257.0250607591871
 20
115.1952914564771
 42
0.4697589458025677
 10
256.8721611273829
 20
115.548449149002
 42
0.8294962126880815
 10
256.1715934251761
 20
114.1684038665889
 42
0.4697589458020357
 10
256.546923302487
 20
114.2534105511771
  0
LWPOLYLINE
  5
959
330
6F
100
AcDbEntity
  8
0
  6
Continuous
 62
     7
100
AcDbPolyline
 90
        6
 70
     1
 43
0.0
 10
267.5842995374566
 20
112.6796795483995
 42
0.284176919729064
 10
267.294462094133
 20
112.6762296880557
 10
265.8364440534696
 20
111.7505935511882
 42
0.7507543942387113
 10
265.9841526406696
 20
111.242339455007
 10
268.9798957173696
 20
111.2423394550882
 42
0.7601015817719065
 10
269.1220245734566
 20
111.7540434114995
  0
LWPOLYLINE
  5
95A
330
6F
100
AcDbEntity
  8
0
  6
Continuous
 62
     7
100
AcDbPolyline
 90
        8
 70
     1
 43
0.0
 10
266.7808620909696
 20
113.2534352853882
 10
263.7892043085696
 20
115.5745068203882
 42
0.6236931189770121
 10
263.3446794680885
 20
115.3567653273882
 10
263.3446794680696
 20
111.5179300061882
 42
0.4142135623730951
 10
263.6202700192696
 20
111.242339455007
 10
264.2286555507696
 20
111.2423394550882
 42
0.1423646895198394
 10
264.3626483406199
 20
111.2812803821533
 10
266.7596363887696
 20
112.8030302474882
 42
0.5193707453248643
  0
LWPOLYLINE
  5
95B
330
6F
100
AcDbEntity
  8
0
  6
Continuous
 62
     7
100
AcDbPolyline
 90
       10
 70
     1
 43
0.0
 10
271.7676388359696
 20
117.4994137634882
 10
256.2804516882916
 20
116.1444604581643
 42
0.5205670505517463
 10
255.1541176274696
 20
114.1935926383882
 10
256.4424429247942
 20
111.4307701223947
 42
0.2914734195860876
 10
257.6886161319696
 20
110.6368702322882
 10
280.1292267097696
 20
110.6368702322882
 10
286.5812407127696
 20
131.9549007581882
 10
284.0009313642696
 20
132.7358449466882
 10
283.7112527613696
 20
131.7787209698882
 10
276.2509544772696
 20
120.2197646029882
 42
-0.2300693522072082
  0
LWPOLYLINE
  5
95C
330
6F
100
AcDbEntity
  8
0
  6
Continuous
 62
     7
100
AcDbPolyline
 90
       12
 70
     1
 43
0.0
 10
268.186160358233
 20
113.2423325163558
 42
0.557417805345669
 10
268.1917400893825
 20
112.7735555660769
 10
270.6760005399695
 20
111.2781508659882
 42
0.1362980527445386
 10
270.8049317165696
 20
111.2423394550882
 10
271.6407892167696
 20
111.2423394550882
 42
0.2765434468616364
 10
271.8611846033005
 20
111.3743315163897
 10
274.7736080976696
 20
116.8136664361882
 42
0.7713281974991572
 10
274.382943966233
 20
117.1764174726557
 10
269.2586031004696
 20
113.9231826355882
 42
0.3076273530743286
 10
269.1470298957416
 20
113.6652477450166
 42
-0.6795650664789825
 10
268.7545616474685
 20
113.4160856749453
 42
0.3076273530748061
 10
268.4736666040192
 20
113.424858495623
  0
LWPOLYLINE
  5
95D
330
6F
100
AcDbEntity
  8
0
  6
Continuous
 62
     7
100
AcDbPolyline
 90
       18
 70
     1
 43
0.0
 10
272.4998976931062
 20
116.4472878286206
 42
0.7854411917912461
 10
272.3281698066871
 20
116.954493219519
 10
264.3337079451696
 20
116.2550684356882
 42
0.6821152298338004
 10
264.188792955021
 20
115.7627850967681
 10
267.2907356938696
 20
113.3561492051882
 42
0.3163344142001177
 10
267.6073785704061
 20
113.3412271532206
 10
268.0515404165695
 20
113.6232073783882
 42
0.4142135623730948
 10
268.1286066997044
 20
113.9682592411385
 10
267.6027020800695
 20
114.7966391979882
 42
-0.9999999999999998
 10
268.0248202260044
 20
115.0646247776385
 10
268.5507248455696
 20
114.2362448208882
 42
0.4142135623730953
 10
268.8957767083199
 20
114.1591785377533
 10
269.5042818328695
 20
114.5454936017882
 42
0.4142135623730948
 10
269.5813481159045
 20
114.8905454645385
 10
269.5337113593696
 20
114.9655806190882
 42
-0.9999999999999998
 10
269.9558295052044
 20
115.2335661987385
 10
270.0034662617696
 20
115.1585310442882
 42
0.4142135623730953
 10
270.3485181245199
 20
115.0814647611533
  0
CIRCLE
  5
95E
330
6F
100
AcDbEntity
  8
0
100
AcDbCircle
 10
282.2928128017696
 20
121.2376536278882
 30
0.0
 40
0.065
  0
CIRCLE
  5
95F
330
6F
100
AcDbEntity
  8
0
100
AcDbCircle
 10
283.6050224159696
 20
128.6264625526882
 30
0.0
 40
0.065
  0
CIRCLE
  5
960
330
6F
100
AcDbEntity
  8
0
100
AcDbCircle
 10
284.6826612762696
 20
129.1339264365882
 30
0.0
 40
0.065
  0
CIRCLE
  5
961
330
6F
100
AcDbEntity
  8
0
100
AcDbCircle
 10
284.4155068707696
 20
131.3043755793882
 30
0.0
 40
0.065
  0
CIRCLE
  5
962
330
6F
100
AcDbEntity
  8
0
100
AcDbCircle
 10
280.2791495586696
 20
117.4265862329882
 30
0.0
 40
0.065
  0
CIRCLE
  5
963
330
6F
100
AcDbEntity
  8
0
100
AcDbCircle
 10
280.6995804853695
 20
115.9734717554882
 30
0.0
 40
0.065
  0
CIRCLE
  5
964
330
6F
100
AcDbEntity
  8
0
100
AcDbCircle
 10
278.7710131317695
 20
113.7204739292882
 30
0.0
 40
0.065
  0
CIRCLE
  5
965
330
6F
100
AcDbEntity
  8
0
100
AcDbCircle
 10
278.1900589876695
 20
111.9926028174882
 30
0.0
 40
0.065
  0
CIRCLE
  5
966
330
6F
100
AcDbEntity
  8
0
100
AcDbCircle
 10
262.8525534837696
 20
114.8348591400882
 30
0.0
 40
0.065
  0
CIRCLE
  5
967
330
6F
100
AcDbEntity
  8
0
100
AcDbCircle
 10
262.8525534837696
 20
112.5317095337882
 30
0.0
 40
0.065
  0
MTEXT
  5
968
102
{ACAD_XDICTIONARY
360
969
102
}
330
6F
100
AcDbEntity
  8
Info
100
AcDbMText
 10
268.9160569511931
 20
110.8139270229574
 30
0.0
 40
0.05
 41
5.317259646414134
 46
0.0
 71
     2
 72
     5
  1
LH Seat Bucket Exterior Detail - Qty 1 - PN# OH3A2A-32 - CNC - Item 23 - Thick .25" (6.35mm)
  7
Annotative
 73
     1
 44
1.0
1001
AcadAnnotative
1000
AnnotativeData
1002
{
1070
     1
1070
     1
1002
}
1001
ACAD
1000
ACAD_MTEXT_COLUMN_INFO_BEGIN
1070
    75
1070
     2
1070
    79
1070
     0
1070
    76
1070
     1
1070
    78
1070
     0
1070
    48
1040
5.317259646414134
1070
    49
1040
0.625
1070
    50
1070
     1
1040
0.0830158434547273
1000
ACAD_MTEXT_COLUMN_INFO_END
  0
CIRCLE
  5
98D
330
6F
100
AcDbEntity
  8
0
  6
Continuous
 62
     7
100
AcDbCircle
 10
214.7929123974649
 20
133.9810036420886
 30
0.0
 40
0.1874999999999996
  0
CIRCLE
  5
98E
330
6F
100
AcDbEntity
  8
0
  6
Continuous
 62
     7
100
AcDbCircle
 10
213.9182286788649
 20
132.7352034683886
 30
0.0
 40
0.0847499999999999
  0
CIRCLE
  5
98F
330
6F
100
AcDbEntity
  8
0
  6
Continuous
 62
     7
100
AcDbCircle
 10
214.0067514465649
 20
133.5211652983886
 30
0.0
 40
0.0847499999999999
  0
CIRCLE
  5
990
330
6F
100
AcDbEntity
  8
0
  6
Continuous
 62
     7
100
AcDbCircle
 10
231.7826202959649
 20
133.1853215886885
 30
0.0
 40
0.0625
  0
CIRCLE
  5
991
330
6F
100
AcDbEntity
  8
0
  6
Continuous
 62
     7
100
AcDbCircle
 10
233.3758526123649
 20
127.9211397162886
 30
0.0
 40
0.0625
  0
CIRCLE
  5
992
330
6F
100
AcDbEntity
  8
0
  6
Continuous
 62
     7
100
AcDbCircle
 10
235.7657010868649
 20
120.0248669075886
 30
0.0
 40
0.0625000000000018
  0
CIRCLE
  5
993
330
6F
100
AcDbEntity
  8
0
  6
Continuous
 62
     7
100
AcDbCircle
 10
235.4985466813649
 20
117.8544177647885
 30
0.0
 40
0.0625
  0
CIRCLE
  5
994
330
6F
100
AcDbEntity
  8
0
  6
Continuous
 62
     7
100
AcDbCircle
 10
234.6880622265649
 20
120.5323307914885
 30
0.0
 40
0.0625
  0
CIRCLE
  5
995
330
6F
100
AcDbEntity
  8
0
  6
Continuous
 62
     7
100
AcDbCircle
 10
231.3621893692649
 20
131.7322071111886
 30
0.0
 40
0.0625000000000002
  0
CIRCLE
  5
996
330
6F
100
AcDbEntity
  8
0
  6
Continuous
 62
     7
100
AcDbCircle
 10
229.8540529423649
 20
135.4383194148886
 30
0.0
 40
0.0625000000000004
  0
CIRCLE
  5
997
330
6F
100
AcDbEntity
  8
0
  6
Continuous
 62
     7
100
AcDbCircle
 10
229.2730987982649
 20
137.1661905266886
 30
0.0
 40
0.0625000000000009
  0
CIRCLE
  5
998
330
6F
100
AcDbEntity
  8
0
  6
Continuous
 62
     7
100
AcDbCircle
 10
213.935593294365
 20
134.3239342040885
 30
0.0
 40
0.0625
  0
CIRCLE
  5
999
330
6F
100
AcDbEntity
  8
0
  6
Continuous
 62
     7
100
AcDbCircle
 10
213.935593294365
 20
136.6270838103885
 30
0.0
 40
0.0625000000000004
  0
CIRCLE
  5
99A
330
6F
100
AcDbEntity
  8
0
  6
Continuous
 62
     7
100
AcDbCircle
 10
210.5308745302649
 20
132.1913631061886
 30
0.0
 40
0.0967499999999999
  0
CIRCLE
  5
99B
330
6F
100
AcDbEntity
  8
0
  6
Continuous
 62
     7
100
AcDbCircle
 10
219.7243477298649
 20
129.8023599145885
 30
0.0
 40
0.0787401574829789
  0
LWPOLYLINE
  5
99C
330
6F
100
AcDbEntity
  8
0
  6
Continuous
 62
     7
100
AcDbPolyline
 90
       27
 70
     1
 43
0.0
 10
214.4168146025649
 20
129.7668475898886
 42
0.3963571583351189
 10
214.5415794520649
 20
129.8841838867886
 10
214.6463251091277
 20
131.589439948969
 42
-0.4142135623730951
 10
214.7787536616649
 20
131.7065410953886
 10
214.8884026130845
 20
131.6998058889513
 42
0.3960927722003656
 10
215.020112563165
 20
131.8091587759885
 10
215.0337500327864
 20
131.9189226641116
 42
-0.4142135623730956
 10
215.173208242265
 20
132.0275569486886
 10
219.6486289297649
 20
131.4715142058886
 10
219.712048453853
 20
130.227182735825
 42
-0.2666801973215099
 10
219.5992234975423
 20
130.0052404281667
 42
0.2663802099804032
 10
219.4863844410564
 20
129.7835778554729
 42
0.4145048167725831
 10
219.7546502143649
 20
129.5530181827886
 10
219.9411325388497
 20
129.567207581901
 42
0.0562163862131196
 10
220.3745905657649
 20
129.6497874087886
 10
222.8924274757148
 20
130.4302254673434
 42
-0.3364537487931303
 10
227.437497540165
 20
128.7786612154885
 10
234.794292571965
 20
117.3800723742886
 10
235.0839711748649
 20
116.4229483974886
 10
237.6642805233649
 20
117.2038925859886
 10
231.2122665203649
 20
138.5219231118886
 10
208.7716559425649
 20
138.5219231118886
 42
0.2914734195860877
 10
207.5254827353649
 20
137.7280232217886
 10
206.2824613137896
 20
135.062355180882
 42
0.3894220243369521
 10
206.8433831755649
 20
133.2891747072885
 10
212.6975729458114
 20
129.9239725458827
 42
0.1311725110559856
 10
213.2861925696649
 20
129.7668475898838
  0
MTEXT
  5
99D
102
{ACAD_XDICTIONARY
360
99E
102
}
330
6F
100
AcDbEntity
  8
Info
100
AcDbMText
 10
219.9811610725165
 20
138.3403909416816
 30
0.0
 40
0.05
 41
5.317259646414134
 46
0.0
 71
     2
 72
     5
  1
RH Seat Bucket Exterior - Qty 1 - PN# OH3A2A-33 - CNC - Item 24 - Thick .25" (6.35mm)
  7
Annotative
 11
-1.0
 21
0.0000000000000001
 31
0.0
 73
     1
 44
1.0
1001
AcadAnnotative
1000
AnnotativeData
1002
{
1070
     1
1070
     1
1002
}
1001
ACAD
1000
ACAD_MTEXT_COLUMN_INFO_BEGIN
1070
    75
1070
     2
1070
    79
1070
     0
1070
    76
1070
     1
1070
    78
1070
     0
1070
    48
1040
5.317259646414134
1070
    49
1040
0.625
1070
    50
1070
     1
1040
0.0830158434547273
1000
ACAD_MTEXT_COLUMN_INFO_END
  0
CIRCLE
  5
9E3
330
6F
100
AcDbEntity
  8
0
  6
Continuous
 62
     7
100
AcDbCircle
 10
223.5892260917873
 20
116.436246681457
 30
0.0
 40
0.08475
  0
CIRCLE
  5
9E4
330
6F
100
AcDbEntity
  8
0
  6
Continuous
 62
     7
100
AcDbCircle
 10
223.5007033240873
 20
115.650284851457
 30
0.0
 40
0.08475
  0
CIRCLE
  5
9E5
330
6F
100
AcDbEntity
  8
0
  6
Continuous
 62
     7
100
AcDbCircle
 10
205.7248344746873
 20
115.986128561157
 30
0.0
 40
0.2000000000000001
  0
CIRCLE
  5
9E6
330
6F
100
AcDbEntity
  8
0
  6
Continuous
 62
     7
100
AcDbCircle
 10
204.1316021582872
 20
121.250310433557
 30
0.0
 40
0.2000000000000002
  0
CIRCLE
  5
9E7
330
6F
100
AcDbEntity
  8
0
  6
Continuous
 62
     7
100
AcDbCircle
 10
201.7417536837873
 20
129.146583242257
 30
0.0
 40
0.2000000000000011
  0
CIRCLE
  5
9E8
330
6F
100
AcDbEntity
  8
0
  6
Continuous
 62
     7
100
AcDbCircle
 10
202.0089080892873
 20
131.317032385057
 30
0.0
 40
0.2000000000000011
  0
CIRCLE
  5
9E9
330
6F
100
AcDbEntity
  8
0
  6
Continuous
 62
     7
100
AcDbCircle
 10
202.8193925440873
 20
128.639119358357
 30
0.0
 40
0.2000000000000011
  0
CIRCLE
  5
9EA
330
6F
100
AcDbEntity
  8
0
  6
Continuous
 62
     7
100
AcDbCircle
 10
206.1452654013872
 20
117.439243038657
 30
0.0
 40
0.2
  0
CIRCLE
  5
9EB
330
6F
100
AcDbEntity
  8
0
  6
Continuous
 62
     7
100
AcDbCircle
 10
207.6534018282873
 20
113.7331307349569
 30
0.0
 40
0.1999999999999997
  0
CIRCLE
  5
9EC
330
6F
100
AcDbEntity
  8
0
  6
Continuous
 62
     7
100
AcDbCircle
 10
208.2343559723873
 20
112.0052596231569
 30
0.0
 40
0.1999999999999997
  0
CIRCLE
  5
9ED
330
6F
100
AcDbEntity
  8
0
  6
Continuous
 62
     7
100
AcDbCircle
 10
223.5718614762873
 20
114.847515945757
 30
0.0
 40
0.2
  0
CIRCLE
  5
9EE
330
6F
100
AcDbEntity
  8
0
  6
Continuous
 62
     7
100
AcDbCircle
 10
223.5718614762873
 20
112.544366339457
 30
0.0
 40
0.2000000000000002
  0
CIRCLE
  5
9EF
330
6F
100
AcDbEntity
  8
0
  6
Continuous
 62
     7
100
AcDbCircle
 10
227.4319498796873
 20
117.211830209057
 30
0.0
 40
0.0680000000000001
  0
CIRCLE
  5
9F0
330
6F
100
AcDbEntity
  8
0
  6
Continuous
 62
     7
100
AcDbCircle
 10
226.9765802403873
 20
117.491033619257
 30
0.0
 40
0.0679999999999998
  0
CIRCLE
  5
9F1
330
6F
100
AcDbEntity
  8
0
  6
Continuous
 62
     7
100
AcDbCircle
 10
222.8667215125873
 20
117.1244809356569
 30
0.0
 40
0.0679999999999998
  0
CIRCLE
  5
9F2
330
6F
100
AcDbEntity
  8
0
  6
Continuous
 62
     7
100
AcDbCircle
 10
223.3278436411873
 20
118.998545990157
 30
0.0
 40
0.0680000000000001
  0
CIRCLE
  5
9F3
330
6F
100
AcDbEntity
  8
0
  6
Continuous
 62
     7
100
AcDbCircle
 10
226.9765802403873
 20
116.980087043657
 30
0.0
 40
0.09675
  0
CIRCLE
  5
9F4
330
6F
100
AcDbEntity
  8
0
  6
Continuous
 62
     7
100
AcDbCircle
 10
217.7831070407873
 20
119.3690902352569
 30
0.0
 40
0.0787401574829789
  0
LWPOLYLINE
  5
9F5
330
6F
100
AcDbEntity
  8
0
  6
Continuous
 62
     7
100
AcDbPolyline
 90
        5
 70
     0
 43
0.0
 10
205.8018573558872
 20
117.857587342557
 10
209.0580898769253
 20
118.8431829246487
 42
0.6655953349999081
 10
209.1100466628873
 20
119.3489887795569
 10
204.8540181864031
 20
121.6665412269537
 42
0.6707681210563093
 10
204.458450266379
 20
121.3446693068189
  0
LWPOLYLINE
  5
9F6
330
6F
100
AcDbEntity
  8
0
  6
Continuous
 62
     7
100
AcDbPolyline
 90
        3
 70
     0
 43
0.0
 10
204.4584502662873
 20
121.344669306757
 10
205.4582462217872
 20
118.041521277357
 42
0.4142135623730951
 10
205.8018573558253
 20
117.8575873426487
  0
LWPOLYLINE
  5
9F7
330
6F
100
AcDbEntity
  8
0
  6
Continuous
 62
     7
100
AcDbPolyline
 90
        8
 70
     1
 43
0.0
 10
203.6278914223182
 20
124.1598526076815
 42
0.1025980045953245
 10
203.6369593814884
 20
124.058729093271
 10
204.1528075642872
 20
122.354458437757
 42
0.1970542020729599
 10
204.2725296921214
 20
122.2073246552778
 10
208.6835077082873
 20
119.805396906657
 42
0.7771467497000869
 10
209.0468510271581
 20
120.1968815787678
 10
204.4793828764873
 20
127.273350270257
 42
0.7039091300069958
 10
203.9740662333159
 20
127.1555350592139
  0
LWPOLYLINE
  5
9F8
330
6F
100
AcDbEntity
  8
0
  6
Continuous
 62
     7
100
AcDbPolyline
 90
        6
 70
     1
 43
0.0
 10
202.5909871306492
 20
127.7862342882652
 42
0.414213562373095
 10
202.407053195879
 20
127.4426231542189
 10
203.0367157636872
 20
125.362330011957
 42
0.813897714003246
 10
203.5742570079587
 20
125.410532471
 10
203.8461863556873
 20
127.7637192112569
 42
0.5397495660419838
 10
203.4925790461492
 20
128.0591278863652
  0
LWPOLYLINE
  5
9F9
330
6F
100
AcDbEntity
  8
0
  6
Continuous
 62
     7
100
AcDbPolyline
 90
        8
 70
     1
 43
0.0
 10
218.2326748706743
 20
112.7862123717457
 42
0.557417805345669
 10
218.2382546018239
 20
113.2549893220245
 10
212.0414709937873
 20
117.189074278357
 42
0.771328197499156
 10
211.6508068623799
 20
116.8263232418783
 10
214.5632303566872
 20
111.386988322057
 42
0.2765434468616373
 10
214.7836257432873
 20
111.254996260757
 10
215.6194832434873
 20
111.254996260757
 42
0.1362980527445386
 10
215.7484144200805
 20
111.2908076716532
  0
LWPOLYLINE
  5
9FA
330
6F
100
AcDbEntity
  8
0
  6
Continuous
 62
     7
100
AcDbPolyline
 90
        7
 70
     1
 43
0.0
 10
222.5438224134358
 20
116.0145585551369
 42
0.650490844388537
 10
222.4228360103094
 20
116.5036875056916
 10
217.4830255197873
 20
117.3764377555569
 10
216.0972971094873
 20
117.311897714957
 10
215.4548020308872
 20
115.488429304857
 10
218.8170363896873
 20
113.353883958857
 42
0.3163344142001167
 10
219.1336792662358
 20
113.3688060108369
  0
LWPOLYLINE
  5
9FB
330
6F
100
AcDbEntity
  8
0
  6
Continuous
 62
     7
100
AcDbPolyline
 90
       10
 70
     1
 43
0.0
 10
227.695904076465
 20
116.3891746975866
 42
0.3681235555048113
 10
227.3661297534445
 20
116.5268929394247
 10
226.8236397731873
 20
116.3532027309569
 42
-0.0842198645650751
 10
224.8680373423471
 20
116.0739927595157
 10
224.3468051512873
 20
116.087666355357
 42
0.4219163616630272
 10
224.0639874605061
 20
115.812170583357
 10
224.0639874604873
 20
113.302240355157
 42
0.4142135623730951
 10
224.3395780116872
 20
113.0266498039759
 10
228.9538917235873
 20
113.0266498040569
 42
0.5595353483075241
 10
229.1996317394648
 20
113.4269880865865
  0
LWPOLYLINE
  5
9FC
330
6F
100
AcDbEntity
  8
0
  6
Continuous
 62
     7
100
AcDbPolyline
 90
        8
 70
     1
 43
0.0
 10
223.0797354919872
 20
111.530586811857
 10
223.0797354919872
 20
115.369422133057
 42
0.6236931189770122
 10
222.6352106514387
 20
115.587163626077
 10
219.6435528690873
 20
113.266092091057
 42
0.5193707453248642
 10
219.6647785712507
 20
112.8156870530894
 10
222.0617666194872
 20
111.2939371877569
 42
0.1423646895198394
 10
222.1957594092873
 20
111.254996260757
 10
222.8041449407873
 20
111.254996260757
 42
0.4142135623730951
  0
LWPOLYLINE
  5
9FD
330
6F
100
AcDbEntity
  8
0
  6
Continuous
 62
     7
100
AcDbPolyline
 90
        6
 70
     1
 43
0.0
 10
210.1174159302001
 20
111.9513120813067
 42
0.443282475462689
 10
210.3916782667873
 20
111.6486970480758
 10
213.2930539811872
 20
111.648697048157
 42
0.566730850341968
 10
213.5360095253946
 20
112.0543750907356
 10
211.0855799806873
 20
116.630875389257
 42
0.7413547193971936
 10
210.5683620999001
 20
116.5278123798067
  0
LWPOLYLINE
  5
9FE
330
6F
100
AcDbEntity
  8
0
  6
Continuous
 62
     7
100
AcDbPolyline
 90
       11
 70
     1
 43
0.0
 10
209.2064664554363
 20
111.7964607084531
 42
0.8064428773704095
 10
209.5122347239799
 20
111.8318616449857
 10
209.6951371122873
 20
113.688076179557
 10
208.8677709549873
 20
117.271792728957
 42
0.4142135623730953
 10
208.5372493867319
 20
117.4783255271655
 10
205.9053269156872
 20
116.870698347057
 42
0.4417415536452875
 10
205.791264232772
 20
116.6677226992917
 10
206.6245233448873
 20
114.1529155964569
 42
0.3872111786909494
 10
206.809436753576
 20
114.0490030347664
 10
208.0992065917873
 20
114.346769864257
 42
-0.3846865675241053
 10
208.392056361982
 20
114.1838914006618
  0
LWPOLYLINE
  5
9FF
330
6F
100
AcDbEntity
  8
0
  6
Continuous
 62
     7
100
AcDbPolyline
 90
        6
 70
     1
 43
0.0
 10
219.1299528659238
 20
112.6888864937245
 42
0.2841769197290638
 10
218.8401154226002
 20
112.6923363540682
 10
217.3023903865872
 20
111.766700217257
 42
0.7601015817719068
 10
217.4445192426873
 20
111.2549962606758
 10
220.4402623193873
 20
111.254996260757
 42
0.7507543942387113
 10
220.5879709066238
 20
111.7632503568245
  0
LWPOLYLINE
  5
A00
330
6F
100
AcDbEntity
  8
0
  6
Continuous
 62
     7
100
AcDbPolyline
 90
       27
 70
     1
 43
0.0
 10
224.2212622009873
 20
119.404602559957
 10
223.0906401680873
 20
119.404602559957
 42
0.3963571583351189
 10
222.9658753185873
 20
119.287266263057
 10
222.8611296615245
 20
117.5820102008765
 42
-0.4142135623730951
 10
222.7287011089873
 20
117.464909054457
 10
222.6190521575677
 20
117.4716442608942
 42
0.3960927722003662
 10
222.4873422074873
 20
117.362291373857
 10
222.4737047378658
 20
117.2525274857339
 42
-0.4142135623730955
 10
222.3342465283873
 20
117.143893201157
 10
217.8588258408873
 20
117.699935943957
 10
217.7954063167991
 20
118.9442674140205
 42
-0.2666801973215095
 10
217.9082312731099
 20
119.1662097216788
 42
0.2663802099804035
 10
218.0210703295958
 20
119.3878722943726
 42
0.4145048167725843
 10
217.7528045562873
 20
119.6184319670569
 10
217.5663222318025
 20
119.6042425679445
 42
0.0562163862131195
 10
217.1328642048873
 20
119.5216627410569
 10
214.6150272949374
 20
118.7412246825021
 42
-0.3364537487931305
 10
210.0699572304872
 20
120.392788934357
 10
202.7131621986872
 20
131.791377775557
 10
202.4234835957873
 20
132.748501752357
 10
199.8431742472872
 20
131.967557563857
 10
206.2951882502872
 20
110.649527037957
 10
228.7357988280873
 20
110.649527037957
 42
0.2914734195860877
 10
229.9819720352873
 20
111.4434269280569
 10
231.2249934568626
 20
114.1090949689635
 42
0.3894220243369521
 10
230.6640715950873
 20
115.882275442557
 10
224.8098818247873
 20
119.2474776039569
 42
0.1311725110559857
  0
LWPOLYLINE
  5
A01
330
6F
100
AcDbEntity
  8
0
  6
Continuous
 62
     7
100
AcDbPolyline
 90
        4
 70
     1
 43
0.0
 10
229.8774916575698
 20
114.2660673568459
 42
0.4697589458020345
 10
230.2528215348207
 20
114.1810606721795
 42
0.8294962126880832
 10
229.5522538326861
 20
115.5611059547502
 42
0.4697589458025676
 10
229.3993542008698
 20
115.2079482621459
  0
LWPOLYLINE
  5
A02
330
6F
100
AcDbEntity
  8
0
  6
Continuous
 62
     7
100
AcDbPolyline
 90
        8
 70
     1
 43
0.0
 10
229.3540357752561
 20
112.0440384720637
 42
0.5486187866278032
 10
229.1042659126873
 20
112.4360986229381
 10
225.5994205313873
 20
112.436098622957
 42
0.4142135623730956
 10
225.3238299802062
 20
112.1605080717574
 10
225.3238299801873
 20
111.530586811857
 42
0.414213562374118
 10
225.5994205313873
 20
111.2549962606757
 10
228.4844692228872
 20
111.254996260757
 42
0.2914734195860877
 10
229.1980974016563
 20
111.7096275507218
  0
CIRCLE
  5
A03
330
6F
100
AcDbEntity
  8
0
100
AcDbCircle
 10
202.0089080892873
 20
131.317032385057
 30
0.0
 40
0.065
  0
CIRCLE
  5
A04
330
6F
100
AcDbEntity
  8
0
100
AcDbCircle
 10
201.7417536837873
 20
129.146583242257
 30
0.0
 40
0.065
  0
CIRCLE
  5
A05
330
6F
100
AcDbEntity
  8
0
100
AcDbCircle
 10
202.8193925440873
 20
128.639119358357
 30
0.0
 40
0.065
  0
CIRCLE
  5
A06
330
6F
100
AcDbEntity
  8
0
100
AcDbCircle
 10
204.1316021582872
 20
121.250310433557
 30
0.0
 40
0.065
  0
CIRCLE
  5
A07
330
6F
100
AcDbEntity
  8
0
100
AcDbCircle
 10
206.1452654013872
 20
117.439243038657
 30
0.0
 40
0.065
  0
CIRCLE
  5
A08
330
6F
100
AcDbEntity
  8
0
100
AcDbCircle
 10
205.7248344746873
 20
115.986128561157
 30
0.0
 40
0.065
  0
CIRCLE
  5
A09
330
6F
100
AcDbEntity
  8
0
100
AcDbCircle
 10
207.6534018282873
 20
113.7331307349569
 30
0.0
 40
0.065
  0
CIRCLE
  5
A0A
330
6F
100
AcDbEntity
  8
0
100
AcDbCircle
 10
208.2343559723873
 20
112.0052596231569
 30
0.0
 40
0.065
  0
CIRCLE
  5
A0B
330
6F
100
AcDbEntity
  8
0
100
AcDbCircle
 10
223.5718614762873
 20
114.847515945757
 30
0.0
 40
0.065
  0
CIRCLE
  5
A0C
330
6F
100
AcDbEntity
  8
0
100
AcDbCircle
 10
223.5718614762873
 20
112.544366339457
 30
0.0
 40
0.065
  0
MTEXT
  5
A0D
102
{ACAD_XDICTIONARY
360
A0E
102
}
330
6F
100
AcDbEntity
  8
Info
100
AcDbMText
 10
217.5204863567335
 20
110.8303938031012
 30
0.0
 40
0.05
 41
4.444364789627686
 46
0.0
 71
     2
 72
     5
  1
RH Seat Bucket Exterior Detail - Qty 1 - PN# OH3A2A-34 - CNC - Item 25 - Thick .25" (6.35mm)
  7
Annotative
 73
     1
 44
1.0
1001
AcadAnnotative
1000
AnnotativeData
1002
{
1070
     1
1070
     1
1002
}
1001
ACAD
1000
ACAD_MTEXT_COLUMN_INFO_BEGIN
1070
    75
1070
     2
1070
    79
1070
     0
1070
    76
1070
     1
1070
    78
1070
     0
1070
    48
1040
4.444364789627686
1070
    49
1040
0.625
1070
    50
1070
     1
1040
0.0830158434547273
1000
ACAD_MTEXT_COLUMN_INFO_END
  0
CIRCLE
  5
A4F
330
6F
100
AcDbEntity
  8
0
  6
Continuous
 62
     7
100
AcDbCircle
 10
221.9688294842608
 20
124.477119550215
 30
0.0
 40
0.1999999999999993
  0
CIRCLE
  5
A50
330
6F
100
AcDbEntity
  8
0
  6
Continuous
 62
     7
100
AcDbCircle
 10
215.5475696419608
 20
124.477119550215
 30
0.0
 40
0.1999999999999975
  0
CIRCLE
  5
A51
330
6F
100
AcDbEntity
  8
0
  6
Continuous
 62
     7
100
AcDbCircle
 10
218.7581995631608
 20
125.1333766784149
 30
0.0
 40
0.125
  0
LWPOLYLINE
  5
A52
330
6F
100
AcDbEntity
  8
0
  6
Continuous
 62
     7
100
AcDbPolyline
 90
        4
 70
     1
 43
0.0
 10
222.3438294842608
 20
122.0708624220149
 10
215.1725696419608
 20
122.0708624220149
 10
215.1725696419608
 20
126.883376678415
 10
222.3438294842608
 20
126.883376678415
  0
CIRCLE
  5
A53
330
6F
100
AcDbEntity
  8
0
100
AcDbCircle
 10
221.9688294842608
 20
124.477119550215
 30
0.0
 40
0.065
  0
CIRCLE
  5
A54
330
6F
100
AcDbEntity
  8
0
100
AcDbCircle
 10
215.5475696419608
 20
124.477119550215
 30
0.0
 40
0.065
  0
MTEXT
  5
A55
102
{ACAD_XDICTIONARY
360
A56
102
}
330
6F
100
AcDbEntity
  8
Info
100
AcDbMText
 10
218.7604735371609
 20
122.2509974195499
 30
0.0
 40
0.05
 41
3.632685969347309
 46
0.0
 71
     2
 72
     5
  1
Upper Rail Cap - Qty 1 - PN# OH3A2A-57 - CNC - Item 48 - Thick .25" (6.35mm)
  7
Annotative
 73
     1
 44
1.0
1001
AcadAnnotative
1000
AnnotativeData
1002
{
1070
     1
1070
     1
1002
}
1001
ACAD
1000
ACAD_MTEXT_COLUMN_INFO_BEGIN
1070
    75
1070
     2
1070
    79
1070
     0
1070
    76
1070
     1
1070
    78
1070
     0
1070
    48
1040
3.632685969347309
1070
    49
1040
0.625
1070
    50
1070
     1
1040
0.0830158434547273
1000
ACAD_MTEXT_COLUMN_INFO_END
  0
CIRCLE
  5
A76
330
6F
100
AcDbEntity
  8
0
  6
Continuous
 62
     7
100
AcDbCircle
 10
266.1823056028989
 20
127.6787892659491
 30
0.0
 40
0.0625000000000001
  0
CIRCLE
  5
A77
330
6F
100
AcDbEntity
  8
0
  6
Continuous
 62
     7
100
AcDbCircle
 10
266.1823056028989
 20
120.9287892659491
 30
0.0
 40
0.0625000000000001
  0
CIRCLE
  5
A78
330
6F
100
AcDbEntity
  8
0
  6
Continuous
 62
     7
100
AcDbCircle
 10
272.3535654451989
 20
120.9287892659491
 30
0.0
 40
0.0625000000000009
  0
CIRCLE
  5
A79
330
6F
100
AcDbEntity
  8
0
  6
Continuous
 62
     7
100
AcDbCircle
 10
272.3535654451989
 20
127.6787892659491
 30
0.0
 40
0.0625
  0
LWPOLYLINE
  5
A7A
330
6F
100
AcDbEntity
  8
0
  6
Continuous
 62
     7
100
AcDbPolyline
 90
        6
 70
     1
 43
0.0
 10
272.8535654451988
 20
129.5537892659491
 10
265.6823056028989
 20
129.5537892659491
 10
265.6823056028989
 20
120.9287892659491
 42
0.4142135623730951
 10
266.1823056028989
 20
120.4287892659491
 10
272.3535654451989
 20
120.4287892659491
 42
0.4142135623730951
 10
272.8535654451989
 20
120.9287892659491
  0
MTEXT
  5
A7B
102
{ACAD_XDICTIONARY
360
A7C
102
}
330
6F
100
AcDbEntity
  8
Info
100
AcDbMText
 10
269.2699034803188
 20
120.6083735843029
 30
0.0
 40
0.05
 41
3.632685969347309
 46
0.0
 71
     2
 72
     5
  1
Aft Rail Cap - Qty 1 - PN# OH3A2A-58 - CNC - Item 49 - Thick .25" (6.35mm)
  7
Annotative
 73
     1
 44
1.0
1001
AcadAnnotative
1000
AnnotativeData
1002
{
1070
     1
1070
     1
1002
}
1001
ACAD
1000
ACAD_MTEXT_COLUMN_INFO_BEGIN
1070
    75
1070
     2
1070
    79
1070
     0
1070
    76
1070
     1
1070
    78
1070
     0
1070
    48
1040
3.632685969347309
1070
    49
1040
0.625
1070
    50
1070
     1
1040
0.0830158434547273
1000
ACAD_MTEXT_COLUMN_INFO_END
  0
LWPOLYLINE
  5
ACC
330
6F
100
AcDbEntity
  8
0
  6
Continuous
 62
     6
100
AcDbPolyline
 90
        4
 70
     1
 43
0.0
 10
198.8000372784459
 20
139.5538837106768
 10
238.8000372784459
 20
139.5538837106768
 10
238.8000372784459
 20
109.5538837106768
 10
198.8000372784459
 20
109.5538837106768
  0
LWPOLYLINE
  5
ACD
330
6F
100
AcDbEntity
  8
0
  6
Continuous
 62
     6
100
AcDbPolyline
 90
        4
 70
     1
 43
0.0
 10
291.2312577632958
 20
5.085494799166156
 10
291.2312577632958
 20
53.08549479916615
 10
195.2312577632958
 20
53.08549479916615
 10
195.2312577632958
 20
5.085494799166156
  0
LWPOLYLINE
  5
ACE
330
6F
100
AcDbEntity
  8
0
  6
Continuous
 62
     6
100
AcDbPolyline
 90
        4
 70
     1
 43
0.0
 10
247.6624782481458
 20
139.5538837106768
 10
287.6624782481458
 20
139.5538837106768
 10
287.6624782481458
 20
109.5538837106768
 10
247.6624782481458
 20
109.5538837106768
  0
TEXT
  5
ACF
330
6F
100
AcDbEntity
  8
Info
  6
Continuous
 62
     4
100
AcDbText
 10
187.2312577632958
 20
-3.68729169097827
 30
0.0
 40
3.0
  1
48" X 96" (1219.2mm) X (2438.4mm) Nesting 
 72
     1
 11
243.2312577632958
 21
-3.68729169097827
 31
0.0
100
AcDbText
  0
TEXT
  5
AD0
330
6F
100
AcDbEntity
  8
Info
  6
Continuous
 62
     4
100
AcDbText
 10
201.9812577632958
 20
-8.68729169097827
 30
0.0
 40
3.0
  1
Material 2.5" (6.35mm) Thick MDF
 72
     1
 11
243.2312577632958
 21
-8.68729169097827
 31
0.0
100
AcDbText
  0
TEXT
  5
AD1
330
6F
100
AcDbEntity
  8
Info
  6
Continuous
 62
     4
100
AcDbText
 10
203.4812577632958
 20
-13.68729169097827
 30
0.0
 40
3.0
  1
1" (25.4mm) border clearance 
 72
     1
 11
243.2312577632958
 21
-13.68729169097827
 31
0.0
100
AcDbText
  0
TEXT
  5
AD2
330
6F
100
AcDbEntity
  8
Info
  6
Continuous
 62
     4
100
AcDbText
 10
193.4812577632958
 20
102.3142590113796
 30
0.0
 40
3.0
  1
40" X 30" (1016mm) X (762mm) Nesting 
 72
     1
 11
243.2312577632958
 21
102.3142590113796
 31
0.0
100
AcDbText
  0
TEXT
  5
AD3
330
6F
100
AcDbEntity
  8
Info
  6
Continuous
 62
     4
100
AcDbText
 10
201.9812577632958
 20
97.31425901137965
 30
0.0
 40
3.0
  1
Material 2.5" (6.35mm) Thick MDF
 72
     1
 11
243.2312577632958
 21
97.31425901137965
 31
0.0
100
AcDbText
  0
TEXT
  5
AD4
330
6F
100
AcDbEntity
  8
Info
  6
Continuous
 62
     4
100
AcDbText
 10
203.4812577632958
 20
92.31425901137965
 30
0.0
 40
3.0
  1
1" (25.4mm) border clearance 
 72
     1
 11
243.2312577632958
 21
92.31425901137965
 31
0.0
100
AcDbText
  0
MTEXT
  5
AD5
330
6F
100
AcDbEntity
  8
Info
  6
Continuous
 62
     4
100
AcDbMText
 10
240.7357486458538
 20
206.3703066842111
 30
0.0
 40
8.0
 41
208.7087458293922
 46
0.0
 71
     2
 72
     5
  1
SJU-17 Ejection Seat \P.25" (6.35mm) MDF Parts Nesting
 73
     1
 44
1.0
1001
ACAD
1000
ACAD_MTEXT_COLUMN_INFO_BEGIN
1070
    75
1070
     2
1070
    79
1070
     0
1070
    76
1070
     1
1070
    78
1070
     0
1070
    48
1040
208.7087458293922
1070
    49
1040
15.0
1070
    50
1070
     1
1040
0.0
1000
ACAD_MTEXT_COLUMN_INFO_END
  0
CIRCLE
  5
AD7
330
6F
100
AcDbEntity
  8
0
  6
Continuous
 62
     7
100
AcDbCircle
 10
257.5130408629334
 20
25.23936698936092
 30
0.0
 40
0.0625000000000002
  0
CIRCLE
  5
AD8
330
6F
100
AcDbEntity
  8
0
  6
Continuous
 62
     7
100
AcDbCircle
 10
257.5130408629334
 20
22.93621738306092
 30
0.0
 40
0.0625
  0
CIRCLE
  5
AD9
330
6F
100
AcDbEntity
  8
0
  6
Continuous
 62
     7
100
AcDbCircle
 10
272.8505463668334
 20
22.39711066676091
 30
0.0
 40
0.0625
  0
CIRCLE
  5
ADA
330
6F
100
AcDbEntity
  8
0
  6
Continuous
 62
     7
100
AcDbCircle
 10
273.4315005109333
 20
24.12498177856094
 30
0.0
 40
0.0625000000000004
  0
CIRCLE
  5
ADB
330
6F
100
AcDbEntity
  8
0
  6
Continuous
 62
     7
100
AcDbCircle
 10
274.9396369378334
 20
27.83109408226093
 30
0.0
 40
0.0625000000000002
  0
CIRCLE
  5
ADC
330
6F
100
AcDbEntity
  8
0
  6
Continuous
 62
     7
100
AcDbCircle
 10
279.0759942499334
 20
41.70888342866092
 30
0.0
 40
0.0625000000000018
  0
CIRCLE
  5
ADD
330
6F
100
AcDbEntity
  8
0
  6
Continuous
 62
     7
100
AcDbCircle
 10
278.2655097951334
 20
39.03097040196093
 30
0.0
 40
0.0625
  0
CIRCLE
  5
ADE
330
6F
100
AcDbEntity
  8
0
  6
Continuous
 62
     7
100
AcDbCircle
 10
276.9533001809334
 20
31.64216147716093
 30
0.0
 40
0.0624999999999991
  0
CIRCLE
  5
ADF
330
6F
100
AcDbEntity
  8
0
  6
Continuous
 62
     7
100
AcDbCircle
 10
275.3600678645333
 20
26.37797960476092
 30
0.0
 40
0.0625
  0
CIRCLE
  5
AE0
330
6F
100
AcDbEntity
  8
0
  6
Continuous
 62
     7
100
AcDbCircle
 10
279.3431486554334
 20
39.53843428586095
 30
0.0
 40
0.0625
  0
CIRCLE
  5
AE1
330
6F
100
AcDbEntity
  8
0
  6
Continuous
 62
     7
100
AcDbCircle
 10
259.5051668472333
 20
24.65957628496094
 30
0.0
 40
0.2500000000003
  0
CIRCLE
  5
AE2
330
6F
100
AcDbEntity
  8
0
  6
Continuous
 62
     7
100
AcDbCircle
 10
263.4724365753334
 20
25.04603753586093
 30
0.0
 40
0.2499999999999798
  0
CIRCLE
  5
AE3
330
6F
100
AcDbEntity
  8
0
  6
Continuous
 62
     7
100
AcDbCircle
 10
260.8176668472333
 20
25.53457628496094
 30
0.0
 40
0.1104999999999998
  0
CIRCLE
  5
AE4
330
6F
100
AcDbEntity
  8
0
  6
Continuous
 62
     7
100
AcDbCircle
 10
258.1926668472334
 20
25.53457628496094
 30
0.0
 40
0.1104999999999998
  0
CIRCLE
  5
AE5
330
6F
100
AcDbEntity
  8
0
  6
Continuous
 62
     7
100
AcDbCircle
 10
259.5051668472333
 20
23.53457628496093
 30
0.0
 40
0.1105
  0
CIRCLE
  5
AE6
330
6F
100
AcDbEntity
  8
0
  6
Continuous
 62
     7
100
AcDbCircle
 10
262.4742485322334
 20
25.33513983706092
 30
0.0
 40
0.1104999999999998
  0
CIRCLE
  5
AE7
330
6F
100
AcDbEntity
  8
0
  6
Continuous
 62
     7
100
AcDbCircle
 10
264.4052578114334
 20
25.50408125816094
 30
0.0
 40
0.1104999999999998
  0
CIRCLE
  5
AE8
330
6F
100
AcDbEntity
  8
0
  6
Continuous
 62
     7
100
AcDbCircle
 10
263.5619512802334
 20
24.02287977656093
 30
0.0
 40
0.1105
  0
LWPOLYLINE
  5
AE9
330
6F
100
AcDbEntity
  8
0
  6
Continuous
 62
     7
100
AcDbPolyline
 90
       10
 70
     1
 43
0.0
 10
266.4281262151334
 20
27.90392161276094
 10
250.9409390674554
 20
26.54896830743707
 42
0.5205670505517461
 10
249.8146050066334
 20
24.59810048766093
 10
251.102930303958
 20
21.83527797166747
 42
0.2914734195860877
 10
252.3491035111334
 20
21.04137808156094
 10
274.7897140889334
 20
21.04137808156094
 10
281.2417280919334
 20
42.35940860746092
 10
278.6614187434334
 20
43.14035279596092
 10
278.3717401405334
 20
42.18322881916094
 10
270.9114418564334
 20
30.62427245226093
 42
-0.2300693522072082
  0
MTEXT
  5
AEA
102
{ACAD_XDICTIONARY
360
AEB
102
}
330
6F
100
AcDbEntity
  8
Info
100
AcDbMText
 10
263.5718187572051
 20
21.22594838977523
 30
0.0
 40
0.05
 41
5.317259646414134
 46
0.0
 71
     2
 72
     5
  1
LH Seat Bucket Exterior - Qty 1 - PN# OH3A2A-31 - CNC - Item 22 - Thick .25" (6.35mm)
  7
Annotative
 73
     1
 44
1.0
1001
AcadAnnotative
1000
AnnotativeData
1002
{
1070
     1
1070
     1
1002
}
1001
ACAD
1000
ACAD_MTEXT_COLUMN_INFO_BEGIN
1070
    75
1070
     2
1070
    79
1070
     0
1070
    76
1070
     1
1070
    78
1070
     0
1070
    48
1040
5.317259646414134
1070
    49
1040
0.625
1070
    50
1070
     1
1040
0.0830158434547273
1000
ACAD_MTEXT_COLUMN_INFO_END
  0
CIRCLE
  5
AEF
330
6F
100
AcDbEntity
  8
0
  6
Continuous
 62
     7
100
AcDbCircle
 10
265.7035590830389
 20
11.87117841038497
 30
0.0
 40
0.2
  0
CIRCLE
  5
AF0
330
6F
100
AcDbEntity
  8
0
  6
Continuous
 62
     7
100
AcDbCircle
 10
265.7035590830389
 20
9.568028804084974
 30
0.0
 40
0.1999999999999997
  0
CIRCLE
  5
AF1
330
6F
100
AcDbEntity
  8
0
  6
Continuous
 62
     7
100
AcDbCircle
 10
281.0410645869389
 20
9.028922087784991
 30
0.0
 40
0.2000000000000002
  0
CIRCLE
  5
AF2
330
6F
100
AcDbEntity
  8
0
  6
Continuous
 62
     7
100
AcDbCircle
 10
281.6220187310389
 20
10.75679319958499
 30
0.0
 40
0.2000000000000002
  0
CIRCLE
  5
AF3
330
6F
100
AcDbEntity
  8
0
  6
Continuous
 62
     7
100
AcDbCircle
 10
283.130155157939
 20
14.46290550328498
 30
0.0
 40
0.2000000000000002
  0
CIRCLE
  5
AF4
330
6F
100
AcDbEntity
  8
0
  6
Continuous
 62
     7
100
AcDbCircle
 10
287.266512470039
 20
28.34069484968498
 30
0.0
 40
0.2000000000000011
  0
CIRCLE
  5
AF5
330
6F
100
AcDbEntity
  8
0
  6
Continuous
 62
     7
100
AcDbCircle
 10
286.4560280152389
 20
25.66278182298499
 30
0.0
 40
0.2000000000000011
  0
CIRCLE
  5
AF6
330
6F
100
AcDbEntity
  8
0
  6
Continuous
 62
     7
100
AcDbCircle
 10
285.1438184010389
 20
18.27397289818498
 30
0.0
 40
0.1999999999999993
  0
CIRCLE
  5
AF7
330
6F
100
AcDbEntity
  8
0
  6
Continuous
 62
     7
100
AcDbCircle
 10
283.5505860846389
 20
13.00979102578498
 30
0.0
 40
0.2
  0
CIRCLE
  5
AF8
330
6F
100
AcDbEntity
  8
0
  6
Continuous
 62
     7
100
AcDbCircle
 10
287.5336668755389
 20
26.170245706885
 30
0.0
 40
0.2000000000000011
  0
CIRCLE
  5
AF9
330
6F
100
AcDbEntity
  8
0
  6
Continuous
 62
     7
100
AcDbCircle
 10
271.7524695003389
 20
10.65469119758498
 30
0.0
 40
0.0967500000000001
  0
CIRCLE
  5
AFA
330
6F
100
AcDbEntity
  8
0
  6
Continuous
 62
     7
100
AcDbCircle
 10
270.6647667523389
 20
11.96695125808497
 30
0.0
 40
0.0967500000000001
  0
CIRCLE
  5
AFB
330
6F
100
AcDbEntity
  8
0
  6
Continuous
 62
     7
100
AcDbCircle
 10
272.5957760315389
 20
12.13589267918499
 30
0.0
 40
0.09675
  0
LWPOLYLINE
  5
AFC
330
6F
100
AcDbEntity
  8
0
  6
Continuous
 62
     7
100
AcDbPolyline
 90
        8
 70
     1
 43
0.0
 10
285.3060843692264
 20
24.17828105975059
 42
0.7039091300069951
 10
284.8008294832494
 20
24.2963608377182
 10
280.2296567285389
 20
17.22228463698496
 42
0.7771467496993859
 10
280.5927950167437
 20
16.83060977236607
 10
285.0050300746389
 20
19.23022760908498
 42
0.1970542020729602
 10
285.1248292250902
 20
19.37729868504718
 10
285.6415696911389
 20
21.081299009585
 42
0.1025980045953249
 10
285.6506905971633
 20
21.18241776212378
  0
LWPOLYLINE
  5
AFD
330
6F
100
AcDbEntity
  8
0
  6
Continuous
 62
     7
100
AcDbPolyline
 90
        6
 70
     1
 43
0.0
 10
284.8186578405987
 20
18.36766972672126
 42
0.6707681210563099
 10
284.4232585065337
 20
18.68974872160368
 10
280.1660171458389
 20
16.37442504308498
 42
0.6655953349999077
 10
280.2177090853752
 20
15.86859205302525
 10
283.4734251034389
 20
14.88129164678497
 42
0.4142135623730948
 10
283.8171324979987
 20
15.06504564202126
  0
LWPOLYLINE
  5
AFE
330
6F
100
AcDbEntity
  8
0
  6
Continuous
 62
     7
100
AcDbPolyline
 90
        6
 70
     1
 43
0.0
 10
285.7880446105026
 20
25.08162165684479
 42
0.5397495660419835
 10
285.4342826738514
 20
24.78639817061941
 10
285.7049798586389
 20
22.43306937108497
 42
0.8138977140032462
 10
286.2424957904987
 20
22.38458546272125
 10
286.8732475108389
 20
24.46454862928499
 42
0.4142135623730953
 10
286.6894935156026
 20
24.80825602384476
  0
LWPOLYLINE
  5
AFF
330
6F
100
AcDbEntity
  8
0
  6
Continuous
 62
     7
100
AcDbPolyline
 90
        9
 70
     0
 43
0.0
 10
281.1762139675389
 20
11.37043232888498
 10
282.4659838057501
 20
11.07266549939439
 42
0.3872111786909492
 10
282.6508972144542
 20
11.17657806101974
 10
283.4841563265389
 20
13.69138516398499
 42
0.4417415536452877
 10
283.3700936436277
 20
13.89436081167557
 10
279.5450476591389
 20
14.77744225908498
 42
0.5129789915798206
 10
279.2087909375517
 20
14.48189059383526
 10
279.7631858353389
 20
8.855524109684978
 42
0.8064428773704095
 10
280.06895410389
 20
8.820123173181144
  0
LWPOLYLINE
  5
B00
330
6F
100
AcDbEntity
  8
0
  6
Continuous
 62
     7
100
AcDbPolyline
 90
        3
 70
     0
 43
0.0
 10
280.0689541038389
 20
8.820123173084994
 10
280.8833641973389
 20
11.20755386538496
 42
-0.3846865675241056
 10
281.1762139676249
 20
11.37043232898128
  0
LWPOLYLINE
  5
B01
330
6F
100
AcDbEntity
  8
0
  6
Continuous
 62
     7
100
AcDbPolyline
 90
        6
 70
     1
 43
0.0
 10
275.7394110339316
 20
9.078037555363607
 42
0.5667308503419689
 10
275.9823665781389
 20
8.672359512703877
 10
278.8837422925389
 20
8.672359512784993
 42
0.4432824754626892
 10
279.1580046291261
 20
8.974974545934713
 10
278.7070584594389
 20
13.55147484448497
 42
0.7413547193971924
 10
278.1898405786316
 20
13.65453785386361
  0
LWPOLYLINE
  5
B02
330
6F
100
AcDbEntity
  8
0
  6
Continuous
 62
     7
100
AcDbPolyline
 90
        8
 70
     1
 43
0.0
 10
263.95159057912
 20
9.184170536384982
 42
0.4142135623730951
 10
263.6760000279389
 20
9.459761087566079
 10
260.1711546466389
 20
9.459761087584979
 42
0.5486187866266676
 10
259.9213847840697
 20
9.067700936692688
 10
260.0773231576389
 20
8.733290015284978
 42
0.2914734195860876
 10
260.7909513364389
 20
8.278658725381831
 10
263.6760000279389
 20
8.278658725384985
 42
0.4142135623730951
 10
263.95159057912
 20
8.554249276484995
  0
LWPOLYLINE
  5
B03
330
6F
100
AcDbEntity
  8
0
  6
Continuous
 62
     7
100
AcDbPolyline
 90
       14
 70
     1
 43
0.0
 10
262.9546821230213
 20
12.76322604606645
 42
-0.4142135623730951
 10
263.0978378639389
 20
12.93383241468498
 10
264.9118232484565
 20
13.09253557161577
 42
-0.4400105308918335
 10
265.2114330988389
 20
12.81799372568497
 10
265.21143309882
 20
10.32590281978497
 42
-0.4142135623730951
 10
264.9358425476389
 20
10.05031226868499
 10
260.321528835739
 20
10.05031226860387
 42
-0.5595353483075237
 10
260.0757888198389
 20
10.45065055128498
 10
261.1916468495214
 20
12.64877445119606
 42
-0.2590169341427686
 10
261.3927792139389
 20
12.78465911218498
 10
262.1565515351204
 20
12.85148053180256
 42
-0.4142135623730951
 10
262.3271579037389
 20
12.70832479078498
 10
262.3305892322037
 20
12.66910452704792
 42
0.9999999999999998
 10
262.9581134514741
 20
12.72400578232205
  0
LWPOLYLINE
  5
B04
330
6F
100
AcDbEntity
  8
0
  6
Continuous
 62
     7
100
AcDbPolyline
 90
        4
 70
     1
 43
0.0
 10
259.8760663584564
 20
12.23161072677391
 42
0.4697589458025677
 10
259.7231667266523
 20
12.58476841929885
 42
0.8294962126880815
 10
259.0225990244455
 20
11.20472313688575
 42
0.4697589458020357
 10
259.3979289017564
 20
11.28972982147391
  0
LWPOLYLINE
  5
B05
330
6F
100
AcDbEntity
  8
0
  6
Continuous
 62
     7
100
AcDbPolyline
 90
        6
 70
     1
 43
0.0
 10
270.435305136726
 20
9.715998818696277
 42
0.284176919729064
 10
270.1454676934023
 20
9.712548958352556
 10
268.6874496527389
 20
8.786912821484975
 42
0.7507543942387113
 10
268.8351582399389
 20
8.27865872530387
 10
271.8309013166389
 20
8.278658725384985
 42
0.7601015817719065
 10
271.973030172726
 20
8.790362681796267
  0
LWPOLYLINE
  5
B06
330
6F
100
AcDbEntity
  8
0
  6
Continuous
 62
     7
100
AcDbPolyline
 90
        8
 70
     1
 43
0.0
 10
269.6318676902389
 20
10.28975455568499
 10
266.6402099078389
 20
12.61082609068498
 42
0.6236931189770121
 10
266.1956850673578
 20
12.393084597685
 10
266.1956850673389
 20
8.554249276484995
 42
0.4142135623730951
 10
266.4712756185389
 20
8.27865872530387
 10
267.0796611500389
 20
8.278658725384985
 42
0.1423646895198394
 10
267.2136539398892
 20
8.317599652450127
 10
269.6106419880389
 20
9.839349517784967
 42
0.5193707453248643
  0
LWPOLYLINE
  5
B07
330
6F
100
AcDbEntity
  8
0
  6
Continuous
 62
     7
100
AcDbPolyline
 90
       10
 70
     1
 43
0.0
 10
274.6186444352389
 20
14.53573303378499
 10
259.1314572875609
 20
13.18077972846114
 42
0.5205670505517463
 10
258.0051232267389
 20
11.22991190868498
 10
259.2934485240635
 20
8.467089392691519
 42
0.2914734195860876
 10
260.5396217312389
 20
7.673189502584989
 10
282.9802323090389
 20
7.673189502584989
 10
289.4322463120389
 20
28.99122002848498
 10
286.8519369635389
 20
29.77216421698498
 10
286.5622583606389
 20
28.815040240185
 10
279.1019600765389
 20
17.25608387328498
 42
-0.2300693522072082
  0
LWPOLYLINE
  5
B08
330
6F
100
AcDbEntity
  8
0
  6
Continuous
 62
     7
100
AcDbPolyline
 90
       12
 70
     1
 43
0.0
 10
271.0371659575023
 20
10.27865178665257
 42
0.557417805345669
 10
271.0427456886518
 20
9.809874836373694
 10
273.5270061392389
 20
8.314470136284967
 42
0.1362980527445386
 10
273.6559373158389
 20
8.278658725384985
 10
274.4917948160389
 20
8.278658725384985
 42
0.2765434468616364
 10
274.7121902025699
 20
8.410650786686517
 10
277.6246136969389
 20
13.84998570648497
 42
0.7713281974991572
 10
277.2339495655023
 20
14.21273674295256
 10
272.1096086997389
 20
10.95950190588499
 42
0.3076273530743286
 10
271.998035495011
 20
10.70156701531343
 42
-0.6795650664789825
 10
271.6055672467379
 20
10.45240494524211
 42
0.3076273530748061
 10
271.3246722032886
 20
10.46117776591984
  0
LWPOLYLINE
  5
B09
330
6F
100
AcDbEntity
  8
0
  6
Continuous
 62
     7
100
AcDbPolyline
 90
       18
 70
     1
 43
0.0
 10
275.3509032923755
 20
13.48360709891742
 42
0.7854411917912461
 10
275.1791754059565
 20
13.99081248981576
 10
267.1847135444389
 20
13.29138770598499
 42
0.6821152298338004
 10
267.0397985542904
 20
12.7991043670649
 10
270.1417412931389
 20
10.39246847548497
 42
0.3163344142001177
 10
270.4583841696755
 20
10.3775464235174
 10
270.9025460158389
 20
10.65952664868499
 42
0.4142135623730948
 10
270.9796122989738
 20
11.00457851143531
 10
270.4537076793389
 20
11.83295846828497
 42
-0.9999999999999998
 10
270.8758258252737
 20
12.10094404793531
 10
271.4017304448389
 20
11.27256409118499
 42
0.4142135623730953
 10
271.7467823075892
 20
11.1954978080501
 10
272.3552874321389
 20
11.58181287208498
 42
0.4142135623730948
 10
272.4323537151738
 20
11.9268647348353
 10
272.3847169586389
 20
12.00189988938499
 42
-0.9999999999999998
 10
272.8068351044738
 20
12.26988546903533
 10
272.8544718610389
 20
12.19485031458498
 42
0.4142135623730953
 10
273.1995237237892
 20
12.11778403145013
  0
CIRCLE
  5
B0A
330
6F
100
AcDbEntity
  8
0
100
AcDbCircle
 10
285.1438184010389
 20
18.27397289818498
 30
0.0
 40
0.065
  0
CIRCLE
  5
B0B
330
6F
100
AcDbEntity
  8
0
100
AcDbCircle
 10
286.4560280152389
 20
25.66278182298499
 30
0.0
 40
0.065
  0
CIRCLE
  5
B0C
330
6F
100
AcDbEntity
  8
0
100
AcDbCircle
 10
287.5336668755389
 20
26.170245706885
 30
0.0
 40
0.065
  0
CIRCLE
  5
B0D
330
6F
100
AcDbEntity
  8
0
100
AcDbCircle
 10
287.266512470039
 20
28.34069484968498
 30
0.0
 40
0.065
  0
CIRCLE
  5
B0E
330
6F
100
AcDbEntity
  8
0
100
AcDbCircle
 10
283.130155157939
 20
14.46290550328498
 30
0.0
 40
0.065
  0
CIRCLE
  5
B0F
330
6F
100
AcDbEntity
  8
0
100
AcDbCircle
 10
283.5505860846389
 20
13.00979102578498
 30
0.0
 40
0.065
  0
CIRCLE
  5
B10
330
6F
100
AcDbEntity
  8
0
100
AcDbCircle
 10
281.6220187310389
 20
10.75679319958499
 30
0.0
 40
0.065
  0
CIRCLE
  5
B11
330
6F
100
AcDbEntity
  8
0
100
AcDbCircle
 10
281.0410645869389
 20
9.028922087784991
 30
0.0
 40
0.065
  0
CIRCLE
  5
B12
330
6F
100
AcDbEntity
  8
0
100
AcDbCircle
 10
265.7035590830389
 20
11.87117841038497
 30
0.0
 40
0.065
  0
CIRCLE
  5
B13
330
6F
100
AcDbEntity
  8
0
100
AcDbCircle
 10
265.7035590830389
 20
9.568028804084974
 30
0.0
 40
0.065
  0
MTEXT
  5
B14
102
{ACAD_XDICTIONARY
360
B15
102
}
330
6F
100
AcDbEntity
  8
Info
100
AcDbMText
 10
271.7670625504625
 20
7.850246293254173
 30
0.0
 40
0.05
 41
5.317259646414134
 46
0.0
 71
     2
 72
     5
  1
LH Seat Bucket Exterior Detail - Qty 1 - PN# OH3A2A-32 - CNC - Item 23 - Thick .25" (6.35mm)
  7
Annotative
 73
     1
 44
1.0
1001
AcadAnnotative
1000
AnnotativeData
1002
{
1070
     1
1070
     1
1002
}
1001
ACAD
1000
ACAD_MTEXT_COLUMN_INFO_BEGIN
1070
    75
1070
     2
1070
    79
1070
     0
1070
    76
1070
     1
1070
    78
1070
     0
1070
    48
1040
5.317259646414134
1070
    49
1040
0.625
1070
    50
1070
     1
1040
0.0830158434547273
1000
ACAD_MTEXT_COLUMN_INFO_END
  0
CIRCLE
  5
B19
330
6F
100
AcDbEntity
  8
0
  6
Continuous
 62
     7
100
AcDbCircle
 10
225.5615011720129
 20
32.53598278994946
 30
0.0
 40
0.1874999999999996
  0
CIRCLE
  5
B1A
330
6F
100
AcDbEntity
  8
0
  6
Continuous
 62
     7
100
AcDbCircle
 10
226.4361848906129
 20
33.78178296364946
 30
0.0
 40
0.0847499999999999
  0
CIRCLE
  5
B1B
330
6F
100
AcDbEntity
  8
0
  6
Continuous
 62
     7
100
AcDbCircle
 10
226.3476621229129
 20
32.99582113364946
 30
0.0
 40
0.0847499999999999
  0
CIRCLE
  5
B1C
330
6F
100
AcDbEntity
  8
0
  6
Continuous
 62
     7
100
AcDbCircle
 10
208.5717932735129
 20
33.33166484334947
 30
0.0
 40
0.0625
  0
CIRCLE
  5
B1D
330
6F
100
AcDbEntity
  8
0
  6
Continuous
 62
     7
100
AcDbCircle
 10
206.9785609571129
 20
38.59584671574948
 30
0.0
 40
0.0625
  0
CIRCLE
  5
B1E
330
6F
100
AcDbEntity
  8
0
  6
Continuous
 62
     7
100
AcDbCircle
 10
204.5887124826129
 20
46.49211952444946
 30
0.0
 40
0.0625000000000018
  0
CIRCLE
  5
B1F
330
6F
100
AcDbEntity
  8
0
  6
Continuous
 62
     7
100
AcDbCircle
 10
204.8558668881129
 20
48.66256866724947
 30
0.0
 40
0.0625
  0
CIRCLE
  5
B20
330
6F
100
AcDbEntity
  8
0
  6
Continuous
 62
     7
100
AcDbCircle
 10
205.6663513429129
 20
45.98465564054947
 30
0.0
 40
0.0625
  0
CIRCLE
  5
B21
330
6F
100
AcDbEntity
  8
0
  6
Continuous
 62
     7
100
AcDbCircle
 10
208.9922242002129
 20
34.78477932084947
 30
0.0
 40
0.0625000000000002
  0
CIRCLE
  5
B22
330
6F
100
AcDbEntity
  8
0
  6
Continuous
 62
     7
100
AcDbCircle
 10
210.5003606271129
 20
31.07866701714946
 30
0.0
 40
0.0625000000000004
  0
CIRCLE
  5
B23
330
6F
100
AcDbEntity
  8
0
  6
Continuous
 62
     7
100
AcDbCircle
 10
211.0813147712129
 20
29.35079590534946
 30
0.0
 40
0.0625000000000009
  0
CIRCLE
  5
B24
330
6F
100
AcDbEntity
  8
0
  6
Continuous
 62
     7
100
AcDbCircle
 10
226.4188202751129
 20
32.19305222794947
 30
0.0
 40
0.0625
  0
CIRCLE
  5
B25
330
6F
100
AcDbEntity
  8
0
  6
Continuous
 62
     7
100
AcDbCircle
 10
226.4188202751129
 20
29.88990262164947
 30
0.0
 40
0.0625000000000004
  0
CIRCLE
  5
B26
330
6F
100
AcDbEntity
  8
0
  6
Continuous
 62
     7
100
AcDbCircle
 10
229.8235390392129
 20
34.32562332584947
 30
0.0
 40
0.0967499999999999
  0
CIRCLE
  5
B27
330
6F
100
AcDbEntity
  8
0
  6
Continuous
 62
     7
100
AcDbCircle
 10
220.6300658396129
 20
36.71462651744946
 30
0.0
 40
0.0787401574829789
  0
LWPOLYLINE
  5
B28
330
6F
100
AcDbEntity
  8
0
  6
Continuous
 62
     7
100
AcDbPolyline
 90
       27
 70
     1
 43
0.0
 10
225.9375989669129
 20
36.75013884214946
 42
0.3963571583351189
 10
225.8128341174129
 20
36.63280254524946
 10
225.7080884603502
 20
34.92754648306904
 42
-0.4142135623730951
 10
225.5756599078129
 20
34.81044533664947
 10
225.4660109563933
 20
34.81718054308669
 42
0.3960927722003656
 10
225.3343010063129
 20
34.70782765604946
 10
225.3206635366915
 20
34.59806376792639
 42
-0.4142135623730956
 10
225.1812053272129
 20
34.48942948334945
 10
220.7057846397129
 20
35.04547222614946
 10
220.6423651156248
 20
36.289803696213
 42
-0.2666801973215099
 10
220.7551900719356
 20
36.51174600387128
 42
0.2663802099804032
 10
220.8680291284214
 20
36.73340857656512
 42
0.4145048167725831
 10
220.5997633551129
 20
36.96396824924946
 10
220.4132810306282
 20
36.94977885013702
 42
0.0562163862131196
 10
219.9798230037129
 20
36.86719902324947
 10
217.461986093763
 20
36.08676096469459
 42
-0.3364537487931303
 10
212.9169160293129
 20
37.73832521654947
 10
205.5601209975129
 20
49.13691405774947
 10
205.2704423946129
 20
50.09403803454947
 10
202.6901330461129
 20
49.31309384604947
 10
209.1421470491129
 20
27.99506332014947
 10
231.5827576269129
 20
27.99506332014946
 42
0.2914734195860877
 10
232.8289308341129
 20
28.78896321024946
 10
234.0719522556883
 20
31.454631251156
 42
0.3894220243369521
 10
233.5110303939129
 20
33.22781172474947
 10
227.6568406236665
 20
36.59301388615531
 42
0.1311725110559856
 10
227.0682209998129
 20
36.75013884215417
  0
MTEXT
  5
B29
102
{ACAD_XDICTIONARY
360
B2A
102
}
330
6F
100
AcDbEntity
  8
Info
100
AcDbMText
 10
220.3732524969613
 20
28.17659549035636
 30
0.0
 40
0.05
 41
5.317259646414134
 46
0.0
 71
     2
 72
     5
  1
RH Seat Bucket Exterior - Qty 1 - PN# OH3A2A-33 - CNC - Item 24 - Thick .25" (6.35mm)
  7
Annotative
 73
     1
 44
1.0
1001
AcadAnnotative
1000
AnnotativeData
1002
{
1070
     1
1070
     1
1002
}
1001
ACAD
1000
ACAD_MTEXT_COLUMN_INFO_BEGIN
1070
    75
1070
     2
1070
    79
1070
     0
1070
    76
1070
     1
1070
    78
1070
     0
1070
    48
1040
5.317259646414134
1070
    49
1040
0.625
1070
    50
1070
     1
1040
0.0830158434547273
1000
ACAD_MTEXT_COLUMN_INFO_END
  0
CIRCLE
  5
B2E
330
6F
100
AcDbEntity
  8
0
  6
Continuous
 62
     7
100
AcDbCircle
 10
221.8644850020923
 20
13.50918227973206
 30
0.0
 40
0.08475
  0
CIRCLE
  5
B2F
330
6F
100
AcDbEntity
  8
0
  6
Continuous
 62
     7
100
AcDbCircle
 10
221.7759622343923
 20
12.72322044973205
 30
0.0
 40
0.08475
  0
CIRCLE
  5
B30
330
6F
100
AcDbEntity
  8
0
  6
Continuous
 62
     7
100
AcDbCircle
 10
204.0000933849923
 20
13.05906415943207
 30
0.0
 40
0.2000000000000001
  0
CIRCLE
  5
B31
330
6F
100
AcDbEntity
  8
0
  6
Continuous
 62
     7
100
AcDbCircle
 10
202.4068610685922
 20
18.32324603183207
 30
0.0
 40
0.2000000000000002
  0
CIRCLE
  5
B32
330
6F
100
AcDbEntity
  8
0
  6
Continuous
 62
     7
100
AcDbCircle
 10
200.0170125940923
 20
26.21951884053206
 30
0.0
 40
0.2000000000000011
  0
CIRCLE
  5
B33
330
6F
100
AcDbEntity
  8
0
  6
Continuous
 62
     7
100
AcDbCircle
 10
200.2841669995923
 20
28.38996798333207
 30
0.0
 40
0.2000000000000011
  0
CIRCLE
  5
B34
330
6F
100
AcDbEntity
  8
0
  6
Continuous
 62
     7
100
AcDbCircle
 10
201.0946514543923
 20
25.71205495663206
 30
0.0
 40
0.2000000000000011
  0
CIRCLE
  5
B35
330
6F
100
AcDbEntity
  8
0
  6
Continuous
 62
     7
100
AcDbCircle
 10
204.4205243116923
 20
14.51217863693206
 30
0.0
 40
0.2
  0
CIRCLE
  5
B36
330
6F
100
AcDbEntity
  8
0
  6
Continuous
 62
     7
100
AcDbCircle
 10
205.9286607385923
 20
10.80606633323205
 30
0.0
 40
0.1999999999999997
  0
CIRCLE
  5
B37
330
6F
100
AcDbEntity
  8
0
  6
Continuous
 62
     7
100
AcDbCircle
 10
206.5096148826923
 20
9.078195221432054
 30
0.0
 40
0.1999999999999997
  0
CIRCLE
  5
B38
330
6F
100
AcDbEntity
  8
0
  6
Continuous
 62
     7
100
AcDbCircle
 10
221.8471203865923
 20
11.92045154403206
 30
0.0
 40
0.2
  0
CIRCLE
  5
B39
330
6F
100
AcDbEntity
  8
0
  6
Continuous
 62
     7
100
AcDbCircle
 10
221.8471203865923
 20
9.617301937732065
 30
0.0
 40
0.2000000000000002
  0
CIRCLE
  5
B3A
330
6F
100
AcDbEntity
  8
0
  6
Continuous
 62
     7
100
AcDbCircle
 10
225.7072087899923
 20
14.28476580733206
 30
0.0
 40
0.0680000000000001
  0
CIRCLE
  5
B3B
330
6F
100
AcDbEntity
  8
0
  6
Continuous
 62
     7
100
AcDbCircle
 10
225.2518391506923
 20
14.56396921753206
 30
0.0
 40
0.0679999999999998
  0
CIRCLE
  5
B3C
330
6F
100
AcDbEntity
  8
0
  6
Continuous
 62
     7
100
AcDbCircle
 10
221.1419804228923
 20
14.19741653393205
 30
0.0
 40
0.0679999999999998
  0
CIRCLE
  5
B3D
330
6F
100
AcDbEntity
  8
0
  6
Continuous
 62
     7
100
AcDbCircle
 10
221.6031025514923
 20
16.07148158843206
 30
0.0
 40
0.0680000000000001
  0
CIRCLE
  5
B3E
330
6F
100
AcDbEntity
  8
0
  6
Continuous
 62
     7
100
AcDbCircle
 10
225.2518391506923
 20
14.05302264193206
 30
0.0
 40
0.09675
  0
CIRCLE
  5
B3F
330
6F
100
AcDbEntity
  8
0
  6
Continuous
 62
     7
100
AcDbCircle
 10
216.0583659510923
 20
16.44202583353205
 30
0.0
 40
0.0787401574829789
  0
LWPOLYLINE
  5
B40
330
6F
100
AcDbEntity
  8
0
  6
Continuous
 62
     7
100
AcDbPolyline
 90
        5
 70
     0
 43
0.0
 10
204.0771162661922
 20
14.93052294083206
 10
207.3333487872304
 20
15.91611852292385
 42
0.6655953349999081
 10
207.3853055731923
 20
16.42192437783205
 10
203.1292770967082
 20
18.73947682522876
 42
0.6707681210563093
 10
202.733709176684
 20
18.41760490509398
  0
LWPOLYLINE
  5
B41
330
6F
100
AcDbEntity
  8
0
  6
Continuous
 62
     7
100
AcDbPolyline
 90
        3
 70
     0
 43
0.0
 10
202.7337091765923
 20
18.41760490503206
 10
203.7335051320923
 20
15.11445687563206
 42
0.4142135623730951
 10
204.0771162661303
 20
14.93052294092384
  0
LWPOLYLINE
  5
B42
330
6F
100
AcDbEntity
  8
0
  6
Continuous
 62
     7
100
AcDbPolyline
 90
        8
 70
     1
 43
0.0
 10
201.9031503326232
 20
21.23278820595657
 42
0.1025980045953245
 10
201.9122182917934
 20
21.13166469154609
 10
202.4280664745923
 20
19.42739403603207
 42
0.1970542020729599
 10
202.5477886024265
 20
19.28026025355291
 10
206.9587666185923
 20
16.87833250493206
 42
0.7771467497000869
 10
207.3221099374631
 20
17.26981717704294
 10
202.7546417867923
 20
24.34628586853206
 42
0.7039091300069958
 10
202.2493251436209
 20
24.228470657489
  0
LWPOLYLINE
  5
B43
330
6F
100
AcDbEntity
  8
0
  6
Continuous
 62
     7
100
AcDbPolyline
 90
        6
 70
     1
 43
0.0
 10
200.8662460409542
 20
24.85916988654029
 42
0.414213562373095
 10
200.682312106184
 20
24.51555875249397
 10
201.3119746739923
 20
22.43526561023207
 42
0.813897714003246
 10
201.8495159182636
 20
22.48346806927512
 10
202.1214452659923
 20
24.83665480953206
 42
0.5397495660419838
 10
201.7678379564542
 20
25.13206348464027
  0
LWPOLYLINE
  5
B44
330
6F
100
AcDbEntity
  8
0
  6
Continuous
 62
     7
100
AcDbPolyline
 90
        8
 70
     1
 43
0.0
 10
216.5079337809793
 20
9.859147970020785
 42
0.557417805345669
 10
216.5135135121289
 20
10.32792492029964
 10
210.3167299040923
 20
14.26200987663206
 42
0.771328197499156
 10
209.9260657726849
 20
13.89925884015342
 10
212.8384892669923
 20
8.459923920332059
 42
0.2765434468616373
 10
213.0588846535923
 20
8.327931859032062
 10
213.8947421537923
 20
8.327931859032062
 42
0.1362980527445386
 10
214.0236733303855
 20
8.363743269928249
  0
LWPOLYLINE
  5
B45
330
6F
100
AcDbEntity
  8
0
  6
Continuous
 62
     7
100
AcDbPolyline
 90
        7
 70
     1
 43
0.0
 10
220.8190813237408
 20
13.08749415341199
 42
0.650490844388537
 10
220.6980949206144
 20
13.57662310396674
 10
215.7582844300923
 20
14.44937335383206
 10
214.3725560197923
 20
14.38483331323206
 10
213.7300609411923
 20
12.56136490313206
 10
217.0922952999923
 20
10.42681955713206
 42
0.3163344142001167
 10
217.4089381765408
 20
10.44174160911198
  0
LWPOLYLINE
  5
B46
330
6F
100
AcDbEntity
  8
0
  6
Continuous
 62
     7
100
AcDbPolyline
 90
       10
 70
     1
 43
0.0
 10
225.97116298677
 20
13.46211029586166
 42
0.3681235555048113
 10
225.6413886637495
 20
13.59982853769986
 10
225.0988986834923
 20
13.42613832923206
 42
-0.0842198645650751
 10
223.1432962526521
 20
13.14692835779077
 10
222.6220640615923
 20
13.16060195363206
 42
0.4219163616630272
 10
222.3392463708112
 20
12.88510618163207
 10
222.3392463707923
 20
10.37517595343206
 42
0.4142135623730951
 10
222.6148369219923
 20
10.09958540225096
 10
227.2291506338923
 20
10.09958540233205
 42
0.5595353483075241
 10
227.4748906497698
 20
10.49992368486158
  0
LWPOLYLINE
  5
B47
330
6F
100
AcDbEntity
  8
0
  6
Continuous
 62
     7
100
AcDbPolyline
 90
        8
 70
     1
 43
0.0
 10
221.3549944022923
 20
8.603522410132057
 10
221.3549944022923
 20
12.44235773133206
 42
0.6236931189770122
 10
220.9104695617437
 20
12.66009922435214
 10
217.9188117793923
 20
10.33902768933205
 42
0.5193707453248642
 10
217.9400374815557
 20
9.888622651364485
 10
220.3370255297923
 20
8.366872786032061
 42
0.1423646895198394
 10
220.4710183195923
 20
8.327931859032062
 10
221.0794038510923
 20
8.327931859032062
 42
0.4142135623730951
  0
LWPOLYLINE
  5
B48
330
6F
100
AcDbEntity
  8
0
  6
Continuous
 62
     7
100
AcDbPolyline
 90
        6
 70
     1
 43
0.0
 10
208.3926748405051
 20
9.024247679581804
 42
0.443282475462689
 10
208.6669371770923
 20
8.72163264635094
 10
211.5683128914923
 20
8.721632646432055
 42
0.566730850341968
 10
211.8112684356996
 20
9.127310689010698
 10
209.3608388909923
 20
13.70381098753206
 42
0.7413547193971936
 10
208.8436210102051
 20
13.6007479780818
  0
LWPOLYLINE
  5
B49
330
6F
100
AcDbEntity
  8
0
  6
Continuous
 62
     7
100
AcDbPolyline
 90
       11
 70
     1
 43
0.0
 10
207.4817253657413
 20
8.869396306728205
 42
0.8064428773704095
 10
207.7874936342849
 20
8.904797243260787
 10
207.9703960225923
 20
10.76101177783207
 10
207.1430298652923
 20
14.34472832723206
 42
0.4142135623730953
 10
206.8125082970369
 20
14.55126112544059
 10
204.1805858259923
 20
13.94363394533207
 42
0.4417415536452875
 10
204.066523143077
 20
13.74065829756681
 10
204.8997822551923
 20
11.22585119473206
 42
0.3872111786909494
 10
205.0846956638811
 20
11.12193863304148
 10
206.3744655020923
 20
11.41970546253206
 42
-0.3846865675241053
 10
206.667315272287
 20
11.25682699893693
  0
LWPOLYLINE
  5
B4A
330
6F
100
AcDbEntity
  8
0
  6
Continuous
 62
     7
100
AcDbPolyline
 90
        6
 70
     1
 43
0.0
 10
217.4052117762288
 20
9.761822091999619
 42
0.2841769197290638
 10
217.1153743329052
 20
9.76527195234334
 10
215.5776492968923
 20
8.839635815532062
 42
0.7601015817719068
 10
215.7197781529923
 20
8.327931858950961
 10
218.7155212296923
 20
8.327931859032062
 42
0.7507543942387113
 10
218.8632298169289
 20
8.836185955099637
  0
LWPOLYLINE
  5
B4B
330
6F
100
AcDbEntity
  8
0
  6
Continuous
 62
     7
100
AcDbPolyline
 90
       27
 70
     1
 43
0.0
 10
222.4965211112923
 20
16.47753815823206
 10
221.3658990783923
 20
16.47753815823206
 42
0.3963571583351189
 10
221.2411342288923
 20
16.36020186133206
 10
221.1363885718295
 20
14.65494579915163
 42
-0.4142135623730951
 10
221.0039600192923
 20
14.53784465273206
 10
220.8943110678727
 20
14.54457985916929
 42
0.3960927722003662
 10
220.7626011177923
 20
14.43522697213206
 10
220.7489636481708
 20
14.32546308400899
 42
-0.4142135623730955
 10
220.6095054386923
 20
14.21682879943206
 10
216.1340847511923
 20
14.77287154223205
 10
216.0706652271042
 20
16.01720301229559
 42
-0.2666801973215095
 10
216.183490183415
 20
16.23914531995388
 42
0.2663802099804035
 10
216.2963292399008
 20
16.46080789264772
 42
0.4145048167725843
 10
216.0280634665923
 20
16.69136756533205
 10
215.8415811421075
 20
16.67717816621962
 42
0.0562163862131195
 10
215.4081231151923
 20
16.59459833933206
 10
212.8902862052424
 20
15.81416028077718
 42
-0.3364537487931305
 10
208.3452161407923
 20
17.46572453263206
 10
200.9884211089923
 20
28.86431337383206
 10
200.6987425060923
 20
29.82143735063207
 10
198.1184331575922
 20
29.04049316213207
 10
204.5704471605922
 20
7.722462636232066
 10
227.0110577383923
 20
7.722462636232052
 42
0.2914734195860877
 10
228.2572309455923
 20
8.516362526332059
 10
229.5002523671676
 20
11.1820305672386
 42
0.3894220243369521
 10
228.9393305053923
 20
12.95521104083207
 10
223.0851407350923
 20
16.32041320223206
 42
0.1311725110559857
  0
LWPOLYLINE
  5
B4C
330
6F
100
AcDbEntity
  8
0
  6
Continuous
 62
     7
100
AcDbPolyline
 90
        4
 70
     1
 43
0.0
 10
228.1527505678748
 20
11.339002955121
 42
0.4697589458020345
 10
228.5280804451257
 20
11.25399627045455
 42
0.8294962126880832
 10
227.8275127429911
 20
12.63404155302534
 42
0.4697589458025676
 10
227.6746131111748
 20
12.280883860421
  0
LWPOLYLINE
  5
B4D
330
6F
100
AcDbEntity
  8
0
  6
Continuous
 62
     7
100
AcDbPolyline
 90
        8
 70
     1
 43
0.0
 10
227.6292946855611
 20
9.116974070338855
 42
0.5486187866278032
 10
227.3795248229923
 20
9.509034221213198
 10
223.8746794416923
 20
9.50903422123207
 42
0.4142135623730956
 10
223.5990888905112
 20
9.233443670032542
 10
223.5990888904923
 20
8.603522410132057
 42
0.414213562374118
 10
223.8746794416923
 20
8.327931858950847
 10
226.7597281331923
 20
8.327931859032062
 42
0.2914734195860877
 10
227.4733563119613
 20
8.782563148996885
  0
CIRCLE
  5
B4E
330
6F
100
AcDbEntity
  8
0
100
AcDbCircle
 10
200.2841669995923
 20
28.38996798333207
 30
0.0
 40
0.065
  0
CIRCLE
  5
B4F
330
6F
100
AcDbEntity
  8
0
100
AcDbCircle
 10
200.0170125940923
 20
26.21951884053206
 30
0.0
 40
0.065
  0
CIRCLE
  5
B50
330
6F
100
AcDbEntity
  8
0
100
AcDbCircle
 10
201.0946514543923
 20
25.71205495663206
 30
0.0
 40
0.065
  0
CIRCLE
  5
B51
330
6F
100
AcDbEntity
  8
0
100
AcDbCircle
 10
202.4068610685922
 20
18.32324603183207
 30
0.0
 40
0.065
  0
CIRCLE
  5
B52
330
6F
100
AcDbEntity
  8
0
100
AcDbCircle
 10
204.4205243116923
 20
14.51217863693206
 30
0.0
 40
0.065
  0
CIRCLE
  5
B53
330
6F
100
AcDbEntity
  8
0
100
AcDbCircle
 10
204.0000933849923
 20
13.05906415943207
 30
0.0
 40
0.065
  0
CIRCLE
  5
B54
330
6F
100
AcDbEntity
  8
0
100
AcDbCircle
 10
205.9286607385923
 20
10.80606633323205
 30
0.0
 40
0.065
  0
CIRCLE
  5
B55
330
6F
100
AcDbEntity
  8
0
100
AcDbCircle
 10
206.5096148826923
 20
9.078195221432054
 30
0.0
 40
0.065
  0
CIRCLE
  5
B56
330
6F
100
AcDbEntity
  8
0
100
AcDbCircle
 10
221.8471203865923
 20
11.92045154403206
 30
0.0
 40
0.065
  0
CIRCLE
  5
B57
330
6F
100
AcDbEntity
  8
0
100
AcDbCircle
 10
221.8471203865923
 20
9.617301937732065
 30
0.0
 40
0.065
  0
MTEXT
  5
B58
102
{ACAD_XDICTIONARY
360
B59
102
}
330
6F
100
AcDbEntity
  8
Info
100
AcDbMText
 10
215.7957452670385
 20
7.903329401376296
 30
0.0
 40
0.05
 41
4.444364789627686
 46
0.0
 71
     2
 72
     5
  1
RH Seat Bucket Exterior Detail - Qty 1 - PN# OH3A2A-34 - CNC - Item 25 - Thick .25" (6.35mm)
  7
Annotative
 73
     1
 44
1.0
1001
AcadAnnotative
1000
AnnotativeData
1002
{
1070
     1
1070
     1
1002
}
1001
ACAD
1000
ACAD_MTEXT_COLUMN_INFO_BEGIN
1070
    75
1070
     2
1070
    79
1070
     0
1070
    76
1070
     1
1070
    78
1070
     0
1070
    48
1040
4.444364789627686
1070
    49
1040
0.625
1070
    50
1070
     1
1040
0.0830158434547273
1000
ACAD_MTEXT_COLUMN_INFO_END
  0
CIRCLE
  5
B5D
330
6F
100
AcDbEntity
  8
0
  6
Continuous
 62
     7
100
AcDbCircle
 10
243.3106996601027
 20
24.56664583244836
 30
0.0
 40
0.1999999999999993
  0
CIRCLE
  5
B5E
330
6F
100
AcDbEntity
  8
0
  6
Continuous
 62
     7
100
AcDbCircle
 10
236.8894398178027
 20
24.56664583244836
 30
0.0
 40
0.1999999999999975
  0
CIRCLE
  5
B5F
330
6F
100
AcDbEntity
  8
0
  6
Continuous
 62
     7
100
AcDbCircle
 10
240.1000697390027
 20
25.22290296064836
 30
0.0
 40
0.125
  0
LWPOLYLINE
  5
B60
330
6F
100
AcDbEntity
  8
0
  6
Continuous
 62
     7
100
AcDbPolyline
 90
        4
 70
     1
 43
0.0
 10
243.6856996601027
 20
22.16038870424833
 10
236.5144398178027
 20
22.16038870424833
 10
236.5144398178027
 20
26.97290296064835
 10
243.6856996601027
 20
26.97290296064835
  0
CIRCLE
  5
B61
330
6F
100
AcDbEntity
  8
0
100
AcDbCircle
 10
243.3106996601027
 20
24.56664583244836
 30
0.0
 40
0.065
  0
CIRCLE
  5
B62
330
6F
100
AcDbEntity
  8
0
100
AcDbCircle
 10
236.8894398178027
 20
24.56664583244836
 30
0.0
 40
0.065
  0
MTEXT
  5
B63
102
{ACAD_XDICTIONARY
360
B64
102
}
330
6F
100
AcDbEntity
  8
Info
100
AcDbMText
 10
240.1023437130028
 20
22.34052370178327
 30
0.0
 40
0.05
 41
3.632685969347309
 46
0.0
 71
     2
 72
     5
  1
Upper Rail Cap - Qty 1 - PN# OH3A2A-57 - CNC - Item 48 - Thick .25" (6.35mm)
  7
Annotative
 73
     1
 44
1.0
1001
AcadAnnotative
1000
AnnotativeData
1002
{
1070
     1
1070
     1
1002
}
1001
ACAD
1000
ACAD_MTEXT_COLUMN_INFO_BEGIN
1070
    75
1070
     2
1070
    79
1070
     0
1070
    76
1070
     1
1070
    78
1070
     0
1070
    48
1040
3.632685969347309
1070
    49
1040
0.625
1070
    50
1070
     1
1040
0.0830158434547273
1000
ACAD_MTEXT_COLUMN_INFO_END
  0
CIRCLE
  5
B68
330
6F
100
AcDbEntity
  8
0
  6
Continuous
 62
     7
100
AcDbCircle
 10
237.1517573968227
 20
18.01295213761114
 30
0.0
 40
0.0625000000000001
  0
CIRCLE
  5
B69
330
6F
100
AcDbEntity
  8
0
  6
Continuous
 62
     7
100
AcDbCircle
 10
237.1517573968227
 20
11.26295213761113
 30
0.0
 40
0.0625000000000001
  0
CIRCLE
  5
B6A
330
6F
100
AcDbEntity
  8
0
  6
Continuous
 62
     7
100
AcDbCircle
 10
243.3230172391227
 20
11.26295213761113
 30
0.0
 40
0.0625000000000009
  0
CIRCLE
  5
B6B
330
6F
100
AcDbEntity
  8
0
  6
Continuous
 62
     7
100
AcDbCircle
 10
243.3230172391227
 20
18.01295213761114
 30
0.0
 40
0.0625
  0
LWPOLYLINE
  5
B6C
330
6F
100
AcDbEntity
  8
0
  6
Continuous
 62
     7
100
AcDbPolyline
 90
        6
 70
     1
 43
0.0
 10
243.8230172391226
 20
19.88795213761114
 10
236.6517573968227
 20
19.88795213761114
 10
236.6517573968227
 20
11.26295213761113
 42
0.4142135623730951
 10
237.1517573968227
 20
10.76295213761113
 10
243.3230172391227
 20
10.76295213761109
 42
0.4142135623730951
 10
243.8230172391227
 20
11.26295213761113
  0
MTEXT
  5
B6D
102
{ACAD_XDICTIONARY
360
B6E
102
}
330
6F
100
AcDbEntity
  8
Info
100
AcDbMText
 10
240.2393552742426
 20
10.94253645596492
 30
0.0
 40
0.05
 41
3.632685969347309
 46
0.0
 71
     2
 72
     5
  1
Aft Rail Cap - Qty 1 - PN# OH3A2A-58 - CNC - Item 49 - Thick .25" (6.35mm)
  7
Annotative
 73
     1
 44
1.0
1001
AcadAnnotative
1000
AnnotativeData
1002
{
1070
     1
1070
     1
1002
}
1001
ACAD
1000
ACAD_MTEXT_COLUMN_INFO_BEGIN
1070
    75
1070
     2
1070
    79
1070
     0
1070
    76
1070
     1
1070
    78
1070
     0
1070
    48
1040
3.632685969347309
1070
    49
1040
0.625
1070
    50
1070
     1
1040
0.0830158434547273
1000
ACAD_MTEXT_COLUMN_INFO_END
  0
ENDSEC
  0
SECTION
  2
OBJECTS
  0
DICTIONARY
  5
C
330
0
100
AcDbDictionary
281
     1
  3
ACAD_CIP_PREVIOUS_PRODUCT_INFO
350
889
  3
ACAD_COLOR
350
62
  3
ACAD_DETAILVIEWSTYLE
350
69
  3
ACAD_GROUP
350
D
  3
ACAD_LAYOUT
350
61
  3
ACAD_MATERIAL
350
10
  3
ACAD_MLEADERSTYLE
350
65
  3
ACAD_MLINESTYLE
350
5E
  3
ACAD_PLOTSETTINGS
350
60
  3
ACAD_PLOTSTYLENAME
350
E
  3
ACAD_SCALELIST
350
42
  3
ACAD_SECTIONVIEWSTYLE
350
67
  3
ACAD_TABLESTYLE
350
63
  3
ACAD_VISUALSTYLE
350
29
  3
ACDB_RECOMPOSE_DATA
350
B94
  3
AcDbVariableDictionary
350
88D
  3
AcDsDecomposeData
350
B9A
  0
DICTIONARY
  5
8A6
330
2
100
AcDbDictionary
280
     1
281
     1
  3
ACAD_LAYERSTATES
360
8A7
  0
DICTIONARY
  5
88A
330
54
100
AcDbDictionary
280
     1
281
     1
  3
ADSK_XREC_LAYER_RECONCILED
360
88B
  0
DICTIONARY
  5
8AD
330
8AC
100
AcDbDictionary
280
     1
281
     1
  0
DICTIONARY
  5
B88
330
6F
100
AcDbDictionary
280
     1
281
     1
  3
ACAD_SORTENTS
360
B89
  0
DICTIONARY
  5
90A
330
909
100
AcDbDictionary
280
     1
281
     1
  3
AcDbContextDataManager
360
90B
  0
DICTIONARY
  5
969
330
968
100
AcDbDictionary
280
     1
281
     1
  3
AcDbContextDataManager
360
96A
  0
DICTIONARY
  5
99E
330
99D
100
AcDbDictionary
280
     1
281
     1
  3
AcDbContextDataManager
360
99F
  0
DICTIONARY
  5
A0E
330
A0D
100
AcDbDictionary
280
     1
281
     1
  3
AcDbContextDataManager
360
A0F
  0
DICTIONARY
  5
A56
330
A55
100
AcDbDictionary
280
     1
281
     1
  3
AcDbContextDataManager
360
A57
  0
DICTIONARY
  5
A7C
330
A7B
100
AcDbDictionary
280
     1
281
     1
  3
AcDbContextDataManager
360
A7D
  0
DICTIONARY
  5
AEB
330
AEA
100
AcDbDictionary
280
     1
281
     1
  3
AcDbContextDataManager
360
AEC
  0
DICTIONARY
  5
B15
330
B14
100
AcDbDictionary
280
     1
281
     1
  3
AcDbContextDataManager
360
B16
  0
DICTIONARY
  5
B2A
330
B29
100
AcDbDictionary
280
     1
281
     1
  3
AcDbContextDataManager
360
B2B
  0
DICTIONARY
  5
B59
330
B58
100
AcDbDictionary
280
     1
281
     1
  3
AcDbContextDataManager
360
B5A
  0
DICTIONARY
  5
B64
330
B63
100
AcDbDictionary
280
     1
281
     1
  3
AcDbContextDataManager
360
B65
  0
DICTIONARY
  5
B6E
330
B6D
100
AcDbDictionary
280
     1
281
     1
  3
AcDbContextDataManager
360
B6F
  0
XRECORD
  5
889
102
{ACAD_REACTORS
330
C
102
}
330
C
100
AcDbXrecord
280
     1
300
ACDLT
300
2020
300

  0
DICTIONARY
  5
62
102
{ACAD_REACTORS
330
C
102
}
330
C
100
AcDbDictionary
281
     1
  0
DICTIONARY
  5
69
102
{ACAD_REACTORS
330
C
102
}
330
C
100
AcDbDictionary
281
     1
  3
Imperial24
350
6A
  0
DICTIONARY
  5
D
102
{ACAD_REACTORS
330
C
102
}
330
C
100
AcDbDictionary
281
     1
  0
DICTIONARY
  5
61
102
{ACAD_REACTORS
330
C
102
}
330
C
100
AcDbDictionary
281
     1
  3
Layout1
350
6E
  3
Model
350
72
  0
DICTIONARY
  5
10
102
{ACAD_REACTORS
330
C
102
}
330
C
100
AcDbDictionary
281
     1
  3
ByBlock
350
19
  3
ByLayer
350
11
  3
Global
350
21
  0
DICTIONARY
  5
65
102
{ACAD_REACTORS
330
C
102
}
330
C
100
AcDbDictionary
281
     1
  3
Standard
350
66
  0
DICTIONARY
  5
5E
102
{ACAD_REACTORS
330
C
102
}
330
C
100
AcDbDictionary
281
     1
  3
Standard
350
5F
  0
DICTIONARY
  5
60
102
{ACAD_REACTORS
330
C
102
}
330
C
100
AcDbDictionary
281
     1
  0
ACDBDICTIONARYWDFLT
  5
E
102
{ACAD_REACTORS
330
C
102
}
330
C
100
AcDbDictionary
281
     1
  3
Normal
350
F
100
AcDbDictionaryWithDefault
340
F
  0
DICTIONARY
  5
42
102
{ACAD_REACTORS
330
C
102
}
330
C
100
AcDbDictionary
281
     1
  3
A0
350
43
  3
A1
350
44
  3
A2
350
45
  3
A3
350
46
  3
A4
350
47
  3
A5
350
48
  3
A6
350
49
  3
A7
350
4A
  3
A8
350
4B
  3
A9
350
4C
  3
B0
350
4D
  3
B1
350
4E
  3
B2
350
4F
  3
B3
350
50
  3
B4
350
51
  3
B5
350
52
  3
B6
350
53
  0
DICTIONARY
  5
67
102
{ACAD_REACTORS
330
C
102
}
330
C
100
AcDbDictionary
281
     1
  3
Imperial24
350
68
  0
DICTIONARY
  5
63
102
{ACAD_REACTORS
330
C
102
}
330
C
100
AcDbDictionary
281
     1
  3
Standard
350
64
  0
DICTIONARY
  5
29
102
{ACAD_REACTORS
330
C
102
}
330
C
100
AcDbDictionary
281
     1
  3
2dWireframe
350
2F
  3
Basic
350
2E
  3
Brighten
350
35
  3
ColorChange
350
39
  3
Conceptual
350
32
  3
Dim
350
34
  3
EdgeColorOff
350
41
  3
Facepattern
350
38
  3
Flat
350
2A
  3
FlatWithEdges
350
2B
  3
Gouraud
350
2C
  3
GouraudWithEdges
350
2D
  3
Hidden
350
31
  3
JitterOff
350
3F
  3
Linepattern
350
37
  3
OverhangOff
350
40
  3
Realistic
350
33
  3
Shaded
350
3E
  3
Shaded with edges
350
3D
  3
Shades of Gray
350
3A
  3
Sketchy
350
3B
  3
Thicken
350
36
  3
Wireframe
350
30
  3
X-Ray
350
3C
  0
XRECORD
  5
B94
102
{ACAD_REACTORS
330
C
102
}
330
C
100
AcDbXrecord
280
     1
 90
        1
330
64
330
909
330
968
330
99D
330
A0D
330
A55
330
A7B
330
AD5
330
AEA
330
B14
330
B29
330
B58
330
B63
330
B6D
  0
DICTIONARY
  5
88D
102
{ACAD_REACTORS
330
C
102
}
330
C
100
AcDbDictionary
281
     1
  3
CANNOSCALE
350
893
  3
CMLEADERSTYLE
350
88F
  3
CTABLESTYLE
350
88E
  3
CVIEWDETAILSTYLE
350
890
  3
CVIEWSECTIONSTYLE
350
891
  3
LAYEREVAL
350
895
  3
LAYERNOTIFY
350
896
  3
LIGHTINGUNITS
350
894
  3
MSLTSCALE
350
892
  0
DICTIONARY
  5
B9A
102
{ACAD_REACTORS
330
C
102
}
330
C
100
AcDbDictionary
281
     1
  3
AcDsRecords
350
B9C
  3
AcDsSchemas
350
B9B
1001
ACAD
1070
     2
  0
DICTIONARY
  5
8A7
102
{ACAD_REACTORS
330
8A6
102
}
330
8A6
100
AcDbDictionary
281
     1
  0
XRECORD
  5
88B
102
{ACAD_REACTORS
330
88A
102
}
330
88A
100
AcDbXrecord
280
     1
290
     1
  0
SORTENTSTABLE
  5
B89
102
{ACAD_REACTORS
330
B88
102
}
330
B88
100
AcDbSortentsTable
330
6F
331
ACD
  5
ACE
331
ACE
  5
ACF
331
ACF
  5
AD1
331
AD0
  5
AD2
331
AD1
  5
AD3
331
AD2
  5
AD4
331
AD3
  5
AD5
331
AD4
  5
AD7
331
AD5
  5
AD8
331
AD7
  5
AD9
331
AD8
  5
ADA
331
AD9
  5
ADB
331
ADA
  5
ADC
331
ADB
  5
ADD
331
ADC
  5
ADE
331
ADD
  5
ADF
331
ADE
  5
AE0
331
ADF
  5
AE1
331
AE0
  5
AE2
331
AE1
  5
AE3
331
AE2
  5
AE4
331
AE3
  5
AE5
331
AE4
  5
AE6
331
AE5
  5
AE7
331
AE6
  5
AE8
331
AE7
  5
AE9
331
AE8
  5
AEA
331
AE9
  5
AEF
331
AEA
  5
AF0
331
AEF
  5
AF1
331
AF0
  5
AF2
331
AF1
  5
AF3
331
AF2
  5
AF4
331
AF3
  5
AF5
331
AF4
  5
AF6
331
AF5
  5
AF7
331
AF6
  5
AF8
331
AF7
  5
AF9
331
AF8
  5
AFA
331
AF9
  5
AFB
331
AFA
  5
AFC
331
AFB
  5
AFD
331
AFC
  5
AFE
331
AFD
  5
AFF
331
AFE
  5
B00
331
AFF
  5
B01
331
B00
  5
B02
331
B01
  5
B03
331
B02
  5
B04
331
B03
  5
B05
331
B04
  5
B06
331
B05
  5
B07
331
B06
  5
B08
331
B07
  5
B09
331
B08
  5
B0A
331
B09
  5
B0B
331
B0A
  5
B0C
331
B0B
  5
B0D
331
B0C
  5
B0E
331
B0D
  5
B0F
331
B0E
  5
B10
331
B0F
  5
B11
331
B10
  5
B12
331
B11
  5
B13
331
B12
  5
B14
331
B13
  5
B19
331
B14
  5
B1A
331
B19
  5
B1B
331
B1A
  5
B1C
331
B1B
  5
B1D
331
B1C
  5
B1E
331
B1D
  5
B1F
331
B1E
  5
B20
331
B1F
  5
B21
331
B20
  5
B22
331
B21
  5
B23
331
B22
  5
B24
331
B23
  5
B25
331
B24
  5
B26
331
B25
  5
B27
331
B26
  5
B28
331
B27
  5
B29
331
B28
  5
B2E
331
B29
  5
B2F
331
B2E
  5
B30
331
B2F
  5
B31
331
B30
  5
B32
331
B31
  5
B33
331
B32
  5
B34
331
B33
  5
B35
331
B34
  5
B36
331
B35
  5
B37
331
B36
  5
B38
331
B37
  5
B39
331
B38
  5
B3A
331
B39
  5
B3B
331
B3A
  5
B3C
331
B3B
  5
B3D
331
B3C
  5
B3E
331
B3D
  5
B3F
331
B3E
  5
B40
331
B3F
  5
B41
331
B40
  5
B42
331
B41
  5
B43
331
B42
  5
B44
331
B43
  5
B45
331
B44
  5
B46
331
B45
  5
B47
331
B46
  5
B48
331
B47
  5
B49
331
B48
  5
B4A
331
B49
  5
B4B
331
B4A
  5
B4C
331
B4B
  5
B4D
331
B4C
  5
B4E
331
B4D
  5
B4F
331
B4E
  5
B50
331
B4F
  5
B51
331
B50
  5
B52
331
B51
  5
B53
331
B52
  5
B54
331
B53
  5
B55
331
B54
  5
B56
331
B55
  5
B57
331
B56
  5
B58
331
B57
  5
B5D
331
B58
  5
B5E
331
B5D
  5
B5F
331
B5E
  5
B60
331
B5F
  5
B61
331
B60
  5
B62
331
B61
  5
B63
331
B62
  5
B68
331
B63
  5
B69
331
B68
  5
B6A
331
B69
  5
B6B
331
B6A
  5
B6C
331
B6B
  5
B6D
331
B6C
  5
B87
331
B6D
  5
B8A
  0
DICTIONARY
  5
90B
102
{ACAD_REACTORS
330
90A
102
}
330
90A
100
AcDbDictionary
281
     1
  3
ACDB_ANNOTATIONSCALES
350
90C
  0
DICTIONARY
  5
96A
102
{ACAD_REACTORS
330
969
102
}
330
969
100
AcDbDictionary
281
     1
  3
ACDB_ANNOTATIONSCALES
350
96B
  0
DICTIONARY
  5
99F
102
{ACAD_REACTORS
330
99E
102
}
330
99E
100
AcDbDictionary
281
     1
  3
ACDB_ANNOTATIONSCALES
350
9A0
  0
DICTIONARY
  5
A0F
102
{ACAD_REACTORS
330
A0E
102
}
330
A0E
100
AcDbDictionary
281
     1
  3
ACDB_ANNOTATIONSCALES
350
A10
  0
DICTIONARY
  5
A57
102
{ACAD_REACTORS
330
A56
102
}
330
A56
100
AcDbDictionary
281
     1
  3
ACDB_ANNOTATIONSCALES
350
A58
  0
DICTIONARY
  5
A7D
102
{ACAD_REACTORS
330
A7C
102
}
330
A7C
100
AcDbDictionary
281
     1
  3
ACDB_ANNOTATIONSCALES
350
A7E
  0
DICTIONARY
  5
AEC
102
{ACAD_REACTORS
330
AEB
102
}
330
AEB
100
AcDbDictionary
281
     1
  3
ACDB_ANNOTATIONSCALES
350
AED
  0
DICTIONARY
  5
B16
102
{ACAD_REACTORS
330
B15
102
}
330
B15
100
AcDbDictionary
281
     1
  3
ACDB_ANNOTATIONSCALES
350
B17
  0
DICTIONARY
  5
B2B
102
{ACAD_REACTORS
330
B2A
102
}
330
B2A
100
AcDbDictionary
281
     1
  3
ACDB_ANNOTATIONSCALES
350
B2C
  0
DICTIONARY
  5
B5A
102
{ACAD_REACTORS
330
B59
102
}
330
B59
100
AcDbDictionary
281
     1
  3
ACDB_ANNOTATIONSCALES
350
B5B
  0
DICTIONARY
  5
B65
102
{ACAD_REACTORS
330
B64
102
}
330
B64
100
AcDbDictionary
281
     1
  3
ACDB_ANNOTATIONSCALES
350
B66
  0
DICTIONARY
  5
B6F
102
{ACAD_REACTORS
330
B6E
102
}
330
B6E
100
AcDbDictionary
281
     1
  3
ACDB_ANNOTATIONSCALES
350
B70
  0
ACDBDETAILVIEWSTYLE
  5
6A
102
{ACAD_XDICTIONARY
360
B9F
102
}
102
{ACAD_REACTORS
330
69
102
}
330
69
100
AcDbModelDocViewStyle
 70
     0
  3
Imperial24
290
     0
100
AcDbDetailViewStyle
 70
     0
 71
     0
 90
        3
 71
     1
340
55
 62
   256
 40
0.24
340
0
 62
   256
 40
0.24
300

 40
0.36
280
     3
 71
     2
340
5C
 90
       25
 62
   256
 71
     3
340
55
 62
   256
 40
0.24
 90
        1
 40
0.75
 90
        1
300
%<\AcVar ViewType \f "%tc1">% %<\AcVar ViewDetailId>%\PSCALE %<\AcVar ViewScale \f "%sn">%
 71
     4
340
5C
 90
       25
 62
   256
340
5C
 90
       25
 62
   256
280
     0
  0
LAYOUT
  5
6E
102
{ACAD_REACTORS
330
61
102
}
330
61
100
AcDbPlotSettings
  1

  2
Brother MFC-L3770CDW series Printer
  4

  6

 40
0.0
 41
0.0
 42
0.0
 43
0.0
 44
0.0
 45
0.0
 46
0.0
 47
0.0
 48
0.0
 49
0.0
140
0.0
141
0.0
142
1.0
143
1.0
 70
   688
 72
     0
 73
     0
 74
     5
  7

 75
    16
147
1.0
 76
     0
 77
     2
 78
   300
148
0.0
149
0.0
100
AcDbLayout
  1
Layout1
 70
     1
 71
     1
 10
0.0
 20
0.0
 11
12.0
 21
9.0
 12
0.0
 22
0.0
 32
0.0
 14
1.000000000000000E+20
 24
1.000000000000000E+20
 34
1.000000000000000E+20
 15
-1.000000000000000E+20
 25
-1.000000000000000E+20
 35
-1.000000000000000E+20
146
0.0
 13
0.0
 23
0.0
 33
0.0
 16
1.0
 26
0.0
 36
0.0
 17
0.0
 27
1.0
 37
0.0
 76
     0
330
6B
  0
LAYOUT
  5
72
102
{ACAD_REACTORS
330
61
102
}
330
61
100
AcDbPlotSettings
  1

  2
Brother MFC-L3770CDW series Printer
  4

  6

 40
0.0
 41
0.0
 42
0.0
 43
0.0
 44
0.0
 45
0.0
 46
0.0
 47
0.0
 48
0.0
 49
0.0
140
0.0
141
0.0
142
1.0
143
1.0
 70
  1712
 72
     0
 73
     0
 74
     0
  7

 75
     0
147
1.0
 76
     0
 77
     2
 78
   300
148
0.0
149
0.0
100
AcDbLayout
  1
Model
 70
     1
 71
     0
 10
0.0
 20
0.0
 11
12.0
 21
9.0
 12
0.0
 22
0.0
 32
0.0
 14
0.0
 24
0.0
 34
0.0
 15
0.0
 25
0.0
 35
0.0
146
0.0
 13
0.0
 23
0.0
 33
0.0
 16
1.0
 26
0.0
 36
0.0
 17
0.0
 27
1.0
 37
0.0
 76
     0
330
6F
331
74
  0
MATERIAL
  5
19
102
{ACAD_XDICTIONARY
360
1A
102
}
102
{ACAD_REACTORS
330
10
102
}
330
10
100
AcDbMaterial
  1
ByBlock
 72
     0
 43
0.0208333333333333
 43
0.0
 43
0.0
 43
0.0
 43
0.0
 43
0.0208333333333333
 43
0.0
 43
0.0
 43
0.0
 43
0.0
 43
1.0
 43
0.0
 43
0.0
 43
0.0
 43
0.0
 43
1.0
 77
     0
 47
0.0208333333333333
 47
0.0
 47
0.0
 47
0.0
 47
0.0
 47
0.0208333333333333
 47
0.0
 47
0.0
 47
0.0
 47
0.0
 47
1.0
 47
0.0
 47
0.0
 47
0.0
 47
0.0
 47
1.0
171
     0
 49
0.0208333333333333
 49
0.0
 49
0.0
 49
0.0
 49
0.0
 49
0.0208333333333333
 49
0.0
 49
0.0
 49
0.0
 49
0.0
 49
1.0
 49
0.0
 49
0.0
 49
0.0
 49
0.0
 49
1.0
175
     0
142
0.0208333333333333
142
0.0
142
0.0
142
0.0
142
0.0
142
0.0208333333333333
142
0.0
142
0.0
142
0.0
142
0.0
142
1.0
142
0.0
142
0.0
142
0.0
142
0.0
142
1.0
179
     0
144
0.0208333333333333
144
0.0
144
0.0
144
0.0
144
0.0
144
0.0208333333333333
144
0.0
144
0.0
144
0.0
144
0.0
144
1.0
144
0.0
144
0.0
144
0.0
144
0.0
144
1.0
147
0.0208333333333333
147
0.0
147
0.0
147
0.0
147
0.0
147
0.0208333333333333
147
0.0
147
0.0
147
0.0
147
0.0
147
1.0
147
0.0
147
0.0
147
0.0
147
0.0
147
1.0
  0
MATERIAL
  5
11
102
{ACAD_XDICTIONARY
360
12
102
}
102
{ACAD_REACTORS
330
10
102
}
330
10
100
AcDbMaterial
  1
ByLayer
 72
     0
 43
0.0208333333333333
 43
0.0
 43
0.0
 43
0.0
 43
0.0
 43
0.0208333333333333
 43
0.0
 43
0.0
 43
0.0
 43
0.0
 43
1.0
 43
0.0
 43
0.0
 43
0.0
 43
0.0
 43
1.0
 77
     0
 47
0.0208333333333333
 47
0.0
 47
0.0
 47
0.0
 47
0.0
 47
0.0208333333333333
 47
0.0
 47
0.0
 47
0.0
 47
0.0
 47
1.0
 47
0.0
 47
0.0
 47
0.0
 47
0.0
 47
1.0
171
     0
 49
0.0208333333333333
 49
0.0
 49
0.0
 49
0.0
 49
0.0
 49
0.0208333333333333
 49
0.0
 49
0.0
 49
0.0
 49
0.0
 49
1.0
 49
0.0
 49
0.0
 49
0.0
 49
0.0
 49
1.0
175
     0
142
0.0208333333333333
142
0.0
142
0.0
142
0.0
142
0.0
142
0.0208333333333333
142
0.0
142
0.0
142
0.0
142
0.0
142
1.0
142
0.0
142
0.0
142
0.0
142
0.0
142
1.0
179
     0
144
0.0208333333333333
144
0.0
144
0.0
144
0.0
144
0.0
144
0.0208333333333333
144
0.0
144
0.0
144
0.0
144
0.0
144
1.0
144
0.0
144
0.0
144
0.0
144
0.0
144
1.0
147
0.0208333333333333
147
0.0
147
0.0
147
0.0
147
0.0
147
0.0208333333333333
147
0.0
147
0.0
147
0.0
147
0.0
147
1.0
147
0.0
147
0.0
147
0.0
147
0.0
147
1.0
  0
MATERIAL
  5
21
102
{ACAD_XDICTIONARY
360
22
102
}
102
{ACAD_REACTORS
330
10
102
}
330
10
100
AcDbMaterial
  1
Global
 72
     0
 43
0.0208333333333333
 43
0.0
 43
0.0
 43
0.0
 43
0.0
 43
0.0208333333333333
 43
0.0
 43
0.0
 43
0.0
 43
0.0
 43
1.0
 43
0.0
 43
0.0
 43
0.0
 43
0.0
 43
1.0
 77
     0
 47
0.0208333333333333
 47
0.0
 47
0.0
 47
0.0
 47
0.0
 47
0.0208333333333333
 47
0.0
 47
0.0
 47
0.0
 47
0.0
 47
1.0
 47
0.0
 47
0.0
 47
0.0
 47
0.0
 47
1.0
171
     0
 49
0.0208333333333333
 49
0.0
 49
0.0
 49
0.0
 49
0.0
 49
0.0208333333333333
 49
0.0
 49
0.0
 49
0.0
 49
0.0
 49
1.0
 49
0.0
 49
0.0
 49
0.0
 49
0.0
 49
1.0
175
     0
142
0.0208333333333333
142
0.0
142
0.0
142
0.0
142
0.0
142
0.0208333333333333
142
0.0
142
0.0
142
0.0
142
0.0
142
1.0
142
0.0
142
0.0
142
0.0
142
0.0
142
1.0
179
     0
144
0.0208333333333333
144
0.0
144
0.0
144
0.0
144
0.0
144
0.0208333333333333
144
0.0
144
0.0
144
0.0
144
0.0
144
1.0
144
0.0
144
0.0
144
0.0
144
0.0
144
1.0
147
0.0208333333333333
147
0.0
147
0.0
147
0.0
147
0.0
147
0.0208333333333333
147
0.0
147
0.0
147
0.0
147
0.0
147
1.0
147
0.0
147
0.0
147
0.0
147
0.0
147
1.0
  0
MLEADERSTYLE
  5
66
102
{ACAD_REACTORS
330
65
102
}
330
65
100
AcDbMLeaderStyle
179
     2
170
     2
171
     1
172
     0
 90
        2
 40
0.0
 41
0.0
173
     1
 91
-1056964608
340
5A
 92
       -2
290
     1
 42
0.09
291
     1
 43
0.36
  3
Standard
 44
0.18
300

342
55
174
     1
178
     6
175
     1
176
     0
 93
-1056964608
 45
0.18
292
     0
297
     0
 46
0.18
 94
-1056964608
 47
1.0
 49
1.0
140
1.0
293
     1
141
0.0
294
     1
177
     0
142
1.0
295
     0
296
     0
143
0.125
271
     0
272
     9
273
     9
298
     0
  0
MLINESTYLE
  5
5F
102
{ACAD_REACTORS
330
5E
102
}
330
5E
100
AcDbMlineStyle
  2
STANDARD
 70
     0
  3

 62
   256
 51
90.0
 52
90.0
 71
     2
 49
0.5
 62
   256
  6
BYLAYER
 49
-0.5
 62
   256
  6
BYLAYER
  0
ACDBPLACEHOLDER
  5
F
102
{ACAD_REACTORS
330
E
102
}
330
E
  0
SCALE
  5
43
102
{ACAD_REACTORS
330
42
102
}
330
42
100
AcDbScale
 70
     0
300
1:1
140
1.0
141
1.0
290
     1
  0
SCALE
  5
44
102
{ACAD_REACTORS
330
42
102
}
330
42
100
AcDbScale
 70
     0
300
1/128" = 1'-0"
140
0.0078125
141
12.0
290
     0
  0
SCALE
  5
45
102
{ACAD_REACTORS
330
42
102
}
330
42
100
AcDbScale
 70
     0
300
1/64" = 1'-0"
140
0.015625
141
12.0
290
     0
  0
SCALE
  5
46
102
{ACAD_REACTORS
330
42
102
}
330
42
100
AcDbScale
 70
     0
300
1/32" = 1'-0"
140
0.03125
141
12.0
290
     0
  0
SCALE
  5
47
102
{ACAD_REACTORS
330
42
102
}
330
42
100
AcDbScale
 70
     0
300
1/16" = 1'-0"
140
0.0625
141
12.0
290
     0
  0
SCALE
  5
48
102
{ACAD_REACTORS
330
42
102
}
330
42
100
AcDbScale
 70
     0
300
3/32" = 1'-0"
140
0.09375
141
12.0
290
     0
  0
SCALE
  5
49
102
{ACAD_REACTORS
330
42
102
}
330
42
100
AcDbScale
 70
     0
300
1/8" = 1'-0"
140
0.125
141
12.0
290
     0
  0
SCALE
  5
4A
102
{ACAD_REACTORS
330
42
102
}
330
42
100
AcDbScale
 70
     0
300
3/16" = 1'-0"
140
0.1875
141
12.0
290
     0
  0
SCALE
  5
4B
102
{ACAD_REACTORS
330
42
102
}
330
42
100
AcDbScale
 70
     0
300
1/4" = 1'-0"
140
0.25
141
12.0
290
     0
  0
SCALE
  5
4C
102
{ACAD_REACTORS
330
42
102
}
330
42
100
AcDbScale
 70
     0
300
3/8" = 1'-0"
140
0.375
141
12.0
290
     0
  0
SCALE
  5
4D
102
{ACAD_REACTORS
330
42
102
}
330
42
100
AcDbScale
 70
     0
300
1/2" = 1'-0"
140
0.5
141
12.0
290
     0
  0
SCALE
  5
4E
102
{ACAD_REACTORS
330
42
102
}
330
42
100
AcDbScale
 70
     0
300
3/4" = 1'-0"
140
0.75
141
12.0
290
     0
  0
SCALE
  5
4F
102
{ACAD_REACTORS
330
42
102
}
330
42
100
AcDbScale
 70
     0
300
1" = 1'-0"
140
1.0
141
12.0
290
     0
  0
SCALE
  5
50
102
{ACAD_REACTORS
330
42
102
}
330
42
100
AcDbScale
 70
     0
300
1-1/2" = 1'-0"
140
1.5
141
12.0
290
     0
  0
SCALE
  5
51
102
{ACAD_REACTORS
330
42
102
}
330
42
100
AcDbScale
 70
     0
300
3" = 1'-0"
140
3.0
141
12.0
290
     0
  0
SCALE
  5
52
102
{ACAD_REACTORS
330
42
102
}
330
42
100
AcDbScale
 70
     0
300
6" = 1'-0"
140
6.0
141
12.0
290
     0
  0
SCALE
  5
53
102
{ACAD_REACTORS
330
42
102
}
330
42
100
AcDbScale
 70
     0
300
1'-0" = 1'-0"
140
12.0
141
12.0
290
     0
  0
ACDBSECTIONVIEWSTYLE
  5
68
102
{ACAD_XDICTIONARY
360
B9D
102
}
102
{ACAD_REACTORS
330
67
102
}
330
67
100
AcDbModelDocViewStyle
 70
     0
  3
Imperial24
290
     0
100
AcDbSectionViewStyle
 70
     0
 71
     0
 90
       78
 71
     1
340
55
 62
   256
 40
0.24
340
0
340
0
 62
   256
 40
0.24
300
I, O, Q, S, X, Z
 40
0.48
 90
        3
 40
0.18
 90
        1
 71
     2
340
5C
 90
       25
 62
   256
340
5C
 90
       50
 62
   256
 40
0.24
 40
0.0
 40
0.24
 71
     3
340
55
 62
   256
 40
0.24
 90
        1
 40
0.75
 90
        1
300
%<\AcVar ViewType \f "%tc1">% %<\AcVar ViewSectionStartId>%-%<\AcVar ViewSectionEndId>%\PSCALE %<\AcVar ViewScale \f "%sn">%
 71
     4
 62
   256
 62
   257
300
ANSI31
 40
1.0
 90
        0
290
     0
290
     0
 90
        6
 40
0.0
 40
1.570796326794896
 40
0.2617993877991494
 40
1.308996938995747
 40
-0.2617993877991494
 40
1.832595714594046
  0
TABLESTYLE
  5
64
102
{ACAD_XDICTIONARY
360
B92
102
}
102
{ACAD_REACTORS
330
63
102
}
330
63
100
AcDbTableStyle
280
     0
  3
Standard
 70
     0
 71
     0
 40
0.06
 41
0.06
280
     0
281
     0
  7
Standard
140
0.18
170
     2
 62
     0
 63
     7
283
     0
 90
      512
 91
        0
  1

274
    -2
284
     1
 64
     0
275
    -2
285
     1
 65
     0
276
    -2
286
     1
 66
     0
277
    -2
287
     1
 67
     0
278
    -2
288
     1
 68
     0
279
    -2
289
     1
 69
     0
  7
Standard
140
0.25
170
     5
 62
     0
 63
     7
283
     0
 90
      512
 91
        0
  1

274
    -2
284
     1
 64
     0
275
    -2
285
     1
 65
     0
276
    -2
286
     1
 66
     0
277
    -2
287
     1
 67
     0
278
    -2
288
     1
 68
     0
279
    -2
289
     1
 69
     0
  7
Standard
140
0.18
170
     5
 62
     0
 63
     7
283
     0
 90
      512
 91
        0
  1

274
    -2
284
     1
 64
     0
275
    -2
285
     1
 65
     0
276
    -2
286
     1
 66
     0
277
    -2
287
     1
 67
     0
278
    -2
288
     1
 68
     0
279
    -2
289
     1
 69
     0
  0
VISUALSTYLE
  5
2F
102
{ACAD_REACTORS
330
29
102
}
330
29
100
AcDbVisualStyle
  2
2dWireframe
 70
     4
177
     3
291
     0
 70
    58
 90
        0
176
     1
 90
        2
176
     1
 90
        0
176
     1
 90
        0
176
     1
 40
0.6
176
     1
 40
30.0
176
     1
 62
     7
420
 16777215
176
     1
 90
        1
176
     1
 90
        4
176
     1
 62
     7
176
     1
 62
   257
176
     1
 90
        1
176
     1
 90
        1
176
     1
 40
1.0
176
     1
 90
        0
176
     1
 62
   257
176
     1
 40
1.0
176
     1
 90
        1
176
     1
 90
        6
176
     1
 90
        2
176
     1
 62
     7
176
     1
 90
        5
176
     1
 90
        0
176
     1
 90
        0
176
     1
290
     0
176
     1
 90
        1
176
     1
 40
0.0
176
     1
 90
        0
176
     1
290
     1
176
     1
290
     1
176
     1
290
     0
176
     1
290
     0
176
     1
290
     0
176
     1
290
     0
176
     1
290
     0
176
     1
290
     0
176
     1
290
     0
176
     1
 90
       50
176
     1
 40
0.0
176
     1
 40
1.0
176
     1
 90
        0
176
     1
 62
    18
420
        0
176
     1
 90
       50
176
     1
 90
        3
176
     1
 62
     5
420
      255
176
     1
290
     0
176
     1
 90
       50
176
     1
 90
       50
176
     1
 90
       50
176
     1
290
     0
176
     1
 90
       50
176
     1
 62
   256
176
     0
 40
1.0
176
     0
 90
        2
176
     1
  1
strokes_ogs.tif
176
     1
290
     0
176
     1
 40
1.0
176
     1
 40
1.0
176
     1
1001
ACAD
1000
AcDbSavedByObjectVersion
1070
     0
  0
VISUALSTYLE
  5
2E
102
{ACAD_REACTORS
330
29
102
}
330
29
100
AcDbVisualStyle
  2
Basic
 70
     7
177
     3
291
     1
 70
    58
 90
        1
176
     1
 90
        0
176
     1
 90
        1
176
     1
 90
        0
176
     1
 40
0.6
176
     1
 40
30.0
176
     1
 62
     7
420
 16777215
176
     1
 90
        0
176
     1
 90
        4
176
     1
 62
     7
176
     1
 62
   257
176
     1
 90
        1
176
     1
 90
        1
176
     1
 40
1.0
176
     1
 90
        8
176
     1
 62
     7
176
     1
 40
1.0
176
     1
 90
        1
176
     1
 90
        6
176
     1
 90
        2
176
     1
 62
     7
176
     1
 90
        5
176
     1
 90
        0
176
     1
 90
        0
176
     1
290
     0
176
     1
 90
        1
176
     1
 40
0.0
176
     1
 90
        0
176
     1
290
     0
176
     1
290
     1
176
     1
290
     1
176
     1
290
     0
176
     1
290
     0
176
     1
290
     0
176
     1
290
     0
176
     1
290
     0
176
     1
290
     0
176
     1
 90
       50
176
     1
 40
0.0
176
     1
 40
1.0
176
     1
 90
        0
176
     1
 62
    18
420
        0
176
     1
 90
       50
176
     1
 90
        3
176
     1
 62
     5
420
      255
176
     1
290
     0
176
     1
 90
       50
176
     1
 90
       50
176
     1
 90
       50
176
     1
290
     0
176
     1
 90
       50
176
     1
 62
   256
176
     0
 40
1.0
176
     0
 90
        2
176
     1
  1
strokes_ogs.tif
176
     1
290
     0
176
     1
 40
1.0
176
     1
 40
1.0
176
     1
1001
ACAD
1000
AcDbSavedByObjectVersion
1070
     0
  0
VISUALSTYLE
  5
35
102
{ACAD_REACTORS
330
29
102
}
330
29
100
AcDbVisualStyle
  2
Brighten
 70
    12
177
     3
291
     1
 70
    58
 90
        2
176
     1
 90
        2
176
     1
 90
        0
176
     1
 90
        0
176
     1
 40
0.6
176
     1
 40
30.0
176
     1
 62
     7
420
 16777215
176
     1
 90
        1
176
     1
 90
        4
176
     1
 62
     7
176
     1
 62
   257
176
     1
 90
        1
176
     1
 90
        1
176
     1
 40
1.0
176
     1
 90
        8
176
     1
 62
     7
176
     1
 40
1.0
176
     1
 90
        1
176
     1
 90
        6
176
     1
 90
        2
176
     1
 62
     7
176
     1
 90
        5
176
     1
 90
        0
176
     1
 90
        0
176
     1
290
     0
176
     1
 90
        1
176
     1
 40
50.0
176
     1
 90
        0
176
     1
290
     0
176
     1
290
     1
176
     1
290
     1
176
     1
290
     0
176
     1
290
     0
176
     1
290
     0
176
     1
290
     0
176
     1
290
     0
176
     1
290
     0
176
     1
 90
       50
176
     1
 40
0.0
176
     1
 40
1.0
176
     1
 90
        0
176
     1
 62
    18
420
        0
176
     1
 90
       50
176
     1
 90
        3
176
     1
 62
     5
420
      255
176
     1
290
     0
176
     1
 90
       50
176
     1
 90
       50
176
     1
 90
       50
176
     1
290
     0
176
     1
 90
       50
176
     1
 62
   256
176
     0
 40
1.0
176
     0
 90
        2
176
     1
  1
strokes_ogs.tif
176
     1
290
     0
176
     1
 40
1.0
176
     1
 40
1.0
176
     1
1001
ACAD
1000
AcDbSavedByObjectVersion
1070
     0
  0
VISUALSTYLE
  5
39
102
{ACAD_REACTORS
330
29
102
}
330
29
100
AcDbVisualStyle
  2
ColorChange
 70
    16
177
     3
291
     1
 70
    58
 90
        2
176
     1
 90
        2
176
     1
 90
        3
176
     1
 90
        0
176
     1
 40
0.6
176
     1
 40
30.0
176
     1
 62
     8
420
  8421504
176
     1
 90
        1
176
     1
 90
        4
176
     1
 62
     7
176
     1
 62
   257
176
     1
 90
        1
176
     1
 90
        1
176
     1
 40
1.0
176
     1
 90
        8
176
     1
 62
     8
420
  8421504
176
     1
 40
1.0
176
     1
 90
        1
176
     1
 90
        6
176
     1
 90
        2
176
     1
 62
     7
176
     1
 90
        5
176
     1
 90
        0
176
     1
 90
        0
176
     1
290
     0
176
     1
 90
        1
176
     1
 40
0.0
176
     1
 90
        0
176
     1
290
     0
176
     1
290
     1
176
     1
290
     1
176
     1
290
     0
176
     1
290
     0
176
     1
290
     0
176
     1
290
     0
176
     1
290
     0
176
     1
290
     0
176
     1
 90
       50
176
     1
 40
0.0
176
     1
 40
1.0
176
     1
 90
        0
176
     1
 62
    18
420
        0
176
     1
 90
       50
176
     1
 90
        3
176
     1
 62
     5
420
      255
176
     1
290
     0
176
     1
 90
       50
176
     1
 90
       50
176
     1
 90
       50
176
     1
290
     0
176
     1
 90
       50
176
     1
 62
   256
176
     0
 40
1.0
176
     0
 90
        2
176
     1
  1
strokes_ogs.tif
176
     1
290
     0
176
     1
 40
1.0
176
     1
 40
1.0
176
     1
1001
ACAD
1000
AcDbSavedByObjectVersion
1070
     0
  0
VISUALSTYLE
  5
32
102
{ACAD_REACTORS
330
29
102
}
330
29
100
AcDbVisualStyle
  2
Conceptual
 70
     9
177
     3
291
     0
 70
    58
 90
        3
176
     1
 90
        2
176
     1
 90
        0
176
     1
 90
        0
176
     1
 40
0.6
176
     1
 40
30.0
176
     1
 62
     7
420
 16777215
176
     1
 90
        2
176
     1
 90
        2
176
     1
 62
     7
176
     1
 62
   257
176
     1
 90
        1
176
     1
 90
        1
176
     1
 40
179.0
176
     1
 90
        8
176
     1
 62
     7
176
     1
 40
1.0
176
     1
 90
        1
176
     1
 90
        6
176
     1
 90
        2
176
     1
 62
     7
176
     1
 90
        3
176
     1
 90
        0
176
     1
 90
        0
176
     1
290
     0
176
     1
 90
        1
176
     1
 40
0.0
176
     1
 90
        0
176
     1
290
     0
176
     1
290
     1
176
     1
290
     1
176
     1
290
     0
176
     1
290
     0
176
     1
290
     0
176
     1
290
     0
176
     1
290
     0
176
     1
290
     0
176
     1
 90
       50
176
     1
 40
0.0
176
     1
 40
1.0
176
     1
 90
        0
176
     1
 62
    18
420
        0
176
     1
 90
       50
176
     1
 90
        3
176
     1
 62
     5
420
      255
176
     1
290
     0
176
     1
 90
       50
176
     1
 90
       50
176
     1
 90
       50
176
     1
290
     0
176
     1
 90
       50
176
     1
 62
   256
176
     0
 40
1.0
176
     0
 90
        2
176
     1
  1
strokes_ogs.tif
176
     1
290
     0
176
     1
 40
1.0
176
     1
 40
1.0
176
     1
1001
ACAD
1000
AcDbSavedByObjectVersion
1070
     0
  0
VISUALSTYLE
  5
34
102
{ACAD_REACTORS
330
29
102
}
330
29
100
AcDbVisualStyle
  2
Dim
 70
    11
177
     3
291
     1
 70
    58
 90
        2
176
     1
 90
        2
176
     1
 90
        0
176
     1
 90
        0
176
     1
 40
0.6
176
     1
 40
30.0
176
     1
 62
     7
420
 16777215
176
     1
 90
        1
176
     1
 90
        4
176
     1
 62
     7
176
     1
 62
   257
176
     1
 90
        1
176
     1
 90
        1
176
     1
 40
1.0
176
     1
 90
        8
176
     1
 62
     7
176
     1
 40
1.0
176
     1
 90
        1
176
     1
 90
        6
176
     1
 90
        2
176
     1
 62
     7
176
     1
 90
        5
176
     1
 90
        0
176
     1
 90
        0
176
     1
290
     0
176
     1
 90
        1
176
     1
 40
-50.0
176
     1
 90
        0
176
     1
290
     0
176
     1
290
     1
176
     1
290
     1
176
     1
290
     0
176
     1
290
     0
176
     1
290
     0
176
     1
290
     0
176
     1
290
     0
176
     1
290
     0
176
     1
 90
       50
176
     1
 40
0.0
176
     1
 40
1.0
176
     1
 90
        0
176
     1
 62
    18
420
        0
176
     1
 90
       50
176
     1
 90
        3
176
     1
 62
     5
420
      255
176
     1
290
     0
176
     1
 90
       50
176
     1
 90
       50
176
     1
 90
       50
176
     1
290
     0
176
     1
 90
       50
176
     1
 62
   256
176
     0
 40
1.0
176
     0
 90
        2
176
     1
  1
strokes_ogs.tif
176
     1
290
     0
176
     1
 40
1.0
176
     1
 40
1.0
176
     1
1001
ACAD
1000
AcDbSavedByObjectVersion
1070
     0
  0
VISUALSTYLE
  5
41
102
{ACAD_REACTORS
330
29
102
}
330
29
100
AcDbVisualStyle
  2
EdgeColorOff
 70
    22
177
     3
291
     1
 70
    58
 90
        2
176
     0
 90
        2
176
     0
 90
        0
176
     0
 90
        0
176
     0
 40
0.6
176
     0
 40
30.0
176
     0
 62
     7
420
 16777215
176
     0
 90
        1
176
     0
 90
        4
176
     0
 62
     7
176
     0
 62
   257
176
     0
 90
        1
176
     0
 90
        1
176
     0
 40
1.0
176
     0
 90
        8
176
     2
 62
     7
176
     0
 40
1.0
176
     0
 90
        1
176
     0
 90
        6
176
     0
 90
        2
176
     0
 62
     7
176
     0
 90
        5
176
     0
 90
        0
176
     0
 90
        0
176
     0
290
     0
176
     0
 90
        1
176
     0
 40
0.0
176
     0
 90
        0
176
     0
290
     0
176
     1
290
     1
176
     1
290
     1
176
     1
290
     0
176
     1
290
     0
176
     1
290
     0
176
     1
290
     0
176
     1
290
     0
176
     1
290
     0
176
     1
 90
       50
176
     0
 40
0.0
176
     0
 40
1.0
176
     0
 90
        0
176
     0
 62
    18
420
        0
176
     0
 90
       50
176
     0
 90
        3
176
     0
 62
     5
420
      255
176
     0
290
     0
176
     1
 90
       50
176
     0
 90
       50
176
     0
 90
       50
176
     0
290
     0
176
     1
 90
       50
176
     0
 62
   256
176
     0
 40
1.0
176
     0
 90
        2
176
     0
  1
strokes_ogs.tif
176
     0
290
     0
176
     1
 40
1.0
176
     0
 40
1.0
176
     0
1001
ACAD
1000
AcDbSavedByObjectVersion
1070
     0
  0
VISUALSTYLE
  5
38
102
{ACAD_REACTORS
330
29
102
}
330
29
100
AcDbVisualStyle
  2
Facepattern
 70
    15
177
     3
291
     1
 70
    58
 90
        2
176
     1
 90
        2
176
     1
 90
        0
176
     1
 90
        0
176
     1
 40
0.6
176
     1
 40
30.0
176
     1
 62
     7
420
 16777215
176
     1
 90
        1
176
     1
 90
        4
176
     1
 62
     7
176
     1
 62
   257
176
     1
 90
        1
176
     1
 90
        1
176
     1
 40
1.0
176
     1
 90
        8
176
     1
 62
     7
176
     1
 40
1.0
176
     1
 90
        1
176
     1
 90
        6
176
     1
 90
        2
176
     1
 62
     7
176
     1
 90
        5
176
     1
 90
        0
176
     1
 90
        0
176
     1
290
     0
176
     1
 90
        1
176
     1
 40
0.0
176
     1
 90
        0
176
     1
290
     0
176
     1
290
     1
176
     1
290
     1
176
     1
290
     0
176
     1
290
     0
176
     1
290
     0
176
     1
290
     0
176
     1
290
     0
176
     1
290
     0
176
     1
 90
       50
176
     1
 40
0.0
176
     1
 40
1.0
176
     1
 90
        0
176
     1
 62
    18
420
        0
176
     1
 90
       50
176
     1
 90
        3
176
     1
 62
     5
420
      255
176
     1
290
     0
176
     1
 90
       50
176
     1
 90
       50
176
     1
 90
       50
176
     1
290
     0
176
     1
 90
       50
176
     1
 62
   256
176
     0
 40
1.0
176
     0
 90
        2
176
     1
  1
strokes_ogs.tif
176
     1
290
     0
176
     1
 40
1.0
176
     1
 40
1.0
176
     1
1001
ACAD
1000
AcDbSavedByObjectVersion
1070
     0
  0
VISUALSTYLE
  5
2A
102
{ACAD_REACTORS
330
29
102
}
330
29
100
AcDbVisualStyle
  2
Flat
 70
     0
177
     3
291
     1
 70
    58
 90
        2
176
     1
 90
        1
176
     1
 90
        1
176
     1
 90
        2
176
     1
 40
0.6
176
     1
 40
30.0
176
     1
 62
     7
420
 16777215
176
     1
 90
        0
176
     1
 90
        0
176
     1
 62
     7
176
     1
 62
   257
176
     1
 90
        1
176
     1
 90
        1
176
     1
 40
1.0
176
     1
 90
        8
176
     1
 62
     7
176
     1
 40
1.0
176
     1
 90
        1
176
     1
 90
        6
176
     1
 90
        2
176
     1
 62
     7
176
     1
 90
        5
176
     1
 90
        0
176
     1
 90
        0
176
     1
290
     0
176
     1
 90
       13
176
     1
 40
0.0
176
     1
 90
        0
176
     1
290
     0
176
     1
290
     1
176
     1
290
     1
176
     1
290
     0
176
     1
290
     0
176
     1
290
     0
176
     1
290
     0
176
     1
290
     0
176
     1
290
     0
176
     1
 90
       50
176
     1
 40
0.0
176
     1
 40
1.0
176
     1
 90
        0
176
     1
 62
    18
420
        0
176
     1
 90
       50
176
     1
 90
        3
176
     1
 62
     5
420
      255
176
     1
290
     0
176
     1
 90
       50
176
     1
 90
       50
176
     1
 90
       50
176
     1
290
     0
176
     1
 90
       50
176
     1
 62
   256
176
     0
 40
1.0
176
     0
 90
        2
176
     1
  1
strokes_ogs.tif
176
     1
290
     0
176
     1
 40
1.0
176
     1
 40
1.0
176
     1
1001
ACAD
1000
AcDbSavedByObjectVersion
1070
     0
  0
VISUALSTYLE
  5
2B
102
{ACAD_REACTORS
330
29
102
}
330
29
100
AcDbVisualStyle
  2
FlatWithEdges
 70
     1
177
     3
291
     1
 70
    58
 90
        2
176
     1
 90
        1
176
     1
 90
        1
176
     1
 90
        2
176
     1
 40
0.6
176
     1
 40
30.0
176
     1
 62
     7
420
 16777215
176
     1
 90
        1
176
     1
 90
        0
176
     1
 62
     7
176
     1
 62
   257
176
     1
 90
        1
176
     1
 90
        1
176
     1
 40
1.0
176
     1
 90
        0
176
     1
 62
   257
176
     1
 40
1.0
176
     1
 90
        1
176
     1
 90
        6
176
     1
 90
        2
176
     1
 62
     7
176
     1
 90
        5
176
     1
 90
        0
176
     1
 90
        0
176
     1
290
     0
176
     1
 90
       13
176
     1
 40
0.0
176
     1
 90
        0
176
     1
290
     0
176
     1
290
     1
176
     1
290
     1
176
     1
290
     0
176
     1
290
     0
176
     1
290
     0
176
     1
290
     0
176
     1
290
     0
176
     1
290
     0
176
     1
 90
       50
176
     1
 40
0.0
176
     1
 40
1.0
176
     1
 90
        0
176
     1
 62
    18
420
        0
176
     1
 90
       50
176
     1
 90
        3
176
     1
 62
     5
420
      255
176
     1
290
     0
176
     1
 90
       50
176
     1
 90
       50
176
     1
 90
       50
176
     1
290
     0
176
     1
 90
       50
176
     1
 62
   256
176
     0
 40
1.0
176
     0
 90
        2
176
     1
  1
strokes_ogs.tif
176
     1
290
     0
176
     1
 40
1.0
176
     1
 40
1.0
176
     1
1001
ACAD
1000
AcDbSavedByObjectVersion
1070
     0
  0
VISUALSTYLE
  5
2C
102
{ACAD_REACTORS
330
29
102
}
330
29
100
AcDbVisualStyle
  2
Gouraud
 70
     2
177
     3
291
     1
 70
    58
 90
        2
176
     1
 90
        2
176
     1
 90
        1
176
     1
 90
        2
176
     1
 40
0.6
176
     1
 40
30.0
176
     1
 62
     7
420
 16777215
176
     1
 90
        0
176
     1
 90
        0
176
     1
 62
     7
176
     1
 62
   257
176
     1
 90
        1
176
     1
 90
        1
176
     1
 40
1.0
176
     1
 90
        0
176
     1
 62
     7
176
     1
 40
1.0
176
     1
 90
        1
176
     1
 90
        6
176
     1
 90
        2
176
     1
 62
     7
176
     1
 90
        5
176
     1
 90
        0
176
     1
 90
        0
176
     1
290
     0
176
     1
 90
       13
176
     1
 40
0.0
176
     1
 90
        0
176
     1
290
     0
176
     1
290
     1
176
     1
290
     1
176
     1
290
     0
176
     1
290
     0
176
     1
290
     0
176
     1
290
     0
176
     1
290
     0
176
     1
290
     0
176
     1
 90
       50
176
     1
 40
0.0
176
     1
 40
1.0
176
     1
 90
        0
176
     1
 62
    18
420
        0
176
     1
 90
       50
176
     1
 90
        3
176
     1
 62
     5
420
      255
176
     1
290
     0
176
     1
 90
       50
176
     1
 90
       50
176
     1
 90
       50
176
     1
290
     0
176
     1
 90
       50
176
     1
 62
   256
176
     0
 40
1.0
176
     0
 90
        2
176
     1
  1
strokes_ogs.tif
176
     1
290
     0
176
     1
 40
1.0
176
     1
 40
1.0
176
     1
1001
ACAD
1000
AcDbSavedByObjectVersion
1070
     0
  0
VISUALSTYLE
  5
2D
102
{ACAD_REACTORS
330
29
102
}
330
29
100
AcDbVisualStyle
  2
GouraudWithEdges
 70
     3
177
     3
291
     1
 70
    58
 90
        2
176
     1
 90
        2
176
     1
 90
        1
176
     1
 90
        2
176
     1
 40
0.6
176
     1
 40
30.0
176
     1
 62
     7
420
 16777215
176
     1
 90
        1
176
     1
 90
        0
176
     1
 62
     7
176
     1
 62
   257
176
     1
 90
        1
176
     1
 90
        1
176
     1
 40
1.0
176
     1
 90
        0
176
     1
 62
   257
176
     1
 40
1.0
176
     1
 90
        1
176
     1
 90
        6
176
     1
 90
        2
176
     1
 62
     7
176
     1
 90
        5
176
     1
 90
        0
176
     1
 90
        0
176
     1
290
     0
176
     1
 90
       13
176
     1
 40
0.0
176
     1
 90
        0
176
     1
290
     0
176
     1
290
     1
176
     1
290
     1
176
     1
290
     0
176
     1
290
     0
176
     1
290
     0
176
     1
290
     0
176
     1
290
     0
176
     1
290
     0
176
     1
 90
       50
176
     1
 40
0.0
176
     1
 40
1.0
176
     1
 90
        0
176
     1
 62
    18
420
        0
176
     1
 90
       50
176
     1
 90
        3
176
     1
 62
     5
420
      255
176
     1
290
     0
176
     1
 90
       50
176
     1
 90
       50
176
     1
 90
       50
176
     1
290
     0
176
     1
 90
       50
176
     1
 62
   256
176
     0
 40
1.0
176
     0
 90
        2
176
     1
  1
strokes_ogs.tif
176
     1
290
     0
176
     1
 40
1.0
176
     1
 40
1.0
176
     1
1001
ACAD
1000
AcDbSavedByObjectVersion
1070
     0
  0
VISUALSTYLE
  5
31
102
{ACAD_REACTORS
330
29
102
}
330
29
100
AcDbVisualStyle
  2
Hidden
 70
     6
177
     3
291
     0
 70
    58
 90
        1
176
     1
 90
        2
176
     1
 90
        2
176
     1
 90
        0
176
     1
 40
0.6
176
     1
 40
30.0
176
     1
 62
     7
420
 16777215
176
     1
 90
        2
176
     1
 90
        2
176
     1
 62
     7
176
     1
 62
   257
176
     1
 90
        2
176
     1
 90
        1
176
     1
 40
40.0
176
     1
 90
        0
176
     1
 62
   257
176
     1
 40
1.0
176
     1
 90
        1
176
     1
 90
        6
176
     1
 90
        2
176
     1
 62
     7
176
     1
 90
        3
176
     1
 90
        0
176
     1
 90
        0
176
     1
290
     0
176
     1
 90
        1
176
     1
 40
0.0
176
     1
 90
        0
176
     1
290
     0
176
     1
290
     1
176
     1
290
     1
176
     1
290
     0
176
     1
290
     0
176
     1
290
     0
176
     1
290
     0
176
     1
290
     0
176
     1
290
     0
176
     1
 90
       50
176
     1
 40
0.0
176
     1
 40
1.0
176
     1
 90
        0
176
     1
 62
    18
420
        0
176
     1
 90
       50
176
     1
 90
        3
176
     1
 62
     5
420
      255
176
     1
290
     0
176
     1
 90
       50
176
     1
 90
       50
176
     1
 90
       50
176
     1
290
     0
176
     1
 90
       50
176
     1
 62
   256
176
     0
 40
1.0
176
     0
 90
        2
176
     1
  1
strokes_ogs.tif
176
     1
290
     0
176
     1
 40
1.0
176
     1
 40
1.0
176
     1
1001
ACAD
1000
AcDbSavedByObjectVersion
1070
     0
  0
VISUALSTYLE
  5
3F
102
{ACAD_REACTORS
330
29
102
}
330
29
100
AcDbVisualStyle
  2
JitterOff
 70
    20
177
     3
291
     1
 70
    58
 90
        2
176
     0
 90
        2
176
     0
 90
        0
176
     0
 90
        0
176
     0
 40
0.6
176
     0
 40
30.0
176
     0
 62
     7
420
 16777215
176
     0
 90
        1
176
     0
 90
        4
176
     0
 62
     7
176
     0
 62
   257
176
     0
 90
        1
176
     0
 90
        1
176
     0
 40
1.0
176
     0
 90
       10
176
     2
 62
     7
176
     0
 40
1.0
176
     0
 90
        1
176
     0
 90
        6
176
     0
 90
        2
176
     0
 62
     7
176
     0
 90
        5
176
     0
 90
        0
176
     0
 90
        0
176
     0
290
     0
176
     0
 90
        1
176
     0
 40
0.0
176
     0
 90
        0
176
     0
290
     0
176
     1
290
     1
176
     1
290
     1
176
     1
290
     0
176
     1
290
     0
176
     1
290
     0
176
     1
290
     0
176
     1
290
     0
176
     1
290
     0
176
     1
 90
       50
176
     0
 40
0.0
176
     0
 40
1.0
176
     0
 90
        0
176
     0
 62
    18
420
        0
176
     0
 90
       50
176
     0
 90
        3
176
     0
 62
     5
420
      255
176
     0
290
     0
176
     1
 90
       50
176
     0
 90
       50
176
     0
 90
       50
176
     0
290
     0
176
     1
 90
       50
176
     0
 62
   256
176
     0
 40
1.0
176
     0
 90
        2
176
     0
  1
strokes_ogs.tif
176
     0
290
     0
176
     1
 40
1.0
176
     0
 40
1.0
176
     0
1001
ACAD
1000
AcDbSavedByObjectVersion
1070
     0
  0
VISUALSTYLE
  5
37
102
{ACAD_REACTORS
330
29
102
}
330
29
100
AcDbVisualStyle
  2
Linepattern
 70
    14
177
     3
291
     1
 70
    58
 90
        2
176
     1
 90
        2
176
     1
 90
        0
176
     1
 90
        0
176
     1
 40
0.6
176
     1
 40
30.0
176
     1
 62
     7
420
 16777215
176
     1
 90
        1
176
     1
 90
        4
176
     1
 62
     7
176
     1
 62
   257
176
     1
 90
        7
176
     1
 90
        7
176
     1
 40
1.0
176
     1
 90
        8
176
     1
 62
     7
176
     1
 40
1.0
176
     1
 90
        1
176
     1
 90
        6
176
     1
 90
        2
176
     1
 62
     7
176
     1
 90
        5
176
     1
 90
        0
176
     1
 90
        0
176
     1
290
     0
176
     1
 90
        1
176
     1
 40
0.0
176
     1
 90
        0
176
     1
290
     0
176
     1
290
     1
176
     1
290
     1
176
     1
290
     0
176
     1
290
     0
176
     1
290
     0
176
     1
290
     0
176
     1
290
     0
176
     1
290
     0
176
     1
 90
       50
176
     1
 40
0.0
176
     1
 40
1.0
176
     1
 90
        0
176
     1
 62
    18
420
        0
176
     1
 90
       50
176
     1
 90
        3
176
     1
 62
     5
420
      255
176
     1
290
     0
176
     1
 90
       50
176
     1
 90
       50
176
     1
 90
       50
176
     1
290
     0
176
     1
 90
       50
176
     1
 62
   256
176
     0
 40
1.0
176
     0
 90
        2
176
     1
  1
strokes_ogs.tif
176
     1
290
     0
176
     1
 40
1.0
176
     1
 40
1.0
176
     1
1001
ACAD
1000
AcDbSavedByObjectVersion
1070
     0
  0
VISUALSTYLE
  5
40
102
{ACAD_REACTORS
330
29
102
}
330
29
100
AcDbVisualStyle
  2
OverhangOff
 70
    21
177
     3
291
     1
 70
    58
 90
        2
176
     0
 90
        2
176
     0
 90
        0
176
     0
 90
        0
176
     0
 40
0.6
176
     0
 40
30.0
176
     0
 62
     7
420
 16777215
176
     0
 90
        1
176
     0
 90
        4
176
     0
 62
     7
176
     0
 62
   257
176
     0
 90
        1
176
     0
 90
        1
176
     0
 40
1.0
176
     0
 90
        9
176
     2
 62
     7
176
     0
 40
1.0
176
     0
 90
        1
176
     0
 90
        6
176
     0
 90
        2
176
     0
 62
     7
176
     0
 90
        5
176
     0
 90
        0
176
     0
 90
        0
176
     0
290
     0
176
     0
 90
        1
176
     0
 40
0.0
176
     0
 90
        0
176
     0
290
     0
176
     1
290
     1
176
     1
290
     1
176
     1
290
     0
176
     1
290
     0
176
     1
290
     0
176
     1
290
     0
176
     1
290
     0
176
     1
290
     0
176
     1
 90
       50
176
     0
 40
0.0
176
     0
 40
1.0
176
     0
 90
        0
176
     0
 62
    18
420
        0
176
     0
 90
       50
176
     0
 90
        3
176
     0
 62
     5
420
      255
176
     0
290
     0
176
     1
 90
       50
176
     0
 90
       50
176
     0
 90
       50
176
     0
290
     0
176
     1
 90
       50
176
     0
 62
   256
176
     0
 40
1.0
176
     0
 90
        2
176
     0
  1
strokes_ogs.tif
176
     0
290
     0
176
     1
 40
1.0
176
     0
 40
1.0
176
     0
1001
ACAD
1000
AcDbSavedByObjectVersion
1070
     0
  0
VISUALSTYLE
  5
33
102
{ACAD_REACTORS
330
29
102
}
330
29
100
AcDbVisualStyle
  2
Realistic
 70
     8
177
     3
291
     0
 70
    58
 90
        2
176
     1
 90
        3
176
     1
 90
        0
176
     1
 90
        2
176
     1
 40
0.6
176
     1
 40
30.0
176
     1
 62
     7
420
 16777215
176
     1
 90
        0
176
     1
 90
        0
176
     1
 62
     7
176
     1
 62
   257
176
     1
 90
        1
176
     1
 90
        1
176
     1
 40
1.0
176
     1
 90
        8
176
     1
 62
   257
176
     1
 40
1.0
176
     1
 90
        1
176
     1
 90
        6
176
     1
 90
        2
176
     1
 62
     7
176
     1
 90
        3
176
     1
 90
        0
176
     1
 90
        0
176
     1
290
     0
176
     1
 90
       13
176
     1
 40
0.0
176
     1
 90
        0
176
     1
290
     0
176
     1
290
     1
176
     1
290
     1
176
     1
290
     0
176
     1
290
     0
176
     1
290
     0
176
     1
290
     0
176
     1
290
     0
176
     1
290
     0
176
     1
 90
       50
176
     1
 40
0.0
176
     1
 40
1.0
176
     1
 90
        0
176
     1
 62
    18
420
        0
176
     1
 90
       50
176
     1
 90
        3
176
     1
 62
     5
420
      255
176
     1
290
     0
176
     1
 90
       50
176
     1
 90
       50
176
     1
 90
       50
176
     1
290
     0
176
     1
 90
       50
176
     1
 62
   256
176
     0
 40
1.0
176
     0
 90
        2
176
     1
  1
strokes_ogs.tif
176
     1
290
     0
176
     1
 40
1.0
176
     1
 40
1.0
176
     1
1001
ACAD
1000
AcDbSavedByObjectVersion
1070
     0
  0
VISUALSTYLE
  5
3E
102
{ACAD_REACTORS
330
29
102
}
330
29
100
AcDbVisualStyle
  2
Shaded
 70
    27
177
     3
291
     0
 70
    58
 90
        2
176
     1
 90
        2
176
     1
 90
        1
176
     1
 90
        2
176
     1
 40
0.6
176
     1
 40
30.0
176
     1
 62
     7
420
 16777215
176
     1
 90
        0
176
     1
 90
        4
176
     1
 62
     7
176
     1
 62
   257
176
     1
 90
        1
176
     1
 90
        1
176
     1
 40
1.0
176
     1
 90
        8
176
     1
 62
   257
176
     1
 40
1.0
176
     1
 90
        1
176
     1
 90
        6
176
     1
 90
        2
176
     1
 62
     8
420
  7895160
176
     1
 90
        3
176
     1
 90
        0
176
     1
 90
        0
176
     1
290
     0
176
     1
 90
        5
176
     1
 40
0.0
176
     1
 90
        0
176
     1
290
     0
176
     1
290
     1
176
     1
290
     1
176
     1
290
     0
176
     1
290
     0
176
     1
290
     0
176
     1
290
     0
176
     1
290
     0
176
     1
290
     0
176
     1
 90
       50
176
     1
 40
0.0
176
     1
 40
1.0
176
     1
 90
        0
176
     1
 62
    18
420
        0
176
     1
 90
       50
176
     1
 90
        3
176
     1
 62
     5
420
      255
176
     1
290
     0
176
     1
 90
       50
176
     1
 90
       50
176
     1
 90
       50
176
     1
290
     0
176
     1
 90
       50
176
     1
 62
   256
176
     0
 40
1.0
176
     0
 90
        2
176
     1
  1
strokes_ogs.tif
176
     1
290
     0
176
     1
 40
1.0
176
     1
 40
1.0
176
     1
1001
ACAD
1000
AcDbSavedByObjectVersion
1070
     0
  0
VISUALSTYLE
  5
3D
102
{ACAD_REACTORS
330
29
102
}
330
29
100
AcDbVisualStyle
  2
Shaded with edges
 70
    26
177
     3
291
     0
 70
    58
 90
        2
176
     1
 90
        2
176
     1
 90
        1
176
     1
 90
        2
176
     1
 40
0.6
176
     1
 40
30.0
176
     1
 62
     7
420
 16777215
176
     1
 90
        1
176
     1
 90
        2
176
     1
 62
     7
176
     1
 62
   257
176
     1
 90
        2
176
     1
 90
        1
176
     1
 40
1.0
176
     1
 90
        8
176
     1
 62
   257
176
     1
 40
1.0
176
     1
 90
        1
176
     1
 90
        6
176
     1
 90
        2
176
     1
 62
     7
176
     1
 90
        3
176
     1
 90
        0
176
     1
 90
        0
176
     1
290
     0
176
     1
 90
        5
176
     1
 40
0.0
176
     1
 90
        0
176
     1
290
     0
176
     1
290
     1
176
     1
290
     1
176
     1
290
     0
176
     1
290
     0
176
     1
290
     0
176
     1
290
     0
176
     1
290
     0
176
     1
290
     0
176
     1
 90
       50
176
     1
 40
0.0
176
     1
 40
1.0
176
     1
 90
        0
176
     1
 62
    18
420
        0
176
     1
 90
       50
176
     1
 90
        3
176
     1
 62
     5
420
      255
176
     1
290
     0
176
     1
 90
       50
176
     1
 90
       50
176
     1
 90
       50
176
     1
290
     0
176
     1
 90
       50
176
     1
 62
   256
176
     0
 40
1.0
176
     0
 90
        2
176
     1
  1
strokes_ogs.tif
176
     1
290
     0
176
     1
 40
1.0
176
     1
 40
1.0
176
     1
1001
ACAD
1000
AcDbSavedByObjectVersion
1070
     0
  0
VISUALSTYLE
  5
3A
102
{ACAD_REACTORS
330
29
102
}
330
29
100
AcDbVisualStyle
  2
Shades of Gray
 70
    23
177
     3
291
     0
 70
    58
 90
        2
176
     1
 90
        2
176
     1
 90
        3
176
     1
 90
        0
176
     1
 40
0.6
176
     1
 40
30.0
176
     1
 62
     7
420
 16777215
176
     1
 90
        2
176
     1
 90
        2
176
     1
 62
     7
176
     1
 62
     7
176
     1
 90
        1
176
     1
 90
        1
176
     1
 40
40.0
176
     1
 90
        8
176
     1
 62
     7
176
     1
 40
1.0
176
     1
 90
        1
176
     1
 90
        6
176
     1
 90
        2
176
     1
 62
     7
176
     1
 90
        3
176
     1
 90
        0
176
     1
 90
        0
176
     1
290
     0
176
     1
 90
        1
176
     1
 40
0.0
176
     1
 90
        0
176
     1
290
     0
176
     1
290
     1
176
     1
290
     1
176
     1
290
     0
176
     1
290
     0
176
     1
290
     0
176
     1
290
     0
176
     1
290
     0
176
     1
290
     0
176
     1
 90
       50
176
     1
 40
0.0
176
     1
 40
1.0
176
     1
 90
        0
176
     1
 62
    18
420
        0
176
     1
 90
       50
176
     1
 90
        3
176
     1
 62
     5
420
      255
176
     1
290
     0
176
     1
 90
       50
176
     1
 90
       50
176
     1
 90
       50
176
     1
290
     0
176
     1
 90
       50
176
     1
 62
   256
176
     0
 40
1.0
176
     0
 90
        2
176
     1
  1
strokes_ogs.tif
176
     1
290
     0
176
     1
 40
1.0
176
     1
 40
1.0
176
     1
1001
ACAD
1000
AcDbSavedByObjectVersion
1070
     0
  0
VISUALSTYLE
  5
3B
102
{ACAD_REACTORS
330
29
102
}
330
29
100
AcDbVisualStyle
  2
Sketchy
 70
    24
177
     3
291
     0
 70
    58
 90
        1
176
     1
 90
        2
176
     1
 90
        2
176
     1
 90
        0
176
     1
 40
0.6
176
     1
 40
30.0
176
     1
 62
     7
420
 16777215
176
     1
 90
        2
176
     1
 90
        2
176
     1
 62
     7
176
     1
 62
     7
176
     1
 90
        1
176
     1
 90
        1
176
     1
 40
40.0
176
     1
 90
       11
176
     1
 62
     7
176
     1
 40
1.0
176
     1
 90
        1
176
     1
 90
        6
176
     1
 90
        2
176
     1
 62
     7
176
     1
 90
        6
176
     1
 90
        0
176
     1
 90
        0
176
     1
290
     0
176
     1
 90
        1
176
     1
 40
0.0
176
     1
 90
        0
176
     1
290
     0
176
     1
290
     1
176
     1
290
     1
176
     1
290
     0
176
     1
290
     0
176
     1
290
     0
176
     1
290
     0
176
     1
290
     0
176
     1
290
     0
176
     1
 90
       50
176
     1
 40
0.0
176
     1
 40
1.0
176
     1
 90
        0
176
     1
 62
    18
420
        0
176
     1
 90
       50
176
     1
 90
        3
176
     1
 62
     5
420
      255
176
     1
290
     0
176
     1
 90
       50
176
     1
 90
       50
176
     1
 90
       50
176
     1
290
     0
176
     1
 90
       50
176
     1
 62
   256
176
     0
 40
1.0
176
     0
 90
        2
176
     1
  1
strokes_ogs.tif
176
     1
290
     0
176
     1
 40
1.0
176
     1
 40
1.0
176
     1
1001
ACAD
1000
AcDbSavedByObjectVersion
1070
     0
  0
VISUALSTYLE
  5
36
102
{ACAD_REACTORS
330
29
102
}
330
29
100
AcDbVisualStyle
  2
Thicken
 70
    13
177
     3
291
     1
 70
    58
 90
        2
176
     1
 90
        2
176
     1
 90
        0
176
     1
 90
        0
176
     1
 40
0.6
176
     1
 40
30.0
176
     1
 62
     7
420
 16777215
176
     1
 90
        1
176
     1
 90
        4
176
     1
 62
     7
176
     1
 62
   257
176
     1
 90
        1
176
     1
 90
        1
176
     1
 40
1.0
176
     1
 90
       12
176
     1
 62
     7
176
     1
 40
1.0
176
     1
 90
        1
176
     1
 90
        6
176
     1
 90
        2
176
     1
 62
     7
176
     1
 90
        5
176
     1
 90
        0
176
     1
 90
        0
176
     1
290
     0
176
     1
 90
        1
176
     1
 40
0.0
176
     1
 90
        0
176
     1
290
     0
176
     1
290
     1
176
     1
290
     1
176
     1
290
     0
176
     1
290
     0
176
     1
290
     0
176
     1
290
     0
176
     1
290
     0
176
     1
290
     0
176
     1
 90
       50
176
     1
 40
0.0
176
     1
 40
1.0
176
     1
 90
        0
176
     1
 62
    18
420
        0
176
     1
 90
       50
176
     1
 90
        3
176
     1
 62
     5
420
      255
176
     1
290
     0
176
     1
 90
       50
176
     1
 90
       50
176
     1
 90
       50
176
     1
290
     0
176
     1
 90
       50
176
     1
 62
   256
176
     0
 40
1.0
176
     0
 90
        2
176
     1
  1
strokes_ogs.tif
176
     1
290
     0
176
     1
 40
1.0
176
     1
 40
1.0
176
     1
1001
ACAD
1000
AcDbSavedByObjectVersion
1070
     0
  0
VISUALSTYLE
  5
30
102
{ACAD_REACTORS
330
29
102
}
330
29
100
AcDbVisualStyle
  2
Wireframe
 70
     5
177
     3
291
     0
 70
    58
 90
        0
176
     1
 90
        2
176
     1
 90
        0
176
     1
 90
        0
176
     1
 40
0.6
176
     1
 40
30.0
176
     1
 62
     7
420
 16777215
176
     1
 90
        1
176
     1
 90
        4
176
     1
 62
     7
176
     1
 62
   257
176
     1
 90
        1
176
     1
 90
        1
176
     1
 40
1.0
176
     1
 90
        0
176
     1
 62
   257
176
     1
 40
1.0
176
     1
 90
        1
176
     1
 90
        6
176
     1
 90
        2
176
     1
 62
     7
176
     1
 90
        3
176
     1
 90
        0
176
     1
 90
        0
176
     1
290
     0
176
     1
 90
        1
176
     1
 40
0.0
176
     1
 90
        0
176
     1
290
     0
176
     1
290
     1
176
     1
290
     1
176
     1
290
     0
176
     1
290
     0
176
     1
290
     0
176
     1
290
     0
176
     1
290
     0
176
     1
290
     0
176
     1
 90
       50
176
     1
 40
0.0
176
     1
 40
1.0
176
     1
 90
        0
176
     1
 62
    18
420
        0
176
     1
 90
       50
176
     1
 90
        3
176
     1
 62
     5
420
      255
176
     1
290
     0
176
     1
 90
       50
176
     1
 90
       50
176
     1
 90
       50
176
     1
290
     0
176
     1
 90
       50
176
     1
 62
   256
176
     0
 40
1.0
176
     0
 90
        2
176
     1
  1
strokes_ogs.tif
176
     1
290
     0
176
     1
 40
1.0
176
     1
 40
1.0
176
     1
1001
ACAD
1000
AcDbSavedByObjectVersion
1070
     0
  0
VISUALSTYLE
  5
3C
102
{ACAD_REACTORS
330
29
102
}
330
29
100
AcDbVisualStyle
  2
X-Ray
 70
    25
177
     3
291
     0
 70
    58
 90
        2
176
     1
 90
        2
176
     1
 90
        1
176
     1
 90
        1
176
     1
 40
0.5
176
     1
 40
30.0
176
     1
 62
     7
420
 16777215
176
     1
 90
        1
176
     1
 90
        0
176
     1
 62
     7
176
     1
 62
   257
176
     1
 90
        1
176
     1
 90
        1
176
     1
 40
1.0
176
     1
 90
        8
176
     1
 62
     7
176
     1
 40
1.0
176
     1
 90
        1
176
     1
 90
        6
176
     1
 90
        2
176
     1
 62
     7
176
     1
 90
        3
176
     1
 90
        0
176
     1
 90
        0
176
     1
290
     0
176
     1
 90
       13
176
     1
 40
0.0
176
     1
 90
        0
176
     1
290
     0
176
     1
290
     1
176
     1
290
     1
176
     1
290
     0
176
     1
290
     0
176
     1
290
     0
176
     1
290
     0
176
     1
290
     0
176
     1
290
     0
176
     1
 90
       50
176
     1
 40
0.0
176
     1
 40
1.0
176
     1
 90
        0
176
     1
 62
    18
420
        0
176
     1
 90
       50
176
     1
 90
        3
176
     1
 62
     5
420
      255
176
     1
290
     0
176
     1
 90
       50
176
     1
 90
       50
176
     1
 90
       50
176
     1
290
     0
176
     1
 90
       50
176
     1
 62
   256
176
     0
 40
1.0
176
     0
 90
        2
176
     1
  1
strokes_ogs.tif
176
     1
290
     0
176
     1
 40
1.0
176
     1
 40
1.0
176
     1
1001
ACAD
1000
AcDbSavedByObjectVersion
1070
     0
  0
DICTIONARYVAR
  5
893
102
{ACAD_REACTORS
330
88D
102
}
330
88D
100
DictionaryVariables
280
     0
  1
1:1
  0
DICTIONARYVAR
  5
88F
102
{ACAD_REACTORS
330
88D
102
}
330
88D
100
DictionaryVariables
280
     0
  1
STANDARD
  0
DICTIONARYVAR
  5
88E
102
{ACAD_REACTORS
330
88D
102
}
330
88D
100
DictionaryVariables
280
     0
  1
STANDARD
  0
DICTIONARYVAR
  5
890
102
{ACAD_REACTORS
330
88D
102
}
330
88D
100
DictionaryVariables
280
     0
  1
Imperial24
  0
DICTIONARYVAR
  5
891
102
{ACAD_REACTORS
330
88D
102
}
330
88D
100
DictionaryVariables
280
     0
  1
Imperial24
  0
DICTIONARYVAR
  5
895
102
{ACAD_REACTORS
330
88D
102
}
330
88D
100
DictionaryVariables
280
     0
  1
1
  0
DICTIONARYVAR
  5
896
102
{ACAD_REACTORS
330
88D
102
}
330
88D
100
DictionaryVariables
280
     0
  1
15
  0
DICTIONARYVAR
  5
894
102
{ACAD_REACTORS
330
88D
102
}
330
88D
100
DictionaryVariables
280
     0
  1
0
  0
DICTIONARYVAR
  5
892
102
{ACAD_REACTORS
330
88D
102
}
330
88D
100
DictionaryVariables
280
     0
  1
0
  0
DICTIONARY
  5
B9C
102
{ACAD_REACTORS
330
B9A
102
}
330
B9A
100
AcDbDictionary
281
     1
  0
DICTIONARY
  5
B9B
102
{ACAD_REACTORS
330
B9A
102
}
330
B9A
100
AcDbDictionary
281
     1
  3
1733915577808
350
B95
  3
1733915577824
350
B96
  3
1733915577840
350
B97
  3
1733915577856
350
B98
  3
1733915577872
350
B99
  0
DICTIONARY
  5
90C
102
{ACAD_REACTORS
330
90B
102
}
330
90B
100
AcDbDictionary
281
     1
  3
*A1
350
90D
  0
DICTIONARY
  5
96B
102
{ACAD_REACTORS
330
96A
102
}
330
96A
100
AcDbDictionary
281
     1
  3
*A1
350
96C
  0
DICTIONARY
  5
9A0
102
{ACAD_REACTORS
330
99F
102
}
330
99F
100
AcDbDictionary
281
     1
  3
*A1
350
9A1
  0
DICTIONARY
  5
A10
102
{ACAD_REACTORS
330
A0F
102
}
330
A0F
100
AcDbDictionary
281
     1
  3
*A1
350
A11
  0
DICTIONARY
  5
A58
102
{ACAD_REACTORS
330
A57
102
}
330
A57
100
AcDbDictionary
281
     1
  3
*A1
350
A59
  0
DICTIONARY
  5
A7E
102
{ACAD_REACTORS
330
A7D
102
}
330
A7D
100
AcDbDictionary
281
     1
  3
*A1
350
A7F
  0
DICTIONARY
  5
AED
102
{ACAD_REACTORS
330
AEC
102
}
330
AEC
100
AcDbDictionary
281
     1
  3
*A1
350
AEE
  0
DICTIONARY
  5
B17
102
{ACAD_REACTORS
330
B16
102
}
330
B16
100
AcDbDictionary
281
     1
  3
*A1
350
B18
  0
DICTIONARY
  5
B2C
102
{ACAD_REACTORS
330
B2B
102
}
330
B2B
100
AcDbDictionary
281
     1
  3
*A1
350
B2D
  0
DICTIONARY
  5
B5B
102
{ACAD_REACTORS
330
B5A
102
}
330
B5A
100
AcDbDictionary
281
     1
  3
*A1
350
B5C
  0
DICTIONARY
  5
B66
102
{ACAD_REACTORS
330
B65
102
}
330
B65
100
AcDbDictionary
281
     1
  3
*A1
350
B67
  0
DICTIONARY
  5
B70
102
{ACAD_REACTORS
330
B6F
102
}
330
B6F
100
AcDbDictionary
281
     1
  3
*A1
350
B71
  0
DICTIONARY
  5
B9F
330
6A
100
AcDbDictionary
280
     1
281
     1
  3
ACAD_XREC_ROUNDTRIP
360
BA0
  0
DICTIONARY
  5
1A
330
19
100
AcDbDictionary
280
     1
281
     1
  3
BUMPTILE
360
1C
  3
DIFFUSETILE
360
1B
  3
OPACITYTILE
360
1F
  3
REFLECTIONTILE
360
1E
  3
REFRACTIONTILE
360
20
  3
SPECULARTILE
360
1D
  0
DICTIONARY
  5
12
330
11
100
AcDbDictionary
280
     1
281
     1
  3
BUMPTILE
360
14
  3
DIFFUSETILE
360
13
  3
OPACITYTILE
360
17
  3
REFLECTIONTILE
360
16
  3
REFRACTIONTILE
360
18
  3
SPECULARTILE
360
15
  0
DICTIONARY
  5
22
330
21
100
AcDbDictionary
280
     1
281
     1
  3
BUMPTILE
360
24
  3
DIFFUSETILE
360
23
  3
OPACITYTILE
360
27
  3
REFLECTIONTILE
360
26
  3
REFRACTIONTILE
360
28
  3
SPECULARTILE
360
25
  0
DICTIONARY
  5
B9D
330
68
100
AcDbDictionary
280
     1
281
     1
  3
ACAD_XREC_ROUNDTRIP
360
B9E
  0
DICTIONARY
  5
B92
330
64
100
AcDbDictionary
280
     1
281
     1
  3
ACAD_ROUNDTRIP_2008_TABLESTYLE_CELLSTYLEMAP
360
B93
  0
XRECORD
  5
B95
102
{ACAD_REACTORS
330
B9B
102
}
330
B9B
100
AcDbXrecord
280
     1
  1
AcDb_Thumbnail_Schema
102
{ATTRRECORD
341
B96
  2
AcDbDs::TreatedAsObjectData
280
     1
291
     1
102
ATTRRECORD}
102
{ATTRRECORD
341
B97
  2
AcDbDs::Legacy
280
     1
291
     1
102
ATTRRECORD}
  2
AcDbDs::ID
280
    10
 91
        8
102
{ATTRRECORD
341
B98
  2
AcDs:Indexable
280
     1
291
     1
102
ATTRRECORD}
102
{ATTRRECORD
341
B99
  2
AcDbDs::HandleAttribute
280
     7
282
     1
102
ATTRRECORD}
  2
Thumbnail_Data
280
    15
 91
        0
  0
XRECORD
  5
B96
102
{ACAD_REACTORS
330
B9B
102
}
330
B9B
100
AcDbXrecord
280
     1
  1
AcDbDs::TreatedAsObjectDataSchema
  2
AcDbDs::TreatedAsObjectData
280
     1
 91
        0
  0
XRECORD
  5
B97
102
{ACAD_REACTORS
330
B9B
102
}
330
B9B
100
AcDbXrecord
280
     1
  1
AcDbDs::LegacySchema
  2
AcDbDs::Legacy
280
     1
 91
        0
  0
XRECORD
  5
B98
102
{ACAD_REACTORS
330
B9B
102
}
330
B9B
100
AcDbXrecord
280
     1
  1
AcDbDs::IndexedPropertySchema
  2
AcDs:Indexable
280
     1
 91
        0
  0
XRECORD
  5
B99
102
{ACAD_REACTORS
330
B9B
102
}
330
B9B
100
AcDbXrecord
280
     1
  1
AcDbDs::HandleAttributeSchema
  2
AcDbDs::HandleAttribute
280
     7
 91
        1
284
     1
  0
ACDB_MTEXTOBJECTCONTEXTDATA_CLASS
  5
90D
102
{ACAD_REACTORS
330
90C
102
}
330
90C
100
AcDbObjectContextData
 70
     4
290
     1
100
AcDbAnnotScaleObjectContextData
340
43
 70
     2
 10
-1.0
 20
0.0000000000000001
 30
0.0
 11
266.3348016987798
 21
138.3388406462478
 31
0.0
 40
5.317259646414134
 41
0.0
 42
3.999999999999992
 43
0.0666666666666667
 71
     2
 72
     1
 44
5.317259646414134
 45
0.625
 73
     0
 74
     0
 46
0.0830158434547273
  0
ACDB_MTEXTOBJECTCONTEXTDATA_CLASS
  5
96C
102
{ACAD_REACTORS
330
96B
102
}
330
96B
100
AcDbObjectContextData
 70
     4
290
     1
100
AcDbAnnotScaleObjectContextData
340
43
 70
     2
 10
1.0
 20
0.0
 30
0.0
 11
268.9160569511931
 21
110.8139270229574
 31
0.0
 40
5.317259646414134
 41
0.0
 42
4.30833333333333
 43
0.0666666666666667
 71
     2
 72
     1
 44
5.317259646414134
 45
0.625
 73
     0
 74
     0
 46
0.0830158434547273
  0
ACDB_MTEXTOBJECTCONTEXTDATA_CLASS
  5
9A1
102
{ACAD_REACTORS
330
9A0
102
}
330
9A0
100
AcDbObjectContextData
 70
     4
290
     1
100
AcDbAnnotScaleObjectContextData
340
43
 70
     2
 10
-1.0
 20
0.0000000000000001
 30
0.0
 11
219.9811610725165
 21
138.3403909416816
 31
0.0
 40
5.317259646414134
 41
0.0
 42
4.016666666666659
 43
0.0666666666666667
 71
     2
 72
     1
 44
5.317259646414134
 45
0.625
 73
     0
 74
     0
 46
0.0830158434547273
  0
ACDB_MTEXTOBJECTCONTEXTDATA_CLASS
  5
A11
102
{ACAD_REACTORS
330
A10
102
}
330
A10
100
AcDbObjectContextData
 70
     4
290
     1
100
AcDbAnnotScaleObjectContextData
340
43
 70
     2
 10
1.0
 20
0.0
 30
0.0
 11
217.5204863567335
 21
110.8303938031012
 31
0.0
 40
4.444364789627686
 41
0.0
 42
4.30833333333333
 43
0.0666666666666667
 71
     2
 72
     1
 44
4.444364789627686
 45
0.625
 73
     0
 74
     0
 46
0.0830158434547273
  0
ACDB_MTEXTOBJECTCONTEXTDATA_CLASS
  5
A59
102
{ACAD_REACTORS
330
A58
102
}
330
A58
100
AcDbObjectContextData
 70
     4
290
     1
100
AcDbAnnotScaleObjectContextData
340
43
 70
     2
 10
1.0
 20
0.0
 30
0.0
 11
218.7604735371609
 21
122.2509974195499
 31
0.0
 40
3.632685969347309
 41
0.0
 42
3.541666666666662
 43
0.0666666666666667
 71
     2
 72
     1
 44
3.632685969347309
 45
0.625
 73
     0
 74
     0
 46
0.0830158434547273
  0
ACDB_MTEXTOBJECTCONTEXTDATA_CLASS
  5
A7F
102
{ACAD_REACTORS
330
A7E
102
}
330
A7E
100
AcDbObjectContextData
 70
     4
290
     1
100
AcDbAnnotScaleObjectContextData
340
43
 70
     2
 10
1.0
 20
0.0
 30
0.0
 11
269.2699034803188
 21
120.6083735843029
 31
0.0
 40
3.632685969347309
 41
0.0
 42
3.441666666666662
 43
0.0666666666666667
 71
     2
 72
     1
 44
3.632685969347309
 45
0.625
 73
     0
 74
     0
 46
0.0830158434547273
  0
ACDB_MTEXTOBJECTCONTEXTDATA_CLASS
  5
AEE
102
{ACAD_REACTORS
330
AED
102
}
330
AED
100
AcDbObjectContextData
 70
     4
290
     1
100
AcDbAnnotScaleObjectContextData
340
43
 70
     2
 10
1.0
 20
0.0
 30
0.0
 11
263.5718187572051
 21
21.22594838977523
 31
0.0
 40
5.317259646414134
 41
0.0
 42
3.999999999999992
 43
0.0666666666666667
 71
     2
 72
     1
 44
5.317259646414134
 45
0.625
 73
     0
 74
     0
 46
0.0830158434547273
  0
ACDB_MTEXTOBJECTCONTEXTDATA_CLASS
  5
B18
102
{ACAD_REACTORS
330
B17
102
}
330
B17
100
AcDbObjectContextData
 70
     4
290
     1
100
AcDbAnnotScaleObjectContextData
340
43
 70
     2
 10
1.0
 20
0.0
 30
0.0
 11
271.7670625504625
 21
7.850246293254173
 31
0.0
 40
5.317259646414134
 41
0.0
 42
4.30833333333333
 43
0.0666666666666667
 71
     2
 72
     1
 44
5.317259646414134
 45
0.625
 73
     0
 74
     0
 46
0.0830158434547273
  0
ACDB_MTEXTOBJECTCONTEXTDATA_CLASS
  5
B2D
102
{ACAD_REACTORS
330
B2C
102
}
330
B2C
100
AcDbObjectContextData
 70
     4
290
     1
100
AcDbAnnotScaleObjectContextData
340
43
 70
     2
 10
1.0
 20
0.0
 30
0.0
 11
220.3732524969613
 21
28.17659549035636
 31
0.0
 40
5.317259646414134
 41
0.0
 42
4.016666666666659
 43
0.0666666666666667
 71
     2
 72
     1
 44
5.317259646414134
 45
0.625
 73
     0
 74
     0
 46
0.0830158434547273
  0
ACDB_MTEXTOBJECTCONTEXTDATA_CLASS
  5
B5C
102
{ACAD_REACTORS
330
B5B
102
}
330
B5B
100
AcDbObjectContextData
 70
     4
290
     1
100
AcDbAnnotScaleObjectContextData
340
43
 70
     2
 10
1.0
 20
0.0
 30
0.0
 11
215.7957452670385
 21
7.903329401376296
 31
0.0
 40
4.444364789627686
 41
0.0
 42
4.30833333333333
 43
0.0666666666666667
 71
     2
 72
     1
 44
4.444364789627686
 45
0.625
 73
     0
 74
     0
 46
0.0830158434547273
  0
ACDB_MTEXTOBJECTCONTEXTDATA_CLASS
  5
B67
102
{ACAD_REACTORS
330
B66
102
}
330
B66
100
AcDbObjectContextData
 70
     4
290
     1
100
AcDbAnnotScaleObjectContextData
340
43
 70
     2
 10
1.0
 20
0.0
 30
0.0
 11
240.1023437130028
 21
22.34052370178327
 31
0.0
 40
3.632685969347309
 41
0.0
 42
3.541666666666662
 43
0.0666666666666667
 71
     2
 72
     1
 44
3.632685969347309
 45
0.625
 73
     0
 74
     0
 46
0.0830158434547273
  0
ACDB_MTEXTOBJECTCONTEXTDATA_CLASS
  5
B71
102
{ACAD_REACTORS
330
B70
102
}
330
B70
100
AcDbObjectContextData
 70
     4
290
     1
100
AcDbAnnotScaleObjectContextData
340
43
 70
     2
 10
1.0
 20
0.0
 30
0.0
 11
240.2393552742426
 21
10.94253645596492
 31
0.0
 40
3.632685969347309
 41
0.0
 42
3.441666666666662
 43
0.0666666666666667
 71
     2
 72
     1
 44
3.632685969347309
 45
0.625
 73
     0
 74
     0
 46
0.0830158434547273
  0
XRECORD
  5
BA0
102
{ACAD_REACTORS
330
B9F
102
}
330
B9F
100
AcDbXrecord
280
     1
102
DISPLAYNAME
  1
Imperial24
102
FLAGS
 90
        0
  0
XRECORD
  5
1C
102
{ACAD_REACTORS
330
1A
102
}
330
1A
100
AcDbXrecord
280
     1
270
     1
271
     1
  0
XRECORD
  5
1B
102
{ACAD_REACTORS
330
1A
102
}
330
1A
100
AcDbXrecord
280
     1
270
     1
271
     1
  0
XRECORD
  5
1F
102
{ACAD_REACTORS
330
1A
102
}
330
1A
100
AcDbXrecord
280
     1
270
     1
271
     1
  0
XRECORD
  5
1E
102
{ACAD_REACTORS
330
1A
102
}
330
1A
100
AcDbXrecord
280
     1
270
     1
271
     1
  0
XRECORD
  5
20
102
{ACAD_REACTORS
330
1A
102
}
330
1A
100
AcDbXrecord
280
     1
270
     1
271
     1
  0
XRECORD
  5
1D
102
{ACAD_REACTORS
330
1A
102
}
330
1A
100
AcDbXrecord
280
     1
270
     1
271
     1
  0
XRECORD
  5
14
102
{ACAD_REACTORS
330
12
102
}
330
12
100
AcDbXrecord
280
     1
270
     1
271
     1
  0
XRECORD
  5
13
102
{ACAD_REACTORS
330
12
102
}
330
12
100
AcDbXrecord
280
     1
270
     1
271
     1
  0
XRECORD
  5
17
102
{ACAD_REACTORS
330
12
102
}
330
12
100
AcDbXrecord
280
     1
270
     1
271
     1
  0
XRECORD
  5
16
102
{ACAD_REACTORS
330
12
102
}
330
12
100
AcDbXrecord
280
     1
270
     1
271
     1
  0
XRECORD
  5
18
102
{ACAD_REACTORS
330
12
102
}
330
12
100
AcDbXrecord
280
     1
270
     1
271
     1
  0
XRECORD
  5
15
102
{ACAD_REACTORS
330
12
102
}
330
12
100
AcDbXrecord
280
     1
270
     1
271
     1
  0
XRECORD
  5
24
102
{ACAD_REACTORS
330
22
102
}
330
22
100
AcDbXrecord
280
     1
270
     1
271
     1
  0
XRECORD
  5
23
102
{ACAD_REACTORS
330
22
102
}
330
22
100
AcDbXrecord
280
     1
270
     1
271
     1
  0
XRECORD
  5
27
102
{ACAD_REACTORS
330
22
102
}
330
22
100
AcDbXrecord
280
     1
270
     1
271
     1
  0
XRECORD
  5
26
102
{ACAD_REACTORS
330
22
102
}
330
22
100
AcDbXrecord
280
     1
270
     1
271
     1
  0
XRECORD
  5
28
102
{ACAD_REACTORS
330
22
102
}
330
22
100
AcDbXrecord
280
     1
270
     1
271
     1
  0
XRECORD
  5
25
102
{ACAD_REACTORS
330
22
102
}
330
22
100
AcDbXrecord
280
     1
270
     1
271
     1
  0
XRECORD
  5
B9E
102
{ACAD_REACTORS
330
B9D
102
}
330
B9D
100
AcDbXrecord
280
     1
102
DISPLAYNAME
  1
Imperial24
102
FLAGS
 90
        0
  0
CELLSTYLEMAP
  5
B93
102
{ACAD_REACTORS
330
B92
102
}
330
B92
100
AcDbCellStyleMap
 90
        3
300
CELLSTYLE
  1
TABLEFORMAT_BEGIN
 90
        5
170
     1
 91
        0
 92
    32768
 62
   257
 93
        1
300
CONTENTFORMAT
  1
CONTENTFORMAT_BEGIN
 90
        0
 91
        0
 92
      512
 93
        0
300

 40
0.0
140
1.0
 94
        5
 62
     0
340
55
144
0.25
309
CONTENTFORMAT_END
171
     0
 94
        0
309
TABLEFORMAT_END
  1
CELLSTYLE_BEGIN
 90
        1
 91
        1
300
_TITLE
309
CELLSTYLE_END
300
CELLSTYLE
  1
TABLEFORMAT_BEGIN
 90
        5
170
     1
 91
        0
 92
        0
 62
   257
 93
        1
300
CONTENTFORMAT
  1
CONTENTFORMAT_BEGIN
 90
        0
 91
        0
 92
      512
 93
        0
300

 40
0.0
140
1.0
 94
        5
 62
     0
340
55
144
0.18
309
CONTENTFORMAT_END
171
     0
 94
        0
309
TABLEFORMAT_END
  1
CELLSTYLE_BEGIN
 90
        2
 91
        1
300
_HEADER
309
CELLSTYLE_END
300
CELLSTYLE
  1
TABLEFORMAT_BEGIN
 90
        5
170
     1
 91
        0
 92
        0
 62
   257
 93
        1
300
CONTENTFORMAT
  1
CONTENTFORMAT_BEGIN
 90
        0
 91
        0
 92
      512
 93
        0
300

 40
0.0
140
1.0
 94
        2
 62
     0
340
55
144
0.18
309
CONTENTFORMAT_END
171
     0
 94
        0
309
TABLEFORMAT_END
  1
CELLSTYLE_BEGIN
 90
        3
 91
        2
300
_DATA
309
CELLSTYLE_END
  0
ENDSEC
  0
SECTION
  2
ACDSDATA
 70
     2
 71
     8
  0
ACDSSCHEMA
 90
        0
  1
AcDb_Thumbnail_Schema
  2
AcDbDs::ID
280
    10
 91
        8
  2
Thumbnail_Data
280
    15
 91
        0
101
ACDSRECORD
 95
        0
 90
        1
  2
AcDbDs::TreatedAsObjectData
280
     1
291
     1
101
ACDSRECORD
 95
        0
 90
        2
  2
AcDbDs::Legacy
280
     1
291
     1
101
ACDSRECORD
  1
AcDbDs::ID
 90
        3
  2
AcDs:Indexable
280
     1
291
     1
101
ACDSRECORD
  1
AcDbDs::ID
 90
        4
  2
AcDbDs::HandleAttribute
280
     7
282
     1
  0
ACDSSCHEMA
 90
        1
  1
AcDbDs::TreatedAsObjectDataSchema
  2
AcDbDs::TreatedAsObjectData
280
     1
 91
        0
  0
ACDSSCHEMA
 90
        2
  1
AcDbDs::LegacySchema
  2
AcDbDs::Legacy
280
     1
 91
        0
  0
ACDSSCHEMA
 90
        3
  1
AcDbDs::IndexedPropertySchema
  2
AcDs:Indexable
280
     1
 91
        0
  0
ACDSSCHEMA
 90
        4
  1
AcDbDs::HandleAttributeSchema
  2
AcDbDs::HandleAttribute
280
     7
 91
        1
284
     1
  0
ACDSRECORD
 90
        0
  2
AcDbDs::ID
280
    10
320
72
  2
Thumbnail_Data
280
    15
 94
     2157
310
89504E470D0A1A0A0000000D4948445200000100000000A808030000003894C06300000300504C5445000000FFFFFF0000000000000000000000000000000000000000000000000000000000330000660000990000CC0000FF0033000033330033660033990033CC0033FF0066000066330066660066990066CC0066FF0099
310
000099330099660099990099CC0099FF00CC0000CC3300CC6600CC9900CCCC00CCFF00FF0000FF3300FF6600FF9900FFCC00FFFF3300003300333300663300993300CC3300FF3333003333333333663333993333CC3333FF3366003366333366663366993366CC3366FF3399003399333399663399993399CC3399FF33CC00
310
33CC3333CC6633CC9933CCCC33CCFF33FF0033FF3333FF6633FF9933FFCC33FFFF6600006600336600666600996600CC6600FF6633006633336633666633996633CC6633FF6666006666336666666666996666CC6666FF6699006699336699666699996699CC6699FF66CC0066CC3366CC6666CC9966CCCC66CCFF66FF0066
310
FF3366FF6666FF9966FFCC66FFFF9900009900339900669900999900CC9900FF9933009933339933669933999933CC9933FF9966009966339966669966999966CC9966FF9999009999339999669999999999CC9999FF99CC0099CC3399CC6699CC9999CCCC99CCFF99FF0099FF3399FF6699FF9999FFCC99FFFFCC0000CC00
310
33CC0066CC0099CC00CCCC00FFCC3300CC3333CC3366CC3399CC33CCCC33FFCC6600CC6633CC6666CC6699CC66CCCC66FFCC9900CC9933CC9966CC9999CC99CCCC99FFCCCC00CCCC33CCCC66CCCC99CCCCCCCCCCFFCCFF00CCFF33CCFF66CCFF99CCFFCCCCFFFFFF0000FF0033FF0066FF0099FF00CCFF00FFFF3300FF3333
310
FF3366FF3399FF33CCFF33FFFF6600FF6633FF6666FF6699FF66CCFF66FFFF9900FF9933FF9966FF9999FF99CCFF99FFFFCC00FFCC33FFCC66FFCC99FFCCCCFFCCFFFFFF00FFFF33FFFF66FFFF99FFFFCCFFFFFF0000000D0D0D1A1A1A2828283535354343435050505D5D5D6B6B6B787878868686939393A1A1A1AEAEAEBB
310
BBBBC9C9C9D6D6D6E4E4E4F1F1F1FFFFFF0000000000000000000000000000000000000000000000000000000000003AE5ACE9000005284944415478DAED5D5976DB300CC48570FF03F84CF86F6291C4808B6CA779AD08CDB4496C89D23386D8C486531182200882F815A86A7DF1FDAD1D7E9EF173E5A576178F87E24DC3C8
310
6BDADF3E5C20A018A0FDC7D762DC9390831638D4DDB41C96C0E5053D40820794CFDA11D05CE1304E83A5F542E049E1A45EDA03FCB30D21D0BF9346904C090856562FB93C011AA7F50D026268E88C00BF295CA1974E8243146B98504C829E03CA7B1FADD39B5E3F063EF0960C66FC46C224324D69AD7B1A3338A482BE88C791
310
35DBC3A849D1D7EB06B5F6EEEDA1AE8BF48DF55EE36D56C9E2C265B07780EED3C30C8F29FD9480D65955F7B8603BA83ACE0F14391C505A3D0DFD7F31AFD0247D112D2CE8C953C3257A4099F96F7C0C788380FEBEB135D0796AF8DFDE3F7DA2D3D0C587464FBB10F1897E4DC0F5DAA110DDC3096FF1C0A3FBAC885560F02C55
310
1CABD7F30082203E5D357AB91696B861BE3501A50DF065C0B22CA40D3721C09B99D54252DA1CA0B1A2E35AD83D08686DBDFA82B92F07DFBBC1B9573E9C170976B804411004411004411004411004416C8EC729DE1DB23301C70F3BF0BDF27FBC82938FF58076FDEE04D8D71F313F3A21209CF6B73908F009050B0301CDE04A
310
547492ED09781A6591828E00C15871461210F034C79ADB2F08C0932D097C7DDB9F80E2CB5FDF31B71D133C1010F2DF73540202AA7F97393570814680B5DC88147C5F9A2204A2EF97E81E09B096281A1F9623079885D86EF10D04B89F3801968880DEB832D7C10386311909B039015024FDB48193ECDD071453A27B3FBF6E43
310
406D6E9E9D3E747C40001607B15A103211D0354290E2B15084C7214BD20A7BDE3F1AC2160FA5C83FF041C9BBA683B114CF02753ABD0C163E1EA15984A7626F1B931080EDBD3FEE84326870A60DC842801C2E508CEB9F75DB82481909542423403AE39080101FE56FAAF5800EB220C0E61C2558113A59F07B63D9706702EEBE
310
2A4CDC1AB0A15E1536C7C30699F9317FA3BBDB7FBC10DF22D3B60A296EA00D166BDC50B43703C70F104B89935DE591241E0B346D1F0782724ADACC95B6850C6565EA58D57127F1CE8130867871101DA71EC3204D2644E5079D864308856B8B86113F4A8518D3A3B084A4DE30A62E8F302DF6632F90CBFF31E05D430E4B1DE4
310
037C4510044110044110044110044110044110044110C42678FC0A7626E03237F9BF04F45BA7EF4680DD9E806EE3F81D43E0EE04FC950BE420E0730652A888FC1D019686809F30E061938200FB38135AA610A81B823FA000F2661A02A4DF3C7B230224EE8D7D4D0116CE6404B49C68E7F66723A0AFF0262F08B06C04D82AC9
310
2F5A204BD209BA5AC05C2B6DD901BAF0CCE604541DB1C5E6D9CE2B4071A7FED89C80B60BFCD4E09113735FD99E8025032D1736690509425B09A4948A80C88201D44C8AC5DF121120B66C815D5567213869DB0BE954025E3E0ACE73E4FE524A552C73EE02CB72E07E90810099A9287539609E211208E93C60229B44CE5B04D4
310
8B2489079844319D5704185C97E21F465C1FC966F2827DED0FEA6319080824B427A18E80A8A295434B0A3CC0B584BCF33BAA5E7C404429A52C1E802609C4C01002A82595435B7A25916467DD50262925FE7EC0DD7F4384206E8C209555C584DA7F367F0CA92243879444A73754D446746702E44C474CB52969B99686AE34C7
310
76B55F1475C4A48A2449478054CF0804C8D6822A4B1DB12692A643081486D4DD2283A2D4444B4CDFD7124B920D975A623319B938280101F2524BAC1606D019A29450AE8E6028859D6A22084B894A3A25290D81102D7691B5C8C85DB4C424E43FA196184110FF127F008E638B891509CF040000000049454E44AE426082
  0
ENDSEC
  0
EOF
