0
SECTION
2
HEADER
9
$ACADVER
1
AC1015
9
$HANDSEED
5
30
0
ENDSEC
0
SECTION
2
TABLES
0
TABLE
2
VPORT
5
8
0
ENDTAB
0
TABLE
2
LTYPE
330
1
100
AcDbSymbolTable 
70
13
0
LTYPE
330
e
100
AcDbSymbolTableRecord
100
AcDbLinetypeTableRecord
2
CONTINUOUS
70
0
3
Continuous ________________________________
72
65
73
2
73
0
40
0.000
0
LTYPE
330
f
100
AcDbSymbolTableRecord
100
AcDbLinetypeTableRecord
2
DASHED
70
0
3
Dashed _ _ _ _ _ _ _ _ _
72
65
73
2
73
2
40
5.000
49
2.50
74
0
49
-2.50
74
0
0
LTYPE
330
10
100
AcDbSymbolTableRecord
100
AcDbLinetypeTableRecord
2
DOT
70
0
3
Dot ...................
72
65
73
2
73
2
40
1.000
49
0.00
74
0
49
-1.00
74
0
0
LTYPE
330
11
100
AcDbSymbolTableRecord
100
AcDbLinetypeTableRecord
2
DASHDOT
70
0
3
Dashdot or center ___ _ ___ _ ___ _ ___ _ ___
72
65
73
2
73
4
40
10.000
49
6.00
74
0
49
-1.50
74
0
49
1.00
74
0
49
-1.50
74
0
0
LTYPE
330
12
100
AcDbSymbolTableRecord
100
AcDbLinetypeTableRecord
2
PHANTOM
70
0
3
Phantom ___ _ _ ___ _ _ ___ _ _ ___ _ _ ___
72
65
73
2
73
6
40
12.000
49
6.00
74
0
49
-1.44
74
0
49
0.84
74
0
49
-1.44
74
0
49
0.84
74
0
49
-1.44
74
0
0
ENDTAB
0
TABLE
2
LAYER
5
2
330
0
100
AcDbSymbolTable
70
1
0
LAYER
5
a
330
2
100
AcDbSymbolTableRecord
100
AcDbLayerTableRecord
2
0
70
0
62
7
6
Continuous
370
-3
390
F
0
ENDTAB
0
TABLE
2
STYLE
5
3
330
0
100
AcDbSymbolTable
70
1
0
ENDTAB
0
TABLE
2
VIEW
5
6
330
0
100
AcDbSymbolTable
70
0
0
ENDTAB
0
TABLE
2
UCS
5
7
330
0
100
AcDbSymbolTable
70
0
0
ENDTAB
0
TABLE
2
DIMSTYLE
5
5
330
0
100
AcDbSymbolTable
70
1
100
AcDbDimStyleTable
0
ENDTAB
0
TABLE
2
BLOCK_RECORD
5
1
330
0
100
AcDbSymbolTable
70
1
0
ENDTAB
0
ENDSEC
0
SECTION
2
ENTITIES
0
LINE
330
1
100
AcDbEntity
8
Sheet
6
CONTINUOUS
62
0
370
0
100
AcDbLine
10
0.0000000000000000
20
0.0000000000000000
30
0.0000000000000000
11
40.0000000000000000
21
0.0000000000000000
31
0.0000000000000000
0
LINE
330
1
100
AcDbEntity
8
Sheet
6
CONTINUOUS
62
0
370
0
100
AcDbLine
10
40.0000000000000000
20
0.0000000000000000
30
0.0000000000000000
11
40.0000000000000000
21
30.0000000000000000
31
0.0000000000000000
0
LINE
330
1
100
AcDbEntity
8
Sheet
6
CONTINUOUS
62
0
370
0
100
AcDbLine
10
40.0000000000000000
20
30.0000000000000000
30
0.0000000000000000
11
0.0000000000000000
21
30.0000000000000000
31
0.0000000000000000
0
LINE
330
1
100
AcDbEntity
8
Sheet
6
CONTINUOUS
62
0
370
0
100
AcDbLine
10
0.0000000000000000
20
30.0000000000000000
30
0.0000000000000000
11
0.0000000000000000
21
0.0000000000000000
31
0.0000000000000000
0
LINE
330
1
100
AcDbEntity
8
Cut
6
CONTINUOUS
62
5
370
0
100
AcDbLine
10
7.9173593346734163
20
5.4214984112166444
30
-0.0000000000000113
11
5.7977652352248681
21
0.2786503960893529
31
-0.0000000000000105
0
LINE
330
1
100
AcDbEntity
8
Cut
6
CONTINUOUS
62
5
370
0
100
AcDbLine
10
5.7977652352248885
20
0.2786503960894010
30
-0.0000000000000105
11
0.2504377735414843
21
2.5649482841289029
31
0.0000000000000063
0
LINE
330
1
100
AcDbEntity
8
Cut
6
CONTINUOUS
62
5
370
0
100
AcDbLine
10
0.2504377735415274
20
2.5649482841289051
30
0.0000000000000063
11
0.4017596827821331
21
24.3096967212209307
31
0.0000000000000264
0
LINE
330
1
100
AcDbEntity
8
Cut
6
CONTINUOUS
62
5
370
0
100
AcDbLine
10
0.4017596827822916
20
24.3096967212207389
30
0.0000000000000264
11
1.4034632987687818
21
25.1336771820644245
31
0.0000000000000245
0
LINE
330
1
100
AcDbEntity
8
Cut
6
CONTINUOUS
62
5
370
0
100
AcDbLine
10
1.4034632987687807
20
25.1336771820644245
30
0.0000000000000245
11
6.0034631624707124
21
24.6858853106180831
31
0.0000000000000120
0
LINE
330
1
100
AcDbEntity
8
Cut
6
CONTINUOUS
62
5
370
0
100
AcDbLine
10
6.0034631624707018
20
24.6858853106180831
30
0.0000000000000120
11
4.3712973300668017
21
7.9192508865796274
31
0.0000000000000004
0
ARC
8
Cut
6
CONTINUOUS
62
5
370
0
100
AcDbEntity
100
AcDbCircle
10
4.3239005295325619
20
7.2960330408450655
30
-0.0000000000000001
40
0.6250175517080383
100
AcDbArc
50
85.6509282922324076
51
302.0008518772136767
0
LINE
330
1
100
AcDbEntity
8
Cut
6
CONTINUOUS
62
5
370
0
100
AcDbLine
10
4.6551012724461627
20
6.7660185913262696
30
-0.0000000000000014
11
7.9173593346734261
21
5.4214984112166391
31
-0.0000000000000113
0
SPLINE
8
Cut
6
CONTINUOUS
62
5
370
0
100
AcDbEntity
100
AcDbSpline
70
1
71
3
72
16
73
12
74
0
40
0.0000000000000000
40
0.0000000000000000
40
0.0000000000000000
40
0.0000000000000000
40
0.1135047903499517
40
0.2270095806999034
40
0.3405143710498558
40
0.4540191613998076
40
0.5675239517497589
40
0.6810287420997116
40
0.7945335324496655
40
0.9080383227996163
40
1.0000000000000000
40
1.0000000000000000
40
1.0000000000000000
40
1.0000000000000000
10
6.6341531065659813
20
4.9363422589321742
30
-0.0000000000000083
10
6.6479365264984551
20
4.9309868610974812
30
-0.0000000000000085
10
6.6717994879470011
20
4.9100652505435223
30
-0.0000000000000087
10
6.6780944620762046
20
4.8629393020074128
30
-0.0000000000000083
10
6.6520632526372694
20
4.8231851549763327
30
-0.0000000000000083
10
6.6063460369790645
20
4.8101739253056861
30
-0.0000000000000085
10
6.5632691230552682
20
4.8302670930968219
30
-0.0000000000000082
10
6.5438682433575162
20
4.8736447594468721
30
-0.0000000000000083
10
6.5575533534850088
20
4.9191771598394878
30
-0.0000000000000081
10
6.5953189069748772
20
4.9428878278719299
30
-0.0000000000000083
10
6.6229857680718158
20
4.9406812067901082
30
-0.0000000000000082
10
6.6341531065659813
20
4.9363422589321742
30
-0.0000000000000083
41
1.0000000000000000
41
1.0000000000000000
41
1.0000000000000000
41
1.0000000000000000
41
1.0000000000000000
41
1.0000000000000000
41
1.0000000000000000
41
1.0000000000000000
41
1.0000000000000000
41
1.0000000000000000
41
1.0000000000000000
41
1.0000000000000000
0
SPLINE
8
Cut
6
CONTINUOUS
62
5
370
0
100
AcDbEntity
100
AcDbSpline
70
1
71
3
72
16
73
12
74
0
40
0.0000000000000000
40
0.0000000000000000
40
0.0000000000000000
40
0.0000000000000000
40
0.1135047903499496
40
0.2270095806999010
40
0.3405143710498588
40
0.4540191613998104
40
0.5675239517497622
40
0.6810287420997108
40
0.7945335324496644
40
0.9080383227996196
40
1.0000000000000000
40
1.0000000000000000
40
1.0000000000000000
40
1.0000000000000000
10
5.2766583031305441
20
1.6426033976993972
30
-0.0000000000000078
10
5.2904417230630196
20
1.6372479998647060
30
-0.0000000000000079
10
5.3143046845115629
20
1.6163263893107431
30
-0.0000000000000078
10
5.3205996586407682
20
1.5692004407746372
30
-0.0000000000000082
10
5.2945684492018330
20
1.5294462937435536
30
-0.0000000000000081
10
5.2488512335436273
20
1.5164350640729085
30
-0.0000000000000079
10
5.2057743196198354
20
1.5365282318640527
30
-0.0000000000000079
10
5.1863734399220789
20
1.5799058982140948
30
-0.0000000000000078
10
5.2000585500495715
20
1.6254382986067080
30
-0.0000000000000078
10
5.2378241035394364
20
1.6491489666391463
30
-0.0000000000000078
10
5.2654909646363759
20
1.6469423455573224
30
-0.0000000000000078
10
5.2766583031305441
20
1.6426033976993972
30
-0.0000000000000078
41
1.0000000000000000
41
1.0000000000000000
41
1.0000000000000000
41
1.0000000000000000
41
1.0000000000000000
41
1.0000000000000000
41
1.0000000000000000
41
1.0000000000000000
41
1.0000000000000000
41
1.0000000000000000
41
1.0000000000000000
41
1.0000000000000000
0
SPLINE
8
Cut
6
CONTINUOUS
62
5
370
0
100
AcDbEntity
100
AcDbSpline
70
1
71
3
72
16
73
12
74
0
40
0.0000000000000000
40
0.0000000000000000
40
0.0000000000000000
40
0.0000000000000000
40
0.1135047903499514
40
0.2270095806999029
40
0.3405143710498547
40
0.4540191613998070
40
0.5675239517497569
40
0.6810287420997109
40
0.7945335324496645
40
0.9080383227996145
40
1.0000000000000000
40
1.0000000000000000
40
1.0000000000000000
40
1.0000000000000000
10
3.4831906394726877
20
8.9455100907672751
30
0.0000000000000038
10
3.4969740594051619
20
8.9401546929325804
30
0.0000000000000037
10
3.5208370208537034
20
8.9192330823786143
30
0.0000000000000034
10
3.5271319949829096
20
8.8721071338425084
30
0.0000000000000036
10
3.5011007855439717
20
8.8323529868114257
30
0.0000000000000036
10
3.4553835698857673
20
8.8193417571407782
30
0.0000000000000038
10
3.4123066559619728
20
8.8394349249319184
30
0.0000000000000037
10
3.3929057762642167
20
8.8828125912819615
30
0.0000000000000042
10
3.4065908863917129
20
8.9283449916745870
30
0.0000000000000040
10
3.4443564398815756
20
8.9520556597070158
30
0.0000000000000040
10
3.4720233009785200
20
8.9498490386252048
30
0.0000000000000040
10
3.4831906394726877
20
8.9455100907672751
30
0.0000000000000038
41
1.0000000000000000
41
1.0000000000000000
41
1.0000000000000000
41
1.0000000000000000
41
1.0000000000000000
41
1.0000000000000000
41
1.0000000000000000
41
1.0000000000000000
41
1.0000000000000000
41
1.0000000000000000
41
1.0000000000000000
41
1.0000000000000000
0
SPLINE
8
Cut
6
CONTINUOUS
62
5
370
0
100
AcDbEntity
100
AcDbSpline
70
1
71
3
72
16
73
12
74
0
40
0.0000000000000000
40
0.0000000000000000
40
0.0000000000000000
40
0.0000000000000000
40
0.1135047903499512
40
0.2270095806999038
40
0.3405143710498569
40
0.4540191613998104
40
0.5675239517497617
40
0.6810287420997108
40
0.7945335324496652
40
0.9080383227996163
40
1.0000000000000000
40
1.0000000000000000
40
1.0000000000000000
40
1.0000000000000000
10
1.3142709345892696
20
9.1566458826029145
30
0.0000000000000097
10
1.3280543545217438
20
9.1512904847682233
30
0.0000000000000097
10
1.3519173159702882
20
9.1303688742142555
30
0.0000000000000094
10
1.3582122900994933
20
9.0832429256781513
30
0.0000000000000092
10
1.3321810806605536
20
9.0434887786470650
30
0.0000000000000098
10
1.2864638650023517
20
9.0304775489764229
30
0.0000000000000097
10
1.2433869510785567
20
9.0505707167675613
30
0.0000000000000098
10
1.2239860713808002
20
9.0939483831176027
30
0.0000000000000096
10
1.2376711815082952
20
9.1394807835102192
30
0.0000000000000101
10
1.2754367349981584
20
9.1631914515426516
30
0.0000000000000096
10
1.3031035960951021
20
9.1609848304608423
30
0.0000000000000096
10
1.3142709345892696
20
9.1566458826029145
30
0.0000000000000097
41
1.0000000000000000
41
1.0000000000000000
41
1.0000000000000000
41
1.0000000000000000
41
1.0000000000000000
41
1.0000000000000000
41
1.0000000000000000
41
1.0000000000000000
41
1.0000000000000000
41
1.0000000000000000
41
1.0000000000000000
41
1.0000000000000000
0
SPLINE
8
Cut
6
CONTINUOUS
62
5
370
0
100
AcDbEntity
100
AcDbSpline
70
1
71
3
72
16
73
12
74
0
40
0.0000000000000000
40
0.0000000000000000
40
0.0000000000000000
40
0.0000000000000000
40
0.1135047903499487
40
0.2270095806999020
40
0.3405143710498545
40
0.4540191613998023
40
0.5675239517497570
40
0.6810287420997081
40
0.7945335324496595
40
0.9080383227996121
40
1.0000000000000000
40
1.0000000000000000
40
1.0000000000000000
40
1.0000000000000000
10
1.9130281806701608
20
23.6375117472338161
30
0.0000000000000219
10
1.9268116006026348
20
23.6321563493991249
30
0.0000000000000216
10
1.9506745620511710
20
23.6112347388451553
30
0.0000000000000217
10
1.9569695361803801
20
23.5641087903090494
30
0.0000000000000213
10
1.9309383267414426
20
23.5243546432779667
30
0.0000000000000219
10
1.8852211110832391
20
23.5113434136073209
30
0.0000000000000219
10
1.8421441971594477
20
23.5314365813984665
30
0.0000000000000216
10
1.8227433174616869
20
23.5748142477485096
30
0.0000000000000221
10
1.8364284275891838
20
23.6203466481411262
30
0.0000000000000217
10
1.8741939810790429
20
23.6440573161735585
30
0.0000000000000223
10
1.9018608421759899
20
23.6418506950917475
30
0.0000000000000219
10
1.9130281806701608
20
23.6375117472338161
30
0.0000000000000219
41
1.0000000000000000
41
1.0000000000000000
41
1.0000000000000000
41
1.0000000000000000
41
1.0000000000000000
41
1.0000000000000000
41
1.0000000000000000
41
1.0000000000000000
41
1.0000000000000000
41
1.0000000000000000
41
1.0000000000000000
41
1.0000000000000000
0
SPLINE
8
Cut
6
CONTINUOUS
62
5
370
0
100
AcDbEntity
100
AcDbSpline
70
1
71
3
72
16
73
12
74
0
40
0.0000000000000000
40
0.0000000000000000
40
0.0000000000000000
40
0.0000000000000000
40
0.1135047903499506
40
0.2270095806999043
40
0.3405143710498573
40
0.4540191613998098
40
0.5675239517497610
40
0.6810287420997139
40
0.7945335324496654
40
0.9080383227996176
40
1.0000000000000000
40
1.0000000000000000
40
1.0000000000000000
40
1.0000000000000000
10
4.8852337617993173
20
23.3481792387702072
30
0.0000000000000135
10
4.8990171817317885
20
23.3428238409355089
30
0.0000000000000137
10
4.9228801431803308
20
23.3219022303815429
30
0.0000000000000137
10
4.9291751173095317
20
23.2747762818454405
30
0.0000000000000134
10
4.9031439078705983
20
23.2350221348143577
30
0.0000000000000138
10
4.8574266922123952
20
23.2220109051437120
30
0.0000000000000134
10
4.8143497782886007
20
23.2421040729348576
30
0.0000000000000137
10
4.7949488985908468
20
23.2854817392848972
30
0.0000000000000141
10
4.8086340087183430
20
23.3310141396775172
30
0.0000000000000138
10
4.8463995622082034
20
23.3547248077099496
30
0.0000000000000139
10
4.8740664233051483
20
23.3525181866281351
30
0.0000000000000137
10
4.8852337617993173
20
23.3481792387702072
30
0.0000000000000135
41
1.0000000000000000
41
1.0000000000000000
41
1.0000000000000000
41
1.0000000000000000
41
1.0000000000000000
41
1.0000000000000000
41
1.0000000000000000
41
1.0000000000000000
41
1.0000000000000000
41
1.0000000000000000
41
1.0000000000000000
41
1.0000000000000000
0
MTEXT
330
1 F
100
AcDbEntity
8
PartID
6
CONTINUOUS
62
30
370
0
100
AcDbMText
10
4.0838985541074502
20
12.7061637890768875
30
0.0000000000000000
40
0.7874015748031497
41
0.0
71
5
72
1
1
RH Inboard Seat Mount
0
MTEXT
330
1 F
100
AcDbEntity
8
PartIndex
6
CONTINUOUS
62
30
370
0
100
AcDbMText
10
4.0838985541074502
20
13.5329354426201949
30
0.0000000000000000
40
0.7874015748031497
41
0.0
71
5
72
1
1
26-1
0
LINE
330
1
100
AcDbEntity
8
Cut
6
CONTINUOUS
62
5
370
0
100
AcDbLine
10
6.3597201771203391
20
24.0766780548948809
30
0.0000000000000022
11
8.4360347550666788
21
23.8696116855403702
31
0.0000000000000000
0
LINE
330
1
100
AcDbEntity
8
Cut
6
CONTINUOUS
62
5
370
0
100
AcDbLine
10
8.4360347550684267
20
23.8696116855401925
30
0.0000000000000000
11
8.4856525454611802
21
24.3671436693149523
31
0.0000000000000000
0
LINE
330
1
100
AcDbEntity
8
Cut
6
CONTINUOUS
62
5
370
0
100
AcDbLine
10
8.4856525454609510
20
24.3671436693126608
30
0.0000000000000000
11
10.6912470876946379
21
24.1471844882813436
31
0.0000000000000022
0
LINE
330
1
100
AcDbEntity
8
Cut
6
CONTINUOUS
62
5
370
0
100
AcDbLine
10
10.6912470876964409
20
24.1471844882811624
30
0.0000000000000022
11
8.8277823523223251
21
5.4616827932998211
31
0.0000000000000022
0
LINE
330
1
100
AcDbEntity
8
Cut
6
CONTINUOUS
62
5
370
0
100
AcDbLine
10
8.8277823523223979
20
5.4616827932999978
30
0.0000000000000022
11
4.6751147597431739
21
7.1846506479776124
31
0.0000000000000022
0
LINE
330
1
100
AcDbEntity
8
Cut
6
CONTINUOUS
62
5
370
0
100
AcDbLine
10
4.6751147597438223
20
7.1846506479775467
30
0.0000000000000022
11
6.3597201771205620
21
24.0766780548971049
31
0.0000000000000022
0
SPLINE
8
Cut
6
CONTINUOUS
62
5
370
0
100
AcDbEntity
100
AcDbSpline
70
1
71
3
72
16
73
12
74
0
40
0.0000000000000000
40
0.0000000000000000
40
0.0000000000000000
40
0.0000000000000000
40
0.1135047903499504
40
0.2270095806999011
40
0.3405143710498527
40
0.4540191613998031
40
0.5675239517497547
40
0.6810287420997082
40
0.7945335324496594
40
0.9080383227996099
40
1.0000000000000000
40
1.0000000000000000
40
1.0000000000000000
40
1.0000000000000000
10
7.1885818968049033
20
7.1825968105098186
30
0.0000000000000022
10
7.1870546252636753
20
7.1678886361621270
30
0.0000000000000022
10
7.1731737369921609
20
7.1393496162409713
30
0.0000000000000044
10
7.1293806933691357
20
7.1208387800916428
30
-0.0000000000000022
10
7.0841653649319065
20
7.1354535036722053
30
0.0000000000000022
10
7.0595483061837410
20
7.1761149881958994
30
0.0000000000000022
10
7.0675585204685643
20
7.2229678682801799
30
0.0000000000000022
10
7.1042768498193727
20
7.2531304338326743
30
0.0000000000000044
10
7.1518066962375570
20
7.2519491530957785
30
-0.0000000000000022
10
7.1846448606723268
20
7.2217814921739372
30
0.0000000000000066
10
7.1898192935001362
20
7.1945133858138179
30
0.0000000000000044
10
7.1885818968049033
20
7.1825968105098186
30
0.0000000000000022
41
1.0000000000000000
41
1.0000000000000000
41
1.0000000000000000
41
1.0000000000000000
41
1.0000000000000000
41
1.0000000000000000
41
1.0000000000000000
41
1.0000000000000000
41
1.0000000000000000
41
1.0000000000000000
41
1.0000000000000000
41
1.0000000000000000
0
CIRCLE
8
Cut
6
CONTINUOUS
62
5
370
0
100
AcDbEntity
100
AcDbCircle
10
10.0711178401180881
20
22.0309755020101932
30
0.0000000000000022
40
0.1874956037302174
0
SPLINE
8
Cut
6
CONTINUOUS
62
5
370
0
100
AcDbEntity
100
AcDbSpline
70
1
71
3
72
16
73
12
74
0
40
0.0000000000000000
40
0.0000000000000000
40
0.0000000000000000
40
0.0000000000000000
40
0.1135047903499501
40
0.2270095806999018
40
0.3405143710498530
40
0.4540191613998033
40
0.5675239517497548
40
0.6810287420997078
40
0.7945335324496590
40
0.9080383227996102
40
1.0000000000000000
40
1.0000000000000000
40
1.0000000000000000
40
1.0000000000000000
10
5.5268909348710711
20
7.9321496393125823
30
-0.0000000000000044
10
5.5253636633298457
20
7.9174414649648925
30
-0.0000000000000022
10
5.5114827750583286
20
7.8889024450437386
30
0.0000000000000022
10
5.4676897314353035
20
7.8703916088944155
30
-0.0000000000000022
10
5.4224744029980760
20
7.8850063324749691
30
-0.0000000000000022
10
5.3978573442499105
20
7.9256678169986730
30
0.0000000000000000
10
5.4058675585347338
20
7.9725206970829472
30
0.0000000000000000
10
5.4425858878855422
20
8.0026832626354434
30
-0.0000000000000022
10
5.4901157343037230
20
8.0015019818985440
30
-0.0000000000000022
10
5.5229538987384963
20
7.9713343209767027
30
0.0000000000000000
10
5.5281283315663039
20
7.9440662146165817
30
-0.0000000000000022
10
5.5268909348710711
20
7.9321496393125823
30
-0.0000000000000044
41
1.0000000000000000
41
1.0000000000000000
41
1.0000000000000000
41
1.0000000000000000
41
1.0000000000000000
41
1.0000000000000000
41
1.0000000000000000
41
1.0000000000000000
41
1.0000000000000000
41
1.0000000000000000
41
1.0000000000000000
41
1.0000000000000000
0
SPLINE
8
Cut
6
CONTINUOUS
62
5
370
0
100
AcDbEntity
100
AcDbSpline
70
1
71
3
72
16
73
12
74
0
40
0.0000000000000000
40
0.0000000000000000
40
0.0000000000000000
40
0.0000000000000000
40
0.1135047903499510
40
0.2270095806999028
40
0.3405143710498561
40
0.4540191613998084
40
0.5675239517497609
40
0.6810287420997130
40
0.7945335324496657
40
0.9080383227996175
40
1.0000000000000000
40
1.0000000000000000
40
1.0000000000000000
40
1.0000000000000000
10
9.8771440544502429
20
22.9118957613693830
30
0.0000000000000000
10
9.8756167829090096
20
22.8971875870216941
30
0.0000000000000000
10
9.8617358946374978
20
22.8686485671005322
30
0.0000000000000000
10
9.8179428510144700
20
22.8501377309512108
30
0.0000000000000000
10
9.7727275225772434
20
22.8647524545317751
30
0.0000000000000000
10
9.7481104638290805
20
22.9054139390554674
30
0.0000000000000066
10
9.7561206781139056
20
22.9522668191397514
30
0.0000000000000022
10
9.7928390074647140
20
22.9824293846922387
30
-0.0000000000000022
10
9.8403688538828948
20
22.9812481039553411
30
0.0000000000000066
10
9.8732070183176663
20
22.9510804430334971
30
-0.0000000000000022
10
9.8783814511454704
20
22.9238123366733788
30
-0.0000000000000022
10
9.8771440544502429
20
22.9118957613693830
30
0.0000000000000000
41
1.0000000000000000
41
1.0000000000000000
41
1.0000000000000000
41
1.0000000000000000
41
1.0000000000000000
41
1.0000000000000000
41
1.0000000000000000
41
1.0000000000000000
41
1.0000000000000000
41
1.0000000000000000
41
1.0000000000000000
41
1.0000000000000000
0
SPLINE
8
Cut
6
CONTINUOUS
62
5
370
0
100
AcDbEntity
100
AcDbSpline
70
1
71
3
72
16
73
12
74
0
40
0.0000000000000000
40
0.0000000000000000
40
0.0000000000000000
40
0.0000000000000000
40
0.1135047903499510
40
0.2270095806999035
40
0.3405143710498557
40
0.4540191613998081
40
0.5675239517497606
40
0.6810287420997126
40
0.7945335324496647
40
0.9080383227996175
40
1.0000000000000000
40
1.0000000000000000
40
1.0000000000000000
40
1.0000000000000000
10
7.5853628693565280
20
23.1404501501854121
30
0.0000000000000044
10
7.5838355978152983
20
23.1257419758377196
30
0.0000000000000044
10
7.5699547095437882
20
23.0972029559165613
30
0.0000000000000000
10
7.5261616659207604
20
23.0786921197672363
30
0.0000000000000022
10
7.4809463374835312
20
23.0933068433478006
30
0.0000000000000044
10
7.4563292787353674
20
23.1339683278714929
30
0.0000000000000066
10
7.4643394930201907
20
23.1808212079557734
30
-0.0000000000000022
10
7.5010578223710018
20
23.2109837735082642
30
0.0000000000000044
10
7.5485876687891817
20
23.2098024927713666
30
0.0000000000000000
10
7.5814258332239532
20
23.1796348318495262
30
0.0000000000000000
10
7.5866002660517591
20
23.1523667254894043
30
0.0000000000000022
10
7.5853628693565280
20
23.1404501501854121
30
0.0000000000000044
41
1.0000000000000000
41
1.0000000000000000
41
1.0000000000000000
41
1.0000000000000000
41
1.0000000000000000
41
1.0000000000000000
41
1.0000000000000000
41
1.0000000000000000
41
1.0000000000000000
41
1.0000000000000000
41
1.0000000000000000
41
1.0000000000000000
0
MTEXT
330
1 F
100
AcDbEntity
8
PartID
6
CONTINUOUS
62
30
370
0
100
AcDbMText
10
7.6831809237189059
20
14.9144132313073872
30
0.0000000000000000
40
0.7874015748031497
41
0.0
71
5
72
1
1
RH Seat Pan Outboard Support
0
MTEXT
330
1 F
100
AcDbEntity
8
PartIndex
6
CONTINUOUS
62
30
370
0
100
AcDbMText
10
7.6831809237189059
20
15.7411848848506946
30
0.0000000000000000
40
0.7874015748031497
41
0.0
71
5
72
1
1
22-1
0
LINE
330
1
100
AcDbEntity
8
Cut
6
CONTINUOUS
62
5
370
0
100
AcDbLine
10
11.0750876703525041
20
13.2795275585826715
30
-0.0000000000000014
11
16.6376019267945274
21
13.2795275585826715
31
-0.0000000000000014
0
LINE
330
1
100
AcDbEntity
8
Cut
6
CONTINUOUS
62
5
370
0
100
AcDbLine
10
16.6376019267945274
20
13.2795275585826715
30
-0.0000000000000014
11
16.6376019267945310
21
0.2500000000000129
31
0.0000000000000034
0
LINE
330
1
100
AcDbEntity
8
Cut
6
CONTINUOUS
62
5
370
0
100
AcDbLine
10
16.6376019267945310
20
0.2499999999999998
30
0.0000000000000034
11
11.0750876703527457
21
0.2499999999999998
31
0.0000000000000034
0
LINE
330
1
100
AcDbEntity
8
Cut
6
CONTINUOUS
62
5
370
0
100
AcDbLine
10
11.0750876703527457
20
0.2499999999999998
30
0.0000000000000034
11
11.0750876703525041
21
13.2795275585826715
31
-0.0000000000000014
0
CIRCLE
8
Cut
6
CONTINUOUS
62
5
370
0
100
AcDbEntity
100
AcDbCircle
10
15.1376001185422506
20
6.7647728820923234
30
0.0000000000000010
40
0.1249981920792758
0
MTEXT
330
1 F
100
AcDbEntity
8
PartID
6
CONTINUOUS
62
30
370
0
100
AcDbMText
10
13.8563447985735166
20
6.7647637792913420
30
0.0000000000000000
40
0.7874015748031497
41
0.0
71
5
72
1
1
Lower Horizontal Mounting Rail
0
MTEXT
330
1 F
100
AcDbEntity
8
PartIndex
6
CONTINUOUS
62
30
370
0
100
AcDbMText
10
13.8563447985735166
20
7.5915354328346494
30
0.0000000000000000
40
0.7874015748031497
41
0.0
71
5
72
1
1
32-1
0
LINE
330
1
100
AcDbEntity
8
Cut
6
CONTINUOUS
62
5
370
0
100
AcDbLine
10
11.0750876703525005
20
26.6840551171653466
30
-0.0000000000000014
11
16.6376019267945274
21
26.6840551171653466
31
-0.0000000000000014
0
LINE
330
1
100
AcDbEntity
8
Cut
6
CONTINUOUS
62
5
370
0
100
AcDbLine
10
16.6376019267945274
20
26.6840551171653466
30
-0.0000000000000014
11
16.6376019267945310
21
13.6545275585826857
31
0.0000000000000034
0
LINE
330
1
100
AcDbEntity
8
Cut
6
CONTINUOUS
62
5
370
0
100
AcDbLine
10
16.6376019267945310
20
13.6545275585826733
30
0.0000000000000034
11
11.0750876703527457
21
13.6545275585826733
31
0.0000000000000034
0
LINE
330
1
100
AcDbEntity
8
Cut
6
CONTINUOUS
62
5
370
0
100
AcDbLine
10
11.0750876703527457
20
13.6545275585826733
30
0.0000000000000034
11
11.0750876703525005
21
26.6840551171653466
31
-0.0000000000000014
0
CIRCLE
8
Cut
6
CONTINUOUS
62
5
370
0
100
AcDbEntity
100
AcDbCircle
10
15.1376001185422506
20
20.1693004406749949
30
0.0000000000000010
40
0.1249981920792758
0
MTEXT
330
1 F
100
AcDbEntity
8
PartID
6
CONTINUOUS
62
30
370
0
100
AcDbMText
10
13.8563447985735131
20
20.1692913378740144
30
0.0000000000000000
40
0.7874015748031497
41
0.0
71
5
72
1
1
Lower Horizontal Mounting Rail
0
MTEXT
330
1 F
100
AcDbEntity
8
PartIndex
6
CONTINUOUS
62
30
370
0
100
AcDbMText
10
13.8563447985735131
20
20.9960629914173218
30
0.0000000000000000
40
0.7874015748031497
41
0.0
71
5
72
1
1
32-2
0
LINE
330
1
100
AcDbEntity
8
Cut
6
CONTINUOUS
62
5
370
0
100
AcDbLine
10
17.0591293609683099
20
17.4777301272590151
30
-0.0000000000000527
11
20.5867112181871512
21
17.4678001460415580
31
-0.0000000000000560
0
ARC
8
Cut
6
CONTINUOUS
62
5
370
0
100
AcDbEntity
100
AcDbCircle
10
-18.9579784181938535
20
11.4497228652117293
30
0.0000000000000057
40
39.9999966574463670
100
AcDbArc
50
343.7755469473434005
51
8.6531183088696864
0
LINE
330
1
100
AcDbEntity
8
Cut
6
CONTINUOUS
62
5
370
0
100
AcDbLine
10
19.4489995182470139
20
0.2736869675660719
30
-0.0000000000000018
11
17.0127974071679944
21
1.0185086991572936
31
-0.0000000000000018
0
LINE
330
1
100
AcDbEntity
8
Cut
6
CONTINUOUS
62
5
370
0
100
AcDbLine
10
17.0127974071681543
20
1.0185086991572914
30
-0.0000000000000018
11
17.0591293609683099
21
17.4777301272590151
31
-0.0000000000000527
0
MTEXT
330
1 F
100
AcDbEntity
8
PartID
6
CONTINUOUS
62
30
370
0
100
AcDbMText
10
19.0265527088407360
20
8.8757085474125645
30
0.0000000000000000
40
0.7874015748031497
41
0.0
71
5
72
1
1
Seat Back Vertical Support
0
MTEXT
330
1 F
100
AcDbEntity
8
PartIndex
6
CONTINUOUS
62
30
370
0
100
AcDbMText
10
19.0265527088407360
20
9.7024802009558719
30
0.0000000000000000
40
0.7874015748031497
41
0.0
71
5
72
1
1
18-1
0
LINE
330
1
100
AcDbEntity
8
Cut
6
CONTINUOUS
62
5
370
0
100
AcDbLine
10
16.4291396541071109
20
28.3491001028767897
30
-0.0000000000000527
11
19.6801758273947982
21
29.7182955468808565
31
-0.0000000000000560
0
ARC
8
Cut
6
CONTINUOUS
62
5
370
0
100
AcDbEntity
100
AcDbCircle
10
-14.3694527838898995
20
8.7272849940436821
30
0.0000000000000057
40
39.9999966574463599
100
AcDbArc
50
6.7755469473438055
51
31.6531183088700807
0
LINE
330
1
100
AcDbEntity
8
Cut
6
CONTINUOUS
62
5
370
0
100
AcDbLine
10
25.3511819313683979
20
13.4464915388705855
30
-0.0000000000000018
11
22.8176210284211116
21
13.1802035576672818
31
-0.0000000000000018
0
LINE
330
1
100
AcDbEntity
8
Cut
6
CONTINUOUS
62
5
370
0
100
AcDbLine
10
22.8176210284212502
20
13.1802035576673386
30
-0.0000000000000018
11
16.4291396541071109
21
28.3491001028767897
31
-0.0000000000000527
0
MTEXT
330
1 F
100
AcDbEntity
8
PartID
6
CONTINUOUS
62
30
370
0
100
AcDbMText
10
20.8901607927377526
20
21.4492495522740683
30
0.0000000000000000
40
0.7874015748031497
41
0.0
71
5
72
1
1
Seat Back Vertical Support
0
MTEXT
330
1 F
100
AcDbEntity
8
PartIndex
6
CONTINUOUS
62
30
370
0
100
AcDbMText
10
20.8901607927377526
20
22.2760212058173757
30
0.0000000000000000
40
0.7874015748031497
41
0.0
71
5
72
1
1
18-2
0
LINE
330
1
100
AcDbEntity
8
Cut
6
CONTINUOUS
62
5
370
0
100
AcDbLine
10
28.5355580526687298
20
16.8521610557996873
30
-0.0000000000000018
11
30.4287317312230421
21
15.1475398190711719
31
-0.0000000000000018
0
LINE
330
1
100
AcDbEntity
8
Cut
6
CONTINUOUS
62
5
370
0
100
AcDbLine
10
30.4287317312229071
20
15.1475398190712429
30
-0.0000000000000018
11
23.4307731711555576
21
0.2500000000000238
31
-0.0000000000000527
0
LINE
330
1
100
AcDbEntity
8
Cut
6
CONTINUOUS
62
5
370
0
100
AcDbLine
10
23.4307731711555576
20
0.2500000000000238
30
-0.0000000000000527
11
20.2378948559502092
21
1.7498201319483535
31
-0.0000000000000560
0
ARC
8
Cut
6
CONTINUOUS
62
5
370
0
100
AcDbEntity
100
AcDbCircle
10
58.6209043687957490
20
-9.5082575606495983
30
0.0000000000000000
40
39.9999966574466512
100
AcDbArc
50
138.7755469473442247
51
163.6531183088705461
0
SPLINE
8
Cut
6
CONTINUOUS
62
5
370
0
100
AcDbEntity
100
AcDbSpline
70
1
71
3
72
16
73
12
74
0
40
0.0000000000000000
40
0.0000000000000000
40
0.0000000000000000
40
0.0000000000000000
40
0.1135047903499518
40
0.2270095806999011
40
0.3405143710498496
40
0.4540191613998018
40
0.5675239517497537
40
0.6810287420997081
40
0.7945335324496583
40
0.9080383227996093
40
1.0000000000000000
40
1.0000000000000000
40
1.0000000000000000
40
1.0000000000000000
10
23.2172355348103956
20
1.2450227559219471
30
-0.0000000000000508
10
23.2281842629285222
20
1.2350835253884520
30
-0.0000000000000508
10
23.2429646219797412
20
1.2069997987200902
30
-0.0000000000000509
10
23.2319530570648034
20
1.1607480186155290
30
-0.0000000000000509
10
23.1934042172971218
20
1.1329630762260361
30
-0.0000000000000511
10
23.1460607119065322
20
1.1371996317152109
30
-0.0000000000000514
10
23.1130456955745558
20
1.1713956051869623
30
-0.0000000000000512
10
23.1104785793778262
20
1.2188447989151459
30
-0.0000000000000511
10
23.1395720832938885
20
1.2564486518374323
30
-0.0000000000000508
10
23.1833264083129968
20
1.2650505034440818
30
-0.0000000000000508
10
23.2083648660231994
20
1.2530755289117381
30
-0.0000000000000508
10
23.2172355348103956
20
1.2450227559219471
30
-0.0000000000000508
41
1.0000000000000000
41
1.0000000000000000
41
1.0000000000000000
41
1.0000000000000000
41
1.0000000000000000
41
1.0000000000000000
41
1.0000000000000000
41
1.0000000000000000
41
1.0000000000000000
41
1.0000000000000000
41
1.0000000000000000
41
1.0000000000000000
0
SPLINE
8
Cut
6
CONTINUOUS
62
5
370
0
100
AcDbEntity
100
AcDbSpline
70
1
71
3
72
16
73
12
74
0
40
0.0000000000000000
40
0.0000000000000000
40
0.0000000000000000
40
0.0000000000000000
40
0.1135047903499518
40
0.2270095806999011
40
0.3405143710498496
40
0.4540191613998018
40
0.5675239517497537
40
0.6810287420997081
40
0.7945335324496583
40
0.9080383227996093
40
1.0000000000000000
40
1.0000000000000000
40
1.0000000000000000
40
1.0000000000000000
10
24.4068017734564862
20
3.7774199194001548
30
-0.0000000000000421
10
24.4177505015746199
20
3.7674806888666619
30
-0.0000000000000421
10
24.4325308606258176
20
3.7393969621982959
30
-0.0000000000000422
10
24.4215192957108940
20
3.6931451820937347
30
-0.0000000000000422
10
24.3829704559432052
20
3.6653602397042437
30
-0.0000000000000425
10
24.3356269505526228
20
3.6695967951934230
30
-0.0000000000000426
10
24.3026119342206428
20
3.7037927686651635
30
-0.0000000000000426
10
24.3000448180239133
20
3.7512419623933555
30
-0.0000000000000423
10
24.3291383219399791
20
3.7888458153156357
30
-0.0000000000000421
10
24.3728926469590768
20
3.7974476669222939
30
-0.0000000000000421
10
24.3979311046692935
20
3.7854726923899435
30
-0.0000000000000421
10
24.4068017734564862
20
3.7774199194001548
30
-0.0000000000000421
41
1.0000000000000000
41
1.0000000000000000
41
1.0000000000000000
41
1.0000000000000000
41
1.0000000000000000
41
1.0000000000000000
41
1.0000000000000000
41
1.0000000000000000
41
1.0000000000000000
41
1.0000000000000000
41
1.0000000000000000
41
1.0000000000000000
0
SPLINE
8
Cut
6
CONTINUOUS
62
5
370
0
100
AcDbEntity
100
AcDbSpline
70
1
71
3
72
16
73
12
74
0
40
0.0000000000000000
40
0.0000000000000000
40
0.0000000000000000
40
0.0000000000000000
40
0.1135047903499507
40
0.2270095806999049
40
0.3405143710498565
40
0.4540191613998077
40
0.5675239517497596
40
0.6810287420997124
40
0.7945335324496650
40
0.9080383227996196
40
1.0000000000000000
40
1.0000000000000000
40
1.0000000000000000
40
1.0000000000000000
10
24.2813554176060755
20
10.1351081470160977
30
-0.0000000000000270
10
24.2923041457242057
20
10.1251689164826004
30
-0.0000000000000270
10
24.3070845047754140
20
10.0970851898142246
30
-0.0000000000000270
10
24.2960729398604833
20
10.0508334097096732
30
-0.0000000000000272
10
24.2575241000927946
20
10.0230484673201889
30
-0.0000000000000276
10
24.2101805947022122
20
10.0272850228093606
30
-0.0000000000000273
10
24.1771655783702322
20
10.0614809962811087
30
-0.0000000000000276
10
24.1745984621735062
20
10.1089301900092945
30
-0.0000000000000273
10
24.2036919660895720
20
10.1465340429315862
30
-0.0000000000000272
10
24.2474462911086768
20
10.1551358945382280
30
-0.0000000000000270
10
24.2724847488188828
20
10.1431609200058901
30
-0.0000000000000270
10
24.2813554176060755
20
10.1351081470160977
30
-0.0000000000000270
41
1.0000000000000000
41
1.0000000000000000
41
1.0000000000000000
41
1.0000000000000000
41
1.0000000000000000
41
1.0000000000000000
41
1.0000000000000000
41
1.0000000000000000
41
1.0000000000000000
41
1.0000000000000000
41
1.0000000000000000
41
1.0000000000000000
0
SPLINE
8
Cut
6
CONTINUOUS
62
5
370
0
100
AcDbEntity
100
AcDbSpline
70
1
71
3
72
16
73
12
74
0
40
0.0000000000000000
40
0.0000000000000000
40
0.0000000000000000
40
0.0000000000000000
40
0.1135047903499501
40
0.2270095806999032
40
0.3405143710498558
40
0.4540191613998092
40
0.5675239517497606
40
0.6810287420997130
40
0.7945335324496650
40
0.9080383227996173
40
1.0000000000000000
40
1.0000000000000000
40
1.0000000000000000
40
1.0000000000000000
10
28.6338802901504934
20
14.7324564036990857
30
-0.0000000000000067
10
28.6448290182686200
20
14.7225171731655937
30
-0.0000000000000067
10
28.6596093773198248
20
14.6944334464972197
30
-0.0000000000000070
10
28.6485978124048977
20
14.6481816663926665
30
-0.0000000000000067
10
28.6100489726372089
20
14.6203967240031769
30
-0.0000000000000070
10
28.5627054672466230
20
14.6246332794923521
30
-0.0000000000000071
10
28.5296904509146430
20
14.6588292529640967
30
-0.0000000000000070
10
28.5271233347179241
20
14.7062784466922789
30
-0.0000000000000067
10
28.5562168386339827
20
14.7438822996145724
30
-0.0000000000000068
10
28.5999711636530876
20
14.7524841512212248
30
-0.0000000000000068
10
28.6250096213632972
20
14.7405091766888763
30
-0.0000000000000067
10
28.6338802901504934
20
14.7324564036990857
30
-0.0000000000000067
41
1.0000000000000000
41
1.0000000000000000
41
1.0000000000000000
41
1.0000000000000000
41
1.0000000000000000
41
1.0000000000000000
41
1.0000000000000000
41
1.0000000000000000
41
1.0000000000000000
41
1.0000000000000000
41
1.0000000000000000
41
1.0000000000000000
0
MTEXT
330
1 F
100
AcDbEntity
8
PartID
6
CONTINUOUS
62
30
370
0
100
AcDbMText
10
25.3333132935866239
20
8.5510805278998561
30
0.0000000000000000
40
0.7874015748031497
41
0.0
71
5
72
1
1
Seat Back Vertical Support
0
MTEXT
330
1 F
100
AcDbEntity
8
PartIndex
6
CONTINUOUS
62
30
370
0
100
AcDbMText
10
25.3333132935866239
20
9.3778521814431635
30
0.0000000000000000
40
0.7874015748031497
41
0.0
71
5
72
1
1
19-1
0
LINE
330
1
100
AcDbEntity
8
Cut
6
CONTINUOUS
62
5
370
0
100
AcDbLine
10
20.8064473113314641
20
28.6897007981612440
30
-0.0000000000000018
11
23.1337194059205551
21
29.7258690931903899
31
-0.0000000000000018
0
LINE
330
1
100
AcDbEntity
8
Cut
6
CONTINUOUS
62
5
370
0
100
AcDbLine
10
23.1337194059204379
20
29.7258690931902940
30
-0.0000000000000018
11
33.8969730645773453
21
17.2735405017725014
31
-0.0000000000000527
0
LINE
330
1
100
AcDbEntity
8
Cut
6
CONTINUOUS
62
5
370
0
100
AcDbLine
10
33.8969730645773453
20
17.2735405017725014
30
-0.0000000000000527
11
31.2281585880788803
21
14.9667328257972692
31
-0.0000000000000560
0
ARC
8
Cut
6
CONTINUOUS
62
5
370
0
100
AcDbEntity
100
AcDbCircle
10
57.1247007663405739
20
45.4522840887361781
30
0.0000000000000000
40
39.9999966574466441
100
AcDbArc
50
204.7755469473438268
51
229.6531183088702335
0
SPLINE
8
Cut
6
CONTINUOUS
62
5
370
0
100
AcDbEntity
100
AcDbSpline
70
1
71
3
72
16
73
12
74
0
40
0.0000000000000000
40
0.0000000000000000
40
0.0000000000000000
40
0.0000000000000000
40
0.1135047903499518
40
0.2270095806999011
40
0.3405143710498496
40
0.4540191613998018
40
0.5675239517497537
40
0.6810287420997081
40
0.7945335324496583
40
0.9080383227996093
40
1.0000000000000000
40
1.0000000000000000
40
1.0000000000000000
40
1.0000000000000000
10
32.9011209642764797
20
17.4831763795813622
30
-0.0000000000000508
10
32.9146541521035374
20
17.4891358911586927
30
-0.0000000000000508
10
32.9463216266590422
20
17.4912157403221116
30
-0.0000000000000509
10
32.9840959233329301
20
17.4623438814365244
30
-0.0000000000000509
10
32.9937995055621442
20
17.4158266097738093
30
-0.0000000000000511
10
32.9706728810849441
20
17.3742993278332278
30
-0.0000000000000514
10
32.9260048879362017
20
17.3580473650857598
30
-0.0000000000000512
10
32.8816137523127736
20
17.3750015135186544
30
-0.0000000000000511
10
32.8590943174038870
20
17.4168746167724109
30
-0.0000000000000508
10
32.8690326222196347
20
17.4603448698925554
30
-0.0000000000000508
10
32.8901563640459003
20
17.4783479782578901
30
-0.0000000000000508
10
32.9011209642764797
20
17.4831763795813622
30
-0.0000000000000508
41
1.0000000000000000
41
1.0000000000000000
41
1.0000000000000000
41
1.0000000000000000
41
1.0000000000000000
41
1.0000000000000000
41
1.0000000000000000
41
1.0000000000000000
41
1.0000000000000000
41
1.0000000000000000
41
1.0000000000000000
41
1.0000000000000000
0
SPLINE
8
Cut
6
CONTINUOUS
62
5
370
0
100
AcDbEntity
100
AcDbSpline
70
1
71
3
72
16
73
12
74
0
40
0.0000000000000000
40
0.0000000000000000
40
0.0000000000000000
40
0.0000000000000000
40
0.1135047903499518
40
0.2270095806999011
40
0.3405143710498496
40
0.4540191613998018
40
0.5675239517497537
40
0.6810287420997081
40
0.7945335324496583
40
0.9080383227996093
40
1.0000000000000000
40
1.0000000000000000
40
1.0000000000000000
40
1.0000000000000000
10
31.0715012172571790
20
19.5999179346693033
30
-0.0000000000000421
10
31.0850344050842331
20
19.6058774462466339
30
-0.0000000000000421
10
31.1167018796397379
20
19.6079572954100350
30
-0.0000000000000422
10
31.1544761763136329
20
19.5790854365244584
30
-0.0000000000000422
10
31.1641797585428364
20
19.5325681648617362
30
-0.0000000000000425
10
31.1410531340656398
20
19.4910408829211619
30
-0.0000000000000426
10
31.0963851409169010
20
19.4747889201736939
30
-0.0000000000000426
10
31.0519940052934622
20
19.4917430686065885
30
-0.0000000000000423
10
31.0294745703845862
20
19.5336161718603414
30
-0.0000000000000421
10
31.0394128752003304
20
19.5770864249804895
30
-0.0000000000000421
10
31.0605366170265924
20
19.5950895333458242
30
-0.0000000000000421
10
31.0715012172571790
20
19.5999179346693033
30
-0.0000000000000421
41
1.0000000000000000
41
1.0000000000000000
41
1.0000000000000000
41
1.0000000000000000
41
1.0000000000000000
41
1.0000000000000000
41
1.0000000000000000
41
1.0000000000000000
41
1.0000000000000000
41
1.0000000000000000
41
1.0000000000000000
41
1.0000000000000000
0
SPLINE
8
Cut
6
CONTINUOUS
62
5
370
0
100
AcDbEntity
100
AcDbSpline
70
1
71
3
72
16
73
12
74
0
40
0.0000000000000000
40
0.0000000000000000
40
0.0000000000000000
40
0.0000000000000000
40
0.1135047903499507
40
0.2270095806999049
40
0.3405143710498565
40
0.4540191613998077
40
0.5675239517497596
40
0.6810287420997124
40
0.7945335324496650
40
0.9080383227996196
40
1.0000000000000000
40
1.0000000000000000
40
1.0000000000000000
40
1.0000000000000000
10
25.2124403861461097
20
22.0712217535273894
30
-0.0000000000000270
10
25.2259735739731710
20
22.0771812651047270
30
-0.0000000000000270
10
25.2576410485286864
20
22.0792611142681281
30
-0.0000000000000270
10
25.2954153452025707
20
22.0503892553825480
30
-0.0000000000000272
10
25.3051189274317743
20
22.0038719837198293
30
-0.0000000000000276
10
25.2819923029545812
20
21.9623447017792550
30
-0.0000000000000273
10
25.2373243098058317
20
21.9460927390317835
30
-0.0000000000000276
10
25.1929331741824072
20
21.9630468874646816
30
-0.0000000000000273
10
25.1704137392735170
20
22.0049199907184416
30
-0.0000000000000272
10
25.1803520440892719
20
22.0483902438385861
30
-0.0000000000000270
10
25.2014757859155232
20
22.0663933522039137
30
-0.0000000000000270
10
25.2124403861461097
20
22.0712217535273894
30
-0.0000000000000270
41
1.0000000000000000
41
1.0000000000000000
41
1.0000000000000000
41
1.0000000000000000
41
1.0000000000000000
41
1.0000000000000000
41
1.0000000000000000
41
1.0000000000000000
41
1.0000000000000000
41
1.0000000000000000
41
1.0000000000000000
41
1.0000000000000000
0
SPLINE
8
Cut
6
CONTINUOUS
62
5
370
0
100
AcDbEntity
100
AcDbSpline
70
1
71
3
72
16
73
12
74
0
40
0.0000000000000000
40
0.0000000000000000
40
0.0000000000000000
40
0.0000000000000000
40
0.1135047903499501
40
0.2270095806999032
40
0.3405143710498558
40
0.4540191613998092
40
0.5675239517497606
40
0.6810287420997130
40
0.7945335324496650
40
0.9080383227996173
40
1.0000000000000000
40
1.0000000000000000
40
1.0000000000000000
40
1.0000000000000000
10
22.7828851246148822
20
27.9173610770904048
30
-0.0000000000000067
10
22.7964183124419399
20
27.9233205886677354
30
-0.0000000000000067
10
22.8280857869974518
20
27.9254004378311400
30
-0.0000000000000070
10
22.8658600836713433
20
27.8965285789455670
30
-0.0000000000000067
10
22.8755636659005432
20
27.8500113072828377
30
-0.0000000000000070
10
22.8524370414233502
20
27.8084840253422705
30
-0.0000000000000071
10
22.8077690482746078
20
27.7922320625948025
30
-0.0000000000000070
10
22.7633779126511833
20
27.8091862110276971
30
-0.0000000000000067
10
22.7408584777422895
20
27.8510593142814535
30
-0.0000000000000068
10
22.7507967825580408
20
27.8945295674015981
30
-0.0000000000000068
10
22.7719205243842993
20
27.9125326757669328
30
-0.0000000000000067
10
22.7828851246148822
20
27.9173610770904048
30
-0.0000000000000067
41
1.0000000000000000
41
1.0000000000000000
41
1.0000000000000000
41
1.0000000000000000
41
1.0000000000000000
41
1.0000000000000000
41
1.0000000000000000
41
1.0000000000000000
41
1.0000000000000000
41
1.0000000000000000
41
1.0000000000000000
41
1.0000000000000000
0
MTEXT
330
1 F
100
AcDbEntity
8
PartID
6
CONTINUOUS
62
30
370
0
100
AcDbMText
10
27.3517101879544029
20
22.3463009594938278
30
0.0000000000000000
40
0.7874015748031497
41
0.0
71
5
72
1
1
Seat Back Vertical Support
0
MTEXT
330
1 F
100
AcDbEntity
8
PartIndex
6
CONTINUOUS
62
30
370
0
100
AcDbMText
10
27.3517101879544029
20
23.1730726130371352
30
0.0000000000000000
40
0.7874015748031497
41
0.0
71
5
72
1
1
19-2
0
SPLINE
8
Cut
6
CONTINUOUS
62
5
370
0
100
AcDbEntity
100
AcDbSpline
70
0
71
3
72
17
73
13
74
0
40
0.0000000000000000
40
0.0000000000000000
40
0.0000000000000000
40
0.0000000000000000
40
0.0902931241516357
40
0.1913716659125650
40
0.2924502076734943
40
0.3935287494344237
40
0.4946072911953532
40
0.5956858329562825
40
0.6967643747172119
40
0.7978429164781411
40
0.8989214582390708
40
1.0000000000000000
40
1.0000000000000000
40
1.0000000000000000
40
1.0000000000000000
10
30.7468977489260133
20
4.4651490716215925
30
-0.0000000000000010
10
30.7992850488705869
20
4.4377223340988703
30
-0.0000000000000011
10
30.9103172559987556
20
4.3795927644379971
30
-0.0000000000000010
10
31.0944487194955990
20
4.3238129463031925
30
-0.0000000000000010
10
31.2912663855039916
20
4.2949241181644453
30
-0.0000000000000010
10
31.4904005407150436
20
4.2980458271092692
30
-0.0000000000000011
10
31.6864856783626685
20
4.3324668545759950
30
-0.0000000000000007
10
31.8746399322209228
20
4.3975163516250468
30
-0.0000000000000012
10
32.0502814046762694
20
4.4914101953351642
30
-0.0000000000000014
10
32.2083342483293507
20
4.6121818421584155
30
-0.0000000000000011
10
32.3472995897277329
20
4.7553584413726604
30
-0.0000000000000015
10
32.4187195323469481
20
4.8669066980256401
30
-0.0000000000000014
10
32.4544295036565558
20
4.9226808263521313
30
-0.0000000000000012
41
1.0000000000000000
41
1.0000000000000000
41
1.0000000000000000
41
1.0000000000000000
41
1.0000000000000000
41
1.0000000000000000
41
1.0000000000000000
41
1.0000000000000000
41
1.0000000000000000
41
1.0000000000000000
41
1.0000000000000000
41
1.0000000000000000
41
1.0000000000000000
0
LINE
330
1
100
AcDbEntity
8
Cut
6
CONTINUOUS
62
5
370
0
100
AcDbLine
10
32.4544295036566837
20
4.9226808263520585
30
-0.0000000000000012
11
33.6571854089323352
21
7.0059151633929426
31
-0.0000000000000020
0
SPLINE
8
Cut
6
CONTINUOUS
62
5
370
0
100
AcDbEntity
100
AcDbSpline
70
0
71
3
72
17
73
13
74
0
40
0.0000000000000000
40
0.0000000000000000
40
0.0000000000000000
40
0.0000000000000000
40
0.0902931241516401
40
0.1913716659125690
40
0.2924502076734975
40
0.3935287494344264
40
0.4946072911953554
40
0.5956858329562843
40
0.6967643747172132
40
0.7978429164781422
40
0.8989214582390710
40
1.0000000000000000
40
1.0000000000000000
40
1.0000000000000000
40
1.0000000000000000
10
33.6571854089322002
20
7.0059151633930128
30
-0.0000000000000020
10
33.6846121464549242
20
7.0583024633375890
30
-0.0000000000000022
10
33.7427417161157948
20
7.1693346704657657
30
-0.0000000000000020
10
33.7985215342506038
20
7.3534661339626091
30
-0.0000000000000023
10
33.8274103623893510
20
7.5502837999710000
30
-0.0000000000000022
10
33.8242886534445262
20
7.7494179551820537
30
-0.0000000000000023
10
33.7898676259777986
20
7.9455030928296777
30
-0.0000000000000025
10
33.7248181289287459
20
8.1336573466879312
30
-0.0000000000000026
10
33.6309242852186330
20
8.3092988191432795
30
-0.0000000000000025
10
33.5101526383953754
20
8.4673516627963625
30
-0.0000000000000025
10
33.3669760391811323
20
8.6063170041947430
30
-0.0000000000000025
10
33.2554277825281517
20
8.6777369468139600
30
-0.0000000000000025
10
33.1996536542016614
20
8.7134469181235676
30
-0.0000000000000026
41
1.0000000000000000
41
1.0000000000000000
41
1.0000000000000000
41
1.0000000000000000
41
1.0000000000000000
41
1.0000000000000000
41
1.0000000000000000
41
1.0000000000000000
41
1.0000000000000000
41
1.0000000000000000
41
1.0000000000000000
41
1.0000000000000000
41
1.0000000000000000
0
LINE
330
1
100
AcDbEntity
8
Cut
6
CONTINUOUS
62
5
370
0
100
AcDbLine
10
33.1996536542016543
20
8.7134469181235534
30
-0.0000000000000026
11
30.6416396416453694
21
10.1903169968637712
31
-0.0000000000000026
0
SPLINE
8
Cut
6
CONTINUOUS
62
5
370
0
100
AcDbEntity
100
AcDbSpline
70
0
71
3
72
16
73
12
74
0
40
0.0000000000000000
40
0.0000000000000000
40
0.0000000000000000
40
0.0000000000000000
40
0.0334216202141226
40
0.1542439176873572
40
0.2750662151605922
40
0.3958885126338265
40
0.5167108101070608
40
0.6375331075802961
40
0.7583554050535306
40
0.8791777025267651
40
1.0000000000000000
40
1.0000000000000000
40
1.0000000000000000
40
1.0000000000000000
10
30.6416396416453871
20
10.1903169968637748
30
-0.0000000000000026
10
30.6285241580504284
20
10.1981783896934441
30
-0.0000000000000025
10
30.5679949688881258
20
10.2344594562832274
30
-0.0000000000000026
10
30.4690592832607692
20
10.3137410758481245
30
-0.0000000000000025
10
30.3602345260449660
20
10.4400391079006525
30
-0.0000000000000026
10
30.2773169738169834
20
10.5848453862565020
30
-0.0000000000000029
10
30.2232077906895391
20
10.7426070809854277
30
-0.0000000000000026
10
30.1997057487319474
20
10.9078479468165241
30
-0.0000000000000027
10
30.2083098258175156
20
11.0742268574795162
30
-0.0000000000000026
10
30.2462358907612767
20
11.2372050227518248
30
-0.0000000000000030
10
30.2963235724764317
20
11.3361278243673809
30
-0.0000000000000030
10
30.3213674133340092
20
11.3855892251751598
30
-0.0000000000000029
41
1.0000000000000000
41
1.0000000000000000
41
1.0000000000000000
41
1.0000000000000000
41
1.0000000000000000
41
1.0000000000000000
41
1.0000000000000000
41
1.0000000000000000
41
1.0000000000000000
41
1.0000000000000000
41
1.0000000000000000
41
1.0000000000000000
0
LINE
330
1
100
AcDbEntity
8
Cut
6
CONTINUOUS
62
5
370
0
100
AcDbLine
10
30.3213674133340199
20
11.3855892251751527
30
-0.0000000000000029
11
32.9350485156962023
21
15.9126176892490498
31
-0.0000000000000046
0
LINE
330
1
100
AcDbEntity
8
Cut
6
CONTINUOUS
62
5
370
0
100
AcDbLine
10
32.9350485156962023
20
15.9126176892490498
30
-0.0000000000000046
11
33.9715513611705191
21
15.3141924923986394
31
-0.0000000000000046
0
LINE
330
1
100
AcDbEntity
8
Cut
6
CONTINUOUS
62
5
370
0
100
AcDbLine
10
33.9715513611705049
20
15.3141924923986412
30
-0.0000000000000046
11
32.3061970304618384
21
12.4297141790063836
31
-0.0000000000000036
0
LINE
330
1
100
AcDbEntity
8
Cut
6
CONTINUOUS
62
5
370
0
100
AcDbLine
10
32.3061970304618384
20
12.4297141790063836
30
-0.0000000000000036
11
37.6694173460247157
21
9.3332574860928581
31
-0.0000000000000034
0
LINE
330
1
100
AcDbEntity
8
Cut
6
CONTINUOUS
62
5
370
0
100
AcDbLine
10
37.6694173460246446
20
9.3332574860928972
30
-0.0000000000000034
11
32.4450078974419043
21
0.2843148816047557
31
0.0000000000000001
0
LINE
330
1
100
AcDbEntity
8
Cut
6
CONTINUOUS
62
5
370
0
100
AcDbLine
10
32.4450078974419185
20
0.2843148816047847
30
0.0000000000000001
11
27.0817875818790625
21
3.3807715745182954
31
0.0000000000000000
0
LINE
330
1
100
AcDbEntity
8
Cut
6
CONTINUOUS
62
5
370
0
100
AcDbLine
10
27.0817875818790625
20
3.3807715745182954
30
0.0000000000000000
11
25.4164332511703854
21
0.4962932611260342
31
0.0000000000000011
0
LINE
330
1
100
AcDbEntity
8
Cut
6
CONTINUOUS
62
5
370
0
100
AcDbLine
10
25.4164332511703854
20
0.4962932611260342
30
0.0000000000000011
11
24.3799304056961255
21
1.0947184579764162
31
0.0000000000000011
0
LINE
330
1
100
AcDbEntity
8
Cut
6
CONTINUOUS
62
5
370
0
100
AcDbLine
10
24.3799304056961326
20
1.0947184579764133
30
0.0000000000000011
11
26.9936115080583754
21
5.6217469220504102
31
-0.0000000000000007
0
SPLINE
8
Cut
6
CONTINUOUS
62
5
370
0
100
AcDbEntity
100
AcDbSpline
70
0
71
3
72
16
73
12
74
0
40
0.0000000000000000
40
0.0000000000000000
40
0.0000000000000000
40
0.0000000000000000
40
0.0334216202141226
40
0.1542439176873573
40
0.2750662151605920
40
0.3958885126338267
40
0.5167108101070614
40
0.6375331075802961
40
0.7583554050535305
40
0.8791777025267657
40
1.0000000000000000
40
1.0000000000000000
40
1.0000000000000000
40
1.0000000000000000
10
26.9936115080583932
20
5.6217469220503995
30
-0.0000000000000007
10
27.0014729008880607
20
5.6348624056453609
30
-0.0000000000000007
10
27.0377539674778475
20
5.6953915948076625
30
-0.0000000000000004
10
27.1170355870427464
20
5.7943272804350148
30
-0.0000000000000010
10
27.2433336190952744
20
5.9031520376508251
30
-0.0000000000000010
10
27.3881398974511221
20
5.9860695898788041
30
-0.0000000000000011
10
27.5459015921800479
20
6.0401787730062519
30
-0.0000000000000008
10
27.7111424580111461
20
6.0636808149638384
30
-0.0000000000000012
10
27.8775213686741274
20
6.0550767378782746
30
-0.0000000000000004
10
28.0404995339464520
20
6.0171506729345108
30
-0.0000000000000010
10
28.1394223355620028
20
5.9670629912193558
30
-0.0000000000000011
10
28.1888837363697817
20
5.9420191503617792
30
-0.0000000000000010
41
1.0000000000000000
41
1.0000000000000000
41
1.0000000000000000
41
1.0000000000000000
41
1.0000000000000000
41
1.0000000000000000
41
1.0000000000000000
41
1.0000000000000000
41
1.0000000000000000
41
1.0000000000000000
41
1.0000000000000000
41
1.0000000000000000
0
LINE
330
1
100
AcDbEntity
8
Cut
6
CONTINUOUS
62
5
370
0
100
AcDbLine
10
28.1888837363697817
20
5.9420191503617792
30
-0.0000000000000010
11
30.7468977489259991
21
4.4651490716215978
31
-0.0000000000000010
0
SPLINE
8
Cut
6
CONTINUOUS
62
5
370
0
100
AcDbEntity
100
AcDbSpline
70
1
71
3
72
16
73
12
74
0
40
0.0000000000000000
40
0.0000000000000000
40
0.0000000000000000
40
0.0000000000000000
40
0.1135047903499512
40
0.2270095806999024
40
0.3405143710498529
40
0.4540191613998070
40
0.5675239517497586
40
0.6810287420997068
40
0.7945335324496590
40
0.9080383227996104
40
1.0000000000000000
40
1.0000000000000000
40
1.0000000000000000
40
1.0000000000000000
10
32.2081051429778356
20
13.7598140460737728
30
-0.0000000000000040
10
32.1953291886123552
20
13.7672597119979070
30
-0.0000000000000040
10
32.1750328807723562
20
13.7916567324170174
30
-0.0000000000000036
10
32.1761875307693472
20
13.8391872332359611
30
-0.0000000000000038
10
32.2081171715477126
20
13.8743797624259333
30
-0.0000000000000041
10
32.2553069371708361
20
13.8800790540938177
30
-0.0000000000000038
10
32.2947102388478200
20
13.8534945525556275
30
-0.0000000000000040
10
32.3070864994924207
20
13.8076159710226385
30
-0.0000000000000040
10
32.2864470390823186
20
13.7647849729173508
30
-0.0000000000000037
10
32.2454372765548527
20
13.7472740567111256
30
-0.0000000000000040
10
32.2184562320170187
20
13.7537815612407837
30
-0.0000000000000040
10
32.2081051429778356
20
13.7598140460737728
30
-0.0000000000000040
41
1.0000000000000000
41
1.0000000000000000
41
1.0000000000000000
41
1.0000000000000000
41
1.0000000000000000
41
1.0000000000000000
41
1.0000000000000000
41
1.0000000000000000
41
1.0000000000000000
41
1.0000000000000000
41
1.0000000000000000
41
1.0000000000000000
0
SPLINE
8
Cut
6
CONTINUOUS
62
5
370
0
100
AcDbEntity
100
AcDbSpline
70
1
71
3
72
16
73
12
74
0
40
0.0000000000000000
40
0.0000000000000000
40
0.0000000000000000
40
0.0000000000000000
40
0.1135047903499512
40
0.2270095806999024
40
0.3405143710498529
40
0.4540191613998070
40
0.5675239517497586
40
0.6810287420997068
40
0.7945335324496590
40
0.9080383227996104
40
1.0000000000000000
40
1.0000000000000000
40
1.0000000000000000
40
1.0000000000000000
10
32.8978435666548776
20
13.9544760398147805
30
-0.0000000000000042
10
32.9106195210203580
20
13.9470303738906427
30
-0.0000000000000042
10
32.9309158288603641
20
13.9226333534715465
30
-0.0000000000000037
10
32.9297611788633660
20
13.8751028526525975
30
-0.0000000000000040
10
32.8978315380850006
20
13.8399103234626217
30
-0.0000000000000041
10
32.8506417724618842
20
13.8342110317947391
30
-0.0000000000000037
10
32.8112384707849003
20
13.8607955333329258
30
-0.0000000000000041
10
32.7988622101402996
20
13.9066741148659183
30
-0.0000000000000041
10
32.8195016705504017
20
13.9495051129712042
30
-0.0000000000000040
10
32.8605114330778605
20
13.9670160291774312
30
-0.0000000000000041
10
32.8874924776157016
20
13.9605085246477678
30
-0.0000000000000042
10
32.8978435666548776
20
13.9544760398147805
30
-0.0000000000000042
41
1.0000000000000000
41
1.0000000000000000
41
1.0000000000000000
41
1.0000000000000000
41
1.0000000000000000
41
1.0000000000000000
41
1.0000000000000000
41
1.0000000000000000
41
1.0000000000000000
41
1.0000000000000000
41
1.0000000000000000
41
1.0000000000000000
0
SPLINE
8
Cut
6
CONTINUOUS
62
5
370
0
100
AcDbEntity
100
AcDbSpline
70
1
71
3
72
16
73
12
74
0
40
0.0000000000000000
40
0.0000000000000000
40
0.0000000000000000
40
0.0000000000000000
40
0.1135047903499521
40
0.2270095806999038
40
0.3405143710498554
40
0.4540191613998078
40
0.5675239517497574
40
0.6810287420997094
40
0.7945335324496622
40
0.9080383227996153
40
1.0000000000000000
40
1.0000000000000000
40
1.0000000000000000
40
1.0000000000000000
10
25.8183413636864678
20
2.6924185319777885
30
0.0000000000000003
10
25.8055654093209874
20
2.6998641979019249
30
0.0000000000000003
10
25.7852691014809814
20
2.7242612183210286
30
-0.0000000000000001
10
25.7864237514779759
20
2.7717917191399737
30
0.0000000000000005
10
25.8183533922563413
20
2.8069842483299450
30
0.0000000000000001
10
25.8655431578794648
20
2.8126835399978285
30
0.0000000000000004
10
25.9049464595564487
20
2.7860990384596418
30
0.0000000000000000
10
25.9173227202010494
20
2.7402204569266497
30
0.0000000000000000
10
25.8966832597909438
20
2.6973894588213629
30
0.0000000000000005
10
25.8556734972634850
20
2.6798785426151404
30
0.0000000000000001
10
25.8286924527256474
20
2.6863860471448024
30
0.0000000000000004
10
25.8183413636864678
20
2.6924185319777885
30
0.0000000000000003
41
1.0000000000000000
41
1.0000000000000000
41
1.0000000000000000
41
1.0000000000000000
41
1.0000000000000000
41
1.0000000000000000
41
1.0000000000000000
41
1.0000000000000000
41
1.0000000000000000
41
1.0000000000000000
41
1.0000000000000000
41
1.0000000000000000
0
SPLINE
8
Cut
6
CONTINUOUS
62
5
370
0
100
AcDbEntity
100
AcDbSpline
70
1
71
3
72
16
73
12
74
0
40
0.0000000000000000
40
0.0000000000000000
40
0.0000000000000000
40
0.0000000000000000
40
0.1135047903499523
40
0.2270095806999042
40
0.3405143710498560
40
0.4540191613998086
40
0.5675239517497612
40
0.6810287420997115
40
0.7945335324496635
40
0.9080383227996149
40
0.9999999999999999
40
0.9999999999999999
40
0.9999999999999999
40
0.9999999999999999
10
26.1196283437939982
20
2.2142628891828182
30
0.0000000000000003
10
26.1324042981594857
20
2.2068172232586813
30
0.0000000000000001
10
26.1527006059994918
20
2.1824202028395776
30
0.0000000000000004
10
26.1515459560024901
20
2.1348897020206339
30
0.0000000000000004
10
26.1196163152241319
20
2.0996971728306599
30
0.0000000000000004
10
26.0724265496010013
20
2.0939978811627795
30
0.0000000000000010
10
26.0330232479240209
20
2.1205823827009649
30
0.0000000000000004
10
26.0206469872794273
20
2.1664609642339561
30
0.0000000000000003
10
26.0412864476895258
20
2.2092919623392433
30
0.0000000000000003
10
26.0822962102169882
20
2.2268028785454663
30
0.0000000000000005
10
26.1092772547548257
20
2.2202953740158051
30
0.0000000000000003
10
26.1196283437939982
20
2.2142628891828182
30
0.0000000000000003
41
1.0000000000000000
41
1.0000000000000000
41
1.0000000000000000
41
1.0000000000000000
41
1.0000000000000000
41
1.0000000000000000
41
1.0000000000000000
41
1.0000000000000000
41
1.0000000000000000
41
1.0000000000000000
41
1.0000000000000000
41
1.0000000000000000
0
SPLINE
8
Cut
6
CONTINUOUS
62
5
370
0
100
AcDbEntity
100
AcDbSpline
70
1
71
3
72
16
73
12
74
0
40
0.0000000000000000
40
0.0000000000000000
40
0.0000000000000000
40
0.0000000000000000
40
0.1135047903499528
40
0.2270095806999049
40
0.3405143710498578
40
0.4540191613998091
40
0.5675239517497612
40
0.6810287420997144
40
0.7945335324496656
40
0.9080383227996180
40
0.9999999999999999
40
0.9999999999999999
40
0.9999999999999999
40
0.9999999999999999
10
35.0424145389447546
20
9.9117640764891810
30
-0.0000000000000031
10
35.0296385845792742
20
9.9192097424133188
30
-0.0000000000000031
10
35.0093422767392681
20
9.9436067628324221
30
-0.0000000000000031
10
35.0104969267362662
20
9.9911372636513729
30
-0.0000000000000027
10
35.0424265675146316
20
10.0263297928413380
30
-0.0000000000000036
10
35.0896163331377551
20
10.0320290845092170
30
-0.0000000000000034
10
35.1290196348147390
20
10.0054445829710339
30
-0.0000000000000031
10
35.1413958954593326
20
9.9595660014380432
30
-0.0000000000000033
10
35.1207564350492305
20
9.9167350033327519
30
-0.0000000000000033
10
35.0797466725217717
20
9.8992240871265373
30
-0.0000000000000030
10
35.0527656279839306
20
9.9057315916561972
30
-0.0000000000000031
10
35.0424145389447546
20
9.9117640764891810
30
-0.0000000000000031
41
1.0000000000000000
41
1.0000000000000000
41
1.0000000000000000
41
1.0000000000000000
41
1.0000000000000000
41
1.0000000000000000
41
1.0000000000000000
41
1.0000000000000000
41
1.0000000000000000
41
1.0000000000000000
41
1.0000000000000000
41
1.0000000000000000
0
SPLINE
8
Cut
6
CONTINUOUS
62
5
370
0
100
AcDbEntity
100
AcDbSpline
70
1
71
3
72
16
73
12
74
0
40
0.0000000000000000
40
0.0000000000000000
40
0.0000000000000000
40
0.0000000000000000
40
0.1135047903499509
40
0.2270095806999030
40
0.3405143710498586
40
0.4540191613998099
40
0.5675239517497622
40
0.6810287420997152
40
0.7945335324496665
40
0.9080383227996186
40
1.0000000000000000
40
1.0000000000000000
40
1.0000000000000000
40
1.0000000000000000
10
37.3591609950785326
20
9.2958777228833256
30
-0.0000000000000036
10
37.3719369494440201
20
9.2884320569591878
30
-0.0000000000000036
10
37.3922332572840261
20
9.2640350365400863
30
-0.0000000000000034
10
37.3910786072870280
20
9.2165045357211444
30
-0.0000000000000030
10
37.3591489665086698
20
9.1813120065311704
30
-0.0000000000000033
10
37.3119592008855392
20
9.1756127148632860
30
-0.0000000000000033
10
37.2725558992085624
20
9.2021972164014745
30
-0.0000000000000033
10
37.2601796385639616
20
9.2480757979344670
30
-0.0000000000000033
10
37.2808190989740638
20
9.2909067960397511
30
-0.0000000000000033
10
37.3218288615015297
20
9.3084177122459746
30
-0.0000000000000034
10
37.3488099060393566
20
9.3019102077163094
30
-0.0000000000000036
10
37.3591609950785326
20
9.2958777228833256
30
-0.0000000000000036
41
1.0000000000000000
41
1.0000000000000000
41
1.0000000000000000
41
1.0000000000000000
41
1.0000000000000000
41
1.0000000000000000
41
1.0000000000000000
41
1.0000000000000000
41
1.0000000000000000
41
1.0000000000000000
41
1.0000000000000000
41
1.0000000000000000
0
SPLINE
8
Cut
6
CONTINUOUS
62
5
370
0
100
AcDbEntity
100
AcDbSpline
70
1
71
3
72
16
73
12
74
0
40
0.0000000000000000
40
0.0000000000000000
40
0.0000000000000000
40
0.0000000000000000
40
0.1135047903499529
40
0.2270095806999049
40
0.3405143710498577
40
0.4540191613998090
40
0.5675239517497613
40
0.6810287420997143
40
0.7945335324496656
40
0.9080383227996177
40
1.0000000000000000
40
1.0000000000000000
40
1.0000000000000000
40
1.0000000000000000
10
36.0663460345666920
20
7.0566565264916221
30
-0.0000000000000025
10
36.0535700802012116
20
7.0641021924157563
30
-0.0000000000000025
10
36.0332737723612055
20
7.0884992128348632
30
-0.0000000000000023
10
36.0344284223582036
20
7.1360297136538060
30
-0.0000000000000025
10
36.0663580631365690
20
7.1712222428437800
30
-0.0000000000000025
10
36.1135478287596925
20
7.1769215345116635
30
-0.0000000000000023
10
36.1529511304366693
20
7.1503370329734732
30
-0.0000000000000025
10
36.1653273910812700
20
7.1044584514404834
30
-0.0000000000000025
10
36.1446879306711679
20
7.0616274533351930
30
-0.0000000000000026
10
36.1036781681437020
20
7.0441165371289767
30
-0.0000000000000025
10
36.0766971236058680
20
7.0506240416586348
30
-0.0000000000000026
10
36.0663460345666920
20
7.0566565264916221
30
-0.0000000000000025
41
1.0000000000000000
41
1.0000000000000000
41
1.0000000000000000
41
1.0000000000000000
41
1.0000000000000000
41
1.0000000000000000
41
1.0000000000000000
41
1.0000000000000000
41
1.0000000000000000
41
1.0000000000000000
41
1.0000000000000000
41
1.0000000000000000
0
SPLINE
8
Cut
6
CONTINUOUS
62
5
370
0
100
AcDbEntity
100
AcDbSpline
70
1
71
3
72
16
73
12
74
0
40
0.0000000000000000
40
0.0000000000000000
40
0.0000000000000000
40
0.0000000000000000
40
0.1135047903499535
40
0.2270095806999050
40
0.3405143710498577
40
0.4540191613998090
40
0.5675239517497612
40
0.6810287420997149
40
0.7945335324496661
40
0.9080383227996176
40
1.0000000000000000
40
1.0000000000000000
40
1.0000000000000000
40
1.0000000000000000
10
33.2546744337571454
20
10.9439163074603290
30
-0.0000000000000033
10
33.2418984793916650
20
10.9513619733844667
30
-0.0000000000000033
10
33.2216021715516518
20
10.9757589938035700
30
-0.0000000000000033
10
33.2227568215486500
20
11.0232894946225120
30
-0.0000000000000036
10
33.2546864623270153
20
11.0584820238124895
30
-0.0000000000000031
10
33.3018762279501388
20
11.0641813154803685
30
-0.0000000000000033
10
33.3412795296271227
20
11.0375968139421872
30
-0.0000000000000031
10
33.3536557902717163
20
10.9917182324091893
30
-0.0000000000000031
10
33.3330163298616142
20
10.9488872343039070
30
-0.0000000000000031
10
33.2920065673341554
20
10.9313763180976782
30
-0.0000000000000034
10
33.2650255227963214
20
10.9378838226273434
30
-0.0000000000000033
10
33.2546744337571454
20
10.9439163074603290
30
-0.0000000000000033
41
1.0000000000000000
41
1.0000000000000000
41
1.0000000000000000
41
1.0000000000000000
41
1.0000000000000000
41
1.0000000000000000
41
1.0000000000000000
41
1.0000000000000000
41
1.0000000000000000
41
1.0000000000000000
41
1.0000000000000000
41
1.0000000000000000
0
SPLINE
8
Cut
6
CONTINUOUS
62
5
370
0
100
AcDbEntity
100
AcDbSpline
70
1
71
3
72
16
73
12
74
0
40
0.0000000000000000
40
0.0000000000000000
40
0.0000000000000000
40
0.0000000000000000
40
0.1135047903499517
40
0.2270095806999042
40
0.3405143710498558
40
0.4540191613998073
40
0.5675239517497592
40
0.6810287420997103
40
0.7945335324496622
40
0.9080383227996143
40
0.9999999999999999
40
0.9999999999999999
40
0.9999999999999999
40
0.9999999999999999
10
34.8094562707871304
20
4.8796595961123685
30
-0.0000000000000016
10
34.7966803164216500
20
4.8871052620365054
30
-0.0000000000000016
10
34.7763840085816440
20
4.9115022824556078
30
-0.0000000000000019
10
34.7775386585786421
20
4.9590327832745533
30
-0.0000000000000016
10
34.8094682993570004
20
4.9942253124645264
30
-0.0000000000000018
10
34.8566580649801310
20
4.9999246041324090
30
-0.0000000000000015
10
34.8960613666571078
20
4.9733401025942223
30
-0.0000000000000015
10
34.9084376273017085
20
4.9274615210612307
30
-0.0000000000000016
10
34.8877981668916064
20
4.8846305229559412
30
-0.0000000000000016
10
34.8467884043641405
20
4.8671196067497204
30
-0.0000000000000018
10
34.8198073598263136
20
4.8736271112793821
30
-0.0000000000000016
10
34.8094562707871304
20
4.8796595961123685
30
-0.0000000000000016
41
1.0000000000000000
41
1.0000000000000000
41
1.0000000000000000
41
1.0000000000000000
41
1.0000000000000000
41
1.0000000000000000
41
1.0000000000000000
41
1.0000000000000000
41
1.0000000000000000
41
1.0000000000000000
41
1.0000000000000000
41
1.0000000000000000
0
SPLINE
8
Cut
6
CONTINUOUS
62
5
370
0
100
AcDbEntity
100
AcDbSpline
70
1
71
3
72
16
73
12
74
0
40
0.0000000000000000
40
0.0000000000000000
40
0.0000000000000000
40
0.0000000000000000
40
0.1135047903499512
40
0.2270095806999024
40
0.3405143710498529
40
0.4540191613998070
40
0.5675239517497586
40
0.6810287420997068
40
0.7945335324496590
40
0.9080383227996104
40
1.0000000000000000
40
1.0000000000000000
40
1.0000000000000000
40
1.0000000000000000
10
32.3843921230853411
20
13.0651520523327225
30
-0.0000000000000038
10
32.3971680774508215
20
13.0577063864085883
30
-0.0000000000000038
10
32.4174643852908275
20
13.0333093659894867
30
-0.0000000000000036
10
32.4163097352938365
20
12.9857788651705430
30
-0.0000000000000036
10
32.3843800945154712
20
12.9505863359805673
30
-0.0000000000000036
10
32.3371903288923477
20
12.9448870443126847
30
-0.0000000000000037
10
32.2977870272153638
20
12.9714715458508714
30
-0.0000000000000037
10
32.2854107665707630
20
13.0173501273838639
30
-0.0000000000000037
10
32.3060502269808651
20
13.0601811254891480
30
-0.0000000000000036
10
32.3470599895083311
20
13.0776920416953732
30
-0.0000000000000038
10
32.3740410340461651
20
13.0711845371657134
30
-0.0000000000000038
10
32.3843921230853411
20
13.0651520523327225
30
-0.0000000000000038
41
1.0000000000000000
41
1.0000000000000000
41
1.0000000000000000
41
1.0000000000000000
41
1.0000000000000000
41
1.0000000000000000
41
1.0000000000000000
41
1.0000000000000000
41
1.0000000000000000
41
1.0000000000000000
41
1.0000000000000000
41
1.0000000000000000
0
CIRCLE
8
Cut
6
CONTINUOUS
62
5
370
0
100
AcDbEntity
100
AcDbCircle
10
31.0919255411869422
20
11.3265524710012784
30
-0.0000000000000030
40
0.1249981920792757
0
SPLINE
8
Cut
6
CONTINUOUS
62
5
370
0
100
AcDbEntity
100
AcDbSpline
70
1
71
3
72
16
73
12
74
0
40
0.0000000000000000
40
0.0000000000000000
40
0.0000000000000000
40
0.0000000000000000
40
0.1135047903499508
40
0.2270095806999027
40
0.3405143710498583
40
0.4540191613998096
40
0.5675239517497621
40
0.6810287420997150
40
0.7945335324496663
40
0.9080383227996185
40
0.9999999999999999
40
0.9999999999999999
40
0.9999999999999999
40
0.9999999999999999
10
36.3209533751873010
20
9.8952871717022752
30
-0.0000000000000033
10
36.3337293295527815
20
9.8878415057781375
30
-0.0000000000000033
10
36.3540256373927946
20
9.8634444853590395
30
-0.0000000000000031
10
36.3528709873957965
20
9.8159139845400940
30
-0.0000000000000033
10
36.3209413466174311
20
9.7807214553501183
30
-0.0000000000000031
10
36.2737515809943076
20
9.7750221636822356
30
-0.0000000000000034
10
36.2343482793173237
20
9.8016066652204259
30
-0.0000000000000029
10
36.2219720186727230
20
9.8474852467534113
30
-0.0000000000000034
10
36.2426114790828322
20
9.8903162448587061
30
-0.0000000000000031
10
36.2836212416102910
20
9.9078271610649242
30
-0.0000000000000033
10
36.3106022861481250
20
9.9013196565352608
30
-0.0000000000000033
10
36.3209533751873010
20
9.8952871717022752
30
-0.0000000000000033
41
1.0000000000000000
41
1.0000000000000000
41
1.0000000000000000
41
1.0000000000000000
41
1.0000000000000000
41
1.0000000000000000
41
1.0000000000000000
41
1.0000000000000000
41
1.0000000000000000
41
1.0000000000000000
41
1.0000000000000000
41
1.0000000000000000
0
CIRCLE
8
Cut
6
CONTINUOUS
62
5
370
0
100
AcDbEntity
100
AcDbCircle
10
36.0221331548573929
20
8.4800957780878843
30
-0.0000000000000030
40
0.1249981920792757
0
SPLINE
8
Cut
6
CONTINUOUS
62
5
370
0
100
AcDbEntity
100
AcDbSpline
70
1
71
3
72
16
73
12
74
0
40
0.0000000000000000
40
0.0000000000000000
40
0.0000000000000000
40
0.0000000000000000
40
0.1135047903499514
40
0.2270095806999029
40
0.3405143710498584
40
0.4540191613998097
40
0.5675239517497619
40
0.6810287420997154
40
0.7945335324496666
40
0.9080383227996182
40
0.9999999999999999
40
0.9999999999999999
40
0.9999999999999999
40
0.9999999999999999
10
33.0341482994069580
20
11.7929249669778677
30
-0.0000000000000036
10
33.0469242537724384
20
11.7854793010537300
30
-0.0000000000000036
10
33.0672205616124515
20
11.7610822806346302
30
-0.0000000000000034
10
33.0660659116154534
20
11.7135517798156883
30
-0.0000000000000031
10
33.0341362708370880
20
11.6783592506257055
30
-0.0000000000000037
10
32.9869465052139645
20
11.6726599589578317
30
-0.0000000000000033
10
32.9475432035369877
20
11.6992444604960113
30
-0.0000000000000037
10
32.9351669428923870
20
11.7451230420290109
30
-0.0000000000000031
10
32.9558064033024891
20
11.7879540401342950
30
-0.0000000000000033
10
32.9968161658299479
20
11.8054649563405167
30
-0.0000000000000031
10
33.0237972103677890
20
11.7989574518108551
30
-0.0000000000000036
10
33.0341482994069580
20
11.7929249669778677
30
-0.0000000000000036
41
1.0000000000000000
41
1.0000000000000000
41
1.0000000000000000
41
1.0000000000000000
41
1.0000000000000000
41
1.0000000000000000
41
1.0000000000000000
41
1.0000000000000000
41
1.0000000000000000
41
1.0000000000000000
41
1.0000000000000000
41
1.0000000000000000
0
SPLINE
8
Cut
6
CONTINUOUS
62
5
370
0
100
AcDbEntity
100
AcDbSpline
70
1
71
3
72
16
73
12
74
0
40
0.0000000000000000
40
0.0000000000000000
40
0.0000000000000000
40
0.0000000000000000
40
0.1135047903499522
40
0.2270095806999042
40
0.3405143710498560
40
0.4540191613998082
40
0.5675239517497610
40
0.6810287420997120
40
0.7945335324496641
40
0.9080383227996154
40
1.0000000000000000
40
1.0000000000000000
40
1.0000000000000000
40
1.0000000000000000
10
26.6330797873635028
20
3.1035868766649175
30
-0.0000000000000001
10
26.6458557417289832
20
3.0961412107407815
30
-0.0000000000000001
10
26.6661520495689928
20
3.0717441903216787
30
0.0000000000000003
10
26.6649973995719947
20
3.0242136895027323
30
0.0000000000000001
10
26.6330677587936258
20
2.9890211603127619
30
0.0000000000000001
10
26.5858779931705058
20
2.9833218686448792
30
0.0000000000000005
10
26.5464746914935183
20
3.0099063701830655
30
0.0000000000000003
10
26.5340984308489283
20
3.0557849517160571
30
0.0000000000000001
10
26.5547378912590268
20
3.0986159498213444
30
0.0000000000000003
10
26.5957476537864892
20
3.1161268660275661
30
0.0000000000000001
10
26.6227286983243232
20
3.1096193614979049
30
-0.0000000000000001
10
26.6330797873635028
20
3.1035868766649175
30
-0.0000000000000001
41
1.0000000000000000
41
1.0000000000000000
41
1.0000000000000000
41
1.0000000000000000
41
1.0000000000000000
41
1.0000000000000000
41
1.0000000000000000
41
1.0000000000000000
41
1.0000000000000000
41
1.0000000000000000
41
1.0000000000000000
41
1.0000000000000000
0
SPLINE
8
Cut
6
CONTINUOUS
62
5
370
0
100
AcDbEntity
100
AcDbSpline
70
1
71
3
72
16
73
12
74
0
40
0.0000000000000000
40
0.0000000000000000
40
0.0000000000000000
40
0.0000000000000000
40
0.1135047903499519
40
0.2270095806999037
40
0.3405143710498552
40
0.4540191613998071
40
0.5675239517497589
40
0.6810287420997104
40
0.7945335324496628
40
0.9080383227996144
40
1.0000000000000000
40
1.0000000000000000
40
1.0000000000000000
40
1.0000000000000000
10
33.5525665070076258
20
2.7026626657330715
30
-0.0000000000000007
10
33.5397905526421454
20
2.7101083316572083
30
-0.0000000000000007
10
33.5194942448021393
20
2.7345053520763116
30
-0.0000000000000010
10
33.5206488947991375
20
2.7820358528952571
30
-0.0000000000000007
10
33.5525785355774957
20
2.8172283820852293
30
-0.0000000000000008
10
33.5997683012006263
20
2.8229276737531119
30
-0.0000000000000007
10
33.6391716028776031
20
2.7963431722149257
30
-0.0000000000000007
10
33.6515478635222038
20
2.7504645906819336
30
-0.0000000000000010
10
33.6309084031121017
20
2.7076335925766473
30
-0.0000000000000004
10
33.5898986405846358
20
2.6901226763704242
30
-0.0000000000000008
10
33.5629175960468018
20
2.6966301809000854
30
-0.0000000000000005
10
33.5525665070076258
20
2.7026626657330715
30
-0.0000000000000007
41
1.0000000000000000
41
1.0000000000000000
41
1.0000000000000000
41
1.0000000000000000
41
1.0000000000000000
41
1.0000000000000000
41
1.0000000000000000
41
1.0000000000000000
41
1.0000000000000000
41
1.0000000000000000
41
1.0000000000000000
41
1.0000000000000000
0
SPLINE
8
Cut
6
CONTINUOUS
62
5
370
0
100
AcDbEntity
100
AcDbSpline
70
1
71
3
72
16
73
12
74
0
40
0.0000000000000000
40
0.0000000000000000
40
0.0000000000000000
40
0.0000000000000000
40
0.1135047903499521
40
0.2270095806999040
40
0.3405143710498560
40
0.4540191613998076
40
0.5675239517497596
40
0.6810287420997115
40
0.7945335324496634
40
0.9080383227996153
40
1.0000000000000000
40
1.0000000000000000
40
1.0000000000000000
40
1.0000000000000000
10
30.5680050903620675
20
2.1618595776778249
30
-0.0000000000000003
10
30.5552291359965835
20
2.1693052436019613
30
-0.0000000000000001
10
30.5349328281565811
20
2.1937022640210646
30
-0.0000000000000003
10
30.5360874781535721
20
2.2412327648400097
30
-0.0000000000000004
10
30.5680171189319374
20
2.2764252940299823
30
-0.0000000000000001
10
30.6152068845550609
20
2.2821245856978636
30
-0.0000000000000004
10
30.6546101862320448
20
2.2555400841596791
30
0.0000000000000000
10
30.6669864468766455
20
2.2096615026266861
30
-0.0000000000000004
10
30.6463469864665434
20
2.1668305045214002
30
0.0000000000000001
10
30.6053372239390811
20
2.1493195883151768
30
-0.0000000000000004
10
30.5783561794012435
20
2.1558270928448384
30
-0.0000000000000003
10
30.5680050903620675
20
2.1618595776778249
30
-0.0000000000000003
41
1.0000000000000000
41
1.0000000000000000
41
1.0000000000000000
41
1.0000000000000000
41
1.0000000000000000
41
1.0000000000000000
41
1.0000000000000000
41
1.0000000000000000
41
1.0000000000000000
41
1.0000000000000000
41
1.0000000000000000
41
1.0000000000000000
0
CIRCLE
8
Cut
6
CONTINUOUS
62
5
370
0
100
AcDbEntity
100
AcDbCircle
10
34.1322941534109958
20
5.3427975471141895
30
-0.0000000000000016
40
0.1562418276973943
0
CIRCLE
8
Cut
6
CONTINUOUS
62
5
370
0
100
AcDbEntity
100
AcDbCircle
10
27.4300160926041912
20
4.9839392533395737
30
-0.0000000000000005
40
0.1249981920792779
0
SPLINE
8
Cut
6
CONTINUOUS
62
5
370
0
100
AcDbEntity
100
AcDbSpline
70
1
71
3
72
16
73
12
74
0
40
0.0000000000000000
40
0.0000000000000000
40
0.0000000000000000
40
0.0000000000000000
40
0.1135047903499521
40
0.2270095806999040
40
0.3405143710498560
40
0.4540191613998082
40
0.5675239517497594
40
0.6810287420997111
40
0.7945335324496630
40
0.9080383227996153
40
1.0000000000000000
40
1.0000000000000000
40
1.0000000000000000
40
1.0000000000000000
10
28.7802649851744867
20
3.1940118086489737
30
-0.0000000000000003
10
28.7674890308089992
20
3.2014574745731101
30
-0.0000000000000003
10
28.7471927229689932
20
3.2258544949922143
30
-0.0000000000000003
10
28.7483473729659949
20
3.2733849958111585
30
-0.0000000000000003
10
28.7802770137443531
20
3.3085775250011316
30
-0.0000000000000003
10
28.8274667793674801
20
3.3142768166690137
30
-0.0000000000000001
10
28.8668700810444605
20
3.2876923151308275
30
-0.0000000000000005
10
28.8792463416890577
20
3.2418137335978368
30
0.0000000000000000
10
28.8586068812789591
20
3.1989827354925477
30
-0.0000000000000005
10
28.8175971187514932
20
3.1814718192863269
30
-0.0000000000000003
10
28.7906160742136592
20
3.1879793238159881
30
-0.0000000000000003
10
28.7802649851744867
20
3.1940118086489737
30
-0.0000000000000003
41
1.0000000000000000
41
1.0000000000000000
41
1.0000000000000000
41
1.0000000000000000
41
1.0000000000000000
41
1.0000000000000000
41
1.0000000000000000
41
1.0000000000000000
41
1.0000000000000000
41
1.0000000000000000
41
1.0000000000000000
41
1.0000000000000000
0
CIRCLE
8
Cut
6
CONTINUOUS
62
5
370
0
100
AcDbEntity
100
AcDbCircle
10
34.0236176902149552
20
5.9545640642436997
30
-0.0000000000000019
40
0.0967443386551688
0
SPLINE
8
Cut
6
CONTINUOUS
62
5
370
0
100
AcDbEntity
100
AcDbSpline
70
1
71
3
72
16
73
12
74
0
40
0.0000000000000000
40
0.0000000000000000
40
0.0000000000000000
40
0.0000000000000000
40
0.1135047903499523
40
0.2270095806999042
40
0.3405143710498562
40
0.4540191613998084
40
0.5675239517497598
40
0.6810287420997125
40
0.7945335324496645
40
0.9080383227996166
40
1.0000000000000000
40
1.0000000000000000
40
1.0000000000000000
40
1.0000000000000000
10
28.0597388508242034
20
3.1769950643819644
30
-0.0000000000000004
10
28.0725148051896873
20
3.1695493984578276
30
-0.0000000000000004
10
28.0928111130296898
20
3.1451523780387243
30
0.0000000000000000
10
28.0916564630326917
20
3.0976218772197801
30
0.0000000000000003
10
28.0597268222543335
20
3.0624293480298066
30
-0.0000000000000004
10
28.0125370566312064
20
3.0567300563619249
30
-0.0000000000000001
10
27.9731337549542260
20
3.0833145579001111
30
0.0000000000000000
10
27.9607574943096289
20
3.1291931394331018
30
-0.0000000000000004
10
27.9813969547197274
20
3.1720241375383904
30
-0.0000000000000001
10
28.0224067172471933
20
3.1895350537446121
30
0.0000000000000000
10
28.0493877617850274
20
3.1830275492149500
30
-0.0000000000000004
10
28.0597388508242034
20
3.1769950643819644
30
-0.0000000000000004
41
1.0000000000000000
41
1.0000000000000000
41
1.0000000000000000
41
1.0000000000000000
41
1.0000000000000000
41
1.0000000000000000
41
1.0000000000000000
41
1.0000000000000000
41
1.0000000000000000
41
1.0000000000000000
41
1.0000000000000000
41
1.0000000000000000
0
CIRCLE
8
Cut
6
CONTINUOUS
62
5
370
0
100
AcDbEntity
100
AcDbCircle
10
33.4394738303833918
20
5.7427975471142254
30
-0.0000000000000018
40
0.1562418276973955
0
CIRCLE
8
Cut
6
CONTINUOUS
62
5
370
0
100
AcDbEntity
100
AcDbCircle
10
33.5481367430532487
20
5.1310069057286993
30
-0.0000000000000016
40
0.0967443386551698
0
SPLINE
8
Cut
6
CONTINUOUS
62
5
370
0
100
AcDbEntity
100
AcDbSpline
70
1
71
3
72
16
73
12
74
0
40
0.0000000000000000
40
0.0000000000000000
40
0.0000000000000000
40
0.0000000000000000
40
0.1135047903499519
40
0.2270095806999040
40
0.3405143710498560
40
0.4540191613998079
40
0.5675239517497599
40
0.6810287420997118
40
0.7945335324496637
40
0.9080383227996158
40
0.9999999999999999
40
0.9999999999999999
40
0.9999999999999999
40
0.9999999999999999
10
31.3465439266045607
20
1.2793572691063582
30
0.0000000000000003
10
31.3593198809700411
20
1.2719116031822213
30
0.0000000000000003
10
31.3796161888100471
20
1.2475145827631178
30
0.0000000000000001
10
31.3784615388130526
20
1.1999840819441727
30
0.0000000000000001
10
31.3465318980346872
20
1.1647915527542005
30
0.0000000000000003
10
31.2993421324115637
20
1.1590922610863184
30
0.0000000000000000
10
31.2599388307345798
20
1.1856767626245042
30
0.0000000000000001
10
31.2475625700899826
20
1.2315553441574965
30
-0.0000000000000001
10
31.2682020305000847
20
1.2743863422627835
30
0.0000000000000000
10
31.3092117930275471
20
1.2918972584690056
30
0.0000000000000001
10
31.3361928375653811
20
1.2853897539393442
30
0.0000000000000003
10
31.3465439266045607
20
1.2793572691063582
30
0.0000000000000003
41
1.0000000000000000
41
1.0000000000000000
41
1.0000000000000000
41
1.0000000000000000
41
1.0000000000000000
41
1.0000000000000000
41
1.0000000000000000
41
1.0000000000000000
41
1.0000000000000000
41
1.0000000000000000
41
1.0000000000000000
41
1.0000000000000000
0
CIRCLE
8
Cut
6
CONTINUOUS
62
5
370
0
100
AcDbEntity
100
AcDbCircle
10
32.3602237062747378
20
2.1374825604260956
30
-0.0000000000000005
40
0.1249981920792767
0
SPLINE
8
Cut
6
CONTINUOUS
62
5
370
0
100
AcDbEntity
100
AcDbSpline
70
1
71
3
72
16
73
12
74
0
40
0.0000000000000000
40
0.0000000000000000
40
0.0000000000000000
40
0.0000000000000000
40
0.1135047903499520
40
0.2270095806999040
40
0.3405143710498560
40
0.4540191613998080
40
0.5675239517497600
40
0.6810287420997120
40
0.7945335324496641
40
0.9080383227996160
40
1.0000000000000000
40
1.0000000000000000
40
1.0000000000000000
40
1.0000000000000000
10
32.3847515464957993
20
0.6799478202874130
30
-0.0000000000000001
10
32.3975275008612869
20
0.6725021543632762
30
-0.0000000000000001
10
32.4178238087012929
20
0.6481051339441726
30
0.0000000000000000
10
32.4166691587042948
20
0.6005746331252276
30
0.0000000000000000
10
32.3847395179259294
20
0.5653821039352553
30
-0.0000000000000001
10
32.3375497523028059
20
0.5596828122673735
30
0.0000000000000003
10
32.2981464506258220
20
0.5862673138055592
30
-0.0000000000000001
10
32.2857701899812284
20
0.6321458953385514
30
0.0000000000000001
10
32.3064096503913234
20
0.6749768934438385
30
0.0000000000000001
10
32.3474194129187893
20
0.6924878096500604
30
0.0000000000000001
10
32.3744004574566233
20
0.6859803051203991
30
-0.0000000000000001
10
32.3847515464957993
20
0.6799478202874130
30
-0.0000000000000001
41
1.0000000000000000
41
1.0000000000000000
41
1.0000000000000000
41
1.0000000000000000
41
1.0000000000000000
41
1.0000000000000000
41
1.0000000000000000
41
1.0000000000000000
41
1.0000000000000000
41
1.0000000000000000
41
1.0000000000000000
41
1.0000000000000000
0
MTEXT
330
1 F
100
AcDbEntity
8
PartID
6
CONTINUOUS
62
30
370
0
100
AcDbMText
10
31.0246738758604188
20
8.0984662854269018
30
0.0000000000000000
40
0.7874015748031497
41
0.0
71
5
72
1
1
Seat Pan Base
0
MTEXT
330
1 F
100
AcDbEntity
8
PartIndex
6
CONTINUOUS
62
30
370
0
100
AcDbMText
10
31.0246738758604188
20
8.9252379389702092
30
0.0000000000000000
40
0.7874015748031497
41
0.0
71
5
72
1
1
15-1
0
ENDSEC
0
EOF
