<?xml version="1.0" encoding="utf-8"?>
<!-- Generator: Fusion 360, Shaper Origin Export Add-In, Version 1.6.10  -->
<svg xmlns="http://www.w3.org/2000/svg" xmlns:xlink="http://www.w3.org/1999/xlink" xmlns:shaper="http://www.shapertools.com/namespaces/shaper" shaper:fusionaddin="version:1.6.10" width="4.1275cm" height="2.1472242cm" version="1.1" x="0cm" y="0cm" viewBox="0 0 4.1275 2.1472242" enable-background="new 0 0 4.1275 2.1472242" xml:space="preserve"><path d="M3.004732,-1.0736121 L3.004732,1.0736121 -1.122768,1.0736121 -1.122768,-1.0736121 3.004732,-1.0736121z" transform="matrix(1,0,0,-1,1.122768,1.0736121)" fill="rgb(0,0,0)" shaper:cutDepth="0.000889" stroke-linecap="round" stroke-linejoin="round" /><path d="M-0.4009346,0.6177578 L-0.4009346,0.6177578 -0.4005667,0.6108022 -0.39892,0.6040382 -0.3954845,0.5979951 -0.3902175,0.5934517 -0.3838599,0.5906256 -0.3770569,0.5891091 -0.363165,0.5881991 -0.0570372,0.5883015 -0.3808571,0.3765856 -0.3808571,0.3765856 -0.3884536,0.3708426 -0.3951245,0.3640651 -0.3977794,0.3600948 -0.3996915,0.3557153 -0.4006294,0.3510677 -0.4009346,0.3462892 -0.4009346,0.3462892 -0.3997671,0.3381016 -0.3983204,0.3342511 -0.3962895,0.3306109 -0.3938419,0.3272138 -0.3909276,0.3242988 -0.383692,0.3203227 -0.383692,0.3203227 -0.3789632,0.3192414 -0.3741104,0.3189982 -0.3643967,0.3188858 0.0330319,0.3189883 0.0330319,0.3189883 0.045039,0.3192025 0.0509962,0.3199424 0.0567132,0.3217596 0.0567132,0.3217596 0.0628198,0.326531 0.0674198,0.3327673 0.0700958,0.340035 0.0710821,0.3477261 0.0710821,0.3477261 0.0705241,0.3540404 0.0688616,0.360155 0.0657874,0.3656953 0.0613957,0.3702494 0.0559303,0.3734706 0.0499721,0.375618 0.043735,0.37676 0.0374179,0.3772849 -0.273632,0.3772849 0.0523324,0.5883015 0.0523324,0.5883015 0.0597149,0.5939506 0.0658103,0.6009335 0.0681887,0.6049645 0.069918,0.609278 0.0710821,0.6184763 0.0710821,0.6184763 0.0706062,0.6246057 0.0689708,0.6305288 0.0659632,0.6358824 0.0615449,0.6401521 0.0561831,0.6431467 0.0503262,0.6450297 0.044271,0.6460687 0.0381364,0.6464955 -0.3658456,0.6465981 -0.3658456,0.6465981 -0.3724125,0.6463562 -0.3789202,0.6454964 -0.3852673,0.6437824 -0.3911437,0.640858 -0.3959581,0.6364022 -0.3992083,0.6307023 -0.4007648,0.6243251 -0.4009346,0.6177578z" transform="matrix(1,0,0,-1,1.122768,1.0736121)" fill="rgb(185,185,185)" fill-rule="nonzero" shaper:cutDepth="0.000762" stroke-linecap="round" stroke-linejoin="round" /><path d="M0.0710821,-0.0325352 L0.0710821,-0.0325352 0.0707318,-0.0388266 0.0693398,-0.0449695 0.0664722,-0.0505743 0.0621772,-0.0551805 0.056863,-0.058548 0.0508998,-0.0605984 0.0446889,-0.0616382 0.0383962,-0.0619914 -0.3581359,-0.062094 -0.3581359,-0.062094 -0.3676652,-0.0620165 -0.3771108,-0.0607706 -0.3816937,-0.0594505 -0.3860688,-0.0575489 -0.3900956,-0.0549678 -0.393489,-0.0516287 -0.3960733,-0.0476101 -0.397952,-0.043219 -0.400161,-0.0339515 -0.4009839,-0.0244596 -0.4010371,-0.0149302 -0.4009346,0.1005819 -0.4009346,0.1005819 -0.4006331,0.1151823 -0.3994958,0.1297418 -0.3967653,0.1440859 -0.3925185,0.1580573 -0.3925185,0.1580573 -0.388634,0.1676468 -0.383991,0.176892 -0.3787363,0.1858048 -0.3727463,0.1942402 -0.3661403,0.2022025 -0.35886,0.2095535 -0.3510056,0.2162873 -0.3426616,0.222405 -0.3338976,0.2279022 -0.3247011,0.2326441 -0.3151988,0.2367325 -0.3053682,0.2399632 -0.2953549,0.2425583 -0.2851551,0.2443031 -0.2748736,0.2454451 -0.2645332,0.2458099 -0.2645332,0.2458099 -0.2530296,0.2452599 -0.2415986,0.2438676 -0.2302979,0.2416475 -0.2191947,0.2385913 -0.2083988,0.2345833 -0.1980026,0.2296292 -0.1880745,0.2237944 -0.1786147,0.2172263 -0.1697148,0.2099181 -0.1614977,0.2018497 -0.1540172,0.1930945 -0.1472789,0.1837556 -0.1414529,0.1738223 -0.1365648,0.1633951 -0.1325735,0.1525929 -0.1293634,0.1415332 -0.1293634,0.1415332 -0.1273826,0.1305215 -0.1263976,0.119373 -0.1259763,0.0969993 -0.1259763,-0.0036948 0.0342362,-0.0036948 0.0342362,-0.0036948 0.0478092,-0.004567 0.0544293,-0.0060891 0.0606757,-0.0088027 0.0634656,-0.0107451 0.0658403,-0.0131918 0.069113,-0.0191418 0.0707374,-0.0257414 0.0710821,-0.0325352z M-0.2645332,0.1875135 L-0.2645332,0.1875135 -0.2811703,0.1859855 -0.2892897,0.1840058 -0.2971849,0.1812636 -0.304652,0.1775073 -0.311613,0.1728867 -0.3179066,0.1673836 -0.3235235,0.1611982 -0.3284024,0.1544099 -0.3325458,0.1471513 -0.3358133,0.1394607 -0.3383754,0.1315012 -0.3403172,0.1233744 -0.3415852,0.1151104 -0.3427406,0.0984378 -0.3427406,-0.0036948 -0.1842729,-0.0036948 -0.1842729,0.1027373 -0.1842729,0.1027373 -0.1855098,0.119076 -0.1871037,0.1271181 -0.1893506,0.1350026 -0.192307,0.142648 -0.1959636,0.1499857 -0.2004132,0.1568706 -0.205658,0.1631689 -0.2114893,0.1689332 -0.2180045,0.1739059 -0.2250036,0.1781737 -0.2324441,0.1816135 -0.2402265,0.1841919 -0.2482126,0.1860394 -0.2645332,0.1875135z" transform="matrix(1,0,0,-1,1.122768,1.0736121)" fill="rgb(185,185,185)" fill-rule="nonzero" shaper:cutDepth="0.000762" stroke-linecap="round" stroke-linejoin="round" /><path d="M-0.4009346,-0.4007882 L-0.4009346,-0.4007882 -0.4007541,-0.4063623 -0.3997828,-0.4118524 -0.3976683,-0.4170082 -0.3942628,-0.421416 -0.3898384,-0.424802 -0.3849181,-0.4274401 -0.3744549,-0.4312707 -0.0668017,-0.5191807 -0.3732719,-0.607149 -0.3732719,-0.607149 -0.383337,-0.6108402 -0.3879974,-0.6134902 -0.3922193,-0.6168076 -0.3955782,-0.6209769 -0.39798,-0.6257737 -0.3992772,-0.6309761 -0.3994977,-0.6363347 -0.3994977,-0.6363347 -0.3988095,-0.6421227 -0.3971837,-0.6477201 -0.3943335,-0.6528035 -0.3906351,-0.6573081 -0.3861181,-0.6609924 -0.3810251,-0.6638242 -0.3754212,-0.6654284 -0.369631,-0.6660988 -0.369631,-0.6660988 -0.3631748,-0.6655906 -0.3569043,-0.6639434 0.035355,-0.5511047 0.035355,-0.5511047 0.0567132,-0.5447846 0.0567132,-0.5447846 0.0627424,-0.5400904 0.0672531,-0.5339202 0.070009,-0.5268003 0.0710821,-0.5192286 0.0710821,-0.5192286 0.0707213,-0.5131088 0.0691173,-0.5071898 0.0661399,-0.5018429 0.061836,-0.4974784 0.0567604,-0.4940367 0.0512638,-0.4913155 0.0396759,-0.4873092 -0.2597645,-0.4021261 0.0410304,-0.3155766 0.0410304,-0.3155766 0.0524726,-0.311867 0.0579188,-0.3093217 0.0629914,-0.3060754 0.0671341,-0.3017435 0.0696936,-0.2963064 0.0708811,-0.290412 0.0710821,-0.2844006 0.0710821,-0.2844006 0.0708109,-0.2787709 0.0692663,-0.2733537 0.0663854,-0.2685083 0.0624759,-0.2644568 0.0579079,-0.2611413 0.0529458,-0.2584749 0.0423444,-0.2546365 -0.3601269,-0.13964 -0.3601269,-0.13964 -0.3743522,-0.1375304 -0.3743522,-0.1375304 -0.3798259,-0.138113 -0.3850746,-0.1397646 -0.3898467,-0.1425031 -0.3938415,-0.1462892 -0.3969827,-0.1508074 -0.3992146,-0.1558388 -0.4004908,-0.1611916 -0.4009346,-0.1666786 -0.4009346,-0.1666786 -0.4007243,-0.172061 -0.3995424,-0.1773141 -0.3972151,-0.1821715 -0.3939107,-0.1864188 -0.3897665,-0.189862 -0.3851239,-0.1925944 -0.3750707,-0.1964427 -0.0677597,-0.2850715 -0.3779978,-0.3737492 -0.3779978,-0.3737492 -0.3871048,-0.3771529 -0.3912507,-0.3796855 -0.3949241,-0.3828788 -0.3978614,-0.3867465 -0.3999172,-0.3911538 -0.4008373,-0.3959264 -0.4009346,-0.4007882z" transform="matrix(1,0,0,-1,1.122768,1.0736121)" fill="rgb(185,185,185)" fill-rule="nonzero" shaper:cutDepth="0.000762" stroke-linecap="round" stroke-linejoin="round" /><path d="M-0.8954855,0.5378055 L-0.8954855,0.5378055 -0.9082781,0.5260273 -0.9200769,0.5132601 -0.9306963,0.4994893 -0.9398598,0.4847146 -0.94717,0.4689395 -0.9524367,0.4523726 -0.9556505,0.4352845 -0.9566557,0.4179282 -0.9567583,0.4179861 -0.9567583,0.4179861 -0.9555515,0.3989722 -0.9524054,0.3801825 -0.9469317,0.3619344 -0.939314,0.3444733 -0.9295165,0.3281341 -0.9179053,0.3130276 -0.904795,0.2992065 -0.8904564,0.2866585 -0.8904564,0.2866585 -0.87224,0.273526 -0.8531072,0.2617696 -0.8330787,0.2516127 -0.8123136,0.2430633 -0.7909395,0.2361752 -0.7690639,0.2311041 -0.7468241,0.2279916 -0.7243936,0.2269252 -0.7243936,0.2269252 -0.7017413,0.2279121 -0.679215,0.2304923 -0.6569765,0.2349119 -0.635123,0.240956 -0.613841,0.2487762 -0.5932467,0.2582605 -0.5735566,0.269503 -0.5549438,0.2824505 -0.5549438,0.2824505 -0.540064,0.2949221 -0.5262812,0.3085908 -0.5139827,0.323615 -0.503521,0.339965 -0.4990501,0.3485892 -0.4951469,0.3574804 -0.491881,0.3666209 -0.4892263,0.3759648 -0.4871356,0.3854559 -0.4856975,0.3950549 -0.4846391,0.4144386 -0.4846391,0.4144386 -0.4854383,0.4305228 -0.4878963,0.4464376 -0.492103,0.4619819 -0.4978781,0.4770139 -0.5053461,0.4912808 -0.5143343,0.5046435 -0.524589,0.5170591 -0.5358537,0.5285683 -0.5358537,0.5285683 -0.5442024,0.5361086 -0.5529489,0.5431819 -0.5625815,0.5490313 -0.5679117,0.5507274 -0.5735206,0.5513532 -0.5735206,0.5513532 -0.5792644,0.5508477 -0.5848725,0.5495131 -0.5900855,0.5470548 -0.5946981,0.5435977 -0.5985041,0.5392695 -0.6012729,0.5342151 -0.6028083,0.5286593 -0.6033873,0.5229234 -0.6033873,0.5229234 -0.6027277,0.5151166 -0.6016932,0.5113317 -0.6000409,0.5077687 -0.5951468,0.5016576 -0.5891211,0.496649 -0.5891211,0.496649 -0.5799241,0.4891597 -0.5712136,0.4811097 -0.5632961,0.4722808 -0.5562504,0.4627378 -0.5504092,0.4524174 -0.5461798,0.4413431 -0.5435929,0.4297658 -0.5429355,0.4179282 -0.5429355,0.4179282 -0.5433568,0.406314 -0.5452026,0.3948391 -0.548388,0.3836642 -0.5530242,0.3730053 -0.5588347,0.3629428 -0.5657484,0.3535975 -0.5735148,0.3449542 -0.5820393,0.3370521 -0.5820393,0.3370521 -0.5970125,0.3254184 -0.6130003,0.3152231 -0.6298133,0.3064562 -0.6473089,0.2991442 -0.6653541,0.2933191 -0.6838176,0.2890018 -0.702582,0.2862714 -0.7215198,0.2853243 -0.7215198,0.2853243 -0.736588,0.2861318 -0.7515827,0.2877884 -0.7664602,0.290325 -0.7811273,0.2938562 -0.7954909,0.2984835 -0.8094626,0.3041787 -0.8229447,0.3109541 -0.8358675,0.3187439 -0.8481402,0.3275205 -0.8596467,0.3372828 -0.8701859,0.3480762 -0.879464,0.3599774 -0.8871317,0.3729633 -0.8929244,0.3868944 -0.8967182,0.4014959 -0.8983593,0.4164913 -0.8983593,0.4164913 -0.8976929,0.4271914 -0.8956656,0.4377204 -0.8923079,0.4478998 -0.8875967,0.4575317 -0.8818171,0.4665622 -0.8751123,0.4749283 -0.8675502,0.4825298 -0.8594607,0.4895672 -0.8594607,0.4895672 -0.8516994,0.4958757 -0.8445711,0.5028945 -0.841685,0.5069903 -0.8396354,0.511576 -0.8386685,0.5164621 -0.8384206,0.5214866 -0.8384206,0.5214866 -0.8391081,0.5272799 -0.8408276,0.532854 -0.8437314,0.5379124 -0.8475554,0.542318 -0.8521427,0.5459205 -0.8573825,0.5484872 -0.8629913,0.5500815 -0.8688005,0.5506348 -0.8688005,0.5506348 -0.8763358,0.5498016 -0.8833428,0.546894 -0.8896016,0.5425992 -0.8954855,0.5378055z" transform="matrix(1,0,0,-1,1.122768,1.0736121)" fill="rgb(185,185,185)" fill-rule="nonzero" shaper:cutDepth="0.000762" stroke-linecap="round" stroke-linejoin="round" /><path d="M-0.5972292,-0.102532 L-0.5972292,-0.102532 -0.6116889,-0.1095731 -0.6193394,-0.1120862 -0.6272181,-0.1137184 -0.6432407,-0.1150864 -0.6593232,-0.1153613 -0.9215851,-0.1153613 -0.9215851,-0.1153613 -0.9346322,-0.116417 -0.9409393,-0.1181828 -0.9467535,-0.1211893 -0.9516016,-0.1255908 -0.9547493,-0.1313195 -0.9563927,-0.1376556 -0.9566557,-0.1442017 -0.9566557,-0.1442017 -0.9562002,-0.150577 -0.9546593,-0.1567765 -0.9516995,-0.1624333 -0.9472218,-0.166991 -0.9417425,-0.1702641 -0.93567,-0.1722701 -0.9293687,-0.1733221 -0.9229916,-0.1737604 -0.6579593,-0.1736579 -0.6579593,-0.1736579 -0.6403044,-0.1734458 -0.6226976,-0.172144 -0.6053735,-0.1687284 -0.5886079,-0.1631891 -0.5886079,-0.1631891 -0.5772977,-0.1583356 -0.5663633,-0.1526886 -0.5558551,-0.1462807 -0.5458711,-0.1390857 -0.5364306,-0.1311894 -0.5276972,-0.1225185 -0.5196912,-0.1131715 -0.5124383,-0.1032287 -0.5059296,-0.0927836 -0.5002764,-0.0818518 -0.4954912,-0.0705132 -0.4915895,-0.058841 -0.4885428,-0.0469169 -0.486355,-0.0348058 -0.4851113,-0.0225617 -0.4846391,-0.0102635 -0.4846391,-0.0102635 -0.485553,0.0062578 -0.4878073,0.0226484 -0.4915775,0.0387586 -0.4968297,0.0544489 -0.503844,0.0694325 -0.5123902,0.0835992 -0.5224303,0.0967491 -0.533873,0.1086996 -0.5464718,0.1194244 -0.5601329,0.1287549 -0.5747259,0.1365573 -0.5900061,0.1428936 -0.6058682,0.1476096 -0.6220631,0.1509959 -0.6384887,0.1529846 -0.6550125,0.1538493 -0.918013,0.1539518 -0.918013,0.1539518 -0.9319507,0.1530934 -0.938775,0.1516393 -0.9452647,0.1490299 -0.9481941,0.1471331 -0.9507102,0.1447112 -0.9544638,0.1388237 -0.9562598,0.132083 -0.9566557,0.1251116 -0.9566557,0.1251116 -0.9562554,0.1180988 -0.9543429,0.1113432 -0.9506672,0.1053736 -0.9452707,0.1008864 -0.9388118,0.0981558 -0.9319552,0.0965703 -0.9249901,0.0957441 -0.9179625,0.0955528 -0.6615314,0.0956553 -0.6615314,0.0956553 -0.6346652,0.0947031 -0.6213642,0.0927287 -0.6086217,0.0884711 -0.6086217,0.0884711 -0.5943795,0.0816759 -0.5876461,0.0775627 -0.5812722,0.0728928 -0.57529,0.0677342 -0.5697552,0.0621079 -0.5647139,0.0560353 -0.5601563,0.0495841 -0.5560788,0.0428198 -0.5525388,0.0357673 -0.5471519,0.0209339 -0.545247,0.0132654 -0.543953,0.0054854 -0.5429355,-0.0102635 -0.5429355,-0.0102635 -0.5437766,-0.0243111 -0.5463301,-0.0381477 -0.5507781,-0.0514982 -0.5570043,-0.0641166 -0.5649233,-0.075748 -0.5744489,-0.0861046 -0.5853139,-0.0950451 -0.5972292,-0.102532z" transform="matrix(1,0,0,-1,1.122768,1.0736121)" fill="rgb(185,185,185)" fill-rule="nonzero" shaper:cutDepth="0.000762" stroke-linecap="round" stroke-linejoin="round" /><path d="M-0.9566557,-0.275574 L-0.9566557,-0.275574 -0.9562878,-0.2825296 -0.9546411,-0.2892936 -0.9512056,-0.2953367 -0.9459386,-0.2998801 -0.939581,-0.3027062 -0.9327781,-0.3042228 -0.9188862,-0.3051328 -0.6127583,-0.3050303 -0.9365782,-0.5167462 -0.9365782,-0.5167462 -0.9441747,-0.5224892 -0.9508456,-0.5292668 -0.9535005,-0.533237 -0.9554126,-0.5376166 -0.9563505,-0.5422641 -0.9566557,-0.5470426 -0.9566557,-0.5470426 -0.9554882,-0.5552303 -0.9540415,-0.5590807 -0.9520106,-0.562721 -0.949563,-0.5661181 -0.9466487,-0.5690331 -0.9394131,-0.5730091 -0.9394131,-0.5730091 -0.9346843,-0.5740904 -0.9298316,-0.5743337 -0.9201178,-0.574446 -0.5226892,-0.5743435 -0.5226892,-0.5743435 -0.5106821,-0.5741294 -0.5047249,-0.5733895 -0.4990079,-0.5715723 -0.4990079,-0.5715723 -0.4929013,-0.5668008 -0.4883014,-0.5605645 -0.4856254,-0.5532968 -0.4846391,-0.5456057 -0.4846391,-0.5456057 -0.485197,-0.5392914 -0.4868595,-0.5331768 -0.4899337,-0.5276366 -0.4943254,-0.5230825 -0.4997908,-0.5198612 -0.5057491,-0.5177139 -0.5119861,-0.5165718 -0.5183032,-0.5160469 -0.8293531,-0.5160469 -0.5033887,-0.3050303 -0.5033887,-0.3050303 -0.4960062,-0.2993813 -0.4899108,-0.2923983 -0.4875324,-0.2883673 -0.4858032,-0.2840538 -0.4846391,-0.2748555 -0.4846391,-0.2748555 -0.4851149,-0.2687262 -0.4867503,-0.262803 -0.489758,-0.2574494 -0.4941762,-0.2531798 -0.4995381,-0.2501851 -0.5053949,-0.2483021 -0.5114502,-0.2472631 -0.5175848,-0.2468363 -0.9215667,-0.2467338 -0.9215667,-0.2467338 -0.9281336,-0.2469757 -0.9346414,-0.2478354 -0.9409884,-0.2495494 -0.9468648,-0.2524738 -0.9516793,-0.2569296 -0.9549294,-0.2626295 -0.9564859,-0.2690067 -0.9566557,-0.275574z" transform="matrix(1,0,0,-1,1.122768,1.0736121)" fill="rgb(185,185,185)" fill-rule="nonzero" shaper:cutDepth="0.000762" stroke-linecap="round" stroke-linejoin="round" /><path d="M2.5040125,0.7920828 L2.5040125,0.6779223 2.4206733,0.6779223 2.4206733,0.8338532 2.4206733,0.8338532 2.4200876,0.8436577 2.4188929,0.8484354 2.4168598,0.8529073 2.4137751,0.8567381 2.4096724,0.8594306 2.4049642,0.860845 2.4000539,0.8611251 2.4000539,0.8611251 2.3954147,0.860864 2.3909451,0.8596055 2.3869641,0.8572265 2.3838924,0.8537416 2.381846,0.849579 2.3806399,0.8450854 2.3799375,0.8358359 2.3798657,0.6641573 2.3798657,0.6641573 2.3806165,0.6529232 2.3822326,0.6475281 2.3852629,0.6427874 2.3898613,0.639555 2.3952278,0.6378329 2.4008111,0.6370997 2.406448,0.6370429 2.6833065,0.6371147 2.6833065,0.6371147 2.688926,0.6369836 2.6945106,0.6375278 2.6999343,0.6390098 2.7046709,0.6420024 2.7079029,0.6465818 2.7096243,0.6519266 2.7103492,0.6631223 2.7103492,0.8338532 2.7103492,0.8338532 2.709871,0.8440636 2.7088534,0.8490816 2.7070553,0.853866 2.7041966,0.8581081 2.7001841,0.8612578 2.6953401,0.8628866 2.6902328,0.8631367 2.6902328,0.8631367 2.6840897,0.8621197 2.6784333,0.8595376 2.673986,0.8551907 2.6710504,0.8497018 2.6710504,0.8497018 2.6699848,0.846471 2.6696463,0.8430802 2.6695416,0.836267 2.6695416,0.6779223 2.5448201,0.6779223 2.5448201,0.7901528 2.5448201,0.7901528 2.5443034,0.7999247 2.5432025,0.8046975 2.5413183,0.8092202 2.5383326,0.813089 2.5342875,0.8158401 2.5295957,0.8172273 2.5247036,0.8174438 2.5247036,0.8174438 2.5199984,0.8171923 2.5154479,0.815983 2.5113623,0.8136485 2.5081732,0.8101872 2.5060279,0.8059955 2.5047321,0.8014637 2.5040125,0.7920828z" transform="matrix(1,0,0,-1,1.122768,1.0736121)" fill="rgb(185,185,185)" fill-rule="nonzero" shaper:cutDepth="0.000762" stroke-linecap="round" stroke-linejoin="round" /><path d="M2.6751455,0.5746821 L2.6751455,0.5746821 2.6741906,0.5690193 2.6741397,0.5632589 2.6741397,0.3974423 2.402057,0.3974423 2.402057,0.3974423 2.3939787,0.3965677 2.3900918,0.3953752 2.3864527,0.3935461 2.3834791,0.3907894 2.3813888,0.3873008 2.3802784,0.3833906 2.3799375,0.3793376 2.3799375,0.3793376 2.3802862,0.375304 2.3814728,0.3714358 2.3836442,0.3680179 2.3865868,0.3652522 2.3901814,0.3633825 2.394041,0.3621559 2.4020655,0.361161 2.6858943,0.3612328 2.6858943,0.3612328 2.6907601,0.3611144 2.6955773,0.361755 2.7001812,0.3633306 2.7042199,0.3660313 2.7072556,0.3698241 2.7091397,0.3743088 2.7100884,0.3790767 2.7103492,0.3839356 2.7103492,0.559829 2.7103492,0.559829 2.7103522,0.5670656 2.7102658,0.5706822 2.7094152,0.5741792 2.7094152,0.5741792 2.7068098,0.5793128 2.7028098,0.583444 2.6976895,0.5860581 2.6920289,0.5871111 2.6920289,0.5871111 2.6865262,0.5861864 2.6815825,0.5836028 2.6776003,0.5796893 2.6751455,0.5746821z" transform="matrix(1,0,0,-1,1.122768,1.0736121)" fill="rgb(185,185,185)" fill-rule="nonzero" shaper:cutDepth="0.000762" stroke-linecap="round" stroke-linejoin="round" /><path d="M2.4644263,0.3054099 L2.4644263,0.3054099 2.4743121,0.3049955 2.4840657,0.3033373 2.4935313,0.300459 2.502516,0.296318 2.5108244,0.2909452 2.5184167,0.2846015 2.5251825,0.2773823 2.5312415,0.2695596 2.5312415,0.2695596 2.5391088,0.2773676 2.5475421,0.2845553 2.5565618,0.2910003 2.5662481,0.2963804 2.576515,0.3005537 2.5872175,0.3034282 2.5981893,0.3049895 2.6092643,0.3054099 2.6092643,0.3054099 2.6250367,0.3042404 2.6404928,0.3008871 2.6479671,0.2982921 2.6552109,0.295109 2.6621961,0.2913921 2.6688321,0.2870835 2.6751008,0.2822556 2.6809705,0.27695 2.686388,0.2711834 2.6912726,0.2649589 2.6956441,0.2583641 2.6994444,0.251424 2.7054638,0.2367986 2.7054638,0.2367986 2.7080794,0.227362 2.709637,0.2176953 2.7103492,0.1981304 2.7103492,0.1062576 2.7103492,0.1062576 2.7104093,0.1007891 2.7097405,0.0953671 2.707979,0.0901898 2.7047939,0.0857586 2.7003638,0.0825703 2.6951842,0.0808183 2.6897549,0.0802173 2.6842899,0.0804373 2.4050111,0.0803937 2.4050111,0.0803937 2.3997955,0.0804713 2.3946355,0.0812458 2.3897871,0.0831552 2.3855861,0.0862406 2.382583,0.0905 2.3807797,0.095391 2.3800009,0.1005487 2.3798657,0.1057636 2.3799375,0.2174725 2.3799375,0.2174725 2.3814819,0.2343877 2.3833117,0.2426836 2.385812,0.2508064 2.3891545,0.2586155 2.3932442,0.2660644 2.3980693,0.2730571 2.4035842,0.2795207 2.4097047,0.2854142 2.4163992,0.2906458 2.4236168,0.2951284 2.431276,0.298806 2.439279,0.3016587 2.4475384,0.3036537 2.455946,0.3048773 2.4644263,0.3054099z M2.5042999,0.2393132 L2.5042999,0.2393132 2.5012177,0.2447218 2.4974878,0.2497052 2.4930594,0.25408 2.4880324,0.2577513 2.4825562,0.2607113 2.4767269,0.2628948 2.4706376,0.2641854 2.4644263,0.2646023 2.4644263,0.2646023 2.4570965,0.2640014 2.4499793,0.2621614 2.4432514,0.2591931 2.4371917,0.255029 2.4318425,0.2499836 2.4274667,0.2440746 2.4242619,0.2374579 2.4221819,0.2304045 2.4221819,0.2304045 2.4211914,0.2261425 2.4208071,0.2217817 2.4206733,0.2130282 2.4206733,0.1251308 2.5086105,0.1251308 2.5086105,0.2139522 2.5086105,0.2139522 2.5080454,0.2269329 2.5067545,0.2333007 2.5042999,0.2393132z M2.6625009,0.2348588 L2.6625009,0.2348588 2.6579731,0.2413268 2.6526453,0.2471533 2.6465965,0.252227 2.6399498,0.2564884 2.6328546,0.2599519 2.6253918,0.262529 2.6176426,0.2640396 2.6097672,0.2646023 2.6097672,0.2646023 2.600491,0.2638424 2.5914302,0.2617206 2.5828015,0.2582323 2.5748066,0.2534692 2.5675126,0.2476866 2.5612582,0.2407969 2.5562042,0.2329821 2.5525074,0.2244414 2.5525074,0.2244414 2.5507734,0.2190388 2.5498274,0.2134439 2.5494181,0.2021031 2.5494181,0.1216547 2.6695416,0.1216547 2.6695416,0.1975717 2.6695416,0.1975717 2.6693483,0.2071604 2.6684489,0.2167067 2.6662811,0.2260488 2.6625009,0.2348588z" transform="matrix(1,0,0,-1,1.122768,1.0736121)" fill="rgb(185,185,185)" fill-rule="nonzero" shaper:cutDepth="0.000762" stroke-linecap="round" stroke-linejoin="round" /><path d="M2.6963395,-0.190028 L2.6963395,-0.190028 2.7021062,-0.1932531 2.706798,-0.1978937 2.7095748,-0.2038778 2.7103492,-0.2104318 2.7103492,-0.2104318 2.7100346,-0.2143804 2.7090946,-0.2182254 2.7075512,-0.2218736 2.7053099,-0.2251374 2.7024719,-0.2278986 2.6991442,-0.2300439 2.6953846,-0.2312854 2.6914541,-0.2317695 2.6914541,-0.2317695 2.6876355,-0.2314333 2.6839478,-0.2303652 2.6767343,-0.2277493 2.3955995,-0.1214886 2.3955995,-0.1214886 2.3893519,-0.1184712 2.3840328,-0.1140407 2.3820387,-0.1112026 2.3806376,-0.1080276 2.3799452,-0.1046274 2.3799375,-0.1011567 2.3799375,-0.1011567 2.380093,-0.0969534 2.3809627,-0.0928364 2.3826962,-0.0890158 2.3854356,-0.085822 2.3924253,-0.0811715 2.4001201,-0.0777776 2.6801746,0.0294561 2.6801746,0.0294561 2.6857531,0.0308041 2.6914541,0.0314678 2.6914541,0.0314678 2.6953792,0.0309706 2.6991089,0.0296542 2.702435,0.0275133 2.7052501,0.0247334 2.707472,0.0214608 2.7090603,0.0178356 2.7100364,0.0140035 2.7103492,0.0100582 2.7103492,0.0100582 2.7102655,0.0064748 2.7095509,0.002964 2.708032,-0.0002807 2.7059112,-0.003173 2.7003518,-0.007663 2.6938867,-0.0107372 2.6551729,-0.0251385 2.6551729,-0.174117 2.6963395,-0.190028z M2.6143653,-0.0415261 L2.4592396,-0.1001244 2.6143653,-0.1587226 2.6143653,-0.0415261z" transform="matrix(1,0,0,-1,1.122768,1.0736121)" fill="rgb(185,185,185)" fill-rule="nonzero" shaper:cutDepth="0.000762" stroke-linecap="round" stroke-linejoin="round" /><path d="M2.3799375,-0.3784036 L2.3798657,-0.3813158 2.3814239,-0.4133189 2.3814239,-0.4133189 2.383696,-0.4299265 2.3857552,-0.4380565 2.3885135,-0.4459756 2.3920467,-0.4535813 2.3963594,-0.4607723 2.4013066,-0.4675444 2.4069158,-0.4737774 2.4130867,-0.4794562 2.419809,-0.4844692 2.4270111,-0.4887647 2.4346062,-0.4923187 2.4425455,-0.4950203 2.4506944,-0.4969981 2.4590026,-0.4981396 2.4673719,-0.4986709 2.4673719,-0.4986709 2.4776603,-0.4979752 2.4878116,-0.4961641 2.497669,-0.4931367 2.5071297,-0.4890342 2.5160445,-0.4838512 2.52427,-0.477634 2.5316411,-0.4704223 2.537923,-0.4622458 2.537923,-0.4622458 2.5430902,-0.4535594 2.547072,-0.444265 2.5500094,-0.4345925 2.5522918,-0.4247432 2.5636744,-0.3713171 2.5636744,-0.3713171 2.5658703,-0.3617966 2.5691752,-0.3526115 2.5691752,-0.3526115 2.5729914,-0.3463877 2.577601,-0.340727 2.5830504,-0.3358675 2.5890561,-0.3317177 2.5955781,-0.328435 2.6024481,-0.3259646 2.6095995,-0.3244958 2.6168798,-0.3239457 2.6168798,-0.3239457 2.6254972,-0.3246695 2.6339002,-0.3266977 2.6419004,-0.3299819 2.649261,-0.3345162 2.6558449,-0.3401234 2.6613884,-0.3467557 2.6656478,-0.3542803 2.668464,-0.3624542 2.668464,-0.3624542 2.6698432,-0.3727997 2.6704756,-0.3832172 2.6704423,-0.4128248 2.6704423,-0.4128248 2.670169,-0.4230617 2.668464,-0.4331489 2.668464,-0.4331489 2.6656345,-0.4400303 2.6617448,-0.4463731 2.6568727,-0.4519968 2.6512781,-0.4569029 2.6450787,-0.4610185 2.6383423,-0.4641776 2.6311708,-0.4661602 2.6237768,-0.4669876 2.6237768,-0.4669876 2.6193225,-0.4665565 2.6153203,-0.4664906 2.6153203,-0.4664906 2.6075555,-0.4678134 2.6039661,-0.4694463 2.6007762,-0.4717681 2.5981196,-0.4746824 2.5960758,-0.4780558 2.5948899,-0.4818172 2.5944644,-0.4857389 2.5944644,-0.4857389 2.5950924,-0.4907192 2.5968654,-0.4954167 2.5997747,-0.499501 2.6036351,-0.5027125 2.6080554,-0.505095 2.612809,-0.5067125 2.622771,-0.5078669 2.622771,-0.5078669 2.6355463,-0.5068221 2.6480452,-0.5039861 2.6600281,-0.4994367 2.6712392,-0.4932242 2.6814954,-0.4855358 2.6904761,-0.476392 2.6980103,-0.4660232 2.7038832,-0.4546304 2.7038832,-0.4546304 2.7067463,-0.4445346 2.7087598,-0.4342338 2.7099489,-0.4238073 2.7103492,-0.4133199 2.7103492,-0.3810159 2.7103492,-0.3810159 2.7098033,-0.3715842 2.7086582,-0.3622079 2.7068144,-0.3529413 2.7041344,-0.3438832 2.7005842,-0.3351293 2.6962444,-0.3267374 2.6910292,-0.3188621 2.6849988,-0.3115904 2.6782543,-0.3049762 2.6708384,-0.299125 2.6627971,-0.2941683 2.6542305,-0.2901871 2.6452976,-0.2871163 2.6360986,-0.2849629 2.6267446,-0.2836484 2.6173109,-0.2831382 2.6173109,-0.2831382 2.6090091,-0.2835328 2.6007584,-0.2845304 2.5926186,-0.2862064 2.584628,-0.2884939 2.5769191,-0.291597 2.5694832,-0.2953087 2.5624651,-0.2997605 2.5558559,-0.3047983 2.5497265,-0.3104115 2.5440916,-0.3165193 2.5390736,-0.3231449 2.5346525,-0.3301815 2.5308508,-0.3375724 2.5276184,-0.3452287 2.5229075,-0.361161 2.5118752,-0.4148082 2.5118752,-0.4148082 2.5099872,-0.4236052 2.5073892,-0.432215 2.5073892,-0.432215 2.5043525,-0.437822 2.5005242,-0.4429216 2.4959258,-0.4473391 2.4907407,-0.4510514 2.485073,-0.4539732 2.4790448,-0.456056 2.4727998,-0.4573398 2.466438,-0.4577915 2.466438,-0.4577915 2.4573632,-0.4569178 2.4486141,-0.4543695 2.4405777,-0.4500744 2.4337496,-0.4440339 2.4282564,-0.436766 2.4243637,-0.4285198 2.4219989,-0.4197205 2.4209606,-0.4106617 2.4204462,-0.3857852 2.4204462,-0.3833022 2.4204462,-0.3833022 2.4209989,-0.3743465 2.4228412,-0.36557 2.4261506,-0.3572321 2.4311003,-0.3497552 2.4375785,-0.343552 2.4450932,-0.3386558 2.4533487,-0.3351472 2.4619836,-0.3327107 2.4619836,-0.3327107 2.4686542,-0.3301411 2.4744238,-0.3259502 2.4766089,-0.3231213 2.4781378,-0.3198881 2.478862,-0.3163861 2.4789389,-0.3128098 2.4789389,-0.3128098 2.4785415,-0.3086907 2.4773978,-0.3047155 2.4754264,-0.3010787 2.4727026,-0.2979643 2.4693829,-0.2954978 2.4655995,-0.2938194 2.4615798,-0.2928457 2.4574574,-0.2924779 2.4574574,-0.2924779 2.4483479,-0.2935063 2.4395264,-0.2960511 2.4310533,-0.2995557 2.4229722,-0.3039011 2.4229722,-0.3039011 2.413633,-0.3101859 2.4051362,-0.3175669 2.3977094,-0.3260256 2.3914625,-0.3353887 2.3864758,-0.3454797 2.3828187,-0.3561245 2.3806589,-0.3671709 2.3799375,-0.3784036z" transform="matrix(1,0,0,-1,1.122768,1.0736121)" fill="rgb(185,185,185)" fill-rule="nonzero" shaper:cutDepth="0.000762" stroke-linecap="round" stroke-linejoin="round" /><path d="M2.7021589,-0.565486 L2.7021589,-0.565486 2.6950492,-0.5637697 2.6877182,-0.5635462 2.4020368,-0.5635462 2.4020368,-0.5635462 2.3939296,-0.5642838 2.3900105,-0.5654127 2.3863798,-0.5672543 2.3833157,-0.569942 2.3812524,-0.573446 2.3801386,-0.5773647 2.3799375,-0.5814354 2.3799375,-0.5814354 2.3805007,-0.5860542 2.3821281,-0.5904121 2.3847558,-0.5942492 2.3881277,-0.5974567 2.3881277,-0.5974567 2.3917643,-0.5989858 2.3956721,-0.599587 2.4035742,-0.5998276 2.6876955,-0.5997558 2.6876955,-0.5997558 2.6940895,-0.5997389 2.6972685,-0.5994175 2.700291,-0.5983907 2.700291,-0.5983907 2.7045428,-0.5954611 2.7076839,-0.5913468 2.7096089,-0.5865528 2.7103492,-0.5814354 2.7103492,-0.5814354 2.7097866,-0.576818 2.7081612,-0.5724624 2.7056738,-0.5685242 2.7021589,-0.565486z" transform="matrix(1,0,0,-1,1.122768,1.0736121)" fill="rgb(185,185,185)" fill-rule="nonzero" shaper:cutDepth="0.000762" stroke-linecap="round" stroke-linejoin="round" /><path d="M2.4134169,-0.6977513 L2.4134169,-0.6977513 2.4266828,-0.6859577 2.4412373,-0.6757934 2.4568379,-0.6673313 2.4733436,-0.6607967 2.4904662,-0.6561234 2.5079634,-0.6531101 2.5256366,-0.6514686 2.5433831,-0.6509807 2.5433831,-0.6509807 2.5689849,-0.6517666 2.5817305,-0.6530483 2.5943721,-0.6551111 2.6068104,-0.6581699 2.6189451,-0.6622684 2.6307678,-0.6671985 2.642169,-0.6730369 2.642169,-0.6730369 2.6566099,-0.6815887 2.6701327,-0.691524 2.6823266,-0.7030489 2.6877961,-0.7094156 2.6927317,-0.7162043 2.6970463,-0.7234031 2.7007891,-0.7309159 2.7039044,-0.7387094 2.7063426,-0.7467407 2.7094695,-0.7632237 2.7103492,-0.7799808 2.7103492,-0.8501329 2.7103492,-0.8501329 2.7101651,-0.8560185 2.7092401,-0.8618315 2.7070729,-0.8673 2.7053637,-0.8697108 2.7031898,-0.8716929 2.6978746,-0.8742176 2.6921163,-0.8754469 2.6803564,-0.8756377 2.4056577,-0.8757095 2.4056577,-0.8757095 2.4002756,-0.8755667 2.394973,-0.8746538 2.3899846,-0.8726361 2.3857641,-0.8693058 2.3827478,-0.8648525 2.3809428,-0.859783 2.3798657,-0.8490867 2.3799375,-0.7810187 2.3799375,-0.7810187 2.3803205,-0.7694839 2.3817108,-0.7580277 2.3842391,-0.7467675 2.3878391,-0.7358026 2.392687,-0.7253302 2.398649,-0.7154492 2.4055735,-0.7062173 2.4134169,-0.6977513z M2.6695416,-0.7800129 L2.6695416,-0.7800129 2.6690136,-0.7671191 2.6667374,-0.7544216 2.6646183,-0.7483256 2.6617183,-0.7425605 2.6581825,-0.7371601 2.6540951,-0.7321647 2.6540951,-0.7321647 2.64755,-0.7252711 2.6403866,-0.7190198 2.6327566,-0.7133517 2.6246459,-0.7083907 2.6162096,-0.70401 2.6074677,-0.7002732 2.5984763,-0.6971875 2.5892916,-0.6947338 2.5892916,-0.6947338 2.5803459,-0.6927141 2.5712113,-0.6919065 2.5528666,-0.6917882 2.5528666,-0.6917882 2.5174082,-0.6921005 2.50856,-0.6926503 2.4998176,-0.6941122 2.4912984,-0.6965527 2.483034,-0.6997629 2.483034,-0.6997629 2.4744634,-0.7035931 2.4661684,-0.7079867 2.4582211,-0.7129837 2.4506762,-0.7185688 2.4436244,-0.7247654 2.4371451,-0.7315558 2.4313954,-0.7389785 2.4267081,-0.7471083 2.4267081,-0.7471083 2.4233415,-0.7547244 2.4215349,-0.7628542 2.4206733,-0.7794822 2.4206733,-0.8348301 2.6695416,-0.8348301 2.6695416,-0.7800129z" transform="matrix(1,0,0,-1,1.122768,1.0736121)" fill="rgb(185,185,185)" fill-rule="nonzero" shaper:cutDepth="0.000762" stroke-linecap="round" stroke-linejoin="round" /><path d="M0.3958125,0.7484015 L0.3958125,0.634241 0.3124733,0.634241 0.3124733,0.7901719 0.3124733,0.7901719 0.3118876,0.7999764 0.3106929,0.8047541 0.3086598,0.809226 0.3055751,0.8130568 0.3014724,0.8157493 0.2967642,0.8171637 0.2918539,0.8174438 0.2918539,0.8174438 0.2872147,0.8171827 0.2827451,0.8159242 0.2787641,0.8135452 0.2756924,0.8100603 0.273646,0.8058977 0.2724399,0.8014041 0.2717375,0.7921546 0.2716657,0.620476 0.2716657,0.620476 0.2724165,0.6092419 0.2740326,0.6038468 0.2770629,0.5991061 0.2816613,0.5958737 0.2870278,0.5941516 0.2926111,0.5934184 0.298248,0.5933616 0.5751065,0.5934334 0.5751065,0.5934334 0.580726,0.5933023 0.5863106,0.5938465 0.5917343,0.5953285 0.5964709,0.5983211 0.5997029,0.6029005 0.6014243,0.6082453 0.6021492,0.6194411 0.6021492,0.7901719 0.6021492,0.7901719 0.601671,0.8003823 0.6006534,0.8054003 0.5988553,0.8101847 0.5959966,0.8144268 0.5919841,0.8175765 0.5871401,0.8192053 0.5820328,0.8194554 0.5820328,0.8194554 0.5758897,0.8184384 0.5702333,0.8158563 0.565786,0.8115094 0.5628504,0.8060205 0.5628504,0.8060205 0.5617848,0.8027897 0.5614463,0.7993989 0.5613416,0.7925857 0.5613416,0.634241 0.4366201,0.634241 0.4366201,0.7464715 0.4366201,0.7464715 0.4361034,0.7562434 0.4350025,0.7610162 0.4331183,0.7655389 0.4301326,0.7694077 0.4260875,0.7721588 0.4213957,0.773546 0.4165036,0.7737625 0.4165036,0.7737625 0.4117984,0.773511 0.4072479,0.7723017 0.4031623,0.7699672 0.3999732,0.7665059 0.3978279,0.7623142 0.3965321,0.7577824 0.3958125,0.7484015z" transform="matrix(1,0,0,-1,1.122768,1.0736121)" fill="rgb(185,185,185)" fill-rule="nonzero" shaper:cutDepth="0.000762" stroke-linecap="round" stroke-linejoin="round" /><path d="M0.5669455,0.5310008 L0.5669455,0.5310008 0.5659906,0.525338 0.5659397,0.5195776 0.5659397,0.353761 0.293857,0.353761 0.293857,0.353761 0.2857787,0.3528864 0.2818918,0.3516939 0.2782527,0.3498648 0.2752791,0.3471081 0.2731888,0.3436195 0.2720784,0.3397093 0.2717375,0.3356563 0.2717375,0.3356563 0.2720862,0.3316227 0.2732728,0.3277545 0.2754442,0.3243366 0.2783868,0.3215709 0.2819814,0.3197012 0.285841,0.3184746 0.2938655,0.3174797 0.5776943,0.3175515 0.5776943,0.3175515 0.5825601,0.3174331 0.5873773,0.3180737 0.5919812,0.3196493 0.5960199,0.32235 0.5990556,0.3261428 0.6009397,0.3306275 0.6018884,0.3353954 0.6021492,0.3402543 0.6021492,0.5161477 0.6021492,0.5161477 0.6021522,0.5233843 0.6020658,0.5270009 0.6012152,0.5304979 0.6012152,0.5304979 0.5986098,0.5356315 0.5946098,0.5397627 0.5894895,0.5423768 0.5838289,0.5434298 0.5838289,0.5434298 0.5783262,0.5425051 0.5733825,0.5399215 0.5694003,0.536008 0.5669455,0.5310008z" transform="matrix(1,0,0,-1,1.122768,1.0736121)" fill="rgb(185,185,185)" fill-rule="nonzero" shaper:cutDepth="0.000762" stroke-linecap="round" stroke-linejoin="round" /><path d="M0.3562263,0.2617286 L0.3562263,0.2617286 0.3661121,0.2613142 0.3758657,0.259656 0.3853313,0.2567777 0.394316,0.2526367 0.4026244,0.2472639 0.4102167,0.2409202 0.4169825,0.233701 0.4230415,0.2258783 0.4230415,0.2258783 0.4309088,0.2336863 0.4393421,0.240874 0.4483618,0.247319 0.4580481,0.2526991 0.468315,0.2568724 0.4790175,0.2597469 0.4899893,0.2613082 0.5010643,0.2617286 0.5010643,0.2617286 0.5168367,0.2605591 0.5322928,0.2572058 0.5397671,0.2546108 0.5470109,0.2514277 0.5539961,0.2477108 0.5606321,0.2434022 0.5669008,0.2385743 0.5727705,0.2332687 0.578188,0.2275021 0.5830726,0.2212776 0.5874441,0.2146828 0.5912444,0.2077427 0.5972638,0.1931173 0.5972638,0.1931173 0.5998794,0.1836807 0.601437,0.174014 0.6021492,0.1544491 0.6021492,0.0625763 0.6021492,0.0625763 0.6022093,0.0571078 0.6015405,0.0516858 0.599779,0.0465085 0.5965939,0.0420773 0.5921638,0.038889 0.5869842,0.037137 0.5815549,0.036536 0.5760899,0.036756 0.2968111,0.0367124 0.2968111,0.0367124 0.2915955,0.03679 0.2864355,0.0375645 0.2815871,0.0394739 0.2773861,0.0425593 0.274383,0.0468187 0.2725797,0.0517097 0.2718009,0.0568674 0.2716657,0.0620823 0.2717375,0.1737912 0.2717375,0.1737912 0.2732819,0.1907064 0.2751117,0.1990023 0.277612,0.2071251 0.2809545,0.2149342 0.2850442,0.2223831 0.2898693,0.2293758 0.2953842,0.2358394 0.3015047,0.2417329 0.3081992,0.2469645 0.3154168,0.2514471 0.323076,0.2551247 0.331079,0.2579774 0.3393384,0.2599724 0.347746,0.261196 0.3562263,0.2617286z M0.3960999,0.1956319 L0.3960999,0.1956319 0.3930177,0.2010405 0.3892878,0.2060239 0.3848594,0.2103987 0.3798324,0.21407 0.3743562,0.21703 0.3685269,0.2192135 0.3624376,0.2205041 0.3562263,0.220921 0.3562263,0.220921 0.3488965,0.2203201 0.3417793,0.2184801 0.3350514,0.2155118 0.3289917,0.2113477 0.3236425,0.2063023 0.3192667,0.2003933 0.3160619,0.1937766 0.3139819,0.1867232 0.3139819,0.1867232 0.3129914,0.1824612 0.3126071,0.1781004 0.3124733,0.1693469 0.3124733,0.0814495 0.4004105,0.0814495 0.4004105,0.1702709 0.4004105,0.1702709 0.3998454,0.1832516 0.3985545,0.1896194 0.3960999,0.1956319z M0.5543009,0.1911775 L0.5543009,0.1911775 0.5497731,0.1976455 0.5444453,0.203472 0.5383965,0.2085457 0.5317498,0.2128071 0.5246546,0.2162706 0.5171918,0.2188477 0.5094426,0.2203583 0.5015672,0.220921 0.5015672,0.220921 0.492291,0.2201611 0.4832302,0.2180393 0.4746015,0.214551 0.4666066,0.2097879 0.4593126,0.2040053 0.4530582,0.1971156 0.4480042,0.1893008 0.4443074,0.1807601 0.4443074,0.1807601 0.4425734,0.1753575 0.4416274,0.1697626 0.4412181,0.1584218 0.4412181,0.0779734 0.5613416,0.0779734 0.5613416,0.1538904 0.5613416,0.1538904 0.5611483,0.1634791 0.5602489,0.1730254 0.5580811,0.1823675 0.5543009,0.1911775z" transform="matrix(1,0,0,-1,1.122768,1.0736121)" fill="rgb(185,185,185)" fill-rule="nonzero" shaper:cutDepth="0.000762" stroke-linecap="round" stroke-linejoin="round" /><path d="M0.5881395,-0.2337093 L0.5881395,-0.2337093 0.5939062,-0.2369344 0.598598,-0.241575 0.6013748,-0.2475591 0.6021492,-0.2541131 0.6021492,-0.2541131 0.6018346,-0.2580617 0.6008946,-0.2619067 0.5993512,-0.2655549 0.5971099,-0.2688187 0.5942719,-0.2715799 0.5909442,-0.2737252 0.5871846,-0.2749667 0.5832541,-0.2754508 0.5832541,-0.2754508 0.5794355,-0.2751146 0.5757478,-0.2740465 0.5685343,-0.2714306 0.2873995,-0.1651699 0.2873995,-0.1651699 0.2811519,-0.1621525 0.2758328,-0.157722 0.2738387,-0.1548839 0.2724376,-0.1517089 0.2717452,-0.1483087 0.2717375,-0.144838 0.2717375,-0.144838 0.271893,-0.1406347 0.2727627,-0.1365177 0.2744962,-0.1326971 0.2772356,-0.1295033 0.2842253,-0.1248528 0.2919201,-0.1214589 0.5719746,-0.0142252 0.5719746,-0.0142252 0.5775531,-0.0128772 0.5832541,-0.0122135 0.5832541,-0.0122135 0.5871792,-0.0127107 0.5909089,-0.0140271 0.594235,-0.016168 0.5970501,-0.0189479 0.599272,-0.0222205 0.6008603,-0.0258457 0.6018364,-0.0296778 0.6021492,-0.0336231 0.6021492,-0.0336231 0.6020655,-0.0372065 0.6013509,-0.0407173 0.599832,-0.043962 0.5977112,-0.0468543 0.5921518,-0.0513443 0.5856867,-0.0544185 0.5469729,-0.0688198 0.5469729,-0.2177983 0.5881395,-0.2337093z M0.5061653,-0.0852074 L0.3510396,-0.1438057 0.5061653,-0.2024039 0.5061653,-0.0852074z" transform="matrix(1,0,0,-1,1.122768,1.0736121)" fill="rgb(185,185,185)" fill-rule="nonzero" shaper:cutDepth="0.000762" stroke-linecap="round" stroke-linejoin="round" /><path d="M0.2717375,-0.3469358 L0.2717375,-0.3469358 0.271995,-0.3518048 0.2731477,-0.3565396 0.2755526,-0.3607697 0.2792395,-0.3639501 0.2836898,-0.3659284 0.2884519,-0.36699 0.2981762,-0.367627 0.5124657,-0.3675553 0.2857917,-0.5157564 0.2857917,-0.5157564 0.2804742,-0.5197765 0.2758046,-0.5245208 0.2726077,-0.5303656 0.2717375,-0.5369639 0.2717375,-0.5369639 0.2725547,-0.5426952 0.2749891,-0.5479387 0.2787424,-0.5523572 0.2838073,-0.5551405 0.2838073,-0.5551405 0.2905144,-0.5560676 0.297314,-0.5561463 0.575514,-0.5560745 0.575514,-0.5560745 0.583919,-0.5559246 0.588089,-0.5554067 0.592091,-0.5541346 0.592091,-0.5541346 0.5963656,-0.5507946 0.5995855,-0.5464292 0.6014587,-0.5413418 0.6021492,-0.535958 0.6021492,-0.535958 0.6017586,-0.531538 0.6005949,-0.5272578 0.5984429,-0.5233796 0.5953687,-0.5201918 0.5915429,-0.5179369 0.5873722,-0.5164337 0.5785842,-0.5152669 0.3608493,-0.5152669 0.5890244,-0.3675553 0.5890244,-0.3675553 0.5941921,-0.3636009 0.5984589,-0.3587128 0.6013343,-0.3528717 0.6021492,-0.3464329 0.6021492,-0.3464329 0.6018161,-0.3421424 0.6006713,-0.3379962 0.5985659,-0.3342486 0.5954731,-0.3312599 0.5917199,-0.3291636 0.5876201,-0.3278456 0.5790872,-0.3268195 0.2962998,-0.3267477 0.2962998,-0.3267477 0.2871475,-0.3275188 0.2827046,-0.3287187 0.2785911,-0.3307657 0.275221,-0.3338848 0.2729459,-0.3378747 0.2718563,-0.3423387 0.2717375,-0.3469358z" transform="matrix(1,0,0,-1,1.122768,1.0736121)" fill="rgb(185,185,185)" fill-rule="nonzero" shaper:cutDepth="0.000762" stroke-linecap="round" stroke-linejoin="round" /><path d="M0.3958125,-0.6769883 L0.3958125,-0.7911488 0.3124733,-0.7911488 0.3124733,-0.6352179 0.3124733,-0.6352179 0.3118876,-0.6254133 0.3106929,-0.6206357 0.3086598,-0.6161638 0.3055751,-0.6123329 0.3014724,-0.6096405 0.2967642,-0.6082261 0.2918539,-0.607946 0.2918539,-0.607946 0.2872147,-0.6082071 0.2827451,-0.6094655 0.2787641,-0.6118446 0.2756924,-0.6153295 0.273646,-0.6194921 0.2724399,-0.6239856 0.2717375,-0.6332351 0.2716657,-0.8049138 0.2716657,-0.8049138 0.2724165,-0.8161478 0.2740326,-0.8215429 0.2770629,-0.8262837 0.2816613,-0.8295161 0.2870278,-0.8312382 0.2926111,-0.8319714 0.298248,-0.8320282 0.5751065,-0.8319564 0.5751065,-0.8319564 0.580726,-0.8320874 0.5863106,-0.8315432 0.5917343,-0.8300613 0.5964709,-0.8270687 0.5997029,-0.8224893 0.6014243,-0.8171445 0.6021492,-0.8059487 0.6021492,-0.6352179 0.6021492,-0.6352179 0.601671,-0.6250074 0.6006534,-0.6199894 0.5988553,-0.615205 0.5959966,-0.6109629 0.5919841,-0.6078133 0.5871401,-0.6061844 0.5820328,-0.6059343 0.5820328,-0.6059343 0.5758897,-0.6069514 0.5702333,-0.6095334 0.565786,-0.6138803 0.5628504,-0.6193692 0.5628504,-0.6193692 0.5617848,-0.6226001 0.5614463,-0.6259908 0.5613416,-0.6328041 0.5613416,-0.7911488 0.4366201,-0.7911488 0.4366201,-0.6789183 0.4366201,-0.6789183 0.4361034,-0.6691464 0.4350025,-0.6643735 0.4331183,-0.6598509 0.4301326,-0.655982 0.4260875,-0.653231 0.4213957,-0.6518437 0.4165036,-0.6516273 0.4165036,-0.6516273 0.4117984,-0.6518788 0.4072479,-0.653088 0.4031623,-0.6554226 0.3999732,-0.6588839 0.3978279,-0.6630755 0.3965321,-0.6676074 0.3958125,-0.6769883z" transform="matrix(1,0,0,-1,1.122768,1.0736121)" fill="rgb(185,185,185)" fill-rule="nonzero" shaper:cutDepth="0.000762" stroke-linecap="round" stroke-linejoin="round" /><path d="M0.8564365,0 a0.635,0.635 0 1,1 1.27,0 a0.635,0.635 0 1,1 -1.27,0z" transform="matrix(1,0,0,-1,1.122768,1.0736121)" fill="rgb(255,255,255)" stroke="rgb(0,0,0)" stroke-width="0.0010cm" stroke-linecap="round" stroke-linejoin="round" shaper:cutDepth="0.000889" /></svg>