<?xml version="1.0" encoding="utf-8"?>
<!-- Generator: Fusion 360, Shaper Origin Export Add-In, Version 1.6.10  -->
<svg xmlns="http://www.w3.org/2000/svg" xmlns:xlink="http://www.w3.org/1999/xlink" xmlns:shaper="http://www.shapertools.com/namespaces/shaper" shaper:fusionaddin="version:1.6.10" width="12.3825cm" height="1.8415cm" version="1.1" x="0cm" y="0cm" viewBox="0 0 12.3825 1.8415" enable-background="new 0 0 12.3825 1.8415" xml:space="preserve"><path d="M-6.19125,0.92075 L-6.19125,-0.92075 6.19125,-0.92075 6.19125,0.92075 -6.19125,0.92075z" transform="matrix(1,0,0,-1,6.19125,0.92075)" fill="rgb(0,0,0)" shaper:cutDepth="0.0015875" stroke-linecap="round" stroke-linejoin="round" /><path d="M-4.6338584,-0.2415655 L-4.6338987,-0.2414732 -4.6338987,-0.2414732 -4.6509991,-0.2425676 -4.6678969,-0.2454065 -4.6843071,-0.250337 -4.7000089,-0.2571942 -4.7147017,-0.2660104 -4.7282865,-0.2764559 -4.7407159,-0.2882486 -4.7520012,-0.3011449 -4.7520012,-0.3011449 -4.7638205,-0.3175397 -4.7744012,-0.3347592 -4.7835424,-0.3527848 -4.7912369,-0.3714734 -4.7974362,-0.3907101 -4.8020001,-0.4103981 -4.8048014,-0.430414 -4.8057612,-0.4506015 -4.8057612,-0.4506015 -4.8049658,-0.4709944 -4.8025515,-0.4912584 -4.7986605,-0.5112927 -4.7931395,-0.5309393 -4.7860962,-0.5500936 -4.7775612,-0.5686306 -4.767442,-0.5863533 -4.7557884,-0.6031063 -4.7557884,-0.6031063 -4.7445639,-0.616498 -4.7322621,-0.6289026 -4.7187403,-0.6399713 -4.7040253,-0.6493867 -4.6882615,-0.6569235 -4.6716255,-0.662252 -4.6544444,-0.6654279 -4.6369991,-0.6663805 -4.6369991,-0.6663805 -4.6225238,-0.6656613 -4.6082011,-0.6634491 -4.5942117,-0.659663 -4.5806965,-0.6544313 -4.5678389,-0.6477451 -4.5558141,-0.6396537 -4.5446402,-0.6304253 -4.5342823,-0.6202873 -4.5342823,-0.6202873 -4.5211386,-0.6049113 -4.5159269,-0.5962278 -4.5144201,-0.5914182 -4.5137759,-0.5863871 -4.5137759,-0.5863871 -4.5142308,-0.5812187 -4.5154314,-0.5761723 -4.517643,-0.5714809 -4.5207536,-0.5673307 -4.5246469,-0.5639035 -4.5292119,-0.5614428 -4.534201,-0.560027 -4.5393627,-0.5595071 -4.5393627,-0.5595071 -4.5463889,-0.5601008 -4.553002,-0.5625188 -4.558502,-0.5669235 -4.5630098,-0.5723467 -4.5630098,-0.5723467 -4.5697501,-0.580624 -4.5769951,-0.5884635 -4.5849411,-0.5955892 -4.5935298,-0.6019303 -4.6028182,-0.6071874 -4.612785,-0.6109938 -4.6232046,-0.613322 -4.6338584,-0.6139137 -4.6338584,-0.6139137 -4.6443113,-0.6135346 -4.6546387,-0.6118733 -4.664696,-0.6090064 -4.6742891,-0.6048339 -4.6833453,-0.5996044 -4.6917561,-0.5933821 -4.6995351,-0.5863924 -4.7066469,-0.5787203 -4.7066469,-0.5787203 -4.7171182,-0.5652431 -4.7262947,-0.5508526 -4.7341855,-0.5357193 -4.7407662,-0.5199715 -4.7460076,-0.5037289 -4.7499827,-0.4871309 -4.7523503,-0.4702288 -4.7532944,-0.4531879 -4.7532944,-0.4531879 -4.7525654,-0.4396257 -4.7510858,-0.4261271 -4.7487365,-0.4127493 -4.7455185,-0.3995556 -4.7413652,-0.3866249 -4.736237,-0.3740496 -4.7301401,-0.3619142 -4.7231292,-0.3502824 -4.7152302,-0.3392357 -4.7064438,-0.3288786 -4.6967295,-0.319392 -4.6860178,-0.3110406 -4.6743299,-0.3041386 -4.661791,-0.2989244 -4.6486486,-0.2955095 -4.6351516,-0.2940323 -4.6351516,-0.2940323 -4.6255229,-0.2946328 -4.6160514,-0.2964774 -4.6068845,-0.2994767 -4.5982154,-0.3037161 -4.5900985,-0.3089285 -4.5825956,-0.3149976 -4.5757125,-0.3217571 -4.5693834,-0.329041 -4.5693834,-0.329041 -4.5637307,-0.3360506 -4.5573868,-0.342437 -4.5537059,-0.3450405 -4.5495774,-0.3468845 -4.5451774,-0.347753 -4.5406559,-0.3479771 -4.5406559,-0.3479771 -4.5354425,-0.3473594 -4.5304387,-0.345776 -4.5258684,-0.3431952 -4.521905,-0.3397528 -4.5186638,-0.3356249 -4.5163547,-0.3309096 -4.5149203,-0.3258625 -4.5144225,-0.3206352 -4.5144225,-0.3206352 -4.5151724,-0.3138535 -4.5177893,-0.3075472 -4.5259689,-0.2966187 -4.5259689,-0.2966187 -4.5365687,-0.2851055 -4.5480595,-0.2744884 -4.5604495,-0.2649256 -4.5737678,-0.2567167 -4.5879529,-0.2501082 -4.6028592,-0.2453614 -4.6182384,-0.2424702 -4.6338584,-0.2415655z" transform="matrix(1,0,0,-1,6.19125,0.92075)" fill="rgb(104,104,104)" fill-rule="nonzero" shaper:cutDepth="0.0000762" stroke-linecap="round" stroke-linejoin="round" /><path d="M-4.1968506,-0.2696387 L-4.1968506,-0.4070024 -4.3985891,-0.4070024 -4.3985891,-0.2710344 -4.3985891,-0.2710344 -4.3996151,-0.2603198 -4.4011135,-0.2551512 -4.4035578,-0.2503532 -4.4070451,-0.2462559 -4.4115945,-0.2433921 -4.4167716,-0.2419233 -4.4221437,-0.2415655 -4.4221437,-0.2415655 -4.4291154,-0.2425804 -4.4355584,-0.2453949 -4.4383317,-0.2476014 -4.4406323,-0.2502689 -4.443851,-0.2565296 -4.443851,-0.2565296 -4.4450776,-0.2644171 -4.4451441,-0.2724175 -4.4451442,-0.6372493 -4.4451442,-0.6372493 -4.444358,-0.6480695 -4.4429569,-0.6533179 -4.4405155,-0.6581638 -4.436869,-0.6621784 -4.4321952,-0.6649288 -4.4269245,-0.6662195 -4.4214971,-0.6663805 -4.4214971,-0.6663805 -4.4161485,-0.6662082 -4.4109769,-0.664847 -4.4064344,-0.662032 -4.4029486,-0.6579783 -4.4006717,-0.6531407 -4.3993619,-0.6479469 -4.3985891,-0.6372836 -4.3985891,-0.4535574 -4.1968506,-0.4535574 -4.1968506,-0.6346712 -4.1968506,-0.6346712 -4.1968063,-0.6428273 -4.1964828,-0.6468937 -4.1955573,-0.6508622 -4.1955573,-0.6508622 -4.1926742,-0.6574506 -4.1903789,-0.6602168 -4.1875499,-0.6624938 -4.1843805,-0.6642364 -4.1809837,-0.6653972 -4.17385,-0.6663805 -4.17385,-0.6663805 -4.1682036,-0.6660333 -4.1627132,-0.6646836 -4.1578643,-0.661785 -4.1543128,-0.6574015 -4.1521832,-0.6521595 -4.1509802,-0.6466296 -4.1502954,-0.6353438 -4.1502955,-0.2710344 -4.1502955,-0.2710344 -4.1510723,-0.2603224 -4.1524115,-0.2551168 -4.1546482,-0.2502265 -4.1581038,-0.2461232 -4.1626664,-0.2432947 -4.167835,-0.2418309 -4.1732034,-0.2415655 -4.1732034,-0.2415655 -4.1782737,-0.2420691 -4.1831718,-0.2434642 -4.1876445,-0.2459008 -4.1914396,-0.2492978 -4.1943365,-0.2534874 -4.1962129,-0.2582232 -4.1969767,-0.2632583 -4.1968505,-0.2683532 -4.1968506,-0.2696387z" transform="matrix(1,0,0,-1,6.19125,0.92075)" fill="rgb(104,104,104)" fill-rule="nonzero" shaper:cutDepth="0.0000762" stroke-linecap="round" stroke-linejoin="round" /><path d="M-4.0102178,-0.5954395 L-4.0305823,-0.6483681 -4.0305823,-0.6483681 -4.0347285,-0.6557794 -4.0374635,-0.6590429 -4.0407232,-0.6617728 -4.0443984,-0.6639173 -4.0483913,-0.6653854 -4.0525634,-0.6662156 -4.0568158,-0.6663805 -4.0568158,-0.6663805 -4.0618927,-0.6659742 -4.0668452,-0.6647962 -4.0715247,-0.6627866 -4.0757208,-0.6599026 -4.0792719,-0.6562542 -4.0820308,-0.6519753 -4.0836275,-0.6471409 -4.08425,-0.6420869 -4.08425,-0.6420869 -4.0838194,-0.6371851 -4.0824494,-0.6324513 -4.0791736,-0.6231614 -3.9424603,-0.2617024 -3.9424603,-0.2617024 -3.9385807,-0.2536698 -3.9359952,-0.2500332 -3.9328844,-0.2468309 -3.9292354,-0.244267 -3.9251532,-0.2424657 -3.9207816,-0.2415754 -3.9163192,-0.2415655 -3.9163192,-0.2415655 -3.9109203,-0.2417649 -3.905632,-0.2428803 -3.9007243,-0.2451042 -3.8966114,-0.2486143 -3.8933878,-0.2529389 -3.890674,-0.2576217 -3.8863527,-0.2675146 -3.7483884,-0.6275846 -3.7483884,-0.6275846 -3.7466553,-0.6347571 -3.745802,-0.6420869 -3.745802,-0.6420869 -3.7464413,-0.6471334 -3.7481338,-0.6519288 -3.7508864,-0.6562052 -3.7544605,-0.6598245 -3.7586681,-0.6626813 -3.7633291,-0.6647235 -3.7682561,-0.6659784 -3.7733286,-0.6663805 -3.7733286,-0.6663805 -3.7779405,-0.6662726 -3.7824585,-0.6653512 -3.7866334,-0.6633941 -3.790354,-0.6606624 -3.7935245,-0.65732 -3.7961241,-0.6535016 -3.800158,-0.6452145 -3.8186739,-0.5954395 -4.0102178,-0.5954395z M-3.9904249,-0.5429726 L-3.8397437,-0.5429726 -3.9150843,-0.3435254 -3.9904249,-0.5429726z" transform="matrix(1,0,0,-1,6.19125,0.92075)" fill="rgb(104,104,104)" fill-rule="nonzero" shaper:cutDepth="0.0000762" stroke-linecap="round" stroke-linejoin="round" /><path d="M-3.4401458,-0.2755581 L-3.440146,-0.5510732 -3.6306903,-0.2596353 -3.6306903,-0.2596353 -3.6357892,-0.2527647 -3.6418876,-0.2467778 -3.6454577,-0.2443954 -3.6493942,-0.2426803 -3.6578647,-0.2415655 -3.6578647,-0.2415655 -3.6652336,-0.2426163 -3.6719752,-0.2457461 -3.6750326,-0.2479489 -3.6776561,-0.2505718 -3.6812346,-0.2570839 -3.6812346,-0.2570839 -3.6822026,-0.2613405 -3.682485,-0.2657067 -3.6825278,-0.2744497 -3.6825279,-0.6321353 -3.6825279,-0.6321353 -3.6822894,-0.6429418 -3.6815724,-0.6483012 -3.6799414,-0.6534486 -3.6799414,-0.6534486 -3.6756471,-0.6589445 -3.6700345,-0.6630844 -3.6634935,-0.6654928 -3.6565715,-0.6663805 -3.6565715,-0.6663805 -3.6508949,-0.6658796 -3.6453979,-0.6643868 -3.6404206,-0.6616217 -3.6363533,-0.6576355 -3.6334225,-0.6527554 -3.6315703,-0.6473626 -3.630061,-0.6360828 -3.630061,-0.3561379 -3.440146,-0.6495058 -3.440146,-0.6495058 -3.4350028,-0.6561218 -3.4287075,-0.6616188 -3.4250772,-0.6637675 -3.4211887,-0.6653289 -3.4128964,-0.6663805 -3.4128964,-0.6663805 -3.4073799,-0.6659522 -3.4020491,-0.6644804 -3.3972308,-0.6617735 -3.3933882,-0.6577971 -3.390693,-0.6529714 -3.3889983,-0.6477002 -3.387679,-0.6367294 -3.3876791,-0.2731456 -3.3876791,-0.2731456 -3.3885959,-0.2613741 -3.3901701,-0.2556913 -3.3927837,-0.2503811 -3.3967936,-0.2460773 -3.4019031,-0.2431171 -3.4076396,-0.241729 -3.4135429,-0.2415655 -3.4135429,-0.2415655 -3.419803,-0.2418966 -3.4258906,-0.2433787 -3.4313294,-0.2464706 -3.4354184,-0.2512109 -3.4379619,-0.2569327 -3.4393268,-0.2630554 -3.4401458,-0.2755581z" transform="matrix(1,0,0,-1,6.19125,0.92075)" fill="rgb(104,104,104)" fill-rule="nonzero" shaper:cutDepth="0.0000762" stroke-linecap="round" stroke-linejoin="round" /><path d="M-2.9645267,-0.3689454 L-2.8918394,-0.2962767 -2.8918394,-0.2962767 -2.8863471,-0.2903252 -2.8815825,-0.2838091 -2.8778672,-0.2765866 -2.8769273,-0.2726808 -2.8765894,-0.2686303 -2.8765894,-0.2686303 -2.8769067,-0.2644482 -2.8778913,-0.2603749 -2.8794679,-0.2564878 -2.8816441,-0.2529054 -2.8843457,-0.2496985 -2.8874857,-0.2469216 -2.8910537,-0.2447189 -2.8949712,-0.2432282 -2.8949712,-0.2432282 -2.906695,-0.2417248 -2.9185259,-0.2415655 -3.0731234,-0.2414732 -3.0731234,-0.2414732 -3.085366,-0.2422072 -3.0913337,-0.2436033 -3.0969962,-0.2459886 -3.1018271,-0.2497369 -3.105293,-0.2547967 -3.1070523,-0.2606665 -3.1075173,-0.2667828 -3.1075173,-0.2667828 -3.1070483,-0.273478 -3.1050788,-0.2798908 -3.1033981,-0.282803 -3.101203,-0.2853445 -3.0956349,-0.2890784 -3.0892841,-0.2912437 -3.082676,-0.2924478 -3.0692756,-0.2931086 -2.9639434,-0.2930617 -3.0456688,-0.3747214 -3.0456688,-0.3747214 -3.0507957,-0.3801731 -3.055489,-0.3859889 -3.0591343,-0.392529 -3.0600213,-0.3961446 -3.0603156,-0.3998897 -3.0603156,-0.3998897 -3.0595526,-0.4050565 -3.0572998,-0.4097688 -3.0537505,-0.4135959 -3.0494158,-0.4165165 -3.0494158,-0.4165165 -3.0459049,-0.4182132 -3.0421653,-0.4192544 -3.0344135,-0.4200949 -3.0188409,-0.4203961 -3.0188409,-0.4203961 -3.0024977,-0.4205194 -2.9861747,-0.4212589 -2.9699609,-0.4233078 -2.9620781,-0.425432 -2.9543659,-0.4281553 -2.9543659,-0.4281553 -2.9417584,-0.4346115 -2.9303341,-0.4429867 -2.9202966,-0.4529783 -2.9119051,-0.4643924 -2.9051547,-0.4768439 -2.9003156,-0.4901586 -2.8972964,-0.5039957 -2.8962644,-0.5181248 -2.8962644,-0.5181248 -2.8968455,-0.5275491 -2.8982306,-0.5368866 -2.9003549,-0.546088 -2.9034865,-0.5549924 -2.9074284,-0.5635728 -2.9123717,-0.5716153 -2.9179892,-0.5792035 -2.9243848,-0.5861487 -2.9314246,-0.5924398 -2.9389881,-0.5980902 -2.9471073,-0.6029081 -2.9556935,-0.6068339 -2.9646423,-0.6098416 -2.9738425,-0.6119656 -2.9831835,-0.6133315 -2.9926075,-0.6139137 -2.9926075,-0.6139137 -3.0083367,-0.6127353 -3.0160859,-0.6112656 -3.0236831,-0.6091006 -3.031062,-0.6062922 -3.0381444,-0.6028157 -3.044858,-0.5986639 -3.0511493,-0.5938966 -3.0569914,-0.5885905 -3.062391,-0.5828334 -3.0718401,-0.5702044 -3.0794833,-0.5564071 -3.08581,-0.5419566 -3.08581,-0.5419566 -3.0891392,-0.5349351 -3.0913962,-0.5317663 -3.0941838,-0.5290385 -3.0974672,-0.5269219 -3.1011016,-0.5255257 -3.1088105,-0.5245908 -3.1088105,-0.5245908 -3.1140588,-0.5250805 -3.1191545,-0.5264158 -3.1239349,-0.528639 -3.1281915,-0.5317408 -3.131859,-0.5355294 -3.134563,-0.5400479 -3.136252,-0.545039 -3.1368913,-0.55027 -3.1368913,-0.55027 -3.1363689,-0.556458 -3.134987,-0.5625164 -3.1305177,-0.5741017 -3.1305177,-0.5741017 -3.1206294,-0.5936838 -3.1146961,-0.6029125 -3.1081939,-0.6117515 -3.1010337,-0.6200642 -3.0932859,-0.6278342 -3.0849409,-0.6349569 -3.0760953,-0.6414495 -3.0667512,-0.6471995 -3.0570458,-0.6523178 -3.0469498,-0.6566134 -3.0365461,-0.6600993 -3.0259338,-0.6628847 -3.0151296,-0.6647991 -3.0042179,-0.6659457 -2.9932541,-0.6663805 -2.9932541,-0.6663805 -2.978608,-0.6654654 -2.9640756,-0.6634341 -2.9497909,-0.6600758 -2.9358716,-0.6554301 -2.9225096,-0.6493663 -2.9098806,-0.6418951 -2.8980441,-0.6332222 -2.8871621,-0.6233781 -2.8773088,-0.6125044 -2.8685223,-0.6007523 -2.8610409,-0.5881287 -2.8548478,-0.5748266 -2.8500977,-0.5609428 -2.8467452,-0.5466563 -2.8447124,-0.5321244 -2.8437976,-0.5174782 -2.8437976,-0.5174782 -2.844483,-0.5045387 -2.8461158,-0.4916846 -2.8488712,-0.4790237 -2.8526056,-0.4666158 -2.857407,-0.4545813 -2.8632181,-0.4430001 -2.8700086,-0.4319646 -2.8777037,-0.4215398 -2.886194,-0.4117509 -2.8955226,-0.4027589 -2.9055761,-0.3945842 -2.9163453,-0.3873797 -2.9277338,-0.3812 -2.9396295,-0.3760635 -2.9519383,-0.372016 -2.9645267,-0.3689454z" transform="matrix(1,0,0,-1,6.19125,0.92075)" fill="rgb(104,104,104)" fill-rule="nonzero" shaper:cutDepth="0.0000762" stroke-linecap="round" stroke-linejoin="round" /><path d="M-4.2685305,0.2339095 L-4.2685305,0.3410599 -4.0667709,0.3410599 -4.0667709,0.3410599 -4.0606667,0.3411864 -4.0546306,0.3420083 -4.0487376,0.3436278 -4.043258,0.3462812 -4.0385613,0.3501839 -4.035298,0.3553193 -4.033425,0.3611235 -4.0328916,0.3672011 -4.0328916,0.3672011 -4.0335404,0.3732156 -4.0355103,0.3789345 -4.0388001,0.3840004 -4.043404,0.3879226 -4.048842,0.3905604 -4.0546789,0.3921726 -4.0666995,0.3934345 -4.2835221,0.3935268 -4.2835221,0.3935268 -4.291087,0.3936732 -4.2985911,0.3927435 -4.3057473,0.3903003 -4.3090211,0.3883851 -4.3119361,0.3859682 -4.3164115,0.3798747 -4.3192515,0.3728689 -4.3206104,0.3654274 -4.3209973,0.3578716 -4.3209974,0.0030562 -4.3209974,0.0030562 -4.3208639,-0.0067887 -4.3204211,-0.0116914 -4.3190575,-0.0164164 -4.3190575,-0.0164164 -4.3149185,-0.0226773 -4.3091117,-0.0274302 -4.3022021,-0.0303361 -4.2947639,-0.0313805 -4.2947639,-0.0313805 -4.2868755,-0.0302657 -4.2830953,-0.0289779 -4.279577,-0.0270766 -4.2764535,-0.024605 -4.2738031,-0.0216335 -4.2717786,-0.0182045 -4.2703779,-0.0144766 -4.2703779,-0.0144766 -4.2690194,-0.0102708 -4.2685683,-0.0058688 -4.2685305,0.0029816 -4.2685305,0.1814426 -4.126788,0.1814426 -4.126788,0.1814426 -4.1161627,0.1816589 -4.1108697,0.1821616 -4.1056801,0.1832901 -4.1056801,0.1832901 -4.0987797,0.1868992 -4.095846,0.1894543 -4.093397,0.1925177 -4.0914843,0.1959341 -4.0901802,0.1995968 -4.0890533,0.2073066 -4.0890533,0.2073066 -4.0894253,0.2136965 -4.0913048,0.21981 -4.0949156,0.2250862 -4.0999345,0.2290457 -4.10581,0.2315806 -4.1120399,0.2330737 -4.1248009,0.2339095 -4.2685305,0.2339095z" transform="matrix(1,0,0,-1,6.19125,0.92075)" fill="rgb(104,104,104)" fill-rule="nonzero" shaper:cutDepth="0.0000762" stroke-linecap="round" stroke-linejoin="round" /><path d="M-3.7943893,0.3934345 L-3.7944295,0.3935268 -3.7944295,0.3935268 -3.8115299,0.3924324 -3.8284278,0.3895935 -3.8448379,0.384663 -3.8605397,0.3778058 -3.8752325,0.3689896 -3.8888173,0.3585441 -3.9012467,0.3467514 -3.912532,0.3338551 -3.912532,0.3338551 -3.9243513,0.3174603 -3.934932,0.3002408 -3.9440733,0.2822152 -3.9517677,0.2635266 -3.957967,0.2442899 -3.9625309,0.2246019 -3.9653322,0.204586 -3.966292,0.1843985 -3.966292,0.1843985 -3.9654966,0.1640056 -3.9630823,0.1437416 -3.9591913,0.1237073 -3.9536703,0.1040607 -3.9466271,0.0849064 -3.9380921,0.0663694 -3.9279729,0.0486467 -3.9163192,0.0318937 -3.9163192,0.0318937 -3.9050948,0.018502 -3.8927929,0.0060974 -3.8792711,-0.0049713 -3.8645562,-0.0143867 -3.8487923,-0.0219235 -3.8321563,-0.027252 -3.8149752,-0.0304279 -3.7975299,-0.0313805 -3.7975299,-0.0313805 -3.7830546,-0.0306613 -3.7687319,-0.0284491 -3.7547426,-0.024663 -3.7412273,-0.0194313 -3.7283697,-0.0127451 -3.716345,-0.0046537 -3.7051711,0.0045747 -3.6948132,0.0147127 -3.6948132,0.0147127 -3.6816694,0.0300887 -3.6764578,0.0387722 -3.6749509,0.0435818 -3.6743068,0.0486129 -3.6743068,0.0486129 -3.6747616,0.0537813 -3.6759623,0.0588277 -3.6781738,0.0635191 -3.6812845,0.0676693 -3.6851777,0.0710965 -3.6897427,0.0735572 -3.6947318,0.074973 -3.6998936,0.0754929 -3.6998936,0.0754929 -3.7069197,0.0748992 -3.7135329,0.0724812 -3.7190328,0.0680765 -3.7235406,0.0626533 -3.7235406,0.0626533 -3.7302809,0.054376 -3.737526,0.0465365 -3.7454719,0.0394108 -3.7540606,0.0330697 -3.763349,0.0278126 -3.7733159,0.0240062 -3.7837355,0.021678 -3.7943893,0.0210863 -3.7943893,0.0210863 -3.8048421,0.0214654 -3.8151695,0.0231267 -3.8252269,0.0259936 -3.8348199,0.0301661 -3.8438762,0.0353956 -3.8522869,0.0416179 -3.8600659,0.0486076 -3.8671778,0.0562797 -3.8671778,0.0562797 -3.877649,0.0697569 -3.8868255,0.0841474 -3.8947163,0.0992807 -3.901297,0.1150285 -3.9065384,0.1312711 -3.9105135,0.1478691 -3.9128812,0.1647712 -3.9138252,0.1818121 -3.9138252,0.1818121 -3.9130963,0.1953743 -3.9116167,0.2088729 -3.9092673,0.2222507 -3.9060493,0.2354444 -3.901896,0.2483751 -3.8967678,0.2609504 -3.890671,0.2730858 -3.88366,0.2847176 -3.875761,0.2957643 -3.8669747,0.3061214 -3.8572603,0.315608 -3.8465487,0.3239594 -3.8348607,0.3308614 -3.8223218,0.3360756 -3.8091794,0.3394905 -3.7956825,0.3409677 -3.7956825,0.3409677 -3.7860537,0.3403672 -3.7765822,0.3385226 -3.7674153,0.3355233 -3.7587462,0.3312839 -3.7506293,0.3260715 -3.7431264,0.3200024 -3.7362433,0.3132429 -3.7299142,0.305959 -3.7299142,0.305959 -3.7242615,0.2989494 -3.7179176,0.292563 -3.7142367,0.2899595 -3.7101082,0.2881155 -3.7057082,0.287247 -3.7011868,0.2870229 -3.7011868,0.2870229 -3.6959734,0.2876406 -3.6909696,0.289224 -3.6863992,0.2918048 -3.6824359,0.2952472 -3.6791947,0.2993751 -3.6768855,0.3040904 -3.6754511,0.3091375 -3.6749534,0.3143648 -3.6749534,0.3143648 -3.6757032,0.3211465 -3.6783201,0.3274528 -3.6864997,0.3383813 -3.6864997,0.3383813 -3.6970995,0.3498945 -3.7085903,0.3605116 -3.7209803,0.3700744 -3.7342986,0.3782833 -3.7484837,0.3848918 -3.76339,0.3896386 -3.7787693,0.3925298 -3.7943893,0.3934345z" transform="matrix(1,0,0,-1,6.19125,0.92075)" fill="rgb(104,104,104)" fill-rule="nonzero" shaper:cutDepth="0.0000762" stroke-linecap="round" stroke-linejoin="round" /><path d="M-3.4430588,0.3935268 L-3.4842056,0.3915234 -3.4842056,0.3915234 -3.4949255,0.390417 -3.5055444,0.3885852 -3.5159902,0.3859333 -3.5261643,0.3823824 -3.5359349,0.3778359 -3.5451725,0.3722888 -3.5538719,0.3659275 -3.5618782,0.3587158 -3.5691727,0.3507831 -3.5756113,0.3421424 -3.5811284,0.3328859 -3.585693,0.3231248 -3.5891626,0.3129219 -3.5917029,0.3024501 -3.5931689,0.2917736 -3.5938515,0.2810188 -3.5938515,0.2810188 -3.592957,0.2677908 -3.5906285,0.2547392 -3.5867361,0.2420654 -3.5814614,0.2299016 -3.5747976,0.2184397 -3.566804,0.2078641 -3.5575318,0.198387 -3.5470193,0.1903103 -3.5470193,0.1903103 -3.5358714,0.1836315 -3.5239016,0.1785485 -3.511473,0.1747462 -3.4988015,0.1718361 -3.4302032,0.1572014 -3.4302032,0.1572014 -3.4179137,0.1543903 -3.4060609,0.1501288 -3.4060609,0.1501288 -3.3980605,0.1452221 -3.3908224,0.1392478 -3.3845269,0.1322868 -3.3791954,0.1245631 -3.3749752,0.1161791 -3.3717999,0.1073471 -3.3699119,0.0981536 -3.3692048,0.0887944 -3.3692048,0.0887944 -3.3702272,0.0777284 -3.372746,0.0669057 -3.3770386,0.0566563 -3.3828079,0.0471585 -3.3900038,0.0386892 -3.3985644,0.0316094 -3.4082111,0.0260919 -3.4187157,0.0224719 -3.4187157,0.0224719 -3.4320174,0.0206984 -3.445411,0.0198855 -3.4835703,0.0199282 -3.4835703,0.0199282 -3.4966867,0.0202751 -3.5032079,0.0210339 -3.509609,0.0224719 -3.509609,0.0224719 -3.5184592,0.0261112 -3.5266164,0.0311145 -3.5338484,0.0373814 -3.5401571,0.0445776 -3.5454496,0.0525516 -3.5495064,0.0612176 -3.5521421,0.0704177 -3.5532082,0.0799267 -3.5532082,0.0799267 -3.5525616,0.0856538 -3.5525692,0.0907995 -3.5525692,0.0907995 -3.5530376,0.0958478 -3.5541777,0.1007879 -3.5562788,0.1054005 -3.559263,0.1094988 -3.5630068,0.1129158 -3.5673622,0.115508 -3.5721846,0.1170678 -3.5772247,0.1176142 -3.5772247,0.1176142 -3.5836278,0.1168067 -3.5896675,0.1145272 -3.5949187,0.1107867 -3.5990478,0.1058233 -3.6021111,0.10014 -3.6041907,0.0940282 -3.6052809,0.0876654 -3.605675,0.0812199 -3.605675,0.0812199 -3.6043301,0.0647933 -3.6028703,0.056681 -3.6007706,0.0487019 -3.59484,0.033325 -3.5868516,0.0189092 -3.5769667,0.0057207 -3.5713043,-0.0002673 -3.5652096,-0.0058274 -3.5587353,-0.0109488 -3.5518772,-0.0155154 -3.5372279,-0.0230671 -3.5372279,-0.0230671 -3.5242477,-0.0267483 -3.5110038,-0.0293371 -3.4975983,-0.0308659 -3.4841145,-0.0313805 -3.4426732,-0.0313805 -3.4426732,-0.0313805 -3.4305406,-0.0306858 -3.4184795,-0.0292183 -3.4065568,-0.0268575 -3.394914,-0.0233858 -3.3836426,-0.0188435 -3.3728417,-0.0132755 -3.3627092,-0.0065701 -3.3533523,0.0011825 -3.3448412,0.0098551 -3.3373116,0.0193916 -3.3309328,0.0297333 -3.3258093,0.0407514 -3.3218573,0.0522411 -3.3190861,0.0640735 -3.3173945,0.0761055 -3.316738,0.0882401 -3.316738,0.0882401 -3.3172453,0.0989138 -3.318528,0.1095219 -3.3206828,0.1199874 -3.3236239,0.130261 -3.3276136,0.1401724 -3.3323858,0.1497329 -3.3381095,0.1587561 -3.3445868,0.1672537 -3.3518036,0.1751343 -3.3596565,0.1823792 -3.3681751,0.188831 -3.3772222,0.1945152 -3.3867249,0.1994031 -3.3965687,0.203559 -3.4067171,0.2069043 -3.4170531,0.2096159 -3.4861204,0.2238002 -3.4861204,0.2238002 -3.4973877,0.2262187 -3.5084081,0.229568 -3.5084081,0.229568 -3.5156452,0.2334332 -3.5221792,0.2383969 -3.5279105,0.2442651 -3.5326249,0.2509824 -3.5363939,0.2582697 -3.5391531,0.2659978 -3.5408024,0.2740342 -3.5413846,0.2822196 -3.5413846,0.2822196 -3.5402599,0.2938922 -3.5389295,0.2996014 -3.5369812,0.3051463 -3.5344682,0.3104572 -3.5313837,0.3154451 -3.5277353,0.3200383 -3.5236209,0.3242332 -3.5191273,0.3280135 -3.5142731,0.3313016 -3.5036675,0.3363114 -3.4923492,0.3393545 -3.4806968,0.3406905 -3.4488051,0.3413518 -3.4456127,0.3413518 -3.4456127,0.3413518 -3.4340858,0.3406507 -3.4227881,0.3382924 -3.412053,0.3340439 -3.4070579,0.3311356 -3.4024237,0.3276834 -3.3944343,0.3193518 -3.3881285,0.3096833 -3.3836103,0.2990596 -3.3804741,0.2879466 -3.3804741,0.2879466 -3.3771703,0.2793701 -3.3747815,0.2754397 -3.3717821,0.2719521 -3.3681449,0.2691426 -3.3639879,0.2671769 -3.3594854,0.2662459 -3.3548873,0.266147 -3.3548873,0.266147 -3.3495912,0.2666579 -3.3444802,0.2681284 -3.3398044,0.2706631 -3.3358002,0.274165 -3.3326289,0.2784332 -3.330471,0.2832977 -3.3292191,0.2884658 -3.3287462,0.293766 -3.3287462,0.293766 -3.3300685,0.3054783 -3.3333403,0.3168202 -3.3378462,0.3277142 -3.3434332,0.3381042 -3.3434332,0.3381042 -3.3515136,0.3501116 -3.3610034,0.3610361 -3.3718789,0.3705849 -3.3839172,0.3786166 -3.3968914,0.3850281 -3.4105775,0.38973 -3.42478,0.392507 -3.4392221,0.3934345 -3.4430588,0.3935268z" transform="matrix(1,0,0,-1,6.19125,0.92075)" fill="rgb(104,104,104)" fill-rule="nonzero" shaper:cutDepth="0.0000762" stroke-linecap="round" stroke-linejoin="round" /><path d="M-1.7285305,0.2339095 L-1.7285305,0.3410599 -1.5267709,0.3410599 -1.5267709,0.3410599 -1.5206667,0.3411864 -1.5146306,0.3420083 -1.5087376,0.3436278 -1.503258,0.3462812 -1.4985613,0.3501839 -1.495298,0.3553193 -1.493425,0.3611235 -1.4928916,0.3672011 -1.4928916,0.3672011 -1.4935404,0.3732156 -1.4955103,0.3789345 -1.4988001,0.3840004 -1.503404,0.3879226 -1.508842,0.3905604 -1.5146789,0.3921726 -1.5266995,0.3934345 -1.7435221,0.3935268 -1.7435221,0.3935268 -1.751087,0.3936732 -1.7585911,0.3927435 -1.7657473,0.3903003 -1.7690211,0.3883851 -1.7719361,0.3859682 -1.7764115,0.3798747 -1.7792515,0.3728689 -1.7806104,0.3654274 -1.7809973,0.3578716 -1.7809974,0.0030562 -1.7809974,0.0030562 -1.7808639,-0.0067887 -1.7804211,-0.0116914 -1.7790575,-0.0164164 -1.7790575,-0.0164164 -1.7749185,-0.0226773 -1.7691117,-0.0274302 -1.7622021,-0.0303361 -1.7547639,-0.0313805 -1.7547639,-0.0313805 -1.7468755,-0.0302657 -1.7430953,-0.0289779 -1.739577,-0.0270766 -1.7364535,-0.024605 -1.7338031,-0.0216335 -1.7317786,-0.0182045 -1.7303779,-0.0144766 -1.7303779,-0.0144766 -1.7290194,-0.0102708 -1.7285683,-0.0058688 -1.7285305,0.0029816 -1.7285305,0.1814426 -1.586788,0.1814426 -1.586788,0.1814426 -1.5761627,0.1816589 -1.5708697,0.1821616 -1.5656801,0.1832901 -1.5656801,0.1832901 -1.5587797,0.1868992 -1.555846,0.1894543 -1.553397,0.1925177 -1.5514843,0.1959341 -1.5501802,0.1995968 -1.5490533,0.2073066 -1.5490533,0.2073066 -1.5494253,0.2136965 -1.5513048,0.21981 -1.5549156,0.2250862 -1.5599345,0.2290457 -1.56581,0.2315806 -1.5720399,0.2330737 -1.5848009,0.2339095 -1.7285305,0.2339095z" transform="matrix(1,0,0,-1,6.19125,0.92075)" fill="rgb(104,104,104)" fill-rule="nonzero" shaper:cutDepth="0.0000762" stroke-linecap="round" stroke-linejoin="round" /><path d="M-1.2543893,0.3934345 L-1.2544295,0.3935268 -1.2544295,0.3935268 -1.2715299,0.3924324 -1.2884278,0.3895935 -1.3048379,0.384663 -1.3205397,0.3778058 -1.3352325,0.3689896 -1.3488173,0.3585441 -1.3612467,0.3467514 -1.372532,0.3338551 -1.372532,0.3338551 -1.3843513,0.3174603 -1.394932,0.3002408 -1.4040733,0.2822152 -1.4117677,0.2635266 -1.417967,0.2442899 -1.4225309,0.2246019 -1.4253322,0.204586 -1.426292,0.1843985 -1.426292,0.1843985 -1.4254966,0.1640056 -1.4230823,0.1437416 -1.4191913,0.1237073 -1.4136703,0.1040607 -1.4066271,0.0849064 -1.3980921,0.0663694 -1.3879729,0.0486467 -1.3763192,0.0318937 -1.3763192,0.0318937 -1.3650948,0.018502 -1.3527929,0.0060974 -1.3392711,-0.0049713 -1.3245562,-0.0143867 -1.3087923,-0.0219235 -1.2921563,-0.027252 -1.2749752,-0.0304279 -1.2575299,-0.0313805 -1.2575299,-0.0313805 -1.2430546,-0.0306613 -1.2287319,-0.0284491 -1.2147426,-0.024663 -1.2012273,-0.0194313 -1.1883697,-0.0127451 -1.176345,-0.0046537 -1.1651711,0.0045747 -1.1548132,0.0147127 -1.1548132,0.0147127 -1.1416694,0.0300887 -1.1364578,0.0387722 -1.1349509,0.0435818 -1.1343068,0.0486129 -1.1343068,0.0486129 -1.1347616,0.0537813 -1.1359623,0.0588277 -1.1381738,0.0635191 -1.1412845,0.0676693 -1.1451777,0.0710965 -1.1497427,0.0735572 -1.1547318,0.074973 -1.1598936,0.0754929 -1.1598936,0.0754929 -1.1669197,0.0748992 -1.1735329,0.0724812 -1.1790328,0.0680765 -1.1835406,0.0626533 -1.1835406,0.0626533 -1.1902809,0.054376 -1.197526,0.0465365 -1.2054719,0.0394108 -1.2140606,0.0330697 -1.223349,0.0278126 -1.2333159,0.0240062 -1.2437355,0.021678 -1.2543893,0.0210863 -1.2543893,0.0210863 -1.2648421,0.0214654 -1.2751695,0.0231267 -1.2852269,0.0259936 -1.2948199,0.0301661 -1.3038762,0.0353956 -1.3122869,0.0416179 -1.3200659,0.0486076 -1.3271778,0.0562797 -1.3271778,0.0562797 -1.337649,0.0697569 -1.3468255,0.0841474 -1.3547163,0.0992807 -1.361297,0.1150285 -1.3665384,0.1312711 -1.3705135,0.1478691 -1.3728812,0.1647712 -1.3738252,0.1818121 -1.3738252,0.1818121 -1.3730963,0.1953743 -1.3716167,0.2088729 -1.3692673,0.2222507 -1.3660493,0.2354444 -1.361896,0.2483751 -1.3567678,0.2609504 -1.350671,0.2730858 -1.34366,0.2847176 -1.335761,0.2957643 -1.3269747,0.3061214 -1.3172603,0.315608 -1.3065487,0.3239594 -1.2948607,0.3308614 -1.2823218,0.3360756 -1.2691794,0.3394905 -1.2556825,0.3409677 -1.2556825,0.3409677 -1.2460537,0.3403672 -1.2365822,0.3385226 -1.2274153,0.3355233 -1.2187462,0.3312839 -1.2106293,0.3260715 -1.2031264,0.3200024 -1.1962433,0.3132429 -1.1899142,0.305959 -1.1899142,0.305959 -1.1842615,0.2989494 -1.1779176,0.292563 -1.1742367,0.2899595 -1.1701082,0.2881155 -1.1657082,0.287247 -1.1611868,0.2870229 -1.1611868,0.2870229 -1.1559734,0.2876406 -1.1509696,0.289224 -1.1463992,0.2918048 -1.1424359,0.2952472 -1.1391947,0.2993751 -1.1368855,0.3040904 -1.1354511,0.3091375 -1.1349534,0.3143648 -1.1349534,0.3143648 -1.1357032,0.3211465 -1.1383201,0.3274528 -1.1464997,0.3383813 -1.1464997,0.3383813 -1.1570995,0.3498945 -1.1685903,0.3605116 -1.1809803,0.3700744 -1.1942986,0.3782833 -1.2084837,0.3848918 -1.22339,0.3896386 -1.2387693,0.3925298 -1.2543893,0.3934345z" transform="matrix(1,0,0,-1,6.19125,0.92075)" fill="rgb(104,104,104)" fill-rule="nonzero" shaper:cutDepth="0.0000762" stroke-linecap="round" stroke-linejoin="round" /><path d="M-0.9030588,0.3935268 L-0.9442056,0.3915234 -0.9442056,0.3915234 -0.9549255,0.390417 -0.9655444,0.3885852 -0.9759902,0.3859333 -0.9861643,0.3823824 -0.9959349,0.3778359 -1.0051725,0.3722888 -1.0138719,0.3659275 -1.0218782,0.3587158 -1.0291727,0.3507831 -1.0356113,0.3421424 -1.0411284,0.3328859 -1.045693,0.3231248 -1.0491626,0.3129219 -1.0517029,0.3024501 -1.0531689,0.2917736 -1.0538515,0.2810188 -1.0538515,0.2810188 -1.052957,0.2677908 -1.0506285,0.2547392 -1.0467361,0.2420654 -1.0414614,0.2299016 -1.0347976,0.2184397 -1.026804,0.2078641 -1.0175318,0.198387 -1.0070193,0.1903103 -1.0070193,0.1903103 -0.9958714,0.1836315 -0.9839016,0.1785485 -0.971473,0.1747462 -0.9588015,0.1718361 -0.8902032,0.1572014 -0.8902032,0.1572014 -0.8779137,0.1543903 -0.8660609,0.1501288 -0.8660609,0.1501288 -0.8580605,0.1452221 -0.8508224,0.1392478 -0.8445269,0.1322868 -0.8391954,0.1245631 -0.8349752,0.1161791 -0.8317999,0.1073471 -0.8299119,0.0981536 -0.8292048,0.0887944 -0.8292048,0.0887944 -0.8302272,0.0777284 -0.832746,0.0669057 -0.8370386,0.0566563 -0.8428079,0.0471585 -0.8500038,0.0386892 -0.8585644,0.0316094 -0.8682111,0.0260919 -0.8787157,0.0224719 -0.8787157,0.0224719 -0.8920174,0.0206984 -0.905411,0.0198855 -0.9435703,0.0199282 -0.9435703,0.0199282 -0.9566867,0.0202751 -0.9632079,0.0210339 -0.969609,0.0224719 -0.969609,0.0224719 -0.9784592,0.0261112 -0.9866164,0.0311145 -0.9938484,0.0373814 -1.0001571,0.0445776 -1.0054496,0.0525516 -1.0095064,0.0612176 -1.0121421,0.0704177 -1.0132082,0.0799267 -1.0132082,0.0799267 -1.0125616,0.0856538 -1.0125692,0.0907995 -1.0125692,0.0907995 -1.0130376,0.0958478 -1.0141777,0.1007879 -1.0162788,0.1054005 -1.019263,0.1094988 -1.0230068,0.1129158 -1.0273622,0.115508 -1.0321846,0.1170678 -1.0372247,0.1176142 -1.0372247,0.1176142 -1.0436278,0.1168067 -1.0496675,0.1145272 -1.0549187,0.1107867 -1.0590478,0.1058233 -1.0621111,0.10014 -1.0641907,0.0940282 -1.0652809,0.0876654 -1.065675,0.0812199 -1.065675,0.0812199 -1.0643301,0.0647933 -1.0628703,0.056681 -1.0607706,0.0487019 -1.05484,0.033325 -1.0468516,0.0189092 -1.0369667,0.0057207 -1.0313043,-0.0002673 -1.0252096,-0.0058274 -1.0187353,-0.0109488 -1.0118772,-0.0155154 -0.9972279,-0.0230671 -0.9972279,-0.0230671 -0.9842477,-0.0267483 -0.9710038,-0.0293371 -0.9575983,-0.0308659 -0.9441145,-0.0313805 -0.9026732,-0.0313805 -0.9026732,-0.0313805 -0.8905406,-0.0306858 -0.8784795,-0.0292183 -0.8665568,-0.0268575 -0.854914,-0.0233858 -0.8436426,-0.0188435 -0.8328417,-0.0132755 -0.8227092,-0.0065701 -0.8133523,0.0011825 -0.8048412,0.0098551 -0.7973116,0.0193916 -0.7909328,0.0297333 -0.7858093,0.0407514 -0.7818573,0.0522411 -0.7790861,0.0640735 -0.7773945,0.0761055 -0.776738,0.0882401 -0.776738,0.0882401 -0.7772453,0.0989138 -0.778528,0.1095219 -0.7806828,0.1199874 -0.7836239,0.130261 -0.7876136,0.1401724 -0.7923858,0.1497329 -0.7981095,0.1587561 -0.8045868,0.1672537 -0.8118036,0.1751343 -0.8196565,0.1823792 -0.8281751,0.188831 -0.8372222,0.1945152 -0.8467249,0.1994031 -0.8565687,0.203559 -0.8667171,0.2069043 -0.8770531,0.2096159 -0.9461204,0.2238002 -0.9461204,0.2238002 -0.9573877,0.2262187 -0.9684081,0.229568 -0.9684081,0.229568 -0.9756452,0.2334332 -0.9821792,0.2383969 -0.9879105,0.2442651 -0.9926249,0.2509824 -0.9963939,0.2582697 -0.9991531,0.2659978 -1.0008024,0.2740342 -1.0013846,0.2822196 -1.0013846,0.2822196 -1.0002599,0.2938922 -0.9989295,0.2996014 -0.9969812,0.3051463 -0.9944682,0.3104572 -0.9913837,0.3154451 -0.9877353,0.3200383 -0.9836209,0.3242332 -0.9791273,0.3280135 -0.9742731,0.3313016 -0.9636675,0.3363114 -0.9523492,0.3393545 -0.9406968,0.3406905 -0.9088051,0.3413518 -0.9056127,0.3413518 -0.9056127,0.3413518 -0.8940858,0.3406507 -0.8827881,0.3382924 -0.872053,0.3340439 -0.8670579,0.3311356 -0.8624237,0.3276834 -0.8544343,0.3193518 -0.8481285,0.3096833 -0.8436103,0.2990596 -0.8404741,0.2879466 -0.8404741,0.2879466 -0.8371703,0.2793701 -0.8347815,0.2754397 -0.8317821,0.2719521 -0.8281449,0.2691426 -0.8239879,0.2671769 -0.8194854,0.2662459 -0.8148873,0.266147 -0.8148873,0.266147 -0.8095912,0.2666579 -0.8044802,0.2681284 -0.7998044,0.2706631 -0.7958002,0.274165 -0.7926289,0.2784332 -0.790471,0.2832977 -0.7892191,0.2884658 -0.7887462,0.293766 -0.7887462,0.293766 -0.7900685,0.3054783 -0.7933403,0.3168202 -0.7978462,0.3277142 -0.8034332,0.3381042 -0.8034332,0.3381042 -0.8115136,0.3501116 -0.8210034,0.3610361 -0.8318789,0.3705849 -0.8439172,0.3786166 -0.8568914,0.3850281 -0.8705775,0.38973 -0.88478,0.392507 -0.8992221,0.3934345 -0.9030588,0.3935268z" transform="matrix(1,0,0,-1,6.19125,0.92075)" fill="rgb(104,104,104)" fill-rule="nonzero" shaper:cutDepth="0.0000762" stroke-linecap="round" stroke-linejoin="round" /><path d="M-2.0938584,-0.2415655 L-2.0938987,-0.2414732 -2.0938987,-0.2414732 -2.1109991,-0.2425676 -2.1278969,-0.2454065 -2.1443071,-0.250337 -2.1600089,-0.2571942 -2.1747017,-0.2660104 -2.1882865,-0.2764559 -2.2007159,-0.2882486 -2.2120012,-0.3011449 -2.2120012,-0.3011449 -2.2238205,-0.3175397 -2.2344012,-0.3347592 -2.2435424,-0.3527848 -2.2512369,-0.3714734 -2.2574362,-0.3907101 -2.2620001,-0.4103981 -2.2648014,-0.430414 -2.2657612,-0.4506015 -2.2657612,-0.4506015 -2.2649658,-0.4709944 -2.2625515,-0.4912584 -2.2586605,-0.5112927 -2.2531395,-0.5309393 -2.2460962,-0.5500936 -2.2375612,-0.5686306 -2.227442,-0.5863533 -2.2157884,-0.6031063 -2.2157884,-0.6031063 -2.2045639,-0.616498 -2.1922621,-0.6289026 -2.1787403,-0.6399713 -2.1640253,-0.6493867 -2.1482615,-0.6569235 -2.1316255,-0.662252 -2.1144444,-0.6654279 -2.0969991,-0.6663805 -2.0969991,-0.6663805 -2.0825238,-0.6656613 -2.0682011,-0.6634491 -2.0542117,-0.659663 -2.0406965,-0.6544313 -2.0278389,-0.6477451 -2.0158141,-0.6396537 -2.0046402,-0.6304253 -1.9942823,-0.6202873 -1.9942823,-0.6202873 -1.9811386,-0.6049113 -1.9759269,-0.5962278 -1.9744201,-0.5914182 -1.9737759,-0.5863871 -1.9737759,-0.5863871 -1.9742308,-0.5812187 -1.9754314,-0.5761723 -1.977643,-0.5714809 -1.9807536,-0.5673307 -1.9846469,-0.5639035 -1.9892119,-0.5614428 -1.994201,-0.560027 -1.9993627,-0.5595071 -1.9993627,-0.5595071 -2.0063889,-0.5601008 -2.013002,-0.5625188 -2.018502,-0.5669235 -2.0230098,-0.5723467 -2.0230098,-0.5723467 -2.0297501,-0.580624 -2.0369951,-0.5884635 -2.0449411,-0.5955892 -2.0535298,-0.6019303 -2.0628182,-0.6071874 -2.072785,-0.6109938 -2.0832046,-0.613322 -2.0938584,-0.6139137 -2.0938584,-0.6139137 -2.1043113,-0.6135346 -2.1146387,-0.6118733 -2.124696,-0.6090064 -2.1342891,-0.6048339 -2.1433453,-0.5996044 -2.1517561,-0.5933821 -2.1595351,-0.5863924 -2.1666469,-0.5787203 -2.1666469,-0.5787203 -2.1771182,-0.5652431 -2.1862947,-0.5508526 -2.1941855,-0.5357193 -2.2007662,-0.5199715 -2.2060076,-0.5037289 -2.2099827,-0.4871309 -2.2123503,-0.4702288 -2.2132944,-0.4531879 -2.2132944,-0.4531879 -2.2125654,-0.4396257 -2.2110858,-0.4261271 -2.2087365,-0.4127493 -2.2055185,-0.3995556 -2.2013652,-0.3866249 -2.196237,-0.3740496 -2.1901401,-0.3619142 -2.1831292,-0.3502824 -2.1752302,-0.3392357 -2.1664438,-0.3288786 -2.1567295,-0.319392 -2.1460178,-0.3110406 -2.1343299,-0.3041386 -2.121791,-0.2989244 -2.1086486,-0.2955095 -2.0951516,-0.2940323 -2.0951516,-0.2940323 -2.0855229,-0.2946328 -2.0760514,-0.2964774 -2.0668845,-0.2994767 -2.0582154,-0.3037161 -2.0500985,-0.3089285 -2.0425956,-0.3149976 -2.0357125,-0.3217571 -2.0293834,-0.329041 -2.0293834,-0.329041 -2.0237307,-0.3360506 -2.0173868,-0.342437 -2.0137059,-0.3450405 -2.0095774,-0.3468845 -2.0051774,-0.347753 -2.0006559,-0.3479771 -2.0006559,-0.3479771 -1.9954425,-0.3473594 -1.9904387,-0.345776 -1.9858684,-0.3431952 -1.981905,-0.3397528 -1.9786638,-0.3356249 -1.9763547,-0.3309096 -1.9749203,-0.3258625 -1.9744225,-0.3206352 -1.9744225,-0.3206352 -1.9751724,-0.3138535 -1.9777893,-0.3075472 -1.9859689,-0.2966187 -1.9859689,-0.2966187 -1.9965687,-0.2851055 -2.0080595,-0.2744884 -2.0204495,-0.2649256 -2.0337678,-0.2567167 -2.0479529,-0.2501082 -2.0628592,-0.2453614 -2.0782384,-0.2424702 -2.0938584,-0.2415655z" transform="matrix(1,0,0,-1,6.19125,0.92075)" fill="rgb(104,104,104)" fill-rule="nonzero" shaper:cutDepth="0.0000762" stroke-linecap="round" stroke-linejoin="round" /><path d="M-1.6568506,-0.2696387 L-1.6568506,-0.4070024 -1.8585891,-0.4070024 -1.8585891,-0.2710344 -1.8585891,-0.2710344 -1.8596151,-0.2603198 -1.8611135,-0.2551512 -1.8635578,-0.2503532 -1.8670451,-0.2462559 -1.8715945,-0.2433921 -1.8767716,-0.2419233 -1.8821437,-0.2415655 -1.8821437,-0.2415655 -1.8891154,-0.2425804 -1.8955584,-0.2453949 -1.8983317,-0.2476014 -1.9006323,-0.2502689 -1.903851,-0.2565296 -1.903851,-0.2565296 -1.9050776,-0.2644171 -1.9051441,-0.2724175 -1.9051442,-0.6372493 -1.9051442,-0.6372493 -1.904358,-0.6480695 -1.9029569,-0.6533179 -1.9005155,-0.6581638 -1.896869,-0.6621784 -1.8921952,-0.6649288 -1.8869245,-0.6662195 -1.8814971,-0.6663805 -1.8814971,-0.6663805 -1.8761485,-0.6662082 -1.8709769,-0.664847 -1.8664344,-0.662032 -1.8629486,-0.6579783 -1.8606717,-0.6531407 -1.8593619,-0.6479469 -1.8585891,-0.6372836 -1.8585891,-0.4535574 -1.6568506,-0.4535574 -1.6568506,-0.6346712 -1.6568506,-0.6346712 -1.6568063,-0.6428273 -1.6564828,-0.6468937 -1.6555573,-0.6508622 -1.6555573,-0.6508622 -1.6526742,-0.6574506 -1.6503789,-0.6602168 -1.6475499,-0.6624938 -1.6443805,-0.6642364 -1.6409837,-0.6653972 -1.63385,-0.6663805 -1.63385,-0.6663805 -1.6282036,-0.6660333 -1.6227132,-0.6646836 -1.6178643,-0.661785 -1.6143128,-0.6574015 -1.6121832,-0.6521595 -1.6109802,-0.6466296 -1.6102954,-0.6353438 -1.6102955,-0.2710344 -1.6102955,-0.2710344 -1.6110723,-0.2603224 -1.6124115,-0.2551168 -1.6146482,-0.2502265 -1.6181038,-0.2461232 -1.6226664,-0.2432947 -1.627835,-0.2418309 -1.6332034,-0.2415655 -1.6332034,-0.2415655 -1.6382737,-0.2420691 -1.6431718,-0.2434642 -1.6476445,-0.2459008 -1.6514396,-0.2492978 -1.6543365,-0.2534874 -1.6562129,-0.2582232 -1.6569767,-0.2632583 -1.6568505,-0.2683532 -1.6568506,-0.2696387z" transform="matrix(1,0,0,-1,6.19125,0.92075)" fill="rgb(104,104,104)" fill-rule="nonzero" shaper:cutDepth="0.0000762" stroke-linecap="round" stroke-linejoin="round" /><path d="M-1.4702178,-0.5954395 L-1.4905823,-0.6483681 -1.4905823,-0.6483681 -1.4947285,-0.6557794 -1.4974635,-0.6590429 -1.5007232,-0.6617728 -1.5043984,-0.6639173 -1.5083913,-0.6653854 -1.5125634,-0.6662156 -1.5168158,-0.6663805 -1.5168158,-0.6663805 -1.5218927,-0.6659742 -1.5268452,-0.6647962 -1.5315247,-0.6627866 -1.5357208,-0.6599026 -1.5392719,-0.6562542 -1.5420308,-0.6519753 -1.5436275,-0.6471409 -1.54425,-0.6420869 -1.54425,-0.6420869 -1.5438194,-0.6371851 -1.5424494,-0.6324513 -1.5391736,-0.6231614 -1.4024603,-0.2617024 -1.4024603,-0.2617024 -1.3985807,-0.2536698 -1.3959952,-0.2500332 -1.3928844,-0.2468309 -1.3892354,-0.244267 -1.3851532,-0.2424657 -1.3807816,-0.2415754 -1.3763192,-0.2415655 -1.3763192,-0.2415655 -1.3709203,-0.2417649 -1.365632,-0.2428803 -1.3607243,-0.2451042 -1.3566114,-0.2486143 -1.3533878,-0.2529389 -1.350674,-0.2576217 -1.3463527,-0.2675146 -1.2083884,-0.6275846 -1.2083884,-0.6275846 -1.2066553,-0.6347571 -1.205802,-0.6420869 -1.205802,-0.6420869 -1.2064413,-0.6471334 -1.2081338,-0.6519288 -1.2108864,-0.6562052 -1.2144605,-0.6598245 -1.2186681,-0.6626813 -1.2233291,-0.6647235 -1.2282561,-0.6659784 -1.2333286,-0.6663805 -1.2333286,-0.6663805 -1.2379405,-0.6662726 -1.2424585,-0.6653512 -1.2466334,-0.6633941 -1.250354,-0.6606624 -1.2535245,-0.65732 -1.2561241,-0.6535016 -1.260158,-0.6452145 -1.2786739,-0.5954395 -1.4702178,-0.5954395z M-1.4504249,-0.5429726 L-1.2997437,-0.5429726 -1.3750843,-0.3435254 -1.4504249,-0.5429726z" transform="matrix(1,0,0,-1,6.19125,0.92075)" fill="rgb(104,104,104)" fill-rule="nonzero" shaper:cutDepth="0.0000762" stroke-linecap="round" stroke-linejoin="round" /><path d="M-0.9001458,-0.2755581 L-0.900146,-0.5510732 -1.0906903,-0.2596353 -1.0906903,-0.2596353 -1.0957892,-0.2527647 -1.1018876,-0.2467778 -1.1054577,-0.2443954 -1.1093942,-0.2426803 -1.1178647,-0.2415655 -1.1178647,-0.2415655 -1.1252336,-0.2426163 -1.1319752,-0.2457461 -1.1350326,-0.2479489 -1.1376561,-0.2505718 -1.1412346,-0.2570839 -1.1412346,-0.2570839 -1.1422026,-0.2613405 -1.142485,-0.2657067 -1.1425278,-0.2744497 -1.1425279,-0.6321353 -1.1425279,-0.6321353 -1.1422894,-0.6429418 -1.1415724,-0.6483012 -1.1399414,-0.6534486 -1.1399414,-0.6534486 -1.1356471,-0.6589445 -1.1300345,-0.6630844 -1.1234935,-0.6654928 -1.1165715,-0.6663805 -1.1165715,-0.6663805 -1.1108949,-0.6658796 -1.1053979,-0.6643868 -1.1004206,-0.6616217 -1.0963533,-0.6576355 -1.0934225,-0.6527554 -1.0915703,-0.6473626 -1.090061,-0.6360828 -1.090061,-0.3561379 -0.900146,-0.6495058 -0.900146,-0.6495058 -0.8950028,-0.6561218 -0.8887075,-0.6616188 -0.8850772,-0.6637675 -0.8811887,-0.6653289 -0.8728964,-0.6663805 -0.8728964,-0.6663805 -0.8673799,-0.6659522 -0.8620491,-0.6644804 -0.8572308,-0.6617735 -0.8533882,-0.6577971 -0.850693,-0.6529714 -0.8489983,-0.6477002 -0.847679,-0.6367294 -0.8476791,-0.2731456 -0.8476791,-0.2731456 -0.8485959,-0.2613741 -0.8501701,-0.2556913 -0.8527837,-0.2503811 -0.8567936,-0.2460773 -0.8619031,-0.2431171 -0.8676396,-0.241729 -0.8735429,-0.2415655 -0.8735429,-0.2415655 -0.879803,-0.2418966 -0.8858906,-0.2433787 -0.8913294,-0.2464706 -0.8954184,-0.2512109 -0.8979619,-0.2569327 -0.8993268,-0.2630554 -0.9001458,-0.2755581z" transform="matrix(1,0,0,-1,6.19125,0.92075)" fill="rgb(104,104,104)" fill-rule="nonzero" shaper:cutDepth="0.0000762" stroke-linecap="round" stroke-linejoin="round" /><path d="M-0.415382,-0.5370609 L-0.5411625,-0.5370609 -0.4517754,-0.2848053 -0.4504984,-0.2815796 -0.4504984,-0.2815796 -0.4480902,-0.2742801 -0.4469668,-0.2706053 -0.4466034,-0.2667828 -0.4466034,-0.2667828 -0.44725,-0.2616103 -0.4489707,-0.2566906 -0.4518414,-0.2523405 -0.4554824,-0.2486096 -0.4597122,-0.2455642 -0.4644542,-0.2433965 -0.4694956,-0.2420757 -0.4746842,-0.2415655 -0.4746842,-0.2415655 -0.4790131,-0.2418176 -0.4832448,-0.2427567 -0.487223,-0.2444766 -0.4907855,-0.2469496 -0.4938324,-0.2500268 -0.4962237,-0.2536488 -0.4996245,-0.2616101 -0.5009383,-0.2641604 -0.5992642,-0.5421154 -0.6011796,-0.5471727 -0.6011796,-0.5471727 -0.6042341,-0.5552257 -0.6053884,-0.5593754 -0.6055742,-0.5636638 -0.6055742,-0.5636638 -0.6046652,-0.570527 -0.6020912,-0.5769429 -0.5978314,-0.5823925 -0.5921804,-0.5863871 -0.5921804,-0.5863871 -0.5892479,-0.5879991 -0.586051,-0.5889108 -0.5793952,-0.5895071 -0.5660393,-0.5896201 -0.415382,-0.5895278 -0.415382,-0.630149 -0.415382,-0.630149 -0.4152427,-0.640292 -0.4148566,-0.6453548 -0.4134422,-0.6502156 -0.4134422,-0.6502156 -0.4093812,-0.6572329 -0.4064829,-0.6600802 -0.4030962,-0.6623857 -0.3994165,-0.664144 -0.3955397,-0.6653297 -0.3874859,-0.6663805 -0.3874859,-0.6663805 -0.38111,-0.6659613 -0.3750518,-0.6639104 -0.3723031,-0.6622746 -0.3699584,-0.6601027 -0.3666227,-0.6546547 -0.3645938,-0.6485905 -0.3634884,-0.6422952 -0.3629151,-0.6295244 -0.3629151,-0.5895278 -0.3233294,-0.5895278 -0.3233294,-0.5895278 -0.3119927,-0.5893301 -0.3063708,-0.5886293 -0.3009341,-0.5870337 -0.3009341,-0.5870337 -0.295174,-0.5828391 -0.2907218,-0.577279 -0.2879789,-0.5707089 -0.2868937,-0.5636638 -0.2868937,-0.5636638 -0.2881646,-0.5561653 -0.2913796,-0.5492764 -0.293631,-0.5461621 -0.296311,-0.5434755 -0.3028739,-0.5396473 -0.3028739,-0.5396473 -0.3070569,-0.5378565 -0.311582,-0.5372452 -0.3207015,-0.5370609 -0.3629151,-0.5370609 -0.3629151,-0.441578 -0.3629151,-0.4383522 -0.3629151,-0.4383522 -0.3628019,-0.432828 -0.3637394,-0.427386 -0.3658093,-0.4222646 -0.3689791,-0.417742 -0.3730968,-0.4140611 -0.3779572,-0.4114384 -0.3832842,-0.409978 -0.3887791,-0.4094039 -0.3887791,-0.4094039 -0.394335,-0.4099724 -0.3997183,-0.4114504 -0.4046506,-0.4140669 -0.4088535,-0.4177417 -0.4121892,-0.4222189 -0.4144508,-0.4273227 -0.4154039,-0.4328242 -0.415382,-0.4384085 -0.4147499,-0.441578 -0.415382,-0.5370609z" transform="matrix(1,0,0,-1,6.19125,0.92075)" fill="rgb(104,104,104)" fill-rule="nonzero" shaper:cutDepth="0.0000762" stroke-linecap="round" stroke-linejoin="round" /><path d="M0.8210759,-0.2696387 L0.8210759,-0.4070024 0.6193375,-0.4070024 0.6193375,-0.2710344 0.6193375,-0.2710344 0.6183115,-0.2603198 0.6168131,-0.2551512 0.6143687,-0.2503532 0.6108815,-0.2462559 0.6063321,-0.2433921 0.601155,-0.2419233 0.5957828,-0.2415655 0.5957828,-0.2415655 0.5888111,-0.2425804 0.5823682,-0.2453949 0.5795949,-0.2476014 0.5772942,-0.2502689 0.5740756,-0.2565296 0.5740756,-0.2565296 0.5728489,-0.2644171 0.5727824,-0.2724175 0.5727823,-0.6372493 0.5727823,-0.6372493 0.5735685,-0.6480695 0.5749697,-0.6533179 0.5774111,-0.6581638 0.5810576,-0.6621784 0.5857314,-0.6649288 0.5910021,-0.6662195 0.5964294,-0.6663805 0.5964294,-0.6663805 0.6017781,-0.6662082 0.6069497,-0.664847 0.6114921,-0.662032 0.614978,-0.6579783 0.6172548,-0.6531407 0.6185647,-0.6479469 0.6193375,-0.6372836 0.6193375,-0.4535574 0.8210759,-0.4535574 0.8210759,-0.6346712 0.8210759,-0.6346712 0.8211203,-0.6428273 0.8214438,-0.6468937 0.8223693,-0.6508622 0.8223693,-0.6508622 0.8252524,-0.6574506 0.8275477,-0.6602168 0.8303767,-0.6624938 0.8335461,-0.6642364 0.8369428,-0.6653972 0.8440765,-0.6663805 0.8440765,-0.6663805 0.8497229,-0.6660333 0.8552134,-0.6646836 0.8600623,-0.661785 0.8636138,-0.6574015 0.8657433,-0.6521595 0.8669464,-0.6466296 0.8676312,-0.6353438 0.8676311,-0.2710344 0.8676311,-0.2710344 0.8668543,-0.2603224 0.8655151,-0.2551168 0.8632784,-0.2502265 0.8598228,-0.2461232 0.8552602,-0.2432947 0.8500915,-0.2418309 0.8447231,-0.2415655 0.8447231,-0.2415655 0.8396528,-0.2420691 0.8347548,-0.2434642 0.8302821,-0.2459008 0.826487,-0.2492978 0.8235901,-0.2534874 0.8217137,-0.2582232 0.8209498,-0.2632583 0.8210761,-0.2683532 0.8210759,-0.2696387z" transform="matrix(1,0,0,-1,6.19125,0.92075)" fill="rgb(104,104,104)" fill-rule="nonzero" shaper:cutDepth="0.0000762" stroke-linecap="round" stroke-linejoin="round" /><path d="M1.0811933,-0.2356538 L1.0811933,-0.2356538 1.0926436,-0.2362505 1.1039833,-0.2379534 1.1151241,-0.2406636 1.1259939,-0.2443154 1.1365437,-0.2488071 1.1467025,-0.2541254 1.1564003,-0.2602431 1.1656206,-0.26706 1.1656206,-0.26706 1.1749187,-0.2756091 1.1833352,-0.2850342 1.1908563,-0.2951787 1.1976129,-0.3058577 1.2034438,-0.3170617 1.2085975,-0.3285971 1.2129636,-0.3404524 1.2166777,-0.3525276 1.2222539,-0.3771671 1.225835,-0.4021784 1.2276943,-0.4273753 1.2282482,-0.4526336 1.2282482,-0.4526336 1.2276836,-0.4764927 1.2258992,-0.5002865 1.2225553,-0.52392 1.2173485,-0.5472044 1.2100228,-0.5699203 1.2054619,-0.5809467 1.2002006,-0.5916589 1.1942364,-0.6020067 1.1875309,-0.6118847 1.18002,-0.6211449 1.1719942,-0.6299863 1.1719942,-0.6299863 1.1626046,-0.6379977 1.1524244,-0.6449765 1.1417614,-0.6511943 1.1305345,-0.6563212 1.118933,-0.66054 1.1069771,-0.6635972 1.0948076,-0.6656702 1.0824865,-0.6663805 1.0824865,-0.6663805 1.0670771,-0.6652008 1.0519374,-0.6620821 1.0372051,-0.6574132 1.0230642,-0.6511716 1.0095785,-0.6436188 0.9968963,-0.6347858 0.985192,-0.62469 0.9747817,-0.6132671 0.9747817,-0.6132671 0.9631079,-0.5946873 0.9582215,-0.5848538 0.9539023,-0.574757 0.9466897,-0.5540278 0.9413817,-0.5327318 0.9376866,-0.5110918 0.9351785,-0.4892852 0.9338476,-0.4673754 0.9333995,-0.4454287 0.9333995,-0.4454287 0.9340128,-0.4231221 0.9357673,-0.4008781 0.9390272,-0.3788025 0.9438261,-0.3570107 0.9504002,-0.3356857 0.9544899,-0.3253044 0.9591709,-0.315175 0.9644318,-0.3053247 0.9703224,-0.2958433 0.9840189,-0.2782369 0.9840189,-0.2782369 0.9940644,-0.2691115 1.0048951,-0.2609333 1.0164733,-0.2538529 1.028604,-0.2477659 1.0412414,-0.2428194 1.0542582,-0.2389773 1.0676143,-0.2365702 1.0811476,-0.2355615 1.0811933,-0.2356538z M1.132367,-0.3096431 L1.132367,-0.3096431 1.1210716,-0.3010956 1.1085538,-0.2944669 1.1019705,-0.2918482 1.0951664,-0.289891 1.0882089,-0.2885588 1.0811476,-0.2880284 1.0811933,-0.2881206 1.0811933,-0.2881206 1.0731411,-0.2887691 1.0652169,-0.290342 1.0575119,-0.2927744 1.0500298,-0.2958206 1.0428386,-0.2995043 1.035947,-0.3037207 1.0295457,-0.3086498 1.0236461,-0.3141693 1.0236461,-0.3141693 1.0179358,-0.3208811 1.0127228,-0.327967 1.0082065,-0.3355359 1.0042705,-0.3434205 0.9979134,-0.3598371 0.993191,-0.3768052 0.9897867,-0.3940818 0.987531,-0.4115498 0.9863044,-0.4291158 0.9858663,-0.4467219 0.9858663,-0.4467219 0.9870348,-0.48096 0.9887799,-0.4980012 0.9914395,-0.5149263 0.9952381,-0.531629 1.0005314,-0.5479197 1.0075728,-0.5635372 1.0166259,-0.5780737 1.0166259,-0.5780737 1.022624,-0.5855136 1.0293782,-0.5922723 1.0368032,-0.5982901 1.0448352,-0.6034649 1.0533647,-0.6077804 1.0623628,-0.6109847 1.0716689,-0.6131706 1.0811933,-0.6139137 1.0811933,-0.6139137 1.0895279,-0.6132764 1.0977204,-0.6116135 1.1056538,-0.6089772 1.1133309,-0.6056684 1.1206671,-0.6016603 1.1275779,-0.5969555 1.1340789,-0.5917002 1.1400338,-0.5858329 1.1400338,-0.5858329 1.1505663,-0.5712673 1.1587328,-0.5552369 1.1649318,-0.5383605 1.1694091,-0.5209397 1.1725123,-0.5032241 1.174452,-0.4853425 1.1754218,-0.4673831 1.1757814,-0.4494006 1.1757814,-0.4494006 1.1754524,-0.4306051 1.1741485,-0.4118588 1.1716934,-0.3932176 1.1678449,-0.3748253 1.1623107,-0.3568568 1.1588334,-0.3481257 1.1547672,-0.3396526 1.1501158,-0.3314739 1.144847,-0.3236819 1.1388533,-0.3164565 1.132367,-0.3096431z" transform="matrix(1,0,0,-1,6.19125,0.92075)" fill="rgb(104,104,104)" fill-rule="nonzero" shaper:cutDepth="0.0000762" stroke-linecap="round" stroke-linejoin="round" /><path d="M1.4477221,-0.2356538 L1.4477221,-0.2356538 1.4591724,-0.2362505 1.4705121,-0.2379534 1.4816529,-0.2406636 1.4925227,-0.2443154 1.5030725,-0.2488071 1.5132313,-0.2541254 1.5229291,-0.2602431 1.5321494,-0.26706 1.5321494,-0.26706 1.5414475,-0.2756091 1.549864,-0.2850342 1.5573851,-0.2951787 1.5641417,-0.3058577 1.5699726,-0.3170617 1.5751263,-0.3285971 1.5794924,-0.3404524 1.5832065,-0.3525276 1.5887827,-0.3771671 1.5923638,-0.4021784 1.5942231,-0.4273753 1.594777,-0.4526336 1.594777,-0.4526336 1.5942123,-0.4764927 1.592428,-0.5002865 1.5890841,-0.52392 1.5838773,-0.5472044 1.5765516,-0.5699203 1.5719907,-0.5809467 1.5667294,-0.5916589 1.5607652,-0.6020067 1.5540597,-0.6118847 1.5465488,-0.6211449 1.538523,-0.6299863 1.538523,-0.6299863 1.5291334,-0.6379977 1.5189532,-0.6449765 1.5082902,-0.6511943 1.4970633,-0.6563212 1.4854618,-0.66054 1.4735059,-0.6635972 1.4613364,-0.6656702 1.4490153,-0.6663805 1.4490153,-0.6663805 1.4336059,-0.6652008 1.4184662,-0.6620821 1.4037339,-0.6574132 1.389593,-0.6511716 1.3761073,-0.6436188 1.363425,-0.6347858 1.3517207,-0.62469 1.3413105,-0.6132671 1.3413105,-0.6132671 1.3296367,-0.5946873 1.3247503,-0.5848538 1.3204311,-0.574757 1.3132185,-0.5540278 1.3079105,-0.5327318 1.3042154,-0.5110918 1.3017073,-0.4892852 1.3003764,-0.4673754 1.2999283,-0.4454287 1.2999283,-0.4454287 1.3005416,-0.4231221 1.302296,-0.4008781 1.305556,-0.3788025 1.3103549,-0.3570107 1.3169289,-0.3356857 1.3210187,-0.3253044 1.3256997,-0.315175 1.3309606,-0.3053247 1.3368512,-0.2958433 1.3505477,-0.2782369 1.3505477,-0.2782369 1.3605932,-0.2691115 1.3714239,-0.2609333 1.3830021,-0.2538529 1.3951328,-0.2477659 1.4077702,-0.2428194 1.420787,-0.2389773 1.4341431,-0.2365702 1.4476764,-0.2355615 1.4477221,-0.2356538z M1.4988958,-0.3096431 L1.4988958,-0.3096431 1.4876004,-0.3010956 1.4750825,-0.2944669 1.4684993,-0.2918482 1.4616952,-0.289891 1.4547377,-0.2885588 1.4476764,-0.2880284 1.4477221,-0.2881206 1.4477221,-0.2881206 1.4396699,-0.2887691 1.4317457,-0.290342 1.4240407,-0.2927744 1.4165586,-0.2958206 1.4093674,-0.2995043 1.4024758,-0.3037207 1.3960745,-0.3086498 1.3901749,-0.3141693 1.3901749,-0.3141693 1.3844646,-0.3208811 1.3792516,-0.327967 1.3747353,-0.3355359 1.3707993,-0.3434205 1.3644422,-0.3598371 1.3597198,-0.3768052 1.3563155,-0.3940818 1.3540598,-0.4115498 1.3528332,-0.4291158 1.3523951,-0.4467219 1.3523951,-0.4467219 1.3535636,-0.48096 1.3553087,-0.4980012 1.3579683,-0.5149263 1.3617669,-0.531629 1.3670601,-0.5479197 1.3741016,-0.5635372 1.3831547,-0.5780737 1.3831547,-0.5780737 1.3891527,-0.5855136 1.395907,-0.5922723 1.403332,-0.5982901 1.411364,-0.6034649 1.4198935,-0.6077804 1.4288916,-0.6109847 1.4381977,-0.6131706 1.4477221,-0.6139137 1.4477221,-0.6139137 1.4560567,-0.6132764 1.4642492,-0.6116135 1.4721826,-0.6089772 1.4798597,-0.6056684 1.4871959,-0.6016603 1.4941066,-0.5969555 1.5006077,-0.5917002 1.5065626,-0.5858329 1.5065626,-0.5858329 1.5170951,-0.5712673 1.5252616,-0.5552369 1.5314605,-0.5383605 1.5359379,-0.5209397 1.5390411,-0.5032241 1.5409808,-0.4853425 1.5419506,-0.4673831 1.5423102,-0.4494006 1.5423102,-0.4494006 1.5419812,-0.4306051 1.5406773,-0.4118588 1.5382222,-0.3932176 1.5343737,-0.3748253 1.5288395,-0.3568568 1.5253621,-0.3481257 1.521296,-0.3396526 1.5166446,-0.3314739 1.5113758,-0.3236819 1.505382,-0.3164565 1.4988958,-0.3096431z" transform="matrix(1,0,0,-1,6.19125,0.92075)" fill="rgb(104,104,104)" fill-rule="nonzero" shaper:cutDepth="0.0000762" stroke-linecap="round" stroke-linejoin="round" /><path d="M1.8613602,-0.2520958 L1.7189239,-0.3960256 1.7189239,-0.273789 1.7189239,-0.273789 1.7187093,-0.2677968 1.7178463,-0.2618721 1.716185,-0.2561086 1.7134608,-0.2507744 1.7093673,-0.2464109 1.704202,-0.2433807 1.6983961,-0.2419079 1.6924133,-0.2415655 1.6924133,-0.2415655 1.6855434,-0.2422741 1.6790043,-0.2444742 1.67339,-0.248489 1.6690434,-0.2538509 1.6690434,-0.2538509 1.6673023,-0.2592848 1.666643,-0.2649616 1.6664571,-0.2763894 1.666457,-0.6366388 1.666457,-0.6366388 1.6678238,-0.6479194 1.6696649,-0.6533069 1.6726549,-0.6581396 1.6768008,-0.6620313 1.6818594,-0.6646269 1.6873838,-0.6659788 1.6930599,-0.6663805 1.6930599,-0.6663805 1.6986089,-0.6660634 1.703988,-0.6646841 1.7089362,-0.6621649 1.7129572,-0.6583369 1.7157982,-0.6535656 1.7175789,-0.6483009 1.7189239,-0.6372836 1.7189239,-0.4725844 1.7751101,-0.4153261 1.8925903,-0.6469324 1.8925903,-0.6469324 1.8974547,-0.6544209 1.9034693,-0.6610008 1.9071536,-0.6635351 1.9112831,-0.6652169 1.9156463,-0.666181 1.9201083,-0.6663805 1.9201083,-0.6663805 1.9250234,-0.6660003 1.9298106,-0.6648467 1.9343558,-0.662935 1.9384594,-0.6602132 1.9419977,-0.6567785 1.9446341,-0.6526215 1.9463416,-0.6479992 1.9468959,-0.643103 1.9468959,-0.643103 1.946625,-0.6380131 1.9454154,-0.6330544 1.9411689,-0.6237974 1.8140573,-0.3754384 1.8976982,-0.2911595 1.9002521,-0.288586 1.9002521,-0.288586 1.9047747,-0.2847952 1.9047747,-0.2847952 1.9079553,-0.2810849 1.9104919,-0.2769149 1.9121009,-0.2722988 1.9124415,-0.2674294 1.9124415,-0.2674294 1.9118752,-0.2623307 1.9105118,-0.2573877 1.9081627,-0.2528276 1.9048451,-0.2489179 1.9008099,-0.2457519 1.8962515,-0.2434029 1.8913191,-0.2420013 1.8862081,-0.2415655 1.8862081,-0.2415655 1.8792991,-0.2420556 1.8727186,-0.2441988 1.866818,-0.2478287 1.8613602,-0.2520958z" transform="matrix(1,0,0,-1,6.19125,0.92075)" fill="rgb(104,104,104)" fill-rule="nonzero" shaper:cutDepth="0.0000762" stroke-linecap="round" stroke-linejoin="round" /><path d="M3.7391513,-0.6198254 L3.5258663,-0.6198254 3.5258663,-0.2700048 3.5258663,-0.2700048 3.5248005,-0.2596177 3.5233149,-0.2546093 3.520901,-0.2499744 3.5173833,-0.246121 3.5129118,-0.2434271 3.5078877,-0.242003 3.5026811,-0.2415655 3.5026811,-0.2415655 3.497495,-0.2420139 3.4925216,-0.2435394 3.4881272,-0.2463313 3.4845713,-0.2501147 3.4821674,-0.2547363 3.4805904,-0.2596986 3.4793112,-0.2700158 3.4793111,-0.6349386 3.4793111,-0.6349386 3.4792432,-0.641195 3.4800775,-0.6473885 3.4821004,-0.6533078 3.4855733,-0.6585003 3.4904497,-0.6624031 3.4962157,-0.6648255 3.5023457,-0.6660452 3.5085929,-0.6663805 3.7346491,-0.6663805 3.7346491,-0.6663805 3.7439995,-0.666384 3.7486725,-0.666275 3.7531917,-0.6651797 3.7531917,-0.6651797 3.7597921,-0.6618299 3.762659,-0.6594956 3.7651036,-0.656687 3.7670672,-0.6535254 3.7684646,-0.6501039 3.7698185,-0.6428259 3.7698185,-0.6428259 3.7685439,-0.6357727 3.7652985,-0.6293844 3.7629901,-0.6265974 3.7602712,-0.6242708 3.7538383,-0.6211186 3.7538383,-0.6211186 3.7465576,-0.619891 3.7391513,-0.6198254z" transform="matrix(1,0,0,-1,6.19125,0.92075)" fill="rgb(104,104,104)" fill-rule="nonzero" shaper:cutDepth="0.0000762" stroke-linecap="round" stroke-linejoin="round" /><path d="M4.0242087,-0.4772967 L4.0704866,-0.4772045 4.0704866,-0.5436213 4.0704866,-0.5436213 4.0702657,-0.5532248 4.0693353,-0.5627809 4.0671993,-0.5721465 4.0635589,-0.5810296 4.0635589,-0.5810296 4.0588426,-0.5885542 4.0530219,-0.5952628 4.046298,-0.6010604 4.0387599,-0.6057608 4.0306788,-0.6094372 4.0221561,-0.6119458 4.0134036,-0.613438 4.0045337,-0.6139137 4.0045337,-0.6139137 3.9941196,-0.6135302 3.9838326,-0.6118646 3.973851,-0.6088696 3.9642661,-0.604782 3.9552831,-0.5995001 3.9469535,-0.5932343 3.9392481,-0.5862203 3.9322071,-0.5785355 3.9322071,-0.5785355 3.9220063,-0.5650054 3.9130124,-0.550644 3.9053244,-0.5355437 3.8988904,-0.5198674 3.8936655,-0.5037476 3.8898338,-0.4872422 3.8873508,-0.4704795 3.8864833,-0.4535573 3.8864833,-0.4535573 3.8870154,-0.4401934 3.8885434,-0.4269069 3.8910591,-0.413771 3.8945759,-0.4008674 3.8990276,-0.3882557 3.904425,-0.3760189 3.9108922,-0.3643123 3.918259,-0.3531499 3.918259,-0.3531499 3.92565,-0.3416837 3.9338411,-0.3307794 3.9430328,-0.3206982 3.9532817,-0.311698 3.9646773,-0.3042057 3.9770966,-0.2985758 3.9836192,-0.296551 3.9902957,-0.2951381 4.0038871,-0.2940323 4.0038871,-0.2940323 4.0140952,-0.2947111 4.0240846,-0.2969405 4.0335954,-0.300698 4.0423823,-0.3059453 4.050444,-0.3122458 4.0578916,-0.3192686 4.0647587,-0.3268525 4.0711333,-0.3348604 4.0711333,-0.3348604 4.0763732,-0.3414719 4.0821368,-0.3476265 4.0854204,-0.350276 4.089109,-0.3523753 4.0931408,-0.3535187 4.0973667,-0.3538889 4.0973667,-0.3538889 4.1027443,-0.3530993 4.1078051,-0.3511114 4.1123309,-0.3481045 4.11616,-0.3442434 4.1192933,-0.3397994 4.1216671,-0.3349096 4.1230229,-0.3296441 4.1236001,-0.3242377 4.1236001,-0.3242377 4.1231514,-0.3192452 4.1220731,-0.3143825 4.1177668,-0.3053572 4.1119264,-0.2972464 4.1054954,-0.2895985 4.1054954,-0.2895985 4.0949524,-0.2794018 4.0836605,-0.2700444 4.0715674,-0.2617458 4.0587463,-0.2546231 4.0452091,-0.248984 4.0311333,-0.244869 4.0166835,-0.2423573 4.0020397,-0.2415655 4.0020397,-0.2415655 3.9912851,-0.2420372 3.9805989,-0.2433379 3.9700665,-0.2455638 3.9597183,-0.2485307 3.949602,-0.2522111 3.9397819,-0.2566214 3.9303751,-0.2618556 3.9213996,-0.2677989 3.9213996,-0.2677989 3.9112064,-0.2763768 3.9015855,-0.2855929 3.8925606,-0.2953924 3.8841668,-0.3057382 3.8764234,-0.3165791 3.8693336,-0.3278587 3.8628669,-0.3395064 3.857036,-0.3514854 3.8518388,-0.3637524 3.8472711,-0.3762677 3.8432956,-0.3889832 3.8400452,-0.4019032 3.8375187,-0.414984 3.8356226,-0.428171 3.8344636,-0.441443 3.8340165,-0.4547582 3.8340165,-0.4547582 3.8349482,-0.4748099 3.8374755,-0.4947237 3.8415547,-0.5143782 3.8472228,-0.533635 3.8544328,-0.552369 3.8630228,-0.5705116 3.8731628,-0.5878356 3.8846359,-0.6043071 3.8846359,-0.6043071 3.8956249,-0.6173812 3.9077286,-0.6294224 3.9209624,-0.6402218 3.9353343,-0.6494365 3.9506966,-0.6568996 3.9669266,-0.6621939 3.9836987,-0.6654088 4.0007465,-0.6663805 4.0007465,-0.6663805 4.016282,-0.6654234 4.0316163,-0.6627644 4.046557,-0.6583995 4.0609174,-0.6523989 4.0745576,-0.6449006 4.0872342,-0.6358731 4.0986634,-0.6253073 4.108636,-0.6133595 4.108636,-0.6133595 4.1155207,-0.6012375 4.1181601,-0.5947838 4.1201965,-0.5881046 4.122411,-0.5743533 4.1229535,-0.5604308 4.1229534,-0.4603406 4.1229534,-0.4603406 4.1228766,-0.4530089 4.1220778,-0.4457217 4.1199989,-0.4386926 4.1183087,-0.4354321 4.1161036,-0.4324965 4.1133727,-0.4300383 4.1102296,-0.4281431 4.103272,-0.4258171 4.0960188,-0.4248036 4.0886838,-0.4247375 4.0267102,-0.4247375 4.0267102,-0.4247375 4.0161049,-0.4249512 4.0108381,-0.4256166 4.0058269,-0.4273239 4.0058269,-0.4273239 3.9991476,-0.4310864 3.9963002,-0.433636 3.9938678,-0.4366352 3.991862,-0.43994 3.9904288,-0.4434861 3.9892924,-0.4510633 3.9892924,-0.4510633 3.9901452,-0.457395 3.9922787,-0.4634137 3.9959605,-0.4686323 4.0007465,-0.4728629 4.0007465,-0.4728629 4.0060506,-0.4757971 4.012046,-0.4768765 4.0242087,-0.4772967z" transform="matrix(1,0,0,-1,6.19125,0.92075)" fill="rgb(104,104,104)" fill-rule="nonzero" shaper:cutDepth="0.0000762" stroke-linecap="round" stroke-linejoin="round" /><path d="M-5.643245,-0.127 a0.245745,0.245745 0 1,1 0.49149,0 a0.245745,0.245745 0 1,1 -0.49149,0z" transform="matrix(1,0,0,-1,6.19125,0.92075)" fill="rgb(255,255,255)" stroke="rgb(0,0,0)" stroke-width="0.0010cm" stroke-linecap="round" stroke-linejoin="round" shaper:cutDepth="0.0015875" /><path d="M5.151755,-0.127 a0.245745,0.245745 0 1,1 0.49149,0 a0.245745,0.245745 0 1,1 -0.49149,0z" transform="matrix(1,0,0,-1,6.19125,0.92075)" fill="rgb(255,255,255)" stroke="rgb(0,0,0)" stroke-width="0.0010cm" stroke-linecap="round" stroke-linejoin="round" shaper:cutDepth="0.0015875" /></svg>