%TF.GenerationSoftware,KiCad,Pcbnew,(5.1.6)-1*%
%TF.CreationDate,2020-11-25T11:23:34+11:00*%
%TF.ProjectId,SIM CNTL Panel PCB V1,53494d20-434e-4544-9c20-50616e656c20,rev?*%
%TF.SameCoordinates,Original*%
%TF.FileFunction,Copper,L1,Top*%
%TF.FilePolarity,Positive*%
%FSLAX46Y46*%
G04 Gerber Fmt 4.6, Leading zero omitted, Abs format (unit mm)*
G04 Created by KiCad (PCBNEW (5.1.6)-1) date 2020-11-25 11:23:34*
%MOMM*%
%LPD*%
G01*
G04 APERTURE LIST*
%TA.AperFunction,SMDPad,CuDef*%
%ADD10R,1.500000X1.000000*%
%TD*%
%TA.AperFunction,ComponentPad*%
%ADD11C,1.520000*%
%TD*%
%TA.AperFunction,ComponentPad*%
%ADD12R,1.520000X1.520000*%
%TD*%
%TA.AperFunction,ComponentPad*%
%ADD13C,1.800000*%
%TD*%
%TA.AperFunction,ComponentPad*%
%ADD14R,1.800000X1.800000*%
%TD*%
%TA.AperFunction,ViaPad*%
%ADD15C,1.500000*%
%TD*%
%TA.AperFunction,ViaPad*%
%ADD16C,0.800000*%
%TD*%
%TA.AperFunction,Conductor*%
%ADD17C,1.000000*%
%TD*%
%TA.AperFunction,Conductor*%
%ADD18C,0.400600*%
%TD*%
%TA.AperFunction,Conductor*%
%ADD19C,0.250000*%
%TD*%
G04 APERTURE END LIST*
D10*
%TO.P,D62,1*%
%TO.N,/LED+5V*%
X136767000Y-94691400D03*
%TO.P,D62,2*%
%TO.N,/DATAOUT*%
X136767000Y-97891400D03*
%TO.P,D62,4*%
%TO.N,Net-(D61-Pad2)*%
X141667000Y-94691400D03*
%TO.P,D62,3*%
%TO.N,/LEDGND*%
X141667000Y-97891400D03*
%TD*%
%TO.P,D61,1*%
%TO.N,/LED+5V*%
X131981000Y-104877000D03*
%TO.P,D61,2*%
%TO.N,Net-(D61-Pad2)*%
X131981000Y-108077000D03*
%TO.P,D61,4*%
%TO.N,Net-(D60-Pad2)*%
X136881000Y-104877000D03*
%TO.P,D61,3*%
%TO.N,/LEDGND*%
X136881000Y-108077000D03*
%TD*%
%TO.P,D60,1*%
%TO.N,/LED+5V*%
X137442000Y-115443000D03*
%TO.P,D60,2*%
%TO.N,Net-(D60-Pad2)*%
X137442000Y-118643000D03*
%TO.P,D60,4*%
%TO.N,Net-(D59-Pad2)*%
X142342000Y-115443000D03*
%TO.P,D60,3*%
%TO.N,/LEDGND*%
X142342000Y-118643000D03*
%TD*%
%TO.P,D59,1*%
%TO.N,/LED+5V*%
X146242000Y-115418000D03*
%TO.P,D59,2*%
%TO.N,Net-(D59-Pad2)*%
X146242000Y-118618000D03*
%TO.P,D59,4*%
%TO.N,Net-(D58-Pad2)*%
X151142000Y-115418000D03*
%TO.P,D59,3*%
%TO.N,/LEDGND*%
X151142000Y-118618000D03*
%TD*%
%TO.P,D58,1*%
%TO.N,/LED+5V*%
X152097000Y-104902000D03*
%TO.P,D58,2*%
%TO.N,Net-(D58-Pad2)*%
X152097000Y-108102000D03*
%TO.P,D58,4*%
%TO.N,Net-(D57-Pad2)*%
X156997000Y-104902000D03*
%TO.P,D58,3*%
%TO.N,/LEDGND*%
X156997000Y-108102000D03*
%TD*%
%TO.P,D57,1*%
%TO.N,/LED+5V*%
X147170000Y-94665800D03*
%TO.P,D57,2*%
%TO.N,Net-(D57-Pad2)*%
X147170000Y-97865800D03*
%TO.P,D57,4*%
%TO.N,Net-(D56-Pad2)*%
X152070000Y-94665800D03*
%TO.P,D57,3*%
%TO.N,/LEDGND*%
X152070000Y-97865800D03*
%TD*%
%TO.P,D56,1*%
%TO.N,/LED+5V*%
X154536000Y-89077800D03*
%TO.P,D56,2*%
%TO.N,Net-(D56-Pad2)*%
X154536000Y-92277800D03*
%TO.P,D56,4*%
%TO.N,Net-(D55-Pad2)*%
X159436000Y-89077800D03*
%TO.P,D56,3*%
%TO.N,/LEDGND*%
X159436000Y-92277800D03*
%TD*%
%TO.P,D55,1*%
%TO.N,/LED+5V*%
X147105000Y-89078000D03*
%TO.P,D55,2*%
%TO.N,Net-(D55-Pad2)*%
X147105000Y-92278000D03*
%TO.P,D55,4*%
%TO.N,Net-(D54-Pad2)*%
X152005000Y-89078000D03*
%TO.P,D55,3*%
%TO.N,/LEDGND*%
X152005000Y-92278000D03*
%TD*%
%TO.P,D54,1*%
%TO.N,/LED+5V*%
X139118000Y-89052800D03*
%TO.P,D54,2*%
%TO.N,Net-(D54-Pad2)*%
X139118000Y-92252800D03*
%TO.P,D54,4*%
%TO.N,Net-(D53-Pad2)*%
X144018000Y-89052800D03*
%TO.P,D54,3*%
%TO.N,/LEDGND*%
X144018000Y-92252800D03*
%TD*%
%TO.P,D53,1*%
%TO.N,/LED+5V*%
X188482000Y-92761000D03*
%TO.P,D53,2*%
%TO.N,Net-(D53-Pad2)*%
X188482000Y-95961000D03*
%TO.P,D53,4*%
%TO.N,Net-(D52-Pad2)*%
X193382000Y-92761000D03*
%TO.P,D53,3*%
%TO.N,/LEDGND*%
X193382000Y-95961000D03*
%TD*%
%TO.P,D52,1*%
%TO.N,/LED+5V*%
X175973000Y-90728800D03*
%TO.P,D52,2*%
%TO.N,Net-(D52-Pad2)*%
X175973000Y-93928800D03*
%TO.P,D52,4*%
%TO.N,Net-(D51-Pad2)*%
X180873000Y-90728800D03*
%TO.P,D52,3*%
%TO.N,/LEDGND*%
X180873000Y-93928800D03*
%TD*%
%TO.P,D51,1*%
%TO.N,/LED+5V*%
X179682000Y-96850200D03*
%TO.P,D51,2*%
%TO.N,Net-(D51-Pad2)*%
X179682000Y-100050200D03*
%TO.P,D51,4*%
%TO.N,Net-(D50-Pad2)*%
X184582000Y-96850200D03*
%TO.P,D51,3*%
%TO.N,/LEDGND*%
X184582000Y-100050200D03*
%TD*%
%TO.P,D50,1*%
%TO.N,/LED+5V*%
X166042000Y-105207000D03*
%TO.P,D50,2*%
%TO.N,Net-(D50-Pad2)*%
X166042000Y-108407000D03*
%TO.P,D50,4*%
%TO.N,Net-(D49-Pad2)*%
X170942000Y-105207000D03*
%TO.P,D50,3*%
%TO.N,/LEDGND*%
X170942000Y-108407000D03*
%TD*%
%TO.P,D49,1*%
%TO.N,/LED+5V*%
X173496000Y-105207000D03*
%TO.P,D49,2*%
%TO.N,Net-(D49-Pad2)*%
X173496000Y-108407000D03*
%TO.P,D49,4*%
%TO.N,Net-(D48-Pad2)*%
X178396000Y-105207000D03*
%TO.P,D49,3*%
%TO.N,/LEDGND*%
X178396000Y-108407000D03*
%TD*%
%TO.P,D48,1*%
%TO.N,/LED+5V*%
X169864000Y-119152000D03*
%TO.P,D48,2*%
%TO.N,Net-(D48-Pad2)*%
X169864000Y-122352000D03*
%TO.P,D48,4*%
%TO.N,Net-(D47-Pad2)*%
X174764000Y-119152000D03*
%TO.P,D48,3*%
%TO.N,/LEDGND*%
X174764000Y-122352000D03*
%TD*%
%TO.P,D47,1*%
%TO.N,/LED+5V*%
X177269000Y-116510000D03*
%TO.P,D47,2*%
%TO.N,Net-(D47-Pad2)*%
X177269000Y-119710000D03*
%TO.P,D47,4*%
%TO.N,Net-(D46-Pad2)*%
X182169000Y-116510000D03*
%TO.P,D47,3*%
%TO.N,/LEDGND*%
X182169000Y-119710000D03*
%TD*%
%TO.P,D46,1*%
%TO.N,/LED+5V*%
X188685000Y-121793000D03*
%TO.P,D46,2*%
%TO.N,Net-(D46-Pad2)*%
X188685000Y-124993000D03*
%TO.P,D46,4*%
%TO.N,Net-(D45-Pad2)*%
X193585000Y-121793000D03*
%TO.P,D46,3*%
%TO.N,/LEDGND*%
X193585000Y-124993000D03*
%TD*%
%TO.P,D45,1*%
%TO.N,/LED+5V*%
X197284000Y-116891000D03*
%TO.P,D45,2*%
%TO.N,Net-(D45-Pad2)*%
X197284000Y-120091000D03*
%TO.P,D45,4*%
%TO.N,Net-(D44-Pad2)*%
X202184000Y-116891000D03*
%TO.P,D45,3*%
%TO.N,/LEDGND*%
X202184000Y-120091000D03*
%TD*%
%TO.P,D44,1*%
%TO.N,/LED+5V*%
X204345000Y-118643000D03*
%TO.P,D44,2*%
%TO.N,Net-(D44-Pad2)*%
X204345000Y-121843000D03*
%TO.P,D44,4*%
%TO.N,Net-(D43-Pad2)*%
X209245000Y-118643000D03*
%TO.P,D44,3*%
%TO.N,/LEDGND*%
X209245000Y-121843000D03*
%TD*%
%TO.P,D43,1*%
%TO.N,/LED+5V*%
X208345000Y-105867000D03*
%TO.P,D43,2*%
%TO.N,Net-(D43-Pad2)*%
X208345000Y-109067000D03*
%TO.P,D43,4*%
%TO.N,Net-(D42-Pad2)*%
X213245000Y-105867000D03*
%TO.P,D43,3*%
%TO.N,/LEDGND*%
X213245000Y-109067000D03*
%TD*%
%TO.P,D42,1*%
%TO.N,/LED+5V*%
X200090000Y-105893000D03*
%TO.P,D42,2*%
%TO.N,Net-(D42-Pad2)*%
X200090000Y-109093000D03*
%TO.P,D42,4*%
%TO.N,Net-(D41-Pad2)*%
X204990000Y-105893000D03*
%TO.P,D42,3*%
%TO.N,/LEDGND*%
X204990000Y-109093000D03*
%TD*%
%TO.P,D41,1*%
%TO.N,/LED+5V*%
X198503000Y-96393000D03*
%TO.P,D41,2*%
%TO.N,Net-(D41-Pad2)*%
X198503000Y-99593000D03*
%TO.P,D41,4*%
%TO.N,Net-(D40-Pad2)*%
X203403000Y-96393000D03*
%TO.P,D41,3*%
%TO.N,/LEDGND*%
X203403000Y-99593000D03*
%TD*%
%TO.P,D40,1*%
%TO.N,/LED+5V*%
X206199000Y-90729200D03*
%TO.P,D40,2*%
%TO.N,Net-(D40-Pad2)*%
X206199000Y-93929200D03*
%TO.P,D40,4*%
%TO.N,Net-(D39-Pad2)*%
X211099000Y-90729200D03*
%TO.P,D40,3*%
%TO.N,/LEDGND*%
X211099000Y-93929200D03*
%TD*%
%TO.P,D39,1*%
%TO.N,/LED+5V*%
X196903000Y-90703400D03*
%TO.P,D39,2*%
%TO.N,Net-(D39-Pad2)*%
X196903000Y-93903400D03*
%TO.P,D39,4*%
%TO.N,Net-(D38-Pad2)*%
X201803000Y-90703400D03*
%TO.P,D39,3*%
%TO.N,/LEDGND*%
X201803000Y-93903400D03*
%TD*%
%TO.P,D38,1*%
%TO.N,/LED+5V*%
X188493000Y-86106000D03*
%TO.P,D38,2*%
%TO.N,Net-(D38-Pad2)*%
X188493000Y-89306000D03*
%TO.P,D38,4*%
%TO.N,Net-(D37-Pad2)*%
X193393000Y-86106000D03*
%TO.P,D38,3*%
%TO.N,/LEDGND*%
X193393000Y-89306000D03*
%TD*%
%TO.P,R1,2*%
%TO.N,/LEDGND*%
%TA.AperFunction,SMDPad,CuDef*%
G36*
G01*
X199452000Y-77979600D02*
X199452000Y-78179600D01*
G75*
G02*
X199352000Y-78279600I-100000J0D01*
G01*
X199092000Y-78279600D01*
G75*
G02*
X198992000Y-78179600I0J100000D01*
G01*
X198992000Y-77979600D01*
G75*
G02*
X199092000Y-77879600I100000J0D01*
G01*
X199352000Y-77879600D01*
G75*
G02*
X199452000Y-77979600I0J-100000D01*
G01*
G37*
%TD.AperFunction*%
%TO.P,R1,1*%
%TO.N,Net-(D1-Pad1)*%
%TA.AperFunction,SMDPad,CuDef*%
G36*
G01*
X200092000Y-77979600D02*
X200092000Y-78179600D01*
G75*
G02*
X199992000Y-78279600I-100000J0D01*
G01*
X199732000Y-78279600D01*
G75*
G02*
X199632000Y-78179600I0J100000D01*
G01*
X199632000Y-77979600D01*
G75*
G02*
X199732000Y-77879600I100000J0D01*
G01*
X199992000Y-77879600D01*
G75*
G02*
X200092000Y-77979600I0J-100000D01*
G01*
G37*
%TD.AperFunction*%
%TD*%
D11*
%TO.P,J2,4*%
%TO.N,/LEDGND*%
X208990999Y-70792599D03*
%TO.P,J2,3*%
%TO.N,/DATAOUT*%
X208990999Y-67792600D03*
%TO.P,J2,2*%
%TO.N,/LED+5V*%
X205991000Y-70792599D03*
D12*
%TO.P,J2,1*%
%TO.N,/DATALOOP*%
X205991000Y-67792600D03*
%TD*%
D11*
%TO.P,J1,4*%
%TO.N,/DATAIN*%
X208965999Y-61013599D03*
%TO.P,J1,3*%
%TO.N,/LEDGND*%
X208965999Y-58013600D03*
%TO.P,J1,2*%
%TO.N,/DATALOOP*%
X205966000Y-61013599D03*
D12*
%TO.P,J1,1*%
%TO.N,/LED+5V*%
X205966000Y-58013600D03*
%TD*%
D10*
%TO.P,D37,1*%
%TO.N,/LED+5V*%
X131383000Y-89027200D03*
%TO.P,D37,2*%
%TO.N,Net-(D37-Pad2)*%
X131383000Y-92227200D03*
%TO.P,D37,4*%
%TO.N,Net-(D36-Pad2)*%
X136283000Y-89027200D03*
%TO.P,D37,3*%
%TO.N,/LEDGND*%
X136283000Y-92227200D03*
%TD*%
%TO.P,D36,1*%
%TO.N,/LED+5V*%
X95441600Y-100254000D03*
%TO.P,D36,2*%
%TO.N,Net-(D36-Pad2)*%
X95441600Y-103454000D03*
%TO.P,D36,4*%
%TO.N,Net-(D35-Pad2)*%
X100341600Y-100254000D03*
%TO.P,D36,3*%
%TO.N,/LEDGND*%
X100341600Y-103454000D03*
%TD*%
%TO.P,D35,1*%
%TO.N,/LED+5V*%
X95531600Y-107874000D03*
%TO.P,D35,2*%
%TO.N,Net-(D35-Pad2)*%
X95531600Y-111074000D03*
%TO.P,D35,4*%
%TO.N,Net-(D34-Pad2)*%
X100431600Y-107874000D03*
%TO.P,D35,3*%
%TO.N,/LEDGND*%
X100431600Y-111074000D03*
%TD*%
%TO.P,D34,1*%
%TO.N,/LED+5V*%
X102604000Y-116434000D03*
%TO.P,D34,2*%
%TO.N,Net-(D34-Pad2)*%
X102604000Y-119634000D03*
%TO.P,D34,4*%
%TO.N,Net-(D33-Pad2)*%
X107504000Y-116434000D03*
%TO.P,D34,3*%
%TO.N,/LEDGND*%
X107504000Y-119634000D03*
%TD*%
%TO.P,D33,1*%
%TO.N,/LED+5V*%
X111686000Y-116484000D03*
%TO.P,D33,2*%
%TO.N,Net-(D33-Pad2)*%
X111686000Y-119684000D03*
%TO.P,D33,4*%
%TO.N,Net-(D32-Pad2)*%
X116586000Y-116484000D03*
%TO.P,D33,3*%
%TO.N,/LEDGND*%
X116586000Y-119684000D03*
%TD*%
%TO.P,D32,1*%
%TO.N,/LED+5V*%
X117489000Y-105156000D03*
%TO.P,D32,2*%
%TO.N,Net-(D32-Pad2)*%
X117489000Y-108356000D03*
%TO.P,D32,4*%
%TO.N,Net-(D31-Pad2)*%
X122389000Y-105156000D03*
%TO.P,D32,3*%
%TO.N,/LEDGND*%
X122389000Y-108356000D03*
%TD*%
%TO.P,D31,1*%
%TO.N,/LED+5V*%
X111076000Y-91363800D03*
%TO.P,D31,2*%
%TO.N,Net-(D31-Pad2)*%
X111076000Y-94563800D03*
%TO.P,D31,4*%
%TO.N,Net-(D30-Pad2)*%
X115976000Y-91363800D03*
%TO.P,D31,3*%
%TO.N,/LEDGND*%
X115976000Y-94563800D03*
%TD*%
%TO.P,D30,1*%
%TO.N,/LED+5V*%
X102999000Y-91262200D03*
%TO.P,D30,2*%
%TO.N,Net-(D30-Pad2)*%
X102999000Y-94462200D03*
%TO.P,D30,4*%
%TO.N,Net-(D29-Pad2)*%
X107899000Y-91262200D03*
%TO.P,D30,3*%
%TO.N,/LEDGND*%
X107899000Y-94462200D03*
%TD*%
%TO.P,D29,1*%
%TO.N,/LED+5V*%
X83288800Y-96342200D03*
%TO.P,D29,2*%
%TO.N,Net-(D29-Pad2)*%
X83288800Y-99542200D03*
%TO.P,D29,4*%
%TO.N,Net-(D28-Pad2)*%
X88188800Y-96342200D03*
%TO.P,D29,3*%
%TO.N,/LEDGND*%
X88188800Y-99542200D03*
%TD*%
%TO.P,D28,1*%
%TO.N,/LED+5V*%
X83314200Y-89865200D03*
%TO.P,D28,2*%
%TO.N,Net-(D28-Pad2)*%
X83314200Y-93065200D03*
%TO.P,D28,4*%
%TO.N,Net-(D27-Pad2)*%
X88214200Y-89865200D03*
%TO.P,D28,3*%
%TO.N,/LEDGND*%
X88214200Y-93065200D03*
%TD*%
%TO.P,D27,1*%
%TO.N,/LED+5V*%
X83390400Y-83540600D03*
%TO.P,D27,2*%
%TO.N,Net-(D27-Pad2)*%
X83390400Y-86740600D03*
%TO.P,D27,4*%
%TO.N,Net-(D26-Pad2)*%
X88290400Y-83540600D03*
%TO.P,D27,3*%
%TO.N,/LEDGND*%
X88290400Y-86740600D03*
%TD*%
%TO.P,D26,1*%
%TO.N,/LED+5V*%
X176304000Y-62763400D03*
%TO.P,D26,2*%
%TO.N,Net-(D26-Pad2)*%
X176304000Y-65963400D03*
%TO.P,D26,4*%
%TO.N,Net-(D25-Pad2)*%
X181204000Y-62763400D03*
%TO.P,D26,3*%
%TO.N,/LEDGND*%
X181204000Y-65963400D03*
%TD*%
%TO.P,D25,1*%
%TO.N,/LED+5V*%
X170282000Y-72186800D03*
%TO.P,D25,2*%
%TO.N,Net-(D25-Pad2)*%
X170282000Y-75386800D03*
%TO.P,D25,4*%
%TO.N,Net-(D24-Pad2)*%
X175182000Y-72186800D03*
%TO.P,D25,3*%
%TO.N,/LEDGND*%
X175182000Y-75386800D03*
%TD*%
%TO.P,D24,1*%
%TO.N,/LED+5V*%
X177574000Y-72136000D03*
%TO.P,D24,2*%
%TO.N,Net-(D24-Pad2)*%
X177574000Y-75336000D03*
%TO.P,D24,4*%
%TO.N,Net-(D23-Pad2)*%
X182474000Y-72136000D03*
%TO.P,D24,3*%
%TO.N,/LEDGND*%
X182474000Y-75336000D03*
%TD*%
%TO.P,D23,1*%
%TO.N,/LED+5V*%
X184635000Y-78282800D03*
%TO.P,D23,2*%
%TO.N,Net-(D23-Pad2)*%
X184635000Y-81482800D03*
%TO.P,D23,4*%
%TO.N,Net-(D22-Pad2)*%
X189535000Y-78282800D03*
%TO.P,D23,3*%
%TO.N,/LEDGND*%
X189535000Y-81482800D03*
%TD*%
%TO.P,D22,1*%
%TO.N,/LED+5V*%
X192102000Y-78257800D03*
%TO.P,D22,2*%
%TO.N,Net-(D22-Pad2)*%
X192102000Y-81457800D03*
%TO.P,D22,4*%
%TO.N,Net-(D21-Pad2)*%
X197002000Y-78257800D03*
%TO.P,D22,3*%
%TO.N,/LEDGND*%
X197002000Y-81457800D03*
%TD*%
%TO.P,D21,1*%
%TO.N,/LED+5V*%
X198554000Y-66929000D03*
%TO.P,D21,2*%
%TO.N,Net-(D21-Pad2)*%
X198554000Y-70129000D03*
%TO.P,D21,4*%
%TO.N,Net-(D20-Pad2)*%
X203454000Y-66929000D03*
%TO.P,D21,3*%
%TO.N,/LEDGND*%
X203454000Y-70129000D03*
%TD*%
%TO.P,D20,1*%
%TO.N,/LED+5V*%
X194248000Y-55473800D03*
%TO.P,D20,2*%
%TO.N,Net-(D20-Pad2)*%
X194248000Y-58673800D03*
%TO.P,D20,4*%
%TO.N,Net-(D19-Pad2)*%
X199148000Y-55473800D03*
%TO.P,D20,3*%
%TO.N,/LEDGND*%
X199148000Y-58673800D03*
%TD*%
%TO.P,D19,1*%
%TO.N,/LED+5V*%
X181864000Y-55549800D03*
%TO.P,D19,2*%
%TO.N,Net-(D19-Pad2)*%
X181864000Y-58749800D03*
%TO.P,D19,4*%
%TO.N,Net-(D18-Pad2)*%
X186764000Y-55549800D03*
%TO.P,D19,3*%
%TO.N,/LEDGND*%
X186764000Y-58749800D03*
%TD*%
%TO.P,D18,1*%
%TO.N,/LED+5V*%
X142776000Y-57988200D03*
%TO.P,D18,2*%
%TO.N,Net-(D18-Pad2)*%
X142776000Y-61188200D03*
%TO.P,D18,4*%
%TO.N,Net-(D17-Pad2)*%
X147676000Y-57988200D03*
%TO.P,D18,3*%
%TO.N,/LEDGND*%
X147676000Y-61188200D03*
%TD*%
%TO.P,D17,1*%
%TO.N,/LED+5V*%
X153430000Y-58013800D03*
%TO.P,D17,2*%
%TO.N,Net-(D17-Pad2)*%
X153430000Y-61213800D03*
%TO.P,D17,4*%
%TO.N,Net-(D16-Pad2)*%
X158330000Y-58013800D03*
%TO.P,D17,3*%
%TO.N,/LEDGND*%
X158330000Y-61213800D03*
%TD*%
%TO.P,D16,1*%
%TO.N,/LED+5V*%
X158230000Y-69240600D03*
%TO.P,D16,2*%
%TO.N,Net-(D16-Pad2)*%
X158230000Y-72440600D03*
%TO.P,D16,4*%
%TO.N,Net-(D15-Pad2)*%
X163130000Y-69240600D03*
%TO.P,D16,3*%
%TO.N,/LEDGND*%
X163130000Y-72440600D03*
%TD*%
%TO.P,D15,1*%
%TO.N,/LED+5V*%
X147830000Y-78968600D03*
%TO.P,D15,2*%
%TO.N,Net-(D15-Pad2)*%
X147830000Y-82168600D03*
%TO.P,D15,4*%
%TO.N,Net-(D14-Pad2)*%
X152730000Y-78968600D03*
%TO.P,D15,3*%
%TO.N,/LEDGND*%
X152730000Y-82168600D03*
%TD*%
%TO.P,D14,1*%
%TO.N,/LED+5V*%
X137442000Y-74853800D03*
%TO.P,D14,2*%
%TO.N,Net-(D14-Pad2)*%
X137442000Y-78053800D03*
%TO.P,D14,4*%
%TO.N,Net-(D13-Pad2)*%
X142342000Y-74853800D03*
%TO.P,D14,3*%
%TO.N,/LEDGND*%
X142342000Y-78053800D03*
%TD*%
%TO.P,D13,1*%
%TO.N,/LED+5V*%
X130482000Y-74879200D03*
%TO.P,D13,2*%
%TO.N,Net-(D13-Pad2)*%
X130482000Y-78079200D03*
%TO.P,D13,4*%
%TO.N,Net-(D12-Pad2)*%
X135382000Y-74879200D03*
%TO.P,D13,3*%
%TO.N,/LEDGND*%
X135382000Y-78079200D03*
%TD*%
%TO.P,D12,1*%
%TO.N,/LED+5V*%
X138305000Y-65836800D03*
%TO.P,D12,2*%
%TO.N,Net-(D12-Pad2)*%
X138305000Y-69036800D03*
%TO.P,D12,4*%
%TO.N,Net-(D11-Pad2)*%
X143205000Y-65836800D03*
%TO.P,D12,3*%
%TO.N,/LEDGND*%
X143205000Y-69036800D03*
%TD*%
%TO.P,D11,1*%
%TO.N,/LED+5V*%
X131117000Y-65684400D03*
%TO.P,D11,2*%
%TO.N,Net-(D11-Pad2)*%
X131117000Y-68884400D03*
%TO.P,D11,4*%
%TO.N,Net-(D10-Pad2)*%
X136017000Y-65684400D03*
%TO.P,D11,3*%
%TO.N,/LEDGND*%
X136017000Y-68884400D03*
%TD*%
%TO.P,D10,1*%
%TO.N,/LED+5V*%
X90299200Y-64897000D03*
%TO.P,D10,2*%
%TO.N,Net-(D10-Pad2)*%
X90299200Y-68097000D03*
%TO.P,D10,4*%
%TO.N,Net-(D10-Pad4)*%
X95199200Y-64897000D03*
%TO.P,D10,3*%
%TO.N,/LEDGND*%
X95199200Y-68097000D03*
%TD*%
%TO.P,D9,1*%
%TO.N,/LED+5V*%
X97309600Y-65506600D03*
%TO.P,D9,2*%
%TO.N,Net-(D10-Pad4)*%
X97309600Y-68706600D03*
%TO.P,D9,4*%
%TO.N,Net-(D8-Pad2)*%
X102209600Y-65506600D03*
%TO.P,D9,3*%
%TO.N,/LEDGND*%
X102209600Y-68706600D03*
%TD*%
%TO.P,D8,1*%
%TO.N,/LED+5V*%
X97219600Y-71374200D03*
%TO.P,D8,2*%
%TO.N,Net-(D8-Pad2)*%
X97219600Y-74574200D03*
%TO.P,D8,4*%
%TO.N,Net-(D7-Pad2)*%
X102119600Y-71374200D03*
%TO.P,D8,3*%
%TO.N,/LEDGND*%
X102119600Y-74574200D03*
%TD*%
%TO.P,D7,1*%
%TO.N,/LED+5V*%
X107368000Y-76733400D03*
%TO.P,D7,2*%
%TO.N,Net-(D7-Pad2)*%
X107368000Y-79933400D03*
%TO.P,D7,4*%
%TO.N,Net-(D6-Pad2)*%
X112268000Y-76733400D03*
%TO.P,D7,3*%
%TO.N,/LEDGND*%
X112268000Y-79933400D03*
%TD*%
%TO.P,D6,1*%
%TO.N,/LED+5V*%
X118061000Y-66751200D03*
%TO.P,D6,2*%
%TO.N,Net-(D6-Pad2)*%
X118061000Y-69951200D03*
%TO.P,D6,4*%
%TO.N,Net-(D5-Pad2)*%
X122961000Y-66751200D03*
%TO.P,D6,3*%
%TO.N,/LEDGND*%
X122961000Y-69951200D03*
%TD*%
%TO.P,D5,1*%
%TO.N,/LED+5V*%
X119710200Y-55372400D03*
%TO.P,D5,2*%
%TO.N,Net-(D5-Pad2)*%
X119710200Y-58572400D03*
%TO.P,D5,4*%
%TO.N,Net-(D4-Pad2)*%
X124610200Y-55372400D03*
%TO.P,D5,3*%
%TO.N,/LEDGND*%
X124610200Y-58572400D03*
%TD*%
%TO.P,D4,1*%
%TO.N,/LED+5V*%
X112649000Y-55397800D03*
%TO.P,D4,2*%
%TO.N,Net-(D4-Pad2)*%
X112649000Y-58597800D03*
%TO.P,D4,4*%
%TO.N,Net-(D3-Pad2)*%
X117549000Y-55397800D03*
%TO.P,D4,3*%
%TO.N,/LEDGND*%
X117549000Y-58597800D03*
%TD*%
%TO.P,D3,1*%
%TO.N,/LED+5V*%
X102147000Y-55372200D03*
%TO.P,D3,2*%
%TO.N,Net-(D3-Pad2)*%
X102147000Y-58572200D03*
%TO.P,D3,4*%
%TO.N,Net-(D2-Pad2)*%
X107047000Y-55372200D03*
%TO.P,D3,3*%
%TO.N,/LEDGND*%
X107047000Y-58572200D03*
%TD*%
%TO.P,D2,1*%
%TO.N,/LED+5V*%
X94933600Y-57988400D03*
%TO.P,D2,2*%
%TO.N,Net-(D2-Pad2)*%
X94933600Y-61188400D03*
%TO.P,D2,4*%
%TO.N,/DATAIN*%
X99833600Y-57988400D03*
%TO.P,D2,3*%
%TO.N,/LEDGND*%
X99833600Y-61188400D03*
%TD*%
D13*
%TO.P,D1,2*%
%TO.N,/LED+5V*%
X204724000Y-75539600D03*
D14*
%TO.P,D1,1*%
%TO.N,Net-(D1-Pad1)*%
X204724000Y-78079600D03*
%TD*%
D15*
%TO.N,/LED+5V*%
X173099300Y-71720600D03*
X157436500Y-87223900D03*
X186442800Y-81972900D03*
D16*
%TO.N,/DATAIN*%
X115702500Y-55380800D03*
%TO.N,Net-(D7-Pad2)*%
X100765300Y-72043700D03*
X105437000Y-78701000D03*
%TO.N,Net-(D12-Pad2)*%
X134023900Y-74873900D03*
X138305000Y-70592800D03*
%TO.N,Net-(D16-Pad2)*%
X159703100Y-58013800D03*
X160391400Y-71377600D03*
%TO.N,Net-(D18-Pad2)*%
X184436600Y-55718200D03*
X148266900Y-59285900D03*
%TO.N,Net-(D26-Pad2)*%
X101019200Y-78791700D03*
X170232400Y-65963400D03*
%TO.N,Net-(D29-Pad2)*%
X95295900Y-92231000D03*
X89411800Y-98115100D03*
%TO.N,Net-(D34-Pad2)*%
X99356300Y-108950700D03*
X101528700Y-118570100D03*
%TO.N,/DATAOUT*%
X148936300Y-95544400D03*
%TO.N,Net-(D42-Pad2)*%
X211831000Y-105751200D03*
X201442100Y-109093000D03*
%TO.N,Net-(D44-Pad2)*%
X200810100Y-116967800D03*
X202979500Y-121843000D03*
%TO.N,Net-(D46-Pad2)*%
X185161000Y-116051000D03*
X186765200Y-124993000D03*
%TO.N,Net-(D48-Pad2)*%
X176868400Y-110470500D03*
X171448100Y-122352000D03*
%TO.N,Net-(D52-Pad2)*%
X190504400Y-92599200D03*
X177430400Y-93928800D03*
%TO.N,Net-(D53-Pad2)*%
X144627700Y-90242700D03*
X180772900Y-91951000D03*
%TO.N,Net-(D54-Pad2)*%
X150190700Y-89034100D03*
X141563400Y-92252800D03*
%TO.N,Net-(D57-Pad2)*%
X154874100Y-104054000D03*
X149450400Y-96813700D03*
%TO.N,Net-(D60-Pad2)*%
X136066100Y-118643000D03*
X134899400Y-102336600D03*
%TO.N,Net-(D61-Pad2)*%
X140316600Y-94691400D03*
X130526600Y-108077000D03*
%TO.N,Net-(D25-Pad2)*%
X178984800Y-63335000D03*
X171641500Y-75386800D03*
%TO.N,Net-(D37-Pad2)*%
X190051400Y-86081600D03*
X141785100Y-89943900D03*
%TO.N,Net-(D49-Pad2)*%
X171623300Y-106330100D03*
X174863300Y-108407000D03*
%TD*%
D17*
%TO.N,/LEDGND*%
X199148000Y-58673800D02*
X200598300Y-58673800D01*
X208966000Y-58013600D02*
X207466000Y-59513600D01*
X207466000Y-59513600D02*
X201438100Y-59513600D01*
X201438100Y-59513600D02*
X200598300Y-58673800D01*
X186764000Y-58749800D02*
X188214300Y-58749800D01*
X199148000Y-58673800D02*
X197697700Y-58673800D01*
X197697700Y-58673800D02*
X196001400Y-56977500D01*
X196001400Y-56977500D02*
X189986600Y-56977500D01*
X189986600Y-56977500D02*
X188214300Y-58749800D01*
X124409000Y-58546600D02*
X124411300Y-58548900D01*
X124411300Y-69951200D02*
X124544800Y-70084700D01*
X124544800Y-70084700D02*
X133366400Y-70084700D01*
X133366400Y-70084700D02*
X134566700Y-68884400D01*
X123686200Y-69951200D02*
X124411300Y-69951200D01*
X136017000Y-68884400D02*
X134566700Y-68884400D01*
X141754700Y-69036800D02*
X140554400Y-67836500D01*
X140554400Y-67836500D02*
X137064900Y-67836500D01*
X137064900Y-67836500D02*
X136017000Y-68884400D01*
X180478900Y-74791200D02*
X181023700Y-75336000D01*
X180478900Y-65963400D02*
X180478900Y-74791200D01*
X180478900Y-74791200D02*
X178725100Y-76545000D01*
X178725100Y-76545000D02*
X176340200Y-76545000D01*
X176340200Y-76545000D02*
X175182000Y-75386800D01*
X163130000Y-73218900D02*
X164033400Y-74122300D01*
X164033400Y-74122300D02*
X172467200Y-74122300D01*
X172467200Y-74122300D02*
X173731700Y-75386800D01*
X182474000Y-75336000D02*
X181023700Y-75336000D01*
X180478900Y-65963400D02*
X179753700Y-65963400D01*
X181204000Y-65963400D02*
X180478900Y-65963400D01*
X158330000Y-61213800D02*
X159780300Y-61213800D01*
X159780300Y-61213800D02*
X163329600Y-64763100D01*
X163329600Y-64763100D02*
X178553400Y-64763100D01*
X178553400Y-64763100D02*
X179753700Y-65963400D01*
X157604900Y-61213800D02*
X158330000Y-61213800D01*
X186764000Y-58749800D02*
X185313700Y-58749800D01*
X185313700Y-58749800D02*
X185313700Y-63304000D01*
X185313700Y-63304000D02*
X182654300Y-65963400D01*
X181204000Y-65963400D02*
X182654300Y-65963400D01*
X112268000Y-79933400D02*
X113718300Y-79933400D01*
X123686200Y-69951200D02*
X113718300Y-79919100D01*
X113718300Y-79919100D02*
X113718300Y-79933400D01*
X122961000Y-69951200D02*
X123686200Y-69951200D01*
X112268000Y-79933400D02*
X110817700Y-79933400D01*
X103569900Y-74574200D02*
X103569900Y-78417300D01*
X103569900Y-78417300D02*
X106286300Y-81133700D01*
X106286300Y-81133700D02*
X109617400Y-81133700D01*
X109617400Y-81133700D02*
X110817700Y-79933400D01*
X102119600Y-74574200D02*
X103569900Y-74574200D01*
X157604900Y-61213800D02*
X156879700Y-61213800D01*
X134832700Y-94563800D02*
X134832700Y-92227200D01*
X135654200Y-99091800D02*
X134832700Y-98270300D01*
X134832700Y-98270300D02*
X134832700Y-94563800D01*
X134832700Y-94563800D02*
X117426300Y-94563800D01*
X115976000Y-94563800D02*
X117426300Y-94563800D01*
X92243200Y-96300500D02*
X104610400Y-96300500D01*
X104610400Y-96300500D02*
X106448700Y-94462200D01*
X140216700Y-97891400D02*
X139016300Y-99091800D01*
X139016300Y-99091800D02*
X135654200Y-99091800D01*
X133431300Y-106077600D02*
X133431300Y-104086900D01*
X133431300Y-104086900D02*
X133348700Y-104004300D01*
X133348700Y-104004300D02*
X133348700Y-101397300D01*
X133348700Y-101397300D02*
X135654200Y-99091800D01*
X136283000Y-92227200D02*
X134832700Y-92227200D01*
X163130000Y-73218900D02*
X163130000Y-72440600D01*
X142342000Y-78053800D02*
X140891700Y-78053800D01*
X140891700Y-78053800D02*
X139691400Y-76853500D01*
X139691400Y-76853500D02*
X136376600Y-76853500D01*
X136376600Y-76853500D02*
X135382000Y-77848100D01*
X135382000Y-77848100D02*
X135382000Y-78079200D01*
X142342000Y-78053800D02*
X143816900Y-76578900D01*
X143816900Y-76578900D02*
X143816900Y-73878700D01*
X143816900Y-73878700D02*
X143205000Y-73266800D01*
X143205000Y-73266800D02*
X143205000Y-69036800D01*
X122389000Y-108356000D02*
X123839300Y-108356000D01*
X203454000Y-70129000D02*
X202003700Y-70129000D01*
X199049200Y-77309600D02*
X202003700Y-74355100D01*
X202003700Y-74355100D02*
X202003700Y-70129000D01*
D18*
X199049200Y-77309600D02*
X199049200Y-77906800D01*
X199049200Y-77906800D02*
X199222000Y-78079600D01*
D17*
X200126400Y-79716000D02*
X198931200Y-78520800D01*
X198931200Y-78520800D02*
X198931200Y-78370400D01*
X206336900Y-79257100D02*
X205878000Y-79716000D01*
X205878000Y-79716000D02*
X200126400Y-79716000D01*
X200126400Y-79716000D02*
X198452300Y-81390100D01*
X198452300Y-81390100D02*
X198452300Y-81457800D01*
D18*
X198931200Y-78370400D02*
X199222000Y-78079600D01*
D17*
X146225700Y-64269200D02*
X153824300Y-64269200D01*
X153824300Y-64269200D02*
X156879700Y-61213800D01*
X146225700Y-64269200D02*
X146225700Y-65068100D01*
X146225700Y-65068100D02*
X143205000Y-68088800D01*
X143205000Y-68088800D02*
X143205000Y-69036800D01*
X146225700Y-61188200D02*
X146225700Y-64269200D01*
X175182000Y-75386800D02*
X173731700Y-75386800D01*
X163130000Y-73218900D02*
X154474300Y-81874600D01*
X208991000Y-70792600D02*
X207346500Y-72437100D01*
X207346500Y-72437100D02*
X207346500Y-78247500D01*
X207346500Y-78247500D02*
X206336900Y-79257100D01*
X206336900Y-79257100D02*
X212549300Y-85469500D01*
X212549300Y-85469500D02*
X212549300Y-93929200D01*
X211099000Y-93929200D02*
X212549300Y-93929200D01*
X197002000Y-81457800D02*
X198452300Y-81457800D01*
X204853300Y-99593000D02*
X209813400Y-104553100D01*
X209813400Y-104553100D02*
X209813400Y-107866700D01*
X203403000Y-99593000D02*
X204853300Y-99593000D01*
X209648700Y-93929200D02*
X209648700Y-94797600D01*
X209648700Y-94797600D02*
X204853300Y-99593000D01*
X193585000Y-124993000D02*
X192134700Y-124993000D01*
X192134700Y-124993000D02*
X190934400Y-123792700D01*
X190934400Y-123792700D02*
X187702000Y-123792700D01*
X187702000Y-123792700D02*
X183619300Y-119710000D01*
X193585000Y-124993000D02*
X195831700Y-124993000D01*
X195831700Y-124993000D02*
X200733700Y-120091000D01*
X182169000Y-119710000D02*
X183619300Y-119710000D01*
X154474300Y-81874600D02*
X154180300Y-82168600D01*
X154474300Y-81874600D02*
X160886300Y-88286600D01*
X160886300Y-88286600D02*
X160886300Y-92277800D01*
X159436000Y-92277800D02*
X160886300Y-92277800D01*
X152730000Y-82168600D02*
X154180300Y-82168600D01*
X143205000Y-69036800D02*
X141754700Y-69036800D01*
X147676000Y-61188200D02*
X146225700Y-61188200D01*
X100431600Y-111074000D02*
X98981300Y-111074000D01*
X97691000Y-104654300D02*
X98891300Y-103454000D01*
X93571500Y-104654300D02*
X97691000Y-104654300D01*
X98981300Y-111074000D02*
X97691000Y-109783700D01*
X97691000Y-109783700D02*
X97691000Y-104654300D01*
X89639100Y-99542200D02*
X93571500Y-103474600D01*
X93571500Y-103474600D02*
X93571500Y-104654300D01*
X93571500Y-104654300D02*
X92876000Y-105349800D01*
X92876000Y-105349800D02*
X92876000Y-112437300D01*
X92876000Y-112437300D02*
X101273100Y-120834400D01*
X101273100Y-120834400D02*
X104853300Y-120834400D01*
X104853300Y-120834400D02*
X106053700Y-119634000D01*
X100341600Y-103454000D02*
X98891300Y-103454000D01*
X175489200Y-122352000D02*
X174045400Y-120908200D01*
X174045400Y-120908200D02*
X169318800Y-120908200D01*
X169318800Y-120908200D02*
X164591600Y-116181000D01*
X164591600Y-116181000D02*
X164591600Y-108102000D01*
X116586000Y-119684000D02*
X115135700Y-119684000D01*
X116586000Y-119684000D02*
X118036300Y-119684000D01*
X115135700Y-119684000D02*
X113935400Y-120884300D01*
X113935400Y-120884300D02*
X110204600Y-120884300D01*
X110204600Y-120884300D02*
X108954300Y-119634000D01*
X140891700Y-118643000D02*
X139691400Y-117442700D01*
X139691400Y-117442700D02*
X120277600Y-117442700D01*
X120277600Y-117442700D02*
X118036300Y-119684000D01*
X107504000Y-119634000D02*
X108954300Y-119634000D01*
X143292900Y-92252800D02*
X142092600Y-91052500D01*
X142092600Y-91052500D02*
X137457700Y-91052500D01*
X137457700Y-91052500D02*
X136283000Y-92227200D01*
X89664500Y-93065200D02*
X89664500Y-93721800D01*
X89664500Y-93721800D02*
X92243200Y-96300500D01*
X151142000Y-118618000D02*
X152592300Y-118618000D01*
X152592300Y-118618000D02*
X156997000Y-114213300D01*
X156997000Y-114213300D02*
X156997000Y-108102000D01*
X150416900Y-118618000D02*
X151142000Y-118618000D01*
X164591600Y-108102000D02*
X164591600Y-107542400D01*
X164591600Y-107542400D02*
X164927300Y-107206700D01*
X164927300Y-107206700D02*
X168291400Y-107206700D01*
X168291400Y-107206700D02*
X169491700Y-108407000D01*
X156997000Y-108102000D02*
X164591600Y-108102000D01*
X175489200Y-122352000D02*
X176214300Y-122352000D01*
X174764000Y-122352000D02*
X175489200Y-122352000D01*
X135430700Y-108077000D02*
X133431300Y-106077600D01*
X123839300Y-108356000D02*
X126117700Y-106077600D01*
X126117700Y-106077600D02*
X133431300Y-106077600D01*
X211099000Y-93929200D02*
X209648700Y-93929200D01*
X205845200Y-120091000D02*
X207597200Y-121843000D01*
X207597200Y-121843000D02*
X207794700Y-121843000D01*
X205715200Y-109093000D02*
X205845200Y-109223000D01*
X205845200Y-109223000D02*
X205845200Y-120091000D01*
X205845200Y-120091000D02*
X203634300Y-120091000D01*
X202184000Y-120091000D02*
X203634300Y-120091000D01*
X202184000Y-120091000D02*
X200733700Y-120091000D01*
X209245000Y-121843000D02*
X207794700Y-121843000D01*
X205715200Y-109093000D02*
X206440300Y-109093000D01*
X204990000Y-109093000D02*
X205715200Y-109093000D01*
X189535000Y-81482800D02*
X190774500Y-80243300D01*
X190774500Y-80243300D02*
X193730000Y-80243300D01*
X193730000Y-80243300D02*
X194944500Y-81457800D01*
X175745400Y-107206700D02*
X175745400Y-105600100D01*
X175745400Y-105600100D02*
X180095000Y-101250500D01*
X180095000Y-101250500D02*
X181425400Y-101250500D01*
X181425400Y-101250500D02*
X182625700Y-100050200D01*
X176945700Y-108407000D02*
X175745400Y-107206700D01*
X175745400Y-107206700D02*
X172360300Y-107206700D01*
X172360300Y-107206700D02*
X171160000Y-108407000D01*
X171160000Y-108407000D02*
X170942000Y-108407000D01*
X170942000Y-108407000D02*
X169491700Y-108407000D01*
X159436000Y-92277800D02*
X157985700Y-92277800D01*
X150416900Y-118618000D02*
X149691700Y-118618000D01*
X142342000Y-118643000D02*
X140891700Y-118643000D01*
X143067200Y-118643000D02*
X142342000Y-118643000D01*
X141667000Y-97891400D02*
X140216700Y-97891400D01*
X143067200Y-118643000D02*
X143792300Y-118643000D01*
X102209600Y-68706600D02*
X100759300Y-68706600D01*
X100558800Y-61188400D02*
X100558800Y-68506100D01*
X100558800Y-68506100D02*
X100759300Y-68706600D01*
X100558800Y-61188400D02*
X101283900Y-61188400D01*
X99833600Y-61188400D02*
X100558800Y-61188400D01*
X107047000Y-60247500D02*
X102224800Y-60247500D01*
X102224800Y-60247500D02*
X101283900Y-61188400D01*
X113904300Y-61621000D02*
X108420500Y-61621000D01*
X108420500Y-61621000D02*
X107047000Y-60247500D01*
X107047000Y-60247500D02*
X107047000Y-58572200D01*
X99833600Y-61188400D02*
X98383300Y-61188400D01*
X95199200Y-68097000D02*
X93748900Y-68097000D01*
X93748900Y-68097000D02*
X93748900Y-64041700D01*
X93748900Y-64041700D02*
X95401900Y-62388700D01*
X95401900Y-62388700D02*
X97183000Y-62388700D01*
X97183000Y-62388700D02*
X98383300Y-61188400D01*
X92243200Y-96300500D02*
X92243200Y-96938100D01*
X92243200Y-96938100D02*
X89639100Y-99542200D01*
X107504000Y-119634000D02*
X106053700Y-119634000D01*
X88188800Y-99542200D02*
X89639100Y-99542200D01*
X203403000Y-99593000D02*
X201952700Y-99593000D01*
X199605300Y-95192600D02*
X195600700Y-95192600D01*
X195600700Y-95192600D02*
X194832300Y-95961000D01*
X201952700Y-99593000D02*
X201952700Y-97540000D01*
X201952700Y-97540000D02*
X199605300Y-95192600D01*
X199605300Y-95192600D02*
X199605300Y-94650800D01*
X199605300Y-94650800D02*
X200352700Y-93903400D01*
X201803000Y-93903400D02*
X200352700Y-93903400D01*
X194944500Y-81457800D02*
X194944500Y-89204800D01*
X194944500Y-89204800D02*
X194843300Y-89306000D01*
X195551700Y-81457800D02*
X194944500Y-81457800D01*
X193393000Y-89306000D02*
X194843300Y-89306000D01*
X197002000Y-81457800D02*
X195551700Y-81457800D01*
X176214300Y-122352000D02*
X178076700Y-122352000D01*
X178076700Y-122352000D02*
X180718700Y-119710000D01*
X182169000Y-119710000D02*
X180718700Y-119710000D01*
X180873000Y-93928800D02*
X182323300Y-93928800D01*
X182625700Y-100050200D02*
X182625700Y-94231200D01*
X182625700Y-94231200D02*
X182323300Y-93928800D01*
X182625700Y-100050200D02*
X183131700Y-100050200D01*
X184582000Y-100050200D02*
X183131700Y-100050200D01*
X178396000Y-108407000D02*
X176945700Y-108407000D01*
X143792300Y-118643000D02*
X144967600Y-119818300D01*
X144967600Y-119818300D02*
X148491400Y-119818300D01*
X148491400Y-119818300D02*
X149691700Y-118618000D01*
X88214200Y-93065200D02*
X89664500Y-93065200D01*
X88290400Y-86740600D02*
X86840100Y-86740600D01*
X88214200Y-93065200D02*
X86763900Y-93065200D01*
X86763900Y-93065200D02*
X86763900Y-86816800D01*
X86763900Y-86816800D02*
X86840100Y-86740600D01*
X136881000Y-108077000D02*
X135430700Y-108077000D01*
X152070000Y-97865800D02*
X150619700Y-97865800D01*
X150619700Y-97865800D02*
X148783400Y-99702100D01*
X148783400Y-99702100D02*
X143477700Y-99702100D01*
X143477700Y-99702100D02*
X141667000Y-97891400D01*
X209813400Y-107866700D02*
X210594400Y-107866700D01*
X210594400Y-107866700D02*
X211794700Y-109067000D01*
X206440300Y-109093000D02*
X206440300Y-108717900D01*
X206440300Y-108717900D02*
X207291500Y-107866700D01*
X207291500Y-107866700D02*
X209813400Y-107866700D01*
X152005000Y-92278000D02*
X150554700Y-92278000D01*
X150554700Y-92278000D02*
X150554700Y-97800800D01*
X150554700Y-97800800D02*
X150619700Y-97865800D01*
X157985700Y-92277800D02*
X156785300Y-91077400D01*
X156785300Y-91077400D02*
X153205600Y-91077400D01*
X153205600Y-91077400D02*
X152005000Y-92278000D01*
X144018000Y-92252800D02*
X143292900Y-92252800D01*
X213245000Y-109067000D02*
X211794700Y-109067000D01*
X193382000Y-95961000D02*
X194832300Y-95961000D01*
X107899000Y-94462200D02*
X106448700Y-94462200D01*
X118400199Y-57372399D02*
X117549000Y-58223598D01*
X117549000Y-58223598D02*
X117549000Y-58597800D01*
X123410199Y-57372399D02*
X118400199Y-57372399D01*
X124610200Y-58572400D02*
X123410199Y-57372399D01*
X116927500Y-58597800D02*
X113904300Y-61621000D01*
X117549000Y-58597800D02*
X116927500Y-58597800D01*
%TO.N,/LED+5V*%
X205966000Y-58013600D02*
X204505700Y-58013600D01*
X204505700Y-58013600D02*
X203965500Y-57473400D01*
X203965500Y-57473400D02*
X198905000Y-57473400D01*
X198905000Y-57473400D02*
X196905400Y-55473800D01*
X196905400Y-55473800D02*
X194248000Y-55473800D01*
X183314300Y-56862000D02*
X187815900Y-56862000D01*
X187815900Y-56862000D02*
X189204100Y-55473800D01*
X189204100Y-55473800D02*
X194248000Y-55473800D01*
X177574000Y-72136000D02*
X176424500Y-70986500D01*
X176424500Y-70986500D02*
X173833400Y-70986500D01*
X173833400Y-70986500D02*
X173099300Y-71720600D01*
X173099300Y-71720600D02*
X172198500Y-71720600D01*
X172198500Y-71720600D02*
X171732300Y-72186800D01*
X178262300Y-91079800D02*
X178535300Y-91352800D01*
X178535300Y-91352800D02*
X178535300Y-95346300D01*
X178535300Y-95346300D02*
X178231700Y-95649900D01*
X178231700Y-95649900D02*
X178231700Y-96850200D01*
X177423300Y-90728800D02*
X177911300Y-90728800D01*
X177911300Y-90728800D02*
X178262300Y-91079800D01*
X183754700Y-89484000D02*
X179858100Y-89484000D01*
X179858100Y-89484000D02*
X178262300Y-91079800D01*
X129031700Y-89027200D02*
X131383000Y-89027200D01*
X112526300Y-91363800D02*
X114862900Y-89027200D01*
X114862900Y-89027200D02*
X129031700Y-89027200D01*
X129031700Y-74879200D02*
X129031700Y-89027200D01*
X130482000Y-74879200D02*
X129031700Y-74879200D01*
X130482000Y-74879200D02*
X131932300Y-74879200D01*
X131932300Y-74879200D02*
X133132700Y-73678800D01*
X133132700Y-73678800D02*
X136443900Y-73678800D01*
X136443900Y-73678800D02*
X137442000Y-74676900D01*
X137442000Y-74676900D02*
X137442000Y-74853800D01*
X154536000Y-89077800D02*
X155986300Y-89077800D01*
X157436500Y-87223900D02*
X155986300Y-88674100D01*
X155986300Y-88674100D02*
X155986300Y-89077800D01*
X99093200Y-75286800D02*
X101034900Y-73345100D01*
X101034900Y-73345100D02*
X104066900Y-73345100D01*
X104066900Y-73345100D02*
X105917700Y-75195900D01*
X105917700Y-75195900D02*
X105917700Y-76733400D01*
X95737400Y-75774400D02*
X95737600Y-75774600D01*
X95737600Y-75774600D02*
X98605400Y-75774600D01*
X98605400Y-75774600D02*
X99093200Y-75286800D01*
X105649600Y-90061900D02*
X105649600Y-88399300D01*
X105649600Y-88399300D02*
X102369500Y-85119200D01*
X102369500Y-85119200D02*
X102369500Y-78563200D01*
X102369500Y-78563200D02*
X99093200Y-75286800D01*
X105649600Y-90061900D02*
X104449300Y-91262200D01*
X109625700Y-91363800D02*
X109625700Y-90712800D01*
X109625700Y-90712800D02*
X108974800Y-90061900D01*
X108974800Y-90061900D02*
X105649600Y-90061900D01*
X83390400Y-83540600D02*
X84840700Y-83540600D01*
X95737400Y-75774400D02*
X89171500Y-82340300D01*
X89171500Y-82340300D02*
X86041000Y-82340300D01*
X86041000Y-82340300D02*
X84840700Y-83540600D01*
X96494500Y-71374200D02*
X95737400Y-72131300D01*
X95737400Y-72131300D02*
X95737400Y-75774400D01*
X187767900Y-86106000D02*
X192365300Y-90703400D01*
X192365300Y-90703400D02*
X196903000Y-90703400D01*
X187767900Y-86106000D02*
X187042700Y-86106000D01*
X188493000Y-86106000D02*
X187767900Y-86106000D01*
X187042700Y-86106000D02*
X187042700Y-82572800D01*
X187042700Y-82572800D02*
X186442800Y-81972900D01*
X183754700Y-89484000D02*
X183754700Y-89394000D01*
X183754700Y-89394000D02*
X187042700Y-86106000D01*
X186442800Y-78640300D02*
X186442800Y-81972900D01*
X185785200Y-78282800D02*
X186085300Y-78282800D01*
X186085300Y-78282800D02*
X186442800Y-78640300D01*
X192102000Y-78257800D02*
X190926700Y-77082500D01*
X190926700Y-77082500D02*
X188000600Y-77082500D01*
X188000600Y-77082500D02*
X186442800Y-78640300D01*
X184635000Y-78282800D02*
X185785200Y-78282800D01*
X183754700Y-89484000D02*
X187031700Y-92761000D01*
X188482000Y-92761000D02*
X187031700Y-92761000D01*
X107368000Y-76733400D02*
X105917700Y-76733400D01*
X183314300Y-56862000D02*
X183314300Y-55549800D01*
X177754300Y-62763400D02*
X178954600Y-61563100D01*
X178954600Y-61563100D02*
X181317800Y-61563100D01*
X181317800Y-61563100D02*
X183314300Y-59566600D01*
X183314300Y-59566600D02*
X183314300Y-56862000D01*
X176304000Y-62763400D02*
X177754300Y-62763400D01*
X176304000Y-62763400D02*
X170504600Y-62763400D01*
X170504600Y-62763400D02*
X166955300Y-59214100D01*
X166955300Y-59214100D02*
X156080600Y-59214100D01*
X156080600Y-59214100D02*
X154880300Y-58013800D01*
X181864000Y-55549800D02*
X183314300Y-55549800D01*
X118061000Y-66751200D02*
X119511300Y-66751200D01*
X107368000Y-76733400D02*
X108818300Y-76733400D01*
X108818300Y-76733400D02*
X110018600Y-77933700D01*
X110018600Y-77933700D02*
X113359100Y-77933700D01*
X113359100Y-77933700D02*
X119511300Y-71781500D01*
X119511300Y-71781500D02*
X119511300Y-66751200D01*
X153430000Y-58013800D02*
X154880300Y-58013800D01*
X168831700Y-72186800D02*
X164663500Y-68018600D01*
X164663500Y-68018600D02*
X160902300Y-68018600D01*
X160902300Y-68018600D02*
X159680300Y-69240600D01*
X158230000Y-69240600D02*
X159680300Y-69240600D01*
X120139600Y-106356300D02*
X118939300Y-105156000D01*
X120139600Y-115239000D02*
X120139600Y-106356300D01*
X131981000Y-104877000D02*
X125620600Y-104877000D01*
X125620600Y-104877000D02*
X124141300Y-106356300D01*
X124141300Y-106356300D02*
X120139600Y-106356300D01*
X120139600Y-115239000D02*
X117694300Y-117684300D01*
X117694300Y-117684300D02*
X114336600Y-117684300D01*
X114336600Y-117684300D02*
X113136300Y-116484000D01*
X135991700Y-115443000D02*
X135787700Y-115239000D01*
X135787700Y-115239000D02*
X120139600Y-115239000D01*
X117489000Y-105156000D02*
X118939300Y-105156000D01*
X198554000Y-66929000D02*
X200004300Y-66929000D01*
X205991000Y-70792600D02*
X205991000Y-70389000D01*
X205991000Y-70389000D02*
X203731300Y-68129300D01*
X203731300Y-68129300D02*
X201204600Y-68129300D01*
X201204600Y-68129300D02*
X200004300Y-66929000D01*
X204724000Y-75539600D02*
X205991000Y-74272600D01*
X205991000Y-74272600D02*
X205991000Y-70792600D01*
X145654700Y-93491100D02*
X145654700Y-91380400D01*
X145654700Y-91380400D02*
X146054600Y-90980500D01*
X146054600Y-90980500D02*
X146054600Y-90068900D01*
X146054600Y-90068900D02*
X145654700Y-89669000D01*
X145654700Y-89669000D02*
X145654700Y-89078000D01*
X196903000Y-90703400D02*
X198353300Y-90703400D01*
X198353300Y-90703400D02*
X199553700Y-89503000D01*
X199553700Y-89503000D02*
X203522500Y-89503000D01*
X203522500Y-89503000D02*
X204748700Y-90729200D01*
X206199000Y-90729200D02*
X204748700Y-90729200D01*
X102147000Y-55372200D02*
X103597300Y-55372200D01*
X103597300Y-55372200D02*
X104797600Y-54171900D01*
X104797600Y-54171900D02*
X110127200Y-54171900D01*
X110127200Y-54171900D02*
X111327700Y-55372400D01*
X102147000Y-55372200D02*
X99000100Y-55372200D01*
X99000100Y-55372200D02*
X96383900Y-57988400D01*
X112778000Y-55372400D02*
X111327700Y-55372400D01*
X170282000Y-72186800D02*
X168831700Y-72186800D01*
X178231700Y-96850200D02*
X172295600Y-102786300D01*
X172295600Y-102786300D02*
X172295600Y-104006600D01*
X172295600Y-104006600D02*
X173496000Y-105207000D01*
X167492300Y-105207000D02*
X168692700Y-104006600D01*
X168692700Y-104006600D02*
X172295600Y-104006600D01*
X166042000Y-105207000D02*
X167492300Y-105207000D01*
X154747600Y-106102300D02*
X160519200Y-106102300D01*
X160519200Y-106102300D02*
X161414500Y-105207000D01*
X161414500Y-105207000D02*
X166042000Y-105207000D01*
X145137300Y-87852400D02*
X146379700Y-86610000D01*
X146379700Y-86610000D02*
X146379700Y-78968600D01*
X147105000Y-89078000D02*
X145654700Y-89078000D01*
X145137300Y-87852400D02*
X145654700Y-88369800D01*
X145654700Y-88369800D02*
X145654700Y-89078000D01*
X147830000Y-78968600D02*
X146379700Y-78968600D01*
X140568300Y-89052800D02*
X141768700Y-87852400D01*
X141768700Y-87852400D02*
X145137300Y-87852400D01*
X139118000Y-89052800D02*
X140568300Y-89052800D01*
X132833300Y-89027200D02*
X134033600Y-87826900D01*
X134033600Y-87826900D02*
X137892100Y-87826900D01*
X137892100Y-87826900D02*
X139118000Y-89052800D01*
X137492200Y-94691400D02*
X136767000Y-94691400D01*
X131117000Y-65684400D02*
X132567300Y-65684400D01*
X137081000Y-62298900D02*
X135952800Y-62298900D01*
X135952800Y-62298900D02*
X132567300Y-65684400D01*
X137081000Y-62298900D02*
X137081000Y-62232900D01*
X137081000Y-62232900D02*
X141325700Y-57988200D01*
X138305000Y-65836800D02*
X138305000Y-63522900D01*
X138305000Y-63522900D02*
X137081000Y-62298900D01*
X179682000Y-96850200D02*
X178231700Y-96850200D01*
X147105000Y-89078000D02*
X148555300Y-89078000D01*
X148555300Y-89078000D02*
X149755600Y-87877700D01*
X149755600Y-87877700D02*
X153335900Y-87877700D01*
X153335900Y-87877700D02*
X154536000Y-89077800D01*
X175973000Y-90728800D02*
X177423300Y-90728800D01*
X145654700Y-93491100D02*
X139417600Y-93491100D01*
X139417600Y-93491100D02*
X138217300Y-94691400D01*
X196240400Y-97205300D02*
X197052700Y-96393000D01*
X198639700Y-105893000D02*
X196240400Y-103493700D01*
X196240400Y-103493700D02*
X196240400Y-97205300D01*
X196240400Y-97205300D02*
X192382000Y-97205300D01*
X192382000Y-97205300D02*
X188482000Y-93305300D01*
X188482000Y-93305300D02*
X188482000Y-92761000D01*
X154747600Y-106102300D02*
X153547300Y-104902000D01*
X154747600Y-106102300D02*
X154747600Y-114076700D01*
X154747600Y-114076700D02*
X152206000Y-116618300D01*
X152206000Y-116618300D02*
X148892600Y-116618300D01*
X148892600Y-116618300D02*
X147692300Y-115418000D01*
X146242000Y-115418000D02*
X147692300Y-115418000D01*
X131383000Y-89027200D02*
X132833300Y-89027200D01*
X137442000Y-115443000D02*
X135991700Y-115443000D01*
X111686000Y-116484000D02*
X113136300Y-116484000D01*
X200090000Y-105893000D02*
X198639700Y-105893000D01*
X198503000Y-96393000D02*
X197052700Y-96393000D01*
X137492200Y-94691400D02*
X138217300Y-94691400D01*
X104848700Y-115233700D02*
X108985400Y-115233700D01*
X108985400Y-115233700D02*
X110235700Y-116484000D01*
X102342000Y-112727000D02*
X104848700Y-115233700D01*
X104848700Y-115233700D02*
X104848700Y-115639600D01*
X104848700Y-115639600D02*
X104054300Y-116434000D01*
X96891900Y-100254000D02*
X98092300Y-99053600D01*
X98092300Y-99053600D02*
X101424700Y-99053600D01*
X101424700Y-99053600D02*
X102342000Y-99970900D01*
X102342000Y-99970900D02*
X102342000Y-112727000D01*
X102342000Y-112727000D02*
X94863400Y-112727000D01*
X94863400Y-112727000D02*
X94081300Y-111944900D01*
X94081300Y-111944900D02*
X94081300Y-107874000D01*
X95531600Y-107874000D02*
X94081300Y-107874000D01*
X203673000Y-118091400D02*
X199934700Y-118091400D01*
X199934700Y-118091400D02*
X198734300Y-116891000D01*
X204345000Y-118643000D02*
X203793400Y-118091400D01*
X203793400Y-118091400D02*
X203673000Y-118091400D01*
X203517900Y-107093300D02*
X203517900Y-112737200D01*
X203517900Y-112737200D02*
X203673000Y-112892300D01*
X203673000Y-112892300D02*
X203673000Y-118091400D01*
X197284000Y-116891000D02*
X198734300Y-116891000D01*
X203517900Y-107093300D02*
X206120600Y-107093300D01*
X206120600Y-107093300D02*
X206894700Y-106319200D01*
X206894700Y-106319200D02*
X206894700Y-105867000D01*
X201540300Y-105893000D02*
X202740600Y-107093300D01*
X202740600Y-107093300D02*
X203517900Y-107093300D01*
X145654700Y-93491100D02*
X145654700Y-94600800D01*
X145654700Y-94600800D02*
X145719700Y-94665800D01*
X147170000Y-94665800D02*
X145719700Y-94665800D01*
X142776000Y-57988200D02*
X141325700Y-57988200D01*
X142776000Y-57988200D02*
X144226300Y-57988200D01*
X153430000Y-58013800D02*
X151979700Y-58013800D01*
X151979700Y-58013800D02*
X150753800Y-56787900D01*
X150753800Y-56787900D02*
X145426600Y-56787900D01*
X145426600Y-56787900D02*
X144226300Y-57988200D01*
X95441600Y-100254000D02*
X96891900Y-100254000D01*
X102604000Y-116434000D02*
X104054300Y-116434000D01*
X111686000Y-116484000D02*
X110235700Y-116484000D01*
X94933600Y-57988400D02*
X96383900Y-57988400D01*
X97309600Y-65506600D02*
X98759900Y-65506600D01*
X97219600Y-71374200D02*
X98669900Y-71374200D01*
X98669900Y-71374200D02*
X98759900Y-71284200D01*
X98759900Y-71284200D02*
X98759900Y-65506600D01*
X96857100Y-71374200D02*
X97219600Y-71374200D01*
X96857100Y-71374200D02*
X96494500Y-71374200D01*
X96494500Y-71374200D02*
X95769300Y-71374200D01*
X95769300Y-71374200D02*
X95316000Y-71374200D01*
X95316000Y-71374200D02*
X91749500Y-67807700D01*
X91749500Y-67807700D02*
X91749500Y-64897000D01*
X90299200Y-64897000D02*
X91749500Y-64897000D01*
X94933600Y-57988400D02*
X93483300Y-57988400D01*
X93483300Y-57988400D02*
X91749500Y-59722200D01*
X91749500Y-59722200D02*
X91749500Y-64897000D01*
X208345000Y-105867000D02*
X206894700Y-105867000D01*
X200090000Y-105893000D02*
X201540300Y-105893000D01*
X197284000Y-116891000D02*
X195037300Y-116891000D01*
X195037300Y-116891000D02*
X190135300Y-121793000D01*
X190135300Y-121793000D02*
X186668900Y-118326600D01*
X186668900Y-118326600D02*
X180535900Y-118326600D01*
X180535900Y-118326600D02*
X178719300Y-116510000D01*
X177269000Y-116510000D02*
X178719300Y-116510000D01*
X169864000Y-119152000D02*
X171314300Y-119152000D01*
X177269000Y-116510000D02*
X173956300Y-116510000D01*
X173956300Y-116510000D02*
X171314300Y-119152000D01*
X152097000Y-104902000D02*
X153547300Y-104902000D01*
X111076000Y-91363800D02*
X112526300Y-91363800D01*
X102999000Y-91262200D02*
X104449300Y-91262200D01*
X137442000Y-115443000D02*
X138892300Y-115443000D01*
X146242000Y-115418000D02*
X144791700Y-115418000D01*
X144791700Y-115418000D02*
X143616400Y-114242700D01*
X143616400Y-114242700D02*
X140092600Y-114242700D01*
X140092600Y-114242700D02*
X138892300Y-115443000D01*
X188685000Y-121793000D02*
X190135300Y-121793000D01*
X111076000Y-91363800D02*
X109625700Y-91363800D01*
X83288800Y-96342200D02*
X81838500Y-96342200D01*
X81863900Y-89865200D02*
X81838500Y-89890600D01*
X81838500Y-89890600D02*
X81838500Y-96342200D01*
X81940100Y-83540600D02*
X81863900Y-83616800D01*
X81863900Y-83616800D02*
X81863900Y-89865200D01*
X83390400Y-83540600D02*
X81940100Y-83540600D01*
X83314200Y-89865200D02*
X81863900Y-89865200D01*
X170282000Y-72186800D02*
X171732300Y-72186800D01*
X113849001Y-54197799D02*
X112649000Y-55397800D01*
X118859001Y-54197799D02*
X113849001Y-54197799D01*
X119710200Y-55048998D02*
X118859001Y-54197799D01*
X119710200Y-55372400D02*
X119710200Y-55048998D01*
D19*
%TO.N,Net-(D1-Pad1)*%
X204724000Y-78079600D02*
X199862000Y-78079600D01*
%TO.N,Net-(D2-Pad2)*%
X107047000Y-55372200D02*
X105971700Y-55372200D01*
X94933600Y-61188400D02*
X96008900Y-61188400D01*
X96008900Y-61188400D02*
X96008900Y-60056700D01*
X96008900Y-60056700D02*
X99868100Y-56197500D01*
X99868100Y-56197500D02*
X105146400Y-56197500D01*
X105146400Y-56197500D02*
X105971700Y-55372200D01*
%TO.N,/DATAIN*%
X99833600Y-57988400D02*
X100908900Y-57988400D01*
X115702500Y-55380800D02*
X114435400Y-56647900D01*
X114435400Y-56647900D02*
X102249400Y-56647900D01*
X102249400Y-56647900D02*
X100908900Y-57988400D01*
%TO.N,Net-(D3-Pad2)*%
X103222300Y-58572200D02*
X104631500Y-57163000D01*
X104631500Y-57163000D02*
X114946100Y-57163000D01*
X102147000Y-58572200D02*
X103222300Y-58572200D01*
X116711300Y-55397800D02*
X117549000Y-55397800D01*
X114946100Y-57163000D02*
X116711300Y-55397800D01*
%TO.N,Net-(D4-Pad2)*%
X124409000Y-55346600D02*
X123333700Y-55346600D01*
X112778000Y-58572400D02*
X114687300Y-58572400D01*
X114687300Y-58572400D02*
X116738800Y-56520900D01*
X116738800Y-56520900D02*
X122159400Y-56520900D01*
X122159400Y-56520900D02*
X123333700Y-55346600D01*
%TO.N,Net-(D5-Pad2)*%
X122961000Y-66751200D02*
X121885700Y-66751200D01*
X119509000Y-58546600D02*
X120584300Y-58546600D01*
X120584300Y-58546600D02*
X120584300Y-65449800D01*
X120584300Y-65449800D02*
X121885700Y-66751200D01*
%TO.N,Net-(D6-Pad2)*%
X112268000Y-76733400D02*
X113343300Y-76733400D01*
X118061000Y-69951200D02*
X116985700Y-69951200D01*
X116985700Y-69951200D02*
X116985700Y-73091000D01*
X116985700Y-73091000D02*
X113343300Y-76733400D01*
%TO.N,Net-(D7-Pad2)*%
X100765300Y-72043700D02*
X101044300Y-71764700D01*
X101044300Y-71764700D02*
X101044300Y-71374200D01*
X107368000Y-79933400D02*
X106292700Y-79933400D01*
X102119600Y-71374200D02*
X101044300Y-71374200D01*
X106292700Y-79933400D02*
X106292700Y-79556700D01*
X106292700Y-79556700D02*
X105437000Y-78701000D01*
%TO.N,Net-(D8-Pad2)*%
X102209600Y-65506600D02*
X103284900Y-65506600D01*
X97219600Y-74574200D02*
X98294900Y-74574200D01*
X98294900Y-74574200D02*
X98294900Y-73383700D01*
X98294900Y-73383700D02*
X102146700Y-69531900D01*
X102146700Y-69531900D02*
X103094400Y-69531900D01*
X103094400Y-69531900D02*
X103284900Y-69341400D01*
X103284900Y-69341400D02*
X103284900Y-65506600D01*
%TO.N,Net-(D10-Pad4)*%
X97309600Y-68706600D02*
X97309600Y-67928500D01*
X97309600Y-67928500D02*
X95199200Y-65818100D01*
X95199200Y-65818100D02*
X95199200Y-64897000D01*
%TO.N,Net-(D10-Pad2)*%
X136017000Y-65684400D02*
X134941700Y-65684400D01*
X90299200Y-68097000D02*
X89223900Y-68097000D01*
X89223900Y-68097000D02*
X89223900Y-61075400D01*
X89223900Y-61075400D02*
X96966700Y-53332600D01*
X125953400Y-62295400D02*
X130167700Y-66509700D01*
X130167700Y-66509700D02*
X134116400Y-66509700D01*
X134116400Y-66509700D02*
X134941700Y-65684400D01*
X124405402Y-53332600D02*
X125953400Y-54880598D01*
X125953400Y-54880598D02*
X125953400Y-62295400D01*
X96966700Y-53332600D02*
X124405402Y-53332600D01*
%TO.N,Net-(D11-Pad2)*%
X143205000Y-65836800D02*
X142129700Y-65836800D01*
X131117000Y-68884400D02*
X132192300Y-68884400D01*
X132192300Y-68884400D02*
X134065600Y-67011100D01*
X134065600Y-67011100D02*
X140955400Y-67011100D01*
X140955400Y-67011100D02*
X142129700Y-65836800D01*
%TO.N,Net-(D12-Pad2)*%
X138305000Y-69036800D02*
X139380300Y-69036800D01*
X139380300Y-69036800D02*
X139380300Y-69786400D01*
X139380300Y-69786400D02*
X138573900Y-70592800D01*
X138573900Y-70592800D02*
X138305000Y-70592800D01*
X134023900Y-74873900D02*
X134301400Y-74873900D01*
X134301400Y-74873900D02*
X134306700Y-74879200D01*
X135382000Y-74879200D02*
X134306700Y-74879200D01*
%TO.N,Net-(D14-Pad2)*%
X152730000Y-78968600D02*
X151654700Y-78968600D01*
X137442000Y-78053800D02*
X138517300Y-78053800D01*
X138517300Y-78053800D02*
X139342600Y-78879100D01*
X139342600Y-78879100D02*
X143925700Y-78879100D01*
X143925700Y-78879100D02*
X144661500Y-78143300D01*
X144661500Y-78143300D02*
X150829400Y-78143300D01*
X150829400Y-78143300D02*
X151654700Y-78968600D01*
%TO.N,Net-(D15-Pad2)*%
X163130000Y-69240600D02*
X162054700Y-69240600D01*
X147830000Y-82168600D02*
X148905300Y-82168600D01*
X148905300Y-82168600D02*
X149730600Y-81343300D01*
X149730600Y-81343300D02*
X152070700Y-81343300D01*
X152070700Y-81343300D02*
X162054700Y-71359300D01*
X162054700Y-71359300D02*
X162054700Y-69240600D01*
%TO.N,Net-(D16-Pad2)*%
X159305300Y-72440600D02*
X159328400Y-72440600D01*
X159328400Y-72440600D02*
X160391400Y-71377600D01*
X158230000Y-72440600D02*
X159305300Y-72440600D01*
X159405300Y-58013800D02*
X159703100Y-58013800D01*
X158330000Y-58013800D02*
X159405300Y-58013800D01*
%TO.N,Net-(D17-Pad2)*%
X153430000Y-61213800D02*
X150204400Y-57988200D01*
X150204400Y-57988200D02*
X147676000Y-57988200D01*
%TO.N,Net-(D18-Pad2)*%
X185688700Y-55549800D02*
X185520300Y-55718200D01*
X185520300Y-55718200D02*
X184436600Y-55718200D01*
X142776000Y-61188200D02*
X143851300Y-61188200D01*
X186764000Y-55549800D02*
X185688700Y-55549800D01*
X143851300Y-61188200D02*
X145753600Y-59285900D01*
X145753600Y-59285900D02*
X148266900Y-59285900D01*
%TO.N,Net-(D19-Pad2)*%
X199148000Y-55473800D02*
X198072700Y-55473800D01*
X181864000Y-58749800D02*
X180788700Y-58749800D01*
X180788700Y-58749800D02*
X180788700Y-54889500D01*
X180788700Y-54889500D02*
X181029700Y-54648500D01*
X181029700Y-54648500D02*
X197247400Y-54648500D01*
X197247400Y-54648500D02*
X198072700Y-55473800D01*
%TO.N,Net-(D20-Pad2)*%
X203454000Y-66929000D02*
X202378700Y-66929000D01*
X194248000Y-58673800D02*
X195323300Y-58673800D01*
X195323300Y-58673800D02*
X195323300Y-59873600D01*
X195323300Y-59873600D02*
X202378700Y-66929000D01*
%TO.N,Net-(D21-Pad2)*%
X198554000Y-70129000D02*
X197002000Y-71681000D01*
X197002000Y-71681000D02*
X197002000Y-78257800D01*
%TO.N,Net-(D22-Pad2)*%
X189535000Y-78282800D02*
X188459700Y-78282800D01*
X192102000Y-81457800D02*
X191026700Y-81457800D01*
X191026700Y-81457800D02*
X191026700Y-81767300D01*
X191026700Y-81767300D02*
X190485800Y-82308200D01*
X190485800Y-82308200D02*
X188650300Y-82308200D01*
X188650300Y-82308200D02*
X188459700Y-82117600D01*
X188459700Y-82117600D02*
X188459700Y-78282800D01*
%TO.N,Net-(D23-Pad2)*%
X184635000Y-81482800D02*
X183559700Y-81482800D01*
X182474000Y-72136000D02*
X183549300Y-72136000D01*
X183549300Y-72136000D02*
X183549300Y-81472400D01*
X183549300Y-81472400D02*
X183559700Y-81482800D01*
%TO.N,Net-(D24-Pad2)*%
X175182000Y-72186800D02*
X176257300Y-72186800D01*
X177574000Y-75336000D02*
X176498700Y-75336000D01*
X176498700Y-75336000D02*
X176498700Y-72428200D01*
X176498700Y-72428200D02*
X176257300Y-72186800D01*
%TO.N,Net-(D26-Pad2)*%
X176304000Y-65963400D02*
X170232400Y-65963400D01*
X88290400Y-83540600D02*
X89365700Y-83540600D01*
X101019200Y-78791700D02*
X94114600Y-78791700D01*
X94114600Y-78791700D02*
X89365700Y-83540600D01*
%TO.N,Net-(D27-Pad2)*%
X88214200Y-89865200D02*
X89289500Y-89865200D01*
X83390400Y-86740600D02*
X84465700Y-86740600D01*
X84465700Y-86740600D02*
X85291100Y-85915200D01*
X85291100Y-85915200D02*
X89175600Y-85915200D01*
X89175600Y-85915200D02*
X89375100Y-86114700D01*
X89375100Y-86114700D02*
X89375100Y-89779600D01*
X89375100Y-89779600D02*
X89289500Y-89865200D01*
%TO.N,Net-(D28-Pad2)*%
X83314200Y-93065200D02*
X84389500Y-93065200D01*
X88188800Y-96342200D02*
X87113500Y-96342200D01*
X84389500Y-93065200D02*
X84389500Y-93618200D01*
X84389500Y-93618200D02*
X87113500Y-96342200D01*
%TO.N,Net-(D29-Pad2)*%
X83288800Y-99542200D02*
X84364100Y-99542200D01*
X84364100Y-99542200D02*
X85791200Y-98115100D01*
X85791200Y-98115100D02*
X89411800Y-98115100D01*
X95295900Y-92231000D02*
X105854900Y-92231000D01*
X105854900Y-92231000D02*
X106823700Y-91262200D01*
X107899000Y-91262200D02*
X106823700Y-91262200D01*
%TO.N,Net-(D30-Pad2)*%
X115976000Y-91363800D02*
X114900700Y-91363800D01*
X102999000Y-94462200D02*
X104074300Y-94462200D01*
X104074300Y-94462200D02*
X104899600Y-93636900D01*
X104899600Y-93636900D02*
X107134000Y-93636900D01*
X107134000Y-93636900D02*
X108581800Y-92189100D01*
X108581800Y-92189100D02*
X114075400Y-92189100D01*
X114075400Y-92189100D02*
X114900700Y-91363800D01*
%TO.N,Net-(D31-Pad2)*%
X122389000Y-105156000D02*
X121313700Y-105156000D01*
X111076000Y-94563800D02*
X112151300Y-94563800D01*
X112151300Y-94563800D02*
X121313700Y-103726200D01*
X121313700Y-103726200D02*
X121313700Y-105156000D01*
%TO.N,Net-(D32-Pad2)*%
X117489000Y-108356000D02*
X118564300Y-108356000D01*
X116586000Y-116484000D02*
X117661300Y-116484000D01*
X118564300Y-108356000D02*
X118564300Y-115581000D01*
X118564300Y-115581000D02*
X117661300Y-116484000D01*
%TO.N,Net-(D33-Pad2)*%
X107504000Y-116434000D02*
X108579300Y-116434000D01*
X111686000Y-119684000D02*
X110610700Y-119684000D01*
X110610700Y-119684000D02*
X110610700Y-118465400D01*
X110610700Y-118465400D02*
X108579300Y-116434000D01*
%TO.N,Net-(D34-Pad2)*%
X101528700Y-119634000D02*
X101528700Y-118570100D01*
X102604000Y-119634000D02*
X101528700Y-119634000D01*
X99356300Y-108950700D02*
X99356300Y-107874000D01*
X100431600Y-107874000D02*
X99356300Y-107874000D01*
%TO.N,Net-(D35-Pad2)*%
X100341600Y-100254000D02*
X101416900Y-100254000D01*
X95531600Y-111074000D02*
X96606900Y-111074000D01*
X96606900Y-111074000D02*
X97432200Y-111899300D01*
X97432200Y-111899300D02*
X101362600Y-111899300D01*
X101362600Y-111899300D02*
X101507000Y-111754900D01*
X101507000Y-111754900D02*
X101507000Y-100344100D01*
X101507000Y-100344100D02*
X101416900Y-100254000D01*
%TO.N,Net-(D36-Pad2)*%
X95441600Y-103454000D02*
X94366200Y-102378600D01*
X94366200Y-102378600D02*
X94366200Y-99618700D01*
X94366200Y-99618700D02*
X95770600Y-98214300D01*
X95770600Y-98214300D02*
X105858700Y-98214300D01*
X105858700Y-98214300D02*
X108974400Y-95098600D01*
X108974400Y-95098600D02*
X108974400Y-94928500D01*
X108974400Y-94928500D02*
X110164500Y-93738400D01*
X110164500Y-93738400D02*
X120396000Y-93738400D01*
X120396000Y-93738400D02*
X122732600Y-91401800D01*
X122732600Y-91401800D02*
X131911100Y-91401800D01*
X131911100Y-91401800D02*
X134285700Y-89027200D01*
X134285700Y-89027200D02*
X136283000Y-89027200D01*
%TO.N,/DATAOUT*%
X136767000Y-97891400D02*
X137842300Y-97891400D01*
X148936300Y-95544400D02*
X145116300Y-95544400D01*
X145116300Y-95544400D02*
X145054400Y-95482500D01*
X145054400Y-95482500D02*
X143005600Y-95482500D01*
X143005600Y-95482500D02*
X141422000Y-97066100D01*
X141422000Y-97066100D02*
X138667600Y-97066100D01*
X138667600Y-97066100D02*
X137842300Y-97891400D01*
%TO.N,Net-(D38-Pad2)*%
X201803000Y-90703400D02*
X200727700Y-90703400D01*
X188493000Y-89306000D02*
X189568300Y-89306000D01*
X189568300Y-89306000D02*
X191791000Y-91528700D01*
X191791000Y-91528700D02*
X199902400Y-91528700D01*
X199902400Y-91528700D02*
X200727700Y-90703400D01*
%TO.N,Net-(D39-Pad2)*%
X211099000Y-90729200D02*
X210023700Y-90729200D01*
X196903000Y-93903400D02*
X197978300Y-93903400D01*
X197978300Y-93903400D02*
X198803600Y-93078100D01*
X198803600Y-93078100D02*
X207674800Y-93078100D01*
X207674800Y-93078100D02*
X210023700Y-90729200D01*
%TO.N,Net-(D40-Pad2)*%
X203403000Y-96393000D02*
X204478300Y-96393000D01*
X206199000Y-93929200D02*
X205123700Y-93929200D01*
X205123700Y-93929200D02*
X205123700Y-95747600D01*
X205123700Y-95747600D02*
X204478300Y-96393000D01*
%TO.N,Net-(D41-Pad2)*%
X204990000Y-105893000D02*
X203914700Y-105893000D01*
X198503000Y-99593000D02*
X199578300Y-99593000D01*
X199578300Y-99593000D02*
X199578300Y-101556600D01*
X199578300Y-101556600D02*
X203914700Y-105893000D01*
%TO.N,Net-(D42-Pad2)*%
X201165300Y-109093000D02*
X201442100Y-109093000D01*
X200090000Y-109093000D02*
X201165300Y-109093000D01*
X213245000Y-105867000D02*
X212169700Y-105867000D01*
X211831000Y-105751200D02*
X212053900Y-105751200D01*
X212053900Y-105751200D02*
X212169700Y-105867000D01*
%TO.N,Net-(D43-Pad2)*%
X209245000Y-118643000D02*
X210320300Y-118643000D01*
X208345000Y-109067000D02*
X209420300Y-109067000D01*
X209420300Y-109067000D02*
X210320300Y-109967000D01*
X210320300Y-109967000D02*
X210320300Y-118643000D01*
%TO.N,Net-(D44-Pad2)*%
X200810100Y-116967800D02*
X201031900Y-116967800D01*
X201031900Y-116967800D02*
X201108700Y-116891000D01*
X203269700Y-121843000D02*
X202979500Y-121843000D01*
X204345000Y-121843000D02*
X203269700Y-121843000D01*
X202184000Y-116891000D02*
X201108700Y-116891000D01*
%TO.N,Net-(D45-Pad2)*%
X197284000Y-120091000D02*
X196208700Y-120091000D01*
X193585000Y-121793000D02*
X194660300Y-121793000D01*
X196208700Y-120091000D02*
X196208700Y-120244600D01*
X196208700Y-120244600D02*
X194660300Y-121793000D01*
%TO.N,Net-(D46-Pad2)*%
X188685000Y-124993000D02*
X186765200Y-124993000D01*
X185161000Y-116051000D02*
X183703300Y-116051000D01*
X183703300Y-116051000D02*
X183244300Y-116510000D01*
X182169000Y-116510000D02*
X183244300Y-116510000D01*
%TO.N,Net-(D47-Pad2)*%
X177269000Y-119710000D02*
X176193700Y-119710000D01*
X174764000Y-119152000D02*
X175839300Y-119152000D01*
X176193700Y-119710000D02*
X176193700Y-119506400D01*
X176193700Y-119506400D02*
X175839300Y-119152000D01*
%TO.N,Net-(D48-Pad2)*%
X179471300Y-105207000D02*
X179471300Y-109096400D01*
X179471300Y-109096400D02*
X178097200Y-110470500D01*
X178097200Y-110470500D02*
X176868400Y-110470500D01*
X169864000Y-122352000D02*
X171448100Y-122352000D01*
X178396000Y-105207000D02*
X179471300Y-105207000D01*
%TO.N,Net-(D50-Pad2)*%
X184582000Y-96850200D02*
X185657300Y-96850200D01*
X166042000Y-108407000D02*
X167117300Y-108407000D01*
X167117300Y-108407000D02*
X169913900Y-111203600D01*
X169913900Y-111203600D02*
X179821800Y-111203600D01*
X179821800Y-111203600D02*
X185657300Y-105368100D01*
X185657300Y-105368100D02*
X185657300Y-96850200D01*
%TO.N,Net-(D51-Pad2)*%
X180873000Y-90728800D02*
X179797700Y-90728800D01*
X179682000Y-100050200D02*
X180757300Y-100050200D01*
X180757300Y-100050200D02*
X180757300Y-96208400D01*
X180757300Y-96208400D02*
X179797700Y-95248800D01*
X179797700Y-95248800D02*
X179797700Y-90728800D01*
%TO.N,Net-(D52-Pad2)*%
X175973000Y-93928800D02*
X177430400Y-93928800D01*
X193382000Y-92761000D02*
X192306700Y-92761000D01*
X190504400Y-92599200D02*
X192144900Y-92599200D01*
X192144900Y-92599200D02*
X192306700Y-92761000D01*
%TO.N,Net-(D53-Pad2)*%
X188482000Y-95961000D02*
X187406700Y-95961000D01*
X144018000Y-89052800D02*
X144018000Y-89633000D01*
X144018000Y-89633000D02*
X144627700Y-90242700D01*
X187406700Y-95961000D02*
X183396700Y-91951000D01*
X183396700Y-91951000D02*
X180772900Y-91951000D01*
%TO.N,Net-(D54-Pad2)*%
X139118000Y-92252800D02*
X141563400Y-92252800D01*
X150929700Y-89078000D02*
X150885800Y-89034100D01*
X150885800Y-89034100D02*
X150190700Y-89034100D01*
X152005000Y-89078000D02*
X150929700Y-89078000D01*
%TO.N,Net-(D55-Pad2)*%
X147105000Y-92278000D02*
X148180300Y-92278000D01*
X159436000Y-89077800D02*
X158360700Y-89077800D01*
X148180300Y-92278000D02*
X150305800Y-90152500D01*
X150305800Y-90152500D02*
X157286000Y-90152500D01*
X157286000Y-90152500D02*
X158360700Y-89077800D01*
%TO.N,Net-(D56-Pad2)*%
X152070000Y-94665800D02*
X153145300Y-94665800D01*
X154536000Y-92277800D02*
X153460700Y-92277800D01*
X153460700Y-92277800D02*
X153460700Y-94350400D01*
X153460700Y-94350400D02*
X153145300Y-94665800D01*
%TO.N,Net-(D57-Pad2)*%
X147170000Y-97865800D02*
X148245300Y-97865800D01*
X156997000Y-104902000D02*
X155921700Y-104902000D01*
X154874100Y-104054000D02*
X155073700Y-104054000D01*
X155073700Y-104054000D02*
X155921700Y-104902000D01*
X148245300Y-97865800D02*
X149297400Y-96813700D01*
X149297400Y-96813700D02*
X149450400Y-96813700D01*
%TO.N,Net-(D58-Pad2)*%
X151142000Y-115418000D02*
X150066700Y-115418000D01*
X152097000Y-108102000D02*
X151021700Y-108102000D01*
X151021700Y-108102000D02*
X151021700Y-113637700D01*
X151021700Y-113637700D02*
X150066700Y-114592700D01*
X150066700Y-114592700D02*
X150066700Y-115418000D01*
%TO.N,Net-(D59-Pad2)*%
X142342000Y-115443000D02*
X143417300Y-115443000D01*
X146242000Y-118618000D02*
X145166700Y-118618000D01*
X145166700Y-118618000D02*
X145166700Y-117192400D01*
X145166700Y-117192400D02*
X143417300Y-115443000D01*
%TO.N,Net-(D60-Pad2)*%
X136366700Y-118643000D02*
X136066100Y-118643000D01*
X137442000Y-118643000D02*
X136366700Y-118643000D01*
X136881000Y-104877000D02*
X136881000Y-104318200D01*
X136881000Y-104318200D02*
X134899400Y-102336600D01*
X134899400Y-102336600D02*
X134899400Y-102336600D01*
%TO.N,Net-(D61-Pad2)*%
X140591700Y-94691400D02*
X140316600Y-94691400D01*
X131981000Y-108077000D02*
X130526600Y-108077000D01*
X141667000Y-94691400D02*
X140591700Y-94691400D01*
%TO.N,Net-(D13-Pad2)*%
X142342000Y-74853800D02*
X141266700Y-74853800D01*
X130482000Y-78079200D02*
X131557300Y-78079200D01*
X131557300Y-78079200D02*
X133608400Y-76028100D01*
X133608400Y-76028100D02*
X140092400Y-76028100D01*
X140092400Y-76028100D02*
X141266700Y-74853800D01*
%TO.N,Net-(D25-Pad2)*%
X170282000Y-75386800D02*
X171641500Y-75386800D01*
X181204000Y-62763400D02*
X180128700Y-62763400D01*
X178984800Y-63335000D02*
X179557100Y-63335000D01*
X179557100Y-63335000D02*
X180128700Y-62763400D01*
%TO.N,Net-(D37-Pad2)*%
X131383000Y-92227200D02*
X132458300Y-92227200D01*
X132458300Y-92227200D02*
X134741600Y-89943900D01*
X134741600Y-89943900D02*
X141785100Y-89943900D01*
X193393000Y-86106000D02*
X192317700Y-86106000D01*
X190051400Y-86081600D02*
X192293300Y-86081600D01*
X192293300Y-86081600D02*
X192317700Y-86106000D01*
%TO.N,Net-(D49-Pad2)*%
X171623300Y-106330100D02*
X172017300Y-105936100D01*
X172017300Y-105936100D02*
X172017300Y-105207000D01*
X173496000Y-108407000D02*
X174863300Y-108407000D01*
X170942000Y-105207000D02*
X172017300Y-105207000D01*
%TD*%
M02*
