%TF.GenerationSoftware,KiCad,Pcbnew,(5.1.9)-1*%
%TF.CreationDate,2022-08-04T12:07:28-06:00*%
%TF.ProjectId,standby_airspeed_vvi,7374616e-6462-4795-9f61-697273706565,rev?*%
%TF.SameCoordinates,Original*%
%TF.FileFunction,Legend,Bot*%
%TF.FilePolarity,Positive*%
%FSLAX46Y46*%
G04 Gerber Fmt 4.6, Leading zero omitted, Abs format (unit mm)*
G04 Created by KiCad (PCBNEW (5.1.9)-1) date 2022-08-04 12:07:28*
%MOMM*%
%LPD*%
G01*
G04 APERTURE LIST*
%ADD10C,0.150000*%
%ADD11C,0.120000*%
G04 APERTURE END LIST*
D10*
X167999670Y-109099574D02*
X168094908Y-109051954D01*
X168237766Y-109051954D01*
X168380623Y-109099574D01*
X168475861Y-109194812D01*
X168523480Y-109290050D01*
X168571099Y-109480526D01*
X168571099Y-109623383D01*
X168523480Y-109813859D01*
X168475861Y-109909097D01*
X168380623Y-110004335D01*
X168237766Y-110051954D01*
X168142527Y-110051954D01*
X167999670Y-110004335D01*
X167952051Y-109956716D01*
X167952051Y-109623383D01*
X168142527Y-109623383D01*
X167523480Y-110051954D02*
X167523480Y-109051954D01*
X166952051Y-110051954D01*
X166952051Y-109051954D01*
X166475861Y-110051954D02*
X166475861Y-109051954D01*
X166237766Y-109051954D01*
X166094908Y-109099574D01*
X165999670Y-109194812D01*
X165952051Y-109290050D01*
X165904432Y-109480526D01*
X165904432Y-109623383D01*
X165952051Y-109813859D01*
X165999670Y-109909097D01*
X166094908Y-110004335D01*
X166237766Y-110051954D01*
X166475861Y-110051954D01*
X169682289Y-106511954D02*
X169015623Y-106511954D01*
X169682289Y-107511954D01*
X169015623Y-107511954D01*
X168634670Y-106988145D02*
X168301337Y-106988145D01*
X168158480Y-107511954D02*
X168634670Y-107511954D01*
X168634670Y-106511954D01*
X168158480Y-106511954D01*
X167158480Y-107511954D02*
X167491813Y-107035764D01*
X167729908Y-107511954D02*
X167729908Y-106511954D01*
X167348956Y-106511954D01*
X167253718Y-106559574D01*
X167206099Y-106607193D01*
X167158480Y-106702431D01*
X167158480Y-106845288D01*
X167206099Y-106940526D01*
X167253718Y-106988145D01*
X167348956Y-107035764D01*
X167729908Y-107035764D01*
X166539432Y-106511954D02*
X166348956Y-106511954D01*
X166253718Y-106559574D01*
X166158480Y-106654812D01*
X166110861Y-106845288D01*
X166110861Y-107178621D01*
X166158480Y-107369097D01*
X166253718Y-107464335D01*
X166348956Y-107511954D01*
X166539432Y-107511954D01*
X166634670Y-107464335D01*
X166729908Y-107369097D01*
X166777527Y-107178621D01*
X166777527Y-106845288D01*
X166729908Y-106654812D01*
X166634670Y-106559574D01*
X166539432Y-106511954D01*
X168523480Y-104591002D02*
X167761575Y-104591002D01*
X168142527Y-104971954D02*
X168142527Y-104210050D01*
X166809194Y-103971954D02*
X167285385Y-103971954D01*
X167333004Y-104448145D01*
X167285385Y-104400526D01*
X167190146Y-104352907D01*
X166952051Y-104352907D01*
X166856813Y-104400526D01*
X166809194Y-104448145D01*
X166761575Y-104543383D01*
X166761575Y-104781478D01*
X166809194Y-104876716D01*
X166856813Y-104924335D01*
X166952051Y-104971954D01*
X167190146Y-104971954D01*
X167285385Y-104924335D01*
X167333004Y-104876716D01*
X166475861Y-103971954D02*
X166142527Y-104971954D01*
X165809194Y-103971954D01*
D11*
%TO.C,J4*%
X165227766Y-103157952D02*
X163897766Y-103157952D01*
X165227766Y-104487952D02*
X165227766Y-103157952D01*
X165227766Y-105757952D02*
X162567766Y-105757952D01*
X162567766Y-105757952D02*
X162567766Y-110897952D01*
X165227766Y-105757952D02*
X165227766Y-110897952D01*
X165227766Y-110897952D02*
X162567766Y-110897952D01*
%TO.C,D2*%
X196980515Y-79564574D02*
X196980515Y-80029574D01*
X196980515Y-76939574D02*
X196980515Y-77404574D01*
X192166036Y-79565003D02*
G75*
G03*
X196675199Y-79564574I2254479J1080429D01*
G01*
X192166036Y-77404145D02*
G75*
G02*
X196675199Y-77404574I2254479J-1080429D01*
G01*
X191632700Y-79565401D02*
G75*
G03*
X196980515Y-80029404I2787815J1080827D01*
G01*
X191632700Y-77403747D02*
G75*
G02*
X196980515Y-76939744I2787815J-1080827D01*
G01*
%TO.C,D1*%
X168825016Y-79564574D02*
X168825016Y-80029574D01*
X168825016Y-76939574D02*
X168825016Y-77404574D01*
X164010537Y-79565003D02*
G75*
G03*
X168519700Y-79564574I2254479J1080429D01*
G01*
X164010537Y-77404145D02*
G75*
G02*
X168519700Y-77404574I2254479J-1080429D01*
G01*
X163477201Y-79565401D02*
G75*
G03*
X168825016Y-80029404I2787815J1080827D01*
G01*
X163477201Y-77403747D02*
G75*
G02*
X168825016Y-76939744I2787815J-1080827D01*
G01*
%TO.C,J4*%
D10*
X164231099Y-101610332D02*
X164231099Y-102324618D01*
X164278718Y-102467475D01*
X164373956Y-102562713D01*
X164516813Y-102610332D01*
X164612051Y-102610332D01*
X163326337Y-101943666D02*
X163326337Y-102610332D01*
X163564432Y-101562713D02*
X163802527Y-102276999D01*
X163183480Y-102276999D01*
%TO.C,D2*%
X195285610Y-83000954D02*
X195285610Y-82000954D01*
X195047515Y-82000954D01*
X194904657Y-82048574D01*
X194809419Y-82143812D01*
X194761800Y-82239050D01*
X194714181Y-82429526D01*
X194714181Y-82572383D01*
X194761800Y-82762859D01*
X194809419Y-82858097D01*
X194904657Y-82953335D01*
X195047515Y-83000954D01*
X195285610Y-83000954D01*
X194333229Y-82096193D02*
X194285610Y-82048574D01*
X194190372Y-82000954D01*
X193952276Y-82000954D01*
X193857038Y-82048574D01*
X193809419Y-82096193D01*
X193761800Y-82191431D01*
X193761800Y-82286669D01*
X193809419Y-82429526D01*
X194380848Y-83000954D01*
X193761800Y-83000954D01*
%TO.C,D1*%
X167003111Y-83000954D02*
X167003111Y-82000954D01*
X166765016Y-82000954D01*
X166622158Y-82048574D01*
X166526920Y-82143812D01*
X166479301Y-82239050D01*
X166431682Y-82429526D01*
X166431682Y-82572383D01*
X166479301Y-82762859D01*
X166526920Y-82858097D01*
X166622158Y-82953335D01*
X166765016Y-83000954D01*
X167003111Y-83000954D01*
X165479301Y-83000954D02*
X166050730Y-83000954D01*
X165765016Y-83000954D02*
X165765016Y-82000954D01*
X165860254Y-82143812D01*
X165955492Y-82239050D01*
X166050730Y-82286669D01*
%TD*%
M02*
