%TF.GenerationSoftware,KiCad,Pcbnew,(5.1.9)-1*%
%TF.CreationDate,2021-09-20T07:58:25-06:00*%
%TF.ProjectId,ifei,69666569-2e6b-4696-9361-645f70636258,rev?*%
%TF.SameCoordinates,Original*%
%TF.FileFunction,Legend,Top*%
%TF.FilePolarity,Positive*%
%FSLAX46Y46*%
G04 Gerber Fmt 4.6, Leading zero omitted, Abs format (unit mm)*
G04 Created by KiCad (PCBNEW (5.1.9)-1) date 2021-09-20 07:58:25*
%MOMM*%
%LPD*%
G01*
G04 APERTURE LIST*
%ADD10C,0.150000*%
%ADD11C,0.100000*%
%ADD12C,0.120000*%
G04 APERTURE END LIST*
D10*
X197969379Y-105052880D02*
X198540808Y-105052880D01*
X198255094Y-106052880D02*
X198255094Y-105052880D01*
X198874141Y-106052880D02*
X198874141Y-105052880D01*
X199350332Y-106052880D02*
X199350332Y-105052880D01*
X199683665Y-105767166D01*
X200016999Y-105052880D01*
X200016999Y-106052880D01*
X200493189Y-105529071D02*
X200826522Y-105529071D01*
X200969379Y-106052880D02*
X200493189Y-106052880D01*
X200493189Y-105052880D01*
X200969379Y-105052880D01*
X197262903Y-48125071D02*
X196929570Y-48125071D01*
X196929570Y-48648880D02*
X196929570Y-47648880D01*
X197405760Y-47648880D01*
X197786713Y-47648880D02*
X197786713Y-48458404D01*
X197834332Y-48553642D01*
X197881951Y-48601261D01*
X197977189Y-48648880D01*
X198167665Y-48648880D01*
X198262903Y-48601261D01*
X198310522Y-48553642D01*
X198358141Y-48458404D01*
X198358141Y-47648880D01*
X198834332Y-48125071D02*
X199167665Y-48125071D01*
X199310522Y-48648880D02*
X198834332Y-48648880D01*
X198834332Y-47648880D01*
X199310522Y-47648880D01*
X200215284Y-48648880D02*
X199739094Y-48648880D01*
X199739094Y-47648880D01*
X109006141Y-42044880D02*
X108529951Y-42044880D01*
X108529951Y-41044880D01*
X110101379Y-41521071D02*
X110434713Y-41521071D01*
X110577570Y-42044880D02*
X110101379Y-42044880D01*
X110101379Y-41044880D01*
X110577570Y-41044880D01*
X111006141Y-42044880D02*
X111006141Y-41044880D01*
X111577570Y-42044880D01*
X111577570Y-41044880D01*
X112577570Y-41092500D02*
X112482332Y-41044880D01*
X112339475Y-41044880D01*
X112196618Y-41092500D01*
X112101379Y-41187738D01*
X112053760Y-41282976D01*
X112006141Y-41473452D01*
X112006141Y-41616309D01*
X112053760Y-41806785D01*
X112101379Y-41902023D01*
X112196618Y-41997261D01*
X112339475Y-42044880D01*
X112434713Y-42044880D01*
X112577570Y-41997261D01*
X112625189Y-41949642D01*
X112625189Y-41616309D01*
X112434713Y-41616309D01*
X113053760Y-42044880D02*
X113053760Y-41044880D01*
X113529951Y-42044880D02*
X113529951Y-41044880D01*
X114101379Y-42044880D01*
X114101379Y-41044880D01*
X114577570Y-41521071D02*
X114910903Y-41521071D01*
X115053760Y-42044880D02*
X114577570Y-42044880D01*
X114577570Y-41044880D01*
X115053760Y-41044880D01*
X116815665Y-42044880D02*
X116482332Y-41568690D01*
X116244237Y-42044880D02*
X116244237Y-41044880D01*
X116625189Y-41044880D01*
X116720427Y-41092500D01*
X116768046Y-41140119D01*
X116815665Y-41235357D01*
X116815665Y-41378214D01*
X116768046Y-41473452D01*
X116720427Y-41521071D01*
X116625189Y-41568690D01*
X116244237Y-41568690D01*
D11*
%TO.C,D39*%
G36*
X92075000Y-45085000D02*
G01*
X91575000Y-45085000D01*
X91575000Y-44085000D01*
X92075000Y-44085000D01*
X92075000Y-45085000D01*
G37*
%TO.C,D38*%
G36*
X97155000Y-46355000D02*
G01*
X96655000Y-46355000D01*
X96655000Y-45355000D01*
X97155000Y-45355000D01*
X97155000Y-46355000D01*
G37*
%TO.C,D37*%
G36*
X102235000Y-45085000D02*
G01*
X101735000Y-45085000D01*
X101735000Y-44085000D01*
X102235000Y-44085000D01*
X102235000Y-45085000D01*
G37*
%TO.C,D36*%
G36*
X107315000Y-46355000D02*
G01*
X106815000Y-46355000D01*
X106815000Y-45355000D01*
X107315000Y-45355000D01*
X107315000Y-46355000D01*
G37*
%TO.C,D35*%
G36*
X112395000Y-45085000D02*
G01*
X111895000Y-45085000D01*
X111895000Y-44085000D01*
X112395000Y-44085000D01*
X112395000Y-45085000D01*
G37*
%TO.C,D34*%
G36*
X117475000Y-46355000D02*
G01*
X116975000Y-46355000D01*
X116975000Y-45355000D01*
X117475000Y-45355000D01*
X117475000Y-46355000D01*
G37*
%TO.C,D33*%
G36*
X122555000Y-45085000D02*
G01*
X122055000Y-45085000D01*
X122055000Y-44085000D01*
X122555000Y-44085000D01*
X122555000Y-45085000D01*
G37*
D12*
%TO.C,SW6*%
X161978214Y-129043500D02*
G75*
G03*
X161978214Y-129043500I-1414214J0D01*
G01*
X157444000Y-126073500D02*
X157444000Y-132013500D01*
X163684000Y-126073500D02*
X163684000Y-132013500D01*
X159224000Y-125923500D02*
X161904000Y-125923500D01*
X161904000Y-132163500D02*
X159224000Y-132163500D01*
%TO.C,SW5*%
X161978214Y-113803500D02*
G75*
G03*
X161978214Y-113803500I-1414214J0D01*
G01*
X157444000Y-110833500D02*
X157444000Y-116773500D01*
X163684000Y-110833500D02*
X163684000Y-116773500D01*
X159224000Y-110683500D02*
X161904000Y-110683500D01*
X161904000Y-116923500D02*
X159224000Y-116923500D01*
%TO.C,SW4*%
X161978214Y-98563501D02*
G75*
G03*
X161978214Y-98563501I-1414214J0D01*
G01*
X157444000Y-95593501D02*
X157444000Y-101533501D01*
X163684000Y-95593501D02*
X163684000Y-101533501D01*
X159224000Y-95443501D02*
X161904000Y-95443501D01*
X161904000Y-101683501D02*
X159224000Y-101683501D01*
%TO.C,SW3*%
X161978214Y-83323501D02*
G75*
G03*
X161978214Y-83323501I-1414214J0D01*
G01*
X157444000Y-80353501D02*
X157444000Y-86293501D01*
X163684000Y-80353501D02*
X163684000Y-86293501D01*
X159224000Y-80203501D02*
X161904000Y-80203501D01*
X161904000Y-86443501D02*
X159224000Y-86443501D01*
%TO.C,SW2*%
X161978214Y-68083501D02*
G75*
G03*
X161978214Y-68083501I-1414214J0D01*
G01*
X157444000Y-65113501D02*
X157444000Y-71053501D01*
X163684000Y-65113501D02*
X163684000Y-71053501D01*
X159224000Y-64963501D02*
X161904000Y-64963501D01*
X161904000Y-71203501D02*
X159224000Y-71203501D01*
%TO.C,SW1*%
X161978214Y-52843500D02*
G75*
G03*
X161978214Y-52843500I-1414214J0D01*
G01*
X157444000Y-49873500D02*
X157444000Y-55813500D01*
X163684000Y-49873500D02*
X163684000Y-55813500D01*
X159224000Y-49723500D02*
X161904000Y-49723500D01*
X161904000Y-55963500D02*
X159224000Y-55963500D01*
D11*
%TO.C,D32*%
G36*
X127635000Y-46355000D02*
G01*
X127135000Y-46355000D01*
X127135000Y-45355000D01*
X127635000Y-45355000D01*
X127635000Y-46355000D01*
G37*
%TO.C,D31*%
G36*
X132715000Y-45085000D02*
G01*
X132215000Y-45085000D01*
X132215000Y-44085000D01*
X132715000Y-44085000D01*
X132715000Y-45085000D01*
G37*
%TO.C,D30*%
G36*
X155067000Y-50546000D02*
G01*
X155067000Y-50046000D01*
X156067000Y-50046000D01*
X156067000Y-50546000D01*
X155067000Y-50546000D01*
G37*
%TO.C,D29*%
G36*
X155067000Y-54864000D02*
G01*
X155067000Y-54364000D01*
X156067000Y-54364000D01*
X156067000Y-54864000D01*
X155067000Y-54864000D01*
G37*
%TO.C,D28*%
G36*
X155067000Y-65786000D02*
G01*
X155067000Y-65286000D01*
X156067000Y-65286000D01*
X156067000Y-65786000D01*
X155067000Y-65786000D01*
G37*
%TO.C,D27*%
G36*
X155067000Y-70358000D02*
G01*
X155067000Y-69858000D01*
X156067000Y-69858000D01*
X156067000Y-70358000D01*
X155067000Y-70358000D01*
G37*
%TO.C,D26*%
G36*
X155067000Y-81026000D02*
G01*
X155067000Y-80526000D01*
X156067000Y-80526000D01*
X156067000Y-81026000D01*
X155067000Y-81026000D01*
G37*
%TO.C,D25*%
G36*
X155067000Y-85598000D02*
G01*
X155067000Y-85098000D01*
X156067000Y-85098000D01*
X156067000Y-85598000D01*
X155067000Y-85598000D01*
G37*
%TO.C,D24*%
G36*
X155067000Y-96266000D02*
G01*
X155067000Y-95766000D01*
X156067000Y-95766000D01*
X156067000Y-96266000D01*
X155067000Y-96266000D01*
G37*
%TO.C,D23*%
G36*
X155067000Y-100838000D02*
G01*
X155067000Y-100338000D01*
X156067000Y-100338000D01*
X156067000Y-100838000D01*
X155067000Y-100838000D01*
G37*
%TO.C,D22*%
G36*
X155321000Y-111506000D02*
G01*
X155321000Y-111006000D01*
X156321000Y-111006000D01*
X156321000Y-111506000D01*
X155321000Y-111506000D01*
G37*
%TO.C,D21*%
G36*
X155321000Y-116078000D02*
G01*
X155321000Y-115578000D01*
X156321000Y-115578000D01*
X156321000Y-116078000D01*
X155321000Y-116078000D01*
G37*
%TO.C,D20*%
G36*
X155067000Y-126746000D02*
G01*
X155067000Y-126246000D01*
X156067000Y-126246000D01*
X156067000Y-126746000D01*
X155067000Y-126746000D01*
G37*
%TO.C,D19*%
G36*
X155067000Y-131318000D02*
G01*
X155067000Y-130818000D01*
X156067000Y-130818000D01*
X156067000Y-131318000D01*
X155067000Y-131318000D01*
G37*
%TO.C,D18*%
G36*
X166243000Y-131318000D02*
G01*
X166243000Y-131818000D01*
X165243000Y-131818000D01*
X165243000Y-131318000D01*
X166243000Y-131318000D01*
G37*
%TO.C,D17*%
G36*
X166243000Y-126746000D02*
G01*
X166243000Y-127246000D01*
X165243000Y-127246000D01*
X165243000Y-126746000D01*
X166243000Y-126746000D01*
G37*
%TO.C,D16*%
G36*
X166243000Y-116078000D02*
G01*
X166243000Y-116578000D01*
X165243000Y-116578000D01*
X165243000Y-116078000D01*
X166243000Y-116078000D01*
G37*
%TO.C,D15*%
G36*
X166243000Y-111506000D02*
G01*
X166243000Y-112006000D01*
X165243000Y-112006000D01*
X165243000Y-111506000D01*
X166243000Y-111506000D01*
G37*
%TO.C,D14*%
G36*
X203327000Y-102997000D02*
G01*
X203827000Y-102997000D01*
X203827000Y-103997000D01*
X203327000Y-103997000D01*
X203327000Y-102997000D01*
G37*
%TO.C,D13*%
G36*
X199263000Y-101727000D02*
G01*
X199763000Y-101727000D01*
X199763000Y-102727000D01*
X199263000Y-102727000D01*
X199263000Y-101727000D01*
G37*
%TO.C,D12*%
G36*
X195199000Y-102997000D02*
G01*
X195699000Y-102997000D01*
X195699000Y-103997000D01*
X195199000Y-103997000D01*
X195199000Y-102997000D01*
G37*
%TO.C,D11*%
G36*
X166243000Y-100584000D02*
G01*
X166243000Y-101084000D01*
X165243000Y-101084000D01*
X165243000Y-100584000D01*
X166243000Y-100584000D01*
G37*
%TO.C,D10*%
G36*
X166243000Y-96266000D02*
G01*
X166243000Y-96766000D01*
X165243000Y-96766000D01*
X165243000Y-96266000D01*
X166243000Y-96266000D01*
G37*
%TO.C,D9*%
G36*
X166243000Y-85598000D02*
G01*
X166243000Y-86098000D01*
X165243000Y-86098000D01*
X165243000Y-85598000D01*
X166243000Y-85598000D01*
G37*
%TO.C,D8*%
G36*
X166243000Y-81026000D02*
G01*
X166243000Y-81526000D01*
X165243000Y-81526000D01*
X165243000Y-81026000D01*
X166243000Y-81026000D01*
G37*
%TO.C,D7*%
G36*
X166243000Y-70358000D02*
G01*
X166243000Y-70858000D01*
X165243000Y-70858000D01*
X165243000Y-70358000D01*
X166243000Y-70358000D01*
G37*
%TO.C,D6*%
G36*
X166243000Y-65786000D02*
G01*
X166243000Y-66286000D01*
X165243000Y-66286000D01*
X165243000Y-65786000D01*
X166243000Y-65786000D01*
G37*
%TO.C,D5*%
G36*
X166243000Y-55118000D02*
G01*
X166243000Y-55618000D01*
X165243000Y-55618000D01*
X165243000Y-55118000D01*
X166243000Y-55118000D01*
G37*
%TO.C,D4*%
G36*
X166243000Y-50546000D02*
G01*
X166243000Y-51046000D01*
X165243000Y-51046000D01*
X165243000Y-50546000D01*
X166243000Y-50546000D01*
G37*
%TO.C,D3*%
G36*
X194310000Y-45847000D02*
G01*
X193810000Y-45847000D01*
X193810000Y-44847000D01*
X194310000Y-44847000D01*
X194310000Y-45847000D01*
G37*
%TO.C,D2*%
G36*
X198501000Y-44577000D02*
G01*
X198001000Y-44577000D01*
X198001000Y-43577000D01*
X198501000Y-43577000D01*
X198501000Y-44577000D01*
G37*
%TO.C,D1*%
G36*
X202565000Y-45847000D02*
G01*
X202065000Y-45847000D01*
X202065000Y-44847000D01*
X202565000Y-44847000D01*
X202565000Y-45847000D01*
G37*
%TO.C,H8*%
D10*
X155194095Y-136680881D02*
X155194095Y-135680881D01*
X155194095Y-136157072D02*
X155765523Y-136157072D01*
X155765523Y-136680881D02*
X155765523Y-135680881D01*
X156384571Y-136109453D02*
X156289333Y-136061834D01*
X156241714Y-136014215D01*
X156194095Y-135918977D01*
X156194095Y-135871358D01*
X156241714Y-135776120D01*
X156289333Y-135728501D01*
X156384571Y-135680881D01*
X156575047Y-135680881D01*
X156670285Y-135728501D01*
X156717904Y-135776120D01*
X156765523Y-135871358D01*
X156765523Y-135918977D01*
X156717904Y-136014215D01*
X156670285Y-136061834D01*
X156575047Y-136109453D01*
X156384571Y-136109453D01*
X156289333Y-136157072D01*
X156241714Y-136204691D01*
X156194095Y-136299929D01*
X156194095Y-136490405D01*
X156241714Y-136585643D01*
X156289333Y-136633262D01*
X156384571Y-136680881D01*
X156575047Y-136680881D01*
X156670285Y-136633262D01*
X156717904Y-136585643D01*
X156765523Y-136490405D01*
X156765523Y-136299929D01*
X156717904Y-136204691D01*
X156670285Y-136157072D01*
X156575047Y-136109453D01*
%TO.C,H7*%
X164592094Y-136680881D02*
X164592094Y-135680881D01*
X164592094Y-136157072D02*
X165163522Y-136157072D01*
X165163522Y-136680881D02*
X165163522Y-135680881D01*
X165544475Y-135680881D02*
X166211141Y-135680881D01*
X165782570Y-136680881D01*
%TO.C,H6*%
X164592094Y-40287881D02*
X164592094Y-39287881D01*
X164592094Y-39764072D02*
X165163522Y-39764072D01*
X165163522Y-40287881D02*
X165163522Y-39287881D01*
X166068284Y-39287881D02*
X165877808Y-39287881D01*
X165782570Y-39335501D01*
X165734951Y-39383120D01*
X165639713Y-39525977D01*
X165592094Y-39716453D01*
X165592094Y-40097405D01*
X165639713Y-40192643D01*
X165687332Y-40240262D01*
X165782570Y-40287881D01*
X165973046Y-40287881D01*
X166068284Y-40240262D01*
X166115903Y-40192643D01*
X166163522Y-40097405D01*
X166163522Y-39859310D01*
X166115903Y-39764072D01*
X166068284Y-39716453D01*
X165973046Y-39668834D01*
X165782570Y-39668834D01*
X165687332Y-39716453D01*
X165639713Y-39764072D01*
X165592094Y-39859310D01*
%TO.C,H5*%
X155194095Y-40287881D02*
X155194095Y-39287881D01*
X155194095Y-39764072D02*
X155765523Y-39764072D01*
X155765523Y-40287881D02*
X155765523Y-39287881D01*
X156717904Y-39287881D02*
X156241714Y-39287881D01*
X156194095Y-39764072D01*
X156241714Y-39716453D01*
X156336952Y-39668834D01*
X156575047Y-39668834D01*
X156670285Y-39716453D01*
X156717904Y-39764072D01*
X156765523Y-39859310D01*
X156765523Y-40097405D01*
X156717904Y-40192643D01*
X156670285Y-40240262D01*
X156575047Y-40287881D01*
X156336952Y-40287881D01*
X156241714Y-40240262D01*
X156194095Y-40192643D01*
%TO.C,D39*%
X91042857Y-43564523D02*
X91042857Y-42714523D01*
X91245238Y-42714523D01*
X91366666Y-42755000D01*
X91447619Y-42835952D01*
X91488095Y-42916904D01*
X91528571Y-43078809D01*
X91528571Y-43200238D01*
X91488095Y-43362142D01*
X91447619Y-43443095D01*
X91366666Y-43524047D01*
X91245238Y-43564523D01*
X91042857Y-43564523D01*
X91811904Y-42714523D02*
X92338095Y-42714523D01*
X92054761Y-43038333D01*
X92176190Y-43038333D01*
X92257142Y-43078809D01*
X92297619Y-43119285D01*
X92338095Y-43200238D01*
X92338095Y-43402619D01*
X92297619Y-43483571D01*
X92257142Y-43524047D01*
X92176190Y-43564523D01*
X91933333Y-43564523D01*
X91852380Y-43524047D01*
X91811904Y-43483571D01*
X92742857Y-43564523D02*
X92904761Y-43564523D01*
X92985714Y-43524047D01*
X93026190Y-43483571D01*
X93107142Y-43362142D01*
X93147619Y-43200238D01*
X93147619Y-42876428D01*
X93107142Y-42795476D01*
X93066666Y-42755000D01*
X92985714Y-42714523D01*
X92823809Y-42714523D01*
X92742857Y-42755000D01*
X92702380Y-42795476D01*
X92661904Y-42876428D01*
X92661904Y-43078809D01*
X92702380Y-43159761D01*
X92742857Y-43200238D01*
X92823809Y-43240714D01*
X92985714Y-43240714D01*
X93066666Y-43200238D01*
X93107142Y-43159761D01*
X93147619Y-43078809D01*
%TO.C,D38*%
X96122857Y-44834523D02*
X96122857Y-43984523D01*
X96325238Y-43984523D01*
X96446666Y-44025000D01*
X96527619Y-44105952D01*
X96568095Y-44186904D01*
X96608571Y-44348809D01*
X96608571Y-44470238D01*
X96568095Y-44632142D01*
X96527619Y-44713095D01*
X96446666Y-44794047D01*
X96325238Y-44834523D01*
X96122857Y-44834523D01*
X96891904Y-43984523D02*
X97418095Y-43984523D01*
X97134761Y-44308333D01*
X97256190Y-44308333D01*
X97337142Y-44348809D01*
X97377619Y-44389285D01*
X97418095Y-44470238D01*
X97418095Y-44672619D01*
X97377619Y-44753571D01*
X97337142Y-44794047D01*
X97256190Y-44834523D01*
X97013333Y-44834523D01*
X96932380Y-44794047D01*
X96891904Y-44753571D01*
X97903809Y-44348809D02*
X97822857Y-44308333D01*
X97782380Y-44267857D01*
X97741904Y-44186904D01*
X97741904Y-44146428D01*
X97782380Y-44065476D01*
X97822857Y-44025000D01*
X97903809Y-43984523D01*
X98065714Y-43984523D01*
X98146666Y-44025000D01*
X98187142Y-44065476D01*
X98227619Y-44146428D01*
X98227619Y-44186904D01*
X98187142Y-44267857D01*
X98146666Y-44308333D01*
X98065714Y-44348809D01*
X97903809Y-44348809D01*
X97822857Y-44389285D01*
X97782380Y-44429761D01*
X97741904Y-44510714D01*
X97741904Y-44672619D01*
X97782380Y-44753571D01*
X97822857Y-44794047D01*
X97903809Y-44834523D01*
X98065714Y-44834523D01*
X98146666Y-44794047D01*
X98187142Y-44753571D01*
X98227619Y-44672619D01*
X98227619Y-44510714D01*
X98187142Y-44429761D01*
X98146666Y-44389285D01*
X98065714Y-44348809D01*
%TO.C,D37*%
X101202857Y-43564523D02*
X101202857Y-42714523D01*
X101405238Y-42714523D01*
X101526666Y-42755000D01*
X101607619Y-42835952D01*
X101648095Y-42916904D01*
X101688571Y-43078809D01*
X101688571Y-43200238D01*
X101648095Y-43362142D01*
X101607619Y-43443095D01*
X101526666Y-43524047D01*
X101405238Y-43564523D01*
X101202857Y-43564523D01*
X101971904Y-42714523D02*
X102498095Y-42714523D01*
X102214761Y-43038333D01*
X102336190Y-43038333D01*
X102417142Y-43078809D01*
X102457619Y-43119285D01*
X102498095Y-43200238D01*
X102498095Y-43402619D01*
X102457619Y-43483571D01*
X102417142Y-43524047D01*
X102336190Y-43564523D01*
X102093333Y-43564523D01*
X102012380Y-43524047D01*
X101971904Y-43483571D01*
X102781428Y-42714523D02*
X103348095Y-42714523D01*
X102983809Y-43564523D01*
%TO.C,D36*%
X106282857Y-44834523D02*
X106282857Y-43984523D01*
X106485238Y-43984523D01*
X106606666Y-44025000D01*
X106687619Y-44105952D01*
X106728095Y-44186904D01*
X106768571Y-44348809D01*
X106768571Y-44470238D01*
X106728095Y-44632142D01*
X106687619Y-44713095D01*
X106606666Y-44794047D01*
X106485238Y-44834523D01*
X106282857Y-44834523D01*
X107051904Y-43984523D02*
X107578095Y-43984523D01*
X107294761Y-44308333D01*
X107416190Y-44308333D01*
X107497142Y-44348809D01*
X107537619Y-44389285D01*
X107578095Y-44470238D01*
X107578095Y-44672619D01*
X107537619Y-44753571D01*
X107497142Y-44794047D01*
X107416190Y-44834523D01*
X107173333Y-44834523D01*
X107092380Y-44794047D01*
X107051904Y-44753571D01*
X108306666Y-43984523D02*
X108144761Y-43984523D01*
X108063809Y-44025000D01*
X108023333Y-44065476D01*
X107942380Y-44186904D01*
X107901904Y-44348809D01*
X107901904Y-44672619D01*
X107942380Y-44753571D01*
X107982857Y-44794047D01*
X108063809Y-44834523D01*
X108225714Y-44834523D01*
X108306666Y-44794047D01*
X108347142Y-44753571D01*
X108387619Y-44672619D01*
X108387619Y-44470238D01*
X108347142Y-44389285D01*
X108306666Y-44348809D01*
X108225714Y-44308333D01*
X108063809Y-44308333D01*
X107982857Y-44348809D01*
X107942380Y-44389285D01*
X107901904Y-44470238D01*
%TO.C,D35*%
X111362857Y-43564523D02*
X111362857Y-42714523D01*
X111565238Y-42714523D01*
X111686666Y-42755000D01*
X111767619Y-42835952D01*
X111808095Y-42916904D01*
X111848571Y-43078809D01*
X111848571Y-43200238D01*
X111808095Y-43362142D01*
X111767619Y-43443095D01*
X111686666Y-43524047D01*
X111565238Y-43564523D01*
X111362857Y-43564523D01*
X112131904Y-42714523D02*
X112658095Y-42714523D01*
X112374761Y-43038333D01*
X112496190Y-43038333D01*
X112577142Y-43078809D01*
X112617619Y-43119285D01*
X112658095Y-43200238D01*
X112658095Y-43402619D01*
X112617619Y-43483571D01*
X112577142Y-43524047D01*
X112496190Y-43564523D01*
X112253333Y-43564523D01*
X112172380Y-43524047D01*
X112131904Y-43483571D01*
X113427142Y-42714523D02*
X113022380Y-42714523D01*
X112981904Y-43119285D01*
X113022380Y-43078809D01*
X113103333Y-43038333D01*
X113305714Y-43038333D01*
X113386666Y-43078809D01*
X113427142Y-43119285D01*
X113467619Y-43200238D01*
X113467619Y-43402619D01*
X113427142Y-43483571D01*
X113386666Y-43524047D01*
X113305714Y-43564523D01*
X113103333Y-43564523D01*
X113022380Y-43524047D01*
X112981904Y-43483571D01*
%TO.C,D34*%
X116442857Y-44834523D02*
X116442857Y-43984523D01*
X116645238Y-43984523D01*
X116766666Y-44025000D01*
X116847619Y-44105952D01*
X116888095Y-44186904D01*
X116928571Y-44348809D01*
X116928571Y-44470238D01*
X116888095Y-44632142D01*
X116847619Y-44713095D01*
X116766666Y-44794047D01*
X116645238Y-44834523D01*
X116442857Y-44834523D01*
X117211904Y-43984523D02*
X117738095Y-43984523D01*
X117454761Y-44308333D01*
X117576190Y-44308333D01*
X117657142Y-44348809D01*
X117697619Y-44389285D01*
X117738095Y-44470238D01*
X117738095Y-44672619D01*
X117697619Y-44753571D01*
X117657142Y-44794047D01*
X117576190Y-44834523D01*
X117333333Y-44834523D01*
X117252380Y-44794047D01*
X117211904Y-44753571D01*
X118466666Y-44267857D02*
X118466666Y-44834523D01*
X118264285Y-43944047D02*
X118061904Y-44551190D01*
X118588095Y-44551190D01*
%TO.C,D33*%
X121522857Y-43564523D02*
X121522857Y-42714523D01*
X121725238Y-42714523D01*
X121846666Y-42755000D01*
X121927619Y-42835952D01*
X121968095Y-42916904D01*
X122008571Y-43078809D01*
X122008571Y-43200238D01*
X121968095Y-43362142D01*
X121927619Y-43443095D01*
X121846666Y-43524047D01*
X121725238Y-43564523D01*
X121522857Y-43564523D01*
X122291904Y-42714523D02*
X122818095Y-42714523D01*
X122534761Y-43038333D01*
X122656190Y-43038333D01*
X122737142Y-43078809D01*
X122777619Y-43119285D01*
X122818095Y-43200238D01*
X122818095Y-43402619D01*
X122777619Y-43483571D01*
X122737142Y-43524047D01*
X122656190Y-43564523D01*
X122413333Y-43564523D01*
X122332380Y-43524047D01*
X122291904Y-43483571D01*
X123101428Y-42714523D02*
X123627619Y-42714523D01*
X123344285Y-43038333D01*
X123465714Y-43038333D01*
X123546666Y-43078809D01*
X123587142Y-43119285D01*
X123627619Y-43200238D01*
X123627619Y-43402619D01*
X123587142Y-43483571D01*
X123546666Y-43524047D01*
X123465714Y-43564523D01*
X123222857Y-43564523D01*
X123141904Y-43524047D01*
X123101428Y-43483571D01*
%TO.C,SW6*%
X159321666Y-134516761D02*
X159464523Y-134564380D01*
X159702619Y-134564380D01*
X159797857Y-134516761D01*
X159845476Y-134469142D01*
X159893095Y-134373904D01*
X159893095Y-134278666D01*
X159845476Y-134183428D01*
X159797857Y-134135809D01*
X159702619Y-134088190D01*
X159512142Y-134040571D01*
X159416904Y-133992952D01*
X159369285Y-133945333D01*
X159321666Y-133850095D01*
X159321666Y-133754857D01*
X159369285Y-133659619D01*
X159416904Y-133612000D01*
X159512142Y-133564380D01*
X159750238Y-133564380D01*
X159893095Y-133612000D01*
X160226428Y-133564380D02*
X160464523Y-134564380D01*
X160655000Y-133850095D01*
X160845476Y-134564380D01*
X161083571Y-133564380D01*
X161893095Y-133564380D02*
X161702619Y-133564380D01*
X161607380Y-133612000D01*
X161559761Y-133659619D01*
X161464523Y-133802476D01*
X161416904Y-133992952D01*
X161416904Y-134373904D01*
X161464523Y-134469142D01*
X161512142Y-134516761D01*
X161607380Y-134564380D01*
X161797857Y-134564380D01*
X161893095Y-134516761D01*
X161940714Y-134469142D01*
X161988333Y-134373904D01*
X161988333Y-134135809D01*
X161940714Y-134040571D01*
X161893095Y-133992952D01*
X161797857Y-133945333D01*
X161607380Y-133945333D01*
X161512142Y-133992952D01*
X161464523Y-134040571D01*
X161416904Y-134135809D01*
X160059761Y-123880571D02*
X160393095Y-123880571D01*
X160535952Y-124404380D02*
X160059761Y-124404380D01*
X160059761Y-123404380D01*
X160535952Y-123404380D01*
X160821666Y-123404380D02*
X161393095Y-123404380D01*
X161107380Y-124404380D02*
X161107380Y-123404380D01*
%TO.C,SW5*%
X159321666Y-109116761D02*
X159464523Y-109164380D01*
X159702619Y-109164380D01*
X159797857Y-109116761D01*
X159845476Y-109069142D01*
X159893095Y-108973904D01*
X159893095Y-108878666D01*
X159845476Y-108783428D01*
X159797857Y-108735809D01*
X159702619Y-108688190D01*
X159512142Y-108640571D01*
X159416904Y-108592952D01*
X159369285Y-108545333D01*
X159321666Y-108450095D01*
X159321666Y-108354857D01*
X159369285Y-108259619D01*
X159416904Y-108212000D01*
X159512142Y-108164380D01*
X159750238Y-108164380D01*
X159893095Y-108212000D01*
X160226428Y-108164380D02*
X160464523Y-109164380D01*
X160655000Y-108450095D01*
X160845476Y-109164380D01*
X161083571Y-108164380D01*
X161940714Y-108164380D02*
X161464523Y-108164380D01*
X161416904Y-108640571D01*
X161464523Y-108592952D01*
X161559761Y-108545333D01*
X161797857Y-108545333D01*
X161893095Y-108592952D01*
X161940714Y-108640571D01*
X161988333Y-108735809D01*
X161988333Y-108973904D01*
X161940714Y-109069142D01*
X161893095Y-109116761D01*
X161797857Y-109164380D01*
X161559761Y-109164380D01*
X161464523Y-109116761D01*
X161416904Y-109069142D01*
X158821666Y-118324380D02*
X159488333Y-118324380D01*
X158821666Y-119324380D01*
X159488333Y-119324380D01*
X160059761Y-118324380D02*
X160250238Y-118324380D01*
X160345476Y-118372000D01*
X160440714Y-118467238D01*
X160488333Y-118657714D01*
X160488333Y-118991047D01*
X160440714Y-119181523D01*
X160345476Y-119276761D01*
X160250238Y-119324380D01*
X160059761Y-119324380D01*
X159964523Y-119276761D01*
X159869285Y-119181523D01*
X159821666Y-118991047D01*
X159821666Y-118657714D01*
X159869285Y-118467238D01*
X159964523Y-118372000D01*
X160059761Y-118324380D01*
X160916904Y-119324380D02*
X160916904Y-118324380D01*
X161488333Y-119324380D01*
X161488333Y-118324380D01*
X161964523Y-118800571D02*
X162297857Y-118800571D01*
X162440714Y-119324380D02*
X161964523Y-119324380D01*
X161964523Y-118324380D01*
X162440714Y-118324380D01*
%TO.C,SW4*%
X159321666Y-93876761D02*
X159464523Y-93924380D01*
X159702619Y-93924380D01*
X159797857Y-93876761D01*
X159845476Y-93829142D01*
X159893095Y-93733904D01*
X159893095Y-93638666D01*
X159845476Y-93543428D01*
X159797857Y-93495809D01*
X159702619Y-93448190D01*
X159512142Y-93400571D01*
X159416904Y-93352952D01*
X159369285Y-93305333D01*
X159321666Y-93210095D01*
X159321666Y-93114857D01*
X159369285Y-93019619D01*
X159416904Y-92972000D01*
X159512142Y-92924380D01*
X159750238Y-92924380D01*
X159893095Y-92972000D01*
X160226428Y-92924380D02*
X160464523Y-93924380D01*
X160655000Y-93210095D01*
X160845476Y-93924380D01*
X161083571Y-92924380D01*
X161893095Y-93257714D02*
X161893095Y-93924380D01*
X161655000Y-92876761D02*
X161416904Y-93591047D01*
X162035952Y-93591047D01*
X158774047Y-104084380D02*
X158774047Y-103084380D01*
X159012142Y-103084380D01*
X159155000Y-103132000D01*
X159250238Y-103227238D01*
X159297857Y-103322476D01*
X159345476Y-103512952D01*
X159345476Y-103655809D01*
X159297857Y-103846285D01*
X159250238Y-103941523D01*
X159155000Y-104036761D01*
X159012142Y-104084380D01*
X158774047Y-104084380D01*
X159964523Y-103084380D02*
X160155000Y-103084380D01*
X160250238Y-103132000D01*
X160345476Y-103227238D01*
X160393095Y-103417714D01*
X160393095Y-103751047D01*
X160345476Y-103941523D01*
X160250238Y-104036761D01*
X160155000Y-104084380D01*
X159964523Y-104084380D01*
X159869285Y-104036761D01*
X159774047Y-103941523D01*
X159726428Y-103751047D01*
X159726428Y-103417714D01*
X159774047Y-103227238D01*
X159869285Y-103132000D01*
X159964523Y-103084380D01*
X160726428Y-103084380D02*
X160964523Y-104084380D01*
X161155000Y-103370095D01*
X161345476Y-104084380D01*
X161583571Y-103084380D01*
X161964523Y-104084380D02*
X161964523Y-103084380D01*
X162535952Y-104084380D01*
X162535952Y-103084380D01*
%TO.C,SW3*%
X159321666Y-78636761D02*
X159464523Y-78684380D01*
X159702619Y-78684380D01*
X159797857Y-78636761D01*
X159845476Y-78589142D01*
X159893095Y-78493904D01*
X159893095Y-78398666D01*
X159845476Y-78303428D01*
X159797857Y-78255809D01*
X159702619Y-78208190D01*
X159512142Y-78160571D01*
X159416904Y-78112952D01*
X159369285Y-78065333D01*
X159321666Y-77970095D01*
X159321666Y-77874857D01*
X159369285Y-77779619D01*
X159416904Y-77732000D01*
X159512142Y-77684380D01*
X159750238Y-77684380D01*
X159893095Y-77732000D01*
X160226428Y-77684380D02*
X160464523Y-78684380D01*
X160655000Y-77970095D01*
X160845476Y-78684380D01*
X161083571Y-77684380D01*
X161369285Y-77684380D02*
X161988333Y-77684380D01*
X161655000Y-78065333D01*
X161797857Y-78065333D01*
X161893095Y-78112952D01*
X161940714Y-78160571D01*
X161988333Y-78255809D01*
X161988333Y-78493904D01*
X161940714Y-78589142D01*
X161893095Y-78636761D01*
X161797857Y-78684380D01*
X161512142Y-78684380D01*
X161416904Y-78636761D01*
X161369285Y-78589142D01*
X159869285Y-87844380D02*
X159869285Y-88653904D01*
X159916904Y-88749142D01*
X159964523Y-88796761D01*
X160059761Y-88844380D01*
X160250238Y-88844380D01*
X160345476Y-88796761D01*
X160393095Y-88749142D01*
X160440714Y-88653904D01*
X160440714Y-87844380D01*
X160916904Y-88844380D02*
X160916904Y-87844380D01*
X161297857Y-87844380D01*
X161393095Y-87892000D01*
X161440714Y-87939619D01*
X161488333Y-88034857D01*
X161488333Y-88177714D01*
X161440714Y-88272952D01*
X161393095Y-88320571D01*
X161297857Y-88368190D01*
X160916904Y-88368190D01*
%TO.C,SW2*%
X159321666Y-63396761D02*
X159464523Y-63444380D01*
X159702619Y-63444380D01*
X159797857Y-63396761D01*
X159845476Y-63349142D01*
X159893095Y-63253904D01*
X159893095Y-63158666D01*
X159845476Y-63063428D01*
X159797857Y-63015809D01*
X159702619Y-62968190D01*
X159512142Y-62920571D01*
X159416904Y-62872952D01*
X159369285Y-62825333D01*
X159321666Y-62730095D01*
X159321666Y-62634857D01*
X159369285Y-62539619D01*
X159416904Y-62492000D01*
X159512142Y-62444380D01*
X159750238Y-62444380D01*
X159893095Y-62492000D01*
X160226428Y-62444380D02*
X160464523Y-63444380D01*
X160655000Y-62730095D01*
X160845476Y-63444380D01*
X161083571Y-62444380D01*
X161416904Y-62539619D02*
X161464523Y-62492000D01*
X161559761Y-62444380D01*
X161797857Y-62444380D01*
X161893095Y-62492000D01*
X161940714Y-62539619D01*
X161988333Y-62634857D01*
X161988333Y-62730095D01*
X161940714Y-62872952D01*
X161369285Y-63444380D01*
X161988333Y-63444380D01*
X160289928Y-73699619D02*
X160194690Y-73652000D01*
X160099452Y-73556761D01*
X159956595Y-73413904D01*
X159861357Y-73366285D01*
X159766119Y-73366285D01*
X159813738Y-73604380D02*
X159718500Y-73556761D01*
X159623261Y-73461523D01*
X159575642Y-73271047D01*
X159575642Y-72937714D01*
X159623261Y-72747238D01*
X159718500Y-72652000D01*
X159813738Y-72604380D01*
X160004214Y-72604380D01*
X160099452Y-72652000D01*
X160194690Y-72747238D01*
X160242309Y-72937714D01*
X160242309Y-73271047D01*
X160194690Y-73461523D01*
X160099452Y-73556761D01*
X160004214Y-73604380D01*
X159813738Y-73604380D01*
X160528023Y-72604380D02*
X161099452Y-72604380D01*
X160813738Y-73604380D02*
X160813738Y-72604380D01*
X161623261Y-73128190D02*
X161623261Y-73604380D01*
X161289928Y-72604380D02*
X161623261Y-73128190D01*
X161956595Y-72604380D01*
%TO.C,SW1*%
X159194666Y-48220261D02*
X159337523Y-48267880D01*
X159575619Y-48267880D01*
X159670857Y-48220261D01*
X159718476Y-48172642D01*
X159766095Y-48077404D01*
X159766095Y-47982166D01*
X159718476Y-47886928D01*
X159670857Y-47839309D01*
X159575619Y-47791690D01*
X159385142Y-47744071D01*
X159289904Y-47696452D01*
X159242285Y-47648833D01*
X159194666Y-47553595D01*
X159194666Y-47458357D01*
X159242285Y-47363119D01*
X159289904Y-47315500D01*
X159385142Y-47267880D01*
X159623238Y-47267880D01*
X159766095Y-47315500D01*
X160099428Y-47267880D02*
X160337523Y-48267880D01*
X160528000Y-47553595D01*
X160718476Y-48267880D01*
X160956571Y-47267880D01*
X161861333Y-48267880D02*
X161289904Y-48267880D01*
X161575619Y-48267880D02*
X161575619Y-47267880D01*
X161480380Y-47410738D01*
X161385142Y-47505976D01*
X161289904Y-47553595D01*
X158845476Y-58491380D02*
X158845476Y-57491380D01*
X159178809Y-58205666D01*
X159512142Y-57491380D01*
X159512142Y-58491380D01*
X160178809Y-57491380D02*
X160369285Y-57491380D01*
X160464523Y-57539000D01*
X160559761Y-57634238D01*
X160607380Y-57824714D01*
X160607380Y-58158047D01*
X160559761Y-58348523D01*
X160464523Y-58443761D01*
X160369285Y-58491380D01*
X160178809Y-58491380D01*
X160083571Y-58443761D01*
X159988333Y-58348523D01*
X159940714Y-58158047D01*
X159940714Y-57824714D01*
X159988333Y-57634238D01*
X160083571Y-57539000D01*
X160178809Y-57491380D01*
X161035952Y-58491380D02*
X161035952Y-57491380D01*
X161274047Y-57491380D01*
X161416904Y-57539000D01*
X161512142Y-57634238D01*
X161559761Y-57729476D01*
X161607380Y-57919952D01*
X161607380Y-58062809D01*
X161559761Y-58253285D01*
X161512142Y-58348523D01*
X161416904Y-58443761D01*
X161274047Y-58491380D01*
X161035952Y-58491380D01*
X162035952Y-57967571D02*
X162369285Y-57967571D01*
X162512142Y-58491380D02*
X162035952Y-58491380D01*
X162035952Y-57491380D01*
X162512142Y-57491380D01*
%TO.C,H4*%
X73533095Y-141383380D02*
X73533095Y-140383380D01*
X73533095Y-140859571D02*
X74104523Y-140859571D01*
X74104523Y-141383380D02*
X74104523Y-140383380D01*
X75009285Y-140716714D02*
X75009285Y-141383380D01*
X74771190Y-140335761D02*
X74533095Y-141050047D01*
X75152142Y-141050047D01*
%TO.C,H3*%
X225933095Y-141383380D02*
X225933095Y-140383380D01*
X225933095Y-140859571D02*
X226504523Y-140859571D01*
X226504523Y-141383380D02*
X226504523Y-140383380D01*
X226885476Y-140383380D02*
X227504523Y-140383380D01*
X227171190Y-140764333D01*
X227314047Y-140764333D01*
X227409285Y-140811952D01*
X227456904Y-140859571D01*
X227504523Y-140954809D01*
X227504523Y-141192904D01*
X227456904Y-141288142D01*
X227409285Y-141335761D01*
X227314047Y-141383380D01*
X227028333Y-141383380D01*
X226933095Y-141335761D01*
X226885476Y-141288142D01*
%TO.C,H2*%
X225933095Y-33433380D02*
X225933095Y-32433380D01*
X225933095Y-32909571D02*
X226504523Y-32909571D01*
X226504523Y-33433380D02*
X226504523Y-32433380D01*
X226933095Y-32528619D02*
X226980714Y-32481000D01*
X227075952Y-32433380D01*
X227314047Y-32433380D01*
X227409285Y-32481000D01*
X227456904Y-32528619D01*
X227504523Y-32623857D01*
X227504523Y-32719095D01*
X227456904Y-32861952D01*
X226885476Y-33433380D01*
X227504523Y-33433380D01*
%TO.C,H1*%
X73533095Y-33433380D02*
X73533095Y-32433380D01*
X73533095Y-32909571D02*
X74104523Y-32909571D01*
X74104523Y-33433380D02*
X74104523Y-32433380D01*
X75104523Y-33433380D02*
X74533095Y-33433380D01*
X74818809Y-33433380D02*
X74818809Y-32433380D01*
X74723571Y-32576238D01*
X74628333Y-32671476D01*
X74533095Y-32719095D01*
%TO.C,D32*%
X126602857Y-44834523D02*
X126602857Y-43984523D01*
X126805238Y-43984523D01*
X126926666Y-44025000D01*
X127007619Y-44105952D01*
X127048095Y-44186904D01*
X127088571Y-44348809D01*
X127088571Y-44470238D01*
X127048095Y-44632142D01*
X127007619Y-44713095D01*
X126926666Y-44794047D01*
X126805238Y-44834523D01*
X126602857Y-44834523D01*
X127371904Y-43984523D02*
X127898095Y-43984523D01*
X127614761Y-44308333D01*
X127736190Y-44308333D01*
X127817142Y-44348809D01*
X127857619Y-44389285D01*
X127898095Y-44470238D01*
X127898095Y-44672619D01*
X127857619Y-44753571D01*
X127817142Y-44794047D01*
X127736190Y-44834523D01*
X127493333Y-44834523D01*
X127412380Y-44794047D01*
X127371904Y-44753571D01*
X128221904Y-44065476D02*
X128262380Y-44025000D01*
X128343333Y-43984523D01*
X128545714Y-43984523D01*
X128626666Y-44025000D01*
X128667142Y-44065476D01*
X128707619Y-44146428D01*
X128707619Y-44227380D01*
X128667142Y-44348809D01*
X128181428Y-44834523D01*
X128707619Y-44834523D01*
%TO.C,D31*%
X131682857Y-43564523D02*
X131682857Y-42714523D01*
X131885238Y-42714523D01*
X132006666Y-42755000D01*
X132087619Y-42835952D01*
X132128095Y-42916904D01*
X132168571Y-43078809D01*
X132168571Y-43200238D01*
X132128095Y-43362142D01*
X132087619Y-43443095D01*
X132006666Y-43524047D01*
X131885238Y-43564523D01*
X131682857Y-43564523D01*
X132451904Y-42714523D02*
X132978095Y-42714523D01*
X132694761Y-43038333D01*
X132816190Y-43038333D01*
X132897142Y-43078809D01*
X132937619Y-43119285D01*
X132978095Y-43200238D01*
X132978095Y-43402619D01*
X132937619Y-43483571D01*
X132897142Y-43524047D01*
X132816190Y-43564523D01*
X132573333Y-43564523D01*
X132492380Y-43524047D01*
X132451904Y-43483571D01*
X133787619Y-43564523D02*
X133301904Y-43564523D01*
X133544761Y-43564523D02*
X133544761Y-42714523D01*
X133463809Y-42835952D01*
X133382857Y-42916904D01*
X133301904Y-42957380D01*
%TO.C,D30*%
X154034857Y-48771523D02*
X154034857Y-47921523D01*
X154237238Y-47921523D01*
X154358666Y-47962000D01*
X154439619Y-48042952D01*
X154480095Y-48123904D01*
X154520571Y-48285809D01*
X154520571Y-48407238D01*
X154480095Y-48569142D01*
X154439619Y-48650095D01*
X154358666Y-48731047D01*
X154237238Y-48771523D01*
X154034857Y-48771523D01*
X154803904Y-47921523D02*
X155330095Y-47921523D01*
X155046761Y-48245333D01*
X155168190Y-48245333D01*
X155249142Y-48285809D01*
X155289619Y-48326285D01*
X155330095Y-48407238D01*
X155330095Y-48609619D01*
X155289619Y-48690571D01*
X155249142Y-48731047D01*
X155168190Y-48771523D01*
X154925333Y-48771523D01*
X154844380Y-48731047D01*
X154803904Y-48690571D01*
X155856285Y-47921523D02*
X155937238Y-47921523D01*
X156018190Y-47962000D01*
X156058666Y-48002476D01*
X156099142Y-48083428D01*
X156139619Y-48245333D01*
X156139619Y-48447714D01*
X156099142Y-48609619D01*
X156058666Y-48690571D01*
X156018190Y-48731047D01*
X155937238Y-48771523D01*
X155856285Y-48771523D01*
X155775333Y-48731047D01*
X155734857Y-48690571D01*
X155694380Y-48609619D01*
X155653904Y-48447714D01*
X155653904Y-48245333D01*
X155694380Y-48083428D01*
X155734857Y-48002476D01*
X155775333Y-47962000D01*
X155856285Y-47921523D01*
%TO.C,D29*%
X154034857Y-57788523D02*
X154034857Y-56938523D01*
X154237238Y-56938523D01*
X154358666Y-56979000D01*
X154439619Y-57059952D01*
X154480095Y-57140904D01*
X154520571Y-57302809D01*
X154520571Y-57424238D01*
X154480095Y-57586142D01*
X154439619Y-57667095D01*
X154358666Y-57748047D01*
X154237238Y-57788523D01*
X154034857Y-57788523D01*
X154844380Y-57019476D02*
X154884857Y-56979000D01*
X154965809Y-56938523D01*
X155168190Y-56938523D01*
X155249142Y-56979000D01*
X155289619Y-57019476D01*
X155330095Y-57100428D01*
X155330095Y-57181380D01*
X155289619Y-57302809D01*
X154803904Y-57788523D01*
X155330095Y-57788523D01*
X155734857Y-57788523D02*
X155896761Y-57788523D01*
X155977714Y-57748047D01*
X156018190Y-57707571D01*
X156099142Y-57586142D01*
X156139619Y-57424238D01*
X156139619Y-57100428D01*
X156099142Y-57019476D01*
X156058666Y-56979000D01*
X155977714Y-56938523D01*
X155815809Y-56938523D01*
X155734857Y-56979000D01*
X155694380Y-57019476D01*
X155653904Y-57100428D01*
X155653904Y-57302809D01*
X155694380Y-57383761D01*
X155734857Y-57424238D01*
X155815809Y-57464714D01*
X155977714Y-57464714D01*
X156058666Y-57424238D01*
X156099142Y-57383761D01*
X156139619Y-57302809D01*
%TO.C,D28*%
X154034857Y-63884523D02*
X154034857Y-63034523D01*
X154237238Y-63034523D01*
X154358666Y-63075000D01*
X154439619Y-63155952D01*
X154480095Y-63236904D01*
X154520571Y-63398809D01*
X154520571Y-63520238D01*
X154480095Y-63682142D01*
X154439619Y-63763095D01*
X154358666Y-63844047D01*
X154237238Y-63884523D01*
X154034857Y-63884523D01*
X154844380Y-63115476D02*
X154884857Y-63075000D01*
X154965809Y-63034523D01*
X155168190Y-63034523D01*
X155249142Y-63075000D01*
X155289619Y-63115476D01*
X155330095Y-63196428D01*
X155330095Y-63277380D01*
X155289619Y-63398809D01*
X154803904Y-63884523D01*
X155330095Y-63884523D01*
X155815809Y-63398809D02*
X155734857Y-63358333D01*
X155694380Y-63317857D01*
X155653904Y-63236904D01*
X155653904Y-63196428D01*
X155694380Y-63115476D01*
X155734857Y-63075000D01*
X155815809Y-63034523D01*
X155977714Y-63034523D01*
X156058666Y-63075000D01*
X156099142Y-63115476D01*
X156139619Y-63196428D01*
X156139619Y-63236904D01*
X156099142Y-63317857D01*
X156058666Y-63358333D01*
X155977714Y-63398809D01*
X155815809Y-63398809D01*
X155734857Y-63439285D01*
X155694380Y-63479761D01*
X155653904Y-63560714D01*
X155653904Y-63722619D01*
X155694380Y-63803571D01*
X155734857Y-63844047D01*
X155815809Y-63884523D01*
X155977714Y-63884523D01*
X156058666Y-63844047D01*
X156099142Y-63803571D01*
X156139619Y-63722619D01*
X156139619Y-63560714D01*
X156099142Y-63479761D01*
X156058666Y-63439285D01*
X155977714Y-63398809D01*
%TO.C,D27*%
X154034857Y-73028523D02*
X154034857Y-72178523D01*
X154237238Y-72178523D01*
X154358666Y-72219000D01*
X154439619Y-72299952D01*
X154480095Y-72380904D01*
X154520571Y-72542809D01*
X154520571Y-72664238D01*
X154480095Y-72826142D01*
X154439619Y-72907095D01*
X154358666Y-72988047D01*
X154237238Y-73028523D01*
X154034857Y-73028523D01*
X154844380Y-72259476D02*
X154884857Y-72219000D01*
X154965809Y-72178523D01*
X155168190Y-72178523D01*
X155249142Y-72219000D01*
X155289619Y-72259476D01*
X155330095Y-72340428D01*
X155330095Y-72421380D01*
X155289619Y-72542809D01*
X154803904Y-73028523D01*
X155330095Y-73028523D01*
X155613428Y-72178523D02*
X156180095Y-72178523D01*
X155815809Y-73028523D01*
%TO.C,D26*%
X154034857Y-79124523D02*
X154034857Y-78274523D01*
X154237238Y-78274523D01*
X154358666Y-78315000D01*
X154439619Y-78395952D01*
X154480095Y-78476904D01*
X154520571Y-78638809D01*
X154520571Y-78760238D01*
X154480095Y-78922142D01*
X154439619Y-79003095D01*
X154358666Y-79084047D01*
X154237238Y-79124523D01*
X154034857Y-79124523D01*
X154844380Y-78355476D02*
X154884857Y-78315000D01*
X154965809Y-78274523D01*
X155168190Y-78274523D01*
X155249142Y-78315000D01*
X155289619Y-78355476D01*
X155330095Y-78436428D01*
X155330095Y-78517380D01*
X155289619Y-78638809D01*
X154803904Y-79124523D01*
X155330095Y-79124523D01*
X156058666Y-78274523D02*
X155896761Y-78274523D01*
X155815809Y-78315000D01*
X155775333Y-78355476D01*
X155694380Y-78476904D01*
X155653904Y-78638809D01*
X155653904Y-78962619D01*
X155694380Y-79043571D01*
X155734857Y-79084047D01*
X155815809Y-79124523D01*
X155977714Y-79124523D01*
X156058666Y-79084047D01*
X156099142Y-79043571D01*
X156139619Y-78962619D01*
X156139619Y-78760238D01*
X156099142Y-78679285D01*
X156058666Y-78638809D01*
X155977714Y-78598333D01*
X155815809Y-78598333D01*
X155734857Y-78638809D01*
X155694380Y-78679285D01*
X155653904Y-78760238D01*
%TO.C,D25*%
X154034857Y-88268523D02*
X154034857Y-87418523D01*
X154237238Y-87418523D01*
X154358666Y-87459000D01*
X154439619Y-87539952D01*
X154480095Y-87620904D01*
X154520571Y-87782809D01*
X154520571Y-87904238D01*
X154480095Y-88066142D01*
X154439619Y-88147095D01*
X154358666Y-88228047D01*
X154237238Y-88268523D01*
X154034857Y-88268523D01*
X154844380Y-87499476D02*
X154884857Y-87459000D01*
X154965809Y-87418523D01*
X155168190Y-87418523D01*
X155249142Y-87459000D01*
X155289619Y-87499476D01*
X155330095Y-87580428D01*
X155330095Y-87661380D01*
X155289619Y-87782809D01*
X154803904Y-88268523D01*
X155330095Y-88268523D01*
X156099142Y-87418523D02*
X155694380Y-87418523D01*
X155653904Y-87823285D01*
X155694380Y-87782809D01*
X155775333Y-87742333D01*
X155977714Y-87742333D01*
X156058666Y-87782809D01*
X156099142Y-87823285D01*
X156139619Y-87904238D01*
X156139619Y-88106619D01*
X156099142Y-88187571D01*
X156058666Y-88228047D01*
X155977714Y-88268523D01*
X155775333Y-88268523D01*
X155694380Y-88228047D01*
X155653904Y-88187571D01*
%TO.C,D24*%
X154034857Y-94364523D02*
X154034857Y-93514523D01*
X154237238Y-93514523D01*
X154358666Y-93555000D01*
X154439619Y-93635952D01*
X154480095Y-93716904D01*
X154520571Y-93878809D01*
X154520571Y-94000238D01*
X154480095Y-94162142D01*
X154439619Y-94243095D01*
X154358666Y-94324047D01*
X154237238Y-94364523D01*
X154034857Y-94364523D01*
X154844380Y-93595476D02*
X154884857Y-93555000D01*
X154965809Y-93514523D01*
X155168190Y-93514523D01*
X155249142Y-93555000D01*
X155289619Y-93595476D01*
X155330095Y-93676428D01*
X155330095Y-93757380D01*
X155289619Y-93878809D01*
X154803904Y-94364523D01*
X155330095Y-94364523D01*
X156058666Y-93797857D02*
X156058666Y-94364523D01*
X155856285Y-93474047D02*
X155653904Y-94081190D01*
X156180095Y-94081190D01*
%TO.C,D23*%
X154034857Y-103508523D02*
X154034857Y-102658523D01*
X154237238Y-102658523D01*
X154358666Y-102699000D01*
X154439619Y-102779952D01*
X154480095Y-102860904D01*
X154520571Y-103022809D01*
X154520571Y-103144238D01*
X154480095Y-103306142D01*
X154439619Y-103387095D01*
X154358666Y-103468047D01*
X154237238Y-103508523D01*
X154034857Y-103508523D01*
X154844380Y-102739476D02*
X154884857Y-102699000D01*
X154965809Y-102658523D01*
X155168190Y-102658523D01*
X155249142Y-102699000D01*
X155289619Y-102739476D01*
X155330095Y-102820428D01*
X155330095Y-102901380D01*
X155289619Y-103022809D01*
X154803904Y-103508523D01*
X155330095Y-103508523D01*
X155613428Y-102658523D02*
X156139619Y-102658523D01*
X155856285Y-102982333D01*
X155977714Y-102982333D01*
X156058666Y-103022809D01*
X156099142Y-103063285D01*
X156139619Y-103144238D01*
X156139619Y-103346619D01*
X156099142Y-103427571D01*
X156058666Y-103468047D01*
X155977714Y-103508523D01*
X155734857Y-103508523D01*
X155653904Y-103468047D01*
X155613428Y-103427571D01*
%TO.C,D22*%
X154288857Y-109604523D02*
X154288857Y-108754523D01*
X154491238Y-108754523D01*
X154612666Y-108795000D01*
X154693619Y-108875952D01*
X154734095Y-108956904D01*
X154774571Y-109118809D01*
X154774571Y-109240238D01*
X154734095Y-109402142D01*
X154693619Y-109483095D01*
X154612666Y-109564047D01*
X154491238Y-109604523D01*
X154288857Y-109604523D01*
X155098380Y-108835476D02*
X155138857Y-108795000D01*
X155219809Y-108754523D01*
X155422190Y-108754523D01*
X155503142Y-108795000D01*
X155543619Y-108835476D01*
X155584095Y-108916428D01*
X155584095Y-108997380D01*
X155543619Y-109118809D01*
X155057904Y-109604523D01*
X155584095Y-109604523D01*
X155907904Y-108835476D02*
X155948380Y-108795000D01*
X156029333Y-108754523D01*
X156231714Y-108754523D01*
X156312666Y-108795000D01*
X156353142Y-108835476D01*
X156393619Y-108916428D01*
X156393619Y-108997380D01*
X156353142Y-109118809D01*
X155867428Y-109604523D01*
X156393619Y-109604523D01*
%TO.C,D21*%
X154288857Y-118748523D02*
X154288857Y-117898523D01*
X154491238Y-117898523D01*
X154612666Y-117939000D01*
X154693619Y-118019952D01*
X154734095Y-118100904D01*
X154774571Y-118262809D01*
X154774571Y-118384238D01*
X154734095Y-118546142D01*
X154693619Y-118627095D01*
X154612666Y-118708047D01*
X154491238Y-118748523D01*
X154288857Y-118748523D01*
X155098380Y-117979476D02*
X155138857Y-117939000D01*
X155219809Y-117898523D01*
X155422190Y-117898523D01*
X155503142Y-117939000D01*
X155543619Y-117979476D01*
X155584095Y-118060428D01*
X155584095Y-118141380D01*
X155543619Y-118262809D01*
X155057904Y-118748523D01*
X155584095Y-118748523D01*
X156393619Y-118748523D02*
X155907904Y-118748523D01*
X156150761Y-118748523D02*
X156150761Y-117898523D01*
X156069809Y-118019952D01*
X155988857Y-118100904D01*
X155907904Y-118141380D01*
%TO.C,D20*%
X154288857Y-124844523D02*
X154288857Y-123994523D01*
X154491238Y-123994523D01*
X154612666Y-124035000D01*
X154693619Y-124115952D01*
X154734095Y-124196904D01*
X154774571Y-124358809D01*
X154774571Y-124480238D01*
X154734095Y-124642142D01*
X154693619Y-124723095D01*
X154612666Y-124804047D01*
X154491238Y-124844523D01*
X154288857Y-124844523D01*
X155098380Y-124075476D02*
X155138857Y-124035000D01*
X155219809Y-123994523D01*
X155422190Y-123994523D01*
X155503142Y-124035000D01*
X155543619Y-124075476D01*
X155584095Y-124156428D01*
X155584095Y-124237380D01*
X155543619Y-124358809D01*
X155057904Y-124844523D01*
X155584095Y-124844523D01*
X156110285Y-123994523D02*
X156191238Y-123994523D01*
X156272190Y-124035000D01*
X156312666Y-124075476D01*
X156353142Y-124156428D01*
X156393619Y-124318333D01*
X156393619Y-124520714D01*
X156353142Y-124682619D01*
X156312666Y-124763571D01*
X156272190Y-124804047D01*
X156191238Y-124844523D01*
X156110285Y-124844523D01*
X156029333Y-124804047D01*
X155988857Y-124763571D01*
X155948380Y-124682619D01*
X155907904Y-124520714D01*
X155907904Y-124318333D01*
X155948380Y-124156428D01*
X155988857Y-124075476D01*
X156029333Y-124035000D01*
X156110285Y-123994523D01*
%TO.C,D19*%
X154034857Y-133988523D02*
X154034857Y-133138523D01*
X154237238Y-133138523D01*
X154358666Y-133179000D01*
X154439619Y-133259952D01*
X154480095Y-133340904D01*
X154520571Y-133502809D01*
X154520571Y-133624238D01*
X154480095Y-133786142D01*
X154439619Y-133867095D01*
X154358666Y-133948047D01*
X154237238Y-133988523D01*
X154034857Y-133988523D01*
X155330095Y-133988523D02*
X154844380Y-133988523D01*
X155087238Y-133988523D02*
X155087238Y-133138523D01*
X155006285Y-133259952D01*
X154925333Y-133340904D01*
X154844380Y-133381380D01*
X155734857Y-133988523D02*
X155896761Y-133988523D01*
X155977714Y-133948047D01*
X156018190Y-133907571D01*
X156099142Y-133786142D01*
X156139619Y-133624238D01*
X156139619Y-133300428D01*
X156099142Y-133219476D01*
X156058666Y-133179000D01*
X155977714Y-133138523D01*
X155815809Y-133138523D01*
X155734857Y-133179000D01*
X155694380Y-133219476D01*
X155653904Y-133300428D01*
X155653904Y-133502809D01*
X155694380Y-133583761D01*
X155734857Y-133624238D01*
X155815809Y-133664714D01*
X155977714Y-133664714D01*
X156058666Y-133624238D01*
X156099142Y-133583761D01*
X156139619Y-133502809D01*
%TO.C,D18*%
X165210857Y-133988523D02*
X165210857Y-133138523D01*
X165413238Y-133138523D01*
X165534666Y-133179000D01*
X165615619Y-133259952D01*
X165656095Y-133340904D01*
X165696571Y-133502809D01*
X165696571Y-133624238D01*
X165656095Y-133786142D01*
X165615619Y-133867095D01*
X165534666Y-133948047D01*
X165413238Y-133988523D01*
X165210857Y-133988523D01*
X166506095Y-133988523D02*
X166020380Y-133988523D01*
X166263238Y-133988523D02*
X166263238Y-133138523D01*
X166182285Y-133259952D01*
X166101333Y-133340904D01*
X166020380Y-133381380D01*
X166991809Y-133502809D02*
X166910857Y-133462333D01*
X166870380Y-133421857D01*
X166829904Y-133340904D01*
X166829904Y-133300428D01*
X166870380Y-133219476D01*
X166910857Y-133179000D01*
X166991809Y-133138523D01*
X167153714Y-133138523D01*
X167234666Y-133179000D01*
X167275142Y-133219476D01*
X167315619Y-133300428D01*
X167315619Y-133340904D01*
X167275142Y-133421857D01*
X167234666Y-133462333D01*
X167153714Y-133502809D01*
X166991809Y-133502809D01*
X166910857Y-133543285D01*
X166870380Y-133583761D01*
X166829904Y-133664714D01*
X166829904Y-133826619D01*
X166870380Y-133907571D01*
X166910857Y-133948047D01*
X166991809Y-133988523D01*
X167153714Y-133988523D01*
X167234666Y-133948047D01*
X167275142Y-133907571D01*
X167315619Y-133826619D01*
X167315619Y-133664714D01*
X167275142Y-133583761D01*
X167234666Y-133543285D01*
X167153714Y-133502809D01*
%TO.C,D17*%
X165210857Y-124844523D02*
X165210857Y-123994523D01*
X165413238Y-123994523D01*
X165534666Y-124035000D01*
X165615619Y-124115952D01*
X165656095Y-124196904D01*
X165696571Y-124358809D01*
X165696571Y-124480238D01*
X165656095Y-124642142D01*
X165615619Y-124723095D01*
X165534666Y-124804047D01*
X165413238Y-124844523D01*
X165210857Y-124844523D01*
X166506095Y-124844523D02*
X166020380Y-124844523D01*
X166263238Y-124844523D02*
X166263238Y-123994523D01*
X166182285Y-124115952D01*
X166101333Y-124196904D01*
X166020380Y-124237380D01*
X166789428Y-123994523D02*
X167356095Y-123994523D01*
X166991809Y-124844523D01*
%TO.C,D16*%
X165210857Y-118748523D02*
X165210857Y-117898523D01*
X165413238Y-117898523D01*
X165534666Y-117939000D01*
X165615619Y-118019952D01*
X165656095Y-118100904D01*
X165696571Y-118262809D01*
X165696571Y-118384238D01*
X165656095Y-118546142D01*
X165615619Y-118627095D01*
X165534666Y-118708047D01*
X165413238Y-118748523D01*
X165210857Y-118748523D01*
X166506095Y-118748523D02*
X166020380Y-118748523D01*
X166263238Y-118748523D02*
X166263238Y-117898523D01*
X166182285Y-118019952D01*
X166101333Y-118100904D01*
X166020380Y-118141380D01*
X167234666Y-117898523D02*
X167072761Y-117898523D01*
X166991809Y-117939000D01*
X166951333Y-117979476D01*
X166870380Y-118100904D01*
X166829904Y-118262809D01*
X166829904Y-118586619D01*
X166870380Y-118667571D01*
X166910857Y-118708047D01*
X166991809Y-118748523D01*
X167153714Y-118748523D01*
X167234666Y-118708047D01*
X167275142Y-118667571D01*
X167315619Y-118586619D01*
X167315619Y-118384238D01*
X167275142Y-118303285D01*
X167234666Y-118262809D01*
X167153714Y-118222333D01*
X166991809Y-118222333D01*
X166910857Y-118262809D01*
X166870380Y-118303285D01*
X166829904Y-118384238D01*
%TO.C,D15*%
X165210857Y-109604523D02*
X165210857Y-108754523D01*
X165413238Y-108754523D01*
X165534666Y-108795000D01*
X165615619Y-108875952D01*
X165656095Y-108956904D01*
X165696571Y-109118809D01*
X165696571Y-109240238D01*
X165656095Y-109402142D01*
X165615619Y-109483095D01*
X165534666Y-109564047D01*
X165413238Y-109604523D01*
X165210857Y-109604523D01*
X166506095Y-109604523D02*
X166020380Y-109604523D01*
X166263238Y-109604523D02*
X166263238Y-108754523D01*
X166182285Y-108875952D01*
X166101333Y-108956904D01*
X166020380Y-108997380D01*
X167275142Y-108754523D02*
X166870380Y-108754523D01*
X166829904Y-109159285D01*
X166870380Y-109118809D01*
X166951333Y-109078333D01*
X167153714Y-109078333D01*
X167234666Y-109118809D01*
X167275142Y-109159285D01*
X167315619Y-109240238D01*
X167315619Y-109442619D01*
X167275142Y-109523571D01*
X167234666Y-109564047D01*
X167153714Y-109604523D01*
X166951333Y-109604523D01*
X166870380Y-109564047D01*
X166829904Y-109523571D01*
%TO.C,D14*%
X202294857Y-105286523D02*
X202294857Y-104436523D01*
X202497238Y-104436523D01*
X202618666Y-104477000D01*
X202699619Y-104557952D01*
X202740095Y-104638904D01*
X202780571Y-104800809D01*
X202780571Y-104922238D01*
X202740095Y-105084142D01*
X202699619Y-105165095D01*
X202618666Y-105246047D01*
X202497238Y-105286523D01*
X202294857Y-105286523D01*
X203590095Y-105286523D02*
X203104380Y-105286523D01*
X203347238Y-105286523D02*
X203347238Y-104436523D01*
X203266285Y-104557952D01*
X203185333Y-104638904D01*
X203104380Y-104679380D01*
X204318666Y-104719857D02*
X204318666Y-105286523D01*
X204116285Y-104396047D02*
X203913904Y-105003190D01*
X204440095Y-105003190D01*
%TO.C,D13*%
X198230857Y-100430024D02*
X198230857Y-99580024D01*
X198433238Y-99580024D01*
X198554666Y-99620501D01*
X198635619Y-99701453D01*
X198676095Y-99782405D01*
X198716571Y-99944310D01*
X198716571Y-100065739D01*
X198676095Y-100227643D01*
X198635619Y-100308596D01*
X198554666Y-100389548D01*
X198433238Y-100430024D01*
X198230857Y-100430024D01*
X199526095Y-100430024D02*
X199040380Y-100430024D01*
X199283238Y-100430024D02*
X199283238Y-99580024D01*
X199202285Y-99701453D01*
X199121333Y-99782405D01*
X199040380Y-99822881D01*
X199809428Y-99580024D02*
X200335619Y-99580024D01*
X200052285Y-99903834D01*
X200173714Y-99903834D01*
X200254666Y-99944310D01*
X200295142Y-99984786D01*
X200335619Y-100065739D01*
X200335619Y-100268120D01*
X200295142Y-100349072D01*
X200254666Y-100389548D01*
X200173714Y-100430024D01*
X199930857Y-100430024D01*
X199849904Y-100389548D01*
X199809428Y-100349072D01*
%TO.C,D12*%
X194166857Y-105286523D02*
X194166857Y-104436523D01*
X194369238Y-104436523D01*
X194490666Y-104477000D01*
X194571619Y-104557952D01*
X194612095Y-104638904D01*
X194652571Y-104800809D01*
X194652571Y-104922238D01*
X194612095Y-105084142D01*
X194571619Y-105165095D01*
X194490666Y-105246047D01*
X194369238Y-105286523D01*
X194166857Y-105286523D01*
X195462095Y-105286523D02*
X194976380Y-105286523D01*
X195219238Y-105286523D02*
X195219238Y-104436523D01*
X195138285Y-104557952D01*
X195057333Y-104638904D01*
X194976380Y-104679380D01*
X195785904Y-104517476D02*
X195826380Y-104477000D01*
X195907333Y-104436523D01*
X196109714Y-104436523D01*
X196190666Y-104477000D01*
X196231142Y-104517476D01*
X196271619Y-104598428D01*
X196271619Y-104679380D01*
X196231142Y-104800809D01*
X195745428Y-105286523D01*
X196271619Y-105286523D01*
%TO.C,D11*%
X165210857Y-103508523D02*
X165210857Y-102658523D01*
X165413238Y-102658523D01*
X165534666Y-102699000D01*
X165615619Y-102779952D01*
X165656095Y-102860904D01*
X165696571Y-103022809D01*
X165696571Y-103144238D01*
X165656095Y-103306142D01*
X165615619Y-103387095D01*
X165534666Y-103468047D01*
X165413238Y-103508523D01*
X165210857Y-103508523D01*
X166506095Y-103508523D02*
X166020380Y-103508523D01*
X166263238Y-103508523D02*
X166263238Y-102658523D01*
X166182285Y-102779952D01*
X166101333Y-102860904D01*
X166020380Y-102901380D01*
X167315619Y-103508523D02*
X166829904Y-103508523D01*
X167072761Y-103508523D02*
X167072761Y-102658523D01*
X166991809Y-102779952D01*
X166910857Y-102860904D01*
X166829904Y-102901380D01*
%TO.C,D10*%
X165210857Y-94364523D02*
X165210857Y-93514523D01*
X165413238Y-93514523D01*
X165534666Y-93555000D01*
X165615619Y-93635952D01*
X165656095Y-93716904D01*
X165696571Y-93878809D01*
X165696571Y-94000238D01*
X165656095Y-94162142D01*
X165615619Y-94243095D01*
X165534666Y-94324047D01*
X165413238Y-94364523D01*
X165210857Y-94364523D01*
X166506095Y-94364523D02*
X166020380Y-94364523D01*
X166263238Y-94364523D02*
X166263238Y-93514523D01*
X166182285Y-93635952D01*
X166101333Y-93716904D01*
X166020380Y-93757380D01*
X167032285Y-93514523D02*
X167113238Y-93514523D01*
X167194190Y-93555000D01*
X167234666Y-93595476D01*
X167275142Y-93676428D01*
X167315619Y-93838333D01*
X167315619Y-94040714D01*
X167275142Y-94202619D01*
X167234666Y-94283571D01*
X167194190Y-94324047D01*
X167113238Y-94364523D01*
X167032285Y-94364523D01*
X166951333Y-94324047D01*
X166910857Y-94283571D01*
X166870380Y-94202619D01*
X166829904Y-94040714D01*
X166829904Y-93838333D01*
X166870380Y-93676428D01*
X166910857Y-93595476D01*
X166951333Y-93555000D01*
X167032285Y-93514523D01*
%TO.C,D9*%
X165615619Y-88268523D02*
X165615619Y-87418523D01*
X165818000Y-87418523D01*
X165939428Y-87459000D01*
X166020380Y-87539952D01*
X166060857Y-87620904D01*
X166101333Y-87782809D01*
X166101333Y-87904238D01*
X166060857Y-88066142D01*
X166020380Y-88147095D01*
X165939428Y-88228047D01*
X165818000Y-88268523D01*
X165615619Y-88268523D01*
X166506095Y-88268523D02*
X166668000Y-88268523D01*
X166748952Y-88228047D01*
X166789428Y-88187571D01*
X166870380Y-88066142D01*
X166910857Y-87904238D01*
X166910857Y-87580428D01*
X166870380Y-87499476D01*
X166829904Y-87459000D01*
X166748952Y-87418523D01*
X166587047Y-87418523D01*
X166506095Y-87459000D01*
X166465619Y-87499476D01*
X166425142Y-87580428D01*
X166425142Y-87782809D01*
X166465619Y-87863761D01*
X166506095Y-87904238D01*
X166587047Y-87944714D01*
X166748952Y-87944714D01*
X166829904Y-87904238D01*
X166870380Y-87863761D01*
X166910857Y-87782809D01*
%TO.C,D8*%
X165615619Y-79124523D02*
X165615619Y-78274523D01*
X165818000Y-78274523D01*
X165939428Y-78315000D01*
X166020380Y-78395952D01*
X166060857Y-78476904D01*
X166101333Y-78638809D01*
X166101333Y-78760238D01*
X166060857Y-78922142D01*
X166020380Y-79003095D01*
X165939428Y-79084047D01*
X165818000Y-79124523D01*
X165615619Y-79124523D01*
X166587047Y-78638809D02*
X166506095Y-78598333D01*
X166465619Y-78557857D01*
X166425142Y-78476904D01*
X166425142Y-78436428D01*
X166465619Y-78355476D01*
X166506095Y-78315000D01*
X166587047Y-78274523D01*
X166748952Y-78274523D01*
X166829904Y-78315000D01*
X166870380Y-78355476D01*
X166910857Y-78436428D01*
X166910857Y-78476904D01*
X166870380Y-78557857D01*
X166829904Y-78598333D01*
X166748952Y-78638809D01*
X166587047Y-78638809D01*
X166506095Y-78679285D01*
X166465619Y-78719761D01*
X166425142Y-78800714D01*
X166425142Y-78962619D01*
X166465619Y-79043571D01*
X166506095Y-79084047D01*
X166587047Y-79124523D01*
X166748952Y-79124523D01*
X166829904Y-79084047D01*
X166870380Y-79043571D01*
X166910857Y-78962619D01*
X166910857Y-78800714D01*
X166870380Y-78719761D01*
X166829904Y-78679285D01*
X166748952Y-78638809D01*
%TO.C,D7*%
X165615619Y-73028523D02*
X165615619Y-72178523D01*
X165818000Y-72178523D01*
X165939428Y-72219000D01*
X166020380Y-72299952D01*
X166060857Y-72380904D01*
X166101333Y-72542809D01*
X166101333Y-72664238D01*
X166060857Y-72826142D01*
X166020380Y-72907095D01*
X165939428Y-72988047D01*
X165818000Y-73028523D01*
X165615619Y-73028523D01*
X166384666Y-72178523D02*
X166951333Y-72178523D01*
X166587047Y-73028523D01*
%TO.C,D6*%
X165615619Y-63884523D02*
X165615619Y-63034523D01*
X165818000Y-63034523D01*
X165939428Y-63075000D01*
X166020380Y-63155952D01*
X166060857Y-63236904D01*
X166101333Y-63398809D01*
X166101333Y-63520238D01*
X166060857Y-63682142D01*
X166020380Y-63763095D01*
X165939428Y-63844047D01*
X165818000Y-63884523D01*
X165615619Y-63884523D01*
X166829904Y-63034523D02*
X166668000Y-63034523D01*
X166587047Y-63075000D01*
X166546571Y-63115476D01*
X166465619Y-63236904D01*
X166425142Y-63398809D01*
X166425142Y-63722619D01*
X166465619Y-63803571D01*
X166506095Y-63844047D01*
X166587047Y-63884523D01*
X166748952Y-63884523D01*
X166829904Y-63844047D01*
X166870380Y-63803571D01*
X166910857Y-63722619D01*
X166910857Y-63520238D01*
X166870380Y-63439285D01*
X166829904Y-63398809D01*
X166748952Y-63358333D01*
X166587047Y-63358333D01*
X166506095Y-63398809D01*
X166465619Y-63439285D01*
X166425142Y-63520238D01*
%TO.C,D5*%
X165615619Y-57788523D02*
X165615619Y-56938523D01*
X165818000Y-56938523D01*
X165939428Y-56979000D01*
X166020380Y-57059952D01*
X166060857Y-57140904D01*
X166101333Y-57302809D01*
X166101333Y-57424238D01*
X166060857Y-57586142D01*
X166020380Y-57667095D01*
X165939428Y-57748047D01*
X165818000Y-57788523D01*
X165615619Y-57788523D01*
X166870380Y-56938523D02*
X166465619Y-56938523D01*
X166425142Y-57343285D01*
X166465619Y-57302809D01*
X166546571Y-57262333D01*
X166748952Y-57262333D01*
X166829904Y-57302809D01*
X166870380Y-57343285D01*
X166910857Y-57424238D01*
X166910857Y-57626619D01*
X166870380Y-57707571D01*
X166829904Y-57748047D01*
X166748952Y-57788523D01*
X166546571Y-57788523D01*
X166465619Y-57748047D01*
X166425142Y-57707571D01*
%TO.C,D4*%
X165615619Y-48771523D02*
X165615619Y-47921523D01*
X165818000Y-47921523D01*
X165939428Y-47962000D01*
X166020380Y-48042952D01*
X166060857Y-48123904D01*
X166101333Y-48285809D01*
X166101333Y-48407238D01*
X166060857Y-48569142D01*
X166020380Y-48650095D01*
X165939428Y-48731047D01*
X165818000Y-48771523D01*
X165615619Y-48771523D01*
X166829904Y-48204857D02*
X166829904Y-48771523D01*
X166627523Y-47881047D02*
X166425142Y-48488190D01*
X166951333Y-48488190D01*
%TO.C,D3*%
X193682619Y-44326523D02*
X193682619Y-43476523D01*
X193885000Y-43476523D01*
X194006428Y-43517000D01*
X194087380Y-43597952D01*
X194127857Y-43678904D01*
X194168333Y-43840809D01*
X194168333Y-43962238D01*
X194127857Y-44124142D01*
X194087380Y-44205095D01*
X194006428Y-44286047D01*
X193885000Y-44326523D01*
X193682619Y-44326523D01*
X194451666Y-43476523D02*
X194977857Y-43476523D01*
X194694523Y-43800333D01*
X194815952Y-43800333D01*
X194896904Y-43840809D01*
X194937380Y-43881285D01*
X194977857Y-43962238D01*
X194977857Y-44164619D01*
X194937380Y-44245571D01*
X194896904Y-44286047D01*
X194815952Y-44326523D01*
X194573095Y-44326523D01*
X194492142Y-44286047D01*
X194451666Y-44245571D01*
%TO.C,D2*%
X197873619Y-43056523D02*
X197873619Y-42206523D01*
X198076000Y-42206523D01*
X198197428Y-42247000D01*
X198278380Y-42327952D01*
X198318857Y-42408904D01*
X198359333Y-42570809D01*
X198359333Y-42692238D01*
X198318857Y-42854142D01*
X198278380Y-42935095D01*
X198197428Y-43016047D01*
X198076000Y-43056523D01*
X197873619Y-43056523D01*
X198683142Y-42287476D02*
X198723619Y-42247000D01*
X198804571Y-42206523D01*
X199006952Y-42206523D01*
X199087904Y-42247000D01*
X199128380Y-42287476D01*
X199168857Y-42368428D01*
X199168857Y-42449380D01*
X199128380Y-42570809D01*
X198642666Y-43056523D01*
X199168857Y-43056523D01*
%TO.C,D1*%
X201937619Y-44326523D02*
X201937619Y-43476523D01*
X202140000Y-43476523D01*
X202261428Y-43517000D01*
X202342380Y-43597952D01*
X202382857Y-43678904D01*
X202423333Y-43840809D01*
X202423333Y-43962238D01*
X202382857Y-44124142D01*
X202342380Y-44205095D01*
X202261428Y-44286047D01*
X202140000Y-44326523D01*
X201937619Y-44326523D01*
X203232857Y-44326523D02*
X202747142Y-44326523D01*
X202990000Y-44326523D02*
X202990000Y-43476523D01*
X202909047Y-43597952D01*
X202828095Y-43678904D01*
X202747142Y-43719380D01*
%TD*%
M02*
