<?xml version="1.0" encoding="UTF-8" standalone="no"?>
<svg
   viewBox="0 0 793.7007874015749 1122.5196850393702"
   width="793.7007874015749"
   height="1122.5196850393702"
   version="1.1"
   id="svg1087"
   sodipodi:docname="OHC0005-10_BRACKET, MAG SWITCH_-_V16.svg"
   inkscape:version="1.2.1 (9c6d41e410, 2022-07-14)"
   xmlns:inkscape="http://www.inkscape.org/namespaces/inkscape"
   xmlns:sodipodi="http://sodipodi.sourceforge.net/DTD/sodipodi-0.dtd"
   xmlns="http://www.w3.org/2000/svg"
   xmlns:svg="http://www.w3.org/2000/svg">
  <sodipodi:namedview
     id="namedview1089"
     pagecolor="#ffffff"
     bordercolor="#000000"
     borderopacity="0.25"
     inkscape:showpageshadow="2"
     inkscape:pageopacity="0.0"
     inkscape:pagecheckerboard="0"
     inkscape:deskcolor="#d1d1d1"
     showgrid="false"
     inkscape:zoom="1.6338244"
     inkscape:cx="396.92148"
     inkscape:cy="365.40035"
     inkscape:window-width="3840"
     inkscape:window-height="2066"
     inkscape:window-x="5749"
     inkscape:window-y="-11"
     inkscape:window-maximized="1"
     inkscape:current-layer="g1085" />
  <desc
     id="desc1049">test.dxf - scale = 25.400000, origin = (0.000000, 0.000000), method = file</desc>
  <defs
     id="defs1063">
    <marker
       id="DistanceX"
       orient="auto"
       refX="0.0"
       refY="0.0"
       style="overflow:visible">
      <path
         d="M 3,-3 L -3,3 M 0,-5 L  0,5"
         style="stroke:#000000; stroke-width:0.5"
         id="path1051" />
    </marker>
    <pattern
       id="Hatch"
       patternUnits="userSpaceOnUse"
       width="8"
       height="8"
       x="0"
       y="0">
      <path
         d="M8 4 l-4,4"
         stroke="#000000"
         stroke-width="0.25"
         linecap="square"
         id="path1054" />
      <path
         d="M6 2 l-4,4"
         stroke="#000000"
         stroke-width="0.25"
         linecap="square"
         id="path1056" />
      <path
         d="M4 0 l-4,4"
         stroke="#000000"
         stroke-width="0.25"
         linecap="square"
         id="path1058" />
    </pattern>
    <symbol
       id="*MODEL_SPACE" />
    <symbol
       id="*PAPER_SPACE" />
  </defs>
  <g
     inkscape:groupmode="layer"
     inkscape:label="0"
     id="g1065" />
  <g
     inkscape:groupmode="layer"
     inkscape:label="OUTER_PROFILES"
     id="g1069">
    <path
       d="M 71.393956,0.5 H 11.838582 A 11.338583,11.338583 0 0 0 0.5,11.8385 v 128.504 a 11.338583,11.338583 0 0 0 11.338582,11.3386 h 59.555374 a 11.338583,11.338583 0 0 0 8.017589,-3.321 l 31.153285,-31.1533 a 11.338583,11.338583 0 0 1 8.01759,-3.321 h 157.9886 A 11.338583,11.338583 0 0 0 287.9096,102.5472 V 49.6338 A 11.338583,11.338583 0 0 0 276.57102,38.2952 h -157.9886 a 11.338583,11.338583 0 0 1 -8.01759,-3.321 L 79.411545,3.821 A 11.338583,11.338583 0 0 0 71.393956,0.5 Z"
       style="fill:none;stroke:#000000"
       id="path1067" />
  </g>
  <g
     inkscape:groupmode="layer"
     inkscape:label="INTERIOR_PROFILES"
     id="g1075">
    <path
       d="m 281.28031,76.0905 a 26.456693,26.456693 0 0 0 -52.91338,0 26.456693,26.456693 0 0 0 52.91338,0 z"
       style="fill:none;stroke:#000000"
       id="path1071" />
    <path
       d="m 29.140427,134.0056 a 197.2169,197.2169 0 0 1 0,-115.8302 8.5039418,8.5039418 0 0 1 16.257985,4.9946 180.20903,180.20903 0 0 0 0,105.8411 8.503937,8.503937 0 0 1 -16.257985,4.9945 z"
       style="fill:none;stroke:#000000"
       id="path1073" />
  </g>
  <g
     inkscape:groupmode="layer"
     inkscape:label="BEND"
     id="g1079">
    <path
       style="fill:none;stroke:#000000"
       d="m 205.03102,38.2961 v 75.59"
       id="path1077" />
  </g>
  <g
     inkscape:groupmode="layer"
     inkscape:label="BEND_EXTENT"
     id="g1085">
    <path
       style="fill:none;stroke:#000000"
       d="m 199.54202,113.8861 v -75.59"
       id="path1081" />
    <path
       style="fill:none;stroke:#000000"
       d="m 210.52002,38.2961 v 75.59"
       id="path1083" />
  </g>
</svg>
