0
SECTION
2
HEADER
9
$ACADVER
1
AC1015
9
$HANDSEED
5
30
0
ENDSEC
0
SECTION
2
TABLES
0
TABLE
2
VPORT
5
8
0
ENDTAB
0
TABLE
2
LTYPE
330
1
100
AcDbSymbolTable 
70
13
0
LTYPE
330
e
100
AcDbSymbolTableRecord
100
AcDbLinetypeTableRecord
2
CONTINUOUS
70
0
3
Continuous ________________________________
72
65
73
2
73
0
40
0.000
0
LTYPE
330
f
100
AcDbSymbolTableRecord
100
AcDbLinetypeTableRecord
2
DASHED
70
0
3
Dashed _ _ _ _ _ _ _ _ _
72
65
73
2
73
2
40
5.000
49
2.50
74
0
49
-2.50
74
0
0
LTYPE
330
10
100
AcDbSymbolTableRecord
100
AcDbLinetypeTableRecord
2
DOT
70
0
3
Dot ...................
72
65
73
2
73
2
40
1.000
49
0.00
74
0
49
-1.00
74
0
0
LTYPE
330
11
100
AcDbSymbolTableRecord
100
AcDbLinetypeTableRecord
2
DASHDOT
70
0
3
Dashdot or center ___ _ ___ _ ___ _ ___ _ ___
72
65
73
2
73
4
40
10.000
49
6.00
74
0
49
-1.50
74
0
49
1.00
74
0
49
-1.50
74
0
0
LTYPE
330
12
100
AcDbSymbolTableRecord
100
AcDbLinetypeTableRecord
2
PHANTOM
70
0
3
Phantom ___ _ _ ___ _ _ ___ _ _ ___ _ _ ___
72
65
73
2
73
6
40
12.000
49
6.00
74
0
49
-1.44
74
0
49
0.84
74
0
49
-1.44
74
0
49
0.84
74
0
49
-1.44
74
0
0
ENDTAB
0
TABLE
2
LAYER
5
2
330
0
100
AcDbSymbolTable
70
1
0
LAYER
5
a
330
2
100
AcDbSymbolTableRecord
100
AcDbLayerTableRecord
2
0
70
0
62
7
6
Continuous
370
-3
390
F
0
ENDTAB
0
TABLE
2
STYLE
5
3
330
0
100
AcDbSymbolTable
70
1
0
ENDTAB
0
TABLE
2
VIEW
5
6
330
0
100
AcDbSymbolTable
70
0
0
ENDTAB
0
TABLE
2
UCS
5
7
330
0
100
AcDbSymbolTable
70
0
0
ENDTAB
0
TABLE
2
DIMSTYLE
5
5
330
0
100
AcDbSymbolTable
70
1
100
AcDbDimStyleTable
0
ENDTAB
0
TABLE
2
BLOCK_RECORD
5
1
330
0
100
AcDbSymbolTable
70
1
0
ENDTAB
0
ENDSEC
0
SECTION
2
ENTITIES
0
LINE
330
1
100
AcDbEntity
8
Sheet
6
CONTINUOUS
62
0
370
0
100
AcDbLine
10
0.0000000000000000
20
0.0000000000000000
30
0.0000000000000000
11
40.0000000000000000
21
0.0000000000000000
31
0.0000000000000000
0
LINE
330
1
100
AcDbEntity
8
Sheet
6
CONTINUOUS
62
0
370
0
100
AcDbLine
10
40.0000000000000000
20
0.0000000000000000
30
0.0000000000000000
11
40.0000000000000000
21
30.0000000000000000
31
0.0000000000000000
0
LINE
330
1
100
AcDbEntity
8
Sheet
6
CONTINUOUS
62
0
370
0
100
AcDbLine
10
40.0000000000000000
20
30.0000000000000000
30
0.0000000000000000
11
0.0000000000000000
21
30.0000000000000000
31
0.0000000000000000
0
LINE
330
1
100
AcDbEntity
8
Sheet
6
CONTINUOUS
62
0
370
0
100
AcDbLine
10
0.0000000000000000
20
30.0000000000000000
30
0.0000000000000000
11
0.0000000000000000
21
0.0000000000000000
31
0.0000000000000000
0
SPLINE
8
Cut
6
CONTINUOUS
62
5
370
0
100
AcDbEntity
100
AcDbSpline
70
0
71
3
72
15
73
11
74
0
40
0.0000000000000000
40
0.0000000000000000
40
0.0000000000000000
40
0.0000000000000000
40
0.0659564946157079
40
0.1993912810991781
40
0.3328260675826483
40
0.4662608540661186
40
0.5996956405495899
40
0.7331304270330596
40
0.8665652135165299
40
1.0000000000000000
40
1.0000000000000000
40
1.0000000000000000
40
1.0000000000000000
10
0.8959382674140720
20
2.0743595335898202
30
0.0000000000000371
10
0.8672889763629802
20
2.0931764547888840
30
0.0000000000000371
10
0.7806800854790236
20
2.1500613763737055
30
0.0000000000000374
10
0.6494257397936013
20
2.2639410917014389
30
0.0000000000000379
10
0.5131209565044622
20
2.4219064448200887
30
0.0000000000000383
10
0.4024785176042929
20
2.5989478197926790
30
0.0000000000000387
10
0.3195761341932343
20
2.7905855703809874
30
0.0000000000000390
10
0.2671382443672357
20
2.9924647351347597
30
0.0000000000000392
10
0.2435046406471205
20
3.2002839381742660
30
0.0000000000000394
10
0.2543857450343160
20
3.3387586547160808
30
0.0000000000000394
10
0.2598262972279148
20
3.4079960129869886
30
0.0000000000000394
41
1.0000000000000000
41
1.0000000000000000
41
1.0000000000000000
41
1.0000000000000000
41
1.0000000000000000
41
1.0000000000000000
41
1.0000000000000000
41
1.0000000000000000
41
1.0000000000000000
41
1.0000000000000000
41
1.0000000000000000
0
LINE
330
1
100
AcDbEntity
8
Cut
6
CONTINUOUS
62
5
370
0
100
AcDbLine
10
0.2598262972279105
20
3.4079960129869864
30
0.0000000000000394
11
2.9946487739636463
21
25.6813376825340427
31
0.0000000000000381
0
LINE
330
1
100
AcDbEntity
8
Cut
6
CONTINUOUS
62
5
370
0
100
AcDbLine
10
2.9946487739637968
20
25.6813376825331829
30
0.0000000000000381
11
24.9400806432275566
21
29.4872449685971674
31
-0.0000000000000264
0
LINE
330
1
100
AcDbEntity
8
Cut
6
CONTINUOUS
62
5
370
0
100
AcDbLine
10
24.9400806432266684
20
29.4872449685970111
30
-0.0000000000000264
11
25.4007431860244424
21
26.8309956992813987
31
-0.0000000000000286
0
LINE
330
1
100
AcDbEntity
8
Cut
6
CONTINUOUS
62
5
370
0
100
AcDbLine
10
25.4007431860244246
20
26.8309956992815088
30
-0.0000000000000286
11
24.4154505250579987
21
26.6601203872977202
31
-0.0000000000000257
0
LINE
330
1
100
AcDbEntity
8
Cut
6
CONTINUOUS
62
5
370
0
100
AcDbLine
10
24.4154505250580200
20
26.6601203872976669
30
-0.0000000000000257
11
12.0334712126782435
21
20.6641124582304343
31
0.0000000000000095
0
ARC
8
Cut
6
CONTINUOUS
62
5
370
0
100
AcDbEntity
100
AcDbCircle
10
14.6485050353007757
20
15.2639674310335103
30
0.0000000000000000
40
5.9999973506844029
100
AcDbArc
50
115.8387031414893329
51
167.6648813376958174
0
LINE
330
1
100
AcDbEntity
8
Cut
6
CONTINUOUS
62
5
370
0
100
AcDbLine
10
8.7870187223199654
20
16.5457421425009485
30
0.0000000000000179
11
5.5547517045926424
21
1.3391214090270511
31
0.0000000000000229
0
ARC
8
Cut
6
CONTINUOUS
62
5
370
0
100
AcDbEntity
100
AcDbCircle
10
4.2097987354530897
20
1.6250000266150075
30
0.0000000000000270
40
1.3750000266149767
100
AcDbArc
50
238.0000015838675722
51
347.9999984161315183
0
LINE
330
1
100
AcDbEntity
8
Cut
6
CONTINUOUS
62
5
370
0
100
AcDbLine
10
3.4811597652630462
20
0.4589338516868767
30
0.0000000000000288
11
0.8959382674140064
21
2.0743595335898988
31
0.0000000000000371
0
CIRCLE
8
Cut
6
CONTINUOUS
62
5
370
0
100
AcDbEntity
100
AcDbCircle
10
5.7555217453926000
20
12.9343891250132206
30
0.0000000000000259
40
0.0967443386551723
0
SPLINE
8
Cut
6
CONTINUOUS
62
5
370
0
100
AcDbEntity
100
AcDbSpline
70
0
71
3
72
16
73
12
74
0
40
0.0000000000000000
40
0.0000000000000000
40
0.0000000000000000
40
0.0000000000000000
40
0.1131137898419427
40
0.2262275796838854
40
0.3393413695258281
40
0.4524551593677706
40
0.5655689492097133
40
0.6786827390516560
40
0.7917965288935986
40
0.9049103187355413
40
1.0000000000000000
40
1.0000000000000000
40
1.0000000000000000
40
1.0000000000000000
10
5.9998251110872305
20
14.6372626041364402
30
0.0000000000000257
10
6.0246558010461895
20
14.6208338075503192
30
0.0000000000000256
10
6.0743171809641083
20
14.5879762143780809
30
0.0000000000000255
10
6.1646526115384193
20
14.5754629401640141
30
0.0000000000000252
10
6.2527980771236171
20
14.5930815610029558
30
0.0000000000000249
10
6.3295501733958899
20
14.6408383181997159
30
0.0000000000000247
10
6.3848011971344567
20
14.7121355405499141
30
0.0000000000000246
10
6.4118882468893919
20
14.7983669821308226
30
0.0000000000000245
10
6.4069677440986474
20
14.8881614104443756
30
0.0000000000000246
10
6.3740876825361381
20
14.9678894471566615
30
0.0000000000000247
10
6.3350743901834479
20
15.0061163244178246
30
0.0000000000000248
10
6.3172564281908805
20
15.0235751187173765
30
0.0000000000000249
41
1.0000000000000000
41
1.0000000000000000
41
1.0000000000000000
41
1.0000000000000000
41
1.0000000000000000
41
1.0000000000000000
41
1.0000000000000000
41
1.0000000000000000
41
1.0000000000000000
41
1.0000000000000000
41
1.0000000000000000
41
1.0000000000000000
0
LINE
330
1
100
AcDbEntity
8
Cut
6
CONTINUOUS
62
5
370
0
100
AcDbLine
10
6.3172564281908681
20
15.0235751187173818
30
0.0000000000000249
11
6.2485860346457383
21
15.0800012831472436
31
0.0000000000000251
0
SPLINE
8
Cut
6
CONTINUOUS
62
5
370
0
100
AcDbEntity
100
AcDbSpline
70
0
71
3
72
12
73
8
74
0
40
0.0000000000000000
40
0.0000000000000000
40
0.0000000000000000
40
0.0000000000000000
40
0.2261676332643509
40
0.4523352665287021
40
0.6785028997930531
40
0.9046705330574042
40
1.0000000000000000
40
1.0000000000000000
40
1.0000000000000000
40
1.0000000000000000
10
6.2485860346457391
20
15.0800012831472454
30
0.0000000000000251
10
6.2276577140789984
20
15.1011712954461554
30
0.0000000000000252
10
6.1858010729455142
20
15.1435113200439737
30
0.0000000000000253
10
6.1559594651089267
20
15.2297645697500990
30
0.0000000000000254
10
6.1563419432859341
20
15.3194308796117156
30
0.0000000000000254
10
6.1815739543188650
20
15.3883523640055646
30
0.0000000000000254
10
6.2066962418728231
20
15.4219198554963661
30
0.0000000000000253
10
6.2141454359070956
20
15.4318731989895372
30
0.0000000000000253
41
1.0000000000000000
41
1.0000000000000000
41
1.0000000000000000
41
1.0000000000000000
41
1.0000000000000000
41
1.0000000000000000
41
1.0000000000000000
41
1.0000000000000000
0
LINE
330
1
100
AcDbEntity
8
Cut
6
CONTINUOUS
62
5
370
0
100
AcDbLine
10
6.2141454359071471
20
15.4318731989896296
30
0.0000000000000253
11
7.8319750807705217
21
17.4007647499977480
31
0.0000000000000211
0
SPLINE
8
Cut
6
CONTINUOUS
62
5
370
0
100
AcDbEntity
100
AcDbSpline
70
0
71
3
72
15
73
11
74
0
40
0.0000000000000000
40
0.0000000000000000
40
0.0000000000000000
40
0.0000000000000000
40
0.1270732018817522
40
0.2541464037635044
40
0.3812196056452565
40
0.5082928075270087
40
0.6353660094087608
40
0.7624392112905127
40
0.8895124131722649
40
1.0000000000000000
40
1.0000000000000000
40
1.0000000000000000
40
1.0000000000000000
10
7.8319750807705555
20
17.4007647499977196
30
0.0000000000000211
10
7.8540830075026609
20
17.4228387161832892
30
0.0000000000000210
10
7.8982988609668681
20
17.4669866485544283
30
0.0000000000000209
10
7.9877290244274644
20
17.5005226079976026
30
0.0000000000000206
10
8.0819224413752853
20
17.5043091440095289
30
0.0000000000000204
10
8.1723411159913049
20
17.4761210996232172
30
0.0000000000000201
10
8.2483205463771654
20
17.4195971386851198
30
0.0000000000000198
10
8.3007083205445937
20
17.3411857666486888
30
0.0000000000000196
10
8.3249848370446582
20
17.2532068057920611
30
0.0000000000000195
10
8.3178089304933032
20
17.1953928902206741
30
0.0000000000000196
10
8.3144714748363011
20
17.1685041092427788
30
0.0000000000000196
41
1.0000000000000000
41
1.0000000000000000
41
1.0000000000000000
41
1.0000000000000000
41
1.0000000000000000
41
1.0000000000000000
41
1.0000000000000000
41
1.0000000000000000
41
1.0000000000000000
41
1.0000000000000000
41
1.0000000000000000
0
LINE
330
1
100
AcDbEntity
8
Cut
6
CONTINUOUS
62
5
370
0
100
AcDbLine
10
8.3144714748362940
20
17.1685041092427824
30
0.0000000000000196
11
6.6459802793006899
21
9.3188701933262905
31
0.0000000000000221
0
SPLINE
8
Cut
6
CONTINUOUS
62
5
370
0
100
AcDbEntity
100
AcDbSpline
70
0
71
3
72
15
73
11
74
0
40
0.0000000000000000
40
0.0000000000000000
40
0.0000000000000000
40
0.0000000000000000
40
0.1413449023766264
40
0.2826898047532523
40
0.4240347071298787
40
0.5653796095065049
40
0.7067245118831310
40
0.8480694142597572
40
0.9894143166363834
40
1.0000000000000000
40
1.0000000000000000
40
1.0000000000000000
40
1.0000000000000000
10
6.6459802793006677
20
9.3188701933262941
30
0.0000000000000221
10
6.6365161602873144
20
9.2890969519552211
30
0.0000000000000221
10
6.6175879222606087
20
9.2295504692130752
30
0.0000000000000222
10
6.5536341202823820
20
9.1586093411084271
30
0.0000000000000223
10
6.4717647571925641
20
9.1118884999529826
30
0.0000000000000226
10
6.3784962675193047
20
9.0952776111172895
30
0.0000000000000228
10
6.2851156125213752
20
9.1105163369027178
30
0.0000000000000231
10
6.2021764985723014
20
9.1558679286345175
30
0.0000000000000234
10
6.1581736931208386
20
9.2046238127998379
30
0.0000000000000235
10
6.1409085880864014
20
9.2330491074115990
30
0.0000000000000236
10
6.1397056510066594
20
9.2350296248091421
30
0.0000000000000236
41
1.0000000000000000
41
1.0000000000000000
41
1.0000000000000000
41
1.0000000000000000
41
1.0000000000000000
41
1.0000000000000000
41
1.0000000000000000
41
1.0000000000000000
41
1.0000000000000000
41
1.0000000000000000
41
1.0000000000000000
0
LINE
330
1
100
AcDbEntity
8
Cut
6
CONTINUOUS
62
5
370
0
100
AcDbLine
10
6.1397056510066541
20
9.2350296248091386
30
0.0000000000000236
11
4.1290401832830934
21
12.6071460887952060
31
0.0000000000000307
0
SPLINE
8
Cut
6
CONTINUOUS
62
5
370
0
100
AcDbEntity
100
AcDbSpline
70
0
71
3
72
11
73
7
74
0
40
0.0000000000000000
40
0.0000000000000000
40
0.0000000000000000
40
0.0000000000000000
40
0.2760469724884959
40
0.5520939449769913
40
0.8281409174654862
40
1.0000000000000000
40
1.0000000000000000
40
1.0000000000000000
40
1.0000000000000000
10
4.1290401832830854
20
12.6071460887952043
30
0.0000000000000307
10
4.1157343833563873
20
12.6354373083697489
30
0.0000000000000307
10
4.0891227835029920
20
12.6920197475188399
30
0.0000000000000308
10
4.0881036768234198
20
12.7872722876835869
30
0.0000000000000308
10
4.1119725331757460
20
12.8667062632096396
30
0.0000000000000308
10
4.1414919717630605
20
12.9075686324126249
30
0.0000000000000307
10
4.1528184175113543
20
12.9232472980673023
30
0.0000000000000307
41
1.0000000000000000
41
1.0000000000000000
41
1.0000000000000000
41
1.0000000000000000
41
1.0000000000000000
41
1.0000000000000000
41
1.0000000000000000
0
LINE
330
1
100
AcDbEntity
8
Cut
6
CONTINUOUS
62
5
370
0
100
AcDbLine
10
4.1528184175113561
20
12.9232472980672988
30
0.0000000000000307
11
4.4868265174192041
21
13.3297336842976488
31
0.0000000000000298
0
SPLINE
8
Cut
6
CONTINUOUS
62
5
370
0
100
AcDbEntity
100
AcDbSpline
70
0
71
3
72
12
73
8
74
0
40
0.0000000000000000
40
0.0000000000000000
40
0.0000000000000000
40
0.0000000000000000
40
0.2261676332643510
40
0.4523352665287024
40
0.6785028997930537
40
0.9046705330574047
40
1.0000000000000000
40
1.0000000000000000
40
1.0000000000000000
40
1.0000000000000000
10
4.4868265174191997
20
13.3297336842976524
30
0.0000000000000298
10
4.5079965297181088
20
13.3506620048643949
30
0.0000000000000298
10
4.5503365543159298
20
13.3925186459978782
30
0.0000000000000296
10
4.6365898040220559
20
13.4223602538344657
30
0.0000000000000294
10
4.7262561138836707
20
13.4219777756574583
30
0.0000000000000291
10
4.7951775982775189
20
13.3967457646245283
30
0.0000000000000289
10
4.8287450897683213
20
13.3716234770705675
30
0.0000000000000288
10
4.8386984332614933
20
13.3641742830362968
30
0.0000000000000288
41
1.0000000000000000
41
1.0000000000000000
41
1.0000000000000000
41
1.0000000000000000
41
1.0000000000000000
41
1.0000000000000000
41
1.0000000000000000
41
1.0000000000000000
0
LINE
330
1
100
AcDbEntity
8
Cut
6
CONTINUOUS
62
5
370
0
100
AcDbLine
10
4.8386984332614764
20
13.3641742830363022
30
0.0000000000000288
11
5.5968121207564465
21
12.7412355553150860
31
0.0000000000000263
0
SPLINE
8
Cut
6
CONTINUOUS
62
5
370
0
100
AcDbEntity
100
AcDbSpline
70
0
71
3
72
16
73
12
74
0
40
0.0000000000000000
40
0.0000000000000000
40
0.0000000000000000
40
0.0000000000000000
40
0.1131137898419429
40
0.2262275796838854
40
0.3393413695258282
40
0.4524551593677707
40
0.5655689492097133
40
0.6786827390516560
40
0.7917965288935986
40
0.9049103187355412
40
1.0000000000000000
40
1.0000000000000000
40
1.0000000000000000
40
1.0000000000000000
10
5.5968121207564412
20
12.7412355553150789
30
0.0000000000000263
10
5.6216428107154011
20
12.7248067587289615
30
0.0000000000000262
10
5.6713041906333208
20
12.6919491655567231
30
0.0000000000000261
10
5.7616396212076282
20
12.6794358913426510
30
0.0000000000000258
10
5.8497850867928287
20
12.6970545121815963
30
0.0000000000000255
10
5.9265371830651015
20
12.7448112693783528
30
0.0000000000000253
10
5.9817882068036674
20
12.8161084917285564
30
0.0000000000000252
10
6.0088752565586026
20
12.9023399333094613
30
0.0000000000000251
10
6.0039547537678590
20
12.9921343616230143
30
0.0000000000000252
10
5.9710746922053488
20
13.0718623983353019
30
0.0000000000000253
10
5.9320613998526586
20
13.1100892755964633
30
0.0000000000000254
10
5.9142434378600912
20
13.1275480698960152
30
0.0000000000000255
41
1.0000000000000000
41
1.0000000000000000
41
1.0000000000000000
41
1.0000000000000000
41
1.0000000000000000
41
1.0000000000000000
41
1.0000000000000000
41
1.0000000000000000
41
1.0000000000000000
41
1.0000000000000000
41
1.0000000000000000
41
1.0000000000000000
0
LINE
330
1
100
AcDbEntity
8
Cut
6
CONTINUOUS
62
5
370
0
100
AcDbLine
10
5.9142434378600885
20
13.1275480698960028
30
0.0000000000000255
11
5.1561297503651291
21
13.7504867976172100
31
0.0000000000000279
0
SPLINE
8
Cut
6
CONTINUOUS
62
5
370
0
100
AcDbEntity
100
AcDbSpline
70
0
71
3
72
12
73
8
74
0
40
0.0000000000000000
40
0.0000000000000000
40
0.0000000000000000
40
0.0000000000000000
40
0.2261676332643516
40
0.4523352665287024
40
0.6785028997930537
40
0.9046705330574046
40
1.0000000000000000
40
1.0000000000000000
40
1.0000000000000000
40
1.0000000000000000
10
5.1561297503651451
20
13.7504867976172296
30
0.0000000000000279
10
5.1352014297984026
20
13.7716568099161414
30
0.0000000000000280
10
5.0933447886649192
20
13.8139968345139597
30
0.0000000000000282
10
5.0635031808283326
20
13.9002500842200867
30
0.0000000000000283
10
5.0638856590053400
20
13.9899163940817033
30
0.0000000000000283
10
5.0891176700382710
20
14.0588378784755506
30
0.0000000000000282
10
5.1142399575922282
20
14.0924053699663521
30
0.0000000000000282
10
5.1216891516265006
20
14.1023587134595232
30
0.0000000000000282
41
1.0000000000000000
41
1.0000000000000000
41
1.0000000000000000
41
1.0000000000000000
41
1.0000000000000000
41
1.0000000000000000
41
1.0000000000000000
41
1.0000000000000000
0
LINE
330
1
100
AcDbEntity
8
Cut
6
CONTINUOUS
62
5
370
0
100
AcDbLine
10
5.1216891516265344
20
14.1023587134595587
30
0.0000000000000282
11
5.5792828016997751
21
14.6592481698276664
31
0.0000000000000270
0
SPLINE
8
Cut
6
CONTINUOUS
62
5
370
0
100
AcDbEntity
100
AcDbSpline
70
0
71
3
72
12
73
8
74
0
40
0.0000000000000000
40
0.0000000000000000
40
0.0000000000000000
40
0.0000000000000000
40
0.2261676332643513
40
0.4523352665287027
40
0.6785028997930533
40
0.9046705330574051
40
1.0000000000000000
40
1.0000000000000000
40
1.0000000000000000
40
1.0000000000000000
10
5.5792828016997706
20
14.6592481698276700
30
0.0000000000000270
10
5.6004528139986807
20
14.6801764903944107
30
0.0000000000000269
10
5.6427928385965016
20
14.7220331315278958
30
0.0000000000000268
10
5.7290460883026277
20
14.7518747393644833
30
0.0000000000000265
10
5.8187123981642452
20
14.7514922611874759
30
0.0000000000000263
10
5.8876338825580898
20
14.7262602501545441
30
0.0000000000000261
10
5.9212013740488922
20
14.7011379626005869
30
0.0000000000000259
10
5.9311547175420642
20
14.6936887685663145
30
0.0000000000000259
41
1.0000000000000000
41
1.0000000000000000
41
1.0000000000000000
41
1.0000000000000000
41
1.0000000000000000
41
1.0000000000000000
41
1.0000000000000000
41
1.0000000000000000
0
LINE
330
1
100
AcDbEntity
8
Cut
6
CONTINUOUS
62
5
370
0
100
AcDbLine
10
5.9311547175420660
20
14.6936887685663429
30
0.0000000000000259
11
5.9998251110872394
21
14.6372626041364473
31
0.0000000000000257
0
SPLINE
8
Cut
6
CONTINUOUS
62
5
370
0
100
AcDbEntity
100
AcDbSpline
70
0
71
3
72
11
73
7
74
0
40
0.0000000000000000
40
0.0000000000000000
40
0.0000000000000000
40
0.0000000000000000
40
0.2975773381600955
40
0.5951546763201901
40
0.8927320144802851
40
1.0000000000000000
40
1.0000000000000000
40
1.0000000000000000
40
1.0000000000000000
10
4.3669254035939060
20
14.0527564875566000
30
0.0000000000000304
10
4.3786027322086030
20
14.0253503680696916
30
0.0000000000000304
10
4.4019573894379942
20
13.9705381290958819
30
0.0000000000000303
10
4.3977499215055742
20
13.8796261181821006
30
0.0000000000000303
10
4.3720851434388175
20
13.8133352320756639
30
0.0000000000000303
10
4.3478276215101763
20
13.7813585976496427
30
0.0000000000000304
10
4.3414003384003292
20
13.7728860552786401
30
0.0000000000000304
41
1.0000000000000000
41
1.0000000000000000
41
1.0000000000000000
41
1.0000000000000000
41
1.0000000000000000
41
1.0000000000000000
41
1.0000000000000000
0
LINE
330
1
100
AcDbEntity
8
Cut
6
CONTINUOUS
62
5
370
0
100
AcDbLine
10
4.3414003384002280
20
13.7728860552784340
30
0.0000000000000304
11
4.1251966826940230
21
13.5097671586946326
31
0.0000000000000310
0
SPLINE
8
Cut
6
CONTINUOUS
62
5
370
0
100
AcDbEntity
100
AcDbSpline
70
0
71
3
72
14
73
10
74
0
40
0.0000000000000000
40
0.0000000000000000
40
0.0000000000000000
40
0.0000000000000000
40
0.1663958918164476
40
0.3327917836328956
40
0.4991876754493437
40
0.6655835672657926
40
0.8319794590822408
40
0.9983753508986889
40
1.0000000000000000
40
1.0000000000000000
40
1.0000000000000000
40
1.0000000000000000
10
4.1251966826939919
20
13.5097671586946593
30
0.0000000000000310
10
4.1030889585553183
20
13.4876930643215172
30
0.0000000000000310
10
4.0588735102779765
20
13.4435448755752294
30
0.0000000000000311
10
3.9694403079158791
20
13.4100108389456594
30
0.0000000000000314
10
3.8752584387937725
20
13.4062169962420299
30
0.0000000000000317
10
3.7847966117763869
20
13.4344323445815448
30
0.0000000000000319
10
3.7089782431702578
20
13.4908543963985217
30
0.0000000000000322
10
3.6734798737620262
20
13.5436386338035497
30
0.0000000000000323
10
3.6607173283821832
20
13.5721590645349881
30
0.0000000000000324
10
3.6605939228880202
20
13.5724348385082401
30
0.0000000000000324
41
1.0000000000000000
41
1.0000000000000000
41
1.0000000000000000
41
1.0000000000000000
41
1.0000000000000000
41
1.0000000000000000
41
1.0000000000000000
41
1.0000000000000000
41
1.0000000000000000
41
1.0000000000000000
0
LINE
330
1
100
AcDbEntity
8
Cut
6
CONTINUOUS
62
5
370
0
100
AcDbLine
10
3.6605939228880113
20
13.5724348385082365
30
0.0000000000000324
11
2.4790909326267121
21
16.2204219772751195
31
0.0000000000000367
0
SPLINE
8
Cut
6
CONTINUOUS
62
5
370
0
100
AcDbEntity
100
AcDbSpline
70
0
71
3
72
9
73
5
74
0
40
0.0000000000000000
40
0.0000000000000000
40
0.0000000000000000
40
0.0000000000000000
40
0.6550530174141899
40
1.0000000000000000
40
1.0000000000000000
40
1.0000000000000000
40
1.0000000000000000
10
2.4790909326267232
20
16.2204219772751195
30
0.0000000000000367
10
2.4694396966721301
20
16.2487484403839524
30
0.0000000000000368
10
2.4547061778606403
20
16.2919914487447848
30
0.0000000000000368
10
2.4580914670884426
20
16.3371716570382119
30
0.0000000000000368
10
2.4592592123927544
20
16.3527564335616304
30
0.0000000000000368
41
1.0000000000000000
41
1.0000000000000000
41
1.0000000000000000
41
1.0000000000000000
41
1.0000000000000000
0
LINE
330
1
100
AcDbEntity
8
Cut
6
CONTINUOUS
62
5
370
0
100
AcDbLine
10
2.4592592123927677
20
16.3527564335616304
30
0.0000000000000368
11
2.5611246171317443
21
17.1823835787816428
31
0.0000000000000368
0
SPLINE
8
Cut
6
CONTINUOUS
62
5
370
0
100
AcDbEntity
100
AcDbSpline
70
0
71
3
72
11
73
7
74
0
40
0.0000000000000000
40
0.0000000000000000
40
0.0000000000000000
40
0.0000000000000000
40
0.3293057574816218
40
0.6586115149632435
40
0.9879172724448640
40
0.9999999999999999
40
0.9999999999999999
40
0.9999999999999999
40
0.9999999999999999
10
2.5611246171317488
20
17.1823835787816392
30
0.0000000000000368
10
2.5677840329036736
20
17.2114078930265322
30
0.0000000000000368
10
2.5811028644475238
20
17.2694565215163145
30
0.0000000000000367
10
2.6378682570131344
20
17.3407388871893318
30
0.0000000000000366
10
2.6895505344509334
20
17.3735083238477053
30
0.0000000000000365
10
2.7179858620436397
20
17.3846558426886304
30
0.0000000000000364
10
2.7189922706698901
20
17.3850503856769691
30
0.0000000000000364
41
1.0000000000000000
41
1.0000000000000000
41
1.0000000000000000
41
1.0000000000000000
41
1.0000000000000000
41
1.0000000000000000
41
1.0000000000000000
0
LINE
330
1
100
AcDbEntity
8
Cut
6
CONTINUOUS
62
5
370
0
100
AcDbLine
10
2.7189922706698924
20
17.3850503856769762
30
0.0000000000000364
11
8.4727183518387097
21
19.6128769417159532
31
0.0000000000000198
0
SPLINE
8
Cut
6
CONTINUOUS
62
5
370
0
100
AcDbEntity
100
AcDbSpline
70
0
71
3
72
15
73
11
74
0
40
0.0000000000000000
40
0.0000000000000000
40
0.0000000000000000
40
0.0000000000000000
40
0.1287644724344758
40
0.2575289448689517
40
0.3862934173034274
40
0.5150578897379033
40
0.6438223621723790
40
0.7725868346068551
40
0.9013513070413314
40
1.0000000000000000
40
1.0000000000000000
40
1.0000000000000000
40
1.0000000000000000
10
8.4727183518387097
20
19.6128769417159532
30
0.0000000000000198
10
8.5028187676387539
20
19.6212426538419678
30
0.0000000000000198
10
8.5630195992388440
20
19.6379740780940004
30
0.0000000000000196
10
8.6573892705119562
20
19.6232499114674681
30
0.0000000000000193
10
8.7412923973813150
20
19.5802742990669216
30
0.0000000000000190
10
8.8062012901002102
20
19.5113007433921837
30
0.0000000000000188
10
8.8446066890471009
20
19.4247481722293820
30
0.0000000000000187
10
8.8517343596465690
20
19.3306904041549821
30
0.0000000000000186
10
8.8303899352868722
20
19.2454074723912640
30
0.0000000000000187
10
8.7988410060288462
20
19.2004280036718882
30
0.0000000000000187
10
8.7851555158762888
20
19.1809165308357770
30
0.0000000000000188
41
1.0000000000000000
41
1.0000000000000000
41
1.0000000000000000
41
1.0000000000000000
41
1.0000000000000000
41
1.0000000000000000
41
1.0000000000000000
41
1.0000000000000000
41
1.0000000000000000
41
1.0000000000000000
41
1.0000000000000000
0
LINE
330
1
100
AcDbEntity
8
Cut
6
CONTINUOUS
62
5
370
0
100
AcDbLine
10
8.7851555158763031
20
19.1809165308357663
30
0.0000000000000188
11
4.9316697412943915
21
14.4912413183723263
31
0.0000000000000288
0
SPLINE
8
Cut
6
CONTINUOUS
62
5
370
0
100
AcDbEntity
100
AcDbSpline
70
0
71
3
72
11
73
7
74
0
40
0.0000000000000000
40
0.0000000000000000
40
0.0000000000000000
40
0.0000000000000000
40
0.2975773381600934
40
0.5951546763201868
40
0.8927320144802803
40
1.0000000000000000
40
1.0000000000000000
40
1.0000000000000000
40
1.0000000000000000
10
4.9316697412943560
20
14.4912413183723565
30
0.0000000000000288
10
4.9104878682158057
20
14.4702941552758819
30
0.0000000000000289
10
4.8681241220587044
20
14.4283998290829327
30
0.0000000000000290
10
4.7820487840471886
20
14.3988408591923385
30
0.0000000000000293
10
4.7109652673767535
20
14.3982967344306978
30
0.0000000000000295
10
4.6723038502259042
20
14.4090776130230118
30
0.0000000000000296
10
4.6620601050409176
20
14.4119341191034565
30
0.0000000000000296
41
1.0000000000000000
41
1.0000000000000000
41
1.0000000000000000
41
1.0000000000000000
41
1.0000000000000000
41
1.0000000000000000
41
1.0000000000000000
0
SPLINE
8
Cut
6
CONTINUOUS
62
5
370
0
100
AcDbEntity
100
AcDbSpline
70
0
71
3
72
14
73
10
74
0
40
0.0000000000000000
40
0.0000000000000000
40
0.0000000000000000
40
0.0000000000000000
40
0.1488211112448798
40
0.2976422224897592
40
0.4464633337346388
40
0.5952844449795185
40
0.7441055562243981
40
0.8929266674692777
40
1.0000000000000000
40
1.0000000000000000
40
1.0000000000000000
40
1.0000000000000000
10
4.6620601050409176
20
14.4119341191034582
30
0.0000000000000296
10
4.6329254008082099
20
14.4180673121209164
30
0.0000000000000297
10
4.5746559923427910
20
14.4303336981558328
30
0.0000000000000299
10
4.4860525311796122
20
14.4087058758783826
30
0.0000000000000302
10
4.4106089142310143
20
14.3598858698858223
30
0.0000000000000304
10
4.3567414072457442
20
14.2871757693327499
30
0.0000000000000305
10
4.3319529911330390
20
14.2007319987925680
30
0.0000000000000306
10
4.3367780647672944
20
14.1183812492650027
30
0.0000000000000305
10
4.3580321181680022
20
14.0721154014639396
30
0.0000000000000304
10
4.3669254035939060
20
14.0527564875565965
30
0.0000000000000304
41
1.0000000000000000
41
1.0000000000000000
41
1.0000000000000000
41
1.0000000000000000
41
1.0000000000000000
41
1.0000000000000000
41
1.0000000000000000
41
1.0000000000000000
41
1.0000000000000000
41
1.0000000000000000
0
CIRCLE
8
Cut
6
CONTINUOUS
62
5
370
0
100
AcDbEntity
100
AcDbCircle
10
4.5856006921622878
20
14.1739085736904222
30
0.0000000000000298
40
0.0967443386551715
0
LINE
330
1
100
AcDbEntity
8
Cut
6
CONTINUOUS
62
5
370
0
100
AcDbLine
10
3.7102721175310407
20
1.8340677946674850
30
0.0000000000000286
11
4.7034026833032057
21
2.1938548798236468
31
0.0000000000000257
0
SPLINE
8
Cut
6
CONTINUOUS
62
5
370
0
100
AcDbEntity
100
AcDbSpline
70
0
71
3
72
12
73
8
74
0
40
0.0000000000000000
40
0.0000000000000000
40
0.0000000000000000
40
0.0000000000000000
40
0.2022995225968916
40
0.4045990451937825
40
0.6068985677906746
40
0.8091980903875647
40
1.0000000000000000
40
1.0000000000000000
40
1.0000000000000000
40
1.0000000000000000
10
4.7034026833032030
20
2.1938548798236512
30
0.0000000000000257
10
4.7322844946670450
20
2.2010536431059347
30
0.0000000000000256
10
4.7900481173947300
20
2.2154511696705104
30
0.0000000000000254
10
4.8795022210400321
20
2.1971181904023651
30
0.0000000000000252
10
4.9562515035907477
20
2.1510196765836564
30
0.0000000000000249
10
5.0132924059636714
20
2.0819914522543068
30
0.0000000000000247
10
5.0281046903127038
20
2.0261566854222077
30
0.0000000000000247
10
5.0352942142064068
20
1.9990558425826033
30
0.0000000000000246
41
1.0000000000000000
41
1.0000000000000000
41
1.0000000000000000
41
1.0000000000000000
41
1.0000000000000000
41
1.0000000000000000
41
1.0000000000000000
41
1.0000000000000000
0
SPLINE
8
Cut
6
CONTINUOUS
62
5
370
0
100
AcDbEntity
100
AcDbSpline
70
0
71
3
72
21
73
17
74
0
40
0.0000000000000000
40
0.0000000000000000
40
0.0000000000000000
40
0.0000000000000000
40
0.0722333503203570
40
0.1444667006407132
40
0.2167000509610696
40
0.2889334012814254
40
0.3611667516017822
40
0.4334001019221384
40
0.5056334522424948
40
0.5778668025628511
40
0.6501001528832074
40
0.7223335032035639
40
0.7945668535239201
40
0.8668002038442766
40
0.9390335541646333
40
1.0000000000000000
40
1.0000000000000000
40
1.0000000000000000
40
1.0000000000000000
10
5.0352942142064165
20
1.9990558425826033
30
0.0000000000000246
10
5.0407458338952180
20
1.9467361231081775
30
0.0000000000000246
10
5.0516490732728210
20
1.8420966841593254
30
0.0000000000000245
10
5.0280355323399011
20
1.6849863727880572
30
0.0000000000000246
10
4.9759304155235080
20
1.5357121863890684
30
0.0000000000000247
10
4.8945899827766937
20
1.3997696823825674
30
0.0000000000000249
10
4.7880160103651068
20
1.2827063206502423
30
0.0000000000000252
10
4.6602583619996913
20
1.1891599960550210
30
0.0000000000000255
10
4.5164680260042882
20
1.1228715860572180
30
0.0000000000000259
10
4.3623708419571550
20
1.0864854150500654
30
0.0000000000000264
10
4.2041074086595422
20
1.0814472448105223
30
0.0000000000000268
10
4.0480353472969002
20
1.1079828672816778
30
0.0000000000000273
10
3.9002181711723392
20
1.1649404817710798
30
0.0000000000000278
10
3.7671659231973922
20
1.2503948279334776
30
0.0000000000000282
10
3.6578954956201599
20
1.3539599236776965
30
0.0000000000000286
10
3.6045667712351501
20
1.4348646423747391
30
0.0000000000000287
10
3.5801578541007166
20
1.4718952782512515
30
0.0000000000000288
41
1.0000000000000000
41
1.0000000000000000
41
1.0000000000000000
41
1.0000000000000000
41
1.0000000000000000
41
1.0000000000000000
41
1.0000000000000000
41
1.0000000000000000
41
1.0000000000000000
41
1.0000000000000000
41
1.0000000000000000
41
1.0000000000000000
41
1.0000000000000000
41
1.0000000000000000
41
1.0000000000000000
41
1.0000000000000000
41
1.0000000000000000
0
SPLINE
8
Cut
6
CONTINUOUS
62
5
370
0
100
AcDbEntity
100
AcDbSpline
70
0
71
3
72
12
73
8
74
0
40
0.0000000000000000
40
0.0000000000000000
40
0.0000000000000000
40
0.0000000000000000
40
0.2022995225968914
40
0.4045990451937867
40
0.6068985677906754
40
0.8091980903875703
40
1.0000000000000000
40
1.0000000000000000
40
1.0000000000000000
40
1.0000000000000000
10
3.5801578541006642
20
1.4718952782512231
30
0.0000000000000288
10
3.5677460191019295
20
1.4989494382347643
30
0.0000000000000289
10
3.5429223491044581
20
1.5530577582018494
30
0.0000000000000290
10
3.5444094464839369
20
1.6443590360089815
30
0.0000000000000290
10
3.5755316193000306
20
1.7283050645484288
30
0.0000000000000289
10
3.6328305074852429
20
1.7971192906235740
30
0.0000000000000288
10
3.6849665472047892
20
1.8219941437325391
30
0.0000000000000286
10
3.7102721175310318
20
1.8340677946674762
30
0.0000000000000286
41
1.0000000000000000
41
1.0000000000000000
41
1.0000000000000000
41
1.0000000000000000
41
1.0000000000000000
41
1.0000000000000000
41
1.0000000000000000
41
1.0000000000000000
0
CIRCLE
8
Cut
6
CONTINUOUS
62
5
370
0
100
AcDbEntity
100
AcDbCircle
10
6.1585347357233902
20
14.8304161738345943
30
0.0000000000000253
40
0.0967443386551715
0
SPLINE
8
Cut
6
CONTINUOUS
62
5
370
0
100
AcDbEntity
100
AcDbSpline
70
0
71
3
72
13
73
9
74
0
40
0.0000000000000000
40
0.0000000000000000
40
0.0000000000000000
40
0.0000000000000000
40
0.1686146002233598
40
0.3372292004467237
40
0.5058438006700841
40
0.6744584008934456
40
0.8430730011168071
40
1.0000000000000000
40
1.0000000000000000
40
1.0000000000000000
40
1.0000000000000000
10
1.9881762068374815
20
2.8245471201552443
30
0.0000000000000340
10
1.9813418624367432
20
2.7940604760287808
30
0.0000000000000340
10
1.9676731736352624
20
2.7330871877758547
30
0.0000000000000341
10
1.9101628846415053
20
2.6568697700514181
30
0.0000000000000342
10
1.8326116023638974
20
2.6030860741381807
30
0.0000000000000344
10
1.7413903248344189
20
2.5788028372357279
30
0.0000000000000347
10
1.6483252053902235
20
2.5842480745670202
30
0.0000000000000350
10
1.5945307072099022
20
2.6113531454159711
30
0.0000000000000351
10
1.5685991237224644
20
2.6244191174285114
30
0.0000000000000352
41
1.0000000000000000
41
1.0000000000000000
41
1.0000000000000000
41
1.0000000000000000
41
1.0000000000000000
41
1.0000000000000000
41
1.0000000000000000
41
1.0000000000000000
41
1.0000000000000000
0
LINE
330
1
100
AcDbEntity
8
Cut
6
CONTINUOUS
62
5
370
0
100
AcDbLine
10
1.5685991237224624
20
2.6244191174285092
30
0.0000000000000352
11
1.2556849578590228
21
2.8199495894548381
31
0.0000000000000362
0
SPLINE
8
Cut
6
CONTINUOUS
62
5
370
0
100
AcDbEntity
100
AcDbSpline
70
0
71
3
72
13
73
9
74
0
40
0.0000000000000000
40
0.0000000000000000
40
0.0000000000000000
40
0.0000000000000000
40
0.1763490699706432
40
0.3526981399412847
40
0.5290472099119289
40
0.7053962798825709
40
0.8817453498532134
40
1.0000000000000000
40
1.0000000000000000
40
1.0000000000000000
40
1.0000000000000000
10
1.2556849578590250
20
2.8199495894548425
30
0.0000000000000362
10
1.2127607652491217
20
2.8503594501187846
30
0.0000000000000364
10
1.1269123800293173
20
2.9111791714466815
30
0.0000000000000366
10
1.0244196888327231
20
3.0325458750058338
30
0.0000000000000370
10
0.9464789063637062
20
3.1701816641138607
30
0.0000000000000372
10
0.8983277542022092
20
3.3209197070823211
30
0.0000000000000374
10
0.8812945005582158
20
3.4611710050571936
30
0.0000000000000375
10
0.8885139240215629
20
3.5485785197133728
30
0.0000000000000375
10
0.8914118181675712
20
3.5836641087946886
30
0.0000000000000375
41
1.0000000000000000
41
1.0000000000000000
41
1.0000000000000000
41
1.0000000000000000
41
1.0000000000000000
41
1.0000000000000000
41
1.0000000000000000
41
1.0000000000000000
41
1.0000000000000000
0
LINE
330
1
100
AcDbEntity
8
Cut
6
CONTINUOUS
62
5
370
0
100
AcDbLine
10
0.8914118181675887
20
3.5836641087946886
30
0.0000000000000375
11
1.2430108078991162
21
6.4472080848940756
31
0.0000000000000374
0
SPLINE
8
Cut
6
CONTINUOUS
62
5
370
0
100
AcDbEntity
100
AcDbSpline
70
0
71
3
72
12
73
8
74
0
40
0.0000000000000000
40
0.0000000000000000
40
0.0000000000000000
40
0.0000000000000000
40
0.2153899106457235
40
0.4307798212914491
40
0.6461697319371726
40
0.8615596425828969
40
1.0000000000000000
40
1.0000000000000000
40
1.0000000000000000
40
1.0000000000000000
10
1.2430108078991073
20
6.4472080848940765
30
0.0000000000000374
10
1.2498426159333418
20
6.4776863850550255
30
0.0000000000000374
10
1.2635062320018080
20
6.5386429853769332
30
0.0000000000000373
10
1.3210545664931441
20
6.6149855625840139
30
0.0000000000000372
10
1.3984612758799804
20
6.6682936524632410
30
0.0000000000000370
10
1.4792953172745129
20
6.6912507218208042
30
0.0000000000000367
10
1.5302115849540832
20
6.6883092663036168
30
0.0000000000000366
10
1.5501331884237266
20
6.6871583863764839
30
0.0000000000000365
41
1.0000000000000000
41
1.0000000000000000
41
1.0000000000000000
41
1.0000000000000000
41
1.0000000000000000
41
1.0000000000000000
41
1.0000000000000000
41
1.0000000000000000
0
LINE
330
1
100
AcDbEntity
8
Cut
6
CONTINUOUS
62
5
370
0
100
AcDbLine
10
1.5501331884237266
20
6.6871583863764723
30
0.0000000000000365
11
2.1753591107174834
21
6.6103902960425192
31
0.0000000000000346
0
SPLINE
8
Cut
6
CONTINUOUS
62
5
370
0
100
AcDbEntity
100
AcDbSpline
70
0
71
3
72
12
73
8
74
0
40
0.0000000000000000
40
0.0000000000000000
40
0.0000000000000000
40
0.0000000000000000
40
0.2153899106457244
40
0.4307798212914496
40
0.6461697319371729
40
0.8615596425828976
40
0.9999999999999999
40
0.9999999999999999
40
0.9999999999999999
40
0.9999999999999999
10
2.1753591107174834
20
6.6103902960425360
30
0.0000000000000346
10
2.2058374108784391
20
6.6035584880083018
30
0.0000000000000345
10
2.2667940112003482
20
6.5898948719398334
30
0.0000000000000344
10
2.3431365884074200
20
6.5323465374484986
30
0.0000000000000341
10
2.3964446782866484
20
6.4549398280616614
30
0.0000000000000339
10
2.4194017476442120
20
6.3741057866671280
30
0.0000000000000338
10
2.4164602921270268
20
6.3231895189875598
30
0.0000000000000338
10
2.4153094121998917
20
6.3032679155179183
30
0.0000000000000338
41
1.0000000000000000
41
1.0000000000000000
41
1.0000000000000000
41
1.0000000000000000
41
1.0000000000000000
41
1.0000000000000000
41
1.0000000000000000
41
1.0000000000000000
0
LINE
330
1
100
AcDbEntity
8
Cut
6
CONTINUOUS
62
5
370
0
100
AcDbLine
10
2.4153094121998961
20
6.3032679155179183
30
0.0000000000000338
11
1.9881762068374793
21
2.8245471201552443
31
0.0000000000000340
0
SPLINE
8
Cut
6
CONTINUOUS
62
5
370
0
100
AcDbEntity
100
AcDbSpline
70
0
71
3
72
11
73
7
74
0
40
0.0000000000000000
40
0.0000000000000000
40
0.0000000000000000
40
0.0000000000000000
40
0.2850441342597713
40
0.5700882685195341
40
0.8551324027793008
40
1.0000000000000000
40
1.0000000000000000
40
1.0000000000000000
40
1.0000000000000000
10
5.7930252951915904
20
5.3060324930557297
30
0.0000000000000234
10
5.7851009077376858
20
5.2836502078806902
30
0.0000000000000234
10
5.7692521328298794
20
5.2388856375306103
30
0.0000000000000235
10
5.7117272964732697
20
5.1935494598639602
30
0.0000000000000236
10
5.6530203711246276
20
5.1780668283044591
30
0.0000000000000238
10
5.6180337617684932
20
5.1830547250163033
30
0.0000000000000239
10
5.6062443043957710
20
5.1847354993681485
30
0.0000000000000239
41
1.0000000000000000
41
1.0000000000000000
41
1.0000000000000000
41
1.0000000000000000
41
1.0000000000000000
41
1.0000000000000000
41
1.0000000000000000
0
LINE
330
1
100
AcDbEntity
8
Cut
6
CONTINUOUS
62
5
370
0
100
AcDbLine
10
5.6062443043957684
20
5.1847354993681352
30
0.0000000000000239
11
5.5677345563359291
21
5.1929209990065743
31
0.0000000000000240
0
SPLINE
8
Cut
6
CONTINUOUS
62
5
370
0
100
AcDbEntity
100
AcDbSpline
70
0
71
3
72
17
73
13
74
0
40
0.0000000000000000
40
0.0000000000000000
40
0.0000000000000000
40
0.0000000000000000
40
0.1007578492323025
40
0.2015156984646050
40
0.3022735476969076
40
0.4030313969292106
40
0.5037892461615135
40
0.6045470953938162
40
0.7053049446261177
40
0.8060627938584198
40
0.9068206430907226
40
1.0000000000000000
40
1.0000000000000000
40
1.0000000000000000
40
1.0000000000000000
10
5.5677345563359424
20
5.1929209990066338
30
0.0000000000000240
10
5.5345914680788706
20
5.1968348599193721
30
0.0000000000000241
10
5.4683052915647270
20
5.2046625817448451
30
0.0000000000000243
10
5.3705057046072540
20
5.1764189583567797
30
0.0000000000000246
10
5.2862653230060310
20
5.1213972723769903
30
0.0000000000000249
10
5.2233638657011330
20
5.0422819563499095
30
0.0000000000000250
10
5.1882081473498101
20
4.9476680513445928
30
0.0000000000000251
10
5.1842595070944641
20
4.8468093355153208
30
0.0000000000000251
10
5.2118834001979533
20
4.7495896018312527
30
0.0000000000000250
10
5.2684747261019336
20
4.6663747076483340
30
0.0000000000000248
10
5.3458858333294463
20
4.6043496501394667
30
0.0000000000000245
10
5.4072725901447116
20
4.5857172031025950
30
0.0000000000000243
10
5.4367665621194172
20
4.5767650300405860
30
0.0000000000000242
41
1.0000000000000000
41
1.0000000000000000
41
1.0000000000000000
41
1.0000000000000000
41
1.0000000000000000
41
1.0000000000000000
41
1.0000000000000000
41
1.0000000000000000
41
1.0000000000000000
41
1.0000000000000000
41
1.0000000000000000
41
1.0000000000000000
41
1.0000000000000000
0
LINE
330
1
100
AcDbEntity
8
Cut
6
CONTINUOUS
62
5
370
0
100
AcDbLine
10
5.4367665621194119
20
4.5767650300405647
30
0.0000000000000242
11
5.4752763101799751
21
4.5685795304020118
31
0.0000000000000241
0
SPLINE
8
Cut
6
CONTINUOUS
62
5
370
0
100
AcDbEntity
100
AcDbSpline
70
0
71
3
72
11
73
7
74
0
40
0.0000000000000000
40
0.0000000000000000
40
0.0000000000000000
40
0.0000000000000000
40
0.2850441342602120
40
0.5700882685204222
40
0.8551324027806358
40
1.0000000000000000
40
1.0000000000000000
40
1.0000000000000000
40
1.0000000000000000
10
5.4752763101799617
20
4.5685795304019479
30
0.0000000000000241
10
5.4976585953549906
20
4.5606551429480273
30
0.0000000000000241
10
5.5424231657050500
20
4.5448063680401978
30
0.0000000000000239
10
5.5877593433716504
20
4.4872815316835659
30
0.0000000000000238
10
5.6032419749310494
20
4.4285746063350526
30
0.0000000000000237
10
5.5982540782192522
20
4.3935879969790497
30
0.0000000000000237
10
5.5965733038674346
20
4.3817985396064572
30
0.0000000000000237
41
1.0000000000000000
41
1.0000000000000000
41
1.0000000000000000
41
1.0000000000000000
41
1.0000000000000000
41
1.0000000000000000
41
1.0000000000000000
0
LINE
330
1
100
AcDbEntity
8
Cut
6
CONTINUOUS
62
5
370
0
100
AcDbLine
10
5.5965733038674736
20
4.3817985396064483
30
0.0000000000000237
11
5.4371695296878810
21
3.6318627440366695
31
0.0000000000000239
0
SPLINE
8
Cut
6
CONTINUOUS
62
5
370
0
100
AcDbEntity
100
AcDbSpline
70
0
71
3
72
10
73
6
74
0
40
0.0000000000000000
40
0.0000000000000000
40
0.0000000000000000
40
0.0000000000000000
40
0.3504252519921349
40
0.7008505039842706
40
1.0000000000000000
40
1.0000000000000000
40
1.0000000000000000
40
1.0000000000000000
10
5.4371695296878810
20
3.6318627440366695
30
0.0000000000000239
10
5.4279748464333730
20
3.6036365908852197
30
0.0000000000000240
10
5.4095854799243606
20
3.5471842845823209
30
0.0000000000000240
10
5.3503265683454790
20
3.4828117241740379
30
0.0000000000000242
10
5.3006592275989490
20
3.4595174885333027
30
0.0000000000000243
10
5.2777858631426922
20
3.4487897641669063
30
0.0000000000000244
41
1.0000000000000000
41
1.0000000000000000
41
1.0000000000000000
41
1.0000000000000000
41
1.0000000000000000
41
1.0000000000000000
0
LINE
330
1
100
AcDbEntity
8
Cut
6
CONTINUOUS
62
5
370
0
100
AcDbLine
10
5.2777858631426824
20
3.4487897641669196
30
0.0000000000000244
11
2.9600575600603261
21
2.6091330875026681
31
0.0000000000000310
0
SPLINE
8
Cut
6
CONTINUOUS
62
5
370
0
100
AcDbEntity
100
AcDbSpline
70
0
71
3
72
14
73
10
74
0
40
0.0000000000000000
40
0.0000000000000000
40
0.0000000000000000
40
0.0000000000000000
40
0.1658668947755813
40
0.3317337895511623
40
0.4976006843267431
40
0.6634675791023247
40
0.8293344738779076
40
0.9952013686534897
40
0.9999999999999999
40
0.9999999999999999
40
0.9999999999999999
40
0.9999999999999999
10
2.9600575600603127
20
2.6091330875027032
30
0.0000000000000310
10
2.9297816612761292
20
2.6014268762780222
30
0.0000000000000311
10
2.8692298637077558
20
2.5860144538286645
30
0.0000000000000313
10
2.7752025703650411
20
2.6028002160987365
30
0.0000000000000316
10
2.6922656712071689
20
2.6475871670458488
30
0.0000000000000319
10
2.6288526384218400
20
2.7180063684283162
30
0.0000000000000321
10
2.5924474461759912
20
2.8052138950316343
30
0.0000000000000322
10
2.5887660905604442
20
2.8693290923952337
30
0.0000000000000322
10
2.5925452533277609
20
2.9009415066318005
30
0.0000000000000322
10
2.5926515126838887
20
2.9018303582079850
30
0.0000000000000322
41
1.0000000000000000
41
1.0000000000000000
41
1.0000000000000000
41
1.0000000000000000
41
1.0000000000000000
41
1.0000000000000000
41
1.0000000000000000
41
1.0000000000000000
41
1.0000000000000000
41
1.0000000000000000
0
LINE
330
1
100
AcDbEntity
8
Cut
6
CONTINUOUS
62
5
370
0
100
AcDbLine
10
2.5926515126838976
20
2.9018303582079850
30
0.0000000000000322
11
3.1549948950182003
21
7.4817496754173671
31
0.0000000000000320
0
SPLINE
8
Cut
6
CONTINUOUS
62
5
370
0
100
AcDbEntity
100
AcDbSpline
70
0
71
3
72
12
73
8
74
0
40
0.0000000000000000
40
0.0000000000000000
40
0.0000000000000000
40
0.0000000000000000
40
0.2153899106457251
40
0.4307798212914498
40
0.6461697319371756
40
0.8615596425829011
40
1.0000000000000000
40
1.0000000000000000
40
1.0000000000000000
40
1.0000000000000000
10
3.1549948950181830
20
7.4817496754173689
30
0.0000000000000320
10
3.1618267030524212
20
7.5122279755783232
30
0.0000000000000320
10
3.1754903191208919
20
7.5731845759002301
30
0.0000000000000319
10
3.2330386536122218
20
7.6495271531073055
30
0.0000000000000318
10
3.3104453629990602
20
7.7028352429865343
30
0.0000000000000316
10
3.3912794043935923
20
7.7257923123440975
30
0.0000000000000313
10
3.4421956720731606
20
7.7228508568269110
30
0.0000000000000312
10
3.4621172755428020
20
7.7216999768997798
30
0.0000000000000311
41
1.0000000000000000
41
1.0000000000000000
41
1.0000000000000000
41
1.0000000000000000
41
1.0000000000000000
41
1.0000000000000000
41
1.0000000000000000
41
1.0000000000000000
0
LINE
330
1
100
AcDbEntity
8
Cut
6
CONTINUOUS
62
5
370
0
100
AcDbLine
10
3.4621172755428065
20
7.7216999768997994
30
0.0000000000000311
11
5.9356325137204387
21
7.4179904944935187
31
0.0000000000000236
0
SPLINE
8
Cut
6
CONTINUOUS
62
5
370
0
100
AcDbEntity
100
AcDbSpline
70
0
71
3
72
12
73
8
74
0
40
0.0000000000000000
40
0.0000000000000000
40
0.0000000000000000
40
0.0000000000000000
40
0.2040986423023976
40
0.4081972846047953
40
0.6122959269071935
40
0.8163945692095903
40
1.0000000000000000
40
1.0000000000000000
40
1.0000000000000000
40
1.0000000000000000
10
5.9356325137204351
20
7.4179904944934982
30
0.0000000000000236
10
5.9661095136483011
20
7.4111591437116910
30
0.0000000000000235
10
6.0270635135040331
20
7.3974964421480802
30
0.0000000000000234
10
6.1034255942074385
20
7.3399412488703177
30
0.0000000000000231
10
6.1566595708006178
20
7.2625606028719218
30
0.0000000000000229
10
6.1821155218432322
20
7.1737761525250541
30
0.0000000000000228
10
6.1749894242489169
20
7.1149934452886923
30
0.0000000000000228
10
6.1716147106220465
20
7.0871556560205482
30
0.0000000000000228
41
1.0000000000000000
41
1.0000000000000000
41
1.0000000000000000
41
1.0000000000000000
41
1.0000000000000000
41
1.0000000000000000
41
1.0000000000000000
41
1.0000000000000000
0
LINE
330
1
100
AcDbEntity
8
Cut
6
CONTINUOUS
62
5
370
0
100
AcDbLine
10
6.1716147106220518
20
7.0871556560205464
30
0.0000000000000228
11
5.7930252951916241
21
5.3060324930557226
31
0.0000000000000234
0
SPLINE
8
Cut
6
CONTINUOUS
62
5
370
0
100
AcDbEntity
100
AcDbSpline
70
0
71
3
72
14
73
10
74
0
40
0.0000000000000000
40
0.0000000000000000
40
0.0000000000000000
40
0.0000000000000000
40
0.1516925850501554
40
0.3033851701003114
40
0.4550777551504664
40
0.6067703402006213
40
0.7584629252507776
40
0.9101555103009328
40
1.0000000000000000
40
1.0000000000000000
40
1.0000000000000000
40
1.0000000000000000
10
5.9041331664327332
20
8.8613648015079036
30
0.0000000000000242
10
5.9174213327620473
20
8.8330908278002092
30
0.0000000000000241
10
5.9439976654206745
20
8.7765428803848202
30
0.0000000000000240
10
5.9452812760609905
20
8.6810316522173263
30
0.0000000000000240
10
5.9169722119315695
20
8.5911489296666428
30
0.0000000000000241
10
5.8598047168959448
20
8.5154868004235684
30
0.0000000000000242
10
5.7810435607685591
20
8.4635777871194016
30
0.0000000000000244
10
5.7015021219320268
20
8.4424526817013028
30
0.0000000000000247
10
5.6521851555808587
20
8.4455407328484817
30
0.0000000000000248
10
5.6338407350403390
20
8.4466893945177954
30
0.0000000000000249
41
1.0000000000000000
41
1.0000000000000000
41
1.0000000000000000
41
1.0000000000000000
41
1.0000000000000000
41
1.0000000000000000
41
1.0000000000000000
41
1.0000000000000000
41
1.0000000000000000
41
1.0000000000000000
0
LINE
330
1
100
AcDbEntity
8
Cut
6
CONTINUOUS
62
5
370
0
100
AcDbLine
10
5.6338407350403390
20
8.4466893945177990
30
0.0000000000000249
11
1.8236195102384507
21
8.9145257345480093
31
0.0000000000000364
0
SPLINE
8
Cut
6
CONTINUOUS
62
5
370
0
100
AcDbEntity
100
AcDbSpline
70
0
71
3
72
12
73
8
74
0
40
0.0000000000000000
40
0.0000000000000000
40
0.0000000000000000
40
0.0000000000000000
40
0.2153899106457183
40
0.4307798212914369
40
0.6461697319371560
40
0.8615596425828745
40
1.0000000000000000
40
1.0000000000000000
40
1.0000000000000000
40
1.0000000000000000
10
1.8236195102384507
20
8.9145257345479934
30
0.0000000000000364
10
1.7931412100774928
20
8.9213575425822285
30
0.0000000000000365
10
1.7321846097555840
20
8.9350211586506969
30
0.0000000000000367
10
1.6558420325485073
20
8.9925694931420299
30
0.0000000000000369
10
1.6025339426692748
20
9.0699762025288670
30
0.0000000000000371
10
1.5795768733117068
20
9.1508102439234076
30
0.0000000000000372
10
1.5825183288288920
20
9.2017265116029812
30
0.0000000000000372
10
1.5836692087560249
20
9.2216481150726288
30
0.0000000000000372
41
1.0000000000000000
41
1.0000000000000000
41
1.0000000000000000
41
1.0000000000000000
41
1.0000000000000000
41
1.0000000000000000
41
1.0000000000000000
41
1.0000000000000000
0
LINE
330
1
100
AcDbEntity
8
Cut
6
CONTINUOUS
62
5
370
0
100
AcDbLine
10
1.5836692087560140
20
9.2216481150726306
30
0.0000000000000372
11
1.6578127540202667
21
9.8254988331028841
31
0.0000000000000372
0
SPLINE
8
Cut
6
CONTINUOUS
62
5
370
0
100
AcDbEntity
100
AcDbSpline
70
0
71
3
72
9
73
5
74
0
40
0.0000000000000000
40
0.0000000000000000
40
0.0000000000000000
40
0.0000000000000000
40
0.6275125036147998
40
0.9999999999999999
40
0.9999999999999999
40
0.9999999999999999
40
0.9999999999999999
10
1.6578127540202556
20
9.8254988331028841
30
0.0000000000000372
10
1.6641598062524792
20
9.8547588186068005
30
0.0000000000000372
10
1.6742744289821696
20
9.9013873484533992
30
0.0000000000000372
10
1.7023392425119084
20
9.9395369181128128
30
0.0000000000000371
10
1.7127930346401192
20
9.9537471558034198
30
0.0000000000000371
41
1.0000000000000000
41
1.0000000000000000
41
1.0000000000000000
41
1.0000000000000000
41
1.0000000000000000
0
LINE
330
1
100
AcDbEntity
8
Cut
6
CONTINUOUS
62
5
370
0
100
AcDbLine
10
1.7127930346401214
20
9.9537471558034234
30
0.0000000000000371
11
3.5153193668184590
21
12.1474137616562565
31
0.0000000000000324
0
SPLINE
8
Cut
6
CONTINUOUS
62
5
370
0
100
AcDbEntity
100
AcDbSpline
70
0
71
3
72
13
73
9
74
0
40
0.0000000000000000
40
0.0000000000000000
40
0.0000000000000000
40
0.0000000000000000
40
0.1765877609442899
40
0.3531755218885790
40
0.5297632828328693
40
0.7063510437771587
40
0.8829388047214490
40
1.0000000000000000
40
1.0000000000000000
40
1.0000000000000000
40
1.0000000000000000
10
3.5153193668184657
20
12.1474137616562530
30
0.0000000000000324
10
3.5374287656117041
20
12.1694885749795052
30
0.0000000000000323
10
3.5816475631981697
20
12.2136382016260079
30
0.0000000000000322
10
3.6710556457418084
20
12.2471614540039493
30
0.0000000000000319
10
3.7653329701740628
20
12.2509962768637557
30
0.0000000000000316
10
3.8554380957693133
20
12.2226277921511421
30
0.0000000000000314
10
3.9239189281736406
20
12.1730529154732672
30
0.0000000000000311
10
3.9532580652694911
20
12.1305386945853009
30
0.0000000000000310
10
3.9649539163328091
20
12.1135906843573853
30
0.0000000000000310
41
1.0000000000000000
41
1.0000000000000000
41
1.0000000000000000
41
1.0000000000000000
41
1.0000000000000000
41
1.0000000000000000
41
1.0000000000000000
41
1.0000000000000000
41
1.0000000000000000
0
LINE
330
1
100
AcDbEntity
8
Cut
6
CONTINUOUS
62
5
370
0
100
AcDbLine
10
3.9649539163328069
20
12.1135906843573853
30
0.0000000000000310
11
5.9041331664327279
21
8.8613648015078983
31
0.0000000000000242
0
SPLINE
8
Cut
6
CONTINUOUS
62
5
370
0
100
AcDbEntity
100
AcDbSpline
70
0
71
3
72
11
73
7
74
0
40
0.0000000000000000
40
0.0000000000000000
40
0.0000000000000000
40
0.0000000000000000
40
0.3054964550695276
40
0.6109929101390549
40
0.9164893652085846
40
1.0000000000000000
40
1.0000000000000000
40
1.0000000000000000
40
1.0000000000000000
10
3.4933892616092641
20
12.9809626649050678
30
0.0000000000000327
10
3.5032658846980342
20
12.9513093095753042
30
0.0000000000000326
10
3.5230191308755807
20
12.8920025989157807
30
0.0000000000000326
10
3.5129152180638732
20
12.7971807658800429
30
0.0000000000000326
10
3.4839852720750271
20
12.7315594050472090
30
0.0000000000000326
10
3.4598286692052831
20
12.7003960866135746
30
0.0000000000000327
10
3.4546428170893795
20
12.6937060581476935
30
0.0000000000000327
41
1.0000000000000000
41
1.0000000000000000
41
1.0000000000000000
41
1.0000000000000000
41
1.0000000000000000
41
1.0000000000000000
41
1.0000000000000000
0
LINE
330
1
100
AcDbEntity
8
Cut
6
CONTINUOUS
62
5
370
0
100
AcDbLine
10
3.4546428170893861
20
12.6937060581476864
30
0.0000000000000327
11
2.3582185303663805
21
11.3593625311248818
31
0.0000000000000356
0
SPLINE
8
Cut
6
CONTINUOUS
62
5
370
0
100
AcDbEntity
100
AcDbSpline
70
0
71
3
72
15
73
11
74
0
40
0.0000000000000000
40
0.0000000000000000
40
0.0000000000000000
40
0.0000000000000000
40
0.1313635461025601
40
0.2627270922051207
40
0.3940906383076810
40
0.5254541844102415
40
0.6568177305128020
40
0.7881812766153625
40
0.9195448227179230
40
1.0000000000000000
40
1.0000000000000000
40
1.0000000000000000
40
1.0000000000000000
10
2.3582185303663761
20
11.3593625311248871
30
0.0000000000000356
10
2.3361106293968708
20
11.3372885557445748
30
0.0000000000000356
10
2.2918948274578579
20
11.2931406049839484
30
0.0000000000000358
10
2.2024642775582906
20
11.2596047834619011
30
0.0000000000000360
10
2.1082723290785643
20
11.2558177233496934
30
0.0000000000000363
10
2.0178481670291255
20
11.2840077262160019
30
0.0000000000000366
10
1.9418892179088401
20
11.3405243773343898
30
0.0000000000000368
10
1.8894250061125184
20
11.4189630301696621
30
0.0000000000000370
10
1.8675713432825281
20
11.4989730987754921
30
0.0000000000000371
10
1.8706026496122405
20
11.5489340347407303
30
0.0000000000000371
10
1.8717540317198120
20
11.5679107139314681
30
0.0000000000000371
41
1.0000000000000000
41
1.0000000000000000
41
1.0000000000000000
41
1.0000000000000000
41
1.0000000000000000
41
1.0000000000000000
41
1.0000000000000000
41
1.0000000000000000
41
1.0000000000000000
41
1.0000000000000000
41
1.0000000000000000
0
LINE
330
1
100
AcDbEntity
8
Cut
6
CONTINUOUS
62
5
370
0
100
AcDbLine
10
1.8717540317198142
20
11.5679107139314734
30
0.0000000000000371
11
2.2368432734835428
21
14.5413239759817081
31
0.0000000000000369
0
SPLINE
8
Cut
6
CONTINUOUS
62
5
370
0
100
AcDbEntity
100
AcDbSpline
70
0
71
3
72
15
73
11
74
0
40
0.0000000000000000
40
0.0000000000000000
40
0.0000000000000000
40
0.0000000000000000
40
0.1301624538783768
40
0.2603249077567538
40
0.3904873616351305
40
0.5206498155135075
40
0.6508122693918844
40
0.7809747232702612
40
0.9111371771486384
40
1.0000000000000000
40
1.0000000000000000
40
1.0000000000000000
40
1.0000000000000000
10
2.2368432734835406
20
14.5413239759817081
30
0.0000000000000369
10
2.2436765594142303
20
14.5718088267867074
30
0.0000000000000369
10
2.2573431312756127
20
14.6327785283967096
30
0.0000000000000369
10
2.3148692973201088
20
14.7090228459430890
30
0.0000000000000367
10
2.3923602468049197
20
14.7627043225329579
30
0.0000000000000365
10
2.4838069784548584
20
14.7873695369069278
30
0.0000000000000363
10
2.5782317563108554
20
14.7803698202550109
30
0.0000000000000360
10
2.6645417345474507
20
14.7422613312616075
30
0.0000000000000357
10
2.7276006107958373
20
14.6849490397568019
30
0.0000000000000355
10
2.7521101990741959
20
14.6387686741589498
30
0.0000000000000354
10
2.7620542166499717
20
14.6200323999324997
30
0.0000000000000354
41
1.0000000000000000
41
1.0000000000000000
41
1.0000000000000000
41
1.0000000000000000
41
1.0000000000000000
41
1.0000000000000000
41
1.0000000000000000
41
1.0000000000000000
41
1.0000000000000000
41
1.0000000000000000
41
1.0000000000000000
0
LINE
330
1
100
AcDbEntity
8
Cut
6
CONTINUOUS
62
5
370
0
100
AcDbLine
10
2.7620542166499717
20
14.6200323999325015
30
0.0000000000000354
11
3.4933892616092663
21
12.9809626649050696
31
0.0000000000000327
0
SPLINE
8
Cut
6
CONTINUOUS
62
5
370
0
100
AcDbEntity
100
AcDbSpline
70
1
71
3
72
16
73
12
74
0
40
0.0000000000000000
40
0.0000000000000000
40
0.0000000000000000
40
0.0000000000000000
40
0.1135047903499507
40
0.2270095806999033
40
0.3405143710498552
40
0.4540191613998082
40
0.5675239517497597
40
0.6810287420997110
40
0.7945335324496630
40
0.9080383227996138
40
1.0000000000000000
40
1.0000000000000000
40
1.0000000000000000
40
1.0000000000000000
10
2.7078332738779247
20
8.3101361713370778
30
0.0000000000000336
10
2.7096950824315269
20
8.3248057527868831
30
0.0000000000000336
10
2.7242222588705980
20
8.3530212779809094
30
0.0000000000000335
10
2.7684254732577966
20
8.3705300632772826
30
0.0000000000000334
10
2.8132962717560268
20
8.3548894906165945
30
0.0000000000000333
10
2.8369810077726165
20
8.3136779729922043
30
0.0000000000000332
10
2.8279059416105539
20
8.2670196502701518
30
0.0000000000000332
10
2.7905102749280637
20
8.2377010523433327
30
0.0000000000000333
10
2.7430196536364857
20
8.2399643715994699
30
0.0000000000000334
10
2.7108769794888210
20
8.2708719969947921
30
0.0000000000000336
10
2.7063248350121554
20
8.2982508640316119
30
0.0000000000000336
10
2.7078332738779247
20
8.3101361713370778
30
0.0000000000000336
41
1.0000000000000000
41
1.0000000000000000
41
1.0000000000000000
41
1.0000000000000000
41
1.0000000000000000
41
1.0000000000000000
41
1.0000000000000000
41
1.0000000000000000
41
1.0000000000000000
41
1.0000000000000000
41
1.0000000000000000
41
1.0000000000000000
0
SPLINE
8
Cut
6
CONTINUOUS
62
5
370
0
100
AcDbEntity
100
AcDbSpline
70
1
71
3
72
16
73
12
74
0
40
0.0000000000000000
40
0.0000000000000000
40
0.0000000000000000
40
0.0000000000000000
40
0.1135047903499513
40
0.2270095806999030
40
0.3405143710498548
40
0.4540191613998066
40
0.5675239517497586
40
0.6810287420997108
40
0.7945335324496630
40
0.9080383227996160
40
1.0000000000000000
40
1.0000000000000000
40
1.0000000000000000
40
1.0000000000000000
10
4.9938155522644809
20
8.0294528410535673
30
0.0000000000000266
10
4.9956773608180818
20
8.0441224225033725
30
0.0000000000000266
10
5.0102045372571551
20
8.0723379476973989
30
0.0000000000000266
10
5.0544077516443551
20
8.0898467329937702
30
0.0000000000000265
10
5.0992785501425804
20
8.0742061603330839
30
0.0000000000000263
10
5.1229632861591741
20
8.0329946427086938
30
0.0000000000000263
10
5.1138882199971105
20
7.9863363199866431
30
0.0000000000000263
10
5.0764925533146181
20
7.9570177220598231
30
0.0000000000000264
10
5.0290019320230401
20
7.9592810413159594
30
0.0000000000000265
10
4.9968592578753821
20
7.9901886667112860
30
0.0000000000000266
10
4.9923071133987102
20
8.0175675337480996
30
0.0000000000000266
10
4.9938155522644809
20
8.0294528410535673
30
0.0000000000000266
41
1.0000000000000000
41
1.0000000000000000
41
1.0000000000000000
41
1.0000000000000000
41
1.0000000000000000
41
1.0000000000000000
41
1.0000000000000000
41
1.0000000000000000
41
1.0000000000000000
41
1.0000000000000000
41
1.0000000000000000
41
1.0000000000000000
0
SPLINE
8
Cut
6
CONTINUOUS
62
5
370
0
100
AcDbEntity
100
AcDbSpline
70
0
71
3
72
14
73
10
74
0
40
0.0000000000000000
40
0.0000000000000000
40
0.0000000000000000
40
0.0000000000000000
40
0.1641012515389118
40
0.3282025030778241
40
0.4923037546167349
40
0.6564050061556467
40
0.8205062576945585
40
0.9846075092334698
40
1.0000000000000000
40
1.0000000000000000
40
1.0000000000000000
40
1.0000000000000000
10
3.5065911679037387
20
18.3232804813837156
30
0.0000000000000343
10
3.4764909522542680
20
18.3149145648138543
30
0.0000000000000344
10
3.4162905209553251
20
18.2981827316741388
30
0.0000000000000346
10
3.3219178474235909
20
18.3129099649583118
30
0.0000000000000349
10
3.2380261291370043
20
18.3558739240598392
30
0.0000000000000351
10
3.1730746043456564
20
18.4248910262730163
30
0.0000000000000353
10
3.1348283251058024
20
18.5112810645810519
30
0.0000000000000355
10
3.1294392240005782
20
18.5773504322546437
30
0.0000000000000355
10
3.1332214735890696
20
18.6109808141803157
30
0.0000000000000355
10
3.1335458205056801
20
18.6138647884995159
30
0.0000000000000355
41
1.0000000000000000
41
1.0000000000000000
41
1.0000000000000000
41
1.0000000000000000
41
1.0000000000000000
41
1.0000000000000000
41
1.0000000000000000
41
1.0000000000000000
41
1.0000000000000000
41
1.0000000000000000
0
LINE
330
1
100
AcDbEntity
8
Cut
6
CONTINUOUS
62
5
370
0
100
AcDbLine
10
3.1335458205056650
20
18.6138647884995159
30
0.0000000000000355
11
3.4871345737906796
21
21.4936140882883038
31
0.0000000000000354
0
SPLINE
8
Cut
6
CONTINUOUS
62
5
370
0
100
AcDbEntity
100
AcDbSpline
70
0
71
3
72
12
73
8
74
0
40
0.0000000000000000
40
0.0000000000000000
40
0.0000000000000000
40
0.0000000000000000
40
0.2027692461287155
40
0.4055384922574330
40
0.6083077383861485
40
0.8110769845148647
40
1.0000000000000000
40
1.0000000000000000
40
1.0000000000000000
40
1.0000000000000000
10
3.4871345737906974
20
21.4936140882883002
30
0.0000000000000354
10
3.4939658558336273
20
21.5240909497691639
30
0.0000000000000353
10
3.5076284199194827
20
21.5850446727308878
30
0.0000000000000353
10
3.5651846442804209
20
21.6614088301393437
30
0.0000000000000352
10
3.6425613721627514
20
21.7146349152533276
30
0.0000000000000350
10
3.7323437165262128
20
21.7404016944093712
30
0.0000000000000347
10
3.7920974195812729
20
21.7326779672169934
30
0.0000000000000345
10
3.8209181313335372
20
21.7289526196036498
30
0.0000000000000344
41
1.0000000000000000
41
1.0000000000000000
41
1.0000000000000000
41
1.0000000000000000
41
1.0000000000000000
41
1.0000000000000000
41
1.0000000000000000
41
1.0000000000000000
0
LINE
330
1
100
AcDbEntity
8
Cut
6
CONTINUOUS
62
5
370
0
100
AcDbLine
10
3.8209181313335483
20
21.7289526196036888
30
0.0000000000000344
11
8.3083493769769881
21
20.7236326478334796
31
0.0000000000000207
0
SPLINE
8
Cut
6
CONTINUOUS
62
5
370
0
100
AcDbEntity
100
AcDbSpline
70
0
71
3
72
15
73
11
74
0
40
0.0000000000000000
40
0.0000000000000000
40
0.0000000000000000
40
0.0000000000000000
40
0.1326067341140617
40
0.2652134682281230
40
0.3978202023421845
40
0.5304269364562448
40
0.6630336705703063
40
0.7956404046843678
40
0.9282471387984292
40
1.0000000000000000
40
1.0000000000000000
40
1.0000000000000000
40
1.0000000000000000
10
8.3083493769769845
20
20.7236326478334547
30
0.0000000000000207
10
8.3380172277162909
20
20.7138429591648858
30
0.0000000000000206
10
8.3973529291949092
20
20.6942635818277516
30
0.0000000000000204
10
8.4675888124020204
20
20.6295378776002387
30
0.0000000000000202
10
8.5134125674474692
20
20.5471573235530158
30
0.0000000000000200
10
8.5289924372738000
20
20.4537291093916025
30
0.0000000000000199
10
8.5127640745866522
20
20.3604590003051733
30
0.0000000000000200
10
8.4663871014076637
20
20.2782526880758454
30
0.0000000000000201
10
8.4064684956998512
20
20.2242894011626184
30
0.0000000000000202
10
8.3629063179536161
20
20.2046170014298880
30
0.0000000000000204
10
8.3476111668322019
20
20.1977098094023049
30
0.0000000000000204
41
1.0000000000000000
41
1.0000000000000000
41
1.0000000000000000
41
1.0000000000000000
41
1.0000000000000000
41
1.0000000000000000
41
1.0000000000000000
41
1.0000000000000000
41
1.0000000000000000
41
1.0000000000000000
41
1.0000000000000000
0
LINE
330
1
100
AcDbEntity
8
Cut
6
CONTINUOUS
62
5
370
0
100
AcDbLine
10
8.3476111668321806
20
20.1977098094023546
30
0.0000000000000204
11
3.5065911679037365
21
18.3232804813837191
31
0.0000000000000343
0
SPLINE
8
Cut
6
CONTINUOUS
62
5
370
0
100
AcDbEntity
100
AcDbSpline
70
0
71
3
72
14
73
10
74
0
40
0.0000000000000000
40
0.0000000000000000
40
0.0000000000000000
40
0.0000000000000000
40
0.1650741140984812
40
0.3301482281969623
40
0.4952223422954455
40
0.6602964563939259
40
0.8253705704924077
40
0.9904446845908886
40
1.0000000000000000
40
1.0000000000000000
40
1.0000000000000000
40
1.0000000000000000
10
3.7761110966990015
20
22.3441802431121879
30
0.0000000000000348
10
3.7538368419786803
20
22.3523416308043075
30
0.0000000000000348
10
3.7092883325380348
20
22.3686644061885573
30
0.0000000000000350
10
3.6642862785212791
20
22.4267969239660943
30
0.0000000000000351
10
3.6476727415472747
20
22.4967770918920777
30
0.0000000000000352
10
3.6633860760250609
20
22.5675779790590347
30
0.0000000000000352
10
3.7080142737383386
20
22.6243593335114888
30
0.0000000000000350
10
3.7528118988059163
20
22.6464347179315588
30
0.0000000000000349
10
3.7769187412623793
20
22.6516957773309073
30
0.0000000000000348
10
3.7782378115006483
20
22.6519836502403500
30
0.0000000000000348
41
1.0000000000000000
41
1.0000000000000000
41
1.0000000000000000
41
1.0000000000000000
41
1.0000000000000000
41
1.0000000000000000
41
1.0000000000000000
41
1.0000000000000000
41
1.0000000000000000
41
1.0000000000000000
0
LINE
330
1
100
AcDbEntity
8
Cut
6
CONTINUOUS
62
5
370
0
100
AcDbLine
10
3.7782378115006416
20
22.6519836502403784
30
0.0000000000000348
11
6.2471245807127733
21
23.1693686434589132
31
0.0000000000000276
0
SPLINE
8
Cut
6
CONTINUOUS
62
5
370
0
100
AcDbEntity
100
AcDbSpline
70
0
71
3
72
12
73
8
74
0
40
0.0000000000000000
40
0.0000000000000000
40
0.0000000000000000
40
0.0000000000000000
40
0.2419090460150008
40
0.4838180920300020
40
0.7257271380450003
40
0.9676361840600035
40
1.0000000000000000
40
1.0000000000000000
40
1.0000000000000000
40
1.0000000000000000
10
6.2471245807127698
20
23.1693686434589381
30
0.0000000000000276
10
6.2754780777566799
20
23.1784467080449872
30
0.0000000000000275
10
6.3321850718444974
20
23.1966028372170996
30
0.0000000000000274
10
6.3985201904001263
20
23.2592409680315093
30
0.0000000000000272
10
6.4398507927531492
20
23.3389160550266119
30
0.0000000000000271
10
6.4478202119406154
20
23.4029979408687652
30
0.0000000000000271
10
6.4448310939216382
20
23.4362607047133480
30
0.0000000000000271
10
6.4444783821560661
20
23.4401856645473217
30
0.0000000000000271
41
1.0000000000000000
41
1.0000000000000000
41
1.0000000000000000
41
1.0000000000000000
41
1.0000000000000000
41
1.0000000000000000
41
1.0000000000000000
41
1.0000000000000000
0
LINE
330
1
100
AcDbEntity
8
Cut
6
CONTINUOUS
62
5
370
0
100
AcDbLine
10
6.4444783821560581
20
23.4401856645473252
30
0.0000000000000271
11
6.3061144647616310
21
24.7566304019520089
31
0.0000000000000279
0
SPLINE
8
Cut
6
CONTINUOUS
62
5
370
0
100
AcDbEntity
100
AcDbSpline
70
0
71
3
72
11
73
7
74
0
40
0.0000000000000000
40
0.0000000000000000
40
0.0000000000000000
40
0.0000000000000000
40
0.3030593694578964
40
0.6061187389157924
40
0.9091781083736896
40
0.9999999999999999
40
0.9999999999999999
40
0.9999999999999999
40
0.9999999999999999
10
6.3061144647616292
20
24.7566304019520089
30
0.0000000000000279
10
6.3067347122676791
20
24.7803597893922110
30
0.0000000000000279
10
6.3079752072797781
20
24.8278185642726115
30
0.0000000000000279
10
6.3486717233005896
20
24.8888050002746155
30
0.0000000000000278
10
6.3954858115526365
20
24.9186676956495710
30
0.0000000000000277
10
6.4249856294095187
20
24.9258464480788078
30
0.0000000000000276
10
6.4317877536157280
20
24.9275017384913191
30
0.0000000000000276
41
1.0000000000000000
41
1.0000000000000000
41
1.0000000000000000
41
1.0000000000000000
41
1.0000000000000000
41
1.0000000000000000
41
1.0000000000000000
0
LINE
330
1
100
AcDbEntity
8
Cut
6
CONTINUOUS
62
5
370
0
100
AcDbLine
10
6.4317877536157271
20
24.9275017384913262
30
0.0000000000000276
11
9.0293986066094938
21
25.4480719730570257
31
0.0000000000000200
0
SPLINE
8
Cut
6
CONTINUOUS
62
5
370
0
100
AcDbEntity
100
AcDbSpline
70
0
71
3
72
11
73
7
74
0
40
0.0000000000000000
40
0.0000000000000000
40
0.0000000000000000
40
0.0000000000000000
40
0.2691302063976150
40
0.5382604127952302
40
0.8073906191928475
40
1.0000000000000000
40
1.0000000000000000
40
1.0000000000000000
40
1.0000000000000000
10
9.0293986066094902
20
25.4480719730570399
30
0.0000000000000200
10
9.0530940554503658
20
25.4496599627637963
30
0.0000000000000199
10
9.1004849531321170
20
25.4528359421772983
30
0.0000000000000198
10
9.1648227908905771
20
25.4179770546448616
30
0.0000000000000196
10
9.2056451734346094
20
25.3662314412590462
30
0.0000000000000194
10
9.2136298457696331
20
25.3266386617117014
30
0.0000000000000194
10
9.2169605603910654
20
25.3101229871532034
30
0.0000000000000194
41
1.0000000000000000
41
1.0000000000000000
41
1.0000000000000000
41
1.0000000000000000
41
1.0000000000000000
41
1.0000000000000000
41
1.0000000000000000
0
LINE
330
1
100
AcDbEntity
8
Cut
6
CONTINUOUS
62
5
370
0
100
AcDbLine
10
9.2169605603910831
20
25.3101229871532070
30
0.0000000000000194
11
9.6273038099746291
21
21.4059677592849837
31
0.0000000000000169
0
SPLINE
8
Cut
6
CONTINUOUS
62
5
370
0
100
AcDbEntity
100
AcDbSpline
70
0
71
3
72
13
73
9
74
0
40
0.0000000000000000
40
0.0000000000000000
40
0.0000000000000000
40
0.0000000000000000
40
0.1784657253892940
40
0.3569314507785898
40
0.5353971761678868
40
0.7138629015571821
40
0.8923286269464775
40
1.0000000000000000
40
1.0000000000000000
40
1.0000000000000000
40
1.0000000000000000
10
9.6273038099745953
20
21.4059677592849802
30
0.0000000000000169
10
9.6275028470779347
20
21.3747255187715659
30
0.0000000000000169
10
9.6279009212846098
20
21.3122410377447409
30
0.0000000000000169
10
9.5890065813454584
20
21.2250336791860263
30
0.0000000000000170
10
9.5255538852419033
20
21.1552074882390642
30
0.0000000000000172
10
9.4420873563677148
20
21.1109355945804857
30
0.0000000000000174
10
9.3605969596307208
20
21.0973458391864064
30
0.0000000000000176
10
9.3114641035251591
20
21.1052586112827854
30
0.0000000000000178
10
9.2929757561290440
20
21.1082361316424780
30
0.0000000000000179
41
1.0000000000000000
41
1.0000000000000000
41
1.0000000000000000
41
1.0000000000000000
41
1.0000000000000000
41
1.0000000000000000
41
1.0000000000000000
41
1.0000000000000000
41
1.0000000000000000
0
LINE
330
1
100
AcDbEntity
8
Cut
6
CONTINUOUS
62
5
370
0
100
AcDbLine
10
9.2929757561290511
20
21.1082361316425136
30
0.0000000000000179
11
3.7761110966990126
21
22.3441802431122412
31
0.0000000000000348
0
SPLINE
8
Cut
6
CONTINUOUS
62
5
370
0
100
AcDbEntity
100
AcDbSpline
70
1
71
3
72
16
73
12
74
0
40
0.0000000000000000
40
0.0000000000000000
40
0.0000000000000000
40
0.0000000000000000
40
0.1135047903499513
40
0.2270095806999030
40
0.3405143710498548
40
0.4540191613998066
40
0.5675239517497586
40
0.6810287420997111
40
0.7945335324496630
40
0.9080383227996160
40
1.0000000000000000
40
1.0000000000000000
40
1.0000000000000000
40
1.0000000000000000
10
5.8277090251067030
20
23.9650680986135214
30
0.0000000000000291
10
5.8295708336603029
20
23.9797376800633266
30
0.0000000000000291
10
5.8440980100993762
20
24.0079532052573441
30
0.0000000000000291
10
5.8883012244865771
20
24.0254619905537155
30
0.0000000000000290
10
5.9331720229848006
20
24.0098214178930291
30
0.0000000000000288
10
5.9568567590013943
20
23.9686099002686497
30
0.0000000000000287
10
5.9477816928393326
20
23.9219515775465865
30
0.0000000000000287
10
5.9103860261568411
20
23.8926329796197763
30
0.0000000000000288
10
5.8628954048652622
20
23.8948962988759064
30
0.0000000000000290
10
5.8307527307176024
20
23.9258039242712286
30
0.0000000000000291
10
5.8262005862409314
20
23.9531827913080519
30
0.0000000000000291
10
5.8277090251067030
20
23.9650680986135214
30
0.0000000000000291
41
1.0000000000000000
41
1.0000000000000000
41
1.0000000000000000
41
1.0000000000000000
41
1.0000000000000000
41
1.0000000000000000
41
1.0000000000000000
41
1.0000000000000000
41
1.0000000000000000
41
1.0000000000000000
41
1.0000000000000000
41
1.0000000000000000
0
SPLINE
8
Cut
6
CONTINUOUS
62
5
370
0
100
AcDbEntity
100
AcDbSpline
70
1
71
3
72
16
73
12
74
0
40
0.0000000000000000
40
0.0000000000000000
40
0.0000000000000000
40
0.0000000000000000
40
0.1135047903499507
40
0.2270095806999033
40
0.3405143710498552
40
0.4540191613998082
40
0.5675239517497597
40
0.6810287420997110
40
0.7945335324496630
40
0.9080383227996138
40
1.0000000000000000
40
1.0000000000000000
40
1.0000000000000000
40
1.0000000000000000
10
4.0419167025657723
20
23.5990188165591270
30
0.0000000000000343
10
4.0437785111193740
20
23.6136883980089323
30
0.0000000000000343
10
4.0583056875584456
20
23.6419039232029569
30
0.0000000000000343
10
4.1025089019456464
20
23.6594127084993318
30
0.0000000000000342
10
4.1473797004438699
20
23.6437721358386419
30
0.0000000000000340
10
4.1710644364604637
20
23.6025606182142518
30
0.0000000000000340
10
4.1619893702984037
20
23.5559022954922028
30
0.0000000000000340
10
4.1245937036159086
20
23.5265836975653819
30
0.0000000000000341
10
4.0771030823243315
20
23.5288470168215191
30
0.0000000000000342
10
4.0449604081766735
20
23.5597546422168449
30
0.0000000000000343
10
4.0404082637000007
20
23.5871335092536576
30
0.0000000000000343
10
4.0419167025657723
20
23.5990188165591270
30
0.0000000000000343
41
1.0000000000000000
41
1.0000000000000000
41
1.0000000000000000
41
1.0000000000000000
41
1.0000000000000000
41
1.0000000000000000
41
1.0000000000000000
41
1.0000000000000000
41
1.0000000000000000
41
1.0000000000000000
41
1.0000000000000000
41
1.0000000000000000
0
SPLINE
8
Cut
6
CONTINUOUS
62
5
370
0
100
AcDbEntity
100
AcDbSpline
70
1
71
3
72
16
73
12
74
0
40
0.0000000000000000
40
0.0000000000000000
40
0.0000000000000000
40
0.0000000000000000
40
0.1135047903499539
40
0.2270095806999043
40
0.3405143710498563
40
0.4540191613998082
40
0.5675239517497574
40
0.6810287420997098
40
0.7945335324496620
40
0.9080383227996133
40
1.0000000000000000
40
1.0000000000000000
40
1.0000000000000000
40
1.0000000000000000
10
8.2989465843019126
20
25.6046888378695172
30
0.0000000000000222
10
8.3008083928555134
20
25.6193584193193225
30
0.0000000000000222
10
8.3153355692945841
20
25.6475739445133506
30
0.0000000000000222
10
8.3595387836817849
20
25.6650827298097148
30
0.0000000000000221
10
8.4044095821800102
20
25.6494421571490356
30
0.0000000000000219
10
8.4280943181966030
20
25.6082306395246420
30
0.0000000000000218
10
8.4190192520345413
20
25.5615723168025930
30
0.0000000000000219
10
8.3816235853520489
20
25.5322537188757650
30
0.0000000000000220
10
8.3341329640604727
20
25.5345170381319129
30
0.0000000000000221
10
8.3019902899128120
20
25.5654246635272280
30
0.0000000000000222
10
8.2974381454361410
20
25.5928035305640513
30
0.0000000000000222
10
8.2989465843019126
20
25.6046888378695172
30
0.0000000000000222
41
1.0000000000000000
41
1.0000000000000000
41
1.0000000000000000
41
1.0000000000000000
41
1.0000000000000000
41
1.0000000000000000
41
1.0000000000000000
41
1.0000000000000000
41
1.0000000000000000
41
1.0000000000000000
41
1.0000000000000000
41
1.0000000000000000
0
SPLINE
8
Cut
6
CONTINUOUS
62
5
370
0
100
AcDbEntity
100
AcDbSpline
70
0
71
3
72
14
73
10
74
0
40
0.0000000000000000
40
0.0000000000000000
40
0.0000000000000000
40
0.0000000000000000
40
0.1432111312871310
40
0.2864222625742623
40
0.4296333938613917
40
0.5728445251485219
40
0.7160556564356546
40
0.8592667877227820
40
1.0000000000000000
40
1.0000000000000000
40
1.0000000000000000
40
1.0000000000000000
10
13.8334616765987342
20
26.2027305859467532
30
0.0000000000000058
10
13.8646170906220334
20
26.2050385627653775
30
0.0000000000000058
10
13.9269279186686425
20
26.2096545164026367
30
0.0000000000000056
10
14.0165938086321997
20
26.1767232775926324
30
0.0000000000000053
10
14.0904206678543105
20
26.1181716064785512
30
0.0000000000000051
10
14.1406835826557185
20
26.0377206426258212
30
0.0000000000000049
10
14.1609348965192936
20
25.9456917890227956
30
0.0000000000000048
10
14.1512580827866579
20
25.8512274460133256
30
0.0000000000000048
10
14.1202978908760990
20
25.7976044586696744
30
0.0000000000000049
10
14.1049528862685190
20
25.7710269429282377
30
0.0000000000000049
41
1.0000000000000000
41
1.0000000000000000
41
1.0000000000000000
41
1.0000000000000000
41
1.0000000000000000
41
1.0000000000000000
41
1.0000000000000000
41
1.0000000000000000
41
1.0000000000000000
41
1.0000000000000000
0
LINE
330
1
100
AcDbEntity
8
Cut
6
CONTINUOUS
62
5
370
0
100
AcDbLine
10
14.1049528862685651
20
25.7710269429282022
30
0.0000000000000049
11
11.2880600700535076
21
21.8276853902172867
31
0.0000000000000121
0
SPLINE
8
Cut
6
CONTINUOUS
62
5
370
0
100
AcDbEntity
100
AcDbSpline
70
0
71
3
72
14
73
10
74
0
40
0.0000000000000000
40
0.0000000000000000
40
0.0000000000000000
40
0.0000000000000000
40
0.1440757603546794
40
0.2881515207093586
40
0.4322272810640385
40
0.5763030414187176
40
0.7203788017733979
40
0.8644545621280766
40
0.9999999999999999
40
0.9999999999999999
40
0.9999999999999999
40
0.9999999999999999
10
11.2880600700534988
20
21.8276853902172974
30
0.0000000000000121
10
11.2674931214300695
20
21.8041696996132046
30
0.0000000000000122
10
11.2263592241832111
20
21.7571383184050227
30
0.0000000000000123
10
11.1393854614575680
20
21.7176418859451879
30
0.0000000000000125
10
11.0457040445192440
20
21.7075105595823779
30
0.0000000000000128
10
10.9534334083107616
20
21.7295169054706605
30
0.0000000000000131
10
10.8743931947210122
20
21.7808391632623746
30
0.0000000000000133
10
10.8158433771592808
20
21.8538595864170766
30
0.0000000000000135
10
10.7999846229938363
20
21.9123059039050112
30
0.0000000000000136
10
10.7922971451091421
20
21.9406375602534780
30
0.0000000000000136
41
1.0000000000000000
41
1.0000000000000000
41
1.0000000000000000
41
1.0000000000000000
41
1.0000000000000000
41
1.0000000000000000
41
1.0000000000000000
41
1.0000000000000000
41
1.0000000000000000
41
1.0000000000000000
0
LINE
330
1
100
AcDbEntity
8
Cut
6
CONTINUOUS
62
5
370
0
100
AcDbLine
10
10.7922971451091527
20
21.9406375602534780
30
0.0000000000000136
11
10.2091278998320245
21
25.2924076171094683
31
0.0000000000000164
0
SPLINE
8
Cut
6
CONTINUOUS
62
5
370
0
100
AcDbEntity
100
AcDbSpline
70
0
71
3
72
12
73
8
74
0
40
0.0000000000000000
40
0.0000000000000000
40
0.0000000000000000
40
0.0000000000000000
40
0.2153899106457175
40
0.4307798212914366
40
0.6461697319371523
40
0.8615596425828715
40
0.9999999999999999
40
0.9999999999999999
40
0.9999999999999999
40
0.9999999999999999
10
10.2091278998319694
20
25.2924076171094576
30
0.0000000000000164
10
10.2068208672595855
20
25.3235569025334932
30
0.0000000000000164
10
10.2022068021148140
20
25.3858554733815573
30
0.0000000000000165
10
10.2351238772311266
20
25.4756132923341809
30
0.0000000000000164
10
10.2937293703812376
20
25.5490908213978614
30
0.0000000000000162
10
10.3644226041682366
20
25.5945180816982436
30
0.0000000000000160
10
10.4140013379118770
20
25.6064791700832863
30
0.0000000000000159
10
10.4333996151065769
20
25.6111590900917960
30
0.0000000000000158
41
1.0000000000000000
41
1.0000000000000000
41
1.0000000000000000
41
1.0000000000000000
41
1.0000000000000000
41
1.0000000000000000
41
1.0000000000000000
41
1.0000000000000000
0
LINE
330
1
100
AcDbEntity
8
Cut
6
CONTINUOUS
62
5
370
0
100
AcDbLine
10
10.4333996151065591
20
25.6111590900918920
30
0.0000000000000158
11
13.8334616765987377
21
26.2027305859467141
31
0.0000000000000058
0
SPLINE
8
Cut
6
CONTINUOUS
62
5
370
0
100
AcDbEntity
100
AcDbSpline
70
0
71
3
72
15
73
11
74
0
40
0.0000000000000000
40
0.0000000000000000
40
0.0000000000000000
40
0.0000000000000000
40
0.1379376499979269
40
0.2758752999958509
40
0.4138129499937754
40
0.5517505999917008
40
0.6896882499896286
40
0.8276258999875539
40
0.9655635499854767
40
1.0000000000000000
40
1.0000000000000000
40
1.0000000000000000
40
1.0000000000000000
10
19.6601639449247081
20
25.9783885232314020
30
-0.0000000000000117
10
19.6896682111982066
20
25.9681164389686181
30
-0.0000000000000118
10
19.7486767437452073
20
25.9475722704430467
30
-0.0000000000000119
10
19.8178481890799141
20
25.8817093129984599
30
-0.0000000000000122
10
19.8623216153653992
20
25.7985950064255292
30
-0.0000000000000123
10
19.8763798065895081
20
25.7049159819142155
30
-0.0000000000000124
10
19.8586187866528867
20
25.6119572081126385
30
-0.0000000000000124
10
19.8109599381666790
20
25.5303898900957584
30
-0.0000000000000123
10
19.7569950862404546
20
25.4838455925463272
30
-0.0000000000000121
10
19.7226498875256802
20
25.4660621545938959
30
-0.0000000000000120
10
19.7157884929269898
20
25.4625094255464788
30
-0.0000000000000120
41
1.0000000000000000
41
1.0000000000000000
41
1.0000000000000000
41
1.0000000000000000
41
1.0000000000000000
41
1.0000000000000000
41
1.0000000000000000
41
1.0000000000000000
41
1.0000000000000000
41
1.0000000000000000
41
1.0000000000000000
0
LINE
330
1
100
AcDbEntity
8
Cut
6
CONTINUOUS
62
5
370
0
100
AcDbLine
10
19.7157884929270004
20
25.4625094255464504
30
-0.0000000000000120
11
12.1373555612196693
21
21.7875225211347896
31
0.0000000000000095
0
SPLINE
8
Cut
6
CONTINUOUS
62
5
370
0
100
AcDbEntity
100
AcDbSpline
70
0
71
3
72
15
73
11
74
0
40
0.0000000000000000
40
0.0000000000000000
40
0.0000000000000000
40
0.0000000000000000
40
0.1280584541413175
40
0.2561169082826343
40
0.3841753624239523
40
0.5122338165652691
40
0.6402922707065872
40
0.7683507248479035
40
0.8964091789892211
40
1.0000000000000000
40
1.0000000000000000
40
1.0000000000000000
40
1.0000000000000000
10
12.1373555612196746
20
21.7875225211347825
30
0.0000000000000095
10
12.1080425371597489
20
21.7767166478400434
30
0.0000000000000096
10
12.0494164890399009
20
21.7551049012505686
30
0.0000000000000098
10
11.9541572624833119
20
21.7620407855485318
30
0.0000000000000101
10
11.8670123965266523
20
21.7979914883021770
30
0.0000000000000104
10
11.7966666773674529
20
21.8614093093059338
30
0.0000000000000106
10
11.7512906353828175
20
21.9445235263184131
30
0.0000000000000108
10
11.7364827718924207
20
22.0376705796735131
30
0.0000000000000108
10
11.7509518440462095
20
22.1257923153340634
30
0.0000000000000108
10
11.7799071399692288
20
22.1740893337315725
30
0.0000000000000107
10
11.7928556064615417
20
22.1956871901672805
30
0.0000000000000107
41
1.0000000000000000
41
1.0000000000000000
41
1.0000000000000000
41
1.0000000000000000
41
1.0000000000000000
41
1.0000000000000000
41
1.0000000000000000
41
1.0000000000000000
41
1.0000000000000000
41
1.0000000000000000
41
1.0000000000000000
0
LINE
330
1
100
AcDbEntity
8
Cut
6
CONTINUOUS
62
5
370
0
100
AcDbLine
10
11.7928556064615311
20
22.1956871901672876
30
0.0000000000000107
11
14.7123032451764395
21
26.2825942668011336
31
0.0000000000000032
0
SPLINE
8
Cut
6
CONTINUOUS
62
5
370
0
100
AcDbEntity
100
AcDbSpline
70
0
71
3
72
10
73
6
74
0
40
0.0000000000000000
40
0.0000000000000000
40
0.0000000000000000
40
0.0000000000000000
40
0.4564795722291699
40
0.9129591444583394
40
1.0000000000000000
40
1.0000000000000000
40
1.0000000000000000
40
1.0000000000000000
10
14.7123032451764821
20
26.2825942668010981
30
0.0000000000000032
10
14.7319892517699866
20
26.3048781322211696
30
0.0000000000000032
10
14.7713612649569939
20
26.3494458630613018
30
0.0000000000000031
10
14.8329856171375472
20
26.3757182516688822
30
0.0000000000000029
10
14.8673713014395990
20
26.3824921986345871
30
0.0000000000000028
10
14.8728779194563518
20
26.3835769971245142
30
0.0000000000000028
41
1.0000000000000000
41
1.0000000000000000
41
1.0000000000000000
41
1.0000000000000000
41
1.0000000000000000
41
1.0000000000000000
0
LINE
330
1
100
AcDbEntity
8
Cut
6
CONTINUOUS
62
5
370
0
100
AcDbLine
10
14.8728779194563323
20
26.3835769971246279
30
0.0000000000000028
11
16.6271517051996156
21
26.6888003574051851
31
-0.0000000000000024
0
SPLINE
8
Cut
6
CONTINUOUS
62
5
370
0
100
AcDbEntity
100
AcDbSpline
70
0
71
3
72
9
73
5
74
0
40
0.0000000000000000
40
0.0000000000000000
40
0.0000000000000000
40
0.0000000000000000
40
0.8684689034942644
40
1.0000000000000000
40
1.0000000000000000
40
1.0000000000000000
40
1.0000000000000000
10
16.6271517051996156
20
26.6888003574051886
30
-0.0000000000000024
10
16.6568937981678431
20
26.6912363672395863
30
-0.0000000000000025
10
16.6911403818377480
20
26.6940413149177473
30
-0.0000000000000026
10
16.7242706343253502
20
26.6865193711558959
30
-0.0000000000000027
10
16.7286282927625543
20
26.6855300016450414
30
-0.0000000000000027
41
1.0000000000000000
41
1.0000000000000000
41
1.0000000000000000
41
1.0000000000000000
41
1.0000000000000000
0
LINE
330
1
100
AcDbEntity
8
Cut
6
CONTINUOUS
62
5
370
0
100
AcDbLine
10
16.7286282927625400
20
26.6855300016449739
30
-0.0000000000000027
11
19.6601639449247187
21
25.9783885232314553
31
-0.0000000000000117
0
SPLINE
8
Cut
6
CONTINUOUS
62
5
370
0
100
AcDbEntity
100
AcDbSpline
70
1
71
3
72
16
73
12
74
0
40
0.0000000000000000
40
0.0000000000000000
40
0.0000000000000000
40
0.0000000000000000
40
0.1135047903499513
40
0.2270095806999030
40
0.3405143710498548
40
0.4540191613998066
40
0.5675239517497586
40
0.6810287420997111
40
0.7945335324496630
40
0.9080383227996160
40
1.0000000000000000
40
1.0000000000000000
40
1.0000000000000000
40
1.0000000000000000
10
9.8133150440412287
20
24.1255315859333734
30
0.0000000000000172
10
9.8151768525948295
20
24.1402011673831787
30
0.0000000000000172
10
9.8297040290338984
20
24.1684166925771997
30
0.0000000000000172
10
9.8739072434210993
20
24.1859254778735675
30
0.0000000000000171
10
9.9187780419193246
20
24.1702849052128776
30
0.0000000000000169
10
9.9424627779359191
20
24.1290733875885017
30
0.0000000000000168
10
9.9333877117738538
20
24.0824150648664350
30
0.0000000000000169
10
9.8959920450913650
20
24.0530964669396283
30
0.0000000000000170
10
9.8485014237997834
20
24.0553597861957549
30
0.0000000000000171
10
9.8163587496521245
20
24.0862674115910806
30
0.0000000000000172
10
9.8118066051754553
20
24.1136462786279004
30
0.0000000000000172
10
9.8133150440412287
20
24.1255315859333734
30
0.0000000000000172
41
1.0000000000000000
41
1.0000000000000000
41
1.0000000000000000
41
1.0000000000000000
41
1.0000000000000000
41
1.0000000000000000
41
1.0000000000000000
41
1.0000000000000000
41
1.0000000000000000
41
1.0000000000000000
41
1.0000000000000000
41
1.0000000000000000
0
SPLINE
8
Cut
6
CONTINUOUS
62
5
370
0
100
AcDbEntity
100
AcDbSpline
70
1
71
3
72
16
73
12
74
0
40
0.0000000000000000
40
0.0000000000000000
40
0.0000000000000000
40
0.0000000000000000
40
0.1135047903499538
40
0.2270095806999058
40
0.3405143710498573
40
0.4540191613998091
40
0.5675239517497644
40
0.6810287420997138
40
0.7945335324496642
40
0.9080383227996193
40
1.0000000000000000
40
1.0000000000000000
40
1.0000000000000000
40
1.0000000000000000
10
13.7180562196177966
20
26.5445030537798665
30
0.0000000000000063
10
13.7199180281713975
20
26.5591726352296718
30
0.0000000000000063
10
13.7344452046104664
20
26.5873881604236963
30
0.0000000000000063
10
13.7786484189976655
20
26.6048969457200712
30
0.0000000000000061
10
13.8235192174958907
20
26.5892563730593814
30
0.0000000000000060
10
13.8472039535124853
20
26.5480448554349877
30
0.0000000000000059
10
13.8381288873504200
20
26.5013865327129388
30
0.0000000000000059
10
13.8007332206679276
20
26.4720679347861214
30
0.0000000000000060
10
13.7532425993763496
20
26.4743312540422586
30
0.0000000000000062
10
13.7210999252286907
20
26.5052388794375808
30
0.0000000000000063
10
13.7165477807520215
20
26.5326177464743971
30
0.0000000000000063
10
13.7180562196177966
20
26.5445030537798665
30
0.0000000000000063
41
1.0000000000000000
41
1.0000000000000000
41
1.0000000000000000
41
1.0000000000000000
41
1.0000000000000000
41
1.0000000000000000
41
1.0000000000000000
41
1.0000000000000000
41
1.0000000000000000
41
1.0000000000000000
41
1.0000000000000000
41
1.0000000000000000
0
SPLINE
8
Cut
6
CONTINUOUS
62
5
370
0
100
AcDbEntity
100
AcDbSpline
70
1
71
3
72
16
73
12
74
0
40
0.0000000000000000
40
0.0000000000000000
40
0.0000000000000000
40
0.0000000000000000
40
0.1135047903499514
40
0.2270095806999051
40
0.3405143710498568
40
0.4540191613998087
40
0.5675239517497616
40
0.6810287420997152
40
0.7945335324496654
40
0.9080383227996192
40
1.0000000000000000
40
1.0000000000000000
40
1.0000000000000000
40
1.0000000000000000
10
16.0757479723346997
20
23.1970825685027684
30
-0.0000000000000018
10
16.0776097808883023
20
23.2117521499525736
30
-0.0000000000000018
10
16.0921369573273729
20
23.2399676751465947
30
-0.0000000000000018
10
16.1363401717145756
20
23.2574764604429731
30
-0.0000000000000020
10
16.1812109702127991
20
23.2418358877822797
30
-0.0000000000000021
10
16.2048957062293901
20
23.2006243701578967
30
-0.0000000000000022
10
16.1958206400673284
20
23.1539660474358442
30
-0.0000000000000022
10
16.1584249733848395
20
23.1246474495090268
30
-0.0000000000000021
10
16.1109343520932597
20
23.1269107687651641
30
-0.0000000000000019
10
16.0787916779456026
20
23.1578183941604863
30
-0.0000000000000018
10
16.0742395334689299
20
23.1851972611973025
30
-0.0000000000000018
10
16.0757479723346997
20
23.1970825685027684
30
-0.0000000000000018
41
1.0000000000000000
41
1.0000000000000000
41
1.0000000000000000
41
1.0000000000000000
41
1.0000000000000000
41
1.0000000000000000
41
1.0000000000000000
41
1.0000000000000000
41
1.0000000000000000
41
1.0000000000000000
41
1.0000000000000000
41
1.0000000000000000
0
SPLINE
8
Cut
6
CONTINUOUS
62
5
370
0
100
AcDbEntity
100
AcDbSpline
70
0
71
3
72
13
73
9
74
0
40
0.0000000000000000
40
0.0000000000000000
40
0.0000000000000000
40
0.0000000000000000
40
0.1709299910900488
40
0.3418599821800993
40
0.5127899732701455
40
0.6837199643601974
40
0.8546499554502457
40
1.0000000000000000
40
1.0000000000000000
40
1.0000000000000000
40
1.0000000000000000
10
20.6155073563843381
20
26.3466667804632095
30
-0.0000000000000144
10
20.6178144346484622
20
26.3155088670395472
30
-0.0000000000000144
10
20.6224285911767140
20
26.2531930401922153
30
-0.0000000000000145
10
20.5895108306843753
20
26.1635646412340286
30
-0.0000000000000144
10
20.5309079419632532
20
26.0895953161914278
30
-0.0000000000000142
10
20.4506483702211277
20
26.0398647736664763
30
-0.0000000000000140
10
20.3625315554065232
20
26.0187357707576474
30
-0.0000000000000138
10
20.3055556184203816
20
26.0274950149615520
30
-0.0000000000000136
10
20.2793716863158942
20
26.0315204240667626
30
-0.0000000000000135
41
1.0000000000000000
41
1.0000000000000000
41
1.0000000000000000
41
1.0000000000000000
41
1.0000000000000000
41
1.0000000000000000
41
1.0000000000000000
41
1.0000000000000000
41
1.0000000000000000
0
LINE
330
1
100
AcDbEntity
8
Cut
6
CONTINUOUS
62
5
370
0
100
AcDbLine
10
20.2793716863159226
20
26.0315204240669047
30
-0.0000000000000135
11
17.9765739308909680
21
26.5869985087552294
31
-0.0000000000000064
0
SPLINE
8
Cut
6
CONTINUOUS
62
5
370
0
100
AcDbEntity
100
AcDbSpline
70
0
71
3
72
16
73
12
74
0
40
0.0000000000000000
40
0.0000000000000000
40
0.0000000000000000
40
0.0000000000000000
40
0.1238552472844248
40
0.2477104945688469
40
0.3715657418532703
40
0.4954209891376956
40
0.6192762364221182
40
0.7431314837065437
40
0.8669867309909653
40
0.9908419782753894
40
1.0000000000000000
40
1.0000000000000000
40
1.0000000000000000
40
1.0000000000000000
10
17.9765739308909644
20
26.5869985087551974
30
-0.0000000000000064
10
17.9470696685147324
20
26.5972705168728361
30
-0.0000000000000063
10
17.8880611437622790
20
26.6178145331081168
30
-0.0000000000000062
10
17.8188896399684396
20
26.6836786327299436
30
-0.0000000000000059
10
17.7744164358276180
20
26.7667885990293577
30
-0.0000000000000058
10
17.7603574144839449
20
26.8604838424575121
30
-0.0000000000000057
10
17.7781215327541098
20
26.9533820808653175
30
-0.0000000000000057
10
17.8257688180256189
20
27.0351753215405104
30
-0.0000000000000058
10
17.8977762296916687
20
27.0964008216893433
30
-0.0000000000000060
10
17.9590178640399962
20
27.1200467127052107
30
-0.0000000000000062
10
17.9917074366134990
20
27.1260062627969170
30
-0.0000000000000063
10
17.9939581279770486
20
27.1264165804262376
30
-0.0000000000000063
41
1.0000000000000000
41
1.0000000000000000
41
1.0000000000000000
41
1.0000000000000000
41
1.0000000000000000
41
1.0000000000000000
41
1.0000000000000000
41
1.0000000000000000
41
1.0000000000000000
41
1.0000000000000000
41
1.0000000000000000
41
1.0000000000000000
0
LINE
330
1
100
AcDbEntity
8
Cut
6
CONTINUOUS
62
5
370
0
100
AcDbLine
10
17.9939581279770557
20
27.1264165804262092
30
-0.0000000000000063
11
20.1352868625314194
21
27.4989830276577649
31
-0.0000000000000126
0
SPLINE
8
Cut
6
CONTINUOUS
62
5
370
0
100
AcDbEntity
100
AcDbSpline
70
0
71
3
72
12
73
8
74
0
40
0.0000000000000000
40
0.0000000000000000
40
0.0000000000000000
40
0.0000000000000000
40
0.2153899106457315
40
0.4307798212914656
40
0.6461697319371970
40
0.8615596425829304
40
1.0000000000000000
40
1.0000000000000000
40
1.0000000000000000
40
1.0000000000000000
10
20.1352868625314301
20
27.4989830276577187
30
-0.0000000000000126
10
20.1664361479554621
20
27.5012900602301045
30
-0.0000000000000127
10
20.2287347188035298
20
27.5059041253748688
30
-0.0000000000000129
10
20.3184925377561640
20
27.4729870502585634
30
-0.0000000000000132
10
20.3919700668198445
20
27.4143815571084453
30
-0.0000000000000134
10
20.4373973271202338
20
27.3436883233214516
30
-0.0000000000000136
10
20.4493584155052837
20
27.2941095895778254
30
-0.0000000000000136
10
20.4540383355137969
20
27.2747113123831255
30
-0.0000000000000136
41
1.0000000000000000
41
1.0000000000000000
41
1.0000000000000000
41
1.0000000000000000
41
1.0000000000000000
41
1.0000000000000000
41
1.0000000000000000
41
1.0000000000000000
0
LINE
330
1
100
AcDbEntity
8
Cut
6
CONTINUOUS
62
5
370
0
100
AcDbLine
10
20.4540383355137649
20
27.2747113123831220
30
-0.0000000000000136
11
20.6155073563843452
21
26.3466667804632095
31
-0.0000000000000144
0
SPLINE
8
Cut
6
CONTINUOUS
62
5
370
0
100
AcDbEntity
100
AcDbSpline
70
1
71
3
72
16
73
12
74
0
40
0.0000000000000000
40
0.0000000000000000
40
0.0000000000000000
40
0.0000000000000000
40
0.1135047903499535
40
0.2270095806999017
40
0.3405143710498507
40
0.4540191613998046
40
0.5675239517497586
40
0.6810287420997067
40
0.7945335324496585
40
0.9080383227996078
40
1.0000000000000000
40
1.0000000000000000
40
1.0000000000000000
40
1.0000000000000000
10
21.8467206725915091
20
27.9542243776454740
30
-0.0000000000000176
10
21.8485824811451117
20
27.9688939590952792
30
-0.0000000000000176
10
21.8631096575841752
20
27.9971094842892931
30
-0.0000000000000176
10
21.9073128719713708
20
28.0146182695856574
30
-0.0000000000000178
10
21.9521836704696049
20
27.9989776969249888
30
-0.0000000000000179
10
21.9758684064861924
20
27.9577661793005952
30
-0.0000000000000180
10
21.9667933403241342
20
27.9111078565785462
30
-0.0000000000000180
10
21.9293976736416454
20
27.8817892586517182
30
-0.0000000000000179
10
21.8819070523500656
20
27.8840525779078625
30
-0.0000000000000177
10
21.8497643782024014
20
27.9149602033031776
30
-0.0000000000000176
10
21.8452122337257393
20
27.9423390703399974
30
-0.0000000000000176
10
21.8467206725915091
20
27.9542243776454740
30
-0.0000000000000176
41
1.0000000000000000
41
1.0000000000000000
41
1.0000000000000000
41
1.0000000000000000
41
1.0000000000000000
41
1.0000000000000000
41
1.0000000000000000
41
1.0000000000000000
41
1.0000000000000000
41
1.0000000000000000
41
1.0000000000000000
41
1.0000000000000000
0
SPLINE
8
Cut
6
CONTINUOUS
62
5
370
0
100
AcDbEntity
100
AcDbSpline
70
1
71
3
72
16
73
12
74
0
40
0.0000000000000000
40
0.0000000000000000
40
0.0000000000000000
40
0.0000000000000000
40
0.1135047903499535
40
0.2270095806999017
40
0.3405143710498507
40
0.4540191613998046
40
0.5675239517497586
40
0.6810287420997067
40
0.7945335324496585
40
0.9080383227996078
40
1.0000000000000000
40
1.0000000000000000
40
1.0000000000000000
40
1.0000000000000000
10
23.9684336845771853
20
27.4245500886223823
30
-0.0000000000000241
10
23.9702954931307879
20
27.4392196700721875
30
-0.0000000000000241
10
23.9848226695698550
20
27.4674351952662086
30
-0.0000000000000241
10
24.0290258839570470
20
27.4849439805625728
30
-0.0000000000000243
10
24.0738966824552811
20
27.4693034079018972
30
-0.0000000000000244
10
24.0975814184718757
20
27.4280918902775070
30
-0.0000000000000245
10
24.0885063523098175
20
27.3814335675554581
30
-0.0000000000000245
10
24.0511106856273180
20
27.3521149696286372
30
-0.0000000000000244
10
24.0036200643357489
20
27.3543782888847709
30
-0.0000000000000242
10
23.9714773901880740
20
27.3852859142800895
30
-0.0000000000000241
10
23.9669252457114155
20
27.4126647813169164
30
-0.0000000000000241
10
23.9684336845771853
20
27.4245500886223823
30
-0.0000000000000241
41
1.0000000000000000
41
1.0000000000000000
41
1.0000000000000000
41
1.0000000000000000
41
1.0000000000000000
41
1.0000000000000000
41
1.0000000000000000
41
1.0000000000000000
41
1.0000000000000000
41
1.0000000000000000
41
1.0000000000000000
41
1.0000000000000000
0
SPLINE
8
Cut
6
CONTINUOUS
62
5
370
0
100
AcDbEntity
100
AcDbSpline
70
1
71
3
72
16
73
12
74
0
40
0.0000000000000000
40
0.0000000000000000
40
0.0000000000000000
40
0.0000000000000000
40
0.1135047903499535
40
0.2270095806999017
40
0.3405143710498507
40
0.4540191613998046
40
0.5675239517497586
40
0.6810287420997067
40
0.7945335324496585
40
0.9080383227996078
40
1.0000000000000000
40
1.0000000000000000
40
1.0000000000000000
40
1.0000000000000000
10
21.2117082071962422
20
26.9464623643730832
30
-0.0000000000000160
10
21.2135700157498484
20
26.9611319458228920
30
-0.0000000000000160
10
21.2280971921889119
20
26.9893474710169130
30
-0.0000000000000160
10
21.2723004065761003
20
27.0068562563132772
30
-0.0000000000000162
10
21.3171712050743380
20
26.9912156836526087
30
-0.0000000000000163
10
21.3408559410909291
20
26.9500041660282079
30
-0.0000000000000164
10
21.3317808749288673
20
26.9033458433061625
30
-0.0000000000000164
10
21.2943852082463785
20
26.8740272453793345
30
-0.0000000000000163
10
21.2468945869547987
20
26.8762905646354788
30
-0.0000000000000161
10
21.2147519128071309
20
26.9071981900307868
30
-0.0000000000000160
10
21.2101997683304724
20
26.9345770570676137
30
-0.0000000000000160
10
21.2117082071962422
20
26.9464623643730832
30
-0.0000000000000160
41
1.0000000000000000
41
1.0000000000000000
41
1.0000000000000000
41
1.0000000000000000
41
1.0000000000000000
41
1.0000000000000000
41
1.0000000000000000
41
1.0000000000000000
41
1.0000000000000000
41
1.0000000000000000
41
1.0000000000000000
41
1.0000000000000000
0
MTEXT
330
1 F
100
AcDbEntity
8
PartID
6
CONTINUOUS
62
30
370
0
100
AcDbMText
10
12.8258326217238832
20
14.8694896510281485
30
0.0000000000000000
40
0.7874015748031497
41
0.0
71
5
72
1
1
LH Seat Bucket Exterior Detail
0
MTEXT
330
1 F
100
AcDbEntity
8
PartIndex
6
CONTINUOUS
62
30
370
0
100
AcDbMText
10
12.8258326217238832
20
15.6962613045714559
30
0.0000000000000000
40
0.7874015748031497
41
0.0
71
5
72
1
1
36-1
0
SPLINE
8
Cut
6
CONTINUOUS
62
5
370
0
100
AcDbEntity
100
AcDbSpline
70
0
71
3
72
15
73
11
74
0
40
0.0000000000000000
40
0.0000000000000000
40
0.0000000000000000
40
0.0000000000000000
40
0.0659564946157079
40
0.1993912810991781
40
0.3328260675826483
40
0.4662608540661186
40
0.5996956405495899
40
0.7331304270330596
40
0.8665652135165299
40
1.0000000000000000
40
1.0000000000000000
40
1.0000000000000000
40
1.0000000000000000
10
30.8048130118528363
20
27.6628854350072899
30
0.0000000000000371
10
30.8334623029039250
20
27.6440685138082252
30
0.0000000000000371
10
30.9200711937878836
20
27.5871835922234112
30
0.0000000000000374
10
31.0513255394733072
20
27.4733038768956703
30
0.0000000000000379
10
31.1876303227624518
20
27.3153385237770259
30
0.0000000000000383
10
31.2982727616626164
20
27.1382971488044333
30
0.0000000000000387
10
31.3811751450736800
20
26.9466593982161271
30
0.0000000000000390
10
31.4336130348996718
20
26.7447802334623503
30
0.0000000000000392
10
31.4572466386197931
20
26.5369610304228480
30
0.0000000000000394
10
31.4463655342325978
20
26.3984863138810333
30
0.0000000000000394
10
31.4409249820389967
20
26.3292489556101259
30
0.0000000000000394
41
1.0000000000000000
41
1.0000000000000000
41
1.0000000000000000
41
1.0000000000000000
41
1.0000000000000000
41
1.0000000000000000
41
1.0000000000000000
41
1.0000000000000000
41
1.0000000000000000
41
1.0000000000000000
41
1.0000000000000000
0
LINE
330
1
100
AcDbEntity
8
Cut
6
CONTINUOUS
62
5
370
0
100
AcDbLine
10
31.4409249820390038
20
26.3292489556101259
30
0.0000000000000394
11
28.7061025053033489
21
4.0559072860630598
31
0.0000000000000381
0
LINE
330
1
100
AcDbEntity
8
Cut
6
CONTINUOUS
62
5
370
0
100
AcDbLine
10
28.7061025053032104
20
4.0559072860639143
30
0.0000000000000381
11
6.7606706360393867
21
0.2499999999998392
31
-0.0000000000000264
0
LINE
330
1
100
AcDbEntity
8
Cut
6
CONTINUOUS
62
5
370
0
100
AcDbLine
10
6.7606706360402740
20
0.2499999999999921
30
-0.0000000000000264
11
6.3000080932424938
21
2.9062492693156110
31
-0.0000000000000286
0
LINE
330
1
100
AcDbEntity
8
Cut
6
CONTINUOUS
62
5
370
0
100
AcDbLine
10
6.3000080932425107
20
2.9062492693155058
30
-0.0000000000000286
11
7.2853007542088513
21
3.0771245812991963
31
-0.0000000000000257
0
LINE
330
1
100
AcDbEntity
8
Cut
6
CONTINUOUS
62
5
370
0
100
AcDbLine
10
7.2853007542088237
20
3.0771245812992576
30
-0.0000000000000257
11
19.6672800665887415
21
9.0731325103666212
31
0.0000000000000095
0
ARC
8
Cut
6
CONTINUOUS
62
5
370
0
100
AcDbEntity
100
AcDbCircle
10
17.0522462439661773
20
14.4732775375635470
30
0.0000000000000000
40
5.9999973506844029
100
AcDbArc
50
295.8387031414893613
51
347.6648813377090050
0
LINE
330
1
100
AcDbEntity
8
Cut
6
CONTINUOUS
62
5
370
0
100
AcDbLine
10
22.9137325569472807
20
13.1915028260974747
30
0.0000000000000179
11
26.1459995746742599
21
28.3981235595700241
31
0.0000000000000229
0
ARC
8
Cut
6
CONTINUOUS
62
5
370
0
100
AcDbEntity
100
AcDbCircle
10
27.4909525438138118
20
28.1122449419820661
30
0.0000000000000270
40
1.3750000266149809
100
AcDbArc
50
58.0000015838682828
51
167.9999984161317457
0
LINE
330
1
100
AcDbEntity
8
Cut
6
CONTINUOUS
62
5
370
0
100
AcDbLine
10
28.2195915140038558
20
29.2783111169102241
30
0.0000000000000288
11
30.8048130118529038
21
27.6628854350072082
31
0.0000000000000371
0
SPLINE
8
Cut
6
CONTINUOUS
62
5
370
0
100
AcDbEntity
100
AcDbSpline
70
1
71
3
72
16
73
12
74
0
40
0.0000000000000000
40
0.0000000000000000
40
0.0000000000000000
40
0.0000000000000000
40
0.1135047903499513
40
0.2270095806999030
40
0.3405143710498548
40
0.4540191613998066
40
0.5675239517497586
40
0.6810287420997108
40
0.7945335324496630
40
0.9080383227996160
40
1.0000000000000000
40
1.0000000000000000
40
1.0000000000000000
40
1.0000000000000000
10
26.7069357270024454
20
21.7077921275435166
30
0.0000000000000266
10
26.7050739184488464
20
21.6931225460937114
30
0.0000000000000266
10
26.6905467420097722
20
21.6649070208996832
30
0.0000000000000266
10
26.6463435276225731
20
21.6473982356033119
30
0.0000000000000265
10
26.6014727291243496
20
21.6630388082639982
30
0.0000000000000263
10
26.5777879931077550
20
21.7042503258883883
30
0.0000000000000263
10
26.5868630592698167
20
21.7509086486104408
30
0.0000000000000263
10
26.6242587259523091
20
21.7802272465372582
30
0.0000000000000264
10
26.6717493472438889
20
21.7779639272811210
30
0.0000000000000265
10
26.7038920213915461
20
21.7470563018857987
30
0.0000000000000266
10
26.7084441658682188
20
21.7196774348489825
30
0.0000000000000266
10
26.7069357270024454
20
21.7077921275435166
30
0.0000000000000266
41
1.0000000000000000
41
1.0000000000000000
41
1.0000000000000000
41
1.0000000000000000
41
1.0000000000000000
41
1.0000000000000000
41
1.0000000000000000
41
1.0000000000000000
41
1.0000000000000000
41
1.0000000000000000
41
1.0000000000000000
41
1.0000000000000000
0
SPLINE
8
Cut
6
CONTINUOUS
62
5
370
0
100
AcDbEntity
100
AcDbSpline
70
1
71
3
72
16
73
12
74
0
40
0.0000000000000000
40
0.0000000000000000
40
0.0000000000000000
40
0.0000000000000000
40
0.1135047903499507
40
0.2270095806999033
40
0.3405143710498552
40
0.4540191613998082
40
0.5675239517497597
40
0.6810287420997110
40
0.7945335324496630
40
0.9080383227996138
40
1.0000000000000000
40
1.0000000000000000
40
1.0000000000000000
40
1.0000000000000000
10
28.9929180053890150
20
21.4271087972600220
30
0.0000000000000336
10
28.9910561968354159
20
21.4124392158102168
30
0.0000000000000336
10
28.9765290203963417
20
21.3842236906161922
30
0.0000000000000335
10
28.9323258060091391
20
21.3667149053198209
30
0.0000000000000334
10
28.8874550075109156
20
21.3823554779805036
30
0.0000000000000333
10
28.8637702714943281
20
21.4235669956048937
30
0.0000000000000332
10
28.8728453376563863
20
21.4702253183269463
30
0.0000000000000332
10
28.9102410043388787
20
21.4995439162537636
30
0.0000000000000333
10
28.9577316256304584
20
21.4972805969976299
30
0.0000000000000334
10
28.9898742997781156
20
21.4663729716023077
30
0.0000000000000336
10
28.9944264442547919
20
21.4389941045654879
30
0.0000000000000336
10
28.9929180053890150
20
21.4271087972600220
30
0.0000000000000336
41
1.0000000000000000
41
1.0000000000000000
41
1.0000000000000000
41
1.0000000000000000
41
1.0000000000000000
41
1.0000000000000000
41
1.0000000000000000
41
1.0000000000000000
41
1.0000000000000000
41
1.0000000000000000
41
1.0000000000000000
41
1.0000000000000000
0
CIRCLE
8
Cut
6
CONTINUOUS
62
5
370
0
100
AcDbEntity
100
AcDbCircle
10
26.2690552145029024
20
21.0768369061705627
30
0.0000000000000255
40
0.1104867770039834
0
CIRCLE
8
Cut
6
CONTINUOUS
62
5
370
0
100
AcDbEntity
100
AcDbCircle
10
26.9775866502695898
20
19.6674692025254565
30
0.0000000000000281
40
0.2499956431771829
0
CIRCLE
8
Cut
6
CONTINUOUS
62
5
370
0
100
AcDbEntity
100
AcDbCircle
10
25.9491481880643953
20
18.4714032581120691
30
0.0000000000000254
40
0.1104867770039831
0
SPLINE
8
Cut
6
CONTINUOUS
62
5
370
0
100
AcDbEntity
100
AcDbSpline
70
1
71
3
72
16
73
12
74
0
40
0.0000000000000000
40
0.0000000000000000
40
0.0000000000000000
40
0.0000000000000000
40
0.1135047903499507
40
0.2270095806999033
40
0.3405143710498552
40
0.4540191613998082
40
0.5675239517497597
40
0.6810287420997110
40
0.7945335324496630
40
0.9080383227996138
40
1.0000000000000000
40
1.0000000000000000
40
1.0000000000000000
40
1.0000000000000000
10
27.6588345767012065
20
6.1382261520379737
30
0.0000000000000343
10
27.6569727681476074
20
6.1235565705881694
30
0.0000000000000343
10
27.6424455917085332
20
6.0953410453941475
30
0.0000000000000343
10
27.5982423773213306
20
6.0778322600977717
30
0.0000000000000342
10
27.5533715788231142
20
6.0934728327584606
30
0.0000000000000340
10
27.5296868428065196
20
6.1346843503828481
30
0.0000000000000340
10
27.5387619089685778
20
6.1813426731049006
30
0.0000000000000340
10
27.5761575756510702
20
6.2106612710317224
30
0.0000000000000341
10
27.6236481969426499
20
6.2083979517755834
30
0.0000000000000342
10
27.6557908710903071
20
6.1774903263802603
30
0.0000000000000343
10
27.6603430155669763
20
6.1501114593434423
30
0.0000000000000343
10
27.6588345767012065
20
6.1382261520379737
30
0.0000000000000343
41
1.0000000000000000
41
1.0000000000000000
41
1.0000000000000000
41
1.0000000000000000
41
1.0000000000000000
41
1.0000000000000000
41
1.0000000000000000
41
1.0000000000000000
41
1.0000000000000000
41
1.0000000000000000
41
1.0000000000000000
41
1.0000000000000000
0
CIRCLE
8
Cut
6
CONTINUOUS
62
5
370
0
100
AcDbEntity
100
AcDbCircle
10
28.0941940045663081
20
19.5303813953310055
30
0.0000000000000315
40
0.1104867770039875
0
CIRCLE
8
Cut
6
CONTINUOUS
62
5
370
0
100
AcDbEntity
100
AcDbCircle
10
25.9452115446756899
20
16.8028642928587537
30
0.0000000000000259
40
0.1104867770039875
0
CIRCLE
8
Cut
6
CONTINUOUS
62
5
370
0
100
AcDbEntity
100
AcDbCircle
10
27.1151325979060047
20
15.5633448441815645
30
0.0000000000000298
40
0.1104867770039831
0
CIRCLE
8
Cut
6
CONTINUOUS
62
5
370
0
100
AcDbEntity
100
AcDbCircle
10
26.1105174660852555
20
15.7768686802550970
30
0.0000000000000267
40
0.2499956431768655
0
SPLINE
8
Cut
6
CONTINUOUS
62
5
370
0
100
AcDbEntity
100
AcDbSpline
70
1
71
3
72
16
73
12
74
0
40
0.0000000000000000
40
0.0000000000000000
40
0.0000000000000000
40
0.0000000000000000
40
0.1135047903499513
40
0.2270095806999030
40
0.3405143710498548
40
0.4540191613998066
40
0.5675239517497586
40
0.6810287420997111
40
0.7945335324496630
40
0.9080383227996160
40
1.0000000000000000
40
1.0000000000000000
40
1.0000000000000000
40
1.0000000000000000
10
25.8730422541602785
20
5.7721768699835518
30
0.0000000000000291
10
25.8711804456066830
20
5.7575072885337439
30
0.0000000000000291
10
25.8566532691676088
20
5.7292917633397265
30
0.0000000000000291
10
25.8124500547804097
20
5.7117829780433516
30
0.0000000000000290
10
25.7675792562821862
20
5.7274235507040423
30
0.0000000000000288
10
25.7438945202655916
20
5.7686350683284244
30
0.0000000000000287
10
25.7529695864276533
20
5.8152933910504858
30
0.0000000000000287
10
25.7903652531101422
20
5.8446119889772969
30
0.0000000000000288
10
25.8378558744017219
20
5.8423486697211642
30
0.0000000000000290
10
25.8699985485493826
20
5.8114410443258437
30
0.0000000000000291
10
25.8745506930260554
20
5.7840621772890195
30
0.0000000000000291
10
25.8730422541602785
20
5.7721768699835518
30
0.0000000000000291
41
1.0000000000000000
41
1.0000000000000000
41
1.0000000000000000
41
1.0000000000000000
41
1.0000000000000000
41
1.0000000000000000
41
1.0000000000000000
41
1.0000000000000000
41
1.0000000000000000
41
1.0000000000000000
41
1.0000000000000000
41
1.0000000000000000
0
CIRCLE
8
Cut
6
CONTINUOUS
62
5
370
0
100
AcDbEntity
100
AcDbCircle
10
25.5421985543449033
20
14.9068372440373818
30
0.0000000000000253
40
0.1104867770039875
0
SPLINE
8
Cut
6
CONTINUOUS
62
5
370
0
100
AcDbEntity
100
AcDbSpline
70
1
71
3
72
16
73
12
74
0
40
0.0000000000000000
40
0.0000000000000000
40
0.0000000000000000
40
0.0000000000000000
40
0.1135047903499514
40
0.2270095806999051
40
0.3405143710498568
40
0.4540191613998087
40
0.5675239517497616
40
0.6810287420997152
40
0.7945335324496654
40
0.9080383227996192
40
1.0000000000000000
40
1.0000000000000000
40
1.0000000000000000
40
1.0000000000000000
10
15.6250033069322782
20
6.5401624000942480
30
-0.0000000000000018
10
15.6231414983786774
20
6.5254928186444419
30
-0.0000000000000018
10
15.6086143219396067
20
6.4972772934504164
30
-0.0000000000000018
10
15.5644111075524041
20
6.4797685081540441
30
-0.0000000000000020
10
15.5195403090541841
20
6.4954090808147305
30
-0.0000000000000021
10
15.4958555730375878
20
6.5366205984391215
30
-0.0000000000000022
10
15.5049306391996549
20
6.5832789211611704
30
-0.0000000000000022
10
15.5423263058821419
20
6.6125975190879913
30
-0.0000000000000021
10
15.5898169271737235
20
6.6103341998318514
30
-0.0000000000000019
10
15.6219596013213788
20
6.5794265744365310
30
-0.0000000000000018
10
15.6265117457980498
20
6.5520477073997139
30
-0.0000000000000018
10
15.6250033069322782
20
6.5401624000942480
30
-0.0000000000000018
41
1.0000000000000000
41
1.0000000000000000
41
1.0000000000000000
41
1.0000000000000000
41
1.0000000000000000
41
1.0000000000000000
41
1.0000000000000000
41
1.0000000000000000
41
1.0000000000000000
41
1.0000000000000000
41
1.0000000000000000
41
1.0000000000000000
0
SPLINE
8
Cut
6
CONTINUOUS
62
5
370
0
100
AcDbEntity
100
AcDbSpline
70
1
71
3
72
16
73
12
74
0
40
0.0000000000000000
40
0.0000000000000000
40
0.0000000000000000
40
0.0000000000000000
40
0.1135047903499513
40
0.2270095806999030
40
0.3405143710498548
40
0.4540191613998066
40
0.5675239517497586
40
0.6810287420997111
40
0.7945335324496630
40
0.9080383227996160
40
1.0000000000000000
40
1.0000000000000000
40
1.0000000000000000
40
1.0000000000000000
10
21.8874362352257528
20
5.6117133826636927
30
0.0000000000000172
10
21.8855744266721537
20
5.5970438012138857
30
0.0000000000000172
10
21.8710472502330795
20
5.5688282760198673
30
0.0000000000000172
10
21.8268440358458768
20
5.5513194907234933
30
0.0000000000000171
10
21.7819732373476604
20
5.5669600633841840
30
0.0000000000000169
10
21.7582885013310623
20
5.6081715810085644
30
0.0000000000000168
10
21.7673635674931276
20
5.6548299037306258
30
0.0000000000000169
10
21.8047592341756129
20
5.6841485016574342
30
0.0000000000000170
10
21.8522498554671962
20
5.6818851824013068
30
0.0000000000000171
10
21.8843925296148569
20
5.6509775570059828
30
0.0000000000000172
10
21.8889446740915226
20
5.6235986899691612
30
0.0000000000000172
10
21.8874362352257528
20
5.6117133826636927
30
0.0000000000000172
41
1.0000000000000000
41
1.0000000000000000
41
1.0000000000000000
41
1.0000000000000000
41
1.0000000000000000
41
1.0000000000000000
41
1.0000000000000000
41
1.0000000000000000
41
1.0000000000000000
41
1.0000000000000000
41
1.0000000000000000
41
1.0000000000000000
0
SPLINE
8
Cut
6
CONTINUOUS
62
5
370
0
100
AcDbEntity
100
AcDbSpline
70
1
71
3
72
16
73
12
74
0
40
0.0000000000000000
40
0.0000000000000000
40
0.0000000000000000
40
0.0000000000000000
40
0.1135047903499539
40
0.2270095806999043
40
0.3405143710498563
40
0.4540191613998082
40
0.5675239517497574
40
0.6810287420997098
40
0.7945335324496620
40
0.9080383227996133
40
1.0000000000000000
40
1.0000000000000000
40
1.0000000000000000
40
1.0000000000000000
10
23.4018046949650795
20
4.1325561307275569
30
0.0000000000000222
10
23.3999428864114805
20
4.1178865492777517
30
0.0000000000000222
10
23.3854157099724098
20
4.0896710240837253
30
0.0000000000000222
10
23.3412124955852107
20
4.0721622387873584
30
0.0000000000000221
10
23.2963416970869837
20
4.0878028114480394
30
0.0000000000000219
10
23.2726569610703926
20
4.1290143290724339
30
0.0000000000000218
10
23.2817320272324508
20
4.1756726517944784
30
0.0000000000000219
10
23.3191276939149432
20
4.2049912497213064
30
0.0000000000000220
10
23.3666183152065194
20
4.2027279304651577
30
0.0000000000000221
10
23.3987609893541837
20
4.1718203050698470
30
0.0000000000000222
10
23.4033131338308493
20
4.1444414380330263
30
0.0000000000000222
10
23.4018046949650795
20
4.1325561307275569
30
0.0000000000000222
41
1.0000000000000000
41
1.0000000000000000
41
1.0000000000000000
41
1.0000000000000000
41
1.0000000000000000
41
1.0000000000000000
41
1.0000000000000000
41
1.0000000000000000
41
1.0000000000000000
41
1.0000000000000000
41
1.0000000000000000
41
1.0000000000000000
0
SPLINE
8
Cut
6
CONTINUOUS
62
5
370
0
100
AcDbEntity
100
AcDbSpline
70
1
71
3
72
16
73
12
74
0
40
0.0000000000000000
40
0.0000000000000000
40
0.0000000000000000
40
0.0000000000000000
40
0.1135047903499535
40
0.2270095806999017
40
0.3405143710498507
40
0.4540191613998046
40
0.5675239517497586
40
0.6810287420997067
40
0.7945335324496585
40
0.9080383227996078
40
1.0000000000000000
40
1.0000000000000000
40
1.0000000000000000
40
1.0000000000000000
10
9.8540306066754990
20
1.7830205909515686
30
-0.0000000000000176
10
9.8521687981218964
20
1.7683510095017589
30
-0.0000000000000176
10
9.8376416216828293
20
1.7401354843077410
30
-0.0000000000000176
10
9.7934384072956391
20
1.7226266990113765
30
-0.0000000000000178
10
9.7485676087974031
20
1.7382672716720513
30
-0.0000000000000179
10
9.7248828727808103
20
1.7794787892964434
30
-0.0000000000000180
10
9.7339579389428703
20
1.8261371120184906
30
-0.0000000000000180
10
9.7713536056253645
20
1.8554557099453184
30
-0.0000000000000179
10
9.8188442269169389
20
1.8531923906891761
30
-0.0000000000000177
10
9.8509869010646032
20
1.8222847652938654
30
-0.0000000000000176
10
9.8555390455412724
20
1.7949058982570338
30
-0.0000000000000176
10
9.8540306066754990
20
1.7830205909515686
30
-0.0000000000000176
41
1.0000000000000000
41
1.0000000000000000
41
1.0000000000000000
41
1.0000000000000000
41
1.0000000000000000
41
1.0000000000000000
41
1.0000000000000000
41
1.0000000000000000
41
1.0000000000000000
41
1.0000000000000000
41
1.0000000000000000
41
1.0000000000000000
0
SPLINE
8
Cut
6
CONTINUOUS
62
5
370
0
100
AcDbEntity
100
AcDbSpline
70
1
71
3
72
16
73
12
74
0
40
0.0000000000000000
40
0.0000000000000000
40
0.0000000000000000
40
0.0000000000000000
40
0.1135047903499538
40
0.2270095806999058
40
0.3405143710498573
40
0.4540191613998091
40
0.5675239517497644
40
0.6810287420997138
40
0.7945335324496642
40
0.9080383227996193
40
1.0000000000000000
40
1.0000000000000000
40
1.0000000000000000
40
1.0000000000000000
10
17.9826950596492097
20
3.1927419148171805
30
0.0000000000000063
10
17.9808332510956070
20
3.1780723333673730
30
0.0000000000000063
10
17.9663060746565364
20
3.1498568081733507
30
0.0000000000000063
10
17.9221028602693373
20
3.1323480228769838
30
0.0000000000000061
10
17.8772320617711138
20
3.1479885955376674
30
0.0000000000000060
10
17.8535473257545192
20
3.1892001131620593
30
0.0000000000000059
10
17.8626223919165810
20
3.2358584358841087
30
0.0000000000000059
10
17.9000180585990769
20
3.2651770338109278
30
0.0000000000000060
10
17.9475086798906531
20
3.2629137145547902
30
0.0000000000000062
10
17.9796513540383138
20
3.2320060891594706
30
0.0000000000000063
10
17.9842034985149795
20
3.2046272221226477
30
0.0000000000000063
10
17.9826950596492097
20
3.1927419148171805
30
0.0000000000000063
41
1.0000000000000000
41
1.0000000000000000
41
1.0000000000000000
41
1.0000000000000000
41
1.0000000000000000
41
1.0000000000000000
41
1.0000000000000000
41
1.0000000000000000
41
1.0000000000000000
41
1.0000000000000000
41
1.0000000000000000
41
1.0000000000000000
0
SPLINE
8
Cut
6
CONTINUOUS
62
5
370
0
100
AcDbEntity
100
AcDbSpline
70
1
71
3
72
16
73
12
74
0
40
0.0000000000000000
40
0.0000000000000000
40
0.0000000000000000
40
0.0000000000000000
40
0.1135047903499535
40
0.2270095806999017
40
0.3405143710498507
40
0.4540191613998046
40
0.5675239517497586
40
0.6810287420997067
40
0.7945335324496585
40
0.9080383227996078
40
1.0000000000000000
40
1.0000000000000000
40
1.0000000000000000
40
1.0000000000000000
10
10.4890430720707446
20
2.7907826042239141
30
-0.0000000000000160
10
10.4871812635171473
20
2.7761130227741089
30
-0.0000000000000160
10
10.4726540870780802
20
2.7478974975800932
30
-0.0000000000000160
10
10.4284508726908882
20
2.7303887122837263
30
-0.0000000000000162
10
10.3835800741926505
20
2.7460292849444015
30
-0.0000000000000163
10
10.3598953381760595
20
2.7872408025687934
30
-0.0000000000000164
10
10.3689704043381195
20
2.8338991252908405
30
-0.0000000000000164
10
10.4063660710206172
20
2.8632177232176619
30
-0.0000000000000163
10
10.4538566923121881
20
2.8609544039615238
30
-0.0000000000000161
10
10.4859993664598523
20
2.8300467785662087
30
-0.0000000000000160
10
10.4905515109365197
20
2.8026679115293835
30
-0.0000000000000160
10
10.4890430720707446
20
2.7907826042239141
30
-0.0000000000000160
41
1.0000000000000000
41
1.0000000000000000
41
1.0000000000000000
41
1.0000000000000000
41
1.0000000000000000
41
1.0000000000000000
41
1.0000000000000000
41
1.0000000000000000
41
1.0000000000000000
41
1.0000000000000000
41
1.0000000000000000
41
1.0000000000000000
0
SPLINE
8
Cut
6
CONTINUOUS
62
5
370
0
100
AcDbEntity
100
AcDbSpline
70
1
71
3
72
16
73
12
74
0
40
0.0000000000000000
40
0.0000000000000000
40
0.0000000000000000
40
0.0000000000000000
40
0.1135047903499535
40
0.2270095806999017
40
0.3405143710498507
40
0.4540191613998046
40
0.5675239517497586
40
0.6810287420997067
40
0.7945335324496585
40
0.9080383227996078
40
1.0000000000000000
40
1.0000000000000000
40
1.0000000000000000
40
1.0000000000000000
10
7.7323175946898060
20
2.3126948799744720
30
-0.0000000000000241
10
7.7304557861362051
20
2.2980252985246667
30
-0.0000000000000241
10
7.7159286096971460
20
2.2698097733306510
30
-0.0000000000000241
10
7.6717253953099549
20
2.2523009880342841
30
-0.0000000000000243
10
7.6268545968117136
20
2.2679415606949589
30
-0.0000000000000244
10
7.6031698607951244
20
2.3091530783193490
30
-0.0000000000000245
10
7.6122449269571808
20
2.3558114010414002
30
-0.0000000000000245
10
7.6496405936396759
20
2.3851299989682260
30
-0.0000000000000244
10
7.6971312149312539
20
2.3828666797120861
30
-0.0000000000000242
10
7.7292738890789217
20
2.3519590543167732
30
-0.0000000000000241
10
7.7338260335555811
20
2.3245801872799414
30
-0.0000000000000241
10
7.7323175946898060
20
2.3126948799744720
30
-0.0000000000000241
41
1.0000000000000000
41
1.0000000000000000
41
1.0000000000000000
41
1.0000000000000000
41
1.0000000000000000
41
1.0000000000000000
41
1.0000000000000000
41
1.0000000000000000
41
1.0000000000000000
41
1.0000000000000000
41
1.0000000000000000
41
1.0000000000000000
0
MTEXT
330
1 F
100
AcDbEntity
8
PartID
6
CONTINUOUS
62
30
370
0
100
AcDbMText
10
18.8749186575430450
20
14.8677553175688981
30
0.0000000000000000
40
0.7874015748031497
41
0.0
71
5
72
1
1
LH Seat Bucket Exterior
0
MTEXT
330
1 F
100
AcDbEntity
8
PartIndex
6
CONTINUOUS
62
30
370
0
100
AcDbMText
10
18.8749186575430450
20
15.6945269711122055
30
0.0000000000000000
40
0.7874015748031497
41
0.0
71
5
72
1
1
35-1
0
ENDSEC
0
EOF
