<?xml version="1.0" encoding="utf-8"?>
<!-- Generator: Fusion 360, Shaper Origin Export Add-In, Version 1.6.10  -->
<svg xmlns="http://www.w3.org/2000/svg" xmlns:xlink="http://www.w3.org/1999/xlink" xmlns:shaper="http://www.shapertools.com/namespaces/shaper" shaper:fusionaddin="version:1.6.10" width="15.7398591cm" height="6.50875cm" version="1.1" x="0cm" y="0cm" viewBox="0 0 15.7398591 6.50875" enable-background="new 0 0 15.7398591 6.50875" xml:space="preserve"><path d="M7.6010138,-0.238125 A0.47625,0.47625 270.000004 0,0 7.1247638,0.2381249 L7.1247637,1.6033749 5.9937702,2.7343683 -5.9163451,3.2543751 -5.575236,-3.2543749 9.823514,-3.2543749 9.8235138,-0.2381249 7.6010138,-0.238125z" transform="matrix(1,0,0,-1,5.9163451,3.2543751)" fill="rgb(0,0,0)" shaper:cutDepth="0.003175" stroke-linecap="round" stroke-linejoin="round" /><path d="M0.2837266,0.3609044 A0.15875,0.15875 270.000004 0,0 0.1249766,0.5196544 L0.1249765,2.0483265 A0.15875,0.15875 180.000004 0,0 0.2837265,2.2070765 L0.925717,2.2070766 A0.15875,0.15875 90.000004 0,0 1.084467,2.0483266 L1.0844671,0.5196545 A0.15875,0.15875 0.000004 0,0 0.9257171,0.3609045 L0.2837266,0.3609044z" transform="matrix(1,0,0,-1,5.9163451,3.2543751)" fill="rgb(255,255,255)" stroke="rgb(0,0,0)" stroke-width="0.0010cm" stroke-linecap="round" stroke-linejoin="round" shaper:cutDepth="0.003175" /><path d="M5.4979327,0.8550327 a0.15875,0.15875 0 1,1 0.3175,0 a0.15875,0.15875 0 1,1 -0.3175,0z" transform="matrix(1,0,0,-1,5.9163451,3.2543751)" fill="rgb(255,255,255)" stroke="rgb(0,0,0)" stroke-width="0.0010cm" stroke-linecap="round" stroke-linejoin="round" shaper:cutDepth="0.003175" /><path d="M5.7534107,0.6411309 A0.15875,0.15875 90.000004 0,0 5.9121607,0.4823809 L5.9124326,-0.7906528 A0.158977,0.158977 3.3587529 0,0 5.5978657,-0.8312783 A0.15875,0.15875 11.3589777 0,1 5.4422252,-0.703795 L5.4178933,-0.703795 A0.15875,0.15875 270.000004 0,0 5.2591753,-0.5418604 L5.2797899,0.4855654 A0.15875,0.15875 178.8505499 0,0 5.438508,0.6411308 L5.7534107,0.6411309z" transform="matrix(1,0,0,-1,5.9163451,3.2543751)" fill="rgb(255,255,255)" stroke="rgb(0,0,0)" stroke-width="0.0010cm" stroke-linecap="round" stroke-linejoin="round" shaper:cutDepth="0.003175" /><path d="M-1.5972883,1.3587588 A0.15875,0.15875 270.000004 0,0 -1.7560383,1.5175088 L-1.7560383,1.8501688 A0.15875,0.15875 180.000004 0,0 -1.5972883,2.0089188 L-1.3095404,2.0089189 A0.15875,0.15875 90.000004 0,0 -1.1507904,1.8501689 L-1.1507903,1.5175088 A0.15875,0.15875 0.000004 0,0 -1.3095403,1.3587588 L-1.5972883,1.3587588z" transform="matrix(1,0,0,-1,5.9163451,3.2543751)" fill="rgb(255,255,255)" stroke="rgb(0,0,0)" stroke-width="0.0010cm" stroke-linecap="round" stroke-linejoin="round" shaper:cutDepth="0.003175" /><path d="M-2.1133446,-0.7424061 A0.15875,0.15875 180.000004 0,0 -1.9574949,-0.5836826 L-0.8618611,-0.5636626 A0.15875,0.15875 91.0468203 0,0 -0.7485025,-0.6083663 L-0.6785961,-0.6760892 A0.15875,0.15875 225.9089592 0,1 -0.5934005,-0.7187964 L-0.4822146,-0.7367183 A0.15875,0.15875 80.8432843 0,0 -0.3487274,-0.8934453 L-0.3487274,-1.11384 A0.15875,0.15875 0.000004 0,0 -0.5074774,-1.27259 L-0.8530842,-1.27259 -1.9516943,-1.2926643 A0.15875,0.15875 271.0468203 0,0 -2.1133446,-1.1339408 L-2.1133446,-0.7424061z" transform="matrix(1,0,0,-1,5.9163451,3.2543751)" fill="rgb(255,255,255)" stroke="rgb(0,0,0)" stroke-width="0.0010cm" stroke-linecap="round" stroke-linejoin="round" shaper:cutDepth="0.003175" /><path d="M3.7438363,0.6319339 A0.15875,0.15875 62.9184421 0,0 3.8303141,0.4905894 L3.8303141,0.0220238 A0.15875,0.15875 180.000004 0,1 3.8433269,-0.0409224 L3.9104778,-0.1963946 A0.15875,0.15875 23.360287 0,0 3.9234906,-0.2593409 L3.9234906,-0.6276399 A0.15875,0.15875 0.000004 0,0 3.7647407,-0.7863899 L3.4895914,-0.7863899 A0.15875,0.15875 270.000004 0,0 3.3308414,-0.6276399 L3.3308413,-0.2780051 A0.15875,0.15875 0.000004 0,1 3.3258737,-0.238603 L3.2372858,0.1071461 A0.15875,0.15875 194.3711802 0,0 3.2323182,0.1465482 L3.2323182,0.606817 A0.15875,0.15875 180.000004 0,0 3.3910682,0.765567 L3.4442549,0.765567 A0.15875,0.15875 90.000004 0,0 3.5165271,0.7481616 L3.7438363,0.6319339z" transform="matrix(1,0,0,-1,5.9163451,3.2543751)" fill="rgb(255,255,255)" stroke="rgb(0,0,0)" stroke-width="0.0010cm" stroke-linecap="round" stroke-linejoin="round" shaper:cutDepth="0.003175" /><path d="M4.8339851,0.873047 L4.833985,1.1788348 A0.15875,0.15875 0.000004 0,1 4.675235,1.3375848 L4.4905166,1.3375848 A0.15875,0.15875 90.000004 0,1 4.3317667,1.1788347 L4.3317667,0.8965128 A0.15875,0.15875 0.000004 0,0 4.1730167,0.7377628 L3.8344171,0.7377628 A0.15875,0.15875 270.000004 0,0 3.6757206,0.9006336 L3.6757206,1.1788347 A0.15875,0.15875 0.000004 0,1 3.5169706,1.3375847 L3.5070775,1.3375847 A0.15875,0.15875 270.000004 0,0 3.3483275,1.4963347 L3.3483275,1.7527854 A0.15875,0.15875 180.000004 0,0 3.5070775,1.9115354 L5.8528957,1.9115356 A0.15875,0.15875 90.000004 0,0 6.0116457,1.7527856 L6.0116457,1.6368669 A0.15875,0.15875 0.000004 0,0 5.9651489,1.5246137 L5.8246168,1.3840816 A0.15875,0.15875 315.000004 0,0 5.7123636,1.3375848 L5.6010089,1.3375848 A0.15875,0.15875 90.000004 0,1 5.4422589,1.1788348 L5.4422589,0.873047 A0.15875,0.15875 0.000004 0,0 5.2835089,0.714297 L4.9927351,0.714297 A0.15875,0.15875 270.000004 0,0 4.8339851,0.873047z" transform="matrix(1,0,0,-1,5.9163451,3.2543751)" fill="rgb(255,255,255)" stroke="rgb(0,0,0)" stroke-width="0.0010cm" stroke-linecap="round" stroke-linejoin="round" shaper:cutDepth="0.003175" /><path d="M1.4183848,2.1749426 A0.15875,0.15875 90.000004 0,1 1.2596348,2.0161925 L1.259635,-1.0185034 A0.15875,0.15875 180.000004 0,1 1.4183851,-1.1772534 L2.0374749,-1.1772534 A0.15875,0.15875 270.000004 0,1 2.1962249,-1.0185033 L2.1962246,2.0161926 A0.15875,0.15875 0.000004 0,1 2.0374746,2.1749426 L1.4183848,2.1749426z" transform="matrix(1,0,0,-1,5.9163451,3.2543751)" fill="rgb(255,255,255)" stroke="rgb(0,0,0)" stroke-width="0.0010cm" stroke-linecap="round" stroke-linejoin="round" shaper:cutDepth="0.003175" /><path d="M-0.2835458,-0.5220941 A0.15875,0.15875 270.000004 0,1 -0.1247958,-0.3633441 L-0.1247959,0.6470309 A0.15875,0.15875 0.000004 0,1 -0.2835459,0.8057808 L-0.57759,0.8057808 A0.15875,0.15875 90.000004 0,1 -0.73634,0.6470308 L-0.7363399,-0.3633441 A0.15875,0.15875 180.000004 0,1 -0.5775899,-0.5220941 L-0.2835458,-0.5220941z" transform="matrix(1,0,0,-1,5.9163451,3.2543751)" fill="rgb(255,255,255)" stroke="rgb(0,0,0)" stroke-width="0.0010cm" stroke-linecap="round" stroke-linejoin="round" shaper:cutDepth="0.003175" /><path d="M-2.6195582,0.7889586 A0.15875,0.15875 90.000004 0,1 -2.7783081,0.6302086 L-2.7783081,-0.5043021 A0.15875,0.15875 180.000004 0,1 -2.6195581,-0.6630521 L-2.3549747,-0.6630521 A0.15875,0.15875 270.000004 0,1 -2.1962247,-0.5043021 L-2.1962248,0.6302087 A0.15875,0.15875 0.000004 0,1 -2.3549748,0.7889587 L-2.6195582,0.7889586z" transform="matrix(1,0,0,-1,5.9163451,3.2543751)" fill="rgb(255,255,255)" stroke="rgb(0,0,0)" stroke-width="0.0010cm" stroke-linecap="round" stroke-linejoin="round" shaper:cutDepth="0.003175" /><path d="M-2.0979354,0.8003856 A0.15875,0.15875 270.000004 0,0 -2.2566854,0.9591356 L-2.2566854,1.2504092 A0.15875,0.15875 180.000004 0,0 -2.0979354,1.4091592 L-1.8101875,1.4091592 A0.15875,0.15875 90.000004 0,0 -1.6514375,1.2504092 L-1.6514375,0.9591356 A0.15875,0.15875 0.000004 0,0 -1.8101874,0.8003856 L-2.0979354,0.8003856z" transform="matrix(1,0,0,-1,5.9163451,3.2543751)" fill="rgb(255,255,255)" stroke="rgb(0,0,0)" stroke-width="0.0010cm" stroke-linecap="round" stroke-linejoin="round" shaper:cutDepth="0.003175" /><path d="M2.4321349,1.8034366 A0.1326675,0.1326675 270.000004 1,0 2.4321349,2.0687717 L3.1527821,2.0687718 A0.1326675,0.1326675 90.000004 0,0 3.1527821,1.8034367 L2.4321349,1.8034366z" transform="matrix(1,0,0,-1,5.9163451,3.2543751)" fill="rgb(255,255,255)" stroke="rgb(0,0,0)" stroke-width="0.0010cm" stroke-linecap="round" stroke-linejoin="round" shaper:cutDepth="0.003175" /><path d="M5.1724471,-0.7177504 A0.15875,0.15875 90.000004 0,0 5.331197,-0.8762689 L5.3312815,-0.9342333 A0.15875,0.15875 180.083563 0,1 5.4900313,-1.0927518 L5.6187132,-1.0927518 A0.0892914,0.0892914 90.000004 0,0 5.6187132,-1.2713346 L4.7708653,-1.2713347 A0.15875,0.15875 90.000004 0,1 4.702268,-1.2869206 L4.6174476,-1.3275624 A0.15875,0.15875 295.6015043 0,0 4.5488503,-1.3431483 L4.1377964,-1.3431483 A0.15875,0.15875 270.000004 0,0 3.9790464,-1.1843983 L3.9790464,-0.9076267 A0.15875,0.15875 180.000004 0,0 4.1377964,-0.7488767 L4.6741157,-0.7488767 A0.15875,0.15875 270.000004 0,1 4.742618,-0.7333363 L4.7427131,-0.7332908 A0.15875,0.15875 115.5634369 0,0 4.8112153,-0.7177505 L5.1724471,-0.7177504z" transform="matrix(1,0,0,-1,5.9163451,3.2543751)" fill="rgb(255,255,255)" stroke="rgb(0,0,0)" stroke-width="0.0010cm" stroke-linecap="round" stroke-linejoin="round" shaper:cutDepth="0.003175" /><path d="M-1.0879054,0.7903742 A0.15875,0.15875 270.000004 0,0 -1.2466554,0.9491241 L-1.2466554,1.2403978 A0.15875,0.15875 180.000004 0,0 -1.0879054,1.3991478 L-0.8001575,1.3991478 A0.15875,0.15875 90.000004 0,0 -0.6414075,1.2403978 L-0.6414075,0.9491242 A0.15875,0.15875 0.000004 0,0 -0.8001575,0.7903742 L-1.0879054,0.7903742z" transform="matrix(1,0,0,-1,5.9163451,3.2543751)" fill="rgb(255,255,255)" stroke="rgb(0,0,0)" stroke-width="0.0010cm" stroke-linecap="round" stroke-linejoin="round" shaper:cutDepth="0.003175" /><path d="M-4.2030013,1.8256242 a0.215265,0.215265 0 1,1 0.43053,0 a0.215265,0.215265 0 1,1 -0.43053,0z" transform="matrix(1,0,0,-1,5.9163451,3.2543751)" fill="rgb(255,255,255)" stroke="rgb(0,0,0)" stroke-width="0.0010cm" stroke-linecap="round" stroke-linejoin="round" shaper:cutDepth="0.003175" /><path d="M7.6397489,-1.825625 a0.215265,0.215265 0 1,1 0.43053,0 a0.215265,0.215265 0 1,1 -0.43053,0z" transform="matrix(1,0,0,-1,5.9163451,3.2543751)" fill="rgb(255,255,255)" stroke="rgb(0,0,0)" stroke-width="0.0010cm" stroke-linecap="round" stroke-linejoin="round" shaper:cutDepth="0.003175" /><path d="M-3.7267512,-0.2381258 a0.215265,0.215265 0 1,1 0.43053,0 a0.215265,0.215265 0 1,1 -0.43053,0z" transform="matrix(1,0,0,-1,5.9163451,3.2543751)" fill="rgb(255,255,255)" stroke="rgb(0,0,0)" stroke-width="0.0010cm" stroke-linecap="round" stroke-linejoin="round" shaper:cutDepth="0.003175" /><path d="M6.0522487,1.1144249 a0.215265,0.215265 0 1,1 0.43053,0 a0.215265,0.215265 0 1,1 -0.43053,0z" transform="matrix(1,0,0,-1,5.9163451,3.2543751)" fill="rgb(255,255,255)" stroke="rgb(0,0,0)" stroke-width="0.0010cm" stroke-linecap="round" stroke-linejoin="round" shaper:cutDepth="0.003175" /><path d="M-1.6263364,1.0509244 a0.1786001,0.1786001 0 1,1 0.3572002,0 a0.1786001,0.1786001 0 1,1 -0.3572002,0z" transform="matrix(1,0,0,-1,5.9163451,3.2543751)" fill="rgb(255,255,255)" stroke="rgb(0,0,0)" stroke-width="0.0010cm" stroke-linecap="round" stroke-linejoin="round" shaper:cutDepth="0.003175" /><path d="M4.4061636,1.0509248 a0.1786001,0.1786001 0 1,1 0.3572002,0 a0.1786001,0.1786001 0 1,1 -0.3572002,0z" transform="matrix(1,0,0,-1,5.9163451,3.2543751)" fill="rgb(255,255,255)" stroke="rgb(0,0,0)" stroke-width="0.0010cm" stroke-linecap="round" stroke-linejoin="round" shaper:cutDepth="0.003175" /><path d="M-2.0827362,0.0984244 a0.635,0.635 0 1,1 1.27,0 a0.635,0.635 0 1,1 -1.27,0z" transform="matrix(1,0,0,-1,5.9163451,3.2543751)" fill="rgb(255,255,255)" stroke="rgb(0,0,0)" stroke-width="0.0010cm" stroke-linecap="round" stroke-linejoin="round" shaper:cutDepth="0.003175" /><path d="M3.9497638,0.0984248 a0.635,0.635 0 1,1 1.27,0 a0.635,0.635 0 1,1 -1.27,0z" transform="matrix(1,0,0,-1,5.9163451,3.2543751)" fill="rgb(255,255,255)" stroke="rgb(0,0,0)" stroke-width="0.0010cm" stroke-linecap="round" stroke-linejoin="round" shaper:cutDepth="0.003175" /></svg>