<?xml version="1.0" encoding="utf-8"?>
<!-- Generator: Fusion 360, Shaper Origin Export Add-In, Version 1.6.10  -->
<svg xmlns="http://www.w3.org/2000/svg" xmlns:xlink="http://www.w3.org/1999/xlink" xmlns:shaper="http://www.shapertools.com/namespaces/shaper" shaper:fusionaddin="version:1.6.10" width="11.176cm" height="4.064cm" version="1.1" x="0cm" y="0cm" viewBox="0 0 11.176 4.064" enable-background="new 0 0 11.176 4.064" xml:space="preserve"><path d="M-4.81965,1.3462 A0.508,0.508 0 0,0 -5.32765,0.8382 L-5.588,0.8382 -5.588,-2.032 5.588,-2.032 5.588,1.016 4.572,2.032 -4.81965,2.032 -4.81965,1.3462z" transform="matrix(1,0,0,-1,5.588,2.032)" fill="rgb(0,0,0)" shaper:cutDepth="0.0047625" stroke-linecap="round" stroke-linejoin="round" /><path d="M-3.74015,-0.381 a0.9525,0.9525 0 1,1 1.905,0 a0.9525,0.9525 0 1,1 -1.905,0z" transform="matrix(1,0,0,-1,5.588,2.032)" fill="rgb(255,255,255)" stroke="rgb(0,0,0)" stroke-width="0.0010cm" stroke-linecap="round" stroke-linejoin="round" shaper:cutDepth="0.0047625" /><path d="M2.29235,-0.381 a0.9525,0.9525 0 1,1 1.905,0 a0.9525,0.9525 0 1,1 -1.905,0z" transform="matrix(1,0,0,-1,5.588,2.032)" fill="rgb(255,255,255)" stroke="rgb(0,0,0)" stroke-width="0.0010cm" stroke-linecap="round" stroke-linejoin="round" shaper:cutDepth="0.0047625" /><path d="M-5.066665,-0.71755 a0.215265,0.215265 0 1,1 0.43053,0 a0.215265,0.215265 0 1,1 -0.43053,0z" transform="matrix(1,0,0,-1,5.588,2.032)" fill="rgb(255,255,255)" stroke="rgb(0,0,0)" stroke-width="0.0010cm" stroke-linecap="round" stroke-linejoin="round" shaper:cutDepth="0.0047625" /><path d="M4.712335,0.635 a0.215265,0.215265 0 1,1 0.43053,0 a0.215265,0.215265 0 1,1 -0.43053,0z" transform="matrix(1,0,0,-1,5.588,2.032)" fill="rgb(255,255,255)" stroke="rgb(0,0,0)" stroke-width="0.0010cm" stroke-linecap="round" stroke-linejoin="round" shaper:cutDepth="0.0047625" /></svg>