<?xml version="1.0" encoding="utf-8"?>
<!-- Generator: Fusion 360, Shaper Origin Export Add-In, Version 1.6.10  -->
<svg xmlns="http://www.w3.org/2000/svg" xmlns:xlink="http://www.w3.org/1999/xlink" xmlns:shaper="http://www.shapertools.com/namespaces/shaper" shaper:fusionaddin="version:1.6.10" width="11.176cm" height="4.064cm" version="1.1" x="0cm" y="0cm" viewBox="0 0 11.176 4.064" enable-background="new 0 0 11.176 4.064" xml:space="preserve"><path d="M-4.81965,1.3462 A0.508,0.508 0 0,0 -5.32765,0.8382 L-5.588,0.8382 -5.588,-2.032 5.588,-2.032 5.588,1.016 4.572,2.032 -4.81965,2.032 -4.81965,1.3462z" transform="matrix(1,0,0,-1,5.588,2.032)" fill="rgb(0,0,0)" shaper:cutDepth="0.0015875" stroke-linecap="round" stroke-linejoin="round" /><path d="M-1.6915231,0.3677604 L-1.6914513,0.1534709 -1.8396525,0.3801448 -1.8396525,0.3801448 -1.8436725,0.3854624 -1.8484169,0.390132 -1.8542617,0.3933288 -1.8608599,0.394199 -1.8608599,0.394199 -1.8665913,0.3933818 -1.8718348,0.3909475 -1.8762533,0.3871942 -1.8790365,0.3821292 -1.8790365,0.3821292 -1.8799637,0.3754221 -1.8800423,0.3686225 -1.8799706,0.0904225 -1.8799706,0.0904225 -1.8798207,0.0820175 -1.8793027,0.0778475 -1.8780307,0.0738456 -1.8780307,0.0738456 -1.8746907,0.069571 -1.8703253,0.066351 -1.8652379,0.0644778 -1.8598541,0.0637874 -1.8598541,0.0637874 -1.8554341,0.0641779 -1.8511539,0.0653417 -1.8472757,0.0674937 -1.8440878,0.0705678 -1.841833,0.0743936 -1.8403298,0.0785644 -1.839163,0.0873523 -1.839163,0.3050872 -1.6914513,0.0769121 -1.6914513,0.0769121 -1.687497,0.0717444 -1.6826089,0.0674776 -1.6767678,0.0646022 -1.670329,0.0637874 -1.670329,0.0637874 -1.6660384,0.0641205 -1.6618922,0.0652653 -1.6581447,0.0673706 -1.655156,0.0704634 -1.6530597,0.0742167 -1.6517416,0.0783165 -1.6507155,0.0868494 -1.6506437,0.3696367 -1.6506437,0.3696367 -1.6514149,0.378789 -1.6526147,0.3832319 -1.6546618,0.3873454 -1.6577809,0.3907155 -1.6617708,0.3929906 -1.6662348,0.3940802 -1.6708319,0.394199 -1.6708319,0.394199 -1.6757009,0.3939415 -1.6804357,0.3927888 -1.6846658,0.390384 -1.6878462,0.3866971 -1.6898244,0.3822468 -1.6908861,0.3774847 -1.6915231,0.3677604z" transform="matrix(1,0,0,-1,5.588,2.032)" fill="rgb(104,104,104)" fill-rule="nonzero" shaper:cutDepth="0.0000762" stroke-linecap="round" stroke-linejoin="round" /><path d="M-1.7650916,-0.0076029 L-1.7650916,-0.0076029 -1.7561858,-0.0080671 -1.747366,-0.0093916 -1.738701,-0.0114995 -1.7302467,-0.0143397 -1.7220412,-0.0178333 -1.71414,-0.0219697 -1.7065973,-0.026728 -1.6994259,-0.03203 -1.6994259,-0.03203 -1.6921927,-0.0386793 -1.6856529,-0.0460151 -1.6797582,-0.0538762 -1.6745371,-0.0622007 -1.6699529,-0.0708927 -1.6659996,-0.0798892 -1.6597151,-0.0985037 -1.6553795,-0.1176695 -1.6525811,-0.1371194 -1.6510921,-0.1567152 -1.6507155,-0.176365 -1.6507155,-0.176365 -1.6511547,-0.1949221 -1.6525425,-0.2134284 -1.6551434,-0.23181 -1.6591931,-0.2499201 -1.6648908,-0.267588 -1.6725304,-0.2844958 -1.6771692,-0.2925441 -1.6823845,-0.300227 -1.6944687,-0.314306 -1.6944687,-0.314306 -1.7017721,-0.3205372 -1.7096686,-0.3259971 -1.717981,-0.3308009 -1.726714,-0.3347877 -1.7357373,-0.3380698 -1.7450368,-0.3404476 -1.7545023,-0.3420601 -1.7640857,-0.3426126 -1.7640857,-0.3426126 -1.7760697,-0.3416862 -1.787846,-0.3392686 -1.7992969,-0.3356142 -1.8103049,-0.3307827 -1.8207933,-0.3249085 -1.8306567,-0.3180383 -1.8397597,-0.3101863 -1.8478561,-0.3013022 -1.8478561,-0.3013022 -1.8569346,-0.2868516 -1.864101,-0.2713528 -1.8696701,-0.2552196 -1.8737893,-0.2386509 -1.8767186,-0.2218328 -1.8786557,-0.2048697 -1.8796946,-0.1878304 -1.8800423,-0.1707612 -1.8800423,-0.1707612 -1.8795653,-0.1534117 -1.8782007,-0.1361108 -1.8756652,-0.1189408 -1.8719327,-0.1019916 -1.8668196,-0.0854056 -1.8599979,-0.0694528 -1.8513245,-0.054417 -1.8406717,-0.0407231 -1.8406717,-0.0407231 -1.8328522,-0.0336202 -1.8243968,-0.0272877 -1.8154039,-0.0217446 -1.805961,-0.0170081 -1.7961227,-0.0131607 -1.7859848,-0.0101907 -1.7755899,-0.0083089 -1.7650553,-0.0075312 -1.7650916,-0.0076029z M-1.7252898,-0.0651502 L-1.7252898,-0.0651502 -1.7340376,-0.0584799 -1.7437749,-0.0533614 -1.7541697,-0.0498002 -1.7595721,-0.0487596 -1.7650553,-0.0483388 -1.7650916,-0.0484105 -1.7650916,-0.0484105 -1.7713538,-0.0489164 -1.7775144,-0.0501544 -1.7893306,-0.0544 -1.8002835,-0.0605441 -1.8052621,-0.0643778 -1.8098505,-0.0686705 -1.8098505,-0.0686705 -1.818346,-0.0794014 -1.8249197,-0.0914201 -1.8298645,-0.1041877 -1.8335355,-0.1173845 -1.8361911,-0.1308203 -1.8379163,-0.1444083 -1.839163,-0.171767 -1.839163,-0.171767 -1.8382452,-0.1983915 -1.8369342,-0.21165 -1.8349039,-0.2248161 -1.8319529,-0.2378085 -1.8277855,-0.2504566 -1.8223358,-0.2626179 -1.8153107,-0.2739295 -1.8153107,-0.2739295 -1.8106455,-0.2797162 -1.8053922,-0.2849729 -1.7996172,-0.2896534 -1.7933701,-0.2936782 -1.7867361,-0.2970347 -1.7797375,-0.299527 -1.7724994,-0.3012271 -1.7650916,-0.3018051 -1.7650916,-0.3018051 -1.7586086,-0.3013094 -1.7522363,-0.3000157 -1.7400946,-0.2953903 -1.7289887,-0.288649 -1.7193268,-0.2799644 -1.7193268,-0.2799644 -1.7111187,-0.2686434 -1.7047445,-0.2561909 -1.699971,-0.2430424 -1.6964778,-0.2294967 -1.6940668,-0.2157156 -1.6925569,-0.2018072 -1.6915231,-0.1738505 -1.6915231,-0.1738505 -1.6917799,-0.1592312 -1.6927901,-0.1446487 -1.694713,-0.1301528 -1.6976586,-0.1158335 -1.7019609,-0.1018608 -1.7078728,-0.0884946 -1.7155817,-0.0760696 -1.7252898,-0.0651502z" transform="matrix(1,0,0,-1,5.588,2.032)" fill="rgb(104,104,104)" fill-rule="nonzero" shaper:cutDepth="0.0000762" stroke-linecap="round" stroke-linejoin="round" /><path d="M-1.670329,-0.711941 L-1.670329,-0.711941 -1.6683892,-0.7143837 -1.6683892,-0.7143837 -1.6644173,-0.7205229 -1.6633471,-0.7240279 -1.6630009,-0.7276749 -1.6630009,-0.7276749 -1.6634074,-0.7316447 -1.6646253,-0.735443 -1.6665938,-0.7389126 -1.6692511,-0.7418889 -1.6724451,-0.7442791 -1.6760572,-0.745973 -1.6839076,-0.7472884 -1.6839076,-0.7472884 -1.6896832,-0.7467907 -1.6924507,-0.7458845 -1.694955,-0.7444223 -1.6992518,-0.7405347 -1.7028164,-0.7359662 -1.7951962,-0.6110717 -1.839163,-0.6110717 -1.839163,-0.7222147 -1.839163,-0.7222147 -1.8398314,-0.7318519 -1.8409558,-0.7365525 -1.842931,-0.7409596 -1.8458783,-0.7447903 -1.8498773,-0.747479 -1.8545241,-0.7487952 -1.8593512,-0.7490126 -1.8593512,-0.7490126 -1.8660791,-0.7480495 -1.872222,-0.7451654 -1.8748533,-0.7429992 -1.8769858,-0.7403456 -1.8785904,-0.7373403 -1.8795394,-0.734069 -1.8795394,-0.734069 -1.8800338,-0.7271636 -1.8799706,-0.7202323 -1.8800423,-0.447195 -1.8800423,-0.447195 -1.8800273,-0.4410927 -1.8791323,-0.4350585 -1.8768726,-0.4293948 -1.873051,-0.4246492 -1.8679254,-0.4213507 -1.8621241,-0.4194578 -1.8560801,-0.4186398 -1.8499778,-0.4185292 -1.7659537,-0.418601 -1.7659537,-0.418601 -1.7562237,-0.4190737 -1.7465509,-0.4202051 -1.7369773,-0.4220145 -1.7276142,-0.4246923 -1.7185512,-0.4282638 -1.70988,-0.4326996 -1.7017217,-0.4380208 -1.6941855,-0.4441907 -1.6873081,-0.4510886 -1.681222,-0.4586924 -1.676048,-0.4669444 -1.6718909,-0.4757527 -1.6686698,-0.4849444 -1.6664236,-0.4944227 -1.6650915,-0.5040711 -1.6645096,-0.5137946 -1.6645096,-0.5137946 -1.6658481,-0.530785 -1.6675295,-0.5391431 -1.6698254,-0.5473557 -1.6729126,-0.5553017 -1.6766917,-0.5629455 -1.6812391,-0.5701569 -1.6863839,-0.576956 -1.6921062,-0.5832764 -1.6984354,-0.5889888 -1.7052781,-0.5940756 -1.7125322,-0.5985542 -1.720211,-0.6022614 -1.7281634,-0.6053361 -1.7446597,-0.6096144 -1.670329,-0.711941z M-1.7643689,-0.4593368 L-1.839163,-0.4593368 -1.839163,-0.5702642 -1.7679653,-0.5702642 -1.7679653,-0.5702642 -1.7516486,-0.5695404 -1.7436509,-0.567865 -1.7361383,-0.5646603 -1.7361383,-0.5646603 -1.7294301,-0.5607394 -1.7233837,-0.55586 -1.7180168,-0.5502424 -1.7135234,-0.5439032 -1.7099641,-0.5369967 -1.7073901,-0.5296653 -1.7058549,-0.5220493 -1.7053171,-0.5142975 -1.7053171,-0.5142975 -1.7059392,-0.5064375 -1.7075682,-0.4987235 -1.7103924,-0.4913627 -1.7141622,-0.4844378 -1.7188784,-0.4781197 -1.7244089,-0.4725007 -1.7307265,-0.4677841 -1.7376471,-0.4640065 -1.7376471,-0.4640065 -1.7440161,-0.4615087 -1.7507059,-0.4600751 -1.7643689,-0.4593368z" transform="matrix(1,0,0,-1,5.588,2.032)" fill="rgb(104,104,104)" fill-rule="nonzero" shaper:cutDepth="0.0000762" stroke-linecap="round" stroke-linejoin="round" /><path d="M-1.6711193,-0.8380766 L-1.7561144,-0.9809285 -1.8411073,-0.8398954 -1.8411073,-0.8398954 -1.8443417,-0.8348118 -1.8481185,-0.8301249 -1.8504854,-0.8282463 -1.8531873,-0.8268838 -1.8591357,-0.8260068 -1.8591357,-0.8260068 -1.8639233,-0.8262605 -1.8685575,-0.8274764 -1.8727027,-0.8298699 -1.875926,-0.8334146 -1.8780764,-0.8376924 -1.8793332,-0.8423239 -1.8800423,-0.8518707 -1.8799706,-1.1284173 -1.8799706,-1.1284173 -1.8793969,-1.1380566 -1.8782924,-1.1427585 -1.876404,-1.1472082 -1.8734918,-1.1510526 -1.869512,-1.1537758 -1.8648944,-1.1551848 -1.8600696,-1.1554126 -1.8600696,-1.1554126 -1.8543576,-1.1546466 -1.8489951,-1.152567 -1.8443478,-1.1491424 -1.8411746,-1.1443486 -1.8411746,-1.1443486 -1.8393935,-1.1370272 -1.839163,-1.1294769 -1.839163,-0.9233234 -1.7774982,-1.0266153 -1.7774982,-1.0266153 -1.7738426,-1.0323806 -1.7693551,-1.0375215 -1.7665744,-1.0395094 -1.763399,-1.0408079 -1.7566139,-1.0415395 -1.7566139,-1.0415395 -1.7527818,-1.0414395 -1.7490203,-1.0406986 -1.7455254,-1.0391364 -1.7426022,-1.0366622 -1.7378734,-1.0306276 -1.7337675,-1.0241532 -1.6730592,-0.9233234 -1.6730592,-1.1304037 -1.6730592,-1.1304037 -1.6728864,-1.1379399 -1.6716222,-1.1453544 -1.6716222,-1.1453544 -1.668154,-1.1498194 -1.6634232,-1.1529396 -1.6580652,-1.154734 -1.6524398,-1.1554126 -1.6524398,-1.1554126 -1.6481701,-1.1550924 -1.6440314,-1.1540031 -1.6402712,-1.1519601 -1.6371741,-1.1490137 -1.6349668,-1.1453429 -1.6334929,-1.1413261 -1.6323234,-1.1328535 -1.6322516,-0.8465244 -1.6322516,-0.8465244 -1.6328809,-0.8381481 -1.6340858,-0.8341256 -1.6361972,-0.8304912 -1.6393041,-0.8276726 -1.6431049,-0.8258876 -1.6472321,-0.8251007 -1.651434,-0.825001 -1.651434,-0.825001 -1.6576585,-0.8256058 -1.6605854,-0.8267372 -1.6632415,-0.8284148 -1.667552,-0.8329394 -1.6711193,-0.8380766z" transform="matrix(1,0,0,-1,5.588,2.032)" fill="rgb(104,104,104)" fill-rule="nonzero" shaper:cutDepth="0.0000762" stroke-linecap="round" stroke-linejoin="round" /><path d="M-3.2118184,-1.6353051 L-3.2118184,-1.6353051 -3.2032171,-1.6362816 -3.199071,-1.6375774 -3.1952964,-1.6396982 -3.1922102,-1.6427431 -3.190054,-1.6465021 -3.1888648,-1.6506711 -3.188469,-1.6549904 -3.188469,-1.6549904 -3.1895242,-1.6614502 -3.1923319,-1.6673622 -3.1967657,-1.6721508 -3.2025505,-1.6751786 -3.2025505,-1.6751786 -3.2166289,-1.6761126 -3.3464545,-1.6761126 -3.3464545,-1.6761126 -3.3567323,-1.6757285 -3.3618177,-1.6749175 -3.3667512,-1.6734621 -3.3711294,-1.6707715 -3.3740773,-1.6665841 -3.3754846,-1.6616369 -3.375767,-1.6564991 -3.375767,-1.6564991 -3.3751266,-1.6479432 -3.3736776,-1.63948 -3.369512,-1.6228292 -3.3642178,-1.6065011 -3.3578777,-1.5905461 -3.3578777,-1.5905461 -3.3497568,-1.5739926 -3.3404089,-1.5581003 -3.329748,-1.5430573 -3.3178887,-1.5289402 -3.3048036,-1.5159507 -3.2907062,-1.5040666 -3.2757623,-1.4932674 -3.2601696,-1.4834264 -3.2601696,-1.4834264 -3.2536776,-1.4793551 -3.2475306,-1.4747827 -3.2419031,-1.4695824 -3.2370074,-1.4636878 -3.2332211,-1.4570319 -3.2305797,-1.4498404 -3.2292515,-1.4422953 -3.2288455,-1.4346441 -3.2288455,-1.4346441 -3.2298154,-1.4245573 -3.2325218,-1.4147977 -3.2370283,-1.4057227 -3.2432718,-1.3977459 -3.2508988,-1.3910773 -3.2596815,-1.3860306 -3.2693533,-1.3830211 -3.2794238,-1.3819105 -3.2794238,-1.3819105 -3.2859559,-1.3823498 -3.2923669,-1.3836779 -3.2985447,-1.3858438 -3.3043964,-1.3887812 -3.3098349,-1.3924242 -3.3147149,-1.396791 -3.3191308,-1.4016224 -3.3228896,-1.4069841 -3.3228896,-1.4069841 -3.3261931,-1.4130512 -3.3285996,-1.419519 -3.3302027,-1.4262466 -3.3305769,-1.4331354 -3.3305769,-1.4331354 -3.3300661,-1.4366558 -3.330074,-1.4396732 -3.330074,-1.4396732 -3.3312934,-1.4481536 -3.3328613,-1.4521432 -3.3351705,-1.4557603 -3.3383165,-1.4586684 -3.3420708,-1.460739 -3.3462115,-1.4618577 -3.3504778,-1.4623042 -3.3504778,-1.4623042 -3.3565401,-1.4612616 -3.3620779,-1.4585942 -3.3667104,-1.4545368 -3.3698039,-1.4492285 -3.3698039,-1.4492285 -3.3710631,-1.4412323 -3.3713126,-1.4331354 -3.3713126,-1.4331354 -3.3707241,-1.4241266 -3.3693285,-1.4152088 -3.3671592,-1.4064451 -3.3641188,-1.3979458 -3.3602519,-1.3897888 -3.3555868,-1.3820604 -3.3501091,-1.3748852 -3.3439965,-1.368242 -3.3372898,-1.3621998 -3.3300782,-1.3567695 -3.3223457,-1.3521117 -3.3141968,-1.3482281 -3.3056847,-1.3452219 -3.2969333,-1.3430087 -3.2879998,-1.3417097 -3.2789928,-1.3411029 -3.2789928,-1.3411029 -3.269924,-1.3417086 -3.2609303,-1.3430192 -3.2521207,-1.3452535 -3.2435785,-1.3483571 -3.235414,-1.3523496 -3.2277251,-1.3571955 -3.2205606,-1.3627874 -3.2139877,-1.3690647 -3.2080378,-1.3759353 -3.2027658,-1.3833384 -3.1982667,-1.3912355 -3.1946036,-1.399553 -3.1918027,-1.4081997 -3.1898056,-1.4170665 -3.1886061,-1.4260756 -3.188038,-1.435147 -3.188038,-1.435147 -3.1885071,-1.4449079 -3.1899501,-1.4545721 -3.1924055,-1.4640306 -3.1958092,-1.4731903 -3.2001918,-1.481924 -3.2054987,-1.4901287 -3.211663,-1.4977107 -3.2186436,-1.5045486 -3.2186436,-1.5045486 -3.2236578,-1.5090048 -3.2290697,-1.5129721 -3.2404124,-1.5201388 -3.2404124,-1.5201388 -3.2562223,-1.5301819 -3.2710249,-1.5416546 -3.2846824,-1.5544719 -3.2969752,-1.5686013 -3.3077416,-1.5839261 -3.3167858,-1.6003272 -3.3242739,-1.6174933 -3.3300661,-1.6353051 -3.2118184,-1.6353051z" transform="matrix(1,0,0,-1,5.588,2.032)" fill="rgb(104,104,104)" fill-rule="nonzero" shaper:cutDepth="0.0000762" stroke-linecap="round" stroke-linejoin="round" /><path d="M-2.8564049,-1.3411029 L-2.8564049,-1.3411029 -2.8474992,-1.3415671 -2.8386794,-1.3428916 -2.8300144,-1.3449995 -2.8215601,-1.3478397 -2.8133546,-1.3513333 -2.8054533,-1.3554697 -2.7979106,-1.360228 -2.7907393,-1.36553 -2.7907393,-1.36553 -2.783506,-1.3721793 -2.7769662,-1.3795151 -2.7710716,-1.3873762 -2.7658505,-1.3957007 -2.7612662,-1.4043927 -2.757313,-1.4133892 -2.7510285,-1.4320037 -2.7466929,-1.4511695 -2.7438945,-1.4706194 -2.7424055,-1.4902152 -2.7420289,-1.509865 -2.7420289,-1.509865 -2.7424681,-1.5284221 -2.7438559,-1.5469284 -2.7464568,-1.56531 -2.7505064,-1.5834201 -2.7562042,-1.601088 -2.7638437,-1.6179958 -2.7684826,-1.6260441 -2.7736979,-1.633727 -2.785782,-1.647806 -2.785782,-1.647806 -2.7930854,-1.6540372 -2.800982,-1.6594971 -2.8092944,-1.6643009 -2.8180273,-1.6682877 -2.8270507,-1.6715698 -2.8363502,-1.6739476 -2.8458157,-1.6755601 -2.8553991,-1.6761126 -2.8553991,-1.6761126 -2.867383,-1.6751862 -2.8791594,-1.6727686 -2.8906103,-1.6691142 -2.9016183,-1.6642827 -2.9121067,-1.6584085 -2.9219701,-1.6515383 -2.931073,-1.6436863 -2.9391695,-1.6348022 -2.9391695,-1.6348022 -2.9482479,-1.6203516 -2.9554144,-1.6048528 -2.9609835,-1.5887196 -2.9651027,-1.5721509 -2.968032,-1.5553328 -2.969969,-1.5383697 -2.971008,-1.5213304 -2.9713557,-1.5042612 -2.9713557,-1.5042612 -2.9708787,-1.4869117 -2.9695141,-1.4696108 -2.9669786,-1.4524408 -2.9632461,-1.4354916 -2.958133,-1.4189056 -2.9513113,-1.4029528 -2.9426379,-1.387917 -2.9319851,-1.3742231 -2.9319851,-1.3742231 -2.9241656,-1.3671202 -2.9157101,-1.3607877 -2.9067173,-1.3552446 -2.8972743,-1.3505081 -2.887436,-1.3466607 -2.8772982,-1.3436907 -2.8669033,-1.3418089 -2.8563687,-1.3410312 -2.8564049,-1.3411029z M-2.8166032,-1.3986502 L-2.8166032,-1.3986502 -2.825351,-1.3919799 -2.8350883,-1.3868614 -2.8454831,-1.3833002 -2.8508855,-1.3822596 -2.8563687,-1.3818388 -2.8564049,-1.3819105 -2.8564049,-1.3819105 -2.8626672,-1.3824164 -2.8688277,-1.3836544 -2.880644,-1.3879 -2.8915969,-1.3940441 -2.8965755,-1.3978778 -2.9011639,-1.4021705 -2.9011639,-1.4021705 -2.9096594,-1.4129014 -2.9162331,-1.4249201 -2.9211778,-1.4376877 -2.9248489,-1.4508845 -2.9275045,-1.4643203 -2.9292297,-1.4779083 -2.9304764,-1.505267 -2.9304764,-1.505267 -2.9295586,-1.5318915 -2.9282476,-1.54515 -2.9262172,-1.5583161 -2.9232663,-1.5713085 -2.9190989,-1.5839566 -2.9136491,-1.5961179 -2.9066241,-1.6074295 -2.9066241,-1.6074295 -2.9019589,-1.6132162 -2.8967056,-1.6184729 -2.8909306,-1.6231534 -2.8846835,-1.6271782 -2.8780494,-1.6305347 -2.8710509,-1.633027 -2.8638128,-1.6347271 -2.8564049,-1.6353051 -2.8564049,-1.6353051 -2.849922,-1.6348094 -2.8435497,-1.6335157 -2.831408,-1.6288903 -2.8203021,-1.622149 -2.8106402,-1.6134644 -2.8106402,-1.6134644 -2.8024321,-1.6021434 -2.7960579,-1.5896909 -2.7912844,-1.5765424 -2.7877911,-1.5629967 -2.7853802,-1.5492156 -2.7838703,-1.5353072 -2.7828364,-1.5073505 -2.7828364,-1.5073505 -2.7830933,-1.4927312 -2.7841034,-1.4781487 -2.7860264,-1.4636528 -2.788972,-1.4493335 -2.7932742,-1.4353608 -2.7991862,-1.4219946 -2.8068951,-1.4095696 -2.8166032,-1.3986502z" transform="matrix(1,0,0,-1,5.588,2.032)" fill="rgb(104,104,104)" fill-rule="nonzero" shaper:cutDepth="0.0000762" stroke-linecap="round" stroke-linejoin="round" /><path d="M-2.5336806,-1.469776 L-2.6453984,-1.469776 -2.6453984,-1.3864368 -2.4884743,-1.3864368 -2.4884743,-1.3864368 -2.479047,-1.3856895 -2.4744782,-1.3844172 -2.4702054,-1.3823811 -2.4665821,-1.3793317 -2.4640615,-1.3753314 -2.4626091,-1.3708241 -2.4621956,-1.3661047 -2.4621956,-1.3661047 -2.4627005,-1.3614246 -2.4641728,-1.356956 -2.4667922,-1.3530482 -2.4703651,-1.3499915 -2.4745958,-1.3479298 -2.4791334,-1.3466688 -2.4884906,-1.345701 -2.6570586,-1.3456292 -2.6570586,-1.3456292 -2.6629501,-1.3455123 -2.6687935,-1.3462275 -2.6743738,-1.3481139 -2.6791707,-1.3515187 -2.682705,-1.3562245 -2.6849144,-1.3616838 -2.6859766,-1.3674767 -2.6862778,-1.373361 -2.686206,-1.6493285 -2.686206,-1.6493285 -2.6861766,-1.6569859 -2.6858293,-1.660799 -2.684769,-1.6644739 -2.684769,-1.6644739 -2.6815498,-1.6693434 -2.6770334,-1.6730402 -2.6716593,-1.6753003 -2.665874,-1.6761126 -2.665874,-1.6761126 -2.659736,-1.6752446 -2.6540557,-1.6727628 -2.6495219,-1.6685624 -2.6469071,-1.6629651 -2.6469071,-1.6629651 -2.6458502,-1.6596939 -2.6455023,-1.6562699 -2.6453984,-1.6493866 -2.6453984,-1.5105836 -2.5351543,-1.5105836 -2.5351543,-1.5105836 -2.5269258,-1.5104104 -2.5188088,-1.5091466 -2.5188088,-1.5091466 -2.5134386,-1.5063361 -2.509207,-1.5020034 -2.5067581,-1.4964664 -2.5058769,-1.4904671 -2.5058769,-1.4904671 -2.5061662,-1.4854972 -2.507628,-1.4807422 -2.5104365,-1.4766385 -2.5143401,-1.4735589 -2.5189099,-1.4715873 -2.5237554,-1.470426 -2.5336806,-1.469776z" transform="matrix(1,0,0,-1,5.588,2.032)" fill="rgb(104,104,104)" fill-rule="nonzero" shaper:cutDepth="0.0000762" stroke-linecap="round" stroke-linejoin="round" /><path d="M-2.2577987,-1.469776 L-2.3695165,-1.469776 -2.3695165,-1.3864368 -2.2125924,-1.3864368 -2.2125924,-1.3864368 -2.2031651,-1.3856895 -2.1985963,-1.3844172 -2.1943235,-1.3823811 -2.1907003,-1.3793317 -2.1881796,-1.3753314 -2.1867272,-1.3708241 -2.1863137,-1.3661047 -2.1863137,-1.3661047 -2.1868186,-1.3614246 -2.1882909,-1.356956 -2.1909103,-1.3530482 -2.1944832,-1.3499915 -2.1987139,-1.3479298 -2.2032516,-1.3466688 -2.2126087,-1.345701 -2.3811767,-1.3456292 -2.3811767,-1.3456292 -2.3870682,-1.3455123 -2.3929116,-1.3462275 -2.3984919,-1.3481139 -2.4032888,-1.3515187 -2.4068231,-1.3562245 -2.4090325,-1.3616838 -2.4100947,-1.3674767 -2.4103959,-1.373361 -2.4103241,-1.6493285 -2.4103241,-1.6493285 -2.4102947,-1.6569859 -2.4099474,-1.660799 -2.4088872,-1.6644739 -2.4088872,-1.6644739 -2.4056679,-1.6693434 -2.4011515,-1.6730402 -2.3957774,-1.6753003 -2.3899921,-1.6761126 -2.3899921,-1.6761126 -2.3838541,-1.6752446 -2.3781738,-1.6727628 -2.3736401,-1.6685624 -2.3710252,-1.6629651 -2.3710252,-1.6629651 -2.3699683,-1.6596939 -2.3696204,-1.6562699 -2.3695165,-1.6493866 -2.3695165,-1.5105836 -2.2592724,-1.5105836 -2.2592724,-1.5105836 -2.2510439,-1.5104104 -2.242927,-1.5091466 -2.242927,-1.5091466 -2.2375567,-1.5063361 -2.2333251,-1.5020034 -2.2308762,-1.4964664 -2.229995,-1.4904671 -2.229995,-1.4904671 -2.2302843,-1.4854972 -2.2317461,-1.4807422 -2.2345546,-1.4766385 -2.2384582,-1.4735589 -2.243028,-1.4715873 -2.2478735,-1.470426 -2.2577987,-1.469776z" transform="matrix(1,0,0,-1,5.588,2.032)" fill="rgb(104,104,104)" fill-rule="nonzero" shaper:cutDepth="0.0000762" stroke-linecap="round" stroke-linejoin="round" /><path d="M-3.2615346,0.5309183 L-3.2615346,0.8165998 -3.2615346,0.8165998 -3.2622721,0.8247069 -3.263401,0.828626 -3.2652427,0.8322568 -3.2679304,0.8353208 -3.2714344,0.8373841 -3.2753531,0.8384979 -3.2794238,0.838699 -3.2794238,0.838699 -3.2840426,0.8381358 -3.2884005,0.8365084 -3.2922376,0.8338808 -3.2954451,0.8305088 -3.2954451,0.8305088 -3.2969742,0.8268722 -3.2975754,0.8229645 -3.297816,0.8150623 -3.2977442,0.530941 -3.2977442,0.530941 -3.2977273,0.524547 -3.2974059,0.521368 -3.2963791,0.5183456 -3.2963791,0.5183456 -3.2934494,0.5140937 -3.2893352,0.5109526 -3.2845412,0.5090276 -3.2794238,0.5082874 -3.2794238,0.5082874 -3.2748064,0.50885 -3.2704508,0.5104753 -3.2665126,0.5129627 -3.2634744,0.5164776 -3.2634744,0.5164776 -3.261758,0.5235874 -3.2615346,0.5309183z" transform="matrix(1,0,0,-1,5.588,2.032)" fill="rgb(104,104,104)" fill-rule="nonzero" shaper:cutDepth="0.0000762" stroke-linecap="round" stroke-linejoin="round" /><path d="M-2.8564049,0.8432971 L-2.8564049,0.8432971 -2.8474992,0.8428329 -2.8386794,0.8415084 -2.8300144,0.8394005 -2.8215601,0.8365603 -2.8133546,0.8330667 -2.8054533,0.8289303 -2.7979106,0.824172 -2.7907393,0.81887 -2.7907393,0.81887 -2.783506,0.8122207 -2.7769662,0.8048849 -2.7710716,0.7970238 -2.7658505,0.7886993 -2.7612662,0.7800073 -2.757313,0.7710108 -2.7510285,0.7523963 -2.7466929,0.7332305 -2.7438945,0.7137806 -2.7424055,0.6941848 -2.7420289,0.674535 -2.7420289,0.674535 -2.7424681,0.6559779 -2.7438559,0.6374716 -2.7464568,0.61909 -2.7505064,0.6009799 -2.7562042,0.583312 -2.7638437,0.5664042 -2.7684826,0.5583559 -2.7736979,0.550673 -2.785782,0.536594 -2.785782,0.536594 -2.7930854,0.5303628 -2.800982,0.5249029 -2.8092944,0.5200991 -2.8180273,0.5161123 -2.8270507,0.5128302 -2.8363502,0.5104524 -2.8458157,0.5088399 -2.8553991,0.5082874 -2.8553991,0.5082874 -2.867383,0.5092138 -2.8791594,0.5116314 -2.8906103,0.5152858 -2.9016183,0.5201173 -2.9121067,0.5259915 -2.9219701,0.5328617 -2.931073,0.5407137 -2.9391695,0.5495978 -2.9391695,0.5495978 -2.9482479,0.5640484 -2.9554144,0.5795472 -2.9609835,0.5956804 -2.9651027,0.6122491 -2.968032,0.6290672 -2.969969,0.6460303 -2.971008,0.6630696 -2.9713557,0.6801388 -2.9713557,0.6801388 -2.9708787,0.6974883 -2.9695141,0.7147892 -2.9669786,0.7319592 -2.9632461,0.7489084 -2.958133,0.7654944 -2.9513113,0.7814472 -2.9426379,0.796483 -2.9319851,0.8101769 -2.9319851,0.8101769 -2.9241656,0.8172798 -2.9157101,0.8236123 -2.9067173,0.8291554 -2.8972743,0.8338919 -2.887436,0.8377393 -2.8772982,0.8407093 -2.8669033,0.8425911 -2.8563687,0.8433688 -2.8564049,0.8432971z M-2.8166032,0.7857498 L-2.8166032,0.7857498 -2.825351,0.7924201 -2.8350883,0.7975386 -2.8454831,0.8010998 -2.8508855,0.8021404 -2.8563687,0.8025612 -2.8564049,0.8024895 -2.8564049,0.8024895 -2.8626672,0.8019836 -2.8688277,0.8007456 -2.880644,0.7965 -2.8915969,0.7903559 -2.8965755,0.7865222 -2.9011639,0.7822295 -2.9011639,0.7822295 -2.9096594,0.7714986 -2.9162331,0.7594799 -2.9211778,0.7467123 -2.9248489,0.7335155 -2.9275045,0.7200797 -2.9292297,0.7064917 -2.9304764,0.679133 -2.9304764,0.679133 -2.9295586,0.6525085 -2.9282476,0.63925 -2.9262172,0.6260839 -2.9232663,0.6130915 -2.9190989,0.6004434 -2.9136491,0.5882821 -2.9066241,0.5769705 -2.9066241,0.5769705 -2.9019589,0.5711838 -2.8967056,0.5659271 -2.8909306,0.5612466 -2.8846835,0.5572218 -2.8780494,0.5538653 -2.8710509,0.551373 -2.8638128,0.5496729 -2.8564049,0.5490949 -2.8564049,0.5490949 -2.849922,0.5495906 -2.8435497,0.5508843 -2.831408,0.5555097 -2.8203021,0.562251 -2.8106402,0.5709356 -2.8106402,0.5709356 -2.8024321,0.5822566 -2.7960579,0.5947091 -2.7912844,0.6078576 -2.7877911,0.6214033 -2.7853802,0.6351844 -2.7838703,0.6490928 -2.7828364,0.6770495 -2.7828364,0.6770495 -2.7830933,0.6916688 -2.7841034,0.7062513 -2.7860264,0.7207472 -2.788972,0.7350665 -2.7932742,0.7490392 -2.7991862,0.7624054 -2.8068951,0.7748304 -2.8166032,0.7857498z" transform="matrix(1,0,0,-1,5.588,2.032)" fill="rgb(104,104,104)" fill-rule="nonzero" shaper:cutDepth="0.0000762" stroke-linecap="round" stroke-linejoin="round" /><path d="M-2.5336806,0.714624 L-2.6453984,0.714624 -2.6453984,0.7979632 -2.4884743,0.7979632 -2.4884743,0.7979632 -2.479047,0.7987105 -2.4744782,0.7999828 -2.4702054,0.8020189 -2.4665821,0.8050683 -2.4640615,0.8090686 -2.4626091,0.8135759 -2.4621956,0.8182953 -2.4621956,0.8182953 -2.4627005,0.8229754 -2.4641728,0.827444 -2.4667922,0.8313518 -2.4703651,0.8344085 -2.4745958,0.8364702 -2.4791334,0.8377312 -2.4884906,0.838699 -2.6570586,0.8387708 -2.6570586,0.8387708 -2.6629501,0.8388877 -2.6687935,0.8381725 -2.6743738,0.8362861 -2.6791707,0.8328813 -2.682705,0.8281755 -2.6849144,0.8227162 -2.6859766,0.8169233 -2.6862778,0.811039 -2.686206,0.5350715 -2.686206,0.5350715 -2.6861766,0.5274141 -2.6858293,0.523601 -2.684769,0.5199261 -2.684769,0.5199261 -2.6815498,0.5150566 -2.6770334,0.5113598 -2.6716593,0.5090997 -2.665874,0.5082874 -2.665874,0.5082874 -2.659736,0.5091554 -2.6540557,0.5116372 -2.6495219,0.5158376 -2.6469071,0.5214349 -2.6469071,0.5214349 -2.6458502,0.5247061 -2.6455023,0.5281301 -2.6453984,0.5350134 -2.6453984,0.6738164 -2.5351543,0.6738164 -2.5351543,0.6738164 -2.5269258,0.6739896 -2.5188088,0.6752534 -2.5188088,0.6752534 -2.5134386,0.6780639 -2.509207,0.6823966 -2.5067581,0.6879336 -2.5058769,0.6939329 -2.5058769,0.6939329 -2.5061662,0.6989028 -2.507628,0.7036578 -2.5104365,0.7077615 -2.5143401,0.7108411 -2.5189099,0.7128127 -2.5237554,0.713974 -2.5336806,0.714624z" transform="matrix(1,0,0,-1,5.588,2.032)" fill="rgb(104,104,104)" fill-rule="nonzero" shaper:cutDepth="0.0000762" stroke-linecap="round" stroke-linejoin="round" /><path d="M-2.2577987,0.714624 L-2.3695165,0.714624 -2.3695165,0.7979632 -2.2125924,0.7979632 -2.2125924,0.7979632 -2.2031651,0.7987105 -2.1985963,0.7999828 -2.1943235,0.8020189 -2.1907003,0.8050683 -2.1881796,0.8090686 -2.1867272,0.8135759 -2.1863137,0.8182953 -2.1863137,0.8182953 -2.1868186,0.8229754 -2.1882909,0.827444 -2.1909103,0.8313518 -2.1944832,0.8344085 -2.1987139,0.8364702 -2.2032516,0.8377312 -2.2126087,0.838699 -2.3811767,0.8387708 -2.3811767,0.8387708 -2.3870682,0.8388877 -2.3929116,0.8381725 -2.3984919,0.8362861 -2.4032888,0.8328813 -2.4068231,0.8281755 -2.4090325,0.8227162 -2.4100947,0.8169233 -2.4103959,0.811039 -2.4103241,0.5350715 -2.4103241,0.5350715 -2.4102947,0.5274141 -2.4099474,0.523601 -2.4088872,0.5199261 -2.4088872,0.5199261 -2.4056679,0.5150566 -2.4011515,0.5113598 -2.3957774,0.5090997 -2.3899921,0.5082874 -2.3899921,0.5082874 -2.3838541,0.5091554 -2.3781738,0.5116372 -2.3736401,0.5158376 -2.3710252,0.5214349 -2.3710252,0.5214349 -2.3699683,0.5247061 -2.3696204,0.5281301 -2.3695165,0.5350134 -2.3695165,0.6738164 -2.2592724,0.6738164 -2.2592724,0.6738164 -2.2510439,0.6739896 -2.242927,0.6752534 -2.242927,0.6752534 -2.2375567,0.6780639 -2.2333251,0.6823966 -2.2308762,0.6879336 -2.229995,0.6939329 -2.229995,0.6939329 -2.2302843,0.6989028 -2.2317461,0.7036578 -2.2345546,0.7077615 -2.2384582,0.7108411 -2.243028,0.7128127 -2.2478735,0.713974 -2.2577987,0.714624z" transform="matrix(1,0,0,-1,5.588,2.032)" fill="rgb(104,104,104)" fill-rule="nonzero" shaper:cutDepth="0.0000762" stroke-linecap="round" stroke-linejoin="round" /><path d="M-2.876429,1.3681477 L-2.9978505,1.1640736 -3.119269,1.3655494 -3.119269,1.3655494 -3.1238896,1.3728117 -3.129285,1.3795072 -3.1326663,1.382191 -3.1365261,1.3841375 -3.1406985,1.38509 -3.1450238,1.3853903 -3.1450238,1.3853903 -3.1518633,1.3850278 -3.1584836,1.3832909 -3.1644053,1.3798716 -3.16901,1.3748078 -3.172082,1.3686966 -3.1738774,1.3620801 -3.1747348,1.3552917 -3.1748905,1.3484419 -3.1747879,0.9533753 -3.1747879,0.9533753 -3.1739684,0.9396048 -3.1723906,0.9328879 -3.1696929,0.9265312 -3.1655326,0.9210391 -3.1598471,0.9171488 -3.1532505,0.9151359 -3.146358,0.9148105 -3.146358,0.9148105 -3.138198,0.9159048 -3.1305373,0.9188757 -3.127008,0.9210748 -3.1238982,0.9237681 -3.1193651,0.9306163 -3.1193651,0.9306163 -3.1177265,0.9357567 -3.1168207,0.9410755 -3.1164914,0.9518616 -3.1164914,1.2463665 -3.0283988,1.0988068 -3.0283988,1.0988068 -3.0231766,1.0905706 -3.0167658,1.0832264 -3.0127934,1.0803865 -3.0082571,1.0785316 -3.0034593,1.0777043 -2.9985642,1.0774864 -2.9985642,1.0774864 -2.9930896,1.0776293 -2.9877161,1.0786877 -2.9827234,1.0809194 -2.9785475,1.0844539 -2.971792,1.0930748 -2.9659264,1.102324 -2.8792003,1.2463665 -2.8792003,0.9505376 -2.8792003,0.9505376 -2.8789535,0.9397715 -2.8784073,0.9344099 -2.8771474,0.9291794 -2.8771474,0.9291794 -2.8721929,0.9228009 -2.8689961,0.9203236 -2.8654345,0.9183435 -2.8577802,0.9157799 -2.849744,0.9148105 -2.849744,0.9148105 -2.8436444,0.915268 -2.8377319,0.9168241 -2.8323603,0.9197428 -2.8279359,0.9239519 -2.8247825,0.9291959 -2.822677,0.9349341 -2.8215347,0.9409441 -2.8210063,0.9470378 -2.8209037,1.3560794 -2.8209037,1.3560794 -2.8218027,1.3680456 -2.823524,1.373792 -2.8265402,1.3789839 -2.8309787,1.3830105 -2.8364085,1.3855606 -2.8423043,1.3866847 -2.8483071,1.3868272 -2.8483071,1.3868272 -2.8571993,1.3859631 -2.8613805,1.3843468 -2.865175,1.3819503 -2.8713328,1.3754865 -2.876429,1.3681477z" transform="matrix(1,0,0,-1,5.588,2.032)" fill="rgb(104,104,104)" fill-rule="nonzero" shaper:cutDepth="0.0000762" stroke-linecap="round" stroke-linejoin="round" /><path d="M-2.5569274,1.3868272 L-2.5568694,1.3869297 -2.5568694,1.3869297 -2.5758833,1.385723 -2.5946731,1.3825769 -2.6129212,1.3771032 -2.6303823,1.3694855 -2.6467214,1.359688 -2.6618279,1.3480768 -2.675649,1.3349664 -2.688197,1.3206279 -2.688197,1.3206279 -2.7013296,1.3024115 -2.7130859,1.2832786 -2.7232429,1.2632502 -2.7317923,1.2424851 -2.7386804,1.221111 -2.7437514,1.1992354 -2.7468639,1.1769955 -2.7479304,1.154565 -2.7479304,1.154565 -2.7469435,1.1319128 -2.7443633,1.1093865 -2.7399437,1.087148 -2.7338996,1.0652944 -2.7260793,1.0440125 -2.7165951,1.0234181 -2.7053525,1.003728 -2.6924051,0.9851153 -2.6924051,0.9851153 -2.6799335,0.9702355 -2.6662647,0.9564527 -2.6512405,0.9441541 -2.6348906,0.9336925 -2.6262664,0.9292216 -2.6173752,0.9253183 -2.6082346,0.9220524 -2.5988907,0.9193978 -2.5893996,0.9173071 -2.5798006,0.915869 -2.5604169,0.9148105 -2.5604169,0.9148105 -2.5443327,0.9156098 -2.528418,0.9180678 -2.5128736,0.9222745 -2.4978417,0.9280496 -2.4835747,0.9355176 -2.4702121,0.9445058 -2.4577965,0.9547605 -2.4462872,0.9660252 -2.4462872,0.9660252 -2.4387469,0.9743739 -2.4316737,0.9831204 -2.4258243,0.992753 -2.4241282,0.9980832 -2.4235023,1.0036921 -2.4235023,1.0036921 -2.4240078,1.0094358 -2.4253424,1.015044 -2.4278008,1.020257 -2.4312579,1.0248696 -2.4355861,1.0286756 -2.4406404,1.0314444 -2.4461962,1.0329798 -2.4519321,1.0335588 -2.4519321,1.0335588 -2.4597389,1.0328992 -2.4635239,1.0318647 -2.4670869,1.0302124 -2.4731979,1.0253183 -2.4782066,1.0192926 -2.4782066,1.0192926 -2.4856958,1.0100956 -2.4937459,1.001385 -2.5025747,0.9934676 -2.5121177,0.9864219 -2.5224382,0.9805807 -2.5335125,0.9763513 -2.5450898,0.9737644 -2.5569274,0.973107 -2.5569274,0.973107 -2.5685416,0.9735282 -2.5800165,0.9753741 -2.5911913,0.9785595 -2.6018503,0.9831957 -2.6119128,0.9890062 -2.6212581,0.9959199 -2.6299014,1.0036863 -2.6378034,1.0122108 -2.6378034,1.0122108 -2.6494371,1.0271839 -2.6596325,1.0431717 -2.6683994,1.0599848 -2.6757113,1.0774804 -2.6815365,1.0955255 -2.6858538,1.1139891 -2.6885841,1.1327535 -2.6895313,1.1516913 -2.6895313,1.1516913 -2.6887238,1.1667595 -2.6870672,1.1817542 -2.6845305,1.1966317 -2.6809993,1.2112988 -2.676372,1.2256624 -2.6706768,1.2396341 -2.6639014,1.2531162 -2.6561117,1.266039 -2.6473351,1.2783116 -2.6375727,1.2898181 -2.6267794,1.3003574 -2.6148782,1.3096355 -2.6018923,1.3173032 -2.5879612,1.3230959 -2.5733596,1.3268897 -2.5583642,1.3285307 -2.5583642,1.3285307 -2.5476642,1.3278644 -2.5371351,1.3258371 -2.5269557,1.3224794 -2.5173239,1.3177682 -2.5082934,1.3119886 -2.4999272,1.3052837 -2.4923258,1.2977217 -2.4852884,1.2896322 -2.4852884,1.2896322 -2.4789798,1.2818709 -2.4719611,1.2747425 -2.4678652,1.2718564 -2.4632796,1.2698069 -2.4583934,1.26884 -2.453369,1.2685921 -2.453369,1.2685921 -2.4475756,1.2692796 -2.4420016,1.2709991 -2.4369431,1.2739029 -2.4325376,1.2777269 -2.4289351,1.2823142 -2.4263684,1.287554 -2.4247741,1.2931628 -2.4242208,1.298972 -2.4242208,1.298972 -2.4250539,1.3065073 -2.4279616,1.3135142 -2.4322563,1.3197731 -2.4370501,1.325657 -2.4370501,1.325657 -2.4488283,1.3384496 -2.4615955,1.3502484 -2.4753663,1.3608677 -2.4901409,1.3700312 -2.5059161,1.3773415 -2.5224829,1.3826082 -2.5395711,1.385822 -2.5569274,1.3868272z" transform="matrix(1,0,0,-1,5.588,2.032)" fill="rgb(104,104,104)" fill-rule="nonzero" shaper:cutDepth="0.0000762" stroke-linecap="round" stroke-linejoin="round" /><path d="M2.8864191,-1.3721396 L2.8864908,-1.5864291 2.7382897,-1.3597552 2.7382897,-1.3597552 2.7342696,-1.3544376 2.7295253,-1.349768 2.7236804,-1.3465712 2.7170822,-1.345701 2.7170822,-1.345701 2.7113508,-1.3465182 2.7061073,-1.3489525 2.7016889,-1.3527058 2.6989056,-1.3577708 2.6989056,-1.3577708 2.6979784,-1.3644779 2.6978998,-1.3712775 2.6979716,-1.6494775 2.6979716,-1.6494775 2.6981215,-1.6578825 2.6986394,-1.6620525 2.6999114,-1.6660544 2.6999114,-1.6660544 2.7032514,-1.670329 2.7076168,-1.673549 2.7127042,-1.6754222 2.718088,-1.6761126 2.718088,-1.6761126 2.722508,-1.6757221 2.7267883,-1.6745583 2.7306664,-1.6724063 2.7338543,-1.6693322 2.7361092,-1.6655064 2.7376123,-1.6613356 2.7387792,-1.6525477 2.7387792,-1.4348128 2.8864908,-1.6629879 2.8864908,-1.6629879 2.8904451,-1.6681556 2.8953332,-1.6724224 2.9011743,-1.6752978 2.9076131,-1.6761126 2.9076131,-1.6761126 2.9119037,-1.6757795 2.9160499,-1.6746347 2.9197974,-1.6725294 2.9227862,-1.6694366 2.9248824,-1.6656833 2.9262005,-1.6615835 2.9272266,-1.6530506 2.9272984,-1.3702633 2.9272984,-1.3702633 2.9265272,-1.361111 2.9253274,-1.3566681 2.9232803,-1.3525546 2.9201613,-1.3491845 2.9161714,-1.3469094 2.9117073,-1.3458198 2.9071102,-1.345701 2.9071102,-1.345701 2.9022413,-1.3459585 2.8975065,-1.3471112 2.8932763,-1.349516 2.890096,-1.3532029 2.8881177,-1.3576532 2.8870561,-1.3624153 2.8864191,-1.3721396z" transform="matrix(1,0,0,-1,5.588,2.032)" fill="rgb(104,104,104)" fill-rule="nonzero" shaper:cutDepth="0.0000762" stroke-linecap="round" stroke-linejoin="round" /><path d="M3.0933305,-1.3411029 L3.0933305,-1.3411029 3.1022363,-1.3415671 3.111056,-1.3428916 3.1197211,-1.3449995 3.1281754,-1.3478397 3.1363808,-1.3513333 3.1442821,-1.3554697 3.1518248,-1.360228 3.1589961,-1.36553 3.1589961,-1.36553 3.1662294,-1.3721793 3.1727692,-1.3795151 3.1786639,-1.3873762 3.1838849,-1.3957007 3.1884692,-1.4043927 3.1924224,-1.4133892 3.1987069,-1.4320037 3.2030425,-1.4511695 3.205841,-1.4706194 3.2073299,-1.4902152 3.2077065,-1.509865 3.2077065,-1.509865 3.2072673,-1.5284221 3.2058795,-1.5469284 3.2032787,-1.56531 3.199229,-1.5834201 3.1935312,-1.601088 3.1858917,-1.6179958 3.1812529,-1.6260441 3.1760375,-1.633727 3.1639534,-1.647806 3.1639534,-1.647806 3.15665,-1.6540372 3.1487534,-1.6594971 3.140441,-1.6643009 3.1317081,-1.6682877 3.1226847,-1.6715698 3.1133852,-1.6739476 3.1039197,-1.6755601 3.0943363,-1.6761126 3.0943363,-1.6761126 3.0823524,-1.6751862 3.070576,-1.6727686 3.0591252,-1.6691142 3.0481171,-1.6642827 3.0376287,-1.6584085 3.0277653,-1.6515383 3.0186624,-1.6436863 3.0105659,-1.6348022 3.0105659,-1.6348022 3.0014875,-1.6203516 2.994321,-1.6048528 2.9887519,-1.5887196 2.9846327,-1.5721509 2.9817034,-1.5553328 2.9797664,-1.5383697 2.9787274,-1.5213304 2.9783797,-1.5042612 2.9783797,-1.5042612 2.9788568,-1.4869117 2.9802213,-1.4696108 2.9827569,-1.4524408 2.9864893,-1.4354916 2.9916025,-1.4189056 2.9984242,-1.4029528 3.0070976,-1.387917 3.0177504,-1.3742231 3.0177504,-1.3742231 3.0255698,-1.3671202 3.0340253,-1.3607877 3.0430182,-1.3552446 3.0524611,-1.3505081 3.0622994,-1.3466607 3.0724372,-1.3436907 3.0828321,-1.3418089 3.0933668,-1.3410312 3.0933305,-1.3411029z M3.1331322,-1.3986502 L3.1331322,-1.3986502 3.1243845,-1.3919799 3.1146471,-1.3868614 3.1042524,-1.3833002 3.0988499,-1.3822596 3.0933668,-1.3818388 3.0933305,-1.3819105 3.0933305,-1.3819105 3.0870682,-1.3824164 3.0809077,-1.3836544 3.0690914,-1.3879 3.0581386,-1.3940441 3.0531599,-1.3978778 3.0485715,-1.4021705 3.0485715,-1.4021705 3.040076,-1.4129014 3.0335024,-1.4249201 3.0285576,-1.4376877 3.0248865,-1.4508845 3.022231,-1.4643203 3.0205057,-1.4779083 3.0192591,-1.505267 3.0192591,-1.505267 3.0201768,-1.5318915 3.0214878,-1.54515 3.0235182,-1.5583161 3.0264692,-1.5713085 3.0306365,-1.5839566 3.0360863,-1.5961179 3.0431114,-1.6074295 3.0431114,-1.6074295 3.0477765,-1.6132162 3.0530298,-1.6184729 3.0588048,-1.6231534 3.0650519,-1.6271782 3.071686,-1.6305347 3.0786845,-1.633027 3.0859226,-1.6347271 3.0933305,-1.6353051 3.0933305,-1.6353051 3.0998134,-1.6348094 3.1061857,-1.6335157 3.1183275,-1.6288903 3.1294333,-1.622149 3.1390953,-1.6134644 3.1390953,-1.6134644 3.1473034,-1.6021434 3.1536775,-1.5896909 3.1584511,-1.5765424 3.1619443,-1.5629967 3.1643552,-1.5492156 3.1658651,-1.5353072 3.166899,-1.5073505 3.166899,-1.5073505 3.1666422,-1.4927312 3.165632,-1.4781487 3.1637091,-1.4636528 3.1607634,-1.4493335 3.1564612,-1.4353608 3.1505492,-1.4219946 3.1428404,-1.4095696 3.1331322,-1.3986502z" transform="matrix(1,0,0,-1,5.588,2.032)" fill="rgb(104,104,104)" fill-rule="nonzero" shaper:cutDepth="0.0000762" stroke-linecap="round" stroke-linejoin="round" /><path d="M3.473171,-1.639041 L3.473171,-1.639041 3.4751108,-1.6414837 3.4751108,-1.6414837 3.4790827,-1.6476229 3.4801529,-1.6511279 3.4804991,-1.6547749 3.4804991,-1.6547749 3.4800926,-1.6587447 3.4788747,-1.662543 3.4769062,-1.6660126 3.4742489,-1.6689889 3.4710549,-1.6713791 3.4674428,-1.673073 3.4595924,-1.6743884 3.4595924,-1.6743884 3.4538168,-1.6738907 3.4510493,-1.6729845 3.448545,-1.6715223 3.4442482,-1.6676347 3.4406836,-1.6630662 3.3483038,-1.5381717 3.304337,-1.5381717 3.304337,-1.6493147 3.304337,-1.6493147 3.3036686,-1.6589519 3.3025442,-1.6636525 3.300569,-1.6680596 3.2976217,-1.6718903 3.2936227,-1.674579 3.2889759,-1.6758952 3.2841488,-1.6761126 3.2841488,-1.6761126 3.2774209,-1.6751495 3.271278,-1.6722654 3.2686467,-1.6700992 3.2665142,-1.6674456 3.2649096,-1.6644403 3.2639606,-1.661169 3.2639606,-1.661169 3.2634662,-1.6542636 3.2635294,-1.6473323 3.2634577,-1.374295 3.2634577,-1.374295 3.2634727,-1.3681927 3.2643677,-1.3621585 3.2666274,-1.3564948 3.270449,-1.3517492 3.2755746,-1.3484507 3.2813759,-1.3465578 3.2874199,-1.3457398 3.2935222,-1.3456292 3.3775463,-1.345701 3.3775463,-1.345701 3.3872763,-1.3461737 3.3969491,-1.3473051 3.4065227,-1.3491145 3.4158858,-1.3517923 3.4249488,-1.3553638 3.43362,-1.3597996 3.4417783,-1.3651208 3.4493145,-1.3712907 3.4561919,-1.3781886 3.462278,-1.3857924 3.467452,-1.3940444 3.4716091,-1.4028527 3.4748302,-1.4120444 3.4770764,-1.4215227 3.4784085,-1.4311711 3.4789904,-1.4408946 3.4789904,-1.4408946 3.4776519,-1.457885 3.4759705,-1.4662431 3.4736746,-1.4744557 3.4705874,-1.4824017 3.4668083,-1.4900455 3.4622609,-1.4972569 3.4571161,-1.504056 3.4513938,-1.5103764 3.4450646,-1.5160888 3.4382219,-1.5211756 3.4309678,-1.5256542 3.423289,-1.5293614 3.4153366,-1.5324361 3.3988403,-1.5367144 3.473171,-1.639041z M3.3791311,-1.3864368 L3.304337,-1.3864368 3.304337,-1.4973642 3.3755347,-1.4973642 3.3755347,-1.4973642 3.3918514,-1.4966404 3.3998491,-1.494965 3.4073617,-1.4917603 3.4073617,-1.4917603 3.4140699,-1.4878394 3.4201163,-1.48296 3.4254832,-1.4773424 3.4299766,-1.4710032 3.4335359,-1.4640967 3.4361099,-1.4567653 3.4376451,-1.4491493 3.4381829,-1.4413975 3.4381829,-1.4413975 3.4375608,-1.4335375 3.4359318,-1.4258235 3.4331076,-1.4184627 3.4293378,-1.4115378 3.4246216,-1.4052197 3.4190911,-1.3996007 3.4127735,-1.3948841 3.4058529,-1.3911065 3.4058529,-1.3911065 3.3994839,-1.3886087 3.3927941,-1.3871751 3.3791311,-1.3864368z" transform="matrix(1,0,0,-1,5.588,2.032)" fill="rgb(104,104,104)" fill-rule="nonzero" shaper:cutDepth="0.0000762" stroke-linecap="round" stroke-linejoin="round" /><path d="M3.7390665,-1.3587766 L3.6540714,-1.5016285 3.5690785,-1.3605954 3.5690785,-1.3605954 3.5658441,-1.3555118 3.5620673,-1.3508249 3.5597004,-1.3489463 3.5569986,-1.3475838 3.5510502,-1.3467068 3.5510502,-1.3467068 3.5462625,-1.3469605 3.5416283,-1.3481764 3.5374831,-1.3505699 3.5342598,-1.3541146 3.5321094,-1.3583924 3.5308526,-1.3630239 3.5301435,-1.3725707 3.5302153,-1.6491173 3.5302153,-1.6491173 3.5307889,-1.6587566 3.5318934,-1.6634585 3.5337818,-1.6679082 3.536694,-1.6717526 3.5406739,-1.6744758 3.5452915,-1.6758848 3.5501162,-1.6761126 3.5501162,-1.6761126 3.5558282,-1.6753466 3.5611907,-1.673267 3.5658381,-1.6698424 3.5690112,-1.6650486 3.5690112,-1.6650486 3.5707923,-1.6577272 3.5710229,-1.6501769 3.5710229,-1.4440234 3.6326877,-1.5473153 3.6326877,-1.5473153 3.6363432,-1.5530806 3.6408307,-1.5582215 3.6436114,-1.5602094 3.6467869,-1.5615079 3.6535719,-1.5622395 3.6535719,-1.5622395 3.6574041,-1.5621395 3.6611656,-1.5613986 3.6646604,-1.5598364 3.6675836,-1.5573622 3.6723124,-1.5513276 3.6764184,-1.5448532 3.7371266,-1.4440234 3.7371266,-1.6511037 3.7371266,-1.6511037 3.7372994,-1.6586399 3.7385636,-1.6660544 3.7385636,-1.6660544 3.7420318,-1.6705194 3.7467626,-1.6736396 3.7521207,-1.675434 3.757746,-1.6761126 3.757746,-1.6761126 3.7620157,-1.6757924 3.7661545,-1.6747031 3.7699146,-1.6726601 3.7730117,-1.6697137 3.7752191,-1.6660429 3.7766929,-1.6620261 3.7778624,-1.6535535 3.7779342,-1.3672244 3.7779342,-1.3672244 3.7773049,-1.3588481 3.7761,-1.3548256 3.7739887,-1.3511912 3.7708817,-1.3483726 3.7670809,-1.3465876 3.7629538,-1.3458007 3.7587519,-1.345701 3.7587519,-1.345701 3.7525273,-1.3463058 3.7496005,-1.3474372 3.7469443,-1.3491148 3.7426339,-1.3536394 3.7390665,-1.3587766z" transform="matrix(1,0,0,-1,5.588,2.032)" fill="rgb(104,104,104)" fill-rule="nonzero" shaper:cutDepth="0.0000762" stroke-linecap="round" stroke-linejoin="round" /><path d="M2.7806644,0.8432971 L2.7806644,0.8432971 2.7895701,0.8428329 2.7983899,0.8415084 2.8070549,0.8394005 2.8155092,0.8365603 2.8237147,0.8330667 2.831616,0.8289303 2.8391587,0.824172 2.84633,0.81887 2.84633,0.81887 2.8535632,0.8122207 2.860103,0.8048849 2.8659977,0.7970238 2.8712188,0.7886993 2.8758031,0.7800073 2.8797563,0.7710108 2.8860408,0.7523963 2.8903764,0.7332305 2.8931748,0.7137806 2.8946638,0.6941848 2.8950404,0.674535 2.8950404,0.674535 2.8946012,0.6559779 2.8932134,0.6374716 2.8906125,0.61909 2.8865628,0.6009799 2.8808651,0.583312 2.8732255,0.5664042 2.8685867,0.5583559 2.8633714,0.550673 2.8512872,0.536594 2.8512872,0.536594 2.8439839,0.5303628 2.8360873,0.5249029 2.8277749,0.5200991 2.819042,0.5161123 2.8100186,0.5128302 2.8007191,0.5104524 2.7912536,0.5088399 2.7816702,0.5082874 2.7816702,0.5082874 2.7696863,0.5092138 2.7579099,0.5116314 2.746459,0.5152858 2.735451,0.5201173 2.7249626,0.5259915 2.7150992,0.5328617 2.7059963,0.5407137 2.6978998,0.5495978 2.6978998,0.5495978 2.6888214,0.5640484 2.6816549,0.5795472 2.6760858,0.5956804 2.6719666,0.6122491 2.6690373,0.6290672 2.6671003,0.6460303 2.6660613,0.6630696 2.6657136,0.6801388 2.6657136,0.6801388 2.6661906,0.6974883 2.6675552,0.7147892 2.6700907,0.7319592 2.6738232,0.7489084 2.6789363,0.7654944 2.685758,0.7814472 2.6944314,0.796483 2.7050842,0.8101769 2.7050842,0.8101769 2.7129037,0.8172798 2.7213592,0.8236123 2.730352,0.8291554 2.739795,0.8338919 2.7496332,0.8377393 2.7597711,0.8407093 2.770166,0.8425911 2.7807006,0.8433688 2.7806644,0.8432971z M2.8204661,0.7857498 L2.8204661,0.7857498 2.8117183,0.7924201 2.801981,0.7975386 2.7915862,0.8010998 2.7861838,0.8021404 2.7807006,0.8025612 2.7806644,0.8024895 2.7806644,0.8024895 2.7744021,0.8019836 2.7682415,0.8007456 2.7564253,0.7965 2.7454724,0.7903559 2.7404938,0.7865222 2.7359054,0.7822295 2.7359054,0.7822295 2.7274099,0.7714986 2.7208362,0.7594799 2.7158914,0.7467123 2.7122204,0.7335155 2.7095648,0.7200797 2.7078396,0.7064917 2.7065929,0.679133 2.7065929,0.679133 2.7075107,0.6525085 2.7088217,0.63925 2.710852,0.6260839 2.713803,0.6130915 2.7179704,0.6004434 2.7234202,0.5882821 2.7304452,0.5769705 2.7304452,0.5769705 2.7351104,0.5711838 2.7403637,0.5659271 2.7461387,0.5612466 2.7523858,0.5572218 2.7590199,0.5538653 2.7660184,0.551373 2.7732565,0.5496729 2.7806644,0.5490949 2.7806644,0.5490949 2.7871473,0.5495906 2.7935196,0.5508843 2.8056613,0.5555097 2.8167672,0.562251 2.8264291,0.5709356 2.8264291,0.5709356 2.8346372,0.5822566 2.8410114,0.5947091 2.8457849,0.6078576 2.8492781,0.6214033 2.8516891,0.6351844 2.853199,0.6490928 2.8542329,0.6770495 2.8542329,0.6770495 2.853976,0.6916688 2.8529659,0.7062513 2.8510429,0.7207472 2.8480973,0.7350665 2.8437951,0.7490392 2.8378831,0.7624054 2.8301742,0.7748304 2.8204661,0.7857498z" transform="matrix(1,0,0,-1,5.588,2.032)" fill="rgb(104,104,104)" fill-rule="nonzero" shaper:cutDepth="0.0000762" stroke-linecap="round" stroke-linejoin="round" /><path d="M3.1605049,0.545359 L3.1605049,0.545359 3.1624447,0.5429163 3.1624447,0.5429163 3.1664165,0.5367771 3.1674868,0.5332721 3.167833,0.5296251 3.167833,0.5296251 3.1674264,0.5256553 3.1662085,0.521857 3.16424,0.5183874 3.1615827,0.5154111 3.1583888,0.5130209 3.1547766,0.511327 3.1469263,0.5100116 3.1469263,0.5100116 3.1411506,0.5105093 3.1383832,0.5114155 3.1358788,0.5128777 3.1315821,0.5167653 3.1280174,0.5213338 3.0356377,0.6462283 2.9916709,0.6462283 2.9916709,0.5350853 2.9916709,0.5350853 2.9910024,0.5254481 2.9898781,0.5207475 2.9879028,0.5163404 2.9849556,0.5125097 2.9809565,0.509821 2.9763098,0.5085048 2.9714827,0.5082874 2.9714827,0.5082874 2.9647548,0.5092505 2.9586118,0.5121346 2.9559805,0.5143008 2.9538481,0.5169544 2.9522434,0.5199597 2.9512944,0.523231 2.9512944,0.523231 2.9508001,0.5301364 2.9508633,0.5370677 2.9507915,0.810105 2.9507915,0.810105 2.9508065,0.8162073 2.9517015,0.8222415 2.9539613,0.8279052 2.9577828,0.8326508 2.9629084,0.8359493 2.9687097,0.8378422 2.9747538,0.8386602 2.980856,0.8387708 3.0648802,0.838699 3.0648802,0.838699 3.0746101,0.8382263 3.084283,0.8370949 3.0938566,0.8352855 3.1032196,0.8326077 3.1122827,0.8290362 3.1209538,0.8246004 3.1291122,0.8192792 3.1366483,0.8131093 3.1435257,0.8062114 3.1496118,0.7986076 3.1547858,0.7903556 3.1589429,0.7815473 3.1621641,0.7723556 3.1644102,0.7628773 3.1657424,0.7532289 3.1663242,0.7435054 3.1663242,0.7435054 3.1649858,0.726515 3.1633044,0.7181569 3.1610085,0.7099443 3.1579213,0.7019983 3.1541422,0.6943545 3.1495948,0.6871431 3.14445,0.680344 3.1387276,0.6740236 3.1323984,0.6683112 3.1255557,0.6632244 3.1183016,0.6587458 3.1106229,0.6550386 3.1026705,0.6519639 3.0861742,0.6476856 3.1605049,0.545359z M3.066465,0.7979632 L2.9916709,0.7979632 2.9916709,0.6870358 3.0628685,0.6870358 3.0628685,0.6870358 3.0791853,0.6877596 3.087183,0.689435 3.0946955,0.6926397 3.0946955,0.6926397 3.1014038,0.6965606 3.1074501,0.70144 3.1128171,0.7070576 3.1173105,0.7133968 3.1208698,0.7203033 3.1234438,0.7276347 3.124979,0.7352507 3.1255167,0.7430025 3.1255167,0.7430025 3.1248947,0.7508625 3.1232657,0.7585765 3.1204415,0.7659373 3.1166717,0.7728622 3.1119554,0.7791803 3.106425,0.7847993 3.1001074,0.7895159 3.0931868,0.7932935 3.0931868,0.7932935 3.0868178,0.7957913 3.080128,0.7972249 3.066465,0.7979632z" transform="matrix(1,0,0,-1,5.588,2.032)" fill="rgb(104,104,104)" fill-rule="nonzero" shaper:cutDepth="0.0000762" stroke-linecap="round" stroke-linejoin="round" /><path d="M3.2537587,0.5309183 L3.2537587,0.8165998 3.2537587,0.8165998 3.2530212,0.8247069 3.2518923,0.828626 3.2500506,0.8322568 3.2473629,0.8353208 3.2438589,0.8373841 3.2399402,0.8384979 3.2358695,0.838699 3.2358695,0.838699 3.2312507,0.8381358 3.2268928,0.8365084 3.2230557,0.8338808 3.2198482,0.8305088 3.2198482,0.8305088 3.2183191,0.8268722 3.2177179,0.8229645 3.2174773,0.8150623 3.2175491,0.530941 3.2175491,0.530941 3.217566,0.524547 3.2178874,0.521368 3.2189142,0.5183456 3.2189142,0.5183456 3.2218439,0.5140937 3.2259582,0.5109526 3.2307521,0.5090276 3.2358695,0.5082874 3.2358695,0.5082874 3.2404869,0.50885 3.2448425,0.5104753 3.2487807,0.5129627 3.2518189,0.5164776 3.2518189,0.5164776 3.2535353,0.5235874 3.2537587,0.5309183z" transform="matrix(1,0,0,-1,5.588,2.032)" fill="rgb(104,104,104)" fill-rule="nonzero" shaper:cutDepth="0.0000762" stroke-linecap="round" stroke-linejoin="round" /><path d="M3.4041287,0.838699 L3.4041287,0.838699 3.4156635,0.8383161 3.4271197,0.8369257 3.4383799,0.8343974 3.4493448,0.8307974 3.4598172,0.8259496 3.4696983,0.8199876 3.4789301,0.813063 3.4873962,0.8052196 3.4873962,0.8052196 3.4991897,0.7919538 3.5093541,0.7773992 3.5178161,0.7617987 3.5243507,0.7452929 3.529024,0.7281703 3.5320373,0.7106731 3.5336789,0.6929999 3.5341668,0.6752534 3.5341668,0.6752534 3.5333808,0.6496517 3.5320991,0.636906 3.5300364,0.6242644 3.5269775,0.6118261 3.5228791,0.5996914 3.5179489,0.5878687 3.5121106,0.5764676 3.5121106,0.5764676 3.5035587,0.5620267 3.4936234,0.5485038 3.4820985,0.53631 3.4757318,0.5308404 3.4689431,0.5259048 3.4617444,0.5215902 3.4542315,0.5178475 3.446438,0.5147321 3.4384067,0.512294 3.4219237,0.509167 3.4051666,0.5082874 3.3350145,0.5082874 3.3350145,0.5082874 3.329129,0.5084714 3.3233159,0.5093964 3.3178474,0.5115637 3.3154366,0.5132728 3.3134545,0.5154467 3.3109298,0.520762 3.3097006,0.5265202 3.3095097,0.5382801 3.309438,0.8129788 3.309438,0.8129788 3.3095808,0.818361 3.3104936,0.8236636 3.3125114,0.8286519 3.3158416,0.8328725 3.3202949,0.8358888 3.3253644,0.8376937 3.3360607,0.8387708 3.4041287,0.838699z M3.4056653,0.7979632 L3.3503173,0.7979632 3.3503173,0.5490949 3.4051345,0.5490949 3.4051345,0.5490949 3.4180283,0.549623 3.4307258,0.5518991 3.4368218,0.5540182 3.442587,0.5569182 3.4479874,0.560454 3.4529828,0.5645414 3.4529828,0.5645414 3.4598763,0.5710865 3.4661276,0.5782499 3.4717957,0.5858799 3.4767567,0.5939906 3.4811374,0.6024269 3.4848742,0.6111688 3.4879599,0.6201602 3.4904136,0.6293449 3.4904136,0.6293449 3.4924333,0.6382906 3.4932409,0.6474252 3.4933592,0.66577 3.4933592,0.66577 3.493047,0.7012283 3.4924972,0.7100765 3.4910352,0.718819 3.4885947,0.7273382 3.4853845,0.7356026 3.4853845,0.7356026 3.4815543,0.7441731 3.4771608,0.7524681 3.4721637,0.7604155 3.4665786,0.7679603 3.460382,0.7750121 3.4535916,0.7814914 3.446169,0.7872411 3.4380392,0.7919284 3.4380392,0.7919284 3.430423,0.795295 3.4222932,0.7971016 3.4056653,0.7979632z" transform="matrix(1,0,0,-1,5.588,2.032)" fill="rgb(104,104,104)" fill-rule="nonzero" shaper:cutDepth="0.0000762" stroke-linecap="round" stroke-linejoin="round" /><path d="M3.7403597,0.714624 L3.6261992,0.714624 3.6261992,0.7979632 3.7821301,0.7979632 3.7821301,0.7979632 3.7919347,0.798549 3.7967123,0.7997437 3.8011843,0.8017767 3.8050151,0.8048614 3.8077075,0.8089642 3.8091219,0.8136723 3.809402,0.8185827 3.809402,0.8185827 3.8091409,0.8232218 3.8078825,0.8276914 3.8055034,0.8316724 3.8020186,0.8347441 3.797856,0.8367905 3.7933624,0.8379967 3.7841129,0.838699 3.6124343,0.8387708 3.6124343,0.8387708 3.6012002,0.8380201 3.5958051,0.8364039 3.5910643,0.8333737 3.587832,0.8287752 3.5861098,0.8234087 3.5853766,0.8178254 3.5853199,0.8121885 3.5853916,0.53533 3.5853916,0.53533 3.5852606,0.5297105 3.5858048,0.524126 3.5872868,0.5187023 3.5902793,0.5139656 3.5948588,0.5107336 3.6002035,0.5090122 3.6113993,0.5082874 3.7821301,0.5082874 3.7821301,0.5082874 3.7923406,0.5087655 3.7973586,0.5097831 3.802143,0.5115813 3.8063851,0.5144399 3.8095347,0.5184524 3.8111636,0.5232964 3.8114137,0.5284038 3.8114137,0.5284038 3.8103966,0.5345468 3.8078146,0.5402032 3.8034677,0.5446506 3.7979788,0.5475862 3.7979788,0.5475862 3.794748,0.5486517 3.7913572,0.5489902 3.7845439,0.5490949 3.6261992,0.5490949 3.6261992,0.6738164 3.7384298,0.6738164 3.7384298,0.6738164 3.7482016,0.6743332 3.7529745,0.675434 3.7574971,0.6773182 3.761366,0.6803039 3.764117,0.684349 3.7655043,0.6890408 3.7657208,0.6939329 3.7657208,0.6939329 3.7654692,0.6986382 3.76426,0.7031886 3.7619255,0.7072742 3.7584642,0.7104633 3.7542725,0.7126087 3.7497406,0.7139044 3.7403597,0.714624z" transform="matrix(1,0,0,-1,5.588,2.032)" fill="rgb(104,104,104)" fill-rule="nonzero" shaper:cutDepth="0.0000762" stroke-linecap="round" stroke-linejoin="round" /><path d="M2.2889099,1.3482971 L2.2888075,1.3497254 2.2888075,1.3497254 2.2886672,1.3553864 2.2895159,1.3609809 2.2916008,1.3662429 2.2948195,1.370898 2.2990364,1.3746725 2.304006,1.3773798 2.3094483,1.3789299 2.315082,1.3794895 2.315082,1.3794895 2.3210474,1.3791945 2.3267908,1.3775677 2.3318607,1.3744242 2.3356999,1.3698641 2.3381864,1.3644298 2.3396676,1.3586447 2.3406379,1.3467463 2.3405353,0.941958 2.3405353,0.941958 2.3398408,0.9294022 2.3385027,0.9232653 2.3360665,0.9174593 2.3321315,0.9125826 2.3267415,0.9093598 2.3206393,0.9078588 2.3143635,0.9074728 2.3143635,0.9074728 2.3064372,0.9085654 2.302663,0.9098552 2.2991414,0.9117914 2.2959981,0.9143214 2.2934478,0.9173949 2.2902444,0.9247154 2.2902444,0.9247154 2.2892115,0.9291238 2.288914,0.9336433 2.2889099,0.9427053 2.2889099,1.1439429 2.0647561,1.1439429 2.0647561,0.9398027 2.0647561,0.9398027 2.063908,0.9279421 2.0623896,0.9221886 2.059812,0.9168252 2.0559471,0.9123124 2.0508969,0.9091801 2.0451472,0.9076648 2.0392001,0.9074728 2.0392001,0.9074728 2.0331728,0.90765 2.027329,0.9091189 2.0221208,0.9121377 2.0180642,0.916597 2.0154069,0.9219934 2.0138699,0.9278375 2.0130974,0.9338063 2.0130281,0.9398408 2.0129256,1.3452095 2.0129256,1.3452095 2.0130485,1.3540986 2.0133804,1.3585296 2.0143625,1.3628627 2.0143625,1.3628627 2.0179387,1.3698191 2.020495,1.3727829 2.0235764,1.3752346 2.0270329,1.3771049 2.0307353,1.3783618 2.0384816,1.3794895 2.0384816,1.3794895 2.0444576,1.3790909 2.050215,1.3774533 2.0552842,1.3742754 2.0592242,1.3697714 2.0618898,1.364412 2.0635375,1.358649 2.0647561,1.3467463 2.0647561,1.1956707 2.2889099,1.1956707 2.2889099,1.3482971z" transform="matrix(1,0,0,-1,5.588,2.032)" fill="rgb(104,104,104)" fill-rule="nonzero" shaper:cutDepth="0.0000762" stroke-linecap="round" stroke-linejoin="round" /><path d="M2.6763559,1.3593731 L2.5738847,1.1660712 2.472725,1.3565103 2.472725,1.3565103 2.4672635,1.3652261 2.4603099,1.3727864 2.4561617,1.3758133 2.4515546,1.3781102 2.4465648,1.3793244 2.4414252,1.3794895 2.4414252,1.3794895 2.4357216,1.3789335 2.430185,1.3774662 2.4249906,1.3750468 2.4203746,1.3716531 2.4164881,1.3674445 2.4134281,1.3626013 2.4116488,1.357156 2.4109427,1.3514702 2.4109427,1.3514702 2.4112669,1.3466571 2.4129773,1.3421474 2.417306,1.3335092 2.418809,1.3307366 2.5450861,1.0944775 2.5450861,0.9405511 2.5450861,0.9405511 2.5453548,0.9341693 2.5462774,0.9278459 2.5483095,0.9217966 2.5515409,0.9162823 2.5562018,0.911932 2.5619256,0.9091066 2.5681589,0.9077235 2.5745423,0.9074728 2.5745423,0.9074728 2.5820747,0.9079608 2.5893106,0.9100406 2.5958095,0.9139166 2.6005089,0.919789 2.6005089,0.919789 2.6022844,0.9253138 2.6031034,0.9310652 2.6033826,0.9426765 2.6033826,1.0944775 2.7261126,1.3278729 2.7275314,1.3300207 2.7275314,1.3300207 2.7310601,1.3363829 2.7310601,1.3363829 2.7346602,1.3439461 2.7359866,1.3521887 2.7359866,1.3521887 2.7353881,1.3578529 2.7335466,1.3632413 2.7306224,1.3681223 2.7266052,1.372166 2.7219368,1.3754193 2.7167071,1.3776859 2.7111865,1.3790663 2.7055041,1.3794895 2.7055041,1.3794895 2.7007676,1.37935 2.6961705,1.3785478 2.6918418,1.3766999 2.6878864,1.3740781 2.6843785,1.3709301 2.6813539,1.3673469 2.6763559,1.3593731z" transform="matrix(1,0,0,-1,5.588,2.032)" fill="rgb(104,104,104)" fill-rule="nonzero" shaper:cutDepth="0.0000762" stroke-linecap="round" stroke-linejoin="round" /><path d="M2.9495692,1.3794895 L2.9495692,1.3794895 2.9660476,1.3789424 2.9824136,1.3769561 2.9984996,1.3733443 3.0141637,1.3682014 3.0291243,1.361276 3.0432401,1.3527588 3.0564284,1.3428665 3.0685228,1.3316617 3.0685228,1.3316617 3.0853707,1.3127105 3.092942,1.3025391 3.0998912,1.2919183 3.1062645,1.28095 3.1119799,1.2696318 3.1169874,1.2579779 3.121315,1.2460522 3.1249819,1.2339097 3.1279912,1.2215913 3.1322959,1.1965953 3.1346409,1.1713478 3.1353379,1.1459957 3.1353379,1.1459957 3.1351299,1.1276972 3.1342152,1.1094218 3.1323841,1.0912137 3.1294373,1.0731542 3.1250675,1.0553853 3.1192126,1.03805 3.1121696,1.0211604 3.1038291,1.0048731 3.1038291,1.0048731 3.0916121,0.9842432 3.084796,0.9743766 3.0774189,0.9649249 3.0694687,0.9559476 3.0609547,0.9475051 3.0518594,0.9396914 3.0421613,0.9326406 3.0318774,0.9264768 3.0211447,0.9211301 3.0100111,0.9166796 2.9985378,0.9131965 2.9868409,0.9105591 2.9749907,0.9087295 2.9630395,0.9077576 2.951052,0.9074728 2.8508347,0.9074728 2.8508347,0.9074728 2.8424268,0.9077357 2.8341225,0.9090572 2.8263103,0.9121532 2.8228663,0.9145948 2.8200348,0.9177004 2.8179335,0.9213576 2.816428,0.9252936 2.8146719,0.9335197 2.814137,0.94191 2.8143993,0.9503196 2.8142968,1.3427463 2.8142968,1.3427463 2.8145008,1.3504351 2.8158049,1.3580102 2.8186874,1.3651364 2.8234449,1.3711658 2.8298067,1.3754748 2.8370489,1.3780533 2.8446472,1.3792346 2.8523292,1.379592 2.9495692,1.3794895z M2.9517644,1.3212954 L2.8726959,1.3212954 2.8726959,0.9657693 2.9510061,0.9657693 2.9510061,0.9657693 2.9694259,0.9665237 2.9785621,0.9677817 2.9875651,0.9697753 2.9962737,0.9728026 3.0045096,0.9769455 3.0122245,0.9819965 3.0193608,0.9878357 3.0193608,0.9878357 3.0292087,0.9971859 3.0381391,1.0074193 3.0462364,1.0183193 3.0533236,1.029906 3.0595818,1.0419578 3.06492,1.0544463 3.0693282,1.0672912 3.0728334,1.0804122 3.0728334,1.0804122 3.0757187,1.0931917 3.0768724,1.1062412 3.0770415,1.1324479 3.0770415,1.1324479 3.0765954,1.1831027 3.07581,1.195743 3.0737214,1.2082322 3.070235,1.2204025 3.065649,1.2322088 3.065649,1.2322088 3.0601773,1.2444525 3.0539008,1.2563025 3.0467622,1.2676558 3.0387834,1.2784342 3.0299312,1.2885082 3.0202306,1.2977643 3.0096268,1.3059781 2.9980128,1.3126743 2.9980128,1.3126743 2.9871326,1.3174837 2.9755186,1.3200646 2.9636615,1.321046 2.9517644,1.3212954z" transform="matrix(1,0,0,-1,5.588,2.032)" fill="rgb(104,104,104)" fill-rule="nonzero" shaper:cutDepth="0.0000762" stroke-linecap="round" stroke-linejoin="round" /><path d="M3.4573028,0.9398027 L3.4573028,1.3479191 3.4573028,1.3479191 3.4562492,1.3595008 3.4546364,1.3650995 3.4520055,1.3702862 3.4481659,1.3746634 3.4431602,1.377611 3.4375621,1.3792022 3.4317467,1.3794895 3.4317467,1.3794895 3.4251485,1.3786849 3.418923,1.37636 3.4134414,1.3726062 3.4088592,1.3677891 3.4088592,1.3677891 3.4066748,1.362594 3.405816,1.3570115 3.4054723,1.3457227 3.4055748,0.9398352 3.4055748,0.9398352 3.4055989,0.9307009 3.406058,0.9261594 3.407525,0.9218417 3.407525,0.9218417 3.4117101,0.9157676 3.4175877,0.9112803 3.4244362,0.9085303 3.4317467,0.9074728 3.4317467,0.9074728 3.4383431,0.9082765 3.4445654,0.9105984 3.4501914,0.9141519 3.4545316,0.9191732 3.4545316,0.9191732 3.4561468,0.9241556 3.4569836,0.9293299 3.4573028,0.9398027z" transform="matrix(1,0,0,-1,5.588,2.032)" fill="rgb(104,104,104)" fill-rule="nonzero" shaper:cutDepth="0.0000762" stroke-linecap="round" stroke-linejoin="round" /><path d="M3.7176319,1.379592 L3.6719132,1.377366 3.6719132,1.377366 3.6599945,1.3761487 3.6481881,1.3741202 3.6365738,1.3711784 3.6252608,1.367238 3.6143956,1.3621906 3.6041227,1.3560296 3.5944482,1.3489622 3.585544,1.3409491 3.5774313,1.3321334 3.5702699,1.3225301 3.5641335,1.3122415 3.5590563,1.3013913 3.555197,1.2900495 3.5523715,1.2784082 3.5507408,1.2665392 3.5499818,1.2545831 3.5499818,1.2545831 3.5509757,1.2398854 3.553563,1.2253836 3.5578878,1.2113016 3.5637485,1.1977863 3.5711527,1.1850508 3.5800346,1.1733001 3.590337,1.1627701 3.6020176,1.1537959 3.6020176,1.1537959 3.6144268,1.1464142 3.6277045,1.1407259 3.6415224,1.1365295 3.6555929,1.133269 3.7319158,1.1170082 3.7319158,1.1170082 3.7455165,1.1138711 3.7521818,1.1117985 3.758638,1.1091499 3.758638,1.1091499 3.7675293,1.1036982 3.775616,1.097113 3.7825581,1.0893282 3.7884864,1.0807486 3.793176,1.0714314 3.7967051,1.0616172 3.7988034,1.0514009 3.7995893,1.0410005 3.7995893,1.0410005 3.7985553,1.0286899 3.7956578,1.0166855 3.7909661,1.0052567 3.7844885,0.9947416 3.7764783,0.985336 3.7670035,0.9774167 3.7617737,0.9741053 3.756254,0.9713319 3.7445771,0.9673088 3.7445771,0.9673088 3.7297978,0.9653385 3.7149157,0.964435 3.6726191,0.9644825 3.6726191,0.9644825 3.6579949,0.964873 3.6507222,0.9657089 3.6435846,0.9673088 3.6435846,0.9673088 3.633754,0.9713509 3.6246929,0.9769077 3.6166591,0.9838678 3.6096504,0.99186 3.603771,1.0007163 3.599258,1.0103397 3.5964256,1.0205848 3.5952437,1.0311475 3.5952437,1.0311475 3.5958595,1.0375109 3.5959536,1.0432284 3.5959536,1.0432284 3.5953368,1.0488298 3.5940639,1.054321 3.5917313,1.0594487 3.5884143,1.0640056 3.5842511,1.0678007 3.579432,1.0707204 3.5740585,1.0724147 3.5684561,1.0730225 3.5684561,1.0730225 3.5613414,1.0721253 3.5546307,1.0695925 3.548796,1.0654364 3.5442081,1.0599215 3.5408045,1.0536067 3.5384938,1.0468158 3.5372825,1.039746 3.5368446,1.0325844 3.5368446,1.0325844 3.5383372,1.014334 3.5400162,1.0053357 3.5423887,0.9964785 3.5453438,0.9878026 3.5488879,0.97936 3.5530435,0.9711999 3.5577629,0.9633441 3.5629933,0.9558177 3.5687463,0.9486925 3.5750366,0.9420397 3.5818088,0.9358629 3.5890022,0.9301732 3.5966214,0.9250998 3.6128969,0.9167099 3.6128969,0.9167099 3.6273194,0.9126198 3.6420348,0.9097433 3.6569298,0.9080446 3.6719118,0.9074728 3.7180604,0.9074728 3.7180604,0.9074728 3.7315342,0.9082526 3.744929,0.9098885 3.758167,0.9125224 3.7711071,0.9163511 3.7836127,0.9214228 3.795601,0.9276225 3.8068515,0.9350728 3.8172396,0.9436875 3.8266886,0.9533226 3.8350474,0.9639167 3.8421283,0.9754043 3.8478157,0.9876423 3.8522026,1.0004036 3.855279,1.013545 3.8571568,1.0269079 3.8578857,1.0403847 3.8578857,1.0403847 3.857322,1.0522443 3.8558968,1.0640311 3.8535026,1.0756594 3.8502347,1.0870745 3.8458017,1.0980871 3.8404993,1.1087099 3.8341396,1.1187357 3.8269426,1.1281775 3.8189239,1.1369338 3.8101984,1.1449836 3.8007333,1.1521522 3.790681,1.1584681 3.7801225,1.1638991 3.7691849,1.1685167 3.7579089,1.1722337 3.7464245,1.1752466 3.6697856,1.191007 3.6697856,1.191007 3.6572186,1.1937041 3.6449189,1.1974156 3.6449189,1.1974156 3.6369088,1.2017538 3.6296236,1.2072227 3.623313,1.2137919 3.6180097,1.2211992 3.6138357,1.2292959 3.6108602,1.2379076 3.6090262,1.246829 3.6083809,1.2559174 3.6083809,1.2559174 3.6096291,1.2688813 3.6111144,1.2752174 3.6132695,1.2813801 3.6160184,1.2873008 3.6194054,1.2928606 3.6234548,1.2979625 3.6280346,1.302615 3.6330274,1.3068113 3.6384174,1.3104625 3.6441719,1.3135182 3.6501977,1.3160235 3.6627681,1.3194017 3.6757093,1.3208851 3.7112471,1.3216199 3.7147942,1.3216199 3.7147942,1.3216199 3.7275881,1.3208303 3.740126,1.3181984 3.7520372,1.3134708 3.7575784,1.3102367 3.7627185,1.3063997 3.7673825,1.3019989 3.7715803,1.2971451 3.7785749,1.2864099 3.7835871,1.2746163 3.7870678,1.2622807 3.7870678,1.2622807 3.7907387,1.2527513 3.7933929,1.2483841 3.7967256,1.2445091 3.8007669,1.2413874 3.8053858,1.2392033 3.8103886,1.2381688 3.8154976,1.238059 3.8154976,1.238059 3.8213821,1.2386266 3.827061,1.2402605 3.8322563,1.2430768 3.8367055,1.2469678 3.8402291,1.2517103 3.8426268,1.2571152 3.8440178,1.2628576 3.8445432,1.2687467 3.8445432,1.2687467 3.843074,1.2817604 3.8394386,1.2943625 3.8344321,1.3064669 3.8282243,1.3180113 3.8282243,1.3180113 3.8192461,1.331353 3.8087019,1.3434913 3.796618,1.354101 3.7832421,1.3630252 3.7688264,1.370149 3.7536196,1.3753734 3.737839,1.3784589 3.7217922,1.3794895 3.7176319,1.379592z" transform="matrix(1,0,0,-1,5.588,2.032)" fill="rgb(104,104,104)" fill-rule="nonzero" shaper:cutDepth="0.0000762" stroke-linecap="round" stroke-linejoin="round" /><path d="M4.095177,1.3860581 L4.095177,1.3860581 4.1078995,1.385395 4.1204992,1.3835029 4.1328778,1.3804916 4.1449554,1.3764341 4.1566775,1.3714433 4.167965,1.3655341 4.1787403,1.3587366 4.188985,1.3511623 4.188985,1.3511623 4.1993183,1.3416633 4.2086608,1.3311835 4.2170818,1.3199534 4.2245404,1.3080612 4.2310894,1.2956441 4.2367369,1.282792 4.2415881,1.2696183 4.2457147,1.2561999 4.2519085,1.2288201 4.2559062,1.2010346 4.2580333,1.1730406 4.2585713,1.1449693 4.2585713,1.1449693 4.2579439,1.1184593 4.2559613,1.0920217 4.2522458,1.0657623 4.2496464,1.0527616 4.2464606,1.0398907 4.2426902,1.0271745 4.2383209,1.0146509 4.2332532,1.0023993 4.2274073,0.9904968 4.2207804,0.9789992 4.2133299,0.9680237 4.2049844,0.9577346 4.1960668,0.9479108 4.1960668,0.9479108 4.1856334,0.9390091 4.1743526,0.9312093 4.1624777,0.9243467 4.1500021,0.9186513 4.1371116,0.9139625 4.1238266,0.9105657 4.1103045,0.9082621 4.0966139,0.9074728 4.0966139,0.9074728 4.079494,0.9087962 4.0626706,0.91225 4.0463122,0.9174705 4.0305865,0.9243726 4.0156031,0.9327644 4.0015125,0.942579 3.9885083,0.9537961 3.9769419,0.9664877 3.9769419,0.9664877 3.9701863,0.9766486 3.9639727,0.9871314 3.9585446,0.9980573 3.9537349,1.0092725 3.945779,1.03232 3.9398944,1.0559895 3.9357097,1.0800155 3.9329426,1.1042484 3.9314583,1.1285903 3.9309616,1.1529748 3.9309616,1.1529748 3.9316431,1.1777599 3.9335925,1.2024754 3.9372147,1.227004 3.9425467,1.2512171 3.9498512,1.2749114 3.9543954,1.2864463 3.9595965,1.2977012 3.965442,1.308646 3.9719871,1.3191808 3.979336,1.3291535 3.9872054,1.3387435 3.9872054,1.3387435 3.998376,1.3488905 4.0104553,1.357937 4.0233023,1.3658557 4.0367921,1.3726221 4.0508468,1.3781183 4.0653295,1.3823613 4.0801793,1.3850495 4.0952288,1.3861606 4.095177,1.3860581z M4.1520366,1.3038477 L4.1520366,1.3038477 4.1395398,1.3133767 4.1327447,1.3173129 4.1256294,1.3206889 4.1183262,1.3235972 4.1107797,1.3257762 4.1030619,1.3272628 4.0952288,1.3278641 4.095177,1.3277616 4.095177,1.3277616 4.0862309,1.3270389 4.0774301,1.3252702 4.0688622,1.3225924 4.0605498,1.3192051 4.0525597,1.3151126 4.0449028,1.3104278 4.0377905,1.3049512 4.0312356,1.2988187 4.0312356,1.2988187 4.0248912,1.2913615 4.0190992,1.2834888 4.0140813,1.2750794 4.0097082,1.2663193 4.0026443,1.2480799 3.9973999,1.2292273 3.9936063,1.2100332 3.9911416,1.1906219 3.9898584,1.1710982 3.9893607,1.151538 3.9893607,1.151538 3.9896923,1.1325085 3.9906717,1.113503 3.9925446,1.0945622 3.9954451,1.0757536 3.9996608,1.0571929 4.0056141,1.0391242 4.0133996,1.021751 4.0234354,1.0055915 4.0234354,1.0055915 4.0300999,0.9973249 4.0376046,0.9898153 4.0458546,0.9831288 4.054779,0.9773791 4.0642563,0.9725841 4.0742542,0.9690237 4.0845943,0.966595 4.095177,0.9657693 4.095177,0.9657693 4.1044383,0.9664775 4.1135416,0.9683255 4.1223575,0.9712545 4.130887,0.9749332 4.1390414,0.9793835 4.1467525,0.9845636 4.153938,0.9904508 4.1605553,0.9969702 4.1605553,0.9969702 4.1722811,1.0131432 4.1771653,1.0218695 4.181387,1.0309325 4.1882064,1.049716 4.1931967,1.069067 4.1966409,1.0887542 4.1987979,1.1086234 4.1998751,1.1285797 4.2002749,1.1485616 4.2002749,1.1485616 4.1999079,1.1694463 4.1984649,1.1902784 4.1957178,1.2109868 4.1915097,1.231443 4.1853637,1.251404 4.1814436,1.261086 4.1769181,1.2704986 4.1717605,1.2795904 4.1659054,1.2882485 4.1592431,1.2962765 4.1520366,1.3038477z" transform="matrix(1,0,0,-1,5.588,2.032)" fill="rgb(104,104,104)" fill-rule="nonzero" shaper:cutDepth="0.0000762" stroke-linecap="round" stroke-linejoin="round" /><path d="M4.6334956,0.9592007 L4.6334956,0.9592007 4.6417248,0.9591278 4.645827,0.9587651 4.6498145,0.9577638 4.6498145,0.9577638 4.6569677,0.9542569 4.6599804,0.9516634 4.6625584,0.9485681 4.6647019,0.9451641 4.6662493,0.9415055 4.6675703,0.9336446 4.6675703,0.9336446 4.666066,0.925558 4.6645132,0.9217562 4.6623315,0.9182434 4.6596152,0.9151227 4.6564299,0.912529 4.6490961,0.9088071 4.6490961,0.9088071 4.6441004,0.9075919 4.6389339,0.9074685 4.6285958,0.9074728 4.3773196,0.9074728 4.3773196,0.9074728 4.3703783,0.9078454 4.363567,0.9092007 4.3571602,0.9118922 4.351742,0.9162289 4.3478838,0.9219984 4.345633,0.9285755 4.3447179,0.9354572 4.3448869,0.9424083 4.3447844,1.347878 4.3447844,1.347878 4.345195,1.3536502 4.3462058,1.3593416 4.3479579,1.3648553 4.350629,1.3699904 4.35458,1.3741941 4.3594626,1.3772962 4.3649887,1.3789913 4.370751,1.3794895 4.370751,1.3794895 4.3765409,1.3790025 4.382127,1.3774162 4.3871108,1.37443 4.3910488,1.370182 4.3936618,1.3649833 4.3953655,1.3594306 4.3966149,1.3478902 4.3966149,0.9592007 4.6334956,0.9592007z" transform="matrix(1,0,0,-1,5.588,2.032)" fill="rgb(104,104,104)" fill-rule="nonzero" shaper:cutDepth="0.0000762" stroke-linecap="round" stroke-linejoin="round" /><path d="M0.2667,1.778 L0.2667,-1.778 0.1905,-1.778 0.1905,1.778 0.2667,1.778z" transform="matrix(1,0,0,-1,5.588,2.032)" fill="rgb(104,104,104)" fill-rule="nonzero" shaper:cutDepth="0.0000762" stroke-linecap="round" stroke-linejoin="round" /><path d="M-3.57505,-0.381 a0.7874,0.7874 0 1,0 1.5748,0 a0.7874,0.7874 0 1,0 -1.5748,0z M-3.49885,-0.381 a0.7112,0.7112 0 1,1 1.4224,0 a0.7112,0.7112 0 1,1 -1.4224,0z" transform="matrix(1,0,0,-1,5.588,2.032)" fill="rgb(104,104,104)" fill-rule="nonzero" shaper:cutDepth="0.0000762" stroke-linecap="round" stroke-linejoin="round" /><path d="M2.45745,-0.381 a0.7874,0.7874 0 1,0 1.5748,0 a0.7874,0.7874 0 1,0 -1.5748,0z M2.53365,-0.381 a0.7112,0.7112 0 1,1 1.4224,0 a0.7112,0.7112 0 1,1 -1.4224,0z" transform="matrix(1,0,0,-1,5.588,2.032)" fill="rgb(104,104,104)" fill-rule="nonzero" shaper:cutDepth="0.0000762" stroke-linecap="round" stroke-linejoin="round" /><path d="M-5.066665,-0.71755 a0.215265,0.215265 0 1,1 0.43053,0 a0.215265,0.215265 0 1,1 -0.43053,0z" transform="matrix(1,0,0,-1,5.588,2.032)" fill="rgb(255,255,255)" stroke="rgb(0,0,0)" stroke-width="0.0010cm" stroke-linecap="round" stroke-linejoin="round" shaper:cutDepth="0.0015875" /><path d="M4.712335,0.635 a0.215265,0.215265 0 1,1 0.43053,0 a0.215265,0.215265 0 1,1 -0.43053,0z" transform="matrix(1,0,0,-1,5.588,2.032)" fill="rgb(255,255,255)" stroke="rgb(0,0,0)" stroke-width="0.0010cm" stroke-linecap="round" stroke-linejoin="round" shaper:cutDepth="0.0015875" /><path d="M-3.42265,-0.381 a0.635,0.635 0 1,1 1.27,0 a0.635,0.635 0 1,1 -1.27,0z" transform="matrix(1,0,0,-1,5.588,2.032)" fill="rgb(255,255,255)" stroke="rgb(0,0,0)" stroke-width="0.0010cm" stroke-linecap="round" stroke-linejoin="round" shaper:cutDepth="0.0015875" /><path d="M2.60985,-0.381 a0.635,0.635 0 1,1 1.27,0 a0.635,0.635 0 1,1 -1.27,0z" transform="matrix(1,0,0,-1,5.588,2.032)" fill="rgb(255,255,255)" stroke="rgb(0,0,0)" stroke-width="0.0010cm" stroke-linecap="round" stroke-linejoin="round" shaper:cutDepth="0.0015875" /></svg>