<?xml version="1.0" encoding="utf-8"?>
<!-- Generator: Fusion 360, Shaper Origin Export Add-In, Version 1.6.10  -->
<svg xmlns="http://www.w3.org/2000/svg" xmlns:xlink="http://www.w3.org/1999/xlink" xmlns:shaper="http://www.shapertools.com/namespaces/shaper" shaper:fusionaddin="version:1.6.10" width="7.77875cm" height="4.2545cm" version="1.1" x="0cm" y="0cm" viewBox="0 0 7.77875 4.2545" enable-background="new 0 0 7.77875 4.2545" xml:space="preserve"><path d="M-3.4744711,-2.12725 L4.3042789,-2.12725 4.3042789,1.63195 3.1930289,2.12725 -3.4744711,2.12725 -3.4744711,-2.12725z" transform="matrix(1,0,0,-1,3.4744711,2.12725)" fill="rgb(0,0,0)" shaper:cutDepth="0.0047625" stroke-linecap="round" stroke-linejoin="round" /><path d="M0.5704789,-0.9525 L2.6342289,-0.9525 A0.15875,0.15875 270 0,1 2.7929789,-0.79375 L2.7929789,0.79375 A0.15875,0.15875 0 0,1 2.6342289,0.9525 L0.5704789,0.9525 A0.15875,0.15875 90 0,1 0.4117289,0.79375 L0.4117289,-0.79375 A0.15875,0.15875 180 0,1 0.5704789,-0.9525z" transform="matrix(1,0,0,-1,3.4744711,2.12725)" fill="rgb(255,255,255)" stroke="rgb(0,0,0)" stroke-width="0.0010cm" stroke-linecap="round" stroke-linejoin="round" shaper:cutDepth="0.0047625" /><path d="M-2.1403361,1.32715 a0.215265,0.215265 0 1,1 0.43053,0 a0.215265,0.215265 0 1,1 -0.43053,0z" transform="matrix(1,0,0,-1,3.4744711,2.12725)" fill="rgb(255,255,255)" stroke="rgb(0,0,0)" stroke-width="0.0010cm" stroke-linecap="round" stroke-linejoin="round" shaper:cutDepth="0.0047625" /><path d="M3.4032139,0.66675 a0.215265,0.215265 0 1,1 0.43053,0 a0.215265,0.215265 0 1,1 -0.43053,0z" transform="matrix(1,0,0,-1,3.4744711,2.12725)" fill="rgb(255,255,255)" stroke="rgb(0,0,0)" stroke-width="0.0010cm" stroke-linecap="round" stroke-linejoin="round" shaper:cutDepth="0.0047625" /><path d="M-2.0203211,-0.41275 a0.85725,0.85725 0 1,1 1.7145,0 a0.85725,0.85725 0 1,1 -1.7145,0z" transform="matrix(1,0,0,-1,3.4744711,2.12725)" fill="rgb(255,255,255)" stroke="rgb(0,0,0)" stroke-width="0.0010cm" stroke-linecap="round" stroke-linejoin="round" shaper:cutDepth="0.0047625" /></svg>