<?xml version="1.0" encoding="utf-8"?>
<!-- Generator: Fusion 360, Shaper Origin Export Add-In, Version 1.6.10  -->
<svg xmlns="http://www.w3.org/2000/svg" xmlns:xlink="http://www.w3.org/1999/xlink" xmlns:shaper="http://www.shapertools.com/namespaces/shaper" shaper:fusionaddin="version:1.6.10" width="1.2573cm" height="1.2573cm" version="1.1" x="0cm" y="0cm" viewBox="0 0 1.2573 1.2573" enable-background="new 0 0 1.2573 1.2573" xml:space="preserve"><path d="M0.62865,0.62865 L0.62865,-0.62865 -0.62865,-0.62865 -0.62865,0.62865 0.62865,0.62865z" transform="matrix(1,0,0,-1,0.62865,0.62865)" fill="rgb(0,0,0)" shaper:cutDepth="0.000127" stroke-linecap="round" stroke-linejoin="round" /><path d="M-0.1696947,-0.3638901 L-0.1696947,-0.3638901 -0.1674265,-0.3620888 -0.1674265,-0.3620888 -0.1617258,-0.3584006 -0.1584712,-0.3574069 -0.1550847,-0.3570854 -0.1550847,-0.3570854 -0.1513963,-0.3574633 -0.1478675,-0.3585955 -0.1446444,-0.3604255 -0.14188,-0.3628955 -0.1396617,-0.3658645 -0.1380852,-0.3692203 -0.1368055,-0.3764987 -0.1368055,-0.3764987 -0.1373341,-0.3818544 -0.1395278,-0.3867494 -0.1431382,-0.3907354 -0.1473189,-0.3941237 -0.2632923,-0.4799049 -0.2632923,-0.5207312 -0.1601548,-0.5207312 -0.1601548,-0.5207312 -0.1512084,-0.5213514 -0.1468482,-0.5223912 -0.1427205,-0.5241609 -0.1391961,-0.5269161 -0.1366968,-0.530636 -0.1354155,-0.5349308 -0.1352044,-0.5394107 -0.1352044,-0.5394107 -0.1360969,-0.5456653 -0.1388379,-0.5513514 -0.1408481,-0.5537991 -0.1433139,-0.5557822 -0.1461068,-0.5572745 -0.1491473,-0.5581569 -0.1491473,-0.5581569 -0.161929,-0.5586239 -0.4155303,-0.5586239 -0.4155303,-0.5586239 -0.4211882,-0.5586104 -0.4267833,-0.5577831 -0.4320367,-0.5556933 -0.4364429,-0.5521575 -0.4395103,-0.5474113 -0.4412774,-0.5420357 -0.4420351,-0.5364326 -0.4420818,-0.5307736 -0.4420819,-0.4526844 -0.4420819,-0.4526844 -0.4416429,-0.4436494 -0.4405924,-0.4346675 -0.4389122,-0.4257777 -0.4364256,-0.4170835 -0.4331092,-0.4086678 -0.4289903,-0.400616 -0.4240492,-0.3930404 -0.41832,-0.3860426 -0.4119148,-0.3796564 -0.4048541,-0.374005 -0.3971916,-0.3692006 -0.3890124,-0.3653404 -0.3804773,-0.3623493 -0.371676,-0.3602636 -0.3627168,-0.3590266 -0.3536878,-0.3584863 -0.3536878,-0.3584863 -0.3379027,-0.3597319 -0.3301352,-0.3612883 -0.3225248,-0.3634864 -0.3151221,-0.3663061 -0.3080191,-0.369813 -0.3013213,-0.374042 -0.2950062,-0.3788243 -0.2891368,-0.384144 -0.2838327,-0.3900275 -0.2791123,-0.396389 -0.2749812,-0.4031477 -0.2715112,-0.4102689 -0.2686633,-0.4176611 -0.2646456,-0.4329781 -0.1696947,-0.3638901z M-0.4041891,-0.4512795 L-0.4041891,-0.5207312 -0.3011851,-0.5207312 -0.3011851,-0.4545524 -0.3011851,-0.4545524 -0.3019309,-0.4394037 -0.3034777,-0.4319755 -0.3064554,-0.4249987 -0.3064554,-0.4249987 -0.3100968,-0.4187691 -0.3145898,-0.4131233 -0.3198411,-0.408175 -0.3257268,-0.4040006 -0.3321408,-0.4006951 -0.3389491,-0.3983043 -0.3460219,-0.3968785 -0.3532208,-0.396379 -0.3532208,-0.396379 -0.3605177,-0.3969551 -0.3676648,-0.3985307 -0.3745205,-0.4010936 -0.380949,-0.404593 -0.3868146,-0.408971 -0.3919995,-0.4141366 -0.3964131,-0.4199749 -0.3999196,-0.4263997 -0.3999196,-0.4263997 -0.4022436,-0.4323292 -0.4035763,-0.4385578 -0.4041891,-0.4512795z" transform="matrix(1,0,0,-1,0.62865,0.62865)" fill="rgb(119,119,119)" fill-rule="nonzero" shaper:cutDepth="0.0000254" stroke-linecap="round" stroke-linejoin="round" /><path d="M-0.3268027,-0.2067287 L-0.3268027,-0.2067287 -0.3261365,-0.19803 -0.3249387,-0.1938255 -0.3229493,-0.1899409 -0.3200258,-0.186697 -0.3162397,-0.184531 -0.3120195,-0.1834118 -0.3076562,-0.1831792 -0.3076562,-0.1831792 -0.3031051,-0.1833814 -0.2987413,-0.1846757 -0.2949819,-0.1872406 -0.2922119,-0.1908455 -0.2904651,-0.1950559 -0.289452,-0.1994978 -0.2889099,-0.2085876 -0.2889099,-0.3128016 -0.1730971,-0.3128016 -0.1730971,-0.1657005 -0.1730971,-0.1657005 -0.1730689,-0.1593737 -0.1727519,-0.1562252 -0.1717628,-0.1532253 -0.1717628,-0.1532253 -0.1690369,-0.1481285 -0.1649072,-0.1440921 -0.1596548,-0.1416945 -0.1539506,-0.1407501 -0.1539506,-0.1407501 -0.1491977,-0.1409838 -0.1446945,-0.1425066 -0.1409411,-0.1454237 -0.1382945,-0.1493696 -0.1366555,-0.1538414 -0.1357096,-0.1585068 -0.1352044,-0.1680086 -0.1352044,-0.3264777 -0.1352044,-0.3264777 -0.1352568,-0.3316883 -0.1359248,-0.3368516 -0.1375308,-0.3418074 -0.1405155,-0.346062 -0.1448993,-0.348851 -0.149926,-0.3502324 -0.1603154,-0.3506944 -0.417465,-0.3506943 -0.417465,-0.3506943 -0.4226907,-0.3506421 -0.427867,-0.3499644 -0.4328436,-0.3483724 -0.4371134,-0.345385 -0.4399331,-0.3409973 -0.4414442,-0.3359988 -0.4420818,-0.3255834 -0.4420819,-0.1661008 -0.4420819,-0.1661008 -0.441413,-0.1575153 -0.4402819,-0.1533594 -0.438365,-0.1495005 -0.4355254,-0.1462671 -0.4318516,-0.1440266 -0.4277035,-0.1428699 -0.4234024,-0.142618 -0.4234024,-0.142618 -0.418834,-0.1428795 -0.4144549,-0.1441992 -0.4106384,-0.1467071 -0.4077725,-0.1502724 -0.4058968,-0.154442 -0.4047936,-0.1588873 -0.4041891,-0.1680086 -0.4041891,-0.3128016 -0.3268027,-0.3128016 -0.3268027,-0.2067287z" transform="matrix(1,0,0,-1,0.62865,0.62865)" fill="rgb(119,119,119)" fill-rule="nonzero" shaper:cutDepth="0.0000254" stroke-linecap="round" stroke-linejoin="round" /><path d="M-0.1864395,-0.0805577 L-0.14828,-0.0952655 -0.14828,-0.0952655 -0.1429179,-0.0982653 -0.1385478,-0.1025751 -0.1359259,-0.1081174 -0.1352044,-0.1142118 -0.1352044,-0.1142118 -0.1363488,-0.1214658 -0.1378565,-0.1248255 -0.1399468,-0.1278568 -0.1425532,-0.1304581 -0.1456687,-0.1324198 -0.1491593,-0.1335887 -0.1528165,-0.1340254 -0.1528165,-0.1340254 -0.1563406,-0.1337114 -0.1597439,-0.1327287 -0.1664182,-0.1303591 -0.4275386,-0.0316217 -0.4275386,-0.0316217 -0.4333399,-0.0288198 -0.4382791,-0.0247058 -0.4401308,-0.0220704 -0.4414318,-0.0191222 -0.4420748,-0.0159649 -0.4420819,-0.0127421 -0.4420819,-0.0127421 -0.4419371,-0.0088352 -0.4411278,-0.0050087 -0.4395134,-0.0014597 -0.4369684,0.0015125 -0.4304454,0.0058027 -0.4232742,0.0089004 -0.1632903,0.1085413 -0.1632903,0.1085413 -0.1581102,0.1097929 -0.1528165,0.1104092 -0.1528165,0.1104092 -0.1491689,0.1099468 -0.1456935,0.1087499 -0.1426186,0.1067342 -0.1400038,0.1041515 -0.1379325,0.101112 -0.1364092,0.0977669 -0.1352044,0.0905289 -0.1352044,0.0905289 -0.1352837,0.0872033 -0.1360136,0.0839584 -0.1373995,0.0809342 -0.1393428,0.0782367 -0.1445274,0.0740915 -0.1504909,0.0711521 -0.1864395,0.0577795 -0.1864395,-0.0805577z M-0.2243323,0.0425625 L-0.3683775,-0.0118502 -0.2243323,-0.0662629 -0.2243323,0.0425625z" transform="matrix(1,0,0,-1,0.62865,0.62865)" fill="rgb(119,119,119)" fill-rule="nonzero" shaper:cutDepth="0.0000254" stroke-linecap="round" stroke-linejoin="round" /><path d="M-0.4420819,0.2043271 L-0.4420819,0.2043271 -0.4417266,0.2150372 -0.4404346,0.2256739 -0.4380913,0.2361305 -0.4346875,0.2462904 -0.430241,0.2560396 -0.424706,0.2652145 -0.4182765,0.2737862 -0.4109939,0.2816469 -0.4109939,0.2816469 -0.3986756,0.292598 -0.3851608,0.3020363 -0.3706747,0.3098937 -0.3553481,0.3159622 -0.3394481,0.3202987 -0.3231994,0.3230902 -0.3067899,0.3246247 -0.2903109,0.3250767 -0.2903109,0.3250767 -0.2665375,0.3243523 -0.2547027,0.3231586 -0.2429642,0.321241 -0.2314143,0.3184011 -0.2201463,0.3145953 -0.209168,0.3100173 -0.1985812,0.304596 -0.1985812,0.304596 -0.1851619,0.2966504 -0.1725771,0.2874415 -0.1612753,0.2767033 -0.1561913,0.2707896 -0.1516083,0.2644788 -0.1476025,0.2577879 -0.1441269,0.2508057 -0.1389136,0.2361169 -0.1360801,0.2207894 -0.1352044,0.2052242 -0.1352044,0.1401496 -0.1352044,0.1401496 -0.1353769,0.1346905 -0.1362254,0.1292937 -0.1382892,0.1242442 -0.1418793,0.1201569 -0.146805,0.1178006 -0.1521442,0.1166543 -0.1630547,0.1163999 -0.4181988,0.1164 -0.4181988,0.1164 -0.4231936,0.1164718 -0.4281163,0.1173059 -0.4327214,0.1192324 -0.4366451,0.1223139 -0.4394791,0.1264196 -0.4411485,0.1311267 -0.4420818,0.1410544 -0.4420819,0.2043271z M-0.4041891,0.2056872 L-0.4041891,0.1542927 -0.1730971,0.1542927 -0.1730971,0.2052611 -0.1730971,0.2052611 -0.1736007,0.2172412 -0.1757708,0.2290244 -0.1777409,0.2346832 -0.180381,0.2400669 -0.187507,0.2496916 -0.187507,0.2496916 -0.1935831,0.2560943 -0.2002083,0.2619283 -0.2073205,0.2671556 -0.2148481,0.2717679 -0.2226851,0.275828 -0.2308246,0.2792473 -0.2391523,0.2821726 -0.2476816,0.2844488 -0.2476816,0.2844488 -0.2559883,0.2863243 -0.2644705,0.2870742 -0.2815049,0.287184 -0.2815049,0.287184 -0.3144275,0.2868941 -0.3226427,0.2863831 -0.3307523,0.2849958 -0.3386684,0.2827342 -0.3463494,0.2797789 -0.3463494,0.2797789 -0.3620103,0.2721426 -0.36939,0.2675025 -0.376396,0.2623163 -0.382944,0.2565623 -0.3889605,0.2502569 -0.3942995,0.2433645 -0.3986521,0.2358154 -0.3986521,0.2358154 -0.401729,0.2287049 -0.4034634,0.2211569 -0.4041891,0.2056872z" transform="matrix(1,0,0,-1,0.62865,0.62865)" fill="rgb(119,119,119)" fill-rule="nonzero" shaper:cutDepth="0.0000254" stroke-linecap="round" stroke-linejoin="round" /><path d="M-0.4290062,0.5036528 L-0.3032933,0.4369798 -0.4270787,0.371226 -0.4270787,0.371226 -0.4327754,0.3677336 -0.4377153,0.3632373 -0.4396929,0.3605416 -0.4411315,0.3575263 -0.4419655,0.3542872 -0.4420819,0.3509478 -0.4420819,0.3509478 -0.4407895,0.3436357 -0.439198,0.3402692 -0.4369913,0.3372695 -0.4342579,0.334741 -0.4310948,0.3327766 -0.427565,0.3315928 -0.4238694,0.3311342 -0.4238694,0.3311342 -0.42074,0.3313377 -0.4177995,0.3324338 -0.4121947,0.3352704 -0.4103258,0.3361806 -0.2567574,0.4182607 -0.1567053,0.4182607 -0.1567053,0.4182607 -0.1484628,0.4191115 -0.1444994,0.4203787 -0.1409595,0.4225304 -0.1381231,0.4255622 -0.1362658,0.429273 -0.1353592,0.4333229 -0.1352044,0.437474 -0.1352044,0.437474 -0.1355169,0.4423635 -0.1369183,0.4470424 -0.1394307,0.4512621 -0.1432099,0.4543522 -0.1432099,0.4543522 -0.1468161,0.4555094 -0.1505739,0.4560027 -0.1581535,0.4561535 -0.2567574,0.4561535 -0.4084644,0.5359279 -0.4098605,0.5368502 -0.4098605,0.5368502 -0.4140626,0.5392105 -0.4140626,0.5392105 -0.4189721,0.5415686 -0.4243364,0.5424127 -0.4243364,0.5424127 -0.4280046,0.5419593 -0.4315214,0.5408262 -0.4346646,0.5388821 -0.4373195,0.5363135 -0.4393902,0.5332499 -0.4409074,0.5298813 -0.4420819,0.5225991 -0.4420819,0.5225991 -0.4414722,0.5165278 -0.438595,0.5111283 -0.4341876,0.5069065 -0.4290062,0.5036528z" transform="matrix(1,0,0,-1,0.62865,0.62865)" fill="rgb(119,119,119)" fill-rule="nonzero" shaper:cutDepth="0.0000254" stroke-linecap="round" stroke-linejoin="round" /><path d="M0.1579931,-0.3746308 L0.1579931,-0.3746308 0.1583484,-0.3639206 0.1596404,-0.3532839 0.1619837,-0.3428274 0.1653875,-0.3326675 0.169834,-0.3229182 0.175369,-0.3137434 0.1817985,-0.3051717 0.1890811,-0.297311 0.1890811,-0.297311 0.2013994,-0.2863599 0.2149142,-0.2769216 0.2294003,-0.2690641 0.2447269,-0.2629956 0.2606269,-0.2586592 0.2768756,-0.2558676 0.2932851,-0.2543331 0.3097641,-0.2538811 0.3097641,-0.2538811 0.3335375,-0.2546056 0.3453723,-0.2557993 0.3571108,-0.2577168 0.3686607,-0.2605568 0.3799287,-0.2643625 0.390907,-0.2689405 0.4014938,-0.2743619 0.4014938,-0.2743619 0.4149131,-0.2823075 0.4274979,-0.2915163 0.4387997,-0.3022546 0.4438837,-0.3081682 0.4484667,-0.314479 0.4524725,-0.32117 0.4559481,-0.3281522 0.4611614,-0.3428409 0.4639949,-0.3581685 0.4648706,-0.3737337 0.4648706,-0.4388082 0.4648706,-0.4388082 0.4646981,-0.4442674 0.4638496,-0.4496642 0.4617858,-0.4547136 0.4581957,-0.458801 0.45327,-0.4611573 0.4479308,-0.4623035 0.4370203,-0.4625579 0.1818762,-0.4625579 0.1818762,-0.4625579 0.1768814,-0.4624861 0.1719587,-0.4616519 0.1673536,-0.4597255 0.1634299,-0.4566439 0.1605959,-0.4525383 0.1589265,-0.4478311 0.1579932,-0.4379035 0.1579931,-0.3746308z M0.1958859,-0.3732707 L0.1958859,-0.4246652 0.4269779,-0.4246652 0.4269779,-0.3736968 0.4269779,-0.3736968 0.4264743,-0.3617166 0.4243042,-0.3499335 0.4223341,-0.3442747 0.419694,-0.338891 0.412568,-0.3292663 0.412568,-0.3292663 0.4064919,-0.3228635 0.3998667,-0.3170295 0.3927545,-0.3118023 0.3852269,-0.3071899 0.3773899,-0.3031298 0.3692504,-0.2997106 0.3609227,-0.2967852 0.3523934,-0.294509 0.3523934,-0.294509 0.3440867,-0.2926336 0.3356045,-0.2918836 0.3185701,-0.2917738 0.3185701,-0.2917738 0.2856475,-0.2920638 0.2774323,-0.2925748 0.2693227,-0.293962 0.2614066,-0.2962236 0.2537256,-0.2991789 0.2537256,-0.2991789 0.2380647,-0.3068153 0.230685,-0.3114554 0.223679,-0.3166416 0.217131,-0.3223955 0.2111145,-0.3287009 0.2057755,-0.3355934 0.2014229,-0.3431425 0.2014229,-0.3431425 0.198346,-0.3502529 0.1966116,-0.3578009 0.1958859,-0.3732707z" transform="matrix(1,0,0,-1,0.62865,0.62865)" fill="rgb(119,119,119)" fill-rule="nonzero" shaper:cutDepth="0.0000254" stroke-linecap="round" stroke-linejoin="round" /><path d="M0.4437895,-0.212466 L0.4437895,-0.212466 0.4506294,-0.2126391 0.4572654,-0.2142005 0.4572654,-0.2142005 0.460488,-0.2170529 0.4627852,-0.2207053 0.4642863,-0.2247416 0.4648706,-0.2290107 0.4648706,-0.2290107 0.4641824,-0.2337731 0.4623333,-0.2382084 0.4594434,-0.242064 0.4554642,-0.2447549 0.4554642,-0.2447549 0.4526739,-0.2457053 0.4497387,-0.2460035 0.4438351,-0.2460892 0.1799415,-0.2460891 0.1799415,-0.2460891 0.1726038,-0.2458644 0.1689751,-0.2453076 0.1655983,-0.2438876 0.1655983,-0.2438876 0.1624672,-0.2409092 0.1600273,-0.2373461 0.1585161,-0.2332995 0.1579931,-0.2290107 0.1579931,-0.2290107 0.1582466,-0.2252355 0.1592187,-0.221581 0.1611922,-0.2183588 0.1640275,-0.2158552 0.1674022,-0.2141552 0.1710533,-0.2131453 0.1785806,-0.212466 0.4437895,-0.212466z" transform="matrix(1,0,0,-1,0.62865,0.62865)" fill="rgb(119,119,119)" fill-rule="nonzero" shaper:cutDepth="0.0000254" stroke-linecap="round" stroke-linejoin="round" /><path d="M0.1579932,-0.0829594 L0.1594401,-0.1126765 0.1594401,-0.1126765 0.1614966,-0.1280925 0.1634065,-0.1356386 0.1660309,-0.1429627 0.1692709,-0.1500404 0.1732676,-0.1567154 0.177864,-0.1629963 0.183072,-0.1687778 0.1888011,-0.1740451 0.1950413,-0.1786943 0.201726,-0.1826782 0.2087752,-0.1859741 0.2161433,-0.1884794 0.2237056,-0.1903137 0.2391822,-0.1918652 0.2391822,-0.1918652 0.2487357,-0.1912192 0.2581619,-0.1895375 0.2673152,-0.1867263 0.2761002,-0.1829168 0.2843782,-0.1781041 0.2920162,-0.1723309 0.2988607,-0.1656343 0.3046939,-0.1580419 0.3046939,-0.1580419 0.3095643,-0.1500171 0.313192,-0.141347 0.315999,-0.1323889 0.3180364,-0.123218 0.3286726,-0.0736748 0.3286726,-0.0736748 0.3306915,-0.064809 0.3337139,-0.0562386 0.3337139,-0.0562386 0.3372577,-0.0504618 0.3416087,-0.0452647 0.3466014,-0.0406821 0.3521812,-0.0368345 0.3582353,-0.0337868 0.3646134,-0.0314942 0.3712523,-0.0301309 0.378011,-0.0296204 0.378011,-0.0296204 0.3860042,-0.030359 0.3938218,-0.0321786 0.4012248,-0.0352798 0.408086,-0.039447 0.4141991,-0.0446485 0.4193582,-0.0507964 0.4232967,-0.0577899 0.4259105,-0.0653783 0.4259105,-0.0653783 0.4271914,-0.074985 0.4277785,-0.0846582 0.4278143,-0.1122177 0.4278143,-0.1122177 0.427495,-0.1216902 0.4259105,-0.1310234 0.4259105,-0.1310234 0.4232822,-0.1374152 0.4196687,-0.1433065 0.4151425,-0.1485296 0.4099453,-0.1530859 0.4041863,-0.1569083 0.3979275,-0.1598382 0.391283,-0.1617418 0.3844154,-0.1625117 0.3844154,-0.1625117 0.3802792,-0.1620447 0.3766295,-0.1620502 0.3766295,-0.1620502 0.3694034,-0.163217 0.3660523,-0.1647126 0.3630805,-0.1668634 0.3606039,-0.16957 0.3587243,-0.17272 0.3575927,-0.1762093 0.3571967,-0.1798569 0.3571967,-0.1798569 0.3577798,-0.1844814 0.3594262,-0.1888434 0.3621276,-0.192636 0.3657123,-0.1956181 0.3698169,-0.1978305 0.374231,-0.1993324 0.3834814,-0.2004044 0.3834814,-0.2004044 0.3953515,-0.1994418 0.4069757,-0.1968594 0.4180962,-0.1925992 0.4284979,-0.1868014 0.4380243,-0.1796553 0.4464033,-0.1711941 0.4533587,-0.1615287 0.4588665,-0.1509704 0.4588665,-0.1509704 0.4615209,-0.1415975 0.4633256,-0.1320223 0.4644345,-0.1223438 0.4648706,-0.1126107 0.4648706,-0.0826808 0.4648706,-0.0826808 0.4633164,-0.0652028 0.4615451,-0.0566064 0.459082,-0.0481795 0.4557705,-0.0400535 0.4517307,-0.0322586 0.4468923,-0.0249372 0.4412922,-0.0181779 0.4350283,-0.0120296 0.4281403,-0.0065897 0.4206703,-0.0019816 0.4127225,0.0017424 0.4044141,0.0045722 0.3958679,0.0065764 0.3871766,0.0077979 0.3784112,0.0082724 0.3784112,0.0082724 0.3630414,0.0069793 0.3554827,0.0054246 0.3480697,0.0032784 0.3409034,0.0004166 0.3339986,-0.0030295 0.327482,-0.0071633 0.3213451,-0.0118414 0.3156536,-0.0170535 0.3104214,-0.022725 0.3057619,-0.0288773 0.3016568,-0.0354112 0.2951253,-0.0493834 0.290751,-0.0641774 0.2805734,-0.1140594 0.2805734,-0.1140594 0.2787595,-0.1221895 0.2763411,-0.1301561 0.2763411,-0.1301561 0.2735496,-0.1353828 0.2699647,-0.1401018 0.2657266,-0.1442411 0.2608752,-0.147646 0.2556121,-0.150368 0.2500307,-0.1523608 0.2442267,-0.153552 0.238315,-0.1539725 0.238315,-0.1539725 0.2298847,-0.1531601 0.2217568,-0.1507922 0.2143188,-0.1467496 0.2079718,-0.1411431 0.2028668,-0.1343919 0.1992486,-0.1267323 0.1970508,-0.118558 0.1960859,-0.1101424 0.1956751,-0.0871095 0.1956751,-0.0848038 0.1956751,-0.0848038 0.1961179,-0.0764765 0.1978181,-0.0683195 0.2008841,-0.0605661 0.2055212,-0.0536425 0.2114985,-0.0478355 0.2184844,-0.0432868 0.2261542,-0.0400235 0.2341788,-0.0377593 0.2341788,-0.0377593 0.2403729,-0.0353732 0.2457303,-0.0314817 0.2477594,-0.0288549 0.2491791,-0.0258526 0.2498515,-0.0226008 0.2499229,-0.0192799 0.2499229,-0.0192799 0.249554,-0.015455 0.248492,-0.0117637 0.2466614,-0.0083868 0.2441322,-0.0054948 0.2410496,-0.0032045 0.2375364,-0.0016459 0.2299759,-0.0004003 0.2299759,-0.0004003 0.2215186,-0.0013661 0.2133245,-0.0037173 0.2054574,-0.006973 0.1979539,-0.0110076 0.1979539,-0.0110076 0.1892826,-0.0168428 0.1813934,-0.0236957 0.1744973,-0.0315491 0.1686977,-0.0402426 0.164064,-0.0496107 0.1607313,-0.0595149 0.158663,-0.0697591 0.1579931,-0.0801884 0.1579932,-0.0829594z" transform="matrix(1,0,0,-1,0.62865,0.62865)" fill="rgb(119,119,119)" fill-rule="nonzero" shaper:cutDepth="0.0000254" stroke-linecap="round" stroke-linejoin="round" /><path d="M0.1579931,0.1402164 L0.1579932,0.1401873 0.1579932,0.1401873 0.1587175,0.1278335 0.160768,0.11563 0.1643288,0.1037788 0.1692815,0.0924392 0.1756486,0.0818283 0.1831924,0.0720175 0.191709,0.0630412 0.2010227,0.0548911 0.2010227,0.0548911 0.2128633,0.0463549 0.2252997,0.0387133 0.2383182,0.0321113 0.2518155,0.0265541 0.2657086,0.0220769 0.2799278,0.0187807 0.2943837,0.0167576 0.3089635,0.0160644 0.3089635,0.0160644 0.3236917,0.0166388 0.3383268,0.0183825 0.3527961,0.0211926 0.3669853,0.02518 0.3808189,0.0302668 0.3942068,0.036431 0.4070065,0.0437393 0.4191059,0.0521558 0.4191059,0.0521558 0.4287799,0.0602648 0.4377427,0.0691512 0.4457306,0.0789244 0.4525867,0.0895228 0.4579794,0.1009326 0.4618838,0.1129348 0.4641825,0.1253453 0.4648706,0.1379481 0.4648706,0.1379481 0.4642854,0.1484003 0.4626866,0.1587456 0.4600136,0.1688667 0.4561737,0.1786055 0.4513479,0.1878941 0.4455025,0.1965795 0.4388372,0.2046508 0.4315144,0.2121324 0.4315144,0.2121324 0.4204095,0.2216252 0.4141381,0.2253891 0.4106645,0.2264774 0.4070309,0.2269426 0.4070309,0.2269426 0.3996612,0.2257253 0.396264,0.2241453 0.3932659,0.221902 0.3907917,0.2190898 0.3890152,0.2157933 0.3879929,0.2121906 0.3876176,0.2084633 0.3876176,0.2084633 0.3880463,0.2033888 0.3897927,0.1986127 0.3929739,0.1946405 0.3968906,0.1913848 0.3968906,0.1913848 0.4085293,0.1812745 0.4137157,0.1755643 0.4182802,0.1693487 0.4220483,0.1626193 0.4248565,0.1554392 0.4265514,0.1479146 0.4269779,0.1402164 0.4269779,0.1402164 0.4266372,0.1326678 0.4254372,0.1252072 0.4233692,0.1179402 0.4204114,0.1109864 0.4166192,0.1044523 0.4120825,0.0984067 0.4070368,0.0927841 0.4014938,0.0876469 0.4014938,0.0876469 0.3917602,0.0800842 0.3813668,0.0734567 0.3704371,0.0677577 0.3590635,0.063005 0.3473326,0.0592197 0.3353479,0.0563366 0.323139,0.0546387 0.3108315,0.0539571 0.3108315,0.0539571 0.291288,0.0555528 0.2816253,0.057246 0.2721012,0.0595855 0.2627616,0.0625855 0.2536743,0.0662742 0.244911,0.0706807 0.2365101,0.0757433 0.2285321,0.0814483 0.2210521,0.087794 0.2142008,0.0948099 0.2081693,0.102546 0.2031846,0.1109873 0.1994189,0.120043 0.1969526,0.1295347 0.1958858,0.1392824 0.1958858,0.1392824 0.1963195,0.1462365 0.1976517,0.153077 0.1998178,0.1596975 0.2028796,0.1659586 0.2066442,0.1718208 0.2110274,0.1772395 0.2211699,0.1867817 0.2211699,0.1867817 0.2262494,0.190847 0.2308412,0.1954467 0.2327257,0.1981017 0.2340573,0.2010844 0.2348459,0.2075293 0.2348459,0.2075293 0.2343997,0.2112951 0.2332558,0.2149094 0.2313914,0.2182106 0.2289045,0.221073 0.2259228,0.2234146 0.2225276,0.2251033 0.2188744,0.2261148 0.215099,0.2264756 0.215099,0.2264756 0.210203,0.2259217 0.2056444,0.2240455 0.1977538,0.2181366 0.1977538,0.2181366 0.1894389,0.2104819 0.1817735,0.2021826 0.1748592,0.1932394 0.168985,0.183591 0.1641706,0.173364 0.1607328,0.1626038 0.1586466,0.1514966 0.1579931,0.1402164z" transform="matrix(1,0,0,-1,0.62865,0.62865)" fill="rgb(119,119,119)" fill-rule="nonzero" shaper:cutDepth="0.0000254" stroke-linecap="round" stroke-linejoin="round" /><path d="M0.277542,0.4161258 L0.1783349,0.4161258 0.1773397,0.416126 0.1773397,0.416126 0.1736601,0.4160347 0.1700237,0.4165864 0.1666034,0.4179416 0.1635775,0.4200338 0.1611241,0.4227747 0.1593644,0.426005 0.1583568,0.4295425 0.1579931,0.4332044 0.1579931,0.4332044 0.1581858,0.4370885 0.1592469,0.440828 0.1613068,0.4441168 0.1642973,0.4466014 0.1678196,0.4482409 0.1715929,0.4491954 0.1793429,0.449749 0.4423885,0.4497491 0.4423885,0.4497491 0.4505433,0.4492539 0.4545392,0.4483839 0.4583258,0.4468435 0.461493,0.4442753 0.4635807,0.4407688 0.4646211,0.4368177 0.4648706,0.4327374 0.4648706,0.4327374 0.4640936,0.4275901 0.4620424,0.4228154 0.458361,0.4191459 0.4535962,0.4170599 0.4535962,0.4170599 0.4478266,0.4161584 0.4419695,0.4161258 0.3111651,0.4161258 0.3111651,0.2704258 0.4437895,0.2704258 0.4437895,0.2704258 0.4514983,0.2698678 0.4552498,0.2689144 0.4587579,0.2672889 0.46171,0.2647941 0.4636984,0.2614846 0.4646802,0.2577448 0.4648706,0.2538811 0.4648706,0.2538811 0.4646901,0.2499686 0.4637615,0.2461657 0.4618321,0.2427646 0.4589214,0.2401506 0.4554166,0.2384045 0.4516361,0.2373795 0.4438315,0.2368027 0.1802751,0.2368027 0.1802751,0.2368027 0.1744971,0.2368508 0.1688005,0.2377367 0.1688005,0.2377367 0.1642823,0.2400586 0.1608032,0.2437574 0.158721,0.2483811 0.1579931,0.2534141 0.1579931,0.2534141 0.1582516,0.2573004 0.1593761,0.2610286 0.1613958,0.2643463 0.164374,0.2668588 0.1678493,0.2686109 0.1715945,0.269682 0.1793429,0.2704258 0.277542,0.2704258 0.277542,0.4161258z" transform="matrix(1,0,0,-1,0.62865,0.62865)" fill="rgb(119,119,119)" fill-rule="nonzero" shaper:cutDepth="0.0000254" stroke-linecap="round" stroke-linejoin="round" /></svg>