<?xml version="1.0" encoding="utf-8"?>
<!-- Generator: Fusion 360, Shaper Origin Export Add-In, Version 1.6.10  -->
<svg xmlns="http://www.w3.org/2000/svg" xmlns:xlink="http://www.w3.org/1999/xlink" xmlns:shaper="http://www.shapertools.com/namespaces/shaper" shaper:fusionaddin="version:1.6.10" width="1.397cm" height="0.7874cm" version="1.1" x="0cm" y="0cm" viewBox="0 0 1.397 0.7874" enable-background="new 0 0 1.397 0.7874" xml:space="preserve"><path d="M-0.3561766,0.2553963 L1.0408234,0.2553963 1.0408234,-0.5320037 -0.3561766,-0.5320037 -0.3561766,0.2553963z" transform="matrix(1,0,0,-1,0.3561766,0.2553963)" fill="rgb(0,0,0)" shaper:cutDepth="0.000127" stroke-linecap="round" stroke-linejoin="round" /><path d="M-0.0182861,-0.123806 L-0.0182861,-0.123806 -0.0171839,-0.0955931 -0.014052,-0.0675303 -0.0115667,-0.0536307 -0.0081269,-0.0399359 -0.0036204,-0.026555 0.0019142,-0.013565 0.0087599,-0.0012166 0.0170961,0.0101778 0.0268705,0.0203669 0.0378721,0.0292132 0.0438634,0.0329458 0.0502044,0.036048 0.0567897,0.038599 0.0635715,0.0405494 0.0774704,0.0430105 0.0915707,0.0437139 0.0915707,0.0437139 0.1064591,0.0428849 0.1210937,0.040017 0.1281888,0.0377174 0.1350751,0.0348474 0.1481654,0.0277085 0.1600905,0.0187617 0.1706354,0.0082201 0.1798324,-0.0035149 0.1875329,-0.0162862 0.194008,-0.0297224 0.1994258,-0.0436178 0.2038903,-0.0578508 0.207466,-0.0723347 0.2101456,-0.0870088 0.2121136,-0.101801 0.2132708,-0.1166689 0.2136849,-0.1315823 0.2136849,-0.1315823 0.2133453,-0.146795 0.2123419,-0.1619785 0.2084064,-0.1921504 0.2053684,-0.2070612 0.2012303,-0.2217037 0.1960293,-0.2360044 0.1895994,-0.249795 0.1818396,-0.2628838 0.1725735,-0.2749519 0.1618359,-0.2857333 0.1498563,-0.29511 0.1433634,-0.2990764 0.1365059,-0.3023673 0.1220735,-0.3071587 0.1070911,-0.3097783 0.0919002,-0.310569 0.0919002,-0.310569 0.0831123,-0.3102935 0.0743789,-0.309304 0.0657293,-0.3077178 0.0572849,-0.3052828 0.0490849,-0.3021083 0.0412869,-0.298053 0.0338822,-0.2933138 0.0270522,-0.2877795 0.0148783,-0.2751081 0.0095474,-0.2681176 0.0047489,-0.2607517 -0.0032511,-0.2451052 -0.0092576,-0.2285884 0.0568409,-0.2030848 0.0568409,-0.2030848 0.0602378,-0.2181287 0.0626717,-0.2254476 0.0661495,-0.2323271 0.0708797,-0.238424 0.0767152,-0.2434535 0.0801244,-0.2452538 0.0837862,-0.2464681 0.0914389,-0.2473042 0.0914389,-0.2473042 0.0999698,-0.2466736 0.1040933,-0.2455232 0.1079968,-0.2437577 0.1149045,-0.2387275 0.1207089,-0.2324404 0.1253473,-0.22525 0.1291329,-0.2175659 0.1321408,-0.2095511 0.1345381,-0.201326 0.1381574,-0.1845934 0.1405127,-0.1676323 0.1416369,-0.1505474 0.1419848,-0.1334276 0.1419848,-0.1334276 0.1406647,-0.0987106 0.138672,-0.0814573 0.1350414,-0.0644713 0.1324838,-0.0561687 0.1291353,-0.0481528 0.1249273,-0.0405545 0.1199186,-0.0334555 0.113787,-0.0273047 0.1063713,-0.0227893 0.0980514,-0.0203004 0.0893959,-0.0195509 0.0893959,-0.0195509 0.0839316,-0.0199345 0.0785729,-0.021071 0.0735569,-0.0232673 0.0690544,-0.0263868 0.0651555,-0.0302323 0.0617477,-0.0345201 0.0587956,-0.0391341 0.056435,-0.0440754 0.0529166,-0.0544507 0.0507869,-0.0651949 0.0496181,-0.0760881 0.0491964,-0.0870334 0.0924933,-0.0870334 0.0924933,-0.1502982 -0.0182861,-0.1502982 -0.0182861,-0.123806z" transform="matrix(1,0,0,-1,0.3561766,0.2553963)" fill="rgb(119,119,119)" fill-rule="nonzero" shaper:cutDepth="0.0000254" stroke-linecap="round" stroke-linejoin="round" /><path d="M0.4091469,0.1157435 L0.4610767,0.1157435 0.2820241,-0.3274397 0.2300942,-0.3274397 0.4091469,0.1157435z" transform="matrix(1,0,0,-1,0.3561766,0.2553963)" fill="rgb(119,119,119)" fill-rule="nonzero" shaper:cutDepth="0.0000254" stroke-linecap="round" stroke-linejoin="round" /><path d="M0.4782768,0.0394963 L0.5507019,0.0394963 0.5634207,-0.0195509 0.6322212,-0.0195509 0.6445447,0.0394963 0.7119613,0.0394963 0.6322212,-0.3021337 0.5607188,-0.3021337 0.4782768,0.0394963z M0.6067176,-0.1636102 L0.6212817,-0.0743804 0.5734377,-0.0743804 0.5907696,-0.1636102 0.5985459,-0.214222 0.5994026,-0.214222 0.6067176,-0.1636102z" transform="matrix(1,0,0,-1,0.3561766,0.2553963)" fill="rgb(119,119,119)" fill-rule="nonzero" shaper:cutDepth="0.0000254" stroke-linecap="round" stroke-linejoin="round" /></svg>