<?xml version="1.0" encoding="utf-8"?>
<!-- Generator: Fusion 360, Shaper Origin Export Add-In, Version 1.6.10  -->
<svg xmlns="http://www.w3.org/2000/svg" xmlns:xlink="http://www.w3.org/1999/xlink" xmlns:shaper="http://www.shapertools.com/namespaces/shaper" shaper:fusionaddin="version:1.6.10" width="12.35075cm" height="4.572cm" version="1.1" x="0cm" y="0cm" viewBox="0 0 12.35075 4.572" enable-background="new 0 0 12.35075 4.572" xml:space="preserve"><path d="M-6.5157757,-3.1326442 L5.8349743,-3.1326442 5.8349743,-2.1801442 A15.24,15.24 44.8294929 0,1 0.1199743,1.4393558 L-6.5157757,1.4393558 -6.5157757,-3.1326442z" transform="matrix(1,0,0,-1,6.5157757,1.4393558)" fill="rgb(0,0,0)" shaper:cutDepth="0.003175" stroke-linecap="round" stroke-linejoin="round" /><path d="M0.6487109,0.2194078 L0.5323442,0.3275973 A0.15875,0.15875 47.0855128 0,1 0.4242503,0.3700834 L-0.103474,0.3700834 A0.15875,0.15875 270 0,0 -0.262224,0.5288334 L-0.262224,0.8311436 A0.15875,0.15875 180 0,0 -0.103474,0.9898936 L0.6558953,0.9898936 A0.15875,0.15875 90 0,0 0.7129049,0.9793039 L1.2014333,0.7913263 A0.15875,0.15875 68.9541113 0,0 1.3031738,0.643166 L1.3031738,0.3356717 A0.15875,0.15875 0 0,0 1.1444238,0.1769217 L0.7568048,0.1769217 A0.15875,0.15875 270 0,0 0.6487109,0.2194078z" transform="matrix(1,0,0,-1,6.5157757,1.4393558)" fill="rgb(255,255,255)" stroke="rgb(0,0,0)" stroke-width="0.0010cm" stroke-linecap="round" stroke-linejoin="round" shaper:cutDepth="0.003175" /><path d="M-2.3785005,1.0100105 L-2.3785005,0.4311386 A0.15875,0.15875 180 0,1 -2.2197505,0.2723886 L-0.663534,0.2723886 A0.15875,0.15875 270 0,1 -0.504784,0.4311386 L-0.504784,1.0100105 A0.15875,0.15875 0 0,1 -0.663534,1.1687605 L-2.2197505,1.1687605 A0.15875,0.15875 90 0,1 -2.3785005,1.0100105z" transform="matrix(1,0,0,-1,6.5157757,1.4393558)" fill="rgb(255,255,255)" stroke="rgb(0,0,0)" stroke-width="0.0010cm" stroke-linecap="round" stroke-linejoin="round" shaper:cutDepth="0.003175" /><path d="M-3.0409163,-0.9521942 L-3.2924022,-0.9521942 A0.15875,0.15875 90 0,1 -3.4511522,-1.1109442 L-3.4511522,-1.7020011 A0.15875,0.15875 180 0,1 -3.2924022,-1.8607511 L-3.0409163,-1.8607511 A0.15875,0.15875 270 0,1 -2.8821663,-1.7020011 L-2.8821663,-1.1109442 A0.15875,0.15875 0 0,1 -3.0409163,-0.9521942z" transform="matrix(1,0,0,-1,6.5157757,1.4393558)" fill="rgb(255,255,255)" stroke="rgb(0,0,0)" stroke-width="0.0010cm" stroke-linecap="round" stroke-linejoin="round" shaper:cutDepth="0.003175" /><path d="M-4.0287685,0.0146159 L-4.5223507,0.0146159 A0.15875,0.15875 90 0,1 -4.6811007,-0.1441341 L-4.6811007,-0.4330289 A0.15875,0.15875 180 0,1 -4.5223507,-0.5917789 L-4.0287685,-0.5917789 A0.15875,0.15875 270 0,1 -3.8700185,-0.4330289 L-3.8700185,-0.1441341 A0.15875,0.15875 0 0,1 -4.0287685,0.0146159z" transform="matrix(1,0,0,-1,6.5157757,1.4393558)" fill="rgb(255,255,255)" stroke="rgb(0,0,0)" stroke-width="0.0010cm" stroke-linecap="round" stroke-linejoin="round" shaper:cutDepth="0.003175" /><path d="M-5.1266179,-0.9332013 L-5.4801332,-0.9332013 A0.15875,0.15875 90 0,1 -5.6388832,-1.0919513 L-5.6388832,-1.7082462 A0.15875,0.15875 180 0,1 -5.4801332,-1.8669962 L-5.1266179,-1.8669962 A0.15875,0.15875 270 0,1 -4.9678679,-1.7082462 L-4.9678679,-1.0919513 A0.15875,0.15875 0 0,1 -5.1266179,-0.9332013z" transform="matrix(1,0,0,-1,6.5157757,1.4393558)" fill="rgb(255,255,255)" stroke="rgb(0,0,0)" stroke-width="0.0010cm" stroke-linecap="round" stroke-linejoin="round" shaper:cutDepth="0.003175" /><path d="M-5.5304275,-2.3402276 L-5.5304275,-2.6589591 A0.15875,0.15875 180 0,1 -5.3716775,-2.8177091 L-3.2056094,-2.8177091 A0.15875,0.15875 270 0,1 -3.0468594,-2.6589591 L-3.0468594,-2.3402276 A0.15875,0.15875 0 0,1 -3.2056094,-2.1814776 L-5.3716775,-2.1814776 A0.15875,0.15875 90 0,1 -5.5304275,-2.3402276z" transform="matrix(1,0,0,-1,6.5157757,1.4393558)" fill="rgb(255,255,255)" stroke="rgb(0,0,0)" stroke-width="0.0010cm" stroke-linecap="round" stroke-linejoin="round" shaper:cutDepth="0.003175" /><path d="M-6.2331314,-2.8229274 L-5.9203684,-2.8229274 A0.15875,0.15875 270 0,1 -5.7616184,-2.6641774 L-5.7616184,0.8986649 A0.15875,0.15875 0 0,1 -5.9203684,1.0574149 L-6.2331314,1.0574149 A0.15875,0.15875 90 0,1 -6.3918814,0.8986649 L-6.3918814,-2.6641774 A0.15875,0.15875 180 0,1 -6.2331314,-2.8229274z" transform="matrix(1,0,0,-1,6.5157757,1.4393558)" fill="rgb(255,255,255)" stroke="rgb(0,0,0)" stroke-width="0.0010cm" stroke-linecap="round" stroke-linejoin="round" shaper:cutDepth="0.003175" /><path d="M3.7909093,-2.2182442 a0.215265,0.215265 0 1,1 0.43053,0 a0.215265,0.215265 0 1,1 -0.43053,0z" transform="matrix(1,0,0,-1,6.5157757,1.4393558)" fill="rgb(255,255,255)" stroke="rgb(0,0,0)" stroke-width="0.0010cm" stroke-linecap="round" stroke-linejoin="round" shaper:cutDepth="0.003175" /><path d="M-5.1816407,0.4805058 a0.215265,0.215265 0 1,1 0.43053,0 a0.215265,0.215265 0 1,1 -0.43053,0z" transform="matrix(1,0,0,-1,6.5157757,1.4393558)" fill="rgb(255,255,255)" stroke="rgb(0,0,0)" stroke-width="0.0010cm" stroke-linecap="round" stroke-linejoin="round" shaper:cutDepth="0.003175" /><path d="M1.4912288,-2.875472 L3.2057288,-2.875472 A0.15875,0.15875 270 0,1 3.3644788,-2.716722 L3.3644788,-1.002222 A0.15875,0.15875 0 0,1 3.2057288,-0.843472 L1.4912288,-0.843472 A0.15875,0.15875 90 0,1 1.3324788,-1.002222 L1.3324788,-2.716722 A0.15875,0.15875 180 0,1 1.4912288,-2.875472z" transform="matrix(1,0,0,-1,6.5157757,1.4393558)" fill="rgb(255,255,255)" stroke="rgb(0,0,0)" stroke-width="0.0010cm" stroke-linecap="round" stroke-linejoin="round" shaper:cutDepth="0.003175" /><path d="M-0.1066245,-2.9279001 L-0.764295,-2.7419431 A0.15875,0.15875 74.2116962 0,1 -0.8074883,-2.735954 L-2.3748848,-2.735954 A0.15875,0.15875 270 0,0 -2.5336348,-2.577204 L-2.5336348,-1.8678097 A0.15875,0.15875 0 0,1 -2.5816053,-1.754102 A0.15875,0.15875 225.7473179 0,0 -2.6295757,-1.6403942 L-2.6295757,-0.0528942 A0.15875,0.15875 180 0,0 -2.4708257,0.1058558 L-0.4070757,0.1058558 A0.15875,0.15875 90 0,0 -0.2483257,-0.0528942 L-0.2483257,-0.2227926 A0.15875,0.15875 180 0,1 -0.0895757,-0.3815426 L0.3619093,-0.3815426 0.3619093,-0.1798942 A0.215265,0.215265 180 0,0 0.7924393,-0.1798942 L0.7924393,-0.3815426 1.0606386,-0.3815426 A0.15875,0.15875 90 0,0 1.2193886,-0.5402926 L1.2193886,-2.7751392 A0.15875,0.15875 0 0,0 1.0606386,-2.9338892 L-0.0634312,-2.9338892 A0.15875,0.15875 270 0,0 -0.1066245,-2.9279001z" transform="matrix(1,0,0,-1,6.5157757,1.4393558)" fill="rgb(255,255,255)" stroke="rgb(0,0,0)" stroke-width="0.0010cm" stroke-linecap="round" stroke-linejoin="round" shaper:cutDepth="0.003175" /><path d="M-4.7149157,-0.926286 L-4.7149157,-1.5925024 A0.6096,0.6096 213.1229402 1,1 -4.7149157,-0.926286z" transform="matrix(1,0,0,-1,6.5157757,1.4393558)" fill="rgb(255,255,255)" stroke="rgb(0,0,0)" stroke-width="0.0010cm" stroke-linecap="round" stroke-linejoin="round" shaper:cutDepth="0.003175" /></svg>