<?xml version="1.0" encoding="utf-8"?>
<!-- Generator: Fusion 360, Shaper Origin Export Add-In, Version 1.6.10  -->
<svg xmlns="http://www.w3.org/2000/svg" xmlns:xlink="http://www.w3.org/1999/xlink" xmlns:shaper="http://www.shapertools.com/namespaces/shaper" shaper:fusionaddin="version:1.6.10" width="1.397cm" height="0.7874cm" version="1.1" x="0cm" y="0cm" viewBox="0 0 1.397 0.7874" enable-background="new 0 0 1.397 0.7874" xml:space="preserve"><path d="M1.0510508,-0.5361358 L-0.3459492,-0.5361358 -0.3459492,0.2512642 1.0510508,0.2512642 1.0510508,-0.5361358z" transform="matrix(1,0,0,-1,0.3459492,0.2512642)" fill="rgb(0,0,0)" shaper:cutDepth="0.000127" stroke-linecap="round" stroke-linejoin="round" /><path d="M0.7142805,-0.3202358 L0.6418555,-0.3202358 0.6291367,-0.2611886 0.5603362,-0.2611886 0.5480127,-0.3202358 0.4805961,-0.3202358 0.5603362,0.0213942 0.6318386,0.0213942 0.7142805,-0.3202358z M0.5858398,-0.1171293 L0.5712757,-0.2063591 0.6191197,-0.2063591 0.6017878,-0.1171293 0.5940115,-0.0665175 0.5931548,-0.0665175 0.5858398,-0.1171293z" transform="matrix(1,0,0,-1,0.3459492,0.2512642)" fill="rgb(120,120,120)" fill-rule="nonzero" shaper:cutDepth="0.0000254" stroke-linecap="round" stroke-linejoin="round" /><path d="M0.2941626,-0.396483 L0.2422328,-0.396483 0.4212854,0.0467002 0.4732152,0.0467002 0.2941626,-0.396483z" transform="matrix(1,0,0,-1,0.3459492,0.2512642)" fill="rgb(120,120,120)" fill-rule="nonzero" shaper:cutDepth="0.0000254" stroke-linecap="round" stroke-linejoin="round" /><path d="M0.2250326,-0.3202358 L0.1526076,-0.3202358 0.1398888,-0.2611886 0.0710883,-0.2611886 0.0587648,-0.3202358 -0.0086518,-0.3202358 0.0710883,0.0213942 0.1425907,0.0213942 0.2250326,-0.3202358z M0.0965919,-0.1171293 L0.0820278,-0.2063591 0.1298718,-0.2063591 0.1125399,-0.1171293 0.1047636,-0.0665175 0.1039069,-0.0665175 0.0965919,-0.1171293z" transform="matrix(1,0,0,-1,0.3459492,0.2512642)" fill="rgb(120,120,120)" fill-rule="nonzero" shaper:cutDepth="0.0000254" stroke-linecap="round" stroke-linejoin="round" /></svg>