<?xml version="1.0" encoding="UTF-8" standalone="no"?>
<!-- Generator: Fusion 360, Shaper Origin Export Add-In, Version 1.6.10  -->

<svg
   shaper:fusionaddin="version:1.6.10"
   width="7.77875cm"
   height="4.2545cm"
   version="1.1"
   x="0cm"
   y="0cm"
   viewBox="0 0 7.77875 4.2545"
   enable-background="new 0 0 7.77875 4.2545"
   xml:space="preserve"
   id="svg88"
   sodipodi:docname="RMRK_.063_OH1A2-13_MASTER ARM LEGEND PLATE_-_V16.svg"
   inkscape:version="1.2.1 (9c6d41e410, 2022-07-14)"
   xmlns:inkscape="http://www.inkscape.org/namespaces/inkscape"
   xmlns:sodipodi="http://sodipodi.sourceforge.net/DTD/sodipodi-0.dtd"
   xmlns="http://www.w3.org/2000/svg"
   xmlns:svg="http://www.w3.org/2000/svg"
   xmlns:shaper="http://www.shapertools.com/namespaces/shaper"><defs
     id="defs92" /><sodipodi:namedview
     id="namedview90"
     pagecolor="#ffffff"
     bordercolor="#000000"
     borderopacity="0.25"
     inkscape:showpageshadow="2"
     inkscape:pageopacity="0.0"
     inkscape:pagecheckerboard="0"
     inkscape:deskcolor="#d1d1d1"
     inkscape:document-units="cm"
     showgrid="false"
     inkscape:zoom="5.1326531"
     inkscape:cx="177.39364"
     inkscape:cy="104.03976"
     inkscape:window-width="3840"
     inkscape:window-height="2066"
     inkscape:window-x="5749"
     inkscape:window-y="-11"
     inkscape:window-maximized="1"
     inkscape:current-layer="layer1" /><path
     d="M-3.4106693,2.12725 L-3.4106693,-2.12725 4.3680807,-2.12725 4.3680807,1.63195 3.2568307,2.12725 -3.4106693,2.12725z"
     transform="matrix(1,0,0,-1,3.4106693,2.12725)"
     fill="rgb(0,0,0)"
     shaper:cutDepth="0.0015875"
     stroke-linecap="round"
     stroke-linejoin="round"
     id="path2" /><path
     d="M2.0806836,-1.1269995 L2.0259076,-1.1104414 2.0259076,-1.1104414 2.0187835,-1.1068047 2.0157989,-1.1041412 2.0133833,-1.1009146 2.0116056,-1.0973091 2.0104908,-1.0934706 2.0097426,-1.0855012 2.0097426,-1.0855012 2.0112701,-1.0758355 2.0132193,-1.0713395 2.0159188,-1.0672493 2.019279,-1.0636771 2.023375,-1.0609948 2.0279678,-1.0592823 2.0328354,-1.0587136 2.0328354,-1.0587136 2.03846,-1.0593126 2.0439578,-1.0606848 2.0548521,-1.06379 2.4164529,-1.1724225 2.4164529,-1.1724225 2.4204977,-1.1738283 2.4242919,-1.175808 2.4276923,-1.1784098 2.4305282,-1.1816149 2.4326718,-1.1853175 2.4339482,-1.1894062 2.4345986,-1.1936344 2.43465,-1.1979169 2.43465,-1.1979169 2.434488,-1.2029437 2.4335448,-1.2078823 2.4315235,-1.2124826 2.4284138,-1.2164325 2.4244262,-1.2194799 2.4199825,-1.2218555 2.4105576,-1.2253254 2.0504783,-1.3351805 2.0504783,-1.3351805 2.0424159,-1.337414 2.0341286,-1.3384135 2.0341286,-1.3384135 2.0290837,-1.3379014 2.0242487,-1.336383 2.0198763,-1.3338205 2.0162044,-1.3303237 2.0132839,-1.3261837 2.0112807,-1.321523 2.0101193,-1.3165914 2.0097426,-1.3115335 2.0097426,-1.3115335 2.0105713,-1.302845 2.0120753,-1.2987407 2.0143853,-1.2950297 2.0173826,-1.2918519 2.0209786,-1.2893585 2.0248753,-1.2873847 2.0290184,-1.2859809 2.0806836,-1.2700189 2.0806836,-1.1269995z M2.1331505,-1.1436 L2.1331505,-1.2534185 2.3170058,-1.1985092 2.1331505,-1.1436z"
     transform="matrix(1,0,0,-1,3.4106693,2.12725)"
     fill="rgb(104,104,104)"
     fill-rule="nonzero"
     shaper:cutDepth="0.0000762"
     stroke-linecap="round"
     stroke-linejoin="round"
     id="path4" /><path
     d="M2.0253534,-1.4579418 L2.4128537,-1.6449901 2.4128537,-1.6449901 2.4256549,-1.6507181 2.4322244,-1.6531968 2.4390838,-1.6546 2.4390838,-1.6546 2.4441971,-1.6540905 2.4491271,-1.6526524 2.4536982,-1.6503067 2.4576504,-1.6470256 2.4609316,-1.6430733 2.4632773,-1.6385023 2.4647154,-1.6335722 2.4652249,-1.6284589 2.4652249,-1.6284589 2.4645608,-1.621212 2.4634477,-1.6177508 2.4617222,-1.6145223 2.4594755,-1.6116361 2.4567857,-1.6091895 2.4505379,-1.6054585 2.056582,-1.4151375 2.0533896,-1.4138605 2.0533896,-1.4138605 2.0446873,-1.4090483 2.0399329,-1.4076393 2.03496,-1.4075071 2.03496,-1.4075071 2.0298664,-1.4079755 2.0249072,-1.4092256 2.0203632,-1.4115679 2.016484,-1.4148987 2.0134705,-1.4190301 2.0113031,-1.4236602 2.0101414,-1.4286413 2.0097426,-1.4337405 2.0097426,-1.4337405 2.0103768,-1.4414436 2.0114353,-1.445177 2.0132185,-1.4486122 2.0157251,-1.451549 2.0187137,-1.4539985 2.0253534,-1.4579418z"
     transform="matrix(1,0,0,-1,3.4106693,2.12725)"
     fill="rgb(104,104,104)"
     fill-rule="nonzero"
     shaper:cutDepth="0.0000762"
     stroke-linecap="round"
     stroke-linejoin="round"
     id="path6" /><path
     d="M2.0806836,-1.789116 L2.0259076,-1.772558 2.0259076,-1.772558 2.0187835,-1.7689213 2.0157989,-1.7662578 2.0133833,-1.7630311 2.0116056,-1.7594257 2.0104908,-1.7555871 2.0097426,-1.7476178 2.0097426,-1.7476178 2.0112701,-1.737952 2.0132193,-1.733456 2.0159188,-1.7293658 2.019279,-1.7257936 2.023375,-1.7231114 2.0279678,-1.7213988 2.0328354,-1.7208301 2.0328354,-1.7208301 2.03846,-1.7214292 2.0439578,-1.7228013 2.0548521,-1.7259066 2.4164529,-1.834539 2.4164529,-1.834539 2.4204977,-1.8359449 2.4242919,-1.8379246 2.4276923,-1.8405263 2.4305282,-1.8437314 2.4326718,-1.847434 2.4339482,-1.8515228 2.4345986,-1.8557509 2.43465,-1.8600335 2.43465,-1.8600335 2.434488,-1.8650602 2.4335448,-1.8699988 2.4315235,-1.8745991 2.4284138,-1.878549 2.4244262,-1.8815965 2.4199825,-1.8839721 2.4105576,-1.8874419 2.0504783,-1.997297 2.0504783,-1.997297 2.0424159,-1.9995305 2.0341286,-2.00053 2.0341286,-2.00053 2.0290837,-2.0000179 2.0242487,-1.9984995 2.0198763,-1.995937 2.0162044,-1.9924402 2.0132839,-1.9883002 2.0112807,-1.9836396 2.0101193,-1.9787079 2.0097426,-1.97365 2.0097426,-1.97365 2.0105713,-1.9649616 2.0120753,-1.9608572 2.0143853,-1.9571462 2.0173826,-1.9539684 2.0209786,-1.9514751 2.0248753,-1.9495012 2.0290184,-1.9480975 2.0806836,-1.9321355 2.0806836,-1.789116z M2.1331505,-1.8057165 L2.1331505,-1.915535 2.3170058,-1.8606258 2.1331505,-1.8057165z"
     transform="matrix(1,0,0,-1,3.4106693,2.12725)"
     fill="rgb(104,104,104)"
     fill-rule="nonzero"
     shaper:cutDepth="0.0000762"
     stroke-linecap="round"
     stroke-linejoin="round"
     id="path8" /><path
     d="M0.9694336,-1.1476907 L0.9146576,-1.1311326 0.9146576,-1.1311326 0.9075335,-1.1274959 0.9045489,-1.1248324 0.9021333,-1.1216057 0.9003556,-1.1180003 0.8992408,-1.1141617 0.8984926,-1.1061924 0.8984926,-1.1061924 0.9000201,-1.0965266 0.9019693,-1.0920306 0.9046688,-1.0879404 0.908029,-1.0843682 0.912125,-1.081686 0.9167178,-1.0799734 0.9215854,-1.0794047 0.9215854,-1.0794047 0.92721,-1.0800038 0.9327078,-1.0813759 0.9436021,-1.0844812 1.3052029,-1.1931136 1.3052029,-1.1931136 1.3092477,-1.1945195 1.3130419,-1.1964992 1.3164423,-1.1991009 1.3192782,-1.202306 1.3214218,-1.2060086 1.3226982,-1.2100974 1.3233486,-1.2143255 1.3234,-1.2186081 1.3234,-1.2186081 1.323238,-1.2236348 1.3222948,-1.2285734 1.3202735,-1.2331737 1.3171638,-1.2371236 1.3131762,-1.2401711 1.3087325,-1.2425467 1.2993076,-1.2460165 0.9392283,-1.3558716 0.9392283,-1.3558716 0.9311659,-1.3581051 0.9228786,-1.3591046 0.9228786,-1.3591046 0.9178337,-1.3585925 0.9129987,-1.3570741 0.9086263,-1.3545117 0.9049544,-1.3510149 0.9020339,-1.3468748 0.9000307,-1.3422142 0.8988693,-1.3372825 0.8984926,-1.3322246 0.8984926,-1.3322246 0.8993213,-1.3235362 0.9008253,-1.3194318 0.9031353,-1.3157208 0.9061326,-1.312543 0.9097286,-1.3100497 0.9136253,-1.3080758 0.9177684,-1.3066721 0.9694336,-1.2907101 0.9694336,-1.1476907z M1.0219005,-1.1642911 L1.0219005,-1.2741096 1.2057558,-1.2192004 1.0219005,-1.1642911z"
     transform="matrix(1,0,0,-1,3.4106693,2.12725)"
     fill="rgb(104,104,104)"
     fill-rule="nonzero"
     shaper:cutDepth="0.0000762"
     stroke-linecap="round"
     stroke-linejoin="round"
     id="path10" /><path
     d="M0.9141034,-1.4786329 L1.3016037,-1.6656813 1.3016037,-1.6656813 1.3144049,-1.6714093 1.3209744,-1.6738879 1.3278338,-1.6752911 1.3278338,-1.6752911 1.3329471,-1.6747816 1.3378771,-1.6733436 1.3424482,-1.6709979 1.3464004,-1.6677167 1.3496816,-1.6637645 1.3520273,-1.6591934 1.3534654,-1.6542633 1.3539749,-1.6491501 1.3539749,-1.6491501 1.3533108,-1.6419031 1.3521977,-1.638442 1.3504722,-1.6352135 1.3482255,-1.6323272 1.3455357,-1.6298807 1.3392879,-1.6261497 0.945332,-1.4358286 0.9421396,-1.4345517 0.9421396,-1.4345517 0.9334373,-1.4297394 0.9286829,-1.4283304 0.92371,-1.4281983 0.92371,-1.4281983 0.9186164,-1.4286666 0.9136572,-1.4299168 0.9091132,-1.4322591 0.905234,-1.4355899 0.9022205,-1.4397212 0.9000531,-1.4443513 0.8988914,-1.4493325 0.8984926,-1.4544317 0.8984926,-1.4544317 0.8991268,-1.4621347 0.9001853,-1.4658681 0.9019685,-1.4693034 0.9044751,-1.4722401 0.9074637,-1.4746896 0.9141034,-1.4786329z"
     transform="matrix(1,0,0,-1,3.4106693,2.12725)"
     fill="rgb(104,104,104)"
     fill-rule="nonzero"
     shaper:cutDepth="0.0000762"
     stroke-linecap="round"
     stroke-linejoin="round"
     id="path12" /><path
     d="M1.0876688,-1.898737 L1.0876687,-1.930476 1.0212518,-1.930476 1.0212518,-1.930476 1.0091718,-1.9299446 0.9971731,-1.9285124 0.9854025,-1.9257222 0.9742236,-1.921142 0.9690478,-1.9180027 0.9642908,-1.9142486 0.9601539,-1.9098408 0.9567823,-1.9048131 0.9541811,-1.8993338 0.9523935,-1.8935543 0.9509595,-1.8815559 0.9509595,-1.8815559 0.9521353,-1.8715212 0.9551553,-1.8618813 0.9600333,-1.8530357 0.9664778,-1.8452541 0.9664778,-1.8452541 0.9817489,-1.8327633 0.9898763,-1.827164 0.9983477,-1.8220985 1.0160636,-1.8134118 1.0344727,-1.8063135 1.0534127,-1.8007825 1.0727443,-1.796829 1.0923405,-1.7945346 1.1120548,-1.793711 1.1120548,-1.793711 1.1364741,-1.7951722 1.1606606,-1.7988531 1.1725905,-1.8015698 1.1843641,-1.8048981 1.1959393,-1.8088621 1.2072571,-1.8135097 1.2182757,-1.8188287 1.2289318,-1.8248399 1.2391209,-1.8316138 1.2485897,-1.8393594 1.2570328,-1.8482095 1.2607499,-1.8530762 1.2639655,-1.8582766 1.2687639,-1.8695354 1.2701614,-1.8754787 1.2709332,-1.8815559 1.2709332,-1.8815559 1.2701336,-1.8904495 1.2672066,-1.8988964 1.2624706,-1.9064677 1.2564201,-1.9130489 1.2424268,-1.9241683 1.227334,-1.9337457 1.227334,-1.9337457 1.2211125,-1.9377984 1.2156236,-1.9427933 1.2135133,-1.9458632 1.2120576,-1.9492943 1.2110767,-1.9566537 1.2110767,-1.9566537 1.211705,-1.9621914 1.213358,-1.967512 1.2162564,-1.9722714 1.2200882,-1.9763152 1.2246732,-1.9794849 1.2297545,-1.9817734 1.235172,-1.9830759 1.2407278,-1.9835337 1.2407278,-1.9835337 1.2458936,-1.9830808 1.2509056,-1.9818869 1.2602598,-1.9774509 1.2689116,-1.9717806 1.2772144,-1.9656137 1.2772144,-1.9656137 1.2866232,-1.9573731 1.2955208,-1.9485822 1.3035562,-1.9389997 1.3105801,-1.9286487 1.316233,-1.917496 1.3203106,-1.905674 1.3226804,-1.8933944 1.3234,-1.8809094 1.3234,-1.8809094 1.3229271,-1.8720078 1.3217036,-1.8631779 1.3196557,-1.8545022 1.3168584,-1.8460382 1.3134698,-1.8377928 1.3093642,-1.8298808 1.3045972,-1.8223478 1.2991064,-1.8153258 1.2991064,-1.8153258 1.289928,-1.8060982 1.2801393,-1.7975204 1.2697856,-1.7896334 1.2589757,-1.7823858 1.2477505,-1.7757966 1.2361641,-1.7698699 1.212193,-1.7597341 1.1873894,-1.7518247 1.162013,-1.7460218 1.1491508,-1.7439867 1.1362092,-1.742593 1.1102074,-1.7413365 1.1102074,-1.7413365 1.0903899,-1.7420499 1.0706556,-1.7439971 1.0511013,-1.7472949 1.0318112,-1.7518907 1.0128472,-1.7576897 0.9943591,-1.7648588 0.9764961,-1.7734707 0.9593652,-1.7834578 0.9593652,-1.7834578 0.9471889,-1.7920204 0.9356795,-1.8014545 0.9251544,-1.811983 0.9159235,-1.8236547 0.9083062,-1.8364443 0.9052623,-1.8432349 0.9027805,-1.8502557 0.900826,-1.8574491 0.8994659,-1.8647677 0.8984926,-1.8796162 0.8984926,-1.8796162 0.8994655,-1.8931052 0.9023091,-1.9063287 0.9068169,-1.9190788 0.9128973,-1.9311606 0.9204681,-1.9423676 0.9293741,-1.9525483 0.9394173,-1.9616048 0.9504052,-1.9694933 0.9504052,-1.9694933 0.9628922,-1.9761634 0.9695198,-1.9786718 0.9763686,-1.9804886 0.990384,-1.9824305 1.0045347,-1.9828871 1.1045326,-1.9828313 1.1045326,-1.9828313 1.111804,-1.9828907 1.1190352,-1.9822005 1.1260831,-1.9804173 1.1294047,-1.9789164 1.132394,-1.9768391 1.1348233,-1.9741353 1.1366887,-1.9709979 1.1389929,-1.9641131 1.1399006,-1.9568976 1.1401356,-1.9496335 1.1401356,-1.9005712 1.1401356,-1.9005712 1.139839,-1.8895626 1.1390554,-1.8841007 1.1370874,-1.8789696 1.1370874,-1.8789696 1.132806,-1.8732949 1.1270119,-1.8691418 1.1204069,-1.8665099 1.113348,-1.8655757 1.113348,-1.8655757 1.1064436,-1.8666069 1.0999516,-1.8691415 1.0943861,-1.8733509 1.0902552,-1.8789696 1.0902552,-1.8789696 1.0887766,-1.8837603 1.0879818,-1.8887133 1.0876688,-1.898737z"
     transform="matrix(1,0,0,-1,3.4106693,2.12725)"
     fill="rgb(104,104,104)"
     fill-rule="nonzero"
     shaper:cutDepth="0.0000762"
     stroke-linecap="round"
     stroke-linejoin="round"
     id="path14" /><path
     d="M-0.1294057,-0.1054187 L-0.1720092,-0.0925402 -0.1720092,-0.0925402 -0.1775502,-0.0897117 -0.1798716,-0.0876401 -0.1817503,-0.0851304 -0.1840001,-0.0793407 -0.184582,-0.0731423 -0.184582,-0.0731423 -0.183394,-0.0656244 -0.1818779,-0.0621276 -0.1797783,-0.0589463 -0.1771648,-0.0561679 -0.173979,-0.0540818 -0.1704068,-0.0527497 -0.1666209,-0.0523074 -0.1666209,-0.0523074 -0.1622462,-0.0527734 -0.1579702,-0.0538406 -0.1494969,-0.0562558 0.1317482,-0.1407477 0.1317482,-0.1407477 0.1378452,-0.1433809 0.14049,-0.1454045 0.1426957,-0.1478974 0.1443629,-0.1507771 0.1453557,-0.1539573 0.1459015,-0.1605767 0.1459015,-0.1605767 0.1457755,-0.1644864 0.1450419,-0.1683275 0.1434698,-0.1719055 0.1410511,-0.1749777 0.1379497,-0.1773479 0.1344935,-0.1791956 0.127163,-0.1818944 -0.1528987,-0.2673373 -0.1528987,-0.2673373 -0.1591695,-0.2690744 -0.1656151,-0.2698518 -0.1656151,-0.2698518 -0.1695389,-0.2694535 -0.1732995,-0.2682725 -0.1767002,-0.2662795 -0.1795562,-0.2635598 -0.1818277,-0.2603398 -0.1833857,-0.2567148 -0.184289,-0.2528791 -0.184582,-0.2489451 -0.184582,-0.2489451 -0.1839375,-0.2421874 -0.1827677,-0.2389952 -0.180971,-0.2361088 -0.1786398,-0.2336372 -0.1758429,-0.231698 -0.1695897,-0.2290709 -0.1294057,-0.2166561 -0.1294057,-0.1054187z M-0.0885981,-0.1183302 L-0.0885981,-0.2037446 0.0544005,-0.1610374 -0.0885981,-0.1183302z"
     transform="matrix(1,0,0,-1,3.4106693,2.12725)"
     fill="rgb(104,104,104)"
     fill-rule="nonzero"
     shaper:cutDepth="0.0000762"
     stroke-linecap="round"
     stroke-linejoin="round"
     id="path16" /><path
     d="M-0.1454762,-0.4951285 L-0.1478696,-0.4966641 -0.1478696,-0.4966641 -0.1550523,-0.5011737 -0.1589498,-0.5028141 -0.1631724,-0.5031301 -0.1631724,-0.5031301 -0.1671854,-0.502761 -0.171072,-0.5017001 -0.1746087,-0.4997731 -0.1776476,-0.4971289 -0.1799747,-0.4938407 -0.1816075,-0.4901572 -0.1825527,-0.4862421 -0.1828577,-0.4822234 -0.1828577,-0.4822234 -0.1824619,-0.4769336 -0.1807907,-0.4719071 -0.1773613,-0.4678708 -0.1730106,-0.4648362 -0.0466411,-0.3914218 -0.0466411,-0.3641399 -0.1577122,-0.3641833 -0.1577122,-0.3641833 -0.1674994,-0.36363 -0.1723027,-0.3626193 -0.1768449,-0.3607727 -0.1806099,-0.3576481 -0.1830826,-0.3534213 -0.1843225,-0.3486782 -0.184582,-0.3437795 -0.184582,-0.3437795 -0.1841539,-0.3390424 -0.1828745,-0.3344664 -0.1805575,-0.3303126 -0.1772539,-0.3268961 -0.1772539,-0.3268961 -0.1723896,-0.3242887 -0.1668894,-0.3235955 -0.1558016,-0.3234191 0.1173075,-0.3234476 0.1173075,-0.3234476 0.1232142,-0.3233835 0.1290631,-0.3241471 0.1346564,-0.3260418 0.1394052,-0.3295301 0.1427066,-0.3344104 0.144599,-0.3400081 0.1455625,-0.3458285 0.1459015,-0.3517251 0.1459015,-0.4172762 0.1459015,-0.4172762 0.1453466,-0.4262054 0.1439857,-0.4350472 0.1417869,-0.4437186 0.1385722,-0.4520672 0.1344095,-0.4599838 0.1293246,-0.4673455 0.1234632,-0.474101 0.1168865,-0.4801687 0.1097132,-0.4855097 0.1020259,-0.4900919 0.0939264,-0.4938819 0.0854847,-0.4968542 0.0768363,-0.4991335 0.0680325,-0.5007411 0.0591445,-0.5017407 0.050205,-0.5021242 0.050205,-0.5021242 0.035227,-0.5010901 0.020483,-0.4982813 0.0062407,-0.4935498 -0.0071456,-0.4867651 -0.0134567,-0.4826979 -0.0194111,-0.4781251 -0.0249568,-0.4730614 -0.0299749,-0.4674807 -0.0344742,-0.4614659 -0.0382709,-0.4549935 -0.0413718,-0.4481536 -0.0437263,-0.4410252 -0.0446979,-0.4370569 -0.1454762,-0.4951285z M0.1050939,-0.3641399 L-0.0058335,-0.3641399 -0.0058335,-0.4157675 -0.0058335,-0.4157675 -0.0054847,-0.4239714 -0.0040615,-0.4320494 -0.0025782,-0.4358906 -0.0005301,-0.439459 0.005015,-0.445511 0.005015,-0.445511 0.0096528,-0.4494268 0.0147089,-0.4527867 0.0201213,-0.4555343 0.0257991,-0.4576817 0.0375991,-0.4605016 0.0497021,-0.4613886 0.0497021,-0.4613886 0.0638488,-0.4601513 0.0707689,-0.4585434 0.0775055,-0.4562855 0.0839753,-0.4533441 0.0899719,-0.4495437 0.0954292,-0.4449873 0.0999931,-0.4395479 0.0999931,-0.4395479 0.1027923,-0.4348508 0.1043806,-0.4296148 0.1050939,-0.4187037 0.1050939,-0.3641399z"
     transform="matrix(1,0,0,-1,3.4106693,2.12725)"
     fill="rgb(104,104,104)"
     fill-rule="nonzero"
     shaper:cutDepth="0.0000762"
     stroke-linecap="round"
     stroke-linejoin="round"
     id="path18" /><path
     d="M0.1343346,-0.7218958 L-0.0031455,-0.6566921 0.132425,-0.5910619 0.132425,-0.5910619 0.1374072,-0.5885849 0.1417488,-0.585122 0.1433509,-0.5828515 0.1443203,-0.5802216 0.1448957,-0.5746869 0.1448957,-0.5746869 0.1446611,-0.5698164 0.1436077,-0.5650571 0.1413557,-0.5607364 0.1378776,-0.5573474 0.1334763,-0.5552329 0.128756,-0.5540314 0.1190318,-0.5533492 -0.1575866,-0.5533207 -0.1575866,-0.5533207 -0.1671222,-0.5539628 -0.1718077,-0.5549274 -0.1762618,-0.5566605 -0.1800952,-0.5595036 -0.1828521,-0.5634031 -0.1842082,-0.5679812 -0.184582,-0.5727471 -0.184582,-0.5727471 -0.1843937,-0.5776157 -0.1832692,-0.5823539 -0.1808794,-0.5865916 -0.1773266,-0.5899226 -0.172996,-0.5921339 -0.1682773,-0.5933787 -0.1585744,-0.5940849 0.0321128,-0.5940415 -0.057771,-0.6373002 -0.057771,-0.6373002 -0.0632047,-0.6403575 -0.0679972,-0.6443161 -0.0695732,-0.6469969 -0.0703731,-0.6500085 -0.070637,-0.6562301 -0.070637,-0.6562301 -0.0700658,-0.6631127 -0.0688785,-0.6663604 -0.0668303,-0.6691405 -0.061367,-0.6733717 -0.0552623,-0.6766339 0.0321128,-0.7188498 -0.159573,-0.7188498 -0.159573,-0.7188498 -0.1678854,-0.7190843 -0.1720218,-0.7195844 -0.1759607,-0.72089 -0.1759607,-0.72089 -0.1799032,-0.7243754 -0.1826077,-0.7288987 -0.1840217,-0.7339698 -0.184582,-0.7392102 -0.184582,-0.7392102 -0.1843485,-0.7435668 -0.1833072,-0.747798 -0.1813942,-0.7517145 -0.1784295,-0.7549104 -0.1747307,-0.7572083 -0.1706007,-0.7586206 -0.161951,-0.759614 0.1243062,-0.7595706 0.1243062,-0.7595706 0.1329137,-0.7589971 0.1370578,-0.7577954 0.1408091,-0.7556593 0.1435269,-0.7523226 0.1450571,-0.7482873 0.1459015,-0.7397131 0.1459015,-0.7397131 0.145552,-0.7340129 0.1433201,-0.7287617 0.1393132,-0.7247025 0.1343346,-0.7218958z"
     transform="matrix(1,0,0,-1,3.4106693,2.12725)"
     fill="rgb(104,104,104)"
     fill-rule="nonzero"
     shaper:cutDepth="0.0000762"
     stroke-linecap="round"
     stroke-linejoin="round"
     id="path20" /><path
     d="M-2.0133102,-0.041048 L-2.0146035,-0.0150847 -2.0146035,-0.0150847 -2.0153743,-0.007325 -2.0168944,0.0003229 -2.0191464,0.007788 -2.0221887,0.0149672 -2.0260511,0.0217405 -2.0306515,0.028036 -2.0358822,0.0338188 -2.0416626,0.0390524 -2.0479499,0.0436636 -2.054668,0.0476239 -2.0617261,0.0509365 -2.069063,0.05358 -2.0765989,0.0555799 -2.0842711,0.0569835 -2.0998106,0.058189 -2.0998106,0.058189 -2.110032,0.0576079 -2.120164,0.0561409 -2.130073,0.0535688 -2.139689,0.0500536 -2.1489097,0.0456063 -2.1575773,0.0401588 -2.165399,0.0335545 -2.1722296,0.0259309 -2.1722296,0.0259309 -2.1768548,0.0186848 -2.180554,0.0109231 -2.1857363,-0.005465 -2.1967797,-0.0491933 -2.1967797,-0.0491933 -2.198214,-0.0545304 -2.2002607,-0.0596549 -2.2030151,-0.0644514 -2.2067148,-0.0685442 -2.2067148,-0.0685442 -2.2112675,-0.0724097 -2.2163023,-0.0756278 -2.2272012,-0.0804847 -2.2387829,-0.0833882 -2.2506835,-0.08435 -2.2506835,-0.08435 -2.2628642,-0.0832702 -2.2746755,-0.0800938 -2.2803066,-0.0776909 -2.2856627,-0.0747287 -2.2906526,-0.0711816 -2.2951551,-0.0670355 -2.2951551,-0.0670355 -2.2994971,-0.0612091 -2.302281,-0.0544849 -2.303692,-0.0473555 -2.3041356,-0.0400939 -2.3041964,-0.0155938 -2.3041964,-0.0155938 -2.3038456,-0.0064663 -2.3026673,-0.0020432 -2.3008551,0.0021547 -2.2953402,0.0094322 -2.2882326,0.0151753 -2.2801123,0.0194058 -2.2713954,0.02219 -2.262344,0.0235445 -2.253198,0.0239193 -2.253198,0.0239193 -2.2441722,0.0245411 -2.2397912,0.0256774 -2.2356505,0.0275161 -2.2320737,0.0302784 -2.2294977,0.0339958 -2.2281334,0.0383089 -2.2276933,0.0428143 -2.2276933,0.0428143 -2.2283379,0.0478338 -2.2299972,0.0526124 -2.2328444,0.0567895 -2.2367359,0.0600202 -2.241292,0.0622161 -2.2461614,0.0636117 -2.2562155,0.064655 -2.2562155,0.064655 -2.2728457,0.0633559 -2.2891081,0.0596473 -2.2969188,0.0567254 -2.3044127,0.0530495 -2.3115027,0.0486547 -2.3180903,0.043533 -2.3241177,0.037764 -2.3294921,0.031382 -2.3340768,0.0244117 -2.3377948,0.0169429 -2.3406386,0.0090992 -2.3426301,0.0009966 -2.343826,-0.0072604 -2.3442247,-0.015595 -2.3437936,-0.041557 -2.3437936,-0.041557 -2.3431862,-0.0502792 -2.3418566,-0.0589204 -2.3396534,-0.0673809 -2.3365987,-0.075572 -2.3325309,-0.0833116 -2.3276913,-0.0905911 -2.3220189,-0.0972436 -2.3156348,-0.1032174 -2.3087028,-0.1085458 -2.3012478,-0.1131096 -2.2933577,-0.1168806 -2.2851618,-0.119921 -2.2767102,-0.1221606 -2.2681074,-0.1237289 -2.2506835,-0.1250857 -2.2506835,-0.1250857 -2.235072,-0.1240257 -2.2197217,-0.1210043 -2.2122467,-0.1186751 -2.2049901,-0.1157455 -2.1979789,-0.1122612 -2.1913083,-0.1081677 -2.1850468,-0.103471 -2.1791916,-0.0982747 -2.1738816,-0.0925258 -2.1691018,-0.0863262 -2.1650068,-0.0796561 -2.1615006,-0.0726577 -2.1586024,-0.0653866 -2.1562802,-0.0579113 -2.1453197,-0.0140665 -2.1453197,-0.0140665 -2.1435489,-0.0080744 -2.1411317,-0.0023251 -2.1378502,0.0030032 -2.13329,0.0072514 -2.13329,0.0072514 -2.1257777,0.0117663 -2.1176371,0.0150163 -2.1090545,0.0167934 -2.1003135,0.0174533 -2.1003135,0.0174533 -2.0896567,0.0165885 -2.0792857,0.0140305 -2.0743159,0.0120503 -2.0696319,0.0094779 -2.0652549,0.0064017 -2.0613739,0.0027252 -2.0613739,0.0027252 -2.0585269,-0.0017874 -2.0565354,-0.0067484 -2.0551022,-0.0118909 -2.0543332,-0.0171756 -2.0538907,-0.0374844 -2.0538907,-0.0395207 -2.0538907,-0.0395207 -2.0544889,-0.0468457 -2.0565953,-0.0538857 -2.0602486,-0.0602533 -2.065419,-0.0654696 -2.0715749,-0.0694863 -2.078251,-0.072562 -2.0923388,-0.0767345 -2.0923388,-0.0767345 -2.1033309,-0.0797519 -2.1033309,-0.0797519 -2.1074241,-0.0829112 -2.1103433,-0.0871807 -2.1118437,-0.092128 -2.1123115,-0.0972819 -2.1123115,-0.0972819 -2.1107545,-0.1053392 -2.1088477,-0.1089808 -2.1061671,-0.1120962 -2.10277,-0.1144149 -2.0989634,-0.1159664 -2.0908301,-0.1171109 -2.0908301,-0.1171109 -2.0813164,-0.1161838 -2.0720221,-0.1139111 -2.0630161,-0.1107031 -2.0543332,-0.1066935 -2.0543332,-0.1066935 -2.0458786,-0.1015721 -2.0380834,-0.095501 -2.0310768,-0.0885268 -2.0250175,-0.0807207 -2.0200213,-0.072193 -2.0161843,-0.0630868 -2.0138719,-0.0534779 -2.0133101,-0.0436143 -2.0133102,-0.041048z"
     transform="matrix(1,0,0,-1,3.4106693,2.12725)"
     fill="rgb(104,104,104)"
     fill-rule="nonzero"
     shaper:cutDepth="0.0000762"
     stroke-linecap="round"
     stroke-linejoin="round"
     id="path22" /><path
     d="M-2.2886173,-0.2295656 L-2.3312209,-0.2166871 -2.3312209,-0.2166871 -2.3367618,-0.2138585 -2.3390832,-0.2117869 -2.340962,-0.2092773 -2.3432117,-0.2034875 -2.3437936,-0.1972891 -2.3437936,-0.1972891 -2.3426056,-0.1897713 -2.3410895,-0.1862744 -2.33899,-0.1830932 -2.3363765,-0.1803148 -2.3331907,-0.1782286 -2.3296185,-0.1768966 -2.3258326,-0.1764543 -2.3258326,-0.1764543 -2.3214579,-0.1769202 -2.3171818,-0.1779875 -2.3087085,-0.1804026 -2.0274634,-0.2648946 -2.0274634,-0.2648946 -2.0213664,-0.2675278 -2.0187217,-0.2695513 -2.016516,-0.2720442 -2.0148487,-0.274924 -2.013856,-0.2781041 -2.0133101,-0.2847236 -2.0133101,-0.2847236 -2.0134361,-0.2886333 -2.0141697,-0.2924744 -2.0157419,-0.2960524 -2.0181605,-0.2991245 -2.021262,-0.3014948 -2.0247182,-0.3033425 -2.0320487,-0.3060412 -2.3121103,-0.3914841 -2.3121103,-0.3914841 -2.3183811,-0.3932213 -2.3248267,-0.3939987 -2.3248267,-0.3939987 -2.3287506,-0.3936003 -2.3325112,-0.3924194 -2.3359119,-0.3904263 -2.3387678,-0.3877066 -2.3410393,-0.3844866 -2.3425973,-0.3808616 -2.3435007,-0.3770259 -2.3437936,-0.373092 -2.3437936,-0.373092 -2.3431491,-0.3663343 -2.3419793,-0.363142 -2.3401827,-0.3602557 -2.3378514,-0.3577841 -2.3350546,-0.3558448 -2.3288014,-0.3532178 -2.2886173,-0.3408029 -2.2886173,-0.2295656z M-2.2478097,-0.242477 L-2.2478097,-0.3278914 -2.1048112,-0.2851842 -2.2478097,-0.242477z"
     transform="matrix(1,0,0,-1,3.4106693,2.12725)"
     fill="rgb(104,104,104)"
     fill-rule="nonzero"
     shaper:cutDepth="0.0000762"
     stroke-linecap="round"
     stroke-linejoin="round"
     id="path24" /><path
     d="M-2.137457,-0.4883301 L-2.137457,-0.57325 -2.137457,-0.57325 -2.1380324,-0.5828868 -2.139204,-0.5875812 -2.1412533,-0.5919535 -2.1444197,-0.5956016 -2.14858,-0.5980456 -2.153249,-0.599286 -2.1580763,-0.599545 -2.1580763,-0.599545 -2.1629836,-0.5992148 -2.1677222,-0.5979105 -2.1718917,-0.5953165 -2.1748588,-0.5914178 -2.1766748,-0.5868378 -2.1776843,-0.5820313 -2.1782646,-0.5722114 -2.1782646,-0.4882868 -2.3169957,-0.4883301 -2.3169957,-0.4883301 -2.3266671,-0.4877201 -2.3314045,-0.4866985 -2.3358934,-0.4848618 -2.3396615,-0.4818368 -2.3422002,-0.4777157 -2.3435131,-0.4730525 -2.3437936,-0.4682138 -2.3437936,-0.4682138 -2.3434466,-0.4633456 -2.3422264,-0.4586234 -2.339664,-0.4544749 -2.3359414,-0.4513359 -2.3314887,-0.4493347 -2.3267423,-0.4481954 -2.3170095,-0.4475225 -2.0409701,-0.4475226 -2.0409701,-0.4475226 -2.0352438,-0.4476943 -2.0295936,-0.4486004 -2.0241966,-0.4505233 -2.0194932,-0.4537766 -2.016013,-0.4583155 -2.0139529,-0.4636552 -2.0131992,-0.4693305 -2.0133102,-0.4750568 -2.0133101,-0.6095314 -2.0133101,-0.6095314 -2.0143339,-0.6184773 -2.0156556,-0.6227957 -2.01788,-0.626705 -2.0209981,-0.6299649 -2.0248993,-0.6322135 -2.0292224,-0.6334868 -2.0337139,-0.6338866 -2.0337139,-0.6338866 -2.0382526,-0.6335704 -2.0426379,-0.6323717 -2.0466107,-0.6301664 -2.0497599,-0.626889 -2.0519204,-0.6228901 -2.0532633,-0.6185404 -2.0541178,-0.6094994 -2.0541178,-0.4883301 -2.137457,-0.4883301z"
     transform="matrix(1,0,0,-1,3.4106693,2.12725)"
     fill="rgb(104,104,104)"
     fill-rule="nonzero"
     shaper:cutDepth="0.0000762"
     stroke-linecap="round"
     stroke-linejoin="round"
     id="path26" /><path
     d="M-2.137457,-0.7273844 L-2.137457,-0.8143593 -2.137457,-0.8143593 -2.1382047,-0.8235052 -2.1395325,-0.8279094 -2.1417301,-0.8319403 -2.1449358,-0.8352306 -2.1490195,-0.8373281 -2.1534848,-0.8384043 -2.1580763,-0.8386427 -2.1580763,-0.8386427 -2.1628158,-0.838446 -2.1673998,-0.8372392 -2.171447,-0.834777 -2.1745137,-0.8311692 -2.1764964,-0.826859 -2.1776492,-0.822258 -2.1782646,-0.8127988 -2.1782646,-0.7273844 -2.3029861,-0.7273844 -2.3029861,-0.849563 -2.3029861,-0.849563 -2.3035824,-0.8590133 -2.3047856,-0.8636034 -2.306894,-0.8678473 -2.3101393,-0.8712934 -2.3142608,-0.8736289 -2.3188669,-0.8747434 -2.3236054,-0.874924 -2.3236054,-0.874924 -2.3285067,-0.8747062 -2.3332062,-0.8733123 -2.3372548,-0.8705501 -2.3402379,-0.8666677 -2.342119,-0.8621333 -2.3432099,-0.8573496 -2.3437936,-0.8475605 -2.3437936,-0.7120531 -2.3437936,-0.7120531 -2.3430006,-0.7009393 -2.3413286,-0.6956196 -2.3381156,-0.6910788 -2.3333087,-0.688268 -2.3278985,-0.6869356 -2.316751,-0.6866636 -2.0398206,-0.6866921 -2.0398206,-0.6866921 -2.028818,-0.6872288 -2.0235304,-0.6887715 -2.0188679,-0.6916993 -2.0157713,-0.6962433 -2.0141358,-0.7015082 -2.0134217,-0.7069725 -2.0133102,-0.7124866 -2.0133101,-0.8490601 -2.0133101,-0.8490601 -2.0139016,-0.858193 -2.0151097,-0.8626203 -2.0172362,-0.8666701 -2.0203578,-0.870027 -2.0243848,-0.8721978 -2.028846,-0.8732363 -2.0334265,-0.8734153 -2.0334265,-0.8734153 -2.038225,-0.8732279 -2.0428836,-0.8720761 -2.0470312,-0.8696673 -2.0502265,-0.8660949 -2.0523352,-0.8617791 -2.0535662,-0.8571392 -2.0541178,-0.8475605 -2.0541178,-0.7273844 -2.137457,-0.7273844z"
     transform="matrix(1,0,0,-1,3.4106693,2.12725)"
     fill="rgb(104,104,104)"
     fill-rule="nonzero"
     shaper:cutDepth="0.0000762"
     stroke-linecap="round"
     stroke-linejoin="round"
     id="path28" /><path
     d="M-2.6370099,1.6349697 L-2.6370099,1.4880995 -2.6370099,1.4880995 -2.6371524,1.4820496 -2.6379322,1.4760552 -2.6395907,1.4702335 -2.6423453,1.4648549 -2.6463932,1.4603633 -2.6516355,1.4573643 -2.6574788,1.4558146 -2.6635204,1.4554925 -2.6635204,1.4554925 -2.6698219,1.4557725 -2.675864,1.4575646 -2.6810694,1.4611159 -2.6849048,1.4661073 -2.6873234,1.4719372 -2.6887261,1.4780875 -2.6894768,1.4906733 -2.6894768,1.6349697 -2.849833,1.6349697 -2.849833,1.4312912 -2.849833,1.4312912 -2.849872,1.422531 -2.850311,1.4181716 -2.8516805,1.4140178 -2.8516805,1.4140178 -2.8554548,1.4069607 -2.858056,1.4039166 -2.8611728,1.4013718 -2.8646787,1.3994062 -2.8684454,1.3980521 -2.8763436,1.3967444 -2.8763436,1.3967444 -2.8829244,1.3970681 -2.8891596,1.3991766 -2.8943567,1.4032157 -2.8980212,1.4086792 -2.9002905,1.4148708 -2.9016002,1.4213307 -2.9022999,1.4344871 -2.9022999,1.6539058 -2.9022999,1.6539058 -2.9022272,1.6611205 -2.9013023,1.6682697 -2.8990786,1.6751316 -2.8972841,1.6782685 -2.8949459,1.6810226 -2.8920924,1.683242 -2.8888761,1.6848842 -2.881916,1.686797 -2.8747464,1.6875213 -2.8675308,1.6874366 -2.5114774,1.6874365 -2.5114774,1.6874365 -2.5042418,1.6873641 -2.4970746,1.6864258 -2.490184,1.6842216 -2.4870305,1.6824322 -2.484272,1.6800852 -2.482059,1.6772185 -2.4803677,1.6740098 -2.4782755,1.6670888 -2.4774662,1.6599013 -2.4773926,1.6526675 -2.4773925,1.4318455 -2.4773925,1.4318455 -2.4783187,1.4199578 -2.4798848,1.4142035 -2.482539,1.4088604 -2.4864707,1.4043834 -2.4915575,1.4012811 -2.497301,1.3996797 -2.5032564,1.3993308 -2.5032564,1.3993308 -2.5095819,1.3996928 -2.5156453,1.4015201 -2.5209297,1.4049927 -2.5248978,1.4099293 -2.5274949,1.4157025 -2.5290224,1.4218576 -2.5298595,1.4344871 -2.5298595,1.6349697 -2.6370099,1.6349697z"
     transform="matrix(1,0,0,-1,3.4106693,2.12725)"
     fill="rgb(104,104,104)"
     fill-rule="nonzero"
     shaper:cutDepth="0.0000762"
     stroke-linecap="round"
     stroke-linejoin="round"
     id="path30" /><path
     d="M-2.494204,1.0641159 L-2.6779631,1.1734876 -2.4966349,1.2827643 -2.4966349,1.2827643 -2.4900417,1.2868366 -2.4839864,1.291672 -2.4815725,1.2947232 -2.4798162,1.2981977 -2.4789556,1.301954 -2.4786857,1.3058512 -2.4786857,1.3058512 -2.4790116,1.3120052 -2.4805737,1.317962 -2.483657,1.3232824 -2.4882421,1.3274044 -2.4937094,1.3302132 -2.4996701,1.3318176 -2.5057756,1.332592 -2.5119393,1.3327312 -2.8675916,1.3327313 -2.8675916,1.3327313 -2.8799741,1.3318827 -2.8860163,1.3304596 -2.8917216,1.3280098 -2.8966862,1.3242887 -2.9001991,1.3191885 -2.9020074,1.3132524 -2.9022999,1.307052 -2.9022999,1.307052 -2.9012932,1.2996984 -2.8985513,1.2928184 -2.8941866,1.286796 -2.8879823,1.2827584 -2.8879823,1.2827584 -2.8833582,1.2812805 -2.8785701,1.2805026 -2.8688615,1.2802644 -2.6038995,1.2802644 -2.7367033,1.2009811 -2.7367033,1.2009811 -2.7440388,1.196168 -2.7506448,1.1904045 -2.7532018,1.186832 -2.754881,1.1827578 -2.7557992,1.1740375 -2.7557992,1.1740375 -2.7556761,1.1691077 -2.7547724,1.1642751 -2.7527019,1.1597905 -2.7494858,1.1560745 -2.7417625,1.1499646 -2.7334454,1.1446635 -2.6038995,1.0667024 -2.8701455,1.0667024 -2.8701455,1.0667024 -2.8797887,1.0664307 -2.8892755,1.0647624 -2.8892755,1.0647624 -2.8950275,1.0603006 -2.8990979,1.0542539 -2.9013337,1.0473251 -2.9022999,1.0400993 -2.9022999,1.0400993 -2.9017993,1.0346156 -2.9003966,1.0292926 -2.8977687,1.0244573 -2.8939812,1.0204688 -2.8892824,1.0176016 -2.8840964,1.015747 -2.8732029,1.0142354 -2.5051579,1.0142355 -2.5051579,1.0142355 -2.4997458,1.0143181 -2.494388,1.015012 -2.4891774,1.0165021 -2.4845218,1.0192282 -2.4808425,1.023191 -2.4785657,1.0280933 -2.4775182,1.0333964 -2.4773925,1.0388062 -2.4773925,1.0388062 -2.4782357,1.0468004 -2.4796484,1.050578 -2.4817867,1.0539958 -2.4875989,1.0595371 -2.494204,1.0641159z"
     transform="matrix(1,0,0,-1,3.4106693,2.12725)"
     fill="rgb(104,104,104)"
     fill-rule="nonzero"
     shaper:cutDepth="0.0000762"
     stroke-linecap="round"
     stroke-linejoin="round"
     id="path32" /><path
     d="M-2.6370099,0.8960003 L-2.6370099,0.7491302 -2.6370099,0.7491302 -2.6371524,0.7430803 -2.6379322,0.7370858 -2.6395907,0.7312641 -2.6423453,0.7258856 -2.6463932,0.7213939 -2.6516355,0.7183949 -2.6574788,0.7168453 -2.6635204,0.7165231 -2.6635204,0.7165231 -2.6698219,0.7168031 -2.675864,0.7185952 -2.6810694,0.7221466 -2.6849048,0.727138 -2.6873234,0.7329678 -2.6887261,0.7391182 -2.6894768,0.7517039 -2.6894768,0.8960003 -2.849833,0.8960003 -2.849833,0.6923219 -2.849833,0.6923219 -2.849872,0.6835616 -2.850311,0.6792023 -2.8516805,0.6750485 -2.8516805,0.6750485 -2.8554548,0.6679914 -2.858056,0.6649473 -2.8611728,0.6624025 -2.8646787,0.6604368 -2.8684454,0.6590827 -2.8763436,0.6577751 -2.8763436,0.6577751 -2.8829244,0.6580987 -2.8891596,0.6602073 -2.8943567,0.6642463 -2.8980212,0.6697099 -2.9002905,0.6759015 -2.9016002,0.6823613 -2.9022999,0.6955177 -2.9022999,0.9149364 -2.9022999,0.9149364 -2.9022272,0.9221512 -2.9013023,0.9293004 -2.8990786,0.9361622 -2.8972841,0.9392991 -2.8949459,0.9420532 -2.8920924,0.9442727 -2.8888761,0.9459149 -2.881916,0.9478276 -2.8747464,0.948552 -2.8675308,0.9484672 -2.5114774,0.9484671 -2.5114774,0.9484671 -2.5042418,0.9483948 -2.4970746,0.9474565 -2.490184,0.9452522 -2.4870305,0.9434629 -2.484272,0.9411158 -2.482059,0.9382492 -2.4803677,0.9350405 -2.4782755,0.9281195 -2.4774662,0.920932 -2.4773926,0.9136982 -2.4773925,0.6928761 -2.4773925,0.6928761 -2.4783187,0.6809885 -2.4798848,0.6752342 -2.482539,0.6698911 -2.4864707,0.6654141 -2.4915575,0.6623118 -2.497301,0.6607103 -2.5032564,0.6603615 -2.5032564,0.6603615 -2.5095819,0.6607235 -2.5156453,0.6625508 -2.5209297,0.6660234 -2.5248978,0.6709599 -2.5274949,0.6767331 -2.5290224,0.6828882 -2.5298595,0.6955177 -2.5298595,0.8960003 -2.6370099,0.8960003z"
     transform="matrix(1,0,0,-1,3.4106693,2.12725)"
     fill="rgb(104,104,104)"
     fill-rule="nonzero"
     shaper:cutDepth="0.0000762"
     stroke-linecap="round"
     stroke-linejoin="round"
     id="path34" /><path
     d="M-2.854544,0.3241304 L-2.854544,0.3241304 -2.8576846,0.3216364 -2.8576846,0.3216364 -2.8614563,0.3188114 -2.8655778,0.3165297 -2.8700842,0.3151537 -2.8747733,0.3147086 -2.8747733,0.3147086 -2.8798802,0.3152318 -2.8847663,0.3167996 -2.8892291,0.3193333 -2.8930567,0.3227534 -2.8961281,0.3268643 -2.898311,0.3315107 -2.8996004,0.3364771 -2.900083,0.3415886 -2.900083,0.3415886 -2.899351,0.3490042 -2.8981869,0.3525618 -2.8963136,0.3557818 -2.8913145,0.3613009 -2.8855258,0.3659923 -2.7249473,0.4847663 -2.7249473,0.541295 -2.867753,0.541295 -2.867753,0.541295 -2.8801405,0.5421539 -2.8861776,0.5435935 -2.8918929,0.5460439 -2.8967728,0.5498587 -2.9002334,0.5550094 -2.9020076,0.5609561 -2.9022999,0.567159 -2.9022999,0.567159 -2.901064,0.5758192 -2.8994793,0.5799075 -2.8972688,0.5836923 -2.8944854,0.5870814 -2.8910712,0.5898272 -2.8872042,0.5918936 -2.8829943,0.5931153 -2.8829943,0.5931153 -2.8741628,0.5937463 -2.8652965,0.593762 -2.5141562,0.5937619 -2.5141562,0.5937619 -2.5063222,0.5937432 -2.4985751,0.5925977 -2.4913012,0.5897041 -2.4880517,0.5875027 -2.4852003,0.5848084 -2.4809531,0.5782368 -2.4785064,0.5707936 -2.4774573,0.5630355 -2.4773926,0.5551999 -2.4773925,0.4470765 -2.4773925,0.4470765 -2.4780003,0.4345665 -2.4794549,0.42213 -2.4817813,0.409821 -2.4852242,0.3977829 -2.4898162,0.3861304 -2.4955193,0.3749817 -2.5023609,0.3644924 -2.5102935,0.3548031 -2.5191624,0.3459607 -2.5289387,0.3381357 -2.5395483,0.3314835 -2.5508733,0.3261386 -2.5626912,0.3219971 -2.5748776,0.3191092 -2.5872827,0.3173964 -2.5997843,0.3166484 -2.5997843,0.3166484 -2.6107421,0.3171385 -2.6216406,0.318373 -2.6323956,0.320528 -2.6429331,0.3235715 -2.6531829,0.3274757 -2.6630179,0.3323314 -2.6722918,0.338187 -2.6810358,0.3448086 -2.6891627,0.3521744 -2.6965067,0.3603208 -2.7030427,0.369129 -2.7087627,0.3784872 -2.7135674,0.3883473 -2.7175105,0.3985826 -2.7206314,0.4090974 -2.7230735,0.4197908 -2.854544,0.3241304z M-2.5298595,0.541295 L-2.6724804,0.541295 -2.6724804,0.4496628 -2.6724804,0.4496628 -2.6723368,0.4391537 -2.6714477,0.4286877 -2.669306,0.4184026 -2.6651831,0.4087424 -2.6651831,0.4087424 -2.660141,0.4001168 -2.65392,0.3922995 -2.646649,0.3854481 -2.6384995,0.3796681 -2.6296186,0.3750912 -2.6201918,0.3717809 -2.6103987,0.3698067 -2.6004309,0.3691152 -2.6004309,0.3691152 -2.5903275,0.3699128 -2.5804316,0.3720943 -2.570939,0.3756431 -2.562038,0.3804884 -2.5539165,0.3865503 -2.5467373,0.3937026 -2.5406262,0.4017864 -2.5357711,0.4106822 -2.5357711,0.4106822 -2.5325532,0.4188924 -2.530708,0.4275165 -2.5298595,0.4451312 -2.5298595,0.541295z"
     transform="matrix(1,0,0,-1,3.4106693,2.12725)"
     fill="rgb(104,104,104)"
     fill-rule="nonzero"
     shaper:cutDepth="0.0000762"
     stroke-linecap="round"
     stroke-linejoin="round"
     id="path36" /><path
     d="M-2.7131237,0.0606879 L-2.7131238,0.01441 -2.7795407,0.01441 -2.7795407,0.01441 -2.7891209,0.0146343 -2.7986536,0.0155683 -2.8079955,0.0177044 -2.8168565,0.0213377 -2.8168565,0.0213377 -2.8243818,0.0260544 -2.8310908,0.0318757 -2.8368886,0.0386003 -2.841589,0.0461392 -2.8452658,0.0542211 -2.8477723,0.0627448 -2.8492691,0.0714978 -2.849833,0.0803629 -2.849833,0.0803629 -2.8493564,0.0907749 -2.8476957,0.1010648 -2.8447785,0.1110697 -2.8406048,0.1206215 -2.8353322,0.1296101 -2.8290628,0.1379402 -2.8220486,0.1456473 -2.8143625,0.1526895 -2.8143625,0.1526895 -2.8008324,0.1628914 -2.7864945,0.1719232 -2.7713726,0.1795703 -2.7556963,0.1860054 -2.7395761,0.1912308 -2.7230702,0.1950626 -2.706307,0.1975457 -2.6893843,0.1984133 -2.6893843,0.1984133 -2.676021,0.1978744 -2.6627338,0.1963536 -2.6496023,0.193817 -2.6366936,0.1903194 -2.6240818,0.185869 -2.6118454,0.1804713 -2.600139,0.1740043 -2.5889769,0.1666376 -2.5889769,0.1666376 -2.5775107,0.1592466 -2.5666064,0.1510555 -2.5565251,0.1418638 -2.5475249,0.1316149 -2.5400327,0.1202193 -2.5344028,0.1077999 -2.5323779,0.1012774 -2.5309651,0.0946009 -2.5298593,0.0810095 -2.5298593,0.0810095 -2.5305381,0.0708014 -2.5327675,0.060812 -2.536525,0.0513012 -2.5417723,0.0425143 -2.5480728,0.0344526 -2.5550956,0.027005 -2.5626795,0.0201379 -2.5706874,0.0137633 -2.5706874,0.0137633 -2.5772989,0.0085234 -2.5834535,0.0027597 -2.586103,-0.0005238 -2.5882022,-0.0042124 -2.5893457,-0.0082443 -2.5897158,-0.0124701 -2.5897158,-0.0124701 -2.5889263,-0.0178477 -2.5869384,-0.0229085 -2.5839315,-0.0274343 -2.5800704,-0.0312634 -2.5756263,-0.0343967 -2.5707365,-0.0367705 -2.5654711,-0.0381263 -2.5600647,-0.0387035 -2.5600647,-0.0387035 -2.5550753,-0.0382514 -2.5502069,-0.0371841 -2.5455636,-0.035295 -2.5412118,-0.0328312 -2.5330921,-0.0270086 -2.5254255,-0.0205988 -2.5254255,-0.0205988 -2.515229,-0.0100569 -2.5058748,0.0012354 -2.4975666,0.0133225 -2.4905227,0.0261829 -2.4848191,0.0396945 -2.480694,0.0537649 -2.4781844,0.0682143 -2.4773925,0.0828569 -2.4773925,0.0828569 -2.4778651,0.0936105 -2.479255,0.1042847 -2.4813911,0.1148346 -2.4843584,0.1251817 -2.4880393,0.1352971 -2.4924491,0.1451164 -2.4976831,0.1545223 -2.5036259,0.163497 -2.5036259,0.163497 -2.5122038,0.1736902 -2.5214199,0.1833111 -2.5312194,0.192336 -2.5415651,0.2007298 -2.552406,0.2084732 -2.5636856,0.215563 -2.5753334,0.2220297 -2.5873124,0.2278606 -2.5995794,0.2330578 -2.6120947,0.2376255 -2.6248101,0.241601 -2.6377301,0.2448514 -2.650811,0.2473779 -2.663998,0.249274 -2.67727,0.250433 -2.6905851,0.2508801 -2.6905851,0.2508801 -2.710637,0.2499484 -2.7305529,0.2474362 -2.7502044,0.243342 -2.7694614,0.237674 -2.7881955,0.230464 -2.8063383,0.2218739 -2.8236625,0.2117339 -2.8401341,0.2002607 -2.8401341,0.2002607 -2.8532101,0.1892692 -2.8652562,0.1771644 -2.8760456,0.1639213 -2.8853384,0.149591 -2.8927308,0.1341962 -2.8981073,0.1179858 -2.8999705,0.1096447 -2.9012372,0.1011962 -2.9022999,0.0841501 -2.9022999,0.0841501 -2.9013445,0.0686122 -2.8985971,0.0532918 -2.8942289,0.0383496 -2.8882299,0.0239866 -2.8807307,0.0103443 -2.8717027,-0.0023344 -2.8611358,-0.0137654 -2.8491864,-0.0237394 -2.8491864,-0.0237394 -2.8370645,-0.0306241 -2.8306107,-0.0332635 -2.8239316,-0.0352999 -2.8101802,-0.0375144 -2.7962578,-0.0380569 -2.6962599,-0.0380568 -2.6962599,-0.0380568 -2.6889216,-0.0379839 -2.6816252,-0.0371962 -2.6745887,-0.0351288 -2.6713117,-0.0334523 -2.6683693,-0.0312527 -2.6659476,-0.0284945 -2.6640544,-0.0253358 -2.6616572,-0.0184068 -2.6607374,-0.0111254 -2.6606569,-0.0037872 -2.6606569,0.0581864 -2.6606569,0.0581864 -2.6608309,0.0687912 -2.6614389,0.0740606 -2.6631509,0.0790697 -2.6631509,0.0790697 -2.6669121,0.0857472 -2.6694593,0.0885973 -2.6724584,0.0910269 -2.6757687,0.0930188 -2.6793201,0.094443 -2.6868903,0.0956042 -2.6868903,0.0956042 -2.6932241,0.0947491 -2.6992612,0.0926554 -2.7044571,0.088938 -2.7086899,0.0841501 -2.7086899,0.0841501 -2.711624,0.078846 -2.7127035,0.0728506 -2.7131237,0.0606879z"
     transform="matrix(1,0,0,-1,3.4106693,2.12725)"
     fill="rgb(104,104,104)"
     fill-rule="nonzero"
     shaper:cutDepth="0.0000762"
     stroke-linecap="round"
     stroke-linejoin="round"
     id="path38" /><path
     d="M-2.7432367,-0.5937619 L-2.5103117,-0.5937618 -2.5103117,-0.5937618 -2.5012057,-0.5935403 -2.4966766,-0.5930309 -2.4922642,-0.5919144 -2.4922642,-0.5919144 -2.4858524,-0.5879107 -2.4831925,-0.5852218 -2.4810345,-0.5820876 -2.4783342,-0.5750343 -2.4773925,-0.5675285 -2.4773925,-0.5675285 -2.4775618,-0.5613721 -2.4791543,-0.5554281 -2.4823758,-0.5501837 -2.4870643,-0.5462216 -2.492691,-0.5436974 -2.4986474,-0.5421408 -2.5109232,-0.541295 -2.7355896,-0.5412949 -2.7355896,-0.5412949 -2.7524022,-0.5407501 -2.769116,-0.5388501 -2.7773823,-0.5372855 -2.785506,-0.5351096 -2.7934231,-0.5322596 -2.8009687,-0.5285478 -2.8009687,-0.5285478 -2.8116818,-0.5211807 -2.8213113,-0.5124445 -2.8296313,-0.5024537 -2.8366467,-0.4915066 -2.842275,-0.4797858 -2.8463826,-0.4674496 -2.8488473,-0.4546838 -2.849833,-0.4417189 -2.849833,-0.4417189 -2.8491464,-0.4320774 -2.8477491,-0.4225129 -2.8453733,-0.4131442 -2.8421828,-0.4040199 -2.8380292,-0.3952925 -2.8329929,-0.3870428 -2.8271405,-0.3793502 -2.820611,-0.3722233 -2.8134457,-0.3657358 -2.8056859,-0.3599728 -2.7974081,-0.3549824 -2.7886548,-0.3508847 -2.7795038,-0.3477697 -2.7701163,-0.3454703 -2.7605456,-0.3441145 -2.7509035,-0.343436 -2.7509035,-0.343436 -2.7389676,-0.3431954 -2.7271641,-0.3414962 -2.7271641,-0.3414962 -2.7208512,-0.337752 -2.7163518,-0.3319037 -2.7134869,-0.3251412 -2.7124771,-0.3178492 -2.7124771,-0.3178492 -2.713603,-0.3099974 -2.7167862,-0.3027451 -2.7190364,-0.2994255 -2.7217277,-0.2965238 -2.7284573,-0.2923547 -2.7284573,-0.2923547 -2.73378,-0.2908348 -2.7392782,-0.2901151 -2.7503493,-0.2897684 -2.7503493,-0.2897684 -2.7653265,-0.2906885 -2.7801818,-0.2928005 -2.7947622,-0.2963438 -2.8089546,-0.3012151 -2.8225692,-0.307521 -2.8354364,-0.315239 -2.8474098,-0.3242819 -2.8584654,-0.3344267 -2.8684857,-0.3455953 -2.8773286,-0.3577169 -2.8848668,-0.370691 -2.8911116,-0.384333 -2.8958457,-0.3985722 -2.8992806,-0.4131788 -2.901389,-0.4280341 -2.9022999,-0.4430121 -2.9022999,-0.4430121 -2.9017904,-0.4543076 -2.9005861,-0.4655496 -2.8986291,-0.4766859 -2.8958335,-0.4876415 -2.8921519,-0.4983316 -2.8877526,-0.5087474 -2.8825449,-0.5187832 -2.8765348,-0.5283601 -2.8698566,-0.5374837 -2.8625558,-0.5461173 -2.8545123,-0.5540633 -2.8459155,-0.5614073 -2.8368128,-0.5681132 -2.8271607,-0.5740031 -2.8171436,-0.5792459 -2.8067881,-0.5837858 -2.8067881,-0.5837858 -2.7913804,-0.5887177 -2.7755213,-0.5919194 -2.7594128,-0.593411 -2.7432367,-0.5937619z"
     transform="matrix(1,0,0,-1,3.4106693,2.12725)"
     fill="rgb(104,104,104)"
     fill-rule="nonzero"
     shaper:cutDepth="0.0000762"
     stroke-linecap="round"
     stroke-linejoin="round"
     id="path40" /><path
     d="M-2.6370099,-0.711997 L-2.6370099,-0.8588671 -2.6370099,-0.8588671 -2.6371524,-0.864917 -2.6379322,-0.8709115 -2.6395907,-0.8767331 -2.6423453,-0.8821117 -2.6463932,-0.8866033 -2.6516355,-0.8896024 -2.6574788,-0.891152 -2.6635204,-0.8914741 -2.6635204,-0.8914741 -2.6698219,-0.8911942 -2.675864,-0.8894021 -2.6810694,-0.8858507 -2.6849048,-0.8808593 -2.6873234,-0.8750295 -2.6887261,-0.8688791 -2.6894768,-0.8562934 -2.6894768,-0.711997 -2.849833,-0.711997 -2.849833,-0.9156754 -2.849833,-0.9156754 -2.849872,-0.9244357 -2.850311,-0.928795 -2.8516805,-0.9329488 -2.8516805,-0.9329488 -2.8554548,-0.9400059 -2.858056,-0.94305 -2.8611728,-0.9455948 -2.8646787,-0.9475604 -2.8684454,-0.9489146 -2.8763436,-0.9502222 -2.8763436,-0.9502222 -2.8829244,-0.9498985 -2.8891596,-0.94779 -2.8943567,-0.943751 -2.8980212,-0.9382874 -2.9002905,-0.9320958 -2.9016002,-0.925636 -2.9022999,-0.9124796 -2.9022999,-0.6930609 -2.9022999,-0.6930609 -2.9022272,-0.6858461 -2.9013023,-0.6786969 -2.8990786,-0.671835 -2.8972841,-0.6686981 -2.8949459,-0.6659441 -2.8920924,-0.6637246 -2.8888761,-0.6620824 -2.881916,-0.6601697 -2.8747464,-0.6594453 -2.8675308,-0.65953 -2.5114774,-0.6595301 -2.5114774,-0.6595301 -2.5042418,-0.6596025 -2.4970746,-0.6605408 -2.490184,-0.662745 -2.4870305,-0.6645344 -2.484272,-0.6668815 -2.482059,-0.6697481 -2.4803677,-0.6729568 -2.4782755,-0.6798778 -2.4774662,-0.6870653 -2.4773926,-0.6942991 -2.4773925,-0.9151212 -2.4773925,-0.9151212 -2.4783187,-0.9270088 -2.4798848,-0.9327631 -2.482539,-0.9381062 -2.4864707,-0.9425832 -2.4915575,-0.9456855 -2.497301,-0.947287 -2.5032564,-0.9476358 -2.5032564,-0.9476358 -2.5095819,-0.9472738 -2.5156453,-0.9454465 -2.5209297,-0.9419739 -2.5248978,-0.9370374 -2.5274949,-0.9312641 -2.5290224,-0.9251091 -2.5298595,-0.9124796 -2.5298595,-0.711997 -2.6370099,-0.711997z"
     transform="matrix(1,0,0,-1,3.4106693,2.12725)"
     fill="rgb(104,104,104)"
     fill-rule="nonzero"
     shaper:cutDepth="0.0000762"
     stroke-linecap="round"
     stroke-linejoin="round"
     id="path42" /><path
     d="M-2.8698776,-1.1849373 L-2.8698776,-1.1849373 -2.8794172,-1.18474 -2.8841257,-1.184011 -2.8886289,-1.1824433 -2.8886289,-1.1824433 -2.8944801,-1.1782575 -2.8988954,-1.1725784 -2.9014245,-1.1658495 -2.9022999,-1.1587039 -2.9022999,-1.1587039 -2.9010285,-1.1503997 -2.8994786,-1.1465114 -2.8973267,-1.1428731 -2.8947572,-1.1395462 -2.8916211,-1.1367628 -2.8880389,-1.1345724 -2.8841027,-1.1331171 -2.8841027,-1.1331171 -2.8754343,-1.1324951 -2.8667371,-1.1324704 -2.5298595,-1.1324704 -2.5298593,-1.0462882 -2.5298593,-1.0462882 -2.5286788,-1.0339925 -2.5269598,-1.0280462 -2.5241106,-1.0225678 -2.5199933,-1.0179508 -2.5146845,-1.0148034 -2.508773,-1.0129968 -2.5026098,-1.0124804 -2.5026098,-1.0124804 -2.4962419,-1.0130056 -2.4902297,-1.0151371 -2.485274,-1.0191646 -2.4817435,-1.0244799 -2.4795252,-1.0304739 -2.4781626,-1.0367223 -2.4773926,-1.0494681 -2.4773925,-1.2724128 -2.4773925,-1.2724128 -2.4785845,-1.2845563 -2.4803595,-1.2903988 -2.4832066,-1.2958036 -2.4873614,-1.3002664 -2.4926009,-1.3033967 -2.4984714,-1.3050704 -2.5045496,-1.3056665 -2.5045496,-1.3056665 -2.5106995,-1.3050864 -2.5165516,-1.3031342 -2.5215187,-1.2994626 -2.5252199,-1.2945345 -2.5276056,-1.2888302 -2.5290017,-1.282814 -2.5298595,-1.2704936 -2.5298595,-1.1849373 -2.8698776,-1.1849373z"
     transform="matrix(1,0,0,-1,3.4106693,2.12725)"
     fill="rgb(104,104,104)"
     fill-rule="nonzero"
     shaper:cutDepth="0.0000762"
     stroke-linecap="round"
     stroke-linejoin="round"
     id="path44" /><path
     d="M-2.8698776,-1.5455544 L-2.8698776,-1.5455544 -2.8794172,-1.5453571 -2.8841257,-1.544628 -2.8886289,-1.5430604 -2.8886289,-1.5430604 -2.8944801,-1.5388745 -2.8988954,-1.5331954 -2.9014245,-1.5264665 -2.9022999,-1.519321 -2.9022999,-1.519321 -2.9010285,-1.5110167 -2.8994786,-1.5071284 -2.8973267,-1.5034902 -2.8947572,-1.5001632 -2.8916211,-1.4973798 -2.8880389,-1.4951894 -2.8841027,-1.4937342 -2.8841027,-1.4937342 -2.8754343,-1.4931121 -2.8667371,-1.4930875 -2.5298595,-1.4930875 -2.5298593,-1.4069053 -2.5298593,-1.4069053 -2.5286788,-1.3946095 -2.5269598,-1.3886633 -2.5241106,-1.3831849 -2.5199933,-1.3785678 -2.5146845,-1.3754204 -2.508773,-1.3736139 -2.5026098,-1.3730974 -2.5026098,-1.3730974 -2.4962419,-1.3736226 -2.4902297,-1.3757542 -2.485274,-1.3797816 -2.4817435,-1.3850969 -2.4795252,-1.3910909 -2.4781626,-1.3973394 -2.4773926,-1.4100851 -2.4773925,-1.6330299 -2.4773925,-1.6330299 -2.4785845,-1.6451733 -2.4803595,-1.6510158 -2.4832066,-1.6564206 -2.4873614,-1.6608834 -2.4926009,-1.6640138 -2.4984714,-1.6656874 -2.5045496,-1.6662835 -2.5045496,-1.6662835 -2.5106995,-1.6657034 -2.5165516,-1.6637513 -2.5215187,-1.6600796 -2.5252199,-1.6551515 -2.5276056,-1.6494472 -2.5290017,-1.6434311 -2.5298595,-1.6311106 -2.5298595,-1.5455544 -2.8698776,-1.5455544z"
     transform="matrix(1,0,0,-1,3.4106693,2.12725)"
     fill="rgb(104,104,104)"
     fill-rule="nonzero"
     shaper:cutDepth="0.0000762"
     stroke-linecap="round"
     stroke-linejoin="round"
     id="path46" /><path
     d="M4.1552511,-0.5079628 L4.1552511,-0.6516923 4.1552511,-0.6516923 4.1544174,-0.664437 4.152931,-0.6706619 4.1503982,-0.6765259 4.1464875,-0.6815795 4.1412309,-0.6851969 4.1351225,-0.6870692 4.1287405,-0.68744 4.1287405,-0.68744 4.1210283,-0.6863089 4.1173486,-0.6850306 4.1139209,-0.6831388 4.1108712,-0.6806761 4.1083362,-0.6777164 4.104724,-0.6708132 4.104724,-0.6708132 4.1030451,-0.6603307 4.1027841,-0.6497053 4.1027841,-0.5079628 3.9244155,-0.5079628 3.9244155,-0.5079628 3.9155641,-0.5079207 3.9111566,-0.5074905 3.9069574,-0.5061154 3.9069574,-0.5061154 3.9032251,-0.5047127 3.8997926,-0.5026845 3.8968194,-0.5000289 3.8943447,-0.4969009 3.8924049,-0.4933948 3.8910761,-0.4896282 3.8899611,-0.4817294 3.8899611,-0.4817294 3.8910979,-0.4742979 3.8939343,-0.467346 3.8961113,-0.4642584 3.89875,-0.4615808 3.9050176,-0.4574358 3.9050176,-0.4574358 3.9097144,-0.456061 3.9145982,-0.4556347 3.9243978,-0.4554959 4.2793055,-0.455496 4.2793055,-0.455496 4.2868615,-0.4558829 4.2943032,-0.4572418 4.3013091,-0.460082 4.3074026,-0.4645577 4.3098198,-0.4674728 4.3117345,-0.4707468 4.3141796,-0.4779033 4.3151004,-0.4854074 4.3148683,-0.4929712 4.3148684,-0.7097938 4.3148684,-0.7097938 4.3136042,-0.7218082 4.3120062,-0.7276522 4.3093153,-0.733052 4.3054157,-0.7376845 4.300366,-0.7409859 4.2946475,-0.7429533 4.288635,-0.7436016 4.288635,-0.7436016 4.282557,-0.7430682 4.2767523,-0.7411948 4.2716167,-0.7379311 4.2677143,-0.7332337 4.2650599,-0.7277535 4.2634461,-0.7218597 4.2626071,-0.7158238 4.2624014,-0.7097224 4.2624014,-0.5079628 4.1552511,-0.5079628z"
     transform="matrix(1,0,0,-1,3.4106693,2.12725)"
     fill="rgb(104,104,104)"
     fill-rule="nonzero"
     shaper:cutDepth="0.0000762"
     stroke-linecap="round"
     stroke-linejoin="round"
     id="path48" /><path
     d="M3.9191503,-0.8567563 L3.9191503,-0.8567563 3.9096797,-0.8565167 3.904996,-0.8558131 3.9004914,-0.8543547 3.9004914,-0.8543547 3.8960294,-0.8504052 3.8928486,-0.8453481 3.8907702,-0.8397593 3.8899611,-0.8338483 3.8899611,-0.8338483 3.890914,-0.8272542 3.8934743,-0.821113 3.8974757,-0.8157745 3.9029854,-0.8120487 3.9029854,-0.8120487 3.9068489,-0.8107327 3.9109129,-0.8103198 3.9190872,-0.8102012 4.2844783,-0.8102013 4.2844783,-0.8102013 4.2946383,-0.8105124 4.2996626,-0.8112834 4.3043381,-0.8132495 4.3043381,-0.8132495 4.3086735,-0.8173735 4.3120519,-0.8223069 4.3141443,-0.8279099 4.3148684,-0.8338483 4.3148684,-0.8338483 4.3145174,-0.8390755 4.3131714,-0.8441355 4.310439,-0.848597 4.3065131,-0.8520636 4.3018404,-0.8544175 4.2967851,-0.8558157 4.2863627,-0.8567563 3.9191503,-0.8567563z"
     transform="matrix(1,0,0,-1,3.4106693,2.12725)"
     fill="rgb(104,104,104)"
     fill-rule="nonzero"
     shaper:cutDepth="0.0000762"
     stroke-linecap="round"
     stroke-linejoin="round"
     id="path50" /><path
     d="M3.937717,-1.1980678 L3.937717,-1.1980678 3.9345763,-1.2005618 3.9345763,-1.2005618 3.9308047,-1.2033868 3.9266831,-1.2056685 3.9221767,-1.2070445 3.9174877,-1.2074896 3.9174877,-1.2074896 3.9123807,-1.2069664 3.9074946,-1.2053987 3.9030319,-1.2028649 3.8992042,-1.1994448 3.8961328,-1.1953339 3.8939499,-1.1906875 3.8926605,-1.1857211 3.892178,-1.1806096 3.892178,-1.1806096 3.8929099,-1.1731941 3.8940741,-1.1696364 3.8959473,-1.1664164 3.9009464,-1.1608973 3.9067351,-1.1562059 4.0673136,-1.0374319 4.0673136,-0.9809032 3.9245079,-0.9809032 3.9245079,-0.9809032 3.9121205,-0.9800443 3.9060833,-0.9786047 3.900368,-0.9761543 3.8954882,-0.9723395 3.8920275,-0.9671888 3.8902534,-0.9612421 3.8899611,-0.9550392 3.8899611,-0.9550392 3.8911969,-0.946379 3.8927817,-0.9422907 3.8949921,-0.9385059 3.8977755,-0.9351168 3.9011897,-0.932371 3.9050567,-0.9303047 3.9092666,-0.9290829 3.9092666,-0.9290829 3.9180982,-0.9284519 3.9269644,-0.9284363 4.2781047,-0.9284364 4.2781047,-0.9284364 4.2859387,-0.928455 4.2936858,-0.9296005 4.3009597,-0.9324941 4.3042092,-0.9346955 4.3070606,-0.9373898 4.3113078,-0.9439614 4.3137545,-0.9514046 4.3148036,-0.9591627 4.3148683,-0.9669983 4.3148684,-1.0751218 4.3148684,-1.0751218 4.3142606,-1.0876317 4.312806,-1.1000682 4.3104796,-1.1123772 4.3070367,-1.1244154 4.3024448,-1.1360678 4.2967417,-1.1472165 4.2899,-1.1577058 4.2819674,-1.1673951 4.2730985,-1.1762375 4.2633222,-1.1840625 4.2527126,-1.1907148 4.2413876,-1.1960596 4.2295697,-1.2002011 4.2173834,-1.203089 4.2049783,-1.2048018 4.1924766,-1.2055499 4.1924766,-1.2055499 4.1815188,-1.2050597 4.1706203,-1.2038252 4.1598654,-1.2016703 4.1493278,-1.1986267 4.139078,-1.1947226 4.129243,-1.1898669 4.1199692,-1.1840112 4.1112251,-1.1773896 4.1030982,-1.1700238 4.0957542,-1.1618774 4.0892182,-1.1530693 4.0834982,-1.143711 4.0786936,-1.1338509 4.0747504,-1.1236156 4.0716295,-1.1131009 4.0691874,-1.1024074 3.937717,-1.1980678z M4.2624014,-0.9809032 L4.1197805,-0.9809032 4.1197805,-1.0725354 4.1197805,-1.0725354 4.1199241,-1.0830445 4.1208132,-1.0935105 4.1229549,-1.1037956 4.1270778,-1.1134558 4.1270778,-1.1134558 4.1321199,-1.1220814 4.1383409,-1.1298987 4.145612,-1.1367501 4.1537614,-1.1425302 4.1626423,-1.147107 4.1720692,-1.1504173 4.1818622,-1.1523915 4.19183,-1.153083 4.19183,-1.153083 4.2019334,-1.1522854 4.2118294,-1.1501039 4.2213219,-1.1465552 4.2302229,-1.1417098 4.2383445,-1.135648 4.2455236,-1.1284956 4.2516347,-1.1204118 4.2564899,-1.111516 4.2564899,-1.111516 4.2597077,-1.1033058 4.2615529,-1.0946817 4.2624014,-1.077067 4.2624014,-0.9809032z"
     transform="matrix(1,0,0,-1,3.4106693,2.12725)"
     fill="rgb(104,104,104)"
     fill-rule="nonzero"
     shaper:cutDepth="0.0000762"
     stroke-linecap="round"
     stroke-linejoin="round"
     id="path52" /><path
     d="M4.1552511,-1.3237849 L4.1552511,-1.4706551 4.1552511,-1.4706551 4.1551085,-1.476705 4.1543287,-1.4826995 4.1526702,-1.4885211 4.1499156,-1.4938997 4.1458677,-1.4983913 4.1406254,-1.5013904 4.1347821,-1.50294 4.1287405,-1.5032621 4.1287405,-1.5032621 4.122439,-1.5029822 4.1163969,-1.5011901 4.1111915,-1.4976387 4.1073561,-1.4926473 4.1049375,-1.4868175 4.1035348,-1.4806671 4.1027841,-1.4680813 4.1027841,-1.3237849 3.9424279,-1.3237849 3.9424279,-1.5274634 3.9424279,-1.5274634 3.9423889,-1.5362237 3.9419499,-1.540583 3.9405805,-1.5447368 3.9405805,-1.5447368 3.9368061,-1.5517939 3.9342049,-1.554838 3.9310881,-1.5573828 3.9275823,-1.5593484 3.9238156,-1.5607026 3.9159174,-1.5620102 3.9159174,-1.5620102 3.9093365,-1.5616865 3.9031013,-1.559578 3.8979042,-1.5555389 3.8942397,-1.5500754 3.8919704,-1.5438838 3.8906607,-1.5374239 3.8899611,-1.5242675 3.8899611,-1.3048489 3.8899611,-1.3048489 3.8900337,-1.2976341 3.8909586,-1.2904849 3.8931824,-1.283623 3.8949768,-1.2804861 3.897315,-1.2777321 3.9001685,-1.2755126 3.9033848,-1.2738704 3.9103449,-1.2719576 3.9175145,-1.2712333 3.9247301,-1.271318 4.2807835,-1.2713181 4.2807835,-1.2713181 4.2880191,-1.2713905 4.2951863,-1.2723288 4.302077,-1.274533 4.3052304,-1.2763224 4.3079889,-1.2786694 4.3102019,-1.2815361 4.3118932,-1.2847448 4.3139854,-1.2916658 4.3147947,-1.2988533 4.3148683,-1.3060871 4.3148684,-1.5269091 4.3148684,-1.5269091 4.3139422,-1.5387968 4.3123761,-1.5445511 4.3097219,-1.5498942 4.3057902,-1.5543712 4.3007035,-1.5574735 4.2949599,-1.559075 4.2890045,-1.5594238 4.2890045,-1.5594238 4.282679,-1.5590618 4.2766156,-1.5572345 4.2713312,-1.5537619 4.2673631,-1.5488254 4.264766,-1.5430521 4.2632385,-1.536897 4.2624014,-1.5242675 4.2624014,-1.3237849 4.1552511,-1.3237849z"
     transform="matrix(1,0,0,-1,3.4106693,2.12725)"
     fill="rgb(104,104,104)"
     fill-rule="nonzero"
     shaper:cutDepth="0.0000762"
     stroke-linecap="round"
     stroke-linejoin="round"
     id="path54" /><path
     d="M3.6011775,-1.5096593 L3.6011775,-1.3079209 3.7371455,-1.3079209 3.7371455,-1.3079209 3.747874,-1.306891 3.7530597,-1.3054079 3.7578716,-1.3029819 3.7619952,-1.299503 3.7647918,-1.2949093 3.7663487,-1.2897472 3.7667067,-1.2843662 3.7667067,-1.2843662 3.7656988,-1.2773973 3.7628157,-1.2709953 3.7606279,-1.2682037 3.7579986,-1.2658739 3.7517426,-1.262659 3.7517426,-1.262659 3.7438551,-1.2614323 3.7358547,-1.2613658 3.3709305,-1.2613657 3.3709305,-1.2613657 3.3601241,-1.2621644 3.3548895,-1.2635836 3.3500368,-1.2660013 3.3460065,-1.2696207 3.343335,-1.27433 3.3420493,-1.2795955 3.3417993,-1.2850128 3.3417993,-1.2850128 3.3420631,-1.2903625 3.3434225,-1.2955407 3.3461756,-1.3001231 3.3502631,-1.3035775 3.3551205,-1.3058282 3.3603149,-1.3071482 3.3709886,-1.3079209 3.5546224,-1.3079209 3.5546224,-1.5096593 3.3735086,-1.5096593 3.3735086,-1.5096593 3.3653988,-1.5097044 3.3613556,-1.5100305 3.35741,-1.5109527 3.35741,-1.5109527 3.3508127,-1.513841 3.3480069,-1.516108 3.3457153,-1.5189218 3.3440102,-1.522112 3.3428753,-1.5255329 3.3417993,-1.5326599 3.3417993,-1.5326599 3.3421448,-1.5383096 3.3435854,-1.5437803 3.3464761,-1.5486355 3.3508615,-1.5521915 3.3561045,-1.5543244 3.3616371,-1.5555289 3.3729284,-1.5562146 3.7371455,-1.5562145 3.7371455,-1.5562145 3.7478762,-1.555448 3.7531007,-1.5541264 3.7579777,-1.5518563 3.7621185,-1.5484161 3.7649706,-1.5438624 3.7664399,-1.5386846 3.7667067,-1.5333065 3.7667067,-1.5333065 3.7662031,-1.5282362 3.764808,-1.5233382 3.7623714,-1.5188655 3.7589744,-1.5150704 3.7547848,-1.5121735 3.750049,-1.5102971 3.7450139,-1.5095332 3.739919,-1.5096595 3.7385411,-1.5096593 3.6011775,-1.5096593z"
     transform="matrix(1,0,0,-1,3.4106693,2.12725)"
     fill="rgb(104,104,104)"
     fill-rule="nonzero"
     shaper:cutDepth="0.0000762"
     stroke-linecap="round"
     stroke-linejoin="round"
     id="path56" /><path
     d="M3.5309755,-1.090941 L3.5309754,-1.1372189 3.4645585,-1.1372189 3.4645585,-1.1372189 3.4549783,-1.1369945 3.4454456,-1.1360605 3.4361037,-1.1339245 3.4272426,-1.1302911 3.4272426,-1.1302911 3.4197174,-1.1255744 3.4130084,-1.1197531 3.4072105,-1.1130285 3.4025102,-1.1054897 3.3988334,-1.0974077 3.3963268,-1.0888841 3.39483,-1.0801311 3.3942661,-1.0712659 3.3942661,-1.0712659 3.3947428,-1.060854 3.3964035,-1.050564 3.3993207,-1.0405591 3.4034943,-1.0310073 3.408767,-1.0220187 3.4150363,-1.0136887 3.4220506,-1.0059816 3.4297367,-0.9989393 3.4297367,-0.9989393 3.4432667,-0.9887375 3.4576046,-0.9797057 3.4727265,-0.9720585 3.4884028,-0.9656235 3.5045231,-0.9603981 3.521029,-0.9565662 3.5377922,-0.9540831 3.5547149,-0.9532156 3.5547149,-0.9532156 3.5680782,-0.9537544 3.5813654,-0.9552753 3.5944968,-0.9578119 3.6074056,-0.9613095 3.6200174,-0.9657599 3.6322537,-0.9711576 3.6439602,-0.9776246 3.6551223,-0.9849913 3.6551223,-0.9849913 3.6665885,-0.9923823 3.6774928,-1.0005734 3.687574,-1.0097651 3.6965742,-1.020014 3.7040665,-1.0314096 3.7096964,-1.0438289 3.7117212,-1.0503514 3.7131341,-1.057028 3.7142399,-1.0706193 3.7142399,-1.0706193 3.7135611,-1.0808275 3.7113317,-1.0908168 3.7075742,-1.1003277 3.7023269,-1.1091146 3.6960264,-1.1171762 3.6890036,-1.1246239 3.6814197,-1.131491 3.6734118,-1.1378656 3.6734118,-1.1378656 3.6668003,-1.1431055 3.6606457,-1.1488691 3.6579961,-1.1521527 3.6558969,-1.1558412 3.6547535,-1.1598731 3.6543833,-1.164099 3.6543833,-1.164099 3.6551729,-1.1694765 3.6571608,-1.1745374 3.6601677,-1.1790632 3.6640288,-1.1828923 3.6684728,-1.1860255 3.6733626,-1.1883993 3.6786281,-1.1897552 3.6840345,-1.1903324 3.6840345,-1.1903324 3.6890239,-1.1898802 3.6938922,-1.188813 3.6985356,-1.1869239 3.7028873,-1.1844601 3.7110071,-1.1786374 3.7186737,-1.1722276 3.7186737,-1.1722276 3.7288702,-1.1616858 3.7382244,-1.1503935 3.7465325,-1.1383064 3.7535764,-1.125446 3.75928,-1.1119343 3.7634052,-1.097864 3.7659148,-1.0834146 3.7667067,-1.0687719 3.7667067,-1.0687719 3.7662341,-1.0580184 3.7648442,-1.0473442 3.7627081,-1.0367943 3.7597408,-1.0264471 3.7560598,-1.0163318 3.7516501,-1.0065125 3.7464161,-0.9971066 3.7404733,-0.9881319 3.7404733,-0.9881319 3.7318954,-0.9779386 3.7226793,-0.9683178 3.7128798,-0.9592929 3.702534,-0.950899 3.6916931,-0.9431557 3.6804135,-0.9360659 3.6687658,-0.9295992 3.6567868,-0.9237683 3.6445198,-0.9185711 3.6320045,-0.9140034 3.619289,-0.9100279 3.606369,-0.9067775 3.5932882,-0.9042509 3.5801012,-0.9023549 3.5668292,-0.9011958 3.553514,-0.9007488 3.553514,-0.9007488 3.5334621,-0.9016804 3.5135463,-0.9041927 3.4938947,-0.9082869 3.4746378,-0.9139549 3.4559037,-0.9211649 3.4377608,-0.9297549 3.4204367,-0.9398949 3.4039651,-0.9513682 3.4039651,-0.9513682 3.3908891,-0.9623597 3.378843,-0.9744644 3.3680535,-0.9877076 3.3587608,-1.0020379 3.3513684,-1.0174326 3.3459919,-1.033643 3.3441287,-1.0419842 3.342862,-1.0504326 3.3417993,-1.0674787 3.3417993,-1.0674787 3.3427547,-1.0830166 3.3455021,-1.098337 3.3498703,-1.1132793 3.3558693,-1.1276423 3.3633685,-1.1412845 3.3723965,-1.1539633 3.3829634,-1.1653943 3.3949127,-1.1753683 3.3949127,-1.1753683 3.4070347,-1.182253 3.4134884,-1.1848923 3.4201676,-1.1869287 3.4339189,-1.1891432 3.4478414,-1.1896858 3.5478392,-1.1896857 3.5478392,-1.1896857 3.5551776,-1.1896127 3.562474,-1.1888251 3.5695105,-1.1867577 3.5727875,-1.1850811 3.5757299,-1.1828816 3.5781516,-1.1801234 3.5800448,-1.1769647 3.582442,-1.1700357 3.5833618,-1.1627542 3.5834423,-1.1554161 3.5834423,-1.0934424 3.5834423,-1.0934424 3.5832683,-1.0828377 3.5826602,-1.0775683 3.5809483,-1.0725591 3.5809483,-1.0725591 3.577187,-1.0658817 3.5746399,-1.0630316 3.5716408,-1.0606019 3.5683304,-1.05861 3.5647791,-1.0571858 3.5572089,-1.0560247 3.5572089,-1.0560247 3.550875,-1.0568798 3.544838,-1.0589734 3.5396421,-1.0626908 3.5354093,-1.0674787 3.5354093,-1.0674787 3.5324751,-1.0727828 3.5313957,-1.0787783 3.5309755,-1.090941z"
     transform="matrix(1,0,0,-1,3.4106693,2.12725)"
     fill="rgb(104,104,104)"
     fill-rule="nonzero"
     shaper:cutDepth="0.0000762"
     stroke-linecap="round"
     stroke-linejoin="round"
     id="path58" /><path
     d="M3.3742216,-0.7108337 L3.3742216,-0.7108337 3.364682,-0.7106363 3.3599734,-0.7099073 3.3554702,-0.7083396 3.3554702,-0.7083396 3.349619,-0.7041538 3.3452038,-0.6984747 3.3426747,-0.6917458 3.3417993,-0.6846002 3.3417993,-0.6846002 3.3430707,-0.676296 3.3446205,-0.6724077 3.3467725,-0.6687694 3.349342,-0.6654425 3.3524781,-0.6626591 3.3560603,-0.6604687 3.3599964,-0.6590134 3.3599964,-0.6590134 3.3686649,-0.6583914 3.377362,-0.6583667 3.7142397,-0.6583667 3.7142399,-0.5721845 3.7142399,-0.5721845 3.7154203,-0.5598888 3.7171394,-0.5539426 3.7199886,-0.5484641 3.7241058,-0.5438471 3.7294147,-0.5406997 3.7353262,-0.5388931 3.7414894,-0.5383767 3.7414894,-0.5383767 3.7478573,-0.5389019 3.7538694,-0.5410334 3.7588251,-0.5450609 3.7623556,-0.5503762 3.764574,-0.5563702 3.7659366,-0.5626186 3.7667066,-0.5753644 3.7667067,-0.7983091 3.7667067,-0.7983091 3.7655147,-0.8104526 3.7637397,-0.8162951 3.7608925,-0.8216999 3.7567377,-0.8261627 3.7514983,-0.829293 3.7456278,-0.8309667 3.7395496,-0.8315628 3.7395496,-0.8315628 3.7333996,-0.8309827 3.7275476,-0.8290305 3.7225805,-0.8253589 3.7188793,-0.8204308 3.7164936,-0.8147265 3.7150975,-0.8087103 3.7142397,-0.7963899 3.7142397,-0.7108337 3.3742216,-0.7108337z"
     transform="matrix(1,0,0,-1,3.4106693,2.12725)"
     fill="rgb(104,104,104)"
     fill-rule="nonzero"
     shaper:cutDepth="0.0000762"
     stroke-linecap="round"
     stroke-linejoin="round"
     id="path60" /><path
     d="M3.723477,-0.2071337 L3.5754832,-0.2932444 3.3895548,-0.1827874 3.3895548,-0.1827874 3.3785346,-0.1767806 3.3726944,-0.1745022 3.3664624,-0.1738801 3.3664624,-0.1738801 3.3614817,-0.1743969 3.3567071,-0.1758967 3.3523424,-0.1783456 3.3486564,-0.1817349 3.3456677,-0.1857491 3.3435475,-0.1902855 3.3422907,-0.1951302 3.3417993,-0.2001135 3.3417993,-0.2001135 3.3420652,-0.2046906 3.343005,-0.2091111 3.3449283,-0.2132517 3.3475096,-0.2170492 3.3538899,-0.2235187 3.3612896,-0.2288409 3.5227285,-0.3238914 3.3606041,-0.4183864 3.3606041,-0.4183864 3.3535243,-0.4235196 3.3473369,-0.4296742 3.3448444,-0.4333029 3.3430046,-0.437282 3.3420877,-0.4415262 3.3417993,-0.4459131 3.3417993,-0.4459131 3.3421836,-0.4510584 3.343469,-0.456049 3.3455908,-0.4607509 3.3486229,-0.4649207 3.3524987,-0.4683212 3.3570127,-0.4708126 3.3619735,-0.4722172 3.367109,-0.4727008 3.367109,-0.4727008 3.3721548,-0.4722944 3.3769599,-0.4706793 3.385768,-0.4656806 3.5754832,-0.3545384 3.7208805,-0.4381792 3.7208805,-0.4381792 3.7310974,-0.4432417 3.736494,-0.445131 3.742136,-0.4459131 3.742136,-0.4459131 3.7473263,-0.4453186 3.7523014,-0.4437353 3.7567967,-0.4410795 3.7604819,-0.437378 3.7633423,-0.4330106 3.7652786,-0.4281588 3.7663242,-0.4230423 3.7667067,-0.4178323 3.7667067,-0.4178323 3.7658432,-0.4100518 3.7643986,-0.406393 3.7621804,-0.4031626 3.7564144,-0.3978822 3.7498951,-0.3935387 3.6295247,-0.3232529 3.7453278,-0.2562125 3.7453278,-0.2562125 3.7532201,-0.2514572 3.7603953,-0.2456851 3.7632737,-0.2420729 3.7653546,-0.2379356 3.7663843,-0.2334666 3.7667067,-0.2288409 3.7667067,-0.2288409 3.766317,-0.2237038 3.7651664,-0.2186868 3.7632012,-0.2139229 3.7602639,-0.2096967 3.7565761,-0.2061007 3.7521768,-0.2034266 3.747249,-0.201932 3.742136,-0.2013143 3.742136,-0.2013143 3.7371988,-0.2016105 3.7324151,-0.2028972 3.723477,-0.2071337z"
     transform="matrix(1,0,0,-1,3.4106693,2.12725)"
     fill="rgb(104,104,104)"
     fill-rule="nonzero"
     shaper:cutDepth="0.0000762"
     stroke-linecap="round"
     stroke-linejoin="round"
     id="path62" /><path
     d="M3.6070893,0.1286355 L3.6070893,-0.0182346 3.6070893,-0.0182346 3.6069468,-0.0242845 3.606167,-0.030279 3.6045085,-0.0361007 3.6017539,-0.0414792 3.5977059,-0.0459709 3.5924636,-0.0489699 3.5866203,-0.0505196 3.5805788,-0.0508417 3.5805788,-0.0508417 3.5742773,-0.0505617 3.5682351,-0.0487696 3.5630298,-0.0452182 3.5591944,-0.0402268 3.5567758,-0.034397 3.555373,-0.0282466 3.5546224,-0.0156609 3.5546224,0.1286355 3.3942661,0.1286355 3.3942661,-0.0750429 3.3942661,-0.0750429 3.3942272,-0.0838032 3.3937882,-0.0881625 3.3924187,-0.0923163 3.3924187,-0.0923163 3.3886444,-0.0993734 3.3860432,-0.1024175 3.3829264,-0.1049623 3.3794205,-0.106928 3.3756538,-0.1082821 3.3677556,-0.1095897 3.3677556,-0.1095897 3.3611748,-0.1092661 3.3549395,-0.1071575 3.3497425,-0.1031185 3.346078,-0.0976549 3.3438087,-0.0914633 3.3424989,-0.0850035 3.3417993,-0.0718471 3.3417993,0.1475716 3.3417993,0.1475716 3.341872,0.1547863 3.3427969,0.1619355 3.3450206,0.1687974 3.3468151,0.1719343 3.3491532,0.1746884 3.3520068,0.1769078 3.355223,0.1785501 3.3621832,0.1804628 3.3693528,0.1811871 3.3765684,0.1811024 3.7326217,0.1811023 3.7326217,0.1811023 3.7398574,0.18103 3.7470245,0.1800917 3.7539152,0.1778874 3.7570686,0.176098 3.7598272,0.173751 3.7620402,0.1708843 3.7637315,0.1676757 3.7658237,0.1607547 3.766633,0.1535672 3.7667066,0.1463333 3.7667067,-0.0744887 3.7667067,-0.0744887 3.7657805,-0.0863763 3.7642144,-0.0921306 3.7615602,-0.0974737 3.7576285,-0.1019507 3.7525417,-0.105053 3.7467982,-0.1066545 3.7408428,-0.1070033 3.7408428,-0.1070033 3.7345173,-0.1066413 3.7284539,-0.104814 3.7231695,-0.1013414 3.7192014,-0.0964049 3.7166043,-0.0906317 3.7150768,-0.0844766 3.7142397,-0.0718471 3.7142397,0.1286355 3.6070893,0.1286355z"
     transform="matrix(1,0,0,-1,3.4106693,2.12725)"
     fill="rgb(104,104,104)"
     fill-rule="nonzero"
     shaper:cutDepth="0.0000762"
     stroke-linecap="round"
     stroke-linejoin="round"
     id="path64" /><path
     d="M0.0942324,-1.7306178 L-0.0628877,-1.6560993 0.09205,-1.5810934 0.09205,-1.5810934 0.097744,-1.5782625 0.1027058,-1.5743049 0.1045368,-1.5717101 0.1056447,-1.5687044 0.1063023,-1.5623791 0.1063023,-1.5623791 0.1060342,-1.5568128 0.1048302,-1.5513736 0.1022566,-1.5464357 0.0982815,-1.5425625 0.0932514,-1.5401459 0.0878568,-1.5387728 0.0767435,-1.5379931 -0.2393919,-1.5379605 -0.2393919,-1.5379605 -0.2502896,-1.5386944 -0.2556446,-1.5397967 -0.2607349,-1.5417775 -0.2651159,-1.5450267 -0.2682667,-1.5494833 -0.2698165,-1.5547154 -0.2702437,-1.5601622 -0.2702437,-1.5601622 -0.2700285,-1.5657263 -0.2687434,-1.5711413 -0.2660122,-1.5759845 -0.2619518,-1.5797913 -0.2570026,-1.5823185 -0.2516097,-1.5837412 -0.2405207,-1.5845482 -0.0225926,-1.5844986 -0.1253168,-1.6339372 -0.1253168,-1.6339372 -0.1315268,-1.6374312 -0.137004,-1.6419553 -0.138805,-1.6450191 -0.1397193,-1.6484609 -0.1400208,-1.6555713 -0.1400208,-1.6555713 -0.139368,-1.6634371 -0.1380111,-1.6671488 -0.1356703,-1.6703261 -0.1294266,-1.6751617 -0.1224498,-1.6788899 -0.0225926,-1.7271366 -0.241662,-1.7271366 -0.241662,-1.7271366 -0.2511619,-1.7274046 -0.2558892,-1.7279763 -0.2603907,-1.7294683 -0.2603907,-1.7294683 -0.2648965,-1.7334516 -0.2679873,-1.7386211 -0.2696034,-1.7444167 -0.2702437,-1.7504057 -0.2702437,-1.7504057 -0.2699769,-1.7553847 -0.2687868,-1.7602203 -0.2666005,-1.7646963 -0.2632123,-1.7683488 -0.2589851,-1.7709749 -0.254265,-1.772589 -0.2443797,-1.7737243 0.0827714,-1.7736747 0.0827714,-1.7736747 0.0926085,-1.7730192 0.0973446,-1.7716459 0.1016318,-1.7692047 0.1047379,-1.7653913 0.1064867,-1.7607795 0.1072897,-1.7559135 0.1074518,-1.7509805 0.1074518,-1.7509805 0.1070523,-1.7444659 0.1060771,-1.7413475 0.1045016,-1.7384646 0.0999223,-1.7338255 0.0942324,-1.7306178z"
     transform="matrix(1,0,0,-1,3.4106693,2.12725)"
     fill="rgb(104,104,104)"
     fill-rule="nonzero"
     shaper:cutDepth="0.0000762"
     stroke-linecap="round"
     stroke-linejoin="round"
     id="path66" /><path
     d="M-0.6215337,-1.5909736 L-0.6702234,-1.5762553 -0.6702234,-1.5762553 -0.676556,-1.5730227 -0.679209,-1.5706551 -0.6813562,-1.567787 -0.6829364,-1.5645821 -0.6839273,-1.5611701 -0.6845923,-1.5540862 -0.6845923,-1.5540862 -0.6832346,-1.5454944 -0.6815019,-1.541498 -0.6791024,-1.5378623 -0.6761156,-1.534687 -0.6724746,-1.5323028 -0.6683921,-1.5307805 -0.6640654,-1.530275 -0.6640654,-1.530275 -0.6590657,-1.5308075 -0.6541788,-1.5320272 -0.644495,-1.5347874 -0.3230721,-1.6313496 -0.3230721,-1.6313496 -0.3161041,-1.6343589 -0.3130815,-1.6366716 -0.3105607,-1.6395206 -0.3086553,-1.6428118 -0.3075207,-1.6464462 -0.3068968,-1.6540113 -0.3068968,-1.6540113 -0.3070409,-1.6584795 -0.3078792,-1.6628694 -0.309676,-1.6669585 -0.3124402,-1.6704695 -0.3159847,-1.6731784 -0.3199346,-1.67529 -0.3283124,-1.6783743 -0.6483828,-1.7760233 -0.6483828,-1.7760233 -0.6555494,-1.7780087 -0.6629159,-1.7788971 -0.6629159,-1.7788971 -0.6674002,-1.7784419 -0.671698,-1.7770922 -0.6755846,-1.7748145 -0.6788485,-1.7717062 -0.6814445,-1.7680262 -0.6832251,-1.7638834 -0.6842575,-1.7594997 -0.6845923,-1.7550038 -0.6845923,-1.7550038 -0.6838557,-1.7472807 -0.6825188,-1.7436324 -0.6804655,-1.7403337 -0.6778012,-1.737509 -0.6746048,-1.7352927 -0.6674583,-1.7322904 -0.6215337,-1.718102 -0.6215337,-1.5909736z M-0.5748964,-1.6057296 L-0.5748964,-1.703346 -0.4114695,-1.6545378 -0.5748964,-1.6057296z"
     transform="matrix(1,0,0,-1,3.4106693,2.12725)"
     fill="rgb(104,104,104)"
     fill-rule="nonzero"
     shaper:cutDepth="0.0000762"
     stroke-linecap="round"
     stroke-linejoin="round"
     id="path68" /><path
     d="M-0.7212456,-1.6671715 L-0.7227236,-1.6374991 -0.7227236,-1.6374991 -0.7236046,-1.6286309 -0.7253418,-1.6198905 -0.7279155,-1.6113589 -0.7313925,-1.6031541 -0.7358066,-1.5954132 -0.7410642,-1.5882184 -0.7470421,-1.5816095 -0.7536483,-1.5756282 -0.7608338,-1.5703582 -0.7685116,-1.5658322 -0.776578,-1.5620464 -0.7849631,-1.5590252 -0.7935755,-1.5567397 -0.8023438,-1.5551356 -0.8111989,-1.5541468 -0.8201031,-1.5537578 -0.8201031,-1.5537578 -0.8317847,-1.554422 -0.8433643,-1.5560985 -0.8546888,-1.559038 -0.8656785,-1.5630554 -0.8762164,-1.5681381 -0.8861222,-1.5743638 -0.8950613,-1.5819115 -0.9028677,-1.5906241 -0.9028677,-1.5906241 -0.9081537,-1.5989055 -0.9123814,-1.607776 -0.9156302,-1.6170487 -0.918304,-1.6265052 -0.9309251,-1.6764804 -0.9309251,-1.6764804 -0.9325642,-1.6825799 -0.9349033,-1.6884365 -0.9380512,-1.6939183 -0.9422794,-1.6985958 -0.9422794,-1.6985958 -0.9474825,-1.7030135 -0.9532366,-1.7066912 -0.9593261,-1.709775 -0.9656924,-1.712242 -0.9789286,-1.7155603 -0.9925293,-1.7166595 -0.9925293,-1.7166595 -0.9995208,-1.7163793 -1.0064501,-1.7154254 -1.0132835,-1.7139179 -1.0199488,-1.7117953 -1.0263843,-1.7090491 -1.0325055,-1.7056638 -1.0382084,-1.7016099 -1.043354,-1.6968715 -1.043354,-1.6968715 -1.0483164,-1.6902128 -1.0514979,-1.682528 -1.0531105,-1.67438 -1.0536175,-1.6660811 -1.0536869,-1.638081 -1.0536869,-1.638081 -1.0532861,-1.6276495 -1.0519394,-1.6225945 -1.0498683,-1.6177969 -1.0469862,-1.6134361 -1.0435655,-1.6094798 -1.0354426,-1.6029163 -1.0261622,-1.5980815 -1.0162,-1.5948995 -1.0058556,-1.5933515 -0.9954031,-1.5929232 -0.9954031,-1.5929232 -0.9850879,-1.5922126 -0.9800811,-1.5909139 -0.9753488,-1.5888125 -0.971261,-1.5856557 -0.968317,-1.5814072 -0.9667578,-1.5764779 -0.9662549,-1.5713288 -0.9662549,-1.5713288 -0.9669915,-1.5655923 -0.9688878,-1.5601311 -0.9721418,-1.5553572 -0.9765892,-1.551665 -0.9817962,-1.5491554 -0.9873613,-1.5475604 -0.9988516,-1.5463681 -0.9988516,-1.5463681 -1.0178576,-1.5478528 -1.0272212,-1.5496488 -1.0364431,-1.5520912 -1.0453697,-1.5554304 -1.0539341,-1.5596315 -1.062037,-1.5646542 -1.0695657,-1.5705075 -1.0764541,-1.5771006 -1.0825963,-1.5843943 -1.0878359,-1.5923604 -1.0920851,-1.6008962 -1.0953351,-1.6098604 -1.0976111,-1.6191205 -1.0989779,-1.628557 -1.0994336,-1.6380824 -1.0989409,-1.6677533 -1.0989409,-1.6677533 -1.0982467,-1.6777214 -1.0967272,-1.6875971 -1.0942092,-1.6972663 -1.0907181,-1.7066276 -1.0860693,-1.7154727 -1.0805382,-1.7237922 -1.0740555,-1.731395 -1.0667594,-1.7382222 -1.0588371,-1.7443119 -1.0503171,-1.7495276 -1.0412998,-1.7538373 -1.0319331,-1.7573121 -1.0222741,-1.7598716 -1.0124424,-1.7616639 -1.0025122,-1.7627618 -0.9925293,-1.7632145 -0.9925293,-1.7632145 -0.9746876,-1.7620032 -0.9658505,-1.7605986 -0.9571444,-1.7585501 -0.9486015,-1.7558882 -0.9403083,-1.75254 -0.9322956,-1.748558 -0.924672,-1.7438798 -0.917516,-1.738512 -0.9108244,-1.7325734 -0.9047557,-1.7260033 -0.8992931,-1.718918 -0.8946131,-1.711295 -0.8906061,-1.7032969 -0.8872938,-1.694987 -0.8846398,-1.6864438 -0.8721136,-1.6363355 -0.8721136,-1.6363355 -0.8700898,-1.6294874 -0.8673273,-1.6229168 -0.863577,-1.6168272 -0.8583653,-1.6119721 -0.8583653,-1.6119721 -0.8497799,-1.6068123 -0.8404763,-1.603098 -0.8306677,-1.601067 -0.8206779,-1.6003129 -0.8206779,-1.6003129 -0.8084987,-1.6013012 -0.7966462,-1.6042247 -0.7909664,-1.6064877 -0.7856132,-1.6094277 -0.7806109,-1.6129433 -0.7761755,-1.6171449 -0.7761755,-1.6171449 -0.7729218,-1.6223022 -0.7706458,-1.627972 -0.7690078,-1.6338491 -0.768129,-1.6398888 -0.7676233,-1.6630988 -0.7676233,-1.665426 -0.7676233,-1.665426 -0.7683069,-1.6737974 -0.7707142,-1.6818432 -0.7748894,-1.6891204 -0.7807985,-1.6950819 -0.7878338,-1.6996724 -0.7954637,-1.7031876 -0.8115639,-1.7079561 -0.8115639,-1.7079561 -0.8241264,-1.7114046 -0.8241264,-1.7114046 -0.8288044,-1.7150152 -0.8321405,-1.7198946 -0.8338552,-1.7255486 -0.8343899,-1.7314389 -0.8343899,-1.7314389 -0.8338245,-1.7361055 -0.8326104,-1.7406472 -0.8304312,-1.744809 -0.8273677,-1.7483694 -0.8234854,-1.7510194 -0.8191349,-1.7527926 -0.8098397,-1.7541006 -0.8098397,-1.7541006 -0.798967,-1.7530409 -0.7883449,-1.7504436 -0.7780523,-1.7467773 -0.768129,-1.742195 -0.768129,-1.742195 -0.7584665,-1.7363419 -0.7495578,-1.7294035 -0.7415502,-1.721433 -0.7346254,-1.7125118 -0.7289154,-1.7027658 -0.7245303,-1.6923587 -0.7218875,-1.6813771 -0.7212455,-1.6701044 -0.7212456,-1.6671715z"
     transform="matrix(1,0,0,-1,3.4106693,2.12725)"
     fill="rgb(104,104,104)"
     fill-rule="nonzero"
     shaper:cutDepth="0.0000762"
     stroke-linecap="round"
     stroke-linejoin="round"
     id="path70" /><path
     d="M-1.4844697,-1.6765088 L-1.4844697,-1.6765088 -1.4951486,-1.6758633 -1.5003483,-1.6745432 -1.5051636,-1.6722167 -1.5092029,-1.6686976 -1.511894,-1.6640787 -1.5131511,-1.6588745 -1.5132895,-1.6535186 -1.5132895,-1.6535186 -1.5127909,-1.6482231 -1.5114026,-1.6430919 -1.5088884,-1.6384059 -1.5054072,-1.6343875 -1.5054072,-1.6343875 -1.5001017,-1.6312953 -1.4940221,-1.630192 -1.4816782,-1.6298715 -1.1822314,-1.6298715 -1.1822313,-1.5731352 -1.1822313,-1.5731352 -1.1811424,-1.5625709 -1.179541,-1.5574933 -1.1768576,-1.5529131 -1.1731163,-1.5491332 -1.1684529,-1.5465888 -1.1633105,-1.5452437 -1.1580095,-1.544808 -1.1580095,-1.544808 -1.1525983,-1.5452304 -1.1474222,-1.5468399 -1.1429915,-1.5499768 -1.1397054,-1.5542751 -1.1376322,-1.5592981 -1.1363333,-1.5645695 -1.1355942,-1.575388 -1.1355941,-1.7339021 -1.1355941,-1.7339021 -1.1367134,-1.7443192 -1.1383562,-1.7493051 -1.1410283,-1.7538148 -1.1447961,-1.7574601 -1.1494238,-1.7599251 -1.1545035,-1.761229 -1.1597338,-1.7616545 -1.1597338,-1.7616545 -1.1649316,-1.7611715 -1.1699235,-1.7596587 -1.1742875,-1.7567958 -1.1776812,-1.7528441 -1.1799189,-1.7481246 -1.1812783,-1.7430842 -1.1822314,-1.732695 -1.1822314,-1.6765088 -1.4844697,-1.6765088z"
     transform="matrix(1,0,0,-1,3.4106693,2.12725)"
     fill="rgb(104,104,104)"
     fill-rule="nonzero"
     shaper:cutDepth="0.0000762"
     stroke-linecap="round"
     stroke-linejoin="round"
     id="path72" /><path
     d="M-1.6918248,-1.5950084 L-1.6918248,-1.6944083 -1.6918248,-1.6944083 -1.6926794,-1.7048608 -1.6941969,-1.7098941 -1.6967085,-1.7145008 -1.7003721,-1.7182612 -1.7050392,-1.7206583 -1.7101424,-1.7218883 -1.7153897,-1.7221607 -1.7153897,-1.7221607 -1.7208063,-1.721936 -1.7260452,-1.7205567 -1.7306706,-1.7177428 -1.7341753,-1.7136196 -1.7364413,-1.7086936 -1.7377588,-1.7034354 -1.7384621,-1.6926248 -1.7384621,-1.5950084 -1.881001,-1.5950084 -1.881001,-1.7346411 -1.881001,-1.7346411 -1.8816825,-1.7454414 -1.8830575,-1.7506872 -1.8854672,-1.7555374 -1.8891761,-1.7594758 -1.8938864,-1.762145 -1.8991504,-1.7634187 -1.9045659,-1.7636251 -1.9045659,-1.7636251 -1.9101673,-1.7633762 -1.9155382,-1.7617832 -1.9201652,-1.7586263 -1.9235744,-1.7541893 -1.9257243,-1.7490071 -1.9269711,-1.74354 -1.9276382,-1.7323525 -1.9276382,-1.5774869 -1.9276382,-1.5774869 -1.9275095,-1.571112 -1.9267319,-1.5647854 -1.9248209,-1.5587058 -1.9232436,-1.5559227 -1.921149,-1.5535163 -1.9156554,-1.5503039 -1.9094723,-1.5487812 -1.8967323,-1.5484703 -1.5802405,-1.5485029 -1.5802405,-1.5485029 -1.5739392,-1.5485015 -1.567666,-1.5491163 -1.5616231,-1.5508793 -1.5562945,-1.5542254 -1.5542734,-1.5566456 -1.5527555,-1.5594186 -1.5508863,-1.5654356 -1.5500703,-1.5716804 -1.5499428,-1.5779823 -1.5499427,-1.7340663 -1.5499427,-1.7340663 -1.5506187,-1.7445039 -1.5519994,-1.7495637 -1.5544297,-1.7541921 -1.5579972,-1.7580285 -1.5625995,-1.7605094 -1.567698,-1.7616962 -1.5729329,-1.7619008 -1.5729329,-1.7619008 -1.5784168,-1.7616867 -1.583741,-1.7603703 -1.5884811,-1.7576174 -1.5921329,-1.7535347 -1.5945428,-1.7486023 -1.5959497,-1.7432996 -1.5965801,-1.7323525 -1.5965801,-1.5950084 -1.6918248,-1.5950084z"
     transform="matrix(1,0,0,-1,3.4106693,2.12725)"
     fill="rgb(104,104,104)"
     fill-rule="nonzero"
     shaper:cutDepth="0.0000762"
     stroke-linecap="round"
     stroke-linejoin="round"
     id="path74" /><path
     d="M-2.2972945,-1.7499645 L-2.3000297,-1.7517195 -2.3000297,-1.7517195 -2.3082386,-1.7568733 -2.3126928,-1.7587481 -2.3175187,-1.7591092 -2.3175187,-1.7591092 -2.322105,-1.7586874 -2.3265468,-1.7574749 -2.3305887,-1.7552726 -2.3340618,-1.7522507 -2.3367213,-1.7484927 -2.3385874,-1.744283 -2.3396676,-1.7398086 -2.3400162,-1.7352158 -2.3400162,-1.7352158 -2.3395639,-1.7291704 -2.3376539,-1.7234258 -2.3337346,-1.7188129 -2.3287623,-1.7153447 -2.1843401,-1.6314426 -2.1843401,-1.6002633 -2.3112785,-1.6003129 -2.3112785,-1.6003129 -2.3224638,-1.5996805 -2.3279533,-1.5985254 -2.3331444,-1.596415 -2.3374473,-1.592844 -2.3402732,-1.5880134 -2.3416902,-1.5825927 -2.3419868,-1.5769943 -2.3419868,-1.5769943 -2.3414975,-1.5715804 -2.3400354,-1.5663507 -2.3373874,-1.5616035 -2.3336118,-1.557699 -2.3336118,-1.557699 -2.3280527,-1.554719 -2.3217667,-1.5539268 -2.3090949,-1.5537252 -1.9969702,-1.5537578 -1.9969702,-1.5537578 -1.9902198,-1.5536845 -1.9835352,-1.5545572 -1.977143,-1.5567226 -1.9717157,-1.5607092 -1.9679427,-1.5662866 -1.96578,-1.5726841 -1.9646789,-1.579336 -1.9642914,-1.5860749 -1.9642913,-1.6609904 -1.9642913,-1.6609904 -1.9649255,-1.6711953 -1.9664809,-1.6813002 -1.9689937,-1.6912103 -1.9726677,-1.7007516 -1.9774251,-1.7097992 -1.9832364,-1.7182125 -1.9899351,-1.7259331 -1.9974514,-1.7328675 -2.0056495,-1.7389716 -2.0144349,-1.7442084 -2.0236916,-1.7485398 -2.0333392,-1.7519367 -2.043223,-1.7545416 -2.0532845,-1.756379 -2.0634423,-1.7575213 -2.0736588,-1.7579596 -2.0736588,-1.7579596 -2.0907765,-1.7567778 -2.1076268,-1.7535677 -2.1158607,-1.7511524 -2.1239037,-1.7481602 -2.1316887,-1.7445531 -2.1392024,-1.7404063 -2.146415,-1.7357581 -2.1532201,-1.7305321 -2.1595581,-1.724745 -2.1652929,-1.718367 -2.1704351,-1.711493 -2.1747742,-1.7040959 -2.178318,-1.6962789 -2.1810089,-1.6881322 -2.1821193,-1.683597 -2.2972945,-1.7499645z M-2.0109287,-1.6002633 L-2.1377028,-1.6002633 -2.1377028,-1.6592662 -2.1377028,-1.6592662 -2.1373042,-1.6686421 -2.1356777,-1.6778742 -2.1339825,-1.6822641 -2.1316418,-1.6863422 -2.1253045,-1.6932588 -2.1253045,-1.6932588 -2.1200042,-1.6977341 -2.1142258,-1.7015739 -2.1080401,-1.704714 -2.1015513,-1.7071681 -2.0880656,-1.7103909 -2.0742336,-1.7114046 -2.0742336,-1.7114046 -2.058066,-1.7099906 -2.0501572,-1.708153 -2.0424583,-1.7055725 -2.0350641,-1.7022109 -2.028211,-1.6978676 -2.021974,-1.6926603 -2.0167582,-1.6864438 -2.0167582,-1.6864438 -2.013559,-1.6810758 -2.0117439,-1.6750917 -2.0109287,-1.6626219 -2.0109287,-1.6002633z"
     transform="matrix(1,0,0,-1,3.4106693,2.12725)"
     fill="rgb(104,104,104)"
     fill-rule="nonzero"
     shaper:cutDepth="0.0000762"
     stroke-linecap="round"
     stroke-linejoin="round"
     id="path76" /><path
     d="M-1.8866693,-0.41275 a0.7874,0.7874 0 1,0 1.5748,0 a0.7874,0.7874 0 1,0 -1.5748,0z M-1.8104693,-0.41275 a0.7112,0.7112 0 1,1 1.4224,0 a0.7112,0.7112 0 1,1 -1.4224,0z"
     transform="matrix(1,0,0,-1,3.4106693,2.12725)"
     fill="rgb(104,104,104)"
     fill-rule="nonzero"
     shaper:cutDepth="0.0000762"
     stroke-linecap="round"
     stroke-linejoin="round"
     id="path78" /><path
     d="M2.8567807,0.79375 A0.15875,0.15875 0 0,1 2.6980307,0.9525 L0.6342807,0.9525 A0.15875,0.15875 90 0,1 0.4755307,0.79375 L0.4755307,-0.79375 A0.15875,0.15875 180 0,1 0.6342807,-0.9525 L2.6980307,-0.9525 A0.15875,0.15875 270 0,1 2.8567807,-0.79375 L2.8567807,0.79375z"
     transform="matrix(1,0,0,-1,3.4106693,2.12725)"
     fill="rgb(255,255,255)"
     stroke="rgb(0,0,0)"
     stroke-width="0.0010cm"
     stroke-linecap="round"
     stroke-linejoin="round"
     shaper:cutDepth="0.0015875"
     id="path80" /><path
     d="M-1.7342693,-0.41275 a0.635,0.635 0 1,1 1.27,0 a0.635,0.635 0 1,1 -1.27,0z"
     transform="matrix(1,0,0,-1,3.4106693,2.12725)"
     fill="rgb(255,255,255)"
     stroke="rgb(0,0,0)"
     stroke-width="0.0010cm"
     stroke-linecap="round"
     stroke-linejoin="round"
     shaper:cutDepth="0.0015875"
     id="path82" /><path
     d="M3.4670157,0.66675 a0.215265,0.215265 0 1,1 0.43053,0 a0.215265,0.215265 0 1,1 -0.43053,0z"
     transform="matrix(1,0,0,-1,3.4106693,2.12725)"
     fill="rgb(255,255,255)"
     stroke="rgb(0,0,0)"
     stroke-width="0.0010cm"
     stroke-linecap="round"
     stroke-linejoin="round"
     shaper:cutDepth="0.0015875"
     id="path84" /><path
     d="M-2.0765343,1.32715 a0.215265,0.215265 0 1,1 0.43053,0 a0.215265,0.215265 0 1,1 -0.43053,0z"
     transform="matrix(1,0,0,-1,3.4106693,2.12725)"
     fill="rgb(255,255,255)"
     stroke="rgb(0,0,0)"
     stroke-width="0.0010cm"
     stroke-linecap="round"
     stroke-linejoin="round"
     shaper:cutDepth="0.0015875"
     id="path86" /><g
     inkscape:groupmode="layer"
     id="layer1"
     inkscape:label="warning layer"><g
       id="g942"
       transform="translate(-0.00385778,0.00183579)"
       style="fill:#ffff00"><path
         d="m 0.2249037,-0.2932125 v 0.1366176 l -0.4498074,0.4498074 v -0.492987 l 0.093438,-0.093438 z"
         transform="matrix(1,0,0,-1,0.2249037,3.9612875)"
         fill="#000000"
         stroke-linecap="round"
         stroke-linejoin="round"
         id="path879"
         style="fill:#ffff00" /><path
         d="m 7.5538463,2.8164755 v 0.492987 L 7.271456,3.5918529 6.4425963,3.9612875 h -0.033562 z"
         transform="matrix(1,0,0,-1,0.2249037,3.9612875)"
         fill="#000000"
         stroke-linecap="round"
         stroke-linejoin="round"
         id="path881"
         style="fill:#ffff00" /><path
         d="m 7.5538463,2.1814755 v 0.492987 L 6.2670214,3.9612875 H 6.1466276 V 3.5886943 Z"
         transform="matrix(1,0,0,-1,0.2249037,3.9612875)"
         fill="#000000"
         stroke-linecap="round"
         stroke-linejoin="round"
         id="path883"
         style="fill:#ffff00" /><path
         d="m 0.2249037,-0.0145819 v 0.492987 l -0.4498074,0.4498074 v -0.492987 z"
         transform="matrix(1,0,0,-1,0.2249037,3.9612875)"
         fill="#000000"
         stroke-linecap="round"
         stroke-linejoin="round"
         id="path885"
         style="fill:#ffff00" /><path
         d="m 0.2249037,0.6204181 v 0.492987 l -0.4498074,0.4498074 v -0.492987 z"
         transform="matrix(1,0,0,-1,0.2249037,3.9612875)"
         fill="#000000"
         stroke-linecap="round"
         stroke-linejoin="round"
         id="path887"
         style="fill:#ffff00" /><path
         d="m 0.2249037,1.2554181 v 0.492987 l -0.4498074,0.4498074 v -0.492987 z"
         transform="matrix(1,0,0,-1,0.2249037,3.9612875)"
         fill="#000000"
         stroke-linecap="round"
         stroke-linejoin="round"
         id="path889"
         style="fill:#ffff00" /><path
         d="m 0.2249037,1.8904181 v 0.492987 l -0.4498074,0.4498074 v -0.492987 z"
         transform="matrix(1,0,0,-1,0.2249037,3.9612875)"
         fill="#000000"
         stroke-linecap="round"
         stroke-linejoin="round"
         id="path891"
         style="fill:#ffff00" /><path
         d="m 0.2249037,2.5254181 v 0.492987 l -0.4498074,0.4498074 v -0.492987 z"
         transform="matrix(1,0,0,-1,0.2249037,3.9612875)"
         fill="#000000"
         stroke-linecap="round"
         stroke-linejoin="round"
         id="path893"
         style="fill:#ffff00" /><path
         d="m 0.2249037,3.1604181 v 0.492987 l -0.3078823,0.3078824 h -0.1419251 v -0.351062 z"
         transform="matrix(1,0,0,-1,0.2249037,3.9612875)"
         fill="#000000"
         stroke-linecap="round"
         stroke-linejoin="round"
         id="path895"
         style="fill:#ffff00" /><path
         d="m 7.5538463,1.5464755 v 0.492987 L 7.0831052,2.5102036 A 0.215265,0.215265 2.5070288 0 0 6.999098,2.3300114 V 2.1012238 Z"
         transform="matrix(1,0,0,-1,0.2249037,3.9612875)"
         fill="#000000"
         stroke-linecap="round"
         stroke-linejoin="round"
         id="path897"
         style="fill:#ffff00" /><path
         d="M 6.6527813,2.5007875 A 0.215265,0.215265 -180 0 0 6.8774624,2.7158464 L 6.1466276,3.4466813 V 2.9536943 L 6.5995343,2.5007875 Z"
         transform="matrix(1,0,0,-1,0.2249037,3.9612875)"
         fill="#000000"
         stroke-linecap="round"
         stroke-linejoin="round"
         id="path899"
         style="fill:#ffff00" /><path
         d="M 6.999098,1.4712228 H 7.487086 L 6.999098,1.9592108 Z"
         transform="matrix(1,0,0,-1,0.2249037,3.9612875)"
         fill="#000000"
         stroke-linecap="round"
         stroke-linejoin="round"
         id="path901"
         style="fill:#ffff00" /><path
         d="M 6.4592001,2.0061217 V 2.4991088 L 6.1466276,2.8116813 v -0.492987 z"
         transform="matrix(1,0,0,-1,0.2249037,3.9612875)"
         fill="#000000"
         stroke-linecap="round"
         stroke-linejoin="round"
         id="path903"
         style="fill:#ffff00" /><path
         d="M 6.4592001,1.3711217 V 1.8641088 L 6.1466276,2.1766813 v -0.492987 z"
         transform="matrix(1,0,0,-1,0.2249037,3.9612875)"
         fill="#000000"
         stroke-linecap="round"
         stroke-linejoin="round"
         id="path905"
         style="fill:#ffff00" /><path
         d="m 7.5538463,-0.2932125 v 0.427675 L 7.5147356,0.1735733 H 7.0217485 l 0.4667858,-0.4667858 z"
         transform="matrix(1,0,0,-1,0.2249037,3.9612875)"
         fill="#000000"
         stroke-linecap="round"
         stroke-linejoin="round"
         id="path907"
         style="fill:#ffff00" /><path
         d="M 6.4592001,0.7361217 V 1.2291088 L 6.1466276,1.5416813 v -0.492987 z"
         transform="matrix(1,0,0,-1,0.2249037,3.9612875)"
         fill="#000000"
         stroke-linecap="round"
         stroke-linejoin="round"
         id="path909"
         style="fill:#ffff00" /><path
         d="M 6.8535343,-0.2932125 H 7.3465214 L 6.8797356,0.1735733 H 6.4592001 V 0.5941088 L 6.1466276,0.9066813 v -0.492987 z"
         transform="matrix(1,0,0,-1,0.2249037,3.9612875)"
         fill="#000000"
         stroke-linecap="round"
         stroke-linejoin="round"
         id="path911"
         style="fill:#ffff00" /><path
         d="M 6.2185343,-0.2932125 H 6.7115214 L 6.1466276,0.2716813 v -0.492987 z"
         transform="matrix(1,0,0,-1,0.2249037,3.9612875)"
         fill="#000000"
         stroke-linecap="round"
         stroke-linejoin="round"
         id="path913"
         style="fill:#ffff00" /><path
         d="M 0.2249037,3.9612875 H 0.0590343 L 0.2249037,3.7954181 Z"
         transform="matrix(1,0,0,-1,0.2249037,3.9612875)"
         fill="#000000"
         stroke-linecap="round"
         stroke-linejoin="round"
         id="path915"
         style="fill:#ffff00" /></g></g></svg>
