<?xml version="1.0" encoding="utf-8"?>
<!-- Generator: Fusion 360, Shaper Origin Export Add-In, Version 1.6.10  -->
<svg xmlns="http://www.w3.org/2000/svg" xmlns:xlink="http://www.w3.org/1999/xlink" xmlns:shaper="http://www.shapertools.com/namespaces/shaper" shaper:fusionaddin="version:1.6.10" width="19.52625cm" height="4.4958cm" version="1.1" x="0cm" y="0cm" viewBox="0 0 19.52625 4.4958" enable-background="new 0 0 19.52625 4.4958" xml:space="preserve"><path d="M-4.445,0.508 L-8.556625,3.9878 -9.763125,3.9878 -9.763125,-0.508 9.763125,-0.508 9.763125,3.9878 8.556625,3.9878 4.445,0.508 -4.445,0.508z" transform="matrix(1,0,0,-1,9.763125,3.9878)" fill="rgb(0,0,0)" shaper:cutDepth="0.0047625" stroke-linecap="round" stroke-linejoin="round" /><path d="M-9.3345,1.651 a0.9525,0.9525 0 1,1 1.905,0 a0.9525,0.9525 0 1,1 -1.905,0z" transform="matrix(1,0,0,-1,9.763125,3.9878)" fill="rgb(255,255,255)" stroke="rgb(0,0,0)" stroke-width="0.0010cm" stroke-linecap="round" stroke-linejoin="round" shaper:cutDepth="0.0047625" /><path d="M7.4295,1.651 a0.9525,0.9525 0 1,1 1.905,0 a0.9525,0.9525 0 1,1 -1.905,0z" transform="matrix(1,0,0,-1,9.763125,3.9878)" fill="rgb(255,255,255)" stroke="rgb(0,0,0)" stroke-width="0.0010cm" stroke-linecap="round" stroke-linejoin="round" shaper:cutDepth="0.0047625" /><path d="M8.725535,3.048 a0.215265,0.215265 0 1,1 0.43053,0 a0.215265,0.215265 0 1,1 -0.43053,0z" transform="matrix(1,0,0,-1,9.763125,3.9878)" fill="rgb(255,255,255)" stroke="rgb(0,0,0)" stroke-width="0.0010cm" stroke-linecap="round" stroke-linejoin="round" shaper:cutDepth="0.0047625" /><path d="M5.626735,0.254 a0.215265,0.215265 0 1,1 0.43053,0 a0.215265,0.215265 0 1,1 -0.43053,0z" transform="matrix(1,0,0,-1,9.763125,3.9878)" fill="rgb(255,255,255)" stroke="rgb(0,0,0)" stroke-width="0.0010cm" stroke-linecap="round" stroke-linejoin="round" shaper:cutDepth="0.0047625" /><path d="M-6.057265,0.254 a0.215265,0.215265 0 1,1 0.43053,0 a0.215265,0.215265 0 1,1 -0.43053,0z" transform="matrix(1,0,0,-1,9.763125,3.9878)" fill="rgb(255,255,255)" stroke="rgb(0,0,0)" stroke-width="0.0010cm" stroke-linecap="round" stroke-linejoin="round" shaper:cutDepth="0.0047625" /><path d="M-9.156065,3.048 a0.215265,0.215265 0 1,1 0.43053,0 a0.215265,0.215265 0 1,1 -0.43053,0z" transform="matrix(1,0,0,-1,9.763125,3.9878)" fill="rgb(255,255,255)" stroke="rgb(0,0,0)" stroke-width="0.0010cm" stroke-linecap="round" stroke-linejoin="round" shaper:cutDepth="0.0047625" /></svg>