<?xml version="1.0" encoding="utf-8"?>
<!-- Generator: Fusion 360, Shaper Origin Export Add-In, Version 1.6.10  -->
<svg xmlns="http://www.w3.org/2000/svg" xmlns:xlink="http://www.w3.org/1999/xlink" xmlns:shaper="http://www.shapertools.com/namespaces/shaper" shaper:fusionaddin="version:1.6.10" width="0.9652cm" height="0.4064cm" version="1.1" x="0cm" y="0cm" viewBox="0 0 0.9652 0.4064" enable-background="new 0 0 0.9652 0.4064" xml:space="preserve"><path d="M0.3880516,-0.1776798 A0.0762,0.0762 270 0,1 0.4642516,-0.1014798 L0.4642516,0.1525202 A0.0762,0.0762 0 0,1 0.3880516,0.2287202 L-0.4247484,0.2287202 A0.0762,0.0762 90 0,1 -0.5009484,0.1525202 L-0.5009484,-0.1014798 A0.0762,0.0762 180 0,1 -0.4247484,-0.1776798 L0.3880516,-0.1776798z" transform="matrix(1,0,0,-1,0.5009484,0.2287202)" fill="rgb(0,0,0)" shaper:cutDepth="0.0015875" stroke-linecap="round" stroke-linejoin="round" /><path d="M-0.2744731,0.1910134 L-0.2744731,0.1910134 -0.257558,0.189469 -0.249262,0.1876392 -0.2411393,0.185139 -0.2333302,0.1817964 -0.2258813,0.1777067 -0.2188886,0.1728816 -0.2124249,0.1673667 -0.2065315,0.1612462 -0.2012998,0.1545517 -0.1968173,0.1473341 -0.1931397,0.1396749 -0.1902869,0.1316719 -0.1882919,0.1234125 -0.1870684,0.1150049 -0.1865358,0.1065246 -0.1865358,0.1065246 -0.1869502,0.0966388 -0.1886083,0.0868852 -0.1914866,0.0774196 -0.1956276,0.0684349 -0.2010004,0.0601265 -0.2073442,0.0525342 -0.2145633,0.0457684 -0.2223861,0.0397094 -0.2223861,0.0397094 -0.214578,0.0318421 -0.2073903,0.0234089 -0.2009454,0.0143891 -0.1955653,0.0047028 -0.191392,-0.0055641 -0.1885175,-0.0162666 -0.1869562,-0.0272384 -0.1865358,-0.0383134 -0.1865358,-0.0383134 -0.1877053,-0.0540858 -0.1910586,-0.0695419 -0.1936536,-0.0770162 -0.1968367,-0.08426 -0.2005535,-0.0912452 -0.2048621,-0.0978812 -0.2096901,-0.1041499 -0.2149956,-0.1100196 -0.2207623,-0.115437 -0.2269868,-0.1203216 -0.2335816,-0.1246931 -0.2405217,-0.1284935 -0.255147,-0.1345128 -0.255147,-0.1345128 -0.2645836,-0.1371285 -0.2742503,-0.138686 -0.2938153,-0.1393982 -0.385688,-0.1393982 -0.385688,-0.1393982 -0.3911566,-0.1394584 -0.3965786,-0.1387896 -0.4017558,-0.137028 -0.406187,-0.133843 -0.4093753,-0.1294129 -0.4111273,-0.1242333 -0.4117284,-0.118804 -0.4115084,-0.113339 -0.4115519,0.1659398 -0.4115519,0.1659398 -0.4114744,0.1711554 -0.4106999,0.1763155 -0.4087904,0.1811638 -0.405705,0.1853649 -0.4014457,0.1883679 -0.3965547,0.1901712 -0.3913969,0.19095 -0.386182,0.1910852 -0.2744731,0.1910134z M-0.2898425,0.0215328 L-0.370291,0.0215328 -0.370291,-0.0985907 -0.294374,-0.0985907 -0.294374,-0.0985907 -0.2847853,-0.0983974 -0.2752389,-0.097498 -0.2658969,-0.0953302 -0.2570868,-0.09155 -0.2570868,-0.09155 -0.2506188,-0.0870222 -0.2447923,-0.0816944 -0.2397187,-0.0756455 -0.2354572,-0.0689988 -0.2319937,-0.0619037 -0.2294166,-0.0544409 -0.227906,-0.0466916 -0.2273433,-0.0388163 -0.2273433,-0.0388163 -0.2281033,-0.0295401 -0.230225,-0.0204793 -0.2337134,-0.0118506 -0.2384765,-0.0038557 -0.244259,0.0034383 -0.2511487,0.0096927 -0.2589636,0.0147468 -0.2675042,0.0184436 -0.2675042,0.0184436 -0.2729068,0.0201775 -0.2785017,0.0211235 -0.2898425,0.0215328z M-0.2789174,0.1502776 L-0.3668148,0.1502776 -0.3668148,0.0623404 -0.2779935,0.0623404 -0.2779935,0.0623404 -0.2650127,0.0629055 -0.258645,0.0641964 -0.2526325,0.066651 -0.2526325,0.066651 -0.2472239,0.0697332 -0.2422404,0.0734631 -0.2378657,0.0778915 -0.2341944,0.0829186 -0.2312344,0.0883947 -0.2290508,0.094224 -0.2277602,0.1003134 -0.2273433,0.1065246 -0.2273433,0.1065246 -0.2279442,0.1138544 -0.2297842,0.1209716 -0.2327526,0.1276995 -0.2369167,0.1337593 -0.2419621,0.1391084 -0.247871,0.1434842 -0.2544878,0.1466891 -0.2615412,0.148769 -0.2615412,0.148769 -0.2658032,0.1497596 -0.2701639,0.1501438 -0.2789174,0.1502776z" transform="matrix(1,0,0,-1,0.5009484,0.2287202)" fill="rgb(104,104,104)" fill-rule="nonzero" shaper:cutDepth="0.0000762" stroke-linecap="round" stroke-linejoin="round" /><path d="M0.0743307,-0.1023266 L0.0743307,-0.1023266 0.0762705,-0.1047693 0.0762705,-0.1047693 0.0802423,-0.1109085 0.0813126,-0.1144135 0.0816588,-0.1180605 0.0816588,-0.1180605 0.0812522,-0.1220303 0.0800343,-0.1258286 0.0780658,-0.1292983 0.0754085,-0.1322745 0.0722146,-0.1346647 0.0686024,-0.1363586 0.0607521,-0.137674 0.0607521,-0.137674 0.0549764,-0.1371763 0.052209,-0.1362701 0.0497046,-0.1348079 0.0454079,-0.1309204 0.0418432,-0.1263518 -0.0505365,-0.0014574 -0.0945033,-0.0014574 -0.0945033,-0.1126003 -0.0945033,-0.1126003 -0.0951718,-0.1222375 -0.0962961,-0.1269381 -0.0982714,-0.1313452 -0.1012186,-0.135176 -0.1052177,-0.1378646 -0.1098644,-0.1391809 -0.1146915,-0.1393982 -0.1146915,-0.1393982 -0.1214194,-0.1384351 -0.1275624,-0.1355511 -0.1301937,-0.1333848 -0.1323261,-0.1307312 -0.1339308,-0.1277259 -0.1348798,-0.1244546 -0.1348798,-0.1244546 -0.1353741,-0.1175493 -0.1353109,-0.1106179 -0.1353827,0.1624194 -0.1353827,0.1624194 -0.1353677,0.1685217 -0.1344727,0.1745559 -0.1322129,0.1802195 -0.1283914,0.1849652 -0.1232658,0.1882637 -0.1174645,0.1901565 -0.1114204,0.1909746 -0.1053182,0.1910852 -0.021294,0.1910134 -0.021294,0.1910134 -0.0115641,0.1905407 -0.0018912,0.1894093 0.0076824,0.1875999 0.0170454,0.1849221 0.0261085,0.1813506 0.0347796,0.1769148 0.042938,0.1715936 0.0504741,0.1654237 0.0573515,0.1585257 0.0634376,0.1509219 0.0686116,0.14267 0.0727687,0.1338617 0.0759899,0.12467 0.078236,0.1151917 0.0795682,0.1055433 0.08015,0.0958198 0.08015,0.0958198 0.0788116,0.0788294 0.0771302,0.0704713 0.0748343,0.0622587 0.071747,0.0543127 0.067968,0.0466689 0.0634206,0.0394575 0.0582758,0.0326584 0.0525534,0.026338 0.0462242,0.0206256 0.0393815,0.0155387 0.0321274,0.0110601 0.0244487,0.007353 0.0164963,0.0042782 0,0 0.0743307,-0.1023266z M-0.0197092,0.1502776 L-0.0945033,0.1502776 -0.0945033,0.0393502 -0.0233057,0.0393502 -0.0233057,0.0393502 -0.0069889,0.040074 0.0010088,0.0417494 0.0085213,0.0449541 0.0085213,0.0449541 0.0152296,0.0488749 0.0212759,0.0537544 0.0266429,0.059372 0.0311363,0.0657112 0.0346956,0.0726177 0.0372696,0.079949 0.0388048,0.087565 0.0393425,0.0953169 0.0393425,0.0953169 0.0387205,0.1031768 0.0370915,0.1108909 0.0342673,0.1182517 0.0304975,0.1251766 0.0257812,0.1314947 0.0202507,0.1371137 0.0139332,0.1418303 0.0070126,0.1456079 0.0070126,0.1456079 0.0006436,0.1481057 -0.0060462,0.1495393 -0.0197092,0.1502776z" transform="matrix(1,0,0,-1,0.5009484,0.2287202)" fill="rgb(104,104,104)" fill-rule="nonzero" shaper:cutDepth="0.0000762" stroke-linecap="round" stroke-linejoin="round" /><path d="M0.2641431,-0.1142528 L0.2641431,0.1502776 0.3306869,0.1502776 0.3306869,0.1502776 0.3402591,0.1508816 0.3449413,0.1519606 0.3493576,0.1538289 0.3532089,0.1566962 0.3560163,0.1605743 0.3575913,0.1651073 0.3579717,0.1698912 0.3579717,0.1698912 0.3575794,0.1746308 0.3562082,0.1791808 0.353822,0.1832844 0.3503078,0.186489 0.3461201,0.1887249 0.3415581,0.190082 0.3321078,0.1910134 0.1587782,0.1910852 0.1587782,0.1910852 0.1488483,0.1904192 0.1439778,0.1893681 0.1393046,0.1876453 0.1351578,0.1849021 0.1320137,0.1810451 0.1303483,0.1763619 0.1299381,0.1713999 0.1299381,0.1713999 0.1303395,0.1666075 0.1317436,0.1620105 0.1341967,0.1578889 0.1378087,0.1547042 0.1420441,0.1524538 0.1466736,0.1511254 0.1562331,0.1502059 0.2233355,0.1502776 0.2233355,-0.1117384 0.2233355,-0.1117384 0.2237667,-0.1253168 0.2237667,-0.1253168 0.2248988,-0.1283787 0.2266027,-0.1311652 0.2287687,-0.1336049 0.231355,-0.1356022 0.2372331,-0.1383983 0.2436675,-0.1393982 0.2436675,-0.1393982 0.2492314,-0.138785 0.2544627,-0.1368204 0.2588773,-0.1333864 0.2621315,-0.1288371 0.2621315,-0.1288371 0.2633478,-0.1253329 0.2639523,-0.1216724 0.2641431,-0.1142528z" transform="matrix(1,0,0,-1,0.5009484,0.2287202)" fill="rgb(104,104,104)" fill-rule="nonzero" shaper:cutDepth="0.0000762" stroke-linecap="round" stroke-linejoin="round" /></svg>