<?xml version="1.0" encoding="utf-8"?>
<!-- Generator: Fusion 360, Shaper Origin Export Add-In, Version 1.6.10  -->
<svg xmlns="http://www.w3.org/2000/svg" xmlns:xlink="http://www.w3.org/1999/xlink" xmlns:shaper="http://www.shapertools.com/namespaces/shaper" shaper:fusionaddin="version:1.6.10" width="0.9652cm" height="0.4064cm" version="1.1" x="0cm" y="0cm" viewBox="0 0 0.9652 0.4064" enable-background="new 0 0 0.9652 0.4064" xml:space="preserve"><path d="M0.6479973,-0.1725183 A0.0762,0.0762 270 0,1 0.7241973,-0.0963183 L0.7241973,0.1576817 A0.0762,0.0762 0 0,1 0.6479973,0.2338817 L-0.1648027,0.2338817 A0.0762,0.0762 90 0,1 -0.2410027,0.1576817 L-0.2410027,-0.0963183 A0.0762,0.0762 180 0,1 -0.1648027,-0.1725183 L0.6479973,-0.1725183z" transform="matrix(1,0,0,-1,0.2410027,0.2338817)" fill="rgb(0,0,0)" shaper:cutDepth="0.0015875" stroke-linecap="round" stroke-linejoin="round" /><path d="M0.0280044,0.1697362 L0.0280761,-0.0445532 -0.1201251,0.1821207 -0.1201251,0.1821207 -0.1241451,0.1874382 -0.1288894,0.1921078 -0.1347343,0.1953047 -0.1413325,0.1961749 -0.1413325,0.1961749 -0.1470639,0.1953577 -0.1523074,0.1929234 -0.1567258,0.18917 -0.1595091,0.1841051 -0.1595091,0.1841051 -0.1604363,0.177398 -0.1605149,0.1705984 -0.1604431,-0.1076016 -0.1604431,-0.1076016 -0.1602933,-0.1160066 -0.1597753,-0.1201766 -0.1585033,-0.1241786 -0.1585033,-0.1241786 -0.1551633,-0.1284531 -0.1507979,-0.1316731 -0.1457105,-0.1335463 -0.1403267,-0.1342367 -0.1403267,-0.1342367 -0.1359067,-0.1338462 -0.1316265,-0.1326824 -0.1277483,-0.1305305 -0.1245604,-0.1274563 -0.1223056,-0.1236305 -0.1208024,-0.1194597 -0.1196355,-0.1106718 -0.1196355,0.1070631 0.0280761,-0.121112 0.0280761,-0.121112 0.0320304,-0.1262797 0.0369185,-0.1305465 0.0427596,-0.1334219 0.0491984,-0.1342367 0.0491984,-0.1342367 0.053489,-0.1339036 0.0576352,-0.1327588 0.0613827,-0.1306535 0.0643715,-0.1275607 0.0664677,-0.1238074 0.0677858,-0.1197076 0.0688119,-0.1111747 0.0688837,0.1716126 0.0688837,0.1716126 0.0681125,0.1807649 0.0669127,0.1852078 0.0648656,0.1893213 0.0617466,0.1926914 0.0577567,0.1949665 0.0532926,0.1960561 0.0486955,0.1961749 0.0486955,0.1961749 0.0438266,0.1959174 0.0390918,0.1947647 0.0348616,0.1923598 0.0316812,0.188673 0.029703,0.1842226 0.0286414,0.1794606 0.0280044,0.1697362z" transform="matrix(1,0,0,-1,0.2410027,0.2338817)" fill="rgb(104,104,104)" fill-rule="nonzero" shaper:cutDepth="0.0000762" stroke-linecap="round" stroke-linejoin="round" /><path d="M0.2678923,0.0128284 L0.303958,0.0129002 0.303958,-0.0387574 0.303958,-0.0387574 0.3029889,-0.053658 0.3013298,-0.0609431 0.2984979,-0.0678527 0.2984979,-0.0678527 0.2948299,-0.0737066 0.2903402,-0.0789569 0.2850741,-0.0834268 0.279214,-0.0870871 0.272927,-0.0899463 0.2662977,-0.0918983 0.2594892,-0.0930591 0.2525895,-0.0934292 0.2525895,-0.0934292 0.2444896,-0.093131 0.2364886,-0.0918355 0.2287252,-0.089506 0.2212703,-0.0863268 0.2142834,-0.0822186 0.2078049,-0.0773452 0.2018118,-0.0718899 0.1963354,-0.0659129 0.1963354,-0.0659129 0.1884026,-0.0553911 0.1814083,-0.0442229 0.1754287,-0.0324803 0.1704249,-0.0202896 0.1664277,-0.007733 0.1633801,0.0050873 0.1615174,0.0181324 0.1608444,0.0312924 0.1608444,0.0312924 0.1612591,0.0416848 0.162377,0.0520251 0.1643315,0.0622405 0.167068,0.0722745 0.1705265,0.0820836 0.1747847,0.0915719 0.1797593,0.100706 0.1854869,0.1093871 0.1854869,0.1093871 0.1912355,0.1183052 0.1976064,0.1267863 0.2047554,0.1346273 0.2127268,0.1416275 0.22159,0.1474548 0.2312496,0.1518336 0.2415155,0.1545074 0.2520866,0.1553674 0.2520866,0.1553674 0.2600262,0.1548395 0.2677957,0.1531055 0.275193,0.150183 0.2820273,0.1461017 0.2882975,0.1412013 0.2940901,0.1357392 0.3043892,0.1236122 0.3043892,0.1236122 0.3129494,0.1136825 0.3183723,0.1099905 0.321506,0.1090995 0.3247929,0.1088123 0.3247929,0.1088123 0.3289795,0.1094262 0.3329292,0.1109461 0.3364316,0.1133182 0.339423,0.1163151 0.341899,0.1197452 0.3436969,0.1235791 0.3448191,0.1276574 0.3451967,0.1318743 0.3451967,0.1318743 0.3440683,0.1395477 0.3406588,0.1465497 0.336146,0.1528832 0.3311152,0.1588159 0.3311152,0.1588159 0.3229148,0.1667469 0.3141323,0.1740259 0.3047242,0.180477 0.2947667,0.1860453 0.2842286,0.1904079 0.2732786,0.1936048 0.2620398,0.1955591 0.2506497,0.1961749 0.2506497,0.1961749 0.2422851,0.1958079 0.2339752,0.1947847 0.2257811,0.1930651 0.2177326,0.1907575 0.2098645,0.1878948 0.2022267,0.1844647 0.1949105,0.1803937 0.1879297,0.1757712 0.1879297,0.1757712 0.1800015,0.1690994 0.1725187,0.1619314 0.1654993,0.1543096 0.1589708,0.1462629 0.1529482,0.137831 0.1474339,0.129058 0.1378691,0.1106817 0.1302741,0.0914066 0.124654,0.0714679 0.1212142,0.0510373 0.119965,0.0303584 0.119965,0.0303584 0.1206897,0.0147626 0.1226554,-0.0007259 0.125828,-0.0160127 0.1302366,-0.0309902 0.1358444,-0.0455611 0.1425254,-0.059672 0.1504121,-0.0731463 0.1593356,-0.0859574 0.1593356,-0.0859574 0.1678826,-0.0961262 0.1772966,-0.1054916 0.1875896,-0.1138911 0.1987677,-0.1210581 0.2107162,-0.1268627 0.2233395,-0.1309805 0.2363845,-0.133481 0.2496439,-0.1342367 0.2496439,-0.1342367 0.261727,-0.1334923 0.2736537,-0.1314242 0.2852742,-0.1280293 0.2964435,-0.1233622 0.3070525,-0.1175301 0.3169121,-0.1105088 0.3258015,-0.1022909 0.3335579,-0.0929981 0.3335579,-0.0929981 0.3389134,-0.083569 0.3425456,-0.0733528 0.3443363,-0.0626667 0.3446938,-0.0518314 0.3447656,0.0260165 0.3447656,0.0260165 0.3440103,0.0373854 0.3423967,0.0428528 0.3393667,0.0476724 0.334798,0.0510588 0.3293864,0.052868 0.3237448,0.0536564 0.3180396,0.0537078 0.2699097,0.0537078 0.2699097,0.0537078 0.2616252,0.0535424 0.2575104,0.0530278 0.2535953,0.0516962 0.2535953,0.0516962 0.2484047,0.0487727 0.2442982,0.0444632 0.2416863,0.0391104 0.2407352,0.0332322 0.2407352,0.0332322 0.241395,0.0283104 0.243114,0.0236561 0.2459239,0.0195643 0.2496439,0.0162769 0.2496439,0.0162769 0.2537815,0.0140125 0.2584363,0.0131556 0.2678923,0.0128284z" transform="matrix(1,0,0,-1,0.2410027,0.2338817)" fill="rgb(104,104,104)" fill-rule="nonzero" shaper:cutDepth="0.0000762" stroke-linecap="round" stroke-linejoin="round" /><path d="M0.5332849,-0.1090913 L0.5332849,0.1554391 0.5998287,0.1554391 0.5998287,0.1554391 0.6094009,0.1560432 0.6140831,0.1571221 0.6184993,0.1589904 0.6223507,0.1618577 0.6251581,0.1657358 0.626733,0.1702688 0.6271135,0.1750527 0.6271135,0.1750527 0.6267212,0.1797923 0.62535,0.1843423 0.6229638,0.1884459 0.6194495,0.1916505 0.6152619,0.1938864 0.6106999,0.1952435 0.6012496,0.1961749 0.4279199,0.1962467 0.4279199,0.1962467 0.41799,0.1955807 0.4131196,0.1945296 0.4084464,0.1928068 0.4042995,0.1900636 0.4011555,0.1862066 0.3994901,0.1815234 0.3990799,0.1765614 0.3990799,0.1765614 0.3994813,0.171769 0.4008853,0.167172 0.4033384,0.1630504 0.4069505,0.1598657 0.4111859,0.1576153 0.4158154,0.1562869 0.4253749,0.1553674 0.4924773,0.1554391 0.4924773,-0.1065769 0.4924773,-0.1065769 0.4929085,-0.1201553 0.4929085,-0.1201553 0.4940406,-0.1232172 0.4957445,-0.1260037 0.4979104,-0.1284434 0.5004968,-0.1304407 0.5063749,-0.1332368 0.5128093,-0.1342367 0.5128093,-0.1342367 0.5183731,-0.1336235 0.5236045,-0.1316589 0.5280191,-0.1282249 0.5312733,-0.1236756 0.5312733,-0.1236756 0.5324895,-0.1201714 0.533094,-0.1165108 0.5332849,-0.1090913z" transform="matrix(1,0,0,-1,0.2410027,0.2338817)" fill="rgb(104,104,104)" fill-rule="nonzero" shaper:cutDepth="0.0000762" stroke-linecap="round" stroke-linejoin="round" /></svg>