<?xml version="1.0" encoding="utf-8"?>
<!-- Generator: Fusion 360, Shaper Origin Export Add-In, Version 1.6.10  -->
<svg xmlns="http://www.w3.org/2000/svg" xmlns:xlink="http://www.w3.org/1999/xlink" xmlns:shaper="http://www.shapertools.com/namespaces/shaper" shaper:fusionaddin="version:1.6.10" width="1.27cm" height="0.4064cm" version="1.1" x="0cm" y="0cm" viewBox="0 0 1.27 0.4064" enable-background="new 0 0 1.27 0.4064" xml:space="preserve"><path d="M0.5588,-0.2032 A0.0762,0.0762 270 0,1 0.635,-0.127 L0.635,0.127 A0.0762,0.0762 0 0,1 0.5588,0.2032 L-0.5588,0.2032 A0.0762,0.0762 90 0,1 -0.635,0.127 L-0.635,-0.127 A0.0762,0.0762 180 0,1 -0.5588,-0.2032 L0.5588,-0.2032z" transform="matrix(1,0,0,-1,0.635,0.2032)" fill="rgb(0,0,0)" shaper:cutDepth="0.0015875" stroke-linecap="round" stroke-linejoin="round" /><path d="M-0.4109491,0.1654932 L-0.4109085,0.165565 -0.4109085,0.165565 -0.4242183,0.1647203 -0.4373711,0.162518 -0.4501448,0.1586864 -0.4623675,0.153354 -0.4738049,0.1464958 -0.4843795,0.1383679 -0.4940542,0.1291907 -0.5028378,0.1191537 -0.5028378,0.1191537 -0.5120306,0.1064022 -0.5202601,0.0930092 -0.5273699,0.0789893 -0.5333545,0.0644538 -0.5381762,0.0494919 -0.5417259,0.034179 -0.5439047,0.0186111 -0.5446512,0.0029097 -0.5446512,0.0029097 -0.5439603,-0.0129469 -0.5421542,-0.0287153 -0.5390605,-0.0442822 -0.5348296,-0.0595797 -0.5293555,-0.0744771 -0.5227165,-0.0888931 -0.5148467,-0.1026762 -0.5057835,-0.1157051 -0.5057835,-0.1157051 -0.4970533,-0.126121 -0.4874852,-0.1357689 -0.4769683,-0.1443779 -0.4655233,-0.1517011 -0.4532625,-0.157563 -0.4403234,-0.1617074 -0.4269604,-0.1641775 -0.4133918,-0.1649185 -0.4133918,-0.1649185 -0.4021328,-0.164359 -0.3909925,-0.1626384 -0.3801115,-0.1596937 -0.3695891,-0.1556511 -0.3596022,-0.1504235 -0.3502484,-0.1441318 -0.3415575,-0.1369535 -0.333501,-0.1290682 -0.333501,-0.1290682 -0.3232715,-0.1171015 -0.3191769,-0.1103588 -0.3179897,-0.1066276 -0.3175515,-0.1027013 -0.3175515,-0.1027013 -0.3188396,-0.094755 -0.3205605,-0.0911059 -0.3229804,-0.0878771 -0.3260102,-0.0852129 -0.3295482,-0.0832748 -0.3334373,-0.0822 -0.3374524,-0.0817947 -0.3374524,-0.0817947 -0.3429172,-0.0822564 -0.3480607,-0.0841371 -0.3523385,-0.087563 -0.3558445,-0.091781 -0.3558445,-0.091781 -0.366722,-0.1043163 -0.3729022,-0.1098585 -0.3795823,-0.1147905 -0.3868066,-0.1188794 -0.3945586,-0.1218399 -0.4026628,-0.1236507 -0.4109491,-0.1241109 -0.4109491,-0.1241109 -0.419079,-0.1238161 -0.4271115,-0.122524 -0.4349339,-0.1202942 -0.4423951,-0.1170489 -0.4494389,-0.1129815 -0.4559806,-0.1081419 -0.4620309,-0.1027054 -0.4675623,-0.0967383 -0.4675623,-0.0967383 -0.4757059,-0.0862571 -0.4828427,-0.0750656 -0.4889795,-0.0632965 -0.4940978,-0.0510495 -0.4981755,-0.0384179 -0.5011975,-0.0254935 -0.5031088,-0.0123584 -0.5037718,0.0008981 -0.5037718,0.0008981 -0.5020469,0.0219421 -0.5002713,0.0323563 -0.4977995,0.0426233 -0.4945603,0.0526778 -0.4905737,0.062458 -0.4858309,0.0718955 -0.4803781,0.0809414 -0.4742345,0.0895323 -0.4674008,0.0975869 -0.4598455,0.1049643 -0.4515146,0.111459 -0.4424245,0.1168264 -0.4326727,0.1208813 -0.4224517,0.1235369 -0.4119549,0.1246857 -0.4119549,0.1246857 -0.4044648,0.1242192 -0.3970945,0.1228001 -0.3899689,0.1204497 -0.3832266,0.1171519 -0.3769053,0.1131062 -0.371049,0.1084128 -0.3608018,0.0974567 -0.3608018,0.0974567 -0.3563858,0.0920238 -0.3514727,0.0870339 -0.3486056,0.0850137 -0.3453956,0.083579 -0.3384582,0.0827286 -0.3384582,0.0827286 -0.3344029,0.0832099 -0.330501,0.0844135 -0.3269601,0.0864462 -0.3238762,0.089123 -0.3213545,0.0923341 -0.3195578,0.096002 -0.3184418,0.0999281 -0.3180545,0.1039945 -0.3180545,0.1039945 -0.3186377,0.1092693 -0.320673,0.1141741 -0.327035,0.122674 -0.327035,0.122674 -0.3352797,0.1316289 -0.3442168,0.1398881 -0.3538563,0.1473216 -0.3641986,0.153736 -0.3752412,0.1588532 -0.386838,0.1625399 -0.3987997,0.1647896 -0.4109491,0.1654932z" transform="matrix(1,0,0,-1,0.635,0.2032)" fill="rgb(104,104,104)" fill-rule="nonzero" shaper:cutDepth="0.0000762" stroke-linecap="round" stroke-linejoin="round" /><path d="M-0.1492205,0.1700912 L-0.1492205,0.1700912 -0.1403147,0.1696271 -0.131495,0.1683026 -0.1228299,0.1661947 -0.1143756,0.1633544 -0.1061702,0.1598609 -0.0982689,0.1557244 -0.0907262,0.1509662 -0.0835549,0.1456642 -0.0835549,0.1456642 -0.0763216,0.1390149 -0.0697818,0.1316791 -0.0638871,0.123818 -0.0586661,0.1154934 -0.0540818,0.1068014 -0.0501286,0.097805 -0.0438441,0.0791905 -0.0395085,0.0600247 -0.03671,0.0405748 -0.0352211,0.020979 -0.0348445,0.0013291 -0.0348445,0.0013291 -0.0352837,-0.0172279 -0.0366715,-0.0357342 -0.0392723,-0.0541158 -0.043322,-0.072226 -0.0490198,-0.0898938 -0.0566593,-0.1068016 -0.0612981,-0.1148499 -0.0665135,-0.1225328 -0.0785976,-0.1366118 -0.0785976,-0.1366118 -0.085901,-0.1428431 -0.0937975,-0.1483029 -0.10211,-0.1531067 -0.1108429,-0.1570935 -0.1198663,-0.1603757 -0.1291658,-0.1627534 -0.1386312,-0.164366 -0.1482147,-0.1649185 -0.1482147,-0.1649185 -0.1601986,-0.1639921 -0.171975,-0.1615744 -0.1834258,-0.15792 -0.1944338,-0.1530886 -0.2049222,-0.1472144 -0.2147856,-0.1403441 -0.2238886,-0.1324922 -0.2319851,-0.123608 -0.2319851,-0.123608 -0.2410635,-0.1091575 -0.24823,-0.0936587 -0.2537991,-0.0775254 -0.2579183,-0.0609567 -0.2608476,-0.0441386 -0.2627846,-0.0271755 -0.2638235,-0.0101362 -0.2641713,0.006933 -0.2641713,0.006933 -0.2636942,0.0242825 -0.2623297,0.0415834 -0.2597941,0.0587534 -0.2560617,0.0757025 -0.2509485,0.0922886 -0.2441268,0.1082414 -0.2354534,0.1232772 -0.2248006,0.1369711 -0.2248006,0.1369711 -0.2169812,0.144074 -0.2085257,0.1504065 -0.1995328,0.1559496 -0.1900899,0.1606861 -0.1802516,0.1645334 -0.1701137,0.1675035 -0.1597189,0.1693852 -0.1491842,0.170163 -0.1492205,0.1700912z M-0.1094188,0.112544 L-0.1094188,0.112544 -0.1181665,0.1192143 -0.1279038,0.1243328 -0.1382986,0.1278939 -0.1437011,0.1289345 -0.1491842,0.1293554 -0.1492205,0.1292837 -0.1492205,0.1292837 -0.1554828,0.1287778 -0.1616433,0.1275397 -0.1734595,0.1232941 -0.1844124,0.11715 -0.189391,0.1133164 -0.1939795,0.1090236 -0.1939795,0.1090236 -0.2024749,0.0982927 -0.2090486,0.0862741 -0.2139934,0.0735065 -0.2176645,0.0603097 -0.22032,0.0468738 -0.2220453,0.0332859 -0.2232919,0.0059272 -0.2232919,0.0059272 -0.2223742,-0.0206973 -0.2210632,-0.0339559 -0.2190328,-0.0471219 -0.2160818,-0.0601144 -0.2119145,-0.0727625 -0.2064647,-0.0849237 -0.1994396,-0.0962354 -0.1994396,-0.0962354 -0.1947744,-0.102022 -0.1895211,-0.1072787 -0.1837462,-0.1119593 -0.1774991,-0.1159841 -0.170865,-0.1193406 -0.1638665,-0.1218328 -0.1566283,-0.1235329 -0.1492205,-0.1241109 -0.1492205,-0.1241109 -0.1427376,-0.1236152 -0.1363652,-0.1223216 -0.1242235,-0.1176962 -0.1131176,-0.1109549 -0.1034557,-0.1022703 -0.1034557,-0.1022703 -0.0952476,-0.0909492 -0.0888735,-0.0784967 -0.0840999,-0.0653482 -0.0806067,-0.0518025 -0.0781958,-0.0380215 -0.0766859,-0.0241131 -0.075652,0.0038437 -0.075652,0.0038437 -0.0759088,0.018463 -0.076919,0.0330455 -0.0788419,0.0475414 -0.0817876,0.0618607 -0.0860898,0.0758334 -0.0920017,0.0891996 -0.0997106,0.1016246 -0.1094188,0.112544z" transform="matrix(1,0,0,-1,0.635,0.2032)" fill="rgb(104,104,104)" fill-rule="nonzero" shaper:cutDepth="0.0000762" stroke-linecap="round" stroke-linejoin="round" /><path d="M0.209426,0.1390545 L0.2094977,-0.0752349 0.0612965,0.151439 0.0612965,0.151439 0.0572765,0.1567565 0.0525322,0.1614261 0.0466873,0.164623 0.0400891,0.1654932 0.0400891,0.1654932 0.0343577,0.164676 0.0291142,0.1622417 0.0246957,0.1584883 0.0219125,0.1534234 0.0219125,0.1534234 0.0209853,0.1467163 0.0209067,0.1399167 0.0209784,-0.1382833 0.0209784,-0.1382833 0.0211283,-0.1466883 0.0216463,-0.1508583 0.0229183,-0.1548603 0.0229183,-0.1548603 0.0262583,-0.1591349 0.0306237,-0.1623548 0.0357111,-0.164228 0.0410949,-0.1649185 0.0410949,-0.1649185 0.0455149,-0.1645279 0.0497951,-0.1633641 0.0536733,-0.1612122 0.0568612,-0.158138 0.059116,-0.1543122 0.0606192,-0.1501415 0.061786,-0.1413535 0.061786,0.0763814 0.2094977,-0.1517937 0.2094977,-0.1517937 0.213452,-0.1569614 0.2183401,-0.1612282 0.2241812,-0.1641036 0.23062,-0.1649185 0.23062,-0.1649185 0.2349106,-0.1645853 0.2390568,-0.1634405 0.2428043,-0.1613352 0.2457931,-0.1582424 0.2478893,-0.1544891 0.2492074,-0.1503894 0.2502335,-0.1418565 0.2503053,0.1409309 0.2503053,0.1409309 0.2495341,0.1500832 0.2483343,0.1545261 0.2462872,0.1586396 0.2431682,0.1620097 0.2391783,0.1642848 0.2347142,0.1653744 0.2301171,0.1654932 0.2301171,0.1654932 0.2252482,0.1652357 0.2205133,0.164083 0.2162832,0.1616781 0.2131028,0.1579912 0.2111246,0.1535409 0.210063,0.1487789 0.209426,0.1390545z" transform="matrix(1,0,0,-1,0.635,0.2032)" fill="rgb(104,104,104)" fill-rule="nonzero" shaper:cutDepth="0.0000762" stroke-linecap="round" stroke-linejoin="round" /><path d="M0.4342266,-0.139773 L0.4342266,0.1247574 0.5007704,0.1247574 0.5007704,0.1247574 0.5103425,0.1253614 0.5150248,0.1264404 0.519441,0.1283087 0.5232924,0.131176 0.5260998,0.135054 0.5276747,0.1395871 0.5280552,0.144371 0.5280552,0.144371 0.5276628,0.1491105 0.5262916,0.1536606 0.5239055,0.1577642 0.5203912,0.1609688 0.5162035,0.1632047 0.5116415,0.1645618 0.5021912,0.1654932 0.3288616,0.165565 0.3288616,0.165565 0.3189317,0.164899 0.3140613,0.1638479 0.3093881,0.1621251 0.3052412,0.1593819 0.3020972,0.1555249 0.3004317,0.1508417 0.3000216,0.1458797 0.3000216,0.1458797 0.3004229,0.1410873 0.301827,0.1364903 0.3042801,0.1323687 0.3078922,0.129184 0.3121276,0.1269336 0.316757,0.1256052 0.3263165,0.1246857 0.393419,0.1247574 0.393419,-0.1372586 0.393419,-0.1372586 0.3938501,-0.150837 0.3938501,-0.150837 0.3949822,-0.1538989 0.3966862,-0.1566854 0.3988521,-0.1591251 0.4014384,-0.1611224 0.4073165,-0.1639185 0.413751,-0.1649185 0.413751,-0.1649185 0.4193148,-0.1643052 0.4245462,-0.1623407 0.4289608,-0.1589066 0.432215,-0.1543573 0.432215,-0.1543573 0.4334312,-0.1508531 0.4340357,-0.1471926 0.4342266,-0.139773z" transform="matrix(1,0,0,-1,0.635,0.2032)" fill="rgb(104,104,104)" fill-rule="nonzero" shaper:cutDepth="0.0000762" stroke-linecap="round" stroke-linejoin="round" /></svg>