<?xml version="1.0" encoding="utf-8"?>
<!-- Generator: Fusion 360, Shaper Origin Export Add-In, Version 1.6.10  -->
<svg xmlns="http://www.w3.org/2000/svg" xmlns:xlink="http://www.w3.org/1999/xlink" xmlns:shaper="http://www.shapertools.com/namespaces/shaper" shaper:fusionaddin="version:1.6.10" width="0.9652cm" height="0.4064cm" version="1.1" x="0cm" y="0cm" viewBox="0 0 0.9652 0.4064" enable-background="new 0 0 0.9652 0.4064" xml:space="preserve"><path d="M0.2062939,-0.0979751 A0.0762,0.0762 270 0,1 0.2824939,-0.0217751 L0.2824939,0.2322249 A0.0762,0.0762 0 0,1 0.2062939,0.3084249 L-0.6065061,0.3084249 A0.0762,0.0762 90 0,1 -0.6827061,0.2322249 L-0.6827061,-0.0217751 A0.0762,0.0762 180 0,1 -0.6065061,-0.0979751 L0.2062939,-0.0979751z" transform="matrix(1,0,0,-1,0.6827061,0.3084249)" fill="rgb(0,0,0)" shaper:cutDepth="0.0015875" stroke-linecap="round" stroke-linejoin="round" /><path d="M-0.4825642,0.2707899 L-0.5145673,0.2692317 -0.5145673,0.2692317 -0.5311748,0.2669596 -0.5393049,0.2649004 -0.547224,0.2621421 -0.5548296,0.258609 -0.5620207,0.2542962 -0.5687928,0.2493491 -0.5750257,0.2437399 -0.5807046,0.2375689 -0.5857176,0.2308466 -0.5900131,0.2236446 -0.5935671,0.2160494 -0.5962686,0.2081101 -0.5982465,0.1999613 -0.599388,0.191653 -0.5999193,0.1832837 -0.5999193,0.1832837 -0.5992236,0.1729953 -0.5974125,0.162844 -0.5943851,0.1529866 -0.5902826,0.1435259 -0.5850996,0.1346111 -0.5788823,0.1263856 -0.5716706,0.1190146 -0.5634942,0.1127327 -0.5634942,0.1127327 -0.5548078,0.1075654 -0.5455134,0.1035836 -0.5358408,0.1006462 -0.5259915,0.0983638 -0.4725654,0.0869813 -0.4725654,0.0869813 -0.463045,0.0847853 -0.4538599,0.0814804 -0.4538599,0.0814804 -0.4476361,0.0776642 -0.4419754,0.0730546 -0.4371159,0.0676053 -0.432966,0.0615995 -0.4296833,0.0550775 -0.427213,0.0482075 -0.4257441,0.0410562 -0.4251941,0.0337758 -0.4251941,0.0337758 -0.4259178,0.0251585 -0.4279461,0.0167554 -0.4312303,0.0087552 -0.4357646,0.0013946 -0.4413718,-0.0051893 -0.4480041,-0.0107328 -0.4555287,-0.0149922 -0.4637026,-0.0178083 -0.4637026,-0.0178083 -0.4740481,-0.0191875 -0.4844656,-0.01982 -0.5140732,-0.0197867 -0.5140732,-0.0197867 -0.5243101,-0.0195134 -0.5343973,-0.0178083 -0.5343973,-0.0178083 -0.5412787,-0.0149788 -0.5476215,-0.0110891 -0.5532452,-0.006217 -0.5581513,-0.0006225 -0.5622669,0.0055769 -0.5654259,0.0123133 -0.5674086,0.0194848 -0.5682359,0.0268788 -0.5682359,0.0268788 -0.5678049,0.0313331 -0.567739,0.0353354 -0.567739,0.0353354 -0.5690618,0.0431002 -0.5706946,0.0466896 -0.5730165,0.0498794 -0.5759308,0.052536 -0.5793041,0.0545798 -0.5830656,0.0557658 -0.5869873,0.0561912 -0.5869873,0.0561912 -0.5919675,0.0555632 -0.596665,0.0537902 -0.6007493,0.050881 -0.6039609,0.0470205 -0.6063434,0.0426002 -0.6079609,0.0378466 -0.6091153,0.0278846 -0.6091153,0.0278846 -0.6080705,0.0151093 -0.6052344,0.0026105 -0.600685,-0.0093725 -0.5944725,-0.0205836 -0.5867841,-0.0308398 -0.5776404,-0.0398205 -0.5672715,-0.0473546 -0.5558787,-0.0532275 -0.5558787,-0.0532275 -0.545783,-0.0560907 -0.5354822,-0.0581042 -0.5250557,-0.0592933 -0.5145683,-0.0596935 -0.4822643,-0.0596935 -0.4822643,-0.0596935 -0.4728326,-0.0591477 -0.4634563,-0.0580025 -0.4541897,-0.0561588 -0.4451315,-0.0534787 -0.4363776,-0.0499285 -0.4279858,-0.0455888 -0.4201105,-0.0403735 -0.4128388,-0.0343432 -0.4062245,-0.0275986 -0.4003733,-0.0201828 -0.3954167,-0.0121414 -0.3914355,-0.0035748 -0.3883647,0.0053581 -0.3862112,0.014557 -0.3848968,0.023911 -0.3843865,0.0333448 -0.3843865,0.0333448 -0.3847811,0.0416465 -0.3857788,0.0498973 -0.3874547,0.0580371 -0.3897423,0.0660277 -0.3928454,0.0737365 -0.3965571,0.0811725 -0.4010088,0.0881905 -0.4060467,0.0947998 -0.4116598,0.1009291 -0.4177677,0.1065641 -0.4243932,0.1115821 -0.4314298,0.1160032 -0.4388208,0.1198049 -0.4464771,0.1230372 -0.4624094,0.1277481 -0.5160566,0.1387804 -0.5160566,0.1387804 -0.5248536,0.1406684 -0.5334633,0.1432665 -0.5334633,0.1432665 -0.5390704,0.1463031 -0.54417,0.1501314 -0.5485874,0.1547298 -0.5522998,0.1599149 -0.5552216,0.1655826 -0.5573044,0.1716108 -0.5585882,0.1778558 -0.5590399,0.1842177 -0.5590399,0.1842177 -0.5581662,0.1932924 -0.5556179,0.2020416 -0.5513228,0.2100779 -0.5452823,0.216906 -0.5380144,0.2223993 -0.5297681,0.226292 -0.5209689,0.2286567 -0.5119101,0.2296951 -0.4870336,0.2302094 -0.4845506,0.2302094 -0.4845506,0.2302094 -0.4755948,0.2296567 -0.4668183,0.2278144 -0.4584805,0.224505 -0.4510036,0.2195553 -0.4448003,0.2130771 -0.4399041,0.2055624 -0.4363956,0.1973069 -0.4339591,0.188672 -0.4339591,0.188672 -0.4313895,0.1820014 -0.4271986,0.1762319 -0.4243697,0.1740467 -0.4211365,0.1725178 -0.4176345,0.1717937 -0.4140582,0.1717168 -0.4140582,0.1717168 -0.4099391,0.1721141 -0.4059638,0.1732578 -0.4023271,0.1752293 -0.3992127,0.177953 -0.3967462,0.1812727 -0.3950678,0.1850562 -0.3940941,0.1890758 -0.3937263,0.1931982 -0.3937263,0.1931982 -0.3947547,0.2023078 -0.3972995,0.2111292 -0.4008041,0.2196023 -0.4051495,0.2276834 -0.4051495,0.2276834 -0.4114343,0.2370226 -0.4188152,0.2455194 -0.4272739,0.2529462 -0.4366371,0.2591931 -0.4467281,0.2641798 -0.4573728,0.2678369 -0.4684192,0.2699967 -0.479652,0.2707181 -0.4825642,0.2707899z" transform="matrix(1,0,0,-1,0.6827061,0.3084249)" fill="rgb(104,104,104)" fill-rule="nonzero" shaper:cutDepth="0.0000762" stroke-linecap="round" stroke-linejoin="round" /><path d="M-0.1493122,0.2566367 L-0.221042,0.1213253 -0.2918537,0.2546328 -0.2918537,0.2546328 -0.2956768,0.2607338 -0.3005444,0.266026 -0.3034481,0.2681449 -0.3066731,0.2697526 -0.3101659,0.2706026 -0.3137636,0.2707181 -0.3137636,0.2707181 -0.3177561,0.270329 -0.3216318,0.2693019 -0.3252678,0.2676083 -0.328499,0.2652327 -0.3312196,0.2622867 -0.3333616,0.2588964 -0.3346071,0.2550847 -0.3351014,0.2511047 -0.3351014,0.2511047 -0.3348744,0.2477355 -0.3336772,0.2445787 -0.330647,0.2385319 -0.329595,0.2365911 -0.241201,0.0712098 -0.241201,-0.0365387 -0.241201,-0.0365387 -0.2403671,-0.0454323 -0.2389446,-0.0496669 -0.2366826,-0.0535269 -0.23342,-0.0565721 -0.2294133,-0.0585498 -0.2250501,-0.059518 -0.2205817,-0.0596935 -0.2205817,-0.0596935 -0.215309,-0.0593519 -0.2102439,-0.0578961 -0.2056946,-0.0551828 -0.2024051,-0.0510722 -0.2024051,-0.0510722 -0.2011622,-0.0472048 -0.2005889,-0.0431788 -0.2003934,-0.0350509 -0.2003934,0.0712098 -0.1144825,0.2345865 -0.1134893,0.23609 -0.1134893,0.23609 -0.1110192,0.2405436 -0.1110192,0.2405436 -0.1084991,0.2458378 -0.1075707,0.2516076 -0.1075707,0.2516076 -0.1079896,0.2555726 -0.1092787,0.2593444 -0.1113256,0.2627611 -0.1141376,0.2655917 -0.1174055,0.267869 -0.1210663,0.2694557 -0.1249307,0.2704219 -0.1289084,0.2707181 -0.1289084,0.2707181 -0.1354419,0.270059 -0.138472,0.2687654 -0.1412408,0.2669302 -0.1458135,0.2622183 -0.1493122,0.2566367z" transform="matrix(1,0,0,-1,0.6827061,0.3084249)" fill="rgb(104,104,104)" fill-rule="nonzero" shaper:cutDepth="0.0000762" stroke-linecap="round" stroke-linejoin="round" /><path d="M0.1561695,0.2576425 L0.0711744,0.1147906 -0.0138185,0.2558237 -0.0138185,0.2558237 -0.0170529,0.2609073 -0.0208297,0.2655942 -0.0231966,0.2674728 -0.0258984,0.2688353 -0.0318468,0.2697123 -0.0318468,0.2697123 -0.0366345,0.2694586 -0.0412687,0.2682427 -0.0454139,0.2658492 -0.0486372,0.2623045 -0.0507876,0.2580267 -0.0520444,0.2533952 -0.0527535,0.2438484 -0.0526817,-0.0326982 -0.0526817,-0.0326982 -0.0521081,-0.0423375 -0.0510036,-0.0470394 -0.0491152,-0.0514891 -0.046203,-0.0553335 -0.0422231,-0.0580567 -0.0376055,-0.0594657 -0.0327808,-0.0596935 -0.0327808,-0.0596935 -0.0270688,-0.0589275 -0.0217063,-0.0568479 -0.0170589,-0.0534233 -0.0138858,-0.0486295 -0.0138858,-0.0486295 -0.0121047,-0.0413081 -0.0118741,-0.0337578 -0.0118741,0.1723957 0.0497907,0.0691038 0.0497907,0.0691038 0.0534462,0.0633385 0.0579337,0.0581976 0.0607144,0.0562097 0.0638899,0.0549112 0.0706749,0.0541796 0.0706749,0.0541796 0.0745071,0.0542796 0.0782686,0.0550205 0.0817634,0.0565827 0.0846866,0.0590569 0.0894154,0.0650915 0.0935214,0.0715659 0.1542296,0.1723957 0.1542296,-0.0346846 0.1542296,-0.0346846 0.1544024,-0.0422208 0.1556666,-0.0496353 0.1556666,-0.0496353 0.1591348,-0.0541003 0.1638656,-0.0572205 0.1692237,-0.0590149 0.174849,-0.0596935 0.174849,-0.0596935 0.1791187,-0.0593733 0.1832575,-0.058284 0.1870176,-0.056241 0.1901147,-0.0532946 0.1923221,-0.0496238 0.1937959,-0.045607 0.1949654,-0.0371344 0.1950372,0.2491947 0.1950372,0.2491947 0.1944079,0.257571 0.193203,0.2615935 0.1910917,0.2652279 0.1879847,0.2680465 0.1841839,0.2698315 0.1800568,0.2706184 0.1758549,0.2707181 0.1758549,0.2707181 0.1696303,0.2701133 0.1667035,0.2689819 0.1640473,0.2673043 0.1597369,0.2627797 0.1561695,0.2576425z" transform="matrix(1,0,0,-1,0.6827061,0.3084249)" fill="rgb(104,104,104)" fill-rule="nonzero" shaper:cutDepth="0.0000762" stroke-linecap="round" stroke-linejoin="round" /></svg>