<?xml version="1.0" encoding="utf-8"?>
<!-- Generator: Fusion 360, Shaper Origin Export Add-In, Version 1.6.10  -->
<svg xmlns="http://www.w3.org/2000/svg" xmlns:xlink="http://www.w3.org/1999/xlink" xmlns:shaper="http://www.shapertools.com/namespaces/shaper" shaper:fusionaddin="version:1.6.10" width="19.52625cm" height="4.4958cm" version="1.1" x="0cm" y="0cm" viewBox="0 0 19.52625 4.4958" enable-background="new 0 0 19.52625 4.4958" xml:space="preserve"><path d="M-9.763125,3.9878 L-9.763125,-0.508 9.763125,-0.508 9.763125,3.9878 8.556625,3.9878 4.445,0.508 -4.445,0.508 -8.556625,3.9878 -9.763125,3.9878z" transform="matrix(1,0,0,-1,9.763125,3.9878)" fill="rgb(0,0,0)" shaper:cutDepth="0.0015875" stroke-linecap="round" stroke-linejoin="round" /><path d="M8.6476597,-0.0057476 L8.8493981,-0.0057476 8.8493981,-0.1417156 8.8493981,-0.1417156 8.850428,-0.1524442 8.8519111,-0.1576298 8.8543371,-0.1624417 8.857816,-0.1665654 8.8624097,-0.1693619 8.8675718,-0.1709189 8.8729528,-0.1712769 8.8729528,-0.1712769 8.8799216,-0.170269 8.8863237,-0.1673859 8.8891153,-0.1651981 8.8914451,-0.1625687 8.89466,-0.1563127 8.89466,-0.1563127 8.8958867,-0.1484252 8.8959532,-0.1404249 8.8959533,0.2244993 8.8959533,0.2244993 8.8951546,0.2353058 8.8937354,0.2405403 8.8913177,0.245393 8.8876983,0.2494233 8.882989,0.2520948 8.8777235,0.2533805 8.8723062,0.2536305 8.8723062,0.2536305 8.8669565,0.2533668 8.8617783,0.2520073 8.8571959,0.2492542 8.8537415,0.2451667 8.8514908,0.2403093 8.8501708,0.2351149 8.8493981,0.2244412 8.8493981,0.0408074 8.6476597,0.0408074 8.6476597,0.2219212 8.6476597,0.2219212 8.6476146,0.2300311 8.6472885,0.2340742 8.6463663,0.2380198 8.6463663,0.2380198 8.643478,0.2446171 8.6412109,0.2474229 8.6383971,0.2497145 8.6352069,0.2514196 8.6317861,0.2525546 8.6246591,0.2536305 8.6246591,0.2536305 8.6190094,0.253285 8.6135387,0.2518444 8.6086835,0.2489537 8.6051275,0.2445684 8.6029946,0.2393254 8.6017901,0.2337927 8.6011044,0.2225014 8.6011045,-0.1417156 8.6011045,-0.1417156 8.601871,-0.1524464 8.6031926,-0.1576709 8.6054627,-0.1625479 8.6089029,-0.1666887 8.6134566,-0.1695408 8.6186344,-0.1710101 8.6240125,-0.1712769 8.6240125,-0.1712769 8.6290828,-0.1707732 8.6339808,-0.1693781 8.6384535,-0.1669416 8.6422486,-0.1635446 8.6451455,-0.1593549 8.6470219,-0.1546192 8.6477858,-0.1495841 8.6476595,-0.1444892 8.6476597,-0.1431113 8.6476597,-0.0057476z" transform="matrix(1,0,0,-1,9.763125,3.9878)" fill="rgb(104,104,104)" fill-rule="nonzero" shaper:cutDepth="0.0000762" stroke-linecap="round" stroke-linejoin="round" /><path d="M8.4135909,-0.1712769 L8.4135909,-0.1712769 8.3987615,-0.1707848 8.3840338,-0.1689959 8.3695554,-0.1657514 8.3554879,-0.1610385 8.3419889,-0.1548817 8.3292853,-0.1472179 8.3174168,-0.1383156 8.3065328,-0.1282319 8.3065328,-0.1282319 8.2913697,-0.1111759 8.2845556,-0.1020217 8.2783013,-0.092463 8.2725653,-0.0825917 8.2674217,-0.0724053 8.2629152,-0.0619168 8.2590192,-0.0511839 8.2557183,-0.040256 8.2530149,-0.0291685 8.2491497,-0.0066703 8.2470249,0.0160506 8.2463991,0.0388676 8.2463991,0.0388676 8.2465873,0.0553361 8.2474022,0.0717847 8.249055,0.0881713 8.2517101,0.1044246 8.2556424,0.1204167 8.2609119,0.1360185 8.2672506,0.1512192 8.2747571,0.1658779 8.2747571,0.1658779 8.2857587,0.1844585 8.2985094,0.2018836 8.3056836,0.209953 8.3133777,0.2175323 8.3215659,0.2245717 8.3303039,0.2309173 8.3395683,0.2364638 8.349236,0.2412762 8.3592663,0.2452756 8.3695742,0.2484946 8.3801105,0.2508605 8.390797,0.2524179 8.4015523,0.2533816 8.4123488,0.2536305 8.502452,0.2536305 8.502452,0.2536305 8.5100109,0.2533916 8.5174833,0.2522167 8.5244749,0.2493592 8.5275739,0.2471632 8.5301343,0.2443883 8.5333968,0.2375681 8.534984,0.2301753 8.5354927,0.222631 8.5353362,0.2150684 8.5353361,-0.138208 8.5353361,-0.138208 8.5352367,-0.1451239 8.5340817,-0.1519399 8.5314144,-0.1583161 8.5271476,-0.163749 8.5214629,-0.167673 8.5149452,-0.1699845 8.5081111,-0.1710294 8.5011993,-0.1712768 8.4135909,-0.1712769z M8.4828693,-0.1188099 L8.4828693,0.2011637 8.4122977,0.2011637 8.4122977,0.2011637 8.3957098,0.2004663 8.3874948,0.1992974 8.3793947,0.1974616 8.3715594,0.1947338 8.3641051,0.1910783 8.3572016,0.1864706 8.3507785,0.1812115 8.3507785,0.1812115 8.3419132,0.1727984 8.3338354,0.163625 8.3265976,0.1537774 8.3202113,0.1433546 8.3145896,0.1325033 8.3098553,0.1212332 8.3058048,0.1097026 8.3026532,0.0978927 8.3026532,0.0978927 8.3000564,0.0863912 8.2990179,0.0746466 8.2988659,0.0510605 8.2988659,0.0510605 8.2992674,0.0054754 8.2999749,-0.0058995 8.3018957,-0.0171281 8.3050272,-0.0280889 8.3091191,-0.0387242 8.3091191,-0.0387242 8.3140437,-0.0497436 8.3196925,-0.0604085 8.3261173,-0.0706265 8.3332982,-0.0803271 8.3412652,-0.0893937 8.3499957,-0.0977242 8.3595392,-0.1051166 8.3699917,-0.1111432 8.3699917,-0.1111432 8.379837,-0.1154036 8.390288,-0.1178051 8.4009801,-0.1186865 8.4117077,-0.1188099 8.4828693,-0.1188099z" transform="matrix(1,0,0,-1,9.763125,3.9878)" fill="rgb(104,104,104)" fill-rule="nonzero" shaper:cutDepth="0.0000762" stroke-linecap="round" stroke-linejoin="round" /><path d="M7.9904386,0.0644544 L7.9441608,0.0644545 7.9441608,0.1308713 7.9441608,0.1308713 7.9443851,0.1404516 7.9453191,0.1499842 7.9474551,0.1593261 7.9510885,0.1681872 7.9510885,0.1681872 7.9558052,0.1757125 7.9616265,0.1824214 7.9683511,0.1882193 7.97589,0.1929196 7.9839719,0.1965965 7.9924956,0.199103 8.0012485,0.2005998 8.0101137,0.2011637 8.0101137,0.2011637 8.0205256,0.2006871 8.0308156,0.1990263 8.0408205,0.1961091 8.0503723,0.1919355 8.0593609,0.1866628 8.067691,0.1803935 8.0753981,0.1733792 8.0824403,0.1656932 8.0824403,0.1656932 8.0926421,0.1521631 8.101674,0.1378252 8.1093211,0.1227033 8.1157562,0.107027 8.1209815,0.0909068 8.1248134,0.0744009 8.1272965,0.0576377 8.128164,0.040715 8.128164,0.040715 8.1276252,0.0273516 8.1261043,0.0140644 8.1235677,0.000933 8.1200702,-0.0119757 8.1156197,-0.0245875 8.110222,-0.0368239 8.103755,-0.0485304 8.0963883,-0.0596925 8.0963883,-0.0596925 8.0889973,-0.0711587 8.0808062,-0.082063 8.0716146,-0.0921442 8.0613657,-0.1011444 8.0499701,-0.1086367 8.0375507,-0.1142666 8.0310282,-0.1162914 8.0243516,-0.1177043 8.0107603,-0.11881 8.0107603,-0.11881 8.0005521,-0.1181313 7.9905628,-0.1159018 7.981052,-0.1121443 7.9722651,-0.1068971 7.9642034,-0.1005965 7.9567557,-0.0935737 7.9498886,-0.0859898 7.9435141,-0.077982 7.9435141,-0.077982 7.9382741,-0.0713704 7.9325105,-0.0652159 7.929227,-0.0625663 7.9255384,-0.0604671 7.9215065,-0.0593237 7.9172807,-0.0589535 7.9172807,-0.0589535 7.9119031,-0.059743 7.9068423,-0.0617309 7.9023165,-0.0647378 7.8984874,-0.068599 7.8953541,-0.073043 7.8929803,-0.0779328 7.8916244,-0.0831983 7.8910472,-0.0886047 7.8910472,-0.0886047 7.8914994,-0.093594 7.8925666,-0.0984624 7.8944557,-0.1031058 7.8969195,-0.1074575 7.9027422,-0.1155772 7.909152,-0.1232438 7.909152,-0.1232438 7.9196939,-0.1334403 7.9309861,-0.1427945 7.9430732,-0.1511027 7.9559336,-0.1581466 7.9694453,-0.1638502 7.9835156,-0.1679753 7.997965,-0.170485 8.0126077,-0.1712769 8.0126077,-0.1712769 8.0233613,-0.1708043 8.0340354,-0.1694143 8.0445853,-0.1672783 8.0549325,-0.1643109 8.0650478,-0.16063 8.0748671,-0.1562203 8.084273,-0.1509863 8.0932477,-0.1450434 8.0932477,-0.1450434 8.103441,-0.1364655 8.1130618,-0.1272495 8.1220868,-0.11745 8.1304806,-0.1071042 8.1382239,-0.0962633 8.1453137,-0.0849837 8.1517804,-0.073336 8.1576113,-0.0613569 8.1628086,-0.04909 8.1673762,-0.0365747 8.1713517,-0.0238592 8.1746021,-0.0109392 8.1771287,0.0021417 8.1790247,0.0153286 8.1801838,0.0286007 8.1806309,0.0419158 8.1806309,0.0419158 8.1796992,0.0619677 8.1771869,0.0818835 8.1730927,0.1015351 8.1674248,0.120792 8.1602147,0.1395262 8.1516247,0.157669 8.1414847,0.1749931 8.1300115,0.1914647 8.1300115,0.1914647 8.11902,0.2045407 8.1069152,0.2165868 8.093672,0.2273763 8.0793417,0.236669 8.063947,0.2440615 8.0477366,0.249438 8.0393955,0.2513011 8.030947,0.2525678 8.0139009,0.2536305 8.0139009,0.2536305 7.998363,0.2526751 7.9830426,0.2499278 7.9681003,0.2455595 7.9537373,0.2395605 7.9400951,0.2320614 7.9274163,0.2230334 7.9159853,0.2124665 7.9060114,0.2005171 7.9060114,0.2005171 7.8991267,0.1883951 7.8964873,0.1819414 7.8944509,0.1752622 7.8922364,0.1615109 7.8916938,0.1475884 7.8916939,0.0475906 7.8916939,0.0475906 7.8917669,0.0402523 7.8925545,0.0329558 7.8946219,0.0259193 7.8962985,0.0226423 7.8984981,0.0196999 7.9012563,0.0172783 7.9044149,0.0153851 7.911344,0.0129879 7.9186254,0.012068 7.9259635,0.0119875 7.9879372,0.0119875 7.9879372,0.0119875 7.9985419,0.0121615 8.0038113,0.0127696 8.0088205,0.0144816 8.0088205,0.0144816 8.0154979,0.0182428 8.018348,0.0207899 8.0207777,0.023789 8.0227696,0.0270994 8.0241938,0.0306507 8.0253549,0.038221 8.0253549,0.038221 8.0244999,0.0445548 8.0224062,0.0505918 8.0186888,0.0557877 8.0139009,0.0600205 8.0139009,0.0600205 8.0085968,0.0629547 8.0026014,0.0640341 7.9904386,0.0644544z" transform="matrix(1,0,0,-1,9.763125,3.9878)" fill="rgb(104,104,104)" fill-rule="nonzero" shaper:cutDepth="0.0000762" stroke-linecap="round" stroke-linejoin="round" /><path d="M-8.7430295,-0.1712768 L-8.7018826,-0.1692734 -8.7018826,-0.1692734 -8.6911547,-0.1682549 -8.6805374,-0.1664258 -8.670089,-0.1637814 -8.6599479,-0.1601476 -8.650148,-0.1556615 -8.6409057,-0.1501276 -8.632209,-0.1437633 -8.6242039,-0.1365522 -8.6169108,-0.1286197 -8.6104734,-0.1199794 -8.6049573,-0.1107236 -8.6003937,-0.1009631 -8.5969247,-0.0907612 -8.5943849,-0.0802903 -8.5929193,-0.0696149 -8.5922368,-0.0588611 -8.5922368,-0.0588611 -8.5931312,-0.0456332 -8.5954598,-0.0325815 -8.5993522,-0.0199078 -8.6046268,-0.007744 -8.6112906,0.0037179 -8.6192842,0.0142935 -8.6285564,0.0237706 -8.639069,0.0318473 -8.639069,0.0318473 -8.6501802,0.038591 -8.6621851,0.0436139 -8.6745886,0.0475005 -8.6872867,0.0503216 -8.755885,0.0650486 -8.755885,0.0650486 -8.7681607,0.067844 -8.7800274,0.0720288 -8.7800274,0.0720288 -8.7880261,0.0769357 -8.7952221,0.0829601 -8.8015672,0.0898731 -8.8068946,0.097599 -8.8111145,0.1059816 -8.8142889,0.1148128 -8.8161765,0.1240051 -8.8168835,0.1333633 -8.8168835,0.1333633 -8.8158608,0.1444308 -8.8133413,0.1552552 -8.8090472,0.1655055 -8.8032773,0.1750056 -8.7960753,0.1834699 -8.7875628,0.1906132 -8.7778795,0.1960666 -8.7673725,0.1996858 -8.7673725,0.1996858 -8.7540708,0.2014593 -8.7406772,0.2022721 -8.7025179,0.2023218 -8.7025179,0.2023218 -8.6894021,0.2018796 -8.6828806,0.2011244 -8.6764793,0.1996858 -8.6764793,0.1996858 -8.667629,0.1960465 -8.6594718,0.1910431 -8.6522399,0.1847762 -8.6459312,0.17758 -8.6406387,0.169606 -8.6365819,0.16094 -8.6339461,0.1517399 -8.6328801,0.1422309 -8.6328801,0.1422309 -8.6335267,0.1365039 -8.633519,0.1314505 -8.633519,0.1314505 -8.6330644,0.1263895 -8.6319035,0.121445 -8.6298326,0.1168051 -8.6268547,0.1126904 -8.6231071,0.1092611 -8.6187455,0.1066586 -8.6139141,0.1050918 -8.6088636,0.1045435 -8.6088636,0.1045435 -8.6024604,0.1053509 -8.5964208,0.1076305 -8.5911695,0.1113709 -8.5870404,0.1163343 -8.5839772,0.1220177 -8.5818975,0.1281294 -8.5808074,0.1344923 -8.5804133,0.1409377 -8.5804133,0.1409377 -8.5817461,0.1573732 -8.5832166,0.1654857 -8.5853218,0.1734683 -8.5912204,0.1888659 -8.5992482,0.2032682 -8.6091427,0.2164586 -8.6147789,0.2224806 -8.6208582,0.2280603 -8.6273551,0.2331539 -8.6342411,0.2376909 -8.6488603,0.2453171 -8.6488603,0.2453171 -8.6618382,0.2489924 -8.6750962,0.2514913 -8.6884972,0.2530266 -8.7019737,0.2536305 -8.7434151,0.2536305 -8.7434151,0.2536305 -8.7555491,0.2529334 -8.7676155,0.2514784 -8.7795182,0.2490258 -8.7911862,0.2456155 -8.8024376,0.2410303 -8.8132305,0.2354367 -8.8233679,0.2287374 -8.8327268,0.2209834 -8.8412399,0.2123103 -8.8487721,0.202773 -8.8551525,0.19243 -8.8603087,0.1814254 -8.864227,0.1699214 -8.8670021,0.1580883 -8.8686934,0.1460541 -8.8693503,0.1339175 -8.8693503,0.1339175 -8.868843,0.123244 -8.8675598,0.1126362 -8.8654073,0.1021702 -8.8624356,0.0919061 -8.8584731,0.0819836 -8.8537015,0.0724231 -8.8479778,0.0634001 -8.8415005,0.0549028 -8.8342837,0.0470224 -8.8264308,0.0397777 -8.8179123,0.0333261 -8.8088654,0.027642 -8.7993628,0.0227543 -8.7895192,0.0185985 -8.7793709,0.0152533 -8.7690352,0.0125418 -8.6999678,-0.0015502 -8.6999678,-0.0015502 -8.6887107,-0.0040618 -8.6776801,-0.0074104 -8.6776801,-0.0074104 -8.6704431,-0.0112755 -8.6639091,-0.0162393 -8.6581778,-0.0221074 -8.6534633,-0.0288248 -8.6496944,-0.0361121 -8.6469351,-0.0438402 -8.6452859,-0.0518765 -8.6447036,-0.060062 -8.6447036,-0.060062 -8.6458284,-0.0717346 -8.6471588,-0.0774437 -8.6491071,-0.0829887 -8.6516201,-0.0882996 -8.6547045,-0.0932875 -8.6583529,-0.0978806 -8.6624673,-0.1020756 -8.6669609,-0.1058559 -8.6718151,-0.109144 -8.6824207,-0.1141538 -8.6937391,-0.1171969 -8.7053915,-0.1185329 -8.7372831,-0.1191018 -8.7404755,-0.1191018 -8.7404755,-0.1191018 -8.7520057,-0.1184887 -8.7633001,-0.1161345 -8.7740355,-0.1118894 -8.7790037,-0.1089461 -8.783622,-0.1054688 -8.7916625,-0.0971925 -8.7979607,-0.0875197 -8.8024791,-0.0769 -8.8056142,-0.065789 -8.8056142,-0.065789 -8.8089179,-0.0572125 -8.8113067,-0.0532821 -8.8143062,-0.0497945 -8.8179434,-0.046985 -8.8221003,-0.0450193 -8.8266029,-0.0440883 -8.831201,-0.0439894 -8.831201,-0.0439894 -8.836497,-0.0445003 -8.841608,-0.0459708 -8.8462838,-0.0485054 -8.8502881,-0.0520074 -8.8534593,-0.0562756 -8.8556173,-0.06114 -8.8568691,-0.0663082 -8.857342,-0.0716084 -8.857342,-0.0716084 -8.8560047,-0.0833184 -8.8527492,-0.0946642 -8.8482414,-0.105557 -8.842655,-0.1159465 -8.842655,-0.1159465 -8.8345755,-0.1279529 -8.8250868,-0.1388764 -8.8142128,-0.1484249 -8.8021757,-0.1564551 -8.7892045,-0.1628709 -8.775491,-0.1674855 -8.7613068,-0.1703494 -8.7468661,-0.1712769 -8.7430295,-0.1712768z" transform="matrix(1,0,0,-1,9.763125,3.9878)" fill="rgb(104,104,104)" fill-rule="nonzero" shaper:cutDepth="0.0000762" stroke-linecap="round" stroke-linejoin="round" /><path d="M-8.5071629,0.2058746 L-8.5071629,0.2058746 -8.509657,0.2090152 -8.509657,0.2090152 -8.512482,0.2127869 -8.5147637,0.2169085 -8.5161397,0.2214149 -8.5165848,0.2261039 -8.5165848,0.2261039 -8.5160616,0.2312109 -8.5144938,0.236097 -8.51196,0.2405597 -8.50854,0.2443874 -8.5044291,0.2474588 -8.4997826,0.2496417 -8.4948163,0.2509311 -8.4897048,0.2514136 -8.4897048,0.2514136 -8.4822892,0.2506817 -8.4787315,0.2495175 -8.4755115,0.2476442 -8.4699924,0.2426451 -8.465301,0.2368565 -8.346527,0.076278 -8.2899983,0.076278 -8.2899983,0.2190837 -8.2899983,0.2190837 -8.2891395,0.2314711 -8.2876998,0.2375083 -8.2852494,0.2432236 -8.2814346,0.2481034 -8.2762839,0.2515641 -8.2703373,0.2533382 -8.2641344,0.2536305 -8.2641344,0.2536305 -8.2554741,0.2523947 -8.2513858,0.2508099 -8.2476011,0.2485995 -8.2442119,0.245816 -8.2414661,0.2424019 -8.2393998,0.2385349 -8.2381781,0.2343249 -8.2381781,0.2343249 -8.237547,0.2254934 -8.2375314,0.2166272 -8.2375315,-0.1345131 -8.2375315,-0.1345131 -8.2375502,-0.1423472 -8.2386956,-0.1500942 -8.2415893,-0.1573681 -8.2437906,-0.1606177 -8.2464849,-0.1634691 -8.2530566,-0.1677162 -8.2604997,-0.170163 -8.2682578,-0.171212 -8.2760935,-0.1712768 -8.3842169,-0.1712769 -8.3842169,-0.1712769 -8.3967269,-0.170669 -8.4091634,-0.1692144 -8.4214723,-0.1668881 -8.4335105,-0.1634451 -8.445163,-0.1588532 -8.4563116,-0.1531501 -8.466801,-0.1463085 -8.4764902,-0.1383758 -8.4853326,-0.129507 -8.4931576,-0.1197307 -8.4998099,-0.109121 -8.5051547,-0.097796 -8.5092962,-0.0859782 -8.5121841,-0.0737918 -8.5138969,-0.0613867 -8.514645,-0.0488851 -8.514645,-0.0488851 -8.5141549,-0.0379272 -8.5129203,-0.0270287 -8.5107654,-0.0162738 -8.5077218,-0.0057363 -8.5038177,0.0045136 -8.498962,0.0143486 -8.4931064,0.0236224 -8.4864847,0.0323664 -8.479119,0.0404933 -8.4709726,0.0478374 -8.4621644,0.0543734 -8.4528062,0.0600933 -8.4429461,0.064898 -8.4327108,0.0688411 -8.422196,0.0719621 -8.4115026,0.0744042 -8.5071629,0.2058746z M-8.2899983,-0.1188099 L-8.2899983,0.0238111 -8.3816305,0.0238111 -8.3816305,0.0238111 -8.3921396,0.0236675 -8.4026056,0.0227784 -8.4128908,0.0206367 -8.4225509,0.0165137 -8.4225509,0.0165137 -8.4311765,0.0114717 -8.4389938,0.0052507 -8.4458453,-0.0020204 -8.4516253,-0.0101698 -8.4562021,-0.0190507 -8.4595124,-0.0284776 -8.4614867,-0.0382707 -8.4621782,-0.0482385 -8.4621782,-0.0482385 -8.4613805,-0.0583418 -8.459199,-0.0682378 -8.4556503,-0.0777304 -8.450805,-0.0866313 -8.4447431,-0.0947529 -8.4375908,-0.1019321 -8.4295069,-0.1080432 -8.4206111,-0.1128983 -8.4206111,-0.1128983 -8.412401,-0.1161161 -8.4037769,-0.1179614 -8.3861621,-0.1188099 -8.2899983,-0.1188099z" transform="matrix(1,0,0,-1,9.763125,3.9878)" fill="rgb(104,104,104)" fill-rule="nonzero" shaper:cutDepth="0.0000762" stroke-linecap="round" stroke-linejoin="round" /><path d="M-8.0488172,-0.1712769 L-8.048777,-0.1712768 -8.048777,-0.1712768 -8.0316717,-0.1702739 -8.0147746,-0.1674347 -7.9983652,-0.1625043 -7.9826642,-0.1556468 -7.9679722,-0.1468308 -7.954388,-0.1363856 -7.9419593,-0.1245933 -7.9306745,-0.1116975 -7.9306745,-0.1116975 -7.9188552,-0.0953027 -7.9082745,-0.0780831 -7.8991332,-0.0600576 -7.8914388,-0.041369 -7.8852395,-0.0221323 -7.8806755,-0.0024443 -7.8778743,0.0175716 -7.8769145,0.0377591 -7.8769145,0.0377591 -7.8777099,0.058152 -7.8801241,0.078416 -7.8840151,0.0984503 -7.8895361,0.1180969 -7.8965794,0.1372512 -7.9051144,0.1557882 -7.9152336,0.1735109 -7.9268873,0.1902639 -7.9268873,0.1902639 -7.9381151,0.2036587 -7.9504192,0.2160688 -7.9639514,0.227129 -7.9786262,0.236622 -7.9944244,0.2440888 -8.0110427,0.2494949 -8.0195811,0.2513939 -8.0282265,0.2526777 -8.0456766,0.2536305 -8.0456766,0.2536305 -8.0601489,0.2528201 -8.0744731,0.2506064 -8.0884869,0.2469054 -8.1019714,0.2415887 -8.1148325,0.2349067 -8.1268585,0.2268131 -8.1380341,0.2175843 -8.1483933,0.2074449 -8.1483933,0.2074449 -8.1615371,0.1920689 -8.1667487,0.1833854 -8.1682555,0.1785758 -8.1688997,0.1735447 -8.1688997,0.1735447 -8.168448,0.1683761 -8.1672142,0.1633405 -8.1650265,0.1586368 -8.1619204,0.1544855 -8.1580266,0.1510597 -8.1534622,0.1485998 -8.1484738,0.1471845 -8.1433129,0.1466647 -8.1433129,0.1466647 -8.1362868,0.1472584 -8.1296736,0.1496764 -8.1241737,0.1540811 -8.1196659,0.1595043 -8.1196659,0.1595043 -8.1129241,0.1677872 -8.105667,0.1756195 -8.0977604,0.1828006 -8.0891543,0.1891207 -8.0798367,0.194338 -8.0698949,0.1982263 -8.0594763,0.2005731 -8.0488172,0.2011637 -8.0488172,0.2011637 -8.0383653,0.2006919 -8.0280353,0.1990304 -8.0179733,0.1961669 -8.0083449,0.1920715 -7.9992978,0.1868208 -7.990927,0.1805392 -7.9831418,0.1735529 -7.9760287,0.1658779 -7.9760287,0.1658779 -7.9655573,0.1524006 -7.9563808,0.1380099 -7.9484899,0.1228763 -7.9419092,0.1071283 -7.936668,0.0908855 -7.932676,0.0742913 -7.9303251,0.0573867 -7.9293813,0.0403455 -7.9293813,0.0403455 -7.93011,0.0267834 -7.9315908,0.0132854 -7.9339352,-0.0000938 -7.9371744,-0.0132811 -7.9413283,-0.0262127 -7.9464357,-0.0387952 -7.952537,-0.0509289 -7.9595468,-0.062561 -7.9674461,-0.0736074 -7.9762323,-0.0839644 -7.9859467,-0.0934508 -7.9966583,-0.1018021 -8.0083461,-0.1087039 -8.0208849,-0.1139181 -8.0340272,-0.1173329 -8.047524,-0.11881 -8.047524,-0.11881 -8.0571527,-0.1182096 -8.0666243,-0.116365 -8.0757911,-0.1133657 -8.0844603,-0.1091263 -8.0925771,-0.1039138 -8.1000801,-0.0978447 -8.1069632,-0.0910852 -8.1132923,-0.0838014 -8.1132923,-0.0838014 -8.1189212,-0.0767682 -8.12529,-0.0704103 -8.1289661,-0.0678009 -8.133096,-0.0659573 -8.1374985,-0.0650904 -8.1420197,-0.0648653 -8.1420197,-0.0648653 -8.1472339,-0.0654831 -8.1522383,-0.067067 -8.1568092,-0.0696485 -8.1607726,-0.0730919 -8.1640148,-0.0772203 -8.166353,-0.0819215 -8.1677536,-0.0869796 -8.1682531,-0.0922071 -8.1682531,-0.0922071 -8.1674862,-0.0989863 -8.1648883,-0.1052981 -8.1567067,-0.1162236 -8.1567067,-0.1162236 -8.146108,-0.1277366 -8.1346166,-0.1383501 -8.1222338,-0.1479238 -8.1088744,-0.1560573 -8.094714,-0.1627234 -8.0798152,-0.1674835 -8.064436,-0.1703721 -8.0488172,-0.1712769z" transform="matrix(1,0,0,-1,9.763125,3.9878)" fill="rgb(104,104,104)" fill-rule="nonzero" shaper:cutDepth="0.0000762" stroke-linecap="round" stroke-linejoin="round" /><path d="M7.5946,1.651 a0.7874,0.7874 0 1,0 1.5748,0 a0.7874,0.7874 0 1,0 -1.5748,0z M7.6708,1.651 a0.7112,0.7112 0 1,1 1.4224,0 a0.7112,0.7112 0 1,1 -1.4224,0z" transform="matrix(1,0,0,-1,9.763125,3.9878)" fill="rgb(104,104,104)" fill-rule="nonzero" shaper:cutDepth="0.0000762" stroke-linecap="round" stroke-linejoin="round" /><path d="M-9.1694,1.651 a0.7874,0.7874 0 1,0 1.5748,0 a0.7874,0.7874 0 1,0 -1.5748,0z M-9.0932,1.651 a0.7112,0.7112 0 1,1 1.4224,0 a0.7112,0.7112 0 1,1 -1.4224,0z" transform="matrix(1,0,0,-1,9.763125,3.9878)" fill="rgb(104,104,104)" fill-rule="nonzero" shaper:cutDepth="0.0000762" stroke-linecap="round" stroke-linejoin="round" /><path d="M7.747,1.651 a0.635,0.635 0 1,1 1.27,0 a0.635,0.635 0 1,1 -1.27,0z" transform="matrix(1,0,0,-1,9.763125,3.9878)" fill="rgb(255,255,255)" stroke="rgb(0,0,0)" stroke-width="0.0010cm" stroke-linecap="round" stroke-linejoin="round" shaper:cutDepth="0.0015875" /><path d="M-9.017,1.651 a0.635,0.635 0 1,1 1.27,0 a0.635,0.635 0 1,1 -1.27,0z" transform="matrix(1,0,0,-1,9.763125,3.9878)" fill="rgb(255,255,255)" stroke="rgb(0,0,0)" stroke-width="0.0010cm" stroke-linecap="round" stroke-linejoin="round" shaper:cutDepth="0.0015875" /><path d="M8.725535,3.048 a0.215265,0.215265 0 1,1 0.43053,0 a0.215265,0.215265 0 1,1 -0.43053,0z" transform="matrix(1,0,0,-1,9.763125,3.9878)" fill="rgb(255,255,255)" stroke="rgb(0,0,0)" stroke-width="0.0010cm" stroke-linecap="round" stroke-linejoin="round" shaper:cutDepth="0.0015875" /><path d="M5.626735,0.254 a0.215265,0.215265 0 1,1 0.43053,0 a0.215265,0.215265 0 1,1 -0.43053,0z" transform="matrix(1,0,0,-1,9.763125,3.9878)" fill="rgb(255,255,255)" stroke="rgb(0,0,0)" stroke-width="0.0010cm" stroke-linecap="round" stroke-linejoin="round" shaper:cutDepth="0.0015875" /><path d="M-6.057265,0.254 a0.215265,0.215265 0 1,1 0.43053,0 a0.215265,0.215265 0 1,1 -0.43053,0z" transform="matrix(1,0,0,-1,9.763125,3.9878)" fill="rgb(255,255,255)" stroke="rgb(0,0,0)" stroke-width="0.0010cm" stroke-linecap="round" stroke-linejoin="round" shaper:cutDepth="0.0015875" /><path d="M-9.156065,3.048 a0.215265,0.215265 0 1,1 0.43053,0 a0.215265,0.215265 0 1,1 -0.43053,0z" transform="matrix(1,0,0,-1,9.763125,3.9878)" fill="rgb(255,255,255)" stroke="rgb(0,0,0)" stroke-width="0.0010cm" stroke-linecap="round" stroke-linejoin="round" shaper:cutDepth="0.0015875" /></svg>