<?xml version="1.0" encoding="utf-8"?>
<!-- Generator: Fusion 360, Shaper Origin Export Add-In, Version 1.6.10  -->
<svg xmlns="http://www.w3.org/2000/svg" xmlns:xlink="http://www.w3.org/1999/xlink" xmlns:shaper="http://www.shapertools.com/namespaces/shaper" shaper:fusionaddin="version:1.6.10" width="0.9652cm" height="0.4064cm" version="1.1" x="0cm" y="0cm" viewBox="0 0 0.9652 0.4064" enable-background="new 0 0 0.9652 0.4064" xml:space="preserve"><path d="M0.4064,-0.2032 A0.0762,0.0762 270 0,1 0.4826,-0.127 L0.4826,0.127 A0.0762,0.0762 0 0,1 0.4064,0.2032 L-0.4064,0.2032 A0.0762,0.0762 90 0,1 -0.4826,0.127 L-0.4826,-0.127 A0.0762,0.0762 180 0,1 -0.4064,-0.2032 L0.4064,-0.2032z" transform="matrix(1,0,0,-1,0.4826,0.2032)" fill="rgb(0,0,0)" shaper:cutDepth="0.0015875" stroke-linecap="round" stroke-linejoin="round" /><path d="M-0.2848624,0.1700912 L-0.2848624,0.1700912 -0.2759566,0.1696271 -0.2671369,0.1683026 -0.2584719,0.1661947 -0.2500176,0.1633544 -0.2418121,0.1598609 -0.2339108,0.1557244 -0.2263681,0.1509662 -0.2191968,0.1456642 -0.2191968,0.1456642 -0.2119635,0.1390149 -0.2054237,0.1316791 -0.199529,0.123818 -0.194308,0.1154934 -0.1897237,0.1068014 -0.1857705,0.097805 -0.179486,0.0791905 -0.1751504,0.0600247 -0.1723519,0.0405748 -0.170863,0.020979 -0.1704864,0.0013291 -0.1704864,0.0013291 -0.1709256,-0.0172279 -0.1723134,-0.0357342 -0.1749142,-0.0541158 -0.1789639,-0.072226 -0.1846617,-0.0898938 -0.1923012,-0.1068016 -0.19694,-0.1148499 -0.2021554,-0.1225328 -0.2142395,-0.1366118 -0.2142395,-0.1366118 -0.2215429,-0.1428431 -0.2294395,-0.1483029 -0.2377519,-0.1531067 -0.2464848,-0.1570935 -0.2555082,-0.1603757 -0.2648077,-0.1627534 -0.2742732,-0.164366 -0.2838566,-0.1649185 -0.2838566,-0.1649185 -0.2958405,-0.1639921 -0.3076169,-0.1615744 -0.3190677,-0.15792 -0.3300758,-0.1530886 -0.3405642,-0.1472144 -0.3504276,-0.1403441 -0.3595305,-0.1324922 -0.367627,-0.123608 -0.367627,-0.123608 -0.3767054,-0.1091575 -0.3838719,-0.0936587 -0.389441,-0.0775254 -0.3935602,-0.0609567 -0.3964895,-0.0441386 -0.3984265,-0.0271755 -0.3994655,-0.0101362 -0.3998132,0.006933 -0.3998132,0.006933 -0.3993361,0.0242825 -0.3979716,0.0415834 -0.3954361,0.0587534 -0.3917036,0.0757025 -0.3865904,0.0922886 -0.3797688,0.1082414 -0.3710953,0.1232772 -0.3604426,0.1369711 -0.3604426,0.1369711 -0.3526231,0.144074 -0.3441676,0.1504065 -0.3351747,0.1559496 -0.3257318,0.1606861 -0.3158935,0.1645334 -0.3057557,0.1675035 -0.2953608,0.1693852 -0.2848261,0.170163 -0.2848624,0.1700912z M-0.2450607,0.112544 L-0.2450607,0.112544 -0.2538084,0.1192143 -0.2635458,0.1243328 -0.2739405,0.1278939 -0.279343,0.1289345 -0.2848261,0.1293554 -0.2848624,0.1292837 -0.2848624,0.1292837 -0.2911247,0.1287778 -0.2972852,0.1275397 -0.3091015,0.1232941 -0.3200544,0.11715 -0.325033,0.1133164 -0.3296214,0.1090236 -0.3296214,0.1090236 -0.3381169,0.0982927 -0.3446905,0.0862741 -0.3496353,0.0735065 -0.3533064,0.0603097 -0.3559619,0.0468738 -0.3576872,0.0332859 -0.3589338,0.0059272 -0.3589338,0.0059272 -0.3580161,-0.0206973 -0.3567051,-0.0339559 -0.3546747,-0.0471219 -0.3517237,-0.0601144 -0.3475564,-0.0727625 -0.3421066,-0.0849237 -0.3350815,-0.0962354 -0.3350815,-0.0962354 -0.3304164,-0.102022 -0.3251631,-0.1072787 -0.3193881,-0.1119593 -0.313141,-0.1159841 -0.3065069,-0.1193406 -0.2995084,-0.1218328 -0.2922703,-0.1235329 -0.2848624,-0.1241109 -0.2848624,-0.1241109 -0.2783795,-0.1236152 -0.2720072,-0.1223216 -0.2598654,-0.1176962 -0.2487596,-0.1109549 -0.2390976,-0.1022703 -0.2390976,-0.1022703 -0.2308895,-0.0909492 -0.2245154,-0.0784967 -0.2197418,-0.0653482 -0.2162486,-0.0518025 -0.2138377,-0.0380215 -0.2123278,-0.0241131 -0.2112939,0.0038437 -0.2112939,0.0038437 -0.2115508,0.018463 -0.2125609,0.0330455 -0.2144838,0.0475414 -0.2174295,0.0618607 -0.2217317,0.0758334 -0.2276437,0.0891996 -0.2353526,0.1016246 -0.2450607,0.112544z" transform="matrix(1,0,0,-1,0.4826,0.2032)" fill="rgb(104,104,104)" fill-rule="nonzero" shaper:cutDepth="0.0000762" stroke-linecap="round" stroke-linejoin="round" /><path d="M0.0378619,0.0414182 L-0.0738559,0.0414182 -0.0738559,0.1247574 0.0830682,0.1247574 0.0830682,0.1247574 0.0924955,0.1255047 0.0970643,0.1267769 0.1013372,0.128813 0.1049604,0.1318624 0.107481,0.1358628 0.1089335,0.14037 0.1093469,0.1450894 0.1093469,0.1450894 0.1088421,0.1497696 0.1073698,0.1542382 0.1047503,0.158146 0.1011774,0.1612027 0.0969468,0.1632644 0.0924091,0.1645254 0.0830519,0.1654932 -0.085516,0.165565 -0.085516,0.165565 -0.0914075,0.1656818 -0.0972509,0.1649666 -0.1028313,0.1630803 -0.1076281,0.1596755 -0.1111624,0.1549697 -0.1133719,0.1495104 -0.1144341,0.1437175 -0.1147353,0.1378332 -0.1146635,-0.1381343 -0.1146635,-0.1381343 -0.1146341,-0.1457917 -0.1142868,-0.1496048 -0.1132265,-0.1532797 -0.1132265,-0.1532797 -0.1100073,-0.1581493 -0.1054909,-0.161846 -0.1001168,-0.1641061 -0.0943315,-0.1649185 -0.0943315,-0.1649185 -0.0881935,-0.1640504 -0.0825132,-0.1615686 -0.0779794,-0.1573682 -0.0753646,-0.151771 -0.0753646,-0.151771 -0.0743077,-0.1484997 -0.0739598,-0.1450757 -0.0738559,-0.1381924 -0.0738559,0.0006106 0.0363883,0.0006106 0.0363883,0.0006106 0.0446167,0.0007838 0.0527337,0.0020476 0.0527337,0.0020476 0.0581039,0.0048581 0.0623355,0.0091907 0.0647845,0.0147278 0.0656656,0.0207271 0.0656656,0.0207271 0.0653763,0.025697 0.0639145,0.0304519 0.061106,0.0345557 0.0572025,0.0376353 0.0526326,0.0396069 0.0477872,0.0407682 0.0378619,0.0414182z" transform="matrix(1,0,0,-1,0.4826,0.2032)" fill="rgb(104,104,104)" fill-rule="nonzero" shaper:cutDepth="0.0000762" stroke-linecap="round" stroke-linejoin="round" /><path d="M0.3137438,0.0414182 L0.202026,0.0414182 0.202026,0.1247574 0.3589501,0.1247574 0.3589501,0.1247574 0.3683774,0.1255047 0.3729462,0.1267769 0.377219,0.128813 0.3808423,0.1318624 0.3833629,0.1358628 0.3848154,0.14037 0.3852288,0.1450894 0.3852288,0.1450894 0.3847239,0.1497696 0.3832516,0.1542382 0.3806322,0.158146 0.3770593,0.1612027 0.3728287,0.1632644 0.368291,0.1645254 0.3589338,0.1654932 0.1903658,0.165565 0.1903658,0.165565 0.1844743,0.1656818 0.178631,0.1649666 0.1730506,0.1630803 0.1682538,0.1596755 0.1647194,0.1549697 0.16251,0.1495104 0.1614478,0.1437175 0.1611466,0.1378332 0.1612184,-0.1381343 0.1612184,-0.1381343 0.1612478,-0.1457917 0.1615951,-0.1496048 0.1626554,-0.1532797 0.1626554,-0.1532797 0.1658746,-0.1581493 0.170391,-0.161846 0.1757651,-0.1641061 0.1815504,-0.1649185 0.1815504,-0.1649185 0.1876884,-0.1640504 0.1933687,-0.1615686 0.1979025,-0.1573682 0.2005173,-0.151771 0.2005173,-0.151771 0.2015742,-0.1484997 0.2019221,-0.1450757 0.202026,-0.1381924 0.202026,0.0006106 0.3122702,0.0006106 0.3122702,0.0006106 0.3204986,0.0007838 0.3286156,0.0020476 0.3286156,0.0020476 0.3339858,0.0048581 0.3382174,0.0091907 0.3406663,0.0147278 0.3415475,0.0207271 0.3415475,0.0207271 0.3412582,0.025697 0.3397964,0.0304519 0.3369879,0.0345557 0.3330844,0.0376353 0.3285145,0.0396069 0.323669,0.0407682 0.3137438,0.0414182z" transform="matrix(1,0,0,-1,0.4826,0.2032)" fill="rgb(104,104,104)" fill-rule="nonzero" shaper:cutDepth="0.0000762" stroke-linecap="round" stroke-linejoin="round" /></svg>