<?xml version="1.0" encoding="utf-8"?>
<!-- Generator: Fusion 360, Shaper Origin Export Add-In, Version 1.6.10  -->
<svg xmlns="http://www.w3.org/2000/svg" xmlns:xlink="http://www.w3.org/1999/xlink" xmlns:shaper="http://www.shapertools.com/namespaces/shaper" shaper:fusionaddin="version:1.6.10" width="1.27cm" height="0.4064cm" version="1.1" x="0cm" y="0cm" viewBox="0 0 1.27 0.4064" enable-background="new 0 0 1.27 0.4064" xml:space="preserve"><path d="M0.340762,-0.2866874 A0.0762,0.0762 270 0,1 0.416962,-0.2104874 L0.416962,0.0435126 A0.0762,0.0762 0 0,1 0.340762,0.1197126 L-0.776838,0.1197126 A0.0762,0.0762 90 0,1 -0.853038,0.0435126 L-0.853038,-0.2104874 A0.0762,0.0762 180 0,1 -0.776838,-0.2866874 L0.340762,-0.2866874z" transform="matrix(1,0,0,-1,0.853038,0.1197126)" fill="rgb(0,0,0)" shaper:cutDepth="0.0015875" stroke-linecap="round" stroke-linejoin="round" /><path d="M-0.5342964,-0.1013407 L-0.4982307,-0.1012689 -0.4982307,-0.1529265 -0.4982307,-0.1529265 -0.4991998,-0.1678271 -0.5008589,-0.1751122 -0.5036907,-0.1820218 -0.5036907,-0.1820218 -0.5073588,-0.1878757 -0.5118485,-0.193126 -0.5171146,-0.1975959 -0.5229747,-0.2012562 -0.5292617,-0.2041154 -0.535891,-0.2060674 -0.5426995,-0.2072282 -0.5495992,-0.2075984 -0.5495992,-0.2075984 -0.5576991,-0.2073001 -0.5657001,-0.2060046 -0.5734635,-0.2036752 -0.5809184,-0.2004959 -0.5879053,-0.1963878 -0.5943838,-0.1915144 -0.6003769,-0.186059 -0.6058533,-0.180082 -0.6058533,-0.180082 -0.6137861,-0.1695602 -0.6207804,-0.158392 -0.62676,-0.1466494 -0.6317638,-0.1344588 -0.635761,-0.1219021 -0.6388086,-0.1090819 -0.6406713,-0.0960367 -0.6413443,-0.0828767 -0.6413443,-0.0828767 -0.6409295,-0.0724843 -0.6398117,-0.0621441 -0.6378572,-0.0519287 -0.6351207,-0.0418947 -0.6316622,-0.0320856 -0.627404,-0.0225972 -0.6224294,-0.0134631 -0.6167017,-0.0047821 -0.6167017,-0.0047821 -0.6109532,0.0041361 -0.6045823,0.0126172 -0.5974332,0.0204582 -0.5894619,0.0274583 -0.5805986,0.0332856 -0.5709391,0.0376644 -0.5606732,0.0403382 -0.5501021,0.0411983 -0.5501021,0.0411983 -0.5421625,0.0406703 -0.534393,0.0389363 -0.5269957,0.0360138 -0.5201614,0.0319326 -0.5138912,0.0270322 -0.5080986,0.02157 -0.4977995,0.0094431 -0.4977995,0.0094431 -0.4892393,-0.0004867 -0.4838163,-0.0041787 -0.4806827,-0.0050696 -0.4773958,-0.0053568 -0.4773958,-0.0053568 -0.4732092,-0.004743 -0.4692595,-0.0032231 -0.4657571,-0.000851 -0.4627657,0.002146 -0.4602897,0.0055761 -0.4584918,0.0094099 -0.4573695,0.0134882 -0.456992,0.0177052 -0.456992,0.0177052 -0.4581204,0.0253785 -0.4615299,0.0323805 -0.4660427,0.038714 -0.4710735,0.0446468 -0.4710735,0.0446468 -0.4792739,0.0525777 -0.4880564,0.0598568 -0.4974645,0.0663078 -0.507422,0.0718762 -0.5179601,0.0762388 -0.52891,0.0794357 -0.5401489,0.0813899 -0.551539,0.0820058 -0.551539,0.0820058 -0.5599035,0.0816388 -0.5682135,0.0806156 -0.5764076,0.078896 -0.5844561,0.0765883 -0.5923242,0.0737257 -0.599962,0.0702956 -0.6072782,0.0662245 -0.614259,0.061602 -0.614259,0.061602 -0.6221871,0.0549303 -0.62967,0.0477623 -0.6366894,0.0401404 -0.6432179,0.0320937 -0.6492405,0.0236619 -0.6547548,0.0148889 -0.6643196,-0.0034875 -0.6719145,-0.0227626 -0.6775347,-0.0427013 -0.6809745,-0.0631318 -0.6822237,-0.0838107 -0.6822237,-0.0838107 -0.681499,-0.0994065 -0.6795333,-0.114895 -0.6763607,-0.1301819 -0.6719521,-0.1451593 -0.6663443,-0.1597302 -0.6596632,-0.1738412 -0.6517766,-0.1873154 -0.642853,-0.2001266 -0.642853,-0.2001266 -0.634306,-0.2102953 -0.6248921,-0.2196607 -0.6145991,-0.2280602 -0.603421,-0.2352272 -0.5914725,-0.2410318 -0.5788492,-0.2451496 -0.5658042,-0.2476501 -0.5525448,-0.2484059 -0.5525448,-0.2484059 -0.5404617,-0.2476614 -0.528535,-0.2455934 -0.5169145,-0.2421984 -0.5057452,-0.2375313 -0.4951362,-0.2316993 -0.4852766,-0.2246779 -0.4763872,-0.2164601 -0.4686308,-0.2071673 -0.4686308,-0.2071673 -0.4632753,-0.1977382 -0.4596431,-0.187522 -0.4578523,-0.1768358 -0.4574949,-0.1660005 -0.4574231,-0.0881526 -0.4574231,-0.0881526 -0.4581784,-0.0767837 -0.459792,-0.0713163 -0.462822,-0.0664967 -0.4673907,-0.0631104 -0.4728023,-0.0613011 -0.4784439,-0.0605127 -0.4841491,-0.0604613 -0.532279,-0.0604613 -0.532279,-0.0604613 -0.5405635,-0.0606267 -0.5446783,-0.0611413 -0.5485934,-0.062473 -0.5485934,-0.062473 -0.5537839,-0.0653964 -0.5578905,-0.0697059 -0.5605024,-0.0750588 -0.5614535,-0.080937 -0.5614535,-0.080937 -0.5607936,-0.0858588 -0.5590746,-0.0905131 -0.5562647,-0.0946048 -0.5525448,-0.0978922 -0.5525448,-0.0978922 -0.5484072,-0.1001567 -0.5437524,-0.1010136 -0.5342964,-0.1013407z" transform="matrix(1,0,0,-1,0.853038,0.1197126)" fill="rgb(104,104,104)" fill-rule="nonzero" shaper:cutDepth="0.0000762" stroke-linecap="round" stroke-linejoin="round" /><path d="M-0.3438758,-0.1932296 L-0.3597867,-0.2343963 -0.3597867,-0.2343963 -0.3630118,-0.240163 -0.3676524,-0.2448547 -0.3736365,-0.2476316 -0.3801905,-0.2484059 -0.3801905,-0.2484059 -0.3841391,-0.2480913 -0.3879841,-0.2471513 -0.3916324,-0.2456079 -0.3948961,-0.2433666 -0.3976573,-0.2405286 -0.3998027,-0.2372009 -0.4010441,-0.2334413 -0.4015282,-0.2295108 -0.4015282,-0.2295108 -0.401192,-0.2256922 -0.4001239,-0.2220045 -0.397508,-0.214791 -0.2912473,0.0663437 -0.2912473,0.0663437 -0.2882299,0.0725914 -0.2837994,0.0779105 -0.2809613,0.0799046 -0.2777863,0.0813057 -0.2743862,0.0819981 -0.2709154,0.0820058 -0.2709154,0.0820058 -0.2667121,0.0818503 -0.2625952,0.0809806 -0.2587745,0.0792471 -0.2555807,0.0765077 -0.2509303,0.069518 -0.2475363,0.0618232 -0.1403026,-0.2182313 -0.1403026,-0.2182313 -0.1389546,-0.2238099 -0.1382909,-0.2295108 -0.1382909,-0.2295108 -0.1387881,-0.2334359 -0.1401045,-0.2371656 -0.1422454,-0.2404917 -0.1450253,-0.2433068 -0.1482979,-0.2455287 -0.1519231,-0.2471171 -0.1557552,-0.2480931 -0.1597005,-0.2484059 -0.1597005,-0.2484059 -0.1632839,-0.2483222 -0.1667947,-0.2476076 -0.1700394,-0.2460887 -0.1729317,-0.2439679 -0.1774217,-0.2384085 -0.1804959,-0.2319434 -0.1948972,-0.1932296 -0.3438758,-0.1932296z M-0.2112848,-0.152422 L-0.2698831,0.0027036 -0.3284813,-0.152422 -0.2112848,-0.152422z" transform="matrix(1,0,0,-1,0.853038,0.1197126)" fill="rgb(104,104,104)" fill-rule="nonzero" shaper:cutDepth="0.0000762" stroke-linecap="round" stroke-linejoin="round" /><path d="M-0.0527963,-0.2257749 L-0.0527963,0.0599065 -0.0527963,0.0599065 -0.0535338,0.0680137 -0.0546627,0.0719328 -0.0565044,0.0755635 -0.0591921,0.0786276 -0.0626961,0.0806908 -0.0666147,0.0818047 -0.0706855,0.0820058 -0.0706855,0.0820058 -0.0753043,0.0814426 -0.0796621,0.0798151 -0.0834993,0.0771875 -0.0867068,0.0738155 -0.0867068,0.0738155 -0.0882359,0.0701789 -0.0888371,0.0662712 -0.0890776,0.058369 -0.0890059,-0.2257522 -0.0890059,-0.2257522 -0.088989,-0.2321462 -0.0886676,-0.2353252 -0.0876407,-0.2383477 -0.0876407,-0.2383477 -0.0847111,-0.2425995 -0.0805968,-0.2457407 -0.0758029,-0.2476656 -0.0706855,-0.2484059 -0.0706855,-0.2484059 -0.0660681,-0.2478433 -0.0617124,-0.246218 -0.0577743,-0.2437305 -0.0547361,-0.2402156 -0.0547361,-0.2402156 -0.0530197,-0.2331059 -0.0527963,-0.2257749z" transform="matrix(1,0,0,-1,0.853038,0.1197126)" fill="rgb(104,104,104)" fill-rule="nonzero" shaper:cutDepth="0.0000762" stroke-linecap="round" stroke-linejoin="round" /><path d="M0.1914023,0.0555671 L0.191474,-0.1587224 0.0432729,0.0679515 0.0432729,0.0679515 0.0392528,0.0732691 0.0345085,0.0779387 0.0286636,0.0811356 0.0220654,0.0820058 0.0220654,0.0820058 0.016334,0.0811885 0.0110905,0.0787542 0.0066721,0.0750009 0.0038888,0.069936 0.0038888,0.069936 0.0029616,0.0632289 0.002883,0.0564292 0.0029548,-0.2217708 0.0029548,-0.2217708 0.0031047,-0.2301757 0.0036226,-0.2343458 0.0048946,-0.2383477 0.0048946,-0.2383477 0.0082346,-0.2426223 0.0126,-0.2458423 0.0176874,-0.2477155 0.0230712,-0.2484059 0.0230712,-0.2484059 0.0274912,-0.2480153 0.0317715,-0.2468516 0.0356496,-0.2446996 0.0388375,-0.2416254 0.0410924,-0.2377997 0.0425955,-0.2336289 0.0437624,-0.224841 0.0437624,-0.0071061 0.191474,-0.2352811 0.191474,-0.2352811 0.1954283,-0.2404489 0.2003164,-0.2447156 0.2061575,-0.247591 0.2125963,-0.2484059 0.2125963,-0.2484059 0.2168869,-0.2480728 0.2210331,-0.246928 0.2247806,-0.2448226 0.2277694,-0.2417299 0.2298656,-0.2379766 0.2311837,-0.2338768 0.2322098,-0.2253439 0.2322816,0.0574435 0.2322816,0.0574435 0.2315104,0.0665957 0.2303106,0.0710387 0.2282636,0.0751521 0.2251445,0.0785223 0.2211546,0.0807974 0.2166905,0.0818869 0.2120934,0.0820058 0.2120934,0.0820058 0.2072245,0.0817482 0.2024897,0.0805956 0.1982595,0.0781907 0.1950792,0.0745038 0.1931009,0.0700535 0.1920393,0.0652914 0.1914023,0.0555671z" transform="matrix(1,0,0,-1,0.853038,0.1197126)" fill="rgb(104,104,104)" fill-rule="nonzero" shaper:cutDepth="0.0000762" stroke-linecap="round" stroke-linejoin="round" /></svg>