<?xml version="1.0" encoding="utf-8"?>
<!-- Generator: Fusion 360, Shaper Origin Export Add-In, Version 1.6.10  -->
<svg xmlns="http://www.w3.org/2000/svg" xmlns:xlink="http://www.w3.org/1999/xlink" xmlns:shaper="http://www.shapertools.com/namespaces/shaper" shaper:fusionaddin="version:1.6.10" width="0.9652cm" height="0.4064cm" version="1.1" x="0cm" y="0cm" viewBox="0 0 0.9652 0.4064" enable-background="new 0 0 0.9652 0.4064" xml:space="preserve"><path d="M0.6076968,-0.1261228 A0.0762,0.0762 270 0,1 0.6838968,-0.0499228 L0.6838968,0.2040772 A0.0762,0.0762 0 0,1 0.6076968,0.2802772 L-0.2051032,0.2802772 A0.0762,0.0762 90 0,1 -0.2813032,0.2040772 L-0.2813032,-0.0499228 A0.0762,0.0762 180 0,1 -0.2051032,-0.1261228 L0.6076968,-0.1261228z" transform="matrix(1,0,0,-1,0.2813032,0.2802772)" fill="rgb(0,0,0)" shaper:cutDepth="0.0015875" stroke-linecap="round" stroke-linejoin="round" /><path d="M-0.1199188,0.2425704 L-0.1199188,0.2425704 -0.1083839,0.2421874 -0.0969277,0.240797 -0.0856675,0.2382688 -0.0747026,0.2346687 -0.0642302,0.2298209 -0.0543492,0.2238589 -0.0451174,0.2169343 -0.0366513,0.209091 -0.0366513,0.209091 -0.0248577,0.1958251 -0.0146934,0.1812706 -0.0062313,0.16567 0.0003033,0.1491643 0.0049766,0.1320416 0.0079899,0.1145445 0.0096314,0.0968712 0.0101193,0.0791247 0.0101193,0.0791247 0.0093334,0.053523 0.0080517,0.0407774 0.0059889,0.0281357 0.0029301,0.0156975 -0.0011684,0.0035628 -0.0060985,-0.00826 -0.0119369,-0.0196611 -0.0119369,-0.0196611 -0.0204887,-0.034102 -0.030424,-0.0476248 -0.0419489,-0.0598187 -0.0483156,-0.0652882 -0.0551043,-0.0702239 -0.0623031,-0.0745385 -0.0698159,-0.0782812 -0.0776094,-0.0813966 -0.0856408,-0.0838347 -0.1021237,-0.0869616 -0.1188808,-0.0878413 -0.1890329,-0.0878413 -0.1890329,-0.0878413 -0.1949185,-0.0876572 -0.2007315,-0.0867322 -0.2062,-0.084565 -0.2086108,-0.0828558 -0.2105929,-0.080682 -0.2131176,-0.0753667 -0.2143469,-0.0696085 -0.2145377,-0.0578486 -0.2146095,0.2168501 -0.2146095,0.2168501 -0.2144667,0.2222323 -0.2135538,0.2275349 -0.2115361,0.2325232 -0.2082058,0.2367438 -0.2037525,0.2397601 -0.198683,0.2415651 -0.1879868,0.2426422 -0.1199188,0.2425704z M-0.1183822,0.2018346 L-0.1737301,0.2018346 -0.1737301,-0.0470338 -0.1189129,-0.0470338 -0.1189129,-0.0470338 -0.1060191,-0.0465057 -0.0933216,-0.0442295 -0.0872257,-0.0421104 -0.0814605,-0.0392104 -0.0760601,-0.0356747 -0.0710647,-0.0315872 -0.0710647,-0.0315872 -0.0641711,-0.0250421 -0.0579198,-0.0178787 -0.0522517,-0.0102487 -0.0472907,-0.002138 -0.04291,0.0062982 -0.0391732,0.0150402 -0.0360875,0.0240316 -0.0336338,0.0332163 -0.0336338,0.0332163 -0.0316141,0.0421619 -0.0308065,0.0512966 -0.0306882,0.0696413 -0.0306882,0.0696413 -0.0310005,0.1050997 -0.0315503,0.1139478 -0.0330122,0.1226903 -0.0354527,0.1312095 -0.0386629,0.1394739 -0.0386629,0.1394739 -0.0424931,0.1480445 -0.0468867,0.1563395 -0.0518837,0.1642868 -0.0574688,0.1718317 -0.0636654,0.1788835 -0.0704558,0.1853627 -0.0778785,0.1911124 -0.0860083,0.1957998 -0.0860083,0.1957998 -0.0936244,0.1991663 -0.1017542,0.200973 -0.1183822,0.2018346z" transform="matrix(1,0,0,-1,0.2813032,0.2802772)" fill="rgb(104,104,104)" fill-rule="nonzero" shaper:cutDepth="0.0000762" stroke-linecap="round" stroke-linejoin="round" /><path d="M0.1191404,-0.032665 L0.1032295,-0.0738317 0.1032295,-0.0738317 0.1000044,-0.0795984 0.0953638,-0.0842901 0.0893797,-0.087067 0.0828257,-0.0878413 0.0828257,-0.0878413 0.0788771,-0.0875267 0.0750321,-0.0865867 0.0713838,-0.0850433 0.0681201,-0.082802 0.0653589,-0.079964 0.0632135,-0.0766363 0.061972,-0.0728767 0.061488,-0.0689462 0.061488,-0.0689462 0.0618242,-0.0651276 0.0628923,-0.0614399 0.0655081,-0.0542264 0.1717689,0.2269083 0.1717689,0.2269083 0.1747863,0.233156 0.1792168,0.2384751 0.1820549,0.2404692 0.1852299,0.2418703 0.18863,0.2425627 0.1921008,0.2425704 0.1921008,0.2425704 0.1963041,0.2424149 0.200421,0.2415452 0.2042417,0.2398117 0.2074355,0.2370723 0.2120859,0.2300826 0.2154799,0.2223878 0.3227136,-0.0576667 0.3227136,-0.0576667 0.3240616,-0.0632453 0.3247253,-0.0689462 0.3247253,-0.0689462 0.3242281,-0.0728713 0.3229116,-0.076601 0.3207708,-0.0799271 0.3179909,-0.0827422 0.3147183,-0.0849641 0.3110931,-0.0865525 0.3072609,-0.0875285 0.3033157,-0.0878413 0.3033157,-0.0878413 0.2997323,-0.0877576 0.2962215,-0.087043 0.2929768,-0.0855241 0.2900845,-0.0834033 0.2855945,-0.0778439 0.2825203,-0.0713788 0.268119,-0.032665 0.1191404,-0.032665z M0.2517314,0.0081426 L0.1931331,0.1632682 0.1345349,0.0081426 0.2517314,0.0081426z" transform="matrix(1,0,0,-1,0.2813032,0.2802772)" fill="rgb(104,104,104)" fill-rule="nonzero" shaper:cutDepth="0.0000762" stroke-linecap="round" stroke-linejoin="round" /><path d="M0.5578598,0.2284889 L0.48613,0.0931776 0.4153182,0.226485 0.4153182,0.226485 0.4114952,0.232586 0.4066276,0.2378782 0.4037239,0.2399971 0.4004989,0.2416049 0.3970061,0.2424548 0.3934083,0.2425704 0.3934083,0.2425704 0.3894159,0.2421812 0.3855402,0.2411541 0.3819042,0.2394605 0.378673,0.2370849 0.3759524,0.2341389 0.3738104,0.2307486 0.3725649,0.226937 0.3720706,0.2229569 0.3720706,0.2229569 0.3722976,0.2195877 0.3734948,0.216431 0.3765249,0.2103842 0.377577,0.2084434 0.465971,0.043062 0.465971,-0.0646865 0.465971,-0.0646865 0.4668049,-0.0735801 0.4682273,-0.0778146 0.4704893,-0.0816746 0.473752,-0.0847198 0.4777587,-0.0866976 0.4821219,-0.0876658 0.4865903,-0.0878413 0.4865903,-0.0878413 0.491863,-0.0874997 0.4969281,-0.0860439 0.5014773,-0.0833306 0.5047669,-0.07922 0.5047669,-0.07922 0.5060098,-0.0753526 0.5065831,-0.0713266 0.5067786,-0.0631987 0.5067786,0.043062 0.5926895,0.2064388 0.5936827,0.2079422 0.5936827,0.2079422 0.5961528,0.2123958 0.5961528,0.2123958 0.5986729,0.21769 0.5996013,0.2234598 0.5996013,0.2234598 0.5991824,0.2274248 0.5978933,0.2311966 0.5958464,0.2346134 0.5930344,0.237444 0.5897665,0.2397213 0.5861057,0.2413079 0.5822413,0.2422742 0.5782636,0.2425704 0.5782636,0.2425704 0.57173,0.2419112 0.5687,0.2406177 0.5659312,0.2387824 0.5613585,0.2340706 0.5578598,0.2284889z" transform="matrix(1,0,0,-1,0.2813032,0.2802772)" fill="rgb(104,104,104)" fill-rule="nonzero" shaper:cutDepth="0.0000762" stroke-linecap="round" stroke-linejoin="round" /></svg>