%TF.GenerationSoftware,KiCad,Pcbnew,(5.1.9)-1*%
%TF.CreationDate,2021-09-19T09:11:26-06:00*%
%TF.ProjectId,jett_station_select,6a657474-5f73-4746-9174-696f6e5f7365,rev?*%
%TF.SameCoordinates,Original*%
%TF.FileFunction,Paste,Top*%
%TF.FilePolarity,Positive*%
%FSLAX46Y46*%
G04 Gerber Fmt 4.6, Leading zero omitted, Abs format (unit mm)*
G04 Created by KiCad (PCBNEW (5.1.9)-1) date 2021-09-19 09:11:26*
%MOMM*%
%LPD*%
G01*
G04 APERTURE LIST*
%ADD10R,0.700000X0.700000*%
G04 APERTURE END LIST*
%TO.C,R1*%
G36*
G01*
X133513875Y-98920749D02*
X132963875Y-98920749D01*
G75*
G02*
X132763875Y-98720749I0J200000D01*
G01*
X132763875Y-98320749D01*
G75*
G02*
X132963875Y-98120749I200000J0D01*
G01*
X133513875Y-98120749D01*
G75*
G02*
X133713875Y-98320749I0J-200000D01*
G01*
X133713875Y-98720749D01*
G75*
G02*
X133513875Y-98920749I-200000J0D01*
G01*
G37*
G36*
G01*
X133513875Y-100570749D02*
X132963875Y-100570749D01*
G75*
G02*
X132763875Y-100370749I0J200000D01*
G01*
X132763875Y-99970749D01*
G75*
G02*
X132963875Y-99770749I200000J0D01*
G01*
X133513875Y-99770749D01*
G75*
G02*
X133713875Y-99970749I0J-200000D01*
G01*
X133713875Y-100370749D01*
G75*
G02*
X133513875Y-100570749I-200000J0D01*
G01*
G37*
%TD*%
D10*
%TO.C,D33*%
X147425375Y-111559249D03*
X147425375Y-112659249D03*
X145595375Y-112659249D03*
X145595375Y-111559249D03*
%TD*%
%TO.C,D32*%
X147044375Y-142674249D03*
X147044375Y-143774249D03*
X145214375Y-143774249D03*
X145214375Y-142674249D03*
%TD*%
%TO.C,D31*%
X155680375Y-142674249D03*
X155680375Y-143774249D03*
X153850375Y-143774249D03*
X153850375Y-142674249D03*
%TD*%
%TO.C,D30*%
X162613375Y-132852249D03*
X162613375Y-131752249D03*
X164443375Y-131752249D03*
X164443375Y-132852249D03*
%TD*%
%TO.C,D29*%
X153850375Y-132852249D03*
X153850375Y-131752249D03*
X155680375Y-131752249D03*
X155680375Y-132852249D03*
%TD*%
%TO.C,D28*%
X145087375Y-132852249D03*
X145087375Y-131752249D03*
X146917375Y-131752249D03*
X146917375Y-132852249D03*
%TD*%
%TO.C,D27*%
X136451375Y-132852249D03*
X136451375Y-131752249D03*
X138281375Y-131752249D03*
X138281375Y-132852249D03*
%TD*%
%TO.C,D26*%
X138281375Y-121084249D03*
X138281375Y-122184249D03*
X136451375Y-122184249D03*
X136451375Y-121084249D03*
%TD*%
%TO.C,D25*%
X146917375Y-121084249D03*
X146917375Y-122184249D03*
X145087375Y-122184249D03*
X145087375Y-121084249D03*
%TD*%
%TO.C,D24*%
X155807375Y-121084249D03*
X155807375Y-122184249D03*
X153977375Y-122184249D03*
X153977375Y-121084249D03*
%TD*%
%TO.C,D23*%
X164443375Y-121084249D03*
X164443375Y-122184249D03*
X162613375Y-122184249D03*
X162613375Y-121084249D03*
%TD*%
%TO.C,D22*%
X153653375Y-112626249D03*
X153653375Y-111526249D03*
X155483375Y-111526249D03*
X155483375Y-112626249D03*
%TD*%
%TO.C,D21*%
X146806375Y-92323249D03*
X145706375Y-92323249D03*
X145706375Y-90493249D03*
X146806375Y-90493249D03*
%TD*%
%TO.C,D20*%
X146806375Y-98419249D03*
X145706375Y-98419249D03*
X145706375Y-96589249D03*
X146806375Y-96589249D03*
%TD*%
%TO.C,D19*%
X136562375Y-96589249D03*
X137662375Y-96589249D03*
X137662375Y-98419249D03*
X136562375Y-98419249D03*
%TD*%
%TO.C,D18*%
X136562375Y-90493249D03*
X137662375Y-90493249D03*
X137662375Y-92323249D03*
X136562375Y-92323249D03*
%TD*%
%TO.C,D17*%
X137662375Y-74797249D03*
X136562375Y-74797249D03*
X136562375Y-72967249D03*
X137662375Y-72967249D03*
%TD*%
%TO.C,D16*%
X137662375Y-81020249D03*
X136562375Y-81020249D03*
X136562375Y-79190249D03*
X137662375Y-79190249D03*
%TD*%
%TO.C,D15*%
X145706375Y-79190249D03*
X146806375Y-79190249D03*
X146806375Y-81020249D03*
X145706375Y-81020249D03*
%TD*%
%TO.C,D14*%
X145706375Y-72967249D03*
X146806375Y-72967249D03*
X146806375Y-74797249D03*
X145706375Y-74797249D03*
%TD*%
%TO.C,D13*%
X145325375Y-61664249D03*
X146425375Y-61664249D03*
X146425375Y-63494249D03*
X145325375Y-63494249D03*
%TD*%
%TO.C,D12*%
X145198375Y-55441249D03*
X146298375Y-55441249D03*
X146298375Y-57271249D03*
X145198375Y-57271249D03*
%TD*%
%TO.C,D11*%
X155569375Y-57271249D03*
X154469375Y-57271249D03*
X154469375Y-55441249D03*
X155569375Y-55441249D03*
%TD*%
%TO.C,D10*%
X155569375Y-63494249D03*
X154469375Y-63494249D03*
X154469375Y-61664249D03*
X155569375Y-61664249D03*
%TD*%
%TO.C,D9*%
X153961375Y-79063249D03*
X155061375Y-79063249D03*
X155061375Y-80893249D03*
X153961375Y-80893249D03*
%TD*%
%TO.C,D8*%
X153961375Y-72967249D03*
X155061375Y-72967249D03*
X155061375Y-74797249D03*
X153961375Y-74797249D03*
%TD*%
%TO.C,D7*%
X164205375Y-74797249D03*
X163105375Y-74797249D03*
X163105375Y-72967249D03*
X164205375Y-72967249D03*
%TD*%
%TO.C,D6*%
X164205375Y-80893249D03*
X163105375Y-80893249D03*
X163105375Y-79063249D03*
X164205375Y-79063249D03*
%TD*%
%TO.C,D5*%
X163232375Y-96462249D03*
X164332375Y-96462249D03*
X164332375Y-98292249D03*
X163232375Y-98292249D03*
%TD*%
%TO.C,D4*%
X163232375Y-90493249D03*
X164332375Y-90493249D03*
X164332375Y-92323249D03*
X163232375Y-92323249D03*
%TD*%
%TO.C,D3*%
X155061375Y-92323249D03*
X153961375Y-92323249D03*
X153961375Y-90493249D03*
X155061375Y-90493249D03*
%TD*%
%TO.C,D2*%
X155188375Y-98292249D03*
X154088375Y-98292249D03*
X154088375Y-96462249D03*
X155188375Y-96462249D03*
%TD*%
M02*
