M48
; DRILL file {KiCad (5.1.6)-1} date 11/24/20 12:42:48
; FORMAT={-:-/ absolute / inch / decimal}
; #@! TF.CreationDate,2020-11-24T12:42:48+11:00
; #@! TF.GenerationSoftware,Kicad,Pcbnew,(5.1.6)-1
FMAT,2
INCH
T1C0.0157
T2C0.0400
T3C0.0400
T4C0.0984
%
G90
G05
T1
X4.6308Y-3.8434
X4.7581Y-3.28
X4.9538Y-3.803
X5.007Y-3.6846
X5.017Y-3.0882
X5.6124Y-3.6803
X5.6146Y-4.1969
X5.9732Y-4.0488
T2
X6.2249Y-3.333
X6.2249Y-3.4511
X6.343Y-3.333
X6.343Y-3.4511
X6.2229Y-3.71
X6.2229Y-3.8281
X6.341Y-3.71
X6.341Y-3.8281
T3
X6.1863Y-3.2826
X6.1843Y-3.6596
T4
X7.3226Y-2.8583
X4.299Y-2.8583
X7.3226Y-4.226
X4.299Y-4.226
T0
M30
