<?xml version="1.0" standalone="no"?>
 <!DOCTYPE svg PUBLIC "-//W3C//DTD SVG 1.1//EN" 
 "http://www.w3.org/Graphics/SVG/1.1/DTD/svg11.dtd"> 
<svg
  xmlns:svg="http://www.w3.org/2000/svg"
  xmlns="http://www.w3.org/2000/svg"
  xmlns:xlink="http://www.w3.org/1999/xlink"
  version="1.1"
  width="168.4782mm" height="145.7452mm" viewBox="0.0000 0.0000 168.4782 145.7452">
<title>SVG Image created as SELECT JETT PANEL-User_1.svg date 2023/04/16 04:28:05 </title>
  <desc>Image generated by PCBNEW </desc>
<g style="fill:#000000; fill-opacity:1.0000;stroke:#000000; stroke-opacity:1.0000;
stroke-linecap:round; stroke-linejoin:round;"
 transform="translate(0 0) scale(1 1)">
</g>
<g style="fill:#000000; fill-opacity:0.0; 
stroke:#000000; stroke-width:0.0000; stroke-opacity:1; 
stroke-linecap:round; stroke-linejoin:round;">
</g>
<g style="fill:#000000; fill-opacity:0.0; 
stroke:#000000; stroke-width:0.1000; stroke-opacity:1; 
stroke-linecap:round; stroke-linejoin:round;">
<path d="M32.3089 75.9514 A1.0000 1.0000 0.0 0 0 33.3089 74.9514" />
<path d="M23.8089 74.9514 A1.0000 1.0000 0.0 0 0 24.8089 75.9514" />
<path d="M32.3089 75.9514
L24.8089 75.9514
" />
<path d="M33.3089 58.9514 A1.0000 1.0000 0.0 0 0 32.3089 57.9514" />
<path d="M33.3089 58.9514
L33.3089 74.9514
" />
<path d="M24.8089 57.9514 A1.0000 1.0000 0.0 0 0 23.8089 58.9514" />
<path d="M23.8089 74.9514
L23.8089 58.9514
" />
<path d="M24.8089 57.9514
L32.3089 57.9514
" />
<path d="M31.8050 57.0294 A1.0000 1.0000 0.0 0 0 32.3656 57.2014" />
<path d="M36.0589 58.2014 A1.0000 1.0000 0.0 0 0 35.0589 57.2014" />
<path d="M31.0589 55.9938 A1.0000 1.0000 0.0 0 0 31.4983 56.8218" />
<path d="M32.3656 57.2014
L35.0589 57.2014
" />
<path d="M31.4983 56.8218
L31.8050 57.0294
" />
<path d="M21.5589 39.7014 A1.0000 1.0000 0.0 0 0 22.5589 40.7014" />
<path d="M24.4965 40.7014 A1.0000 1.0000 0.0 0 0 25.0658 40.5236" />
<path d="M24.4965 40.7014
L22.5589 40.7014
" />
<path d="M27.6281 38.7496 A1.0000 1.0000 0.0 0 0 28.0589 37.9274" />
<path d="M27.6281 38.7496
L25.0658 40.5236
" />
<path d="M28.0589 35.9514 A1.0000 1.0000 0.0 0 0 27.0589 34.9514" />
<path d="M28.0589 35.9514
L28.0589 37.9274
" />
<path d="M22.0444 35.4101 A1.0000 1.0000 0.0 0 0 21.5589 36.2676" />
<path d="M21.5589 39.7014
L21.5589 36.2676
" />
<path d="M23.0859 34.9514 A1.0000 1.0000 0.0 0 0 22.5714 35.0939" />
<path d="M23.0859 34.9514
L27.0589 34.9514
" />
<path d="M22.0444 35.4101
L22.5714 35.0939
" />
<path d="M140.8089 100.2014 A1.0000 1.0000 0.0 0 0 139.8089 101.2014" />
<path d="M139.2561 113.2278 A1.0000 1.0000 0.0 0 0 139.8089 112.3333" />
<path d="M139.8089 112.3333
L139.8089 101.2014
" />
<path d="M137.3617 114.1750 A1.0000 1.0000 0.0 0 0 136.8089 115.0694" />
<path d="M137.3617 114.1750
L139.2561 113.2278
" />
<path d="M145.9089 113.0014 A1.0000 1.0000 0.0 0 0 146.3089 112.2014" />
<path d="M143.7089 114.6514 A1.0000 1.0000 0.0 0 0 143.3089 115.4514" />
<path d="M145.9089 113.0014
L143.7089 114.6514
" />
<path d="M147.0817 107.7710 A1.0000 1.0000 0.0 0 0 146.3089 108.7449" />
<path d="M146.3089 108.7449
L146.3089 112.2014
" />
<path d="M153.8089 101.2014 A1.0000 1.0000 0.0 0 0 152.8089 100.2014" />
<path d="M140.8089 100.2014
L152.8089 100.2014
" />
<path d="M153.0362 106.3817 A1.0000 1.0000 0.0 0 0 153.8089 105.4079" />
<path d="M153.0361 106.3817
L147.0817 107.7711
" />
<path d="M153.8089 101.2014
L153.8089 105.4079
" />
<path d="M136.8089 119.2014 A1.0000 1.0000 0.0 0 0 137.8089 120.2014" />
<path d="M136.8089 119.2014
L136.8089 115.0694
" />
<path d="M142.3089 120.2014 A1.0000 1.0000 0.0 0 0 143.3089 119.2014" />
<path d="M143.3089 115.4514
L143.3089 119.2014
" />
<path d="M142.3089 120.2014
L137.8089 120.2014
" />
<path d="M160.3352 91.7014 A0.9985 0.9985 0.0 0 0 160.2827 91.7028" />
<path d="M155.5326 91.9514 A0.9985 0.9985 0.0 0 0 155.5852 91.9500" />
<path d="M160.2827 91.7028
L155.5852 91.9500
" />
<path d="M165.3089 91.7014 A1.0000 1.0000 0.0 0 0 166.3089 90.7014" />
<path d="M165.3089 91.7014
L160.3352 91.7014
" />
<path d="M159.3229 86.2014 A1.0000 1.0000 0.0 0 0 159.7701 86.0958" />
<path d="M166.3089 86.9514 A1.0000 1.0000 0.0 0 0 165.3089 85.9514" />
<path d="M166.3089 86.9514
L166.3089 90.7014
" />
<path d="M160.2950 85.9514 A1.0000 1.0000 0.0 0 0 159.8478 86.0570" />
<path d="M159.7701 86.0958
L159.8478 86.0570
" />
<path d="M160.2950 85.9514
L165.3089 85.9514
" />
<path d="M139.5589 90.9514 A1.0000 1.0000 0.0 0 0 140.5589 91.9514" />
<path d="M155.5326 91.9514
L140.5589 91.9514
" />
<path d="M140.5589 86.2014 A1.0000 1.0000 0.0 0 0 139.5589 87.2014" />
<path d="M140.5589 86.2014
L159.3228 86.2014
" />
<path d="M139.5589 90.9514
L139.5589 87.2014
" />
<path d="M150.8592 83.5767 A1.0000 1.0000 0.0 0 0 150.0783 83.2014" />
<path d="M137.3089 82.2014 A1.0000 1.0000 0.0 0 0 138.3089 83.2014" />
<path d="M150.0783 83.2014
L138.3089 83.2014
" />
<path d="M151.2587 84.0761 A1.0000 1.0000 0.0 0 0 152.0395 84.4514" />
<path d="M151.2587 84.0761
L150.8592 83.5767
" />
<path d="M153.7427 84.4514 A1.0000 1.0000 0.0 0 0 154.6002 83.9659" />
<path d="M153.7427 84.4514
L152.0395 84.4514
" />
<path d="M161.5354 83.3272 A1.0000 1.0000 0.0 0 0 161.0498 83.2014" />
<path d="M155.6251 83.2014 A1.0000 1.0000 0.0 0 0 154.7676 83.6869" />
<path d="M154.7676 83.6869
L154.6002 83.9659
" />
<path d="M161.0498 83.2014
L155.6251 83.2014
" />
<path d="M138.3089 76.9514 A1.0000 1.0000 0.0 0 0 137.3089 77.9514" />
<path d="M137.3089 82.2014
L137.3089 77.9514
" />
<path d="M166.3089 77.9514 A1.0000 1.0000 0.0 0 0 165.3089 76.9514" />
<path d="M138.3089 76.9514
L165.3089 76.9514
" />
<path d="M163.3324 84.3256 A1.0000 1.0000 0.0 0 0 163.8180 84.4514" />
<path d="M163.3324 84.3255
L161.5354 83.3272
" />
<path d="M165.3089 84.4514 A1.0000 1.0000 0.0 0 0 166.3089 83.4514" />
<path d="M166.3089 77.9514
L166.3089 83.4514
" />
<path d="M165.3089 84.4514
L163.8180 84.4514
" />
<path d="M166.3089 69.4514 A1.0000 1.0000 0.0 0 0 165.3089 68.4514" />
<path d="M140.3089 68.4514 A1.0000 1.0000 0.0 0 0 139.3089 69.4514" />
<path d="M140.3089 68.4514
L165.3089 68.4514
" />
<path d="M139.3089 73.4514 A1.0000 1.0000 0.0 0 0 140.3089 74.4514" />
<path d="M139.3089 73.4514
L139.3089 69.4514
" />
<path d="M152.5978 76.0958 A1.0000 1.0000 0.0 0 0 153.0450 76.2014" />
<path d="M149.5201 74.5570 A1.0000 1.0000 0.0 0 0 149.0728 74.4514" />
<path d="M149.0728 74.4514
L140.3089 74.4514
" />
<path d="M152.5978 76.0958
L149.5201 74.5570
" />
<path d="M154.9658 76.2014 A1.0000 1.0000 0.0 0 0 155.5798 75.9907" />
<path d="M154.9658 76.2014
L153.0450 76.2014
" />
<path d="M165.3089 74.4514 A1.0000 1.0000 0.0 0 0 166.3089 73.4514" />
<path d="M166.3089 69.4514
L166.3089 73.4514
" />
<path d="M157.9020 74.4514 A1.0000 1.0000 0.0 0 0 157.2881 74.6620" />
<path d="M157.2881 74.6620
L155.5798 75.9907
" />
<path d="M165.3089 74.4514
L157.9020 74.4514
" />
<path d="M158.0339 64.9258 A1.0000 1.0000 0.0 0 0 159.0589 63.9261" />
<path d="M149.1705 64.7042 A1.0001 1.0001 0.0 0 0 148.9494 64.7233" />
<path d="M158.0339 64.9258
L149.1705 64.7042
" />
<path d="M159.0589 62.2542 A1.0000 1.0000 0.0 0 0 158.8910 61.6995" />
<path d="M159.0589 62.2542
L159.0589 63.9261
" />
<path d="M157.3558 59.3967 A1.0000 1.0000 0.0 0 0 156.5237 58.9514" />
<path d="M157.3558 59.3967
L158.8910 61.6995
" />
<path d="M147.7099 64.9514 A1.0001 1.0001 0.0 0 0 147.9060 64.9320" />
<path d="M148.9494 64.7233
L147.9060 64.9320
" />
<path d="M141.3089 58.9514 A1.0000 1.0000 0.0 0 0 140.3089 59.9514" />
<path d="M141.3089 58.9514
L156.5237 58.9514
" />
<path d="M140.3089 63.9514 A1.0000 1.0000 0.0 0 0 141.3089 64.9514" />
<path d="M147.7099 64.9514
L141.3089 64.9514
" />
<path d="M140.3089 63.9514
L140.3089 59.9514
" />
<path d="M111.0589 70.4514 A1.0000 1.0000 0.0 0 0 112.0589 71.4514" />
<path d="M135.3089 71.4514 A1.0000 1.0000 0.0 0 0 136.3089 70.4514" />
<path d="M135.3089 71.4514
L112.0589 71.4514
" />
<path d="M112.0589 65.4514 A1.0000 1.0000 0.0 0 0 111.0589 66.4514" />
<path d="M111.0589 70.4514
L111.0589 66.4514
" />
<path d="M136.3089 66.4514 A1.0000 1.0000 0.0 0 0 135.3089 65.4514" />
<path d="M136.3089 66.4514
L136.3089 70.4514
" />
<path d="M112.0589 65.4514
L135.3089 65.4514
" />
<path d="M148.0589 44.4346 A1.0000 1.0000 0.0 0 0 149.0756 45.4344" />
<path d="M149.0589 39.2014 A1.0000 1.0000 0.0 0 0 148.0589 40.2014" />
<path d="M148.0589 44.4346
L148.0589 40.2014
" />
<path d="M162.0756 45.2177 A1.0000 1.0000 0.0 0 0 163.0589 44.2179" />
<path d="M162.0756 45.2178
L149.0756 45.4344
" />
<path d="M163.0589 40.2014 A1.0000 1.0000 0.0 0 0 162.0589 39.2014" />
<path d="M149.0589 39.2014
L162.0589 39.2014
" />
<path d="M163.0589 40.2014
L163.0589 44.2179
" />
<path d="M147.3229 24.4514 A1.0000 1.0000 0.0 0 0 147.7701 24.3458" />
<path d="M149.2950 23.7014 A1.0000 1.0000 0.0 0 0 148.8478 23.8070" />
<path d="M147.7701 24.3458
L148.8478 23.8070
" />
<path d="M153.6639 31.2013 A1.0000 1.0000 0.0 0 0 154.6578 30.3118" />
<path d="M152.1883 31.2014 A1.0000 1.0000 0.0 0 0 151.9338 31.2343" />
<path d="M153.6639 31.2014
L152.1883 31.2014
" />
<path d="M155.2687 24.8134 A1.0000 1.0000 0.0 0 0 155.1069 24.1483" />
<path d="M155.2687 24.8134
L154.6578 30.3118
" />
<path d="M155.1058 24.1467 A1.0000 1.0000 0.0 0 0 154.2737 23.7014" />
<path d="M149.2950 23.7014
L154.2737 23.7014
" />
<path d="M155.1058 24.1467
L155.1069 24.1483
" />
<path d="M144.2982 32.2651 A1.0000 1.0000 0.0 0 0 144.8794 32.4514" />
<path d="M147.1795 32.4514 A1.0000 1.0000 0.0 0 0 147.4340 32.4185" />
<path d="M151.9338 31.2343
L147.4340 32.4185
" />
<path d="M147.1795 32.4514
L144.8794 32.4514
" />
<path d="M142.0589 24.4514 A1.0000 1.0000 0.0 0 0 141.0589 25.4514" />
<path d="M142.0589 24.4514
L147.3228 24.4514
" />
<path d="M141.0589 29.4368 A1.0000 1.0000 0.0 0 0 141.4777 30.2505" />
<path d="M144.2981 32.2651
L141.4777 30.2505
" />
<path d="M141.0589 29.4368
L141.0589 25.4514
" />
<path d="M87.3585 41.0554 A1.0000 1.0000 0.0 0 0 86.5951 40.7014" />
<path d="M89.8089 44.3177 A1.0000 1.0000 0.0 0 0 89.5723 43.6717" />
<path d="M87.3585 41.0554
L89.5723 43.6717
" />
<path d="M88.8089 46.9514 A1.0000 1.0000 0.0 0 0 89.8089 45.9514" />
<path d="M89.8089 44.3177
L89.8089 45.9514
" />
<path d="M74.5589 40.7014 A1.0000 1.0000 0.0 0 0 73.5589 41.7014" />
<path d="M74.5589 40.7014
L86.5951 40.7014
" />
<path d="M73.5589 45.9514 A1.0000 1.0000 0.0 0 0 74.5589 46.9514" />
<path d="M88.8089 46.9514
L74.5589 46.9514
" />
<path d="M73.5589 45.9514
L73.5589 41.7014
" />
<path d="M68.5589 54.9514 A1.0000 1.0000 0.0 0 0 69.5589 55.9514" />
<path d="M76.8089 56.9514 A1.0000 1.0000 0.0 0 0 75.8089 55.9514" />
<path d="M75.8089 55.9514
L69.5589 55.9514
" />
<path d="M76.8089 60.9514 A1.0000 1.0000 0.0 0 0 77.8089 61.9514" />
<path d="M76.8089 60.9514
L76.8089 56.9514
" />
<path d="M93.8089 53.0138 A1.0000 1.0000 0.0 0 0 93.6311 52.4446" />
<path d="M83.7379 61.9514 A0.9998 0.9998 0.0 0 0 83.8793 61.9413" />
<path d="M83.7378 61.9514
L77.8089 61.9514
" />
<path d="M84.7700 61.8142 A1.0000 1.0000 0.0 0 0 85.6251 60.9072" />
<path d="M84.7700 61.8141
L83.8793 61.9413
" />
<path d="M92.8089 55.7014 A1.0000 1.0000 0.0 0 0 93.8089 54.7014" />
<path d="M93.8089 53.0138
L93.8089 54.7014
" />
<path d="M86.9791 55.7014 A1.0000 1.0000 0.0 0 0 85.9825 56.6183" />
<path d="M85.9825 56.6183
L85.6251 60.9072
" />
<path d="M92.8089 55.7014
L86.9791 55.7014
" />
<path d="M91.8571 49.8822 A1.0000 1.0000 0.0 0 0 91.0350 49.4514" />
<path d="M91.8572 49.8822
L93.6311 52.4445
" />
<path d="M69.5589 49.4514 A1.0000 1.0000 0.0 0 0 68.5589 50.4514" />
<path d="M68.5589 54.9514
L68.5589 50.4514
" />
<path d="M69.5589 49.4514
L91.0350 49.4514
" />
<path d="M88.8089 68.2014 A1.0000 1.0000 0.0 0 0 87.8089 69.2014" />
<path d="M87.8089 72.9514 A1.0000 1.0000 0.0 0 0 88.8089 73.9514" />
<path d="M87.8089 72.9514
L87.8089 69.2014
" />
<path d="M94.3089 69.2014 A1.0000 1.0000 0.0 0 0 93.3089 68.2014" />
<path d="M88.8089 68.2014
L93.3089 68.2014
" />
<path d="M93.3089 73.9514 A1.0000 1.0000 0.0 0 0 94.3089 72.9514" />
<path d="M93.3089 73.9514
L88.8089 73.9514
" />
<path d="M94.3089 69.2014
L94.3089 72.9514
" />
<path d="M73.4674 73.7502 A1.0000 1.0000 0.0 0 0 73.8089 72.9976" />
<path d="M73.8089 68.9514 A1.0000 1.0000 0.0 0 0 72.8089 67.9514" />
<path d="M73.8089 68.9514
L73.8089 72.9976
" />
<path d="M67.3089 72.6922 A1.0000 1.0000 0.0 0 0 67.7207 73.5009" />
<path d="M68.3089 67.9514 A1.0000 1.0000 0.0 0 0 67.3089 68.9514" />
<path d="M68.3089 67.9514
L72.8089 67.9514
" />
<path d="M67.3089 72.6922
L67.3089 68.9514
" />
<path d="M71.4332 75.2014 A1.0000 1.0000 0.0 0 0 72.0917 74.9540" />
<path d="M73.4674 73.7502
L72.0917 74.9540
" />
<path d="M69.7959 75.0101 A1.0000 1.0000 0.0 0 0 70.3841 75.2014" />
<path d="M69.7959 75.0101
L67.7207 73.5009
" />
<path d="M71.4332 75.2014
L70.3841 75.2014
" />
<path d="M84.0589 81.4514 A1.0000 1.0000 0.0 0 0 83.0589 80.4514" />
<path d="M78.5589 80.4514 A1.0000 1.0000 0.0 0 0 77.5589 81.4514" />
<path d="M78.5589 80.4514
L83.0589 80.4514
" />
<path d="M83.0589 86.4514 A1.0000 1.0000 0.0 0 0 84.0589 85.4514" />
<path d="M84.0589 81.4514
L84.0589 85.4514
" />
<path d="M77.5589 85.4514 A1.0000 1.0000 0.0 0 0 78.5589 86.4514" />
<path d="M77.5589 85.4514
L77.5589 81.4514
" />
<path d="M83.0589 86.4514
L78.5589 86.4514
" />
<path d="M40.5589 126.9514 A1.0000 1.0000 0.0 0 0 41.5589 125.9514" />
<path d="M41.5589 121.9514 A1.0000 1.0000 0.0 0 0 40.5589 120.9514" />
<path d="M41.5589 121.9514
L41.5589 125.9514
" />
<path d="M34.8089 125.9514 A1.0000 1.0000 0.0 0 0 35.8089 126.9514" />
<path d="M40.5589 126.9514
L35.8089 126.9514
" />
<path d="M35.8089 120.9514 A1.0000 1.0000 0.0 0 0 34.8089 121.9514" />
<path d="M35.8089 120.9514
L40.5589 120.9514
" />
<path d="M34.8089 125.9514
L34.8089 121.9514
" />
<path d="M14.5589 125.9876 A1.0000 1.0000 0.0 0 0 14.9130 126.7510" />
<path d="M15.5589 120.7014 A1.0000 1.0000 0.0 0 0 14.5589 121.7014" />
<path d="M14.5589 121.7014
L14.5589 125.9876
" />
<path d="M17.5293 128.9648 A1.0000 1.0000 0.0 0 0 18.1752 129.2014" />
<path d="M14.9130 126.7510
L17.5293 128.9648
" />
<path d="M18.7345 129.2014 A1.0000 1.0000 0.0 0 0 19.5983 128.7053" />
<path d="M18.1752 129.2014
L18.7345 129.2014
" />
<path d="M20.9227 126.4349 A1.0000 1.0000 0.0 0 0 21.0589 125.9310" />
<path d="M19.5983 128.7053
L20.9227 126.4349
" />
<path d="M21.0589 121.7014 A1.0000 1.0000 0.0 0 0 20.0589 120.7014" />
<path d="M20.0589 120.7014
L15.5589 120.7014
" />
<path d="M21.0589 125.9310
L21.0589 121.7014
" />
<path d="M17.3089 136.6352 A1.0000 1.0000 0.0 0 0 17.7944 137.4927" />
<path d="M18.3089 131.7014 A1.0000 1.0000 0.0 0 0 17.3089 132.7014" />
<path d="M17.3089 136.6352
L17.3089 132.7014
" />
<path d="M20.8214 139.3089 A1.0000 1.0000 0.0 0 0 21.3359 139.4514" />
<path d="M20.8214 139.3089
L17.7944 137.4927
" />
<path d="M24.7664 137.9432 A1.0000 1.0000 0.0 0 0 24.0160 138.3029" />
<path d="M22.5905 139.4514 A1.0000 1.0000 0.0 0 0 23.3588 139.0916" />
<path d="M22.5905 139.4514
L21.3359 139.4514
" />
<path d="M24.0160 138.3029
L23.3588 139.0916
" />
<path d="M38.3089 132.7014 A1.0000 1.0000 0.0 0 0 37.3089 131.7014" />
<path d="M18.3089 131.7014
L37.3089 131.7014
" />
<path d="M37.3268 137.7189 A1.0000 1.0000 0.0 0 0 38.3089 136.7191" />
<path d="M37.3268 137.7189
L24.7664 137.9432
" />
<path d="M38.3089 132.7014
L38.3089 136.7191
" />
<path d="M34.8483 95.9475 A1.0000 1.0000 0.0 0 0 33.9845 95.4514" />
<path d="M41.1521 108.2511 A1.0000 1.0000 0.0 0 0 41.5589 107.4461" />
<path d="M37.2157 111.1516 A1.0000 1.0000 0.0 0 0 36.8089 111.9567" />
<path d="M41.1521 108.2511
L37.2157 111.1516
" />
<path d="M36.3089 98.7217 A1.0000 1.0000 0.0 0 0 36.1727 98.2179" />
<path d="M34.8483 95.9475
L36.1727 98.2179
" />
<path d="M36.3089 101.5203 A1.0000 1.0000 0.0 0 0 37.2377 102.5177" />
<path d="M36.3089 98.7217
L36.3089 101.5203
" />
<path d="M41.5589 105.7426 A1.0000 1.0000 0.0 0 0 41.4026 105.2057" />
<path d="M41.5589 105.7426
L41.5589 107.4461
" />
<path d="M40.0792 103.1261 A1.0000 1.0000 0.0 0 0 39.3068 102.6655" />
<path d="M37.2377 102.5177
L39.3068 102.6655
" />
<path d="M40.0792 103.1261
L41.4026 105.2057
" />
<path d="M20.3089 113.9514 A1.0000 1.0000 0.0 0 0 21.3089 114.9514" />
<path d="M35.8089 114.9514 A1.0000 1.0000 0.0 0 0 36.8089 113.9514" />
<path d="M36.8089 111.9567
L36.8089 113.9514
" />
<path d="M35.8089 114.9514
L21.3089 114.9514
" />
<path d="M20.3089 110.5694 A1.0000 1.0000 0.0 0 0 19.7561 109.6750" />
<path d="M20.3089 113.9514
L20.3089 110.5694
" />
<path d="M16.3089 107.3333 A1.0000 1.0000 0.0 0 0 16.8617 108.2278" />
<path d="M19.7561 109.6750
L16.8617 108.2278
" />
<path d="M21.0589 95.4514 A1.0000 1.0000 0.0 0 0 20.0589 96.4514" />
<path d="M21.0589 95.4514
L33.9845 95.4514
" />
<path d="M16.6540 102.4023 A1.0000 1.0000 0.0 0 0 16.3089 103.1580" />
<path d="M16.3089 107.3333
L16.3089 103.1580
" />
<path d="M19.7139 99.7505 A1.0000 1.0000 0.0 0 0 20.0589 98.9948" />
<path d="M20.0589 98.9948
L20.0589 96.4514
" />
<path d="M16.6540 102.4023
L19.7138 99.7504
" />
<path d="M58.3089 81.7014 A1.0000 1.0000 0.0 0 0 59.3089 80.7014" />
<path d="M51.0589 80.7014 A1.0000 1.0000 0.0 0 0 52.0589 81.7014" />
<path d="M58.3089 81.7014
L52.0589 81.7014
" />
<path d="M59.3089 76.7014 A1.0000 1.0000 0.0 0 0 58.3089 75.7014" />
<path d="M59.3089 76.7014
L59.3089 80.7014
" />
<path d="M52.0589 75.7014 A1.0000 1.0000 0.0 0 0 51.0589 76.7014" />
<path d="M51.0589 80.7014
L51.0589 76.7014
" />
<path d="M52.0589 75.7014
L58.3089 75.7014
" />
<path d="M36.3089 86.2014 A1.0000 1.0000 0.0 0 0 35.3089 87.2014" />
<path d="M41.8089 87.2014 A1.0000 1.0000 0.0 0 0 40.8089 86.2014" />
<path d="M36.3089 86.2014
L40.8089 86.2014
" />
<path d="M35.3089 91.2014 A1.0000 1.0000 0.0 0 0 36.3089 92.2014" />
<path d="M35.3089 91.2014
L35.3089 87.2014
" />
<path d="M40.8089 92.2014 A1.0000 1.0000 0.0 0 0 41.8089 91.2014" />
<path d="M41.8089 87.2014
L41.8089 91.2014
" />
<path d="M40.8089 92.2014
L36.3089 92.2014
" />
<path d="M46.5589 92.7014 A1.0000 1.0000 0.0 0 0 47.5589 93.7014" />
<path d="M51.8089 93.7014 A1.0000 1.0000 0.0 0 0 52.8089 92.7014" />
<path d="M51.8089 93.7014
L47.5589 93.7014
" />
<path d="M47.5589 86.2014 A1.0000 1.0000 0.0 0 0 46.5589 87.2014" />
<path d="M46.5589 92.7014
L46.5589 87.2014
" />
<path d="M52.8089 87.2014 A1.0000 1.0000 0.0 0 0 51.8089 86.2014" />
<path d="M52.8089 87.2014
L52.8089 92.7014
" />
<path d="M47.5589 86.2014
L51.8089 86.2014
" />
<path d="M37.0589 78.4514 A1.0000 1.0000 0.0 0 0 36.0589 77.4514" />
<path d="M36.0589 84.7014 A1.0000 1.0000 0.0 0 0 37.0589 83.7014" />
<path d="M37.0589 78.4514
L37.0589 83.7014
" />
<path d="M31.5589 77.4514 A1.0000 1.0000 0.0 0 0 30.5589 78.4514" />
<path d="M31.5589 77.4514
L36.0589 77.4514
" />
<path d="M30.5589 83.7014 A1.0000 1.0000 0.0 0 0 31.5589 84.7014" />
<path d="M36.0589 84.7014
L31.5589 84.7014
" />
<path d="M30.5589 83.7014
L30.5589 78.4514
" />
<path d="M56.8089 42.2014 A1.0000 1.0000 0.0 0 0 55.8089 41.2014" />
<path d="M34.5589 41.2014 A1.0000 1.0000 0.0 0 0 33.5589 42.2014" />
<path d="M34.5589 41.2014
L55.8089 41.2014
" />
<path d="M55.8089 48.4514 A1.0000 1.0000 0.0 0 0 56.8089 47.4514" />
<path d="M56.8089 42.2014
L56.8089 47.4514
" />
<path d="M33.5589 47.4514 A1.0000 1.0000 0.0 0 0 34.5589 48.4514" />
<path d="M33.5589 47.4514
L33.5589 42.2014
" />
<path d="M55.8089 48.4514
L34.5589 48.4514
" />
<path d="M56.3089 52.4514 A1.0000 1.0000 0.0 0 0 55.3089 51.4514" />
<path d="M32.0589 51.4514 A1.0000 1.0000 0.0 0 0 31.0589 52.4514" />
<path d="M55.3089 51.4514
L32.0589 51.4514
" />
<path d="M31.0589 52.4514
L31.0589 55.9938
" />
<path d="M55.6897 56.9564 A1.0000 1.0000 0.0 0 0 56.3089 56.0317" />
<path d="M56.3089 56.0317
L56.3089 52.4514
" />
<path d="M51.9939 63.1228 A1.0000 1.0000 0.0 0 0 52.0589 62.7681" />
<path d="M52.6782 58.1964 A1.0000 1.0000 0.0 0 0 52.0589 59.1211" />
<path d="M52.6782 58.1964
L55.6897 56.9564
" />
<path d="M52.0589 62.7681
L52.0589 59.1211
" />
<path d="M48.6187 70.2014 A1.0000 1.0000 0.0 0 0 49.5537 69.5560" />
<path d="M49.5537 69.5560
L51.9939 63.1228
" />
<path d="M36.0590 63.5740 A1.0000 1.0000 0.0 0 0 36.3082 64.2347" />
<path d="M36.0589 58.2014
L36.0589 63.5740
" />
<path d="M41.2603 69.8620 A1.0000 1.0000 0.0 0 0 42.0110 70.2014" />
<path d="M42.0110 70.2014
L48.6187 70.2014
" />
<path d="M36.3082 64.2347
L41.2603 69.8620
" />
<path d="M31.8089 29.2014 A1.0000 1.0000 0.0 0 0 30.8089 30.2014" />
<path d="M30.8089 33.7014 A1.0000 1.0000 0.0 0 0 31.8089 34.7014" />
<path d="M30.8089 33.7014
L30.8089 30.2014
" />
<path d="M37.3089 30.2014 A1.0000 1.0000 0.0 0 0 36.3089 29.2014" />
<path d="M31.8089 29.2014
L36.3089 29.2014
" />
<path d="M36.3089 34.7014 A1.0000 1.0000 0.0 0 0 37.3089 33.7014" />
<path d="M36.3089 34.7014
L31.8089 34.7014
" />
<path d="M37.3089 30.2014
L37.3089 33.7014
" />
<path d="M59.8089 30.4514 A1.0000 1.0000 0.0 0 0 58.8089 29.4514" />
<path d="M58.8089 34.9514 A1.0000 1.0000 0.0 0 0 59.8089 33.9514" />
<path d="M52.5589 29.4514 A1.0000 1.0000 0.0 0 0 51.5589 30.4514" />
<path d="M51.5589 33.9514 A1.0000 1.0000 0.0 0 0 52.5589 34.9514" />
<path d="M72.8089 35.4514 A1.0000 1.0000 0.0 0 0 73.8089 34.4514" />
<path d="M73.8089 30.4514 A1.0000 1.0000 0.0 0 0 72.8089 29.4514" />
<path d="M67.3089 34.4514 A1.0000 1.0000 0.0 0 0 68.3089 35.4514" />
<path d="M68.3089 29.4514 A1.0000 1.0000 0.0 0 0 67.3089 30.4514" />
<path d="M95.8089 30.2014 A1.0000 1.0000 0.0 0 0 94.8089 29.2014" />
<path d="M88.5589 29.2014 A1.0000 1.0000 0.0 0 0 87.5589 30.2014" />
<path d="M94.8089 34.9514 A1.0000 1.0000 0.0 0 0 95.8089 33.9514" />
<path d="M87.5589 33.9514 A1.0000 1.0000 0.0 0 0 88.5589 34.9514" />
<path d="M113.0160 32.4085 A1.0000 1.0000 0.0 0 0 113.7231 32.7014" />
<path d="M116.0589 26.2014 A1.0000 1.0000 0.0 0 0 115.0589 25.2014" />
<path d="M115.0589 32.7014 A1.0000 1.0000 0.0 0 0 116.0589 31.7014" />
<path d="M101.5589 28.4806 A1.0000 1.0000 0.0 0 0 102.2427 29.4293" />
<path d="M102.5589 23.2014 A1.0000 1.0000 0.0 0 0 101.5589 24.2014" />
<path d="M108.3089 24.2014 A1.0000 1.0000 0.0 0 0 107.3089 23.2014" />
<path d="M108.3089 24.2014 A1.0000 1.0000 0.0 0 0 109.3089 25.2014" />
<path d="M112.3291 31.7215 A1.0000 1.0000 0.0 0 0 111.6774 31.4302" />
<path d="M107.4319 31.1590 A1.0000 1.0000 0.0 0 0 107.6926 31.2088" />
<path d="M143.5589 18.4514 A1.0000 1.0000 0.0 0 0 144.5589 17.4514" />
<path d="M104.5589 10.9514 A1.0000 1.0000 0.0 0 0 103.5589 11.9514" />
<path d="M103.5589 15.7014 A1.0000 1.0000 0.0 0 0 104.5589 16.7014" />
<path d="M144.5589 11.9514 A1.0000 1.0000 0.0 0 0 143.5589 10.9514" />
<path d="M137.8089 18.4514 A1.0000 1.0000 0.0 0 0 136.8089 19.4514" />
<path d="M135.8089 24.7014 A1.0000 1.0000 0.0 0 0 136.8089 23.7014" />
<path d="M118.3581 17.1178 A1.0000 1.0000 0.0 0 0 117.5462 16.7014" />
<path d="M123.5097 24.2850 A1.0000 1.0000 0.0 0 0 124.3217 24.7014" />
</g>
<g style="fill:#000000; fill-opacity:0.0; 
stroke:#000000; stroke-width:0.2000; stroke-opacity:1; 
stroke-linecap:round; stroke-linejoin:round;">
<path style="fill:#000000; fill-opacity:0.0; 
stroke:#000000; stroke-width:0.2000; stroke-opacity:1; 
stroke-linecap:round; stroke-linejoin:round;fill:none"
d="M 114.8568,19.9864
114.9957,19.9999
115.1336,20.0224
115.2702,20.0540
115.4049,20.0945
115.5374,20.1441
115.6672,20.2027
115.7938,20.2703
115.9157,20.3461
116.0313,20.4292
116.1405,20.5192
116.2430,20.6156
116.3386,20.7181
116.4271,20.8263
116.5082,20.9398
116.5818,21.0582
116.6475,21.1811
116.7052,21.3081
116.7547,21.4388
116.7957,21.5728
116.8279,21.7098
116.8512,21.8494
116.8654,21.9911
116.8702,22.1345
116.8690,22.2064
116.8654,22.2780
116.8595,22.3490
116.8512,22.4196
116.8407,22.4897
116.8279,22.5592
116.8129,22.6280
116.7957,22.6962
116.7762,22.7636
116.7547,22.8302
116.7310,22.8960
116.7052,22.9609
116.6774,23.0249
116.6475,23.0879
116.6156,23.1499
116.5818,23.2108
116.5460,23.2706
116.5082,23.3292
116.4686,23.3866
116.4271,23.4427
116.3837,23.4975
116.3386,23.5509
116.2917,23.6029
116.2430,23.6534
116.1926,23.7024
116.1405,23.7498
116.0867,23.7956
116.0313,23.8398
115.9743,23.8822
115.9157,23.9229
115.8555,23.9618
115.7938,23.9988
115.6672,24.0663
115.5374,24.1249
115.4049,24.1745
115.2702,24.2151
115.1336,24.2466
114.9957,24.2691
114.8568,24.2826
114.7175,24.2872
114.5782,24.2826
114.4394,24.2691
114.3014,24.2466
114.1649,24.2151
114.0301,24.1745
113.8976,24.1249
113.7678,24.0663
113.6412,23.9988
113.5193,23.9229
113.4037,23.8398
113.2945,23.7498
113.1920,23.6534
113.0964,23.5509
113.0079,23.4427
112.9268,23.3292
112.8533,23.2108
112.7875,23.0879
112.7298,22.9609
112.6804,22.8302
112.6394,22.6962
112.6071,22.5592
112.5838,22.4196
112.5696,22.2780
112.5649,22.1345
112.5661,22.0626
112.5696,21.9911
112.5756,21.9200
112.5838,21.8494
112.5943,21.7793
112.6071,21.7098
112.6221,21.6410
112.6394,21.5728
112.6588,21.5054
112.6804,21.4388
112.7040,21.3730
112.7298,21.3081
112.7576,21.2441
112.7875,21.1811
112.8194,21.1191
112.8533,21.0582
112.8891,20.9984
112.9268,20.9398
112.9664,20.8824
113.0079,20.8263
113.0513,20.7715
113.0964,20.7181
113.1434,20.6661
113.1920,20.6156
113.2424,20.5666
113.2945,20.5192
113.3483,20.4734
113.4037,20.4292
113.4607,20.3868
113.5193,20.3461
113.5795,20.3072
113.6412,20.2703
113.7678,20.2027
113.8976,20.1441
114.0301,20.0945
114.1649,20.0540
114.3014,20.0224
114.4394,19.9999
114.5782,19.9864
114.7175,19.9819
Z" /> 
<path style="fill:#000000; fill-opacity:0.0; 
stroke:#000000; stroke-width:0.2000; stroke-opacity:1; 
stroke-linecap:round; stroke-linejoin:round;fill:none"
d="M 143.4319,19.9834
143.5709,19.9970
143.7089,20.0195
143.8456,20.0511
143.9805,20.0918
144.1131,20.1414
144.2430,20.2001
144.3697,20.2678
144.4916,20.3438
144.6073,20.4270
144.7165,20.5171
144.8190,20.6137
144.9146,20.7164
145.0031,20.8247
145.0842,20.9384
145.1577,21.0569
145.2234,21.1800
145.2811,21.3071
145.3304,21.4380
145.3713,21.5722
145.4034,21.7094
145.4266,21.8491
145.4406,21.9909
145.4452,22.1345
145.4441,22.2065
145.4406,22.2781
145.4348,22.3492
145.4266,22.4199
145.4161,22.4901
145.4034,22.5596
145.3885,22.6285
145.3713,22.6967
145.3519,22.7642
145.3304,22.8310
145.3068,22.8968
145.2811,22.9618
145.2533,23.0259
145.2234,23.0890
145.1916,23.1511
145.1577,23.2121
145.1220,23.2719
145.0842,23.3306
145.0446,23.3881
145.0031,23.4442
144.9598,23.4991
144.9147,23.5526
144.8677,23.6047
144.8191,23.6553
144.7686,23.7043
144.7165,23.7518
144.6627,23.7977
144.6073,23.8420
144.5503,23.8845
144.4916,23.9252
144.4314,23.9641
144.3697,24.0012
144.2430,24.0689
144.1131,24.1276
143.9805,24.1772
143.8457,24.2178
143.7090,24.2494
143.5709,24.2720
143.4320,24.2856
143.2925,24.2901
143.1531,24.2856
143.0142,24.2720
142.8761,24.2495
142.7394,24.2179
142.6046,24.1772
142.4720,24.1276
142.3421,24.0689
142.2154,24.0012
142.0935,23.9252
141.9778,23.8420
141.8686,23.7519
141.7660,23.6553
141.6704,23.5526
141.5819,23.4443
141.5008,23.3306
141.4273,23.2121
141.3616,23.0890
141.3040,22.9619
141.2546,22.8310
141.2138,22.6968
141.1816,22.5596
141.1584,22.4199
141.1444,22.2781
141.1399,22.1345
141.1410,22.0625
141.1444,21.9909
141.1503,21.9198
141.1584,21.8491
141.1689,21.7790
141.1816,21.7094
141.1966,21.6405
141.2137,21.5723
141.2331,21.5048
141.2546,21.4381
141.2782,21.3722
141.3040,21.3072
141.3318,21.2431
141.3616,21.1800
141.3934,21.1179
141.4273,21.0570
141.4631,20.9971
141.5008,20.9384
141.5404,20.8810
141.5819,20.8248
141.6252,20.7699
141.6704,20.7164
141.7173,20.6643
141.7660,20.6137
141.8164,20.5647
141.8685,20.5172
141.9223,20.4713
141.9777,20.4271
142.0348,20.3846
142.0934,20.3438
142.1536,20.3049
142.2153,20.2678
142.3420,20.2001
142.4719,20.1414
142.6045,20.0918
142.7394,20.0512
142.8761,20.0196
143.0141,19.9970
143.1531,19.9834
143.2925,19.9789
Z" /> 
</g>
<g style="fill:#000000; fill-opacity:0.0; 
stroke:#000000; stroke-width:0.1000; stroke-opacity:1; 
stroke-linecap:round; stroke-linejoin:round;">
<path d="M88.8089 24.4514 A1.0000 1.0000 0.0 0 0 89.8089 23.4514" />
<path d="M89.8089 11.9514 A1.0000 1.0000 0.0 0 0 88.8089 10.9514" />
<path d="M73.0589 23.4514 A1.0000 1.0000 0.0 0 0 74.0589 24.4514" />
<path d="M74.0589 10.9514 A1.0000 1.0000 0.0 0 0 73.0589 11.9514" />
<path d="M25.8089 10.7014 A1.0000 1.0000 0.0 0 0 24.8089 11.7014" />
<path d="M63.8089 11.7014 A1.0000 1.0000 0.0 0 0 62.8089 10.7014" />
<path d="M63.3984 18.2510 A1.0000 1.0000 0.0 0 0 63.8089 17.4432" />
<path d="M24.8089 16.2361 A1.0000 1.0000 0.0 0 0 25.1648 17.0011" />
<path d="M54.2328 24.7014 A1.0000 1.0000 0.0 0 0 54.8223 24.5092" />
<path d="M34.0298 24.4663 A1.0000 1.0000 0.0 0 0 34.6739 24.7014" />
<path d="M58.8089 29.4514
L52.5589 29.4514
" />
<path d="M59.8089 33.9514
L59.8089 30.4514
" />
<path d="M52.5589 34.9514
L58.8089 34.9514
" />
<path d="M51.5589 30.4514
L51.5589 33.9514
" />
<path d="M67.3089 34.4514
L67.3089 30.4514
" />
<path d="M72.8089 35.4514
L68.3089 35.4514
" />
<path d="M73.8089 30.4514
L73.8089 34.4514
" />
<path d="M68.3089 29.4514
L72.8089 29.4514
" />
<path d="M94.8089 29.2014
L88.5589 29.2014
" />
<path d="M95.8089 33.9514
L95.8089 30.2014
" />
<path d="M88.5589 34.9514
L94.8089 34.9514
" />
<path d="M87.5589 30.2014
L87.5589 33.9514
" />
<path d="M107.3089 23.2014
L102.5589 23.2014
" />
</g>
<g style="fill:#000000; fill-opacity:1.0000; 
stroke:#000000; stroke-width:0.0000; stroke-opacity:1; 
stroke-linecap:round; stroke-linejoin:round;">
<circle cx="108.3089" cy="24.2014" r="0.0500" /> 
</g>
<g style="fill:#000000; fill-opacity:1.0000; 
stroke:#000000; stroke-width:0.1000; stroke-opacity:1; 
stroke-linecap:round; stroke-linejoin:round;">
</g>
<g style="fill:#000000; fill-opacity:0.0; 
stroke:#000000; stroke-width:0.1000; stroke-opacity:1; 
stroke-linecap:round; stroke-linejoin:round;">
<path d="M115.0589 25.2014
L109.3089 25.2014
" />
<path d="M116.0589 31.7014
L116.0589 26.2014
" />
<path d="M113.7231 32.7014
L115.0589 32.7014
" />
<path d="M112.3291 31.7215
L113.0160 32.4085
" />
<path d="M107.6926 31.2088
L111.6774 31.4302
" />
<path d="M102.2427 29.4293
L107.4319 31.1590
" />
<path d="M101.5589 24.2014
L101.5589 28.4806
" />
<path d="M103.5589 15.7014
L103.5589 11.9514
" />
<path d="M117.5462 16.7014
L104.5589 16.7014
" />
<path d="M123.5097 24.2850
L118.3582 17.1177
" />
<path d="M135.8089 24.7014
L124.3217 24.7014
" />
<path d="M136.8089 19.4514
L136.8089 23.7014
" />
<path d="M143.5589 18.4514
L137.8089 18.4514
" />
<path d="M144.5589 11.9514
L144.5589 17.4514
" />
<path d="M104.5589 10.9514
L143.5589 10.9514
" />
<path d="M88.8089 10.9514
L74.0589 10.9514
" />
<path d="M89.8089 23.4514
L89.8089 11.9514
" />
<path d="M74.0589 24.4514
L88.8089 24.4514
" />
<path d="M73.0589 11.9514
L73.0589 23.4514
" />
<path d="M62.8089 10.7014
L25.8089 10.7014
" />
<path d="M63.8089 17.4432
L63.8089 11.7014
" />
<path d="M54.8223 24.5092
L63.3984 18.2510
" />
<path d="M34.6739 24.7014
L54.2328 24.7014
" />
<path d="M25.1648 17.0011
L34.0297 24.4663
" />
<path d="M24.8089 11.7014
L24.8089 16.2361
" />
</g>
<g style="fill:#000000; fill-opacity:0.0; 
stroke:#000000; stroke-width:0.2000; stroke-opacity:1; 
stroke-linecap:round; stroke-linejoin:round;">
<path style="fill:#000000; fill-opacity:0.0; 
stroke:#000000; stroke-width:0.2000; stroke-opacity:1; 
stroke-linecap:round; stroke-linejoin:round;fill:none"
d="M 28.4509,117.2708
28.8605,117.3107
29.2674,117.3771
29.6702,117.4702
30.0678,117.5898
30.4587,117.7360
30.8415,117.9088
31.2150,118.1082
31.5744,118.3320
31.9155,118.5772
32.2376,118.8425
32.5400,119.1270
32.8220,119.4294
33.0830,119.7485
33.3223,120.0833
33.5393,120.4325
33.7332,120.7950
33.9035,121.1696
34.0493,121.5552
34.1702,121.9507
34.2654,122.3548
34.3342,122.7664
34.3759,123.1843
34.3900,123.6075
34.3865,123.8196
34.3759,124.0306
34.3585,124.2404
34.3342,124.4486
34.3031,124.6553
34.2654,124.8602
34.2210,125.0633
34.1702,125.2643
34.1129,125.4632
34.0493,125.6598
33.9795,125.8539
33.9035,126.0454
33.8213,126.2341
33.7332,126.4200
33.6392,126.6028
33.5393,126.7825
33.4336,126.9588
33.3223,127.1317
33.2054,127.3010
33.0830,127.4665
32.9552,127.6281
32.8220,127.7856
32.6836,127.9390
32.5400,128.0880
32.3913,128.2325
32.2376,128.3725
32.0790,128.5076
31.9155,128.6378
31.7473,128.7630
31.5744,128.8830
31.3970,128.9976
31.2150,129.1068
30.8415,129.3062
30.4587,129.4790
30.0678,129.6252
29.6702,129.7448
29.2674,129.8379
28.8605,129.9043
28.4509,129.9442
28.0400,129.9575
27.6291,129.9442
27.2195,129.9043
26.8127,129.8379
26.4098,129.7448
26.0122,129.6252
25.6214,129.4790
25.2385,129.3062
24.8650,129.1068
24.5056,128.8830
24.1645,128.6378
23.8424,128.3725
23.5401,128.0880
23.2580,127.7856
22.9970,127.4665
22.7577,127.1317
22.5407,126.7825
22.3468,126.4200
22.1766,126.0454
22.0307,125.6598
21.9098,125.2643
21.8147,124.8602
21.7459,124.4486
21.7041,124.0306
21.6900,123.6075
21.6935,123.3953
21.7041,123.1843
21.7215,122.9746
21.7458,122.7664
21.7769,122.5597
21.8147,122.3548
21.8590,122.1517
21.9098,121.9507
21.9671,121.7518
22.0307,121.5552
22.1005,121.3611
22.1766,121.1696
22.2587,120.9809
22.3468,120.7950
22.4409,120.6122
22.5407,120.4325
22.6464,120.2562
22.7577,120.0833
22.8746,119.9140
22.9970,119.7485
23.1249,119.5869
23.2580,119.4294
23.3965,119.2760
23.5401,119.1270
23.6887,118.9825
23.8424,118.8425
24.0010,118.7074
24.1645,118.5772
24.3327,118.4520
24.5056,118.3320
24.6830,118.2174
24.8650,118.1082
25.2385,117.9088
25.6214,117.7360
26.0122,117.5898
26.4098,117.4702
26.8126,117.3771
27.2195,117.3107
27.6291,117.2708
28.0400,117.2575
Z" /> 
<path style="fill:#000000; fill-opacity:0.0; 
stroke:#000000; stroke-width:0.2000; stroke-opacity:1; 
stroke-linecap:round; stroke-linejoin:round;fill:none"
d="M 150.0994,92.6275
150.2384,92.6410
150.3764,92.6636
150.5131,92.6952
150.6480,92.7358
150.7806,92.7854
150.9105,92.8441
151.0372,92.9118
151.1591,92.9878
151.2748,93.0710
151.3840,93.1611
151.4865,93.2577
151.5821,93.3604
151.6706,93.4687
151.7517,93.5824
151.8252,93.7009
151.8909,93.8240
151.9485,93.9511
151.9979,94.0820
152.0388,94.2162
152.0709,94.3534
152.0941,94.4931
152.1081,94.6349
152.1127,94.7785
152.1116,94.8505
152.1081,94.9221
152.1023,94.9932
152.0941,95.0639
152.0836,95.1341
152.0709,95.2036
152.0560,95.2725
152.0388,95.3407
152.0194,95.4082
151.9979,95.4750
151.9743,95.5408
151.9486,95.6058
151.9208,95.6699
151.8909,95.7330
151.8591,95.7951
151.8253,95.8561
151.7895,95.9159
151.7517,95.9746
151.7121,96.0321
151.6706,96.0883
151.6273,96.1431
151.5822,96.1966
151.5352,96.2487
151.4866,96.2993
151.4361,96.3483
151.3840,96.3959
151.3302,96.4417
151.2748,96.4860
151.2178,96.5285
151.1591,96.5692
151.0989,96.6081
151.0372,96.6452
150.9105,96.7129
150.7806,96.7716
150.6480,96.8212
150.5131,96.8619
150.3765,96.8935
150.2384,96.9160
150.0995,96.9296
149.9600,96.9341
149.8206,96.9296
149.6817,96.9160
149.5436,96.8935
149.4069,96.8619
149.2721,96.8212
149.1395,96.7716
149.0096,96.7129
148.8829,96.6452
148.7610,96.5692
148.6453,96.4860
148.5360,96.3959
148.4335,96.2993
148.3379,96.1966
148.2494,96.0883
148.1683,95.9746
148.0948,95.8561
148.0291,95.7330
147.9715,95.6059
147.9221,95.4750
147.8813,95.3408
147.8491,95.2036
147.8259,95.0639
147.8119,94.9221
147.8074,94.7785
147.8085,94.7065
147.8119,94.6349
147.8178,94.5638
147.8259,94.4931
147.8364,94.4230
147.8491,94.3534
147.8641,94.2845
147.8812,94.2163
147.9006,94.1488
147.9221,94.0821
147.9457,94.0162
147.9715,93.9512
147.9993,93.8871
148.0291,93.8240
148.0609,93.7619
148.0948,93.7010
148.1306,93.6411
148.1683,93.5824
148.2079,93.5250
148.2494,93.4688
148.2927,93.4139
148.3379,93.3604
148.3848,93.3084
148.4335,93.2578
148.4839,93.2087
148.5360,93.1612
148.5898,93.1153
148.6452,93.0711
148.7023,93.0286
148.7609,92.9878
148.8211,92.9489
148.8828,92.9118
149.0095,92.8441
149.1394,92.7855
149.2720,92.7358
149.4069,92.6952
149.5436,92.6636
149.6816,92.6410
149.8206,92.6275
149.9600,92.6229
Z" /> 
<path style="fill:#000000; fill-opacity:0.0; 
stroke:#000000; stroke-width:0.2000; stroke-opacity:1; 
stroke-linecap:round; stroke-linejoin:round;fill:none"
d="M 97.1617,15.1825
97.2598,15.1920
97.3572,15.2079
97.4537,15.2302
97.5489,15.2589
97.6425,15.2939
97.7342,15.3353
97.8236,15.3831
97.9097,15.4367
97.9914,15.4954
98.0685,15.5590
98.1409,15.6272
98.2084,15.6996
98.2709,15.7761
98.3281,15.8563
98.3801,15.9399
98.4265,16.0268
98.4672,16.1165
98.5021,16.2089
98.5310,16.3036
98.5537,16.4004
98.5701,16.4990
98.5800,16.5991
98.5833,16.7005
98.5825,16.7513
98.5800,16.8018
98.5759,16.8521
98.5701,16.9020
98.5627,16.9515
98.5537,17.0005
98.5431,17.0492
98.5310,17.0973
98.5173,17.1450
98.5021,17.1921
98.4854,17.2386
98.4672,17.2844
98.4476,17.3296
98.4265,17.3742
98.4040,17.4180
98.3801,17.4610
98.3548,17.5033
98.3282,17.5447
98.3002,17.5852
98.2709,17.6249
98.2403,17.6636
98.2084,17.7013
98.1753,17.7381
98.1409,17.7738
98.1053,17.8084
98.0685,17.8419
98.0306,17.8743
97.9914,17.9055
97.9511,17.9355
97.9098,17.9643
97.8673,17.9917
97.8237,18.0179
97.7343,18.0656
97.6426,18.1071
97.5490,18.1421
97.4538,18.1708
97.3573,18.1931
97.2598,18.2090
97.1618,18.2185
97.0633,18.2217
96.9649,18.2185
96.8669,18.2090
96.7694,18.1931
96.6729,18.1708
96.5777,18.1421
96.4841,18.1071
96.3924,18.0657
96.3030,18.0179
96.2169,17.9643
96.1353,17.9056
96.0581,17.8420
95.9858,17.7738
95.9182,17.7014
95.8558,17.6249
95.7985,17.5447
95.7466,17.4611
95.7002,17.3742
95.6594,17.2845
95.6246,17.1921
95.5957,17.0974
95.5729,17.0006
95.5565,16.9020
95.5466,16.8019
95.5433,16.7005
95.5441,16.6497
95.5466,16.5992
95.5507,16.5489
95.5565,16.4990
95.5639,16.4495
95.5729,16.4005
95.5835,16.3518
95.5957,16.3037
95.6093,16.2560
95.6245,16.2089
95.6412,16.1624
95.6594,16.1166
95.6791,16.0714
95.7001,16.0268
95.7226,15.9830
95.7465,15.9400
95.7718,15.8977
95.7985,15.8563
95.8264,15.8158
95.8557,15.7761
95.8863,15.7374
95.9182,15.6997
95.9513,15.6629
95.9857,15.6272
96.0213,15.5926
96.0581,15.5591
96.0961,15.5267
96.1352,15.4955
96.1755,15.4655
96.2169,15.4367
96.2594,15.4093
96.3029,15.3831
96.3924,15.3354
96.4841,15.2939
96.5777,15.2589
96.6729,15.2302
96.7693,15.2079
96.8668,15.1920
96.9649,15.1825
97.0633,15.1793
Z" /> 
</g>
<g style="fill:#000000; fill-opacity:0.0; 
stroke:#000000; stroke-width:0.1000; stroke-opacity:1; 
stroke-linecap:round; stroke-linejoin:round;">
<circle cx="67.0633" cy="16.7005" r="1.5200" /> 
</g>
<g style="fill:#000000; fill-opacity:0.0; 
stroke:#000000; stroke-width:0.2000; stroke-opacity:1; 
stroke-linecap:round; stroke-linejoin:round;">
<path style="fill:#000000; fill-opacity:0.0; 
stroke:#000000; stroke-width:0.2000; stroke-opacity:1; 
stroke-linecap:round; stroke-linejoin:round;fill:none"
d="M 129.1077,51.0303
129.2101,51.0403
129.3119,51.0569
129.4126,51.0802
129.5120,51.1101
129.6097,51.1466
129.7054,51.1898
129.7988,51.2397
129.8886,51.2956
129.9739,51.3569
130.0544,51.4233
130.1300,51.4944
130.2005,51.5700
130.2658,51.6498
130.3256,51.7335
130.3798,51.8208
130.4283,51.9114
130.4709,52.0050
130.5073,52.1014
130.5376,52.2003
130.5614,52.3013
130.5786,52.4042
130.5890,52.5087
130.5925,52.6145
130.5916,52.6675
130.5890,52.7203
130.5846,52.7727
130.5786,52.8248
130.5708,52.8765
130.5614,52.9277
130.5503,52.9785
130.5376,53.0287
130.5232,53.0784
130.5073,53.1276
130.4899,53.1761
130.4709,53.2240
130.4503,53.2712
130.4283,53.3176
130.4048,53.3633
130.3798,53.4083
130.3534,53.4523
130.3256,53.4956
130.2964,53.5379
130.2658,53.5792
130.2338,53.6196
130.2005,53.6590
130.1659,53.6974
130.1300,53.7346
130.0928,53.7708
130.0544,53.8057
130.0148,53.8395
129.9739,53.8721
129.9318,53.9034
129.8886,53.9334
129.8443,53.9620
129.7988,53.9893
129.7054,54.0392
129.6097,54.0824
129.5120,54.1189
129.4126,54.1488
129.3119,54.1721
129.2101,54.1887
129.1077,54.1987
129.0050,54.2020
128.9023,54.1987
128.7999,54.1887
128.6982,54.1721
128.5974,54.1488
128.4981,54.1189
128.4003,54.0824
128.3046,54.0392
128.2113,53.9893
128.1214,53.9334
128.0361,53.8721
127.9556,53.8057
127.8800,53.7346
127.8095,53.6590
127.7443,53.5792
127.6844,53.4956
127.6302,53.4083
127.5817,53.3176
127.5391,53.2240
127.5027,53.1276
127.4725,53.0287
127.4487,52.9277
127.4315,52.8248
127.4210,52.7203
127.4175,52.6145
127.4184,52.5615
127.4210,52.5087
127.4254,52.4563
127.4315,52.4042
127.4392,52.3526
127.4487,52.3013
127.4598,52.2506
127.4725,52.2003
127.4868,52.1506
127.5027,52.1014
127.5201,52.0529
127.5391,52.0050
127.5597,51.9578
127.5817,51.9114
127.6052,51.8657
127.6302,51.8208
127.6566,51.7767
127.6844,51.7335
127.7137,51.6911
127.7443,51.6498
127.7762,51.6094
127.8095,51.5700
127.8441,51.5316
127.8800,51.4944
127.9172,51.4582
127.9556,51.4233
127.9953,51.3895
128.0361,51.3569
128.0782,51.3256
128.1214,51.2956
128.1658,51.2670
128.2113,51.2397
128.3046,51.1898
128.4003,51.1466
128.4981,51.1101
128.5974,51.0802
128.6982,51.0569
128.7999,51.0403
128.9023,51.0303
129.0050,51.0270
Z" /> 
<path style="fill:#000000; fill-opacity:0.0; 
stroke:#000000; stroke-width:0.2000; stroke-opacity:1; 
stroke-linecap:round; stroke-linejoin:round;fill:none"
d="M 25.0043,50.3394
25.1431,50.3529
25.2811,50.3754
25.4177,50.4070
25.5524,50.4475
25.6849,50.4971
25.8147,50.5557
25.9413,50.6233
26.0632,50.6991
26.1788,50.7822
26.2880,50.8722
26.3905,50.9686
26.4861,51.0711
26.5746,51.1793
26.6557,51.2928
26.7293,51.4112
26.7950,51.5341
26.8527,51.6611
26.9022,51.7918
26.9431,51.9258
26.9754,52.0628
26.9987,52.2024
27.0129,52.3441
27.0177,52.4875
27.0165,52.5594
27.0129,52.6310
27.0070,52.7020
26.9987,52.7726
26.9882,52.8427
26.9754,52.9122
26.9604,52.9810
26.9431,53.0492
26.9237,53.1166
26.9022,53.1832
26.8785,53.2490
26.8527,53.3139
26.8249,53.3779
26.7950,53.4409
26.7631,53.5029
26.7293,53.5638
26.6934,53.6236
26.6557,53.6822
26.6161,53.7396
26.5746,53.7957
26.5312,53.8505
26.4861,53.9039
26.4392,53.9559
26.3905,54.0064
26.3401,54.0554
26.2880,54.1028
26.2342,54.1486
26.1788,54.1928
26.1218,54.2352
26.0632,54.2759
26.0030,54.3148
25.9413,54.3518
25.8147,54.4194
25.6849,54.4779
25.5524,54.5275
25.4177,54.5681
25.2811,54.5996
25.1431,54.6221
25.0043,54.6357
24.8650,54.6402
24.7257,54.6357
24.5869,54.6221
24.4489,54.5996
24.3124,54.5681
24.1776,54.5275
24.0451,54.4779
23.9153,54.4194
23.7887,54.3518
23.6668,54.2759
23.5512,54.1928
23.4420,54.1028
23.3395,54.0064
23.2439,53.9039
23.1554,53.7957
23.0743,53.6822
23.0008,53.5638
22.9350,53.4409
22.8773,53.3139
22.8278,53.1832
22.7869,53.0492
22.7546,52.9122
22.7313,52.7726
22.7171,52.6310
22.7124,52.4875
22.7136,52.4156
22.7171,52.3441
22.7230,52.2730
22.7313,52.2024
22.7418,52.1323
22.7546,52.0628
22.7696,51.9940
22.7869,51.9258
22.8063,51.8584
22.8278,51.7918
22.8515,51.7260
22.8773,51.6611
22.9051,51.5971
22.9350,51.5341
22.9669,51.4721
23.0008,51.4112
23.0366,51.3514
23.0743,51.2928
23.1139,51.2354
23.1554,51.1793
23.1988,51.1245
23.2439,51.0711
23.2908,51.0191
23.3395,50.9686
23.3899,50.9196
23.4420,50.8722
23.4958,50.8264
23.5512,50.7822
23.6082,50.7398
23.6668,50.6991
23.7270,50.6603
23.7887,50.6233
23.9153,50.5557
24.0451,50.4971
24.1776,50.4475
24.3124,50.4070
24.4489,50.3754
24.5869,50.3529
24.7257,50.3394
24.8650,50.3349
Z" /> 
<path style="fill:#000000; fill-opacity:0.0; 
stroke:#000000; stroke-width:0.2000; stroke-opacity:1; 
stroke-linecap:round; stroke-linejoin:round;fill:none"
d="M 157.4019,2.0764
157.5409,2.0900
157.6789,2.1125
157.8156,2.1441
157.9505,2.1848
158.0831,2.2344
158.2130,2.2931
158.3397,2.3608
158.4616,2.4368
158.5773,2.5200
158.6865,2.6101
158.7890,2.7067
158.8846,2.8094
158.9731,2.9177
159.0542,3.0314
159.1277,3.1499
159.1934,3.2730
159.2510,3.4001
159.3004,3.5310
159.3413,3.6652
159.3734,3.8024
159.3966,3.9421
159.4106,4.0839
159.4152,4.2275
159.4141,4.2995
159.4106,4.3711
159.4047,4.4422
159.3966,4.5129
159.3861,4.5830
159.3734,4.6526
159.3585,4.7215
159.3413,4.7897
159.3219,4.8572
159.3004,4.9240
159.2768,4.9898
159.2511,5.0548
159.2233,5.1189
159.1934,5.1820
159.1616,5.2441
159.1277,5.3051
159.0920,5.3649
159.0542,5.4236
159.0146,5.4811
158.9731,5.5372
158.9298,5.5921
158.8847,5.6456
158.8377,5.6977
158.7890,5.7483
158.7386,5.7973
158.6865,5.8448
158.6327,5.8907
158.5773,5.9350
158.5202,5.9775
158.4616,6.0182
158.4014,6.0571
158.3397,6.0942
158.2130,6.1619
158.0831,6.2206
157.9505,6.2702
157.8156,6.3108
157.6789,6.3424
157.5409,6.3650
157.4019,6.3786
157.2625,6.3831
157.1231,6.3786
156.9842,6.3650
156.8461,6.3425
156.7094,6.3109
156.5746,6.2702
156.4420,6.2206
156.3121,6.1619
156.1854,6.0942
156.0635,6.0182
155.9478,5.9350
155.8385,5.8449
155.7360,5.7483
155.6404,5.6456
155.5519,5.5373
155.4708,5.4236
155.3973,5.3051
155.3316,5.1820
155.2740,5.0549
155.2246,4.9240
155.1838,4.7898
155.1516,4.6526
155.1284,4.5129
155.1144,4.3711
155.1099,4.2275
155.1110,4.1555
155.1144,4.0839
155.1203,4.0128
155.1284,3.9421
155.1389,3.8720
155.1516,3.8024
155.1666,3.7335
155.1837,3.6653
155.2031,3.5978
155.2246,3.5311
155.2482,3.4652
155.2740,3.4002
155.3018,3.3361
155.3316,3.2730
155.3634,3.2109
155.3973,3.1500
155.4331,3.0901
155.4708,3.0314
155.5104,2.9740
155.5519,2.9178
155.5952,2.8629
155.6404,2.8094
155.6873,2.7573
155.7360,2.7068
155.7864,2.6577
155.8385,2.6102
155.8923,2.5643
155.9477,2.5201
156.0048,2.4776
156.0634,2.4368
156.1236,2.3979
156.1853,2.3608
156.3120,2.2931
156.4419,2.2344
156.5745,2.1848
156.7094,2.1442
156.8461,2.1126
156.9841,2.0900
157.1231,2.0764
157.2625,2.0719
Z" /> 
<path style="fill:#000000; fill-opacity:0.0; 
stroke:#000000; stroke-width:0.2000; stroke-opacity:1; 
stroke-linecap:round; stroke-linejoin:round;fill:none"
d="M 124.2425,44.3595
124.2425,44.3596
124.2425,44.3595
Z" /> 
<path style="fill:#000000; fill-opacity:0.0; 
stroke:#000000; stroke-width:0.2000; stroke-opacity:1; 
stroke-linecap:round; stroke-linejoin:round;fill:none"
d="M 81.1559,64.6928
81.5655,64.7327
81.9724,64.7992
82.3752,64.8922
82.7728,65.0118
83.1637,65.1581
83.5465,65.3309
83.9200,65.5303
84.2794,65.7540
84.6205,65.9992
84.9426,66.2646
85.2450,66.5490
85.5270,66.8514
85.7880,67.1706
86.0273,67.5053
86.2443,67.8545
86.4382,68.2170
86.6084,68.5917
86.7543,68.9773
86.8752,69.3727
86.9704,69.7768
87.0392,70.1884
87.0809,70.6064
87.0950,71.0295
87.0916,71.2417
87.0811,71.4528
87.0637,71.6626
87.0395,71.8709
87.0085,72.0776
86.9708,72.2826
86.9266,72.4857
86.8758,72.6869
86.8186,72.8858
86.7550,73.0824
86.6852,73.2766
86.6093,73.4682
86.5272,73.6570
86.4391,73.8430
86.3451,74.0259
86.2452,74.2056
86.1396,74.3820
86.0283,74.5549
85.9114,74.7243
85.7890,74.8898
85.6612,75.0515
85.5280,75.2091
85.3896,75.3626
85.2460,75.5117
85.0973,75.6563
84.9436,75.7963
84.7850,75.9315
84.6215,76.0618
84.4533,76.1870
84.2804,76.3071
84.1029,76.4218
83.9209,76.5310
83.5474,76.7305
83.1645,76.9034
82.7735,77.0497
82.3759,77.1694
81.9729,77.2625
81.5659,77.3290
81.1563,77.3689
80.7453,77.3822
80.3343,77.3690
79.9246,77.3291
79.5176,77.2626
79.1146,77.1695
78.7170,77.0498
78.3260,76.9036
77.9431,76.7307
77.5695,76.5312
77.2100,76.3074
76.8689,76.0621
76.5468,75.7966
76.2444,75.5120
75.9623,75.2095
75.7013,74.8902
75.4620,74.5553
75.2451,74.2060
75.0511,73.8433
74.8810,73.4685
74.7351,73.0827
74.6143,72.6871
74.5193,72.2828
74.4506,71.8710
74.4089,71.4529
74.3950,71.0295
74.3985,70.8174
74.4091,70.6064
74.4265,70.3967
74.4508,70.1884
74.4819,69.9817
74.5196,69.7768
74.5640,69.5737
74.6148,69.3727
74.6721,69.1738
74.7357,68.9773
74.8055,68.7832
74.8816,68.5917
74.9637,68.4029
75.0518,68.2170
75.1459,68.0342
75.2457,67.8545
75.3514,67.6782
75.4627,67.5053
75.5796,67.3361
75.7020,67.1706
75.8299,67.0090
75.9630,66.8514
76.1015,66.6981
76.2451,66.5490
76.3937,66.4045
76.5474,66.2646
76.7060,66.1294
76.8695,65.9992
77.0377,65.8740
77.2106,65.7540
77.3880,65.6394
77.5700,65.5303
77.9435,65.3309
78.3264,65.1581
78.7172,65.0118
79.1148,64.8922
79.5176,64.7992
79.9245,64.7327
80.3341,64.6928
80.7450,64.6795
Z" /> 
<path style="fill:#000000; fill-opacity:0.0; 
stroke:#000000; stroke-width:0.2000; stroke-opacity:1; 
stroke-linecap:round; stroke-linejoin:round;fill:none"
d="M 44.2717,87.4158
44.3741,87.4258
44.4758,87.4424
44.5766,87.4657
44.6759,87.4956
44.7737,87.5322
44.8694,87.5754
44.9628,87.6252
45.0526,87.6811
45.1379,87.7424
45.2184,87.8088
45.2940,87.8799
45.3645,87.9555
45.4297,88.0353
45.4896,88.1190
45.5438,88.2063
45.5923,88.2969
45.6349,88.3905
45.6713,88.4870
45.7016,88.5858
45.7253,88.6868
45.7425,88.7897
45.7530,88.8942
45.7565,89.0000
45.7556,89.0531
45.7530,89.1058
45.7486,89.1582
45.7425,89.2103
45.7348,89.2620
45.7253,89.3132
45.7143,89.3640
45.7016,89.4142
45.6872,89.4639
45.6713,89.5131
45.6539,89.5616
45.6349,89.6095
45.6143,89.6567
45.5923,89.7031
45.5688,89.7489
45.5438,89.7938
45.5174,89.8378
45.4896,89.8811
45.4604,89.9234
45.4297,89.9648
45.3978,90.0052
45.3645,90.0445
45.3299,90.0829
45.2940,90.1201
45.2568,90.1563
45.2184,90.1913
45.1787,90.2250
45.1379,90.2576
45.0958,90.2889
45.0526,90.3189
45.0082,90.3475
44.9628,90.3748
44.8694,90.4247
44.7737,90.4679
44.6759,90.5044
44.5766,90.5343
44.4758,90.5576
44.3741,90.5742
44.2717,90.5842
44.1690,90.5875
44.0663,90.5842
43.9639,90.5742
43.8622,90.5576
43.7614,90.5343
43.6621,90.5044
43.5643,90.4679
43.4686,90.4247
43.3753,90.3748
43.2854,90.3189
43.2001,90.2576
43.1196,90.1913
43.0440,90.1201
42.9735,90.0445
42.9083,89.9648
42.8484,89.8811
42.7942,89.7938
42.7457,89.7031
42.7031,89.6095
42.6667,89.5131
42.6365,89.4142
42.6127,89.3132
42.5955,89.2103
42.5850,89.1058
42.5815,89.0000
42.5824,88.9470
42.5850,88.8942
42.5894,88.8418
42.5955,88.7897
42.6032,88.7381
42.6127,88.6868
42.6237,88.6361
42.6365,88.5858
42.6508,88.5361
42.6667,88.4870
42.6841,88.4384
42.7031,88.3905
42.7237,88.3434
42.7457,88.2969
42.7692,88.2512
42.7942,88.2063
42.8206,88.1622
42.8484,88.1190
42.8777,88.0767
42.9083,88.0353
42.9402,87.9949
42.9735,87.9555
43.0081,87.9172
43.0440,87.8799
43.0812,87.8438
43.1196,87.8088
43.1593,87.7750
43.2001,87.7424
43.2422,87.7111
43.2854,87.6811
43.3298,87.6525
43.3753,87.6252
43.4686,87.5754
43.5643,87.5322
43.6621,87.4956
43.7614,87.4657
43.8622,87.4424
43.9639,87.4258
44.0663,87.4158
44.1690,87.4125
Z" /> 
<path style="fill:#000000; fill-opacity:0.0; 
stroke:#000000; stroke-width:0.2000; stroke-opacity:1; 
stroke-linecap:round; stroke-linejoin:round;fill:none"
d="M 167.6130,0.1000
167.6522,0.1010
167.6909,0.1039
167.7291,0.1088
167.7666,0.1155
167.8034,0.1240
167.8396,0.1343
167.8750,0.1462
167.9096,0.1599
167.9434,0.1751
167.9762,0.1920
168.0081,0.2103
168.0390,0.2301
168.0689,0.2514
168.0977,0.2740
168.1254,0.2980
168.1518,0.3232
168.1770,0.3496
168.2010,0.3773
168.2236,0.4061
168.2449,0.4360
168.2647,0.4669
168.2830,0.4988
168.2999,0.5316
168.3151,0.5654
168.3288,0.6000
168.3407,0.6354
168.3510,0.6716
168.3595,0.7084
168.3662,0.7460
168.3711,0.7841
168.3740,0.8228
168.3750,0.8620
168.3750,95.9871
168.3740,96.0254
168.3712,96.0632
168.3666,96.1006
168.3602,96.1373
168.3520,96.1735
168.3422,96.2089
168.3307,96.2437
168.3176,96.2777
168.3029,96.3109
168.2868,96.3433
168.2691,96.3747
168.2501,96.4053
168.2296,96.4348
168.2078,96.4633
168.1848,96.4908
168.1604,96.5171
168.1349,96.5423
168.1082,96.5662
168.0804,96.5889
168.0515,96.6103
168.0216,96.6303
167.9908,96.6490
167.9589,96.6662
167.9262,96.6819
167.8926,96.6961
167.8583,96.7087
167.8231,96.7197
167.7873,96.7290
167.7508,96.7366
167.7136,96.7424
167.6759,96.7465
167.6376,96.7487
167.4781,96.7578
167.3208,96.7746
167.1660,96.7989
167.0138,96.8306
166.8644,96.8694
166.7180,96.9152
166.5748,96.9677
166.4349,97.0268
166.2986,97.0923
166.1660,97.1640
166.0373,97.2417
165.9127,97.3252
165.7924,97.4143
165.6766,97.5088
165.5654,97.6086
165.4590,97.7135
165.3577,97.8231
165.2615,97.9375
165.1708,98.0563
165.0856,98.1795
165.0062,98.3067
164.9327,98.4378
164.8653,98.5726
164.8042,98.7110
164.7497,98.8527
164.7018,98.9976
164.6608,99.1454
164.6268,99.2959
164.6000,99.4491
164.5807,99.6046
164.5690,99.7623
164.5650,99.9220
164.5650,123.4409
164.5642,123.4765
164.5617,123.5118
164.5577,123.5467
164.5521,123.5811
164.5450,123.6150
164.5364,123.6483
164.5263,123.6811
164.5148,123.7132
164.5019,123.7447
164.4877,123.7755
164.4722,123.8055
164.4553,123.8348
164.4373,123.8632
164.4180,123.8908
164.3975,123.9175
164.3759,123.9433
164.3532,123.9681
164.3294,123.9918
164.3046,124.0146
164.2787,124.0362
164.2519,124.0567
164.2241,124.0760
164.1955,124.0941
164.1659,124.1110
164.1356,124.1266
164.1044,124.1409
164.0725,124.1537
164.0398,124.1652
164.0064,124.1753
163.9724,124.1838
163.9377,124.1909
163.9025,124.1963
130.3519,128.6134
130.3054,128.6180
130.2590,128.6199
130.2129,128.6189
130.1670,128.6151
130.1217,128.6086
130.0769,128.5994
130.0329,128.5876
129.9897,128.5731
129.9474,128.5561
129.9061,128.5366
129.8661,128.5147
129.8273,128.4903
129.7899,128.4635
129.7541,128.4344
129.7199,128.4030
129.6875,128.3693
129.6572,128.3337
129.6294,128.2966
129.6039,128.2580
129.5810,128.2182
129.5606,128.1772
129.5427,128.1352
129.5274,128.0922
129.5146,128.0484
129.5046,128.0040
129.4972,127.9590
129.4925,127.9135
129.4905,127.8678
129.4913,127.8218
129.4949,127.7758
129.5013,127.7298
129.5105,127.6840
136.8304,96.4509
136.8650,96.2917
136.8944,96.1318
136.9187,95.9713
136.9379,95.8103
136.9518,95.6489
136.9606,95.4873
136.9643,95.3255
136.9628,95.1638
136.9561,95.0022
136.9443,94.8408
136.9274,94.6799
136.9053,94.5194
136.8781,94.3596
136.8458,94.2005
136.8083,94.0422
136.7657,93.8850
131.8416,76.7983
131.7788,76.5964
131.7083,76.3986
131.6302,76.2050
131.5447,76.0159
131.4520,75.8314
131.3523,75.6515
131.2458,75.4766
131.1328,75.3066
131.0133,75.1419
130.8876,74.9824
130.7560,74.8284
130.6185,74.6801
130.4755,74.5375
130.3270,74.4009
130.1734,74.2703
130.0148,74.1459
129.8513,74.0279
129.6833,73.9164
129.5109,73.8117
129.3343,73.7137
129.1537,73.6227
128.9693,73.5388
128.7813,73.4622
128.5898,73.3931
128.3952,73.3315
128.1976,73.2776
127.9972,73.2316
127.7942,73.1936
127.5888,73.1638
127.3812,73.1424
127.1716,73.1294
126.9602,73.1250
102.3350,73.1250
102.0831,73.1312
101.8329,73.1499
101.5849,73.1807
101.3393,73.2235
101.0968,73.2782
100.8576,73.3446
100.6222,73.4225
100.3910,73.5117
100.1644,73.6121
99.9429,73.7235
99.7268,73.8457
99.5166,73.9785
99.3127,74.1218
99.1155,74.2754
98.9254,74.4392
98.7429,74.6129
98.5692,74.7954
98.4054,74.9855
98.2518,75.1827
98.1085,75.3866
97.9757,75.5968
97.8535,75.8129
97.7421,76.0344
97.6417,76.2610
97.5525,76.4922
97.4746,76.7276
97.4082,76.9667
97.3535,77.2093
97.3107,77.4548
97.2799,77.7029
97.2613,77.9531
97.2550,78.2050
97.2550,88.5555
97.2541,88.5933
97.2513,88.6308
97.2467,88.6680
97.2402,88.7049
97.2320,88.7412
97.2221,88.7771
97.2104,88.8124
97.1970,88.8471
97.1819,88.8811
97.1652,88.9143
97.1469,88.9467
97.1270,88.9783
97.1055,89.0088
97.0824,89.0384
97.0579,89.0669
97.0318,89.0943
97.0044,89.1204
96.9759,89.1449
96.9464,89.1680
96.9158,89.1895
96.8842,89.2094
96.8518,89.2277
96.8186,89.2444
96.7846,89.2595
96.7499,89.2729
96.7146,89.2846
96.6787,89.2945
96.6424,89.3027
96.6055,89.3091
96.5683,89.3138
96.5308,89.3166
96.4930,89.3175
65.0489,89.3014
64.3523,89.3340
63.9491,89.3828
63.5550,89.4628
63.1712,89.5729
62.7994,89.7120
62.4410,89.8790
62.0975,90.0728
61.7705,90.2923
61.4614,90.5364
61.1718,90.8041
60.9031,91.0941
60.6569,91.4055
60.4346,91.7372
60.2378,92.0880
60.0680,92.4568
59.9266,92.8425
44.9517,139.4167
44.9428,139.4427
44.9330,139.4683
44.9224,139.4934
44.9109,139.5180
44.8854,139.5657
44.8569,139.6112
44.8254,139.6543
44.7910,139.6950
44.7540,139.7331
44.7144,139.7685
44.6725,139.8011
44.6283,139.8307
44.5821,139.8572
44.5340,139.8805
44.4842,139.9005
44.4328,139.9169
44.4065,139.9238
44.3799,139.9298
44.3529,139.9348
44.3257,139.9389
0.9615,145.6479
0.9207,145.6522
0.8799,145.6542
0.8393,145.6541
0.7988,145.6518
0.7587,145.6474
0.7189,145.6409
0.6796,145.6323
0.6408,145.6216
0.6026,145.6089
0.5652,145.5942
0.5285,145.5775
0.4926,145.5589
0.4577,145.5383
0.4239,145.5159
0.3911,145.4915
0.3596,145.4653
0.3295,145.4375
0.3011,145.4082
0.2744,145.3775
0.2494,145.3456
0.2263,145.3125
0.2049,145.2783
0.1855,145.2431
0.1679,145.2069
0.1523,145.1698
0.1386,145.1320
0.1270,145.0934
0.1174,145.0542
0.1098,145.0144
0.1044,144.9741
0.1011,144.9334
0.1000,144.8924
0.1000,89.3410
0.1009,89.3032
0.1037,89.2657
0.1084,89.2285
0.1148,89.1917
0.1230,89.1553
0.1329,89.1194
0.1446,89.0841
0.1580,89.0494
0.1731,89.0155
0.1898,88.9822
0.2081,88.9498
0.2280,88.9183
0.2495,88.8877
0.2726,88.8581
0.2971,88.8296
0.3232,88.8022
14.4871,74.6383
14.6608,74.4558
14.8246,74.2657
14.9782,74.0685
15.1215,73.8646
15.2544,73.6544
15.3766,73.4383
15.4879,73.2168
15.5883,72.9902
15.6775,72.7591
15.7554,72.5237
15.8218,72.2845
15.8765,72.0419
15.9193,71.7964
15.9501,71.5483
15.9688,71.2981
15.9750,71.0462
15.9750,8.7995
15.9759,8.7617
15.9787,8.7242
15.9834,8.6870
15.9898,8.6501
15.9980,8.6138
16.0079,8.5779
16.0196,8.5426
16.0330,8.5079
16.0481,8.4739
16.0648,8.4407
16.0831,8.4083
16.1030,8.3767
16.1245,8.3462
16.1476,8.3166
16.1721,8.2881
16.1982,8.2607
16.2256,8.2346
16.2541,8.2101
16.2837,8.1870
16.3143,8.1655
16.3458,8.1456
16.3782,8.1273
16.4114,8.1106
16.4454,8.0955
16.4801,8.0821
16.5154,8.0704
16.5513,8.0605
16.5877,8.0523
16.6245,8.0458
16.6617,8.0412
16.6992,8.0384
16.7370,8.0375
141.0700,8.0375
141.3314,8.0309
141.5894,8.0113
141.8437,7.9790
142.0938,7.9343
142.3396,7.8776
142.5806,7.8091
142.8167,7.7292
143.0474,7.6383
143.2724,7.5366
143.4914,7.4244
143.7042,7.3021
143.9103,7.1699
144.1095,7.0283
144.3014,6.8775
144.4857,6.7178
144.6621,6.5496
144.8303,6.3732
144.9900,6.1889
145.1408,5.9969
145.2824,5.7978
145.4146,5.5917
145.5369,5.3789
145.6491,5.1599
145.7508,4.9349
145.8418,4.7042
145.9216,4.4681
145.9901,4.2271
146.0468,3.9813
146.0915,3.7311
146.1238,3.4769
146.1434,3.2189
146.1500,2.9575
146.1500,0.8620
146.1509,0.8242
146.1537,0.7867
146.1584,0.7495
146.1648,0.7126
146.1730,0.6763
146.1829,0.6404
146.1946,0.6051
146.2080,0.5704
146.2231,0.5364
146.2398,0.5032
146.2581,0.4708
146.2780,0.4392
146.2995,0.4087
146.3226,0.3791
146.3471,0.3506
146.3732,0.3232
146.4006,0.2971
146.4291,0.2726
146.4587,0.2495
146.4893,0.2280
146.5208,0.2081
146.5532,0.1898
146.5864,0.1731
146.6204,0.1580
146.6551,0.1446
146.6904,0.1329
146.7263,0.1230
146.7627,0.1148
146.7995,0.1084
146.8367,0.1037
146.8742,0.1009
146.9120,0.1000
Z" /> 
</g>
<g style="fill:#000000; fill-opacity:0.0; 
stroke:#000000; stroke-width:0.1000; stroke-opacity:1; 
stroke-linecap:round; stroke-linejoin:round;">
<circle cx="97.0633" cy="16.7005" r="1.5212" /> 
</g>
<g style="fill:#000000; fill-opacity:0.0; 
stroke:#000000; stroke-width:0.2000; stroke-opacity:1; 
stroke-linecap:round; stroke-linejoin:round;">
<path style="fill:#000000; fill-opacity:0.0; 
stroke:#000000; stroke-width:0.2000; stroke-opacity:1; 
stroke-linecap:round; stroke-linejoin:round;fill:none"
d="M 67.1617,59.1837
67.2597,59.1932
67.3571,59.2091
67.4535,59.2314
67.5487,59.2600
67.6423,59.2950
67.7339,59.3364
67.8233,59.3841
67.9093,59.4377
67.9910,59.4964
68.0681,59.5599
68.1405,59.6280
68.2080,59.7004
68.2704,59.7768
68.3277,59.8569
68.3797,59.9405
68.4261,60.0273
68.4668,60.1169
68.5018,60.2092
68.5307,60.3039
68.5535,60.4006
68.5699,60.4992
68.5799,60.5992
68.5833,60.7005
68.5825,60.7513
68.5799,60.8018
68.5758,60.8520
68.5699,60.9018
68.5625,60.9513
68.5535,61.0004
68.5429,61.0490
68.5307,61.0971
68.5170,61.1447
68.5018,61.1917
68.4850,61.2382
68.4668,61.2841
68.4472,61.3292
68.4261,61.3737
68.4036,61.4175
68.3797,61.4605
68.3544,61.5027
68.3277,61.5441
68.2998,61.5846
68.2704,61.6242
68.2398,61.6629
68.2080,61.7006
68.1748,61.7373
68.1405,61.7730
68.1049,61.8076
68.0681,61.8411
68.0301,61.8734
67.9910,61.9046
67.9507,61.9346
67.9093,61.9633
67.8669,61.9907
67.8233,62.0169
67.7339,62.0646
67.6423,62.1060
67.5487,62.1410
67.4535,62.1696
67.3571,62.1919
67.2597,62.2078
67.1617,62.2173
67.0633,62.2205
66.9650,62.2173
66.8669,62.2078
66.7695,62.1919
66.6731,62.1696
66.5779,62.1410
66.4844,62.1060
66.3927,62.0646
66.3033,62.0169
66.2173,61.9633
66.1356,61.9046
66.0585,61.8411
65.9862,61.7730
65.9186,61.7006
65.8562,61.6242
65.7989,61.5441
65.7470,61.4605
65.7005,61.3737
65.6598,61.2841
65.6249,61.1917
65.5959,61.0971
65.5731,61.0004
65.5567,60.9018
65.5467,60.8018
65.5433,60.7005
65.5442,60.6497
65.5467,60.5992
65.5509,60.5490
65.5567,60.4992
65.5641,60.4497
65.5731,60.4006
65.5838,60.3520
65.5959,60.3039
65.6096,60.2563
65.6249,60.2092
65.6416,60.1628
65.6598,60.1169
65.6794,60.0718
65.7005,60.0273
65.7230,59.9835
65.7470,59.9405
65.7722,59.8983
65.7989,59.8569
65.8269,59.8164
65.8562,59.7768
65.8868,59.7381
65.9186,59.7004
65.9518,59.6637
65.9862,59.6280
66.0217,59.5934
66.0585,59.5599
66.0965,59.5276
66.1356,59.4964
66.1759,59.4664
66.2173,59.4377
66.2597,59.4103
66.3033,59.3841
66.3927,59.3364
66.4844,59.2950
66.5779,59.2600
66.6731,59.2314
66.7695,59.2091
66.8669,59.1932
66.9650,59.1837
67.0633,59.1805
Z" /> 
<path style="fill:#000000; fill-opacity:0.0; 
stroke:#000000; stroke-width:0.2000; stroke-opacity:1; 
stroke-linecap:round; stroke-linejoin:round;fill:none"
d="M 158.3544,116.3893
158.4933,116.4028
158.6314,116.4254
158.7681,116.4570
158.9030,116.4976
159.0356,116.5472
159.1654,116.6059
159.2921,116.6736
159.4141,116.7496
159.5297,116.8329
159.6390,116.9230
159.7415,117.0195
159.8371,117.1222
159.9256,117.2306
160.0067,117.3442
160.0802,117.4627
160.1459,117.5858
160.2035,117.7130
160.2529,117.8438
160.2938,117.9781
160.3259,118.1152
160.3491,118.2549
160.3631,118.3967
160.3676,118.5403
160.3665,118.6123
160.3631,118.6839
160.3572,118.7551
160.3491,118.8257
160.3386,118.8959
160.3259,118.9654
160.3109,119.0343
160.2938,119.1026
160.2744,119.1701
160.2529,119.2368
160.2293,119.3027
160.2036,119.3677
160.1758,119.4317
160.1459,119.4948
160.1141,119.5569
160.0802,119.6179
160.0444,119.6777
160.0067,119.7364
159.9671,119.7939
159.9256,119.8501
159.8823,119.9049
159.8372,119.9584
159.7902,120.0105
159.7415,120.0611
159.6911,120.1102
159.6390,120.1577
159.5852,120.2036
159.5298,120.2478
159.4727,120.2903
159.4141,120.3310
159.3539,120.3699
159.2922,120.4070
159.1655,120.4747
159.0356,120.5334
158.9030,120.5831
158.7681,120.6237
158.6314,120.6553
158.4934,120.6778
158.3544,120.6914
158.2150,120.6959
158.0756,120.6914
157.9367,120.6779
157.7986,120.6553
157.6619,120.6237
157.5271,120.5831
157.3944,120.5334
157.2646,120.4747
157.1379,120.4070
157.0159,120.3311
156.9003,120.2478
156.7910,120.1577
156.6885,120.0611
156.5929,119.9585
156.5044,119.8501
156.4233,119.7365
156.3498,119.6179
156.2841,119.4949
156.2265,119.3677
156.1771,119.2368
156.1362,119.1026
156.1041,118.9655
156.0809,118.8258
156.0669,118.6839
156.0623,118.5403
156.0634,118.4683
156.0669,118.3967
156.0728,118.3256
156.0809,118.2549
156.0914,118.1848
156.1041,118.1152
156.1191,118.0463
156.1362,117.9781
156.1556,117.9106
156.1771,117.8439
156.2007,117.7780
156.2264,117.7130
156.2542,117.6489
156.2841,117.5858
156.3159,117.5238
156.3498,117.4628
156.3856,117.4029
156.4233,117.3442
156.4629,117.2868
156.5044,117.2306
156.5477,117.1757
156.5928,117.1222
156.6398,117.0702
156.6885,117.0196
156.7389,116.9705
156.7910,116.9230
156.8448,116.8771
156.9002,116.8329
156.9573,116.7904
157.0159,116.7496
157.0761,116.7107
157.1378,116.6737
157.2645,116.6060
157.3944,116.5473
157.5270,116.4976
157.6619,116.4570
157.7986,116.4254
157.9366,116.4028
158.0756,116.3893
158.2150,116.3848
Z" /> 
<path style="fill:#000000; fill-opacity:0.0; 
stroke:#000000; stroke-width:0.2000; stroke-opacity:1; 
stroke-linecap:round; stroke-linejoin:round;fill:none"
d="M 81.1559,25.8308
81.5655,25.8707
81.9724,25.9371
82.3752,26.0302
82.7728,26.1498
83.1637,26.2961
83.5465,26.4689
83.9200,26.6683
84.2794,26.8920
84.6205,27.1372
84.9426,27.4026
85.2450,27.6870
85.5270,27.9894
85.7880,28.3086
86.0273,28.6433
86.2443,28.9925
86.4382,29.3550
86.6085,29.7296
86.7543,30.1153
86.8752,30.5107
86.9704,30.9148
87.0392,31.3264
87.0809,31.7444
87.0950,32.1675
87.0915,32.3797
87.0809,32.5907
87.0635,32.8004
87.0392,33.0086
87.0081,33.2153
86.9704,33.4202
86.9260,33.6233
86.8752,33.8243
86.8179,34.0232
86.7543,34.2198
86.6845,34.4139
86.6085,34.6054
86.5263,34.7941
86.4382,34.9800
86.3442,35.1629
86.2443,35.3425
86.1386,35.5189
86.0273,35.6917
85.9104,35.8610
85.7880,36.0265
85.6602,36.1881
85.5270,36.3456
85.3886,36.4990
85.2450,36.6480
85.0963,36.7926
84.9426,36.9325
84.7840,37.0676
84.6205,37.1979
84.4523,37.3230
84.2794,37.4430
84.1020,37.5576
83.9200,37.6668
83.5465,37.8662
83.1637,38.0390
82.7728,38.1852
82.3752,38.3048
81.9724,38.3979
81.5655,38.4643
81.1559,38.5042
80.7450,38.5175
80.3341,38.5042
79.9245,38.4643
79.5177,38.3979
79.1148,38.3048
78.7172,38.1852
78.3264,38.0390
77.9435,37.8662
77.5700,37.6668
77.2106,37.4430
76.8695,37.1979
76.5474,36.9325
76.2451,36.6480
75.9630,36.3456
75.7020,36.0265
75.4627,35.6917
75.2457,35.3425
75.0518,34.9800
74.8816,34.6054
74.7357,34.2198
74.6148,33.8243
74.5197,33.4202
74.4509,33.0086
74.4091,32.5907
74.3950,32.1675
74.3985,31.9554
74.4091,31.7444
74.4265,31.5347
74.4509,31.3264
74.4819,31.1197
74.5197,30.9148
74.5640,30.7117
74.6148,30.5107
74.6721,30.3118
74.7357,30.1153
74.8055,29.9211
74.8816,29.7296
74.9637,29.5409
75.0518,29.3550
75.1459,29.1722
75.2457,28.9925
75.3514,28.8162
75.4627,28.6433
75.5796,28.4741
75.7020,28.3086
75.8299,28.1470
75.9630,27.9894
76.1015,27.8361
76.2451,27.6870
76.3937,27.5425
76.5474,27.4026
76.7060,27.2674
76.8695,27.1372
77.0377,27.0120
77.2106,26.8920
77.3880,26.7774
77.5700,26.6683
77.9435,26.4689
78.3264,26.2961
78.7172,26.1498
79.1148,26.0302
79.5177,25.9372
79.9245,25.8707
80.3341,25.8308
80.7450,25.8175
Z" /> 
<path style="fill:#000000; fill-opacity:0.0; 
stroke:#000000; stroke-width:0.2000; stroke-opacity:1; 
stroke-linecap:round; stroke-linejoin:round;fill:none"
d="M 44.5799,25.8308
44.9895,25.8707
45.3964,25.9371
45.7993,26.0302
46.1968,26.1498
46.5877,26.2960
46.9705,26.4689
47.3440,26.6682
47.7034,26.8920
48.0445,27.1372
48.3666,27.4026
48.6690,27.6870
48.9510,27.9894
49.2120,28.3086
49.4513,28.6433
49.6683,28.9925
49.8622,29.3550
50.0325,29.7296
50.1783,30.1152
50.2992,30.5107
50.3944,30.9148
50.4632,31.3264
50.5049,31.7444
50.5190,32.1675
50.5155,32.3797
50.5049,32.5907
50.4875,32.8004
50.4632,33.0086
50.4321,33.2153
50.3944,33.4202
50.3500,33.6233
50.2992,33.8243
50.2419,34.0232
50.1783,34.2198
50.1085,34.4139
50.0325,34.6054
49.9503,34.7941
49.8622,34.9800
49.7682,35.1628
49.6683,35.3425
49.5626,35.5188
49.4513,35.6917
49.3344,35.8610
49.2120,36.0265
49.0842,36.1881
48.9510,36.3456
48.8126,36.4990
48.6690,36.6480
48.5203,36.7925
48.3666,36.9325
48.2080,37.0676
48.0445,37.1978
47.8763,37.3230
47.7034,37.4430
47.5260,37.5576
47.3440,37.6668
46.9705,37.8662
46.5877,38.0390
46.1968,38.1852
45.7993,38.3048
45.3964,38.3979
44.9895,38.4643
44.5799,38.5042
44.1690,38.5175
43.7581,38.5042
43.3485,38.4643
42.9417,38.3979
42.5388,38.3048
42.1412,38.1852
41.7504,38.0390
41.3675,37.8662
40.9940,37.6668
40.6346,37.4430
40.2935,37.1978
39.9714,36.9325
39.6691,36.6480
39.3870,36.3456
39.1260,36.0265
38.8867,35.6917
38.6698,35.3425
38.4758,34.9800
38.3056,34.6054
38.1597,34.2198
38.0388,33.8243
37.9437,33.4202
37.8749,33.0086
37.8331,32.5907
37.8190,32.1675
37.8225,31.9554
37.8331,31.7444
37.8505,31.5346
37.8749,31.3264
37.9059,31.1197
37.9437,30.9148
37.9880,30.7117
38.0388,30.5107
38.0961,30.3118
38.1597,30.1152
38.2295,29.9211
38.3056,29.7296
38.3877,29.5409
38.4758,29.3550
38.5699,29.1722
38.6698,28.9925
38.7754,28.8162
38.8867,28.6433
39.0036,28.4741
39.1260,28.3086
39.2539,28.1470
39.3870,27.9894
39.5255,27.8360
39.6691,27.6870
39.8177,27.5425
39.9714,27.4026
40.1301,27.2674
40.2935,27.1372
40.4617,27.0120
40.6346,26.8920
40.8120,26.7774
40.9940,26.6682
41.3675,26.4689
41.7504,26.2960
42.1412,26.1498
42.5388,26.0302
42.9417,25.9371
43.3485,25.8707
43.7581,25.8308
44.1690,25.8175
Z" /> 
<path style="fill:#000000; fill-opacity:0.0; 
stroke:#000000; stroke-width:0.2000; stroke-opacity:1; 
stroke-linecap:round; stroke-linejoin:round;fill:none"
d="M 143.4319,45.3834
143.5709,45.3970
143.7089,45.4196
143.8456,45.4511
143.9805,45.4918
144.1131,45.5414
144.2430,45.6001
144.3697,45.6678
144.4916,45.7438
144.6073,45.8270
144.7165,45.9171
144.8190,46.0137
144.9146,46.1164
145.0031,46.2247
145.0842,46.3384
145.1577,46.4569
145.2234,46.5800
145.2811,46.7071
145.3304,46.8380
145.3713,46.9722
145.4034,47.1094
145.4266,47.2491
145.4406,47.3909
145.4452,47.5345
145.4441,47.6065
145.4406,47.6781
145.4348,47.7492
145.4266,47.8199
145.4161,47.8901
145.4034,47.9596
145.3885,48.0285
145.3713,48.0968
145.3519,48.1642
145.3304,48.2310
145.3068,48.2968
145.2811,48.3618
145.2533,48.4259
145.2234,48.4890
145.1916,48.5511
145.1577,48.6121
145.1220,48.6719
145.0842,48.7306
145.0446,48.7881
145.0031,48.8442
144.9598,48.8991
144.9147,48.9526
144.8677,49.0047
144.8191,49.0553
144.7686,49.1043
144.7165,49.1518
144.6627,49.1977
144.6073,49.2420
144.5503,49.2845
144.4916,49.3252
144.4314,49.3641
144.3697,49.4012
144.2430,49.4689
144.1131,49.5276
143.9805,49.5772
143.8457,49.6179
143.7090,49.6495
143.5709,49.6720
143.4320,49.6856
143.2925,49.6901
143.1531,49.6856
143.0142,49.6720
142.8761,49.6495
142.7394,49.6179
142.6046,49.5772
142.4720,49.5276
142.3421,49.4689
142.2154,49.4012
142.0935,49.3252
141.9778,49.2420
141.8686,49.1519
141.7660,49.0553
141.6704,48.9526
141.5819,48.8443
141.5008,48.7306
141.4273,48.6121
141.3616,48.4890
141.3040,48.3619
141.2546,48.2310
141.2138,48.0968
141.1816,47.9596
141.1584,47.8199
141.1444,47.6781
141.1399,47.5345
141.1410,47.4625
141.1444,47.3909
141.1503,47.3198
141.1584,47.2491
141.1689,47.1790
141.1816,47.1094
141.1966,47.0405
141.2137,46.9723
141.2331,46.9048
141.2546,46.8381
141.2782,46.7722
141.3040,46.7072
141.3318,46.6431
141.3616,46.5800
141.3934,46.5179
141.4273,46.4570
141.4631,46.3971
141.5008,46.3384
141.5404,46.2810
141.5819,46.2248
141.6252,46.1699
141.6704,46.1164
141.7173,46.0643
141.7660,46.0138
141.8164,45.9647
141.8685,45.9172
141.9223,45.8713
141.9777,45.8271
142.0348,45.7846
142.0934,45.7438
142.1536,45.7049
142.2153,45.6678
142.3420,45.6001
142.4719,45.5414
142.6045,45.4918
142.7394,45.4512
142.8761,45.4196
143.0141,45.3970
143.1531,45.3834
143.2925,45.3789
Z" /> 
<path style="fill:#000000; fill-opacity:0.0; 
stroke:#000000; stroke-width:0.2000; stroke-opacity:1; 
stroke-linecap:round; stroke-linejoin:round;fill:none"
d="M 150.0994,13.8239
150.2384,13.8375
150.3764,13.8601
150.5131,13.8916
150.6480,13.9323
150.7806,13.9819
150.9105,14.0406
151.0372,14.1083
151.1591,14.1843
151.2748,14.2675
151.3840,14.3576
151.4865,14.4542
151.5821,14.5569
151.6706,14.6652
151.7517,14.7789
151.8252,14.8974
151.8909,15.0205
151.9485,15.1476
151.9979,15.2785
152.0388,15.4127
152.0709,15.5499
152.0941,15.6896
152.1081,15.8314
152.1127,15.9750
152.1116,16.0470
152.1081,16.1186
152.1023,16.1897
152.0941,16.2604
152.0836,16.3306
152.0709,16.4001
152.0560,16.4690
152.0388,16.5372
152.0194,16.6047
151.9979,16.6715
151.9743,16.7373
151.9486,16.8023
151.9208,16.8664
151.8909,16.9295
151.8591,16.9916
151.8253,17.0526
151.7895,17.1124
151.7517,17.1711
151.7121,17.2286
151.6706,17.2847
151.6273,17.3396
151.5822,17.3931
151.5352,17.4452
151.4866,17.4958
151.4361,17.5448
151.3840,17.5923
151.3302,17.6382
151.2748,17.6825
151.2178,17.7250
151.1591,17.7657
151.0989,17.8046
151.0372,17.8417
150.9105,17.9094
150.7806,17.9681
150.6480,18.0177
150.5131,18.0584
150.3765,18.0899
150.2384,18.1125
150.0995,18.1261
149.9600,18.1306
149.8206,18.1261
149.6817,18.1125
149.5436,18.0900
149.4069,18.0584
149.2721,18.0177
149.1395,17.9681
149.0096,17.9094
148.8829,17.8417
148.7610,17.7657
148.6453,17.6825
148.5360,17.5924
148.4335,17.4958
148.3379,17.3931
148.2494,17.2848
148.1683,17.1711
148.0948,17.0526
148.0291,16.9295
147.9715,16.8024
147.9221,16.6715
147.8813,16.5373
147.8491,16.4001
147.8259,16.2604
147.8119,16.1186
147.8074,15.9750
147.8085,15.9030
147.8119,15.8314
147.8178,15.7603
147.8259,15.6896
147.8364,15.6195
147.8491,15.5499
147.8641,15.4810
147.8812,15.4128
147.9006,15.3453
147.9221,15.2786
147.9457,15.2127
147.9715,15.1477
147.9993,15.0836
148.0291,15.0205
148.0609,14.9584
148.0948,14.8975
148.1306,14.8376
148.1683,14.7789
148.2079,14.7215
148.2494,14.6653
148.2927,14.6104
148.3379,14.5569
148.3848,14.5049
148.4335,14.4543
148.4839,14.4052
148.5360,14.3577
148.5898,14.3118
148.6452,14.2676
148.7023,14.2251
148.7609,14.1843
148.8211,14.1454
148.8828,14.1083
149.0095,14.0406
149.1394,13.9819
149.2720,13.9323
149.4069,13.8917
149.5436,13.8601
149.6816,13.8375
149.8206,13.8239
149.9600,13.8194
Z" /> 
<path style="fill:#000000; fill-opacity:0.0; 
stroke:#000000; stroke-width:0.2000; stroke-opacity:1; 
stroke-linecap:round; stroke-linejoin:round;fill:none"
d="M 101.8393,64.6269
101.9782,64.6404
102.1161,64.6629
102.2527,64.6945
102.3874,64.7350
102.5199,64.7846
102.6497,64.8432
102.7763,64.9108
102.8982,64.9866
103.0138,65.0697
103.1230,65.1597
103.2255,65.2561
103.3211,65.3586
103.4096,65.4668
103.4907,65.5803
103.5643,65.6987
103.6300,65.8216
103.6877,65.9486
103.7372,66.0793
103.7782,66.2133
103.8104,66.3503
103.8337,66.4899
103.8479,66.6316
103.8527,66.7750
103.8515,66.8469
103.8479,66.9185
103.8420,66.9895
103.8337,67.0601
103.8232,67.1302
103.8104,67.1997
103.7954,67.2685
103.7782,67.3367
103.7587,67.4041
103.7372,67.4707
103.7135,67.5365
103.6877,67.6014
103.6599,67.6654
103.6300,67.7284
103.5981,67.7904
103.5643,67.8513
103.5284,67.9111
103.4907,67.9697
103.4511,68.0271
103.4096,68.0832
103.3662,68.1380
103.3211,68.1914
103.2742,68.2434
103.2255,68.2939
103.1751,68.3429
103.1230,68.3903
103.0692,68.4361
103.0138,68.4803
102.9568,68.5227
102.8982,68.5634
102.8380,68.6022
102.7763,68.6392
102.6497,68.7068
102.5199,68.7654
102.3874,68.8150
102.2527,68.8555
102.1161,68.8871
101.9782,68.9096
101.8393,68.9231
101.7000,68.9276
101.5607,68.9231
101.4219,68.9096
101.2839,68.8871
101.1474,68.8555
101.0126,68.8150
100.8801,68.7654
100.7503,68.7068
100.6237,68.6392
100.5018,68.5634
100.3862,68.4803
100.2770,68.3903
100.1745,68.2939
100.0789,68.1914
99.9904,68.0832
99.9093,67.9697
99.8358,67.8513
99.7700,67.7284
99.7123,67.6014
99.6628,67.4707
99.6219,67.3367
99.5896,67.1997
99.5663,67.0601
99.5521,66.9185
99.5474,66.7750
99.5486,66.7031
99.5521,66.6316
99.5581,66.5605
99.5663,66.4899
99.5768,66.4198
99.5896,66.3503
99.6046,66.2815
99.6219,66.2133
99.6413,66.1459
99.6628,66.0793
99.6865,66.0135
99.7123,65.9486
99.7401,65.8846
99.7700,65.8216
99.8019,65.7596
99.8358,65.6987
99.8716,65.6389
99.9093,65.5803
99.9489,65.5229
99.9904,65.4668
100.0338,65.4120
100.0789,65.3586
100.1258,65.3066
100.1745,65.2561
100.2249,65.2071
100.2770,65.1597
100.3308,65.1139
100.3862,65.0697
100.4432,65.0273
100.5018,64.9866
100.5620,64.9477
100.6237,64.9108
100.7503,64.8432
100.8801,64.7846
101.0126,64.7350
101.1474,64.6945
101.2839,64.6629
101.4219,64.6404
101.5607,64.6269
101.7000,64.6223
Z" /> 
<path style="fill:#000000; fill-opacity:0.0; 
stroke:#000000; stroke-width:0.2000; stroke-opacity:1; 
stroke-linecap:round; stroke-linejoin:round;fill:none"
d="M 22.4643,26.5269
22.6031,26.5404
22.7411,26.5629
22.8777,26.5945
23.0124,26.6350
23.1449,26.6846
23.2747,26.7432
23.4013,26.8108
23.5232,26.8866
23.6388,26.9697
23.7480,27.0597
23.8505,27.1561
23.9461,27.2586
24.0346,27.3668
24.1157,27.4803
24.1893,27.5987
24.2550,27.7216
24.3127,27.8486
24.3622,27.9793
24.4031,28.1133
24.4354,28.2503
24.4587,28.3899
24.4729,28.5316
24.4777,28.6750
24.4765,28.7469
24.4729,28.8185
24.4670,28.8895
24.4587,28.9601
24.4482,29.0302
24.4354,29.0997
24.4204,29.1685
24.4031,29.2367
24.3837,29.3041
24.3622,29.3707
24.3385,29.4365
24.3127,29.5014
24.2849,29.5654
24.2550,29.6284
24.2231,29.6904
24.1893,29.7513
24.1534,29.8111
24.1157,29.8697
24.0761,29.9271
24.0346,29.9832
23.9912,30.0380
23.9461,30.0914
23.8992,30.1434
23.8505,30.1939
23.8001,30.2429
23.7480,30.2903
23.6942,30.3361
23.6388,30.3803
23.5818,30.4227
23.5232,30.4634
23.4630,30.5023
23.4013,30.5393
23.2747,30.6068
23.1449,30.6654
23.0124,30.7150
22.8777,30.7556
22.7411,30.7871
22.6031,30.8096
22.4643,30.8231
22.3250,30.8277
22.1857,30.8231
22.0469,30.8096
21.9089,30.7871
21.7724,30.7556
21.6376,30.7150
21.5051,30.6654
21.3753,30.6068
21.2487,30.5393
21.1268,30.4634
21.0112,30.3803
20.9020,30.2903
20.7995,30.1939
20.7039,30.0914
20.6154,29.9832
20.5343,29.8697
20.4608,29.7513
20.3950,29.6284
20.3373,29.5014
20.2878,29.3707
20.2469,29.2367
20.2146,29.0997
20.1913,28.9601
20.1771,28.8185
20.1724,28.6750
20.1736,28.6031
20.1771,28.5316
20.1831,28.4605
20.1913,28.3899
20.2018,28.3198
20.2146,28.2503
20.2296,28.1815
20.2469,28.1133
20.2663,28.0459
20.2878,27.9793
20.3115,27.9135
20.3373,27.8486
20.3651,27.7846
20.3950,27.7216
20.4269,27.6596
20.4608,27.5987
20.4966,27.5389
20.5343,27.4803
20.5739,27.4229
20.6154,27.3668
20.6588,27.3120
20.7039,27.2586
20.7508,27.2066
20.7995,27.1561
20.8499,27.1071
20.9020,27.0597
20.9558,27.0139
21.0112,26.9697
21.0682,26.9273
21.1268,26.8866
21.1870,26.8478
21.2487,26.8108
21.3753,26.7432
21.5051,26.6846
21.6376,26.6350
21.7724,26.5945
21.9089,26.5629
22.0469,26.5404
22.1857,26.5269
22.3250,26.5224
Z" /> 
<path style="fill:#000000; fill-opacity:0.0; 
stroke:#000000; stroke-width:0.2000; stroke-opacity:1; 
stroke-linecap:round; stroke-linejoin:round;fill:none"
d="M 129.3132,39.6044
129.6204,39.6343
129.9257,39.6842
130.2279,39.7540
130.5262,39.8438
130.8194,39.9535
131.1067,40.0832
131.3869,40.2328
131.6565,40.4008
131.9124,40.5847
132.1539,40.7839
132.3808,40.9974
132.5923,41.2243
132.7880,41.4638
132.9675,41.7150
133.1302,41.9770
133.2756,42.2490
133.4032,42.5302
133.5126,42.8195
133.6032,43.1162
133.6744,43.4195
133.7259,43.7283
133.7571,44.0419
133.7675,44.3595
133.7650,44.5186
133.7571,44.6769
133.7441,44.8343
133.7260,44.9905
133.7027,45.1456
133.6745,45.2994
133.6413,45.4517
133.6032,45.6026
133.5603,45.7518
133.5127,45.8993
133.4603,46.0449
133.4034,46.1886
133.3418,46.3303
133.2757,46.4698
133.2052,46.6070
133.1304,46.7418
133.0511,46.8741
132.9677,47.0038
132.8800,47.1308
132.7882,47.2550
132.6924,47.3763
132.5925,47.4945
132.4887,47.6096
132.3810,47.7215
132.2694,47.8299
132.1542,47.9349
132.0352,48.0364
131.9126,48.1341
131.7864,48.2281
131.6567,48.3181
131.5236,48.4041
131.3871,48.4860
131.1069,48.6357
130.8197,48.7654
130.5265,48.8751
130.2282,48.9649
129.9260,49.0348
129.6207,49.0846
129.3134,49.1146
129.0052,49.1246
128.6969,49.1146
128.3896,49.0847
128.0843,49.0348
127.7821,48.9650
127.4838,48.8752
127.1906,48.7655
126.9034,48.6358
126.6232,48.4862
126.3535,48.3183
126.0977,48.1343
125.8561,47.9351
125.6293,47.7217
125.4177,47.4947
125.2220,47.2552
125.0425,47.0040
124.8798,46.7420
124.7344,46.4700
124.6068,46.1888
124.4974,45.8995
124.4069,45.6028
124.3356,45.2995
124.2841,44.9907
124.2529,44.6770
124.2425,44.3595
124.2451,44.2004
124.2529,44.0421
124.2659,43.8847
124.2841,43.7285
124.3073,43.5734
124.3355,43.4196
124.3687,43.2673
124.4068,43.1164
124.4497,42.9672
124.4973,42.8197
124.5497,42.6741
124.6067,42.5304
124.6682,42.3887
124.7343,42.2493
124.8048,42.1121
124.8797,41.9772
124.9589,41.8449
125.0424,41.7152
125.1300,41.5882
125.2218,41.4640
125.3177,41.3427
125.4176,41.2245
125.5214,41.1094
125.6291,40.9976
125.7406,40.8891
125.8559,40.7841
125.9748,40.6826
126.0974,40.5849
126.2236,40.4910
126.3533,40.4009
126.4864,40.3149
126.6229,40.2330
126.9031,40.0833
127.1903,39.9536
127.4836,39.8439
127.7818,39.7541
128.0841,39.6843
128.3893,39.6344
128.6966,39.6044
129.0049,39.5944
Z" /> 
</g>
<g style="fill:#000000; fill-opacity:0.0; 
stroke:#000000; stroke-width:0.1000; stroke-opacity:1; 
stroke-linecap:round; stroke-linejoin:round;">
<circle cx="97.0633" cy="60.6999" r="1.5206" /> 
</g>
<g style="fill:#000000; fill-opacity:0.0; 
stroke:#000000; stroke-width:0.2000; stroke-opacity:1; 
stroke-linecap:round; stroke-linejoin:round;">
<path style="fill:#000000; fill-opacity:0.0; 
stroke:#000000; stroke-width:0.2000; stroke-opacity:1; 
stroke-linecap:round; stroke-linejoin:round;fill:none"
d="M 67.1617,15.1837
67.2597,15.1932
67.3571,15.2091
67.4535,15.2314
67.5487,15.2600
67.6423,15.2950
67.7339,15.3364
67.8233,15.3841
67.9094,15.4377
67.9910,15.4964
68.0681,15.5599
68.1405,15.6280
68.2080,15.7004
68.2705,15.7768
68.3277,15.8569
68.3797,15.9405
68.4261,16.0273
68.4668,16.1169
68.5018,16.2092
68.5307,16.3039
68.5535,16.4006
68.5699,16.4992
68.5799,16.5992
68.5833,16.7005
68.5825,16.7513
68.5799,16.8018
68.5758,16.8520
68.5699,16.9018
68.5625,16.9513
68.5535,17.0004
68.5429,17.0490
68.5307,17.0971
68.5170,17.1447
68.5018,17.1917
68.4850,17.2382
68.4668,17.2841
68.4472,17.3292
68.4261,17.3737
68.4036,17.4175
68.3797,17.4605
68.3544,17.5027
68.3277,17.5441
68.2998,17.5846
68.2705,17.6242
68.2399,17.6629
68.2080,17.7006
68.1748,17.7373
68.1405,17.7730
68.1049,17.8076
68.0681,17.8411
68.0301,17.8734
67.9910,17.9046
67.9507,17.9346
67.9094,17.9633
67.8669,17.9907
67.8233,18.0169
67.7339,18.0646
67.6423,18.1059
67.5487,18.1409
67.4535,18.1696
67.3571,18.1919
67.2597,18.2078
67.1617,18.2173
67.0633,18.2205
66.9650,18.2173
66.8669,18.2078
66.7695,18.1919
66.6731,18.1696
66.5779,18.1409
66.4844,18.1059
66.3927,18.0646
66.3033,18.0169
66.2173,17.9633
66.1356,17.9046
66.0585,17.8411
65.9862,17.7730
65.9187,17.7006
65.8562,17.6242
65.7989,17.5441
65.7470,17.4605
65.7005,17.3737
65.6598,17.2841
65.6249,17.1917
65.5959,17.0971
65.5732,17.0004
65.5567,16.9018
65.5467,16.8018
65.5433,16.7005
65.5442,16.6497
65.5467,16.5992
65.5509,16.5490
65.5567,16.4992
65.5641,16.4497
65.5732,16.4006
65.5838,16.3520
65.5959,16.3039
65.6096,16.2563
65.6249,16.2092
65.6416,16.1628
65.6598,16.1169
65.6794,16.0718
65.7005,16.0273
65.7230,15.9835
65.7470,15.9405
65.7722,15.8983
65.7989,15.8569
65.8269,15.8164
65.8562,15.7768
65.8868,15.7381
65.9187,15.7004
65.9518,15.6637
65.9862,15.6280
66.0218,15.5934
66.0585,15.5599
66.0965,15.5276
66.1356,15.4964
66.1759,15.4664
66.2173,15.4377
66.2598,15.4103
66.3033,15.3841
66.3927,15.3364
66.4844,15.2950
66.5779,15.2600
66.6731,15.2314
66.7695,15.2091
66.8669,15.1932
66.9650,15.1837
67.0633,15.1805
Z" /> 
<path style="fill:#000000; fill-opacity:0.0; 
stroke:#000000; stroke-width:0.2000; stroke-opacity:1; 
stroke-linecap:round; stroke-linejoin:round;fill:none"
d="M 114.8568,45.3864
114.9957,45.3999
115.1336,45.4224
115.2702,45.4540
115.4049,45.4945
115.5374,45.5441
115.6672,45.6027
115.7938,45.6703
115.9157,45.7461
116.0313,45.8292
116.1405,45.9192
116.2430,46.0156
116.3386,46.1181
116.4271,46.2263
116.5082,46.3398
116.5818,46.4582
116.6475,46.5811
116.7052,46.7081
116.7547,46.8388
116.7957,46.9728
116.8279,47.1098
116.8512,47.2494
116.8654,47.3911
116.8702,47.5345
116.8690,47.6064
116.8654,47.6780
116.8595,47.7490
116.8512,47.8196
116.8407,47.8897
116.8279,47.9592
116.8129,48.0280
116.7957,48.0962
116.7762,48.1636
116.7547,48.2302
116.7310,48.2960
116.7052,48.3609
116.6774,48.4249
116.6475,48.4879
116.6156,48.5499
116.5818,48.6108
116.5460,48.6706
116.5082,48.7292
116.4686,48.7866
116.4271,48.8427
116.3837,48.8975
116.3386,48.9509
116.2917,49.0029
116.2430,49.0534
116.1926,49.1024
116.1405,49.1498
116.0867,49.1956
116.0313,49.2398
115.9743,49.2822
115.9157,49.3229
115.8555,49.3618
115.7938,49.3988
115.6672,49.4663
115.5374,49.5249
115.4049,49.5745
115.2702,49.6151
115.1336,49.6466
114.9957,49.6691
114.8568,49.6826
114.7175,49.6872
114.5782,49.6826
114.4394,49.6691
114.3014,49.6466
114.1649,49.6151
114.0301,49.5745
113.8976,49.5249
113.7678,49.4663
113.6412,49.3988
113.5193,49.3229
113.4037,49.2398
113.2945,49.1498
113.1920,49.0534
113.0964,48.9509
113.0079,48.8427
112.9268,48.7292
112.8533,48.6108
112.7875,48.4879
112.7298,48.3609
112.6804,48.2302
112.6394,48.0962
112.6071,47.9592
112.5838,47.8196
112.5696,47.6780
112.5649,47.5345
112.5661,47.4626
112.5696,47.3911
112.5756,47.3200
112.5838,47.2494
112.5943,47.1793
112.6071,47.1098
112.6221,47.0410
112.6394,46.9728
112.6588,46.9054
112.6804,46.8388
112.7040,46.7730
112.7298,46.7081
112.7576,46.6441
112.7875,46.5811
112.8194,46.5191
112.8533,46.4582
112.8891,46.3984
112.9268,46.3398
112.9664,46.2824
113.0079,46.2263
113.0513,46.1715
113.0964,46.1181
113.1434,46.0661
113.1920,46.0156
113.2424,45.9666
113.2945,45.9192
113.3483,45.8734
113.4037,45.8292
113.4607,45.7868
113.5193,45.7461
113.5795,45.7073
113.6412,45.6703
113.7678,45.6027
113.8976,45.5441
114.0301,45.4945
114.1649,45.4540
114.3014,45.4224
114.4394,45.3999
114.5782,45.3864
114.7175,45.3819
Z" /> 
<path style="fill:#000000; fill-opacity:0.0; 
stroke:#000000; stroke-width:0.2000; stroke-opacity:1; 
stroke-linecap:round; stroke-linejoin:round;fill:none"
d="M 9.7643,117.0144
9.9031,117.0279
10.0411,117.0504
10.1777,117.0820
10.3124,117.1225
10.4449,117.1721
10.5747,117.2307
10.7013,117.2983
10.8232,117.3741
10.9388,117.4572
11.0480,117.5472
11.1505,117.6436
11.2461,117.7461
11.3346,117.8543
11.4157,117.9678
11.4893,118.0862
11.5550,118.2091
11.6127,118.3361
11.6622,118.4668
11.7031,118.6008
11.7354,118.7378
11.7587,118.8774
11.7729,119.0191
11.7777,119.1625
11.7765,119.2344
11.7729,119.3060
11.7670,119.3770
11.7587,119.4476
11.7482,119.5177
11.7354,119.5872
11.7204,119.6560
11.7031,119.7242
11.6837,119.7916
11.6622,119.8582
11.6385,119.9240
11.6127,119.9889
11.5849,120.0529
11.5550,120.1160
11.5231,120.1779
11.4893,120.2388
11.4534,120.2986
11.4157,120.3572
11.3761,120.4146
11.3346,120.4707
11.2912,120.5255
11.2461,120.5789
11.1992,120.6309
11.1505,120.6814
11.1001,120.7304
11.0480,120.7778
10.9942,120.8237
10.9388,120.8678
10.8818,120.9102
10.8232,120.9509
10.7630,120.9898
10.7013,121.0268
10.5747,121.0944
10.4449,121.1529
10.3124,121.2025
10.1777,121.2431
10.0411,121.2746
9.9031,121.2971
9.7643,121.3107
9.6250,121.3152
9.4857,121.3107
9.3469,121.2971
9.2089,121.2746
9.0723,121.2431
8.9376,121.2025
8.8051,121.1529
8.6753,121.0944
8.5487,121.0268
8.4268,120.9509
8.3112,120.8678
8.2020,120.7778
8.0995,120.6814
8.0039,120.5789
7.9154,120.4707
7.8343,120.3572
7.7607,120.2388
7.6950,120.1160
7.6373,119.9889
7.5878,119.8582
7.5469,119.7242
7.5146,119.5872
7.4913,119.4476
7.4771,119.3060
7.4723,119.1625
7.4735,119.0906
7.4771,119.0191
7.4830,118.9480
7.4913,118.8774
7.5018,118.8073
7.5146,118.7378
7.5296,118.6690
7.5469,118.6008
7.5663,118.5334
7.5878,118.4668
7.6115,118.4010
7.6373,118.3361
7.6651,118.2721
7.6950,118.2091
7.7269,118.1471
7.7607,118.0862
7.7966,118.0264
7.8343,117.9678
7.8739,117.9104
7.9154,117.8543
7.9588,117.7995
8.0039,117.7461
8.0508,117.6941
8.0995,117.6436
8.1499,117.5946
8.2020,117.5472
8.2558,117.5014
8.3112,117.4572
8.3682,117.4148
8.4268,117.3741
8.4870,117.3353
8.5487,117.2983
8.6753,117.2307
8.8051,117.1721
8.9376,117.1225
9.0723,117.0820
9.2089,117.0504
9.3469,117.0279
9.4857,117.0144
9.6250,117.0099
Z" /> 
<path style="fill:#000000; fill-opacity:0.0; 
stroke:#000000; stroke-width:0.2000; stroke-opacity:1; 
stroke-linecap:round; stroke-linejoin:round;fill:none"
d="M 44.5799,73.1383
44.9895,73.1782
45.3964,73.2446
45.7992,73.3377
46.1968,73.4573
46.5877,73.6036
46.9705,73.7764
47.3440,73.9758
47.7034,74.1995
48.0445,74.4447
48.3666,74.7101
48.6690,74.9945
48.9510,75.2969
49.2120,75.6161
49.4513,75.9508
49.6683,76.3000
49.8622,76.6625
50.0325,77.0371
50.1783,77.4228
50.2992,77.8182
50.3944,78.2223
50.4632,78.6339
50.5049,79.0519
50.5190,79.4750
50.5155,79.6872
50.5049,79.8982
50.4875,80.1079
50.4632,80.3161
50.4321,80.5228
50.3944,80.7277
50.3500,80.9308
50.2992,81.1318
50.2419,81.3307
50.1783,81.5273
50.1085,81.7214
50.0325,81.9129
49.9503,82.1016
49.8622,82.2875
49.7682,82.4704
49.6683,82.6500
49.5626,82.8263
49.4513,82.9992
49.3344,83.1685
49.2120,83.3340
49.0842,83.4956
48.9510,83.6531
48.8126,83.8065
48.6690,83.9555
48.5203,84.1000
48.3666,84.2400
48.2080,84.3751
48.0445,84.5054
47.8763,84.6305
47.7034,84.7505
47.5260,84.8651
47.3440,84.9743
46.9705,85.1737
46.5877,85.3465
46.1968,85.4927
45.7992,85.6123
45.3964,85.7054
44.9895,85.7718
44.5799,85.8117
44.1690,85.8250
43.7581,85.8117
43.3485,85.7718
42.9416,85.7054
42.5388,85.6123
42.1412,85.4927
41.7504,85.3465
41.3675,85.1737
40.9940,84.9743
40.6346,84.7505
40.2935,84.5054
39.9714,84.2400
39.6691,83.9555
39.3870,83.6531
39.1260,83.3340
38.8867,82.9992
38.6697,82.6500
38.4758,82.2875
38.3056,81.9129
38.1597,81.5273
38.0388,81.1318
37.9436,80.7277
37.8748,80.3161
37.8331,79.8982
37.8190,79.4750
37.8225,79.2629
37.8331,79.0519
37.8505,78.8422
37.8748,78.6339
37.9059,78.4272
37.9437,78.2223
37.9880,78.0192
38.0388,77.8182
38.0961,77.6193
38.1597,77.4228
38.2295,77.2286
38.3056,77.0371
38.3877,76.8484
38.4758,76.6625
38.5699,76.4797
38.6697,76.3000
38.7754,76.1237
38.8867,75.9508
39.0036,75.7816
39.1260,75.6161
39.2539,75.4545
39.3870,75.2969
39.5255,75.1436
39.6691,74.9945
39.8177,74.8500
39.9714,74.7101
40.1300,74.5749
40.2935,74.4447
40.4617,74.3195
40.6346,74.1995
40.8120,74.0849
40.9940,73.9758
41.3675,73.7764
41.7504,73.6036
42.1412,73.4573
42.5388,73.3377
42.9416,73.2446
43.3485,73.1782
43.7581,73.1383
44.1690,73.1250
Z" /> 
<path style="fill:#000000; fill-opacity:0.0; 
stroke:#000000; stroke-width:0.2000; stroke-opacity:1; 
stroke-linecap:round; stroke-linejoin:round;fill:none"
d="M 6.5893,136.3724
6.7281,136.3859
6.8661,136.4084
7.0027,136.4400
7.1374,136.4805
7.2699,136.5301
7.3997,136.5887
7.5263,136.6563
7.6482,136.7321
7.7638,136.8152
7.8730,136.9052
7.9755,137.0016
8.0711,137.1041
8.1596,137.2123
8.2407,137.3258
8.3143,137.4442
8.3800,137.5671
8.4377,137.6941
8.4872,137.8248
8.5281,137.9589
8.5604,138.0959
8.5837,138.2354
8.5979,138.3771
8.6027,138.5205
8.6015,138.5925
8.5979,138.6640
8.5920,138.7351
8.5837,138.8057
8.5732,138.8757
8.5604,138.9452
8.5454,139.0140
8.5281,139.0822
8.5087,139.1496
8.4872,139.2163
8.4635,139.2821
8.4377,139.3470
8.4099,139.4110
8.3800,139.4740
8.3481,139.5360
8.3143,139.5969
8.2784,139.6566
8.2407,139.7152
8.2011,139.7726
8.1596,139.8287
8.1162,139.8835
8.0711,139.9369
8.0242,139.9889
7.9755,140.0394
7.9251,140.0884
7.8730,140.1359
7.8192,140.1817
7.7638,140.2258
7.7068,140.2682
7.6482,140.3089
7.5880,140.3478
7.5263,140.3848
7.3997,140.4524
7.2699,140.5110
7.1374,140.5605
7.0027,140.6011
6.8661,140.6326
6.7281,140.6552
6.5893,140.6687
6.4500,140.6732
6.3107,140.6687
6.1719,140.6552
6.0339,140.6326
5.8974,140.6011
5.7626,140.5605
5.6301,140.5110
5.5003,140.4524
5.3737,140.3848
5.2518,140.3089
5.1362,140.2258
5.0270,140.1359
4.9245,140.0394
4.8289,139.9369
4.7404,139.8287
4.6593,139.7152
4.5858,139.5969
4.5200,139.4740
4.4623,139.3470
4.4128,139.2163
4.3719,139.0822
4.3396,138.9452
4.3163,138.8057
4.3021,138.6640
4.2974,138.5205
4.2986,138.4486
4.3021,138.3771
4.3080,138.3060
4.3163,138.2354
4.3268,138.1653
4.3396,138.0959
4.3546,138.0270
4.3719,137.9589
4.3913,137.8914
4.4128,137.8248
4.4365,137.7590
4.4623,137.6941
4.4901,137.6301
4.5200,137.5671
4.5519,137.5051
4.5858,137.4442
4.6216,137.3844
4.6593,137.3258
4.6989,137.2684
4.7404,137.2123
4.7838,137.1576
4.8289,137.1041
4.8758,137.0522
4.9245,137.0016
4.9749,136.9526
5.0270,136.9052
5.0808,136.8594
5.1362,136.8152
5.1932,136.7728
5.2518,136.7321
5.3120,136.6933
5.3737,136.6563
5.5003,136.5887
5.6301,136.5301
5.7626,136.4805
5.8974,136.4400
6.0339,136.4084
6.1719,136.3859
6.3107,136.3724
6.4500,136.3679
Z" /> 
<path style="fill:#000000; fill-opacity:0.0; 
stroke:#000000; stroke-width:0.2000; stroke-opacity:1; 
stroke-linecap:round; stroke-linejoin:round;fill:none"
d="M 97.1617,59.1825
97.2598,59.1920
97.3572,59.2079
97.4537,59.2302
97.5489,59.2589
97.6425,59.2939
97.7342,59.3353
97.8236,59.3831
97.9097,59.4367
97.9914,59.4955
98.0685,59.5590
98.1409,59.6272
98.2084,59.6996
98.2709,59.7761
98.3281,59.8563
98.3801,59.9399
98.4265,60.0268
98.4672,60.1165
98.5021,60.2089
98.5309,60.3036
98.5537,60.4004
98.5701,60.4990
98.5800,60.5991
98.5833,60.7005
98.5825,60.7513
98.5799,60.8018
98.5758,60.8520
98.5699,60.9018
98.5625,60.9513
98.5535,61.0004
98.5429,61.0490
98.5307,61.0971
98.5170,61.1447
98.5018,61.1918
98.4850,61.2382
98.4668,61.2841
98.4472,61.3292
98.4261,61.3737
98.4036,61.4175
98.3797,61.4605
98.3544,61.5027
98.3277,61.5441
98.2998,61.5846
98.2705,61.6242
98.2399,61.6629
98.2080,61.7006
98.1748,61.7373
98.1405,61.7730
98.1049,61.8076
98.0681,61.8411
98.0301,61.8734
97.9910,61.9046
97.9507,61.9346
97.9094,61.9633
97.8669,61.9907
97.8233,62.0169
97.7339,62.0646
97.6423,62.1060
97.5487,62.1410
97.4535,62.1696
97.3571,62.1919
97.2597,62.2078
97.1617,62.2173
97.0633,62.2205
96.9650,62.2173
96.8669,62.2078
96.7695,62.1919
96.6731,62.1696
96.5779,62.1410
96.4844,62.1060
96.3927,62.0646
96.3033,62.0169
96.2173,61.9633
96.1356,61.9046
96.0585,61.8411
95.9862,61.7730
95.9186,61.7006
95.8562,61.6242
95.7989,61.5441
95.7470,61.4605
95.7005,61.3737
95.6598,61.2841
95.6249,61.1918
95.5959,61.0971
95.5731,61.0004
95.5567,60.9018
95.5467,60.8018
95.5433,60.7005
95.5441,60.6497
95.5466,60.5992
95.5507,60.5489
95.5565,60.4991
95.5639,60.4496
95.5729,60.4005
95.5835,60.3518
95.5957,60.3037
95.6093,60.2560
95.6245,60.2089
95.6412,60.1624
95.6594,60.1166
95.6791,60.0714
95.7001,60.0268
95.7226,59.9830
95.7465,59.9400
95.7718,59.8977
95.7985,59.8563
95.8264,59.8158
95.8557,59.7761
95.8863,59.7374
95.9182,59.6997
95.9513,59.6629
95.9857,59.6272
96.0213,59.5926
96.0581,59.5591
96.0961,59.5267
96.1352,59.4955
96.1755,59.4655
96.2169,59.4367
96.2594,59.4093
96.3029,59.3831
96.3924,59.3353
96.4841,59.2939
96.5777,59.2589
96.6729,59.2302
96.7693,59.2079
96.8668,59.1920
96.9649,59.1825
97.0633,59.1793
Z" /> 
<path style="fill:#000000; fill-opacity:0.0; 
stroke:#000000; stroke-width:0.2000; stroke-opacity:1; 
stroke-linecap:round; stroke-linejoin:round;fill:none"
d="M 65.3268,21.1294
65.4657,21.1429
65.6036,21.1654
65.7402,21.1970
65.8749,21.2375
66.0074,21.2871
66.1372,21.3457
66.2638,21.4133
66.3857,21.4891
66.5013,21.5722
66.6105,21.6622
66.7130,21.7586
66.8086,21.8611
66.8971,21.9693
66.9782,22.0828
67.0518,22.2012
67.1175,22.3241
67.1752,22.4511
67.2247,22.5818
67.2656,22.7158
67.2979,22.8528
67.3212,22.9924
67.3354,23.1341
67.3402,23.2775
67.3390,23.3494
67.3354,23.4210
67.3295,23.4920
67.3212,23.5626
67.3107,23.6327
67.2979,23.7022
67.2829,23.7710
67.2656,23.8392
67.2462,23.9066
67.2247,23.9732
67.2010,24.0390
67.1752,24.1039
67.1474,24.1679
67.1175,24.2309
67.0856,24.2929
67.0518,24.3538
67.0159,24.4136
66.9782,24.4722
66.9386,24.5296
66.8971,24.5857
66.8537,24.6405
66.8086,24.6939
66.7617,24.7459
66.7130,24.7964
66.6626,24.8454
66.6105,24.8928
66.5567,24.9386
66.5013,24.9828
66.4443,25.0252
66.3857,25.0659
66.3255,25.1048
66.2638,25.1418
66.1372,25.2093
66.0074,25.2679
65.8749,25.3175
65.7402,25.3581
65.6036,25.3896
65.4657,25.4121
65.3268,25.4256
65.1875,25.4302
65.0482,25.4256
64.9094,25.4121
64.7714,25.3896
64.6349,25.3581
64.5001,25.3175
64.3676,25.2679
64.2378,25.2093
64.1112,25.1418
63.9893,25.0659
63.8737,24.9828
63.7645,24.8928
63.6620,24.7964
63.5664,24.6939
63.4779,24.5857
63.3968,24.4722
63.3233,24.3538
63.2575,24.2309
63.1998,24.1039
63.1503,23.9732
63.1094,23.8392
63.0771,23.7022
63.0538,23.5626
63.0396,23.4210
63.0349,23.2775
63.0361,23.2056
63.0396,23.1341
63.0456,23.0630
63.0538,22.9924
63.0643,22.9223
63.0771,22.8528
63.0921,22.7840
63.1094,22.7158
63.1288,22.6484
63.1503,22.5818
63.1740,22.5160
63.1998,22.4511
63.2276,22.3871
63.2575,22.3241
63.2894,22.2621
63.3233,22.2012
63.3591,22.1414
63.3968,22.0828
63.4364,22.0254
63.4779,21.9693
63.5213,21.9145
63.5664,21.8611
63.6133,21.8091
63.6620,21.7586
63.7124,21.7096
63.7645,21.6622
63.8183,21.6164
63.8737,21.5722
63.9307,21.5298
63.9893,21.4891
64.0495,21.4503
64.1112,21.4133
64.2378,21.3457
64.3676,21.2871
64.5001,21.2375
64.6349,21.1970
64.7714,21.1654
64.9094,21.1429
65.0482,21.1294
65.1875,21.1249
Z" /> 
<g >
</g>
<g >
</g>
<g >
</g>
<g >
</g>
<g >
</g>
<g >
</g>
<g >
</g>
<g >
</g>
<g >
</g>
<g >
</g>
<g >
</g>
<g >
</g>
<g >
</g>
<g >
</g>
<g >
</g>
<g >
</g>
<g >
</g>
<g >
</g>
<g >
</g>
<g >
</g>
<g >
</g>
<g >
</g>
<g >
</g>
<g >
</g>
<g >
</g>
<g >
</g>
<g >
</g>
<g >
</g>
<g >
</g>
<g >
</g>
<g >
</g>
<g >
</g>
<g >
</g>
<g >
</g>
<g >
</g>
<g >
</g>
<g >
</g>
<g >
</g>
<g >
</g>
<g >
</g>
<g >
</g>
<g >
</g>
<g >
</g>
<g >
</g>
<g >
</g>
<g >
</g>
<g >
</g>
<g >
</g>
<g >
</g>
<g >
</g>
<g >
</g>
<g >
</g>
<g >
</g>
<g >
</g>
<g >
</g>
<g >
</g>
<g >
</g>
<g >
</g>
<g >
</g>
<g >
</g>
<g >
</g>
<g >
</g>
<g >
</g>
<g >
</g>
<g >
</g>
<g >
</g>
<g >
</g>
<g >
</g>
<g >
</g>
<g >
</g>
<g >
</g>
<g >
</g>
<g >
</g>
<g >
</g>
<g >
</g>
<g >
</g>
<g >
</g>
<g >
</g>
<g >
</g>
<g >
</g>
<g >
</g>
<g >
</g>
<g >
</g>
<g >
</g>
<g >
</g>
<g >
</g>
<g >
</g>
<g >
</g>
<g >
</g>
<g >
</g>
<g >
</g>
<g >
</g>
<g >
</g>
<g >
</g>
<g >
</g>
<g >
</g>
<g >
</g>
<g >
</g>
<g >
</g>
<g >
</g>
<g >
</g>
<g >
</g>
<g >
</g>
<g >
</g>
<g >
</g>
<g >
</g>
<g >
</g>
<g >
</g>
<g >
</g>
<g >
</g>
<g >
</g>
<g >
</g>
<g >
</g>
<g >
</g>
<g >
</g>
<g >
</g>
<g >
</g>
<g >
</g>
<g >
</g>
<g >
</g>
<g >
</g>
<g >
</g>
<g >
</g>
<g >
</g>
<g >
</g>
<g >
</g>
<g >
</g>
<g >
</g>
<g >
</g>
<g >
</g>
<g >
</g>
<g >
</g>
<g >
</g>
<g >
</g>
<g >
</g>
<g >
</g>
<g >
</g>
<g >
</g>
<g >
</g>
<g >
</g>
<g >
</g>
<g >
</g>
<g >
</g>
<g >
</g>
<g >
</g>
<g >
</g>
<g >
</g>
<g >
</g>
<g >
</g>
<g >
</g>
<g >
</g>
<g >
</g>
<g >
</g>
<g >
</g>
<g >
</g>
<g >
</g>
<g >
</g>
<g >
</g>
<g >
</g>
<g >
</g>
<g >
</g>
</g> 
</svg>
