<?xml version="1.0" standalone="no"?>
 <!DOCTYPE svg PUBLIC "-//W3C//DTD SVG 1.1//EN" 
 "http://www.w3.org/Graphics/SVG/1.1/DTD/svg11.dtd"> 
<svg
  xmlns:svg="http://www.w3.org/2000/svg"
  xmlns="http://www.w3.org/2000/svg"
  xmlns:xlink="http://www.w3.org/1999/xlink"
  version="1.1"
  width="297.0022mm" height="210.0072mm" viewBox="0.0000 0.0000 297.0022 210.0072">
<title>SVG Image created as SELECT JETT PANEL-Edge_Cuts.svg date 2023/04/16 04:26:11 </title>
  <desc>Image generated by PCBNEW </desc>
<g style="fill:#000000; fill-opacity:1.0000;stroke:#000000; stroke-opacity:1.0000;
stroke-linecap:round; stroke-linejoin:round;"
 transform="translate(0 0) scale(1 1)">
</g>
<g style="fill:#000000; fill-opacity:0.0; 
stroke:#000000; stroke-width:0.0000; stroke-opacity:1; 
stroke-linecap:round; stroke-linejoin:round;">
</g>
<g style="fill:#000000; fill-opacity:0.0; 
stroke:#000000; stroke-width:0.2000; stroke-opacity:1; 
stroke-linecap:round; stroke-linejoin:round;">
<path d="M132.7339 95.4054
L132.9311 95.5590
" />
<path d="M64.8806 118.0825
L65.0328 118.1142
" />
<path d="M135.5158 110.6001
L135.5536 110.6011
" />
<path d="M67.5318 144.9968
L67.5447 145.0283
" />
<path d="M100.4164 97.4886
L100.5019 97.2995
" />
<path d="M63.9951 117.8939
L64.0250 117.9139
" />
<path d="M64.3708 118.0301
L64.4091 118.0322
" />
<path d="M65.0328 118.1142
L65.1822 118.1530
" />
<path d="M68.1441 145.4799
L101.6947 149.8969
" />
<path d="M129.7116 94.4086
L129.9635 94.4148
" />
<path d="M67.5913 145.1184
L67.6094 145.1468
" />
<path d="M95.1279 117.2549
L95.1088 117.0939
" />
<path d="M64.1540 117.9797
L64.1884 117.9923
" />
<path d="M133.3037 95.8965
L133.4774 96.0790
" />
<path d="M135.3320 110.5681
L135.3679 110.5781
" />
<path d="M131.8822 94.8957
L132.1037 95.0070
" />
<path d="M67.5017 144.8985
L67.5103 144.9319
" />
<path d="M209.7322 29.8300 A0.5000 0.5000 0.0 0 0 209.2322 29.3300" />
<path d="M101.0333 96.4254
L101.1590 96.2660
" />
<path d="M67.1813 119.8562
L67.2424 119.9946
" />
<path d="M95.2009 115.4840
L95.2383 115.3258
" />
<path d="M95.0948 116.9325
L95.0860 116.7709
" />
<path d="M65.8806 118.4476
L66.0093 118.5253
" />
<path d="M63.6726 117.3090
L63.6754 117.3468
" />
<path d="M134.7954 109.9144
L134.8000 109.9516
" />
<path d="M102.1953 95.3115
L102.3633 95.2000
" />
<path d="M231.9080 166.4156
L231.9197 166.3770
" />
<path d="M135.3679 110.5781
L135.4043 110.5863
" />
<path d="M102.5542 149.1971
L102.5562 149.1514
" />
<path d="M67.2424 119.9946
L67.2970 120.1363
" />
<path d="M130.9499 94.5618
L131.1891 94.6282
" />
<path d="M100.8008 96.7601
L100.9139 96.5902
" />
<path d="M135.1309 110.4731
L135.1624 110.4930
" />
<path d="M66.1339 118.6088
L66.2542 118.6979
" />
<path d="M169.6056 111.1625
L169.9491 111.3564
" />
<path d="M135.4411 110.5927
L135.4783 110.5974
" />
<path d="M65.6117 118.3104
L65.7480 118.3759
" />
<path d="M63.7045 117.4925
L63.7160 117.5273
" />
<path d="M170.2761 111.5759
L170.5852 111.8200
" />
<path d="M231.9318 110.4753
L231.9236 110.4389
" />
<path d="M231.8417 166.5619
L231.8611 166.5267
" />
<path d="M134.8064 109.9884
L134.8146 110.0248
" />
<path d="M101.7196 95.6844
L101.8732 95.5539
" />
<path d="M102.3894 149.6173
L102.4173 149.5802
" />
<path d="M102.0570 149.8567
L102.0993 149.8397
" />
<path d="M231.7971 110.1713
L231.7741 110.1417
" />
<path d="M95.2809 115.1686
L100.2051 98.0819
" />
<path d="M101.5712 95.8211
L101.7196 95.6844
" />
<path d="M132.3198 95.1292
L132.5300 95.2621
" />
<path d="M187.1136 160.7519
L187.1243 160.7770
" />
<path d="M231.5889 166.8219
L231.6227 166.7995
" />
<path d="M216.9251 95.1482
L216.7923 94.9380
" />
<circle cx="103.0547" cy="65.6550" r="4.7625" /> 
<path d="M217.3858 95.7394
L217.2221 95.5493
" />
<path d="M67.8225 145.3596
L67.8512 145.3777
" />
<path d="M104.0494 94.5152
L104.2524 94.4772
" />
<path d="M104.2524 94.4772
L104.4578 94.4474
" />
<path d="M134.8246 110.0607
L134.8362 110.0960
" />
<path d="M103.6514 94.6150
L103.8490 94.5612
" />
<path d="M134.5720 98.0111
L134.6384 98.2503
" />
<path d="M133.4774 96.0790
L133.6412 96.2691
" />
<path d="M67.6707 145.2269
L67.6934 145.2516
" />
<path d="M217.2221 95.5493
L217.0684 95.3521
" />
<path d="M231.9020 110.3677
L231.8886 110.3330
" />
<path d="M102.5320 149.3320
L102.5421 149.2876
" />
<path d="M65.4718 118.2513
L65.6117 118.3104
" />
<path d="M187.1897 160.8947
L187.2213 160.9379
" />
<path d="M65.3286 118.1988
L65.4718 118.2513
" />
<path d="M95.1413 115.8030
L95.1685 115.6431
" />
<path d="M95.1088 117.0939
L95.0948 116.9325
" />
<path d="M67.3859 120.4289
L67.4199 120.5795
" />
<path d="M67.4816 144.7244
L67.4824 144.7601
" />
<path d="M67.5103 144.9319
L67.5203 144.9646
" />
<path d="M216.7923 94.9380
L216.6701 94.7219
" />
<path d="M132.5300 95.2621
L132.7339 95.4054
" />
<path d="M134.8146 110.0248
L134.8246 110.0607
" />
<path d="M102.1806 149.7983
L102.2193 149.7739
" />
<path d="M134.7854 99.2367
L134.7916 99.4886
" />
<path d="M216.2248 93.5680
L216.1701 93.3255
" />
<path d="M102.2567 149.7471
L102.2925 149.7180
" />
<path d="M63.9662 117.8725
L63.9951 117.8939
" />
<path d="M102.8930 94.9063
L103.0774 94.8224
" />
<path d="M167.6944 110.6176
L168.0975 110.6664
" />
<path d="M95.2163 117.7345
L95.1816 117.5753
" />
<path d="M95.1522 117.4154
L95.1279 117.2549
" />
<path d="M67.5203 144.9646
L67.5318 144.9968
" />
<path d="M187.4645 161.1408
L187.5126 161.1641
" />
<path d="M187.1358 160.8016
L187.1612 160.8493
" />
<path d="M104.4578 94.4474
L104.6654 94.4259
" />
<path d="M102.4861 149.4608
L102.5040 149.4188
" />
<path d="M95.0839 116.4474
L95.0905 116.2858
" />
<path d="M187.5126 161.1641
L187.5624 161.1840
" />
<path d="M231.8385 110.2334
L231.8186 110.2019
" />
<path d="M231.8611 166.5267
L231.8787 166.4905
" />
<path d="M66.8759 119.3399
L66.9610 119.4630
" />
<path d="M63.7291 117.5613
L63.7437 117.5945
" />
<path d="M231.6555 166.7751
L231.6871 166.7489
" />
<path d="M187.6139 161.2005
L187.6402 161.2074
" />
<path d="M231.5182 166.8611
L231.5540 166.8425
" />
<path d="M67.6491 145.2011
L67.6707 145.2269
" />
<path d="M187.1039 160.7263
L187.1136 160.7519
" />
<path d="M104.8750 94.4129
L105.0864 94.4086
" />
<path d="M67.4824 144.7601
L67.4849 144.7954
" />
<path d="M187.1243 160.7770
L187.1358 160.8016
" />
<path d="M231.7741 110.1417
L231.7495 110.1132
" />
<path d="M102.5554 149.1054
L102.5518 149.0594
" />
<path d="M68.0068 145.4488
L68.0402 145.4589
" />
<path d="M64.0250 117.9139
L64.0559 117.9326
" />
<path d="M231.8943 166.4534
L231.9080 166.4156
" />
<path d="M63.8862 117.8007
L63.9117 117.8259
" />
<path d="M67.4945 144.8646
L67.5017 144.8985
" />
<path d="M216.1222 42.3300 A0.5000 0.5000 0.0 0 0 215.6222 41.8300" />
<path d="M95.1685 115.6431
L95.2009 115.4840
" />
<path d="M95.0824 116.6091
L95.0839 116.4474
" />
<path d="M102.4656 149.5018
L102.4861 149.4608
" />
<path d="M67.8807 145.3946
L67.9111 145.4102
" />
<path d="M67.4889 144.8303
L67.4945 144.8646
" />
<path d="M168.0975 110.6664
L168.4917 110.7464
" />
<path d="M135.4783 110.5974
L135.5158 110.6001
" />
<path d="M231.0852 166.9315
L231.1260 166.9357
" />
<path d="M63.6946 117.4570
L63.7045 117.4925
" />
<path d="M67.7421 145.2981
L67.7679 145.3198
" />
<path d="M131.4245 94.7061
L131.6556 94.7953
" />
<path d="M67.7679 145.3198
L67.7947 145.3403
" />
<path d="M65.1822 118.1530
L65.3286 118.1988
" />
<path d="M134.4049 97.5446
L134.4942 97.7757
" />
<path d="M131.6556 94.7953
L131.8822 94.8957
" />
<path d="M64.2235 118.0033
L64.2594 118.0126
" />
<path d="M135.2620 110.5431
L135.2967 110.5565
" />
<path d="M67.2970 120.1363
L67.3448 120.2811
" />
<path d="M63.7966 117.6889
L63.8170 117.7184
" />
<path d="M231.2074 166.9377
L231.2478 166.9354
" />
<path d="M102.5357 95.0952
L102.7124 94.9973
" />
<path d="M64.3330 118.0260
L64.3708 118.0301
" />
<path d="M63.8619 117.7744
L63.8862 117.8007
" />
<path d="M135.1003 110.4516
L135.1309 110.4731
" />
<path d="M231.6871 166.7489
L231.7172 166.7210
" />
<path d="M231.7456 166.6918
L231.7723 166.6611
" />
<path d="M209.2322 29.3300
L64.3322 29.3200
" />
<path d="M216.6701 94.7219
L216.5587 94.5004
" />
<path d="M134.8997 110.2303
L134.9196 110.2618
" />
<path d="M209.7222 41.3300 A0.5000 0.5000 0.0 0 0 210.2222 41.8300" />
<path d="M102.3633 95.2000
L102.5357 95.0952
" />
<path d="M101.8796 149.8987
L101.9249 149.8922
" />
<path d="M231.8569 110.2658
L231.8385 110.2334
" />
<path d="M134.7360 98.7384
L134.7668 98.9865
" />
<path d="M231.7234 110.0858
L217.5595 95.9219
" />
<path d="M187.1612 160.8493
L187.1897 160.8947
" />
<path d="M231.3670 166.9158
L231.4058 166.9052
" />
<path d="M103.4568 94.6766
L103.6514 94.6150
" />
<path d="M134.7926 109.8769
L134.7954 109.9144
" />
<path d="M187.0950 160.7002
L184.1522 126.6100
" />
<path d="M67.1140 119.7214
L67.1813 119.8562
" />
<path d="M187.2556 160.9786
L187.2927 161.0167
" />
<path d="M100.9139 96.5902
L101.0333 96.4254
" />
<path d="M66.6890 119.1067
L66.7851 119.2211
" />
<path d="M231.9137 110.4030
L231.9020 110.3677
" />
<path d="M231.8186 110.2019
L231.7971 110.1713
" />
<path d="M63.7599 117.6269
L63.7775 117.6583
" />
<path d="M102.0993 149.8397
L102.1405 149.8202
" />
<path d="M134.8362 110.0960
L134.8496 110.1307
" />
<path d="M187.4183 161.1143
L187.4645 161.1408
" />
<path d="M134.3045 97.3180
L134.4049 97.5446
" />
<path d="M134.6931 98.4929
L134.7360 98.7384
" />
<path d="M67.8512 145.3777
L67.8807 145.3946
" />
<path d="M231.9457 110.5868
L231.9429 110.5493
" />
<path d="M67.4777 121.0459
L67.4816 121.2056
" />
<path d="M187.6402 161.2074
L187.6668 161.2134
" />
<path d="M231.1667 166.9378
L231.2074 166.9377
" />
<path d="M187.6937 161.2184
L187.7209 161.2225
" />
<path d="M231.9455 166.2170
L231.9466 166.1760
" />
<path d="M67.0405 119.5903
L67.1140 119.7214
" />
<path d="M231.8787 166.4905
L231.8943 166.4534
" />
<path d="M102.4173 149.5802
L102.4427 149.5416
" />
<path d="M66.7851 119.2211
L66.8759 119.3399
" />
<path d="M67.5589 145.0591
L67.5745 145.0891
" />
<path d="M231.7495 110.1132
L231.7234 110.0858
" />
<path d="M95.0905 116.2858
L95.1023 116.1244
" />
<path d="M231.4440 166.8925
L231.4815 166.8778
" />
<path d="M187.2213 160.9379
L187.2556 160.9786
" />
<path d="M68.1089 145.4744
L68.1441 145.4799
" />
<path d="M231.7172 166.7210
L231.7456 166.6918
" />
<path d="M131.1891 94.6282
L131.4245 94.7061
" />
<path d="M169.2472 110.9956
L169.6056 111.1625
" />
<path d="M63.8170 117.7184
L63.8388 117.7469
" />
<path d="M216.1701 93.3255
L216.1273 93.0800
" />
<path d="M66.4812 118.8922
L66.5876 118.9970
" />
<path d="M102.5361 148.9676
L95.2163 117.7345
" />
<path d="M102.5421 149.2876
L102.5495 149.2426
" />
<path d="M187.0950 160.7002
L187.1039 160.7263
" />
<path d="M67.7172 145.2754
L67.7421 145.2981
" />
<path d="M67.4816 121.2056
L67.4816 144.7244
" />
<path d="M170.5852 111.8200
L170.8748 112.0876
" />
<path d="M101.7412 149.9016
L101.7876 149.9034
" />
<path d="M170.8748 112.0876
L171.1435 112.3777
" />
<path d="M64.4091 118.0322
L64.5686 118.0414
" />
<path d="M134.6384 98.2503
L134.6931 98.4929
" />
<path d="M67.9111 145.4102
L67.9422 145.4244
" />
<path d="M231.9197 166.3770
L231.9293 166.3377
" />
<path d="M63.8388 117.7469
L63.8619 117.7744
" />
<path d="M67.9422 145.4244
L67.9742 145.4373
" />
<path d="M231.1260 166.9357
L231.1667 166.9378
" />
<path d="M101.9697 149.8830
L102.0137 149.8711
" />
<path d="M101.9249 149.8922
L101.9697 149.8830
" />
<path d="M216.0965 92.8319
L216.0779 92.5817
" />
<path d="M134.8496 110.1307
L134.8647 110.1647
" />
<path d="M101.8338 149.9024
L101.8796 149.8987
" />
<path d="M134.7916 99.4886
L134.7916 109.8391
" />
<path d="M129.9635 94.4148
L130.2137 94.4334
" />
<path d="M63.6754 117.3468
L63.6800 117.3842
" />
<path d="M64.1884 117.9923
L64.2235 118.0033
" />
<path d="M133.9381 96.6702
L134.0710 96.8804
" />
<path d="M95.1192 115.9635
L95.1413 115.8030
" />
<path d="M187.7209 161.2225
L231.0852 166.9315
" />
<path d="M171.1435 112.3777
L183.5253 125.4084
" />
<path d="M169.9491 111.3564
L170.2761 111.5759
" />
<path d="M64.0559 117.9326
L64.0877 117.9498
" />
<path d="M184.1522 126.6100 A2.8086 2.8086 0.0 0 0 183.5253 125.4084" />
<path d="M63.6716 117.2706
L63.6726 117.3090
" />
<path d="M64.5686 118.0414
L64.7258 118.0582
" />
<path d="M100.5019 97.2995
L100.5946 97.1149
" />
<path d="M231.9466 110.6246
L231.9457 110.5868
" />
<path d="M134.9887 110.3505
L135.0148 110.3779
" />
<path d="M64.3322 29.3200 A0.6400 0.6400 0.0 0 0 63.6922 29.9600" />
<path d="M135.0707 110.4285
L135.1003 110.4516
" />
<path d="M68.0402 145.4589
L68.0742 145.4674
" />
<path d="M67.3448 120.2811
L67.3859 120.4289
" />
<path d="M100.2678 97.8799
L100.3383 97.6821
" />
<path d="M134.4942 97.7757
L134.5720 98.0111
" />
<path d="M166.9977 110.5850
L167.6944 110.6176
" />
<path d="M231.9422 166.2577
L231.9455 166.2170
" />
<path d="M102.5454 149.0134
L102.5361 148.9676
" />
<path d="M64.7258 118.0582
L64.8806 118.0825
" />
<path d="M187.2927 161.0167
L187.3322 161.0521
" />
<path d="M216.2912 93.8072
L216.2248 93.5680
" />
<path d="M135.0422 110.4040
L135.0707 110.4285
" />
<path d="M216.5587 94.5004
L216.4583 94.2738
" />
<path d="M135.2967 110.5565
L135.3320 110.5681
" />
<path d="M130.2137 94.4334
L130.4618 94.4643
" />
<path d="M67.5447 145.0283
L67.5589 145.0591
" />
<path d="M64.2959 118.0202
L64.3330 118.0260
" />
<path d="M103.8490 94.5612
L104.0494 94.5152
" />
<path d="M134.9642 110.3220
L134.9887 110.3505
" />
<path d="M68.0742 145.4674
L68.1089 145.4744
" />
<path d="M66.5876 118.9970
L66.6890 119.1067
" />
<path d="M231.6227 166.7995
L231.6555 166.7751
" />
<path d="M67.7947 145.3403
L67.8225 145.3596
" />
<path d="M67.9742 145.4373
L68.0068 145.4488
" />
<path d="M63.6800 117.3842
L63.6865 117.4209
" />
<path d="M101.2907 96.1120
L101.4281 95.9637
" />
<path d="M135.4043 110.5863
L135.4411 110.5927
" />
<path d="M134.9196 110.2618
L134.9411 110.2924
" />
<path d="M63.7160 117.5273
L63.7291 117.5613
" />
<path d="M231.4815 166.8778
L231.5182 166.8611
" />
<path d="M67.6934 145.2516
L67.7172 145.2754
" />
<path d="M231.3277 166.9244
L231.3670 166.9158
" />
<path d="M168.8754 110.8565
L169.2472 110.9956
" />
<path d="M63.6865 117.4209
L63.6946 117.4570
" />
<path d="M216.4583 94.2738
L216.3691 94.0426
" />
<path d="M67.5745 145.0891
L67.5913 145.1184
" />
<path d="M168.4917 110.7464
L168.8754 110.8565
" />
<path d="M102.0137 149.8711
L102.0570 149.8567
" />
<path d="M63.9384 117.8498
L63.9662 117.8725
" />
<path d="M103.0774 94.8224
L103.2654 94.7458
" />
<path d="M100.3383 97.6821
L100.4164 97.4886
" />
<path d="M67.4199 120.5795
L67.4466 120.7326
" />
<path d="M102.5518 149.0594
L102.5454 149.0134
" />
<path d="M216.0716 92.3298
L216.1222 42.3300
" />
<path d="M133.1212 95.7228
L133.3037 95.8965
" />
<path d="M102.2193 149.7739
L102.2567 149.7471
" />
<path d="M67.6286 145.1744
L67.6491 145.2011
" />
<path d="M95.1023 116.1244
L95.1192 115.9635
" />
<path d="M209.7322 29.8300
L209.7222 41.3300
" />
<circle cx="103.0547" cy="73.9100" r="1.5875" /> 
<path d="M66.9610 119.4630
L67.0405 119.5903
" />
<path d="M103.2654 94.7458
L103.4568 94.6766
" />
<path d="M102.5040 149.4188
L102.5193 149.3758
" />
<path d="M67.6094 145.1468
L67.6286 145.1744
" />
<path d="M102.7124 94.9973
L102.8930 94.9063
" />
<path d="M216.3691 94.0426
L216.2912 93.8072
" />
<path d="M187.5624 161.1840
L187.6139 161.2005
" />
<path d="M63.9117 117.8259
L63.9384 117.8498
" />
<path d="M217.5595 95.9219
L217.3858 95.7394
" />
<path d="M66.3701 118.7924
L66.4812 118.8922
" />
<path d="M63.6922 29.9600
L63.6716 117.2706
" />
<path d="M231.2478 166.9354
L231.2879 166.9310
" />
<path d="M101.4281 95.9637
L101.5712 95.8211
" />
<path d="M231.8204 166.5961
L231.8417 166.5619
" />
<path d="M102.5193 149.3758
L102.5320 149.3320
" />
<path d="M231.4058 166.9052
L231.4440 166.8925
" />
<path d="M105.0864 94.4086
L129.7116 94.4086
" />
<path d="M95.0860 116.7709
L95.0824 116.6091
" />
<path d="M102.1405 149.8202
L102.1806 149.7983
" />
<path d="M231.8736 110.2990
L231.8569 110.2658
" />
<path d="M67.4466 120.7326
L67.4659 120.8882
" />
<path d="M135.0148 110.3779
L135.0422 110.4040
" />
<path d="M216.0779 92.5817
L216.0716 92.3298
" />
<path d="M231.9429 110.5493
L231.9383 110.5121
" />
<path d="M134.7668 98.9865
L134.7854 99.2367
" />
<path d="M63.7437 117.5945
L63.7599 117.6269
" />
<path d="M231.9236 110.4389
L231.9137 110.4030
" />
<path d="M231.7723 166.6611
L231.7972 166.6292
" />
<path d="M135.1624 110.4930
L135.1948 110.5113
" />
<path d="M231.5540 166.8425
L231.5889 166.8219
" />
<path d="M216.1273 93.0800
L216.0965 92.8319
" />
<path d="M133.6412 96.2691
L133.7948 96.4663
" />
<path d="M104.6654 94.4259
L104.8750 94.4129
" />
<path d="M135.5536 110.6011
L166.9977 110.5850
" />
<path d="M133.7948 96.4663
L133.9381 96.6702
" />
<path d="M102.2925 149.7180
L102.3267 149.6865
" />
<path d="M134.9411 110.2924
L134.9642 110.3220
" />
<path d="M187.3742 161.0847
L187.4183 161.1143
" />
<path d="M102.3267 149.6865
L102.3591 149.6529
" />
<path d="M134.8814 110.1979
L134.8997 110.2303
" />
<path d="M101.7876 149.9034
L101.8338 149.9024
" />
<path d="M95.1816 117.5753
L95.1522 117.4154
" />
<path d="M95.2383 115.3258
L95.2809 115.1686
" />
<path d="M64.0877 117.9498
L64.1204 117.9655
" />
<path d="M231.8886 110.3330
L231.8736 110.2990
" />
<path d="M134.1932 97.0965
L134.3045 97.3180
" />
<path d="M210.2222 41.8300
L215.6222 41.8300
" />
<path d="M135.1948 110.5113
L135.2280 110.5280
" />
<path d="M102.4427 149.5416
L102.4656 149.5018
" />
<path d="M63.7775 117.6583
L63.7966 117.6889
" />
<path d="M134.0710 96.8804
L134.1932 97.0965
" />
<path d="M134.8000 109.9516
L134.8064 109.9884
" />
<path d="M130.7073 94.5071
L130.9499 94.5618
" />
<path d="M231.9383 110.5121
L231.9318 110.4753
" />
<path d="M64.2594 118.0126
L64.2959 118.0202
" />
<path d="M217.0684 95.3521
L216.9251 95.1482
" />
<path d="M67.4849 144.7954
L67.4889 144.8303
" />
<path d="M64.1204 117.9655
L64.1540 117.9797
" />
<path d="M101.1590 96.2660
L101.2907 96.1120
" />
<path d="M231.7972 166.6292
L231.8204 166.5961
" />
<path d="M100.5946 97.1149
L100.6943 96.9351
" />
<path d="M100.6943 96.9351
L100.8008 96.7601
" />
<path d="M67.4659 120.8882
L67.4777 121.0459
" />
<path d="M231.9368 166.2980
L231.9422 166.2577
" />
<path d="M102.3591 149.6529
L102.3894 149.6173
" />
<path d="M66.2542 118.6979
L66.3701 118.7924
" />
<path d="M101.8732 95.5539
L102.0319 95.4295
" />
<path d="M187.6668 161.2134
L187.6937 161.2184
" />
<path d="M130.4618 94.4643
L130.7073 94.5071
" />
<path d="M102.0319 95.4295
L102.1953 95.3115
" />
<path d="M231.9466 166.1760
L231.9466 110.6246
" />
<path d="M134.7916 109.8391
L134.7926 109.8769
" />
<path d="M187.3322 161.0521
L187.3742 161.0847
" />
<path d="M132.9311 95.5590
L133.1212 95.7228
" />
<path d="M102.5562 149.1514
L102.5554 149.1054
" />
<path d="M134.8647 110.1647
L134.8814 110.1979
" />
<path d="M132.1037 95.0070
L132.3198 95.1292
" />
<path d="M100.2051 98.0819
L100.2678 97.8799
" />
<path d="M231.2879 166.9310
L231.3277 166.9244
" />
<path d="M135.2280 110.5280
L135.2620 110.5431
" />
<path d="M102.5495 149.2426
L102.5542 149.1971
" />
<path d="M231.9293 166.3377
L231.9368 166.2980
" />
<path d="M66.0093 118.5253
L66.1339 118.6088
" />
<path d="M101.6947 149.8969
L101.7412 149.9016
" />
<path d="M65.7480 118.3759
L65.8806 118.4476
" />
<g >
</g>
<g >
</g>
<g >
</g>
<g >
</g>
<g >
</g>
<g >
</g>
<g >
</g>
<g >
</g>
<g >
</g>
<g >
</g>
<g >
</g>
<g >
</g>
<g >
</g>
<g >
</g>
<g >
</g>
<g >
</g>
<g >
</g>
<g >
</g>
<g >
</g>
<g >
</g>
<g >
</g>
<g >
</g>
<g >
</g>
<g >
</g>
<g >
</g>
<g >
</g>
<g >
</g>
<g >
</g>
<g >
</g>
<g >
</g>
<g >
</g>
<g >
</g>
<g >
</g>
<g >
</g>
<g >
</g>
<g >
</g>
<g >
</g>
<g >
</g>
<g >
</g>
<g >
</g>
<g >
</g>
<g >
</g>
<g >
</g>
<g >
</g>
<g >
</g>
<g >
</g>
<g >
</g>
<g >
</g>
<g >
</g>
<g >
</g>
<g >
</g>
<g >
</g>
<g >
</g>
<g >
</g>
<g >
</g>
<g >
</g>
<g >
</g>
<g >
</g>
<g >
</g>
<g >
</g>
<g >
</g>
<g >
</g>
<g >
</g>
<g >
</g>
<g >
</g>
<g >
</g>
<g >
</g>
<g >
</g>
<g >
</g>
<g >
</g>
<g >
</g>
<g >
</g>
<g >
</g>
<g >
</g>
<g >
</g>
<g >
</g>
<g >
</g>
<g >
</g>
<g >
</g>
<g >
</g>
<g >
</g>
<g >
</g>
<g >
</g>
<g >
</g>
<g >
</g>
<g >
</g>
<g >
</g>
<g >
</g>
<g >
</g>
<g >
</g>
<g >
</g>
<g >
</g>
<g >
</g>
<g >
</g>
<g >
</g>
<g >
</g>
<g >
</g>
<g >
</g>
<g >
</g>
<g >
</g>
<g >
</g>
<g >
</g>
<g >
</g>
<g >
</g>
<g >
</g>
<g >
</g>
<g >
</g>
<g >
</g>
<g >
</g>
<g >
</g>
<g >
</g>
<g >
</g>
<g >
</g>
<g >
</g>
<g >
</g>
<g >
</g>
<g >
</g>
<g >
</g>
<g >
</g>
<g >
</g>
<g >
</g>
<g >
</g>
<g >
</g>
<g >
</g>
<g >
</g>
<g >
</g>
<g >
</g>
<g >
</g>
<g >
</g>
<g >
</g>
<g >
</g>
<g >
</g>
<g >
</g>
<g >
</g>
<g >
</g>
<g >
</g>
<g >
</g>
<g >
</g>
<g >
</g>
<g >
</g>
<g >
</g>
<g >
</g>
<g >
</g>
<g >
</g>
<g >
</g>
<g >
</g>
<g >
</g>
<g >
</g>
<g >
</g>
<g >
</g>
<g >
</g>
<g >
</g>
<g >
</g>
<g >
</g>
<g >
</g>
<g >
</g>
<g >
</g>
<g >
</g>
<g >
</g>
<g >
</g>
<g >
</g>
</g> 
</svg>
