%TF.GenerationSoftware,KiCad,Pcbnew,7.0.5*%
%TF.CreationDate,2023-05-29T06:13:28-08:00*%
%TF.ProjectId,OBOGS PANEL,4f424f47-5320-4504-914e-454c2e6b6963,4*%
%TF.SameCoordinates,Original*%
%TF.FileFunction,Copper,L1,Top*%
%TF.FilePolarity,Positive*%
%FSLAX46Y46*%
G04 Gerber Fmt 4.6, Leading zero omitted, Abs format (unit mm)*
G04 Created by KiCad (PCBNEW 7.0.5) date 2023-05-29 06:13:28*
%MOMM*%
%LPD*%
G01*
G04 APERTURE LIST*
G04 Aperture macros list*
%AMRoundRect*
0 Rectangle with rounded corners*
0 $1 Rounding radius*
0 $2 $3 $4 $5 $6 $7 $8 $9 X,Y pos of 4 corners*
0 Add a 4 corners polygon primitive as box body*
4,1,4,$2,$3,$4,$5,$6,$7,$8,$9,$2,$3,0*
0 Add four circle primitives for the rounded corners*
1,1,$1+$1,$2,$3*
1,1,$1+$1,$4,$5*
1,1,$1+$1,$6,$7*
1,1,$1+$1,$8,$9*
0 Add four rect primitives between the rounded corners*
20,1,$1+$1,$2,$3,$4,$5,0*
20,1,$1+$1,$4,$5,$6,$7,0*
20,1,$1+$1,$6,$7,$8,$9,0*
20,1,$1+$1,$8,$9,$2,$3,0*%
G04 Aperture macros list end*
%TA.AperFunction,ComponentPad*%
%ADD10C,1.500000*%
%TD*%
%TA.AperFunction,SMDPad,CuDef*%
%ADD11RoundRect,0.225000X-0.225000X-0.250000X0.225000X-0.250000X0.225000X0.250000X-0.225000X0.250000X0*%
%TD*%
%TA.AperFunction,SMDPad,CuDef*%
%ADD12RoundRect,0.225000X0.250000X-0.225000X0.250000X0.225000X-0.250000X0.225000X-0.250000X-0.225000X0*%
%TD*%
%TA.AperFunction,SMDPad,CuDef*%
%ADD13RoundRect,0.225000X0.225000X0.250000X-0.225000X0.250000X-0.225000X-0.250000X0.225000X-0.250000X0*%
%TD*%
%TA.AperFunction,SMDPad,CuDef*%
%ADD14RoundRect,0.225000X-0.250000X0.225000X-0.250000X-0.225000X0.250000X-0.225000X0.250000X0.225000X0*%
%TD*%
%TA.AperFunction,SMDPad,CuDef*%
%ADD15R,1.500000X0.900000*%
%TD*%
%TA.AperFunction,SMDPad,CuDef*%
%ADD16R,0.900000X1.500000*%
%TD*%
%TA.AperFunction,SMDPad,CuDef*%
%ADD17RoundRect,0.200000X0.275000X-0.200000X0.275000X0.200000X-0.275000X0.200000X-0.275000X-0.200000X0*%
%TD*%
%TA.AperFunction,ComponentPad*%
%ADD18C,1.800000*%
%TD*%
%TA.AperFunction,ComponentPad*%
%ADD19R,1.800000X1.800000*%
%TD*%
%TA.AperFunction,ComponentPad*%
%ADD20RoundRect,0.250001X1.399999X-1.099999X1.399999X1.099999X-1.399999X1.099999X-1.399999X-1.099999X0*%
%TD*%
%TA.AperFunction,ComponentPad*%
%ADD21O,3.300000X2.700000*%
%TD*%
%TA.AperFunction,ViaPad*%
%ADD22C,0.800000*%
%TD*%
%TA.AperFunction,Conductor*%
%ADD23C,0.250000*%
%TD*%
%TA.AperFunction,Conductor*%
%ADD24C,0.500000*%
%TD*%
%TA.AperFunction,Conductor*%
%ADD25C,0.750000*%
%TD*%
G04 APERTURE END LIST*
D10*
%TO.P,TP4,1,1*%
%TO.N,DATA OUT*%
X160430000Y-80540000D03*
%TD*%
%TO.P,TP3,1,1*%
%TO.N,DATA IN*%
X180120000Y-42510000D03*
%TD*%
%TO.P,TP2,1,1*%
%TO.N,GND*%
X206500000Y-83220000D03*
%TD*%
%TO.P,TP1,1,1*%
%TO.N,+5V*%
X206440000Y-75170000D03*
%TD*%
D11*
%TO.P,C2,1*%
%TO.N,+5V*%
X176885300Y-58747660D03*
%TO.P,C2,2*%
%TO.N,GND*%
X178435300Y-58747660D03*
%TD*%
D12*
%TO.P,C3,1*%
%TO.N,+5V*%
X201881740Y-59684920D03*
%TO.P,C3,2*%
%TO.N,GND*%
X201881740Y-58134920D03*
%TD*%
D13*
%TO.P,C4,1*%
%TO.N,+5V*%
X205636160Y-51315620D03*
%TO.P,C4,2*%
%TO.N,GND*%
X204086160Y-51315620D03*
%TD*%
D14*
%TO.P,C5,1*%
%TO.N,+5V*%
X194447160Y-44919900D03*
%TO.P,C5,2*%
%TO.N,GND*%
X194447160Y-46469900D03*
%TD*%
D12*
%TO.P,C6,1*%
%TO.N,+5V*%
X201602340Y-91201840D03*
%TO.P,C6,2*%
%TO.N,GND*%
X201602340Y-89651840D03*
%TD*%
D11*
%TO.P,C7,1*%
%TO.N,+5V*%
X184944720Y-84607400D03*
%TO.P,C7,2*%
%TO.N,GND*%
X186494720Y-84607400D03*
%TD*%
%TO.P,C8,1*%
%TO.N,+5V*%
X174464380Y-84322920D03*
%TO.P,C8,2*%
%TO.N,GND*%
X176014380Y-84322920D03*
%TD*%
%TO.P,C9,1*%
%TO.N,+5V*%
X171875000Y-104300000D03*
%TO.P,C9,2*%
%TO.N,GND*%
X173425000Y-104300000D03*
%TD*%
%TO.P,C10,1*%
%TO.N,+5V*%
X167268560Y-118188740D03*
%TO.P,C10,2*%
%TO.N,GND*%
X168818560Y-118188740D03*
%TD*%
D15*
%TO.P,D2,4,DIN*%
%TO.N,DATA IN*%
X192594000Y-43257200D03*
%TO.P,D2,3,VSS*%
%TO.N,GND*%
X192594000Y-46557200D03*
%TO.P,D2,2,DOUT*%
%TO.N,Net-(D2-DOUT)*%
X187694000Y-46557200D03*
%TO.P,D2,1,VDD*%
%TO.N,+5V*%
X187694000Y-43257200D03*
%TD*%
D16*
%TO.P,D3,4,DIN*%
%TO.N,Net-(D2-DOUT)*%
X207162000Y-49502400D03*
%TO.P,D3,3,VSS*%
%TO.N,GND*%
X203862000Y-49502400D03*
%TO.P,D3,2,DOUT*%
%TO.N,Net-(D3-DOUT)*%
X203862000Y-44602400D03*
%TO.P,D3,1,VDD*%
%TO.N,+5V*%
X207162000Y-44602400D03*
%TD*%
%TO.P,D4,4,DIN*%
%TO.N,Net-(D3-DOUT)*%
X181685000Y-56958400D03*
%TO.P,D4,3,VSS*%
%TO.N,GND*%
X178385000Y-56958400D03*
%TO.P,D4,2,DOUT*%
%TO.N,Net-(D4-DOUT)*%
X178385000Y-52058400D03*
%TO.P,D4,1,VDD*%
%TO.N,+5V*%
X181685000Y-52058400D03*
%TD*%
%TO.P,D5,4,DIN*%
%TO.N,Net-(D4-DOUT)*%
X201396000Y-56044000D03*
%TO.P,D5,3,VSS*%
%TO.N,GND*%
X198096000Y-56044000D03*
%TO.P,D5,2,DOUT*%
%TO.N,Net-(D5-DOUT)*%
X198096000Y-51144000D03*
%TO.P,D5,1,VDD*%
%TO.N,+5V*%
X201396000Y-51144000D03*
%TD*%
%TO.P,D6,4,DIN*%
%TO.N,Net-(D5-DOUT)*%
X207187000Y-58025200D03*
%TO.P,D6,3,VSS*%
%TO.N,GND*%
X203887000Y-58025200D03*
%TO.P,D6,2,DOUT*%
%TO.N,Net-(D6-DOUT)*%
X203887000Y-53125200D03*
%TO.P,D6,1,VDD*%
%TO.N,+5V*%
X207187000Y-53125200D03*
%TD*%
%TO.P,D9,1,VDD*%
%TO.N,+5V*%
X187045000Y-62433200D03*
%TO.P,D9,2,DOUT*%
%TO.N,/DATA1*%
X183745000Y-62433200D03*
%TO.P,D9,3,VSS*%
%TO.N,GND*%
X183745000Y-67333200D03*
%TO.P,D9,4,DIN*%
%TO.N,Net-(D8-DOUT)*%
X187045000Y-67333200D03*
%TD*%
%TO.P,D8,4,DIN*%
%TO.N,Net-(D7-DOUT)*%
X196890000Y-67260000D03*
%TO.P,D8,3,VSS*%
%TO.N,GND*%
X193590000Y-67260000D03*
%TO.P,D8,2,DOUT*%
%TO.N,Net-(D8-DOUT)*%
X193590000Y-62360000D03*
%TO.P,D8,1,VDD*%
%TO.N,+5V*%
X196890000Y-62360000D03*
%TD*%
%TO.P,D7,4,DIN*%
%TO.N,Net-(D6-DOUT)*%
X207085000Y-66458000D03*
%TO.P,D7,3,VSS*%
%TO.N,GND*%
X203785000Y-66458000D03*
%TO.P,D7,2,DOUT*%
%TO.N,Net-(D7-DOUT)*%
X203785000Y-61558000D03*
%TO.P,D7,1,VDD*%
%TO.N,+5V*%
X207085000Y-61558000D03*
%TD*%
D15*
%TO.P,D10,4,DIN*%
%TO.N,/DATA1*%
X176022000Y-89711600D03*
%TO.P,D10,3,VSS*%
%TO.N,GND*%
X176022000Y-86411600D03*
%TO.P,D10,2,DOUT*%
%TO.N,Net-(D10-DOUT)*%
X180922000Y-86411600D03*
%TO.P,D10,1,VDD*%
%TO.N,+5V*%
X180922000Y-89711600D03*
%TD*%
%TO.P,D11,4,DIN*%
%TO.N,Net-(D10-DOUT)*%
X186487000Y-89711600D03*
%TO.P,D11,3,VSS*%
%TO.N,GND*%
X186487000Y-86411600D03*
%TO.P,D11,2,DOUT*%
%TO.N,Net-(D11-DOUT)*%
X191387000Y-86411600D03*
%TO.P,D11,1,VDD*%
%TO.N,+5V*%
X191387000Y-89711600D03*
%TD*%
%TO.P,D12,4,DIN*%
%TO.N,Net-(D11-DOUT)*%
X199566000Y-86411600D03*
%TO.P,D12,3,VSS*%
%TO.N,GND*%
X199566000Y-89711600D03*
%TO.P,D12,2,DOUT*%
%TO.N,Net-(D12-DOUT)*%
X194666000Y-89711600D03*
%TO.P,D12,1,VDD*%
%TO.N,+5V*%
X194666000Y-86411600D03*
%TD*%
%TO.P,D14,4,DIN*%
%TO.N,Net-(D13-DOUT)*%
X181836000Y-93574400D03*
%TO.P,D14,3,VSS*%
%TO.N,GND*%
X181836000Y-96874400D03*
%TO.P,D14,2,DOUT*%
%TO.N,Net-(D14-DOUT)*%
X176936000Y-96874400D03*
%TO.P,D14,1,VDD*%
%TO.N,+5V*%
X176936000Y-93574400D03*
%TD*%
%TO.P,D15,4,DIN*%
%TO.N,Net-(D14-DOUT)*%
X174470000Y-99112000D03*
%TO.P,D15,3,VSS*%
%TO.N,GND*%
X174470000Y-102412000D03*
%TO.P,D15,2,DOUT*%
%TO.N,Net-(D15-DOUT)*%
X169570000Y-102412000D03*
%TO.P,D15,1,VDD*%
%TO.N,+5V*%
X169570000Y-99112000D03*
%TD*%
%TO.P,D16,4,DIN*%
%TO.N,Net-(D15-DOUT)*%
X170282000Y-106173000D03*
%TO.P,D16,3,VSS*%
%TO.N,GND*%
X170282000Y-109473000D03*
%TO.P,D16,2,DOUT*%
%TO.N,Net-(D16-DOUT)*%
X165382000Y-109473000D03*
%TO.P,D16,1,VDD*%
%TO.N,+5V*%
X165382000Y-106173000D03*
%TD*%
%TO.P,D17,4,DIN*%
%TO.N,Net-(D16-DOUT)*%
X168781000Y-112878000D03*
%TO.P,D17,3,VSS*%
%TO.N,GND*%
X168781000Y-116178000D03*
%TO.P,D17,2,DOUT*%
%TO.N,DATA OUT*%
X163881000Y-116178000D03*
%TO.P,D17,1,VDD*%
%TO.N,+5V*%
X163881000Y-112878000D03*
%TD*%
%TO.P,D13,1,VDD*%
%TO.N,+5V*%
X184709000Y-92609200D03*
%TO.P,D13,2,DOUT*%
%TO.N,Net-(D13-DOUT)*%
X184709000Y-95909200D03*
%TO.P,D13,3,VSS*%
%TO.N,GND*%
X189609000Y-95909200D03*
%TO.P,D13,4,DIN*%
%TO.N,Net-(D12-DOUT)*%
X189609000Y-92609200D03*
%TD*%
D11*
%TO.P,C11,1*%
%TO.N,+5V*%
X182216660Y-69220080D03*
%TO.P,C11,2*%
%TO.N,GND*%
X183766660Y-69220080D03*
%TD*%
%TO.P,C12,1*%
%TO.N,+5V*%
X202272700Y-68267580D03*
%TO.P,C12,2*%
%TO.N,GND*%
X203822700Y-68267580D03*
%TD*%
D17*
%TO.P,R1,2*%
%TO.N,GND*%
X175635920Y-45501560D03*
%TO.P,R1,1*%
%TO.N,Net-(D1-K)*%
X175635920Y-47151560D03*
%TD*%
D18*
%TO.P,D1,2,A*%
%TO.N,+5V*%
X178153060Y-49209960D03*
D19*
%TO.P,D1,1,K*%
%TO.N,Net-(D1-K)*%
X175613060Y-49209960D03*
%TD*%
D20*
%TO.P,J1,1,Pin_1*%
%TO.N,+5V*%
X170251120Y-53695600D03*
D21*
%TO.P,J1,2,Pin_3*%
X170251120Y-49495600D03*
%TO.P,J1,3,Pin_2*%
%TO.N,GND*%
X164751120Y-53695600D03*
%TO.P,J1,4,Pin_4*%
%TO.N,DATA IN*%
X164751120Y-49495600D03*
%TD*%
D20*
%TO.P,J2,1,Pin_1*%
%TO.N,+5V*%
X170266360Y-64475360D03*
D21*
%TO.P,J2,2,Pin_3*%
X170266360Y-60275360D03*
%TO.P,J2,3,Pin_2*%
%TO.N,GND*%
X164766360Y-64475360D03*
%TO.P,J2,4,Pin_4*%
%TO.N,DATA OUT*%
X164766360Y-60275360D03*
%TD*%
D22*
%TO.N,+5V*%
X203030000Y-56230000D03*
X201960000Y-53450000D03*
%TO.N,/DATA1*%
X173470000Y-89720000D03*
X180660000Y-64800000D03*
%TO.N,GND*%
X177177700Y-45501560D03*
X169738040Y-119484140D03*
X191851280Y-68806060D03*
X196547740Y-45679360D03*
X191960500Y-95851980D03*
X186499500Y-82692240D03*
X200543160Y-58112660D03*
X203215240Y-89654380D03*
X183761380Y-70949820D03*
X176014380Y-82433160D03*
X203832460Y-69916040D03*
X178645820Y-98605340D03*
X172707300Y-105785920D03*
X178429920Y-60479940D03*
X202821540Y-51315620D03*
%TD*%
D23*
%TO.N,Net-(D5-DOUT)*%
X198146000Y-51716000D02*
X198146000Y-51144000D01*
X201399000Y-54969000D02*
X198146000Y-51716000D01*
X204129000Y-54969000D02*
X201399000Y-54969000D01*
X207137000Y-57977000D02*
X204129000Y-54969000D01*
X207137000Y-58025200D02*
X207137000Y-57977000D01*
D24*
%TO.N,GND*%
X173425000Y-103457000D02*
X174470000Y-102412000D01*
X173425000Y-104300000D02*
X173425000Y-103457000D01*
X172707300Y-105017700D02*
X173425000Y-104300000D01*
X172707300Y-105785920D02*
X172707300Y-105017700D01*
D23*
%TO.N,Net-(D15-DOUT)*%
X168680000Y-105110000D02*
X168680000Y-103252000D01*
X168680000Y-103252000D02*
X169570000Y-102362000D01*
X169793000Y-106223000D02*
X168680000Y-105110000D01*
X170282000Y-106223000D02*
X169793000Y-106223000D01*
%TO.N,Net-(D4-DOUT)*%
X179260001Y-56418403D02*
X179260001Y-52883401D01*
X179260001Y-52883401D02*
X178435000Y-52058400D01*
X182395001Y-58033401D02*
X180874999Y-58033401D01*
X180874999Y-58033401D02*
X179260001Y-56418403D01*
X182910011Y-57518391D02*
X182395001Y-58033401D01*
X182910011Y-50092597D02*
X182910011Y-57518391D01*
%TO.N,DATA IN*%
X191046800Y-41760000D02*
X192594000Y-43307200D01*
X180870000Y-41760000D02*
X191046800Y-41760000D01*
X180120000Y-42510000D02*
X180870000Y-41760000D01*
X171792322Y-42510000D02*
X180120000Y-42510000D01*
X171764521Y-42482199D02*
X171792322Y-42510000D01*
%TO.N,DATA OUT*%
X160430000Y-112727000D02*
X163881000Y-116178000D01*
X160430000Y-80540000D02*
X160430000Y-112727000D01*
X160430000Y-64611720D02*
X160430000Y-80540000D01*
X164766360Y-60275360D02*
X160430000Y-64611720D01*
%TO.N,/DATA1*%
X173470000Y-89720000D02*
X173478400Y-89711600D01*
X173478400Y-89711600D02*
X176022000Y-89711600D01*
X183026800Y-62433200D02*
X180660000Y-64800000D01*
X183745000Y-62433200D02*
X183026800Y-62433200D01*
%TO.N,Net-(D8-DOUT)*%
X191602600Y-67333200D02*
X187045000Y-67333200D01*
X193448000Y-65487800D02*
X191602600Y-67333200D01*
X193448000Y-62280800D02*
X193448000Y-65487800D01*
%TO.N,Net-(D7-DOUT)*%
X202370800Y-61558000D02*
X196748000Y-67180800D01*
X203785000Y-61558000D02*
X202370800Y-61558000D01*
%TO.N,Net-(D6-DOUT)*%
X207962000Y-65581000D02*
X207085000Y-66458000D01*
X207962000Y-56950200D02*
X207962000Y-65581000D01*
X204137000Y-53125200D02*
X207962000Y-56950200D01*
X203887000Y-53125200D02*
X204137000Y-53125200D01*
D25*
%TO.N,+5V*%
X206366738Y-61558000D02*
X204865844Y-60057106D01*
X207035000Y-61558000D02*
X206366738Y-61558000D01*
X204865844Y-60057106D02*
X202253926Y-60057106D01*
X202253926Y-60057106D02*
X201931750Y-59734930D01*
D23*
%TO.N,Net-(D2-DOUT)*%
X187787480Y-47350680D02*
X197499320Y-47350680D01*
X187694000Y-46507200D02*
X187694000Y-47257200D01*
X197499320Y-47350680D02*
X199000000Y-45850000D01*
X199000000Y-45850000D02*
X206850000Y-45850000D01*
X206850000Y-45850000D02*
X206850000Y-49240400D01*
X187694000Y-47257200D02*
X187787480Y-47350680D01*
%TO.N,DATA IN*%
X171764521Y-42482199D02*
X164751120Y-49495600D01*
D24*
%TO.N,GND*%
X202821540Y-51315620D02*
X204086160Y-51315620D01*
X175635920Y-45501560D02*
X177177700Y-45501560D01*
X201881740Y-58134920D02*
X200543160Y-58112660D01*
X203912000Y-49502400D02*
X203912000Y-51141460D01*
X181836000Y-96824400D02*
X180426760Y-96824400D01*
X195782600Y-46444500D02*
X196547740Y-45679360D01*
X186494720Y-84607400D02*
X186499500Y-82692240D01*
X178435000Y-56958400D02*
X178435000Y-58747360D01*
X192594000Y-46507200D02*
X194409860Y-46507200D01*
X183779160Y-69220080D02*
X183761380Y-70949820D01*
X172707300Y-106997700D02*
X172707300Y-105785920D01*
X193498000Y-67177120D02*
X191851280Y-68806060D01*
X176022000Y-86461600D02*
X176022000Y-84330540D01*
X168818560Y-118188740D02*
X168818560Y-118620540D01*
X180426760Y-96824400D02*
X178645820Y-98605340D01*
X203835000Y-66458000D02*
X203832460Y-69916040D01*
X189609000Y-95859200D02*
X191960500Y-95851980D01*
X198146000Y-56044000D02*
X198474500Y-56044000D01*
X203937000Y-58025200D02*
X201991460Y-58025200D01*
X168781000Y-116128000D02*
X168781000Y-118151180D01*
X168818560Y-118620540D02*
X169738040Y-119484140D01*
X199566000Y-89661600D02*
X201592580Y-89661600D01*
X170282000Y-109423000D02*
X172707300Y-106997700D01*
X194447160Y-46469900D02*
X195782600Y-46469900D01*
X195782600Y-46469900D02*
X195782600Y-46444500D01*
X183795000Y-67333200D02*
X183795000Y-69204240D01*
X176014380Y-84322920D02*
X176014380Y-82433160D01*
X186487000Y-86461600D02*
X186487000Y-84615120D01*
X201602340Y-89651840D02*
X203215240Y-89654380D01*
X178435300Y-58747660D02*
X178429920Y-60479940D01*
X198474500Y-56044000D02*
X200543160Y-58112660D01*
D23*
%TO.N,Net-(D3-DOUT)*%
X196033698Y-44602400D02*
X194941198Y-45694900D01*
X193969326Y-45694900D02*
X193956625Y-45682199D01*
X193956625Y-45682199D02*
X186683999Y-45682199D01*
X186683999Y-45682199D02*
X182460001Y-49906197D01*
X203912000Y-44602400D02*
X196033698Y-44602400D01*
X194941198Y-45694900D02*
X193969326Y-45694900D01*
X182460001Y-56133399D02*
X181635000Y-56958400D01*
X182460001Y-49906197D02*
X182460001Y-56133399D01*
%TO.N,Net-(D4-DOUT)*%
X197320999Y-49920999D02*
X195200690Y-47800690D01*
X195200690Y-47800690D02*
X185201918Y-47800690D01*
X185201918Y-47800690D02*
X182910011Y-50092597D01*
X200596000Y-56044000D02*
X197320999Y-52768999D01*
X197320999Y-52768999D02*
X197320999Y-49920999D01*
X201346000Y-56044000D02*
X200596000Y-56044000D01*
%TO.N,Net-(D10-DOUT)*%
X186487000Y-89661600D02*
X184122000Y-89661600D01*
X184122000Y-89661600D02*
X180922000Y-86461600D01*
%TO.N,Net-(D11-DOUT)*%
X199566000Y-86461600D02*
X198740999Y-85636599D01*
X192212001Y-85636599D02*
X191387000Y-86461600D01*
X198740999Y-85636599D02*
X192212001Y-85636599D01*
%TO.N,Net-(D12-DOUT)*%
X191668400Y-92659200D02*
X189609000Y-92659200D01*
X194666000Y-89661600D02*
X191668400Y-92659200D01*
%TO.N,Net-(D13-DOUT)*%
X184070800Y-95859200D02*
X181836000Y-93624400D01*
X184709000Y-95859200D02*
X184070800Y-95859200D01*
%TO.N,Net-(D14-DOUT)*%
X174598400Y-99162000D02*
X176936000Y-96824400D01*
%TO.N,Net-(D16-DOUT)*%
X168781000Y-112822000D02*
X165382000Y-109423000D01*
%TO.N,Net-(D1-K)*%
X175635920Y-47151560D02*
X175635920Y-49187100D01*
%TD*%
%TA.AperFunction,Conductor*%
%TO.N,+5V*%
G36*
X180560588Y-40989502D02*
G01*
X180607081Y-41043158D01*
X180617185Y-41113432D01*
X180587691Y-41178012D01*
X180566529Y-41197436D01*
X180562383Y-41200447D01*
X180562383Y-41200448D01*
X180531619Y-41222799D01*
X180524224Y-41228172D01*
X180519260Y-41231433D01*
X180471814Y-41259492D01*
X180470489Y-41257252D01*
X180416201Y-41278557D01*
X180372474Y-41274755D01*
X180339371Y-41265885D01*
X180120000Y-41246693D01*
X179900629Y-41265885D01*
X179687926Y-41322879D01*
X179687920Y-41322881D01*
X179488346Y-41415944D01*
X179307965Y-41542248D01*
X179307959Y-41542253D01*
X179152253Y-41697959D01*
X179152244Y-41697970D01*
X179064859Y-41822770D01*
X179009402Y-41867099D01*
X178961646Y-41876500D01*
X171986049Y-41876500D01*
X171950864Y-41869213D01*
X171950279Y-41871230D01*
X171942663Y-41869017D01*
X171909145Y-41863708D01*
X171885247Y-41859922D01*
X171881372Y-41859183D01*
X171824613Y-41846497D01*
X171824606Y-41846496D01*
X171816368Y-41846755D01*
X171792717Y-41845267D01*
X171784582Y-41843979D01*
X171784575Y-41843979D01*
X171726703Y-41849449D01*
X171722753Y-41849698D01*
X171664633Y-41851524D01*
X171664626Y-41851525D01*
X171656711Y-41853825D01*
X171633434Y-41858265D01*
X171625237Y-41859040D01*
X171625230Y-41859041D01*
X171570511Y-41878739D01*
X171566750Y-41879961D01*
X171510928Y-41896180D01*
X171510919Y-41896184D01*
X171503831Y-41900376D01*
X171482394Y-41910464D01*
X171474633Y-41913258D01*
X171426541Y-41945941D01*
X171423201Y-41948061D01*
X171373158Y-41977657D01*
X171373152Y-41977662D01*
X171367327Y-41983487D01*
X171349071Y-41998590D01*
X171342254Y-42003223D01*
X171342247Y-42003229D01*
X171303793Y-42046846D01*
X171301084Y-42049731D01*
X165676993Y-47673820D01*
X165614681Y-47707846D01*
X165551598Y-47705383D01*
X165544046Y-47703111D01*
X165456295Y-47676711D01*
X165456293Y-47676710D01*
X165456291Y-47676710D01*
X165456286Y-47676709D01*
X165187148Y-47637100D01*
X165187145Y-47637100D01*
X164383200Y-47637100D01*
X164179792Y-47651987D01*
X163914262Y-47711137D01*
X163914250Y-47711141D01*
X163660156Y-47808323D01*
X163527988Y-47882500D01*
X163449789Y-47926388D01*
X163422912Y-47941472D01*
X163422911Y-47941472D01*
X163207597Y-48107733D01*
X163207595Y-48107734D01*
X163018767Y-48303589D01*
X162860470Y-48524848D01*
X162860469Y-48524849D01*
X162736081Y-48766787D01*
X162736080Y-48766790D01*
X162648243Y-49024261D01*
X162648239Y-49024274D01*
X162598827Y-49291793D01*
X162588892Y-49563658D01*
X162618647Y-49834075D01*
X162618648Y-49834080D01*
X162687457Y-50097280D01*
X162758390Y-50264198D01*
X162793857Y-50347658D01*
X162935578Y-50579877D01*
X163109601Y-50788987D01*
X163109603Y-50788989D01*
X163109605Y-50788991D01*
X163312205Y-50970522D01*
X163312211Y-50970527D01*
X163312216Y-50970531D01*
X163539104Y-51120639D01*
X163785431Y-51236112D01*
X164045945Y-51314489D01*
X164108267Y-51323661D01*
X164315091Y-51354100D01*
X164315095Y-51354100D01*
X165119040Y-51354100D01*
X165322444Y-51339213D01*
X165587984Y-51280061D01*
X165842083Y-51182877D01*
X166079323Y-51049731D01*
X166294649Y-50883461D01*
X166483472Y-50687612D01*
X166641766Y-50466357D01*
X166641904Y-50466090D01*
X166766158Y-50224412D01*
X166766159Y-50224409D01*
X166792215Y-50148034D01*
X166853998Y-49966934D01*
X166858317Y-49943555D01*
X166889514Y-49774653D01*
X166903412Y-49699410D01*
X166913348Y-49427542D01*
X166892888Y-49241600D01*
X168108607Y-49241600D01*
X169593877Y-49241600D01*
X169591802Y-49245554D01*
X169551120Y-49410605D01*
X169551120Y-49580595D01*
X169591802Y-49745646D01*
X169593877Y-49749600D01*
X168109854Y-49749600D01*
X168119139Y-49833988D01*
X168187931Y-50097119D01*
X168294299Y-50347423D01*
X168435985Y-50579583D01*
X168609965Y-50788643D01*
X168812511Y-50970124D01*
X168812524Y-50970135D01*
X169039353Y-51120203D01*
X169039355Y-51120204D01*
X169285610Y-51235643D01*
X169546057Y-51314000D01*
X169546062Y-51314001D01*
X169815128Y-51353600D01*
X169997120Y-51353600D01*
X169997120Y-50147920D01*
X170082369Y-50180251D01*
X170208780Y-50195600D01*
X170293460Y-50195600D01*
X170419871Y-50180251D01*
X170505120Y-50147920D01*
X170505120Y-51353600D01*
X170619025Y-51353600D01*
X170822374Y-51338716D01*
X171087833Y-51279582D01*
X171087845Y-51279578D01*
X171341870Y-51182422D01*
X171579040Y-51049316D01*
X171579053Y-51049308D01*
X171794313Y-50883089D01*
X171794319Y-50883084D01*
X171983084Y-50687294D01*
X172141341Y-50466090D01*
X172141342Y-50466089D01*
X172265697Y-50224216D01*
X172265698Y-50224214D01*
X172288079Y-50158609D01*
X174204560Y-50158609D01*
X174211069Y-50219156D01*
X174211071Y-50219164D01*
X174262170Y-50356162D01*
X174262172Y-50356167D01*
X174349798Y-50473221D01*
X174466852Y-50560847D01*
X174466854Y-50560848D01*
X174466856Y-50560849D01*
X174517872Y-50579877D01*
X174603855Y-50611948D01*
X174603863Y-50611950D01*
X174664410Y-50618459D01*
X174664415Y-50618459D01*
X174664422Y-50618460D01*
X174664428Y-50618460D01*
X176561692Y-50618460D01*
X176561698Y-50618460D01*
X176561705Y-50618459D01*
X176561709Y-50618459D01*
X176622256Y-50611950D01*
X176622259Y-50611949D01*
X176622261Y-50611949D01*
X176759264Y-50560849D01*
X176876321Y-50473221D01*
X176933549Y-50396774D01*
X176963947Y-50356167D01*
X176963947Y-50356166D01*
X176963949Y-50356164D01*
X177010120Y-50232375D01*
X177015048Y-50219164D01*
X177015050Y-50219156D01*
X177021559Y-50158609D01*
X177021560Y-50158592D01*
X177021560Y-50034439D01*
X177041562Y-49966318D01*
X177058465Y-49945344D01*
X177708215Y-49295592D01*
X177709387Y-49311225D01*
X177758947Y-49437501D01*
X177843525Y-49543559D01*
X177955607Y-49619976D01*
X178067682Y-49654546D01*
X177351740Y-50370488D01*
X177351741Y-50370489D01*
X177380309Y-50392725D01*
X177380318Y-50392731D01*
X177585534Y-50503787D01*
X177585537Y-50503789D01*
X177800316Y-50577523D01*
X177858251Y-50618560D01*
X177884803Y-50684405D01*
X177871542Y-50754152D01*
X177822677Y-50805657D01*
X177803437Y-50814751D01*
X177688797Y-50857510D01*
X177688792Y-50857512D01*
X177571738Y-50945138D01*
X177484112Y-51062192D01*
X177484110Y-51062197D01*
X177433011Y-51199195D01*
X177433009Y-51199203D01*
X177426500Y-51259750D01*
X177426500Y-52857049D01*
X177433009Y-52917596D01*
X177433011Y-52917604D01*
X177484110Y-53054602D01*
X177484112Y-53054607D01*
X177571738Y-53171661D01*
X177688792Y-53259287D01*
X177688794Y-53259288D01*
X177688796Y-53259289D01*
X177747875Y-53281324D01*
X177825795Y-53310388D01*
X177825803Y-53310390D01*
X177886350Y-53316899D01*
X177886355Y-53316899D01*
X177886362Y-53316900D01*
X178500501Y-53316900D01*
X178568622Y-53336902D01*
X178615115Y-53390558D01*
X178626501Y-53442900D01*
X178626501Y-55573900D01*
X178606499Y-55642021D01*
X178552843Y-55688514D01*
X178500501Y-55699900D01*
X177886350Y-55699900D01*
X177825803Y-55706409D01*
X177825795Y-55706411D01*
X177688797Y-55757510D01*
X177688792Y-55757512D01*
X177571738Y-55845138D01*
X177484112Y-55962192D01*
X177484110Y-55962197D01*
X177433011Y-56099195D01*
X177433009Y-56099203D01*
X177426500Y-56159750D01*
X177426500Y-57655753D01*
X177406498Y-57723874D01*
X177352842Y-57770367D01*
X177282568Y-57780471D01*
X177260870Y-57775358D01*
X177259542Y-57774918D01*
X177259529Y-57774915D01*
X177159152Y-57764660D01*
X177139300Y-57764660D01*
X177139300Y-59730660D01*
X177159153Y-59730660D01*
X177159152Y-59730659D01*
X177259529Y-59720404D01*
X177259541Y-59720402D01*
X177422185Y-59666507D01*
X177481574Y-59629875D01*
X177550053Y-59611137D01*
X177617792Y-59632395D01*
X177663284Y-59686902D01*
X177673721Y-59737506D01*
X177673091Y-59940433D01*
X177656212Y-60003041D01*
X177595392Y-60108384D01*
X177595390Y-60108389D01*
X177536377Y-60290011D01*
X177516416Y-60479940D01*
X177536377Y-60669867D01*
X177561340Y-60746694D01*
X177595393Y-60851496D01*
X177610048Y-60876879D01*
X177690878Y-61016881D01*
X177690885Y-61016891D01*
X177818664Y-61158804D01*
X177818667Y-61158806D01*
X177973168Y-61271058D01*
X178147632Y-61348734D01*
X178334433Y-61388440D01*
X178525407Y-61388440D01*
X178712208Y-61348734D01*
X178886672Y-61271058D01*
X179041173Y-61158806D01*
X179069436Y-61127417D01*
X179168954Y-61016891D01*
X179168955Y-61016889D01*
X179168960Y-61016884D01*
X179264447Y-60851496D01*
X179323462Y-60669868D01*
X179343424Y-60479940D01*
X179323462Y-60290012D01*
X179264447Y-60108384D01*
X179206962Y-60008818D01*
X179190083Y-59945429D01*
X179191293Y-59555789D01*
X179211506Y-59487733D01*
X179228195Y-59467088D01*
X179239585Y-59455700D01*
X179329602Y-59309761D01*
X179383536Y-59146996D01*
X179389010Y-59093420D01*
X179393800Y-59046540D01*
X179393800Y-58448779D01*
X179383547Y-58348430D01*
X179383536Y-58348324D01*
X179329602Y-58185559D01*
X179276776Y-58099916D01*
X179258040Y-58031439D01*
X179279299Y-57963700D01*
X179283131Y-57958287D01*
X179285889Y-57954604D01*
X179327356Y-57843429D01*
X179336988Y-57817604D01*
X179336990Y-57817596D01*
X179343499Y-57757049D01*
X179343500Y-57757032D01*
X179343500Y-57701996D01*
X179363502Y-57633875D01*
X179417158Y-57587382D01*
X179487432Y-57577278D01*
X179552012Y-57606772D01*
X179558578Y-57612884D01*
X180367758Y-58422065D01*
X180377719Y-58434498D01*
X180377946Y-58434311D01*
X180382998Y-58440418D01*
X180382999Y-58440419D01*
X180429638Y-58484216D01*
X180433371Y-58487721D01*
X180434760Y-58489067D01*
X180444564Y-58498871D01*
X180455223Y-58509531D01*
X180455227Y-58509534D01*
X180455229Y-58509536D01*
X180460781Y-58513843D01*
X180465268Y-58517674D01*
X180486851Y-58537942D01*
X180499676Y-58549986D01*
X180499678Y-58549987D01*
X180517427Y-58559744D01*
X180533952Y-58570599D01*
X180549958Y-58583015D01*
X180590148Y-58600406D01*
X180593261Y-58601753D01*
X180598582Y-58604359D01*
X180639939Y-58627096D01*
X180639947Y-58627098D01*
X180659557Y-58632133D01*
X180678266Y-58638538D01*
X180696854Y-58646582D01*
X180743476Y-58653965D01*
X180749261Y-58655164D01*
X180794969Y-58666901D01*
X180815223Y-58666901D01*
X180834933Y-58668452D01*
X180837140Y-58668801D01*
X180854942Y-58671621D01*
X180889471Y-58668357D01*
X180901916Y-58667181D01*
X180907849Y-58666901D01*
X182311148Y-58666901D01*
X182326989Y-58668650D01*
X182327017Y-58668357D01*
X182334902Y-58669101D01*
X182334910Y-58669103D01*
X182396209Y-58667176D01*
X182403977Y-58666932D01*
X182405956Y-58666901D01*
X182434852Y-58666901D01*
X182434857Y-58666901D01*
X182441819Y-58666020D01*
X182447720Y-58665555D01*
X182494890Y-58664074D01*
X182514348Y-58658420D01*
X182533695Y-58654414D01*
X182553798Y-58651875D01*
X182597680Y-58634500D01*
X182603275Y-58632584D01*
X182631817Y-58624292D01*
X182648592Y-58619420D01*
X182648596Y-58619418D01*
X182666027Y-58609109D01*
X182683781Y-58600410D01*
X182702618Y-58592953D01*
X182740787Y-58565219D01*
X182745745Y-58561963D01*
X182786363Y-58537943D01*
X182800686Y-58523619D01*
X182815725Y-58510775D01*
X182832108Y-58498873D01*
X182862189Y-58462509D01*
X182866167Y-58458137D01*
X183298674Y-58025631D01*
X183311108Y-58015672D01*
X183310920Y-58015445D01*
X183317025Y-58010394D01*
X183317026Y-58010392D01*
X183317029Y-58010391D01*
X183364348Y-57959999D01*
X183365663Y-57958642D01*
X183386146Y-57938161D01*
X183390456Y-57932603D01*
X183394285Y-57928120D01*
X183426597Y-57893712D01*
X183436357Y-57875956D01*
X183447206Y-57859441D01*
X183459625Y-57843432D01*
X183478374Y-57800101D01*
X183480964Y-57794814D01*
X183503706Y-57753451D01*
X183508744Y-57733825D01*
X183515148Y-57715123D01*
X183523191Y-57696538D01*
X183523190Y-57696538D01*
X183523192Y-57696536D01*
X183530573Y-57649924D01*
X183531776Y-57644123D01*
X183537958Y-57620047D01*
X183574272Y-57559041D01*
X183637805Y-57527352D01*
X183708383Y-57535042D01*
X183763601Y-57579669D01*
X183780127Y-57613364D01*
X183789469Y-57642885D01*
X183789473Y-57642896D01*
X183986926Y-58132805D01*
X183986938Y-58132833D01*
X184218448Y-58600406D01*
X184221323Y-58606213D01*
X184483685Y-59047525D01*
X184491267Y-59060278D01*
X184795158Y-59492319D01*
X184795162Y-59492324D01*
X184795167Y-59492331D01*
X185131254Y-59899860D01*
X185497552Y-60280467D01*
X185682279Y-60445095D01*
X185891912Y-60631920D01*
X186116567Y-60803166D01*
X186312013Y-60952148D01*
X186366356Y-60987340D01*
X186390128Y-61002735D01*
X186436433Y-61056552D01*
X186446292Y-61126861D01*
X186416574Y-61191339D01*
X186365671Y-61226550D01*
X186349038Y-61232753D01*
X186349034Y-61232755D01*
X186232095Y-61320295D01*
X186144555Y-61437234D01*
X186144555Y-61437235D01*
X186093505Y-61574106D01*
X186087000Y-61634602D01*
X186087000Y-62179200D01*
X188003000Y-62179200D01*
X188003000Y-61995143D01*
X188023002Y-61927022D01*
X188076658Y-61880529D01*
X188146932Y-61870425D01*
X188171591Y-61876560D01*
X188198611Y-61886264D01*
X188198625Y-61886269D01*
X188707979Y-62026242D01*
X188707982Y-62026242D01*
X188707986Y-62026244D01*
X189226548Y-62126813D01*
X189226554Y-62126813D01*
X189226555Y-62126814D01*
X189400274Y-62146869D01*
X189751297Y-62187393D01*
X189751299Y-62187393D01*
X189751307Y-62187394D01*
X190147149Y-62202567D01*
X190147155Y-62202567D01*
X190411159Y-62202567D01*
X190411165Y-62202567D01*
X190807007Y-62187394D01*
X191331759Y-62126814D01*
X191331762Y-62126813D01*
X191331765Y-62126813D01*
X191850327Y-62026244D01*
X191850329Y-62026243D01*
X191850335Y-62026242D01*
X192359689Y-61886269D01*
X192425752Y-61862542D01*
X192462909Y-61849197D01*
X192533782Y-61844995D01*
X192595675Y-61879777D01*
X192628938Y-61942499D01*
X192631500Y-61967780D01*
X192631500Y-63158649D01*
X192638009Y-63219196D01*
X192638011Y-63219204D01*
X192689110Y-63356202D01*
X192689112Y-63356207D01*
X192776735Y-63473256D01*
X192776739Y-63473261D01*
X192776742Y-63473263D01*
X192777589Y-63474110D01*
X192778167Y-63475169D01*
X192782140Y-63480476D01*
X192781377Y-63481046D01*
X192811619Y-63536420D01*
X192814500Y-63563212D01*
X192814500Y-64378550D01*
X192794498Y-64446671D01*
X192740842Y-64493164D01*
X192670568Y-64503268D01*
X192605988Y-64473774D01*
X192567604Y-64414048D01*
X192564921Y-64403132D01*
X192551431Y-64335314D01*
X192531205Y-64233632D01*
X192433175Y-63944844D01*
X192298288Y-63671321D01*
X192128854Y-63417745D01*
X192128851Y-63417741D01*
X191927771Y-63188452D01*
X191698482Y-62987372D01*
X191698478Y-62987369D01*
X191444900Y-62817934D01*
X191171386Y-62683052D01*
X191171380Y-62683049D01*
X191171375Y-62683047D01*
X191171372Y-62683046D01*
X190882600Y-62585021D01*
X190882594Y-62585019D01*
X190882592Y-62585019D01*
X190782433Y-62565096D01*
X190583487Y-62525522D01*
X190583473Y-62525520D01*
X190355323Y-62510567D01*
X190355321Y-62510567D01*
X190202993Y-62510567D01*
X190202991Y-62510567D01*
X189974840Y-62525520D01*
X189974826Y-62525522D01*
X189725801Y-62575057D01*
X189675722Y-62585019D01*
X189675720Y-62585019D01*
X189675713Y-62585021D01*
X189386941Y-62683046D01*
X189386927Y-62683052D01*
X189113413Y-62817934D01*
X188859835Y-62987369D01*
X188859831Y-62987372D01*
X188630542Y-63188452D01*
X188429462Y-63417741D01*
X188429459Y-63417745D01*
X188260024Y-63671323D01*
X188125142Y-63944837D01*
X188125136Y-63944851D01*
X188027111Y-64233623D01*
X188027109Y-64233633D01*
X187967612Y-64532736D01*
X187967610Y-64532750D01*
X187947665Y-64837063D01*
X187947665Y-64837070D01*
X187967610Y-65141383D01*
X187967612Y-65141397D01*
X188027109Y-65440500D01*
X188027111Y-65440510D01*
X188125136Y-65729282D01*
X188125142Y-65729296D01*
X188260024Y-66002810D01*
X188429459Y-66256388D01*
X188429462Y-66256392D01*
X188633263Y-66488783D01*
X188632238Y-66489681D01*
X188663492Y-66546917D01*
X188658427Y-66617732D01*
X188615880Y-66674568D01*
X188549360Y-66699379D01*
X188540371Y-66699700D01*
X188129500Y-66699700D01*
X188061379Y-66679698D01*
X188014886Y-66626042D01*
X188003500Y-66573700D01*
X188003500Y-66534567D01*
X188003499Y-66534550D01*
X187996990Y-66474003D01*
X187996988Y-66473995D01*
X187945889Y-66336997D01*
X187945887Y-66336992D01*
X187858261Y-66219938D01*
X187741207Y-66132312D01*
X187741202Y-66132310D01*
X187604204Y-66081211D01*
X187604196Y-66081209D01*
X187543649Y-66074700D01*
X187543638Y-66074700D01*
X186546362Y-66074700D01*
X186546350Y-66074700D01*
X186485803Y-66081209D01*
X186485795Y-66081211D01*
X186348797Y-66132310D01*
X186348792Y-66132312D01*
X186231738Y-66219938D01*
X186144112Y-66336992D01*
X186144110Y-66336997D01*
X186093011Y-66473995D01*
X186093009Y-66474003D01*
X186086500Y-66534550D01*
X186086500Y-68131849D01*
X186093009Y-68192396D01*
X186093011Y-68192404D01*
X186144110Y-68329402D01*
X186144112Y-68329407D01*
X186231738Y-68446461D01*
X186348792Y-68534087D01*
X186348794Y-68534088D01*
X186348796Y-68534089D01*
X186404651Y-68554922D01*
X186485795Y-68585188D01*
X186485803Y-68585190D01*
X186546350Y-68591699D01*
X186546355Y-68591699D01*
X186546362Y-68591700D01*
X186546368Y-68591700D01*
X187543632Y-68591700D01*
X187543638Y-68591700D01*
X187543645Y-68591699D01*
X187543649Y-68591699D01*
X187604196Y-68585190D01*
X187604199Y-68585189D01*
X187604201Y-68585189D01*
X187741204Y-68534089D01*
X187762029Y-68518500D01*
X187858261Y-68446461D01*
X187945887Y-68329407D01*
X187945887Y-68329406D01*
X187945889Y-68329404D01*
X187989960Y-68211245D01*
X187996988Y-68192404D01*
X187996990Y-68192396D01*
X188003499Y-68131849D01*
X188003500Y-68131832D01*
X188003500Y-68092700D01*
X188023502Y-68024579D01*
X188077158Y-67978086D01*
X188129500Y-67966700D01*
X191101536Y-67966700D01*
X191169657Y-67986702D01*
X191216150Y-68040358D01*
X191226254Y-68110632D01*
X191196760Y-68175212D01*
X191195190Y-68176989D01*
X191181312Y-68192404D01*
X191112242Y-68269113D01*
X191112238Y-68269118D01*
X191016756Y-68434498D01*
X191016753Y-68434505D01*
X190957737Y-68616132D01*
X190937776Y-68806060D01*
X190957737Y-68995987D01*
X190979549Y-69063116D01*
X191016753Y-69177616D01*
X191021840Y-69186427D01*
X191112238Y-69343001D01*
X191112245Y-69343011D01*
X191240024Y-69484924D01*
X191240027Y-69484926D01*
X191394528Y-69597178D01*
X191568992Y-69674854D01*
X191755793Y-69714560D01*
X191946767Y-69714560D01*
X192133568Y-69674854D01*
X192308032Y-69597178D01*
X192462533Y-69484926D01*
X192500533Y-69442723D01*
X192590314Y-69343011D01*
X192590315Y-69343009D01*
X192590320Y-69343004D01*
X192685807Y-69177616D01*
X192738674Y-69014907D01*
X192769896Y-68964268D01*
X193183711Y-68554922D01*
X193245569Y-68521580D01*
X201314700Y-68521580D01*
X201314700Y-68566432D01*
X201324955Y-68666809D01*
X201324957Y-68666821D01*
X201378852Y-68829464D01*
X201468809Y-68975308D01*
X201468814Y-68975314D01*
X201589965Y-69096465D01*
X201589971Y-69096470D01*
X201735815Y-69186427D01*
X201898458Y-69240322D01*
X201898470Y-69240324D01*
X201998847Y-69250579D01*
X201998847Y-69250580D01*
X202018700Y-69250580D01*
X202526700Y-69250580D01*
X202546553Y-69250580D01*
X202546552Y-69250579D01*
X202646929Y-69240324D01*
X202646941Y-69240322D01*
X202809585Y-69186426D01*
X202809586Y-69186426D01*
X202882301Y-69141575D01*
X202950780Y-69122837D01*
X203018519Y-69144096D01*
X203064012Y-69198602D01*
X203074449Y-69248907D01*
X203074354Y-69378447D01*
X203057474Y-69441354D01*
X202997934Y-69544481D01*
X202938917Y-69726112D01*
X202918956Y-69916040D01*
X202938917Y-70105967D01*
X202949627Y-70138927D01*
X202997933Y-70287596D01*
X202997936Y-70287601D01*
X203093418Y-70452981D01*
X203093425Y-70452991D01*
X203221204Y-70594904D01*
X203221207Y-70594906D01*
X203375708Y-70707158D01*
X203550172Y-70784834D01*
X203736973Y-70824540D01*
X203927947Y-70824540D01*
X204114748Y-70784834D01*
X204289212Y-70707158D01*
X204443713Y-70594906D01*
X204571500Y-70452984D01*
X204666987Y-70287596D01*
X204726002Y-70105968D01*
X204745964Y-69916040D01*
X204726002Y-69726112D01*
X204666987Y-69544484D01*
X204608233Y-69442719D01*
X204591353Y-69379632D01*
X204591586Y-69063113D01*
X204611638Y-68995010D01*
X204622558Y-68981470D01*
X204622436Y-68981374D01*
X204626982Y-68975624D01*
X204626983Y-68975621D01*
X204626985Y-68975620D01*
X204717002Y-68829681D01*
X204770936Y-68666916D01*
X204773735Y-68639516D01*
X204781200Y-68566460D01*
X204781200Y-67968699D01*
X204770947Y-67868350D01*
X204770936Y-67868244D01*
X204717002Y-67705479D01*
X204662996Y-67617923D01*
X204644260Y-67549446D01*
X204665519Y-67481707D01*
X204669357Y-67476287D01*
X204685889Y-67454204D01*
X204736989Y-67317201D01*
X204738348Y-67304566D01*
X204743499Y-67256649D01*
X204743500Y-67256632D01*
X204743500Y-65659367D01*
X204743499Y-65659350D01*
X204736990Y-65598803D01*
X204736988Y-65598795D01*
X204685889Y-65461797D01*
X204685887Y-65461792D01*
X204598261Y-65344738D01*
X204481207Y-65257112D01*
X204481202Y-65257110D01*
X204344204Y-65206011D01*
X204344196Y-65206009D01*
X204283649Y-65199500D01*
X204283638Y-65199500D01*
X203286362Y-65199500D01*
X203286350Y-65199500D01*
X203225803Y-65206009D01*
X203225795Y-65206011D01*
X203088797Y-65257110D01*
X203088792Y-65257112D01*
X202971738Y-65344738D01*
X202884112Y-65461792D01*
X202884110Y-65461797D01*
X202833011Y-65598795D01*
X202833009Y-65598803D01*
X202826500Y-65659350D01*
X202826500Y-67179848D01*
X202806498Y-67247969D01*
X202752842Y-67294462D01*
X202682568Y-67304566D01*
X202660869Y-67299453D01*
X202646939Y-67294837D01*
X202646929Y-67294835D01*
X202546552Y-67284580D01*
X202526700Y-67284580D01*
X202526700Y-69250580D01*
X202018700Y-69250580D01*
X202018700Y-68521580D01*
X201314700Y-68521580D01*
X193245569Y-68521580D01*
X193246207Y-68521236D01*
X193272321Y-68518500D01*
X194088632Y-68518500D01*
X194088638Y-68518500D01*
X194088645Y-68518499D01*
X194088649Y-68518499D01*
X194149196Y-68511990D01*
X194149199Y-68511989D01*
X194149201Y-68511989D01*
X194286204Y-68460889D01*
X194403261Y-68373261D01*
X194436094Y-68329402D01*
X194490887Y-68256207D01*
X194490887Y-68256206D01*
X194490889Y-68256204D01*
X194536017Y-68135212D01*
X194541988Y-68119204D01*
X194541990Y-68119196D01*
X194548499Y-68058649D01*
X195931500Y-68058649D01*
X195938009Y-68119196D01*
X195938011Y-68119204D01*
X195989110Y-68256202D01*
X195989112Y-68256207D01*
X196076738Y-68373261D01*
X196193792Y-68460887D01*
X196193794Y-68460888D01*
X196193796Y-68460889D01*
X196252875Y-68482924D01*
X196330795Y-68511988D01*
X196330803Y-68511990D01*
X196391350Y-68518499D01*
X196391355Y-68518499D01*
X196391362Y-68518500D01*
X196391368Y-68518500D01*
X197388632Y-68518500D01*
X197388638Y-68518500D01*
X197388645Y-68518499D01*
X197388649Y-68518499D01*
X197449196Y-68511990D01*
X197449199Y-68511989D01*
X197449201Y-68511989D01*
X197586204Y-68460889D01*
X197703261Y-68373261D01*
X197736094Y-68329402D01*
X197790887Y-68256207D01*
X197790887Y-68256206D01*
X197790889Y-68256204D01*
X197836017Y-68135212D01*
X197841988Y-68119204D01*
X197841990Y-68119196D01*
X197848499Y-68058649D01*
X197848499Y-68058647D01*
X197848500Y-68058638D01*
X197848500Y-68013580D01*
X201314700Y-68013580D01*
X202018700Y-68013580D01*
X202018700Y-67284580D01*
X201998847Y-67284580D01*
X201898470Y-67294835D01*
X201898458Y-67294837D01*
X201735815Y-67348732D01*
X201589971Y-67438689D01*
X201589965Y-67438694D01*
X201468814Y-67559845D01*
X201468809Y-67559851D01*
X201378852Y-67705695D01*
X201324957Y-67868338D01*
X201324955Y-67868350D01*
X201314700Y-67968727D01*
X201314700Y-68013580D01*
X197848500Y-68013580D01*
X197848500Y-67028394D01*
X197868502Y-66960273D01*
X197885405Y-66939299D01*
X202596300Y-62228405D01*
X202658612Y-62194379D01*
X202685395Y-62191500D01*
X202700500Y-62191500D01*
X202768621Y-62211502D01*
X202815114Y-62265158D01*
X202826500Y-62317500D01*
X202826500Y-62356649D01*
X202833009Y-62417196D01*
X202833011Y-62417204D01*
X202884110Y-62554202D01*
X202884112Y-62554207D01*
X202971738Y-62671261D01*
X203088792Y-62758887D01*
X203088794Y-62758888D01*
X203088796Y-62758889D01*
X203136632Y-62776731D01*
X203225795Y-62809988D01*
X203225803Y-62809990D01*
X203286350Y-62816499D01*
X203286355Y-62816499D01*
X203286362Y-62816500D01*
X203286368Y-62816500D01*
X204283632Y-62816500D01*
X204283638Y-62816500D01*
X204283645Y-62816499D01*
X204283649Y-62816499D01*
X204344196Y-62809990D01*
X204344199Y-62809989D01*
X204344201Y-62809989D01*
X204481204Y-62758889D01*
X204481799Y-62758444D01*
X204598261Y-62671261D01*
X204685887Y-62554207D01*
X204685887Y-62554206D01*
X204685889Y-62554204D01*
X204736989Y-62417201D01*
X204743500Y-62356638D01*
X204743500Y-61812000D01*
X206127000Y-61812000D01*
X206127000Y-62356597D01*
X206133505Y-62417093D01*
X206184555Y-62553964D01*
X206184555Y-62553965D01*
X206272095Y-62670904D01*
X206389034Y-62758444D01*
X206525906Y-62809494D01*
X206586402Y-62815999D01*
X206586415Y-62816000D01*
X206831000Y-62816000D01*
X206831000Y-61812000D01*
X206127000Y-61812000D01*
X204743500Y-61812000D01*
X204743500Y-61304000D01*
X206127000Y-61304000D01*
X206831000Y-61304000D01*
X206831000Y-60300000D01*
X206586402Y-60300000D01*
X206525906Y-60306505D01*
X206389035Y-60357555D01*
X206389034Y-60357555D01*
X206272095Y-60445095D01*
X206184555Y-60562034D01*
X206184555Y-60562035D01*
X206133505Y-60698906D01*
X206127000Y-60759402D01*
X206127000Y-61304000D01*
X204743500Y-61304000D01*
X204743500Y-60759362D01*
X204737001Y-60698906D01*
X204736990Y-60698803D01*
X204736988Y-60698795D01*
X204685978Y-60562035D01*
X204685889Y-60561796D01*
X204685888Y-60561794D01*
X204685887Y-60561792D01*
X204598261Y-60444738D01*
X204481207Y-60357112D01*
X204481202Y-60357110D01*
X204344204Y-60306011D01*
X204344196Y-60306009D01*
X204283649Y-60299500D01*
X204283638Y-60299500D01*
X203286362Y-60299500D01*
X203286350Y-60299500D01*
X203225803Y-60306009D01*
X203225795Y-60306011D01*
X203088797Y-60357110D01*
X203088792Y-60357112D01*
X202971738Y-60444738D01*
X202884112Y-60561792D01*
X202884110Y-60561797D01*
X202833011Y-60698795D01*
X202833009Y-60698803D01*
X202826500Y-60759350D01*
X202826500Y-60798500D01*
X202806498Y-60866621D01*
X202752842Y-60913114D01*
X202700500Y-60924500D01*
X202454653Y-60924500D01*
X202438811Y-60922750D01*
X202438784Y-60923044D01*
X202430891Y-60922298D01*
X202361824Y-60924469D01*
X202359845Y-60924500D01*
X202330944Y-60924500D01*
X202330940Y-60924500D01*
X202330930Y-60924501D01*
X202323979Y-60925379D01*
X202318067Y-60925844D01*
X202270913Y-60927326D01*
X202270911Y-60927327D01*
X202251456Y-60932978D01*
X202232103Y-60936986D01*
X202212011Y-60939524D01*
X202212004Y-60939525D01*
X202212003Y-60939526D01*
X202212001Y-60939526D01*
X202212000Y-60939527D01*
X202168139Y-60956892D01*
X202162524Y-60958815D01*
X202117207Y-60971982D01*
X202099764Y-60982297D01*
X202082018Y-60990990D01*
X202063182Y-60998448D01*
X202025009Y-61026181D01*
X202020048Y-61029440D01*
X201979438Y-61053458D01*
X201965111Y-61067784D01*
X201950085Y-61080617D01*
X201933695Y-61092525D01*
X201933693Y-61092527D01*
X201903608Y-61128892D01*
X201899612Y-61133283D01*
X197068300Y-65964595D01*
X197005988Y-65998621D01*
X196979205Y-66001500D01*
X196391350Y-66001500D01*
X196330803Y-66008009D01*
X196330795Y-66008011D01*
X196193797Y-66059110D01*
X196193792Y-66059112D01*
X196076738Y-66146738D01*
X195989112Y-66263792D01*
X195989110Y-66263797D01*
X195938011Y-66400795D01*
X195938009Y-66400803D01*
X195931500Y-66461350D01*
X195931500Y-68058649D01*
X194548499Y-68058649D01*
X194548500Y-68058632D01*
X194548500Y-66461367D01*
X194548499Y-66461350D01*
X194541990Y-66400803D01*
X194541988Y-66400795D01*
X194490889Y-66263797D01*
X194490887Y-66263792D01*
X194403261Y-66146738D01*
X194286207Y-66059112D01*
X194286202Y-66059110D01*
X194149204Y-66008011D01*
X194149197Y-66008010D01*
X194092783Y-66001945D01*
X194027191Y-65974776D01*
X193986700Y-65916458D01*
X193984166Y-65845507D01*
X193994631Y-65820191D01*
X193994464Y-65820119D01*
X193997612Y-65812843D01*
X193997614Y-65812841D01*
X194016359Y-65769519D01*
X194018958Y-65764215D01*
X194041695Y-65722860D01*
X194046733Y-65703234D01*
X194053137Y-65684532D01*
X194061180Y-65665947D01*
X194061179Y-65665947D01*
X194061181Y-65665945D01*
X194068561Y-65619347D01*
X194069762Y-65613540D01*
X194081500Y-65567830D01*
X194081500Y-65547574D01*
X194083051Y-65527863D01*
X194086220Y-65507857D01*
X194083479Y-65478864D01*
X194081780Y-65460880D01*
X194081500Y-65454948D01*
X194081500Y-63724723D01*
X194101502Y-63656602D01*
X194155158Y-63610109D01*
X194163442Y-63606677D01*
X194286204Y-63560889D01*
X194403261Y-63473261D01*
X194444823Y-63417741D01*
X194490887Y-63356207D01*
X194490887Y-63356206D01*
X194490889Y-63356204D01*
X194534960Y-63238045D01*
X194541988Y-63219204D01*
X194541990Y-63219196D01*
X194548499Y-63158649D01*
X194548500Y-63158632D01*
X194548500Y-62614000D01*
X195932000Y-62614000D01*
X195932000Y-63158597D01*
X195938505Y-63219093D01*
X195989555Y-63355964D01*
X195989555Y-63355965D01*
X196077095Y-63472904D01*
X196194034Y-63560444D01*
X196330906Y-63611494D01*
X196391402Y-63617999D01*
X196391415Y-63618000D01*
X196636000Y-63618000D01*
X196636000Y-62614000D01*
X197144000Y-62614000D01*
X197144000Y-63618000D01*
X197388585Y-63618000D01*
X197388597Y-63617999D01*
X197449093Y-63611494D01*
X197585964Y-63560444D01*
X197585965Y-63560444D01*
X197702904Y-63472904D01*
X197790444Y-63355965D01*
X197790444Y-63355964D01*
X197841494Y-63219093D01*
X197847999Y-63158597D01*
X197848000Y-63158585D01*
X197848000Y-62614000D01*
X197144000Y-62614000D01*
X196636000Y-62614000D01*
X195932000Y-62614000D01*
X194548500Y-62614000D01*
X194548500Y-62106000D01*
X195932000Y-62106000D01*
X196636000Y-62106000D01*
X196636000Y-61102000D01*
X197144000Y-61102000D01*
X197144000Y-62106000D01*
X197848000Y-62106000D01*
X197848000Y-61561414D01*
X197847999Y-61561402D01*
X197841494Y-61500906D01*
X197790444Y-61364035D01*
X197790444Y-61364034D01*
X197702904Y-61247095D01*
X197585965Y-61159555D01*
X197449093Y-61108505D01*
X197388597Y-61102000D01*
X197144000Y-61102000D01*
X196636000Y-61102000D01*
X196391402Y-61102000D01*
X196330906Y-61108505D01*
X196194035Y-61159555D01*
X196194034Y-61159555D01*
X196077095Y-61247095D01*
X195989555Y-61364034D01*
X195989555Y-61364035D01*
X195938505Y-61500906D01*
X195932000Y-61561402D01*
X195932000Y-62106000D01*
X194548500Y-62106000D01*
X194548500Y-61561367D01*
X194548499Y-61561350D01*
X194541990Y-61500803D01*
X194541988Y-61500795D01*
X194490978Y-61364035D01*
X194490889Y-61363796D01*
X194490888Y-61363794D01*
X194490887Y-61363792D01*
X194403261Y-61246738D01*
X194286207Y-61159112D01*
X194278299Y-61154795D01*
X194279628Y-61152359D01*
X194234236Y-61118365D01*
X194209438Y-61051839D01*
X194224544Y-60982468D01*
X194258732Y-60942671D01*
X194666405Y-60631917D01*
X195060762Y-60280467D01*
X195389468Y-59938920D01*
X200898740Y-59938920D01*
X200898740Y-59958772D01*
X200908995Y-60059149D01*
X200908997Y-60059161D01*
X200962892Y-60221804D01*
X201052849Y-60367648D01*
X201052854Y-60367654D01*
X201174005Y-60488805D01*
X201174011Y-60488810D01*
X201319855Y-60578767D01*
X201482498Y-60632662D01*
X201482510Y-60632664D01*
X201582887Y-60642919D01*
X201582887Y-60642920D01*
X201627740Y-60642920D01*
X201627740Y-59938920D01*
X202135740Y-59938920D01*
X202135740Y-60642920D01*
X202180593Y-60642920D01*
X202180592Y-60642919D01*
X202280969Y-60632664D01*
X202280981Y-60632662D01*
X202443624Y-60578767D01*
X202589468Y-60488810D01*
X202589474Y-60488805D01*
X202710625Y-60367654D01*
X202710630Y-60367648D01*
X202800587Y-60221804D01*
X202854482Y-60059161D01*
X202854484Y-60059149D01*
X202864739Y-59958772D01*
X202864740Y-59958772D01*
X202864740Y-59938920D01*
X202135740Y-59938920D01*
X201627740Y-59938920D01*
X200898740Y-59938920D01*
X195389468Y-59938920D01*
X195427060Y-59899860D01*
X195763147Y-59492331D01*
X196067052Y-59060270D01*
X196336991Y-58606213D01*
X196571380Y-58132824D01*
X196724282Y-57753450D01*
X196768840Y-57642896D01*
X196768844Y-57642885D01*
X196768845Y-57642883D01*
X196928225Y-57139263D01*
X196950344Y-57044737D01*
X196985343Y-56982965D01*
X197048181Y-56949921D01*
X197118908Y-56956095D01*
X197175070Y-56999527D01*
X197191086Y-57029413D01*
X197195110Y-57040203D01*
X197195112Y-57040207D01*
X197282738Y-57157261D01*
X197399792Y-57244887D01*
X197399794Y-57244888D01*
X197399796Y-57244889D01*
X197451782Y-57264279D01*
X197536795Y-57295988D01*
X197536803Y-57295990D01*
X197597350Y-57302499D01*
X197597355Y-57302499D01*
X197597362Y-57302500D01*
X197597368Y-57302500D01*
X198594634Y-57302500D01*
X198594638Y-57302500D01*
X198594641Y-57302499D01*
X198598013Y-57302319D01*
X198598065Y-57303303D01*
X198663865Y-57315169D01*
X198696570Y-57338751D01*
X199623034Y-58265215D01*
X199653772Y-58315373D01*
X199708633Y-58484216D01*
X199712770Y-58491381D01*
X199804118Y-58649601D01*
X199804125Y-58649611D01*
X199931904Y-58791524D01*
X199968290Y-58817960D01*
X200086408Y-58903778D01*
X200260872Y-58981454D01*
X200447673Y-59021160D01*
X200638652Y-59021160D01*
X200817777Y-58983085D01*
X200888567Y-58988486D01*
X200945200Y-59031303D01*
X200969694Y-59097940D01*
X200963579Y-59145963D01*
X200908996Y-59310684D01*
X200908995Y-59310690D01*
X200898740Y-59411067D01*
X200898740Y-59430920D01*
X202864740Y-59430920D01*
X202864740Y-59411067D01*
X202854484Y-59310690D01*
X202854482Y-59310678D01*
X202821513Y-59211185D01*
X202819072Y-59140230D01*
X202855380Y-59079220D01*
X202918909Y-59047525D01*
X202989489Y-59055207D01*
X203041985Y-59096043D01*
X203073738Y-59138461D01*
X203190792Y-59226087D01*
X203190794Y-59226088D01*
X203190796Y-59226089D01*
X203249875Y-59248124D01*
X203327795Y-59277188D01*
X203327803Y-59277190D01*
X203388350Y-59283699D01*
X203388355Y-59283699D01*
X203388362Y-59283700D01*
X203388368Y-59283700D01*
X204385632Y-59283700D01*
X204385638Y-59283700D01*
X204385645Y-59283699D01*
X204385649Y-59283699D01*
X204446196Y-59277190D01*
X204446199Y-59277189D01*
X204446201Y-59277189D01*
X204583204Y-59226089D01*
X204603114Y-59211185D01*
X204700261Y-59138461D01*
X204787887Y-59021407D01*
X204787887Y-59021406D01*
X204787889Y-59021404D01*
X204837695Y-58887870D01*
X204838988Y-58884404D01*
X204838990Y-58884396D01*
X204845499Y-58823849D01*
X204845500Y-58823832D01*
X204845500Y-57226567D01*
X204845499Y-57226550D01*
X204838990Y-57166003D01*
X204838988Y-57165995D01*
X204809924Y-57088075D01*
X204787889Y-57028996D01*
X204787888Y-57028994D01*
X204787887Y-57028992D01*
X204700261Y-56911938D01*
X204583207Y-56824312D01*
X204583202Y-56824310D01*
X204446204Y-56773211D01*
X204446196Y-56773209D01*
X204385649Y-56766700D01*
X204385638Y-56766700D01*
X203388362Y-56766700D01*
X203388350Y-56766700D01*
X203327803Y-56773209D01*
X203327795Y-56773211D01*
X203190797Y-56824310D01*
X203190792Y-56824312D01*
X203073738Y-56911938D01*
X202986112Y-57028992D01*
X202986110Y-57028997D01*
X202935010Y-57165999D01*
X202934141Y-57169678D01*
X202932683Y-57172236D01*
X202932256Y-57173384D01*
X202932070Y-57173314D01*
X202899009Y-57231373D01*
X202836099Y-57264279D01*
X202811519Y-57266700D01*
X202521859Y-57266700D01*
X202455712Y-57247940D01*
X202443841Y-57240618D01*
X202370042Y-57216164D01*
X202311672Y-57175751D01*
X202284416Y-57110195D01*
X202295330Y-57049240D01*
X202293740Y-57048647D01*
X202347988Y-56903204D01*
X202347990Y-56903196D01*
X202354499Y-56842649D01*
X202354500Y-56842632D01*
X202354500Y-55728500D01*
X202374502Y-55660379D01*
X202428158Y-55613886D01*
X202480500Y-55602500D01*
X203814406Y-55602500D01*
X203882527Y-55622502D01*
X203903500Y-55639404D01*
X206191596Y-57927500D01*
X206225620Y-57989810D01*
X206228500Y-58016593D01*
X206228500Y-58823849D01*
X206235009Y-58884396D01*
X206235011Y-58884404D01*
X206286110Y-59021402D01*
X206286112Y-59021407D01*
X206373738Y-59138461D01*
X206490792Y-59226087D01*
X206490794Y-59226088D01*
X206490796Y-59226089D01*
X206549875Y-59248124D01*
X206627795Y-59277188D01*
X206627803Y-59277190D01*
X206688350Y-59283699D01*
X206688355Y-59283699D01*
X206688362Y-59283700D01*
X207202500Y-59283700D01*
X207270621Y-59303702D01*
X207317114Y-59357358D01*
X207328500Y-59409700D01*
X207328500Y-65073500D01*
X207308498Y-65141621D01*
X207254842Y-65188114D01*
X207202500Y-65199500D01*
X206586350Y-65199500D01*
X206525803Y-65206009D01*
X206525795Y-65206011D01*
X206388797Y-65257110D01*
X206388792Y-65257112D01*
X206271738Y-65344738D01*
X206184112Y-65461792D01*
X206184110Y-65461797D01*
X206133011Y-65598795D01*
X206133009Y-65598803D01*
X206126500Y-65659350D01*
X206126500Y-67256649D01*
X206133009Y-67317196D01*
X206133011Y-67317204D01*
X206184110Y-67454202D01*
X206184112Y-67454207D01*
X206271738Y-67571261D01*
X206388792Y-67658887D01*
X206388794Y-67658888D01*
X206388796Y-67658889D01*
X206447875Y-67680924D01*
X206525795Y-67709988D01*
X206525803Y-67709990D01*
X206586350Y-67716499D01*
X206586355Y-67716499D01*
X206586362Y-67716500D01*
X206586368Y-67716500D01*
X207583632Y-67716500D01*
X207583638Y-67716500D01*
X207583645Y-67716499D01*
X207583649Y-67716499D01*
X207644196Y-67709990D01*
X207644199Y-67709989D01*
X207644201Y-67709989D01*
X207781204Y-67658889D01*
X207835926Y-67617925D01*
X207898261Y-67571261D01*
X207985887Y-67454207D01*
X207985888Y-67454205D01*
X207985889Y-67454204D01*
X208036989Y-67317201D01*
X208038348Y-67304566D01*
X208043499Y-67256649D01*
X208043500Y-67256632D01*
X208043500Y-66447593D01*
X208063502Y-66379472D01*
X208080399Y-66358503D01*
X208350661Y-66088241D01*
X208363092Y-66078284D01*
X208362905Y-66078057D01*
X208369016Y-66073001D01*
X208369015Y-66073001D01*
X208369018Y-66073000D01*
X208416352Y-66022592D01*
X208417667Y-66021235D01*
X208438134Y-66000770D01*
X208442429Y-65995232D01*
X208446271Y-65990731D01*
X208478586Y-65956321D01*
X208488345Y-65938567D01*
X208499197Y-65922046D01*
X208511613Y-65906041D01*
X208530140Y-65863226D01*
X208530347Y-65862748D01*
X208532961Y-65857412D01*
X208555694Y-65816061D01*
X208555695Y-65816060D01*
X208560733Y-65796435D01*
X208567138Y-65777730D01*
X208575181Y-65759145D01*
X208582561Y-65712547D01*
X208583762Y-65706740D01*
X208595500Y-65661030D01*
X208595500Y-65640774D01*
X208597051Y-65621063D01*
X208598244Y-65613530D01*
X208600220Y-65601057D01*
X208596305Y-65559637D01*
X208595780Y-65554080D01*
X208595500Y-65548148D01*
X208595500Y-57034053D01*
X208597249Y-57018211D01*
X208596956Y-57018184D01*
X208597702Y-57010291D01*
X208595531Y-56941211D01*
X208595500Y-56939232D01*
X208595500Y-56910350D01*
X208595500Y-56910344D01*
X208594620Y-56903382D01*
X208594156Y-56897493D01*
X208592674Y-56850311D01*
X208587017Y-56830842D01*
X208583012Y-56811498D01*
X208580474Y-56791403D01*
X208563100Y-56747522D01*
X208561181Y-56741916D01*
X208548018Y-56696607D01*
X208537706Y-56679170D01*
X208529010Y-56661421D01*
X208521552Y-56642583D01*
X208493812Y-56604403D01*
X208490564Y-56599458D01*
X208466542Y-56558838D01*
X208452214Y-56544510D01*
X208439384Y-56529489D01*
X208427472Y-56513093D01*
X208427469Y-56513091D01*
X208427469Y-56513090D01*
X208391107Y-56483008D01*
X208386726Y-56479022D01*
X206991165Y-55083461D01*
X206489629Y-54581924D01*
X206455603Y-54519612D01*
X206460668Y-54448796D01*
X206503215Y-54391961D01*
X206569735Y-54367150D01*
X206622762Y-54374775D01*
X206627908Y-54376694D01*
X206688402Y-54383199D01*
X206688415Y-54383200D01*
X206933000Y-54383200D01*
X206933000Y-53379200D01*
X207441000Y-53379200D01*
X207441000Y-54383200D01*
X207685585Y-54383200D01*
X207685597Y-54383199D01*
X207746093Y-54376694D01*
X207882964Y-54325644D01*
X207882965Y-54325644D01*
X207999904Y-54238104D01*
X208087444Y-54121165D01*
X208087444Y-54121164D01*
X208138494Y-53984293D01*
X208144999Y-53923797D01*
X208145000Y-53923785D01*
X208145000Y-53379200D01*
X207441000Y-53379200D01*
X206933000Y-53379200D01*
X206229000Y-53379200D01*
X206229000Y-53923797D01*
X206235505Y-53984296D01*
X206237425Y-53989442D01*
X206242491Y-54060258D01*
X206208466Y-54122570D01*
X206146154Y-54156595D01*
X206075338Y-54151531D01*
X206030275Y-54122570D01*
X204882405Y-52974700D01*
X204848379Y-52912388D01*
X204845500Y-52885605D01*
X204845500Y-52326567D01*
X204845499Y-52326551D01*
X204844367Y-52316027D01*
X204856968Y-52246158D01*
X204905344Y-52194193D01*
X204974134Y-52176631D01*
X205035791Y-52195310D01*
X205099275Y-52234467D01*
X205261918Y-52288362D01*
X205261930Y-52288364D01*
X205362307Y-52298619D01*
X205362307Y-52298620D01*
X205382160Y-52298620D01*
X205382160Y-51569620D01*
X205890160Y-51569620D01*
X205890160Y-52298620D01*
X205910013Y-52298620D01*
X205910012Y-52298619D01*
X206010389Y-52288364D01*
X206010394Y-52288363D01*
X206063365Y-52270810D01*
X206134320Y-52268369D01*
X206195331Y-52304676D01*
X206227027Y-52368204D01*
X206229000Y-52390414D01*
X206229000Y-52871200D01*
X206933000Y-52871200D01*
X206933000Y-51867200D01*
X207441000Y-51867200D01*
X207441000Y-52871200D01*
X208145000Y-52871200D01*
X208145000Y-52326614D01*
X208144999Y-52326602D01*
X208138494Y-52266106D01*
X208087444Y-52129235D01*
X208087444Y-52129234D01*
X207999904Y-52012295D01*
X207882965Y-51924755D01*
X207746093Y-51873705D01*
X207685597Y-51867200D01*
X207441000Y-51867200D01*
X206933000Y-51867200D01*
X206707119Y-51867200D01*
X206638998Y-51847198D01*
X206592505Y-51793542D01*
X206582401Y-51723268D01*
X206583902Y-51714866D01*
X206594159Y-51614472D01*
X206594160Y-51614472D01*
X206594160Y-51569620D01*
X205890160Y-51569620D01*
X205382160Y-51569620D01*
X205382160Y-50332620D01*
X205362307Y-50332620D01*
X205261930Y-50342875D01*
X205261918Y-50342877D01*
X205099274Y-50396773D01*
X205099271Y-50396774D01*
X205008596Y-50452703D01*
X204940117Y-50471440D01*
X204872378Y-50450180D01*
X204826887Y-50395673D01*
X204817172Y-50331993D01*
X204820499Y-50301047D01*
X204820500Y-50301032D01*
X204820500Y-48703767D01*
X204820499Y-48703750D01*
X204813990Y-48643203D01*
X204813988Y-48643195D01*
X204774579Y-48537538D01*
X204762889Y-48506196D01*
X204762888Y-48506194D01*
X204762887Y-48506192D01*
X204675261Y-48389138D01*
X204558207Y-48301512D01*
X204558202Y-48301510D01*
X204421204Y-48250411D01*
X204421196Y-48250409D01*
X204360649Y-48243900D01*
X204360638Y-48243900D01*
X203363362Y-48243900D01*
X203363350Y-48243900D01*
X203302803Y-48250409D01*
X203302795Y-48250411D01*
X203165797Y-48301510D01*
X203165792Y-48301512D01*
X203048738Y-48389138D01*
X202961112Y-48506192D01*
X202961110Y-48506197D01*
X202910011Y-48643195D01*
X202910009Y-48643203D01*
X202903500Y-48703750D01*
X202903500Y-50281120D01*
X202883498Y-50349241D01*
X202829842Y-50395734D01*
X202777500Y-50407120D01*
X202726053Y-50407120D01*
X202539247Y-50446827D01*
X202530889Y-50450548D01*
X202460522Y-50459979D01*
X202396226Y-50429870D01*
X202358416Y-50369779D01*
X202354961Y-50348701D01*
X202354361Y-50348766D01*
X202347494Y-50284906D01*
X202296444Y-50148035D01*
X202296444Y-50148034D01*
X202208904Y-50031095D01*
X202091965Y-49943555D01*
X201955093Y-49892505D01*
X201894597Y-49886000D01*
X201650000Y-49886000D01*
X201650000Y-52402000D01*
X201894585Y-52402000D01*
X201894597Y-52401999D01*
X201955093Y-52395494D01*
X202091964Y-52344444D01*
X202091965Y-52344444D01*
X202208903Y-52256904D01*
X202271924Y-52172718D01*
X202328760Y-52130171D01*
X202399575Y-52125105D01*
X202424038Y-52133117D01*
X202539252Y-52184414D01*
X202726053Y-52224120D01*
X202802500Y-52224120D01*
X202870621Y-52244122D01*
X202917114Y-52297778D01*
X202928500Y-52350120D01*
X202928500Y-53923849D01*
X202935009Y-53984396D01*
X202935011Y-53984404D01*
X202986110Y-54121402D01*
X202986112Y-54121407D01*
X202995533Y-54133991D01*
X203020344Y-54200511D01*
X203005253Y-54269885D01*
X202955051Y-54320087D01*
X202894665Y-54335500D01*
X201713594Y-54335500D01*
X201645473Y-54315498D01*
X201624499Y-54298595D01*
X199091405Y-51765500D01*
X199057379Y-51703188D01*
X199054500Y-51676405D01*
X199054500Y-51398000D01*
X200438000Y-51398000D01*
X200438000Y-51942597D01*
X200444505Y-52003093D01*
X200495555Y-52139964D01*
X200495555Y-52139965D01*
X200583095Y-52256904D01*
X200700034Y-52344444D01*
X200836906Y-52395494D01*
X200897402Y-52401999D01*
X200897415Y-52402000D01*
X201142000Y-52402000D01*
X201142000Y-51398000D01*
X200438000Y-51398000D01*
X199054500Y-51398000D01*
X199054500Y-50890000D01*
X200438000Y-50890000D01*
X201142000Y-50890000D01*
X201142000Y-49886000D01*
X200897402Y-49886000D01*
X200836906Y-49892505D01*
X200700035Y-49943555D01*
X200700034Y-49943555D01*
X200583095Y-50031095D01*
X200495555Y-50148034D01*
X200495555Y-50148035D01*
X200444505Y-50284906D01*
X200438000Y-50345402D01*
X200438000Y-50890000D01*
X199054500Y-50890000D01*
X199054500Y-50345367D01*
X199054499Y-50345350D01*
X199047990Y-50284803D01*
X199047988Y-50284795D01*
X199000918Y-50158598D01*
X198996889Y-50147796D01*
X198996888Y-50147794D01*
X198996887Y-50147792D01*
X198909261Y-50030738D01*
X198792207Y-49943112D01*
X198792202Y-49943110D01*
X198655204Y-49892011D01*
X198655196Y-49892009D01*
X198594649Y-49885500D01*
X198594638Y-49885500D01*
X198066133Y-49885500D01*
X197998012Y-49865498D01*
X197951519Y-49811842D01*
X197941126Y-49775294D01*
X197939473Y-49762202D01*
X197922099Y-49718321D01*
X197920180Y-49712715D01*
X197907017Y-49667406D01*
X197896705Y-49649969D01*
X197888009Y-49632220D01*
X197880551Y-49613382D01*
X197852811Y-49575202D01*
X197849563Y-49570257D01*
X197825541Y-49529637D01*
X197811213Y-49515309D01*
X197798383Y-49500288D01*
X197786471Y-49483892D01*
X197786468Y-49483890D01*
X197786468Y-49483889D01*
X197750106Y-49453807D01*
X197745725Y-49449821D01*
X196495180Y-48199275D01*
X196461154Y-48136963D01*
X196466219Y-48066147D01*
X196508766Y-48009312D01*
X196575286Y-47984501D01*
X196584275Y-47984180D01*
X197415467Y-47984180D01*
X197431308Y-47985929D01*
X197431336Y-47985636D01*
X197439221Y-47986380D01*
X197439229Y-47986382D01*
X197500528Y-47984455D01*
X197508296Y-47984211D01*
X197510275Y-47984180D01*
X197539171Y-47984180D01*
X197539176Y-47984180D01*
X197546138Y-47983299D01*
X197552039Y-47982834D01*
X197599209Y-47981353D01*
X197618667Y-47975699D01*
X197638014Y-47971693D01*
X197658117Y-47969154D01*
X197701999Y-47951779D01*
X197707594Y-47949863D01*
X197736490Y-47941469D01*
X197752911Y-47936699D01*
X197752915Y-47936697D01*
X197770346Y-47926388D01*
X197788100Y-47917689D01*
X197806937Y-47910232D01*
X197845106Y-47882498D01*
X197850064Y-47879242D01*
X197890682Y-47855222D01*
X197905005Y-47840898D01*
X197920044Y-47828054D01*
X197936427Y-47816152D01*
X197966508Y-47779788D01*
X197970486Y-47775416D01*
X199225500Y-46520404D01*
X199287813Y-46486379D01*
X199314596Y-46483500D01*
X206090500Y-46483500D01*
X206158621Y-46503502D01*
X206205114Y-46557158D01*
X206216500Y-46609500D01*
X206216499Y-48603071D01*
X206210691Y-48635262D01*
X206211823Y-48635530D01*
X206210010Y-48643202D01*
X206203500Y-48703750D01*
X206203500Y-50232375D01*
X206183498Y-50300496D01*
X206129842Y-50346989D01*
X206059568Y-50357093D01*
X206037867Y-50351980D01*
X206010393Y-50342876D01*
X206010389Y-50342875D01*
X205910012Y-50332620D01*
X205890160Y-50332620D01*
X205890160Y-51061620D01*
X206594160Y-51061620D01*
X206594160Y-51016767D01*
X206583905Y-50916395D01*
X206583238Y-50913280D01*
X206583385Y-50911309D01*
X206583205Y-50909543D01*
X206583520Y-50909510D01*
X206588535Y-50842481D01*
X206631268Y-50785785D01*
X206697869Y-50761192D01*
X206706446Y-50760900D01*
X207660632Y-50760900D01*
X207660638Y-50760900D01*
X207660645Y-50760899D01*
X207660649Y-50760899D01*
X207721196Y-50754390D01*
X207721199Y-50754389D01*
X207721201Y-50754389D01*
X207721837Y-50754152D01*
X207740045Y-50747360D01*
X207858204Y-50703289D01*
X207975261Y-50615661D01*
X208062889Y-50498604D01*
X208113989Y-50361601D01*
X208114574Y-50356167D01*
X208120499Y-50301049D01*
X208120500Y-50301032D01*
X208120500Y-48703767D01*
X208120499Y-48703750D01*
X208113990Y-48643203D01*
X208113988Y-48643195D01*
X208074579Y-48537538D01*
X208062889Y-48506196D01*
X208062888Y-48506194D01*
X208062887Y-48506192D01*
X207975261Y-48389138D01*
X207858207Y-48301512D01*
X207858202Y-48301510D01*
X207721204Y-48250411D01*
X207721196Y-48250409D01*
X207660649Y-48243900D01*
X207660638Y-48243900D01*
X207609500Y-48243900D01*
X207541379Y-48223898D01*
X207494886Y-48170242D01*
X207483500Y-48117900D01*
X207483500Y-45986400D01*
X207503502Y-45918279D01*
X207557158Y-45871786D01*
X207609500Y-45860400D01*
X207660585Y-45860400D01*
X207660597Y-45860399D01*
X207721093Y-45853894D01*
X207857964Y-45802844D01*
X207857965Y-45802844D01*
X207974904Y-45715304D01*
X208062444Y-45598365D01*
X208062444Y-45598364D01*
X208113494Y-45461493D01*
X208119999Y-45400997D01*
X208120000Y-45400985D01*
X208120000Y-44856400D01*
X206204000Y-44856400D01*
X206204000Y-45090500D01*
X206183998Y-45158621D01*
X206130342Y-45205114D01*
X206078000Y-45216500D01*
X204946500Y-45216500D01*
X204878379Y-45196498D01*
X204831886Y-45142842D01*
X204820500Y-45090500D01*
X204820500Y-44348400D01*
X206204000Y-44348400D01*
X206908000Y-44348400D01*
X206908000Y-43344400D01*
X207416000Y-43344400D01*
X207416000Y-44348400D01*
X208120000Y-44348400D01*
X208120000Y-43803814D01*
X208119999Y-43803802D01*
X208113494Y-43743306D01*
X208062444Y-43606435D01*
X208062444Y-43606434D01*
X207974904Y-43489495D01*
X207857965Y-43401955D01*
X207721093Y-43350905D01*
X207660597Y-43344400D01*
X207416000Y-43344400D01*
X206908000Y-43344400D01*
X206663402Y-43344400D01*
X206602906Y-43350905D01*
X206466035Y-43401955D01*
X206466034Y-43401955D01*
X206349095Y-43489495D01*
X206261555Y-43606434D01*
X206261555Y-43606435D01*
X206210505Y-43743306D01*
X206204000Y-43803802D01*
X206204000Y-44348400D01*
X204820500Y-44348400D01*
X204820500Y-43803767D01*
X204820499Y-43803750D01*
X204813990Y-43743203D01*
X204813988Y-43743195D01*
X204762978Y-43606435D01*
X204762889Y-43606196D01*
X204762888Y-43606194D01*
X204762887Y-43606192D01*
X204675261Y-43489138D01*
X204558207Y-43401512D01*
X204558202Y-43401510D01*
X204421204Y-43350411D01*
X204421196Y-43350409D01*
X204360649Y-43343900D01*
X204360638Y-43343900D01*
X203363362Y-43343900D01*
X203363350Y-43343900D01*
X203302803Y-43350409D01*
X203302795Y-43350411D01*
X203165797Y-43401510D01*
X203165792Y-43401512D01*
X203048738Y-43489138D01*
X202961112Y-43606192D01*
X202961110Y-43606197D01*
X202910011Y-43743195D01*
X202910009Y-43743203D01*
X202903500Y-43803750D01*
X202903500Y-43842900D01*
X202883498Y-43911021D01*
X202829842Y-43957514D01*
X202777500Y-43968900D01*
X196117551Y-43968900D01*
X196101709Y-43967150D01*
X196101682Y-43967444D01*
X196093789Y-43966698D01*
X196024722Y-43968869D01*
X196022743Y-43968900D01*
X195993842Y-43968900D01*
X195993838Y-43968900D01*
X195993828Y-43968901D01*
X195986877Y-43969779D01*
X195980965Y-43970244D01*
X195933810Y-43971726D01*
X195933808Y-43971727D01*
X195914353Y-43977378D01*
X195895000Y-43981386D01*
X195874908Y-43983924D01*
X195874900Y-43983926D01*
X195831034Y-44001293D01*
X195825419Y-44003216D01*
X195780105Y-44016382D01*
X195780100Y-44016384D01*
X195762661Y-44026697D01*
X195744916Y-44035390D01*
X195726078Y-44042849D01*
X195703976Y-44058907D01*
X195687910Y-44070580D01*
X195682959Y-44073833D01*
X195642338Y-44097855D01*
X195628005Y-44112187D01*
X195612979Y-44125020D01*
X195596593Y-44136926D01*
X195596592Y-44136926D01*
X195566521Y-44173274D01*
X195562525Y-44177666D01*
X195475317Y-44264873D01*
X195413005Y-44298898D01*
X195342189Y-44293832D01*
X195285353Y-44251285D01*
X195278978Y-44241919D01*
X195276048Y-44237169D01*
X195276045Y-44237165D01*
X195154894Y-44116014D01*
X195154888Y-44116009D01*
X195009044Y-44026052D01*
X194846401Y-43972157D01*
X194846389Y-43972155D01*
X194746012Y-43961900D01*
X194701160Y-43961900D01*
X194701160Y-44935400D01*
X194681158Y-45003521D01*
X194627502Y-45050014D01*
X194575160Y-45061400D01*
X194102041Y-45061400D01*
X194070707Y-45057442D01*
X194069675Y-45057177D01*
X194036655Y-45048699D01*
X194036654Y-45048699D01*
X194016401Y-45048699D01*
X193996691Y-45047148D01*
X193976682Y-45043979D01*
X193976681Y-45043979D01*
X193929708Y-45048419D01*
X193923775Y-45048699D01*
X186767852Y-45048699D01*
X186752010Y-45046949D01*
X186751983Y-45047243D01*
X186744090Y-45046497D01*
X186675023Y-45048668D01*
X186673044Y-45048699D01*
X186644143Y-45048699D01*
X186644139Y-45048699D01*
X186644129Y-45048700D01*
X186637178Y-45049578D01*
X186631266Y-45050043D01*
X186584111Y-45051525D01*
X186584109Y-45051526D01*
X186564654Y-45057177D01*
X186545301Y-45061185D01*
X186525209Y-45063723D01*
X186525201Y-45063725D01*
X186481335Y-45081092D01*
X186475720Y-45083015D01*
X186430406Y-45096181D01*
X186430401Y-45096183D01*
X186412962Y-45106496D01*
X186395217Y-45115189D01*
X186376379Y-45122648D01*
X186366254Y-45130005D01*
X186338211Y-45150379D01*
X186333260Y-45153632D01*
X186292639Y-45177654D01*
X186278306Y-45191986D01*
X186263280Y-45204819D01*
X186246894Y-45216725D01*
X186246893Y-45216725D01*
X186216817Y-45253079D01*
X186212822Y-45257470D01*
X182071337Y-49398954D01*
X182058902Y-49408918D01*
X182059090Y-49409145D01*
X182052980Y-49414199D01*
X182005695Y-49464552D01*
X182004320Y-49465971D01*
X181983864Y-49486428D01*
X181979561Y-49491974D01*
X181975715Y-49496476D01*
X181943418Y-49530871D01*
X181943412Y-49530880D01*
X181933652Y-49548632D01*
X181922804Y-49565147D01*
X181910387Y-49581155D01*
X181891646Y-49624461D01*
X181889035Y-49629791D01*
X181866306Y-49671136D01*
X181866304Y-49671141D01*
X181861268Y-49690756D01*
X181854865Y-49709459D01*
X181846820Y-49728049D01*
X181839438Y-49774653D01*
X181838234Y-49780465D01*
X181826501Y-49826165D01*
X181826501Y-49846420D01*
X181824950Y-49866130D01*
X181821781Y-49886139D01*
X181821781Y-49886140D01*
X181826221Y-49933114D01*
X181826501Y-49939047D01*
X181826501Y-55573900D01*
X181806499Y-55642021D01*
X181752843Y-55688514D01*
X181700501Y-55699900D01*
X181186350Y-55699900D01*
X181125803Y-55706409D01*
X181125795Y-55706411D01*
X180988797Y-55757510D01*
X180988792Y-55757512D01*
X180871738Y-55845138D01*
X180784112Y-55962192D01*
X180784110Y-55962197D01*
X180733011Y-56099195D01*
X180733009Y-56099203D01*
X180726500Y-56159750D01*
X180726500Y-56684807D01*
X180706498Y-56752928D01*
X180652842Y-56799421D01*
X180582568Y-56809525D01*
X180517988Y-56780031D01*
X180511405Y-56773902D01*
X179930406Y-56192903D01*
X179896380Y-56130591D01*
X179893501Y-56103808D01*
X179893501Y-52967255D01*
X179895250Y-52951413D01*
X179894957Y-52951386D01*
X179895703Y-52943493D01*
X179893532Y-52874412D01*
X179893501Y-52872433D01*
X179893501Y-52843551D01*
X179893501Y-52843550D01*
X179893501Y-52843545D01*
X179892621Y-52836583D01*
X179892157Y-52830694D01*
X179890675Y-52783512D01*
X179885021Y-52764053D01*
X179881013Y-52744698D01*
X179878475Y-52724604D01*
X179861104Y-52680730D01*
X179859190Y-52675141D01*
X179846020Y-52629808D01*
X179835704Y-52612365D01*
X179827006Y-52594610D01*
X179819553Y-52575784D01*
X179791819Y-52537611D01*
X179788559Y-52532648D01*
X179764543Y-52492039D01*
X179750215Y-52477711D01*
X179737385Y-52462690D01*
X179725473Y-52446294D01*
X179725470Y-52446292D01*
X179725470Y-52446291D01*
X179689114Y-52416214D01*
X179684722Y-52412218D01*
X179584904Y-52312400D01*
X180727000Y-52312400D01*
X180727000Y-52856997D01*
X180733505Y-52917493D01*
X180784555Y-53054364D01*
X180784555Y-53054365D01*
X180872095Y-53171304D01*
X180989034Y-53258844D01*
X181125906Y-53309894D01*
X181186402Y-53316399D01*
X181186415Y-53316400D01*
X181431000Y-53316400D01*
X181431000Y-52312400D01*
X180727000Y-52312400D01*
X179584904Y-52312400D01*
X179380404Y-52107899D01*
X179346379Y-52045587D01*
X179343500Y-52018804D01*
X179343500Y-51804400D01*
X180727000Y-51804400D01*
X181431000Y-51804400D01*
X181431000Y-50800400D01*
X181186402Y-50800400D01*
X181125906Y-50806905D01*
X180989035Y-50857955D01*
X180989034Y-50857955D01*
X180872095Y-50945495D01*
X180784555Y-51062434D01*
X180784555Y-51062435D01*
X180733505Y-51199306D01*
X180727000Y-51259802D01*
X180727000Y-51804400D01*
X179343500Y-51804400D01*
X179343500Y-51259767D01*
X179343499Y-51259750D01*
X179336990Y-51199203D01*
X179336988Y-51199195D01*
X179285978Y-51062435D01*
X179285889Y-51062196D01*
X179285888Y-51062194D01*
X179285887Y-51062192D01*
X179198261Y-50945138D01*
X179081207Y-50857512D01*
X179081202Y-50857510D01*
X178944204Y-50806411D01*
X178944196Y-50806409D01*
X178883649Y-50799900D01*
X178883638Y-50799900D01*
X178613118Y-50799900D01*
X178544997Y-50779898D01*
X178498504Y-50726242D01*
X178488400Y-50655968D01*
X178517894Y-50591388D01*
X178572206Y-50554727D01*
X178720583Y-50503789D01*
X178720585Y-50503787D01*
X178925798Y-50392732D01*
X178954377Y-50370488D01*
X178236375Y-49652485D01*
X178287198Y-49644825D01*
X178409417Y-49585967D01*
X178508858Y-49493700D01*
X178576685Y-49376220D01*
X178595610Y-49293299D01*
X179312263Y-50009951D01*
X179395604Y-49882387D01*
X179489333Y-49668707D01*
X179489335Y-49668703D01*
X179546615Y-49442509D01*
X179565885Y-49209960D01*
X179546615Y-48977410D01*
X179489335Y-48751216D01*
X179489333Y-48751212D01*
X179395607Y-48537538D01*
X179395600Y-48537526D01*
X179312262Y-48409967D01*
X178597904Y-49124324D01*
X178596733Y-49108695D01*
X178547173Y-48982419D01*
X178462595Y-48876361D01*
X178350513Y-48799944D01*
X178238435Y-48765373D01*
X178954378Y-48049430D01*
X178925803Y-48027189D01*
X178925801Y-48027188D01*
X178720585Y-47916132D01*
X178720582Y-47916130D01*
X178499892Y-47840367D01*
X178499883Y-47840365D01*
X178269726Y-47801960D01*
X178036394Y-47801960D01*
X177806236Y-47840365D01*
X177806227Y-47840367D01*
X177585537Y-47916130D01*
X177585534Y-47916132D01*
X177380319Y-48027187D01*
X177351741Y-48049430D01*
X177351740Y-48049430D01*
X178069744Y-48767434D01*
X178018922Y-48775095D01*
X177896703Y-48833953D01*
X177797262Y-48926220D01*
X177729435Y-49043700D01*
X177710509Y-49126618D01*
X177058465Y-48474574D01*
X177024439Y-48412262D01*
X177021560Y-48385479D01*
X177021560Y-48261327D01*
X177021559Y-48261310D01*
X177015050Y-48200763D01*
X177015048Y-48200755D01*
X176980352Y-48107733D01*
X176963949Y-48063756D01*
X176963948Y-48063754D01*
X176963947Y-48063752D01*
X176876321Y-47946698D01*
X176759267Y-47859072D01*
X176759263Y-47859070D01*
X176633541Y-47812178D01*
X176576705Y-47769632D01*
X176551895Y-47703111D01*
X176560939Y-47652205D01*
X176559480Y-47651751D01*
X176585460Y-47568372D01*
X176612933Y-47480209D01*
X176619420Y-47408825D01*
X176619419Y-46894296D01*
X176612933Y-46822911D01*
X176573754Y-46697178D01*
X176561749Y-46658653D01*
X176561747Y-46658648D01*
X176561747Y-46658647D01*
X176472736Y-46511405D01*
X176472735Y-46511404D01*
X176472731Y-46511399D01*
X176436487Y-46475155D01*
X176402461Y-46412843D01*
X176407526Y-46342028D01*
X176450073Y-46285192D01*
X176516593Y-46260381D01*
X176525582Y-46260060D01*
X176635113Y-46260060D01*
X176703234Y-46280062D01*
X176709171Y-46284122D01*
X176720948Y-46292678D01*
X176895412Y-46370354D01*
X177082213Y-46410060D01*
X177273187Y-46410060D01*
X177459988Y-46370354D01*
X177634452Y-46292678D01*
X177788953Y-46180426D01*
X177916740Y-46038504D01*
X178012227Y-45873116D01*
X178071242Y-45691488D01*
X178091204Y-45501560D01*
X178071242Y-45311632D01*
X178012227Y-45130004D01*
X177916740Y-44964616D01*
X177916738Y-44964614D01*
X177916734Y-44964608D01*
X177788955Y-44822695D01*
X177634452Y-44710442D01*
X177459988Y-44632766D01*
X177273187Y-44593060D01*
X177082213Y-44593060D01*
X176895411Y-44632766D01*
X176720945Y-44710443D01*
X176709176Y-44718995D01*
X176642309Y-44742854D01*
X176635113Y-44743060D01*
X176391685Y-44743060D01*
X176326500Y-44724888D01*
X176302605Y-44710443D01*
X176203833Y-44650733D01*
X176203832Y-44650732D01*
X176203831Y-44650732D01*
X176203826Y-44650730D01*
X176039566Y-44599546D01*
X175987642Y-44594828D01*
X175968185Y-44593060D01*
X175968182Y-44593060D01*
X175303658Y-44593060D01*
X175232273Y-44599546D01*
X175232272Y-44599546D01*
X175068013Y-44650730D01*
X175068008Y-44650732D01*
X174920764Y-44739744D01*
X174920759Y-44739748D01*
X174799108Y-44861399D01*
X174799104Y-44861404D01*
X174710092Y-45008648D01*
X174710090Y-45008653D01*
X174658906Y-45172913D01*
X174655289Y-45212725D01*
X174652564Y-45242717D01*
X174652420Y-45244297D01*
X174652420Y-45758821D01*
X174658906Y-45830206D01*
X174658906Y-45830207D01*
X174710090Y-45994466D01*
X174710092Y-45994471D01*
X174799104Y-46141715D01*
X174799108Y-46141720D01*
X174894853Y-46237465D01*
X174928879Y-46299777D01*
X174923814Y-46370592D01*
X174894853Y-46415655D01*
X174799108Y-46511399D01*
X174799104Y-46511404D01*
X174710092Y-46658648D01*
X174710090Y-46658653D01*
X174658906Y-46822913D01*
X174652420Y-46894297D01*
X174652420Y-47408821D01*
X174658906Y-47480206D01*
X174658906Y-47480207D01*
X174710333Y-47645246D01*
X174711502Y-47716233D01*
X174674107Y-47776583D01*
X174610021Y-47807135D01*
X174603953Y-47807948D01*
X174603855Y-47807971D01*
X174466857Y-47859070D01*
X174466852Y-47859072D01*
X174349798Y-47946698D01*
X174262172Y-48063752D01*
X174262170Y-48063757D01*
X174211071Y-48200755D01*
X174211069Y-48200763D01*
X174204560Y-48261310D01*
X174204560Y-50158609D01*
X172288079Y-50158609D01*
X172353511Y-49966812D01*
X172353514Y-49966799D01*
X172393633Y-49749600D01*
X170908363Y-49749600D01*
X170910438Y-49745646D01*
X170951120Y-49580595D01*
X170951120Y-49410605D01*
X170910438Y-49245554D01*
X170908363Y-49241600D01*
X172392385Y-49241600D01*
X172392385Y-49241599D01*
X172383100Y-49157211D01*
X172314308Y-48894080D01*
X172207940Y-48643776D01*
X172066254Y-48411616D01*
X171892274Y-48202556D01*
X171689728Y-48021075D01*
X171689715Y-48021064D01*
X171462886Y-47870996D01*
X171462884Y-47870995D01*
X171216629Y-47755556D01*
X170956182Y-47677199D01*
X170956177Y-47677198D01*
X170687111Y-47637600D01*
X170505120Y-47637600D01*
X170505120Y-48843279D01*
X170419871Y-48810949D01*
X170293460Y-48795600D01*
X170208780Y-48795600D01*
X170082369Y-48810949D01*
X169997120Y-48843279D01*
X169997120Y-47637600D01*
X169883215Y-47637600D01*
X169679865Y-47652483D01*
X169414406Y-47711617D01*
X169414394Y-47711621D01*
X169160369Y-47808777D01*
X168923199Y-47941883D01*
X168923186Y-47941891D01*
X168707926Y-48108110D01*
X168707920Y-48108115D01*
X168519155Y-48303905D01*
X168360898Y-48525109D01*
X168360897Y-48525110D01*
X168236542Y-48766983D01*
X168236541Y-48766985D01*
X168148728Y-49024387D01*
X168148725Y-49024400D01*
X168108607Y-49241600D01*
X166892888Y-49241600D01*
X166883593Y-49157125D01*
X166814783Y-48893922D01*
X166807320Y-48876361D01*
X166757855Y-48759960D01*
X166708383Y-48643542D01*
X166708174Y-48643199D01*
X166680707Y-48598192D01*
X166662293Y-48529625D01*
X166683873Y-48461987D01*
X166699159Y-48443463D01*
X171962219Y-43180405D01*
X172024532Y-43146379D01*
X172051315Y-43143500D01*
X178961646Y-43143500D01*
X179029767Y-43163502D01*
X179064859Y-43197230D01*
X179152244Y-43322029D01*
X179152248Y-43322034D01*
X179152251Y-43322038D01*
X179307962Y-43477749D01*
X179488346Y-43604056D01*
X179687924Y-43697120D01*
X179900629Y-43754115D01*
X180120000Y-43773307D01*
X180339371Y-43754115D01*
X180552076Y-43697120D01*
X180751654Y-43604056D01*
X180884265Y-43511200D01*
X186436000Y-43511200D01*
X186436000Y-43755797D01*
X186442505Y-43816293D01*
X186493555Y-43953164D01*
X186493555Y-43953165D01*
X186581095Y-44070104D01*
X186698034Y-44157644D01*
X186834906Y-44208694D01*
X186895402Y-44215199D01*
X186895415Y-44215200D01*
X187440000Y-44215200D01*
X187440000Y-43511200D01*
X187948000Y-43511200D01*
X187948000Y-44215200D01*
X188492585Y-44215200D01*
X188492597Y-44215199D01*
X188553093Y-44208694D01*
X188689964Y-44157644D01*
X188689965Y-44157644D01*
X188806904Y-44070104D01*
X188894444Y-43953165D01*
X188894444Y-43953164D01*
X188945494Y-43816293D01*
X188951999Y-43755797D01*
X188952000Y-43755785D01*
X188952000Y-43511200D01*
X187948000Y-43511200D01*
X187440000Y-43511200D01*
X186436000Y-43511200D01*
X180884265Y-43511200D01*
X180932038Y-43477749D01*
X181087749Y-43322038D01*
X181214056Y-43141654D01*
X181307120Y-42942076D01*
X181364115Y-42729371D01*
X181383307Y-42510000D01*
X181383306Y-42509996D01*
X181383436Y-42508519D01*
X181409299Y-42442400D01*
X181466803Y-42400761D01*
X181508957Y-42393500D01*
X186374643Y-42393500D01*
X186442764Y-42413502D01*
X186489257Y-42467158D01*
X186499361Y-42537432D01*
X186492699Y-42563533D01*
X186442505Y-42698107D01*
X186436000Y-42758602D01*
X186436000Y-43003200D01*
X188952000Y-43003200D01*
X188952000Y-42758614D01*
X188951999Y-42758602D01*
X188945494Y-42698107D01*
X188895301Y-42563533D01*
X188890236Y-42492717D01*
X188924262Y-42430405D01*
X188986574Y-42396379D01*
X189013357Y-42393500D01*
X190732205Y-42393500D01*
X190800326Y-42413502D01*
X190821300Y-42430404D01*
X191298595Y-42907698D01*
X191332620Y-42970011D01*
X191335500Y-42996794D01*
X191335500Y-43755849D01*
X191342009Y-43816396D01*
X191342011Y-43816404D01*
X191393110Y-43953402D01*
X191393112Y-43953407D01*
X191480738Y-44070461D01*
X191597792Y-44158087D01*
X191597794Y-44158088D01*
X191597796Y-44158089D01*
X191656875Y-44180124D01*
X191734795Y-44209188D01*
X191734803Y-44209190D01*
X191795350Y-44215699D01*
X191795355Y-44215699D01*
X191795362Y-44215700D01*
X191795368Y-44215700D01*
X193392632Y-44215700D01*
X193392638Y-44215700D01*
X193396153Y-44215322D01*
X193466023Y-44227923D01*
X193517988Y-44276298D01*
X193535550Y-44345088D01*
X193529235Y-44380231D01*
X193474416Y-44545664D01*
X193474415Y-44545670D01*
X193464160Y-44646047D01*
X193464160Y-44665900D01*
X194193160Y-44665900D01*
X194193160Y-43961900D01*
X194148307Y-43961900D01*
X194047930Y-43972155D01*
X194047927Y-43972156D01*
X194000792Y-43987775D01*
X193929837Y-43990215D01*
X193868827Y-43953907D01*
X193837132Y-43890378D01*
X193843104Y-43824136D01*
X193843202Y-43823871D01*
X193845989Y-43816401D01*
X193847343Y-43803814D01*
X193852499Y-43755849D01*
X193852500Y-43755832D01*
X193852500Y-42758567D01*
X193852499Y-42758550D01*
X193845990Y-42698003D01*
X193845988Y-42697995D01*
X193794889Y-42560997D01*
X193794887Y-42560992D01*
X193707261Y-42443938D01*
X193590207Y-42356312D01*
X193590202Y-42356310D01*
X193453204Y-42305211D01*
X193453196Y-42305209D01*
X193392649Y-42298700D01*
X193392638Y-42298700D01*
X192533595Y-42298700D01*
X192465474Y-42278698D01*
X192444500Y-42261795D01*
X191554044Y-41371339D01*
X191544079Y-41358901D01*
X191543852Y-41359090D01*
X191538801Y-41352984D01*
X191538800Y-41352982D01*
X191488426Y-41305678D01*
X191487037Y-41304332D01*
X191474615Y-41291910D01*
X191466576Y-41283870D01*
X191466572Y-41283866D01*
X191461025Y-41279563D01*
X191456517Y-41275712D01*
X191422125Y-41243417D01*
X191422119Y-41243413D01*
X191404363Y-41233651D01*
X191387847Y-41222802D01*
X191371841Y-41210386D01*
X191371840Y-41210385D01*
X191371838Y-41210384D01*
X191365016Y-41206350D01*
X191365941Y-41204785D01*
X191319001Y-41165725D01*
X191297642Y-41098018D01*
X191316279Y-41029511D01*
X191368995Y-40981955D01*
X191423617Y-40969500D01*
X209246900Y-40969500D01*
X209315021Y-40989502D01*
X209361514Y-41043158D01*
X209372900Y-41095500D01*
X209372900Y-98807700D01*
X209352898Y-98875821D01*
X209299242Y-98922314D01*
X209246900Y-98933700D01*
X188215392Y-98933700D01*
X188215389Y-98933699D01*
X188163200Y-98933699D01*
X187771637Y-98933699D01*
X187771629Y-98933699D01*
X186989450Y-98972126D01*
X186989436Y-98972127D01*
X186210119Y-99048882D01*
X186210101Y-99048884D01*
X185435451Y-99163793D01*
X185435431Y-99163797D01*
X184667371Y-99316574D01*
X184667354Y-99316578D01*
X184038362Y-99474133D01*
X183907717Y-99506858D01*
X183738498Y-99558190D01*
X183158310Y-99734187D01*
X182420962Y-99998014D01*
X181697453Y-100297702D01*
X180989503Y-100632538D01*
X180989501Y-100632539D01*
X180298872Y-101001688D01*
X180298841Y-101001706D01*
X179627150Y-101404302D01*
X178976032Y-101839364D01*
X178975986Y-101839396D01*
X178347000Y-102305884D01*
X177741637Y-102802693D01*
X177741607Y-102802719D01*
X177161377Y-103328609D01*
X177161335Y-103328649D01*
X176607650Y-103882334D01*
X176607610Y-103882376D01*
X176081720Y-104462606D01*
X176081694Y-104462636D01*
X175584885Y-105067999D01*
X175118396Y-105696986D01*
X175118364Y-105697032D01*
X174683302Y-106348149D01*
X174280706Y-107019840D01*
X174280688Y-107019871D01*
X173911530Y-107710517D01*
X173576703Y-108418451D01*
X173277015Y-109141961D01*
X173013182Y-109879327D01*
X172867309Y-110360207D01*
X172785858Y-110628716D01*
X172785854Y-110628728D01*
X172785855Y-110628728D01*
X172595578Y-111388353D01*
X172595574Y-111388370D01*
X172442797Y-112156430D01*
X172442793Y-112156450D01*
X172327884Y-112931100D01*
X172327882Y-112931118D01*
X172251127Y-113710435D01*
X172251126Y-113710449D01*
X172231549Y-114108954D01*
X172212699Y-114492636D01*
X172212699Y-114884199D01*
X172206420Y-118947188D01*
X172187611Y-131116695D01*
X172167504Y-131184784D01*
X172113776Y-131231194D01*
X172061611Y-131242500D01*
X158849901Y-131242500D01*
X158781780Y-131222498D01*
X158735287Y-131168842D01*
X158723901Y-131116500D01*
X158723901Y-123447568D01*
X162310739Y-123447568D01*
X162330391Y-123772461D01*
X162330392Y-123772464D01*
X162389062Y-124092620D01*
X162485899Y-124403382D01*
X162619477Y-124700179D01*
X162619480Y-124700185D01*
X162787870Y-124978738D01*
X162988609Y-125234961D01*
X162988614Y-125234967D01*
X163218756Y-125465109D01*
X163218762Y-125465114D01*
X163218764Y-125465116D01*
X163474985Y-125665853D01*
X163753534Y-125834241D01*
X163753536Y-125834242D01*
X163753538Y-125834243D01*
X163753544Y-125834246D01*
X164050341Y-125967824D01*
X164050345Y-125967825D01*
X164050349Y-125967827D01*
X164361101Y-126064661D01*
X164681260Y-126123332D01*
X164843656Y-126133155D01*
X164924853Y-126138067D01*
X164924854Y-126138067D01*
X165087461Y-126138067D01*
X165148358Y-126134383D01*
X165331054Y-126123332D01*
X165651213Y-126064661D01*
X165961965Y-125967827D01*
X166258780Y-125834241D01*
X166537329Y-125665853D01*
X166793550Y-125465116D01*
X167023706Y-125234960D01*
X167224443Y-124978739D01*
X167392831Y-124700190D01*
X167526417Y-124403375D01*
X167623251Y-124092623D01*
X167681922Y-123772464D01*
X167701575Y-123447567D01*
X167681922Y-123122670D01*
X167623251Y-122802511D01*
X167526417Y-122491759D01*
X167526415Y-122491755D01*
X167526414Y-122491751D01*
X167392836Y-122194954D01*
X167392833Y-122194948D01*
X167224443Y-121916395D01*
X167023704Y-121660172D01*
X167023699Y-121660166D01*
X166793557Y-121430024D01*
X166793551Y-121430019D01*
X166537328Y-121229280D01*
X166258775Y-121060890D01*
X166258769Y-121060887D01*
X165961972Y-120927309D01*
X165651210Y-120830472D01*
X165331054Y-120771802D01*
X165331051Y-120771801D01*
X165087461Y-120757067D01*
X165087460Y-120757067D01*
X164924854Y-120757067D01*
X164924853Y-120757067D01*
X164681262Y-120771801D01*
X164681259Y-120771802D01*
X164361103Y-120830472D01*
X164050341Y-120927309D01*
X163753544Y-121060887D01*
X163753538Y-121060890D01*
X163474985Y-121229280D01*
X163218762Y-121430019D01*
X163218756Y-121430024D01*
X162988614Y-121660166D01*
X162988609Y-121660172D01*
X162787870Y-121916395D01*
X162619480Y-122194948D01*
X162619477Y-122194954D01*
X162485899Y-122491751D01*
X162389062Y-122802513D01*
X162330392Y-123122669D01*
X162330391Y-123122672D01*
X162310739Y-123447565D01*
X162310739Y-123447568D01*
X158723901Y-123447568D01*
X158723901Y-118442740D01*
X166310560Y-118442740D01*
X166310560Y-118487592D01*
X166320815Y-118587969D01*
X166320817Y-118587981D01*
X166374712Y-118750624D01*
X166464669Y-118896468D01*
X166464674Y-118896474D01*
X166585825Y-119017625D01*
X166585831Y-119017630D01*
X166731675Y-119107587D01*
X166894318Y-119161482D01*
X166894330Y-119161484D01*
X166994707Y-119171739D01*
X166994707Y-119171740D01*
X167014560Y-119171740D01*
X167014560Y-118442740D01*
X166310560Y-118442740D01*
X158723901Y-118442740D01*
X158723901Y-117934740D01*
X166310560Y-117934740D01*
X167014560Y-117934740D01*
X167014560Y-117205740D01*
X166994707Y-117205740D01*
X166894330Y-117215995D01*
X166894318Y-117215997D01*
X166731675Y-117269892D01*
X166585831Y-117359849D01*
X166585825Y-117359854D01*
X166464674Y-117481005D01*
X166464669Y-117481011D01*
X166374712Y-117626855D01*
X166320817Y-117789498D01*
X166320815Y-117789510D01*
X166310560Y-117889887D01*
X166310560Y-117934740D01*
X158723901Y-117934740D01*
X158723901Y-80540000D01*
X159166693Y-80540000D01*
X159185885Y-80759371D01*
X159242880Y-80972076D01*
X159335944Y-81171654D01*
X159462251Y-81352038D01*
X159617962Y-81507749D01*
X159617965Y-81507751D01*
X159617970Y-81507755D01*
X159742770Y-81595141D01*
X159787099Y-81650598D01*
X159796500Y-81698354D01*
X159796499Y-112643146D01*
X159794751Y-112658988D01*
X159795044Y-112659016D01*
X159794298Y-112666908D01*
X159796469Y-112735974D01*
X159796500Y-112737953D01*
X159796500Y-112766851D01*
X159796501Y-112766872D01*
X159797378Y-112773820D01*
X159797844Y-112779732D01*
X159799326Y-112826888D01*
X159799327Y-112826893D01*
X159804977Y-112846339D01*
X159808986Y-112865697D01*
X159811525Y-112885793D01*
X159811526Y-112885799D01*
X159828893Y-112929662D01*
X159830816Y-112935279D01*
X159843982Y-112980593D01*
X159854294Y-112998031D01*
X159862988Y-113015779D01*
X159870444Y-113034609D01*
X159870450Y-113034620D01*
X159898177Y-113072783D01*
X159901437Y-113077746D01*
X159925460Y-113118365D01*
X159939779Y-113132684D01*
X159952617Y-113147714D01*
X159962156Y-113160843D01*
X159964528Y-113164107D01*
X159992794Y-113187491D01*
X160000886Y-113194185D01*
X160005267Y-113198171D01*
X161299724Y-114492628D01*
X162585595Y-115778499D01*
X162619621Y-115840811D01*
X162622500Y-115867594D01*
X162622500Y-116676649D01*
X162629009Y-116737196D01*
X162629011Y-116737204D01*
X162680110Y-116874202D01*
X162680112Y-116874207D01*
X162767738Y-116991261D01*
X162884792Y-117078887D01*
X162884794Y-117078888D01*
X162884796Y-117078889D01*
X162943875Y-117100924D01*
X163021795Y-117129988D01*
X163021803Y-117129990D01*
X163082350Y-117136499D01*
X163082355Y-117136499D01*
X163082362Y-117136500D01*
X163082368Y-117136500D01*
X164679632Y-117136500D01*
X164679638Y-117136500D01*
X164679645Y-117136499D01*
X164679649Y-117136499D01*
X164740196Y-117129990D01*
X164740199Y-117129989D01*
X164740201Y-117129989D01*
X164877204Y-117078889D01*
X164907408Y-117056279D01*
X164994261Y-116991261D01*
X165081887Y-116874207D01*
X165081887Y-116874206D01*
X165081889Y-116874204D01*
X165132989Y-116737201D01*
X165139499Y-116676649D01*
X167522500Y-116676649D01*
X167529009Y-116737196D01*
X167529011Y-116737204D01*
X167580110Y-116874202D01*
X167580112Y-116874207D01*
X167667740Y-116991263D01*
X167670444Y-116993967D01*
X167672276Y-116997322D01*
X167673139Y-116998475D01*
X167672973Y-116998599D01*
X167704470Y-117056279D01*
X167699405Y-117127094D01*
X167656858Y-117183930D01*
X167590338Y-117208741D01*
X167568545Y-117208410D01*
X167542406Y-117205740D01*
X167522560Y-117205740D01*
X167522560Y-119171740D01*
X167542413Y-119171740D01*
X167542412Y-119171739D01*
X167642789Y-119161484D01*
X167642801Y-119161482D01*
X167805444Y-119107587D01*
X167951287Y-119017630D01*
X167954106Y-119014812D01*
X167956521Y-119013493D01*
X167957046Y-119013078D01*
X167957116Y-119013167D01*
X168016416Y-118980783D01*
X168087232Y-118985844D01*
X168132305Y-119014810D01*
X168135520Y-119018025D01*
X168135522Y-119018026D01*
X168173355Y-119041362D01*
X168212478Y-119079363D01*
X168233565Y-119111423D01*
X168233865Y-119111779D01*
X168234647Y-119112710D01*
X168298493Y-119172677D01*
X168363838Y-119234326D01*
X168366547Y-119236593D01*
X168826266Y-119668375D01*
X168859838Y-119721280D01*
X168903513Y-119855696D01*
X168903516Y-119855701D01*
X168998998Y-120021081D01*
X168999005Y-120021091D01*
X169126784Y-120163004D01*
X169126787Y-120163006D01*
X169281288Y-120275258D01*
X169455752Y-120352934D01*
X169642553Y-120392640D01*
X169833527Y-120392640D01*
X170020328Y-120352934D01*
X170194792Y-120275258D01*
X170349293Y-120163006D01*
X170477080Y-120021084D01*
X170572567Y-119855696D01*
X170631582Y-119674068D01*
X170651544Y-119484140D01*
X170631582Y-119294212D01*
X170572567Y-119112584D01*
X170477080Y-118947196D01*
X170477078Y-118947194D01*
X170477074Y-118947188D01*
X170349295Y-118805275D01*
X170194792Y-118693022D01*
X170020324Y-118615344D01*
X169926308Y-118595360D01*
X169866244Y-118563956D01*
X169816798Y-118517514D01*
X169780839Y-118456297D01*
X169777060Y-118425672D01*
X169777060Y-117889859D01*
X169766807Y-117789510D01*
X169766796Y-117789404D01*
X169712862Y-117626639D01*
X169622845Y-117480700D01*
X169622844Y-117480699D01*
X169622839Y-117480693D01*
X169576405Y-117434259D01*
X169542379Y-117371947D01*
X169539500Y-117345164D01*
X169539500Y-117253481D01*
X169559502Y-117185360D01*
X169613158Y-117138867D01*
X169636522Y-117130859D01*
X169640199Y-117129989D01*
X169640201Y-117129989D01*
X169777204Y-117078889D01*
X169807408Y-117056279D01*
X169894261Y-116991261D01*
X169981887Y-116874207D01*
X169981887Y-116874206D01*
X169981889Y-116874204D01*
X170032989Y-116737201D01*
X170039500Y-116676638D01*
X170039500Y-115679362D01*
X170039499Y-115679350D01*
X170032990Y-115618803D01*
X170032988Y-115618795D01*
X169981889Y-115481797D01*
X169981887Y-115481792D01*
X169894261Y-115364738D01*
X169777207Y-115277112D01*
X169777202Y-115277110D01*
X169640204Y-115226011D01*
X169640196Y-115226009D01*
X169579649Y-115219500D01*
X169579638Y-115219500D01*
X167982362Y-115219500D01*
X167982350Y-115219500D01*
X167921803Y-115226009D01*
X167921795Y-115226011D01*
X167784797Y-115277110D01*
X167784792Y-115277112D01*
X167667738Y-115364738D01*
X167580112Y-115481792D01*
X167580110Y-115481797D01*
X167529011Y-115618795D01*
X167529009Y-115618803D01*
X167522500Y-115679350D01*
X167522500Y-116676649D01*
X165139499Y-116676649D01*
X165139500Y-116676638D01*
X165139500Y-115679362D01*
X165139499Y-115679350D01*
X165132990Y-115618803D01*
X165132988Y-115618795D01*
X165081889Y-115481797D01*
X165081887Y-115481792D01*
X164994261Y-115364738D01*
X164877207Y-115277112D01*
X164877202Y-115277110D01*
X164740204Y-115226011D01*
X164740196Y-115226009D01*
X164679649Y-115219500D01*
X164679638Y-115219500D01*
X163870594Y-115219500D01*
X163802473Y-115199498D01*
X163781499Y-115182595D01*
X161730905Y-113132000D01*
X162623000Y-113132000D01*
X162623000Y-113376597D01*
X162629505Y-113437093D01*
X162680555Y-113573964D01*
X162680555Y-113573965D01*
X162768095Y-113690904D01*
X162885034Y-113778444D01*
X163021906Y-113829494D01*
X163082402Y-113835999D01*
X163082415Y-113836000D01*
X163627000Y-113836000D01*
X163627000Y-113132000D01*
X164135000Y-113132000D01*
X164135000Y-113836000D01*
X164679585Y-113836000D01*
X164679597Y-113835999D01*
X164740093Y-113829494D01*
X164876964Y-113778444D01*
X164876965Y-113778444D01*
X164993904Y-113690904D01*
X165081444Y-113573965D01*
X165081444Y-113573964D01*
X165132494Y-113437093D01*
X165138999Y-113376597D01*
X165139000Y-113376585D01*
X165139000Y-113132000D01*
X164135000Y-113132000D01*
X163627000Y-113132000D01*
X162623000Y-113132000D01*
X161730905Y-113132000D01*
X161222905Y-112624000D01*
X162623000Y-112624000D01*
X163627000Y-112624000D01*
X163627000Y-111920000D01*
X164135000Y-111920000D01*
X164135000Y-112624000D01*
X165139000Y-112624000D01*
X165139000Y-112379414D01*
X165138999Y-112379402D01*
X165132494Y-112318906D01*
X165081444Y-112182035D01*
X165081444Y-112182034D01*
X164993904Y-112065095D01*
X164876965Y-111977555D01*
X164740093Y-111926505D01*
X164679597Y-111920000D01*
X164135000Y-111920000D01*
X163627000Y-111920000D01*
X163082402Y-111920000D01*
X163021906Y-111926505D01*
X162885035Y-111977555D01*
X162885034Y-111977555D01*
X162768095Y-112065095D01*
X162680555Y-112182034D01*
X162680555Y-112182035D01*
X162629505Y-112318906D01*
X162623000Y-112379402D01*
X162623000Y-112624000D01*
X161222905Y-112624000D01*
X161100405Y-112501500D01*
X161066379Y-112439188D01*
X161063500Y-112412405D01*
X161063500Y-109971649D01*
X164123500Y-109971649D01*
X164130009Y-110032196D01*
X164130011Y-110032204D01*
X164181110Y-110169202D01*
X164181112Y-110169207D01*
X164268738Y-110286261D01*
X164385792Y-110373887D01*
X164385794Y-110373888D01*
X164385796Y-110373889D01*
X164444875Y-110395924D01*
X164522795Y-110424988D01*
X164522803Y-110424990D01*
X164583350Y-110431499D01*
X164583355Y-110431499D01*
X164583362Y-110431500D01*
X165442406Y-110431500D01*
X165510527Y-110451502D01*
X165531501Y-110468405D01*
X167485595Y-112422499D01*
X167519621Y-112484811D01*
X167522500Y-112511594D01*
X167522500Y-113376649D01*
X167529009Y-113437196D01*
X167529011Y-113437204D01*
X167580110Y-113574202D01*
X167580112Y-113574207D01*
X167667738Y-113691261D01*
X167784792Y-113778887D01*
X167784794Y-113778888D01*
X167784796Y-113778889D01*
X167843875Y-113800924D01*
X167921795Y-113829988D01*
X167921803Y-113829990D01*
X167982350Y-113836499D01*
X167982355Y-113836499D01*
X167982362Y-113836500D01*
X167982368Y-113836500D01*
X169579632Y-113836500D01*
X169579638Y-113836500D01*
X169579645Y-113836499D01*
X169579649Y-113836499D01*
X169640196Y-113829990D01*
X169640199Y-113829989D01*
X169640201Y-113829989D01*
X169777204Y-113778889D01*
X169777799Y-113778444D01*
X169894261Y-113691261D01*
X169981887Y-113574207D01*
X169981887Y-113574206D01*
X169981889Y-113574204D01*
X170032989Y-113437201D01*
X170039500Y-113376638D01*
X170039500Y-112379362D01*
X170033001Y-112318906D01*
X170032990Y-112318803D01*
X170032988Y-112318795D01*
X169981978Y-112182035D01*
X169981889Y-112181796D01*
X169981888Y-112181794D01*
X169981887Y-112181792D01*
X169894261Y-112064738D01*
X169777207Y-111977112D01*
X169777202Y-111977110D01*
X169640204Y-111926011D01*
X169640196Y-111926009D01*
X169579649Y-111919500D01*
X169579638Y-111919500D01*
X168826594Y-111919500D01*
X168758473Y-111899498D01*
X168737499Y-111882595D01*
X166677405Y-109822500D01*
X166643379Y-109760188D01*
X166640500Y-109733405D01*
X166640500Y-108974367D01*
X166640499Y-108974350D01*
X166633990Y-108913803D01*
X166633988Y-108913795D01*
X166582889Y-108776797D01*
X166582887Y-108776792D01*
X166495261Y-108659738D01*
X166378207Y-108572112D01*
X166378202Y-108572110D01*
X166241204Y-108521011D01*
X166241196Y-108521009D01*
X166180649Y-108514500D01*
X166180638Y-108514500D01*
X164583362Y-108514500D01*
X164583350Y-108514500D01*
X164522803Y-108521009D01*
X164522795Y-108521011D01*
X164385797Y-108572110D01*
X164385792Y-108572112D01*
X164268738Y-108659738D01*
X164181112Y-108776792D01*
X164181110Y-108776797D01*
X164130011Y-108913795D01*
X164130009Y-108913803D01*
X164123500Y-108974350D01*
X164123500Y-109971649D01*
X161063500Y-109971649D01*
X161063500Y-106427000D01*
X164124000Y-106427000D01*
X164124000Y-106671597D01*
X164130505Y-106732093D01*
X164181555Y-106868964D01*
X164181555Y-106868965D01*
X164269095Y-106985904D01*
X164386034Y-107073444D01*
X164522906Y-107124494D01*
X164583402Y-107130999D01*
X164583415Y-107131000D01*
X165128000Y-107131000D01*
X165128000Y-106427000D01*
X165636000Y-106427000D01*
X165636000Y-107131000D01*
X166180585Y-107131000D01*
X166180597Y-107130999D01*
X166241093Y-107124494D01*
X166377964Y-107073444D01*
X166377965Y-107073444D01*
X166494904Y-106985904D01*
X166582444Y-106868965D01*
X166582444Y-106868964D01*
X166633494Y-106732093D01*
X166639999Y-106671597D01*
X166640000Y-106671585D01*
X166640000Y-106427000D01*
X165636000Y-106427000D01*
X165128000Y-106427000D01*
X164124000Y-106427000D01*
X161063500Y-106427000D01*
X161063500Y-105919000D01*
X164124000Y-105919000D01*
X165128000Y-105919000D01*
X165128000Y-105215000D01*
X165636000Y-105215000D01*
X165636000Y-105919000D01*
X166640000Y-105919000D01*
X166640000Y-105674414D01*
X166639999Y-105674402D01*
X166633494Y-105613906D01*
X166582444Y-105477035D01*
X166582444Y-105477034D01*
X166494904Y-105360095D01*
X166377965Y-105272555D01*
X166241093Y-105221505D01*
X166180597Y-105215000D01*
X165636000Y-105215000D01*
X165128000Y-105215000D01*
X164583402Y-105215000D01*
X164522906Y-105221505D01*
X164386035Y-105272555D01*
X164386034Y-105272555D01*
X164269095Y-105360095D01*
X164181555Y-105477034D01*
X164181555Y-105477035D01*
X164130505Y-105613906D01*
X164124000Y-105674402D01*
X164124000Y-105919000D01*
X161063500Y-105919000D01*
X161063500Y-103231943D01*
X168041780Y-103231943D01*
X168046220Y-103278917D01*
X168046500Y-103284850D01*
X168046500Y-105026146D01*
X168044751Y-105041988D01*
X168045044Y-105042016D01*
X168044298Y-105049908D01*
X168046469Y-105118974D01*
X168046500Y-105120953D01*
X168046500Y-105149851D01*
X168046501Y-105149872D01*
X168047378Y-105156820D01*
X168047844Y-105162732D01*
X168049326Y-105209888D01*
X168049327Y-105209893D01*
X168054977Y-105229339D01*
X168058986Y-105248697D01*
X168061525Y-105268793D01*
X168061526Y-105268799D01*
X168078893Y-105312662D01*
X168080816Y-105318279D01*
X168093982Y-105363593D01*
X168104294Y-105381031D01*
X168112988Y-105398779D01*
X168120444Y-105417609D01*
X168120450Y-105417620D01*
X168148177Y-105455783D01*
X168151437Y-105460746D01*
X168175460Y-105501365D01*
X168189779Y-105515684D01*
X168202617Y-105530714D01*
X168212156Y-105543843D01*
X168214528Y-105547107D01*
X168242794Y-105570491D01*
X168250886Y-105577185D01*
X168255267Y-105581171D01*
X168649943Y-105975847D01*
X168986595Y-106312499D01*
X169020621Y-106374811D01*
X169023500Y-106401594D01*
X169023500Y-106671649D01*
X169030009Y-106732196D01*
X169030011Y-106732204D01*
X169081110Y-106869202D01*
X169081112Y-106869207D01*
X169168738Y-106986261D01*
X169285792Y-107073887D01*
X169285794Y-107073888D01*
X169285796Y-107073889D01*
X169319221Y-107086356D01*
X169422795Y-107124988D01*
X169422803Y-107124990D01*
X169483350Y-107131499D01*
X169483355Y-107131499D01*
X169483362Y-107131500D01*
X169483368Y-107131500D01*
X171080632Y-107131500D01*
X171080638Y-107131500D01*
X171080645Y-107131499D01*
X171080649Y-107131499D01*
X171141196Y-107124990D01*
X171141196Y-107124989D01*
X171141201Y-107124989D01*
X171182431Y-107109610D01*
X171253242Y-107104545D01*
X171315555Y-107138568D01*
X171349582Y-107200880D01*
X171344519Y-107271696D01*
X171315557Y-107316761D01*
X170154724Y-108477595D01*
X170092412Y-108511620D01*
X170065629Y-108514500D01*
X169483350Y-108514500D01*
X169422803Y-108521009D01*
X169422795Y-108521011D01*
X169285797Y-108572110D01*
X169285792Y-108572112D01*
X169168738Y-108659738D01*
X169081112Y-108776792D01*
X169081110Y-108776797D01*
X169030011Y-108913795D01*
X169030009Y-108913803D01*
X169023500Y-108974350D01*
X169023500Y-109971649D01*
X169030009Y-110032196D01*
X169030011Y-110032204D01*
X169081110Y-110169202D01*
X169081112Y-110169207D01*
X169168738Y-110286261D01*
X169285792Y-110373887D01*
X169285794Y-110373888D01*
X169285796Y-110373889D01*
X169344875Y-110395924D01*
X169422795Y-110424988D01*
X169422803Y-110424990D01*
X169483350Y-110431499D01*
X169483355Y-110431499D01*
X169483362Y-110431500D01*
X169483368Y-110431500D01*
X171080632Y-110431500D01*
X171080638Y-110431500D01*
X171080645Y-110431499D01*
X171080649Y-110431499D01*
X171141196Y-110424990D01*
X171141199Y-110424989D01*
X171141201Y-110424989D01*
X171278204Y-110373889D01*
X171395261Y-110286261D01*
X171482889Y-110169204D01*
X171533989Y-110032201D01*
X171540500Y-109971638D01*
X171540500Y-109289370D01*
X171560502Y-109221249D01*
X171577400Y-109200280D01*
X173198078Y-107579601D01*
X173211917Y-107567641D01*
X173231358Y-107553169D01*
X173265301Y-107512715D01*
X173269000Y-107508679D01*
X173274880Y-107502801D01*
X173294921Y-107477453D01*
X173295974Y-107476161D01*
X173345332Y-107417340D01*
X173345333Y-107417337D01*
X173345337Y-107417333D01*
X173349366Y-107411208D01*
X173349422Y-107411245D01*
X173353471Y-107404890D01*
X173353413Y-107404855D01*
X173357263Y-107398611D01*
X173357262Y-107398611D01*
X173357267Y-107398606D01*
X173389692Y-107329067D01*
X173390476Y-107327449D01*
X173395844Y-107316761D01*
X173424909Y-107258888D01*
X173424910Y-107258881D01*
X173427419Y-107251991D01*
X173427483Y-107252014D01*
X173429958Y-107244893D01*
X173429893Y-107244872D01*
X173432199Y-107237910D01*
X173432202Y-107237906D01*
X173447720Y-107162747D01*
X173448098Y-107161037D01*
X173465800Y-107086356D01*
X173465800Y-107086355D01*
X173466652Y-107079068D01*
X173466718Y-107079075D01*
X173467484Y-107071577D01*
X173467418Y-107071572D01*
X173468056Y-107064266D01*
X173468058Y-107064258D01*
X173466742Y-107019055D01*
X173465827Y-106987558D01*
X173465800Y-106985726D01*
X173465800Y-106671585D01*
X173465800Y-106322915D01*
X173482679Y-106259921D01*
X173541827Y-106157476D01*
X173600842Y-105975848D01*
X173620804Y-105785920D01*
X173600842Y-105595992D01*
X173552897Y-105448436D01*
X173550870Y-105377469D01*
X173587533Y-105316671D01*
X173651245Y-105285345D01*
X173672731Y-105283500D01*
X173698880Y-105283500D01*
X173771936Y-105276035D01*
X173799336Y-105273236D01*
X173962101Y-105219302D01*
X174108040Y-105129285D01*
X174229285Y-105008040D01*
X174319302Y-104862101D01*
X174373236Y-104699336D01*
X174376035Y-104671936D01*
X174383500Y-104598880D01*
X174383500Y-104001119D01*
X174376394Y-103931575D01*
X174373236Y-103900664D01*
X174319302Y-103737899D01*
X174319299Y-103737894D01*
X174318230Y-103734668D01*
X174315790Y-103663713D01*
X174348738Y-103605941D01*
X174547276Y-103407404D01*
X174609589Y-103373379D01*
X174636372Y-103370500D01*
X175268632Y-103370500D01*
X175268638Y-103370500D01*
X175268645Y-103370499D01*
X175268649Y-103370499D01*
X175329196Y-103363990D01*
X175329199Y-103363989D01*
X175329201Y-103363989D01*
X175466204Y-103312889D01*
X175491774Y-103293748D01*
X175583261Y-103225261D01*
X175670887Y-103108207D01*
X175670887Y-103108206D01*
X175670889Y-103108204D01*
X175719760Y-102977177D01*
X175721988Y-102971204D01*
X175721990Y-102971196D01*
X175728499Y-102910649D01*
X175728500Y-102910632D01*
X175728500Y-101913367D01*
X175728499Y-101913350D01*
X175721990Y-101852803D01*
X175721988Y-101852795D01*
X175670889Y-101715797D01*
X175670887Y-101715792D01*
X175583261Y-101598738D01*
X175466207Y-101511112D01*
X175466202Y-101511110D01*
X175329204Y-101460011D01*
X175329196Y-101460009D01*
X175268649Y-101453500D01*
X175268638Y-101453500D01*
X173671362Y-101453500D01*
X173671350Y-101453500D01*
X173610803Y-101460009D01*
X173610795Y-101460011D01*
X173473797Y-101511110D01*
X173473792Y-101511112D01*
X173356738Y-101598738D01*
X173269112Y-101715792D01*
X173269110Y-101715797D01*
X173218011Y-101852795D01*
X173218009Y-101852803D01*
X173211500Y-101913350D01*
X173211499Y-101913367D01*
X173211500Y-102545627D01*
X173191498Y-102613748D01*
X173174595Y-102634723D01*
X172934222Y-102875095D01*
X172920373Y-102887063D01*
X172900948Y-102901525D01*
X172900944Y-102901529D01*
X172867007Y-102941971D01*
X172863300Y-102946017D01*
X172857421Y-102951897D01*
X172857414Y-102951905D01*
X172837430Y-102977177D01*
X172836276Y-102978594D01*
X172786964Y-103037364D01*
X172782935Y-103043491D01*
X172782880Y-103043455D01*
X172778825Y-103049820D01*
X172778882Y-103049855D01*
X172775030Y-103056099D01*
X172742609Y-103125623D01*
X172741812Y-103127270D01*
X172707393Y-103195806D01*
X172704882Y-103202707D01*
X172704820Y-103202684D01*
X172702343Y-103209810D01*
X172702404Y-103209831D01*
X172700096Y-103216795D01*
X172684574Y-103291961D01*
X172684178Y-103293748D01*
X172671617Y-103346749D01*
X172636445Y-103408421D01*
X172573514Y-103441288D01*
X172502804Y-103434914D01*
X172482866Y-103424934D01*
X172411885Y-103381152D01*
X172249241Y-103327257D01*
X172249229Y-103327255D01*
X172148852Y-103317000D01*
X172129000Y-103317000D01*
X172129000Y-104428000D01*
X172108998Y-104496121D01*
X172055342Y-104542614D01*
X172003000Y-104554000D01*
X170917000Y-104554000D01*
X170917000Y-104598852D01*
X170927255Y-104699229D01*
X170927257Y-104699241D01*
X170981152Y-104861884D01*
X171071109Y-105007728D01*
X171073184Y-105010352D01*
X171074046Y-105012489D01*
X171074962Y-105013974D01*
X171074708Y-105014130D01*
X171099744Y-105076194D01*
X171086490Y-105145942D01*
X171037632Y-105197453D01*
X170974346Y-105214500D01*
X169732595Y-105214500D01*
X169664474Y-105194498D01*
X169643500Y-105177595D01*
X169350404Y-104884499D01*
X169316378Y-104822187D01*
X169313499Y-104795412D01*
X169313499Y-104046000D01*
X170917000Y-104046000D01*
X171621000Y-104046000D01*
X171621000Y-103317000D01*
X171601147Y-103317000D01*
X171500770Y-103327255D01*
X171500758Y-103327257D01*
X171338115Y-103381152D01*
X171192271Y-103471109D01*
X171192265Y-103471114D01*
X171071114Y-103592265D01*
X171071109Y-103592271D01*
X170981152Y-103738115D01*
X170927257Y-103900758D01*
X170927255Y-103900770D01*
X170917000Y-104001147D01*
X170917000Y-104046000D01*
X169313499Y-104046000D01*
X169313499Y-103566594D01*
X169333501Y-103498474D01*
X169350404Y-103477499D01*
X169420500Y-103407404D01*
X169482813Y-103373379D01*
X169509595Y-103370500D01*
X170368632Y-103370500D01*
X170368638Y-103370500D01*
X170368645Y-103370499D01*
X170368649Y-103370499D01*
X170429196Y-103363990D01*
X170429199Y-103363989D01*
X170429201Y-103363989D01*
X170566204Y-103312889D01*
X170591774Y-103293748D01*
X170683261Y-103225261D01*
X170770887Y-103108207D01*
X170770887Y-103108206D01*
X170770889Y-103108204D01*
X170819760Y-102977177D01*
X170821988Y-102971204D01*
X170821990Y-102971196D01*
X170828499Y-102910649D01*
X170828500Y-102910632D01*
X170828500Y-101913367D01*
X170828499Y-101913350D01*
X170821990Y-101852803D01*
X170821988Y-101852795D01*
X170770889Y-101715797D01*
X170770887Y-101715792D01*
X170683261Y-101598738D01*
X170566207Y-101511112D01*
X170566202Y-101511110D01*
X170429204Y-101460011D01*
X170429196Y-101460009D01*
X170368649Y-101453500D01*
X170368638Y-101453500D01*
X168771362Y-101453500D01*
X168771350Y-101453500D01*
X168710803Y-101460009D01*
X168710795Y-101460011D01*
X168573797Y-101511110D01*
X168573792Y-101511112D01*
X168456738Y-101598738D01*
X168369112Y-101715792D01*
X168369110Y-101715797D01*
X168318011Y-101852795D01*
X168318009Y-101852803D01*
X168311500Y-101913350D01*
X168311500Y-102669095D01*
X168291498Y-102737216D01*
X168277349Y-102755349D01*
X168225694Y-102810355D01*
X168224319Y-102811774D01*
X168203863Y-102832231D01*
X168199560Y-102837777D01*
X168195714Y-102842279D01*
X168163417Y-102876674D01*
X168163411Y-102876683D01*
X168153651Y-102894435D01*
X168142803Y-102910950D01*
X168130386Y-102926958D01*
X168111645Y-102970264D01*
X168109034Y-102975594D01*
X168086305Y-103016939D01*
X168086303Y-103016944D01*
X168081267Y-103036559D01*
X168074864Y-103055262D01*
X168066819Y-103073852D01*
X168059437Y-103120456D01*
X168058233Y-103126268D01*
X168046500Y-103171968D01*
X168046500Y-103192223D01*
X168044949Y-103211933D01*
X168041780Y-103231942D01*
X168041780Y-103231943D01*
X161063500Y-103231943D01*
X161063500Y-99366000D01*
X168312000Y-99366000D01*
X168312000Y-99610597D01*
X168318505Y-99671093D01*
X168369555Y-99807964D01*
X168369555Y-99807965D01*
X168457095Y-99924904D01*
X168574034Y-100012444D01*
X168710906Y-100063494D01*
X168771402Y-100069999D01*
X168771415Y-100070000D01*
X169316000Y-100070000D01*
X169316000Y-99366000D01*
X169824000Y-99366000D01*
X169824000Y-100070000D01*
X170368585Y-100070000D01*
X170368597Y-100069999D01*
X170429093Y-100063494D01*
X170565964Y-100012444D01*
X170565965Y-100012444D01*
X170682904Y-99924904D01*
X170770444Y-99807965D01*
X170770444Y-99807964D01*
X170821494Y-99671093D01*
X170827993Y-99610649D01*
X173211500Y-99610649D01*
X173218009Y-99671196D01*
X173218011Y-99671204D01*
X173269110Y-99808202D01*
X173269112Y-99808207D01*
X173356738Y-99925261D01*
X173473792Y-100012887D01*
X173473794Y-100012888D01*
X173473796Y-100012889D01*
X173532875Y-100034924D01*
X173610795Y-100063988D01*
X173610803Y-100063990D01*
X173671350Y-100070499D01*
X173671355Y-100070499D01*
X173671362Y-100070500D01*
X173671368Y-100070500D01*
X175268632Y-100070500D01*
X175268638Y-100070500D01*
X175268645Y-100070499D01*
X175268649Y-100070499D01*
X175329196Y-100063990D01*
X175329199Y-100063989D01*
X175329201Y-100063989D01*
X175466204Y-100012889D01*
X175466799Y-100012444D01*
X175583261Y-99925261D01*
X175670887Y-99808207D01*
X175670887Y-99808206D01*
X175670889Y-99808204D01*
X175721989Y-99671201D01*
X175728500Y-99610638D01*
X175728500Y-98979993D01*
X175748502Y-98911872D01*
X175765400Y-98890903D01*
X176786498Y-97869805D01*
X176848811Y-97835779D01*
X176875594Y-97832900D01*
X177734632Y-97832900D01*
X177734638Y-97832900D01*
X177734645Y-97832899D01*
X177734649Y-97832899D01*
X177795196Y-97826390D01*
X177795197Y-97826389D01*
X177795201Y-97826389D01*
X177809657Y-97820996D01*
X177880470Y-97815929D01*
X177942784Y-97849952D01*
X177976811Y-97912263D01*
X177971749Y-97983079D01*
X177947329Y-98023360D01*
X177906785Y-98068388D01*
X177906778Y-98068398D01*
X177811296Y-98233778D01*
X177811293Y-98233785D01*
X177752277Y-98415412D01*
X177732316Y-98605340D01*
X177752277Y-98795267D01*
X177772661Y-98858000D01*
X177811293Y-98976896D01*
X177811296Y-98976901D01*
X177906778Y-99142281D01*
X177906785Y-99142291D01*
X178034564Y-99284204D01*
X178079123Y-99316578D01*
X178189068Y-99396458D01*
X178363532Y-99474134D01*
X178550333Y-99513840D01*
X178741307Y-99513840D01*
X178928108Y-99474134D01*
X179102572Y-99396458D01*
X179257073Y-99284206D01*
X179257075Y-99284204D01*
X179384854Y-99142291D01*
X179384855Y-99142289D01*
X179384860Y-99142284D01*
X179480347Y-98976896D01*
X179535208Y-98808051D01*
X179565944Y-98757895D01*
X180596036Y-97727803D01*
X180658346Y-97693779D01*
X180729161Y-97698844D01*
X180760635Y-97716030D01*
X180788042Y-97736546D01*
X180839796Y-97775289D01*
X180976795Y-97826388D01*
X180976803Y-97826390D01*
X181037350Y-97832899D01*
X181037355Y-97832899D01*
X181037362Y-97832900D01*
X181037368Y-97832900D01*
X182634632Y-97832900D01*
X182634638Y-97832900D01*
X182634645Y-97832899D01*
X182634649Y-97832899D01*
X182695196Y-97826390D01*
X182695199Y-97826389D01*
X182695201Y-97826389D01*
X182832204Y-97775289D01*
X182861569Y-97753307D01*
X182949261Y-97687661D01*
X183036887Y-97570607D01*
X183036887Y-97570606D01*
X183036889Y-97570604D01*
X183087989Y-97433601D01*
X183094500Y-97373038D01*
X183094500Y-96375762D01*
X183094499Y-96375750D01*
X183087990Y-96315203D01*
X183087988Y-96315195D01*
X183053799Y-96223534D01*
X183036889Y-96178196D01*
X183036888Y-96178194D01*
X183036887Y-96178192D01*
X182949261Y-96061138D01*
X182832207Y-95973512D01*
X182832202Y-95973510D01*
X182695204Y-95922411D01*
X182695196Y-95922409D01*
X182634649Y-95915900D01*
X182634638Y-95915900D01*
X181037362Y-95915900D01*
X181037350Y-95915900D01*
X180976803Y-95922409D01*
X180976795Y-95922411D01*
X180839797Y-95973510D01*
X180839792Y-95973512D01*
X180749951Y-96040768D01*
X180683431Y-96065579D01*
X180674442Y-96065900D01*
X180491201Y-96065900D01*
X180472942Y-96064570D01*
X180448972Y-96061059D01*
X180448971Y-96061059D01*
X180448057Y-96061139D01*
X180396375Y-96065660D01*
X180390882Y-96065900D01*
X180382577Y-96065900D01*
X180361657Y-96068345D01*
X180350551Y-96069643D01*
X180348764Y-96069825D01*
X180329806Y-96071484D01*
X180272334Y-96076512D01*
X180265149Y-96077996D01*
X180265136Y-96077933D01*
X180257763Y-96079568D01*
X180257778Y-96079631D01*
X180250641Y-96081322D01*
X180178533Y-96107566D01*
X180176805Y-96108167D01*
X180130445Y-96123529D01*
X180104022Y-96132286D01*
X180104020Y-96132286D01*
X180104020Y-96132287D01*
X180097372Y-96135387D01*
X180097343Y-96135326D01*
X180090552Y-96138614D01*
X180090582Y-96138673D01*
X180084029Y-96141963D01*
X180019914Y-96184132D01*
X180018369Y-96185116D01*
X179953111Y-96225368D01*
X179947348Y-96229925D01*
X179947307Y-96229873D01*
X179941464Y-96234633D01*
X179941506Y-96234683D01*
X179935888Y-96239397D01*
X179883218Y-96295222D01*
X179881942Y-96296536D01*
X178489487Y-97688990D01*
X178427175Y-97723016D01*
X178426592Y-97723141D01*
X178363532Y-97736546D01*
X178279453Y-97773980D01*
X178209086Y-97783414D01*
X178144789Y-97753307D01*
X178106976Y-97693218D01*
X178107653Y-97622224D01*
X178127338Y-97583362D01*
X178136889Y-97570604D01*
X178187989Y-97433601D01*
X178194500Y-97373038D01*
X178194500Y-96375762D01*
X178194499Y-96375750D01*
X178187990Y-96315203D01*
X178187988Y-96315195D01*
X178153799Y-96223534D01*
X178136889Y-96178196D01*
X178136888Y-96178194D01*
X178136887Y-96178192D01*
X178049261Y-96061138D01*
X177932207Y-95973512D01*
X177932202Y-95973510D01*
X177795204Y-95922411D01*
X177795196Y-95922409D01*
X177734649Y-95915900D01*
X177734638Y-95915900D01*
X176137362Y-95915900D01*
X176137350Y-95915900D01*
X176076803Y-95922409D01*
X176076795Y-95922411D01*
X175939797Y-95973510D01*
X175939792Y-95973512D01*
X175822738Y-96061138D01*
X175735112Y-96178192D01*
X175735110Y-96178197D01*
X175684011Y-96315195D01*
X175684009Y-96315203D01*
X175677500Y-96375750D01*
X175677500Y-97134805D01*
X175657498Y-97202926D01*
X175640595Y-97223900D01*
X174747900Y-98116595D01*
X174685588Y-98150621D01*
X174658805Y-98153500D01*
X173671350Y-98153500D01*
X173610803Y-98160009D01*
X173610795Y-98160011D01*
X173473797Y-98211110D01*
X173473792Y-98211112D01*
X173356738Y-98298738D01*
X173269112Y-98415792D01*
X173269110Y-98415797D01*
X173218011Y-98552795D01*
X173218009Y-98552803D01*
X173211500Y-98613350D01*
X173211500Y-99610649D01*
X170827993Y-99610649D01*
X170827999Y-99610597D01*
X170828000Y-99610585D01*
X170828000Y-99366000D01*
X169824000Y-99366000D01*
X169316000Y-99366000D01*
X168312000Y-99366000D01*
X161063500Y-99366000D01*
X161063500Y-98858000D01*
X168312000Y-98858000D01*
X169316000Y-98858000D01*
X169316000Y-98154000D01*
X169824000Y-98154000D01*
X169824000Y-98858000D01*
X170828000Y-98858000D01*
X170828000Y-98613414D01*
X170827999Y-98613402D01*
X170821494Y-98552906D01*
X170770444Y-98416035D01*
X170770444Y-98416034D01*
X170682904Y-98299095D01*
X170565965Y-98211555D01*
X170429093Y-98160505D01*
X170368597Y-98154000D01*
X169824000Y-98154000D01*
X169316000Y-98154000D01*
X168771402Y-98154000D01*
X168710906Y-98160505D01*
X168574035Y-98211555D01*
X168574034Y-98211555D01*
X168457095Y-98299095D01*
X168369555Y-98416034D01*
X168369555Y-98416035D01*
X168318505Y-98552906D01*
X168312000Y-98613402D01*
X168312000Y-98858000D01*
X161063500Y-98858000D01*
X161063500Y-93828400D01*
X175678000Y-93828400D01*
X175678000Y-94072997D01*
X175684505Y-94133493D01*
X175735555Y-94270364D01*
X175735555Y-94270365D01*
X175823095Y-94387304D01*
X175940034Y-94474844D01*
X176076906Y-94525894D01*
X176137402Y-94532399D01*
X176137415Y-94532400D01*
X176682000Y-94532400D01*
X176682000Y-93828400D01*
X177190000Y-93828400D01*
X177190000Y-94532400D01*
X177734585Y-94532400D01*
X177734597Y-94532399D01*
X177795093Y-94525894D01*
X177931964Y-94474844D01*
X177931965Y-94474844D01*
X178048904Y-94387304D01*
X178136444Y-94270365D01*
X178136444Y-94270364D01*
X178187494Y-94133493D01*
X178193993Y-94073049D01*
X180577500Y-94073049D01*
X180584009Y-94133596D01*
X180584011Y-94133604D01*
X180635110Y-94270602D01*
X180635112Y-94270607D01*
X180722738Y-94387661D01*
X180839792Y-94475287D01*
X180839794Y-94475288D01*
X180839796Y-94475289D01*
X180898875Y-94497324D01*
X180976795Y-94526388D01*
X180976803Y-94526390D01*
X181037350Y-94532899D01*
X181037355Y-94532899D01*
X181037362Y-94532900D01*
X181796406Y-94532900D01*
X181864527Y-94552902D01*
X181885501Y-94569805D01*
X183413595Y-96097899D01*
X183447621Y-96160211D01*
X183450500Y-96186994D01*
X183450500Y-96407849D01*
X183457009Y-96468396D01*
X183457011Y-96468404D01*
X183508110Y-96605402D01*
X183508112Y-96605407D01*
X183595738Y-96722461D01*
X183712792Y-96810087D01*
X183712794Y-96810088D01*
X183712796Y-96810089D01*
X183771875Y-96832124D01*
X183849795Y-96861188D01*
X183849803Y-96861190D01*
X183910350Y-96867699D01*
X183910355Y-96867699D01*
X183910362Y-96867700D01*
X183910368Y-96867700D01*
X185507632Y-96867700D01*
X185507638Y-96867700D01*
X185507645Y-96867699D01*
X185507649Y-96867699D01*
X185568196Y-96861190D01*
X185568199Y-96861189D01*
X185568201Y-96861189D01*
X185705204Y-96810089D01*
X185822261Y-96722461D01*
X185823525Y-96720773D01*
X185909887Y-96605407D01*
X185909887Y-96605406D01*
X185909889Y-96605404D01*
X185960989Y-96468401D01*
X185967499Y-96407849D01*
X188350500Y-96407849D01*
X188357009Y-96468396D01*
X188357011Y-96468404D01*
X188408110Y-96605402D01*
X188408112Y-96605407D01*
X188495738Y-96722461D01*
X188612792Y-96810087D01*
X188612794Y-96810088D01*
X188612796Y-96810089D01*
X188671875Y-96832124D01*
X188749795Y-96861188D01*
X188749803Y-96861190D01*
X188810350Y-96867699D01*
X188810355Y-96867699D01*
X188810362Y-96867700D01*
X188810368Y-96867700D01*
X190407632Y-96867700D01*
X190407638Y-96867700D01*
X190407645Y-96867699D01*
X190407649Y-96867699D01*
X190468196Y-96861190D01*
X190468199Y-96861189D01*
X190468201Y-96861189D01*
X190605204Y-96810089D01*
X190722261Y-96722461D01*
X190765774Y-96664332D01*
X190822608Y-96621787D01*
X190866254Y-96613843D01*
X191419815Y-96612143D01*
X191487996Y-96631935D01*
X191494255Y-96636201D01*
X191503748Y-96643098D01*
X191678212Y-96720774D01*
X191865013Y-96760480D01*
X192055987Y-96760480D01*
X192242788Y-96720774D01*
X192417252Y-96643098D01*
X192571753Y-96530846D01*
X192699540Y-96388924D01*
X192795027Y-96223536D01*
X192854042Y-96041908D01*
X192874004Y-95851980D01*
X192854042Y-95662052D01*
X192795027Y-95480424D01*
X192699540Y-95315036D01*
X192699538Y-95315034D01*
X192699534Y-95315028D01*
X192571755Y-95173115D01*
X192417252Y-95060862D01*
X192242788Y-94983186D01*
X192055987Y-94943480D01*
X191865013Y-94943480D01*
X191678211Y-94983186D01*
X191503748Y-95060862D01*
X191489674Y-95071087D01*
X191422806Y-95094943D01*
X191416004Y-95095147D01*
X190766193Y-95097142D01*
X190698011Y-95077350D01*
X190690309Y-95072020D01*
X190626326Y-95024122D01*
X190605203Y-95008310D01*
X190468204Y-94957211D01*
X190468196Y-94957209D01*
X190407649Y-94950700D01*
X190407638Y-94950700D01*
X188810362Y-94950700D01*
X188810350Y-94950700D01*
X188749803Y-94957209D01*
X188749795Y-94957211D01*
X188612797Y-95008310D01*
X188612792Y-95008312D01*
X188495738Y-95095938D01*
X188408112Y-95212992D01*
X188408110Y-95212997D01*
X188357011Y-95349995D01*
X188357009Y-95350003D01*
X188350500Y-95410550D01*
X188350500Y-96407849D01*
X185967499Y-96407849D01*
X185967500Y-96407838D01*
X185967500Y-95410562D01*
X185967499Y-95410550D01*
X185960990Y-95350003D01*
X185960988Y-95349995D01*
X185909889Y-95212997D01*
X185909887Y-95212992D01*
X185822261Y-95095938D01*
X185705207Y-95008312D01*
X185705202Y-95008310D01*
X185568204Y-94957211D01*
X185568196Y-94957209D01*
X185507649Y-94950700D01*
X185507638Y-94950700D01*
X184110395Y-94950700D01*
X184042274Y-94930698D01*
X184021300Y-94913795D01*
X183131404Y-94023899D01*
X183097378Y-93961587D01*
X183094500Y-93934813D01*
X183094500Y-93075762D01*
X183088001Y-93015306D01*
X183087990Y-93015203D01*
X183087988Y-93015195D01*
X183036978Y-92878435D01*
X183036889Y-92878196D01*
X183036888Y-92878194D01*
X183036887Y-92878192D01*
X183025664Y-92863200D01*
X183451000Y-92863200D01*
X183451000Y-93107797D01*
X183457505Y-93168293D01*
X183508555Y-93305164D01*
X183508555Y-93305165D01*
X183596095Y-93422104D01*
X183713034Y-93509644D01*
X183849906Y-93560694D01*
X183910402Y-93567199D01*
X183910415Y-93567200D01*
X184455000Y-93567200D01*
X184455000Y-92863200D01*
X184963000Y-92863200D01*
X184963000Y-93567200D01*
X185507585Y-93567200D01*
X185507597Y-93567199D01*
X185568093Y-93560694D01*
X185704964Y-93509644D01*
X185704965Y-93509644D01*
X185821904Y-93422104D01*
X185909444Y-93305165D01*
X185909444Y-93305164D01*
X185960494Y-93168293D01*
X185966993Y-93107849D01*
X188350500Y-93107849D01*
X188357009Y-93168396D01*
X188357011Y-93168404D01*
X188408110Y-93305402D01*
X188408112Y-93305407D01*
X188495738Y-93422461D01*
X188612792Y-93510087D01*
X188612794Y-93510088D01*
X188612796Y-93510089D01*
X188671875Y-93532124D01*
X188749795Y-93561188D01*
X188749803Y-93561190D01*
X188810350Y-93567699D01*
X188810355Y-93567699D01*
X188810362Y-93567700D01*
X188810368Y-93567700D01*
X190407632Y-93567700D01*
X190407638Y-93567700D01*
X190407645Y-93567699D01*
X190407649Y-93567699D01*
X190468196Y-93561190D01*
X190468199Y-93561189D01*
X190468201Y-93561189D01*
X190605204Y-93510089D01*
X190605799Y-93509644D01*
X190722261Y-93422461D01*
X190781602Y-93343191D01*
X190838437Y-93300644D01*
X190882470Y-93292700D01*
X191584547Y-93292700D01*
X191600388Y-93294449D01*
X191600416Y-93294156D01*
X191608301Y-93294900D01*
X191608309Y-93294902D01*
X191669608Y-93292975D01*
X191677376Y-93292731D01*
X191679355Y-93292700D01*
X191708251Y-93292700D01*
X191708256Y-93292700D01*
X191715218Y-93291819D01*
X191721119Y-93291354D01*
X191768289Y-93289873D01*
X191787747Y-93284219D01*
X191807094Y-93280213D01*
X191827197Y-93277674D01*
X191871079Y-93260299D01*
X191876674Y-93258383D01*
X191905216Y-93250091D01*
X191921991Y-93245219D01*
X191921995Y-93245217D01*
X191939426Y-93234908D01*
X191957180Y-93226209D01*
X191976017Y-93218752D01*
X192014186Y-93191018D01*
X192019144Y-93187762D01*
X192059762Y-93163742D01*
X192074085Y-93149418D01*
X192089124Y-93136574D01*
X192105507Y-93124672D01*
X192135593Y-93088303D01*
X192139561Y-93083941D01*
X193767663Y-91455840D01*
X200619340Y-91455840D01*
X200619340Y-91475692D01*
X200629595Y-91576069D01*
X200629597Y-91576081D01*
X200683492Y-91738724D01*
X200773449Y-91884568D01*
X200773454Y-91884574D01*
X200894605Y-92005725D01*
X200894611Y-92005730D01*
X201040455Y-92095687D01*
X201203098Y-92149582D01*
X201203110Y-92149584D01*
X201303487Y-92159839D01*
X201303487Y-92159840D01*
X201348340Y-92159840D01*
X201348340Y-91455840D01*
X201856340Y-91455840D01*
X201856340Y-92159840D01*
X201901193Y-92159840D01*
X201901192Y-92159839D01*
X202001569Y-92149584D01*
X202001581Y-92149582D01*
X202164224Y-92095687D01*
X202310068Y-92005730D01*
X202310074Y-92005725D01*
X202431225Y-91884574D01*
X202431230Y-91884568D01*
X202521187Y-91738724D01*
X202575082Y-91576081D01*
X202575084Y-91576069D01*
X202585339Y-91475692D01*
X202585340Y-91475692D01*
X202585340Y-91455840D01*
X201856340Y-91455840D01*
X201348340Y-91455840D01*
X200619340Y-91455840D01*
X193767663Y-91455840D01*
X194516498Y-90707005D01*
X194578811Y-90672979D01*
X194605594Y-90670100D01*
X195464632Y-90670100D01*
X195464638Y-90670100D01*
X195464645Y-90670099D01*
X195464649Y-90670099D01*
X195525196Y-90663590D01*
X195525199Y-90663589D01*
X195525201Y-90663589D01*
X195662204Y-90612489D01*
X195662799Y-90612044D01*
X195779261Y-90524861D01*
X195866887Y-90407807D01*
X195866887Y-90407806D01*
X195866889Y-90407804D01*
X195917989Y-90270801D01*
X195918850Y-90262799D01*
X195924499Y-90210249D01*
X198307500Y-90210249D01*
X198314009Y-90270796D01*
X198314011Y-90270804D01*
X198365110Y-90407802D01*
X198365112Y-90407807D01*
X198452738Y-90524861D01*
X198569792Y-90612487D01*
X198569794Y-90612488D01*
X198569796Y-90612489D01*
X198612723Y-90628500D01*
X198706795Y-90663588D01*
X198706803Y-90663590D01*
X198767350Y-90670099D01*
X198767355Y-90670099D01*
X198767362Y-90670100D01*
X198767368Y-90670100D01*
X200364632Y-90670100D01*
X200364638Y-90670100D01*
X200364645Y-90670099D01*
X200364649Y-90670099D01*
X200425196Y-90663590D01*
X200425199Y-90663589D01*
X200425201Y-90663589D01*
X200426528Y-90663094D01*
X200474099Y-90645351D01*
X200544914Y-90640285D01*
X200607227Y-90674310D01*
X200641252Y-90736622D01*
X200637737Y-90803038D01*
X200629596Y-90827604D01*
X200629595Y-90827610D01*
X200619340Y-90927987D01*
X200619340Y-90947840D01*
X202585340Y-90947840D01*
X202585340Y-90927987D01*
X202575084Y-90827610D01*
X202575082Y-90827598D01*
X202521187Y-90664955D01*
X202483617Y-90604044D01*
X202464880Y-90535564D01*
X202486139Y-90467826D01*
X202540646Y-90422334D01*
X202591052Y-90411897D01*
X202671676Y-90412024D01*
X202739764Y-90432133D01*
X202745538Y-90436089D01*
X202758486Y-90445497D01*
X202758487Y-90445497D01*
X202758488Y-90445498D01*
X202932952Y-90523174D01*
X203119753Y-90562880D01*
X203310727Y-90562880D01*
X203497528Y-90523174D01*
X203671992Y-90445498D01*
X203826493Y-90333246D01*
X203871407Y-90283364D01*
X203954274Y-90191331D01*
X203954275Y-90191329D01*
X203954280Y-90191324D01*
X204049767Y-90025936D01*
X204108782Y-89844308D01*
X204128744Y-89654380D01*
X204108782Y-89464452D01*
X204049767Y-89282824D01*
X203954280Y-89117436D01*
X203954278Y-89117434D01*
X203954274Y-89117428D01*
X203826495Y-88975515D01*
X203671992Y-88863262D01*
X203497528Y-88785586D01*
X203310727Y-88745880D01*
X203119753Y-88745880D01*
X202932951Y-88785586D01*
X202758486Y-88863262D01*
X202747883Y-88870966D01*
X202681014Y-88894820D01*
X202673631Y-88895025D01*
X202409427Y-88894609D01*
X202341337Y-88874500D01*
X202320530Y-88857704D01*
X202310386Y-88847560D01*
X202310380Y-88847555D01*
X202251367Y-88811155D01*
X202164441Y-88757538D01*
X202001676Y-88703604D01*
X202001673Y-88703603D01*
X201901220Y-88693340D01*
X201901212Y-88693340D01*
X201303468Y-88693340D01*
X201303460Y-88693340D01*
X201203006Y-88703603D01*
X201040239Y-88757538D01*
X200894299Y-88847555D01*
X200894293Y-88847560D01*
X200875659Y-88866195D01*
X200813347Y-88900221D01*
X200786564Y-88903100D01*
X200727558Y-88903100D01*
X200659437Y-88883098D01*
X200652049Y-88877968D01*
X200562207Y-88810712D01*
X200562202Y-88810710D01*
X200425204Y-88759611D01*
X200425196Y-88759609D01*
X200364649Y-88753100D01*
X200364638Y-88753100D01*
X198767362Y-88753100D01*
X198767350Y-88753100D01*
X198706803Y-88759609D01*
X198706795Y-88759611D01*
X198569797Y-88810710D01*
X198569792Y-88810712D01*
X198452738Y-88898338D01*
X198365112Y-89015392D01*
X198365110Y-89015397D01*
X198314011Y-89152395D01*
X198314009Y-89152403D01*
X198307500Y-89212950D01*
X198307500Y-90210249D01*
X195924499Y-90210249D01*
X195924500Y-90210232D01*
X195924500Y-89212967D01*
X195924499Y-89212950D01*
X195917990Y-89152403D01*
X195917988Y-89152395D01*
X195871627Y-89028100D01*
X195866889Y-89015396D01*
X195866888Y-89015394D01*
X195866887Y-89015392D01*
X195779261Y-88898338D01*
X195662207Y-88810712D01*
X195662202Y-88810710D01*
X195525204Y-88759611D01*
X195525196Y-88759609D01*
X195464649Y-88753100D01*
X195464638Y-88753100D01*
X193867362Y-88753100D01*
X193867350Y-88753100D01*
X193806803Y-88759609D01*
X193806795Y-88759611D01*
X193669797Y-88810710D01*
X193669792Y-88810712D01*
X193552738Y-88898338D01*
X193465112Y-89015392D01*
X193465110Y-89015397D01*
X193414011Y-89152395D01*
X193414009Y-89152403D01*
X193407500Y-89212950D01*
X193407500Y-89972004D01*
X193387498Y-90040125D01*
X193370595Y-90061099D01*
X191442900Y-91988795D01*
X191380588Y-92022820D01*
X191353805Y-92025700D01*
X190939409Y-92025700D01*
X190871288Y-92005698D01*
X190824795Y-91952042D01*
X190821354Y-91943734D01*
X190809978Y-91913235D01*
X190809889Y-91912996D01*
X190809887Y-91912994D01*
X190809887Y-91912992D01*
X190722261Y-91795938D01*
X190605207Y-91708312D01*
X190605202Y-91708310D01*
X190468204Y-91657211D01*
X190468196Y-91657209D01*
X190407649Y-91650700D01*
X190407638Y-91650700D01*
X188810362Y-91650700D01*
X188810350Y-91650700D01*
X188749803Y-91657209D01*
X188749795Y-91657211D01*
X188612797Y-91708310D01*
X188612792Y-91708312D01*
X188495738Y-91795938D01*
X188408112Y-91912992D01*
X188408110Y-91912997D01*
X188357011Y-92049995D01*
X188357009Y-92050003D01*
X188350500Y-92110550D01*
X188350500Y-93107849D01*
X185966993Y-93107849D01*
X185966999Y-93107797D01*
X185967000Y-93107785D01*
X185967000Y-92863200D01*
X184963000Y-92863200D01*
X184455000Y-92863200D01*
X183451000Y-92863200D01*
X183025664Y-92863200D01*
X182949261Y-92761138D01*
X182832207Y-92673512D01*
X182832202Y-92673510D01*
X182695204Y-92622411D01*
X182695196Y-92622409D01*
X182634649Y-92615900D01*
X182634638Y-92615900D01*
X181037362Y-92615900D01*
X181037350Y-92615900D01*
X180976803Y-92622409D01*
X180976795Y-92622411D01*
X180839797Y-92673510D01*
X180839792Y-92673512D01*
X180722738Y-92761138D01*
X180635112Y-92878192D01*
X180635110Y-92878197D01*
X180584011Y-93015195D01*
X180584009Y-93015203D01*
X180577500Y-93075750D01*
X180577500Y-94073049D01*
X178193993Y-94073049D01*
X178193999Y-94072997D01*
X178194000Y-94072985D01*
X178194000Y-93828400D01*
X177190000Y-93828400D01*
X176682000Y-93828400D01*
X175678000Y-93828400D01*
X161063500Y-93828400D01*
X161063500Y-93320400D01*
X175678000Y-93320400D01*
X176682000Y-93320400D01*
X176682000Y-92616400D01*
X177190000Y-92616400D01*
X177190000Y-93320400D01*
X178194000Y-93320400D01*
X178194000Y-93075814D01*
X178193999Y-93075802D01*
X178187494Y-93015306D01*
X178136444Y-92878435D01*
X178136444Y-92878434D01*
X178048904Y-92761495D01*
X177931965Y-92673955D01*
X177795093Y-92622905D01*
X177734597Y-92616400D01*
X177190000Y-92616400D01*
X176682000Y-92616400D01*
X176137402Y-92616400D01*
X176076906Y-92622905D01*
X175940035Y-92673955D01*
X175940034Y-92673955D01*
X175823095Y-92761495D01*
X175735555Y-92878434D01*
X175735555Y-92878435D01*
X175684505Y-93015306D01*
X175678000Y-93075802D01*
X175678000Y-93320400D01*
X161063500Y-93320400D01*
X161063500Y-92355200D01*
X183451000Y-92355200D01*
X184455000Y-92355200D01*
X184455000Y-91651200D01*
X184963000Y-91651200D01*
X184963000Y-92355200D01*
X185967000Y-92355200D01*
X185967000Y-92110614D01*
X185966999Y-92110602D01*
X185960494Y-92050106D01*
X185909444Y-91913235D01*
X185909444Y-91913234D01*
X185821904Y-91796295D01*
X185704965Y-91708755D01*
X185568093Y-91657705D01*
X185507597Y-91651200D01*
X184963000Y-91651200D01*
X184455000Y-91651200D01*
X183910402Y-91651200D01*
X183849906Y-91657705D01*
X183713035Y-91708755D01*
X183713034Y-91708755D01*
X183596095Y-91796295D01*
X183508555Y-91913234D01*
X183508555Y-91913235D01*
X183457505Y-92050106D01*
X183451000Y-92110602D01*
X183451000Y-92355200D01*
X161063500Y-92355200D01*
X161063500Y-89719999D01*
X172556496Y-89719999D01*
X172576457Y-89909927D01*
X172594547Y-89965600D01*
X172635473Y-90091556D01*
X172635476Y-90091561D01*
X172730958Y-90256941D01*
X172730965Y-90256951D01*
X172858744Y-90398864D01*
X172876857Y-90412024D01*
X173013248Y-90511118D01*
X173187712Y-90588794D01*
X173374513Y-90628500D01*
X173565487Y-90628500D01*
X173752288Y-90588794D01*
X173926752Y-90511118D01*
X174081253Y-90398866D01*
X174092125Y-90386790D01*
X174152571Y-90349550D01*
X174185763Y-90345100D01*
X174712113Y-90345100D01*
X174780234Y-90365102D01*
X174814275Y-90401664D01*
X174815711Y-90400590D01*
X174821110Y-90407802D01*
X174821111Y-90407804D01*
X174823897Y-90411526D01*
X174908738Y-90524861D01*
X175025792Y-90612487D01*
X175025794Y-90612488D01*
X175025796Y-90612489D01*
X175068723Y-90628500D01*
X175162795Y-90663588D01*
X175162803Y-90663590D01*
X175223350Y-90670099D01*
X175223355Y-90670099D01*
X175223362Y-90670100D01*
X175223368Y-90670100D01*
X176820632Y-90670100D01*
X176820638Y-90670100D01*
X176820645Y-90670099D01*
X176820649Y-90670099D01*
X176881196Y-90663590D01*
X176881199Y-90663589D01*
X176881201Y-90663589D01*
X177018204Y-90612489D01*
X177018799Y-90612044D01*
X177135261Y-90524861D01*
X177222887Y-90407807D01*
X177222887Y-90407806D01*
X177222889Y-90407804D01*
X177273989Y-90270801D01*
X177274850Y-90262799D01*
X177280499Y-90210249D01*
X177280500Y-90210232D01*
X177280500Y-89965600D01*
X179664000Y-89965600D01*
X179664000Y-90210197D01*
X179670505Y-90270693D01*
X179721555Y-90407564D01*
X179721555Y-90407565D01*
X179809095Y-90524504D01*
X179926034Y-90612044D01*
X180062906Y-90663094D01*
X180123402Y-90669599D01*
X180123415Y-90669600D01*
X180668000Y-90669600D01*
X180668000Y-89965600D01*
X181176000Y-89965600D01*
X181176000Y-90669600D01*
X181720585Y-90669600D01*
X181720597Y-90669599D01*
X181781093Y-90663094D01*
X181917964Y-90612044D01*
X181917965Y-90612044D01*
X182034904Y-90524504D01*
X182122444Y-90407565D01*
X182122444Y-90407564D01*
X182173494Y-90270693D01*
X182179999Y-90210197D01*
X182180000Y-90210185D01*
X182180000Y-89965600D01*
X181176000Y-89965600D01*
X180668000Y-89965600D01*
X179664000Y-89965600D01*
X177280500Y-89965600D01*
X177280500Y-89457600D01*
X179664000Y-89457600D01*
X180668000Y-89457600D01*
X180668000Y-88753600D01*
X181176000Y-88753600D01*
X181176000Y-89457600D01*
X182180000Y-89457600D01*
X182180000Y-89213014D01*
X182179999Y-89213002D01*
X182173494Y-89152506D01*
X182122444Y-89015635D01*
X182122444Y-89015634D01*
X182034904Y-88898695D01*
X181917965Y-88811155D01*
X181781093Y-88760105D01*
X181720597Y-88753600D01*
X181176000Y-88753600D01*
X180668000Y-88753600D01*
X180123402Y-88753600D01*
X180062906Y-88760105D01*
X179926035Y-88811155D01*
X179926034Y-88811155D01*
X179809095Y-88898695D01*
X179721555Y-89015634D01*
X179721555Y-89015635D01*
X179670505Y-89152506D01*
X179664000Y-89213002D01*
X179664000Y-89457600D01*
X177280500Y-89457600D01*
X177280500Y-89212967D01*
X177280499Y-89212950D01*
X177273990Y-89152403D01*
X177273988Y-89152395D01*
X177227627Y-89028100D01*
X177222889Y-89015396D01*
X177222888Y-89015394D01*
X177222887Y-89015392D01*
X177135261Y-88898338D01*
X177018207Y-88810712D01*
X177018202Y-88810710D01*
X176881204Y-88759611D01*
X176881196Y-88759609D01*
X176820649Y-88753100D01*
X176820638Y-88753100D01*
X175223362Y-88753100D01*
X175223350Y-88753100D01*
X175162803Y-88759609D01*
X175162795Y-88759611D01*
X175025797Y-88810710D01*
X175025792Y-88810712D01*
X174908738Y-88898338D01*
X174815711Y-89022610D01*
X174813918Y-89021268D01*
X174772493Y-89062691D01*
X174712113Y-89078100D01*
X174170636Y-89078100D01*
X174102515Y-89058098D01*
X174086845Y-89044787D01*
X174086158Y-89045551D01*
X174081250Y-89041131D01*
X173926752Y-88928882D01*
X173752288Y-88851206D01*
X173565487Y-88811500D01*
X173374513Y-88811500D01*
X173187711Y-88851206D01*
X173013247Y-88928882D01*
X172858744Y-89041135D01*
X172730965Y-89183048D01*
X172730958Y-89183058D01*
X172635476Y-89348438D01*
X172635473Y-89348445D01*
X172576457Y-89530072D01*
X172556496Y-89719999D01*
X161063500Y-89719999D01*
X161063500Y-84576920D01*
X173506380Y-84576920D01*
X173506380Y-84621772D01*
X173516635Y-84722149D01*
X173516637Y-84722161D01*
X173570532Y-84884804D01*
X173660489Y-85030648D01*
X173660494Y-85030654D01*
X173781645Y-85151805D01*
X173781651Y-85151810D01*
X173927495Y-85241767D01*
X174090138Y-85295662D01*
X174090150Y-85295664D01*
X174190527Y-85305919D01*
X174190527Y-85305920D01*
X174210380Y-85305920D01*
X174718380Y-85305920D01*
X174738233Y-85305920D01*
X174738232Y-85305919D01*
X174838609Y-85295664D01*
X174838621Y-85295662D01*
X175001265Y-85241766D01*
X175071351Y-85198537D01*
X175139830Y-85179799D01*
X175207569Y-85201057D01*
X175253061Y-85255564D01*
X175263499Y-85305773D01*
X175263500Y-85336114D01*
X175243500Y-85404235D01*
X175189846Y-85450730D01*
X175166488Y-85458738D01*
X175162801Y-85459609D01*
X175025797Y-85510710D01*
X175025792Y-85510712D01*
X174908738Y-85598338D01*
X174821112Y-85715392D01*
X174821110Y-85715397D01*
X174770011Y-85852395D01*
X174770009Y-85852403D01*
X174763500Y-85912950D01*
X174763500Y-86910249D01*
X174770009Y-86970796D01*
X174770011Y-86970804D01*
X174821110Y-87107802D01*
X174821112Y-87107807D01*
X174908738Y-87224861D01*
X175025792Y-87312487D01*
X175025794Y-87312488D01*
X175025796Y-87312489D01*
X175084875Y-87334524D01*
X175162795Y-87363588D01*
X175162803Y-87363590D01*
X175223350Y-87370099D01*
X175223355Y-87370099D01*
X175223362Y-87370100D01*
X175223368Y-87370100D01*
X176820632Y-87370100D01*
X176820638Y-87370100D01*
X176820645Y-87370099D01*
X176820649Y-87370099D01*
X176881196Y-87363590D01*
X176881199Y-87363589D01*
X176881201Y-87363589D01*
X177018204Y-87312489D01*
X177018799Y-87312044D01*
X177135261Y-87224861D01*
X177222887Y-87107807D01*
X177222887Y-87107806D01*
X177222889Y-87107804D01*
X177273989Y-86970801D01*
X177280499Y-86910249D01*
X179663500Y-86910249D01*
X179670009Y-86970796D01*
X179670011Y-86970804D01*
X179721110Y-87107802D01*
X179721112Y-87107807D01*
X179808738Y-87224861D01*
X179925792Y-87312487D01*
X179925794Y-87312488D01*
X179925796Y-87312489D01*
X179984875Y-87334524D01*
X180062795Y-87363588D01*
X180062803Y-87363590D01*
X180123350Y-87370099D01*
X180123355Y-87370099D01*
X180123362Y-87370100D01*
X180882406Y-87370100D01*
X180950527Y-87390102D01*
X180971501Y-87407005D01*
X183614753Y-90050257D01*
X183624720Y-90062697D01*
X183624947Y-90062510D01*
X183629999Y-90068617D01*
X183680388Y-90115935D01*
X183681777Y-90117281D01*
X183692018Y-90127522D01*
X183702226Y-90137731D01*
X183707768Y-90142030D01*
X183712281Y-90145885D01*
X183746679Y-90178186D01*
X183746680Y-90178186D01*
X183746682Y-90178188D01*
X183764429Y-90187944D01*
X183780959Y-90198802D01*
X183796959Y-90211213D01*
X183828136Y-90224704D01*
X183840251Y-90229947D01*
X183845585Y-90232559D01*
X183886940Y-90255295D01*
X183906562Y-90260333D01*
X183925263Y-90266735D01*
X183943855Y-90274781D01*
X183990470Y-90282163D01*
X183996242Y-90283358D01*
X184041970Y-90295100D01*
X184062231Y-90295100D01*
X184081939Y-90296650D01*
X184101943Y-90299819D01*
X184135459Y-90296651D01*
X184148910Y-90295380D01*
X184154842Y-90295100D01*
X185156591Y-90295100D01*
X185224712Y-90315102D01*
X185271205Y-90368758D01*
X185274646Y-90377066D01*
X185286111Y-90407804D01*
X185286112Y-90407807D01*
X185373738Y-90524861D01*
X185490792Y-90612487D01*
X185490794Y-90612488D01*
X185490796Y-90612489D01*
X185533723Y-90628500D01*
X185627795Y-90663588D01*
X185627803Y-90663590D01*
X185688350Y-90670099D01*
X185688355Y-90670099D01*
X185688362Y-90670100D01*
X185688368Y-90670100D01*
X187285632Y-90670100D01*
X187285638Y-90670100D01*
X187285645Y-90670099D01*
X187285649Y-90670099D01*
X187346196Y-90663590D01*
X187346199Y-90663589D01*
X187346201Y-90663589D01*
X187483204Y-90612489D01*
X187483799Y-90612044D01*
X187600261Y-90524861D01*
X187687887Y-90407807D01*
X187687887Y-90407806D01*
X187687889Y-90407804D01*
X187738989Y-90270801D01*
X187739850Y-90262799D01*
X187745499Y-90210249D01*
X187745500Y-90210232D01*
X187745500Y-89965600D01*
X190129000Y-89965600D01*
X190129000Y-90210197D01*
X190135505Y-90270693D01*
X190186555Y-90407564D01*
X190186555Y-90407565D01*
X190274095Y-90524504D01*
X190391034Y-90612044D01*
X190527906Y-90663094D01*
X190588402Y-90669599D01*
X190588415Y-90669600D01*
X191133000Y-90669600D01*
X191133000Y-89965600D01*
X191641000Y-89965600D01*
X191641000Y-90669600D01*
X192185585Y-90669600D01*
X192185597Y-90669599D01*
X192246093Y-90663094D01*
X192382964Y-90612044D01*
X192382965Y-90612044D01*
X192499904Y-90524504D01*
X192587444Y-90407565D01*
X192587444Y-90407564D01*
X192638494Y-90270693D01*
X192644999Y-90210197D01*
X192645000Y-90210185D01*
X192645000Y-89965600D01*
X191641000Y-89965600D01*
X191133000Y-89965600D01*
X190129000Y-89965600D01*
X187745500Y-89965600D01*
X187745500Y-89457600D01*
X190129000Y-89457600D01*
X191133000Y-89457600D01*
X191133000Y-88753600D01*
X191641000Y-88753600D01*
X191641000Y-89457600D01*
X192645000Y-89457600D01*
X192645000Y-89213014D01*
X192644999Y-89213002D01*
X192638494Y-89152506D01*
X192587444Y-89015635D01*
X192587444Y-89015634D01*
X192499904Y-88898695D01*
X192382965Y-88811155D01*
X192246093Y-88760105D01*
X192185597Y-88753600D01*
X191641000Y-88753600D01*
X191133000Y-88753600D01*
X190588402Y-88753600D01*
X190527906Y-88760105D01*
X190391035Y-88811155D01*
X190391034Y-88811155D01*
X190274095Y-88898695D01*
X190186555Y-89015634D01*
X190186555Y-89015635D01*
X190135505Y-89152506D01*
X190129000Y-89213002D01*
X190129000Y-89457600D01*
X187745500Y-89457600D01*
X187745500Y-89212967D01*
X187745499Y-89212950D01*
X187738990Y-89152403D01*
X187738988Y-89152395D01*
X187692627Y-89028100D01*
X187687889Y-89015396D01*
X187687888Y-89015394D01*
X187687887Y-89015392D01*
X187600261Y-88898338D01*
X187483207Y-88810712D01*
X187483202Y-88810710D01*
X187346204Y-88759611D01*
X187346196Y-88759609D01*
X187285649Y-88753100D01*
X187285638Y-88753100D01*
X185688362Y-88753100D01*
X185688350Y-88753100D01*
X185627803Y-88759609D01*
X185627795Y-88759611D01*
X185490797Y-88810710D01*
X185490792Y-88810712D01*
X185373738Y-88898338D01*
X185314398Y-88977609D01*
X185257563Y-89020156D01*
X185213530Y-89028100D01*
X184436595Y-89028100D01*
X184368474Y-89008098D01*
X184347500Y-88991195D01*
X182217405Y-86861100D01*
X182183379Y-86798788D01*
X182180500Y-86772005D01*
X182180500Y-85912967D01*
X182180499Y-85912950D01*
X182173990Y-85852403D01*
X182173988Y-85852395D01*
X182122889Y-85715397D01*
X182122887Y-85715392D01*
X182035261Y-85598338D01*
X181918207Y-85510712D01*
X181918202Y-85510710D01*
X181781204Y-85459611D01*
X181781196Y-85459609D01*
X181720649Y-85453100D01*
X181720638Y-85453100D01*
X180123362Y-85453100D01*
X180123350Y-85453100D01*
X180062803Y-85459609D01*
X180062795Y-85459611D01*
X179925797Y-85510710D01*
X179925792Y-85510712D01*
X179808738Y-85598338D01*
X179721112Y-85715392D01*
X179721110Y-85715397D01*
X179670011Y-85852395D01*
X179670009Y-85852403D01*
X179663500Y-85912950D01*
X179663500Y-86910249D01*
X177280499Y-86910249D01*
X177280500Y-86910238D01*
X177280500Y-85912962D01*
X177280499Y-85912950D01*
X177273990Y-85852403D01*
X177273988Y-85852395D01*
X177222889Y-85715397D01*
X177222887Y-85715392D01*
X177135261Y-85598338D01*
X177018207Y-85510712D01*
X177018202Y-85510710D01*
X176881198Y-85459609D01*
X176877512Y-85458738D01*
X176874951Y-85457279D01*
X176873816Y-85456856D01*
X176873884Y-85456671D01*
X176815820Y-85423600D01*
X176782919Y-85360687D01*
X176780500Y-85336118D01*
X176780500Y-85121315D01*
X176800502Y-85053194D01*
X176817406Y-85032218D01*
X176818665Y-85030960D01*
X176908682Y-84885021D01*
X176916509Y-84861400D01*
X183986720Y-84861400D01*
X183986720Y-84906252D01*
X183996975Y-85006629D01*
X183996977Y-85006641D01*
X184050872Y-85169284D01*
X184140829Y-85315128D01*
X184140834Y-85315134D01*
X184261985Y-85436285D01*
X184261991Y-85436290D01*
X184407835Y-85526247D01*
X184570478Y-85580142D01*
X184570490Y-85580144D01*
X184670867Y-85590399D01*
X184670867Y-85590400D01*
X184690720Y-85590400D01*
X185198720Y-85590400D01*
X185218447Y-85610128D01*
X185219379Y-85610402D01*
X185223649Y-85615330D01*
X185235624Y-85627305D01*
X185234767Y-85628161D01*
X185265872Y-85664058D01*
X185275976Y-85734332D01*
X185269313Y-85760434D01*
X185235011Y-85852398D01*
X185235009Y-85852403D01*
X185228500Y-85912950D01*
X185228500Y-86910249D01*
X185235009Y-86970796D01*
X185235011Y-86970804D01*
X185286110Y-87107802D01*
X185286112Y-87107807D01*
X185373738Y-87224861D01*
X185490792Y-87312487D01*
X185490794Y-87312488D01*
X185490796Y-87312489D01*
X185549875Y-87334524D01*
X185627795Y-87363588D01*
X185627803Y-87363590D01*
X185688350Y-87370099D01*
X185688355Y-87370099D01*
X185688362Y-87370100D01*
X185688368Y-87370100D01*
X187285632Y-87370100D01*
X187285638Y-87370100D01*
X187285645Y-87370099D01*
X187285649Y-87370099D01*
X187346196Y-87363590D01*
X187346199Y-87363589D01*
X187346201Y-87363589D01*
X187483204Y-87312489D01*
X187483799Y-87312044D01*
X187600261Y-87224861D01*
X187687887Y-87107807D01*
X187687887Y-87107806D01*
X187687889Y-87107804D01*
X187738989Y-86970801D01*
X187745499Y-86910249D01*
X190128500Y-86910249D01*
X190135009Y-86970796D01*
X190135011Y-86970804D01*
X190186110Y-87107802D01*
X190186112Y-87107807D01*
X190273738Y-87224861D01*
X190390792Y-87312487D01*
X190390794Y-87312488D01*
X190390796Y-87312489D01*
X190449875Y-87334524D01*
X190527795Y-87363588D01*
X190527803Y-87363590D01*
X190588350Y-87370099D01*
X190588355Y-87370099D01*
X190588362Y-87370100D01*
X190588368Y-87370100D01*
X192185632Y-87370100D01*
X192185638Y-87370100D01*
X192185645Y-87370099D01*
X192185649Y-87370099D01*
X192246196Y-87363590D01*
X192246199Y-87363589D01*
X192246201Y-87363589D01*
X192383204Y-87312489D01*
X192383799Y-87312044D01*
X192500261Y-87224861D01*
X192587887Y-87107807D01*
X192587887Y-87107806D01*
X192587889Y-87107804D01*
X192638989Y-86970801D01*
X192645500Y-86910238D01*
X192645500Y-86665600D01*
X193408000Y-86665600D01*
X193408000Y-86910197D01*
X193414505Y-86970693D01*
X193465555Y-87107564D01*
X193465555Y-87107565D01*
X193553095Y-87224504D01*
X193670034Y-87312044D01*
X193806906Y-87363094D01*
X193867402Y-87369599D01*
X193867415Y-87369600D01*
X194412000Y-87369600D01*
X194412000Y-86665600D01*
X194920000Y-86665600D01*
X194920000Y-87369600D01*
X195464585Y-87369600D01*
X195464597Y-87369599D01*
X195525093Y-87363094D01*
X195661964Y-87312044D01*
X195661965Y-87312044D01*
X195778904Y-87224504D01*
X195866444Y-87107565D01*
X195866444Y-87107564D01*
X195917494Y-86970693D01*
X195923999Y-86910197D01*
X195924000Y-86910185D01*
X195924000Y-86665600D01*
X194920000Y-86665600D01*
X194412000Y-86665600D01*
X193408000Y-86665600D01*
X192645500Y-86665600D01*
X192645500Y-86396099D01*
X192665502Y-86327978D01*
X192719158Y-86281485D01*
X192771500Y-86270099D01*
X198181500Y-86270099D01*
X198249621Y-86290101D01*
X198296114Y-86343757D01*
X198307500Y-86396099D01*
X198307500Y-86910249D01*
X198314009Y-86970796D01*
X198314011Y-86970804D01*
X198365110Y-87107802D01*
X198365112Y-87107807D01*
X198452738Y-87224861D01*
X198569792Y-87312487D01*
X198569794Y-87312488D01*
X198569796Y-87312489D01*
X198628875Y-87334524D01*
X198706795Y-87363588D01*
X198706803Y-87363590D01*
X198767350Y-87370099D01*
X198767355Y-87370099D01*
X198767362Y-87370100D01*
X198767368Y-87370100D01*
X200364632Y-87370100D01*
X200364638Y-87370100D01*
X200364645Y-87370099D01*
X200364649Y-87370099D01*
X200425196Y-87363590D01*
X200425199Y-87363589D01*
X200425201Y-87363589D01*
X200562204Y-87312489D01*
X200562799Y-87312044D01*
X200679261Y-87224861D01*
X200766887Y-87107807D01*
X200766887Y-87107806D01*
X200766889Y-87107804D01*
X200817989Y-86970801D01*
X200824500Y-86910238D01*
X200824500Y-85912962D01*
X200824499Y-85912950D01*
X200817990Y-85852403D01*
X200817988Y-85852395D01*
X200766889Y-85715397D01*
X200766887Y-85715392D01*
X200679261Y-85598338D01*
X200562207Y-85510712D01*
X200562202Y-85510710D01*
X200425204Y-85459611D01*
X200425196Y-85459609D01*
X200364649Y-85453100D01*
X200364638Y-85453100D01*
X199505596Y-85453100D01*
X199437475Y-85433098D01*
X199416501Y-85416196D01*
X199248244Y-85247940D01*
X199238279Y-85235501D01*
X199238052Y-85235690D01*
X199232998Y-85229580D01*
X199182625Y-85182277D01*
X199181235Y-85180930D01*
X199169589Y-85169284D01*
X199160775Y-85160469D01*
X199160771Y-85160465D01*
X199155224Y-85156162D01*
X199150716Y-85152311D01*
X199116324Y-85120016D01*
X199116318Y-85120012D01*
X199098562Y-85110250D01*
X199082046Y-85099401D01*
X199066040Y-85086985D01*
X199025842Y-85069590D01*
X199022739Y-85068247D01*
X199017407Y-85065635D01*
X198976060Y-85042904D01*
X198956435Y-85037865D01*
X198937735Y-85031463D01*
X198936568Y-85030958D01*
X198919144Y-85023418D01*
X198919142Y-85023417D01*
X198919141Y-85023417D01*
X198872541Y-85016036D01*
X198866728Y-85014832D01*
X198821029Y-85003099D01*
X198800775Y-85003099D01*
X198781065Y-85001548D01*
X198761056Y-84998379D01*
X198761055Y-84998379D01*
X198714082Y-85002819D01*
X198708149Y-85003099D01*
X192295855Y-85003099D01*
X192280013Y-85001349D01*
X192279986Y-85001643D01*
X192272093Y-85000896D01*
X192203014Y-85003068D01*
X192201035Y-85003099D01*
X192172145Y-85003099D01*
X192172141Y-85003099D01*
X192172130Y-85003100D01*
X192165191Y-85003976D01*
X192159278Y-85004442D01*
X192112112Y-85005924D01*
X192092651Y-85011578D01*
X192073305Y-85015584D01*
X192053205Y-85018124D01*
X192053204Y-85018124D01*
X192009336Y-85035492D01*
X192003721Y-85037414D01*
X191958414Y-85050577D01*
X191958405Y-85050581D01*
X191940963Y-85060896D01*
X191923216Y-85069590D01*
X191904384Y-85077046D01*
X191904382Y-85077047D01*
X191866215Y-85104777D01*
X191861255Y-85108035D01*
X191820637Y-85132058D01*
X191820634Y-85132060D01*
X191806313Y-85146382D01*
X191791284Y-85159218D01*
X191774894Y-85171126D01*
X191744814Y-85207485D01*
X191740819Y-85211875D01*
X191536501Y-85416195D01*
X191474189Y-85450220D01*
X191447405Y-85453100D01*
X190588350Y-85453100D01*
X190527803Y-85459609D01*
X190527795Y-85459611D01*
X190390797Y-85510710D01*
X190390792Y-85510712D01*
X190273738Y-85598338D01*
X190186112Y-85715392D01*
X190186110Y-85715397D01*
X190135011Y-85852395D01*
X190135009Y-85852403D01*
X190128500Y-85912950D01*
X190128500Y-86910249D01*
X187745499Y-86910249D01*
X187745500Y-86910238D01*
X187745500Y-85912962D01*
X187745499Y-85912950D01*
X187738990Y-85852403D01*
X187738988Y-85852395D01*
X187687889Y-85715397D01*
X187687887Y-85715392D01*
X187600261Y-85598338D01*
X187483207Y-85510712D01*
X187483204Y-85510711D01*
X187379290Y-85471952D01*
X187322455Y-85429405D01*
X187297645Y-85362884D01*
X187312737Y-85293510D01*
X187316065Y-85287781D01*
X187389022Y-85169501D01*
X187442956Y-85006736D01*
X187445755Y-84979336D01*
X187453220Y-84906280D01*
X187453220Y-84308519D01*
X187442967Y-84208170D01*
X187442956Y-84208064D01*
X187389022Y-84045299D01*
X187299005Y-83899360D01*
X187299004Y-83899359D01*
X187298999Y-83899353D01*
X187292133Y-83892487D01*
X187258107Y-83830175D01*
X187255228Y-83803083D01*
X187256656Y-83231250D01*
X187259686Y-83220000D01*
X205236693Y-83220000D01*
X205255885Y-83439370D01*
X205312879Y-83652073D01*
X205312881Y-83652079D01*
X205383292Y-83803077D01*
X205405944Y-83851654D01*
X205526650Y-84024039D01*
X205532251Y-84032038D01*
X205532254Y-84032042D01*
X205687957Y-84187745D01*
X205687961Y-84187748D01*
X205687962Y-84187749D01*
X205868346Y-84314056D01*
X206067924Y-84407120D01*
X206280629Y-84464115D01*
X206500000Y-84483307D01*
X206719371Y-84464115D01*
X206932076Y-84407120D01*
X207131654Y-84314056D01*
X207312038Y-84187749D01*
X207467749Y-84032038D01*
X207594056Y-83851654D01*
X207687120Y-83652076D01*
X207744115Y-83439371D01*
X207763307Y-83220000D01*
X207744115Y-83000629D01*
X207687120Y-82787924D01*
X207594056Y-82588347D01*
X207467749Y-82407962D01*
X207312038Y-82252251D01*
X207131654Y-82125944D01*
X207131650Y-82125942D01*
X206932079Y-82032881D01*
X206932073Y-82032879D01*
X206842178Y-82008791D01*
X206719371Y-81975885D01*
X206500000Y-81956693D01*
X206280629Y-81975885D01*
X206067926Y-82032879D01*
X206067920Y-82032881D01*
X205868346Y-82125944D01*
X205687965Y-82252248D01*
X205687959Y-82252253D01*
X205532253Y-82407959D01*
X205532248Y-82407965D01*
X205405944Y-82588346D01*
X205312881Y-82787920D01*
X205312879Y-82787926D01*
X205255885Y-83000629D01*
X205236693Y-83220000D01*
X187259686Y-83220000D01*
X187273538Y-83168565D01*
X187334024Y-83063801D01*
X187334023Y-83063801D01*
X187334027Y-83063796D01*
X187393042Y-82882168D01*
X187413004Y-82692240D01*
X187393042Y-82502312D01*
X187334027Y-82320684D01*
X187238540Y-82155296D01*
X187238538Y-82155294D01*
X187238534Y-82155288D01*
X187110755Y-82013375D01*
X186956252Y-81901122D01*
X186781788Y-81823446D01*
X186594987Y-81783740D01*
X186404013Y-81783740D01*
X186217211Y-81823446D01*
X186042747Y-81901122D01*
X185888244Y-82013375D01*
X185760465Y-82155288D01*
X185760458Y-82155298D01*
X185664976Y-82320678D01*
X185664973Y-82320685D01*
X185605957Y-82502312D01*
X185585996Y-82692240D01*
X185605957Y-82882167D01*
X185634548Y-82970159D01*
X185664973Y-83063796D01*
X185664976Y-83063801D01*
X185722781Y-83163922D01*
X185739662Y-83227237D01*
X185738677Y-83621673D01*
X185718505Y-83689743D01*
X185664733Y-83736102D01*
X185594434Y-83746030D01*
X185546530Y-83728599D01*
X185481604Y-83688552D01*
X185318961Y-83634657D01*
X185318949Y-83634655D01*
X185218572Y-83624400D01*
X185198720Y-83624400D01*
X185198720Y-85590400D01*
X184690720Y-85590400D01*
X184690720Y-84861400D01*
X183986720Y-84861400D01*
X176916509Y-84861400D01*
X176962616Y-84722256D01*
X176965415Y-84694856D01*
X176972880Y-84621800D01*
X176972880Y-84353400D01*
X183986720Y-84353400D01*
X184690720Y-84353400D01*
X184690720Y-83624400D01*
X184670867Y-83624400D01*
X184570490Y-83634655D01*
X184570478Y-83634657D01*
X184407835Y-83688552D01*
X184261991Y-83778509D01*
X184261985Y-83778514D01*
X184140834Y-83899665D01*
X184140829Y-83899671D01*
X184050872Y-84045515D01*
X183996977Y-84208158D01*
X183996975Y-84208170D01*
X183986720Y-84308547D01*
X183986720Y-84353400D01*
X176972880Y-84353400D01*
X176972880Y-84024039D01*
X176962627Y-83923690D01*
X176962616Y-83923584D01*
X176908682Y-83760819D01*
X176818665Y-83614880D01*
X176818664Y-83614879D01*
X176818659Y-83614873D01*
X176809784Y-83605998D01*
X176775758Y-83543686D01*
X176772879Y-83516903D01*
X176772879Y-83335362D01*
X176772879Y-82970155D01*
X176789759Y-82907161D01*
X176848907Y-82804716D01*
X176907922Y-82623088D01*
X176927884Y-82433160D01*
X176907922Y-82243232D01*
X176848907Y-82061604D01*
X176753420Y-81896216D01*
X176753418Y-81896214D01*
X176753414Y-81896208D01*
X176625635Y-81754295D01*
X176471132Y-81642042D01*
X176296668Y-81564366D01*
X176109867Y-81524660D01*
X175918893Y-81524660D01*
X175732091Y-81564366D01*
X175557627Y-81642042D01*
X175403124Y-81754295D01*
X175275345Y-81896208D01*
X175275338Y-81896218D01*
X175179856Y-82061598D01*
X175179853Y-82061605D01*
X175120837Y-82243232D01*
X175100876Y-82433160D01*
X175120837Y-82623087D01*
X175143307Y-82692240D01*
X175179853Y-82804716D01*
X175238999Y-82907160D01*
X175255880Y-82970159D01*
X175255880Y-83335362D01*
X175235878Y-83403483D01*
X175182222Y-83449976D01*
X175111948Y-83460080D01*
X175063734Y-83442603D01*
X175001268Y-83404074D01*
X175001265Y-83404073D01*
X174838621Y-83350177D01*
X174838609Y-83350175D01*
X174738232Y-83339920D01*
X174718380Y-83339920D01*
X174718380Y-85305920D01*
X174210380Y-85305920D01*
X174210380Y-84576920D01*
X173506380Y-84576920D01*
X161063500Y-84576920D01*
X161063500Y-84068920D01*
X173506380Y-84068920D01*
X174210380Y-84068920D01*
X174210380Y-83339920D01*
X174190527Y-83339920D01*
X174090150Y-83350175D01*
X174090138Y-83350177D01*
X173927495Y-83404072D01*
X173781651Y-83494029D01*
X173781645Y-83494034D01*
X173660494Y-83615185D01*
X173660489Y-83615191D01*
X173570532Y-83761035D01*
X173516637Y-83923678D01*
X173516635Y-83923690D01*
X173506380Y-84024067D01*
X173506380Y-84068920D01*
X161063500Y-84068920D01*
X161063500Y-81698354D01*
X161083502Y-81630233D01*
X161117230Y-81595141D01*
X161174414Y-81555099D01*
X161242038Y-81507749D01*
X161397749Y-81352038D01*
X161524056Y-81171654D01*
X161617120Y-80972076D01*
X161674115Y-80759371D01*
X161693307Y-80540000D01*
X161674115Y-80320629D01*
X161617120Y-80107924D01*
X161524056Y-79908347D01*
X161397749Y-79727962D01*
X161242038Y-79572251D01*
X161117226Y-79484856D01*
X161072900Y-79429400D01*
X161063500Y-79381645D01*
X161063500Y-74108068D01*
X193425739Y-74108068D01*
X193445391Y-74432961D01*
X193445392Y-74432964D01*
X193504062Y-74753120D01*
X193600899Y-75063882D01*
X193734477Y-75360679D01*
X193734480Y-75360685D01*
X193902870Y-75639238D01*
X194103609Y-75895461D01*
X194103614Y-75895467D01*
X194333756Y-76125609D01*
X194333762Y-76125614D01*
X194333764Y-76125616D01*
X194589985Y-76326353D01*
X194868534Y-76494741D01*
X194868536Y-76494742D01*
X194868538Y-76494743D01*
X194868544Y-76494746D01*
X195165341Y-76628324D01*
X195165345Y-76628325D01*
X195165349Y-76628327D01*
X195476101Y-76725161D01*
X195796260Y-76783832D01*
X195958656Y-76793655D01*
X196039853Y-76798567D01*
X196039854Y-76798567D01*
X196202461Y-76798567D01*
X196263358Y-76794883D01*
X196446054Y-76783832D01*
X196766213Y-76725161D01*
X197076965Y-76628327D01*
X197373780Y-76494741D01*
X197652329Y-76326353D01*
X197786550Y-76221197D01*
X205748012Y-76221197D01*
X205808600Y-76263622D01*
X206008092Y-76356647D01*
X206008096Y-76356649D01*
X206220712Y-76413619D01*
X206439999Y-76432804D01*
X206659287Y-76413619D01*
X206871903Y-76356649D01*
X206871912Y-76356645D01*
X207071405Y-76263619D01*
X207071412Y-76263615D01*
X207131986Y-76221198D01*
X207131986Y-76221197D01*
X206440000Y-75529210D01*
X206439999Y-75529210D01*
X205748012Y-76221196D01*
X205748012Y-76221197D01*
X197786550Y-76221197D01*
X197908550Y-76125616D01*
X198138706Y-75895460D01*
X198339443Y-75639239D01*
X198507831Y-75360690D01*
X198593654Y-75170000D01*
X205177195Y-75170000D01*
X205196380Y-75389287D01*
X205253350Y-75601903D01*
X205253352Y-75601907D01*
X205346378Y-75801402D01*
X205388801Y-75861986D01*
X206051486Y-75199302D01*
X206086372Y-75199302D01*
X206115047Y-75312538D01*
X206178936Y-75410327D01*
X206271115Y-75482072D01*
X206381595Y-75520000D01*
X206469005Y-75520000D01*
X206555216Y-75505614D01*
X206657947Y-75450019D01*
X206737060Y-75364079D01*
X206783982Y-75257108D01*
X206791200Y-75169999D01*
X206799210Y-75169999D01*
X207491197Y-75861986D01*
X207491198Y-75861986D01*
X207533615Y-75801412D01*
X207533619Y-75801405D01*
X207626645Y-75601912D01*
X207626649Y-75601903D01*
X207683619Y-75389287D01*
X207702804Y-75170000D01*
X207683619Y-74950712D01*
X207626649Y-74738096D01*
X207626647Y-74738092D01*
X207533621Y-74538598D01*
X207491198Y-74478012D01*
X207491196Y-74478012D01*
X206799210Y-75169998D01*
X206799210Y-75169999D01*
X206791200Y-75169999D01*
X206793628Y-75140698D01*
X206764953Y-75027462D01*
X206701064Y-74929673D01*
X206608885Y-74857928D01*
X206498405Y-74820000D01*
X206410995Y-74820000D01*
X206324784Y-74834386D01*
X206222053Y-74889981D01*
X206142940Y-74975921D01*
X206096018Y-75082892D01*
X206086372Y-75199302D01*
X206051486Y-75199302D01*
X206080789Y-75169999D01*
X205388801Y-74478011D01*
X205346378Y-74538598D01*
X205253352Y-74738092D01*
X205253350Y-74738096D01*
X205196380Y-74950712D01*
X205177195Y-75170000D01*
X198593654Y-75170000D01*
X198641417Y-75063875D01*
X198738251Y-74753123D01*
X198796922Y-74432964D01*
X198815926Y-74118801D01*
X205748011Y-74118801D01*
X206439999Y-74810789D01*
X206440000Y-74810789D01*
X207131986Y-74118801D01*
X207131986Y-74118800D01*
X207071401Y-74076378D01*
X207071402Y-74076378D01*
X206871907Y-73983352D01*
X206871903Y-73983350D01*
X206659287Y-73926380D01*
X206440000Y-73907195D01*
X206220712Y-73926380D01*
X206008096Y-73983350D01*
X206008092Y-73983352D01*
X205808598Y-74076378D01*
X205748011Y-74118801D01*
X198815926Y-74118801D01*
X198816575Y-74108067D01*
X198796922Y-73783170D01*
X198738251Y-73463011D01*
X198641417Y-73152259D01*
X198641415Y-73152255D01*
X198641414Y-73152251D01*
X198507836Y-72855454D01*
X198507833Y-72855448D01*
X198339443Y-72576895D01*
X198138704Y-72320672D01*
X198138699Y-72320666D01*
X197908557Y-72090524D01*
X197908551Y-72090519D01*
X197652328Y-71889780D01*
X197373775Y-71721390D01*
X197373769Y-71721387D01*
X197076972Y-71587809D01*
X196766210Y-71490972D01*
X196446054Y-71432302D01*
X196446051Y-71432301D01*
X196202461Y-71417567D01*
X196202460Y-71417567D01*
X196039854Y-71417567D01*
X196039853Y-71417567D01*
X195796262Y-71432301D01*
X195796259Y-71432302D01*
X195476103Y-71490972D01*
X195165341Y-71587809D01*
X194868544Y-71721387D01*
X194868538Y-71721390D01*
X194589985Y-71889780D01*
X194333762Y-72090519D01*
X194333756Y-72090524D01*
X194103614Y-72320666D01*
X194103609Y-72320672D01*
X193902870Y-72576895D01*
X193734480Y-72855448D01*
X193734477Y-72855454D01*
X193600899Y-73152251D01*
X193504062Y-73463013D01*
X193445392Y-73783169D01*
X193445391Y-73783172D01*
X193425739Y-74108065D01*
X193425739Y-74108068D01*
X161063500Y-74108068D01*
X161063500Y-69474080D01*
X181258660Y-69474080D01*
X181258660Y-69518932D01*
X181268915Y-69619309D01*
X181268917Y-69619321D01*
X181322812Y-69781964D01*
X181412769Y-69927808D01*
X181412774Y-69927814D01*
X181533925Y-70048965D01*
X181533931Y-70048970D01*
X181679775Y-70138927D01*
X181842418Y-70192822D01*
X181842430Y-70192824D01*
X181942807Y-70203079D01*
X181942807Y-70203080D01*
X181962660Y-70203080D01*
X182470660Y-70203080D01*
X182490513Y-70203080D01*
X182490512Y-70203079D01*
X182590889Y-70192824D01*
X182590901Y-70192822D01*
X182753545Y-70138926D01*
X182818328Y-70098968D01*
X182886807Y-70080230D01*
X182954546Y-70101488D01*
X183000038Y-70155995D01*
X183010469Y-70207503D01*
X183008444Y-70404463D01*
X182991571Y-70466167D01*
X182926852Y-70578264D01*
X182926850Y-70578269D01*
X182867837Y-70759891D01*
X182847876Y-70949819D01*
X182867837Y-71139747D01*
X182897906Y-71232290D01*
X182926853Y-71321376D01*
X182926856Y-71321381D01*
X183022338Y-71486761D01*
X183022345Y-71486771D01*
X183150124Y-71628684D01*
X183150127Y-71628686D01*
X183304628Y-71740938D01*
X183479092Y-71818614D01*
X183665893Y-71858320D01*
X183856867Y-71858320D01*
X184043668Y-71818614D01*
X184218132Y-71740938D01*
X184372633Y-71628686D01*
X184409441Y-71587807D01*
X184500414Y-71486771D01*
X184500415Y-71486769D01*
X184500420Y-71486764D01*
X184595907Y-71321376D01*
X184654922Y-71139748D01*
X184674884Y-70949820D01*
X184654922Y-70759892D01*
X184595907Y-70578264D01*
X184542228Y-70485291D01*
X184525355Y-70420996D01*
X184526726Y-70287601D01*
X184529472Y-70020494D01*
X184550173Y-69952583D01*
X184566370Y-69932694D01*
X184570945Y-69928120D01*
X184660962Y-69782181D01*
X184714896Y-69619416D01*
X184717695Y-69592016D01*
X184725160Y-69518960D01*
X184725160Y-68921199D01*
X184714907Y-68820850D01*
X184714896Y-68820744D01*
X184660962Y-68657979D01*
X184588062Y-68539791D01*
X184569326Y-68471314D01*
X184590585Y-68403575D01*
X184594423Y-68398154D01*
X184645889Y-68329404D01*
X184689960Y-68211245D01*
X184696988Y-68192404D01*
X184696990Y-68192396D01*
X184703499Y-68131849D01*
X184703500Y-68131832D01*
X184703500Y-66534567D01*
X184703499Y-66534550D01*
X184696990Y-66474003D01*
X184696988Y-66473995D01*
X184645889Y-66336997D01*
X184645887Y-66336992D01*
X184558261Y-66219938D01*
X184441207Y-66132312D01*
X184441202Y-66132310D01*
X184304204Y-66081211D01*
X184304196Y-66081209D01*
X184243649Y-66074700D01*
X184243638Y-66074700D01*
X183246362Y-66074700D01*
X183246350Y-66074700D01*
X183185803Y-66081209D01*
X183185795Y-66081211D01*
X183048797Y-66132310D01*
X183048792Y-66132312D01*
X182931738Y-66219938D01*
X182844112Y-66336992D01*
X182844110Y-66336997D01*
X182793011Y-66473995D01*
X182793009Y-66474003D01*
X182786500Y-66534550D01*
X182786500Y-68135212D01*
X182785457Y-68135212D01*
X182770107Y-68200089D01*
X182719002Y-68249372D01*
X182649366Y-68263202D01*
X182621002Y-68257312D01*
X182590899Y-68247337D01*
X182590889Y-68247335D01*
X182490512Y-68237080D01*
X182470660Y-68237080D01*
X182470660Y-70203080D01*
X181962660Y-70203080D01*
X181962660Y-69474080D01*
X181258660Y-69474080D01*
X161063500Y-69474080D01*
X161063500Y-68966080D01*
X181258660Y-68966080D01*
X181962660Y-68966080D01*
X181962660Y-68237080D01*
X181942807Y-68237080D01*
X181842430Y-68247335D01*
X181842418Y-68247337D01*
X181679775Y-68301232D01*
X181533931Y-68391189D01*
X181533925Y-68391194D01*
X181412774Y-68512345D01*
X181412769Y-68512351D01*
X181322812Y-68658195D01*
X181268917Y-68820838D01*
X181268915Y-68820850D01*
X181258660Y-68921227D01*
X181258660Y-68966080D01*
X161063500Y-68966080D01*
X161063500Y-64926313D01*
X161083502Y-64858192D01*
X161100400Y-64837223D01*
X161394205Y-64543418D01*
X162604132Y-64543418D01*
X162633887Y-64813835D01*
X162633888Y-64813840D01*
X162702697Y-65077040D01*
X162765742Y-65225395D01*
X162809097Y-65327418D01*
X162950818Y-65559637D01*
X163124841Y-65768747D01*
X163124843Y-65768749D01*
X163124845Y-65768751D01*
X163327445Y-65950282D01*
X163327451Y-65950287D01*
X163327456Y-65950291D01*
X163554344Y-66100399D01*
X163800671Y-66215872D01*
X164061185Y-66294249D01*
X164123507Y-66303421D01*
X164330331Y-66333860D01*
X164330335Y-66333860D01*
X165134280Y-66333860D01*
X165337684Y-66318973D01*
X165603224Y-66259821D01*
X165857323Y-66162637D01*
X166094563Y-66029491D01*
X166309889Y-65863221D01*
X166498712Y-65667372D01*
X166657006Y-65446117D01*
X166709129Y-65344738D01*
X166781398Y-65204172D01*
X166781399Y-65204169D01*
X166796464Y-65160011D01*
X166869238Y-64946694D01*
X166882310Y-64875926D01*
X166889459Y-64837218D01*
X166918652Y-64679170D01*
X166928588Y-64407302D01*
X166908128Y-64221360D01*
X168108360Y-64221360D01*
X169609117Y-64221360D01*
X169607042Y-64225314D01*
X169566360Y-64390365D01*
X169566360Y-64560355D01*
X169607042Y-64725406D01*
X169609117Y-64729360D01*
X168108361Y-64729360D01*
X168108361Y-65625867D01*
X168118965Y-65729678D01*
X168174702Y-65897885D01*
X168267726Y-66048699D01*
X168267731Y-66048705D01*
X168393014Y-66173988D01*
X168393020Y-66173993D01*
X168543834Y-66267017D01*
X168712038Y-66322753D01*
X168712041Y-66322754D01*
X168815844Y-66333359D01*
X170012360Y-66333359D01*
X170012360Y-65127680D01*
X170097609Y-65160011D01*
X170224020Y-65175360D01*
X170308700Y-65175360D01*
X170435111Y-65160011D01*
X170520360Y-65127680D01*
X170520360Y-66333359D01*
X171716867Y-66333359D01*
X171820678Y-66322754D01*
X171988885Y-66267017D01*
X172139699Y-66173993D01*
X172139705Y-66173988D01*
X172264988Y-66048705D01*
X172264993Y-66048699D01*
X172358017Y-65897885D01*
X172413753Y-65729681D01*
X172413754Y-65729678D01*
X172424359Y-65625875D01*
X172424360Y-65625875D01*
X172424360Y-64800000D01*
X179746496Y-64800000D01*
X179766457Y-64989927D01*
X179770759Y-65003166D01*
X179825473Y-65171556D01*
X179845366Y-65206011D01*
X179920958Y-65336941D01*
X179920965Y-65336951D01*
X180048744Y-65478864D01*
X180109999Y-65523368D01*
X180203248Y-65591118D01*
X180377712Y-65668794D01*
X180564513Y-65708500D01*
X180755487Y-65708500D01*
X180942288Y-65668794D01*
X181116752Y-65591118D01*
X181271253Y-65478866D01*
X181286623Y-65461796D01*
X181399034Y-65336951D01*
X181399035Y-65336949D01*
X181399040Y-65336944D01*
X181494527Y-65171556D01*
X181553542Y-64989928D01*
X181570907Y-64824703D01*
X181597920Y-64759048D01*
X181607113Y-64748789D01*
X182784598Y-63571304D01*
X182846908Y-63537280D01*
X182917723Y-63542345D01*
X182949200Y-63559533D01*
X183048792Y-63634087D01*
X183048794Y-63634088D01*
X183048796Y-63634089D01*
X183107875Y-63656124D01*
X183185795Y-63685188D01*
X183185803Y-63685190D01*
X183246350Y-63691699D01*
X183246355Y-63691699D01*
X183246362Y-63691700D01*
X183246368Y-63691700D01*
X184243632Y-63691700D01*
X184243638Y-63691700D01*
X184243645Y-63691699D01*
X184243649Y-63691699D01*
X184304196Y-63685190D01*
X184304199Y-63685189D01*
X184304201Y-63685189D01*
X184441204Y-63634089D01*
X184441799Y-63633644D01*
X184558261Y-63546461D01*
X184645887Y-63429407D01*
X184645887Y-63429406D01*
X184645889Y-63429404D01*
X184696989Y-63292401D01*
X184697963Y-63283349D01*
X184703499Y-63231849D01*
X184703500Y-63231832D01*
X184703500Y-62687200D01*
X186087000Y-62687200D01*
X186087000Y-63231797D01*
X186093505Y-63292293D01*
X186144555Y-63429164D01*
X186144555Y-63429165D01*
X186232095Y-63546104D01*
X186349034Y-63633644D01*
X186485906Y-63684694D01*
X186546402Y-63691199D01*
X186546415Y-63691200D01*
X186791000Y-63691200D01*
X186791000Y-62687200D01*
X187299000Y-62687200D01*
X187299000Y-63691200D01*
X187543585Y-63691200D01*
X187543597Y-63691199D01*
X187604093Y-63684694D01*
X187740964Y-63633644D01*
X187740965Y-63633644D01*
X187857904Y-63546104D01*
X187945444Y-63429165D01*
X187945444Y-63429164D01*
X187996494Y-63292293D01*
X188002999Y-63231797D01*
X188003000Y-63231785D01*
X188003000Y-62687200D01*
X187299000Y-62687200D01*
X186791000Y-62687200D01*
X186087000Y-62687200D01*
X184703500Y-62687200D01*
X184703500Y-61634567D01*
X184703499Y-61634550D01*
X184696990Y-61574003D01*
X184696988Y-61573995D01*
X184645978Y-61437235D01*
X184645889Y-61436996D01*
X184645888Y-61436994D01*
X184645887Y-61436992D01*
X184558261Y-61319938D01*
X184441207Y-61232312D01*
X184441202Y-61232310D01*
X184304204Y-61181211D01*
X184304196Y-61181209D01*
X184243649Y-61174700D01*
X184243638Y-61174700D01*
X183246362Y-61174700D01*
X183246350Y-61174700D01*
X183185803Y-61181209D01*
X183185795Y-61181211D01*
X183048797Y-61232310D01*
X183048792Y-61232312D01*
X182931738Y-61319938D01*
X182844112Y-61436992D01*
X182844110Y-61436997D01*
X182793011Y-61573995D01*
X182793009Y-61574003D01*
X182786500Y-61634550D01*
X182786500Y-61762124D01*
X182766498Y-61830245D01*
X182725354Y-61868660D01*
X182725594Y-61868990D01*
X182722926Y-61870928D01*
X182721201Y-61872539D01*
X182719178Y-61873650D01*
X182681014Y-61901378D01*
X182676054Y-61904636D01*
X182635436Y-61928659D01*
X182635433Y-61928661D01*
X182621112Y-61942983D01*
X182606083Y-61955819D01*
X182589693Y-61967727D01*
X182559608Y-62004092D01*
X182555612Y-62008483D01*
X180709500Y-63854595D01*
X180647188Y-63888620D01*
X180620405Y-63891500D01*
X180564513Y-63891500D01*
X180377711Y-63931206D01*
X180203247Y-64008882D01*
X180048744Y-64121135D01*
X179920965Y-64263048D01*
X179920958Y-64263058D01*
X179825476Y-64428438D01*
X179825473Y-64428445D01*
X179766457Y-64610072D01*
X179746496Y-64800000D01*
X172424360Y-64800000D01*
X172424360Y-64729360D01*
X170923603Y-64729360D01*
X170925678Y-64725406D01*
X170966360Y-64560355D01*
X170966360Y-64390365D01*
X170925678Y-64225314D01*
X170923603Y-64221360D01*
X172424359Y-64221360D01*
X172424359Y-63324852D01*
X172413754Y-63221041D01*
X172358017Y-63052834D01*
X172264993Y-62902020D01*
X172264988Y-62902014D01*
X172139705Y-62776731D01*
X172139699Y-62776726D01*
X171988885Y-62683702D01*
X171820681Y-62627966D01*
X171820678Y-62627965D01*
X171716875Y-62617360D01*
X170520360Y-62617360D01*
X170520360Y-63823039D01*
X170435111Y-63790709D01*
X170308700Y-63775360D01*
X170224020Y-63775360D01*
X170097609Y-63790709D01*
X170012360Y-63823039D01*
X170012360Y-62617360D01*
X168815852Y-62617360D01*
X168712041Y-62627965D01*
X168543834Y-62683702D01*
X168393020Y-62776726D01*
X168393014Y-62776731D01*
X168267731Y-62902014D01*
X168267726Y-62902020D01*
X168174702Y-63052834D01*
X168118966Y-63221038D01*
X168118965Y-63221041D01*
X168108360Y-63324844D01*
X168108360Y-64221360D01*
X166908128Y-64221360D01*
X166898833Y-64136885D01*
X166830023Y-63873682D01*
X166723623Y-63623302D01*
X166581902Y-63391083D01*
X166407879Y-63181973D01*
X166407875Y-63181970D01*
X166407874Y-63181968D01*
X166205274Y-63000437D01*
X166205261Y-63000427D01*
X165978376Y-62850321D01*
X165892342Y-62809990D01*
X165732049Y-62734848D01*
X165471535Y-62656471D01*
X165471533Y-62656470D01*
X165471531Y-62656470D01*
X165471526Y-62656469D01*
X165202388Y-62616860D01*
X165202385Y-62616860D01*
X164398440Y-62616860D01*
X164195032Y-62631747D01*
X163929502Y-62690897D01*
X163929490Y-62690901D01*
X163675396Y-62788083D01*
X163564501Y-62850321D01*
X163472395Y-62902014D01*
X163438152Y-62921232D01*
X163438151Y-62921232D01*
X163222837Y-63087493D01*
X163222835Y-63087494D01*
X163034007Y-63283349D01*
X162875710Y-63504608D01*
X162875709Y-63504609D01*
X162751321Y-63746547D01*
X162751320Y-63746550D01*
X162663483Y-64004021D01*
X162663479Y-64004034D01*
X162614067Y-64271553D01*
X162604132Y-64543418D01*
X161394205Y-64543418D01*
X163840487Y-62097136D01*
X163902797Y-62063112D01*
X163965879Y-62065575D01*
X164061185Y-62094249D01*
X164123507Y-62103421D01*
X164330331Y-62133860D01*
X164330335Y-62133860D01*
X165134280Y-62133860D01*
X165337684Y-62118973D01*
X165603224Y-62059821D01*
X165857323Y-61962637D01*
X166094563Y-61829491D01*
X166309889Y-61663221D01*
X166498712Y-61467372D01*
X166657006Y-61246117D01*
X166657144Y-61245850D01*
X166781398Y-61004172D01*
X166781399Y-61004169D01*
X166796872Y-60958815D01*
X166869238Y-60746694D01*
X166878086Y-60698795D01*
X166893794Y-60613748D01*
X166918652Y-60479170D01*
X166928588Y-60207302D01*
X166908128Y-60021360D01*
X168123847Y-60021360D01*
X169609117Y-60021360D01*
X169607042Y-60025314D01*
X169566360Y-60190365D01*
X169566360Y-60360355D01*
X169607042Y-60525406D01*
X169609117Y-60529360D01*
X168125094Y-60529360D01*
X168134379Y-60613748D01*
X168203171Y-60876879D01*
X168309539Y-61127183D01*
X168451225Y-61359343D01*
X168625205Y-61568403D01*
X168827751Y-61749884D01*
X168827764Y-61749895D01*
X169054593Y-61899963D01*
X169054595Y-61899964D01*
X169300850Y-62015403D01*
X169561297Y-62093760D01*
X169561302Y-62093761D01*
X169830368Y-62133360D01*
X170012360Y-62133360D01*
X170012360Y-60927680D01*
X170097609Y-60960011D01*
X170224020Y-60975360D01*
X170308700Y-60975360D01*
X170435111Y-60960011D01*
X170520360Y-60927680D01*
X170520360Y-62133360D01*
X170634265Y-62133360D01*
X170837614Y-62118476D01*
X171103073Y-62059342D01*
X171103085Y-62059338D01*
X171357110Y-61962182D01*
X171594280Y-61829076D01*
X171594293Y-61829068D01*
X171809553Y-61662849D01*
X171809559Y-61662844D01*
X171998324Y-61467054D01*
X172156581Y-61245850D01*
X172156582Y-61245849D01*
X172280937Y-61003976D01*
X172280938Y-61003974D01*
X172368751Y-60746572D01*
X172368754Y-60746559D01*
X172408873Y-60529360D01*
X170923603Y-60529360D01*
X170925678Y-60525406D01*
X170966360Y-60360355D01*
X170966360Y-60190365D01*
X170925678Y-60025314D01*
X170923603Y-60021360D01*
X172407625Y-60021360D01*
X172407625Y-60021359D01*
X172398340Y-59936971D01*
X172329548Y-59673840D01*
X172223180Y-59423536D01*
X172081494Y-59191376D01*
X171923612Y-59001660D01*
X175927300Y-59001660D01*
X175927300Y-59046512D01*
X175937555Y-59146889D01*
X175937557Y-59146901D01*
X175991452Y-59309544D01*
X176081409Y-59455388D01*
X176081414Y-59455394D01*
X176202565Y-59576545D01*
X176202571Y-59576550D01*
X176348415Y-59666507D01*
X176511058Y-59720402D01*
X176511070Y-59720404D01*
X176611447Y-59730659D01*
X176611447Y-59730660D01*
X176631300Y-59730660D01*
X176631300Y-59001660D01*
X175927300Y-59001660D01*
X171923612Y-59001660D01*
X171907514Y-58982316D01*
X171704968Y-58800835D01*
X171704955Y-58800824D01*
X171478126Y-58650756D01*
X171478124Y-58650755D01*
X171231869Y-58535316D01*
X171093411Y-58493660D01*
X175927300Y-58493660D01*
X176631300Y-58493660D01*
X176631300Y-57764660D01*
X176611447Y-57764660D01*
X176511070Y-57774915D01*
X176511058Y-57774917D01*
X176348415Y-57828812D01*
X176202571Y-57918769D01*
X176202565Y-57918774D01*
X176081414Y-58039925D01*
X176081409Y-58039931D01*
X175991452Y-58185775D01*
X175937557Y-58348418D01*
X175937555Y-58348430D01*
X175927300Y-58448807D01*
X175927300Y-58493660D01*
X171093411Y-58493660D01*
X170971422Y-58456959D01*
X170971417Y-58456958D01*
X170702351Y-58417360D01*
X170520360Y-58417360D01*
X170520360Y-59623039D01*
X170435111Y-59590709D01*
X170308700Y-59575360D01*
X170224020Y-59575360D01*
X170097609Y-59590709D01*
X170012360Y-59623039D01*
X170012360Y-58417360D01*
X169898455Y-58417360D01*
X169695105Y-58432243D01*
X169429646Y-58491377D01*
X169429634Y-58491381D01*
X169175609Y-58588537D01*
X168938439Y-58721643D01*
X168938426Y-58721651D01*
X168723166Y-58887870D01*
X168723160Y-58887875D01*
X168534395Y-59083665D01*
X168376138Y-59304869D01*
X168376137Y-59304870D01*
X168251782Y-59546743D01*
X168251781Y-59546745D01*
X168163968Y-59804147D01*
X168163965Y-59804160D01*
X168123847Y-60021360D01*
X166908128Y-60021360D01*
X166898833Y-59936885D01*
X166830023Y-59673682D01*
X166723623Y-59423302D01*
X166581902Y-59191083D01*
X166407879Y-58981973D01*
X166407875Y-58981970D01*
X166407874Y-58981968D01*
X166205274Y-58800437D01*
X166205261Y-58800427D01*
X165978376Y-58650321D01*
X165944637Y-58634505D01*
X165732049Y-58534848D01*
X165471535Y-58456471D01*
X165471533Y-58456470D01*
X165471531Y-58456470D01*
X165471526Y-58456469D01*
X165202388Y-58416860D01*
X165202385Y-58416860D01*
X164398440Y-58416860D01*
X164195032Y-58431747D01*
X163929502Y-58490897D01*
X163929490Y-58490901D01*
X163675396Y-58588083D01*
X163438152Y-58721232D01*
X163438151Y-58721232D01*
X163222837Y-58887493D01*
X163222835Y-58887494D01*
X163034007Y-59083349D01*
X162875710Y-59304608D01*
X162875709Y-59304609D01*
X162751321Y-59546547D01*
X162751320Y-59546550D01*
X162663483Y-59804021D01*
X162663479Y-59804034D01*
X162614067Y-60071553D01*
X162604132Y-60343418D01*
X162633887Y-60613835D01*
X162633888Y-60613840D01*
X162702697Y-60877040D01*
X162756112Y-61002735D01*
X162809097Y-61127418D01*
X162825805Y-61154795D01*
X162836772Y-61172765D01*
X162855185Y-61241333D01*
X162833605Y-61308970D01*
X162818314Y-61327499D01*
X160041336Y-64104477D01*
X160028901Y-64114441D01*
X160029089Y-64114668D01*
X160022979Y-64119722D01*
X159975694Y-64170075D01*
X159974319Y-64171494D01*
X159953863Y-64191951D01*
X159949560Y-64197497D01*
X159945714Y-64201999D01*
X159913417Y-64236394D01*
X159913411Y-64236403D01*
X159903651Y-64254155D01*
X159892803Y-64270670D01*
X159880386Y-64286678D01*
X159861645Y-64329984D01*
X159859034Y-64335314D01*
X159836305Y-64376659D01*
X159836303Y-64376664D01*
X159831267Y-64396279D01*
X159824864Y-64414982D01*
X159816819Y-64433572D01*
X159809437Y-64480176D01*
X159808233Y-64485988D01*
X159796500Y-64531688D01*
X159796500Y-64551943D01*
X159794949Y-64571653D01*
X159791780Y-64591662D01*
X159791780Y-64591663D01*
X159796220Y-64638637D01*
X159796500Y-64644570D01*
X159796500Y-79381645D01*
X159776498Y-79449766D01*
X159742771Y-79484858D01*
X159617965Y-79572248D01*
X159617959Y-79572253D01*
X159462253Y-79727959D01*
X159462248Y-79727965D01*
X159335944Y-79908346D01*
X159242881Y-80107920D01*
X159242880Y-80107924D01*
X159185885Y-80320629D01*
X159166693Y-80540000D01*
X158723901Y-80540000D01*
X158723901Y-53763658D01*
X162588892Y-53763658D01*
X162618647Y-54034075D01*
X162618648Y-54034080D01*
X162687457Y-54297280D01*
X162739347Y-54419386D01*
X162793857Y-54547658D01*
X162935578Y-54779877D01*
X163109601Y-54988987D01*
X163109603Y-54988989D01*
X163109605Y-54988991D01*
X163312205Y-55170522D01*
X163312211Y-55170527D01*
X163312216Y-55170531D01*
X163539104Y-55320639D01*
X163785431Y-55436112D01*
X164045945Y-55514489D01*
X164108267Y-55523661D01*
X164315091Y-55554100D01*
X164315095Y-55554100D01*
X165119040Y-55554100D01*
X165322444Y-55539213D01*
X165587984Y-55480061D01*
X165842083Y-55382877D01*
X166079323Y-55249731D01*
X166294649Y-55083461D01*
X166483472Y-54887612D01*
X166641766Y-54666357D01*
X166659062Y-54632717D01*
X166766158Y-54424412D01*
X166766159Y-54424409D01*
X166801749Y-54320087D01*
X166853998Y-54166934D01*
X166862193Y-54122570D01*
X166886782Y-53989442D01*
X166903412Y-53899410D01*
X166913348Y-53627542D01*
X166892888Y-53441600D01*
X168093120Y-53441600D01*
X169593877Y-53441600D01*
X169591802Y-53445554D01*
X169551120Y-53610605D01*
X169551120Y-53780595D01*
X169591802Y-53945646D01*
X169593877Y-53949600D01*
X168093121Y-53949600D01*
X168093121Y-54846107D01*
X168103725Y-54949918D01*
X168159462Y-55118125D01*
X168252486Y-55268939D01*
X168252491Y-55268945D01*
X168377774Y-55394228D01*
X168377780Y-55394233D01*
X168528594Y-55487257D01*
X168696798Y-55542993D01*
X168696801Y-55542994D01*
X168800604Y-55553599D01*
X169997120Y-55553599D01*
X169997120Y-54347920D01*
X170082369Y-54380251D01*
X170208780Y-54395600D01*
X170293460Y-54395600D01*
X170419871Y-54380251D01*
X170505120Y-54347920D01*
X170505120Y-55553599D01*
X171701627Y-55553599D01*
X171805438Y-55542994D01*
X171973645Y-55487257D01*
X172124459Y-55394233D01*
X172124465Y-55394228D01*
X172249748Y-55268945D01*
X172249753Y-55268939D01*
X172342777Y-55118125D01*
X172398513Y-54949921D01*
X172398514Y-54949918D01*
X172409119Y-54846115D01*
X172409120Y-54846115D01*
X172409120Y-53949600D01*
X170908363Y-53949600D01*
X170910438Y-53945646D01*
X170951120Y-53780595D01*
X170951120Y-53610605D01*
X170910438Y-53445554D01*
X170908363Y-53441600D01*
X172409119Y-53441600D01*
X172409119Y-52545092D01*
X172398514Y-52441281D01*
X172342777Y-52273074D01*
X172249753Y-52122260D01*
X172249748Y-52122254D01*
X172124465Y-51996971D01*
X172124459Y-51996966D01*
X171973645Y-51903942D01*
X171805441Y-51848206D01*
X171805438Y-51848205D01*
X171701635Y-51837600D01*
X170505120Y-51837600D01*
X170505120Y-53043279D01*
X170419871Y-53010949D01*
X170293460Y-52995600D01*
X170208780Y-52995600D01*
X170082369Y-53010949D01*
X169997120Y-53043279D01*
X169997120Y-51837600D01*
X168800612Y-51837600D01*
X168696801Y-51848205D01*
X168528594Y-51903942D01*
X168377780Y-51996966D01*
X168377774Y-51996971D01*
X168252491Y-52122254D01*
X168252486Y-52122260D01*
X168159462Y-52273074D01*
X168103726Y-52441278D01*
X168103725Y-52441281D01*
X168093120Y-52545084D01*
X168093120Y-53441600D01*
X166892888Y-53441600D01*
X166883593Y-53357125D01*
X166814783Y-53093922D01*
X166708383Y-52843542D01*
X166566662Y-52611323D01*
X166392639Y-52402213D01*
X166392635Y-52402210D01*
X166392634Y-52402208D01*
X166190034Y-52220677D01*
X166190021Y-52220667D01*
X165963136Y-52070561D01*
X165909861Y-52045587D01*
X165716809Y-51955088D01*
X165456295Y-51876711D01*
X165456293Y-51876710D01*
X165456291Y-51876710D01*
X165456286Y-51876709D01*
X165187148Y-51837100D01*
X165187145Y-51837100D01*
X164383200Y-51837100D01*
X164179792Y-51851987D01*
X163914262Y-51911137D01*
X163914250Y-51911141D01*
X163660156Y-52008323D01*
X163484801Y-52106738D01*
X163444718Y-52129234D01*
X163422912Y-52141472D01*
X163422911Y-52141472D01*
X163207597Y-52307733D01*
X163207595Y-52307734D01*
X163018767Y-52503589D01*
X162860470Y-52724848D01*
X162860469Y-52724849D01*
X162736081Y-52966787D01*
X162736080Y-52966790D01*
X162648243Y-53224261D01*
X162648239Y-53224274D01*
X162598827Y-53491793D01*
X162588892Y-53763658D01*
X158723901Y-53763658D01*
X158723901Y-41095500D01*
X158743903Y-41027379D01*
X158797559Y-40980886D01*
X158849901Y-40969500D01*
X180492467Y-40969500D01*
X180560588Y-40989502D01*
G37*
%TD.AperFunction*%
%TD*%
M02*
