M48
; DRILL file {KiCad 7.0.2} date Fri May  5 10:47:40 2023
; FORMAT={-:-/ absolute / inch / decimal}
; #@! TF.CreationDate,2023-05-05T10:47:40-08:00
; #@! TF.GenerationSoftware,Kicad,Pcbnew,7.0.2
; #@! TF.FileFunction,Plated,1,2,PTH
FMAT,2
INCH
; #@! TA.AperFunction,Plated,PTH,ViaDrill
T1C0.0157
; #@! TA.AperFunction,Plated,PTH,ComponentDrill
T2C0.0276
; #@! TA.AperFunction,Plated,PTH,ComponentDrill
T3C0.0354
; #@! TA.AperFunction,Plated,PTH,ComponentDrill
T4C0.0551
%
G90
G05
T1
X2.7244Y-4.7244
X2.7667Y-4.8878
X2.8041Y-2.7559
X2.8711Y-3.6624
X2.9331Y-1.6201
X3.0384Y-5.0148
X3.1467Y-2.7126
X3.1882Y-6.0043
X3.2717Y-3.9252
X3.4213Y-4.2323
X3.4252Y-3.1644
X3.44Y-2.81
X3.4724Y-4.685
X3.5382Y-5.9472
X3.598Y-2.526
X3.6063Y-5.6988
X3.632Y-1.472
X3.6417Y-3.2087
X3.6801Y-4.1703
X3.7057Y-5.0039
X3.71Y-2.8
X3.7736Y-2.1683
X3.8149Y-5.2435
X3.858Y-4.666
X3.9872Y-3.2028
X4.0906Y-5.5709
X4.1152Y-2.1604
X4.126Y-2.8632
X4.1965Y-5.1197
X4.2429Y-4.7567
X4.2598Y-1.6565
X4.3484Y-3.2884
X4.382Y-2.598
X4.4626Y-4.2205
X4.4638Y-1.2429
X4.5327Y-3.6098
X4.565Y-3.9488
X4.5787Y-2.6457
X4.6634Y-5.9563
X4.729Y-4.692
X4.7445Y-6.1807
X4.8476Y-1.5968
X4.8866Y-2.8677
X4.9154Y-2.6398
X4.9764Y-5.0571
X5.108Y-4.682
X5.1854Y-2.7472
X5.2293Y-5.503
X5.5113Y-4.7023
X5.576Y-2.7449
X5.5811Y-5.0305
X5.7323Y-5.9921
X5.8319Y-5.9622
X5.875Y-4.7303
X5.9559Y-4.1752
X5.9807Y-4.7116
X5.9941Y-2.7555
X6.013Y-3.226
X6.0338Y-4.9786
X6.1447Y-5.0463
X6.1494Y-5.864
X6.2064Y-4.8651
X6.2156Y-4.7717
X6.4406Y-2.75
X6.4437Y-1.8476
X6.4606Y-5.813
X6.4665Y-5.3711
X6.4685Y-3.561
X6.5Y-2.2539
X6.5122Y-1.3598
X6.5154Y-3.1055
X6.5343Y-3.9768
X6.5492Y-4.4656
X6.5551Y-4.8563
X6.5614Y-1.0689
X6.6862Y-0.7921
X6.689Y-6.1161
X6.8029Y-1.7916
X6.8029Y-2.1021
X6.8031Y-1.4559
X6.874Y-3.6142
X6.8819Y-3.252
X6.9042Y-1.206
X7.0886Y-3.7835
X7.1055Y-5.0484
X7.1193Y-2.1106
X7.1217Y-1.3287
X7.1389Y-5.9556
X7.1776Y-4.6756
X7.1831Y-4.5059
X7.2075Y-3.3972
X7.4902Y-3.8248
X7.5896Y-4.9764
X7.6146Y-1.2516
X7.6228Y-2.5638
X7.6236Y-2.122
X7.6594Y-3.4134
X7.6669Y-2.4331
X7.6929Y-3.8012
X7.6929Y-5.8947
X7.7362Y-4.6604
X7.8307Y-4.7953
X7.974Y-2.1098
X8.0039Y-4.7953
X8.2512Y-0.9626
X8.578Y-3.8031
X8.5807Y-4.6693
X8.5866Y-2.563
X8.6287Y-5.0571
X8.642Y-5.9544
X8.711Y-3.4173
X8.7142Y-2.1488
X8.8425Y-2.0354
X8.8425Y-4.6004
X8.8731Y-1.186
X9.0394Y-3.8661
X9.048Y-5.0591
X9.0846Y-2.4921
X9.0846Y-5.9906
X9.1028Y-4.7272
X9.12Y-2.2066
X9.128Y-4.3996
X9.1417Y-4.2717
X9.1713Y-1.8642
X9.1768Y-3.4453
X9.1772Y-3.8343
T2
X5.0122Y-1.0315
X5.2878Y-0.8669
X5.6394Y-0.8677
X5.9555Y-1.4307
T3
X4.2362Y-1.1923
X4.2362Y-1.2923
T4
X5.3875Y-1.8846
X5.3875Y-2.05
X5.3915Y-1.3546
X5.3915Y-1.52
X5.604Y-1.8846
X5.604Y-2.05
X5.608Y-1.3546
X5.608Y-1.52
T0
M30
