M48
; DRILL file {KiCad (5.1.6)-1} date 12/18/20 17:33:37
; FORMAT={-:-/ absolute / inch / decimal}
; #@! TF.CreationDate,2020-12-18T17:33:37+11:00
; #@! TF.GenerationSoftware,Kicad,Pcbnew,(5.1.6)-1
FMAT,2
INCH
T1C0.0157
T2C0.0295
T3C0.0354
T4C0.0551
T5C0.1693
T6C0.5000
%
G90
G05
T1
X4.5598Y-3.7226
X5.1707Y-5.6506
X5.694Y-3.2569
X5.7855Y-3.601
X7.0646Y-3.3733
X8.5561Y-4.834
T2
X4.2344Y-3.7186
X4.4092Y-3.96
X4.8886Y-3.8277
X5.1624Y-5.7309
X5.2954Y-4.9059
X5.5846Y-3.6186
X5.6604Y-4.902
X5.9346Y-4.9141
X6.0413Y-3.542
X6.0476Y-3.2297
X6.2236Y-4.5567
X6.302Y-4.2364
X6.3449Y-3.9315
X6.5233Y-3.3704
X6.574Y-3.9206
X6.596Y-4.1106
X6.5978Y-4.5624
X6.6033Y-4.7942
X6.8236Y-3.3666
X7.1701Y-3.4635
X7.6773Y-4.3107
X8.1655Y-4.3996
X8.2252Y-5.2735
X8.2769Y-4.1165
X8.5329Y-4.1614
T3
X6.81Y-4.796
X6.91Y-4.796
T4
X5.744Y-5.1235
X5.744Y-5.34
X5.9094Y-5.1235
X5.9094Y-5.34
X6.252Y-5.1255
X6.252Y-5.342
X6.4174Y-5.1255
X6.4174Y-5.342
T5
X7.1931Y-5.486
X7.6305Y-3.286
X4.6305Y-3.286
T6
X5.7055Y-4.096
X5.7055Y-4.096
X4.568Y-4.761
X4.568Y-4.761
X7.943Y-4.761
X7.943Y-4.761
X7.0055Y-4.096
X7.0055Y-4.096
T0
M30
