G04 #@! TF.GenerationSoftware,KiCad,Pcbnew,(5.1.4-0-10_14)*
G04 #@! TF.CreationDate,2019-11-16T12:28:40+01:00*
G04 #@! TF.ProjectId,RWR Control Panel,52575220-436f-46e7-9472-6f6c2050616e,-*
G04 #@! TF.SameCoordinates,Original*
G04 #@! TF.FileFunction,Copper,L2,Bot*
G04 #@! TF.FilePolarity,Positive*
%FSLAX46Y46*%
G04 Gerber Fmt 4.6, Leading zero omitted, Abs format (unit mm)*
G04 Created by KiCad (PCBNEW (5.1.4-0-10_14)) date 2019-11-16 12:28:40*
%MOMM*%
%LPD*%
G04 APERTURE LIST*
%ADD10C,0.100000*%
%ADD11C,0.600000*%
%ADD12R,1.700000X1.700000*%
%ADD13O,1.700000X1.700000*%
%ADD14R,1.500000X1.250000*%
%ADD15R,1.250000X1.500000*%
%ADD16R,1.300000X1.500000*%
%ADD17R,0.600000X2.000000*%
%ADD18R,2.000000X2.600000*%
%ADD19O,2.000000X2.600000*%
%ADD20C,0.304800*%
%ADD21C,0.177800*%
%ADD22C,0.609600*%
%ADD23C,0.228600*%
%ADD24C,0.254000*%
G04 APERTURE END LIST*
D10*
G36*
X113753903Y-94595122D02*
G01*
X113768464Y-94597282D01*
X113782743Y-94600859D01*
X113796603Y-94605818D01*
X113809910Y-94612112D01*
X113822536Y-94619680D01*
X113834359Y-94628448D01*
X113845266Y-94638334D01*
X113855152Y-94649241D01*
X113863920Y-94661064D01*
X113871488Y-94673690D01*
X113877782Y-94686997D01*
X113882741Y-94700857D01*
X113886318Y-94715136D01*
X113888478Y-94729697D01*
X113889200Y-94744400D01*
X113889200Y-95044400D01*
X113888478Y-95059103D01*
X113886318Y-95073664D01*
X113882741Y-95087943D01*
X113877782Y-95101803D01*
X113871488Y-95115110D01*
X113863920Y-95127736D01*
X113855152Y-95139559D01*
X113845266Y-95150466D01*
X113834359Y-95160352D01*
X113822536Y-95169120D01*
X113809910Y-95176688D01*
X113796603Y-95182982D01*
X113782743Y-95187941D01*
X113768464Y-95191518D01*
X113753903Y-95193678D01*
X113739200Y-95194400D01*
X112089200Y-95194400D01*
X112074497Y-95193678D01*
X112059936Y-95191518D01*
X112045657Y-95187941D01*
X112031797Y-95182982D01*
X112018490Y-95176688D01*
X112005864Y-95169120D01*
X111994041Y-95160352D01*
X111983134Y-95150466D01*
X111973248Y-95139559D01*
X111964480Y-95127736D01*
X111956912Y-95115110D01*
X111950618Y-95101803D01*
X111945659Y-95087943D01*
X111942082Y-95073664D01*
X111939922Y-95059103D01*
X111939200Y-95044400D01*
X111939200Y-94744400D01*
X111939922Y-94729697D01*
X111942082Y-94715136D01*
X111945659Y-94700857D01*
X111950618Y-94686997D01*
X111956912Y-94673690D01*
X111964480Y-94661064D01*
X111973248Y-94649241D01*
X111983134Y-94638334D01*
X111994041Y-94628448D01*
X112005864Y-94619680D01*
X112018490Y-94612112D01*
X112031797Y-94605818D01*
X112045657Y-94600859D01*
X112059936Y-94597282D01*
X112074497Y-94595122D01*
X112089200Y-94594400D01*
X113739200Y-94594400D01*
X113753903Y-94595122D01*
X113753903Y-94595122D01*
G37*
D11*
X112914200Y-94894400D03*
D10*
G36*
X113753903Y-93325122D02*
G01*
X113768464Y-93327282D01*
X113782743Y-93330859D01*
X113796603Y-93335818D01*
X113809910Y-93342112D01*
X113822536Y-93349680D01*
X113834359Y-93358448D01*
X113845266Y-93368334D01*
X113855152Y-93379241D01*
X113863920Y-93391064D01*
X113871488Y-93403690D01*
X113877782Y-93416997D01*
X113882741Y-93430857D01*
X113886318Y-93445136D01*
X113888478Y-93459697D01*
X113889200Y-93474400D01*
X113889200Y-93774400D01*
X113888478Y-93789103D01*
X113886318Y-93803664D01*
X113882741Y-93817943D01*
X113877782Y-93831803D01*
X113871488Y-93845110D01*
X113863920Y-93857736D01*
X113855152Y-93869559D01*
X113845266Y-93880466D01*
X113834359Y-93890352D01*
X113822536Y-93899120D01*
X113809910Y-93906688D01*
X113796603Y-93912982D01*
X113782743Y-93917941D01*
X113768464Y-93921518D01*
X113753903Y-93923678D01*
X113739200Y-93924400D01*
X112089200Y-93924400D01*
X112074497Y-93923678D01*
X112059936Y-93921518D01*
X112045657Y-93917941D01*
X112031797Y-93912982D01*
X112018490Y-93906688D01*
X112005864Y-93899120D01*
X111994041Y-93890352D01*
X111983134Y-93880466D01*
X111973248Y-93869559D01*
X111964480Y-93857736D01*
X111956912Y-93845110D01*
X111950618Y-93831803D01*
X111945659Y-93817943D01*
X111942082Y-93803664D01*
X111939922Y-93789103D01*
X111939200Y-93774400D01*
X111939200Y-93474400D01*
X111939922Y-93459697D01*
X111942082Y-93445136D01*
X111945659Y-93430857D01*
X111950618Y-93416997D01*
X111956912Y-93403690D01*
X111964480Y-93391064D01*
X111973248Y-93379241D01*
X111983134Y-93368334D01*
X111994041Y-93358448D01*
X112005864Y-93349680D01*
X112018490Y-93342112D01*
X112031797Y-93335818D01*
X112045657Y-93330859D01*
X112059936Y-93327282D01*
X112074497Y-93325122D01*
X112089200Y-93324400D01*
X113739200Y-93324400D01*
X113753903Y-93325122D01*
X113753903Y-93325122D01*
G37*
D11*
X112914200Y-93624400D03*
D10*
G36*
X113753903Y-92055122D02*
G01*
X113768464Y-92057282D01*
X113782743Y-92060859D01*
X113796603Y-92065818D01*
X113809910Y-92072112D01*
X113822536Y-92079680D01*
X113834359Y-92088448D01*
X113845266Y-92098334D01*
X113855152Y-92109241D01*
X113863920Y-92121064D01*
X113871488Y-92133690D01*
X113877782Y-92146997D01*
X113882741Y-92160857D01*
X113886318Y-92175136D01*
X113888478Y-92189697D01*
X113889200Y-92204400D01*
X113889200Y-92504400D01*
X113888478Y-92519103D01*
X113886318Y-92533664D01*
X113882741Y-92547943D01*
X113877782Y-92561803D01*
X113871488Y-92575110D01*
X113863920Y-92587736D01*
X113855152Y-92599559D01*
X113845266Y-92610466D01*
X113834359Y-92620352D01*
X113822536Y-92629120D01*
X113809910Y-92636688D01*
X113796603Y-92642982D01*
X113782743Y-92647941D01*
X113768464Y-92651518D01*
X113753903Y-92653678D01*
X113739200Y-92654400D01*
X112089200Y-92654400D01*
X112074497Y-92653678D01*
X112059936Y-92651518D01*
X112045657Y-92647941D01*
X112031797Y-92642982D01*
X112018490Y-92636688D01*
X112005864Y-92629120D01*
X111994041Y-92620352D01*
X111983134Y-92610466D01*
X111973248Y-92599559D01*
X111964480Y-92587736D01*
X111956912Y-92575110D01*
X111950618Y-92561803D01*
X111945659Y-92547943D01*
X111942082Y-92533664D01*
X111939922Y-92519103D01*
X111939200Y-92504400D01*
X111939200Y-92204400D01*
X111939922Y-92189697D01*
X111942082Y-92175136D01*
X111945659Y-92160857D01*
X111950618Y-92146997D01*
X111956912Y-92133690D01*
X111964480Y-92121064D01*
X111973248Y-92109241D01*
X111983134Y-92098334D01*
X111994041Y-92088448D01*
X112005864Y-92079680D01*
X112018490Y-92072112D01*
X112031797Y-92065818D01*
X112045657Y-92060859D01*
X112059936Y-92057282D01*
X112074497Y-92055122D01*
X112089200Y-92054400D01*
X113739200Y-92054400D01*
X113753903Y-92055122D01*
X113753903Y-92055122D01*
G37*
D11*
X112914200Y-92354400D03*
D10*
G36*
X113753903Y-90785122D02*
G01*
X113768464Y-90787282D01*
X113782743Y-90790859D01*
X113796603Y-90795818D01*
X113809910Y-90802112D01*
X113822536Y-90809680D01*
X113834359Y-90818448D01*
X113845266Y-90828334D01*
X113855152Y-90839241D01*
X113863920Y-90851064D01*
X113871488Y-90863690D01*
X113877782Y-90876997D01*
X113882741Y-90890857D01*
X113886318Y-90905136D01*
X113888478Y-90919697D01*
X113889200Y-90934400D01*
X113889200Y-91234400D01*
X113888478Y-91249103D01*
X113886318Y-91263664D01*
X113882741Y-91277943D01*
X113877782Y-91291803D01*
X113871488Y-91305110D01*
X113863920Y-91317736D01*
X113855152Y-91329559D01*
X113845266Y-91340466D01*
X113834359Y-91350352D01*
X113822536Y-91359120D01*
X113809910Y-91366688D01*
X113796603Y-91372982D01*
X113782743Y-91377941D01*
X113768464Y-91381518D01*
X113753903Y-91383678D01*
X113739200Y-91384400D01*
X112089200Y-91384400D01*
X112074497Y-91383678D01*
X112059936Y-91381518D01*
X112045657Y-91377941D01*
X112031797Y-91372982D01*
X112018490Y-91366688D01*
X112005864Y-91359120D01*
X111994041Y-91350352D01*
X111983134Y-91340466D01*
X111973248Y-91329559D01*
X111964480Y-91317736D01*
X111956912Y-91305110D01*
X111950618Y-91291803D01*
X111945659Y-91277943D01*
X111942082Y-91263664D01*
X111939922Y-91249103D01*
X111939200Y-91234400D01*
X111939200Y-90934400D01*
X111939922Y-90919697D01*
X111942082Y-90905136D01*
X111945659Y-90890857D01*
X111950618Y-90876997D01*
X111956912Y-90863690D01*
X111964480Y-90851064D01*
X111973248Y-90839241D01*
X111983134Y-90828334D01*
X111994041Y-90818448D01*
X112005864Y-90809680D01*
X112018490Y-90802112D01*
X112031797Y-90795818D01*
X112045657Y-90790859D01*
X112059936Y-90787282D01*
X112074497Y-90785122D01*
X112089200Y-90784400D01*
X113739200Y-90784400D01*
X113753903Y-90785122D01*
X113753903Y-90785122D01*
G37*
D11*
X112914200Y-91084400D03*
D10*
G36*
X108803903Y-90785122D02*
G01*
X108818464Y-90787282D01*
X108832743Y-90790859D01*
X108846603Y-90795818D01*
X108859910Y-90802112D01*
X108872536Y-90809680D01*
X108884359Y-90818448D01*
X108895266Y-90828334D01*
X108905152Y-90839241D01*
X108913920Y-90851064D01*
X108921488Y-90863690D01*
X108927782Y-90876997D01*
X108932741Y-90890857D01*
X108936318Y-90905136D01*
X108938478Y-90919697D01*
X108939200Y-90934400D01*
X108939200Y-91234400D01*
X108938478Y-91249103D01*
X108936318Y-91263664D01*
X108932741Y-91277943D01*
X108927782Y-91291803D01*
X108921488Y-91305110D01*
X108913920Y-91317736D01*
X108905152Y-91329559D01*
X108895266Y-91340466D01*
X108884359Y-91350352D01*
X108872536Y-91359120D01*
X108859910Y-91366688D01*
X108846603Y-91372982D01*
X108832743Y-91377941D01*
X108818464Y-91381518D01*
X108803903Y-91383678D01*
X108789200Y-91384400D01*
X107139200Y-91384400D01*
X107124497Y-91383678D01*
X107109936Y-91381518D01*
X107095657Y-91377941D01*
X107081797Y-91372982D01*
X107068490Y-91366688D01*
X107055864Y-91359120D01*
X107044041Y-91350352D01*
X107033134Y-91340466D01*
X107023248Y-91329559D01*
X107014480Y-91317736D01*
X107006912Y-91305110D01*
X107000618Y-91291803D01*
X106995659Y-91277943D01*
X106992082Y-91263664D01*
X106989922Y-91249103D01*
X106989200Y-91234400D01*
X106989200Y-90934400D01*
X106989922Y-90919697D01*
X106992082Y-90905136D01*
X106995659Y-90890857D01*
X107000618Y-90876997D01*
X107006912Y-90863690D01*
X107014480Y-90851064D01*
X107023248Y-90839241D01*
X107033134Y-90828334D01*
X107044041Y-90818448D01*
X107055864Y-90809680D01*
X107068490Y-90802112D01*
X107081797Y-90795818D01*
X107095657Y-90790859D01*
X107109936Y-90787282D01*
X107124497Y-90785122D01*
X107139200Y-90784400D01*
X108789200Y-90784400D01*
X108803903Y-90785122D01*
X108803903Y-90785122D01*
G37*
D11*
X107964200Y-91084400D03*
D10*
G36*
X108803903Y-92055122D02*
G01*
X108818464Y-92057282D01*
X108832743Y-92060859D01*
X108846603Y-92065818D01*
X108859910Y-92072112D01*
X108872536Y-92079680D01*
X108884359Y-92088448D01*
X108895266Y-92098334D01*
X108905152Y-92109241D01*
X108913920Y-92121064D01*
X108921488Y-92133690D01*
X108927782Y-92146997D01*
X108932741Y-92160857D01*
X108936318Y-92175136D01*
X108938478Y-92189697D01*
X108939200Y-92204400D01*
X108939200Y-92504400D01*
X108938478Y-92519103D01*
X108936318Y-92533664D01*
X108932741Y-92547943D01*
X108927782Y-92561803D01*
X108921488Y-92575110D01*
X108913920Y-92587736D01*
X108905152Y-92599559D01*
X108895266Y-92610466D01*
X108884359Y-92620352D01*
X108872536Y-92629120D01*
X108859910Y-92636688D01*
X108846603Y-92642982D01*
X108832743Y-92647941D01*
X108818464Y-92651518D01*
X108803903Y-92653678D01*
X108789200Y-92654400D01*
X107139200Y-92654400D01*
X107124497Y-92653678D01*
X107109936Y-92651518D01*
X107095657Y-92647941D01*
X107081797Y-92642982D01*
X107068490Y-92636688D01*
X107055864Y-92629120D01*
X107044041Y-92620352D01*
X107033134Y-92610466D01*
X107023248Y-92599559D01*
X107014480Y-92587736D01*
X107006912Y-92575110D01*
X107000618Y-92561803D01*
X106995659Y-92547943D01*
X106992082Y-92533664D01*
X106989922Y-92519103D01*
X106989200Y-92504400D01*
X106989200Y-92204400D01*
X106989922Y-92189697D01*
X106992082Y-92175136D01*
X106995659Y-92160857D01*
X107000618Y-92146997D01*
X107006912Y-92133690D01*
X107014480Y-92121064D01*
X107023248Y-92109241D01*
X107033134Y-92098334D01*
X107044041Y-92088448D01*
X107055864Y-92079680D01*
X107068490Y-92072112D01*
X107081797Y-92065818D01*
X107095657Y-92060859D01*
X107109936Y-92057282D01*
X107124497Y-92055122D01*
X107139200Y-92054400D01*
X108789200Y-92054400D01*
X108803903Y-92055122D01*
X108803903Y-92055122D01*
G37*
D11*
X107964200Y-92354400D03*
D10*
G36*
X108803903Y-93325122D02*
G01*
X108818464Y-93327282D01*
X108832743Y-93330859D01*
X108846603Y-93335818D01*
X108859910Y-93342112D01*
X108872536Y-93349680D01*
X108884359Y-93358448D01*
X108895266Y-93368334D01*
X108905152Y-93379241D01*
X108913920Y-93391064D01*
X108921488Y-93403690D01*
X108927782Y-93416997D01*
X108932741Y-93430857D01*
X108936318Y-93445136D01*
X108938478Y-93459697D01*
X108939200Y-93474400D01*
X108939200Y-93774400D01*
X108938478Y-93789103D01*
X108936318Y-93803664D01*
X108932741Y-93817943D01*
X108927782Y-93831803D01*
X108921488Y-93845110D01*
X108913920Y-93857736D01*
X108905152Y-93869559D01*
X108895266Y-93880466D01*
X108884359Y-93890352D01*
X108872536Y-93899120D01*
X108859910Y-93906688D01*
X108846603Y-93912982D01*
X108832743Y-93917941D01*
X108818464Y-93921518D01*
X108803903Y-93923678D01*
X108789200Y-93924400D01*
X107139200Y-93924400D01*
X107124497Y-93923678D01*
X107109936Y-93921518D01*
X107095657Y-93917941D01*
X107081797Y-93912982D01*
X107068490Y-93906688D01*
X107055864Y-93899120D01*
X107044041Y-93890352D01*
X107033134Y-93880466D01*
X107023248Y-93869559D01*
X107014480Y-93857736D01*
X107006912Y-93845110D01*
X107000618Y-93831803D01*
X106995659Y-93817943D01*
X106992082Y-93803664D01*
X106989922Y-93789103D01*
X106989200Y-93774400D01*
X106989200Y-93474400D01*
X106989922Y-93459697D01*
X106992082Y-93445136D01*
X106995659Y-93430857D01*
X107000618Y-93416997D01*
X107006912Y-93403690D01*
X107014480Y-93391064D01*
X107023248Y-93379241D01*
X107033134Y-93368334D01*
X107044041Y-93358448D01*
X107055864Y-93349680D01*
X107068490Y-93342112D01*
X107081797Y-93335818D01*
X107095657Y-93330859D01*
X107109936Y-93327282D01*
X107124497Y-93325122D01*
X107139200Y-93324400D01*
X108789200Y-93324400D01*
X108803903Y-93325122D01*
X108803903Y-93325122D01*
G37*
D11*
X107964200Y-93624400D03*
D10*
G36*
X108803903Y-94595122D02*
G01*
X108818464Y-94597282D01*
X108832743Y-94600859D01*
X108846603Y-94605818D01*
X108859910Y-94612112D01*
X108872536Y-94619680D01*
X108884359Y-94628448D01*
X108895266Y-94638334D01*
X108905152Y-94649241D01*
X108913920Y-94661064D01*
X108921488Y-94673690D01*
X108927782Y-94686997D01*
X108932741Y-94700857D01*
X108936318Y-94715136D01*
X108938478Y-94729697D01*
X108939200Y-94744400D01*
X108939200Y-95044400D01*
X108938478Y-95059103D01*
X108936318Y-95073664D01*
X108932741Y-95087943D01*
X108927782Y-95101803D01*
X108921488Y-95115110D01*
X108913920Y-95127736D01*
X108905152Y-95139559D01*
X108895266Y-95150466D01*
X108884359Y-95160352D01*
X108872536Y-95169120D01*
X108859910Y-95176688D01*
X108846603Y-95182982D01*
X108832743Y-95187941D01*
X108818464Y-95191518D01*
X108803903Y-95193678D01*
X108789200Y-95194400D01*
X107139200Y-95194400D01*
X107124497Y-95193678D01*
X107109936Y-95191518D01*
X107095657Y-95187941D01*
X107081797Y-95182982D01*
X107068490Y-95176688D01*
X107055864Y-95169120D01*
X107044041Y-95160352D01*
X107033134Y-95150466D01*
X107023248Y-95139559D01*
X107014480Y-95127736D01*
X107006912Y-95115110D01*
X107000618Y-95101803D01*
X106995659Y-95087943D01*
X106992082Y-95073664D01*
X106989922Y-95059103D01*
X106989200Y-95044400D01*
X106989200Y-94744400D01*
X106989922Y-94729697D01*
X106992082Y-94715136D01*
X106995659Y-94700857D01*
X107000618Y-94686997D01*
X107006912Y-94673690D01*
X107014480Y-94661064D01*
X107023248Y-94649241D01*
X107033134Y-94638334D01*
X107044041Y-94628448D01*
X107055864Y-94619680D01*
X107068490Y-94612112D01*
X107081797Y-94605818D01*
X107095657Y-94600859D01*
X107109936Y-94597282D01*
X107124497Y-94595122D01*
X107139200Y-94594400D01*
X108789200Y-94594400D01*
X108803903Y-94595122D01*
X108803903Y-94595122D01*
G37*
D11*
X107964200Y-94894400D03*
D12*
X130968750Y-114880401D03*
D13*
X130968750Y-117420401D03*
X130968750Y-119960401D03*
X136048750Y-119919750D03*
X136048750Y-117379750D03*
D12*
X136048750Y-114839750D03*
D13*
X141128750Y-117379750D03*
X141128750Y-114839750D03*
X141128750Y-112299750D03*
X141128750Y-109759750D03*
D12*
X141128750Y-107219750D03*
D14*
X116008150Y-96907350D03*
X118508150Y-96907350D03*
D15*
X156749750Y-93082750D03*
X156749750Y-90582750D03*
D16*
X115855750Y-91544150D03*
X115855750Y-94244150D03*
D17*
X154412950Y-87127350D03*
X153142950Y-87127350D03*
X151872950Y-87127350D03*
X150602950Y-87127350D03*
X149332950Y-87127350D03*
X148062950Y-87127350D03*
X146792950Y-87127350D03*
X145522950Y-87127350D03*
X144252950Y-87127350D03*
X142982950Y-87127350D03*
X141712950Y-87127350D03*
X140442950Y-87127350D03*
X140442950Y-96527350D03*
X141712950Y-96527350D03*
X142982950Y-96527350D03*
X144252950Y-96527350D03*
X145522950Y-96527350D03*
X146792950Y-96527350D03*
X148062950Y-96527350D03*
X149332950Y-96527350D03*
X150602950Y-96527350D03*
X151872950Y-96527350D03*
X153142950Y-96527350D03*
X154412950Y-96527350D03*
D12*
X147732750Y-104247950D03*
D13*
X150272750Y-104247950D03*
X152812750Y-104247950D03*
X155352750Y-104247950D03*
X157892750Y-104247950D03*
X160432750Y-104247950D03*
X162972750Y-104247950D03*
X165512750Y-104247950D03*
X168052750Y-104247950D03*
X170592750Y-104247950D03*
X173132750Y-104247950D03*
X175672750Y-104247950D03*
X178212750Y-104247950D03*
X180752750Y-104247950D03*
X183292750Y-104247950D03*
X183292750Y-119487950D03*
X180752750Y-119487950D03*
X178212750Y-119487950D03*
X175672750Y-119487950D03*
X173132750Y-119487950D03*
X170592750Y-119487950D03*
X168052750Y-119487950D03*
X165512750Y-119487950D03*
X162972750Y-119487950D03*
X160432750Y-119487950D03*
X157892750Y-119487950D03*
X155352750Y-119487950D03*
X152812750Y-119487950D03*
X150272750Y-119487950D03*
D12*
X147732750Y-119487950D03*
X132619750Y-110902750D03*
D13*
X135159750Y-110902750D03*
D18*
X135947150Y-104603550D03*
D19*
X133407150Y-104603550D03*
X130867150Y-104603550D03*
X128327150Y-104603550D03*
D18*
X119157750Y-104552750D03*
D19*
X121697750Y-104552750D03*
X124237750Y-104552750D03*
D18*
X121723150Y-112706150D03*
D19*
X124263150Y-112706150D03*
X126803150Y-112706150D03*
D11*
X145035778Y-101118220D03*
X184308750Y-88398350D03*
X111232950Y-88118950D03*
X127946150Y-94164150D03*
X120834150Y-97491550D03*
X149815550Y-94240350D03*
X184816750Y-94392750D03*
X185019950Y-99040950D03*
X168205150Y-91395550D03*
X153473150Y-93122750D03*
X125914150Y-99523550D03*
X134397750Y-99218750D03*
X119945150Y-94265750D03*
X120834150Y-95688150D03*
X118395750Y-87026750D03*
X149129750Y-100550571D03*
X135921750Y-99218750D03*
X135921750Y-97440750D03*
X161397950Y-97593150D03*
X141509750Y-84867750D03*
X151542750Y-99802950D03*
X144946844Y-98029740D03*
X140869960Y-94084328D03*
X149358352Y-98075750D03*
X146056350Y-98024950D03*
X142779750Y-84867750D03*
X148062950Y-97974150D03*
X143643350Y-98024950D03*
X150755350Y-99828350D03*
D20*
X144611514Y-101118220D02*
X145035778Y-101118220D01*
X107964200Y-91084400D02*
X109039200Y-91084400D01*
X109039200Y-91084400D02*
X111100979Y-93146179D01*
X111100979Y-93146179D02*
X111100979Y-95453736D01*
X111100979Y-95453736D02*
X116260910Y-100613667D01*
X116260910Y-100613667D02*
X144106961Y-100613667D01*
X144106961Y-100613667D02*
X144611514Y-101118220D01*
D21*
X149422751Y-105097949D02*
X150272750Y-104247950D01*
X149156049Y-105364651D02*
X149422751Y-105097949D01*
X140697849Y-105364651D02*
X149156049Y-105364651D01*
X135159750Y-110902750D02*
X140697849Y-105364651D01*
D22*
X123602739Y-106757739D02*
X123602739Y-112045739D01*
X123602739Y-112045739D02*
X124263150Y-112706150D01*
X121697750Y-104552750D02*
X121697750Y-104852750D01*
X121697750Y-104852750D02*
X123602739Y-106757739D01*
D20*
X107964200Y-92354400D02*
X107964200Y-93624400D01*
X108334910Y-93995110D02*
X108959838Y-93995110D01*
X108959838Y-93995110D02*
X116240868Y-101276140D01*
X145338275Y-101748421D02*
X145708946Y-101377750D01*
X116240868Y-101276140D02*
X138568430Y-101276140D01*
X157042751Y-103397951D02*
X157892750Y-104247950D01*
X138568430Y-101276140D02*
X138670040Y-101377750D01*
X143894540Y-101377750D02*
X144265211Y-101748421D01*
X144265211Y-101748421D02*
X145338275Y-101748421D01*
X145708946Y-101377750D02*
X155022550Y-101377750D01*
X138670040Y-101377750D02*
X143894540Y-101377750D01*
X107964200Y-93624400D02*
X108334910Y-93995110D01*
X155022550Y-101377750D02*
X157042751Y-103397951D01*
X114927150Y-96907350D02*
X116008150Y-96907350D01*
X112914200Y-94894400D02*
X114927150Y-96907350D01*
X116008150Y-97837150D02*
X116008150Y-96907350D01*
X125914150Y-99523550D02*
X117694550Y-99523550D01*
X116008150Y-97837150D02*
X117694550Y-99523550D01*
D22*
X156749750Y-89464150D02*
X154412950Y-87127350D01*
X156749750Y-90582750D02*
X156749750Y-89464150D01*
X158019750Y-90582750D02*
X156749750Y-90582750D01*
X134697749Y-98918751D02*
X134697749Y-89774751D01*
X134397750Y-99218750D02*
X134697749Y-98918751D01*
X134697749Y-89774751D02*
X140493750Y-83978750D01*
X140493750Y-83978750D02*
X154717750Y-83978750D01*
X154717750Y-83978750D02*
X158019750Y-87280750D01*
X158019750Y-87280750D02*
X158019750Y-90582750D01*
X133407150Y-104903550D02*
X128784350Y-109526350D01*
X133407150Y-104603550D02*
X133407150Y-104903550D01*
X128784350Y-117776001D02*
X130968750Y-119960401D01*
X128784350Y-109526350D02*
X128784350Y-117776001D01*
X182327550Y-121062750D02*
X180752750Y-119487950D01*
X183727792Y-121062750D02*
X182327550Y-121062750D01*
X186086750Y-118703792D02*
X183727792Y-121062750D01*
X186086750Y-98558350D02*
X186086750Y-118703792D01*
X154717750Y-83978750D02*
X171507150Y-83978750D01*
X171507150Y-83978750D02*
X186086750Y-98558350D01*
D20*
X121723150Y-111101350D02*
X121723150Y-112706150D01*
X121723150Y-107418150D02*
X121723150Y-111101350D01*
X119157750Y-104852750D02*
X121723150Y-107418150D01*
X119157750Y-104552750D02*
X119157750Y-104852750D01*
X117223550Y-91544150D02*
X115855750Y-91544150D01*
X119945150Y-94265750D02*
X117223550Y-91544150D01*
D23*
X113989200Y-92354400D02*
X112914200Y-92354400D01*
X114166900Y-92354400D02*
X113989200Y-92354400D01*
X114977150Y-91544150D02*
X114166900Y-92354400D01*
X115855750Y-91544150D02*
X114977150Y-91544150D01*
X115236000Y-93624400D02*
X115855750Y-94244150D01*
X112914200Y-93624400D02*
X115236000Y-93624400D01*
D20*
X116810550Y-94244150D02*
X115855750Y-94244150D01*
X117954551Y-95388151D02*
X116810550Y-94244150D01*
X120534151Y-95388151D02*
X117954551Y-95388151D01*
X120834150Y-95688150D02*
X120534151Y-95388151D01*
X126803150Y-107930950D02*
X126803150Y-112706150D01*
X124237750Y-104552750D02*
X124237750Y-105365550D01*
X124237750Y-105365550D02*
X126803150Y-107930950D01*
X108334910Y-95265110D02*
X107964200Y-94894400D01*
X132619750Y-110902750D02*
X132619750Y-109747950D01*
X114930161Y-101860361D02*
X108334910Y-95265110D01*
X132619750Y-109747950D02*
X134843150Y-107524550D01*
X134843150Y-107524550D02*
X136785350Y-107524550D01*
X136785350Y-107524550D02*
X138207750Y-106102150D01*
X138207750Y-106102150D02*
X138207750Y-103969788D01*
X136098323Y-101860361D02*
X114930161Y-101860361D01*
X138207750Y-103969788D02*
X136098323Y-101860361D01*
X159582751Y-103397951D02*
X160432750Y-104247950D01*
X157079939Y-100895139D02*
X159582751Y-103397951D01*
X153663862Y-100895139D02*
X157079939Y-100895139D01*
X150602950Y-96527350D02*
X150602950Y-97834227D01*
X150602950Y-97834227D02*
X153663862Y-100895139D01*
X162122751Y-103397951D02*
X162972750Y-104247950D01*
X159137328Y-100412528D02*
X162122751Y-103397951D01*
X151339550Y-97888312D02*
X153863766Y-100412528D01*
X151339550Y-97857551D02*
X151339550Y-97888312D01*
X151308789Y-97857551D02*
X151339550Y-97857551D01*
X151242749Y-97791511D02*
X151308789Y-97857551D01*
X150602950Y-88322150D02*
X154514550Y-92233750D01*
X150602950Y-87127350D02*
X150602950Y-88322150D01*
X154514550Y-92233750D02*
X154514550Y-94418150D01*
X154514550Y-94418150D02*
X152087788Y-94418150D01*
X152087788Y-94418150D02*
X151242749Y-95263189D01*
X153863766Y-100412528D02*
X159137328Y-100412528D01*
X151242749Y-95263189D02*
X151242749Y-97791511D01*
D23*
X148705486Y-100550571D02*
X149129750Y-100550571D01*
X148295999Y-100141084D02*
X148705486Y-100550571D01*
X118395750Y-87026750D02*
X131510084Y-100141084D01*
X131510084Y-100141084D02*
X148295999Y-100141084D01*
D20*
X135921750Y-99218750D02*
X135921750Y-97440750D01*
D23*
X163937950Y-97593150D02*
X170592750Y-104247950D01*
X161397950Y-97593150D02*
X163937950Y-97593150D01*
D21*
X153142950Y-96527350D02*
X153142950Y-97227350D01*
X153142950Y-97227350D02*
X155007339Y-99091739D01*
X179902751Y-105097949D02*
X180752750Y-104247950D01*
X167697150Y-106102150D02*
X178898550Y-106102150D01*
X178898550Y-106102150D02*
X179902751Y-105097949D01*
X166833550Y-105238550D02*
X167697150Y-106102150D01*
X166833550Y-102444550D02*
X166833550Y-105238550D01*
X163480739Y-99091739D02*
X166833550Y-102444550D01*
X155007339Y-99091739D02*
X163480739Y-99091739D01*
D20*
X158324550Y-117379750D02*
X160432750Y-119487950D01*
X141128750Y-117379750D02*
X158324550Y-117379750D01*
X158324550Y-114839750D02*
X162972750Y-119487950D01*
X141128750Y-114839750D02*
X158324550Y-114839750D01*
X158324550Y-112299750D02*
X165512750Y-119487950D01*
X141128750Y-112299750D02*
X158324550Y-112299750D01*
X158324550Y-109759750D02*
X168052750Y-119487950D01*
X141128750Y-109759750D02*
X158324550Y-109759750D01*
X172282751Y-120337949D02*
X173132750Y-119487950D01*
X171557950Y-121062750D02*
X172282751Y-120337949D01*
X139731750Y-121062750D02*
X171557950Y-121062750D01*
X136048750Y-117379750D02*
X139731750Y-121062750D01*
X174822751Y-120337949D02*
X175672750Y-119487950D01*
X173462950Y-121697750D02*
X174822751Y-120337949D01*
X135246099Y-121697750D02*
X173462950Y-121697750D01*
X130968750Y-117420401D02*
X135246099Y-121697750D01*
D21*
X151872950Y-97227350D02*
X151872950Y-96527350D01*
X154092950Y-99447350D02*
X151872950Y-97227350D01*
X161423350Y-99447350D02*
X154092950Y-99447350D01*
X183292750Y-118285869D02*
X172328231Y-107321350D01*
X183292750Y-119487950D02*
X183292750Y-118285869D01*
X172328231Y-107321350D02*
X166223950Y-107321350D01*
X166223950Y-107321350D02*
X164217350Y-105314750D01*
X164217350Y-105314750D02*
X164217350Y-102241350D01*
X164217350Y-102241350D02*
X161423350Y-99447350D01*
D20*
X140442950Y-85934550D02*
X140442950Y-87127350D01*
X141509750Y-84867750D02*
X140442950Y-85934550D01*
X151542750Y-99530652D02*
X151542750Y-99802950D01*
X143267752Y-98782152D02*
X150794250Y-98782152D01*
X141712950Y-97227350D02*
X143267752Y-98782152D01*
X150794250Y-98782152D02*
X151542750Y-99530652D01*
X141712950Y-96527350D02*
X141712950Y-97227350D01*
D21*
X144646845Y-97729741D02*
X144946844Y-98029740D01*
X144252950Y-97335846D02*
X144646845Y-97729741D01*
X144252950Y-96527350D02*
X144252950Y-97335846D01*
D20*
X146792950Y-96527350D02*
X146792950Y-95827350D01*
X145049928Y-94084328D02*
X141294224Y-94084328D01*
X146792950Y-95827350D02*
X145049928Y-94084328D01*
X141294224Y-94084328D02*
X140869960Y-94084328D01*
X149332950Y-96527350D02*
X149332950Y-98050348D01*
X149332950Y-98050348D02*
X149358352Y-98075750D01*
D23*
X145522950Y-96527350D02*
X145522950Y-97491550D01*
X145522950Y-97491550D02*
X146056350Y-98024950D01*
D20*
X141712950Y-85934550D02*
X141712950Y-87127350D01*
X142779750Y-84867750D02*
X141712950Y-85934550D01*
X148062950Y-96527350D02*
X148062950Y-97974150D01*
D23*
X142982950Y-97593150D02*
X142982950Y-96527350D01*
X143643350Y-98024950D02*
X143414750Y-98024950D01*
X143414750Y-98024950D02*
X142982950Y-97593150D01*
D20*
X140442950Y-97227350D02*
X142866150Y-99650550D01*
X140442950Y-96527350D02*
X140442950Y-97227350D01*
X150331086Y-99828350D02*
X150755350Y-99828350D01*
X150153286Y-99650550D02*
X150331086Y-99828350D01*
X142866150Y-99650550D02*
X150153286Y-99650550D01*
D24*
G36*
X193162250Y-89912457D02*
G01*
X193003368Y-89753575D01*
X192694632Y-89547284D01*
X192351584Y-89405189D01*
X191987406Y-89332750D01*
X191616094Y-89332750D01*
X191251916Y-89405189D01*
X190908868Y-89547284D01*
X190600132Y-89753575D01*
X190337575Y-90016132D01*
X190131284Y-90324868D01*
X189989189Y-90667916D01*
X189916750Y-91032094D01*
X189916750Y-91403406D01*
X189989189Y-91767584D01*
X190131284Y-92110632D01*
X190337575Y-92419368D01*
X190600132Y-92681925D01*
X190908868Y-92888216D01*
X191251916Y-93030311D01*
X191616094Y-93102750D01*
X191987406Y-93102750D01*
X192351584Y-93030311D01*
X192694632Y-92888216D01*
X193003368Y-92681925D01*
X193162250Y-92523043D01*
X193162251Y-119045059D01*
X193154716Y-119026868D01*
X192948425Y-118718132D01*
X192685868Y-118455575D01*
X192377132Y-118249284D01*
X192034084Y-118107189D01*
X191669906Y-118034750D01*
X191298594Y-118034750D01*
X190934416Y-118107189D01*
X190591368Y-118249284D01*
X190282632Y-118455575D01*
X190020075Y-118718132D01*
X189813784Y-119026868D01*
X189671689Y-119369916D01*
X189599250Y-119734094D01*
X189599250Y-120105406D01*
X189671689Y-120469584D01*
X189813784Y-120812632D01*
X190020075Y-121121368D01*
X190282632Y-121383925D01*
X190591368Y-121590216D01*
X190609557Y-121597750D01*
X184521868Y-121597750D01*
X186718646Y-119400974D01*
X186754504Y-119371546D01*
X186785652Y-119333593D01*
X186871945Y-119228444D01*
X186871946Y-119228443D01*
X186959213Y-119065178D01*
X187012952Y-118888025D01*
X187026550Y-118749959D01*
X187026550Y-118749950D01*
X187031096Y-118703793D01*
X187026550Y-118657636D01*
X187026550Y-98604506D01*
X187031096Y-98558349D01*
X187026550Y-98512192D01*
X187026550Y-98512183D01*
X187012952Y-98374117D01*
X186959213Y-98196964D01*
X186918591Y-98120965D01*
X186871946Y-98033698D01*
X186822578Y-97973544D01*
X186754504Y-97890596D01*
X186718640Y-97861163D01*
X172204341Y-83346865D01*
X172174904Y-83310996D01*
X172031801Y-83193554D01*
X171868536Y-83106287D01*
X171691383Y-83052548D01*
X171553317Y-83038950D01*
X171553307Y-83038950D01*
X171507150Y-83034404D01*
X171460993Y-83038950D01*
X154763907Y-83038950D01*
X154717750Y-83034404D01*
X154671593Y-83038950D01*
X140539906Y-83038950D01*
X140493749Y-83034404D01*
X140447592Y-83038950D01*
X140447583Y-83038950D01*
X140309517Y-83052548D01*
X140132364Y-83106287D01*
X139969099Y-83193554D01*
X139825996Y-83310996D01*
X139796568Y-83346854D01*
X134065859Y-89077565D01*
X134029996Y-89106997D01*
X134000566Y-89142858D01*
X133912553Y-89250100D01*
X133825287Y-89413365D01*
X133771548Y-89590518D01*
X133753403Y-89774751D01*
X133757950Y-89820918D01*
X133757949Y-98529475D01*
X133700567Y-98586857D01*
X133612554Y-98694099D01*
X133525288Y-98857364D01*
X133471549Y-99034517D01*
X133453404Y-99218750D01*
X133470446Y-99391784D01*
X131820454Y-99391784D01*
X119322660Y-86893991D01*
X119294818Y-86754021D01*
X119224336Y-86583861D01*
X119122012Y-86430722D01*
X118991778Y-86300488D01*
X118838639Y-86198164D01*
X118668479Y-86127682D01*
X118487839Y-86091750D01*
X118303661Y-86091750D01*
X118123021Y-86127682D01*
X117952861Y-86198164D01*
X117799722Y-86300488D01*
X117669488Y-86430722D01*
X117567164Y-86583861D01*
X117496682Y-86754021D01*
X117460750Y-86934661D01*
X117460750Y-87118839D01*
X117496682Y-87299479D01*
X117567164Y-87469639D01*
X117669488Y-87622778D01*
X117799722Y-87753012D01*
X117952861Y-87855336D01*
X118123021Y-87925818D01*
X118262991Y-87953660D01*
X130135597Y-99826267D01*
X126800797Y-99826267D01*
X126813218Y-99796279D01*
X126849150Y-99615639D01*
X126849150Y-99431461D01*
X126813218Y-99250821D01*
X126742736Y-99080661D01*
X126640412Y-98927522D01*
X126510178Y-98797288D01*
X126357039Y-98694964D01*
X126186879Y-98624482D01*
X126006239Y-98588550D01*
X125822061Y-98588550D01*
X125641421Y-98624482D01*
X125471261Y-98694964D01*
X125409622Y-98736150D01*
X118020701Y-98736150D01*
X117235817Y-97951267D01*
X117258150Y-97924054D01*
X117306965Y-97983535D01*
X117403656Y-98062887D01*
X117513970Y-98121852D01*
X117633668Y-98158162D01*
X117758150Y-98170422D01*
X118222400Y-98167350D01*
X118381150Y-98008600D01*
X118381150Y-97034350D01*
X118635150Y-97034350D01*
X118635150Y-98008600D01*
X118793900Y-98167350D01*
X119258150Y-98170422D01*
X119382632Y-98158162D01*
X119502330Y-98121852D01*
X119612644Y-98062887D01*
X119709335Y-97983535D01*
X119788687Y-97886844D01*
X119847652Y-97776530D01*
X119883962Y-97656832D01*
X119896222Y-97532350D01*
X119893150Y-97193100D01*
X119734400Y-97034350D01*
X118635150Y-97034350D01*
X118381150Y-97034350D01*
X118361150Y-97034350D01*
X118361150Y-96780350D01*
X118381150Y-96780350D01*
X118381150Y-96760350D01*
X118635150Y-96760350D01*
X118635150Y-96780350D01*
X119734400Y-96780350D01*
X119893150Y-96621600D01*
X119896222Y-96282350D01*
X119885704Y-96175551D01*
X120035306Y-96175551D01*
X120107888Y-96284178D01*
X120238122Y-96414412D01*
X120391261Y-96516736D01*
X120561421Y-96587218D01*
X120742061Y-96623150D01*
X120926239Y-96623150D01*
X121106879Y-96587218D01*
X121277039Y-96516736D01*
X121430178Y-96414412D01*
X121560412Y-96284178D01*
X121662736Y-96131039D01*
X121733218Y-95960879D01*
X121769150Y-95780239D01*
X121769150Y-95596061D01*
X121733218Y-95415421D01*
X121662736Y-95245261D01*
X121560412Y-95092122D01*
X121430178Y-94961888D01*
X121277039Y-94859564D01*
X121106879Y-94789082D01*
X121025688Y-94772932D01*
X120973723Y-94730285D01*
X120836934Y-94657169D01*
X120799730Y-94645883D01*
X120844218Y-94538479D01*
X120880150Y-94357839D01*
X120880150Y-94173661D01*
X120844218Y-93993021D01*
X120773736Y-93822861D01*
X120671412Y-93669722D01*
X120541178Y-93539488D01*
X120388039Y-93437164D01*
X120217879Y-93366682D01*
X120145171Y-93352219D01*
X117807678Y-91014728D01*
X117783019Y-90984681D01*
X117663122Y-90886284D01*
X117526333Y-90813168D01*
X117377907Y-90768144D01*
X117262223Y-90756750D01*
X117262213Y-90756750D01*
X117223550Y-90752942D01*
X117184887Y-90756750D01*
X117140139Y-90756750D01*
X117131562Y-90669668D01*
X117095252Y-90549970D01*
X117036287Y-90439656D01*
X116956935Y-90342965D01*
X116860244Y-90263613D01*
X116749930Y-90204648D01*
X116630232Y-90168338D01*
X116505750Y-90156078D01*
X115205750Y-90156078D01*
X115081268Y-90168338D01*
X114961570Y-90204648D01*
X114851256Y-90263613D01*
X114754565Y-90342965D01*
X114675213Y-90439656D01*
X114616248Y-90549970D01*
X114579938Y-90669668D01*
X114567678Y-90794150D01*
X114567678Y-90913396D01*
X114558847Y-90918116D01*
X114510981Y-90957398D01*
X114365452Y-90957398D01*
X114524200Y-90798650D01*
X114527272Y-90784400D01*
X114515012Y-90659918D01*
X114478702Y-90540220D01*
X114419737Y-90429906D01*
X114340385Y-90333215D01*
X114243694Y-90253863D01*
X114133380Y-90194898D01*
X114013682Y-90158588D01*
X113889200Y-90146328D01*
X113199950Y-90149400D01*
X113041200Y-90308150D01*
X113041200Y-90957400D01*
X113061200Y-90957400D01*
X113061200Y-91211400D01*
X113041200Y-91211400D01*
X113041200Y-91231400D01*
X112787200Y-91231400D01*
X112787200Y-91211400D01*
X111462950Y-91211400D01*
X111304200Y-91370150D01*
X111301128Y-91384400D01*
X111313388Y-91508882D01*
X111349698Y-91628580D01*
X111408663Y-91738894D01*
X111432930Y-91768464D01*
X111361116Y-91902818D01*
X111316271Y-92050655D01*
X111301128Y-92204400D01*
X111301128Y-92232777D01*
X109852751Y-90784400D01*
X111301128Y-90784400D01*
X111304200Y-90798650D01*
X111462950Y-90957400D01*
X112787200Y-90957400D01*
X112787200Y-90308150D01*
X112628450Y-90149400D01*
X111939200Y-90146328D01*
X111814718Y-90158588D01*
X111695020Y-90194898D01*
X111584706Y-90253863D01*
X111488015Y-90333215D01*
X111408663Y-90429906D01*
X111349698Y-90540220D01*
X111313388Y-90659918D01*
X111301128Y-90784400D01*
X109852751Y-90784400D01*
X109623328Y-90554978D01*
X109598669Y-90524931D01*
X109478772Y-90426534D01*
X109341983Y-90353418D01*
X109303199Y-90341653D01*
X109227029Y-90279142D01*
X109090782Y-90206316D01*
X108942945Y-90161471D01*
X108789200Y-90146328D01*
X107139200Y-90146328D01*
X106985455Y-90161471D01*
X106837618Y-90206316D01*
X106701371Y-90279142D01*
X106581949Y-90377149D01*
X106483942Y-90496571D01*
X106411116Y-90632818D01*
X106366271Y-90780655D01*
X106351128Y-90934400D01*
X106351128Y-91234400D01*
X106366271Y-91388145D01*
X106411116Y-91535982D01*
X106483942Y-91672229D01*
X106522654Y-91719400D01*
X106483942Y-91766571D01*
X106411116Y-91902818D01*
X106366271Y-92050655D01*
X106351128Y-92204400D01*
X106351128Y-92504400D01*
X106366271Y-92658145D01*
X106411116Y-92805982D01*
X106483942Y-92942229D01*
X106522654Y-92989400D01*
X106483942Y-93036571D01*
X106411116Y-93172818D01*
X106366271Y-93320655D01*
X106351128Y-93474400D01*
X106351128Y-93774400D01*
X106366271Y-93928145D01*
X106411116Y-94075982D01*
X106483942Y-94212229D01*
X106522654Y-94259400D01*
X106483942Y-94306571D01*
X106411116Y-94442818D01*
X106366271Y-94590655D01*
X106351128Y-94744400D01*
X106351128Y-95044400D01*
X106366271Y-95198145D01*
X106411116Y-95345982D01*
X106483942Y-95482229D01*
X106581949Y-95601651D01*
X106701371Y-95699658D01*
X106837618Y-95772484D01*
X106985455Y-95817329D01*
X107139200Y-95832472D01*
X107788721Y-95832472D01*
X107805485Y-95849236D01*
X114346042Y-102389794D01*
X114370692Y-102419830D01*
X114400728Y-102444480D01*
X114400730Y-102444482D01*
X114400813Y-102444550D01*
X114490589Y-102518227D01*
X114627378Y-102591343D01*
X114775804Y-102636367D01*
X114891488Y-102647761D01*
X114891497Y-102647761D01*
X114930160Y-102651569D01*
X114968823Y-102647761D01*
X117964624Y-102647761D01*
X117913570Y-102663248D01*
X117803256Y-102722213D01*
X117706565Y-102801565D01*
X117627213Y-102898256D01*
X117568248Y-103008570D01*
X117531938Y-103128268D01*
X117519678Y-103252750D01*
X117519678Y-105852750D01*
X117531938Y-105977232D01*
X117568248Y-106096930D01*
X117627213Y-106207244D01*
X117706565Y-106303935D01*
X117803256Y-106383287D01*
X117913570Y-106442252D01*
X118033268Y-106478562D01*
X118157750Y-106490822D01*
X119682271Y-106490822D01*
X120935750Y-107744302D01*
X120935751Y-110768078D01*
X120723150Y-110768078D01*
X120598668Y-110780338D01*
X120478970Y-110816648D01*
X120368656Y-110875613D01*
X120337250Y-110901387D01*
X120337250Y-110778855D01*
X120340806Y-110742750D01*
X120326615Y-110598665D01*
X120284587Y-110460116D01*
X120216337Y-110332430D01*
X120147503Y-110248556D01*
X120124488Y-110220512D01*
X120096443Y-110197496D01*
X110147509Y-100248563D01*
X110124488Y-100220512D01*
X110012570Y-100128663D01*
X109884883Y-100060413D01*
X109746335Y-100018385D01*
X109638355Y-100007750D01*
X109602250Y-100004194D01*
X109566145Y-100007750D01*
X101604750Y-100007750D01*
X101604750Y-82427750D01*
X193162250Y-82427750D01*
X193162250Y-89912457D01*
X193162250Y-89912457D01*
G37*
X193162250Y-89912457D02*
X193003368Y-89753575D01*
X192694632Y-89547284D01*
X192351584Y-89405189D01*
X191987406Y-89332750D01*
X191616094Y-89332750D01*
X191251916Y-89405189D01*
X190908868Y-89547284D01*
X190600132Y-89753575D01*
X190337575Y-90016132D01*
X190131284Y-90324868D01*
X189989189Y-90667916D01*
X189916750Y-91032094D01*
X189916750Y-91403406D01*
X189989189Y-91767584D01*
X190131284Y-92110632D01*
X190337575Y-92419368D01*
X190600132Y-92681925D01*
X190908868Y-92888216D01*
X191251916Y-93030311D01*
X191616094Y-93102750D01*
X191987406Y-93102750D01*
X192351584Y-93030311D01*
X192694632Y-92888216D01*
X193003368Y-92681925D01*
X193162250Y-92523043D01*
X193162251Y-119045059D01*
X193154716Y-119026868D01*
X192948425Y-118718132D01*
X192685868Y-118455575D01*
X192377132Y-118249284D01*
X192034084Y-118107189D01*
X191669906Y-118034750D01*
X191298594Y-118034750D01*
X190934416Y-118107189D01*
X190591368Y-118249284D01*
X190282632Y-118455575D01*
X190020075Y-118718132D01*
X189813784Y-119026868D01*
X189671689Y-119369916D01*
X189599250Y-119734094D01*
X189599250Y-120105406D01*
X189671689Y-120469584D01*
X189813784Y-120812632D01*
X190020075Y-121121368D01*
X190282632Y-121383925D01*
X190591368Y-121590216D01*
X190609557Y-121597750D01*
X184521868Y-121597750D01*
X186718646Y-119400974D01*
X186754504Y-119371546D01*
X186785652Y-119333593D01*
X186871945Y-119228444D01*
X186871946Y-119228443D01*
X186959213Y-119065178D01*
X187012952Y-118888025D01*
X187026550Y-118749959D01*
X187026550Y-118749950D01*
X187031096Y-118703793D01*
X187026550Y-118657636D01*
X187026550Y-98604506D01*
X187031096Y-98558349D01*
X187026550Y-98512192D01*
X187026550Y-98512183D01*
X187012952Y-98374117D01*
X186959213Y-98196964D01*
X186918591Y-98120965D01*
X186871946Y-98033698D01*
X186822578Y-97973544D01*
X186754504Y-97890596D01*
X186718640Y-97861163D01*
X172204341Y-83346865D01*
X172174904Y-83310996D01*
X172031801Y-83193554D01*
X171868536Y-83106287D01*
X171691383Y-83052548D01*
X171553317Y-83038950D01*
X171553307Y-83038950D01*
X171507150Y-83034404D01*
X171460993Y-83038950D01*
X154763907Y-83038950D01*
X154717750Y-83034404D01*
X154671593Y-83038950D01*
X140539906Y-83038950D01*
X140493749Y-83034404D01*
X140447592Y-83038950D01*
X140447583Y-83038950D01*
X140309517Y-83052548D01*
X140132364Y-83106287D01*
X139969099Y-83193554D01*
X139825996Y-83310996D01*
X139796568Y-83346854D01*
X134065859Y-89077565D01*
X134029996Y-89106997D01*
X134000566Y-89142858D01*
X133912553Y-89250100D01*
X133825287Y-89413365D01*
X133771548Y-89590518D01*
X133753403Y-89774751D01*
X133757950Y-89820918D01*
X133757949Y-98529475D01*
X133700567Y-98586857D01*
X133612554Y-98694099D01*
X133525288Y-98857364D01*
X133471549Y-99034517D01*
X133453404Y-99218750D01*
X133470446Y-99391784D01*
X131820454Y-99391784D01*
X119322660Y-86893991D01*
X119294818Y-86754021D01*
X119224336Y-86583861D01*
X119122012Y-86430722D01*
X118991778Y-86300488D01*
X118838639Y-86198164D01*
X118668479Y-86127682D01*
X118487839Y-86091750D01*
X118303661Y-86091750D01*
X118123021Y-86127682D01*
X117952861Y-86198164D01*
X117799722Y-86300488D01*
X117669488Y-86430722D01*
X117567164Y-86583861D01*
X117496682Y-86754021D01*
X117460750Y-86934661D01*
X117460750Y-87118839D01*
X117496682Y-87299479D01*
X117567164Y-87469639D01*
X117669488Y-87622778D01*
X117799722Y-87753012D01*
X117952861Y-87855336D01*
X118123021Y-87925818D01*
X118262991Y-87953660D01*
X130135597Y-99826267D01*
X126800797Y-99826267D01*
X126813218Y-99796279D01*
X126849150Y-99615639D01*
X126849150Y-99431461D01*
X126813218Y-99250821D01*
X126742736Y-99080661D01*
X126640412Y-98927522D01*
X126510178Y-98797288D01*
X126357039Y-98694964D01*
X126186879Y-98624482D01*
X126006239Y-98588550D01*
X125822061Y-98588550D01*
X125641421Y-98624482D01*
X125471261Y-98694964D01*
X125409622Y-98736150D01*
X118020701Y-98736150D01*
X117235817Y-97951267D01*
X117258150Y-97924054D01*
X117306965Y-97983535D01*
X117403656Y-98062887D01*
X117513970Y-98121852D01*
X117633668Y-98158162D01*
X117758150Y-98170422D01*
X118222400Y-98167350D01*
X118381150Y-98008600D01*
X118381150Y-97034350D01*
X118635150Y-97034350D01*
X118635150Y-98008600D01*
X118793900Y-98167350D01*
X119258150Y-98170422D01*
X119382632Y-98158162D01*
X119502330Y-98121852D01*
X119612644Y-98062887D01*
X119709335Y-97983535D01*
X119788687Y-97886844D01*
X119847652Y-97776530D01*
X119883962Y-97656832D01*
X119896222Y-97532350D01*
X119893150Y-97193100D01*
X119734400Y-97034350D01*
X118635150Y-97034350D01*
X118381150Y-97034350D01*
X118361150Y-97034350D01*
X118361150Y-96780350D01*
X118381150Y-96780350D01*
X118381150Y-96760350D01*
X118635150Y-96760350D01*
X118635150Y-96780350D01*
X119734400Y-96780350D01*
X119893150Y-96621600D01*
X119896222Y-96282350D01*
X119885704Y-96175551D01*
X120035306Y-96175551D01*
X120107888Y-96284178D01*
X120238122Y-96414412D01*
X120391261Y-96516736D01*
X120561421Y-96587218D01*
X120742061Y-96623150D01*
X120926239Y-96623150D01*
X121106879Y-96587218D01*
X121277039Y-96516736D01*
X121430178Y-96414412D01*
X121560412Y-96284178D01*
X121662736Y-96131039D01*
X121733218Y-95960879D01*
X121769150Y-95780239D01*
X121769150Y-95596061D01*
X121733218Y-95415421D01*
X121662736Y-95245261D01*
X121560412Y-95092122D01*
X121430178Y-94961888D01*
X121277039Y-94859564D01*
X121106879Y-94789082D01*
X121025688Y-94772932D01*
X120973723Y-94730285D01*
X120836934Y-94657169D01*
X120799730Y-94645883D01*
X120844218Y-94538479D01*
X120880150Y-94357839D01*
X120880150Y-94173661D01*
X120844218Y-93993021D01*
X120773736Y-93822861D01*
X120671412Y-93669722D01*
X120541178Y-93539488D01*
X120388039Y-93437164D01*
X120217879Y-93366682D01*
X120145171Y-93352219D01*
X117807678Y-91014728D01*
X117783019Y-90984681D01*
X117663122Y-90886284D01*
X117526333Y-90813168D01*
X117377907Y-90768144D01*
X117262223Y-90756750D01*
X117262213Y-90756750D01*
X117223550Y-90752942D01*
X117184887Y-90756750D01*
X117140139Y-90756750D01*
X117131562Y-90669668D01*
X117095252Y-90549970D01*
X117036287Y-90439656D01*
X116956935Y-90342965D01*
X116860244Y-90263613D01*
X116749930Y-90204648D01*
X116630232Y-90168338D01*
X116505750Y-90156078D01*
X115205750Y-90156078D01*
X115081268Y-90168338D01*
X114961570Y-90204648D01*
X114851256Y-90263613D01*
X114754565Y-90342965D01*
X114675213Y-90439656D01*
X114616248Y-90549970D01*
X114579938Y-90669668D01*
X114567678Y-90794150D01*
X114567678Y-90913396D01*
X114558847Y-90918116D01*
X114510981Y-90957398D01*
X114365452Y-90957398D01*
X114524200Y-90798650D01*
X114527272Y-90784400D01*
X114515012Y-90659918D01*
X114478702Y-90540220D01*
X114419737Y-90429906D01*
X114340385Y-90333215D01*
X114243694Y-90253863D01*
X114133380Y-90194898D01*
X114013682Y-90158588D01*
X113889200Y-90146328D01*
X113199950Y-90149400D01*
X113041200Y-90308150D01*
X113041200Y-90957400D01*
X113061200Y-90957400D01*
X113061200Y-91211400D01*
X113041200Y-91211400D01*
X113041200Y-91231400D01*
X112787200Y-91231400D01*
X112787200Y-91211400D01*
X111462950Y-91211400D01*
X111304200Y-91370150D01*
X111301128Y-91384400D01*
X111313388Y-91508882D01*
X111349698Y-91628580D01*
X111408663Y-91738894D01*
X111432930Y-91768464D01*
X111361116Y-91902818D01*
X111316271Y-92050655D01*
X111301128Y-92204400D01*
X111301128Y-92232777D01*
X109852751Y-90784400D01*
X111301128Y-90784400D01*
X111304200Y-90798650D01*
X111462950Y-90957400D01*
X112787200Y-90957400D01*
X112787200Y-90308150D01*
X112628450Y-90149400D01*
X111939200Y-90146328D01*
X111814718Y-90158588D01*
X111695020Y-90194898D01*
X111584706Y-90253863D01*
X111488015Y-90333215D01*
X111408663Y-90429906D01*
X111349698Y-90540220D01*
X111313388Y-90659918D01*
X111301128Y-90784400D01*
X109852751Y-90784400D01*
X109623328Y-90554978D01*
X109598669Y-90524931D01*
X109478772Y-90426534D01*
X109341983Y-90353418D01*
X109303199Y-90341653D01*
X109227029Y-90279142D01*
X109090782Y-90206316D01*
X108942945Y-90161471D01*
X108789200Y-90146328D01*
X107139200Y-90146328D01*
X106985455Y-90161471D01*
X106837618Y-90206316D01*
X106701371Y-90279142D01*
X106581949Y-90377149D01*
X106483942Y-90496571D01*
X106411116Y-90632818D01*
X106366271Y-90780655D01*
X106351128Y-90934400D01*
X106351128Y-91234400D01*
X106366271Y-91388145D01*
X106411116Y-91535982D01*
X106483942Y-91672229D01*
X106522654Y-91719400D01*
X106483942Y-91766571D01*
X106411116Y-91902818D01*
X106366271Y-92050655D01*
X106351128Y-92204400D01*
X106351128Y-92504400D01*
X106366271Y-92658145D01*
X106411116Y-92805982D01*
X106483942Y-92942229D01*
X106522654Y-92989400D01*
X106483942Y-93036571D01*
X106411116Y-93172818D01*
X106366271Y-93320655D01*
X106351128Y-93474400D01*
X106351128Y-93774400D01*
X106366271Y-93928145D01*
X106411116Y-94075982D01*
X106483942Y-94212229D01*
X106522654Y-94259400D01*
X106483942Y-94306571D01*
X106411116Y-94442818D01*
X106366271Y-94590655D01*
X106351128Y-94744400D01*
X106351128Y-95044400D01*
X106366271Y-95198145D01*
X106411116Y-95345982D01*
X106483942Y-95482229D01*
X106581949Y-95601651D01*
X106701371Y-95699658D01*
X106837618Y-95772484D01*
X106985455Y-95817329D01*
X107139200Y-95832472D01*
X107788721Y-95832472D01*
X107805485Y-95849236D01*
X114346042Y-102389794D01*
X114370692Y-102419830D01*
X114400728Y-102444480D01*
X114400730Y-102444482D01*
X114400813Y-102444550D01*
X114490589Y-102518227D01*
X114627378Y-102591343D01*
X114775804Y-102636367D01*
X114891488Y-102647761D01*
X114891497Y-102647761D01*
X114930160Y-102651569D01*
X114968823Y-102647761D01*
X117964624Y-102647761D01*
X117913570Y-102663248D01*
X117803256Y-102722213D01*
X117706565Y-102801565D01*
X117627213Y-102898256D01*
X117568248Y-103008570D01*
X117531938Y-103128268D01*
X117519678Y-103252750D01*
X117519678Y-105852750D01*
X117531938Y-105977232D01*
X117568248Y-106096930D01*
X117627213Y-106207244D01*
X117706565Y-106303935D01*
X117803256Y-106383287D01*
X117913570Y-106442252D01*
X118033268Y-106478562D01*
X118157750Y-106490822D01*
X119682271Y-106490822D01*
X120935750Y-107744302D01*
X120935751Y-110768078D01*
X120723150Y-110768078D01*
X120598668Y-110780338D01*
X120478970Y-110816648D01*
X120368656Y-110875613D01*
X120337250Y-110901387D01*
X120337250Y-110778855D01*
X120340806Y-110742750D01*
X120326615Y-110598665D01*
X120284587Y-110460116D01*
X120216337Y-110332430D01*
X120147503Y-110248556D01*
X120124488Y-110220512D01*
X120096443Y-110197496D01*
X110147509Y-100248563D01*
X110124488Y-100220512D01*
X110012570Y-100128663D01*
X109884883Y-100060413D01*
X109746335Y-100018385D01*
X109638355Y-100007750D01*
X109602250Y-100004194D01*
X109566145Y-100007750D01*
X101604750Y-100007750D01*
X101604750Y-82427750D01*
X193162250Y-82427750D01*
X193162250Y-89912457D01*
G36*
X123076036Y-106014464D02*
G01*
X123324999Y-106218781D01*
X123609036Y-106370602D01*
X123917235Y-106464093D01*
X124237750Y-106495661D01*
X124252826Y-106494176D01*
X126015750Y-108257102D01*
X126015751Y-110973117D01*
X125890398Y-111040119D01*
X125641436Y-111244436D01*
X125534866Y-111374293D01*
X125329467Y-111160228D01*
X125065911Y-110976140D01*
X124771505Y-110847006D01*
X124643584Y-110816026D01*
X124390150Y-110935373D01*
X124390150Y-112579150D01*
X124410150Y-112579150D01*
X124410150Y-112833150D01*
X124390150Y-112833150D01*
X124390150Y-114476927D01*
X124643584Y-114596274D01*
X124771505Y-114565294D01*
X125065911Y-114436160D01*
X125329467Y-114252072D01*
X125534866Y-114038008D01*
X125641436Y-114167864D01*
X125890399Y-114372181D01*
X126174436Y-114524002D01*
X126482635Y-114617493D01*
X126803150Y-114649061D01*
X127123666Y-114617493D01*
X127431865Y-114524002D01*
X127715902Y-114372181D01*
X127844551Y-114266602D01*
X127844551Y-117729834D01*
X127840004Y-117776001D01*
X127858149Y-117960234D01*
X127911888Y-118137387D01*
X127999154Y-118300652D01*
X128059309Y-118373949D01*
X128116597Y-118443755D01*
X128152460Y-118473187D01*
X129491189Y-119811918D01*
X129476565Y-119960401D01*
X129505237Y-120251512D01*
X129590151Y-120531435D01*
X129728044Y-120789415D01*
X129913616Y-121015535D01*
X130139736Y-121201107D01*
X130397716Y-121339000D01*
X130677639Y-121423914D01*
X130895800Y-121445401D01*
X131041700Y-121445401D01*
X131259861Y-121423914D01*
X131539784Y-121339000D01*
X131797764Y-121201107D01*
X132023884Y-121015535D01*
X132209456Y-120789415D01*
X132347349Y-120531435D01*
X132432263Y-120251512D01*
X132455041Y-120020243D01*
X134032548Y-121597750D01*
X122826443Y-121597750D01*
X122844632Y-121590216D01*
X123153368Y-121383925D01*
X123415925Y-121121368D01*
X123622216Y-120812632D01*
X123764311Y-120469584D01*
X123836750Y-120105406D01*
X123836750Y-119734094D01*
X123764311Y-119369916D01*
X123622216Y-119026868D01*
X123415925Y-118718132D01*
X123153368Y-118455575D01*
X122844632Y-118249284D01*
X122501584Y-118107189D01*
X122137406Y-118034750D01*
X121766094Y-118034750D01*
X121401916Y-118107189D01*
X121058868Y-118249284D01*
X120750132Y-118455575D01*
X120487575Y-118718132D01*
X120337250Y-118943109D01*
X120337250Y-114510913D01*
X120368656Y-114536687D01*
X120478970Y-114595652D01*
X120598668Y-114631962D01*
X120723150Y-114644222D01*
X122723150Y-114644222D01*
X122847632Y-114631962D01*
X122967330Y-114595652D01*
X123077644Y-114536687D01*
X123174335Y-114457335D01*
X123253687Y-114360644D01*
X123280488Y-114310503D01*
X123460389Y-114436160D01*
X123754795Y-114565294D01*
X123882716Y-114596274D01*
X124136150Y-114476927D01*
X124136150Y-112833150D01*
X124116150Y-112833150D01*
X124116150Y-112579150D01*
X124136150Y-112579150D01*
X124136150Y-110935373D01*
X123882716Y-110816026D01*
X123754795Y-110847006D01*
X123460389Y-110976140D01*
X123280488Y-111101797D01*
X123253687Y-111051656D01*
X123174335Y-110954965D01*
X123077644Y-110875613D01*
X122967330Y-110816648D01*
X122847632Y-110780338D01*
X122723150Y-110768078D01*
X122510550Y-110768078D01*
X122510550Y-107456812D01*
X122514358Y-107418149D01*
X122510550Y-107379486D01*
X122510550Y-107379477D01*
X122499156Y-107263793D01*
X122454132Y-107115367D01*
X122381016Y-106978578D01*
X122344432Y-106934000D01*
X122307271Y-106888719D01*
X122307269Y-106888717D01*
X122282619Y-106858681D01*
X122252584Y-106834032D01*
X121824752Y-106406201D01*
X121824752Y-106323528D01*
X122078184Y-106442874D01*
X122206105Y-106411894D01*
X122500511Y-106282760D01*
X122764067Y-106098672D01*
X122969466Y-105884608D01*
X123076036Y-106014464D01*
X123076036Y-106014464D01*
G37*
X123076036Y-106014464D02*
X123324999Y-106218781D01*
X123609036Y-106370602D01*
X123917235Y-106464093D01*
X124237750Y-106495661D01*
X124252826Y-106494176D01*
X126015750Y-108257102D01*
X126015751Y-110973117D01*
X125890398Y-111040119D01*
X125641436Y-111244436D01*
X125534866Y-111374293D01*
X125329467Y-111160228D01*
X125065911Y-110976140D01*
X124771505Y-110847006D01*
X124643584Y-110816026D01*
X124390150Y-110935373D01*
X124390150Y-112579150D01*
X124410150Y-112579150D01*
X124410150Y-112833150D01*
X124390150Y-112833150D01*
X124390150Y-114476927D01*
X124643584Y-114596274D01*
X124771505Y-114565294D01*
X125065911Y-114436160D01*
X125329467Y-114252072D01*
X125534866Y-114038008D01*
X125641436Y-114167864D01*
X125890399Y-114372181D01*
X126174436Y-114524002D01*
X126482635Y-114617493D01*
X126803150Y-114649061D01*
X127123666Y-114617493D01*
X127431865Y-114524002D01*
X127715902Y-114372181D01*
X127844551Y-114266602D01*
X127844551Y-117729834D01*
X127840004Y-117776001D01*
X127858149Y-117960234D01*
X127911888Y-118137387D01*
X127999154Y-118300652D01*
X128059309Y-118373949D01*
X128116597Y-118443755D01*
X128152460Y-118473187D01*
X129491189Y-119811918D01*
X129476565Y-119960401D01*
X129505237Y-120251512D01*
X129590151Y-120531435D01*
X129728044Y-120789415D01*
X129913616Y-121015535D01*
X130139736Y-121201107D01*
X130397716Y-121339000D01*
X130677639Y-121423914D01*
X130895800Y-121445401D01*
X131041700Y-121445401D01*
X131259861Y-121423914D01*
X131539784Y-121339000D01*
X131797764Y-121201107D01*
X132023884Y-121015535D01*
X132209456Y-120789415D01*
X132347349Y-120531435D01*
X132432263Y-120251512D01*
X132455041Y-120020243D01*
X134032548Y-121597750D01*
X122826443Y-121597750D01*
X122844632Y-121590216D01*
X123153368Y-121383925D01*
X123415925Y-121121368D01*
X123622216Y-120812632D01*
X123764311Y-120469584D01*
X123836750Y-120105406D01*
X123836750Y-119734094D01*
X123764311Y-119369916D01*
X123622216Y-119026868D01*
X123415925Y-118718132D01*
X123153368Y-118455575D01*
X122844632Y-118249284D01*
X122501584Y-118107189D01*
X122137406Y-118034750D01*
X121766094Y-118034750D01*
X121401916Y-118107189D01*
X121058868Y-118249284D01*
X120750132Y-118455575D01*
X120487575Y-118718132D01*
X120337250Y-118943109D01*
X120337250Y-114510913D01*
X120368656Y-114536687D01*
X120478970Y-114595652D01*
X120598668Y-114631962D01*
X120723150Y-114644222D01*
X122723150Y-114644222D01*
X122847632Y-114631962D01*
X122967330Y-114595652D01*
X123077644Y-114536687D01*
X123174335Y-114457335D01*
X123253687Y-114360644D01*
X123280488Y-114310503D01*
X123460389Y-114436160D01*
X123754795Y-114565294D01*
X123882716Y-114596274D01*
X124136150Y-114476927D01*
X124136150Y-112833150D01*
X124116150Y-112833150D01*
X124116150Y-112579150D01*
X124136150Y-112579150D01*
X124136150Y-110935373D01*
X123882716Y-110816026D01*
X123754795Y-110847006D01*
X123460389Y-110976140D01*
X123280488Y-111101797D01*
X123253687Y-111051656D01*
X123174335Y-110954965D01*
X123077644Y-110875613D01*
X122967330Y-110816648D01*
X122847632Y-110780338D01*
X122723150Y-110768078D01*
X122510550Y-110768078D01*
X122510550Y-107456812D01*
X122514358Y-107418149D01*
X122510550Y-107379486D01*
X122510550Y-107379477D01*
X122499156Y-107263793D01*
X122454132Y-107115367D01*
X122381016Y-106978578D01*
X122344432Y-106934000D01*
X122307271Y-106888719D01*
X122307269Y-106888717D01*
X122282619Y-106858681D01*
X122252584Y-106834032D01*
X121824752Y-106406201D01*
X121824752Y-106323528D01*
X122078184Y-106442874D01*
X122206105Y-106411894D01*
X122500511Y-106282760D01*
X122764067Y-106098672D01*
X122969466Y-105884608D01*
X123076036Y-106014464D01*
G36*
X136074150Y-104476550D02*
G01*
X136094150Y-104476550D01*
X136094150Y-104730550D01*
X136074150Y-104730550D01*
X136074150Y-106379800D01*
X136232900Y-106538550D01*
X136655980Y-106540370D01*
X136459200Y-106737150D01*
X134881812Y-106737150D01*
X134843149Y-106733342D01*
X134804486Y-106737150D01*
X134804477Y-106737150D01*
X134688793Y-106748544D01*
X134540367Y-106793568D01*
X134403578Y-106866684D01*
X134403576Y-106866685D01*
X134403577Y-106866685D01*
X134313719Y-106940429D01*
X134313717Y-106940431D01*
X134283681Y-106965081D01*
X134259031Y-106995117D01*
X132090323Y-109163827D01*
X132060282Y-109188481D01*
X132035629Y-109218521D01*
X131961885Y-109308378D01*
X131905066Y-109414678D01*
X131769750Y-109414678D01*
X131645268Y-109426938D01*
X131525570Y-109463248D01*
X131415256Y-109522213D01*
X131318565Y-109601565D01*
X131239213Y-109698256D01*
X131180248Y-109808570D01*
X131143938Y-109928268D01*
X131131678Y-110052750D01*
X131131678Y-111752750D01*
X131143938Y-111877232D01*
X131180248Y-111996930D01*
X131239213Y-112107244D01*
X131318565Y-112203935D01*
X131415256Y-112283287D01*
X131525570Y-112342252D01*
X131645268Y-112378562D01*
X131769750Y-112390822D01*
X133469750Y-112390822D01*
X133594232Y-112378562D01*
X133713930Y-112342252D01*
X133824244Y-112283287D01*
X133920935Y-112203935D01*
X134000287Y-112107244D01*
X134059252Y-111996930D01*
X134080143Y-111928063D01*
X134104616Y-111957884D01*
X134330736Y-112143456D01*
X134588716Y-112281349D01*
X134868639Y-112366263D01*
X135086800Y-112387750D01*
X135232700Y-112387750D01*
X135450861Y-112366263D01*
X135730784Y-112281349D01*
X135988764Y-112143456D01*
X136214884Y-111957884D01*
X136400456Y-111731764D01*
X136538349Y-111473784D01*
X136623263Y-111193861D01*
X136651935Y-110902750D01*
X136623263Y-110611639D01*
X136588665Y-110497584D01*
X139739497Y-107346752D01*
X139802498Y-107346752D01*
X139643750Y-107505500D01*
X139640678Y-108069750D01*
X139652938Y-108194232D01*
X139689248Y-108313930D01*
X139748213Y-108424244D01*
X139827565Y-108520935D01*
X139924256Y-108600287D01*
X140034570Y-108659252D01*
X140103437Y-108680143D01*
X140073616Y-108704616D01*
X139888044Y-108930736D01*
X139750151Y-109188716D01*
X139665237Y-109468639D01*
X139636565Y-109759750D01*
X139665237Y-110050861D01*
X139750151Y-110330784D01*
X139888044Y-110588764D01*
X140073616Y-110814884D01*
X140299736Y-111000456D01*
X140354541Y-111029750D01*
X140299736Y-111059044D01*
X140073616Y-111244616D01*
X139888044Y-111470736D01*
X139750151Y-111728716D01*
X139665237Y-112008639D01*
X139636565Y-112299750D01*
X139665237Y-112590861D01*
X139750151Y-112870784D01*
X139888044Y-113128764D01*
X140073616Y-113354884D01*
X140299736Y-113540456D01*
X140354541Y-113569750D01*
X140299736Y-113599044D01*
X140073616Y-113784616D01*
X139888044Y-114010736D01*
X139750151Y-114268716D01*
X139665237Y-114548639D01*
X139636565Y-114839750D01*
X139665237Y-115130861D01*
X139750151Y-115410784D01*
X139888044Y-115668764D01*
X140073616Y-115894884D01*
X140299736Y-116080456D01*
X140354541Y-116109750D01*
X140299736Y-116139044D01*
X140073616Y-116324616D01*
X139888044Y-116550736D01*
X139750151Y-116808716D01*
X139665237Y-117088639D01*
X139636565Y-117379750D01*
X139665237Y-117670861D01*
X139750151Y-117950784D01*
X139888044Y-118208764D01*
X140073616Y-118434884D01*
X140299736Y-118620456D01*
X140557716Y-118758349D01*
X140837639Y-118843263D01*
X141055800Y-118864750D01*
X141201700Y-118864750D01*
X141419861Y-118843263D01*
X141699784Y-118758349D01*
X141957764Y-118620456D01*
X142183884Y-118434884D01*
X142369456Y-118208764D01*
X142391699Y-118167150D01*
X146455466Y-118167150D01*
X146431565Y-118186765D01*
X146352213Y-118283456D01*
X146293248Y-118393770D01*
X146256938Y-118513468D01*
X146244678Y-118637950D01*
X146244678Y-120275350D01*
X140057902Y-120275350D01*
X137498566Y-117716015D01*
X137512263Y-117670861D01*
X137540935Y-117379750D01*
X137512263Y-117088639D01*
X137427349Y-116808716D01*
X137289456Y-116550736D01*
X137103884Y-116324616D01*
X137074063Y-116300143D01*
X137142930Y-116279252D01*
X137253244Y-116220287D01*
X137349935Y-116140935D01*
X137429287Y-116044244D01*
X137488252Y-115933930D01*
X137524562Y-115814232D01*
X137536822Y-115689750D01*
X137536822Y-113989750D01*
X137524562Y-113865268D01*
X137488252Y-113745570D01*
X137429287Y-113635256D01*
X137349935Y-113538565D01*
X137253244Y-113459213D01*
X137142930Y-113400248D01*
X137023232Y-113363938D01*
X136898750Y-113351678D01*
X135198750Y-113351678D01*
X135074268Y-113363938D01*
X134954570Y-113400248D01*
X134844256Y-113459213D01*
X134747565Y-113538565D01*
X134668213Y-113635256D01*
X134609248Y-113745570D01*
X134572938Y-113865268D01*
X134560678Y-113989750D01*
X134560678Y-115689750D01*
X134572938Y-115814232D01*
X134609248Y-115933930D01*
X134668213Y-116044244D01*
X134747565Y-116140935D01*
X134844256Y-116220287D01*
X134954570Y-116279252D01*
X135023437Y-116300143D01*
X134993616Y-116324616D01*
X134808044Y-116550736D01*
X134670151Y-116808716D01*
X134585237Y-117088639D01*
X134556565Y-117379750D01*
X134585237Y-117670861D01*
X134670151Y-117950784D01*
X134808044Y-118208764D01*
X134993616Y-118434884D01*
X135219736Y-118620456D01*
X135274541Y-118649750D01*
X135219736Y-118679044D01*
X134993616Y-118864616D01*
X134808044Y-119090736D01*
X134670151Y-119348716D01*
X134585237Y-119628639D01*
X134558814Y-119896914D01*
X132418566Y-117756666D01*
X132432263Y-117711512D01*
X132460935Y-117420401D01*
X132432263Y-117129290D01*
X132347349Y-116849367D01*
X132209456Y-116591387D01*
X132023884Y-116365267D01*
X131994063Y-116340794D01*
X132062930Y-116319903D01*
X132173244Y-116260938D01*
X132269935Y-116181586D01*
X132349287Y-116084895D01*
X132408252Y-115974581D01*
X132444562Y-115854883D01*
X132456822Y-115730401D01*
X132456822Y-114030401D01*
X132444562Y-113905919D01*
X132408252Y-113786221D01*
X132349287Y-113675907D01*
X132269935Y-113579216D01*
X132173244Y-113499864D01*
X132062930Y-113440899D01*
X131943232Y-113404589D01*
X131818750Y-113392329D01*
X130118750Y-113392329D01*
X129994268Y-113404589D01*
X129874570Y-113440899D01*
X129764256Y-113499864D01*
X129724150Y-113532778D01*
X129724150Y-109915626D01*
X133121455Y-106518323D01*
X133407150Y-106546461D01*
X133727665Y-106514893D01*
X134035864Y-106421402D01*
X134319901Y-106269581D01*
X134391411Y-106210895D01*
X134416613Y-106258044D01*
X134495965Y-106354735D01*
X134592656Y-106434087D01*
X134702970Y-106493052D01*
X134822668Y-106529362D01*
X134947150Y-106541622D01*
X135661400Y-106538550D01*
X135820150Y-106379800D01*
X135820150Y-104730550D01*
X135800150Y-104730550D01*
X135800150Y-104476550D01*
X135820150Y-104476550D01*
X135820150Y-104456550D01*
X136074150Y-104456550D01*
X136074150Y-104476550D01*
X136074150Y-104476550D01*
G37*
X136074150Y-104476550D02*
X136094150Y-104476550D01*
X136094150Y-104730550D01*
X136074150Y-104730550D01*
X136074150Y-106379800D01*
X136232900Y-106538550D01*
X136655980Y-106540370D01*
X136459200Y-106737150D01*
X134881812Y-106737150D01*
X134843149Y-106733342D01*
X134804486Y-106737150D01*
X134804477Y-106737150D01*
X134688793Y-106748544D01*
X134540367Y-106793568D01*
X134403578Y-106866684D01*
X134403576Y-106866685D01*
X134403577Y-106866685D01*
X134313719Y-106940429D01*
X134313717Y-106940431D01*
X134283681Y-106965081D01*
X134259031Y-106995117D01*
X132090323Y-109163827D01*
X132060282Y-109188481D01*
X132035629Y-109218521D01*
X131961885Y-109308378D01*
X131905066Y-109414678D01*
X131769750Y-109414678D01*
X131645268Y-109426938D01*
X131525570Y-109463248D01*
X131415256Y-109522213D01*
X131318565Y-109601565D01*
X131239213Y-109698256D01*
X131180248Y-109808570D01*
X131143938Y-109928268D01*
X131131678Y-110052750D01*
X131131678Y-111752750D01*
X131143938Y-111877232D01*
X131180248Y-111996930D01*
X131239213Y-112107244D01*
X131318565Y-112203935D01*
X131415256Y-112283287D01*
X131525570Y-112342252D01*
X131645268Y-112378562D01*
X131769750Y-112390822D01*
X133469750Y-112390822D01*
X133594232Y-112378562D01*
X133713930Y-112342252D01*
X133824244Y-112283287D01*
X133920935Y-112203935D01*
X134000287Y-112107244D01*
X134059252Y-111996930D01*
X134080143Y-111928063D01*
X134104616Y-111957884D01*
X134330736Y-112143456D01*
X134588716Y-112281349D01*
X134868639Y-112366263D01*
X135086800Y-112387750D01*
X135232700Y-112387750D01*
X135450861Y-112366263D01*
X135730784Y-112281349D01*
X135988764Y-112143456D01*
X136214884Y-111957884D01*
X136400456Y-111731764D01*
X136538349Y-111473784D01*
X136623263Y-111193861D01*
X136651935Y-110902750D01*
X136623263Y-110611639D01*
X136588665Y-110497584D01*
X139739497Y-107346752D01*
X139802498Y-107346752D01*
X139643750Y-107505500D01*
X139640678Y-108069750D01*
X139652938Y-108194232D01*
X139689248Y-108313930D01*
X139748213Y-108424244D01*
X139827565Y-108520935D01*
X139924256Y-108600287D01*
X140034570Y-108659252D01*
X140103437Y-108680143D01*
X140073616Y-108704616D01*
X139888044Y-108930736D01*
X139750151Y-109188716D01*
X139665237Y-109468639D01*
X139636565Y-109759750D01*
X139665237Y-110050861D01*
X139750151Y-110330784D01*
X139888044Y-110588764D01*
X140073616Y-110814884D01*
X140299736Y-111000456D01*
X140354541Y-111029750D01*
X140299736Y-111059044D01*
X140073616Y-111244616D01*
X139888044Y-111470736D01*
X139750151Y-111728716D01*
X139665237Y-112008639D01*
X139636565Y-112299750D01*
X139665237Y-112590861D01*
X139750151Y-112870784D01*
X139888044Y-113128764D01*
X140073616Y-113354884D01*
X140299736Y-113540456D01*
X140354541Y-113569750D01*
X140299736Y-113599044D01*
X140073616Y-113784616D01*
X139888044Y-114010736D01*
X139750151Y-114268716D01*
X139665237Y-114548639D01*
X139636565Y-114839750D01*
X139665237Y-115130861D01*
X139750151Y-115410784D01*
X139888044Y-115668764D01*
X140073616Y-115894884D01*
X140299736Y-116080456D01*
X140354541Y-116109750D01*
X140299736Y-116139044D01*
X140073616Y-116324616D01*
X139888044Y-116550736D01*
X139750151Y-116808716D01*
X139665237Y-117088639D01*
X139636565Y-117379750D01*
X139665237Y-117670861D01*
X139750151Y-117950784D01*
X139888044Y-118208764D01*
X140073616Y-118434884D01*
X140299736Y-118620456D01*
X140557716Y-118758349D01*
X140837639Y-118843263D01*
X141055800Y-118864750D01*
X141201700Y-118864750D01*
X141419861Y-118843263D01*
X141699784Y-118758349D01*
X141957764Y-118620456D01*
X142183884Y-118434884D01*
X142369456Y-118208764D01*
X142391699Y-118167150D01*
X146455466Y-118167150D01*
X146431565Y-118186765D01*
X146352213Y-118283456D01*
X146293248Y-118393770D01*
X146256938Y-118513468D01*
X146244678Y-118637950D01*
X146244678Y-120275350D01*
X140057902Y-120275350D01*
X137498566Y-117716015D01*
X137512263Y-117670861D01*
X137540935Y-117379750D01*
X137512263Y-117088639D01*
X137427349Y-116808716D01*
X137289456Y-116550736D01*
X137103884Y-116324616D01*
X137074063Y-116300143D01*
X137142930Y-116279252D01*
X137253244Y-116220287D01*
X137349935Y-116140935D01*
X137429287Y-116044244D01*
X137488252Y-115933930D01*
X137524562Y-115814232D01*
X137536822Y-115689750D01*
X137536822Y-113989750D01*
X137524562Y-113865268D01*
X137488252Y-113745570D01*
X137429287Y-113635256D01*
X137349935Y-113538565D01*
X137253244Y-113459213D01*
X137142930Y-113400248D01*
X137023232Y-113363938D01*
X136898750Y-113351678D01*
X135198750Y-113351678D01*
X135074268Y-113363938D01*
X134954570Y-113400248D01*
X134844256Y-113459213D01*
X134747565Y-113538565D01*
X134668213Y-113635256D01*
X134609248Y-113745570D01*
X134572938Y-113865268D01*
X134560678Y-113989750D01*
X134560678Y-115689750D01*
X134572938Y-115814232D01*
X134609248Y-115933930D01*
X134668213Y-116044244D01*
X134747565Y-116140935D01*
X134844256Y-116220287D01*
X134954570Y-116279252D01*
X135023437Y-116300143D01*
X134993616Y-116324616D01*
X134808044Y-116550736D01*
X134670151Y-116808716D01*
X134585237Y-117088639D01*
X134556565Y-117379750D01*
X134585237Y-117670861D01*
X134670151Y-117950784D01*
X134808044Y-118208764D01*
X134993616Y-118434884D01*
X135219736Y-118620456D01*
X135274541Y-118649750D01*
X135219736Y-118679044D01*
X134993616Y-118864616D01*
X134808044Y-119090736D01*
X134670151Y-119348716D01*
X134585237Y-119628639D01*
X134558814Y-119896914D01*
X132418566Y-117756666D01*
X132432263Y-117711512D01*
X132460935Y-117420401D01*
X132432263Y-117129290D01*
X132347349Y-116849367D01*
X132209456Y-116591387D01*
X132023884Y-116365267D01*
X131994063Y-116340794D01*
X132062930Y-116319903D01*
X132173244Y-116260938D01*
X132269935Y-116181586D01*
X132349287Y-116084895D01*
X132408252Y-115974581D01*
X132444562Y-115854883D01*
X132456822Y-115730401D01*
X132456822Y-114030401D01*
X132444562Y-113905919D01*
X132408252Y-113786221D01*
X132349287Y-113675907D01*
X132269935Y-113579216D01*
X132173244Y-113499864D01*
X132062930Y-113440899D01*
X131943232Y-113404589D01*
X131818750Y-113392329D01*
X130118750Y-113392329D01*
X129994268Y-113404589D01*
X129874570Y-113440899D01*
X129764256Y-113499864D01*
X129724150Y-113532778D01*
X129724150Y-109915626D01*
X133121455Y-106518323D01*
X133407150Y-106546461D01*
X133727665Y-106514893D01*
X134035864Y-106421402D01*
X134319901Y-106269581D01*
X134391411Y-106210895D01*
X134416613Y-106258044D01*
X134495965Y-106354735D01*
X134592656Y-106434087D01*
X134702970Y-106493052D01*
X134822668Y-106529362D01*
X134947150Y-106541622D01*
X135661400Y-106538550D01*
X135820150Y-106379800D01*
X135820150Y-104730550D01*
X135800150Y-104730550D01*
X135800150Y-104476550D01*
X135820150Y-104476550D01*
X135820150Y-104456550D01*
X136074150Y-104456550D01*
X136074150Y-104476550D01*
G36*
X150399750Y-119360950D02*
G01*
X150419750Y-119360950D01*
X150419750Y-119614950D01*
X150399750Y-119614950D01*
X150399750Y-119634950D01*
X150145750Y-119634950D01*
X150145750Y-119614950D01*
X150125750Y-119614950D01*
X150125750Y-119360950D01*
X150145750Y-119360950D01*
X150145750Y-119340950D01*
X150399750Y-119340950D01*
X150399750Y-119360950D01*
X150399750Y-119360950D01*
G37*
X150399750Y-119360950D02*
X150419750Y-119360950D01*
X150419750Y-119614950D01*
X150399750Y-119614950D01*
X150399750Y-119634950D01*
X150145750Y-119634950D01*
X150145750Y-119614950D01*
X150125750Y-119614950D01*
X150125750Y-119360950D01*
X150145750Y-119360950D01*
X150145750Y-119340950D01*
X150399750Y-119340950D01*
X150399750Y-119360950D01*
G36*
X185146950Y-98947627D02*
G01*
X185146951Y-118314513D01*
X184627181Y-118834284D01*
X184533456Y-118658936D01*
X184347884Y-118432816D01*
X184121764Y-118247244D01*
X184010490Y-118187767D01*
X184006175Y-118143960D01*
X183964782Y-118007504D01*
X183897563Y-117881746D01*
X183856188Y-117831330D01*
X183829766Y-117799135D01*
X183829765Y-117799134D01*
X183807101Y-117771518D01*
X183779485Y-117748854D01*
X172865255Y-106834626D01*
X172858217Y-106826050D01*
X178862994Y-106826050D01*
X178898550Y-106829552D01*
X179040459Y-106815575D01*
X179068727Y-106807000D01*
X179176915Y-106774182D01*
X179302673Y-106706963D01*
X179412901Y-106616501D01*
X179435573Y-106588875D01*
X180347584Y-105676865D01*
X180461639Y-105711463D01*
X180679800Y-105732950D01*
X180825700Y-105732950D01*
X181043861Y-105711463D01*
X181323784Y-105626549D01*
X181581764Y-105488656D01*
X181807884Y-105303084D01*
X181993456Y-105076964D01*
X182022750Y-105022159D01*
X182052044Y-105076964D01*
X182237616Y-105303084D01*
X182463736Y-105488656D01*
X182721716Y-105626549D01*
X183001639Y-105711463D01*
X183219800Y-105732950D01*
X183365700Y-105732950D01*
X183583861Y-105711463D01*
X183863784Y-105626549D01*
X184121764Y-105488656D01*
X184347884Y-105303084D01*
X184533456Y-105076964D01*
X184671349Y-104818984D01*
X184756263Y-104539061D01*
X184784935Y-104247950D01*
X184756263Y-103956839D01*
X184671349Y-103676916D01*
X184533456Y-103418936D01*
X184347884Y-103192816D01*
X184121764Y-103007244D01*
X183863784Y-102869351D01*
X183583861Y-102784437D01*
X183365700Y-102762950D01*
X183219800Y-102762950D01*
X183001639Y-102784437D01*
X182721716Y-102869351D01*
X182463736Y-103007244D01*
X182237616Y-103192816D01*
X182052044Y-103418936D01*
X182022750Y-103473741D01*
X181993456Y-103418936D01*
X181807884Y-103192816D01*
X181581764Y-103007244D01*
X181323784Y-102869351D01*
X181043861Y-102784437D01*
X180825700Y-102762950D01*
X180679800Y-102762950D01*
X180461639Y-102784437D01*
X180181716Y-102869351D01*
X179923736Y-103007244D01*
X179697616Y-103192816D01*
X179512044Y-103418936D01*
X179482750Y-103473741D01*
X179453456Y-103418936D01*
X179267884Y-103192816D01*
X179041764Y-103007244D01*
X178783784Y-102869351D01*
X178503861Y-102784437D01*
X178285700Y-102762950D01*
X178139800Y-102762950D01*
X177921639Y-102784437D01*
X177641716Y-102869351D01*
X177383736Y-103007244D01*
X177157616Y-103192816D01*
X176972044Y-103418936D01*
X176942750Y-103473741D01*
X176913456Y-103418936D01*
X176727884Y-103192816D01*
X176501764Y-103007244D01*
X176243784Y-102869351D01*
X175963861Y-102784437D01*
X175745700Y-102762950D01*
X175599800Y-102762950D01*
X175381639Y-102784437D01*
X175101716Y-102869351D01*
X174843736Y-103007244D01*
X174617616Y-103192816D01*
X174432044Y-103418936D01*
X174402750Y-103473741D01*
X174373456Y-103418936D01*
X174187884Y-103192816D01*
X173961764Y-103007244D01*
X173703784Y-102869351D01*
X173423861Y-102784437D01*
X173205700Y-102762950D01*
X173059800Y-102762950D01*
X172841639Y-102784437D01*
X172561716Y-102869351D01*
X172303736Y-103007244D01*
X172077616Y-103192816D01*
X171892044Y-103418936D01*
X171862750Y-103473741D01*
X171833456Y-103418936D01*
X171647884Y-103192816D01*
X171421764Y-103007244D01*
X171163784Y-102869351D01*
X170883861Y-102784437D01*
X170665700Y-102762950D01*
X170519800Y-102762950D01*
X170301639Y-102784437D01*
X170215145Y-102810675D01*
X164493813Y-97089344D01*
X164470348Y-97060752D01*
X164356253Y-96967116D01*
X164226082Y-96897538D01*
X164084838Y-96854692D01*
X163974756Y-96843850D01*
X163974745Y-96843850D01*
X163937950Y-96840226D01*
X163901155Y-96843850D01*
X161959499Y-96843850D01*
X161840839Y-96764564D01*
X161670679Y-96694082D01*
X161490039Y-96658150D01*
X161305861Y-96658150D01*
X161125221Y-96694082D01*
X160955061Y-96764564D01*
X160801922Y-96866888D01*
X160671688Y-96997122D01*
X160569364Y-97150261D01*
X160498882Y-97320421D01*
X160462950Y-97501061D01*
X160462950Y-97685239D01*
X160498882Y-97865879D01*
X160569364Y-98036039D01*
X160671688Y-98189178D01*
X160801922Y-98319412D01*
X160874398Y-98367839D01*
X155307188Y-98367839D01*
X155021691Y-98082343D01*
X155067444Y-98057887D01*
X155164135Y-97978535D01*
X155243487Y-97881844D01*
X155302452Y-97771530D01*
X155338762Y-97651832D01*
X155351022Y-97527350D01*
X155347950Y-96813100D01*
X155189200Y-96654350D01*
X154539950Y-96654350D01*
X154539950Y-96674350D01*
X154285950Y-96674350D01*
X154285950Y-96654350D01*
X154265950Y-96654350D01*
X154265950Y-96400350D01*
X154285950Y-96400350D01*
X154285950Y-96380350D01*
X154539950Y-96380350D01*
X154539950Y-96400350D01*
X155189200Y-96400350D01*
X155347950Y-96241600D01*
X155351022Y-95527350D01*
X155338762Y-95402868D01*
X155302452Y-95283170D01*
X155243487Y-95172856D01*
X155164135Y-95076165D01*
X155067444Y-94996813D01*
X155057262Y-94991371D01*
X155074019Y-94977619D01*
X155172416Y-94857722D01*
X155245532Y-94720933D01*
X155290556Y-94572507D01*
X155305759Y-94418150D01*
X155301950Y-94379477D01*
X155301950Y-93832750D01*
X155486678Y-93832750D01*
X155498938Y-93957232D01*
X155535248Y-94076930D01*
X155594213Y-94187244D01*
X155673565Y-94283935D01*
X155770256Y-94363287D01*
X155880570Y-94422252D01*
X156000268Y-94458562D01*
X156124750Y-94470822D01*
X156464000Y-94467750D01*
X156622750Y-94309000D01*
X156622750Y-93209750D01*
X156876750Y-93209750D01*
X156876750Y-94309000D01*
X157035500Y-94467750D01*
X157374750Y-94470822D01*
X157499232Y-94458562D01*
X157618930Y-94422252D01*
X157729244Y-94363287D01*
X157825935Y-94283935D01*
X157905287Y-94187244D01*
X157964252Y-94076930D01*
X158000562Y-93957232D01*
X158012822Y-93832750D01*
X158009750Y-93368500D01*
X157851000Y-93209750D01*
X156876750Y-93209750D01*
X156622750Y-93209750D01*
X155648500Y-93209750D01*
X155489750Y-93368500D01*
X155486678Y-93832750D01*
X155301950Y-93832750D01*
X155301950Y-92272415D01*
X155305758Y-92233750D01*
X155301950Y-92195084D01*
X155301950Y-92195077D01*
X155290556Y-92079393D01*
X155288793Y-92073579D01*
X155245532Y-91930967D01*
X155172416Y-91794177D01*
X155098671Y-91704320D01*
X155074019Y-91674281D01*
X155043979Y-91649628D01*
X152159772Y-88765422D01*
X152172950Y-88765422D01*
X152297432Y-88753162D01*
X152417130Y-88716852D01*
X152507950Y-88668307D01*
X152598770Y-88716852D01*
X152718468Y-88753162D01*
X152842950Y-88765422D01*
X153442950Y-88765422D01*
X153567432Y-88753162D01*
X153687130Y-88716852D01*
X153777950Y-88668307D01*
X153868770Y-88716852D01*
X153988468Y-88753162D01*
X154112950Y-88765422D01*
X154712950Y-88765422D01*
X154721139Y-88764616D01*
X155538677Y-89582155D01*
X155535248Y-89588570D01*
X155498938Y-89708268D01*
X155486678Y-89832750D01*
X155486678Y-91332750D01*
X155498938Y-91457232D01*
X155535248Y-91576930D01*
X155594213Y-91687244D01*
X155673565Y-91783935D01*
X155733046Y-91832750D01*
X155673565Y-91881565D01*
X155594213Y-91978256D01*
X155535248Y-92088570D01*
X155498938Y-92208268D01*
X155486678Y-92332750D01*
X155489750Y-92797000D01*
X155648500Y-92955750D01*
X156622750Y-92955750D01*
X156622750Y-92935750D01*
X156876750Y-92935750D01*
X156876750Y-92955750D01*
X157851000Y-92955750D01*
X158009750Y-92797000D01*
X158012822Y-92332750D01*
X158000562Y-92208268D01*
X157964252Y-92088570D01*
X157905287Y-91978256D01*
X157825935Y-91881565D01*
X157766454Y-91832750D01*
X157825935Y-91783935D01*
X157905287Y-91687244D01*
X157964252Y-91576930D01*
X157980540Y-91523235D01*
X158019750Y-91527097D01*
X158065917Y-91522550D01*
X158203983Y-91508952D01*
X158381136Y-91455213D01*
X158544401Y-91367946D01*
X158687504Y-91250504D01*
X158804946Y-91107401D01*
X158892213Y-90944136D01*
X158945952Y-90766983D01*
X158964097Y-90582750D01*
X158959550Y-90536583D01*
X158959550Y-87326906D01*
X158964096Y-87280749D01*
X158959550Y-87234592D01*
X158959550Y-87234583D01*
X158945952Y-87096517D01*
X158892213Y-86919364D01*
X158804946Y-86756099D01*
X158687504Y-86612996D01*
X158651646Y-86583568D01*
X156986627Y-84918550D01*
X171117874Y-84918550D01*
X185146950Y-98947627D01*
X185146950Y-98947627D01*
G37*
X185146950Y-98947627D02*
X185146951Y-118314513D01*
X184627181Y-118834284D01*
X184533456Y-118658936D01*
X184347884Y-118432816D01*
X184121764Y-118247244D01*
X184010490Y-118187767D01*
X184006175Y-118143960D01*
X183964782Y-118007504D01*
X183897563Y-117881746D01*
X183856188Y-117831330D01*
X183829766Y-117799135D01*
X183829765Y-117799134D01*
X183807101Y-117771518D01*
X183779485Y-117748854D01*
X172865255Y-106834626D01*
X172858217Y-106826050D01*
X178862994Y-106826050D01*
X178898550Y-106829552D01*
X179040459Y-106815575D01*
X179068727Y-106807000D01*
X179176915Y-106774182D01*
X179302673Y-106706963D01*
X179412901Y-106616501D01*
X179435573Y-106588875D01*
X180347584Y-105676865D01*
X180461639Y-105711463D01*
X180679800Y-105732950D01*
X180825700Y-105732950D01*
X181043861Y-105711463D01*
X181323784Y-105626549D01*
X181581764Y-105488656D01*
X181807884Y-105303084D01*
X181993456Y-105076964D01*
X182022750Y-105022159D01*
X182052044Y-105076964D01*
X182237616Y-105303084D01*
X182463736Y-105488656D01*
X182721716Y-105626549D01*
X183001639Y-105711463D01*
X183219800Y-105732950D01*
X183365700Y-105732950D01*
X183583861Y-105711463D01*
X183863784Y-105626549D01*
X184121764Y-105488656D01*
X184347884Y-105303084D01*
X184533456Y-105076964D01*
X184671349Y-104818984D01*
X184756263Y-104539061D01*
X184784935Y-104247950D01*
X184756263Y-103956839D01*
X184671349Y-103676916D01*
X184533456Y-103418936D01*
X184347884Y-103192816D01*
X184121764Y-103007244D01*
X183863784Y-102869351D01*
X183583861Y-102784437D01*
X183365700Y-102762950D01*
X183219800Y-102762950D01*
X183001639Y-102784437D01*
X182721716Y-102869351D01*
X182463736Y-103007244D01*
X182237616Y-103192816D01*
X182052044Y-103418936D01*
X182022750Y-103473741D01*
X181993456Y-103418936D01*
X181807884Y-103192816D01*
X181581764Y-103007244D01*
X181323784Y-102869351D01*
X181043861Y-102784437D01*
X180825700Y-102762950D01*
X180679800Y-102762950D01*
X180461639Y-102784437D01*
X180181716Y-102869351D01*
X179923736Y-103007244D01*
X179697616Y-103192816D01*
X179512044Y-103418936D01*
X179482750Y-103473741D01*
X179453456Y-103418936D01*
X179267884Y-103192816D01*
X179041764Y-103007244D01*
X178783784Y-102869351D01*
X178503861Y-102784437D01*
X178285700Y-102762950D01*
X178139800Y-102762950D01*
X177921639Y-102784437D01*
X177641716Y-102869351D01*
X177383736Y-103007244D01*
X177157616Y-103192816D01*
X176972044Y-103418936D01*
X176942750Y-103473741D01*
X176913456Y-103418936D01*
X176727884Y-103192816D01*
X176501764Y-103007244D01*
X176243784Y-102869351D01*
X175963861Y-102784437D01*
X175745700Y-102762950D01*
X175599800Y-102762950D01*
X175381639Y-102784437D01*
X175101716Y-102869351D01*
X174843736Y-103007244D01*
X174617616Y-103192816D01*
X174432044Y-103418936D01*
X174402750Y-103473741D01*
X174373456Y-103418936D01*
X174187884Y-103192816D01*
X173961764Y-103007244D01*
X173703784Y-102869351D01*
X173423861Y-102784437D01*
X173205700Y-102762950D01*
X173059800Y-102762950D01*
X172841639Y-102784437D01*
X172561716Y-102869351D01*
X172303736Y-103007244D01*
X172077616Y-103192816D01*
X171892044Y-103418936D01*
X171862750Y-103473741D01*
X171833456Y-103418936D01*
X171647884Y-103192816D01*
X171421764Y-103007244D01*
X171163784Y-102869351D01*
X170883861Y-102784437D01*
X170665700Y-102762950D01*
X170519800Y-102762950D01*
X170301639Y-102784437D01*
X170215145Y-102810675D01*
X164493813Y-97089344D01*
X164470348Y-97060752D01*
X164356253Y-96967116D01*
X164226082Y-96897538D01*
X164084838Y-96854692D01*
X163974756Y-96843850D01*
X163974745Y-96843850D01*
X163937950Y-96840226D01*
X163901155Y-96843850D01*
X161959499Y-96843850D01*
X161840839Y-96764564D01*
X161670679Y-96694082D01*
X161490039Y-96658150D01*
X161305861Y-96658150D01*
X161125221Y-96694082D01*
X160955061Y-96764564D01*
X160801922Y-96866888D01*
X160671688Y-96997122D01*
X160569364Y-97150261D01*
X160498882Y-97320421D01*
X160462950Y-97501061D01*
X160462950Y-97685239D01*
X160498882Y-97865879D01*
X160569364Y-98036039D01*
X160671688Y-98189178D01*
X160801922Y-98319412D01*
X160874398Y-98367839D01*
X155307188Y-98367839D01*
X155021691Y-98082343D01*
X155067444Y-98057887D01*
X155164135Y-97978535D01*
X155243487Y-97881844D01*
X155302452Y-97771530D01*
X155338762Y-97651832D01*
X155351022Y-97527350D01*
X155347950Y-96813100D01*
X155189200Y-96654350D01*
X154539950Y-96654350D01*
X154539950Y-96674350D01*
X154285950Y-96674350D01*
X154285950Y-96654350D01*
X154265950Y-96654350D01*
X154265950Y-96400350D01*
X154285950Y-96400350D01*
X154285950Y-96380350D01*
X154539950Y-96380350D01*
X154539950Y-96400350D01*
X155189200Y-96400350D01*
X155347950Y-96241600D01*
X155351022Y-95527350D01*
X155338762Y-95402868D01*
X155302452Y-95283170D01*
X155243487Y-95172856D01*
X155164135Y-95076165D01*
X155067444Y-94996813D01*
X155057262Y-94991371D01*
X155074019Y-94977619D01*
X155172416Y-94857722D01*
X155245532Y-94720933D01*
X155290556Y-94572507D01*
X155305759Y-94418150D01*
X155301950Y-94379477D01*
X155301950Y-93832750D01*
X155486678Y-93832750D01*
X155498938Y-93957232D01*
X155535248Y-94076930D01*
X155594213Y-94187244D01*
X155673565Y-94283935D01*
X155770256Y-94363287D01*
X155880570Y-94422252D01*
X156000268Y-94458562D01*
X156124750Y-94470822D01*
X156464000Y-94467750D01*
X156622750Y-94309000D01*
X156622750Y-93209750D01*
X156876750Y-93209750D01*
X156876750Y-94309000D01*
X157035500Y-94467750D01*
X157374750Y-94470822D01*
X157499232Y-94458562D01*
X157618930Y-94422252D01*
X157729244Y-94363287D01*
X157825935Y-94283935D01*
X157905287Y-94187244D01*
X157964252Y-94076930D01*
X158000562Y-93957232D01*
X158012822Y-93832750D01*
X158009750Y-93368500D01*
X157851000Y-93209750D01*
X156876750Y-93209750D01*
X156622750Y-93209750D01*
X155648500Y-93209750D01*
X155489750Y-93368500D01*
X155486678Y-93832750D01*
X155301950Y-93832750D01*
X155301950Y-92272415D01*
X155305758Y-92233750D01*
X155301950Y-92195084D01*
X155301950Y-92195077D01*
X155290556Y-92079393D01*
X155288793Y-92073579D01*
X155245532Y-91930967D01*
X155172416Y-91794177D01*
X155098671Y-91704320D01*
X155074019Y-91674281D01*
X155043979Y-91649628D01*
X152159772Y-88765422D01*
X152172950Y-88765422D01*
X152297432Y-88753162D01*
X152417130Y-88716852D01*
X152507950Y-88668307D01*
X152598770Y-88716852D01*
X152718468Y-88753162D01*
X152842950Y-88765422D01*
X153442950Y-88765422D01*
X153567432Y-88753162D01*
X153687130Y-88716852D01*
X153777950Y-88668307D01*
X153868770Y-88716852D01*
X153988468Y-88753162D01*
X154112950Y-88765422D01*
X154712950Y-88765422D01*
X154721139Y-88764616D01*
X155538677Y-89582155D01*
X155535248Y-89588570D01*
X155498938Y-89708268D01*
X155486678Y-89832750D01*
X155486678Y-91332750D01*
X155498938Y-91457232D01*
X155535248Y-91576930D01*
X155594213Y-91687244D01*
X155673565Y-91783935D01*
X155733046Y-91832750D01*
X155673565Y-91881565D01*
X155594213Y-91978256D01*
X155535248Y-92088570D01*
X155498938Y-92208268D01*
X155486678Y-92332750D01*
X155489750Y-92797000D01*
X155648500Y-92955750D01*
X156622750Y-92955750D01*
X156622750Y-92935750D01*
X156876750Y-92935750D01*
X156876750Y-92955750D01*
X157851000Y-92955750D01*
X158009750Y-92797000D01*
X158012822Y-92332750D01*
X158000562Y-92208268D01*
X157964252Y-92088570D01*
X157905287Y-91978256D01*
X157825935Y-91881565D01*
X157766454Y-91832750D01*
X157825935Y-91783935D01*
X157905287Y-91687244D01*
X157964252Y-91576930D01*
X157980540Y-91523235D01*
X158019750Y-91527097D01*
X158065917Y-91522550D01*
X158203983Y-91508952D01*
X158381136Y-91455213D01*
X158544401Y-91367946D01*
X158687504Y-91250504D01*
X158804946Y-91107401D01*
X158892213Y-90944136D01*
X158945952Y-90766983D01*
X158964097Y-90582750D01*
X158959550Y-90536583D01*
X158959550Y-87326906D01*
X158964096Y-87280749D01*
X158959550Y-87234592D01*
X158959550Y-87234583D01*
X158945952Y-87096517D01*
X158892213Y-86919364D01*
X158804946Y-86756099D01*
X158687504Y-86612996D01*
X158651646Y-86583568D01*
X156986627Y-84918550D01*
X171117874Y-84918550D01*
X185146950Y-98947627D01*
G36*
X155479750Y-104120950D02*
G01*
X155499750Y-104120950D01*
X155499750Y-104374950D01*
X155479750Y-104374950D01*
X155479750Y-105568105D01*
X155709640Y-105689426D01*
X155856849Y-105644775D01*
X156119670Y-105519591D01*
X156353019Y-105345538D01*
X156547928Y-105129305D01*
X156617549Y-105012427D01*
X156652044Y-105076964D01*
X156837616Y-105303084D01*
X157063736Y-105488656D01*
X157321716Y-105626549D01*
X157601639Y-105711463D01*
X157819800Y-105732950D01*
X157965700Y-105732950D01*
X158183861Y-105711463D01*
X158463784Y-105626549D01*
X158721764Y-105488656D01*
X158947884Y-105303084D01*
X159133456Y-105076964D01*
X159162750Y-105022159D01*
X159192044Y-105076964D01*
X159377616Y-105303084D01*
X159603736Y-105488656D01*
X159861716Y-105626549D01*
X160141639Y-105711463D01*
X160359800Y-105732950D01*
X160505700Y-105732950D01*
X160723861Y-105711463D01*
X161003784Y-105626549D01*
X161261764Y-105488656D01*
X161487884Y-105303084D01*
X161673456Y-105076964D01*
X161702750Y-105022159D01*
X161732044Y-105076964D01*
X161917616Y-105303084D01*
X162143736Y-105488656D01*
X162401716Y-105626549D01*
X162681639Y-105711463D01*
X162899800Y-105732950D01*
X163045700Y-105732950D01*
X163263861Y-105711463D01*
X163543784Y-105626549D01*
X163558877Y-105618482D01*
X163612537Y-105718872D01*
X163702999Y-105829100D01*
X163730621Y-105851769D01*
X165686931Y-107808080D01*
X165709599Y-107835701D01*
X165819827Y-107926163D01*
X165916093Y-107977618D01*
X165945585Y-107993382D01*
X166082040Y-108034775D01*
X166223950Y-108048752D01*
X166259506Y-108045250D01*
X172028383Y-108045250D01*
X182335564Y-118352432D01*
X182237616Y-118432816D01*
X182052044Y-118658936D01*
X182022750Y-118713741D01*
X181993456Y-118658936D01*
X181807884Y-118432816D01*
X181581764Y-118247244D01*
X181323784Y-118109351D01*
X181043861Y-118024437D01*
X180825700Y-118002950D01*
X180679800Y-118002950D01*
X180461639Y-118024437D01*
X180181716Y-118109351D01*
X179923736Y-118247244D01*
X179697616Y-118432816D01*
X179512044Y-118658936D01*
X179482750Y-118713741D01*
X179453456Y-118658936D01*
X179267884Y-118432816D01*
X179041764Y-118247244D01*
X178783784Y-118109351D01*
X178503861Y-118024437D01*
X178285700Y-118002950D01*
X178139800Y-118002950D01*
X177921639Y-118024437D01*
X177641716Y-118109351D01*
X177383736Y-118247244D01*
X177157616Y-118432816D01*
X176972044Y-118658936D01*
X176942750Y-118713741D01*
X176913456Y-118658936D01*
X176727884Y-118432816D01*
X176501764Y-118247244D01*
X176243784Y-118109351D01*
X175963861Y-118024437D01*
X175745700Y-118002950D01*
X175599800Y-118002950D01*
X175381639Y-118024437D01*
X175101716Y-118109351D01*
X174843736Y-118247244D01*
X174617616Y-118432816D01*
X174432044Y-118658936D01*
X174402750Y-118713741D01*
X174373456Y-118658936D01*
X174187884Y-118432816D01*
X173961764Y-118247244D01*
X173703784Y-118109351D01*
X173423861Y-118024437D01*
X173205700Y-118002950D01*
X173059800Y-118002950D01*
X172841639Y-118024437D01*
X172561716Y-118109351D01*
X172303736Y-118247244D01*
X172077616Y-118432816D01*
X171892044Y-118658936D01*
X171862750Y-118713741D01*
X171833456Y-118658936D01*
X171647884Y-118432816D01*
X171421764Y-118247244D01*
X171163784Y-118109351D01*
X170883861Y-118024437D01*
X170665700Y-118002950D01*
X170519800Y-118002950D01*
X170301639Y-118024437D01*
X170021716Y-118109351D01*
X169763736Y-118247244D01*
X169537616Y-118432816D01*
X169352044Y-118658936D01*
X169322750Y-118713741D01*
X169293456Y-118658936D01*
X169107884Y-118432816D01*
X168881764Y-118247244D01*
X168623784Y-118109351D01*
X168343861Y-118024437D01*
X168125700Y-118002950D01*
X167979800Y-118002950D01*
X167761639Y-118024437D01*
X167716486Y-118038134D01*
X158908678Y-109230328D01*
X158884019Y-109200281D01*
X158764122Y-109101884D01*
X158627333Y-109028768D01*
X158478907Y-108983744D01*
X158363223Y-108972350D01*
X158363213Y-108972350D01*
X158324550Y-108968542D01*
X158285887Y-108972350D01*
X142391699Y-108972350D01*
X142369456Y-108930736D01*
X142183884Y-108704616D01*
X142154063Y-108680143D01*
X142222930Y-108659252D01*
X142333244Y-108600287D01*
X142429935Y-108520935D01*
X142509287Y-108424244D01*
X142568252Y-108313930D01*
X142604562Y-108194232D01*
X142616822Y-108069750D01*
X142613750Y-107505500D01*
X142455000Y-107346750D01*
X141255750Y-107346750D01*
X141255750Y-107366750D01*
X141001750Y-107366750D01*
X141001750Y-107346750D01*
X140981750Y-107346750D01*
X140981750Y-107092750D01*
X141001750Y-107092750D01*
X141001750Y-107072750D01*
X141255750Y-107072750D01*
X141255750Y-107092750D01*
X142455000Y-107092750D01*
X142613750Y-106934000D01*
X142616822Y-106369750D01*
X142604562Y-106245268D01*
X142568252Y-106125570D01*
X142548465Y-106088551D01*
X149120493Y-106088551D01*
X149156049Y-106092053D01*
X149297958Y-106078076D01*
X149340194Y-106065264D01*
X149434414Y-106036683D01*
X149560172Y-105969464D01*
X149670400Y-105879002D01*
X149693073Y-105851375D01*
X149867583Y-105676865D01*
X149981639Y-105711463D01*
X150199800Y-105732950D01*
X150345700Y-105732950D01*
X150563861Y-105711463D01*
X150843784Y-105626549D01*
X151101764Y-105488656D01*
X151327884Y-105303084D01*
X151513456Y-105076964D01*
X151542750Y-105022159D01*
X151572044Y-105076964D01*
X151757616Y-105303084D01*
X151983736Y-105488656D01*
X152241716Y-105626549D01*
X152521639Y-105711463D01*
X152739800Y-105732950D01*
X152885700Y-105732950D01*
X153103861Y-105711463D01*
X153383784Y-105626549D01*
X153641764Y-105488656D01*
X153867884Y-105303084D01*
X154053456Y-105076964D01*
X154087951Y-105012427D01*
X154157572Y-105129305D01*
X154352481Y-105345538D01*
X154585830Y-105519591D01*
X154848651Y-105644775D01*
X154995860Y-105689426D01*
X155225750Y-105568105D01*
X155225750Y-104374950D01*
X155205750Y-104374950D01*
X155205750Y-104120950D01*
X155225750Y-104120950D01*
X155225750Y-104100950D01*
X155479750Y-104100950D01*
X155479750Y-104120950D01*
X155479750Y-104120950D01*
G37*
X155479750Y-104120950D02*
X155499750Y-104120950D01*
X155499750Y-104374950D01*
X155479750Y-104374950D01*
X155479750Y-105568105D01*
X155709640Y-105689426D01*
X155856849Y-105644775D01*
X156119670Y-105519591D01*
X156353019Y-105345538D01*
X156547928Y-105129305D01*
X156617549Y-105012427D01*
X156652044Y-105076964D01*
X156837616Y-105303084D01*
X157063736Y-105488656D01*
X157321716Y-105626549D01*
X157601639Y-105711463D01*
X157819800Y-105732950D01*
X157965700Y-105732950D01*
X158183861Y-105711463D01*
X158463784Y-105626549D01*
X158721764Y-105488656D01*
X158947884Y-105303084D01*
X159133456Y-105076964D01*
X159162750Y-105022159D01*
X159192044Y-105076964D01*
X159377616Y-105303084D01*
X159603736Y-105488656D01*
X159861716Y-105626549D01*
X160141639Y-105711463D01*
X160359800Y-105732950D01*
X160505700Y-105732950D01*
X160723861Y-105711463D01*
X161003784Y-105626549D01*
X161261764Y-105488656D01*
X161487884Y-105303084D01*
X161673456Y-105076964D01*
X161702750Y-105022159D01*
X161732044Y-105076964D01*
X161917616Y-105303084D01*
X162143736Y-105488656D01*
X162401716Y-105626549D01*
X162681639Y-105711463D01*
X162899800Y-105732950D01*
X163045700Y-105732950D01*
X163263861Y-105711463D01*
X163543784Y-105626549D01*
X163558877Y-105618482D01*
X163612537Y-105718872D01*
X163702999Y-105829100D01*
X163730621Y-105851769D01*
X165686931Y-107808080D01*
X165709599Y-107835701D01*
X165819827Y-107926163D01*
X165916093Y-107977618D01*
X165945585Y-107993382D01*
X166082040Y-108034775D01*
X166223950Y-108048752D01*
X166259506Y-108045250D01*
X172028383Y-108045250D01*
X182335564Y-118352432D01*
X182237616Y-118432816D01*
X182052044Y-118658936D01*
X182022750Y-118713741D01*
X181993456Y-118658936D01*
X181807884Y-118432816D01*
X181581764Y-118247244D01*
X181323784Y-118109351D01*
X181043861Y-118024437D01*
X180825700Y-118002950D01*
X180679800Y-118002950D01*
X180461639Y-118024437D01*
X180181716Y-118109351D01*
X179923736Y-118247244D01*
X179697616Y-118432816D01*
X179512044Y-118658936D01*
X179482750Y-118713741D01*
X179453456Y-118658936D01*
X179267884Y-118432816D01*
X179041764Y-118247244D01*
X178783784Y-118109351D01*
X178503861Y-118024437D01*
X178285700Y-118002950D01*
X178139800Y-118002950D01*
X177921639Y-118024437D01*
X177641716Y-118109351D01*
X177383736Y-118247244D01*
X177157616Y-118432816D01*
X176972044Y-118658936D01*
X176942750Y-118713741D01*
X176913456Y-118658936D01*
X176727884Y-118432816D01*
X176501764Y-118247244D01*
X176243784Y-118109351D01*
X175963861Y-118024437D01*
X175745700Y-118002950D01*
X175599800Y-118002950D01*
X175381639Y-118024437D01*
X175101716Y-118109351D01*
X174843736Y-118247244D01*
X174617616Y-118432816D01*
X174432044Y-118658936D01*
X174402750Y-118713741D01*
X174373456Y-118658936D01*
X174187884Y-118432816D01*
X173961764Y-118247244D01*
X173703784Y-118109351D01*
X173423861Y-118024437D01*
X173205700Y-118002950D01*
X173059800Y-118002950D01*
X172841639Y-118024437D01*
X172561716Y-118109351D01*
X172303736Y-118247244D01*
X172077616Y-118432816D01*
X171892044Y-118658936D01*
X171862750Y-118713741D01*
X171833456Y-118658936D01*
X171647884Y-118432816D01*
X171421764Y-118247244D01*
X171163784Y-118109351D01*
X170883861Y-118024437D01*
X170665700Y-118002950D01*
X170519800Y-118002950D01*
X170301639Y-118024437D01*
X170021716Y-118109351D01*
X169763736Y-118247244D01*
X169537616Y-118432816D01*
X169352044Y-118658936D01*
X169322750Y-118713741D01*
X169293456Y-118658936D01*
X169107884Y-118432816D01*
X168881764Y-118247244D01*
X168623784Y-118109351D01*
X168343861Y-118024437D01*
X168125700Y-118002950D01*
X167979800Y-118002950D01*
X167761639Y-118024437D01*
X167716486Y-118038134D01*
X158908678Y-109230328D01*
X158884019Y-109200281D01*
X158764122Y-109101884D01*
X158627333Y-109028768D01*
X158478907Y-108983744D01*
X158363223Y-108972350D01*
X158363213Y-108972350D01*
X158324550Y-108968542D01*
X158285887Y-108972350D01*
X142391699Y-108972350D01*
X142369456Y-108930736D01*
X142183884Y-108704616D01*
X142154063Y-108680143D01*
X142222930Y-108659252D01*
X142333244Y-108600287D01*
X142429935Y-108520935D01*
X142509287Y-108424244D01*
X142568252Y-108313930D01*
X142604562Y-108194232D01*
X142616822Y-108069750D01*
X142613750Y-107505500D01*
X142455000Y-107346750D01*
X141255750Y-107346750D01*
X141255750Y-107366750D01*
X141001750Y-107366750D01*
X141001750Y-107346750D01*
X140981750Y-107346750D01*
X140981750Y-107092750D01*
X141001750Y-107092750D01*
X141001750Y-107072750D01*
X141255750Y-107072750D01*
X141255750Y-107092750D01*
X142455000Y-107092750D01*
X142613750Y-106934000D01*
X142616822Y-106369750D01*
X142604562Y-106245268D01*
X142568252Y-106125570D01*
X142548465Y-106088551D01*
X149120493Y-106088551D01*
X149156049Y-106092053D01*
X149297958Y-106078076D01*
X149340194Y-106065264D01*
X149434414Y-106036683D01*
X149560172Y-105969464D01*
X149670400Y-105879002D01*
X149693073Y-105851375D01*
X149867583Y-105676865D01*
X149981639Y-105711463D01*
X150199800Y-105732950D01*
X150345700Y-105732950D01*
X150563861Y-105711463D01*
X150843784Y-105626549D01*
X151101764Y-105488656D01*
X151327884Y-105303084D01*
X151513456Y-105076964D01*
X151542750Y-105022159D01*
X151572044Y-105076964D01*
X151757616Y-105303084D01*
X151983736Y-105488656D01*
X152241716Y-105626549D01*
X152521639Y-105711463D01*
X152739800Y-105732950D01*
X152885700Y-105732950D01*
X153103861Y-105711463D01*
X153383784Y-105626549D01*
X153641764Y-105488656D01*
X153867884Y-105303084D01*
X154053456Y-105076964D01*
X154087951Y-105012427D01*
X154157572Y-105129305D01*
X154352481Y-105345538D01*
X154585830Y-105519591D01*
X154848651Y-105644775D01*
X154995860Y-105689426D01*
X155225750Y-105568105D01*
X155225750Y-104374950D01*
X155205750Y-104374950D01*
X155205750Y-104120950D01*
X155225750Y-104120950D01*
X155225750Y-104100950D01*
X155479750Y-104100950D01*
X155479750Y-104120950D01*
G36*
X121824750Y-104425750D02*
G01*
X121844750Y-104425750D01*
X121844750Y-104679750D01*
X121824750Y-104679750D01*
X121824750Y-104699750D01*
X121570750Y-104699750D01*
X121570750Y-104679750D01*
X121550750Y-104679750D01*
X121550750Y-104425750D01*
X121570750Y-104425750D01*
X121570750Y-104405750D01*
X121824750Y-104405750D01*
X121824750Y-104425750D01*
X121824750Y-104425750D01*
G37*
X121824750Y-104425750D02*
X121844750Y-104425750D01*
X121844750Y-104679750D01*
X121824750Y-104679750D01*
X121824750Y-104699750D01*
X121570750Y-104699750D01*
X121570750Y-104679750D01*
X121550750Y-104679750D01*
X121550750Y-104425750D01*
X121570750Y-104425750D01*
X121570750Y-104405750D01*
X121824750Y-104405750D01*
X121824750Y-104425750D01*
G36*
X139504878Y-88127350D02*
G01*
X139517138Y-88251832D01*
X139553448Y-88371530D01*
X139612413Y-88481844D01*
X139691765Y-88578535D01*
X139788456Y-88657887D01*
X139898770Y-88716852D01*
X140018468Y-88753162D01*
X140142950Y-88765422D01*
X140742950Y-88765422D01*
X140867432Y-88753162D01*
X140987130Y-88716852D01*
X141077950Y-88668307D01*
X141168770Y-88716852D01*
X141288468Y-88753162D01*
X141412950Y-88765422D01*
X142012950Y-88765422D01*
X142137432Y-88753162D01*
X142257130Y-88716852D01*
X142347950Y-88668307D01*
X142438770Y-88716852D01*
X142558468Y-88753162D01*
X142682950Y-88765422D01*
X143282950Y-88765422D01*
X143407432Y-88753162D01*
X143527130Y-88716852D01*
X143617950Y-88668307D01*
X143708770Y-88716852D01*
X143828468Y-88753162D01*
X143952950Y-88765422D01*
X144552950Y-88765422D01*
X144677432Y-88753162D01*
X144797130Y-88716852D01*
X144887950Y-88668307D01*
X144978770Y-88716852D01*
X145098468Y-88753162D01*
X145222950Y-88765422D01*
X145822950Y-88765422D01*
X145947432Y-88753162D01*
X146067130Y-88716852D01*
X146157950Y-88668307D01*
X146248770Y-88716852D01*
X146368468Y-88753162D01*
X146492950Y-88765422D01*
X147092950Y-88765422D01*
X147217432Y-88753162D01*
X147337130Y-88716852D01*
X147427950Y-88668307D01*
X147518770Y-88716852D01*
X147638468Y-88753162D01*
X147762950Y-88765422D01*
X148362950Y-88765422D01*
X148487432Y-88753162D01*
X148607130Y-88716852D01*
X148697950Y-88668307D01*
X148788770Y-88716852D01*
X148908468Y-88753162D01*
X149032950Y-88765422D01*
X149632950Y-88765422D01*
X149757432Y-88753162D01*
X149877130Y-88716852D01*
X149911330Y-88698571D01*
X149945085Y-88761722D01*
X150043482Y-88881619D01*
X150073523Y-88906273D01*
X153727150Y-92559901D01*
X153727151Y-93630750D01*
X152126453Y-93630750D01*
X152087788Y-93626942D01*
X152049123Y-93630750D01*
X152049115Y-93630750D01*
X151940589Y-93641439D01*
X151933431Y-93642144D01*
X151785005Y-93687168D01*
X151648216Y-93760284D01*
X151558358Y-93834028D01*
X151558355Y-93834031D01*
X151528319Y-93858681D01*
X151503669Y-93888717D01*
X150713326Y-94679062D01*
X150683280Y-94703720D01*
X150584883Y-94823618D01*
X150549787Y-94889278D01*
X150302950Y-94889278D01*
X150178468Y-94901538D01*
X150058770Y-94937848D01*
X149967950Y-94986393D01*
X149877130Y-94937848D01*
X149757432Y-94901538D01*
X149632950Y-94889278D01*
X149032950Y-94889278D01*
X148908468Y-94901538D01*
X148788770Y-94937848D01*
X148697950Y-94986393D01*
X148607130Y-94937848D01*
X148487432Y-94901538D01*
X148362950Y-94889278D01*
X147762950Y-94889278D01*
X147638468Y-94901538D01*
X147518770Y-94937848D01*
X147427950Y-94986393D01*
X147337130Y-94937848D01*
X147217432Y-94901538D01*
X147092950Y-94889278D01*
X146968430Y-94889278D01*
X145634055Y-93554905D01*
X145609397Y-93524859D01*
X145489500Y-93426462D01*
X145352711Y-93353346D01*
X145204285Y-93308322D01*
X145088601Y-93296928D01*
X145088591Y-93296928D01*
X145049928Y-93293120D01*
X145011265Y-93296928D01*
X141374488Y-93296928D01*
X141312849Y-93255742D01*
X141142689Y-93185260D01*
X140962049Y-93149328D01*
X140777871Y-93149328D01*
X140597231Y-93185260D01*
X140427071Y-93255742D01*
X140273932Y-93358066D01*
X140143698Y-93488300D01*
X140041374Y-93641439D01*
X139970892Y-93811599D01*
X139934960Y-93992239D01*
X139934960Y-94176417D01*
X139970892Y-94357057D01*
X140041374Y-94527217D01*
X140143698Y-94680356D01*
X140273932Y-94810590D01*
X140391697Y-94889278D01*
X140142950Y-94889278D01*
X140018468Y-94901538D01*
X139898770Y-94937848D01*
X139788456Y-94996813D01*
X139691765Y-95076165D01*
X139612413Y-95172856D01*
X139553448Y-95283170D01*
X139517138Y-95402868D01*
X139504878Y-95527350D01*
X139504878Y-97527350D01*
X139517138Y-97651832D01*
X139553448Y-97771530D01*
X139612413Y-97881844D01*
X139691765Y-97978535D01*
X139788456Y-98057887D01*
X139898770Y-98116852D01*
X140018468Y-98153162D01*
X140142950Y-98165422D01*
X140267472Y-98165422D01*
X141493833Y-99391784D01*
X136840649Y-99391784D01*
X136856750Y-99310839D01*
X136856750Y-99126661D01*
X136820818Y-98946021D01*
X136750336Y-98775861D01*
X136709150Y-98714222D01*
X136709150Y-97945278D01*
X136750336Y-97883639D01*
X136820818Y-97713479D01*
X136856750Y-97532839D01*
X136856750Y-97348661D01*
X136820818Y-97168021D01*
X136750336Y-96997861D01*
X136648012Y-96844722D01*
X136517778Y-96714488D01*
X136364639Y-96612164D01*
X136194479Y-96541682D01*
X136013839Y-96505750D01*
X135829661Y-96505750D01*
X135649021Y-96541682D01*
X135637549Y-96546434D01*
X135637549Y-90164027D01*
X139504878Y-86296699D01*
X139504878Y-88127350D01*
X139504878Y-88127350D01*
G37*
X139504878Y-88127350D02*
X139517138Y-88251832D01*
X139553448Y-88371530D01*
X139612413Y-88481844D01*
X139691765Y-88578535D01*
X139788456Y-88657887D01*
X139898770Y-88716852D01*
X140018468Y-88753162D01*
X140142950Y-88765422D01*
X140742950Y-88765422D01*
X140867432Y-88753162D01*
X140987130Y-88716852D01*
X141077950Y-88668307D01*
X141168770Y-88716852D01*
X141288468Y-88753162D01*
X141412950Y-88765422D01*
X142012950Y-88765422D01*
X142137432Y-88753162D01*
X142257130Y-88716852D01*
X142347950Y-88668307D01*
X142438770Y-88716852D01*
X142558468Y-88753162D01*
X142682950Y-88765422D01*
X143282950Y-88765422D01*
X143407432Y-88753162D01*
X143527130Y-88716852D01*
X143617950Y-88668307D01*
X143708770Y-88716852D01*
X143828468Y-88753162D01*
X143952950Y-88765422D01*
X144552950Y-88765422D01*
X144677432Y-88753162D01*
X144797130Y-88716852D01*
X144887950Y-88668307D01*
X144978770Y-88716852D01*
X145098468Y-88753162D01*
X145222950Y-88765422D01*
X145822950Y-88765422D01*
X145947432Y-88753162D01*
X146067130Y-88716852D01*
X146157950Y-88668307D01*
X146248770Y-88716852D01*
X146368468Y-88753162D01*
X146492950Y-88765422D01*
X147092950Y-88765422D01*
X147217432Y-88753162D01*
X147337130Y-88716852D01*
X147427950Y-88668307D01*
X147518770Y-88716852D01*
X147638468Y-88753162D01*
X147762950Y-88765422D01*
X148362950Y-88765422D01*
X148487432Y-88753162D01*
X148607130Y-88716852D01*
X148697950Y-88668307D01*
X148788770Y-88716852D01*
X148908468Y-88753162D01*
X149032950Y-88765422D01*
X149632950Y-88765422D01*
X149757432Y-88753162D01*
X149877130Y-88716852D01*
X149911330Y-88698571D01*
X149945085Y-88761722D01*
X150043482Y-88881619D01*
X150073523Y-88906273D01*
X153727150Y-92559901D01*
X153727151Y-93630750D01*
X152126453Y-93630750D01*
X152087788Y-93626942D01*
X152049123Y-93630750D01*
X152049115Y-93630750D01*
X151940589Y-93641439D01*
X151933431Y-93642144D01*
X151785005Y-93687168D01*
X151648216Y-93760284D01*
X151558358Y-93834028D01*
X151558355Y-93834031D01*
X151528319Y-93858681D01*
X151503669Y-93888717D01*
X150713326Y-94679062D01*
X150683280Y-94703720D01*
X150584883Y-94823618D01*
X150549787Y-94889278D01*
X150302950Y-94889278D01*
X150178468Y-94901538D01*
X150058770Y-94937848D01*
X149967950Y-94986393D01*
X149877130Y-94937848D01*
X149757432Y-94901538D01*
X149632950Y-94889278D01*
X149032950Y-94889278D01*
X148908468Y-94901538D01*
X148788770Y-94937848D01*
X148697950Y-94986393D01*
X148607130Y-94937848D01*
X148487432Y-94901538D01*
X148362950Y-94889278D01*
X147762950Y-94889278D01*
X147638468Y-94901538D01*
X147518770Y-94937848D01*
X147427950Y-94986393D01*
X147337130Y-94937848D01*
X147217432Y-94901538D01*
X147092950Y-94889278D01*
X146968430Y-94889278D01*
X145634055Y-93554905D01*
X145609397Y-93524859D01*
X145489500Y-93426462D01*
X145352711Y-93353346D01*
X145204285Y-93308322D01*
X145088601Y-93296928D01*
X145088591Y-93296928D01*
X145049928Y-93293120D01*
X145011265Y-93296928D01*
X141374488Y-93296928D01*
X141312849Y-93255742D01*
X141142689Y-93185260D01*
X140962049Y-93149328D01*
X140777871Y-93149328D01*
X140597231Y-93185260D01*
X140427071Y-93255742D01*
X140273932Y-93358066D01*
X140143698Y-93488300D01*
X140041374Y-93641439D01*
X139970892Y-93811599D01*
X139934960Y-93992239D01*
X139934960Y-94176417D01*
X139970892Y-94357057D01*
X140041374Y-94527217D01*
X140143698Y-94680356D01*
X140273932Y-94810590D01*
X140391697Y-94889278D01*
X140142950Y-94889278D01*
X140018468Y-94901538D01*
X139898770Y-94937848D01*
X139788456Y-94996813D01*
X139691765Y-95076165D01*
X139612413Y-95172856D01*
X139553448Y-95283170D01*
X139517138Y-95402868D01*
X139504878Y-95527350D01*
X139504878Y-97527350D01*
X139517138Y-97651832D01*
X139553448Y-97771530D01*
X139612413Y-97881844D01*
X139691765Y-97978535D01*
X139788456Y-98057887D01*
X139898770Y-98116852D01*
X140018468Y-98153162D01*
X140142950Y-98165422D01*
X140267472Y-98165422D01*
X141493833Y-99391784D01*
X136840649Y-99391784D01*
X136856750Y-99310839D01*
X136856750Y-99126661D01*
X136820818Y-98946021D01*
X136750336Y-98775861D01*
X136709150Y-98714222D01*
X136709150Y-97945278D01*
X136750336Y-97883639D01*
X136820818Y-97713479D01*
X136856750Y-97532839D01*
X136856750Y-97348661D01*
X136820818Y-97168021D01*
X136750336Y-96997861D01*
X136648012Y-96844722D01*
X136517778Y-96714488D01*
X136364639Y-96612164D01*
X136194479Y-96541682D01*
X136013839Y-96505750D01*
X135829661Y-96505750D01*
X135649021Y-96541682D01*
X135637549Y-96546434D01*
X135637549Y-90164027D01*
X139504878Y-86296699D01*
X139504878Y-88127350D01*
M02*
