G04 #@! TF.GenerationSoftware,KiCad,Pcbnew,(5.1.4)-1*
G04 #@! TF.CreationDate,2020-11-25T12:16:11-08:00*
G04 #@! TF.ProjectId,ufc_v4_comm,7566635f-7634-45f6-936f-6d6d2e6b6963,rev?*
G04 #@! TF.SameCoordinates,Original*
G04 #@! TF.FileFunction,Soldermask,Bot*
G04 #@! TF.FilePolarity,Negative*
%FSLAX46Y46*%
G04 Gerber Fmt 4.6, Leading zero omitted, Abs format (unit mm)*
G04 Created by KiCad (PCBNEW (5.1.4)-1) date 2020-11-25 12:16:11*
%MOMM*%
%LPD*%
G04 APERTURE LIST*
%ADD10C,0.100000*%
G04 APERTURE END LIST*
D10*
G36*
X165421000Y-57666000D02*
G01*
X165395025Y-57666000D01*
X165370639Y-57668402D01*
X165347190Y-57675515D01*
X165325579Y-57687066D01*
X165306637Y-57702611D01*
X165291092Y-57721553D01*
X165279541Y-57743164D01*
X165272428Y-57766613D01*
X165270026Y-57790999D01*
X165272428Y-57815385D01*
X165279541Y-57838834D01*
X165298396Y-57870292D01*
X165342694Y-57924269D01*
X165386894Y-58006961D01*
X165414113Y-58096688D01*
X165423303Y-58190000D01*
X165414113Y-58283312D01*
X165386894Y-58373039D01*
X165342694Y-58455731D01*
X165283211Y-58528211D01*
X165210731Y-58587694D01*
X165210726Y-58587697D01*
X165203808Y-58593374D01*
X165186481Y-58610701D01*
X165172867Y-58631075D01*
X165163490Y-58653714D01*
X165158709Y-58677747D01*
X165158709Y-58702251D01*
X165163489Y-58726285D01*
X165172866Y-58748924D01*
X165186480Y-58769298D01*
X165203808Y-58786626D01*
X165210726Y-58792303D01*
X165210731Y-58792306D01*
X165283211Y-58851789D01*
X165342694Y-58924269D01*
X165386894Y-59006961D01*
X165414113Y-59096688D01*
X165423303Y-59190000D01*
X165414113Y-59283312D01*
X165386894Y-59373039D01*
X165342694Y-59455731D01*
X165283211Y-59528211D01*
X165210731Y-59587694D01*
X165210726Y-59587697D01*
X165203808Y-59593374D01*
X165186481Y-59610701D01*
X165172867Y-59631075D01*
X165163490Y-59653714D01*
X165158709Y-59677747D01*
X165158709Y-59702251D01*
X165163489Y-59726285D01*
X165172866Y-59748924D01*
X165186480Y-59769298D01*
X165203808Y-59786626D01*
X165210726Y-59792303D01*
X165210731Y-59792306D01*
X165283211Y-59851789D01*
X165342694Y-59924269D01*
X165386894Y-60006961D01*
X165414113Y-60096688D01*
X165423303Y-60190000D01*
X165414113Y-60283312D01*
X165386894Y-60373039D01*
X165342694Y-60455731D01*
X165283211Y-60528211D01*
X165210731Y-60587694D01*
X165210726Y-60587697D01*
X165203808Y-60593374D01*
X165186481Y-60610701D01*
X165172867Y-60631075D01*
X165163490Y-60653714D01*
X165158709Y-60677747D01*
X165158709Y-60702251D01*
X165163489Y-60726285D01*
X165172866Y-60748924D01*
X165186480Y-60769298D01*
X165203808Y-60786626D01*
X165210726Y-60792303D01*
X165210731Y-60792306D01*
X165283211Y-60851789D01*
X165342694Y-60924269D01*
X165386894Y-61006961D01*
X165414113Y-61096688D01*
X165423303Y-61190000D01*
X165414113Y-61283312D01*
X165386894Y-61373039D01*
X165342694Y-61455731D01*
X165283211Y-61528211D01*
X165210731Y-61587694D01*
X165128039Y-61631894D01*
X165038312Y-61659113D01*
X164968384Y-61666000D01*
X164921616Y-61666000D01*
X164851688Y-61659113D01*
X164761961Y-61631894D01*
X164679269Y-61587694D01*
X164606789Y-61528211D01*
X164547306Y-61455731D01*
X164503106Y-61373039D01*
X164475887Y-61283312D01*
X164466697Y-61190000D01*
X164475887Y-61096688D01*
X164503106Y-61006961D01*
X164547306Y-60924269D01*
X164606789Y-60851789D01*
X164679269Y-60792306D01*
X164679274Y-60792303D01*
X164686192Y-60786626D01*
X164703519Y-60769299D01*
X164717133Y-60748925D01*
X164726510Y-60726286D01*
X164731291Y-60702253D01*
X164731291Y-60677749D01*
X164726511Y-60653715D01*
X164717134Y-60631076D01*
X164703520Y-60610702D01*
X164686192Y-60593374D01*
X164679274Y-60587697D01*
X164679269Y-60587694D01*
X164606789Y-60528211D01*
X164547306Y-60455731D01*
X164503106Y-60373039D01*
X164475887Y-60283312D01*
X164466697Y-60190000D01*
X164475887Y-60096688D01*
X164503106Y-60006961D01*
X164547306Y-59924269D01*
X164606789Y-59851789D01*
X164679269Y-59792306D01*
X164679274Y-59792303D01*
X164686192Y-59786626D01*
X164703519Y-59769299D01*
X164717133Y-59748925D01*
X164726510Y-59726286D01*
X164731291Y-59702253D01*
X164731291Y-59677749D01*
X164726511Y-59653715D01*
X164717134Y-59631076D01*
X164703520Y-59610702D01*
X164686192Y-59593374D01*
X164679274Y-59587697D01*
X164679269Y-59587694D01*
X164606789Y-59528211D01*
X164547306Y-59455731D01*
X164503106Y-59373039D01*
X164475887Y-59283312D01*
X164466697Y-59190000D01*
X164475887Y-59096688D01*
X164503106Y-59006961D01*
X164547306Y-58924269D01*
X164606789Y-58851789D01*
X164679269Y-58792306D01*
X164679274Y-58792303D01*
X164686192Y-58786626D01*
X164703519Y-58769299D01*
X164717133Y-58748925D01*
X164726510Y-58726286D01*
X164731291Y-58702253D01*
X164731291Y-58677749D01*
X164726511Y-58653715D01*
X164717134Y-58631076D01*
X164703520Y-58610702D01*
X164686192Y-58593374D01*
X164679274Y-58587697D01*
X164679269Y-58587694D01*
X164606789Y-58528211D01*
X164547306Y-58455731D01*
X164503106Y-58373039D01*
X164475887Y-58283312D01*
X164466697Y-58190000D01*
X164475887Y-58096688D01*
X164503106Y-58006961D01*
X164547306Y-57924269D01*
X164591606Y-57870289D01*
X164605214Y-57849923D01*
X164614592Y-57827284D01*
X164619372Y-57803251D01*
X164619372Y-57778747D01*
X164614592Y-57754714D01*
X164605214Y-57732075D01*
X164591600Y-57711700D01*
X164574273Y-57694373D01*
X164553899Y-57680760D01*
X164531260Y-57671382D01*
X164494975Y-57666000D01*
X164469000Y-57666000D01*
X164469000Y-56714000D01*
X165421000Y-56714000D01*
X165421000Y-57666000D01*
X165421000Y-57666000D01*
G37*
G36*
X153421000Y-57666000D02*
G01*
X153395025Y-57666000D01*
X153370639Y-57668402D01*
X153347190Y-57675515D01*
X153325579Y-57687066D01*
X153306637Y-57702611D01*
X153291092Y-57721553D01*
X153279541Y-57743164D01*
X153272428Y-57766613D01*
X153270026Y-57790999D01*
X153272428Y-57815385D01*
X153279541Y-57838834D01*
X153298396Y-57870292D01*
X153342694Y-57924269D01*
X153386894Y-58006961D01*
X153414113Y-58096688D01*
X153423303Y-58190000D01*
X153414113Y-58283312D01*
X153386894Y-58373039D01*
X153342694Y-58455731D01*
X153283211Y-58528211D01*
X153210731Y-58587694D01*
X153210726Y-58587697D01*
X153203808Y-58593374D01*
X153186481Y-58610701D01*
X153172867Y-58631075D01*
X153163490Y-58653714D01*
X153158709Y-58677747D01*
X153158709Y-58702251D01*
X153163489Y-58726285D01*
X153172866Y-58748924D01*
X153186480Y-58769298D01*
X153203808Y-58786626D01*
X153210726Y-58792303D01*
X153210731Y-58792306D01*
X153283211Y-58851789D01*
X153342694Y-58924269D01*
X153386894Y-59006961D01*
X153414113Y-59096688D01*
X153423303Y-59190000D01*
X153414113Y-59283312D01*
X153386894Y-59373039D01*
X153342694Y-59455731D01*
X153283211Y-59528211D01*
X153210731Y-59587694D01*
X153210726Y-59587697D01*
X153203808Y-59593374D01*
X153186481Y-59610701D01*
X153172867Y-59631075D01*
X153163490Y-59653714D01*
X153158709Y-59677747D01*
X153158709Y-59702251D01*
X153163489Y-59726285D01*
X153172866Y-59748924D01*
X153186480Y-59769298D01*
X153203808Y-59786626D01*
X153210726Y-59792303D01*
X153210731Y-59792306D01*
X153283211Y-59851789D01*
X153342694Y-59924269D01*
X153386894Y-60006961D01*
X153414113Y-60096688D01*
X153423303Y-60190000D01*
X153414113Y-60283312D01*
X153386894Y-60373039D01*
X153342694Y-60455731D01*
X153283211Y-60528211D01*
X153210731Y-60587694D01*
X153210726Y-60587697D01*
X153203808Y-60593374D01*
X153186481Y-60610701D01*
X153172867Y-60631075D01*
X153163490Y-60653714D01*
X153158709Y-60677747D01*
X153158709Y-60702251D01*
X153163489Y-60726285D01*
X153172866Y-60748924D01*
X153186480Y-60769298D01*
X153203808Y-60786626D01*
X153210726Y-60792303D01*
X153210731Y-60792306D01*
X153283211Y-60851789D01*
X153342694Y-60924269D01*
X153386894Y-61006961D01*
X153414113Y-61096688D01*
X153423303Y-61190000D01*
X153414113Y-61283312D01*
X153386894Y-61373039D01*
X153342694Y-61455731D01*
X153283211Y-61528211D01*
X153210731Y-61587694D01*
X153128039Y-61631894D01*
X153038312Y-61659113D01*
X152968384Y-61666000D01*
X152921616Y-61666000D01*
X152851688Y-61659113D01*
X152761961Y-61631894D01*
X152679269Y-61587694D01*
X152606789Y-61528211D01*
X152547306Y-61455731D01*
X152503106Y-61373039D01*
X152475887Y-61283312D01*
X152466697Y-61190000D01*
X152475887Y-61096688D01*
X152503106Y-61006961D01*
X152547306Y-60924269D01*
X152606789Y-60851789D01*
X152679269Y-60792306D01*
X152679274Y-60792303D01*
X152686192Y-60786626D01*
X152703519Y-60769299D01*
X152717133Y-60748925D01*
X152726510Y-60726286D01*
X152731291Y-60702253D01*
X152731291Y-60677749D01*
X152726511Y-60653715D01*
X152717134Y-60631076D01*
X152703520Y-60610702D01*
X152686192Y-60593374D01*
X152679274Y-60587697D01*
X152679269Y-60587694D01*
X152606789Y-60528211D01*
X152547306Y-60455731D01*
X152503106Y-60373039D01*
X152475887Y-60283312D01*
X152466697Y-60190000D01*
X152475887Y-60096688D01*
X152503106Y-60006961D01*
X152547306Y-59924269D01*
X152606789Y-59851789D01*
X152679269Y-59792306D01*
X152679274Y-59792303D01*
X152686192Y-59786626D01*
X152703519Y-59769299D01*
X152717133Y-59748925D01*
X152726510Y-59726286D01*
X152731291Y-59702253D01*
X152731291Y-59677749D01*
X152726511Y-59653715D01*
X152717134Y-59631076D01*
X152703520Y-59610702D01*
X152686192Y-59593374D01*
X152679274Y-59587697D01*
X152679269Y-59587694D01*
X152606789Y-59528211D01*
X152547306Y-59455731D01*
X152503106Y-59373039D01*
X152475887Y-59283312D01*
X152466697Y-59190000D01*
X152475887Y-59096688D01*
X152503106Y-59006961D01*
X152547306Y-58924269D01*
X152606789Y-58851789D01*
X152679269Y-58792306D01*
X152679274Y-58792303D01*
X152686192Y-58786626D01*
X152703519Y-58769299D01*
X152717133Y-58748925D01*
X152726510Y-58726286D01*
X152731291Y-58702253D01*
X152731291Y-58677749D01*
X152726511Y-58653715D01*
X152717134Y-58631076D01*
X152703520Y-58610702D01*
X152686192Y-58593374D01*
X152679274Y-58587697D01*
X152679269Y-58587694D01*
X152606789Y-58528211D01*
X152547306Y-58455731D01*
X152503106Y-58373039D01*
X152475887Y-58283312D01*
X152466697Y-58190000D01*
X152475887Y-58096688D01*
X152503106Y-58006961D01*
X152547306Y-57924269D01*
X152591606Y-57870289D01*
X152605214Y-57849923D01*
X152614592Y-57827284D01*
X152619372Y-57803251D01*
X152619372Y-57778747D01*
X152614592Y-57754714D01*
X152605214Y-57732075D01*
X152591600Y-57711700D01*
X152574273Y-57694373D01*
X152553899Y-57680760D01*
X152531260Y-57671382D01*
X152494975Y-57666000D01*
X152469000Y-57666000D01*
X152469000Y-56714000D01*
X153421000Y-56714000D01*
X153421000Y-57666000D01*
X153421000Y-57666000D01*
G37*
M02*
