G04 #@! TF.GenerationSoftware,KiCad,Pcbnew,(5.1.6)-1*
G04 #@! TF.CreationDate,2021-02-10T23:04:57+11:00*
G04 #@! TF.ProjectId,ANT SEL Panel PCB V2,414e5420-5345-44c2-9050-616e656c2050,rev?*
G04 #@! TF.SameCoordinates,Original*
G04 #@! TF.FileFunction,Soldermask,Bot*
G04 #@! TF.FilePolarity,Negative*
%FSLAX46Y46*%
G04 Gerber Fmt 4.6, Leading zero omitted, Abs format (unit mm)*
G04 Created by KiCad (PCBNEW (5.1.6)-1) date 2021-02-10 23:04:57*
%MOMM*%
%LPD*%
G01*
G04 APERTURE LIST*
%ADD10O,3.300000X2.700000*%
%ADD11C,4.300000*%
%ADD12C,12.700000*%
%ADD13C,3.572000*%
%ADD14C,1.800000*%
%ADD15R,1.800000X1.800000*%
G04 APERTURE END LIST*
D10*
G04 #@! TO.C,J2*
X87930620Y-56889760D03*
X87930620Y-52689760D03*
X82430620Y-56889760D03*
G36*
G01*
X81030621Y-51339760D02*
X83830619Y-51339760D01*
G75*
G02*
X84080620Y-51589761I0J-250001D01*
G01*
X84080620Y-53789759D01*
G75*
G02*
X83830619Y-54039760I-250001J0D01*
G01*
X81030621Y-54039760D01*
G75*
G02*
X80780620Y-53789759I0J250001D01*
G01*
X80780620Y-51589761D01*
G75*
G02*
X81030621Y-51339760I250001J0D01*
G01*
G37*
G04 #@! TD*
G04 #@! TO.C,J1*
X87905220Y-46137940D03*
X87905220Y-41937940D03*
X82405220Y-46137940D03*
G36*
G01*
X81005221Y-40587940D02*
X83805219Y-40587940D01*
G75*
G02*
X84055220Y-40837941I0J-250001D01*
G01*
X84055220Y-43037939D01*
G75*
G02*
X83805219Y-43287940I-250001J0D01*
G01*
X81005221Y-43287940D01*
G75*
G02*
X80755220Y-43037939I0J250001D01*
G01*
X80755220Y-40837941D01*
G75*
G02*
X81005221Y-40587940I250001J0D01*
G01*
G37*
G04 #@! TD*
D11*
G04 #@! TO.C,1*
X82060570Y-64255673D03*
G04 #@! TD*
G04 #@! TO.C,2*
X156673070Y-64255673D03*
G04 #@! TD*
D12*
G04 #@! TO.C,4*
X102698070Y-64763673D03*
X102698070Y-64763673D03*
D13*
X102698070Y-55238673D03*
G04 #@! TD*
G04 #@! TO.C,3*
X134702070Y-55238673D03*
D12*
X134702070Y-64763673D03*
X134702070Y-64763673D03*
G04 #@! TD*
D14*
G04 #@! TO.C,D14*
X98150000Y-41750000D03*
D15*
X95610000Y-41750000D03*
G04 #@! TD*
G04 #@! TO.C,C1*
G36*
G01*
X105850000Y-45550000D02*
X103850000Y-45550000D01*
G75*
G02*
X103600000Y-45300000I0J250000D01*
G01*
X103600000Y-42300000D01*
G75*
G02*
X103850000Y-42050000I250000J0D01*
G01*
X105850000Y-42050000D01*
G75*
G02*
X106100000Y-42300000I0J-250000D01*
G01*
X106100000Y-45300000D01*
G75*
G02*
X105850000Y-45550000I-250000J0D01*
G01*
G37*
G36*
G01*
X105850000Y-52050000D02*
X103850000Y-52050000D01*
G75*
G02*
X103600000Y-51800000I0J250000D01*
G01*
X103600000Y-48800000D01*
G75*
G02*
X103850000Y-48550000I250000J0D01*
G01*
X105850000Y-48550000D01*
G75*
G02*
X106100000Y-48800000I0J-250000D01*
G01*
X106100000Y-51800000D01*
G75*
G02*
X105850000Y-52050000I-250000J0D01*
G01*
G37*
G04 #@! TD*
M02*
