  0
SECTION
  2
HEADER
  9
$ACADVER
  1
AC1009
  9
$DWGCODEPAGE
  3
ansi_1252
  9
$INSBASE
 10
0.0
 20
0.0
 30
0.0
  9
$EXTMIN
 10
-2.339047619
 20
0.0
 30
0.0
  9
$EXTMAX
 10
0.0
 20
6.5
 30
0.0
  9
$LIMMIN
 10
0.0
 20
0.0
  9
$LIMMAX
 10
12.0
 20
9.0
  9
$ORTHOMODE
 70
     0
  9
$REGENMODE
 70
     1
  9
$FILLMODE
 70
     1
  9
$QTEXTMODE
 70
     0
  9
$MIRRTEXT
 70
     1
  9
$DRAGMODE
 70
     2
  9
$LTSCALE
 40
1.0
  9
$OSMODE
 70
    37
  9
$ATTMODE
 70
     1
  9
$TEXTSIZE
 40
0.1377952756
  9
$TRACEWID
 40
0.05
  9
$TEXTSTYLE
  7
STANDARD
  9
$CLAYER
  8
0
  9
$CELTYPE
  6
BYLAYER
  9
$CECOLOR
 62
   256
  9
$DIMSCALE
 40
1.0
  9
$DIMASZ
 40
0.13
  9
$DIMEXO
 40
0.0
  9
$DIMDLI
 40
0.38
  9
$DIMRND
 40
0.0
  9
$DIMDLE
 40
0.0
  9
$DIMEXE
 40
0.125
  9
$DIMTP
 40
0.0
  9
$DIMTM
 40
0.0
  9
$DIMTXT
 40
0.1377952756
  9
$DIMCEN
 40
0.09
  9
$DIMTSZ
 40
0.0
  9
$DIMTOL
 70
     0
  9
$DIMLIM
 70
     0
  9
$DIMTIH
 70
     1
  9
$DIMTOH
 70
     1
  9
$DIMSE1
 70
     0
  9
$DIMSE2
 70
     0
  9
$DIMTAD
 70
     1
  9
$DIMZIN
 70
     0
  9
$DIMBLK
  1

  9
$DIMASO
 70
     1
  9
$DIMSHO
 70
     1
  9
$DIMPOST
  1

  9
$DIMAPOST
  1

  9
$DIMALT
 70
     0
  9
$DIMALTD
 70
     2
  9
$DIMALTF
 40
25.4
  9
$DIMLFAC
 40
1.0
  9
$DIMTOFL
 70
     0
  9
$DIMTVP
 40
0.0
  9
$DIMTIX
 70
     0
  9
$DIMSOXD
 70
     0
  9
$DIMSAH
 70
     0
  9
$DIMBLK1
  1

  9
$DIMBLK2
  1

  9
$DIMSTYLE
  2
STANDARD
  9
$DIMCLRD
 70
     0
  9
$DIMCLRE
 70
     0
  9
$DIMCLRT
 70
     0
  9
$DIMTFAC
 40
1.0
  9
$DIMGAP
 40
0.06
  9
$LUNITS
 70
     2
  9
$LUPREC
 70
     8
  9
$SKETCHINC
 40
0.1
  9
$FILLETRAD
 40
0.5
  9
$AUNITS
 70
     0
  9
$AUPREC
 70
     2
  9
$MENU
  1
.
  9
$ELEVATION
 40
0.0
  9
$PELEVATION
 40
0.0
  9
$THICKNESS
 40
0.0
  9
$LIMCHECK
 70
     0
  9
$CHAMFERA
 40
0.0
  9
$CHAMFERB
 40
0.0
  9
$SKPOLY
 70
     0
  9
$TDCREATE
 40
2459454.793115463
  9
$TDUPDATE
 40
2459454.793157002
  9
$TDINDWG
 40
0.0000000116
  9
$TDUSRTIMER
 40
0.0000000116
  9
$USRTIMER
 70
     1
  9
$ANGBASE
 50
0.0
  9
$ANGDIR
 70
     0
  9
$PDMODE
 70
     0
  9
$PDSIZE
 40
-1.0
  9
$PLINEWID
 40
0.0
  9
$COORDS
 70
     1
  9
$SPLFRAME
 70
     0
  9
$SPLINETYPE
 70
     6
  9
$SPLINESEGS
 70
     8
  9
$ATTDIA
 70
     0
  9
$ATTREQ
 70
     1
  9
$HANDLING
 70
     1
  9
$HANDSEED
  5
159
  9
$SURFTAB1
 70
     6
  9
$SURFTAB2
 70
     6
  9
$SURFTYPE
 70
     6
  9
$SURFU
 70
     6
  9
$SURFV
 70
     6
  9
$UCSNAME
  2

  9
$UCSORG
 10
0.0
 20
0.0
 30
0.0
  9
$UCSXDIR
 10
1.0
 20
0.0
 30
0.0
  9
$UCSYDIR
 10
0.0
 20
1.0
 30
0.0
  9
$PUCSNAME
  2

  9
$PUCSORG
 10
0.0
 20
0.0
 30
0.0
  9
$PUCSXDIR
 10
1.0
 20
0.0
 30
0.0
  9
$PUCSYDIR
 10
0.0
 20
1.0
 30
0.0
  9
$USERI1
 70
     0
  9
$USERI2
 70
     0
  9
$USERI3
 70
     0
  9
$USERI4
 70
     0
  9
$USERI5
 70
     0
  9
$USERR1
 40
0.0
  9
$USERR2
 40
0.0
  9
$USERR3
 40
0.0
  9
$USERR4
 40
0.0
  9
$USERR5
 40
0.0
  9
$WORLDVIEW
 70
     1
  9
$SHADEDGE
 70
     3
  9
$SHADEDIF
 70
    70
  9
$TILEMODE
 70
     1
  9
$MAXACTVP
 70
    64
  9
$PLIMCHECK
 70
     0
  9
$PEXTMIN
 10
1.0000000000E+20
 20
1.0000000000E+20
 30
1.0000000000E+20
  9
$PEXTMAX
 10
-1.0000000000E+20
 20
-1.0000000000E+20
 30
-1.0000000000E+20
  9
$PLIMMIN
 10
0.0
 20
0.0
  9
$PLIMMAX
 10
12.0
 20
9.0
  9
$UNITMODE
 70
     0
  9
$VISRETAIN
 70
     1
  9
$PLINEGEN
 70
     0
  9
$PSLTSCALE
 70
     1
  0
ENDSEC
  0
SECTION
  2
TABLES
  0
TABLE
  2
VPORT
 70
     1
  0
VPORT
  2
*ACTIVE
 70
     0
 10
0.0
 20
0.0
 11
1.0
 21
1.0
 12
-1.1695238095
 22
3.25
 13
0.0
 23
0.0
 14
0.5
 24
0.5
 15
0.5
 25
0.5
 16
0.0
 26
0.0
 36
1.0
 17
0.0
 27
0.0
 37
0.0
 40
6.63
 41
0.3598534799
 42
50.0
 43
0.0
 44
0.0
 50
0.0
 51
0.0
 71
     0
 72
   100
 73
     1
 74
     3
 75
     0
 76
     0
 77
     0
 78
     0
  0
ENDTAB
  0
TABLE
  2
LTYPE
 70
     6
  0
LTYPE
  2
CONTINUOUS
 70
     0
  3
Solid line
 72
    65
 73
     0
 40
0.0
  0
LTYPE
  2
HIDDEN
 70
     0
  3
Hidden __ __ __ __ __ __ __ __ __ __ __ __ __ __
 72
    65
 73
     2
 40
0.075
 49
0.05
 49
-0.025
  0
LTYPE
  2
PHANTOM
 70
     0
  3
Phantom ______  __  __  ______  __  __  ______
 72
    65
 73
     6
 40
0.5
 49
0.25
 49
-0.05
 49
0.05
 49
-0.05
 49
0.05
 49
-0.05
  0
LTYPE
  2
CENTER
 70
     0
  3
Center ____ _ ____ _ ____ _ ____ _ ____ _ ____
 72
    65
 73
     4
 40
0.4
 49
0.25
 49
-0.05
 49
0.05
 49
-0.05
  0
LTYPE
  2
CENTERX2
 70
     0
  3
Center (2x) ________  __  ________  __  _____
 72
    65
 73
     4
 40
0.8
 49
0.5
 49
-0.1
 49
0.1
 49
-0.1
  0
LTYPE
  2
DOT2
 70
     0
  3
Dot (.5x) ........................................
 72
    65
 73
     2
 40
0.025
 49
0.0
 49
-0.025
  0
ENDTAB
  0
TABLE
  2
LAYER
 70
     1
  0
LAYER
  2
0
 70
     0
 62
     7
  6
CONTINUOUS
  0
ENDTAB
  0
TABLE
  2
STYLE
 70
     1
  0
STYLE
  2
STANDARD
 70
     0
 40
0.0
 41
1.0
 50
0.0
 71
     0
 42
0.1377952756
  3
txt
  4

  0
ENDTAB
  0
TABLE
  2
VIEW
 70
     0
  0
ENDTAB
  0
TABLE
  2
UCS
 70
     0
  0
ENDTAB
  0
TABLE
  2
APPID
 70
     1
  0
APPID
  2
ACAD
 70
     0
  0
ENDTAB
  0
TABLE
  2
DIMSTYLE
 70
     1
  0
DIMSTYLE
  2
STANDARD
 70
     0
  3

  4

  5

  6

  7

 40
1.0
 41
0.18
 42
0.0625
 43
0.38
 44
0.18
 45
0.0
 46
0.0
 47
0.0
 48
0.0
140
0.18
141
0.09
142
0.0
143
25.4
144
1.0
145
0.0
146
1.0
147
0.09
 71
     0
 72
     0
 73
     1
 74
     1
 75
     0
 76
     0
 77
     0
 78
     0
170
     0
171
     2
172
     0
173
     0
174
     0
175
     0
176
     0
177
     0
178
     0
  0
ENDTAB
  0
ENDSEC
  0
SECTION
  2
BLOCKS
  0
BLOCK
  8
0
  2
$MODEL_SPACE
 70
     0
 10
0.0
 20
0.0
 30
0.0
  3
$MODEL_SPACE
  1

  0
ENDBLK
  5
21
  8
0
  0
BLOCK
 67
     1
  8
0
  2
$PAPER_SPACE
 70
     0
 10
0.0
 20
0.0
 30
0.0
  3
$PAPER_SPACE
  1

  0
ENDBLK
  5
1D
 67
     1
  8
0
  0
ENDSEC
  0
SECTION
  2
ENTITIES
  0
CIRCLE
  5
73
  8
0
  6
CONTINUOUS
 62
     7
 10
-0.25
 20
0.65
 30
0.0
 40
0.0847499999999995
  0
CIRCLE
  5
74
  8
0
  6
CONTINUOUS
 62
     7
 10
-0.25
 20
5.9
 30
0.0
 40
0.084749999999998
  0
CIRCLE
  5
75
  8
0
  6
CONTINUOUS
 62
     7
 10
-1.875
 20
5.0625
 30
0.0
 40
0.0847499999999981
  0
CIRCLE
  5
76
  8
0
  6
CONTINUOUS
 62
     7
 10
-0.8
 20
4.75
 30
0.0
 40
0.0847499999999981
  0
CIRCLE
  5
77
  8
0
  6
CONTINUOUS
 62
     7
 10
-1.5
 20
3.875
 30
0.0
 40
0.070314999999999
  0
CIRCLE
  5
78
  8
0
  6
CONTINUOUS
 62
     7
 10
-0.46
 20
3.5
 30
0.0
 40
0.2343750000000011
  0
CIRCLE
  5
79
  8
0
  6
CONTINUOUS
 62
     7
 10
-1.0625
 20
1.1875
 30
0.0
 40
0.2499999999999997
  0
CIRCLE
  5
7A
  8
0
  6
CONTINUOUS
 62
     7
 10
-1.5
 20
3.5
 30
0.0
 40
0.2500000000000009
  0
CIRCLE
  5
E9
  8
0
  6
CONTINUOUS
 62
     7
 10
-1.99
 20
0.65
 30
0.0
 40
0.084749999999999
  0
CIRCLE
  5
EA
  8
0
  6
CONTINUOUS
 62
     7
 10
-1.7
 20
1.46
 30
0.0
 40
0.0847499999999997
  0
LINE
  5
EB
  8
0
  6
CONTINUOUS
 62
     7
 10
0.0
 20
6.5
 30
0.0
 11
-0.8125
 21
6.5
 31
0.0
  0
LINE
  5
EC
  8
0
  6
CONTINUOUS
 62
     7
 10
0.0
 20
0.0
 30
0.0
 11
0.0
 21
6.5
 31
0.0
  0
LINE
  5
ED
  8
0
  6
CONTINUOUS
 62
     7
 10
-1.15
 20
0.0
 30
0.0
 11
0.0
 21
0.0
 31
0.0
  0
LINE
  5
EE
  8
0
  6
CONTINUOUS
 62
     7
 10
-1.15
 20
0.0625
 30
0.0
 11
-1.15
 21
0.0
 31
0.0
  0
LINE
  5
EF
  8
0
  6
CONTINUOUS
 62
     7
 10
-2.339047619
 20
0.25
 30
0.0
 11
-1.3375
 21
0.25
 31
0.0
  0
LINE
  5
F0
  8
0
  6
CONTINUOUS
 62
     7
 10
-2.12
 20
5.25
 30
0.0
 11
-2.339047619
 21
0.25
 31
0.0
  0
LINE
  5
F1
  8
0
  6
CONTINUOUS
 62
     7
 10
-1.1875
 20
5.25
 30
0.0
 11
-2.12
 21
5.25
 31
0.0
  0
LINE
  5
F2
  8
0
  6
CONTINUOUS
 62
     7
 10
-0.8125
 20
5.625
 30
0.0
 11
-0.8125
 21
6.5
 31
0.0
  0
LINE
  5
F3
  8
0
  6
CONTINUOUS
 62
     7
 10
-0.7329139443
 20
4.4522188286
 30
0.0
 11
-1.2105413446
 21
4.4522188286
 31
0.0
  0
LINE
  5
F4
  8
0
  6
CONTINUOUS
 62
     7
 10
-1.2730413446
 20
4.3897188286
 30
0.0
 11
-1.2730413446
 21
4.2660737834
 31
0.0
  0
LINE
  5
F5
  8
0
  6
CONTINUOUS
 62
     7
 10
-1.2105413446
 20
4.2035737834
 30
0.0
 11
-0.7329139443
 21
4.2035737834
 31
0.0
  0
LINE
  5
F6
  8
0
  6
CONTINUOUS
 62
     7
 10
-0.6704139443
 20
4.2660737834
 30
0.0
 11
-0.6704139443
 21
4.3897188286
 31
0.0
  0
LINE
  5
F7
  8
0
  6
CONTINUOUS
 62
     7
 10
-0.2242536196
 20
4.0386670819
 30
0.0
 11
-0.6926929861
 21
4.0386670819
 31
0.0
  0
LINE
  5
F8
  8
0
  6
CONTINUOUS
 62
     7
 10
-0.7551929861
 20
3.9761670819
 30
0.0
 11
-0.7551929861
 21
3.8711002237
 31
0.0
  0
LINE
  5
F9
  8
0
  6
CONTINUOUS
 62
     7
 10
-0.6926929861
 20
3.8086002237
 30
0.0
 11
-0.2242536196
 21
3.8086002237
 31
0.0
  0
LINE
  5
FA
  8
0
  6
CONTINUOUS
 62
     7
 10
-0.1617536196
 20
3.8711002237
 30
0.0
 11
-0.1617536196
 21
3.9761670819
 31
0.0
  0
LINE
  5
FB
  8
0
  6
CONTINUOUS
 62
     7
 10
-1.5779825401
 20
2.82284341
 30
0.0
 11
-1.4399636977
 21
2.82284341
 31
0.0
  0
LINE
  5
FC
  8
0
  6
CONTINUOUS
 62
     7
 10
-1.3774636977
 20
2.88534341
 30
0.0
 11
-1.3774636977
 21
3.1169991373
 31
0.0
  0
LINE
  5
FD
  8
0
  6
CONTINUOUS
 62
     7
 10
-1.4399636977
 20
3.1794991373
 30
0.0
 11
-1.5779825401
 21
3.1794991373
 31
0.0
  0
LINE
  5
FE
  8
0
  6
CONTINUOUS
 62
     7
 10
-1.6404825401
 20
3.1169991373
 30
0.0
 11
-1.6404825401
 21
2.88534341
 31
0.0
  0
LINE
  5
FF
  8
0
  6
CONTINUOUS
 62
     7
 10
-1.6404825401
 20
4.0698056047
 30
0.0
 11
-1.7461734989
 21
4.0698056047
 31
0.0
  0
LINE
  5
100
  8
0
  6
CONTINUOUS
 62
     7
 10
-1.8086734989
 20
4.0073056047
 30
0.0
 11
-1.8086734989
 21
3.8671259643
 31
0.0
  0
LINE
  5
101
  8
0
  6
CONTINUOUS
 62
     7
 10
-1.7461734989
 20
3.8046259643
 30
0.0
 11
-1.6404825401
 21
3.8046259643
 31
0.0
  0
LINE
  5
102
  8
0
  6
CONTINUOUS
 62
     7
 10
-1.5779825401
 20
3.8671259643
 30
0.0
 11
-1.5779825401
 21
4.0073056047
 31
0.0
  0
LINE
  5
103
  8
0
  6
CONTINUOUS
 62
     7
 10
-1.3611896021
 20
3.8086002237
 30
0.0
 11
-1.1151772675
 21
3.8086002237
 31
0.0
  0
LINE
  5
104
  8
0
  6
CONTINUOUS
 62
     7
 10
-1.0526772675
 20
3.8711002237
 30
0.0
 11
-1.0526772675
 21
4.000292348
 31
0.0
  0
LINE
  5
105
  8
0
  6
CONTINUOUS
 62
     7
 10
-1.1151772675
 20
4.062792348
 30
0.0
 11
-1.3611896021
 21
4.062792348
 31
0.0
  0
LINE
  5
106
  8
0
  6
CONTINUOUS
 62
     7
 10
-1.4236896021
 20
4.000292348
 30
0.0
 11
-1.4236896021
 21
3.8711002237
 31
0.0
  0
LINE
  5
107
  8
0
  6
CONTINUOUS
 62
     7
 10
-0.5706666083
 20
1.300811237
 30
0.0
 11
-0.711208895
 21
1.300811237
 31
0.0
  0
LINE
  5
108
  8
0
  6
CONTINUOUS
 62
     7
 10
-0.773708895
 20
1.238311237
 30
0.0
 11
-0.773708895
 21
1.0220994604
 31
0.0
  0
LINE
  5
109
  8
0
  6
CONTINUOUS
 62
     7
 10
-0.711208895
 20
0.9595994604
 30
0.0
 11
-0.5718064801
 21
0.9595994604
 31
0.0
  0
LINE
  5
10A
  8
0
  6
CONTINUOUS
 62
     7
 10
-0.5093073487
 20
1.021769964
 30
0.0
 11
-0.5081674768
 21
1.2379817406
 31
0.0
  0
LINE
  5
10B
  8
0
  6
CONTINUOUS
 62
     7
 10
-1.15773683
 20
0.6236198281
 30
0.0
 11
-0.9300595306
 21
0.6236198281
 31
0.0
  0
LINE
  5
10C
  8
0
  6
CONTINUOUS
 62
     7
 10
-0.8675595306
 20
0.6861198281
 30
0.0
 11
-0.8675595306
 21
0.809917632
 31
0.0
  0
LINE
  5
10D
  8
0
  6
CONTINUOUS
 62
     7
 10
-0.9300595306
 20
0.872417632
 30
0.0
 11
-1.15773683
 21
0.872417632
 31
0.0
  0
LINE
  5
10E
  8
0
  6
CONTINUOUS
 62
     7
 10
-1.22023683
 20
0.809917632
 30
0.0
 11
-1.22023683
 21
0.6861198281
 31
0.0
  0
LINE
  5
10F
  8
0
  6
CONTINUOUS
 62
     7
 10
-0.1984248177
 20
2.1659678293
 30
0.0
 11
-1.8280153684
 21
2.1659678293
 31
0.0
  0
LINE
  5
110
  8
0
  6
CONTINUOUS
 62
     7
 10
-1.8905153684
 20
2.1034678293
 30
0.0
 11
-1.8905153684
 21
1.9013758169
 31
0.0
  0
LINE
  5
111
  8
0
  6
CONTINUOUS
 62
     7
 10
-1.8689614062
 20
1.8541564143
 30
0.0
 11
-1.5776476742
 21
1.60154536
 31
0.0
  0
LINE
  5
112
  8
0
  6
CONTINUOUS
 62
     7
 10
-1.5367016363
 20
1.5862647626
 30
0.0
 11
-0.4092282106
 21
1.5862647626
 31
0.0
  0
LINE
  5
113
  8
0
  6
CONTINUOUS
 62
     7
 10
-0.37003288
 20
1.6000823628
 30
0.0
 11
-0.1592294871
 21
1.7698050696
 31
0.0
  0
LINE
  5
114
  8
0
  6
CONTINUOUS
 62
     7
 10
-0.1359248177
 20
1.8184874695
 30
0.0
 11
-0.1359248177
 21
2.1034678293
 31
0.0
  0
LINE
  5
115
  8
0
  6
CONTINUOUS
 62
     7
 10
-1.4236896021
 20
1.469456292
 30
0.0
 11
-1.5274408371
 21
1.469456292
 31
0.0
  0
LINE
  5
116
  8
0
  6
CONTINUOUS
 62
     7
 10
-1.5899408371
 20
1.406956292
 30
0.0
 11
-1.5899408371
 21
1.2505970295
 31
0.0
  0
LINE
  5
117
  8
0
  6
CONTINUOUS
 62
     7
 10
-1.5922710133
 20
1.2336901582
 30
0.0
 11
-1.6379870647
 21
1.0709914117
 31
0.0
  0
LINE
  5
118
  8
0
  6
CONTINUOUS
 62
     7
 10
-1.6403172408
 20
1.0540845404
 30
0.0
 11
-1.6403172408
 21
0.8926204917
 31
0.0
  0
LINE
  5
119
  8
0
  6
CONTINUOUS
 62
     7
 10
-1.5778172408
 20
0.8301204917
 30
0.0
 11
-1.3943265399
 21
0.8301204917
 31
0.0
  0
LINE
  5
11A
  8
0
  6
CONTINUOUS
 62
     7
 10
-1.3318265399
 20
0.8926204917
 30
0.0
 11
-1.3318265399
 21
1.0576143228
 31
0.0
  0
LINE
  5
11B
  8
0
  6
CONTINUOUS
 62
     7
 10
-1.3326482829
 20
1.0677159371
 30
0.0
 11
-1.3603678591
 21
1.2369656328
 31
0.0
  0
LINE
  5
11C
  8
0
  6
CONTINUOUS
 62
     7
 10
-1.3611896021
 20
1.2470672471
 30
0.0
 11
-1.3611896021
 21
1.406956292
 31
0.0
  0
LINE
  5
11D
  8
0
  6
CONTINUOUS
 62
     7
 10
-0.6915465383
 20
4.9653297915
 30
0.0
 11
-0.6915465383
 21
5.0035637115
 31
0.0
  0
LINE
  5
11E
  8
0
  6
CONTINUOUS
 62
     7
 10
-0.7540465383
 20
5.0660637115
 30
0.0
 11
-0.8668164949
 21
5.0660637115
 31
0.0
  0
LINE
  5
11F
  8
0
  6
CONTINUOUS
 62
     7
 10
-0.9293164949
 20
5.0035637115
 30
0.0
 11
-0.9293164949
 21
4.9653297915
 31
0.0
  0
LINE
  5
120
  8
0
  6
CONTINUOUS
 62
     7
 10
-0.8668164949
 20
4.9028297915
 30
0.0
 11
-0.7540465383
 21
4.9028297915
 31
0.0
  0
LINE
  5
121
  8
0
  6
CONTINUOUS
 62
     7
 10
-0.226018821
 20
4.3210355818
 30
0.0
 11
-0.226018821
 21
4.9533826172
 31
0.0
  0
LINE
  5
122
  8
0
  6
CONTINUOUS
 62
     7
 10
-0.288518821
 20
5.0158826172
 30
0.0
 11
-0.5278159048
 21
5.0158826172
 31
0.0
  0
LINE
  5
123
  8
0
  6
CONTINUOUS
 62
     7
 10
-0.5903159048
 20
4.9533826172
 30
0.0
 11
-0.5903159048
 21
4.3210355818
 31
0.0
  0
LINE
  5
124
  8
0
  6
CONTINUOUS
 62
     7
 10
-0.5278159048
 20
4.2585355818
 30
0.0
 11
-0.288518821
 21
4.2585355818
 31
0.0
  0
ARC
  5
125
  8
0
  6
CONTINUOUS
 62
     7
 10
-1.3375
 20
0.0625
 30
0.0
 40
0.1875000000000011
 50
0.0
 51
90.0
  0
ARC
  5
126
  8
0
  6
CONTINUOUS
 62
     7
 10
-1.1875
 20
5.625
 30
0.0
 40
0.3749999999999993
 50
270.0
 51
0.0
  0
ARC
  5
127
  8
0
  6
CONTINUOUS
 62
     7
 10
-1.2105413446
 20
4.3897188286
 30
0.0
 40
0.0625
 50
90.0
 51
180.0
  0
ARC
  5
128
  8
0
  6
CONTINUOUS
 62
     7
 10
-1.2105413446
 20
4.2660737834
 30
0.0
 40
0.0624999999999991
 50
180.0
 51
270.0
  0
ARC
  5
129
  8
0
  6
CONTINUOUS
 62
     7
 10
-0.7329139443
 20
4.2660737834
 30
0.0
 40
0.0624999999999992
 50
270.0
 51
0.0
  0
ARC
  5
12A
  8
0
  6
CONTINUOUS
 62
     7
 10
-0.7329139443
 20
4.3897188286
 30
0.0
 40
0.0625000000000009
 50
0.0
 51
90.0
  0
ARC
  5
12B
  8
0
  6
CONTINUOUS
 62
     7
 10
-0.6926929861
 20
3.9761670819
 30
0.0
 40
0.0624999999999996
 50
90.0
 51
180.0
  0
ARC
  5
12C
  8
0
  6
CONTINUOUS
 62
     7
 10
-0.6926929861
 20
3.8711002237
 30
0.0
 40
0.0625000000000009
 50
180.0
 51
270.0
  0
ARC
  5
12D
  8
0
  6
CONTINUOUS
 62
     7
 10
-0.2242536196
 20
3.8711002237
 30
0.0
 40
0.0624999999999996
 50
270.0
 51
0.0
  0
ARC
  5
12E
  8
0
  6
CONTINUOUS
 62
     7
 10
-0.2242536196
 20
3.9761670819
 30
0.0
 40
0.0624999999999996
 50
0.0
 51
90.0
  0
ARC
  5
12F
  8
0
  6
CONTINUOUS
 62
     7
 10
-1.4399636977
 20
2.88534341
 30
0.0
 40
0.0624999999999998
 50
270.0
 51
0.0
  0
ARC
  5
130
  8
0
  6
CONTINUOUS
 62
     7
 10
-1.4399636977
 20
3.1169991373
 30
0.0
 40
0.0624999999999993
 50
0.0
 51
90.0
  0
ARC
  5
131
  8
0
  6
CONTINUOUS
 62
     7
 10
-1.5779825401
 20
3.1169991373
 30
0.0
 40
0.0624999999999993
 50
90.0
 51
180.0
  0
ARC
  5
132
  8
0
  6
CONTINUOUS
 62
     7
 10
-1.5779825401
 20
2.88534341
 30
0.0
 40
0.0624999999999998
 50
180.0
 51
270.0
  0
ARC
  5
133
  8
0
  6
CONTINUOUS
 62
     7
 10
-1.7461734989
 20
4.0073056047
 30
0.0
 40
0.0625000000000009
 50
90.0
 51
180.0
  0
ARC
  5
134
  8
0
  6
CONTINUOUS
 62
     7
 10
-1.7461734989
 20
3.8671259643
 30
0.0
 40
0.0625
 50
180.0
 51
270.0
  0
ARC
  5
135
  8
0
  6
CONTINUOUS
 62
     7
 10
-1.6404825401
 20
3.8671259643
 30
0.0
 40
0.0625
 50
270.0
 51
0.0
  0
ARC
  5
136
  8
0
  6
CONTINUOUS
 62
     7
 10
-1.6404825401
 20
4.0073056047
 30
0.0
 40
0.0625000000000009
 50
0.0
 51
90.0
  0
ARC
  5
137
  8
0
  6
CONTINUOUS
 62
     7
 10
-1.1151772675
 20
3.8711002237
 30
0.0
 40
0.0625
 50
270.0
 51
0.0
  0
ARC
  5
138
  8
0
  6
CONTINUOUS
 62
     7
 10
-1.1151772675
 20
4.000292348
 30
0.0
 40
0.0624999999999991
 50
0.0
 51
90.0
  0
ARC
  5
139
  8
0
  6
CONTINUOUS
 62
     7
 10
-1.3611896021
 20
4.000292348
 30
0.0
 40
0.0624999999999991
 50
90.0
 51
180.0
  0
ARC
  5
13A
  8
0
  6
CONTINUOUS
 62
     7
 10
-1.3611896021
 20
3.8711002237
 30
0.0
 40
0.0625000000000013
 50
180.0
 51
270.0
  0
ARC
  5
13B
  8
0
  6
CONTINUOUS
 62
     7
 10
-0.711208895
 20
1.238311237
 30
0.0
 40
0.0625000000000002
 50
90.0
 51
180.0
  0
ARC
  5
13C
  8
0
  6
CONTINUOUS
 62
     7
 10
-0.711208895
 20
1.0220994604
 30
0.0
 40
0.0624999999999997
 50
180.0
 51
270.0
  0
ARC
  5
13D
  8
0
  6
CONTINUOUS
 62
     7
 10
-0.5718064801
 20
1.0220994604
 30
0.0
 40
0.0625000000000001
 50
270.0
 51
359.6979385562
  0
ARC
  5
13E
  8
0
  6
CONTINUOUS
 62
     7
 10
-0.5706666083
 20
1.238311237
 30
0.0
 40
0.0624999999999998
 50
359.6979385562
 51
90.0
  0
ARC
  5
13F
  8
0
  6
CONTINUOUS
 62
     7
 10
-0.9300595306
 20
0.6861198281
 30
0.0
 40
0.0625000000000003
 50
270.0
 51
0.0
  0
ARC
  5
140
  8
0
  6
CONTINUOUS
 62
     7
 10
-0.9300595306
 20
0.809917632
 30
0.0
 40
0.0625000000000009
 50
0.0
 51
90.0
  0
ARC
  5
141
  8
0
  6
CONTINUOUS
 62
     7
 10
-1.15773683
 20
0.809917632
 30
0.0
 40
0.0625
 50
90.0
 51
180.0
  0
ARC
  5
142
  8
0
  6
CONTINUOUS
 62
     7
 10
-1.15773683
 20
0.6861198281
 30
0.0
 40
0.0625000000000004
 50
180.0
 51
270.0
  0
ARC
  5
143
  8
0
  6
CONTINUOUS
 62
     7
 10
-1.8280153684
 20
2.1034678293
 30
0.0
 40
0.0625
 50
90.0
 51
180.0
  0
ARC
  5
144
  8
0
  6
CONTINUOUS
 62
     7
 10
-1.8280153684
 20
1.9013758169
 30
0.0
 40
0.0625000000000012
 50
180.0
 51
229.0699911142
  0
ARC
  5
145
  8
0
  6
CONTINUOUS
 62
     7
 10
-1.5367016363
 20
1.6487647626
 30
0.0
 40
0.0625000000000002
 50
229.0699911142
 51
270.0
  0
ARC
  5
146
  8
0
  6
CONTINUOUS
 62
     7
 10
-0.4092282106
 20
1.6487647626
 30
0.0
 40
0.0625000000000039
 50
270.0
 51
308.838348672
  0
ARC
  5
147
  8
0
  6
CONTINUOUS
 62
     7
 10
-0.1984248177
 20
1.8184874695
 30
0.0
 40
0.0625000000000012
 50
308.838348672
 51
0.0
  0
ARC
  5
148
  8
0
  6
CONTINUOUS
 62
     7
 10
-0.1984248177
 20
2.1034678293
 30
0.0
 40
0.0625000000000009
 50
0.0
 51
90.0
  0
ARC
  5
149
  8
0
  6
CONTINUOUS
 62
     7
 10
-1.5274408371
 20
1.406956292
 30
0.0
 40
0.0625
 50
90.0
 51
180.0
  0
ARC
  5
14A
  8
0
  6
CONTINUOUS
 62
     7
 10
-1.6524408371
 20
1.2505970295
 30
0.0
 40
0.0624999999999825
 50
344.3053864992
 51
0.0
  0
ARC
  5
14B
  8
0
  6
CONTINUOUS
 62
     7
 10
-1.5778172408
 20
1.0540845404
 30
0.0
 40
0.0625000000000093
 50
164.3053864992
 51
180.0
  0
ARC
  5
14C
  8
0
  6
CONTINUOUS
 62
     7
 10
-1.5778172408
 20
0.8926204917
 30
0.0
 40
0.0625000000000007
 50
180.0
 51
270.0
  0
ARC
  5
14D
  8
0
  6
CONTINUOUS
 62
     7
 10
-1.3943265399
 20
0.8926204917
 30
0.0
 40
0.0624999999999997
 50
270.0
 51
0.0
  0
ARC
  5
14E
  8
0
  6
CONTINUOUS
 62
     7
 10
-1.3943265399
 20
1.0576143228
 30
0.0
 40
0.0624999999999807
 50
0.0
 51
9.3012777538
  0
ARC
  5
14F
  8
0
  6
CONTINUOUS
 62
     7
 10
-1.2986896021
 20
1.2470672471
 30
0.0
 40
0.062500000000038
 50
180.0
 51
189.3012777538
  0
ARC
  5
150
  8
0
  6
CONTINUOUS
 62
     7
 10
-1.4236896021
 20
1.406956292
 30
0.0
 40
0.0625000000000002
 50
0.0
 51
90.0
  0
ARC
  5
151
  8
0
  6
CONTINUOUS
 62
     7
 10
-0.7540465383
 20
5.0035637115
 30
0.0
 40
0.0624999999999992
 50
0.0
 51
90.0
  0
ARC
  5
152
  8
0
  6
CONTINUOUS
 62
     7
 10
-0.8668164949
 20
5.0035637115
 30
0.0
 40
0.0625000000000002
 50
90.0
 51
180.0
  0
ARC
  5
153
  8
0
  6
CONTINUOUS
 62
     7
 10
-0.8668164949
 20
4.9653297915
 30
0.0
 40
0.0625000000000009
 50
180.0
 51
270.0
  0
ARC
  5
154
  8
0
  6
CONTINUOUS
 62
     7
 10
-0.7540465383
 20
4.9653297915
 30
0.0
 40
0.0625
 50
270.0
 51
0.0
  0
ARC
  5
155
  8
0
  6
CONTINUOUS
 62
     7
 10
-0.288518821
 20
4.9533826172
 30
0.0
 40
0.0624999999999993
 50
0.0
 51
90.0
  0
ARC
  5
156
  8
0
  6
CONTINUOUS
 62
     7
 10
-0.5278159048
 20
4.9533826172
 30
0.0
 40
0.0625
 50
90.0
 51
180.0
  0
ARC
  5
157
  8
0
  6
CONTINUOUS
 62
     7
 10
-0.5278159048
 20
4.3210355818
 30
0.0
 40
0.0625000000000009
 50
180.0
 51
270.0
  0
ARC
  5
158
  8
0
  6
CONTINUOUS
 62
     7
 10
-0.288518821
 20
4.3210355818
 30
0.0
 40
0.0624999999999991
 50
270.0
 51
0.0
  0
ENDSEC
  0
EOF
