  0
SECTION
  2
HEADER
  9
$ACADVER
  1
AC1009
  9
$DWGCODEPAGE
  3
ansi_1252
  9
$INSBASE
 10
0.0
 20
0.0
 30
0.0
  9
$EXTMIN
 10
-1.99
 20
0.5
 30
0.0
  9
$EXTMAX
 10
-0.03
 20
5.175
 30
0.0
  9
$LIMMIN
 10
0.0
 20
0.0
  9
$LIMMAX
 10
12.0
 20
9.0
  9
$ORTHOMODE
 70
     0
  9
$REGENMODE
 70
     1
  9
$FILLMODE
 70
     1
  9
$QTEXTMODE
 70
     0
  9
$MIRRTEXT
 70
     1
  9
$DRAGMODE
 70
     2
  9
$LTSCALE
 40
1.0
  9
$OSMODE
 70
    37
  9
$ATTMODE
 70
     1
  9
$TEXTSIZE
 40
0.1944444444
  9
$TRACEWID
 40
0.05
  9
$TEXTSTYLE
  7
STANDARD
  9
$CLAYER
  8
0
  9
$CELTYPE
  6
BYLAYER
  9
$CECOLOR
 62
   256
  9
$DIMSCALE
 40
1.0
  9
$DIMASZ
 40
0.13
  9
$DIMEXO
 40
0.0
  9
$DIMDLI
 40
0.38
  9
$DIMRND
 40
0.0
  9
$DIMDLE
 40
0.0
  9
$DIMEXE
 40
0.125
  9
$DIMTP
 40
0.0
  9
$DIMTM
 40
0.0
  9
$DIMTXT
 40
0.1377952756
  9
$DIMCEN
 40
0.09
  9
$DIMTSZ
 40
0.0
  9
$DIMTOL
 70
     0
  9
$DIMLIM
 70
     0
  9
$DIMTIH
 70
     1
  9
$DIMTOH
 70
     1
  9
$DIMSE1
 70
     0
  9
$DIMSE2
 70
     0
  9
$DIMTAD
 70
     1
  9
$DIMZIN
 70
     0
  9
$DIMBLK
  1

  9
$DIMASO
 70
     1
  9
$DIMSHO
 70
     1
  9
$DIMPOST
  1

  9
$DIMAPOST
  1

  9
$DIMALT
 70
     0
  9
$DIMALTD
 70
     2
  9
$DIMALTF
 40
25.4
  9
$DIMLFAC
 40
1.0
  9
$DIMTOFL
 70
     0
  9
$DIMTVP
 40
0.0
  9
$DIMTIX
 70
     0
  9
$DIMSOXD
 70
     0
  9
$DIMSAH
 70
     0
  9
$DIMBLK1
  1

  9
$DIMBLK2
  1

  9
$DIMSTYLE
  2
STANDARD
  9
$DIMCLRD
 70
     0
  9
$DIMCLRE
 70
     0
  9
$DIMCLRT
 70
     0
  9
$DIMTFAC
 40
1.0
  9
$DIMGAP
 40
0.06
  9
$LUNITS
 70
     2
  9
$LUPREC
 70
     8
  9
$SKETCHINC
 40
0.1
  9
$FILLETRAD
 40
0.5
  9
$AUNITS
 70
     0
  9
$AUPREC
 70
     2
  9
$MENU
  1
.
  9
$ELEVATION
 40
0.0
  9
$PELEVATION
 40
0.0
  9
$THICKNESS
 40
0.0
  9
$LIMCHECK
 70
     0
  9
$CHAMFERA
 40
0.0
  9
$CHAMFERB
 40
0.0
  9
$SKPOLY
 70
     0
  9
$TDCREATE
 40
2459454.793627002
  9
$TDUPDATE
 40
2459454.793678935
  9
$TDINDWG
 40
0.0000000116
  9
$TDUSRTIMER
 40
0.0000000116
  9
$USRTIMER
 70
     1
  9
$ANGBASE
 50
0.0
  9
$ANGDIR
 70
     0
  9
$PDMODE
 70
     0
  9
$PDSIZE
 40
-1.0
  9
$PLINEWID
 40
0.0
  9
$COORDS
 70
     1
  9
$SPLFRAME
 70
     0
  9
$SPLINETYPE
 70
     6
  9
$SPLINESEGS
 70
     8
  9
$ATTDIA
 70
     0
  9
$ATTREQ
 70
     1
  9
$HANDLING
 70
     1
  9
$HANDSEED
  5
6C0
  9
$SURFTAB1
 70
     6
  9
$SURFTAB2
 70
     6
  9
$SURFTYPE
 70
     6
  9
$SURFU
 70
     6
  9
$SURFV
 70
     6
  9
$UCSNAME
  2

  9
$UCSORG
 10
0.0
 20
0.0
 30
0.0
  9
$UCSXDIR
 10
1.0
 20
0.0
 30
0.0
  9
$UCSYDIR
 10
0.0
 20
1.0
 30
0.0
  9
$PUCSNAME
  2

  9
$PUCSORG
 10
0.0
 20
0.0
 30
0.0
  9
$PUCSXDIR
 10
1.0
 20
0.0
 30
0.0
  9
$PUCSYDIR
 10
0.0
 20
1.0
 30
0.0
  9
$USERI1
 70
     0
  9
$USERI2
 70
     0
  9
$USERI3
 70
     0
  9
$USERI4
 70
     0
  9
$USERI5
 70
     0
  9
$USERR1
 40
0.0
  9
$USERR2
 40
0.0
  9
$USERR3
 40
0.0
  9
$USERR4
 40
0.0
  9
$USERR5
 40
0.0
  9
$WORLDVIEW
 70
     1
  9
$SHADEDGE
 70
     3
  9
$SHADEDIF
 70
    70
  9
$TILEMODE
 70
     1
  9
$MAXACTVP
 70
    64
  9
$PLIMCHECK
 70
     0
  9
$PEXTMIN
 10
1.0000000000E+20
 20
1.0000000000E+20
 30
1.0000000000E+20
  9
$PEXTMAX
 10
-1.0000000000E+20
 20
-1.0000000000E+20
 30
-1.0000000000E+20
  9
$PLIMMIN
 10
0.0
 20
0.0
  9
$PLIMMAX
 10
12.0
 20
9.0
  9
$UNITMODE
 70
     0
  9
$VISRETAIN
 70
     1
  9
$PLINEGEN
 70
     0
  9
$PSLTSCALE
 70
     1
  0
ENDSEC
  0
SECTION
  2
TABLES
  0
TABLE
  2
VPORT
 70
     1
  0
VPORT
  2
*ACTIVE
 70
     0
 10
0.0
 20
0.0
 11
1.0
 21
1.0
 12
-1.01
 22
2.8375
 13
0.0
 23
0.0
 14
0.5
 24
0.5
 15
0.5
 25
0.5
 16
0.0
 26
0.0
 36
1.0
 17
0.0
 27
0.0
 37
0.0
 40
4.7685
 41
0.4192513369
 42
50.0
 43
0.0
 44
0.0
 50
0.0
 51
0.0
 71
     0
 72
   100
 73
     1
 74
     3
 75
     0
 76
     0
 77
     0
 78
     0
  0
ENDTAB
  0
TABLE
  2
LTYPE
 70
     6
  0
LTYPE
  2
CONTINUOUS
 70
     0
  3
Solid line
 72
    65
 73
     0
 40
0.0
  0
LTYPE
  2
HIDDEN
 70
     0
  3
Hidden __ __ __ __ __ __ __ __ __ __ __ __ __ __
 72
    65
 73
     2
 40
0.075
 49
0.05
 49
-0.025
  0
LTYPE
  2
PHANTOM
 70
     0
  3
Phantom ______  __  __  ______  __  __  ______
 72
    65
 73
     6
 40
0.5
 49
0.25
 49
-0.05
 49
0.05
 49
-0.05
 49
0.05
 49
-0.05
  0
LTYPE
  2
CENTER
 70
     0
  3
Center ____ _ ____ _ ____ _ ____ _ ____ _ ____
 72
    65
 73
     4
 40
0.4
 49
0.25
 49
-0.05
 49
0.05
 49
-0.05
  0
LTYPE
  2
CENTERX2
 70
     0
  3
Center (2x) ________  __  ________  __  _____
 72
    65
 73
     4
 40
0.8
 49
0.5
 49
-0.1
 49
0.1
 49
-0.1
  0
LTYPE
  2
DOT2
 70
     0
  3
Dot (.5x) ........................................
 72
    65
 73
     2
 40
0.025
 49
0.0
 49
-0.025
  0
ENDTAB
  0
TABLE
  2
LAYER
 70
     1
  0
LAYER
  2
0
 70
     0
 62
     7
  6
CONTINUOUS
  0
ENDTAB
  0
TABLE
  2
STYLE
 70
     1
  0
STYLE
  2
STANDARD
 70
     0
 40
0.0
 41
1.0
 50
0.0
 71
     0
 42
0.1944444444
  3
txt
  4

  0
ENDTAB
  0
TABLE
  2
VIEW
 70
     0
  0
ENDTAB
  0
TABLE
  2
UCS
 70
     0
  0
ENDTAB
  0
TABLE
  2
APPID
 70
     1
  0
APPID
  2
ACAD
 70
     0
  0
ENDTAB
  0
TABLE
  2
DIMSTYLE
 70
     1
  0
DIMSTYLE
  2
STANDARD
 70
     0
  3

  4

  5

  6

  7

 40
1.0
 41
0.18
 42
0.0625
 43
0.38
 44
0.18
 45
0.0
 46
0.0
 47
0.0
 48
0.0
140
0.18
141
0.09
142
0.0
143
25.4
144
1.0
145
0.0
146
1.0
147
0.09
 71
     0
 72
     0
 73
     1
 74
     1
 75
     0
 76
     0
 77
     0
 78
     0
170
     0
171
     2
172
     0
173
     0
174
     0
175
     0
176
     0
177
     0
178
     0
  0
ENDTAB
  0
ENDSEC
  0
SECTION
  2
BLOCKS
  0
BLOCK
  8
0
  2
$MODEL_SPACE
 70
     0
 10
0.0
 20
0.0
 30
0.0
  3
$MODEL_SPACE
  1

  0
ENDBLK
  5
21
  8
0
  0
BLOCK
 67
     1
  8
0
  2
$PAPER_SPACE
 70
     0
 10
0.0
 20
0.0
 30
0.0
  3
$PAPER_SPACE
  1

  0
ENDBLK
  5
1D
 67
     1
  8
0
  0
ENDSEC
  0
SECTION
  2
ENTITIES
  0
CIRCLE
  5
86
  8
0
  6
CONTINUOUS
 62
     7
 10
-1.7
 20
1.46
 30
0.0
 40
0.0847499999999997
  0
CIRCLE
  5
87
  8
0
  6
CONTINUOUS
 62
     7
 10
-0.46
 20
3.5
 30
0.0
 40
0.2265650000000012
  0
POLYLINE
  5
88
  8
0
  6
CONTINUOUS
 62
     7
 66
     1
 10
0.0
 20
0.0
 30
0.0
 70
   128
  0
VERTEX
  5
3A1
  8
0
  6
CONTINUOUS
 62
     7
 10
-1.6040044394
 20
3.9177711821
 30
0.0
  0
VERTEX
  5
3A2
  8
0
  6
CONTINUOUS
 62
     7
 10
-1.6008281049
 20
3.8878962103
 30
0.0
  0
VERTEX
  5
3A3
  8
0
  6
CONTINUOUS
 62
     7
 10
-1.5913326991
 20
3.8663770928
 30
0.0
  0
SEQEND
  5
614
  8
0
  6
CONTINUOUS
 62
     7
  0
POLYLINE
  5
89
  8
0
  6
CONTINUOUS
 62
     7
 66
     1
 10
0.0
 20
0.0
 30
0.0
 70
   128
  0
VERTEX
  5
3A4
  8
0
  6
CONTINUOUS
 62
     7
 10
-1.5913326991
 20
3.8663770928
 30
0.0
  0
VERTEX
  5
3A5
  8
0
  6
CONTINUOUS
 62
     7
 10
-1.5744921123
 20
3.8538027453
 30
0.0
  0
VERTEX
  5
3A6
  8
0
  6
CONTINUOUS
 62
     7
 10
-1.5583522324
 20
3.8501131405
 30
0.0
  0
SEQEND
  5
615
  8
0
  6
CONTINUOUS
 62
     7
  0
POLYLINE
  5
8A
  8
0
  6
CONTINUOUS
 62
     7
 66
     1
 10
0.0
 20
0.0
 30
0.0
 70
   128
  0
VERTEX
  5
3A7
  8
0
  6
CONTINUOUS
 62
     7
 10
-1.5583522324
 20
3.8501131405
 30
0.0
  0
VERTEX
  5
3A8
  8
0
  6
CONTINUOUS
 62
     7
 10
-1.5419704454
 20
3.8539093382
 30
0.0
  0
VERTEX
  5
3A9
  8
0
  6
CONTINUOUS
 62
     7
 10
-1.5309439371
 20
3.8612574835
 30
0.0
  0
SEQEND
  5
616
  8
0
  6
CONTINUOUS
 62
     7
  0
POLYLINE
  5
8D
  8
0
  6
CONTINUOUS
 62
     7
 66
     1
 10
0.0
 20
0.0
 30
0.0
 70
   128
  0
VERTEX
  5
3AA
  8
0
  6
CONTINUOUS
 62
     7
 10
-1.5328956114
 20
3.9723897768
 30
0.0
  0
VERTEX
  5
3AB
  8
0
  6
CONTINUOUS
 62
     7
 10
-1.5466162564
 20
3.9799248692
 30
0.0
  0
VERTEX
  5
3AC
  8
0
  6
CONTINUOUS
 62
     7
 10
-1.5587482243
 20
3.9820067225
 30
0.0
  0
SEQEND
  5
617
  8
0
  6
CONTINUOUS
 62
     7
  0
POLYLINE
  5
8F
  8
0
  6
CONTINUOUS
 62
     7
 66
     1
 10
0.0
 20
0.0
 30
0.0
 70
   128
  0
VERTEX
  5
3AD
  8
0
  6
CONTINUOUS
 62
     7
 10
-1.5587339436
 20
3.98203498
 30
0.0
  0
VERTEX
  5
3AE
  8
0
  6
CONTINUOUS
 62
     7
 10
-1.576644131
 20
3.9774509974
 30
0.0
  0
VERTEX
  5
3AF
  8
0
  6
CONTINUOUS
 62
     7
 10
-1.5885041857
 20
3.9689672755
 30
0.0
  0
SEQEND
  5
618
  8
0
  6
CONTINUOUS
 62
     7
  0
POLYLINE
  5
92
  8
0
  6
CONTINUOUS
 62
     7
 66
     1
 10
0.0
 20
0.0
 30
0.0
 70
   128
  0
VERTEX
  5
3B0
  8
0
  6
CONTINUOUS
 62
     7
 10
-1.491373034
 20
3.9754445713
 30
0.0
  0
VERTEX
  5
3B1
  8
0
  6
CONTINUOUS
 62
     7
 10
-1.4917399066
 20
3.9724827617
 30
0.0
  0
VERTEX
  5
3B2
  8
0
  6
CONTINUOUS
 62
     7
 10
-1.4917690259
 20
3.970126966
 30
0.0
  0
SEQEND
  5
619
  8
0
  6
CONTINUOUS
 62
     7
  0
POLYLINE
  5
94
  8
0
  6
CONTINUOUS
 62
     7
 66
     1
 10
0.0
 20
0.0
 30
0.0
 70
   128
  0
VERTEX
  5
3B3
  8
0
  6
CONTINUOUS
 62
     7
 10
-1.4917407684
 20
3.8605994122
 30
0.0
  0
VERTEX
  5
3B4
  8
0
  6
CONTINUOUS
 62
     7
 10
-1.4916547114
 20
3.856894081
 30
0.0
  0
VERTEX
  5
3B5
  8
0
  6
CONTINUOUS
 62
     7
 10
-1.4909770421
 20
3.8540730594
 30
0.0
  0
SEQEND
  5
61A
  8
0
  6
CONTINUOUS
 62
     7
  0
POLYLINE
  5
96
  8
0
  6
CONTINUOUS
 62
     7
 66
     1
 10
0.0
 20
0.0
 30
0.0
 70
   128
  0
VERTEX
  5
3B6
  8
0
  6
CONTINUOUS
 62
     7
 10
-1.4838209031
 20
3.8501131405
 30
0.0
  0
VERTEX
  5
3B7
  8
0
  6
CONTINUOUS
 62
     7
 10
-1.4800112958
 20
3.8508937161
 30
0.0
  0
VERTEX
  5
3B8
  8
0
  6
CONTINUOUS
 62
     7
 10
-1.4771486453
 20
3.8534819836
 30
0.0
  0
VERTEX
  5
3B9
  8
0
  6
CONTINUOUS
 62
     7
 10
-1.4756747844
 20
3.8593906646
 30
0.0
  0
SEQEND
  5
61B
  8
0
  6
CONTINUOUS
 62
     7
  0
POLYLINE
  5
99
  8
0
  6
CONTINUOUS
 62
     7
 66
     1
 10
0.0
 20
0.0
 30
0.0
 70
   128
  0
VERTEX
  5
3BA
  8
0
  6
CONTINUOUS
 62
     7
 10
-1.4175206032
 20
3.8552803705
 30
0.0
  0
VERTEX
  5
3BB
  8
0
  6
CONTINUOUS
 62
     7
 10
-1.4135167212
 20
3.8512339908
 30
0.0
  0
VERTEX
  5
3BC
  8
0
  6
CONTINUOUS
 62
     7
 10
-1.4092047184
 20
3.8501131405
 30
0.0
  0
SEQEND
  5
61C
  8
0
  6
CONTINUOUS
 62
     7
  0
POLYLINE
  5
9A
  8
0
  6
CONTINUOUS
 62
     7
 66
     1
 10
0.0
 20
0.0
 30
0.0
 70
   128
  0
VERTEX
  5
3BD
  8
0
  6
CONTINUOUS
 62
     7
 10
-1.4092047184
 20
3.8501131405
 30
0.0
  0
VERTEX
  5
3BE
  8
0
  6
CONTINUOUS
 62
     7
 10
-1.4055090053
 20
3.8508577689
 30
0.0
  0
VERTEX
  5
3BF
  8
0
  6
CONTINUOUS
 62
     7
 10
-1.4027906922
 20
3.8534264633
 30
0.0
  0
VERTEX
  5
3C0
  8
0
  6
CONTINUOUS
 62
     7
 10
-1.4014828767
 20
3.8591926687
 30
0.0
  0
SEQEND
  5
61D
  8
0
  6
CONTINUOUS
 62
     7
  0
POLYLINE
  5
9C
  8
0
  6
CONTINUOUS
 62
     7
 66
     1
 10
0.0
 20
0.0
 30
0.0
 70
   128
  0
VERTEX
  5
3C1
  8
0
  6
CONTINUOUS
 62
     7
 10
-1.4014546192
 20
3.9705262726
 30
0.0
  0
VERTEX
  5
3C2
  8
0
  6
CONTINUOUS
 62
     7
 10
-1.4018494121
 20
3.9745549348
 30
0.0
  0
VERTEX
  5
3C3
  8
0
  6
CONTINUOUS
 62
     7
 10
-1.4035743473
 20
3.978182503
 30
0.0
  0
VERTEX
  5
3C4
  8
0
  6
CONTINUOUS
 62
     7
 10
-1.4062461283
 20
3.9798663443
 30
0.0
  0
VERTEX
  5
3C5
  8
0
  6
CONTINUOUS
 62
     7
 10
-1.4094027144
 20
3.9801964739
 30
0.0
  0
SEQEND
  5
61E
  8
0
  6
CONTINUOUS
 62
     7
  0
POLYLINE
  5
9D
  8
0
  6
CONTINUOUS
 62
     7
 66
     1
 10
0.0
 20
0.0
 30
0.0
 70
   128
  0
VERTEX
  5
3C6
  8
0
  6
CONTINUOUS
 62
     7
 10
-1.4094027144
 20
3.9801964739
 30
0.0
  0
VERTEX
  5
3C7
  8
0
  6
CONTINUOUS
 62
     7
 10
-1.4122520012
 20
3.9799273162
 30
0.0
  0
VERTEX
  5
3C8
  8
0
  6
CONTINUOUS
 62
     7
 10
-1.414829314
 20
3.9787107564
 30
0.0
  0
VERTEX
  5
3C9
  8
0
  6
CONTINUOUS
 62
     7
 10
-1.4165313698
 20
3.9764266938
 30
0.0
  0
VERTEX
  5
3CA
  8
0
  6
CONTINUOUS
 62
     7
 10
-1.4175488331
 20
3.9697875444
 30
0.0
  0
SEQEND
  5
61F
  8
0
  6
CONTINUOUS
 62
     7
  0
POLYLINE
  5
A0
  8
0
  6
CONTINUOUS
 62
     7
 66
     1
 10
0.0
 20
0.0
 30
0.0
 70
   128
  0
VERTEX
  5
3CB
  8
0
  6
CONTINUOUS
 62
     7
 10
-1.4758675045
 20
3.9746633049
 30
0.0
  0
VERTEX
  5
3CC
  8
0
  6
CONTINUOUS
 62
     7
 10
-1.4798273706
 20
3.9789670611
 30
0.0
  0
VERTEX
  5
3CD
  8
0
  6
CONTINUOUS
 62
     7
 10
-1.4819213367
 20
3.9799407617
 30
0.0
  0
VERTEX
  5
3CE
  8
0
  6
CONTINUOUS
 62
     7
 10
-1.484216895
 20
3.9801964739
 30
0.0
  0
SEQEND
  5
620
  8
0
  6
CONTINUOUS
 62
     7
  0
POLYLINE
  5
A1
  8
0
  6
CONTINUOUS
 62
     7
 66
     1
 10
0.0
 20
0.0
 30
0.0
 70
   128
  0
VERTEX
  5
3CF
  8
0
  6
CONTINUOUS
 62
     7
 10
-1.6574067732
 20
3.0877711821
 30
0.0
  0
VERTEX
  5
3D0
  8
0
  6
CONTINUOUS
 62
     7
 10
-1.6542304388
 20
3.0578962103
 30
0.0
  0
VERTEX
  5
3D1
  8
0
  6
CONTINUOUS
 62
     7
 10
-1.644735033
 20
3.0363770928
 30
0.0
  0
SEQEND
  5
621
  8
0
  6
CONTINUOUS
 62
     7
  0
POLYLINE
  5
A2
  8
0
  6
CONTINUOUS
 62
     7
 66
     1
 10
0.0
 20
0.0
 30
0.0
 70
   128
  0
VERTEX
  5
3D2
  8
0
  6
CONTINUOUS
 62
     7
 10
-1.644735033
 20
3.0363770928
 30
0.0
  0
VERTEX
  5
3D3
  8
0
  6
CONTINUOUS
 62
     7
 10
-1.6278944461
 20
3.0238027453
 30
0.0
  0
VERTEX
  5
3D4
  8
0
  6
CONTINUOUS
 62
     7
 10
-1.6117545662
 20
3.0201131405
 30
0.0
  0
SEQEND
  5
622
  8
0
  6
CONTINUOUS
 62
     7
  0
POLYLINE
  5
A3
  8
0
  6
CONTINUOUS
 62
     7
 66
     1
 10
0.0
 20
0.0
 30
0.0
 70
   128
  0
VERTEX
  5
3D5
  8
0
  6
CONTINUOUS
 62
     7
 10
-1.6117545662
 20
3.0201131405
 30
0.0
  0
VERTEX
  5
3D6
  8
0
  6
CONTINUOUS
 62
     7
 10
-1.5953727793
 20
3.0239093382
 30
0.0
  0
VERTEX
  5
3D7
  8
0
  6
CONTINUOUS
 62
     7
 10
-1.5843462709
 20
3.0312574835
 30
0.0
  0
SEQEND
  5
623
  8
0
  6
CONTINUOUS
 62
     7
  0
POLYLINE
  5
A6
  8
0
  6
CONTINUOUS
 62
     7
 66
     1
 10
0.0
 20
0.0
 30
0.0
 70
   128
  0
VERTEX
  5
3D8
  8
0
  6
CONTINUOUS
 62
     7
 10
-1.5862979452
 20
3.1423897768
 30
0.0
  0
VERTEX
  5
3D9
  8
0
  6
CONTINUOUS
 62
     7
 10
-1.6000185903
 20
3.1499248692
 30
0.0
  0
VERTEX
  5
3DA
  8
0
  6
CONTINUOUS
 62
     7
 10
-1.6121505581
 20
3.1520067225
 30
0.0
  0
SEQEND
  5
624
  8
0
  6
CONTINUOUS
 62
     7
  0
POLYLINE
  5
A8
  8
0
  6
CONTINUOUS
 62
     7
 66
     1
 10
0.0
 20
0.0
 30
0.0
 70
   128
  0
VERTEX
  5
3DB
  8
0
  6
CONTINUOUS
 62
     7
 10
-1.6121362774
 20
3.15203498
 30
0.0
  0
VERTEX
  5
3DC
  8
0
  6
CONTINUOUS
 62
     7
 10
-1.6300464649
 20
3.1474509974
 30
0.0
  0
VERTEX
  5
3DD
  8
0
  6
CONTINUOUS
 62
     7
 10
-1.6419065195
 20
3.1389672755
 30
0.0
  0
SEQEND
  5
625
  8
0
  6
CONTINUOUS
 62
     7
  0
POLYLINE
  5
AA
  8
0
  6
CONTINUOUS
 62
     7
 66
     1
 10
0.0
 20
0.0
 30
0.0
 70
   128
  0
VERTEX
  5
3DE
  8
0
  6
CONTINUOUS
 62
     7
 10
-1.4569500254
 20
3.1421634957
 30
0.0
  0
VERTEX
  5
3DF
  8
0
  6
CONTINUOUS
 62
     7
 10
-1.4573766647
 20
3.1448928345
 30
0.0
  0
VERTEX
  5
3E0
  8
0
  6
CONTINUOUS
 62
     7
 10
-1.4587433267
 20
3.1472852932
 30
0.0
  0
VERTEX
  5
3E1
  8
0
  6
CONTINUOUS
 62
     7
 10
-1.4609436008
 20
3.1489434721
 30
0.0
  0
VERTEX
  5
3E2
  8
0
  6
CONTINUOUS
 62
     7
 10
-1.4673023846
 20
3.1501964739
 30
0.0
  0
SEQEND
  5
626
  8
0
  6
CONTINUOUS
 62
     7
  0
POLYLINE
  5
AE
  8
0
  6
CONTINUOUS
 62
     7
 66
     1
 10
0.0
 20
0.0
 30
0.0
 70
   128
  0
VERTEX
  5
3E3
  8
0
  6
CONTINUOUS
 62
     7
 10
-1.5451431022
 20
3.0306580817
 30
0.0
  0
VERTEX
  5
3E4
  8
0
  6
CONTINUOUS
 62
     7
 10
-1.5451169949
 20
3.0272818501
 30
0.0
  0
VERTEX
  5
3E5
  8
0
  6
CONTINUOUS
 62
     7
 10
-1.5445773719
 20
3.0246953323
 30
0.0
  0
SEQEND
  5
627
  8
0
  6
CONTINUOUS
 62
     7
  0
POLYLINE
  5
B1
  8
0
  6
CONTINUOUS
 62
     7
 66
     1
 10
0.0
 20
0.0
 30
0.0
 70
   128
  0
VERTEX
  5
3E6
  8
0
  6
CONTINUOUS
 62
     7
 10
-1.529671106
 20
3.0252893201
 30
0.0
  0
VERTEX
  5
3E7
  8
0
  6
CONTINUOUS
 62
     7
 10
-1.5291101283
 20
3.028250419
 30
0.0
  0
VERTEX
  5
3E8
  8
0
  6
CONTINUOUS
 62
     7
 10
-1.5290771182
 20
3.0306352106
 30
0.0
  0
SEQEND
  5
628
  8
0
  6
CONTINUOUS
 62
     7
  0
POLYLINE
  5
B4
  8
0
  6
CONTINUOUS
 62
     7
 66
     1
 10
0.0
 20
0.0
 30
0.0
 70
   128
  0
VERTEX
  5
3E9
  8
0
  6
CONTINUOUS
 62
     7
 10
-1.4856739109
 20
3.0852820627
 30
0.0
  0
VERTEX
  5
3EA
  8
0
  6
CONTINUOUS
 62
     7
 10
-1.4820463532
 20
3.0853772145
 30
0.0
  0
VERTEX
  5
3EB
  8
0
  6
CONTINUOUS
 62
     7
 10
-1.4792387113
 20
3.085847793
 30
0.0
  0
SEQEND
  5
629
  8
0
  6
CONTINUOUS
 62
     7
  0
POLYLINE
  5
B6
  8
0
  6
CONTINUOUS
 62
     7
 66
     1
 10
0.0
 20
0.0
 30
0.0
 70
   128
  0
VERTEX
  5
3EC
  8
0
  6
CONTINUOUS
 62
     7
 10
-1.4741473871
 20
3.093201928
 30
0.0
  0
VERTEX
  5
3ED
  8
0
  6
CONTINUOUS
 62
     7
 10
-1.4748368085
 20
3.0970306214
 30
0.0
  0
VERTEX
  5
3EE
  8
0
  6
CONTINUOUS
 62
     7
 10
-1.4759425067
 20
3.0986462562
 30
0.0
  0
VERTEX
  5
3EF
  8
0
  6
CONTINUOUS
 62
     7
 10
-1.4774793432
 20
3.0998586936
 30
0.0
  0
VERTEX
  5
3F0
  8
0
  6
CONTINUOUS
 62
     7
 10
-1.4850937341
 20
3.1013480467
 30
0.0
  0
SEQEND
  5
62A
  8
0
  6
CONTINUOUS
 62
     7
  0
POLYLINE
  5
BA
  8
0
  6
CONTINUOUS
 62
     7
 66
     1
 10
0.0
 20
0.0
 30
0.0
 70
   128
  0
VERTEX
  5
3F1
  8
0
  6
CONTINUOUS
 62
     7
 10
-1.4672959762
 20
3.1341587474
 30
0.0
  0
VERTEX
  5
3F2
  8
0
  6
CONTINUOUS
 62
     7
 10
-1.4631471234
 20
3.1345523734
 30
0.0
  0
VERTEX
  5
3F3
  8
0
  6
CONTINUOUS
 62
     7
 10
-1.4593754956
 20
3.1362798925
 30
0.0
  0
VERTEX
  5
3F4
  8
0
  6
CONTINUOUS
 62
     7
 10
-1.4575089214
 20
3.1389449503
 30
0.0
  0
VERTEX
  5
3F5
  8
0
  6
CONTINUOUS
 62
     7
 10
-1.4569500254
 20
3.1421634957
 30
0.0
  0
SEQEND
  5
62B
  8
0
  6
CONTINUOUS
 62
     7
  0
POLYLINE
  5
BB
  8
0
  6
CONTINUOUS
 62
     7
 66
     1
 10
0.0
 20
0.0
 30
0.0
 70
   128
  0
VERTEX
  5
3F6
  8
0
  6
CONTINUOUS
 62
     7
 10
-1.3483351091
 20
3.1421634957
 30
0.0
  0
VERTEX
  5
3F7
  8
0
  6
CONTINUOUS
 62
     7
 10
-1.3487617484
 20
3.1448928345
 30
0.0
  0
VERTEX
  5
3F8
  8
0
  6
CONTINUOUS
 62
     7
 10
-1.3501284105
 20
3.1472852932
 30
0.0
  0
VERTEX
  5
3F9
  8
0
  6
CONTINUOUS
 62
     7
 10
-1.3523286845
 20
3.1489434721
 30
0.0
  0
VERTEX
  5
3FA
  8
0
  6
CONTINUOUS
 62
     7
 10
-1.3586874683
 20
3.1501964739
 30
0.0
  0
SEQEND
  5
62C
  8
0
  6
CONTINUOUS
 62
     7
  0
POLYLINE
  5
BF
  8
0
  6
CONTINUOUS
 62
     7
 66
     1
 10
0.0
 20
0.0
 30
0.0
 70
   128
  0
VERTEX
  5
3FB
  8
0
  6
CONTINUOUS
 62
     7
 10
-1.4365281859
 20
3.0306580817
 30
0.0
  0
VERTEX
  5
3FC
  8
0
  6
CONTINUOUS
 62
     7
 10
-1.4365020786
 20
3.0272818501
 30
0.0
  0
VERTEX
  5
3FD
  8
0
  6
CONTINUOUS
 62
     7
 10
-1.4359624556
 20
3.0246953323
 30
0.0
  0
SEQEND
  5
62D
  8
0
  6
CONTINUOUS
 62
     7
  0
POLYLINE
  5
C2
  8
0
  6
CONTINUOUS
 62
     7
 66
     1
 10
0.0
 20
0.0
 30
0.0
 70
   128
  0
VERTEX
  5
3FE
  8
0
  6
CONTINUOUS
 62
     7
 10
-1.4210561898
 20
3.0252893201
 30
0.0
  0
VERTEX
  5
3FF
  8
0
  6
CONTINUOUS
 62
     7
 10
-1.420495212
 20
3.028250419
 30
0.0
  0
VERTEX
  5
400
  8
0
  6
CONTINUOUS
 62
     7
 10
-1.4204622019
 20
3.0306352106
 30
0.0
  0
SEQEND
  5
62E
  8
0
  6
CONTINUOUS
 62
     7
  0
POLYLINE
  5
C5
  8
0
  6
CONTINUOUS
 62
     7
 66
     1
 10
0.0
 20
0.0
 30
0.0
 70
   128
  0
VERTEX
  5
401
  8
0
  6
CONTINUOUS
 62
     7
 10
-1.3770589946
 20
3.0852820627
 30
0.0
  0
VERTEX
  5
402
  8
0
  6
CONTINUOUS
 62
     7
 10
-1.3734314369
 20
3.0853772145
 30
0.0
  0
VERTEX
  5
403
  8
0
  6
CONTINUOUS
 62
     7
 10
-1.370623795
 20
3.085847793
 30
0.0
  0
SEQEND
  5
62F
  8
0
  6
CONTINUOUS
 62
     7
  0
POLYLINE
  5
C7
  8
0
  6
CONTINUOUS
 62
     7
 66
     1
 10
0.0
 20
0.0
 30
0.0
 70
   128
  0
VERTEX
  5
404
  8
0
  6
CONTINUOUS
 62
     7
 10
-1.3655324708
 20
3.093201928
 30
0.0
  0
VERTEX
  5
405
  8
0
  6
CONTINUOUS
 62
     7
 10
-1.3662218923
 20
3.0970306214
 30
0.0
  0
VERTEX
  5
406
  8
0
  6
CONTINUOUS
 62
     7
 10
-1.3673275905
 20
3.0986462562
 30
0.0
  0
VERTEX
  5
407
  8
0
  6
CONTINUOUS
 62
     7
 10
-1.3688644269
 20
3.0998586936
 30
0.0
  0
VERTEX
  5
408
  8
0
  6
CONTINUOUS
 62
     7
 10
-1.3764788179
 20
3.1013480467
 30
0.0
  0
SEQEND
  5
630
  8
0
  6
CONTINUOUS
 62
     7
  0
POLYLINE
  5
CB
  8
0
  6
CONTINUOUS
 62
     7
 66
     1
 10
0.0
 20
0.0
 30
0.0
 70
   128
  0
VERTEX
  5
409
  8
0
  6
CONTINUOUS
 62
     7
 10
-1.3586810599
 20
3.1341587474
 30
0.0
  0
VERTEX
  5
40A
  8
0
  6
CONTINUOUS
 62
     7
 10
-1.3545322071
 20
3.1345523734
 30
0.0
  0
VERTEX
  5
40B
  8
0
  6
CONTINUOUS
 62
     7
 10
-1.3507605793
 20
3.1362798925
 30
0.0
  0
VERTEX
  5
40C
  8
0
  6
CONTINUOUS
 62
     7
 10
-1.3488940051
 20
3.1389449503
 30
0.0
  0
VERTEX
  5
40D
  8
0
  6
CONTINUOUS
 62
     7
 10
-1.3483351091
 20
3.1421634957
 30
0.0
  0
SEQEND
  5
631
  8
0
  6
CONTINUOUS
 62
     7
  0
POLYLINE
  5
CF
  8
0
  6
CONTINUOUS
 62
     7
 66
     1
 10
0.0
 20
0.0
 30
0.0
 70
   128
  0
VERTEX
  5
40E
  8
0
  6
CONTINUOUS
 62
     7
 10
-0.7274068951
 20
3.8614439886
 30
0.0
  0
VERTEX
  5
40F
  8
0
  6
CONTINUOUS
 62
     7
 10
-0.7274265748
 20
3.8583877168
 30
0.0
  0
VERTEX
  5
410
  8
0
  6
CONTINUOUS
 62
     7
 10
-0.7272371567
 20
3.8559964485
 30
0.0
  0
SEQEND
  5
632
  8
0
  6
CONTINUOUS
 62
     7
  0
POLYLINE
  5
D1
  8
0
  6
CONTINUOUS
 62
     7
 66
     1
 10
0.0
 20
0.0
 30
0.0
 70
   128
  0
VERTEX
  5
411
  8
0
  6
CONTINUOUS
 62
     7
 10
-0.7192890339
 20
3.8501131405
 30
0.0
  0
VERTEX
  5
412
  8
0
  6
CONTINUOUS
 62
     7
 10
-0.7155591661
 20
3.8507169329
 30
0.0
  0
VERTEX
  5
413
  8
0
  6
CONTINUOUS
 62
     7
 10
-0.7139847249
 20
3.8517754595
 30
0.0
  0
VERTEX
  5
414
  8
0
  6
CONTINUOUS
 62
     7
 10
-0.7128244001
 20
3.8532836298
 30
0.0
  0
VERTEX
  5
415
  8
0
  6
CONTINUOUS
 62
     7
 10
-0.7113409111
 20
3.8606634957
 30
0.0
  0
SEQEND
  5
633
  8
0
  6
CONTINUOUS
 62
     7
  0
POLYLINE
  5
D5
  8
0
  6
CONTINUOUS
 62
     7
 66
     1
 10
0.0
 20
0.0
 30
0.0
 70
   128
  0
VERTEX
  5
416
  8
0
  6
CONTINUOUS
 62
     7
 10
-0.6576611675
 20
3.8552495442
 30
0.0
  0
VERTEX
  5
417
  8
0
  6
CONTINUOUS
 62
     7
 10
-0.6541094631
 20
3.851617268
 30
0.0
  0
VERTEX
  5
418
  8
0
  6
CONTINUOUS
 62
     7
 10
-0.6502167356
 20
3.8507919838
 30
0.0
  0
SEQEND
  5
634
  8
0
  6
CONTINUOUS
 62
     7
  0
POLYLINE
  5
D7
  8
0
  6
CONTINUOUS
 62
     7
 66
     1
 10
0.0
 20
0.0
 30
0.0
 70
   128
  0
VERTEX
  5
419
  8
0
  6
CONTINUOUS
 62
     7
 10
-0.6419857615
 20
3.8585138255
 30
0.0
  0
VERTEX
  5
41A
  8
0
  6
CONTINUOUS
 62
     7
 10
-0.6426890292
 20
3.8616444079
 30
0.0
  0
VERTEX
  5
41B
  8
0
  6
CONTINUOUS
 62
     7
 10
-0.6441071465
 20
3.8637465753
 30
0.0
  0
SEQEND
  5
635
  8
0
  6
CONTINUOUS
 62
     7
  0
POLYLINE
  5
D8
  8
0
  6
CONTINUOUS
 62
     7
 66
     1
 10
0.0
 20
0.0
 30
0.0
 70
   128
  0
VERTEX
  5
41C
  8
0
  6
CONTINUOUS
 62
     7
 10
-0.6441071465
 20
3.8637465753
 30
0.0
  0
VERTEX
  5
41D
  8
0
  6
CONTINUOUS
 62
     7
 10
-0.6445734923
 20
3.8642555969
 30
0.0
  0
VERTEX
  5
41E
  8
0
  6
CONTINUOUS
 62
     7
 10
-0.6448708452
 20
3.8647082699
 30
0.0
  0
SEQEND
  5
636
  8
0
  6
CONTINUOUS
 62
     7
  0
POLYLINE
  5
DC
  8
0
  6
CONTINUOUS
 62
     7
 66
     1
 10
0.0
 20
0.0
 30
0.0
 70
   128
  0
VERTEX
  5
41F
  8
0
  6
CONTINUOUS
 62
     7
 10
-0.5342193992
 20
3.9722766362
 30
0.0
  0
VERTEX
  5
420
  8
0
  6
CONTINUOUS
 62
     7
 10
-0.5345104881
 20
3.9749851185
 30
0.0
  0
VERTEX
  5
421
  8
0
  6
CONTINUOUS
 62
     7
 10
-0.5357386153
 20
3.9774113631
 30
0.0
  0
VERTEX
  5
422
  8
0
  6
CONTINUOUS
 62
     7
 10
-0.5378881029
 20
3.9790778921
 30
0.0
  0
VERTEX
  5
423
  8
0
  6
CONTINUOUS
 62
     7
 10
-0.5441757665
 20
3.9801964739
 30
0.0
  0
SEQEND
  5
637
  8
0
  6
CONTINUOUS
 62
     7
  0
POLYLINE
  5
DE
  8
0
  6
CONTINUOUS
 62
     7
 66
     1
 10
0.0
 20
0.0
 30
0.0
 70
   128
  0
VERTEX
  5
424
  8
0
  6
CONTINUOUS
 62
     7
 10
-0.6117657746
 20
3.9802247314
 30
0.0
  0
VERTEX
  5
425
  8
0
  6
CONTINUOUS
 62
     7
 10
-0.6167098648
 20
3.9798182133
 30
0.0
  0
VERTEX
  5
426
  8
0
  6
CONTINUOUS
 62
     7
 10
-0.6208755204
 20
3.9772922074
 30
0.0
  0
VERTEX
  5
427
  8
0
  6
CONTINUOUS
 62
     7
 10
-0.6222316813
 20
3.9736532738
 30
0.0
  0
VERTEX
  5
428
  8
0
  6
CONTINUOUS
 62
     7
 10
-0.6224407336
 20
3.9697592593
 30
0.0
  0
SEQEND
  5
638
  8
0
  6
CONTINUOUS
 62
     7
  0
POLYLINE
  5
E0
  8
0
  6
CONTINUOUS
 62
     7
 66
     1
 10
0.0
 20
0.0
 30
0.0
 70
   128
  0
VERTEX
  5
429
  8
0
  6
CONTINUOUS
 62
     7
 10
-0.622412476
 20
3.8607598419
 30
0.0
  0
VERTEX
  5
42A
  8
0
  6
CONTINUOUS
 62
     7
 10
-0.6221461022
 20
3.8558269222
 30
0.0
  0
VERTEX
  5
42B
  8
0
  6
CONTINUOUS
 62
     7
 10
-0.619682035
 20
3.8516554185
 30
0.0
  0
VERTEX
  5
42C
  8
0
  6
CONTINUOUS
 62
     7
 10
-0.6160580329
 20
3.8503042173
 30
0.0
  0
VERTEX
  5
42D
  8
0
  6
CONTINUOUS
 62
     7
 10
-0.6121732297
 20
3.8501131405
 30
0.0
  0
SEQEND
  5
639
  8
0
  6
CONTINUOUS
 62
     7
  0
POLYLINE
  5
E2
  8
0
  6
CONTINUOUS
 62
     7
 66
     1
 10
0.0
 20
0.0
 30
0.0
 70
   128
  0
VERTEX
  5
42E
  8
0
  6
CONTINUOUS
 62
     7
 10
-0.5449563699
 20
3.8501131405
 30
0.0
  0
VERTEX
  5
42F
  8
0
  6
CONTINUOUS
 62
     7
 10
-0.5370772977
 20
3.8514099458
 30
0.0
  0
VERTEX
  5
430
  8
0
  6
CONTINUOUS
 62
     7
 10
-0.5354071739
 20
3.8525354056
 30
0.0
  0
VERTEX
  5
431
  8
0
  6
CONTINUOUS
 62
     7
 10
-0.5341671567
 20
3.8541151182
 30
0.0
  0
VERTEX
  5
432
  8
0
  6
CONTINUOUS
 62
     7
 10
-0.5334274154
 20
3.8580329782
 30
0.0
  0
SEQEND
  5
63A
  8
0
  6
CONTINUOUS
 62
     7
  0
POLYLINE
  5
E4
  8
0
  6
CONTINUOUS
 62
     7
 66
     1
 10
0.0
 20
0.0
 30
0.0
 70
   128
  0
VERTEX
  5
433
  8
0
  6
CONTINUOUS
 62
     7
 10
-0.5387167356
 20
3.8655851091
 30
0.0
  0
VERTEX
  5
434
  8
0
  6
CONTINUOUS
 62
     7
 10
-0.541645492
 20
3.8661460108
 30
0.0
  0
VERTEX
  5
435
  8
0
  6
CONTINUOUS
 62
     7
 10
-0.5440060557
 20
3.8661790969
 30
0.0
  0
SEQEND
  5
63B
  8
0
  6
CONTINUOUS
 62
     7
  0
POLYLINE
  5
E8
  8
0
  6
CONTINUOUS
 62
     7
 66
     1
 10
0.0
 20
0.0
 30
0.0
 70
   128
  0
VERTEX
  5
436
  8
0
  6
CONTINUOUS
 62
     7
 10
-0.5621612449
 20
3.9152820627
 30
0.0
  0
VERTEX
  5
437
  8
0
  6
CONTINUOUS
 62
     7
 10
-0.5546544015
 20
3.9166607236
 30
0.0
  0
VERTEX
  5
438
  8
0
  6
CONTINUOUS
 62
     7
 10
-0.5531312314
 20
3.9178361895
 30
0.0
  0
VERTEX
  5
439
  8
0
  6
CONTINUOUS
 62
     7
 10
-0.5520481404
 20
3.9194287373
 30
0.0
  0
VERTEX
  5
43A
  8
0
  6
CONTINUOUS
 62
     7
 10
-0.5514167609
 20
3.923201928
 30
0.0
  0
SEQEND
  5
63C
  8
0
  6
CONTINUOUS
 62
     7
  0
POLYLINE
  5
E9
  8
0
  6
CONTINUOUS
 62
     7
 66
     1
 10
0.0
 20
0.0
 30
0.0
 70
   128
  0
VERTEX
  5
43B
  8
0
  6
CONTINUOUS
 62
     7
 10
-0.5514167609
 20
3.923201928
 30
0.0
  0
VERTEX
  5
43C
  8
0
  6
CONTINUOUS
 62
     7
 10
-0.5516948435
 20
3.9259516182
 30
0.0
  0
VERTEX
  5
43D
  8
0
  6
CONTINUOUS
 62
     7
 10
-0.5528955873
 20
3.9284349694
 30
0.0
  0
VERTEX
  5
43E
  8
0
  6
CONTINUOUS
 62
     7
 10
-0.5550415031
 20
3.9301634774
 30
0.0
  0
VERTEX
  5
43F
  8
0
  6
CONTINUOUS
 62
     7
 10
-0.5614014134
 20
3.9313480467
 30
0.0
  0
SEQEND
  5
63D
  8
0
  6
CONTINUOUS
 62
     7
  0
POLYLINE
  5
ED
  8
0
  6
CONTINUOUS
 62
     7
 66
     1
 10
0.0
 20
0.0
 30
0.0
 70
   128
  0
VERTEX
  5
440
  8
0
  6
CONTINUOUS
 62
     7
 10
-0.5449563699
 20
3.9641587474
 30
0.0
  0
VERTEX
  5
441
  8
0
  6
CONTINUOUS
 62
     7
 10
-0.5410963072
 20
3.9643893561
 30
0.0
  0
VERTEX
  5
442
  8
0
  6
CONTINUOUS
 62
     7
 10
-0.5374547529
 20
3.9656601241
 30
0.0
  0
VERTEX
  5
443
  8
0
  6
CONTINUOUS
 62
     7
 10
-0.5359465539
 20
3.966874573
 30
0.0
  0
VERTEX
  5
444
  8
0
  6
CONTINUOUS
 62
     7
 10
-0.5348865346
 20
3.9684898345
 30
0.0
  0
VERTEX
  5
445
  8
0
  6
CONTINUOUS
 62
     7
 10
-0.5342193992
 20
3.9722766362
 30
0.0
  0
SEQEND
  5
63E
  8
0
  6
CONTINUOUS
 62
     7
  0
POLYLINE
  5
EF
  8
0
  6
CONTINUOUS
 62
     7
 66
     1
 10
0.0
 20
0.0
 30
0.0
 70
   128
  0
VERTEX
  5
446
  8
0
  6
CONTINUOUS
 62
     7
 10
-0.4101042292
 20
3.8575521309
 30
0.0
  0
VERTEX
  5
447
  8
0
  6
CONTINUOUS
 62
     7
 10
-0.4104144171
 20
3.8600635808
 30
0.0
  0
VERTEX
  5
448
  8
0
  6
CONTINUOUS
 62
     7
 10
-0.410896213
 20
3.861992897
 30
0.0
  0
SEQEND
  5
63F
  8
0
  6
CONTINUOUS
 62
     7
  0
POLYLINE
  5
F1
  8
0
  6
CONTINUOUS
 62
     7
 66
     1
 10
0.0
 20
0.0
 30
0.0
 70
   128
  0
VERTEX
  5
449
  8
0
  6
CONTINUOUS
 62
     7
 10
-0.4531142069
 20
3.9722505609
 30
0.0
  0
VERTEX
  5
44A
  8
0
  6
CONTINUOUS
 62
     7
 10
-0.4568526833
 20
3.9785861346
 30
0.0
  0
VERTEX
  5
44B
  8
0
  6
CONTINUOUS
 62
     7
 10
-0.4594270044
 20
3.979901069
 30
0.0
  0
VERTEX
  5
44C
  8
0
  6
CONTINUOUS
 62
     7
 10
-0.4623185874
 20
3.9801964739
 30
0.0
  0
SEQEND
  5
640
  8
0
  6
CONTINUOUS
 62
     7
  0
POLYLINE
  5
F4
  8
0
  6
CONTINUOUS
 62
     7
 66
     1
 10
0.0
 20
0.0
 30
0.0
 70
   128
  0
VERTEX
  5
44D
  8
0
  6
CONTINUOUS
 62
     7
 10
-0.5121582097
 20
3.8633473517
 30
0.0
  0
VERTEX
  5
44E
  8
0
  6
CONTINUOUS
 62
     7
 10
-0.5132938703
 20
3.8601605183
 30
0.0
  0
VERTEX
  5
44F
  8
0
  6
CONTINUOUS
 62
     7
 10
-0.5137409619
 20
3.8575521309
 30
0.0
  0
SEQEND
  5
641
  8
0
  6
CONTINUOUS
 62
     7
  0
POLYLINE
  5
FB
  8
0
  6
CONTINUOUS
 62
     7
 66
     1
 10
0.0
 20
0.0
 30
0.0
 70
   128
  0
VERTEX
  5
450
  8
0
  6
CONTINUOUS
 62
     7
 10
-0.3907006546
 20
3.8619213003
 30
0.0
  0
VERTEX
  5
451
  8
0
  6
CONTINUOUS
 62
     7
 10
-0.3905425636
 20
3.8567406492
 30
0.0
  0
VERTEX
  5
452
  8
0
  6
CONTINUOUS
 62
     7
 10
-0.3884022253
 20
3.8521066167
 30
0.0
  0
VERTEX
  5
453
  8
0
  6
CONTINUOUS
 62
     7
 10
-0.3847224208
 20
3.8504239773
 30
0.0
  0
VERTEX
  5
454
  8
0
  6
CONTINUOUS
 62
     7
 10
-0.3806594043
 20
3.8501131405
 30
0.0
  0
SEQEND
  5
642
  8
0
  6
CONTINUOUS
 62
     7
  0
POLYLINE
  5
FE
  8
0
  6
CONTINUOUS
 62
     7
 66
     1
 10
0.0
 20
0.0
 30
0.0
 70
   128
  0
VERTEX
  5
455
  8
0
  6
CONTINUOUS
 62
     7
 10
-0.3109365479
 20
3.8769557331
 30
0.0
  0
VERTEX
  5
456
  8
0
  6
CONTINUOUS
 62
     7
 10
-0.3034453799
 20
3.8981552227
 30
0.0
  0
VERTEX
  5
457
  8
0
  6
CONTINUOUS
 62
     7
 10
-0.3022530116
 20
3.915847793
 30
0.0
  0
SEQEND
  5
643
  8
0
  6
CONTINUOUS
 62
     7
  0
POLYLINE
  5
100
  8
0
  6
CONTINUOUS
 62
     7
 66
     1
 10
0.0
 20
0.0
 30
0.0
 70
   128
  0
VERTEX
  5
458
  8
0
  6
CONTINUOUS
 62
     7
 10
-0.3206666341
 20
3.9670156012
 30
0.0
  0
VERTEX
  5
459
  8
0
  6
CONTINUOUS
 62
     7
 10
-0.3377006052
 20
3.9778226758
 30
0.0
  0
VERTEX
  5
45A
  8
0
  6
CONTINUOUS
 62
     7
 10
-0.3534491049
 20
3.9801964739
 30
0.0
  0
SEQEND
  5
644
  8
0
  6
CONTINUOUS
 62
     7
  0
POLYLINE
  5
105
  8
0
  6
CONTINUOUS
 62
     7
 66
     1
 10
0.0
 20
0.0
 30
0.0
 70
   128
  0
VERTEX
  5
45B
  8
0
  6
CONTINUOUS
 62
     7
 10
-0.2828494093
 20
3.9724746322
 30
0.0
  0
VERTEX
  5
45C
  8
0
  6
CONTINUOUS
 62
     7
 10
-0.2821435724
 20
3.9696205546
 30
0.0
  0
VERTEX
  5
45D
  8
0
  6
CONTINUOUS
 62
     7
 10
-0.281095731
 20
3.9675247336
 30
0.0
  0
SEQEND
  5
645
  8
0
  6
CONTINUOUS
 62
     7
  0
POLYLINE
  5
10A
  8
0
  6
CONTINUOUS
 62
     7
 66
     1
 10
0.0
 20
0.0
 30
0.0
 70
   128
  0
VERTEX
  5
45E
  8
0
  6
CONTINUOUS
 62
     7
 10
-0.237762905
 20
3.8501131405
 30
0.0
  0
VERTEX
  5
45F
  8
0
  6
CONTINUOUS
 62
     7
 10
-0.233234675
 20
3.8510310082
 30
0.0
  0
VERTEX
  5
460
  8
0
  6
CONTINUOUS
 62
     7
 10
-0.2317189672
 20
3.8520564525
 30
0.0
  0
VERTEX
  5
461
  8
0
  6
CONTINUOUS
 62
     7
 10
-0.230606766
 20
3.8535073567
 30
0.0
  0
SEQEND
  5
646
  8
0
  6
CONTINUOUS
 62
     7
  0
POLYLINE
  5
10B
  8
0
  6
CONTINUOUS
 62
     7
 66
     1
 10
0.0
 20
0.0
 30
0.0
 70
   128
  0
VERTEX
  5
462
  8
0
  6
CONTINUOUS
 62
     7
 10
-0.230606766
 20
3.8535073567
 30
0.0
  0
VERTEX
  5
463
  8
0
  6
CONTINUOUS
 62
     7
 10
-0.2298649905
 20
3.8569983186
 30
0.0
  0
VERTEX
  5
464
  8
0
  6
CONTINUOUS
 62
     7
 10
-0.2298147823
 20
3.8598149417
 30
0.0
  0
SEQEND
  5
647
  8
0
  6
CONTINUOUS
 62
     7
  0
POLYLINE
  5
10F
  8
0
  6
CONTINUOUS
 62
     7
 66
     1
 10
0.0
 20
0.0
 30
0.0
 70
   128
  0
VERTEX
  5
465
  8
0
  6
CONTINUOUS
 62
     7
 10
-0.1956005422
 20
3.9665633429
 30
0.0
  0
VERTEX
  5
466
  8
0
  6
CONTINUOUS
 62
     7
 10
-0.1950295164
 20
3.9675309622
 30
0.0
  0
VERTEX
  5
467
  8
0
  6
CONTINUOUS
 62
     7
 10
-0.194628075
 20
3.9683167174
 30
0.0
  0
SEQEND
  5
648
  8
0
  6
CONTINUOUS
 62
     7
  0
POLYLINE
  5
110
  8
0
  6
CONTINUOUS
 62
     7
 66
     1
 10
0.0
 20
0.0
 30
0.0
 70
   128
  0
VERTEX
  5
468
  8
0
  6
CONTINUOUS
 62
     7
 10
-0.194628075
 20
3.9683167174
 30
0.0
  0
VERTEX
  5
469
  8
0
  6
CONTINUOUS
 62
     7
 10
-0.1935582324
 20
3.9706635277
 30
0.0
  0
VERTEX
  5
46A
  8
0
  6
CONTINUOUS
 62
     7
 10
-0.1932703885
 20
3.9726726281
 30
0.0
  0
SEQEND
  5
649
  8
0
  6
CONTINUOUS
 62
     7
  0
POLYLINE
  5
115
  8
0
  6
CONTINUOUS
 62
     7
 66
     1
 10
0.0
 20
0.0
 30
0.0
 70
   128
  0
VERTEX
  5
46B
  8
0
  6
CONTINUOUS
 62
     7
 10
-0.2658227804
 20
3.9738636422
 30
0.0
  0
VERTEX
  5
46C
  8
0
  6
CONTINUOUS
 62
     7
 10
-0.2697734931
 20
3.978776195
 30
0.0
  0
VERTEX
  5
46D
  8
0
  6
CONTINUOUS
 62
     7
 10
-0.2719777591
 20
3.979929843
 30
0.0
  0
VERTEX
  5
46E
  8
0
  6
CONTINUOUS
 62
     7
 10
-0.2744487244
 20
3.9801964739
 30
0.0
  0
SEQEND
  5
64A
  8
0
  6
CONTINUOUS
 62
     7
  0
POLYLINE
  5
117
  8
0
  6
CONTINUOUS
 62
     7
 66
     1
 10
0.0
 20
0.0
 30
0.0
 70
   128
  0
VERTEX
  5
46F
  8
0
  6
CONTINUOUS
 62
     7
 10
-1.0631582953
 20
4.2607887584
 30
0.0
  0
VERTEX
  5
470
  8
0
  6
CONTINUOUS
 62
     7
 10
-1.0636014208
 20
4.264376544
 30
0.0
  0
VERTEX
  5
471
  8
0
  6
CONTINUOUS
 62
     7
 10
-1.0642897007
 20
4.26713271
 30
0.0
  0
SEQEND
  5
64B
  8
0
  6
CONTINUOUS
 62
     7
  0
POLYLINE
  5
119
  8
0
  6
CONTINUOUS
 62
     7
 66
     1
 10
0.0
 20
0.0
 30
0.0
 70
   128
  0
VERTEX
  5
472
  8
0
  6
CONTINUOUS
 62
     7
 10
-1.1246011205
 20
4.4246436584
 30
0.0
  0
VERTEX
  5
473
  8
0
  6
CONTINUOUS
 62
     7
 10
-1.129941801
 20
4.433694478
 30
0.0
  0
VERTEX
  5
474
  8
0
  6
CONTINUOUS
 62
     7
 10
-1.1336194027
 20
4.4355729557
 30
0.0
  0
VERTEX
  5
475
  8
0
  6
CONTINUOUS
 62
     7
 10
-1.1377502356
 20
4.4359949627
 30
0.0
  0
SEQEND
  5
64C
  8
0
  6
CONTINUOUS
 62
     7
  0
POLYLINE
  5
11C
  8
0
  6
CONTINUOUS
 62
     7
 66
     1
 10
0.0
 20
0.0
 30
0.0
 70
   128
  0
VERTEX
  5
476
  8
0
  6
CONTINUOUS
 62
     7
 10
-1.208949696
 20
4.2690676452
 30
0.0
  0
VERTEX
  5
477
  8
0
  6
CONTINUOUS
 62
     7
 10
-1.2105720682
 20
4.2645150261
 30
0.0
  0
VERTEX
  5
478
  8
0
  6
CONTINUOUS
 62
     7
 10
-1.2112107705
 20
4.2607887584
 30
0.0
  0
SEQEND
  5
64D
  8
0
  6
CONTINUOUS
 62
     7
  0
POLYLINE
  5
125
  8
0
  6
CONTINUOUS
 62
     7
 66
     1
 10
0.0
 20
0.0
 30
0.0
 70
   128
  0
VERTEX
  5
479
  8
0
  6
CONTINUOUS
 62
     7
 10
-0.9488055374
 20
4.4326815612
 30
0.0
  0
VERTEX
  5
47A
  8
0
  6
CONTINUOUS
 62
     7
 10
-0.9613248496
 20
4.4355838017
 30
0.0
  0
VERTEX
  5
47B
  8
0
  6
CONTINUOUS
 62
     7
 10
-0.971433645
 20
4.4359949627
 30
0.0
  0
SEQEND
  5
64E
  8
0
  6
CONTINUOUS
 62
     7
  0
POLYLINE
  5
127
  8
0
  6
CONTINUOUS
 62
     7
 66
     1
 10
0.0
 20
0.0
 30
0.0
 70
   128
  0
VERTEX
  5
47C
  8
0
  6
CONTINUOUS
 62
     7
 10
-1.0169108772
 20
4.4360353305
 30
0.0
  0
VERTEX
  5
47D
  8
0
  6
CONTINUOUS
 62
     7
 10
-1.0252880219
 20
4.4355398834
 30
0.0
  0
VERTEX
  5
47E
  8
0
  6
CONTINUOUS
 62
     7
 10
-1.032627002
 20
4.4317867619
 30
0.0
  0
VERTEX
  5
47F
  8
0
  6
CONTINUOUS
 62
     7
 10
-1.0351371488
 20
4.4257318886
 30
0.0
  0
VERTEX
  5
480
  8
0
  6
CONTINUOUS
 62
     7
 10
-1.0354792709
 20
4.419145104
 30
0.0
  0
SEQEND
  5
64F
  8
0
  6
CONTINUOUS
 62
     7
  0
POLYLINE
  5
12A
  8
0
  6
CONTINUOUS
 62
     7
 66
     1
 10
0.0
 20
0.0
 30
0.0
 70
   128
  0
VERTEX
  5
481
  8
0
  6
CONTINUOUS
 62
     7
 10
-1.0238419584
 20
4.2501616293
 30
0.0
  0
VERTEX
  5
482
  8
0
  6
CONTINUOUS
 62
     7
 10
-1.0185689636
 20
4.2509368381
 30
0.0
  0
VERTEX
  5
483
  8
0
  6
CONTINUOUS
 62
     7
 10
-1.0162264471
 20
4.2522253386
 30
0.0
  0
VERTEX
  5
484
  8
0
  6
CONTINUOUS
 62
     7
 10
-1.0144984442
 20
4.2542586211
 30
0.0
  0
VERTEX
  5
485
  8
0
  6
CONTINUOUS
 62
     7
 10
-1.0124874973
 20
4.2646678626
 30
0.0
  0
SEQEND
  5
650
  8
0
  6
CONTINUOUS
 62
     7
  0
POLYLINE
  5
12D
  8
0
  6
CONTINUOUS
 62
     7
 66
     1
 10
0.0
 20
0.0
 30
0.0
 70
   128
  0
VERTEX
  5
486
  8
0
  6
CONTINUOUS
 62
     7
 10
-0.9728441135
 20
4.3277436729
 30
0.0
  0
VERTEX
  5
487
  8
0
  6
CONTINUOUS
 62
     7
 10
-0.9629799418
 20
4.3279754711
 30
0.0
  0
VERTEX
  5
488
  8
0
  6
CONTINUOUS
 62
     7
 10
-0.9553111184
 20
4.3290771545
 30
0.0
  0
SEQEND
  5
651
  8
0
  6
CONTINUOUS
 62
     7
  0
POLYLINE
  5
12F
  8
0
  6
CONTINUOUS
 62
     7
 66
     1
 10
0.0
 20
0.0
 30
0.0
 70
   128
  0
VERTEX
  5
489
  8
0
  6
CONTINUOUS
 62
     7
 10
-0.8854468757
 20
4.3183979378
 30
0.0
  0
VERTEX
  5
48A
  8
0
  6
CONTINUOUS
 62
     7
 10
-0.8846080472
 20
4.3028638285
 30
0.0
  0
VERTEX
  5
48B
  8
0
  6
CONTINUOUS
 62
     7
 10
-0.8813252881
 20
4.2910942596
 30
0.0
  0
SEQEND
  5
652
  8
0
  6
CONTINUOUS
 62
     7
  0
POLYLINE
  5
133
  8
0
  6
CONTINUOUS
 62
     7
 66
     1
 10
0.0
 20
0.0
 30
0.0
 70
   128
  0
VERTEX
  5
48C
  8
0
  6
CONTINUOUS
 62
     7
 10
-0.7564666626
 20
4.4207812854
 30
0.0
  0
VERTEX
  5
48D
  8
0
  6
CONTINUOUS
 62
     7
 10
-0.7584044225
 20
4.4315102937
 30
0.0
  0
VERTEX
  5
48E
  8
0
  6
CONTINUOUS
 62
     7
 10
-0.7601047219
 20
4.4336542035
 30
0.0
  0
VERTEX
  5
48F
  8
0
  6
CONTINUOUS
 62
     7
 10
-0.7624226148
 20
4.4351319909
 30
0.0
  0
VERTEX
  5
490
  8
0
  6
CONTINUOUS
 62
     7
 10
-0.7678210843
 20
4.4359949627
 30
0.0
  0
SEQEND
  5
653
  8
0
  6
CONTINUOUS
 62
     7
  0
POLYLINE
  5
134
  8
0
  6
CONTINUOUS
 62
     7
 66
     1
 10
0.0
 20
0.0
 30
0.0
 70
   128
  0
VERTEX
  5
491
  8
0
  6
CONTINUOUS
 62
     7
 10
-0.7678210843
 20
4.4359949627
 30
0.0
  0
VERTEX
  5
492
  8
0
  6
CONTINUOUS
 62
     7
 10
-0.7732417284
 20
4.4350843971
 30
0.0
  0
VERTEX
  5
493
  8
0
  6
CONTINUOUS
 62
     7
 10
-0.7755919555
 20
4.4336372885
 30
0.0
  0
VERTEX
  5
494
  8
0
  6
CONTINUOUS
 62
     7
 10
-0.7773585612
 20
4.4315126657
 30
0.0
  0
VERTEX
  5
495
  8
0
  6
CONTINUOUS
 62
     7
 10
-0.7790578052
 20
4.426270329
 30
0.0
  0
VERTEX
  5
496
  8
0
  6
CONTINUOUS
 62
     7
 10
-0.7794583968
 20
4.4207613974
 30
0.0
  0
SEQEND
  5
654
  8
0
  6
CONTINUOUS
 62
     7
  0
POLYLINE
  5
136
  8
0
  6
CONTINUOUS
 62
     7
 66
     1
 10
0.0
 20
0.0
 30
0.0
 70
   128
  0
VERTEX
  5
497
  8
0
  6
CONTINUOUS
 62
     7
 10
-0.7794180683
 20
4.3198043025
 30
0.0
  0
VERTEX
  5
498
  8
0
  6
CONTINUOUS
 62
     7
 10
-0.77991558
 20
4.3079626384
 30
0.0
  0
VERTEX
  5
499
  8
0
  6
CONTINUOUS
 62
     7
 10
-0.7822465029
 20
4.2989736899
 30
0.0
  0
SEQEND
  5
655
  8
0
  6
CONTINUOUS
 62
     7
  0
POLYLINE
  5
139
  8
0
  6
CONTINUOUS
 62
     7
 66
     1
 10
0.0
 20
0.0
 30
0.0
 70
   128
  0
VERTEX
  5
49A
  8
0
  6
CONTINUOUS
 62
     7
 10
-0.8574445532
 20
4.2944884758
 30
0.0
  0
VERTEX
  5
49B
  8
0
  6
CONTINUOUS
 62
     7
 10
-0.8620452404
 20
4.3078023974
 30
0.0
  0
VERTEX
  5
49C
  8
0
  6
CONTINUOUS
 62
     7
 10
-0.86249547
 20
4.3189349134
 30
0.0
  0
SEQEND
  5
656
  8
0
  6
CONTINUOUS
 62
     7
  0
POLYLINE
  5
13B
  8
0
  6
CONTINUOUS
 62
     7
 66
     1
 10
0.0
 20
0.0
 30
0.0
 70
   128
  0
VERTEX
  5
49D
  8
0
  6
CONTINUOUS
 62
     7
 10
-0.86249547
 20
4.4221876501
 30
0.0
  0
VERTEX
  5
49E
  8
0
  6
CONTINUOUS
 62
     7
 10
-0.8630375075
 20
4.4279306075
 30
0.0
  0
VERTEX
  5
49F
  8
0
  6
CONTINUOUS
 62
     7
 10
-0.8655506189
 20
4.4330771706
 30
0.0
  0
VERTEX
  5
4A0
  8
0
  6
CONTINUOUS
 62
     7
 10
-0.869364548
 20
4.4354523291
 30
0.0
  0
VERTEX
  5
4A1
  8
0
  6
CONTINUOUS
 62
     7
 10
-0.8738499311
 20
4.4359949627
 30
0.0
  0
SEQEND
  5
657
  8
0
  6
CONTINUOUS
 62
     7
  0
POLYLINE
  5
13C
  8
0
  6
CONTINUOUS
 62
     7
 66
     1
 10
0.0
 20
0.0
 30
0.0
 70
   128
  0
VERTEX
  5
4A2
  8
0
  6
CONTINUOUS
 62
     7
 10
-0.8738499311
 20
4.4359949627
 30
0.0
  0
VERTEX
  5
4A3
  8
0
  6
CONTINUOUS
 62
     7
 10
-0.8793636222
 20
4.434984231
 30
0.0
  0
VERTEX
  5
4A4
  8
0
  6
CONTINUOUS
 62
     7
 10
-0.8835086915
 20
4.4312853172
 30
0.0
  0
VERTEX
  5
4A5
  8
0
  6
CONTINUOUS
 62
     7
 10
-0.8854872436
 20
4.4227413568
 30
0.0
  0
SEQEND
  5
658
  8
0
  6
CONTINUOUS
 62
     7
  0
POLYLINE
  5
13D
  8
0
  6
CONTINUOUS
 62
     7
 66
     1
 10
0.0
 20
0.0
 30
0.0
 70
   128
  0
VERTEX
  5
4A6
  8
0
  6
CONTINUOUS
 62
     7
 10
-1.2199067732
 20
0.7752711821
 30
0.0
  0
VERTEX
  5
4A7
  8
0
  6
CONTINUOUS
 62
     7
 10
-1.2167304388
 20
0.7453962103
 30
0.0
  0
VERTEX
  5
4A8
  8
0
  6
CONTINUOUS
 62
     7
 10
-1.207235033
 20
0.7238770928
 30
0.0
  0
SEQEND
  5
659
  8
0
  6
CONTINUOUS
 62
     7
  0
POLYLINE
  5
13E
  8
0
  6
CONTINUOUS
 62
     7
 66
     1
 10
0.0
 20
0.0
 30
0.0
 70
   128
  0
VERTEX
  5
4A9
  8
0
  6
CONTINUOUS
 62
     7
 10
-1.207235033
 20
0.7238770928
 30
0.0
  0
VERTEX
  5
4AA
  8
0
  6
CONTINUOUS
 62
     7
 10
-1.1903944461
 20
0.7113027453
 30
0.0
  0
VERTEX
  5
4AB
  8
0
  6
CONTINUOUS
 62
     7
 10
-1.1742545662
 20
0.7076131405
 30
0.0
  0
SEQEND
  5
65A
  8
0
  6
CONTINUOUS
 62
     7
  0
POLYLINE
  5
13F
  8
0
  6
CONTINUOUS
 62
     7
 66
     1
 10
0.0
 20
0.0
 30
0.0
 70
   128
  0
VERTEX
  5
4AC
  8
0
  6
CONTINUOUS
 62
     7
 10
-1.1742545662
 20
0.7076131405
 30
0.0
  0
VERTEX
  5
4AD
  8
0
  6
CONTINUOUS
 62
     7
 10
-1.1578727793
 20
0.7114093382
 30
0.0
  0
VERTEX
  5
4AE
  8
0
  6
CONTINUOUS
 62
     7
 10
-1.1468462709
 20
0.7187574835
 30
0.0
  0
SEQEND
  5
65B
  8
0
  6
CONTINUOUS
 62
     7
  0
POLYLINE
  5
142
  8
0
  6
CONTINUOUS
 62
     7
 66
     1
 10
0.0
 20
0.0
 30
0.0
 70
   128
  0
VERTEX
  5
4AF
  8
0
  6
CONTINUOUS
 62
     7
 10
-1.1487979452
 20
0.8298897768
 30
0.0
  0
VERTEX
  5
4B0
  8
0
  6
CONTINUOUS
 62
     7
 10
-1.1625185903
 20
0.8374248692
 30
0.0
  0
VERTEX
  5
4B1
  8
0
  6
CONTINUOUS
 62
     7
 10
-1.1746505581
 20
0.8395067225
 30
0.0
  0
SEQEND
  5
65C
  8
0
  6
CONTINUOUS
 62
     7
  0
POLYLINE
  5
144
  8
0
  6
CONTINUOUS
 62
     7
 66
     1
 10
0.0
 20
0.0
 30
0.0
 70
   128
  0
VERTEX
  5
4B2
  8
0
  6
CONTINUOUS
 62
     7
 10
-1.1746362774
 20
0.83953498
 30
0.0
  0
VERTEX
  5
4B3
  8
0
  6
CONTINUOUS
 62
     7
 10
-1.1925464649
 20
0.8349509974
 30
0.0
  0
VERTEX
  5
4B4
  8
0
  6
CONTINUOUS
 62
     7
 10
-1.2044065195
 20
0.8264672755
 30
0.0
  0
SEQEND
  5
65D
  8
0
  6
CONTINUOUS
 62
     7
  0
POLYLINE
  5
146
  8
0
  6
CONTINUOUS
 62
     7
 66
     1
 10
0.0
 20
0.0
 30
0.0
 70
   128
  0
VERTEX
  5
4B5
  8
0
  6
CONTINUOUS
 62
     7
 10
-1.0194500254
 20
0.8296634957
 30
0.0
  0
VERTEX
  5
4B6
  8
0
  6
CONTINUOUS
 62
     7
 10
-1.0198766647
 20
0.8323928345
 30
0.0
  0
VERTEX
  5
4B7
  8
0
  6
CONTINUOUS
 62
     7
 10
-1.0212433267
 20
0.8347852932
 30
0.0
  0
VERTEX
  5
4B8
  8
0
  6
CONTINUOUS
 62
     7
 10
-1.0234436008
 20
0.8364434721
 30
0.0
  0
VERTEX
  5
4B9
  8
0
  6
CONTINUOUS
 62
     7
 10
-1.0298023846
 20
0.8376964739
 30
0.0
  0
SEQEND
  5
65E
  8
0
  6
CONTINUOUS
 62
     7
  0
POLYLINE
  5
14A
  8
0
  6
CONTINUOUS
 62
     7
 66
     1
 10
0.0
 20
0.0
 30
0.0
 70
   128
  0
VERTEX
  5
4BA
  8
0
  6
CONTINUOUS
 62
     7
 10
-1.1076431022
 20
0.7181580817
 30
0.0
  0
VERTEX
  5
4BB
  8
0
  6
CONTINUOUS
 62
     7
 10
-1.1076169949
 20
0.7147818501
 30
0.0
  0
VERTEX
  5
4BC
  8
0
  6
CONTINUOUS
 62
     7
 10
-1.1070773719
 20
0.7121953323
 30
0.0
  0
SEQEND
  5
65F
  8
0
  6
CONTINUOUS
 62
     7
  0
POLYLINE
  5
14D
  8
0
  6
CONTINUOUS
 62
     7
 66
     1
 10
0.0
 20
0.0
 30
0.0
 70
   128
  0
VERTEX
  5
4BD
  8
0
  6
CONTINUOUS
 62
     7
 10
-1.092171106
 20
0.7127893201
 30
0.0
  0
VERTEX
  5
4BE
  8
0
  6
CONTINUOUS
 62
     7
 10
-1.0916101283
 20
0.715750419
 30
0.0
  0
VERTEX
  5
4BF
  8
0
  6
CONTINUOUS
 62
     7
 10
-1.0915771182
 20
0.7181352106
 30
0.0
  0
SEQEND
  5
660
  8
0
  6
CONTINUOUS
 62
     7
  0
POLYLINE
  5
150
  8
0
  6
CONTINUOUS
 62
     7
 66
     1
 10
0.0
 20
0.0
 30
0.0
 70
   128
  0
VERTEX
  5
4C0
  8
0
  6
CONTINUOUS
 62
     7
 10
-1.0481739109
 20
0.7727820627
 30
0.0
  0
VERTEX
  5
4C1
  8
0
  6
CONTINUOUS
 62
     7
 10
-1.0445463532
 20
0.7728772145
 30
0.0
  0
VERTEX
  5
4C2
  8
0
  6
CONTINUOUS
 62
     7
 10
-1.0417387113
 20
0.773347793
 30
0.0
  0
SEQEND
  5
661
  8
0
  6
CONTINUOUS
 62
     7
  0
POLYLINE
  5
152
  8
0
  6
CONTINUOUS
 62
     7
 66
     1
 10
0.0
 20
0.0
 30
0.0
 70
   128
  0
VERTEX
  5
4C3
  8
0
  6
CONTINUOUS
 62
     7
 10
-1.0366473871
 20
0.780701928
 30
0.0
  0
VERTEX
  5
4C4
  8
0
  6
CONTINUOUS
 62
     7
 10
-1.0373368085
 20
0.7845306214
 30
0.0
  0
VERTEX
  5
4C5
  8
0
  6
CONTINUOUS
 62
     7
 10
-1.0384425067
 20
0.7861462562
 30
0.0
  0
VERTEX
  5
4C6
  8
0
  6
CONTINUOUS
 62
     7
 10
-1.0399793432
 20
0.7873586936
 30
0.0
  0
VERTEX
  5
4C7
  8
0
  6
CONTINUOUS
 62
     7
 10
-1.0475937341
 20
0.7888480467
 30
0.0
  0
SEQEND
  5
662
  8
0
  6
CONTINUOUS
 62
     7
  0
POLYLINE
  5
156
  8
0
  6
CONTINUOUS
 62
     7
 66
     1
 10
0.0
 20
0.0
 30
0.0
 70
   128
  0
VERTEX
  5
4C8
  8
0
  6
CONTINUOUS
 62
     7
 10
-1.0297959762
 20
0.8216587474
 30
0.0
  0
VERTEX
  5
4C9
  8
0
  6
CONTINUOUS
 62
     7
 10
-1.0256471234
 20
0.8220523734
 30
0.0
  0
VERTEX
  5
4CA
  8
0
  6
CONTINUOUS
 62
     7
 10
-1.0218754956
 20
0.8237798925
 30
0.0
  0
VERTEX
  5
4CB
  8
0
  6
CONTINUOUS
 62
     7
 10
-1.0200089214
 20
0.8264449503
 30
0.0
  0
VERTEX
  5
4CC
  8
0
  6
CONTINUOUS
 62
     7
 10
-1.0194500254
 20
0.8296634957
 30
0.0
  0
SEQEND
  5
663
  8
0
  6
CONTINUOUS
 62
     7
  0
POLYLINE
  5
157
  8
0
  6
CONTINUOUS
 62
     7
 66
     1
 10
0.0
 20
0.0
 30
0.0
 70
   128
  0
VERTEX
  5
4CD
  8
0
  6
CONTINUOUS
 62
     7
 10
-0.9108351091
 20
0.8296634957
 30
0.0
  0
VERTEX
  5
4CE
  8
0
  6
CONTINUOUS
 62
     7
 10
-0.9112617484
 20
0.8323928345
 30
0.0
  0
VERTEX
  5
4CF
  8
0
  6
CONTINUOUS
 62
     7
 10
-0.9126284105
 20
0.8347852932
 30
0.0
  0
VERTEX
  5
4D0
  8
0
  6
CONTINUOUS
 62
     7
 10
-0.9148286845
 20
0.8364434721
 30
0.0
  0
VERTEX
  5
4D1
  8
0
  6
CONTINUOUS
 62
     7
 10
-0.9211874683
 20
0.8376964739
 30
0.0
  0
SEQEND
  5
664
  8
0
  6
CONTINUOUS
 62
     7
  0
POLYLINE
  5
15B
  8
0
  6
CONTINUOUS
 62
     7
 66
     1
 10
0.0
 20
0.0
 30
0.0
 70
   128
  0
VERTEX
  5
4D2
  8
0
  6
CONTINUOUS
 62
     7
 10
-0.9990281859
 20
0.7181580817
 30
0.0
  0
VERTEX
  5
4D3
  8
0
  6
CONTINUOUS
 62
     7
 10
-0.9990020786
 20
0.7147818501
 30
0.0
  0
VERTEX
  5
4D4
  8
0
  6
CONTINUOUS
 62
     7
 10
-0.9984624556
 20
0.7121953323
 30
0.0
  0
SEQEND
  5
665
  8
0
  6
CONTINUOUS
 62
     7
  0
POLYLINE
  5
15E
  8
0
  6
CONTINUOUS
 62
     7
 66
     1
 10
0.0
 20
0.0
 30
0.0
 70
   128
  0
VERTEX
  5
4D5
  8
0
  6
CONTINUOUS
 62
     7
 10
-0.9835561898
 20
0.7127893201
 30
0.0
  0
VERTEX
  5
4D6
  8
0
  6
CONTINUOUS
 62
     7
 10
-0.982995212
 20
0.715750419
 30
0.0
  0
VERTEX
  5
4D7
  8
0
  6
CONTINUOUS
 62
     7
 10
-0.9829622019
 20
0.7181352106
 30
0.0
  0
SEQEND
  5
666
  8
0
  6
CONTINUOUS
 62
     7
  0
POLYLINE
  5
161
  8
0
  6
CONTINUOUS
 62
     7
 66
     1
 10
0.0
 20
0.0
 30
0.0
 70
   128
  0
VERTEX
  5
4D8
  8
0
  6
CONTINUOUS
 62
     7
 10
-0.9395589946
 20
0.7727820627
 30
0.0
  0
VERTEX
  5
4D9
  8
0
  6
CONTINUOUS
 62
     7
 10
-0.9359314369
 20
0.7728772145
 30
0.0
  0
VERTEX
  5
4DA
  8
0
  6
CONTINUOUS
 62
     7
 10
-0.933123795
 20
0.773347793
 30
0.0
  0
SEQEND
  5
667
  8
0
  6
CONTINUOUS
 62
     7
  0
POLYLINE
  5
163
  8
0
  6
CONTINUOUS
 62
     7
 66
     1
 10
0.0
 20
0.0
 30
0.0
 70
   128
  0
VERTEX
  5
4DB
  8
0
  6
CONTINUOUS
 62
     7
 10
-0.9280324708
 20
0.780701928
 30
0.0
  0
VERTEX
  5
4DC
  8
0
  6
CONTINUOUS
 62
     7
 10
-0.9287218923
 20
0.7845306214
 30
0.0
  0
VERTEX
  5
4DD
  8
0
  6
CONTINUOUS
 62
     7
 10
-0.9298275905
 20
0.7861462562
 30
0.0
  0
VERTEX
  5
4DE
  8
0
  6
CONTINUOUS
 62
     7
 10
-0.9313644269
 20
0.7873586936
 30
0.0
  0
VERTEX
  5
4DF
  8
0
  6
CONTINUOUS
 62
     7
 10
-0.9389788179
 20
0.7888480467
 30
0.0
  0
SEQEND
  5
668
  8
0
  6
CONTINUOUS
 62
     7
  0
POLYLINE
  5
167
  8
0
  6
CONTINUOUS
 62
     7
 66
     1
 10
0.0
 20
0.0
 30
0.0
 70
   128
  0
VERTEX
  5
4E0
  8
0
  6
CONTINUOUS
 62
     7
 10
-0.9211810599
 20
0.8216587474
 30
0.0
  0
VERTEX
  5
4E1
  8
0
  6
CONTINUOUS
 62
     7
 10
-0.9170322071
 20
0.8220523734
 30
0.0
  0
VERTEX
  5
4E2
  8
0
  6
CONTINUOUS
 62
     7
 10
-0.9132605793
 20
0.8237798925
 30
0.0
  0
VERTEX
  5
4E3
  8
0
  6
CONTINUOUS
 62
     7
 10
-0.9113940051
 20
0.8264449503
 30
0.0
  0
VERTEX
  5
4E4
  8
0
  6
CONTINUOUS
 62
     7
 10
-0.9108351091
 20
0.8296634957
 30
0.0
  0
SEQEND
  5
669
  8
0
  6
CONTINUOUS
 62
     7
  0
POLYLINE
  5
168
  8
0
  6
CONTINUOUS
 62
     7
 66
     1
 10
0.0
 20
0.0
 30
0.0
 70
   128
  0
VERTEX
  5
4E5
  8
0
  6
CONTINUOUS
 62
     7
 10
-1.5066329274
 20
1.2526548089
 30
0.0
  0
VERTEX
  5
4E6
  8
0
  6
CONTINUOUS
 62
     7
 10
-1.5089884501
 20
1.2523386577
 30
0.0
  0
VERTEX
  5
4E7
  8
0
  6
CONTINUOUS
 62
     7
 10
-1.5110728421
 20
1.2512088064
 30
0.0
  0
VERTEX
  5
4E8
  8
0
  6
CONTINUOUS
 62
     7
 10
-1.5125705281
 20
1.2493773407
 30
0.0
  0
VERTEX
  5
4E9
  8
0
  6
CONTINUOUS
 62
     7
 10
-1.5137890665
 20
1.2439429875
 30
0.0
  0
SEQEND
  5
66A
  8
0
  6
CONTINUOUS
 62
     7
  0
POLYLINE
  5
16C
  8
0
  6
CONTINUOUS
 62
     7
 66
     1
 10
0.0
 20
0.0
 30
0.0
 70
   128
  0
VERTEX
  5
4EA
  8
0
  6
CONTINUOUS
 62
     7
 10
-1.4355733222
 20
1.1225714755
 30
0.0
  0
VERTEX
  5
4EB
  8
0
  6
CONTINUOUS
 62
     7
 10
-1.432382225
 20
1.1225677799
 30
0.0
  0
VERTEX
  5
4EC
  8
0
  6
CONTINUOUS
 62
     7
 10
-1.4299236428
 20
1.1229391823
 30
0.0
  0
SEQEND
  5
66B
  8
0
  6
CONTINUOUS
 62
     7
  0
POLYLINE
  5
16F
  8
0
  6
CONTINUOUS
 62
     7
 66
     1
 10
0.0
 20
0.0
 30
0.0
 70
   128
  0
VERTEX
  5
4ED
  8
0
  6
CONTINUOUS
 62
     7
 10
-1.4297256469
 20
1.1364311914
 30
0.0
  0
VERTEX
  5
4EE
  8
0
  6
CONTINUOUS
 62
     7
 10
-1.432226997
 20
1.136818566
 30
0.0
  0
VERTEX
  5
4EF
  8
0
  6
CONTINUOUS
 62
     7
 10
-1.4342229833
 20
1.1368271833
 30
0.0
  0
SEQEND
  5
66C
  8
0
  6
CONTINUOUS
 62
     7
  0
POLYLINE
  5
172
  8
0
  6
CONTINUOUS
 62
     7
 66
     1
 10
0.0
 20
0.0
 30
0.0
 70
   128
  0
VERTEX
  5
4F0
  8
0
  6
CONTINUOUS
 62
     7
 10
-1.4995050736
 20
1.2439463574
 30
0.0
  0
VERTEX
  5
4F1
  8
0
  6
CONTINUOUS
 62
     7
 10
-1.4999415896
 20
1.2475002843
 30
0.0
  0
VERTEX
  5
4F2
  8
0
  6
CONTINUOUS
 62
     7
 10
-1.501510008
 20
1.2506960217
 30
0.0
  0
VERTEX
  5
4F3
  8
0
  6
CONTINUOUS
 62
     7
 10
-1.5038559615
 20
1.2522240737
 30
0.0
  0
VERTEX
  5
4F4
  8
0
  6
CONTINUOUS
 62
     7
 10
-1.5066329274
 20
1.2526548089
 30
0.0
  0
SEQEND
  5
66D
  8
0
  6
CONTINUOUS
 62
     7
  0
POLYLINE
  5
176
  8
0
  6
CONTINUOUS
 62
     7
 66
     1
 10
0.0
 20
0.0
 30
0.0
 70
   128
  0
VERTEX
  5
4F5
  8
0
  6
CONTINUOUS
 62
     7
 10
-0.7051458927
 20
1.1339023236
 30
0.0
  0
VERTEX
  5
4F6
  8
0
  6
CONTINUOUS
 62
     7
 10
-0.7051655723
 20
1.1308460518
 30
0.0
  0
VERTEX
  5
4F7
  8
0
  6
CONTINUOUS
 62
     7
 10
-0.7049761542
 20
1.1284547835
 30
0.0
  0
SEQEND
  5
66E
  8
0
  6
CONTINUOUS
 62
     7
  0
POLYLINE
  5
178
  8
0
  6
CONTINUOUS
 62
     7
 66
     1
 10
0.0
 20
0.0
 30
0.0
 70
   128
  0
VERTEX
  5
4F8
  8
0
  6
CONTINUOUS
 62
     7
 10
-0.6970280315
 20
1.1225714755
 30
0.0
  0
VERTEX
  5
4F9
  8
0
  6
CONTINUOUS
 62
     7
 10
-0.6932981637
 20
1.1231752679
 30
0.0
  0
VERTEX
  5
4FA
  8
0
  6
CONTINUOUS
 62
     7
 10
-0.6917237225
 20
1.1242337945
 30
0.0
  0
VERTEX
  5
4FB
  8
0
  6
CONTINUOUS
 62
     7
 10
-0.6905633976
 20
1.1257419648
 30
0.0
  0
VERTEX
  5
4FC
  8
0
  6
CONTINUOUS
 62
     7
 10
-0.6890799087
 20
1.1331218307
 30
0.0
  0
SEQEND
  5
66F
  8
0
  6
CONTINUOUS
 62
     7
  0
POLYLINE
  5
17C
  8
0
  6
CONTINUOUS
 62
     7
 66
     1
 10
0.0
 20
0.0
 30
0.0
 70
   128
  0
VERTEX
  5
4FD
  8
0
  6
CONTINUOUS
 62
     7
 10
-0.6354001651
 20
1.1277078792
 30
0.0
  0
VERTEX
  5
4FE
  8
0
  6
CONTINUOUS
 62
     7
 10
-0.6318484606
 20
1.124075603
 30
0.0
  0
VERTEX
  5
4FF
  8
0
  6
CONTINUOUS
 62
     7
 10
-0.6279557331
 20
1.1232503188
 30
0.0
  0
SEQEND
  5
670
  8
0
  6
CONTINUOUS
 62
     7
  0
POLYLINE
  5
17E
  8
0
  6
CONTINUOUS
 62
     7
 66
     1
 10
0.0
 20
0.0
 30
0.0
 70
   128
  0
VERTEX
  5
500
  8
0
  6
CONTINUOUS
 62
     7
 10
-0.619724759
 20
1.1309721605
 30
0.0
  0
VERTEX
  5
501
  8
0
  6
CONTINUOUS
 62
     7
 10
-0.6204280268
 20
1.1341027429
 30
0.0
  0
VERTEX
  5
502
  8
0
  6
CONTINUOUS
 62
     7
 10
-0.6218461441
 20
1.1362049103
 30
0.0
  0
SEQEND
  5
671
  8
0
  6
CONTINUOUS
 62
     7
  0
POLYLINE
  5
17F
  8
0
  6
CONTINUOUS
 62
     7
 66
     1
 10
0.0
 20
0.0
 30
0.0
 70
   128
  0
VERTEX
  5
503
  8
0
  6
CONTINUOUS
 62
     7
 10
-0.6218461441
 20
1.1362049103
 30
0.0
  0
VERTEX
  5
504
  8
0
  6
CONTINUOUS
 62
     7
 10
-0.6223124898
 20
1.1367139319
 30
0.0
  0
VERTEX
  5
505
  8
0
  6
CONTINUOUS
 62
     7
 10
-0.6226098427
 20
1.1371666049
 30
0.0
  0
SEQEND
  5
672
  8
0
  6
CONTINUOUS
 62
     7
  0
POLYLINE
  5
183
  8
0
  6
CONTINUOUS
 62
     7
 66
     1
 10
0.0
 20
0.0
 30
0.0
 70
   128
  0
VERTEX
  5
506
  8
0
  6
CONTINUOUS
 62
     7
 10
-1.543630137
 20
1.90193701
 30
0.0
  0
VERTEX
  5
507
  8
0
  6
CONTINUOUS
 62
     7
 10
-1.5440043941
 20
1.9054193444
 30
0.0
  0
VERTEX
  5
508
  8
0
  6
CONTINUOUS
 62
     7
 10
-1.5455834148
 20
1.9085388018
 30
0.0
  0
VERTEX
  5
509
  8
0
  6
CONTINUOUS
 62
     7
 10
-1.5483470417
 20
1.9106814818
 30
0.0
  0
VERTEX
  5
50A
  8
0
  6
CONTINUOUS
 62
     7
 10
-1.5564311807
 20
1.9121196584
 30
0.0
  0
SEQEND
  5
673
  8
0
  6
CONTINUOUS
 62
     7
  0
POLYLINE
  5
185
  8
0
  6
CONTINUOUS
 62
     7
 66
     1
 10
0.0
 20
0.0
 30
0.0
 70
   128
  0
VERTEX
  5
50B
  8
0
  6
CONTINUOUS
 62
     7
 10
-1.6433326197
 20
1.9121559895
 30
0.0
  0
VERTEX
  5
50C
  8
0
  6
CONTINUOUS
 62
     7
 10
-1.649689307
 20
1.9116333234
 30
0.0
  0
VERTEX
  5
50D
  8
0
  6
CONTINUOUS
 62
     7
 10
-1.6550451499
 20
1.9083856015
 30
0.0
  0
VERTEX
  5
50E
  8
0
  6
CONTINUOUS
 62
     7
 10
-1.6567887855
 20
1.9037069726
 30
0.0
  0
VERTEX
  5
50F
  8
0
  6
CONTINUOUS
 62
     7
 10
-1.6570575669
 20
1.8987003825
 30
0.0
  0
SEQEND
  5
674
  8
0
  6
CONTINUOUS
 62
     7
  0
POLYLINE
  5
187
  8
0
  6
CONTINUOUS
 62
     7
 66
     1
 10
0.0
 20
0.0
 30
0.0
 70
   128
  0
VERTEX
  5
510
  8
0
  6
CONTINUOUS
 62
     7
 10
-1.6570212358
 20
1.7585582745
 30
0.0
  0
VERTEX
  5
511
  8
0
  6
CONTINUOUS
 62
     7
 10
-1.6566787551
 20
1.7522159491
 30
0.0
  0
VERTEX
  5
512
  8
0
  6
CONTINUOUS
 62
     7
 10
-1.6535106688
 20
1.7468525873
 30
0.0
  0
VERTEX
  5
513
  8
0
  6
CONTINUOUS
 62
     7
 10
-1.6488512374
 20
1.7451153285
 30
0.0
  0
VERTEX
  5
514
  8
0
  6
CONTINUOUS
 62
     7
 10
-1.6438564905
 20
1.7448696584
 30
0.0
  0
SEQEND
  5
675
  8
0
  6
CONTINUOUS
 62
     7
  0
POLYLINE
  5
189
  8
0
  6
CONTINUOUS
 62
     7
 66
     1
 10
0.0
 20
0.0
 30
0.0
 70
   128
  0
VERTEX
  5
515
  8
0
  6
CONTINUOUS
 62
     7
 10
-1.5574348137
 20
1.7448696584
 30
0.0
  0
VERTEX
  5
516
  8
0
  6
CONTINUOUS
 62
     7
 10
-1.5473045779
 20
1.7465369794
 30
0.0
  0
VERTEX
  5
517
  8
0
  6
CONTINUOUS
 62
     7
 10
-1.5451572758
 20
1.7479839993
 30
0.0
  0
VERTEX
  5
518
  8
0
  6
CONTINUOUS
 62
     7
 10
-1.543562968
 20
1.7500150583
 30
0.0
  0
VERTEX
  5
519
  8
0
  6
CONTINUOUS
 62
     7
 10
-1.5426118721
 20
1.7550523068
 30
0.0
  0
SEQEND
  5
676
  8
0
  6
CONTINUOUS
 62
     7
  0
POLYLINE
  5
18B
  8
0
  6
CONTINUOUS
 62
     7
 66
     1
 10
0.0
 20
0.0
 30
0.0
 70
   128
  0
VERTEX
  5
51A
  8
0
  6
CONTINUOUS
 62
     7
 10
-1.5494124266
 20
1.7647621894
 30
0.0
  0
VERTEX
  5
51B
  8
0
  6
CONTINUOUS
 62
     7
 10
-1.5531779706
 20
1.7654833487
 30
0.0
  0
VERTEX
  5
51C
  8
0
  6
CONTINUOUS
 62
     7
 10
-1.5562129811
 20
1.7655258881
 30
0.0
  0
SEQEND
  5
677
  8
0
  6
CONTINUOUS
 62
     7
  0
POLYLINE
  5
18F
  8
0
  6
CONTINUOUS
 62
     7
 66
     1
 10
0.0
 20
0.0
 30
0.0
 70
   128
  0
VERTEX
  5
51D
  8
0
  6
CONTINUOUS
 62
     7
 10
-1.5795553672
 20
1.8286582726
 30
0.0
  0
VERTEX
  5
51E
  8
0
  6
CONTINUOUS
 62
     7
 10
-1.5699037113
 20
1.8304308367
 30
0.0
  0
VERTEX
  5
51F
  8
0
  6
CONTINUOUS
 62
     7
 10
-1.5679453499
 20
1.8319421499
 30
0.0
  0
VERTEX
  5
520
  8
0
  6
CONTINUOUS
 62
     7
 10
-1.5665528043
 20
1.8339897114
 30
0.0
  0
VERTEX
  5
521
  8
0
  6
CONTINUOUS
 62
     7
 10
-1.5657410307
 20
1.8388409565
 30
0.0
  0
SEQEND
  5
678
  8
0
  6
CONTINUOUS
 62
     7
  0
POLYLINE
  5
190
  8
0
  6
CONTINUOUS
 62
     7
 66
     1
 10
0.0
 20
0.0
 30
0.0
 70
   128
  0
VERTEX
  5
522
  8
0
  6
CONTINUOUS
 62
     7
 10
-1.5657410307
 20
1.8388409565
 30
0.0
  0
VERTEX
  5
523
  8
0
  6
CONTINUOUS
 62
     7
 10
-1.5660985653
 20
1.8423762726
 30
0.0
  0
VERTEX
  5
524
  8
0
  6
CONTINUOUS
 62
     7
 10
-1.5676423789
 20
1.8455691527
 30
0.0
  0
VERTEX
  5
525
  8
0
  6
CONTINUOUS
 62
     7
 10
-1.5704014135
 20
1.8477915201
 30
0.0
  0
VERTEX
  5
526
  8
0
  6
CONTINUOUS
 62
     7
 10
-1.578578441
 20
1.8493145378
 30
0.0
  0
SEQEND
  5
679
  8
0
  6
CONTINUOUS
 62
     7
  0
POLYLINE
  5
194
  8
0
  6
CONTINUOUS
 62
     7
 66
     1
 10
0.0
 20
0.0
 30
0.0
 70
   128
  0
VERTEX
  5
527
  8
0
  6
CONTINUOUS
 62
     7
 10
-1.5574348137
 20
1.8914997244
 30
0.0
  0
VERTEX
  5
528
  8
0
  6
CONTINUOUS
 62
     7
 10
-1.5524718758
 20
1.8917962213
 30
0.0
  0
VERTEX
  5
529
  8
0
  6
CONTINUOUS
 62
     7
 10
-1.5477898775
 20
1.8934300659
 30
0.0
  0
VERTEX
  5
52A
  8
0
  6
CONTINUOUS
 62
     7
 10
-1.5458507644
 20
1.8949915002
 30
0.0
  0
VERTEX
  5
52B
  8
0
  6
CONTINUOUS
 62
     7
 10
-1.5444878825
 20
1.897068265
 30
0.0
  0
VERTEX
  5
52C
  8
0
  6
CONTINUOUS
 62
     7
 10
-1.543630137
 20
1.90193701
 30
0.0
  0
SEQEND
  5
67A
  8
0
  6
CONTINUOUS
 62
     7
  0
POLYLINE
  5
196
  8
0
  6
CONTINUOUS
 62
     7
 66
     1
 10
0.0
 20
0.0
 30
0.0
 70
   128
  0
VERTEX
  5
52D
  8
0
  6
CONTINUOUS
 62
     7
 10
-1.5169006849
 20
1.9060100694
 30
0.0
  0
VERTEX
  5
52E
  8
0
  6
CONTINUOUS
 62
     7
 10
-1.5173723783
 20
1.9022020285
 30
0.0
  0
VERTEX
  5
52F
  8
0
  6
CONTINUOUS
 62
     7
 10
-1.5174098174
 20
1.8991731483
 30
0.0
  0
SEQEND
  5
67B
  8
0
  6
CONTINUOUS
 62
     7
  0
POLYLINE
  5
198
  8
0
  6
CONTINUOUS
 62
     7
 66
     1
 10
0.0
 20
0.0
 30
0.0
 70
   128
  0
VERTEX
  5
530
  8
0
  6
CONTINUOUS
 62
     7
 10
-1.5173734863
 20
1.7583520077
 30
0.0
  0
VERTEX
  5
531
  8
0
  6
CONTINUOUS
 62
     7
 10
-1.5172628416
 20
1.7535880104
 30
0.0
  0
VERTEX
  5
532
  8
0
  6
CONTINUOUS
 62
     7
 10
-1.5163915525
 20
1.7499609826
 30
0.0
  0
SEQEND
  5
67C
  8
0
  6
CONTINUOUS
 62
     7
  0
POLYLINE
  5
19A
  8
0
  6
CONTINUOUS
 62
     7
 66
     1
 10
0.0
 20
0.0
 30
0.0
 70
   128
  0
VERTEX
  5
533
  8
0
  6
CONTINUOUS
 62
     7
 10
-1.5071908023
 20
1.7448696584
 30
0.0
  0
VERTEX
  5
534
  8
0
  6
CONTINUOUS
 62
     7
 10
-1.5022927358
 20
1.7458732556
 30
0.0
  0
VERTEX
  5
535
  8
0
  6
CONTINUOUS
 62
     7
 10
-1.4986121852
 20
1.749201028
 30
0.0
  0
VERTEX
  5
536
  8
0
  6
CONTINUOUS
 62
     7
 10
-1.4967172211
 20
1.7567979037
 30
0.0
  0
SEQEND
  5
67D
  8
0
  6
CONTINUOUS
 62
     7
  0
POLYLINE
  5
19D
  8
0
  6
CONTINUOUS
 62
     7
 66
     1
 10
0.0
 20
0.0
 30
0.0
 70
   128
  0
VERTEX
  5
537
  8
0
  6
CONTINUOUS
 62
     7
 10
-1.4219475596
 20
1.7515132399
 30
0.0
  0
VERTEX
  5
538
  8
0
  6
CONTINUOUS
 62
     7
 10
-1.4167997113
 20
1.7463107517
 30
0.0
  0
VERTEX
  5
539
  8
0
  6
CONTINUOUS
 62
     7
 10
-1.4112557078
 20
1.7448696584
 30
0.0
  0
SEQEND
  5
67E
  8
0
  6
CONTINUOUS
 62
     7
  0
POLYLINE
  5
19E
  8
0
  6
CONTINUOUS
 62
     7
 66
     1
 10
0.0
 20
0.0
 30
0.0
 70
   128
  0
VERTEX
  5
53A
  8
0
  6
CONTINUOUS
 62
     7
 10
-1.4112557078
 20
1.7448696584
 30
0.0
  0
VERTEX
  5
53B
  8
0
  6
CONTINUOUS
 62
     7
 10
-1.4065040766
 20
1.7458270377
 30
0.0
  0
VERTEX
  5
53C
  8
0
  6
CONTINUOUS
 62
     7
 10
-1.4030091027
 20
1.7491296449
 30
0.0
  0
VERTEX
  5
53D
  8
0
  6
CONTINUOUS
 62
     7
 10
-1.4013276256
 20
1.7565433375
 30
0.0
  0
SEQEND
  5
67F
  8
0
  6
CONTINUOUS
 62
     7
  0
POLYLINE
  5
1A0
  8
0
  6
CONTINUOUS
 62
     7
 66
     1
 10
0.0
 20
0.0
 30
0.0
 70
   128
  0
VERTEX
  5
53E
  8
0
  6
CONTINUOUS
 62
     7
 10
-1.4012912945
 20
1.8996865425
 30
0.0
  0
VERTEX
  5
53F
  8
0
  6
CONTINUOUS
 62
     7
 10
-1.4017988853
 20
1.9048662511
 30
0.0
  0
VERTEX
  5
540
  8
0
  6
CONTINUOUS
 62
     7
 10
-1.4040166592
 20
1.9095302674
 30
0.0
  0
VERTEX
  5
541
  8
0
  6
CONTINUOUS
 62
     7
 10
-1.4074518062
 20
1.9116952061
 30
0.0
  0
VERTEX
  5
542
  8
0
  6
CONTINUOUS
 62
     7
 10
-1.411510274
 20
1.9121196584
 30
0.0
  0
SEQEND
  5
680
  8
0
  6
CONTINUOUS
 62
     7
  0
POLYLINE
  5
1A1
  8
0
  6
CONTINUOUS
 62
     7
 66
     1
 10
0.0
 20
0.0
 30
0.0
 70
   128
  0
VERTEX
  5
543
  8
0
  6
CONTINUOUS
 62
     7
 10
-1.411510274
 20
1.9121196584
 30
0.0
  0
VERTEX
  5
544
  8
0
  6
CONTINUOUS
 62
     7
 10
-1.4151736428
 20
1.9117735985
 30
0.0
  0
VERTEX
  5
545
  8
0
  6
CONTINUOUS
 62
     7
 10
-1.4184873306
 20
1.9102094503
 30
0.0
  0
VERTEX
  5
546
  8
0
  6
CONTINUOUS
 62
     7
 10
-1.4206756881
 20
1.9072727983
 30
0.0
  0
VERTEX
  5
547
  8
0
  6
CONTINUOUS
 62
     7
 10
-1.4219838552
 20
1.8987367491
 30
0.0
  0
SEQEND
  5
681
  8
0
  6
CONTINUOUS
 62
     7
  0
POLYLINE
  5
1A4
  8
0
  6
CONTINUOUS
 62
     7
 66
     1
 10
0.0
 20
0.0
 30
0.0
 70
   128
  0
VERTEX
  5
548
  8
0
  6
CONTINUOUS
 62
     7
 10
-1.4969650041
 20
1.9050055841
 30
0.0
  0
VERTEX
  5
549
  8
0
  6
CONTINUOUS
 62
     7
 10
-1.5020562606
 20
1.9105389849
 30
0.0
  0
VERTEX
  5
54A
  8
0
  6
CONTINUOUS
 62
     7
 10
-1.5047485027
 20
1.9117908856
 30
0.0
  0
VERTEX
  5
54B
  8
0
  6
CONTINUOUS
 62
     7
 10
-1.5076999348
 20
1.9121196584
 30
0.0
  0
SEQEND
  5
682
  8
0
  6
CONTINUOUS
 62
     7
  0
POLYLINE
  5
1A6
  8
0
  6
CONTINUOUS
 62
     7
 66
     1
 10
0.0
 20
0.0
 30
0.0
 70
   128
  0
VERTEX
  5
54C
  8
0
  6
CONTINUOUS
 62
     7
 10
-1.3083018591
 20
1.7655258881
 30
0.0
  0
VERTEX
  5
54D
  8
0
  6
CONTINUOUS
 62
     7
 10
-1.3258860172
 20
1.7700629962
 30
0.0
  0
VERTEX
  5
54E
  8
0
  6
CONTINUOUS
 62
     7
 10
-1.336776908
 20
1.7794542964
 30
0.0
  0
SEQEND
  5
683
  8
0
  6
CONTINUOUS
 62
     7
  0
POLYLINE
  5
1A8
  8
0
  6
CONTINUOUS
 62
     7
 66
     1
 10
0.0
 20
0.0
 30
0.0
 70
   128
  0
VERTEX
  5
54F
  8
0
  6
CONTINUOUS
 62
     7
 10
-1.3547420091
 20
1.8286583081
 30
0.0
  0
VERTEX
  5
550
  8
0
  6
CONTINUOUS
 62
     7
 10
-1.3507994478
 20
1.8518034977
 30
0.0
  0
VERTEX
  5
551
  8
0
  6
CONTINUOUS
 62
     7
 10
-1.3422682648
 20
1.8681888039
 30
0.0
  0
SEQEND
  5
684
  8
0
  6
CONTINUOUS
 62
     7
  0
POLYLINE
  5
1AF
  8
0
  6
CONTINUOUS
 62
     7
 66
     1
 10
0.0
 20
0.0
 30
0.0
 70
   128
  0
VERTEX
  5
552
  8
0
  6
CONTINUOUS
 62
     7
 10
-1.3092837573
 20
1.9121196584
 30
0.0
  0
VERTEX
  5
553
  8
0
  6
CONTINUOUS
 62
     7
 10
-1.3278702877
 20
1.9087167246
 30
0.0
  0
VERTEX
  5
554
  8
0
  6
CONTINUOUS
 62
     7
 10
-1.3410318004
 20
1.9017915436
 30
0.0
  0
SEQEND
  5
685
  8
0
  6
CONTINUOUS
 62
     7
  0
POLYLINE
  5
1B4
  8
0
  6
CONTINUOUS
 62
     7
 66
     1
 10
0.0
 20
0.0
 30
0.0
 70
   128
  0
VERTEX
  5
555
  8
0
  6
CONTINUOUS
 62
     7
 10
-1.2673166993
 20
1.7657440877
 30
0.0
  0
VERTEX
  5
556
  8
0
  6
CONTINUOUS
 62
     7
 10
-1.2624674893
 20
1.7769713603
 30
0.0
  0
VERTEX
  5
557
  8
0
  6
CONTINUOUS
 62
     7
 10
-1.2616798761
 20
1.7865821503
 30
0.0
  0
SEQEND
  5
686
  8
0
  6
CONTINUOUS
 62
     7
  0
POLYLINE
  5
1B6
  8
0
  6
CONTINUOUS
 62
     7
 66
     1
 10
0.0
 20
0.0
 30
0.0
 70
   128
  0
VERTEX
  5
558
  8
0
  6
CONTINUOUS
 62
     7
 10
-1.261643545
 20
1.8259877424
 30
0.0
  0
VERTEX
  5
559
  8
0
  6
CONTINUOUS
 62
     7
 10
-1.2621679412
 20
1.8324212166
 30
0.0
  0
VERTEX
  5
55A
  8
0
  6
CONTINUOUS
 62
     7
 10
-1.2654049721
 20
1.8378829046
 30
0.0
  0
VERTEX
  5
55B
  8
0
  6
CONTINUOUS
 62
     7
 10
-1.2701079204
 20
1.8397198687
 30
0.0
  0
VERTEX
  5
55C
  8
0
  6
CONTINUOUS
 62
     7
 10
-1.2751718852
 20
1.8400046878
 30
0.0
  0
SEQEND
  5
687
  8
0
  6
CONTINUOUS
 62
     7
  0
POLYLINE
  5
1B8
  8
0
  6
CONTINUOUS
 62
     7
 66
     1
 10
0.0
 20
0.0
 30
0.0
 70
   128
  0
VERTEX
  5
55D
  8
0
  6
CONTINUOUS
 62
     7
 10
-1.299534596
 20
1.8400046878
 30
0.0
  0
VERTEX
  5
55E
  8
0
  6
CONTINUOUS
 62
     7
 10
-1.3042299827
 20
1.8398813927
 30
0.0
  0
VERTEX
  5
55F
  8
0
  6
CONTINUOUS
 62
     7
 10
-1.3077927267
 20
1.8389864229
 30
0.0
  0
SEQEND
  5
688
  8
0
  6
CONTINUOUS
 62
     7
  0
POLYLINE
  5
1BA
  8
0
  6
CONTINUOUS
 62
     7
 66
     1
 10
0.0
 20
0.0
 30
0.0
 70
   128
  0
VERTEX
  5
560
  8
0
  6
CONTINUOUS
 62
     7
 10
-1.3143023483
 20
1.8296402064
 30
0.0
  0
VERTEX
  5
561
  8
0
  6
CONTINUOUS
 62
     7
 10
-1.3128053686
 20
1.8242616039
 30
0.0
  0
VERTEX
  5
562
  8
0
  6
CONTINUOUS
 62
     7
 10
-1.3097928898
 20
1.8210576884
 30
0.0
  0
SEQEND
  5
689
  8
0
  6
CONTINUOUS
 62
     7
  0
POLYLINE
  5
1BE
  8
0
  6
CONTINUOUS
 62
     7
 66
     1
 10
0.0
 20
0.0
 30
0.0
 70
   128
  0
VERTEX
  5
563
  8
0
  6
CONTINUOUS
 62
     7
 10
-1.2822997746
 20
1.7932000549
 30
0.0
  0
VERTEX
  5
564
  8
0
  6
CONTINUOUS
 62
     7
 10
-1.2829412009
 20
1.7847617215
 30
0.0
  0
VERTEX
  5
565
  8
0
  6
CONTINUOUS
 62
     7
 10
-1.2850636008
 20
1.7784723982
 30
0.0
  0
SEQEND
  5
68A
  8
0
  6
CONTINUOUS
 62
     7
  0
POLYLINE
  5
1C2
  8
0
  6
CONTINUOUS
 62
     7
 66
     1
 10
0.0
 20
0.0
 30
0.0
 70
   128
  0
VERTEX
  5
566
  8
0
  6
CONTINUOUS
 62
     7
 10
-1.056754077
 20
1.7630165926
 30
0.0
  0
VERTEX
  5
567
  8
0
  6
CONTINUOUS
 62
     7
 10
-1.0510282241
 20
1.7698565054
 30
0.0
  0
VERTEX
  5
568
  8
0
  6
CONTINUOUS
 62
     7
 10
-1.0486806915
 20
1.7763631353
 30
0.0
  0
SEQEND
  5
68B
  8
0
  6
CONTINUOUS
 62
     7
  0
POLYLINE
  5
1C5
  8
0
  6
CONTINUOUS
 62
     7
 66
     1
 10
0.0
 20
0.0
 30
0.0
 70
   128
  0
VERTEX
  5
569
  8
0
  6
CONTINUOUS
 62
     7
 10
-1.06806409
 20
1.7818908587
 30
0.0
  0
VERTEX
  5
56A
  8
0
  6
CONTINUOUS
 62
     7
 10
-1.0817977487
 20
1.7691852884
 30
0.0
  0
VERTEX
  5
56B
  8
0
  6
CONTINUOUS
 62
     7
 10
-1.0959572733
 20
1.7655258881
 30
0.0
  0
SEQEND
  5
68C
  8
0
  6
CONTINUOUS
 62
     7
  0
POLYLINE
  5
1C6
  8
0
  6
CONTINUOUS
 62
     7
 66
     1
 10
0.0
 20
0.0
 30
0.0
 70
   128
  0
VERTEX
  5
56C
  8
0
  6
CONTINUOUS
 62
     7
 10
-1.0959572733
 20
1.7655258881
 30
0.0
  0
VERTEX
  5
56D
  8
0
  6
CONTINUOUS
 62
     7
 10
-1.1136171159
 20
1.7700367609
 30
0.0
  0
VERTEX
  5
56E
  8
0
  6
CONTINUOUS
 62
     7
 10
-1.1246141553
 20
1.7793815632
 30
0.0
  0
SEQEND
  5
68D
  8
0
  6
CONTINUOUS
 62
     7
  0
POLYLINE
  5
1CA
  8
0
  6
CONTINUOUS
 62
     7
 66
     1
 10
0.0
 20
0.0
 30
0.0
 70
   128
  0
VERTEX
  5
56F
  8
0
  6
CONTINUOUS
 62
     7
 10
-1.0705733855
 20
1.8776804869
 30
0.0
  0
VERTEX
  5
570
  8
0
  6
CONTINUOUS
 62
     7
 10
-1.0651790066
 20
1.8718825989
 30
0.0
  0
VERTEX
  5
571
  8
0
  6
CONTINUOUS
 62
     7
 10
-1.0623666229
 20
1.8705375773
 30
0.0
  0
VERTEX
  5
572
  8
0
  6
CONTINUOUS
 62
     7
 10
-1.0592633725
 20
1.8702253336
 30
0.0
  0
SEQEND
  5
68E
  8
0
  6
CONTINUOUS
 62
     7
  0
POLYLINE
  5
1D4
  8
0
  6
CONTINUOUS
 62
     7
 66
     1
 10
0.0
 20
0.0
 30
0.0
 70
   128
  0
VERTEX
  5
573
  8
0
  6
CONTINUOUS
 62
     7
 10
-1.0216239755
 20
1.7594378917
 30
0.0
  0
VERTEX
  5
574
  8
0
  6
CONTINUOUS
 62
     7
 10
-1.0216492779
 20
1.7555083993
 30
0.0
  0
VERTEX
  5
575
  8
0
  6
CONTINUOUS
 62
     7
 10
-1.0214057404
 20
1.7524339115
 30
0.0
  0
SEQEND
  5
68F
  8
0
  6
CONTINUOUS
 62
     7
  0
POLYLINE
  5
1D6
  8
0
  6
CONTINUOUS
 62
     7
 66
     1
 10
0.0
 20
0.0
 30
0.0
 70
   128
  0
VERTEX
  5
576
  8
0
  6
CONTINUOUS
 62
     7
 10
-1.0111867254
 20
1.7448696584
 30
0.0
  0
VERTEX
  5
577
  8
0
  6
CONTINUOUS
 62
     7
 10
-1.0063911811
 20
1.7456459629
 30
0.0
  0
VERTEX
  5
578
  8
0
  6
CONTINUOUS
 62
     7
 10
-1.0043668996
 20
1.7470069256
 30
0.0
  0
VERTEX
  5
579
  8
0
  6
CONTINUOUS
 62
     7
 10
-1.0028750533
 20
1.7489460017
 30
0.0
  0
VERTEX
  5
57A
  8
0
  6
CONTINUOUS
 62
     7
 10
-1.0009677104
 20
1.7584344008
 30
0.0
  0
SEQEND
  5
690
  8
0
  6
CONTINUOUS
 62
     7
  0
POLYLINE
  5
1DA
  8
0
  6
CONTINUOUS
 62
     7
 66
     1
 10
0.0
 20
0.0
 30
0.0
 70
   128
  0
VERTEX
  5
57B
  8
0
  6
CONTINUOUS
 62
     7
 10
-0.9319508972
 20
1.751473606
 30
0.0
  0
VERTEX
  5
57C
  8
0
  6
CONTINUOUS
 62
     7
 10
-0.92738442
 20
1.7468035366
 30
0.0
  0
VERTEX
  5
57D
  8
0
  6
CONTINUOUS
 62
     7
 10
-0.9223794847
 20
1.7457424569
 30
0.0
  0
SEQEND
  5
691
  8
0
  6
CONTINUOUS
 62
     7
  0
POLYLINE
  5
1DC
  8
0
  6
CONTINUOUS
 62
     7
 66
     1
 10
0.0
 20
0.0
 30
0.0
 70
   128
  0
VERTEX
  5
57E
  8
0
  6
CONTINUOUS
 62
     7
 10
-0.9117968037
 20
1.7556705391
 30
0.0
  0
VERTEX
  5
57F
  8
0
  6
CONTINUOUS
 62
     7
 10
-0.9127010051
 20
1.7596955736
 30
0.0
  0
VERTEX
  5
580
  8
0
  6
CONTINUOUS
 62
     7
 10
-0.9145242988
 20
1.7623983603
 30
0.0
  0
SEQEND
  5
692
  8
0
  6
CONTINUOUS
 62
     7
  0
POLYLINE
  5
1DD
  8
0
  6
CONTINUOUS
 62
     7
 66
     1
 10
0.0
 20
0.0
 30
0.0
 70
   128
  0
VERTEX
  5
581
  8
0
  6
CONTINUOUS
 62
     7
 10
-0.9145242988
 20
1.7623983603
 30
0.0
  0
VERTEX
  5
582
  8
0
  6
CONTINUOUS
 62
     7
 10
-0.9151238861
 20
1.7630528166
 30
0.0
  0
VERTEX
  5
583
  8
0
  6
CONTINUOUS
 62
     7
 10
-0.915506197
 20
1.7636348248
 30
0.0
  0
SEQEND
  5
693
  8
0
  6
CONTINUOUS
 62
     7
  0
POLYLINE
  5
1E1
  8
0
  6
CONTINUOUS
 62
     7
 66
     1
 10
0.0
 20
0.0
 30
0.0
 70
   128
  0
VERTEX
  5
584
  8
0
  6
CONTINUOUS
 62
     7
 10
-0.7533111546
 20
1.7544340746
 30
0.0
  0
VERTEX
  5
585
  8
0
  6
CONTINUOUS
 62
     7
 10
-0.7537099676
 20
1.7576630816
 30
0.0
  0
VERTEX
  5
586
  8
0
  6
CONTINUOUS
 62
     7
 10
-0.7543294194
 20
1.760143631
 30
0.0
  0
SEQEND
  5
694
  8
0
  6
CONTINUOUS
 62
     7
  0
POLYLINE
  5
1E3
  8
0
  6
CONTINUOUS
 62
     7
 66
     1
 10
0.0
 20
0.0
 30
0.0
 70
   128
  0
VERTEX
  5
587
  8
0
  6
CONTINUOUS
 62
     7
 10
-0.8086096973
 20
1.9019034846
 30
0.0
  0
VERTEX
  5
588
  8
0
  6
CONTINUOUS
 62
     7
 10
-0.8134163098
 20
1.9100492222
 30
0.0
  0
VERTEX
  5
589
  8
0
  6
CONTINUOUS
 62
     7
 10
-0.8167261513
 20
1.9117398522
 30
0.0
  0
VERTEX
  5
58A
  8
0
  6
CONTINUOUS
 62
     7
 10
-0.8204439008
 20
1.9121196584
 30
0.0
  0
SEQEND
  5
695
  8
0
  6
CONTINUOUS
 62
     7
  0
POLYLINE
  5
1E6
  8
0
  6
CONTINUOUS
 62
     7
 66
     1
 10
0.0
 20
0.0
 30
0.0
 70
   128
  0
VERTEX
  5
58B
  8
0
  6
CONTINUOUS
 62
     7
 10
-0.8845234152
 20
1.7618850727
 30
0.0
  0
VERTEX
  5
58C
  8
0
  6
CONTINUOUS
 62
     7
 10
-0.8859835502
 20
1.7577877155
 30
0.0
  0
VERTEX
  5
58D
  8
0
  6
CONTINUOUS
 62
     7
 10
-0.8865583823
 20
1.7544340746
 30
0.0
  0
SEQEND
  5
696
  8
0
  6
CONTINUOUS
 62
     7
  0
POLYLINE
  5
1EE
  8
0
  6
CONTINUOUS
 62
     7
 66
     1
 10
0.0
 20
0.0
 30
0.0
 70
   128
  0
VERTEX
  5
58E
  8
0
  6
CONTINUOUS
 62
     7
 10
-0.7278909002
 20
1.9060100694
 30
0.0
  0
VERTEX
  5
58F
  8
0
  6
CONTINUOUS
 62
     7
 10
-0.7283625935
 20
1.9022020285
 30
0.0
  0
VERTEX
  5
590
  8
0
  6
CONTINUOUS
 62
     7
 10
-0.7284000326
 20
1.8991731483
 30
0.0
  0
SEQEND
  5
697
  8
0
  6
CONTINUOUS
 62
     7
  0
POLYLINE
  5
1F0
  8
0
  6
CONTINUOUS
 62
     7
 66
     1
 10
0.0
 20
0.0
 30
0.0
 70
   128
  0
VERTEX
  5
591
  8
0
  6
CONTINUOUS
 62
     7
 10
-0.7283637015
 20
1.7583520077
 30
0.0
  0
VERTEX
  5
592
  8
0
  6
CONTINUOUS
 62
     7
 10
-0.7282530569
 20
1.7535880104
 30
0.0
  0
VERTEX
  5
593
  8
0
  6
CONTINUOUS
 62
     7
 10
-0.7273817678
 20
1.7499609826
 30
0.0
  0
SEQEND
  5
698
  8
0
  6
CONTINUOUS
 62
     7
  0
POLYLINE
  5
1F2
  8
0
  6
CONTINUOUS
 62
     7
 66
     1
 10
0.0
 20
0.0
 30
0.0
 70
   128
  0
VERTEX
  5
594
  8
0
  6
CONTINUOUS
 62
     7
 10
-0.7181810176
 20
1.7448696584
 30
0.0
  0
VERTEX
  5
595
  8
0
  6
CONTINUOUS
 62
     7
 10
-0.7132829511
 20
1.7458732556
 30
0.0
  0
VERTEX
  5
596
  8
0
  6
CONTINUOUS
 62
     7
 10
-0.7096024005
 20
1.749201028
 30
0.0
  0
VERTEX
  5
597
  8
0
  6
CONTINUOUS
 62
     7
 10
-0.7077074364
 20
1.7567979037
 30
0.0
  0
SEQEND
  5
699
  8
0
  6
CONTINUOUS
 62
     7
  0
POLYLINE
  5
1F5
  8
0
  6
CONTINUOUS
 62
     7
 66
     1
 10
0.0
 20
0.0
 30
0.0
 70
   128
  0
VERTEX
  5
598
  8
0
  6
CONTINUOUS
 62
     7
 10
-0.6329377749
 20
1.7515132399
 30
0.0
  0
VERTEX
  5
599
  8
0
  6
CONTINUOUS
 62
     7
 10
-0.6277899266
 20
1.7463107517
 30
0.0
  0
VERTEX
  5
59A
  8
0
  6
CONTINUOUS
 62
     7
 10
-0.622245923
 20
1.7448696584
 30
0.0
  0
SEQEND
  5
69A
  8
0
  6
CONTINUOUS
 62
     7
  0
POLYLINE
  5
1F6
  8
0
  6
CONTINUOUS
 62
     7
 66
     1
 10
0.0
 20
0.0
 30
0.0
 70
   128
  0
VERTEX
  5
59B
  8
0
  6
CONTINUOUS
 62
     7
 10
-0.622245923
 20
1.7448696584
 30
0.0
  0
VERTEX
  5
59C
  8
0
  6
CONTINUOUS
 62
     7
 10
-0.6174942919
 20
1.7458270377
 30
0.0
  0
VERTEX
  5
59D
  8
0
  6
CONTINUOUS
 62
     7
 10
-0.6139993179
 20
1.7491296449
 30
0.0
  0
VERTEX
  5
59E
  8
0
  6
CONTINUOUS
 62
     7
 10
-0.6123178408
 20
1.7565433375
 30
0.0
  0
SEQEND
  5
69B
  8
0
  6
CONTINUOUS
 62
     7
  0
POLYLINE
  5
1F8
  8
0
  6
CONTINUOUS
 62
     7
 66
     1
 10
0.0
 20
0.0
 30
0.0
 70
   128
  0
VERTEX
  5
59F
  8
0
  6
CONTINUOUS
 62
     7
 10
-0.6122815097
 20
1.8996865425
 30
0.0
  0
VERTEX
  5
5A0
  8
0
  6
CONTINUOUS
 62
     7
 10
-0.6127891006
 20
1.9048662511
 30
0.0
  0
VERTEX
  5
5A1
  8
0
  6
CONTINUOUS
 62
     7
 10
-0.6150068744
 20
1.9095302674
 30
0.0
  0
VERTEX
  5
5A2
  8
0
  6
CONTINUOUS
 62
     7
 10
-0.6184420215
 20
1.9116952061
 30
0.0
  0
VERTEX
  5
5A3
  8
0
  6
CONTINUOUS
 62
     7
 10
-0.6225004892
 20
1.9121196584
 30
0.0
  0
SEQEND
  5
69C
  8
0
  6
CONTINUOUS
 62
     7
  0
POLYLINE
  5
1F9
  8
0
  6
CONTINUOUS
 62
     7
 66
     1
 10
0.0
 20
0.0
 30
0.0
 70
   128
  0
VERTEX
  5
5A4
  8
0
  6
CONTINUOUS
 62
     7
 10
-0.6225004892
 20
1.9121196584
 30
0.0
  0
VERTEX
  5
5A5
  8
0
  6
CONTINUOUS
 62
     7
 10
-0.626163858
 20
1.9117735985
 30
0.0
  0
VERTEX
  5
5A6
  8
0
  6
CONTINUOUS
 62
     7
 10
-0.6294775459
 20
1.9102094503
 30
0.0
  0
VERTEX
  5
5A7
  8
0
  6
CONTINUOUS
 62
     7
 10
-0.6316659034
 20
1.9072727983
 30
0.0
  0
VERTEX
  5
5A8
  8
0
  6
CONTINUOUS
 62
     7
 10
-0.6329740705
 20
1.8987367491
 30
0.0
  0
SEQEND
  5
69D
  8
0
  6
CONTINUOUS
 62
     7
  0
POLYLINE
  5
1FC
  8
0
  6
CONTINUOUS
 62
     7
 66
     1
 10
0.0
 20
0.0
 30
0.0
 70
   128
  0
VERTEX
  5
5A9
  8
0
  6
CONTINUOUS
 62
     7
 10
-0.7079552194
 20
1.9050055841
 30
0.0
  0
VERTEX
  5
5AA
  8
0
  6
CONTINUOUS
 62
     7
 10
-0.7130464758
 20
1.9105389849
 30
0.0
  0
VERTEX
  5
5AB
  8
0
  6
CONTINUOUS
 62
     7
 10
-0.715738718
 20
1.9117908856
 30
0.0
  0
VERTEX
  5
5AC
  8
0
  6
CONTINUOUS
 62
     7
 10
-0.71869015
 20
1.9121196584
 30
0.0
  0
SEQEND
  5
69E
  8
0
  6
CONTINUOUS
 62
     7
  0
POLYLINE
  5
1FD
  8
0
  6
CONTINUOUS
 62
     7
 66
     1
 10
0.0
 20
0.0
 30
0.0
 70
   128
  0
VERTEX
  5
5AD
  8
0
  6
CONTINUOUS
 62
     7
 10
-0.5762058056
 20
1.9121196584
 30
0.0
  0
VERTEX
  5
5AE
  8
0
  6
CONTINUOUS
 62
     7
 10
-0.5820590957
 20
1.9106577071
 30
0.0
  0
VERTEX
  5
5AF
  8
0
  6
CONTINUOUS
 62
     7
 10
-0.5854065558
 20
1.9072829004
 30
0.0
  0
SEQEND
  5
69F
  8
0
  6
CONTINUOUS
 62
     7
  0
POLYLINE
  5
1FE
  8
0
  6
CONTINUOUS
 62
     7
 66
     1
 10
0.0
 20
0.0
 30
0.0
 70
   128
  0
VERTEX
  5
5B0
  8
0
  6
CONTINUOUS
 62
     7
 10
-0.5854065558
 20
1.9072829004
 30
0.0
  0
VERTEX
  5
5B1
  8
0
  6
CONTINUOUS
 62
     7
 10
-0.5863466152
 20
1.9023680476
 30
0.0
  0
VERTEX
  5
5B2
  8
0
  6
CONTINUOUS
 62
     7
 10
-0.5864248206
 20
1.8984094497
 30
0.0
  0
SEQEND
  5
6A0
  8
0
  6
CONTINUOUS
 62
     7
  0
POLYLINE
  5
201
  8
0
  6
CONTINUOUS
 62
     7
 66
     1
 10
0.0
 20
0.0
 30
0.0
 70
   128
  0
VERTEX
  5
5B3
  8
0
  6
CONTINUOUS
 62
     7
 10
-0.5759512394
 20
1.7448696584
 30
0.0
  0
VERTEX
  5
5B4
  8
0
  6
CONTINUOUS
 62
     7
 10
-0.5711556808
 20
1.7457342003
 30
0.0
  0
VERTEX
  5
5B5
  8
0
  6
CONTINUOUS
 62
     7
 10
-0.5675217276
 20
1.7489118293
 30
0.0
  0
VERTEX
  5
5B6
  8
0
  6
CONTINUOUS
 62
     7
 10
-0.5657322244
 20
1.7563251379
 30
0.0
  0
SEQEND
  5
6A1
  8
0
  6
CONTINUOUS
 62
     7
  0
POLYLINE
  5
205
  8
0
  6
CONTINUOUS
 62
     7
 66
     1
 10
0.0
 20
0.0
 30
0.0
 70
   128
  0
VERTEX
  5
5B7
  8
0
  6
CONTINUOUS
 62
     7
 10
-0.4973596043
 20
1.7525263907
 30
0.0
  0
VERTEX
  5
5B8
  8
0
  6
CONTINUOUS
 62
     7
 10
-0.4924305402
 20
1.7464748601
 30
0.0
  0
VERTEX
  5
5B9
  8
0
  6
CONTINUOUS
 62
     7
 10
-0.489622403
 20
1.7452215664
 30
0.0
  0
VERTEX
  5
5BA
  8
0
  6
CONTINUOUS
 62
     7
 10
-0.4865621331
 20
1.7448696584
 30
0.0
  0
SEQEND
  5
6A2
  8
0
  6
CONTINUOUS
 62
     7
  0
POLYLINE
  5
207
  8
0
  6
CONTINUOUS
 62
     7
 66
     1
 10
0.0
 20
0.0
 30
0.0
 70
   128
  0
VERTEX
  5
5BB
  8
0
  6
CONTINUOUS
 62
     7
 10
-0.4760158187
 20
1.754034042
 30
0.0
  0
VERTEX
  5
5BC
  8
0
  6
CONTINUOUS
 62
     7
 10
-0.4767534105
 20
1.7584473707
 30
0.0
  0
VERTEX
  5
5BD
  8
0
  6
CONTINUOUS
 62
     7
 10
-0.4782705479
 20
1.7616346617
 30
0.0
  0
SEQEND
  5
6A3
  8
0
  6
CONTINUOUS
 62
     7
  0
POLYLINE
  5
20B
  8
0
  6
CONTINUOUS
 62
     7
 66
     1
 10
0.0
 20
0.0
 30
0.0
 70
   128
  0
VERTEX
  5
5BE
  8
0
  6
CONTINUOUS
 62
     7
 10
-0.4943431652
 20
1.8936076377
 30
0.0
  0
VERTEX
  5
5BF
  8
0
  6
CONTINUOUS
 62
     7
 10
-0.4933409307
 20
1.8944142472
 30
0.0
  0
VERTEX
  5
5C0
  8
0
  6
CONTINUOUS
 62
     7
 10
-0.4925989889
 20
1.895100089
 30
0.0
  0
SEQEND
  5
6A4
  8
0
  6
CONTINUOUS
 62
     7
  0
POLYLINE
  5
20C
  8
0
  6
CONTINUOUS
 62
     7
 66
     1
 10
0.0
 20
0.0
 30
0.0
 70
   128
  0
VERTEX
  5
5C1
  8
0
  6
CONTINUOUS
 62
     7
 10
-0.4925989889
 20
1.895100089
 30
0.0
  0
VERTEX
  5
5C2
  8
0
  6
CONTINUOUS
 62
     7
 10
-0.4901567881
 20
1.8986253731
 30
0.0
  0
VERTEX
  5
5C3
  8
0
  6
CONTINUOUS
 62
     7
 10
-0.489580561
 20
1.90193701
 30
0.0
  0
SEQEND
  5
6A5
  8
0
  6
CONTINUOUS
 62
     7
  0
POLYLINE
  5
20E
  8
0
  6
CONTINUOUS
 62
     7
 66
     1
 10
0.0
 20
0.0
 30
0.0
 70
   128
  0
VERTEX
  5
5C4
  8
0
  6
CONTINUOUS
 62
     7
 10
-0.4999086758
 20
1.9121196584
 30
0.0
  0
VERTEX
  5
5C5
  8
0
  6
CONTINUOUS
 62
     7
 10
-0.5058005715
 20
1.9107801203
 30
0.0
  0
VERTEX
  5
5C6
  8
0
  6
CONTINUOUS
 62
     7
 10
-0.5096912916
 20
1.9079738659
 30
0.0
  0
SEQEND
  5
6A6
  8
0
  6
CONTINUOUS
 62
     7
  0
POLYLINE
  5
211
  8
0
  6
CONTINUOUS
 62
     7
 66
     1
 10
0.0
 20
0.0
 30
0.0
 70
   128
  0
VERTEX
  5
5C7
  8
0
  6
CONTINUOUS
 62
     7
 10
-0.5657322244
 20
1.8994332548
 30
0.0
  0
VERTEX
  5
5C8
  8
0
  6
CONTINUOUS
 62
     7
 10
-0.566288245
 20
1.9046837913
 30
0.0
  0
VERTEX
  5
5C9
  8
0
  6
CONTINUOUS
 62
     7
 10
-0.5686230418
 20
1.9093777309
 30
0.0
  0
VERTEX
  5
5CA
  8
0
  6
CONTINUOUS
 62
     7
 10
-0.572094342
 20
1.9115964564
 30
0.0
  0
VERTEX
  5
5CB
  8
0
  6
CONTINUOUS
 62
     7
 10
-0.5762058056
 20
1.9121196584
 30
0.0
  0
SEQEND
  5
6A7
  8
0
  6
CONTINUOUS
 62
     7
  0
CIRCLE
  5
216
  8
0
  6
CONTINUOUS
 62
     7
 10
-1.5
 20
3.5
 30
0.0
 40
0.3099999999999981
  0
CIRCLE
  5
217
  8
0
  6
CONTINUOUS
 62
     7
 10
-1.0625
 20
1.1875
 30
0.0
 40
0.3099999999999991
  0
CIRCLE
  5
219
  8
0
  6
CONTINUOUS
 62
     7
 10
-0.8
 20
4.75
 30
0.0
 40
0.0847499999999997
  0
CIRCLE
  5
21A
  8
0
  6
CONTINUOUS
 62
     7
 10
-1.0625
 20
1.1875
 30
0.0
 40
0.2799999999999998
  0
CIRCLE
  5
21B
  8
0
  6
CONTINUOUS
 62
     7
 10
-1.0625
 20
1.1875
 30
0.0
 40
0.2499999999999992
  0
CIRCLE
  5
21C
  8
0
  6
CONTINUOUS
 62
     7
 10
-1.5
 20
3.5
 30
0.0
 40
0.2799999999999998
  0
CIRCLE
  5
21D
  8
0
  6
CONTINUOUS
 62
     7
 10
-1.5
 20
3.5
 30
0.0
 40
0.2499999999999991
  0
POLYLINE
  5
21F
  8
0
  6
CONTINUOUS
 62
     7
 66
     1
 10
0.0
 20
0.0
 30
0.0
 70
   128
  0
VERTEX
  5
5CC
  8
0
  6
CONTINUOUS
 62
     7
 10
-1.1566329274
 20
0.7322777778
 30
0.0
  0
VERTEX
  5
5CD
  8
0
  6
CONTINUOUS
 62
     7
 10
-1.1659262772
 20
0.7256921702
 30
0.0
  0
VERTEX
  5
5CE
  8
0
  6
CONTINUOUS
 62
     7
 10
-1.1746505581
 20
0.7236790969
 30
0.0
  0
SEQEND
  5
6A8
  8
0
  6
CONTINUOUS
 62
     7
  0
POLYLINE
  5
221
  8
0
  6
CONTINUOUS
 62
     7
 66
     1
 10
0.0
 20
0.0
 30
0.0
 70
   128
  0
VERTEX
  5
5CF
  8
0
  6
CONTINUOUS
 62
     7
 10
-1.1944218671
 20
0.7346537291
 30
0.0
  0
VERTEX
  5
5D0
  8
0
  6
CONTINUOUS
 62
     7
 10
-1.2025588822
 20
0.7564717468
 30
0.0
  0
VERTEX
  5
5D1
  8
0
  6
CONTINUOUS
 62
     7
 10
-1.2038125317
 20
0.7748751903
 30
0.0
  0
SEQEND
  5
6A9
  8
0
  6
CONTINUOUS
 62
     7
  0
POLYLINE
  5
223
  8
0
  6
CONTINUOUS
 62
     7
 66
     1
 10
0.0
 20
0.0
 30
0.0
 70
   128
  0
VERTEX
  5
5D2
  8
0
  6
CONTINUOUS
 62
     7
 10
-1.1922721969
 20
0.8154643582
 30
0.0
  0
VERTEX
  5
5D3
  8
0
  6
CONTINUOUS
 62
     7
 10
-1.1831043891
 20
0.8215559103
 30
0.0
  0
VERTEX
  5
5D4
  8
0
  6
CONTINUOUS
 62
     7
 10
-1.1746505581
 20
0.8234407661
 30
0.0
  0
SEQEND
  5
6AA
  8
0
  6
CONTINUOUS
 62
     7
  0
POLYLINE
  5
225
  8
0
  6
CONTINUOUS
 62
     7
 66
     1
 10
0.0
 20
0.0
 30
0.0
 70
   128
  0
VERTEX
  5
5D5
  8
0
  6
CONTINUOUS
 62
     7
 10
-1.1746362774
 20
0.823468996
 30
0.0
  0
VERTEX
  5
5D6
  8
0
  6
CONTINUOUS
 62
     7
 10
-1.1653089569
 20
0.8210612106
 30
0.0
  0
VERTEX
  5
5D7
  8
0
  6
CONTINUOUS
 62
     7
 10
-1.1589805936
 20
0.8168503298
 30
0.0
  0
SEQEND
  5
6AB
  8
0
  6
CONTINUOUS
 62
     7
  0
POLYLINE
  5
227
  8
0
  6
CONTINUOUS
 62
     7
 66
     1
 10
0.0
 20
0.0
 30
0.0
 70
   128
  0
VERTEX
  5
5D8
  8
0
  6
CONTINUOUS
 62
     7
 10
-1.5587339436
 20
3.965968996
 30
0.0
  0
VERTEX
  5
5D9
  8
0
  6
CONTINUOUS
 62
     7
 10
-1.549406623
 20
3.9635612106
 30
0.0
  0
VERTEX
  5
5DA
  8
0
  6
CONTINUOUS
 62
     7
 10
-1.5430782598
 20
3.9593503298
 30
0.0
  0
SEQEND
  5
6AC
  8
0
  6
CONTINUOUS
 62
     7
  0
POLYLINE
  5
229
  8
0
  6
CONTINUOUS
 62
     7
 66
     1
 10
0.0
 20
0.0
 30
0.0
 70
   128
  0
VERTEX
  5
5DB
  8
0
  6
CONTINUOUS
 62
     7
 10
-1.576369863
 20
3.9579643582
 30
0.0
  0
VERTEX
  5
5DC
  8
0
  6
CONTINUOUS
 62
     7
 10
-1.5672020552
 20
3.9640559103
 30
0.0
  0
VERTEX
  5
5DD
  8
0
  6
CONTINUOUS
 62
     7
 10
-1.5587482243
 20
3.9659407661
 30
0.0
  0
SEQEND
  5
6AD
  8
0
  6
CONTINUOUS
 62
     7
  0
POLYLINE
  5
22B
  8
0
  6
CONTINUOUS
 62
     7
 66
     1
 10
0.0
 20
0.0
 30
0.0
 70
   128
  0
VERTEX
  5
5DE
  8
0
  6
CONTINUOUS
 62
     7
 10
-1.5785195332
 20
3.8771537291
 30
0.0
  0
VERTEX
  5
5DF
  8
0
  6
CONTINUOUS
 62
     7
 10
-1.5866565484
 20
3.8989717468
 30
0.0
  0
VERTEX
  5
5E0
  8
0
  6
CONTINUOUS
 62
     7
 10
-1.5879101979
 20
3.9173751903
 30
0.0
  0
SEQEND
  5
6AE
  8
0
  6
CONTINUOUS
 62
     7
  0
POLYLINE
  5
22D
  8
0
  6
CONTINUOUS
 62
     7
 66
     1
 10
0.0
 20
0.0
 30
0.0
 70
   128
  0
VERTEX
  5
5E1
  8
0
  6
CONTINUOUS
 62
     7
 10
-1.5407305936
 20
3.8747777778
 30
0.0
  0
VERTEX
  5
5E2
  8
0
  6
CONTINUOUS
 62
     7
 10
-1.5500239434
 20
3.8681921702
 30
0.0
  0
VERTEX
  5
5E3
  8
0
  6
CONTINUOUS
 62
     7
 10
-1.5587482243
 20
3.8661790969
 30
0.0
  0
SEQEND
  5
6AF
  8
0
  6
CONTINUOUS
 62
     7
  0
POLYLINE
  5
230
  8
0
  6
CONTINUOUS
 62
     7
 66
     1
 10
0.0
 20
0.0
 30
0.0
 70
   128
  0
VERTEX
  5
5E4
  8
0
  6
CONTINUOUS
 62
     7
 10
-1.6121362774
 20
3.135968996
 30
0.0
  0
VERTEX
  5
5E5
  8
0
  6
CONTINUOUS
 62
     7
 10
-1.6028089569
 20
3.1335612106
 30
0.0
  0
VERTEX
  5
5E6
  8
0
  6
CONTINUOUS
 62
     7
 10
-1.5964805936
 20
3.1293503298
 30
0.0
  0
SEQEND
  5
6B0
  8
0
  6
CONTINUOUS
 62
     7
  0
POLYLINE
  5
232
  8
0
  6
CONTINUOUS
 62
     7
 66
     1
 10
0.0
 20
0.0
 30
0.0
 70
   128
  0
VERTEX
  5
5E7
  8
0
  6
CONTINUOUS
 62
     7
 10
-1.6297721969
 20
3.1279643582
 30
0.0
  0
VERTEX
  5
5E8
  8
0
  6
CONTINUOUS
 62
     7
 10
-1.6206043891
 20
3.1340559103
 30
0.0
  0
VERTEX
  5
5E9
  8
0
  6
CONTINUOUS
 62
     7
 10
-1.6121505581
 20
3.1359407661
 30
0.0
  0
SEQEND
  5
6B1
  8
0
  6
CONTINUOUS
 62
     7
  0
POLYLINE
  5
234
  8
0
  6
CONTINUOUS
 62
     7
 66
     1
 10
0.0
 20
0.0
 30
0.0
 70
   128
  0
VERTEX
  5
5EA
  8
0
  6
CONTINUOUS
 62
     7
 10
-1.6319218671
 20
3.0471537291
 30
0.0
  0
VERTEX
  5
5EB
  8
0
  6
CONTINUOUS
 62
     7
 10
-1.6400588822
 20
3.0689717468
 30
0.0
  0
VERTEX
  5
5EC
  8
0
  6
CONTINUOUS
 62
     7
 10
-1.6413125317
 20
3.0873751903
 30
0.0
  0
SEQEND
  5
6B2
  8
0
  6
CONTINUOUS
 62
     7
  0
POLYLINE
  5
236
  8
0
  6
CONTINUOUS
 62
     7
 66
     1
 10
0.0
 20
0.0
 30
0.0
 70
   128
  0
VERTEX
  5
5ED
  8
0
  6
CONTINUOUS
 62
     7
 10
-1.5941329274
 20
3.0447777778
 30
0.0
  0
VERTEX
  5
5EE
  8
0
  6
CONTINUOUS
 62
     7
 10
-1.6034262772
 20
3.0381921702
 30
0.0
  0
VERTEX
  5
5EF
  8
0
  6
CONTINUOUS
 62
     7
 10
-1.6121505581
 20
3.0361790969
 30
0.0
  0
SEQEND
  5
6B3
  8
0
  6
CONTINUOUS
 62
     7
  0
POLYLINE
  5
23C
  8
0
  6
CONTINUOUS
 62
     7
 66
     1
 10
0.0
 20
0.0
 30
0.0
 70
   128
  0
VERTEX
  5
5F0
  8
0
  6
CONTINUOUS
 62
     7
 10
-0.6707800283
 20
3.9226927955
 30
0.0
  0
VERTEX
  5
5F1
  8
0
  6
CONTINUOUS
 62
     7
 10
-0.6776538097
 20
3.92068695
 30
0.0
  0
VERTEX
  5
5F2
  8
0
  6
CONTINUOUS
 62
     7
 10
-0.6833103429
 20
3.920486555
 30
0.0
  0
SEQEND
  5
6B4
  8
0
  6
CONTINUOUS
 62
     7
  0
POLYLINE
  5
23F
  8
0
  6
CONTINUOUS
 62
     7
 66
     1
 10
0.0
 20
0.0
 30
0.0
 70
   128
  0
VERTEX
  5
5F3
  8
0
  6
CONTINUOUS
 62
     7
 10
-0.6818944288
 20
3.9641587474
 30
0.0
  0
VERTEX
  5
5F4
  8
0
  6
CONTINUOUS
 62
     7
 10
-0.6758754165
 20
3.9637730712
 30
0.0
  0
VERTEX
  5
5F5
  8
0
  6
CONTINUOUS
 62
     7
 10
-0.6713740161
 20
3.9623202689
 30
0.0
  0
SEQEND
  5
6B5
  8
0
  6
CONTINUOUS
 62
     7
  0
POLYLINE
  5
243
  8
0
  6
CONTINUOUS
 62
     7
 66
     1
 10
0.0
 20
0.0
 30
0.0
 70
   128
  0
VERTEX
  5
5F6
  8
0
  6
CONTINUOUS
 62
     7
 10
-0.3400985215
 20
3.9617828513
 30
0.0
  0
VERTEX
  5
5F7
  8
0
  6
CONTINUOUS
 62
     7
 10
-0.3277774454
 20
3.9509426679
 30
0.0
  0
VERTEX
  5
5F8
  8
0
  6
CONTINUOUS
 62
     7
 10
-0.3214586179
 20
3.9396073059
 30
0.0
  0
SEQEND
  5
6B6
  8
0
  6
CONTINUOUS
 62
     7
  0
POLYLINE
  5
244
  8
0
  6
CONTINUOUS
 62
     7
 66
     1
 10
0.0
 20
0.0
 30
0.0
 70
   128
  0
VERTEX
  5
5F9
  8
0
  6
CONTINUOUS
 62
     7
 10
-0.3528441511
 20
3.9641587474
 30
0.0
  0
VERTEX
  5
5FA
  8
0
  6
CONTINUOUS
 62
     7
 10
-0.3455187331
 20
3.9637044764
 30
0.0
  0
VERTEX
  5
5FB
  8
0
  6
CONTINUOUS
 62
     7
 10
-0.3400985215
 20
3.9617828513
 30
0.0
  0
SEQEND
  5
6B7
  8
0
  6
CONTINUOUS
 62
     7
  0
POLYLINE
  5
248
  8
0
  6
CONTINUOUS
 62
     7
 66
     1
 10
0.0
 20
0.0
 30
0.0
 70
   128
  0
VERTEX
  5
5FC
  8
0
  6
CONTINUOUS
 62
     7
 10
-0.3342152135
 20
3.8722604008
 30
0.0
  0
VERTEX
  5
5FD
  8
0
  6
CONTINUOUS
 62
     7
 10
-0.3441621835
 20
3.8669893981
 30
0.0
  0
VERTEX
  5
5FE
  8
0
  6
CONTINUOUS
 62
     7
 10
-0.3530531131
 20
3.8661790969
 30
0.0
  0
SEQEND
  5
6B8
  8
0
  6
CONTINUOUS
 62
     7
  0
POLYLINE
  5
249
  8
0
  6
CONTINUOUS
 62
     7
 66
     1
 10
0.0
 20
0.0
 30
0.0
 70
   128
  0
VERTEX
  5
5FF
  8
0
  6
CONTINUOUS
 62
     7
 10
-0.3194786585
 20
3.8977735921
 30
0.0
  0
VERTEX
  5
600
  8
0
  6
CONTINUOUS
 62
     7
 10
-0.3257622642
 20
3.8823026592
 30
0.0
  0
VERTEX
  5
601
  8
0
  6
CONTINUOUS
 62
     7
 10
-0.3342152135
 20
3.8722604008
 30
0.0
  0
SEQEND
  5
6B9
  8
0
  6
CONTINUOUS
 62
     7
  0
POLYLINE
  5
24A
  8
0
  6
CONTINUOUS
 62
     7
 66
     1
 10
0.0
 20
0.0
 30
0.0
 70
   128
  0
VERTEX
  5
602
  8
0
  6
CONTINUOUS
 62
     7
 10
-0.3183189679
 20
3.9121141553
 30
0.0
  0
VERTEX
  5
603
  8
0
  6
CONTINUOUS
 62
     7
 10
-0.3184048064
 20
3.9040259431
 30
0.0
  0
VERTEX
  5
604
  8
0
  6
CONTINUOUS
 62
     7
 10
-0.3194786585
 20
3.8977735921
 30
0.0
  0
SEQEND
  5
6BA
  8
0
  6
CONTINUOUS
 62
     7
  0
POLYLINE
  5
24B
  8
0
  6
CONTINUOUS
 62
     7
 66
     1
 10
0.0
 20
0.0
 30
0.0
 70
   128
  0
VERTEX
  5
605
  8
0
  6
CONTINUOUS
 62
     7
 10
-0.3214586179
 20
3.9396073059
 30
0.0
  0
VERTEX
  5
606
  8
0
  6
CONTINUOUS
 62
     7
 10
-0.3183761033
 20
3.9244000238
 30
0.0
  0
VERTEX
  5
607
  8
0
  6
CONTINUOUS
 62
     7
 10
-0.3183189679
 20
3.9121141553
 30
0.0
  0
SEQEND
  5
6BB
  8
0
  6
CONTINUOUS
 62
     7
  0
POLYLINE
  5
257
  8
0
  6
CONTINUOUS
 62
     7
 66
     1
 10
0.0
 20
0.0
 30
0.0
 70
   128
  0
VERTEX
  5
608
  8
0
  6
CONTINUOUS
 62
     7
 10
-0.6485190259
 20
1.1951511305
 30
0.0
  0
VERTEX
  5
609
  8
0
  6
CONTINUOUS
 62
     7
 10
-0.6553928072
 20
1.193145285
 30
0.0
  0
VERTEX
  5
60A
  8
0
  6
CONTINUOUS
 62
     7
 10
-0.6610493404
 20
1.19294489
 30
0.0
  0
SEQEND
  5
6BC
  8
0
  6
CONTINUOUS
 62
     7
  0
POLYLINE
  5
25A
  8
0
  6
CONTINUOUS
 62
     7
 66
     1
 10
0.0
 20
0.0
 30
0.0
 70
   128
  0
VERTEX
  5
60B
  8
0
  6
CONTINUOUS
 62
     7
 10
-0.6596334264
 20
1.2366170824
 30
0.0
  0
VERTEX
  5
60C
  8
0
  6
CONTINUOUS
 62
     7
 10
-0.6536144141
 20
1.2362314062
 30
0.0
  0
VERTEX
  5
60D
  8
0
  6
CONTINUOUS
 62
     7
 10
-0.6491130137
 20
1.2347786039
 30
0.0
  0
SEQEND
  5
6BD
  8
0
  6
CONTINUOUS
 62
     7
  0
POLYLINE
  5
25E
  8
0
  6
CONTINUOUS
 62
     7
 66
     1
 10
0.0
 20
0.0
 30
0.0
 70
   128
  0
VERTEX
  5
60E
  8
0
  6
CONTINUOUS
 62
     7
 10
-0.9631079474
 20
1.8914997244
 30
0.0
  0
VERTEX
  5
60F
  8
0
  6
CONTINUOUS
 62
     7
 10
-0.9553692173
 20
1.891003855
 30
0.0
  0
VERTEX
  5
610
  8
0
  6
CONTINUOUS
 62
     7
 10
-0.9495817025
 20
1.8891359663
 30
0.0
  0
SEQEND
  5
6BE
  8
0
  6
CONTINUOUS
 62
     7
  0
POLYLINE
  5
25F
  8
0
  6
CONTINUOUS
 62
     7
 66
     1
 10
0.0
 20
0.0
 30
0.0
 70
   128
  0
VERTEX
  5
611
  8
0
  6
CONTINUOUS
 62
     7
 10
-0.9488180039
 20
1.8381863577
 30
0.0
  0
VERTEX
  5
612
  8
0
  6
CONTINUOUS
 62
     7
 10
-0.9576557228
 20
1.8356074134
 30
0.0
  0
VERTEX
  5
613
  8
0
  6
CONTINUOUS
 62
     7
 10
-0.9649284083
 20
1.8353497628
 30
0.0
  0
SEQEND
  5
6BF
  8
0
  6
CONTINUOUS
 62
     7
  0
LINE
  5
265
  8
0
  6
CONTINUOUS
 62
     7
 10
-0.25
 20
0.87
 30
0.0
 11
-0.06
 21
0.87
 31
0.0
  0
LINE
  5
266
  8
0
  6
CONTINUOUS
 62
     7
 10
-0.47
 20
0.53
 30
0.0
 11
-0.47
 21
0.65
 31
0.0
  0
LINE
  5
267
  8
0
  6
CONTINUOUS
 62
     7
 10
-1.74
 20
0.5
 30
0.0
 11
-0.5
 21
0.5
 31
0.0
  0
LINE
  5
268
  8
0
  6
CONTINUOUS
 62
     7
 10
-1.77
 20
0.65
 30
0.0
 11
-1.77
 21
0.53
 31
0.0
  0
LINE
  5
269
  8
0
  6
CONTINUOUS
 62
     7
 10
-1.99
 20
4.8125
 30
0.0
 11
-1.99
 21
0.8981934729
 31
0.0
  0
LINE
  5
26A
  8
0
  6
CONTINUOUS
 62
     7
 10
-1.875
 20
4.8425
 30
0.0
 11
-1.96
 21
4.8425
 31
0.0
  0
LINE
  5
26B
  8
0
  6
CONTINUOUS
 62
     7
 10
-1.655
 20
5.145
 30
0.0
 11
-1.655
 21
5.0625
 31
0.0
  0
LINE
  5
26C
  8
0
  6
CONTINUOUS
 62
     7
 10
-0.06
 20
5.175
 30
0.0
 11
-1.625
 21
5.175
 31
0.0
  0
LINE
  5
26D
  8
0
  6
CONTINUOUS
 62
     7
 10
-0.03
 20
0.9
 30
0.0
 11
-0.03
 21
5.145
 31
0.0
  0
LINE
  5
26E
  8
0
  6
CONTINUOUS
 62
     7
 10
-1.5587482243
 20
3.9820067225
 30
0.0
 11
-1.5587339436
 21
3.98203498
 31
0.0
  0
LINE
  5
26F
  8
0
  6
CONTINUOUS
 62
     7
 10
-1.4917690259
 20
3.970126966
 30
0.0
 11
-1.4917407684
 21
3.8605994122
 31
0.0
  0
LINE
  5
270
  8
0
  6
CONTINUOUS
 62
     7
 10
-1.4756747844
 20
3.8593906646
 30
0.0
 11
-1.4756747844
 21
3.9451130736
 31
0.0
  0
LINE
  5
271
  8
0
  6
CONTINUOUS
 62
     7
 10
-1.4756747844
 20
3.9451130736
 30
0.0
 11
-1.4175206032
 21
3.8552803705
 31
0.0
  0
LINE
  5
272
  8
0
  6
CONTINUOUS
 62
     7
 10
-1.4014828767
 20
3.8591926687
 30
0.0
 11
-1.4014546192
 21
3.9705262726
 31
0.0
  0
LINE
  5
273
  8
0
  6
CONTINUOUS
 62
     7
 10
-1.4175488331
 20
3.9697875444
 30
0.0
 11
-1.4175206032
 21
3.8854216065
 31
0.0
  0
LINE
  5
274
  8
0
  6
CONTINUOUS
 62
     7
 10
-1.4175206032
 20
3.8854216065
 30
0.0
 11
-1.4758675045
 21
3.9746633049
 31
0.0
  0
LINE
  5
275
  8
0
  6
CONTINUOUS
 62
     7
 10
-1.6121505581
 20
3.1520067225
 30
0.0
 11
-1.6121362774
 21
3.15203498
 31
0.0
  0
LINE
  5
276
  8
0
  6
CONTINUOUS
 62
     7
 10
-1.4673023846
 20
3.1501964739
 30
0.0
 11
-1.5336677348
 21
3.1502247314
 31
0.0
  0
LINE
  5
277
  8
0
  6
CONTINUOUS
 62
     7
 10
-1.5451713597
 20
3.1393066971
 30
0.0
 11
-1.5451431022
 21
3.0306580817
 31
0.0
  0
LINE
  5
278
  8
0
  6
CONTINUOUS
 62
     7
 10
-1.5290771182
 20
3.0306352106
 30
0.0
 11
-1.5290771182
 21
3.0852820627
 31
0.0
  0
LINE
  5
279
  8
0
  6
CONTINUOUS
 62
     7
 10
-1.5290771182
 20
3.0852820627
 30
0.0
 11
-1.4856739109
 21
3.0852820627
 31
0.0
  0
LINE
  5
27A
  8
0
  6
CONTINUOUS
 62
     7
 10
-1.4850937341
 20
3.1013480467
 30
0.0
 11
-1.5290771182
 21
3.1013480467
 31
0.0
  0
LINE
  5
27B
  8
0
  6
CONTINUOUS
 62
     7
 10
-1.5290771182
 20
3.1013480467
 30
0.0
 11
-1.5290771182
 21
3.1341587474
 31
0.0
  0
LINE
  5
27C
  8
0
  6
CONTINUOUS
 62
     7
 10
-1.5290771182
 20
3.1341587474
 30
0.0
 11
-1.4672959762
 21
3.1341587474
 31
0.0
  0
LINE
  5
27D
  8
0
  6
CONTINUOUS
 62
     7
 10
-1.3586874683
 20
3.1501964739
 30
0.0
 11
-1.4250528185
 21
3.1502247314
 31
0.0
  0
LINE
  5
27E
  8
0
  6
CONTINUOUS
 62
     7
 10
-1.4365564434
 20
3.1393066971
 30
0.0
 11
-1.4365281859
 21
3.0306580817
 31
0.0
  0
LINE
  5
27F
  8
0
  6
CONTINUOUS
 62
     7
 10
-1.4204622019
 20
3.0306352106
 30
0.0
 11
-1.4204622019
 21
3.0852820627
 31
0.0
  0
LINE
  5
280
  8
0
  6
CONTINUOUS
 62
     7
 10
-1.4204622019
 20
3.0852820627
 30
0.0
 11
-1.3770589946
 21
3.0852820627
 31
0.0
  0
LINE
  5
281
  8
0
  6
CONTINUOUS
 62
     7
 10
-1.3764788179
 20
3.1013480467
 30
0.0
 11
-1.4204622019
 21
3.1013480467
 31
0.0
  0
LINE
  5
282
  8
0
  6
CONTINUOUS
 62
     7
 10
-1.4204622019
 20
3.1013480467
 30
0.0
 11
-1.4204622019
 21
3.1341587474
 31
0.0
  0
LINE
  5
283
  8
0
  6
CONTINUOUS
 62
     7
 10
-1.4204622019
 20
3.1341587474
 30
0.0
 11
-1.3586810599
 21
3.1341587474
 31
0.0
  0
LINE
  5
284
  8
0
  6
CONTINUOUS
 62
     7
 10
-0.6825183591
 20
3.9801964739
 30
0.0
 11
-0.7155987354
 21
3.9802247314
 31
0.0
  0
LINE
  5
285
  8
0
  6
CONTINUOUS
 62
     7
 10
-0.7274351526
 20
3.9689389904
 30
0.0
 11
-0.7274068951
 21
3.8614439886
 31
0.0
  0
LINE
  5
286
  8
0
  6
CONTINUOUS
 62
     7
 10
-0.7113409111
 20
3.8606634957
 30
0.0
 11
-0.7113409111
 21
3.9044205711
 31
0.0
  0
LINE
  5
287
  8
0
  6
CONTINUOUS
 62
     7
 10
-0.7113409111
 20
3.9044205711
 30
0.0
 11
-0.6940311546
 21
3.9044205711
 31
0.0
  0
LINE
  5
288
  8
0
  6
CONTINUOUS
 62
     7
 10
-0.6940311546
 20
3.9044205711
 30
0.0
 11
-0.6576611675
 21
3.8552495442
 31
0.0
  0
LINE
  5
289
  8
0
  6
CONTINUOUS
 62
     7
 10
-0.6448708452
 20
3.8647082699
 30
0.0
 11
-0.6741348828
 21
3.9049943394
 31
0.0
  0
LINE
  5
28A
  8
0
  6
CONTINUOUS
 62
     7
 10
-0.5441757665
 20
3.9801964739
 30
0.0
 11
-0.6117657746
 21
3.9802247314
 31
0.0
  0
LINE
  5
28B
  8
0
  6
CONTINUOUS
 62
     7
 10
-0.6224407336
 20
3.9697592593
 30
0.0
 11
-0.622412476
 21
3.8607598419
 31
0.0
  0
LINE
  5
28C
  8
0
  6
CONTINUOUS
 62
     7
 10
-0.6121732297
 20
3.8501131405
 30
0.0
 11
-0.5449563699
 21
3.8501131405
 31
0.0
  0
LINE
  5
28D
  8
0
  6
CONTINUOUS
 62
     7
 10
-0.5440060557
 20
3.8661790969
 30
0.0
 11
-0.606346492
 21
3.8661790969
 31
0.0
  0
LINE
  5
28E
  8
0
  6
CONTINUOUS
 62
     7
 10
-0.606346492
 20
3.8661790969
 30
0.0
 11
-0.606346492
 21
3.9152820627
 31
0.0
  0
LINE
  5
28F
  8
0
  6
CONTINUOUS
 62
     7
 10
-0.606346492
 20
3.9152820627
 30
0.0
 11
-0.5621612449
 21
3.9152820627
 31
0.0
  0
LINE
  5
290
  8
0
  6
CONTINUOUS
 62
     7
 10
-0.5614014134
 20
3.9313480467
 30
0.0
 11
-0.606346492
 21
3.9313480467
 31
0.0
  0
LINE
  5
291
  8
0
  6
CONTINUOUS
 62
     7
 10
-0.606346492
 20
3.9313480467
 30
0.0
 11
-0.606346492
 21
3.9641587474
 31
0.0
  0
LINE
  5
292
  8
0
  6
CONTINUOUS
 62
     7
 10
-0.606346492
 20
3.9641587474
 30
0.0
 11
-0.5449563699
 21
3.9641587474
 31
0.0
  0
LINE
  5
293
  8
0
  6
CONTINUOUS
 62
     7
 10
-0.410896213
 20
3.861992897
 30
0.0
 11
-0.4531142069
 21
3.9722505609
 31
0.0
  0
LINE
  5
294
  8
0
  6
CONTINUOUS
 62
     7
 10
-0.4703232805
 20
3.9740303146
 30
0.0
 11
-0.5121582097
 21
3.8633473517
 31
0.0
  0
LINE
  5
295
  8
0
  6
CONTINUOUS
 62
     7
 10
-0.4973072987
 20
3.8556287418
 30
0.0
 11
-0.4910431359
 21
3.8718360962
 31
0.0
  0
LINE
  5
296
  8
0
  6
CONTINUOUS
 62
     7
 10
-0.4910431359
 20
3.8718360962
 30
0.0
 11
-0.432390153
 21
3.8718360962
 31
0.0
  0
LINE
  5
297
  8
0
  6
CONTINUOUS
 62
     7
 10
-0.432390153
 20
3.8718360962
 30
0.0
 11
-0.4267203646
 21
3.8565944139
 31
0.0
  0
LINE
  5
298
  8
0
  6
CONTINUOUS
 62
     7
 10
-0.3806594043
 20
3.8501131405
 30
0.0
 11
-0.3530404621
 21
3.8501131405
 31
0.0
  0
LINE
  5
299
  8
0
  6
CONTINUOUS
 62
     7
 10
-0.3534491049
 20
3.9801964739
 30
0.0
 11
-0.3802475296
 21
3.9802247314
 31
0.0
  0
LINE
  5
29A
  8
0
  6
CONTINUOUS
 62
     7
 10
-0.3907289121
 20
3.9700703957
 30
0.0
 11
-0.3907006546
 21
3.8619213003
 31
0.0
  0
LINE
  5
29B
  8
0
  6
CONTINUOUS
 62
     7
 10
-0.281095731
 20
3.9675247336
 30
0.0
 11
-0.2806815361
 21
3.9667606483
 31
0.0
  0
LINE
  5
29C
  8
0
  6
CONTINUOUS
 62
     7
 10
-0.2806815361
 20
3.9667606483
 30
0.0
 11
-0.2458807662
 21
3.9016498709
 31
0.0
  0
LINE
  5
29D
  8
0
  6
CONTINUOUS
 62
     7
 10
-0.2458807662
 20
3.9016498709
 30
0.0
 11
-0.2458807662
 21
3.8592292129
 31
0.0
  0
LINE
  5
29E
  8
0
  6
CONTINUOUS
 62
     7
 10
-0.2298147823
 20
3.8598149417
 30
0.0
 11
-0.2298147823
 21
3.9016498709
 31
0.0
  0
LINE
  5
29F
  8
0
  6
CONTINUOUS
 62
     7
 10
-0.2298147823
 20
3.9016498709
 30
0.0
 11
-0.1959915621
 21
3.9659714268
 31
0.0
  0
LINE
  5
2A0
  8
0
  6
CONTINUOUS
 62
     7
 10
-0.1959915621
 20
3.9659714268
 30
0.0
 11
-0.1956005422
 21
3.9665633429
 31
0.0
  0
LINE
  5
2A1
  8
0
  6
CONTINUOUS
 62
     7
 10
-0.2097040517
 20
3.9746525875
 30
0.0
 11
-0.2379441343
 21
3.9213804095
 31
0.0
  0
LINE
  5
2A2
  8
0
  6
CONTINUOUS
 62
     7
 10
-0.2379441343
 20
3.9213804095
 30
0.0
 11
-0.2658227804
 21
3.9738636422
 31
0.0
  0
LINE
  5
2A3
  8
0
  6
CONTINUOUS
 62
     7
 10
-1.0642897007
 20
4.26713271
 30
0.0
 11
-1.1246011205
 21
4.4246436584
 31
0.0
  0
LINE
  5
2A4
  8
0
  6
CONTINUOUS
 62
     7
 10
-1.1491855113
 20
4.4271861637
 30
0.0
 11
-1.208949696
 21
4.2690676452
 31
0.0
  0
LINE
  5
2A5
  8
0
  6
CONTINUOUS
 62
     7
 10
-1.1877341089
 20
4.2580410597
 30
0.0
 11
-1.1787853047
 21
4.2811944231
 31
0.0
  0
LINE
  5
2A6
  8
0
  6
CONTINUOUS
 62
     7
 10
-1.1787853047
 20
4.2811944231
 30
0.0
 11
-1.0949953292
 21
4.2811944231
 31
0.0
  0
LINE
  5
2A7
  8
0
  6
CONTINUOUS
 62
     7
 10
-1.0949953292
 20
4.2811944231
 30
0.0
 11
-1.0868956315
 21
4.2594205913
 31
0.0
  0
LINE
  5
2A8
  8
0
  6
CONTINUOUS
 62
     7
 10
-0.971433645
 20
4.4359949627
 30
0.0
 11
-1.0169108772
 21
4.4360353305
 31
0.0
  0
LINE
  5
2A9
  8
0
  6
CONTINUOUS
 62
     7
 10
-1.0354792709
 20
4.419145104
 30
0.0
 11
-1.035438903
 21
4.2630301028
 31
0.0
  0
LINE
  5
2AA
  8
0
  6
CONTINUOUS
 62
     7
 10
-1.0124874973
 20
4.2646678626
 30
0.0
 11
-1.0124874973
 21
4.3277436729
 31
0.0
  0
LINE
  5
2AB
  8
0
  6
CONTINUOUS
 62
     7
 10
-1.0124874973
 20
4.3277436729
 30
0.0
 11
-0.9728441135
 21
4.3277436729
 31
0.0
  0
LINE
  5
2AC
  8
0
  6
CONTINUOUS
 62
     7
 10
-0.8854872436
 20
4.4227413568
 30
0.0
 11
-0.8854468757
 21
4.3183979378
 31
0.0
  0
LINE
  5
2AD
  8
0
  6
CONTINUOUS
 62
     7
 10
-0.7565070305
 20
4.3172378053
 30
0.0
 11
-0.7564666626
 21
4.4207812854
 31
0.0
  0
LINE
  5
2AE
  8
0
  6
CONTINUOUS
 62
     7
 10
-0.7794583968
 20
4.4207613974
 30
0.0
 11
-0.7794180683
 21
4.3198043025
 31
0.0
  0
LINE
  5
2AF
  8
0
  6
CONTINUOUS
 62
     7
 10
-0.86249547
 20
4.3189349134
 30
0.0
 11
-0.86249547
 21
4.4221876501
 31
0.0
  0
LINE
  5
2B0
  8
0
  6
CONTINUOUS
 62
     7
 10
-1.1746505581
 20
0.8395067225
 30
0.0
 11
-1.1746362774
 21
0.83953498
 31
0.0
  0
LINE
  5
2B1
  8
0
  6
CONTINUOUS
 62
     7
 10
-1.0298023846
 20
0.8376964739
 30
0.0
 11
-1.0961677348
 21
0.8377247314
 31
0.0
  0
LINE
  5
2B2
  8
0
  6
CONTINUOUS
 62
     7
 10
-1.1076713597
 20
0.8268066971
 30
0.0
 11
-1.1076431022
 21
0.7181580817
 31
0.0
  0
LINE
  5
2B3
  8
0
  6
CONTINUOUS
 62
     7
 10
-1.0915771182
 20
0.7181352106
 30
0.0
 11
-1.0915771182
 21
0.7727820627
 31
0.0
  0
LINE
  5
2B4
  8
0
  6
CONTINUOUS
 62
     7
 10
-1.0915771182
 20
0.7727820627
 30
0.0
 11
-1.0481739109
 21
0.7727820627
 31
0.0
  0
LINE
  5
2B5
  8
0
  6
CONTINUOUS
 62
     7
 10
-1.0475937341
 20
0.7888480467
 30
0.0
 11
-1.0915771182
 21
0.7888480467
 31
0.0
  0
LINE
  5
2B6
  8
0
  6
CONTINUOUS
 62
     7
 10
-1.0915771182
 20
0.7888480467
 30
0.0
 11
-1.0915771182
 21
0.8216587474
 31
0.0
  0
LINE
  5
2B7
  8
0
  6
CONTINUOUS
 62
     7
 10
-1.0915771182
 20
0.8216587474
 30
0.0
 11
-1.0297959762
 21
0.8216587474
 31
0.0
  0
LINE
  5
2B8
  8
0
  6
CONTINUOUS
 62
     7
 10
-0.9211874683
 20
0.8376964739
 30
0.0
 11
-0.9875528185
 21
0.8377247314
 31
0.0
  0
LINE
  5
2B9
  8
0
  6
CONTINUOUS
 62
     7
 10
-0.9990564434
 20
0.8268066971
 30
0.0
 11
-0.9990281859
 21
0.7181580817
 31
0.0
  0
LINE
  5
2BA
  8
0
  6
CONTINUOUS
 62
     7
 10
-0.9829622019
 20
0.7181352106
 30
0.0
 11
-0.9829622019
 21
0.7727820627
 31
0.0
  0
LINE
  5
2BB
  8
0
  6
CONTINUOUS
 62
     7
 10
-0.9829622019
 20
0.7727820627
 30
0.0
 11
-0.9395589946
 21
0.7727820627
 31
0.0
  0
LINE
  5
2BC
  8
0
  6
CONTINUOUS
 62
     7
 10
-0.9389788179
 20
0.7888480467
 30
0.0
 11
-0.9829622019
 21
0.7888480467
 31
0.0
  0
LINE
  5
2BD
  8
0
  6
CONTINUOUS
 62
     7
 10
-0.9829622019
 20
0.7888480467
 30
0.0
 11
-0.9829622019
 21
0.8216587474
 31
0.0
  0
LINE
  5
2BE
  8
0
  6
CONTINUOUS
 62
     7
 10
-0.9829622019
 20
0.8216587474
 30
0.0
 11
-0.9211810599
 21
0.8216587474
 31
0.0
  0
LINE
  5
2BF
  8
0
  6
CONTINUOUS
 62
     7
 10
-1.5137890665
 20
1.2439429875
 30
0.0
 11
-1.513760809
 21
1.1321993596
 31
0.0
  0
LINE
  5
2C0
  8
0
  6
CONTINUOUS
 62
     7
 10
-1.5048226788
 20
1.1225714755
 30
0.0
 11
-1.4355733222
 21
1.1225714755
 31
0.0
  0
LINE
  5
2C1
  8
0
  6
CONTINUOUS
 62
     7
 10
-1.4342229833
 20
1.1368271833
 30
0.0
 11
-1.4995050736
 21
1.1368271833
 31
0.0
  0
LINE
  5
2C2
  8
0
  6
CONTINUOUS
 62
     7
 10
-1.4995050736
 20
1.1368271833
 30
0.0
 11
-1.4995050736
 21
1.2439463574
 31
0.0
  0
LINE
  5
2C3
  8
0
  6
CONTINUOUS
 62
     7
 10
-0.6602573567
 20
1.2526548089
 30
0.0
 11
-0.6933377329
 21
1.2526830664
 31
0.0
  0
LINE
  5
2C4
  8
0
  6
CONTINUOUS
 62
     7
 10
-0.7051741502
 20
1.2413973254
 30
0.0
 11
-0.7051458927
 21
1.1339023236
 31
0.0
  0
LINE
  5
2C5
  8
0
  6
CONTINUOUS
 62
     7
 10
-0.6890799087
 20
1.1331218307
 30
0.0
 11
-0.6890799087
 21
1.1768789061
 31
0.0
  0
LINE
  5
2C6
  8
0
  6
CONTINUOUS
 62
     7
 10
-0.6890799087
 20
1.1768789061
 30
0.0
 11
-0.6717701522
 21
1.1768789061
 31
0.0
  0
LINE
  5
2C7
  8
0
  6
CONTINUOUS
 62
     7
 10
-0.6717701522
 20
1.1768789061
 30
0.0
 11
-0.6354001651
 21
1.1277078792
 31
0.0
  0
LINE
  5
2C8
  8
0
  6
CONTINUOUS
 62
     7
 10
-0.6226098427
 20
1.1371666049
 30
0.0
 11
-0.6518738804
 21
1.1774526744
 31
0.0
  0
LINE
  5
2C9
  8
0
  6
CONTINUOUS
 62
     7
 10
-1.5564311807
 20
1.9121196584
 30
0.0
 11
-1.6433326197
 21
1.9121559895
 31
0.0
  0
LINE
  5
2CA
  8
0
  6
CONTINUOUS
 62
     7
 10
-1.6570575669
 20
1.8987003825
 30
0.0
 11
-1.6570212358
 21
1.7585582745
 31
0.0
  0
LINE
  5
2CB
  8
0
  6
CONTINUOUS
 62
     7
 10
-1.6438564905
 20
1.7448696584
 30
0.0
 11
-1.5574348137
 21
1.7448696584
 31
0.0
  0
LINE
  5
2CC
  8
0
  6
CONTINUOUS
 62
     7
 10
-1.5562129811
 20
1.7655258881
 30
0.0
 11
-1.6363649706
 21
1.7655258881
 31
0.0
  0
LINE
  5
2CD
  8
0
  6
CONTINUOUS
 62
     7
 10
-1.6363649706
 20
1.7655258881
 30
0.0
 11
-1.6363649706
 21
1.8286582726
 31
0.0
  0
LINE
  5
2CE
  8
0
  6
CONTINUOUS
 62
     7
 10
-1.6363649706
 20
1.8286582726
 30
0.0
 11
-1.5795553672
 21
1.8286582726
 31
0.0
  0
LINE
  5
2CF
  8
0
  6
CONTINUOUS
 62
     7
 10
-1.578578441
 20
1.8493145378
 30
0.0
 11
-1.6363649706
 21
1.8493145378
 31
0.0
  0
LINE
  5
2D0
  8
0
  6
CONTINUOUS
 62
     7
 10
-1.6363649706
 20
1.8493145378
 30
0.0
 11
-1.6363649706
 21
1.8914997244
 31
0.0
  0
LINE
  5
2D1
  8
0
  6
CONTINUOUS
 62
     7
 10
-1.6363649706
 20
1.8914997244
 30
0.0
 11
-1.5574348137
 21
1.8914997244
 31
0.0
  0
LINE
  5
2D2
  8
0
  6
CONTINUOUS
 62
     7
 10
-1.5174098174
 20
1.8991731483
 30
0.0
 11
-1.5173734863
 21
1.7583520077
 31
0.0
  0
LINE
  5
2D3
  8
0
  6
CONTINUOUS
 62
     7
 10
-1.4967172211
 20
1.7567979037
 30
0.0
 11
-1.4967172211
 21
1.8670124296
 31
0.0
  0
LINE
  5
2D4
  8
0
  6
CONTINUOUS
 62
     7
 10
-1.4967172211
 20
1.8670124296
 30
0.0
 11
-1.4219475596
 21
1.7515132399
 31
0.0
  0
LINE
  5
2D5
  8
0
  6
CONTINUOUS
 62
     7
 10
-1.4013276256
 20
1.7565433375
 30
0.0
 11
-1.4012912945
 21
1.8996865425
 31
0.0
  0
LINE
  5
2D6
  8
0
  6
CONTINUOUS
 62
     7
 10
-1.4219838552
 20
1.8987367491
 30
0.0
 11
-1.4219475596
 21
1.7902662575
 31
0.0
  0
LINE
  5
2D7
  8
0
  6
CONTINUOUS
 62
     7
 10
-1.4219475596
 20
1.7902662575
 30
0.0
 11
-1.4969650041
 21
1.9050055841
 31
0.0
  0
LINE
  5
2D8
  8
0
  6
CONTINUOUS
 62
     7
 10
-1.2616798761
 20
1.7865821503
 30
0.0
 11
-1.261643545
 21
1.8259877424
 31
0.0
  0
LINE
  5
2D9
  8
0
  6
CONTINUOUS
 62
     7
 10
-1.2751718852
 20
1.8400046878
 30
0.0
 11
-1.299534596
 21
1.8400046878
 31
0.0
  0
LINE
  5
2DA
  8
0
  6
CONTINUOUS
 62
     7
 10
-1.300555773
 20
1.8193120916
 30
0.0
 11
-1.2822997746
 21
1.8193484227
 31
0.0
  0
LINE
  5
2DB
  8
0
  6
CONTINUOUS
 62
     7
 10
-1.2822997746
 20
1.8193484227
 30
0.0
 11
-1.2822997746
 21
1.7932000549
 31
0.0
  0
LINE
  5
2DC
  8
0
  6
CONTINUOUS
 62
     7
 10
-1.0959572733
 20
1.9121196584
 30
0.0
 11
-1.0959367461
 21
1.9121559895
 31
0.0
  0
LINE
  5
2DD
  8
0
  6
CONTINUOUS
 62
     7
 10
-0.9639101435
 20
1.9121196584
 30
0.0
 11
-1.0064420559
 21
1.9121559895
 31
0.0
  0
LINE
  5
2DE
  8
0
  6
CONTINUOUS
 62
     7
 10
-1.0216603066
 20
1.8976457511
 30
0.0
 11
-1.0216239755
 21
1.7594378917
 31
0.0
  0
LINE
  5
2DF
  8
0
  6
CONTINUOUS
 62
     7
 10
-1.0009677104
 20
1.7584344008
 30
0.0
 11
-1.0009677104
 21
1.8146934977
 31
0.0
  0
LINE
  5
2E0
  8
0
  6
CONTINUOUS
 62
     7
 10
-1.0009677104
 20
1.8146934977
 30
0.0
 11
-0.9787123092
 21
1.8146934977
 31
0.0
  0
LINE
  5
2E1
  8
0
  6
CONTINUOUS
 62
     7
 10
-0.9787123092
 20
1.8146934977
 30
0.0
 11
-0.9319508972
 21
1.751473606
 31
0.0
  0
LINE
  5
2E2
  8
0
  6
CONTINUOUS
 62
     7
 10
-0.7543294194
 20
1.760143631
 30
0.0
 11
-0.8086096973
 21
1.9019034846
 31
0.0
  0
LINE
  5
2E3
  8
0
  6
CONTINUOUS
 62
     7
 10
-0.8307356491
 20
1.9041917393
 30
0.0
 11
-0.8845234152
 21
1.7618850727
 31
0.0
  0
LINE
  5
2E4
  8
0
  6
CONTINUOUS
 62
     7
 10
-0.8654293868
 20
1.7519611457
 30
0.0
 11
-0.8573754631
 21
1.7727991728
 31
0.0
  0
LINE
  5
2E5
  8
0
  6
CONTINUOUS
 62
     7
 10
-0.8573754631
 20
1.7727991728
 30
0.0
 11
-0.7819644851
 21
1.7727991728
 31
0.0
  0
LINE
  5
2E6
  8
0
  6
CONTINUOUS
 62
     7
 10
-0.7819644851
 20
1.7727991728
 30
0.0
 11
-0.7746747572
 21
1.7532027242
 31
0.0
  0
LINE
  5
2E7
  8
0
  6
CONTINUOUS
 62
     7
 10
-0.7284000326
 20
1.8991731483
 30
0.0
 11
-0.7283637015
 21
1.7583520077
 31
0.0
  0
LINE
  5
2E8
  8
0
  6
CONTINUOUS
 62
     7
 10
-0.7077074364
 20
1.7567979037
 30
0.0
 11
-0.7077074364
 21
1.8670124296
 31
0.0
  0
LINE
  5
2E9
  8
0
  6
CONTINUOUS
 62
     7
 10
-0.7077074364
 20
1.8670124296
 30
0.0
 11
-0.6329377749
 21
1.7515132399
 31
0.0
  0
LINE
  5
2EA
  8
0
  6
CONTINUOUS
 62
     7
 10
-0.6123178408
 20
1.7565433375
 30
0.0
 11
-0.6122815097
 21
1.8996865425
 31
0.0
  0
LINE
  5
2EB
  8
0
  6
CONTINUOUS
 62
     7
 10
-0.6329740705
 20
1.8987367491
 30
0.0
 11
-0.6329377749
 21
1.7902662575
 31
0.0
  0
LINE
  5
2EC
  8
0
  6
CONTINUOUS
 62
     7
 10
-0.6329377749
 20
1.7902662575
 30
0.0
 11
-0.7079552194
 21
1.9050055841
 31
0.0
  0
LINE
  5
2ED
  8
0
  6
CONTINUOUS
 62
     7
 10
-0.5864248206
 20
1.8984094497
 30
0.0
 11
-0.5863884895
 21
1.7565789938
 31
0.0
  0
LINE
  5
2EE
  8
0
  6
CONTINUOUS
 62
     7
 10
-0.5657322244
 20
1.7563251379
 30
0.0
 11
-0.5657322244
 21
1.8211673565
 31
0.0
  0
LINE
  5
2EF
  8
0
  6
CONTINUOUS
 62
     7
 10
-0.5657322244
 20
1.8211673565
 30
0.0
 11
-0.5436116708
 21
1.8437099615
 31
0.0
  0
LINE
  5
2F0
  8
0
  6
CONTINUOUS
 62
     7
 10
-0.5436116708
 20
1.8437099615
 30
0.0
 11
-0.4973596043
 21
1.7525263907
 31
0.0
  0
LINE
  5
2F1
  8
0
  6
CONTINUOUS
 62
     7
 10
-0.4782705479
 20
1.7616346617
 30
0.0
 11
-0.5282781053
 21
1.8594137987
 31
0.0
  0
LINE
  5
2F2
  8
0
  6
CONTINUOUS
 62
     7
 10
-0.5282781053
 20
1.8594137987
 30
0.0
 11
-0.4943431652
 21
1.8936076377
 31
0.0
  0
LINE
  5
2F3
  8
0
  6
CONTINUOUS
 62
     7
 10
-0.5096912916
 20
1.9079738659
 30
0.0
 11
-0.5657322244
 21
1.8513085924
 31
0.0
  0
LINE
  5
2F4
  8
0
  6
CONTINUOUS
 62
     7
 10
-0.5657322244
 20
1.8513085924
 30
0.0
 11
-0.5657322244
 21
1.8994332548
 31
0.0
  0
LINE
  5
2F5
  8
0
  6
CONTINUOUS
 62
     7
 10
-0.13
 20
2.0688896551
 30
0.0
 11
-1.89
 21
2.0688896551
 31
0.0
  0
LINE
  5
2F6
  8
0
  6
CONTINUOUS
 62
     7
 10
-1.89
 20
2.0688896551
 30
0.0
 11
-1.89
 21
2.0388896551
 31
0.0
  0
LINE
  5
2F7
  8
0
  6
CONTINUOUS
 62
     7
 10
-1.89
 20
2.0388896551
 30
0.0
 11
-0.13
 21
2.0388896551
 31
0.0
  0
LINE
  5
2F8
  8
0
  6
CONTINUOUS
 62
     7
 10
-0.13
 20
2.0388896551
 30
0.0
 11
-0.13
 21
2.0688896551
 31
0.0
  0
LINE
  5
2F9
  8
0
  6
CONTINUOUS
 62
     7
 10
-0.915506197
 20
1.7636348248
 30
0.0
 11
-0.9531313883
 21
1.8154311999
 31
0.0
  0
LINE
  5
2FA
  8
0
  6
CONTINUOUS
 62
     7
 10
-1.1746505581
 20
0.8234407661
 30
0.0
 11
-1.1746362774
 21
0.823468996
 31
0.0
  0
LINE
  5
2FB
  8
0
  6
CONTINUOUS
 62
     7
 10
-1.5587482243
 20
3.9659407661
 30
0.0
 11
-1.5587339436
 21
3.965968996
 31
0.0
  0
LINE
  5
2FC
  8
0
  6
CONTINUOUS
 62
     7
 10
-1.6121505581
 20
3.1359407661
 30
0.0
 11
-1.6121362774
 21
3.135968996
 31
0.0
  0
LINE
  5
2FD
  8
0
  6
CONTINUOUS
 62
     7
 10
-0.7113409111
 20
3.9641587474
 30
0.0
 11
-0.6818944288
 21
3.9641587474
 31
0.0
  0
LINE
  5
2FE
  8
0
  6
CONTINUOUS
 62
     7
 10
-0.7113409111
 20
3.920486555
 30
0.0
 11
-0.7113409111
 21
3.9641587474
 31
0.0
  0
LINE
  5
2FF
  8
0
  6
CONTINUOUS
 62
     7
 10
-0.6833103429
 20
3.920486555
 30
0.0
 11
-0.7113409111
 21
3.920486555
 31
0.0
  0
LINE
  5
300
  8
0
  6
CONTINUOUS
 62
     7
 10
-0.4619121544
 20
3.9489751546
 30
0.0
 11
-0.4388419811
 21
3.8879020802
 31
0.0
  0
LINE
  5
301
  8
0
  6
CONTINUOUS
 62
     7
 10
-0.4849823276
 20
3.8879020802
 30
0.0
 11
-0.4619121544
 21
3.9489751546
 31
0.0
  0
LINE
  5
302
  8
0
  6
CONTINUOUS
 62
     7
 10
-0.4388419811
 20
3.8879020802
 30
0.0
 11
-0.4849823276
 21
3.8879020802
 31
0.0
  0
LINE
  5
303
  8
0
  6
CONTINUOUS
 62
     7
 10
-0.3746346706
 20
3.9641587474
 30
0.0
 11
-0.3528441511
 21
3.9641587474
 31
0.0
  0
LINE
  5
304
  8
0
  6
CONTINUOUS
 62
     7
 10
-0.3746346706
 20
3.8661790969
 30
0.0
 11
-0.3746346706
 21
3.9641587474
 31
0.0
  0
LINE
  5
305
  8
0
  6
CONTINUOUS
 62
     7
 10
-0.3530531131
 20
3.8661790969
 30
0.0
 11
-0.3746346706
 21
3.8661790969
 31
0.0
  0
LINE
  5
306
  8
0
  6
CONTINUOUS
 62
     7
 10
-1.1371696169
 20
4.391393078
 30
0.0
 11
-1.1042122265
 21
4.3041458288
 31
0.0
  0
LINE
  5
307
  8
0
  6
CONTINUOUS
 62
     7
 10
-1.1701270073
 20
4.3041458288
 30
0.0
 11
-1.1371696169
 21
4.391393078
 31
0.0
  0
LINE
  5
308
  8
0
  6
CONTINUOUS
 62
     7
 10
-1.1042122265
 20
4.3041458288
 30
0.0
 11
-1.1701270073
 21
4.3041458288
 31
0.0
  0
LINE
  5
309
  8
0
  6
CONTINUOUS
 62
     7
 10
-1.0124874973
 20
4.3506950786
 30
0.0
 11
-1.0124874973
 21
4.4130839248
 31
0.0
  0
LINE
  5
30A
  8
0
  6
CONTINUOUS
 62
     7
 10
-0.970585091
 20
4.3506950786
 30
0.0
 11
-1.0124874973
 21
4.3506950786
 31
0.0
  0
LINE
  5
30B
  8
0
  6
CONTINUOUS
 62
     7
 10
-1.0124874973
 20
4.4130839248
 30
0.0
 11
-0.9722777795
 21
4.4130839248
 31
0.0
  0
LINE
  5
30C
  8
0
  6
CONTINUOUS
 62
     7
 10
-0.6890799087
 20
1.2366170824
 30
0.0
 11
-0.6596334264
 21
1.2366170824
 31
0.0
  0
LINE
  5
30D
  8
0
  6
CONTINUOUS
 62
     7
 10
-0.6890799087
 20
1.19294489
 30
0.0
 11
-0.6890799087
 21
1.2366170824
 31
0.0
  0
LINE
  5
30E
  8
0
  6
CONTINUOUS
 62
     7
 10
-0.6610493404
 20
1.19294489
 30
0.0
 11
-0.6890799087
 21
1.19294489
 31
0.0
  0
LINE
  5
30F
  8
0
  6
CONTINUOUS
 62
     7
 10
-1.0009677104
 20
1.8914997244
 30
0.0
 11
-0.9631079474
 21
1.8914997244
 31
0.0
  0
LINE
  5
310
  8
0
  6
CONTINUOUS
 62
     7
 10
-1.0009677104
 20
1.8353497628
 30
0.0
 11
-1.0009677104
 21
1.8914997244
 31
0.0
  0
LINE
  5
311
  8
0
  6
CONTINUOUS
 62
     7
 10
-0.9649284083
 20
1.8353497628
 30
0.0
 11
-1.0009677104
 21
1.8353497628
 31
0.0
  0
LINE
  5
312
  8
0
  6
CONTINUOUS
 62
     7
 10
-0.819921344
 20
1.8719779623
 30
0.0
 11
-0.7902596927
 21
1.793455438
 31
0.0
  0
LINE
  5
313
  8
0
  6
CONTINUOUS
 62
     7
 10
-0.7902596927
 20
1.793455438
 30
0.0
 11
-0.8495829954
 21
1.793455438
 31
0.0
  0
LINE
  5
314
  8
0
  6
CONTINUOUS
 62
     7
 10
-0.8495829954
 20
1.793455438
 30
0.0
 11
-0.819921344
 21
1.8719779623
 31
0.0
  0
ARC
  5
315
  8
0
  6
CONTINUOUS
 62
     7
 10
-0.25
 20
0.65
 30
0.0
 40
0.2200000000000001
 50
90.0
 51
180.0
  0
ARC
  5
316
  8
0
  6
CONTINUOUS
 62
     7
 10
-0.5
 20
0.53
 30
0.0
 40
0.0300000000000001
 50
270.0
 51
0.0
  0
ARC
  5
317
  8
0
  6
CONTINUOUS
 62
     7
 10
-1.74
 20
0.53
 30
0.0
 40
0.0300000000000001
 50
180.0
 51
270.0
  0
ARC
  5
318
  8
0
  6
CONTINUOUS
 62
     7
 10
-1.99
 20
0.65
 30
0.0
 40
0.2200000000000004
 50
0.0
 51
83.1078974207
  0
ARC
  5
319
  8
0
  6
CONTINUOUS
 62
     7
 10
-1.96
 20
0.8981934729
 30
0.0
 40
0.0299999999999992
 50
180.0
 51
263.1078974207
  0
ARC
  5
31A
  8
0
  6
CONTINUOUS
 62
     7
 10
-1.96
 20
4.8125
 30
0.0
 40
0.0300000000000002
 50
90.0
 51
180.0
  0
ARC
  5
31B
  8
0
  6
CONTINUOUS
 62
     7
 10
-1.875
 20
5.0625
 30
0.0
 40
0.2200000000000006
 50
270.0
 51
0.0
  0
ARC
  5
31C
  8
0
  6
CONTINUOUS
 62
     7
 10
-1.625
 20
5.145
 30
0.0
 40
0.0299999999999996
 50
90.0
 51
180.0
  0
ARC
  5
31D
  8
0
  6
CONTINUOUS
 62
     7
 10
-0.06
 20
5.145
 30
0.0
 40
0.0299999999999994
 50
0.0
 51
90.0
  0
ARC
  5
31E
  8
0
  6
CONTINUOUS
 62
     7
 10
-0.06
 20
0.9
 30
0.0
 40
0.0299999999999998
 50
270.0
 51
0.0
  0
ARC
  5
31F
  8
0
  6
CONTINUOUS
 62
     7
 10
-1.5863276564
 20
3.908710116
 30
0.0
 40
0.0729322198702399
 50
319.4101140845
 51
5.3931328237
  0
ARC
  5
320
  8
0
  6
CONTINUOUS
 62
     7
 10
-1.5851317285
 20
3.9231126507
 30
0.0
 40
0.071811190546979
 50
353.9667888036
 51
43.3303684545
  0
ARC
  5
321
  8
0
  6
CONTINUOUS
 62
     7
 10
-1.529689719
 20
3.9232159707
 30
0.0
 40
0.0745139140197382
 50
142.1209378369
 51
184.1903809427
  0
ARC
  5
322
  8
0
  6
CONTINUOUS
 62
     7
 10
-1.4844243191
 20
3.9727444911
 30
0.0
 40
0.0074548690457376
 50
88.4055979953
 51
158.7652376382
  0
ARC
  5
323
  8
0
  6
CONTINUOUS
 62
     7
 10
-1.4840399677
 20
3.8581633016
 30
0.0
 40
0.0080531411464757
 50
210.5244789554
 51
271.5587741351
  0
ARC
  5
324
  8
0
  6
CONTINUOUS
 62
     7
 10
-1.6397299903
 20
3.078710116
 30
0.0
 40
0.0729322198702455
 50
319.4101140845
 51
5.3931328237
  0
ARC
  5
325
  8
0
  6
CONTINUOUS
 62
     7
 10
-1.6385340624
 20
3.0931126507
 30
0.0
 40
0.071811190546979
 50
353.9667888036
 51
43.3303684545
  0
ARC
  5
326
  8
0
  6
CONTINUOUS
 62
     7
 10
-1.5830920529
 20
3.0932159707
 30
0.0
 40
0.0745139140197373
 50
142.1209378369
 51
184.1903809427
  0
ARC
  5
327
  8
0
  6
CONTINUOUS
 62
     7
 10
-1.5355552667
 20
3.1406941724
 30
0.0
 40
0.0097156745570926
 50
78.7975098713
 51
188.2103611097
  0
ARC
  5
328
  8
0
  6
CONTINUOUS
 62
     7
 10
-1.5373038552
 20
3.0281740367
 30
0.0
 40
0.0080625944496771
 50
205.5603884343
 51
271.1759998401
  0
ARC
  5
329
  8
0
  6
CONTINUOUS
 62
     7
 10
-1.5366940622
 20
3.0274464766
 30
0.0
 40
0.0073467841506427
 50
266.5327460373
 51
342.9252465218
  0
ARC
  5
32A
  8
0
  6
CONTINUOUS
 62
     7
 10
-1.4815624351
 20
3.0928959738
 30
0.0
 40
0.0074213573029867
 50
288.2469373692
 51
2.3627555683
  0
ARC
  5
32B
  8
0
  6
CONTINUOUS
 62
     7
 10
-1.4269403504
 20
3.1406941724
 30
0.0
 40
0.0097156745570926
 50
78.7975098713
 51
188.2103611097
  0
ARC
  5
32C
  8
0
  6
CONTINUOUS
 62
     7
 10
-1.4286889389
 20
3.0281740367
 30
0.0
 40
0.0080625944496766
 50
205.5603884343
 51
271.17599984
  0
ARC
  5
32D
  8
0
  6
CONTINUOUS
 62
     7
 10
-1.4280791459
 20
3.0274464766
 30
0.0
 40
0.0073467841506432
 50
266.5327460373
 51
342.9252465218
  0
ARC
  5
32E
  8
0
  6
CONTINUOUS
 62
     7
 10
-1.3729475188
 20
3.0928959738
 30
0.0
 40
0.0074213573029864
 50
288.2469373692
 51
2.3627555683
  0
ARC
  5
32F
  8
0
  6
CONTINUOUS
 62
     7
 10
-0.7176697332
 20
3.9705469294
 30
0.0
 40
0.0098969128583556
 50
77.9211886908
 51
189.3502200465
  0
ARC
  5
330
  8
0
  6
CONTINUOUS
 62
     7
 10
-0.7198269744
 20
3.8576968617
 30
0.0
 40
0.0076027762765263
 50
192.9239105107
 51
274.0573986087
  0
ARC
  5
331
  8
0
  6
CONTINUOUS
 62
     7
 10
-0.6498229994
 20
3.8586200457
 30
0.0
 40
0.0078379577531078
 50
267.1205613064
 51
359.223502205
  0
ARC
  5
332
  8
0
  6
CONTINUOUS
 62
     7
 10
-0.6797696085
 20
3.9417671671
 30
0.0
 40
0.0372020294009674
 50
278.7117108847
 51
1.4655943858
  0
ARC
  5
333
  8
0
  6
CONTINUOUS
 62
     7
 10
-0.6801864339
 20
3.9426621156
 30
0.0
 40
0.0376067271414075
 50
0.0861646738
 51
93.5550885186
  0
ARC
  5
334
  8
0
  6
CONTINUOUS
 62
     7
 10
-0.5413794695
 20
3.85809188
 30
0.0
 40
0.0079522722132603
 50
359.5756107349
 51
70.4372287466
  0
ARC
  5
335
  8
0
  6
CONTINUOUS
 62
     7
 10
-0.418029589
 20
3.8580373531
 30
0.0
 40
0.0079401995070835
 50
266.3635516807
 51
356.4964964219
  0
ARC
  5
336
  8
0
  6
CONTINUOUS
 62
     7
 10
-0.4626804937
 20
3.9723875016
 30
0.0
 40
0.0078173540663706
 50
87.3465299601
 51
167.86888693
  0
ARC
  5
337
  8
0
  6
CONTINUOUS
 62
     7
 10
-0.5058418509
 20
3.858009572
 30
0.0
 40
0.0079123452169458
 50
183.3143231693
 51
273.6344915658
  0
ARC
  5
338
  8
0
  6
CONTINUOUS
 62
     7
 10
-0.504988538
 20
3.8582083209
 30
0.0
 40
0.0081028183781409
 50
267.5120398857
 51
341.4364807224
  0
ARC
  5
339
  8
0
  6
CONTINUOUS
 62
     7
 10
-0.4186551052
 20
3.858370812
 30
0.0
 40
0.008258571266129
 50
192.4212479253
 51
270.8457816568
  0
ARC
  5
33A
  8
0
  6
CONTINUOUS
 62
     7
 10
-0.3518854014
 20
3.8947436882
 30
0.0
 40
0.0446454919014606
 50
268.517487717
 51
336.5201406788
  0
ARC
  5
33B
  8
0
  6
CONTINUOUS
 62
     7
 10
-0.3701759722
 20
3.9203016732
 30
0.0
 40
0.0680688300541364
 50
356.2483418264
 51
43.3359516909
  0
ARC
  5
33C
  8
0
  6
CONTINUOUS
 62
     7
 10
-0.3817693418
 20
3.9713089083
 30
0.0
 40
0.0090447672076636
 50
80.3137206537
 51
187.8703176831
  0
ARC
  5
33D
  8
0
  6
CONTINUOUS
 62
     7
 10
-0.274769726
 20
3.9721151712
 30
0.0
 40
0.0080876754901905
 50
87.7253205172
 51
177.4526199895
  0
ARC
  5
33E
  8
0
  6
CONTINUOUS
 62
     7
 10
-0.238362161
 20
3.8577520165
 30
0.0
 40
0.0076623451675281
 50
168.8845564424
 51
274.4855637422
  0
ARC
  5
33F
  8
0
  6
CONTINUOUS
 62
     7
 10
-0.2011789432
 20
3.9722941788
 30
0.0
 40
0.007917604426726
 50
2.73969409
 51
93.5636004095
  0
ARC
  5
340
  8
0
  6
CONTINUOUS
 62
     7
 10
-0.2018623465
 20
3.9718818706
 30
0.0
 40
0.0083168030336842
 50
88.6821738255
 51
160.5401105436
  0
ARC
  5
341
  8
0
  6
CONTINUOUS
 62
     7
 10
-1.0744802378
 20
4.261481933
 30
0.0
 40
0.0113431421529763
 50
266.3635516807
 51
356.4964964219
  0
ARC
  5
342
  8
0
  6
CONTINUOUS
 62
     7
 10
-1.1382672445
 20
4.424839288
 30
0.0
 40
0.0111676486662433
 50
87.3465299601
 51
167.86888693
  0
ARC
  5
343
  8
0
  6
CONTINUOUS
 62
     7
 10
-1.1999263262
 20
4.2614422458
 30
0.0
 40
0.0113033503099236
 50
183.3143231693
 51
273.6344915658
  0
ARC
  5
344
  8
0
  6
CONTINUOUS
 62
     7
 10
-1.1987073078
 20
4.2617261727
 30
0.0
 40
0.0115754548259134
 50
267.5120398857
 51
341.4364807224
  0
ARC
  5
345
  8
0
  6
CONTINUOUS
 62
     7
 10
-1.0753738324
 20
4.2619583029
 30
0.0
 40
0.0117979589516118
 50
192.4212479253
 51
270.8457816568
  0
ARC
  5
346
  8
0
  6
CONTINUOUS
 62
     7
 10
-0.9682490397
 20
4.38150185
 30
0.0
 40
0.0539975787037234
 50
283.8630441142
 51
0.8401561092
  0
ARC
  5
347
  8
0
  6
CONTINUOUS
 62
     7
 10
-0.9667561502
 20
4.3833358959
 30
0.0
 40
0.0525092294846165
 50
358.8626333778
 51
70.0099875733
  0
ARC
  5
348
  8
0
  6
CONTINUOUS
 62
     7
 10
-1.0245201445
 20
4.2612102188
 30
0.0
 40
0.011069384110615
 50
170.5372134632
 51
273.5125307384
  0
ARC
  5
349
  8
0
  6
CONTINUOUS
 62
     7
 10
-0.8220077802
 20
4.313598255
 30
0.0
 40
0.0634428605219404
 50
200.7758442927
 51
270.8032700266
  0
ARC
  5
34A
  8
0
  6
CONTINUOUS
 62
     7
 10
-0.8207199168
 20
4.314434445
 30
0.0
 40
0.0642740506878222
 50
269.6448145542
 51
2.4997908363
  0
ARC
  5
34B
  8
0
  6
CONTINUOUS
 62
     7
 10
-0.820093025
 20
4.3137167669
 30
0.0
 40
0.0406167151862726
 50
268.5534635769
 51
338.7166460081
  0
ARC
  5
34C
  8
0
  6
CONTINUOUS
 62
     7
 10
-0.8218986974
 20
4.3133415676
 30
0.0
 40
0.0402361397069098
 50
207.9409381368
 51
271.1112620318
  0
ARC
  5
34D
  8
0
  6
CONTINUOUS
 62
     7
 10
-1.2022299903
 20
0.766210116
 30
0.0
 40
0.0729322198702414
 50
319.4101140845
 51
5.3931328237
  0
ARC
  5
34E
  8
0
  6
CONTINUOUS
 62
     7
 10
-1.2010340624
 20
0.7806126507
 30
0.0
 40
0.0718111905469826
 50
353.9667888036
 51
43.3303684545
  0
ARC
  5
34F
  8
0
  6
CONTINUOUS
 62
     7
 10
-1.1455920529
 20
0.7807159707
 30
0.0
 40
0.0745139140197363
 50
142.1209378369
 51
184.1903809427
  0
ARC
  5
350
  8
0
  6
CONTINUOUS
 62
     7
 10
-1.0980552667
 20
0.8281941724
 30
0.0
 40
0.0097156745570925
 50
78.7975098713
 51
188.2103611097
  0
ARC
  5
351
  8
0
  6
CONTINUOUS
 62
     7
 10
-1.0998038552
 20
0.7156740367
 30
0.0
 40
0.008062594449673
 50
205.5603884343
 51
271.1759998401
  0
ARC
  5
352
  8
0
  6
CONTINUOUS
 62
     7
 10
-1.0991940622
 20
0.7149464766
 30
0.0
 40
0.0073467841506426
 50
266.5327460373
 51
342.9252465218
  0
ARC
  5
353
  8
0
  6
CONTINUOUS
 62
     7
 10
-1.0440624351
 20
0.7803959738
 30
0.0
 40
0.0074213573029847
 50
288.2469373692
 51
2.3627555683
  0
ARC
  5
354
  8
0
  6
CONTINUOUS
 62
     7
 10
-0.9894403504
 20
0.8281941724
 30
0.0
 40
0.0097156745570925
 50
78.7975098713
 51
188.2103611097
  0
ARC
  5
355
  8
0
  6
CONTINUOUS
 62
     7
 10
-0.9911889389
 20
0.7156740367
 30
0.0
 40
0.0080625944496726
 50
205.5603884343
 51
271.1759998401
  0
ARC
  5
356
  8
0
  6
CONTINUOUS
 62
     7
 10
-0.9905791459
 20
0.7149464766
 30
0.0
 40
0.0073467841506427
 50
266.5327460373
 51
342.9252465218
  0
ARC
  5
357
  8
0
  6
CONTINUOUS
 62
     7
 10
-0.9354475188
 20
0.7803959738
 30
0.0
 40
0.0074213573029862
 50
288.2469373692
 51
2.3627555683
  0
ARC
  5
358
  8
0
  6
CONTINUOUS
 62
     7
 10
-1.5058314436
 20
1.1305978175
 30
0.0
 40
0.0080894852898064
 50
168.5812428508
 51
277.163473783
  0
ARC
  5
359
  8
0
  6
CONTINUOUS
 62
     7
 10
-1.4321609098
 20
1.1299192341
 30
0.0
 40
0.0073298354170171
 50
287.7718485467
 51
358.9442883407
  0
ARC
  5
35A
  8
0
  6
CONTINUOUS
 62
     7
 10
-1.4318789211
 20
1.1297213506
 30
0.0
 40
0.0070468825857696
 50
0.5108906249
 51
72.2078965474
  0
ARC
  5
35B
  8
0
  6
CONTINUOUS
 62
     7
 10
-0.6954087308
 20
1.2430052644
 30
0.0
 40
0.009896912858356
 50
77.9211886908
 51
189.3502200465
  0
ARC
  5
35C
  8
0
  6
CONTINUOUS
 62
     7
 10
-0.6975659719
 20
1.1301551967
 30
0.0
 40
0.0076027762765286
 50
192.9239105107
 51
274.0573986087
  0
ARC
  5
35D
  8
0
  6
CONTINUOUS
 62
     7
 10
-0.627561997
 20
1.1310783807
 30
0.0
 40
0.0078379577531067
 50
267.1205613064
 51
359.223502205
  0
ARC
  5
35E
  8
0
  6
CONTINUOUS
 62
     7
 10
-0.6575086061
 20
1.2142255021
 30
0.0
 40
0.0372020294009664
 50
278.7117108847
 51
1.4655943858
  0
ARC
  5
35F
  8
0
  6
CONTINUOUS
 62
     7
 10
-0.6579254314
 20
1.2151204506
 30
0.0
 40
0.0376067271414076
 50
0.0861646738
 51
93.5550885186
  0
ARC
  5
360
  8
0
  6
CONTINUOUS
 62
     7
 10
-1.5528359417
 20
1.7551280378
 30
0.0
 40
0.010224349988476
 50
359.5756107349
 51
70.4372287466
  0
ARC
  5
361
  8
0
  6
CONTINUOUS
 62
     7
 10
-1.5079666229
 20
1.9025385377
 30
0.0
 40
0.0095848316302335
 50
88.4055979953
 51
158.7652376382
  0
ARC
  5
362
  8
0
  6
CONTINUOUS
 62
     7
 10
-1.5074724569
 20
1.7552198655
 30
0.0
 40
0.0103540386168932
 50
210.5244789554
 51
271.5587741351
  0
ARC
  5
363
  8
0
  6
CONTINUOUS
 62
     7
 10
-1.3070561087
 20
1.7906187753
 30
0.0
 40
0.0251237911942446
 50
267.1578526034
 51
331.0882993659
  0
ARC
  5
364
  8
0
  6
CONTINUOUS
 62
     7
 10
-1.2749095488
 20
1.8299246359
 30
0.0
 40
0.0798425031917827
 50
180.9087676057
 51
219.2069805747
  0
ARC
  5
365
  8
0
  6
CONTINUOUS
 62
     7
 10
-1.3058119031
 20
1.8514361012
 30
0.0
 40
0.0401213080665717
 50
93.9224153848
 51
155.3199154612
  0
ARC
  5
366
  8
0
  6
CONTINUOUS
 62
     7
 10
-1.3099914961
 20
1.8592599167
 30
0.0
 40
0.0322354714754837
 50
30.0240949029
 51
87.4484417084
  0
ARC
  5
367
  8
0
  6
CONTINUOUS
 62
     7
 10
-1.2707555051
 20
1.8801387838
 30
0.0
 40
0.0122815221868372
 50
202.7499673634
 51
265.3393657055
  0
ARC
  5
368
  8
0
  6
CONTINUOUS
 62
     7
 10
-1.2728763772
 20
1.8792970496
 30
0.0
 40
0.0114543569520068
 50
275.6261519981
 51
1.3732092107
  0
ARC
  5
369
  8
0
  6
CONTINUOUS
 62
     7
 10
-1.2818345468
 20
1.8775858059
 30
0.0
 40
0.0205056122872979
 50
5.5571785035
 51
49.6319585708
  0
ARC
  5
36A
  8
0
  6
CONTINUOUS
 62
     7
 10
-1.3107592008
 20
1.8556227477
 30
0.0
 40
0.0565161733580188
 50
41.686428605
 51
88.5040337788
  0
ARC
  5
36B
  8
0
  6
CONTINUOUS
 62
     7
 10
-1.2796387713
 20
1.8282541891
 30
0.0
 40
0.095795858624816
 50
129.856986529
 51
180.0410578382
  0
ARC
  5
36C
  8
0
  6
CONTINUOUS
 62
     7
 10
-1.2767355796
 20
1.8287817063
 30
0.0
 40
0.0987008261764175
 50
180.3460749835
 51
217.0538445951
  0
ARC
  5
36D
  8
0
  6
CONTINUOUS
 62
     7
 10
-1.3088143327
 20
1.8016729918
 30
0.0
 40
0.0568117615785256
 50
214.7284698933
 51
269.0130571423
  0
ARC
  5
36E
  8
0
  6
CONTINUOUS
 62
     7
 10
-1.3094967414
 20
1.7979204513
 30
0.0
 40
0.0530516194865316
 50
269.6801579198
 51
322.6623859822
  0
ARC
  5
36F
  8
0
  6
CONTINUOUS
 62
     7
 10
-1.3042526423
 20
1.8295806834
 30
0.0
 40
0.0100498823188547
 50
110.6250783487
 51
179.6606490088
  0
ARC
  5
370
  8
0
  6
CONTINUOUS
 62
     7
 10
-1.3026744775
 20
1.8334132837
 30
0.0
 40
0.0142594714788579
 50
240.0525233061
 51
278.5447752461
  0
ARC
  5
371
  8
0
  6
CONTINUOUS
 62
     7
 10
-1.0632577821
 20
1.8294697617
 30
0.0
 40
0.1003783546309297
 50
179.7989201252
 51
216.486970263
  0
ARC
  5
372
  8
0
  6
CONTINUOUS
 62
     7
 10
-1.0966440654
 20
1.8022571152
 30
0.0
 40
0.057390089202884
 50
214.4639444881
 51
269.4512225417
  0
ARC
  5
373
  8
0
  6
CONTINUOUS
 62
     7
 10
-1.0969757802
 20
1.7985164374
 30
0.0
 40
0.0536472216862887
 50
269.7672184896
 51
318.5682406293
  0
ARC
  5
374
  8
0
  6
CONTINUOUS
 62
     7
 10
-1.0586494753
 20
1.776959745
 30
0.0
 40
0.0099866208062159
 50
356.5750590795
 51
90.6010728433
  0
ARC
  5
375
  8
0
  6
CONTINUOUS
 62
     7
 10
-1.0593168447
 20
1.7768814022
 30
0.0
 40
0.0100801267492383
 50
86.8004736732
 51
150.2006812944
  0
ARC
  5
376
  8
0
  6
CONTINUOUS
 62
     7
 10
-1.0646197575
 20
1.8297409586
 30
0.0
 40
0.0783287716476456
 50
180.6855459676
 51
220.0101525577
  0
ARC
  5
377
  8
0
  6
CONTINUOUS
 62
     7
 10
-1.085242452
 20
1.8345719609
 30
0.0
 40
0.0579880699719686
 50
101.1603964736
 51
185.7087637986
  0
ARC
  5
378
  8
0
  6
CONTINUOUS
 62
     7
 10
-1.0970912667
 20
1.8590764006
 30
0.0
 40
0.0323930555610262
 50
35.0522556306
 51
88.8946977788
  0
ARC
  5
379
  8
0
  6
CONTINUOUS
 62
     7
 10
-1.0595024786
 20
1.880791707
 30
0.0
 40
0.0105690784196652
 50
271.2963232974
 51
1.0741983399
  0
ARC
  5
37A
  8
0
  6
CONTINUOUS
 62
     7
 10
-1.0622120138
 20
1.8804271964
 30
0.0
 40
0.0132886730054061
 50
2.4266666851
 51
48.9269646786
  0
ARC
  5
37B
  8
0
  6
CONTINUOUS
 62
     7
 10
-1.0972662094
 20
1.8570962827
 30
0.0
 40
0.0550389425182259
 50
37.2946616073
 51
88.6372633253
  0
ARC
  5
37C
  8
0
  6
CONTINUOUS
 62
     7
 10
-1.0959709241
 20
1.8543916988
 30
0.0
 40
0.0577643007841956
 50
89.9660991922
 51
143.6085338566
  0
ARC
  5
37D
  8
0
  6
CONTINUOUS
 62
     7
 10
-1.0661475951
 20
1.8279825142
 30
0.0
 40
0.0975052771559389
 50
141.5133456819
 51
178.9189991987
  0
ARC
  5
37E
  8
0
  6
CONTINUOUS
 62
     7
 10
-1.0091047673
 20
1.8997131012
 30
0.0
 40
0.0127246022464577
 50
77.9211886908
 51
189.3502200465
  0
ARC
  5
37F
  8
0
  6
CONTINUOUS
 62
     7
 10
-1.0118783631
 20
1.7546201571
 30
0.0
 40
0.009774998069822
 50
192.9239105107
 51
274.0573986087
  0
ARC
  5
380
  8
0
  6
CONTINUOUS
 62
     7
 10
-0.9218732525
 20
1.7558071079
 30
0.0
 40
0.0100773742539936
 50
267.1205613064
 51
359.223502205
  0
ARC
  5
381
  8
0
  6
CONTINUOUS
 62
     7
 10
-0.9603760356
 20
1.8627105498
 30
0.0
 40
0.0478311806583853
 50
278.7117108847
 51
1.4655943858
  0
ARC
  5
382
  8
0
  6
CONTINUOUS
 62
     7
 10
-0.9609119539
 20
1.8638611978
 30
0.0
 40
0.0483515063246668
 50
0.0861646738
 51
93.5550885186
  0
ARC
  5
383
  8
0
  6
CONTINUOUS
 62
     7
 10
-0.7635009029
 20
1.7550579317
 30
0.0
 40
0.0102088279376783
 50
266.3635516807
 51
356.4964964219
  0
ARC
  5
384
  8
0
  6
CONTINUOUS
 62
     7
 10
-0.8209092089
 20
1.9020795512
 30
0.0
 40
0.0100508837996181
 50
87.3465299601
 51
167.86888693
  0
ARC
  5
385
  8
0
  6
CONTINUOUS
 62
     7
 10
-0.8764023824
 20
1.7550222132
 30
0.0
 40
0.0101730152789296
 50
183.3143231693
 51
273.6344915658
  0
ARC
  5
386
  8
0
  6
CONTINUOUS
 62
     7
 10
-0.8753052659
 20
1.7552777475
 30
0.0
 40
0.0104179093433228
 50
267.5120398857
 51
341.4364807224
  0
ARC
  5
387
  8
0
  6
CONTINUOUS
 62
     7
 10
-0.764305138
 20
1.7554866646
 30
0.0
 40
0.0106181630564504
 50
192.4212479253
 51
270.8457816568
  0
ARC
  5
388
  8
0
  6
CONTINUOUS
 62
     7
 10
-0.7189568381
 20
1.9025385377
 30
0.0
 40
0.0095848316302335
 50
88.4055979953
 51
158.7652376382
  0
ARC
  5
389
  8
0
  6
CONTINUOUS
 62
     7
 10
-0.7184626722
 20
1.7552198655
 30
0.0
 40
0.0103540386168899
 50
210.5244789554
 51
271.5587741352
  0
ARC
  5
38A
  8
0
  6
CONTINUOUS
 62
     7
 10
-0.5764124361
 20
1.7549649144
 30
0.0
 40
0.0101057852041254
 50
170.8094507184
 51
272.6157101706
  0
ARC
  5
38B
  8
0
  6
CONTINUOUS
 62
     7
 10
-0.4857989215
 20
1.7546418671
 30
0.0
 40
0.0098019668160358
 50
265.534252802
 51
356.444777857
  0
ARC
  5
38C
  8
0
  6
CONTINUOUS
 62
     7
 10
-0.4996699251
 20
1.902032666
 30
0.0
 40
0.0100898175702816
 50
359.456802434
 51
91.3558900326
  0
ARC
  5
38D
  8
0
  6
CONTINUOUS
 62
     7
 10
-1.2047157775
 20
0.7671989705
 30
0.0
 40
0.0594260058391052
 50
324.0101735219
 51
6.6249399043
  0
ARC
  5
38E
  8
0
  6
CONTINUOUS
 62
     7
 10
-1.1734282403
 20
0.7491779403
 30
0.0
 40
0.0255281232583723
 50
214.6769990014
 51
267.2555586444
  0
ARC
  5
38F
  8
0
  6
CONTINUOUS
 62
     7
 10
-1.1483664219
 20
0.7810458826
 30
0.0
 40
0.0557884265635273
 50
141.9065055769
 51
186.3504128632
  0
ARC
  5
390
  8
0
  6
CONTINUOUS
 62
     7
 10
-1.2015522168
 20
0.7801632958
 30
0.0
 40
0.0561985904323381
 50
353.7600412398
 51
40.7538437424
  0
ARC
  5
391
  8
0
  6
CONTINUOUS
 62
     7
 10
-1.532464088
 20
3.9235458826
 30
0.0
 40
0.0557884265635377
 50
141.9065055769
 51
186.3504128632
  0
ARC
  5
392
  8
0
  6
CONTINUOUS
 62
     7
 10
-1.5575259065
 20
3.8916779403
 30
0.0
 40
0.0255281232583758
 50
214.6769990014
 51
267.2555586444
  0
ARC
  5
393
  8
0
  6
CONTINUOUS
 62
     7
 10
-1.5888134437
 20
3.9096989705
 30
0.0
 40
0.0594260058390968
 50
324.0101735219
 51
6.6249399043
  0
ARC
  5
394
  8
0
  6
CONTINUOUS
 62
     7
 10
-1.585649883
 20
3.9226632958
 30
0.0
 40
0.0561985904323393
 50
353.7600412398
 51
40.7538437424
  0
ARC
  5
395
  8
0
  6
CONTINUOUS
 62
     7
 10
-1.5858664219
 20
3.0935458826
 30
0.0
 40
0.0557884265635331
 50
141.9065055769
 51
186.3504128632
  0
ARC
  5
396
  8
0
  6
CONTINUOUS
 62
     7
 10
-1.6109282403
 20
3.0616779403
 30
0.0
 40
0.025528123258374
 50
214.6769990014
 51
267.2555586444
  0
ARC
  5
397
  8
0
  6
CONTINUOUS
 62
     7
 10
-1.6422157775
 20
3.0796989705
 30
0.0
 40
0.0594260058391025
 50
324.0101735219
 51
6.6249399043
  0
ARC
  5
398
  8
0
  6
CONTINUOUS
 62
     7
 10
-1.6390522168
 20
3.0926632958
 30
0.0
 40
0.0561985904323387
 50
353.7600412398
 51
40.7538437424
  0
ARC
  5
399
  8
0
  6
CONTINUOUS
 62
     7
 10
-0.6806517613
 20
3.9423610656
 30
0.0
 40
0.0220066344359032
 50
296.6526055456
 51
0.4155570483
  0
ARC
  5
39A
  8
0
  6
CONTINUOUS
 62
     7
 10
-0.680514979
 20
3.9424528959
 30
0.0
 40
0.021869378425365
 50
0.177574805
 51
65.2928777393
  0
ARC
  5
39B
  8
0
  6
CONTINUOUS
 62
     7
 10
-0.9684787709
 20
4.3818967213
 30
0.0
 40
0.0312726572380121
 50
266.1380101884
 51
0.7271821211
  0
ARC
  5
39C
  8
0
  6
CONTINUOUS
 62
     7
 10
-0.9683919697
 20
4.3821432782
 30
0.0
 40
0.0311836997889329
 50
0.2762235399
 51
97.1582508803
  0
ARC
  5
39D
  8
0
  6
CONTINUOUS
 62
     7
 10
-0.6583907588
 20
1.2148194006
 30
0.0
 40
0.0220066344359034
 50
296.6526055456
 51
0.4155570483
  0
ARC
  5
39E
  8
0
  6
CONTINUOUS
 62
     7
 10
-0.6582539766
 20
1.2149112309
 30
0.0
 40
0.0218693784253654
 50
0.177574805
 51
65.2928777393
  0
ARC
  5
39F
  8
0
  6
CONTINUOUS
 62
     7
 10
-0.961510232
 20
1.8634741335
 30
0.0
 40
0.0282942442747346
 50
296.6526055456
 51
0.4155570483
  0
ARC
  5
3A0
  8
0
  6
CONTINUOUS
 62
     7
 10
-0.9613343691
 20
1.863592201
 30
0.0
 40
0.0281177722611848
 50
0.177574805
 51
65.2928777393
  0
ENDSEC
  0
EOF
