<?xml version="1.0" encoding="utf-8"?>
<!-- Generator: Fusion 360, Shaper Origin Export Add-In, Version 1.6.10  -->
<svg xmlns="http://www.w3.org/2000/svg" xmlns:xlink="http://www.w3.org/1999/xlink" xmlns:shaper="http://www.shapertools.com/namespaces/shaper" shaper:fusionaddin="version:1.6.10" width="71.3742931cm" height="24.0321996cm" version="1.1" x="0cm" y="0cm" viewBox="0 0 71.3742931 24.0321996" enable-background="new 0 0 71.3742931 24.0321996" xml:space="preserve"><path d="M33.4206625,10.9821882 L33.4206625,10.9821882 33.7047827,10.9557415 33.9887044,10.9290127 34.2724112,10.9020033 34.5558866,10.874715 34.8391142,10.8471492 35.1220777,10.8193075 35.4047606,10.7911917 35.6871466,10.7628032 35.6871466,-12.0199276 -35.6871466,-12.0199276 -35.6871402,4.5538438 -35.6871338,4.5538448 -35.4284449,4.6453861 -35.1697831,4.7362915 -34.9111452,4.8265621 -34.6525282,4.9161993 -34.3939292,5.0052043 -34.1353452,5.0935784 -33.876773,5.1813229 -33.6182099,5.2684391 -33.3596526,5.3549283 -33.1010983,5.4407916 -32.8425439,5.5260304 -32.5839865,5.610646 -32.325423,5.6946397 -32.0668504,5.7780126 -31.8082657,5.8607662 -31.549666,5.9429016 -31.2910481,6.0244201 -31.0324092,6.1053231 -30.7737462,6.1856117 -30.5150561,6.2652873 -30.2563359,6.3443511 -29.9975826,6.4228045 -29.7387932,6.5006486 -29.4799647,6.5778848 -29.2210941,6.6545143 -28.9621784,6.7305385 -28.7032145,6.8059585 -28.4441996,6.8807757 -28.1851305,6.9549913 -27.9260043,7.0286066 -27.666818,7.1016229 -27.4075686,7.1740415 -26.8888684,7.3170905 -26.3698796,7.4577638 -25.8505783,7.5960717 -25.3309404,7.7320243 -24.8109419,7.8656318 -24.2905588,7.9969045 -23.769767,8.1258525 -23.2485426,8.2524859 -22.7268615,8.3768151 -22.2046997,8.4988503 -21.6820331,8.6186015 -21.1588378,8.736079 -20.6350898,8.8512931 -20.1107649,8.9642539 -19.5858392,9.0749715 -19.0602887,9.1834563 -18.5340894,9.2897184 -18.0072171,9.3937679 -17.479648,9.4956152 -16.9513579,9.5952703 -16.422323,9.6927441 -15.8925207,9.7880531 -15.3619276,9.8812096 -14.8305194,9.9722237 -14.2982722,10.0611059 -13.765162,10.1478665 -13.2311648,10.2325157 -12.6962565,10.315064 -12.160413,10.3955215 -11.6236104,10.4738987 -11.0858246,10.5502059 -10.5470316,10.6244533 -10.0072074,10.6966513 -9.4663279,10.7668103 -8.9243875,10.8349368 -8.3815305,10.9010158 -7.8378882,10.9650455 -7.2935777,11.0270282 -6.7487159,11.0869658 -6.2034198,11.1448605 -5.6578066,11.2007143 -5.1119933,11.2545293 -4.5660844,11.3063091 -4.0199929,11.3560812 -3.4736857,11.4038695 -2.9271787,11.4496927 -2.3804875,11.4935693 -1.8336277,11.535518 -1.2866152,11.5755572 -0.7394656,11.6137057 -0.1921945,11.6499819 0.3551822,11.6844046 0.902649,11.7169922 1.45019,11.7477634 1.9977897,11.7767367 2.5454322,11.8039308 3.093102,11.8293642 3.6407832,11.8530555 4.1884603,11.8750233 4.7361174,11.8952863 5.283739,11.9138629 5.8313093,11.9307718 6.3788126,11.9460315 6.9262332,11.9596608 7.4735553,11.971678 8.0207634,11.9821019 8.5678418,11.9909517 9.1147748,11.9982482 9.661547,12.0040102 10.2081426,12.0082559 10.7545462,12.0110037 11.300742,12.0122719 11.8467145,12.0120791 12.392448,12.0104434 12.9379269,12.0073833 13.4831357,12.0029172 14.0280587,11.9970633 14.5726803,11.9898395 15.1169848,11.9812624 15.6609566,11.9713489 16.20458,11.9601156 16.7478393,11.9475794 17.2907187,11.9337569 17.8332027,11.918665 18.3752757,11.9023204 18.917084,11.8847377 19.4592068,11.8659046 20.0022946,11.8458009 20.5469984,11.8244061 20.8201595,11.8132182 21.0939424,11.8017003 21.6429315,11.777678 22.1936565,11.752347 22.7460186,11.7257147 23.2999192,11.6977884 23.8552595,11.6685752 24.4119407,11.6380825 24.9698642,11.6063176 25.5289313,11.5732877 26.0890432,11.539 26.6501012,11.503462 27.2120065,11.4666807 27.7746604,11.4286636 28.3379643,11.3894179 28.9018194,11.3489508 29.466127,11.3072696 30.0307882,11.2643816 30.5957045,11.2202941 31.1607771,11.1750144 31.7259073,11.1285496 32.2909963,11.0809072 32.8559455,11.0320943 33.420656,10.9821182" transform="matrix(1,0,0,-1,35.6871466,12.0122719)" fill="rgb(0,0,0)" stroke-linecap="round" stroke-linejoin="round" /><path d="M34.1017695,-8.5274276 L31.5617695,-8.5274276 A0.635,0.635 270 0,0 31.5617695,-7.2574276 L34.1017695,-7.2574276 A0.635,0.635 90 1,0 34.1017695,-8.5274276z" transform="matrix(1,0,0,-1,35.6871466,12.0122719)" fill="rgb(255,255,255)" stroke="rgb(0,0,0)" stroke-width="0.0010cm" stroke-linecap="round" stroke-linejoin="round" /><path d="M34.1017695,5.3582036 L31.5617695,5.3582036 A0.635,0.635 270 1,0 31.5617695,6.6282036 L34.1017695,6.6282036 A0.635,0.635 90 0,0 34.1017695,5.3582036z" transform="matrix(1,0,0,-1,35.6871466,12.0122719)" fill="rgb(255,255,255)" stroke="rgb(0,0,0)" stroke-width="0.0010cm" stroke-linecap="round" stroke-linejoin="round" /><path d="M3.1348299,9.982263 a0.245745,0.245745 0 1,1 0.49149,0 a0.245745,0.245745 0 1,1 -0.49149,0z" transform="matrix(1,0,0,-1,35.6871466,12.0122719)" fill="rgb(255,255,255)" stroke="rgb(0,0,0)" stroke-width="0.0010cm" stroke-linecap="round" stroke-linejoin="round" /><path d="M2.0446016,7.8993782 a0.245745,0.245745 0 1,1 0.49149,0 a0.245745,0.245745 0 1,1 -0.49149,0z" transform="matrix(1,0,0,-1,35.6871466,12.0122719)" fill="rgb(255,255,255)" stroke="rgb(0,0,0)" stroke-width="0.0010cm" stroke-linecap="round" stroke-linejoin="round" /><path d="M3.8566574,6.1354552 a0.245745,0.245745 0 1,1 0.49149,0 a0.245745,0.245745 0 1,1 -0.49149,0z" transform="matrix(1,0,0,-1,35.6871466,12.0122719)" fill="rgb(255,255,255)" stroke="rgb(0,0,0)" stroke-width="0.0010cm" stroke-linecap="round" stroke-linejoin="round" /><path d="M4.1215277,-3.1989373 a0.245745,0.245745 0 1,1 0.49149,0 a0.245745,0.245745 0 1,1 -0.49149,0z" transform="matrix(1,0,0,-1,35.6871466,12.0122719)" fill="rgb(255,255,255)" stroke="rgb(0,0,0)" stroke-width="0.0010cm" stroke-linecap="round" stroke-linejoin="round" /><path d="M3.4241,0.5178379 a0.245745,0.245745 0 1,1 0.49149,0 a0.245745,0.245745 0 1,1 -0.49149,0z" transform="matrix(1,0,0,-1,35.6871466,12.0122719)" fill="rgb(255,255,255)" stroke="rgb(0,0,0)" stroke-width="0.0010cm" stroke-linecap="round" stroke-linejoin="round" /><path d="M4.6013625,-1.1850782 a0.245745,0.245745 0 1,1 0.49149,0 a0.245745,0.245745 0 1,1 -0.49149,0z" transform="matrix(1,0,0,-1,35.6871466,12.0122719)" fill="rgb(255,255,255)" stroke="rgb(0,0,0)" stroke-width="0.0010cm" stroke-linecap="round" stroke-linejoin="round" /><path d="M32.4129596,9.8103031 a0.099187,0.099187 0 1,1 0.198374,0 a0.099187,0.099187 0 1,1 -0.198374,0z" transform="matrix(1,0,0,-1,35.6871466,12.0122719)" fill="rgb(255,255,255)" stroke="rgb(0,0,0)" stroke-width="0.0010cm" stroke-linecap="round" stroke-linejoin="round" /><path d="M30.7318147,9.8103031 a0.099187,0.099187 0 1,1 0.198374,0 a0.099187,0.099187 0 1,1 -0.198374,0z" transform="matrix(1,0,0,-1,35.6871466,12.0122719)" fill="rgb(255,255,255)" stroke="rgb(0,0,0)" stroke-width="0.0010cm" stroke-linecap="round" stroke-linejoin="round" /><path d="M29.0506697,9.8103031 a0.099187,0.099187 0 1,1 0.198374,0 a0.099187,0.099187 0 1,1 -0.198374,0z" transform="matrix(1,0,0,-1,35.6871466,12.0122719)" fill="rgb(255,255,255)" stroke="rgb(0,0,0)" stroke-width="0.0010cm" stroke-linecap="round" stroke-linejoin="round" /><path d="M29.0506697,-9.1624276 a0.099187,0.099187 0 1,1 0.198374,0 a0.099187,0.099187 0 1,1 -0.198374,0z" transform="matrix(1,0,0,-1,35.6871466,12.0122719)" fill="rgb(255,255,255)" stroke="rgb(0,0,0)" stroke-width="0.0010cm" stroke-linecap="round" stroke-linejoin="round" /><path d="M30.7318146,-9.1624276 a0.099187,0.099187 0 1,1 0.198374,0 a0.099187,0.099187 0 1,1 -0.198374,0z" transform="matrix(1,0,0,-1,35.6871466,12.0122719)" fill="rgb(255,255,255)" stroke="rgb(0,0,0)" stroke-width="0.0010cm" stroke-linecap="round" stroke-linejoin="round" /><path d="M32.4129596,-9.1624276 a0.099187,0.099187 0 1,1 0.198374,0 a0.099187,0.099187 0 1,1 -0.198374,0z" transform="matrix(1,0,0,-1,35.6871466,12.0122719)" fill="rgb(255,255,255)" stroke="rgb(0,0,0)" stroke-width="0.0010cm" stroke-linecap="round" stroke-linejoin="round" /><path d="M23.7568165,2.5850724 L23.7568165,-5.0349276 A2.54,2.54 0 0,0 21.2168165,-7.5749276 L13.5968165,-7.5749276 A2.54,2.54 270 0,0 11.0568165,-5.0349276 L11.0568165,2.5850724 A2.54,2.54 180 0,0 13.5968165,5.1250724 L21.2168165,5.1250724 A2.54,2.54 90 0,0 23.7568165,2.5850724z" transform="matrix(1,0,0,-1,35.6871466,12.0122719)" fill="rgb(255,255,255)" stroke="rgb(0,0,0)" stroke-width="0.0010cm" stroke-linecap="round" stroke-linejoin="round" /><path d="M27.5668165,1.9500724 a1.905,1.905 0 1,1 3.81,0 a1.905,1.905 0 1,1 -3.81,0z" transform="matrix(1,0,0,-1,35.6871466,12.0122719)" fill="rgb(255,255,255)" stroke="rgb(0,0,0)" stroke-width="0.0010cm" stroke-linecap="round" stroke-linejoin="round" /><path d="M-32.101711,3.2200724 a0.2413,0.2413 0 1,1 0.4826,0 a0.2413,0.2413 0 1,1 -0.4826,0z" transform="matrix(1,0,0,-1,35.6871466,12.0122719)" fill="rgb(255,255,255)" stroke="rgb(0,0,0)" stroke-width="0.0010cm" stroke-linecap="round" stroke-linejoin="round" /><path d="M-32.101711,-1.2249276 a0.2413,0.2413 0 1,1 0.4826,0 a0.2413,0.2413 0 1,1 -0.4826,0z" transform="matrix(1,0,0,-1,35.6871466,12.0122719)" fill="rgb(255,255,255)" stroke="rgb(0,0,0)" stroke-width="0.0010cm" stroke-linecap="round" stroke-linejoin="round" /><path d="M-30.196711,-1.2249276 a0.2413,0.2413 0 1,1 0.4826,0 a0.2413,0.2413 0 1,1 -0.4826,0z" transform="matrix(1,0,0,-1,35.6871466,12.0122719)" fill="rgb(255,255,255)" stroke="rgb(0,0,0)" stroke-width="0.0010cm" stroke-linecap="round" stroke-linejoin="round" /><path d="M-30.196711,3.2200724 a0.2413,0.2413 0 1,1 0.4826,0 a0.2413,0.2413 0 1,1 -0.4826,0z" transform="matrix(1,0,0,-1,35.6871466,12.0122719)" fill="rgb(255,255,255)" stroke="rgb(0,0,0)" stroke-width="0.0010cm" stroke-linecap="round" stroke-linejoin="round" /></svg>